note_on channel=0 note=53 velocity=48 time=0
note_on channel=0 note=53 velocity=0 time=0
note_on channel=0 note=68 velocity=0 time=0
note_on channel=0 note=65 velocity=41 time=0
note_on channel=0 note=60 velocity=38 time=0
note_on channel=0 note=51 velocity=37 time=0
note_on channel=0 note=51 velocity=0 time=0
note_on channel=0 note=56 velocity=0 time=0
note_on channel=0 note=60 velocity=38 time=0
note_on channel=0 note=65 velocity=45 time=0
note_on channel=0 note=65 velocity=0 time=47
note_on channel=0 note=60 velocity=0 time=0
note_on channel=0 note=60 velocity=43 time=0
note_on channel=0 note=60 velocity=0 time=220
note_on channel=0 note=60 velocity=36 time=0
note_on channel=0 note=60 velocity=0 time=0
note_on channel=0 note=55 velocity=40 time=0
note_on channel=0 note=55 velocity=0 time=240
note_on channel=0 note=55 velocity=34 time=0
note_on channel=0 note=55 velocity=0 time=240
note_on channel=0 note=60 velocity=34 time=0
note_on channel=0 note=72 velocity=0 time=235
note_on channel=0 note=73 velocity=33 time=0
note_on channel=0 note=73 velocity=0 time=120
note_on channel=0 note=73 velocity=34 time=0
note_on channel=0 note=73 velocity=0 time=0
note_on channel=0 note=67 velocity=0 time=0
note_on channel=0 note=57 velocity=0 time=0
note_on channel=0 note=71 velocity=50 time=0
note_on channel=0 note=54 velocity=51 time=0
note_on channel=0 note=40 velocity=40 time=0
note_on channel=0 note=64 velocity=0 time=120
note_on channel=0 note=69 velocity=33 time=0
note_on channel=0 note=69 velocity=0 time=107
note_on channel=0 note=59 velocity=0 time=0
note_on channel=0 note=47 velocity=0 time=0
note_on channel=0 note=73 velocity=37 time=0
note_on channel=0 note=48 velocity=30 time=0
note_on channel=0 note=43 velocity=30 time=0
note_on channel=0 note=71 velocity=0 time=108
note_on channel=0 note=72 velocity=36 time=0
note_on channel=0 note=72 velocity=0 time=120
note_on channel=0 note=73 velocity=33 time=0
note_on channel=0 note=73 velocity=0 time=120
note_on channel=0 note=49 velocity=0 time=0
note_on channel=0 note=73 velocity=40 time=0
note_on channel=0 note=69 velocity=36 time=0
note_on channel=0 note=73 velocity=0 time=107
note_on channel=0 note=74 velocity=33 time=0
note_on channel=0 note=74 velocity=0 time=120
note_on channel=0 note=74 velocity=34 time=0
note_on channel=0 note=74 velocity=0 time=120
note_on channel=0 note=76 velocity=34 time=0
note_on channel=0 note=76 velocity=0 time=0
note_on channel=0 note=73 velocity=28 time=0
note_on channel=0 note=73 velocity=0 time=0
note_on channel=0 note=57 velocity=0 time=0
note_on channel=0 note=72 velocity=33 time=0
note_on channel=0 note=59 velocity=40 time=0
note_on channel=0 note=71 velocity=0 time=0
note_on channel=0 note=74 velocity=32 time=0
note_on channel=0 note=74 velocity=0 time=0
note_on channel=0 note=59 velocity=0 time=0
note_on channel=0 note=78 velocity=0 time=0
note_on channel=0 note=77 velocity=38 time=0
note_on channel=0 note=74 velocity=50 time=0
note_on channel=0 note=79 velocity=51 time=0
note_on channel=0 note=77 velocity=0 time=0
note_on channel=0 note=59 velocity=0 time=0
note_on channel=0 note=79 velocity=0 time=0
note_on channel=0 note=83 velocity=44 time=0
note_on channel=0 note=69 velocity=36 time=0
note_on channel=0 note=69 velocity=0 time=40
note_on channel=0 note=81 velocity=0 time=0
note_on channel=0 note=85 velocity=34 time=0
note_on channel=0 note=74 velocity=32 time=0
note_on channel=0 note=76 velocity=0 time=63
note_on channel=0 note=81 velocity=0 time=0
note_on channel=0 note=78 velocity=37 time=0
note_on channel=0 note=69 velocity=30 time=0
note_on channel=0 note=69 velocity=0 time=120
note_on channel=0 note=78 velocity=0 time=0
note_on channel=0 note=62 velocity=0 time=0
note_on channel=0 note=81 velocity=48 time=0
note_on channel=0 note=62 velocity=36 time=0
note_on channel=0 note=62 velocity=0 time=63
note_on channel=0 note=74 velocity=0 time=0
note_on channel=0 note=81 velocity=0 time=0
note_on channel=0 note=79 velocity=41 time=0
note_on channel=0 note=66 velocity=41 time=0
note_on channel=0 note=62 velocity=37 time=0
note_on channel=0 note=69 velocity=0 time=51
note_on channel=0 note=69 velocity=35 time=0
note_on channel=0 note=69 velocity=0 time=0
note_on channel=0 note=69 velocity=36 time=0
note_on channel=0 note=69 velocity=0 time=0
note_on channel=0 note=62 velocity=0 time=0
note_on channel=0 note=81 velocity=0 time=0
note_on channel=0 note=78 velocity=36 time=0
note_on channel=0 note=66 velocity=26 time=0
note_on channel=0 note=69 velocity=31 time=0
note_on channel=0 note=78 velocity=0 time=40
note_on channel=0 note=78 velocity=45 time=0
note_on channel=0 note=78 velocity=0 time=120
note_on channel=0 note=72 velocity=0 time=0
note_on channel=0 note=61 velocity=0 time=0
note_on channel=0 note=78 velocity=37 time=0
note_on channel=0 note=62 velocity=30 time=0
note_on channel=0 note=62 velocity=0 time=0
note_on channel=0 note=78 velocity=0 time=0
note_on channel=0 note=81 velocity=38 time=0
note_on channel=0 note=63 velocity=27 time=0
note_on channel=0 note=63 velocity=0 time=0
note_on channel=0 note=81 velocity=0 time=0
note_on channel=0 note=65 velocity=0 time=0
note_on channel=0 note=78 velocity=54 time=0
note_on channel=0 note=62 velocity=36 time=0
note_on channel=0 note=62 velocity=0 time=240
note_on channel=0 note=76 velocity=36 time=0
note_on channel=0 note=78 velocity=0 time=0
note_on channel=0 note=78 velocity=36 time=0
note_on channel=0 note=66 velocity=0 time=0
note_on channel=0 note=62 velocity=36 time=0
note_on channel=0 note=79 velocity=0 time=0
note_on channel=0 note=83 velocity=40 time=0
note_on channel=0 note=62 velocity=0 time=0
note_on channel=0 note=81 velocity=0 time=0
note_on channel=0 note=85 velocity=42 time=0
note_on channel=0 note=57 velocity=30 time=0
note_on channel=0 note=57 velocity=0 time=160
note_on channel=0 note=57 velocity=27 time=0
note_on channel=0 note=57 velocity=0 time=0
note_on channel=0 note=84 velocity=0 time=0
note_on channel=0 note=86 velocity=30 time=0
note_on channel=0 note=62 velocity=31 time=0
note_on channel=0 note=62 velocity=0 time=0
note_on channel=0 note=86 velocity=0 time=0
note_on channel=0 note=78 velocity=0 time=0
note_on channel=0 note=86 velocity=50 time=0
note_on channel=0 note=59 velocity=30 time=0
note_on channel=0 note=62 velocity=36 time=0
note_on channel=0 note=62 velocity=0 time=0
note_on channel=0 note=83 velocity=0 time=0
note_on channel=0 note=76 velocity=0 time=0
note_on channel=0 note=74 velocity=46 time=0
note_on channel=0 note=83 velocity=46 time=0
note_on channel=0 note=86 velocity=56 time=0
note_on channel=0 note=74 velocity=38 time=0
note_on channel=0 note=62 velocity=34 time=0
note_on channel=0 note=86 velocity=53 time=113
note_on channel=0 note=79 velocity=39 time=0
note_on channel=0 note=74 velocity=0 time=120
note_on channel=0 note=86 velocity=0 time=0
note_on channel=0 note=79 velocity=0 time=0
note_on channel=0 note=74 velocity=39 time=0
note_on channel=0 note=86 velocity=46 time=0
note_on channel=0 note=62 velocity=39 time=0
note_on channel=0 note=62 velocity=0 time=0
note_on channel=0 note=74 velocity=0 time=0
note_on channel=0 note=78 velocity=0 time=0
note_on channel=0 note=88 velocity=0 time=0
note_on channel=0 note=64 velocity=38 time=0
note_on channel=0 note=64 velocity=0 time=120
note_on channel=0 note=74 velocity=47 time=0
note_on channel=0 note=88 velocity=55 time=0
note_on channel=0 note=64 velocity=40 time=0
note_on channel=0 note=60 velocity=41 time=0
note_on channel=0 note=57 velocity=35 time=0
note_on channel=0 note=57 velocity=0 time=120
note_on channel=0 note=60 velocity=0 time=0
note_on channel=0 note=64 velocity=0 time=0
note_on channel=0 note=60 velocity=44 time=0
note_on channel=0 note=60 velocity=0 time=120
note_on channel=0 note=88 velocity=0 time=120
note_on channel=0 note=72 velocity=0 time=0
note_on channel=0 note=88 velocity=61 time=0
note_on channel=0 note=76 velocity=52 time=0
note_on channel=0 note=64 velocity=34 time=0
note_on channel=0 note=64 velocity=0 time=120
note_on channel=0 note=76 velocity=0 time=0
note_on channel=0 note=88 velocity=0 time=0
note_on channel=0 note=88 velocity=53 time=0
note_on channel=0 note=76 velocity=49 time=0
note_on channel=0 note=64 velocity=34 time=0
note_on channel=0 note=64 velocity=0 time=57
note_on channel=0 note=64 velocity=33 time=0
note_on channel=0 note=64 velocity=0 time=120
note_on channel=0 note=55 velocity=35 time=0
note_on channel=0 note=64 velocity=41 time=0
note_on channel=0 note=64 velocity=0 time=120
note_on channel=0 note=55 velocity=0 time=0
note_on channel=0 note=60 velocity=37 time=0
note_on channel=0 note=64 velocity=48 time=0
note_on channel=0 note=64 velocity=0 time=75
note_on channel=0 note=55 velocity=0 time=0
note_on channel=0 note=64 velocity=38 time=0
note_on channel=0 note=64 velocity=0 time=120
note_on channel=0 note=72 velocity=0 time=0
note_on channel=0 note=84 velocity=0 time=0
note_on channel=0 note=84 velocity=57 time=0
note_on channel=0 note=72 velocity=54 time=0
note_on channel=0 note=55 velocity=49 time=0
note_on channel=0 note=60 velocity=58 time=0
note_on channel=0 note=60 velocity=0 time=0
note_on channel=0 note=64 velocity=0 time=0
note_on channel=0 note=84 velocity=0 time=0
note_on channel=0 note=64 velocity=0 time=0
note_on channel=0 note=57 velocity=45 time=0
note_on channel=0 note=60 velocity=53 time=0
note_on channel=0 note=60 velocity=0 time=120
note_on channel=0 note=57 velocity=0 time=0
note_on channel=0 note=64 velocity=51 time=120
note_on channel=0 note=64 velocity=0 time=120
note_on channel=0 note=82 velocity=57 time=0
note_on channel=0 note=67 velocity=40 time=0
note_on channel=0 note=59 velocity=37 time=0
note_on channel=0 note=62 velocity=45 time=0
note_on channel=0 note=62 velocity=0 time=120
note_on channel=0 note=59 velocity=0 time=0
note_on channel=0 note=83 velocity=0 time=0
note_on channel=0 note=59 velocity=0 time=0
note_on channel=0 note=77 velocity=51 time=0
note_on channel=0 note=79 velocity=61 time=0
note_on channel=0 note=55 velocity=40 time=0
note_on channel=0 note=59 velocity=44 time=0
note_on channel=0 note=62 velocity=49 time=0
note_on channel=0 note=62 velocity=0 time=240
note_on channel=0 note=56 velocity=0 time=0
note_on channel=0 note=65 velocity=0 time=0
note_on channel=0 note=56 velocity=0 time=0
note_on channel=0 note=77 velocity=0 time=120
note_on channel=0 note=65 velocity=39 time=0
note_on channel=0 note=65 velocity=0 time=0
note_on channel=0 note=82 velocity=58 time=0
note_on channel=0 note=64 velocity=55 time=0
note_on channel=0 note=58 velocity=40 time=0
note_on channel=0 note=60 velocity=42 time=0
note_on channel=0 note=60 velocity=0 time=240
note_on channel=0 note=55 velocity=0 time=0
note_on channel=0 note=60 velocity=0 time=0
note_on channel=0 note=79 velocity=0 time=0
note_on channel=0 note=72 velocity=0 time=0
note_on channel=0 note=72 velocity=42 time=0
note_on channel=0 note=77 velocity=49 time=0
note_on channel=0 note=67 velocity=40 time=0
note_on channel=0 note=77 velocity=46 time=0
note_on channel=0 note=72 velocity=43 time=0
note_on channel=0 note=72 velocity=0 time=240
note_on channel=0 note=79 velocity=0 time=0
note_on channel=0 note=72 velocity=0 time=0
note_on channel=0 note=72 velocity=0 time=0
note_on channel=0 note=71 velocity=38 time=0
note_on channel=0 note=74 velocity=39 time=0
note_on channel=0 note=74 velocity=0 time=240
note_on channel=0 note=74 velocity=41 time=0
note_on channel=0 note=74 velocity=0 time=173
note_on channel=0 note=76 velocity=40 time=0
note_on channel=0 note=76 velocity=0 time=0
note_on channel=0 note=74 velocity=39 time=0
note_on channel=0 note=74 velocity=0 time=240
note_on channel=0 note=74 velocity=41 time=0
note_on channel=0 note=74 velocity=0 time=240
note_on channel=0 note=74 velocity=41 time=0
note_on channel=0 note=74 velocity=0 time=240
note_on channel=0 note=72 velocity=37 time=0
note_on channel=0 note=72 velocity=0 time=480
note_on channel=0 note=74 velocity=41 time=0
note_on channel=0 note=74 velocity=0 time=240
note_on channel=0 note=76 velocity=46 time=0
note_on channel=0 note=76 velocity=0 time=240
note_on channel=0 note=71 velocity=40 time=0
note_on channel=0 note=71 velocity=0 time=0
note_on channel=0 note=77 velocity=46 time=0
note_on channel=0 note=77 velocity=0 time=240
note_on channel=0 note=76 velocity=46 time=0
note_on channel=0 note=76 velocity=0 time=480
note_on channel=0 note=74 velocity=47 time=0
note_on channel=0 note=74 velocity=0 time=0
note_on channel=0 note=77 velocity=46 time=0
note_on channel=0 note=77 velocity=0 time=80
note_on channel=0 note=74 velocity=41 time=0
note_on channel=0 note=74 velocity=0 time=0
note_on channel=0 note=77 velocity=46 time=0
note_on channel=0 note=65 velocity=29 time=0
note_on channel=0 note=68 velocity=34 time=0
note_on channel=0 note=65 velocity=33 time=0
note_on channel=0 note=79 velocity=0 time=206
note_on channel=0 note=79 velocity=46 time=0
note_on channel=0 note=79 velocity=0 time=0
note_on channel=0 note=71 velocity=0 time=0
note_on channel=0 note=77 velocity=0 time=0
note_on channel=0 note=74 velocity=0 time=0
note_on channel=0 note=84 velocity=0 time=0
note_on channel=0 note=79 velocity=40 time=0
note_on channel=0 note=88 velocity=41 time=0
note_on channel=0 note=79 velocity=41 time=0
note_on channel=0 note=79 velocity=0 time=0
note_on channel=0 note=88 velocity=0 time=0
note_on channel=0 note=79 velocity=41 time=0
note_on channel=0 note=88 velocity=50 time=0
note_on channel=0 note=72 velocity=33 time=0
note_on channel=0 note=76 velocity=40 time=0
note_on channel=0 note=76 velocity=0 time=240
note_on channel=0 note=79 velocity=0 time=0
note_on channel=0 note=79 velocity=0 time=0
note_on channel=0 note=79 velocity=0 time=0
note_on channel=0 note=88 velocity=0 time=0
note_on channel=0 note=67 velocity=34 time=0
note_on channel=0 note=67 velocity=0 time=0
note_on channel=0 note=91 velocity=50 time=0
note_on channel=0 note=79 velocity=50 time=0
note_on channel=0 note=67 velocity=33 time=0
note_on channel=0 note=67 velocity=0 time=14
note_on channel=0 note=67 velocity=31 time=0
note_on channel=0 note=67 velocity=0 time=120
note_on channel=0 note=64 velocity=33 time=0
note_on channel=0 note=64 velocity=0 time=0
note_on channel=0 note=76 velocity=0 time=0
note_on channel=0 note=88 velocity=0 time=0
note_on channel=0 note=86 velocity=40 time=0
note_on channel=0 note=79 velocity=33 time=0
note_on channel=0 note=67 velocity=32 time=0
note_on channel=0 note=67 velocity=0 time=57
note_on channel=0 note=67 velocity=31 time=0
note_on channel=0 note=67 velocity=0 time=120
note_on channel=0 note=84 velocity=0 time=0
note_on channel=0 note=62 velocity=33 time=0
note_on channel=0 note=62 velocity=0 time=0
note_on channel=0 note=86 velocity=54 time=0
note_on channel=0 note=65 velocity=41 time=0
note_on channel=0 note=65 velocity=0 time=120
note_on channel=0 note=67 velocity=34 time=0
note_on channel=0 note=67 velocity=0 time=0
note_on channel=0 note=86 velocity=0 time=0
note_on channel=0 note=74 velocity=0 time=0
note_on channel=0 note=84 velocity=50 time=0
note_on channel=0 note=72 velocity=50 time=0
note_on channel=0 note=60 velocity=34 time=0
note_on channel=0 note=60 velocity=0 time=120
note_on channel=0 note=67 velocity=34 time=0
note_on channel=0 note=67 velocity=0 time=0
note_on channel=0 note=79 velocity=0 time=0
note_on channel=0 note=84 velocity=50 time=0
note_on channel=0 note=60 velocity=41 time=0
note_on channel=0 note=64 velocity=41 time=0
note_on channel=0 note=64 velocity=0 time=120
note_on channel=0 note=56 velocity=0 time=0
note_on channel=0 note=60 velocity=36 time=0
note_on channel=0 note=65 velocity=41 time=0
note_on channel=0 note=65 velocity=0 time=106
note_on channel=0 note=65 velocity=0 time=0
note_on channel=0 note=65 velocity=39 time=120
note_on channel=0 note=65 velocity=0 time=40
note_on channel=0 note=68 velocity=32 time=0
note_on channel=0 note=68 velocity=0 time=120
note_on channel=0 note=84 velocity=0 time=0
note_on channel=0 note=77 velocity=50 time=0
note_on channel=0 note=60 velocity=41 time=0
note_on channel=0 note=60 velocity=0 time=240
note_on channel=0 note=60 velocity=35 time=0
note_on channel=0 note=60 velocity=0 time=0
note_on channel=0 note=74 velocity=0 time=0
note_on channel=0 note=83 velocity=0 time=0
note_on channel=0 note=79 velocity=51 time=0
note_on channel=0 note=67 velocity=42 time=0
note_on channel=0 note=59 velocity=34 time=0
note_on channel=0 note=59 velocity=0 time=120
note_on channel=0 note=62 velocity=36 time=0
note_on channel=0 note=62 velocity=0 time=120
note_on channel=0 note=77 velocity=0 time=0
note_on channel=0 note=59 velocity=0 time=0
note_on channel=0 note=67 velocity=42 time=0
note_on channel=0 note=67 velocity=0 time=120
note_on channel=0 note=60 velocity=32 time=0
note_on channel=0 note=63 velocity=41 time=0
note_on channel=0 note=63 velocity=0 time=120
note_on channel=0 note=60 velocity=0 time=0
note_on channel=0 note=52 velocity=29 time=0
note_on channel=0 note=55 velocity=32 time=0
note_on channel=0 note=55 velocity=0 time=120
note_on channel=0 note=55 velocity=0 time=0
note_on channel=0 note=67 velocity=41 time=0
note_on channel=0 note=74 velocity=50 time=0
note_on channel=0 note=64 velocity=0 time=120
note_on channel=0 note=59 velocity=28 time=0
note_on channel=0 note=62 velocity=33 time=0
note_on channel=0 note=62 velocity=0 time=120
note_on channel=0 note=59 velocity=0 time=0
note_on channel=0 note=55 velocity=0 time=0
note_on channel=0 note=55 velocity=43 time=0
note_on channel=0 note=55 velocity=0 time=120
note_on channel=0 note=62 velocity=37 time=120
note_on channel=0 note=62 velocity=0 time=120
note_on channel=0 note=67 velocity=39 time=0
note_on channel=0 note=74 velocity=47 time=0
note_on channel=0 note=61 velocity=0 time=106
note_on channel=0 note=55 velocity=39 time=120
note_on channel=0 note=59 velocity=44 time=0
note_on channel=0 note=74 velocity=0 time=0
note_on channel=0 note=62 velocity=0 time=0
note_on channel=0 note=71 velocity=56 time=0
note_on channel=0 note=62 velocity=51 time=0
note_on channel=0 note=59 velocity=0 time=120
note_on channel=0 note=62 velocity=44 time=0
note_on channel=0 note=62 velocity=0 time=120
note_on channel=0 note=59 velocity=0 time=0
note_on channel=0 note=62 velocity=30 time=120
note_on channel=0 note=62 velocity=0 time=120
note_on channel=0 note=59 velocity=22 time=0
note_on channel=0 note=62 velocity=28 time=0
note_on channel=0 note=62 velocity=0 time=120
note_on channel=0 note=59 velocity=0 time=0
note_on channel=0 note=43 velocity=23 time=0
note_on channel=0 note=59 velocity=27 time=0
note_on channel=0 note=59 velocity=0 time=120
note_on channel=0 note=31 velocity=0 time=0
note_on channel=0 note=59 velocity=0 time=0
note_on channel=0 note=77 velocity=38 time=0
note_on channel=0 note=31 velocity=35 time=0
note_on channel=0 note=71 velocity=0 time=120
note_on channel=0 note=71 velocity=31 time=0
note_on channel=0 note=71 velocity=0 time=120
note_on channel=0 note=31 velocity=0 time=0
note_on channel=0 note=63 velocity=30 time=0
note_on channel=0 note=62 velocity=0 time=120
note_on channel=0 note=62 velocity=32 time=0
note_on channel=0 note=59 velocity=23 time=0
note_on channel=0 note=59 velocity=0 time=0
note_on channel=0 note=62 velocity=0 time=0
note_on channel=0 note=74 velocity=0 time=0
note_on channel=0 note=65 velocity=36 time=0
note_on channel=0 note=77 velocity=50 time=0
note_on channel=0 note=65 velocity=0 time=120
note_on channel=0 note=62 velocity=29 time=0
note_on channel=0 note=59 velocity=23 time=0
note_on channel=0 note=59 velocity=0 time=120
note_on channel=0 note=62 velocity=0 time=0
note_on channel=0 note=55 velocity=27 time=0
note_on channel=0 note=55 velocity=0 time=120
note_on channel=0 note=62 velocity=28 time=0
note_on channel=0 note=59 velocity=22 time=0
note_on channel=0 note=59 velocity=0 time=0
note_on channel=0 note=62 velocity=0 time=0
note_on channel=0 note=77 velocity=0 time=0
note_on channel=0 note=65 velocity=35 time=0
note_on channel=0 note=77 velocity=40 time=0
note_on channel=0 note=65 velocity=0 time=120
note_on channel=0 note=59 velocity=28 time=0
note_on channel=0 note=59 velocity=0 time=120
note_on channel=0 note=71 velocity=0 time=0
note_on channel=0 note=62 velocity=0 time=0
note_on channel=0 note=65 velocity=41 time=0
note_on channel=0 note=65 velocity=0 time=120
note_on channel=0 note=59 velocity=30 time=0
note_on channel=0 note=62 velocity=33 time=0
note_on channel=0 note=65 velocity=33 time=0
note_on channel=0 note=65 velocity=0 time=120
note_on channel=0 note=59 velocity=0 time=0
note_on channel=0 note=59 velocity=0 time=0
note_on channel=0 note=62 velocity=30 time=120
note_on channel=0 note=65 velocity=38 time=0
note_on channel=0 note=62 velocity=0 time=120
note_on channel=0 note=59 velocity=0 time=0
note_on channel=0 note=55 velocity=0 time=0
note_on channel=0 note=67 velocity=31 time=120
note_on channel=0 note=67 velocity=0 time=120
note_on channel=0 note=65 velocity=37 time=120
note_on channel=0 note=65 velocity=0 time=120
note_on channel=0 note=59 velocity=31 time=120
note_on channel=0 note=62 velocity=37 time=0
note_on channel=0 note=65 velocity=46 time=0
note_on channel=0 note=62 velocity=0 time=120
note_on channel=0 note=59 velocity=36 time=0
note_on channel=0 note=59 velocity=0 time=120
note_on channel=0 note=59 velocity=36 time=0
note_on channel=0 note=59 velocity=0 time=120
note_on channel=0 note=62 velocity=0 time=0
note_on channel=0 note=60 velocity=42 time=0
note_on channel=0 note=52 velocity=36 time=0
note_on channel=0 note=52 velocity=0 time=120
note_on channel=0 note=60 velocity=0 time=0
note_on channel=0 note=64 velocity=40 time=0
note_on channel=0 note=48 velocity=33 time=0
note_on channel=0 note=48 velocity=0 time=0
note_on channel=0 note=64 velocity=0 time=0
note_on channel=0 note=72 velocity=50 time=0
note_on channel=0 note=48 velocity=38 time=0
note_on channel=0 note=48 velocity=0 time=0
note_on channel=0 note=72 velocity=0 time=0
note_on channel=0 note=59 velocity=35 time=0
note_on channel=0 note=74 velocity=47 time=0
note_on channel=0 note=55 velocity=36 time=0
note_on channel=0 note=55 velocity=0 time=120
note_on channel=0 note=74 velocity=0 time=0
note_on channel=0 note=59 velocity=37 time=0
note_on channel=0 note=59 velocity=0 time=120
note_on channel=0 note=62 velocity=37 time=0
note_on channel=0 note=62 velocity=0 time=0
note_on channel=0 note=67 velocity=38 time=0
note_on channel=0 note=43 velocity=38 time=0
note_on channel=0 note=43 velocity=0 time=31
note_on channel=0 note=67 velocity=0 time=0
note_on channel=0 note=71 velocity=50 time=0
note_on channel=0 note=50 velocity=33 time=0
note_on channel=0 note=50 velocity=0 time=0
note_on channel=0 note=71 velocity=0 time=0
note_on channel=0 note=76 velocity=50 time=0
note_on channel=0 note=53 velocity=38 time=0
note_on channel=0 note=53 velocity=0 time=360
note_on channel=0 note=77 velocity=0 time=0
note_on channel=0 note=83 velocity=51 time=0
note_on channel=0 note=48 velocity=40 time=0
note_on channel=0 note=48 velocity=0 time=0
note_on channel=0 note=84 velocity=0 time=0
note_on channel=0 note=86 velocity=61 time=0
note_on channel=0 note=43 velocity=43 time=0
note_on channel=0 note=43 velocity=0 time=80
note_on channel=0 note=86 velocity=0 time=0
note_on channel=0 note=86 velocity=50 time=0
note_on channel=0 note=47 velocity=40 time=0
note_on channel=0 note=47 velocity=0 time=80
note_on channel=0 note=86 velocity=0 time=0
note_on channel=0 note=86 velocity=50 time=0
note_on channel=0 note=47 velocity=39 time=0
note_on channel=0 note=47 velocity=0 time=80
note_on channel=0 note=86 velocity=0 time=0
note_on channel=0 note=86 velocity=48 time=0
note_on channel=0 note=50 velocity=39 time=0
note_on channel=0 note=50 velocity=0 time=80
note_on channel=0 note=86 velocity=0 time=0
note_on channel=0 note=79 velocity=47 time=0
note_on channel=0 note=53 velocity=38 time=0
note_on channel=0 note=53 velocity=0 time=80
note_on channel=0 note=86 velocity=0 time=0
note_on channel=0 note=79 velocity=48 time=0
note_on channel=0 note=53 velocity=39 time=0
note_on channel=0 note=53 velocity=0 time=0
note_on channel=0 note=79 velocity=0 time=0
note_on channel=0 note=88 velocity=61 time=0
note_on channel=0 note=48 velocity=48 time=0
note_on channel=0 note=48 velocity=0 time=0
note_on channel=0 note=86 velocity=0 time=0
note_on channel=0 note=86 velocity=54 time=0
note_on channel=0 note=43 velocity=40 time=0
note_on channel=0 note=43 velocity=0 time=0
note_on channel=0 note=86 velocity=0 time=0
note_on channel=0 note=55 velocity=44 time=0
note_on channel=0 note=55 velocity=0 time=40
note_on channel=0 note=47 velocity=47 time=0
note_on channel=0 note=47 velocity=0 time=240
note_on channel=0 note=53 velocity=45 time=0
note_on channel=0 note=53 velocity=0 time=0
note_on channel=0 note=55 velocity=47 time=0
note_on channel=0 note=55 velocity=0 time=0
note_on channel=0 note=59 velocity=47 time=0
note_on channel=0 note=59 velocity=0 time=0
note_on channel=0 note=59 velocity=47 time=0
note_on channel=0 note=59 velocity=0 time=0
note_on channel=0 note=62 velocity=48 time=0
note_on channel=0 note=62 velocity=0 time=480
note_on channel=0 note=62 velocity=48 time=0
note_on channel=0 note=62 velocity=0 time=0
note_on channel=0 note=77 velocity=58 time=0
note_on channel=0 note=77 velocity=0 time=40
note_on channel=0 note=86 velocity=58 time=0
note_on channel=0 note=86 velocity=0 time=120
note_on channel=0 note=77 velocity=48 time=120
note_on channel=0 note=74 velocity=0 time=0
note_on channel=0 note=86 velocity=49 time=0
note_on channel=0 note=86 velocity=0 time=120
note_on channel=0 note=89 velocity=50 time=0
note_on channel=0 note=89 velocity=0 time=120
note_on channel=0 note=91 velocity=50 time=0
note_on channel=0 note=91 velocity=0 time=0
note_on channel=0 note=91 velocity=53 time=0
note_on channel=0 note=67 velocity=50 time=0
note_on channel=0 note=67 velocity=0 time=0
note_on channel=0 note=88 velocity=0 time=0
note_on channel=0 note=88 velocity=59 time=0
note_on channel=0 note=60 velocity=53 time=0
note_on channel=0 note=60 velocity=0 time=120
note_on channel=0 note=88 velocity=0 time=0
note_on channel=0 note=84 velocity=69 time=0
note_on channel=0 note=52 velocity=52 time=0
note_on channel=0 note=52 velocity=0 time=0
note_on channel=0 note=84 velocity=0 time=0
note_on channel=0 note=83 velocity=71 time=0
note_on channel=0 note=53 velocity=54 time=0
note_on channel=0 note=53 velocity=0 time=40
note_on channel=0 note=83 velocity=0 time=0
note_on channel=0 note=79 velocity=76 time=0
note_on channel=0 note=55 velocity=57 time=0
note_on channel=0 note=55 velocity=0 time=0
note_on channel=0 note=79 velocity=0 time=0
note_on channel=0 note=83 velocity=74 time=0
note_on channel=0 note=43 velocity=50 time=0
note_on channel=0 note=43 velocity=0 time=20
note_on channel=0 note=83 velocity=0 time=0
note_on channel=0 note=47 velocity=43 time=0
note_on channel=0 note=47 velocity=0 time=120
note_on channel=0 note=50 velocity=43 time=0
note_on channel=0 note=50 velocity=0 time=0
note_on channel=0 note=55 velocity=46 time=0
note_on channel=0 note=55 velocity=0 time=0
note_on channel=0 note=86 velocity=83 time=0
note_on channel=0 note=77 velocity=75 time=0
note_on channel=0 note=47 velocity=58 time=0
note_on channel=0 note=47 velocity=0 time=34
note_on channel=0 note=50 velocity=50 time=0
note_on channel=0 note=50 velocity=0 time=120
note_on channel=0 note=83 velocity=0 time=0
note_on channel=0 note=86 velocity=80 time=0
note_on channel=0 note=43 velocity=63 time=0
note_on channel=0 note=43 velocity=0 time=20
note_on channel=0 note=47 velocity=53 time=0
note_on channel=0 note=47 velocity=0 time=120
note_on channel=0 note=86 velocity=0 time=0
note_on channel=0 note=77 velocity=76 time=0
note_on channel=0 note=50 velocity=52 time=0
note_on channel=0 note=50 velocity=0 time=120
note_on channel=0 note=77 velocity=0 time=0
note_on channel=0 note=86 velocity=0 time=0
note_on channel=0 note=50 velocity=52 time=0
note_on channel=0 note=50 velocity=0 time=120
note_on channel=0 note=55 velocity=46 time=0
note_on channel=0 note=55 velocity=0 time=0
note_on channel=0 note=89 velocity=74 time=0
note_on channel=0 note=77 velocity=68 time=0
note_on channel=0 note=47 velocity=59 time=0
note_on channel=0 note=47 velocity=0 time=120
note_on channel=0 note=47 velocity=56 time=0
note_on channel=0 note=47 velocity=0 time=120
note_on channel=0 note=47 velocity=57 time=0
note_on channel=0 note=47 velocity=0 time=120
note_on channel=0 note=47 velocity=60 time=0
note_on channel=0 note=47 velocity=0 time=120
note_on channel=0 note=48 velocity=60 time=0
note_on channel=0 note=48 velocity=0 time=120
note_on channel=0 note=79 velocity=0 time=0
note_on channel=0 note=91 velocity=0 time=0
note_on channel=0 note=55 velocity=60 time=0
note_on channel=0 note=55 velocity=0 time=120
note_on channel=0 note=55 velocity=68 time=0
note_on channel=0 note=55 velocity=0 time=0
note_on channel=0 note=91 velocity=85 time=0
note_on channel=0 note=79 velocity=74 time=0
note_on channel=0 note=47 velocity=58 time=0
note_on channel=0 note=47 velocity=0 time=120
note_on channel=0 note=47 velocity=60 time=0
note_on channel=0 note=47 velocity=0 time=120
note_on channel=0 note=77 velocity=0 time=0
note_on channel=0 note=89 velocity=0 time=0
note_on channel=0 note=55 velocity=68 time=0
note_on channel=0 note=55 velocity=0 time=120
note_on channel=0 note=55 velocity=68 time=0
note_on channel=0 note=55 velocity=0 time=0
note_on channel=0 note=89 velocity=82 time=0
note_on channel=0 note=77 velocity=64 time=0
note_on channel=0 note=50 velocity=58 time=0
note_on channel=0 note=50 velocity=0 time=120
note_on channel=0 note=53 velocity=49 time=0
note_on channel=0 note=53 velocity=0 time=0
note_on channel=0 note=77 velocity=0 time=0
note_on channel=0 note=89 velocity=0 time=0
note_on channel=0 note=89 velocity=87 time=0
note_on channel=0 note=77 velocity=73 time=0
note_on channel=0 note=43 velocity=71 time=0
note_on channel=0 note=47 velocity=70 time=0
note_on channel=0 note=47 velocity=0 time=120
note_on channel=0 note=89 velocity=0 time=0
note_on channel=0 note=77 velocity=0 time=0
note_on channel=0 note=77 velocity=0 time=0
note_on channel=0 note=47 velocity=67 time=0
note_on channel=0 note=47 velocity=0 time=120
note_on channel=0 note=55 velocity=60 time=0
note_on channel=0 note=55 velocity=0 time=0
note_on channel=0 note=89 velocity=85 time=0
note_on channel=0 note=77 velocity=69 time=0
note_on channel=0 note=50 velocity=58 time=0
note_on channel=0 note=50 velocity=0 time=120
note_on channel=0 note=55 velocity=57 time=0
note_on channel=0 note=55 velocity=0 time=120
note_on channel=0 note=59 velocity=63 time=0
note_on channel=0 note=59 velocity=0 time=120
note_on channel=0 note=89 velocity=0 time=0
note_on channel=0 note=77 velocity=0 time=0
note_on channel=0 note=86 velocity=69 time=0
note_on channel=0 note=74 velocity=53 time=0
note_on channel=0 note=62 velocity=50 time=0
note_on channel=0 note=62 velocity=0 time=120
note_on channel=0 note=55 velocity=45 time=0
note_on channel=0 note=55 velocity=0 time=120
note_on channel=0 note=59 velocity=47 time=0
note_on channel=0 note=59 velocity=0 time=0
note_on channel=0 note=74 velocity=0 time=0
note_on channel=0 note=86 velocity=0 time=0
note_on channel=0 note=88 velocity=53 time=0
note_on channel=0 note=76 velocity=50 time=0
note_on channel=0 note=55 velocity=33 time=0
note_on channel=0 note=55 velocity=0 time=120
note_on channel=0 note=60 velocity=39 time=0
note_on channel=0 note=60 velocity=0 time=0
note_on channel=0 note=76 velocity=0 time=0
note_on channel=0 note=88 velocity=0 time=0
note_on channel=0 note=84 velocity=47 time=0
note_on channel=0 note=72 velocity=41 time=0
note_on channel=0 note=55 velocity=33 time=0
note_on channel=0 note=55 velocity=0 time=120
note_on channel=0 note=64 velocity=36 time=0
note_on channel=0 note=64 velocity=0 time=0
note_on channel=0 note=76 velocity=0 time=0
note_on channel=0 note=84 velocity=0 time=0
note_on channel=0 note=86 velocity=52 time=0
note_on channel=0 note=74 velocity=42 time=0
note_on channel=0 note=55 velocity=33 time=0
note_on channel=0 note=55 velocity=0 time=120
note_on channel=0 note=59 velocity=33 time=0
note_on channel=0 note=59 velocity=0 time=120
note_on channel=0 note=74 velocity=0 time=0
note_on channel=0 note=86 velocity=0 time=0
note_on channel=0 note=86 velocity=47 time=0
note_on channel=0 note=74 velocity=41 time=0
note_on channel=0 note=62 velocity=34 time=0
note_on channel=0 note=62 velocity=0 time=120
note_on channel=0 note=67 velocity=35 time=0
note_on channel=0 note=67 velocity=0 time=0
note_on channel=0 note=74 velocity=0 time=0
note_on channel=0 note=86 velocity=0 time=0
note_on channel=0 note=87 velocity=47 time=0
note_on channel=0 note=75 velocity=48 time=0
note_on channel=0 note=55 velocity=28 time=0
note_on channel=0 note=55 velocity=0 time=21
note_on channel=0 note=60 velocity=31 time=0
note_on channel=0 note=60 velocity=0 time=120
note_on channel=0 note=67 velocity=32 time=0
note_on channel=0 note=67 velocity=0 time=120
note_on channel=0 note=60 velocity=35 time=0
note_on channel=0 note=60 velocity=0 time=0
note_on channel=0 note=75 velocity=0 time=0
note_on channel=0 note=87 velocity=0 time=0
note_on channel=0 note=84 velocity=41 time=0
note_on channel=0 note=72 velocity=41 time=0
note_on channel=0 note=55 velocity=28 time=0
note_on channel=0 note=55 velocity=0 time=120
note_on channel=0 note=60 velocity=31 time=0
note_on channel=0 note=60 velocity=0 time=120
note_on channel=0 note=63 velocity=33 time=0
note_on channel=0 note=63 velocity=0 time=120
note_on channel=0 note=60 velocity=35 time=0
note_on channel=0 note=60 velocity=0 time=0
note_on channel=0 note=72 velocity=0 time=0
note_on channel=0 note=84 velocity=0 time=0
note_on channel=0 note=79 velocity=50 time=0
note_on channel=0 note=55 velocity=28 time=0
note_on channel=0 note=55 velocity=0 time=28
note_on channel=0 note=60 velocity=31 time=0
note_on channel=0 note=60 velocity=0 time=120
note_on channel=0 note=63 velocity=32 time=0
note_on channel=0 note=63 velocity=0 time=120
note_on channel=0 note=60 velocity=35 time=0
note_on channel=0 note=60 velocity=0 time=0
note_on channel=0 note=72 velocity=0 time=0
note_on channel=0 note=84 velocity=0 time=0
note_on channel=0 note=81 velocity=37 time=0
note_on channel=0 note=72 velocity=32 time=0
note_on channel=0 note=57 velocity=28 time=0
note_on channel=0 note=57 velocity=0 time=120
note_on channel=0 note=60 velocity=31 time=0
note_on channel=0 note=60 velocity=0 time=120
note_on channel=0 note=60 velocity=33 time=0
note_on channel=0 note=60 velocity=0 time=0
note_on channel=0 note=76 velocity=0 time=0
note_on channel=0 note=81 velocity=0 time=0
note_on channel=0 note=86 velocity=47 time=0
note_on channel=0 note=74 velocity=47 time=0
note_on channel=0 note=55 velocity=28 time=0
note_on channel=0 note=55 velocity=0 time=120
note_on channel=0 note=59 velocity=30 time=0
note_on channel=0 note=59 velocity=0 time=120
note_on channel=0 note=67 velocity=32 time=0
note_on channel=0 note=67 velocity=0 time=120
note_on channel=0 note=59 velocity=35 time=0
note_on channel=0 note=59 velocity=0 time=0
note_on channel=0 note=74 velocity=0 time=0
note_on channel=0 note=86 velocity=0 time=0
note_on channel=0 note=88 velocity=50 time=0
note_on channel=0 note=76 velocity=50 time=0
note_on channel=0 note=55 velocity=28 time=0
note_on channel=0 note=55 velocity=0 time=42
note_on channel=0 note=60 velocity=31 time=0
note_on channel=0 note=60 velocity=0 time=120
note_on channel=0 note=67 velocity=33 time=0
note_on channel=0 note=67 velocity=0 time=120
note_on channel=0 note=60 velocity=36 time=0
note_on channel=0 note=60 velocity=0 time=0
note_on channel=0 note=76 velocity=0 time=0
note_on channel=0 note=88 velocity=0 time=0
note_on channel=0 note=84 velocity=39 time=0
note_on channel=0 note=72 velocity=32 time=0
note_on channel=0 note=55 velocity=28 time=0
note_on channel=0 note=55 velocity=0 time=120
note_on channel=0 note=64 velocity=32 time=0
note_on channel=0 note=64 velocity=0 time=120
note_on channel=0 note=67 velocity=33 time=0
note_on channel=0 note=67 velocity=0 time=120
note_on channel=0 note=64 velocity=37 time=0
note_on channel=0 note=64 velocity=0 time=0
note_on channel=0 note=72 velocity=0 time=0
note_on channel=0 note=84 velocity=0 time=0
note_on channel=0 note=83 velocity=50 time=0
note_on channel=0 note=71 velocity=50 time=0
note_on channel=0 note=55 velocity=28 time=0
note_on channel=0 note=55 velocity=0 time=35
note_on channel=0 note=62 velocity=30 time=0
note_on channel=0 note=62 velocity=0 time=120
note_on channel=0 note=67 velocity=32 time=0
note_on channel=0 note=67 velocity=0 time=120
note_on channel=0 note=62 velocity=35 time=0
note_on channel=0 note=62 velocity=0 time=120
note_on channel=0 note=71 velocity=0 time=0
note_on channel=0 note=83 velocity=0 time=0
note_on channel=0 note=86 velocity=50 time=0
note_on channel=0 note=74 velocity=42 time=0
note_on channel=0 note=55 velocity=28 time=0
note_on channel=0 note=55 velocity=0 time=42
note_on channel=0 note=59 velocity=30 time=0
note_on channel=0 note=59 velocity=0 time=120
note_on channel=0 note=67 velocity=32 time=0
note_on channel=0 note=67 velocity=0 time=120
note_on channel=0 note=59 velocity=35 time=0
note_on channel=0 note=59 velocity=0 time=0
note_on channel=0 note=74 velocity=0 time=0
note_on channel=0 note=86 velocity=0 time=0
note_on channel=0 note=88 velocity=47 time=0
note_on channel=0 note=76 velocity=47 time=0
note_on channel=0 note=55 velocity=28 time=0
note_on channel=0 note=55 velocity=0 time=120
note_on channel=0 note=60 velocity=31 time=0
note_on channel=0 note=60 velocity=0 time=120
note_on channel=0 note=67 velocity=33 time=0
note_on channel=0 note=67 velocity=0 time=0
note_on channel=0 note=76 velocity=0 time=0
note_on channel=0 note=88 velocity=0 time=0
note_on channel=0 note=84 velocity=41 time=0
note_on channel=0 note=72 velocity=41 time=0
note_on channel=0 note=55 velocity=28 time=0
note_on channel=0 note=55 velocity=0 time=120
note_on channel=0 note=64 velocity=31 time=0
note_on channel=0 note=64 velocity=0 time=120
note_on channel=0 note=67 velocity=33 time=0
note_on channel=0 note=67 velocity=0 time=120
note_on channel=0 note=64 velocity=36 time=0
note_on channel=0 note=64 velocity=0 time=0
note_on channel=0 note=72 velocity=0 time=0
note_on channel=0 note=84 velocity=0 time=0
note_on channel=0 note=83 velocity=50 time=0
note_on channel=0 note=71 velocity=50 time=0
note_on channel=0 note=55 velocity=28 time=0
note_on channel=0 note=55 velocity=0 time=35
note_on channel=0 note=62 velocity=30 time=0
note_on channel=0 note=62 velocity=0 time=120
note_on channel=0 note=67 velocity=32 time=0
note_on channel=0 note=67 velocity=0 time=120
note_on channel=0 note=71 velocity=37 time=0
note_on channel=0 note=71 velocity=0 time=120
note_on channel=0 note=62 velocity=39 time=0
note_on channel=0 note=62 velocity=0 time=120
note_on channel=0 note=74 velocity=0 time=0
note_on channel=0 note=83 velocity=0 time=0
note_on channel=0 note=86 velocity=50 time=0
note_on channel=0 note=74 velocity=44 time=0
note_on channel=0 note=55 velocity=28 time=0
note_on channel=0 note=55 velocity=0 time=120
note_on channel=0 note=59 velocity=30 time=0
note_on channel=0 note=59 velocity=0 time=120
note_on channel=0 note=67 velocity=32 time=0
note_on channel=0 note=67 velocity=0 time=120
note_on channel=0 note=59 velocity=35 time=0
note_on channel=0 note=59 velocity=0 time=0
note_on channel=0 note=74 velocity=0 time=0
note_on channel=0 note=86 velocity=0 time=0
note_on channel=0 note=88 velocity=50 time=0
note_on channel=0 note=76 velocity=50 time=0
note_on channel=0 note=55 velocity=31 time=0
note_on channel=0 note=55 velocity=0 time=120
note_on channel=0 note=60 velocity=36 time=0
note_on channel=0 note=60 velocity=0 time=120
note_on channel=0 note=76 velocity=0 time=0
note_on channel=0 note=88 velocity=0 time=0
note_on channel=0 note=84 velocity=41 time=0
note_on channel=0 note=72 velocity=41 time=0
note_on channel=0 note=60 velocity=28 time=0
note_on channel=0 note=60 velocity=0 time=120
note_on channel=0 note=64 velocity=31 time=0
note_on channel=0 note=64 velocity=0 time=120
note_on channel=0 note=67 velocity=33 time=0
note_on channel=0 note=67 velocity=0 time=120
note_on channel=0 note=64 velocity=36 time=0
note_on channel=0 note=64 velocity=0 time=0
note_on channel=0 note=72 velocity=0 time=0
note_on channel=0 note=84 velocity=0 time=0
note_on channel=0 note=83 velocity=53 time=0
note_on channel=0 note=71 velocity=50 time=0
note_on channel=0 note=55 velocity=28 time=0
note_on channel=0 note=55 velocity=0 time=35
note_on channel=0 note=62 velocity=30 time=0
note_on channel=0 note=62 velocity=0 time=120
note_on channel=0 note=67 velocity=32 time=0
note_on channel=0 note=67 velocity=0 time=120
note_on channel=0 note=62 velocity=35 time=0
note_on channel=0 note=62 velocity=0 time=120
note_on channel=0 note=71 velocity=0 time=0
note_on channel=0 note=83 velocity=0 time=0
note_on channel=0 note=86 velocity=50 time=0
note_on channel=0 note=74 velocity=50 time=0
note_on channel=0 note=55 velocity=28 time=0
note_on channel=0 note=55 velocity=0 time=42
note_on channel=0 note=59 velocity=30 time=0
note_on channel=0 note=59 velocity=0 time=120
note_on channel=0 note=67 velocity=32 time=0
note_on channel=0 note=67 velocity=0 time=120
note_on channel=0 note=59 velocity=35 time=0
note_on channel=0 note=59 velocity=0 time=0
note_on channel=0 note=74 velocity=0 time=0
note_on channel=0 note=86 velocity=0 time=0
note_on channel=0 note=87 velocity=50 time=0
note_on channel=0 note=76 velocity=50 time=0
note_on channel=0 note=55 velocity=28 time=0
note_on channel=0 note=55 velocity=0 time=56
note_on channel=0 note=60 velocity=31 time=0
note_on channel=0 note=60 velocity=0 time=120
note_on channel=0 note=67 velocity=33 time=0
note_on channel=0 note=67 velocity=0 time=0
note_on channel=0 note=76 velocity=0 time=0
note_on channel=0 note=88 velocity=0 time=0
note_on channel=0 note=84 velocity=42 time=0
note_on channel=0 note=72 velocity=41 time=0
note_on channel=0 note=55 velocity=28 time=0
note_on channel=0 note=55 velocity=0 time=120
note_on channel=0 note=64 velocity=31 time=0
note_on channel=0 note=64 velocity=0 time=120
note_on channel=0 note=67 velocity=33 time=0
note_on channel=0 note=67 velocity=0 time=120
note_on channel=0 note=64 velocity=36 time=0
note_on channel=0 note=64 velocity=0 time=0
note_on channel=0 note=72 velocity=0 time=0
note_on channel=0 note=84 velocity=0 time=0
note_on channel=0 note=84 velocity=47 time=0
note_on channel=0 note=72 velocity=41 time=0
note_on channel=0 note=60 velocity=28 time=0
note_on channel=0 note=64 velocity=32 time=0
note_on channel=0 note=64 velocity=0 time=40
note_on channel=0 note=59 velocity=0 time=0
note_on channel=0 note=62 velocity=36 time=0
note_on channel=0 note=62 velocity=0 time=120
note_on channel=0 note=71 velocity=35 time=0
note_on channel=0 note=71 velocity=0 time=120
note_on channel=0 note=59 velocity=35 time=0
note_on channel=0 note=59 velocity=0 time=0
note_on channel=0 note=79 velocity=0 time=0
note_on channel=0 note=81 velocity=50 time=0
note_on channel=0 note=55 velocity=28 time=0
note_on channel=0 note=55 velocity=0 time=34
note_on channel=0 note=60 velocity=30 time=0
note_on channel=0 note=60 velocity=0 time=120
note_on channel=0 note=63 velocity=32 time=0
note_on channel=0 note=63 velocity=0 time=120
note_on channel=0 note=60 velocity=35 time=0
note_on channel=0 note=60 velocity=0 time=0
note_on channel=0 note=79 velocity=0 time=0
note_on channel=0 note=79 velocity=47 time=0
note_on channel=0 note=55 velocity=28 time=35
note_on channel=0 note=55 velocity=0 time=120
note_on channel=0 note=60 velocity=30 time=0
note_on channel=0 note=60 velocity=0 time=120
note_on channel=0 note=63 velocity=32 time=0
note_on channel=0 note=79 velocity=0 time=115
note_on channel=0 note=63 velocity=0 time=5
note_on channel=0 note=79 velocity=50 time=0
note_on channel=0 note=55 velocity=28 time=28
note_on channel=0 note=55 velocity=0 time=0
note_on channel=0 note=60 velocity=30 time=0
note_on channel=0 note=60 velocity=0 time=120
note_on channel=0 note=63 velocity=32 time=0
note_on channel=0 note=79 velocity=0 time=75
note_on channel=0 note=63 velocity=0 time=5
note_on channel=0 note=79 velocity=50 time=0
note_on channel=0 note=55 velocity=28 time=40
note_on channel=0 note=55 velocity=0 time=120
note_on channel=0 note=59 velocity=30 time=0
note_on channel=0 note=59 velocity=0 time=120
note_on channel=0 note=62 velocity=32 time=0
note_on channel=0 note=79 velocity=0 time=115
note_on channel=0 note=62 velocity=0 time=5
note_on channel=0 note=79 velocity=47 time=0
note_on channel=0 note=55 velocity=28 time=42
note_on channel=0 note=55 velocity=0 time=120
note_on channel=0 note=60 velocity=30 time=0
note_on channel=0 note=60 velocity=0 time=120
note_on channel=0 note=63 velocity=32 time=0
note_on channel=0 note=79 velocity=0 time=75
note_on channel=0 note=63 velocity=0 time=5
note_on channel=0 note=79 velocity=50 time=0
note_on channel=0 note=55 velocity=28 time=40
note_on channel=0 note=55 velocity=0 time=120
note_on channel=0 note=59 velocity=30 time=0
note_on channel=0 note=59 velocity=0 time=120
note_on channel=0 note=62 velocity=32 time=0
note_on channel=0 note=79 velocity=0 time=75
note_on channel=0 note=62 velocity=0 time=5
note_on channel=0 note=79 velocity=47 time=0
note_on channel=0 note=55 velocity=26 time=112
note_on channel=0 note=55 velocity=0 time=120
note_on channel=0 note=60 velocity=30 time=0
note_on channel=0 note=60 velocity=0 time=120
note_on channel=0 note=63 velocity=32 time=0
note_on channel=0 note=79 velocity=0 time=115
note_on channel=0 note=63 velocity=0 time=5
note_on channel=0 note=79 velocity=50 time=0
note_on channel=0 note=55 velocity=28 time=28
note_on channel=0 note=55 velocity=0 time=120
note_on channel=0 note=59 velocity=30 time=0
note_on channel=0 note=59 velocity=0 time=120
note_on channel=0 note=62 velocity=32 time=0
note_on channel=0 note=79 velocity=0 time=75
note_on channel=0 note=62 velocity=0 time=0
note_on channel=0 note=79 velocity=47 time=0
note_on channel=0 note=55 velocity=28 time=103
note_on channel=0 note=55 velocity=0 time=40
note_on channel=0 note=60 velocity=30 time=0
note_on channel=0 note=60 velocity=0 time=0
note_on channel=0 note=63 velocity=32 time=0
note_on channel=0 note=79 velocity=0 time=75
note_on channel=0 note=63 velocity=0 time=5
note_on channel=0 note=79 velocity=50 time=0
note_on channel=0 note=55 velocity=28 time=28
note_on channel=0 note=55 velocity=0 time=40
note_on channel=0 note=59 velocity=30 time=0
note_on channel=0 note=59 velocity=0 time=120
note_on channel=0 note=62 velocity=32 time=0
note_on channel=0 note=79 velocity=0 time=115
note_on channel=0 note=62 velocity=0 time=0
note_on channel=0 note=79 velocity=47 time=0
note_on channel=0 note=55 velocity=45 time=40
note_on channel=0 note=55 velocity=0 time=120
note_on channel=0 note=79 velocity=0 time=0
note_on channel=0 note=83 velocity=42 time=0
note_on channel=0 note=55 velocity=28 time=28
note_on channel=0 note=55 velocity=0 time=0
note_on channel=0 note=60 velocity=30 time=0
note_on channel=0 note=60 velocity=0 time=120
note_on channel=0 note=63 velocity=32 time=0
note_on channel=0 note=81 velocity=0 time=115
note_on channel=0 note=60 velocity=0 time=0
note_on channel=0 note=79 velocity=37 time=0
note_on channel=0 note=55 velocity=28 time=40
note_on channel=0 note=55 velocity=0 time=0
note_on channel=0 note=60 velocity=30 time=0
note_on channel=0 note=79 velocity=0 time=115
note_on channel=0 note=60 velocity=0 time=0
note_on channel=0 note=79 velocity=34 time=0
note_on channel=0 note=55 velocity=28 time=40
note_on channel=0 note=55 velocity=0 time=36
note_on channel=0 note=60 velocity=28 time=0
note_on channel=0 note=60 velocity=0 time=120
note_on channel=0 note=63 velocity=32 time=0
note_on channel=0 note=79 velocity=0 time=115
note_on channel=0 note=63 velocity=0 time=5
note_on channel=0 note=79 velocity=47 time=0
note_on channel=0 note=55 velocity=28 time=40
note_on channel=0 note=55 velocity=0 time=120
note_on channel=0 note=60 velocity=30 time=0
note_on channel=0 note=60 velocity=0 time=120
note_on channel=0 note=63 velocity=32 time=0
note_on channel=0 note=79 velocity=0 time=75
note_on channel=0 note=63 velocity=0 time=5
note_on channel=0 note=79 velocity=50 time=0
note_on channel=0 note=55 velocity=28 time=40
note_on channel=0 note=55 velocity=0 time=40
note_on channel=0 note=59 velocity=30 time=0
note_on channel=0 note=59 velocity=0 time=120
note_on channel=0 note=62 velocity=32 time=0
note_on channel=0 note=79 velocity=0 time=115
note_on channel=0 note=62 velocity=0 time=5
note_on channel=0 note=79 velocity=47 time=0
note_on channel=0 note=55 velocity=28 time=28
note_on channel=0 note=55 velocity=0 time=120
note_on channel=0 note=60 velocity=30 time=0
note_on channel=0 note=60 velocity=0 time=120
note_on channel=0 note=63 velocity=32 time=0
note_on channel=0 note=79 velocity=0 time=115
note_on channel=0 note=63 velocity=0 time=5
note_on channel=0 note=79 velocity=50 time=0
note_on channel=0 note=55 velocity=28 time=40
note_on channel=0 note=55 velocity=0 time=97
note_on channel=0 note=60 velocity=30 time=0
note_on channel=0 note=60 velocity=0 time=120
note_on channel=0 note=63 velocity=32 time=0
note_on channel=0 note=79 velocity=0 time=115
note_on channel=0 note=63 velocity=0 time=5
note_on channel=0 note=79 velocity=50 time=0
note_on channel=0 note=55 velocity=28 time=40
note_on channel=0 note=55 velocity=0 time=40
note_on channel=0 note=59 velocity=30 time=0
note_on channel=0 note=59 velocity=0 time=0
note_on channel=0 note=62 velocity=32 time=0
note_on channel=0 note=79 velocity=0 time=115
note_on channel=0 note=62 velocity=0 time=5
note_on channel=0 note=79 velocity=47 time=0
note_on channel=0 note=55 velocity=28 time=40
note_on channel=0 note=55 velocity=0 time=40
note_on channel=0 note=59 velocity=30 time=0
note_on channel=0 note=59 velocity=0 time=0
note_on channel=0 note=62 velocity=32 time=0
note_on channel=0 note=79 velocity=0 time=115
note_on channel=0 note=62 velocity=0 time=0
note_on channel=0 note=79 velocity=47 time=0
note_on channel=0 note=55 velocity=28 time=25
note_on channel=0 note=55 velocity=0 time=120
note_on channel=0 note=60 velocity=30 time=0
note_on channel=0 note=60 velocity=0 time=120
note_on channel=0 note=63 velocity=32 time=0
note_on channel=0 note=79 velocity=0 time=115
note_on channel=0 note=63 velocity=0 time=5
note_on channel=0 note=79 velocity=50 time=0
note_on channel=0 note=55 velocity=28 time=40
note_on channel=0 note=55 velocity=0 time=120
note_on channel=0 note=59 velocity=30 time=0
note_on channel=0 note=59 velocity=0 time=120
note_on channel=0 note=62 velocity=32 time=0
note_on channel=0 note=79 velocity=0 time=115
note_on channel=0 note=62 velocity=0 time=5
note_on channel=0 note=79 velocity=47 time=0
note_on channel=0 note=55 velocity=28 time=85
note_on channel=0 note=55 velocity=0 time=40
note_on channel=0 note=59 velocity=30 time=0
note_on channel=0 note=59 velocity=0 time=120
note_on channel=0 note=62 velocity=32 time=0
note_on channel=0 note=79 velocity=0 time=115
note_on channel=0 note=62 velocity=0 time=5
note_on channel=0 note=79 velocity=47 time=0
note_on channel=0 note=55 velocity=28 time=28
note_on channel=0 note=55 velocity=0 time=80
note_on channel=0 note=60 velocity=30 time=0
note_on channel=0 note=60 velocity=0 time=0
note_on channel=0 note=63 velocity=32 time=0
note_on channel=0 note=79 velocity=0 time=115
note_on channel=0 note=63 velocity=0 time=5
note_on channel=0 note=79 velocity=50 time=0
note_on channel=0 note=55 velocity=28 time=40
note_on channel=0 note=55 velocity=0 time=120
note_on channel=0 note=59 velocity=30 time=0
note_on channel=0 note=59 velocity=0 time=120
note_on channel=0 note=62 velocity=32 time=0
note_on channel=0 note=79 velocity=0 time=115
note_on channel=0 note=62 velocity=0 time=5
note_on channel=0 note=79 velocity=47 time=0
note_on channel=0 note=55 velocity=28 time=28
note_on channel=0 note=55 velocity=0 time=120
note_on channel=0 note=60 velocity=30 time=0
note_on channel=0 note=60 velocity=0 time=120
note_on channel=0 note=63 velocity=32 time=0
note_on channel=0 note=79 velocity=0 time=75
note_on channel=0 note=63 velocity=0 time=5
note_on channel=0 note=79 velocity=50 time=0
note_on channel=0 note=55 velocity=28 time=28
note_on channel=0 note=55 velocity=0 time=120
note_on channel=0 note=59 velocity=30 time=0
note_on channel=0 note=59 velocity=0 time=120
note_on channel=0 note=62 velocity=32 time=0
note_on channel=0 note=79 velocity=0 time=75
note_on channel=0 note=62 velocity=0 time=5
note_on channel=0 note=79 velocity=47 time=0
note_on channel=0 note=55 velocity=28 time=14
note_on channel=0 note=55 velocity=0 time=40
note_on channel=0 note=59 velocity=30 time=0
note_on channel=0 note=59 velocity=0 time=0
note_on channel=0 note=62 velocity=32 time=0
note_on channel=0 note=79 velocity=0 time=115
note_on channel=0 note=62 velocity=0 time=5
note_on channel=0 note=79 velocity=47 time=0
note_on channel=0 note=55 velocity=28 time=14
note_on channel=0 note=55 velocity=0 time=40
note_on channel=0 note=59 velocity=30 time=0
note_on channel=0 note=59 velocity=0 time=120
note_on channel=0 note=62 velocity=32 time=0
note_on channel=0 note=79 velocity=0 time=75
note_on channel=0 note=62 velocity=0 time=5
note_on channel=0 note=79 velocity=47 time=0
note_on channel=0 note=55 velocity=28 time=35
note_on channel=0 note=55 velocity=0 time=120
note_on channel=0 note=60 velocity=30 time=0
note_on channel=0 note=60 velocity=0 time=120
note_on channel=0 note=63 velocity=32 time=0
note_on channel=0 note=79 velocity=0 time=75
note_on channel=0 note=63 velocity=0 time=5
note_on channel=0 note=79 velocity=50 time=0
note_on channel=0 note=55 velocity=28 time=40
note_on channel=0 note=55 velocity=0 time=0
note_on channel=0 note=59 velocity=30 time=0
note_on channel=0 note=59 velocity=0 time=120
note_on channel=0 note=62 velocity=32 time=0
note_on channel=0 note=79 velocity=0 time=115
note_on channel=0 note=62 velocity=0 time=0
note_on channel=0 note=79 velocity=47 time=0
note_on channel=0 note=55 velocity=28 time=17
note_on channel=0 note=55 velocity=0 time=120
note_on channel=0 note=60 velocity=30 time=0
note_on channel=0 note=60 velocity=0 time=120
note_on channel=0 note=63 velocity=32 time=0
note_on channel=0 note=79 velocity=0 time=75
note_on channel=0 note=63 velocity=0 time=5
note_on channel=0 note=79 velocity=50 time=0
note_on channel=0 note=55 velocity=28 time=40
note_on channel=0 note=55 velocity=0 time=120
note_on channel=0 note=59 velocity=30 time=0
note_on channel=0 note=59 velocity=0 time=120
note_on channel=0 note=62 velocity=32 time=0
note_on channel=0 note=79 velocity=0 time=115
note_on channel=0 note=62 velocity=0 time=5
note_on channel=0 note=79 velocity=47 time=0
note_on channel=0 note=55 velocity=28 time=14
note_on channel=0 note=55 velocity=0 time=120
note_on channel=0 note=60 velocity=30 time=0
note_on channel=0 note=60 velocity=0 time=120
note_on channel=0 note=63 velocity=32 time=0
note_on channel=0 note=79 velocity=0 time=75
note_on channel=0 note=63 velocity=0 time=5
note_on channel=0 note=79 velocity=50 time=0
note_on channel=0 note=55 velocity=28 time=40
note_on channel=0 note=55 velocity=0 time=120
note_on channel=0 note=60 velocity=30 time=0
note_on channel=0 note=60 velocity=0 time=120
note_on channel=0 note=63 velocity=32 time=0
note_on channel=0 note=79 velocity=0 time=75
note_on channel=0 note=63 velocity=0 time=5
note_on channel=0 note=79 velocity=50 time=0
note_on channel=0 note=55 velocity=28 time=40
note_on channel=0 note=55 velocity=0 time=40
note_on channel=0 note=59 velocity=30 time=0
note_on channel=0 note=59 velocity=0 time=0
note_on channel=0 note=62 velocity=32 time=0
note_on channel=0 note=79 velocity=0 time=115
note_on channel=0 note=62 velocity=0 time=5
note_on channel=0 note=79 velocity=47 time=0
note_on channel=0 note=55 velocity=28 time=34
note_on channel=0 note=55 velocity=0 time=40
note_on channel=0 note=59 velocity=30 time=0
note_on channel=0 note=59 velocity=0 time=0
note_on channel=0 note=62 velocity=32 time=0
note_on channel=0 note=79 velocity=0 time=115
note_on channel=0 note=62 velocity=0 time=5
note_on channel=0 note=79 velocity=47 time=0
note_on channel=0 note=55 velocity=36 time=40
note_on channel=0 note=55 velocity=0 time=120
note_on channel=0 note=60 velocity=35 time=0
note_on channel=0 note=60 velocity=0 time=120
note_on channel=0 note=63 velocity=33 time=0
note_on channel=0 note=79 velocity=0 time=75
note_on channel=0 note=63 velocity=0 time=5
note_on channel=0 note=79 velocity=50 time=0
note_on channel=0 note=55 velocity=37 time=40
note_on channel=0 note=55 velocity=0 time=120
note_on channel=0 note=59 velocity=37 time=0
note_on channel=0 note=59 velocity=0 time=0
note_on channel=0 note=79 velocity=0 time=0
note_on channel=0 note=84 velocity=50 time=0
note_on channel=0 note=52 velocity=28 time=40
note_on channel=0 note=52 velocity=0 time=120
note_on channel=0 note=55 velocity=30 time=0
note_on channel=0 note=55 velocity=0 time=120
note_on channel=0 note=60 velocity=32 time=0
note_on channel=0 note=81 velocity=0 time=115
note_on channel=0 note=60 velocity=0 time=0
note_on channel=0 note=79 velocity=47 time=0
note_on channel=0 note=55 velocity=45 time=40
note_on channel=0 note=55 velocity=0 time=0
note_on channel=0 note=60 velocity=35 time=0
note_on channel=0 note=60 velocity=0 time=0
note_on channel=0 note=79 velocity=0 time=0
note_on channel=0 note=81 velocity=37 time=0
note_on channel=0 note=55 velocity=58 time=0
note_on channel=0 note=55 velocity=0 time=0
note_on channel=0 note=81 velocity=0 time=0
note_on channel=0 note=79 velocity=39 time=0
note_on channel=0 note=59 velocity=35 time=40
note_on channel=0 note=79 velocity=0 time=40
note_on channel=0 note=81 velocity=39 time=0
note_on channel=0 note=81 velocity=0 time=80
note_on channel=0 note=59 velocity=0 time=0
note_on channel=0 note=79 velocity=39 time=0
note_on channel=0 note=62 velocity=38 time=0
note_on channel=0 note=79 velocity=0 time=80
note_on channel=0 note=81 velocity=43 time=0
note_on channel=0 note=62 velocity=0 time=0
note_on channel=0 note=59 velocity=38 time=0
note_on channel=0 note=81 velocity=0 time=40
note_on channel=0 note=79 velocity=41 time=0
note_on channel=0 note=79 velocity=0 time=0
note_on channel=0 note=59 velocity=0 time=0
note_on channel=0 note=81 velocity=44 time=0
note_on channel=0 note=55 velocity=64 time=0
note_on channel=0 note=55 velocity=0 time=3
note_on channel=0 note=81 velocity=0 time=0
note_on channel=0 note=79 velocity=41 time=0
note_on channel=0 note=57 velocity=35 time=40
note_on channel=0 note=79 velocity=0 time=40
note_on channel=0 note=81 velocity=41 time=0
note_on channel=0 note=81 velocity=0 time=80
note_on channel=0 note=57 velocity=0 time=0
note_on channel=0 note=79 velocity=37 time=0
note_on channel=0 note=65 velocity=38 time=0
note_on channel=0 note=79 velocity=0 time=80
note_on channel=0 note=81 velocity=41 time=0
note_on channel=0 note=62 velocity=0 time=0
note_on channel=0 note=59 velocity=33 time=0
note_on channel=0 note=81 velocity=0 time=40
note_on channel=0 note=79 velocity=38 time=0
note_on channel=0 note=79 velocity=0 time=80
note_on channel=0 note=59 velocity=0 time=0
note_on channel=0 note=81 velocity=39 time=0
note_on channel=0 note=55 velocity=63 time=0
note_on channel=0 note=55 velocity=0 time=7
note_on channel=0 note=81 velocity=0 time=0
note_on channel=0 note=79 velocity=39 time=0
note_on channel=0 note=67 velocity=39 time=40
note_on channel=0 note=79 velocity=0 time=40
note_on channel=0 note=81 velocity=42 time=0
note_on channel=0 note=81 velocity=0 time=0
note_on channel=0 note=59 velocity=0 time=0
note_on channel=0 note=79 velocity=43 time=0
note_on channel=0 note=62 velocity=41 time=0
note_on channel=0 note=79 velocity=0 time=80
note_on channel=0 note=81 velocity=44 time=0
note_on channel=0 note=62 velocity=0 time=0
note_on channel=0 note=59 velocity=43 time=0
note_on channel=0 note=81 velocity=0 time=40
note_on channel=0 note=79 velocity=43 time=0
note_on channel=0 note=79 velocity=0 time=0
note_on channel=0 note=59 velocity=0 time=0
note_on channel=0 note=81 velocity=44 time=0
note_on channel=0 note=55 velocity=67 time=0
note_on channel=0 note=55 velocity=0 time=24
note_on channel=0 note=81 velocity=0 time=0
note_on channel=0 note=79 velocity=47 time=0
note_on channel=0 note=57 velocity=52 time=0
note_on channel=0 note=79 velocity=0 time=0
note_on channel=0 note=81 velocity=46 time=0
note_on channel=0 note=62 velocity=0 time=40
note_on channel=0 note=59 velocity=43 time=0
note_on channel=0 note=81 velocity=0 time=0
note_on channel=0 note=79 velocity=44 time=0
note_on channel=0 note=79 velocity=0 time=0
note_on channel=0 note=59 velocity=0 time=0
note_on channel=0 note=81 velocity=43 time=0
note_on channel=0 note=55 velocity=71 time=0
note_on channel=0 note=55 velocity=0 time=10
note_on channel=0 note=81 velocity=0 time=20
note_on channel=0 note=79 velocity=44 time=0
note_on channel=0 note=59 velocity=47 time=20
note_on channel=0 note=79 velocity=0 time=0
note_on channel=0 note=81 velocity=45 time=0
note_on channel=0 note=81 velocity=0 time=0
note_on channel=0 note=59 velocity=0 time=0
note_on channel=0 note=79 velocity=45 time=0
note_on channel=0 note=60 velocity=41 time=0
note_on channel=0 note=79 velocity=0 time=30
note_on channel=0 note=81 velocity=45 time=0
note_on channel=0 note=60 velocity=0 time=40
note_on channel=0 note=57 velocity=44 time=0
note_on channel=0 note=81 velocity=0 time=40
note_on channel=0 note=79 velocity=45 time=0
note_on channel=0 note=79 velocity=0 time=0
note_on channel=0 note=57 velocity=0 time=0
note_on channel=0 note=81 velocity=43 time=0
note_on channel=0 note=55 velocity=74 time=0
note_on channel=0 note=55 velocity=0 time=0
note_on channel=0 note=81 velocity=0 time=0
note_on channel=0 note=79 velocity=44 time=0
note_on channel=0 note=59 velocity=47 time=20
note_on channel=0 note=79 velocity=0 time=0
note_on channel=0 note=81 velocity=46 time=0
note_on channel=0 note=81 velocity=0 time=0
note_on channel=0 note=59 velocity=0 time=0
note_on channel=0 note=79 velocity=45 time=0
note_on channel=0 note=57 velocity=48 time=0
note_on channel=0 note=79 velocity=0 time=60
note_on channel=0 note=81 velocity=47 time=0
note_on channel=0 note=57 velocity=0 time=0
note_on channel=0 note=55 velocity=50 time=0
note_on channel=0 note=81 velocity=0 time=0
note_on channel=0 note=79 velocity=45 time=0
note_on channel=0 note=79 velocity=0 time=0
note_on channel=0 note=55 velocity=0 time=0
note_on channel=0 note=81 velocity=43 time=0
note_on channel=0 note=53 velocity=75 time=0
note_on channel=0 note=53 velocity=0 time=10
note_on channel=0 note=81 velocity=0 time=20
note_on channel=0 note=79 velocity=44 time=0
note_on channel=0 note=57 velocity=52 time=0
note_on channel=0 note=79 velocity=0 time=0
note_on channel=0 note=81 velocity=45 time=0
note_on channel=0 note=81 velocity=0 time=0
note_on channel=0 note=57 velocity=0 time=0
note_on channel=0 note=79 velocity=47 time=0
note_on channel=0 note=55 velocity=62 time=0
note_on channel=0 note=79 velocity=0 time=0
note_on channel=0 note=81 velocity=47 time=0
note_on channel=0 note=55 velocity=0 time=0
note_on channel=0 note=53 velocity=63 time=0
note_on channel=0 note=81 velocity=0 time=0
note_on channel=0 note=79 velocity=49 time=0
note_on channel=0 note=79 velocity=0 time=0
note_on channel=0 note=53 velocity=0 time=0
note_on channel=0 note=81 velocity=48 time=0
note_on channel=0 note=50 velocity=84 time=0
note_on channel=0 note=50 velocity=0 time=0
note_on channel=0 note=81 velocity=0 time=0
note_on channel=0 note=79 velocity=49 time=0
note_on channel=0 note=55 velocity=59 time=40
note_on channel=0 note=79 velocity=0 time=0
note_on channel=0 note=81 velocity=53 time=0
note_on channel=0 note=55 velocity=0 time=0
note_on channel=0 note=53 velocity=57 time=0
note_on channel=0 note=81 velocity=0 time=0
note_on channel=0 note=79 velocity=51 time=0
note_on channel=0 note=79 velocity=0 time=0
note_on channel=0 note=53 velocity=0 time=0
note_on channel=0 note=81 velocity=48 time=0
note_on channel=0 note=50 velocity=82 time=0
note_on channel=0 note=50 velocity=0 time=0
note_on channel=0 note=81 velocity=0 time=20
note_on channel=0 note=79 velocity=47 time=0
note_on channel=0 note=55 velocity=60 time=40
note_on channel=0 note=79 velocity=0 time=0
note_on channel=0 note=81 velocity=48 time=0
note_on channel=0 note=81 velocity=0 time=0
note_on channel=0 note=55 velocity=0 time=0
note_on channel=0 note=79 velocity=48 time=0
note_on channel=0 note=52 velocity=75 time=0
note_on channel=0 note=79 velocity=0 time=0
note_on channel=0 note=81 velocity=51 time=0
note_on channel=0 note=52 velocity=0 time=0
note_on channel=0 note=50 velocity=79 time=0
note_on channel=0 note=81 velocity=0 time=0
note_on channel=0 note=79 velocity=54 time=0
note_on channel=0 note=79 velocity=0 time=0
note_on channel=0 note=50 velocity=0 time=0
note_on channel=0 note=81 velocity=54 time=0
note_on channel=0 note=36 velocity=94 time=0
note_on channel=0 note=48 velocity=94 time=0
note_on channel=0 note=81 velocity=0 time=20
note_on channel=0 note=79 velocity=35 time=0
note_on channel=0 note=50 velocity=56 time=0
note_on channel=0 note=79 velocity=0 time=0
note_on channel=0 note=81 velocity=38 time=0
note_on channel=0 note=50 velocity=0 time=0
note_on channel=0 note=53 velocity=57 time=0
note_on channel=0 note=53 velocity=0 time=0
note_on channel=0 note=55 velocity=60 time=0
note_on channel=0 note=81 velocity=0 time=40
note_on channel=0 note=79 velocity=39 time=0
note_on channel=0 note=55 velocity=0 time=20
note_on channel=0 note=52 velocity=57 time=0
note_on channel=0 note=52 velocity=0 time=0
note_on channel=0 note=79 velocity=0 time=0
note_on channel=0 note=88 velocity=94 time=0
note_on channel=0 note=43 velocity=80 time=0
note_on channel=0 note=47 velocity=90 time=0
note_on channel=0 note=86 velocity=0 time=41
note_on channel=0 note=81 velocity=66 time=0
note_on channel=0 note=81 velocity=0 time=160
note_on channel=0 note=79 velocity=75 time=0
note_on channel=0 note=79 velocity=0 time=0
note_on channel=0 note=70 velocity=79 time=0
note_on channel=0 note=67 velocity=0 time=0
note_on channel=0 note=43 velocity=0 time=0
note_on channel=0 note=77 velocity=82 time=0
note_on channel=0 note=43 velocity=70 time=0
note_on channel=0 note=47 velocity=75 time=0
note_on channel=0 note=50 velocity=76 time=0
note_on channel=0 note=50 velocity=0 time=110
note_on channel=0 note=43 velocity=0 time=0
note_on channel=0 note=77 velocity=0 time=0
note_on channel=0 note=65 velocity=70 time=0
note_on channel=0 note=43 velocity=68 time=0
note_on channel=0 note=53 velocity=81 time=0
note_on channel=0 note=71 velocity=0 time=120
note_on channel=0 note=72 velocity=70 time=0
note_on channel=0 note=72 velocity=0 time=120
note_on channel=0 note=53 velocity=0 time=0
note_on channel=0 note=41 velocity=0 time=0
note_on channel=0 note=70 velocity=80 time=0
note_on channel=0 note=41 velocity=64 time=0
note_on channel=0 note=53 velocity=80 time=0
note_on channel=0 note=68 velocity=0 time=32
note_on channel=0 note=68 velocity=68 time=0
note_on channel=0 note=68 velocity=0 time=68
note_on channel=0 note=65 velocity=69 time=0
note_on channel=0 note=65 velocity=0 time=21
note_on channel=0 note=68 velocity=66 time=0
note_on channel=0 note=68 velocity=0 time=120
note_on channel=0 note=48 velocity=0 time=0
note_on channel=0 note=41 velocity=0 time=0
note_on channel=0 note=72 velocity=72 time=0
note_on channel=0 note=46 velocity=63 time=0
note_on channel=0 note=46 velocity=59 time=0
note_on channel=0 note=53 velocity=75 time=0
note_on channel=0 note=53 velocity=0 time=120
note_on channel=0 note=77 velocity=0 time=0
note_on channel=0 note=70 velocity=0 time=0
note_on channel=0 note=65 velocity=77 time=0
note_on channel=0 note=74 velocity=79 time=0
note_on channel=0 note=74 velocity=0 time=71
note_on channel=0 note=74 velocity=67 time=0
note_on channel=0 note=74 velocity=0 time=7
note_on channel=0 note=72 velocity=69 time=0
note_on channel=0 note=72 velocity=0 time=0
note_on channel=0 note=74 velocity=66 time=0
note_on channel=0 note=74 velocity=0 time=60
note_on channel=0 note=55 velocity=0 time=0
note_on channel=0 note=50 velocity=0 time=0
note_on channel=0 note=57 velocity=0 time=0
note_on channel=0 note=62 velocity=99 time=0
note_on channel=0 note=46 velocity=72 time=0
note_on channel=0 note=62 velocity=83 time=0
note_on channel=0 note=62 velocity=0 time=61
note_on channel=0 note=69 velocity=0 time=0
note_on channel=0 note=41 velocity=0 time=0
note_on channel=0 note=41 velocity=0 time=0
note_on channel=0 note=61 velocity=63 time=0
note_on channel=0 note=61 velocity=0 time=24
note_on channel=0 note=65 velocity=63 time=0
note_on channel=0 note=65 velocity=0 time=80
note_on channel=0 note=62 velocity=67 time=0
note_on channel=0 note=62 velocity=0 time=120
note_on channel=0 note=63 velocity=67 time=0
note_on channel=0 note=63 velocity=0 time=0
note_on channel=0 note=79 velocity=75 time=0
note_on channel=0 note=79 velocity=0 time=0
note_on channel=0 note=74 velocity=74 time=0
note_on channel=0 note=74 velocity=0 time=16
note_on channel=0 note=72 velocity=63 time=0
note_on channel=0 note=72 velocity=0 time=120
note_on channel=0 note=74 velocity=66 time=0
note_on channel=0 note=74 velocity=0 time=120
note_on channel=0 note=79 velocity=68 time=0
note_on channel=0 note=79 velocity=0 time=0
note_on channel=0 note=84 velocity=77 time=0
note_on channel=0 note=84 velocity=0 time=71
note_on channel=0 note=86 velocity=74 time=0
note_on channel=0 note=86 velocity=0 time=90
note_on channel=0 note=84 velocity=84 time=0
note_on channel=0 note=60 velocity=60 time=0
note_on channel=0 note=60 velocity=0 time=0
note_on channel=0 note=84 velocity=0 time=0
note_on channel=0 note=82 velocity=76 time=0
note_on channel=0 note=66 velocity=66 time=0
note_on channel=0 note=66 velocity=0 time=45
note_on channel=0 note=82 velocity=0 time=0
note_on channel=0 note=84 velocity=72 time=0
note_on channel=0 note=69 velocity=59 time=0
note_on channel=0 note=69 velocity=0 time=97
note_on channel=0 note=82 velocity=0 time=0
note_on channel=0 note=83 velocity=73 time=0
note_on channel=0 note=59 velocity=59 time=0
note_on channel=0 note=59 velocity=0 time=0
note_on channel=0 note=83 velocity=0 time=0
note_on channel=0 note=88 velocity=89 time=0
note_on channel=0 note=48 velocity=63 time=0
note_on channel=0 note=48 velocity=0 time=0
note_on channel=0 note=86 velocity=0 time=0
note_on channel=0 note=76 velocity=0 time=0
note_on channel=0 note=76 velocity=102 time=0
note_on channel=0 note=82 velocity=93 time=0
note_on channel=0 note=49 velocity=67 time=0
note_on channel=0 note=49 velocity=0 time=120
note_on channel=0 note=49 velocity=61 time=0
note_on channel=0 note=49 velocity=0 time=120
note_on channel=0 note=50 velocity=62 time=0
note_on channel=0 note=50 velocity=0 time=120
note_on channel=0 note=41 velocity=66 time=0
note_on channel=0 note=41 velocity=0 time=120
note_on channel=0 note=38 velocity=70 time=0
note_on channel=0 note=38 velocity=0 time=120
note_on channel=0 note=76 velocity=0 time=0
note_on channel=0 note=91 velocity=0 time=0
note_on channel=0 note=82 velocity=0 time=0
note_on channel=0 note=64 velocity=73 time=0
note_on channel=0 note=76 velocity=81 time=0
note_on channel=0 note=88 velocity=97 time=0
note_on channel=0 note=41 velocity=79 time=0
note_on channel=0 note=41 velocity=0 time=120
note_on channel=0 note=92 velocity=0 time=0
note_on channel=0 note=97 velocity=86 time=0
note_on channel=0 note=38 velocity=62 time=0
note_on channel=0 note=38 velocity=0 time=120
note_on channel=0 note=89 velocity=0 time=0
note_on channel=0 note=94 velocity=0 time=0
note_on channel=0 note=62 velocity=96 time=0
note_on channel=0 note=62 velocity=0 time=42
note_on channel=0 note=82 velocity=91 time=0
note_on channel=0 note=88 velocity=96 time=0
note_on channel=0 note=52 velocity=69 time=0
note_on channel=0 note=52 velocity=0 time=120
note_on channel=0 note=88 velocity=0 time=0
note_on channel=0 note=79 velocity=0 time=0
note_on channel=0 note=79 velocity=69 time=0
note_on channel=0 note=91 velocity=85 time=0
note_on channel=0 note=91 velocity=0 time=0
note_on channel=0 note=52 velocity=0 time=0
note_on channel=0 note=91 velocity=83 time=0
note_on channel=0 note=90 velocity=99 time=0
note_on channel=0 note=90 velocity=0 time=0
note_on channel=0 note=81 velocity=0 time=0
note_on channel=0 note=84 velocity=81 time=0
note_on channel=0 note=90 velocity=93 time=0
note_on channel=0 note=69 velocity=73 time=0
note_on channel=0 note=77 velocity=75 time=0
note_on channel=0 note=90 velocity=86 time=0
note_on channel=0 note=62 velocity=85 time=0
note_on channel=0 note=55 velocity=79 time=0
note_on channel=0 note=55 velocity=0 time=147
note_on channel=0 note=91 velocity=0 time=0
note_on channel=0 note=83 velocity=0 time=0
note_on channel=0 note=79 velocity=0 time=0
note_on channel=0 note=55 velocity=0 time=0
note_on channel=0 note=79 velocity=0 time=0
note_on channel=0 note=86 velocity=106 time=360
note_on channel=0 note=79 velocity=89 time=0
note_on channel=0 note=86 velocity=96 time=0
note_on channel=0 note=50 velocity=85 time=0
note_on channel=0 note=59 velocity=98 time=0
note_on channel=0 note=55 velocity=79 time=0
note_on channel=0 note=55 velocity=0 time=187
note_on channel=0 note=71 velocity=0 time=0
note_on channel=0 note=79 velocity=0 time=0
note_on channel=0 note=86 velocity=0 time=0
note_on channel=0 note=50 velocity=0 time=0
note_on channel=0 note=73 velocity=93 time=0
note_on channel=0 note=83 velocity=101 time=0
note_on channel=0 note=79 velocity=87 time=0
note_on channel=0 note=38 velocity=69 time=0
note_on channel=0 note=50 velocity=78 time=0
note_on channel=0 note=53 velocity=78 time=0
note_on channel=0 note=55 velocity=92 time=0
note_on channel=0 note=55 velocity=0 time=240
note_on channel=0 note=50 velocity=0 time=0
note_on channel=0 note=43 velocity=0 time=0
note_on channel=0 note=47 velocity=0 time=0
note_on channel=0 note=83 velocity=0 time=422
note_on channel=0 note=84 velocity=0 time=0
note_on channel=0 note=72 velocity=0 time=0
note_on channel=0 note=84 velocity=104 time=0
note_on channel=0 note=86 velocity=102 time=0
note_on channel=0 note=77 velocity=84 time=0
note_on channel=0 note=50 velocity=86 time=0
note_on channel=0 note=43 velocity=71 time=0
note_on channel=0 note=47 velocity=69 time=0
note_on channel=0 note=50 velocity=78 time=0
note_on channel=0 note=55 velocity=92 time=0
note_on channel=0 note=55 velocity=0 time=240
note_on channel=0 note=50 velocity=0 time=0
note_on channel=0 note=44 velocity=0 time=0
note_on channel=0 note=53 velocity=0 time=0
note_on channel=0 note=62 velocity=81 time=0
note_on channel=0 note=62 velocity=81 time=0
note_on channel=0 note=65 velocity=94 time=0
note_on channel=0 note=77 velocity=102 time=0
note_on channel=0 note=53 velocity=78 time=0
note_on channel=0 note=43 velocity=64 time=0
note_on channel=0 note=43 velocity=0 time=240
note_on channel=0 note=59 velocity=0 time=0
note_on channel=0 note=56 velocity=0 time=0
note_on channel=0 note=50 velocity=0 time=0
note_on channel=0 note=67 velocity=0 time=0
note_on channel=0 note=71 velocity=0 time=0
note_on channel=0 note=31 velocity=86 time=14
note_on channel=0 note=43 velocity=103 time=0
note_on channel=0 note=43 velocity=0 time=240
note_on channel=0 note=31 velocity=0 time=0
note_on channel=0 note=59 velocity=32 time=0
note_on channel=0 note=62 velocity=32 time=0
note_on channel=0 note=67 velocity=34 time=0
note_on channel=0 note=43 velocity=25 time=0
note_on channel=0 note=43 velocity=0 time=240
note_on channel=0 note=62 velocity=0 time=0
note_on channel=0 note=59 velocity=0 time=0
note_on channel=0 note=59 velocity=0 time=0
note_on channel=0 note=35 velocity=40 time=0
note_on channel=0 note=55 velocity=28 time=0
note_on channel=0 note=59 velocity=32 time=0
note_on channel=0 note=35 velocity=25 time=0
note_on channel=0 note=35 velocity=0 time=120
note_on channel=0 note=59 velocity=0 time=0
note_on channel=0 note=50 velocity=0 time=0
note_on channel=0 note=53 velocity=0 time=0
note_on channel=0 note=53 velocity=34 time=0
note_on channel=0 note=59 velocity=34 time=0
note_on channel=0 note=64 velocity=40 time=0
note_on channel=0 note=40 velocity=25 time=0
note_on channel=0 note=40 velocity=0 time=34
note_on channel=0 note=40 velocity=27 time=0
note_on channel=0 note=40 velocity=0 time=0
note_on channel=0 note=64 velocity=0 time=0
note_on channel=0 note=52 velocity=0 time=0
note_on channel=0 note=55 velocity=0 time=0
note_on channel=0 note=40 velocity=0 time=0
note_on channel=0 note=62 velocity=50 time=0
note_on channel=0 note=38 velocity=29 time=0
note_on channel=0 note=47 velocity=34 time=0
note_on channel=0 note=50 velocity=33 time=0
note_on channel=0 note=62 velocity=0 time=120
note_on channel=0 note=59 velocity=40 time=0
note_on channel=0 note=59 velocity=0 time=0
note_on channel=0 note=50 velocity=0 time=0
note_on channel=0 note=43 velocity=0 time=0
note_on channel=0 note=35 velocity=0 time=0
note_on channel=0 note=50 velocity=0 time=0
note_on channel=0 note=53 velocity=55 time=0
note_on channel=0 note=56 velocity=58 time=0
note_on channel=0 note=41 velocity=39 time=0
note_on channel=0 note=38 velocity=0 time=184
note_on channel=0 note=53 velocity=0 time=0
note_on channel=0 note=53 velocity=45 time=0
note_on channel=0 note=41 velocity=34 time=0
note_on channel=0 note=41 velocity=0 time=0
note_on channel=0 note=53 velocity=0 time=0
note_on channel=0 note=53 velocity=32 time=0
note_on channel=0 note=36 velocity=25 time=0
note_on channel=0 note=36 velocity=0 time=40
note_on channel=0 note=36 velocity=23 time=0
note_on channel=0 note=36 velocity=0 time=0
note_on channel=0 note=43 velocity=0 time=0
note_on channel=0 note=52 velocity=0 time=0
note_on channel=0 note=60 velocity=0 time=0
note_on channel=0 note=55 velocity=30 time=0
note_on channel=0 note=60 velocity=36 time=0
note_on channel=0 note=48 velocity=25 time=0
note_on channel=0 note=43 velocity=26 time=0
note_on channel=0 note=48 velocity=0 time=120
note_on channel=0 note=60 velocity=0 time=0
note_on channel=0 note=64 velocity=0 time=0
note_on channel=0 note=48 velocity=0 time=0
note_on channel=0 note=55 velocity=31 time=0
note_on channel=0 note=60 velocity=35 time=0
note_on channel=0 note=64 velocity=37 time=0
note_on channel=0 note=48 velocity=26 time=0
note_on channel=0 note=48 velocity=0 time=120
note_on channel=0 note=60 velocity=0 time=0
note_on channel=0 note=64 velocity=0 time=0
note_on channel=0 note=55 velocity=0 time=0
note_on channel=0 note=48 velocity=0 time=0
note_on channel=0 note=60 velocity=33 time=120
note_on channel=0 note=64 velocity=38 time=0
note_on channel=0 note=48 velocity=27 time=0
note_on channel=0 note=55 velocity=33 time=0
note_on channel=0 note=55 velocity=0 time=120
note_on channel=0 note=60 velocity=0 time=0
note_on channel=0 note=64 velocity=0 time=0
note_on channel=0 note=48 velocity=0 time=0
note_on channel=0 note=60 velocity=33 time=120
note_on channel=0 note=64 velocity=40 time=0
note_on channel=0 note=64 velocity=0 time=120
note_on channel=0 note=55 velocity=0 time=0
note_on channel=0 note=60 velocity=40 time=120
note_on channel=0 note=64 velocity=42 time=0
note_on channel=0 note=55 velocity=31 time=0
note_on channel=0 note=48 velocity=27 time=0
note_on channel=0 note=48 velocity=0 time=120
note_on channel=0 note=64 velocity=0 time=0
note_on channel=0 note=60 velocity=0 time=0
note_on channel=0 note=64 velocity=0 time=0
note_on channel=0 note=55 velocity=0 time=0
note_on channel=0 note=60 velocity=33 time=120
note_on channel=0 note=64 velocity=38 time=0
note_on channel=0 note=55 velocity=30 time=0
note_on channel=0 note=48 velocity=23 time=0
note_on channel=0 note=48 velocity=0 time=120
note_on channel=0 note=55 velocity=0 time=0
note_on channel=0 note=60 velocity=0 time=0
note_on channel=0 note=48 velocity=0 time=0
note_on channel=0 note=60 velocity=30 time=120
note_on channel=0 note=64 velocity=36 time=0
note_on channel=0 note=48 velocity=23 time=0
note_on channel=0 note=55 velocity=27 time=0
note_on channel=0 note=55 velocity=0 time=120
note_on channel=0 note=60 velocity=0 time=0
note_on channel=0 note=64 velocity=0 time=0
note_on channel=0 note=48 velocity=0 time=0
note_on channel=0 note=60 velocity=29 time=120
note_on channel=0 note=64 velocity=35 time=0
note_on channel=0 note=48 velocity=23 time=0
note_on channel=0 note=55 velocity=27 time=0
note_on channel=0 note=55 velocity=0 time=0
note_on channel=0 note=60 velocity=0 time=0
note_on channel=0 note=64 velocity=0 time=0
note_on channel=0 note=48 velocity=0 time=0
note_on channel=0 note=60 velocity=32 time=0
note_on channel=0 note=64 velocity=37 time=0
note_on channel=0 note=48 velocity=25 time=0
note_on channel=0 note=55 velocity=30 time=0
note_on channel=0 note=55 velocity=0 time=120
note_on channel=0 note=60 velocity=0 time=0
note_on channel=0 note=64 velocity=0 time=0
note_on channel=0 note=48 velocity=0 time=0
note_on channel=0 note=63 velocity=33 time=120
note_on channel=0 note=63 velocity=0 time=120
note_on channel=0 note=68 velocity=35 time=120
note_on channel=0 note=69 velocity=0 time=120
note_on channel=0 note=71 velocity=37 time=0
note_on channel=0 note=71 velocity=0 time=120
note_on channel=0 note=71 velocity=37 time=0
note_on channel=0 note=71 velocity=0 time=0
note_on channel=0 note=67 velocity=37 time=0
note_on channel=0 note=71 velocity=45 time=0
note_on channel=0 note=55 velocity=25 time=0
note_on channel=0 note=62 velocity=30 time=0
note_on channel=0 note=71 velocity=0 time=120
note_on channel=0 note=62 velocity=0 time=0
note_on channel=0 note=67 velocity=0 time=0
note_on channel=0 note=59 velocity=0 time=0
note_on channel=0 note=71 velocity=49 time=0
note_on channel=0 note=67 velocity=36 time=0
note_on channel=0 note=59 velocity=33 time=0
note_on channel=0 note=59 velocity=0 time=108
note_on channel=0 note=71 velocity=0 time=0
note_on channel=0 note=59 velocity=0 time=0
note_on channel=0 note=55 velocity=0 time=0
note_on channel=0 note=67 velocity=53 time=0
note_on channel=0 note=60 velocity=37 time=0
note_on channel=0 note=60 velocity=0 time=111
note_on channel=0 note=67 velocity=0 time=0
note_on channel=0 note=36 velocity=40 time=0
note_on channel=0 note=48 velocity=43 time=0
note_on channel=0 note=48 velocity=0 time=10
note_on channel=0 note=36 velocity=0 time=0
note_on channel=0 note=59 velocity=39 time=4
note_on channel=0 note=67 velocity=46 time=0
note_on channel=0 note=56 velocity=0 time=10
note_on channel=0 note=65 velocity=0 time=103
note_on channel=0 note=68 velocity=50 time=0
note_on channel=0 note=59 velocity=44 time=0
note_on channel=0 note=71 velocity=0 time=10
note_on channel=0 note=62 velocity=0 time=0
note_on channel=0 note=67 velocity=51 time=110
note_on channel=0 note=59 velocity=43 time=0
note_on channel=0 note=67 velocity=0 time=10
note_on channel=0 note=59 velocity=0 time=0
note_on channel=0 note=67 velocity=52 time=110
note_on channel=0 note=62 velocity=42 time=0
note_on channel=0 note=67 velocity=0 time=10
note_on channel=0 note=62 velocity=0 time=0
note_on channel=0 note=65 velocity=54 time=110
note_on channel=0 note=62 velocity=44 time=0
note_on channel=0 note=55 velocity=42 time=0
note_on channel=0 note=65 velocity=0 time=10
note_on channel=0 note=59 velocity=0 time=0
note_on channel=0 note=62 velocity=0 time=230
note_on channel=0 note=71 velocity=53 time=0
note_on channel=0 note=62 velocity=43 time=0
note_on channel=0 note=74 velocity=47 time=0
note_on channel=0 note=62 velocity=42 time=0
note_on channel=0 note=53 velocity=42 time=0
note_on channel=0 note=67 velocity=0 time=10
note_on channel=0 note=59 velocity=0 time=0
note_on channel=0 note=62 velocity=0 time=0
note_on channel=0 note=74 velocity=51 time=0
note_on channel=0 note=62 velocity=43 time=0
note_on channel=0 note=55 velocity=41 time=0
note_on channel=0 note=74 velocity=0 time=10
note_on channel=0 note=59 velocity=0 time=0
note_on channel=0 note=71 velocity=49 time=120
note_on channel=0 note=62 velocity=41 time=0
note_on channel=0 note=74 velocity=45 time=0
note_on channel=0 note=62 velocity=0 time=10
note_on channel=0 note=74 velocity=0 time=0
note_on channel=0 note=62 velocity=0 time=0
note_on channel=0 note=71 velocity=48 time=0
note_on channel=0 note=75 velocity=53 time=0
note_on channel=0 note=55 velocity=37 time=0
note_on channel=0 note=55 velocity=0 time=10
note_on channel=0 note=77 velocity=0 time=0
note_on channel=0 note=65 velocity=0 time=0
note_on channel=0 note=72 velocity=48 time=0
note_on channel=0 note=79 velocity=54 time=0
note_on channel=0 note=52 velocity=39 time=0
note_on channel=0 note=60 velocity=45 time=0
note_on channel=0 note=79 velocity=0 time=10
note_on channel=0 note=67 velocity=0 time=0
note_on channel=0 note=79 velocity=48 time=21
note_on channel=0 note=67 velocity=0 time=12
note_on channel=0 note=59 velocity=0 time=0
note_on channel=0 note=79 velocity=50 time=0
note_on channel=0 note=55 velocity=44 time=0
note_on channel=0 note=78 velocity=0 time=10
note_on channel=0 note=55 velocity=0 time=0
note_on channel=0 note=79 velocity=50 time=110
note_on channel=0 note=48 velocity=40 time=0
note_on channel=0 note=79 velocity=0 time=10
note_on channel=0 note=52 velocity=0 time=0
note_on channel=0 note=79 velocity=50 time=100
note_on channel=0 note=53 velocity=37 time=0
note_on channel=0 note=79 velocity=0 time=20
note_on channel=0 note=53 velocity=0 time=0
note_on channel=0 note=79 velocity=47 time=100
note_on channel=0 note=53 velocity=34 time=0
note_on channel=0 note=79 velocity=0 time=10
note_on channel=0 note=50 velocity=0 time=0
note_on channel=0 note=83 velocity=47 time=0
note_on channel=0 note=64 velocity=41 time=0
note_on channel=0 note=83 velocity=0 time=10
note_on channel=0 note=59 velocity=0 time=0
note_on channel=0 note=83 velocity=47 time=0
note_on channel=0 note=67 velocity=38 time=0
note_on channel=0 note=83 velocity=0 time=10
note_on channel=0 note=67 velocity=0 time=0
note_on channel=0 note=83 velocity=47 time=100
note_on channel=0 note=67 velocity=40 time=0
note_on channel=0 note=83 velocity=0 time=10
note_on channel=0 note=71 velocity=0 time=0
note_on channel=0 note=83 velocity=48 time=100
note_on channel=0 note=71 velocity=41 time=0
note_on channel=0 note=83 velocity=0 time=10
note_on channel=0 note=71 velocity=0 time=0
note_on channel=0 note=83 velocity=49 time=100
note_on channel=0 note=71 velocity=40 time=0
note_on channel=0 note=83 velocity=0 time=10
note_on channel=0 note=69 velocity=0 time=0
note_on channel=0 note=69 velocity=44 time=110
note_on channel=0 note=81 velocity=47 time=0
note_on channel=0 note=64 velocity=38 time=0
note_on channel=0 note=81 velocity=47 time=120
note_on channel=0 note=65 velocity=35 time=0
note_on channel=0 note=60 velocity=33 time=0
note_on channel=0 note=81 velocity=46 time=108
note_on channel=0 note=65 velocity=37 time=0
note_on channel=0 note=65 velocity=0 time=10
note_on channel=0 note=81 velocity=0 time=0
note_on channel=0 note=69 velocity=0 time=0
note_on channel=0 note=69 velocity=0 time=0
note_on channel=0 note=81 velocity=39 time=120
note_on channel=0 note=69 velocity=38 time=0
note_on channel=0 note=62 velocity=39 time=0
note_on channel=0 note=81 velocity=44 time=120
note_on channel=0 note=66 velocity=0 time=10
note_on channel=0 note=69 velocity=0 time=0
note_on channel=0 note=81 velocity=0 time=0
note_on channel=0 note=66 velocity=0 time=0
note_on channel=0 note=57 velocity=0 time=0
note_on channel=0 note=72 velocity=45 time=0
note_on channel=0 note=78 velocity=54 time=0
note_on channel=0 note=63 velocity=38 time=0
note_on channel=0 note=63 velocity=0 time=0
note_on channel=0 note=76 velocity=0 time=0
note_on channel=0 note=79 velocity=0 time=0
note_on channel=0 note=62 velocity=0 time=0
note_on channel=0 note=79 velocity=49 time=360
note_on channel=0 note=71 velocity=40 time=0
note_on channel=0 note=62 velocity=42 time=0
note_on channel=0 note=62 velocity=0 time=0
note_on channel=0 note=74 velocity=0 time=0
note_on channel=0 note=81 velocity=0 time=0
note_on channel=0 note=67 velocity=0 time=0
note_on channel=0 note=74 velocity=48 time=0
note_on channel=0 note=79 velocity=48 time=0
note_on channel=0 note=67 velocity=43 time=0
note_on channel=0 note=60 velocity=42 time=0
note_on channel=0 note=57 velocity=41 time=0
note_on channel=0 note=57 velocity=0 time=120
note_on channel=0 note=77 velocity=0 time=0
note_on channel=0 note=65 velocity=0 time=0
note_on channel=0 note=72 velocity=0 time=0
note_on channel=0 note=69 velocity=0 time=0
note_on channel=0 note=59 velocity=0 time=0
note_on channel=0 note=55 velocity=0 time=0
note_on channel=0 note=59 velocity=0 time=0
note_on channel=0 note=62 velocity=40 time=0
note_on channel=0 note=62 velocity=0 time=120
note_on channel=0 note=71 velocity=53 time=0
note_on channel=0 note=55 velocity=33 time=0
note_on channel=0 note=55 velocity=0 time=120
note_on channel=0 note=67 velocity=31 time=0
note_on channel=0 note=79 velocity=0 time=110
note_on channel=0 note=59 velocity=0 time=2
note_on channel=0 note=79 velocity=37 time=0
note_on channel=0 note=55 velocity=40 time=0
note_on channel=0 note=79 velocity=0 time=120
note_on channel=0 note=79 velocity=39 time=0
note_on channel=0 note=79 velocity=0 time=120
note_on channel=0 note=83 velocity=39 time=0
note_on channel=0 note=83 velocity=0 time=120
note_on channel=0 note=86 velocity=48 time=0
note_on channel=0 note=86 velocity=0 time=0
note_on channel=0 note=81 velocity=49 time=0
note_on channel=0 note=81 velocity=0 time=120
note_on channel=0 note=81 velocity=45 time=0
note_on channel=0 note=81 velocity=0 time=0
note_on channel=0 note=81 velocity=44 time=0
note_on channel=0 note=81 velocity=0 time=120
note_on channel=0 note=83 velocity=46 time=0
note_on channel=0 note=83 velocity=0 time=0
note_on channel=0 note=84 velocity=49 time=0
note_on channel=0 note=84 velocity=0 time=0
note_on channel=0 note=84 velocity=51 time=0
note_on channel=0 note=84 velocity=0 time=0
note_on channel=0 note=59 velocity=45 time=0
note_on channel=0 note=62 velocity=45 time=0
note_on channel=0 note=65 velocity=44 time=0
note_on channel=0 note=86 velocity=49 time=240
note_on channel=0 note=86 velocity=0 time=0
note_on channel=0 note=81 velocity=47 time=0
note_on channel=0 note=81 velocity=0 time=0
note_on channel=0 note=83 velocity=48 time=0
note_on channel=0 note=83 velocity=0 time=0
note_on channel=0 note=59 velocity=0 time=0
note_on channel=0 note=55 velocity=0 time=0
note_on channel=0 note=59 velocity=0 time=0
note_on channel=0 note=84 velocity=49 time=0
note_on channel=0 note=69 velocity=39 time=0
note_on channel=0 note=66 velocity=39 time=0
note_on channel=0 note=55 velocity=40 time=0
note_on channel=0 note=81 velocity=0 time=113
note_on channel=0 note=81 velocity=37 time=0
note_on channel=0 note=69 velocity=0 time=10
note_on channel=0 note=57 velocity=0 time=0
note_on channel=0 note=62 velocity=0 time=0
note_on channel=0 note=81 velocity=0 time=0
note_on channel=0 note=83 velocity=50 time=0
note_on channel=0 note=79 velocity=50 time=0
note_on channel=0 note=60 velocity=39 time=0
note_on channel=0 note=60 velocity=0 time=0
note_on channel=0 note=81 velocity=0 time=0
note_on channel=0 note=81 velocity=38 time=0
note_on channel=0 note=57 velocity=37 time=0
note_on channel=0 note=57 velocity=0 time=80
note_on channel=0 note=81 velocity=0 time=0
note_on channel=0 note=79 velocity=41 time=0
note_on channel=0 note=59 velocity=38 time=0
note_on channel=0 note=59 velocity=0 time=80
note_on channel=0 note=79 velocity=0 time=0
note_on channel=0 note=79 velocity=49 time=0
note_on channel=0 note=60 velocity=35 time=0
note_on channel=0 note=60 velocity=0 time=80
note_on channel=0 note=60 velocity=33 time=0
note_on channel=0 note=79 velocity=0 time=80
note_on channel=0 note=81 velocity=42 time=0
note_on channel=0 note=60 velocity=0 time=0
note_on channel=0 note=59 velocity=37 time=0
note_on channel=0 note=81 velocity=0 time=20
note_on channel=0 note=79 velocity=41 time=0
note_on channel=0 note=79 velocity=0 time=80
note_on channel=0 note=59 velocity=0 time=0
note_on channel=0 note=81 velocity=42 time=0
note_on channel=0 note=55 velocity=64 time=0
note_on channel=0 note=55 velocity=0 time=0
note_on channel=0 note=81 velocity=0 time=0
note_on channel=0 note=79 velocity=44 time=0
note_on channel=0 note=59 velocity=52 time=0
note_on channel=0 note=79 velocity=0 time=0
note_on channel=0 note=81 velocity=45 time=0
note_on channel=0 note=81 velocity=0 time=40
note_on channel=0 note=59 velocity=0 time=0
note_on channel=0 note=79 velocity=43 time=0
note_on channel=0 note=57 velocity=47 time=0
note_on channel=0 note=79 velocity=0 time=80
note_on channel=0 note=81 velocity=44 time=0
note_on channel=0 note=57 velocity=0 time=0
note_on channel=0 note=55 velocity=50 time=0
note_on channel=0 note=81 velocity=0 time=0
note_on channel=0 note=79 velocity=45 time=0
note_on channel=0 note=79 velocity=0 time=80
note_on channel=0 note=55 velocity=0 time=0
note_on channel=0 note=81 velocity=45 time=0
note_on channel=0 note=55 velocity=61 time=0
note_on channel=0 note=55 velocity=0 time=3
note_on channel=0 note=81 velocity=0 time=0
note_on channel=0 note=79 velocity=44 time=0
note_on channel=0 note=59 velocity=51 time=0
note_on channel=0 note=79 velocity=0 time=0
note_on channel=0 note=81 velocity=42 time=0
note_on channel=0 note=81 velocity=0 time=0
note_on channel=0 note=59 velocity=0 time=0
note_on channel=0 note=79 velocity=43 time=0
note_on channel=0 note=55 velocity=71 time=0
note_on channel=0 note=79 velocity=0 time=80
note_on channel=0 note=81 velocity=44 time=0
note_on channel=0 note=59 velocity=0 time=0
note_on channel=0 note=55 velocity=43 time=0
note_on channel=0 note=81 velocity=0 time=0
note_on channel=0 note=79 velocity=46 time=0
note_on channel=0 note=79 velocity=0 time=0
note_on channel=0 note=55 velocity=0 time=0
note_on channel=0 note=81 velocity=43 time=0
note_on channel=0 note=53 velocity=69 time=0
note_on channel=0 note=53 velocity=0 time=10
note_on channel=0 note=81 velocity=0 time=20
note_on channel=0 note=79 velocity=44 time=0
note_on channel=0 note=57 velocity=60 time=0
note_on channel=0 note=79 velocity=0 time=20
note_on channel=0 note=81 velocity=45 time=0
note_on channel=0 note=81 velocity=0 time=0
note_on channel=0 note=57 velocity=0 time=0
note_on channel=0 note=79 velocity=47 time=0
note_on channel=0 note=55 velocity=75 time=0
note_on channel=0 note=79 velocity=0 time=0
note_on channel=0 note=81 velocity=50 time=0
note_on channel=0 note=55 velocity=0 time=0
note_on channel=0 note=53 velocity=70 time=0
note_on channel=0 note=81 velocity=0 time=0
note_on channel=0 note=79 velocity=48 time=0
note_on channel=0 note=79 velocity=0 time=0
note_on channel=0 note=53 velocity=0 time=0
note_on channel=0 note=81 velocity=47 time=0
note_on channel=0 note=52 velocity=82 time=0
note_on channel=0 note=52 velocity=0 time=0
note_on channel=0 note=81 velocity=0 time=0
note_on channel=0 note=79 velocity=49 time=0
note_on channel=0 note=57 velocity=65 time=40
note_on channel=0 note=79 velocity=0 time=0
note_on channel=0 note=81 velocity=49 time=0
note_on channel=0 note=81 velocity=0 time=0
note_on channel=0 note=57 velocity=0 time=0
note_on channel=0 note=79 velocity=50 time=0
note_on channel=0 note=55 velocity=71 time=0
note_on channel=0 note=79 velocity=0 time=0
note_on channel=0 note=81 velocity=49 time=0
note_on channel=0 note=81 velocity=0 time=0
note_on channel=0 note=55 velocity=0 time=0
note_on channel=0 note=79 velocity=49 time=0
note_on channel=0 note=50 velocity=85 time=0
note_on channel=0 note=79 velocity=0 time=0
note_on channel=0 note=81 velocity=50 time=0
note_on channel=0 note=53 velocity=0 time=0
note_on channel=0 note=50 velocity=73 time=0
note_on channel=0 note=81 velocity=0 time=0
note_on channel=0 note=79 velocity=50 time=0
note_on channel=0 note=79 velocity=0 time=0
note_on channel=0 note=52 velocity=0 time=0
note_on channel=0 note=81 velocity=48 time=0
note_on channel=0 note=48 velocity=63 time=0
note_on channel=0 note=48 velocity=0 time=0
note_on channel=0 note=81 velocity=0 time=20
note_on channel=0 note=79 velocity=54 time=0
note_on channel=0 note=52 velocity=67 time=40
note_on channel=0 note=55 velocity=0 time=0
note_on channel=0 note=79 velocity=0 time=0
note_on channel=0 note=81 velocity=53 time=0
note_on channel=0 note=52 velocity=65 time=40
note_on channel=0 note=81 velocity=0 time=20
note_on channel=0 note=79 velocity=51 time=0
note_on channel=0 note=79 velocity=0 time=40
note_on channel=0 note=52 velocity=0 time=0
note_on channel=0 note=81 velocity=49 time=0
note_on channel=0 note=50 velocity=92 time=0
note_on channel=0 note=50 velocity=0 time=10
note_on channel=0 note=81 velocity=0 time=20
note_on channel=0 note=79 velocity=55 time=0
note_on channel=0 note=53 velocity=68 time=40
note_on channel=0 note=79 velocity=0 time=0
note_on channel=0 note=81 velocity=55 time=0
note_on channel=0 note=81 velocity=0 time=80
note_on channel=0 note=79 velocity=58 time=0
note_on channel=0 note=53 velocity=0 time=0
note_on channel=0 note=52 velocity=70 time=0
note_on channel=0 note=79 velocity=0 time=0
note_on channel=0 note=81 velocity=56 time=0
note_on channel=0 note=52 velocity=0 time=20
note_on channel=0 note=50 velocity=76 time=0
note_on channel=0 note=81 velocity=0 time=0
note_on channel=0 note=79 velocity=55 time=0
note_on channel=0 note=79 velocity=0 time=0
note_on channel=0 note=50 velocity=0 time=0
note_on channel=0 note=81 velocity=54 time=0
note_on channel=0 note=36 velocity=94 time=0
note_on channel=0 note=48 velocity=94 time=0
note_on channel=0 note=81 velocity=0 time=20
note_on channel=0 note=79 velocity=36 time=0
note_on channel=0 note=50 velocity=56 time=0
note_on channel=0 note=79 velocity=0 time=20
note_on channel=0 note=81 velocity=38 time=0
note_on channel=0 note=50 velocity=0 time=0
note_on channel=0 note=52 velocity=57 time=0
note_on channel=0 note=52 velocity=0 time=0
note_on channel=0 note=81 velocity=0 time=0
note_on channel=0 note=48 velocity=0 time=0
note_on channel=0 note=36 velocity=0 time=0
note_on channel=0 note=79 velocity=33 time=0
note_on channel=0 note=53 velocity=60 time=0
note_on channel=0 note=53 velocity=0 time=0
note_on channel=0 note=55 velocity=60 time=0
note_on channel=0 note=79 velocity=0 time=0
note_on channel=0 note=81 velocity=38 time=0
note_on channel=0 note=55 velocity=0 time=20
note_on channel=0 note=57 velocity=62 time=0
note_on channel=0 note=81 velocity=0 time=40
note_on channel=0 note=79 velocity=36 time=0
note_on channel=0 note=57 velocity=0 time=20
note_on channel=0 note=59 velocity=63 time=0
note_on channel=0 note=59 velocity=0 time=0
note_on channel=0 note=79 velocity=0 time=0
note_on channel=0 note=81 velocity=39 time=0
note_on channel=0 note=91 velocity=90 time=0
note_on channel=0 note=60 velocity=63 time=0
note_on channel=0 note=81 velocity=0 time=0
note_on channel=0 note=79 velocity=36 time=0
note_on channel=0 note=60 velocity=0 time=0
note_on channel=0 note=62 velocity=65 time=0
note_on channel=0 note=79 velocity=0 time=0
note_on channel=0 note=81 velocity=40 time=0
note_on channel=0 note=62 velocity=0 time=20
note_on channel=0 note=64 velocity=66 time=0
note_on channel=0 note=64 velocity=0 time=0
note_on channel=0 note=81 velocity=0 time=0
note_on channel=0 note=91 velocity=0 time=0
note_on channel=0 note=79 velocity=36 time=0
note_on channel=0 note=65 velocity=67 time=0
note_on channel=0 note=65 velocity=0 time=0
note_on channel=0 note=67 velocity=69 time=0
note_on channel=0 note=79 velocity=0 time=0
note_on channel=0 note=81 velocity=40 time=0
note_on channel=0 note=62 velocity=0 time=0
note_on channel=0 note=64 velocity=66 time=0
note_on channel=0 note=64 velocity=0 time=0
note_on channel=0 note=81 velocity=0 time=0
note_on channel=0 note=91 velocity=0 time=0
note_on channel=0 note=79 velocity=36 time=0
note_on channel=0 note=65 velocity=67 time=0
note_on channel=0 note=65 velocity=0 time=0
note_on channel=0 note=67 velocity=69 time=0
note_on channel=0 note=79 velocity=0 time=0
note_on channel=0 note=81 velocity=40 time=0
note_on channel=0 note=67 velocity=0 time=0
note_on channel=0 note=69 velocity=70 time=0
note_on channel=0 note=81 velocity=0 time=0
note_on channel=0 note=79 velocity=36 time=0
note_on channel=0 note=69 velocity=0 time=20
note_on channel=0 note=71 velocity=71 time=0
note_on channel=0 note=71 velocity=0 time=60
note_on channel=0 note=79 velocity=0 time=0
note_on channel=0 note=81 velocity=40 time=0
note_on channel=0 note=91 velocity=90 time=0
note_on channel=0 note=71 velocity=74 time=0
note_on channel=0 note=71 velocity=0 time=0
note_on channel=0 note=81 velocity=0 time=0
note_on channel=0 note=79 velocity=37 time=0
note_on channel=0 note=71 velocity=71 time=0
note_on channel=0 note=79 velocity=0 time=0
note_on channel=0 note=81 velocity=40 time=0
note_on channel=0 note=71 velocity=0 time=20
note_on channel=0 note=81 velocity=0 time=0
note_on channel=0 note=79 velocity=36 time=0
note_on channel=0 note=69 velocity=71 time=0
note_on channel=0 note=69 velocity=0 time=0
note_on channel=0 note=79 velocity=0 time=0
note_on channel=0 note=81 velocity=40 time=0
note_on channel=0 note=67 velocity=71 time=0
note_on channel=0 note=81 velocity=0 time=20
note_on channel=0 note=79 velocity=36 time=0
note_on channel=0 note=67 velocity=0 time=20
note_on channel=0 note=79 velocity=0 time=0
note_on channel=0 note=81 velocity=39 time=0
note_on channel=0 note=67 velocity=72 time=0
note_on channel=0 note=81 velocity=0 time=20
note_on channel=0 note=79 velocity=36 time=0
note_on channel=0 note=67 velocity=0 time=20
note_on channel=0 note=79 velocity=0 time=0
note_on channel=0 note=81 velocity=39 time=0
note_on channel=0 note=65 velocity=72 time=0
note_on channel=0 note=65 velocity=0 time=0
note_on channel=0 note=81 velocity=0 time=20
note_on channel=0 note=79 velocity=32 time=0
note_on channel=0 note=60 velocity=69 time=40
note_on channel=0 note=79 velocity=0 time=0
note_on channel=0 note=81 velocity=38 time=0
note_on channel=0 note=60 velocity=0 time=0
note_on channel=0 note=81 velocity=0 time=20
note_on channel=0 note=79 velocity=33 time=0
note_on channel=0 note=64 velocity=69 time=0
note_on channel=0 note=79 velocity=0 time=0
note_on channel=0 note=81 velocity=36 time=0
note_on channel=0 note=64 velocity=0 time=0
note_on channel=0 note=81 velocity=0 time=20
note_on channel=0 note=91 velocity=0 time=0
note_on channel=0 note=79 velocity=33 time=0
note_on channel=0 note=91 velocity=89 time=0
note_on channel=0 note=60 velocity=69 time=0
note_on channel=0 note=60 velocity=0 time=0
note_on channel=0 note=81 velocity=0 time=20
note_on channel=0 note=79 velocity=32 time=0
note_on channel=0 note=60 velocity=69 time=40
note_on channel=0 note=79 velocity=0 time=0
note_on channel=0 note=81 velocity=36 time=0
note_on channel=0 note=60 velocity=0 time=20
note_on channel=0 note=81 velocity=0 time=20
note_on channel=0 note=79 velocity=32 time=0
note_on channel=0 note=60 velocity=69 time=40
note_on channel=0 note=79 velocity=0 time=0
note_on channel=0 note=81 velocity=36 time=0
note_on channel=0 note=60 velocity=0 time=0
note_on channel=0 note=81 velocity=0 time=20
note_on channel=0 note=79 velocity=33 time=0
note_on channel=0 note=60 velocity=69 time=20
note_on channel=0 note=79 velocity=0 time=0
note_on channel=0 note=81 velocity=36 time=0
note_on channel=0 note=60 velocity=0 time=0
note_on channel=0 note=81 velocity=0 time=20
note_on channel=0 note=91 velocity=0 time=0
note_on channel=0 note=79 velocity=32 time=0
note_on channel=0 note=88 velocity=84 time=0
note_on channel=0 note=59 velocity=73 time=0
note_on channel=0 note=59 velocity=0 time=40
note_on channel=0 note=79 velocity=0 time=10
note_on channel=0 note=81 velocity=37 time=0
note_on channel=0 note=57 velocity=69 time=0
note_on channel=0 note=81 velocity=0 time=20
note_on channel=0 note=79 velocity=31 time=0
note_on channel=0 note=60 velocity=0 time=0
note_on channel=0 note=79 velocity=0 time=20
note_on channel=0 note=88 velocity=0 time=0
note_on channel=0 note=81 velocity=37 time=0
note_on channel=0 note=79 velocity=84 time=0
note_on channel=0 note=55 velocity=75 time=0
note_on channel=0 note=55 velocity=0 time=0
note_on channel=0 note=79 velocity=0 time=10
note_on channel=0 note=81 velocity=0 time=0
note_on channel=0 note=79 velocity=33 time=0
note_on channel=0 note=53 velocity=69 time=40
note_on channel=0 note=79 velocity=0 time=0
note_on channel=0 note=81 velocity=38 time=0
note_on channel=0 note=53 velocity=0 time=0
note_on channel=0 note=81 velocity=0 time=20
note_on channel=0 note=79 velocity=32 time=0
note_on channel=0 note=52 velocity=69 time=0
note_on channel=0 note=52 velocity=0 time=0
note_on channel=0 note=79 velocity=0 time=0
note_on channel=0 note=81 velocity=36 time=0
note_on channel=0 note=50 velocity=69 time=40
note_on channel=0 note=81 velocity=0 time=20
note_on channel=0 note=79 velocity=32 time=0
note_on channel=0 note=50 velocity=0 time=20
note_on channel=0 note=79 velocity=0 time=0
note_on channel=0 note=81 velocity=38 time=0
note_on channel=0 note=84 velocity=87 time=0
note_on channel=0 note=48 velocity=75 time=0
note_on channel=0 note=48 velocity=0 time=0
note_on channel=0 note=81 velocity=0 time=0
note_on channel=0 note=79 velocity=32 time=0
note_on channel=0 note=48 velocity=69 time=0
note_on channel=0 note=48 velocity=0 time=0
note_on channel=0 note=79 velocity=0 time=0
note_on channel=0 note=84 velocity=0 time=0
note_on channel=0 note=81 velocity=36 time=0
note_on channel=0 note=88 velocity=84 time=0
note_on channel=0 note=48 velocity=75 time=0
note_on channel=0 note=48 velocity=0 time=235
note_on channel=0 note=81 velocity=0 time=20
note_on channel=0 note=79 velocity=32 time=0
note_on channel=0 note=48 velocity=69 time=40
note_on channel=0 note=79 velocity=0 time=0
note_on channel=0 note=81 velocity=37 time=0
note_on channel=0 note=48 velocity=0 time=0
note_on channel=0 note=81 velocity=0 time=0
note_on channel=0 note=79 velocity=31 time=0
note_on channel=0 note=48 velocity=69 time=40
note_on channel=0 note=79 velocity=0 time=0
note_on channel=0 note=81 velocity=37 time=0
note_on channel=0 note=48 velocity=0 time=0
note_on channel=0 note=81 velocity=0 time=20
note_on channel=0 note=79 velocity=32 time=0
note_on channel=0 note=47 velocity=69 time=0
note_on channel=0 note=47 velocity=0 time=0
note_on channel=0 note=79 velocity=0 time=0
note_on channel=0 note=81 velocity=36 time=0
note_on channel=0 note=45 velocity=69 time=20
note_on channel=0 note=81 velocity=0 time=40
note_on channel=0 note=79 velocity=32 time=0
note_on channel=0 note=45 velocity=0 time=20
note_on channel=0 note=79 velocity=0 time=0
note_on channel=0 note=84 velocity=0 time=0
note_on channel=0 note=81 velocity=36 time=0
note_on channel=0 note=81 velocity=0 time=0
note_on channel=0 note=88 velocity=0 time=0
note_on channel=0 note=81 velocity=36 time=0
note_on channel=0 note=84 velocity=86 time=0
note_on channel=0 note=48 velocity=75 time=0
note_on channel=0 note=48 velocity=0 time=0
note_on channel=0 note=81 velocity=0 time=0
note_on channel=0 note=79 velocity=32 time=0
note_on channel=0 note=48 velocity=69 time=40
note_on channel=0 note=79 velocity=0 time=0
note_on channel=0 note=81 velocity=37 time=0
note_on channel=0 note=48 velocity=0 time=0
note_on channel=0 note=81 velocity=0 time=0
note_on channel=0 note=79 velocity=32 time=0
note_on channel=0 note=48 velocity=69 time=0
note_on channel=0 note=48 velocity=0 time=0
note_on channel=0 note=79 velocity=0 time=0
note_on channel=0 note=81 velocity=37 time=0
note_on channel=0 note=45 velocity=69 time=40
note_on channel=0 note=81 velocity=0 time=20
note_on channel=0 note=79 velocity=32 time=0
note_on channel=0 note=45 velocity=0 time=20
note_on channel=0 note=79 velocity=0 time=0
note_on channel=0 note=84 velocity=0 time=0
note_on channel=0 note=81 velocity=36 time=0
note_on channel=0 note=86 velocity=87 time=0
note_on channel=0 note=43 velocity=77 time=0
note_on channel=0 note=43 velocity=0 time=0
note_on channel=0 note=81 velocity=0 time=0
note_on channel=0 note=79 velocity=34 time=0
note_on channel=0 note=41 velocity=69 time=40
note_on channel=0 note=79 velocity=0 time=0
note_on channel=0 note=81 velocity=37 time=0
note_on channel=0 note=41 velocity=0 time=0
note_on channel=0 note=81 velocity=0 time=40
note_on channel=0 note=88 velocity=0 time=0
note_on channel=0 note=79 velocity=33 time=0
note_on channel=0 note=43 velocity=69 time=20
note_on channel=0 note=43 velocity=0 time=0
note_on channel=0 note=79 velocity=0 time=0
note_on channel=0 note=81 velocity=0 time=0
note_on channel=0 note=79 velocity=32 time=0
note_on channel=0 note=41 velocity=71 time=40
note_on channel=0 note=79 velocity=0 time=0
note_on channel=0 note=81 velocity=37 time=0
note_on channel=0 note=41 velocity=0 time=0
note_on channel=0 note=81 velocity=0 time=20
note_on channel=0 note=88 velocity=0 time=0
note_on channel=0 note=79 velocity=32 time=0
note_on channel=0 note=40 velocity=75 time=0
note_on channel=0 note=40 velocity=0 time=0
note_on channel=0 note=79 velocity=0 time=0
note_on channel=0 note=81 velocity=36 time=0
note_on channel=0 note=43 velocity=73 time=0
note_on channel=0 note=43 velocity=0 time=0
note_on channel=0 note=81 velocity=0 time=0
note_on channel=0 note=79 velocity=31 time=0
note_on channel=0 note=41 velocity=71 time=40
note_on channel=0 note=79 velocity=0 time=0
note_on channel=0 note=81 velocity=37 time=0
note_on channel=0 note=51 velocity=0 time=20
note_on channel=0 note=81 velocity=0 time=0
note_on channel=0 note=79 velocity=32 time=0
note_on channel=0 note=44 velocity=41 time=0
note_on channel=0 note=79 velocity=0 time=20
note_on channel=0 note=81 velocity=41 time=0
note_on channel=0 note=81 velocity=0 time=0
note_on channel=0 note=41 velocity=0 time=0
note_on channel=0 note=77 velocity=33 time=0
note_on channel=0 note=38 velocity=45 time=0
note_on channel=0 note=77 velocity=0 time=80
note_on channel=0 note=76 velocity=39 time=0
note_on channel=0 note=76 velocity=0 time=40
note_on channel=0 note=78 velocity=46 time=0
note_on channel=0 note=54 velocity=34 time=0
note_on channel=0 note=78 velocity=0 time=80
note_on channel=0 note=79 velocity=49 time=0
note_on channel=0 note=78 velocity=0 time=60
note_on channel=0 note=78 velocity=49 time=0
note_on channel=0 note=38 velocity=0 time=40
note_on channel=0 note=78 velocity=0 time=0
note_on channel=0 note=78 velocity=44 time=0
note_on channel=0 note=79 velocity=0 time=23
note_on channel=0 note=78 velocity=46 time=0
note_on channel=0 note=78 velocity=0 time=0
note_on channel=0 note=74 velocity=50 time=0
note_on channel=0 note=80 velocity=55 time=0
note_on channel=0 note=46 velocity=30 time=0
note_on channel=0 note=49 velocity=35 time=0
note_on channel=0 note=49 velocity=0 time=0
note_on channel=0 note=49 velocity=33 time=0
note_on channel=0 note=49 velocity=0 time=0
note_on channel=0 note=61 velocity=34 time=0
note_on channel=0 note=82 velocity=0 time=275
note_on channel=0 note=85 velocity=75 time=0
note_on channel=0 note=65 velocity=0 time=120
note_on channel=0 note=58 velocity=36 time=0
note_on channel=0 note=58 velocity=0 time=120
note_on channel=0 note=58 velocity=34 time=0
note_on channel=0 note=58 velocity=0 time=120
note_on channel=0 note=53 velocity=33 time=0
note_on channel=0 note=53 velocity=0 time=0
note_on channel=0 note=85 velocity=0 time=0
note_on channel=0 note=73 velocity=0 time=0
note_on channel=0 note=82 velocity=0 time=0
note_on channel=0 note=77 velocity=39 time=0
note_on channel=0 note=82 velocity=47 time=0
note_on channel=0 note=53 velocity=36 time=0
note_on channel=0 note=58 velocity=43 time=0
note_on channel=0 note=58 velocity=0 time=103
note_on channel=0 note=53 velocity=0 time=0
note_on channel=0 note=62 velocity=44 time=0
note_on channel=0 note=51 velocity=35 time=0
note_on channel=0 note=51 velocity=0 time=112
note_on channel=0 note=58 velocity=0 time=0
note_on channel=0 note=62 velocity=36 time=0
note_on channel=0 note=65 velocity=42 time=0
note_on channel=0 note=65 velocity=0 time=119
note_on channel=0 note=58 velocity=0 time=0
note_on channel=0 note=77 velocity=0 time=0
note_on channel=0 note=81 velocity=0 time=0
note_on channel=0 note=51 velocity=36 time=0
note_on channel=0 note=55 velocity=37 time=0
note_on channel=0 note=58 velocity=37 time=0
note_on channel=0 note=61 velocity=39 time=0
note_on channel=0 note=55 velocity=37 time=0
note_on channel=0 note=55 velocity=0 time=120
note_on channel=0 note=58 velocity=0 time=0
note_on channel=0 note=63 velocity=0 time=0
note_on channel=0 note=63 velocity=0 time=0
note_on channel=0 note=65 velocity=0 time=0
note_on channel=0 note=87 velocity=86 time=0
note_on channel=0 note=73 velocity=73 time=0
note_on channel=0 note=70 velocity=54 time=0
note_on channel=0 note=49 velocity=50 time=0
note_on channel=0 note=49 velocity=0 time=63
note_on channel=0 note=58 velocity=41 time=0
note_on channel=0 note=58 velocity=0 time=120
note_on channel=0 note=85 velocity=0 time=0
note_on channel=0 note=73 velocity=0 time=0
note_on channel=0 note=58 velocity=44 time=0
note_on channel=0 note=58 velocity=0 time=120
note_on channel=0 note=54 velocity=40 time=0
note_on channel=0 note=54 velocity=0 time=25
note_on channel=0 note=64 velocity=42 time=0
note_on channel=0 note=64 velocity=0 time=120
note_on channel=0 note=83 velocity=58 time=0
note_on channel=0 note=76 velocity=48 time=0
note_on channel=0 note=76 velocity=0 time=120
note_on channel=0 note=88 velocity=0 time=0
note_on channel=0 note=87 velocity=68 time=0
note_on channel=0 note=73 velocity=45 time=0
note_on channel=0 note=66 velocity=48 time=0
note_on channel=0 note=66 velocity=0 time=120
note_on channel=0 note=66 velocity=37 time=0
note_on channel=0 note=66 velocity=0 time=120
note_on channel=0 note=59 velocity=42 time=0
note_on channel=0 note=78 velocity=0 time=60
note_on channel=0 note=78 velocity=40 time=0
note_on channel=0 note=66 velocity=0 time=17
note_on channel=0 note=66 velocity=32 time=0
note_on channel=0 note=64 velocity=0 time=120
note_on channel=0 note=75 velocity=0 time=0
note_on channel=0 note=90 velocity=0 time=0
note_on channel=0 note=88 velocity=52 time=0
note_on channel=0 note=78 velocity=51 time=0
note_on channel=0 note=59 velocity=42 time=0
note_on channel=0 note=64 velocity=42 time=0
note_on channel=0 note=66 velocity=40 time=0
note_on channel=0 note=71 velocity=50 time=0
note_on channel=0 note=87 velocity=0 time=13
note_on channel=0 note=80 velocity=50 time=0
note_on channel=0 note=80 velocity=0 time=60
note_on channel=0 note=71 velocity=0 time=0
note_on channel=0 note=68 velocity=0 time=0
note_on channel=0 note=68 velocity=0 time=0
note_on channel=0 note=77 velocity=0 time=0
note_on channel=0 note=75 velocity=49 time=0
note_on channel=0 note=82 velocity=55 time=0
note_on channel=0 note=82 velocity=48 time=0
note_on channel=0 note=56 velocity=42 time=0
note_on channel=0 note=61 velocity=42 time=0
note_on channel=0 note=64 velocity=40 time=0
note_on channel=0 note=64 velocity=0 time=120
note_on channel=0 note=61 velocity=0 time=0
note_on channel=0 note=73 velocity=0 time=0
note_on channel=0 note=85 velocity=0 time=0
note_on channel=0 note=81 velocity=0 time=0
note_on channel=0 note=61 velocity=0 time=0
note_on channel=0 note=56 velocity=44 time=0
note_on channel=0 note=56 velocity=0 time=70
note_on channel=0 note=82 velocity=59 time=0
note_on channel=0 note=73 velocity=59 time=0
note_on channel=0 note=66 velocity=60 time=0
note_on channel=0 note=57 velocity=42 time=120
note_on channel=0 note=57 velocity=0 time=120
note_on channel=0 note=76 velocity=0 time=0
note_on channel=0 note=69 velocity=0 time=0
note_on channel=0 note=57 velocity=45 time=0
note_on channel=0 note=57 velocity=0 time=120
note_on channel=0 note=69 velocity=48 time=0
note_on channel=0 note=73 velocity=57 time=0
note_on channel=0 note=61 velocity=45 time=0
note_on channel=0 note=57 velocity=39 time=0
note_on channel=0 note=57 velocity=0 time=120
note_on channel=0 note=73 velocity=0 time=0
note_on channel=0 note=61 velocity=0 time=0
note_on channel=0 note=66 velocity=0 time=0
note_on channel=0 note=73 velocity=55 time=0
note_on channel=0 note=66 velocity=49 time=0
note_on channel=0 note=49 velocity=40 time=0
note_on channel=0 note=52 velocity=45 time=0
note_on channel=0 note=64 velocity=0 time=45
note_on channel=0 note=64 velocity=38 time=0
note_on channel=0 note=64 velocity=0 time=118
note_on channel=0 note=64 velocity=0 time=0
note_on channel=0 note=49 velocity=0 time=1
note_on channel=0 note=64 velocity=40 time=0
note_on channel=0 note=66 velocity=41 time=0
note_on channel=0 note=72 velocity=53 time=0
note_on channel=0 note=47 velocity=40 time=0
note_on channel=0 note=47 velocity=0 time=0
note_on channel=0 note=73 velocity=0 time=0
note_on channel=0 note=73 velocity=39 time=0
note_on channel=0 note=59 velocity=34 time=0
note_on channel=0 note=59 velocity=0 time=120
note_on channel=0 note=59 velocity=33 time=0
note_on channel=0 note=59 velocity=0 time=0
note_on channel=0 note=75 velocity=0 time=0
note_on channel=0 note=52 velocity=0 time=0
note_on channel=0 note=64 velocity=59 time=0
note_on channel=0 note=71 velocity=64 time=0
note_on channel=0 note=47 velocity=33 time=0
note_on channel=0 note=56 velocity=43 time=0
note_on channel=0 note=56 velocity=0 time=0
note_on channel=0 note=47 velocity=0 time=0
note_on channel=0 note=71 velocity=0 time=0
note_on channel=0 note=64 velocity=42 time=0
note_on channel=0 note=68 velocity=50 time=0
note_on channel=0 note=56 velocity=42 time=0
note_on channel=0 note=56 velocity=0 time=120
note_on channel=0 note=64 velocity=0 time=0
note_on channel=0 note=66 velocity=0 time=0
note_on channel=0 note=58 velocity=0 time=0
note_on channel=0 note=61 velocity=0 time=0
note_on channel=0 note=68 velocity=0 time=0
note_on channel=0 note=68 velocity=43 time=0
note_on channel=0 note=63 velocity=42 time=0
note_on channel=0 note=63 velocity=0 time=49
note_on channel=0 note=68 velocity=0 time=0
note_on channel=0 note=60 velocity=49 time=0
note_on channel=0 note=56 velocity=48 time=0
note_on channel=0 note=56 velocity=0 time=0
note_on channel=0 note=61 velocity=0 time=0
note_on channel=0 note=66 velocity=0 time=0
note_on channel=0 note=68 velocity=54 time=0
note_on channel=0 note=61 velocity=44 time=0
note_on channel=0 note=50 velocity=43 time=0
note_on channel=0 note=50 velocity=0 time=57
note_on channel=0 note=62 velocity=0 time=0
note_on channel=0 note=59 velocity=50 time=0
note_on channel=0 note=53 velocity=51 time=0
note_on channel=0 note=53 velocity=0 time=0
note_on channel=0 note=59 velocity=0 time=0
note_on channel=0 note=68 velocity=0 time=0
note_on channel=0 note=65 velocity=78 time=0
note_on channel=0 note=62 velocity=77 time=0
note_on channel=0 note=47 velocity=64 time=0
note_on channel=0 note=47 velocity=0 time=35
note_on channel=0 note=56 velocity=48 time=0
note_on channel=0 note=56 velocity=0 time=0
note_on channel=0 note=65 velocity=0 time=0
note_on channel=0 note=66 velocity=62 time=0
note_on channel=0 note=51 velocity=62 time=0
note_on channel=0 note=51 velocity=0 time=51
note_on channel=0 note=63 velocity=0 time=0
note_on channel=0 note=66 velocity=49 time=0
note_on channel=0 note=54 velocity=49 time=0
note_on channel=0 note=54 velocity=0 time=0
note_on channel=0 note=66 velocity=0 time=0
note_on channel=0 note=71 velocity=70 time=0
note_on channel=0 note=63 velocity=52 time=0
note_on channel=0 note=63 velocity=0 time=0
note_on channel=0 note=51 velocity=0 time=0
note_on channel=0 note=63 velocity=46 time=0
note_on channel=0 note=54 velocity=45 time=0
note_on channel=0 note=64 velocity=0 time=0
note_on channel=0 note=76 velocity=0 time=0
note_on channel=0 note=78 velocity=69 time=0
note_on channel=0 note=52 velocity=46 time=0
note_on channel=0 note=52 velocity=0 time=0
note_on channel=0 note=55 velocity=44 time=0