note_on channel=0 note=52 velocity=0 time=113
note_on channel=0 note=67 velocity=44 time=0
note_on channel=0 note=72 velocity=42 time=0
note_on channel=0 note=74 velocity=51 time=0
note_on channel=0 note=46 velocity=37 time=0
note_on channel=0 note=53 velocity=56 time=0
note_on channel=0 note=53 velocity=0 time=0
note_on channel=0 note=46 velocity=0 time=0
note_on channel=0 note=65 velocity=0 time=0
note_on channel=0 note=74 velocity=0 time=0
note_on channel=0 note=84 velocity=50 time=0
note_on channel=0 note=72 velocity=50 time=0
note_on channel=0 note=54 velocity=41 time=0
note_on channel=0 note=58 velocity=44 time=0
note_on channel=0 note=66 velocity=53 time=0
note_on channel=0 note=66 velocity=0 time=0
note_on channel=0 note=54 velocity=0 time=0
note_on channel=0 note=70 velocity=0 time=0
note_on channel=0 note=70 velocity=59 time=0
note_on channel=0 note=58 velocity=32 time=0
note_on channel=0 note=61 velocity=34 time=0
note_on channel=0 note=63 velocity=35 time=0
note_on channel=0 note=72 velocity=0 time=0
note_on channel=0 note=75 velocity=63 time=0
note_on channel=0 note=75 velocity=0 time=0
note_on channel=0 note=63 velocity=0 time=0
note_on channel=0 note=63 velocity=0 time=0
note_on channel=0 note=56 velocity=0 time=0
note_on channel=0 note=66 velocity=0 time=0
note_on channel=0 note=68 velocity=49 time=0
note_on channel=0 note=56 velocity=32 time=0
note_on channel=0 note=56 velocity=0 time=240
note_on channel=0 note=63 velocity=31 time=0
note_on channel=0 note=63 velocity=0 time=240
note_on channel=0 note=68 velocity=0 time=0
note_on channel=0 note=66 velocity=30 time=0
note_on channel=0 note=63 velocity=26 time=0
note_on channel=0 note=63 velocity=0 time=180
note_on channel=0 note=60 velocity=24 time=0
note_on channel=0 note=75 velocity=0 time=20
note_on channel=0 note=77 velocity=45 time=0
note_on channel=0 note=77 velocity=0 time=60
note_on channel=0 note=68 velocity=0 time=0
note_on channel=0 note=65 velocity=0 time=0
note_on channel=0 note=70 velocity=0 time=0
note_on channel=0 note=84 velocity=62 time=0
note_on channel=0 note=72 velocity=35 time=0
note_on channel=0 note=60 velocity=30 time=0
note_on channel=0 note=63 velocity=30 time=0
note_on channel=0 note=63 velocity=0 time=205
note_on channel=0 note=56 velocity=0 time=0
note_on channel=0 note=63 velocity=32 time=0
note_on channel=0 note=63 velocity=0 time=120
note_on channel=0 note=80 velocity=0 time=10
note_on channel=0 note=65 velocity=37 time=0
note_on channel=0 note=56 velocity=30 time=0
note_on channel=0 note=56 velocity=0 time=60
note_on channel=0 note=65 velocity=0 time=0
note_on channel=0 note=60 velocity=37 time=0
note_on channel=0 note=60 velocity=0 time=0
note_on channel=0 note=72 velocity=70 time=0
note_on channel=0 note=77 velocity=70 time=0
note_on channel=0 note=53 velocity=40 time=0
note_on channel=0 note=53 velocity=0 time=80
note_on channel=0 note=56 velocity=33 time=0
note_on channel=0 note=56 velocity=0 time=16
note_on channel=0 note=53 velocity=38 time=0
note_on channel=0 note=53 velocity=0 time=60
note_on channel=0 note=48 velocity=45 time=0
note_on channel=0 note=48 velocity=0 time=55
note_on channel=0 note=45 velocity=42 time=0
note_on channel=0 note=74 velocity=0 time=71
note_on channel=0 note=65 velocity=0 time=0
note_on channel=0 note=74 velocity=0 time=0
note_on channel=0 note=74 velocity=51 time=0
note_on channel=0 note=74 velocity=0 time=0
note_on channel=0 note=75 velocity=52 time=0
note_on channel=0 note=75 velocity=0 time=10
note_on channel=0 note=73 velocity=54 time=0
note_on channel=0 note=73 velocity=0 time=60
note_on channel=0 note=78 velocity=51 time=0
note_on channel=0 note=78 velocity=0 time=8
note_on channel=0 note=80 velocity=52 time=0
note_on channel=0 note=80 velocity=0 time=0
note_on channel=0 note=82 velocity=47 time=0
note_on channel=0 note=50 velocity=39 time=0
note_on channel=0 note=53 velocity=39 time=0
note_on channel=0 note=56 velocity=45 time=0
note_on channel=0 note=82 velocity=0 time=14
note_on channel=0 note=80 velocity=56 time=0
note_on channel=0 note=80 velocity=0 time=60
note_on channel=0 note=84 velocity=62 time=0
note_on channel=0 note=84 velocity=0 time=60
note_on channel=0 note=82 velocity=60 time=0
note_on channel=0 note=82 velocity=0 time=0
note_on channel=0 note=77 velocity=59 time=0
note_on channel=0 note=77 velocity=0 time=60
note_on channel=0 note=80 velocity=57 time=0
note_on channel=0 note=80 velocity=0 time=60
note_on channel=0 note=80 velocity=49 time=0
note_on channel=0 note=80 velocity=0 time=60
note_on channel=0 note=56 velocity=0 time=0
note_on channel=0 note=53 velocity=0 time=0
note_on channel=0 note=80 velocity=53 time=0
note_on channel=0 note=80 velocity=0 time=60
note_on channel=0 note=77 velocity=48 time=0
note_on channel=0 note=77 velocity=0 time=0
note_on channel=0 note=68 velocity=50 time=0
note_on channel=0 note=63 velocity=53 time=0
note_on channel=0 note=72 velocity=0 time=0
note_on channel=0 note=69 velocity=48 time=0
note_on channel=0 note=69 velocity=0 time=40
note_on channel=0 note=70 velocity=52 time=0
note_on channel=0 note=70 velocity=0 time=16
note_on channel=0 note=72 velocity=51 time=0
note_on channel=0 note=72 velocity=0 time=0
note_on channel=0 note=74 velocity=47 time=0
note_on channel=0 note=74 velocity=0 time=10
note_on channel=0 note=75 velocity=45 time=0
note_on channel=0 note=75 velocity=0 time=60
note_on channel=0 note=77 velocity=45 time=0
note_on channel=0 note=77 velocity=0 time=0
note_on channel=0 note=68 velocity=0 time=0
note_on channel=0 note=72 velocity=0 time=0
note_on channel=0 note=73 velocity=47 time=0
note_on channel=0 note=74 velocity=0 time=60
note_on channel=0 note=72 velocity=44 time=0
note_on channel=0 note=72 velocity=0 time=40
note_on channel=0 note=77 velocity=40 time=0
note_on channel=0 note=77 velocity=0 time=0
note_on channel=0 note=75 velocity=49 time=0
note_on channel=0 note=65 velocity=38 time=0
note_on channel=0 note=65 velocity=0 time=0
note_on channel=0 note=74 velocity=0 time=0
note_on channel=0 note=75 velocity=44 time=0
note_on channel=0 note=70 velocity=34 time=0
note_on channel=0 note=68 velocity=0 time=0
note_on channel=0 note=74 velocity=0 time=0
note_on channel=0 note=79 velocity=0 time=0
note_on channel=0 note=70 velocity=32 time=0
note_on channel=0 note=70 velocity=0 time=0
note_on channel=0 note=82 velocity=46 time=0
note_on channel=0 note=70 velocity=39 time=0
note_on channel=0 note=70 velocity=0 time=0
note_on channel=0 note=82 velocity=0 time=0
note_on channel=0 note=77 velocity=57 time=0
note_on channel=0 note=60 velocity=37 time=0
note_on channel=0 note=60 velocity=0 time=240
note_on channel=0 note=77 velocity=0 time=0
note_on channel=0 note=77 velocity=57 time=0
note_on channel=0 note=60 velocity=38 time=0
note_on channel=0 note=60 velocity=0 time=240
note_on channel=0 note=77 velocity=0 time=0
note_on channel=0 note=75 velocity=57 time=0
note_on channel=0 note=60 velocity=40 time=0
note_on channel=0 note=60 velocity=0 time=0
note_on channel=0 note=75 velocity=0 time=0
note_on channel=0 note=77 velocity=61 time=0
note_on channel=0 note=60 velocity=38 time=0
note_on channel=0 note=75 velocity=0 time=0
note_on channel=0 note=77 velocity=52 time=0
note_on channel=0 note=68 velocity=34 time=0
note_on channel=0 note=68 velocity=0 time=240
note_on channel=0 note=77 velocity=0 time=0
note_on channel=0 note=75 velocity=57 time=0
note_on channel=0 note=61 velocity=37 time=0
note_on channel=0 note=61 velocity=0 time=480
note_on channel=0 note=74 velocity=0 time=0
note_on channel=0 note=75 velocity=53 time=0
note_on channel=0 note=57 velocity=38 time=0
note_on channel=0 note=57 velocity=0 time=0
note_on channel=0 note=75 velocity=0 time=0
note_on channel=0 note=75 velocity=54 time=0
note_on channel=0 note=48 velocity=39 time=0
note_on channel=0 note=48 velocity=0 time=240
note_on channel=0 note=75 velocity=0 time=0
note_on channel=0 note=60 velocity=40 time=0
note_on channel=0 note=60 velocity=0 time=0
note_on channel=0 note=77 velocity=58 time=0
note_on channel=0 note=57 velocity=39 time=0
note_on channel=0 note=60 velocity=43 time=0
note_on channel=0 note=77 velocity=0 time=0
note_on channel=0 note=65 velocity=42 time=0
note_on channel=0 note=65 velocity=0 time=120
note_on channel=0 note=65 velocity=42 time=0
note_on channel=0 note=65 velocity=0 time=456
note_on channel=0 note=65 velocity=38 time=0
note_on channel=0 note=65 velocity=0 time=120
note_on channel=0 note=67 velocity=38 time=0
note_on channel=0 note=67 velocity=0 time=0
note_on channel=0 note=55 velocity=0 time=0
note_on channel=0 note=71 velocity=0 time=0
note_on channel=0 note=72 velocity=56 time=0
note_on channel=0 note=52 velocity=44 time=0
note_on channel=0 note=55 velocity=44 time=0
note_on channel=0 note=55 velocity=0 time=240
note_on channel=0 note=60 velocity=0 time=0
note_on channel=0 note=60 velocity=45 time=0
note_on channel=0 note=60 velocity=0 time=240
note_on channel=0 note=72 velocity=0 time=0
note_on channel=0 note=52 velocity=52 time=0
note_on channel=0 note=52 velocity=0 time=0
note_on channel=0 note=64 velocity=45 time=0
note_on channel=0 note=64 velocity=0 time=180
note_on channel=0 note=63 velocity=38 time=0
note_on channel=0 note=63 velocity=0 time=240
note_on channel=0 note=63 velocity=40 time=0
note_on channel=0 note=63 velocity=0 time=120
note_on channel=0 note=61 velocity=43 time=0
note_on channel=0 note=61 velocity=0 time=120
note_on channel=0 note=58 velocity=41 time=0
note_on channel=0 note=58 velocity=0 time=0
note_on channel=0 note=64 velocity=64 time=0
note_on channel=0 note=61 velocity=62 time=0
note_on channel=0 note=52 velocity=45 time=0
note_on channel=0 note=55 velocity=48 time=0
note_on channel=0 note=55 velocity=0 time=120
note_on channel=0 note=52 velocity=0 time=0
note_on channel=0 note=61 velocity=0 time=0
note_on channel=0 note=58 velocity=64 time=0
note_on channel=0 note=46 velocity=44 time=0
note_on channel=0 note=48 velocity=43 time=0
note_on channel=0 note=51 velocity=44 time=0
note_on channel=0 note=51 velocity=0 time=0
note_on channel=0 note=48 velocity=0 time=0
note_on channel=0 note=57 velocity=0 time=0
note_on channel=0 note=41 velocity=0 time=0
note_on channel=0 note=48 velocity=50 time=0
note_on channel=0 note=53 velocity=62 time=0
note_on channel=0 note=57 velocity=64 time=0
note_on channel=0 note=60 velocity=59 time=0
note_on channel=0 note=41 velocity=53 time=0
note_on channel=0 note=41 velocity=0 time=240
note_on channel=0 note=41 velocity=47 time=0
note_on channel=0 note=41 velocity=0 time=0
note_on channel=0 note=53 velocity=0 time=0
note_on channel=0 note=60 velocity=0 time=0
note_on channel=0 note=41 velocity=0 time=0
note_on channel=0 note=53 velocity=39 time=0
note_on channel=0 note=57 velocity=45 time=0
note_on channel=0 note=60 velocity=53 time=0
note_on channel=0 note=36 velocity=48 time=0
note_on channel=0 note=36 velocity=0 time=240
note_on channel=0 note=55 velocity=0 time=0
note_on channel=0 note=60 velocity=0 time=0
note_on channel=0 note=36 velocity=0 time=0
note_on channel=0 note=48 velocity=51 time=0
note_on channel=0 note=60 velocity=59 time=0
note_on channel=0 note=60 velocity=51 time=0
note_on channel=0 note=64 velocity=60 time=0
note_on channel=0 note=46 velocity=52 time=0
note_on channel=0 note=46 velocity=0 time=480
note_on channel=0 note=65 velocity=0 time=0
note_on channel=0 note=60 velocity=0 time=0
note_on channel=0 note=53 velocity=0 time=0
note_on channel=0 note=36 velocity=0 time=0
note_on channel=0 note=46 velocity=57 time=0
note_on channel=0 note=46 velocity=0 time=0
note_on channel=0 note=63 velocity=47 time=0
note_on channel=0 note=67 velocity=48 time=0
note_on channel=0 note=72 velocity=55 time=0
note_on channel=0 note=48 velocity=43 time=0
note_on channel=0 note=36 velocity=43 time=0
note_on channel=0 note=36 velocity=0 time=240
note_on channel=0 note=72 velocity=0 time=0
note_on channel=0 note=64 velocity=0 time=0
note_on channel=0 note=64 velocity=0 time=0
note_on channel=0 note=55 velocity=42 time=0
note_on channel=0 note=64 velocity=41 time=0
note_on channel=0 note=67 velocity=49 time=0
note_on channel=0 note=48 velocity=0 time=120
note_on channel=0 note=48 velocity=0 time=0
note_on channel=0 note=64 velocity=0 time=0
note_on channel=0 note=72 velocity=53 time=0
note_on channel=0 note=60 velocity=43 time=0
note_on channel=0 note=72 velocity=0 time=240
note_on channel=0 note=64 velocity=39 time=0
note_on channel=0 note=64 velocity=0 time=120
note_on channel=0 note=76 velocity=46 time=0
note_on channel=0 note=76 velocity=0 time=120
note_on channel=0 note=75 velocity=46 time=0
note_on channel=0 note=76 velocity=0 time=0
note_on channel=0 note=77 velocity=53 time=0
note_on channel=0 note=67 velocity=39 time=0
note_on channel=0 note=70 velocity=39 time=0
note_on channel=0 note=76 velocity=0 time=120
note_on channel=0 note=74 velocity=45 time=0
note_on channel=0 note=76 velocity=0 time=120
note_on channel=0 note=76 velocity=47 time=0
note_on channel=0 note=76 velocity=0 time=120
note_on channel=0 note=79 velocity=43 time=0
note_on channel=0 note=79 velocity=0 time=120
note_on channel=0 note=79 velocity=43 time=0
note_on channel=0 note=79 velocity=0 time=120
note_on channel=0 note=76 velocity=42 time=0
note_on channel=0 note=76 velocity=0 time=120
note_on channel=0 note=74 velocity=42 time=0
note_on channel=0 note=74 velocity=0 time=0
note_on channel=0 note=70 velocity=41 time=0
note_on channel=0 note=70 velocity=0 time=0
note_on channel=0 note=67 velocity=0 time=0
note_on channel=0 note=64 velocity=0 time=0
note_on channel=0 note=76 velocity=48 time=0
note_on channel=0 note=58 velocity=39 time=0
note_on channel=0 note=73 velocity=0 time=120
note_on channel=0 note=76 velocity=41 time=0
note_on channel=0 note=76 velocity=0 time=0
note_on channel=0 note=67 velocity=41 time=0
note_on channel=0 note=67 velocity=0 time=0
note_on channel=0 note=67 velocity=41 time=0
note_on channel=0 note=67 velocity=0 time=0
note_on channel=0 note=76 velocity=51 time=0
note_on channel=0 note=64 velocity=0 time=68
note_on channel=0 note=76 velocity=0 time=0
note_on channel=0 note=76 velocity=43 time=0
note_on channel=0 note=64 velocity=36 time=0
note_on channel=0 note=64 velocity=0 time=120
note_on channel=0 note=76 velocity=0 time=0
note_on channel=0 note=74 velocity=44 time=0
note_on channel=0 note=64 velocity=38 time=0
note_on channel=0 note=64 velocity=0 time=0
note_on channel=0 note=76 velocity=0 time=0
note_on channel=0 note=74 velocity=53 time=0
note_on channel=0 note=60 velocity=37 time=0
note_on channel=0 note=60 velocity=0 time=0
note_on channel=0 note=76 velocity=0 time=0
note_on channel=0 note=72 velocity=57 time=0
note_on channel=0 note=60 velocity=42 time=0
note_on channel=0 note=60 velocity=0 time=40
note_on channel=0 note=72 velocity=0 time=0
note_on channel=0 note=71 velocity=44 time=0
note_on channel=0 note=55 velocity=38 time=0
note_on channel=0 note=55 velocity=0 time=353
note_on channel=0 note=71 velocity=0 time=0
note_on channel=0 note=67 velocity=42 time=0
note_on channel=0 note=55 velocity=43 time=0
note_on channel=0 note=55 velocity=0 time=0
note_on channel=0 note=67 velocity=0 time=0
note_on channel=0 note=74 velocity=54 time=0
note_on channel=0 note=55 velocity=43 time=0
note_on channel=0 note=55 velocity=0 time=120
note_on channel=0 note=74 velocity=0 time=0
note_on channel=0 note=74 velocity=53 time=0
note_on channel=0 note=58 velocity=39 time=0
note_on channel=0 note=58 velocity=0 time=0
note_on channel=0 note=75 velocity=0 time=0
note_on channel=0 note=72 velocity=51 time=0
note_on channel=0 note=51 velocity=41 time=0
note_on channel=0 note=51 velocity=0 time=57
note_on channel=0 note=50 velocity=39 time=0
note_on channel=0 note=50 velocity=0 time=120
note_on channel=0 note=74 velocity=0 time=0
note_on channel=0 note=55 velocity=45 time=0
note_on channel=0 note=55 velocity=0 time=120
note_on channel=0 note=65 velocity=46 time=0
note_on channel=0 note=65 velocity=0 time=0
note_on channel=0 note=67 velocity=51 time=0
note_on channel=0 note=74 velocity=60 time=0
note_on channel=0 note=51 velocity=50 time=0
note_on channel=0 note=51 velocity=0 time=136
note_on channel=0 note=55 velocity=39 time=0
note_on channel=0 note=55 velocity=0 time=0
note_on channel=0 note=53 velocity=45 time=0
note_on channel=0 note=53 velocity=0 time=240
note_on channel=0 note=72 velocity=0 time=0
note_on channel=0 note=67 velocity=0 time=0
note_on channel=0 note=68 velocity=47 time=0
note_on channel=0 note=68 velocity=0 time=160
note_on channel=0 note=71 velocity=43 time=0
note_on channel=0 note=71 velocity=0 time=120
note_on channel=0 note=72 velocity=48 time=0
note_on channel=0 note=72 velocity=0 time=120
note_on channel=0 note=76 velocity=47 time=0
note_on channel=0 note=75 velocity=0 time=120
note_on channel=0 note=72 velocity=47 time=0
note_on channel=0 note=72 velocity=0 time=0
note_on channel=0 note=71 velocity=51 time=0
note_on channel=0 note=71 velocity=0 time=120
note_on channel=0 note=72 velocity=54 time=0
note_on channel=0 note=51 velocity=47 time=0
note_on channel=0 note=51 velocity=0 time=0
note_on channel=0 note=72 velocity=0 time=0
note_on channel=0 note=67 velocity=41 time=0
note_on channel=0 note=75 velocity=52 time=0
note_on channel=0 note=48 velocity=40 time=0
note_on channel=0 note=48 velocity=0 time=0
note_on channel=0 note=60 velocity=0 time=0
note_on channel=0 note=72 velocity=0 time=0
note_on channel=0 note=84 velocity=66 time=0
note_on channel=0 note=68 velocity=53 time=0
note_on channel=0 note=55 velocity=37 time=0
note_on channel=0 note=55 velocity=0 time=0
note_on channel=0 note=55 velocity=36 time=0
note_on channel=0 note=72 velocity=0 time=240
note_on channel=0 note=67 velocity=49 time=0
note_on channel=0 note=67 velocity=0 time=0
note_on channel=0 note=67 velocity=0 time=0
note_on channel=0 note=67 velocity=51 time=0
note_on channel=0 note=75 velocity=51 time=0
note_on channel=0 note=60 velocity=40 time=0
note_on channel=0 note=63 velocity=48 time=0
note_on channel=0 note=60 velocity=37 time=0
note_on channel=0 note=60 velocity=0 time=0
note_on channel=0 note=72 velocity=0 time=0
note_on channel=0 note=75 velocity=0 time=0
note_on channel=0 note=60 velocity=0 time=0
note_on channel=0 note=51 velocity=52 time=0
note_on channel=0 note=51 velocity=0 time=240
note_on channel=0 note=76 velocity=51 time=0
note_on channel=0 note=75 velocity=0 time=120
note_on channel=0 note=74 velocity=51 time=0
note_on channel=0 note=74 velocity=0 time=120
note_on channel=0 note=74 velocity=48 time=0
note_on channel=0 note=74 velocity=0 time=120
note_on channel=0 note=77 velocity=53 time=0
note_on channel=0 note=77 velocity=0 time=120
note_on channel=0 note=74 velocity=46 time=0
note_on channel=0 note=74 velocity=0 time=120
note_on channel=0 note=74 velocity=50 time=0
note_on channel=0 note=56 velocity=52 time=0
note_on channel=0 note=56 velocity=0 time=0
note_on channel=0 note=74 velocity=0 time=0
note_on channel=0 note=76 velocity=49 time=0
note_on channel=0 note=60 velocity=46 time=0
note_on channel=0 note=60 velocity=0 time=160
note_on channel=0 note=75 velocity=0 time=0
note_on channel=0 note=74 velocity=53 time=0
note_on channel=0 note=63 velocity=49 time=0
note_on channel=0 note=63 velocity=0 time=0
note_on channel=0 note=74 velocity=0 time=0
note_on channel=0 note=75 velocity=54 time=0
note_on channel=0 note=60 velocity=50 time=0
note_on channel=0 note=60 velocity=0 time=240
note_on channel=0 note=75 velocity=0 time=0
note_on channel=0 note=79 velocity=53 time=0
note_on channel=0 note=79 velocity=0 time=0
note_on channel=0 note=47 velocity=41 time=0
note_on channel=0 note=47 velocity=0 time=40
note_on channel=0 note=55 velocity=42 time=0
note_on channel=0 note=55 velocity=0 time=240
note_on channel=0 note=55 velocity=42 time=0
note_on channel=0 note=55 velocity=0 time=240
note_on channel=0 note=55 velocity=45 time=0
note_on channel=0 note=55 velocity=0 time=0
note_on channel=0 note=58 velocity=43 time=0
note_on channel=0 note=58 velocity=0 time=240
note_on channel=0 note=60 velocity=44 time=0
note_on channel=0 note=63 velocity=42 time=0
note_on channel=0 note=67 velocity=53 time=0
note_on channel=0 note=67 velocity=0 time=240
note_on channel=0 note=60 velocity=0 time=0
note_on channel=0 note=63 velocity=0 time=0
note_on channel=0 note=67 velocity=51 time=0
note_on channel=0 note=67 velocity=0 time=240
note_on channel=0 note=72 velocity=66 time=0
note_on channel=0 note=75 velocity=79 time=0
note_on channel=0 note=60 velocity=64 time=0
note_on channel=0 note=56 velocity=52 time=0
note_on channel=0 note=60 velocity=50 time=0
note_on channel=0 note=68 velocity=60 time=0
note_on channel=0 note=68 velocity=0 time=0
note_on channel=0 note=60 velocity=0 time=0
note_on channel=0 note=72 velocity=0 time=0
note_on channel=0 note=63 velocity=0 time=0
note_on channel=0 note=72 velocity=0 time=0
note_on channel=0 note=76 velocity=0 time=0
note_on channel=0 note=60 velocity=0 time=0
note_on channel=0 note=65 velocity=37 time=0
note_on channel=0 note=67 velocity=39 time=0
note_on channel=0 note=72 velocity=45 time=0
note_on channel=0 note=63 velocity=43 time=0
note_on channel=0 note=60 velocity=37 time=0
note_on channel=0 note=60 velocity=0 time=0
note_on channel=0 note=63 velocity=0 time=0
note_on channel=0 note=72 velocity=0 time=0
note_on channel=0 note=60 velocity=0 time=0
note_on channel=0 note=67 velocity=39 time=0
note_on channel=0 note=72 velocity=48 time=0
note_on channel=0 note=63 velocity=39 time=0
note_on channel=0 note=63 velocity=0 time=0
note_on channel=0 note=63 velocity=38 time=0
note_on channel=0 note=60 velocity=35 time=0
note_on channel=0 note=62 velocity=0 time=0
note_on channel=0 note=56 velocity=0 time=0
note_on channel=0 note=71 velocity=0 time=0
note_on channel=0 note=74 velocity=0 time=0
note_on channel=0 note=65 velocity=0 time=0
note_on channel=0 note=67 velocity=36 time=0
note_on channel=0 note=71 velocity=43 time=0
note_on channel=0 note=65 velocity=35 time=0
note_on channel=0 note=65 velocity=0 time=226
note_on channel=0 note=68 velocity=0 time=0
note_on channel=0 note=72 velocity=0 time=0
note_on channel=0 note=55 velocity=0 time=0
note_on channel=0 note=55 velocity=37 time=0
note_on channel=0 note=59 velocity=39 time=0
note_on channel=0 note=62 velocity=49 time=0
note_on channel=0 note=43 velocity=27 time=0
note_on channel=0 note=50 velocity=35 time=0
note_on channel=0 note=50 velocity=0 time=480
note_on channel=0 note=71 velocity=0 time=0
note_on channel=0 note=65 velocity=0 time=0
note_on channel=0 note=59 velocity=0 time=0
note_on channel=0 note=47 velocity=0 time=0
note_on channel=0 note=53 velocity=37 time=0
note_on channel=0 note=55 velocity=43 time=0
note_on channel=0 note=60 velocity=42 time=0
note_on channel=0 note=63 velocity=50 time=0
note_on channel=0 note=36 velocity=30 time=0
note_on channel=0 note=48 velocity=36 time=0
note_on channel=0 note=48 velocity=0 time=0
note_on channel=0 note=55 velocity=0 time=0
note_on channel=0 note=63 velocity=0 time=0
note_on channel=0 note=36 velocity=0 time=0
note_on channel=0 note=54 velocity=42 time=0
note_on channel=0 note=57 velocity=42 time=0
note_on channel=0 note=60 velocity=50 time=0
note_on channel=0 note=63 velocity=60 time=0
note_on channel=0 note=33 velocity=30 time=0
note_on channel=0 note=45 velocity=36 time=0
note_on channel=0 note=45 velocity=0 time=0
note_on channel=0 note=57 velocity=0 time=0
note_on channel=0 note=63 velocity=0 time=0
note_on channel=0 note=60 velocity=0 time=0
note_on channel=0 note=29 velocity=0 time=0
note_on channel=0 note=60 velocity=35 time=0
note_on channel=0 note=57 velocity=33 time=0
note_on channel=0 note=60 velocity=36 time=0
note_on channel=0 note=36 velocity=20 time=0
note_on channel=0 note=48 velocity=25 time=0
note_on channel=0 note=48 velocity=0 time=240
note_on channel=0 note=63 velocity=0 time=0
note_on channel=0 note=57 velocity=0 time=0
note_on channel=0 note=60 velocity=0 time=0
note_on channel=0 note=36 velocity=0 time=0
note_on channel=0 note=60 velocity=51 time=0
note_on channel=0 note=61 velocity=0 time=0
note_on channel=0 note=61 velocity=44 time=0
note_on channel=0 note=65 velocity=50 time=0
note_on channel=0 note=49 velocity=26 time=0
note_on channel=0 note=53 velocity=27 time=0
note_on channel=0 note=56 velocity=30 time=0
note_on channel=0 note=65 velocity=0 time=0
note_on channel=0 note=65 velocity=43 time=0
note_on channel=0 note=65 velocity=0 time=0
note_on channel=0 note=61 velocity=0 time=0
note_on channel=0 note=61 velocity=0 time=0
note_on channel=0 note=61 velocity=0 time=0
note_on channel=0 note=46 velocity=0 time=0
note_on channel=0 note=58 velocity=40 time=0
note_on channel=0 note=62 velocity=45 time=0
note_on channel=0 note=62 velocity=0 time=0
note_on channel=0 note=56 velocity=27 time=0
note_on channel=0 note=61 velocity=28 time=0
note_on channel=0 note=65 velocity=33 time=0
note_on channel=0 note=49 velocity=23 time=0
note_on channel=0 note=53 velocity=26 time=0
note_on channel=0 note=53 velocity=0 time=228
note_on channel=0 note=61 velocity=0 time=0
note_on channel=0 note=65 velocity=0 time=0
note_on channel=0 note=56 velocity=0 time=0
note_on channel=0 note=37 velocity=28 time=0
note_on channel=0 note=53 velocity=38 time=0
note_on channel=0 note=49 velocity=28 time=0
note_on channel=0 note=37 velocity=22 time=0
note_on channel=0 note=37 velocity=0 time=120
note_on channel=0 note=49 velocity=0 time=0
note_on channel=0 note=53 velocity=0 time=0
note_on channel=0 note=44 velocity=0 time=0
note_on channel=0 note=51 velocity=29 time=120
note_on channel=0 note=55 velocity=35 time=0
note_on channel=0 note=46 velocity=22 time=0
note_on channel=0 note=37 velocity=22 time=0
note_on channel=0 note=39 velocity=0 time=120
note_on channel=0 note=51 velocity=0 time=0
note_on channel=0 note=58 velocity=0 time=0
note_on channel=0 note=46 velocity=0 time=0
note_on channel=0 note=51 velocity=0 time=0
note_on channel=0 note=49 velocity=29 time=0
note_on channel=0 note=51 velocity=33 time=0
note_on channel=0 note=55 velocity=38 time=0
note_on channel=0 note=45 velocity=27 time=0
note_on channel=0 note=46 velocity=0 time=228
note_on channel=0 note=51 velocity=0 time=0
note_on channel=0 note=58 velocity=0 time=0
note_on channel=0 note=44 velocity=0 time=0
note_on channel=0 note=58 velocity=44 time=0
note_on channel=0 note=58 velocity=41 time=0
note_on channel=0 note=46 velocity=48 time=0
note_on channel=0 note=46 velocity=0 time=160
note_on channel=0 note=58 velocity=0 time=0
note_on channel=0 note=55 velocity=51 time=0
note_on channel=0 note=51 velocity=35 time=0
note_on channel=0 note=51 velocity=0 time=0
note_on channel=0 note=51 velocity=42 time=0
note_on channel=0 note=51 velocity=0 time=120
note_on channel=0 note=57 velocity=0 time=0
note_on channel=0 note=58 velocity=43 time=0
note_on channel=0 note=55 velocity=0 time=0
note_on channel=0 note=56 velocity=42 time=0
note_on channel=0 note=56 velocity=0 time=0
note_on channel=0 note=56 velocity=42 time=0
note_on channel=0 note=56 velocity=0 time=0
note_on channel=0 note=63 velocity=0 time=0
note_on channel=0 note=58 velocity=57 time=0
note_on channel=0 note=60 velocity=0 time=0
note_on channel=0 note=63 velocity=62 time=0
note_on channel=0 note=48 velocity=38 time=0
note_on channel=0 note=58 velocity=55 time=0
note_on channel=0 note=58 velocity=0 time=240
note_on channel=0 note=60 velocity=48 time=0
note_on channel=0 note=63 velocity=57 time=0
note_on channel=0 note=60 velocity=57 time=0
note_on channel=0 note=60 velocity=0 time=0
note_on channel=0 note=60 velocity=54 time=0
note_on channel=0 note=60 velocity=0 time=0
note_on channel=0 note=55 velocity=0 time=0
note_on channel=0 note=63 velocity=0 time=0
note_on channel=0 note=63 velocity=54 time=0
note_on channel=0 note=72 velocity=61 time=0
note_on channel=0 note=51 velocity=54 time=0
note_on channel=0 note=48 velocity=40 time=0
note_on channel=0 note=52 velocity=39 time=0
note_on channel=0 note=63 velocity=0 time=349
note_on channel=0 note=63 velocity=59 time=0
note_on channel=0 note=63 velocity=0 time=120
note_on channel=0 note=58 velocity=0 time=0
note_on channel=0 note=51 velocity=0 time=0
note_on channel=0 note=63 velocity=0 time=0
note_on channel=0 note=63 velocity=52 time=0
note_on channel=0 note=67 velocity=60 time=0
note_on channel=0 note=70 velocity=63 time=0
note_on channel=0 note=75 velocity=72 time=0
note_on channel=0 note=46 velocity=55 time=0
note_on channel=0 note=46 velocity=0 time=0
note_on channel=0 note=63 velocity=0 time=0
note_on channel=0 note=75 velocity=0 time=0
note_on channel=0 note=63 velocity=0 time=0
note_on channel=0 note=51 velocity=63 time=0
note_on channel=0 note=51 velocity=0 time=0
note_on channel=0 note=63 velocity=59 time=0
note_on channel=0 note=63 velocity=0 time=10
note_on channel=0 note=58 velocity=55 time=0
note_on channel=0 note=58 velocity=0 time=120
note_on channel=0 note=55 velocity=58 time=0
note_on channel=0 note=55 velocity=0 time=20
note_on channel=0 note=58 velocity=59 time=0
note_on channel=0 note=58 velocity=0 time=80
note_on channel=0 note=63 velocity=57 time=0
note_on channel=0 note=63 velocity=0 time=120
note_on channel=0 note=63 velocity=58 time=0
note_on channel=0 note=63 velocity=0 time=10
note_on channel=0 note=63 velocity=55 time=0
note_on channel=0 note=63 velocity=0 time=0
note_on channel=0 note=75 velocity=71 time=0
note_on channel=0 note=63 velocity=60 time=0
note_on channel=0 note=63 velocity=0 time=120
note_on channel=0 note=75 velocity=0 time=0
note_on channel=0 note=75 velocity=70 time=0
note_on channel=0 note=63 velocity=54 time=0
note_on channel=0 note=63 velocity=0 time=120
note_on channel=0 note=75 velocity=0 time=0
note_on channel=0 note=75 velocity=71 time=0
note_on channel=0 note=58 velocity=70 time=0
note_on channel=0 note=58 velocity=0 time=120
note_on channel=0 note=75 velocity=0 time=0
note_on channel=0 note=75 velocity=71 time=0
note_on channel=0 note=55 velocity=63 time=0
note_on channel=0 note=55 velocity=0 time=120
note_on channel=0 note=75 velocity=0 time=0
note_on channel=0 note=63 velocity=55 time=0
note_on channel=0 note=63 velocity=0 time=120
note_on channel=0 note=75 velocity=70 time=0
note_on channel=0 note=63 velocity=68 time=0
note_on channel=0 note=63 velocity=0 time=23
note_on channel=0 note=75 velocity=0 time=0
note_on channel=0 note=63 velocity=75 time=0
note_on channel=0 note=50 velocity=64 time=0
note_on channel=0 note=51 velocity=0 time=87
note_on channel=0 note=63 velocity=0 time=0
note_on channel=0 note=75 velocity=65 time=0
note_on channel=0 note=75 velocity=0 time=147
note_on channel=0 note=63 velocity=71 time=0
note_on channel=0 note=51 velocity=67 time=0
note_on channel=0 note=51 velocity=0 time=177
note_on channel=0 note=67 velocity=0 time=0
note_on channel=0 note=74 velocity=60 time=0
note_on channel=0 note=74 velocity=0 time=131
note_on channel=0 note=63 velocity=67 time=0
note_on channel=0 note=53 velocity=63 time=0
note_on channel=0 note=55 velocity=62 time=0
note_on channel=0 note=58 velocity=73 time=0
note_on channel=0 note=58 velocity=0 time=8
note_on channel=0 note=55 velocity=0 time=0
note_on channel=0 note=67 velocity=0 time=0
note_on channel=0 note=46 velocity=0 time=0
note_on channel=0 note=53 velocity=0 time=0
note_on channel=0 note=63 velocity=65 time=0
note_on channel=0 note=63 velocity=0 time=66
note_on channel=0 note=75 velocity=76 time=0
note_on channel=0 note=75 velocity=0 time=0
note_on channel=0 note=77 velocity=79 time=0
note_on channel=0 note=77 velocity=0 time=120
note_on channel=0 note=75 velocity=70 time=0
note_on channel=0 note=75 velocity=0 time=0
note_on channel=0 note=74 velocity=86 time=0
note_on channel=0 note=63 velocity=70 time=0
note_on channel=0 note=63 velocity=0 time=112
note_on channel=0 note=74 velocity=0 time=0
note_on channel=0 note=79 velocity=67 time=0
note_on channel=0 note=62 velocity=63 time=0
note_on channel=0 note=62 velocity=0 time=47
note_on channel=0 note=77 velocity=0 time=0
note_on channel=0 note=74 velocity=70 time=0
note_on channel=0 note=58 velocity=65 time=0
note_on channel=0 note=58 velocity=0 time=120
note_on channel=0 note=74 velocity=0 time=0
note_on channel=0 note=72 velocity=69 time=0
note_on channel=0 note=60 velocity=60 time=0
note_on channel=0 note=60 velocity=0 time=0
note_on channel=0 note=72 velocity=0 time=0
note_on channel=0 note=71 velocity=70 time=0
note_on channel=0 note=55 velocity=57 time=0
note_on channel=0 note=55 velocity=0 time=120
note_on channel=0 note=71 velocity=0 time=0
note_on channel=0 note=75 velocity=81 time=0
note_on channel=0 note=51 velocity=65 time=0
note_on channel=0 note=51 velocity=0 time=0
note_on channel=0 note=75 velocity=0 time=0
note_on channel=0 note=73 velocity=79 time=0
note_on channel=0 note=60 velocity=66 time=0
note_on channel=0 note=60 velocity=0 time=0
note_on channel=0 note=72 velocity=0 time=0
note_on channel=0 note=70 velocity=83 time=0
note_on channel=0 note=58 velocity=70 time=0
note_on channel=0 note=58 velocity=0 time=120
note_on channel=0 note=70 velocity=0 time=0
note_on channel=0 note=68 velocity=73 time=0
note_on channel=0 note=56 velocity=63 time=0
note_on channel=0 note=56 velocity=0 time=0
note_on channel=0 note=68 velocity=0 time=0
note_on channel=0 note=68 velocity=76 time=0
note_on channel=0 note=56 velocity=62 time=0
note_on channel=0 note=56 velocity=0 time=120
note_on channel=0 note=68 velocity=0 time=0
note_on channel=0 note=65 velocity=70 time=0
note_on channel=0 note=56 velocity=65 time=0
note_on channel=0 note=56 velocity=0 time=80
note_on channel=0 note=65 velocity=0 time=0
note_on channel=0 note=62 velocity=70 time=0
note_on channel=0 note=56 velocity=62 time=0
note_on channel=0 note=56 velocity=0 time=0
note_on channel=0 note=62 velocity=0 time=0
note_on channel=0 note=67 velocity=76 time=0
note_on channel=0 note=55 velocity=70 time=0
note_on channel=0 note=55 velocity=0 time=37
note_on channel=0 note=67 velocity=0 time=0
note_on channel=0 note=63 velocity=72 time=0
note_on channel=0 note=55 velocity=75 time=0
note_on channel=0 note=55 velocity=0 time=120
note_on channel=0 note=63 velocity=0 time=0
note_on channel=0 note=62 velocity=72 time=0
note_on channel=0 note=53 velocity=62 time=0
note_on channel=0 note=53 velocity=0 time=40
note_on channel=0 note=62 velocity=0 time=0
note_on channel=0 note=63 velocity=72 time=0
note_on channel=0 note=55 velocity=60 time=0
note_on channel=0 note=55 velocity=0 time=120
note_on channel=0 note=63 velocity=0 time=0
note_on channel=0 note=63 velocity=67 time=0
note_on channel=0 note=51 velocity=61 time=0
note_on channel=0 note=51 velocity=0 time=120
note_on channel=0 note=63 velocity=0 time=0
note_on channel=0 note=62 velocity=74 time=0
note_on channel=0 note=53 velocity=62 time=0
note_on channel=0 note=53 velocity=0 time=120
note_on channel=0 note=62 velocity=0 time=0
note_on channel=0 note=63 velocity=70 time=0
note_on channel=0 note=55 velocity=62 time=0
note_on channel=0 note=55 velocity=0 time=120
note_on channel=0 note=63 velocity=0 time=0
note_on channel=0 note=62 velocity=79 time=0
note_on channel=0 note=53 velocity=62 time=0
note_on channel=0 note=53 velocity=0 time=80
note_on channel=0 note=62 velocity=0 time=0
note_on channel=0 note=63 velocity=73 time=0
note_on channel=0 note=55 velocity=71 time=0
note_on channel=0 note=55 velocity=0 time=120
note_on channel=0 note=63 velocity=0 time=0
note_on channel=0 note=62 velocity=69 time=0
note_on channel=0 note=53 velocity=62 time=0
note_on channel=0 note=53 velocity=0 time=120
note_on channel=0 note=62 velocity=0 time=0
note_on channel=0 note=63 velocity=73 time=0
note_on channel=0 note=56 velocity=63 time=0
note_on channel=0 note=56 velocity=0 time=120
note_on channel=0 note=63 velocity=0 time=0
note_on channel=0 note=60 velocity=72 time=0
note_on channel=0 note=53 velocity=71 time=0
note_on channel=0 note=53 velocity=0 time=120
note_on channel=0 note=63 velocity=0 time=0
note_on channel=0 note=60 velocity=74 time=0
note_on channel=0 note=56 velocity=60 time=0
note_on channel=0 note=56 velocity=0 time=0
note_on channel=0 note=63 velocity=0 time=0
note_on channel=0 note=62 velocity=79 time=0
note_on channel=0 note=51 velocity=49 time=0
note_on channel=0 note=55 velocity=62 time=0
note_on channel=0 note=55 velocity=0 time=120
note_on channel=0 note=58 velocity=0 time=0
note_on channel=0 note=63 velocity=0 time=0
note_on channel=0 note=46 velocity=63 time=0
note_on channel=0 note=46 velocity=0 time=120
note_on channel=0 note=46 velocity=62 time=0
note_on channel=0 note=46 velocity=0 time=120
note_on channel=0 note=44 velocity=60 time=0
note_on channel=0 note=44 velocity=0 time=120
note_on channel=0 note=44 velocity=65 time=0
note_on channel=0 note=44 velocity=0 time=120
note_on channel=0 note=48 velocity=61 time=0
note_on channel=0 note=48 velocity=0 time=0
note_on channel=0 note=48 velocity=62 time=0
note_on channel=0 note=48 velocity=0 time=120
note_on channel=0 note=67 velocity=65 time=0
note_on channel=0 note=63 velocity=55 time=0
note_on channel=0 note=55 velocity=54 time=0
note_on channel=0 note=43 velocity=62 time=0
note_on channel=0 note=41 velocity=0 time=0
note_on channel=0 note=57 velocity=0 time=0
note_on channel=0 note=69 velocity=0 time=0
note_on channel=0 note=53 velocity=0 time=0
note_on channel=0 note=41 velocity=63 time=0
note_on channel=0 note=41 velocity=0 time=0
note_on channel=0 note=34 velocity=77 time=0
note_on channel=0 note=34 velocity=0 time=120
note_on channel=0 note=46 velocity=70 time=0
note_on channel=0 note=46 velocity=0 time=120
note_on channel=0 note=46 velocity=61 time=0
note_on channel=0 note=46 velocity=0 time=120
note_on channel=0 note=67 velocity=67 time=0
note_on channel=0 note=58 velocity=60 time=0
note_on channel=0 note=55 velocity=60 time=0
note_on channel=0 note=46 velocity=66 time=0
note_on channel=0 note=46 velocity=0 time=0
note_on channel=0 note=62 velocity=0 time=0
note_on channel=0 note=50 velocity=0 time=0
note_on channel=0 note=51 velocity=0 time=0
note_on channel=0 note=74 velocity=68 time=0
note_on channel=0 note=67 velocity=67 time=0
note_on channel=0 note=58 velocity=58 time=0
note_on channel=0 note=51 velocity=59 time=0
note_on channel=0 note=55 velocity=60 time=0
note_on channel=0 note=55 velocity=0 time=120
note_on channel=0 note=67 velocity=0 time=0
note_on channel=0 note=62 velocity=0 time=0
note_on channel=0 note=53 velocity=0 time=0
note_on channel=0 note=53 velocity=0 time=0
note_on channel=0 note=51 velocity=65 time=0
note_on channel=0 note=55 velocity=70 time=0
note_on channel=0 note=58 velocity=83 time=0
note_on channel=0 note=58 velocity=0 time=120
note_on channel=0 note=51 velocity=0 time=0
note_on channel=0 note=46 velocity=0 time=0
note_on channel=0 note=53 velocity=62 time=0
note_on channel=0 note=56 velocity=0 time=120
note_on channel=0 note=60 velocity=58 time=0
note_on channel=0 note=60 velocity=0 time=120
note_on channel=0 note=58 velocity=68 time=0
note_on channel=0 note=53 velocity=62 time=0
note_on channel=0 note=53 velocity=0 time=120
note_on channel=0 note=62 velocity=0 time=0
note_on channel=0 note=58 velocity=74 time=0
note_on channel=0 note=46 velocity=60 time=0
note_on channel=0 note=46 velocity=0 time=120
note_on channel=0 note=58 velocity=0 time=0
note_on channel=0 note=57 velocity=64 time=0
note_on channel=0 note=41 velocity=60 time=0
note_on channel=0 note=41 velocity=0 time=0
note_on channel=0 note=53 velocity=0 time=0
note_on channel=0 note=52 velocity=77 time=0
note_on channel=0 note=41 velocity=64 time=0
note_on channel=0 note=41 velocity=0 time=57
note_on channel=0 note=53 velocity=0 time=0
note_on channel=0 note=57 velocity=69 time=0
note_on channel=0 note=45 velocity=63 time=0
note_on channel=0 note=45 velocity=0 time=0
note_on channel=0 note=53 velocity=0 time=0
note_on channel=0 note=55 velocity=72 time=0
note_on channel=0 note=46 velocity=59 time=0
note_on channel=0 note=46 velocity=0 time=35
note_on channel=0 note=58 velocity=0 time=0
note_on channel=0 note=53 velocity=65 time=0
note_on channel=0 note=46 velocity=60 time=0
note_on channel=0 note=46 velocity=0 time=28
note_on channel=0 note=58 velocity=0 time=0
note_on channel=0 note=46 velocity=72 time=0
note_on channel=0 note=46 velocity=0 time=0
note_on channel=0 note=58 velocity=62 time=0
note_on channel=0 note=58 velocity=0 time=120
note_on channel=0 note=51 velocity=62 time=0
note_on channel=0 note=46 velocity=63 time=0
note_on channel=0 note=46 velocity=0 time=120
note_on channel=0 note=46 velocity=62 time=0
note_on channel=0 note=46 velocity=0 time=120
note_on channel=0 note=46 velocity=65 time=0
note_on channel=0 note=46 velocity=0 time=0
note_on channel=0 note=46 velocity=62 time=0
note_on channel=0 note=46 velocity=0 time=0
note_on channel=0 note=29 velocity=70 time=0
note_on channel=0 note=29 velocity=0 time=120
note_on channel=0 note=34 velocity=62 time=0
note_on channel=0 note=34 velocity=0 time=120
note_on channel=0 note=43 velocity=66 time=0
note_on channel=0 note=43 velocity=0 time=120
note_on channel=0 note=43 velocity=62 time=0
note_on channel=0 note=43 velocity=0 time=120
note_on channel=0 note=70 velocity=71 time=0
note_on channel=0 note=65 velocity=62 time=0
note_on channel=0 note=58 velocity=57 time=0
note_on channel=0 note=46 velocity=66 time=0
note_on channel=0 note=46 velocity=0 time=120
note_on channel=0 note=62 velocity=0 time=0
note_on channel=0 note=55 velocity=0 time=0
note_on channel=0 note=50 velocity=0 time=0
note_on channel=0 note=53 velocity=66 time=0
note_on channel=0 note=53 velocity=60 time=0
note_on channel=0 note=56 velocity=0 time=120
note_on channel=0 note=50 velocity=0 time=0
note_on channel=0 note=53 velocity=63 time=0
note_on channel=0 note=53 velocity=0 time=0
note_on channel=0 note=41 velocity=73 time=0
note_on channel=0 note=72 velocity=72 time=0
note_on channel=0 note=63 velocity=63 time=0
note_on channel=0 note=63 velocity=0 time=28
note_on channel=0 note=67 velocity=0 time=0
note_on channel=0 note=79 velocity=0 time=0
note_on channel=0 note=48 velocity=0 time=0
note_on channel=0 note=65 velocity=71 time=0
note_on channel=0 note=53 velocity=71 time=0
note_on channel=0 note=46 velocity=70 time=0
note_on channel=0 note=46 velocity=0 time=120
note_on channel=0 note=58 velocity=0 time=0
note_on channel=0 note=50 velocity=0 time=0
note_on channel=0 note=65 velocity=68 time=0
note_on channel=0 note=65 velocity=0 time=0
note_on channel=0 note=55 velocity=76 time=0
note_on channel=0 note=55 velocity=0 time=120
note_on channel=0 note=70 velocity=66 time=0
note_on channel=0 note=68 velocity=62 time=0
note_on channel=0 note=62 velocity=58 time=0
note_on channel=0 note=50 velocity=68 time=0
note_on channel=0 note=50 velocity=0 time=0
note_on channel=0 note=62 velocity=0 time=0
note_on channel=0 note=53 velocity=0 time=0
note_on channel=0 note=46 velocity=65 time=0
note_on channel=0 note=46 velocity=0 time=0
note_on channel=0 note=79 velocity=70 time=0
note_on channel=0 note=68 velocity=60 time=0
note_on channel=0 note=61 velocity=66 time=0
note_on channel=0 note=46 velocity=64 time=0
note_on channel=0 note=46 velocity=0 time=120
note_on channel=0 note=77 velocity=0 time=0
note_on channel=0 note=68 velocity=0 time=0
note_on channel=0 note=65 velocity=0 time=0
note_on channel=0 note=46 velocity=67 time=0
note_on channel=0 note=46 velocity=0 time=120
note_on channel=0 note=50 velocity=62 time=0
note_on channel=0 note=50 velocity=0 time=120
note_on channel=0 note=82 velocity=72 time=0
note_on channel=0 note=68 velocity=63 time=0
note_on channel=0 note=56 velocity=66 time=0
note_on channel=0 note=46 velocity=63 time=0
note_on channel=0 note=46 velocity=0 time=120
note_on channel=0 note=50 velocity=0 time=0
note_on channel=0 note=63 velocity=0 time=0
note_on channel=0 note=79 velocity=0 time=120
note_on channel=0 note=67 velocity=63 time=0
note_on channel=0 note=59 velocity=48 time=0
note_on channel=0 note=59 velocity=0 time=120
note_on channel=0 note=65 velocity=48 time=0
note_on channel=0 note=68 velocity=45 time=0
note_on channel=0 note=74 velocity=53 time=0
note_on channel=0 note=53 velocity=49 time=0
note_on channel=0 note=53 velocity=0 time=27
note_on channel=0 note=74 velocity=0 time=0
note_on channel=0 note=65 velocity=0 time=0
note_on channel=0 note=70 velocity=0 time=0
note_on channel=0 note=50 velocity=60 time=0
note_on channel=0 note=58 velocity=61 time=0
note_on channel=0 note=46 velocity=61 time=0
note_on channel=0 note=51 velocity=63 time=0
note_on channel=0 note=51 velocity=0 time=0
note_on channel=0 note=46 velocity=0 time=0
note_on channel=0 note=46 velocity=52 time=0
note_on channel=0 note=50 velocity=51 time=0
note_on channel=0 note=53 velocity=71 time=0
note_on channel=0 note=53 velocity=0 time=0
note_on channel=0 note=46 velocity=0 time=0
note_on channel=0 note=58 velocity=0 time=0
note_on channel=0 note=65 velocity=50 time=0
note_on channel=0 note=65 velocity=0 time=120
note_on channel=0 note=60 velocity=51 time=0
note_on channel=0 note=60 velocity=0 time=120
note_on channel=0 note=57 velocity=49 time=0
note_on channel=0 note=57 velocity=0 time=0
note_on channel=0 note=63 velocity=56 time=0
note_on channel=0 note=63 velocity=0 time=120
note_on channel=0 note=60 velocity=64 time=0
note_on channel=0 note=60 velocity=0 time=0
note_on channel=0 note=70 velocity=68 time=0
note_on channel=0 note=74 velocity=80 time=0
note_on channel=0 note=74 velocity=0 time=0
note_on channel=0 note=67 velocity=0 time=0
note_on channel=0 note=46 velocity=72 time=0
note_on channel=0 note=46 velocity=0 time=0
note_on channel=0 note=74 velocity=67 time=0
note_on channel=0 note=70 velocity=61 time=0
note_on channel=0 note=48 velocity=66 time=0
note_on channel=0 note=48 velocity=0 time=42
note_on channel=0 note=72 velocity=0 time=0
note_on channel=0 note=75 velocity=64 time=0
note_on channel=0 note=46 velocity=63 time=0
note_on channel=0 note=46 velocity=0 time=120
note_on channel=0 note=75 velocity=0 time=0
note_on channel=0 note=72 velocity=62 time=0
note_on channel=0 note=51 velocity=53 time=0
note_on channel=0 note=51 velocity=0 time=80
note_on channel=0 note=72 velocity=0 time=0
note_on channel=0 note=69 velocity=67 time=0
note_on channel=0 note=53 velocity=65 time=0
note_on channel=0 note=53 velocity=0 time=49
note_on channel=0 note=69 velocity=0 time=0
note_on channel=0 note=74 velocity=66 time=0
note_on channel=0 note=46 velocity=63 time=0
note_on channel=0 note=46 velocity=0 time=57
note_on channel=0 note=74 velocity=0 time=0
note_on channel=0 note=74 velocity=66 time=0
note_on channel=0 note=50 velocity=52 time=0
note_on channel=0 note=50 velocity=0 time=0
note_on channel=0 note=74 velocity=0 time=0
note_on channel=0 note=74 velocity=62 time=0
note_on channel=0 note=50 velocity=54 time=0
note_on channel=0 note=50 velocity=0 time=40
note_on channel=0 note=74 velocity=0 time=0
note_on channel=0 note=72 velocity=67 time=0
note_on channel=0 note=55 velocity=51 time=0
note_on channel=0 note=55 velocity=0 time=80
note_on channel=0 note=72 velocity=0 time=0
note_on channel=0 note=69 velocity=65 time=0
note_on channel=0 note=53 velocity=61 time=0
note_on channel=0 note=53 velocity=0 time=80
note_on channel=0 note=69 velocity=0 time=0
note_on channel=0 note=77 velocity=67 time=0
note_on channel=0 note=46 velocity=60 time=0
note_on channel=0 note=46 velocity=0 time=0
note_on channel=0 note=77 velocity=0 time=0
note_on channel=0 note=75 velocity=66 time=0
note_on channel=0 note=48 velocity=61 time=0
note_on channel=0 note=48 velocity=0 time=120
note_on channel=0 note=75 velocity=0 time=0
note_on channel=0 note=74 velocity=66 time=0
note_on channel=0 note=46 velocity=60 time=0
note_on channel=0 note=46 velocity=0 time=120
note_on channel=0 note=74 velocity=0 time=0
note_on channel=0 note=72 velocity=68 time=0
note_on channel=0 note=48 velocity=56 time=0
note_on channel=0 note=48 velocity=0 time=0
note_on channel=0 note=72 velocity=0 time=0
note_on channel=0 note=74 velocity=69 time=0
note_on channel=0 note=44 velocity=58 time=0
note_on channel=0 note=44 velocity=0 time=40
note_on channel=0 note=74 velocity=0 time=0
note_on channel=0 note=69 velocity=66 time=0
note_on channel=0 note=48 velocity=52 time=0
note_on channel=0 note=48 velocity=0 time=0
note_on channel=0 note=69 velocity=0 time=0
note_on channel=0 note=77 velocity=81 time=0
note_on channel=0 note=41 velocity=66 time=0
note_on channel=0 note=41 velocity=0 time=15
note_on channel=0 note=77 velocity=0 time=0
note_on channel=0 note=70 velocity=62 time=0
note_on channel=0 note=50 velocity=51 time=0
note_on channel=0 note=50 velocity=0 time=0
note_on channel=0 note=70 velocity=0 time=0
note_on channel=0 note=89 velocity=89 time=0
note_on channel=0 note=37 velocity=74 time=0
note_on channel=0 note=37 velocity=0 time=63
note_on channel=0 note=87 velocity=0 time=0
note_on channel=0 note=85 velocity=78 time=0
note_on channel=0 note=46 velocity=62 time=0
note_on channel=0 note=46 velocity=0 time=20
note_on channel=0 note=85 velocity=0 time=0
note_on channel=0 note=81 velocity=71 time=0
note_on channel=0 note=45 velocity=57 time=0
note_on channel=0 note=46 velocity=0 time=0
note_on channel=0 note=82 velocity=0 time=0
note_on channel=0 note=70 velocity=75 time=0
note_on channel=0 note=34 velocity=63 time=0
note_on channel=0 note=34 velocity=0 time=0
note_on channel=0 note=73 velocity=0 time=0
note_on channel=0 note=82 velocity=86 time=0
note_on channel=0 note=34 velocity=65 time=0
note_on channel=0 note=34 velocity=0 time=84
note_on channel=0 note=82 velocity=0 time=0
note_on channel=0 note=77 velocity=81 time=0
note_on channel=0 note=46 velocity=62 time=0
note_on channel=0 note=46 velocity=0 time=120
note_on channel=0 note=77 velocity=0 time=0
note_on channel=0 note=73 velocity=80 time=0
note_on channel=0 note=46 velocity=63 time=0
note_on channel=0 note=46 velocity=0 time=0
note_on channel=0 note=73 velocity=0 time=0
note_on channel=0 note=72 velocity=80 time=0
note_on channel=0 note=41 velocity=63 time=0
note_on channel=0 note=41 velocity=0 time=0
note_on channel=0 note=72 velocity=0 time=0
note_on channel=0 note=68 velocity=69 time=0
note_on channel=0 note=41 velocity=57 time=0
note_on channel=0 note=41 velocity=0 time=0
note_on channel=0 note=68 velocity=0 time=0
note_on channel=0 note=68 velocity=78 time=0
note_on channel=0 note=41 velocity=63 time=0
note_on channel=0 note=41 velocity=0 time=0
note_on channel=0 note=69 velocity=0 time=0
note_on channel=0 note=66 velocity=73 time=0
note_on channel=0 note=37 velocity=58 time=0
note_on channel=0 note=37 velocity=0 time=0
note_on channel=0 note=69 velocity=0 time=0
note_on channel=0 note=70 velocity=77 time=0
note_on channel=0 note=37 velocity=59 time=0
note_on channel=0 note=37 velocity=0 time=80
note_on channel=0 note=70 velocity=0 time=0
note_on channel=0 note=63 velocity=78 time=0
note_on channel=0 note=37 velocity=68 time=0
note_on channel=0 note=37 velocity=0 time=0
note_on channel=0 note=68 velocity=0 time=0
note_on channel=0 note=61 velocity=0 time=0
note_on channel=0 note=65 velocity=75 time=0
note_on channel=0 note=53 velocity=64 time=0
note_on channel=0 note=37 velocity=53 time=0
note_on channel=0 note=37 velocity=0 time=63
note_on channel=0 note=49 velocity=0 time=0
note_on channel=0 note=61 velocity=0 time=0
note_on channel=0 note=65 velocity=58 time=0
note_on channel=0 note=56 velocity=54 time=0
note_on channel=0 note=41 velocity=48 time=0
note_on channel=0 note=41 velocity=0 time=41
note_on channel=0 note=56 velocity=0 time=0
note_on channel=0 note=61 velocity=0 time=0
note_on channel=0 note=66 velocity=0 time=0
note_on channel=0 note=58 velocity=56 time=120
note_on channel=0 note=63 velocity=57 time=0
note_on channel=0 note=68 velocity=67 time=0
note_on channel=0 note=44 velocity=47 time=0
note_on channel=0 note=44 velocity=0 time=120
note_on channel=0 note=66 velocity=0 time=0
note_on channel=0 note=60 velocity=0 time=0
note_on channel=0 note=60 velocity=0 time=0
note_on channel=0 note=39 velocity=0 time=0
note_on channel=0 note=58 velocity=64 time=0
note_on channel=0 note=61 velocity=60 time=0
note_on channel=0 note=67 velocity=60 time=0
note_on channel=0 note=39 velocity=46 time=0
note_on channel=0 note=51 velocity=53 time=0
note_on channel=0 note=51 velocity=0 time=110
note_on channel=0 note=63 velocity=0 time=0
note_on channel=0 note=67 velocity=0 time=0
note_on channel=0 note=67 velocity=0 time=0
note_on channel=0 note=39 velocity=0 time=0
note_on channel=0 note=60 velocity=53 time=0
note_on channel=0 note=63 velocity=54 time=0
note_on channel=0 note=68 velocity=52 time=0
note_on channel=0 note=44 velocity=47 time=0
note_on channel=0 note=44 velocity=0 time=120
note_on channel=0 note=60 velocity=0 time=0
note_on channel=0 note=63 velocity=0 time=0
note_on channel=0 note=72 velocity=0 time=0
note_on channel=0 note=60 velocity=65 time=0
note_on channel=0 note=63 velocity=70 time=0
note_on channel=0 note=67 velocity=78 time=0
note_on channel=0 note=42 velocity=51 time=0
note_on channel=0 note=51 velocity=50 time=0
note_on channel=0 note=51 velocity=0 time=120
note_on channel=0 note=63 velocity=0 time=0
note_on channel=0 note=63 velocity=0 time=0
note_on channel=0 note=67 velocity=0 time=0
note_on channel=0 note=51 velocity=0 time=0
note_on channel=0 note=62 velocity=59 time=0
note_on channel=0 note=65 velocity=68 time=0
note_on channel=0 note=62 velocity=64 time=0
note_on channel=0 note=41 velocity=49 time=0
note_on channel=0 note=53 velocity=54 time=0
note_on channel=0 note=53 velocity=0 time=120
note_on channel=0 note=65 velocity=0 time=0
note_on channel=0 note=56 velocity=0 time=0
note_on channel=0 note=61 velocity=0 time=0
note_on channel=0 note=41 velocity=0 time=0
note_on channel=0 note=58 velocity=64 time=0
note_on channel=0 note=62 velocity=66 time=0
note_on channel=0 note=65 velocity=70 time=0
note_on channel=0 note=41 velocity=54 time=0
note_on channel=0 note=50 velocity=53 time=0
note_on channel=0 note=50 velocity=0 time=110
note_on channel=0 note=55 velocity=0 time=0
note_on channel=0 note=55 velocity=0 time=0
note_on channel=0 note=39 velocity=0 time=0
note_on channel=0 note=61 velocity=0 time=0
note_on channel=0 note=63 velocity=64 time=0
note_on channel=0 note=55 velocity=51 time=0
note_on channel=0 note=55 velocity=0 time=110
note_on channel=0 note=63 velocity=0 time=0
note_on channel=0 note=61 velocity=79 time=120
note_on channel=0 note=70 velocity=88 time=0
note_on channel=0 note=39 velocity=66 time=0
note_on channel=0 note=51 velocity=78 time=0
note_on channel=0 note=51 velocity=0 time=120
note_on channel=0 note=63 velocity=0 time=0
note_on channel=0 note=67 velocity=0 time=0
note_on channel=0 note=63 velocity=0 time=0
note_on channel=0 note=39 velocity=0 time=0
note_on channel=0 note=75 velocity=92 time=360
note_on channel=0 note=79 velocity=98 time=0
note_on channel=0 note=75 velocity=82 time=0
note_on channel=0 note=82 velocity=100 time=0
note_on channel=0 note=49 velocity=97 time=0
note_on channel=0 note=58 velocity=97 time=0
note_on channel=0 note=58 velocity=0 time=120
note_on channel=0 note=82 velocity=0 time=0
note_on channel=0 note=70 velocity=0 time=0
note_on channel=0 note=65 velocity=0 time=0
note_on channel=0 note=65 velocity=53 time=0
note_on channel=0 note=67 velocity=0 time=0
note_on channel=0 note=77 velocity=74 time=0
note_on channel=0 note=77 velocity=0 time=0
note_on channel=0 note=76 velocity=75 time=0
note_on channel=0 note=75 velocity=0 time=120
note_on channel=0 note=75 velocity=71 time=0
note_on channel=0 note=75 velocity=0 time=120
note_on channel=0 note=78 velocity=70 time=0
note_on channel=0 note=78 velocity=0 time=120
note_on channel=0 note=78 velocity=63 time=0
note_on channel=0 note=78 velocity=0 time=0
note_on channel=0 note=58 velocity=77 time=0
note_on channel=0 note=58 velocity=0 time=120
note_on channel=0 note=61 velocity=69 time=0
note_on channel=0 note=61 velocity=0 time=120
note_on channel=0 note=63 velocity=71 time=0
note_on channel=0 note=63 velocity=0 time=0
note_on channel=0 note=66 velocity=71 time=0
note_on channel=0 note=66 velocity=0 time=120
note_on channel=0 note=54 velocity=86 time=0
note_on channel=0 note=54 velocity=0 time=51
note_on channel=0 note=58 velocity=71 time=0
note_on channel=0 note=58 velocity=0 time=120
note_on channel=0 note=61 velocity=70 time=0
note_on channel=0 note=61 velocity=0 time=0
note_on channel=0 note=56 velocity=75 time=0
note_on channel=0 note=56 velocity=0 time=120
note_on channel=0 note=56 velocity=63 time=0
note_on channel=0 note=56 velocity=0 time=120
note_on channel=0 note=56 velocity=69 time=0
note_on channel=0 note=56 velocity=0 time=0
note_on channel=0 note=51 velocity=0 time=0
note_on channel=0 note=61 velocity=85 time=0
note_on channel=0 note=61 velocity=0 time=120
note_on channel=0 note=58 velocity=71 time=0
note_on channel=0 note=58 velocity=0 time=120
note_on channel=0 note=53 velocity=65 time=0
note_on channel=0 note=53 velocity=0 time=0
note_on channel=0 note=51 velocity=70 time=0
note_on channel=0 note=51 velocity=0 time=120
note_on channel=0 note=58 velocity=64 time=0
note_on channel=0 note=58 velocity=0 time=120
note_on channel=0 note=47 velocity=66 time=0
note_on channel=0 note=47 velocity=0 time=120
note_on channel=0 note=53 velocity=64 time=0
note_on channel=0 note=53 velocity=0 time=120
note_on channel=0 note=51 velocity=65 time=0
note_on channel=0 note=51 velocity=0 time=0
note_on channel=0 note=51 velocity=65 time=0
note_on channel=0 note=51 velocity=0 time=40
note_on channel=0 note=44 velocity=71 time=0
note_on channel=0 note=44 velocity=0 time=120
note_on channel=0 note=49 velocity=65 time=0
note_on channel=0 note=49 velocity=0 time=120
note_on channel=0 note=51 velocity=60 time=0
note_on channel=0 note=51 velocity=0 time=0
note_on channel=0 note=56 velocity=0 time=0
note_on channel=0 note=47 velocity=77 time=0
note_on channel=0 note=47 velocity=0 time=120
note_on channel=0 note=48 velocity=62 time=0
note_on channel=0 note=48 velocity=0 time=120
note_on channel=0 note=47 velocity=65 time=0
note_on channel=0 note=47 velocity=0 time=120
note_on channel=0 note=51 velocity=65 time=0
note_on channel=0 note=51 velocity=0 time=0
note_on channel=0 note=54 velocity=67 time=0
note_on channel=0 note=54 velocity=0 time=120
note_on channel=0 note=56 velocity=67 time=0
note_on channel=0 note=56 velocity=0 time=0
note_on channel=0 note=59 velocity=74 time=0
note_on channel=0 note=59 velocity=0 time=120
note_on channel=0 note=63 velocity=67 time=0
note_on channel=0 note=63 velocity=0 time=0
note_on channel=0 note=75 velocity=85 time=0
note_on channel=0 note=74 velocity=77 time=0
note_on channel=0 note=48 velocity=60 time=0
note_on channel=0 note=48 velocity=0 time=0
note_on channel=0 note=74 velocity=0 time=0
note_on channel=0 note=67 velocity=0 time=0
note_on channel=0 note=76 velocity=83 time=0
note_on channel=0 note=86 velocity=91 time=0
note_on channel=0 note=50 velocity=65 time=0
note_on channel=0 note=50 velocity=0 time=0
note_on channel=0 note=86 velocity=0 time=0
note_on channel=0 note=74 velocity=0 time=0
note_on channel=0 note=59 velocity=73 time=0
note_on channel=0 note=74 velocity=93 time=0
note_on channel=0 note=74 velocity=0 time=43
note_on channel=0 note=62 velocity=0 time=0
note_on channel=0 note=86 velocity=92 time=0
note_on channel=0 note=74 velocity=82 time=0
note_on channel=0 note=74 velocity=0 time=240
note_on channel=0 note=89 velocity=0 time=0
note_on channel=0 note=86 velocity=99 time=0
note_on channel=0 note=74 velocity=74 time=0
note_on channel=0 note=83 velocity=82 time=0
note_on channel=0 note=86 velocity=89 time=0
note_on channel=0 note=43 velocity=68 time=0
note_on channel=0 note=59 velocity=77 time=0
note_on channel=0 note=59 velocity=0 time=720
note_on channel=0 note=86 velocity=0 time=0
note_on channel=0 note=77 velocity=0 time=0
note_on channel=0 note=43 velocity=0 time=0
note_on channel=0 note=77 velocity=0 time=0
note_on channel=0 note=87 velocity=103 time=240
note_on channel=0 note=83 velocity=80 time=0
note_on channel=0 note=86 velocity=92 time=0