note_on channel=0 note=65 velocity=55 time=0
note_on channel=0 note=41 velocity=57 time=0
note_on channel=0 note=33 velocity=70 time=0
note_on channel=0 note=45 velocity=0 time=80
note_on channel=0 note=48 velocity=79 time=0
note_on channel=0 note=31 velocity=0 time=0
note_on channel=0 note=82 velocity=0 time=0
note_on channel=0 note=79 velocity=86 time=0
note_on channel=0 note=36 velocity=67 time=0
note_on channel=0 note=76 velocity=0 time=17
note_on channel=0 note=74 velocity=64 time=0
note_on channel=0 note=55 velocity=37 time=0
note_on channel=0 note=53 velocity=0 time=5
note_on channel=0 note=82 velocity=0 time=0
note_on channel=0 note=82 velocity=0 time=0
note_on channel=0 note=77 velocity=0 time=0
note_on channel=0 note=44 velocity=0 time=0
note_on channel=0 note=49 velocity=0 time=0
note_on channel=0 note=73 velocity=62 time=0
note_on channel=0 note=86 velocity=75 time=0
note_on channel=0 note=36 velocity=70 time=0
note_on channel=0 note=83 velocity=0 time=120
note_on channel=0 note=79 velocity=84 time=0
note_on channel=0 note=77 velocity=96 time=0
note_on channel=0 note=32 velocity=68 time=0
note_on channel=0 note=46 velocity=87 time=0
note_on channel=0 note=41 velocity=65 time=0
note_on channel=0 note=46 velocity=79 time=0
note_on channel=0 note=49 velocity=0 time=47
note_on channel=0 note=49 velocity=0 time=0
note_on channel=0 note=53 velocity=69 time=0
note_on channel=0 note=37 velocity=70 time=0
note_on channel=0 note=45 velocity=56 time=0
note_on channel=0 note=59 velocity=90 time=0
note_on channel=0 note=43 velocity=82 time=0
note_on channel=0 note=44 velocity=0 time=20
note_on channel=0 note=88 velocity=0 time=0
note_on channel=0 note=87 velocity=93 time=0
note_on channel=0 note=48 velocity=74 time=0
note_on channel=0 note=60 velocity=82 time=0
note_on channel=0 note=42 velocity=0 time=19
note_on channel=0 note=86 velocity=0 time=0
note_on channel=0 note=84 velocity=83 time=0
note_on channel=0 note=43 velocity=0 time=80
note_on channel=0 note=78 velocity=0 time=0
note_on channel=0 note=83 velocity=77 time=0
note_on channel=0 note=73 velocity=0 time=93
note_on channel=0 note=89 velocity=82 time=0
note_on channel=0 note=38 velocity=64 time=0
note_on channel=0 note=37 velocity=0 time=17
note_on channel=0 note=92 velocity=0 time=0
note_on channel=0 note=74 velocity=0 time=0
note_on channel=0 note=29 velocity=0 time=0
note_on channel=0 note=84 velocity=91 time=0
note_on channel=0 note=43 velocity=0 time=70
note_on channel=0 note=49 velocity=0 time=0
note_on channel=0 note=92 velocity=0 time=0
note_on channel=0 note=51 velocity=0 time=0
note_on channel=0 note=91 velocity=0 time=0
note_on channel=0 note=34 velocity=0 time=0
note_on channel=0 note=30 velocity=0 time=0
note_on channel=0 note=80 velocity=98 time=0
note_on channel=0 note=82 velocity=77 time=120
note_on channel=0 note=89 velocity=97 time=0
note_on channel=0 note=45 velocity=58 time=0
note_on channel=0 note=40 velocity=66 time=0
note_on channel=0 note=34 velocity=73 time=0
note_on channel=0 note=49 velocity=90 time=160
note_on channel=0 note=83 velocity=0 time=120
note_on channel=0 note=84 velocity=83 time=0
note_on channel=0 note=95 velocity=87 time=0
note_on channel=0 note=70 velocity=86 time=0
note_on channel=0 note=34 velocity=65 time=0
note_on channel=0 note=33 velocity=0 time=29
note_on channel=0 note=84 velocity=0 time=0
note_on channel=0 note=82 velocity=0 time=24
note_on channel=0 note=42 velocity=82 time=0
note_on channel=0 note=41 velocity=85 time=0
note_on channel=0 note=52 velocity=79 time=0
note_on channel=0 note=42 velocity=0 time=120
note_on channel=0 note=87 velocity=0 time=40
note_on channel=0 note=37 velocity=0 time=0
note_on channel=0 note=52 velocity=0 time=0
note_on channel=0 note=38 velocity=0 time=0
note_on channel=0 note=78 velocity=89 time=0
note_on channel=0 note=92 velocity=86 time=0
note_on channel=0 note=45 velocity=74 time=0
note_on channel=0 note=41 velocity=0 time=0
note_on channel=0 note=82 velocity=0 time=0
note_on channel=0 note=86 velocity=0 time=0
note_on channel=0 note=50 velocity=0 time=0
note_on channel=0 note=86 velocity=97 time=0
note_on channel=0 note=40 velocity=64 time=0
note_on channel=0 note=52 velocity=79 time=0
note_on channel=0 note=81 velocity=0 time=40
note_on channel=0 note=87 velocity=89 time=0
note_on channel=0 note=88 velocity=83 time=0
note_on channel=0 note=45 velocity=58 time=0
note_on channel=0 note=52 velocity=93 time=0
note_on channel=0 note=57 velocity=69 time=0
note_on channel=0 note=53 velocity=98 time=0
note_on channel=0 note=54 velocity=67 time=0
note_on channel=0 note=52 velocity=53 time=0
note_on channel=0 note=50 velocity=0 time=120
note_on channel=0 note=86 velocity=0 time=0
note_on channel=0 note=84 velocity=0 time=0
note_on channel=0 note=32 velocity=0 time=0
note_on channel=0 note=49 velocity=0 time=0
note_on channel=0 note=97 velocity=93 time=0
note_on channel=0 note=45 velocity=77 time=0
note_on channel=0 note=79 velocity=0 time=99
note_on channel=0 note=99 velocity=0 time=0
note_on channel=0 note=87 velocity=83 time=0
note_on channel=0 note=32 velocity=75 time=0
note_on channel=0 note=40 velocity=60 time=80
note_on channel=0 note=48 velocity=0 time=48
note_on channel=0 note=83 velocity=0 time=0
note_on channel=0 note=94 velocity=87 time=0
note_on channel=0 note=43 velocity=67 time=0
note_on channel=0 note=49 velocity=84 time=0
note_on channel=0 note=58 velocity=0 time=120
note_on channel=0 note=31 velocity=62 time=0
note_on channel=0 note=46 velocity=64 time=0
note_on channel=0 note=42 velocity=0 time=58
note_on channel=0 note=74 velocity=0 time=0
note_on channel=0 note=89 velocity=83 time=0
note_on channel=0 note=35 velocity=64 time=0
note_on channel=0 note=29 velocity=0 time=80
note_on channel=0 note=47 velocity=0 time=0
note_on channel=0 note=43 velocity=0 time=0
note_on channel=0 note=57 velocity=0 time=0
note_on channel=0 note=81 velocity=92 time=0
note_on channel=0 note=34 velocity=78 time=0
note_on channel=0 note=29 velocity=0 time=60
note_on channel=0 note=83 velocity=0 time=0
note_on channel=0 note=87 velocity=0 time=0
note_on channel=0 note=92 velocity=97 time=0
note_on channel=0 note=32 velocity=66 time=0
note_on channel=0 note=42 velocity=73 time=48
note_on channel=0 note=31 velocity=0 time=38
note_on channel=0 note=89 velocity=0 time=0
note_on channel=0 note=47 velocity=84 time=0
note_on channel=0 note=48 velocity=0 time=45
note_on channel=0 note=80 velocity=0 time=0
note_on channel=0 note=54 velocity=0 time=280
note_on channel=0 note=91 velocity=83 time=0
note_on channel=0 note=49 velocity=80 time=0
note_on channel=0 note=44 velocity=0 time=90
note_on channel=0 note=52 velocity=0 time=0
note_on channel=0 note=82 velocity=87 time=0
note_on channel=0 note=50 velocity=66 time=0
note_on channel=0 note=39 velocity=0 time=120
note_on channel=0 note=94 velocity=0 time=0
note_on channel=0 note=79 velocity=83 time=0
note_on channel=0 note=77 velocity=102 time=0
note_on channel=0 note=86 velocity=84 time=0
note_on channel=0 note=34 velocity=57 time=0
note_on channel=0 note=36 velocity=0 time=51
note_on channel=0 note=89 velocity=0 time=0
note_on channel=0 note=76 velocity=83 time=0
note_on channel=0 note=84 velocity=77 time=120
note_on channel=0 note=46 velocity=75 time=0
note_on channel=0 note=31 velocity=0 time=31
note_on channel=0 note=80 velocity=0 time=0
note_on channel=0 note=88 velocity=80 time=0
note_on channel=0 note=34 velocity=0 time=34
note_on channel=0 note=47 velocity=0 time=0
note_on channel=0 note=37 velocity=0 time=0
note_on channel=0 note=45 velocity=0 time=0
note_on channel=0 note=36 velocity=0 time=0
note_on channel=0 note=88 velocity=75 time=0
note_on channel=0 note=97 velocity=0 time=0
note_on channel=0 note=85 velocity=0 time=0
note_on channel=0 note=83 velocity=82 time=0
note_on channel=0 note=34 velocity=69 time=0
note_on channel=0 note=32 velocity=104 time=0
note_on channel=0 note=41 velocity=100 time=0
note_on channel=0 note=31 velocity=0 time=58
note_on channel=0 note=87 velocity=0 time=0
note_on channel=0 note=87 velocity=0 time=0
note_on channel=0 note=98 velocity=93 time=0
note_on channel=0 note=91 velocity=0 time=0
note_on channel=0 note=84 velocity=83 time=0
note_on channel=0 note=50 velocity=73 time=0
note_on channel=0 note=48 velocity=0 time=0
note_on channel=0 note=89 velocity=0 time=0
note_on channel=0 note=94 velocity=77 time=0
note_on channel=0 note=49 velocity=58 time=0
note_on channel=0 note=52 velocity=0 time=0
note_on channel=0 note=80 velocity=0 time=0
note_on channel=0 note=54 velocity=0 time=0
note_on channel=0 note=83 velocity=70 time=2
note_on channel=0 note=42 velocity=0 time=0
note_on channel=0 note=36 velocity=0 time=0
note_on channel=0 note=39 velocity=0 time=0
note_on channel=0 note=78 velocity=0 time=40
note_on channel=0 note=43 velocity=0 time=0
note_on channel=0 note=35 velocity=0 time=0
note_on channel=0 note=98 velocity=0 time=0
note_on channel=0 note=30 velocity=0 time=0
note_on channel=0 note=80 velocity=91 time=0
note_on channel=0 note=42 velocity=55 time=120
note_on channel=0 note=85 velocity=0 time=96
note_on channel=0 note=70 velocity=86 time=0
note_on channel=0 note=83 velocity=83 time=0
note_on channel=0 note=41 velocity=56 time=0
note_on channel=0 note=49 velocity=0 time=0
note_on channel=0 note=46 velocity=0 time=0
note_on channel=0 note=77 velocity=0 time=0
note_on channel=0 note=89 velocity=93 time=0
note_on channel=0 note=83 velocity=90 time=0
note_on channel=0 note=35 velocity=76 time=0
note_on channel=0 note=34 velocity=75 time=0
note_on channel=0 note=53 velocity=75 time=0
note_on channel=0 note=51 velocity=77 time=0
note_on channel=0 note=43 velocity=74 time=60
note_on channel=0 note=85 velocity=0 time=42
note_on channel=0 note=75 velocity=0 time=0
note_on channel=0 note=85 velocity=0 time=0
note_on channel=0 note=82 velocity=95 time=0
note_on channel=0 note=34 velocity=70 time=0
note_on channel=0 note=38 velocity=0 time=80
note_on channel=0 note=33 velocity=0 time=0
note_on channel=0 note=47 velocity=89 time=0
note_on channel=0 note=48 velocity=0 time=120
note_on channel=0 note=35 velocity=60 time=0
note_on channel=0 note=36 velocity=0 time=51
note_on channel=0 note=35 velocity=64 time=0
note_on channel=0 note=44 velocity=0 time=40
note_on channel=0 note=80 velocity=0 time=0
note_on channel=0 note=89 velocity=0 time=0
note_on channel=0 note=35 velocity=0 time=0
note_on channel=0 note=75 velocity=85 time=0
note_on channel=0 note=49 velocity=82 time=0
note_on channel=0 note=36 velocity=67 time=0
note_on channel=0 note=31 velocity=0 time=60
note_on channel=0 note=41 velocity=0 time=0
note_on channel=0 note=83 velocity=0 time=0
note_on channel=0 note=31 velocity=0 time=0
note_on channel=0 note=84 velocity=92 time=0
note_on channel=0 note=74 velocity=79 time=0
note_on channel=0 note=48 velocity=55 time=0
note_on channel=0 note=47 velocity=77 time=0
note_on channel=0 note=79 velocity=0 time=120
note_on channel=0 note=78 velocity=96 time=0
note_on channel=0 note=49 velocity=60 time=0
note_on channel=0 note=43 velocity=0 time=59
note_on channel=0 note=87 velocity=0 time=0
note_on channel=0 note=41 velocity=0 time=0
note_on channel=0 note=87 velocity=0 time=0
note_on channel=0 note=87 velocity=0 time=0
note_on channel=0 note=88 velocity=0 time=0
note_on channel=0 note=48 velocity=0 time=0
note_on channel=0 note=41 velocity=0 time=0
note_on channel=0 note=89 velocity=95 time=0
note_on channel=0 note=37 velocity=72 time=0
note_on channel=0 note=40 velocity=91 time=0
note_on channel=0 note=30 velocity=70 time=0
note_on channel=0 note=42 velocity=0 time=20
note_on channel=0 note=87 velocity=0 time=0
note_on channel=0 note=87 velocity=0 time=0
note_on channel=0 note=98 velocity=97 time=0
note_on channel=0 note=40 velocity=73 time=0
note_on channel=0 note=43 velocity=0 time=251
note_on channel=0 note=52 velocity=57 time=0
note_on channel=0 note=43 velocity=0 time=40
note_on channel=0 note=94 velocity=0 time=0
note_on channel=0 note=85 velocity=0 time=0
note_on channel=0 note=82 velocity=88 time=0
note_on channel=0 note=41 velocity=67 time=0
note_on channel=0 note=52 velocity=99 time=0
note_on channel=0 note=77 velocity=0 time=39
note_on channel=0 note=87 velocity=83 time=0
note_on channel=0 note=37 velocity=64 time=0
note_on channel=0 note=41 velocity=93 time=0
note_on channel=0 note=44 velocity=79 time=0
note_on channel=0 note=44 velocity=74 time=0
note_on channel=0 note=44 velocity=0 time=60
note_on channel=0 note=57 velocity=86 time=0
note_on channel=0 note=83 velocity=90 time=0
note_on channel=0 note=76 velocity=78 time=0
note_on channel=0 note=33 velocity=64 time=0
note_on channel=0 note=48 velocity=58 time=120
note_on channel=0 note=43 velocity=0 time=17
note_on channel=0 note=44 velocity=0 time=0
note_on channel=0 note=83 velocity=0 time=0
note_on channel=0 note=49 velocity=0 time=0
note_on channel=0 note=46 velocity=83 time=0
note_on channel=0 note=46 velocity=103 time=0
note_on channel=0 note=41 velocity=0 time=80
note_on channel=0 note=35 velocity=65 time=0
note_on channel=0 note=43 velocity=50 time=87
note_on channel=0 note=40 velocity=0 time=12
note_on channel=0 note=84 velocity=0 time=0
note_on channel=0 note=75 velocity=0 time=0
note_on channel=0 note=39 velocity=0 time=0
note_on channel=0 note=82 velocity=0 time=0
note_on channel=0 note=74 velocity=0 time=0
note_on channel=0 note=87 velocity=45 time=0
note_on channel=0 note=37 velocity=68 time=0
note_on channel=0 note=36 velocity=0 time=80
note_on channel=0 note=82 velocity=0 time=0
note_on channel=0 note=89 velocity=93 time=0
note_on channel=0 note=97 velocity=83 time=0
note_on channel=0 note=46 velocity=62 time=0
note_on channel=0 note=47 velocity=56 time=0
note_on channel=0 note=41 velocity=70 time=0
note_on channel=0 note=46 velocity=82 time=0
note_on channel=0 note=46 velocity=0 time=40
note_on channel=0 note=41 velocity=0 time=0
note_on channel=0 note=91 velocity=0 time=0
note_on channel=0 note=83 velocity=0 time=0
note_on channel=0 note=82 velocity=0 time=0
note_on channel=0 note=38 velocity=77 time=0
note_on channel=0 note=37 velocity=72 time=0
note_on channel=0 note=43 velocity=82 time=0
note_on channel=0 note=52 velocity=0 time=73
note_on channel=0 note=49 velocity=77 time=0
note_on channel=0 note=53 velocity=0 time=0
note_on channel=0 note=53 velocity=71 time=0
note_on channel=0 note=51 velocity=0 time=120
note_on channel=0 note=78 velocity=0 time=0
note_on channel=0 note=84 velocity=0 time=0
note_on channel=0 note=83 velocity=73 time=0
note_on channel=0 note=35 velocity=66 time=0
note_on channel=0 note=55 velocity=73 time=0
note_on channel=0 note=52 velocity=0 time=120
note_on channel=0 note=49 velocity=0 time=0
note_on channel=0 note=57 velocity=68 time=0
note_on channel=0 note=42 velocity=0 time=17
note_on channel=0 note=45 velocity=0 time=0
note_on channel=0 note=43 velocity=61 time=0
note_on channel=0 note=45 velocity=0 time=77
note_on channel=0 note=81 velocity=0 time=0
note_on channel=0 note=93 velocity=0 time=0
note_on channel=0 note=87 velocity=84 time=0
note_on channel=0 note=50 velocity=58 time=0
note_on channel=0 note=85 velocity=80 time=24
note_on channel=0 note=41 velocity=72 time=0
note_on channel=0 note=42 velocity=0 time=51
note_on channel=0 note=57 velocity=0 time=0
note_on channel=0 note=88 velocity=0 time=0
note_on channel=0 note=55 velocity=0 time=0
note_on channel=0 note=55 velocity=0 time=0
note_on channel=0 note=82 velocity=86 time=0
note_on channel=0 note=39 velocity=63 time=0
note_on channel=0 note=39 velocity=0 time=0
note_on channel=0 note=80 velocity=0 time=0
note_on channel=0 note=82 velocity=0 time=0
note_on channel=0 note=83 velocity=44 time=0
note_on channel=0 note=40 velocity=0 time=0
note_on channel=0 note=38 velocity=0 time=0
note_on channel=0 note=78 velocity=88 time=0
note_on channel=0 note=32 velocity=53 time=0
note_on channel=0 note=46 velocity=88 time=20
note_on channel=0 note=81 velocity=98 time=0
note_on channel=0 note=45 velocity=72 time=0
note_on channel=0 note=42 velocity=0 time=0
note_on channel=0 note=44 velocity=70 time=0
note_on channel=0 note=42 velocity=0 time=40
note_on channel=0 note=40 velocity=64 time=0
note_on channel=0 note=36 velocity=0 time=40
note_on channel=0 note=46 velocity=72 time=0
note_on channel=0 note=43 velocity=0 time=65
note_on channel=0 note=48 velocity=67 time=0
note_on channel=0 note=41 velocity=0 time=7
note_on channel=0 note=81 velocity=0 time=0
note_on channel=0 note=83 velocity=0 time=0
note_on channel=0 note=73 velocity=0 time=0
note_on channel=0 note=86 velocity=83 time=21
note_on channel=0 note=67 velocity=79 time=0
note_on channel=0 note=39 velocity=53 time=0
note_on channel=0 note=33 velocity=0 time=80
note_on channel=0 note=40 velocity=0 time=45
note_on channel=0 note=40 velocity=0 time=0
note_on channel=0 note=55 velocity=0 time=0
note_on channel=0 note=81 velocity=0 time=24
note_on channel=0 note=83 velocity=83 time=0
note_on channel=0 note=82 velocity=105 time=0
note_on channel=0 note=80 velocity=0 time=11
note_on channel=0 note=72 velocity=0 time=0
note_on channel=0 note=41 velocity=58 time=0
note_on channel=0 note=47 velocity=70 time=0
note_on channel=0 note=36 velocity=73 time=0
note_on channel=0 note=32 velocity=0 time=80
note_on channel=0 note=88 velocity=0 time=0
note_on channel=0 note=83 velocity=82 time=0
note_on channel=0 note=79 velocity=84 time=0
note_on channel=0 note=50 velocity=65 time=0
note_on channel=0 note=74 velocity=0 time=20
note_on channel=0 note=86 velocity=85 time=0
note_on channel=0 note=38 velocity=70 time=0
note_on channel=0 note=39 velocity=0 time=20
note_on channel=0 note=81 velocity=0 time=0
note_on channel=0 note=87 velocity=0 time=0
note_on channel=0 note=87 velocity=99 time=0
note_on channel=0 note=49 velocity=70 time=0
note_on channel=0 note=55 velocity=95 time=0
note_on channel=0 note=62 velocity=91 time=0
note_on channel=0 note=33 velocity=71 time=0
note_on channel=0 note=95 velocity=0 time=120
note_on channel=0 note=83 velocity=96 time=0
note_on channel=0 note=81 velocity=0 time=40
note_on channel=0 note=92 velocity=96 time=0
note_on channel=0 note=34 velocity=65 time=0
note_on channel=0 note=42 velocity=71 time=0
note_on channel=0 note=87 velocity=0 time=0
note_on channel=0 note=84 velocity=87 time=0
note_on channel=0 note=95 velocity=80 time=0
note_on channel=0 note=88 velocity=0 time=45
note_on channel=0 note=88 velocity=86 time=40
note_on channel=0 note=60 velocity=83 time=0
note_on channel=0 note=75 velocity=0 time=48
note_on channel=0 note=68 velocity=80 time=0
note_on channel=0 note=36 velocity=0 time=80
note_on channel=0 note=43 velocity=0 time=0
note_on channel=0 note=84 velocity=93 time=0
note_on channel=0 note=79 velocity=95 time=0
note_on channel=0 note=46 velocity=0 time=0
note_on channel=0 note=94 velocity=0 time=0
note_on channel=0 note=72 velocity=0 time=0
note_on channel=0 note=44 velocity=28 time=0
note_on channel=0 note=54 velocity=55 time=0
note_on channel=0 note=56 velocity=45 time=0
note_on channel=0 note=53 velocity=0 time=253
note_on channel=0 note=81 velocity=0 time=0
note_on channel=0 note=82 velocity=0 time=0
note_on channel=0 note=99 velocity=0 time=0
note_on channel=0 note=88 velocity=0 time=0
note_on channel=0 note=51 velocity=0 time=4
note_on channel=0 note=86 velocity=82 time=0
note_on channel=0 note=37 velocity=100 time=0
note_on channel=0 note=43 velocity=0 time=117
note_on channel=0 note=37 velocity=0 time=0
note_on channel=0 note=89 velocity=0 time=0
note_on channel=0 note=82 velocity=89 time=0
note_on channel=0 note=91 velocity=0 time=0
note_on channel=0 note=87 velocity=98 time=0
note_on channel=0 note=47 velocity=60 time=0
note_on channel=0 note=40 velocity=60 time=0
note_on channel=0 note=45 velocity=0 time=120
note_on channel=0 note=52 velocity=70 time=0
note_on channel=0 note=44 velocity=60 time=0
note_on channel=0 note=44 velocity=74 time=0
note_on channel=0 note=81 velocity=0 time=480
note_on channel=0 note=82 velocity=83 time=0
note_on channel=0 note=81 velocity=68 time=0
note_on channel=0 note=32 velocity=73 time=0
note_on channel=0 note=44 velocity=0 time=40
note_on channel=0 note=89 velocity=0 time=0
note_on channel=0 note=76 velocity=91 time=0
note_on channel=0 note=80 velocity=79 time=120
note_on channel=0 note=43 velocity=77 time=0
note_on channel=0 note=43 velocity=62 time=60
note_on channel=0 note=93 velocity=0 time=40
note_on channel=0 note=71 velocity=92 time=0
note_on channel=0 note=32 velocity=65 time=0
note_on channel=0 note=58 velocity=80 time=0
note_on channel=0 note=41 velocity=0 time=174
note_on channel=0 note=89 velocity=94 time=0
note_on channel=0 note=46 velocity=0 time=0
note_on channel=0 note=84 velocity=0 time=0
note_on channel=0 note=89 velocity=72 time=0
note_on channel=0 note=70 velocity=67 time=80
note_on channel=0 note=75 velocity=87 time=0
note_on channel=0 note=41 velocity=60 time=0
note_on channel=0 note=29 velocity=69 time=0
note_on channel=0 note=35 velocity=0 time=17
note_on channel=0 note=77 velocity=0 time=0
note_on channel=0 note=84 velocity=74 time=0
note_on channel=0 note=51 velocity=68 time=0
note_on channel=0 note=55 velocity=0 time=1
note_on channel=0 note=98 velocity=0 time=0
note_on channel=0 note=86 velocity=74 time=0
note_on channel=0 note=45 velocity=83 time=0
note_on channel=0 note=47 velocity=70 time=45
note_on channel=0 note=40 velocity=0 time=97
note_on channel=0 note=38 velocity=68 time=0
note_on channel=0 note=43 velocity=66 time=120
note_on channel=0 note=47 velocity=0 time=1
note_on channel=0 note=50 velocity=66 time=0
note_on channel=0 note=71 velocity=0 time=12
note_on channel=0 note=87 velocity=77 time=0
note_on channel=0 note=57 velocity=69 time=0
note_on channel=0 note=55 velocity=0 time=0
note_on channel=0 note=72 velocity=0 time=0
note_on channel=0 note=45 velocity=0 time=0
note_on channel=0 note=47 velocity=85 time=0
note_on channel=0 note=39 velocity=60 time=0
note_on channel=0 note=29 velocity=0 time=80
note_on channel=0 note=43 velocity=65 time=0
note_on channel=0 note=88 velocity=0 time=20
note_on channel=0 note=86 velocity=94 time=0
note_on channel=0 note=75 velocity=81 time=0
note_on channel=0 note=40 velocity=0 time=48
note_on channel=0 note=43 velocity=61 time=120
note_on channel=0 note=94 velocity=0 time=17
note_on channel=0 note=89 velocity=92 time=0
note_on channel=0 note=38 velocity=62 time=0
note_on channel=0 note=35 velocity=0 time=47
note_on channel=0 note=86 velocity=0 time=0
note_on channel=0 note=85 velocity=86 time=0
note_on channel=0 note=36 velocity=78 time=0
note_on channel=0 note=40 velocity=96 time=0
note_on channel=0 note=44 velocity=98 time=0
note_on channel=0 note=42 velocity=0 time=113
note_on channel=0 note=37 velocity=71 time=0
note_on channel=0 note=50 velocity=84 time=0
note_on channel=0 note=45 velocity=84 time=0
note_on channel=0 note=32 velocity=0 time=8
note_on channel=0 note=78 velocity=0 time=0
note_on channel=0 note=79 velocity=76 time=0
note_on channel=0 note=47 velocity=74 time=0
note_on channel=0 note=42 velocity=83 time=0
note_on channel=0 note=43 velocity=0 time=80
note_on channel=0 note=33 velocity=73 time=0
note_on channel=0 note=84 velocity=0 time=59
note_on channel=0 note=82 velocity=80 time=0
note_on channel=0 note=45 velocity=70 time=0
note_on channel=0 note=42 velocity=70 time=120
note_on channel=0 note=41 velocity=0 time=0
note_on channel=0 note=87 velocity=0 time=0
note_on channel=0 note=94 velocity=0 time=0
note_on channel=0 note=96 velocity=0 time=0
note_on channel=0 note=35 velocity=62 time=0
note_on channel=0 note=43 velocity=83 time=0
note_on channel=0 note=40 velocity=0 time=113
note_on channel=0 note=79 velocity=0 time=0
note_on channel=0 note=86 velocity=0 time=0
note_on channel=0 note=48 velocity=50 time=0
note_on channel=0 note=56 velocity=0 time=80
note_on channel=0 note=38 velocity=63 time=0
note_on channel=0 note=42 velocity=59 time=60
note_on channel=0 note=44 velocity=0 time=120
note_on channel=0 note=93 velocity=0 time=0
note_on channel=0 note=91 velocity=0 time=0
note_on channel=0 note=83 velocity=84 time=0
note_on channel=0 note=29 velocity=65 time=0
note_on channel=0 note=80 velocity=0 time=4
note_on channel=0 note=34 velocity=0 time=0
note_on channel=0 note=34 velocity=0 time=0
note_on channel=0 note=83 velocity=0 time=0
note_on channel=0 note=88 velocity=83 time=0
note_on channel=0 note=84 velocity=97 time=0
note_on channel=0 note=46 velocity=86 time=0
note_on channel=0 note=29 velocity=75 time=0
note_on channel=0 note=89 velocity=0 time=120
note_on channel=0 note=80 velocity=79 time=0
note_on channel=0 note=37 velocity=61 time=0
note_on channel=0 note=38 velocity=0 time=17
note_on channel=0 note=39 velocity=74 time=0
note_on channel=0 note=34 velocity=0 time=120
note_on channel=0 note=80 velocity=0 time=0
note_on channel=0 note=87 velocity=86 time=0
note_on channel=0 note=42 velocity=69 time=0
note_on channel=0 note=48 velocity=0 time=56
note_on channel=0 note=82 velocity=0 time=0
note_on channel=0 note=87 velocity=82 time=0
note_on channel=0 note=31 velocity=67 time=0
note_on channel=0 note=30 velocity=0 time=3
note_on channel=0 note=41 velocity=68 time=0
note_on channel=0 note=81 velocity=0 time=80
note_on channel=0 note=74 velocity=0 time=0
note_on channel=0 note=60 velocity=0 time=0
note_on channel=0 note=58 velocity=0 time=0
note_on channel=0 note=44 velocity=0 time=0
note_on channel=0 note=88 velocity=91 time=0
note_on channel=0 note=74 velocity=89 time=0
note_on channel=0 note=84 velocity=93 time=120
note_on channel=0 note=85 velocity=0 time=240
note_on channel=0 note=45 velocity=69 time=0
note_on channel=0 note=30 velocity=0 time=108
note_on channel=0 note=44 velocity=0 time=0
note_on channel=0 note=40 velocity=0 time=0
note_on channel=0 note=34 velocity=0 time=0
note_on channel=0 note=86 velocity=0 time=0
note_on channel=0 note=44 velocity=0 time=0
note_on channel=0 note=43 velocity=0 time=40
note_on channel=0 note=53 velocity=59 time=0
note_on channel=0 note=84 velocity=94 time=0
note_on channel=0 note=34 velocity=72 time=0
note_on channel=0 note=40 velocity=0 time=0
note_on channel=0 note=29 velocity=64 time=0
note_on channel=0 note=43 velocity=82 time=0
note_on channel=0 note=47 velocity=89 time=0
note_on channel=0 note=40 velocity=0 time=120
note_on channel=0 note=49 velocity=0 time=0
note_on channel=0 note=43 velocity=0 time=0
note_on channel=0 note=79 velocity=70 time=0
note_on channel=0 note=72 velocity=79 time=0
note_on channel=0 note=41 velocity=71 time=0
note_on channel=0 note=46 velocity=79 time=0
note_on channel=0 note=65 velocity=70 time=80
note_on channel=0 note=36 velocity=62 time=0
note_on channel=0 note=36 velocity=74 time=0
note_on channel=0 note=63 velocity=77 time=0
note_on channel=0 note=44 velocity=0 time=0
note_on channel=0 note=54 velocity=0 time=0
note_on channel=0 note=88 velocity=89 time=0
note_on channel=0 note=61 velocity=83 time=0
note_on channel=0 note=74 velocity=81 time=0
note_on channel=0 note=80 velocity=0 time=0
note_on channel=0 note=84 velocity=82 time=0
note_on channel=0 note=94 velocity=96 time=0
note_on channel=0 note=32 velocity=92 time=0
note_on channel=0 note=42 velocity=90 time=0
note_on channel=0 note=46 velocity=0 time=248
note_on channel=0 note=70 velocity=0 time=0
note_on channel=0 note=81 velocity=85 time=0
note_on channel=0 note=35 velocity=72 time=0
note_on channel=0 note=45 velocity=76 time=0
note_on channel=0 note=83 velocity=0 time=41
note_on channel=0 note=84 velocity=83 time=0
note_on channel=0 note=82 velocity=79 time=92
note_on channel=0 note=82 velocity=84 time=0
note_on channel=0 note=76 velocity=82 time=0
note_on channel=0 note=82 velocity=91 time=0
note_on channel=0 note=82 velocity=88 time=120
note_on channel=0 note=43 velocity=61 time=0
note_on channel=0 note=85 velocity=0 time=62
note_on channel=0 note=50 velocity=61 time=0
note_on channel=0 note=45 velocity=0 time=30
note_on channel=0 note=88 velocity=0 time=0
note_on channel=0 note=89 velocity=0 time=0
note_on channel=0 note=85 velocity=84 time=0
note_on channel=0 note=37 velocity=65 time=0
note_on channel=0 note=41 velocity=80 time=0
note_on channel=0 note=46 velocity=85 time=0
note_on channel=0 note=29 velocity=73 time=0
note_on channel=0 note=42 velocity=79 time=0
note_on channel=0 note=45 velocity=93 time=0
note_on channel=0 note=79 velocity=0 time=58
note_on channel=0 note=80 velocity=92 time=0
note_on channel=0 note=35 velocity=69 time=0
note_on channel=0 note=48 velocity=56 time=228
note_on channel=0 note=33 velocity=0 time=0
note_on channel=0 note=44 velocity=0 time=0
note_on channel=0 note=42 velocity=0 time=0
note_on channel=0 note=79 velocity=0 time=0
note_on channel=0 note=76 velocity=95 time=0
note_on channel=0 note=39 velocity=73 time=0
note_on channel=0 note=39 velocity=0 time=9
note_on channel=0 note=79 velocity=0 time=0
note_on channel=0 note=89 velocity=88 time=0
note_on channel=0 note=44 velocity=0 time=9
note_on channel=0 note=86 velocity=0 time=0
note_on channel=0 note=88 velocity=92 time=0
note_on channel=0 note=89 velocity=79 time=0
note_on channel=0 note=41 velocity=79 time=0
note_on channel=0 note=45 velocity=91 time=0
note_on channel=0 note=81 velocity=0 time=74
note_on channel=0 note=88 velocity=93 time=0
note_on channel=0 note=88 velocity=0 time=40
note_on channel=0 note=52 velocity=0 time=0
note_on channel=0 note=74 velocity=84 time=0
note_on channel=0 note=29 velocity=59 time=0
note_on channel=0 note=40 velocity=77 time=0
note_on channel=0 note=47 velocity=75 time=0
note_on channel=0 note=48 velocity=67 time=0
note_on channel=0 note=59 velocity=72 time=0
note_on channel=0 note=46 velocity=68 time=0
note_on channel=0 note=50 velocity=58 time=55
note_on channel=0 note=52 velocity=0 time=120
note_on channel=0 note=84 velocity=0 time=0
note_on channel=0 note=82 velocity=0 time=0
note_on channel=0 note=34 velocity=59 time=0
note_on channel=0 note=38 velocity=0 time=20
note_on channel=0 note=47 velocity=0 time=0