note_on channel=0 note=63 velocity=36 time=0
note_on channel=0 note=67 velocity=43 time=0
note_on channel=0 note=76 velocity=68 time=0
note_on channel=0 note=74 velocity=15 time=0
note_on channel=0 note=69 velocity=47 time=0
note_on channel=0 note=74 velocity=0 time=0
note_on channel=0 note=71 velocity=79 time=0
note_on channel=0 note=67 velocity=47 time=0
note_on channel=0 note=76 velocity=0 time=0
note_on channel=0 note=54 velocity=0 time=0
note_on channel=0 note=89 velocity=0 time=0
note_on channel=0 note=49 velocity=0 time=0
note_on channel=0 note=70 velocity=57 time=0
note_on channel=0 note=51 velocity=0 time=480
note_on channel=0 note=63 velocity=62 time=0
note_on channel=0 note=70 velocity=0 time=11
note_on channel=0 note=69 velocity=51 time=0
note_on channel=0 note=61 velocity=44 time=0
note_on channel=0 note=31 velocity=43 time=0
note_on channel=0 note=63 velocity=0 time=0
note_on channel=0 note=70 velocity=0 time=0
note_on channel=0 note=58 velocity=0 time=100
note_on channel=0 note=55 velocity=48 time=0
note_on channel=0 note=68 velocity=0 time=0
note_on channel=0 note=72 velocity=68 time=0
note_on channel=0 note=56 velocity=0 time=130
note_on channel=0 note=57 velocity=33 time=0
note_on channel=0 note=52 velocity=32 time=0
note_on channel=0 note=87 velocity=0 time=0
note_on channel=0 note=63 velocity=0 time=0
note_on channel=0 note=58 velocity=0 time=0
note_on channel=0 note=89 velocity=0 time=0
note_on channel=0 note=72 velocity=62 time=0
note_on channel=0 note=81 velocity=0 time=10
note_on channel=0 note=63 velocity=0 time=0
note_on channel=0 note=63 velocity=62 time=0
note_on channel=0 note=64 velocity=74 time=0
note_on channel=0 note=83 velocity=0 time=60
note_on channel=0 note=46 velocity=74 time=0
note_on channel=0 note=65 velocity=38 time=0
note_on channel=0 note=54 velocity=0 time=0
note_on channel=0 note=51 velocity=62 time=0
note_on channel=0 note=59 velocity=45 time=0
note_on channel=0 note=66 velocity=0 time=0
note_on channel=0 note=60 velocity=34 time=0
note_on channel=0 note=50 velocity=66 time=0
note_on channel=0 note=38 velocity=80 time=0
note_on channel=0 note=43 velocity=32 time=0
note_on channel=0 note=56 velocity=45 time=0
note_on channel=0 note=42 velocity=64 time=0
note_on channel=0 note=48 velocity=38 time=0
note_on channel=0 note=51 velocity=0 time=0
note_on channel=0 note=70 velocity=50 time=0
note_on channel=0 note=68 velocity=67 time=0
note_on channel=0 note=56 velocity=34 time=0
note_on channel=0 note=64 velocity=0 time=240
note_on channel=0 note=60 velocity=44 time=0
note_on channel=0 note=55 velocity=46 time=0
note_on channel=0 note=55 velocity=0 time=20
note_on channel=0 note=75 velocity=79 time=0
note_on channel=0 note=39 velocity=31 time=0
note_on channel=0 note=74 velocity=0 time=37
note_on channel=0 note=68 velocity=63 time=0
note_on channel=0 note=64 velocity=0 time=133
note_on channel=0 note=58 velocity=0 time=0
note_on channel=0 note=75 velocity=0 time=0
note_on channel=0 note=67 velocity=67 time=0
note_on channel=0 note=43 velocity=49 time=100
note_on channel=0 note=55 velocity=0 time=120
note_on channel=0 note=50 velocity=43 time=0
note_on channel=0 note=58 velocity=0 time=0
note_on channel=0 note=48 velocity=0 time=0
note_on channel=0 note=50 velocity=56 time=0
note_on channel=0 note=79 velocity=0 time=0
note_on channel=0 note=59 velocity=0 time=0
note_on channel=0 note=63 velocity=62 time=0
note_on channel=0 note=59 velocity=39 time=10
note_on channel=0 note=51 velocity=52 time=0
note_on channel=0 note=53 velocity=0 time=240
note_on channel=0 note=59 velocity=0 time=120
note_on channel=0 note=73 velocity=43 time=0
note_on channel=0 note=57 velocity=38 time=0
note_on channel=0 note=54 velocity=0 time=80
note_on channel=0 note=46 velocity=0 time=0
note_on channel=0 note=55 velocity=0 time=0
note_on channel=0 note=62 velocity=31 time=0
note_on channel=0 note=67 velocity=45 time=0
note_on channel=0 note=54 velocity=38 time=0
note_on channel=0 note=52 velocity=32 time=0
note_on channel=0 note=56 velocity=32 time=0
note_on channel=0 note=73 velocity=28 time=0
note_on channel=0 note=60 velocity=40 time=0
note_on channel=0 note=56 velocity=0 time=120
note_on channel=0 note=63 velocity=89 time=0
note_on channel=0 note=68 velocity=53 time=120
note_on channel=0 note=58 velocity=54 time=0
note_on channel=0 note=58 velocity=34 time=0
note_on channel=0 note=45 velocity=0 time=20
note_on channel=0 note=73 velocity=61 time=0
note_on channel=0 note=65 velocity=25 time=0
note_on channel=0 note=59 velocity=48 time=0
note_on channel=0 note=67 velocity=0 time=240
note_on channel=0 note=56 velocity=0 time=1
note_on channel=0 note=33 velocity=0 time=0
note_on channel=0 note=72 velocity=53 time=0
note_on channel=0 note=67 velocity=0 time=120
note_on channel=0 note=80 velocity=59 time=0
note_on channel=0 note=77 velocity=0 time=0
note_on channel=0 note=87 velocity=0 time=0
note_on channel=0 note=58 velocity=0 time=0
note_on channel=0 note=56 velocity=77 time=0
note_on channel=0 note=47 velocity=0 time=20
note_on channel=0 note=53 velocity=0 time=0
note_on channel=0 note=69 velocity=0 time=0
note_on channel=0 note=58 velocity=37 time=0
note_on channel=0 note=67 velocity=57 time=0
note_on channel=0 note=54 velocity=74 time=0
note_on channel=0 note=79 velocity=0 time=0
note_on channel=0 note=63 velocity=0 time=0
note_on channel=0 note=72 velocity=57 time=0
note_on channel=0 note=41 velocity=48 time=0
note_on channel=0 note=77 velocity=0 time=8
note_on channel=0 note=89 velocity=0 time=19
note_on channel=0 note=75 velocity=57 time=0
note_on channel=0 note=62 velocity=27 time=0
note_on channel=0 note=85 velocity=0 time=240
note_on channel=0 note=89 velocity=97 time=0
note_on channel=0 note=75 velocity=74 time=0
note_on channel=0 note=69 velocity=52 time=0
note_on channel=0 note=63 velocity=49 time=0
note_on channel=0 note=69 velocity=0 time=120
note_on channel=0 note=73 velocity=69 time=0
note_on channel=0 note=84 velocity=0 time=52
note_on channel=0 note=74 velocity=41 time=0
note_on channel=0 note=68 velocity=73 time=0
note_on channel=0 note=79 velocity=0 time=0
note_on channel=0 note=79 velocity=55 time=0
note_on channel=0 note=70 velocity=0 time=0
note_on channel=0 note=73 velocity=0 time=0
note_on channel=0 note=55 velocity=0 time=0
note_on channel=0 note=82 velocity=0 time=0
note_on channel=0 note=39 velocity=0 time=0
note_on channel=0 note=84 velocity=80 time=0
note_on channel=0 note=96 velocity=51 time=0
note_on channel=0 note=77 velocity=0 time=120
note_on channel=0 note=57 velocity=0 time=0
note_on channel=0 note=62 velocity=0 time=0
note_on channel=0 note=88 velocity=0 time=0
note_on channel=0 note=71 velocity=58 time=0
note_on channel=0 note=74 velocity=50 time=0
note_on channel=0 note=59 velocity=63 time=0
note_on channel=0 note=53 velocity=46 time=0
note_on channel=0 note=79 velocity=70 time=0
note_on channel=0 note=72 velocity=0 time=0
note_on channel=0 note=79 velocity=0 time=0
note_on channel=0 note=70 velocity=54 time=0
note_on channel=0 note=72 velocity=27 time=0
note_on channel=0 note=74 velocity=46 time=0
note_on channel=0 note=66 velocity=59 time=0
note_on channel=0 note=74 velocity=87 time=0
note_on channel=0 note=63 velocity=0 time=120
note_on channel=0 note=65 velocity=74 time=0
note_on channel=0 note=72 velocity=0 time=0
note_on channel=0 note=78 velocity=53 time=0
note_on channel=0 note=88 velocity=56 time=0
note_on channel=0 note=79 velocity=0 time=32
note_on channel=0 note=70 velocity=57 time=0
note_on channel=0 note=49 velocity=70 time=0
note_on channel=0 note=79 velocity=83 time=0
note_on channel=0 note=89 velocity=0 time=23
note_on channel=0 note=54 velocity=53 time=0
note_on channel=0 note=57 velocity=56 time=0
note_on channel=0 note=72 velocity=73 time=0
note_on channel=0 note=77 velocity=0 time=40
note_on channel=0 note=84 velocity=31 time=0
note_on channel=0 note=79 velocity=73 time=0
note_on channel=0 note=77 velocity=50 time=0
note_on channel=0 note=58 velocity=28 time=0
note_on channel=0 note=65 velocity=73 time=0
note_on channel=0 note=66 velocity=98 time=0
note_on channel=0 note=53 velocity=70 time=0
note_on channel=0 note=58 velocity=0 time=120
note_on channel=0 note=57 velocity=83 time=0
note_on channel=0 note=58 velocity=79 time=0
note_on channel=0 note=72 velocity=57 time=0
note_on channel=0 note=34 velocity=35 time=0
note_on channel=0 note=55 velocity=0 time=120
note_on channel=0 note=77 velocity=55 time=100
note_on channel=0 note=71 velocity=38 time=0
note_on channel=0 note=63 velocity=61 time=0
note_on channel=0 note=47 velocity=33 time=0
note_on channel=0 note=53 velocity=0 time=5
note_on channel=0 note=55 velocity=31 time=0
note_on channel=0 note=51 velocity=62 time=0
note_on channel=0 note=58 velocity=0 time=80
note_on channel=0 note=53 velocity=0 time=0
note_on channel=0 note=35 velocity=0 time=0
note_on channel=0 note=97 velocity=0 time=0
note_on channel=0 note=50 velocity=0 time=0
note_on channel=0 note=70 velocity=60 time=0
note_on channel=0 note=53 velocity=34 time=0
note_on channel=0 note=61 velocity=0 time=60
note_on channel=0 note=59 velocity=72 time=0
note_on channel=0 note=55 velocity=39 time=0
note_on channel=0 note=84 velocity=0 time=120
note_on channel=0 note=80 velocity=0 time=0
note_on channel=0 note=81 velocity=51 time=0
note_on channel=0 note=76 velocity=0 time=20
note_on channel=0 note=80 velocity=39 time=0
note_on channel=0 note=63 velocity=0 time=240
note_on channel=0 note=76 velocity=47 time=0
note_on channel=0 note=75 velocity=0 time=120
note_on channel=0 note=85 velocity=50 time=0
note_on channel=0 note=76 velocity=0 time=0
note_on channel=0 note=81 velocity=39 time=0
note_on channel=0 note=78 velocity=81 time=0
note_on channel=0 note=60 velocity=49 time=0
note_on channel=0 note=72 velocity=49 time=0
note_on channel=0 note=84 velocity=83 time=0
note_on channel=0 note=82 velocity=0 time=0
note_on channel=0 note=51 velocity=0 time=0
note_on channel=0 note=64 velocity=73 time=0
note_on channel=0 note=74 velocity=0 time=80
note_on channel=0 note=32 velocity=43 time=0
note_on channel=0 note=56 velocity=0 time=29
note_on channel=0 note=76 velocity=0 time=0
note_on channel=0 note=64 velocity=0 time=0
note_on channel=0 note=79 velocity=51 time=0
note_on channel=0 note=76 velocity=0 time=0
note_on channel=0 note=67 velocity=0 time=0
note_on channel=0 note=50 velocity=0 time=0
note_on channel=0 note=84 velocity=47 time=0
note_on channel=0 note=75 velocity=79 time=100
note_on channel=0 note=71 velocity=63 time=0
note_on channel=0 note=57 velocity=26 time=0
note_on channel=0 note=59 velocity=7 time=120
note_on channel=0 note=87 velocity=78 time=0
note_on channel=0 note=63 velocity=73 time=30
note_on channel=0 note=84 velocity=0 time=0
note_on channel=0 note=75 velocity=0 time=0
note_on channel=0 note=78 velocity=55 time=0
note_on channel=0 note=67 velocity=0 time=0
note_on channel=0 note=90 velocity=75 time=0
note_on channel=0 note=57 velocity=28 time=0
note_on channel=0 note=53 velocity=46 time=0
note_on channel=0 note=64 velocity=55 time=0
note_on channel=0 note=48 velocity=62 time=0
note_on channel=0 note=51 velocity=0 time=90
note_on channel=0 note=47 velocity=36 time=0
note_on channel=0 note=53 velocity=0 time=23
note_on channel=0 note=57 velocity=0 time=100
note_on channel=0 note=56 velocity=52 time=0
note_on channel=0 note=65 velocity=0 time=0
note_on channel=0 note=54 velocity=62 time=0
note_on channel=0 note=69 velocity=0 time=0
note_on channel=0 note=81 velocity=67 time=0
note_on channel=0 note=72 velocity=0 time=39
note_on channel=0 note=62 velocity=0 time=0
note_on channel=0 note=77 velocity=39 time=0
note_on channel=0 note=50 velocity=0 time=120
note_on channel=0 note=79 velocity=58 time=0
note_on channel=0 note=77 velocity=74 time=0
note_on channel=0 note=76 velocity=0 time=0
note_on channel=0 note=86 velocity=49 time=40
note_on channel=0 note=49 velocity=43 time=0
note_on channel=0 note=65 velocity=50 time=0
note_on channel=0 note=62 velocity=0 time=120
note_on channel=0 note=78 velocity=56 time=0
note_on channel=0 note=76 velocity=49 time=0
note_on channel=0 note=88 velocity=54 time=0
note_on channel=0 note=73 velocity=70 time=0
note_on channel=0 note=72 velocity=0 time=68
note_on channel=0 note=64 velocity=0 time=40
note_on channel=0 note=84 velocity=76 time=0
note_on channel=0 note=79 velocity=101 time=0
note_on channel=0 note=77 velocity=72 time=0
note_on channel=0 note=89 velocity=0 time=0
note_on channel=0 note=86 velocity=66 time=0
note_on channel=0 note=80 velocity=0 time=0
note_on channel=0 note=73 velocity=0 time=0
note_on channel=0 note=74 velocity=29 time=0
note_on channel=0 note=70 velocity=0 time=0
note_on channel=0 note=82 velocity=38 time=0
note_on channel=0 note=77 velocity=68 time=0
note_on channel=0 note=79 velocity=50 time=0
note_on channel=0 note=77 velocity=0 time=160
note_on channel=0 note=39 velocity=0 time=0
note_on channel=0 note=84 velocity=37 time=0
note_on channel=0 note=80 velocity=51 time=0
note_on channel=0 note=52 velocity=30 time=0
note_on channel=0 note=64 velocity=76 time=114
note_on channel=0 note=55 velocity=53 time=0
note_on channel=0 note=87 velocity=67 time=0
note_on channel=0 note=60 velocity=62 time=0
note_on channel=0 note=67 velocity=35 time=0
note_on channel=0 note=53 velocity=62 time=0
note_on channel=0 note=56 velocity=0 time=180
note_on channel=0 note=64 velocity=0 time=0
note_on channel=0 note=74 velocity=56 time=0
note_on channel=0 note=66 velocity=79 time=0
note_on channel=0 note=64 velocity=73 time=0
note_on channel=0 note=75 velocity=60 time=120
note_on channel=0 note=74 velocity=0 time=0
note_on channel=0 note=75 velocity=0 time=0
note_on channel=0 note=75 velocity=70 time=0
note_on channel=0 note=58 velocity=35 time=0
note_on channel=0 note=87 velocity=0 time=20
note_on channel=0 note=72 velocity=0 time=0
note_on channel=0 note=87 velocity=59 time=0
note_on channel=0 note=87 velocity=70 time=0
note_on channel=0 note=87 velocity=72 time=0
note_on channel=0 note=67 velocity=0 time=44
note_on channel=0 note=67 velocity=78 time=0
note_on channel=0 note=82 velocity=0 time=120
note_on channel=0 note=89 velocity=37 time=0
note_on channel=0 note=72 velocity=0 time=40
note_on channel=0 note=65 velocity=0 time=0
note_on channel=0 note=53 velocity=0 time=0
note_on channel=0 note=79 velocity=60 time=0
note_on channel=0 note=53 velocity=62 time=0
note_on channel=0 note=55 velocity=0 time=0
note_on channel=0 note=73 velocity=52 time=0
note_on channel=0 note=69 velocity=62 time=0
note_on channel=0 note=79 velocity=0 time=0
note_on channel=0 note=74 velocity=0 time=0
note_on channel=0 note=76 velocity=66 time=0
note_on channel=0 note=72 velocity=26 time=0
note_on channel=0 note=70 velocity=47 time=0
note_on channel=0 note=62 velocity=53 time=0
note_on channel=0 note=79 velocity=66 time=0
note_on channel=0 note=53 velocity=49 time=0
note_on channel=0 note=58 velocity=0 time=0
note_on channel=0 note=56 velocity=73 time=0
note_on channel=0 note=90 velocity=0 time=120
note_on channel=0 note=69 velocity=35 time=0
note_on channel=0 note=71 velocity=68 time=0
note_on channel=0 note=74 velocity=0 time=120
note_on channel=0 note=72 velocity=51 time=0
note_on channel=0 note=76 velocity=0 time=0
note_on channel=0 note=62 velocity=0 time=0
note_on channel=0 note=79 velocity=84 time=0
note_on channel=0 note=59 velocity=58 time=0
note_on channel=0 note=55 velocity=60 time=0
note_on channel=0 note=52 velocity=53 time=0
note_on channel=0 note=60 velocity=0 time=0
note_on channel=0 note=62 velocity=74 time=0
note_on channel=0 note=78 velocity=0 time=0
note_on channel=0 note=51 velocity=89 time=0
note_on channel=0 note=53 velocity=0 time=240
note_on channel=0 note=74 velocity=0 time=0
note_on channel=0 note=78 velocity=67 time=0
note_on channel=0 note=72 velocity=42 time=0
note_on channel=0 note=72 velocity=70 time=0
note_on channel=0 note=77 velocity=0 time=0
note_on channel=0 note=50 velocity=0 time=0
note_on channel=0 note=82 velocity=0 time=2
note_on channel=0 note=81 velocity=0 time=73
note_on channel=0 note=85 velocity=0 time=0
note_on channel=0 note=70 velocity=54 time=0
note_on channel=0 note=37 velocity=27 time=0
note_on channel=0 note=71 velocity=56 time=0
note_on channel=0 note=61 velocity=49 time=0
note_on channel=0 note=87 velocity=83 time=0
note_on channel=0 note=83 velocity=73 time=0
note_on channel=0 note=71 velocity=73 time=0
note_on channel=0 note=55 velocity=0 time=0
note_on channel=0 note=81 velocity=67 time=0
note_on channel=0 note=71 velocity=70 time=0
note_on channel=0 note=89 velocity=38 time=0
note_on channel=0 note=82 velocity=0 time=0
note_on channel=0 note=53 velocity=0 time=0
note_on channel=0 note=46 velocity=0 time=0
note_on channel=0 note=82 velocity=60 time=0
note_on channel=0 note=81 velocity=50 time=10
note_on channel=0 note=64 velocity=0 time=120
note_on channel=0 note=74 velocity=53 time=0
note_on channel=0 note=86 velocity=48 time=0
note_on channel=0 note=89 velocity=78 time=0
note_on channel=0 note=58 velocity=48 time=0
note_on channel=0 note=65 velocity=0 time=0
note_on channel=0 note=76 velocity=81 time=0
note_on channel=0 note=57 velocity=36 time=0
note_on channel=0 note=54 velocity=50 time=0
note_on channel=0 note=37 velocity=33 time=0
note_on channel=0 note=56 velocity=0 time=120
note_on channel=0 note=87 velocity=101 time=0
note_on channel=0 note=69 velocity=0 time=0
note_on channel=0 note=84 velocity=49 time=0
note_on channel=0 note=77 velocity=0 time=0
note_on channel=0 note=89 velocity=0 time=0
note_on channel=0 note=84 velocity=0 time=0
note_on channel=0 note=89 velocity=25 time=100
note_on channel=0 note=73 velocity=35 time=0
note_on channel=0 note=74 velocity=0 time=37
note_on channel=0 note=75 velocity=0 time=0
note_on channel=0 note=88 velocity=31 time=0
note_on channel=0 note=72 velocity=63 time=0
note_on channel=0 note=60 velocity=50 time=0
note_on channel=0 note=59 velocity=49 time=56
note_on channel=0 note=84 velocity=98 time=0
note_on channel=0 note=73 velocity=78 time=0
note_on channel=0 note=62 velocity=39 time=0
note_on channel=0 note=47 velocity=32 time=0
note_on channel=0 note=52 velocity=0 time=240
note_on channel=0 note=73 velocity=52 time=0
note_on channel=0 note=72 velocity=0 time=0
note_on channel=0 note=75 velocity=35 time=0
note_on channel=0 note=84 velocity=78 time=0
note_on channel=0 note=43 velocity=66 time=0
note_on channel=0 note=79 velocity=0 time=22
note_on channel=0 note=79 velocity=0 time=0
note_on channel=0 note=39 velocity=60 time=0
note_on channel=0 note=49 velocity=54 time=0
note_on channel=0 note=29 velocity=61 time=0
note_on channel=0 note=70 velocity=89 time=0
note_on channel=0 note=59 velocity=29 time=0
note_on channel=0 note=67 velocity=0 time=120
note_on channel=0 note=54 velocity=67 time=0
note_on channel=0 note=68 velocity=0 time=113
note_on channel=0 note=61 velocity=0 time=0
note_on channel=0 note=71 velocity=0 time=0
note_on channel=0 note=74 velocity=57 time=0
note_on channel=0 note=80 velocity=69 time=0
note_on channel=0 note=62 velocity=0 time=0
note_on channel=0 note=89 velocity=73 time=0
note_on channel=0 note=73 velocity=65 time=0
note_on channel=0 note=58 velocity=73 time=0
note_on channel=0 note=61 velocity=28 time=0
note_on channel=0 note=64 velocity=74 time=0
note_on channel=0 note=50 velocity=67 time=0
note_on channel=0 note=94 velocity=0 time=28
note_on channel=0 note=56 velocity=0 time=0
note_on channel=0 note=88 velocity=50 time=0
note_on channel=0 note=69 velocity=55 time=0
note_on channel=0 note=44 velocity=34 time=0
note_on channel=0 note=52 velocity=38 time=0
note_on channel=0 note=58 velocity=0 time=0
note_on channel=0 note=77 velocity=0 time=0
note_on channel=0 note=31 velocity=0 time=0
note_on channel=0 note=87 velocity=0 time=0
note_on channel=0 note=68 velocity=0 time=0
note_on channel=0 note=63 velocity=88 time=0
note_on channel=0 note=43 velocity=29 time=20
note_on channel=0 note=53 velocity=53 time=0
note_on channel=0 note=56 velocity=50 time=0
note_on channel=0 note=64 velocity=77 time=0
note_on channel=0 note=52 velocity=51 time=0
note_on channel=0 note=59 velocity=0 time=240
note_on channel=0 note=60 velocity=63 time=0
note_on channel=0 note=60 velocity=0 time=0
note_on channel=0 note=64 velocity=0 time=0
note_on channel=0 note=72 velocity=73 time=0
note_on channel=0 note=78 velocity=0 time=0
note_on channel=0 note=63 velocity=0 time=0
note_on channel=0 note=43 velocity=0 time=0
note_on channel=0 note=60 velocity=0 time=0
note_on channel=0 note=65 velocity=35 time=0
note_on channel=0 note=62 velocity=29 time=0
note_on channel=0 note=61 velocity=0 time=113
note_on channel=0 note=65 velocity=0 time=0
note_on channel=0 note=58 velocity=50 time=0
note_on channel=0 note=75 velocity=0 time=20
note_on channel=0 note=69 velocity=37 time=0
note_on channel=0 note=47 velocity=38 time=0
note_on channel=0 note=57 velocity=29 time=0
note_on channel=0 note=57 velocity=0 time=120
note_on channel=0 note=58 velocity=48 time=0
note_on channel=0 note=67 velocity=0 time=0
note_on channel=0 note=75 velocity=69 time=0
note_on channel=0 note=65 velocity=68 time=0
note_on channel=0 note=50 velocity=18 time=1
note_on channel=0 note=83 velocity=0 time=20
note_on channel=0 note=76 velocity=52 time=0
note_on channel=0 note=60 velocity=60 time=0
note_on channel=0 note=77 velocity=0 time=0
note_on channel=0 note=96 velocity=70 time=0
note_on channel=0 note=8 velocity=0 time=80
note_on channel=0 note=68 velocity=70 time=0
note_on channel=0 note=67 velocity=0 time=0
note_on channel=0 note=62 velocity=0 time=0
note_on channel=0 note=77 velocity=73 time=0
note_on channel=0 note=82 velocity=85 time=0
note_on channel=0 note=52 velocity=46 time=0
note_on channel=0 note=72 velocity=0 time=0
note_on channel=0 note=74 velocity=34 time=100
note_on channel=0 note=74 velocity=49 time=0
note_on channel=0 note=73 velocity=32 time=0
note_on channel=0 note=73 velocity=40 time=0
note_on channel=0 note=70 velocity=0 time=0
note_on channel=0 note=63 velocity=0 time=0
note_on channel=0 note=72 velocity=0 time=0
note_on channel=0 note=76 velocity=0 time=0
note_on channel=0 note=59 velocity=0 time=0
note_on channel=0 note=79 velocity=62 time=0
note_on channel=0 note=84 velocity=54 time=0
note_on channel=0 note=97 velocity=0 time=0
note_on channel=0 note=60 velocity=75 time=0
note_on channel=0 note=40 velocity=0 time=0
note_on channel=0 note=58 velocity=28 time=0
note_on channel=0 note=75 velocity=83 time=1
note_on channel=0 note=59 velocity=68 time=0
note_on channel=0 note=77 velocity=0 time=120
note_on channel=0 note=74 velocity=36 time=0
note_on channel=0 note=79 velocity=0 time=0
note_on channel=0 note=78 velocity=0 time=0
note_on channel=0 note=74 velocity=65 time=0
note_on channel=0 note=68 velocity=67 time=0
note_on channel=0 note=79 velocity=59 time=0
note_on channel=0 note=83 velocity=88 time=0
note_on channel=0 note=51 velocity=65 time=0
note_on channel=0 note=80 velocity=0 time=0
note_on channel=0 note=78 velocity=0 time=0
note_on channel=0 note=88 velocity=40 time=0
note_on channel=0 note=76 velocity=0 time=80
note_on channel=0 note=87 velocity=71 time=0
note_on channel=0 note=72 velocity=70 time=0
note_on channel=0 note=99 velocity=0 time=8
note_on channel=0 note=75 velocity=90 time=0
note_on channel=0 note=79 velocity=0 time=0
note_on channel=0 note=60 velocity=0 time=0
note_on channel=0 note=79 velocity=70 time=0
note_on channel=0 note=63 velocity=40 time=0
note_on channel=0 note=68 velocity=48 time=0
note_on channel=0 note=86 velocity=0 time=60
note_on channel=0 note=77 velocity=67 time=0
note_on channel=0 note=79 velocity=55 time=0
note_on channel=0 note=71 velocity=0 time=0
note_on channel=0 note=80 velocity=57 time=0
note_on channel=0 note=63 velocity=68 time=0
note_on channel=0 note=75 velocity=0 time=0
note_on channel=0 note=88 velocity=84 time=0
note_on channel=0 note=84 velocity=37 time=0
note_on channel=0 note=77 velocity=73 time=0
note_on channel=0 note=84 velocity=0 time=0
note_on channel=0 note=82 velocity=0 time=0
note_on channel=0 note=79 velocity=0 time=0
note_on channel=0 note=75 velocity=39 time=0
note_on channel=0 note=69 velocity=55 time=0
note_on channel=0 note=82 velocity=0 time=120
note_on channel=0 note=75 velocity=67 time=0
note_on channel=0 note=66 velocity=0 time=34
note_on channel=0 note=84 velocity=35 time=0
note_on channel=0 note=80 velocity=30 time=0
note_on channel=0 note=84 velocity=0 time=80
note_on channel=0 note=82 velocity=0 time=120
note_on channel=0 note=79 velocity=64 time=0
note_on channel=0 note=81 velocity=0 time=21
note_on channel=0 note=70 velocity=74 time=0
note_on channel=0 note=64 velocity=33 time=0
note_on channel=0 note=84 velocity=0 time=120
note_on channel=0 note=89 velocity=84 time=0
note_on channel=0 note=76 velocity=0 time=120
note_on channel=0 note=79 velocity=30 time=0
note_on channel=0 note=79 velocity=45 time=0
note_on channel=0 note=76 velocity=0 time=120
note_on channel=0 note=64 velocity=0 time=0
note_on channel=0 note=75 velocity=66 time=0
note_on channel=0 note=52 velocity=79 time=0
note_on channel=0 note=46 velocity=55 time=0
note_on channel=0 note=72 velocity=0 time=0
note_on channel=0 note=76 velocity=71 time=0
note_on channel=0 note=76 velocity=54 time=0
note_on channel=0 note=36 velocity=38 time=0
note_on channel=0 note=67 velocity=70 time=0
note_on channel=0 note=36 velocity=30 time=0
note_on channel=0 note=53 velocity=26 time=0
note_on channel=0 note=72 velocity=0 time=0
note_on channel=0 note=57 velocity=0 time=0
note_on channel=0 note=68 velocity=59 time=0
note_on channel=0 note=76 velocity=0 time=120
note_on channel=0 note=78 velocity=41 time=0
note_on channel=0 note=39 velocity=0 time=0
note_on channel=0 note=75 velocity=0 time=0
note_on channel=0 note=48 velocity=0 time=0
note_on channel=0 note=79 velocity=50 time=0
note_on channel=0 note=47 velocity=0 time=0
note_on channel=0 note=63 velocity=0 time=60
note_on channel=0 note=75 velocity=67 time=0
note_on channel=0 note=67 velocity=67 time=0
note_on channel=0 note=41 velocity=73 time=0
note_on channel=0 note=85 velocity=0 time=120
note_on channel=0 note=71 velocity=41 time=0
note_on channel=0 note=62 velocity=0 time=21
note_on channel=0 note=73 velocity=0 time=0
note_on channel=0 note=76 velocity=79 time=0
note_on channel=0 note=81 velocity=55 time=0
note_on channel=0 note=49 velocity=28 time=0
note_on channel=0 note=40 velocity=0 time=120
note_on channel=0 note=79 velocity=77 time=0
note_on channel=0 note=75 velocity=0 time=116
note_on channel=0 note=79 velocity=72 time=0
note_on channel=0 note=85 velocity=0 time=24
note_on channel=0 note=75 velocity=0 time=0
note_on channel=0 note=90 velocity=50 time=0
note_on channel=0 note=55 velocity=62 time=0
note_on channel=0 note=49 velocity=67 time=0
note_on channel=0 note=49 velocity=0 time=120
note_on channel=0 note=86 velocity=0 time=0
note_on channel=0 note=80 velocity=38 time=0
note_on channel=0 note=48 velocity=66 time=0
note_on channel=0 note=76 velocity=86 time=0
note_on channel=0 note=82 velocity=0 time=0
note_on channel=0 note=72 velocity=0 time=0
note_on channel=0 note=76 velocity=53 time=0
note_on channel=0 note=87 velocity=77 time=0
note_on channel=0 note=82 velocity=0 time=0
note_on channel=0 note=79 velocity=62 time=0
note_on channel=0 note=78 velocity=0 time=24
note_on channel=0 note=73 velocity=49 time=0
note_on channel=0 note=60 velocity=46 time=0
note_on channel=0 note=73 velocity=53 time=20
note_on channel=0 note=64 velocity=62 time=0
note_on channel=0 note=89 velocity=35 time=0
note_on channel=0 note=85 velocity=73 time=0
note_on channel=0 note=71 velocity=62 time=0
note_on channel=0 note=63 velocity=44 time=0
note_on channel=0 note=76 velocity=0 time=15
note_on channel=0 note=74 velocity=0 time=0
note_on channel=0 note=67 velocity=77 time=0
note_on channel=0 note=79 velocity=67 time=0
note_on channel=0 note=83 velocity=87 time=0
note_on channel=0 note=60 velocity=63 time=0
note_on channel=0 note=53 velocity=53 time=0
note_on channel=0 note=78 velocity=40 time=0
note_on channel=0 note=70 velocity=0 time=28
note_on channel=0 note=80 velocity=67 time=0
note_on channel=0 note=54 velocity=43 time=0
note_on channel=0 note=76 velocity=0 time=60
note_on channel=0 note=65 velocity=0 time=0
note_on channel=0 note=71 velocity=55 time=0
note_on channel=0 note=62 velocity=50 time=0
note_on channel=0 note=62 velocity=57 time=0
note_on channel=0 note=66 velocity=39 time=0
note_on channel=0 note=75 velocity=0 time=0
note_on channel=0 note=87 velocity=94 time=0
note_on channel=0 note=55 velocity=81 time=0
note_on channel=0 note=52 velocity=80 time=1
note_on channel=0 note=73 velocity=0 time=230
note_on channel=0 note=72 velocity=0 time=0
note_on channel=0 note=52 velocity=0 time=0
note_on channel=0 note=83 velocity=39 time=0
note_on channel=0 note=57 velocity=54 time=0
note_on channel=0 note=60 velocity=0 time=163
note_on channel=0 note=87 velocity=0 time=0
note_on channel=0 note=83 velocity=70 time=0
note_on channel=0 note=57 velocity=62 time=0
note_on channel=0 note=37 velocity=41 time=0
note_on channel=0 note=50 velocity=62 time=0
note_on channel=0 note=37 velocity=78 time=0
note_on channel=0 note=72 velocity=55 time=0
note_on channel=0 note=71 velocity=52 time=0
note_on channel=0 note=72 velocity=66 time=0
note_on channel=0 note=51 velocity=73 time=0
note_on channel=0 note=52 velocity=0 time=29
note_on channel=0 note=43 velocity=0 time=0
note_on channel=0 note=58 velocity=70 time=0
note_on channel=0 note=51 velocity=0 time=40
note_on channel=0 note=75 velocity=0 time=0
note_on channel=0 note=72 velocity=89 time=30
note_on channel=0 note=71 velocity=34 time=0
note_on channel=0 note=47 velocity=33 time=0
note_on channel=0 note=41 velocity=0 time=60
note_on channel=0 note=82 velocity=0 time=0
note_on channel=0 note=73 velocity=59 time=0
note_on channel=0 note=62 velocity=36 time=0
note_on channel=0 note=54 velocity=0 time=0
note_on channel=0 note=51 velocity=0 time=0
