note_on channel=7 note=70 velocity=93 time=0
note_on channel=8 note=53 velocity=90 time=0
note_on channel=8 note=56 velocity=127 time=0
note_on channel=9 note=35 velocity=116 time=0
note_on channel=9 note=42 velocity=98 time=0
note_on channel=10 note=46 velocity=118 time=8
note_on channel=6 note=48 velocity=127 time=3
note_on channel=6 note=53 velocity=106 time=0
note_off channel=9 note=35 velocity=0 time=17
note_off channel=5 note=62 velocity=0 time=18
note_off channel=7 note=60 velocity=0 time=2
note_off channel=7 note=72 velocity=0 time=7
note_off channel=6 note=44 velocity=0 time=7
note_off channel=3 note=84 velocity=0 time=23
note_off channel=1 note=34 velocity=0 time=108
note_off channel=10 note=46 velocity=0 time=8
note_on channel=1 note=32 velocity=113 time=13
note_on channel=7 note=63 velocity=127 time=0
note_on channel=7 note=72 velocity=120 time=0
note_on channel=7 note=63 velocity=111 time=0
note_on channel=7 note=74 velocity=0 time=0
note_off channel=1 note=34 velocity=0 time=53
note_off channel=10 note=44 velocity=0 time=8
note_on channel=1 note=32 velocity=113 time=13
note_on channel=7 note=65 velocity=102 time=0
note_on channel=4 note=70 velocity=83 time=0
note_on channel=7 note=65 velocity=102 time=0
note_on channel=7 note=70 velocity=89 time=0
note_on channel=7 note=60 velocity=110 time=0
note_on channel=7 note=74 velocity=88 time=0
note_on channel=8 note=46 velocity=111 time=0
note_on channel=9 note=36 velocity=116 time=0
note_on channel=9 note=42 velocity=98 time=0
note_on channel=10 note=46 velocity=113 time=8
note_on channel=6 note=44 velocity=123 time=3
note_on channel=6 note=53 velocity=127 time=0
note_off channel=9 note=35 velocity=0 time=17
note_off channel=1 note=32 velocity=0 time=105
note_off channel=8 note=48 velocity=0 time=12
note_off channel=10 note=44 velocity=0 time=6
note_off channel=8 note=53 velocity=0 time=8
note_off channel=7 note=74 velocity=0 time=7
note_off channel=8 note=53 velocity=0 time=4
note_off channel=6 note=48 velocity=0 time=30
note_off channel=6 note=55 velocity=0 time=7
note_off channel=6 note=44 velocity=0 time=6
note_off channel=8 note=51 velocity=0 time=14
note_off channel=6 note=51 velocity=0 time=7
note_off channel=6 note=44 velocity=0 time=29
note_on channel=4 note=63 velocity=123 time=40
note_on channel=4 note=63 velocity=123 time=0
note_on channel=4 note=70 velocity=102 time=0
note_on channel=7 note=72 velocity=127 time=0
note_on channel=7 note=75 velocity=125 time=0
note_off channel=7 note=63 velocity=0 time=5
note_off channel=6 note=44 velocity=0 time=42
note_off channel=8 note=51 velocity=0 time=5
note_off channel=8 note=51 velocity=0 time=1
note_off channel=6 note=46 velocity=0 time=1
note_off channel=8 note=65 velocity=0 time=7
note_off channel=8 note=58 velocity=0 time=17
note_off channel=8 note=58 velocity=0 time=7
note_off channel=6 note=46 velocity=0 time=8
note_off channel=1 note=34 velocity=0 time=125
note_off channel=10 note=44 velocity=0 time=8
note_on channel=1 note=34 velocity=113 time=91
note_on channel=7 note=46 velocity=115 time=0
note_on channel=7 note=60 velocity=125 time=0
note_on channel=7 note=60 velocity=120 time=0
note_on channel=8 note=51 velocity=111 time=0
note_on channel=8 note=53 velocity=110 time=0
note_on channel=8 note=58 velocity=113 time=0
note_on channel=9 note=32 velocity=116 time=0
note_on channel=9 note=42 velocity=98 time=0
note_on channel=9 note=54 velocity=116 time=0
note_on channel=10 note=44 velocity=113 time=8
note_on channel=6 note=46 velocity=123 time=3
note_on channel=6 note=55 velocity=125 time=0
pitchwheel channel=3 pitch=5030 time=12
pitchwheel channel=3 pitch=-6192 time=10
pitchwheel channel=3 pitch=1960 time=10
pitchwheel channel=3 pitch=0 time=13
note_off channel=9 note=35 velocity=0 time=14
note_off channel=9 note=44 velocity=0 time=7
note_off channel=9 note=40 velocity=0 time=13
note_off channel=9 note=40 velocity=0 time=0
note_off channel=9 note=40 velocity=0 time=56
note_off channel=6 note=46 velocity=0 time=17
note_off channel=8 note=50 velocity=0 time=3
note_off channel=8 note=51 velocity=0 time=10
note_off channel=8 note=58 velocity=0 time=12
note_off channel=10 note=48 velocity=0 time=6
pitchwheel channel=3 pitch=1690 time=2
pitchwheel channel=3 pitch=0 time=7
note_off channel=3 note=80 velocity=0 time=40
pitchwheel channel=3 pitch=3770 time=9
note_on channel=1 note=31 velocity=78 time=6
note_on channel=8 note=43 velocity=102 time=0
note_on channel=9 note=35 velocity=95 time=0
note_on channel=9 note=40 velocity=95 time=0
note_on channel=9 note=40 velocity=95 time=0
note_on channel=9 note=43 velocity=98 time=0
note_on channel=10 note=43 velocity=100 time=0
note_on channel=8 note=51 velocity=91 time=11
note_on channel=10 note=53 velocity=51 time=0
note_off channel=3 note=72 velocity=0 time=19
note_off channel=1 note=31 velocity=0 time=56
note_off channel=10 note=43 velocity=0 time=0
note_on channel=1 note=31 velocity=113 time=9
note_off channel=8 note=46 velocity=0 time=18
note_off channel=10 note=43 velocity=0 time=3
note_on channel=1 note=31 velocity=113 time=21
note_on channel=8 note=43 velocity=110 time=0
note_on channel=9 note=40 velocity=49 time=0
note_on channel=9 note=43 velocity=49 time=0
note_on channel=10 note=46 velocity=70 time=0
note_on channel=8 note=50 velocity=91 time=11
pitchwheel channel=3 pitch=1560 time=2
pitchwheel channel=3 pitch=3470 time=5
pitchwheel channel=3 pitch=3020 time=10
note_off channel=4 note=72 velocity=0 time=4
note_off channel=1 note=34 velocity=0 time=40
note_on channel=1 note=34 velocity=73 time=21
note_on channel=8 note=43 velocity=102 time=0
note_on channel=9 note=40 velocity=98 time=0
note_on channel=9 note=40 velocity=95 time=0
note_on channel=9 note=43 velocity=49 time=0
note_on channel=10 note=48 velocity=70 time=0
note_on channel=8 note=50 velocity=91 time=11
note_on channel=10 note=50 velocity=57 time=0
note_off channel=8 note=53 velocity=0 time=13
note_off channel=10 note=51 velocity=0 time=0
pitchwheel channel=3 pitch=260 time=6
note_on channel=1 note=31 velocity=113 time=0
note_on channel=8 note=46 velocity=111 time=0
note_on channel=9 note=40 velocity=95 time=0
note_on channel=9 note=40 velocity=98 time=0
note_on channel=9 note=40 velocity=98 time=0
note_on channel=9 note=43 velocity=49 time=0
note_on channel=10 note=43 velocity=81 time=0
note_on channel=8 note=50 velocity=106 time=11
note_on channel=10 note=50 velocity=50 time=0
note_off channel=3 note=72 velocity=0 time=38
note_off channel=8 note=43 velocity=0 time=3
note_off channel=10 note=43 velocity=0 time=0
pitchwheel channel=3 pitch=4940 time=3
note_off channel=8 note=55 velocity=0 time=4
note_off channel=7 note=35 velocity=0 time=0
note_off channel=6 note=51 velocity=0 time=12
note_off channel=6 note=46 velocity=0 time=0
note_off channel=8 note=55 velocity=0 time=2
note_off channel=7 note=63 velocity=0 time=2
note_off channel=7 note=74 velocity=0 time=9
note_off channel=6 note=53 velocity=0 time=5
note_off channel=7 note=72 velocity=0 time=2
note_off channel=7 note=72 velocity=0 time=7
note_off channel=6 note=44 velocity=0 time=1
note_off channel=3 note=82 velocity=0 time=19
note_off channel=9 note=51 velocity=0 time=99
note_off channel=7 note=32 velocity=0 time=5
note_off channel=7 note=65 velocity=0 time=3
note_off channel=6 note=55 velocity=0 time=8
note_off channel=6 note=44 velocity=0 time=52
note_off channel=9 note=51 velocity=0 time=20
note_off channel=9 note=35 velocity=0 time=12
note_off channel=7 note=72 velocity=0 time=4
note_off channel=7 note=62 velocity=0 time=3
note_off channel=8 note=56 velocity=0 time=3
note_off channel=6 note=46 velocity=0 time=6
note_off channel=7 note=75 velocity=0 time=58
note_off channel=6 note=46 velocity=0 time=1
note_off channel=8 note=60 velocity=0 time=20
note_off channel=3 note=75 velocity=0 time=52
note_off channel=1 note=32 velocity=0 time=30
note_off channel=4 note=63 velocity=0 time=0
note_off channel=4 note=67 velocity=0 time=2
note_off channel=4 note=70 velocity=0 time=0
note_on channel=1 note=32 velocity=118 time=6
note_on channel=7 note=65 velocity=74 time=0
note_on channel=4 note=70 velocity=116 time=0
note_on channel=8 note=51 velocity=127 time=0
note_on channel=8 note=51 velocity=115 time=0
note_on channel=8 note=56 velocity=123 time=0
note_on channel=9 note=39 velocity=85 time=0
note_on channel=9 note=40 velocity=116 time=0
note_on channel=9 note=53 velocity=116 time=0
note_on channel=9 note=42 velocity=98 time=0
note_on channel=10 note=46 velocity=113 time=8
note_on channel=6 note=46 velocity=116 time=3
note_on channel=6 note=53 velocity=125 time=0
note_off channel=4 note=67 velocity=0 time=31
note_off channel=4 note=70 velocity=0 time=0
note_off channel=1 note=32 velocity=0 time=126
note_off channel=10 note=46 velocity=0 time=8
note_on channel=1 note=32 velocity=118 time=1
note_on channel=7 note=63 velocity=116 time=0
note_on channel=4 note=72 velocity=116 time=0
note_on channel=8 note=43 velocity=120 time=0
note_on channel=9 note=35 velocity=116 time=0
note_off channel=9 note=35 velocity=0 time=11
note_off channel=9 note=42 velocity=0 time=0
note_off channel=7 note=75 velocity=0 time=1
note_off channel=7 note=75 velocity=0 time=9
note_off channel=4 note=63 velocity=0 time=55
note_off channel=4 note=67 velocity=0 time=1
note_off channel=4 note=70 velocity=0 time=0
note_off channel=10 note=44 velocity=0 time=7
note_on channel=1 note=32 velocity=113 time=0
note_on channel=6 note=48 velocity=125 time=3
note_on channel=6 note=53 velocity=120 time=0
note_off channel=9 note=39 velocity=0 time=17
note_off channel=7 note=72 velocity=0 time=16
note_off channel=8 note=51 velocity=0 time=8
note_off channel=6 note=48 velocity=0 time=3
note_off channel=8 note=55 velocity=0 time=0
note_off channel=6 note=53 velocity=0 time=0
note_off channel=8 note=53 velocity=0 time=11
note_off channel=8 note=58 velocity=0 time=3
note_off channel=8 note=60 velocity=0 time=5
note_off channel=8 note=55 velocity=0 time=6
note_off channel=6 note=53 velocity=0 time=9
note_off channel=6 note=44 velocity=0 time=2
note_off channel=8 note=56 velocity=0 time=58
note_off channel=6 note=44 velocity=0 time=3
note_off channel=4 note=63 velocity=0 time=9
note_on channel=1 note=32 velocity=118 time=13
note_on channel=4 note=63 velocity=116 time=0
note_on channel=4 note=70 velocity=102 time=0
note_on channel=7 note=65 velocity=95 time=0
note_on channel=7 note=70 velocity=101 time=0
note_on channel=7 note=75 velocity=115 time=0
note_on channel=7 note=75 velocity=115 time=0
note_on channel=8 note=51 velocity=121 time=0
note_on channel=7 note=75 velocity=110 time=0
note_on channel=8 note=56 velocity=127 time=0
note_on channel=9 note=35 velocity=116 time=0
note_on channel=9 note=40 velocity=116 time=0
note_on channel=9 note=35 velocity=116 time=0
note_on channel=9 note=42 velocity=98 time=0
note_on channel=10 note=44 velocity=113 time=8
note_on channel=6 note=48 velocity=123 time=3
note_on channel=6 note=53 velocity=120 time=0
note_off channel=9 note=35 velocity=0 time=17
note_off channel=9 note=42 velocity=0 time=0
note_off channel=7 note=72 velocity=0 time=0
note_off channel=7 note=65 velocity=0 time=5
note_off channel=8 note=58 velocity=0 time=7
note_off channel=6 note=51 velocity=0 time=10
note_off channel=7 note=67 velocity=0 time=12
note_off channel=6 note=44 velocity=0 time=2
note_off channel=8 note=65 velocity=0 time=3
note_off channel=6 note=44 velocity=0 time=8
note_off channel=1 note=36 velocity=0 time=9
note_off channel=3 note=77 velocity=0 time=52
note_off channel=9 note=53 velocity=0 time=18
note_off channel=9 note=53 velocity=0 time=2
note_off channel=8 note=51 velocity=0 time=1
note_off channel=6 note=46 velocity=0 time=8
note_off channel=9 note=40 velocity=0 time=22
note_off channel=9 note=40 velocity=0 time=0
note_off channel=9 note=53 velocity=0 time=2
note_off channel=7 note=75 velocity=0 time=1
note_off channel=7 note=75 velocity=0 time=5
note_off channel=8 note=58 velocity=0 time=5
note_off channel=6 note=53 velocity=0 time=13
note_off channel=7 note=67 velocity=0 time=12
note_off channel=6 note=53 velocity=0 time=23
note_off channel=9 note=43 velocity=0 time=24
note_off channel=9 note=40 velocity=0 time=0
note_off channel=7 note=70 velocity=0 time=39
note_off channel=7 note=70 velocity=0 time=12
note_off channel=8 note=53 velocity=0 time=8
note_off channel=8 note=51 velocity=0 time=4
note_off channel=4 note=63 velocity=0 time=6
note_off channel=4 note=70 velocity=0 time=2
note_off channel=3 note=79 velocity=0 time=1
note_off channel=10 note=44 velocity=0 time=8
note_on channel=1 note=32 velocity=113 time=13
note_on channel=7 note=63 velocity=116 time=0
note_on channel=7 note=67 velocity=110 time=0
note_on channel=8 note=60 velocity=120 time=0
note_on channel=8 note=53 velocity=89 time=0
note_on channel=8 note=60 velocity=110 time=0
note_on channel=9 note=35 velocity=116 time=0
note_on channel=9 note=45 velocity=98 time=0
note_on channel=10 note=44 velocity=113 time=8
note_on channel=6 note=44 velocity=127 time=3
note_on channel=6 note=53 velocity=106 time=0
note_off channel=9 note=35 velocity=0 time=27
note_off channel=9 note=42 velocity=0 time=0
note_off channel=4 note=63 velocity=0 time=22
note_off channel=4 note=72 velocity=0 time=0
note_off channel=1 note=34 velocity=0 time=120
note_off channel=10 note=48 velocity=0 time=8
note_on channel=1 note=32 velocity=113 time=13
note_on channel=4 note=65 velocity=98 time=0
note_on channel=7 note=63 velocity=101 time=0
note_on channel=4 note=70 velocity=87 time=0
note_on channel=7 note=63 velocity=116 time=0
note_on channel=7 note=75 velocity=127 time=0
note_on channel=7 note=75 velocity=95 time=0
note_on channel=8 note=56 velocity=127 time=0
note_on channel=9 note=35 velocity=116 time=0
note_on channel=9 note=42 velocity=98 time=0
note_on channel=10 note=48 velocity=118 time=8
note_on channel=6 note=44 velocity=123 time=3
note_on channel=6 note=51 velocity=127 time=0
note_on channel=3 note=82 velocity=127 time=0
note_on channel=3 note=84 velocity=125 time=0
note_off channel=8 note=54 velocity=0 time=19
note_off channel=9 note=40 velocity=0 time=0
note_off channel=9 note=42 velocity=0 time=0
note_off channel=7 note=70 velocity=0 time=1
note_off channel=7 note=72 velocity=0 time=2
note_off channel=6 note=44 velocity=0 time=1
note_off channel=3 note=82 velocity=0 time=6
note_off channel=9 note=51 velocity=0 time=10
note_off channel=9 note=49 velocity=0 time=0
note_off channel=7 note=46 velocity=0 time=0
note_off channel=1 note=31 velocity=0 time=71
note_off channel=10 note=43 velocity=0 time=8
note_on channel=1 note=32 velocity=118 time=13
note_on channel=7 note=65 velocity=98 time=0
note_on channel=7 note=70 velocity=116 time=0
note_on channel=7 note=74 velocity=102 time=0
note_on channel=7 note=72 velocity=127 time=0
note_on channel=7 note=75 velocity=116 time=0
note_on channel=8 note=55 velocity=97 time=0
note_on channel=8 note=60 velocity=127 time=0
note_on channel=9 note=35 velocity=116 time=0
note_on channel=9 note=42 velocity=98 time=0
note_on channel=10 note=48 velocity=113 time=8
note_on channel=6 note=46 velocity=127 time=3
note_on channel=6 note=51 velocity=127 time=0
note_off channel=9 note=35 velocity=0 time=17
note_off channel=9 note=42 velocity=0 time=0
note_off channel=9 note=54 velocity=0 time=0
note_off channel=7 note=34 velocity=0 time=25
note_off channel=7 note=63 velocity=0 time=18
note_off channel=6 note=51 velocity=0 time=5
note_off channel=8 note=51 velocity=0 time=12
note_off channel=6 note=44 velocity=0 time=2
note_off channel=8 note=53 velocity=0 time=8
note_off channel=6 note=53 velocity=0 time=4
note_off channel=4 note=63 velocity=0 time=2
note_off channel=4 note=70 velocity=0 time=0
note_on channel=1 note=32 velocity=113 time=13
note_on channel=4 note=70 velocity=115 time=0
note_off channel=9 note=42 velocity=0 time=38
note_off channel=7 note=63 velocity=0 time=39
note_off channel=7 note=63 velocity=0 time=1
note_off channel=6 note=44 velocity=0 time=17
note_off channel=3 note=65 velocity=0 time=23
note_off channel=7 note=58 velocity=0 time=33
note_off channel=7 note=67 velocity=0 time=12
note_off channel=6 note=53 velocity=0 time=16
note_off channel=8 note=51 velocity=0 time=9
note_off channel=8 note=58 velocity=0 time=10
note_off channel=6 note=46 velocity=0 time=6
note_on channel=1 note=32 velocity=113 time=13
note_on channel=7 note=65 velocity=98 time=0
note_on channel=4 note=70 velocity=111 time=0
note_on channel=7 note=74 velocity=106 time=0
note_on channel=8 note=51 velocity=127 time=0
note_on channel=8 note=60 velocity=81 time=0
note_on channel=9 note=42 velocity=98 time=0
note_on channel=10 note=44 velocity=113 time=8
note_on channel=6 note=44 velocity=123 time=3
note_on channel=6 note=51 velocity=123 time=0
note_off channel=9 note=35 velocity=0 time=17
note_off channel=9 note=42 velocity=0 time=0
note_off channel=9 note=54 velocity=0 time=0
note_off channel=7 note=72 velocity=0 time=32
note_off channel=7 note=75 velocity=0 time=15
note_off channel=6 note=46 velocity=0 time=2
note_off channel=7 note=74 velocity=0 time=7
note_off channel=6 note=55 velocity=0 time=3
note_off channel=8 note=58 velocity=0 time=1
note_off channel=8 note=53 velocity=0 time=1
note_off channel=4 note=63 velocity=0 time=43
note_off channel=4 note=63 velocity=0 time=0
note_off channel=4 note=67 velocity=0 time=9
note_off channel=4 note=70 velocity=0 time=0
note_on channel=8 note=55 velocity=125 time=0
note_off channel=9 note=35 velocity=0 time=17
note_off channel=7 note=65 velocity=0 time=1
note_off channel=7 note=63 velocity=0 time=1
note_off channel=4 note=67 velocity=0 time=1
note_off channel=4 note=72 velocity=0 time=0
note_off channel=7 note=74 velocity=0 time=5
note_off channel=8 note=62 velocity=0 time=3
note_off channel=6 note=46 velocity=0 time=56
note_off channel=3 note=79 velocity=0 time=4
note_off channel=3 note=79 velocity=0 time=29
note_off channel=10 note=48 velocity=0 time=8
note_on channel=3 note=62 velocity=111 time=143
note_off channel=1 note=32 velocity=0 time=1113
note_off channel=9 note=43 velocity=0 time=10
note_off channel=7 note=63 velocity=0 time=6
note_off channel=4 note=70 velocity=0 time=7
note_off channel=1 note=32 velocity=0 time=198
note_off channel=10 note=46 velocity=0 time=8
note_on channel=1 note=36 velocity=113 time=13
note_on channel=4 note=63 velocity=116 time=0
note_on channel=4 note=67 velocity=102 time=0
note_on channel=4 note=72 velocity=125 time=0
note_on channel=7 note=76 velocity=125 time=0
note_on channel=7 note=74 velocity=86 time=0
note_off channel=7 note=67 velocity=0 time=3
note_off channel=8 note=58 velocity=0 time=15
note_off channel=6 note=48 velocity=0 time=6
note_off channel=8 note=58 velocity=0 time=2
note_off channel=6 note=48 velocity=0 time=7
note_off channel=3 note=80 velocity=0 time=64
note_off channel=8 note=43 velocity=0 time=9
note_off channel=8 note=53 velocity=0 time=6
note_off channel=1 note=32 velocity=0 time=494
note_off channel=10 note=44 velocity=0 time=8
note_on channel=1 note=32 velocity=118 time=13
note_on channel=7 note=62 velocity=83 time=0
note_on channel=4 note=70 velocity=115 time=0
note_on channel=7 note=36 velocity=115 time=0
note_on channel=7 note=46 velocity=116 time=0
note_on channel=7 note=60 velocity=120 time=0
note_on channel=7 note=74 velocity=106 time=0
note_on channel=8 note=56 velocity=123 time=0
note_on channel=9 note=39 velocity=85 time=0
note_on channel=9 note=40 velocity=116 time=0
note_on channel=10 note=48 velocity=113 time=8
note_on channel=6 note=46 velocity=125 time=3
note_on channel=6 note=53 velocity=120 time=0
note_off channel=9 note=35 velocity=0 time=17
note_off channel=9 note=42 velocity=0 time=0
note_off channel=6 note=53 velocity=0 time=12
note_off channel=8 note=51 velocity=0 time=10
note_off channel=8 note=53 velocity=0 time=8
note_off channel=8 note=55 velocity=0 time=9
note_off channel=8 note=58 velocity=0 time=6
note_off channel=8 note=53 velocity=0 time=7
note_off channel=7 note=67 velocity=0 time=9
note_off channel=6 note=48 velocity=0 time=7
note_off channel=8 note=55 velocity=0 time=4
note_off channel=6 note=48 velocity=0 time=58
note_off channel=1 note=34 velocity=0 time=101
note_off channel=10 note=44 velocity=0 time=8
note_on channel=1 note=36 velocity=113 time=13
note_on channel=4 note=67 velocity=102 time=0
note_on channel=4 note=70 velocity=102 time=0
note_on channel=9 note=44 velocity=102 time=0
note_on channel=7 note=75 velocity=120 time=0
note_on channel=7 note=78 velocity=90 time=0
note_on channel=8 note=53 velocity=83 time=0
note_on channel=8 note=56 velocity=116 time=0
note_on channel=9 note=35 velocity=116 time=0
note_on channel=9 note=42 velocity=98 time=0
note_on channel=9 note=51 velocity=116 time=0
note_on channel=9 note=40 velocity=98 time=0
note_on channel=10 note=46 velocity=118 time=8
note_on channel=6 note=46 velocity=127 time=3
note_on channel=6 note=53 velocity=110 time=0
note_off channel=9 note=35 velocity=0 time=10
note_off channel=9 note=42 velocity=0 time=0
note_off channel=7 note=63 velocity=0 time=18
note_off channel=7 note=68 velocity=0 time=2
note_off channel=8 note=60 velocity=0 time=10
note_off channel=6 note=53 velocity=0 time=15
note_off channel=8 note=56 velocity=0 time=4
note_off channel=8 note=58 velocity=0 time=10
note_off channel=8 note=53 velocity=0 time=4
note_off channel=7 note=63 velocity=0 time=1
note_off channel=6 note=53 velocity=0 time=3
note_off channel=6 note=51 velocity=0 time=5
note_off channel=4 note=63 velocity=0 time=51
note_off channel=4 note=70 velocity=0 time=0
note_off channel=9 note=40 velocity=0 time=49
note_off channel=7 note=44 velocity=0 time=0
note_off channel=3 note=80 velocity=0 time=8
note_off channel=1 note=36 velocity=0 time=35
note_off channel=10 note=44 velocity=0 time=8
note_on channel=1 note=34 velocity=113 time=13
note_on channel=7 note=65 velocity=98 time=0
note_on channel=7 note=67 velocity=85 time=0
note_on channel=7 note=68 velocity=111 time=0
note_on channel=7 note=72 velocity=102 time=0
note_on channel=8 note=53 velocity=57 time=0
note_on channel=7 note=75 velocity=90 time=0
note_on channel=8 note=58 velocity=123 time=0
note_on channel=9 note=35 velocity=116 time=0
note_on channel=9 note=42 velocity=98 time=0
note_on channel=10 note=44 velocity=118 time=8
note_on channel=6 note=48 velocity=127 time=3
note_on channel=6 note=55 velocity=106 time=0
note_off channel=9 note=35 velocity=0 time=13
note_on channel=3 note=79 velocity=127 time=0
note_off channel=1 note=32 velocity=0 time=71
note_off channel=10 note=46 velocity=0 time=8
note_on channel=1 note=34 velocity=113 time=13
note_on channel=4 note=63 velocity=116 time=0
note_on channel=4 note=70 velocity=102 time=0
note_on channel=7 note=42 velocity=115 time=0
note_on channel=9 note=35 velocity=98 time=0
note_on channel=7 note=65 velocity=106 time=0
note_on channel=7 note=63 velocity=111 time=0
note_on channel=8 note=51 velocity=116 time=0
note_on channel=8 note=56 velocity=127 time=0
note_on channel=9 note=35 velocity=116 time=0
note_on channel=9 note=42 velocity=98 time=0
note_on channel=9 note=53 velocity=115 time=0
note_on channel=9 note=54 velocity=116 time=0
note_on channel=10 note=48 velocity=113 time=8
note_on channel=6 note=48 velocity=123 time=3
note_on channel=6 note=55 velocity=115 time=0
note_off channel=9 note=35 velocity=0 time=17
note_off channel=7 note=74 velocity=0 time=12
note_off channel=7 note=75 velocity=0 time=7
note_off channel=8 note=60 velocity=0 time=6
note_off channel=8 note=56 velocity=0 time=5
note_off channel=6 note=48 velocity=0 time=8
note_off channel=6 note=46 velocity=0 time=12
note_off channel=8 note=85 velocity=0 time=2
note_off channel=8 note=53 velocity=0 time=2
note_off channel=8 note=53 velocity=0 time=3
note_off channel=6 note=46 velocity=0 time=7
note_off channel=9 note=35 velocity=0 time=28
note_off channel=7 note=72 velocity=0 time=17
note_off channel=6 note=51 velocity=0 time=5
note_off channel=8 note=53 velocity=0 time=16
note_off channel=6 note=44 velocity=0 time=5
note_off channel=1 note=32 velocity=0 time=81
note_off channel=10 note=46 velocity=0 time=8
note_on channel=1 note=32 velocity=118 time=13
note_on channel=4 note=63 velocity=116 time=0
note_on channel=4 note=67 velocity=87 time=0
note_on channel=4 note=70 velocity=102 time=0
note_on channel=7 note=67 velocity=106 time=0
note_on channel=7 note=72 velocity=125 time=0
note_on channel=8 note=53 velocity=85 time=0
note_on channel=8 note=58 velocity=127 time=0
note_on channel=8 note=53 velocity=95 time=0
note_on channel=9 note=39 velocity=85 time=0
note_on channel=9 note=40 velocity=116 time=0
note_on channel=9 note=42 velocity=98 time=0
note_on channel=9 note=42 velocity=98 time=0
note_on channel=9 note=42 velocity=98 time=0
note_on channel=10 note=46 velocity=118 time=8
note_on channel=6 note=46 velocity=127 time=3
note_on channel=6 note=53 velocity=110 time=0
note_off channel=4 note=63 velocity=0 time=27
note_off channel=4 note=70 velocity=0 time=0
note_off channel=1 note=34 velocity=0 time=9
note_on channel=1 note=32 velocity=113 time=13
note_on channel=7 note=63 velocity=111 time=0
note_on channel=7 note=63 velocity=116 time=0
note_on channel=7 note=67 velocity=102 time=0
note_on channel=4 note=70 velocity=102 time=0
note_on channel=8 note=51 velocity=123 time=0
note_on channel=8 note=56 velocity=116 time=0
note_on channel=9 note=35 velocity=116 time=0
note_on channel=9 note=42 velocity=98 time=0
note_off channel=9 note=35 velocity=0 time=17
note_off channel=9 note=42 velocity=0 time=0
note_off channel=7 note=75 velocity=0 time=15
note_off channel=7 note=72 velocity=0 time=0
note_off channel=8 note=60 velocity=0 time=22
note_off channel=6 note=48 velocity=0 time=6
note_off channel=8 note=51 velocity=0 time=4
note_off channel=7 note=63 velocity=0 time=5
note_off channel=6 note=46 velocity=0 time=3
note_off channel=8 note=56 velocity=0 time=8
note_off channel=8 note=53 velocity=0 time=2
note_off channel=8 note=55 velocity=0 time=8
note_off channel=7 note=65 velocity=0 time=5
note_off channel=8 note=55 velocity=0 time=13
note_off channel=6 note=46 velocity=0 time=6
note_off channel=8 note=55 velocity=0 time=2
note_off channel=6 note=48 velocity=0 time=8
note_off channel=8 note=51 velocity=0 time=13
note_off channel=6 note=48 velocity=0 time=17
note_off channel=8 note=58 velocity=0 time=18
note_off channel=6 note=44 velocity=0 time=14
note_off channel=6 note=48 velocity=0 time=14
note_off channel=6 note=48 velocity=0 time=10
note_off channel=8 note=51 velocity=0 time=28
note_off channel=8 note=51 velocity=0 time=2
note_off channel=1 note=32 velocity=0 time=110
note_off channel=10 note=44 velocity=0 time=8
note_on channel=1 note=34 velocity=113 time=13
note_on channel=4 note=63 velocity=116 time=0
note_on channel=4 note=63 velocity=127 time=0
note_on channel=4 note=70 velocity=90 time=0
note_on channel=7 note=67 velocity=110 time=0
note_on channel=7 note=74 velocity=97 time=0
note_on channel=8 note=53 velocity=70 time=0
note_on channel=8 note=55 velocity=87 time=0
note_on channel=8 note=54 velocity=89 time=0
note_on channel=8 note=56 velocity=116 time=0
note_on channel=9 note=35 velocity=116 time=0
note_on channel=9 note=42 velocity=98 time=0
note_off channel=9 note=35 velocity=0 time=6
note_off channel=9 note=35 velocity=0 time=17
note_off channel=9 note=54 velocity=0 time=0
note_off channel=7 note=67 velocity=0 time=2
note_off channel=8 note=51 velocity=0 time=9
note_off channel=9 note=42 velocity=0 time=15
note_off channel=7 note=72 velocity=0 time=10
note_off channel=6 note=44 velocity=0 time=4
note_off channel=1 note=34 velocity=0 time=59
note_off channel=3 note=80 velocity=0 time=2
note_off channel=9 note=53 velocity=0 time=1
note_off channel=8 note=51 velocity=0 time=6
note_off channel=7 note=74 velocity=0 time=0
note_off channel=6 note=55 velocity=0 time=7
note_off channel=7 note=74 velocity=0 time=8
note_on channel=3 note=84 velocity=106 time=57
note_off channel=4 note=63 velocity=0 time=7
note_off channel=4 note=67 velocity=0 time=8
note_off channel=4 note=67 velocity=0 time=2
note_off channel=4 note=70 velocity=0 time=0
note_off channel=1 note=32 velocity=0 time=4
note_off channel=10 note=44 velocity=0 time=8
note_on channel=1 note=32 velocity=113 time=13
note_on channel=4 note=67 velocity=102 time=0
note_on channel=4 note=70 velocity=115 time=0
note_on channel=7 note=32 velocity=115 time=0
note_on channel=7 note=63 velocity=116 time=0
note_on channel=7 note=63 velocity=127 time=0
note_on channel=7 note=62 velocity=90 time=0
note_on channel=7 note=72 velocity=102 time=0
note_on channel=8 note=51 velocity=97 time=0
note_on channel=7 note=76 velocity=105 time=0
note_on channel=8 note=53 velocity=50 time=0
note_on channel=8 note=60 velocity=115 time=0
note_off channel=9 note=35 velocity=0 time=13
note_off channel=9 note=42 velocity=0 time=0
note_off channel=6 note=53 velocity=0 time=12
note_off channel=8 note=56 velocity=0 time=2
note_off channel=1 note=34 velocity=0 time=8
note_on channel=1 note=34 velocity=113 time=13
note_on channel=7 note=60 velocity=120 time=0
note_on channel=7 note=72 velocity=123 time=0
note_on channel=7 note=60 velocity=106 time=0
note_on channel=7 note=74 velocity=90 time=0
note_on channel=8 note=50 velocity=93 time=0
note_on channel=8 note=60 velocity=120 time=0
note_on channel=9 note=35 velocity=116 time=0
note_on channel=9 note=42 velocity=98 time=0
note_on channel=10 note=43 velocity=118 time=8
note_on channel=6 note=55 velocity=125 time=0
note_off channel=9 note=39 velocity=0 time=17
note_on channel=3 note=79 velocity=115 time=2
note_off channel=9 note=42 velocity=0 time=0
note_off channel=7 note=65 velocity=0 time=18
note_off channel=8 note=51 velocity=0 time=6
note_off channel=8 note=58 velocity=0 time=8
note_off channel=6 note=48 velocity=0 time=30
note_off channel=8 note=55 velocity=0 time=21
note_off channel=3 note=84 velocity=0 time=90
note_off channel=1 note=36 velocity=0 time=95
note_off channel=10 note=44 velocity=0 time=8
note_on channel=1 note=34 velocity=113 time=11
note_on channel=7 note=52 velocity=102 time=0
note_on channel=4 note=70 velocity=102 time=0
note_on channel=8 note=46 velocity=93 time=0
note_on channel=8 note=60 velocity=120 time=0
note_on channel=9 note=35 velocity=116 time=0
note_on channel=9 note=40 velocity=116 time=0
note_on channel=9 note=40 velocity=116 time=0
pitchwheel channel=3 pitch=1430 time=2
note_off channel=8 note=53 velocity=0 time=9
note_off channel=10 note=50 velocity=0 time=0
note_off channel=9 note=43 velocity=0 time=60
note_off channel=9 note=40 velocity=0 time=0
note_off channel=1 note=32 velocity=0 time=47
note_off channel=10 note=48 velocity=0 time=0
note_off channel=8 note=50 velocity=0 time=3
note_off channel=3 note=78 velocity=0 time=27
pitchwheel channel=3 pitch=2730 time=48
pitchwheel channel=3 pitch=6770 time=10
pitchwheel channel=3 pitch=3640 time=11
pitchwheel channel=3 pitch=2800 time=17
note_off channel=7 note=74 velocity=0 time=7
note_off channel=6 note=55 velocity=0 time=6
note_off channel=1 note=32 velocity=0 time=51
note_off channel=10 note=48 velocity=0 time=0
note_on channel=1 note=34 velocity=118 time=13
note_on channel=8 note=46 velocity=110 time=0
note_on channel=9 note=40 velocity=95 time=0
note_on channel=9 note=40 velocity=95 time=0
note_on channel=9 note=43 velocity=106 time=0
note_on channel=10 note=46 velocity=76 time=0
pitchwheel channel=3 pitch=3380 time=13
pitchwheel channel=3 pitch=5070 time=10
note_off channel=8 note=48 velocity=0 time=3
note_off channel=8 note=50 velocity=0 time=12
note_off channel=10 note=50 velocity=0 time=0
note_off channel=7 note=74 velocity=0 time=14
note_off channel=7 note=67 velocity=0 time=7
note_off channel=7 note=72 velocity=0 time=2
note_off channel=8 note=56 velocity=0 time=4
note_off channel=9 note=40 velocity=0 time=2
note_off channel=3 note=72 velocity=0 time=47
note_on channel=3 note=82 velocity=102 time=0
note_off channel=8 note=54 velocity=0 time=6
note_off channel=8 note=53 velocity=0 time=5
note_off channel=4 note=70 velocity=0 time=95
note_off channel=1 note=31 velocity=0 time=13
note_off channel=10 note=43 velocity=0 time=0
note_on channel=1 note=31 velocity=113 time=21
note_on channel=8 note=43 velocity=110 time=0
note_on channel=9 note=44 velocity=95 time=0
note_on channel=10 note=46 velocity=105 time=0
note_on channel=8 note=58 velocity=91 time=11
note_on channel=10 note=50 velocity=57 time=0
note_off channel=8 note=43 velocity=0 time=35
note_off channel=10 note=43 velocity=0 time=0
note_off channel=8 note=50 velocity=0 time=5
pitchwheel channel=3 pitch=3940 time=2
note_off channel=1 note=31 velocity=0 time=108
note_on channel=1 note=31 velocity=73 time=4
note_on channel=8 note=44 velocity=110 time=0
note_on channel=9 note=43 velocity=95 time=0
note_on channel=10 note=43 velocity=105 time=0
pitchwheel channel=3 pitch=5030 time=2
note_on channel=8 note=50 velocity=87 time=3
note_on channel=10 note=55 velocity=51 time=0
pitchwheel channel=3 pitch=1170 time=3
note_on channel=10 note=43 velocity=75 time=0
note_on channel=8 note=51 velocity=93 time=11
note_on channel=10 note=55 velocity=46 time=0
note_off channel=8 note=43 velocity=0 time=36
note_off channel=10 note=43 velocity=0 time=36
note_off channel=8 note=50 velocity=0 time=9
note_off channel=10 note=50 velocity=0 time=0
pitchwheel channel=3 pitch=-4046 time=2
pitchwheel channel=3 pitch=3900 time=11
pitchwheel channel=3 pitch=2608 time=40
note_off channel=9 note=44 velocity=0 time=7
pitchwheel channel=3 pitch=5330 time=6
note_off channel=1 note=31 velocity=0 time=9
note_on channel=1 note=31 velocity=113 time=21
note_on channel=8 note=48 velocity=120 time=0
note_on channel=9 note=40 velocity=95 time=0
note_on channel=9 note=40 velocity=98 time=0
note_on channel=9 note=43 velocity=49 time=0
note_on channel=8 note=43 velocity=120 time=0
note_on channel=9 note=43 velocity=95 time=0
note_on channel=9 note=40 velocity=98 time=0
note_on channel=9 note=43 velocity=106 time=0
note_on channel=10 note=43 velocity=70 time=0
note_on channel=8 note=50 velocity=91 time=11
note_on channel=10 note=50 velocity=57 time=0
pitchwheel channel=3 pitch=260 time=1
note_on channel=3 note=79 velocity=106 time=0
pitchwheel channel=3 pitch=2340 time=3
note_off channel=8 note=48 velocity=0 time=32
note_off channel=8 note=46 velocity=0 time=1
note_off channel=7 note=32 velocity=0 time=40
note_off channel=6 note=53 velocity=0 time=1
note_off channel=7 note=67 velocity=0 time=1
note_off channel=8 note=56 velocity=0 time=7
note_off channel=8 note=60 velocity=0 time=1
note_off channel=8 note=53 velocity=0 time=6
note_off channel=3 note=84 velocity=0 time=98
note_off channel=1 note=32 velocity=0 time=79
note_off channel=10 note=48 velocity=0 time=8
note_on channel=1 note=32 velocity=113 time=2
note_on channel=4 note=63 velocity=116 time=0
note_on channel=4 note=70 velocity=87 time=0
note_on channel=8 note=42 velocity=125 time=0
note_off channel=9 note=35 velocity=0 time=17
note_off channel=9 note=42 velocity=0 time=0
note_off channel=7 note=72 velocity=0 time=4
note_off channel=6 note=48 velocity=0 time=12
note_off channel=8 note=53 velocity=0 time=7
note_off channel=6 note=55 velocity=0 time=2
note_off channel=3 note=84 velocity=0 time=13
note_off channel=1 note=31 velocity=0 time=119
pitchwheel channel=3 pitch=6760 time=13
note_on channel=1 note=36 velocity=81 time=23
note_on channel=10 note=43 velocity=60 time=0
note_on channel=8 note=53 velocity=91 time=11
note_on channel=10 note=50 velocity=68 time=0
note_off channel=8 note=43 velocity=0 time=11
note_off channel=10 note=43 velocity=0 time=0
note_off channel=8 note=50 velocity=0 time=0
note_off channel=10 note=55 velocity=0 time=1
note_on channel=2 note=75 velocity=123 time=17
note_off channel=8 note=43 velocity=0 time=19
note_off channel=6 note=43 velocity=0 time=14
pitchwheel channel=3 pitch=3120 time=13
pitchwheel channel=3 pitch=3120 time=18
note_off channel=9 note=43 velocity=0 time=11
pitchwheel channel=3 pitch=7930 time=12
note_off channel=8 note=43 velocity=0 time=18
note_off channel=10 note=50 velocity=0 time=0
note_off channel=9 note=43 velocity=0 time=71
pitchwheel channel=3 pitch=2860 time=2
note_off channel=9 note=35 velocity=0 time=16
pitchwheel channel=3 pitch=3770 time=1
note_off channel=3 note=82 velocity=0 time=12
note_off channel=8 note=48 velocity=0 time=1
note_off channel=9 note=35 velocity=0 time=21
note_off channel=9 note=40 velocity=0 time=6
note_off channel=9 note=35 velocity=0 time=7
note_off channel=9 note=40 velocity=0 time=0
note_off channel=9 note=40 velocity=0 time=0
note_on channel=3 note=72 velocity=116 time=0
note_on channel=9 note=40 velocity=95 time=0
pitchwheel channel=3 pitch=0 time=6
note_on channel=3 note=86 velocity=111 time=0
note_on channel=8 note=55 velocity=87 time=5
note_on channel=10 note=50 velocity=41 time=0
note_on channel=5 note=70 velocity=111 time=0
note_off channel=9 note=40 velocity=0 time=8
note_off channel=9 note=40 velocity=0 time=17
note_off channel=3 note=75 velocity=0 time=15
note_off channel=8 note=43 velocity=0 time=12
note_off channel=8 note=51 velocity=0 time=6
note_off channel=9 note=35 velocity=0 time=1
note_off channel=9 note=40 velocity=0 time=5
note_off channel=9 note=35 velocity=0 time=9
note_off channel=8 note=46 velocity=0 time=35
note_off channel=10 note=53 velocity=0 time=4
note_off channel=8 note=44 velocity=0 time=8
note_off channel=8 note=55 velocity=0 time=1
note_off channel=10 note=50 velocity=0 time=0
pitchwheel channel=3 pitch=4290 time=2
pitchwheel channel=3 pitch=3770 time=10
note_off channel=8 note=48 velocity=0 time=7
note_off channel=10 note=48 velocity=0 time=0
note_off channel=8 note=53 velocity=0 time=4
note_off channel=10 note=53 velocity=0 time=0
note_on channel=3 note=75 velocity=110 time=28
note_on channel=8 note=43 velocity=127 time=21
note_on channel=10 note=48 velocity=66 time=0
note_on channel=8 note=50 velocity=91 time=11
note_on channel=10 note=50 velocity=57 time=0
note_off channel=8 note=53 velocity=0 time=2
pitchwheel channel=3 pitch=3120 time=3
pitchwheel channel=3 pitch=250 time=16
note_off channel=9 note=35 velocity=0 time=8
note_off channel=9 note=40 velocity=0 time=13
note_off channel=3 note=79 velocity=0 time=2
note_on channel=1 note=31 velocity=113 time=21
note_on channel=8 note=46 velocity=115 time=0
note_on channel=9 note=35 velocity=95 time=0
note_on channel=9 note=40 velocity=95 time=0
note_on channel=9 note=43 velocity=106 time=0
note_on channel=10 note=43 velocity=65 time=0
note_on channel=8 note=50 velocity=91 time=11
note_on channel=10 note=56 velocity=43 time=0
note_off channel=3 note=72 velocity=0 time=10
note_on channel=9 note=35 velocity=95 time=48
note_on channel=9 note=43 velocity=95 time=0
note_on channel=9 note=43 velocity=106 time=0
note_on channel=10 note=43 velocity=105 time=0
note_on channel=8 note=50 velocity=91 time=8
note_off channel=3 note=79 velocity=0 time=9
note_off channel=8 note=50 velocity=0 time=16
note_off channel=10 note=53 velocity=0 time=1
note_off channel=1 note=32 velocity=0 time=38
note_off channel=10 note=46 velocity=0 time=0
note_on channel=1 note=34 velocity=113 time=0
note_on channel=3 note=78 velocity=125 time=0
note_off channel=8 note=46 velocity=0 time=24
note_off channel=10 note=43 velocity=0 time=0
note_off channel=8 note=53 velocity=0 time=3
note_off channel=10 note=53 velocity=0 time=11
pitchwheel channel=3 pitch=3770 time=17
note_off channel=7 note=60 velocity=0 time=3
note_off channel=7 note=74 velocity=0 time=16
note_off channel=3 note=79 velocity=0 time=49
note_off channel=9 note=60 velocity=0 time=63
note_off channel=9 note=40 velocity=0 time=0
note_off channel=3 note=75 velocity=0 time=47
note_off channel=1 note=36 velocity=0 time=3
note_off channel=3 note=72 velocity=0 time=44
note_on channel=9 note=40 velocity=110 time=65
note_on channel=10 note=43 velocity=100 time=0
note_on channel=8 note=53 velocity=91 time=11
note_on channel=10 note=50 velocity=57 time=0
pitchwheel channel=3 pitch=3120 time=8
note_off channel=1 note=36 velocity=0 time=4
note_off channel=8 note=55 velocity=0 time=11
pitchwheel channel=3 pitch=2930 time=5
pitchwheel channel=3 pitch=2730 time=12
note_off channel=8 note=46 velocity=0 time=18
note_off channel=8 note=53 velocity=0 time=6
note_off channel=10 note=55 velocity=0 time=0
note_off channel=8 note=50 velocity=0 time=11
note_off channel=10 note=55 velocity=0 time=1
pitchwheel channel=3 pitch=0 time=8
note_off channel=7 note=60 velocity=0 time=0
note_off channel=6 note=51 velocity=0 time=4
note_off channel=7 note=62 velocity=0 time=3
note_off channel=6 note=48 velocity=0 time=19
note_off channel=8 note=56 velocity=0 time=41
note_off channel=7 note=54 velocity=0 time=49
note_off channel=7 note=75 velocity=0 time=6
note_off channel=8 note=60 velocity=0 time=5
note_off channel=7 note=72 velocity=0 time=1
note_off channel=7 note=62 velocity=0 time=3
note_off channel=7 note=74 velocity=0 time=3
note_off channel=8 note=65 velocity=0 time=3
note_off channel=8 note=51 velocity=0 time=4
note_on channel=6 note=44 velocity=123 time=2
note_on channel=6 note=53 velocity=120 time=0
note_off channel=9 note=35 velocity=0 time=17
note_off channel=9 note=40 velocity=0 time=0
note_off channel=7 note=74 velocity=0 time=30
note_off channel=7 note=60 velocity=0 time=15
note_off channel=6 note=50 velocity=0 time=3
note_off channel=6 note=44 velocity=0 time=9
note_off channel=8 note=51 velocity=0 time=2
note_off channel=8 note=56 velocity=0 time=12
note_off channel=3 note=79 velocity=0 time=0
note_off channel=9 note=53 velocity=0 time=5
note_off channel=6 note=51 velocity=0 time=5
note_off channel=6 note=48 velocity=0 time=8
note_on channel=1 note=32 velocity=113 time=13
note_on channel=7 note=60 velocity=115 time=0
note_on channel=7 note=67 velocity=115 time=0
note_on channel=8 note=51 velocity=120 time=0
note_on channel=8 note=60 velocity=123 time=0
note_on channel=8 note=60 velocity=125 time=0
note_on channel=9 note=35 velocity=116 time=0
note_on channel=9 note=42 velocity=98 time=0
note_on channel=9 note=40 velocity=116 time=0
note_on channel=10 note=46 velocity=113 time=8
note_on channel=6 note=46 velocity=116 time=3
note_on channel=6 note=53 velocity=115 time=0
note_off channel=9 note=39 velocity=0 time=17
note_off channel=9 note=40 velocity=0 time=0
note_off channel=9 note=43 velocity=0 time=6
note_off channel=7 note=72 velocity=0 time=2
note_off channel=7 note=63 velocity=0 time=16
note_off channel=6 note=48 velocity=0 time=6
note_off channel=7 note=60 velocity=0 time=7
note_on channel=7 note=67 velocity=120 time=0
note_off channel=7 note=67 velocity=0 time=2
note_off channel=8 note=58 velocity=0 time=12
note_off channel=8 note=53 velocity=0 time=4
note_off channel=8 note=53 velocity=0 time=4
note_off channel=6 note=44 velocity=0 time=1
note_off channel=7 note=60 velocity=0 time=6
note_off channel=6 note=46 velocity=0 time=29
note_off channel=9 note=51 velocity=0 time=9
note_off channel=1 note=32 velocity=0 time=15
note_on channel=1 note=32 velocity=113 time=13
note_on channel=7 note=60 velocity=125 time=0
note_on channel=7 note=67 velocity=110 time=0
note_off channel=8 note=51 velocity=0 time=3
note_off channel=7 note=63 velocity=0 time=9
note_off channel=6 note=44 velocity=0 time=1
note_off channel=8 note=55 velocity=0 time=5
note_off channel=8 note=58 velocity=0 time=34
note_off channel=7 note=67 velocity=0 time=14
note_off channel=6 note=55 velocity=0 time=42
note_off channel=7 note=74 velocity=0 time=6
note_off channel=7 note=67 velocity=0 time=3
note_off channel=7 note=67 velocity=0 time=10
note_off channel=6 note=51 velocity=0 time=7
note_off channel=8 note=56 velocity=0 time=14
note_off channel=8 note=53 velocity=0 time=5
note_off channel=8 note=53 velocity=0 time=10
note_off channel=8 note=55 velocity=0 time=41
note_off channel=6 note=44 velocity=0 time=2
note_off channel=3 note=82 velocity=0 time=47
note_on channel=1 note=32 velocity=118 time=5
note_on channel=7 note=63 velocity=116 time=0
note_on channel=4 note=67 velocity=102 time=0
note_on channel=4 note=70 velocity=102 time=0
note_on channel=7 note=70 velocity=115 time=0
note_off channel=8 note=52 velocity=0 time=4
note_off channel=3 note=79 velocity=0 time=83
note_off channel=7 note=53 velocity=0 time=12
note_off channel=7 note=65 velocity=0 time=17
note_off channel=6 note=51 velocity=0 time=4
note_off channel=6 note=55 velocity=0 time=6
note_off channel=6 note=44 velocity=0 time=6
note_off channel=8 note=55 velocity=0 time=11
note_off channel=8 note=51 velocity=0 time=0
note_off channel=6 note=53 velocity=0 time=17
note_off channel=7 note=72 velocity=0 time=3
note_off channel=7 note=75 velocity=0 time=7
note_off channel=8 note=56 velocity=0 time=5
note_off channel=6 note=55 velocity=0 time=4
note_off channel=1 note=32 velocity=0 time=113
note_off channel=10 note=46 velocity=0 time=8
note_on channel=1 note=34 velocity=113 time=13
note_on channel=4 note=63 velocity=116 time=0
note_on channel=7 note=67 velocity=106 time=0
note_on channel=7 note=70 velocity=105 time=0
note_on channel=7 note=74 velocity=102 time=0
note_on channel=8 note=55 velocity=98 time=0
note_on channel=8 note=58 velocity=127 time=0
note_on channel=9 note=35 velocity=116 time=0
note_on channel=9 note=42 velocity=98 time=0
note_on channel=10 note=44 velocity=113 time=8
note_on channel=6 note=46 velocity=123 time=3
note_on channel=6 note=55 velocity=115 time=0
note_off channel=9 note=35 velocity=0 time=13
note_off channel=9 note=54 velocity=0 time=0
note_on channel=3 note=79 velocity=125 time=0
note_off channel=9 note=35 velocity=0 time=17
note_off channel=9 note=40 velocity=0 time=0
note_off channel=9 note=40 velocity=0 time=0
note_off channel=3 note=79 velocity=0 time=41
note_on channel=3 note=82 velocity=127 time=0
note_on channel=3 note=84 velocity=102 time=0
note_on channel=1 note=31 velocity=113 time=12
note_on channel=7 note=53 velocity=90 time=0
note_on channel=7 note=76 velocity=83 time=0
note_on channel=7 note=63 velocity=106 time=0
note_on channel=8 note=53 velocity=115 time=0
note_on channel=9 note=35 velocity=95 time=0
note_on channel=9 note=40 velocity=98 time=0
note_on channel=9 note=43 velocity=106 time=0
note_on channel=10 note=43 velocity=105 time=0
note_on channel=8 note=55 velocity=91 time=11
note_on channel=10 note=50 velocity=65 time=0
note_off channel=8 note=46 velocity=0 time=13
note_off channel=10 note=46 velocity=0 time=0
note_off channel=8 note=50 velocity=0 time=1
note_off channel=10 note=53 velocity=0 time=0
note_off channel=9 note=43 velocity=0 time=2
note_off channel=9 note=40 velocity=0 time=10
pitchwheel channel=3 pitch=3770 time=11
pitchwheel channel=3 pitch=3980 time=10
note_on channel=1 note=32 velocity=73 time=2
note_on channel=8 note=43 velocity=121 time=0
note_on channel=9 note=46 velocity=95 time=0
note_on channel=10 note=43 velocity=105 time=0
note_on channel=8 note=53 velocity=91 time=8
note_on channel=10 note=50 velocity=71 time=0
note_off channel=9 note=35 velocity=0 time=28
note_off channel=9 note=40 velocity=0 time=28
note_off channel=3 note=79 velocity=0 time=15
note_off channel=3 note=75 velocity=0 time=65
pitchwheel channel=3 pitch=-6125 time=4
pitchwheel channel=3 pitch=2340 time=15
pitchwheel channel=3 pitch=0 time=15
pitchwheel channel=3 pitch=2080 time=15
pitchwheel channel=3 pitch=2860 time=10
pitchwheel channel=3 pitch=0 time=10
note_on channel=7 note=58 velocity=115 time=57
note_off channel=8 note=43 velocity=0 time=34
note_off channel=1 note=34 velocity=0 time=4
note_on channel=1 note=34 velocity=118 time=6
note_on channel=3 note=79 velocity=125 time=0
note_off channel=8 note=44 velocity=0 time=59
note_off channel=9 note=35 velocity=0 time=17
note_off channel=9 note=40 velocity=0 time=18
note_off channel=1 note=34 velocity=0 time=30
note_off channel=10 note=44 velocity=0 time=0
note_on channel=10 note=46 velocity=76 time=0
pitchwheel channel=3 pitch=0 time=5
note_on channel=1 note=36 velocity=113 time=21
note_on channel=8 note=44 velocity=102 time=0
note_on channel=9 note=35 velocity=95 time=0
note_on channel=9 note=40 velocity=98 time=0
note_on channel=9 note=40 velocity=95 time=0
note_on channel=9 note=44 velocity=106 time=0
note_on channel=10 note=46 velocity=105 time=0
pitchwheel channel=3 pitch=3380 time=5
pitchwheel channel=3 pitch=520 time=10
pitchwheel channel=3 pitch=5080 time=0
note_on channel=8 note=46 velocity=115 time=0
note_on channel=9 note=35 velocity=95 time=0
note_on channel=9 note=40 velocity=98 time=0
note_on channel=9 note=43 velocity=106 time=0
note_on channel=10 note=48 velocity=105 time=0
note_on channel=8 note=53 velocity=91 time=5
note_on channel=10 note=53 velocity=43 time=0
pitchwheel channel=3 pitch=0 time=5
pitchwheel channel=3 pitch=2740 time=28
pitchwheel channel=3 pitch=4080 time=17
note_off channel=9 note=40 velocity=0 time=17
pitchwheel channel=3 pitch=7410 time=10
pitchwheel channel=3 pitch=6500 time=14
pitchwheel channel=3 pitch=1170 time=13
pitchwheel channel=3 pitch=1690 time=11
note_on channel=9 note=40 velocity=95 time=11
note_on channel=3 note=77 velocity=106 time=0
note_on channel=7 note=73 velocity=101 time=0
note_on channel=8 note=43 velocity=100 time=0
note_on channel=9 note=35 velocity=95 time=0
note_on channel=9 note=40 velocity=95 time=0
note_on channel=9 note=43 velocity=106 time=0
note_on channel=10 note=44 velocity=110 time=0
note_on channel=8 note=50 velocity=91 time=6
pitchwheel channel=3 pitch=-9120 time=8
pitchwheel channel=3 pitch=1170 time=21
note_on channel=7 note=65 velocity=115 time=56
note_on channel=7 note=70 velocity=101 time=0
note_on channel=7 note=70 velocity=83 time=0
note_on channel=8 note=51 velocity=123 time=0
note_on channel=8 note=55 velocity=95 time=0
note_on channel=9 note=35 velocity=95 time=0
note_on channel=9 note=40 velocity=95 time=0
note_on channel=9 note=43 velocity=106 time=0
note_on channel=10 note=43 velocity=105 time=0
note_on channel=8 note=53 velocity=101 time=11
pitchwheel channel=3 pitch=220 time=10
pitchwheel channel=3 pitch=4990 time=11
pitchwheel channel=3 pitch=0 time=2
note_off channel=7 note=34 velocity=0 time=7
note_off channel=7 note=65 velocity=0 time=49
note_off channel=7 note=63 velocity=0 time=18
note_off channel=7 note=63 velocity=0 time=27
note_off channel=6 note=50 velocity=0 time=8
note_off channel=6 note=48 velocity=0 time=8
note_off channel=1 note=32 velocity=0 time=53
note_off channel=10 note=44 velocity=0 time=8
note_on channel=1 note=34 velocity=118 time=0
note_on channel=3 note=82 velocity=123 time=0
note_on channel=7 note=63 velocity=115 time=0
note_off channel=3 note=79 velocity=0 time=4
note_off channel=4 note=72 velocity=0 time=0
note_off channel=8 note=53 velocity=0 time=9
note_off channel=8 note=51 velocity=0 time=8
note_off channel=6 note=44 velocity=0 time=54
note_off channel=7 note=62 velocity=0 time=7
note_off channel=7 note=65 velocity=0 time=5
note_off channel=6 note=55 velocity=0 time=3
note_off channel=7 note=67 velocity=0 time=5
note_off channel=8 note=60 velocity=0 time=12
note_off channel=8 note=55 velocity=0 time=8
note_off channel=7 note=75 velocity=0 time=2
note_off channel=6 note=44 velocity=0 time=6
note_off channel=8 note=53 velocity=0 time=13
note_off channel=8 note=53 velocity=0 time=19
note_off channel=8 note=51 velocity=0 time=6
note_off channel=6 note=46 velocity=0 time=6
note_off channel=8 note=53 velocity=0 time=8
note_off channel=8 note=53 velocity=0 time=9
note_off channel=8 note=54 velocity=0 time=3
note_off channel=8 note=60 velocity=0 time=4
note_off channel=6 note=46 velocity=0 time=6
note_off channel=8 note=60 velocity=0 time=58
note_off channel=1 note=32 velocity=0 time=8
note_off channel=10 note=46 velocity=0 time=8
note_on channel=1 note=34 velocity=113 time=13
note_on channel=7 note=63 velocity=116 time=0
note_on channel=4 note=70 velocity=127 time=0
note_on channel=7 note=32 velocity=114 time=0
note_on channel=7 note=72 velocity=120 time=0
note_on channel=7 note=44 velocity=115 time=0
note_on channel=8 note=44 velocity=123 time=0
note_on channel=8 note=54 velocity=125 time=0
note_on channel=8 note=60 velocity=120 time=0
note_on channel=9 note=35 velocity=116 time=0
note_on channel=9 note=42 velocity=98 time=0
note_on channel=10 note=46 velocity=113 time=8
note_on channel=6 note=46 velocity=127 time=3
note_on channel=6 note=53 velocity=120 time=0
note_on channel=3 note=82 velocity=123 time=0
note_on channel=3 note=85 velocity=125 time=0
note_off channel=8 note=56 velocity=0 time=24
note_off channel=8 note=55 velocity=0 time=4
note_off channel=6 note=48 velocity=0 time=1
note_off channel=4 note=67 velocity=0 time=149
note_off channel=4 note=63 velocity=0 time=0
note_off channel=4 note=67 velocity=0 time=2
note_on channel=4 note=63 velocity=123 time=11
note_on channel=4 note=67 velocity=102 time=0
note_on channel=4 note=72 velocity=116 time=0
note_on channel=7 note=44 velocity=115 time=0
note_on channel=8 note=43 velocity=120 time=0
note_on channel=8 note=53 velocity=96 time=0
note_on channel=8 note=60 velocity=125 time=0
note_on channel=9 note=39 velocity=85 time=0
note_on channel=9 note=40 velocity=116 time=0
note_on channel=9 note=42 velocity=98 time=0
note_on channel=10 note=44 velocity=118 time=8
note_on channel=6 note=48 velocity=127 time=3
note_on channel=6 note=53 velocity=106 time=0
note_off channel=9 note=39 velocity=0 time=18
note_off channel=9 note=42 velocity=0 time=0
note_off channel=9 note=35 velocity=0 time=4
note_off channel=7 note=32 velocity=0 time=7
note_off channel=7 note=74 velocity=0 time=20
note_off channel=7 note=60 velocity=0 time=7
note_off channel=6 note=51 velocity=0 time=0
note_off channel=6 note=55 velocity=0 time=12
note_off channel=7 note=74 velocity=0 time=8
note_off channel=8 note=53 velocity=0 time=8
note_off channel=6 note=46 velocity=0 time=1
note_off channel=8 note=53 velocity=0 time=3
note_off channel=1 note=32 velocity=0 time=9
note_off channel=10 note=44 velocity=0 time=8
note_on channel=1 note=34 velocity=113 time=13
note_on channel=4 note=63 velocity=116 time=0
note_on channel=4 note=67 velocity=97 time=0
note_on channel=4 note=70 velocity=87 time=0
note_on channel=7 note=74 velocity=77 time=0
note_on channel=8 note=48 velocity=127 time=0
note_on channel=8 note=54 velocity=81 time=0
note_on channel=9 note=35 velocity=116 time=0
note_on channel=9 note=42 velocity=98 time=0
note_on channel=10 note=46 velocity=113 time=8
note_on channel=6 note=48 velocity=127 time=3
note_on channel=6 note=55 velocity=120 time=0
note_off channel=9 note=35 velocity=0 time=17
note_off channel=8 note=48 velocity=0 time=36
note_off channel=3 note=80 velocity=0 time=8
note_on channel=1 note=36 velocity=113 time=13
note_on channel=4 note=60 velocity=125 time=0
note_on channel=7 note=67 velocity=110 time=0
note_on channel=7 note=65 velocity=102 time=0
note_on channel=8 note=55 velocity=87 time=0
note_on channel=8 note=55 velocity=123 time=0
note_on channel=8 note=56 velocity=127 time=0
note_on channel=9 note=35 velocity=116 time=0
note_on channel=9 note=42 velocity=98 time=0
note_off channel=8 note=56 velocity=0 time=0
note_off channel=7 note=74 velocity=0 time=2
note_off channel=8 note=58 velocity=0 time=15
note_off channel=6 note=53 velocity=0 time=3
note_off channel=6 note=44 velocity=0 time=17
note_off channel=8 note=48 velocity=0 time=6
note_off channel=8 note=56 velocity=0 time=2
note_off channel=8 note=55 velocity=0 time=15
note_off channel=7 note=63 velocity=0 time=10
note_off channel=8 note=54 velocity=0 time=7
note_off channel=7 note=63 velocity=0 time=4
note_off channel=6 note=48 velocity=0 time=6
note_off channel=3 note=79 velocity=0 time=2
note_on channel=1 note=32 velocity=113 time=19
note_on channel=7 note=38 velocity=102 time=0
note_on channel=7 note=65 velocity=98 time=0
note_on channel=7 note=70 velocity=101 time=0
note_on channel=7 note=74 velocity=110 time=0
note_on channel=8 note=53 velocity=102 time=0
note_off channel=9 note=35 velocity=0 time=0
note_off channel=8 note=56 velocity=0 time=6
note_off channel=6 note=51 velocity=0 time=2
note_off channel=9 note=35 velocity=0 time=10
note_off channel=7 note=65 velocity=0 time=2
note_off channel=7 note=68 velocity=0 time=5
note_off channel=7 note=63 velocity=0 time=0
note_off channel=7 note=67 velocity=0 time=3
note_off channel=6 note=51 velocity=0 time=3
note_off channel=8 note=56 velocity=0 time=1
note_off channel=7 note=62 velocity=0 time=10
note_off channel=8 note=56 velocity=0 time=21
note_off channel=6 note=51 velocity=0 time=5
note_off channel=8 note=53 velocity=0 time=9
note_off channel=8 note=56 velocity=0 time=28
note_off channel=6 note=44 velocity=0 time=9
note_on channel=1 note=32 velocity=118 time=13
note_on channel=4 note=63 velocity=116 time=0
note_on channel=4 note=67 velocity=87 time=0
note_on channel=7 note=72 velocity=110 time=0
note_on channel=7 note=75 velocity=75 time=0
note_on channel=8 note=53 velocity=106 time=0
note_on channel=8 note=56 velocity=111 time=0
note_on channel=9 note=39 velocity=85 time=0
note_on channel=9 note=40 velocity=116 time=0
note_on channel=9 note=42 velocity=98 time=0
note_off channel=9 note=35 velocity=0 time=13
note_off channel=6 note=53 velocity=0 time=4
note_off channel=7 note=70 velocity=0 time=2
note_off channel=8 note=54 velocity=0 time=18
note_off channel=4 note=63 velocity=0 time=87
note_off channel=4 note=67 velocity=0 time=2
note_off channel=4 note=70 velocity=0 time=0
note_off channel=10 note=44 velocity=0 time=8
note_on channel=1 note=32 velocity=113 time=10
note_on channel=7 note=63 velocity=111 time=0
note_on channel=7 note=67 velocity=93 time=0
note_on channel=7 note=70 velocity=106 time=0
note_on channel=7 note=65 velocity=90 time=0
note_on channel=7 note=70 velocity=101 time=0
note_on channel=8 note=55 velocity=102 time=0
note_on channel=8 note=51 velocity=102 time=0
note_on channel=9 note=35 velocity=116 time=0
note_on channel=9 note=53 velocity=106 time=0
note_on channel=10 note=48 velocity=113 time=8
note_on channel=6 note=46 velocity=125 time=3
note_on channel=6 note=53 velocity=102 time=0
note_off channel=9 note=35 velocity=0 time=17
note_off channel=9 note=42 velocity=0 time=0
note_off channel=7 note=74 velocity=0 time=3
note_off channel=8 note=51 velocity=0 time=13
note_off channel=6 note=51 velocity=0 time=16
note_off channel=7 note=67 velocity=0 time=7
note_off channel=6 note=51 velocity=0 time=5
note_off channel=7 note=67 velocity=0 time=7
note_off channel=6 note=51 velocity=0 time=1
note_off channel=7 note=67 velocity=0 time=5
note_off channel=4 note=63 velocity=0 time=1
note_off channel=4 note=70 velocity=0 time=0
note_off channel=1 note=36 velocity=0 time=92
note_off channel=10 note=44 velocity=0 time=8
note_on channel=1 note=36 velocity=113 time=13
note_on channel=4 note=67 velocity=106 time=0
note_on channel=4 note=70 velocity=115 time=0
note_on channel=7 note=32 velocity=115 time=0
note_on channel=7 note=63 velocity=111 time=0
note_on channel=7 note=67 velocity=102 time=0
note_on channel=7 note=72 velocity=123 time=0
note_off channel=8 note=44 velocity=0 time=22
note_off channel=7 note=67 velocity=0 time=5
note_off channel=6 note=55 velocity=0 time=2
note_off channel=6 note=46 velocity=0 time=5
note_off channel=8 note=60 velocity=0 time=1
note_off channel=3 note=82 velocity=0 time=23
note_off channel=8 note=51 velocity=0 time=19
note_off channel=8 note=62 velocity=0 time=7
note_off channel=8 note=63 velocity=0 time=6
note_off channel=6 note=53 velocity=0 time=4
note_off channel=6 note=46 velocity=0 time=15
note_off channel=8 note=58 velocity=0 time=17
note_off channel=8 note=55 velocity=0 time=11
note_off channel=7 note=67 velocity=0 time=8
note_off channel=6 note=48 velocity=0 time=6
note_off channel=8 note=46 velocity=0 time=8
note_off channel=8 note=51 velocity=0 time=22
note_off channel=6 note=53 velocity=0 time=7
note_off channel=8 note=65 velocity=0 time=16
note_off channel=7 note=74 velocity=0 time=7
note_off channel=6 note=55 velocity=0 time=5
note_off channel=4 note=65 velocity=0 time=0
note_off channel=7 note=72 velocity=0 time=34
note_off channel=8 note=51 velocity=0 time=8
note_off channel=6 note=53 velocity=0 time=2
note_off channel=6 note=46 velocity=0 time=6
note_on channel=1 note=32 velocity=113 time=13
note_on channel=7 note=65 velocity=102 time=0
note_on channel=7 note=67 velocity=110 time=0
note_on channel=8 note=46 velocity=116 time=0
note_on channel=8 note=62 velocity=102 time=0
note_on channel=9 note=35 velocity=116 time=0
note_on channel=9 note=42 velocity=98 time=0
note_on channel=10 note=44 velocity=118 time=8
note_on channel=6 note=46 velocity=120 time=3
note_on channel=6 note=53 velocity=127 time=0
note_off channel=9 note=39 velocity=0 time=1
note_off channel=9 note=42 velocity=0 time=0
note_off channel=7 note=72 velocity=0 time=20
note_off channel=6 note=44 velocity=0 time=10
note_off channel=6 note=46 velocity=0 time=34
note_off channel=7 note=74 velocity=0 time=3
note_off channel=6 note=51 velocity=0 time=13
note_off channel=8 note=53 velocity=0 time=4
note_off channel=6 note=46 velocity=0 time=14
note_off channel=10 note=44 velocity=0 time=7
note_on channel=1 note=32 velocity=113 time=13
note_on channel=4 note=63 velocity=116 time=0
note_on channel=4 note=67 velocity=90 time=0
note_on channel=4 note=70 velocity=102 time=0
note_on channel=8 note=46 velocity=127 time=0
note_on channel=9 note=35 velocity=116 time=0
note_on channel=9 note=42 velocity=98 time=0
note_on channel=10 note=44 velocity=118 time=2
note_on channel=6 note=46 velocity=127 time=3
note_on channel=6 note=53 velocity=106 time=0
note_on channel=3 note=82 velocity=116 time=0
note_off channel=9 note=39 velocity=0 time=17
note_off channel=8 note=44 velocity=0 time=4
note_off channel=8 note=53 velocity=0 time=3
note_off channel=6 note=48 velocity=0 time=13
note_off channel=3 note=80 velocity=0 time=67
note_off channel=7 note=65 velocity=0 time=25
note_off channel=7 note=75 velocity=0 time=2
note_off channel=8 note=53 velocity=0 time=2
note_off channel=8 note=53 velocity=0 time=16
note_off channel=3 note=82 velocity=0 time=121
note_off channel=6 note=53 velocity=0 time=4
note_off channel=1 note=36 velocity=0 time=4
note_off channel=10 note=44 velocity=0 time=8
pitchwheel channel=3 pitch=2830 time=19
pitchwheel channel=3 pitch=-4096 time=4
note_on channel=8 note=50 velocity=93 time=11
pitchwheel channel=3 pitch=1170 time=11
pitchwheel channel=3 pitch=4290 time=12
pitchwheel channel=3 pitch=2340 time=10
note_off channel=1 note=36 velocity=0 time=8
note_on channel=1 note=32 velocity=73 time=21
note_on channel=8 note=46 velocity=110 time=0
note_on channel=9 note=40 velocity=49 time=0
note_on channel=9 note=43 velocity=95 time=0
note_off channel=8 note=43 velocity=0 time=34
note_on channel=10 note=43 velocity=113 time=2
note_on channel=6 note=43 velocity=116 time=0
note_on channel=9 note=35 velocity=95 time=0
note_on channel=9 note=40 velocity=98 time=0
note_on channel=9 note=43 velocity=102 time=0
note_on channel=10 note=44 velocity=110 time=0
pitchwheel channel=3 pitch=260 time=4
note_on channel=8 note=53 velocity=91 time=11
pitchwheel channel=3 pitch=-6912 time=10
note_off channel=7 note=60 velocity=0 time=9
note_off channel=7 note=63 velocity=0 time=17
note_off channel=7 note=60 velocity=0 time=45
note_off channel=6 note=44 velocity=0 time=9
note_off channel=9 note=40 velocity=0 time=3
note_off channel=8 note=56 velocity=0 time=9
note_off channel=8 note=66 velocity=0 time=26
note_off channel=6 note=48 velocity=0 time=9
note_off channel=8 note=60 velocity=0 time=22
note_off channel=8 note=58 velocity=0 time=4
note_off channel=8 note=60 velocity=0 time=5
note_off channel=6 note=48 velocity=0 time=6
note_off channel=8 note=60 velocity=0 time=32
note_off channel=8 note=51 velocity=0 time=1
note_off channel=6 note=46 velocity=0 time=17
note_off channel=8 note=53 velocity=0 time=13
note_off channel=8 note=55 velocity=0 time=4
note_off channel=6 note=48 velocity=0 time=14
note_off channel=8 note=53 velocity=0 time=3
note_off channel=1 note=32 velocity=0 time=8
note_off channel=10 note=44 velocity=0 time=8
note_on channel=1 note=36 velocity=118 time=13
note_on channel=4 note=63 velocity=115 time=0
note_on channel=4 note=67 velocity=102 time=0
note_on channel=4 note=70 velocity=102 time=0
note_on channel=7 note=58 velocity=105 time=0
note_on channel=7 note=67 velocity=83 time=0
note_on channel=7 note=67 velocity=81 time=0
note_on channel=7 note=75 velocity=127 time=0
note_on channel=8 note=55 velocity=110 time=0
note_on channel=8 note=60 velocity=116 time=0
note_on channel=9 note=35 velocity=116 time=0
note_on channel=9 note=42 velocity=98 time=0
note_on channel=9 note=42 velocity=98 time=0
note_on channel=10 note=46 velocity=113 time=8
note_on channel=6 note=48 velocity=127 time=3
note_on channel=6 note=53 velocity=125 time=0
note_off channel=9 note=32 velocity=0 time=15
note_off channel=9 note=42 velocity=0 time=0
note_off channel=7 note=61 velocity=0 time=24
note_off channel=7 note=60 velocity=0 time=2
note_off channel=6 note=53 velocity=0 time=13
note_off channel=6 note=46 velocity=0 time=0
note_off channel=8 note=58 velocity=0 time=4
note_off channel=6 note=51 velocity=0 time=6
note_off channel=1 note=32 velocity=0 time=31
note_off channel=10 note=44 velocity=0 time=8
note_on channel=1 note=34 velocity=113 time=13
note_on channel=7 note=37 velocity=115 time=0
note_on channel=7 note=65 velocity=106 time=0
note_on channel=7 note=67 velocity=110 time=0
note_on channel=7 note=72 velocity=83 time=0
note_on channel=7 note=72 velocity=110 time=0
note_on channel=8 note=60 velocity=115 time=0
note_on channel=8 note=51 velocity=123 time=0
note_on channel=8 note=51 velocity=125 time=0
note_on channel=8 note=56 velocity=123 time=0
note_on channel=9 note=35 velocity=116 time=0
note_on channel=9 note=40 velocity=116 time=0
note_on channel=9 note=42 velocity=98 time=0
note_on channel=10 note=48 velocity=113 time=8
note_on channel=6 note=46 velocity=127 time=3
note_on channel=6 note=53 velocity=120 time=0
note_off channel=9 note=35 velocity=0 time=17
note_off channel=9 note=42 velocity=0 time=0
note_off channel=9 note=53 velocity=0 time=24
note_off channel=1 note=32 velocity=0 time=88
note_off channel=10 note=48 velocity=0 time=8
note_off channel=8 note=46 velocity=0 time=8
note_off channel=8 note=55 velocity=0 time=12
note_off channel=7 note=67 velocity=0 time=1
note_off channel=8 note=53 velocity=0 time=3
note_off channel=3 note=79 velocity=0 time=98
note_off channel=1 note=34 velocity=0 time=113
note_off channel=10 note=46 velocity=0 time=8
note_on channel=1 note=34 velocity=113 time=13
note_on channel=7 note=63 velocity=116 time=0
note_on channel=4 note=63 velocity=116 time=0
note_on channel=4 note=70 velocity=87 time=0
note_on channel=7 note=60 velocity=123 time=0
note_off channel=7 note=72 velocity=0 time=5
note_off channel=8 note=51 velocity=0 time=4
note_off channel=8 note=57 velocity=0 time=1
note_off channel=8 note=56 velocity=0 time=13
note_off channel=7 note=65 velocity=0 time=5
note_off channel=8 note=57 velocity=0 time=3
note_off channel=6 note=44 velocity=0 time=45
note_off channel=4 note=72 velocity=0 time=89
note_off channel=1 note=32 velocity=0 time=112
note_off channel=9 note=40 velocity=0 time=0
note_off channel=8 note=56 velocity=0 time=1
note_off channel=4 note=63 velocity=0 time=5
note_off channel=4 note=67 velocity=0 time=1
note_off channel=4 note=70 velocity=0 time=0
note_off channel=1 note=36 velocity=0 time=8
note_off channel=10 note=48 velocity=0 time=8
note_on channel=1 note=32 velocity=118 time=13
note_on channel=7 note=60 velocity=125 time=0
note_on channel=8 note=58 velocity=120 time=0
note_on channel=8 note=56 velocity=116 time=0
note_on channel=9 note=39 velocity=85 time=0
note_on channel=9 note=40 velocity=116 time=0
note_on channel=10 note=46 velocity=113 time=8
note_on channel=6 note=46 velocity=125 time=3
note_on channel=6 note=53 velocity=125 time=0
note_off channel=9 note=35 velocity=0 time=17
note_off channel=9 note=42 velocity=0 time=0
note_off channel=7 note=70 velocity=0 time=17
note_off channel=7 note=63 velocity=0 time=1
note_off channel=6 note=59 velocity=0 time=7
note_off channel=6 note=44 velocity=0 time=1
note_off channel=8 note=60 velocity=0 time=15
note_off channel=3 note=82 velocity=0 time=82
note_off channel=9 note=51 velocity=0 time=59
note_off channel=1 note=32 velocity=0 time=20
note_off channel=10 note=44 velocity=0 time=7
note_on channel=1 note=32 velocity=113 time=13
note_on channel=7 note=65 velocity=98 time=0
note_on channel=7 note=70 velocity=89 time=0
note_on channel=7 note=75 velocity=120 time=0
note_on channel=7 note=65 velocity=74 time=0
note_on channel=7 note=70 velocity=89 time=0
note_on channel=8 note=51 velocity=116 time=0
note_on channel=8 note=51 velocity=123 time=0
note_on channel=8 note=56 velocity=115 time=0
note_on channel=9 note=39 velocity=116 time=0
note_on channel=9 note=40 velocity=116 time=0
note_on channel=9 note=42 velocity=98 time=0
note_on channel=9 note=54 velocity=115 time=0
note_off channel=9 note=42 velocity=0 time=188
note_off channel=7 note=72 velocity=0 time=4
note_off channel=7 note=75 velocity=0 time=5
note_off channel=8 note=51 velocity=0 time=5
note_off channel=3 note=79 velocity=0 time=25
note_off channel=3 note=75 velocity=0 time=29
note_off channel=8 note=52 velocity=0 time=3
note_off channel=9 note=50 velocity=0 time=16
note_off channel=10 note=50 velocity=0 time=0
note_off channel=3 note=75 velocity=0 time=10
note_off channel=8 note=43 velocity=0 time=34
note_off channel=3 note=75 velocity=0 time=7
note_off channel=3 note=79 velocity=0 time=26
note_on channel=1 note=34 velocity=113 time=0
note_on channel=1 note=31 velocity=73 time=14
note_on channel=8 note=43 velocity=120 time=0
note_on channel=9 note=35 velocity=95 time=0
note_on channel=9 note=40 velocity=95 time=0
note_on channel=9 note=43 velocity=106 time=0
note_on channel=9 note=43 velocity=106 time=0
note_on channel=10 note=44 velocity=75 time=0
note_on channel=8 note=50 velocity=91 time=11
note_on channel=10 note=55 velocity=51 time=0
note_off channel=8 note=44 velocity=0 time=34
note_off channel=10 note=46 velocity=0 time=0
note_off channel=7 note=66 velocity=0 time=8
note_on channel=7 note=65 velocity=106 time=182
note_on channel=7 note=63 velocity=116 time=0
note_on channel=7 note=67 velocity=106 time=0
note_on channel=7 note=74 velocity=90 time=0
note_on channel=8 note=53 velocity=93 time=0
note_on channel=8 note=58 velocity=116 time=0
note_on channel=10 note=46 velocity=118 time=8
note_on channel=6 note=46 velocity=127 time=3
note_on channel=6 note=53 velocity=125 time=0
note_off channel=9 note=39 velocity=0 time=17
note_off channel=9 note=42 velocity=0 time=0
note_off channel=9 note=40 velocity=0 time=90
note_on channel=3 note=84 velocity=127 time=0
note_off channel=1 note=34 velocity=0 time=69
note_off channel=10 note=46 velocity=0 time=8
note_on channel=1 note=32 velocity=118 time=13
note_on channel=4 note=63 velocity=123 time=0
note_on channel=4 note=72 velocity=123 time=0
note_on channel=7 note=34 velocity=115 time=0
note_on channel=7 note=67 velocity=110 time=0
note_on channel=8 note=51 velocity=127 time=0
note_on channel=8 note=55 velocity=125 time=0
note_on channel=8 note=53 velocity=115 time=0
note_on channel=8 note=58 velocity=123 time=0
note_on channel=9 note=51 velocity=116 time=0
note_on channel=9 note=44 velocity=95 time=0
note_on channel=9 note=42 velocity=98 time=0
note_on channel=10 note=48 velocity=118 time=8
note_on channel=6 note=44 velocity=116 time=3
note_on channel=6 note=55 velocity=127 time=0
note_off channel=9 note=35 velocity=0 time=1
note_off channel=7 note=72 velocity=0 time=21
note_off channel=8 note=55 velocity=0 time=0
note_off channel=8 note=58 velocity=0 time=3
note_off channel=8 note=58 velocity=0 time=23
note_off channel=8 note=65 velocity=0 time=4
note_off channel=8 note=60 velocity=0 time=1
note_off channel=8 note=56 velocity=0 time=28
note_off channel=1 note=32 velocity=0 time=162
note_off channel=10 note=46 velocity=0 time=8
note_on channel=1 note=36 velocity=118 time=13
note_on channel=4 note=63 velocity=116 time=0
note_on channel=4 note=70 velocity=102 time=0
note_on channel=7 note=38 velocity=115 time=0
note_on channel=7 note=65 velocity=90 time=0
note_on channel=7 note=70 velocity=82 time=0
note_on channel=8 note=53 velocity=95 time=0
note_on channel=8 note=56 velocity=120 time=0
note_on channel=9 note=35 velocity=116 time=0
note_on channel=9 note=42 velocity=98 time=0
note_on channel=9 note=42 velocity=98 time=0
note_on channel=10 note=44 velocity=113 time=8
note_on channel=6 note=44 velocity=127 time=3
note_on channel=6 note=53 velocity=115 time=0
note_off channel=9 note=35 velocity=0 time=1
note_off channel=9 note=42 velocity=0 time=0
note_off channel=9 note=42 velocity=0 time=0
note_off channel=9 note=42 velocity=0 time=0
note_off channel=7 note=60 velocity=0 time=2
note_off channel=7 note=74 velocity=0 time=8
note_off channel=6 note=46 velocity=0 time=9
note_off channel=8 note=46 velocity=0 time=2
note_off channel=8 note=60 velocity=0 time=8
note_off channel=7 note=67 velocity=0 time=8
note_off channel=8 note=58 velocity=0 time=7
note_off channel=8 note=60 velocity=0 time=23
note_off channel=1 note=34 velocity=0 time=68
note_off channel=10 note=48 velocity=0 time=8
note_on channel=1 note=36 velocity=113 time=13
note_on channel=4 note=63 velocity=116 time=0
note_on channel=4 note=67 velocity=87 time=0
note_on channel=4 note=70 velocity=87 time=0
note_on channel=8 note=44 velocity=121 time=0
note_on channel=9 note=42 velocity=98 time=0
note_on channel=10 note=44 velocity=113 time=8
note_on channel=6 note=44 velocity=123 time=3
note_on channel=6 note=53 velocity=125 time=0
note_on channel=3 note=84 velocity=120 time=0
note_off channel=9 note=35 velocity=0 time=17
note_off channel=1 note=34 velocity=0 time=120
note_off channel=10 note=44 velocity=0 time=8
note_on channel=1 note=34 velocity=118 time=13
note_on channel=4 note=63 velocity=116 time=0
note_on channel=4 note=72 velocity=97 time=0
note_on channel=7 note=67 velocity=110 time=0
note_off channel=8 note=53 velocity=0 time=12
note_off channel=7 note=68 velocity=0 time=49
note_off channel=6 note=51 velocity=0 time=8
note_off channel=6 note=44 velocity=0 time=29
note_on channel=4 note=63 velocity=123 time=19
note_on channel=4 note=67 velocity=115 time=0
note_off channel=4 note=67 velocity=0 time=2
note_off channel=4 note=70 velocity=0 time=0
note_off channel=1 note=32 velocity=0 time=91
note_off channel=10 note=44 velocity=0 time=8
note_on channel=1 note=32 velocity=113 time=6
note_on channel=4 note=63 velocity=116 time=0
note_on channel=4 note=72 velocity=127 time=0
note_on channel=7 note=67 velocity=125 time=0
note_on channel=7 note=72 velocity=80 time=0
note_on channel=7 note=72 velocity=125 time=0
note_on channel=8 note=53 velocity=90 time=0
note_on channel=8 note=60 velocity=125 time=0
note_on channel=9 note=35 velocity=116 time=0
note_on channel=9 note=44 velocity=95 time=0
note_on channel=9 note=42 velocity=98 time=0
note_on channel=10 note=48 velocity=113 time=8
note_on channel=6 note=46 velocity=123 time=3
note_on channel=6 note=53 velocity=102 time=0
pitchwheel channel=3 pitch=1550 time=4
pitchwheel channel=3 pitch=2810 time=10
pitchwheel channel=3 pitch=4290 time=11
pitchwheel channel=3 pitch=5080 time=12
note_off channel=9 note=35 velocity=0 time=19
note_off channel=6 note=48 velocity=0 time=30
note_off channel=6 note=43 velocity=0 time=23
note_off channel=1 note=31 velocity=0 time=58
note_on channel=1 note=32 velocity=113 time=6
note_on channel=7 note=51 velocity=116 time=0
note_on channel=7 note=53 velocity=102 time=0
note_on channel=7 note=44 velocity=106 time=0
note_on channel=8 note=43 velocity=101 time=0
note_on channel=9 note=46 velocity=95 time=0
note_on channel=9 note=43 velocity=106 time=0
note_on channel=10 note=44 velocity=105 time=0
note_on channel=8 note=50 velocity=91 time=11
note_on channel=10 note=50 velocity=61 time=0
note_off channel=8 note=46 velocity=0 time=33
note_off channel=10 note=43 velocity=0 time=0
note_off channel=8 note=51 velocity=0 time=8
note_off channel=10 note=46 velocity=0 time=0
note_off channel=9 note=40 velocity=0 time=91
note_off channel=9 note=40 velocity=0 time=0
note_off channel=9 note=44 velocity=0 time=10
note_off channel=9 note=40 velocity=0 time=17
note_off channel=9 note=40 velocity=0 time=0
note_off channel=9 note=49 velocity=0 time=5
note_off channel=9 note=35 velocity=0 time=13
note_off channel=4 note=63 velocity=0 time=29
note_off channel=1 note=31 velocity=0 time=43
note_off channel=9 note=35 velocity=0 time=5
note_off channel=9 note=40 velocity=0 time=7
note_on channel=3 note=75 velocity=127 time=0
note_off channel=1 note=31 velocity=0 time=3
note_off channel=7 note=53 velocity=0 time=3
note_on channel=3 note=79 velocity=115 time=0
note_off channel=9 note=40 velocity=0 time=44
note_off channel=9 note=40 velocity=0 time=0
note_off channel=3 note=79 velocity=0 time=23
note_off channel=3 note=72 velocity=0 time=33
note_off channel=1 note=34 velocity=0 time=122
note_off channel=10 note=44 velocity=0 time=0
note_on channel=1 note=34 velocity=133 time=21
note_on channel=8 note=40 velocity=93 time=0
note_on channel=9 note=35 velocity=95 time=0
note_on channel=9 note=40 velocity=95 time=0
note_on channel=9 note=43 velocity=102 time=0
note_off channel=9 note=35 velocity=0 time=13
note_off channel=9 note=40 velocity=0 time=17
note_off channel=9 note=35 velocity=0 time=3
note_off channel=9 note=42 velocity=0 time=0
note_off channel=7 note=63 velocity=0 time=10
note_off channel=7 note=70 velocity=0 time=3
note_off channel=8 note=55 velocity=0 time=3
note_off channel=6 note=48 velocity=0 time=16
note_off channel=3 note=79 velocity=0 time=65
note_off channel=1 note=36 velocity=0 time=118
note_off channel=10 note=43 velocity=0 time=0
note_on channel=3 note=78 velocity=123 time=0
note_on channel=8 note=53 velocity=91 time=11
pitchwheel channel=3 pitch=1610 time=1
pitchwheel channel=3 pitch=1480 time=13
pitchwheel channel=3 pitch=1950 time=18
pitchwheel channel=3 pitch=2240 time=11
pitchwheel channel=3 pitch=1600 time=10
pitchwheel channel=3 pitch=1560 time=10
note_off channel=9 note=43 velocity=0 time=3
note_off channel=8 note=44 velocity=0 time=16
note_off channel=10 note=50 velocity=0 time=2
note_on channel=10 note=46 velocity=87 time=0
note_on channel=8 note=50 velocity=91 time=11
note_on channel=10 note=53 velocity=57 time=0
note_on channel=8 note=43 velocity=120 time=0
note_on channel=9 note=40 velocity=95 time=0
note_on channel=9 note=40 velocity=95 time=0
note_on channel=9 note=43 velocity=65 time=0
note_on channel=10 note=43 velocity=81 time=0
note_on channel=8 note=50 velocity=91 time=11
note_on channel=10 note=55 velocity=57 time=0
pitchwheel channel=3 pitch=650 time=1
note_off channel=8 note=43 velocity=0 time=35
note_off channel=3 note=75 velocity=0 time=170
note_off channel=8 note=48 velocity=0 time=5
pitchwheel channel=3 pitch=1350 time=10
pitchwheel channel=3 pitch=3570 time=14
pitchwheel channel=3 pitch=1360 time=10
pitchwheel channel=3 pitch=2510 time=11
pitchwheel channel=3 pitch=350 time=10
note_off channel=9 note=43 velocity=0 time=7
note_off channel=9 note=40 velocity=0 time=8
note_off channel=3 note=79 velocity=0 time=21
note_off channel=9 note=40 velocity=0 time=44
note_off channel=9 note=40 velocity=0 time=21
pitchwheel channel=3 pitch=2880 time=8
pitchwheel channel=3 pitch=1430 time=11
note_off channel=3 note=84 velocity=0 time=72
note_off channel=9 note=40 velocity=0 time=4
note_off channel=9 note=40 velocity=0 time=3
note_off channel=8 note=50 velocity=0 time=17
note_off channel=10 note=50 velocity=0 time=0
note_off channel=9 note=46 velocity=0 time=9
pitchwheel channel=3 pitch=2340 time=3
note_off channel=9 note=44 velocity=0 time=19
note_off channel=9 note=40 velocity=0 time=0
note_off channel=7 note=74 velocity=0 time=4
note_off channel=6 note=53 velocity=0 time=5
note_off channel=8 note=60 velocity=0 time=2
note_off channel=8 note=51 velocity=0 time=7
note_off channel=8 note=58 velocity=0 time=4
note_off channel=4 note=63 velocity=0 time=2
note_off channel=4 note=70 velocity=0 time=0
note_off channel=1 note=34 velocity=0 time=19
note_off channel=10 note=44 velocity=0 time=8
note_on channel=1 note=32 velocity=113 time=13
note_on channel=4 note=63 velocity=116 time=0
note_on channel=4 note=70 velocity=101 time=0
note_on channel=7 note=60 velocity=125 time=0
note_on channel=7 note=74 velocity=90 time=0
note_on channel=8 note=51 velocity=128 time=0
note_on channel=8 note=48 velocity=120 time=0
note_on channel=9 note=35 velocity=116 time=0
note_on channel=9 note=42 velocity=95 time=0
note_on channel=9 note=55 velocity=102 time=0
note_on channel=10 note=46 velocity=118 time=8
note_on channel=6 note=46 velocity=123 time=3
note_on channel=6 note=55 velocity=115 time=0
note_on channel=3 note=82 velocity=127 time=0
note_off channel=9 note=35 velocity=0 time=13
note_off channel=9 note=42 velocity=0 time=0
note_off channel=9 note=42 velocity=0 time=0
note_off channel=7 note=74 velocity=0 time=7
note_off channel=6 note=55 velocity=0 time=8
note_off channel=6 note=44 velocity=0 time=2
note_off channel=3 note=79 velocity=0 time=51
note_off channel=1 note=32 velocity=0 time=67
note_off channel=4 note=68 velocity=0 time=1
note_off channel=4 note=70 velocity=0 time=0
note_off channel=1 note=32 velocity=0 time=162
note_off channel=10 note=46 velocity=0 time=8
note_on channel=1 note=32 velocity=113 time=13
note_on channel=4 note=63 velocity=116 time=0
note_on channel=4 note=70 velocity=116 time=0
note_off channel=1 note=32 velocity=0 time=31
note_off channel=10 note=48 velocity=0 time=8
note_on channel=1 note=34 velocity=113 time=3
note_on channel=7 note=62 velocity=102 time=0
note_on channel=7 note=60 velocity=125 time=0
note_on channel=7 note=74 velocity=90 time=0
note_on channel=8 note=53 velocity=93 time=0
note_on channel=8 note=56 velocity=127 time=0
note_on channel=9 note=39 velocity=85 time=0
note_on channel=9 note=40 velocity=116 time=0
note_on channel=9 note=42 velocity=98 time=0
note_on channel=9 note=42 velocity=98 time=0
note_on channel=10 note=44 velocity=113 time=8
note_on channel=6 note=48 velocity=123 time=3
note_on channel=6 note=53 velocity=120 time=0
note_on channel=3 note=74 velocity=120 time=0
note_off channel=1 note=36 velocity=0 time=29
note_off channel=10 note=44 velocity=0 time=8
note_on channel=1 note=31 velocity=113 time=13
note_on channel=5 note=65 velocity=90 time=0
note_on channel=7 note=70 velocity=123 time=0
note_on channel=7 note=70 velocity=110 time=0
note_on channel=8 note=53 velocity=90 time=0
note_on channel=8 note=53 velocity=125 time=0
note_on channel=8 note=53 velocity=98 time=0
note_on channel=9 note=40 velocity=116 time=0
note_on channel=9 note=46 velocity=98 time=0
note_on channel=10 note=48 velocity=118 time=8
note_on channel=6 note=44 velocity=123 time=3
note_on channel=6 note=53 velocity=101 time=0
note_off channel=9 note=39 velocity=0 time=17
note_off channel=9 note=42 velocity=0 time=0
note_off channel=9 note=54 velocity=0 time=0
note_off channel=8 note=51 velocity=0 time=0
note_off channel=6 note=51 velocity=0 time=16
note_off channel=7 note=74 velocity=0 time=9
note_off channel=8 note=54 velocity=0 time=1
note_off channel=6 note=53 velocity=0 time=2
note_off channel=6 note=55 velocity=0 time=11
note_off channel=1 note=34 velocity=0 time=104
note_off channel=10 note=44 velocity=0 time=8
note_on channel=1 note=32 velocity=113 time=9
note_on channel=4 note=63 velocity=116 time=0
note_on channel=4 note=67 velocity=87 time=0
note_on channel=4 note=70 velocity=102 time=0
note_on channel=7 note=75 velocity=121 time=0
note_on channel=7 note=60 velocity=120 time=0
note_on channel=7 note=74 velocity=106 time=0
note_on channel=8 note=53 velocity=102 time=0
note_on channel=8 note=46 velocity=120 time=0
note_on channel=8 note=56 velocity=127 time=0
note_on channel=9 note=35 velocity=116 time=0
note_on channel=9 note=42 velocity=98 time=0
note_on channel=10 note=44 velocity=113 time=8
note_on channel=6 note=46 velocity=116 time=3
note_on channel=6 note=55 velocity=115 time=0
note_off channel=9 note=35 velocity=0 time=17
note_off channel=7 note=62 velocity=0 time=2
note_off channel=7 note=70 velocity=0 time=11
note_off channel=9 note=51 velocity=0 time=7
note_off channel=9 note=40 velocity=0 time=1
note_off channel=9 note=51 velocity=0 time=8
note_off channel=8 note=48 velocity=0 time=7
note_off channel=8 note=60 velocity=0 time=4
note_off channel=6 note=55 velocity=0 time=8
note_off channel=6 note=51 velocity=0 time=2
note_off channel=9 note=43 velocity=0 time=20
note_off channel=6 note=55 velocity=0 time=12
note_off channel=8 note=53 velocity=0 time=16
note_off channel=6 note=46 velocity=0 time=16
note_off channel=6 note=46 velocity=0 time=13
note_off channel=8 note=55 velocity=0 time=8
note_off channel=8 note=56 velocity=0 time=5
note_off channel=8 note=56 velocity=0 time=8
note_off channel=6 note=44 velocity=0 time=5
note_off channel=8 note=53 velocity=0 time=3
note_off channel=6 note=51 velocity=0 time=4
note_off channel=7 note=60 velocity=0 time=2
note_off channel=6 note=48 velocity=0 time=8
note_off channel=8 note=56 velocity=0 time=7
note_off channel=3 note=84 velocity=0 time=0
note_off channel=6 note=55 velocity=0 time=12
note_off channel=8 note=51 velocity=0 time=4
note_off channel=8 note=53 velocity=0 time=6
note_off channel=6 note=44 velocity=0 time=42
note_off channel=1 note=34 velocity=0 time=117
note_off channel=10 note=44 velocity=0 time=8
note_on channel=1 note=32 velocity=118 time=0
note_on channel=3 note=79 velocity=121 time=0
note_on channel=7 note=58 velocity=115 time=0
note_on channel=8 note=46 velocity=127 time=0
note_on channel=9 note=35 velocity=116 time=0
note_off channel=9 note=35 velocity=0 time=17
note_off channel=9 note=42 velocity=0 time=0
note_off channel=7 note=65 velocity=0 time=15
note_off channel=9 note=40 velocity=0 time=0
note_off channel=9 note=53 velocity=0 time=7
note_off channel=8 note=58 velocity=0 time=13
note_off channel=9 note=35 velocity=0 time=17
note_off channel=9 note=40 velocity=0 time=0
note_off channel=9 note=42 velocity=0 time=0
note_off channel=7 note=60 velocity=0 time=96
note_off channel=7 note=72 velocity=0 time=2
note_off channel=8 note=60 velocity=0 time=8
note_off channel=6 note=51 velocity=0 time=6
note_off channel=3 note=84 velocity=0 time=97
note_off channel=8 note=60 velocity=0 time=9
pitchwheel channel=3 pitch=1040 time=4
note_off channel=8 note=53 velocity=0 time=7
note_off channel=1 note=31 velocity=0 time=44
note_off channel=10 note=46 velocity=0 time=0
note_off channel=3 note=79 velocity=0 time=15
note_on channel=3 note=72 velocity=111 time=0
note_on channel=7 note=32 velocity=114 time=19
note_on channel=3 note=72 velocity=123 time=0
note_on channel=8 note=43 velocity=110 time=0
note_on channel=9 note=35 velocity=95 time=0
note_on channel=9 note=40 velocity=95 time=0
note_on channel=9 note=43 velocity=106 time=0
note_on channel=10 note=43 velocity=80 time=0
note_on channel=3 note=79 velocity=76 time=0
note_on channel=8 note=50 velocity=91 time=2
note_on channel=10 note=50 velocity=53 time=0
note_off channel=8 note=43 velocity=0 time=34
note_off channel=10 note=46 velocity=0 time=0
note_off channel=8 note=50 velocity=0 time=11
note_off channel=10 note=53 velocity=0 time=1
note_off channel=10 note=50 velocity=0 time=0
pitchwheel channel=3 pitch=5340 time=16
pitchwheel channel=3 pitch=2730 time=10
note_off channel=9 note=46 velocity=0 time=5
pitchwheel channel=3 pitch=1980 time=12
pitchwheel channel=3 pitch=3380 time=10
note_off channel=9 note=43 velocity=0 time=7
pitchwheel channel=3 pitch=6860 time=5
note_off channel=6 note=48 velocity=0 time=38
note_off channel=10 note=46 velocity=0 time=0
pitchwheel channel=3 pitch=250 time=1
note_off channel=8 note=53 velocity=0 time=11
note_off channel=9 note=43 velocity=0 time=10
note_off channel=9 note=35 velocity=0 time=10
note_off channel=9 note=35 velocity=0 time=4
note_off channel=9 note=40 velocity=0 time=29
note_off channel=1 note=34 velocity=0 time=71
note_off channel=10 note=44 velocity=0 time=0
pitchwheel channel=3 pitch=2730 time=11
pitchwheel channel=3 pitch=-9504 time=6
note_on channel=10 note=44 velocity=110 time=0
note_on channel=8 note=53 velocity=93 time=11
pitchwheel channel=3 pitch=7410 time=5
pitchwheel channel=3 pitch=3550 time=13
note_on channel=9 note=35 velocity=95 time=40
pitchwheel channel=3 pitch=490 time=16
pitchwheel channel=3 pitch=6170 time=10
note_off channel=9 note=44 velocity=0 time=17
pitchwheel channel=3 pitch=390 time=6
note_on channel=9 note=35 velocity=95 time=5
note_on channel=9 note=64 velocity=95 time=0
note_on channel=9 note=40 velocity=98 time=0
note_on channel=9 note=43 velocity=106 time=0
note_on channel=10 note=43 velocity=105 time=0
note_on channel=8 note=51 velocity=93 time=11
note_on channel=10 note=50 velocity=47 time=0
note_off channel=3 note=72 velocity=0 time=8
note_off channel=9 note=40 velocity=0 time=3
note_off channel=9 note=35 velocity=0 time=15
pitchwheel channel=3 pitch=5930 time=29
pitchwheel channel=3 pitch=5380 time=15
pitchwheel channel=3 pitch=2800 time=11
pitchwheel channel=3 pitch=3380 time=12
pitchwheel channel=3 pitch=3770 time=14
note_off channel=8 note=46 velocity=0 time=56
note_off channel=7 note=72 velocity=0 time=4
note_off channel=7 note=67 velocity=0 time=10
note_off channel=8 note=56 velocity=0 time=7
note_off channel=8 note=60 velocity=0 time=2
note_off channel=8 note=51 velocity=0 time=9
note_off channel=8 note=51 velocity=0 time=6
note_off channel=8 note=55 velocity=0 time=1
note_off channel=8 note=60 velocity=0 time=43
note_off channel=6 note=53 velocity=0 time=3
note_off channel=6 note=46 velocity=0 time=9
note_off channel=8 note=55 velocity=0 time=5
note_off channel=8 note=53 velocity=0 time=22
note_off channel=8 note=51 velocity=0 time=4
note_off channel=8 note=63 velocity=0 time=7
note_off channel=8 note=54 velocity=0 time=2
note_off channel=6 note=51 velocity=0 time=5
note_off channel=8 note=56 velocity=0 time=2
note_off channel=8 note=56 velocity=0 time=1
note_off channel=8 note=56 velocity=0 time=6
note_off channel=8 note=55 velocity=0 time=1
note_off channel=6 note=44 velocity=0 time=20
note_off channel=8 note=48 velocity=0 time=10
note_off channel=3 note=84 velocity=0 time=129
note_off channel=4 note=63 velocity=0 time=27
note_off channel=4 note=63 velocity=0 time=0
note_off channel=4 note=70 velocity=0 time=0
note_off channel=7 note=32 velocity=0 time=6
note_off channel=7 note=63 velocity=0 time=1
note_off channel=8 note=53 velocity=0 time=2
note_off channel=8 note=60 velocity=0 time=2
note_off channel=6 note=55 velocity=0 time=3
note_off channel=8 note=53 velocity=0 time=8
note_off channel=7 note=74 velocity=0 time=8
note_off channel=3 note=75 velocity=0 time=14
note_off channel=9 note=55 velocity=0 time=34
note_off channel=8 note=51 velocity=0 time=12
note_off channel=6 note=48 velocity=0 time=0
note_off channel=3 note=75 velocity=0 time=14
note_off channel=1 note=34 velocity=0 time=1
note_off channel=10 note=44 velocity=0 time=8
note_on channel=3 note=82 velocity=123 time=42
note_on channel=1 note=36 velocity=113 time=13
note_on channel=4 note=63 velocity=116 time=0
note_on channel=4 note=70 velocity=101 time=0
note_on channel=7 note=67 velocity=116 time=0
note_on channel=8 note=43 velocity=123 time=0
note_on channel=9 note=35 velocity=116 time=0
note_on channel=9 note=42 velocity=98 time=0
note_on channel=10 note=44 velocity=113 time=8
note_on channel=6 note=48 velocity=120 time=3
note_on channel=6 note=53 velocity=125 time=0
note_on channel=3 note=82 velocity=127 time=0
note_off channel=9 note=39 velocity=0 time=17
note_off channel=7 note=74 velocity=0 time=58
note_off channel=6 note=53 velocity=0 time=2
note_off channel=6 note=44 velocity=0 time=36
note_off channel=8 note=43 velocity=0 time=36
note_off channel=6 note=44 velocity=0 time=23
note_off channel=1 note=32 velocity=0 time=131
note_off channel=10 note=48 velocity=0 time=8
note_on channel=1 note=36 velocity=113 time=13
note_on channel=4 note=63 velocity=116 time=0
note_on channel=4 note=72 velocity=123 time=0
note_on channel=9 note=42 velocity=98 time=0
note_on channel=7 note=70 velocity=101 time=0
note_on channel=8 note=53 velocity=110 time=0
note_on channel=8 note=67 velocity=95 time=0
note_on channel=9 note=35 velocity=116 time=0
note_on channel=9 note=42 velocity=98 time=0
note_off channel=9 note=35 velocity=0 time=17
note_off channel=9 note=40 velocity=0 time=0
note_off channel=9 note=42 velocity=0 time=0
note_off channel=7 note=73 velocity=0 time=4
note_off channel=7 note=67 velocity=0 time=4
note_off channel=6 note=44 velocity=0 time=12
note_off channel=6 note=55 velocity=0 time=13
note_off channel=6 note=48 velocity=0 time=41
note_off channel=4 note=63 velocity=0 time=1061
note_off channel=4 note=67 velocity=0 time=1
note_off channel=4 note=70 velocity=0 time=0
note_on channel=1 note=32 velocity=118 time=13
note_on channel=4 note=67 velocity=102 time=0
note_off channel=4 note=67 velocity=0 time=1
note_off channel=4 note=70 velocity=0 time=0
note_off channel=1 note=34 velocity=0 time=14
note_off channel=10 note=46 velocity=0 time=8
note_on channel=1 note=32 velocity=113 time=13
note_on channel=7 note=60 velocity=125 time=0
note_on channel=8 note=51 velocity=123 time=0
note_on channel=8 note=53 velocity=91 time=0
note_on channel=8 note=70 velocity=123 time=0
note_on channel=9 note=35 velocity=116 time=0
note_on channel=9 note=42 velocity=98 time=0
note_on channel=9 note=42 velocity=98 time=0
note_on channel=10 note=44 velocity=113 time=8
note_on channel=6 note=48 velocity=123 time=3
note_on channel=6 note=53 velocity=83 time=11
note_on channel=3 note=79 velocity=106 time=0
note_off channel=3 note=85 velocity=0 time=1
note_off channel=1 note=31 velocity=0 time=43
note_on channel=1 note=32 velocity=118 time=21
note_on channel=8 note=46 velocity=127 time=0
note_on channel=9 note=35 velocity=95 time=0
note_on channel=9 note=40 velocity=116 time=0
note_on channel=9 note=40 velocity=116 time=0
note_on channel=9 note=42 velocity=98 time=0
note_on channel=10 note=48 velocity=113 time=8
note_on channel=6 note=46 velocity=127 time=3
note_on channel=6 note=55 velocity=115 time=0
note_off channel=9 note=39 velocity=0 time=11
note_off channel=9 note=54 velocity=0 time=0
note_off channel=7 note=74 velocity=0 time=0
note_off channel=7 note=63 velocity=0 time=7
note_off channel=8 note=56 velocity=0 time=4
note_off channel=7 note=75 velocity=0 time=2
note_off channel=8 note=55 velocity=0 time=8
note_off channel=6 note=51 velocity=0 time=21
note_off channel=8 note=51 velocity=0 time=6
note_off channel=6 note=51 velocity=0 time=4
note_off channel=8 note=58 velocity=0 time=6
note_off channel=8 note=53 velocity=0 time=12
note_off channel=8 note=56 velocity=0 time=2
note_off channel=9 note=46 velocity=0 time=1
note_off channel=7 note=75 velocity=0 time=0
note_off channel=7 note=67 velocity=0 time=8
note_off channel=6 note=44 velocity=0 time=6
note_off channel=3 note=79 velocity=0 time=102
note_off channel=1 note=34 velocity=0 time=31
note_off channel=3 note=79 velocity=0 time=6
note_off channel=1 note=34 velocity=0 time=150
note_off channel=10 note=44 velocity=0 time=8
note_on channel=1 note=39 velocity=113 time=0
note_on channel=3 note=79 velocity=102 time=0
note_on channel=7 note=67 velocity=97 time=0
note_on channel=7 note=60 velocity=125 time=0
note_on channel=7 note=76 velocity=123 time=0
note_on channel=8 note=51 velocity=116 time=0
note_on channel=8 note=58 velocity=123 time=0
note_on channel=9 note=40 velocity=85 time=0
note_on channel=9 note=40 velocity=115 time=0
note_on channel=9 note=40 velocity=95 time=0
pitchwheel channel=3 pitch=5420 time=38
pitchwheel channel=3 pitch=2210 time=0
note_on channel=9 note=35 velocity=95 time=0
note_on channel=9 note=40 velocity=98 time=0
note_on channel=9 note=43 velocity=106 time=0
note_off channel=4 note=63 velocity=0 time=57
note_on channel=3 note=79 velocity=115 time=0
note_off channel=1 note=32 velocity=0 time=40
note_on channel=1 note=31 velocity=73 time=1
note_on channel=7 note=65 velocity=114 time=0
note_on channel=7 note=67 velocity=125 time=0
note_on channel=7 note=74 velocity=106 time=0
note_on channel=8 note=53 velocity=123 time=0
note_on channel=8 note=53 velocity=90 time=0
note_on channel=8 note=51 velocity=111 time=0
note_on channel=3 note=84 velocity=110 time=0
note_on channel=8 note=55 velocity=102 time=0
note_on channel=9 note=42 velocity=98 time=0
note_on channel=10 note=46 velocity=113 time=8
note_on channel=6 note=44 velocity=127 time=3
note_on channel=6 note=53 velocity=127 time=0
note_off channel=9 note=39 velocity=0 time=17
note_off channel=9 note=42 velocity=0 time=0
note_off channel=7 note=63 velocity=0 time=7
note_off channel=6 note=53 velocity=0 time=3
note_off channel=8 note=53 velocity=0 time=4
note_off channel=6 note=46 velocity=0 time=13
note_off channel=8 note=60 velocity=0 time=3
note_off channel=8 note=60 velocity=0 time=13
note_off channel=6 note=44 velocity=0 time=7
note_off channel=8 note=60 velocity=0 time=44
note_off channel=8 note=70 velocity=0 time=27
note_off channel=3 note=79 velocity=0 time=56
note_off channel=1 note=32 velocity=0 time=16
note_off channel=10 note=48 velocity=0 time=8
note_on channel=1 note=36 velocity=118 time=13
note_on channel=7 note=63 velocity=116 time=0
note_on channel=7 note=65 velocity=74 time=0
note_on channel=7 note=70 velocity=81 time=0
note_on channel=7 note=65 velocity=75 time=0
note_on channel=8 note=53 velocity=97 time=0
note_on channel=8 note=58 velocity=123 time=0
note_on channel=9 note=35 velocity=116 time=0
note_on channel=9 note=42 velocity=98 time=0
note_on channel=9 note=42 velocity=98 time=0
note_off channel=8 note=54 velocity=0 time=34
note_off channel=7 note=65 velocity=0 time=4
note_off channel=7 note=72 velocity=0 time=7
note_off channel=8 note=55 velocity=0 time=5
note_off channel=6 note=46 velocity=0 time=28
note_off channel=1 note=32 velocity=0 time=118
note_off channel=10 note=48 velocity=0 time=8
note_on channel=1 note=36 velocity=113 time=13
note_on channel=4 note=65 velocity=90 time=0
note_on channel=4 note=70 velocity=101 time=0
note_on channel=7 note=74 velocity=110 time=0
note_on channel=8 note=53 velocity=81 time=0
note_on channel=8 note=58 velocity=125 time=0
note_on channel=9 note=35 velocity=116 time=0
note_on channel=9 note=49 velocity=98 time=0
note_on channel=10 note=46 velocity=113 time=8
note_on channel=6 note=46 velocity=127 time=3
note_on channel=6 note=58 velocity=123 time=0
note_off channel=9 note=42 velocity=0 time=17
note_off channel=9 note=35 velocity=0 time=7
note_off channel=9 note=40 velocity=0 time=0
note_off channel=9 note=42 velocity=0 time=0
note_off channel=7 note=62 velocity=0 time=15
note_off channel=7 note=70 velocity=0 time=2
note_off channel=8 note=65 velocity=0 time=7
note_off channel=6 note=51 velocity=0 time=9
note_off channel=8 note=56 velocity=0 time=2
note_off channel=1 note=36 velocity=0 time=37
note_off channel=10 note=44 velocity=0 time=8
note_on channel=1 note=32 velocity=118 time=13
note_on channel=7 note=65 velocity=74 time=0
note_on channel=7 note=70 velocity=111 time=0
note_on channel=8 note=53 velocity=95 time=0
note_on channel=8 note=51 velocity=102 time=0
note_on channel=8 note=53 velocity=110 time=0
note_on channel=8 note=60 velocity=86 time=0
note_on channel=9 note=35 velocity=116 time=0
note_on channel=9 note=42 velocity=98 time=0
note_on channel=10 note=44 velocity=118 time=8
note_on channel=6 note=46 velocity=127 time=3
note_on channel=6 note=55 velocity=115 time=0
note_off channel=9 note=39 velocity=0 time=28
note_off channel=7 note=70 velocity=0 time=10
note_off channel=8 note=60 velocity=0 time=4
note_off channel=7 note=60 velocity=0 time=3
note_off channel=8 note=51 velocity=0 time=1
note_off channel=8 note=55 velocity=0 time=4
note_off channel=6 note=44 velocity=0 time=10
note_off channel=1 note=32 velocity=0 time=108
note_off channel=2 note=48 velocity=0 time=0
note_off channel=8 note=56 velocity=0 time=2
note_off channel=9 note=51 velocity=0 time=118
note_off channel=1 note=34 velocity=0 time=27
note_off channel=10 note=44 velocity=0 time=8
note_off channel=9 note=54 velocity=0 time=0
note_off channel=7 note=70 velocity=0 time=2
note_off channel=8 note=51 velocity=0 time=8
note_off channel=8 note=65 velocity=0 time=8
note_off channel=8 note=53 velocity=0 time=6
note_off channel=9 note=42 velocity=0 time=0
note_off channel=7 note=67 velocity=0 time=12
note_off channel=6 note=51 velocity=0 time=8
note_off channel=8 note=51 velocity=0 time=7
note_off channel=6 note=46 velocity=0 time=16
note_off channel=6 note=44 velocity=0 time=52
note_off channel=8 note=56 velocity=0 time=3
note_off channel=3 note=84 velocity=0 time=10
note_off channel=1 note=32 velocity=0 time=14
note_off channel=10 note=44 velocity=0 time=8
note_off channel=6 note=44 velocity=0 time=1
note_off channel=8 note=51 velocity=0 time=16
note_off channel=6 note=46 velocity=0 time=15
note_off channel=8 note=60 velocity=0 time=17
note_off channel=8 note=60 velocity=0 time=9
note_off channel=8 note=60 velocity=0 time=2
note_off channel=8 note=56 velocity=0 time=5
note_off channel=8 note=58 velocity=0 time=13
note_off channel=6 note=46 velocity=0 time=15
note_off channel=8 note=54 velocity=0 time=16
note_off channel=1 note=32 velocity=0 time=39
note_off channel=9 note=42 velocity=0 time=0
note_off channel=9 note=40 velocity=0 time=0
note_off channel=7 note=70 velocity=0 time=6
note_off channel=7 note=61 velocity=0 time=7
note_off channel=6 note=46 velocity=0 time=42
note_off channel=6 note=48 velocity=0 time=6
note_off channel=8 note=54 velocity=0 time=0
note_off channel=8 note=48 velocity=0 time=16
note_off channel=1 note=34 velocity=0 time=40
note_off channel=10 note=48 velocity=0 time=7
note_on channel=1 note=34 velocity=118 time=13
note_on channel=8 note=46 velocity=125 time=0
note_on channel=9 note=42 velocity=106 time=0
note_off channel=9 note=42 velocity=0 time=16
note_off channel=7 note=76 velocity=0 time=36
note_off channel=7 note=75 velocity=0 time=4
note_off channel=7 note=67 velocity=0 time=4
note_off channel=6 note=48 velocity=0 time=1
note_off channel=1 note=36 velocity=0 time=12
note_off channel=10 note=48 velocity=0 time=7
note_on channel=1 note=34 velocity=113 time=13
note_on channel=4 note=65 velocity=102 time=0
note_on channel=4 note=70 velocity=97 time=0
note_on channel=7 note=67 velocity=91 time=0
note_on channel=7 note=70 velocity=102 time=0
note_on channel=8 note=50 velocity=102 time=0
note_on channel=9 note=42 velocity=98 time=0
note_on channel=9 note=54 velocity=116 time=0
note_on channel=9 note=51 velocity=123 time=0
note_on channel=10 note=48 velocity=118 time=8
note_on channel=6 note=48 velocity=123 time=3
note_on channel=6 note=51 velocity=127 time=0
note_off channel=9 note=35 velocity=0 time=17
note_off channel=9 note=54 velocity=0 time=0
note_off channel=7 note=67 velocity=0 time=5
note_off channel=7 note=63 velocity=0 time=10
note_off channel=7 note=65 velocity=0 time=4
note_off channel=4 note=63 velocity=0 time=8
note_off channel=4 note=70 velocity=0 time=1
note_off channel=1 note=32 velocity=0 time=108
note_off channel=10 note=48 velocity=0 time=8
note_on channel=1 note=34 velocity=113 time=13
note_on channel=7 note=67 velocity=110 time=0
note_on channel=7 note=63 velocity=106 time=0
note_on channel=8 note=51 velocity=123 time=0
note_on channel=8 note=58 velocity=104 time=0
note_on channel=9 note=35 velocity=116 time=0
note_on channel=9 note=42 velocity=98 time=0
note_off channel=8 note=48 velocity=0 time=17
note_off channel=3 note=80 velocity=0 time=33
note_off channel=9 note=51 velocity=0 time=94
note_off channel=1 note=32 velocity=0 time=63
note_off channel=10 note=46 velocity=0 time=8
note_on channel=1 note=34 velocity=118 time=13
note_on channel=7 note=61 velocity=116 time=0
note_on channel=4 note=67 velocity=110 time=0
note_on channel=7 note=32 velocity=115 time=0
note_on channel=8 note=51 velocity=93 time=0
note_on channel=7 note=68 velocity=127 time=0
note_on channel=8 note=56 velocity=110 time=0
note_on channel=9 note=35 velocity=116 time=0
note_on channel=9 note=42 velocity=98 time=0
note_on channel=10 note=44 velocity=113 time=4
note_on channel=6 note=46 velocity=123 time=3
note_on channel=6 note=53 velocity=120 time=0
note_off channel=9 note=35 velocity=0 time=17
note_off channel=9 note=42 velocity=0 time=0
note_off channel=8 note=60 velocity=0 time=7
note_off channel=8 note=63 velocity=0 time=15
note_off channel=9 note=42 velocity=0 time=0
note_off channel=6 note=50 velocity=0 time=7
note_off channel=7 note=72 velocity=0 time=3
note_off channel=6 note=48 velocity=0 time=6
note_off channel=8 note=60 velocity=0 time=12
note_off channel=8 note=53 velocity=0 time=4
note_off channel=9 note=40 velocity=0 time=1
note_off channel=1 note=34 velocity=0 time=117
note_off channel=10 note=44 velocity=0 time=8
note_on channel=1 note=32 velocity=118 time=9
note_on channel=4 note=65 velocity=102 time=0
note_on channel=7 note=70 velocity=116 time=0
note_off channel=4 note=67 velocity=0 time=4
note_off channel=4 note=70 velocity=0 time=0
note_on channel=4 note=32 velocity=121 time=0
pitchwheel channel=3 pitch=-5548 time=15
pitchwheel channel=3 pitch=1920 time=15
pitchwheel channel=3 pitch=4290 time=10
pitchwheel channel=3 pitch=1550 time=13
pitchwheel channel=3 pitch=1660 time=10
note_off channel=6 note=48 velocity=0 time=36
note_off channel=10 note=43 velocity=0 time=0
note_off channel=8 note=53 velocity=0 time=3
note_off channel=10 note=55 velocity=0 time=0
pitchwheel channel=3 pitch=2950 time=18
pitchwheel channel=3 pitch=1560 time=11
pitchwheel channel=3 pitch=3610 time=15
pitchwheel channel=3 pitch=360 time=13
note_off channel=8 note=43 velocity=0 time=18
note_off channel=10 note=53 velocity=0 time=1
note_off channel=8 note=43 velocity=0 time=5
pitchwheel channel=3 pitch=0 time=1
pitchwheel channel=3 pitch=3470 time=5
pitchwheel channel=3 pitch=-2228 time=15
pitchwheel channel=3 pitch=3770 time=11
pitchwheel channel=3 pitch=-8912 time=10
pitchwheel channel=3 pitch=-5120 time=13
pitchwheel channel=3 pitch=6760 time=13
pitchwheel channel=3 pitch=3040 time=10
pitchwheel channel=3 pitch=2880 time=11
pitchwheel channel=3 pitch=0 time=15
note_off channel=9 note=43 velocity=0 time=12
pitchwheel channel=3 pitch=2080 time=8
note_off channel=9 note=35 velocity=0 time=7
pitchwheel channel=3 pitch=390 time=1
note_on channel=3 note=76 velocity=115 time=0
note_off channel=9 note=35 velocity=0 time=50
note_off channel=9 note=43 velocity=0 time=17
note_off channel=3 note=78 velocity=0 time=10
pitchwheel channel=3 pitch=2200 time=2
pitchwheel channel=3 pitch=-896 time=12
pitchwheel channel=3 pitch=0 time=10
note_off channel=9 note=43 velocity=0 time=9
note_off channel=7 note=70 velocity=0 time=3
note_off channel=8 note=54 velocity=0 time=4
note_off channel=1 note=34 velocity=0 time=9
note_off channel=10 note=44 velocity=0 time=8
note_on channel=1 note=36 velocity=113 time=13
note_on channel=4 note=61 velocity=116 time=0
note_on channel=4 note=70 velocity=81 time=0
note_on channel=7 note=62 velocity=95 time=0
note_on channel=7 note=70 velocity=90 time=0
note_on channel=7 note=72 velocity=120 time=0
note_on channel=8 note=44 velocity=123 time=0
note_on channel=8 note=53 velocity=87 time=0
note_on channel=9 note=35 velocity=116 time=0
note_on channel=9 note=46 velocity=98 time=0
note_on channel=10 note=46 velocity=113 time=8
note_on channel=8 note=43 velocity=121 time=0
note_on channel=6 note=51 velocity=97 time=0
note_off channel=9 note=39 velocity=0 time=17
note_off channel=9 note=40 velocity=0 time=0
note_off channel=9 note=54 velocity=0 time=0
note_off channel=7 note=70 velocity=0 time=92
note_off channel=9 note=45 velocity=0 time=0
note_off channel=7 note=75 velocity=0 time=7
note_off channel=7 note=67 velocity=0 time=5
note_off channel=8 note=65 velocity=0 time=3
note_off channel=6 note=46 velocity=0 time=16
note_off channel=1 note=32 velocity=0 time=172
note_off channel=10 note=46 velocity=0 time=8
note_on channel=1 note=34 velocity=113 time=13
note_on channel=7 note=63 velocity=116 time=0
note_on channel=7 note=67 velocity=110 time=0
note_on channel=7 note=75 velocity=106 time=0
note_on channel=8 note=51 velocity=123 time=0
note_on channel=8 note=55 velocity=95 time=0
note_on channel=8 note=62 velocity=121 time=0
note_on channel=9 note=39 velocity=85 time=0
note_on channel=9 note=40 velocity=116 time=0
note_on channel=9 note=39 velocity=85 time=0
note_on channel=9 note=40 velocity=116 time=0
note_on channel=9 note=42 velocity=98 time=0
note_on channel=10 note=44 velocity=113 time=8
note_on channel=6 note=48 velocity=123 time=3
note_on channel=6 note=53 velocity=120 time=0
note_off channel=9 note=35 velocity=0 time=17
note_off channel=7 note=64 velocity=0 time=2
note_off channel=8 note=53 velocity=0 time=7
note_off channel=6 note=44 velocity=0 time=46
note_off channel=3 note=82 velocity=0 time=8
note_on channel=1 note=32 velocity=113 time=13
note_on channel=7 note=63 velocity=116 time=0
note_on channel=4 note=70 velocity=97 time=0
note_on channel=7 note=75 velocity=123 time=0
note_on channel=7 note=74 velocity=83 time=0
note_on channel=7 note=74 velocity=98 time=0
note_on channel=8 note=51 velocity=111 time=0
note_on channel=8 note=55 velocity=97 time=0
note_on channel=8 note=56 velocity=127 time=0
note_on channel=9 note=39 velocity=85 time=0
note_on channel=9 note=40 velocity=116 time=0
note_on channel=9 note=42 velocity=98 time=0
note_on channel=9 note=42 velocity=98 time=0
note_on channel=10 note=48 velocity=113 time=8
note_on channel=6 note=46 velocity=116 time=3
note_on channel=6 note=53 velocity=120 time=0
note_off channel=9 note=35 velocity=0 time=7
note_off channel=9 note=42 velocity=0 time=0
note_off channel=9 note=42 velocity=0 time=0
note_off channel=7 note=62 velocity=0 time=17
note_off channel=7 note=63 velocity=0 time=3
note_off channel=6 note=51 velocity=0 time=9
note_off channel=6 note=44 velocity=0 time=8
note_off channel=1 note=34 velocity=0 time=21
note_off channel=10 note=44 velocity=0 time=8
note_on channel=1 note=34 velocity=113 time=13
note_on channel=4 note=63 velocity=116 time=0
note_on channel=4 note=70 velocity=116 time=0
note_off channel=1 note=32 velocity=0 time=128
note_off channel=10 note=48 velocity=0 time=8
note_on channel=1 note=32 velocity=113 time=13
note_on channel=7 note=67 velocity=90 time=0
note_on channel=4 note=70 velocity=105 time=0
note_on channel=7 note=70 velocity=105 time=0
note_on channel=7 note=51 velocity=93 time=0
note_on channel=8 note=56 velocity=80 time=0
note_on channel=9 note=42 velocity=98 time=0
note_on channel=10 note=46 velocity=113 time=8
note_on channel=6 note=53 velocity=110 time=0
note_off channel=9 note=39 velocity=0 time=30
note_off channel=7 note=62 velocity=0 time=17
note_off channel=3 note=75 velocity=0 time=2
note_off channel=7 note=51 velocity=0 time=0
note_off channel=6 note=50 velocity=0 time=12
note_off channel=6 note=46 velocity=0 time=34
note_off channel=1 note=34 velocity=0 time=106
note_off channel=10 note=44 velocity=0 time=8
note_on channel=1 note=36 velocity=113 time=13
note_on channel=7 note=67 velocity=110 time=0
note_on channel=8 note=51 velocity=123 time=0
note_on channel=8 note=50 velocity=102 time=0
note_on channel=9 note=35 velocity=116 time=0
note_on channel=9 note=51 velocity=116 time=0
note_on channel=9 note=42 velocity=98 time=0
note_on channel=9 note=51 velocity=116 time=0
note_on channel=9 note=54 velocity=116 time=0
note_on channel=10 note=44 velocity=113 time=8
note_on channel=6 note=46 velocity=120 time=3
note_on channel=6 note=53 velocity=106 time=0
note_off channel=9 note=35 velocity=0 time=17
note_off channel=9 note=42 velocity=0 time=0
note_on channel=3 note=84 velocity=127 time=0
note_off channel=7 note=72 velocity=0 time=9
note_off channel=7 note=72 velocity=0 time=4
note_off channel=8 note=58 velocity=0 time=12
note_off channel=7 note=67 velocity=0 time=7
note_off channel=6 note=46 velocity=0 time=47
note_off channel=8 note=53 velocity=0 time=4
note_off channel=8 note=53 velocity=0 time=3
note_off channel=8 note=60 velocity=0 time=22
note_off channel=7 note=74 velocity=0 time=7
note_off channel=8 note=55 velocity=0 time=7
note_off channel=6 note=51 velocity=0 time=3
note_off channel=6 note=46 velocity=0 time=9
note_off channel=7 note=65 velocity=0 time=18
note_off channel=8 note=65 velocity=0 time=13
note_off channel=6 note=44 velocity=0 time=1
note_off channel=4 note=63 velocity=0 time=39
note_off channel=4 note=67 velocity=0 time=1
note_off channel=4 note=70 velocity=0 time=0
note_on channel=1 note=32 velocity=113 time=3
note_on channel=4 note=63 velocity=116 time=0
note_on channel=4 note=70 velocity=115 time=0
note_on channel=4 note=63 velocity=116 time=0
note_on channel=4 note=70 velocity=115 time=0
note_off channel=1 note=32 velocity=0 time=38
note_off channel=10 note=44 velocity=0 time=8
note_off channel=3 note=72 velocity=0 time=42
note_off channel=10 note=44 velocity=0 time=8
note_on channel=1 note=34 velocity=113 time=13
note_on channel=4 note=63 velocity=116 time=0
note_on channel=4 note=70 velocity=115 time=0
note_on channel=7 note=33 velocity=115 time=0
note_on channel=7 note=67 velocity=106 time=0
note_on channel=7 note=67 velocity=106 time=0
note_on channel=8 note=51 velocity=127 time=0
note_on channel=8 note=60 velocity=127 time=0
note_on channel=8 note=58 velocity=127 time=0
note_on channel=9 note=39 velocity=85 time=0
note_on channel=9 note=49 velocity=95 time=0
note_on channel=9 note=40 velocity=116 time=0
note_on channel=9 note=42 velocity=98 time=0
note_on channel=10 note=44 velocity=113 time=8
note_on channel=6 note=48 velocity=127 time=3
note_on channel=6 note=55 velocity=115 time=0
note_off channel=9 note=53 velocity=0 time=11
note_off channel=9 note=40 velocity=0 time=0
note_off channel=9 note=54 velocity=0 time=0
note_off channel=7 note=65 velocity=0 time=34
note_off channel=7 note=63 velocity=0 time=7
note_off channel=7 note=74 velocity=0 time=5
pitchwheel channel=3 pitch=260 time=5
note_off channel=8 note=46 velocity=0 time=13
note_off channel=10 note=48 velocity=0 time=0
note_off channel=8 note=51 velocity=0 time=5
note_off channel=10 note=50 velocity=0 time=0
pitchwheel channel=3 pitch=8370 time=1
pitchwheel channel=3 pitch=2860 time=13
note_off channel=9 note=43 velocity=0 time=7
note_off channel=9 note=35 velocity=0 time=39
note_off channel=9 note=40 velocity=0 time=30
note_off channel=3 note=82 velocity=0 time=77
note_off channel=7 note=43 velocity=0 time=2
note_off channel=3 note=72 velocity=0 time=63
pitchwheel channel=3 pitch=1430 time=15
note_on channel=1 note=48 velocity=113 time=1
note_on channel=8 note=46 velocity=89 time=0
note_on channel=9 note=35 velocity=95 time=0
note_on channel=9 note=40 velocity=95 time=0
note_on channel=9 note=43 velocity=106 time=0
note_on channel=10 note=43 velocity=61 time=0
note_off channel=8 note=51 velocity=0 time=13
note_off channel=10 note=50 velocity=0 time=0
note_off channel=9 note=43 velocity=0 time=44
note_off channel=9 note=40 velocity=0 time=30
note_off channel=3 note=79 velocity=0 time=34
note_off channel=9 note=40 velocity=0 time=12
note_off channel=9 note=40 velocity=0 time=15
pitchwheel channel=3 pitch=1330 time=2
pitchwheel channel=3 pitch=3470 time=10
pitchwheel channel=3 pitch=390 time=17
note_off channel=4 note=68 velocity=0 time=42
note_off channel=9 note=53 velocity=0 time=3
pitchwheel channel=3 pitch=203 time=2
note_off channel=8 note=51 velocity=0 time=1
pitchwheel channel=3 pitch=360 time=67
note_off channel=8 note=51 velocity=0 time=4
note_off channel=8 note=53 velocity=0 time=3
note_off channel=9 note=51 velocity=0 time=7
note_on channel=1 note=31 velocity=113 time=21
note_on channel=8 note=46 velocity=93 time=0
note_on channel=9 note=35 velocity=95 time=0
note_on channel=9 note=40 velocity=98 time=0
note_on channel=9 note=43 velocity=106 time=0
note_on channel=9 note=43 velocity=106 time=0
note_on channel=10 note=46 velocity=86 time=0
note_on channel=8 note=50 velocity=93 time=11
pitchwheel channel=3 pitch=920 time=10
pitchwheel channel=3 pitch=1430 time=10
note_off channel=9 note=43 velocity=0 time=13
pitchwheel channel=3 pitch=3770 time=8
note_off channel=9 note=40 velocity=0 time=13
note_on channel=3 note=79 velocity=125 time=7
note_on channel=3 note=78 velocity=123 time=0
note_on channel=1 note=32 velocity=73 time=11
note_on channel=8 note=43 velocity=91 time=0
note_on channel=9 note=40 velocity=49 time=0
note_on channel=9 note=43 velocity=49 time=0
note_on channel=10 note=43 velocity=70 time=0
note_on channel=8 note=53 velocity=91 time=11
note_on channel=10 note=50 velocity=56 time=0
note_off channel=8 note=50 velocity=0 time=18
pitchwheel channel=3 pitch=-6884 time=3
note_off channel=8 note=50 velocity=0 time=4
note_off channel=10 note=50 velocity=0 time=0
note_off channel=9 note=43 velocity=0 time=98
note_off channel=9 note=40 velocity=0 time=10
note_off channel=3 note=79 velocity=0 time=91
note_off channel=9 note=43 velocity=0 time=63
pitchwheel channel=3 pitch=2080 time=6
note_on channel=3 note=72 velocity=115 time=184
note_on channel=7 note=44 velocity=114 time=0
note_on channel=7 note=74 velocity=106 time=0
note_on channel=8 note=51 velocity=91 time=0
note_on channel=8 note=56 velocity=86 time=0
note_on channel=9 note=35 velocity=95 time=0
note_on channel=9 note=40 velocity=95 time=0
note_on channel=9 note=43 velocity=106 time=0
note_on channel=10 note=48 velocity=105 time=0
note_on channel=8 note=53 velocity=91 time=11
note_on channel=10 note=53 velocity=57 time=0
note_off channel=8 note=55 velocity=0 time=13
pitchwheel channel=3 pitch=2340 time=3
note_off channel=8 note=53 velocity=0 time=10
note_off channel=8 note=53 velocity=0 time=3
note_off channel=6 note=43 velocity=0 time=38
note_off channel=8 note=53 velocity=0 time=12
note_off channel=9 note=40 velocity=0 time=20
note_off channel=3 note=84 velocity=0 time=69
note_off channel=1 note=31 velocity=0 time=7
note_on channel=1 note=31 velocity=118 time=19
note_on channel=8 note=43 velocity=115 time=0
note_on channel=9 note=43 velocity=95 time=0
note_on channel=10 note=44 velocity=110 time=0
note_on channel=8 note=50 velocity=83 time=4
note_on channel=10 note=55 velocity=51 time=0
note_off channel=8 note=46 velocity=0 time=34
note_off channel=10 note=46 velocity=0 time=0
note_off channel=8 note=53 velocity=0 time=2
note_off channel=10 note=50 velocity=0 time=6
note_on channel=10 note=48 velocity=46 time=0
note_off channel=8 note=50 velocity=0 time=2
note_off channel=10 note=50 velocity=0 time=0
note_off channel=3 note=75 velocity=0 time=26
note_on channel=3 note=75 velocity=127 time=0
note_on channel=8 note=53 velocity=49 time=14
pitchwheel channel=3 pitch=-1172 time=10
pitchwheel channel=3 pitch=920 time=15
pitchwheel channel=3 pitch=5330 time=11
note_off channel=9 note=40 velocity=0 time=18
pitchwheel channel=3 pitch=7980 time=17
pitchwheel channel=3 pitch=1960 time=12
pitchwheel channel=3 pitch=1960 time=14
pitchwheel channel=3 pitch=-3686 time=10
pitchwheel channel=3 pitch=3570 time=10
note_off channel=8 note=43 velocity=0 time=4
note_off channel=10 note=48 velocity=0 time=0
note_off channel=8 note=53 velocity=0 time=13
note_off channel=10 note=50 velocity=0 time=0
note_off channel=3 note=74 velocity=0 time=4
note_off channel=10 note=48 velocity=0 time=38
note_off channel=10 note=50 velocity=0 time=0
note_off channel=5 note=74 velocity=0 time=33
note_off channel=8 note=60 velocity=0 time=7
note_off channel=7 note=72 velocity=0 time=3
note_off channel=8 note=50 velocity=0 time=3
note_off channel=8 note=58 velocity=0 time=3
note_off channel=1 note=31 velocity=0 time=10
note_on channel=1 note=36 velocity=61 time=1
note_on channel=8 note=46 velocity=110 time=0
note_on channel=9 note=40 velocity=49 time=0
note_on channel=9 note=43 velocity=106 time=0
note_off channel=9 note=44 velocity=0 time=15
pitchwheel channel=3 pitch=1300 time=2
pitchwheel channel=3 pitch=2060 time=13
note_off channel=8 note=48 velocity=0 time=6
note_off channel=8 note=50 velocity=0 time=3
note_off channel=8 note=50 velocity=0 time=3
note_off channel=8 note=50 velocity=0 time=7
note_off channel=10 note=50 velocity=0 time=0
note_off channel=9 note=35 velocity=0 time=1
note_off channel=9 note=43 velocity=0 time=18
note_on channel=3 note=75 velocity=111 time=0
note_off channel=9 note=43 velocity=0 time=43
note_off channel=9 note=42 velocity=0 time=92
note_off channel=3 note=79 velocity=0 time=99
note_off channel=9 note=40 velocity=0 time=0
note_off channel=3 note=82 velocity=0 time=9
note_off channel=9 note=42 velocity=0 time=0
note_off channel=3 note=72 velocity=0 time=40
note_off channel=1 note=34 velocity=0 time=38
note_off channel=10 note=44 velocity=0 time=0
note_on channel=1 note=36 velocity=113 time=13
note_on channel=7 note=60 velocity=110 time=0
note_on channel=7 note=75 velocity=125 time=0
note_on channel=8 note=48 velocity=120 time=0
note_on channel=9 note=35 velocity=116 time=0
note_on channel=9 note=40 velocity=116 time=0
note_on channel=9 note=51 velocity=116 time=0
note_on channel=9 note=54 velocity=116 time=0
note_on channel=10 note=46 velocity=113 time=8
note_on channel=6 note=48 velocity=127 time=3
note_on channel=6 note=51 velocity=127 time=0
note_on channel=3 note=84 velocity=106 time=0
note_off channel=3 note=82 velocity=0 time=17
note_off channel=1 note=32 velocity=0 time=15
note_off channel=10 note=46 velocity=0 time=8
note_on channel=1 note=36 velocity=113 time=13
note_on channel=7 note=60 velocity=120 time=0
note_on channel=4 note=70 velocity=115 time=0
note_on channel=8 note=53 velocity=110 time=0
note_on channel=8 note=60 velocity=81 time=0
note_on channel=9 note=35 velocity=116 time=0
note_on channel=10 note=48 velocity=113 time=8
note_on channel=6 note=46 velocity=123 time=3
note_on channel=6 note=55 velocity=115 time=0
note_off channel=9 note=35 velocity=0 time=17
note_off channel=9 note=49 velocity=0 time=0
note_off channel=7 note=63 velocity=0 time=26
note_off channel=8 note=60 velocity=0 time=56
note_off channel=1 note=32 velocity=0 time=11
note_off channel=10 note=48 velocity=0 time=8
note_off channel=3 note=84 velocity=0 time=7
note_on channel=1 note=32 velocity=113 time=0
note_on channel=8 note=44 velocity=123 time=0
note_on channel=9 note=35 velocity=95 time=0
note_on channel=9 note=40 velocity=95 time=0
note_on channel=9 note=42 velocity=98 time=0
note_on channel=10 note=48 velocity=113 time=8
note_on channel=6 note=48 velocity=127 time=3
note_on channel=6 note=53 velocity=115 time=0
note_off channel=9 note=35 velocity=0 time=17
note_off channel=7 note=70 velocity=0 time=9
note_off channel=7 note=65 velocity=0 time=13
note_off channel=7 note=67 velocity=0 time=2
note_off channel=6 note=46 velocity=0 time=3
note_off channel=6 note=46 velocity=0 time=1
note_off channel=8 note=53 velocity=0 time=14
note_off channel=8 note=56 velocity=0 time=21
note_off channel=8 note=53 velocity=0 time=1
note_off channel=8 note=56 velocity=0 time=1
note_off channel=9 note=40 velocity=0 time=15
note_off channel=8 note=56 velocity=0 time=4
note_off channel=1 note=32 velocity=0 time=4
note_off channel=4 note=63 velocity=0 time=2
note_off channel=4 note=67 velocity=0 time=2
note_off channel=4 note=32 velocity=0 time=0
note_off channel=1 note=34 velocity=0 time=118
note_off channel=10 note=44 velocity=0 time=8
note_off channel=8 note=48 velocity=0 time=9
note_off channel=8 note=65 velocity=0 time=12
note_off channel=8 note=60 velocity=0 time=9
note_off channel=7 note=67 velocity=0 time=3
note_off channel=6 note=43 velocity=0 time=57
note_off channel=8 note=55 velocity=0 time=2
note_off channel=8 note=51 velocity=0 time=6
note_off channel=7 note=75 velocity=0 time=3
note_off channel=6 note=44 velocity=0 time=11
note_off channel=8 note=51 velocity=0 time=3
note_off channel=6 note=51 velocity=0 time=13
note_off channel=8 note=56 velocity=0 time=4
note_off channel=6 note=51 velocity=0 time=2
note_off channel=6 note=48 velocity=0 time=17
note_off channel=8 note=60 velocity=0 time=7
note_off channel=4 note=63 velocity=0 time=158
note_off channel=4 note=67 velocity=0 time=2
note_off channel=4 note=70 velocity=0 time=0
note_off channel=1 note=36 velocity=0 time=23
note_off channel=10 note=44 velocity=0 time=8
note_on channel=1 note=32 velocity=118 time=13
note_on channel=7 note=60 velocity=120 time=0
note_on channel=7 note=67 velocity=88 time=0
note_on channel=7 note=75 velocity=125 time=0
note_on channel=7 note=75 velocity=115 time=0
note_on channel=8 note=51 velocity=90 time=0
note_on channel=8 note=56 velocity=127 time=0
note_on channel=9 note=35 velocity=116 time=0
note_on channel=9 note=42 velocity=98 time=0
note_on channel=9 note=51 velocity=127 time=0
note_on channel=10 note=44 velocity=113 time=8
note_on channel=3 note=79 velocity=110 time=0
note_off channel=1 note=32 velocity=0 time=1
note_off channel=10 note=46 velocity=0 time=8
note_on channel=1 note=34 velocity=113 time=13
note_on channel=4 note=65 velocity=70 time=0
note_on channel=7 note=70 velocity=89 time=0
note_on channel=7 note=60 velocity=125 time=0
note_on channel=8 note=55 velocity=102 time=0
note_on channel=8 note=60 velocity=120 time=0
note_on channel=9 note=34 velocity=116 time=0
note_on channel=9 note=42 velocity=98 time=0
note_on channel=9 note=47 velocity=98 time=0
note_on channel=10 note=46 velocity=118 time=8
note_on channel=6 note=46 velocity=127 time=3
note_on channel=6 note=53 velocity=125 time=0
note_off channel=9 note=35 velocity=0 time=17
note_off channel=7 note=60 velocity=0 time=22
note_off channel=7 note=75 velocity=0 time=48
note_off channel=3 note=79 velocity=0 time=94
note_off channel=9 note=42 velocity=0 time=0
note_off channel=7 note=67 velocity=0 time=7
note_off channel=7 note=67 velocity=0 time=4
note_on channel=3 note=82 velocity=123 time=0
note_off channel=1 note=36 velocity=0 time=114
note_off channel=10 note=46 velocity=0 time=8
note_on channel=1 note=36 velocity=118 time=13
note_on channel=7 note=63 velocity=116 time=0
note_on channel=4 note=70 velocity=120 time=0
note_on channel=7 note=56 velocity=115 time=0
note_on channel=7 note=77 velocity=106 time=0
note_on channel=8 note=41 velocity=127 time=0
note_on channel=8 note=56 velocity=127 time=0
note_on channel=9 note=35 velocity=116 time=0
note_on channel=9 note=42 velocity=98 time=0
note_on channel=10 note=44 velocity=118 time=8
note_on channel=6 note=44 velocity=127 time=3
note_on channel=6 note=53 velocity=127 time=0
note_off channel=9 note=35 velocity=0 time=17
note_off channel=9 note=40 velocity=0 time=0
note_on channel=10 note=46 velocity=113 time=2
note_on channel=6 note=55 velocity=125 time=0
note_on channel=3 note=79 velocity=127 time=0
note_on channel=8 note=51 velocity=125 time=0
note_off channel=9 note=35 velocity=0 time=17
note_off channel=7 note=60 velocity=0 time=6
note_off channel=8 note=46 velocity=0 time=4
note_off channel=3 note=82 velocity=0 time=63
note_on channel=3 note=89 velocity=123 time=78
note_off channel=3 note=82 velocity=0 time=18
note_on channel=1 note=32 velocity=127 time=19
note_on channel=6 note=44 velocity=116 time=0
note_on channel=9 note=46 velocity=95 time=0
note_on channel=9 note=40 velocity=98 time=0
note_on channel=9 note=43 velocity=106 time=0
note_on channel=10 note=43 velocity=70 time=0
note_on channel=8 note=50 velocity=110 time=11
note_on channel=10 note=50 velocity=53 time=0
note_off channel=3 note=79 velocity=0 time=70
pitchwheel channel=3 pitch=1170 time=13
pitchwheel channel=3 pitch=0 time=11
note_off channel=1 note=34 velocity=0 time=36
note_off channel=10 note=48 velocity=0 time=0
pitchwheel channel=3 pitch=-5548 time=2
pitchwheel channel=3 pitch=6370 time=21
pitchwheel channel=3 pitch=3510 time=10
note_on channel=8 note=55 velocity=83 time=10
note_on channel=10 note=50 velocity=51 time=0
pitchwheel channel=3 pitch=6370 time=24
pitchwheel channel=3 pitch=7900 time=13
note_off channel=9 note=43 velocity=0 time=47
pitchwheel channel=3 pitch=2730 time=2
note_on channel=9 note=40 velocity=95 time=53
note_off channel=9 note=35 velocity=0 time=6
note_on channel=3 note=79 velocity=101 time=0
note_off channel=9 note=35 velocity=0 time=6
note_off channel=9 note=40 velocity=0 time=14
note_off channel=9 note=42 velocity=0 time=0
note_off channel=7 note=32 velocity=0 time=85
note_off channel=3 note=79 velocity=0 time=3
note_on channel=1 note=31 velocity=113 time=13
note_on channel=8 note=48 velocity=69 time=0
note_on channel=9 note=46 velocity=95 time=0
note_on channel=9 note=43 velocity=49 time=0
note_on channel=9 note=43 velocity=49 time=0
note_on channel=10 note=43 velocity=76 time=0
note_on channel=8 note=50 velocity=97 time=8
note_on channel=10 note=53 velocity=93 time=9
note_on channel=10 note=55 velocity=53 time=0
note_off channel=8 note=43 velocity=0 time=17
pitchwheel channel=3 pitch=2230 time=3
pitchwheel channel=3 pitch=220 time=10
note_off channel=8 note=43 velocity=0 time=1
note_off channel=8 note=55 velocity=0 time=6
note_off channel=10 note=55 velocity=0 time=0
note_off channel=9 note=35 velocity=0 time=6
note_off channel=9 note=35 velocity=0 time=17
note_off channel=9 note=40 velocity=0 time=0
note_off channel=9 note=53 velocity=0 time=7
note_on channel=3 note=82 velocity=127 time=0
pitchwheel channel=3 pitch=2470 time=21
pitchwheel channel=3 pitch=2730 time=10
note_off channel=9 note=46 velocity=0 time=28
note_off channel=9 note=40 velocity=0 time=18
pitchwheel channel=3 pitch=4390 time=10
pitchwheel channel=3 pitch=9030 time=11
note_off channel=9 note=40 velocity=0 time=26
note_off channel=9 note=43 velocity=0 time=3
note_off channel=9 note=35 velocity=0 time=22
note_off channel=9 note=35 velocity=0 time=6
note_off channel=3 note=79 velocity=0 time=20
note_off channel=1 note=34 velocity=0 time=9
note_off channel=10 note=44 velocity=0 time=0
note_on channel=3 note=79 velocity=127 time=0
note_off channel=9 note=40 velocity=0 time=18
note_off channel=9 note=42 velocity=0 time=0
note_off channel=9 note=40 velocity=0 time=18
note_off channel=8 note=55 velocity=0 time=2
note_off channel=8 note=51 velocity=0 time=0
note_off channel=10 note=53 velocity=0 time=5
note_off channel=1 note=31 velocity=0 time=181
note_on channel=1 note=31 velocity=113 time=8
note_on channel=5 note=63 velocity=116 time=0
note_on channel=7 note=32 velocity=114 time=0
note_on channel=7 note=56 velocity=111 time=0
note_on channel=7 note=74 velocity=106 time=0
note_on channel=8 note=51 velocity=123 time=0
note_on channel=8 note=56 velocity=123 time=0
note_on channel=9 note=35 velocity=95 time=0
note_on channel=9 note=40 velocity=98 time=0
note_on channel=9 note=43 velocity=102 time=0
note_on channel=10 note=44 velocity=110 time=0
note_on channel=8 note=51 velocity=91 time=10
pitchwheel channel=3 pitch=3380 time=1
note_off channel=9 note=44 velocity=0 time=7
note_off channel=9 note=35 velocity=0 time=0
note_off channel=9 note=49 velocity=0 time=0
note_off channel=6 note=55 velocity=0 time=45
note_off channel=8 note=51 velocity=0 time=2
note_off channel=7 note=67 velocity=0 time=4
note_off channel=6 note=46 velocity=0 time=1
note_off channel=3 note=82 velocity=0 time=45
note_off channel=8 note=51 velocity=0 time=6
note_off channel=7 note=63 velocity=0 time=8
note_off channel=6 note=44 velocity=0 time=9
note_on channel=1 note=32 velocity=113 time=1
note_on channel=7 note=65 velocity=102 time=0
note_on channel=4 note=70 velocity=102 time=0
note_on channel=7 note=63 velocity=115 time=0
note_on channel=7 note=65 velocity=98 time=0
note_on channel=7 note=70 velocity=105 time=0
note_on channel=8 note=54 velocity=102 time=0
note_on channel=8 note=60 velocity=116 time=0
note_on channel=9 note=35 velocity=116 time=0
note_on channel=9 note=42 velocity=98 time=0
note_on channel=10 note=48 velocity=113 time=8
note_on channel=6 note=44 velocity=123 time=3
note_on channel=6 note=53 velocity=115 time=0
note_on channel=3 note=82 velocity=127 time=0
note_off channel=9 note=35 velocity=0 time=17
note_off channel=9 note=49 velocity=0 time=0
note_off channel=9 note=54 velocity=0 time=0
note_off channel=7 note=70 velocity=0 time=28
note_off channel=7 note=63 velocity=0 time=2
note_off channel=7 note=62 velocity=0 time=4
note_off channel=6 note=51 velocity=0 time=0
note_off channel=7 note=67 velocity=0 time=10
note_off channel=8 note=56 velocity=0 time=26
note_off channel=8 note=56 velocity=0 time=12
note_off channel=6 note=46 velocity=0 time=11
note_off channel=1 note=34 velocity=0 time=8
note_off channel=10 note=44 velocity=0 time=8
note_on channel=1 note=34 velocity=113 time=13
note_on channel=4 note=65 velocity=102 time=0
note_on channel=7 note=67 velocity=90 time=0
note_on channel=7 note=70 velocity=89 time=0
note_on channel=7 note=72 velocity=125 time=0
note_on channel=7 note=74 velocity=96 time=0
note_on channel=8 note=56 velocity=86 time=0
note_on channel=8 note=58 velocity=127 time=0
note_on channel=9 note=35 velocity=116 time=0
note_on channel=9 note=40 velocity=116 time=0
note_on channel=9 note=40 velocity=116 time=0
note_on channel=9 note=35 velocity=116 time=0
note_on channel=9 note=42 velocity=98 time=0
note_on channel=10 note=48 velocity=113 time=8
note_on channel=6 note=46 velocity=127 time=3
note_on channel=6 note=53 velocity=110 time=0
note_off channel=9 note=35 velocity=0 time=17
note_off channel=9 note=42 velocity=0 time=0
note_on channel=3 note=79 velocity=125 time=0
note_off channel=1 note=32 velocity=0 time=57
note_off channel=10 note=46 velocity=0 time=8
note_on channel=1 note=34 velocity=113 time=13
note_on channel=4 note=63 velocity=116 time=0
note_on channel=4 note=67 velocity=87 time=0
note_on channel=4 note=70 velocity=87 time=0
note_on channel=7 note=62 velocity=114 time=0
note_on channel=7 note=75 velocity=125 time=0
note_on channel=8 note=54 velocity=98 time=0
note_on channel=8 note=60 velocity=120 time=0
note_on channel=9 note=42 velocity=98 time=0
note_on channel=10 note=48 velocity=113 time=8
note_on channel=6 note=48 velocity=127 time=3
note_on channel=6 note=53 velocity=98 time=0
note_on channel=3 note=82 velocity=123 time=0
note_off channel=9 note=35 velocity=0 time=1
note_off channel=9 note=42 velocity=0 time=0
note_off channel=7 note=63 velocity=0 time=34
note_off channel=7 note=70 velocity=0 time=2
note_off channel=7 note=74 velocity=0 time=2
note_off channel=7 note=32 velocity=0 time=8
note_off channel=6 note=53 velocity=0 time=3
note_off channel=8 note=51 velocity=0 time=11
note_off channel=6 note=44 velocity=0 time=1
note_off channel=8 note=51 velocity=0 time=6
note_off channel=8 note=60 velocity=0 time=3
note_off channel=1 note=32 velocity=0 time=7
note_off channel=3 note=65 velocity=0 time=111
note_off channel=7 note=75 velocity=0 time=58
note_off channel=6 note=53 velocity=0 time=4
note_off channel=8 note=58 velocity=0 time=3
note_off channel=1 note=32 velocity=0 time=94
note_off channel=10 note=46 velocity=0 time=8
note_on channel=1 note=36 velocity=118 time=13
note_on channel=7 note=67 velocity=102 time=0
note_on channel=7 note=70 velocity=116 time=0
note_on channel=7 note=74 velocity=90 time=0
note_on channel=8 note=51 velocity=101 time=0
note_on channel=8 note=53 velocity=87 time=0
note_on channel=8 note=58 velocity=123 time=0
note_on channel=9 note=35 velocity=116 time=0
note_on channel=9 note=42 velocity=98 time=0
note_on channel=10 note=48 velocity=113 time=8
note_on channel=6 note=48 velocity=127 time=3
note_on channel=6 note=55 velocity=115 time=0
note_off channel=7 note=67 velocity=0 time=1
note_off channel=6 note=44 velocity=0 time=31
note_off channel=8 note=60 velocity=0 time=2
note_off channel=3 note=80 velocity=0 time=1
note_on channel=1 note=34 velocity=113 time=0
note_on channel=3 note=82 velocity=127 time=0
note_off channel=3 note=82 velocity=0 time=18
note_off channel=4 note=70 velocity=0 time=9
note_off channel=1 note=34 velocity=0 time=8
note_off channel=10 note=44 velocity=0 time=8
note_on channel=1 note=34 velocity=118 time=13
note_on channel=7 note=63 velocity=116 time=0
note_on channel=4 note=70 velocity=110 time=0
note_on channel=7 note=72 velocity=123 time=0
note_on channel=7 note=74 velocity=106 time=0
note_on channel=8 note=53 velocity=83 time=0
note_on channel=8 note=53 velocity=83 time=0
note_on channel=8 note=58 velocity=86 time=0
note_on channel=9 note=35 velocity=116 time=0
note_on channel=9 note=42 velocity=98 time=0
note_on channel=10 note=44 velocity=113 time=8
note_on channel=6 note=46 velocity=127 time=3
note_on channel=6 note=55 velocity=110 time=0
note_off channel=9 note=35 velocity=0 time=13
note_off channel=9 note=42 velocity=0 time=0
note_off channel=6 note=44 velocity=0 time=20
note_off channel=6 note=46 velocity=0 time=6
note_off channel=8 note=60 velocity=0 time=3
note_off channel=8 note=58 velocity=0 time=7
note_off channel=8 note=34 velocity=0 time=1
note_off channel=8 note=58 velocity=0 time=4
note_off channel=7 note=78 velocity=0 time=14
note_off channel=7 note=72 velocity=0 time=4
note_off channel=7 note=67 velocity=0 time=0
note_off channel=7 note=67 velocity=0 time=3
note_off channel=6 note=46 velocity=0 time=5
note_off channel=3 note=79 velocity=0 time=10
note_off channel=7 note=65 velocity=0 time=1
note_off channel=7 note=72 velocity=0 time=3
note_off channel=6 note=46 velocity=0 time=7
note_off channel=8 note=60 velocity=0 time=94
note_off channel=6 note=46 velocity=0 time=26
note_off channel=8 note=60 velocity=0 time=17
note_off channel=1 note=34 velocity=0 time=17
note_off channel=10 note=44 velocity=0 time=8
note_on channel=1 note=32 velocity=118 time=13
note_on channel=7 note=67 velocity=90 time=0
note_on channel=7 note=70 velocity=111 time=0
note_on channel=7 note=75 velocity=127 time=0
note_on channel=8 note=46 velocity=128 time=0
note_on channel=7 note=67 velocity=102 time=0
note_on channel=8 note=56 velocity=127 time=0
note_on channel=9 note=35 velocity=116 time=0
note_on channel=9 note=42 velocity=98 time=0
note_on channel=10 note=48 velocity=113 time=8
note_on channel=6 note=46 velocity=123 time=3
note_on channel=6 note=53 velocity=106 time=0
note_off channel=9 note=35 velocity=0 time=13
note_off channel=9 note=40 velocity=0 time=0
note_off channel=9 note=42 velocity=0 time=0
note_off channel=9 note=54 velocity=0 time=0
note_off channel=7 note=61 velocity=0 time=7
note_off channel=7 note=67 velocity=0 time=11
note_off channel=6 note=46 velocity=0 time=8
note_off channel=8 note=53 velocity=0 time=4
note_off channel=8 note=51 velocity=0 time=6
note_off channel=6 note=53 velocity=0 time=14
note_off channel=8 note=58 velocity=0 time=2
note_off channel=1 note=36 velocity=0 time=51
note_off channel=10 note=46 velocity=0 time=8
note_on channel=1 note=32 velocity=113 time=3
note_on channel=4 note=63 velocity=116 time=0
note_on channel=4 note=70 velocity=102 time=0
note_on channel=7 note=60 velocity=116 time=0
note_on channel=7 note=72 velocity=110 time=0
note_off channel=7 note=44 velocity=0 time=65
note_off channel=3 note=82 velocity=0 time=30
note_off channel=1 note=34 velocity=0 time=7
note_off channel=10 note=48 velocity=0 time=8
note_on channel=1 note=32 velocity=118 time=13
note_on channel=7 note=65 velocity=90 time=0
note_on channel=7 note=70 velocity=110 time=0
note_on channel=7 note=62 velocity=115 time=0
note_on channel=7 note=74 velocity=97 time=0
note_on channel=8 note=53 velocity=110 time=0
note_on channel=8 note=56 velocity=86 time=0
note_on channel=9 note=35 velocity=116 time=0
note_on channel=9 note=42 velocity=98 time=0
note_on channel=9 note=59 velocity=115 time=0
note_on channel=9 note=51 velocity=127 time=0
note_on channel=10 note=46 velocity=113 time=8
note_on channel=6 note=44 velocity=123 time=3
note_on channel=6 note=53 velocity=115 time=0
note_on channel=3 note=82 velocity=123 time=0
note_on channel=3 note=82 velocity=127 time=0
note_off channel=9 note=32 velocity=0 time=17
note_off channel=9 note=51 velocity=0 time=0
note_off channel=9 note=54 velocity=0 time=0
note_off channel=1 note=32 velocity=0 time=47
note_off channel=10 note=44 velocity=0 time=8
note_on channel=1 note=36 velocity=118 time=0
note_on channel=3 note=80 velocity=127 time=0
note_on channel=8 note=48 velocity=123 time=0
note_on channel=9 note=35 velocity=95 time=0
note_on channel=9 note=40 velocity=95 time=0
note_on channel=9 note=43 velocity=98 time=0
note_off channel=3 note=82 velocity=0 time=36
note_off channel=1 note=46 velocity=0 time=21
note_on channel=1 note=48 velocity=118 time=21
note_on channel=8 note=46 velocity=121 time=0
note_on channel=9 note=35 velocity=95 time=0
note_on channel=9 note=40 velocity=95 time=0
note_on channel=9 note=43 velocity=106 time=0
note_on channel=10 note=46 velocity=79 time=0
note_on channel=8 note=50 velocity=91 time=11
note_on channel=10 note=50 velocity=53 time=0
note_off channel=8 note=43 velocity=0 time=59
note_off channel=10 note=43 velocity=0 time=0
note_off channel=8 note=53 velocity=0 time=5
note_off channel=10 note=50 velocity=0 time=0
note_off channel=9 note=40 velocity=0 time=11
note_off channel=9 note=40 velocity=0 time=0
note_off channel=3 note=79 velocity=0 time=71
note_on channel=3 note=79 velocity=110 time=0
note_off channel=8 note=46 velocity=0 time=29
note_off channel=10 note=48 velocity=0 time=0
pitchwheel channel=3 pitch=1360 time=3
note_on channel=1 note=34 velocity=113 time=29
note_on channel=8 note=43 velocity=120 time=0
note_on channel=9 note=35 velocity=95 time=0
note_on channel=9 note=40 velocity=98 time=0
note_on channel=9 note=43 velocity=106 time=0
note_on channel=10 note=46 velocity=63 time=0
note_on channel=8 note=53 velocity=91 time=11
note_on channel=10 note=50 velocity=55 time=0
note_off channel=8 note=50 velocity=0 time=9
note_off channel=10 note=50 velocity=0 time=0
note_off channel=8 note=43 velocity=0 time=36
note_off channel=10 note=46 velocity=0 time=0
note_off channel=8 note=53 velocity=0 time=2
note_off channel=10 note=50 velocity=0 time=0
note_off channel=9 note=43 velocity=0 time=21
note_off channel=9 note=43 velocity=0 time=58
note_off channel=7 note=60 velocity=0 time=13
note_on channel=7 note=63 velocity=125 time=0
note_on channel=3 note=75 velocity=101 time=26
note_on channel=1 note=36 velocity=106 time=21
note_on channel=8 note=44 velocity=111 time=0
note_on channel=9 note=46 velocity=95 time=0
note_on channel=10 note=46 velocity=110 time=0
note_on channel=8 note=53 velocity=93 time=11
pitchwheel channel=3 pitch=510 time=5
pitchwheel channel=3 pitch=7800 time=10
note_off channel=9 note=35 velocity=0 time=8
note_on channel=3 note=75 velocity=110 time=5
note_off channel=9 note=42 velocity=0 time=23
note_off channel=7 note=72 velocity=0 time=25
note_off channel=7 note=75 velocity=0 time=13
note_off channel=4 note=63 velocity=0 time=0
note_off channel=4 note=67 velocity=0 time=3
note_off channel=1 note=31 velocity=0 time=6
note_on channel=1 note=34 velocity=118 time=21
note_on channel=8 note=48 velocity=110 time=0
note_on channel=9 note=35 velocity=95 time=0
note_on channel=9 note=40 velocity=98 time=0
note_on channel=9 note=43 velocity=106 time=0
note_on channel=10 note=46 velocity=62 time=0
pitchwheel channel=3 pitch=650 time=16
pitchwheel channel=3 pitch=2650 time=10
note_off channel=8 note=46 velocity=0 time=3
note_off channel=10 note=43 velocity=0 time=0
note_on channel=8 note=50 velocity=83 time=11
note_on channel=10 note=53 velocity=51 time=0
pitchwheel channel=3 pitch=260 time=1
pitchwheel channel=3 pitch=5080 time=10
note_off channel=9 note=35 velocity=0 time=17
note_off channel=9 note=40 velocity=0 time=1
note_off channel=9 note=35 velocity=0 time=17
note_off channel=9 note=40 velocity=0 time=23
note_off channel=9 note=43 velocity=0 time=31
note_off channel=7 note=70 velocity=0 time=6
note_off channel=3 note=74 velocity=0 time=195
note_on channel=1 note=32 velocity=113 time=5
note_on channel=7 note=63 velocity=146 time=0
note_on channel=7 note=60 velocity=116 time=0
note_on channel=8 note=43 velocity=121 time=0
note_on channel=9 note=35 velocity=95 time=0
note_on channel=9 note=40 velocity=98 time=0
note_on channel=9 note=43 velocity=106 time=0
note_on channel=10 note=46 velocity=108 time=0
pitchwheel channel=3 pitch=2260 time=5
pitchwheel channel=3 pitch=0 time=1
note_off channel=8 note=46 velocity=0 time=13
note_off channel=3 note=75 velocity=0 time=20
note_on channel=3 note=75 velocity=110 time=0
note_on channel=9 note=40 velocity=49 time=12
note_on channel=3 note=74 velocity=115 time=0
note_off channel=1 note=31 velocity=0 time=13
note_on channel=1 note=31 velocity=61 time=31
note_on channel=8 note=48 velocity=102 time=0
note_on channel=9 note=35 velocity=95 time=0
note_on channel=9 note=40 velocity=95 time=0
note_on channel=9 note=43 velocity=106 time=0
note_off channel=3 note=72 velocity=0 time=152
note_off channel=1 note=32 velocity=0 time=40
note_off channel=3 note=72 velocity=0 time=7
note_off channel=3 note=79 velocity=0 time=96
note_off channel=1 note=32 velocity=0 time=7
note_off channel=10 note=43 velocity=0 time=0
pitchwheel channel=3 pitch=0 time=1
note_on channel=1 note=32 velocity=118 time=1
note_on channel=8 note=43 velocity=101 time=0
note_on channel=9 note=35 velocity=95 time=0
note_on channel=9 note=35 velocity=95 time=0
note_on channel=9 note=40 velocity=98 time=0
note_on channel=9 note=40 velocity=98 time=0
note_on channel=9 note=43 velocity=95 time=0
note_on channel=10 note=43 velocity=105 time=0
note_off channel=8 note=43 velocity=0 time=15
note_off channel=10 note=50 velocity=0 time=0
note_off channel=1 note=31 velocity=0 time=48
note_off channel=10 note=43 velocity=0 time=0
note_on channel=1 note=36 velocity=113 time=2
note_on channel=4 note=70 velocity=127 time=0
note_on channel=7 note=74 velocity=92 time=0
note_on channel=8 note=44 velocity=106 time=0
note_on channel=9 note=35 velocity=95 time=0
note_on channel=9 note=40 velocity=98 time=0
note_on channel=9 note=43 velocity=95 time=0
note_on channel=9 note=43 velocity=102 time=0
note_on channel=10 note=48 velocity=68 time=0
pitchwheel channel=3 pitch=2080 time=6
note_on channel=10 note=48 velocity=71 time=0
note_off channel=8 note=53 velocity=0 time=6
note_off channel=6 note=43 velocity=0 time=13
note_off channel=10 note=43 velocity=0 time=0
note_off channel=8 note=50 velocity=0 time=2
note_off channel=3 note=72 velocity=0 time=52
note_off channel=1 note=31 velocity=0 time=8
note_off channel=10 note=43 velocity=0 time=0
note_on channel=3 note=75 velocity=102 time=0
note_off channel=3 note=72 velocity=0 time=2
note_on channel=1 note=34 velocity=73 time=21
note_on channel=8 note=46 velocity=102 time=0
note_on channel=9 note=35 velocity=95 time=0
note_on channel=9 note=40 velocity=98 time=0
note_on channel=9 note=43 velocity=95 time=0
note_on channel=10 note=43 velocity=105 time=0
note_on channel=8 note=50 velocity=91 time=11
note_on channel=3 note=79 velocity=102 time=0
note_on channel=8 note=53 velocity=95 time=11
note_on channel=10 note=43 velocity=65 time=0
pitchwheel channel=3 pitch=6370 time=5
pitchwheel channel=3 pitch=-8912 time=10
note_off channel=8 note=44 velocity=0 time=18
note_off channel=10 note=48 velocity=0 time=0
note_off channel=8 note=53 velocity=0 time=7
note_off channel=10 note=53 velocity=0 time=8
note_off channel=9 note=35 velocity=0 time=14
note_o8f channel=9 note=40 velocity=0 time=0
note_off channel=9 note=40 velocity=0 time=0
note_off channel=9 note=40 velocity=0 time=17
note_off channel=9 note=40 velocity=0 time=34
note_off channel=3 note=75 velocity=0 time=13
note_on channel=1 note=34 velocity=78 time=21
note_on channel=8 note=43 velocity=110 time=0
note_on channel=9 note=35 velocity=95 time=0
note_on channel=9 note=40 velocity=98 time=0
note_on channel=9 note=43 velocity=106 time=0
note_on channel=10 note=43 velocity=105 time=0
note_on channel=8 note=51 velocity=101 time=11
note_on channel=10 note=53 velocity=57 time=0
note_off channel=8 note=43 velocity=0 time=26
note_off channel=10 note=43 velocity=0 time=0
note_on channel=8 note=48 velocity=89 time=7
note_on channel=10 note=43 velocity=110 time=0
note_on channel=8 note=53 velocity=110 time=3
pitchwheel channel=3 pitch=1170 time=10
pitchwheel channel=3 pitch=3470 time=19
note_off channel=9 note=35 velocity=0 time=11
pitchwheel channel=3 pitch=6630 time=1
note_off channel=9 note=40 velocity=0 time=34
note_off channel=9 note=40 velocity=0 time=11
pitchwheel channel=3 pitch=1560 time=6
pitchwheel channel=3 pitch=2730 time=13
note_on channel=9 note=35 velocity=95 time=0
note_on channel=9 note=43 velocity=95 time=0
note_off channel=9 note=43 velocity=0 time=26
pitchwheel channel=3 pitch=4030 time=10
note_off channel=1 note=31 velocity=0 time=119
note_on channel=1 note=34 velocity=65 time=3
note_on channel=8 note=43 velocity=100 time=0
note_on channel=9 note=35 velocity=95 time=0
note_on channel=9 note=40 velocity=95 time=0
note_on channel=9 note=43 velocity=106 time=0
note_on channel=10 note=43 velocity=70 time=0
note_on channel=8 note=50 velocity=87 time=8
note_on channel=10 note=50 velocity=53 time=0
pitchwheel channel=3 pitch=1430 time=1
note_on channel=10 note=60 velocity=57 time=0
note_on channel=3 note=72 velocity=125 time=0
note_off channel=8 note=46 velocity=0 time=10
note_off channel=10 note=43 velocity=0 time=0
note_off channel=8 note=53 velocity=0 time=5
note_off channel=10 note=50 velocity=0 time=0
note_on channel=9 note=50 velocity=83 time=4
note_on channel=8 note=51 velocity=97 time=11
pitchwheel channel=3 pitch=520 time=13
pitchwheel channel=3 pitch=3980 time=12
pitchwheel channel=3 pitch=1960 time=10
pitchwheel channel=3 pitch=1960 time=15
pitchwheel channel=3 pitch=390 time=11
note_off channel=3 note=79 velocity=0 time=15
pitchwheel channel=3 pitch=5210 time=13
pitchwheel channel=3 pitch=7020 time=16
note_off channel=8 note=44 velocity=0 time=17
note_off channel=3 note=75 velocity=0 time=28
note_off channel=9 note=40 velocity=0 time=0
note_off channel=9 note=40 velocity=0 time=36
note_off channel=1 note=34 velocity=0 time=12
note_off channel=10 note=44 velocity=0 time=8
note_on channel=1 note=32 velocity=118 time=13
note_on channel=6 note=46 velocity=125 time=0
note_on channel=9 note=35 velocity=95 time=0
note_on channel=9 note=40 velocity=98 time=0
note_on channel=9 note=40 velocity=98 time=0
note_on channel=9 note=43 velocity=106 time=0
note_on channel=10 note=46 velocity=65 time=0
note_on channel=8 note=56 velocity=91 time=11
note_on channel=10 note=50 velocity=53 time=0
note_on channel=8 note=43 velocity=110 time=7
note_on channel=9 note=44 velocity=95 time=0
note_on channel=9 note=40 velocity=98 time=0
note_on channel=9 note=43 velocity=106 time=0
note_on channel=10 note=43 velocity=76 time=0
pitchwheel channel=3 pitch=3040 time=2
pitchwheel channel=3 pitch=4940 time=17
note_off channel=8 note=50 velocity=0 time=5
pitchwheel channel=3 pitch=2120 time=2
pitchwheel channel=3 pitch=9830 time=10
pitchwheel channel=3 pitch=3640 time=16
note_on channel=9 note=43 velocity=95 time=10
pitchwheel channel=3 pitch=250 time=25
note_on channel=8 note=48 velocity=102 time=4
note_on channel=10 note=46 velocity=105 time=0
note_on channel=8 note=53 velocity=91 time=9
note_off channel=8 note=46 velocity=0 time=36
note_off channel=10 note=48 velocity=0 time=0
note_off channel=8 note=53 velocity=0 time=3
pitchwheel channel=3 pitch=1170 time=15
note_off channel=9 note=43 velocity=0 time=3
note_off channel=8 note=46 velocity=0 time=26
note_off channel=3 note=78 velocity=0 time=7
note_off channel=3 note=79 velocity=0 time=62
note_off channel=1 note=36 velocity=0 time=12
note_off channel=10 note=43 velocity=0 time=0
pitchwheel channel=3 pitch=650 time=5
note_on channel=1 note=34 velocity=113 time=21
note_on channel=8 note=43 velocity=110 time=0
note_on channel=9 note=35 velocity=95 time=0
note_on channel=9 note=40 velocity=95 time=0
note_on channel=9 note=43 velocity=106 time=0
note_on channel=10 note=48 velocity=71 time=0
note_on channel=3 note=84 velocity=90 time=0
note_on channel=3 note=82 velocity=125 time=0
note_on channel=8 note=50 velocity=91 time=11
note_on channel=10 note=52 velocity=85 time=0
note_off channel=8 note=43 velocity=0 time=2
note_on channel=10 note=43 velocity=89 time=0
note_on channel=8 note=50 velocity=102 time=11
note_on channel=10 note=56 velocity=53 time=0
note_off channel=8 note=44 velocity=0 time=17
note_off channel=10 note=43 velocity=0 time=0
note_o1f channel=8 note=50 velocity=0 time=3
note_off channel=10 note=58 velocity=0 time=0
note_off channel=3 note=75 velocity=0 time=106
note_on channel=3 note=79 velocity=115 time=0
note_on channel=3 note=72 velocity=102 time=0
note_on channel=8 note=43 velocity=101 time=7
note_on channel=9 note=35 velocity=95 time=0
note_on channel=9 note=40 velocity=95 time=0
note_on channel=9 note=43 velocity=106 time=0
note_on channel=10 note=46 velocity=105 time=0
note_on channel=8 note=50 velocity=91 time=11
note_on channel=9 note=43 velocity=95 time=0
note_off channel=9 note=46 velocity=0 time=7
note_off channel=9 note=40 velocity=0 time=0
note_off channel=9 note=35 velocity=0 time=10
note_off channel=3 note=79 velocity=0 time=126
note_off channel=7 note=63 velocity=0 time=36
note_off channel=7 note=65 velocity=0 time=3
note_off channel=6 note=53 velocity=0 time=9
note_off channel=7 note=60 velocity=0 time=0
note_off channel=7 note=62 velocity=0 time=3
note_off channel=7 note=65 velocity=0 time=13
note_off channel=9 note=35 velocity=0 time=3
note_off channel=9 note=40 velocity=0 time=0
note_off channel=3 note=79 velocity=0 time=97
note_off channel=9 note=40 velocity=0 time=14
note_off channel=4 note=63 velocity=0 time=43
note_off channel=7 note=67 velocity=0 time=9
note_off channel=7 note=65 velocity=0 time=3
note_on channel=1 note=31 velocity=118 time=15
note_on channel=5 note=32 velocity=115 time=0
note_on channel=7 note=63 velocity=111 time=0
note_on channel=7 note=67 velocity=102 time=0
note_on channel=7 note=65 velocity=74 time=0
note_on channel=7 note=70 velocity=110 time=0
note_on channel=7 note=75 velocity=116 time=0
note_on channel=8 note=53 velocity=97 time=0
note_on channel=8 note=60 velocity=99 time=0
note_on channel=9 note=35 velocity=95 time=0
note_on channel=9 note=40 velocity=98 time=0
note_on channel=9 note=43 velocity=106 time=0
note_on channel=10 note=44 velocity=110 time=0
pitchwheel channel=3 pitch=5330 time=3
note_on channel=8 note=53 velocity=91 time=8
note_on channel=10 note=50 velocity=53 time=0
pitchwheel channel=3 pitch=-3656 time=7
pitchwheel channel=3 pitch=3500 time=0
note_on channel=8 note=43 velocity=110 time=0
note_on channel=9 note=40 velocity=95 time=0
note_on channel=9 note=43 velocity=102 time=0
note_on channel=10 note=46 velocity=71 time=0
note_on channel=8 note=50 velocity=91 time=11
note_on channel=10 note=55 velocity=53 time=0
note_off channel=8 note=43 velocity=0 time=24
note_off channel=10 note=43 velocity=0 time=0
note_off channel=8 note=50 velocity=0 time=11
note_off channel=8 note=43 velocity=0 time=15
note_off channel=10 note=50 velocity=0 time=0
note_off channel=3 note=72 velocity=0 time=15
pitchwheel channel=3 pitch=1610 time=7
pitchwheel channel=3 pitch=0 time=10
note_off channel=7 note=92 velocity=0 time=2
note_off channel=8 note=58 velocity=0 time=1
note_off channel=9 note=40 velocity=0 time=13
note_off channel=3 note=79 velocity=0 time=16
pitchwheel channel=3 pitch=1970 time=4
pitchwheel channel=3 pitch=3250 time=11
pitchwheel channel=3 pitch=1170 time=12
pitchwheel channel=3 pitch=1170 time=13
pitchwheel channel=3 pitch=2720 time=15
note_on channel=1 note=31 velocity=118 time=21
note_on channel=8 note=43 velocity=110 time=0
note_on channel=9 note=35 velocity=95 time=0
note_on channel=9 note=40 velocity=95 time=0
note_on channel=9 note=43 velocity=106 time=0
note_on channel=10 note=48 velocity=80 time=0
note_off channel=8 note=55 velocity=0 time=3
note_off channel=10 note=53 velocity=0 time=0
pitchwheel channel=3 pitch=5340 time=3
pitchwheel channel=3 pitch=3330 time=1
note_on channel=10 note=43 velocity=64 time=0
note_on channel=8 note=56 velocity=40 time=11
note_off channel=1 note=31 velocity=0 time=30
note_off channel=10 note=48 velocity=0 time=0
note_off channel=9 note=40 velocity=0 time=2
note_off channel=9 note=40 velocity=0 time=10
note_off channel=3 note=72 velocity=0 time=20
note_off channel=10 note=43 velocity=0 time=0
note_on channel=8 note=48 velocity=115 time=11
note_on channel=6 note=43 velocity=110 time=52
note_on channel=10 note=43 velocity=72 time=0
note_on channel=8 note=50 velocity=97 time=11
pitchwheel channel=3 pitch=3120 time=5
pitchwheel channel=3 pitch=5340 time=10
note_off channel=7 note=62 velocity=0 time=18
note_off channel=6 note=55 velocity=0 time=0
note_off channel=8 note=60 velocity=0 time=7
note_off channel=9 note=40 velocity=0 time=0
note_off channel=3 note=75 velocity=0 time=25
note_on channel=1 note=31 velocity=113 time=18
note_on channel=1 note=34 velocity=63 time=0
note_on channel=8 note=43 velocity=115 time=0
note_on channel=9 note=35 velocity=95 time=0
note_on channel=9 note=40 velocity=98 time=0
note_on channel=9 note=43 velocity=106 time=0
note_on channel=10 note=48 velocity=81 time=0
note_on channel=3 note=79 velocity=81 time=0
note_on channel=8 note=53 velocity=101 time=11
note_on channel=10 note=50 velocity=53 time=0
note_off channel=8 note=50 velocity=0 time=18
note_off channel=10 note=53 velocity=0 time=0
pitchwheel channel=3 pitch=250 time=5
pitchwheel channel=3 pitch=3550 time=10
note_off channel=9 note=43 velocity=0 time=30
pitchwheel channel=3 pitch=290 time=9
pitchwheel channel=3 pitch=6240 time=18
pitchwheel channel=3 pitch=2730 time=10
note_off channel=8 note=46 velocity=0 time=15
note_off channel=10 note=43 velocity=0 time=0
pitchwheel channel=3 pitch=260 time=0
note_off channel=8 note=50 velocity=0 time=11
note_off channel=3 note=78 velocity=0 time=14
note_off channel=9 note=53 velocity=0 time=3
note_off channel=3 note=75 velocity=0 time=9
pitchwheel channel=3 pitch=238 time=8
note_on channel=1 note=31 velocity=73 time=17
note_on channel=8 note=46 velocity=110 time=0
note_on channel=9 note=44 velocity=95 time=0
note_on channel=10 note=48 velocity=86 time=0
note_on channel=8 note=53 velocity=110 time=4
note_on channel=10 note=50 velocity=57 time=0
pitchwheel channel=3 pitch=5720 time=2
note_off channel=8 note=46 velocity=0 time=3
note_off channel=8 note=51 velocity=0 time=3
note_off channel=9 note=43 velocity=0 time=24
note_off channel=9 note=40 velocity=0 time=0
pitchwheel channel=3 pitch=3840 time=5
pitchwheel channel=3 pitch=2210 time=10
note_off channel=9 note=43 velocity=0 time=13
pitchwheel channel=3 pitch=4940 time=1
pitchwheel channel=3 pitch=0 time=10
note_off channel=9 note=35 velocity=0 time=0
note_off channel=6 note=50 velocity=0 time=12
note_off channel=10 note=51 velocity=0 time=0
pitchwheel channel=3 pitch=-3178 time=3
note_on channel=10 note=44 velocity=115 time=2
note_on channel=6 note=46 velocity=116 time=3
note_on channel=6 note=56 velocity=120 time=0
note_off channel=9 note=39 velocity=0 time=7
note_off channel=9 note=42 velocity=0 time=0
note_off channel=9 note=54 velocity=0 time=0
note_off channel=9 note=42 velocity=0 time=0
note_off channel=7 note=62 velocity=0 time=15
note_off channel=7 note=67 velocity=0 time=1
note_off channel=7 note=60 velocity=0 time=21
note_off channel=6 note=48 velocity=0 time=57
note_off channel=9 note=35 velocity=0 time=12
note_off channel=7 note=63 velocity=0 time=26
note_off channel=6 note=53 velocity=0 time=1
note_off channel=6 note=51 velocity=0 time=12
note_off channel=6 note=46 velocity=0 time=8
note_off channel=7 note=60 velocity=0 time=5
note_off channel=8 note=56 velocity=0 time=9
note_off channel=8 note=65 velocity=0 time=1
note_off channel=8 note=60 velocity=0 time=4
note_on channel=6 note=44 velocity=123 time=2
note_on channel=6 note=51 velocity=116 time=0
note_off channel=9 note=39 velocity=0 time=4
note_off channel=9 note=42 velocity=0 time=0
note_off channel=7 note=65 velocity=0 time=28
note_off channel=7 note=65 velocity=0 time=18
note_off channel=9 note=55 velocity=0 time=2
note_off channel=6 note=48 velocity=0 time=6
note_off channel=8 note=51 velocity=0 time=5
note_off channel=8 note=53 velocity=0 time=4
note_off channel=7 note=74 velocity=0 time=7
note_off channel=6 note=60 velocity=0 time=2
note_off channel=1 note=32 velocity=0 time=121
note_off channel=10 note=46 velocity=0 time=8
note_on channel=1 note=32 velocity=113 time=13
note_on channel=4 note=63 velocity=116 time=0
note_on channel=4 note=70 velocity=101 time=0
note_on channel=8 note=51 velocity=116 time=0
note_on channel=8 note=51 velocity=123 time=0
note_on channel=8 note=55 velocity=115 time=0
note_on channel=9 note=35 velocity=116 time=0
note_on channel=9 note=42 velocity=98 time=0
note_on channel=10 note=48 velocity=113 time=8
note_on channel=6 note=44 velocity=116 time=3
note_on channel=6 note=55 velocity=127 time=0
note_off channel=9 note=35 velocity=0 time=17
note_off channel=9 note=42 velocity=0 time=0
note_off channel=7 note=70 velocity=0 time=22
note_off channel=3 note=84 velocity=0 time=44
note_off channel=10 note=44 velocity=0 time=7
note_on channel=1 note=31 velocity=118 time=9
note_on channel=7 note=57 velocity=102 time=0
note_on channel=4 note=70 velocity=87 time=0
note_on channel=7 note=32 velocity=115 time=0
note_on channel=8 note=51 velocity=125 time=0
note_on channel=8 note=51 velocity=123 time=0
note_on channel=8 note=51 velocity=102 time=0
note_on channel=8 note=58 velocity=125 time=0
note_on channel=9 note=35 velocity=116 time=0
note_on channel=9 note=42 velocity=98 time=0
note_on channel=10 note=44 velocity=113 time=8
note_on channel=6 note=46 velocity=127 time=3
note_on channel=6 note=53 velocity=110 time=0
note_off channel=8 note=54 velocity=0 time=4
note_off channel=7 note=65 velocity=0 time=8
note_off channel=6 note=53 velocity=0 time=2
note_off channel=6 note=48 velocity=0 time=4
note_off channel=8 note=53 velocity=0 time=5
note_off channel=3 note=82 velocity=0 time=8
note_off channel=6 note=44 velocity=0 time=12
note_off channel=1 note=31 velocity=0 time=7
note_off channel=10 note=44 velocity=0 time=8
note_off channel=8 note=46 velocity=0 time=6
note_off channel=3 note=84 velocity=0 time=14
note_off channel=7 note=67 velocity=0 time=0
note_off channel=8 note=51 velocity=0 time=4
note_off channel=6 note=44 velocity=0 time=5
note_off channel=8 note=58 velocity=0 time=2
note_off channel=10 note=46 velocity=0 time=8
pitchwheel channel=3 pitch=2340 time=22
note_on channel=1 note=36 velocity=118 time=2
note_on channel=6 note=43 velocity=127 time=0
note_on channel=9 note=39 velocity=95 time=0
note_on channel=9 note=40 velocity=95 time=0
note_on channel=9 note=40 velocity=98 time=0
note_on channel=9 note=43 velocity=49 time=0
note_on channel=10 note=43 velocity=85 time=0
note_on channel=8 note=53 velocity=91 time=8
note_on channel=10 note=55 velocity=53 time=0
note_off channel=8 note=48 velocity=0 time=14
pitchwheel channel=3 pitch=520 time=63
pitchwheel channel=3 pitch=2310 time=10
note_off channel=9 note=35 velocity=0 time=2
note_off channel=9 note=40 velocity=0 time=27
note_off channel=9 note=43 velocity=0 time=96
note_off channel=3 note=79 velocity=0 time=52
note_off channel=9 note=44 velocity=0 time=78
note_off channel=9 note=40 velocity=0 time=0
note_off channel=7 note=63 velocity=0 time=9
note_off channel=7 note=74 velocity=0 time=12
note_off channel=4 note=63 velocity=0 time=3
note_off channel=4 note=70 velocity=0 time=0
note_on channel=1 note=32 velocity=113 time=18
note_on channel=7 note=35 velocity=115 time=0
note_on channel=6 note=46 velocity=123 time=0
note_on channel=9 note=35 velocity=95 time=0
note_on channel=9 note=40 velocity=86 time=0
note_on channel=9 note=43 velocity=106 time=0
note_on channel=10 note=46 velocity=110 time=0
note_on channel=8 note=53 velocity=83 time=11
note_on channel=10 note=55 velocity=55 time=0
note_off channel=8 note=48 velocity=0 time=31
note_off channel=3 note=75 velocity=0 time=140
note_off channel=1 note=34 velocity=0 time=12
note_on channel=1 note=32 velocity=78 time=18
note_on channel=3 note=75 velocity=114 time=0
note_off channel=8 note=43 velocity=0 time=0
note_on channel=8 note=55 velocity=87 time=11
note_on channel=10 note=53 velocity=57 time=0
note_off channel=8 note=48 velocity=0 time=33
note_off channel=10 note=48 velocity=0 time=0
note_off channel=8 note=53 velocity=0 time=7
pitchwheel channel=3 pitch=4590 time=3
pitchwheel channel=3 pitch=3550 time=11
note_off channel=8 note=48 velocity=0 time=9
note_off channel=10 note=50 velocity=0 time=0
pitchwheel channel=3 pitch=-356 time=5
pitchwheel channel=3 pitch=250 time=10
note_off channel=3 note=79 velocity=0 time=91
pitchwheel channel=3 pitch=2340 time=2
pitchwheel channel=3 pitch=1170 time=11
pitchwheel channel=3 pitch=3510 time=15
pitchwheel channel=3 pitch=3470 time=10
note_off channel=1 note=31 velocity=0 time=8
note_on channel=3 note=79 velocity=106 time=5
note_on channel=1 note=37 velocity=113 time=2
note_on channel=7 note=65 velocity=93 time=0
note_on channel=7 note=74 velocity=98 time=0
note_on channel=8 note=52 velocity=102 time=0
pitchwheel channel=3 pitch=2340 time=9
pitchwheel channel=3 pitch=7020 time=12
note_off channel=9 note=35 velocity=0 time=1
note_on channel=3 note=77 velocity=97 time=0
note_on channel=1 note=31 velocity=67 time=21
note_on channel=8 note=43 velocity=111 time=0
note_on channel=9 note=35 velocity=95 time=0
note_off channel=9 note=39 velocity=0 time=6
note_off channel=9 note=40 velocity=0 time=15
note_on channel=3 note=79 velocity=106 time=0
note_off channel=5 note=75 velocity=0 time=94
note_off channel=7 note=65 velocity=0 time=0
note_off channel=7 note=65 velocity=0 time=1
note_off channel=7 note=67 velocity=0 time=32
note_off channel=7 note=54 velocity=0 time=0
note_off channel=7 note=67 velocity=0 time=4
note_off channel=7 note=63 velocity=0 time=3
note_off channel=6 note=43 velocity=0 time=3
note_off channel=6 note=44 velocity=0 time=10
note_off channel=8 note=56 velocity=0 time=12
note_off channel=7 note=46 velocity=0 time=0
note_off channel=6 note=44 velocity=0 time=38
note_off channel=8 note=51 velocity=0 time=4
note_off channel=8 note=46 velocity=0 time=83
note_off channel=9 note=35 velocity=0 time=6
note_off channel=9 note=42 velocity=0 time=0
note_off channel=8 note=53 velocity=0 time=32
note_off channel=6 note=51 velocity=0 time=8
note_off channel=8 note=65 velocity=0 time=12
note_off channel=6 note=44 velocity=0 time=7
note_off channel=3 note=79 velocity=0 time=62
note_off channel=1 note=34 velocity=0 time=108
note_off channel=10 note=41 velocity=0 time=8
note_on channel=1 note=34 velocity=113 time=13
note_on channel=7 note=67 velocity=115 time=0
note_on channel=7 note=70 velocity=89 time=0
note_on channel=7 note=44 velocity=115 time=0
note_on channel=8 note=53 velocity=140 time=0
note_on channel=8 note=60 velocity=68 time=0
note_on channel=9 note=35 velocity=116 time=0
note_on channel=9 note=42 velocity=98 time=0
note_on channel=10 note=46 velocity=113 time=8
note_off channel=8 note=53 velocity=0 time=32
note_off channel=8 note=60 velocity=0 time=32
note_off channel=7 note=62 velocity=0 time=6
note_off channel=6 note=51 velocity=0 time=3
note_off channel=8 note=55 velocity=0 time=1
note_off channel=6 note=44 velocity=0 time=42
note_off channel=6 note=44 velocity=0 time=2
note_off channel=1 note=34 velocity=0 time=65
note_on channel=1 note=31 velocity=113 time=13
note_on channel=4 note=63 velocity=116 time=0
note_on channel=4 note=67 velocity=87 time=0
note_on channel=4 note=70 velocity=105 time=0
note_on channel=6 note=46 velocity=116 time=0
note_on channel=8 note=54 velocity=123 time=0
note_on channel=8 note=51 velocity=123 time=0
note_on channel=8 note=58 velocity=127 time=0
note_on channel=9 note=35 velocity=116 time=0
note_on channel=9 note=51 velocity=116 time=0
note_on channel=9 note=49 velocity=98 time=0
note_on channel=10 note=48 velocity=113 time=8
note_on channel=6 note=44 velocity=127 time=3
note_on channel=6 note=53 velocity=110 time=0
note_off channel=9 note=35 velocity=0 time=17
note_off channel=9 note=42 velocity=0 time=0
note_off channel=9 note=42 velocity=0 time=0
note_off channel=7 note=70 velocity=0 time=7
note_off channel=7 note=75 velocity=0 time=0
note_off channel=7 note=63 velocity=0 time=6
note_off channel=8 note=56 velocity=0 time=3
note_off channel=8 note=44 velocity=0 time=56
note_off channel=6 note=56 velocity=0 time=3
note_off channel=7 note=62 velocity=0 time=0
note_off channel=6 note=51 velocity=0 time=34
note_off channel=6 note=48 velocity=0 time=4
note_off channel=8 note=58 velocity=0 time=6
note_off channel=8 note=53 velocity=0 time=3
note_off channel=6 note=44 velocity=0 time=2
note_off channel=4 note=63 velocity=0 time=8
note_off channel=4 note=67 velocity=0 time=1
note_off channel=4 note=67 velocity=0 time=6
note_off channel=4 note=70 velocity=0 time=0
note_off channel=1 note=32 velocity=0 time=74
note_off channel=10 note=44 velocity=0 time=8
note_on channel=1 note=36 velocity=113 time=13
note_on channel=4 note=67 velocity=102 time=0
note_on channel=4 note=70 velocity=97 time=0
note_on channel=7 note=67 velocity=105 time=0
note_on channel=7 note=74 velocity=110 time=0
note_on channel=7 note=75 velocity=122 time=0
note_on channel=7 note=32 velocity=127 time=0
note_on channel=8 note=50 velocity=125 time=0
note_on channel=8 note=51 velocity=127 time=0
note_on channel=8 note=54 velocity=93 time=0
note_on channel=9 note=45 velocity=98 time=0
note_on channel=10 note=46 velocity=113 time=8
note_on channel=6 note=46 velocity=127 time=3
note_on channel=6 note=53 velocity=115 time=0
note_off channel=9 note=30 velocity=0 time=17
note_off channel=7 note=63 velocity=0 time=1
note_off channel=6 note=53 velocity=0 time=10
note_off channel=8 note=51 velocity=0 time=1
note_off channel=7 note=65 velocity=0 time=5
note_off channel=7 note=67 velocity=0 time=7
note_off channel=7 note=74 velocity=0 time=10
note_off channel=8 note=56 velocity=0 time=9
note_off channel=7 note=63 velocity=0 time=21
note_off channel=8 note=56 velocity=0 time=1
note_off channel=6 note=46 velocity=0 time=4
note_off channel=8 note=58 velocity=0 time=8
note_off channel=7 note=67 velocity=0 time=15
note_off channel=8 note=51 velocity=0 time=12
note_off channel=6 note=46 velocity=0 time=17
note_off channel=8 note=58 velocity=0 time=12
note_off channel=6 note=51 velocity=0 time=11
note_off channel=3 note=82 velocity=0 time=81
note_off channel=10 note=46 velocity=0 time=7
note_on channel=1 note=32 velocity=118 time=13
note_on channel=4 note=63 velocity=116 time=0
note_on channel=4 note=67 velocity=102 time=0
note_on channel=4 note=70 velocity=79 time=0
note_on channel=7 note=62 velocity=90 time=0
note_on channel=7 note=72 velocity=95 time=0
note_on channel=8 note=53 velocity=87 time=0
note_on channel=8 note=58 velocity=116 time=0
note_on channel=9 note=39 velocity=85 time=0
note_on channel=9 note=40 velocity=116 time=0
note_on channel=9 note=42 velocity=98 time=0
note_on channel=10 note=44 velocity=113 time=8
note_on channel=6 note=44 velocity=127 time=3
note_on channel=6 note=53 velocity=115 time=0
note_off channel=9 note=39 velocity=0 time=13
note_off channel=9 note=40 velocity=0 time=0
note_off channel=9 note=46 velocity=0 time=0
note_off channel=8 note=58 velocity=0 time=1
note_off channel=3 note=52 velocity=0 time=50
note_off channel=1 note=31 velocity=0 time=96
note_off channel=10 note=46 velocity=0 time=8
note_off channel=3 note=79 velocity=0 time=40
note_off channel=1 note=32 velocity=0 time=85
note_on channel=1 note=36 velocity=73 time=1
note_on channel=8 note=43 velocity=110 time=0
note_on channel=9 note=35 velocity=95 time=0
note_on channel=9 note=40 velocity=98 time=0
note_on channel=9 note=43 velocity=106 time=0
note_on channel=10 note=43 velocity=70 time=0
note_on channel=8 note=51 velocity=91 time=11
note_off channel=9 note=44 velocity=0 time=24
note_off channel=3 note=77 velocity=0 time=6
note_off channel=8 note=55 velocity=0 time=5
pitchwheel channel=3 pitch=4990 time=2
pitchwheel channel=3 pitch=260 time=12
note_off channel=8 note=46 velocity=0 time=3
note_off channel=10 note=43 velocity=0 time=0
note_off channel=8 note=53 velocity=0 time=8
note_off channel=10 note=50 velocity=0 time=0
note_off channel=9 note=35 velocity=0 time=3
note_off channel=9 note=40 velocity=0 time=15
pitchwheel channel=3 pitch=1690 time=16
pitchwheel channel=3 pitch=3250 time=14
note_on channel=9 note=40 velocity=95 time=0
note_on channel=9 note=40 velocity=98 time=0
note_on channel=9 note=43 velocity=106 time=0
note_on channel=10 note=43 velocity=75 time=0
note_on channel=8 note=50 velocity=91 time=11
note_on channel=10 note=53 velocity=47 time=0
note_off channel=8 note=43 velocity=0 time=34
note_off channel=10 note=43 velocity=0 time=0
note_off channel=8 note=43 velocity=0 time=8
note_off channel=8 note=53 velocity=0 time=11
note_off channel=3 note=79 velocity=0 time=1
note_on channel=8 note=46 velocity=81 time=5
note_on channel=10 note=46 velocity=81 time=0
note_on channel=8 note=51 velocity=101 time=11
note_off channel=9 note=35 velocity=0 time=1
note_off channel=9 note=35 velocity=0 time=2
note_off channel=9 note=40 velocity=0 time=33
note_off channel=3 note=82 velocity=0 time=18
note_off channel=1 note=31 velocity=0 time=112
note_off channel=10 note=46 velocity=0 time=0
note_off channel=10 note=43 velocity=0 time=0
pitchwheel channel=3 pitch=0 time=6
note_on channel=1 note=32 velocity=113 time=18
note_on channel=7 note=65 velocity=90 time=0
note_on channel=8 note=51 velocity=115 time=0
note_on channel=9 note=35 velocity=95 time=0
note_on channel=9 note=40 velocity=95 time=0
note_on channel=9 note=40 velocity=98 time=0
note_on channel=9 note=43 velocity=106 time=0
note_on channel=10 note=46 velocity=76 time=0
note_on channel=8 note=53 velocity=91 time=11
pitchwheel channel=3 pitch=0 time=4
note_off channel=7 note=32 velocity=0 time=20
note_off channel=7 note=85 velocity=0 time=2
note_off channel=7 note=67 velocity=0 time=7
note_off channel=7 note=34 velocity=0 time=11
note_off channel=6 note=55 velocity=0 time=6
note_off channel=6 note=46 velocity=0 time=73
note_off channel=10 note=46 velocity=0 time=5
note_off channel=8 note=53 velocity=0 time=2
note_off channel=6 note=46 velocity=0 time=8
note_off channel=1 note=32 velocity=0 time=58
note_off channel=10 note=44 velocity=0 time=8
note_on channel=1 note=32 velocity=113 time=13
note_on channel=4 note=63 velocity=116 time=0
note_on channel=4 note=70 velocity=115 time=0
note_off channel=1 note=32 velocity=0 time=1
note_off channel=10 note=48 velocity=0 time=8
note_on channel=1 note=32 velocity=118 time=13
note_on channel=4 note=63 velocity=116 time=0
note_on channel=4 note=67 velocity=87 time=0
note_on channel=4 note=70 velocity=102 time=0
note_on channel=7 note=32 velocity=115 time=0
note_on channel=7 note=62 velocity=90 time=0
note_on channel=7 note=70 velocity=102 time=0
note_on channel=8 note=44 velocity=115 time=0
note_on channel=8 note=58 velocity=123 time=0
note_on channel=9 note=35 velocity=116 time=0
note_on channel=9 note=42 velocity=99 time=0
note_off channel=9 note=39 velocity=0 time=10
note_off channel=9 note=42 velocity=0 time=0
note_off channel=7 note=62 velocity=0 time=58
note_off channel=7 note=72 velocity=0 time=0
note_off channel=7 note=67 velocity=0 time=7
note_off channel=6 note=53 velocity=0 time=3
note_off channel=6 note=53 velocity=0 time=8
note_off channel=8 note=46 velocity=0 time=6
note_on channel=1 note=34 velocity=113 time=13
note_on channel=7 note=63 velocity=116 time=0
note_on channel=4 note=67 velocity=102 time=0
note_on channel=4 note=70 velocity=102 time=0
note_on channel=7 note=32 velocity=115 time=0
note_on channel=7 note=74 velocity=106 time=0
note_on channel=8 note=51 velocity=127 time=0
note_on channel=8 note=63 velocity=90 time=0
note_on channel=8 note=60 velocity=115 time=0
note_off channel=9 note=35 velocity=0 time=1
note_off channel=7 note=72 velocity=0 time=5
note_off channel=7 note=74 velocity=0 time=2
note_off channel=6 note=46 velocity=0 time=1
note_off channel=7 note=63 velocity=0 time=0
note_off channel=8 note=60 velocity=0 time=1
note_off channel=8 note=56 velocity=0 time=5
note_off channel=8 note=56 velocity=0 time=5
note_off channel=1 note=32 velocity=0 time=34
note_off channel=10 note=44 velocity=0 time=8
note_on channel=1 note=34 velocity=113 time=13
note_on channel=4 note=65 velocity=115 time=0
note_on channel=4 note=70 velocity=111 time=0
note_off channel=10 note=44 velocity=0 time=7
note_on channel=1 note=32 velocity=113 time=13
note_on channel=7 note=63 velocity=123 time=0
note_on channel=7 note=67 velocity=97 time=0
note_on channel=7 note=67 velocity=110 time=0
note_on channel=7 note=75 velocity=125 time=0
note_on channel=7 note=78 velocity=105 time=0
note_on channel=8 note=53 velocity=102 time=0
note_on channel=8 note=60 velocity=127 time=0
note_on channel=9 note=35 velocity=116 time=0
note_off channel=9 note=36 velocity=0 time=18
note_off channel=9 note=40 velocity=0 time=0
note_off channel=9 note=54 velocity=0 time=0
note_off channel=7 note=63 velocity=0 time=30
note_off channel=7 note=75 velocity=0 time=0
note_off channel=6 note=44 velocity=0 time=96
note_off channel=4 note=67 velocity=0 time=11
note_off channel=4 note=70 velocity=0 time=0
note_off channel=9 note=53 velocity=0 time=1
note_off channel=9 note=42 velocity=0 time=0
note_off channel=7 note=74 velocity=0 time=2
note_off channel=6 note=51 velocity=0 time=8
note_off channel=6 note=46 velocity=0 time=14
note_off channel=7 note=48 velocity=0 time=4
note_on channel=1 note=34 velocity=113 time=13
note_on channel=7 note=65 velocity=98 time=0
note_on channel=7 note=70 velocity=105 time=0
note_on channel=7 note=35 velocity=115 time=0
note_on channel=7 note=65 velocity=90 time=0
note_on channel=7 note=72 velocity=97 time=0
note_on channel=8 note=63 velocity=101 time=0
note_on channel=8 note=62 velocity=116 time=0
note_on channel=9 note=39 velocity=85 time=0
note_on channel=9 note=40 velocity=116 time=0
note_on channel=10 note=48 velocity=113 time=2
note_on channel=6 note=48 velocity=120 time=3
note_on channel=6 note=53 velocity=91 time=11
note_on channel=10 note=55 velocity=55 time=0
note_off channel=8 note=51 velocity=0 time=3
note_off channel=1 note=31 velocity=0 time=108
note_off channel=10 note=44 velocity=0 time=0
note_on channel=1 note=36 velocity=113 time=13
note_on channel=8 note=43 velocity=91 time=0
note_on channel=9 note=35 velocity=95 time=0
note_on channel=9 note=40 velocity=98 time=0
note_on channel=9 note=43 velocity=106 time=0
note_on channel=9 note=43 velocity=102 time=0
note_on channel=10 note=48 velocity=81 time=0
note_off channel=8 note=43 velocity=0 time=94
note_off channel=10 note=43 velocity=0 time=0
note_off channel=8 note=50 velocity=0 time=11
pitchwheel channel=3 pitch=3380 time=0
pitchwheel channel=3 pitch=2340 time=15
note_off channel=9 note=35 velocity=0 time=5
pitchwheel channel=3 pitch=1360 time=3
pitchwheel channel=3 pitch=390 time=10
note_off channel=9 note=40 velocity=0 time=17
note_off channel=9 note=40 velocity=0 time