note_on channel=7 note=70 velocity=93 time=0
note_on channel=8 note=53 velocity=90 time=0
note_on channel=8 note=56 velocity=127 time=0
note_on channel=9 note=35 velocity=116 time=0
note_on channel=9 note=42 velocity=98 time=0
note_on channel=10 note=46 velocity=118 time=8
note_on channel=6 note=48 velocity=127 time=3
note_on channel=6 note=53 velocity=106 time=0
note_off channel=9 note=35 velocity=0 time=17
note_off channel=5 note=62 velocity=0 time=18
note_off channel=7 note=60 velocity=0 time=2
note_off channel=7 note=72 velocity=0 time=7
note_off channel=6 note=44 velocity=0 time=7
note_off channel=3 note=84 velocity=0 time=23
note_off channel=1 note=34 velocity=0 time=108
note_off channel=10 note=46 velocity=0 time=8
note_on channel=1 note=32 velocity=113 time=13
note_on channel=7 note=63 velocity=127 time=0
note_on channel=7 note=72 velocity=120 time=0
note_on channel=7 note=63 velocity=111 time=0
note_on channel=7 note=74 velocity=0 time=0
note_off channel=1 note=34 velocity=0 time=53
note_off channel=10 note=44 velocity=0 time=8
note_on channel=1 note=32 velocity=113 time=13
note_on channel=7 note=65 velocity=102 time=0
note_on channel=4 note=70 velocity=83 time=0
note_on channel=7 note=65 velocity=102 time=0
note_on channel=7 note=70 velocity=89 time=0
note_on channel=7 note=60 velocity=110 time=0
note_on channel=7 note=74 velocity=88 time=0
note_on channel=8 note=46 velocity=111 time=0
note_on channel=9 note=36 velocity=116 time=0
note_on channel=9 note=42 velocity=98 time=0
note_on channel=10 note=46 velocity=113 time=8
note_on channel=6 note=44 velocity=123 time=3
note_on channel=6 note=53 velocity=127 time=0
note_off channel=9 note=35 velocity=0 time=17
note_off channel=1 note=32 velocity=0 time=105
note_off channel=8 note=48 velocity=0 time=12
note_off channel=10 note=44 velocity=0 time=6
note_off channel=8 note=53 velocity=0 time=8
note_off channel=7 note=74 velocity=0 time=7
note_off channel=8 note=53 velocity=0 time=4
note_off channel=6 note=48 velocity=0 time=30
note_off channel=6 note=55 velocity=0 time=7
note_off channel=6 note=44 velocity=0 time=6
note_off channel=8 note=51 velocity=0 time=14
note_off channel=6 note=51 velocity=0 time=7
note_off channel=6 note=44 velocity=0 time=29
note_on channel=4 note=63 velocity=123 time=40
note_on channel=4 note=63 velocity=123 time=0
note_on channel=4 note=70 velocity=102 time=0
note_on channel=7 note=72 velocity=127 time=0
note_on channel=7 note=75 velocity=125 time=0
note_off channel=7 note=63 velocity=0 time=5
note_off channel=6 note=44 velocity=0 time=42
note_off channel=8 note=51 velocity=0 time=5
note_off channel=8 note=51 velocity=0 time=1
note_off channel=6 note=46 velocity=0 time=1
note_off channel=8 note=65 velocity=0 time=7
note_off channel=8 note=58 velocity=0 time=17
note_off channel=8 note=58 velocity=0 time=7
note_off channel=6 note=46 velocity=0 time=8
note_off channel=1 note=34 velocity=0 time=125
note_off channel=10 note=44 velocity=0 time=8
note_on channel=1 note=34 velocity=113 time=91
note_on channel=7 note=46 velocity=115 time=0
note_on channel=7 note=60 velocity=125 time=0
note_on channel=7 note=60 velocity=120 time=0
note_on channel=8 note=51 velocity=111 time=0
note_on channel=8 note=53 velocity=110 time=0
note_on channel=8 note=58 velocity=113 time=0
note_on channel=9 note=32 velocity=116 time=0
note_on channel=9 note=42 velocity=98 time=0
note_on channel=9 note=54 velocity=116 time=0
note_on channel=10 note=44 velocity=113 time=8
note_on channel=6 note=46 velocity=123 time=3
note_on channel=6 note=55 velocity=125 time=0
pitchwheel channel=3 pitch=5030 time=12
pitchwheel channel=3 pitch=-6192 time=10
pitchwheel channel=3 pitch=1960 time=10
pitchwheel channel=3 pitch=0 time=13
note_off channel=9 note=35 velocity=0 time=14
note_off channel=9 note=44 velocity=0 time=7
note_off channel=9 note=40 velocity=0 time=13
note_off channel=9 note=40 velocity=0 time=0
note_off channel=9 note=40 velocity=0 time=56
note_off channel=6 note=46 velocity=0 time=17
note_off channel=8 note=50 velocity=0 time=3
note_off channel=8 note=51 velocity=0 time=10
note_off channel=8 note=58 velocity=0 time=12
note_off channel=10 note=48 velocity=0 time=6
pitchwheel channel=3 pitch=1690 time=2
pitchwheel channel=3 pitch=0 time=7
note_off channel=3 note=80 velocity=0 time=40
pitchwheel channel=3 pitch=3770 time=9
note_on channel=1 note=31 velocity=78 time=6
note_on channel=8 note=43 velocity=102 time=0
note_on channel=9 note=35 velocity=95 time=0
note_on channel=9 note=40 velocity=95 time=0
note_on channel=9 note=40 velocity=95 time=0
note_on channel=9 note=43 velocity=98 time=0
note_on channel=10 note=43 velocity=100 time=0
note_on channel=8 note=51 velocity=91 time=11
note_on channel=10 note=53 velocity=51 time=0
note_off channel=3 note=72 velocity=0 time=19
note_off channel=1 note=31 velocity=0 time=56
note_off channel=10 note=43 velocity=0 time=0
note_on channel=1 note=31 velocity=113 time=9
note_off channel=8 note=46 velocity=0 time=18
note_off channel=10 note=43 velocity=0 time=3
note_on channel=1 note=31 velocity=113 time=21
note_on channel=8 note=43 velocity=110 time=0
note_on channel=9 note=40 velocity=49 time=0
note_on channel=9 note=43 velocity=49 time=0
note_on channel=10 note=46 velocity=70 time=0
note_on channel=8 note=50 velocity=91 time=11
pitchwheel channel=3 pitch=1560 time=2
pitchwheel channel=3 pitch=3470 time=5
pitchwheel channel=3 pitch=3020 time=10
note_off channel=4 note=72 velocity=0 time=4
note_off channel=1 note=34 velocity=0 time=40
note_on channel=1 note=34 velocity=73 time=21
note_on channel=8 note=43 velocity=102 time=0
note_on channel=9 note=40 velocity=98 time=0
note_on channel=9 note=40 velocity=95 time=0
note_on channel=9 note=43 velocity=49 time=0
note_on channel=10 note=48 velocity=70 time=0
note_on channel=8 note=50 velocity=91 time=11
note_on channel=10 note=50 velocity=57 time=0
note_off channel=8 note=53 velocity=0 time=13
note_off channel=10 note=51 velocity=0 time=0
pitchwheel channel=3 pitch=260 time=6
note_on channel=1 note=31 velocity=113 time=0
note_on channel=8 note=46 velocity=111 time=0
note_on channel=9 note=40 velocity=95 time=0
note_on channel=9 note=40 velocity=98 time=0
note_on channel=9 note=40 velocity=98 time=0
note_on channel=9 note=43 velocity=49 time=0
note_on channel=10 note=43 velocity=81 time=0
note_on channel=8 note=50 velocity=106 time=11
note_on channel=10 note=50 velocity=50 time=0
note_off channel=3 note=72 velocity=0 time=38
note_off channel=8 note=43 velocity=0 time=3
note_off channel=10 note=43 velocity=0 time=0
pitchwheel channel=3 pitch=4940 time=3
note_off channel=8 note=55 velocity=0 time=4
note_off channel=7 note=35 velocity=0 time=0
note_off channel=6 note=51 velocity=0 time=12
note_off channel=6 note=46 velocity=0 time=0
note_off channel=8 note=55 velocity=0 time=2
note_off channel=7 note=63 velocity=0 time=2
note_off channel=7 note=74 velocity=0 time=9
note_off channel=6 note=53 velocity=0 time=5
note_off channel=7 note=72 velocity=0 time=2
note_off channel=7 note=72 velocity=0 time=7
note_off channel=6 note=44 velocity=0 time=1
note_off channel=3 note=82 velocity=0 time=19
note_off channel=9 note=51 velocity=0 time=99
note_off channel=7 note=32 velocity=0 time=5
note_off channel=7 note=65 velocity=0 time=3
note_off channel=6 note=55 velocity=0 time=8
note_off channel=6 note=44 velocity=0 time=52
note_off channel=9 note=51 velocity=0 time=20
note_off channel=9 note=35 velocity=0 time=12
note_off channel=7 note=72 velocity=0 time=4
note_off channel=7 note=62 velocity=0 time=3
note_off channel=8 note=56 velocity=0 time=3
note_off channel=6 note=46 velocity=0 time=6
note_off channel=7 note=75 velocity=0 time=58
note_off channel=6 note=46 velocity=0 time=1
note_off channel=8 note=60 velocity=0 time=20
note_off channel=3 note=75 velocity=0 time=52
note_off channel=1 note=32 velocity=0 time=30
note_off channel=4 note=63 velocity=0 time=0
note_off channel=4 note=67 velocity=0 time=2
note_off channel=4 note=70 velocity=0 time=0
note_on channel=1 note=32 velocity=118 time=6
note_on channel=7 note=65 velocity=74 time=0
note_on channel=4 note=70 velocity=116 time=0
note_on channel=8 note=51 velocity=127 time=0
note_on channel=8 note=51 velocity=115 time=0
note_on channel=8 note=56 velocity=123 time=0
note_on channel=9 note=39 velocity=85 time=0
note_on channel=9 note=40 velocity=116 time=0
note_on channel=9 note=53 velocity=116 time=0
note_on channel=9 note=42 velocity=98 time=0
note_on channel=10 note=46 velocity=113 time=8
note_on channel=6 note=46 velocity=116 time=3
note_on channel=6 note=53 velocity=125 time=0
note_off channel=4 note=67 velocity=0 time=31
note_off channel=4 note=70 velocity=0 time=0
note_off channel=1 note=32 velocity=0 time=126
note_off channel=10 note=46 velocity=0 time=8
note_on channel=1 note=32 velocity=118 time=1
note_on channel=7 note=63 velocity=116 time=0
note_on channel=4 note=72 velocity=116 time=0
note_on channel=8 note=43 velocity=120 time=0
note_on channel=9 note=35 velocity=116 time=0
note_off channel=9 note=35 velocity=0 time=11
note_off channel=9 note=42 velocity=0 time=0
note_off channel=7 note=75 velocity=0 time=1
note_off channel=7 note=75 velocity=0 time=9
note_off channel=4 note=63 velocity=0 time=55
note_off channel=4 note=67 velocity=0 time=1
note_off channel=4 note=70 velocity=0 time=0
note_off channel=10 note=44 velocity=0 time=7
note_on channel=1 note=32 velocity=113 time=0
note_on channel=6 note=48 velocity=125 time=3
note_on channel=6 note=53 velocity=120 time=0
note_off channel=9 note=39 velocity=0 time=17
note_off channel=7 note=72 velocity=0 time=16
note_off channel=8 note=51 velocity=0 time=8
note_off channel=6 note=48 velocity=0 time=3
note_off channel=8 note=55 velocity=0 time=0
note_off channel=6 note=53 velocity=0 time=0
note_off channel=8 note=53 velocity=0 time=11
note_off channel=8 note=58 velocity=0 time=3
note_off channel=8 note=60 velocity=0 time=5
note_off channel=8 note=55 velocity=0 time=6
note_off channel=6 note=53 velocity=0 time=9
note_off channel=6 note=44 velocity=0 time=2
note_off channel=8 note=56 velocity=0 time=58
note_off channel=6 note=44 velocity=0 time=3
note_off channel=4 note=63 velocity=0 time=9
note_on channel=1 note=32 velocity=118 time=13
note_on channel=4 note=63 velocity=116 time=0
note_on channel=4 note=70 velocity=102 time=0
note_on channel=7 note=65 velocity=95 time=0
note_on channel=7 note=70 velocity=101 time=0
note_on channel=7 note=75 velocity=115 time=0
note_on channel=7 note=75 velocity=115 time=0
note_on channel=8 note=51 velocity=121 time=0
note_on channel=7 note=75 velocity=110 time=0
note_on channel=8 note=56 velocity=127 time=0
note_on channel=9 note=35 velocity=116 time=0
note_on channel=9 note=40 velocity=116 time=0
note_on channel=9 note=35 velocity=116 time=0
note_on channel=9 note=42 velocity=98 time=0
note_on channel=10 note=44 velocity=113 time=8
note_on channel=6 note=48 velocity=123 time=3
note_on channel=6 note=53 velocity=120 time=0
note_off channel=9 note=35 velocity=0 time=17
note_off channel=9 note=42 velocity=0 time=0
note_off channel=7 note=72 velocity=0 time=0
note_off channel=7 note=65 velocity=0 time=5
note_off channel=8 note=58 velocity=0 time=7
note_off channel=6 note=51 velocity=0 time=10
note_off channel=7 note=67 velocity=0 time=12
note_off channel=6 note=44 velocity=0 time=2
note_off channel=8 note=65 velocity=0 time=3
note_off channel=6 note=44 velocity=0 time=8
note_off channel=1 note=36 velocity=0 time=9
note_off channel=3 note=77 velocity=0 time=52
note_off channel=9 note=53 velocity=0 time=18
note_off channel=9 note=53 velocity=0 time=2
note_off channel=8 note=51 velocity=0 time=1
note_off channel=6 note=46 velocity=0 time=8
note_off channel=9 note=40 velocity=0 time=22
note_off channel=9 note=40 velocity=0 time=0
note_off channel=9 note=53 velocity=0 time=2
note_off channel=7 note=75 velocity=0 time=1
note_off channel=7 note=75 velocity=0 time=5
note_off channel=8 note=58 velocity=0 time=5
note_off channel=6 note=53 velocity=0 time=13
note_off channel=7 note=67 velocity=0 time=12
note_off channel=6 note=53 velocity=0 time=23
note_off channel=9 note=43 velocity=0 time=24
note_off channel=9 note=40 velocity=0 time=0
note_off channel=7 note=70 velocity=0 time=39
note_off channel=7 note=70 velocity=0 time=12
note_off channel=8 note=53 velocity=0 time=8
note_off channel=8 note=51 velocity=0 time=4
note_off channel=4 note=63 velocity=0 time=6
note_off channel=4 note=70 velocity=0 time=2
note_off channel=3 note=79 velocity=0 time=1
note_off channel=10 note=44 velocity=0 time=8
note_on channel=1 note=32 velocity=113 time=13
note_on channel=7 note=63 velocity=116 time=0
note_on channel=7 note=67 velocity=110 time=0
note_on channel=8 note=60 velocity=120 time=0
note_on channel=8 note=53 velocity=89 time=0
note_on channel=8 note=60 velocity=110 time=0
note_on channel=9 note=35 velocity=116 time=0
note_on channel=9 note=45 velocity=98 time=0
note_on channel=10 note=44 velocity=113 time=8
note_on channel=6 note=44 velocity=127 time=3
note_on channel=6 note=53 velocity=106 time=0
note_off channel=9 note=35 velocity=0 time=27
note_off channel=9 note=42 velocity=0 time=0
note_off channel=4 note=63 velocity=0 time=22
note_off channel=4 note=72 velocity=0 time=0
note_off channel=1 note=34 velocity=0 time=120
note_off channel=10 note=48 velocity=0 time=8
note_on channel=1 note=32 velocity=113 time=13
note_on channel=4 note=65 velocity=98 time=0
note_on channel=7 note=63 velocity=101 time=0
note_on channel=4 note=70 velocity=87 time=0
note_on channel=7 note=63 velocity=116 time=0
note_on channel=7 note=75 velocity=127 time=0
note_on channel=7 note=75 velocity=95 time=0
note_on channel=8 note=56 velocity=127 time=0
note_on channel=9 note=35 velocity=116 time=0
note_on channel=9 note=42 velocity=98 time=0
note_on channel=10 note=48 velocity=118 time=8
note_on channel=6 note=44 velocity=123 time=3
note_on channel=6 note=51 velocity=127 time=0
note_on channel=3 note=82 velocity=127 time=0
note_on channel=3 note=84 velocity=125 time=0
note_off channel=8 note=54 velocity=0 time=19
note_off channel=9 note=40 velocity=0 time=0
note_off channel=9 note=42 velocity=0 time=0
note_off channel=7 note=70 velocity=0 time=1
note_off channel=7 note=72 velocity=0 time=2
note_off channel=6 note=44 velocity=0 time=1
note_off channel=3 note=82 velocity=0 time=6
note_off channel=9 note=51 velocity=0 time=10
note_off channel=9 note=49 velocity=0 time=0
note_off channel=7 note=46 velocity=0 time=0
note_off channel=1 note=31 velocity=0 time=71
note_off channel=10 note=43 velocity=0 time=8
note_on channel=1 note=32 velocity=118 time=13
note_on channel=7 note=65 velocity=98 time=0
note_on channel=7 note=70 velocity=116 time=0
note_on channel=7 note=74 velocity=102 time=0
note_on channel=7 note=72 velocity=127 time=0
note_on channel=7 note=75 velocity=116 time=0
note_on channel=8 note=55 velocity=97 time=0
note_on channel=8 note=60 velocity=127 time=0
note_on channel=9 note=35 velocity=116 time=0
note_on channel=9 note=42 velocity=98 time=0
note_on channel=10 note=48 velocity=113 time=8
note_on channel=6 note=46 velocity=127 time=3
note_on channel=6 note=51 velocity=127 time=0
note_off channel=9 note=35 velocity=0 time=17
note_off channel=9 note=42 velocity=0 time=0
note_off channel=9 note=54 velocity=0 time=0
note_off channel=7 note=34 velocity=0 time=25
note_off channel=7 note=63 velocity=0 time=18
note_off channel=6 note=51 velocity=0 time=5
note_off channel=8 note=51 velocity=0 time=12
note_off channel=6 note=44 velocity=0 time=2
note_off channel=8 note=53 velocity=0 time=8
note_off channel=6 note=53 velocity=0 time=4
note_off channel=4 note=63 velocity=0 time=2
note_off channel=4 note=70 velocity=0 time=0
note_on channel=1 note=32 velocity=113 time=13
note_on channel=4 note=70 velocity=115 time=0
note_off channel=9 note=42 velocity=0 time=38
note_off channel=7 note=63 velocity=0 time=39
note_off channel=7 note=63 velocity=0 time=1
note_off channel=6 note=44 velocity=0 time=17
note_off channel=3 note=65 velocity=0 time=23
note_off channel=7 note=58 velocity=0 time=33
note_off channel=7 note=67 velocity=0 time=12
note_off channel=6 note=53 velocity=0 time=16
note_off channel=8 note=51 velocity=0 time=9
note_off channel=8 note=58 velocity=0 time=10
note_off channel=6 note=46 velocity=0 time=6
note_on channel=1 note=32 velocity=113 time=13
note_on channel=7 note=65 velocity=98 time=0
note_on channel=4 note=70 velocity=111 time=0
note_on channel=7 note=74 velocity=106 time=0
note_on channel=8 note=51 velocity=127 time=0
note_on channel=8 note=60 velocity=81 time=0
note_on channel=9 note=42 velocity=98 time=0
note_on channel=10 note=44 velocity=113 time=8
note_on channel=6 note=44 velocity=123 time=3
note_on channel=6 note=51 velocity=123 time=0
note_off channel=9 note=35 velocity=0 time=17
note_off channel=9 note=42 velocity=0 time=0
note_off channel=9 note=54 velocity=0 time=0
note_off channel=7 note=72 velocity=0 time=32
note_off channel=7 note=75 velocity=0 time=15
note_off channel=6 note=46 velocity=0 time=2
note_off channel=7 note=74 velocity=0 time=7
note_off channel=6 note=55 velocity=0 time=3
note_off channel=8 note=58 velocity=0 time=1
note_off channel=8 note=53 velocity=0 time=1
note_off channel=4 note=63 velocity=0 time=43
note_off channel=4 note=63 velocity=0 time=0
note_off channel=4 note=67 velocity=0 time=9
note_off channel=4 note=70 velocity=0 time=0
note_on channel=8 note=55 velocity=125 time=0
note_off channel=9 note=35 velocity=0 time=17
note_off channel=7 note=65 velocity=0 time=1
note_off channel=7 note=63 velocity=0 time=1
note_off channel=4 note=67 velocity=0 time=1
note_off channel=4 note=72 velocity=0 time=0
note_off channel=7 note=74 velocity=0 time=5
note_off channel=8 note=62 velocity=0 time=3
note_off channel=6 note=46 velocity=0 time=56
note_off channel=3 note=79 velocity=0 time=4
note_off channel=3 note=79 velocity=0 time=29
note_off channel=10 note=48 velocity=0 time=8
note_on channel=3 note=62 velocity=111 time=143
note_off channel=1 note=32 velocity=0 time=1113
note_off channel=9 note=43 velocity=0 time=10
note_off channel=7 note=63 velocity=0 time=6
note_off channel=4 note=70 velocity=0 time=7
note_off channel=1 note=32 velocity=0 time=198
note_off channel=10 note=46 velocity=0 time=8
note_on channel=1 note=36 velocity=113 time=13
note_on channel=4 note=63 velocity=116 time=0
note_on channel=4 note=67 velocity=102 time=0
note_on channel=4 note=72 velocity=125 time=0
note_on channel=7 note=76 velocity=125 time=0
note_on channel=7 note=74 velocity=86 time=0
note_off channel=7 note=67 velocity=0 time=3
note_off channel=8 note=58 velocity=0 time=15
note_off channel=6 note=48 velocity=0 time=6
note_off channel=8 note=58 velocity=0 time=2
note_off channel=6 note=48 velocity=0 time=7
note_off channel=3 note=80 velocity=0 time=64
note_off channel=8 note=43 velocity=0 time=9
note_off channel=8 note=53 velocity=0 time=6
note_off channel=1 note=32 velocity=0 time=494
note_off channel=10 note=44 velocity=0 time=8
note_on channel=1 note=32 velocity=118 time=13
note_on channel=7 note=62 velocity=83 time=0
note_on channel=4 note=70 velocity=115 time=0
note_on channel=7 note=36 velocity=115 time=0
note_on channel=7 note=46 velocity=116 time=0
note_on channel=7 note=60 velocity=120 time=0
note_on channel=7 note=74 velocity=106 time=0
note_on channel=8 note=56 velocity=123 time=0
note_on channel=9 note=39 velocity=85 time=0
note_on channel=9 note=40 velocity=116 time=0
note_on channel=10 note=48 velocity=113 time=8
note_on channel=6 note=46 velocity=125 time=3
note_on channel=6 note=53 velocity=120 time=0
note_off channel=9 note=35 velocity=0 time=17
note_off channel=9 note=42 velocity=0 time=0
note_off channel=6 note=53 velocity=0 time=12
note_off channel=8 note=51 velocity=0 time=10
note_off channel=8 note=53 velocity=0 time=8
note_off channel=8 note=55 velocity=0 time=9
note_off channel=8 note=58 velocity=0 time=6
note_off channel=8 note=53 velocity=0 time=7
note_off channel=7 note=67 velocity=0 time=9
note_off channel=6 note=48 velocity=0 time=7
note_off channel=8 note=55 velocity=0 time=4
note_off channel=6 note=48 velocity=0 time=58
note_off channel=1 note=34 velocity=0 time=101
note_off channel=10 note=44 velocity=0 time=8
note_on channel=1 note=36 velocity=113 time=13
note_on channel=4 note=67 velocity=102 time=0
note_on channel=4 note=70 velocity=102 time=0
note_on channel=9 note=44 velocity=102 time=0
note_on channel=7 note=75 velocity=120 time=0
note_on channel=7 note=78 velocity=90 time=0
note_on channel=8 note=53 velocity=83 time=0
note_on channel=8 note=56 velocity=116 time=0
note_on channel=9 note=35 velocity=116 time=0
note_on channel=9 note=42 velocity=98 time=0
note_on channel=9 note=51 velocity=116 time=0
note_on channel=9 note=40 velocity=98 time=0
note_on channel=10 note=46 velocity=118 time=8
note_on channel=6 note=46 velocity=127 time=3
note_on channel=6 note=53 velocity=110 time=0
note_off channel=9 note=35 velocity=0 time=10
note_off channel=9 note=42 velocity=0 time=0
note_off channel=7 note=63 velocity=0 time=18
note_off channel=7 note=68 velocity=0 time=2
note_off channel=8 note=60 velocity=0 time=10
note_off channel=6 note=53 velocity=0 time=15
note_off channel=8 note=56 velocity=0 time=4
note_off channel=8 note=58 velocity=0 time=10
note_off channel=8 note=53 velocity=0 time=4
note_off channel=7 note=63 velocity=0 time=1
note_off channel=6 note=53 velocity=0 time=3
note_off channel=6 note=51 velocity=0 time=5
note_off channel=4 note=63 velocity=0 time=51
note_off channel=4 note=70 velocity=0 time=0
note_off channel=9 note=40 velocity=0 time=49
note_off channel=7 note=44 velocity=0 time=0
note_off channel=3 note=80 velocity=0 time=8
note_off channel=1 note=36 velocity=0 time=35
note_off channel=10 note=44 velocity=0 time=8
note_on channel=1 note=34 velocity=113 time=13
note_on channel=7 note=65 velocity=98 time=0
note_on channel=7 note=67 velocity=85 time=0
note_on channel=7 note=68 velocity=111 time=0
note_on channel=7 note=72 velocity=102 time=0
note_on channel=8 note=53 velocity=57 time=0
note_on channel=7 note=75 velocity=90 time=0
note_on channel=8 note=58 velocity=123 time=0
note_on channel=9 note=35 velocity=116 time=0
note_on channel=9 note=42 velocity=98 time=0
note_on channel=10 note=44 velocity=118 time=8
note_on channel=6 note=48 velocity=127 time=3
note_on channel=6 note=55 velocity=106 time=0
note_off channel=9 note=35 velocity=0 time=13
note_on channel=3 note=79 velocity=127 time=0
note_off channel=1 note=32 velocity=0 time=71
note_off channel=10 note=46 velocity=0 time=8
note_on channel=1 note=34 velocity=113 time=13
note_on channel=4 note=63 velocity=116 time=0
note_on channel=4 note=70 velocity=102 time=0
note_on channel=7 note=42 velocity=115 time=0
note_on channel=9 note=35 velocity=98 time=0
note_on channel=7 note=65 velocity=106 time=0
note_on channel=7 note=63 velocity=111 time=0
note_on channel=8 note=51 velocity=116 time=0
note_on channel=8 note=56 velocity=127 time=0
note_on channel=9 note=35 velocity=116 time=0
note_on channel=9 note=42 velocity=98 time=0
note_on channel=9 note=53 velocity=115 time=0
note_on channel=9 note=54 velocity=116 time=0
note_on channel=10 note=48 velocity=113 time=8
note_on channel=6 note=48 velocity=123 time=3
note_on channel=6 note=55 velocity=115 time=0
note_off channel=9 note=35 velocity=0 time=17
note_off channel=7 note=74 velocity=0 time=12
note_off channel=7 note=75 velocity=0 time=7
note_off channel=8 note=60 velocity=0 time=6
note_off channel=8 note=56 velocity=0 time=5
note_off channel=6 note=48 velocity=0 time=8
note_off channel=6 note=46 velocity=0 time=12
note_off channel=8 note=85 velocity=0 time=2
note_off channel=8 note=53 velocity=0 time=2
note_off channel=8 note=53 velocity=0 time=3
note_off channel=6 note=46 velocity=0 time=7
note_off channel=9 note=35 velocity=0 time=28
note_off channel=7 note=72 velocity=0 time=17
note_off channel=6 note=51 velocity=0 time=5
note_off channel=8 note=53 velocity=0 time=16
note_off channel=6 note=44 velocity=0 time=5
note_off channel=1 note=32 velocity=0 time=81
note_off channel=10 note=46 velocity=0 time=8
note_on channel=1 note=32 velocity=118 time=13
note_on channel=4 note=63 velocity=116 time=0
note_on channel=4 note=67 velocity=87 time=0
note_on channel=4 note=70 velocity=102 time=0
note_on channel=7 note=67 velocity=106 time=0
note_on channel=7 note=72 velocity=125 time=0
note_on channel=8 note=53 velocity=85 time=0
note_on channel=8 note=58 velocity=127 time=0
note_on channel=8 note=53 velocity=95 time=0
note_on channel=9 note=39 velocity=85 time=0
note_on channel=9 note=40 velocity=116 time=0
note_on channel=9 note=42 velocity=98 time=0
note_on channel=9 note=42 velocity=98 time=0
note_on channel=9 note=42 velocity=98 time=0
note_on channel=10 note=46 velocity=118 time=8
note_on channel=6 note=46 velocity=127 time=3
note_on channel=6 note=53 velocity=110 time=0
note_off channel=4 note=63 velocity=0 time=27
note_off channel=4 note=70 velocity=0 time=0
note_off channel=1 note=34 velocity=0 time=9
note_on channel=1 note=32 velocity=113 time=13
note_on channel=7 note=63 velocity=111 time=0
note_on channel=7 note=63 velocity=116 time=0
note_on channel=7 note=67 velocity=102 time=0
note_on channel=4 note=70 velocity=102 time=0
note_on channel=8 note=51 velocity=123 time=0
note_on channel=8 note=56 velocity=116 time=0
note_on channel=9 note=35 velocity=116 time=0
note_on channel=9 note=42 velocity=98 time=0
note_off channel=9 note=35 velocity=0 time=17
note_off channel=9 note=42 velocity=0 time=0
note_off channel=7 note=75 velocity=0 time=15
note_off channel=7 note=72 velocity=0 time=0
note_off channel=8 note=60 velocity=0 time=22
note_off channel=6 note=48 velocity=0 time=6
note_off channel=8 note=51 velocity=0 time=4
note_off channel=7 note=63 velocity=0 time=5
note_off channel=6 note=46 velocity=0 time=3
note_off channel=8 note=56 velocity=0 time=8
note_off channel=8 note=53 velocity=0 time=2
note_off channel=8 note=55 velocity=0 time=8
note_off channel=7 note=65 velocity=0 time=5
note_off channel=8 note=55 velocity=0 time=13
note_off channel=6 note=46 velocity=0 time=6
note_off channel=8 note=55 velocity=0 time=2
note_off channel=6 note=48 velocity=0 time=8
note_off channel=8 note=51 velocity=0 time=13
note_off channel=6 note=48 velocity=0 time=17
note_off channel=8 note=58 velocity=0 time=18
note_off channel=6 note=44 velocity=0 time=14
note_off channel=6 note=48 velocity=0 time=14
note_off channel=6 note=48 velocity=0 time=10
note_off channel=8 note=51 velocity=0 time=28
note_off channel=8 note=51 velocity=0 time=2
note_off channel=1 note=32 velocity=0 time=110
note_off channel=10 note=44 velocity=0 time=8
note_on channel=1 note=34 velocity=113 time=13
note_on channel=4 note=63 velocity=116 time=0
note_on channel=4 note=63 velocity=127 time=0
note_on channel=4 note=70 velocity=90 time=0
note_on channel=7 note=67 velocity=110 time=0
note_on channel=7 note=74 velocity=97 time=0
note_on channel=8 note=53 velocity=70 time=0
note_on channel=8 note=55 velocity=87 time=0
note_on channel=8 note=54 velocity=89 time=0
note_on channel=8 note=56 velocity=116 time=0
note_on channel=9 note=35 velocity=116 time=0
note_on channel=9 note=42 velocity=98 time=0
note_off channel=9 note=35 velocity=0 time=6
note_off channel=9 note=35 velocity=0 time=17
note_off channel=9 note=54 velocity=0 time=0
note_off channel=7 note=67 velocity=0 time=2
note_off channel=8 note=51 velocity=0 time=9
note_off channel=9 note=42 velocity=0 time=15
note_off channel=7 note=72 velocity=0 time=10
note_off channel=6 note=44 velocity=0 time=4
note_off channel=1 note=34 velocity=0 time=59
note_off channel=3 note=80 velocity=0 time=2
note_off channel=9 note=53 velocity=0 time=1
note_off channel=8 note=51 velocity=0 time=6
note_off channel=7 note=74 velocity=0 time=0
note_off channel=6 note=55 velocity=0 time=7
note_off channel=7 note=74 velocity=0 time=8
note_on channel=3 note=84 velocity=106 time=57
note_off channel=4 note=63 velocity=0 time=7
note_off channel=4 note=67 velocity=0 time=8
note_off channel=4 note=67 velocity=0 time=2
note_off channel=4 note=70 velocity=0 time=0
note_off channel=1 note=32 velocity=0 time=4
note_off channel=10 note=44 velocity=0 time=8
note_on channel=1 note=32 velocity=113 time=13
note_on channel=4 note=67 velocity=102 time=0
note_on channel=4 note=70 velocity=115 time=0
note_on channel=7 note=32 velocity=115 time=0
note_on channel=7 note=63 velocity=116 time=0
note_on channel=7 note=63 velocity=127 time=0
note_on channel=7 note=62 velocity=90 time=0
note_on channel=7 note=72 velocity=102 time=0
note_on channel=8 note=51 velocity=97 time=0
note_on channel=7 note=76 velocity=105 time=0
note_on channel=8 note=53 velocity=50 time=0
note_on channel=8 note=60 velocity=115 time=0
note_off channel=9 note=35 velocity=0 time=13
note_off channel=9 note=42 velocity=0 time=0
note_off channel=6 note=53 velocity=0 time=12
note_off channel=8 note=56 velocity=0 time=2
note_off channel=1 note=34 velocity=0 time=8
note_on channel=1 note=34 velocity=113 time=13
note_on channel=7 note=60 velocity=120 time=0
note_on channel=7 note=72 velocity=123 time=0
note_on channel=7 note=60 velocity=106 time=0
note_on channel=7 note=74 velocity=90 time=0
note_on channel=8 note=50 velocity=93 time=0
note_on channel=8 note=60 velocity=120 time=0
note_on channel=9 note=35 velocity=116 time=0
note_on channel=9 note=42 velocity=98 time=0
note_on channel=10 note=43 velocity=118 time=8
note_on channel=6 note=55 velocity=125 time=0
note_off channel=9 note=39 velocity=0 time=17
note_on channel=3 note=79 velocity=115 time=2
note_off channel=9 note=42 velocity=0 time=0
note_off channel=7 note=65 velocity=0 time=18
note_off channel=8 note=51 velocity=0 time=6
note_off channel=8 note=58 velocity=0 time=8
note_off channel=6 note=48 velocity=0 time=30
note_off channel=8 note=55 velocity=0 time=21
note_off channel=3 note=84 velocity=0 time=90
