note_on channel=0 note=60 velocity=35 time=0
note_on channel=0 note=36 velocity=27 time=0
note_on channel=0 note=36 velocity=0 time=0
note_on channel=0 note=60 velocity=0 time=0
note_on channel=0 note=56 velocity=31 time=0
note_on channel=0 note=32 velocity=25 time=0
note_on channel=0 note=32 velocity=0 time=0
note_on channel=0 note=56 velocity=0 time=0
note_on channel=0 note=53 velocity=28 time=0
note_on channel=0 note=29 velocity=22 time=0
note_on channel=0 note=29 velocity=0 time=2160
note_on channel=0 note=53 velocity=0 time=0
note_on channel=0 note=56 velocity=35 time=0
note_on channel=0 note=32 velocity=27 time=0
note_on channel=0 note=32 velocity=0 time=0
note_on channel=0 note=56 velocity=0 time=0
note_on channel=0 note=60 velocity=30 time=0
note_on channel=0 note=36 velocity=24 time=0
note_on channel=0 note=36 velocity=0 time=0
note_on channel=0 note=60 velocity=0 time=0
note_on channel=0 note=65 velocity=35 time=0
note_on channel=0 note=41 velocity=27 time=0
note_on channel=0 note=41 velocity=0 time=0
note_on channel=0 note=65 velocity=0 time=0
note_on channel=0 note=68 velocity=35 time=0
note_on channel=0 note=44 velocity=27 time=0
note_on channel=0 note=44 velocity=0 time=0
note_on channel=0 note=68 velocity=0 time=0
note_on channel=0 note=72 velocity=30 time=0
note_on channel=0 note=48 velocity=24 time=0
note_on channel=0 note=48 velocity=0 time=0
note_on channel=0 note=72 velocity=0 time=0
note_on channel=0 note=77 velocity=35 time=0
note_on channel=0 note=53 velocity=27 time=0
note_on channel=0 note=53 velocity=0 time=230
note_on channel=0 note=77 velocity=0 time=0
note_on channel=0 note=65 velocity=33 time=0
note_on channel=0 note=56 velocity=26 time=0
note_on channel=0 note=56 velocity=0 time=720
note_on channel=0 note=65 velocity=0 time=0
note_on channel=0 note=72 velocity=35 time=0
note_on channel=0 note=55 velocity=26 time=0
note_on channel=0 note=60 velocity=26 time=0
note_on channel=0 note=52 velocity=26 time=0
note_on channel=0 note=72 velocity=0 time=0
note_on channel=0 note=74 velocity=33 time=0
note_on channel=0 note=74 velocity=0 time=180
note_on channel=0 note=72 velocity=31 time=0
note_on channel=0 note=72 velocity=0 time=0
note_on channel=0 note=55 velocity=0 time=0
note_on channel=0 note=60 velocity=0 time=0
note_on channel=0 note=52 velocity=0 time=0
note_on channel=0 note=74 velocity=32 time=0
note_on channel=0 note=53 velocity=26 time=0
note_on channel=0 note=59 velocity=26 time=0
note_on channel=0 note=56 velocity=26 time=0
note_on channel=0 note=74 velocity=0 time=0
note_on channel=0 note=76 velocity=28 time=0
note_on channel=0 note=76 velocity=0 time=20
note_on channel=0 note=74 velocity=32 time=0
note_on channel=0 note=74 velocity=0 time=0
note_on channel=0 note=76 velocity=28 time=0
note_on channel=0 note=76 velocity=0 time=20
note_on channel=0 note=74 velocity=32 time=0
note_on channel=0 note=74 velocity=0 time=0
note_on channel=0 note=76 velocity=29 time=0
note_on channel=0 note=76 velocity=0 time=0
note_on channel=0 note=74 velocity=32 time=0
note_on channel=0 note=74 velocity=0 time=40
note_on channel=0 note=76 velocity=28 time=0
note_on channel=0 note=76 velocity=0 time=0
note_on channel=0 note=74 velocity=31 time=0
note_on channel=0 note=74 velocity=0 time=40
note_on channel=0 note=76 velocity=29 time=0
note_on channel=0 note=76 velocity=0 time=0
note_on channel=0 note=74 velocity=27 time=0
note_on channel=0 note=74 velocity=0 time=40
note_on channel=0 note=76 velocity=32 time=0
note_on channel=0 note=76 velocity=0 time=0
note_on channel=0 note=74 velocity=27 time=0
note_on channel=0 note=74 velocity=0 time=0
note_on channel=0 note=72 velocity=28 time=0
note_on channel=0 note=72 velocity=0 time=120
note_on channel=0 note=76 velocity=31 time=0
note_on channel=0 note=76 velocity=0 time=0
note_on channel=0 note=74 velocity=28 time=0
note_on channel=0 note=74 velocity=0 time=120
note_on channel=0 note=56 velocity=0 time=0
note_on channel=0 note=59 velocity=0 time=0
note_on channel=0 note=53 velocity=0 time=0
note_on channel=0 note=72 velocity=35 time=0
note_on channel=0 note=55 velocity=22 time=0
note_on channel=0 note=52 velocity=19 time=0
note_on channel=0 note=60 velocity=26 time=0
note_on channel=0 note=60 velocity=0 time=472
note_on channel=0 note=72 velocity=0 time=0
note_on channel=0 note=55 velocity=0 time=0
note_on channel=0 note=52 velocity=0 time=0
note_on channel=0 note=61 velocity=35 time=0
note_on channel=0 note=37 velocity=27 time=0
note_on channel=0 note=37 velocity=0 time=0
note_on channel=0 note=61 velocity=0 time=0
note_on channel=0 note=58 velocity=31 time=0
note_on channel=0 note=34 velocity=25 time=0
note_on channel=0 note=34 velocity=0 time=0
note_on channel=0 note=58 velocity=0 time=0
note_on channel=0 note=54 velocity=28 time=0
note_on channel=0 note=30 velocity=22 time=0
note_on channel=0 note=30 velocity=0 time=720
note_on channel=0 note=54 velocity=0 time=0
note_on channel=0 note=58 velocity=35 time=0
note_on channel=0 note=34 velocity=27 time=0
note_on channel=0 note=34 velocity=0 time=0
note_on channel=0 note=58 velocity=0 time=0
note_on channel=0 note=61 velocity=30 time=0
note_on channel=0 note=37 velocity=24 time=0
note_on channel=0 note=37 velocity=0 time=0
note_on channel=0 note=61 velocity=0 time=0
note_on channel=0 note=66 velocity=35 time=0
note_on channel=0 note=42 velocity=27 time=0
note_on channel=0 note=42 velocity=0 time=0
note_on channel=0 note=66 velocity=0 time=0
note_on channel=0 note=70 velocity=35 time=0
note_on channel=0 note=46 velocity=27 time=0
note_on channel=0 note=46 velocity=0 time=0
note_on channel=0 note=70 velocity=0 time=0
note_on channel=0 note=73 velocity=30 time=0
note_on channel=0 note=49 velocity=24 time=0
note_on channel=0 note=49 velocity=0 time=0
note_on channel=0 note=73 velocity=0 time=0
note_on channel=0 note=78 velocity=34 time=0
note_on channel=0 note=54 velocity=29 time=0
note_on channel=0 note=54 velocity=0 time=0
note_on channel=0 note=78 velocity=0 time=0
note_on channel=0 note=66 velocity=33 time=0
note_on channel=0 note=58 velocity=26 time=0
note_on channel=0 note=58 velocity=0 time=720
note_on channel=0 note=66 velocity=0 time=0
note_on channel=0 note=73 velocity=35 time=0
note_on channel=0 note=53 velocity=26 time=0
note_on channel=0 note=61 velocity=26 time=0
note_on channel=0 note=56 velocity=26 time=0
note_on channel=0 note=73 velocity=0 time=0
note_on channel=0 note=75 velocity=32 time=0
note_on channel=0 note=75 velocity=0 time=180
note_on channel=0 note=73 velocity=31 time=0
note_on channel=0 note=73 velocity=0 time=0
note_on channel=0 note=53 velocity=0 time=0
note_on channel=0 note=61 velocity=0 time=0
note_on channel=0 note=56 velocity=0 time=0
note_on channel=0 note=75 velocity=30 time=0
note_on channel=0 note=57 velocity=26 time=0
note_on channel=0 note=60 velocity=26 time=0
note_on channel=0 note=54 velocity=26 time=0
note_on channel=0 note=75 velocity=0 time=0
note_on channel=0 note=77 velocity=27 time=0
note_on channel=0 note=77 velocity=0 time=0
note_on channel=0 note=75 velocity=30 time=0
note_on channel=0 note=75 velocity=0 time=0
note_on channel=0 note=77 velocity=27 time=0
note_on channel=0 note=77 velocity=0 time=0
note_on channel=0 note=75 velocity=30 time=0
note_on channel=0 note=75 velocity=0 time=0
note_on channel=0 note=77 velocity=27 time=0
note_on channel=0 note=77 velocity=0 time=0
note_on channel=0 note=75 velocity=29 time=0
note_on channel=0 note=75 velocity=0 time=40
note_on channel=0 note=77 velocity=27 time=0
note_on channel=0 note=77 velocity=0 time=0
note_on channel=0 note=75 velocity=29 time=0
note_on channel=0 note=75 velocity=0 time=0
note_on channel=0 note=77 velocity=28 time=0
note_on channel=0 note=77 velocity=0 time=0
note_on channel=0 note=75 velocity=30 time=0
note_on channel=0 note=75 velocity=0 time=0
note_on channel=0 note=77 velocity=28 time=0
note_on channel=0 note=77 velocity=0 time=0
note_on channel=0 note=75 velocity=26 time=0
note_on channel=0 note=75 velocity=0 time=0
note_on channel=0 note=73 velocity=28 time=0
note_on channel=0 note=73 velocity=0 time=120
note_on channel=0 note=77 velocity=31 time=0
note_on channel=0 note=77 velocity=0 time=0
note_on channel=0 note=75 velocity=29 time=0
note_on channel=0 note=75 velocity=0 time=0
note_on channel=0 note=54 velocity=0 time=0
note_on channel=0 note=60 velocity=0 time=0
note_on channel=0 note=57 velocity=0 time=0
note_on channel=0 note=73 velocity=35 time=0
note_on channel=0 note=53 velocity=19 time=0
note_on channel=0 note=56 velocity=22 time=0
note_on channel=0 note=61 velocity=26 time=0
note_on channel=0 note=61 velocity=0 time=471
note_on channel=0 note=73 velocity=0 time=0
note_on channel=0 note=53 velocity=0 time=0
note_on channel=0 note=56 velocity=0 time=0
note_on channel=0 note=72 velocity=35 time=0
note_on channel=0 note=67 velocity=26 time=0
note_on channel=0 note=64 velocity=26 time=0
note_on channel=0 note=72 velocity=0 time=0
note_on channel=0 note=74 velocity=42 time=0
note_on channel=0 note=74 velocity=0 time=180
note_on channel=0 note=72 velocity=38 time=0
note_on channel=0 note=72 velocity=0 time=0
note_on channel=0 note=64 velocity=0 time=0
note_on channel=0 note=67 velocity=0 time=0
note_on channel=0 note=74 velocity=43 time=0
note_on channel=0 note=68 velocity=26 time=0
note_on channel=0 note=71 velocity=26 time=0
note_on channel=0 note=65 velocity=26 time=0
note_on channel=0 note=74 velocity=0 time=0
note_on channel=0 note=76 velocity=35 time=0
note_on channel=0 note=76 velocity=0 time=0
note_on channel=0 note=74 velocity=40 time=0
note_on channel=0 note=74 velocity=0 time=40
note_on channel=0 note=76 velocity=36 time=0
note_on channel=0 note=76 velocity=0 time=0
note_on channel=0 note=74 velocity=39 time=0
note_on channel=0 note=74 velocity=0 time=0
note_on channel=0 note=76 velocity=36 time=0
note_on channel=0 note=76 velocity=0 time=40
note_on channel=0 note=74 velocity=41 time=0
note_on channel=0 note=74 velocity=0 time=0
note_on channel=0 note=76 velocity=37 time=0
note_on channel=0 note=76 velocity=0 time=0
note_on channel=0 note=74 velocity=40 time=0
note_on channel=0 note=74 velocity=0 time=0
note_on channel=0 note=76 velocity=35 time=0
note_on channel=0 note=76 velocity=0 time=0
note_on channel=0 note=74 velocity=31 time=0
note_on channel=0 note=74 velocity=0 time=0
note_on channel=0 note=76 velocity=37 time=0
note_on channel=0 note=76 velocity=0 time=0
note_on channel=0 note=74 velocity=33 time=0
note_on channel=0 note=74 velocity=0 time=0
note_on channel=0 note=72 velocity=33 time=0
note_on channel=0 note=72 velocity=0 time=120
note_on channel=0 note=76 velocity=37 time=0
note_on channel=0 note=76 velocity=0 time=0
note_on channel=0 note=74 velocity=33 time=0
note_on channel=0 note=74 velocity=0 time=0
note_on channel=0 note=65 velocity=0 time=0
note_on channel=0 note=71 velocity=0 time=0
note_on channel=0 note=68 velocity=0 time=0
note_on channel=0 note=72 velocity=35 time=0
note_on channel=0 note=64 velocity=22 time=0
note_on channel=0 note=67 velocity=26 time=0
note_on channel=0 note=67 velocity=0 time=480
note_on channel=0 note=64 velocity=0 time=0
note_on channel=0 note=72 velocity=0 time=0
note_on channel=0 note=37 velocity=27 time=0
note_on channel=0 note=37 velocity=0 time=80
note_on channel=0 note=37 velocity=26 time=0
note_on channel=0 note=37 velocity=0 time=120
note_on channel=0 note=37 velocity=26 time=0
note_on channel=0 note=37 velocity=0 time=120
note_on channel=0 note=36 velocity=26 time=0
note_on channel=0 note=36 velocity=0 time=240
note_on channel=0 note=76 velocity=35 time=0
note_on channel=0 note=67 velocity=26 time=0
note_on channel=0 note=73 velocity=26 time=0
note_on channel=0 note=70 velocity=26 time=0
note_on channel=0 note=76 velocity=0 time=0
note_on channel=0 note=77 velocity=38 time=0
note_on channel=0 note=77 velocity=0 time=0
note_on channel=0 note=70 velocity=0 time=0
note_on channel=0 note=73 velocity=0 time=0
note_on channel=0 note=67 velocity=0 time=0
note_on channel=0 note=77 velocity=39 time=0
note_on channel=0 note=70 velocity=26 time=0
note_on channel=0 note=73 velocity=26 time=0
note_on channel=0 note=68 velocity=26 time=0
note_on channel=0 note=77 velocity=0 time=0
note_on channel=0 note=79 velocity=34 time=0
note_on channel=0 note=79 velocity=0 time=0
note_on channel=0 note=77 velocity=39 time=0
note_on channel=0 note=77 velocity=0 time=0
note_on channel=0 note=79 velocity=35 time=0
note_on channel=0 note=79 velocity=0 time=0
note_on channel=0 note=77 velocity=39 time=0
note_on channel=0 note=77 velocity=0 time=0
note_on channel=0 note=79 velocity=35 time=0
note_on channel=0 note=79 velocity=0 time=0
note_on channel=0 note=77 velocity=39 time=0
note_on channel=0 note=77 velocity=0 time=0
note_on channel=0 note=79 velocity=35 time=0
note_on channel=0 note=79 velocity=0 time=0
note_on channel=0 note=77 velocity=39 time=0
note_on channel=0 note=77 velocity=0 time=40
note_on channel=0 note=79 velocity=36 time=0
note_on channel=0 note=79 velocity=0 time=40
note_on channel=0 note=77 velocity=33 time=0
note_on channel=0 note=77 velocity=0 time=0
note_on channel=0 note=79 velocity=39 time=0
note_on channel=0 note=79 velocity=0 time=0
note_on channel=0 note=77 velocity=33 time=0
note_on channel=0 note=77 velocity=0 time=0
note_on channel=0 note=76 velocity=34 time=0
note_on channel=0 note=76 velocity=0 time=120
note_on channel=0 note=79 velocity=40 time=0
note_on channel=0 note=79 velocity=0 time=0
note_on channel=0 note=77 velocity=35 time=0
note_on channel=0 note=77 velocity=0 time=0
note_on channel=0 note=68 velocity=0 time=0
note_on channel=0 note=73 velocity=0 time=0
note_on channel=0 note=70 velocity=0 time=0
note_on channel=0 note=76 velocity=35 time=0
note_on channel=0 note=67 velocity=22 time=0
note_on channel=0 note=70 velocity=22 time=0
note_on channel=0 note=73 velocity=26 time=0
note_on channel=0 note=73 velocity=0 time=465
note_on channel=0 note=76 velocity=0 time=0
note_on channel=0 note=67 velocity=0 time=0
note_on channel=0 note=70 velocity=0 time=0
note_on channel=0 note=37 velocity=27 time=0
note_on channel=0 note=37 velocity=0 time=120
note_on channel=0 note=37 velocity=26 time=0
note_on channel=0 note=37 velocity=0 time=120
note_on channel=0 note=37 velocity=26 time=0
note_on channel=0 note=37 velocity=0 time=120
note_on channel=0 note=36 velocity=26 time=0
note_on channel=0 note=36 velocity=0 time=240
note_on channel=0 note=76 velocity=35 time=0
note_on channel=0 note=79 velocity=35 time=0
note_on channel=0 note=79 velocity=0 time=240
note_on channel=0 note=76 velocity=0 time=0
note_on channel=0 note=79 velocity=31 time=0
note_on channel=0 note=76 velocity=31 time=0
note_on channel=0 note=76 velocity=0 time=0
note_on channel=0 note=79 velocity=0 time=0
note_on channel=0 note=76 velocity=35 time=0
note_on channel=0 note=79 velocity=35 time=0
note_on channel=0 note=79 velocity=0 time=0
note_on channel=0 note=76 velocity=0 time=0
note_on channel=0 note=79 velocity=35 time=0
note_on channel=0 note=82 velocity=35 time=0
note_on channel=0 note=82 velocity=0 time=480
note_on channel=0 note=79 velocity=0 time=0
note_on channel=0 note=37 velocity=27 time=0
note_on channel=0 note=37 velocity=0 time=0
note_on channel=0 note=37 velocity=26 time=0
note_on channel=0 note=37 velocity=0 time=0
note_on channel=0 note=37 velocity=26 time=0
note_on channel=0 note=37 velocity=0 time=240
note_on channel=0 note=36 velocity=26 time=0
note_on channel=0 note=36 velocity=0 time=240
note_on channel=0 note=82 velocity=83 time=0
note_on channel=0 note=79 velocity=83 time=0
note_on channel=0 note=79 velocity=0 time=0
note_on channel=0 note=82 velocity=0 time=0
note_on channel=0 note=82 velocity=77 time=0
note_on channel=0 note=79 velocity=77 time=0
note_on channel=0 note=79 velocity=0 time=0
note_on channel=0 note=82 velocity=0 time=0
note_on channel=0 note=79 velocity=83 time=0
note_on channel=0 note=82 velocity=83 time=0
note_on channel=0 note=82 velocity=0 time=0
note_on channel=0 note=79 velocity=0 time=0
note_on channel=0 note=88 velocity=85 time=0
note_on channel=0 note=88 velocity=0 time=68
note_on channel=0 note=82 velocity=76 time=0
note_on channel=0 note=82 velocity=0 time=40
note_on channel=0 note=91 velocity=85 time=0
note_on channel=0 note=91 velocity=0 time=0
note_on channel=0 note=88 velocity=75 time=0
note_on channel=0 note=88 velocity=0 time=120
note_on channel=0 note=94 velocity=85 time=0
note_on channel=0 note=94 velocity=0 time=40
note_on channel=0 note=91 velocity=76 time=0
note_on channel=0 note=91 velocity=0 time=0
note_on channel=0 note=88 velocity=85 time=0
note_on channel=0 note=88 velocity=0 time=120
note_on channel=0 note=91 velocity=76 time=0
note_on channel=0 note=91 velocity=0 time=40
note_on channel=0 note=82 velocity=83 time=0
note_on channel=0 note=82 velocity=0 time=0
note_on channel=0 note=88 velocity=75 time=0
note_on channel=0 note=88 velocity=0 time=120
note_on channel=0 note=79 velocity=83 time=0
note_on channel=0 note=79 velocity=0 time=40
note_on channel=0 note=82 velocity=74 time=0
note_on channel=0 note=82 velocity=0 time=0
note_on channel=0 note=76 velocity=81 time=0
note_on channel=0 note=76 velocity=0 time=120
note_on channel=0 note=79 velocity=74 time=0
note_on channel=0 note=79 velocity=0 time=120
note_on channel=0 note=70 velocity=81 time=0
note_on channel=0 note=70 velocity=0 time=120
note_on channel=0 note=76 velocity=71 time=0
note_on channel=0 note=76 velocity=0 time=120
note_on channel=0 note=67 velocity=80 time=0
note_on channel=0 note=67 velocity=0 time=120
note_on channel=0 note=70 velocity=73 time=0
note_on channel=0 note=70 velocity=0 time=120
note_on channel=0 note=64 velocity=80 time=0
note_on channel=0 note=64 velocity=0 time=120
note_on channel=0 note=67 velocity=70 time=0
note_on channel=0 note=67 velocity=0 time=120
note_on channel=0 note=58 velocity=79 time=0
note_on channel=0 note=58 velocity=0 time=120
note_on channel=0 note=64 velocity=71 time=0
note_on channel=0 note=64 velocity=0 time=120
note_on channel=0 note=55 velocity=75 time=0
note_on channel=0 note=55 velocity=0 time=120
note_on channel=0 note=58 velocity=63 time=0
note_on channel=0 note=58 velocity=0 time=40
note_on channel=0 note=52 velocity=75 time=0
note_on channel=0 note=52 velocity=0 time=40
note_on channel=0 note=55 velocity=64 time=0
note_on channel=0 note=55 velocity=0 time=0
note_on channel=0 note=46 velocity=75 time=0
note_on channel=0 note=46 velocity=0 time=0
note_on channel=0 note=52 velocity=60 time=0
note_on channel=0 note=52 velocity=0 time=0
note_on channel=0 note=31 velocity=73 time=0
note_on channel=0 note=31 velocity=0 time=0
note_on channel=0 note=34 velocity=67 time=0
note_on channel=0 note=34 velocity=0 time=0
note_on channel=0 note=40 velocity=77 time=0
note_on channel=0 note=40 velocity=0 time=40
note_on channel=0 note=43 velocity=67 time=0
note_on channel=0 note=43 velocity=0 time=80
note_on channel=0 note=46 velocity=77 time=0
note_on channel=0 note=46 velocity=0 time=0
note_on channel=0 note=49 velocity=67 time=0
note_on channel=0 note=49 velocity=0 time=40
note_on channel=0 note=52 velocity=82 time=0
note_on channel=0 note=52 velocity=0 time=80
note_on channel=0 note=55 velocity=73 time=0
note_on channel=0 note=55 velocity=0 time=0
note_on channel=0 note=58 velocity=89 time=0
note_on channel=0 note=58 velocity=0 time=0
note_on channel=0 note=41 velocity=72 time=480
note_on channel=0 note=29 velocity=72 time=0
note_on channel=0 note=56 velocity=86 time=0
note_on channel=0 note=61 velocity=86 time=0
note_on channel=0 note=49 velocity=86 time=0
note_on channel=0 note=49 velocity=0 time=0
note_on channel=0 note=56 velocity=0 time=0
note_on channel=0 note=41 velocity=0 time=0
note_on channel=0 note=29 velocity=0 time=0
note_on channel=0 note=61 velocity=0 time=0
note_on channel=0 note=40 velocity=40 time=0
note_on channel=0 note=52 velocity=48 time=0
note_on channel=0 note=48 velocity=40 time=0
note_on channel=0 note=60 velocity=48 time=0
note_on channel=0 note=55 velocity=48 time=0
note_on channel=0 note=55 velocity=0 time=2100
note_on channel=0 note=48 velocity=0 time=0
note_on channel=0 note=40 velocity=0 time=0
note_on channel=0 note=52 velocity=0 time=0
note_on channel=0 note=60 velocity=0 time=0
note_on channel=0 note=60 velocity=35 time=60
note_on channel=0 note=36 velocity=27 time=0
note_on channel=0 note=36 velocity=0 time=140
note_on channel=0 note=60 velocity=0 time=0
note_on channel=0 note=56 velocity=31 time=0
note_on channel=0 note=32 velocity=25 time=0
note_on channel=0 note=32 velocity=0 time=0
note_on channel=0 note=56 velocity=0 time=0
note_on channel=0 note=53 velocity=103 time=0
note_on channel=0 note=29 velocity=81 time=0
note_on channel=0 note=29 velocity=0 time=0
note_on channel=0 note=53 velocity=0 time=0
note_on channel=0 note=60 velocity=85 time=0
note_on channel=0 note=65 velocity=101 time=0
note_on channel=0 note=56 velocity=75 time=0
note_on channel=0 note=53 velocity=75 time=0
note_on channel=0 note=32 velocity=61 time=240
note_on channel=0 note=29 velocity=61 time=0
note_on channel=0 note=41 velocity=81 time=0
note_on channel=0 note=36 velocity=69 time=0
note_on channel=0 note=53 velocity=0 time=235
note_on channel=0 note=56 velocity=0 time=0
note_on channel=0 note=60 velocity=0 time=0
note_on channel=0 note=65 velocity=0 time=0
note_on channel=0 note=60 velocity=72 time=5
note_on channel=0 note=56 velocity=72 time=0
note_on channel=0 note=65 velocity=81 time=0
note_on channel=0 note=68 velocity=96 time=0
note_on channel=0 note=32 velocity=0 time=235
note_on channel=0 note=41 velocity=0 time=0
note_on channel=0 note=36 velocity=0 time=0
note_on channel=0 note=29 velocity=0 time=0
note_on channel=0 note=32 velocity=57 time=5
note_on channel=0 note=36 velocity=64 time=0
note_on channel=0 note=41 velocity=76 time=0
note_on channel=0 note=29 velocity=57 time=0
note_on channel=0 note=60 velocity=0 time=235
note_on channel=0 note=65 velocity=0 time=0
note_on channel=0 note=68 velocity=0 time=0
note_on channel=0 note=56 velocity=0 time=0
note_on channel=0 note=60 velocity=71 time=5
note_on channel=0 note=72 velocity=96 time=0
note_on channel=0 note=65 velocity=71 time=0
note_on channel=0 note=68 velocity=79 time=0
note_on channel=0 note=32 velocity=0 time=235
note_on channel=0 note=41 velocity=0 time=0
note_on channel=0 note=29 velocity=0 time=0
note_on channel=0 note=36 velocity=0 time=0
note_on channel=0 note=32 velocity=55 time=5
note_on channel=0 note=36 velocity=63 time=0
note_on channel=0 note=41 velocity=73 time=0
note_on channel=0 note=29 velocity=55 time=0
note_on channel=0 note=60 velocity=0 time=235
note_on channel=0 note=65 velocity=0 time=0
note_on channel=0 note=68 velocity=0 time=0
note_on channel=0 note=72 velocity=0 time=0
note_on channel=0 note=72 velocity=80 time=5
note_on channel=0 note=77 velocity=95 time=0
note_on channel=0 note=65 velocity=72 time=0
note_on channel=0 note=68 velocity=72 time=0
note_on channel=0 note=32 velocity=0 time=235
note_on channel=0 note=41 velocity=0 time=0
note_on channel=0 note=29 velocity=0 time=0
note_on channel=0 note=36 velocity=0 time=0
note_on channel=0 note=32 velocity=61 time=5
note_on channel=0 note=29 velocity=61 time=0
note_on channel=0 note=41 velocity=81 time=0
note_on channel=0 note=36 velocity=69 time=0
note_on channel=0 note=72 velocity=0 time=235
note_on channel=0 note=65 velocity=0 time=0
note_on channel=0 note=68 velocity=0 time=0
note_on channel=0 note=77 velocity=0 time=0
note_on channel=0 note=77 velocity=86 time=5
note_on channel=0 note=68 velocity=76 time=0
note_on channel=0 note=72 velocity=76 time=0
note_on channel=0 note=80 velocity=103 time=0
note_on channel=0 note=32 velocity=0 time=235
note_on channel=0 note=41 velocity=0 time=0
note_on channel=0 note=36 velocity=0 time=0
note_on channel=0 note=29 velocity=0 time=0
note_on channel=0 note=32 velocity=55 time=5
note_on channel=0 note=36 velocity=63 time=0
note_on channel=0 note=41 velocity=73 time=0
note_on channel=0 note=29 velocity=55 time=0
note_on channel=0 note=77 velocity=0 time=235
note_on channel=0 note=72 velocity=0 time=0
note_on channel=0 note=80 velocity=0 time=0
note_on channel=0 note=68 velocity=0 time=0
note_on channel=0 note=77 velocity=78 time=0
note_on channel=0 note=84 velocity=94 time=0
note_on channel=0 note=80 velocity=78 time=0
note_on channel=0 note=72 velocity=71 time=0
note_on channel=0 note=32 velocity=0 time=235
note_on channel=0 note=41 velocity=0 time=0
note_on channel=0 note=29 velocity=0 time=0
note_on channel=0 note=36 velocity=0 time=0
note_on channel=0 note=77 velocity=0 time=3
note_on channel=0 note=72 velocity=0 time=0
note_on channel=0 note=84 velocity=0 time=0
note_on channel=0 note=80 velocity=0 time=0
note_on channel=0 note=89 velocity=103 time=2
note_on channel=0 note=77 velocity=76 time=0
note_on channel=0 note=84 velocity=86 time=0
note_on channel=0 note=80 velocity=86 time=0
note_on channel=0 note=29 velocity=61 time=0
note_on channel=0 note=36 velocity=69 time=0
note_on channel=0 note=41 velocity=81 time=0
note_on channel=0 note=32 velocity=61 time=0
note_on channel=0 note=32 velocity=0 time=0
note_on channel=0 note=89 velocity=0 time=0
note_on channel=0 note=29 velocity=0 time=0
note_on channel=0 note=77 velocity=0 time=0
note_on channel=0 note=84 velocity=0 time=0
note_on channel=0 note=80 velocity=0 time=0
note_on channel=0 note=36 velocity=0 time=0
note_on channel=0 note=41 velocity=0 time=0
note_on channel=0 note=56 velocity=41 time=0
note_on channel=0 note=32 velocity=33 time=0
note_on channel=0 note=32 velocity=0 time=0
note_on channel=0 note=56 velocity=0 time=0
note_on channel=0 note=60 velocity=35 time=0
note_on channel=0 note=36 velocity=28 time=0
note_on channel=0 note=36 velocity=0 time=0
note_on channel=0 note=60 velocity=0 time=0
note_on channel=0 note=65 velocity=39 time=0
note_on channel=0 note=41 velocity=33 time=0
note_on channel=0 note=41 velocity=0 time=0
note_on channel=0 note=65 velocity=0 time=0
note_on channel=0 note=68 velocity=41 time=0
note_on channel=0 note=44 velocity=33 time=0
note_on channel=0 note=44 velocity=0 time=0
note_on channel=0 note=68 velocity=0 time=0
note_on channel=0 note=72 velocity=36 time=0
note_on channel=0 note=48 velocity=28 time=0
note_on channel=0 note=48 velocity=0 time=0
note_on channel=0 note=72 velocity=0 time=0
note_on channel=0 note=77 velocity=39 time=0
note_on channel=0 note=53 velocity=33 time=0
note_on channel=0 note=53 velocity=0 time=235
note_on channel=0 note=77 velocity=0 time=0
note_on channel=0 note=65 velocity=39 time=0
note_on channel=0 note=41 velocity=30 time=0
note_on channel=0 note=41 velocity=0 time=0
note_on channel=0 note=65 velocity=0 time=0
note_on channel=0 note=60 velocity=103 time=0
note_on channel=0 note=55 velocity=81 time=0
note_on channel=0 note=52 velocity=81 time=0
note_on channel=0 note=52 velocity=0 time=0
note_on channel=0 note=55 velocity=0 time=0
note_on channel=0 note=60 velocity=0 time=0
note_on channel=0 note=60 velocity=85 time=0
note_on channel=0 note=64 velocity=101 time=0
note_on channel=0 note=55 velocity=75 time=0
note_on channel=0 note=43 velocity=69 time=240
note_on channel=0 note=48 velocity=81 time=0
note_on channel=0 note=40 velocity=61 time=0
note_on channel=0 note=55 velocity=0 time=235
note_on channel=0 note=60 velocity=0 time=0
note_on channel=0 note=64 velocity=0 time=0
note_on channel=0 note=64 velocity=81 time=5
note_on channel=0 note=67 velocity=96 time=0
note_on channel=0 note=60 velocity=72 time=0
note_on channel=0 note=43 velocity=0 time=235
note_on channel=0 note=40 velocity=0 time=0
note_on channel=0 note=48 velocity=0 time=0
note_on channel=0 note=40 velocity=57 time=5
note_on channel=0 note=48 velocity=76 time=0
note_on channel=0 note=43 velocity=64 time=0
note_on channel=0 note=64 velocity=0 time=235
note_on channel=0 note=60 velocity=0 time=0
note_on channel=0 note=67 velocity=0 time=0
note_on channel=0 note=72 velocity=96 time=5
note_on channel=0 note=64 velocity=71 time=0
note_on channel=0 note=67 velocity=79 time=0
note_on channel=0 note=40 velocity=0 time=235
note_on channel=0 note=43 velocity=0 time=0
note_on channel=0 note=48 velocity=0 time=0
note_on channel=0 note=43 velocity=63 time=5
note_on channel=0 note=40 velocity=55 time=0
note_on channel=0 note=48 velocity=73 time=0
note_on channel=0 note=72 velocity=0 time=235
note_on channel=0 note=67 velocity=0 time=0
note_on channel=0 note=64 velocity=0 time=0
note_on channel=0 note=76 velocity=95 time=5
note_on channel=0 note=67 velocity=72 time=0
note_on channel=0 note=72 velocity=80 time=0
note_on channel=0 note=43 velocity=0 time=235
note_on channel=0 note=48 velocity=0 time=0
note_on channel=0 note=40 velocity=0 time=0
note_on channel=0 note=40 velocity=61 time=5
note_on channel=0 note=48 velocity=81 time=0
note_on channel=0 note=43 velocity=69 time=0
note_on channel=0 note=76 velocity=0 time=235
note_on channel=0 note=72 velocity=0 time=0
note_on channel=0 note=67 velocity=0 time=0
note_on channel=0 note=79 velocity=103 time=5
note_on channel=0 note=72 velocity=76 time=0
note_on channel=0 note=76 velocity=86 time=0
note_on channel=0 note=40 velocity=0 time=235
note_on channel=0 note=43 velocity=0 time=0
note_on channel=0 note=48 velocity=0 time=0
note_on channel=0 note=43 velocity=63 time=5
note_on channel=0 note=48 velocity=73 time=0
note_on channel=0 note=40 velocity=55 time=0
note_on channel=0 note=79 velocity=0 time=235
note_on channel=0 note=76 velocity=0 time=0
note_on channel=0 note=72 velocity=0 time=0
note_on channel=0 note=84 velocity=94 time=0
note_on channel=0 note=76 velocity=78 time=0
note_on channel=0 note=79 velocity=78 time=0
note_on channel=0 note=43 velocity=0 time=235
note_on channel=0 note=40 velocity=0 time=0
note_on channel=0 note=48 velocity=0 time=0
note_on channel=0 note=84 velocity=0 time=3
note_on channel=0 note=76 velocity=0 time=0
note_on channel=0 note=79 velocity=0 time=0
note_on channel=0 note=72 velocity=41 time=0
note_on channel=0 note=67 velocity=30 time=0
note_on channel=0 note=64 velocity=30 time=0
note_on channel=0 note=72 velocity=0 time=0
note_on channel=0 note=74 velocity=45 time=0
note_on channel=0 note=74 velocity=0 time=0
note_on channel=0 note=64 velocity=0 time=0
note_on channel=0 note=67 velocity=0 time=0
note_on channel=0 note=74 velocity=39 time=0
note_on channel=0 note=68 velocity=30 time=0
note_on channel=0 note=71 velocity=30 time=0
note_on channel=0 note=65 velocity=30 time=0
note_on channel=0 note=74 velocity=0 time=0
note_on channel=0 note=76 velocity=35 time=0
note_on channel=0 note=74 velocity=39 time=0
note_on channel=0 note=76 velocity=0 time=40
note_on channel=0 note=74 velocity=0 time=0
note_on channel=0 note=76 velocity=36 time=0
note_on channel=0 note=76 velocity=0 time=0
note_on channel=0 note=74 velocity=38 time=0
note_on channel=0 note=74 velocity=0 time=0
note_on channel=0 note=76 velocity=36 time=0
note_on channel=0 note=76 velocity=0 time=0
note_on channel=0 note=74 velocity=38 time=0
note_on channel=0 note=74 velocity=0 time=0
note_on channel=0 note=76 velocity=36 time=0
note_on channel=0 note=76 velocity=0 time=0
note_on channel=0 note=74 velocity=39 time=0
note_on channel=0 note=74 velocity=0 time=0
note_on channel=0 note=76 velocity=37 time=0
note_on channel=0 note=76 velocity=0 time=0
note_on channel=0 note=74 velocity=35 time=0
note_on channel=0 note=74 velocity=0 time=0
note_on channel=0 note=76 velocity=39 time=0
note_on channel=0 note=76 velocity=0 time=0
note_on channel=0 note=74 velocity=35 time=0
note_on channel=0 note=74 velocity=0 time=0
note_on channel=0 note=72 velocity=36 time=0
note_on channel=0 note=72 velocity=0 time=120
note_on channel=0 note=76 velocity=41 time=0
note_on channel=0 note=76 velocity=0 time=0
note_on channel=0 note=74 velocity=38 time=0
note_on channel=0 note=74 velocity=0 time=0
note_on channel=0 note=68 velocity=0 time=0
note_on channel=0 note=71 velocity=0 time=0
note_on channel=0 note=65 velocity=0 time=0
note_on channel=0 note=60 velocity=103 time=0
note_on channel=0 note=55 velocity=81 time=0
note_on channel=0 note=52 velocity=81 time=0
note_on channel=0 note=52 velocity=0 time=32
note_on channel=0 note=55 velocity=0 time=0
note_on channel=0 note=60 velocity=0 time=0
note_on channel=0 note=60 velocity=85 time=0
note_on channel=0 note=64 velocity=101 time=0
note_on channel=0 note=55 velocity=75 time=0
note_on channel=0 note=43 velocity=69 time=240
note_on channel=0 note=48 velocity=81 time=0
note_on channel=0 note=40 velocity=61 time=0
note_on channel=0 note=55 velocity=0 time=235
note_on channel=0 note=60 velocity=0 time=0
note_on channel=0 note=64 velocity=0 time=0
note_on channel=0 note=60 velocity=72 time=5
note_on channel=0 note=64 velocity=81 time=0
note_on channel=0 note=67 velocity=96 time=0
note_on channel=0 note=43 velocity=0 time=235
note_on channel=0 note=40 velocity=0 time=0
note_on channel=0 note=48 velocity=0 time=0
note_on channel=0 note=40 velocity=57 time=5
note_on channel=0 note=48 velocity=76 time=0
note_on channel=0 note=43 velocity=64 time=0
note_on channel=0 note=60 velocity=0 time=235
note_on channel=0 note=67 velocity=0 time=0
note_on channel=0 note=64 velocity=0 time=0
note_on channel=0 note=64 velocity=71 time=5
note_on channel=0 note=67 velocity=79 time=0
note_on channel=0 note=72 velocity=96 time=0
note_on channel=0 note=40 velocity=0 time=235
note_on channel=0 note=43 velocity=0 time=0
note_on channel=0 note=48 velocity=0 time=0
note_on channel=0 note=43 velocity=63 time=5
note_on channel=0 note=40 velocity=55 time=0
note_on channel=0 note=48 velocity=73 time=0
note_on channel=0 note=64 velocity=0 time=235
note_on channel=0 note=72 velocity=0 time=0
note_on channel=0 note=67 velocity=0 time=0
note_on channel=0 note=67 velocity=72 time=5
note_on channel=0 note=72 velocity=80 time=0
note_on channel=0 note=76 velocity=95 time=0
note_on channel=0 note=43 velocity=0 time=235
note_on channel=0 note=48 velocity=0 time=0
note_on channel=0 note=40 velocity=0 time=0
note_on channel=0 note=40 velocity=61 time=5
note_on channel=0 note=48 velocity=81 time=0
note_on channel=0 note=43 velocity=69 time=0
note_on channel=0 note=67 velocity=0 time=235
note_on channel=0 note=76 velocity=0 time=0
note_on channel=0 note=72 velocity=0 time=0
note_on channel=0 note=72 velocity=76 time=5
note_on channel=0 note=76 velocity=86 time=0
note_on channel=0 note=79 velocity=103 time=0
note_on channel=0 note=40 velocity=0 time=235
note_on channel=0 note=43 velocity=0 time=0
note_on channel=0 note=48 velocity=0 time=0
note_on channel=0 note=43 velocity=63 time=5
note_on channel=0 note=48 velocity=73 time=0
note_on channel=0 note=40 velocity=55 time=0
note_on channel=0 note=72 velocity=0 time=235
note_on channel=0 note=79 velocity=0 time=0
note_on channel=0 note=76 velocity=0 time=0
note_on channel=0 note=76 velocity=78 time=0
note_on channel=0 note=84 velocity=94 time=0
note_on channel=0 note=79 velocity=78 time=0
note_on channel=0 note=43 velocity=0 time=235
note_on channel=0 note=40 velocity=0 time=0
note_on channel=0 note=48 velocity=0 time=0
note_on channel=0 note=76 velocity=0 time=3
note_on channel=0 note=84 velocity=0 time=0
note_on channel=0 note=79 velocity=0 time=0
note_on channel=0 note=72 velocity=48 time=0
note_on channel=0 note=67 velocity=36 time=0
note_on channel=0 note=64 velocity=36 time=0
note_on channel=0 note=72 velocity=0 time=0
note_on channel=0 note=73 velocity=52 time=0
note_on channel=0 note=73 velocity=0 time=180
note_on channel=0 note=72 velocity=48 time=0
note_on channel=0 note=72 velocity=0 time=0
note_on channel=0 note=64 velocity=0 time=0
note_on channel=0 note=67 velocity=0 time=0
note_on channel=0 note=73 velocity=46 time=0
note_on channel=0 note=67 velocity=36 time=0
note_on channel=0 note=63 velocity=36 time=0
note_on channel=0 note=73 velocity=0 time=0
note_on channel=0 note=75 velocity=41 time=0
note_on channel=0 note=75 velocity=0 time=0
note_on channel=0 note=73 velocity=46 time=0
note_on channel=0 note=73 velocity=0 time=0
note_on channel=0 note=75 velocity=41 time=0
note_on channel=0 note=75 velocity=0 time=0
note_on channel=0 note=73 velocity=44 time=0
note_on channel=0 note=73 velocity=0 time=0
note_on channel=0 note=75 velocity=41 time=0
note_on channel=0 note=75 velocity=0 time=0
note_on channel=0 note=73 velocity=46 time=0
note_on channel=0 note=73 velocity=0 time=0
note_on channel=0 note=75 velocity=42 time=0
note_on channel=0 note=75 velocity=0 time=0
note_on channel=0 note=73 velocity=46 time=0
note_on channel=0 note=73 velocity=0 time=0
note_on channel=0 note=75 velocity=43 time=0
note_on channel=0 note=75 velocity=0 time=0
note_on channel=0 note=73 velocity=40 time=0
note_on channel=0 note=73 velocity=0 time=0
note_on channel=0 note=75 velocity=46 time=0
note_on channel=0 note=75 velocity=0 time=0
note_on channel=0 note=73 velocity=42 time=0
note_on channel=0 note=73 velocity=0 time=120
note_on channel=0 note=72 velocity=48 time=0
note_on channel=0 note=72 velocity=0 time=0
note_on channel=0 note=73 velocity=44 time=0
note_on channel=0 note=73 velocity=0 time=0
note_on channel=0 note=79 velocity=58 time=0
note_on channel=0 note=82 velocity=58 time=0
note_on channel=0 note=63 velocity=0 time=0
note_on channel=0 note=67 velocity=0 time=0
note_on channel=0 note=75 velocity=36 time=0
note_on channel=0 note=75 velocity=0 time=220
note_on channel=0 note=75 velocity=36 time=20
note_on channel=0 note=75 velocity=0 time=220
note_on channel=0 note=79 velocity=0 time=0
note_on channel=0 note=82 velocity=0 time=0
note_on channel=0 note=75 velocity=39 time=0
note_on channel=0 note=75 velocity=0 time=220
note_on channel=0 note=75 velocity=37 time=20
note_on channel=0 note=75 velocity=0 time=220
note_on channel=0 note=75 velocity=36 time=20
note_on channel=0 note=75 velocity=0 time=220
note_on channel=0 note=75 velocity=39 time=0
note_on channel=0 note=75 velocity=0 time=220
note_on channel=0 note=75 velocity=35 time=0
note_on channel=0 note=75 velocity=0 time=220
note_on channel=0 note=75 velocity=35 time=20
note_on channel=0 note=75 velocity=0 time=220
note_on channel=0 note=75 velocity=39 time=0
note_on channel=0 note=75 velocity=0 time=220
note_on channel=0 note=75 velocity=36 time=20
note_on channel=0 note=75 velocity=0 time=220
note_on channel=0 note=75 velocity=36 time=20
note_on channel=0 note=75 velocity=0 time=220
note_on channel=0 note=83 velocity=56 time=0
note_on channel=0 note=80 velocity=56 time=0
note_on channel=0 note=75 velocity=38 time=0
note_on channel=0 note=75 velocity=0 time=220
note_on channel=0 note=75 velocity=38 time=20
note_on channel=0 note=75 velocity=0 time=220
note_on channel=0 note=80 velocity=0 time=0
note_on channel=0 note=83 velocity=0 time=0
note_on channel=0 note=71 velocity=39 time=0
note_on channel=0 note=68 velocity=39 time=0
note_on channel=0 note=68 velocity=0 time=240
note_on channel=0 note=71 velocity=0 time=0
note_on channel=0 note=75 velocity=37 time=0
note_on channel=0 note=75 velocity=0 time=220
note_on channel=0 note=75 velocity=37 time=20
note_on channel=0 note=75 velocity=0 time=220
note_on channel=0 note=75 velocity=41 time=0
note_on channel=0 note=75 velocity=0 time=220
note_on channel=0 note=75 velocity=37 time=0
note_on channel=0 note=75 velocity=0 time=220
note_on channel=0 note=75 velocity=38 time=20
note_on channel=0 note=75 velocity=0 time=220
note_on channel=0 note=75 velocity=46 time=0
note_on channel=0 note=75 velocity=0 time=220
note_on channel=0 note=75 velocity=40 time=20
note_on channel=0 note=75 velocity=0 time=220
note_on channel=0 note=75 velocity=40 time=20
note_on channel=0 note=75 velocity=0 time=220
note_on channel=0 note=88 velocity=75 time=0
note_on channel=0 note=80 velocity=75 time=0
note_on channel=0 note=83 velocity=75 time=0
note_on channel=0 note=75 velocity=38 time=0
note_on channel=0 note=75 velocity=0 time=220
note_on channel=0 note=75 velocity=38 time=20
note_on channel=0 note=75 velocity=0 time=220
note_on channel=0 note=68 velocity=40 time=0
note_on channel=0 note=71 velocity=40 time=0
note_on channel=0 note=71 velocity=0 time=240
note_on channel=0 note=68 velocity=0 time=0
note_on channel=0 note=75 velocity=37 time=0
note_on channel=0 note=75 velocity=0 time=220
note_on channel=0 note=75 velocity=37 time=20
note_on channel=0 note=75 velocity=0 time=220
note_on channel=0 note=68 velocity=37 time=0
note_on channel=0 note=71 velocity=37 time=0
note_on channel=0 note=71 velocity=0 time=240
note_on channel=0 note=68 velocity=0 time=0
note_on channel=0 note=75 velocity=37 time=0
note_on channel=0 note=75 velocity=0 time=220
note_on channel=0 note=75 velocity=37 time=20
note_on channel=0 note=75 velocity=0 time=220
note_on channel=0 note=68 velocity=37 time=0
note_on channel=0 note=71 velocity=37 time=0
note_on channel=0 note=71 velocity=0 time=240
note_on channel=0 note=68 velocity=0 time=0
note_on channel=0 note=75 velocity=37 time=0
note_on channel=0 note=75 velocity=0 time=220
note_on channel=0 note=75 velocity=37 time=20
note_on channel=0 note=75 velocity=0 time=220
note_on channel=0 note=88 velocity=0 time=0
note_on channel=0 note=80 velocity=0 time=0
note_on channel=0 note=83 velocity=0 time=0
note_on channel=0 note=82 velocity=52 time=0
note_on channel=0 note=87 velocity=52 time=0
note_on channel=0 note=79 velocity=52 time=0
note_on channel=0 note=67 velocity=39 time=0
note_on channel=0 note=70 velocity=39 time=0
note_on channel=0 note=70 velocity=0 time=0
note_on channel=0 note=67 velocity=0 time=0
note_on channel=0 note=63 velocity=37 time=0
note_on channel=0 note=63 velocity=0 time=220
note_on channel=0 note=79 velocity=0 time=20
note_on channel=0 note=87 velocity=0 time=0
note_on channel=0 note=82 velocity=0 time=0
note_on channel=0 note=63 velocity=37 time=0
note_on channel=0 note=63 velocity=0 time=220
note_on channel=0 note=63 velocity=38 time=0
note_on channel=0 note=63 velocity=0 time=220
note_on channel=0 note=63 velocity=37 time=20
note_on channel=0 note=63 velocity=0 time=220
note_on channel=0 note=63 velocity=37 time=20
note_on channel=0 note=63 velocity=0 time=220
note_on channel=0 note=63 velocity=37 time=0
note_on channel=0 note=63 velocity=0 time=220
note_on channel=0 note=63 velocity=37 time=0
note_on channel=0 note=63 velocity=0 time=220
note_on channel=0 note=63 velocity=37 time=20
note_on channel=0 note=63 velocity=0 time=220
note_on channel=0 note=79 velocity=56 time=0
note_on channel=0 note=82 velocity=56 time=0
note_on channel=0 note=63 velocity=38 time=0
note_on channel=0 note=63 velocity=0 time=220
note_on channel=0 note=63 velocity=37 time=0
note_on channel=0 note=63 velocity=0 time=220
note_on channel=0 note=63 velocity=37 time=20
note_on channel=0 note=82 velocity=0 time=0
note_on channel=0 note=79 velocity=0 time=0
note_on channel=0 note=82 velocity=52 time=0
note_on channel=0 note=79 velocity=52 time=0
note_on channel=0 note=63 velocity=0 time=100
note_on channel=0 note=79 velocity=0 time=0
note_on channel=0 note=82 velocity=0 time=0
note_on channel=0 note=83 velocity=58 time=0
note_on channel=0 note=80 velocity=58 time=0
note_on channel=0 note=63 velocity=39 time=0
note_on channel=0 note=63 velocity=0 time=220
note_on channel=0 note=63 velocity=37 time=20
note_on channel=0 note=63 velocity=0 time=220
note_on channel=0 note=80 velocity=0 time=0
note_on channel=0 note=83 velocity=0 time=0
note_on channel=0 note=79 velocity=52 time=0
note_on channel=0 note=82 velocity=52 time=0
note_on channel=0 note=63 velocity=37 time=0
note_on channel=0 note=63 velocity=0 time=220
note_on channel=0 note=82 velocity=0 time=20
note_on channel=0 note=79 velocity=0 time=0
note_on channel=0 note=63 velocity=38 time=0
note_on channel=0 note=63 velocity=0 time=220
note_on channel=0 note=63 velocity=37 time=20
note_on channel=0 note=63 velocity=0 time=220
note_on channel=0 note=70 velocity=50 time=0
note_on channel=0 note=67 velocity=50 time=0
note_on channel=0 note=63 velocity=37 time=0
note_on channel=0 note=63 velocity=0 time=220
note_on channel=0 note=67 velocity=0 time=0
note_on channel=0 note=70 velocity=0 time=0
note_on channel=0 note=63 velocity=38 time=0
note_on channel=0 note=63 velocity=0 time=220
note_on channel=0 note=63 velocity=39 time=20
note_on channel=0 note=63 velocity=0 time=220
note_on channel=0 note=58 velocity=49 time=20
note_on channel=0 note=55 velocity=49 time=0
note_on channel=0 note=63 velocity=37 time=0
note_on channel=0 note=63 velocity=0 time=220
note_on channel=0 note=55 velocity=0 time=20
note_on channel=0 note=58 velocity=0 time=0
note_on channel=0 note=58 velocity=44 time=0
note_on channel=0 note=61 velocity=44 time=0
note_on channel=0 note=61 velocity=0 time=0
note_on channel=0 note=58 velocity=0 time=0
note_on channel=0 note=63 velocity=37 time=0
note_on channel=0 note=63 velocity=0 time=220
note_on channel=0 note=63 velocity=37 time=0
note_on channel=0 note=79 velocity=58 time=120
note_on channel=0 note=82 velocity=58 time=0
note_on channel=0 note=63 velocity=0 time=60
note_on channel=0 note=82 velocity=0 time=0
note_on channel=0 note=79 velocity=0 time=0
note_on channel=0 note=85 velocity=61 time=0
note_on channel=0 note=82 velocity=61 time=0
note_on channel=0 note=63 velocity=39 time=0
note_on channel=0 note=63 velocity=0 time=220
note_on channel=0 note=63 velocity=37 time=20
note_on channel=0 note=63 velocity=0 time=220
note_on channel=0 note=82 velocity=0 time=0
note_on channel=0 note=85 velocity=0 time=0
note_on channel=0 note=83 velocity=52 time=0
note_on channel=0 note=80 velocity=52 time=0
note_on channel=0 note=63 velocity=37 time=0
note_on channel=0 note=63 velocity=0 time=220
note_on channel=0 note=80 velocity=0 time=20
note_on channel=0 note=83 velocity=0 time=0
note_on channel=0 note=63 velocity=37 time=0
note_on channel=0 note=63 velocity=0 time=220
note_on channel=0 note=63 velocity=37 time=20
note_on channel=0 note=63 velocity=0 time=220
note_on channel=0 note=71 velocity=49 time=0
note_on channel=0 note=68 velocity=49 time=0
note_on channel=0 note=63 velocity=37 time=0
note_on channel=0 note=63 velocity=0 time=220
note_on channel=0 note=68 velocity=0 time=20
note_on channel=0 note=71 velocity=0 time=0
note_on channel=0 note=63 velocity=38 time=0
note_on channel=0 note=63 velocity=0 time=220
note_on channel=0 note=63 velocity=37 time=0
note_on channel=0 note=63 velocity=0 time=220
note_on channel=0 note=59 velocity=47 time=20
note_on channel=0 note=56 velocity=47 time=0
note_on channel=0 note=63 velocity=37 time=0
note_on channel=0 note=63 velocity=0 time=220
note_on channel=0 note=56 velocity=0 time=15
note_on channel=0 note=59 velocity=0 time=0
note_on channel=0 note=59 velocity=48 time=5
note_on channel=0 note=56 velocity=44 time=0
note_on channel=0 note=56 velocity=0 time=0
note_on channel=0 note=59 velocity=0 time=0
note_on channel=0 note=63 velocity=37 time=0
note_on channel=0 note=63 velocity=0 time=220
note_on channel=0 note=63 velocity=37 time=20
note_on channel=0 note=80 velocity=52 time=0
note_on channel=0 note=83 velocity=52 time=0
note_on channel=0 note=63 velocity=0 time=100
note_on channel=0 note=83 velocity=0 time=0
note_on channel=0 note=80 velocity=0 time=0
note_on channel=0 note=80 velocity=75 time=0
note_on channel=0 note=88 velocity=75 time=0
note_on channel=0 note=83 velocity=75 time=0
note_on channel=0 note=63 velocity=38 time=0
note_on channel=0 note=63 velocity=0 time=220
note_on channel=0 note=63 velocity=38 time=20
note_on channel=0 note=63 velocity=0 time=220
note_on channel=0 note=56 velocity=40 time=0
note_on channel=0 note=59 velocity=40 time=0
note_on channel=0 note=59 velocity=0 time=240
note_on channel=0 note=56 velocity=0 time=0
note_on channel=0 note=63 velocity=37 time=0
note_on channel=0 note=63 velocity=0 time=220
note_on channel=0 note=63 velocity=37 time=20
note_on channel=0 note=63 velocity=0 time=220
note_on channel=0 note=59 velocity=37 time=0
note_on channel=0 note=56 velocity=37 time=0
note_on channel=0 note=56 velocity=0 time=240
note_on channel=0 note=59 velocity=0 time=0
note_on channel=0 note=63 velocity=37 time=0
note_on channel=0 note=63 velocity=0 time=220
note_on channel=0 note=63 velocity=37 time=20
note_on channel=0 note=63 velocity=0 time=220
note_on channel=0 note=59 velocity=36 time=0
note_on channel=0 note=56 velocity=36 time=0
note_on channel=0 note=56 velocity=0 time=240
note_on channel=0 note=59 velocity=0 time=0
note_on channel=0 note=63 velocity=37 time=0
note_on channel=0 note=63 velocity=0 time=220
note_on channel=0 note=63 velocity=37 time=20
note_on channel=0 note=63 velocity=0 time=220
note_on channel=0 note=80 velocity=0 time=20
note_on channel=0 note=88 velocity=0 time=0
note_on channel=0 note=83 velocity=0 time=0
note_on channel=0 note=79 velocity=61 time=0
note_on channel=0 note=87 velocity=61 time=0
note_on channel=0 note=82 velocity=61 time=0
note_on channel=0 note=63 velocity=38 time=0
note_on channel=0 note=63 velocity=0 time=220
note_on channel=0 note=79 velocity=0 time=20
note_on channel=0 note=87 velocity=0 time=0
note_on channel=0 note=82 velocity=0 time=0
note_on channel=0 note=63 velocity=38 time=0
note_on channel=0 note=63 velocity=0 time=220
note_on channel=0 note=58 velocity=40 time=0
note_on channel=0 note=55 velocity=40 time=0
note_on channel=0 note=55 velocity=0 time=240
note_on channel=0 note=58 velocity=0 time=0
note_on channel=0 note=63 velocity=37 time=0
note_on channel=0 note=63 velocity=0 time=220
note_on channel=0 note=63 velocity=37 time=20
note_on channel=0 note=63 velocity=0 time=220
note_on channel=0 note=75 velocity=52 time=0
note_on channel=0 note=66 velocity=52 time=0
note_on channel=0 note=69 velocity=52 time=0
note_on channel=0 note=63 velocity=37 time=0
note_on channel=0 note=63 velocity=0 time=220
note_on channel=0 note=63 velocity=37 time=20
note_on channel=0 note=63 velocity=0 time=220
note_on channel=0 note=54 velocity=36 time=0
note_on channel=0 note=57 velocity=36 time=0
note_on channel=0 note=57 velocity=0 time=240
note_on channel=0 note=54 velocity=0 time=0
note_on channel=0 note=63 velocity=37 time=0
note_on channel=0 note=63 velocity=0 time=220
note_on channel=0 note=63 velocity=37 time=20
note_on channel=0 note=63 velocity=0 time=220
note_on channel=0 note=75 velocity=0 time=0
note_on channel=0 note=66 velocity=0 time=0
note_on channel=0 note=69 velocity=0 time=0
note_on channel=0 note=74 velocity=52 time=0
note_on channel=0 note=65 velocity=52 time=0
note_on channel=0 note=68 velocity=52 time=0
note_on channel=0 note=63 velocity=37 time=0
note_on channel=0 note=63 velocity=0 time=220
note_on channel=0 note=74 velocity=0 time=20
note_on channel=0 note=65 velocity=0 time=0
note_on channel=0 note=68 velocity=0 time=0
note_on channel=0 note=63 velocity=36 time=0
note_on channel=0 note=63 velocity=0 time=220
note_on channel=0 note=56 velocity=38 time=0
note_on channel=0 note=53 velocity=38 time=0
note_on channel=0 note=53 velocity=0 time=240
note_on channel=0 note=56 velocity=0 time=0
note_on channel=0 note=63 velocity=34 time=0
note_on channel=0 note=63 velocity=0 time=220
note_on channel=0 note=63 velocity=34 time=20
note_on channel=0 note=63 velocity=0 time=220
note_on channel=0 note=73 velocity=46 time=0
note_on channel=0 note=64 velocity=46 time=0
note_on channel=0 note=67 velocity=46 time=0
note_on channel=0 note=63 velocity=32 time=0
note_on channel=0 note=63 velocity=0 time=220
note_on channel=0 note=73 velocity=0 time=20
note_on channel=0 note=64 velocity=0 time=0
note_on channel=0 note=67 velocity=0 time=0
note_on channel=0 note=63 velocity=32 time=0
note_on channel=0 note=63 velocity=0 time=220
note_on channel=0 note=52 velocity=30 time=20
note_on channel=0 note=55 velocity=30 time=0
note_on channel=0 note=55 velocity=0 time=240
note_on channel=0 note=52 velocity=0 time=0
note_on channel=0 note=63 velocity=31 time=0
note_on channel=0 note=63 velocity=0 time=220
note_on channel=0 note=63 velocity=30 time=0
note_on channel=0 note=63 velocity=0 time=220
note_on channel=0 note=73 velocity=41 time=0
note_on channel=0 note=63 velocity=41 time=0
note_on channel=0 note=67 velocity=41 time=0
note_on channel=0 note=51 velocity=25 time=240
note_on channel=0 note=51 velocity=0 time=220
note_on channel=0 note=51 velocity=26 time=0
note_on channel=0 note=51 velocity=0 time=220
note_on channel=0 note=67 velocity=0 time=20
note_on channel=0 note=63 velocity=0 time=0
note_on channel=0 note=73 velocity=0 time=0
note_on channel=0 note=51 velocity=28 time=0
note_on channel=0 note=51 velocity=0 time=220
note_on channel=0 note=51 velocity=26 time=0
note_on channel=0 note=51 velocity=0 time=220
note_on channel=0 note=51 velocity=26 time=20
note_on channel=0 note=51 velocity=0 time=220
note_on channel=0 note=51 velocity=28 time=0
note_on channel=0 note=51 velocity=0 time=220
note_on channel=0 note=51 velocity=26 time=20
note_on channel=0 note=51 velocity=0 time=220
note_on channel=0 note=51 velocity=26 time=0
note_on channel=0 note=51 velocity=0 time=220
note_on channel=0 note=51 velocity=28 time=20
note_on channel=0 note=51 velocity=0 time=220
note_on channel=0 note=51 velocity=26 time=0
note_on channel=0 note=51 velocity=0 time=220
note_on channel=0 note=51 velocity=27 time=20
note_on channel=0 note=51 velocity=0 time=220
note_on channel=0 note=58 velocity=41 time=0
note_on channel=0 note=61 velocity=41 time=0
note_on channel=0 note=55 velocity=41 time=0
note_on channel=0 note=39 velocity=25 time=40
note_on channel=0 note=39 velocity=0 time=220
note_on channel=0 note=39 velocity=26 time=20
note_on channel=0 note=39 velocity=0 time=140
note_on channel=0 note=55 velocity=0 time=20
note_on channel=0 note=61 velocity=0 time=0
note_on channel=0 note=58 velocity=0 time=0
note_on channel=0 note=39 velocity=28 time=0
note_on channel=0 note=39 velocity=0 time=20
note_on channel=0 note=39 velocity=26 time=20
note_on channel=0 note=39 velocity=0 time=220
note_on channel=0 note=39 velocity=26 time=20
note_on channel=0 note=39 velocity=0 time=140
note_on channel=0 note=39 velocity=28 time=20
note_on channel=0 note=39 velocity=0 time=20
note_on channel=0 note=39 velocity=26 time=20
note_on channel=0 note=39 velocity=0 time=60
note_on channel=0 note=39 velocity=26 time=0
note_on channel=0 note=39 velocity=0 time=20
note_on channel=0 note=39 velocity=28 time=20
note_on channel=0 note=39 velocity=0 time=60
note_on channel=0 note=39 velocity=26 time=0
note_on channel=0 note=39 velocity=0 time=20
note_on channel=0 note=39 velocity=27 time=0
note_on channel=0 note=39 velocity=0 time=20
note_on channel=0 note=32 velocity=28 time=0
note_on channel=0 note=32 velocity=0 time=0
note_on channel=0 note=44 velocity=25 time=0
note_on channel=0 note=36 velocity=20 time=0
note_on channel=0 note=39 velocity=20 time=0
note_on channel=0 note=39 velocity=0 time=240
note_on channel=0 note=36 velocity=0 time=0
note_on channel=0 note=44 velocity=0 time=0
note_on channel=0 note=32 velocity=26 time=0
note_on channel=0 note=32 velocity=0 time=240
note_on channel=0 note=44 velocity=28 time=0
note_on channel=0 note=36 velocity=22 time=0
note_on channel=0 note=39 velocity=22 time=0
note_on channel=0 note=39 velocity=0 time=240
note_on channel=0 note=36 velocity=0 time=0
note_on channel=0 note=44 velocity=0 time=0
note_on channel=0 note=32 velocity=26 time=0
note_on channel=0 note=32 velocity=0 time=240
note_on channel=0 note=44 velocity=26 time=0
note_on channel=0 note=36 velocity=20 time=0
note_on channel=0 note=39 velocity=20 time=0
note_on channel=0 note=39 velocity=0 time=240
note_on channel=0 note=36 velocity=0 time=0
note_on channel=0 note=44 velocity=0 time=0
note_on channel=0 note=32 velocity=28 time=0
note_on channel=0 note=32 velocity=0 time=240
note_on channel=0 note=44 velocity=26 time=0
note_on channel=0 note=39 velocity=20 time=0
note_on channel=0 note=36 velocity=20 time=0
note_on channel=0 note=36 velocity=0 time=240
note_on channel=0 note=39 velocity=0 time=0
note_on channel=0 note=44 velocity=0 time=0
note_on channel=0 note=32 velocity=26 time=0
note_on channel=0 note=32 velocity=0 time=240
note_on channel=0 note=60 velocity=44 time=0
note_on channel=0 note=36 velocity=22 time=0
note_on channel=0 note=48 velocity=40 time=0
note_on channel=0 note=44 velocity=28 time=0
note_on channel=0 note=39 velocity=22 time=0
note_on channel=0 note=39 velocity=0 time=0
note_on channel=0 note=36 velocity=0 time=0
note_on channel=0 note=44 velocity=0 time=0
note_on channel=0 note=32 velocity=26 time=0
note_on channel=0 note=32 velocity=0 time=240
note_on channel=0 note=36 velocity=21 time=0
note_on channel=0 note=39 velocity=21 time=0
note_on channel=0 note=44 velocity=27 time=0
note_on channel=0 note=48 velocity=0 time=0
note_on channel=0 note=60 velocity=0 time=0
note_on channel=0 note=63 velocity=40 time=0
note_on channel=0 note=51 velocity=37 time=0
note_on channel=0 note=51 velocity=0 time=0
note_on channel=0 note=39 velocity=0 time=0
note_on channel=0 note=44 velocity=0 time=0
note_on channel=0 note=36 velocity=0 time=0
note_on channel=0 note=63 velocity=0 time=0
note_on channel=0 note=56 velocity=38 time=0
note_on channel=0 note=68 velocity=41 time=0
note_on channel=0 note=32 velocity=28 time=0
note_on channel=0 note=32 velocity=0 time=70
note_on channel=0 note=44 velocity=25 time=0
note_on channel=0 note=36 velocity=20 time=0
note_on channel=0 note=39 velocity=20 time=0
note_on channel=0 note=39 velocity=0 time=240
note_on channel=0 note=44 velocity=0 time=0
note_on channel=0 note=36 velocity=0 time=0
note_on channel=0 note=32 velocity=26 time=0
note_on channel=0 note=32 velocity=0 time=0
note_on channel=0 note=68 velocity=0 time=0
note_on channel=0 note=56 velocity=0 time=0
note_on channel=0 note=72 velocity=44 time=0
note_on channel=0 note=60 velocity=40 time=0
note_on channel=0 note=44 velocity=28 time=0
note_on channel=0 note=36 velocity=22 time=0
note_on channel=0 note=39 velocity=22 time=0
note_on channel=0 note=39 velocity=0 time=0
note_on channel=0 note=44 velocity=0 time=0
note_on channel=0 note=36 velocity=0 time=0
note_on channel=0 note=32 velocity=26 time=0
note_on channel=0 note=32 velocity=0 time=240
note_on channel=0 note=36 velocity=20 time=0
note_on channel=0 note=39 velocity=20 time=0
note_on channel=0 note=44 velocity=26 time=0
note_on channel=0 note=60 velocity=0 time=0
note_on channel=0 note=72 velocity=0 time=0
note_on channel=0 note=56 velocity=36 time=0
note_on channel=0 note=68 velocity=39 time=0
note_on channel=0 note=68 velocity=0 time=120
note_on channel=0 note=39 velocity=0 time=0
note_on channel=0 note=44 velocity=0 time=0
note_on channel=0 note=36 velocity=0 time=0
note_on channel=0 note=56 velocity=0 time=0
note_on channel=0 note=67 velocity=41 time=0
note_on channel=0 note=55 velocity=38 time=0
note_on channel=0 note=34 velocity=28 time=0
note_on channel=0 note=34 velocity=0 time=84
note_on channel=0 note=46 velocity=26 time=0
note_on channel=0 note=39 velocity=20 time=0
note_on channel=0 note=37 velocity=20 time=0
note_on channel=0 note=37 velocity=0 time=240
note_on channel=0 note=46 velocity=0 time=0
note_on channel=0 note=39 velocity=0 time=0
note_on channel=0 note=34 velocity=26 time=0
note_on channel=0 note=34 velocity=0 time=0
note_on channel=0 note=55 velocity=0 time=0
note_on channel=0 note=67 velocity=0 time=0
note_on channel=0 note=58 velocity=40 time=0
note_on channel=0 note=70 velocity=44 time=0
note_on channel=0 note=39 velocity=22 time=0
note_on channel=0 note=46 velocity=28 time=0
note_on channel=0 note=37 velocity=22 time=0
note_on channel=0 note=37 velocity=0 time=0
note_on channel=0 note=39 velocity=0 time=0
note_on channel=0 note=46 velocity=0 time=0
note_on channel=0 note=34 velocity=26 time=0
note_on channel=0 note=34 velocity=0 time=240
note_on channel=0 note=37 velocity=21 time=0
note_on channel=0 note=46 velocity=27 time=0
note_on channel=0 note=39 velocity=21 time=0
note_on channel=0 note=70 velocity=0 time=0
note_on channel=0 note=58 velocity=0 time=0
note_on channel=0 note=55 velocity=36 time=0
note_on channel=0 note=67 velocity=39 time=0
note_on channel=0 note=67 velocity=0 time=0
note_on channel=0 note=46 velocity=0 time=0
note_on channel=0 note=39 velocity=0 time=0
note_on channel=0 note=37 velocity=0 time=0
note_on channel=0 note=55 velocity=0 time=0
note_on channel=0 note=68 velocity=41 time=0
note_on channel=0 note=56 velocity=38 time=0
note_on channel=0 note=36 velocity=28 time=0
note_on channel=0 note=36 velocity=0 time=113
note_on channel=0 note=39 velocity=20 time=0
note_on channel=0 note=44 velocity=20 time=0
note_on channel=0 note=48 velocity=25 time=0
note_on channel=0 note=48 velocity=0 time=240
note_on channel=0 note=39 velocity=0 time=0
note_on channel=0 note=44 velocity=0 time=0
note_on channel=0 note=36 velocity=26 time=0
note_on channel=0 note=36 velocity=0 time=0
note_on channel=0 note=56 velocity=0 time=0
note_on channel=0 note=68 velocity=0 time=0
note_on channel=0 note=63 velocity=40 time=0
note_on channel=0 note=39 velocity=22 time=0
note_on channel=0 note=51 velocity=40 time=0
note_on channel=0 note=44 velocity=22 time=0
note_on channel=0 note=48 velocity=28 time=0
note_on channel=0 note=48 velocity=0 time=240
note_on channel=0 note=39 velocity=0 time=0
note_on channel=0 note=44 velocity=0 time=0
note_on channel=0 note=36 velocity=26 time=0
note_on channel=0 note=36 velocity=0 time=240
note_on channel=0 note=44 velocity=20 time=0
note_on channel=0 note=48 velocity=26 time=0
note_on channel=0 note=39 velocity=20 time=0
note_on channel=0 note=39 velocity=0 time=240
note_on channel=0 note=44 velocity=0 time=0
note_on channel=0 note=48 velocity=0 time=0
note_on channel=0 note=36 velocity=28 time=0
note_on channel=0 note=36 velocity=0 time=240
note_on channel=0 note=39 velocity=20 time=0
note_on channel=0 note=44 velocity=20 time=0
note_on channel=0 note=48 velocity=26 time=0
note_on channel=0 note=48 velocity=0 time=240
note_on channel=0 note=39 velocity=0 time=0
note_on channel=0 note=44 velocity=0 time=0
note_on channel=0 note=36 velocity=26 time=0
note_on channel=0 note=36 velocity=0 time=240
note_on channel=0 note=51 velocity=0 time=0
note_on channel=0 note=63 velocity=0 time=0
note_on channel=0 note=65 velocity=44 time=0
note_on channel=0 note=53 velocity=40 time=0
note_on channel=0 note=44 velocity=28 time=0
note_on channel=0 note=44 velocity=0 time=0
note_on channel=0 note=37 velocity=26 time=0
note_on channel=0 note=37 velocity=0 time=240
note_on channel=0 note=44 velocity=27 time=0
note_on channel=0 note=53 velocity=0 time=0
note_on channel=0 note=65 velocity=0 time=0
note_on channel=0 note=61 velocity=40 time=0
note_on channel=0 note=49 velocity=37 time=0
note_on channel=0 note=49 velocity=0 time=0
note_on channel=0 note=61 velocity=0 time=0
note_on channel=0 note=44 velocity=0 time=0
note_on channel=0 note=60 velocity=44 time=0
note_on channel=0 note=48 velocity=40 time=0
note_on channel=0 note=39 velocity=28 time=0
note_on channel=0 note=39 velocity=0 time=99
note_on channel=0 note=44 velocity=25 time=0
note_on channel=0 note=44 velocity=0 time=240
note_on channel=0 note=39 velocity=26 time=0
note_on channel=0 note=39 velocity=0 time=0
note_on channel=0 note=48 velocity=0 time=0
note_on channel=0 note=60 velocity=0 time=0
note_on channel=0 note=63 velocity=44 time=0
note_on channel=0 note=44 velocity=28 time=0
note_on channel=0 note=51 velocity=40 time=0
note_on channel=0 note=44 velocity=0 time=0
note_on channel=0 note=39 velocity=25 time=0
note_on channel=0 note=39 velocity=0 time=240
note_on channel=0 note=44 velocity=25 time=0
note_on channel=0 note=51 velocity=0 time=0
note_on channel=0 note=63 velocity=0 time=0
note_on channel=0 note=60 velocity=39 time=0
note_on channel=0 note=48 velocity=36 time=0
note_on channel=0 note=48 velocity=0 time=120
note_on channel=0 note=60 velocity=0 time=0
note_on channel=0 note=44 velocity=0 time=0
note_on channel=0 note=58 velocity=44 time=0
note_on channel=0 note=46 velocity=40 time=0
note_on channel=0 note=39 velocity=28 time=0
note_on channel=0 note=39 velocity=0 time=141
note_on channel=0 note=43 velocity=25 time=0
note_on channel=0 note=43 velocity=0 time=240
note_on channel=0 note=39 velocity=25 time=0
note_on channel=0 note=39 velocity=0 time=0
note_on channel=0 note=46 velocity=0 time=0
note_on channel=0 note=58 velocity=0 time=0
note_on channel=0 note=63 velocity=44 time=0
note_on channel=0 note=51 velocity=40 time=0
note_on channel=0 note=43 velocity=28 time=0
note_on channel=0 note=43 velocity=0 time=0
note_on channel=0 note=39 velocity=25 time=0
note_on channel=0 note=39 velocity=0 time=240
note_on channel=0 note=43 velocity=25 time=0
note_on channel=0 note=51 velocity=0 time=0
note_on channel=0 note=63 velocity=0 time=0
note_on channel=0 note=61 velocity=39 time=0
note_on channel=0 note=49 velocity=36 time=0
note_on channel=0 note=49 velocity=0 time=0
note_on channel=0 note=61 velocity=0 time=0
note_on channel=0 note=43 velocity=0 time=0
note_on channel=0 note=60 velocity=42 time=0
note_on channel=0 note=44 velocity=28 time=0
note_on channel=0 note=44 velocity=0 time=99
note_on channel=0 note=56 velocity=25 time=0
note_on channel=0 note=48 velocity=20 time=0
note_on channel=0 note=51 velocity=20 time=0
note_on channel=0 note=51 velocity=0 time=240
note_on channel=0 note=48 velocity=0 time=0
note_on channel=0 note=56 velocity=0 time=0
note_on channel=0 note=44 velocity=27 time=0
note_on channel=0 note=44 velocity=0 time=0
note_on channel=0 note=60 velocity=0 time=0
note_on channel=0 note=63 velocity=42 time=0
note_on channel=0 note=56 velocity=29 time=0
note_on channel=0 note=48 velocity=23 time=0
note_on channel=0 note=51 velocity=23 time=0
note_on channel=0 note=51 velocity=0 time=240
note_on channel=0 note=48 velocity=0 time=0
note_on channel=0 note=56 velocity=0 time=0
note_on channel=0 note=44 velocity=28 time=0
note_on channel=0 note=44 velocity=0 time=240
note_on channel=0 note=56 velocity=29 time=0
note_on channel=0 note=48 velocity=22 time=0
note_on channel=0 note=51 velocity=22 time=0
note_on channel=0 note=51 velocity=0 time=240
note_on channel=0 note=48 velocity=0 time=0
note_on channel=0 note=56 velocity=0 time=0
note_on channel=0 note=44 velocity=32 time=0
note_on channel=0 note=44 velocity=0 time=240
note_on channel=0 note=56 velocity=31 time=0
note_on channel=0 note=51 velocity=24 time=0
note_on channel=0 note=48 velocity=24 time=0
note_on channel=0 note=48 velocity=0 time=240
note_on channel=0 note=51 velocity=0 time=0
note_on channel=0 note=56 velocity=0 time=0
note_on channel=0 note=44 velocity=31 time=0
note_on channel=0 note=44 velocity=0 time=240
note_on channel=0 note=63 velocity=0 time=0
note_on channel=0 note=72 velocity=55 time=0
note_on channel=0 note=48 velocity=27 time=0
note_on channel=0 note=51 velocity=27 time=0
note_on channel=0 note=56 velocity=35 time=0
note_on channel=0 note=60 velocity=51 time=0
note_on channel=0 note=56 velocity=0 time=0
note_on channel=0 note=51 velocity=0 time=0
note_on channel=0 note=48 velocity=0 time=0
note_on channel=0 note=44 velocity=33 time=0
note_on channel=0 note=44 velocity=0 time=240
note_on channel=0 note=48 velocity=27 time=0
note_on channel=0 note=51 velocity=27 time=0
note_on channel=0 note=56 velocity=34 time=0
note_on channel=0 note=72 velocity=0 time=0
note_on channel=0 note=60 velocity=0 time=0
note_on channel=0 note=75 velocity=53 time=0
note_on channel=0 note=63 velocity=49 time=0
note_on channel=0 note=63 velocity=0 time=0
note_on channel=0 note=51 velocity=0 time=0
note_on channel=0 note=56 velocity=0 time=0
note_on channel=0 note=48 velocity=0 time=0
note_on channel=0 note=75 velocity=0 time=0
note_on channel=0 note=80 velocity=56 time=0
note_on channel=0 note=68 velocity=51 time=0
note_on channel=0 note=44 velocity=37 time=0
note_on channel=0 note=44 velocity=0 time=148
note_on channel=0 note=56 velocity=34 time=0
note_on channel=0 note=51 velocity=27 time=0
note_on channel=0 note=48 velocity=27 time=0
note_on channel=0 note=48 velocity=0 time=240
note_on channel=0 note=56 velocity=0 time=0
note_on channel=0 note=51 velocity=0 time=0
note_on channel=0 note=44 velocity=36 time=0
note_on channel=0 note=44 velocity=0 time=0
note_on channel=0 note=68 velocity=0 time=0
note_on channel=0 note=80 velocity=0 time=0
note_on channel=0 note=72 velocity=57 time=0
note_on channel=0 note=84 velocity=62 time=0
note_on channel=0 note=56 velocity=39 time=0
note_on channel=0 note=51 velocity=30 time=0
note_on channel=0 note=48 velocity=30 time=0
note_on channel=0 note=48 velocity=0 time=0
note_on channel=0 note=56 velocity=0 time=0
note_on channel=0 note=51 velocity=0 time=0
note_on channel=0 note=44 velocity=37 time=0
note_on channel=0 note=44 velocity=0 time=240
note_on channel=0 note=48 velocity=29 time=0
note_on channel=0 note=56 velocity=38 time=0
note_on channel=0 note=51 velocity=29 time=0
note_on channel=0 note=84 velocity=0 time=0
note_on channel=0 note=72 velocity=0 time=0
note_on channel=0 note=80 velocity=58 time=0
note_on channel=0 note=68 velocity=53 time=0
note_on channel=0 note=68 velocity=0 time=120
note_on channel=0 note=56 velocity=0 time=0
note_on channel=0 note=51 velocity=0 time=0
note_on channel=0 note=48 velocity=0 time=0
note_on channel=0 note=80 velocity=0 time=0
note_on channel=0 note=67 velocity=57 time=0
note_on channel=0 note=79 velocity=61 time=0
note_on channel=0 note=46 velocity=40 time=0
note_on channel=0 note=46 velocity=0 time=113
note_on channel=0 note=58 velocity=38 time=0
note_on channel=0 note=51 velocity=29 time=0
note_on channel=0 note=49 velocity=29 time=0
note_on channel=0 note=49 velocity=0 time=240
note_on channel=0 note=58 velocity=0 time=0
note_on channel=0 note=51 velocity=0 time=0
note_on channel=0 note=46 velocity=39 time=0
note_on channel=0 note=46 velocity=0 time=0
note_on channel=0 note=79 velocity=0 time=0
note_on channel=0 note=67 velocity=0 time=0
note_on channel=0 note=70 velocity=62 time=0
note_on channel=0 note=82 velocity=68 time=0
note_on channel=0 note=51 velocity=34 time=0
note_on channel=0 note=58 velocity=42 time=0
note_on channel=0 note=49 velocity=34 time=0
note_on channel=0 note=49 velocity=0 time=0
note_on channel=0 note=51 velocity=0 time=0
note_on channel=0 note=58 velocity=0 time=0
note_on channel=0 note=46 velocity=40 time=0
note_on channel=0 note=46 velocity=0 time=240
note_on channel=0 note=49 velocity=33 time=0
note_on channel=0 note=58 velocity=42 time=0
note_on channel=0 note=51 velocity=33 time=0
note_on channel=0 note=82 velocity=0 time=0
note_on channel=0 note=70 velocity=0 time=0
note_on channel=0 note=79 velocity=63 time=0
note_on channel=0 note=67 velocity=58 time=0
note_on channel=0 note=67 velocity=0 time=0
note_on channel=0 note=58 velocity=0 time=0
note_on channel=0 note=51 velocity=0 time=0
note_on channel=0 note=49 velocity=0 time=0
note_on channel=0 note=79 velocity=0 time=0
note_on channel=0 note=68 velocity=51 time=0
note_on channel=0 note=80 velocity=57 time=0
note_on channel=0 note=60 velocity=36 time=0
note_on channel=0 note=51 velocity=28 time=0
note_on channel=0 note=48 velocity=28 time=0
note_on channel=0 note=56 velocity=36 time=0
note_on channel=0 note=80 velocity=0 time=0
note_on channel=0 note=68 velocity=0 time=0
note_on channel=0 note=63 velocity=45 time=0
note_on channel=0 note=75 velocity=52 time=0
note_on channel=0 note=75 velocity=0 time=0
note_on channel=0 note=56 velocity=0 time=0
note_on channel=0 note=60 velocity=0 time=0
note_on channel=0 note=51 velocity=0 time=0
note_on channel=0 note=63 velocity=0 time=0
note_on channel=0 note=48 velocity=0 time=0
note_on channel=0 note=76 velocity=85 time=0
note_on channel=0 note=64 velocity=72 time=0
note_on channel=0 note=56 velocity=59 time=0
note_on channel=0 note=49 velocity=50 time=0
note_on channel=0 note=52 velocity=50 time=0
note_on channel=0 note=56 velocity=0 time=0
note_on channel=0 note=76 velocity=0 time=0
note_on channel=0 note=64 velocity=0 time=0
note_on channel=0 note=61 velocity=69 time=0
note_on channel=0 note=73 velocity=81 time=0
note_on channel=0 note=57 velocity=57 time=0
note_on channel=0 note=57 velocity=0 time=0
note_on channel=0 note=61 velocity=0 time=0
note_on channel=0 note=52 velocity=0 time=0
note_on channel=0 note=49 velocity=0 time=0
note_on channel=0 note=73 velocity=0 time=0
note_on channel=0 note=71 velocity=58 time=0
note_on channel=0 note=56 velocity=36 time=0
note_on channel=0 note=51 velocity=28 time=0
note_on channel=0 note=59 velocity=36 time=0
note_on channel=0 note=71 velocity=0 time=0
note_on channel=0 note=70 velocity=51 time=0
note_on channel=0 note=70 velocity=0 time=0
note_on channel=0 note=68 velocity=49 time=0
note_on channel=0 note=68 velocity=0 time=166
note_on channel=0 note=69 velocity=38 time=0
note_on channel=0 note=69 velocity=0 time=20
note_on channel=0 note=59 velocity=0 time=0
note_on channel=0 note=51 velocity=0 time=0
note_on channel=0 note=56 velocity=0 time=0
note_on channel=0 note=70 velocity=44 time=0
note_on channel=0 note=55 velocity=31 time=0
note_on channel=0 note=61 velocity=31 time=0
note_on channel=0 note=51 velocity=25 time=0
note_on channel=0 note=70 velocity=0 time=20
note_on channel=0 note=71 velocity=38 time=0
note_on channel=0 note=71 velocity=0 time=0
note_on channel=0 note=70 velocity=46 time=0
note_on channel=0 note=70 velocity=0 time=0
note_on channel=0 note=71 velocity=40 time=0
note_on channel=0 note=71 velocity=0 time=40
note_on channel=0 note=70 velocity=47 time=0
note_on channel=0 note=70 velocity=0 time=0
note_on channel=0 note=71 velocity=40 time=0
note_on channel=0 note=71 velocity=0 time=0
note_on channel=0 note=70 velocity=48 time=0
note_on channel=0 note=70 velocity=0 time=0
note_on channel=0 note=71 velocity=41 time=0
note_on channel=0 note=71 velocity=0 time=0
note_on channel=0 note=70 velocity=49 time=0
note_on channel=0 note=70 velocity=0 time=16
note_on channel=0 note=71 velocity=42 time=0
note_on channel=0 note=71 velocity=0 time=0
note_on channel=0 note=70 velocity=50 time=0
note_on channel=0 note=70 velocity=0 time=16
note_on channel=0 note=71 velocity=42 time=0
note_on channel=0 note=71 velocity=0 time=0
note_on channel=0 note=70 velocity=51 time=0
note_on channel=0 note=70 velocity=0 time=16
note_on channel=0 note=71 velocity=44 time=0
note_on channel=0 note=71 velocity=0 time=28
note_on channel=0 note=70 velocity=51 time=0
note_on channel=0 note=70 velocity=0 time=16
note_on channel=0 note=71 velocity=45 time=0
note_on channel=0 note=71 velocity=0 time=0
note_on channel=0 note=70 velocity=52 time=0
note_on channel=0 note=70 velocity=0 time=16
note_on channel=0 note=71 velocity=46 time=0
note_on channel=0 note=71 velocity=0 time=0
note_on channel=0 note=70 velocity=53 time=0
note_on channel=0 note=70 velocity=0 time=0
note_on channel=0 note=71 velocity=48 time=0
note_on channel=0 note=71 velocity=0 time=40
note_on channel=0 note=70 velocity=55 time=0
note_on channel=0 note=70 velocity=0 time=0
note_on channel=0 note=71 velocity=48 time=0
note_on channel=0 note=71 velocity=0 time=0
note_on channel=0 note=70 velocity=56 time=0
note_on channel=0 note=70 velocity=0 time=0
note_on channel=0 note=71 velocity=48 time=0
note_on channel=0 note=71 velocity=0 time=0
note_on channel=0 note=51 velocity=0 time=0
note_on channel=0 note=61 velocity=0 time=0
note_on channel=0 note=55 velocity=0 time=0
note_on channel=0 note=76 velocity=46 time=0
note_on channel=0 note=76 velocity=0 time=0
note_on channel=0 note=75 velocity=39 time=0
note_on channel=0 note=75 velocity=0 time=16
note_on channel=0 note=76 velocity=46 time=0
note_on channel=0 note=76 velocity=0 time=0
note_on channel=0 note=75 velocity=40 time=0
note_on channel=0 note=75 velocity=0 time=0
note_on channel=0 note=76 velocity=48 time=0
note_on channel=0 note=76 velocity=0 time=16
note_on channel=0 note=75 velocity=41 time=0
note_on channel=0 note=75 velocity=0 time=0
note_on channel=0 note=76 velocity=50 time=0
note_on channel=0 note=76 velocity=0 time=0
note_on channel=0 note=75 velocity=44 time=0
note_on channel=0 note=75 velocity=0 time=40
note_on channel=0 note=76 velocity=51 time=0
note_on channel=0 note=76 velocity=0 time=16
note_on channel=0 note=75 velocity=45 time=0
note_on channel=0 note=75 velocity=0 time=16
note_on channel=0 note=76 velocity=53 time=0
note_on channel=0 note=76 velocity=0 time=28
note_on channel=0 note=75 velocity=47 time=0
note_on channel=0 note=75 velocity=0 time=56
note_on channel=0 note=76 velocity=56 time=0
note_on channel=0 note=76 velocity=0 time=16
note_on channel=0 note=75 velocity=48 time=0
note_on channel=0 note=75 velocity=0 time=16
note_on channel=0 note=76 velocity=56 time=0
note_on channel=0 note=76 velocity=0 time=28
note_on channel=0 note=75 velocity=47 time=0
note_on channel=0 note=75 velocity=0 time=56
note_on channel=0 note=76 velocity=56 time=0
note_on channel=0 note=76 velocity=0 time=0
note_on channel=0 note=75 velocity=48 time=0
note_on channel=0 note=75 velocity=0 time=28
note_on channel=0 note=76 velocity=56 time=0
note_on channel=0 note=76 velocity=0 time=56
note_on channel=0 note=75 velocity=49 time=0
note_on channel=0 note=75 velocity=0 time=0
note_on channel=0 note=76 velocity=56 time=0
note_on channel=0 note=76 velocity=0 time=16
note_on channel=0 note=75 velocity=49 time=0
note_on channel=0 note=75 velocity=0 time=0
note_on channel=0 note=74 velocity=56 time=0
note_on channel=0 note=74 velocity=0 time=0
note_on channel=0 note=75 velocity=48 time=0
note_on channel=0 note=75 velocity=0 time=0
note_on channel=0 note=88 velocity=55 time=0
note_on channel=0 note=88 velocity=0 time=16
note_on channel=0 note=87 velocity=46 time=0
note_on channel=0 note=87 velocity=0 time=0
note_on channel=0 note=88 velocity=55 time=0
note_on channel=0 note=88 velocity=0 time=0
note_on channel=0 note=87 velocity=48 time=0
note_on channel=0 note=87 velocity=0 time=16
note_on channel=0 note=88 velocity=57 time=0
note_on channel=0 note=88 velocity=0 time=0
note_on channel=0 note=87 velocity=50 time=0
note_on channel=0 note=87 velocity=0 time=0
note_on channel=0 note=88 velocity=60 time=0
note_on channel=0 note=88 velocity=0 time=0
note_on channel=0 note=87 velocity=51 time=0
note_on channel=0 note=87 velocity=0 time=0
note_on channel=0 note=88 velocity=62 time=0
note_on channel=0 note=88 velocity=0 time=40
note_on channel=0 note=87 velocity=52 time=0
note_on channel=0 note=87 velocity=0 time=28
note_on channel=0 note=88 velocity=63 time=0
note_on channel=0 note=88 velocity=0 time=0
note_on channel=0 note=87 velocity=55 time=0
note_on channel=0 note=87 velocity=0 time=16
note_on channel=0 note=88 velocity=67 time=0
note_on channel=0 note=88 velocity=0 time=0
note_on channel=0 note=87 velocity=56 time=0
note_on channel=0 note=87 velocity=0 time=16
note_on channel=0 note=88 velocity=68 time=0
note_on channel=0 note=88 velocity=0 time=0
note_on channel=0 note=87 velocity=57 time=0
note_on channel=0 note=87 velocity=0 time=28
note_on channel=0 note=88 velocity=67 time=0
note_on channel=0 note=88 velocity=0 time=0
note_on channel=0 note=87 velocity=56 time=0
note_on channel=0 note=87 velocity=0 time=16
note_on channel=0 note=88 velocity=67 time=0
note_on channel=0 note=88 velocity=0 time=0
note_on channel=0 note=87 velocity=58 time=0
note_on channel=0 note=87 velocity=0 time=16
note_on channel=0 note=88 velocity=67 time=0
note_on channel=0 note=88 velocity=0 time=16
note_on channel=0 note=87 velocity=58 time=0
note_on channel=0 note=87 velocity=0 time=0
note_on channel=0 note=86 velocity=67 time=0
note_on channel=0 note=86 velocity=0 time=0
note_on channel=0 note=87 velocity=56 time=0
note_on channel=0 note=87 velocity=0 time=0
note_on channel=0 note=88 velocity=64 time=0
note_on channel=0 note=88 velocity=0 time=231
note_on channel=0 note=87 velocity=55 time=0
note_on channel=0 note=87 velocity=0 time=240
note_on channel=0 note=85 velocity=48 time=0
note_on channel=0 note=85 velocity=0 time=240
note_on channel=0 note=83 velocity=49 time=0
note_on channel=0 note=83 velocity=0 time=240
note_on channel=0 note=82 velocity=48 time=0
note_on channel=0 note=82 velocity=0 time=240
note_on channel=0 note=80 velocity=48 time=0
note_on channel=0 note=80 velocity=0 time=240
note_on channel=0 note=79 velocity=49 time=0
note_on channel=0 note=79 velocity=0 time=240
note_on channel=0 note=78 velocity=47 time=0
note_on channel=0 note=78 velocity=0 time=240
note_on channel=0 note=76 velocity=47 time=0
note_on channel=0 note=76 velocity=0 time=240
note_on channel=0 note=75 velocity=48 time=0
note_on channel=0 note=75 velocity=0 time=240
note_on channel=0 note=73 velocity=48 time=0
note_on channel=0 note=73 velocity=0 time=240
note_on channel=0 note=71 velocity=45 time=0
note_on channel=0 note=71 velocity=0 time=20
note_on channel=0 note=70 velocity=48 time=0
note_on channel=0 note=70 velocity=0 time=80
note_on channel=0 note=68 velocity=44 time=0
note_on channel=0 note=68 velocity=0 time=40
note_on channel=0 note=67 velocity=44 time=0
note_on channel=0 note=67 velocity=0 time=20
note_on channel=0 note=66 velocity=45 time=0
note_on channel=0 note=66 velocity=0 time=0
note_on channel=0 note=64 velocity=45 time=0
note_on channel=0 note=64 velocity=0 time=240
note_on channel=0 note=63 velocity=45 time=0
note_on channel=0 note=63 velocity=0 time=240
note_on channel=0 note=61 velocity=45 time=0
note_on channel=0 note=61 velocity=0 time=240
note_on channel=0 note=59 velocity=44 time=0
note_on channel=0 note=59 velocity=0 time=240
note_on channel=0 note=58 velocity=42 time=0
note_on channel=0 note=58 velocity=0 time=240
note_on channel=0 note=56 velocity=42 time=0
note_on channel=0 note=56 velocity=0 time=240
note_on channel=0 note=55 velocity=41 time=0
note_on channel=0 note=55 velocity=0 time=240
note_on channel=0 note=54 velocity=39 time=0
note_on channel=0 note=54 velocity=0 time=0
note_on channel=0 note=52 velocity=42 time=0
note_on channel=0 note=52 velocity=0 time=0
note_on channel=0 note=51 velocity=41 time=0
note_on channel=0 note=51 velocity=0 time=0
note_on channel=0 note=49 velocity=41 time=0
note_on channel=0 note=49 velocity=0 time=0
note_on channel=0 note=47 velocity=40 time=0
note_on channel=0 note=47 velocity=0 time=0
note_on channel=0 note=46 velocity=39 time=0
note_on channel=0 note=46 velocity=0 time=0
note_on channel=0 note=44 velocity=39 time=0
note_on channel=0 note=44 velocity=0 time=20
note_on channel=0 note=43 velocity=42 time=0
note_on channel=0 note=43 velocity=0 time=240
note_on channel=0 note=42 velocity=41 time=0
note_on channel=0 note=42 velocity=0 time=240
note_on channel=0 note=41 velocity=41 time=0
note_on channel=0 note=41 velocity=0 time=240
note_on channel=0 note=39 velocity=41 time=0
note_on channel=0 note=39 velocity=0 time=240
note_on channel=0 note=37 velocity=41 time=0
note_on channel=0 note=37 velocity=0 time=0
note_on channel=0 note=35 velocity=41 time=0
note_on channel=0 note=35 velocity=0 time=0
note_on channel=0 note=34 velocity=42 time=0
note_on channel=0 note=34 velocity=0 time=240
note_on channel=0 note=35 velocity=42 time=0
note_on channel=0 note=35 velocity=0 time=240
note_on channel=0 note=37 velocity=42 time=0
note_on channel=0 note=37 velocity=0 time=240
note_on channel=0 note=39 velocity=42 time=0
note_on channel=0 note=39 velocity=0 time=240
note_on channel=0 note=40 velocity=41 time=0
note_on channel=0 note=40 velocity=0 time=0
note_on channel=0 note=39 velocity=39 time=0
note_on channel=0 note=39 velocity=0 time=240
note_on channel=0 note=37 velocity=42 time=0
note_on channel=0 note=37 velocity=0 time=0
note_on channel=0 note=35 velocity=40 time=0
note_on channel=0 note=35 velocity=0 time=0
note_on channel=0 note=34 velocity=40 time=0
note_on channel=0 note=34 velocity=0 time=40
note_on channel=0 note=39 velocity=45 time=0
note_on channel=0 note=39 velocity=0 time=40
note_on channel=0 note=37 velocity=42 time=0
note_on channel=0 note=37 velocity=0 time=0
note_on channel=0 note=39 velocity=40 time=0
note_on channel=0 note=39 velocity=0 time=0
note_on channel=0 note=56 velocity=83 time=0
note_on channel=0 note=32 velocity=64 time=0
note_on channel=0 note=32 velocity=0 time=86
note_on channel=0 note=56 velocity=0 time=0
note_on channel=0 note=51 velocity=66 time=0
note_on channel=0 note=39 velocity=52 time=0
note_on channel=0 note=39 velocity=0 time=120
note_on channel=0 note=51 velocity=0 time=0
note_on channel=0 note=47 velocity=66 time=0
note_on channel=0 note=44 velocity=52 time=0
note_on channel=0 note=44 velocity=0 time=120
note_on channel=0 note=47 velocity=0 time=0
note_on channel=0 note=51 velocity=66 time=0
note_on channel=0 note=39 velocity=52 time=0
note_on channel=0 note=39 velocity=0 time=0
note_on channel=0 note=51 velocity=0 time=0
note_on channel=0 note=56 velocity=80 time=0
note_on channel=0 note=32 velocity=58 time=0
note_on channel=0 note=32 velocity=0 time=120
note_on channel=0 note=56 velocity=0 time=0
note_on channel=0 note=51 velocity=64 time=0
note_on channel=0 note=39 velocity=51 time=0
note_on channel=0 note=39 velocity=0 time=0
note_on channel=0 note=51 velocity=0 time=0
note_on channel=0 note=59 velocity=84 time=0
note_on channel=0 note=32 velocity=68 time=0
note_on channel=0 note=32 velocity=0 time=80
note_on channel=0 note=59 velocity=0 time=0
note_on channel=0 note=51 velocity=66 time=0
note_on channel=0 note=39 velocity=52 time=0
note_on channel=0 note=39 velocity=0 time=69
note_on channel=0 note=51 velocity=0 time=0
note_on channel=0 note=58 velocity=83 time=0
note_on channel=0 note=32 velocity=64 time=0
note_on channel=0 note=32 velocity=0 time=63
note_on channel=0 note=58 velocity=0 time=0
note_on channel=0 note=51 velocity=66 time=0
note_on channel=0 note=39 velocity=52 time=0
note_on channel=0 note=39 velocity=0 time=0
note_on channel=0 note=51 velocity=0 time=0
note_on channel=0 note=56 velocity=81 time=0
note_on channel=0 note=32 velocity=62 time=0
note_on channel=0 note=32 velocity=0 time=69
note_on channel=0 note=56 velocity=0 time=0
note_on channel=0 note=51 velocity=66 time=0
note_on channel=0 note=39 velocity=52 time=0
note_on channel=0 note=39 velocity=0 time=0
note_on channel=0 note=51 velocity=0 time=0
note_on channel=0 note=56 velocity=83 time=0
note_on channel=0 note=32 velocity=64 time=0
note_on channel=0 note=32 velocity=0 time=57
note_on channel=0 note=56 velocity=0 time=0
note_on channel=0 note=51 velocity=63 time=0
note_on channel=0 note=39 velocity=52 time=0
note_on channel=0 note=39 velocity=0 time=120
note_on channel=0 note=51 velocity=0 time=0
note_on channel=0 note=47 velocity=63 time=0
note_on channel=0 note=44 velocity=52 time=0
note_on channel=0 note=44 velocity=0 time=120
note_on channel=0 note=47 velocity=0 time=0
note_on channel=0 note=51 velocity=63 time=0
note_on channel=0 note=39 velocity=52 time=0
note_on channel=0 note=39 velocity=0 time=0
note_on channel=0 note=51 velocity=0 time=0
note_on channel=0 note=56 velocity=79 time=0
note_on channel=0 note=32 velocity=58 time=0
note_on channel=0 note=32 velocity=0 time=120
note_on channel=0 note=56 velocity=0 time=0
note_on channel=0 note=51 velocity=62 time=0
note_on channel=0 note=39 velocity=51 time=0
note_on channel=0 note=39 velocity=0 time=0
note_on channel=0 note=51 velocity=0 time=0
note_on channel=0 note=59 velocity=83 time=0
note_on channel=0 note=32 velocity=68 time=0
note_on channel=0 note=32 velocity=0 time=51
note_on channel=0 note=59 velocity=0 time=0
note_on channel=0 note=51 velocity=63 time=0
note_on channel=0 note=39 velocity=52 time=0
note_on channel=0 note=39 velocity=0 time=40
note_on channel=0 note=51 velocity=0 time=0
note_on channel=0 note=58 velocity=80 time=0
note_on channel=0 note=32 velocity=64 time=0
note_on channel=0 note=32 velocity=0 time=63
note_on channel=0 note=58 velocity=0 time=0
note_on channel=0 note=51 velocity=66 time=0
note_on channel=0 note=39 velocity=52 time=0
note_on channel=0 note=39 velocity=0 time=0
note_on channel=0 note=51 velocity=0 time=0
note_on channel=0 note=56 velocity=80 time=0
note_on channel=0 note=32 velocity=62 time=0
note_on channel=0 note=32 velocity=0 time=80
note_on channel=0 note=56 velocity=0 time=0
note_on channel=0 note=51 velocity=64 time=0
note_on channel=0 note=39 velocity=52 time=0
note_on channel=0 note=39 velocity=0 time=0
note_on channel=0 note=51 velocity=0 time=0
note_on channel=0 note=64 velocity=83 time=0
note_on channel=0 note=32 velocity=64 time=0
note_on channel=0 note=32 velocity=0 time=86
note_on channel=0 note=64 velocity=0 time=0
note_on channel=0 note=59 velocity=66 time=0
note_on channel=0 note=40 velocity=52 time=0
note_on channel=0 note=40 velocity=0 time=120
note_on channel=0 note=59 velocity=0 time=0
note_on channel=0 note=56 velocity=66 time=0
note_on channel=0 note=44 velocity=52 time=0
note_on channel=0 note=44 velocity=0 time=120
note_on channel=0 note=56 velocity=0 time=0
note_on channel=0 note=59 velocity=66 time=0
note_on channel=0 note=40 velocity=52 time=0
note_on channel=0 note=40 velocity=0 time=0
note_on channel=0 note=59 velocity=0 time=0
note_on channel=0 note=64 velocity=80 time=0
note_on channel=0 note=32 velocity=58 time=0
note_on channel=0 note=32 velocity=0 time=120
note_on channel=0 note=64 velocity=0 time=0
note_on channel=0 note=59 velocity=64 time=0
note_on channel=0 note=40 velocity=51 time=0
note_on channel=0 note=40 velocity=0 time=0
note_on channel=0 note=59 velocity=0 time=0
note_on channel=0 note=68 velocity=84 time=0
note_on channel=0 note=32 velocity=68 time=0
note_on channel=0 note=32 velocity=0 time=80
note_on channel=0 note=68 velocity=0 time=0
note_on channel=0 note=59 velocity=66 time=0
note_on channel=0 note=40 velocity=52 time=0
note_on channel=0 note=40 velocity=0 time=69
note_on channel=0 note=59 velocity=0 time=0
note_on channel=0 note=66 velocity=83 time=0
note_on channel=0 note=32 velocity=64 time=0
note_on channel=0 note=32 velocity=0 time=63
note_on channel=0 note=66 velocity=0 time=0
note_on channel=0 note=59 velocity=66 time=0
note_on channel=0 note=40 velocity=52 time=0
note_on channel=0 note=40 velocity=0 time=0
note_on channel=0 note=59 velocity=0 time=0
note_on channel=0 note=64 velocity=81 time=0
note_on channel=0 note=32 velocity=62 time=0
note_on channel=0 note=32 velocity=0 time=69
note_on channel=0 note=64 velocity=0 time=0
note_on channel=0 note=59 velocity=66 time=0
note_on channel=0 note=40 velocity=52 time=0
note_on channel=0 note=40 velocity=0 time=0
note_on channel=0 note=59 velocity=0 time=0
note_on channel=0 note=64 velocity=83 time=0
note_on channel=0 note=32 velocity=64 time=0
note_on channel=0 note=32 velocity=0 time=57
note_on channel=0 note=64 velocity=0 time=0
note_on channel=0 note=59 velocity=63 time=0
note_on channel=0 note=40 velocity=52 time=0
note_on channel=0 note=40 velocity=0 time=120
note_on channel=0 note=59 velocity=0 time=0
note_on channel=0 note=56 velocity=63 time=0
note_on channel=0 note=44 velocity=52 time=0
note_on channel=0 note=44 velocity=0 time=120
note_on channel=0 note=56 velocity=0 time=0
note_on channel=0 note=59 velocity=63 time=0
note_on channel=0 note=40 velocity=52 time=0
note_on channel=0 note=40 velocity=0 time=0
note_on channel=0 note=59 velocity=0 time=0
note_on channel=0 note=64 velocity=80 time=0
note_on channel=0 note=32 velocity=58 time=0
note_on channel=0 note=32 velocity=0 time=120
note_on channel=0 note=64 velocity=0 time=0
note_on channel=0 note=59 velocity=62 time=0
note_on channel=0 note=40 velocity=51 time=0
note_on channel=0 note=40 velocity=0 time=0
note_on channel=0 note=59 velocity=0 time=0
note_on channel=0 note=68 velocity=83 time=0
note_on channel=0 note=32 velocity=68 time=0
note_on channel=0 note=32 velocity=0 time=51
note_on channel=0 note=68 velocity=0 time=0
note_on channel=0 note=59 velocity=63 time=0
note_on channel=0 note=40 velocity=52 time=0
note_on channel=0 note=40 velocity=0 time=40
note_on channel=0 note=59 velocity=0 time=0
note_on channel=0 note=66 velocity=80 time=0
note_on channel=0 note=32 velocity=64 time=0
note_on channel=0 note=32 velocity=0 time=63
note_on channel=0 note=66 velocity=0 time=0
note_on channel=0 note=59 velocity=66 time=0
note_on channel=0 note=40 velocity=52 time=0
note_on channel=0 note=40 velocity=0 time=0
note_on channel=0 note=59 velocity=0 time=0
note_on channel=0 note=64 velocity=80 time=0
note_on channel=0 note=32 velocity=62 time=0
note_on channel=0 note=32 velocity=0 time=80
note_on channel=0 note=64 velocity=0 time=0
note_on channel=0 note=59 velocity=64 time=0
note_on channel=0 note=40 velocity=52 time=0
note_on channel=0 note=40 velocity=0 time=0
note_on channel=0 note=59 velocity=0 time=0
note_on channel=0 note=73 velocity=92 time=0
note_on channel=0 note=33 velocity=90 time=0
note_on channel=0 note=45 velocity=106 time=0
note_on channel=0 note=73 velocity=0 time=40
note_on channel=0 note=76 velocity=67 time=0
note_on channel=0 note=76 velocity=0 time=0
note_on channel=0 note=73 velocity=77 time=0
note_on channel=0 note=73 velocity=0 time=0
note_on channel=0 note=76 velocity=67 time=0
note_on channel=0 note=76 velocity=0 time=0
note_on channel=0 note=73 velocity=74 time=0
note_on channel=0 note=73 velocity=0 time=20
note_on channel=0 note=76 velocity=67 time=0
note_on channel=0 note=76 velocity=0 time=40
note_on channel=0 note=73 velocity=73 time=0
note_on channel=0 note=73 velocity=0 time=40
note_on channel=0 note=76 velocity=67 time=0
note_on channel=0 note=76 velocity=0 time=40
note_on channel=0 note=73 velocity=73 time=0
note_on channel=0 note=73 velocity=0 time=0
note_on channel=0 note=76 velocity=67 time=0
note_on channel=0 note=76 velocity=0 time=20
note_on channel=0 note=73 velocity=73 time=0
note_on channel=0 note=73 velocity=0 time=80
note_on channel=0 note=76 velocity=67 time=0
note_on channel=0 note=76 velocity=0 time=20
note_on channel=0 note=73 velocity=73 time=0
note_on channel=0 note=73 velocity=0 time=40
note_on channel=0 note=76 velocity=67 time=0
note_on channel=0 note=76 velocity=0 time=0
note_on channel=0 note=73 velocity=73 time=0
note_on channel=0 note=73 velocity=0 time=20
note_on channel=0 note=76 velocity=67 time=0
note_on channel=0 note=76 velocity=0 time=0
note_on channel=0 note=73 velocity=72 time=0
note_on channel=0 note=73 velocity=0 time=0
note_on channel=0 note=76 velocity=67 time=0
note_on channel=0 note=76 velocity=0 time=0
note_on channel=0 note=45 velocity=0 time=0
note_on channel=0 note=33 velocity=0 time=0
note_on channel=0 note=73 velocity=95 time=0
note_on channel=0 note=46 velocity=88 time=0
note_on channel=0 note=34 velocity=74 time=0
note_on channel=0 note=73 velocity=0 time=34
note_on channel=0 note=76 velocity=78 time=0
note_on channel=0 note=76 velocity=0 time=120
note_on channel=0 note=34 velocity=0 time=0
note_on channel=0 note=46 velocity=0 time=0
note_on channel=0 note=70 velocity=89 time=0
note_on channel=0 note=37 velocity=72 time=0
note_on channel=0 note=70 velocity=0 time=120
note_on channel=0 note=73 velocity=78 time=0
note_on channel=0 note=73 velocity=0 time=0
note_on channel=0 note=37 velocity=0 time=0
note_on channel=0 note=67 velocity=84 time=0
note_on channel=0 note=40 velocity=82 time=0
note_on channel=0 note=67 velocity=0 time=120
note_on channel=0 note=70 velocity=77 time=0
note_on channel=0 note=70 velocity=0 time=0
note_on channel=0 note=40 velocity=0 time=0
note_on channel=0 note=64 velocity=82 time=0
note_on channel=0 note=43 velocity=95 time=0
note_on channel=0 note=64 velocity=0 time=57
note_on channel=0 note=67 velocity=70 time=0
note_on channel=0 note=67 velocity=0 time=120
note_on channel=0 note=43 velocity=0 time=0
note_on channel=0 note=61 velocity=81 time=0
note_on channel=0 note=46 velocity=82 time=0
note_on channel=0 note=61 velocity=0 time=120
note_on channel=0 note=64 velocity=71 time=0
note_on channel=0 note=64 velocity=0 time=120
note_on channel=0 note=46 velocity=0 time=0
note_on channel=0 note=58 velocity=82 time=0
note_on channel=0 note=49 velocity=82 time=0
note_on channel=0 note=58 velocity=0 time=120
note_on channel=0 note=61 velocity=68 time=0
note_on channel=0 note=61 velocity=0 time=120
note_on channel=0 note=49 velocity=0 time=0
note_on channel=0 note=56 velocity=81 time=0
note_on channel=0 note=52 velocity=85 time=0
note_on channel=0 note=56 velocity=0 time=51
note_on channel=0 note=58 velocity=70 time=0
note_on channel=0 note=52 velocity=0 time=110
note_on channel=0 note=58 velocity=0 time=10
note_on channel=0 note=61 velocity=80 time=0
note_on channel=0 note=52 velocity=83 time=0
note_on channel=0 note=61 velocity=0 time=120
note_on channel=0 note=58 velocity=70 time=0
note_on channel=0 note=52 velocity=0 time=110
note_on channel=0 note=58 velocity=0 time=0
note_on channel=0 note=56 velocity=80 time=0
note_on channel=0 note=52 velocity=83 time=0
note_on channel=0 note=56 velocity=0 time=120
note_on channel=0 note=58 velocity=69 time=0
note_on channel=0 note=52 velocity=0 time=110
note_on channel=0 note=58 velocity=0 time=0
note_on channel=0 note=52 velocity=97 time=0
note_on channel=0 note=56 velocity=70 time=28
note_on channel=0 note=56 velocity=0 time=120
note_on channel=0 note=61 velocity=80 time=0
note_on channel=0 note=61 velocity=0 time=120
note_on channel=0 note=58 velocity=69 time=0
note_on channel=0 note=58 velocity=0 time=120
note_on channel=0 note=56 velocity=77 time=0
note_on channel=0 note=56 velocity=0 time=120
note_on channel=0 note=61 velocity=70 time=0
note_on channel=0 note=61 velocity=0 time=120
note_on channel=0 note=52 velocity=0 time=0
note_on channel=0 note=51 velocity=89 time=0
note_on channel=0 note=55 velocity=69 time=28
note_on channel=0 note=55 velocity=0 time=120
note_on channel=0 note=61 velocity=80 time=0
note_on channel=0 note=61 velocity=0 time=120
note_on channel=0 note=58 velocity=69 time=0
note_on channel=0 note=58 velocity=0 time=120
note_on channel=0 note=55 velocity=78 time=0
note_on channel=0 note=55 velocity=0 time=120
note_on channel=0 note=61 velocity=69 time=0
note_on channel=0 note=61 velocity=0 time=0
note_on channel=0 note=51 velocity=0 time=0
note_on channel=0 note=68 velocity=83 time=0
note_on channel=0 note=44 velocity=64 time=0
note_on channel=0 note=44 velocity=0 time=23
note_on channel=0 note=68 velocity=0 time=0
note_on channel=0 note=63 velocity=66 time=0
note_on channel=0 note=51 velocity=52 time=0
note_on channel=0 note=51 velocity=0 time=120
note_on channel=0 note=63 velocity=0 time=0
note_on channel=0 note=59 velocity=66 time=0
note_on channel=0 note=56 velocity=52 time=0
note_on channel=0 note=56 velocity=0 time=120
note_on channel=0 note=59 velocity=0 time=0
note_on channel=0 note=63 velocity=66 time=0
note_on channel=0 note=51 velocity=52 time=0
note_on channel=0 note=51 velocity=0 time=0
note_on channel=0 note=63 velocity=0 time=0
note_on channel=0 note=68 velocity=80 time=0
note_on channel=0 note=44 velocity=58 time=0
note_on channel=0 note=44 velocity=0 time=120
note_on channel=0 note=68 velocity=0 time=0
note_on channel=0 note=63 velocity=64 time=0
note_on channel=0 note=51 velocity=51 time=0
note_on channel=0 note=51 velocity=0 time=0
note_on channel=0 note=63 velocity=0 time=0
note_on channel=0 note=71 velocity=84 time=0
note_on channel=0 note=44 velocity=68 time=0
note_on channel=0 note=44 velocity=0 time=80
note_on channel=0 note=71 velocity=0 time=0
note_on channel=0 note=63 velocity=66 time=0
note_on channel=0 note=51 velocity=52 time=0
note_on channel=0 note=51 velocity=0 time=69
note_on channel=0 note=63 velocity=0 time=0
note_on channel=0 note=70 velocity=83 time=0
note_on channel=0 note=44 velocity=64 time=0
note_on channel=0 note=44 velocity=0 time=63
note_on channel=0 note=70 velocity=0 time=0
note_on channel=0 note=63 velocity=66 time=0
note_on channel=0 note=51 velocity=52 time=0
note_on channel=0 note=51 velocity=0 time=0
note_on channel=0 note=63 velocity=0 time=0
note_on channel=0 note=68 velocity=81 time=0
note_on channel=0 note=44 velocity=62 time=0
note_on channel=0 note=44 velocity=0 time=69
note_on channel=0 note=68 velocity=0 time=0
note_on channel=0 note=63 velocity=66 time=0
note_on channel=0 note=51 velocity=52 time=0
note_on channel=0 note=51 velocity=0 time=0
note_on channel=0 note=63 velocity=0 time=0
note_on channel=0 note=68 velocity=83 time=0
note_on channel=0 note=44 velocity=64 time=0
note_on channel=0 note=44 velocity=0 time=57
note_on channel=0 note=68 velocity=0 time=0
note_on channel=0 note=63 velocity=63 time=0
note_on channel=0 note=51 velocity=52 time=0
note_on channel=0 note=51 velocity=0 time=120
note_on channel=0 note=63 velocity=0 time=0
note_on channel=0 note=59 velocity=63 time=0
note_on channel=0 note=56 velocity=52 time=0
note_on channel=0 note=56 velocity=0 time=120
note_on channel=0 note=59 velocity=0 time=0
note_on channel=0 note=63 velocity=63 time=0
note_on channel=0 note=51 velocity=52 time=0
note_on channel=0 note=51 velocity=0 time=0
note_on channel=0 note=63 velocity=0 time=0
note_on channel=0 note=68 velocity=80 time=0
note_on channel=0 note=44 velocity=58 time=0
note_on channel=0 note=44 velocity=0 time=120
note_on channel=0 note=68 velocity=0 time=0
note_on channel=0 note=63 velocity=62 time=0
note_on channel=0 note=51 velocity=51 time=0
note_on channel=0 note=51 velocity=0 time=0
note_on channel=0 note=63 velocity=0 time=0
note_on channel=0 note=71 velocity=83 time=0
note_on channel=0 note=44 velocity=68 time=0
note_on channel=0 note=44 velocity=0 time=51
note_on channel=0 note=71 velocity=0 time=0
note_on channel=0 note=63 velocity=63 time=0
note_on channel=0 note=51 velocity=52 time=0
note_on channel=0 note=51 velocity=0 time=40
note_on channel=0 note=63 velocity=0 time=0
note_on channel=0 note=70 velocity=80 time=0
note_on channel=0 note=44 velocity=64 time=0
note_on channel=0 note=44 velocity=0 time=63
note_on channel=0 note=70 velocity=0 time=0
note_on channel=0 note=63 velocity=66 time=0
note_on channel=0 note=51 velocity=52 time=0
note_on channel=0 note=51 velocity=0 time=0
note_on channel=0 note=63 velocity=0 time=0
note_on channel=0 note=68 velocity=80 time=0
note_on channel=0 note=44 velocity=62 time=0
note_on channel=0 note=44 velocity=0 time=80
note_on channel=0 note=68 velocity=0 time=0
note_on channel=0 note=63 velocity=64 time=0
note_on channel=0 note=51 velocity=52 time=0
note_on channel=0 note=51 velocity=0 time=0
note_on channel=0 note=63 velocity=0 time=0
note_on channel=0 note=76 velocity=83 time=0
note_on channel=0 note=44 velocity=64 time=0
note_on channel=0 note=44 velocity=0 time=86
note_on channel=0 note=76 velocity=0 time=0
note_on channel=0 note=71 velocity=66 time=0
note_on channel=0 note=52 velocity=52 time=0
note_on channel=0 note=52 velocity=0 time=120
note_on channel=0 note=71 velocity=0 time=0
note_on channel=0 note=68 velocity=66 time=0
note_on channel=0 note=56 velocity=52 time=0
note_on channel=0 note=56 velocity=0 time=120
note_on channel=0 note=68 velocity=0 time=0
note_on channel=0 note=71 velocity=66 time=0
note_on channel=0 note=52 velocity=52 time=0
note_on channel=0 note=52 velocity=0 time=0
note_on channel=0 note=71 velocity=0 time=0
note_on channel=0 note=76 velocity=80 time=0
note_on channel=0 note=44 velocity=58 time=0
note_on channel=0 note=44 velocity=0 time=120
note_on channel=0 note=76 velocity=0 time=0
note_on channel=0 note=71 velocity=64 time=0
note_on channel=0 note=52 velocity=51 time=0
note_on channel=0 note=52 velocity=0 time=0
note_on channel=0 note=71 velocity=0 time=0
note_on channel=0 note=80 velocity=84 time=0
note_on channel=0 note=44 velocity=68 time=0
note_on channel=0 note=44 velocity=0 time=80
note_on channel=0 note=80 velocity=0 time=0
note_on channel=0 note=71 velocity=66 time=0
note_on channel=0 note=52 velocity=52 time=0
note_on channel=0 note=52 velocity=0 time=69
note_on channel=0 note=71 velocity=0 time=0
note_on channel=0 note=78 velocity=83 time=0
note_on channel=0 note=44 velocity=64 time=0
note_on channel=0 note=44 velocity=0 time=63
note_on channel=0 note=78 velocity=0 time=0
note_on channel=0 note=71 velocity=66 time=0
note_on channel=0 note=52 velocity=52 time=0
note_on channel=0 note=52 velocity=0 time=0
note_on channel=0 note=71 velocity=0 time=0
note_on channel=0 note=76 velocity=81 time=0
note_on channel=0 note=44 velocity=62 time=0
note_on channel=0 note=44 velocity=0 time=69
note_on channel=0 note=76 velocity=0 time=0
note_on channel=0 note=71 velocity=66 time=0
note_on channel=0 note=52 velocity=52 time=0
note_on channel=0 note=52 velocity=0 time=0
note_on channel=0 note=71 velocity=0 time=0
note_on channel=0 note=76 velocity=83 time=0
note_on channel=0 note=44 velocity=64 time=0
note_on channel=0 note=44 velocity=0 time=57
note_on channel=0 note=76 velocity=0 time=0
note_on channel=0 note=71 velocity=63 time=0
note_on channel=0 note=52 velocity=52 time=0
note_on channel=0 note=52 velocity=0 time=120
note_on channel=0 note=71 velocity=0 time=0
note_on channel=0 note=68 velocity=63 time=0
note_on channel=0 note=56 velocity=52 time=0
note_on channel=0 note=56 velocity=0 time=120
note_on channel=0 note=68 velocity=0 time=0
note_on channel=0 note=71 velocity=63 time=0
note_on channel=0 note=52 velocity=52 time=0
note_on channel=0 note=52 velocity=0 time=0
note_on channel=0 note=71 velocity=0 time=0
note_on channel=0 note=76 velocity=80 time=0
note_on channel=0 note=44 velocity=58 time=0
note_on channel=0 note=44 velocity=0 time=120
note_on channel=0 note=76 velocity=0 time=0
note_on channel=0 note=71 velocity=62 time=0
note_on channel=0 note=52 velocity=51 time=0
note_on channel=0 note=52 velocity=0 time=0
note_on channel=0 note=71 velocity=0 time=0
note_on channel=0 note=80 velocity=83 time=0
note_on channel=0 note=44 velocity=68 time=0
note_on channel=0 note=44 velocity=0 time=51
note_on channel=0 note=80 velocity=0 time=0
note_on channel=0 note=71 velocity=63 time=0
note_on channel=0 note=52 velocity=52 time=0
note_on channel=0 note=52 velocity=0 time=40
note_on channel=0 note=71 velocity=0 time=0
note_on channel=0 note=78 velocity=80 time=0
note_on channel=0 note=44 velocity=64 time=0
note_on channel=0 note=44 velocity=0 time=63
note_on channel=0 note=78 velocity=0 time=0
note_on channel=0 note=71 velocity=66 time=0
note_on channel=0 note=52 velocity=52 time=0
note_on channel=0 note=52 velocity=0 time=0
note_on channel=0 note=71 velocity=0 time=0
note_on channel=0 note=76 velocity=80 time=0
note_on channel=0 note=44 velocity=62 time=0
note_on channel=0 note=44 velocity=0 time=80
note_on channel=0 note=76 velocity=0 time=0
note_on channel=0 note=71 velocity=64 time=0
note_on channel=0 note=52 velocity=52 time=0
note_on channel=0 note=52 velocity=0 time=0
note_on channel=0 note=71 velocity=0 time=0
note_on channel=0 note=85 velocity=94 time=0
note_on channel=0 note=57 velocity=106 time=0
note_on channel=0 note=45 velocity=90 time=0
note_on channel=0 note=85 velocity=0 time=40
note_on channel=0 note=88 velocity=77 time=0
note_on channel=0 note=88 velocity=0 time=0
note_on channel=0 note=85 velocity=78 time=0
note_on channel=0 note=85 velocity=0 time=0
note_on channel=0 note=88 velocity=69 time=0
note_on channel=0 note=88 velocity=0 time=0
note_on channel=0 note=85 velocity=75 time=0
note_on channel=0 note=85 velocity=0 time=20
note_on channel=0 note=88 velocity=69 time=0
note_on channel=0 note=88 velocity=0 time=40
note_on channel=0 note=85 velocity=75 time=0
note_on channel=0 note=85 velocity=0 time=40
note_on channel=0 note=88 velocity=69 time=0
note_on channel=0 note=88 velocity=0 time=40
note_on channel=0 note=85 velocity=74 time=0
note_on channel=0 note=85 velocity=0 time=0
note_on channel=0 note=88 velocity=69 time=0
note_on channel=0 note=88 velocity=0 time=20
note_on channel=0 note=85 velocity=71 time=0
note_on channel=0 note=85 velocity=0 time=80
note_on channel=0 note=88 velocity=69 time=0
note_on channel=0 note=88 velocity=0 time=20
note_on channel=0 note=85 velocity=71 time=0
note_on channel=0 note=85 velocity=0 time=40
note_on channel=0 note=88 velocity=69 time=0
note_on channel=0 note=88 velocity=0 time=0
note_on channel=0 note=85 velocity=71 time=0
note_on channel=0 note=85 velocity=0 time=20
note_on channel=0 note=88 velocity=69 time=0
note_on channel=0 note=88 velocity=0 time=0
note_on channel=0 note=85 velocity=73 time=0
note_on channel=0 note=85 velocity=0 time=0
note_on channel=0 note=88 velocity=69 time=0
note_on channel=0 note=88 velocity=0 time=0
note_on channel=0 note=45 velocity=0 time=0
note_on channel=0 note=57 velocity=0 time=0
note_on channel=0 note=85 velocity=76 time=0
note_on channel=0 note=46 velocity=59 time=0
note_on channel=0 note=58 velocity=88 time=0
note_on channel=0 note=85 velocity=0 time=28
note_on channel=0 note=88 velocity=69 time=0
note_on channel=0 note=88 velocity=0 time=120
note_on channel=0 note=58 velocity=0 time=0
note_on channel=0 note=46 velocity=0 time=0
note_on channel=0 note=85 velocity=77 time=0
note_on channel=0 note=61 velocity=72 time=0
note_on channel=0 note=49 velocity=58 time=0
note_on channel=0 note=85 velocity=0 time=120
note_on channel=0 note=88 velocity=69 time=0
note_on channel=0 note=88 velocity=0 time=0
note_on channel=0 note=49 velocity=0 time=0
note_on channel=0 note=61 velocity=0 time=0
note_on channel=0 note=85 velocity=77 time=0
note_on channel=0 note=64 velocity=82 time=0
note_on channel=0 note=52 velocity=63 time=0
note_on channel=0 note=85 velocity=0 time=120
note_on channel=0 note=88 velocity=69 time=0
note_on channel=0 note=88 velocity=0 time=0
note_on channel=0 note=52 velocity=0 time=0
note_on channel=0 note=64 velocity=0 time=0
note_on channel=0 note=85 velocity=82 time=0
note_on channel=0 note=67 velocity=95 time=0
note_on channel=0 note=55 velocity=75 time=0
note_on channel=0 note=85 velocity=0 time=45
note_on channel=0 note=88 velocity=70 time=0
note_on channel=0 note=88 velocity=0 time=120
note_on channel=0 note=55 velocity=0 time=0
note_on channel=0 note=67 velocity=0 time=0
note_on channel=0 note=82 velocity=81 time=0
note_on channel=0 note=70 velocity=82 time=0
note_on channel=0 note=58 velocity=63 time=0
note_on channel=0 note=82 velocity=0 time=120
note_on channel=0 note=85 velocity=71 time=0
note_on channel=0 note=85 velocity=0 time=120
note_on channel=0 note=58 velocity=0 time=0
note_on channel=0 note=70 velocity=0 time=0
note_on channel=0 note=80 velocity=82 time=0
note_on channel=0 note=73 velocity=82 time=0
note_on channel=0 note=61 velocity=63 time=0
note_on channel=0 note=80 velocity=0 time=120
note_on channel=0 note=82 velocity=68 time=0
note_on channel=0 note=82 velocity=0 time=120
note_on channel=0 note=61 velocity=0 time=0
note_on channel=0 note=73 velocity=0 time=0
note_on channel=0 note=80 velocity=81 time=0
note_on channel=0 note=64 velocity=68 time=0
note_on channel=0 note=76 velocity=85 time=0
note_on channel=0 note=80 velocity=0 time=17
note_on channel=0 note=82 velocity=70 time=0
note_on channel=0 note=76 velocity=0 time=110
note_on channel=0 note=64 velocity=0 time=0
note_on channel=0 note=82 velocity=0 time=10
note_on channel=0 note=85 velocity=80 time=0
note_on channel=0 note=76 velocity=83 time=0
note_on channel=0 note=64 velocity=64 time=0
note_on channel=0 note=85 velocity=0 time=120
note_on channel=0 note=82 velocity=70 time=0
note_on channel=0 note=64 velocity=0 time=110
note_on channel=0 note=76 velocity=0 time=0
note_on channel=0 note=82 velocity=0 time=0
note_on channel=0 note=80 velocity=80 time=0
note_on channel=0 note=76 velocity=83 time=0
note_on channel=0 note=64 velocity=64 time=0
note_on channel=0 note=80 velocity=0 time=120
note_on channel=0 note=82 velocity=69 time=0
note_on channel=0 note=64 velocity=0 time=110
note_on channel=0 note=76 velocity=0 time=0
note_on channel=0 note=82 velocity=0 time=0
note_on channel=0 note=64 velocity=80 time=0
note_on channel=0 note=76 velocity=102 time=0
note_on channel=0 note=80 velocity=72 time=17
note_on channel=0 note=80 velocity=0 time=120
note_on channel=0 note=85 velocity=77 time=0
note_on channel=0 note=85 velocity=0 time=120
note_on channel=0 note=82 velocity=70 time=0
note_on channel=0 note=82 velocity=0 time=120
note_on channel=0 note=80 velocity=74 time=0
note_on channel=0 note=80 velocity=0 time=120
note_on channel=0 note=85 velocity=69 time=0
note_on channel=0 note=85 velocity=0 time=120
note_on channel=0 note=76 velocity=0 time=0
note_on channel=0 note=64 velocity=0 time=0
note_on channel=0 note=75 velocity=86 time=0
note_on channel=0 note=63 velocity=69 time=0
note_on channel=0 note=79 velocity=67 time=28
note_on channel=0 note=79 velocity=0 time=120
note_on channel=0 note=85 velocity=71 time=0
note_on channel=0 note=85 velocity=0 time=120
note_on channel=0 note=82 velocity=64 time=0
note_on channel=0 note=82 velocity=0 time=0
note_on channel=0 note=79 velocity=68 time=0
note_on channel=0 note=79 velocity=0 time=120
note_on channel=0 note=85 velocity=62 time=0
note_on channel=0 note=85 velocity=0 time=0
note_on channel=0 note=63 velocity=0 time=0
note_on channel=0 note=75 velocity=0 time=0
note_on channel=0 note=68 velocity=102 time=0
note_on channel=0 note=76 velocity=72 time=28
note_on channel=0 note=76 velocity=0 time=120
note_on channel=0 note=85 velocity=78 time=0
note_on channel=0 note=85 velocity=0 time=120
note_on channel=0 note=82 velocity=70 time=0
note_on channel=0 note=82 velocity=0 time=120
note_on channel=0 note=76 velocity=77 time=0
note_on channel=0 note=76 velocity=0 time=120
note_on channel=0 note=85 velocity=69 time=0
note_on channel=0 note=85 velocity=0 time=120
note_on channel=0 note=68 velocity=0 time=0
note_on channel=0 note=67 velocity=86 time=0
note_on channel=0 note=75 velocity=67 time=45
note_on channel=0 note=75 velocity=0 time=120
note_on channel=0 note=85 velocity=74 time=0
note_on channel=0 note=85 velocity=0 time=120
note_on channel=0 note=82 velocity=64 time=0
note_on channel=0 note=82 velocity=0 time=0
note_on channel=0 note=75 velocity=70 time=0
note_on channel=0 note=75 velocity=0 time=120
note_on channel=0 note=85 velocity=62 time=0
note_on channel=0 note=85 velocity=0 time=0
note_on channel=0 note=67 velocity=0 time=0
note_on channel=0 note=76 velocity=102 time=0
note_on channel=0 note=80 velocity=72 time=17
note_on channel=0 note=80 velocity=0 time=120
note_on channel=0 note=85 velocity=78 time=0
note_on channel=0 note=85 velocity=0 time=120
note_on channel=0 note=82 velocity=70 time=0
note_on channel=0 note=82 velocity=0 time=120
note_on channel=0 note=80 velocity=76 time=0
note_on channel=0 note=80 velocity=0 time=120
note_on channel=0 note=85 velocity=69 time=0
note_on channel=0 note=85 velocity=0 time=120
note_on channel=0 note=76 velocity=0 time=0
note_on channel=0 note=75 velocity=86 time=0
note_on channel=0 note=79 velocity=67 time=28
note_on channel=0 note=79 velocity=0 time=120
note_on channel=0 note=85 velocity=73 time=0
note_on channel=0 note=85 velocity=0 time=120
note_on channel=0 note=82 velocity=64 time=0
note_on channel=0 note=82 velocity=0 time=120
note_on channel=0 note=79 velocity=70 time=0
note_on channel=0 note=79 velocity=0 time=120
note_on channel=0 note=85 velocity=62 time=0
note_on channel=0 note=85 velocity=0 time=0
note_on channel=0 note=75 velocity=0 time=0
note_on channel=0 note=74 velocity=97 time=0
note_on channel=0 note=77 velocity=91 time=23
note_on channel=0 note=80 velocity=97 time=80
note_on channel=0 note=83 velocity=79 time=80
note_on channel=0 note=83 velocity=0 time=40
note_on channel=0 note=86 velocity=83 time=0
note_on channel=0 note=86 velocity=0 time=40
note_on channel=0 note=89 velocity=74 time=0
note_on channel=0 note=89 velocity=0 time=40
note_on channel=0 note=92 velocity=85 time=0
note_on channel=0 note=92 velocity=0 time=0
note_on channel=0 note=89 velocity=81 time=0
note_on channel=0 note=89 velocity=0 time=0
note_on channel=0 note=86 velocity=86 time=0
note_on channel=0 note=86 velocity=0 time=120
note_on channel=0 note=95 velocity=83 time=0
note_on channel=0 note=95 velocity=0 time=80
note_on channel=0 note=94 velocity=86 time=0
note_on channel=0 note=94 velocity=0 time=80
note_on channel=0 note=92 velocity=78 time=0
note_on channel=0 note=92 velocity=0 time=80
note_on channel=0 note=74 velocity=0 time=0
note_on channel=0 note=77 velocity=0 time=0
note_on channel=0 note=80 velocity=0 time=0
note_on channel=0 note=91 velocity=83 time=0
note_on channel=0 note=75 velocity=85 time=0
note_on channel=0 note=91 velocity=0 time=109
note_on channel=0 note=94 velocity=81 time=0
note_on channel=0 note=79 velocity=77 time=0
note_on channel=0 note=94 velocity=0 time=120
note_on channel=0 note=92 velocity=84 time=0
note_on channel=0 note=92 velocity=0 time=120
note_on channel=0 note=91 velocity=82 time=0
note_on channel=0 note=91 velocity=0 time=0
note_on channel=0 note=88 velocity=81 time=0
note_on channel=0 note=88 velocity=0 time=120
note_on channel=0 note=87 velocity=74 time=0
note_on channel=0 note=87 velocity=0 time=120
note_on channel=0 note=85 velocity=78 time=0
note_on channel=0 note=85 velocity=0 time=80
note_on channel=0 note=88 velocity=75 time=0
note_on channel=0 note=88 velocity=0 time=120
note_on channel=0 note=87 velocity=74 time=0
note_on channel=0 note=87 velocity=0 time=80
note_on channel=0 note=85 velocity=72 time=0
note_on channel=0 note=85 velocity=0 time=120
note_on channel=0 note=83 velocity=71 time=0
note_on channel=0 note=83 velocity=0 time=0
note_on channel=0 note=82 velocity=66 time=0
note_on channel=0 note=82 velocity=0 time=0
note_on channel=0 note=79 velocity=0 time=0
note_on channel=0 note=75 velocity=0 time=0
note_on channel=0 note=68 velocity=45 time=0
note_on channel=0 note=71 velocity=45 time=0
note_on channel=0 note=80 velocity=42 time=34
note_on channel=0 note=80 velocity=0 time=0
note_on channel=0 note=83 velocity=45 time=0
note_on channel=0 note=83 velocity=0 time=120
note_on channel=0 note=87 velocity=47 time=0
note_on channel=0 note=87 velocity=0 time=120
note_on channel=0 note=92 velocity=49 time=0
note_on channel=0 note=92 velocity=0 time=120
note_on channel=0 note=80 velocity=45 time=0
note_on channel=0 note=80 velocity=0 time=0
note_on channel=0 note=71 velocity=0 time=0
note_on channel=0 note=68 velocity=0 time=0
note_on channel=0 note=73 velocity=44 time=0
note_on channel=0 note=76 velocity=44 time=0
note_on channel=0 note=92 velocity=49 time=120
note_on channel=0 note=92 velocity=0 time=120
note_on channel=0 note=80 velocity=45 time=0
note_on channel=0 note=80 velocity=0 time=120
note_on channel=0 note=92 velocity=49 time=0
note_on channel=0 note=92 velocity=0 time=0
note_on channel=0 note=76 velocity=0 time=0
note_on channel=0 note=73 velocity=0 time=0
note_on channel=0 note=71 velocity=45 time=0
note_on channel=0 note=75 velocity=45 time=0
note_on channel=0 note=92 velocity=48 time=120
note_on channel=0 note=92 velocity=0 time=120
note_on channel=0 note=80 velocity=45 time=0
note_on channel=0 note=80 velocity=0 time=120
note_on channel=0 note=92 velocity=48 time=0
note_on channel=0 note=92 velocity=0 time=0
note_on channel=0 note=75 velocity=0 time=0
note_on channel=0 note=71 velocity=0 time=0
note_on channel=0 note=75 velocity=60 time=0
note_on channel=0 note=70 velocity=60 time=0
note_on channel=0 note=73 velocity=60 time=0
note_on channel=0 note=91 velocity=48 time=120
note_on channel=0 note=91 velocity=0 time=120
note_on channel=0 note=79 velocity=45 time=0
note_on channel=0 note=79 velocity=0 time=120
note_on channel=0 note=91 velocity=49 time=0
note_on channel=0 note=91 velocity=0 time=0
note_on channel=0 note=75 velocity=0 time=0
note_on channel=0 note=70 velocity=0 time=0
note_on channel=0 note=73 velocity=0 time=0
note_on channel=0 note=68 velocity=45 time=0
note_on channel=0 note=71 velocity=45 time=0
note_on channel=0 note=80 velocity=42 time=23
note_on channel=0 note=80 velocity=0 time=0
note_on channel=0 note=83 velocity=45 time=0
note_on channel=0 note=83 velocity=0 time=120
note_on channel=0 note=87 velocity=47 time=0
note_on channel=0 note=87 velocity=0 time=120
note_on channel=0 note=92 velocity=49 time=0
note_on channel=0 note=92 velocity=0 time=120
note_on channel=0 note=80 velocity=45 time=0
note_on channel=0 note=80 velocity=0 time=0
note_on channel=0 note=71 velocity=0 time=0
note_on channel=0 note=68 velocity=0 time=0
note_on channel=0 note=61 velocity=44 time=0
note_on channel=0 note=64 velocity=44 time=0
note_on channel=0 note=80 velocity=49 time=120
note_on channel=0 note=80 velocity=0 time=120
note_on channel=0 note=68 velocity=45 time=0
note_on channel=0 note=68 velocity=0 time=120
note_on channel=0 note=80 velocity=49 time=0
note_on channel=0 note=80 velocity=0 time=0
note_on channel=0 note=64 velocity=0 time=0
note_on channel=0 note=61 velocity=0 time=0
note_on channel=0 note=59 velocity=45 time=0
note_on channel=0 note=63 velocity=45 time=0
note_on channel=0 note=80 velocity=48 time=120
note_on channel=0 note=80 velocity=0 time=120
note_on channel=0 note=68 velocity=45 time=0
note_on channel=0 note=68 velocity=0 time=120
note_on channel=0 note=80 velocity=48 time=0
note_on channel=0 note=80 velocity=0 time=0
note_on channel=0 note=63 velocity=0 time=0
note_on channel=0 note=59 velocity=0 time=0
note_on channel=0 note=58 velocity=60 time=0
note_on channel=0 note=61 velocity=60 time=0
note_on channel=0 note=63 velocity=60 time=0
note_on channel=0 note=79 velocity=48 time=120
note_on channel=0 note=79 velocity=0 time=120
note_on channel=0 note=67 velocity=45 time=0
note_on channel=0 note=67 velocity=0 time=120
note_on channel=0 note=79 velocity=49 time=0
note_on channel=0 note=79 velocity=0 time=0
note_on channel=0 note=58 velocity=0 time=0
note_on channel=0 note=61 velocity=0 time=0
note_on channel=0 note=63 velocity=0 time=0
note_on channel=0 note=59 velocity=45 time=0
note_on channel=0 note=56 velocity=45 time=0
note_on channel=0 note=80 velocity=42 time=40
note_on channel=0 note=80 velocity=0 time=0
note_on channel=0 note=83 velocity=45 time=0
note_on channel=0 note=83 velocity=0 time=120
note_on channel=0 note=87 velocity=47 time=0
note_on channel=0 note=87 velocity=0 time=120
note_on channel=0 note=92 velocity=49 time=0
note_on channel=0 note=92 velocity=0 time=120
note_on channel=0 note=80 velocity=45 time=0
note_on channel=0 note=80 velocity=0 time=0
note_on channel=0 note=56 velocity=0 time=0
note_on channel=0 note=59 velocity=0 time=0
note_on channel=0 note=52 velocity=44 time=0
note_on channel=0 note=49 velocity=44 time=0
note_on channel=0 note=92 velocity=49 time=120
note_on channel=0 note=92 velocity=0 time=120
note_on channel=0 note=80 velocity=45 time=0
note_on channel=0 note=80 velocity=0 time=120
note_on channel=0 note=92 velocity=49 time=0
note_on channel=0 note=92 velocity=0 time=0
note_on channel=0 note=49 velocity=0 time=0
note_on channel=0 note=52 velocity=0 time=0
note_on channel=0 note=51 velocity=45 time=0
note_on channel=0 note=47 velocity=45 time=0
note_on channel=0 note=92 velocity=48 time=120
note_on channel=0 note=92 velocity=0 time=120
note_on channel=0 note=80 velocity=45 time=0
note_on channel=0 note=80 velocity=0 time=120
note_on channel=0 note=92 velocity=48 time=0
note_on channel=0 note=92 velocity=0 time=0
note_on channel=0 note=47 velocity=0 time=0
note_on channel=0 note=51 velocity=0 time=0
note_on channel=0 note=51 velocity=60 time=0
note_on channel=0 note=49 velocity=60 time=0
note_on channel=0 note=46 velocity=60 time=0
note_on channel=0 note=91 velocity=48 time=120
note_on channel=0 note=91 velocity=0 time=0
note_on channel=0 note=79 velocity=45 time=0
note_on channel=0 note=79 velocity=0 time=120
note_on channel=0 note=91 velocity=49 time=0
note_on channel=0 note=91 velocity=0 time=0
note_on channel=0 note=51 velocity=0 time=0
note_on channel=0 note=49 velocity=0 time=0
note_on channel=0 note=46 velocity=0 time=0
note_on channel=0 note=92 velocity=48 time=0
note_on channel=0 note=44 velocity=48 time=0
note_on channel=0 note=92 velocity=0 time=40
note_on channel=0 note=87 velocity=45 time=0
note_on channel=0 note=87 velocity=0 time=80
note_on channel=0 note=83 velocity=44 time=0
note_on channel=0 note=83 velocity=0 time=80
note_on channel=0 note=87 velocity=39 time=0
note_on channel=0 note=87 velocity=0 time=80
note_on channel=0 note=92 velocity=42 time=0
note_on channel=0 note=92 velocity=0 time=80
note_on channel=0 note=87 velocity=39 time=0
note_on channel=0 note=87 velocity=0 time=80
note_on channel=0 note=83 velocity=46 time=0
note_on channel=0 note=83 velocity=0 time=80
note_on channel=0 note=87 velocity=41 time=0
note_on channel=0 note=87 velocity=0 time=0
note_on channel=0 note=92 velocity=41 time=0
note_on channel=0 note=92 velocity=0 time=120
note_on channel=0 note=87 velocity=37 time=0
note_on channel=0 note=87 velocity=0 time=0
note_on channel=0 note=83 velocity=40 time=0
note_on channel=0 note=83 velocity=0 time=120
note_on channel=0 note=87 velocity=36 time=0
note_on channel=0 note=87 velocity=0 time=20
note_on channel=0 note=44 velocity=0 time=0
note_on channel=0 note=92 velocity=42 time=0
note_on channel=0 note=39 velocity=38 time=0
note_on channel=0 note=92 velocity=0 time=20
note_on channel=0 note=87 velocity=39 time=0
note_on channel=0 note=87 velocity=0 time=20
note_on channel=0 note=83 velocity=39 time=0
note_on channel=0 note=83 velocity=0 time=20
note_on channel=0 note=87 velocity=35 time=0
note_on channel=0 note=87 velocity=0 time=20
note_on channel=0 note=92 velocity=38 time=0
note_on channel=0 note=92 velocity=0 time=20
note_on channel=0 note=87 velocity=34 time=0
note_on channel=0 note=87 velocity=0 time=20
note_on channel=0 note=39 velocity=0 time=0
note_on channel=0 note=92 velocity=39 time=0
note_on channel=0 note=35 velocity=30 time=0
note_on channel=0 note=92 velocity=0 time=20
note_on channel=0 note=87 velocity=35 time=0
note_on channel=0 note=87 velocity=0 time=20
note_on channel=0 note=92 velocity=37 time=0
note_on channel=0 note=92 velocity=0 time=20
note_on channel=0 note=87 velocity=31 time=0
note_on channel=0 note=87 velocity=0 time=0
note_on channel=0 note=92 velocity=36 time=0
note_on channel=0 note=92 velocity=0 time=0
note_on channel=0 note=87 velocity=30 time=0
note_on channel=0 note=87 velocity=0 time=0
note_on channel=0 note=35 velocity=0 time=0
note_on channel=0 note=92 velocity=33 time=0
note_on channel=0 note=32 velocity=27 time=0
note_on channel=0 note=32 velocity=0 time=0
note_on channel=0 note=92 velocity=0 time=0
note_on channel=0 note=59 velocity=35 time=0
note_on channel=0 note=47 velocity=27 time=0
note_on channel=0 note=47 velocity=0 time=0
note_on channel=0 note=59 velocity=0 time=0
note_on channel=0 note=56 velocity=31 time=0
note_on channel=0 note=44 velocity=25 time=0
note_on channel=0 note=44 velocity=0 time=0
note_on channel=0 note=56 velocity=0 time=0
note_on channel=0 note=51 velocity=28 time=0
note_on channel=0 note=39 velocity=22 time=0
note_on channel=0 note=39 velocity=0 time=2160
note_on channel=0 note=51 velocity=0 time=0
note_on channel=0 note=59 velocity=35 time=0
note_on channel=0 note=47 velocity=27 time=0
note_on channel=0 note=47 velocity=0 time=0
note_on channel=0 note=59 velocity=0 time=0
note_on channel=0 note=56 velocity=31 time=0
note_on channel=0 note=44 velocity=25 time=0
note_on channel=0 note=44 velocity=0 time=0
note_on channel=0 note=56 velocity=0 time=0
note_on channel=0 note=52 velocity=28 time=0
note_on channel=0 note=40 velocity=22 time=0
note_on channel=0 note=40 velocity=0 time=720
note_on channel=0 note=52 velocity=0 time=0
note_on channel=0 note=56 velocity=35 time=0
note_on channel=0 note=44 velocity=27 time=0
note_on channel=0 note=44 velocity=0 time=0
note_on channel=0 note=56 velocity=0 time=0
note_on channel=0 note=59 velocity=30 time=0
note_on channel=0 note=47 velocity=24 time=0
note_on channel=0 note=47 velocity=0 time=0
note_on channel=0 note=59 velocity=0 time=0
note_on channel=0 note=64 velocity=35 time=0
note_on channel=0 note=52 velocity=27 time=0
note_on channel=0 note=52 velocity=0 time=0
note_on channel=0 note=64 velocity=0 time=0
note_on channel=0 note=68 velocity=36 time=0
note_on channel=0 note=56 velocity=28 time=0
note_on channel=0 note=56 velocity=0 time=0
note_on channel=0 note=68 velocity=0 time=0
note_on channel=0 note=71 velocity=31 time=0
note_on channel=0 note=59 velocity=25 time=0
note_on channel=0 note=59 velocity=0 time=0
note_on channel=0 note=71 velocity=0 time=0
note_on channel=0 note=76 velocity=36 time=0
note_on channel=0 note=64 velocity=28 time=0
note_on channel=0 note=64 velocity=0 time=235
note_on channel=0 note=76 velocity=0 time=0
note_on channel=0 note=64 velocity=34 time=0
note_on channel=0 note=52 velocity=27 time=0
note_on channel=0 note=52 velocity=0 time=720
note_on channel=0 note=64 velocity=0 time=0
note_on channel=0 note=71 velocity=35 time=0
note_on channel=0 note=54 velocity=26 time=0
note_on channel=0 note=51 velocity=26 time=0
note_on channel=0 note=59 velocity=26 time=0
note_on channel=0 note=71 velocity=0 time=0
note_on channel=0 note=73 velocity=33 time=0
note_on channel=0 note=73 velocity=0 time=180
note_on channel=0 note=71 velocity=34 time=0
note_on channel=0 note=71 velocity=0 time=20
note_on channel=0 note=54 velocity=0 time=0
note_on channel=0 note=51 velocity=0 time=0
note_on channel=0 note=59 velocity=0 time=0
note_on channel=0 note=73 velocity=31 time=0
note_on channel=0 note=52 velocity=26 time=0
note_on channel=0 note=58 velocity=26 time=0
note_on channel=0 note=55 velocity=26 time=0
note_on channel=0 note=73 velocity=0 time=8
note_on channel=0 note=75 velocity=27 time=0
note_on channel=0 note=75 velocity=0 time=20
note_on channel=0 note=73 velocity=31 time=0
note_on channel=0 note=73 velocity=0 time=20
note_on channel=0 note=75 velocity=27 time=0
note_on channel=0 note=75 velocity=0 time=20
note_on channel=0 note=73 velocity=31 time=0
note_on channel=0 note=73 velocity=0 time=20
note_on channel=0 note=75 velocity=28 time=0
note_on channel=0 note=75 velocity=0 time=0
note_on channel=0 note=73 velocity=31 time=0
note_on channel=0 note=73 velocity=0 time=0
note_on channel=0 note=75 velocity=27 time=0
note_on channel=0 note=75 velocity=0 time=0
note_on channel=0 note=73 velocity=31 time=0
note_on channel=0 note=73 velocity=0 time=0
note_on channel=0 note=75 velocity=28 time=0
note_on channel=0 note=75 velocity=0 time=0
note_on channel=0 note=73 velocity=26 time=0
note_on channel=0 note=73 velocity=0 time=0
note_on channel=0 note=75 velocity=31 time=0
note_on channel=0 note=75 velocity=0 time=0
note_on channel=0 note=73 velocity=26 time=0
note_on channel=0 note=73 velocity=0 time=0
note_on channel=0 note=71 velocity=30 time=0
note_on channel=0 note=71 velocity=0 time=120
note_on channel=0 note=75 velocity=35 time=0
note_on channel=0 note=75 velocity=0 time=0
note_on channel=0 note=73 velocity=31 time=0
note_on channel=0 note=73 velocity=0 time=0
note_on channel=0 note=55 velocity=0 time=0
note_on channel=0 note=58 velocity=0 time=0
note_on channel=0 note=52 velocity=0 time=0
note_on channel=0 note=71 velocity=35 time=0
note_on channel=0 note=54 velocity=22 time=0
note_on channel=0 note=51 velocity=19 time=0
note_on channel=0 note=59 velocity=26 time=0
note_on channel=0 note=59 velocity=0 time=463
note_on channel=0 note=71 velocity=0 time=0
note_on channel=0 note=54 velocity=0 time=0
note_on channel=0 note=51 velocity=0 time=0
note_on channel=0 note=78 velocity=35 time=0
note_on channel=0 note=73 velocity=26 time=0
note_on channel=0 note=69 velocity=26 time=0
note_on channel=0 note=78 velocity=0 time=0
note_on channel=0 note=80 velocity=35 time=0
note_on channel=0 note=80 velocity=0 time=0
note_on channel=0 note=69 velocity=0 time=0
note_on channel=0 note=73 velocity=0 time=0
note_on channel=0 note=77 velocity=35 time=0
note_on channel=0 note=80 velocity=44 time=0
note_on channel=0 note=71 velocity=28 time=0
note_on channel=0 note=74 velocity=28 time=0
note_on channel=0 note=80 velocity=0 time=0
note_on channel=0 note=81 velocity=35 time=0
note_on channel=0 note=81 velocity=0 time=0
note_on channel=0 note=80 velocity=40 time=0
note_on channel=0 note=80 velocity=0 time=0
note_on channel=0 note=81 velocity=36 time=0
note_on channel=0 note=81 velocity=0 time=0
note_on channel=0 note=80 velocity=39 time=0
note_on channel=0 note=80 velocity=0 time=0
note_on channel=0 note=81 velocity=36 time=0
note_on channel=0 note=81 velocity=0 time=0
note_on channel=0 note=80 velocity=38 time=0
note_on channel=0 note=80 velocity=0 time=0
note_on channel=0 note=81 velocity=34 time=0
note_on channel=0 note=81 velocity=0 time=0
note_on channel=0 note=80 velocity=37 time=0
note_on channel=0 note=80 velocity=0 time=0
note_on channel=0 note=81 velocity=35 time=0
note_on channel=0 note=81 velocity=0 time=0
note_on channel=0 note=80 velocity=31 time=0
note_on channel=0 note=80 velocity=0 time=0
note_on channel=0 note=81 velocity=36 time=0
note_on channel=0 note=81 velocity=0 time=0
note_on channel=0 note=80 velocity=33 time=0
note_on channel=0 note=80 velocity=0 time=0
note_on channel=0 note=78 velocity=33 time=0
note_on channel=0 note=78 velocity=0 time=120
note_on channel=0 note=81 velocity=37 time=0
note_on channel=0 note=81 velocity=0 time=0
note_on channel=0 note=80 velocity=33 time=0
note_on channel=0 note=80 velocity=0 time=0
note_on channel=0 note=74 velocity=0 time=0
note_on channel=0 note=71 velocity=0 time=0
note_on channel=0 note=77 velocity=0 time=0
note_on channel=0 note=78 velocity=35 time=0
note_on channel=0 note=69 velocity=22 time=0
note_on channel=0 note=73 velocity=26 time=0
note_on channel=0 note=73 velocity=0 time=473
note_on channel=0 note=69 velocity=0 time=0
note_on channel=0 note=78 velocity=0 time=0
note_on channel=0 note=64 velocity=35 time=0
note_on channel=0 note=59 velocity=26 time=0
note_on channel=0 note=56 velocity=26 time=0
note_on channel=0 note=64 velocity=0 time=0
note_on channel=0 note=66 velocity=35 time=0
note_on channel=0 note=66 velocity=0 time=0
note_on channel=0 note=56 velocity=0 time=0
note_on channel=0 note=59 velocity=0 time=0
note_on channel=0 note=63 velocity=35 time=0
note_on channel=0 note=66 velocity=44 time=0
note_on channel=0 note=57 velocity=28 time=0
note_on channel=0 note=60 velocity=28 time=0
note_on channel=0 note=66 velocity=0 time=0
note_on channel=0 note=68 velocity=35 time=0
note_on channel=0 note=68 velocity=0 time=0
note_on channel=0 note=66 velocity=40 time=0
note_on channel=0 note=66 velocity=0 time=0
note_on channel=0 note=68 velocity=36 time=0
note_on channel=0 note=68 velocity=0 time=0
note_on channel=0 note=66 velocity=39 time=0
note_on channel=0 note=66 velocity=0 time=0
note_on channel=0 note=68 velocity=36 time=0
note_on channel=0 note=68 velocity=0 time=0
note_on channel=0 note=66 velocity=39 time=0
note_on channel=0 note=66 velocity=0 time=40
note_on channel=0 note=68 velocity=35 time=0
note_on channel=0 note=68 velocity=0 time=40
note_on channel=0 note=66 velocity=39 time=0
note_on channel=0 note=66 velocity=0 time=40
note_on channel=0 note=68 velocity=35 time=0
note_on channel=0 note=68 velocity=0 time=40
note_on channel=0 note=66 velocity=31 time=0
note_on channel=0 note=66 velocity=0 time=40
note_on channel=0 note=68 velocity=36 time=0
note_on channel=0 note=68 velocity=0 time=0
note_on channel=0 note=66 velocity=33 time=0
note_on channel=0 note=66 velocity=0 time=0
note_on channel=0 note=64 velocity=33 time=0
note_on channel=0 note=64 velocity=0 time=120
note_on channel=0 note=68 velocity=37 time=0
note_on channel=0 note=68 velocity=0 time=0
note_on channel=0 note=66 velocity=33 time=0
note_on channel=0 note=66 velocity=0 time=0
note_on channel=0 note=60 velocity=0 time=0
note_on channel=0 note=57 velocity=0 time=0
note_on channel=0 note=63 velocity=0 time=0
note_on channel=0 note=64 velocity=35 time=0
note_on channel=0 note=56 velocity=22 time=0
note_on channel=0 note=59 velocity=26 time=0
note_on channel=0 note=59 velocity=0 time=0
note_on channel=0 note=56 velocity=0 time=0
note_on channel=0 note=64 velocity=0 time=0
note_on channel=0 note=57 velocity=45 time=0
note_on channel=0 note=61 velocity=45 time=0
note_on channel=0 note=69 velocity=53 time=0
note_on channel=0 note=42 velocity=44 time=0
note_on channel=0 note=42 velocity=0 time=1257
note_on channel=0 note=57 velocity=0 time=0
note_on channel=0 note=61 velocity=0 time=0
note_on channel=0 note=69 velocity=0 time=0
note_on channel=0 note=57 velocity=36 time=0
note_on channel=0 note=61 velocity=36 time=0
note_on channel=0 note=66 velocity=44 time=0
note_on channel=0 note=45 velocity=40 time=0
note_on channel=0 note=66 velocity=0 time=120
note_on channel=0 note=68 velocity=39 time=0
note_on channel=0 note=68 velocity=0 time=0
note_on channel=0 note=45 velocity=0 time=0
note_on channel=0 note=61 velocity=0 time=0
note_on channel=0 note=57 velocity=0 time=0
note_on channel=0 note=64 velocity=42 time=0
note_on channel=0 note=56 velocity=35 time=0
note_on channel=0 note=59 velocity=35 time=0
note_on channel=0 note=47 velocity=35 time=0
note_on channel=0 note=47 velocity=0 time=1160
note_on channel=0 note=64 velocity=0 time=0
note_on channel=0 note=56 velocity=0 time=0
note_on channel=0 note=59 velocity=0 time=0
note_on channel=0 note=63 velocity=36 time=0
note_on channel=0 note=57 velocity=30 time=0
note_on channel=0 note=54 velocity=30 time=0
note_on channel=0 note=35 velocity=30 time=0
note_on channel=0 note=35 velocity=0 time=0
note_on channel=0 note=63 velocity=0 time=0
note_on channel=0 note=57 velocity=0 time=0
note_on channel=0 note=54 velocity=0 time=0
note_on channel=0 note=76 velocity=35 time=0
note_on channel=0 note=71 velocity=26 time=0
note_on channel=0 note=68 velocity=26 time=0
note_on channel=0 note=76 velocity=0 time=0
note_on channel=0 note=78 velocity=35 time=0
note_on channel=0 note=78 velocity=0 time=0
note_on channel=0 note=68 velocity=0 time=0
note_on channel=0 note=71 velocity=0 time=0
note_on channel=0 note=78 velocity=36 time=0
note_on channel=0 note=75 velocity=29 time=0
note_on channel=0 note=69 velocity=28 time=0
note_on channel=0 note=72 velocity=28 time=0
note_on channel=0 note=78 velocity=0 time=0
note_on channel=0 note=80 velocity=33 time=0
note_on channel=0 note=80 velocity=0 time=0
note_on channel=0 note=78 velocity=36 time=0
note_on channel=0 note=78 velocity=0 time=40
note_on channel=0 note=80 velocity=34 time=0
note_on channel=0 note=80 velocity=0 time=0
note_on channel=0 note=78 velocity=36 time=0
note_on channel=0 note=78 velocity=0 time=0
note_on channel=0 note=80 velocity=34 time=0
note_on channel=0 note=80 velocity=0 time=40
note_on channel=0 note=78 velocity=36 time=0
note_on channel=0 note=78 velocity=0 time=40
note_on channel=0 note=80 velocity=32 time=0
note_on channel=0 note=80 velocity=0 time=0
note_on channel=0 note=78 velocity=36 time=0
note_on channel=0 note=78 velocity=0 time=0
note_on channel=0 note=80 velocity=33 time=0
note_on channel=0 note=80 velocity=0 time=0
note_on channel=0 note=78 velocity=30 time=0
note_on channel=0 note=78 velocity=0 time=40
note_on channel=0 note=80 velocity=34 time=0
note_on channel=0 note=80 velocity=0 time=0
note_on channel=0 note=78 velocity=31 time=0
note_on channel=0 note=78 velocity=0 time=0
note_on channel=0 note=76 velocity=33 time=0
note_on channel=0 note=76 velocity=0 time=120
note_on channel=0 note=80 velocity=37 time=0
note_on channel=0 note=80 velocity=0 time=0
note_on channel=0 note=78 velocity=33 time=0
note_on channel=0 note=78 velocity=0 time=0
note_on channel=0 note=72 velocity=0 time=0
note_on channel=0 note=69 velocity=0 time=0
note_on channel=0 note=75 velocity=0 time=0
note_on channel=0 note=76 velocity=35 time=0
note_on channel=0 note=68 velocity=22 time=0
note_on channel=0 note=71 velocity=26 time=0
note_on channel=0 note=71 velocity=0 time=0
note_on channel=0 note=68 velocity=0 time=0
note_on channel=0 note=76 velocity=0 time=0
note_on channel=0 note=69 velocity=45 time=0
note_on channel=0 note=73 velocity=45 time=0
note_on channel=0 note=81 velocity=53 time=0
note_on channel=0 note=66 velocity=44 time=0
note_on channel=0 note=54 velocity=38 time=0
note_on channel=0 note=54 velocity=0 time=1228
note_on channel=0 note=81 velocity=0 time=0
note_on channel=0 note=69 velocity=0 time=0
note_on channel=0 note=73 velocity=0 time=0
note_on channel=0 note=66 velocity=0 time=0
note_on channel=0 note=69 velocity=36 time=0
note_on channel=0 note=73 velocity=36 time=0
note_on channel=0 note=78 velocity=44 time=0
note_on channel=0 note=57 velocity=40 time=0
note_on channel=0 note=78 velocity=0 time=120
note_on channel=0 note=80 velocity=39 time=0
note_on channel=0 note=80 velocity=0 time=0
note_on channel=0 note=57 velocity=0 time=0
note_on channel=0 note=73 velocity=0 time=0
note_on channel=0 note=69 velocity=0 time=0
note_on channel=0 note=68 velocity=35 time=0
note_on channel=0 note=76 velocity=42 time=0
note_on channel=0 note=71 velocity=35 time=0
note_on channel=0 note=59 velocity=35 time=0
note_on channel=0 note=59 velocity=0 time=1207
note_on channel=0 note=68 velocity=0 time=0
note_on channel=0 note=76 velocity=0 time=0
note_on channel=0 note=71 velocity=0 time=0
note_on channel=0 note=75 velocity=36 time=0
note_on channel=0 note=69 velocity=30 time=0
note_on channel=0 note=66 velocity=30 time=0
note_on channel=0 note=47 velocity=30 time=0
note_on channel=0 note=47 velocity=0 time=310
note_on channel=0 note=75 velocity=0 time=0
note_on channel=0 note=69 velocity=0 time=0
note_on channel=0 note=66 velocity=0 time=0
note_on channel=0 note=47 velocity=83 time=0
note_on channel=0 note=47 velocity=0 time=0
note_on channel=0 note=43 velocity=75 time=0
note_on channel=0 note=43 velocity=0 time=0
note_on channel=0 note=71 velocity=70 time=0
note_on channel=0 note=40 velocity=80 time=0
note_on channel=0 note=71 velocity=0 time=68
note_on channel=0 note=67 velocity=61 time=0
note_on channel=0 note=67 velocity=0 time=0
note_on channel=0 note=71 velocity=70 time=0
note_on channel=0 note=71 velocity=0 time=0
note_on channel=0 note=67 velocity=60 time=0
note_on channel=0 note=67 velocity=0 time=0
note_on channel=0 note=71 velocity=70 time=0
note_on channel=0 note=71 velocity=0 time=0
note_on channel=0 note=67 velocity=61 time=0
note_on channel=0 note=67 velocity=0 time=0
note_on channel=0 note=71 velocity=70 time=0
note_on channel=0 note=71 velocity=0 time=16
note_on channel=0 note=67 velocity=60 time=0
note_on channel=0 note=67 velocity=0 time=16
note_on channel=0 note=71 velocity=70 time=0
note_on channel=0 note=71 velocity=0 time=0
note_on channel=0 note=67 velocity=60 time=0
note_on channel=0 note=67 velocity=0 time=0
note_on channel=0 note=71 velocity=70 time=0
note_on channel=0 note=71 velocity=0 time=0
note_on channel=0 note=67 velocity=59 time=0
note_on channel=0 note=67 velocity=0 time=16
note_on channel=0 note=71 velocity=70 time=0
note_on channel=0 note=71 velocity=0 time=0
note_on channel=0 note=67 velocity=61 time=0
note_on channel=0 note=67 velocity=0 time=68
note_on channel=0 note=71 velocity=70 time=0
note_on channel=0 note=71 velocity=0 time=0
note_on channel=0 note=67 velocity=60 time=0
note_on channel=0 note=67 velocity=0 time=16
note_on channel=0 note=71 velocity=70 time=0
note_on channel=0 note=71 velocity=0 time=16
note_on channel=0 note=67 velocity=61 time=0
note_on channel=0 note=67 velocity=0 time=28
note_on channel=0 note=40 velocity=0 time=0
note_on channel=0 note=71 velocity=70 time=0
note_on channel=0 note=43 velocity=81 time=0
note_on channel=0 note=71 velocity=0 time=28
note_on channel=0 note=67 velocity=60 time=0
note_on channel=0 note=67 velocity=0 time=0
note_on channel=0 note=71 velocity=70 time=0
note_on channel=0 note=71 velocity=0 time=120
note_on channel=0 note=67 velocity=60 time=0
note_on channel=0 note=67 velocity=0 time=120
note_on channel=0 note=71 velocity=70 time=0
note_on channel=0 note=71 velocity=0 time=0
note_on channel=0 note=43 velocity=0 time=0
note_on channel=0 note=67 velocity=59 time=0
note_on channel=0 note=47 velocity=73 time=0
note_on channel=0 note=47 velocity=0 time=0
note_on channel=0 note=67 velocity=0 time=0
note_on channel=0 note=71 velocity=70 time=0
note_on channel=0 note=52 velocity=81 time=0
note_on channel=0 note=71 velocity=0 time=0
note_on channel=0 note=67 velocity=61 time=0
note_on channel=0 note=67 velocity=0 time=0
note_on channel=0 note=71 velocity=70 time=0
note_on channel=0 note=71 velocity=0 time=0
note_on channel=0 note=67 velocity=60 time=0
note_on channel=0 note=67 velocity=0 time=0
note_on channel=0 note=71 velocity=70 time=0
note_on channel=0 note=71 velocity=0 time=0
note_on channel=0 note=67 velocity=61 time=0
note_on channel=0 note=67 velocity=0 time=0
note_on channel=0 note=52 velocity=0 time=0
note_on channel=0 note=71 velocity=70 time=0
note_on channel=0 note=55 velocity=83 time=0
note_on channel=0 note=71 velocity=0 time=120
note_on channel=0 note=67 velocity=60 time=0
note_on channel=0 note=67 velocity=0 time=0
note_on channel=0 note=71 velocity=70 time=0
note_on channel=0 note=71 velocity=0 time=16
note_on channel=0 note=67 velocity=60 time=0
note_on channel=0 note=67 velocity=0 time=28
note_on channel=0 note=71 velocity=70 time=0
note_on channel=0 note=71 velocity=0 time=0
note_on channel=0 note=55 velocity=0 time=0
note_on channel=0 note=67 velocity=59 time=0
note_on channel=0 note=59 velocity=73 time=0
note_on channel=0 note=59 velocity=0 time=0
note_on channel=0 note=67 velocity=0 time=0
note_on channel=0 note=71 velocity=70 time=0
note_on channel=0 note=64 velocity=82 time=0
note_on channel=0 note=71 velocity=0 time=120
note_on channel=0 note=67 velocity=61 time=0
note_on channel=0 note=67 velocity=0 time=120
note_on channel=0 note=71 velocity=70 time=0
note_on channel=0 note=71 velocity=0 time=120
note_on channel=0 note=67 velocity=60 time=0
note_on channel=0 note=67 velocity=0 time=120
note_on channel=0 note=71 velocity=70 time=0
note_on channel=0 note=71 velocity=0 time=120
note_on channel=0 note=67 velocity=61 time=0
note_on channel=0 note=67 velocity=0 time=0
note_on channel=0 note=64 velocity=0 time=0
note_on channel=0 note=71 velocity=70 time=0
note_on channel=0 note=64 velocity=79 time=0
note_on channel=0 note=71 velocity=0 time=120
note_on channel=0 note=67 velocity=60 time=0
note_on channel=0 note=67 velocity=0 time=120
note_on channel=0 note=71 velocity=70 time=0
note_on channel=0 note=71 velocity=0 time=120
note_on channel=0 note=67 velocity=60 time=0
note_on channel=0 note=67 velocity=0 time=0
note_on channel=0 note=71 velocity=70 time=0
note_on channel=0 note=71 velocity=0 time=120
note_on channel=0 note=67 velocity=59 time=0
note_on channel=0 note=67 velocity=0 time=0
note_on channel=0 note=64 velocity=0 time=0
note_on channel=0 note=65 velocity=83 time=0
note_on channel=0 note=65 velocity=0 time=98
note_on channel=0 note=67 velocity=67 time=0
note_on channel=0 note=67 velocity=0 time=144
note_on channel=0 note=71 velocity=70 time=0
note_on channel=0 note=71 velocity=0 time=144
note_on channel=0 note=67 velocity=68 time=0
note_on channel=0 note=67 velocity=0 time=56
note_on channel=0 note=65 velocity=68 time=0
note_on channel=0 note=65 velocity=0 time=0
note_on channel=0 note=62 velocity=81 time=0
note_on channel=0 note=62 velocity=0 time=80
note_on channel=0 note=65 velocity=67 time=0
note_on channel=0 note=65 velocity=0 time=144
note_on channel=0 note=67 velocity=70 time=0
note_on channel=0 note=67 velocity=0 time=144
note_on channel=0 note=65 velocity=68 time=0
note_on channel=0 note=65 velocity=0 time=96
note_on channel=0 note=62 velocity=68 time=0
note_on channel=0 note=62 velocity=0 time=0
note_on channel=0 note=59 velocity=77 time=0
note_on channel=0 note=59 velocity=0 time=84
note_on channel=0 note=62 velocity=62 time=0
note_on channel=0 note=62 velocity=0 time=144
note_on channel=0 note=65 velocity=67 time=0
note_on channel=0 note=65 velocity=0 time=144
note_on channel=0 note=62 velocity=63 time=0
note_on channel=0 note=62 velocity=0 time=144
note_on channel=0 note=59 velocity=63 time=0
note_on channel=0 note=59 velocity=0 time=144
note_on channel=0 note=71 velocity=89 time=0
note_on channel=0 note=55 velocity=70 time=0
note_on channel=0 note=55 velocity=0 time=73
note_on channel=0 note=59 velocity=59 time=0
note_on channel=0 note=59 velocity=0 time=144
note_on channel=0 note=62 velocity=62 time=0
note_on channel=0 note=62 velocity=0 time=144
note_on channel=0 note=59 velocity=60 time=0
note_on channel=0 note=59 velocity=0 time=144
note_on channel=0 note=55 velocity=60 time=0
note_on channel=0 note=71 velocity=0 time=0
note_on channel=0 note=74 velocity=80 time=0
note_on channel=0 note=74 velocity=0 time=0
note_on channel=0 note=55 velocity=0 time=0
note_on channel=0 note=79 velocity=89 time=0
note_on channel=0 note=53 velocity=70 time=0
note_on channel=0 note=53 velocity=0 time=0
note_on channel=0 note=55 velocity=59 time=0
note_on channel=0 note=55 velocity=0 time=8
note_on channel=0 note=59 velocity=62 time=0
note_on channel=0 note=59 velocity=0 time=32
note_on channel=0 note=55 velocity=60 time=0
note_on channel=0 note=55 velocity=0 time=16
note_on channel=0 note=53 velocity=60 time=0
note_on channel=0 note=53 velocity=0 time=0
note_on channel=0 note=79 velocity=0 time=0
note_on channel=0 note=83 velocity=91 time=0
note_on channel=0 note=50 velocity=70 time=0
note_on channel=0 note=50 velocity=0 time=144
note_on channel=0 note=53 velocity=59 time=0
note_on channel=0 note=53 velocity=0 time=36
note_on channel=0 note=55 velocity=62 time=0
note_on channel=0 note=55 velocity=0 time=8
note_on channel=0 note=53 velocity=60 time=0
note_on channel=0 note=53 velocity=0 time=16
note_on channel=0 note=50 velocity=60 time=0
note_on channel=0 note=83 velocity=0 time=0
note_on channel=0 note=86 velocity=80 time=0
note_on channel=0 note=86 velocity=0 time=0
note_on channel=0 note=50 velocity=0 time=0
note_on channel=0 note=79 velocity=82 time=0
note_on channel=0 note=91 velocity=90 time=0
note_on channel=0 note=47 velocity=70 time=0
note_on channel=0 note=47 velocity=0 time=46
note_on channel=0 note=50 velocity=59 time=0
note_on channel=0 note=50 velocity=0 time=120
note_on channel=0 note=53 velocity=60 time=0
note_on channel=0 note=53 velocity=0 time=120
note_on channel=0 note=50 velocity=66 time=0
note_on channel=0 note=50 velocity=0 time=0
note_on channel=0 note=47 velocity=59 time=0
note_on channel=0 note=47 velocity=0 time=120
note_on channel=0 note=43 velocity=60 time=0
note_on channel=0 note=43 velocity=0 time=0
note_on channel=0 note=91 velocity=0 time=0
note_on channel=0 note=79 velocity=0 time=0
note_on channel=0 note=91 velocity=86 time=0
note_on channel=0 note=79 velocity=79 time=0
note_on channel=0 note=41 velocity=70 time=0
note_on channel=0 note=41 velocity=0 time=120
note_on channel=0 note=43 velocity=60 time=0
note_on channel=0 note=43 velocity=0 time=120
note_on channel=0 note=47 velocity=60 time=0
note_on channel=0 note=47 velocity=0 time=120
note_on channel=0 note=43 velocity=66 time=0
note_on channel=0 note=43 velocity=0 time=0
note_on channel=0 note=41 velocity=66 time=0
note_on channel=0 note=41 velocity=0 time=120
note_on channel=0 note=38 velocity=60 time=0
note_on channel=0 note=38 velocity=0 time=120
note_on channel=0 note=79 velocity=0 time=0
note_on channel=0 note=91 velocity=0 time=0
note_on channel=0 note=79 velocity=91 time=0
note_on channel=0 note=91 velocity=91 time=0
note_on channel=0 note=36 velocity=80 time=0
note_on channel=0 note=91 velocity=0 time=84
note_on channel=0 note=79 velocity=0 time=0
note_on channel=0 note=87 velocity=73 time=0
note_on channel=0 note=87 velocity=0 time=144
note_on channel=0 note=91 velocity=77 time=0
note_on channel=0 note=91 velocity=0 time=144
note_on channel=0 note=87 velocity=74 time=0
note_on channel=0 note=87 velocity=0 time=144
note_on channel=0 note=84 velocity=74 time=0
note_on channel=0 note=84 velocity=0 time=0
note_on channel=0 note=79 velocity=91 time=0
note_on channel=0 note=79 velocity=0 time=144
note_on channel=0 note=84 velocity=73 time=0
note_on channel=0 note=84 velocity=0 time=144
note_on channel=0 note=87 velocity=77 time=0
note_on channel=0 note=87 velocity=0 time=144
note_on channel=0 note=84 velocity=74 time=0
note_on channel=0 note=84 velocity=0 time=144
note_on channel=0 note=79 velocity=74 time=0
note_on channel=0 note=79 velocity=0 time=144
note_on channel=0 note=75 velocity=91 time=0
note_on channel=0 note=75 velocity=0 time=144
note_on channel=0 note=79 velocity=73 time=0
note_on channel=0 note=79 velocity=0 time=144
note_on channel=0 note=84 velocity=77 time=0
note_on channel=0 note=84 velocity=0 time=144
note_on channel=0 note=79 velocity=74 time=0
note_on channel=0 note=79 velocity=0 time=144
note_on channel=0 note=75 velocity=74 time=0
note_on channel=0 note=75 velocity=0 time=144
note_on channel=0 note=36 velocity=0 time=0
note_on channel=0 note=72 velocity=91 time=0
note_on channel=0 note=39 velocity=81 time=0
note_on channel=0 note=72 velocity=0 time=73
note_on channel=0 note=75 velocity=73 time=0
note_on channel=0 note=75 velocity=0 time=144
note_on channel=0 note=79 velocity=77 time=0
note_on channel=0 note=79 velocity=0 time=144
note_on channel=0 note=75 velocity=74 time=0
note_on channel=0 note=75 velocity=0 time=144
note_on channel=0 note=72 velocity=74 time=0
note_on channel=0 note=39 velocity=0 time=0
note_on channel=0 note=43 velocity=73 time=0
note_on channel=0 note=43 velocity=0 time=0
note_on channel=0 note=72 velocity=0 time=0
note_on channel=0 note=67 velocity=91 time=0
note_on channel=0 note=48 velocity=81 time=0
note_on channel=0 note=67 velocity=0 time=0
note_on channel=0 note=72 velocity=73 time=0
note_on channel=0 note=72 velocity=0 time=8
note_on channel=0 note=75 velocity=77 time=0
note_on channel=0 note=75 velocity=0 time=32
note_on channel=0 note=72 velocity=74 time=0
note_on channel=0 note=72 velocity=0 time=16
note_on channel=0 note=67 velocity=74 time=0
note_on channel=0 note=67 velocity=0 time=0
note_on channel=0 note=48 velocity=0 time=0
note_on channel=0 note=63 velocity=91 time=0
note_on channel=0 note=51 velocity=83 time=0
note_on channel=0 note=63 velocity=0 time=144
note_on channel=0 note=67 velocity=73 time=0
note_on channel=0 note=67 velocity=0 time=36
note_on channel=0 note=72 velocity=77 time=0
note_on channel=0 note=72 velocity=0 time=8
note_on channel=0 note=67 velocity=74 time=0
note_on channel=0 note=67 velocity=0 time=16
note_on channel=0 note=63 velocity=74 time=0
note_on channel=0 note=51 velocity=0 time=0
note_on channel=0 note=55 velocity=73 time=0
note_on channel=0 note=55 velocity=0 time=0
note_on channel=0 note=63 velocity=0 time=0
note_on channel=0 note=63 velocity=91 time=0
note_on channel=0 note=60 velocity=82 time=0
note_on channel=0 note=63 velocity=0 time=31
note_on channel=0 note=67 velocity=73 time=0
note_on channel=0 note=67 velocity=0 time=144
note_on channel=0 note=72 velocity=77 time=0
note_on channel=0 note=72 velocity=0 time=144
note_on channel=0 note=67 velocity=74 time=0
note_on channel=0 note=67 velocity=0 time=144
note_on channel=0 note=63 velocity=74 time=0
note_on channel=0 note=63 velocity=0 time=0
note_on channel=0 note=60 velocity=0 time=0
note_on channel=0 note=63 velocity=91 time=0
note_on channel=0 note=60 velocity=79 time=0
note_on channel=0 note=63 velocity=0 time=144
note_on channel=0 note=67 velocity=73 time=0
note_on channel=0 note=67 velocity=0 time=144
note_on channel=0 note=72 velocity=77 time=0
note_on channel=0 note=72 velocity=0 time=144
note_on channel=0 note=67 velocity=74 time=0
note_on channel=0 note=67 velocity=0 time=96
note_on channel=0 note=63 velocity=74 time=0
note_on channel=0 note=63 velocity=0 time=0
note_on channel=0 note=60 velocity=0 time=0
note_on channel=0 note=61 velocity=83 time=0
note_on channel=0 note=61 velocity=0 time=80
note_on channel=0 note=63 velocity=67 time=0
note_on channel=0 note=63 velocity=0 time=144
note_on channel=0 note=67 velocity=70 time=0
note_on channel=0 note=67 velocity=0 time=144
note_on channel=0 note=63 velocity=68 time=0
note_on channel=0 note=63 velocity=0 time=96
note_on channel=0 note=61 velocity=68 time=0
note_on channel=0 note=61 velocity=0 time=0
note_on channel=0 note=58 velocity=81 time=0
note_on channel=0 note=58 velocity=0 time=144
note_on channel=0 note=61 velocity=67 time=0
note_on channel=0 note=61 velocity=0 time=144
note_on channel=0 note=63 velocity=70 time=0
note_on channel=0 note=63 velocity=0 time=144
note_on channel=0 note=61 velocity=68 time=0
note_on channel=0 note=61 velocity=0 time=96
note_on channel=0 note=58 velocity=68 time=0
note_on channel=0 note=58 velocity=0 time=0
note_on channel=0 note=55 velocity=77 time=0
note_on channel=0 note=55 velocity=0 time=144
note_on channel=0 note=58 velocity=62 time=0
note_on channel=0 note=58 velocity=0 time=144
note_on channel=0 note=61 velocity=67 time=0
note_on channel=0 note=61 velocity=0 time=144
note_on channel=0 note=58 velocity=63 time=0
note_on channel=0 note=58 velocity=0 time=144
note_on channel=0 note=55 velocity=63 time=0
note_on channel=0 note=55 velocity=0 time=0
note_on channel=0 note=67 velocity=89 time=0
note_on channel=0 note=51 velocity=70 time=0
note_on channel=0 note=51 velocity=0 time=87
note_on channel=0 note=55 velocity=59 time=0
note_on channel=0 note=55 velocity=0 time=144
note_on channel=0 note=58 velocity=62 time=0
note_on channel=0 note=58 velocity=0 time=144
note_on channel=0 note=55 velocity=60 time=0
note_on channel=0 note=55 velocity=0 time=144
note_on channel=0 note=51 velocity=60 time=0
note_on channel=0 note=67 velocity=0 time=0
note_on channel=0 note=70 velocity=80 time=0
note_on channel=0 note=70 velocity=0 time=0
note_on channel=0 note=51 velocity=0 time=0
note_on channel=0 note=75 velocity=89 time=0
note_on channel=0 note=49 velocity=70 time=0
note_on channel=0 note=49 velocity=0 time=0
note_on channel=0 note=51 velocity=59 time=0
note_on channel=0 note=51 velocity=0 time=8
note_on channel=0 note=55 velocity=62 time=0
note_on channel=0 note=55 velocity=0 time=32
note_on channel=0 note=51 velocity=60 time=0
note_on channel=0 note=51 velocity=0 time=16
note_on channel=0 note=49 velocity=60 time=0
note_on channel=0 note=49 velocity=0 time=0
note_on channel=0 note=75 velocity=0 time=0
note_on channel=0 note=79 velocity=91 time=0
note_on channel=0 note=46 velocity=70 time=0
note_on channel=0 note=46 velocity=0 time=144
note_on channel=0 note=49 velocity=59 time=0
note_on channel=0 note=49 velocity=0 time=36
note_on channel=0 note=51 velocity=62 time=0
note_on channel=0 note=51 velocity=0 time=8
note_on channel=0 note=49 velocity=60 time=0
note_on channel=0 note=49 velocity=0 time=16
note_on channel=0 note=46 velocity=60 time=0
note_on channel=0 note=79 velocity=0 time=0
note_on channel=0 note=82 velocity=80 time=0
note_on channel=0 note=82 velocity=0 time=0
note_on channel=0 note=46 velocity=0 time=0
note_on channel=0 note=75 velocity=82 time=0
note_on channel=0 note=87 velocity=90 time=0
note_on channel=0 note=43 velocity=70 time=0
note_on channel=0 note=43 velocity=0 time=46
note_on channel=0 note=46 velocity=59 time=0
note_on channel=0 note=46 velocity=0 time=120
note_on channel=0 note=49 velocity=60 time=0
note_on channel=0 note=49 velocity=0 time=120
note_on channel=0 note=46 velocity=66 time=0
note_on channel=0 note=46 velocity=0 time=0
note_on channel=0 note=43 velocity=59 time=0
note_on channel=0 note=43 velocity=0 time=120
note_on channel=0 note=39 velocity=60 time=0
note_on channel=0 note=39 velocity=0 time=0
note_on channel=0 note=87 velocity=0 time=0
note_on channel=0 note=75 velocity=0 time=0
note_on channel=0 note=75 velocity=79 time=0
note_on channel=0 note=87 velocity=86 time=0
note_on channel=0 note=37 velocity=70 time=0
note_on channel=0 note=37 velocity=0 time=120
note_on channel=0 note=39 velocity=60 time=0
note_on channel=0 note=39 velocity=0 time=120
note_on channel=0 note=43 velocity=60 time=0
note_on channel=0 note=43 velocity=0 time=120
note_on channel=0 note=39 velocity=66 time=0
note_on channel=0 note=39 velocity=0 time=120
note_on channel=0 note=37 velocity=66 time=0
note_on channel=0 note=37 velocity=0 time=0
note_on channel=0 note=34 velocity=60 time=0
note_on channel=0 note=34 velocity=0 time=0
note_on channel=0 note=87 velocity=0 time=0
note_on channel=0 note=75 velocity=0 time=0
note_on channel=0 note=87 velocity=100 time=0
note_on channel=0 note=32 velocity=80 time=0
note_on channel=0 note=87 velocity=0 time=77
note_on channel=0 note=92 velocity=80 time=0
note_on channel=0 note=92 velocity=0 time=48
note_on channel=0 note=96 velocity=83 time=0
note_on channel=0 note=96 velocity=0 time=144
note_on channel=0 note=92 velocity=81 time=0
note_on channel=0 note=92 velocity=0 time=144
note_on channel=0 note=87 velocity=80 time=0
note_on channel=0 note=87 velocity=0 time=0
note_on channel=0 note=84 velocity=97 time=0
note_on channel=0 note=84 velocity=0 time=144
note_on channel=0 note=87 velocity=78 time=0
note_on channel=0 note=87 velocity=0 time=144
note_on channel=0 note=92 velocity=81 time=0
note_on channel=0 note=92 velocity=0 time=144
note_on channel=0 note=87 velocity=79 time=0
note_on channel=0 note=87 velocity=0 time=144
note_on channel=0 note=84 velocity=75 time=0
note_on channel=0 note=84 velocity=0 time=0
note_on channel=0 note=80 velocity=95 time=0
note_on channel=0 note=80 velocity=0 time=144
note_on channel=0 note=84 velocity=77 time=0
note_on channel=0 note=84 velocity=0 time=144
note_on channel=0 note=87 velocity=79 time=0
note_on channel=0 note=87 velocity=0 time=144
note_on channel=0 note=84 velocity=77 time=0
note_on channel=0 note=84 velocity=0 time=144
note_on channel=0 note=80 velocity=77 time=0
note_on channel=0 note=80 velocity=0 time=144
note_on channel=0 note=32 velocity=0 time=0
note_on channel=0 note=75 velocity=93 time=0
note_on channel=0 note=36 velocity=81 time=0
note_on channel=0 note=75 velocity=0 time=52
note_on channel=0 note=80 velocity=74 time=0
note_on channel=0 note=80 velocity=0 time=144
note_on channel=0 note=84 velocity=78 time=0
note_on channel=0 note=84 velocity=0 time=144
note_on channel=0 note=80 velocity=74 time=0
note_on channel=0 note=80 velocity=0 time=144
note_on channel=0 note=75 velocity=74 time=0
note_on channel=0 note=36 velocity=0 time=0
note_on channel=0 note=39 velocity=73 time=0
note_on channel=0 note=39 velocity=0 time=0
note_on channel=0 note=75 velocity=0 time=0
note_on channel=0 note=72 velocity=91 time=0
note_on channel=0 note=44 velocity=81 time=0
note_on channel=0 note=72 velocity=0 time=0
note_on channel=0 note=75 velocity=73 time=0
note_on channel=0 note=75 velocity=0 time=8
note_on channel=0 note=80 velocity=77 time=0
note_on channel=0 note=80 velocity=0 time=32
note_on channel=0 note=75 velocity=74 time=0
note_on channel=0 note=75 velocity=0 time=16
note_on channel=0 note=72 velocity=74 time=0
note_on channel=0 note=72 velocity=0 time=0
note_on channel=0 note=44 velocity=0 time=0
note_on channel=0 note=68 velocity=91 time=0
note_on channel=0 note=48 velocity=83 time=0
note_on channel=0 note=68 velocity=0 time=144
note_on channel=0 note=72 velocity=73 time=0
note_on channel=0 note=72 velocity=0 time=36
note_on channel=0 note=75 velocity=77 time=0
note_on channel=0 note=75 velocity=0 time=8
note_on channel=0 note=72 velocity=74 time=0
note_on channel=0 note=72 velocity=0 time=16
note_on channel=0 note=68 velocity=74 time=0
note_on channel=0 note=48 velocity=0 time=0
note_on channel=0 note=51 velocity=73 time=0
note_on channel=0 note=51 velocity=0 time=0
note_on channel=0 note=68 velocity=0 time=0
note_on channel=0 note=63 velocity=91 time=0
note_on channel=0 note=56 velocity=82 time=0
note_on channel=0 note=63 velocity=0 time=70
note_on channel=0 note=68 velocity=73 time=0
note_on channel=0 note=68 velocity=0 time=144
note_on channel=0 note=72 velocity=77 time=0
note_on channel=0 note=72 velocity=0 time=144
note_on channel=0 note=68 velocity=74 time=0
note_on channel=0 note=68 velocity=0 time=144
note_on channel=0 note=63 velocity=74 time=0
note_on channel=0 note=63 velocity=0 time=0
note_on channel=0 note=56 velocity=0 time=0
note_on channel=0 note=60 velocity=91 time=0
note_on channel=0 note=56 velocity=79 time=0
note_on channel=0 note=60 velocity=0 time=144
note_on channel=0 note=63 velocity=73 time=0
note_on channel=0 note=63 velocity=0 time=144
note_on channel=0 note=68 velocity=77 time=0
note_on channel=0 note=68 velocity=0 time=144
note_on channel=0 note=63 velocity=74 time=0
note_on channel=0 note=63 velocity=0 time=144
note_on channel=0 note=60 velocity=74 time=0
note_on channel=0 note=60 velocity=0 time=0
note_on channel=0 note=56 velocity=0 time=0
note_on channel=0 note=66 velocity=83 time=0
note_on channel=0 note=57 velocity=83 time=0
note_on channel=0 note=57 velocity=0 time=77
note_on channel=0 note=60 velocity=67 time=0
note_on channel=0 note=60 velocity=0 time=144
note_on channel=0 note=63 velocity=70 time=0
note_on channel=0 note=63 velocity=0 time=144
note_on channel=0 note=60 velocity=68 time=0
note_on channel=0 note=60 velocity=0 time=96
note_on channel=0 note=57 velocity=68 time=0
note_on channel=0 note=57 velocity=0 time=0
note_on channel=0 note=54 velocity=81 time=0
note_on channel=0 note=54 velocity=0 time=144
note_on channel=0 note=57 velocity=67 time=0
note_on channel=0 note=57 velocity=0 time=144
note_on channel=0 note=60 velocity=70 time=0
note_on channel=0 note=60 velocity=0 time=144
note_on channel=0 note=57 velocity=68 time=0
note_on channel=0 note=57 velocity=0 time=96
note_on channel=0 note=54 velocity=68 time=0
note_on channel=0 note=54 velocity=0 time=0
note_on channel=0 note=51 velocity=77 time=0
note_on channel=0 note=51 velocity=0 time=144
note_on channel=0 note=54 velocity=62 time=0
note_on channel=0 note=54 velocity=0 time=144
note_on channel=0 note=57 velocity=67 time=0
note_on channel=0 note=57 velocity=0 time=144
note_on channel=0 note=54 velocity=63 time=0
note_on channel=0 note=54 velocity=0 time=96
note_on channel=0 note=51 velocity=63 time=0
note_on channel=0 note=51 velocity=0 time=0
note_on channel=0 note=66 velocity=0 time=0
note_on channel=0 note=72 velocity=89 time=0
note_on channel=0 note=48 velocity=70 time=0
note_on channel=0 note=48 velocity=0 time=77
note_on channel=0 note=51 velocity=59 time=0
note_on channel=0 note=51 velocity=0 time=144
note_on channel=0 note=54 velocity=62 time=0
note_on channel=0 note=54 velocity=0 time=144
note_on channel=0 note=51 velocity=60 time=0
note_on channel=0 note=51 velocity=0 time=144
note_on channel=0 note=48 velocity=60 time=0
note_on channel=0 note=72 velocity=0 time=0
note_on channel=0 note=75 velocity=85 time=0
note_on channel=0 note=75 velocity=0 time=0
note_on channel=0 note=48 velocity=0 time=0
note_on channel=0 note=78 velocity=92 time=0
note_on channel=0 note=45 velocity=70 time=0
note_on channel=0 note=45 velocity=0 time=0
note_on channel=0 note=48 velocity=59 time=0
note_on channel=0 note=48 velocity=0 time=8
note_on channel=0 note=51 velocity=62 time=0
note_on channel=0 note=51 velocity=0 time=32
note_on channel=0 note=48 velocity=60 time=0
note_on channel=0 note=48 velocity=0 time=16
note_on channel=0 note=45 velocity=60 time=0
note_on channel=0 note=45 velocity=0 time=0
note_on channel=0 note=78 velocity=0 time=0
note_on channel=0 note=84 velocity=95 time=0
note_on channel=0 note=42 velocity=70 time=0
note_on channel=0 note=42 velocity=0 time=144
note_on channel=0 note=45 velocity=59 time=0
note_on channel=0 note=45 velocity=0 time=36
note_on channel=0 note=48 velocity=62 time=0
note_on channel=0 note=48 velocity=0 time=8
note_on channel=0 note=45 velocity=60 time=0
note_on channel=0 note=45 velocity=0 time=16
note_on channel=0 note=42 velocity=60 time=0
note_on channel=0 note=84 velocity=0 time=0
note_on channel=0 note=87 velocity=84 time=0
note_on channel=0 note=87 velocity=0 time=0
note_on channel=0 note=42 velocity=0 time=0
note_on channel=0 note=90 velocity=96 time=0
note_on channel=0 note=39 velocity=70 time=0
note_on channel=0 note=39 velocity=0 time=42
note_on channel=0 note=42 velocity=59 time=0
note_on channel=0 note=42 velocity=0 time=120
note_on channel=0 note=45 velocity=60 time=0
note_on channel=0 note=45 velocity=0 time=120
note_on channel=0 note=42 velocity=66 time=0
note_on channel=0 note=42 velocity=0 time=0
note_on channel=0 note=39 velocity=59 time=0
note_on channel=0 note=39 velocity=0 time=120
note_on channel=0 note=36 velocity=60 time=0
note_on channel=0 note=36 velocity=0 time=0
note_on channel=0 note=90 velocity=0 time=0
note_on channel=0 note=90 velocity=93 time=0
note_on channel=0 note=33 velocity=70 time=0
note_on channel=0 note=33 velocity=0 time=120
note_on channel=0 note=36 velocity=60 time=0
note_on channel=0 note=36 velocity=0 time=120
note_on channel=0 note=39 velocity=60 time=0
note_on channel=0 note=39 velocity=0 time=120
note_on channel=0 note=42 velocity=66 time=0
note_on channel=0 note=42 velocity=0 time=120
note_on channel=0 note=39 velocity=66 time=0
note_on channel=0 note=39 velocity=0 time=120
note_on channel=0 note=36 velocity=60 time=0
note_on channel=0 note=36 velocity=0 time=0
note_on channel=0 note=90 velocity=0 time=0
note_on channel=0 note=90 velocity=105 time=0
note_on channel=0 note=32 velocity=70 time=0
note_on channel=0 note=32 velocity=0 time=51
note_on channel=0 note=36 velocity=60 time=0
note_on channel=0 note=36 velocity=0 time=120
note_on channel=0 note=39 velocity=60 time=0
note_on channel=0 note=39 velocity=0 time=120
note_on channel=0 note=42 velocity=66 time=0
note_on channel=0 note=42 velocity=0 time=120
note_on channel=0 note=39 velocity=66 time=0
note_on channel=0 note=39 velocity=0 time=120
note_on channel=0 note=36 velocity=60 time=0
note_on channel=0 note=36 velocity=0 time=120
note_on channel=0 note=33 velocity=70 time=0
note_on channel=0 note=33 velocity=0 time=34
note_on channel=0 note=36 velocity=60 time=0
note_on channel=0 note=36 velocity=0 time=0
note_on channel=0 note=90 velocity=0 time=0
note_on channel=0 note=90 velocity=77 time=0
note_on channel=0 note=39 velocity=60 time=0
note_on channel=0 note=39 velocity=0 time=120
note_on channel=0 note=90 velocity=0 time=0
note_on channel=0 note=87 velocity=76 time=0
note_on channel=0 note=42 velocity=66 time=0
note_on channel=0 note=42 velocity=0 time=120
note_on channel=0 note=87 velocity=0 time=0
note_on channel=0 note=84 velocity=75 time=0
note_on channel=0 note=39 velocity=66 time=0
note_on channel=0 note=39 velocity=0 time=120
note_on channel=0 note=84 velocity=0 time=0
note_on channel=0 note=78 velocity=75 time=0
note_on channel=0 note=36 velocity=60 time=0
note_on channel=0 note=36 velocity=0 time=0
note_on channel=0 note=78 velocity=0 time=0
note_on channel=0 note=90 velocity=103 time=0
note_on channel=0 note=32 velocity=70 time=0
note_on channel=0 note=32 velocity=0 time=11
note_on channel=0 note=36 velocity=60 time=0
note_on channel=0 note=36 velocity=0 time=120
note_on channel=0 note=39 velocity=60 time=0
note_on channel=0 note=39 velocity=0 time=120
note_on channel=0 note=42 velocity=66 time=0
note_on channel=0 note=42 velocity=0 time=120
note_on channel=0 note=39 velocity=66 time=0
note_on channel=0 note=39 velocity=0 time=120
note_on channel=0 note=36 velocity=60 time=0
note_on channel=0 note=36 velocity=0 time=120
note_on channel=0 note=33 velocity=70 time=0
note_on channel=0 note=33 velocity=0 time=23
note_on channel=0 note=36 velocity=60 time=0
note_on channel=0 note=36 velocity=0 time=0
note_on channel=0 note=90 velocity=0 time=0
note_on channel=0 note=78 velocity=77 time=0
note_on channel=0 note=39 velocity=60 time=0
note_on channel=0 note=39 velocity=0 time=120
note_on channel=0 note=78 velocity=0 time=0
note_on channel=0 note=75 velocity=76 time=0
note_on channel=0 note=42 velocity=66 time=0
note_on channel=0 note=42 velocity=0 time=120
note_on channel=0 note=75 velocity=0 time=0
note_on channel=0 note=72 velocity=75 time=0
note_on channel=0 note=39 velocity=66 time=0
note_on channel=0 note=39 velocity=0 time=120
note_on channel=0 note=72 velocity=0 time=0
note_on channel=0 note=66 velocity=75 time=0
note_on channel=0 note=36 velocity=60 time=0
note_on channel=0 note=36 velocity=0 time=0
note_on channel=0 note=66 velocity=0 time=0
note_on channel=0 note=78 velocity=94 time=0
note_on channel=0 note=32 velocity=70 time=0
note_on channel=0 note=32 velocity=0 time=51
note_on channel=0 note=36 velocity=60 time=0
note_on channel=0 note=36 velocity=0 time=120
note_on channel=0 note=39 velocity=60 time=0
note_on channel=0 note=39 velocity=0 time=120
note_on channel=0 note=42 velocity=60 time=0
note_on channel=0 note=42 velocity=0 time=120
note_on channel=0 note=39 velocity=66 time=0
note_on channel=0 note=39 velocity=0 time=120
note_on channel=0 note=36 velocity=60 time=0
note_on channel=0 note=36 velocity=0 time=120
note_on channel=0 note=33 velocity=70 time=0
note_on channel=0 note=33 velocity=0 time=23
note_on channel=0 note=36 velocity=60 time=0
note_on channel=0 note=36 velocity=0 time=0
note_on channel=0 note=78 velocity=0 time=0
note_on channel=0 note=66 velocity=72 time=0
note_on channel=0 note=39 velocity=60 time=0
note_on channel=0 note=39 velocity=0 time=120
note_on channel=0 note=66 velocity=0 time=0
note_on channel=0 note=63 velocity=71 time=0
note_on channel=0 note=42 velocity=61 time=0
note_on channel=0 note=42 velocity=0 time=120
note_on channel=0 note=63 velocity=0 time=0
note_on channel=0 note=60 velocity=69 time=0
note_on channel=0 note=39 velocity=66 time=0
note_on channel=0 note=39 velocity=0 time=120
note_on channel=0 note=60 velocity=0 time=0
note_on channel=0 note=54 velocity=69 time=0
note_on channel=0 note=36 velocity=60 time=0
note_on channel=0 note=36 velocity=0 time=0
note_on channel=0 note=54 velocity=0 time=0
note_on channel=0 note=66 velocity=91 time=0
note_on channel=0 note=32 velocity=70 time=0
note_on channel=0 note=32 velocity=0 time=40
note_on channel=0 note=36 velocity=60 time=0
note_on channel=0 note=36 velocity=0 time=0
note_on channel=0 note=66 velocity=0 time=0
note_on channel=0 note=66 velocity=74 time=0
note_on channel=0 note=39 velocity=60 time=0
note_on channel=0 note=39 velocity=0 time=120
note_on channel=0 note=66 velocity=0 time=0
note_on channel=0 note=63 velocity=70 time=0
note_on channel=0 note=42 velocity=61 time=0
note_on channel=0 note=42 velocity=0 time=120
note_on channel=0 note=63 velocity=0 time=0
note_on channel=0 note=60 velocity=70 time=0
note_on channel=0 note=39 velocity=66 time=0
note_on channel=0 note=39 velocity=0 time=120
note_on channel=0 note=60 velocity=0 time=0
note_on channel=0 note=54 velocity=69 time=0
note_on channel=0 note=36 velocity=60 time=0
note_on channel=0 note=36 velocity=0 time=0
note_on channel=0 note=54 velocity=0 time=0
note_on channel=0 note=66 velocity=89 time=0
note_on channel=0 note=33 velocity=70 time=0
note_on channel=0 note=33 velocity=0 time=40
note_on channel=0 note=36 velocity=60 time=0
note_on channel=0 note=36 velocity=0 time=0
note_on channel=0 note=66 velocity=0 time=0
note_on channel=0 note=66 velocity=74 time=0
note_on channel=0 note=39 velocity=60 time=0
note_on channel=0 note=39 velocity=0 time=120
note_on channel=0 note=66 velocity=0 time=0
note_on channel=0 note=63 velocity=72 time=0
note_on channel=0 note=42 velocity=60 time=0
note_on channel=0 note=42 velocity=0 time=120
note_on channel=0 note=63 velocity=0 time=0
note_on channel=0 note=60 velocity=72 time=0
note_on channel=0 note=39 velocity=66 time=0
note_on channel=0 note=39 velocity=0 time=120
note_on channel=0 note=60 velocity=0 time=0
note_on channel=0 note=54 velocity=71 time=0
note_on channel=0 note=36 velocity=60 time=0
note_on channel=0 note=36 velocity=0 time=0
note_on channel=0 note=54 velocity=0 time=0
note_on channel=0 note=66 velocity=84 time=0
note_on channel=0 note=32 velocity=60 time=0
note_on channel=0 note=44 velocity=60 time=0
note_on channel=0 note=44 velocity=0 time=0
note_on channel=0 note=32 velocity=0 time=0
note_on channel=0 note=56 velocity=36 time=0
note_on channel=0 note=56 velocity=0 time=220
note_on channel=0 note=56 velocity=36 time=20
note_on channel=0 note=56 velocity=0 time=220
note_on channel=0 note=66 velocity=0 time=0
note_on channel=0 note=56 velocity=39 time=0
note_on channel=0 note=56 velocity=0 time=220
note_on channel=0 note=56 velocity=37 time=20
note_on channel=0 note=56 velocity=0 time=220
note_on channel=0 note=56 velocity=36 time=20
note_on channel=0 note=56 velocity=0 time=220
note_on channel=0 note=56 velocity=39 time=0
note_on channel=0 note=56 velocity=0 time=220
note_on channel=0 note=56 velocity=35 time=0
note_on channel=0 note=56 velocity=0 time=220
note_on channel=0 note=56 velocity=35 time=20
note_on channel=0 note=56 velocity=0 time=220
note_on channel=0 note=56 velocity=39 time=0
note_on channel=0 note=56 velocity=0 time=220
note_on channel=0 note=56 velocity=36 time=20
note_on channel=0 note=56 velocity=0 time=220
note_on channel=0 note=56 velocity=36 time=20
note_on channel=0 note=56 velocity=0 time=220
note_on channel=0 note=63 velocity=58 time=0
note_on channel=0 note=60 velocity=58 time=0
note_on channel=0 note=56 velocity=36 time=0
note_on channel=0 note=56 velocity=0 time=220
note_on channel=0 note=56 velocity=36 time=20
note_on channel=0 note=56 velocity=0 time=220
note_on channel=0 note=60 velocity=0 time=0
note_on channel=0 note=63 velocity=0 time=0
note_on channel=0 note=56 velocity=39 time=0
note_on channel=0 note=56 velocity=0 time=220
note_on channel=0 note=56 velocity=37 time=20
note_on channel=0 note=56 velocity=0 time=220
note_on channel=0 note=56 velocity=36 time=20
note_on channel=0 note=56 velocity=0 time=220
note_on channel=0 note=72 velocity=59 time=0
note_on channel=0 note=75 velocity=59 time=0
note_on channel=0 note=54 velocity=39 time=0
note_on channel=0 note=54 velocity=0 time=0
note_on channel=0 note=56 velocity=35 time=0
note_on channel=0 note=56 velocity=0 time=220
note_on channel=0 note=56 velocity=35 time=20
note_on channel=0 note=56 velocity=0 time=220
note_on channel=0 note=75 velocity=0 time=0
note_on channel=0 note=72 velocity=0 time=0
note_on channel=0 note=56 velocity=39 time=0
note_on channel=0 note=56 velocity=0 time=220
note_on channel=0 note=56 velocity=36 time=20
note_on channel=0 note=56 velocity=0 time=220
note_on channel=0 note=56 velocity=36 time=20
note_on channel=0 note=56 velocity=0 time=220
note_on channel=0 note=65 velocity=55 time=0
note_on channel=0 note=61 velocity=55 time=0
note_on channel=0 note=56 velocity=36 time=0
note_on channel=0 note=56 velocity=0 time=220
note_on channel=0 note=56 velocity=36 time=20
note_on channel=0 note=56 velocity=0 time=220
note_on channel=0 note=61 velocity=0 time=0
note_on channel=0 note=65 velocity=0 time=0
note_on channel=0 note=56 velocity=39 time=0
note_on channel=0 note=56 velocity=0 time=220
note_on channel=0 note=56 velocity=37 time=20
note_on channel=0 note=56 velocity=0 time=220
note_on channel=0 note=56 velocity=36 time=20
note_on channel=0 note=56 velocity=0 time=220
note_on channel=0 note=73 velocity=58 time=0
note_on channel=0 note=77 velocity=58 time=0
note_on channel=0 note=53 velocity=39 time=0
note_on channel=0 note=53 velocity=0 time=0
note_on channel=0 note=56 velocity=35 time=0
note_on channel=0 note=56 velocity=0 time=220
note_on channel=0 note=56 velocity=35 time=20
note_on channel=0 note=56 velocity=0 time=220
note_on channel=0 note=77 velocity=0 time=0
note_on channel=0 note=73 velocity=0 time=0
note_on channel=0 note=56 velocity=39 time=0
note_on channel=0 note=56 velocity=0 time=220
note_on channel=0 note=56 velocity=36 time=20
note_on channel=0 note=56 velocity=0 time=220
note_on channel=0 note=56 velocity=36 time=20
note_on channel=0 note=56 velocity=0 time=220
note_on channel=0 note=61 velocity=61 time=0
note_on channel=0 note=70 velocity=61 time=0
note_on channel=0 note=65 velocity=61 time=0
note_on channel=0 note=56 velocity=38 time=0
note_on channel=0 note=56 velocity=0 time=220
note_on channel=0 note=56 velocity=38 time=20
note_on channel=0 note=56 velocity=0 time=220
note_on channel=0 note=53 velocity=40 time=0
note_on channel=0 note=49 velocity=40 time=0
note_on channel=0 note=49 velocity=0 time=240
note_on channel=0 note=53 velocity=0 time=0
note_on channel=0 note=56 velocity=37 time=0
note_on channel=0 note=56 velocity=0 time=220
note_on channel=0 note=56 velocity=37 time=20
note_on channel=0 note=56 velocity=0 time=220
note_on channel=0 note=49 velocity=37 time=0
note_on channel=0 note=53 velocity=37 time=0
note_on channel=0 note=53 velocity=0 time=240
note_on channel=0 note=49 velocity=0 time=0
note_on channel=0 note=56 velocity=37 time=0
note_on channel=0 note=56 velocity=0 time=220
note_on channel=0 note=56 velocity=37 time=20
note_on channel=0 note=56 velocity=0 time=220
note_on channel=0 note=49 velocity=37 time=0
note_on channel=0 note=53 velocity=37 time=0
note_on channel=0 note=53 velocity=0 time=240
note_on channel=0 note=49 velocity=0 time=0
note_on channel=0 note=56 velocity=37 time=0
note_on channel=0 note=56 velocity=0 time=220
note_on channel=0 note=56 velocity=37 time=20
note_on channel=0 note=56 velocity=0 time=220
note_on channel=0 note=61 velocity=0 time=0
note_on channel=0 note=70 velocity=0 time=0
note_on channel=0 note=65 velocity=0 time=0
note_on channel=0 note=60 velocity=52 time=0
note_on channel=0 note=63 velocity=52 time=0
note_on channel=0 note=68 velocity=52 time=0
note_on channel=0 note=48 velocity=39 time=0
note_on channel=0 note=51 velocity=39 time=0
note_on channel=0 note=51 velocity=0 time=0
note_on channel=0 note=48 velocity=0 time=0
note_on channel=0 note=56 velocity=37 time=0
note_on channel=0 note=56 velocity=0 time=220
note_on channel=0 note=68 velocity=0 time=20
note_on channel=0 note=63 velocity=0 time=0
note_on channel=0 note=60 velocity=0 time=0
note_on channel=0 note=56 velocity=37 time=0
note_on channel=0 note=56 velocity=0 time=220
note_on channel=0 note=56 velocity=38 time=0
note_on channel=0 note=56 velocity=0 time=220
note_on channel=0 note=56 velocity=37 time=20
note_on channel=0 note=56 velocity=0 time=220
note_on channel=0 note=56 velocity=37 time=20
note_on channel=0 note=56 velocity=0 time=220
note_on channel=0 note=56 velocity=37 time=0
note_on channel=0 note=56 velocity=0 time=220
note_on channel=0 note=56 velocity=37 time=0
note_on channel=0 note=56 velocity=0 time=220
note_on channel=0 note=56 velocity=37 time=20
note_on channel=0 note=56 velocity=0 time=220
note_on channel=0 note=60 velocity=55 time=0
note_on channel=0 note=63 velocity=55 time=0
note_on channel=0 note=56 velocity=38 time=0
note_on channel=0 note=56 velocity=0 time=220
note_on channel=0 note=56 velocity=37 time=0
note_on channel=0 note=56 velocity=0 time=220
note_on channel=0 note=56 velocity=37 time=20
note_on channel=0 note=63 velocity=0 time=0
note_on channel=0 note=60 velocity=0 time=0
note_on channel=0 note=60 velocity=50 time=0
note_on channel=0 note=63 velocity=50 time=0
note_on channel=0 note=56 velocity=0 time=100
note_on channel=0 note=63 velocity=0 time=0
note_on channel=0 note=60 velocity=0 time=0
note_on channel=0 note=61 velocity=55 time=0
note_on channel=0 note=65 velocity=55 time=0
note_on channel=0 note=56 velocity=39 time=0
note_on channel=0 note=56 velocity=0 time=220
note_on channel=0 note=56 velocity=37 time=20
note_on channel=0 note=56 velocity=0 time=220
note_on channel=0 note=65 velocity=0 time=0
note_on channel=0 note=61 velocity=0 time=0
note_on channel=0 note=60 velocity=50 time=0
note_on channel=0 note=63 velocity=50 time=0
note_on channel=0 note=56 velocity=37 time=0
note_on channel=0 note=56 velocity=0 time=220
note_on channel=0 note=63 velocity=0 time=20
note_on channel=0 note=60 velocity=0 time=0
note_on channel=0 note=56 velocity=38 time=0
note_on channel=0 note=56 velocity=0 time=220
note_on channel=0 note=56 velocity=37 time=20
note_on channel=0 note=56 velocity=0 time=220
note_on channel=0 note=72 velocity=58 time=0
note_on channel=0 note=75 velocity=58 time=0
note_on channel=0 note=56 velocity=37 time=0
note_on channel=0 note=56 velocity=0 time=220
note_on channel=0 note=75 velocity=0 time=0
note_on channel=0 note=72 velocity=0 time=0
note_on channel=0 note=56 velocity=38 time=0
note_on channel=0 note=56 velocity=0 time=220
note_on channel=0 note=56 velocity=39 time=20
note_on channel=0 note=56 velocity=0 time=220
note_on channel=0 note=87 velocity=56 time=20
note_on channel=0 note=84 velocity=56 time=0
note_on channel=0 note=84 velocity=0 time=240
note_on channel=0 note=87 velocity=0 time=0
note_on channel=0 note=54 velocity=44 time=0
note_on channel=0 note=51 velocity=44 time=0
note_on channel=0 note=51 velocity=0 time=0
note_on channel=0 note=54 velocity=0 time=0
note_on channel=0 note=56 velocity=37 time=0
note_on channel=0 note=56 velocity=0 time=220
note_on channel=0 note=56 velocity=37 time=0
note_on channel=0 note=60 velocity=53 time=120
note_on channel=0 note=63 velocity=53 time=0
note_on channel=0 note=56 velocity=0 time=60
note_on channel=0 note=63 velocity=0 time=0
note_on channel=0 note=60 velocity=0 time=0
note_on channel=0 note=63 velocity=57 time=0
note_on channel=0 note=66 velocity=57 time=0
note_on channel=0 note=56 velocity=39 time=0
note_on channel=0 note=56 velocity=0 time=220
note_on channel=0 note=56 velocity=37 time=20
note_on channel=0 note=56 velocity=0 time=220
note_on channel=0 note=66 velocity=0 time=0
note_on channel=0 note=63 velocity=0 time=0
note_on channel=0 note=65 velocity=52 time=0
note_on channel=0 note=61 velocity=52 time=0
note_on channel=0 note=56 velocity=37 time=0
note_on channel=0 note=56 velocity=0 time=220
note_on channel=0 note=61 velocity=0 time=20
note_on channel=0 note=65 velocity=0 time=0
note_on channel=0 note=56 velocity=37 time=0
note_on channel=0 note=56 velocity=0 time=220
note_on channel=0 note=56 velocity=37 time=20
note_on channel=0 note=56 velocity=0 time=220
note_on channel=0 note=73 velocity=60 time=0
note_on channel=0 note=77 velocity=60 time=0
note_on channel=0 note=56 velocity=37 time=0
note_on channel=0 note=56 velocity=0 time=220
note_on channel=0 note=77 velocity=0 time=20
note_on channel=0 note=73 velocity=0 time=0
note_on channel=0 note=56 velocity=38 time=0
note_on channel=0 note=56 velocity=0 time=220
note_on channel=0 note=56 velocity=37 time=0
note_on channel=0 note=56 velocity=0 time=220
note_on channel=0 note=89 velocity=56 time=20
note_on channel=0 note=85 velocity=56 time=0
note_on channel=0 note=56 velocity=37 time=0
note_on channel=0 note=56 velocity=0 time=220
note_on channel=0 note=85 velocity=0 time=15
note_on channel=0 note=89 velocity=0 time=0
note_on channel=0 note=49 velocity=44 time=5
note_on channel=0 note=53 velocity=48 time=0
note_on channel=0 note=53 velocity=0 time=0
note_on channel=0 note=49 velocity=0 time=0
note_on channel=0 note=56 velocity=37 time=0
note_on channel=0 note=56 velocity=0 time=220
note_on channel=0 note=56 velocity=37 time=20
note_on channel=0 note=65 velocity=52 time=0
note_on channel=0 note=61 velocity=52 time=0
note_on channel=0 note=56 velocity=0 time=100
note_on channel=0 note=61 velocity=0 time=0
note_on channel=0 note=65 velocity=0 time=0
note_on channel=0 note=61 velocity=61 time=0
note_on channel=0 note=65 velocity=61 time=0
note_on channel=0 note=70 velocity=61 time=0
note_on channel=0 note=56 velocity=38 time=0
note_on channel=0 note=56 velocity=0 time=220
note_on channel=0 note=56 velocity=38 time=20
note_on channel=0 note=56 velocity=0 time=220
note_on channel=0 note=53 velocity=40 time=0
note_on channel=0 note=49 velocity=40 time=0
note_on channel=0 note=49 velocity=0 time=240
note_on channel=0 note=53 velocity=0 time=0
note_on channel=0 note=56 velocity=37 time=0
note_on channel=0 note=56 velocity=0 time=220
note_on channel=0 note=56 velocity=37 time=20
note_on channel=0 note=56 velocity=0 time=220
note_on channel=0 note=49 velocity=37 time=0
note_on channel=0 note=53 velocity=37 time=0
note_on channel=0 note=53 velocity=0 time=240
note_on channel=0 note=49 velocity=0 time=0
note_on channel=0 note=56 velocity=37 time=0
note_on channel=0 note=56 velocity=0 time=220
note_on channel=0 note=56 velocity=37 time=20
note_on channel=0 note=56 velocity=0 time=220
note_on channel=0 note=49 velocity=36 time=0
note_on channel=0 note=53 velocity=36 time=0
note_on channel=0 note=53 velocity=0 time=240
note_on channel=0 note=49 velocity=0 time=0
note_on channel=0 note=56 velocity=37 time=0
note_on channel=0 note=56 velocity=0 time=220
note_on channel=0 note=56 velocity=37 time=20
note_on channel=0 note=56 velocity=0 time=220
note_on channel=0 note=61 velocity=0 time=20
note_on channel=0 note=65 velocity=0 time=0
note_on channel=0 note=70 velocity=0 time=0
note_on channel=0 note=60 velocity=56 time=0
note_on channel=0 note=63 velocity=56 time=0
note_on channel=0 note=68 velocity=56 time=0
note_on channel=0 note=56 velocity=38 time=0
note_on channel=0 note=56 velocity=0 time=220
note_on channel=0 note=60 velocity=0 time=20
note_on channel=0 note=63 velocity=0 time=0
note_on channel=0 note=68 velocity=0 time=0
note_on channel=0 note=56 velocity=38 time=0
note_on channel=0 note=56 velocity=0 time=220
note_on channel=0 note=51 velocity=40 time=0
note_on channel=0 note=48 velocity=40 time=0
note_on channel=0 note=48 velocity=0 time=240
note_on channel=0 note=51 velocity=0 time=0
note_on channel=0 note=56 velocity=37 time=0
note_on channel=0 note=56 velocity=0 time=220
note_on channel=0 note=56 velocity=37 time=20
note_on channel=0 note=56 velocity=0 time=220
note_on channel=0 note=61 velocity=52 time=0
note_on channel=0 note=64 velocity=52 time=0
note_on channel=0 note=69 velocity=52 time=0
note_on channel=0 note=56 velocity=37 time=0
note_on channel=0 note=56 velocity=0 time=220
note_on channel=0 note=56 velocity=37 time=20
note_on channel=0 note=56 velocity=0 time=220
note_on channel=0 note=49 velocity=36 time=0
note_on channel=0 note=52 velocity=36 time=0
note_on channel=0 note=52 velocity=0 time=240
note_on channel=0 note=49 velocity=0 time=0
note_on channel=0 note=56 velocity=37 time=0
note_on channel=0 note=56 velocity=0 time=220
note_on channel=0 note=56 velocity=37 time=20
note_on channel=0 note=56 velocity=0 time=220
note_on channel=0 note=61 velocity=0 time=0
note_on channel=0 note=64 velocity=0 time=0
note_on channel=0 note=69 velocity=0 time=0
note_on channel=0 note=60 velocity=57 time=0
note_on channel=0 note=68 velocity=57 time=0
note_on channel=0 note=63 velocity=57 time=0
note_on channel=0 note=56 velocity=38 time=0
note_on channel=0 note=56 velocity=0 time=220
note_on channel=0 note=60 velocity=0 time=20
note_on channel=0 note=68 velocity=0 time=0
note_on channel=0 note=63 velocity=0 time=0
note_on channel=0 note=56 velocity=38 time=0
note_on channel=0 note=56 velocity=0 time=220
note_on channel=0 note=51 velocity=40 time=0
note_on channel=0 note=48 velocity=40 time=0
note_on channel=0 note=48 velocity=0 time=240
note_on channel=0 note=51 velocity=0 time=0
note_on channel=0 note=56 velocity=37 time=0
note_on channel=0 note=56 velocity=0 time=220
note_on channel=0 note=56 velocity=37 time=20
note_on channel=0 note=56 velocity=0 time=220
note_on channel=0 note=73 velocity=58 time=0
note_on channel=0 note=81 velocity=58 time=0
note_on channel=0 note=76 velocity=58 time=0
note_on channel=0 note=56 velocity=37 time=0
note_on channel=0 note=56 velocity=0 time=220
note_on channel=0 note=56 velocity=37 time=20
note_on channel=0 note=56 velocity=0 time=220
note_on channel=0 note=49 velocity=36 time=0
note_on channel=0 note=52 velocity=36 time=0
note_on channel=0 note=52 velocity=0 time=240
note_on channel=0 note=49 velocity=0 time=0
note_on channel=0 note=56 velocity=37 time=0
note_on channel=0 note=56 velocity=0 time=220
note_on channel=0 note=56 velocity=37 time=20
note_on channel=0 note=56 velocity=0 time=220
note_on channel=0 note=73 velocity=0 time=20
note_on channel=0 note=81 velocity=0 time=0
note_on channel=0 note=76 velocity=0 time=0
note_on channel=0 note=75 velocity=56 time=0
note_on channel=0 note=80 velocity=56 time=0
note_on channel=0 note=72 velocity=56 time=0
note_on channel=0 note=56 velocity=37 time=0
note_on channel=0 note=56 velocity=0 time=220
note_on channel=0 note=75 velocity=0 time=20
note_on channel=0 note=80 velocity=0 time=0
note_on channel=0 note=72 velocity=0 time=0
note_on channel=0 note=56 velocity=36 time=0
note_on channel=0 note=56 velocity=0 time=220
note_on channel=0 note=51 velocity=38 time=0
note_on channel=0 note=48 velocity=38 time=0
note_on channel=0 note=48 velocity=0 time=240
note_on channel=0 note=51 velocity=0 time=0
note_on channel=0 note=56 velocity=34 time=0
note_on channel=0 note=56 velocity=0 time=220
note_on channel=0 note=56 velocity=34 time=20
note_on channel=0 note=56 velocity=0 time=220
note_on channel=0 note=62 velocity=46 time=0
note_on channel=0 note=59 velocity=46 time=0
note_on channel=0 note=68 velocity=46 time=0
note_on channel=0 note=56 velocity=32 time=0
note_on channel=0 note=56 velocity=0 time=220
note_on channel=0 note=62 velocity=0 time=20
note_on channel=0 note=59 velocity=0 time=0
note_on channel=0 note=68 velocity=0 time=0
note_on channel=0 note=56 velocity=32 time=0
note_on channel=0 note=56 velocity=0 time=220
note_on channel=0 note=47 velocity=30 time=20
note_on channel=0 note=50 velocity=30 time=0
note_on channel=0 note=50 velocity=0 time=240
note_on channel=0 note=47 velocity=0 time=0
note_on channel=0 note=56 velocity=31 time=0
note_on channel=0 note=56 velocity=0 time=220
note_on channel=0 note=56 velocity=30 time=0
note_on channel=0 note=56 velocity=0 time=220
note_on channel=0 note=61 velocity=44 time=0
note_on channel=0 note=58 velocity=44 time=0
note_on channel=0 note=67 velocity=44 time=0
note_on channel=0 note=56 velocity=31 time=0
note_on channel=0 note=56 velocity=0 time=220
note_on channel=0 note=61 velocity=0 time=20
note_on channel=0 note=58 velocity=0 time=0
note_on channel=0 note=67 velocity=0 time=0
note_on channel=0 note=56 velocity=30 time=0
note_on channel=0 note=56 velocity=0 time=220
note_on channel=0 note=49 velocity=32 time=0
note_on channel=0 note=46 velocity=32 time=0
note_on channel=0 note=46 velocity=0 time=240
note_on channel=0 note=49 velocity=0 time=0
note_on channel=0 note=56 velocity=28 time=0
note_on channel=0 note=56 velocity=0 time=220
note_on channel=0 note=56 velocity=28 time=0
note_on channel=0 note=56 velocity=0 time=220
note_on channel=0 note=57 velocity=39 time=0
note_on channel=0 note=60 velocity=39 time=0
note_on channel=0 note=66 velocity=39 time=0
note_on channel=0 note=56 velocity=27 time=0
note_on channel=0 note=56 velocity=0 time=20
note_on channel=0 note=57 velocity=0 time=20
note_on channel=0 note=60 velocity=0 time=0
note_on channel=0 note=66 velocity=0 time=0
note_on channel=0 note=56 velocity=27 time=0
note_on channel=0 note=56 velocity=0 time=20
note_on channel=0 note=48 velocity=25 time=20
note_on channel=0 note=45 velocity=25 time=0
note_on channel=0 note=45 velocity=0 time=40
note_on channel=0 note=48 velocity=0 time=0
note_on channel=0 note=56 velocity=26 time=0
note_on channel=0 note=56 velocity=0 time=20
note_on channel=0 note=56 velocity=25 time=0
note_on channel=0 note=56 velocity=0 time=220
note_on channel=0 note=66 velocity=47 time=0
note_on channel=0 note=60 velocity=47 time=0
note_on channel=0 note=56 velocity=47 time=0
note_on channel=0 note=44 velocity=44 time=0
note_on channel=0 note=56 velocity=0 time=200
note_on channel=0 note=66 velocity=0 time=0
note_on channel=0 note=60 velocity=0 time=0
note_on channel=0 note=43 velocity=39 time=0
note_on channel=0 note=43 velocity=0 time=40
note_on channel=0 note=44 velocity=0 time=0
note_on channel=0 note=44 velocity=44 time=0
note_on channel=0 note=46 velocity=41 time=240
note_on channel=0 note=46 velocity=0 time=160
note_on channel=0 note=44 velocity=0 time=0
note_on channel=0 note=44 velocity=45 time=0
note_on channel=0 note=75 velocity=67 time=0
note_on channel=0 note=42 velocity=41 time=0
note_on channel=0 note=42 velocity=0 time=0
note_on channel=0 note=75 velocity=0 time=0
note_on channel=0 note=44 velocity=0 time=0
note_on channel=0 note=77 velocity=61 time=0
note_on channel=0 note=44 velocity=41 time=0
note_on channel=0 note=77 velocity=0 time=240
note_on channel=0 note=75 velocity=59 time=0
note_on channel=0 note=42 velocity=48 time=0
note_on channel=0 note=42 velocity=0 time=0
note_on channel=0 note=75 velocity=0 time=0
note_on channel=0 note=73 velocity=69 time=0
note_on channel=0 note=41 velocity=42 time=0
note_on channel=0 note=41 velocity=0 time=0
note_on channel=0 note=73 velocity=0 time=0
note_on channel=0 note=75 velocity=66 time=0
note_on channel=0 note=42 velocity=42 time=0
note_on channel=0 note=42 velocity=0 time=240
note_on channel=0 note=75 velocity=0 time=0
note_on channel=0 note=73 velocity=64 time=0
note_on channel=0 note=41 velocity=47 time=0
note_on channel=0 note=41 velocity=0 time=0
note_on channel=0 note=73 velocity=0 time=0
note_on channel=0 note=44 velocity=0 time=0
note_on channel=0 note=72 velocity=70 time=0
note_on channel=0 note=39 velocity=55 time=0
note_on channel=0 note=39 velocity=0 time=0
note_on channel=0 note=72 velocity=0 time=0
note_on channel=0 note=78 velocity=66 time=0
note_on channel=0 note=44 velocity=48 time=0
note_on channel=0 note=78 velocity=0 time=240
note_on channel=0 note=43 velocity=42 time=0
note_on channel=0 note=43 velocity=0 time=240
note_on channel=0 note=44 velocity=0 time=0
note_on channel=0 note=44 velocity=48 time=0
note_on channel=0 note=46 velocity=45 time=240
note_on channel=0 note=46 velocity=0 time=240
note_on channel=0 note=44 velocity=0 time=0
note_on channel=0 note=44 velocity=49 time=0
note_on channel=0 note=78 velocity=73 time=0
note_on channel=0 note=39 velocity=46 time=0
note_on channel=0 note=39 velocity=0 time=0
note_on channel=0 note=78 velocity=0 time=0
note_on channel=0 note=80 velocity=70 time=0
note_on channel=0 note=41 velocity=46 time=0
note_on channel=0 note=41 velocity=0 time=240
note_on channel=0 note=80 velocity=0 time=0
note_on channel=0 note=78 velocity=70 time=0
note_on channel=0 note=39 velocity=50 time=0
note_on channel=0 note=39 velocity=0 time=0
note_on channel=0 note=78 velocity=0 time=0
note_on channel=0 note=77 velocity=74 time=0
note_on channel=0 note=37 velocity=47 time=0
note_on channel=0 note=37 velocity=0 time=0
note_on channel=0 note=77 velocity=0 time=0
note_on channel=0 note=78 velocity=71 time=0
note_on channel=0 note=39 velocity=47 time=0
note_on channel=0 note=39 velocity=0 time=240
note_on channel=0 note=78 velocity=0 time=0
note_on channel=0 note=77 velocity=68 time=0
note_on channel=0 note=37 velocity=51 time=0
note_on channel=0 note=37 velocity=0 time=0
note_on channel=0 note=77 velocity=0 time=0
note_on channel=0 note=44 velocity=0 time=0
note_on channel=0 note=75 velocity=81 time=0
note_on channel=0 note=36 velocity=57 time=0
note_on channel=0 note=36 velocity=0 time=0
note_on channel=0 note=75 velocity=0 time=0
note_on channel=0 note=87 velocity=72 time=0
note_on channel=0 note=44 velocity=52 time=0
note_on channel=0 note=87 velocity=0 time=240
note_on channel=0 note=43 velocity=47 time=0
note_on channel=0 note=43 velocity=0 time=240
note_on channel=0 note=44 velocity=0 time=0
note_on channel=0 note=44 velocity=52 time=0
note_on channel=0 note=46 velocity=49 time=240
note_on channel=0 note=46 velocity=0 time=240
note_on channel=0 note=44 velocity=0 time=0
note_on channel=0 note=44 velocity=53 time=0
note_on channel=0 note=87 velocity=83 time=0
note_on channel=0 note=36 velocity=50 time=0
note_on channel=0 note=36 velocity=0 time=240
note_on channel=0 note=87 velocity=0 time=0
note_on channel=0 note=89 velocity=77 time=0
note_on channel=0 note=37 velocity=50 time=0
note_on channel=0 note=37 velocity=0 time=240
note_on channel=0 note=89 velocity=0 time=0
note_on channel=0 note=87 velocity=73 time=0
note_on channel=0 note=36 velocity=54 time=0
note_on channel=0 note=36 velocity=0 time=240
note_on channel=0 note=87 velocity=0 time=0
note_on channel=0 note=85 velocity=77 time=0
note_on channel=0 note=34 velocity=50 time=0
note_on channel=0 note=34 velocity=0 time=240
note_on channel=0 note=85 velocity=0 time=0
note_on channel=0 note=87 velocity=75 time=0
note_on channel=0 note=36 velocity=51 time=0
note_on channel=0 note=36 velocity=0 time=0
note_on channel=0 note=87 velocity=0 time=0
note_on channel=0 note=85 velocity=73 time=0
note_on channel=0 note=34 velocity=51 time=0
note_on channel=0 note=34 velocity=0 time=0
note_on channel=0 note=85 velocity=0 time=0
note_on channel=0 note=44 velocity=0 time=0
note_on channel=0 note=84 velocity=76 time=0
note_on channel=0 note=32 velocity=55 time=0
note_on channel=0 note=32 velocity=0 time=0
note_on channel=0 note=84 velocity=0 time=0
note_on channel=0 note=85 velocity=75 time=0
note_on channel=0 note=31 velocity=49 time=0
note_on channel=0 note=31 velocity=0 time=240
note_on channel=0 note=85 velocity=0 time=0
note_on channel=0 note=84 velocity=72 time=0
note_on channel=0 note=32 velocity=49 time=0
note_on channel=0 note=32 velocity=0 time=240
note_on channel=0 note=84 velocity=0 time=0
note_on channel=0 note=82 velocity=76 time=0
note_on channel=0 note=34 velocity=53 time=0
note_on channel=0 note=34 velocity=0 time=240
note_on channel=0 note=82 velocity=0 time=0
note_on channel=0 note=84 velocity=73 time=0
note_on channel=0 note=32 velocity=46 time=0
note_on channel=0 note=32 velocity=0 time=0
note_on channel=0 note=84 velocity=0 time=0
note_on channel=0 note=82 velocity=69 time=0
note_on channel=0 note=34 velocity=45 time=0
note_on channel=0 note=34 velocity=0 time=40
note_on channel=0 note=82 velocity=0 time=0
note_on channel=0 note=80 velocity=74 time=0
note_on channel=0 note=35 velocity=50 time=0
note_on channel=0 note=35 velocity=0 time=40
note_on channel=0 note=80 velocity=0 time=0
note_on channel=0 note=82 velocity=70 time=0
note_on channel=0 note=34 velocity=44 time=0
note_on channel=0 note=34 velocity=0 time=40
note_on channel=0 note=82 velocity=0 time=0
note_on channel=0 note=80 velocity=67 time=0
note_on channel=0 note=35 velocity=42 time=0
note_on channel=0 note=35 velocity=0 time=40
note_on channel=0 note=80 velocity=0 time=0
note_on channel=0 note=78 velocity=72 time=0
note_on channel=0 note=36 velocity=47 time=0
note_on channel=0 note=36 velocity=0 time=40
note_on channel=0 note=78 velocity=0 time=0
note_on channel=0 note=80 velocity=66 time=0
note_on channel=0 note=35 velocity=40 time=0
note_on channel=0 note=35 velocity=0 time=40
note_on channel=0 note=80 velocity=0 time=0
note_on channel=0 note=78 velocity=63 time=0
note_on channel=0 note=36 velocity=40 time=0
note_on channel=0 note=36 velocity=0 time=0
note_on channel=0 note=78 velocity=0 time=0
note_on channel=0 note=77 velocity=73 time=0
note_on channel=0 note=37 velocity=36 time=0
note_on channel=0 note=37 velocity=0 time=0
note_on channel=0 note=49 velocity=32 time=0
note_on channel=0 note=41 velocity=26 time=0
note_on channel=0 note=44 velocity=26 time=0
note_on channel=0 note=44 velocity=0 time=240
note_on channel=0 note=77 velocity=0 time=0
note_on channel=0 note=49 velocity=0 time=0
note_on channel=0 note=41 velocity=0 time=0
note_on channel=0 note=37 velocity=33 time=0
note_on channel=0 note=37 velocity=0 time=240
note_on channel=0 note=49 velocity=36 time=0
note_on channel=0 note=41 velocity=28 time=0
note_on channel=0 note=44 velocity=28 time=0
note_on channel=0 note=44 velocity=0 time=240
note_on channel=0 note=41 velocity=0 time=0
note_on channel=0 note=49 velocity=0 time=0
note_on channel=0 note=37 velocity=33 time=0
note_on channel=0 note=37 velocity=0 time=240
note_on channel=0 note=49 velocity=33 time=0
note_on channel=0 note=44 velocity=26 time=0
note_on channel=0 note=41 velocity=26 time=0
note_on channel=0 note=41 velocity=0 time=240
note_on channel=0 note=44 velocity=0 time=0
note_on channel=0 note=49 velocity=0 time=0
note_on channel=0 note=37 velocity=36 time=0
note_on channel=0 note=37 velocity=0 time=148
note_on channel=0 note=49 velocity=33 time=0
note_on channel=0 note=41 velocity=26 time=0
note_on channel=0 note=44 velocity=26 time=0
note_on channel=0 note=44 velocity=0 time=240
note_on channel=0 note=41 velocity=0 time=0
note_on channel=0 note=49 velocity=0 time=0
note_on channel=0 note=37 velocity=33 time=0
note_on channel=0 note=37 velocity=0 time=240
note_on channel=0 note=65 velocity=55 time=0
note_on channel=0 note=53 velocity=44 time=0
note_on channel=0 note=44 velocity=28 time=0
note_on channel=0 note=41 velocity=28 time=0
note_on channel=0 note=49 velocity=36 time=0
note_on channel=0 note=49 velocity=0 time=0
note_on channel=0 note=44 velocity=0 time=0
note_on channel=0 note=41 velocity=0 time=0
note_on channel=0 note=37 velocity=33 time=0
note_on channel=0 note=37 velocity=0 time=240
note_on channel=0 note=49 velocity=35 time=0
note_on channel=0 note=41 velocity=27 time=0
note_on channel=0 note=44 velocity=27 time=0
note_on channel=0 note=53 velocity=0 time=0
note_on channel=0 note=65 velocity=0 time=0
note_on channel=0 note=68 velocity=49 time=0
note_on channel=0 note=56 velocity=39 time=0
note_on channel=0 note=56 velocity=0 time=0
note_on channel=0 note=41 velocity=0 time=0
note_on channel=0 note=44 velocity=0 time=0
note_on channel=0 note=49 velocity=0 time=0
note_on channel=0 note=68 velocity=0 time=0
note_on channel=0 note=73 velocity=53 time=0
note_on channel=0 note=61 velocity=49 time=0
note_on channel=0 note=37 velocity=36 time=0
note_on channel=0 note=37 velocity=0 time=136
note_on channel=0 note=49 velocity=32 time=0
note_on channel=0 note=44 velocity=26 time=0
note_on channel=0 note=41 velocity=26 time=0
note_on channel=0 note=41 velocity=0 time=240
note_on channel=0 note=49 velocity=0 time=0
note_on channel=0 note=44 velocity=0 time=0
note_on channel=0 note=37 velocity=33 time=0
note_on channel=0 note=37 velocity=0 time=0
note_on channel=0 note=61 velocity=0 time=0
note_on channel=0 note=73 velocity=0 time=0
note_on channel=0 note=77 velocity=57 time=0
note_on channel=0 note=65 velocity=52 time=0
note_on channel=0 note=49 velocity=36 time=0
note_on channel=0 note=44 velocity=28 time=0
note_on channel=0 note=41 velocity=28 time=0
note_on channel=0 note=41 velocity=0 time=0
note_on channel=0 note=49 velocity=0 time=0
note_on channel=0 note=44 velocity=0 time=0
note_on channel=0 note=37 velocity=33 time=0
note_on channel=0 note=37 velocity=0 time=240
note_on channel=0 note=41 velocity=26 time=0
note_on channel=0 note=49 velocity=33 time=0
note_on channel=0 note=44 velocity=26 time=0
note_on channel=0 note=65 velocity=0 time=0
note_on channel=0 note=77 velocity=0 time=0
note_on channel=0 note=73 velocity=50 time=0
note_on channel=0 note=61 velocity=46 time=0
note_on channel=0 note=61 velocity=0 time=120
note_on channel=0 note=49 velocity=0 time=0
note_on channel=0 note=44 velocity=0 time=0
note_on channel=0 note=41 velocity=0 time=0
note_on channel=0 note=73 velocity=0 time=0
note_on channel=0 note=72 velocity=53 time=0
note_on channel=0 note=60 velocity=49 time=0
note_on channel=0 note=39 velocity=36 time=0
note_on channel=0 note=39 velocity=0 time=65
note_on channel=0 note=51 velocity=33 time=0
note_on channel=0 note=42 velocity=26 time=0
note_on channel=0 note=44 velocity=26 time=0
note_on channel=0 note=44 velocity=0 time=240
note_on channel=0 note=51 velocity=0 time=0
note_on channel=0 note=42 velocity=0 time=0
note_on channel=0 note=39 velocity=33 time=0
note_on channel=0 note=39 velocity=0 time=0
note_on channel=0 note=60 velocity=0 time=0
note_on channel=0 note=72 velocity=0 time=0
note_on channel=0 note=63 velocity=52 time=0
note_on channel=0 note=75 velocity=57 time=0
note_on channel=0 note=44 velocity=28 time=0
note_on channel=0 note=42 velocity=28 time=0
note_on channel=0 note=51 velocity=36 time=0
note_on channel=0 note=51 velocity=0 time=0
note_on channel=0 note=44 velocity=0 time=0
note_on channel=0 note=42 velocity=0 time=0
note_on channel=0 note=39 velocity=33 time=0
note_on channel=0 note=39 velocity=0 time=240
note_on channel=0 note=42 velocity=27 time=0
note_on channel=0 note=44 velocity=27 time=0
note_on channel=0 note=51 velocity=35 time=0
note_on channel=0 note=75 velocity=0 time=0
note_on channel=0 note=63 velocity=0 time=0
note_on channel=0 note=60 velocity=46 time=0
note_on channel=0 note=72 velocity=50 time=0
note_on channel=0 note=72 velocity=0 time=0
note_on channel=0 note=44 velocity=0 time=0
note_on channel=0 note=51 velocity=0 time=0
note_on channel=0 note=42 velocity=0 time=0
note_on channel=0 note=60 velocity=0 time=0
note_on channel=0 note=73 velocity=53 time=0
note_on channel=0 note=61 velocity=49 time=0
note_on channel=0 note=41 velocity=36 time=0
note_on channel=0 note=41 velocity=0 time=165
note_on channel=0 note=44 velocity=26 time=0
note_on channel=0 note=53 velocity=32 time=0
note_on channel=0 note=49 velocity=26 time=0
note_on channel=0 note=49 velocity=0 time=240
note_on channel=0 note=44 velocity=0 time=0
note_on channel=0 note=53 velocity=0 time=0
note_on channel=0 note=41 velocity=33 time=0
note_on channel=0 note=41 velocity=0 time=0
note_on channel=0 note=61 velocity=0 time=0
note_on channel=0 note=73 velocity=0 time=0
note_on channel=0 note=56 velocity=52 time=0
note_on channel=0 note=68 velocity=52 time=0
note_on channel=0 note=53 velocity=36 time=0
note_on channel=0 note=49 velocity=28 time=0
note_on channel=0 note=44 velocity=28 time=0
note_on channel=0 note=44 velocity=0 time=240
note_on channel=0 note=53 velocity=0 time=0
note_on channel=0 note=49 velocity=0 time=0
note_on channel=0 note=41 velocity=33 time=0
note_on channel=0 note=41 velocity=0 time=240
note_on channel=0 note=44 velocity=26 time=0
note_on channel=0 note=53 velocity=33 time=0
note_on channel=0 note=49 velocity=26 time=0
note_on channel=0 note=49 velocity=0 time=240
note_on channel=0 note=44 velocity=0 time=0
note_on channel=0 note=53 velocity=0 time=0
note_on channel=0 note=41 velocity=36 time=0
note_on channel=0 note=41 velocity=0 time=240
note_on channel=0 note=53 velocity=33 time=0
note_on channel=0 note=44 velocity=26 time=0
note_on channel=0 note=49 velocity=26 time=0
note_on channel=0 note=49 velocity=0 time=240
note_on channel=0 note=53 velocity=0 time=0
note_on channel=0 note=44 velocity=0 time=0
note_on channel=0 note=41 velocity=33 time=0
note_on channel=0 note=41 velocity=0 time=240
note_on channel=0 note=68 velocity=0 time=0
note_on channel=0 note=56 velocity=0 time=0
note_on channel=0 note=58 velocity=52 time=0
note_on channel=0 note=70 velocity=57 time=0
note_on channel=0 note=49 velocity=28 time=0
note_on channel=0 note=54 velocity=36 time=0
note_on channel=0 note=51 velocity=28 time=0
note_on channel=0 note=51 velocity=0 time=0
note_on channel=0 note=49 velocity=0 time=0
note_on channel=0 note=54 velocity=0 time=0
note_on channel=0 note=42 velocity=33 time=0
note_on channel=0 note=42 velocity=0 time=240
note_on channel=0 note=49 velocity=27 time=0
note_on channel=0 note=54 velocity=35 time=0
note_on channel=0 note=51 velocity=27 time=0
note_on channel=0 note=70 velocity=0 time=0
note_on channel=0 note=58 velocity=0 time=0
note_on channel=0 note=66 velocity=53 time=0
note_on channel=0 note=66 velocity=0 time=0
note_on channel=0 note=51 velocity=0 time=0
note_on channel=0 note=49 velocity=0 time=0
note_on channel=0 note=54 velocity=0 time=0
note_on channel=0 note=65 velocity=59 time=0
note_on channel=0 note=44 velocity=37 time=0
note_on channel=0 note=44 velocity=0 time=134
note_on channel=0 note=49 velocity=27 time=0
note_on channel=0 note=56 velocity=33 time=0
note_on channel=0 note=53 velocity=27 time=0
note_on channel=0 note=53 velocity=0 time=240
note_on channel=0 note=56 velocity=0 time=0
note_on channel=0 note=49 velocity=0 time=0
note_on channel=0 note=44 velocity=34 time=0
note_on channel=0 note=44 velocity=0 time=0
note_on channel=0 note=65 velocity=0 time=0
note_on channel=0 note=68 velocity=61 time=0
note_on channel=0 note=49 velocity=30 time=0
note_on channel=0 note=56 velocity=38 time=0
note_on channel=0 note=53 velocity=30 time=0
note_on channel=0 note=53 velocity=0 time=0
note_on channel=0 note=56 velocity=0 time=0
note_on channel=0 note=49 velocity=0 time=0
note_on channel=0 note=44 velocity=34 time=0
note_on channel=0 note=44 velocity=0 time=240
note_on channel=0 note=49 velocity=28 time=0
note_on channel=0 note=56 velocity=35 time=0
note_on channel=0 note=53 velocity=28 time=0
note_on channel=0 note=68 velocity=0 time=0
note_on channel=0 note=65 velocity=55 time=0
note_on channel=0 note=65 velocity=0 time=120
note_on channel=0 note=53 velocity=0 time=0
note_on channel=0 note=56 velocity=0 time=0
note_on channel=0 note=49 velocity=0 time=0
note_on channel=0 note=63 velocity=63 time=0
note_on channel=0 note=44 velocity=40 time=0
note_on channel=0 note=44 velocity=0 time=127
note_on channel=0 note=48 velocity=29 time=0
note_on channel=0 note=56 velocity=36 time=0
note_on channel=0 note=51 velocity=29 time=0
note_on channel=0 note=51 velocity=0 time=240
note_on channel=0 note=56 velocity=0 time=0
note_on channel=0 note=48 velocity=0 time=0
note_on channel=0 note=44 velocity=36 time=0
note_on channel=0 note=44 velocity=0 time=0
note_on channel=0 note=63 velocity=0 time=0
note_on channel=0 note=66 velocity=66 time=0
note_on channel=0 note=48 velocity=32 time=0
note_on channel=0 note=56 velocity=41 time=0
note_on channel=0 note=51 velocity=32 time=0
note_on channel=0 note=51 velocity=0 time=0
note_on channel=0 note=56 velocity=0 time=0
note_on channel=0 note=48 velocity=0 time=0
note_on channel=0 note=44 velocity=37 time=0
note_on channel=0 note=44 velocity=0 time=240
note_on channel=0 note=48 velocity=30 time=0
note_on channel=0 note=56 velocity=37 time=0
note_on channel=0 note=51 velocity=30 time=0
note_on channel=0 note=66 velocity=0 time=0
note_on channel=0 note=63 velocity=59 time=0
note_on channel=0 note=63 velocity=0 time=0
note_on channel=0 note=51 velocity=0 time=0
note_on channel=0 note=56 velocity=0 time=0
note_on channel=0 note=48 velocity=0 time=0
note_on channel=0 note=60 velocity=72 time=0
note_on channel=0 note=45 velocity=51 time=0
note_on channel=0 note=45 velocity=0 time=155
note_on channel=0 note=48 velocity=33 time=0
note_on channel=0 note=53 velocity=33 time=0
note_on channel=0 note=57 velocity=41 time=0
note_on channel=0 note=57 velocity=0 time=240
note_on channel=0 note=53 velocity=0 time=0
note_on channel=0 note=48 velocity=0 time=0
note_on channel=0 note=45 velocity=45 time=0
note_on channel=0 note=45 velocity=0 time=0
note_on channel=0 note=60 velocity=0 time=0
note_on channel=0 note=65 velocity=63 time=0
note_on channel=0 note=48 velocity=29 time=0
note_on channel=0 note=53 velocity=29 time=0
note_on channel=0 note=57 velocity=38 time=0
note_on channel=0 note=57 velocity=0 time=240
note_on channel=0 note=53 velocity=0 time=0
note_on channel=0 note=48 velocity=0 time=0
note_on channel=0 note=45 velocity=36 time=0
note_on channel=0 note=45 velocity=0 time=240
note_on channel=0 note=48 velocity=28 time=0
note_on channel=0 note=53 velocity=28 time=0
note_on channel=0 note=57 velocity=38 time=0
note_on channel=0 note=57 velocity=0 time=240
note_on channel=0 note=53 velocity=0 time=0
note_on channel=0 note=48 velocity=0 time=0
note_on channel=0 note=45 velocity=39 time=0
note_on channel=0 note=45 velocity=0 time=240
note_on channel=0 note=48 velocity=28 time=0
note_on channel=0 note=53 velocity=28 time=0
note_on channel=0 note=57 velocity=36 time=0
note_on channel=0 note=57 velocity=0 time=240
note_on channel=0 note=53 velocity=0 time=0
note_on channel=0 note=48 velocity=0 time=0
note_on channel=0 note=45 velocity=39 time=0
note_on channel=0 note=45 velocity=0 time=240
note_on channel=0 note=65 velocity=0 time=0
note_on channel=0 note=73 velocity=60 time=0
note_on channel=0 note=61 velocity=56 time=0
note_on channel=0 note=53 velocity=27 time=0
note_on channel=0 note=58 velocity=35 time=0
note_on channel=0 note=49 velocity=27 time=0
note_on channel=0 note=49 velocity=0 time=0
note_on channel=0 note=53 velocity=0 time=0
note_on channel=0 note=58 velocity=0 time=0
note_on channel=0 note=46 velocity=33 time=0
note_on channel=0 note=46 velocity=0 time=240
note_on channel=0 note=49 velocity=27 time=0
note_on channel=0 note=53 velocity=27 time=0
note_on channel=0 note=58 velocity=34 time=0
note_on channel=0 note=61 velocity=0 time=0
note_on channel=0 note=73 velocity=0 time=0
note_on channel=0 note=77 velocity=58 time=0
note_on channel=0 note=65 velocity=53 time=0
note_on channel=0 note=65 velocity=0 time=0
note_on channel=0 note=53 velocity=0 time=0
note_on channel=0 note=58 velocity=0 time=0
note_on channel=0 note=49 velocity=0 time=0
note_on channel=0 note=77 velocity=0 time=0
note_on channel=0 note=82 velocity=60 time=0
note_on channel=0 note=70 velocity=51 time=0
note_on channel=0 note=46 velocity=37 time=0
note_on channel=0 note=46 velocity=0 time=120
note_on channel=0 note=49 velocity=27 time=0
note_on channel=0 note=53 velocity=27 time=0
note_on channel=0 note=58 velocity=34 time=0
note_on channel=0 note=58 velocity=0 time=240
note_on channel=0 note=49 velocity=0 time=0
note_on channel=0 note=53 velocity=0 time=0
note_on channel=0 note=46 velocity=36 time=0
note_on channel=0 note=46 velocity=0 time=0
note_on channel=0 note=70 velocity=0 time=0
note_on channel=0 note=82 velocity=0 time=0
note_on channel=0 note=85 velocity=62 time=0
note_on channel=0 note=73 velocity=57 time=0
note_on channel=0 note=49 velocity=30 time=0
note_on channel=0 note=53 velocity=30 time=0
note_on channel=0 note=58 velocity=39 time=0
note_on channel=0 note=58 velocity=0 time=0
note_on channel=0 note=49 velocity=0 time=0
note_on channel=0 note=53 velocity=0 time=0
note_on channel=0 note=46 velocity=37 time=0
note_on channel=0 note=46 velocity=0 time=240
note_on channel=0 note=53 velocity=29 time=0
note_on channel=0 note=58 velocity=38 time=0
note_on channel=0 note=49 velocity=29 time=0
note_on channel=0 note=73 velocity=0 time=0
note_on channel=0 note=85 velocity=0 time=0
note_on channel=0 note=70 velocity=53 time=0
note_on channel=0 note=82 velocity=58 time=0
note_on channel=0 note=82 velocity=0 time=120
note_on channel=0 note=58 velocity=0 time=0
note_on channel=0 note=49 velocity=0 time=0
note_on channel=0 note=53 velocity=0 time=0
note_on channel=0 note=70 velocity=0 time=0
note_on channel=0 note=81 velocity=61 time=0
note_on channel=0 note=69 velocity=57 time=0
note_on channel=0 note=48 velocity=40 time=0
note_on channel=0 note=48 velocity=0 time=70
note_on channel=0 note=51 velocity=29 time=0
note_on channel=0 note=53 velocity=29 time=0
note_on channel=0 note=60 velocity=38 time=0
note_on channel=0 note=60 velocity=0 time=240
note_on channel=0 note=51 velocity=0 time=0
note_on channel=0 note=53 velocity=0 time=0
note_on channel=0 note=48 velocity=39 time=0
note_on channel=0 note=48 velocity=0 time=0
note_on channel=0 note=69 velocity=0 time=0
note_on channel=0 note=81 velocity=0 time=0
note_on channel=0 note=72 velocity=59 time=0
note_on channel=0 note=84 velocity=65 time=0
note_on channel=0 note=51 velocity=34 time=0
note_on channel=0 note=60 velocity=42 time=0
note_on channel=0 note=53 velocity=34 time=0
note_on channel=0 note=53 velocity=0 time=0
note_on channel=0 note=51 velocity=0 time=0
note_on channel=0 note=60 velocity=0 time=0
note_on channel=0 note=48 velocity=40 time=0
note_on channel=0 note=48 velocity=0 time=240
note_on channel=0 note=53 velocity=33 time=0
note_on channel=0 note=60 velocity=42 time=0
note_on channel=0 note=51 velocity=33 time=0
note_on channel=0 note=84 velocity=0 time=0
note_on channel=0 note=72 velocity=0 time=0
note_on channel=0 note=69 velocity=58 time=0
note_on channel=0 note=81 velocity=63 time=0
note_on channel=0 note=81 velocity=0 time=0
note_on channel=0 note=60 velocity=0 time=0
note_on channel=0 note=51 velocity=0 time=0
note_on channel=0 note=53 velocity=0 time=0
note_on channel=0 note=69 velocity=0 time=0
note_on channel=0 note=70 velocity=51 time=0
note_on channel=0 note=82 velocity=57 time=0
note_on channel=0 note=49 velocity=37 time=0
note_on channel=0 note=49 velocity=0 time=169
note_on channel=0 note=53 velocity=27 time=0
note_on channel=0 note=58 velocity=27 time=0
note_on channel=0 note=61 velocity=34 time=0
note_on channel=0 note=61 velocity=0 time=240
note_on channel=0 note=53 velocity=0 time=0
note_on channel=0 note=58 velocity=0 time=0
note_on channel=0 note=49 velocity=36 time=0
note_on channel=0 note=49 velocity=0 time=0
note_on channel=0 note=82 velocity=0 time=0
note_on channel=0 note=70 velocity=0 time=0
note_on channel=0 note=77 velocity=52 time=0
note_on channel=0 note=65 velocity=52 time=0
note_on channel=0 note=53 velocity=30 time=0
note_on channel=0 note=58 velocity=30 time=0
note_on channel=0 note=61 velocity=39 time=0
note_on channel=0 note=61 velocity=0 time=0
note_on channel=0 note=53 velocity=0 time=0
note_on channel=0 note=58 velocity=0 time=0
note_on channel=0 note=49 velocity=37 time=0
note_on channel=0 note=49 velocity=0 time=240
note_on channel=0 note=58 velocity=29 time=0
note_on channel=0 note=61 velocity=38 time=0
note_on channel=0 note=53 velocity=29 time=0
note_on channel=0 note=53 velocity=0 time=120
note_on channel=0 note=58 velocity=0 time=0
note_on channel=0 note=61 velocity=0 time=0
note_on channel=0 note=49 velocity=40 time=0
note_on channel=0 note=49 velocity=0 time=200
note_on channel=0 note=53 velocity=29 time=0
note_on channel=0 note=58 velocity=29 time=0
note_on channel=0 note=61 velocity=38 time=0
note_on channel=0 note=61 velocity=0 time=240
note_on channel=0 note=53 velocity=0 time=0
note_on channel=0 note=58 velocity=0 time=0
note_on channel=0 note=49 velocity=39 time=0
note_on channel=0 note=49 velocity=0 time=240
note_on channel=0 note=65 velocity=0 time=0
note_on channel=0 note=77 velocity=0 time=0
note_on channel=0 note=78 velocity=68 time=0
note_on channel=0 note=66 velocity=62 time=0
note_on channel=0 note=54 velocity=28 time=0
note_on channel=0 note=63 velocity=36 time=0
note_on channel=0 note=58 velocity=28 time=0
note_on channel=0 note=58 velocity=0 time=0
note_on channel=0 note=54 velocity=0 time=0
note_on channel=0 note=63 velocity=0 time=0
note_on channel=0 note=51 velocity=33 time=0
note_on channel=0 note=51 velocity=0 time=240
note_on channel=0 note=54 velocity=27 time=0
note_on channel=0 note=63 velocity=35 time=0
note_on channel=0 note=58 velocity=27 time=0
note_on channel=0 note=78 velocity=0 time=0
note_on channel=0 note=75 velocity=63 time=0
note_on channel=0 note=75 velocity=0 time=0
note_on channel=0 note=58 velocity=0 time=0
note_on channel=0 note=66 velocity=0 time=0
note_on channel=0 note=54 velocity=0 time=0
note_on channel=0 note=63 velocity=0 time=0
note_on channel=0 note=73 velocity=70 time=0
note_on channel=0 note=53 velocity=37 time=0
note_on channel=0 note=53 velocity=0 time=120
note_on channel=0 note=58 velocity=27 time=0
note_on channel=0 note=65 velocity=33 time=0
note_on channel=0 note=61 velocity=27 time=0
note_on channel=0 note=61 velocity=0 time=240
note_on channel=0 note=65 velocity=0 time=0
note_on channel=0 note=58 velocity=0 time=0
note_on channel=0 note=53 velocity=34 time=0
note_on channel=0 note=53 velocity=0 time=0
note_on channel=0 note=73 velocity=0 time=0
note_on channel=0 note=77 velocity=67 time=0
note_on channel=0 note=58 velocity=30 time=0
note_on channel=0 note=65 velocity=38 time=0
note_on channel=0 note=61 velocity=30 time=0
note_on channel=0 note=61 velocity=0 time=0
note_on channel=0 note=65 velocity=0 time=0
note_on channel=0 note=58 velocity=0 time=0
note_on channel=0 note=53 velocity=34 time=0
note_on channel=0 note=53 velocity=0 time=240
note_on channel=0 note=61 velocity=28 time=0
note_on channel=0 note=65 velocity=35 time=0
note_on channel=0 note=58 velocity=28 time=0
note_on channel=0 note=77 velocity=0 time=0
note_on channel=0 note=73 velocity=61 time=0
note_on channel=0 note=73 velocity=0 time=120
note_on channel=0 note=58 velocity=0 time=0
note_on channel=0 note=65 velocity=0 time=0
note_on channel=0 note=61 velocity=0 time=0
note_on channel=0 note=72 velocity=70 time=0
note_on channel=0 note=53 velocity=40 time=0
note_on channel=0 note=53 velocity=0 time=113
note_on channel=0 note=60 velocity=29 time=0
note_on channel=0 note=57 velocity=29 time=0
note_on channel=0 note=63 velocity=37 time=0
note_on channel=0 note=63 velocity=0 time=240
note_on channel=0 note=57 velocity=0 time=0
note_on channel=0 note=60 velocity=0 time=0
note_on channel=0 note=53 velocity=37 time=0
note_on channel=0 note=53 velocity=0 time=0
note_on channel=0 note=72 velocity=0 time=0
note_on channel=0 note=75 velocity=71 time=0
note_on channel=0 note=60 velocity=33 time=0
note_on channel=0 note=57 velocity=33 time=0
note_on channel=0 note=63 velocity=42 time=0
note_on channel=0 note=63 velocity=0 time=0
note_on channel=0 note=57 velocity=0 time=0
note_on channel=0 note=60 velocity=0 time=0
note_on channel=0 note=53 velocity=38 time=0
note_on channel=0 note=53 velocity=0 time=240
note_on channel=0 note=60 velocity=31 time=0
note_on channel=0 note=57 velocity=31 time=0
note_on channel=0 note=63 velocity=38 time=0
note_on channel=0 note=75 velocity=0 time=0
note_on channel=0 note=72 velocity=67 time=0
note_on channel=0 note=72 velocity=0 time=0
note_on channel=0 note=63 velocity=0 time=0
note_on channel=0 note=57 velocity=0 time=0
note_on channel=0 note=60 velocity=0 time=0
note_on channel=0 note=70 velocity=78 time=0
note_on channel=0 note=54 velocity=53 time=0
note_on channel=0 note=54 velocity=0 time=120
note_on channel=0 note=66 velocity=43 time=0
note_on channel=0 note=61 velocity=34 time=0
note_on channel=0 note=58 velocity=34 time=0
note_on channel=0 note=58 velocity=0 time=240
note_on channel=0 note=61 velocity=0 time=0
note_on channel=0 note=66 velocity=0 time=0
note_on channel=0 note=54 velocity=47 time=0
note_on channel=0 note=54 velocity=0 time=0
note_on channel=0 note=70 velocity=0 time=0
note_on channel=0 note=73 velocity=73 time=0
note_on channel=0 note=66 velocity=46 time=0
note_on channel=0 note=61 velocity=35 time=0
note_on channel=0 note=58 velocity=35 time=0
note_on channel=0 note=58 velocity=0 time=240
note_on channel=0 note=61 velocity=0 time=0
note_on channel=0 note=66 velocity=0 time=0
note_on channel=0 note=54 velocity=43 time=0
note_on channel=0 note=54 velocity=0 time=240
note_on channel=0 note=66 velocity=46 time=0
note_on channel=0 note=61 velocity=34 time=0
note_on channel=0 note=58 velocity=34 time=0
note_on channel=0 note=58 velocity=0 time=240
note_on channel=0 note=61 velocity=0 time=0
note_on channel=0 note=66 velocity=0 time=0
note_on channel=0 note=54 velocity=47 time=0
note_on channel=0 note=54 velocity=0 time=240
note_on channel=0 note=66 velocity=44 time=0
note_on channel=0 note=61 velocity=34 time=0
note_on channel=0 note=58 velocity=34 time=0
note_on channel=0 note=58 velocity=0 time=240
note_on channel=0 note=61 velocity=0 time=0
note_on channel=0 note=66 velocity=0 time=0
note_on channel=0 note=54 velocity=47 time=0
note_on channel=0 note=54 velocity=0 time=240
note_on channel=0 note=73 velocity=0 time=0
note_on channel=0 note=70 velocity=73 time=0
note_on channel=0 note=82 velocity=79 time=0
note_on channel=0 note=58 velocity=35 time=0
note_on channel=0 note=61 velocity=35 time=0
note_on channel=0 note=66 velocity=46 time=0
note_on channel=0 note=66 velocity=0 time=0
note_on channel=0 note=58 velocity=0 time=0
note_on channel=0 note=61 velocity=0 time=0
note_on channel=0 note=54 velocity=42 time=0
note_on channel=0 note=54 velocity=0 time=200
note_on channel=0 note=66 velocity=44 time=0
note_on channel=0 note=58 velocity=35 time=0
note_on channel=0 note=61 velocity=35 time=0
note_on channel=0 note=82 velocity=0 time=0
note_on channel=0 note=70 velocity=0 time=0
note_on channel=0 note=85 velocity=75 time=0
note_on channel=0 note=73 velocity=69 time=0
note_on channel=0 note=73 velocity=0 time=0
note_on channel=0 note=58 velocity=0 time=0
note_on channel=0 note=61 velocity=0 time=0
note_on channel=0 note=66 velocity=0 time=0
note_on channel=0 note=85 velocity=0 time=0
note_on channel=0 note=78 velocity=71 time=0
note_on channel=0 note=90 velocity=80 time=0
note_on channel=0 note=54 velocity=48 time=0
note_on channel=0 note=54 velocity=0 time=123
note_on channel=0 note=66 velocity=44 time=0
note_on channel=0 note=61 velocity=35 time=0
note_on channel=0 note=58 velocity=35 time=0
note_on channel=0 note=58 velocity=0 time=240
note_on channel=0 note=66 velocity=0 time=0
note_on channel=0 note=61 velocity=0 time=0
note_on channel=0 note=54 velocity=47 time=0
note_on channel=0 note=54 velocity=0 time=0
note_on channel=0 note=90 velocity=0 time=0
note_on channel=0 note=78 velocity=0 time=0
note_on channel=0 note=82 velocity=74 time=0
note_on channel=0 note=94 velocity=81 time=0
note_on channel=0 note=66 velocity=50 time=0
note_on channel=0 note=61 velocity=39 time=0
note_on channel=0 note=58 velocity=39 time=0
note_on channel=0 note=58 velocity=0 time=0
note_on channel=0 note=66 velocity=0 time=0
note_on channel=0 note=61 velocity=0 time=0
note_on channel=0 note=54 velocity=48 time=0
note_on channel=0 note=54 velocity=0 time=240
note_on channel=0 note=58 velocity=37 time=0
note_on channel=0 note=66 velocity=49 time=0
note_on channel=0 note=61 velocity=37 time=0
note_on channel=0 note=94 velocity=0 time=0
note_on channel=0 note=82 velocity=0 time=0
note_on channel=0 note=90 velocity=75 time=0
note_on channel=0 note=78 velocity=69 time=0
note_on channel=0 note=78 velocity=0 time=120
note_on channel=0 note=66 velocity=0 time=0
note_on channel=0 note=61 velocity=0 time=0
note_on channel=0 note=58 velocity=0 time=0
note_on channel=0 note=90 velocity=0 time=0
note_on channel=0 note=77 velocity=74 time=0
note_on channel=0 note=89 velocity=80 time=0
note_on channel=0 note=56 velocity=52 time=0
note_on channel=0 note=56 velocity=0 time=110
note_on channel=0 note=68 velocity=49 time=0
note_on channel=0 note=59 velocity=37 time=0
note_on channel=0 note=61 velocity=37 time=0
note_on channel=0 note=61 velocity=0 time=240
note_on channel=0 note=68 velocity=0 time=0
note_on channel=0 note=59 velocity=0 time=0
note_on channel=0 note=56 velocity=50 time=0
note_on channel=0 note=56 velocity=0 time=0
note_on channel=0 note=89 velocity=0 time=0
note_on channel=0 note=77 velocity=0 time=0
note_on channel=0 note=80 velocity=77 time=0
note_on channel=0 note=92 velocity=85 time=0
note_on channel=0 note=61 velocity=44 time=0
note_on channel=0 note=68 velocity=55 time=0
note_on channel=0 note=59 velocity=44 time=0
note_on channel=0 note=59 velocity=0 time=0
note_on channel=0 note=61 velocity=0 time=0
note_on channel=0 note=68 velocity=0 time=0
note_on channel=0 note=56 velocity=52 time=0
note_on channel=0 note=56 velocity=0 time=240
note_on channel=0 note=59 velocity=42 time=0
note_on channel=0 note=68 velocity=55 time=0
note_on channel=0 note=61 velocity=42 time=0
note_on channel=0 note=92 velocity=0 time=0
note_on channel=0 note=80 velocity=0 time=0
note_on channel=0 note=77 velocity=75 time=0
note_on channel=0 note=89 velocity=82 time=0
note_on channel=0 note=89 velocity=0 time=0
note_on channel=0 note=68 velocity=0 time=0
note_on channel=0 note=61 velocity=0 time=0
note_on channel=0 note=59 velocity=0 time=0
note_on channel=0 note=77 velocity=0 time=0
note_on channel=0 note=78 velocity=80 time=0
note_on channel=0 note=90 velocity=89 time=0
note_on channel=0 note=58 velocity=48 time=0
note_on channel=0 note=58 velocity=0 time=57
note_on channel=0 note=70 velocity=44 time=0
note_on channel=0 note=61 velocity=35 time=0
note_on channel=0 note=66 velocity=35 time=0
note_on channel=0 note=66 velocity=0 time=240
note_on channel=0 note=70 velocity=0 time=0
note_on channel=0 note=61 velocity=0 time=0
note_on channel=0 note=58 velocity=47 time=0
note_on channel=0 note=58 velocity=0 time=0
note_on channel=0 note=90 velocity=0 time=0
note_on channel=0 note=78 velocity=0 time=0
note_on channel=0 note=73 velocity=68 time=0
note_on channel=0 note=85 velocity=81 time=0
note_on channel=0 note=70 velocity=42 time=0
note_on channel=0 note=61 velocity=33 time=0
note_on channel=0 note=66 velocity=33 time=0
note_on channel=0 note=66 velocity=0 time=0
note_on channel=0 note=70 velocity=0 time=0
note_on channel=0 note=61 velocity=0 time=0
note_on channel=0 note=58 velocity=40 time=0
note_on channel=0 note=58 velocity=0 time=240
note_on channel=0 note=61 velocity=33 time=0
note_on channel=0 note=66 velocity=33 time=0
note_on channel=0 note=70 velocity=44 time=0
note_on channel=0 note=70 velocity=0 time=0
note_on channel=0 note=61 velocity=0 time=0
note_on channel=0 note=66 velocity=0 time=0
note_on channel=0 note=58 velocity=50 time=0
note_on channel=0 note=58 velocity=0 time=80
note_on channel=0 note=70 velocity=49 time=0
note_on channel=0 note=66 velocity=37 time=0
note_on channel=0 note=61 velocity=37 time=0
note_on channel=0 note=61 velocity=0 time=40
note_on channel=0 note=70 velocity=0 time=0
note_on channel=0 note=66 velocity=0 time=0
note_on channel=0 note=58 velocity=52 time=0
note_on channel=0 note=58 velocity=0 time=120
note_on channel=0 note=66 velocity=38 time=0
note_on channel=0 note=70 velocity=51 time=0
note_on channel=0 note=61 velocity=38 time=0
note_on channel=0 note=61 velocity=0 time=0
note_on channel=0 note=66 velocity=0 time=0
note_on channel=0 note=70 velocity=0 time=0
note_on channel=0 note=58 velocity=48 time=0
note_on channel=0 note=58 velocity=0 time=240
note_on channel=0 note=66 velocity=41 time=0
note_on channel=0 note=70 velocity=55 time=0
note_on channel=0 note=61 velocity=41 time=0
note_on channel=0 note=61 velocity=0 time=0
note_on channel=0 note=66 velocity=0 time=0
note_on channel=0 note=73 velocity=0 time=0
note_on channel=0 note=85 velocity=0 time=0
note_on channel=0 note=70 velocity=0 time=0
note_on channel=0 note=90 velocity=89 time=0
note_on channel=0 note=78 velocity=80 time=0
note_on channel=0 note=59 velocity=57 time=0
note_on channel=0 note=59 velocity=0 time=57
note_on channel=0 note=71 velocity=44 time=0
note_on channel=0 note=62 velocity=35 time=0
note_on channel=0 note=66 velocity=35 time=0
note_on channel=0 note=66 velocity=0 time=240
note_on channel=0 note=71 velocity=0 time=0
note_on channel=0 note=62 velocity=0 time=0
note_on channel=0 note=59 velocity=47 time=0
note_on channel=0 note=59 velocity=0 time=0
note_on channel=0 note=78 velocity=0 time=0
note_on channel=0 note=90 velocity=0 time=0
note_on channel=0 note=86 velocity=83 time=0
note_on channel=0 note=74 velocity=70 time=0
note_on channel=0 note=71 velocity=42 time=0
note_on channel=0 note=62 velocity=33 time=0
note_on channel=0 note=66 velocity=33 time=0
note_on channel=0 note=66 velocity=0 time=0
note_on channel=0 note=71 velocity=0 time=0
note_on channel=0 note=62 velocity=0 time=0
note_on channel=0 note=59 velocity=40 time=0
note_on channel=0 note=59 velocity=0 time=240
note_on channel=0 note=62 velocity=33 time=0
note_on channel=0 note=66 velocity=33 time=0
note_on channel=0 note=71 velocity=44 time=0
note_on channel=0 note=71 velocity=0 time=0
note_on channel=0 note=62 velocity=0 time=0
note_on channel=0 note=66 velocity=0 time=0
note_on channel=0 note=59 velocity=50 time=0
note_on channel=0 note=59 velocity=0 time=40
note_on channel=0 note=71 velocity=49 time=0
note_on channel=0 note=66 velocity=37 time=0
note_on channel=0 note=62 velocity=37 time=0
note_on channel=0 note=62 velocity=0 time=40
note_on channel=0 note=71 velocity=0 time=0
note_on channel=0 note=66 velocity=0 time=0
note_on channel=0 note=59 velocity=53 time=0
note_on channel=0 note=59 velocity=0 time=40
note_on channel=0 note=66 velocity=38 time=0
note_on channel=0 note=71 velocity=52 time=0
note_on channel=0 note=62 velocity=38 time=0
note_on channel=0 note=62 velocity=0 time=0
note_on channel=0 note=66 velocity=0 time=0
note_on channel=0 note=71 velocity=0 time=0
note_on channel=0 note=59 velocity=49 time=0
note_on channel=0 note=59 velocity=0 time=240
note_on channel=0 note=66 velocity=42 time=0
note_on channel=0 note=71 velocity=56 time=0
note_on channel=0 note=62 velocity=42 time=0
note_on channel=0 note=62 velocity=0 time=0
note_on channel=0 note=66 velocity=0 time=0
note_on channel=0 note=86 velocity=0 time=0
note_on channel=0 note=74 velocity=0 time=0
note_on channel=0 note=71 velocity=0 time=0
note_on channel=0 note=79 velocity=96 time=0
note_on channel=0 note=91 velocity=96 time=0
note_on channel=0 note=59 velocity=60 time=0
note_on channel=0 note=59 velocity=0 time=34
note_on channel=0 note=62 velocity=36 time=0
note_on channel=0 note=67 velocity=36 time=0
note_on channel=0 note=71 velocity=46 time=0
note_on channel=0 note=71 velocity=0 time=240
note_on channel=0 note=62 velocity=0 time=0
note_on channel=0 note=67 velocity=0 time=0
note_on channel=0 note=59 velocity=49 time=0
note_on channel=0 note=59 velocity=0 time=0
note_on channel=0 note=91 velocity=0 time=0
note_on channel=0 note=79 velocity=0 time=0
note_on channel=0 note=74 velocity=74 time=0
note_on channel=0 note=86 velocity=89 time=0
note_on channel=0 note=62 velocity=34 time=0
note_on channel=0 note=67 velocity=34 time=0
note_on channel=0 note=71 velocity=45 time=0
note_on channel=0 note=71 velocity=0 time=0
note_on channel=0 note=62 velocity=0 time=0
note_on channel=0 note=67 velocity=0 time=0
note_on channel=0 note=59 velocity=42 time=0
note_on channel=0 note=59 velocity=0 time=240
note_on channel=0 note=67 velocity=35 time=0
note_on channel=0 note=71 velocity=47 time=0
note_on channel=0 note=62 velocity=35 time=0
note_on channel=0 note=62 velocity=0 time=0
note_on channel=0 note=67 velocity=0 time=0
note_on channel=0 note=71 velocity=0 time=0
note_on channel=0 note=59 velocity=53 time=0
note_on channel=0 note=59 velocity=0 time=0
note_on channel=0 note=62 velocity=39 time=0
note_on channel=0 note=67 velocity=39 time=0
note_on channel=0 note=71 velocity=51 time=0
note_on channel=0 note=71 velocity=0 time=40
note_on channel=0 note=62 velocity=0 time=0
note_on channel=0 note=67 velocity=0 time=0
note_on channel=0 note=59 velocity=56 time=0
note_on channel=0 note=59 velocity=0 time=0
note_on channel=0 note=62 velocity=40 time=0
note_on channel=0 note=71 velocity=55 time=0
note_on channel=0 note=67 velocity=40 time=0
note_on channel=0 note=67 velocity=0 time=0
note_on channel=0 note=62 velocity=0 time=0
note_on channel=0 note=71 velocity=0 time=0
note_on channel=0 note=59 velocity=51 time=0
note_on channel=0 note=59 velocity=0 time=240
note_on channel=0 note=62 velocity=44 time=0
note_on channel=0 note=71 velocity=59 time=0
note_on channel=0 note=67 velocity=44 time=0
note_on channel=0 note=67 velocity=0 time=0
note_on channel=0 note=62 velocity=0 time=0
note_on channel=0 note=74 velocity=0 time=0
note_on channel=0 note=86 velocity=0 time=0
note_on channel=0 note=71 velocity=0 time=0
note_on channel=0 note=79 velocity=102 time=0
note_on channel=0 note=91 velocity=102 time=0
note_on channel=0 note=60 velocity=64 time=0
note_on channel=0 note=60 velocity=0 time=114
note_on channel=0 note=64 velocity=38 time=0
note_on channel=0 note=67 velocity=38 time=0
note_on channel=0 note=72 velocity=48 time=0
note_on channel=0 note=72 velocity=0 time=240
note_on channel=0 note=64 velocity=0 time=0
note_on channel=0 note=67 velocity=0 time=0
note_on channel=0 note=60 velocity=51 time=0
note_on channel=0 note=60 velocity=0 time=0
note_on channel=0 note=91 velocity=0 time=0
note_on channel=0 note=79 velocity=0 time=0
note_on channel=0 note=88 velocity=94 time=0
note_on channel=0 note=76 velocity=80 time=0
note_on channel=0 note=64 velocity=37 time=0
note_on channel=0 note=67 velocity=37 time=0
note_on channel=0 note=72 velocity=48 time=0
note_on channel=0 note=72 velocity=0 time=0
note_on channel=0 note=64 velocity=0 time=0
note_on channel=0 note=67 velocity=0 time=0
note_on channel=0 note=60 velocity=47 time=0
note_on channel=0 note=60 velocity=0 time=240
note_on channel=0 note=67 velocity=37 time=0
note_on channel=0 note=72 velocity=50 time=0
note_on channel=0 note=64 velocity=37 time=0
note_on channel=0 note=64 velocity=0 time=0
note_on channel=0 note=67 velocity=0 time=0
note_on channel=0 note=72 velocity=0 time=0
note_on channel=0 note=60 velocity=57 time=0
note_on channel=0 note=60 velocity=0 time=40
note_on channel=0 note=64 velocity=41 time=0
note_on channel=0 note=67 velocity=41 time=0
note_on channel=0 note=72 velocity=55 time=0
note_on channel=0 note=72 velocity=0 time=40
note_on channel=0 note=64 velocity=0 time=0
note_on channel=0 note=67 velocity=0 time=0
note_on channel=0 note=60 velocity=59 time=0
note_on channel=0 note=60 velocity=0 time=40
note_on channel=0 note=64 velocity=44 time=0
note_on channel=0 note=72 velocity=58 time=0
note_on channel=0 note=67 velocity=44 time=0
note_on channel=0 note=67 velocity=0 time=0
note_on channel=0 note=64 velocity=0 time=0
note_on channel=0 note=72 velocity=0 time=0
note_on channel=0 note=60 velocity=55 time=0
note_on channel=0 note=60 velocity=0 time=240
note_on channel=0 note=64 velocity=47 time=0
note_on channel=0 note=72 velocity=61 time=0
note_on channel=0 note=67 velocity=47 time=0
note_on channel=0 note=67 velocity=0 time=0
note_on channel=0 note=64 velocity=0 time=0
note_on channel=0 note=88 velocity=0 time=0
note_on channel=0 note=76 velocity=0 time=0
note_on channel=0 note=72 velocity=0 time=0
note_on channel=0 note=61 velocity=102 time=0
note_on channel=0 note=64 velocity=78 time=51
note_on channel=0 note=67 velocity=78 time=120
note_on channel=0 note=70 velocity=78 time=120
note_on channel=0 note=73 velocity=78 time=0
note_on channel=0 note=79 velocity=75 time=0
note_on channel=0 note=82 velocity=71 time=120
note_on channel=0 note=85 velocity=70 time=120
note_on channel=0 note=85 velocity=0 time=120
note_on channel=0 note=88 velocity=70 time=0
note_on channel=0 note=82 velocity=0 time=120
note_on channel=0 note=91 velocity=73 time=0
note_on channel=0 note=91 velocity=0 time=0
note_on channel=0 note=88 velocity=0 time=0
note_on channel=0 note=79 velocity=0 time=0
note_on channel=0 note=79 velocity=71 time=0
note_on channel=0 note=79 velocity=0 time=0
note_on channel=0 note=73 velocity=0 time=0
note_on channel=0 note=67 velocity=0 time=0
note_on channel=0 note=70 velocity=0 time=0
note_on channel=0 note=64 velocity=0 time=0
note_on channel=0 note=61 velocity=0 time=0
note_on channel=0 note=64 velocity=101 time=0
note_on channel=0 note=67 velocity=78 time=17
note_on channel=0 note=70 velocity=78 time=120
note_on channel=0 note=73 velocity=78 time=120
note_on channel=0 note=76 velocity=79 time=0
note_on channel=0 note=79 velocity=77 time=0
note_on channel=0 note=82 velocity=72 time=120
note_on channel=0 note=85 velocity=72 time=120
note_on channel=0 note=85 velocity=0 time=120
note_on channel=0 note=88 velocity=70 time=0
note_on channel=0 note=82 velocity=0 time=120
note_on channel=0 note=91 velocity=74 time=0
note_on channel=0 note=91 velocity=0 time=0
note_on channel=0 note=88 velocity=0 time=0
note_on channel=0 note=79 velocity=0 time=0
note_on channel=0 note=79 velocity=72 time=0
note_on channel=0 note=79 velocity=0 time=0
note_on channel=0 note=76 velocity=0 time=0
note_on channel=0 note=70 velocity=0 time=0
note_on channel=0 note=73 velocity=0 time=0
note_on channel=0 note=67 velocity=0 time=0
note_on channel=0 note=64 velocity=0 time=0
note_on channel=0 note=67 velocity=101 time=0
note_on channel=0 note=70 velocity=84 time=28
note_on channel=0 note=73 velocity=84 time=120
note_on channel=0 note=76 velocity=84 time=120
note_on channel=0 note=79 velocity=77 time=0
note_on channel=0 note=82 velocity=71 time=120
note_on channel=0 note=85 velocity=71 time=120
note_on channel=0 note=85 velocity=0 time=120
note_on channel=0 note=88 velocity=70 time=0
note_on channel=0 note=82 velocity=0 time=0
note_on channel=0 note=91 velocity=76 time=0
note_on channel=0 note=91 velocity=0 time=120
note_on channel=0 note=88 velocity=0 time=0
note_on channel=0 note=79 velocity=0 time=0
note_on channel=0 note=79 velocity=71 time=0
note_on channel=0 note=79 velocity=0 time=0
note_on channel=0 note=76 velocity=0 time=0
note_on channel=0 note=67 velocity=0 time=0
note_on channel=0 note=70 velocity=0 time=0
note_on channel=0 note=73 velocity=0 time=0
note_on channel=0 note=70 velocity=100 time=0
note_on channel=0 note=73 velocity=84 time=11
note_on channel=0 note=76 velocity=86 time=120
note_on channel=0 note=79 velocity=77 time=0
note_on channel=0 note=82 velocity=71 time=120
note_on channel=0 note=85 velocity=73 time=120
note_on channel=0 note=85 velocity=0 time=120
note_on channel=0 note=88 velocity=70 time=0
note_on channel=0 note=82 velocity=0 time=120
note_on channel=0 note=91 velocity=76 time=0
note_on channel=0 note=91 velocity=0 time=0
note_on channel=0 note=88 velocity=0 time=0
note_on channel=0 note=79 velocity=0 time=0
note_on channel=0 note=79 velocity=71 time=0
note_on channel=0 note=79 velocity=0 time=0
note_on channel=0 note=73 velocity=0 time=0
note_on channel=0 note=76 velocity=0 time=0
note_on channel=0 note=70 velocity=0 time=0
note_on channel=0 note=73 velocity=96 time=0
note_on channel=0 note=76 velocity=84 time=45
note_on channel=0 note=82 velocity=77 time=120
note_on channel=0 note=79 velocity=84 time=0
note_on channel=0 note=85 velocity=71 time=120
note_on channel=0 note=88 velocity=74 time=120
note_on channel=0 note=88 velocity=0 time=0
note_on channel=0 note=91 velocity=70 time=0
note_on channel=0 note=91 velocity=0 time=0
note_on channel=0 note=85 velocity=0 time=0
note_on channel=0 note=82 velocity=0 time=0
note_on channel=0 note=73 velocity=0 time=0
note_on channel=0 note=76 velocity=0 time=0
note_on channel=0 note=79 velocity=0 time=0
note_on channel=0 note=76 velocity=98 time=0
note_on channel=0 note=79 velocity=84 time=28
note_on channel=0 note=85 velocity=77 time=120
note_on channel=0 note=82 velocity=84 time=0
note_on channel=0 note=88 velocity=72 time=120
note_on channel=0 note=91 velocity=74 time=120
note_on channel=0 note=91 velocity=0 time=0
note_on channel=0 note=94 velocity=70 time=0
note_on channel=0 note=94 velocity=0 time=0
note_on channel=0 note=88 velocity=0 time=0
note_on channel=0 note=85 velocity=0 time=0
note_on channel=0 note=76 velocity=0 time=0
note_on channel=0 note=79 velocity=0 time=0
note_on channel=0 note=82 velocity=0 time=0
note_on channel=0 note=79 velocity=100 time=0
note_on channel=0 note=79 velocity=0 time=5
note_on channel=0 note=82 velocity=84 time=0
note_on channel=0 note=82 velocity=0 time=120
note_on channel=0 note=85 velocity=84 time=0
note_on channel=0 note=85 velocity=0 time=120
note_on channel=0 note=88 velocity=73 time=0
note_on channel=0 note=88 velocity=0 time=120
note_on channel=0 note=91 velocity=74 time=0
note_on channel=0 note=91 velocity=0 time=0
note_on channel=0 note=94 velocity=73 time=0
note_on channel=0 note=94 velocity=0 time=0
note_on channel=0 note=82 velocity=100 time=0
note_on channel=0 note=82 velocity=0 time=120
note_on channel=0 note=85 velocity=84 time=0
note_on channel=0 note=85 velocity=0 time=120
note_on channel=0 note=88 velocity=84 time=0
note_on channel=0 note=88 velocity=0 time=120
note_on channel=0 note=88 velocity=73 time=0
note_on channel=0 note=88 velocity=0 time=120
note_on channel=0 note=91 velocity=74 time=0
note_on channel=0 note=91 velocity=0 time=0
note_on channel=0 note=94 velocity=73 time=0
note_on channel=0 note=94 velocity=0 time=0
note_on channel=0 note=85 velocity=102 time=0
note_on channel=0 note=85 velocity=0 time=23
note_on channel=0 note=88 velocity=84 time=0
note_on channel=0 note=88 velocity=0 time=114
note_on channel=0 note=88 velocity=77 time=6
note_on channel=0 note=88 velocity=0 time=120
note_on channel=0 note=91 velocity=75 time=0
note_on channel=0 note=91 velocity=0 time=120
note_on channel=0 note=94 velocity=74 time=0
note_on channel=0 note=94 velocity=0 time=0
note_on channel=0 note=82 velocity=97 time=0
note_on channel=0 note=82 velocity=0 time=120
note_on channel=0 note=85 velocity=84 time=0
note_on channel=0 note=85 velocity=0 time=114
note_on channel=0 note=85 velocity=77 time=6
note_on channel=0 note=85 velocity=0 time=80
note_on channel=0 note=88 velocity=75 time=0
note_on channel=0 note=88 velocity=0 time=120
note_on channel=0 note=91 velocity=74 time=0
note_on channel=0 note=91 velocity=0 time=160
note_on channel=0 note=79 velocity=96 time=0
note_on channel=0 note=79 velocity=0 time=0
note_on channel=0 note=82 velocity=84 time=0
note_on channel=0 note=82 velocity=0 time=114
note_on channel=0 note=82 velocity=77 time=6
note_on channel=0 note=82 velocity=0 time=120
note_on channel=0 note=85 velocity=75 time=0
note_on channel=0 note=85 velocity=0 time=80
note_on channel=0 note=88 velocity=74 time=0
note_on channel=0 note=88 velocity=0 time=40
note_on channel=0 note=76 velocity=96 time=0
note_on channel=0 note=76 velocity=0 time=120
note_on channel=0 note=79 velocity=84 time=0
note_on channel=0 note=79 velocity=0 time=114
note_on channel=0 note=79 velocity=77 time=0
note_on channel=0 note=79 velocity=0 time=120
note_on channel=0 note=82 velocity=75 time=0
note_on channel=0 note=82 velocity=0 time=120
note_on channel=0 note=85 velocity=74 time=0
note_on channel=0 note=85 velocity=0 time=200
note_on channel=0 note=73 velocity=96 time=0
note_on channel=0 note=73 velocity=0 time=40
note_on channel=0 note=76 velocity=84 time=0
note_on channel=0 note=76 velocity=0 time=114
note_on channel=0 note=76 velocity=77 time=6
note_on channel=0 note=76 velocity=0 time=0
note_on channel=0 note=79 velocity=72 time=0
note_on channel=0 note=79 velocity=0 time=120
note_on channel=0 note=82 velocity=74 time=0
note_on channel=0 note=82 velocity=0 time=80
note_on channel=0 note=70 velocity=96 time=0
note_on channel=0 note=70 velocity=0 time=120
note_on channel=0 note=73 velocity=84 time=0
note_on channel=0 note=73 velocity=0 time=34
note_on channel=0 note=73 velocity=77 time=0
note_on channel=0 note=73 velocity=0 time=120
note_on channel=0 note=76 velocity=75 time=0
note_on channel=0 note=76 velocity=0 time=120
note_on channel=0 note=79 velocity=74 time=0
note_on channel=0 note=79 velocity=0 time=240
note_on channel=0 note=67 velocity=96 time=0
note_on channel=0 note=67 velocity=0 time=120
note_on channel=0 note=70 velocity=84 time=0
note_on channel=0 note=70 velocity=0 time=114
note_on channel=0 note=70 velocity=77 time=6
note_on channel=0 note=70 velocity=0 time=120
note_on channel=0 note=73 velocity=75 time=0
note_on channel=0 note=73 velocity=0 time=120
note_on channel=0 note=76 velocity=74 time=0
note_on channel=0 note=76 velocity=0 time=240
note_on channel=0 note=64 velocity=96 time=0
note_on channel=0 note=64 velocity=0 time=120
note_on channel=0 note=67 velocity=84 time=0
note_on channel=0 note=67 velocity=0 time=114
note_on channel=0 note=67 velocity=77 time=6
note_on channel=0 note=67 velocity=0 time=120
note_on channel=0 note=70 velocity=75 time=0
note_on channel=0 note=70 velocity=0 time=120
note_on channel=0 note=73 velocity=74 time=0
note_on channel=0 note=73 velocity=0 time=240
note_on channel=0 note=61 velocity=91 time=0
note_on channel=0 note=61 velocity=0 time=17
note_on channel=0 note=64 velocity=80 time=0
note_on channel=0 note=64 velocity=0 time=114
note_on channel=0 note=64 velocity=72 time=6
note_on channel=0 note=64 velocity=0 time=120
note_on channel=0 note=67 velocity=71 time=0
note_on channel=0 note=67 velocity=0 time=120
note_on channel=0 note=70 velocity=70 time=0
note_on channel=0 note=70 velocity=0 time=240
note_on channel=0 note=58 velocity=91 time=0
note_on channel=0 note=58 velocity=0 time=120
note_on channel=0 note=61 velocity=80 time=0
note_on channel=0 note=61 velocity=0 time=114
note_on channel=0 note=61 velocity=72 time=6
note_on channel=0 note=61 velocity=0 time=120
note_on channel=0 note=64 velocity=71 time=0
note_on channel=0 note=64 velocity=0 time=120
note_on channel=0 note=67 velocity=70 time=0
note_on channel=0 note=67 velocity=0 time=240
note_on channel=0 note=55 velocity=91 time=0
note_on channel=0 note=55 velocity=0 time=120
note_on channel=0 note=58 velocity=80 time=0
note_on channel=0 note=58 velocity=0 time=114
note_on channel=0 note=58 velocity=72 time=6
note_on channel=0 note=58 velocity=0 time=120
note_on channel=0 note=61 velocity=71 time=0
note_on channel=0 note=61 velocity=0 time=120
note_on channel=0 note=64 velocity=70 time=0
note_on channel=0 note=64 velocity=0 time=240
note_on channel=0 note=52 velocity=91 time=0
note_on channel=0 note=52 velocity=0 time=120
note_on channel=0 note=55 velocity=80 time=0
note_on channel=0 note=55 velocity=0 time=114
note_on channel=0 note=55 velocity=72 time=6
note_on channel=0 note=55 velocity=0 time=120
note_on channel=0 note=58 velocity=71 time=0
note_on channel=0 note=58 velocity=0 time=120
note_on channel=0 note=61 velocity=70 time=0
note_on channel=0 note=61 velocity=0 time=0
note_on channel=0 note=49 velocity=91 time=0
note_on channel=0 note=49 velocity=0 time=23
note_on channel=0 note=52 velocity=80 time=0
note_on channel=0 note=52 velocity=0 time=74
note_on channel=0 note=52 velocity=72 time=0
note_on channel=0 note=52 velocity=0 time=40
note_on channel=0 note=55 velocity=71 time=0
note_on channel=0 note=55 velocity=0 time=0
note_on channel=0 note=58 velocity=70 time=0
note_on channel=0 note=58 velocity=0 time=0
note_on channel=0 note=46 velocity=91 time=0
note_on channel=0 note=46 velocity=0 time=40
note_on channel=0 note=49 velocity=80 time=0
note_on channel=0 note=49 velocity=0 time=34
note_on channel=0 note=49 velocity=72 time=6
note_on channel=0 note=49 velocity=0 time=0
note_on channel=0 note=52 velocity=71 time=0
note_on channel=0 note=52 velocity=0 time=40
note_on channel=0 note=55 velocity=70 time=0
note_on channel=0 note=55 velocity=0 time=40
note_on channel=0 note=43 velocity=91 time=0
note_on channel=0 note=43 velocity=0 time=0
note_on channel=0 note=46 velocity=80 time=0
note_on channel=0 note=46 velocity=0 time=34
note_on channel=0 note=46 velocity=72 time=6
note_on channel=0 note=46 velocity=0 time=80
note_on channel=0 note=49 velocity=71 time=0
note_on channel=0 note=49 velocity=0 time=0
note_on channel=0 note=52 velocity=70 time=0
note_on channel=0 note=52 velocity=0 time=0
note_on channel=0 note=40 velocity=91 time=0
note_on channel=0 note=40 velocity=0 time=40
note_on channel=0 note=43 velocity=80 time=0
note_on channel=0 note=43 velocity=0 time=74
note_on channel=0 note=43 velocity=72 time=0
note_on channel=0 note=43 velocity=0 time=40
note_on channel=0 note=46 velocity=71 time=0
note_on channel=0 note=46 velocity=0 time=0
note_on channel=0 note=49 velocity=70 time=0
note_on channel=0 note=49 velocity=0 time=0
note_on channel=0 note=46 velocity=71 time=0
note_on channel=0 note=43 velocity=71 time=0
note_on channel=0 note=37 velocity=104 time=0
note_on channel=0 note=43 velocity=0 time=45
note_on channel=0 note=46 velocity=0 time=0
note_on channel=0 note=52 velocity=63 time=0
note_on channel=0 note=52 velocity=0 time=120
note_on channel=0 note=46 velocity=71 time=0
note_on channel=0 note=43 velocity=71 time=0
note_on channel=0 note=43 velocity=0 time=120
note_on channel=0 note=46 velocity=0 time=0
note_on channel=0 note=52 velocity=63 time=0
note_on channel=0 note=52 velocity=0 time=120
note_on channel=0 note=37 velocity=0 time=0
note_on channel=0 note=46 velocity=71 time=0
note_on channel=0 note=43 velocity=71 time=0
note_on channel=0 note=43 velocity=0 time=120
note_on channel=0 note=46 velocity=0 time=0
note_on channel=0 note=52 velocity=63 time=0
note_on channel=0 note=52 velocity=0 time=0
note_on channel=0 note=46 velocity=71 time=0
note_on channel=0 note=43 velocity=71 time=0
note_on channel=0 note=73 velocity=106 time=0
note_on channel=0 note=43 velocity=0 time=23
note_on channel=0 note=46 velocity=0 time=0
note_on channel=0 note=52 velocity=63 time=0
note_on channel=0 note=52 velocity=0 time=120
note_on channel=0 note=73 velocity=0 time=0
note_on channel=0 note=46 velocity=71 time=0
note_on channel=0 note=43 velocity=71 time=0
note_on channel=0 note=73 velocity=100 time=0
note_on channel=0 note=43 velocity=0 time=120
note_on channel=0 note=46 velocity=0 time=0
note_on channel=0 note=52 velocity=63 time=0
note_on channel=0 note=52 velocity=0 time=120
note_on channel=0 note=73 velocity=0 time=0
note_on channel=0 note=43 velocity=71 time=0
note_on channel=0 note=46 velocity=71 time=0
note_on channel=0 note=73 velocity=100 time=0
note_on channel=0 note=46 velocity=0 time=120
note_on channel=0 note=43 velocity=0 time=0
note_on channel=0 note=52 velocity=63 time=0
note_on channel=0 note=52 velocity=0 time=120
note_on channel=0 note=73 velocity=0 time=0
note_on channel=0 note=46 velocity=71 time=0
note_on channel=0 note=43 velocity=71 time=0
note_on channel=0 note=73 velocity=105 time=0
note_on channel=0 note=43 velocity=0 time=120
note_on channel=0 note=46 velocity=0 time=0
note_on channel=0 note=52 velocity=63 time=0
note_on channel=0 note=52 velocity=0 time=120
note_on channel=0 note=43 velocity=71 time=0
note_on channel=0 note=46 velocity=71 time=0
note_on channel=0 note=46 velocity=0 time=120
note_on channel=0 note=43 velocity=0 time=0
note_on channel=0 note=52 velocity=63 time=0
note_on channel=0 note=52 velocity=0 time=0
note_on channel=0 note=73 velocity=0 time=0
note_on channel=0 note=46 velocity=71 time=0
note_on channel=0 note=43 velocity=71 time=0
note_on channel=0 note=43 velocity=0 time=120
note_on channel=0 note=46 velocity=0 time=0
note_on channel=0 note=52 velocity=63 time=0
note_on channel=0 note=52 velocity=0 time=0
note_on channel=0 note=46 velocity=71 time=0
note_on channel=0 note=43 velocity=71 time=0
note_on channel=0 note=37 velocity=98 time=0
note_on channel=0 note=43 velocity=0 time=45
note_on channel=0 note=46 velocity=0 time=0
note_on channel=0 note=52 velocity=63 time=0
note_on channel=0 note=52 velocity=0 time=120
note_on channel=0 note=37 velocity=0 time=0
note_on channel=0 note=46 velocity=71 time=0
note_on channel=0 note=43 velocity=71 time=0
note_on channel=0 note=37 velocity=93 time=0
note_on channel=0 note=43 velocity=0 time=120
note_on channel=0 note=46 velocity=0 time=0
note_on channel=0 note=52 velocity=63 time=0
note_on channel=0 note=52 velocity=0 time=120
note_on channel=0 note=37 velocity=0 time=0
note_on channel=0 note=43 velocity=71 time=0
note_on channel=0 note=46 velocity=71 time=0
note_on channel=0 note=37 velocity=93 time=0
note_on channel=0 note=46 velocity=0 time=120
note_on channel=0 note=43 velocity=0 time=0
note_on channel=0 note=52 velocity=63 time=0
note_on channel=0 note=52 velocity=0 time=0
note_on channel=0 note=37 velocity=0 time=0
note_on channel=0 note=43 velocity=71 time=0
note_on channel=0 note=46 velocity=71 time=0
note_on channel=0 note=37 velocity=100 time=0
note_on channel=0 note=46 velocity=0 time=45
note_on channel=0 note=43 velocity=0 time=0
note_on channel=0 note=52 velocity=63 time=0
note_on channel=0 note=52 velocity=0 time=120
note_on channel=0 note=46 velocity=71 time=0
note_on channel=0 note=43 velocity=71 time=0
note_on channel=0 note=43 velocity=0 time=120
note_on channel=0 note=46 velocity=0 time=0
note_on channel=0 note=52 velocity=63 time=0
note_on channel=0 note=52 velocity=0 time=120
note_on channel=0 note=37 velocity=0 time=0
note_on channel=0 note=43 velocity=71 time=0
note_on channel=0 note=46 velocity=71 time=0
note_on channel=0 note=46 velocity=0 time=120
note_on channel=0 note=43 velocity=0 time=0
note_on channel=0 note=52 velocity=63 time=0
note_on channel=0 note=52 velocity=0 time=0
note_on channel=0 note=43 velocity=71 time=0
note_on channel=0 note=46 velocity=71 time=0
note_on channel=0 note=73 velocity=106 time=0
note_on channel=0 note=46 velocity=0 time=97
note_on channel=0 note=43 velocity=0 time=0
note_on channel=0 note=52 velocity=63 time=0
note_on channel=0 note=52 velocity=0 time=114
note_on channel=0 note=73 velocity=0 time=0
note_on channel=0 note=46 velocity=71 time=0
note_on channel=0 note=43 velocity=71 time=0
note_on channel=0 note=73 velocity=100 time=0
note_on channel=0 note=43 velocity=0 time=120
note_on channel=0 note=46 velocity=0 time=0
note_on channel=0 note=52 velocity=63 time=0
note_on channel=0 note=52 velocity=0 time=120
note_on channel=0 note=73 velocity=0 time=0
note_on channel=0 note=43 velocity=71 time=0
note_on channel=0 note=46 velocity=71 time=0
note_on channel=0 note=73 velocity=100 time=0
note_on channel=0 note=46 velocity=0 time=120
note_on channel=0 note=43 velocity=0 time=0
note_on channel=0 note=52 velocity=63 time=0
note_on channel=0 note=52 velocity=0 time=120
note_on channel=0 note=73 velocity=0 time=0
note_on channel=0 note=43 velocity=71 time=0
note_on channel=0 note=46 velocity=71 time=0
note_on channel=0 note=73 velocity=105 time=0
note_on channel=0 note=46 velocity=0 time=120
note_on channel=0 note=43 velocity=0 time=0
note_on channel=0 note=52 velocity=63 time=0
note_on channel=0 note=52 velocity=0 time=120
note_on channel=0 note=43 velocity=71 time=0
note_on channel=0 note=46 velocity=71 time=0
note_on channel=0 note=46 velocity=0 time=120
note_on channel=0 note=43 velocity=0 time=0
note_on channel=0 note=52 velocity=63 time=0
note_on channel=0 note=52 velocity=0 time=0
note_on channel=0 note=73 velocity=0 time=0
note_on channel=0 note=43 velocity=71 time=0
note_on channel=0 note=46 velocity=71 time=0
note_on channel=0 note=46 velocity=0 time=120
note_on channel=0 note=43 velocity=0 time=0
note_on channel=0 note=52 velocity=63 time=0
note_on channel=0 note=52 velocity=0 time=0
note_on channel=0 note=46 velocity=71 time=0
note_on channel=0 note=43 velocity=71 time=0
note_on channel=0 note=37 velocity=98 time=0
note_on channel=0 note=43 velocity=0 time=40
note_on channel=0 note=46 velocity=0 time=0
note_on channel=0 note=52 velocity=63 time=0
note_on channel=0 note=52 velocity=0 time=120
note_on channel=0 note=37 velocity=0 time=0
note_on channel=0 note=43 velocity=71 time=0
note_on channel=0 note=46 velocity=71 time=0
note_on channel=0 note=37 velocity=93 time=0
note_on channel=0 note=46 velocity=0 time=120
note_on channel=0 note=43 velocity=0 time=0
note_on channel=0 note=52 velocity=63 time=0
note_on channel=0 note=52 velocity=0 time=120
note_on channel=0 note=37 velocity=0 time=0
note_on channel=0 note=46 velocity=71 time=0
note_on channel=0 note=43 velocity=71 time=0
note_on channel=0 note=37 velocity=93 time=0
note_on channel=0 note=43 velocity=0 time=120
note_on channel=0 note=46 velocity=0 time=0
note_on channel=0 note=52 velocity=63 time=0
note_on channel=0 note=52 velocity=0 time=0
note_on channel=0 note=37 velocity=0 time=0
note_on channel=0 note=46 velocity=71 time=0
note_on channel=0 note=43 velocity=71 time=0
note_on channel=0 note=36 velocity=100 time=0
note_on channel=0 note=43 velocity=0 time=63
note_on channel=0 note=46 velocity=0 time=0
note_on channel=0 note=52 velocity=63 time=0
note_on channel=0 note=52 velocity=0 time=120
note_on channel=0 note=43 velocity=71 time=0
note_on channel=0 note=46 velocity=71 time=0
note_on channel=0 note=46 velocity=0 time=120
note_on channel=0 note=43 velocity=0 time=0
note_on channel=0 note=52 velocity=63 time=0
note_on channel=0 note=52 velocity=0 time=120
note_on channel=0 note=36 velocity=0 time=0
note_on channel=0 note=43 velocity=71 time=0
note_on channel=0 note=46 velocity=71 time=0
note_on channel=0 note=46 velocity=0 time=120
note_on channel=0 note=43 velocity=0 time=0
note_on channel=0 note=52 velocity=63 time=0
note_on channel=0 note=52 velocity=0 time=0
note_on channel=0 note=46 velocity=71 time=0
note_on channel=0 note=43 velocity=71 time=0
note_on channel=0 note=73 velocity=106 time=0
note_on channel=0 note=43 velocity=0 time=34
note_on channel=0 note=46 velocity=0 time=0
note_on channel=0 note=52 velocity=63 time=0
note_on channel=0 note=52 velocity=0 time=120
note_on channel=0 note=73 velocity=0 time=0
note_on channel=0 note=43 velocity=71 time=0
note_on channel=0 note=46 velocity=71 time=0
note_on channel=0 note=73 velocity=100 time=0
note_on channel=0 note=46 velocity=0 time=120
note_on channel=0 note=43 velocity=0 time=0
note_on channel=0 note=52 velocity=63 time=0
note_on channel=0 note=52 velocity=0 time=120
note_on channel=0 note=73 velocity=0 time=0
note_on channel=0 note=46 velocity=71 time=0
note_on channel=0 note=43 velocity=71 time=0
note_on channel=0 note=73 velocity=100 time=0
note_on channel=0 note=43 velocity=0 time=120
note_on channel=0 note=46 velocity=0 time=0
note_on channel=0 note=52 velocity=63 time=0
note_on channel=0 note=52 velocity=0 time=120
note_on channel=0 note=73 velocity=0 time=0
note_on channel=0 note=46 velocity=71 time=0
note_on channel=0 note=43 velocity=71 time=0
note_on channel=0 note=72 velocity=105 time=0
note_on channel=0 note=43 velocity=0 time=120
note_on channel=0 note=46 velocity=0 time=0
note_on channel=0 note=52 velocity=63 time=0
note_on channel=0 note=52 velocity=0 time=120
note_on channel=0 note=43 velocity=71 time=0
note_on channel=0 note=46 velocity=71 time=0
note_on channel=0 note=46 velocity=0 time=120
note_on channel=0 note=43 velocity=0 time=0
note_on channel=0 note=52 velocity=63 time=0
note_on channel=0 note=52 velocity=0 time=0
note_on channel=0 note=72 velocity=0 time=0
note_on channel=0 note=43 velocity=71 time=0
note_on channel=0 note=46 velocity=71 time=0
note_on channel=0 note=46 velocity=0 time=120
note_on channel=0 note=43 velocity=0 time=0
note_on channel=0 note=52 velocity=63 time=0
note_on channel=0 note=52 velocity=0 time=0
note_on channel=0 note=46 velocity=71 time=0
note_on channel=0 note=43 velocity=71 time=0
note_on channel=0 note=37 velocity=98 time=0
note_on channel=0 note=43 velocity=0 time=11
note_on channel=0 note=46 velocity=0 time=0
note_on channel=0 note=52 velocity=63 time=0
note_on channel=0 note=52 velocity=0 time=120
note_on channel=0 note=37 velocity=0 time=0
note_on channel=0 note=43 velocity=71 time=0
note_on channel=0 note=46 velocity=71 time=0
note_on channel=0 note=37 velocity=93 time=0
note_on channel=0 note=46 velocity=0 time=120
note_on channel=0 note=43 velocity=0 time=0
note_on channel=0 note=52 velocity=63 time=0
note_on channel=0 note=52 velocity=0 time=120
note_on channel=0 note=37 velocity=0 time=0
note_on channel=0 note=43 velocity=71 time=0
note_on channel=0 note=46 velocity=71 time=0
note_on channel=0 note=37 velocity=93 time=0
note_on channel=0 note=46 velocity=0 time=120
note_on channel=0 note=43 velocity=0 time=0
note_on channel=0 note=52 velocity=63 time=0
note_on channel=0 note=52 velocity=0 time=0
note_on channel=0 note=37 velocity=0 time=0
note_on channel=0 note=43 velocity=71 time=0
note_on channel=0 note=46 velocity=71 time=0
note_on channel=0 note=36 velocity=100 time=0
note_on channel=0 note=46 velocity=0 time=51
note_on channel=0 note=43 velocity=0 time=0
note_on channel=0 note=52 velocity=63 time=0
note_on channel=0 note=52 velocity=0 time=120
note_on channel=0 note=43 velocity=71 time=0
note_on channel=0 note=46 velocity=71 time=0
note_on channel=0 note=46 velocity=0 time=120
note_on channel=0 note=43 velocity=0 time=0
note_on channel=0 note=52 velocity=63 time=0
note_on channel=0 note=52 velocity=0 time=120
note_on channel=0 note=36 velocity=0 time=0
note_on channel=0 note=43 velocity=71 time=0
note_on channel=0 note=46 velocity=71 time=0
note_on channel=0 note=46 velocity=0 time=120
note_on channel=0 note=43 velocity=0 time=0
note_on channel=0 note=52 velocity=63 time=0
note_on channel=0 note=52 velocity=0 time=0
note_on channel=0 note=46 velocity=71 time=0
note_on channel=0 note=43 velocity=71 time=0
note_on channel=0 note=73 velocity=106 time=0
note_on channel=0 note=43 velocity=0 time=28
note_on channel=0 note=46 velocity=0 time=0
note_on channel=0 note=52 velocity=63 time=0
note_on channel=0 note=52 velocity=0 time=120
note_on channel=0 note=73 velocity=0 time=0
note_on channel=0 note=43 velocity=71 time=0
note_on channel=0 note=46 velocity=71 time=0
note_on channel=0 note=73 velocity=100 time=0
note_on channel=0 note=46 velocity=0 time=120
note_on channel=0 note=43 velocity=0 time=0
note_on channel=0 note=52 velocity=63 time=0
note_on channel=0 note=52 velocity=0 time=120
note_on channel=0 note=73 velocity=0 time=0
note_on channel=0 note=46 velocity=71 time=0
note_on channel=0 note=43 velocity=71 time=0
note_on channel=0 note=73 velocity=100 time=0
note_on channel=0 note=43 velocity=0 time=120
note_on channel=0 note=46 velocity=0 time=0
note_on channel=0 note=52 velocity=63 time=0
note_on channel=0 note=52 velocity=0 time=120
note_on channel=0 note=73 velocity=0 time=0
note_on channel=0 note=46 velocity=71 time=0
note_on channel=0 note=43 velocity=71 time=0
note_on channel=0 note=72 velocity=105 time=0
note_on channel=0 note=43 velocity=0 time=120
note_on channel=0 note=46 velocity=0 time=0
note_on channel=0 note=52 velocity=63 time=0
note_on channel=0 note=52 velocity=0 time=120
note_on channel=0 note=43 velocity=71 time=0
note_on channel=0 note=46 velocity=71 time=0
note_on channel=0 note=46 velocity=0 time=120
note_on channel=0 note=43 velocity=0 time=0
note_on channel=0 note=52 velocity=63 time=0
note_on channel=0 note=52 velocity=0 time=0
note_on channel=0 note=72 velocity=0 time=0
note_on channel=0 note=43 velocity=71 time=0
note_on channel=0 note=46 velocity=71 time=0
note_on channel=0 note=46 velocity=0 time=120
note_on channel=0 note=43 velocity=0 time=0
note_on channel=0 note=52 velocity=63 time=0
note_on channel=0 note=52 velocity=0 time=0
note_on channel=0 note=43 velocity=71 time=0
note_on channel=0 note=46 velocity=71 time=0
note_on channel=0 note=37 velocity=110 time=0
note_on channel=0 note=46 velocity=0 time=28
note_on channel=0 note=43 velocity=0 time=0
note_on channel=0 note=52 velocity=63 time=0
note_on channel=0 note=52 velocity=0 time=120
note_on channel=0 note=37 velocity=0 time=0
note_on channel=0 note=46 velocity=71 time=0
note_on channel=0 note=43 velocity=71 time=0
note_on channel=0 note=37 velocity=105 time=0
note_on channel=0 note=43 velocity=0 time=120
note_on channel=0 note=46 velocity=0 time=0
note_on channel=0 note=52 velocity=63 time=0
note_on channel=0 note=52 velocity=0 time=0
note_on channel=0 note=37 velocity=0 time=0
note_on channel=0 note=43 velocity=71 time=0
note_on channel=0 note=46 velocity=71 time=0
note_on channel=0 note=37 velocity=105 time=0
note_on channel=0 note=46 velocity=0 time=120
note_on channel=0 note=43 velocity=0 time=0
note_on channel=0 note=52 velocity=63 time=0
note_on channel=0 note=52 velocity=0 time=0
note_on channel=0 note=37 velocity=0 time=0
note_on channel=0 note=43 velocity=65 time=0
note_on channel=0 note=52 velocity=65 time=0
note_on channel=0 note=46 velocity=65 time=0
note_on channel=0 note=36 velocity=59 time=0
note_on channel=0 note=36 velocity=0 time=202
note_on channel=0 note=36 velocity=30 time=20
note_on channel=0 note=36 velocity=0 time=220
note_on channel=0 note=46 velocity=0 time=20
note_on channel=0 note=52 velocity=0 time=0
note_on channel=0 note=43 velocity=0 time=0
note_on channel=0 note=36 velocity=30 time=0
note_on channel=0 note=36 velocity=0 time=220
note_on channel=0 note=36 velocity=32 time=20
note_on channel=0 note=36 velocity=0 time=220
note_on channel=0 note=36 velocity=27 time=20
note_on channel=0 note=36 velocity=0 time=220
note_on channel=0 note=36 velocity=27 time=20
note_on channel=0 note=36 velocity=0 time=220
note_on channel=0 note=36 velocity=30 time=20
note_on channel=0 note=36 velocity=0 time=220
note_on channel=0 note=36 velocity=24 time=20
note_on channel=0 note=36 velocity=0 time=220
note_on channel=0 note=36 velocity=24 time=20
note_on channel=0 note=36 velocity=0 time=220
note_on channel=0 note=36 velocity=28 time=20
note_on channel=0 note=36 velocity=0 time=220
note_on channel=0 note=36 velocity=22 time=20
note_on channel=0 note=36 velocity=0 time=220
note_on channel=0 note=36 velocity=22 time=20
note_on channel=0 note=36 velocity=0 time=220
note_on channel=0 note=36 velocity=24 time=0
note_on channel=0 note=36 velocity=0 time=220
note_on channel=0 note=36 velocity=22 time=20
note_on channel=0 note=36 velocity=0 time=220
note_on channel=0 note=36 velocity=22 time=20
note_on channel=0 note=36 velocity=0 time=220
note_on channel=0 note=36 velocity=24 time=20
note_on channel=0 note=36 velocity=0 time=220
note_on channel=0 note=36 velocity=20 time=20
note_on channel=0 note=36 velocity=0 time=220
note_on channel=0 note=36 velocity=20 time=20
note_on channel=0 note=36 velocity=0 time=220
note_on channel=0 note=36 velocity=23 time=20
note_on channel=0 note=36 velocity=0 time=220
note_on channel=0 note=36 velocity=18 time=20
note_on channel=0 note=36 velocity=0 time=220
note_on channel=0 note=36 velocity=23 time=20
note_on channel=0 note=36 velocity=0 time=220
note_on channel=0 note=48 velocity=27 time=20
note_on channel=0 note=60 velocity=35 time=0
note_on channel=0 note=36 velocity=23 time=0
note_on channel=0 note=36 velocity=0 time=220
note_on channel=0 note=36 velocity=20 time=20
note_on channel=0 note=36 velocity=0 time=220
note_on channel=0 note=36 velocity=22 time=20
note_on channel=0 note=60 velocity=0 time=120
note_on channel=0 note=48 velocity=0 time=0
note_on channel=0 note=56 velocity=31 time=0
note_on channel=0 note=44 velocity=25 time=0
note_on channel=0 note=36 velocity=0 time=100
note_on channel=0 note=44 velocity=0 time=20
note_on channel=0 note=56 velocity=0 time=0
note_on channel=0 note=41 velocity=22 time=0
note_on channel=0 note=53 velocity=28 time=0
note_on channel=0 note=36 velocity=23 time=0
note_on channel=0 note=36 velocity=0 time=220
note_on channel=0 note=36 velocity=20 time=20
note_on channel=0 note=36 velocity=0 time=220
note_on channel=0 note=36 velocity=22 time=20
note_on channel=0 note=36 velocity=0 time=220
note_on channel=0 note=36 velocity=23 time=20
note_on channel=0 note=36 velocity=0 time=220
note_on channel=0 note=36 velocity=20 time=20
note_on channel=0 note=36 velocity=0 time=220
note_on channel=0 note=36 velocity=22 time=20
note_on channel=0 note=36 velocity=0 time=220
note_on channel=0 note=36 velocity=23 time=0
note_on channel=0 note=36 velocity=0 time=220
note_on channel=0 note=36 velocity=20 time=20
note_on channel=0 note=36 velocity=0 time=220
note_on channel=0 note=36 velocity=22 time=20
note_on channel=0 note=36 velocity=0 time=220
note_on channel=0 note=53 velocity=0 time=20
note_on channel=0 note=41 velocity=0 time=0
note_on channel=0 note=56 velocity=35 time=0
note_on channel=0 note=44 velocity=27 time=0
note_on channel=0 note=36 velocity=23 time=0
note_on channel=0 note=36 velocity=0 time=220
note_on channel=0 note=36 velocity=20 time=0
note_on channel=0 note=36 velocity=0 time=220
note_on channel=0 note=36 velocity=22 time=20
note_on channel=0 note=44 velocity=0 time=0
note_on channel=0 note=56 velocity=0 time=0
note_on channel=0 note=48 velocity=24 time=0
note_on channel=0 note=60 velocity=30 time=0
note_on channel=0 note=36 velocity=0 time=100
note_on channel=0 note=60 velocity=0 time=0
note_on channel=0 note=48 velocity=0 time=0
note_on channel=0 note=65 velocity=35 time=0
note_on channel=0 note=53 velocity=27 time=0
note_on channel=0 note=36 velocity=23 time=0
note_on channel=0 note=36 velocity=0 time=220
note_on channel=0 note=36 velocity=20 time=20
note_on channel=0 note=36 velocity=0 time=220
note_on channel=0 note=36 velocity=22 time=20
note_on channel=0 note=36 velocity=0 time=220
note_on channel=0 note=53 velocity=0 time=0
note_on channel=0 note=65 velocity=0 time=0
note_on channel=0 note=68 velocity=36 time=0
note_on channel=0 note=56 velocity=28 time=0
note_on channel=0 note=36 velocity=23 time=0
note_on channel=0 note=36 velocity=0 time=220
note_on channel=0 note=36 velocity=20 time=0
note_on channel=0 note=36 velocity=0 time=220
note_on channel=0 note=36 velocity=22 time=20
note_on channel=0 note=56 velocity=0 time=0
note_on channel=0 note=68 velocity=0 time=0
note_on channel=0 note=72 velocity=31 time=0
note_on channel=0 note=60 velocity=25 time=0
note_on channel=0 note=36 velocity=0 time=100
note_on channel=0 note=60 velocity=0 time=0
note_on channel=0 note=72 velocity=0 time=0
note_on channel=0 note=77 velocity=40 time=0
note_on channel=0 note=65 velocity=31 time=0
note_on channel=0 note=36 velocity=23 time=0
note_on channel=0 note=36 velocity=0 time=220
note_on channel=0 note=36 velocity=20 time=20
note_on channel=0 note=36 velocity=0 time=220
note_on channel=0 note=36 velocity=22 time=0
note_on channel=0 note=36 velocity=0 time=220
note_on channel=0 note=65 velocity=0 time=15
note_on channel=0 note=77 velocity=0 time=0
note_on channel=0 note=65 velocity=33 time=0
note_on channel=0 note=53 velocity=26 time=0
note_on channel=0 note=36 velocity=23 time=0
note_on channel=0 note=36 velocity=0 time=220
note_on channel=0 note=36 velocity=20 time=20
note_on channel=0 note=36 velocity=0 time=220
note_on channel=0 note=36 velocity=22 time=20
note_on channel=0 note=36 velocity=0 time=220
note_on channel=0 note=53 velocity=0 time=20
note_on channel=0 note=65 velocity=0 time=0
note_on channel=0 note=67 velocity=26 time=0
note_on channel=0 note=64 velocity=26 time=0
note_on channel=0 note=72 velocity=35 time=0
note_on channel=0 note=36 velocity=23 time=0
note_on channel=0 note=36 velocity=0 time=128
note_on channel=0 note=36 velocity=20 time=20
note_on channel=0 note=36 velocity=0 time=220
note_on channel=0 note=36 velocity=22 time=20
note_on channel=0 note=36 velocity=0 time=220
note_on channel=0 note=36 velocity=23 time=20
note_on channel=0 note=36 velocity=0 time=220
note_on channel=0 note=36 velocity=20 time=20
note_on channel=0 note=36 velocity=0 time=220
note_on channel=0 note=72 velocity=0 time=0
note_on channel=0 note=74 velocity=33 time=0
note_on channel=0 note=36 velocity=22 time=0
note_on channel=0 note=36 velocity=0 time=220
note_on channel=0 note=67 velocity=0 time=0
note_on channel=0 note=64 velocity=0 time=0
note_on channel=0 note=74 velocity=0 time=0
note_on channel=0 note=65 velocity=26 time=0
note_on channel=0 note=71 velocity=26 time=0
note_on channel=0 note=74 velocity=33 time=0
note_on channel=0 note=36 velocity=23 time=0
note_on channel=0 note=74 velocity=0 time=0
note_on channel=0 note=76 velocity=29 time=0
note_on channel=0 note=76 velocity=0 time=0
note_on channel=0 note=74 velocity=33 time=0
note_on channel=0 note=36 velocity=0 time=60
note_on channel=0 note=74 velocity=0 time=0
note_on channel=0 note=76 velocity=29 time=0
note_on channel=0 note=36 velocity=20 time=0
note_on channel=0 note=76 velocity=0 time=40
note_on channel=0 note=74 velocity=33 time=0
note_on channel=0 note=74 velocity=0 time=40
note_on channel=0 note=76 velocity=30 time=0
note_on channel=0 note=36 velocity=0 time=20
note_on channel=0 note=76 velocity=0 time=0
note_on channel=0 note=74 velocity=33 time=0
note_on channel=0 note=36 velocity=22 time=0
note_on channel=0 note=74 velocity=0 time=0
note_on channel=0 note=76 velocity=29 time=0
note_on channel=0 note=76 velocity=0 time=40
note_on channel=0 note=74 velocity=33 time=0
note_on channel=0 note=36 velocity=0 time=20
note_on channel=0 note=74 velocity=0 time=0
note_on channel=0 note=76 velocity=30 time=0
note_on channel=0 note=36 velocity=23 time=0
note_on channel=0 note=76 velocity=0 time=40
note_on channel=0 note=74 velocity=28 time=0
note_on channel=0 note=74 velocity=0 time=0
note_on channel=0 note=76 velocity=33 time=0
note_on channel=0 note=36 velocity=0 time=0
note_on channel=0 note=76 velocity=0 time=0
note_on channel=0 note=74 velocity=28 time=0
note_on channel=0 note=36 velocity=20 time=0
note_on channel=0 note=74 velocity=0 time=0
note_on channel=0 note=72 velocity=30 time=0
note_on channel=0 note=36 velocity=0 time=100
note_on channel=0 note=72 velocity=0 time=20
note_on channel=0 note=76 velocity=35 time=0
note_on channel=0 note=36 velocity=22 time=0
note_on channel=0 note=76 velocity=0 time=0
note_on channel=0 note=74 velocity=31 time=0
note_on channel=0 note=36 velocity=0 time=100
note_on channel=0 note=65 velocity=0 time=0
note_on channel=0 note=71 velocity=0 time=0
note_on channel=0 note=74 velocity=0 time=0
note_on channel=0 note=72 velocity=35 time=0
note_on channel=0 note=64 velocity=19 time=0
note_on channel=0 note=67 velocity=22 time=0
note_on channel=0 note=36 velocity=23 time=0
note_on channel=0 note=36 velocity=0 time=213
note_on channel=0 note=36 velocity=20 time=20
note_on channel=0 note=36 velocity=0 time=220
note_on channel=0 note=67 velocity=0 time=20
note_on channel=0 note=64 velocity=0 time=0
note_on channel=0 note=72 velocity=0 time=0
note_on channel=0 note=36 velocity=22 time=0
note_on channel=0 note=36 velocity=0 time=220
note_on channel=0 note=36 velocity=23 time=20
note_on channel=0 note=36 velocity=0 time=220
note_on channel=0 note=36 velocity=20 time=20
note_on channel=0 note=36 velocity=0 time=220
note_on channel=0 note=36 velocity=22 time=20
note_on channel=0 note=36 velocity=0 time=220
note_on channel=0 note=36 velocity=23 time=0
note_on channel=0 note=36 velocity=0 time=220
note_on channel=0 note=37 velocity=20 time=0
note_on channel=0 note=37 velocity=0 time=220
note_on channel=0 note=37 velocity=22 time=20
note_on channel=0 note=37 velocity=0 time=220
note_on channel=0 note=61 velocity=35 time=0
note_on channel=0 note=49 velocity=27 time=0
note_on channel=0 note=37 velocity=23 time=0
note_on channel=0 note=37 velocity=0 time=220
note_on channel=0 note=37 velocity=20 time=0
note_on channel=0 note=37 velocity=0 time=220
note_on channel=0 note=37 velocity=22 time=20
note_on channel=0 note=49 velocity=0 time=0
note_on channel=0 note=61 velocity=0 time=0
note_on channel=0 note=58 velocity=31 time=0
note_on channel=0 note=46 velocity=25 time=0
note_on channel=0 note=37 velocity=0 time=100
note_on channel=0 note=46 velocity=0 time=0
note_on channel=0 note=58 velocity=0 time=0
note_on channel=0 note=54 velocity=28 time=0
note_on channel=0 note=42 velocity=22 time=0
note_on channel=0 note=37 velocity=23 time=0
note_on channel=0 note=37 velocity=0 time=220
note_on channel=0 note=37 velocity=20 time=20
note_on channel=0 note=37 velocity=0 time=220
note_on channel=0 note=37 velocity=22 time=20
note_on channel=0 note=37 velocity=0 time=220
note_on channel=0 note=37 velocity=23 time=20
note_on channel=0 note=37 velocity=0 time=220
note_on channel=0 note=37 velocity=20 time=20
note_on channel=0 note=37 velocity=0 time=220
note_on channel=0 note=37 velocity=22 time=20
note_on channel=0 note=37 velocity=0 time=220
note_on channel=0 note=37 velocity=23 time=0
note_on channel=0 note=37 velocity=0 time=220
note_on channel=0 note=37 velocity=20 time=20
note_on channel=0 note=37 velocity=0 time=220
note_on channel=0 note=37 velocity=22 time=20
note_on channel=0 note=37 velocity=0 time=220
note_on channel=0 note=42 velocity=0 time=20
note_on channel=0 note=54 velocity=0 time=0
note_on channel=0 note=46 velocity=27 time=0
note_on channel=0 note=58 velocity=35 time=0
note_on channel=0 note=37 velocity=23 time=0
note_on channel=0 note=37 velocity=0 time=220
note_on channel=0 note=37 velocity=20 time=0
note_on channel=0 note=37 velocity=0 time=220
note_on channel=0 note=37 velocity=22 time=20
note_on channel=0 note=58 velocity=0 time=0
note_on channel=0 note=46 velocity=0 time=0
note_on channel=0 note=61 velocity=30 time=0
note_on channel=0 note=49 velocity=24 time=0
note_on channel=0 note=37 velocity=0 time=100
note_on channel=0 note=49 velocity=0 time=0
note_on channel=0 note=61 velocity=0 time=0
note_on channel=0 note=54 velocity=27 time=0
note_on channel=0 note=66 velocity=35 time=0
note_on channel=0 note=37 velocity=23 time=0
note_on channel=0 note=37 velocity=0 time=220
note_on channel=0 note=37 velocity=20 time=20
note_on channel=0 note=37 velocity=0 time=220
note_on channel=0 note=37 velocity=22 time=20
note_on channel=0 note=37 velocity=0 time=220
note_on channel=0 note=66 velocity=0 time=0
note_on channel=0 note=54 velocity=0 time=0
note_on channel=0 note=70 velocity=36 time=0
note_on channel=0 note=58 velocity=28 time=0
note_on channel=0 note=37 velocity=23 time=0
note_on channel=0 note=37 velocity=0 time=220
note_on channel=0 note=37 velocity=20 time=0
note_on channel=0 note=37 velocity=0 time=220
note_on channel=0 note=37 velocity=22 time=20
note_on channel=0 note=58 velocity=0 time=0
note_on channel=0 note=70 velocity=0 time=0
note_on channel=0 note=61 velocity=25 time=0
note_on channel=0 note=73 velocity=31 time=0
note_on channel=0 note=37 velocity=0 time=100
note_on channel=0 note=73 velocity=0 time=0
note_on channel=0 note=61 velocity=0 time=0
note_on channel=0 note=78 velocity=40 time=0
note_on channel=0 note=66 velocity=31 time=0
note_on channel=0 note=37 velocity=23 time=0
note_on channel=0 note=37 velocity=0 time=220
note_on channel=0 note=37 velocity=20 time=20
note_on channel=0 note=37 velocity=0 time=220
note_on channel=0 note=37 velocity=22 time=0
note_on channel=0 note=37 velocity=0 time=220
note_on channel=0 note=66 velocity=0 time=0
note_on channel=0 note=78 velocity=0 time=0
note_on channel=0 note=54 velocity=26 time=0
note_on channel=0 note=66 velocity=33 time=0
note_on channel=0 note=37 velocity=23 time=0
note_on channel=0 note=37 velocity=0 time=220
note_on channel=0 note=37 velocity=20 time=20
note_on channel=0 note=37 velocity=0 time=220
note_on channel=0 note=37 velocity=22 time=20
note_on channel=0 note=37 velocity=0 time=220
note_on channel=0 note=66 velocity=0 time=20
note_on channel=0 note=54 velocity=0 time=0
note_on channel=0 note=65 velocity=26 time=0
note_on channel=0 note=68 velocity=26 time=0
note_on channel=0 note=73 velocity=35 time=0
note_on channel=0 note=37 velocity=23 time=0
note_on channel=0 note=37 velocity=0 time=100
note_on channel=0 note=37 velocity=20 time=20
note_on channel=0 note=37 velocity=0 time=220
note_on channel=0 note=37 velocity=22 time=20
note_on channel=0 note=37 velocity=0 time=220
note_on channel=0 note=37 velocity=23 time=20
note_on channel=0 note=37 velocity=0 time=220
note_on channel=0 note=37 velocity=20 time=20
note_on channel=0 note=37 velocity=0 time=220
note_on channel=0 note=73 velocity=0 time=0
note_on channel=0 note=75 velocity=33 time=0
note_on channel=0 note=37 velocity=22 time=0
note_on channel=0 note=37 velocity=0 time=220
note_on channel=0 note=65 velocity=0 time=0
note_on channel=0 note=68 velocity=0 time=0
note_on channel=0 note=75 velocity=0 time=0
note_on channel=0 note=75 velocity=28 time=0
note_on channel=0 note=66 velocity=26 time=0
note_on channel=0 note=72 velocity=26 time=0
note_on channel=0 note=37 velocity=23 time=0
note_on channel=0 note=75 velocity=0 time=0
note_on channel=0 note=77 velocity=25 time=0
note_on channel=0 note=77 velocity=0 time=0
note_on channel=0 note=75 velocity=28 time=0
note_on channel=0 note=37 velocity=0 time=20
note_on channel=0 note=75 velocity=0 time=20
note_on channel=0 note=77 velocity=25 time=0
note_on channel=0 note=37 velocity=20 time=0
note_on channel=0 note=77 velocity=0 time=40
note_on channel=0 note=75 velocity=28 time=0
note_on channel=0 note=75 velocity=0 time=0
note_on channel=0 note=77 velocity=25 time=0
note_on channel=0 note=37 velocity=0 time=60
note_on channel=0 note=77 velocity=0 time=0
note_on channel=0 note=75 velocity=29 time=0
note_on channel=0 note=37 velocity=22 time=0
note_on channel=0 note=75 velocity=0 time=40
note_on channel=0 note=77 velocity=25 time=0
note_on channel=0 note=77 velocity=0 time=0
note_on channel=0 note=75 velocity=29 time=0
note_on channel=0 note=37 velocity=0 time=20
note_on channel=0 note=75 velocity=0 time=0
note_on channel=0 note=77 velocity=26 time=0
note_on channel=0 note=37 velocity=23 time=0
note_on channel=0 note=77 velocity=0 time=0
note_on channel=0 note=75 velocity=29 time=0
note_on channel=0 note=75 velocity=0 time=0
note_on channel=0 note=77 velocity=27 time=0
note_on channel=0 note=37 velocity=0 time=0
note_on channel=0 note=77 velocity=0 time=0
note_on channel=0 note=75 velocity=24 time=0
note_on channel=0 note=37 velocity=20 time=0
note_on channel=0 note=75 velocity=0 time=0
note_on channel=0 note=73 velocity=30 time=0
note_on channel=0 note=37 velocity=0 time=100
note_on channel=0 note=73 velocity=0 time=20
note_on channel=0 note=77 velocity=35 time=0
note_on channel=0 note=37 velocity=22 time=0
note_on channel=0 note=77 velocity=0 time=0
note_on channel=0 note=75 velocity=31 time=0
note_on channel=0 note=37 velocity=0 time=100
note_on channel=0 note=66 velocity=0 time=0
note_on channel=0 note=72 velocity=0 time=0
note_on channel=0 note=75 velocity=0 time=0
note_on channel=0 note=73 velocity=35 time=0
note_on channel=0 note=65 velocity=19 time=0
note_on channel=0 note=68 velocity=22 time=0
note_on channel=0 note=37 velocity=23 time=0
note_on channel=0 note=37 velocity=0 time=210
note_on channel=0 note=41 velocity=20 time=20
note_on channel=0 note=35 velocity=15 time=0
note_on channel=0 note=35 velocity=0 time=220
note_on channel=0 note=41 velocity=0 time=0
note_on channel=0 note=68 velocity=0 time=20
note_on channel=0 note=65 velocity=0 time=0
note_on channel=0 note=73 velocity=0 time=0
note_on channel=0 note=41 velocity=22 time=0
note_on channel=0 note=35 velocity=16 time=0
note_on channel=0 note=35 velocity=0 time=220
note_on channel=0 note=41 velocity=0 time=0
note_on channel=0 note=41 velocity=23 time=20
note_on channel=0 note=35 velocity=17 time=0
note_on channel=0 note=35 velocity=0 time=220
note_on channel=0 note=41 velocity=0 time=0
note_on channel=0 note=41 velocity=20 time=20
note_on channel=0 note=35 velocity=15 time=0
note_on channel=0 note=35 velocity=0 time=220
note_on channel=0 note=41 velocity=0 time=0
note_on channel=0 note=41 velocity=22 time=20
note_on channel=0 note=35 velocity=16 time=0
note_on channel=0 note=35 velocity=0 time=220
note_on channel=0 note=41 velocity=0 time=0
note_on channel=0 note=41 velocity=23 time=20
note_on channel=0 note=35 velocity=17 time=0
note_on channel=0 note=35 velocity=0 time=220
note_on channel=0 note=41 velocity=0 time=0
note_on channel=0 note=35 velocity=15 time=20
note_on channel=0 note=41 velocity=20 time=0
note_on channel=0 note=41 velocity=0 time=220
note_on channel=0 note=35 velocity=0 time=0
note_on channel=0 note=35 velocity=16 time=20
note_on channel=0 note=41 velocity=22 time=0
note_on channel=0 note=41 velocity=0 time=220
note_on channel=0 note=35 velocity=0 time=0
note_on channel=0 note=35 velocity=17 time=20
note_on channel=0 note=41 velocity=23 time=0
note_on channel=0 note=41 velocity=0 time=220
note_on channel=0 note=35 velocity=0 time=0
note_on channel=0 note=35 velocity=15 time=20
note_on channel=0 note=41 velocity=20 time=0
note_on channel=0 note=41 velocity=0 time=220
note_on channel=0 note=35 velocity=0 time=0
note_on channel=0 note=35 velocity=16 time=20
note_on channel=0 note=41 velocity=22 time=0
note_on channel=0 note=41 velocity=0 time=220
note_on channel=0 note=35 velocity=0 time=0
note_on channel=0 note=72 velocity=35 time=0
note_on channel=0 note=40 velocity=26 time=0
note_on channel=0 note=36 velocity=20 time=191
note_on channel=0 note=36 velocity=0 time=220
note_on channel=0 note=36 velocity=22 time=20
note_on channel=0 note=36 velocity=0 time=220
note_on channel=0 note=36 velocity=23 time=20
note_on channel=0 note=36 velocity=0 time=220
note_on channel=0 note=36 velocity=20 time=20
note_on channel=0 note=36 velocity=0 time=220
note_on channel=0 note=72 velocity=0 time=0
note_on channel=0 note=74 velocity=38 time=0
note_on channel=0 note=36 velocity=22 time=0
note_on channel=0 note=74 velocity=0 time=180
note_on channel=0 note=72 velocity=38 time=0
note_on channel=0 note=36 velocity=0 time=40
note_on channel=0 note=72 velocity=0 time=0
note_on channel=0 note=40 velocity=0 time=0
note_on channel=0 note=74 velocity=37 time=0
note_on channel=0 note=41 velocity=26 time=0
note_on channel=0 note=74 velocity=0 time=0
note_on channel=0 note=76 velocity=32 time=0
note_on channel=0 note=76 velocity=0 time=0
note_on channel=0 note=74 velocity=37 time=0
note_on channel=0 note=74 velocity=0 time=0
note_on channel=0 note=76 velocity=33 time=0
note_on channel=0 note=36 velocity=20 time=0
note_on channel=0 note=76 velocity=0 time=40
note_on channel=0 note=74 velocity=37 time=0
note_on channel=0 note=74 velocity=0 time=40
note_on channel=0 note=76 velocity=33 time=0
note_on channel=0 note=36 velocity=0 time=20
note_on channel=0 note=76 velocity=0 time=0
note_on channel=0 note=74 velocity=37 time=0
note_on channel=0 note=36 velocity=22 time=0
note_on channel=0 note=74 velocity=0 time=0
note_on channel=0 note=76 velocity=33 time=0
note_on channel=0 note=76 velocity=0 time=0
note_on channel=0 note=74 velocity=37 time=0
note_on channel=0 note=36 velocity=0 time=60
note_on channel=0 note=74 velocity=0 time=0
note_on channel=0 note=76 velocity=34 time=0
note_on channel=0 note=36 velocity=23 time=0
note_on channel=0 note=76 velocity=0 time=0
note_on channel=0 note=74 velocity=31 time=0
note_on channel=0 note=74 velocity=0 time=0
note_on channel=0 note=76 velocity=37 time=0
note_on channel=0 note=36 velocity=0 time=60
note_on channel=0 note=76 velocity=0 time=0
note_on channel=0 note=74 velocity=31 time=0
note_on channel=0 note=36 velocity=20 time=0
note_on channel=0 note=74 velocity=0 time=0
note_on channel=0 note=72 velocity=34 time=0
note_on channel=0 note=36 velocity=0 time=100
note_on channel=0 note=72 velocity=0 time=20
note_on channel=0 note=76 velocity=40 time=0
note_on channel=0 note=36 velocity=22 time=0
note_on channel=0 note=76 velocity=0 time=0
note_on channel=0 note=74 velocity=35 time=0
note_on channel=0 note=36 velocity=0 time=100
note_on channel=0 note=74 velocity=0 time=0
note_on channel=0 note=41 velocity=0 time=0
note_on channel=0 note=72 velocity=35 time=0
note_on channel=0 note=40 velocity=26 time=0
note_on channel=0 note=40 velocity=0 time=216
note_on channel=0 note=36 velocity=20 time=20
note_on channel=0 note=36 velocity=0 time=220
note_on channel=0 note=72 velocity=0 time=20
note_on channel=0 note=36 velocity=22 time=0
note_on channel=0 note=36 velocity=0 time=220
note_on channel=0 note=49 velocity=27 time=0
note_on channel=0 note=36 velocity=23 time=0
note_on channel=0 note=36 velocity=0 time=220
note_on channel=0 note=49 velocity=0 time=0
note_on channel=0 note=36 velocity=20 time=0
note_on channel=0 note=49 velocity=26 time=0
note_on channel=0 note=49 velocity=0 time=220
note_on channel=0 note=36 velocity=0 time=0
note_on channel=0 note=49 velocity=26 time=0
note_on channel=0 note=36 velocity=22 time=0
note_on channel=0 note=36 velocity=0 time=220
note_on channel=0 note=49 velocity=0 time=0
note_on channel=0 note=48 velocity=26 time=0
note_on channel=0 note=36 velocity=26 time=0
note_on channel=0 note=36 velocity=0 time=220
note_on channel=0 note=36 velocity=20 time=20
note_on channel=0 note=36 velocity=0 time=220
note_on channel=0 note=48 velocity=0 time=20
note_on channel=0 note=36 velocity=22 time=0
note_on channel=0 note=36 velocity=0 time=220
note_on channel=0 note=36 velocity=23 time=20
note_on channel=0 note=36 velocity=0 time=220
note_on channel=0 note=36 velocity=20 time=20
note_on channel=0 note=36 velocity=0 time=220
note_on channel=0 note=36 velocity=22 time=20
note_on channel=0 note=36 velocity=0 time=220
note_on channel=0 note=76 velocity=40 time=0
note_on channel=0 note=43 velocity=26 time=0
note_on channel=0 note=36 velocity=20 time=120
note_on channel=0 note=36 velocity=0 time=220
note_on channel=0 note=36 velocity=22 time=20
note_on channel=0 note=36 velocity=0 time=220
note_on channel=0 note=36 velocity=23 time=20
note_on channel=0 note=36 velocity=0 time=220
note_on channel=0 note=36 velocity=20 time=20
note_on channel=0 note=36 velocity=0 time=220
note_on channel=0 note=76 velocity=0 time=0
note_on channel=0 note=77 velocity=38 time=0
note_on channel=0 note=36 velocity=22 time=0
note_on channel=0 note=77 velocity=0 time=180
note_on channel=0 note=76 velocity=38 time=0
note_on channel=0 note=36 velocity=0 time=40
note_on channel=0 note=76 velocity=0 time=0
note_on channel=0 note=43 velocity=0 time=0
note_on channel=0 note=77 velocity=37 time=0
note_on channel=0 note=44 velocity=26 time=0
note_on channel=0 note=77 velocity=0 time=0
note_on channel=0 note=79 velocity=32 time=0
note_on channel=0 note=79 velocity=0 time=0
note_on channel=0 note=77 velocity=37 time=0
note_on channel=0 note=77 velocity=0 time=0
note_on channel=0 note=79 velocity=33 time=0
note_on channel=0 note=36 velocity=20 time=0
note_on channel=0 note=79 velocity=0 time=0
note_on channel=0 note=77 velocity=37 time=0
note_on channel=0 note=77 velocity=0 time=0
note_on channel=0 note=79 velocity=33 time=0
note_on channel=0 note=36 velocity=0 time=20
note_on channel=0 note=79 velocity=0 time=20
note_on channel=0 note=77 velocity=37 time=0
note_on channel=0 note=36 velocity=22 time=0
note_on channel=0 note=77 velocity=0 time=40
note_on channel=0 note=79 velocity=33 time=0
note_on channel=0 note=79 velocity=0 time=40
note_on channel=0 note=77 velocity=37 time=0
note_on channel=0 note=36 velocity=0 time=20
note_on channel=0 note=77 velocity=0 time=20
note_on channel=0 note=79 velocity=34 time=0
note_on channel=0 note=36 velocity=23 time=0
note_on channel=0 note=79 velocity=0 time=40
note_on channel=0 note=77 velocity=31 time=0
note_on channel=0 note=77 velocity=0 time=40
note_on channel=0 note=79 velocity=37 time=0
note_on channel=0 note=36 velocity=0 time=20
note_on channel=0 note=79 velocity=0 time=0
note_on channel=0 note=77 velocity=31 time=0
note_on channel=0 note=36 velocity=20 time=0
note_on channel=0 note=77 velocity=0 time=0
note_on channel=0 note=76 velocity=34 time=0
note_on channel=0 note=36 velocity=0 time=100
note_on channel=0 note=76 velocity=0 time=20
note_on channel=0 note=79 velocity=40 time=0
note_on channel=0 note=36 velocity=22 time=0
note_on channel=0 note=79 velocity=0 time=0
note_on channel=0 note=77 velocity=35 time=0
note_on channel=0 note=36 velocity=0 time=100
note_on channel=0 note=77 velocity=0 time=0
note_on channel=0 note=44 velocity=0 time=0
note_on channel=0 note=76 velocity=35 time=0
note_on channel=0 note=43 velocity=26 time=0
note_on channel=0 note=43 velocity=0 time=211
note_on channel=0 note=36 velocity=20 time=20
note_on channel=0 note=36 velocity=0 time=220
note_on channel=0 note=76 velocity=0 time=20
note_on channel=0 note=36 velocity=22 time=0
note_on channel=0 note=36 velocity=0 time=220
note_on channel=0 note=36 velocity=23 time=0
note_on channel=0 note=49 velocity=27 time=0
note_on channel=0 note=49 velocity=0 time=220
note_on channel=0 note=36 velocity=0 time=0
note_on channel=0 note=49 velocity=26 time=0
note_on channel=0 note=36 velocity=20 time=0
note_on channel=0 note=36 velocity=0 time=220
note_on channel=0 note=49 velocity=0 time=0
note_on channel=0 note=49 velocity=26 time=0
note_on channel=0 note=36 velocity=22 time=0
note_on channel=0 note=36 velocity=0 time=220
note_on channel=0 note=49 velocity=0 time=0
note_on channel=0 note=48 velocity=26 time=0
note_on channel=0 note=36 velocity=26 time=0
note_on channel=0 note=36 velocity=0 time=220
note_on channel=0 note=36 velocity=20 time=20
note_on channel=0 note=36 velocity=0 time=220
note_on channel=0 note=48 velocity=0 time=20
note_on channel=0 note=36 velocity=22 time=0
note_on channel=0 note=36 velocity=0 time=220
note_on channel=0 note=76 velocity=35 time=0
note_on channel=0 note=79 velocity=35 time=0
note_on channel=0 note=36 velocity=23 time=0
note_on channel=0 note=36 velocity=0 time=220
note_on channel=0 note=79 velocity=0 time=0
note_on channel=0 note=76 velocity=0 time=0
note_on channel=0 note=76 velocity=31 time=0
note_on channel=0 note=79 velocity=31 time=0
note_on channel=0 note=36 velocity=20 time=0
note_on channel=0 note=36 velocity=0 time=220
note_on channel=0 note=79 velocity=0 time=0
note_on channel=0 note=76 velocity=0 time=0
note_on channel=0 note=79 velocity=35 time=0
note_on channel=0 note=76 velocity=35 time=0
note_on channel=0 note=36 velocity=22 time=0
note_on channel=0 note=36 velocity=0 time=220
note_on channel=0 note=76 velocity=0 time=0
note_on channel=0 note=79 velocity=0 time=0
note_on channel=0 note=82 velocity=35 time=0
note_on channel=0 note=79 velocity=35 time=0
note_on channel=0 note=36 velocity=26 time=0
note_on channel=0 note=36 velocity=0 time=220
note_on channel=0 note=36 velocity=20 time=20
note_on channel=0 note=36 velocity=0 time=220
note_on channel=0 note=79 velocity=0 time=20
note_on channel=0 note=82 velocity=0 time=0
note_on channel=0 note=36 velocity=22 time=0
note_on channel=0 note=36 velocity=0 time=220
note_on channel=0 note=49 velocity=27 time=0
note_on channel=0 note=36 velocity=23 time=0
note_on channel=0 note=36 velocity=0 time=220
note_on channel=0 note=49 velocity=0 time=0
note_on channel=0 note=36 velocity=20 time=0
note_on channel=0 note=49 velocity=26 time=0
note_on channel=0 note=49 velocity=0 time=220
note_on channel=0 note=36 velocity=0 time=0
note_on channel=0 note=36 velocity=22 time=0
note_on channel=0 note=49 velocity=26 time=0
note_on channel=0 note=49 velocity=0 time=220
note_on channel=0 note=36 velocity=0 time=0
note_on channel=0 note=48 velocity=26 time=0
note_on channel=0 note=36 velocity=26 time=0
note_on channel=0 note=36 velocity=0 time=220
note_on channel=0 note=36 velocity=20 time=0
note_on channel=0 note=36 velocity=0 time=220
note_on channel=0 note=48 velocity=0 time=20
note_on channel=0 note=36 velocity=22 time=0
note_on channel=0 note=36 velocity=0 time=220
note_on channel=0 note=79 velocity=66 time=0
note_on channel=0 note=82 velocity=66 time=0
note_on channel=0 note=36 velocity=43 time=0
note_on channel=0 note=36 velocity=0 time=220
note_on channel=0 note=82 velocity=0 time=0
note_on channel=0 note=79 velocity=0 time=0
note_on channel=0 note=79 velocity=62 time=0
note_on channel=0 note=82 velocity=62 time=0
note_on channel=0 note=36 velocity=38 time=0
note_on channel=0 note=36 velocity=0 time=220
note_on channel=0 note=82 velocity=0 time=0
note_on channel=0 note=79 velocity=0 time=0
note_on channel=0 note=82 velocity=68 time=0
note_on channel=0 note=79 velocity=68 time=0
note_on channel=0 note=36 velocity=41 time=0
note_on channel=0 note=36 velocity=0 time=220
note_on channel=0 note=79 velocity=0 time=0
note_on channel=0 note=82 velocity=0 time=0
note_on channel=0 note=88 velocity=71 time=0
note_on channel=0 note=36 velocity=50 time=0
note_on channel=0 note=88 velocity=0 time=45
note_on channel=0 note=82 velocity=64 time=0
note_on channel=0 note=36 velocity=0 time=20
note_on channel=0 note=82 velocity=0 time=20
note_on channel=0 note=91 velocity=72 time=0
note_on channel=0 note=36 velocity=40 time=0
note_on channel=0 note=91 velocity=0 time=0
note_on channel=0 note=88 velocity=64 time=0
note_on channel=0 note=36 velocity=0 time=100
note_on channel=0 note=88 velocity=0 time=20
note_on channel=0 note=94 velocity=73 time=0
note_on channel=0 note=36 velocity=43 time=0
note_on channel=0 note=94 velocity=0 time=40
note_on channel=0 note=91 velocity=66 time=0
note_on channel=0 note=36 velocity=0 time=100
note_on channel=0 note=91 velocity=0 time=0
note_on channel=0 note=88 velocity=74 time=0
note_on channel=0 note=36 velocity=47 time=0
note_on channel=0 note=88 velocity=0 time=120
note_on channel=0 note=91 velocity=67 time=0
note_on channel=0 note=36 velocity=0 time=20
note_on channel=0 note=91 velocity=0 time=20
note_on channel=0 note=82 velocity=74 time=0
note_on channel=0 note=36 velocity=43 time=0
note_on channel=0 note=82 velocity=0 time=0
note_on channel=0 note=88 velocity=68 time=0
note_on channel=0 note=36 velocity=0 time=100
note_on channel=0 note=88 velocity=0 time=20
note_on channel=0 note=79 velocity=75 time=0
note_on channel=0 note=36 velocity=45 time=0
note_on channel=0 note=79 velocity=0 time=40
note_on channel=0 note=82 velocity=68 time=0
note_on channel=0 note=36 velocity=0 time=100
note_on channel=0 note=82 velocity=0 time=0
note_on channel=0 note=76 velocity=75 time=0
note_on channel=0 note=36 velocity=55 time=0
note_on channel=0 note=76 velocity=0 time=120
note_on channel=0 note=79 velocity=69 time=0
note_on channel=0 note=36 velocity=0 time=100
note_on channel=0 note=79 velocity=0 time=20
note_on channel=0 note=70 velocity=76 time=0
note_on channel=0 note=36 velocity=45 time=0
note_on channel=0 note=70 velocity=0 time=120
note_on channel=0 note=76 velocity=67 time=0
note_on channel=0 note=36 velocity=0 time=100
note_on channel=0 note=76 velocity=0 time=20
note_on channel=0 note=67 velocity=76 time=0
note_on channel=0 note=36 velocity=48 time=0
note_on channel=0 note=67 velocity=0 time=120
note_on channel=0 note=70 velocity=70 time=0
note_on channel=0 note=36 velocity=0 time=100
note_on channel=0 note=70 velocity=0 time=20
note_on channel=0 note=64 velocity=77 time=0
note_on channel=0 note=36 velocity=52 time=0
note_on channel=0 note=64 velocity=0 time=120
note_on channel=0 note=67 velocity=68 time=0
note_on channel=0 note=36 velocity=0 time=100
note_on channel=0 note=67 velocity=0 time=20
note_on channel=0 note=58 velocity=78 time=0
note_on channel=0 note=36 velocity=47 time=0
note_on channel=0 note=58 velocity=0 time=120
note_on channel=0 note=64 velocity=71 time=0
note_on channel=0 note=36 velocity=0 time=100
note_on channel=0 note=64 velocity=0 time=20
note_on channel=0 note=55 velocity=75 time=0
note_on channel=0 note=36 velocity=50 time=0
note_on channel=0 note=55 velocity=0 time=120
note_on channel=0 note=58 velocity=63 time=0
note_on channel=0 note=36 velocity=0 time=20
note_on channel=0 note=58 velocity=0 time=20
note_on channel=0 note=36 velocity=61 time=0
note_on channel=0 note=52 velocity=76 time=0
note_on channel=0 note=52 velocity=0 time=40
note_on channel=0 note=55 velocity=65 time=0
note_on channel=0 note=36 velocity=0 time=60
note_on channel=0 note=55 velocity=0 time=0
note_on channel=0 note=36 velocity=49 time=0
note_on channel=0 note=46 velocity=77 time=0
note_on channel=0 note=46 velocity=0 time=0
note_on channel=0 note=52 velocity=62 time=0
note_on channel=0 note=36 velocity=0 time=100
note_on channel=0 note=52 velocity=0 time=0
note_on channel=0 note=43 velocity=76 time=0
note_on channel=0 note=36 velocity=52 time=0
note_on channel=0 note=43 velocity=0 time=0
note_on channel=0 note=46 velocity=69 time=0
note_on channel=0 note=36 velocity=0 time=100
note_on channel=0 note=46 velocity=0 time=0
note_on channel=0 note=36 velocity=57 time=0
note_on channel=0 note=49 velocity=80 time=0
note_on channel=0 note=49 velocity=0 time=40
note_on channel=0 note=46 velocity=70 time=0
note_on channel=0 note=36 velocity=0 time=60
note_on channel=0 note=46 velocity=0 time=20
note_on channel=0 note=52 velocity=81 time=0
note_on channel=0 note=36 velocity=51 time=0
note_on channel=0 note=52 velocity=0 time=0
note_on channel=0 note=49 velocity=71 time=0
note_on channel=0 note=36 velocity=0 time=20
note_on channel=0 note=49 velocity=0 time=20
note_on channel=0 note=36 velocity=54 time=0
note_on channel=0 note=55 velocity=86 time=0
note_on channel=0 note=55 velocity=0 time=80
note_on channel=0 note=52 velocity=78 time=0
note_on channel=0 note=36 velocity=0 time=60
note_on channel=0 note=52 velocity=0 time=0
note_on channel=0 note=58 velocity=94 time=0
note_on channel=0 note=43 velocity=66 time=0
note_on channel=0 note=31 velocity=61 time=0
note_on channel=0 note=31 velocity=0 time=0
note_on channel=0 note=43 velocity=0 time=0
note_on channel=0 note=58 velocity=0 time=0
note_on channel=0 note=36 velocity=58 time=0
note_on channel=0 note=36 velocity=0 time=183
note_on channel=0 note=36 velocity=57 time=0
note_on channel=0 note=36 velocity=0 time=0
note_on channel=0 note=49 velocity=93 time=0
note_on channel=0 note=61 velocity=93 time=0
note_on channel=0 note=56 velocity=93 time=0
note_on channel=0 note=41 velocity=68 time=0
note_on channel=0 note=29 velocity=62 time=0
note_on channel=0 note=29 velocity=0 time=0
note_on channel=0 note=56 velocity=0 time=0
note_on channel=0 note=49 velocity=0 time=0
note_on channel=0 note=61 velocity=0 time=0
note_on channel=0 note=41 velocity=0 time=0
note_on channel=0 note=36 velocity=78 time=0
note_on channel=0 note=36 velocity=0 time=0
note_on channel=0 note=36 velocity=66 time=0
note_on channel=0 note=36 velocity=0 time=0
note_on channel=0 note=52 velocity=48 time=0
note_on channel=0 note=36 velocity=40 time=0
note_on channel=0 note=60 velocity=48 time=0
note_on channel=0 note=40 velocity=40 time=0
note_on channel=0 note=55 velocity=48 time=0
note_on channel=0 note=55 velocity=0 time=2100
note_on channel=0 note=60 velocity=0 time=0
note_on channel=0 note=52 velocity=0 time=0
note_on channel=0 note=36 velocity=0 time=0
note_on channel=0 note=40 velocity=0 time=0
note_on channel=0 note=60 velocity=35 time=0
note_on channel=0 note=36 velocity=27 time=0
note_on channel=0 note=36 velocity=0 time=140
note_on channel=0 note=60 velocity=0 time=0
note_on channel=0 note=57 velocity=31 time=0
note_on channel=0 note=33 velocity=25 time=0
note_on channel=0 note=33 velocity=0 time=0
note_on channel=0 note=57 velocity=0 time=0
note_on channel=0 note=53 velocity=103 time=0
note_on channel=0 note=29 velocity=81 time=0
note_on channel=0 note=53 velocity=0 time=9
note_on channel=0 note=29 velocity=0 time=0
note_on channel=0 note=57 velocity=75 time=0
note_on channel=0 note=53 velocity=75 time=0
note_on channel=0 note=60 velocity=85 time=0
note_on channel=0 note=65 velocity=101 time=0
note_on channel=0 note=33 velocity=61 time=240
note_on channel=0 note=29 velocity=61 time=0
note_on channel=0 note=41 velocity=81 time=0
note_on channel=0 note=36 velocity=69 time=0
note_on channel=0 note=65 velocity=0 time=235
note_on channel=0 note=60 velocity=0 time=0
note_on channel=0 note=57 velocity=0 time=0
note_on channel=0 note=53 velocity=0 time=0
note_on channel=0 note=60 velocity=72 time=5
note_on channel=0 note=65 velocity=81 time=0
note_on channel=0 note=69 velocity=96 time=0
note_on channel=0 note=57 velocity=72 time=0
note_on channel=0 note=33 velocity=0 time=235
note_on channel=0 note=41 velocity=0 time=0
note_on channel=0 note=36 velocity=0 time=0
note_on channel=0 note=29 velocity=0 time=0
note_on channel=0 note=33 velocity=57 time=5
note_on channel=0 note=36 velocity=64 time=0
note_on channel=0 note=41 velocity=76 time=0
note_on channel=0 note=29 velocity=57 time=0
note_on channel=0 note=60 velocity=0 time=235
note_on channel=0 note=69 velocity=0 time=0
note_on channel=0 note=57 velocity=0 time=0
note_on channel=0 note=65 velocity=0 time=0
note_on channel=0 note=60 velocity=71 time=5
note_on channel=0 note=65 velocity=71 time=0
note_on channel=0 note=72 velocity=96 time=0
note_on channel=0 note=69 velocity=79 time=0
note_on channel=0 note=33 velocity=0 time=235
note_on channel=0 note=41 velocity=0 time=0
note_on channel=0 note=29 velocity=0 time=0
note_on channel=0 note=36 velocity=0 time=0
note_on channel=0 note=33 velocity=55 time=5
note_on channel=0 note=29 velocity=55 time=0
note_on channel=0 note=41 velocity=73 time=0
note_on channel=0 note=36 velocity=63 time=0
note_on channel=0 note=60 velocity=0 time=235
note_on channel=0 note=72 velocity=0 time=0
note_on channel=0 note=69 velocity=0 time=0
note_on channel=0 note=65 velocity=0 time=0
note_on channel=0 note=69 velocity=72 time=5
note_on channel=0 note=77 velocity=95 time=0
note_on channel=0 note=72 velocity=80 time=0
note_on channel=0 note=65 velocity=72 time=0
note_on channel=0 note=33 velocity=0 time=235
note_on channel=0 note=41 velocity=0 time=0
note_on channel=0 note=36 velocity=0 time=0
note_on channel=0 note=29 velocity=0 time=0
note_on channel=0 note=33 velocity=61 time=5
note_on channel=0 note=36 velocity=69 time=0
note_on channel=0 note=41 velocity=81 time=0
note_on channel=0 note=29 velocity=61 time=0
note_on channel=0 note=69 velocity=0 time=235
note_on channel=0 note=72 velocity=0 time=0
note_on channel=0 note=65 velocity=0 time=0
note_on channel=0 note=77 velocity=0 time=0
note_on channel=0 note=77 velocity=86 time=5
note_on channel=0 note=69 velocity=76 time=0
note_on channel=0 note=72 velocity=76 time=0
note_on channel=0 note=81 velocity=103 time=0
note_on channel=0 note=33 velocity=0 time=235
note_on channel=0 note=41 velocity=0 time=0
note_on channel=0 note=29 velocity=0 time=0
note_on channel=0 note=36 velocity=0 time=0
note_on channel=0 note=33 velocity=55 time=5
note_on channel=0 note=29 velocity=55 time=0
note_on channel=0 note=41 velocity=73 time=0
note_on channel=0 note=36 velocity=63 time=0
note_on channel=0 note=77 velocity=0 time=235
note_on channel=0 note=72 velocity=0 time=0
note_on channel=0 note=81 velocity=0 time=0
note_on channel=0 note=69 velocity=0 time=0
note_on channel=0 note=77 velocity=78 time=0
note_on channel=0 note=84 velocity=94 time=0
note_on channel=0 note=72 velocity=71 time=0
note_on channel=0 note=81 velocity=78 time=0
note_on channel=0 note=33 velocity=0 time=235
note_on channel=0 note=41 velocity=0 time=0
note_on channel=0 note=36 velocity=0 time=0
note_on channel=0 note=29 velocity=0 time=0
note_on channel=0 note=77 velocity=0 time=3
note_on channel=0 note=81 velocity=0 time=0
note_on channel=0 note=84 velocity=0 time=0
note_on channel=0 note=72 velocity=0 time=0
note_on channel=0 note=81 velocity=86 time=2
note_on channel=0 note=84 velocity=86 time=0
note_on channel=0 note=89 velocity=103 time=0
note_on channel=0 note=77 velocity=76 time=0
note_on channel=0 note=29 velocity=61 time=0
note_on channel=0 note=33 velocity=61 time=0
note_on channel=0 note=36 velocity=69 time=0
note_on channel=0 note=41 velocity=81 time=0
note_on channel=0 note=41 velocity=0 time=0
note_on channel=0 note=81 velocity=0 time=0
note_on channel=0 note=29 velocity=0 time=0
note_on channel=0 note=84 velocity=0 time=0
note_on channel=0 note=89 velocity=0 time=0
note_on channel=0 note=77 velocity=0 time=0
note_on channel=0 note=33 velocity=0 time=0
note_on channel=0 note=36 velocity=0 time=0
note_on channel=0 note=57 velocity=41 time=0
note_on channel=0 note=33 velocity=33 time=0
note_on channel=0 note=33 velocity=0 time=0
note_on channel=0 note=57 velocity=0 time=0
note_on channel=0 note=60 velocity=35 time=0
note_on channel=0 note=36 velocity=28 time=0
note_on channel=0 note=36 velocity=0 time=0
note_on channel=0 note=60 velocity=0 time=0
note_on channel=0 note=65 velocity=40 time=0
note_on channel=0 note=41 velocity=34 time=0
note_on channel=0 note=41 velocity=0 time=0
note_on channel=0 note=65 velocity=0 time=0
note_on channel=0 note=69 velocity=43 time=0
note_on channel=0 note=45 velocity=34 time=0
note_on channel=0 note=45 velocity=0 time=0
note_on channel=0 note=69 velocity=0 time=0
note_on channel=0 note=72 velocity=37 time=0
note_on channel=0 note=48 velocity=29 time=0
note_on channel=0 note=48 velocity=0 time=0
note_on channel=0 note=72 velocity=0 time=0
note_on channel=0 note=77 velocity=40 time=0
note_on channel=0 note=53 velocity=34 time=0
note_on channel=0 note=53 velocity=0 time=235
note_on channel=0 note=77 velocity=0 time=0
note_on channel=0 note=65 velocity=40 time=0
note_on channel=0 note=41 velocity=31 time=0
note_on channel=0 note=41 velocity=0 time=0
note_on channel=0 note=65 velocity=0 time=0
note_on channel=0 note=60 velocity=103 time=0
note_on channel=0 note=52 velocity=81 time=0
note_on channel=0 note=55 velocity=81 time=0
note_on channel=0 note=55 velocity=0 time=158
note_on channel=0 note=52 velocity=0 time=0
note_on channel=0 note=60 velocity=0 time=0
note_on channel=0 note=60 velocity=85 time=0
note_on channel=0 note=64 velocity=101 time=0
note_on channel=0 note=55 velocity=75 time=0
note_on channel=0 note=40 velocity=61 time=240
note_on channel=0 note=48 velocity=81 time=0
note_on channel=0 note=43 velocity=69 time=0
note_on channel=0 note=55 velocity=0 time=235
note_on channel=0 note=60 velocity=0 time=0
note_on channel=0 note=64 velocity=0 time=0
note_on channel=0 note=60 velocity=72 time=5
note_on channel=0 note=67 velocity=96 time=0
note_on channel=0 note=64 velocity=81 time=0
note_on channel=0 note=40 velocity=0 time=235
note_on channel=0 note=43 velocity=0 time=0
note_on channel=0 note=48 velocity=0 time=0
note_on channel=0 note=43 velocity=64 time=5
note_on channel=0 note=40 velocity=57 time=0
note_on channel=0 note=48 velocity=76 time=0
note_on channel=0 note=60 velocity=0 time=235
note_on channel=0 note=64 velocity=0 time=0
note_on channel=0 note=67 velocity=0 time=0
note_on channel=0 note=67 velocity=81 time=5
note_on channel=0 note=72 velocity=98 time=0
note_on channel=0 note=64 velocity=72 time=0
note_on channel=0 note=43 velocity=0 time=235
note_on channel=0 note=48 velocity=0 time=0
note_on channel=0 note=40 velocity=0 time=0
note_on channel=0 note=40 velocity=55 time=5
note_on channel=0 note=48 velocity=73 time=0
note_on channel=0 note=43 velocity=63 time=0
note_on channel=0 note=67 velocity=0 time=235
note_on channel=0 note=64 velocity=0 time=0
note_on channel=0 note=72 velocity=0 time=0
note_on channel=0 note=76 velocity=95 time=5
note_on channel=0 note=67 velocity=72 time=0
note_on channel=0 note=72 velocity=80 time=0
note_on channel=0 note=40 velocity=0 time=235
note_on channel=0 note=43 velocity=0 time=0
note_on channel=0 note=48 velocity=0 time=0
note_on channel=0 note=43 velocity=69 time=5
note_on channel=0 note=48 velocity=81 time=0
note_on channel=0 note=40 velocity=61 time=0
note_on channel=0 note=76 velocity=0 time=235
note_on channel=0 note=72 velocity=0 time=0
note_on channel=0 note=67 velocity=0 time=0
note_on channel=0 note=79 velocity=103 time=5
note_on channel=0 note=72 velocity=76 time=0
note_on channel=0 note=76 velocity=86 time=0
note_on channel=0 note=43 velocity=0 time=235
note_on channel=0 note=40 velocity=0 time=0
note_on channel=0 note=48 velocity=0 time=0
note_on channel=0 note=40 velocity=55 time=5
note_on channel=0 note=48 velocity=73 time=0
note_on channel=0 note=43 velocity=63 time=0
note_on channel=0 note=79 velocity=0 time=235
note_on channel=0 note=76 velocity=0 time=0
note_on channel=0 note=72 velocity=0 time=0
note_on channel=0 note=84 velocity=94 time=0
note_on channel=0 note=76 velocity=78 time=0
note_on channel=0 note=79 velocity=78 time=0
note_on channel=0 note=40 velocity=0 time=235
note_on channel=0 note=43 velocity=0 time=0
note_on channel=0 note=48 velocity=0 time=0
note_on channel=0 note=84 velocity=0 time=3
note_on channel=0 note=76 velocity=0 time=0
note_on channel=0 note=79 velocity=0 time=0
note_on channel=0 note=72 velocity=41 time=0
note_on channel=0 note=64 velocity=30 time=0
note_on channel=0 note=67 velocity=30 time=0
note_on channel=0 note=72 velocity=0 time=0
note_on channel=0 note=74 velocity=45 time=0
note_on channel=0 note=74 velocity=0 time=0
note_on channel=0 note=67 velocity=0 time=0
note_on channel=0 note=64 velocity=0 time=0
note_on channel=0 note=74 velocity=38 time=0
note_on channel=0 note=65 velocity=30 time=0
note_on channel=0 note=71 velocity=30 time=0
note_on channel=0 note=68 velocity=30 time=0
note_on channel=0 note=74 velocity=0 time=0
note_on channel=0 note=76 velocity=35 time=0
note_on channel=0 note=74 velocity=38 time=0
note_on channel=0 note=76 velocity=0 time=40
note_on channel=0 note=74 velocity=0 time=0
note_on channel=0 note=76 velocity=36 time=0
note_on channel=0 note=76 velocity=0 time=0
note_on channel=0 note=74 velocity=39 time=0
note_on channel=0 note=74 velocity=0 time=0
note_on channel=0 note=76 velocity=36 time=0
note_on channel=0 note=76 velocity=0 time=0
note_on channel=0 note=74 velocity=38 time=0
note_on channel=0 note=74 velocity=0 time=0
note_on channel=0 note=76 velocity=36 time=0
note_on channel=0 note=76 velocity=0 time=0
note_on channel=0 note=74 velocity=39 time=0
note_on channel=0 note=74 velocity=0 time=0
note_on channel=0 note=76 velocity=37 time=0
note_on channel=0 note=76 velocity=0 time=0
note_on channel=0 note=74 velocity=35 time=0
note_on channel=0 note=74 velocity=0 time=0
note_on channel=0 note=76 velocity=39 time=0
note_on channel=0 note=76 velocity=0 time=0
note_on channel=0 note=74 velocity=35 time=0
note_on channel=0 note=74 velocity=0 time=0
note_on channel=0 note=72 velocity=36 time=0
note_on channel=0 note=72 velocity=0 time=120
note_on channel=0 note=76 velocity=41 time=0
note_on channel=0 note=76 velocity=0 time=0
note_on channel=0 note=74 velocity=38 time=0
note_on channel=0 note=74 velocity=0 time=0
note_on channel=0 note=65 velocity=0 time=0
note_on channel=0 note=71 velocity=0 time=0
note_on channel=0 note=68 velocity=0 time=0
note_on channel=0 note=60 velocity=103 time=0
note_on channel=0 note=55 velocity=81 time=0
note_on channel=0 note=52 velocity=81 time=0
note_on channel=0 note=52 velocity=0 time=231
note_on channel=0 note=55 velocity=0 time=0
note_on channel=0 note=60 velocity=0 time=0
note_on channel=0 note=64 velocity=101 time=0
note_on channel=0 note=60 velocity=85 time=0
note_on channel=0 note=55 velocity=75 time=0
note_on channel=0 note=43 velocity=69 time=228
note_on channel=0 note=40 velocity=61 time=0
note_on channel=0 note=48 velocity=81 time=0
note_on channel=0 note=55 velocity=0 time=235
note_on channel=0 note=64 velocity=0 time=0
note_on channel=0 note=60 velocity=0 time=0
note_on channel=0 note=64 velocity=81 time=5
note_on channel=0 note=67 velocity=96 time=0
note_on channel=0 note=60 velocity=72 time=0
note_on channel=0 note=43 velocity=0 time=235
note_on channel=0 note=48 velocity=0 time=0
note_on channel=0 note=40 velocity=0 time=0
note_on channel=0 note=40 velocity=57 time=5
note_on channel=0 note=48 velocity=76 time=0
note_on channel=0 note=43 velocity=64 time=0
note_on channel=0 note=64 velocity=0 time=235
note_on channel=0 note=60 velocity=0 time=0
note_on channel=0 note=67 velocity=0 time=0
note_on channel=0 note=72 velocity=98 time=5
note_on channel=0 note=64 velocity=72 time=0
note_on channel=0 note=67 velocity=81 time=0
note_on channel=0 note=40 velocity=0 time=235
note_on channel=0 note=43 velocity=0 time=0
note_on channel=0 note=48 velocity=0 time=0
note_on channel=0 note=43 velocity=63 time=5
note_on channel=0 note=48 velocity=73 time=0
note_on channel=0 note=40 velocity=55 time=0
note_on channel=0 note=72 velocity=0 time=235
note_on channel=0 note=67 velocity=0 time=0
note_on channel=0 note=64 velocity=0 time=0
note_on channel=0 note=76 velocity=95 time=5
note_on channel=0 note=67 velocity=72 time=0
note_on channel=0 note=72 velocity=80 time=0
note_on channel=0 note=43 velocity=0 time=235
note_on channel=0 note=40 velocity=0 time=0
note_on channel=0 note=48 velocity=0 time=0
note_on channel=0 note=40 velocity=61 time=5
note_on channel=0 note=48 velocity=81 time=0
note_on channel=0 note=43 velocity=69 time=0
note_on channel=0 note=76 velocity=0 time=235
note_on channel=0 note=72 velocity=0 time=0
note_on channel=0 note=67 velocity=0 time=0
note_on channel=0 note=79 velocity=103 time=5
note_on channel=0 note=72 velocity=76 time=0
note_on channel=0 note=76 velocity=86 time=0
note_on channel=0 note=40 velocity=0 time=235
note_on channel=0 note=43 velocity=0 time=0
note_on channel=0 note=48 velocity=0 time=0
note_on channel=0 note=43 velocity=63 time=5
note_on channel=0 note=48 velocity=73 time=0
note_on channel=0 note=40 velocity=55 time=0
note_on channel=0 note=79 velocity=0 time=235
note_on channel=0 note=76 velocity=0 time=0
note_on channel=0 note=72 velocity=0 time=0
note_on channel=0 note=76 velocity=78 time=0
note_on channel=0 note=84 velocity=94 time=0
note_on channel=0 note=79 velocity=78 time=0
note_on channel=0 note=43 velocity=0 time=235
note_on channel=0 note=40 velocity=0 time=0
note_on channel=0 note=48 velocity=0 time=0
note_on channel=0 note=76 velocity=0 time=3
note_on channel=0 note=84 velocity=0 time=0
note_on channel=0 note=79 velocity=0 time=0
note_on channel=0 note=72 velocity=41 time=0
note_on channel=0 note=67 velocity=30 time=0
note_on channel=0 note=64 velocity=30 time=0
note_on channel=0 note=72 velocity=0 time=0
note_on channel=0 note=74 velocity=45 time=0
note_on channel=0 note=74 velocity=0 time=0
note_on channel=0 note=64 velocity=0 time=0
note_on channel=0 note=67 velocity=0 time=0
note_on channel=0 note=74 velocity=44 time=0
note_on channel=0 note=68 velocity=29 time=0
note_on channel=0 note=65 velocity=30 time=0
note_on channel=0 note=74 velocity=0 time=0
note_on channel=0 note=76 velocity=39 time=0
note_on channel=0 note=76 velocity=0 time=0
note_on channel=0 note=74 velocity=42 time=0
note_on channel=0 note=74 velocity=0 time=0
note_on channel=0 note=76 velocity=37 time=0
note_on channel=0 note=76 velocity=0 time=0
note_on channel=0 note=74 velocity=41 time=0
note_on channel=0 note=74 velocity=0 time=0
note_on channel=0 note=76 velocity=36 time=0
note_on channel=0 note=76 velocity=0 time=0
note_on channel=0 note=74 velocity=40 time=0
note_on channel=0 note=74 velocity=0 time=0
note_on channel=0 note=76 velocity=37 time=0
note_on channel=0 note=76 velocity=0 time=0
note_on channel=0 note=74 velocity=41 time=0
note_on channel=0 note=74 velocity=0 time=0
note_on channel=0 note=76 velocity=38 time=0
note_on channel=0 note=76 velocity=0 time=0
note_on channel=0 note=74 velocity=37 time=0
note_on channel=0 note=74 velocity=0 time=0
note_on channel=0 note=76 velocity=42 time=0
note_on channel=0 note=76 velocity=0 time=0
note_on channel=0 note=74 velocity=41 time=0
note_on channel=0 note=74 velocity=0 time=120
note_on channel=0 note=72 velocity=48 time=0
note_on channel=0 note=72 velocity=0 time=0
note_on channel=0 note=74 velocity=44 time=0
note_on channel=0 note=74 velocity=0 time=0
note_on channel=0 note=65 velocity=0 time=0
note_on channel=0 note=68 velocity=0 time=0
note_on channel=0 note=55 velocity=81 time=0
note_on channel=0 note=64 velocity=103 time=0
note_on channel=0 note=58 velocity=81 time=0
note_on channel=0 note=58 velocity=0 time=55
note_on channel=0 note=64 velocity=0 time=0
note_on channel=0 note=55 velocity=0 time=0
note_on channel=0 note=64 velocity=85 time=0
note_on channel=0 note=58 velocity=85 time=0
note_on channel=0 note=67 velocity=101 time=0
note_on channel=0 note=43 velocity=61 time=240
note_on channel=0 note=52 velocity=81 time=0
note_on channel=0 note=46 velocity=69 time=0
note_on channel=0 note=67 velocity=0 time=235
note_on channel=0 note=64 velocity=0 time=0
note_on channel=0 note=58 velocity=0 time=0
note_on channel=0 note=67 velocity=81 time=5
note_on channel=0 note=70 velocity=96 time=0
note_on channel=0 note=64 velocity=72 time=0
note_on channel=0 note=43 velocity=0 time=235
note_on channel=0 note=46 velocity=0 time=0
note_on channel=0 note=52 velocity=0 time=0
note_on channel=0 note=46 velocity=64 time=5
note_on channel=0 note=43 velocity=57 time=0
note_on channel=0 note=52 velocity=76 time=0
note_on channel=0 note=67 velocity=0 time=235
note_on channel=0 note=64 velocity=0 time=0
note_on channel=0 note=70 velocity=0 time=0
note_on channel=0 note=70 velocity=85 time=5
note_on channel=0 note=76 velocity=101 time=0
note_on channel=0 note=67 velocity=75 time=0
note_on channel=0 note=46 velocity=0 time=235
note_on channel=0 note=52 velocity=0 time=0
note_on channel=0 note=43 velocity=0 time=0
note_on channel=0 note=43 velocity=55 time=5
note_on channel=0 note=52 velocity=73 time=0
note_on channel=0 note=46 velocity=63 time=0
note_on channel=0 note=70 velocity=0 time=235
note_on channel=0 note=67 velocity=0 time=0
note_on channel=0 note=76 velocity=0 time=0
note_on channel=0 note=70 velocity=72 time=5
note_on channel=0 note=79 velocity=95 time=0
note_on channel=0 note=76 velocity=80 time=0
note_on channel=0 note=43 velocity=0 time=235
note_on channel=0 note=46 velocity=0 time=0
note_on channel=0 note=52 velocity=0 time=0
note_on channel=0 note=46 velocity=69 time=5
note_on channel=0 note=52 velocity=81 time=0
note_on channel=0 note=43 velocity=61 time=0
note_on channel=0 note=70 velocity=0 time=235
note_on channel=0 note=76 velocity=0 time=0
note_on channel=0 note=79 velocity=0 time=0
note_on channel=0 note=76 velocity=76 time=5
note_on channel=0 note=82 velocity=103 time=0
note_on channel=0 note=79 velocity=86 time=0
note_on channel=0 note=46 velocity=0 time=235
note_on channel=0 note=43 velocity=0 time=0
note_on channel=0 note=52 velocity=0 time=0
note_on channel=0 note=43 velocity=55 time=5
note_on channel=0 note=52 velocity=73 time=0
note_on channel=0 note=46 velocity=63 time=0
note_on channel=0 note=76 velocity=0 time=235
note_on channel=0 note=79 velocity=0 time=0
note_on channel=0 note=82 velocity=0 time=0
note_on channel=0 note=79 velocity=78 time=0
note_on channel=0 note=88 velocity=94 time=0
note_on channel=0 note=82 velocity=78 time=0
note_on channel=0 note=43 velocity=0 time=235
note_on channel=0 note=46 velocity=0 time=0
note_on channel=0 note=52 velocity=0 time=0
note_on channel=0 note=79 velocity=0 time=3
note_on channel=0 note=88 velocity=0 time=0
note_on channel=0 note=82 velocity=0 time=0
note_on channel=0 note=76 velocity=48 time=0
note_on channel=0 note=67 velocity=36 time=0
note_on channel=0 note=70 velocity=36 time=0
note_on channel=0 note=76 velocity=0 time=0
note_on channel=0 note=77 velocity=52 time=0
note_on channel=0 note=77 velocity=0 time=0
note_on channel=0 note=70 velocity=0 time=0
note_on channel=0 note=67 velocity=0 time=0
note_on channel=0 note=77 velocity=46 time=0
note_on channel=0 note=68 velocity=36 time=0
note_on channel=0 note=72 velocity=36 time=0
note_on channel=0 note=77 velocity=0 time=0
note_on channel=0 note=79 velocity=41 time=0
note_on channel=0 note=79 velocity=0 time=0
note_on channel=0 note=77 velocity=46 time=0
note_on channel=0 note=77 velocity=0 time=0
note_on channel=0 note=79 velocity=41 time=0
note_on channel=0 note=79 velocity=0 time=0
note_on channel=0 note=77 velocity=46 time=0
note_on channel=0 note=77 velocity=0 time=0
note_on channel=0 note=79 velocity=41 time=0
note_on channel=0 note=79 velocity=0 time=0
note_on channel=0 note=77 velocity=46 time=0
note_on channel=0 note=77 velocity=0 time=0
note_on channel=0 note=79 velocity=42 time=0
note_on channel=0 note=79 velocity=0 time=0
note_on channel=0 note=77 velocity=46 time=0
note_on channel=0 note=77 velocity=0 time=0
note_on channel=0 note=79 velocity=43 time=0
note_on channel=0 note=79 velocity=0 time=0
note_on channel=0 note=77 velocity=40 time=0
note_on channel=0 note=77 velocity=0 time=0
note_on channel=0 note=79 velocity=46 time=0
note_on channel=0 note=79 velocity=0 time=0
note_on channel=0 note=77 velocity=42 time=0
note_on channel=0 note=77 velocity=0 time=120
note_on channel=0 note=76 velocity=48 time=0
note_on channel=0 note=76 velocity=0 time=0
note_on channel=0 note=77 velocity=44 time=0
note_on channel=0 note=77 velocity=0 time=0
note_on channel=0 note=72 velocity=0 time=0
note_on channel=0 note=68 velocity=0 time=0
note_on channel=0 note=67 velocity=103 time=0
note_on channel=0 note=64 velocity=81 time=0
note_on channel=0 note=64 velocity=0 time=56
note_on channel=0 note=67 velocity=0 time=0
note_on channel=0 note=76 velocity=101 time=0
note_on channel=0 note=73 velocity=85 time=0
note_on channel=0 note=46 velocity=61 time=240
note_on channel=0 note=52 velocity=69 time=0
note_on channel=0 note=55 velocity=81 time=0
note_on channel=0 note=49 velocity=61 time=0
note_on channel=0 note=73 velocity=0 time=235
note_on channel=0 note=76 velocity=0 time=0
note_on channel=0 note=76 velocity=81 time=5
note_on channel=0 note=79 velocity=96 time=0
note_on channel=0 note=55 velocity=0 time=235
note_on channel=0 note=46 velocity=0 time=0
note_on channel=0 note=52 velocity=0 time=0
note_on channel=0 note=49 velocity=0 time=0
note_on channel=0 note=58 velocity=57 time=5
note_on channel=0 note=64 velocity=64 time=0
note_on channel=0 note=61 velocity=57 time=0
note_on channel=0 note=67 velocity=76 time=0
note_on channel=0 note=79 velocity=0 time=235
note_on channel=0 note=76 velocity=0 time=0
note_on channel=0 note=82 velocity=101 time=5
note_on channel=0 note=79 velocity=85 time=0
note_on channel=0 note=61 velocity=0 time=235
note_on channel=0 note=58 velocity=0 time=0
note_on channel=0 note=64 velocity=0 time=0
note_on channel=0 note=67 velocity=0 time=0
note_on channel=0 note=58 velocity=55 time=5
note_on channel=0 note=64 velocity=63 time=0
note_on channel=0 note=67 velocity=73 time=0
note_on channel=0 note=61 velocity=55 time=0
note_on channel=0 note=79 velocity=0 time=235
note_on channel=0 note=82 velocity=0 time=0
note_on channel=0 note=82 velocity=80 time=5
note_on channel=0 note=85 velocity=95 time=0
note_on channel=0 note=67 velocity=0 time=235
note_on channel=0 note=58 velocity=0 time=0
note_on channel=0 note=64 velocity=0 time=0
note_on channel=0 note=61 velocity=0 time=0
note_on channel=0 note=61 velocity=61 time=5
note_on channel=0 note=64 velocity=69 time=0
note_on channel=0 note=67 velocity=81 time=0
note_on channel=0 note=58 velocity=61 time=0
note_on channel=0 note=85 velocity=0 time=235
note_on channel=0 note=82 velocity=0 time=0
note_on channel=0 note=85 velocity=86 time=5
note_on channel=0 note=88 velocity=103 time=0
note_on channel=0 note=67 velocity=0 time=235
note_on channel=0 note=61 velocity=0 time=0
note_on channel=0 note=64 velocity=0 time=0
note_on channel=0 note=58 velocity=0 time=0
note_on channel=0 note=61 velocity=55 time=5
note_on channel=0 note=58 velocity=55 time=0
note_on channel=0 note=67 velocity=73 time=0
note_on channel=0 note=64 velocity=63 time=0
note_on channel=0 note=88 velocity=0 time=235
note_on channel=0 note=85 velocity=0 time=0
note_on channel=0 note=88 velocity=78 time=0
note_on channel=0 note=91 velocity=94 time=0
note_on channel=0 note=67 velocity=0 time=235
note_on channel=0 note=61 velocity=0 time=0
note_on channel=0 note=58 velocity=0 time=0
note_on channel=0 note=64 velocity=0 time=0
note_on channel=0 note=91 velocity=0 time=3
note_on channel=0 note=88 velocity=0 time=0
note_on channel=0 note=79 velocity=79 time=0
note_on channel=0 note=76 velocity=59 time=0
note_on channel=0 note=70 velocity=59 time=0
note_on channel=0 note=73 velocity=59 time=0
note_on channel=0 note=79 velocity=0 time=0
note_on channel=0 note=80 velocity=87 time=0
note_on channel=0 note=80 velocity=0 time=9
note_on channel=0 note=73 velocity=0 time=0
note_on channel=0 note=70 velocity=0 time=0
note_on channel=0 note=76 velocity=0 time=0
note_on channel=0 note=77 velocity=64 time=0
note_on channel=0 note=80 velocity=76 time=0
note_on channel=0 note=71 velocity=59 time=0
note_on channel=0 note=74 velocity=59 time=0
note_on channel=0 note=80 velocity=0 time=14
note_on channel=0 note=82 velocity=68 time=0
note_on channel=0 note=82 velocity=0 time=0
note_on channel=0 note=80 velocity=76 time=0
note_on channel=0 note=80 velocity=0 time=0
note_on channel=0 note=82 velocity=68 time=0
note_on channel=0 note=82 velocity=0 time=0
note_on channel=0 note=80 velocity=76 time=0
note_on channel=0 note=80 velocity=0 time=20
note_on channel=0 note=82 velocity=68 time=0
note_on channel=0 note=82 velocity=0 time=0
note_on channel=0 note=80 velocity=76 time=0
note_on channel=0 note=80 velocity=0 time=0
note_on channel=0 note=82 velocity=67 time=0
note_on channel=0 note=82 velocity=0 time=0
note_on channel=0 note=80 velocity=67 time=0
note_on channel=0 note=80 velocity=0 time=0
note_on channel=0 note=79 velocity=70 time=0
note_on channel=0 note=79 velocity=0 time=120
note_on channel=0 note=82 velocity=79 time=0
note_on channel=0 note=82 velocity=0 time=0
note_on channel=0 note=80 velocity=73 time=0
note_on channel=0 note=80 velocity=0 time=0
note_on channel=0 note=74 velocity=0 time=0
note_on channel=0 note=71 velocity=0 time=0
note_on channel=0 note=77 velocity=0 time=0
note_on channel=0 note=76 velocity=58 time=0
note_on channel=0 note=79 velocity=58 time=0
note_on channel=0 note=60 velocity=39 time=0
note_on channel=0 note=60 velocity=0 time=0
note_on channel=0 note=72 velocity=36 time=0
note_on channel=0 note=72 velocity=0 time=220
note_on channel=0 note=72 velocity=36 time=20
note_on channel=0 note=72 velocity=0 time=220
note_on channel=0 note=79 velocity=0 time=0
note_on channel=0 note=76 velocity=0 time=0
note_on channel=0 note=72 velocity=39 time=0
note_on channel=0 note=72 velocity=0 time=220
note_on channel=0 note=72 velocity=37 time=20
note_on channel=0 note=72 velocity=0 time=220
note_on channel=0 note=72 velocity=36 time=20
note_on channel=0 note=72 velocity=0 time=220
note_on channel=0 note=72 velocity=39 time=0
note_on channel=0 note=72 velocity=0 time=220
note_on channel=0 note=72 velocity=35 time=0
note_on channel=0 note=72 velocity=0 time=220
note_on channel=0 note=72 velocity=35 time=20
note_on channel=0 note=72 velocity=0 time=220
note_on channel=0 note=72 velocity=39 time=0
note_on channel=0 note=72 velocity=0 time=220
note_on channel=0 note=72 velocity=36 time=20
note_on channel=0 note=72 velocity=0 time=220
note_on channel=0 note=72 velocity=36 time=20
note_on channel=0 note=72 velocity=0 time=220
note_on channel=0 note=77 velocity=56 time=0
note_on channel=0 note=80 velocity=56 time=0
note_on channel=0 note=72 velocity=38 time=0
note_on channel=0 note=72 velocity=0 time=220
note_on channel=0 note=72 velocity=38 time=20
note_on channel=0 note=72 velocity=0 time=220
note_on channel=0 note=80 velocity=0 time=0
note_on channel=0 note=77 velocity=0 time=0
note_on channel=0 note=68 velocity=39 time=0
note_on channel=0 note=65 velocity=39 time=0
note_on channel=0 note=65 velocity=0 time=240
note_on channel=0 note=68 velocity=0 time=0
note_on channel=0 note=72 velocity=37 time=0
note_on channel=0 note=72 velocity=0 time=220
note_on channel=0 note=72 velocity=37 time=20
note_on channel=0 note=72 velocity=0 time=220
note_on channel=0 note=72 velocity=41 time=0
note_on channel=0 note=72 velocity=0 time=220
note_on channel=0 note=72 velocity=37 time=0
note_on channel=0 note=72 velocity=0 time=220
note_on channel=0 note=72 velocity=38 time=20
note_on channel=0 note=72 velocity=0 time=220
note_on channel=0 note=72 velocity=46 time=0
note_on channel=0 note=72 velocity=0 time=220
note_on channel=0 note=72 velocity=40 time=20
note_on channel=0 note=72 velocity=0 time=220
note_on channel=0 note=72 velocity=40 time=20
note_on channel=0 note=72 velocity=0 time=220
note_on channel=0 note=80 velocity=75 time=0
note_on channel=0 note=77 velocity=75 time=0
note_on channel=0 note=85 velocity=75 time=0
note_on channel=0 note=72 velocity=38 time=0
note_on channel=0 note=72 velocity=0 time=220
note_on channel=0 note=72 velocity=38 time=20
note_on channel=0 note=72 velocity=0 time=220
note_on channel=0 note=68 velocity=40 time=0
note_on channel=0 note=65 velocity=40 time=0
note_on channel=0 note=65 velocity=0 time=240
note_on channel=0 note=68 velocity=0 time=0
note_on channel=0 note=72 velocity=37 time=0
note_on channel=0 note=72 velocity=0 time=220
note_on channel=0 note=72 velocity=37 time=20
note_on channel=0 note=72 velocity=0 time=220
note_on channel=0 note=65 velocity=37 time=0
note_on channel=0 note=68 velocity=37 time=0
note_on channel=0 note=68 velocity=0 time=240
note_on channel=0 note=65 velocity=0 time=0
note_on channel=0 note=72 velocity=37 time=0
note_on channel=0 note=72 velocity=0 time=220
note_on channel=0 note=72 velocity=37 time=20
note_on channel=0 note=72 velocity=0 time=220
note_on channel=0 note=65 velocity=37 time=0
note_on channel=0 note=68 velocity=37 time=0
note_on channel=0 note=68 velocity=0 time=240
note_on channel=0 note=65 velocity=0 time=0
note_on channel=0 note=72 velocity=37 time=0
note_on channel=0 note=72 velocity=0 time=220
note_on channel=0 note=72 velocity=37 time=20
note_on channel=0 note=72 velocity=0 time=220
note_on channel=0 note=80 velocity=0 time=0
note_on channel=0 note=77 velocity=0 time=0
note_on channel=0 note=85 velocity=0 time=0
note_on channel=0 note=79 velocity=52 time=0
note_on channel=0 note=76 velocity=52 time=0
note_on channel=0 note=84 velocity=52 time=0
note_on channel=0 note=64 velocity=39 time=0
note_on channel=0 note=67 velocity=39 time=0
note_on channel=0 note=67 velocity=0 time=0
note_on channel=0 note=64 velocity=0 time=0
note_on channel=0 note=60 velocity=37 time=0
note_on channel=0 note=60 velocity=0 time=220
note_on channel=0 note=84 velocity=0 time=20
note_on channel=0 note=76 velocity=0 time=0
note_on channel=0 note=79 velocity=0 time=0
note_on channel=0 note=60 velocity=37 time=0
note_on channel=0 note=60 velocity=0 time=220
note_on channel=0 note=60 velocity=38 time=0
note_on channel=0 note=60 velocity=0 time=220
note_on channel=0 note=60 velocity=37 time=20
note_on channel=0 note=60 velocity=0 time=220
note_on channel=0 note=60 velocity=37 time=20
note_on channel=0 note=60 velocity=0 time=220
note_on channel=0 note=60 velocity=37 time=0
note_on channel=0 note=60 velocity=0 time=220
note_on channel=0 note=60 velocity=37 time=0
note_on channel=0 note=60 velocity=0 time=220
note_on channel=0 note=60 velocity=37 time=20
note_on channel=0 note=60 velocity=0 time=220
note_on channel=0 note=76 velocity=56 time=0
note_on channel=0 note=79 velocity=56 time=0
note_on channel=0 note=60 velocity=38 time=0
note_on channel=0 note=60 velocity=0 time=220
note_on channel=0 note=60 velocity=37 time=0
note_on channel=0 note=60 velocity=0 time=220
note_on channel=0 note=60 velocity=37 time=20
note_on channel=0 note=79 velocity=0 time=0
note_on channel=0 note=76 velocity=0 time=0
note_on channel=0 note=79 velocity=52 time=0
note_on channel=0 note=76 velocity=52 time=0
note_on channel=0 note=60 velocity=0 time=100
note_on channel=0 note=76 velocity=0 time=0
note_on channel=0 note=79 velocity=0 time=0
note_on channel=0 note=80 velocity=58 time=0
note_on channel=0 note=77 velocity=58 time=0
note_on channel=0 note=60 velocity=39 time=0
note_on channel=0 note=60 velocity=0 time=220
note_on channel=0 note=60 velocity=37 time=20
note_on channel=0 note=60 velocity=0 time=220
note_on channel=0 note=77 velocity=0 time=0
note_on channel=0 note=80 velocity=0 time=0
note_on channel=0 note=79 velocity=52 time=0
note_on channel=0 note=76 velocity=52 time=0
note_on channel=0 note=60 velocity=37 time=0
note_on channel=0 note=60 velocity=0 time=220
note_on channel=0 note=76 velocity=0 time=20
note_on channel=0 note=79 velocity=0 time=0
note_on channel=0 note=60 velocity=38 time=0
note_on channel=0 note=60 velocity=0 time=220
note_on channel=0 note=60 velocity=37 time=20
note_on channel=0 note=60 velocity=0 time=220
note_on channel=0 note=67 velocity=50 time=0
note_on channel=0 note=64 velocity=50 time=0
note_on channel=0 note=60 velocity=37 time=0
note_on channel=0 note=60 velocity=0 time=220
note_on channel=0 note=64 velocity=0 time=0
note_on channel=0 note=67 velocity=0 time=0
note_on channel=0 note=60 velocity=38 time=0
note_on channel=0 note=60 velocity=0 time=220
note_on channel=0 note=60 velocity=39 time=20
note_on channel=0 note=60 velocity=0 time=220
note_on channel=0 note=55 velocity=49 time=20
note_on channel=0 note=52 velocity=49 time=0
note_on channel=0 note=60 velocity=37 time=0
note_on channel=0 note=60 velocity=0 time=220
note_on channel=0 note=52 velocity=0 time=20
note_on channel=0 note=55 velocity=0 time=0
note_on channel=0 note=55 velocity=44 time=0
note_on channel=0 note=58 velocity=44 time=0
note_on channel=0 note=58 velocity=0 time=0
note_on channel=0 note=55 velocity=0 time=0
note_on channel=0 note=60 velocity=37 time=0
note_on channel=0 note=60 velocity=0 time=220
note_on channel=0 note=60 velocity=37 time=0
note_on channel=0 note=79 velocity=58 time=120
note_on channel=0 note=76 velocity=58 time=0
note_on channel=0 note=60 velocity=0 time=60
note_on channel=0 note=76 velocity=0 time=0
note_on channel=0 note=79 velocity=0 time=0
note_on channel=0 note=82 velocity=61 time=0
note_on channel=0 note=79 velocity=61 time=0
note_on channel=0 note=60 velocity=39 time=0
note_on channel=0 note=60 velocity=0 time=220
note_on channel=0 note=60 velocity=37 time=20
note_on channel=0 note=60 velocity=0 time=220
note_on channel=0 note=79 velocity=0 time=0
note_on channel=0 note=82 velocity=0 time=0
note_on channel=0 note=77 velocity=52 time=0
note_on channel=0 note=80 velocity=52 time=0
note_on channel=0 note=60 velocity=37 time=0
note_on channel=0 note=60 velocity=0 time=220
note_on channel=0 note=80 velocity=0 time=20
note_on channel=0 note=77 velocity=0 time=0
note_on channel=0 note=60 velocity=37 time=0
note_on channel=0 note=60 velocity=0 time=220
note_on channel=0 note=60 velocity=37 time=20
note_on channel=0 note=60 velocity=0 time=220
note_on channel=0 note=65 velocity=49 time=0
note_on channel=0 note=68 velocity=49 time=0
note_on channel=0 note=60 velocity=37 time=0
note_on channel=0 note=60 velocity=0 time=220
note_on channel=0 note=68 velocity=0 time=20
note_on channel=0 note=65 velocity=0 time=0
note_on channel=0 note=60 velocity=38 time=0
note_on channel=0 note=60 velocity=0 time=220
note_on channel=0 note=60 velocity=37 time=0
note_on channel=0 note=60 velocity=0 time=220
note_on channel=0 note=53 velocity=47 time=20
note_on channel=0 note=56 velocity=47 time=0
note_on channel=0 note=60 velocity=37 time=0
note_on channel=0 note=60 velocity=0 time=220
note_on channel=0 note=56 velocity=0 time=15
note_on channel=0 note=53 velocity=0 time=0
note_on channel=0 note=56 velocity=48 time=5
note_on channel=0 note=53 velocity=44 time=0
note_on channel=0 note=53 velocity=0 time=0
note_on channel=0 note=56 velocity=0 time=0
note_on channel=0 note=60 velocity=37 time=0
note_on channel=0 note=60 velocity=0 time=220
note_on channel=0 note=60 velocity=37 time=20
note_on channel=0 note=77 velocity=52 time=0
note_on channel=0 note=80 velocity=52 time=0
note_on channel=0 note=60 velocity=0 time=100
note_on channel=0 note=80 velocity=0 time=0
note_on channel=0 note=77 velocity=0 time=0
note_on channel=0 note=80 velocity=75 time=0
note_on channel=0 note=77 velocity=75 time=0
note_on channel=0 note=85 velocity=75 time=0
note_on channel=0 note=60 velocity=38 time=0
note_on channel=0 note=60 velocity=0 time=220
note_on channel=0 note=60 velocity=38 time=20
note_on channel=0 note=60 velocity=0 time=220
note_on channel=0 note=53 velocity=40 time=0
note_on channel=0 note=56 velocity=40 time=0
note_on channel=0 note=56 velocity=0 time=240
note_on channel=0 note=53 velocity=0 time=0
note_on channel=0 note=60 velocity=37 time=0
note_on channel=0 note=60 velocity=0 time=220
note_on channel=0 note=60 velocity=37 time=20
note_on channel=0 note=60 velocity=0 time=220
note_on channel=0 note=56 velocity=37 time=0
note_on channel=0 note=53 velocity=37 time=0
note_on channel=0 note=53 velocity=0 time=240
note_on channel=0 note=56 velocity=0 time=0
note_on channel=0 note=60 velocity=37 time=0
note_on channel=0 note=60 velocity=0 time=220
note_on channel=0 note=60 velocity=37 time=20
note_on channel=0 note=60 velocity=0 time=220
note_on channel=0 note=56 velocity=36 time=0
note_on channel=0 note=53 velocity=36 time=0
note_on channel=0 note=53 velocity=0 time=240
note_on channel=0 note=56 velocity=0 time=0
note_on channel=0 note=60 velocity=37 time=0
note_on channel=0 note=60 velocity=0 time=220
note_on channel=0 note=60 velocity=37 time=20
note_on channel=0 note=60 velocity=0 time=220
note_on channel=0 note=80 velocity=0 time=20
note_on channel=0 note=77 velocity=0 time=0
note_on channel=0 note=85 velocity=0 time=0
note_on channel=0 note=79 velocity=61 time=0
note_on channel=0 note=76 velocity=61 time=0
note_on channel=0 note=84 velocity=61 time=0
note_on channel=0 note=60 velocity=38 time=0
note_on channel=0 note=60 velocity=0 time=220
note_on channel=0 note=79 velocity=0 time=20
note_on channel=0 note=76 velocity=0 time=0
note_on channel=0 note=84 velocity=0 time=0
note_on channel=0 note=60 velocity=38 time=0
note_on channel=0 note=60 velocity=0 time=220
note_on channel=0 note=52 velocity=40 time=0
note_on channel=0 note=55 velocity=40 time=0
note_on channel=0 note=55 velocity=0 time=240
note_on channel=0 note=52 velocity=0 time=0
note_on channel=0 note=60 velocity=37 time=0
note_on channel=0 note=60 velocity=0 time=220
note_on channel=0 note=60 velocity=37 time=20
note_on channel=0 note=60 velocity=0 time=220
note_on channel=0 note=66 velocity=52 time=0
note_on channel=0 note=63 velocity=52 time=0
note_on channel=0 note=72 velocity=52 time=0
note_on channel=0 note=60 velocity=37 time=0
note_on channel=0 note=60 velocity=0 time=220
note_on channel=0 note=60 velocity=37 time=20
note_on channel=0 note=60 velocity=0 time=220
note_on channel=0 note=54 velocity=36 time=0
note_on channel=0 note=51 velocity=36 time=0
note_on channel=0 note=51 velocity=0 time=240
note_on channel=0 note=54 velocity=0 time=0
note_on channel=0 note=60 velocity=37 time=0
note_on channel=0 note=60 velocity=0 time=220
note_on channel=0 note=60 velocity=37 time=20
note_on channel=0 note=60 velocity=0 time=220
note_on channel=0 note=66 velocity=0 time=0
note_on channel=0 note=63 velocity=0 time=0
note_on channel=0 note=72 velocity=0 time=0
note_on channel=0 note=65 velocity=52 time=0
note_on channel=0 note=71 velocity=52 time=0
note_on channel=0 note=62 velocity=52 time=0
note_on channel=0 note=60 velocity=37 time=0
note_on channel=0 note=60 velocity=0 time=220
note_on channel=0 note=65 velocity=0 time=20
note_on channel=0 note=71 velocity=0 time=0
note_on channel=0 note=62 velocity=0 time=0
note_on channel=0 note=60 velocity=36 time=0
note_on channel=0 note=60 velocity=0 time=220
note_on channel=0 note=50 velocity=38 time=0
note_on channel=0 note=53 velocity=38 time=0
note_on channel=0 note=53 velocity=0 time=240
note_on channel=0 note=50 velocity=0 time=0
note_on channel=0 note=60 velocity=34 time=0
note_on channel=0 note=60 velocity=0 time=220
note_on channel=0 note=60 velocity=34 time=20
note_on channel=0 note=60 velocity=0 time=220
note_on channel=0 note=61 velocity=46 time=0
note_on channel=0 note=70 velocity=46 time=0
note_on channel=0 note=65 velocity=46 time=0
note_on channel=0 note=60 velocity=32 time=0
note_on channel=0 note=60 velocity=0 time=220
note_on channel=0 note=61 velocity=0 time=20
note_on channel=0 note=70 velocity=0 time=0
note_on channel=0 note=65 velocity=0 time=0
note_on channel=0 note=60 velocity=32 time=0
note_on channel=0 note=60 velocity=0 time=220
note_on channel=0 note=53 velocity=30 time=20
note_on channel=0 note=49 velocity=30 time=0
note_on channel=0 note=49 velocity=0 time=240
note_on channel=0 note=53 velocity=0 time=0
note_on channel=0 note=60 velocity=31 time=0
note_on channel=0 note=60 velocity=0 time=220
note_on channel=0 note=60 velocity=30 time=0
note_on channel=0 note=60 velocity=0 time=220
note_on channel=0 note=60 velocity=41 time=0
note_on channel=0 note=68 velocity=41 time=0
note_on channel=0 note=65 velocity=41 time=0
note_on channel=0 note=48 velocity=25 time=240
note_on channel=0 note=48 velocity=0 time=220
note_on channel=0 note=48 velocity=26 time=0
note_on channel=0 note=48 velocity=0 time=220
note_on channel=0 note=65 velocity=0 time=20
note_on channel=0 note=68 velocity=0 time=0
note_on channel=0 note=60 velocity=0 time=0
note_on channel=0 note=48 velocity=28 time=0
note_on channel=0 note=48 velocity=0 time=220
note_on channel=0 note=48 velocity=26 time=0
note_on channel=0 note=48 velocity=0 time=220
note_on channel=0 note=48 velocity=26 time=20
note_on channel=0 note=48 velocity=0 time=220
note_on channel=0 note=48 velocity=28 time=0
note_on channel=0 note=48 velocity=0 time=220
note_on channel=0 note=48 velocity=26 time=20
note_on channel=0 note=48 velocity=0 time=220
note_on channel=0 note=48 velocity=26 time=0
note_on channel=0 note=48 velocity=0 time=220
note_on channel=0 note=48 velocity=28 time=20
note_on channel=0 note=48 velocity=0 time=220
note_on channel=0 note=48 velocity=26 time=0
note_on channel=0 note=48 velocity=0 time=220
note_on channel=0 note=48 velocity=27 time=20
note_on channel=0 note=48 velocity=0 time=220
note_on channel=0 note=55 velocity=41 time=0
note_on channel=0 note=46 velocity=41 time=0
note_on channel=0 note=52 velocity=41 time=0
note_on channel=0 note=48 velocity=41 time=0
note_on channel=0 note=36 velocity=25 time=40
note_on channel=0 note=36 velocity=0 time=240
note_on channel=0 note=36 velocity=26 time=0
note_on channel=0 note=36 velocity=0 time=160
note_on channel=0 note=48 velocity=0 time=0
note_on channel=0 note=55 velocity=0 time=0
note_on channel=0 note=46 velocity=0 time=0
note_on channel=0 note=52 velocity=0 time=0
note_on channel=0 note=36 velocity=28 time=0
note_on channel=0 note=36 velocity=0 time=40
note_on channel=0 note=36 velocity=26 time=0
note_on channel=0 note=36 velocity=0 time=240
note_on channel=0 note=36 velocity=26 time=0
note_on channel=0 note=36 velocity=0 time=160
note_on channel=0 note=36 velocity=28 time=0
note_on channel=0 note=36 velocity=0 time=40
note_on channel=0 note=36 velocity=26 time=0
note_on channel=0 note=36 velocity=0 time=0
note_on channel=0 note=36 velocity=26 time=0
note_on channel=0 note=36 velocity=0 time=40
note_on channel=0 note=36 velocity=28 time=0
note_on channel=0 note=36 velocity=0 time=0
note_on channel=0 note=36 velocity=26 time=0
note_on channel=0 note=36 velocity=0 time=0
note_on channel=0 note=36 velocity=27 time=0
note_on channel=0 note=36 velocity=0 time=0
note_on channel=0 note=29 velocity=28 time=0
note_on channel=0 note=29 velocity=0 time=0
note_on channel=0 note=33 velocity=20 time=0
note_on channel=0 note=36 velocity=20 time=0
note_on channel=0 note=41 velocity=25 time=0
note_on channel=0 note=41 velocity=0 time=240
note_on channel=0 note=36 velocity=0 time=0
note_on channel=0 note=33 velocity=0 time=0
note_on channel=0 note=29 velocity=26 time=0
note_on channel=0 note=29 velocity=0 time=240
note_on channel=0 note=33 velocity=22 time=0
note_on channel=0 note=36 velocity=22 time=0
note_on channel=0 note=41 velocity=28 time=0
note_on channel=0 note=41 velocity=0 time=240
note_on channel=0 note=36 velocity=0 time=0
note_on channel=0 note=33 velocity=0 time=0
note_on channel=0 note=29 velocity=26 time=0
note_on channel=0 note=29 velocity=0 time=240
note_on channel=0 note=33 velocity=20 time=0
note_on channel=0 note=36 velocity=20 time=0
note_on channel=0 note=41 velocity=26 time=0
note_on channel=0 note=41 velocity=0 time=240
note_on channel=0 note=36 velocity=0 time=0
note_on channel=0 note=33 velocity=0 time=0
note_on channel=0 note=29 velocity=28 time=0
note_on channel=0 note=29 velocity=0 time=84
note_on channel=0 note=33 velocity=20 time=0
note_on channel=0 note=36 velocity=20 time=0
note_on channel=0 note=41 velocity=26 time=0
note_on channel=0 note=41 velocity=0 time=240
note_on channel=0 note=36 velocity=0 time=0
note_on channel=0 note=33 velocity=0 time=0
note_on channel=0 note=29 velocity=26 time=0
note_on channel=0 note=29 velocity=0 time=240
note_on channel=0 note=57 velocity=44 time=0
note_on channel=0 note=45 velocity=40 time=0
note_on channel=0 note=36 velocity=22 time=0
note_on channel=0 note=33 velocity=22 time=0
note_on channel=0 note=41 velocity=28 time=0
note_on channel=0 note=41 velocity=0 time=0
note_on channel=0 note=36 velocity=0 time=0
note_on channel=0 note=33 velocity=0 time=0
note_on channel=0 note=29 velocity=26 time=0
note_on channel=0 note=29 velocity=0 time=240
note_on channel=0 note=41 velocity=27 time=0
note_on channel=0 note=33 velocity=21 time=0
note_on channel=0 note=36 velocity=21 time=0
note_on channel=0 note=45 velocity=0 time=0
note_on channel=0 note=57 velocity=0 time=0
note_on channel=0 note=60 velocity=40 time=0
note_on channel=0 note=48 velocity=37 time=0
note_on channel=0 note=48 velocity=0 time=0
note_on channel=0 note=33 velocity=0 time=0
note_on channel=0 note=36 velocity=0 time=0
note_on channel=0 note=41 velocity=0 time=0
note_on channel=0 note=60 velocity=0 time=0
note_on channel=0 note=53 velocity=38 time=0
note_on channel=0 note=65 velocity=41 time=0
note_on channel=0 note=29 velocity=28 time=0
note_on channel=0 note=29 velocity=0 time=141
note_on channel=0 note=33 velocity=20 time=0
note_on channel=0 note=36 velocity=20 time=0
note_on channel=0 note=41 velocity=25 time=0
note_on channel=0 note=41 velocity=0 time=240
note_on channel=0 note=33 velocity=0 time=0
note_on channel=0 note=36 velocity=0 time=0
note_on channel=0 note=29 velocity=26 time=0
note_on channel=0 note=29 velocity=0 time=0
note_on channel=0 note=65 velocity=0 time=0
note_on channel=0 note=53 velocity=0 time=0
note_on channel=0 note=57 velocity=40 time=0
note_on channel=0 note=69 velocity=44 time=0
note_on channel=0 note=41 velocity=28 time=0
note_on channel=0 note=36 velocity=22 time=0
note_on channel=0 note=33 velocity=22 time=0
note_on channel=0 note=33 velocity=0 time=0
note_on channel=0 note=41 velocity=0 time=0
note_on channel=0 note=36 velocity=0 time=0
note_on channel=0 note=29 velocity=26 time=0
note_on channel=0 note=29 velocity=0 time=240
note_on channel=0 note=36 velocity=20 time=0
note_on channel=0 note=41 velocity=26 time=0
note_on channel=0 note=33 velocity=20 time=0
note_on channel=0 note=69 velocity=0 time=0
note_on channel=0 note=57 velocity=0 time=0
note_on channel=0 note=65 velocity=39 time=0
note_on channel=0 note=53 velocity=36 time=0
note_on channel=0 note=53 velocity=0 time=120
note_on channel=0 note=41 velocity=0 time=0
note_on channel=0 note=33 velocity=0 time=0
note_on channel=0 note=36 velocity=0 time=0
note_on channel=0 note=65 velocity=0 time=0
note_on channel=0 note=64 velocity=41 time=0
note_on channel=0 note=52 velocity=38 time=0
note_on channel=0 note=31 velocity=28 time=0
note_on channel=0 note=31 velocity=0 time=99
note_on channel=0 note=34 velocity=20 time=0
note_on channel=0 note=40 velocity=20 time=0
note_on channel=0 note=43 velocity=26 time=0
note_on channel=0 note=43 velocity=0 time=240
note_on channel=0 note=34 velocity=0 time=0
note_on channel=0 note=40 velocity=0 time=0
note_on channel=0 note=31 velocity=26 time=0
note_on channel=0 note=31 velocity=0 time=0
note_on channel=0 note=52 velocity=0 time=0
note_on channel=0 note=64 velocity=0 time=0
note_on channel=0 note=67 velocity=44 time=0
note_on channel=0 note=55 velocity=40 time=0
note_on channel=0 note=34 velocity=22 time=0
note_on channel=0 note=43 velocity=28 time=0
note_on channel=0 note=40 velocity=22 time=0
note_on channel=0 note=40 velocity=0 time=0
note_on channel=0 note=34 velocity=0 time=0
note_on channel=0 note=43 velocity=0 time=0
note_on channel=0 note=31 velocity=26 time=0
note_on channel=0 note=31 velocity=0 time=240
note_on channel=0 note=40 velocity=21 time=0
note_on channel=0 note=43 velocity=27 time=0
note_on channel=0 note=34 velocity=21 time=0
note_on channel=0 note=55 velocity=0 time=0
note_on channel=0 note=67 velocity=0 time=0
note_on channel=0 note=64 velocity=39 time=0
note_on channel=0 note=52 velocity=36 time=0
note_on channel=0 note=52 velocity=0 time=0
note_on channel=0 note=43 velocity=0 time=0
note_on channel=0 note=34 velocity=0 time=0
note_on channel=0 note=40 velocity=0 time=0
note_on channel=0 note=64 velocity=0 time=0
note_on channel=0 note=53 velocity=38 time=0
note_on channel=0 note=65 velocity=41 time=0
note_on channel=0 note=33 velocity=28 time=0
note_on channel=0 note=33 velocity=0 time=84
note_on channel=0 note=41 velocity=20 time=0
note_on channel=0 note=45 velocity=25 time=0
note_on channel=0 note=36 velocity=20 time=0
note_on channel=0 note=36 velocity=0 time=240
note_on channel=0 note=41 velocity=0 time=0
note_on channel=0 note=45 velocity=0 time=0
note_on channel=0 note=33 velocity=26 time=0
note_on channel=0 note=33 velocity=0 time=0
note_on channel=0 note=65 velocity=0 time=0
note_on channel=0 note=53 velocity=0 time=0
note_on channel=0 note=60 velocity=40 time=0
note_on channel=0 note=48 velocity=40 time=0
note_on channel=0 note=45 velocity=28 time=0
note_on channel=0 note=41 velocity=22 time=0
note_on channel=0 note=36 velocity=22 time=0
note_on channel=0 note=36 velocity=0 time=240
note_on channel=0 note=45 velocity=0 time=0
note_on channel=0 note=41 velocity=0 time=0
note_on channel=0 note=33 velocity=26 time=0
note_on channel=0 note=33 velocity=0 time=240
note_on channel=0 note=36 velocity=20 time=0
note_on channel=0 note=45 velocity=26 time=0
note_on channel=0 note=41 velocity=20 time=0
note_on channel=0 note=41 velocity=0 time=240
note_on channel=0 note=36 velocity=0 time=0
note_on channel=0 note=45 velocity=0 time=0
note_on channel=0 note=33 velocity=28 time=0
note_on channel=0 note=33 velocity=0 time=120
note_on channel=0 note=45 velocity=26 time=0
note_on channel=0 note=36 velocity=20 time=0
note_on channel=0 note=41 velocity=20 time=0
note_on channel=0 note=41 velocity=0 time=240
note_on channel=0 note=45 velocity=0 time=0
note_on channel=0 note=36 velocity=0 time=0
note_on channel=0 note=33 velocity=26 time=0
note_on channel=0 note=33 velocity=0 time=240
note_on channel=0 note=48 velocity=0 time=0
note_on channel=0 note=60 velocity=0 time=0
note_on channel=0 note=62 velocity=44 time=0
note_on channel=0 note=41 velocity=28 time=0
note_on channel=0 note=50 velocity=40 time=0
note_on channel=0 note=41 velocity=0 time=0
note_on channel=0 note=34 velocity=26 time=0
note_on channel=0 note=34 velocity=0 time=240
note_on channel=0 note=41 velocity=27 time=0
note_on channel=0 note=50 velocity=0 time=0
note_on channel=0 note=62 velocity=0 time=0
note_on channel=0 note=58 velocity=40 time=0
note_on channel=0 note=46 velocity=37 time=0
note_on channel=0 note=46 velocity=0 time=0
note_on channel=0 note=58 velocity=0 time=0
note_on channel=0 note=41 velocity=0 time=0
note_on channel=0 note=57 velocity=44 time=0
note_on channel=0 note=45 velocity=40 time=0
note_on channel=0 note=36 velocity=28 time=0
note_on channel=0 note=36 velocity=0 time=113
note_on channel=0 note=41 velocity=25 time=0
note_on channel=0 note=41 velocity=0 time=240
note_on channel=0 note=36 velocity=26 time=0
note_on channel=0 note=36 velocity=0 time=0
note_on channel=0 note=45 velocity=0 time=0
note_on channel=0 note=57 velocity=0 time=0
note_on channel=0 note=60 velocity=44 time=0
note_on channel=0 note=41 velocity=28 time=0
note_on channel=0 note=48 velocity=40 time=0
note_on channel=0 note=41 velocity=0 time=0
note_on channel=0 note=36 velocity=25 time=0
note_on channel=0 note=36 velocity=0 time=240
note_on channel=0 note=41 velocity=25 time=0
note_on channel=0 note=48 velocity=0 time=0
note_on channel=0 note=60 velocity=0 time=0
note_on channel=0 note=57 velocity=39 time=0
note_on channel=0 note=45 velocity=36 time=0
note_on channel=0 note=45 velocity=0 time=120
note_on channel=0 note=57 velocity=0 time=0
note_on channel=0 note=41 velocity=0 time=0
note_on channel=0 note=55 velocity=44 time=0
note_on channel=0 note=43 velocity=40 time=0
note_on channel=0 note=36 velocity=28 time=0
note_on channel=0 note=36 velocity=0 time=134
note_on channel=0 note=40 velocity=25 time=0
note_on channel=0 note=40 velocity=0 time=240
note_on channel=0 note=36 velocity=25 time=0
note_on channel=0 note=36 velocity=0 time=0
note_on channel=0 note=43 velocity=0 time=0
note_on channel=0 note=55 velocity=0 time=0
note_on channel=0 note=60 velocity=44 time=0
note_on channel=0 note=48 velocity=40 time=0
note_on channel=0 note=40 velocity=28 time=0
note_on channel=0 note=40 velocity=0 time=0
note_on channel=0 note=36 velocity=25 time=0
note_on channel=0 note=36 velocity=0 time=240
note_on channel=0 note=40 velocity=25 time=0
note_on channel=0 note=48 velocity=0 time=0
note_on channel=0 note=60 velocity=0 time=0
note_on channel=0 note=58 velocity=39 time=0
note_on channel=0 note=46 velocity=36 time=0
note_on channel=0 note=46 velocity=0 time=0
note_on channel=0 note=58 velocity=0 time=0
note_on channel=0 note=40 velocity=0 time=0
note_on channel=0 note=57 velocity=42 time=0
note_on channel=0 note=41 velocity=28 time=0
note_on channel=0 note=41 velocity=0 time=99
note_on channel=0 note=45 velocity=20 time=0
note_on channel=0 note=48 velocity=20 time=0
note_on channel=0 note=53 velocity=25 time=0
note_on channel=0 note=53 velocity=0 time=240
note_on channel=0 note=48 velocity=0 time=0
note_on channel=0 note=45 velocity=0 time=0
note_on channel=0 note=41 velocity=27 time=0
note_on channel=0 note=41 velocity=0 time=0
note_on channel=0 note=57 velocity=0 time=0
note_on channel=0 note=60 velocity=42 time=0
note_on channel=0 note=45 velocity=23 time=0
note_on channel=0 note=48 velocity=23 time=0
note_on channel=0 note=53 velocity=29 time=0
note_on channel=0 note=53 velocity=0 time=240
note_on channel=0 note=48 velocity=0 time=0
note_on channel=0 note=45 velocity=0 time=0
note_on channel=0 note=41 velocity=28 time=0
note_on channel=0 note=41 velocity=0 time=240
note_on channel=0 note=45 velocity=22 time=0
note_on channel=0 note=48 velocity=22 time=0
note_on channel=0 note=53 velocity=29 time=0
note_on channel=0 note=53 velocity=0 time=240
note_on channel=0 note=48 velocity=0 time=0
note_on channel=0 note=45 velocity=0 time=0
note_on channel=0 note=41 velocity=32 time=0
note_on channel=0 note=41 velocity=0 time=99
note_on channel=0 note=45 velocity=24 time=0
note_on channel=0 note=48 velocity=24 time=0
note_on channel=0 note=53 velocity=31 time=0
note_on channel=0 note=53 velocity=0 time=240
note_on channel=0 note=48 velocity=0 time=0
note_on channel=0 note=45 velocity=0 time=0
note_on channel=0 note=41 velocity=31 time=0
note_on channel=0 note=41 velocity=0 time=240
note_on channel=0 note=60 velocity=0 time=0
note_on channel=0 note=69 velocity=55 time=0
note_on channel=0 note=57 velocity=51 time=0
note_on channel=0 note=48 velocity=27 time=0
note_on channel=0 note=45 velocity=27 time=0
note_on channel=0 note=53 velocity=35 time=0
note_on channel=0 note=53 velocity=0 time=0
note_on channel=0 note=48 velocity=0 time=0
note_on channel=0 note=45 velocity=0 time=0
note_on channel=0 note=41 velocity=33 time=0
note_on channel=0 note=41 velocity=0 time=240
note_on channel=0 note=53 velocity=34 time=0
note_on channel=0 note=45 velocity=27 time=0
note_on channel=0 note=48 velocity=27 time=0
note_on channel=0 note=57 velocity=0 time=0
note_on channel=0 note=69 velocity=0 time=0
note_on channel=0 note=72 velocity=53 time=0
note_on channel=0 note=60 velocity=49 time=0
note_on channel=0 note=60 velocity=0 time=0
note_on channel=0 note=45 velocity=0 time=0
note_on channel=0 note=48 velocity=0 time=0
note_on channel=0 note=53 velocity=0 time=0
note_on channel=0 note=72 velocity=0 time=0
note_on channel=0 note=65 velocity=51 time=0
note_on channel=0 note=77 velocity=56 time=0
note_on channel=0 note=41 velocity=37 time=0
note_on channel=0 note=41 velocity=0 time=134
note_on channel=0 note=45 velocity=27 time=0
note_on channel=0 note=48 velocity=27 time=0
note_on channel=0 note=53 velocity=34 time=0
note_on channel=0 note=53 velocity=0 time=240
note_on channel=0 note=45 velocity=0 time=0
note_on channel=0 note=48 velocity=0 time=0
note_on channel=0 note=41 velocity=36 time=0
note_on channel=0 note=41 velocity=0 time=0
note_on channel=0 note=77 velocity=0 time=0
note_on channel=0 note=65 velocity=0 time=0
note_on channel=0 note=81 velocity=62 time=0
note_on channel=0 note=69 velocity=57 time=0
note_on channel=0 note=45 velocity=30 time=0
note_on channel=0 note=48 velocity=30 time=0
note_on channel=0 note=53 velocity=39 time=0
note_on channel=0 note=53 velocity=0 time=0
note_on channel=0 note=45 velocity=0 time=0
note_on channel=0 note=48 velocity=0 time=0
note_on channel=0 note=41 velocity=37 time=0
note_on channel=0 note=41 velocity=0 time=240
note_on channel=0 note=48 velocity=29 time=0
note_on channel=0 note=53 velocity=38 time=0
note_on channel=0 note=45 velocity=29 time=0
note_on channel=0 note=69 velocity=0 time=0
note_on channel=0 note=81 velocity=0 time=0
note_on channel=0 note=77 velocity=58 time=0
note_on channel=0 note=65 velocity=53 time=0
note_on channel=0 note=65 velocity=0 time=120
note_on channel=0 note=53 velocity=0 time=0
note_on channel=0 note=45 velocity=0 time=0
note_on channel=0 note=48 velocity=0 time=0
note_on channel=0 note=77 velocity=0 time=0
note_on channel=0 note=76 velocity=61 time=0
note_on channel=0 note=64 velocity=57 time=0
note_on channel=0 note=43 velocity=40 time=0
note_on channel=0 note=43 velocity=0 time=77
note_on channel=0 note=46 velocity=29 time=0
note_on channel=0 note=48 velocity=29 time=0
note_on channel=0 note=55 velocity=38 time=0
note_on channel=0 note=55 velocity=0 time=240
note_on channel=0 note=46 velocity=0 time=0
note_on channel=0 note=48 velocity=0 time=0
note_on channel=0 note=43 velocity=39 time=0
note_on channel=0 note=43 velocity=0 time=0
note_on channel=0 note=64 velocity=0 time=0
note_on channel=0 note=76 velocity=0 time=0
note_on channel=0 note=79 velocity=68 time=0
note_on channel=0 note=67 velocity=62 time=0
note_on channel=0 note=46 velocity=34 time=0
note_on channel=0 note=55 velocity=42 time=0
note_on channel=0 note=48 velocity=34 time=0
note_on channel=0 note=48 velocity=0 time=0
note_on channel=0 note=46 velocity=0 time=0
note_on channel=0 note=55 velocity=0 time=0
note_on channel=0 note=43 velocity=40 time=0
note_on channel=0 note=43 velocity=0 time=240
note_on channel=0 note=48 velocity=33 time=0
note_on channel=0 note=55 velocity=42 time=0
note_on channel=0 note=46 velocity=33 time=0
note_on channel=0 note=67 velocity=0 time=0
note_on channel=0 note=79 velocity=0 time=0
note_on channel=0 note=76 velocity=63 time=0
note_on channel=0 note=64 velocity=58 time=0
note_on channel=0 note=64 velocity=0 time=0
note_on channel=0 note=55 velocity=0 time=0
note_on channel=0 note=46 velocity=0 time=0
note_on channel=0 note=48 velocity=0 time=0
note_on channel=0 note=76 velocity=0 time=0
note_on channel=0 note=77 velocity=57 time=0
note_on channel=0 note=65 velocity=51 time=0
note_on channel=0 note=57 velocity=36 time=0
note_on channel=0 note=48 velocity=28 time=0
note_on channel=0 note=45 velocity=28 time=0
note_on channel=0 note=53 velocity=36 time=0
note_on channel=0 note=65 velocity=0 time=0
note_on channel=0 note=77 velocity=0 time=0
note_on channel=0 note=60 velocity=48 time=0
note_on channel=0 note=72 velocity=52 time=0
note_on channel=0 note=72 velocity=0 time=0
note_on channel=0 note=53 velocity=0 time=0
note_on channel=0 note=57 velocity=0 time=0
note_on channel=0 note=48 velocity=0 time=0
note_on channel=0 note=60 velocity=0 time=0
note_on channel=0 note=45 velocity=0 time=0
note_on channel=0 note=61 velocity=72 time=0
note_on channel=0 note=73 velocity=85 time=0
note_on channel=0 note=49 velocity=50 time=0
note_on channel=0 note=53 velocity=59 time=0
note_on channel=0 note=46 velocity=50 time=0
note_on channel=0 note=53 velocity=0 time=0
note_on channel=0 note=73 velocity=0 time=0
note_on channel=0 note=61 velocity=0 time=0
note_on channel=0 note=58 velocity=69 time=0
note_on channel=0 note=70 velocity=81 time=0
note_on channel=0 note=54 velocity=57 time=0
note_on channel=0 note=54 velocity=0 time=0
note_on channel=0 note=58 velocity=0 time=0
note_on channel=0 note=46 velocity=0 time=0
note_on channel=0 note=49 velocity=0 time=0
note_on channel=0 note=70 velocity=0 time=0
note_on channel=0 note=68 velocity=58 time=0
note_on channel=0 note=48 velocity=28 time=0
note_on channel=0 note=56 velocity=36 time=0
note_on channel=0 note=53 velocity=36 time=0
note_on channel=0 note=68 velocity=0 time=0
note_on channel=0 note=67 velocity=51 time=0
note_on channel=0 note=67 velocity=0 time=0
note_on channel=0 note=65 velocity=49 time=0
note_on channel=0 note=65 velocity=0 time=20
note_on channel=0 note=48 velocity=0 time=0
note_on channel=0 note=56 velocity=0 time=0
note_on channel=0 note=53 velocity=0 time=0
note_on channel=0 note=67 velocity=46 time=0
note_on channel=0 note=48 velocity=25 time=0
note_on channel=0 note=52 velocity=31 time=0
note_on channel=0 note=58 velocity=31 time=0
note_on channel=0 note=67 velocity=0 time=20
note_on channel=0 note=68 velocity=39 time=0
note_on channel=0 note=68 velocity=0 time=0
note_on channel=0 note=67 velocity=46 time=0
note_on channel=0 note=67 velocity=0 time=0
note_on channel=0 note=68 velocity=40 time=0
note_on channel=0 note=68 velocity=0 time=40
note_on channel=0 note=67 velocity=47 time=0
note_on channel=0 note=67 velocity=0 time=0
note_on channel=0 note=68 velocity=40 time=0
note_on channel=0 note=68 velocity=0 time=0
note_on channel=0 note=67 velocity=48 time=0
note_on channel=0 note=67 velocity=0 time=0
note_on channel=0 note=68 velocity=41 time=0
note_on channel=0 note=68 velocity=0 time=0
note_on channel=0 note=67 velocity=49 time=0
note_on channel=0 note=67 velocity=0 time=16
note_on channel=0 note=68 velocity=42 time=0
note_on channel=0 note=68 velocity=0 time=0
note_on channel=0 note=67 velocity=50 time=0
note_on channel=0 note=67 velocity=0 time=16
note_on channel=0 note=68 velocity=42 time=0
note_on channel=0 note=68 velocity=0 time=0
note_on channel=0 note=67 velocity=51 time=0
note_on channel=0 note=67 velocity=0 time=16
note_on channel=0 note=68 velocity=44 time=0
note_on channel=0 note=68 velocity=0 time=28
note_on channel=0 note=67 velocity=51 time=0
note_on channel=0 note=67 velocity=0 time=16
note_on channel=0 note=68 velocity=45 time=0
note_on channel=0 note=68 velocity=0 time=0
note_on channel=0 note=67 velocity=52 time=0
note_on channel=0 note=67 velocity=0 time=16
note_on channel=0 note=68 velocity=46 time=0
note_on channel=0 note=68 velocity=0 time=0
note_on channel=0 note=67 velocity=53 time=0
note_on channel=0 note=67 velocity=0 time=0
note_on channel=0 note=68 velocity=48 time=0
note_on channel=0 note=68 velocity=0 time=40
note_on channel=0 note=67 velocity=55 time=0
note_on channel=0 note=67 velocity=0 time=0
note_on channel=0 note=68 velocity=48 time=0
note_on channel=0 note=68 velocity=0 time=0
note_on channel=0 note=67 velocity=56 time=0
note_on channel=0 note=67 velocity=0 time=0
note_on channel=0 note=68 velocity=48 time=0
note_on channel=0 note=68 velocity=0 time=0
note_on channel=0 note=58 velocity=0 time=0
note_on channel=0 note=52 velocity=0 time=0
note_on channel=0 note=48 velocity=0 time=0
note_on channel=0 note=73 velocity=46 time=0
note_on channel=0 note=73 velocity=0 time=0
note_on channel=0 note=72 velocity=39 time=0
note_on channel=0 note=72 velocity=0 time=16
note_on channel=0 note=73 velocity=46 time=0
note_on channel=0 note=73 velocity=0 time=0
note_on channel=0 note=72 velocity=40 time=0
note_on channel=0 note=72 velocity=0 time=0
note_on channel=0 note=73 velocity=48 time=0
note_on channel=0 note=73 velocity=0 time=16
note_on channel=0 note=72 velocity=41 time=0
note_on channel=0 note=72 velocity=0 time=0
note_on channel=0 note=73 velocity=50 time=0
note_on channel=0 note=73 velocity=0 time=0
note_on channel=0 note=72 velocity=44 time=0
note_on channel=0 note=72 velocity=0 time=40
note_on channel=0 note=73 velocity=51 time=0
note_on channel=0 note=73 velocity=0 time=16
note_on channel=0 note=72 velocity=45 time=0
note_on channel=0 note=72 velocity=0 time=16
note_on channel=0 note=73 velocity=53 time=0
note_on channel=0 note=73 velocity=0 time=28
note_on channel=0 note=72 velocity=47 time=0
note_on channel=0 note=72 velocity=0 time=56
note_on channel=0 note=73 velocity=56 time=0
note_on channel=0 note=73 velocity=0 time=16
note_on channel=0 note=72 velocity=48 time=0
note_on channel=0 note=72 velocity=0 time=16
note_on channel=0 note=73 velocity=56 time=0
note_on channel=0 note=73 velocity=0 time=28
note_on channel=0 note=72 velocity=47 time=0
note_on channel=0 note=72 velocity=0 time=56
note_on channel=0 note=73 velocity=56 time=0
note_on channel=0 note=73 velocity=0 time=0
note_on channel=0 note=72 velocity=48 time=0
note_on channel=0 note=72 velocity=0 time=28
note_on channel=0 note=73 velocity=56 time=0
note_on channel=0 note=73 velocity=0 time=56
note_on channel=0 note=72 velocity=49 time=0
note_on channel=0 note=72 velocity=0 time=0
note_on channel=0 note=73 velocity=56 time=0
note_on channel=0 note=73 velocity=0 time=16
note_on channel=0 note=72 velocity=49 time=0
note_on channel=0 note=72 velocity=0 time=0
note_on channel=0 note=71 velocity=56 time=0
note_on channel=0 note=71 velocity=0 time=0
note_on channel=0 note=72 velocity=48 time=0
note_on channel=0 note=72 velocity=0 time=0
note_on channel=0 note=85 velocity=49 time=0
note_on channel=0 note=85 velocity=0 time=16
note_on channel=0 note=84 velocity=41 time=0
note_on channel=0 note=84 velocity=0 time=0
note_on channel=0 note=85 velocity=49 time=0
note_on channel=0 note=85 velocity=0 time=0
note_on channel=0 note=84 velocity=43 time=0
note_on channel=0 note=84 velocity=0 time=16
note_on channel=0 note=85 velocity=51 time=0
note_on channel=0 note=85 velocity=0 time=0
note_on channel=0 note=84 velocity=45 time=0
note_on channel=0 note=84 velocity=0 time=0
note_on channel=0 note=85 velocity=54 time=0
note_on channel=0 note=85 velocity=0 time=0
note_on channel=0 note=84 velocity=45 time=0
note_on channel=0 note=84 velocity=0 time=0
note_on channel=0 note=85 velocity=55 time=0
note_on channel=0 note=85 velocity=0 time=40
note_on channel=0 note=84 velocity=46 time=0
note_on channel=0 note=84 velocity=0 time=28
note_on channel=0 note=85 velocity=56 time=0
note_on channel=0 note=85 velocity=0 time=0
note_on channel=0 note=84 velocity=49 time=0
note_on channel=0 note=84 velocity=0 time=16
note_on channel=0 note=85 velocity=60 time=0
note_on channel=0 note=85 velocity=0 time=0
note_on channel=0 note=84 velocity=49 time=0
note_on channel=0 note=84 velocity=0 time=16
note_on channel=0 note=85 velocity=58 time=0
note_on channel=0 note=85 velocity=0 time=0
note_on channel=0 note=84 velocity=48 time=0
note_on channel=0 note=84 velocity=0 time=28
note_on channel=0 note=85 velocity=55 time=0
note_on channel=0 note=85 velocity=0 time=0
note_on channel=0 note=84 velocity=45 time=0
note_on channel=0 note=84 velocity=0 time=16
note_on channel=0 note=85 velocity=54 time=0
note_on channel=0 note=85 velocity=0 time=0
note_on channel=0 note=84 velocity=45 time=0
note_on channel=0 note=84 velocity=0 time=16
note_on channel=0 note=85 velocity=52 time=0
note_on channel=0 note=85 velocity=0 time=16
note_on channel=0 note=84 velocity=44 time=0
note_on channel=0 note=84 velocity=0 time=0
note_on channel=0 note=83 velocity=50 time=0
note_on channel=0 note=83 velocity=0 time=0
note_on channel=0 note=84 velocity=40 time=0
note_on channel=0 note=84 velocity=0 time=0
note_on channel=0 note=85 velocity=47 time=0
note_on channel=0 note=85 velocity=0 time=225
note_on channel=0 note=84 velocity=47 time=0
note_on channel=0 note=84 velocity=0 time=240
note_on channel=0 note=82 velocity=45 time=0
note_on channel=0 note=82 velocity=0 time=240
note_on channel=0 note=80 velocity=42 time=0
note_on channel=0 note=80 velocity=0 time=240
note_on channel=0 note=79 velocity=43 time=0
note_on channel=0 note=79 velocity=0 time=240
note_on channel=0 note=78 velocity=42 time=0
note_on channel=0 note=78 velocity=0 time=240
note_on channel=0 note=77 velocity=42 time=0
note_on channel=0 note=77 velocity=0 time=240
note_on channel=0 note=76 velocity=42 time=0
note_on channel=0 note=76 velocity=0 time=240
note_on channel=0 note=75 velocity=42 time=0
note_on channel=0 note=75 velocity=0 time=240
note_on channel=0 note=73 velocity=42 time=0
note_on channel=0 note=73 velocity=0 time=240
note_on channel=0 note=72 velocity=41 time=0
note_on channel=0 note=72 velocity=0 time=240
note_on channel=0 note=70 velocity=41 time=0
note_on channel=0 note=70 velocity=0 time=0
note_on channel=0 note=68 velocity=41 time=0
note_on channel=0 note=68 velocity=0 time=80
note_on channel=0 note=67 velocity=39 time=0
note_on channel=0 note=67 velocity=0 time=40
note_on channel=0 note=66 velocity=39 time=0
note_on channel=0 note=66 velocity=0 time=20
note_on channel=0 note=65 velocity=38 time=0
note_on channel=0 note=65 velocity=0 time=0
note_on channel=0 note=64 velocity=37 time=0
note_on channel=0 note=64 velocity=0 time=240
note_on channel=0 note=63 velocity=36 time=0
note_on channel=0 note=63 velocity=0 time=240
note_on channel=0 note=61 velocity=36 time=0
note_on channel=0 note=61 velocity=0 time=240
note_on channel=0 note=60 velocity=36 time=0
note_on channel=0 note=60 velocity=0 time=240
note_on channel=0 note=58 velocity=35 time=0
note_on channel=0 note=58 velocity=0 time=240
note_on channel=0 note=56 velocity=34 time=0
note_on channel=0 note=56 velocity=0 time=240
note_on channel=0 note=55 velocity=35 time=0
note_on channel=0 note=55 velocity=0 time=240
note_on channel=0 note=54 velocity=33 time=0
note_on channel=0 note=54 velocity=0 time=0
note_on channel=0 note=53 velocity=34 time=0
note_on channel=0 note=53 velocity=0 time=0
note_on channel=0 note=52 velocity=33 time=0
note_on channel=0 note=52 velocity=0 time=0
note_on channel=0 note=51 velocity=33 time=0
note_on channel=0 note=51 velocity=0 time=0
note_on channel=0 note=49 velocity=33 time=0
note_on channel=0 note=49 velocity=0 time=0
note_on channel=0 note=48 velocity=32 time=0
note_on channel=0 note=48 velocity=0 time=0
note_on channel=0 note=46 velocity=32 time=0
note_on channel=0 note=46 velocity=0 time=20
note_on channel=0 note=44 velocity=34 time=0
note_on channel=0 note=44 velocity=0 time=240
note_on channel=0 note=43 velocity=33 time=0
note_on channel=0 note=43 velocity=0 time=240
note_on channel=0 note=42 velocity=33 time=0
note_on channel=0 note=42 velocity=0 time=240
note_on channel=0 note=41 velocity=33 time=0
note_on channel=0 note=41 velocity=0 time=240
note_on channel=0 note=40 velocity=33 time=0
note_on channel=0 note=40 velocity=0 time=0
note_on channel=0 note=39 velocity=33 time=0
note_on channel=0 note=39 velocity=0 time=0
note_on channel=0 note=37 velocity=34 time=0
note_on channel=0 note=37 velocity=0 time=240
note_on channel=0 note=36 velocity=34 time=0
note_on channel=0 note=36 velocity=0 time=240
note_on channel=0 note=34 velocity=34 time=0
note_on channel=0 note=34 velocity=0 time=240
note_on channel=0 note=32 velocity=34 time=0
note_on channel=0 note=32 velocity=0 time=240
note_on channel=0 note=31 velocity=33 time=0
note_on channel=0 note=31 velocity=0 time=0
note_on channel=0 note=32 velocity=31 time=0
note_on channel=0 note=32 velocity=0 time=240
note_on channel=0 note=34 velocity=34 time=0
note_on channel=0 note=34 velocity=0 time=0
note_on channel=0 note=36 velocity=33 time=0
note_on channel=0 note=36 velocity=0 time=0
note_on channel=0 note=35 velocity=33 time=0
note_on channel=0 note=35 velocity=0 time=40
note_on channel=0 note=36 velocity=36 time=0
note_on channel=0 note=36 velocity=0 time=40
note_on channel=0 note=35 velocity=34 time=0
note_on channel=0 note=35 velocity=0 time=0
note_on channel=0 note=36 velocity=33 time=0
note_on channel=0 note=36 velocity=0 time=0
note_on channel=0 note=53 velocity=83 time=0
note_on channel=0 note=29 velocity=64 time=0
note_on channel=0 note=29 velocity=0 time=86
note_on channel=0 note=53 velocity=0 time=0
note_on channel=0 note=48 velocity=66 time=0
note_on channel=0 note=36 velocity=52 time=0
note_on channel=0 note=36 velocity=0 time=120
note_on channel=0 note=48 velocity=0 time=0
note_on channel=0 note=44 velocity=66 time=0
note_on channel=0 note=41 velocity=52 time=0
note_on channel=0 note=41 velocity=0 time=120
note_on channel=0 note=44 velocity=0 time=0
note_on channel=0 note=48 velocity=66 time=0
note_on channel=0 note=36 velocity=52 time=0
note_on channel=0 note=36 velocity=0 time=0
note_on channel=0 note=48 velocity=0 time=0
note_on channel=0 note=53 velocity=72 time=0
note_on channel=0 note=29 velocity=58 time=0
note_on channel=0 note=29 velocity=0 time=120
note_on channel=0 note=53 velocity=0 time=0
note_on channel=0 note=48 velocity=64 time=0
note_on channel=0 note=36 velocity=51 time=0
note_on channel=0 note=36 velocity=0 time=0
note_on channel=0 note=48 velocity=0 time=0
note_on channel=0 note=56 velocity=84 time=0
note_on channel=0 note=29 velocity=68 time=0
note_on channel=0 note=29 velocity=0 time=80
note_on channel=0 note=56 velocity=0 time=0
note_on channel=0 note=48 velocity=66 time=0
note_on channel=0 note=36 velocity=52 time=0
note_on channel=0 note=36 velocity=0 time=69
note_on channel=0 note=48 velocity=0 time=0
note_on channel=0 note=55 velocity=83 time=0
note_on channel=0 note=29 velocity=64 time=0
note_on channel=0 note=29 velocity=0 time=63
note_on channel=0 note=55 velocity=0 time=0
note_on channel=0 note=48 velocity=66 time=0
note_on channel=0 note=36 velocity=52 time=0
note_on channel=0 note=36 velocity=0 time=0
note_on channel=0 note=48 velocity=0 time=0
note_on channel=0 note=53 velocity=81 time=0
note_on channel=0 note=29 velocity=62 time=0
note_on channel=0 note=29 velocity=0 time=69
note_on channel=0 note=53 velocity=0 time=0
note_on channel=0 note=48 velocity=66 time=0
note_on channel=0 note=36 velocity=52 time=0
note_on channel=0 note=36 velocity=0 time=0
note_on channel=0 note=48 velocity=0 time=0
note_on channel=0 note=53 velocity=83 time=0
note_on channel=0 note=29 velocity=64 time=0
note_on channel=0 note=29 velocity=0 time=57
note_on channel=0 note=53 velocity=0 time=0
note_on channel=0 note=48 velocity=63 time=0
note_on channel=0 note=36 velocity=52 time=0
note_on channel=0 note=36 velocity=0 time=120
note_on channel=0 note=48 velocity=0 time=0
note_on channel=0 note=44 velocity=63 time=0
note_on channel=0 note=41 velocity=52 time=0
note_on channel=0 note=41 velocity=0 time=120
note_on channel=0 note=44 velocity=0 time=0
note_on channel=0 note=48 velocity=63 time=0
note_on channel=0 note=36 velocity=52 time=0
note_on channel=0 note=36 velocity=0 time=0
note_on channel=0 note=48 velocity=0 time=0
note_on channel=0 note=53 velocity=66 time=0
note_on channel=0 note=29 velocity=58 time=0
note_on channel=0 note=29 velocity=0 time=120
note_on channel=0 note=53 velocity=0 time=0
note_on channel=0 note=48 velocity=62 time=0
note_on channel=0 note=36 velocity=51 time=0
note_on channel=0 note=36 velocity=0 time=0
note_on channel=0 note=48 velocity=0 time=0
note_on channel=0 note=56 velocity=83 time=0
note_on channel=0 note=29 velocity=68 time=0
note_on channel=0 note=29 velocity=0 time=51
note_on channel=0 note=56 velocity=0 time=0
note_on channel=0 note=48 velocity=63 time=0
note_on channel=0 note=36 velocity=52 time=0
note_on channel=0 note=36 velocity=0 time=40
note_on channel=0 note=48 velocity=0 time=0
note_on channel=0 note=55 velocity=80 time=0
note_on channel=0 note=29 velocity=64 time=0
note_on channel=0 note=29 velocity=0 time=63
note_on channel=0 note=55 velocity=0 time=0
note_on channel=0 note=48 velocity=66 time=0
note_on channel=0 note=36 velocity=52 time=0
note_on channel=0 note=36 velocity=0 time=0
note_on channel=0 note=48 velocity=0 time=0
note_on channel=0 note=53 velocity=80 time=0
note_on channel=0 note=29 velocity=62 time=0
note_on channel=0 note=29 velocity=0 time=80
note_on channel=0 note=53 velocity=0 time=0
note_on channel=0 note=48 velocity=64 time=0
note_on channel=0 note=36 velocity=52 time=0
note_on channel=0 note=36 velocity=0 time=0
note_on channel=0 note=48 velocity=0 time=0
note_on channel=0 note=61 velocity=83 time=0
note_on channel=0 note=29 velocity=64 time=0
note_on channel=0 note=29 velocity=0 time=86
note_on channel=0 note=61 velocity=0 time=0
note_on channel=0 note=56 velocity=66 time=0
note_on channel=0 note=37 velocity=52 time=0
note_on channel=0 note=37 velocity=0 time=120
note_on channel=0 note=56 velocity=0 time=0
note_on channel=0 note=53 velocity=66 time=0
note_on channel=0 note=41 velocity=52 time=0
note_on channel=0 note=41 velocity=0 time=120
note_on channel=0 note=53 velocity=0 time=0
note_on channel=0 note=56 velocity=66 time=0
note_on channel=0 note=37 velocity=52 time=0
note_on channel=0 note=37 velocity=0 time=0
note_on channel=0 note=56 velocity=0 time=0
note_on channel=0 note=61 velocity=77 time=0
note_on channel=0 note=29 velocity=58 time=0
note_on channel=0 note=29 velocity=0 time=120
note_on channel=0 note=61 velocity=0 time=0
note_on channel=0 note=56 velocity=64 time=0
note_on channel=0 note=37 velocity=51 time=0
note_on channel=0 note=37 velocity=0 time=0
note_on channel=0 note=56 velocity=0 time=0
note_on channel=0 note=65 velocity=84 time=0
note_on channel=0 note=29 velocity=68 time=0
note_on channel=0 note=29 velocity=0 time=80
note_on channel=0 note=65 velocity=0 time=0
note_on channel=0 note=56 velocity=66 time=0
note_on channel=0 note=37 velocity=52 time=0
note_on channel=0 note=37 velocity=0 time=69
note_on channel=0 note=56 velocity=0 time=0
note_on channel=0 note=63 velocity=83 time=0
note_on channel=0 note=29 velocity=64 time=0
note_on channel=0 note=29 velocity=0 time=63
note_on channel=0 note=63 velocity=0 time=0
note_on channel=0 note=56 velocity=66 time=0
note_on channel=0 note=37 velocity=52 time=0
note_on channel=0 note=37 velocity=0 time=0
note_on channel=0 note=56 velocity=0 time=0
note_on channel=0 note=61 velocity=81 time=0
note_on channel=0 note=29 velocity=62 time=0
note_on channel=0 note=29 velocity=0 time=69
note_on channel=0 note=61 velocity=0 time=0
note_on channel=0 note=56 velocity=66 time=0
note_on channel=0 note=37 velocity=52 time=0
note_on channel=0 note=37 velocity=0 time=0
note_on channel=0 note=56 velocity=0 time=0
note_on channel=0 note=61 velocity=83 time=0
note_on channel=0 note=29 velocity=64 time=0
note_on channel=0 note=29 velocity=0 time=57
note_on channel=0 note=61 velocity=0 time=0
note_on channel=0 note=56 velocity=63 time=0
note_on channel=0 note=37 velocity=52 time=0
note_on channel=0 note=37 velocity=0 time=120
note_on channel=0 note=56 velocity=0 time=0
note_on channel=0 note=53 velocity=63 time=0
note_on channel=0 note=41 velocity=52 time=0
note_on channel=0 note=41 velocity=0 time=120
note_on channel=0 note=53 velocity=0 time=0
note_on channel=0 note=56 velocity=63 time=0
note_on channel=0 note=37 velocity=52 time=0
note_on channel=0 note=37 velocity=0 time=0
note_on channel=0 note=56 velocity=0 time=0
note_on channel=0 note=61 velocity=75 time=0
note_on channel=0 note=29 velocity=58 time=0
note_on channel=0 note=29 velocity=0 time=120
note_on channel=0 note=61 velocity=0 time=0
note_on channel=0 note=56 velocity=62 time=0
note_on channel=0 note=37 velocity=51 time=0
note_on channel=0 note=37 velocity=0 time=0
note_on channel=0 note=56 velocity=0 time=0
note_on channel=0 note=65 velocity=83 time=0
note_on channel=0 note=29 velocity=68 time=0
note_on channel=0 note=29 velocity=0 time=51
note_on channel=0 note=65 velocity=0 time=0
note_on channel=0 note=56 velocity=63 time=0
note_on channel=0 note=37 velocity=52 time=0
note_on channel=0 note=37 velocity=0 time=40
note_on channel=0 note=56 velocity=0 time=0
note_on channel=0 note=63 velocity=80 time=0
note_on channel=0 note=29 velocity=64 time=0
note_on channel=0 note=29 velocity=0 time=63
note_on channel=0 note=63 velocity=0 time=0
note_on channel=0 note=56 velocity=66 time=0
note_on channel=0 note=37 velocity=52 time=0
note_on channel=0 note=37 velocity=0 time=0
note_on channel=0 note=56 velocity=0 time=0
note_on channel=0 note=61 velocity=80 time=0
note_on channel=0 note=29 velocity=62 time=0
note_on channel=0 note=29 velocity=0 time=80
note_on channel=0 note=61 velocity=0 time=0
note_on channel=0 note=56 velocity=64 time=0
note_on channel=0 note=37 velocity=52 time=0
note_on channel=0 note=37 velocity=0 time=0
note_on channel=0 note=56 velocity=0 time=0
note_on channel=0 note=70 velocity=93 time=0
note_on channel=0 note=42 velocity=107 time=0
note_on channel=0 note=30 velocity=91 time=0
note_on channel=0 note=70 velocity=0 time=23
note_on channel=0 note=73 velocity=74 time=0
note_on channel=0 note=73 velocity=0 time=0
note_on channel=0 note=70 velocity=76 time=0
note_on channel=0 note=70 velocity=0 time=0
note_on channel=0 note=73 velocity=67 time=0
note_on channel=0 note=73 velocity=0 time=0
note_on channel=0 note=70 velocity=72 time=0
note_on channel=0 note=70 velocity=0 time=20
note_on channel=0 note=73 velocity=67 time=0
note_on channel=0 note=73 velocity=0 time=40
note_on channel=0 note=70 velocity=72 time=0
note_on channel=0 note=70 velocity=0 time=40
note_on channel=0 note=73 velocity=67 time=0
note_on channel=0 note=73 velocity=0 time=40
note_on channel=0 note=70 velocity=72 time=0
note_on channel=0 note=70 velocity=0 time=0
note_on channel=0 note=73 velocity=67 time=0
note_on channel=0 note=73 velocity=0 time=20
note_on channel=0 note=70 velocity=72 time=0
note_on channel=0 note=70 velocity=0 time=80
note_on channel=0 note=73 velocity=67 time=0
note_on channel=0 note=73 velocity=0 time=20
note_on channel=0 note=70 velocity=76 time=0
note_on channel=0 note=70 velocity=0 time=40
note_on channel=0 note=73 velocity=67 time=0
note_on channel=0 note=73 velocity=0 time=0
note_on channel=0 note=70 velocity=76 time=0
note_on channel=0 note=70 velocity=0 time=20
note_on channel=0 note=73 velocity=67 time=0
note_on channel=0 note=73 velocity=0 time=0
note_on channel=0 note=70 velocity=76 time=0
note_on channel=0 note=70 velocity=0 time=0
note_on channel=0 note=73 velocity=67 time=0
note_on channel=0 note=73 velocity=0 time=0
note_on channel=0 note=30 velocity=0 time=0
note_on channel=0 note=42 velocity=0 time=0
note_on channel=0 note=70 velocity=95 time=0
note_on channel=0 note=31 velocity=74 time=0
note_on channel=0 note=43 velocity=88 time=0
note_on channel=0 note=70 velocity=0 time=11
note_on channel=0 note=73 velocity=78 time=0
note_on channel=0 note=73 velocity=0 time=120
note_on channel=0 note=43 velocity=0 time=0
note_on channel=0 note=31 velocity=0 time=0
note_on channel=0 note=67 velocity=89 time=0
note_on channel=0 note=34 velocity=72 time=0
note_on channel=0 note=67 velocity=0 time=120
note_on channel=0 note=70 velocity=78 time=0
note_on channel=0 note=70 velocity=0 time=0
note_on channel=0 note=34 velocity=0 time=0
note_on channel=0 note=64 velocity=84 time=0
note_on channel=0 note=37 velocity=82 time=0
note_on channel=0 note=64 velocity=0 time=120
note_on channel=0 note=67 velocity=77 time=0
note_on channel=0 note=67 velocity=0 time=0
note_on channel=0 note=37 velocity=0 time=0
note_on channel=0 note=61 velocity=82 time=0
note_on channel=0 note=40 velocity=95 time=0
note_on channel=0 note=61 velocity=0 time=120
note_on channel=0 note=64 velocity=70 time=0
note_on channel=0 note=64 velocity=0 time=120
note_on channel=0 note=40 velocity=0 time=0
note_on channel=0 note=58 velocity=81 time=0
note_on channel=0 note=43 velocity=82 time=0
note_on channel=0 note=58 velocity=0 time=120
note_on channel=0 note=61 velocity=71 time=0
note_on channel=0 note=61 velocity=0 time=120
note_on channel=0 note=43 velocity=0 time=0
note_on channel=0 note=55 velocity=82 time=0
note_on channel=0 note=46 velocity=82 time=0
note_on channel=0 note=55 velocity=0 time=120
note_on channel=0 note=58 velocity=68 time=0
note_on channel=0 note=58 velocity=0 time=120
note_on channel=0 note=46 velocity=0 time=0
note_on channel=0 note=53 velocity=81 time=0
note_on channel=0 note=49 velocity=85 time=0
note_on channel=0 note=53 velocity=0 time=99
note_on channel=0 note=55 velocity=70 time=0
note_on channel=0 note=49 velocity=0 time=110
note_on channel=0 note=55 velocity=0 time=10
note_on channel=0 note=58 velocity=80 time=0
note_on channel=0 note=49 velocity=83 time=0
note_on channel=0 note=58 velocity=0 time=120
note_on channel=0 note=55 velocity=70 time=0
note_on channel=0 note=49 velocity=0 time=110
note_on channel=0 note=55 velocity=0 time=0
note_on channel=0 note=53 velocity=80 time=0
note_on channel=0 note=49 velocity=83 time=0
note_on channel=0 note=53 velocity=0 time=120
note_on channel=0 note=55 velocity=69 time=0
note_on channel=0 note=49 velocity=0 time=110
note_on channel=0 note=55 velocity=0 time=0
note_on channel=0 note=49 velocity=97 time=0
note_on channel=0 note=53 velocity=70 time=102
note_on channel=0 note=53 velocity=0 time=120
note_on channel=0 note=58 velocity=80 time=0
note_on channel=0 note=58 velocity=0 time=120
note_on channel=0 note=55 velocity=69 time=0
note_on channel=0 note=55 velocity=0 time=120
note_on channel=0 note=53 velocity=77 time=0
note_on channel=0 note=53 velocity=0 time=120
note_on channel=0 note=58 velocity=70 time=0
note_on channel=0 note=58 velocity=0 time=120
note_on channel=0 note=49 velocity=0 time=0
note_on channel=0 note=48 velocity=89 time=0
note_on channel=0 note=52 velocity=69 time=101
note_on channel=0 note=52 velocity=0 time=108
note_on channel=0 note=58 velocity=80 time=0
note_on channel=0 note=58 velocity=0 time=120
note_on channel=0 note=55 velocity=69 time=0
note_on channel=0 note=55 velocity=0 time=120
note_on channel=0 note=52 velocity=78 time=0
note_on channel=0 note=52 velocity=0 time=120
note_on channel=0 note=58 velocity=69 time=0
note_on channel=0 note=58 velocity=0 time=0
note_on channel=0 note=48 velocity=0 time=0
note_on channel=0 note=65 velocity=83 time=0
note_on channel=0 note=41 velocity=64 time=0
note_on channel=0 note=41 velocity=0 time=86
note_on channel=0 note=65 velocity=0 time=0
note_on channel=0 note=60 velocity=66 time=0
note_on channel=0 note=48 velocity=52 time=0
note_on channel=0 note=48 velocity=0 time=120
note_on channel=0 note=60 velocity=0 time=0
note_on channel=0 note=56 velocity=66 time=0
note_on channel=0 note=53 velocity=52 time=0
note_on channel=0 note=53 velocity=0 time=120
note_on channel=0 note=56 velocity=0 time=0
note_on channel=0 note=60 velocity=66 time=0
note_on channel=0 note=48 velocity=52 time=0
note_on channel=0 note=48 velocity=0 time=0
note_on channel=0 note=60 velocity=0 time=0
note_on channel=0 note=65 velocity=80 time=0
note_on channel=0 note=41 velocity=58 time=0
note_on channel=0 note=41 velocity=0 time=120
note_on channel=0 note=65 velocity=0 time=0
note_on channel=0 note=60 velocity=64 time=0
note_on channel=0 note=48 velocity=51 time=0
note_on channel=0 note=48 velocity=0 time=0
note_on channel=0 note=60 velocity=0 time=0
note_on channel=0 note=68 velocity=84 time=0
note_on channel=0 note=41 velocity=68 time=0
note_on channel=0 note=41 velocity=0 time=80
note_on channel=0 note=68 velocity=0 time=0
note_on channel=0 note=60 velocity=66 time=0
note_on channel=0 note=48 velocity=52 time=0
note_on channel=0 note=48 velocity=0 time=69
note_on channel=0 note=60 velocity=0 time=0
note_on channel=0 note=67 velocity=83 time=0
note_on channel=0 note=41 velocity=64 time=0
note_on channel=0 note=41 velocity=0 time=63
note_on channel=0 note=67 velocity=0 time=0
note_on channel=0 note=60 velocity=66 time=0
note_on channel=0 note=48 velocity=52 time=0
note_on channel=0 note=48 velocity=0 time=0
note_on channel=0 note=60 velocity=0 time=0
note_on channel=0 note=65 velocity=81 time=0
note_on channel=0 note=41 velocity=62 time=0
note_on channel=0 note=41 velocity=0 time=69
note_on channel=0 note=65 velocity=0 time=0
note_on channel=0 note=60 velocity=66 time=0
note_on channel=0 note=48 velocity=52 time=0
note_on channel=0 note=48 velocity=0 time=0
note_on channel=0 note=60 velocity=0 time=0
note_on channel=0 note=65 velocity=83 time=0
note_on channel=0 note=41 velocity=64 time=0
note_on channel=0 note=41 velocity=0 time=57
note_on channel=0 note=65 velocity=0 time=0
note_on channel=0 note=60 velocity=63 time=0
note_on channel=0 note=48 velocity=52 time=0
note_on channel=0 note=48 velocity=0 time=120
note_on channel=0 note=60 velocity=0 time=0
note_on channel=0 note=56 velocity=63 time=0
note_on channel=0 note=53 velocity=52 time=0
note_on channel=0 note=53 velocity=0 time=120
note_on channel=0 note=56 velocity=0 time=0
note_on channel=0 note=60 velocity=63 time=0
note_on channel=0 note=48 velocity=52 time=0
note_on channel=0 note=48 velocity=0 time=0
note_on channel=0 note=60 velocity=0 time=0
note_on channel=0 note=65 velocity=80 time=0
note_on channel=0 note=41 velocity=58 time=0
note_on channel=0 note=41 velocity=0 time=120
note_on channel=0 note=65 velocity=0 time=0
note_on channel=0 note=60 velocity=62 time=0
note_on channel=0 note=48 velocity=51 time=0
note_on channel=0 note=48 velocity=0 time=0
note_on channel=0 note=60 velocity=0 time=0
note_on channel=0 note=68 velocity=83 time=0
note_on channel=0 note=41 velocity=68 time=0
note_on channel=0 note=41 velocity=0 time=51
note_on channel=0 note=68 velocity=0 time=0
note_on channel=0 note=60 velocity=63 time=0
note_on channel=0 note=48 velocity=52 time=0
note_on channel=0 note=48 velocity=0 time=40
note_on channel=0 note=60 velocity=0 time=0
note_on channel=0 note=67 velocity=80 time=0
note_on channel=0 note=41 velocity=64 time=0
note_on channel=0 note=41 velocity=0 time=63
note_on channel=0 note=67 velocity=0 time=0
note_on channel=0 note=60 velocity=66 time=0
note_on channel=0 note=48 velocity=52 time=0
note_on channel=0 note=48 velocity=0 time=0
note_on channel=0 note=60 velocity=0 time=0
note_on channel=0 note=65 velocity=80 time=0
note_on channel=0 note=41 velocity=62 time=0
note_on channel=0 note=41 velocity=0 time=80
note_on channel=0 note=65 velocity=0 time=0
note_on channel=0 note=60 velocity=64 time=0
note_on channel=0 note=48 velocity=52 time=0
note_on channel=0 note=48 velocity=0 time=0
note_on channel=0 note=60 velocity=0 time=0
note_on channel=0 note=73 velocity=83 time=0
note_on channel=0 note=41 velocity=64 time=0
note_on channel=0 note=41 velocity=0 time=86
note_on channel=0 note=73 velocity=0 time=0
note_on channel=0 note=68 velocity=66 time=0
note_on channel=0 note=49 velocity=52 time=0
note_on channel=0 note=49 velocity=0 time=120
note_on channel=0 note=68 velocity=0 time=0
note_on channel=0 note=65 velocity=66 time=0
note_on channel=0 note=53 velocity=52 time=0
note_on channel=0 note=53 velocity=0 time=120
note_on channel=0 note=65 velocity=0 time=0
note_on channel=0 note=68 velocity=66 time=0
note_on channel=0 note=49 velocity=52 time=0
note_on channel=0 note=49 velocity=0 time=0
note_on channel=0 note=68 velocity=0 time=0
note_on channel=0 note=73 velocity=80 time=0
note_on channel=0 note=41 velocity=58 time=0
note_on channel=0 note=41 velocity=0 time=120
note_on channel=0 note=73 velocity=0 time=0
note_on channel=0 note=68 velocity=64 time=0
note_on channel=0 note=49 velocity=51 time=0
note_on channel=0 note=49 velocity=0 time=0
note_on channel=0 note=68 velocity=0 time=0
note_on channel=0 note=77 velocity=84 time=0
note_on channel=0 note=41 velocity=68 time=0
note_on channel=0 note=41 velocity=0 time=80
note_on channel=0 note=77 velocity=0 time=0
note_on channel=0 note=68 velocity=66 time=0
note_on channel=0 note=49 velocity=52 time=0
note_on channel=0 note=49 velocity=0 time=69
note_on channel=0 note=68 velocity=0 time=0
note_on channel=0 note=75 velocity=83 time=0
note_on channel=0 note=41 velocity=64 time=0
note_on channel=0 note=41 velocity=0 time=63
note_on channel=0 note=75 velocity=0 time=0
note_on channel=0 note=68 velocity=66 time=0
note_on channel=0 note=49 velocity=52 time=0
note_on channel=0 note=49 velocity=0 time=0
note_on channel=0 note=68 velocity=0 time=0
note_on channel=0 note=73 velocity=81 time=0
note_on channel=0 note=41 velocity=62 time=0
note_on channel=0 note=41 velocity=0 time=69
note_on channel=0 note=73 velocity=0 time=0
note_on channel=0 note=68 velocity=66 time=0
note_on channel=0 note=49 velocity=52 time=0
note_on channel=0 note=49 velocity=0 time=0
note_on channel=0 note=68 velocity=0 time=0
note_on channel=0 note=73 velocity=83 time=0
note_on channel=0 note=41 velocity=64 time=0
note_on channel=0 note=41 velocity=0 time=57
note_on channel=0 note=73 velocity=0 time=0
note_on channel=0 note=68 velocity=63 time=0
note_on channel=0 note=49 velocity=52 time=0
note_on channel=0 note=49 velocity=0 time=120
note_on channel=0 note=68 velocity=0 time=0
note_on channel=0 note=65 velocity=63 time=0
note_on channel=0 note=53 velocity=52 time=0
note_on channel=0 note=53 velocity=0 time=120
note_on channel=0 note=65 velocity=0 time=0
note_on channel=0 note=68 velocity=63 time=0
note_on channel=0 note=49 velocity=52 time=0
note_on channel=0 note=49 velocity=0 time=0
note_on channel=0 note=68 velocity=0 time=0
note_on channel=0 note=73 velocity=80 time=0
note_on channel=0 note=41 velocity=58 time=0
note_on channel=0 note=41 velocity=0 time=120
note_on channel=0 note=73 velocity=0 time=0
note_on channel=0 note=68 velocity=62 time=0
note_on channel=0 note=49 velocity=51 time=0
note_on channel=0 note=49 velocity=0 time=0
note_on channel=0 note=68 velocity=0 time=0
note_on channel=0 note=77 velocity=83 time=0
note_on channel=0 note=41 velocity=68 time=0
note_on channel=0 note=41 velocity=0 time=51
note_on channel=0 note=77 velocity=0 time=0
note_on channel=0 note=68 velocity=63 time=0
note_on channel=0 note=49 velocity=52 time=0
note_on channel=0 note=49 velocity=0 time=40
note_on channel=0 note=68 velocity=0 time=0
note_on channel=0 note=75 velocity=80 time=0
note_on channel=0 note=41 velocity=64 time=0
note_on channel=0 note=41 velocity=0 time=63
note_on channel=0 note=75 velocity=0 time=0
note_on channel=0 note=68 velocity=66 time=0
note_on channel=0 note=49 velocity=52 time=0
note_on channel=0 note=49 velocity=0 time=0
note_on channel=0 note=68 velocity=0 time=0
note_on channel=0 note=73 velocity=80 time=0
note_on channel=0 note=41 velocity=62 time=0
note_on channel=0 note=41 velocity=0 time=80
note_on channel=0 note=73 velocity=0 time=0
note_on channel=0 note=68 velocity=64 time=0
note_on channel=0 note=49 velocity=52 time=0
note_on channel=0 note=49 velocity=0 time=0
note_on channel=0 note=68 velocity=0 time=0
note_on channel=0 note=82 velocity=93 time=0
note_on channel=0 note=42 velocity=90 time=0
note_on channel=0 note=54 velocity=106 time=0
note_on channel=0 note=82 velocity=0 time=35
note_on channel=0 note=85 velocity=75 time=0
note_on channel=0 note=85 velocity=0 time=0
note_on channel=0 note=82 velocity=80 time=0
note_on channel=0 note=82 velocity=0 time=0
note_on channel=0 note=85 velocity=69 time=0
note_on channel=0 note=85 velocity=0 time=0
note_on channel=0 note=82 velocity=77 time=0
note_on channel=0 note=82 velocity=0 time=20
note_on channel=0 note=85 velocity=69 time=0
note_on channel=0 note=85 velocity=0 time=40
note_on channel=0 note=82 velocity=78 time=0
note_on channel=0 note=82 velocity=0 time=40
note_on channel=0 note=85 velocity=69 time=0
note_on channel=0 note=85 velocity=0 time=40
note_on channel=0 note=82 velocity=74 time=0
note_on channel=0 note=82 velocity=0 time=0
note_on channel=0 note=85 velocity=69 time=0
note_on channel=0 note=85 velocity=0 time=20
note_on channel=0 note=82 velocity=74 time=0
note_on channel=0 note=82 velocity=0 time=80
note_on channel=0 note=85 velocity=69 time=0
note_on channel=0 note=85 velocity=0 time=20
note_on channel=0 note=82 velocity=74 time=0
note_on channel=0 note=82 velocity=0 time=40
note_on channel=0 note=85 velocity=69 time=0
note_on channel=0 note=85 velocity=0 time=0
note_on channel=0 note=82 velocity=74 time=0
note_on channel=0 note=82 velocity=0 time=20
note_on channel=0 note=85 velocity=69 time=0
note_on channel=0 note=85 velocity=0 time=0
note_on channel=0 note=82 velocity=74 time=0
note_on channel=0 note=82 velocity=0 time=0
note_on channel=0 note=85 velocity=69 time=0
note_on channel=0 note=85 velocity=0 time=0
note_on channel=0 note=54 velocity=0 time=0
note_on channel=0 note=42 velocity=0 time=0
note_on channel=0 note=82 velocity=75 time=0
note_on channel=0 note=55 velocity=88 time=0
note_on channel=0 note=43 velocity=59 time=0
note_on channel=0 note=82 velocity=0 time=14
note_on channel=0 note=85 velocity=69 time=0
note_on channel=0 note=85 velocity=0 time=120
note_on channel=0 note=43 velocity=0 time=0
note_on channel=0 note=55 velocity=0 time=0
note_on channel=0 note=82 velocity=77 time=0
note_on channel=0 note=46 velocity=58 time=0
note_on channel=0 note=58 velocity=72 time=0
note_on channel=0 note=82 velocity=0 time=120
note_on channel=0 note=85 velocity=69 time=0
note_on channel=0 note=85 velocity=0 time=0
note_on channel=0 note=58 velocity=0 time=0
note_on channel=0 note=46 velocity=0 time=0
note_on channel=0 note=82 velocity=77 time=0
note_on channel=0 note=49 velocity=63 time=0
note_on channel=0 note=61 velocity=82 time=0
note_on channel=0 note=82 velocity=0 time=120
note_on channel=0 note=85 velocity=69 time=0
note_on channel=0 note=85 velocity=0 time=0
note_on channel=0 note=61 velocity=0 time=0
note_on channel=0 note=49 velocity=0 time=0
note_on channel=0 note=82 velocity=82 time=0
note_on channel=0 note=64 velocity=95 time=0
note_on channel=0 note=52 velocity=75 time=0
note_on channel=0 note=82 velocity=0 time=51
note_on channel=0 note=85 velocity=70 time=0
note_on channel=0 note=85 velocity=0 time=120
note_on channel=0 note=52 velocity=0 time=0
note_on channel=0 note=64 velocity=0 time=0
note_on channel=0 note=79 velocity=81 time=0
note_on channel=0 note=55 velocity=63 time=0
note_on channel=0 note=67 velocity=82 time=0
note_on channel=0 note=79 velocity=0 time=120
note_on channel=0 note=82 velocity=71 time=0
note_on channel=0 note=82 velocity=0 time=120
note_on channel=0 note=67 velocity=0 time=0
note_on channel=0 note=55 velocity=0 time=0
note_on channel=0 note=77 velocity=82 time=0
note_on channel=0 note=58 velocity=63 time=0
note_on channel=0 note=70 velocity=82 time=0
note_on channel=0 note=77 velocity=0 time=120
note_on channel=0 note=79 velocity=68 time=0
note_on channel=0 note=79 velocity=0 time=120
note_on channel=0 note=70 velocity=0 time=0
note_on channel=0 note=58 velocity=0 time=0
note_on channel=0 note=77 velocity=81 time=0
note_on channel=0 note=73 velocity=85 time=0
note_on channel=0 note=61 velocity=68 time=0
note_on channel=0 note=77 velocity=0 time=34
note_on channel=0 note=79 velocity=70 time=0
note_on channel=0 note=61 velocity=0 time=110
note_on channel=0 note=73 velocity=0 time=0
note_on channel=0 note=79 velocity=0 time=10
note_on channel=0 note=82 velocity=80 time=0
note_on channel=0 note=61 velocity=64 time=0
note_on channel=0 note=73 velocity=83 time=0
note_on channel=0 note=82 velocity=0 time=120
note_on channel=0 note=79 velocity=70 time=0
note_on channel=0 note=73 velocity=0 time=110
note_on channel=0 note=61 velocity=0 time=0
note_on channel=0 note=79 velocity=0 time=0
note_on channel=0 note=77 velocity=80 time=0
note_on channel=0 note=61 velocity=64 time=0
note_on channel=0 note=73 velocity=83 time=0
note_on channel=0 note=77 velocity=0 time=120
note_on channel=0 note=79 velocity=69 time=0
note_on channel=0 note=73 velocity=0 time=110
note_on channel=0 note=61 velocity=0 time=0
note_on channel=0 note=79 velocity=0 time=0
note_on channel=0 note=73 velocity=102 time=0
note_on channel=0 note=61 velocity=80 time=0
note_on channel=0 note=77 velocity=72 time=5
note_on channel=0 note=77 velocity=0 time=120
note_on channel=0 note=82 velocity=82 time=0
note_on channel=0 note=82 velocity=0 time=120
note_on channel=0 note=79 velocity=70 time=0
note_on channel=0 note=79 velocity=0 time=120
note_on channel=0 note=77 velocity=77 time=0
note_on channel=0 note=77 velocity=0 time=120
note_on channel=0 note=82 velocity=69 time=0
note_on channel=0 note=82 velocity=0 time=120
note_on channel=0 note=61 velocity=0 time=0
note_on channel=0 note=73 velocity=0 time=0
note_on channel=0 note=60 velocity=69 time=0
note_on channel=0 note=72 velocity=86 time=0
note_on channel=0 note=76 velocity=67 time=104
note_on channel=0 note=76 velocity=0 time=114
note_on channel=0 note=82 velocity=75 time=0
note_on channel=0 note=82 velocity=0 time=120
note_on channel=0 note=79 velocity=64 time=0
note_on channel=0 note=79 velocity=0 time=0
note_on channel=0 note=76 velocity=72 time=0
note_on channel=0 note=76 velocity=0 time=120
note_on channel=0 note=82 velocity=62 time=0
note_on channel=0 note=82 velocity=0 time=0
note_on channel=0 note=72 velocity=0 time=0
note_on channel=0 note=60 velocity=0 time=0
note_on channel=0 note=65 velocity=102 time=0
note_on channel=0 note=73 velocity=72 time=101
note_on channel=0 note=73 velocity=0 time=114
note_on channel=0 note=82 velocity=82 time=0
note_on channel=0 note=82 velocity=0 time=120
note_on channel=0 note=79 velocity=70 time=0
note_on channel=0 note=79 velocity=0 time=120
note_on channel=0 note=73 velocity=77 time=0
note_on channel=0 note=73 velocity=0 time=120
note_on channel=0 note=82 velocity=69 time=0
note_on channel=0 note=82 velocity=0 time=120
note_on channel=0 note=65 velocity=0 time=0
note_on channel=0 note=64 velocity=86 time=0
note_on channel=0 note=72 velocity=67 time=17
note_on channel=0 note=72 velocity=0 time=120
note_on channel=0 note=82 velocity=75 time=0
note_on channel=0 note=82 velocity=0 time=120
note_on channel=0 note=79 velocity=64 time=0
note_on channel=0 note=79 velocity=0 time=0
note_on channel=0 note=72 velocity=72 time=0
note_on channel=0 note=72 velocity=0 time=120
note_on channel=0 note=82 velocity=62 time=0
note_on channel=0 note=82 velocity=0 time=0
note_on channel=0 note=64 velocity=0 time=0
note_on channel=0 note=73 velocity=102 time=0
note_on channel=0 note=77 velocity=72 time=23
note_on channel=0 note=77 velocity=0 time=120
note_on channel=0 note=82 velocity=82 time=0
note_on channel=0 note=82 velocity=0 time=120
note_on channel=0 note=79 velocity=70 time=0
note_on channel=0 note=79 velocity=0 time=120
note_on channel=0 note=77 velocity=77 time=0
note_on channel=0 note=77 velocity=0 time=120
note_on channel=0 note=82 velocity=69 time=0
note_on channel=0 note=82 velocity=0 time=120
note_on channel=0 note=73 velocity=0 time=0
note_on channel=0 note=72 velocity=86 time=0
note_on channel=0 note=76 velocity=67 time=28
note_on channel=0 note=76 velocity=0 time=120
note_on channel=0 note=82 velocity=75 time=0
note_on channel=0 note=82 velocity=0 time=120
note_on channel=0 note=79 velocity=64 time=0
note_on channel=0 note=79 velocity=0 time=120
note_on channel=0 note=76 velocity=72 time=0
note_on channel=0 note=76 velocity=0 time=120
note_on channel=0 note=82 velocity=62 time=0
note_on channel=0 note=82 velocity=0 time=0
note_on channel=0 note=72 velocity=0 time=0
note_on channel=0 note=71 velocity=97 time=0
note_on channel=0 note=74 velocity=91 time=17
note_on channel=0 note=77 velocity=95 time=80
note_on channel=0 note=80 velocity=87 time=80
note_on channel=0 note=83 velocity=83 time=40
note_on channel=0 note=83 velocity=0 time=40
note_on channel=0 note=86 velocity=79 time=0
note_on channel=0 note=86 velocity=0 time=40
note_on channel=0 note=89 velocity=87 time=0
note_on channel=0 note=89 velocity=0 time=0
note_on channel=0 note=86 velocity=79 time=0
note_on channel=0 note=86 velocity=0 time=0
note_on channel=0 note=83 velocity=86 time=0
note_on channel=0 note=83 velocity=0 time=120
note_on channel=0 note=92 velocity=83 time=0
note_on channel=0 note=92 velocity=0 time=80
note_on channel=0 note=91 velocity=84 time=0
note_on channel=0 note=91 velocity=0 time=80
note_on channel=0 note=89 velocity=79 time=0
note_on channel=0 note=89 velocity=0 time=80
note_on channel=0 note=80 velocity=0 time=0
note_on channel=0 note=71 velocity=0 time=0
note_on channel=0 note=74 velocity=0 time=0
note_on channel=0 note=77 velocity=0 time=0
note_on channel=0 note=88 velocity=79 time=0
note_on channel=0 note=72 velocity=85 time=0
note_on channel=0 note=88 velocity=0 time=34
note_on channel=0 note=91 velocity=74 time=0
note_on channel=0 note=76 velocity=77 time=0
note_on channel=0 note=91 velocity=0 time=120
note_on channel=0 note=89 velocity=79 time=0
note_on channel=0 note=79 velocity=77 time=0
note_on channel=0 note=89 velocity=0 time=120
note_on channel=0 note=88 velocity=72 time=0
note_on channel=0 note=88 velocity=0 time=0
note_on channel=0 note=85 velocity=73 time=0
note_on channel=0 note=85 velocity=0 time=120
note_on channel=0 note=84 velocity=72 time=0
note_on channel=0 note=84 velocity=0 time=120
note_on channel=0 note=82 velocity=78 time=0
note_on channel=0 note=82 velocity=0 time=80
note_on channel=0 note=85 velocity=73 time=0
note_on channel=0 note=85 velocity=0 time=120
note_on channel=0 note=84 velocity=75 time=0
note_on channel=0 note=84 velocity=0 time=80
note_on channel=0 note=82 velocity=72 time=0
note_on channel=0 note=82 velocity=0 time=120
note_on channel=0 note=80 velocity=71 time=0
note_on channel=0 note=80 velocity=0 time=0
note_on channel=0 note=79 velocity=70 time=0
note_on channel=0 note=79 velocity=0 time=0
note_on channel=0 note=79 velocity=0 time=0
note_on channel=0 note=76 velocity=0 time=0
note_on channel=0 note=72 velocity=0 time=0
note_on channel=0 note=68 velocity=41 time=0
note_on channel=0 note=65 velocity=41 time=0
note_on channel=0 note=77 velocity=39 time=40
note_on channel=0 note=77 velocity=0 time=0
note_on channel=0 note=80 velocity=41 time=0
note_on channel=0 note=80 velocity=0 time=120
note_on channel=0 note=84 velocity=43 time=0
note_on channel=0 note=84 velocity=0 time=120
note_on channel=0 note=89 velocity=45 time=0
note_on channel=0 note=89 velocity=0 time=120
note_on channel=0 note=77 velocity=41 time=0
note_on channel=0 note=77 velocity=0 time=0
note_on channel=0 note=65 velocity=0 time=0
note_on channel=0 note=68 velocity=0 time=0
note_on channel=0 note=73 velocity=40 time=0
note_on channel=0 note=70 velocity=40 time=0
note_on channel=0 note=89 velocity=45 time=120
note_on channel=0 note=89 velocity=0 time=120
note_on channel=0 note=77 velocity=41 time=0
note_on channel=0 note=77 velocity=0 time=120
note_on channel=0 note=89 velocity=45 time=0
note_on channel=0 note=89 velocity=0 time=0
note_on channel=0 note=70 velocity=0 time=0
note_on channel=0 note=73 velocity=0 time=0
note_on channel=0 note=72 velocity=41 time=0
note_on channel=0 note=68 velocity=41 time=0
note_on channel=0 note=89 velocity=44 time=120
note_on channel=0 note=89 velocity=0 time=120
note_on channel=0 note=77 velocity=41 time=0
note_on channel=0 note=77 velocity=0 time=120
note_on channel=0 note=89 velocity=44 time=0
note_on channel=0 note=89 velocity=0 time=0
note_on channel=0 note=68 velocity=0 time=0
note_on channel=0 note=72 velocity=0 time=0
note_on channel=0 note=72 velocity=55 time=0
note_on channel=0 note=70 velocity=55 time=0
note_on channel=0 note=67 velocity=55 time=0
note_on channel=0 note=88 velocity=44 time=120
note_on channel=0 note=88 velocity=0 time=120
note_on channel=0 note=76 velocity=41 time=0
note_on channel=0 note=76 velocity=0 time=120
note_on channel=0 note=88 velocity=45 time=0
note_on channel=0 note=88 velocity=0 time=0
note_on channel=0 note=72 velocity=0 time=0
note_on channel=0 note=70 velocity=0 time=0
note_on channel=0 note=67 velocity=0 time=0
note_on channel=0 note=65 velocity=41 time=0
note_on channel=0 note=68 velocity=41 time=0
note_on channel=0 note=77 velocity=39 time=28
note_on channel=0 note=77 velocity=0 time=0
note_on channel=0 note=80 velocity=41 time=0
note_on channel=0 note=80 velocity=0 time=120
note_on channel=0 note=84 velocity=43 time=0
note_on channel=0 note=84 velocity=0 time=120
note_on channel=0 note=89 velocity=45 time=0
note_on channel=0 note=89 velocity=0 time=120
note_on channel=0 note=77 velocity=41 time=0
note_on channel=0 note=77 velocity=0 time=0
note_on channel=0 note=68 velocity=0 time=0
note_on channel=0 note=65 velocity=0 time=0
note_on channel=0 note=58 velocity=40 time=0
note_on channel=0 note=61 velocity=40 time=0
note_on channel=0 note=77 velocity=45 time=120
note_on channel=0 note=77 velocity=0 time=120
note_on channel=0 note=65 velocity=41 time=0
note_on channel=0 note=65 velocity=0 time=120
note_on channel=0 note=77 velocity=45 time=0
note_on channel=0 note=77 velocity=0 time=0
note_on channel=0 note=61 velocity=0 time=0
note_on channel=0 note=58 velocity=0 time=0
note_on channel=0 note=56 velocity=41 time=0
note_on channel=0 note=60 velocity=41 time=0
note_on channel=0 note=77 velocity=44 time=120
note_on channel=0 note=77 velocity=0 time=120
note_on channel=0 note=65 velocity=41 time=0
note_on channel=0 note=65 velocity=0 time=120
note_on channel=0 note=77 velocity=44 time=0
note_on channel=0 note=77 velocity=0 time=0
note_on channel=0 note=60 velocity=0 time=0
note_on channel=0 note=56 velocity=0 time=0
note_on channel=0 note=60 velocity=55 time=0
note_on channel=0 note=58 velocity=55 time=0
note_on channel=0 note=55 velocity=55 time=0
note_on channel=0 note=76 velocity=44 time=120
note_on channel=0 note=76 velocity=0 time=120
note_on channel=0 note=64 velocity=41 time=0
note_on channel=0 note=64 velocity=0 time=120
note_on channel=0 note=76 velocity=45 time=0
note_on channel=0 note=76 velocity=0 time=0
note_on channel=0 note=60 velocity=0 time=0
note_on channel=0 note=58 velocity=0 time=0
note_on channel=0 note=55 velocity=0 time=0
note_on channel=0 note=53 velocity=41 time=0
note_on channel=0 note=56 velocity=41 time=0
note_on channel=0 note=77 velocity=39 time=40
note_on channel=0 note=77 velocity=0 time=0
note_on channel=0 note=80 velocity=41 time=0
note_on channel=0 note=80 velocity=0 time=120
note_on channel=0 note=84 velocity=43 time=0
note_on channel=0 note=84 velocity=0 time=120
note_on channel=0 note=89 velocity=45 time=0
note_on channel=0 note=89 velocity=0 time=120
note_on channel=0 note=77 velocity=41 time=0
note_on channel=0 note=77 velocity=0 time=0
note_on channel=0 note=56 velocity=0 time=0
note_on channel=0 note=53 velocity=0 time=0
note_on channel=0 note=46 velocity=40 time=0
note_on channel=0 note=49 velocity=40 time=0
note_on channel=0 note=89 velocity=45 time=120
note_on channel=0 note=89 velocity=0 time=120
note_on channel=0 note=77 velocity=41 time=0
note_on channel=0 note=77 velocity=0 time=120
note_on channel=0 note=89 velocity=45 time=0
note_on channel=0 note=89 velocity=0 time=0
note_on channel=0 note=49 velocity=0 time=0
note_on channel=0 note=46 velocity=0 time=0
note_on channel=0 note=44 velocity=41 time=0
note_on channel=0 note=48 velocity=41 time=0
note_on channel=0 note=89 velocity=44 time=120
note_on channel=0 note=89 velocity=0 time=120
note_on channel=0 note=77 velocity=41 time=0
note_on channel=0 note=77 velocity=0 time=120
note_on channel=0 note=89 velocity=44 time=0
note_on channel=0 note=89 velocity=0 time=0
note_on channel=0 note=48 velocity=0 time=0
note_on channel=0 note=44 velocity=0 time=0
note_on channel=0 note=43 velocity=55 time=0
note_on channel=0 note=46 velocity=55 time=0
note_on channel=0 note=48 velocity=55 time=0
note_on channel=0 note=88 velocity=44 time=120
note_on channel=0 note=88 velocity=0 time=0
note_on channel=0 note=76 velocity=41 time=0
note_on channel=0 note=76 velocity=0 time=120
note_on channel=0 note=88 velocity=45 time=0
note_on channel=0 note=88 velocity=0 time=0
note_on channel=0 note=43 velocity=0 time=0
note_on channel=0 note=46 velocity=0 time=0
note_on channel=0 note=48 velocity=0 time=0
note_on channel=0 note=89 velocity=44 time=0
note_on channel=0 note=41 velocity=44 time=0
note_on channel=0 note=89 velocity=0 time=35
note_on channel=0 note=84 velocity=41 time=0
note_on channel=0 note=84 velocity=0 time=80
note_on channel=0 note=80 velocity=40 time=0
note_on channel=0 note=80 velocity=0 time=80
note_on channel=0 note=84 velocity=36 time=0
note_on channel=0 note=84 velocity=0 time=80
note_on channel=0 note=89 velocity=39 time=0
note_on channel=0 note=89 velocity=0 time=80
note_on channel=0 note=84 velocity=36 time=0
note_on channel=0 note=84 velocity=0 time=80
note_on channel=0 note=80 velocity=42 time=0
note_on channel=0 note=80 velocity=0 time=80
note_on channel=0 note=84 velocity=38 time=0
note_on channel=0 note=84 velocity=0 time=0
note_on channel=0 note=89 velocity=38 time=0
note_on channel=0 note=89 velocity=0 time=120
note_on channel=0 note=84 velocity=34 time=0
note_on channel=0 note=84 velocity=0 time=0
note_on channel=0 note=80 velocity=37 time=0
note_on channel=0 note=80 velocity=0 time=120
note_on channel=0 note=84 velocity=33 time=0
note_on channel=0 note=84 velocity=0 time=0
note_on channel=0 note=41 velocity=0 time=0
note_on channel=0 note=89 velocity=39 time=0
note_on channel=0 note=36 velocity=36 time=0
note_on channel=0 note=89 velocity=0 time=20
note_on channel=0 note=84 velocity=36 time=0
note_on channel=0 note=84 velocity=0 time=0
note_on channel=0 note=80 velocity=36 time=0
note_on channel=0 note=80 velocity=0 time=20
note_on channel=0 note=84 velocity=32 time=0
note_on channel=0 note=84 velocity=0 time=0
note_on channel=0 note=89 velocity=35 time=0
note_on channel=0 note=89 velocity=0 time=40
note_on channel=0 note=84 velocity=31 time=0
note_on channel=0 note=84 velocity=0 time=20
note_on channel=0 note=36 velocity=0 time=0
note_on channel=0 note=89 velocity=36 time=0
note_on channel=0 note=32 velocity=30 time=0
note_on channel=0 note=89 velocity=0 time=0
note_on channel=0 note=84 velocity=34 time=0
note_on channel=0 note=84 velocity=0 time=20
note_on channel=0 note=89 velocity=34 time=0
note_on channel=0 note=89 velocity=0 time=0
note_on channel=0 note=84 velocity=30 time=0
note_on channel=0 note=84 velocity=0 time=20
note_on channel=0 note=89 velocity=33 time=0
note_on channel=0 note=89 velocity=0 time=0
note_on channel=0 note=84 velocity=30 time=0
note_on channel=0 note=84 velocity=0 time=20
note_on channel=0 note=32 velocity=0 time=0
note_on channel=0 note=89 velocity=38 time=0
note_on channel=0 note=29 velocity=24 time=0
note_on channel=0 note=89 velocity=0 time=0
note_on channel=0 note=84 velocity=30 time=0
note_on channel=0 note=84 velocity=0 time=20
note_on channel=0 note=80 velocity=37 time=0
note_on channel=0 note=80 velocity=0 time=0
note_on channel=0 note=84 velocity=30 time=0
note_on channel=0 note=84 velocity=0 time=20
note_on channel=0 note=89 velocity=33 time=0
note_on channel=0 note=89 velocity=0 time=0
note_on channel=0 note=84 velocity=30 time=0
note_on channel=0 note=84 velocity=0 time=0
note_on channel=0 note=80 velocity=36 time=0
note_on channel=0 note=80 velocity=0 time=120
note_on channel=0 note=84 velocity=30 time=0
note_on channel=0 note=84 velocity=0 time=120
note_on channel=0 note=89 velocity=35 time=0
note_on channel=0 note=89 velocity=0 time=120
note_on channel=0 note=84 velocity=30 time=0
note_on channel=0 note=84 velocity=0 time=120
note_on channel=0 note=80 velocity=31 time=0
note_on channel=0 note=80 velocity=0 time=120
note_on channel=0 note=84 velocity=30 time=0
note_on channel=0 note=84 velocity=0 time=0
note_on channel=0 note=89 velocity=38 time=0
note_on channel=0 note=89 velocity=0 time=120
note_on channel=0 note=84 velocity=30 time=0
note_on channel=0 note=84 velocity=0 time=120
note_on channel=0 note=80 velocity=33 time=0
note_on channel=0 note=80 velocity=0 time=120
note_on channel=0 note=84 velocity=29 time=0
note_on channel=0 note=84 velocity=0 time=120
note_on channel=0 note=89 velocity=33 time=0
note_on channel=0 note=89 velocity=0 time=120
note_on channel=0 note=84 velocity=28 time=0
note_on channel=0 note=84 velocity=0 time=120
note_on channel=0 note=29 velocity=0 time=0
note_on channel=0 note=89 velocity=37 time=0
note_on channel=0 note=32 velocity=29 time=0
note_on channel=0 note=89 velocity=0 time=106
note_on channel=0 note=84 velocity=33 time=0
note_on channel=0 note=84 velocity=0 time=0
note_on channel=0 note=80 velocity=34 time=0
note_on channel=0 note=80 velocity=0 time=120
note_on channel=0 note=84 velocity=29 time=0
note_on channel=0 note=84 velocity=0 time=120
note_on channel=0 note=89 velocity=33 time=0
note_on channel=0 note=89 velocity=0 time=0
note_on channel=0 note=32 velocity=0 time=0
note_on channel=0 note=84 velocity=29 time=0
note_on channel=0 note=36 velocity=26 time=0
note_on channel=0 note=36 velocity=0 time=0
note_on channel=0 note=84 velocity=0 time=0
note_on channel=0 note=89 velocity=38 time=0
note_on channel=0 note=41 velocity=29 time=0
note_on channel=0 note=89 velocity=0 time=20
note_on channel=0 note=84 velocity=30 time=0
note_on channel=0 note=84 velocity=0 time=0
note_on channel=0 note=80 velocity=37 time=0
note_on channel=0 note=80 velocity=0 time=0
note_on channel=0 note=84 velocity=30 time=0
note_on channel=0 note=84 velocity=0 time=20
note_on channel=0 note=89 velocity=33 time=0
note_on channel=0 note=89 velocity=0 time=60
note_on channel=0 note=84 velocity=30 time=0
note_on channel=0 note=84 velocity=0 time=0
note_on channel=0 note=41 velocity=0 time=0
note_on channel=0 note=89 velocity=36 time=0
note_on channel=0 note=44 velocity=29 time=0
note_on channel=0 note=89 velocity=0 time=120
note_on channel=0 note=84 velocity=30 time=0
note_on channel=0 note=84 velocity=0 time=0
note_on channel=0 note=80 velocity=35 time=0
note_on channel=0 note=80 velocity=0 time=120
note_on channel=0 note=84 velocity=30 time=0
note_on channel=0 note=84 velocity=0 time=120
note_on channel=0 note=89 velocity=31 time=0
note_on channel=0 note=89 velocity=0 time=0
note_on channel=0 note=44 velocity=0 time=0
note_on channel=0 note=84 velocity=30 time=0
note_on channel=0 note=48 velocity=26 time=0
note_on channel=0 note=48 velocity=0 time=0
note_on channel=0 note=84 velocity=0 time=0
note_on channel=0 note=89 velocity=38 time=0
note_on channel=0 note=53 velocity=29 time=0
note_on channel=0 note=89 velocity=0 time=7
note_on channel=0 note=84 velocity=30 time=0
note_on channel=0 note=84 velocity=0 time=120
note_on channel=0 note=80 velocity=33 time=0
note_on channel=0 note=80 velocity=0 time=120
note_on channel=0 note=84 velocity=29 time=0
note_on channel=0 note=84 velocity=0 time=0
note_on channel=0 note=89 velocity=33 time=0
note_on channel=0 note=89 velocity=0 time=120
note_on channel=0 note=84 velocity=28 time=0
note_on channel=0 note=84 velocity=0 time=0
note_on channel=0 note=53 velocity=0 time=0
note_on channel=0 note=89 velocity=37 time=0
note_on channel=0 note=41 velocity=28 time=0
note_on channel=0 note=89 velocity=0 time=120
note_on channel=0 note=84 velocity=33 time=0
note_on channel=0 note=84 velocity=0 time=120
note_on channel=0 note=80 velocity=34 time=0
note_on channel=0 note=80 velocity=0 time=120
note_on channel=0 note=84 velocity=29 time=0
note_on channel=0 note=84 velocity=0 time=120
note_on channel=0 note=89 velocity=33 time=0
note_on channel=0 note=89 velocity=0 time=120
note_on channel=0 note=84 velocity=29 time=0
note_on channel=0 note=84 velocity=0 time=0
note_on channel=0 note=41 velocity=0 time=0
note_on channel=0 note=87 velocity=38 time=0
note_on channel=0 note=42 velocity=34 time=0
note_on channel=0 note=87 velocity=0 time=21
note_on channel=0 note=84 velocity=30 time=0
note_on channel=0 note=84 velocity=0 time=100
note_on channel=0 note=80 velocity=37 time=0
note_on channel=0 note=80 velocity=0 time=80
note_on channel=0 note=84 velocity=30 time=0
note_on channel=0 note=84 velocity=0 time=80
note_on channel=0 note=87 velocity=33 time=0
note_on channel=0 note=87 velocity=0 time=60
note_on channel=0 note=84 velocity=30 time=0
note_on channel=0 note=84 velocity=0 time=60
note_on channel=0 note=80 velocity=36 time=0
note_on channel=0 note=80 velocity=0 time=80
note_on channel=0 note=84 velocity=30 time=0
note_on channel=0 note=84 velocity=0 time=20
note_on channel=0 note=87 velocity=35 time=0
note_on channel=0 note=87 velocity=0 time=40
note_on channel=0 note=84 velocity=30 time=0
note_on channel=0 note=84 velocity=0 time=60
note_on channel=0 note=80 velocity=31 time=0
note_on channel=0 note=80 velocity=0 time=0
note_on channel=0 note=84 velocity=30 time=0
note_on channel=0 note=84 velocity=0 time=20
note_on channel=0 note=87 velocity=38 time=0
note_on channel=0 note=87 velocity=0 time=0
note_on channel=0 note=84 velocity=30 time=0
note_on channel=0 note=84 velocity=0 time=0
note_on channel=0 note=80 velocity=33 time=0
note_on channel=0 note=80 velocity=0 time=0
note_on channel=0 note=84 velocity=29 time=0
note_on channel=0 note=84 velocity=0 time=120
note_on channel=0 note=87 velocity=33 time=0
note_on channel=0 note=87 velocity=0 time=100
note_on channel=0 note=84 velocity=28 time=0
note_on channel=0 note=84 velocity=0 time=100
note_on channel=0 note=42 velocity=0 time=0
note_on channel=0 note=87 velocity=37 time=0
note_on channel=0 note=48 velocity=33 time=0
note_on channel=0 note=87 velocity=0 time=99
note_on channel=0 note=84 velocity=33 time=0
note_on channel=0 note=84 velocity=0 time=0
note_on channel=0 note=80 velocity=34 time=0
note_on channel=0 note=80 velocity=0 time=120
note_on channel=0 note=84 velocity=29 time=0
note_on channel=0 note=84 velocity=0 time=120
note_on channel=0 note=87 velocity=33 time=0
note_on channel=0 note=87 velocity=0 time=0
note_on channel=0 note=48 velocity=0 time=0
note_on channel=0 note=84 velocity=29 time=0
note_on channel=0 note=51 velocity=28 time=0
note_on channel=0 note=51 velocity=0 time=20
note_on channel=0 note=84 velocity=0 time=0
note_on channel=0 note=87 velocity=38 time=0
note_on channel=0 note=54 velocity=33 time=0
note_on channel=0 note=87 velocity=0 time=14
note_on channel=0 note=84 velocity=30 time=0
note_on channel=0 note=84 velocity=0 time=20
note_on channel=0 note=80 velocity=37 time=0
note_on channel=0 note=80 velocity=0 time=20
note_on channel=0 note=84 velocity=30 time=0
note_on channel=0 note=84 velocity=0 time=20
note_on channel=0 note=87 velocity=33 time=0
note_on channel=0 note=87 velocity=0 time=20
note_on channel=0 note=84 velocity=30 time=0
note_on channel=0 note=84 velocity=0 time=0
note_on channel=0 note=54 velocity=0 time=0
note_on channel=0 note=87 velocity=36 time=0
note_on channel=0 note=60 velocity=33 time=0
note_on channel=0 note=87 velocity=0 time=120
note_on channel=0 note=84 velocity=30 time=0
note_on channel=0 note=84 velocity=0 time=0
note_on channel=0 note=80 velocity=35 time=0
note_on channel=0 note=80 velocity=0 time=120
note_on channel=0 note=84 velocity=30 time=0
note_on channel=0 note=84 velocity=0 time=120
note_on channel=0 note=87 velocity=31 time=0
note_on channel=0 note=87 velocity=0 time=0
note_on channel=0 note=60 velocity=0 time=0
note_on channel=0 note=84 velocity=30 time=0
note_on channel=0 note=63 velocity=28 time=0
note_on channel=0 note=63 velocity=0 time=0
note_on channel=0 note=84 velocity=0 time=0
note_on channel=0 note=87 velocity=38 time=0
note_on channel=0 note=66 velocity=33 time=0
note_on channel=0 note=87 velocity=0 time=107
note_on channel=0 note=84 velocity=30 time=0
note_on channel=0 note=84 velocity=0 time=106
note_on channel=0 note=80 velocity=33 time=0
note_on channel=0 note=80 velocity=0 time=120
note_on channel=0 note=84 velocity=29 time=0
note_on channel=0 note=84 velocity=0 time=0
note_on channel=0 note=87 velocity=33 time=0
note_on channel=0 note=87 velocity=0 time=120
note_on channel=0 note=84 velocity=28 time=0
note_on channel=0 note=84 velocity=0 time=0
note_on channel=0 note=66 velocity=0 time=0
note_on channel=0 note=87 velocity=37 time=0
note_on channel=0 note=54 velocity=30 time=0
note_on channel=0 note=87 velocity=0 time=120
note_on channel=0 note=84 velocity=33 time=0
note_on channel=0 note=84 velocity=0 time=120
note_on channel=0 note=80 velocity=34 time=0
note_on channel=0 note=80 velocity=0 time=120
note_on channel=0 note=84 velocity=29 time=0
note_on channel=0 note=84 velocity=0 time=120
note_on channel=0 note=87 velocity=33 time=0
note_on channel=0 note=87 velocity=0 time=120
note_on channel=0 note=84 velocity=29 time=0
note_on channel=0 note=84 velocity=0 time=20
note_on channel=0 note=54 velocity=0 time=0
note_on channel=0 note=89 velocity=38 time=0
note_on channel=0 note=53 velocity=33 time=0
note_on channel=0 note=89 velocity=0 time=21
note_on channel=0 note=85 velocity=30 time=0
note_on channel=0 note=85 velocity=0 time=20
note_on channel=0 note=80 velocity=37 time=0
note_on channel=0 note=80 velocity=0 time=0
note_on channel=0 note=85 velocity=30 time=0
note_on channel=0 note=85 velocity=0 time=120
note_on channel=0 note=89 velocity=33 time=0
note_on channel=0 note=89 velocity=0 time=120
note_on channel=0 note=85 velocity=31 time=0
note_on channel=0 note=85 velocity=0 time=0
note_on channel=0 note=53 velocity=0 time=0
note_on channel=0 note=89 velocity=37 time=0
note_on channel=0 note=56 velocity=34 time=0
note_on channel=0 note=89 velocity=0 time=120
note_on channel=0 note=85 velocity=30 time=0
note_on channel=0 note=85 velocity=0 time=0
note_on channel=0 note=80 velocity=36 time=0
note_on channel=0 note=80 velocity=0 time=120
note_on channel=0 note=85 velocity=31 time=0
note_on channel=0 note=85 velocity=0 time=120
note_on channel=0 note=89 velocity=34 time=0
note_on channel=0 note=89 velocity=0 time=0
note_on channel=0 note=56 velocity=0 time=0
note_on channel=0 note=85 velocity=33 time=0
note_on channel=0 note=61 velocity=30 time=0
note_on channel=0 note=61 velocity=0 time=0
note_on channel=0 note=85 velocity=0 time=0
note_on channel=0 note=89 velocity=40 time=0
note_on channel=0 note=65 velocity=36 time=0
note_on channel=0 note=89 velocity=0 time=120
note_on channel=0 note=85 velocity=33 time=0
note_on channel=0 note=85 velocity=0 time=120
note_on channel=0 note=80 velocity=35 time=0
note_on channel=0 note=80 velocity=0 time=120
note_on channel=0 note=85 velocity=31 time=0
note_on channel=0 note=85 velocity=0 time=0
note_on channel=0 note=89 velocity=35 time=0
note_on channel=0 note=89 velocity=0 time=120
note_on channel=0 note=85 velocity=30 time=0
note_on channel=0 note=85 velocity=0 time=0
note_on channel=0 note=65 velocity=0 time=0
note_on channel=0 note=89 velocity=40 time=0
note_on channel=0 note=53 velocity=35 time=0
note_on channel=0 note=89 velocity=0 time=20
note_on channel=0 note=85 velocity=36 time=0
note_on channel=0 note=85 velocity=0 time=0
note_on channel=0 note=80 velocity=37 time=0
note_on channel=0 note=80 velocity=0 time=0
note_on channel=0 note=85 velocity=33 time=0
note_on channel=0 note=85 velocity=0 time=20
note_on channel=0 note=89 velocity=36 time=0
note_on channel=0 note=89 velocity=0 time=60
note_on channel=0 note=85 velocity=33 time=0
note_on channel=0 note=85 velocity=0 time=0
note_on channel=0 note=53 velocity=0 time=0
note_on channel=0 note=90 velocity=40 time=0
note_on channel=0 note=51 velocity=40 time=0
note_on channel=0 note=90 velocity=0 time=63
note_on channel=0 note=84 velocity=35 time=0
note_on channel=0 note=84 velocity=0 time=0
note_on channel=0 note=80 velocity=40 time=0
note_on channel=0 note=80 velocity=0 time=120
note_on channel=0 note=84 velocity=35 time=0
note_on channel=0 note=84 velocity=0 time=120
note_on channel=0 note=90 velocity=37 time=0
note_on channel=0 note=90 velocity=0 time=0
note_on channel=0 note=51 velocity=0 time=0
note_on channel=0 note=84 velocity=36 time=0
note_on channel=0 note=54 velocity=36 time=0
note_on channel=0 note=54 velocity=0 time=0
note_on channel=0 note=84 velocity=0 time=0
note_on channel=0 note=90 velocity=42 time=0
note_on channel=0 note=56 velocity=42 time=0
note_on channel=0 note=90 velocity=0 time=120
note_on channel=0 note=84 velocity=35 time=0
note_on channel=0 note=84 velocity=0 time=0
note_on channel=0 note=80 velocity=41 time=0
note_on channel=0 note=80 velocity=0 time=120
note_on channel=0 note=84 velocity=37 time=0
note_on channel=0 note=84 velocity=0 time=120
note_on channel=0 note=90 velocity=38 time=0
note_on channel=0 note=90 velocity=0 time=0
note_on channel=0 note=56 velocity=0 time=0
note_on channel=0 note=84 velocity=37 time=0
note_on channel=0 note=60 velocity=38 time=0
note_on channel=0 note=60 velocity=0 time=0
note_on channel=0 note=84 velocity=0 time=0
note_on channel=0 note=90 velocity=44 time=0
note_on channel=0 note=63 velocity=44 time=0
note_on channel=0 note=90 velocity=0 time=120
note_on channel=0 note=84 velocity=36 time=0
note_on channel=0 note=84 velocity=0 time=0
note_on channel=0 note=80 velocity=44 time=0
note_on channel=0 note=80 velocity=0 time=120
note_on channel=0 note=84 velocity=38 time=0
note_on channel=0 note=84 velocity=0 time=120
note_on channel=0 note=90 velocity=39 time=0
note_on channel=0 note=90 velocity=0 time=0
note_on channel=0 note=63 velocity=0 time=0
note_on channel=0 note=84 velocity=38 time=0
note_on channel=0 note=66 velocity=39 time=0
note_on channel=0 note=66 velocity=0 time=0
note_on channel=0 note=84 velocity=0 time=0
note_on channel=0 note=90 velocity=45 time=0
note_on channel=0 note=68 velocity=47 time=0
note_on channel=0 note=90 velocity=0 time=120
note_on channel=0 note=87 velocity=38 time=0
note_on channel=0 note=87 velocity=0 time=0
note_on channel=0 note=80 velocity=44 time=0
note_on channel=0 note=80 velocity=0 time=120
note_on channel=0 note=87 velocity=39 time=0
note_on channel=0 note=87 velocity=0 time=120
note_on channel=0 note=90 velocity=39 time=0
note_on channel=0 note=90 velocity=0 time=0
note_on channel=0 note=68 velocity=0 time=0
note_on channel=0 note=87 velocity=39 time=0
note_on channel=0 note=72 velocity=42 time=0
note_on channel=0 note=72 velocity=0 time=0
note_on channel=0 note=87 velocity=0 time=0
note_on channel=0 note=89 velocity=55 time=0
note_on channel=0 note=61 velocity=33 time=0
note_on channel=0 note=61 velocity=0 time=0
note_on channel=0 note=65 velocity=24 time=0
note_on channel=0 note=68 velocity=24 time=0
note_on channel=0 note=73 velocity=30 time=0
note_on channel=0 note=73 velocity=0 time=240
note_on channel=0 note=89 velocity=0 time=0
note_on channel=0 note=65 velocity=0 time=0
note_on channel=0 note=68 velocity=0 time=0
note_on channel=0 note=61 velocity=31 time=0
note_on channel=0 note=61 velocity=0 time=240
note_on channel=0 note=65 velocity=26 time=0
note_on channel=0 note=68 velocity=26 time=0
note_on channel=0 note=73 velocity=33 time=0
note_on channel=0 note=73 velocity=0 time=240
note_on channel=0 note=68 velocity=0 time=0
note_on channel=0 note=65 velocity=0 time=0
note_on channel=0 note=61 velocity=31 time=0
note_on channel=0 note=61 velocity=0 time=240
note_on channel=0 note=65 velocity=24 time=0
note_on channel=0 note=68 velocity=24 time=0
note_on channel=0 note=73 velocity=31 time=0
note_on channel=0 note=73 velocity=0 time=240
note_on channel=0 note=68 velocity=0 time=0
note_on channel=0 note=65 velocity=0 time=0
note_on channel=0 note=61 velocity=33 time=0
note_on channel=0 note=61 velocity=0 time=99
note_on channel=0 note=65 velocity=24 time=0
note_on channel=0 note=68 velocity=24 time=0
note_on channel=0 note=73 velocity=31 time=0
note_on channel=0 note=73 velocity=0 time=240
note_on channel=0 note=68 velocity=0 time=0
note_on channel=0 note=65 velocity=0 time=0
note_on channel=0 note=61 velocity=31 time=0
note_on channel=0 note=61 velocity=0 time=240
note_on channel=0 note=77 velocity=62 time=0
note_on channel=0 note=65 velocity=26 time=0
note_on channel=0 note=73 velocity=33 time=0
note_on channel=0 note=68 velocity=26 time=0
note_on channel=0 note=68 velocity=0 time=0
note_on channel=0 note=73 velocity=0 time=0
note_on channel=0 note=65 velocity=0 time=0
note_on channel=0 note=61 velocity=31 time=0
note_on channel=0 note=61 velocity=0 time=240
note_on channel=0 note=65 velocity=25 time=0
note_on channel=0 note=68 velocity=25 time=0
note_on channel=0 note=73 velocity=32 time=0
note_on channel=0 note=77 velocity=0 time=0
note_on channel=0 note=80 velocity=57 time=0
note_on channel=0 note=80 velocity=0 time=0
note_on channel=0 note=73 velocity=0 time=0
note_on channel=0 note=68 velocity=0 time=0
note_on channel=0 note=65 velocity=0 time=0
note_on channel=0 note=85 velocity=66 time=0
note_on channel=0 note=61 velocity=33 time=0
note_on channel=0 note=61 velocity=0 time=104
note_on channel=0 note=65 velocity=24 time=0
note_on channel=0 note=68 velocity=24 time=0
note_on channel=0 note=73 velocity=30 time=0
note_on channel=0 note=73 velocity=0 time=240
note_on channel=0 note=68 velocity=0 time=0
note_on channel=0 note=65 velocity=0 time=0
note_on channel=0 note=61 velocity=31 time=0
note_on channel=0 note=61 velocity=0 time=0
note_on channel=0 note=85 velocity=0 time=0
note_on channel=0 note=89 velocity=62 time=0
note_on channel=0 note=65 velocity=26 time=0
note_on channel=0 note=68 velocity=26 time=0
note_on channel=0 note=73 velocity=33 time=0
note_on channel=0 note=73 velocity=0 time=0
note_on channel=0 note=68 velocity=0 time=0
note_on channel=0 note=65 velocity=0 time=0
note_on channel=0 note=61 velocity=31 time=0
note_on channel=0 note=61 velocity=0 time=240
note_on channel=0 note=68 velocity=24 time=0
note_on channel=0 note=73 velocity=31 time=0
note_on channel=0 note=65 velocity=24 time=0
note_on channel=0 note=89 velocity=0 time=0
note_on channel=0 note=85 velocity=55 time=0
note_on channel=0 note=85 velocity=0 time=120
note_on channel=0 note=65 velocity=0 time=0
note_on channel=0 note=73 velocity=0 time=0
note_on channel=0 note=68 velocity=0 time=0
note_on channel=0 note=84 velocity=63 time=0
note_on channel=0 note=63 velocity=33 time=0
note_on channel=0 note=63 velocity=0 time=117
note_on channel=0 note=66 velocity=24 time=0
note_on channel=0 note=68 velocity=24 time=0
note_on channel=0 note=75 velocity=31 time=0
note_on channel=0 note=75 velocity=0 time=240
note_on channel=0 note=68 velocity=0 time=0
note_on channel=0 note=66 velocity=0 time=0
note_on channel=0 note=63 velocity=31 time=0
note_on channel=0 note=63 velocity=0 time=0
note_on channel=0 note=84 velocity=0 time=0
note_on channel=0 note=87 velocity=66 time=0
note_on channel=0 note=68 velocity=26 time=0
note_on channel=0 note=66 velocity=26 time=0
note_on channel=0 note=75 velocity=33 time=0
note_on channel=0 note=75 velocity=0 time=0
note_on channel=0 note=66 velocity=0 time=0
note_on channel=0 note=68 velocity=0 time=0
note_on channel=0 note=63 velocity=31 time=0
note_on channel=0 note=63 velocity=0 time=240
note_on channel=0 note=66 velocity=25 time=0
note_on channel=0 note=68 velocity=25 time=0
note_on channel=0 note=75 velocity=32 time=0
note_on channel=0 note=87 velocity=0 time=0
note_on channel=0 note=84 velocity=55 time=0
note_on channel=0 note=84 velocity=0 time=0
note_on channel=0 note=75 velocity=0 time=0
note_on channel=0 note=68 velocity=0 time=0
note_on channel=0 note=66 velocity=0 time=0
note_on channel=0 note=85 velocity=66 time=0
note_on channel=0 note=65 velocity=33 time=0
note_on channel=0 note=65 velocity=0 time=106
note_on channel=0 note=68 velocity=24 time=0
note_on channel=0 note=77 velocity=30 time=0
note_on channel=0 note=73 velocity=24 time=0
note_on channel=0 note=73 velocity=0 time=240
note_on channel=0 note=77 velocity=0 time=0
note_on channel=0 note=68 velocity=0 time=0
note_on channel=0 note=65 velocity=31 time=0
note_on channel=0 note=65 velocity=0 time=0
note_on channel=0 note=85 velocity=0 time=0
note_on channel=0 note=80 velocity=59 time=0
note_on channel=0 note=77 velocity=33 time=0
note_on channel=0 note=73 velocity=26 time=0
note_on channel=0 note=68 velocity=26 time=0
note_on channel=0 note=68 velocity=0 time=240
note_on channel=0 note=73 velocity=0 time=0
note_on channel=0 note=77 velocity=0 time=0
note_on channel=0 note=65 velocity=31 time=0
note_on channel=0 note=65 velocity=0 time=240
note_on channel=0 note=68 velocity=24 time=0
note_on channel=0 note=77 velocity=31 time=0
note_on channel=0 note=73 velocity=24 time=0
note_on channel=0 note=73 velocity=0 time=240
note_on channel=0 note=77 velocity=0 time=0
note_on channel=0 note=68 velocity=0 time=0
note_on channel=0 note=65 velocity=33 time=0
note_on channel=0 note=65 velocity=0 time=240
note_on channel=0 note=77 velocity=31 time=0
note_on channel=0 note=68 velocity=24 time=0
note_on channel=0 note=73 velocity=24 time=0
note_on channel=0 note=73 velocity=0 time=240
note_on channel=0 note=68 velocity=0 time=0
note_on channel=0 note=77 velocity=0 time=0
note_on channel=0 note=65 velocity=31 time=0
note_on channel=0 note=65 velocity=0 time=240
note_on channel=0 note=80 velocity=0 time=0
note_on channel=0 note=77 velocity=68 time=0
note_on channel=0 note=73 velocity=36 time=0
note_on channel=0 note=68 velocity=36 time=0
note_on channel=0 note=68 velocity=0 time=0
note_on channel=0 note=73 velocity=0 time=0
note_on channel=0 note=68 velocity=34 time=0
note_on channel=0 note=68 velocity=0 time=240
note_on channel=0 note=68 velocity=35 time=0
note_on channel=0 note=73 velocity=35 time=0
note_on channel=0 note=77 velocity=0 time=0
note_on channel=0 note=80 velocity=62 time=0
note_on channel=0 note=80 velocity=0 time=0
note_on channel=0 note=73 velocity=0 time=0
note_on channel=0 note=68 velocity=0 time=0
note_on channel=0 note=85 velocity=71 time=0
note_on channel=0 note=65 velocity=36 time=0
note_on channel=0 note=65 velocity=0 time=120
note_on channel=0 note=68 velocity=26 time=0
note_on channel=0 note=73 velocity=26 time=0
note_on channel=0 note=77 velocity=33 time=0
note_on channel=0 note=77 velocity=0 time=240
note_on channel=0 note=73 velocity=0 time=0
note_on channel=0 note=68 velocity=0 time=0
note_on channel=0 note=65 velocity=34 time=0
note_on channel=0 note=65 velocity=0 time=0
note_on channel=0 note=85 velocity=0 time=0
note_on channel=0 note=89 velocity=74 time=0
note_on channel=0 note=73 velocity=29 time=0
note_on channel=0 note=68 velocity=29 time=0
note_on channel=0 note=77 velocity=37 time=0
note_on channel=0 note=77 velocity=0 time=0
note_on channel=0 note=68 velocity=0 time=0
note_on channel=0 note=73 velocity=0 time=0
note_on channel=0 note=65 velocity=35 time=0
note_on channel=0 note=65 velocity=0 time=240
note_on channel=0 note=77 velocity=36 time=0
note_on channel=0 note=73 velocity=27 time=0
note_on channel=0 note=68 velocity=27 time=0
note_on channel=0 note=89 velocity=0 time=0
note_on channel=0 note=85 velocity=64 time=0
note_on channel=0 note=85 velocity=0 time=120
note_on channel=0 note=68 velocity=0 time=0
note_on channel=0 note=73 velocity=0 time=0
note_on channel=0 note=77 velocity=0 time=0
note_on channel=0 note=84 velocity=75 time=0
note_on channel=0 note=66 velocity=39 time=0
note_on channel=0 note=66 velocity=0 time=77
note_on channel=0 note=69 velocity=28 time=0
note_on channel=0 note=75 velocity=37 time=0
note_on channel=0 note=72 velocity=28 time=0
note_on channel=0 note=72 velocity=0 time=240
note_on channel=0 note=75 velocity=0 time=0
note_on channel=0 note=69 velocity=0 time=0
note_on channel=0 note=66 velocity=38 time=0
note_on channel=0 note=66 velocity=0 time=0
note_on channel=0 note=84 velocity=0 time=0
note_on channel=0 note=87 velocity=80 time=0
note_on channel=0 note=75 velocity=40 time=0
note_on channel=0 note=69 velocity=40 time=0
note_on channel=0 note=72 velocity=40 time=0
note_on channel=0 note=72 velocity=0 time=0
note_on channel=0 note=69 velocity=0 time=0
note_on channel=0 note=75 velocity=0 time=0
note_on channel=0 note=66 velocity=38 time=0
note_on channel=0 note=66 velocity=0 time=240
note_on channel=0 note=75 velocity=40 time=0
note_on channel=0 note=69 velocity=40 time=0
note_on channel=0 note=72 velocity=40 time=0
note_on channel=0 note=87 velocity=0 time=0
note_on channel=0 note=84 velocity=71 time=0
note_on channel=0 note=84 velocity=0 time=0
note_on channel=0 note=72 velocity=0 time=0
note_on channel=0 note=69 velocity=0 time=0
note_on channel=0 note=75 velocity=0 time=0
note_on channel=0 note=83 velocity=85 time=0
note_on channel=0 note=65 velocity=49 time=0
note_on channel=0 note=65 velocity=0 time=134
note_on channel=0 note=74 velocity=39 time=0
note_on channel=0 note=71 velocity=30 time=0
note_on channel=0 note=68 velocity=30 time=0
note_on channel=0 note=68 velocity=0 time=240
note_on channel=0 note=71 velocity=0 time=0
note_on channel=0 note=74 velocity=0 time=0
note_on channel=0 note=65 velocity=41 time=0
note_on channel=0 note=65 velocity=0 time=0
note_on channel=0 note=83 velocity=0 time=0
note_on channel=0 note=86 velocity=95 time=0
note_on channel=0 note=68 velocity=35 time=0
note_on channel=0 note=74 velocity=44 time=0
note_on channel=0 note=71 velocity=35 time=0
note_on channel=0 note=71 velocity=0 time=240
note_on channel=0 note=74 velocity=0 time=0
note_on channel=0 note=68 velocity=0 time=0
note_on channel=0 note=65 velocity=42 time=0
note_on channel=0 note=65 velocity=0 time=240
note_on channel=0 note=68 velocity=34 time=0
note_on channel=0 note=74 velocity=44 time=0
note_on channel=0 note=71 velocity=34 time=0
note_on channel=0 note=71 velocity=0 time=240
note_on channel=0 note=74 velocity=0 time=0
note_on channel=0 note=68 velocity=0 time=0
note_on channel=0 note=65 velocity=49 time=0
note_on channel=0 note=65 velocity=0 time=240
note_on channel=0 note=68 velocity=36 time=0
note_on channel=0 note=71 velocity=36 time=0
note_on channel=0 note=74 velocity=48 time=0
note_on channel=0 note=74 velocity=0 time=240
note_on channel=0 note=71 velocity=0 time=0
note_on channel=0 note=68 velocity=0 time=0
note_on channel=0 note=65 velocity=48 time=0
note_on channel=0 note=65 velocity=0 time=240
note_on channel=0 note=86 velocity=0 time=0
note_on channel=0 note=86 velocity=84 time=0
note_on channel=0 note=71 velocity=41 time=0
note_on channel=0 note=68 velocity=41 time=0
note_on channel=0 note=74 velocity=55 time=0
note_on channel=0 note=74 velocity=0 time=0
note_on channel=0 note=68 velocity=0 time=0
note_on channel=0 note=71 velocity=0 time=0
note_on channel=0 note=65 velocity=50 time=0
note_on channel=0 note=65 velocity=0 time=240
note_on channel=0 note=74 velocity=52 time=0
note_on channel=0 note=68 velocity=41 time=0
note_on channel=0 note=71 velocity=41 time=0
note_on channel=0 note=86 velocity=0 time=0
note_on channel=0 note=83 velocity=79 time=0
note_on channel=0 note=83 velocity=0 time=0
note_on channel=0 note=71 velocity=0 time=0
note_on channel=0 note=68 velocity=0 time=0
note_on channel=0 note=74 velocity=0 time=0
note_on channel=0 note=84 velocity=85 time=0
note_on channel=0 note=64 velocity=54 time=0
note_on channel=0 note=64 velocity=0 time=127
note_on channel=0 note=76 velocity=47 time=0
note_on channel=0 note=72 velocity=37 time=0
note_on channel=0 note=67 velocity=37 time=0
note_on channel=0 note=67 velocity=0 time=240
note_on channel=0 note=72 velocity=0 time=0
note_on channel=0 note=76 velocity=0 time=0
note_on channel=0 note=64 velocity=51 time=0
note_on channel=0 note=64 velocity=0 time=0
note_on channel=0 note=84 velocity=0 time=0
note_on channel=0 note=88 velocity=97 time=0
note_on channel=0 note=67 velocity=42 time=0
note_on channel=0 note=76 velocity=53 time=0
note_on channel=0 note=72 velocity=42 time=0
note_on channel=0 note=72 velocity=0 time=240
note_on channel=0 note=76 velocity=0 time=0
note_on channel=0 note=67 velocity=0 time=0
note_on channel=0 note=64 velocity=47 time=0
note_on channel=0 note=64 velocity=0 time=240
note_on channel=0 note=67 velocity=41 time=0
note_on channel=0 note=76 velocity=52 time=0
note_on channel=0 note=72 velocity=41 time=0
note_on channel=0 note=72 velocity=0 time=240
note_on channel=0 note=76 velocity=0 time=0
note_on channel=0 note=67 velocity=0 time=0
note_on channel=0 note=64 velocity=49 time=0
note_on channel=0 note=64 velocity=0 time=240
note_on channel=0 note=67 velocity=43 time=0
note_on channel=0 note=72 velocity=43 time=0
note_on channel=0 note=76 velocity=54 time=0
note_on channel=0 note=76 velocity=0 time=240
note_on channel=0 note=72 velocity=0 time=0
note_on channel=0 note=67 velocity=0 time=0
note_on channel=0 note=64 velocity=48 time=0
note_on channel=0 note=64 velocity=0 time=240
note_on channel=0 note=88 velocity=0 time=0
note_on channel=0 note=91 velocity=84 time=0
note_on channel=0 note=79 velocity=71 time=0
note_on channel=0 note=72 velocity=41 time=0
note_on channel=0 note=67 velocity=41 time=0
note_on channel=0 note=76 velocity=55 time=0
note_on channel=0 note=76 velocity=0 time=0
note_on channel=0 note=72 velocity=0 time=0
note_on channel=0 note=67 velocity=0 time=0
note_on channel=0 note=64 velocity=50 time=0
note_on channel=0 note=64 velocity=0 time=240
note_on channel=0 note=76 velocity=52 time=0
note_on channel=0 note=67 velocity=41 time=0
note_on channel=0 note=72 velocity=41 time=0
note_on channel=0 note=79 velocity=0 time=0
note_on channel=0 note=91 velocity=0 time=0
note_on channel=0 note=77 velocity=67 time=0
note_on channel=0 note=89 velocity=79 time=0
note_on channel=0 note=89 velocity=0 time=0
note_on channel=0 note=67 velocity=0 time=0
note_on channel=0 note=72 velocity=0 time=0
note_on channel=0 note=76 velocity=0 time=0
note_on channel=0 note=77 velocity=0 time=0
note_on channel=0 note=88 velocity=85 time=0
note_on channel=0 note=76 velocity=72 time=0
note_on channel=0 note=58 velocity=54 time=0
note_on channel=0 note=58 velocity=0 time=148
note_on channel=0 note=67 velocity=47 time=0
note_on channel=0 note=64 velocity=37 time=0
note_on channel=0 note=61 velocity=37 time=0
note_on channel=0 note=61 velocity=0 time=240
note_on channel=0 note=67 velocity=0 time=0
note_on channel=0 note=64 velocity=0 time=0
note_on channel=0 note=58 velocity=51 time=0
note_on channel=0 note=58 velocity=0 time=0
note_on channel=0 note=76 velocity=0 time=0
note_on channel=0 note=88 velocity=0 time=0
note_on channel=0 note=79 velocity=79 time=0
note_on channel=0 note=91 velocity=93 time=0
note_on channel=0 note=61 velocity=42 time=0
note_on channel=0 note=67 velocity=53 time=0
note_on channel=0 note=64 velocity=42 time=0
note_on channel=0 note=64 velocity=0 time=240
note_on channel=0 note=61 velocity=0 time=0
note_on channel=0 note=67 velocity=0 time=0
note_on channel=0 note=58 velocity=47 time=0
note_on channel=0 note=58 velocity=0 time=240
note_on channel=0 note=61 velocity=41 time=0
note_on channel=0 note=67 velocity=52 time=0
note_on channel=0 note=64 velocity=41 time=0
note_on channel=0 note=64 velocity=0 time=240
note_on channel=0 note=61 velocity=0 time=0
note_on channel=0 note=67 velocity=0 time=0
note_on channel=0 note=58 velocity=49 time=0
note_on channel=0 note=58 velocity=0 time=240
note_on channel=0 note=64 velocity=43 time=0
note_on channel=0 note=67 velocity=54 time=0
note_on channel=0 note=61 velocity=43 time=0
note_on channel=0 note=61 velocity=0 time=240
note_on channel=0 note=64 velocity=0 time=0
note_on channel=0 note=67 velocity=0 time=0
note_on channel=0 note=58 velocity=48 time=0
note_on channel=0 note=58 velocity=0 time=240
note_on channel=0 note=91 velocity=0 time=0
note_on channel=0 note=79 velocity=0 time=0
note_on channel=0 note=79 velocity=74 time=0
note_on channel=0 note=91 velocity=88 time=0
note_on channel=0 note=61 velocity=43 time=0
note_on channel=0 note=67 velocity=57 time=0
note_on channel=0 note=64 velocity=43 time=0
note_on channel=0 note=64 velocity=0 time=0
note_on channel=0 note=61 velocity=0 time=0
note_on channel=0 note=67 velocity=0 time=0
note_on channel=0 note=58 velocity=52 time=0
note_on channel=0 note=58 velocity=0 time=240
note_on channel=0 note=61 velocity=43 time=0
note_on channel=0 note=64 velocity=43 time=0
note_on channel=0 note=67 velocity=54 time=0
note_on channel=0 note=91 velocity=0 time=0
note_on channel=0 note=79 velocity=0 time=0
note_on channel=0 note=76 velocity=70 time=0
note_on channel=0 note=88 velocity=82 time=0
note_on channel=0 note=88 velocity=0 time=0
note_on channel=0 note=64 velocity=0 time=0
note_on channel=0 note=67 velocity=0 time=0
note_on channel=0 note=61 velocity=0 time=0
note_on channel=0 note=76 velocity=0 time=0
note_on channel=0 note=89 velocity=89 time=0
note_on channel=0 note=77 velocity=75 time=0
note_on channel=0 note=56 velocity=56 time=0
note_on channel=0 note=56 velocity=0 time=148
note_on channel=0 note=60 velocity=38 time=0
note_on channel=0 note=65 velocity=38 time=0
note_on channel=0 note=68 velocity=49 time=0
note_on channel=0 note=68 velocity=0 time=240
note_on channel=0 note=60 velocity=0 time=0
note_on channel=0 note=65 velocity=0 time=0
note_on channel=0 note=56 velocity=53 time=0
note_on channel=0 note=56 velocity=0 time=0
note_on channel=0 note=77 velocity=0 time=0
note_on channel=0 note=89 velocity=0 time=0
note_on channel=0 note=92 velocity=96 time=0
note_on channel=0 note=80 velocity=81 time=0
note_on channel=0 note=65 velocity=44 time=0
note_on channel=0 note=68 velocity=55 time=0
note_on channel=0 note=60 velocity=44 time=0
note_on channel=0 note=60 velocity=0 time=240
note_on channel=0 note=65 velocity=0 time=0
note_on channel=0 note=68 velocity=0 time=0
note_on channel=0 note=56 velocity=49 time=0
note_on channel=0 note=56 velocity=0 time=240
note_on channel=0 note=65 velocity=43 time=0
note_on channel=0 note=68 velocity=54 time=0
note_on channel=0 note=60 velocity=43 time=0
note_on channel=0 note=60 velocity=0 time=240
note_on channel=0 note=65 velocity=0 time=0
note_on channel=0 note=68 velocity=0 time=0
note_on channel=0 note=56 velocity=51 time=0
note_on channel=0 note=56 velocity=0 time=240
note_on channel=0 note=65 velocity=45 time=0
note_on channel=0 note=68 velocity=56 time=0
note_on channel=0 note=60 velocity=45 time=0
note_on channel=0 note=60 velocity=0 time=240
note_on channel=0 note=65 velocity=0 time=0
note_on channel=0 note=68 velocity=0 time=0
note_on channel=0 note=56 velocity=50 time=0
note_on channel=0 note=56 velocity=0 time=240
note_on channel=0 note=80 velocity=0 time=0
note_on channel=0 note=92 velocity=0 time=0
note_on channel=0 note=92 velocity=88 time=0
note_on channel=0 note=80 velocity=74 time=0
note_on channel=0 note=60 velocity=43 time=0
note_on channel=0 note=68 velocity=57 time=0
note_on channel=0 note=65 velocity=43 time=0
note_on channel=0 note=65 velocity=0 time=0
note_on channel=0 note=60 velocity=0 time=0
note_on channel=0 note=68 velocity=0 time=0
note_on channel=0 note=56 velocity=52 time=0
note_on channel=0 note=56 velocity=0 time=240
note_on channel=0 note=60 velocity=43 time=0
note_on channel=0 note=65 velocity=43 time=0
note_on channel=0 note=68 velocity=54 time=0
note_on channel=0 note=80 velocity=0 time=0
note_on channel=0 note=92 velocity=0 time=0
note_on channel=0 note=89 velocity=82 time=0
note_on channel=0 note=77 velocity=70 time=0
note_on channel=0 note=77 velocity=0 time=0
note_on channel=0 note=65 velocity=0 time=0
note_on channel=0 note=68 velocity=0 time=0
note_on channel=0 note=60 velocity=0 time=0
note_on channel=0 note=89 velocity=0 time=0
note_on channel=0 note=34 velocity=101 time=0
note_on channel=0 note=46 velocity=101 time=0
note_on channel=0 note=61 velocity=80 time=0
note_on channel=0 note=61 velocity=0 time=20
note_on channel=0 note=46 velocity=0 time=0
note_on channel=0 note=34 velocity=0 time=0
note_on channel=0 note=58 velocity=77 time=0
note_on channel=0 note=58 velocity=0 time=20
note_on channel=0 note=66 velocity=72 time=0
note_on channel=0 note=66 velocity=0 time=0
note_on channel=0 note=49 velocity=75 time=0
note_on channel=0 note=49 velocity=0 time=0
note_on channel=0 note=54 velocity=69 time=0
note_on channel=0 note=54 velocity=0 time=0
note_on channel=0 note=58 velocity=86 time=0
note_on channel=0 note=66 velocity=75 time=120
note_on channel=0 note=66 velocity=0 time=120
note_on channel=0 note=58 velocity=0 time=0
note_on channel=0 note=61 velocity=78 time=0
note_on channel=0 note=61 velocity=0 time=120
note_on channel=0 note=70 velocity=73 time=0
note_on channel=0 note=70 velocity=0 time=120
note_on channel=0 note=54 velocity=75 time=0
note_on channel=0 note=54 velocity=0 time=0
note_on channel=0 note=58 velocity=73 time=0
note_on channel=0 note=58 velocity=0 time=0
note_on channel=0 note=61 velocity=86 time=0
note_on channel=0 note=70 velocity=74 time=120
note_on channel=0 note=70 velocity=0 time=120
note_on channel=0 note=61 velocity=0 time=0
note_on channel=0 note=66 velocity=80 time=0
note_on channel=0 note=66 velocity=0 time=120
note_on channel=0 note=73 velocity=74 time=0
note_on channel=0 note=73 velocity=0 time=120
note_on channel=0 note=58 velocity=78 time=0
note_on channel=0 note=58 velocity=0 time=0
note_on channel=0 note=61 velocity=73 time=0
note_on channel=0 note=61 velocity=0 time=0
note_on channel=0 note=66 velocity=84 time=0
note_on channel=0 note=73 velocity=75 time=120
note_on channel=0 note=73 velocity=0 time=120
note_on channel=0 note=66 velocity=0 time=0
note_on channel=0 note=70 velocity=80 time=0
note_on channel=0 note=70 velocity=0 time=120
note_on channel=0 note=78 velocity=72 time=0
note_on channel=0 note=78 velocity=0 time=120
note_on channel=0 note=61 velocity=77 time=0
note_on channel=0 note=61 velocity=0 time=0
note_on channel=0 note=66 velocity=71 time=0
note_on channel=0 note=66 velocity=0 time=0
note_on channel=0 note=70 velocity=81 time=0
note_on channel=0 note=78 velocity=74 time=120
note_on channel=0 note=78 velocity=0 time=120
note_on channel=0 note=70 velocity=0 time=0
note_on channel=0 note=73 velocity=77 time=0
note_on channel=0 note=73 velocity=0 time=120
note_on channel=0 note=82 velocity=72 time=0
note_on channel=0 note=82 velocity=0 time=120
note_on channel=0 note=66 velocity=75 time=0
note_on channel=0 note=66 velocity=0 time=0
note_on channel=0 note=70 velocity=74 time=0
note_on channel=0 note=70 velocity=0 time=0
note_on channel=0 note=73 velocity=81 time=0
note_on channel=0 note=82 velocity=71 time=120
note_on channel=0 note=82 velocity=0 time=120
note_on channel=0 note=73 velocity=0 time=0
note_on channel=0 note=78 velocity=75 time=0
note_on channel=0 note=78 velocity=0 time=120
note_on channel=0 note=85 velocity=73 time=0
note_on channel=0 note=85 velocity=0 time=120
note_on channel=0 note=70 velocity=75 time=0
note_on channel=0 note=70 velocity=0 time=0
note_on channel=0 note=73 velocity=73 time=0
note_on channel=0 note=73 velocity=0 time=0
note_on channel=0 note=78 velocity=84 time=0
note_on channel=0 note=85 velocity=74 time=120
note_on channel=0 note=85 velocity=0 time=120
note_on channel=0 note=78 velocity=0 time=0
note_on channel=0 note=82 velocity=80 time=0
note_on channel=0 note=82 velocity=0 time=120
note_on channel=0 note=90 velocity=74 time=0
note_on channel=0 note=90 velocity=0 time=120
note_on channel=0 note=73 velocity=75 time=0
note_on channel=0 note=73 velocity=0 time=0
note_on channel=0 note=78 velocity=74 time=0
note_on channel=0 note=78 velocity=0 time=0
note_on channel=0 note=82 velocity=83 time=0
note_on channel=0 note=82 velocity=0 time=0
note_on channel=0 note=90 velocity=82 time=0
note_on channel=0 note=90 velocity=0 time=0
note_on channel=0 note=85 velocity=79 time=0
note_on channel=0 note=85 velocity=0 time=0
note_on channel=0 note=94 velocity=84 time=0
note_on channel=0 note=94 velocity=0 time=0
note_on channel=0 note=48 velocity=101 time=0
note_on channel=0 note=36 velocity=101 time=0
note_on channel=0 note=63 velocity=80 time=0
note_on channel=0 note=63 velocity=0 time=20
note_on channel=0 note=36 velocity=0 time=0
note_on channel=0 note=48 velocity=0 time=0
note_on channel=0 note=60 velocity=77 time=0
note_on channel=0 note=60 velocity=0 time=20
note_on channel=0 note=69 velocity=72 time=0
note_on channel=0 note=69 velocity=0 time=0
note_on channel=0 note=51 velocity=80 time=0
note_on channel=0 note=51 velocity=0 time=0
note_on channel=0 note=57 velocity=73 time=0
note_on channel=0 note=57 velocity=0 time=0
note_on channel=0 note=60 velocity=89 time=0
note_on channel=0 note=69 velocity=75 time=120
note_on channel=0 note=69 velocity=0 time=120
note_on channel=0 note=60 velocity=0 time=0
note_on channel=0 note=63 velocity=78 time=0
note_on channel=0 note=63 velocity=0 time=120
note_on channel=0 note=72 velocity=73 time=0
note_on channel=0 note=72 velocity=0 time=120
note_on channel=0 note=57 velocity=78 time=0
note_on channel=0 note=57 velocity=0 time=0
note_on channel=0 note=60 velocity=73 time=0
note_on channel=0 note=60 velocity=0 time=0
note_on channel=0 note=63 velocity=86 time=0
note_on channel=0 note=72 velocity=74 time=120
note_on channel=0 note=72 velocity=0 time=120
note_on channel=0 note=63 velocity=0 time=0
note_on channel=0 note=69 velocity=80 time=0
note_on channel=0 note=69 velocity=0 time=120
note_on channel=0 note=75 velocity=74 time=0
note_on channel=0 note=75 velocity=0 time=120
note_on channel=0 note=60 velocity=78 time=0
note_on channel=0 note=60 velocity=0 time=0
note_on channel=0 note=63 velocity=73 time=0
note_on channel=0 note=63 velocity=0 time=0
note_on channel=0 note=69 velocity=84 time=0
note_on channel=0 note=75 velocity=75 time=120
note_on channel=0 note=75 velocity=0 time=120
note_on channel=0 note=69 velocity=0 time=0
note_on channel=0 note=72 velocity=80 time=0
note_on channel=0 note=72 velocity=0 time=120
note_on channel=0 note=81 velocity=72 time=0
note_on channel=0 note=81 velocity=0 time=120
note_on channel=0 note=63 velocity=77 time=0
note_on channel=0 note=63 velocity=0 time=0
note_on channel=0 note=69 velocity=71 time=0
note_on channel=0 note=69 velocity=0 time=0
note_on channel=0 note=72 velocity=82 time=0
note_on channel=0 note=81 velocity=75 time=120
note_on channel=0 note=81 velocity=0 time=120
note_on channel=0 note=72 velocity=0 time=0
note_on channel=0 note=75 velocity=77 time=0
note_on channel=0 note=75 velocity=0 time=120
note_on channel=0 note=84 velocity=72 time=0
note_on channel=0 note=84 velocity=0 time=120
note_on channel=0 note=69 velocity=75 time=0
note_on channel=0 note=69 velocity=0 time=0
note_on channel=0 note=72 velocity=73 time=0
note_on channel=0 note=72 velocity=0 time=0
note_on channel=0 note=75 velocity=85 time=0
note_on channel=0 note=84 velocity=71 time=120
note_on channel=0 note=84 velocity=0 time=120
note_on channel=0 note=75 velocity=0 time=0
note_on channel=0 note=81 velocity=75 time=0
note_on channel=0 note=81 velocity=0 time=120
note_on channel=0 note=87 velocity=73 time=0
note_on channel=0 note=87 velocity=0 time=120
note_on channel=0 note=72 velocity=75 time=0
note_on channel=0 note=72 velocity=0 time=0
note_on channel=0 note=75 velocity=73 time=0
note_on channel=0 note=75 velocity=0 time=0
note_on channel=0 note=81 velocity=84 time=0
note_on channel=0 note=87 velocity=74 time=120
note_on channel=0 note=87 velocity=0 time=120
note_on channel=0 note=81 velocity=0 time=0
note_on channel=0 note=84 velocity=80 time=0
note_on channel=0 note=84 velocity=0 time=120
note_on channel=0 note=93 velocity=74 time=0
note_on channel=0 note=93 velocity=0 time=120
note_on channel=0 note=75 velocity=80 time=0
note_on channel=0 note=75 velocity=0 time=0
note_on channel=0 note=81 velocity=74 time=0
note_on channel=0 note=81 velocity=0 time=0
note_on channel=0 note=84 velocity=85 time=0
note_on channel=0 note=84 velocity=0 time=0
note_on channel=0 note=93 velocity=83 time=0
note_on channel=0 note=93 velocity=0 time=0
note_on channel=0 note=87 velocity=77 time=0
note_on channel=0 note=87 velocity=0 time=0
note_on channel=0 note=96 velocity=83 time=0
note_on channel=0 note=96 velocity=0 time=0
note_on channel=0 note=37 velocity=101 time=0
note_on channel=0 note=49 velocity=101 time=0
note_on channel=0 note=65 velocity=74 time=0
note_on channel=0 note=65 velocity=0 time=20
note_on channel=0 note=49 velocity=0 time=0
note_on channel=0 note=37 velocity=0 time=0
note_on channel=0 note=61 velocity=77 time=0
note_on channel=0 note=61 velocity=0 time=20
note_on channel=0 note=70 velocity=72 time=0
note_on channel=0 note=70 velocity=0 time=0
note_on channel=0 note=53 velocity=78 time=0
note_on channel=0 note=53 velocity=0 time=0
note_on channel=0 note=58 velocity=73 time=0
note_on channel=0 note=58 velocity=0 time=0
note_on channel=0 note=61 velocity=84 time=0
note_on channel=0 note=61 velocity=0 time=240
note_on channel=0 note=70 velocity=75 time=0
note_on channel=0 note=70 velocity=0 time=120
note_on channel=0 note=65 velocity=72 time=0
note_on channel=0 note=65 velocity=0 time=120
note_on channel=0 note=73 velocity=73 time=0
note_on channel=0 note=73 velocity=0 time=0
note_on channel=0 note=52 velocity=101 time=0
note_on channel=0 note=40 velocity=101 time=0
note_on channel=0 note=67 velocity=75 time=0
note_on channel=0 note=67 velocity=0 time=20
note_on channel=0 note=40 velocity=0 time=0
note_on channel=0 note=52 velocity=0 time=0
note_on channel=0 note=64 velocity=77 time=0
note_on channel=0 note=64 velocity=0 time=20
note_on channel=0 note=72 velocity=72 time=0
note_on channel=0 note=72 velocity=0 time=0
note_on channel=0 note=55 velocity=80 time=0
note_on channel=0 note=55 velocity=0 time=0
note_on channel=0 note=60 velocity=73 time=0
note_on channel=0 note=60 velocity=0 time=0
note_on channel=0 note=64 velocity=82 time=0
note_on channel=0 note=64 velocity=0 time=240
note_on channel=0 note=72 velocity=75 time=0
note_on channel=0 note=72 velocity=0 time=120
note_on channel=0 note=67 velocity=72 time=0
note_on channel=0 note=67 velocity=0 time=120
note_on channel=0 note=76 velocity=73 time=0
note_on channel=0 note=76 velocity=0 time=0
note_on channel=0 note=53 velocity=101 time=0
note_on channel=0 note=41 velocity=101 time=0
note_on channel=0 note=68 velocity=73 time=0
note_on channel=0 note=68 velocity=0 time=20
note_on channel=0 note=41 velocity=0 time=0
note_on channel=0 note=53 velocity=0 time=0
note_on channel=0 note=65 velocity=77 time=0
note_on channel=0 note=65 velocity=0 time=20
note_on channel=0 note=73 velocity=72 time=0
note_on channel=0 note=73 velocity=0 time=0
note_on channel=0 note=56 velocity=80 time=0
note_on channel=0 note=56 velocity=0 time=0
note_on channel=0 note=61 velocity=73 time=0
note_on channel=0 note=61 velocity=0 time=0
note_on channel=0 note=65 velocity=86 time=0
note_on channel=0 note=65 velocity=0 time=240
note_on channel=0 note=73 velocity=75 time=0
note_on channel=0 note=73 velocity=0 time=120
note_on channel=0 note=68 velocity=71 time=0
note_on channel=0 note=68 velocity=0 time=120
note_on channel=0 note=77 velocity=73 time=0
note_on channel=0 note=77 velocity=0 time=0
note_on channel=0 note=43 velocity=101 time=0
note_on channel=0 note=55 velocity=101 time=0
note_on channel=0 note=70 velocity=80 time=0
note_on channel=0 note=70 velocity=0 time=20
note_on channel=0 note=55 velocity=0 time=0
note_on channel=0 note=43 velocity=0 time=0
note_on channel=0 note=67 velocity=77 time=0
note_on channel=0 note=67 velocity=0 time=20
note_on channel=0 note=76 velocity=72 time=0
note_on channel=0 note=76 velocity=0 time=0
note_on channel=0 note=58 velocity=80 time=0
note_on channel=0 note=58 velocity=0 time=0
note_on channel=0 note=64 velocity=73 time=0
note_on channel=0 note=64 velocity=0 time=0
note_on channel=0 note=67 velocity=86 time=0
note_on channel=0 note=67 velocity=0 time=240
note_on channel=0 note=76 velocity=75 time=0
note_on channel=0 note=76 velocity=0 time=120
note_on channel=0 note=70 velocity=73 time=0
note_on channel=0 note=70 velocity=0 time=120
note_on channel=0 note=79 velocity=73 time=0
note_on channel=0 note=79 velocity=0 time=0
note_on channel=0 note=44 velocity=75 time=0
note_on channel=0 note=72 velocity=64 time=120
note_on channel=0 note=72 velocity=0 time=103
note_on channel=0 note=44 velocity=0 time=0
note_on channel=0 note=68 velocity=69 time=0
note_on channel=0 note=68 velocity=0 time=120
note_on channel=0 note=77 velocity=64 time=0
note_on channel=0 note=77 velocity=0 time=120
note_on channel=0 note=56 velocity=69 time=0
note_on channel=0 note=56 velocity=0 time=0
note_on channel=0 note=60 velocity=61 time=0
note_on channel=0 note=60 velocity=0 time=0
note_on channel=0 note=46 velocity=77 time=0
note_on channel=0 note=73 velocity=64 time=104
note_on channel=0 note=73 velocity=0 time=114
note_on channel=0 note=46 velocity=0 time=0
note_on channel=0 note=70 velocity=69 time=0
note_on channel=0 note=70 velocity=0 time=120
note_on channel=0 note=79 velocity=67 time=0
note_on channel=0 note=79 velocity=0 time=120
note_on channel=0 note=58 velocity=69 time=0
note_on channel=0 note=58 velocity=0 time=0
note_on channel=0 note=61 velocity=64 time=0
note_on channel=0 note=61 velocity=0 time=0
note_on channel=0 note=48 velocity=78 time=0
note_on channel=0 note=75 velocity=69 time=11
note_on channel=0 note=75 velocity=0 time=120
note_on channel=0 note=48 velocity=0 time=0
note_on channel=0 note=72 velocity=73 time=0
note_on channel=0 note=72 velocity=0 time=120
note_on channel=0 note=81 velocity=69 time=0
note_on channel=0 note=81 velocity=0 time=120
note_on channel=0 note=60 velocity=71 time=0
note_on channel=0 note=60 velocity=0 time=0
note_on channel=0 note=63 velocity=67 time=0
note_on channel=0 note=63 velocity=0 time=0
note_on channel=0 note=49 velocity=81 time=0
note_on channel=0 note=77 velocity=71 time=11
note_on channel=0 note=77 velocity=0 time=120
note_on channel=0 note=49 velocity=0 time=0
note_on channel=0 note=73 velocity=68 time=0
note_on channel=0 note=73 velocity=0 time=120
note_on channel=0 note=82 velocity=70 time=0
note_on channel=0 note=82 velocity=0 time=120
note_on channel=0 note=61 velocity=77 time=0
note_on channel=0 note=61 velocity=0 time=0
note_on channel=0 note=65 velocity=71 time=0
note_on channel=0 note=65 velocity=0 time=0
note_on channel=0 note=52 velocity=80 time=0
note_on channel=0 note=79 velocity=71 time=28
note_on channel=0 note=79 velocity=0 time=120
note_on channel=0 note=52 velocity=0 time=0
note_on channel=0 note=76 velocity=73 time=0
note_on channel=0 note=76 velocity=0 time=120
note_on channel=0 note=84 velocity=70 time=0
note_on channel=0 note=84 velocity=0 time=120
note_on channel=0 note=64 velocity=77 time=0
note_on channel=0 note=64 velocity=0 time=0
note_on channel=0 note=67 velocity=73 time=0
note_on channel=0 note=67 velocity=0 time=0
note_on channel=0 note=53 velocity=83 time=0
note_on channel=0 note=80 velocity=69 time=5
note_on channel=0 note=80 velocity=0 time=120
note_on channel=0 note=53 velocity=0 time=0
note_on channel=0 note=77 velocity=73 time=0
note_on channel=0 note=77 velocity=0 time=120
note_on channel=0 note=85 velocity=72 time=0
note_on channel=0 note=85 velocity=0 time=120
note_on channel=0 note=65 velocity=77 time=0
note_on channel=0 note=65 velocity=0 time=0
note_on channel=0 note=68 velocity=72 time=0
note_on channel=0 note=68 velocity=0 time=0
note_on channel=0 note=55 velocity=84 time=0
note_on channel=0 note=82 velocity=74 time=105
note_on channel=0 note=82 velocity=0 time=108
note_on channel=0 note=55 velocity=0 time=0
note_on channel=0 note=79 velocity=78 time=0
note_on channel=0 note=79 velocity=0 time=120
note_on channel=0 note=88 velocity=74 time=0
note_on channel=0 note=88 velocity=0 time=120
note_on channel=0 note=67 velocity=78 time=0
note_on channel=0 note=67 velocity=0 time=0
note_on channel=0 note=70 velocity=74 time=0
note_on channel=0 note=70 velocity=0 time=0
note_on channel=0 note=56 velocity=85 time=0
note_on channel=0 note=84 velocity=75 time=11
note_on channel=0 note=84 velocity=0 time=120
note_on channel=0 note=56 velocity=0 time=0
note_on channel=0 note=80 velocity=77 time=0
note_on channel=0 note=80 velocity=0 time=120
note_on channel=0 note=89 velocity=75 time=0
note_on channel=0 note=89 velocity=0 time=120
note_on channel=0 note=68 velocity=77 time=0
note_on channel=0 note=68 velocity=0 time=0
note_on channel=0 note=72 velocity=73 time=0
note_on channel=0 note=72 velocity=0 time=0
note_on channel=0 note=58 velocity=86 time=0
note_on channel=0 note=85 velocity=78 time=28
note_on channel=0 note=85 velocity=0 time=120
note_on channel=0 note=58 velocity=0 time=0
note_on channel=0 note=82 velocity=79 time=0
note_on channel=0 note=82 velocity=0 time=120
note_on channel=0 note=91 velocity=74 time=0
note_on channel=0 note=91 velocity=0 time=120
note_on channel=0 note=70 velocity=81 time=0
note_on channel=0 note=70 velocity=0 time=0
note_on channel=0 note=73 velocity=77 time=0
note_on channel=0 note=73 velocity=0 time=0
note_on channel=0 note=60 velocity=89 time=0
note_on channel=0 note=87 velocity=74 time=5
note_on channel=0 note=87 velocity=0 time=120
note_on channel=0 note=60 velocity=0 time=0
note_on channel=0 note=84 velocity=79 time=0
note_on channel=0 note=84 velocity=0 time=120
note_on channel=0 note=93 velocity=74 time=0
note_on channel=0 note=93 velocity=0 time=120
note_on channel=0 note=72 velocity=80 time=0
note_on channel=0 note=72 velocity=0 time=0
note_on channel=0 note=75 velocity=78 time=0
note_on channel=0 note=75 velocity=0 time=0
note_on channel=0 note=61 velocity=89 time=0
note_on channel=0 note=89 velocity=79 time=104
note_on channel=0 note=89 velocity=0 time=114
note_on channel=0 note=61 velocity=0 time=0
note_on channel=0 note=85 velocity=80 time=0
note_on channel=0 note=85 velocity=0 time=120
note_on channel=0 note=94 velocity=79 time=0
note_on channel=0 note=94 velocity=0 time=120
note_on channel=0 note=73 velocity=83 time=0
note_on channel=0 note=73 velocity=0 time=0
note_on channel=0 note=77 velocity=80 time=0
note_on channel=0 note=77 velocity=0 time=0
note_on channel=0 note=61 velocity=92 time=0
note_on channel=0 note=89 velocity=81 time=0
note_on channel=0 note=89 velocity=0 time=0
note_on channel=0 note=61 velocity=0 time=0
note_on channel=0 note=85 velocity=83 time=0
note_on channel=0 note=85 velocity=0 time=0
note_on channel=0 note=94 velocity=80 time=0
note_on channel=0 note=94 velocity=0 time=0
note_on channel=0 note=73 velocity=84 time=0
note_on channel=0 note=73 velocity=0 time=0
note_on channel=0 note=77 velocity=80 time=0
note_on channel=0 note=77 velocity=0 time=40
note_on channel=0 note=41 velocity=108 time=0
note_on channel=0 note=41 velocity=0 time=0
note_on channel=0 note=53 velocity=100 time=0
note_on channel=0 note=53 velocity=0 time=40
note_on channel=0 note=56 velocity=92 time=0
note_on channel=0 note=56 velocity=0 time=40
note_on channel=0 note=89 velocity=78 time=0
note_on channel=0 note=89 velocity=0 time=0
note_on channel=0 note=85 velocity=82 time=0
note_on channel=0 note=85 velocity=0 time=0
note_on channel=0 note=94 velocity=79 time=0
note_on channel=0 note=94 velocity=0 time=40
note_on channel=0 note=89 velocity=89 time=0
note_on channel=0 note=89 velocity=0 time=0
note_on channel=0 note=85 velocity=83 time=0
note_on channel=0 note=85 velocity=0 time=0
note_on channel=0 note=82 velocity=78 time=0
note_on channel=0 note=82 velocity=0 time=40
note_on channel=0 note=77 velocity=78 time=0
note_on channel=0 note=77 velocity=0 time=80
note_on channel=0 note=73 velocity=82 time=0
note_on channel=0 note=73 velocity=0 time=120
note_on channel=0 note=82 velocity=79 time=0
note_on channel=0 note=82 velocity=0 time=120
note_on channel=0 note=77 velocity=86 time=0
note_on channel=0 note=77 velocity=0 time=120
note_on channel=0 note=73 velocity=82 time=0
note_on channel=0 note=73 velocity=0 time=120
note_on channel=0 note=70 velocity=80 time=0
note_on channel=0 note=70 velocity=0 time=120
note_on channel=0 note=65 velocity=74 time=0
note_on channel=0 note=65 velocity=0 time=120
note_on channel=0 note=61 velocity=78 time=0
note_on channel=0 note=61 velocity=0 time=120
note_on channel=0 note=70 velocity=73 time=0
note_on channel=0 note=70 velocity=0 time=0
note_on channel=0 note=65 velocity=81 time=0
note_on channel=0 note=65 velocity=0 time=120
note_on channel=0 note=61 velocity=78 time=0
note_on channel=0 note=61 velocity=0 time=0
note_on channel=0 note=58 velocity=74 time=0
note_on channel=0 note=58 velocity=0 time=120
note_on channel=0 note=53 velocity=74 time=0
note_on channel=0 note=53 velocity=0 time=0
note_on channel=0 note=49 velocity=74 time=0
note_on channel=0 note=49 velocity=0 time=120
note_on channel=0 note=58 velocity=74 time=0
note_on channel=0 note=58 velocity=0 time=0
note_on channel=0 note=53 velocity=79 time=0
note_on channel=0 note=53 velocity=0 time=120
note_on channel=0 note=49 velocity=71 time=0
note_on channel=0 note=49 velocity=0 time=40
note_on channel=0 note=46 velocity=74 time=0
note_on channel=0 note=46 velocity=0 time=0
note_on channel=0 note=49 velocity=71 time=0
note_on channel=0 note=49 velocity=0 time=120
note_on channel=0 note=53 velocity=74 time=0
note_on channel=0 note=53 velocity=0 time=80
note_on channel=0 note=58 velocity=72 time=0
note_on channel=0 note=58 velocity=0 time=40
note_on channel=0 note=61 velocity=80 time=0
note_on channel=0 note=61 velocity=0 time=0
note_on channel=0 note=65 velocity=75 time=0
note_on channel=0 note=65 velocity=0 time=120
note_on channel=0 note=70 velocity=75 time=0
note_on channel=0 note=70 velocity=0 time=80
note_on channel=0 note=73 velocity=75 time=0
note_on channel=0 note=73 velocity=0 time=0
note_on channel=0 note=77 velocity=79 time=0
note_on channel=0 note=77 velocity=0 time=120
note_on channel=0 note=73 velocity=73 time=0
note_on channel=0 note=73 velocity=0 time=0
note_on channel=0 note=70 velocity=80 time=0
note_on channel=0 note=70 velocity=0 time=120
note_on channel=0 note=73 velocity=74 time=0
note_on channel=0 note=73 velocity=0 time=40
note_on channel=0 note=77 velocity=79 time=0
note_on channel=0 note=77 velocity=0 time=120
note_on channel=0 note=82 velocity=74 time=0
note_on channel=0 note=82 velocity=0 time=80
note_on channel=0 note=85 velocity=82 time=0
note_on channel=0 note=85 velocity=0 time=120
note_on channel=0 note=82 velocity=75 time=0
note_on channel=0 note=82 velocity=0 time=20
note_on channel=0 note=89 velocity=83 time=0
note_on channel=0 note=89 velocity=0 time=20
note_on channel=0 note=85 velocity=78 time=0
note_on channel=0 note=85 velocity=0 time=20
note_on channel=0 note=94 velocity=83 time=0
note_on channel=0 note=94 velocity=0 time=0
note_on channel=0 note=89 velocity=78 time=0
note_on channel=0 note=89 velocity=0 time=0
note_on channel=0 note=85 velocity=80 time=0
note_on channel=0 note=85 velocity=0 time=0
note_on channel=0 note=82 velocity=75 time=0
note_on channel=0 note=82 velocity=0 time=0
note_on channel=0 note=62 velocity=105 time=0
note_on channel=0 note=62 velocity=0 time=0
note_on channel=0 note=74 velocity=100 time=0
note_on channel=0 note=74 velocity=0 time=40
note_on channel=0 note=77 velocity=92 time=0
note_on channel=0 note=77 velocity=0 time=0
note_on channel=0 note=92 velocity=78 time=0
note_on channel=0 note=92 velocity=0 time=40
note_on channel=0 note=89 velocity=85 time=0
note_on channel=0 note=89 velocity=0 time=0
note_on channel=0 note=95 velocity=81 time=0
note_on channel=0 note=95 velocity=0 time=40
note_on channel=0 note=92 velocity=92 time=0
note_on channel=0 note=92 velocity=0 time=0
note_on channel=0 note=89 velocity=80 time=0
note_on channel=0 note=89 velocity=0 time=40
note_on channel=0 note=86 velocity=81 time=0
note_on channel=0 note=86 velocity=0 time=0
note_on channel=0 note=83 velocity=77 time=0
note_on channel=0 note=83 velocity=0 time=40
note_on channel=0 note=80 velocity=81 time=0
note_on channel=0 note=80 velocity=0 time=80
note_on channel=0 note=77 velocity=79 time=0
note_on channel=0 note=77 velocity=0 time=120
note_on channel=0 note=83 velocity=85 time=0
note_on channel=0 note=83 velocity=0 time=120
note_on channel=0 note=80 velocity=82 time=0
note_on channel=0 note=80 velocity=0 time=120
note_on channel=0 note=77 velocity=78 time=0
note_on channel=0 note=77 velocity=0 time=120
note_on channel=0 note=74 velocity=74 time=0
note_on channel=0 note=74 velocity=0 time=40
note_on channel=0 note=71 velocity=75 time=0
note_on channel=0 note=71 velocity=0 time=120
note_on channel=0 note=68 velocity=73 time=0
note_on channel=0 note=68 velocity=0 time=80
note_on channel=0 note=74 velocity=81 time=0
note_on channel=0 note=74 velocity=0 time=0
note_on channel=0 note=71 velocity=78 time=0
note_on channel=0 note=71 velocity=0 time=120
note_on channel=0 note=68 velocity=74 time=0
note_on channel=0 note=68 velocity=0 time=40
note_on channel=0 note=65 velocity=74 time=0
note_on channel=0 note=65 velocity=0 time=120
note_on channel=0 note=62 velocity=74 time=0
note_on channel=0 note=62 velocity=0 time=80
note_on channel=0 note=59 velocity=74 time=0
note_on channel=0 note=59 velocity=0 time=40
note_on channel=0 note=68 velocity=79 time=0
note_on channel=0 note=68 velocity=0 time=0
note_on channel=0 note=65 velocity=71 time=0
note_on channel=0 note=65 velocity=0 time=0
note_on channel=0 note=62 velocity=74 time=0
note_on channel=0 note=62 velocity=0 time=0
note_on channel=0 note=59 velocity=71 time=0
note_on channel=0 note=59 velocity=0 time=0
note_on channel=0 note=56 velocity=74 time=0
note_on channel=0 note=56 velocity=0 time=0
note_on channel=0 note=53 velocity=72 time=0
note_on channel=0 note=53 velocity=0 time=0
note_on channel=0 note=50 velocity=80 time=0
note_on channel=0 note=50 velocity=0 time=0
note_on channel=0 note=47 velocity=75 time=0
note_on channel=0 note=47 velocity=0 time=0
note_on channel=0 note=50 velocity=75 time=0
note_on channel=0 note=50 velocity=0 time=0
note_on channel=0 note=53 velocity=75 time=0
note_on channel=0 note=53 velocity=0 time=0
note_on channel=0 note=56 velocity=79 time=0
note_on channel=0 note=56 velocity=0 time=40
note_on channel=0 note=59 velocity=73 time=0
note_on channel=0 note=59 velocity=0 time=40
note_on channel=0 note=62 velocity=80 time=0
note_on channel=0 note=62 velocity=0 time=0
note_on channel=0 note=65 velocity=74 time=0
note_on channel=0 note=65 velocity=0 time=0
note_on channel=0 note=68 velocity=79 time=0
note_on channel=0 note=68 velocity=0 time=40
note_on channel=0 note=71 velocity=74 time=0
note_on channel=0 note=71 velocity=0 time=0
note_on channel=0 note=74 velocity=82 time=0
note_on channel=0 note=74 velocity=0 time=0
note_on channel=0 note=77 velocity=75 time=0
note_on channel=0 note=77 velocity=0 time=0
note_on channel=0 note=80 velocity=83 time=0
note_on channel=0 note=80 velocity=0 time=0
note_on channel=0 note=83 velocity=78 time=0
note_on channel=0 note=83 velocity=0 time=0
note_on channel=0 note=86 velocity=83 time=0
note_on channel=0 note=86 velocity=0 time=0
note_on channel=0 note=89 velocity=78 time=0
note_on channel=0 note=89 velocity=0 time=0
note_on channel=0 note=92 velocity=80 time=0
note_on channel=0 note=92 velocity=0 time=0
note_on channel=0 note=95 velocity=75 time=0
note_on channel=0 note=95 velocity=0 time=0
note_on channel=0 note=36 velocity=125 time=0
note_on channel=0 note=36 velocity=0 time=0
note_on channel=0 note=92 velocity=78 time=120
note_on channel=0 note=92 velocity=0 time=0
note_on channel=0 note=89 velocity=82 time=0
note_on channel=0 note=89 velocity=0 time=120
note_on channel=0 note=96 velocity=79 time=0
note_on channel=0 note=96 velocity=0 time=0
note_on channel=0 note=92 velocity=92 time=0
note_on channel=0 note=92 velocity=0 time=51
note_on channel=0 note=89 velocity=83 time=0
note_on channel=0 note=89 velocity=0 time=0
note_on channel=0 note=84 velocity=82 time=0
note_on channel=0 note=84 velocity=0 time=40
note_on channel=0 note=80 velocity=78 time=0
note_on channel=0 note=80 velocity=0 time=0
note_on channel=0 note=77 velocity=82 time=0
note_on channel=0 note=77 velocity=0 time=40
note_on channel=0 note=84 velocity=79 time=0
note_on channel=0 note=84 velocity=0 time=0
note_on channel=0 note=80 velocity=86 time=0
note_on channel=0 note=80 velocity=0 time=40
note_on channel=0 note=77 velocity=82 time=0
note_on channel=0 note=77 velocity=0 time=80
note_on channel=0 note=72 velocity=80 time=0
note_on channel=0 note=72 velocity=0 time=0
note_on channel=0 note=68 velocity=74 time=0
note_on channel=0 note=68 velocity=0 time=40
note_on channel=0 note=65 velocity=78 time=0
note_on channel=0 note=65 velocity=0 time=0
note_on channel=0 note=72 velocity=73 time=0
note_on channel=0 note=72 velocity=0 time=40
note_on channel=0 note=68 velocity=81 time=0
note_on channel=0 note=68 velocity=0 time=0
note_on channel=0 note=65 velocity=78 time=0
note_on channel=0 note=65 velocity=0 time=40
note_on channel=0 note=60 velocity=74 time=0
note_on channel=0 note=60 velocity=0 time=80
note_on channel=0 note=56 velocity=74 time=0
note_on channel=0 note=56 velocity=0 time=0
note_on channel=0 note=53 velocity=74 time=0
note_on channel=0 note=53 velocity=0 time=120
note_on channel=0 note=60 velocity=74 time=0
note_on channel=0 note=60 velocity=0 time=0
note_on channel=0 note=56 velocity=79 time=0
note_on channel=0 note=56 velocity=0 time=120
note_on channel=0 note=53 velocity=71 time=0
note_on channel=0 note=53 velocity=0 time=40
note_on channel=0 note=48 velocity=74 time=0
note_on channel=0 note=48 velocity=0 time=0
note_on channel=0 note=44 velocity=71 time=0
note_on channel=0 note=44 velocity=0 time=120
note_on channel=0 note=41 velocity=74 time=0
note_on channel=0 note=41 velocity=0 time=80
note_on channel=0 note=36 velocity=72 time=0
note_on channel=0 note=36 velocity=0 time=40
note_on channel=0 note=41 velocity=80 time=0
note_on channel=0 note=41 velocity=0 time=0
note_on channel=0 note=44 velocity=75 time=0
note_on channel=0 note=44 velocity=0 time=120
note_on channel=0 note=48 velocity=75 time=0
note_on channel=0 note=48 velocity=0 time=80
note_on channel=0 note=53 velocity=75 time=0
note_on channel=0 note=53 velocity=0 time=0
note_on channel=0 note=56 velocity=79 time=0
note_on channel=0 note=56 velocity=0 time=120
note_on channel=0 note=60 velocity=73 time=0
note_on channel=0 note=60 velocity=0 time=0
note_on channel=0 note=65 velocity=80 time=0
note_on channel=0 note=65 velocity=0 time=120
note_on channel=0 note=68 velocity=74 time=0
note_on channel=0 note=68 velocity=0 time=40
note_on channel=0 note=72 velocity=79 time=0
note_on channel=0 note=72 velocity=0 time=120
note_on channel=0 note=77 velocity=74 time=0
note_on channel=0 note=77 velocity=0 time=80
note_on channel=0 note=80 velocity=78 time=0
note_on channel=0 note=80 velocity=0 time=120
note_on channel=0 note=84 velocity=75 time=0
note_on channel=0 note=84 velocity=0 time=20
note_on channel=0 note=89 velocity=83 time=0
note_on channel=0 note=89 velocity=0 time=20
note_on channel=0 note=92 velocity=78 time=0
note_on channel=0 note=92 velocity=0 time=20
note_on channel=0 note=96 velocity=83 time=0
note_on channel=0 note=96 velocity=0 time=0
note_on channel=0 note=92 velocity=78 time=0
note_on channel=0 note=92 velocity=0 time=0
note_on channel=0 note=89 velocity=80 time=0
note_on channel=0 note=89 velocity=0 time=80
note_on channel=0 note=84 velocity=75 time=0
note_on channel=0 note=84 velocity=0 time=0
note_on channel=0 note=36 velocity=82 time=0
note_on channel=0 note=36 velocity=0 time=0
note_on channel=0 note=48 velocity=72 time=0
note_on channel=0 note=48 velocity=0 time=40
note_on channel=0 note=52 velocity=73 time=0
note_on channel=0 note=52 velocity=0 time=0
note_on channel=0 note=91 velocity=72 time=0
note_on channel=0 note=55 velocity=74 time=0
note_on channel=0 note=55 velocity=0 time=40
note_on channel=0 note=91 velocity=0 time=0
note_on channel=0 note=88 velocity=77 time=0
note_on channel=0 note=58 velocity=74 time=0
note_on channel=0 note=88 velocity=0 time=0
note_on channel=0 note=94 velocity=73 time=0
note_on channel=0 note=94 velocity=0 time=0
note_on channel=0 note=58 velocity=0 time=0
note_on channel=0 note=91 velocity=78 time=0
note_on channel=0 note=91 velocity=0 time=40
note_on channel=0 note=88 velocity=77 time=0
note_on channel=0 note=88 velocity=0 time=0
note_on channel=0 note=84 velocity=74 time=0
note_on channel=0 note=84 velocity=0 time=40
note_on channel=0 note=82 velocity=72 time=0
note_on channel=0 note=82 velocity=0 time=0
note_on channel=0 note=79 velocity=77 time=0
note_on channel=0 note=79 velocity=0 time=80
note_on channel=0 note=76 velocity=73 time=0
note_on channel=0 note=76 velocity=0 time=120
note_on channel=0 note=72 velocity=78 time=0
note_on channel=0 note=72 velocity=0 time=120
note_on channel=0 note=70 velocity=75 time=0
note_on channel=0 note=70 velocity=0 time=120
note_on channel=0 note=67 velocity=71 time=0
note_on channel=0 note=67 velocity=0 time=120
note_on channel=0 note=64 velocity=70 time=0
note_on channel=0 note=64 velocity=0 time=0
note_on channel=0 note=60 velocity=73 time=0
note_on channel=0 note=60 velocity=0 time=120
note_on channel=0 note=58 velocity=69 time=0
note_on channel=0 note=58 velocity=0 time=0
note_on channel=0 note=55 velocity=74 time=0
note_on channel=0 note=55 velocity=0 time=120
note_on channel=0 note=52 velocity=69 time=0
note_on channel=0 note=52 velocity=0 time=0
note_on channel=0 note=48 velocity=71 time=0
note_on channel=0 note=48 velocity=0 time=120
note_on channel=0 note=46 velocity=70 time=0
note_on channel=0 note=46 velocity=0 time=0
note_on channel=0 note=43 velocity=70 time=0
note_on channel=0 note=43 velocity=0 time=120
note_on channel=0 note=40 velocity=70 time=0
note_on channel=0 note=40 velocity=0 time=0
note_on channel=0 note=36 velocity=75 time=0
note_on channel=0 note=36 velocity=0 time=120
note_on channel=0 note=40 velocity=67 time=0
note_on channel=0 note=40 velocity=0 time=40
note_on channel=0 note=43 velocity=70 time=0
note_on channel=0 note=43 velocity=0 time=0
note_on channel=0 note=46 velocity=67 time=0
note_on channel=0 note=46 velocity=0 time=120
note_on channel=0 note=48 velocity=70 time=0
note_on channel=0 note=48 velocity=0 time=80
note_on channel=0 note=52 velocity=68 time=0
note_on channel=0 note=52 velocity=0 time=40
note_on channel=0 note=55 velocity=76 time=0
note_on channel=0 note=55 velocity=0 time=0
note_on channel=0 note=58 velocity=71 time=0
note_on channel=0 note=58 velocity=0 time=120
note_on channel=0 note=60 velocity=71 time=0
note_on channel=0 note=60 velocity=0 time=80
note_on channel=0 note=64 velocity=71 time=0
note_on channel=0 note=64 velocity=0 time=0
note_on channel=0 note=67 velocity=73 time=0
note_on channel=0 note=67 velocity=0 time=120
note_on channel=0 note=70 velocity=69 time=0
note_on channel=0 note=70 velocity=0 time=0
note_on channel=0 note=72 velocity=73 time=0
note_on channel=0 note=72 velocity=0 time=120
note_on channel=0 note=76 velocity=66 time=0
note_on channel=0 note=76 velocity=0 time=40
note_on channel=0 note=79 velocity=70 time=0
note_on channel=0 note=79 velocity=0 time=120
note_on channel=0 note=76 velocity=66 time=0
note_on channel=0 note=76 velocity=0 time=20
note_on channel=0 note=72 velocity=70 time=0
note_on channel=0 note=72 velocity=0 time=20
note_on channel=0 note=76 velocity=66 time=0
note_on channel=0 note=76 velocity=0 time=20
note_on channel=0 note=79 velocity=70 time=0
note_on channel=0 note=79 velocity=0 time=20
note_on channel=0 note=76 velocity=60 time=0
note_on channel=0 note=76 velocity=0 time=20
note_on channel=0 note=82 velocity=65 time=0
note_on channel=0 note=82 velocity=0 time=20
note_on channel=0 note=79 velocity=58 time=0
note_on channel=0 note=79 velocity=0 time=20
note_on channel=0 note=76 velocity=63 time=0
note_on channel=0 note=76 velocity=0 time=0
note_on channel=0 note=79 velocity=56 time=0
note_on channel=0 note=79 velocity=0 time=0
note_on channel=0 note=82 velocity=57 time=0
note_on channel=0 note=82 velocity=0 time=194
note_on channel=0 note=49 velocity=37 time=0
note_on channel=0 note=49 velocity=0 time=0
note_on channel=0 note=49 velocity=35 time=0
note_on channel=0 note=49 velocity=0 time=0
note_on channel=0 note=49 velocity=35 time=0
note_on channel=0 note=49 velocity=0 time=0
note_on channel=0 note=48 velocity=36 time=0
note_on channel=0 note=48 velocity=0 time=274
note_on channel=0 note=79 velocity=46 time=0
note_on channel=0 note=76 velocity=46 time=0
note_on channel=0 note=76 velocity=0 time=240
note_on channel=0 note=79 velocity=0 time=0
note_on channel=0 note=76 velocity=42 time=0
note_on channel=0 note=79 velocity=42 time=0
note_on channel=0 note=79 velocity=0 time=0
note_on channel=0 note=76 velocity=0 time=0
note_on channel=0 note=76 velocity=46 time=0
note_on channel=0 note=79 velocity=46 time=0
note_on channel=0 note=79 velocity=0 time=0
note_on channel=0 note=76 velocity=0 time=0
note_on channel=0 note=82 velocity=46 time=0
note_on channel=0 note=79 velocity=46 time=0
note_on channel=0 note=79 velocity=0 time=308
note_on channel=0 note=82 velocity=0 time=0
note_on channel=0 note=49 velocity=35 time=0
note_on channel=0 note=49 velocity=0 time=0
note_on channel=0 note=49 velocity=33 time=0
note_on channel=0 note=49 velocity=0 time=0
note_on channel=0 note=49 velocity=33 time=0
note_on channel=0 note=49 velocity=0 time=0
note_on channel=0 note=48 velocity=34 time=0
note_on channel=0 note=48 velocity=0 time=297
note_on channel=0 note=64 velocity=39 time=0
note_on channel=0 note=67 velocity=39 time=0
note_on channel=0 note=67 velocity=0 time=240
note_on channel=0 note=64 velocity=0 time=0
note_on channel=0 note=64 velocity=37 time=0
note_on channel=0 note=67 velocity=37 time=0
note_on channel=0 note=67 velocity=0 time=0
note_on channel=0 note=64 velocity=0 time=0
note_on channel=0 note=67 velocity=37 time=0
note_on channel=0 note=64 velocity=37 time=0
note_on channel=0 note=64 velocity=0 time=0
note_on channel=0 note=67 velocity=0 time=0
note_on channel=0 note=67 velocity=41 time=0
note_on channel=0 note=70 velocity=41 time=0
note_on channel=0 note=70 velocity=0 time=226
note_on channel=0 note=67 velocity=0 time=0
note_on channel=0 note=37 velocity=32 time=40
note_on channel=0 note=37 velocity=0 time=40
note_on channel=0 note=37 velocity=30 time=0
note_on channel=0 note=37 velocity=0 time=40
note_on channel=0 note=37 velocity=30 time=0
note_on channel=0 note=37 velocity=0 time=0
note_on channel=0 note=36 velocity=31 time=0
note_on channel=0 note=36 velocity=0 time=0
note_on channel=0 note=37 velocity=31 time=0
note_on channel=0 note=37 velocity=0 time=70
note_on channel=0 note=37 velocity=29 time=0
note_on channel=0 note=37 velocity=0 time=240
note_on channel=0 note=37 velocity=29 time=0
note_on channel=0 note=37 velocity=0 time=240
note_on channel=0 note=36 velocity=29 time=0
note_on channel=0 note=36 velocity=0 time=0
note_on channel=0 note=70 velocity=32 time=0
note_on channel=0 note=67 velocity=32 time=0
note_on channel=0 note=76 velocity=32 time=0
note_on channel=0 note=37 velocity=21 time=0
note_on channel=0 note=37 velocity=0 time=0
note_on channel=0 note=70 velocity=0 time=0
note_on channel=0 note=67 velocity=0 time=0
note_on channel=0 note=76 velocity=0 time=0
note_on channel=0 note=76 velocity=36 time=0
note_on channel=0 note=70 velocity=36 time=0
note_on channel=0 note=67 velocity=36 time=0
note_on channel=0 note=37 velocity=24 time=0
note_on channel=0 note=37 velocity=0 time=0
note_on channel=0 note=76 velocity=0 time=0
note_on channel=0 note=70 velocity=0 time=0
note_on channel=0 note=67 velocity=0 time=0
note_on channel=0 note=76 velocity=39 time=0
note_on channel=0 note=67 velocity=39 time=0
note_on channel=0 note=70 velocity=39 time=0
note_on channel=0 note=37 velocity=26 time=0
note_on channel=0 note=37 velocity=0 time=0
note_on channel=0 note=76 velocity=0 time=0
note_on channel=0 note=67 velocity=0 time=0
note_on channel=0 note=70 velocity=0 time=0
note_on channel=0 note=76 velocity=43 time=0
note_on channel=0 note=70 velocity=43 time=0
note_on channel=0 note=67 velocity=43 time=0
note_on channel=0 note=36 velocity=28 time=0
note_on channel=0 note=36 velocity=0 time=0
note_on channel=0 note=76 velocity=0 time=0
note_on channel=0 note=70 velocity=0 time=0
note_on channel=0 note=67 velocity=0 time=0
note_on channel=0 note=84 velocity=87 time=0
note_on channel=0 note=82 velocity=87 time=0
note_on channel=0 note=79 velocity=87 time=0
note_on channel=0 note=76 velocity=87 time=0
note_on channel=0 note=88 velocity=102 time=0
note_on channel=0 note=36 velocity=70 time=0
note_on channel=0 note=48 velocity=83 time=0
note_on channel=0 note=48 velocity=0 time=132
note_on channel=0 note=88 velocity=0 time=0
note_on channel=0 note=82 velocity=0 time=0
note_on channel=0 note=79 velocity=0 time=0
note_on channel=0 note=84 velocity=0 time=0
note_on channel=0 note=36 velocity=0 time=0
note_on channel=0 note=76 velocity=0 time=0
note_on channel=0 note=76 velocity=78 time=0
note_on channel=0 note=84 velocity=78 time=0
note_on channel=0 note=79 velocity=78 time=0
note_on channel=0 note=88 velocity=93 time=0
note_on channel=0 note=82 velocity=78 time=0
note_on channel=0 note=48 velocity=78 time=0
note_on channel=0 note=36 velocity=65 time=0
note_on channel=0 note=36 velocity=0 time=240
note_on channel=0 note=82 velocity=0 time=0
note_on channel=0 note=84 velocity=0 time=0
note_on channel=0 note=79 velocity=0 time=0
note_on channel=0 note=76 velocity=0 time=0
note_on channel=0 note=48 velocity=0 time=0
note_on channel=0 note=88 velocity=0 time=0
note_on channel=0 note=79 velocity=78 time=0
note_on channel=0 note=76 velocity=78 time=0
note_on channel=0 note=82 velocity=78 time=0
note_on channel=0 note=84 velocity=78 time=0
note_on channel=0 note=88 velocity=93 time=0
note_on channel=0 note=48 velocity=78 time=0
note_on channel=0 note=36 velocity=65 time=0
note_on channel=0 note=36 velocity=0 time=240
note_on channel=0 note=88 velocity=0 time=0
note_on channel=0 note=76 velocity=0 time=0
note_on channel=0 note=82 velocity=0 time=0
note_on channel=0 note=79 velocity=0 time=0
note_on channel=0 note=48 velocity=0 time=0
note_on channel=0 note=84 velocity=0 time=0
note_on channel=0 note=84 velocity=87 time=0
note_on channel=0 note=80 velocity=87 time=0
note_on channel=0 note=89 velocity=102 time=0
note_on channel=0 note=77 velocity=87 time=0
note_on channel=0 note=29 velocity=71 time=0
note_on channel=0 note=41 velocity=85 time=0
note_on channel=0 note=41 velocity=0 time=0
note_on channel=0 note=29 velocity=0 time=0
note_on channel=0 note=65 velocity=30 time=0
note_on channel=0 note=60 velocity=30 time=0
note_on channel=0 note=60 velocity=0 time=240
note_on channel=0 note=80 velocity=0 time=0
note_on channel=0 note=77 velocity=0 time=0
note_on channel=0 note=84 velocity=0 time=0
note_on channel=0 note=65 velocity=0 time=0
note_on channel=0 note=89 velocity=0 time=0
note_on channel=0 note=56 velocity=37 time=0
note_on channel=0 note=56 velocity=0 time=240
note_on channel=0 note=65 velocity=42 time=0
note_on channel=0 note=60 velocity=32 time=0
note_on channel=0 note=60 velocity=0 time=240
note_on channel=0 note=65 velocity=0 time=0
note_on channel=0 note=56 velocity=37 time=0
note_on channel=0 note=56 velocity=0 time=240
note_on channel=0 note=60 velocity=30 time=0
note_on channel=0 note=65 velocity=37 time=0
note_on channel=0 note=65 velocity=0 time=240
note_on channel=0 note=60 velocity=0 time=0
note_on channel=0 note=56 velocity=42 time=0
note_on channel=0 note=56 velocity=0 time=240
note_on channel=0 note=65 velocity=37 time=0
note_on channel=0 note=60 velocity=30 time=0
note_on channel=0 note=60 velocity=0 time=240
note_on channel=0 note=65 velocity=0 time=0
note_on channel=0 note=56 velocity=37 time=0
note_on channel=0 note=56 velocity=0 time=240
note_on channel=0 note=68 velocity=66 time=0
note_on channel=0 note=65 velocity=42 time=0
note_on channel=0 note=60 velocity=32 time=0
note_on channel=0 note=60 velocity=0 time=0
note_on channel=0 note=65 velocity=0 time=0
note_on channel=0 note=56 velocity=37 time=0
note_on channel=0 note=56 velocity=0 time=240
note_on channel=0 note=65 velocity=41 time=0
note_on channel=0 note=60 velocity=31 time=0
note_on channel=0 note=68 velocity=0 time=0
note_on channel=0 note=72 velocity=58 time=0
note_on channel=0 note=72 velocity=0 time=0
note_on channel=0 note=60 velocity=0 time=0
note_on channel=0 note=65 velocity=0 time=0
note_on channel=0 note=77 velocity=63 time=0
note_on channel=0 note=56 velocity=42 time=0
note_on channel=0 note=56 velocity=0 time=200
note_on channel=0 note=60 velocity=30 time=0
note_on channel=0 note=65 velocity=36 time=0
note_on channel=0 note=65 velocity=0 time=240
note_on channel=0 note=60 velocity=0 time=0
note_on channel=0 note=56 velocity=37 time=0
note_on channel=0 note=56 velocity=0 time=0
note_on channel=0 note=77 velocity=0 time=0
note_on channel=0 note=80 velocity=68 time=0
note_on channel=0 note=65 velocity=42 time=0
note_on channel=0 note=60 velocity=32 time=0
note_on channel=0 note=60 velocity=0 time=0
note_on channel=0 note=65 velocity=0 time=0
note_on channel=0 note=56 velocity=37 time=0
note_on channel=0 note=56 velocity=0 time=240
note_on channel=0 note=65 velocity=37 time=0
note_on channel=0 note=60 velocity=30 time=0
note_on channel=0 note=80 velocity=0 time=0
note_on channel=0 note=77 velocity=60 time=0
note_on channel=0 note=77 velocity=0 time=120
note_on channel=0 note=60 velocity=0 time=0
note_on channel=0 note=65 velocity=0 time=0
note_on channel=0 note=76 velocity=63 time=0
note_on channel=0 note=58 velocity=42 time=0
note_on channel=0 note=58 velocity=0 time=35
note_on channel=0 note=67 velocity=37 time=0
note_on channel=0 note=60 velocity=30 time=0
note_on channel=0 note=60 velocity=0 time=240
note_on channel=0 note=67 velocity=0 time=0
note_on channel=0 note=58 velocity=37 time=0
note_on channel=0 note=58 velocity=0 time=0
note_on channel=0 note=76 velocity=0 time=0
note_on channel=0 note=79 velocity=68 time=0
note_on channel=0 note=67 velocity=42 time=0
note_on channel=0 note=60 velocity=32 time=0
note_on channel=0 note=60 velocity=0 time=0
note_on channel=0 note=67 velocity=0 time=0
note_on channel=0 note=58 velocity=37 time=0
note_on channel=0 note=58 velocity=0 time=240
note_on channel=0 note=67 velocity=41 time=0
note_on channel=0 note=60 velocity=31 time=0
note_on channel=0 note=79 velocity=0 time=0
note_on channel=0 note=76 velocity=60 time=0
note_on channel=0 note=76 velocity=0 time=0
note_on channel=0 note=60 velocity=0 time=0
note_on channel=0 note=67 velocity=0 time=0
note_on channel=0 note=77 velocity=63 time=0
note_on channel=0 note=56 velocity=42 time=0
note_on channel=0 note=56 velocity=0 time=113
note_on channel=0 note=60 velocity=30 time=0
note_on channel=0 note=65 velocity=36 time=0
note_on channel=0 note=65 velocity=0 time=240
note_on channel=0 note=60 velocity=0 time=0
note_on channel=0 note=56 velocity=37 time=0
note_on channel=0 note=56 velocity=0 time=0
note_on channel=0 note=77 velocity=0 time=0
note_on channel=0 note=72 velocity=62 time=0
note_on channel=0 note=60 velocity=32 time=0
note_on channel=0 note=65 velocity=42 time=0
note_on channel=0 note=65 velocity=0 time=240
note_on channel=0 note=60 velocity=0 time=0
note_on channel=0 note=56 velocity=37 time=0
note_on channel=0 note=56 velocity=0 time=240
note_on channel=0 note=60 velocity=30 time=0
note_on channel=0 note=65 velocity=37 time=0
note_on channel=0 note=65 velocity=0 time=240
note_on channel=0 note=60 velocity=0 time=0
note_on channel=0 note=56 velocity=42 time=0
note_on channel=0 note=56 velocity=0 time=240
note_on channel=0 note=60 velocity=30 time=0
note_on channel=0 note=65 velocity=37 time=0
note_on channel=0 note=65 velocity=0 time=240
note_on channel=0 note=60 velocity=0 time=0
note_on channel=0 note=56 velocity=42 time=0
note_on channel=0 note=56 velocity=0 time=240
note_on channel=0 note=72 velocity=0 time=0
note_on channel=0 note=80 velocity=71 time=0
note_on channel=0 note=68 velocity=60 time=0
note_on channel=0 note=60 velocity=34 time=0
note_on channel=0 note=65 velocity=44 time=0
note_on channel=0 note=65 velocity=0 time=0
note_on channel=0 note=60 velocity=0 time=0
note_on channel=0 note=56 velocity=40 time=0
note_on channel=0 note=56 velocity=0 time=240
note_on channel=0 note=60 velocity=33 time=0
note_on channel=0 note=65 velocity=44 time=0
note_on channel=0 note=68 velocity=0 time=0
note_on channel=0 note=80 velocity=0 time=0
note_on channel=0 note=84 velocity=62 time=0
note_on channel=0 note=72 velocity=52 time=0
note_on channel=0 note=72 velocity=0 time=0
note_on channel=0 note=65 velocity=0 time=0
note_on channel=0 note=60 velocity=0 time=0
note_on channel=0 note=84 velocity=0 time=0
note_on channel=0 note=77 velocity=61 time=0
note_on channel=0 note=89 velocity=73 time=0
note_on channel=0 note=56 velocity=46 time=0
note_on channel=0 note=56 velocity=0 time=200
note_on channel=0 note=68 velocity=40 time=0
note_on channel=0 note=60 velocity=34 time=0
note_on channel=0 note=65 velocity=40 time=0
note_on channel=0 note=65 velocity=0 time=240
note_on channel=0 note=68 velocity=0 time=0
note_on channel=0 note=60 velocity=0 time=0
note_on channel=0 note=56 velocity=42 time=0
note_on channel=0 note=56 velocity=0 time=0
note_on channel=0 note=89 velocity=0 time=0
note_on channel=0 note=77 velocity=0 time=0
note_on channel=0 note=92 velocity=78 time=0
note_on channel=0 note=80 velocity=65 time=0
note_on channel=0 note=68 velocity=47 time=0
note_on channel=0 note=60 velocity=36 time=0
note_on channel=0 note=65 velocity=47 time=0
note_on channel=0 note=65 velocity=0 time=0
note_on channel=0 note=68 velocity=0 time=0
note_on channel=0 note=60 velocity=0 time=0
note_on channel=0 note=56 velocity=43 time=0
note_on channel=0 note=56 velocity=0 time=240
note_on channel=0 note=68 velocity=44 time=0
note_on channel=0 note=65 velocity=44 time=0
note_on channel=0 note=60 velocity=36 time=0
note_on channel=0 note=80 velocity=0 time=0
note_on channel=0 note=92 velocity=0 time=0
note_on channel=0 note=89 velocity=71 time=0
note_on channel=0 note=77 velocity=59 time=0
note_on channel=0 note=77 velocity=0 time=120
note_on channel=0 note=65 velocity=0 time=0
note_on channel=0 note=60 velocity=0 time=0
note_on channel=0 note=68 velocity=0 time=0
note_on channel=0 note=89 velocity=0 time=0
note_on channel=0 note=88 velocity=76 time=0
note_on channel=0 note=76 velocity=64 time=0
note_on channel=0 note=58 velocity=49 time=0
note_on channel=0 note=58 velocity=0 time=70
note_on channel=0 note=64 velocity=36 time=0
note_on channel=0 note=60 velocity=36 time=0
note_on channel=0 note=67 velocity=45 time=0
note_on channel=0 note=67 velocity=0 time=240
note_on channel=0 note=64 velocity=0 time=0
note_on channel=0 note=60 velocity=0 time=0
note_on channel=0 note=58 velocity=46 time=0
note_on channel=0 note=58 velocity=0 time=0
note_on channel=0 note=76 velocity=0 time=0
note_on channel=0 note=88 velocity=0 time=0
note_on channel=0 note=91 velocity=82 time=0
note_on channel=0 note=79 velocity=68 time=0
note_on channel=0 note=64 velocity=39 time=0
note_on channel=0 note=67 velocity=51 time=0
note_on channel=0 note=60 velocity=39 time=0
note_on channel=0 note=60 velocity=0 time=0
note_on channel=0 note=64 velocity=0 time=0
note_on channel=0 note=67 velocity=0 time=0
note_on channel=0 note=58 velocity=47 time=0
note_on channel=0 note=58 velocity=0 time=240
note_on channel=0 note=64 velocity=38 time=0
note_on channel=0 note=67 velocity=51 time=0
note_on channel=0 note=60 velocity=38 time=0
note_on channel=0 note=79 velocity=0 time=0
note_on channel=0 note=91 velocity=0 time=0
note_on channel=0 note=88 velocity=77 time=0
note_on channel=0 note=76 velocity=65 time=0
note_on channel=0 note=76 velocity=0 time=0
note_on channel=0 note=67 velocity=0 time=0
note_on channel=0 note=60 velocity=0 time=0
note_on channel=0 note=64 velocity=0 time=0
note_on channel=0 note=88 velocity=0 time=0
note_on channel=0 note=90 velocity=99 time=0
note_on channel=0 note=78 velocity=82 time=0
note_on channel=0 note=57 velocity=55 time=0
note_on channel=0 note=57 velocity=0 time=113
note_on channel=0 note=66 velocity=48 time=0
note_on channel=0 note=63 velocity=48 time=0
note_on channel=0 note=60 velocity=39 time=0
note_on channel=0 note=60 velocity=0 time=240
note_on channel=0 note=66 velocity=0 time=0
note_on channel=0 note=63 velocity=0 time=0
note_on channel=0 note=57 velocity=49 time=0
note_on channel=0 note=57 velocity=0 time=0
note_on channel=0 note=78 velocity=0 time=0
note_on channel=0 note=90 velocity=0 time=0
note_on channel=0 note=72 velocity=63 time=0
note_on channel=0 note=84 velocity=79 time=0
note_on channel=0 note=66 velocity=55 time=0
note_on channel=0 note=60 velocity=41 time=0
note_on channel=0 note=63 velocity=55 time=0
note_on channel=0 note=63 velocity=0 time=240
note_on channel=0 note=66 velocity=0 time=0
note_on channel=0 note=60 velocity=0 time=0
note_on channel=0 note=57 velocity=49 time=0
note_on channel=0 note=57 velocity=0 time=240
note_on channel=0 note=60 velocity=39 time=0
note_on channel=0 note=63 velocity=49 time=0
note_on channel=0 note=66 velocity=49 time=0
note_on channel=0 note=66 velocity=0 time=240
note_on channel=0 note=60 velocity=0 time=0
note_on channel=0 note=63 velocity=0 time=0
note_on channel=0 note=57 velocity=55 time=0
note_on channel=0 note=57 velocity=0 time=240
note_on channel=0 note=66 velocity=49 time=0
note_on channel=0 note=60 velocity=39 time=0
note_on channel=0 note=63 velocity=49 time=0
note_on channel=0 note=63 velocity=0 time=240
note_on channel=0 note=66 velocity=0 time=0
note_on channel=0 note=60 velocity=0 time=0
note_on channel=0 note=57 velocity=55 time=0
note_on channel=0 note=57 velocity=0 time=0
note_on channel=0 note=84 velocity=0 time=0
note_on channel=0 note=72 velocity=0 time=0
note_on channel=0 note=75 velocity=70 time=0
note_on channel=0 note=87 velocity=84 time=0
note_on channel=0 note=63 velocity=40 time=0
note_on channel=0 note=66 velocity=53 time=0
note_on channel=0 note=60 velocity=40 time=0
note_on channel=0 note=60 velocity=0 time=0
note_on channel=0 note=63 velocity=0 time=0
note_on channel=0 note=66 velocity=0 time=0
note_on channel=0 note=57 velocity=48 time=0
note_on channel=0 note=57 velocity=0 time=240
note_on channel=0 note=63 velocity=39 time=0
note_on channel=0 note=66 velocity=52 time=0
note_on channel=0 note=60 velocity=39 time=0
note_on channel=0 note=87 velocity=0 time=0
note_on channel=0 note=75 velocity=0 time=0
note_on channel=0 note=72 velocity=66 time=0
note_on channel=0 note=84 velocity=78 time=0
note_on channel=0 note=84 velocity=0 time=0
note_on channel=0 note=66 velocity=0 time=0
note_on channel=0 note=60 velocity=0 time=0
note_on channel=0 note=63 velocity=0 time=0
note_on channel=0 note=72 velocity=0 time=0
note_on channel=0 note=89 velocity=99 time=0
note_on channel=0 note=77 velocity=82 time=0
note_on channel=0 note=57 velocity=55 time=0
note_on channel=0 note=57 velocity=0 time=99
note_on channel=0 note=65 velocity=48 time=0
note_on channel=0 note=63 velocity=48 time=0
note_on channel=0 note=60 velocity=39 time=0
note_on channel=0 note=60 velocity=0 time=240
note_on channel=0 note=65 velocity=0 time=0
note_on channel=0 note=63 velocity=0 time=0
note_on channel=0 note=57 velocity=49 time=0
note_on channel=0 note=57 velocity=0 time=0
note_on channel=0 note=77 velocity=0 time=0
note_on channel=0 note=89 velocity=0 time=0
note_on channel=0 note=70 velocity=63 time=0
note_on channel=0 note=82 velocity=79 time=0
note_on channel=0 note=65 velocity=55 time=0
note_on channel=0 note=61 velocity=55 time=0
note_on channel=0 note=61 velocity=0 time=77
note_on channel=0 note=65 velocity=0 time=0
note_on channel=0 note=58 velocity=49 time=0
note_on channel=0 note=58 velocity=0 time=240
note_on channel=0 note=61 velocity=49 time=0
note_on channel=0 note=65 velocity=49 time=0
note_on channel=0 note=65 velocity=0 time=240
note_on channel=0 note=61 velocity=0 time=0
note_on channel=0 note=58 velocity=55 time=0
note_on channel=0 note=58 velocity=0 time=240
note_on channel=0 note=65 velocity=49 time=0
note_on channel=0 note=61 velocity=49 time=0
note_on channel=0 note=61 velocity=0 time=240
note_on channel=0 note=65 velocity=0 time=0
note_on channel=0 note=58 velocity=55 time=0
note_on channel=0 note=58 velocity=0 time=0
note_on channel=0 note=82 velocity=0 time=0
note_on channel=0 note=70 velocity=0 time=0
note_on channel=0 note=73 velocity=70 time=0
note_on channel=0 note=85 velocity=84 time=0
note_on channel=0 note=67 velocity=53 time=0
note_on channel=0 note=64 velocity=40 time=0
note_on channel=0 note=64 velocity=0 time=0
note_on channel=0 note=67 velocity=0 time=0
note_on channel=0 note=58 velocity=48 time=0
note_on channel=0 note=58 velocity=0 time=240
note_on channel=0 note=64 velocity=39 time=0
note_on channel=0 note=67 velocity=52 time=0
note_on channel=0 note=85 velocity=0 time=0
note_on channel=0 note=73 velocity=0 time=0
note_on channel=0 note=82 velocity=78 time=0
note_on channel=0 note=70 velocity=66 time=0
note_on channel=0 note=70 velocity=0 time=0
note_on channel=0 note=67 velocity=0 time=0
note_on channel=0 note=64 velocity=0 time=0
note_on channel=0 note=82 velocity=0 time=0
note_on channel=0 note=68 velocity=75 time=0
note_on channel=0 note=80 velocity=90 time=0
note_on channel=0 note=48 velocity=55 time=0
note_on channel=0 note=48 velocity=0 time=154
note_on channel=0 note=53 velocity=39 time=0
note_on channel=0 note=56 velocity=48 time=0
note_on channel=0 note=60 velocity=48 time=0
note_on channel=0 note=60 velocity=0 time=240
note_on channel=0 note=53 velocity=0 time=0
note_on channel=0 note=56 velocity=0 time=0
note_on channel=0 note=48 velocity=49 time=0
note_on channel=0 note=48 velocity=0 time=0
note_on channel=0 note=80 velocity=0 time=0
note_on channel=0 note=68 velocity=0 time=0
note_on channel=0 note=84 velocity=84 time=0
note_on channel=0 note=72 velocity=70 time=0
note_on channel=0 note=56 velocity=40 time=0
note_on channel=0 note=60 velocity=53 time=0
note_on channel=0 note=53 velocity=40 time=0
note_on channel=0 note=53 velocity=0 time=0
note_on channel=0 note=56 velocity=0 time=0
note_on channel=0 note=60 velocity=0 time=0
note_on channel=0 note=48 velocity=48 time=0
note_on channel=0 note=48 velocity=0 time=240
note_on channel=0 note=56 velocity=39 time=0
note_on channel=0 note=53 velocity=39 time=0
note_on channel=0 note=60 velocity=52 time=0
note_on channel=0 note=72 velocity=0 time=0
note_on channel=0 note=84 velocity=0 time=0
note_on channel=0 note=80 velocity=78 time=0
note_on channel=0 note=68 velocity=66 time=0
note_on channel=0 note=68 velocity=0 time=0
note_on channel=0 note=53 velocity=0 time=0
note_on channel=0 note=60 velocity=0 time=0
note_on channel=0 note=56 velocity=0 time=0
note_on channel=0 note=80 velocity=0 time=0
note_on channel=0 note=79 velocity=90 time=0
note_on channel=0 note=67 velocity=75 time=0
note_on channel=0 note=46 velocity=55 time=0
note_on channel=0 note=46 velocity=0 time=143
note_on channel=0 note=48 velocity=39 time=0
note_on channel=0 note=52 velocity=48 time=0
note_on channel=0 note=55 velocity=48 time=0
note_on channel=0 note=55 velocity=0 time=240
note_on channel=0 note=48 velocity=0 time=0
note_on channel=0 note=52 velocity=0 time=0
note_on channel=0 note=46 velocity=49 time=0
note_on channel=0 note=46 velocity=0 time=20
note_on channel=0 note=67 velocity=0 time=0
note_on channel=0 note=79 velocity=0 time=0
note_on channel=0 note=79 velocity=77 time=0
note_on channel=0 note=91 velocity=92 time=0
note_on channel=0 note=52 velocity=39 time=0
note_on channel=0 note=48 velocity=39 time=0
note_on channel=0 note=55 velocity=51 time=0
note_on channel=0 note=55 velocity=0 time=20
note_on channel=0 note=52 velocity=0 time=0
note_on channel=0 note=48 velocity=0 time=0
note_on channel=0 note=46 velocity=47 time=0
note_on channel=0 note=46 velocity=0 time=240
note_on channel=0 note=55 velocity=50 time=0
note_on channel=0 note=48 velocity=38 time=0
note_on channel=0 note=52 velocity=38 time=0
note_on channel=0 note=91 velocity=0 time=0
note_on channel=0 note=79 velocity=0 time=0
note_on channel=0 note=76 velocity=72 time=0
note_on channel=0 note=88 velocity=85 time=0
note_on channel=0 note=78 velocity=84 time=0
note_on channel=0 note=90 velocity=103 time=0
note_on channel=0 note=88 velocity=0 time=20
note_on channel=0 note=76 velocity=0 time=0
note_on channel=0 note=52 velocity=0 time=0
note_on channel=0 note=48 velocity=0 time=0
note_on channel=0 note=55 velocity=0 time=0
note_on channel=0 note=45 velocity=53 time=0
note_on channel=0 note=45 velocity=0 time=136
note_on channel=0 note=51 velocity=38 time=0
note_on channel=0 note=57 velocity=47 time=0
note_on channel=0 note=54 velocity=47 time=0
note_on channel=0 note=45 velocity=48 time=220
note_on channel=0 note=54 velocity=0 time=20
note_on channel=0 note=57 velocity=0 time=0
note_on channel=0 note=51 velocity=0 time=0
note_on channel=0 note=78 velocity=0 time=0
note_on channel=0 note=45 velocity=0 time=0
note_on channel=0 note=90 velocity=0 time=0
note_on channel=0 note=72 velocity=69 time=20
note_on channel=0 note=84 velocity=86 time=0
note_on channel=0 note=51 velocity=53 time=0
note_on channel=0 note=57 velocity=53 time=0
note_on channel=0 note=54 velocity=53 time=0
note_on channel=0 note=54 velocity=0 time=240
note_on channel=0 note=51 velocity=0 time=0
note_on channel=0 note=57 velocity=0 time=0
note_on channel=0 note=45 velocity=48 time=0
note_on channel=0 note=45 velocity=0 time=240
note_on channel=0 note=51 velocity=48 time=0
note_on channel=0 note=57 velocity=48 time=0
note_on channel=0 note=54 velocity=48 time=0
note_on channel=0 note=54 velocity=0 time=240
note_on channel=0 note=51 velocity=0 time=0
note_on channel=0 note=57 velocity=0 time=0
note_on channel=0 note=45 velocity=53 time=0
note_on channel=0 note=45 velocity=0 time=240
note_on channel=0 note=51 velocity=48 time=0
note_on channel=0 note=57 velocity=48 time=0
note_on channel=0 note=54 velocity=48 time=0
note_on channel=0 note=54 velocity=0 time=240
note_on channel=0 note=51 velocity=0 time=0
note_on channel=0 note=57 velocity=0 time=0
note_on channel=0 note=45 velocity=53 time=0
note_on channel=0 note=45 velocity=0 time=0
note_on channel=0 note=84 velocity=0 time=0
note_on channel=0 note=72 velocity=0 time=0
note_on channel=0 note=87 velocity=92 time=0
note_on channel=0 note=75 velocity=77 time=0
note_on channel=0 note=54 velocity=45 time=0
note_on channel=0 note=57 velocity=59 time=0
note_on channel=0 note=51 velocity=45 time=0
note_on channel=0 note=51 velocity=0 time=0
note_on channel=0 note=54 velocity=0 time=0
note_on channel=0 note=57 velocity=0 time=0
note_on channel=0 note=45 velocity=49 time=0
note_on channel=0 note=45 velocity=0 time=240
note_on channel=0 note=54 velocity=39 time=0
note_on channel=0 note=57 velocity=55 time=0
note_on channel=0 note=51 velocity=39 time=0
note_on channel=0 note=75 velocity=0 time=0
note_on channel=0 note=87 velocity=0 time=0
note_on channel=0 note=72 velocity=72 time=0
note_on channel=0 note=84 velocity=85 time=0
note_on channel=0 note=84 velocity=0 time=0
note_on channel=0 note=57 velocity=0 time=0
note_on channel=0 note=51 velocity=0 time=0
note_on channel=0 note=54 velocity=0 time=0
note_on channel=0 note=72 velocity=0 time=0
note_on channel=0 note=89 velocity=103 time=0
note_on channel=0 note=77 velocity=84 time=0
note_on channel=0 note=45 velocity=57 time=0
note_on channel=0 note=45 velocity=0 time=162
note_on channel=0 note=57 velocity=49 time=0
note_on channel=0 note=53 velocity=49 time=0
note_on channel=0 note=51 velocity=39 time=0
note_on channel=0 note=51 velocity=0 time=240
note_on channel=0 note=57 velocity=0 time=0
note_on channel=0 note=53 velocity=0 time=0
note_on channel=0 note=45 velocity=49 time=0
note_on channel=0 note=45 velocity=0 time=0
note_on channel=0 note=77 velocity=0 time=0
note_on channel=0 note=89 velocity=0 time=0
note_on channel=0 note=82 velocity=86 time=0
note_on channel=0 note=70 velocity=69 time=0
note_on channel=0 note=49 velocity=57 time=0
note_on channel=0 note=53 velocity=57 time=0
note_on channel=0 note=58 velocity=57 time=0
note_on channel=0 note=58 velocity=0 time=77
note_on channel=0 note=49 velocity=0 time=0
note_on channel=0 note=53 velocity=0 time=0
note_on channel=0 note=46 velocity=49 time=0
note_on channel=0 note=46 velocity=0 time=240
note_on channel=0 note=49 velocity=49 time=0
note_on channel=0 note=53 velocity=49 time=0
note_on channel=0 note=58 velocity=49 time=0
note_on channel=0 note=58 velocity=0 time=240
note_on channel=0 note=49 velocity=0 time=0
note_on channel=0 note=53 velocity=0 time=0
note_on channel=0 note=46 velocity=57 time=0
note_on channel=0 note=46 velocity=0 time=240
note_on channel=0 note=49 velocity=49 time=0
note_on channel=0 note=53 velocity=49 time=0
note_on channel=0 note=58 velocity=49 time=0
note_on channel=0 note=58 velocity=0 time=240
note_on channel=0 note=49 velocity=0 time=0
note_on channel=0 note=53 velocity=0 time=0
note_on channel=0 note=46 velocity=57 time=0
note_on channel=0 note=46 velocity=0 time=0
note_on channel=0 note=70 velocity=0 time=0
note_on channel=0 note=82 velocity=0 time=0
note_on channel=0 note=73 velocity=77 time=0
note_on channel=0 note=85 velocity=92 time=0
note_on channel=0 note=55 velocity=56 time=0
note_on channel=0 note=58 velocity=56 time=0
note_on channel=0 note=52 velocity=40 time=0
note_on channel=0 note=52 velocity=0 time=0
note_on channel=0 note=55 velocity=0 time=0
note_on channel=0 note=58 velocity=0 time=0
note_on channel=0 note=46 velocity=49 time=0
note_on channel=0 note=46 velocity=0 time=240
note_on channel=0 note=52 velocity=39 time=0
note_on channel=0 note=58 velocity=55 time=0
note_on channel=0 note=55 velocity=55 time=0
note_on channel=0 note=85 velocity=0 time=0
note_on channel=0 note=73 velocity=0 time=0
note_on channel=0 note=70 velocity=72 time=0
note_on channel=0 note=82 velocity=85 time=0
note_on channel=0 note=82 velocity=0 time=0
note_on channel=0 note=58 velocity=0 time=0
note_on channel=0 note=55 velocity=0 time=0
note_on channel=0 note=52 velocity=0 time=0
note_on channel=0 note=70 velocity=0 time=0
note_on channel=0 note=68 velocity=82 time=0
note_on channel=0 note=80 velocity=99 time=0
note_on channel=0 note=48 velocity=57 time=0
note_on channel=0 note=48 velocity=0 time=99
note_on channel=0 note=60 velocity=49 time=0
note_on channel=0 note=56 velocity=49 time=0
note_on channel=0 note=53 velocity=39 time=0
note_on channel=0 note=53 velocity=0 time=240
note_on channel=0 note=60 velocity=0 time=0
note_on channel=0 note=56 velocity=0 time=0
note_on channel=0 note=48 velocity=49 time=0
note_on channel=0 note=48 velocity=0 time=0
note_on channel=0 note=80 velocity=0 time=0
note_on channel=0 note=68 velocity=0 time=0
note_on channel=0 note=84 velocity=92 time=0
note_on channel=0 note=72 velocity=77 time=0
note_on channel=0 note=53 velocity=40 time=0
note_on channel=0 note=60 velocity=56 time=0
note_on channel=0 note=56 velocity=40 time=0
note_on channel=0 note=56 velocity=0 time=0
note_on channel=0 note=53 velocity=0 time=0
note_on channel=0 note=60 velocity=0 time=0
note_on channel=0 note=48 velocity=49 time=0
note_on channel=0 note=48 velocity=0 time=240
note_on channel=0 note=53 velocity=39 time=0
note_on channel=0 note=60 velocity=55 time=0
note_on channel=0 note=56 velocity=39 time=0
note_on channel=0 note=72 velocity=0 time=0
note_on channel=0 note=84 velocity=0 time=0
note_on channel=0 note=80 velocity=85 time=0
note_on channel=0 note=68 velocity=72 time=0
note_on channel=0 note=68 velocity=0 time=0
note_on channel=0 note=60 velocity=0 time=0
note_on channel=0 note=56 velocity=0 time=0
note_on channel=0 note=53 velocity=0 time=0
note_on channel=0 note=80 velocity=0 time=0
note_on channel=0 note=79 velocity=99 time=0
note_on channel=0 note=67 velocity=82 time=0
note_on channel=0 note=48 velocity=57 time=0
note_on channel=0 note=48 velocity=0 time=120
note_on channel=0 note=60 velocity=49 time=0
note_on channel=0 note=52 velocity=49 time=0
note_on channel=0 note=55 velocity=39 time=0
note_on channel=0 note=55 velocity=0 time=240
note_on channel=0 note=60 velocity=0 time=0
note_on channel=0 note=52 velocity=0 time=0
note_on channel=0 note=48 velocity=49 time=0
note_on channel=0 note=48 velocity=0 time=20
note_on channel=0 note=67 velocity=0 time=0
note_on channel=0 note=79 velocity=0 time=0
note_on channel=0 note=84 velocity=101 time=0
note_on channel=0 note=72 velocity=84 time=0
note_on channel=0 note=60 velocity=49 time=0
note_on channel=0 note=55 velocity=37 time=0
note_on channel=0 note=52 velocity=37 time=0
note_on channel=0 note=52 velocity=0 time=20
note_on channel=0 note=60 velocity=0 time=0
note_on channel=0 note=55 velocity=0 time=0
note_on channel=0 note=48 velocity=44 time=0
note_on channel=0 note=48 velocity=0 time=240
note_on channel=0 note=72 velocity=0 time=0
note_on channel=0 note=84 velocity=0 time=0
note_on channel=0 note=84 velocity=95 time=0
note_on channel=0 note=72 velocity=80 time=0
note_on channel=0 note=60 velocity=48 time=0
note_on channel=0 note=55 velocity=36 time=0
note_on channel=0 note=52 velocity=36 time=0
note_on channel=0 note=52 velocity=0 time=0
note_on channel=0 note=60 velocity=0 time=0
note_on channel=0 note=84 velocity=0 time=0
note_on channel=0 note=72 velocity=0 time=0
note_on channel=0 note=55 velocity=0 time=0
note_on channel=0 note=84 velocity=105 time=0
note_on channel=0 note=72 velocity=87 time=0
note_on channel=0 note=41 velocity=63 time=0
note_on channel=0 note=48 velocity=63 time=0
note_on channel=0 note=53 velocity=75 time=0
note_on channel=0 note=44 velocity=63 time=0
note_on channel=0 note=72 velocity=0 time=68
note_on channel=0 note=84 velocity=0 time=0
note_on channel=0 note=65 velocity=59 time=0
note_on channel=0 note=60 velocity=59 time=0
note_on channel=0 note=72 velocity=79 time=0
note_on channel=0 note=68 velocity=66 time=0
note_on channel=0 note=68 velocity=0 time=220
note_on channel=0 note=72 velocity=0 time=0
note_on channel=0 note=65 velocity=0 time=0
note_on channel=0 note=60 velocity=0 time=0
note_on channel=0 note=41 velocity=0 time=20
note_on channel=0 note=53 velocity=0 time=0
note_on channel=0 note=44 velocity=0 time=0
note_on channel=0 note=48 velocity=0 time=0
note_on channel=0 note=68 velocity=66 time=0
note_on channel=0 note=72 velocity=79 time=0
note_on channel=0 note=60 velocity=59 time=0
note_on channel=0 note=65 velocity=59 time=0
note_on channel=0 note=65 velocity=0 time=220
note_on channel=0 note=68 velocity=0 time=0
note_on channel=0 note=72 velocity=0 time=0
note_on channel=0 note=60 velocity=0 time=0
note_on channel=0 note=68 velocity=69 time=0
note_on channel=0 note=65 velocity=62 time=0
note_on channel=0 note=72 velocity=84 time=0
note_on channel=0 note=60 velocity=62 time=0
note_on channel=0 note=53 velocity=79 time=0
note_on channel=0 note=56 velocity=79 time=0
note_on channel=0 note=56 velocity=0 time=180
note_on channel=0 note=53 velocity=0 time=0
note_on channel=0 note=53 velocity=76 time=0
note_on channel=0 note=56 velocity=76 time=0
note_on channel=0 note=56 velocity=0 time=220
note_on channel=0 note=53 velocity=0 time=0
note_on channel=0 note=60 velocity=0 time=0
note_on channel=0 note=68 velocity=0 time=0
note_on channel=0 note=65 velocity=0 time=0
note_on channel=0 note=72 velocity=0 time=0
note_on channel=0 note=52 velocity=80 time=0
note_on channel=0 note=55 velocity=80 time=0
note_on channel=0 note=60 velocity=59 time=0
note_on channel=0 note=72 velocity=79 time=0
note_on channel=0 note=64 velocity=66 time=0
note_on channel=0 note=67 velocity=66 time=0
note_on channel=0 note=67 velocity=0 time=185
note_on channel=0 note=72 velocity=0 time=0
note_on channel=0 note=60 velocity=0 time=0
note_on channel=0 note=64 velocity=0 time=0
note_on channel=0 note=52 velocity=0 time=0
note_on channel=0 note=55 velocity=0 time=0
note_on channel=0 note=72 velocity=79 time=0
note_on channel=0 note=60 velocity=59 time=0
note_on channel=0 note=64 velocity=66 time=0
note_on channel=0 note=67 velocity=66 time=0
note_on channel=0 note=67 velocity=0 time=220
note_on channel=0 note=72 velocity=0 time=0
note_on channel=0 note=60 velocity=0 time=0
note_on channel=0 note=64 velocity=0 time=0
note_on channel=0 note=72 velocity=84 time=20
note_on channel=0 note=70 velocity=69 time=0
note_on channel=0 note=67 velocity=62 time=0
note_on channel=0 note=60 velocity=62 time=0
note_on channel=0 note=55 velocity=79 time=0
note_on channel=0 note=58 velocity=79 time=0
note_on channel=0 note=58 velocity=0 time=208
note_on channel=0 note=55 velocity=0 time=0
note_on channel=0 note=55 velocity=76 time=0
note_on channel=0 note=58 velocity=76 time=0
note_on channel=0 note=58 velocity=0 time=220
note_on channel=0 note=55 velocity=0 time=0
note_on channel=0 note=60 velocity=0 time=0
note_on channel=0 note=72 velocity=0 time=0
note_on channel=0 note=70 velocity=0 time=0
note_on channel=0 note=67 velocity=0 time=0
note_on channel=0 note=53 velocity=80 time=0
note_on channel=0 note=56 velocity=80 time=0
note_on channel=0 note=68 velocity=66 time=0
note_on channel=0 note=60 velocity=59 time=0
note_on channel=0 note=65 velocity=59 time=0
note_on channel=0 note=72 velocity=79 time=0
note_on channel=0 note=72 velocity=0 time=220
note_on channel=0 note=60 velocity=0 time=0
note_on channel=0 note=68 velocity=0 time=0
note_on channel=0 note=65 velocity=0 time=0
note_on channel=0 note=53 velocity=0 time=20
note_on channel=0 note=56 velocity=0 time=0
note_on channel=0 note=68 velocity=66 time=0
note_on channel=0 note=72 velocity=79 time=0
note_on channel=0 note=60 velocity=59 time=0
note_on channel=0 note=65 velocity=59 time=0
note_on channel=0 note=65 velocity=0 time=220
note_on channel=0 note=68 velocity=0 time=0
note_on channel=0 note=72 velocity=0 time=0
note_on channel=0 note=60 velocity=0 time=0
note_on channel=0 note=60 velocity=62 time=0
note_on channel=0 note=68 velocity=69 time=0
note_on channel=0 note=65 velocity=62 time=0
note_on channel=0 note=72 velocity=84 time=0
note_on channel=0 note=56 velocity=79 time=0
note_on channel=0 note=53 velocity=79 time=0
note_on channel=0 note=53 velocity=0 time=203
note_on channel=0 note=56 velocity=0 time=0
note_on channel=0 note=56 velocity=76 time=0
note_on channel=0 note=53 velocity=76 time=0
note_on channel=0 note=53 velocity=0 time=220
note_on channel=0 note=56 velocity=0 time=0
note_on channel=0 note=72 velocity=0 time=0
note_on channel=0 note=60 velocity=0 time=0
note_on channel=0 note=68 velocity=0 time=0
note_on channel=0 note=65 velocity=0 time=0
note_on channel=0 note=55 velocity=80 time=0
note_on channel=0 note=52 velocity=80 time=0
note_on channel=0 note=64 velocity=66 time=0
note_on channel=0 note=60 velocity=59 time=0
note_on channel=0 note=72 velocity=79 time=0
note_on channel=0 note=67 velocity=66 time=0
note_on channel=0 note=67 velocity=0 time=140
note_on channel=0 note=60 velocity=0 time=0
note_on channel=0 note=64 velocity=0 time=0
note_on channel=0 note=72 velocity=0 time=0
note_on channel=0 note=55 velocity=0 time=0
note_on channel=0 note=52 velocity=0 time=0
note_on channel=0 note=64 velocity=66 time=0
note_on channel=0 note=67 velocity=66 time=0
note_on channel=0 note=60 velocity=59 time=0
note_on channel=0 note=72 velocity=79 time=0
note_on channel=0 note=72 velocity=0 time=220
note_on channel=0 note=64 velocity=0 time=0
note_on channel=0 note=67 velocity=0 time=0
note_on channel=0 note=60 velocity=0 time=0
note_on channel=0 note=72 velocity=84 time=0
note_on channel=0 note=67 velocity=62 time=0
note_on channel=0 note=70 velocity=69 time=0
note_on channel=0 note=60 velocity=62 time=0
note_on channel=0 note=58 velocity=79 time=0
note_on channel=0 note=55 velocity=79 time=0
note_on channel=0 note=55 velocity=0 time=204
note_on channel=0 note=58 velocity=0 time=0
note_on channel=0 note=55 velocity=76 time=0
note_on channel=0 note=58 velocity=76 time=0
note_on channel=0 note=58 velocity=0 time=220
note_on channel=0 note=55 velocity=0 time=0
note_on channel=0 note=60 velocity=0 time=0
note_on channel=0 note=72 velocity=0 time=0
note_on channel=0 note=67 velocity=0 time=0
note_on channel=0 note=70 velocity=0 time=0
note_on channel=0 note=56 velocity=80 time=0
note_on channel=0 note=53 velocity=66 time=0
note_on channel=0 note=53 velocity=0 time=140
note_on channel=0 note=56 velocity=0 time=0
note_on channel=0 note=65 velocity=65 time=20
note_on channel=0 note=60 velocity=65 time=0
note_on channel=0 note=72 velocity=77 time=0
note_on channel=0 note=68 velocity=65 time=0
note_on channel=0 note=68 velocity=0 time=220
note_on channel=0 note=65 velocity=0 time=0
note_on channel=0 note=60 velocity=0 time=0
note_on channel=0 note=72 velocity=0 time=0
note_on channel=0 note=56 velocity=76 time=0
note_on channel=0 note=53 velocity=63 time=0
note_on channel=0 note=53 velocity=0 time=220
note_on channel=0 note=56 velocity=0 time=0
note_on channel=0 note=65 velocity=73 time=0
note_on channel=0 note=61 velocity=73 time=0
note_on channel=0 note=73 velocity=85 time=0
note_on channel=0 note=67 velocity=73 time=0
note_on channel=0 note=67 velocity=0 time=71
note_on channel=0 note=65 velocity=0 time=0
note_on channel=0 note=61 velocity=0 time=0
note_on channel=0 note=73 velocity=0 time=0
note_on channel=0 note=53 velocity=59 time=20
note_on channel=0 note=46 velocity=59 time=0
note_on channel=0 note=55 velocity=73 time=0
note_on channel=0 note=55 velocity=0 time=220
note_on channel=0 note=46 velocity=0 time=0
note_on channel=0 note=53 velocity=0 time=0
note_on channel=0 note=61 velocity=65 time=0
note_on channel=0 note=65 velocity=65 time=0
note_on channel=0 note=67 velocity=65 time=0
note_on channel=0 note=73 velocity=77 time=0
note_on channel=0 note=73 velocity=0 time=220
note_on channel=0 note=61 velocity=0 time=0
note_on channel=0 note=65 velocity=0 time=0
note_on channel=0 note=67 velocity=0 time=0
note_on channel=0 note=53 velocity=66 time=0
note_on channel=0 note=56 velocity=80 time=0
note_on channel=0 note=48 velocity=66 time=0
note_on channel=0 note=48 velocity=0 time=94
note_on channel=0 note=56 velocity=0 time=0
note_on channel=0 note=53 velocity=0 time=0
note_on channel=0 note=60 velocity=69 time=20
note_on channel=0 note=72 velocity=83 time=0
note_on channel=0 note=68 velocity=69 time=0
note_on channel=0 note=65 velocity=69 time=0
note_on channel=0 note=65 velocity=0 time=220
note_on channel=0 note=60 velocity=0 time=0
note_on channel=0 note=72 velocity=0 time=0
note_on channel=0 note=68 velocity=0 time=0
note_on channel=0 note=53 velocity=63 time=0
note_on channel=0 note=56 velocity=76 time=0
note_on channel=0 note=48 velocity=63 time=0
note_on channel=0 note=48 velocity=0 time=220
note_on channel=0 note=56 velocity=0 time=0
note_on channel=0 note=53 velocity=0 time=0
note_on channel=0 note=60 velocity=70 time=0
note_on channel=0 note=64 velocity=70 time=0
note_on channel=0 note=72 velocity=82 time=0
note_on channel=0 note=67 velocity=70 time=0
note_on channel=0 note=67 velocity=0 time=83
note_on channel=0 note=60 velocity=0 time=0
note_on channel=0 note=64 velocity=0 time=0
note_on channel=0 note=72 velocity=0 time=0
note_on channel=0 note=48 velocity=63 time=20
note_on channel=0 note=55 velocity=76 time=0
note_on channel=0 note=52 velocity=63 time=0
note_on channel=0 note=52 velocity=0 time=220
note_on channel=0 note=55 velocity=0 time=0
note_on channel=0 note=48 velocity=0 time=0
note_on channel=0 note=64 velocity=59 time=0
note_on channel=0 note=67 velocity=59 time=0
note_on channel=0 note=60 velocity=59 time=0
note_on channel=0 note=72 velocity=71 time=0
note_on channel=0 note=72 velocity=0 time=220
note_on channel=0 note=64 velocity=0 time=0
note_on channel=0 note=67 velocity=0 time=0
note_on channel=0 note=60 velocity=0 time=0
note_on channel=0 note=65 velocity=76 time=0
note_on channel=0 note=68 velocity=76 time=0
note_on channel=0 note=60 velocity=76 time=0
note_on channel=0 note=72 velocity=92 time=0
note_on channel=0 note=44 velocity=61 time=0
note_on channel=0 note=48 velocity=61 time=0
note_on channel=0 note=53 velocity=73 time=0
note_on channel=0 note=41 velocity=61 time=0
note_on channel=0 note=72 velocity=0 time=57
note_on channel=0 note=60 velocity=0 time=0
note_on channel=0 note=65 velocity=0 time=0
note_on channel=0 note=68 velocity=0 time=0
note_on channel=0 note=53 velocity=59 time=0
note_on channel=0 note=48 velocity=59 time=0
note_on channel=0 note=56 velocity=66 time=0
note_on channel=0 note=60 velocity=79 time=0
note_on channel=0 note=60 velocity=0 time=220
note_on channel=0 note=56 velocity=0 time=0
note_on channel=0 note=53 velocity=0 time=0
note_on channel=0 note=48 velocity=0 time=0
note_on channel=0 note=53 velocity=0 time=20
note_on channel=0 note=44 velocity=0 time=0
note_on channel=0 note=48 velocity=0 time=0
note_on channel=0 note=41 velocity=0 time=0
note_on channel=0 note=48 velocity=59 time=0
note_on channel=0 note=60 velocity=79 time=0
note_on channel=0 note=56 velocity=66 time=0
note_on channel=0 note=53 velocity=59 time=0
note_on channel=0 note=53 velocity=0 time=220
note_on channel=0 note=48 velocity=0 time=0
note_on channel=0 note=60 velocity=0 time=0
note_on channel=0 note=56 velocity=0 time=0
note_on channel=0 note=48 velocity=62 time=0
note_on channel=0 note=53 velocity=62 time=0
note_on channel=0 note=60 velocity=84 time=0
note_on channel=0 note=56 velocity=69 time=0
note_on channel=0 note=44 velocity=75 time=0
note_on channel=0 note=41 velocity=75 time=0
note_on channel=0 note=41 velocity=0 time=180
note_on channel=0 note=44 velocity=0 time=0
note_on channel=0 note=44 velocity=72 time=0
note_on channel=0 note=41 velocity=72 time=0
note_on channel=0 note=41 velocity=0 time=220
note_on channel=0 note=44 velocity=0 time=0
note_on channel=0 note=56 velocity=0 time=0
note_on channel=0 note=48 velocity=0 time=0
note_on channel=0 note=53 velocity=0 time=0
note_on channel=0 note=60 velocity=0 time=0
note_on channel=0 note=43 velocity=76 time=0
note_on channel=0 note=40 velocity=76 time=0
note_on channel=0 note=48 velocity=59 time=0
note_on channel=0 note=55 velocity=66 time=0
note_on channel=0 note=60 velocity=79 time=0
note_on channel=0 note=52 velocity=66 time=0
note_on channel=0 note=52 velocity=0 time=220
note_on channel=0 note=55 velocity=0 time=0
note_on channel=0 note=48 velocity=0 time=0
note_on channel=0 note=60 velocity=0 time=0
note_on channel=0 note=43 velocity=0 time=0
note_on channel=0 note=40 velocity=0 time=0
note_on channel=0 note=55 velocity=66 time=0
note_on channel=0 note=52 velocity=66 time=0
note_on channel=0 note=48 velocity=59 time=0
note_on channel=0 note=60 velocity=79 time=0
note_on channel=0 note=60 velocity=0 time=220
note_on channel=0 note=55 velocity=0 time=0
note_on channel=0 note=52 velocity=0 time=0
note_on channel=0 note=48 velocity=0 time=0
note_on channel=0 note=55 velocity=62 time=20
note_on channel=0 note=58 velocity=69 time=0
note_on channel=0 note=60 velocity=84 time=0
note_on channel=0 note=48 velocity=62 time=0
note_on channel=0 note=46 velocity=75 time=0
note_on channel=0 note=43 velocity=75 time=0
note_on channel=0 note=43 velocity=0 time=205
note_on channel=0 note=46 velocity=0 time=0
note_on channel=0 note=46 velocity=72 time=0
note_on channel=0 note=43 velocity=72 time=0
note_on channel=0 note=43 velocity=0 time=220
note_on channel=0 note=46 velocity=0 time=0
note_on channel=0 note=48 velocity=0 time=0
note_on channel=0 note=55 velocity=0 time=0
note_on channel=0 note=58 velocity=0 time=0
note_on channel=0 note=60 velocity=0 time=0
note_on channel=0 note=44 velocity=76 time=0
note_on channel=0 note=41 velocity=76 time=0
note_on channel=0 note=48 velocity=59 time=0
note_on channel=0 note=53 velocity=59 time=0
note_on channel=0 note=56 velocity=66 time=0
note_on channel=0 note=60 velocity=79 time=0
note_on channel=0 note=60 velocity=0 time=220
note_on channel=0 note=53 velocity=0 time=0
note_on channel=0 note=48 velocity=0 time=0
note_on channel=0 note=56 velocity=0 time=0
note_on channel=0 note=44 velocity=0 time=20
note_on channel=0 note=41 velocity=0 time=0
note_on channel=0 note=48 velocity=59 time=0
note_on channel=0 note=56 velocity=66 time=0
note_on channel=0 note=60 velocity=79 time=0
note_on channel=0 note=53 velocity=59 time=0
note_on channel=0 note=53 velocity=0 time=220
note_on channel=0 note=48 velocity=0 time=0
note_on channel=0 note=56 velocity=0 time=0
note_on channel=0 note=60 velocity=0 time=0
note_on channel=0 note=53 velocity=62 time=0
note_on channel=0 note=48 velocity=62 time=0
note_on channel=0 note=56 velocity=69 time=0
note_on channel=0 note=60 velocity=84 time=0
note_on channel=0 note=44 velocity=75 time=0
note_on channel=0 note=41 velocity=75 time=0
note_on channel=0 note=41 velocity=0 time=208
note_on channel=0 note=44 velocity=0 time=0
note_on channel=0 note=44 velocity=72 time=0
note_on channel=0 note=41 velocity=72 time=0
note_on channel=0 note=41 velocity=0 time=220
note_on channel=0 note=44 velocity=0 time=0
note_on channel=0 note=60 velocity=0 time=0
note_on channel=0 note=53 velocity=0 time=0
note_on channel=0 note=48 velocity=0 time=0
note_on channel=0 note=56 velocity=0 time=0
note_on channel=0 note=43 velocity=76 time=0
note_on channel=0 note=40 velocity=76 time=0
note_on channel=0 note=52 velocity=66 time=0
note_on channel=0 note=55 velocity=66 time=0
note_on channel=0 note=48 velocity=59 time=0
note_on channel=0 note=60 velocity=79 time=0
note_on channel=0 note=60 velocity=0 time=197
note_on channel=0 note=55 velocity=0 time=0
note_on channel=0 note=52 velocity=0 time=0
note_on channel=0 note=48 velocity=0 time=0
note_on channel=0 note=43 velocity=0 time=0
note_on channel=0 note=40 velocity=0 time=0
note_on channel=0 note=55 velocity=66 time=0
note_on channel=0 note=60 velocity=79 time=0
note_on channel=0 note=52 velocity=66 time=0
note_on channel=0 note=48 velocity=59 time=0
note_on channel=0 note=48 velocity=0 time=220
note_on channel=0 note=55 velocity=0 time=0
note_on channel=0 note=60 velocity=0 time=0
note_on channel=0 note=52 velocity=0 time=0
note_on channel=0 note=58 velocity=69 time=0
note_on channel=0 note=48 velocity=62 time=0
note_on channel=0 note=55 velocity=62 time=0
note_on channel=0 note=60 velocity=84 time=0
note_on channel=0 note=46 velocity=75 time=0
note_on channel=0 note=43 velocity=75 time=0
note_on channel=0 note=43 velocity=0 time=205
note_on channel=0 note=46 velocity=0 time=0
note_on channel=0 note=46 velocity=72 time=0
note_on channel=0 note=43 velocity=72 time=0
note_on channel=0 note=43 velocity=0 time=220
note_on channel=0 note=46 velocity=0 time=0
note_on channel=0 note=60 velocity=0 time=0
note_on channel=0 note=58 velocity=0 time=0
note_on channel=0 note=48 velocity=0 time=0
note_on channel=0 note=55 velocity=0 time=0
note_on channel=0 note=41 velocity=66 time=0
note_on channel=0 note=44 velocity=79 time=0
note_on channel=0 note=44 velocity=0 time=151
note_on channel=0 note=41 velocity=0 time=0
note_on channel=0 note=53 velocity=63 time=20
note_on channel=0 note=56 velocity=63 time=0
note_on channel=0 note=60 velocity=81 time=0
note_on channel=0 note=48 velocity=63 time=0
note_on channel=0 note=48 velocity=0 time=220
note_on channel=0 note=53 velocity=0 time=0
note_on channel=0 note=56 velocity=0 time=0
note_on channel=0 note=60 velocity=0 time=0
note_on channel=0 note=44 velocity=71 time=0
note_on channel=0 note=41 velocity=59 time=0
note_on channel=0 note=41 velocity=0 time=220
note_on channel=0 note=44 velocity=0 time=0
note_on channel=0 note=49 velocity=69 time=0
note_on channel=0 note=61 velocity=89 time=0
note_on channel=0 note=55 velocity=69 time=0
note_on channel=0 note=53 velocity=69 time=0
note_on channel=0 note=53 velocity=0 time=71
note_on channel=0 note=49 velocity=0 time=0
note_on channel=0 note=61 velocity=0 time=0
note_on channel=0 note=55 velocity=0 time=0
note_on channel=0 note=34 velocity=55 time=20
note_on channel=0 note=43 velocity=66 time=0
note_on channel=0 note=41 velocity=55 time=0
note_on channel=0 note=41 velocity=0 time=220
note_on channel=0 note=43 velocity=0 time=0
note_on channel=0 note=34 velocity=0 time=0
note_on channel=0 note=49 velocity=63 time=0
note_on channel=0 note=53 velocity=63 time=0
note_on channel=0 note=55 velocity=63 time=0
note_on channel=0 note=61 velocity=81 time=0
note_on channel=0 note=61 velocity=0 time=220
note_on channel=0 note=49 velocity=0 time=0
note_on channel=0 note=53 velocity=0 time=0
note_on channel=0 note=55 velocity=0 time=0
note_on channel=0 note=44 velocity=75 time=0
note_on channel=0 note=36 velocity=62 time=0
note_on channel=0 note=41 velocity=62 time=0
note_on channel=0 note=41 velocity=0 time=60
note_on channel=0 note=36 velocity=0 time=0
note_on channel=0 note=44 velocity=0 time=0
note_on channel=0 note=56 velocity=66 time=20
note_on channel=0 note=60 velocity=87 time=0
note_on channel=0 note=48 velocity=66 time=0
note_on channel=0 note=53 velocity=66 time=0
note_on channel=0 note=53 velocity=0 time=220
note_on channel=0 note=56 velocity=0 time=0
note_on channel=0 note=60 velocity=0 time=0
note_on channel=0 note=48 velocity=0 time=0
note_on channel=0 note=44 velocity=71 time=0
note_on channel=0 note=36 velocity=59 time=0
note_on channel=0 note=41 velocity=59 time=0
note_on channel=0 note=41 velocity=0 time=220
note_on channel=0 note=36 velocity=0 time=0
note_on channel=0 note=44 velocity=0 time=0
note_on channel=0 note=55 velocity=66 time=0
note_on channel=0 note=52 velocity=66 time=0
note_on channel=0 note=60 velocity=87 time=0
note_on channel=0 note=48 velocity=66 time=0
note_on channel=0 note=48 velocity=0 time=105
note_on channel=0 note=55 velocity=0 time=0
note_on channel=0 note=52 velocity=0 time=0
note_on channel=0 note=60 velocity=0 time=0
note_on channel=0 note=40 velocity=59 time=20
note_on channel=0 note=43 velocity=71 time=0
note_on channel=0 note=36 velocity=59 time=0
note_on channel=0 note=36 velocity=0 time=220
note_on channel=0 note=43 velocity=0 time=0
note_on channel=0 note=40 velocity=0 time=0
note_on channel=0 note=52 velocity=63 time=0
note_on channel=0 note=55 velocity=63 time=0
note_on channel=0 note=48 velocity=63 time=0
note_on channel=0 note=60 velocity=81 time=0
note_on channel=0 note=60 velocity=0 time=180
note_on channel=0 note=52 velocity=0 time=0
note_on channel=0 note=55 velocity=0 time=0
note_on channel=0 note=48 velocity=0 time=0
note_on channel=0 note=36 velocity=62 time=0
note_on channel=0 note=41 velocity=62 time=0
note_on channel=0 note=44 velocity=75 time=0
note_on channel=0 note=32 velocity=62 time=0
note_on channel=0 note=32 velocity=0 time=71
note_on channel=0 note=36 velocity=0 time=0
note_on channel=0 note=41 velocity=0 time=0
note_on channel=0 note=44 velocity=0 time=0
note_on channel=0 note=68 velocity=63 time=20
note_on channel=0 note=72 velocity=81 time=0
note_on channel=0 note=65 velocity=63 time=0
note_on channel=0 note=60 velocity=63 time=0
note_on channel=0 note=60 velocity=0 time=220
note_on channel=0 note=68 velocity=0 time=0
note_on channel=0 note=72 velocity=0 time=0
note_on channel=0 note=65 velocity=0 time=0
note_on channel=0 note=32 velocity=59 time=0
note_on channel=0 note=41 velocity=59 time=0
note_on channel=0 note=36 velocity=59 time=0
note_on channel=0 note=44 velocity=71 time=0
note_on channel=0 note=44 velocity=0 time=220
note_on channel=0 note=32 velocity=0 time=0
note_on channel=0 note=41 velocity=0 time=0
note_on channel=0 note=36 velocity=0 time=0
note_on channel=0 note=65 velocity=69 time=0
note_on channel=0 note=61 velocity=69 time=0
note_on channel=0 note=73 velocity=89 time=0
note_on channel=0 note=67 velocity=69 time=0
note_on channel=0 note=67 velocity=0 time=94
note_on channel=0 note=65 velocity=0 time=0
note_on channel=0 note=61 velocity=0 time=0
note_on channel=0 note=73 velocity=0 time=0
note_on channel=0 note=46 velocity=66 time=20
note_on channel=0 note=41 velocity=55 time=0
note_on channel=0 note=43 velocity=60 time=0
note_on channel=0 note=34 velocity=55 time=0
note_on channel=0 note=34 velocity=0 time=220
note_on channel=0 note=46 velocity=0 time=0
note_on channel=0 note=41 velocity=0 time=0
note_on channel=0 note=43 velocity=0 time=0
note_on channel=0 note=65 velocity=63 time=0
note_on channel=0 note=61 velocity=63 time=0
note_on channel=0 note=67 velocity=63 time=0
note_on channel=0 note=73 velocity=81 time=0
note_on channel=0 note=73 velocity=0 time=220
note_on channel=0 note=65 velocity=0 time=0
note_on channel=0 note=61 velocity=0 time=0
note_on channel=0 note=67 velocity=0 time=0
note_on channel=0 note=48 velocity=75 time=0
note_on channel=0 note=44 velocity=69 time=0
note_on channel=0 note=41 velocity=62 time=0
note_on channel=0 note=36 velocity=62 time=0
note_on channel=0 note=36 velocity=0 time=94
note_on channel=0 note=48 velocity=0 time=0
note_on channel=0 note=44 velocity=0 time=0
note_on channel=0 note=41 velocity=0 time=0
note_on channel=0 note=72 velocity=87 time=20
note_on channel=0 note=65 velocity=66 time=0
note_on channel=0 note=60 velocity=66 time=0
note_on channel=0 note=68 velocity=66 time=0
note_on channel=0 note=68 velocity=0 time=220
note_on channel=0 note=72 velocity=0 time=0
note_on channel=0 note=65 velocity=0 time=0
note_on channel=0 note=60 velocity=0 time=0
note_on channel=0 note=48 velocity=71 time=0
note_on channel=0 note=41 velocity=59 time=0
note_on channel=0 note=44 velocity=66 time=0
note_on channel=0 note=36 velocity=59 time=0
note_on channel=0 note=36 velocity=0 time=220
note_on channel=0 note=48 velocity=0 time=0
note_on channel=0 note=41 velocity=0 time=0
note_on channel=0 note=44 velocity=0 time=0
note_on channel=0 note=60 velocity=66 time=0
note_on channel=0 note=64 velocity=66 time=0
note_on channel=0 note=72 velocity=87 time=0
note_on channel=0 note=67 velocity=66 time=0
note_on channel=0 note=67 velocity=0 time=94
note_on channel=0 note=60 velocity=0 time=0
note_on channel=0 note=64 velocity=0 time=0
note_on channel=0 note=72 velocity=0 time=0
note_on channel=0 note=46 velocity=71 time=20
note_on channel=0 note=40 velocity=59 time=0
note_on channel=0 note=43 velocity=66 time=0
note_on channel=0 note=34 velocity=59 time=0
note_on channel=0 note=34 velocity=0 time=220
note_on channel=0 note=46 velocity=0 time=0
note_on channel=0 note=40 velocity=0 time=0
note_on channel=0 note=43 velocity=0 time=0
note_on channel=0 note=64 velocity=63 time=0
note_on channel=0 note=67 velocity=63 time=0
note_on channel=0 note=60 velocity=63 time=0
note_on channel=0 note=72 velocity=81 time=0
note_on channel=0 note=72 velocity=0 time=220
note_on channel=0 note=64 velocity=0 time=0
note_on channel=0 note=67 velocity=0 time=0
note_on channel=0 note=60 velocity=0 time=0
note_on channel=0 note=36 velocity=65 time=0
note_on channel=0 note=41 velocity=65 time=0
note_on channel=0 note=44 velocity=77 time=0
note_on channel=0 note=32 velocity=65 time=0
note_on channel=0 note=32 velocity=0 time=117
note_on channel=0 note=36 velocity=0 time=0
note_on channel=0 note=41 velocity=0 time=0
note_on channel=0 note=44 velocity=0 time=0
note_on channel=0 note=80 velocity=72 time=20
note_on channel=0 note=84 velocity=93 time=0
note_on channel=0 note=77 velocity=72 time=0
note_on channel=0 note=72 velocity=72 time=0
note_on channel=0 note=72 velocity=0 time=220
note_on channel=0 note=80 velocity=0 time=0
note_on channel=0 note=84 velocity=0 time=0
note_on channel=0 note=77 velocity=0 time=0
note_on channel=0 note=32 velocity=62 time=0
note_on channel=0 note=41 velocity=62 time=0
note_on channel=0 note=36 velocity=62 time=0
note_on channel=0 note=44 velocity=74 time=0
note_on channel=0 note=44 velocity=0 time=220
note_on channel=0 note=32 velocity=0 time=0
note_on channel=0 note=41 velocity=0 time=0
note_on channel=0 note=36 velocity=0 time=0
note_on channel=0 note=79 velocity=79 time=0
note_on channel=0 note=73 velocity=79 time=0
note_on channel=0 note=77 velocity=79 time=0
note_on channel=0 note=85 velocity=101 time=0
note_on channel=0 note=85 velocity=0 time=94
note_on channel=0 note=79 velocity=0 time=0
note_on channel=0 note=73 velocity=0 time=0
note_on channel=0 note=77 velocity=0 time=0
note_on channel=0 note=46 velocity=69 time=20
note_on channel=0 note=41 velocity=57 time=0
note_on channel=0 note=43 velocity=63 time=0
note_on channel=0 note=34 velocity=57 time=0
note_on channel=0 note=34 velocity=0 time=220
note_on channel=0 note=46 velocity=0 time=0
note_on channel=0 note=41 velocity=0 time=0
note_on channel=0 note=43 velocity=0 time=0
note_on channel=0 note=85 velocity=93 time=0
note_on channel=0 note=73 velocity=72 time=0
note_on channel=0 note=77 velocity=72 time=0
note_on channel=0 note=79 velocity=72 time=0
note_on channel=0 note=79 velocity=0 time=220
note_on channel=0 note=85 velocity=0 time=0
note_on channel=0 note=73 velocity=0 time=0
note_on channel=0 note=77 velocity=0 time=0
note_on channel=0 note=48 velocity=77 time=0
note_on channel=0 note=41 velocity=65 time=0
note_on channel=0 note=36 velocity=65 time=0
note_on channel=0 note=44 velocity=72 time=0
note_on channel=0 note=44 velocity=0 time=117
note_on channel=0 note=48 velocity=0 time=0
note_on channel=0 note=41 velocity=0 time=0
note_on channel=0 note=36 velocity=0 time=0
note_on channel=0 note=84 velocity=99 time=20
note_on channel=0 note=80 velocity=76 time=0
note_on channel=0 note=77 velocity=76 time=0
note_on channel=0 note=72 velocity=76 time=0
note_on channel=0 note=72 velocity=0 time=220
note_on channel=0 note=84 velocity=0 time=0
note_on channel=0 note=80 velocity=0 time=0
note_on channel=0 note=77 velocity=0 time=0
note_on channel=0 note=44 velocity=69 time=0
note_on channel=0 note=41 velocity=62 time=0
note_on channel=0 note=36 velocity=62 time=0
note_on channel=0 note=48 velocity=74 time=0
note_on channel=0 note=48 velocity=0 time=220
note_on channel=0 note=44 velocity=0 time=0
note_on channel=0 note=41 velocity=0 time=0
note_on channel=0 note=36 velocity=0 time=0
note_on channel=0 note=84 velocity=99 time=0
note_on channel=0 note=72 velocity=75 time=0
note_on channel=0 note=76 velocity=75 time=0
note_on channel=0 note=79 velocity=75 time=0
note_on channel=0 note=79 velocity=0 time=105
note_on channel=0 note=84 velocity=0 time=0
note_on channel=0 note=72 velocity=0 time=0
note_on channel=0 note=76 velocity=0 time=0
note_on channel=0 note=36 velocity=62 time=20
note_on channel=0 note=48 velocity=74 time=0
note_on channel=0 note=43 velocity=69 time=0
note_on channel=0 note=40 velocity=62 time=0
note_on channel=0 note=40 velocity=0 time=220
note_on channel=0 note=36 velocity=0 time=0
note_on channel=0 note=48 velocity=0 time=0
note_on channel=0 note=43 velocity=0 time=0
note_on channel=0 note=84 velocity=93 time=0
note_on channel=0 note=76 velocity=72 time=0
note_on channel=0 note=72 velocity=72 time=0
note_on channel=0 note=79 velocity=72 time=0
note_on channel=0 note=79 velocity=0 time=220
note_on channel=0 note=84 velocity=0 time=0
note_on channel=0 note=76 velocity=0 time=0
note_on channel=0 note=72 velocity=0 time=0
note_on channel=0 note=60 velocity=64 time=0
note_on channel=0 note=29 velocity=82 time=0
note_on channel=0 note=41 velocity=110 time=0
note_on channel=0 note=60 velocity=0 time=35
note_on channel=0 note=56 velocity=55 time=0
note_on channel=0 note=56 velocity=0 time=120
note_on channel=0 note=60 velocity=59 time=0
note_on channel=0 note=60 velocity=0 time=120
note_on channel=0 note=56 velocity=50 time=0
note_on channel=0 note=56 velocity=0 time=120
note_on channel=0 note=41 velocity=0 time=0
note_on channel=0 note=29 velocity=0 time=0
note_on channel=0 note=60 velocity=55 time=0
note_on channel=0 note=60 velocity=0 time=120
note_on channel=0 note=56 velocity=48 time=0
note_on channel=0 note=56 velocity=0 time=120
note_on channel=0 note=60 velocity=43 time=0
note_on channel=0 note=68 velocity=62 time=0
note_on channel=0 note=60 velocity=0 time=120
note_on channel=0 note=56 velocity=37 time=0
note_on channel=0 note=56 velocity=0 time=120
note_on channel=0 note=60 velocity=43 time=0
note_on channel=0 note=60 velocity=0 time=106
note_on channel=0 note=56 velocity=37 time=0
note_on channel=0 note=56 velocity=0 time=120
note_on channel=0 note=60 velocity=43 time=0
note_on channel=0 note=60 velocity=0 time=120
note_on channel=0 note=68 velocity=0 time=0
note_on channel=0 note=56 velocity=36 time=0
note_on channel=0 note=72 velocity=54 time=0
note_on channel=0 note=72 velocity=0 time=0
note_on channel=0 note=56 velocity=0 time=0
note_on channel=0 note=60 velocity=43 time=0
note_on channel=0 note=77 velocity=59 time=0
note_on channel=0 note=60 velocity=0 time=106
note_on channel=0 note=56 velocity=36 time=0
note_on channel=0 note=56 velocity=0 time=120
note_on channel=0 note=60 velocity=42 time=0
note_on channel=0 note=60 velocity=0 time=120
note_on channel=0 note=56 velocity=36 time=0
note_on channel=0 note=56 velocity=0 time=120
note_on channel=0 note=60 velocity=42 time=0
note_on channel=0 note=60 velocity=0 time=120
note_on channel=0 note=56 velocity=35 time=0
note_on channel=0 note=56 velocity=0 time=120
note_on channel=0 note=77 velocity=0 time=0
note_on channel=0 note=60 velocity=42 time=0
note_on channel=0 note=80 velocity=60 time=0
note_on channel=0 note=60 velocity=0 time=120
note_on channel=0 note=56 velocity=35 time=0
note_on channel=0 note=56 velocity=0 time=120
note_on channel=0 note=60 velocity=41 time=0
note_on channel=0 note=60 velocity=0 time=106
note_on channel=0 note=56 velocity=35 time=0
note_on channel=0 note=56 velocity=0 time=120
note_on channel=0 note=60 velocity=41 time=0
note_on channel=0 note=60 velocity=0 time=120
note_on channel=0 note=80 velocity=0 time=0
note_on channel=0 note=56 velocity=35 time=0
note_on channel=0 note=84 velocity=52 time=0
note_on channel=0 note=84 velocity=0 time=106
note_on channel=0 note=56 velocity=0 time=0
note_on channel=0 note=60 velocity=41 time=0
note_on channel=0 note=89 velocity=56 time=0
note_on channel=0 note=60 velocity=0 time=106
note_on channel=0 note=56 velocity=35 time=0
note_on channel=0 note=56 velocity=0 time=120
note_on channel=0 note=60 velocity=41 time=0
note_on channel=0 note=60 velocity=0 time=120
note_on channel=0 note=56 velocity=34 time=0
note_on channel=0 note=56 velocity=0 time=120
note_on channel=0 note=60 velocity=40 time=0
note_on channel=0 note=60 velocity=0 time=120
note_on channel=0 note=56 velocity=34 time=0
note_on channel=0 note=56 velocity=0 time=120
note_on channel=0 note=89 velocity=0 time=0
note_on channel=0 note=60 velocity=40 time=0
note_on channel=0 note=84 velocity=58 time=0
note_on channel=0 note=60 velocity=0 time=120
note_on channel=0 note=56 velocity=34 time=0
note_on channel=0 note=56 velocity=0 time=120
note_on channel=0 note=60 velocity=40 time=0
note_on channel=0 note=60 velocity=0 time=106
note_on channel=0 note=56 velocity=33 time=0
note_on channel=0 note=56 velocity=0 time=120
note_on channel=0 note=60 velocity=40 time=0
note_on channel=0 note=60 velocity=0 time=120
note_on channel=0 note=84 velocity=0 time=0
note_on channel=0 note=56 velocity=33 time=0
note_on channel=0 note=80 velocity=50 time=0
note_on channel=0 note=80 velocity=0 time=106
note_on channel=0 note=56 velocity=0 time=0
note_on channel=0 note=60 velocity=40 time=0
note_on channel=0 note=77 velocity=54 time=0
note_on channel=0 note=60 velocity=0 time=106
note_on channel=0 note=56 velocity=33 time=0
note_on channel=0 note=56 velocity=0 time=120
note_on channel=0 note=60 velocity=39 time=0
note_on channel=0 note=60 velocity=0 time=120
note_on channel=0 note=56 velocity=33 time=0
note_on channel=0 note=56 velocity=0 time=120
note_on channel=0 note=60 velocity=39 time=0
note_on channel=0 note=60 velocity=0 time=120
note_on channel=0 note=56 velocity=33 time=0
note_on channel=0 note=56 velocity=0 time=120
note_on channel=0 note=77 velocity=0 time=0
note_on channel=0 note=60 velocity=39 time=0
note_on channel=0 note=72 velocity=56 time=0
note_on channel=0 note=60 velocity=0 time=120
note_on channel=0 note=56 velocity=32 time=0
note_on channel=0 note=56 velocity=0 time=120
note_on channel=0 note=60 velocity=38 time=0
note_on channel=0 note=60 velocity=0 time=106
note_on channel=0 note=56 velocity=32 time=0
note_on channel=0 note=56 velocity=0 time=120
note_on channel=0 note=60 velocity=38 time=0
note_on channel=0 note=60 velocity=0 time=120
note_on channel=0 note=72 velocity=0 time=0
note_on channel=0 note=56 velocity=32 time=0
note_on channel=0 note=68 velocity=48 time=0
note_on channel=0 note=68 velocity=0 time=0
note_on channel=0 note=56 velocity=0 time=0
note_on channel=0 note=60 velocity=38 time=0
note_on channel=0 note=65 velocity=52 time=0
note_on channel=0 note=60 velocity=0 time=120
note_on channel=0 note=56 velocity=32 time=0
note_on channel=0 note=56 velocity=0 time=120
note_on channel=0 note=60 velocity=37 time=0
note_on channel=0 note=60 velocity=0 time=120
note_on channel=0 note=56 velocity=31 time=0
note_on channel=0 note=56 velocity=0 time=120
note_on channel=0 note=60 velocity=37 time=0
note_on channel=0 note=60 velocity=0 time=120
note_on channel=0 note=56 velocity=31 time=0
note_on channel=0 note=56 velocity=0 time=120
note_on channel=0 note=65 velocity=0 time=0
note_on channel=0 note=72 velocity=37 time=0
note_on channel=0 note=60 velocity=47 time=0
note_on channel=0 note=72 velocity=0 time=120
note_on channel=0 note=68 velocity=31 time=0
note_on channel=0 note=68 velocity=0 time=120
note_on channel=0 note=72 velocity=37 time=0
note_on channel=0 note=72 velocity=0 time=106
note_on channel=0 note=68 velocity=31 time=0
note_on channel=0 note=68 velocity=0 time=120
note_on channel=0 note=72 velocity=36 time=0
note_on channel=0 note=72 velocity=0 time=120
note_on channel=0 note=60 velocity=0 time=0
note_on channel=0 note=68 velocity=31 time=0
note_on channel=0 note=56 velocity=41 time=0
note_on channel=0 note=56 velocity=0 time=0
note_on channel=0 note=68 velocity=0 time=0
note_on channel=0 note=72 velocity=36 time=0
note_on channel=0 note=53 velocity=44 time=0
note_on channel=0 note=72 velocity=0 time=120
note_on channel=0 note=68 velocity=30 time=0
note_on channel=0 note=68 velocity=0 time=120
note_on channel=0 note=72 velocity=36 time=0
note_on channel=0 note=72 velocity=0 time=120
note_on channel=0 note=68 velocity=30 time=0
note_on channel=0 note=68 velocity=0 time=120
note_on channel=0 note=72 velocity=35 time=0
note_on channel=0 note=72 velocity=0 time=120
note_on channel=0 note=68 velocity=30 time=0
note_on channel=0 note=68 velocity=0 time=120
note_on channel=0 note=53 velocity=0 time=0
note_on channel=0 note=72 velocity=35 time=0
note_on channel=0 note=48 velocity=45 time=0
note_on channel=0 note=72 velocity=0 time=120
note_on channel=0 note=68 velocity=30 time=0
note_on channel=0 note=68 velocity=0 time=0
note_on channel=0 note=72 velocity=35 time=0
note_on channel=0 note=72 velocity=0 time=120
note_on channel=0 note=68 velocity=30 time=0
note_on channel=0 note=68 velocity=0 time=120
note_on channel=0 note=72 velocity=34 time=0
note_on channel=0 note=72 velocity=0 time=120
note_on channel=0 note=48 velocity=0 time=0
note_on channel=0 note=68 velocity=29 time=0
note_on channel=0 note=44 velocity=39 time=0
note_on channel=0 note=44 velocity=0 time=0
note_on channel=0 note=68 velocity=0 time=0
note_on channel=0 note=72 velocity=34 time=0
note_on channel=0 note=41 velocity=42 time=0
note_on channel=0 note=72 velocity=0 time=120
note_on channel=0 note=68 velocity=29 time=0
note_on channel=0 note=68 velocity=0 time=120
note_on channel=0 note=72 velocity=34 time=0
note_on channel=0 note=72 velocity=0 time=120
note_on channel=0 note=68 velocity=28 time=0
note_on channel=0 note=68 velocity=0 time=120
note_on channel=0 note=72 velocity=33 time=0
note_on channel=0 note=72 velocity=0 time=120
note_on channel=0 note=68 velocity=27 time=0
note_on channel=0 note=68 velocity=0 time=120
note_on channel=0 note=41 velocity=0 time=0
note_on channel=0 note=72 velocity=33 time=0
note_on channel=0 note=36 velocity=38 time=0
note_on channel=0 note=72 velocity=0 time=120
note_on channel=0 note=68 velocity=27 time=0
note_on channel=0 note=68 velocity=0 time=0
note_on channel=0 note=72 velocity=32 time=0
note_on channel=0 note=72 velocity=0 time=120
note_on channel=0 note=68 velocity=27 time=0
note_on channel=0 note=68 velocity=0 time=120
note_on channel=0 note=72 velocity=31 time=0
note_on channel=0 note=72 velocity=0 time=120
note_on channel=0 note=36 velocity=0 time=0
note_on channel=0 note=68 velocity=26 time=0
note_on channel=0 note=32 velocity=27 time=0
note_on channel=0 note=32 velocity=0 time=0
note_on channel=0 note=68 velocity=0 time=0
note_on channel=0 note=72 velocity=31 time=0
note_on channel=0 note=29 velocity=28 time=0
note_on channel=0 note=72 velocity=0 time=120
note_on channel=0 note=68 velocity=26 time=0
note_on channel=0 note=68 velocity=0 time=120
note_on channel=0 note=72 velocity=31 time=0
note_on channel=0 note=72 velocity=0 time=120
note_on channel=0 note=68 velocity=25 time=0
note_on channel=0 note=68 velocity=0 time=120
note_on channel=0 note=72 velocity=30 time=0
note_on channel=0 note=72 velocity=0 time=120
note_on channel=0 note=68 velocity=25 time=0
note_on channel=0 note=68 velocity=0 time=120
note_on channel=0 note=29 velocity=0 time=0
note_on channel=0 note=72 velocity=29 time=0
note_on channel=0 note=29 velocity=27 time=0
note_on channel=0 note=72 velocity=0 time=120
note_on channel=0 note=68 velocity=25 time=0
note_on channel=0 note=68 velocity=0 time=120
note_on channel=0 note=72 velocity=29 time=0
note_on channel=0 note=72 velocity=0 time=120
note_on channel=0 note=68 velocity=24 time=0
note_on channel=0 note=68 velocity=0 time=120
note_on channel=0 note=72 velocity=29 time=0
note_on channel=0 note=72 velocity=0 time=120
note_on channel=0 note=68 velocity=24 time=0
note_on channel=0 note=68 velocity=0 time=40
note_on channel=0 note=29 velocity=0 time=0
note_on channel=0 note=72 velocity=28 time=0
note_on channel=0 note=29 velocity=27 time=0
note_on channel=0 note=72 velocity=0 time=26
note_on channel=0 note=68 velocity=23 time=0
note_on channel=0 note=68 velocity=0 time=11
note_on channel=0 note=72 velocity=27 time=0
note_on channel=0 note=72 velocity=0 time=16
note_on channel=0 note=68 velocity=23 time=0
note_on channel=0 note=68 velocity=0 time=2
note_on channel=0 note=72 velocity=26 time=0
note_on channel=0 note=72 velocity=0 time=7
note_on channel=0 note=68 velocity=22 time=0
note_on channel=0 note=68 velocity=0 time=31
note_on channel=0 note=72 velocity=26 time=0
note_on channel=0 note=72 velocity=0 time=35
note_on channel=0 note=68 velocity=22 time=0
note_on channel=0 note=68 velocity=0 time=21
note_on channel=0 note=72 velocity=25 time=0
note_on channel=0 note=72 velocity=0 time=7
note_on channel=0 note=68 velocity=21 time=0
note_on channel=0 note=68 velocity=0 time=11
note_on channel=0 note=72 velocity=24 time=0
note_on channel=0 note=72 velocity=0 time=35
note_on channel=0 note=68 velocity=20 time=0
note_on channel=0 note=68 velocity=0 time=2
note_on channel=0 note=29 velocity=0 time=0
note_on channel=0 note=72 velocity=23 time=0
note_on channel=0 note=29 velocity=19 time=0
note_on channel=0 note=72 velocity=0 time=7
note_on channel=0 note=68 velocity=20 time=0
note_on channel=0 note=68 velocity=0 time=11
note_on channel=0 note=72 velocity=23 time=0
note_on channel=0 note=72 velocity=0 time=16
note_on channel=0 note=68 velocity=19 time=0
note_on channel=0 note=68 velocity=0 time=2
note_on channel=0 note=72 velocity=22 time=0
note_on channel=0 note=72 velocity=0 time=7
note_on channel=0 note=68 velocity=18 time=0
note_on channel=0 note=68 velocity=0 time=11
note_on channel=0 note=72 velocity=21 time=0
note_on channel=0 note=72 velocity=0 time=16
note_on channel=0 note=68 velocity=18 time=0
note_on channel=0 note=68 velocity=0 time=2
note_on channel=0 note=72 velocity=21 time=0
note_on channel=0 note=72 velocity=0 time=7
note_on channel=0 note=68 velocity=17 time=0
note_on channel=0 note=68 velocity=0 time=11
note_on channel=0 note=72 velocity=20 time=0
note_on channel=0 note=72 velocity=0 time=0
note_on channel=0 note=68 velocity=17 time=0
note_on channel=0 note=68 velocity=0 time=0
note_on channel=0 note=29 velocity=0 time=0
note_on channel=0 note=72 velocity=18 time=0
note_on channel=0 note=68 velocity=15 time=0
note_on channel=0 note=29 velocity=12 time=0
note_on channel=0 note=29 velocity=0 time=0
note_on channel=0 note=68 velocity=0 time=0
note_on channel=0 note=72 velocity=0 time=0
