control_change channel=0 control=7 value=100 time=0
control_change channel=0 control=10 value=64 time=0
note_on channel=0 note=64 velocity=89 time=0
note_on channel=0 note=73 velocity=105 time=0
control_change channel=0 control=91 value=127 time=0
control_change channel=0 control=7 value=100 time=0
control_change channel=0 control=10 value=64 time=0
note_on channel=0 note=46 velocity=71 time=0
note_on channel=0 note=55 velocity=84 time=0
control_change channel=0 control=64 value=127 time=36
note_on channel=0 note=55 velocity=0 time=677
note_on channel=0 note=64 velocity=0 time=0
note_on channel=0 note=73 velocity=0 time=0
note_on channel=0 note=46 velocity=0 time=0
note_on channel=0 note=64 velocity=82 time=7
note_on channel=0 note=73 velocity=97 time=0
note_on channel=0 note=55 velocity=77 time=0
note_on channel=0 note=46 velocity=65 time=0
note_on channel=0 note=46 velocity=0 time=238
note_on channel=0 note=64 velocity=0 time=0
note_on channel=0 note=73 velocity=0 time=0
note_on channel=0 note=55 velocity=0 time=0
note_on channel=0 note=73 velocity=105 time=2
note_on channel=0 note=64 velocity=89 time=0
note_on channel=0 note=46 velocity=71 time=0
note_on channel=0 note=55 velocity=84 time=0
note_on channel=0 note=55 velocity=0 time=713
note_on channel=0 note=73 velocity=0 time=0
note_on channel=0 note=64 velocity=0 time=0
note_on channel=0 note=46 velocity=0 time=0
note_on channel=0 note=64 velocity=82 time=7
note_on channel=0 note=73 velocity=98 time=0
note_on channel=0 note=55 velocity=76 time=0
note_on channel=0 note=46 velocity=65 time=0
note_on channel=0 note=46 velocity=0 time=238
note_on channel=0 note=64 velocity=0 time=0
note_on channel=0 note=73 velocity=0 time=0
note_on channel=0 note=55 velocity=0 time=0
note_on channel=0 note=64 velocity=89 time=2
note_on channel=0 note=73 velocity=105 time=0
note_on channel=0 note=46 velocity=71 time=0
note_on channel=0 note=55 velocity=84 time=0
note_on channel=0 note=55 velocity=0 time=357
note_on channel=0 note=64 velocity=0 time=0
note_on channel=0 note=73 velocity=0 time=0
note_on channel=0 note=46 velocity=0 time=0
note_on channel=0 note=73 velocity=97 time=3
note_on channel=0 note=64 velocity=82 time=0
note_on channel=0 note=55 velocity=77 time=0
note_on channel=0 note=46 velocity=65 time=0
note_on channel=0 note=46 velocity=0 time=119
note_on channel=0 note=73 velocity=0 time=0
note_on channel=0 note=64 velocity=0 time=0
note_on channel=0 note=55 velocity=0 time=0
note_on channel=0 note=64 velocity=89 time=1
note_on channel=0 note=73 velocity=105 time=0
note_on channel=0 note=46 velocity=71 time=0
note_on channel=0 note=55 velocity=84 time=0
note_on channel=0 note=55 velocity=0 time=357
note_on channel=0 note=64 velocity=0 time=0
note_on channel=0 note=73 velocity=0 time=0
note_on channel=0 note=46 velocity=0 time=0
note_on channel=0 note=64 velocity=81 time=3
note_on channel=0 note=73 velocity=96 time=0
note_on channel=0 note=46 velocity=65 time=0
note_on channel=0 note=55 velocity=76 time=0
note_on channel=0 note=55 velocity=0 time=119
note_on channel=0 note=64 velocity=0 time=0
note_on channel=0 note=73 velocity=0 time=0
note_on channel=0 note=46 velocity=0 time=0
note_on channel=0 note=73 velocity=105 time=1
note_on channel=0 note=64 velocity=89 time=0
note_on channel=0 note=55 velocity=84 time=0
note_on channel=0 note=46 velocity=71 time=0
note_on channel=0 note=46 velocity=0 time=357
note_on channel=0 note=73 velocity=0 time=0
note_on channel=0 note=64 velocity=0 time=0
note_on channel=0 note=55 velocity=0 time=0
note_on channel=0 note=64 velocity=82 time=3
note_on channel=0 note=73 velocity=97 time=0
note_on channel=0 note=46 velocity=64 time=0
note_on channel=0 note=55 velocity=75 time=0
note_on channel=0 note=55 velocity=0 time=119
note_on channel=0 note=64 velocity=0 time=0
note_on channel=0 note=73 velocity=0 time=0
note_on channel=0 note=46 velocity=0 time=0
note_on channel=0 note=73 velocity=105 time=1
note_on channel=0 note=64 velocity=89 time=0
note_on channel=0 note=55 velocity=84 time=0
note_on channel=0 note=46 velocity=71 time=0
note_on channel=0 note=46 velocity=0 time=357
note_on channel=0 note=73 velocity=0 time=0
note_on channel=0 note=64 velocity=0 time=0
note_on channel=0 note=55 velocity=0 time=0
note_on channel=0 note=64 velocity=82 time=3
note_on channel=0 note=73 velocity=97 time=0
note_on channel=0 note=46 velocity=64 time=0
note_on channel=0 note=55 velocity=75 time=0
note_on channel=0 note=55 velocity=0 time=119
note_on channel=0 note=64 velocity=0 time=0
note_on channel=0 note=73 velocity=0 time=0
note_on channel=0 note=46 velocity=0 time=0
note_on channel=0 note=64 velocity=89 time=1
note_on channel=0 note=73 velocity=105 time=0
note_on channel=0 note=55 velocity=84 time=0
note_on channel=0 note=46 velocity=71 time=0
control_change channel=0 control=64 value=0 time=325
note_on channel=0 note=46 velocity=0 time=0
note_on channel=0 note=64 velocity=0 time=0
note_on channel=0 note=73 velocity=0 time=0
note_on channel=0 note=55 velocity=0 time=0
note_on channel=0 note=85 velocity=50 time=240
note_on channel=0 note=85 velocity=0 time=120
note_on channel=0 note=84 velocity=50 time=0
note_on channel=0 note=84 velocity=0 time=120
note_on channel=0 note=82 velocity=54 time=0
note_on channel=0 note=82 velocity=0 time=120
note_on channel=0 note=84 velocity=50 time=0
note_on channel=0 note=84 velocity=0 time=120
note_on channel=0 note=82 velocity=50 time=0
note_on channel=0 note=82 velocity=0 time=120
note_on channel=0 note=80 velocity=50 time=0
note_on channel=0 note=80 velocity=0 time=120
note_on channel=0 note=79 velocity=54 time=0
note_on channel=0 note=79 velocity=0 time=120
note_on channel=0 note=80 velocity=50 time=0
note_on channel=0 note=80 velocity=0 time=120
note_on channel=0 note=79 velocity=50 time=0
note_on channel=0 note=79 velocity=0 time=120
note_on channel=0 note=77 velocity=50 time=0
note_on channel=0 note=77 velocity=0 time=0
note_on channel=0 note=76 velocity=54 time=0
note_on channel=0 note=76 velocity=0 time=0
note_on channel=0 note=73 velocity=50 time=240
note_on channel=0 note=73 velocity=0 time=120
note_on channel=0 note=72 velocity=50 time=0
note_on channel=0 note=72 velocity=0 time=120
note_on channel=0 note=70 velocity=53 time=0
note_on channel=0 note=70 velocity=0 time=120
note_on channel=0 note=72 velocity=50 time=0
note_on channel=0 note=72 velocity=0 time=120
note_on channel=0 note=70 velocity=50 time=0
note_on channel=0 note=70 velocity=0 time=120
note_on channel=0 note=68 velocity=50 time=0
note_on channel=0 note=68 velocity=0 time=120
note_on channel=0 note=67 velocity=53 time=0
note_on channel=0 note=67 velocity=0 time=120
note_on channel=0 note=68 velocity=50 time=0
note_on channel=0 note=68 velocity=0 time=120
note_on channel=0 note=67 velocity=50 time=0
note_on channel=0 note=67 velocity=0 time=120
note_on channel=0 note=65 velocity=50 time=0
note_on channel=0 note=65 velocity=0 time=0
note_on channel=0 note=64 velocity=52 time=0
note_on channel=0 note=64 velocity=0 time=0
note_on channel=0 note=73 velocity=50 time=240
note_on channel=0 note=73 velocity=0 time=120
note_on channel=0 note=72 velocity=50 time=0
note_on channel=0 note=72 velocity=0 time=0
note_on channel=0 note=70 velocity=51 time=0
note_on channel=0 note=70 velocity=0 time=120
note_on channel=0 note=72 velocity=51 time=0
note_on channel=0 note=72 velocity=0 time=120
note_on channel=0 note=70 velocity=52 time=0
note_on channel=0 note=70 velocity=0 time=120
note_on channel=0 note=68 velocity=52 time=0
note_on channel=0 note=68 velocity=0 time=0
note_on channel=0 note=67 velocity=53 time=0
note_on channel=0 note=67 velocity=0 time=120
note_on channel=0 note=68 velocity=54 time=0
note_on channel=0 note=68 velocity=0 time=120
note_on channel=0 note=67 velocity=54 time=0
note_on channel=0 note=67 velocity=0 time=120
note_on channel=0 note=65 velocity=55 time=0
note_on channel=0 note=65 velocity=0 time=0
note_on channel=0 note=64 velocity=55 time=0
note_on channel=0 note=64 velocity=0 time=120
note_on channel=0 note=65 velocity=56 time=0
note_on channel=0 note=65 velocity=0 time=120
note_on channel=0 note=64 velocity=57 time=0
note_on channel=0 note=64 velocity=0 time=120
note_on channel=0 note=61 velocity=57 time=0
note_on channel=0 note=61 velocity=0 time=0
note_on channel=0 note=60 velocity=58 time=0
note_on channel=0 note=60 velocity=0 time=120
note_on channel=0 note=61 velocity=61 time=0
note_on channel=0 note=61 velocity=0 time=120
note_on channel=0 note=60 velocity=62 time=0
note_on channel=0 note=60 velocity=0 time=120
note_on channel=0 note=59 velocity=63 time=0
note_on channel=0 note=59 velocity=0 time=0
note_on channel=0 note=58 velocity=64 time=0
note_on channel=0 note=58 velocity=0 time=80
note_on channel=0 note=60 velocity=65 time=0
note_on channel=0 note=60 velocity=0 time=0
note_on channel=0 note=58 velocity=66 time=0
note_on channel=0 note=58 velocity=0 time=120
note_on channel=0 note=56 velocity=67 time=0
note_on channel=0 note=56 velocity=0 time=40
note_on channel=0 note=55 velocity=68 time=0
note_on channel=0 note=55 velocity=0 time=0
note_on channel=0 note=56 velocity=69 time=0
note_on channel=0 note=56 velocity=0 time=120
note_on channel=0 note=55 velocity=70 time=0
note_on channel=0 note=55 velocity=0 time=40
note_on channel=0 note=53 velocity=71 time=0
note_on channel=0 note=53 velocity=0 time=120
note_on channel=0 note=52 velocity=73 time=0
note_on channel=0 note=52 velocity=0 time=80
note_on channel=0 note=53 velocity=71 time=0
note_on channel=0 note=53 velocity=0 time=40
note_on channel=0 note=52 velocity=72 time=0
note_on channel=0 note=52 velocity=0 time=120
note_on channel=0 note=49 velocity=71 time=0
note_on channel=0 note=49 velocity=0 time=80
note_on channel=0 note=48 velocity=75 time=0
note_on channel=0 note=36 velocity=60 time=0
note_on channel=0 note=49 velocity=75 time=0
note_on channel=0 note=37 velocity=60 time=0
note_on channel=0 note=36 velocity=0 time=10
note_on channel=0 note=48 velocity=0 time=0
note_on channel=0 note=48 velocity=75 time=110
note_on channel=0 note=36 velocity=60 time=0
note_on channel=0 note=49 velocity=0 time=10
note_on channel=0 note=37 velocity=0 time=0
note_on channel=0 note=47 velocity=75 time=0
note_on channel=0 note=35 velocity=60 time=0
note_on channel=0 note=48 velocity=0 time=10
note_on channel=0 note=36 velocity=0 time=0
note_on channel=0 note=48 velocity=75 time=0
note_on channel=0 note=36 velocity=60 time=0
note_on channel=0 note=47 velocity=0 time=10
note_on channel=0 note=35 velocity=0 time=0
note_on channel=0 note=49 velocity=75 time=0
note_on channel=0 note=37 velocity=60 time=0
note_on channel=0 note=48 velocity=0 time=10
note_on channel=0 note=36 velocity=0 time=0
note_on channel=0 note=48 velocity=75 time=0
note_on channel=0 note=36 velocity=60 time=0
note_on channel=0 note=49 velocity=0 time=10
note_on channel=0 note=37 velocity=0 time=0
note_on channel=0 note=47 velocity=75 time=28
note_on channel=0 note=35 velocity=60 time=0
note_on channel=0 note=48 velocity=0 time=10
note_on channel=0 note=36 velocity=0 time=0
note_on channel=0 note=48 velocity=75 time=0
note_on channel=0 note=36 velocity=60 time=0
note_on channel=0 note=47 velocity=0 time=10
note_on channel=0 note=35 velocity=0 time=0
note_on channel=0 note=49 velocity=75 time=28
note_on channel=0 note=37 velocity=60 time=0
note_on channel=0 note=48 velocity=0 time=10
note_on channel=0 note=36 velocity=0 time=0
note_on channel=0 note=48 velocity=75 time=0
note_on channel=0 note=36 velocity=60 time=0
note_on channel=0 note=49 velocity=0 time=10
note_on channel=0 note=37 velocity=0 time=0
note_on channel=0 note=47 velocity=75 time=80
note_on channel=0 note=35 velocity=60 time=0
note_on channel=0 note=48 velocity=0 time=10
note_on channel=0 note=36 velocity=0 time=0
note_on channel=0 note=48 velocity=75 time=0
note_on channel=0 note=36 velocity=60 time=0
note_on channel=0 note=47 velocity=0 time=10
note_on channel=0 note=35 velocity=0 time=0
note_on channel=0 note=49 velocity=75 time=0
note_on channel=0 note=37 velocity=60 time=0
note_on channel=0 note=48 velocity=0 time=10
note_on channel=0 note=36 velocity=0 time=0
note_on channel=0 note=48 velocity=75 time=16
note_on channel=0 note=36 velocity=60 time=0
note_on channel=0 note=49 velocity=0 time=10
note_on channel=0 note=37 velocity=0 time=0
note_on channel=0 note=47 velocity=75 time=28
note_on channel=0 note=35 velocity=60 time=0
note_on channel=0 note=48 velocity=0 time=10
note_on channel=0 note=36 velocity=0 time=0
note_on channel=0 note=48 velocity=75 time=0
note_on channel=0 note=36 velocity=60 time=0
note_on channel=0 note=47 velocity=0 time=10
note_on channel=0 note=35 velocity=0 time=0
note_on channel=0 note=49 velocity=75 time=0
note_on channel=0 note=37 velocity=60 time=0
note_on channel=0 note=48 velocity=0 time=10
note_on channel=0 note=36 velocity=0 time=0
note_on channel=0 note=48 velocity=75 time=0
note_on channel=0 note=36 velocity=60 time=0
note_on channel=0 note=49 velocity=0 time=10
note_on channel=0 note=37 velocity=0 time=0
note_on channel=0 note=47 velocity=75 time=0
note_on channel=0 note=35 velocity=60 time=0
note_on channel=0 note=48 velocity=0 time=10
note_on channel=0 note=36 velocity=0 time=0
note_on channel=0 note=46 velocity=74 time=0
note_on channel=0 note=34 velocity=57 time=0
note_on channel=0 note=47 velocity=0 time=10
note_on channel=0 note=35 velocity=0 time=0
note_on channel=0 note=48 velocity=74 time=0
note_on channel=0 note=36 velocity=57 time=0
note_on channel=0 note=46 velocity=0 time=10
note_on channel=0 note=34 velocity=0 time=0
note_on channel=0 note=46 velocity=74 time=0
note_on channel=0 note=34 velocity=57 time=0
note_on channel=0 note=48 velocity=0 time=10
note_on channel=0 note=36 velocity=0 time=0
note_on channel=0 note=45 velocity=74 time=40
note_on channel=0 note=33 velocity=57 time=0
note_on channel=0 note=46 velocity=0 time=10
note_on channel=0 note=34 velocity=0 time=0
note_on channel=0 note=46 velocity=74 time=0
note_on channel=0 note=34 velocity=57 time=0
note_on channel=0 note=45 velocity=0 time=10
note_on channel=0 note=33 velocity=0 time=0
note_on channel=0 note=48 velocity=74 time=0
note_on channel=0 note=36 velocity=57 time=0
note_on channel=0 note=46 velocity=0 time=10
note_on channel=0 note=34 velocity=0 time=0
note_on channel=0 note=46 velocity=74 time=40
note_on channel=0 note=34 velocity=57 time=0
note_on channel=0 note=48 velocity=0 time=10
note_on channel=0 note=36 velocity=0 time=0
note_on channel=0 note=45 velocity=74 time=0
note_on channel=0 note=33 velocity=57 time=0
note_on channel=0 note=46 velocity=0 time=10
note_on channel=0 note=34 velocity=0 time=0
note_on channel=0 note=46 velocity=74 time=0
note_on channel=0 note=34 velocity=57 time=0
note_on channel=0 note=45 velocity=0 time=10
note_on channel=0 note=33 velocity=0 time=0
note_on channel=0 note=48 velocity=74 time=0
note_on channel=0 note=36 velocity=56 time=0
note_on channel=0 note=46 velocity=0 time=10
note_on channel=0 note=34 velocity=0 time=0
note_on channel=0 note=46 velocity=74 time=0
note_on channel=0 note=34 velocity=56 time=0
note_on channel=0 note=48 velocity=0 time=10
note_on channel=0 note=36 velocity=0 time=0
note_on channel=0 note=45 velocity=74 time=20
note_on channel=0 note=33 velocity=56 time=0
note_on channel=0 note=46 velocity=0 time=10
note_on channel=0 note=34 velocity=0 time=0
note_on channel=0 note=46 velocity=73 time=0
note_on channel=0 note=34 velocity=55 time=0
note_on channel=0 note=45 velocity=0 time=10
note_on channel=0 note=33 velocity=0 time=0
note_on channel=0 note=48 velocity=73 time=0
note_on channel=0 note=36 velocity=55 time=0
note_on channel=0 note=46 velocity=0 time=10
note_on channel=0 note=34 velocity=0 time=0
note_on channel=0 note=46 velocity=73 time=0
note_on channel=0 note=34 velocity=55 time=0
note_on channel=0 note=48 velocity=0 time=10
note_on channel=0 note=36 velocity=0 time=0
note_on channel=0 note=45 velocity=73 time=0
note_on channel=0 note=33 velocity=55 time=0
note_on channel=0 note=46 velocity=0 time=10
note_on channel=0 note=34 velocity=0 time=0
note_on channel=0 note=46 velocity=74 time=0
note_on channel=0 note=34 velocity=55 time=0
note_on channel=0 note=45 velocity=0 time=10
note_on channel=0 note=33 velocity=0 time=0
note_on channel=0 note=48 velocity=72 time=110
note_on channel=0 note=36 velocity=54 time=0
note_on channel=0 note=46 velocity=0 time=10
note_on channel=0 note=34 velocity=0 time=0
note_on channel=0 note=46 velocity=70 time=80
note_on channel=0 note=34 velocity=53 time=0
note_on channel=0 note=48 velocity=0 time=10
note_on channel=0 note=36 velocity=0 time=0
note_on channel=0 note=45 velocity=68 time=40
note_on channel=0 note=33 velocity=52 time=0
note_on channel=0 note=46 velocity=0 time=10
note_on channel=0 note=34 velocity=0 time=0
note_on channel=0 note=46 velocity=67 time=0
note_on channel=0 note=34 velocity=51 time=0
note_on channel=0 note=45 velocity=0 time=10
note_on channel=0 note=33 velocity=0 time=0
note_on channel=0 note=48 velocity=65 time=110
note_on channel=0 note=36 velocity=50 time=0
note_on channel=0 note=46 velocity=0 time=10
note_on channel=0 note=34 velocity=0 time=0
note_on channel=0 note=46 velocity=63 time=80
note_on channel=0 note=34 velocity=49 time=0
note_on channel=0 note=48 velocity=0 time=10
note_on channel=0 note=36 velocity=0 time=0
note_on channel=0 note=45 velocity=61 time=0
note_on channel=0 note=33 velocity=48 time=0
note_on channel=0 note=46 velocity=0 time=10
note_on channel=0 note=34 velocity=0 time=0
note_on channel=0 note=46 velocity=60 time=40
note_on channel=0 note=34 velocity=47 time=0
note_on channel=0 note=45 velocity=0 time=10
note_on channel=0 note=33 velocity=0 time=0
note_on channel=0 note=43 velocity=58 time=0
note_on channel=0 note=31 velocity=46 time=0
note_on channel=0 note=46 velocity=0 time=10
note_on channel=0 note=34 velocity=0 time=0
note_on channel=0 note=44 velocity=56 time=0
note_on channel=0 note=32 velocity=45 time=0
note_on channel=0 note=43 velocity=0 time=10
note_on channel=0 note=31 velocity=0 time=0
note_on channel=0 note=46 velocity=54 time=0
note_on channel=0 note=34 velocity=44 time=0
note_on channel=0 note=44 velocity=0 time=10
note_on channel=0 note=32 velocity=0 time=0
note_on channel=0 note=48 velocity=53 time=0
note_on channel=0 note=36 velocity=43 time=0
note_on channel=0 note=46 velocity=0 time=10
note_on channel=0 note=34 velocity=0 time=0
note_on channel=0 note=46 velocity=51 time=40
note_on channel=0 note=34 velocity=42 time=0
note_on channel=0 note=48 velocity=0 time=10
note_on channel=0 note=36 velocity=0 time=0
note_on channel=0 note=44 velocity=49 time=0
note_on channel=0 note=32 velocity=41 time=0
note_on channel=0 note=46 velocity=0 time=10
note_on channel=0 note=34 velocity=0 time=0
note_on channel=0 note=43 velocity=47 time=0
note_on channel=0 note=31 velocity=40 time=0
note_on channel=0 note=44 velocity=0 time=10
note_on channel=0 note=32 velocity=0 time=0
note_on channel=0 note=29 velocity=39 time=0
note_on channel=0 note=43 velocity=0 time=10
note_on channel=0 note=31 velocity=0 time=0
note_on channel=0 note=48 velocity=40 time=110
note_on channel=0 note=48 velocity=0 time=40
note_on channel=0 note=53 velocity=37 time=0
note_on channel=0 note=53 velocity=0 time=0
note_on channel=0 note=56 velocity=37 time=0
note_on channel=0 note=56 velocity=0 time=0
note_on channel=0 note=29 velocity=0 time=0
note_on channel=0 note=60 velocity=40 time=0
note_on channel=0 note=60 velocity=0 time=120
note_on channel=0 note=61 velocity=38 time=0
note_on channel=0 note=61 velocity=0 time=120
note_on channel=0 note=60 velocity=38 time=0
note_on channel=0 note=60 velocity=0 time=40
note_on channel=0 note=58 velocity=38 time=0
note_on channel=0 note=58 velocity=0 time=120
note_on channel=0 note=56 velocity=40 time=0
note_on channel=0 note=56 velocity=0 time=120
note_on channel=0 note=58 velocity=37 time=0
note_on channel=0 note=58 velocity=0 time=80
note_on channel=0 note=56 velocity=37 time=0
note_on channel=0 note=56 velocity=0 time=120
note_on channel=0 note=55 velocity=37 time=0
note_on channel=0 note=55 velocity=0 time=0
note_on channel=0 note=53 velocity=40 time=0
note_on channel=0 note=53 velocity=0 time=120
note_on channel=0 note=55 velocity=37 time=0
note_on channel=0 note=55 velocity=0 time=120
note_on channel=0 note=56 velocity=37 time=0
note_on channel=0 note=56 velocity=0 time=0
note_on channel=0 note=53 velocity=37 time=0
note_on channel=0 note=41 velocity=35 time=0
note_on channel=0 note=41 velocity=0 time=0
note_on channel=0 note=53 velocity=0 time=0
note_on channel=0 note=29 velocity=40 time=0
note_on channel=0 note=48 velocity=40 time=120
note_on channel=0 note=48 velocity=0 time=80
note_on channel=0 note=53 velocity=37 time=0
note_on channel=0 note=53 velocity=0 time=80
note_on channel=0 note=56 velocity=37 time=0
note_on channel=0 note=56 velocity=0 time=0
note_on channel=0 note=29 velocity=0 time=0
note_on channel=0 note=60 velocity=40 time=0
note_on channel=0 note=60 velocity=0 time=0
note_on channel=0 note=61 velocity=38 time=0
note_on channel=0 note=61 velocity=0 time=120
note_on channel=0 note=60 velocity=38 time=0
note_on channel=0 note=60 velocity=0 time=120
note_on channel=0 note=58 velocity=38 time=0
note_on channel=0 note=58 velocity=0 time=40
note_on channel=0 note=56 velocity=40 time=0
note_on channel=0 note=56 velocity=0 time=120
note_on channel=0 note=58 velocity=37 time=0
note_on channel=0 note=58 velocity=0 time=0
note_on channel=0 note=56 velocity=37 time=0
note_on channel=0 note=56 velocity=0 time=120
note_on channel=0 note=55 velocity=37 time=0
note_on channel=0 note=55 velocity=0 time=120
note_on channel=0 note=53 velocity=40 time=0
note_on channel=0 note=53 velocity=0 time=80
note_on channel=0 note=55 velocity=37 time=0
note_on channel=0 note=55 velocity=0 time=120
note_on channel=0 note=56 velocity=37 time=0
note_on channel=0 note=56 velocity=0 time=0
note_on channel=0 note=53 velocity=37 time=0
note_on channel=0 note=41 velocity=35 time=0
note_on channel=0 note=41 velocity=0 time=0
note_on channel=0 note=53 velocity=0 time=0
note_on channel=0 note=34 velocity=40 time=0
note_on channel=0 note=49 velocity=44 time=0
note_on channel=0 note=49 velocity=0 time=120
note_on channel=0 note=54 velocity=40 time=0
note_on channel=0 note=54 velocity=0 time=40
note_on channel=0 note=58 velocity=40 time=0
note_on channel=0 note=58 velocity=0 time=0
note_on channel=0 note=34 velocity=0 time=0
note_on channel=0 note=61 velocity=44 time=0
note_on channel=0 note=61 velocity=0 time=120
note_on channel=0 note=63 velocity=41 time=0
note_on channel=0 note=63 velocity=0 time=120
note_on channel=0 note=61 velocity=41 time=0
note_on channel=0 note=61 velocity=0 time=40
note_on channel=0 note=60 velocity=41 time=0
note_on channel=0 note=60 velocity=0 time=120
note_on channel=0 note=58 velocity=44 time=0
note_on channel=0 note=58 velocity=0 time=120
note_on channel=0 note=60 velocity=40 time=0
note_on channel=0 note=60 velocity=0 time=80
note_on channel=0 note=58 velocity=40 time=0
note_on channel=0 note=58 velocity=0 time=120
note_on channel=0 note=56 velocity=40 time=0
note_on channel=0 note=56 velocity=0 time=0
note_on channel=0 note=54 velocity=44 time=0
note_on channel=0 note=54 velocity=0 time=120
note_on channel=0 note=56 velocity=40 time=0
note_on channel=0 note=56 velocity=0 time=120
note_on channel=0 note=54 velocity=40 time=0
note_on channel=0 note=54 velocity=0 time=0
note_on channel=0 note=53 velocity=40 time=0
note_on channel=0 note=37 velocity=36 time=0
note_on channel=0 note=37 velocity=0 time=0
note_on channel=0 note=53 velocity=0 time=0
note_on channel=0 note=52 velocity=44 time=0
note_on channel=0 note=36 velocity=40 time=0
note_on channel=0 note=52 velocity=0 time=120
note_on channel=0 note=53 velocity=40 time=0
note_on channel=0 note=53 velocity=0 time=120
note_on channel=0 note=36 velocity=0 time=0
note_on channel=0 note=55 velocity=40 time=0
note_on channel=0 note=55 velocity=0 time=0
note_on channel=0 note=52 velocity=40 time=0
note_on channel=0 note=52 velocity=0 time=0
note_on channel=0 note=53 velocity=44 time=0
note_on channel=0 note=37 velocity=38 time=0
note_on channel=0 note=53 velocity=0 time=120
note_on channel=0 note=55 velocity=40 time=0
note_on channel=0 note=55 velocity=0 time=120
note_on channel=0 note=37 velocity=0 time=0
note_on channel=0 note=56 velocity=40 time=0
note_on channel=0 note=56 velocity=0 time=0
note_on channel=0 note=53 velocity=40 time=0
note_on channel=0 note=53 velocity=0 time=0
note_on channel=0 note=55 velocity=44 time=0
note_on channel=0 note=34 velocity=40 time=0
note_on channel=0 note=55 velocity=0 time=120
note_on channel=0 note=56 velocity=40 time=0
note_on channel=0 note=56 velocity=0 time=120
note_on channel=0 note=34 velocity=0 time=0
note_on channel=0 note=58 velocity=40 time=0
note_on channel=0 note=58 velocity=0 time=0
note_on channel=0 note=55 velocity=40 time=0
note_on channel=0 note=55 velocity=0 time=0
note_on channel=0 note=52 velocity=44 time=0
note_on channel=0 note=36 velocity=37 time=0
note_on channel=0 note=52 velocity=0 time=120
note_on channel=0 note=53 velocity=37 time=0
note_on channel=0 note=53 velocity=0 time=120
note_on channel=0 note=36 velocity=0 time=0
note_on channel=0 note=55 velocity=38 time=0
note_on channel=0 note=55 velocity=0 time=0
note_on channel=0 note=52 velocity=40 time=0
note_on channel=0 note=52 velocity=0 time=0
note_on channel=0 note=53 velocity=44 time=0
note_on channel=0 note=41 velocity=40 time=0
note_on channel=0 note=29 velocity=40 time=0
note_on channel=0 note=53 velocity=0 time=120
note_on channel=0 note=48 velocity=40 time=0
note_on channel=0 note=48 velocity=0 time=120
note_on channel=0 note=53 velocity=37 time=0
note_on channel=0 note=53 velocity=0 time=120
note_on channel=0 note=56 velocity=37 time=0
note_on channel=0 note=56 velocity=0 time=120
note_on channel=0 note=29 velocity=0 time=0
note_on channel=0 note=41 velocity=0 time=0
note_on channel=0 note=60 velocity=40 time=0
note_on channel=0 note=60 velocity=0 time=120
note_on channel=0 note=61 velocity=38 time=0
note_on channel=0 note=61 velocity=0 time=0
note_on channel=0 note=60 velocity=38 time=0
note_on channel=0 note=60 velocity=0 time=120
note_on channel=0 note=58 velocity=38 time=0
note_on channel=0 note=72 velocity=49 time=0
note_on channel=0 note=68 velocity=49 time=0
note_on channel=0 note=68 velocity=0 time=0
note_on channel=0 note=72 velocity=0 time=0
note_on channel=0 note=58 velocity=0 time=0
note_on channel=0 note=56 velocity=40 time=0
note_on channel=0 note=68 velocity=57 time=0
note_on channel=0 note=72 velocity=57 time=0
note_on channel=0 note=56 velocity=0 time=120
note_on channel=0 note=58 velocity=37 time=0
note_on channel=0 note=58 velocity=0 time=120
note_on channel=0 note=56 velocity=37 time=0
note_on channel=0 note=56 velocity=0 time=120
note_on channel=0 note=55 velocity=37 time=0
note_on channel=0 note=55 velocity=0 time=120
note_on channel=0 note=72 velocity=0 time=0
note_on channel=0 note=68 velocity=0 time=0
note_on channel=0 note=53 velocity=40 time=0
note_on channel=0 note=68 velocity=30 time=0
note_on channel=0 note=65 velocity=30 time=0
note_on channel=0 note=53 velocity=0 time=120
note_on channel=0 note=55 velocity=37 time=0
note_on channel=0 note=55 velocity=0 time=120
note_on channel=0 note=65 velocity=0 time=0
note_on channel=0 note=68 velocity=0 time=0
note_on channel=0 note=56 velocity=37 time=0
note_on channel=0 note=56 velocity=0 time=0
note_on channel=0 note=53 velocity=37 time=0
note_on channel=0 note=53 velocity=0 time=0
note_on channel=0 note=41 velocity=40 time=0
note_on channel=0 note=29 velocity=40 time=0
note_on channel=0 note=48 velocity=40 time=120
note_on channel=0 note=48 velocity=0 time=120
note_on channel=0 note=53 velocity=37 time=0
note_on channel=0 note=53 velocity=0 time=120
note_on channel=0 note=56 velocity=37 time=0
note_on channel=0 note=56 velocity=0 time=120
note_on channel=0 note=29 velocity=0 time=0
note_on channel=0 note=41 velocity=0 time=0
note_on channel=0 note=60 velocity=40 time=0
note_on channel=0 note=60 velocity=0 time=120
note_on channel=0 note=61 velocity=38 time=0
note_on channel=0 note=61 velocity=0 time=0
note_on channel=0 note=60 velocity=38 time=0
note_on channel=0 note=60 velocity=0 time=120
note_on channel=0 note=58 velocity=38 time=0
note_on channel=0 note=68 velocity=51 time=0
note_on channel=0 note=72 velocity=51 time=0
note_on channel=0 note=72 velocity=0 time=0
note_on channel=0 note=68 velocity=0 time=0
note_on channel=0 note=58 velocity=0 time=0
note_on channel=0 note=56 velocity=40 time=0
note_on channel=0 note=72 velocity=56 time=0
note_on channel=0 note=68 velocity=56 time=0
note_on channel=0 note=56 velocity=0 time=120
note_on channel=0 note=58 velocity=37 time=0
note_on channel=0 note=58 velocity=0 time=120
note_on channel=0 note=56 velocity=37 time=0
note_on channel=0 note=56 velocity=0 time=120
note_on channel=0 note=55 velocity=37 time=0
note_on channel=0 note=55 velocity=0 time=120
note_on channel=0 note=68 velocity=0 time=0
note_on channel=0 note=72 velocity=0 time=0
note_on channel=0 note=53 velocity=40 time=0
note_on channel=0 note=65 velocity=30 time=0
note_on channel=0 note=68 velocity=30 time=0
note_on channel=0 note=53 velocity=0 time=120
note_on channel=0 note=55 velocity=37 time=0
note_on channel=0 note=55 velocity=0 time=120
note_on channel=0 note=68 velocity=0 time=0
note_on channel=0 note=65 velocity=0 time=0
note_on channel=0 note=56 velocity=37 time=0
note_on channel=0 note=56 velocity=0 time=0
note_on channel=0 note=53 velocity=37 time=0
note_on channel=0 note=53 velocity=0 time=0
note_on channel=0 note=34 velocity=40 time=0
note_on channel=0 note=46 velocity=40 time=0
note_on channel=0 note=49 velocity=44 time=120
note_on channel=0 note=49 velocity=0 time=120
note_on channel=0 note=54 velocity=40 time=0
note_on channel=0 note=54 velocity=0 time=120
note_on channel=0 note=58 velocity=40 time=0
note_on channel=0 note=58 velocity=0 time=120
note_on channel=0 note=46 velocity=0 time=0
note_on channel=0 note=34 velocity=0 time=0
note_on channel=0 note=61 velocity=44 time=0
note_on channel=0 note=61 velocity=0 time=120
note_on channel=0 note=63 velocity=41 time=0
note_on channel=0 note=63 velocity=0 time=0
note_on channel=0 note=61 velocity=41 time=0
note_on channel=0 note=61 velocity=0 time=120
note_on channel=0 note=60 velocity=41 time=0
note_on channel=0 note=70 velocity=63 time=0
note_on channel=0 note=73 velocity=63 time=0
note_on channel=0 note=73 velocity=0 time=0
note_on channel=0 note=70 velocity=0 time=0
note_on channel=0 note=60 velocity=0 time=0
note_on channel=0 note=58 velocity=44 time=0
note_on channel=0 note=73 velocity=70 time=0
note_on channel=0 note=70 velocity=70 time=0
note_on channel=0 note=58 velocity=0 time=120
note_on channel=0 note=60 velocity=40 time=0
note_on channel=0 note=60 velocity=0 time=120
note_on channel=0 note=58 velocity=40 time=0
note_on channel=0 note=58 velocity=0 time=120
note_on channel=0 note=56 velocity=40 time=0
note_on channel=0 note=56 velocity=0 time=120
note_on channel=0 note=54 velocity=44 time=0
note_on channel=0 note=54 velocity=0 time=120
note_on channel=0 note=56 velocity=40 time=0
note_on channel=0 note=56 velocity=0 time=120
note_on channel=0 note=54 velocity=40 time=0
note_on channel=0 note=54 velocity=0 time=0
note_on channel=0 note=53 velocity=40 time=0
note_on channel=0 note=53 velocity=0 time=0
note_on channel=0 note=70 velocity=0 time=0
note_on channel=0 note=73 velocity=0 time=0
note_on channel=0 note=52 velocity=44 time=0
note_on channel=0 note=70 velocity=51 time=0
note_on channel=0 note=72 velocity=51 time=0
note_on channel=0 note=52 velocity=0 time=120
note_on channel=0 note=53 velocity=40 time=0
note_on channel=0 note=53 velocity=0 time=120
note_on channel=0 note=72 velocity=0 time=0
note_on channel=0 note=70 velocity=0 time=0
note_on channel=0 note=55 velocity=40 time=0
note_on channel=0 note=48 velocity=43 time=0
note_on channel=0 note=36 velocity=43 time=0
note_on channel=0 note=55 velocity=0 time=0
note_on channel=0 note=52 velocity=40 time=0
note_on channel=0 note=52 velocity=0 time=0
note_on channel=0 note=36 velocity=0 time=0
note_on channel=0 note=48 velocity=0 time=0
note_on channel=0 note=53 velocity=44 time=0
note_on channel=0 note=53 velocity=0 time=120
note_on channel=0 note=55 velocity=40 time=0
note_on channel=0 note=55 velocity=0 time=120
note_on channel=0 note=56 velocity=40 time=0
note_on channel=0 note=37 velocity=37 time=0
note_on channel=0 note=49 velocity=37 time=0
note_on channel=0 note=56 velocity=0 time=0
note_on channel=0 note=53 velocity=40 time=0
note_on channel=0 note=53 velocity=0 time=0
note_on channel=0 note=49 velocity=0 time=0
note_on channel=0 note=37 velocity=0 time=0
note_on channel=0 note=55 velocity=44 time=0
note_on channel=0 note=55 velocity=0 time=120
note_on channel=0 note=56 velocity=40 time=0
note_on channel=0 note=56 velocity=0 time=120
note_on channel=0 note=58 velocity=40 time=0
note_on channel=0 note=34 velocity=39 time=0
note_on channel=0 note=46 velocity=39 time=0
note_on channel=0 note=58 velocity=0 time=0
note_on channel=0 note=55 velocity=40 time=0
note_on channel=0 note=55 velocity=0 time=0
note_on channel=0 note=46 velocity=0 time=0
note_on channel=0 note=34 velocity=0 time=0
note_on channel=0 note=52 velocity=44 time=0
note_on channel=0 note=52 velocity=0 time=120
note_on channel=0 note=53 velocity=37 time=0
note_on channel=0 note=53 velocity=0 time=120
note_on channel=0 note=55 velocity=38 time=0
note_on channel=0 note=48 velocity=35 time=0
note_on channel=0 note=36 velocity=35 time=0
note_on channel=0 note=55 velocity=0 time=0
note_on channel=0 note=52 velocity=40 time=0
note_on channel=0 note=52 velocity=0 time=0
note_on channel=0 note=36 velocity=0 time=0
note_on channel=0 note=48 velocity=0 time=0
note_on channel=0 note=53 velocity=37 time=0
note_on channel=0 note=29 velocity=44 time=0
note_on channel=0 note=41 velocity=44 time=0
control_change channel=0 control=64 value=127 time=57
note_on channel=0 note=53 velocity=0 time=63
note_on channel=0 note=60 velocity=38 time=0
note_on channel=0 note=60 velocity=0 time=120
note_on channel=0 note=65 velocity=40 time=0
note_on channel=0 note=65 velocity=0 time=120
note_on channel=0 note=68 velocity=42 time=0
note_on channel=0 note=68 velocity=0 time=120
note_on channel=0 note=41 velocity=0 time=0
note_on channel=0 note=29 velocity=0 time=0
note_on channel=0 note=72 velocity=43 time=0
note_on channel=0 note=72 velocity=0 time=120
note_on channel=0 note=60 velocity=45 time=0
note_on channel=0 note=60 velocity=0 time=120
note_on channel=0 note=65 velocity=46 time=0
note_on channel=0 note=65 velocity=0 time=0
note_on channel=0 note=68 velocity=48 time=0
note_on channel=0 note=56 velocity=52 time=0
note_on channel=0 note=53 velocity=52 time=0
note_on channel=0 note=53 velocity=0 time=0
note_on channel=0 note=56 velocity=0 time=0
note_on channel=0 note=68 velocity=0 time=0
note_on channel=0 note=53 velocity=65 time=0
note_on channel=0 note=56 velocity=65 time=0
control_change channel=0 control=64 value=0 time=15
note_on channel=0 note=60 velocity=46 time=105
control_change channel=0 control=64 value=127 time=7
note_on channel=0 note=60 velocity=0 time=113
note_on channel=0 note=65 velocity=47 time=0
note_on channel=0 note=65 velocity=0 time=120
note_on channel=0 note=68 velocity=49 time=0
note_on channel=0 note=68 velocity=0 time=120
note_on channel=0 note=56 velocity=0 time=0
note_on channel=0 note=53 velocity=0 time=0
note_on channel=0 note=72 velocity=50 time=0
note_on channel=0 note=72 velocity=0 time=120
note_on channel=0 note=60 velocity=52 time=0
note_on channel=0 note=60 velocity=0 time=120
note_on channel=0 note=65 velocity=53 time=0
note_on channel=0 note=65 velocity=0 time=0
note_on channel=0 note=68 velocity=38 time=0
note_on channel=0 note=56 velocity=54 time=0
note_on channel=0 note=53 velocity=54 time=0
note_on channel=0 note=53 velocity=0 time=0
note_on channel=0 note=56 velocity=0 time=0
note_on channel=0 note=68 velocity=0 time=0
note_on channel=0 note=48 velocity=66 time=0
note_on channel=0 note=56 velocity=66 time=0
note_on channel=0 note=53 velocity=66 time=0
control_change channel=0 control=64 value=0 time=17
control_change channel=0 control=64 value=127 time=86
note_on channel=0 note=59 velocity=51 time=0
note_on channel=0 note=59 velocity=0 time=0
note_on channel=0 note=62 velocity=52 time=0
note_on channel=0 note=62 velocity=0 time=0
note_on channel=0 note=68 velocity=52 time=0
note_on channel=0 note=68 velocity=0 time=0
note_on channel=0 note=71 velocity=54 time=0
note_on channel=0 note=59 velocity=52 time=0
note_on channel=0 note=59 velocity=0 time=0
note_on channel=0 note=62 velocity=52 time=0
note_on channel=0 note=62 velocity=0 time=0
note_on channel=0 note=68 velocity=52 time=0
note_on channel=0 note=68 velocity=0 time=0
note_on channel=0 note=48 velocity=0 time=0
note_on channel=0 note=53 velocity=0 time=0
note_on channel=0 note=56 velocity=0 time=0
note_on channel=0 note=71 velocity=0 time=0
note_on channel=0 note=71 velocity=54 time=0
note_on channel=0 note=48 velocity=48 time=0
note_on channel=0 note=52 velocity=48 time=0
note_on channel=0 note=55 velocity=48 time=0
control_change channel=0 control=64 value=0 time=8
control_change channel=0 control=64 value=127 time=89
note_on channel=0 note=59 velocity=52 time=0
note_on channel=0 note=59 velocity=0 time=0
note_on channel=0 note=52 velocity=0 time=0
note_on channel=0 note=55 velocity=0 time=0
note_on channel=0 note=48 velocity=0 time=0
note_on channel=0 note=64 velocity=50 time=0
note_on channel=0 note=64 velocity=0 time=40
note_on channel=0 note=67 velocity=49 time=0
note_on channel=0 note=67 velocity=0 time=40
note_on channel=0 note=71 velocity=0 time=0
note_on channel=0 note=72 velocity=52 time=0
control_change channel=0 control=64 value=0 time=15
control_change channel=0 control=64 value=127 time=52
note_on channel=0 note=60 velocity=46 time=28
note_on channel=0 note=60 velocity=0 time=0
note_on channel=0 note=64 velocity=44 time=0
note_on channel=0 note=64 velocity=0 time=0
note_on channel=0 note=67 velocity=38 time=0
note_on channel=0 note=67 velocity=0 time=0
note_on channel=0 note=72 velocity=0 time=0
note_on channel=0 note=36 velocity=42 time=0
note_on channel=0 note=48 velocity=42 time=0
control_change channel=0 control=64 value=0 time=9
note_on channel=0 note=60 velocity=38 time=111
control_change channel=0 control=64 value=127 time=35
note_on channel=0 note=60 velocity=0 time=85
note_on channel=0 note=64 velocity=40 time=0
note_on channel=0 note=64 velocity=0 time=120
note_on channel=0 note=67 velocity=42 time=0
note_on channel=0 note=67 velocity=0 time=120
note_on channel=0 note=48 velocity=0 time=0
note_on channel=0 note=36 velocity=0 time=0
note_on channel=0 note=72 velocity=43 time=0
note_on channel=0 note=72 velocity=0 time=120
note_on channel=0 note=60 velocity=45 time=0
note_on channel=0 note=60 velocity=0 time=120
note_on channel=0 note=64 velocity=46 time=0
note_on channel=0 note=64 velocity=0 time=0
note_on channel=0 note=67 velocity=48 time=0
note_on channel=0 note=58 velocity=60 time=0
note_on channel=0 note=55 velocity=60 time=0
note_on channel=0 note=55 velocity=0 time=0
note_on channel=0 note=58 velocity=0 time=0
note_on channel=0 note=67 velocity=0 time=0
note_on channel=0 note=58 velocity=68 time=0
note_on channel=0 note=55 velocity=68 time=0
control_change channel=0 control=64 value=0 time=11
control_change channel=0 control=64 value=127 time=69
note_on channel=0 note=60 velocity=46 time=40
note_on channel=0 note=60 velocity=0 time=120
note_on channel=0 note=64 velocity=47 time=0
note_on channel=0 note=64 velocity=0 time=120
note_on channel=0 note=67 velocity=49 time=0
note_on channel=0 note=67 velocity=0 time=120
note_on channel=0 note=55 velocity=0 time=0
note_on channel=0 note=58 velocity=0 time=0
note_on channel=0 note=72 velocity=50 time=0
note_on channel=0 note=72 velocity=0 time=120
note_on channel=0 note=60 velocity=52 time=0
note_on channel=0 note=60 velocity=0 time=120
note_on channel=0 note=64 velocity=53 time=0
note_on channel=0 note=64 velocity=0 time=0
note_on channel=0 note=67 velocity=38 time=0
note_on channel=0 note=55 velocity=61 time=0
note_on channel=0 note=58 velocity=61 time=0
note_on channel=0 note=58 velocity=0 time=0
note_on channel=0 note=55 velocity=0 time=0
note_on channel=0 note=67 velocity=0 time=0
note_on channel=0 note=53 velocity=58 time=0
note_on channel=0 note=58 velocity=69 time=0
note_on channel=0 note=55 velocity=58 time=0
control_change channel=0 control=64 value=0 time=13
note_on channel=0 note=60 velocity=51 time=80
control_change channel=0 control=64 value=127 time=0
note_on channel=0 note=60 velocity=0 time=0
note_on channel=0 note=64 velocity=52 time=0
note_on channel=0 note=64 velocity=0 time=120
note_on channel=0 note=67 velocity=52 time=0
note_on channel=0 note=67 velocity=0 time=80
note_on channel=0 note=72 velocity=54 time=0
note_on channel=0 note=60 velocity=52 time=40
note_on channel=0 note=60 velocity=0 time=0
note_on channel=0 note=64 velocity=52 time=0
note_on channel=0 note=64 velocity=0 time=120
note_on channel=0 note=67 velocity=52 time=0
note_on channel=0 note=67 velocity=0 time=0
note_on channel=0 note=53 velocity=0 time=0
note_on channel=0 note=55 velocity=0 time=0
note_on channel=0 note=58 velocity=0 time=0
note_on channel=0 note=72 velocity=0 time=0
note_on channel=0 note=72 velocity=53 time=0
note_on channel=0 note=56 velocity=52 time=0
note_on channel=0 note=53 velocity=47 time=0
control_change channel=0 control=64 value=0 time=10
note_on channel=0 note=60 velocity=52 time=110
control_change channel=0 control=64 value=127 time=23
note_on channel=0 note=60 velocity=0 time=80
note_on channel=0 note=53 velocity=0 time=0
note_on channel=0 note=56 velocity=0 time=0
note_on channel=0 note=64 velocity=50 time=0
note_on channel=0 note=64 velocity=0 time=80
note_on channel=0 note=67 velocity=49 time=0
note_on channel=0 note=67 velocity=0 time=40
note_on channel=0 note=72 velocity=0 time=0
note_on channel=0 note=72 velocity=47 time=0
control_change channel=0 control=64 value=0 time=13
control_change channel=0 control=64 value=127 time=62
note_on channel=0 note=60 velocity=46 time=40
note_on channel=0 note=60 velocity=0 time=0
note_on channel=0 note=65 velocity=44 time=0
note_on channel=0 note=65 velocity=0 time=0
note_on channel=0 note=68 velocity=38 time=0
note_on channel=0 note=68 velocity=0 time=0
note_on channel=0 note=72 velocity=0 time=0
note_on channel=0 note=41 velocity=45 time=0
note_on channel=0 note=53 velocity=45 time=0
control_change channel=0 control=64 value=0 time=10
control_change channel=0 control=64 value=127 time=70
note_on channel=0 note=65 velocity=38 time=40
note_on channel=0 note=65 velocity=0 time=120
note_on channel=0 note=69 velocity=40 time=0
note_on channel=0 note=69 velocity=0 time=120
note_on channel=0 note=72 velocity=42 time=0
note_on channel=0 note=72 velocity=0 time=120
note_on channel=0 note=53 velocity=0 time=0
note_on channel=0 note=41 velocity=0 time=0
note_on channel=0 note=77 velocity=43 time=0
note_on channel=0 note=77 velocity=0 time=120
note_on channel=0 note=65 velocity=45 time=0
note_on channel=0 note=65 velocity=0 time=120
note_on channel=0 note=69 velocity=46 time=0
note_on channel=0 note=69 velocity=0 time=0
note_on channel=0 note=72 velocity=48 time=0
note_on channel=0 note=60 velocity=59 time=0
note_on channel=0 note=63 velocity=59 time=0
note_on channel=0 note=63 velocity=0 time=0
note_on channel=0 note=60 velocity=0 time=0
note_on channel=0 note=72 velocity=0 time=0
note_on channel=0 note=60 velocity=68 time=0
note_on channel=0 note=63 velocity=68 time=0
control_change channel=0 control=64 value=0 time=12
control_change channel=0 control=64 value=127 time=85
note_on channel=0 note=65 velocity=46 time=23
note_on channel=0 note=65 velocity=0 time=120
note_on channel=0 note=69 velocity=47 time=0
note_on channel=0 note=69 velocity=0 time=120
note_on channel=0 note=72 velocity=49 time=0
note_on channel=0 note=72 velocity=0 time=120
note_on channel=0 note=63 velocity=0 time=0
note_on channel=0 note=60 velocity=0 time=0
note_on channel=0 note=77 velocity=50 time=0
note_on channel=0 note=77 velocity=0 time=120
note_on channel=0 note=65 velocity=52 time=0
note_on channel=0 note=65 velocity=0 time=120
note_on channel=0 note=69 velocity=53 time=0
note_on channel=0 note=69 velocity=0 time=0
note_on channel=0 note=72 velocity=54 time=0
note_on channel=0 note=63 velocity=66 time=0
note_on channel=0 note=60 velocity=66 time=0
note_on channel=0 note=60 velocity=0 time=0
note_on channel=0 note=63 velocity=0 time=0
note_on channel=0 note=72 velocity=0 time=0
note_on channel=0 note=60 velocity=72 time=0
note_on channel=0 note=63 velocity=72 time=0
note_on channel=0 note=58 velocity=72 time=0
control_change channel=0 control=64 value=0 time=14
note_on channel=0 note=65 velocity=50 time=106
control_change channel=0 control=64 value=127 time=12
note_on channel=0 note=65 velocity=0 time=108
note_on channel=0 note=69 velocity=50 time=0
note_on channel=0 note=69 velocity=0 time=120
note_on channel=0 note=72 velocity=50 time=0
note_on channel=0 note=72 velocity=0 time=120
note_on channel=0 note=77 velocity=55 time=0
note_on channel=0 note=65 velocity=53 time=120
note_on channel=0 note=65 velocity=0 time=120
note_on channel=0 note=69 velocity=52 time=0
note_on channel=0 note=69 velocity=0 time=120
note_on channel=0 note=72 velocity=52 time=0
note_on channel=0 note=72 velocity=0 time=0
note_on channel=0 note=77 velocity=0 time=0
note_on channel=0 note=65 velocity=54 time=0
note_on channel=0 note=69 velocity=54 time=0
control_change channel=0 control=64 value=0 time=10
note_on channel=0 note=69 velocity=0 time=110
note_on channel=0 note=65 velocity=0 time=0
note_on channel=0 note=77 velocity=54 time=0
note_on channel=0 note=77 velocity=0 time=0
note_on channel=0 note=58 velocity=0 time=0
note_on channel=0 note=63 velocity=0 time=0
note_on channel=0 note=60 velocity=0 time=0
note_on channel=0 note=70 velocity=53 time=0
note_on channel=0 note=65 velocity=53 time=0
note_on channel=0 note=58 velocity=64 time=0
note_on channel=0 note=61 velocity=64 time=0
note_on channel=0 note=65 velocity=0 time=120
note_on channel=0 note=70 velocity=0 time=0
note_on channel=0 note=77 velocity=52 time=0
note_on channel=0 note=77 velocity=0 time=0
note_on channel=0 note=58 velocity=0 time=0
note_on channel=0 note=61 velocity=0 time=0
note_on channel=0 note=72 velocity=52 time=0
note_on channel=0 note=65 velocity=52 time=0
note_on channel=0 note=60 velocity=61 time=0
note_on channel=0 note=56 velocity=61 time=0
note_on channel=0 note=65 velocity=0 time=120
note_on channel=0 note=72 velocity=0 time=0
note_on channel=0 note=77 velocity=51 time=0
note_on channel=0 note=77 velocity=0 time=120
note_on channel=0 note=60 velocity=0 time=0
note_on channel=0 note=56 velocity=0 time=0
note_on channel=0 note=65 velocity=50 time=0
note_on channel=0 note=73 velocity=50 time=0
note_on channel=0 note=55 velocity=59 time=0
note_on channel=0 note=58 velocity=59 time=0
note_on channel=0 note=73 velocity=0 time=120
note_on channel=0 note=65 velocity=0 time=0
note_on channel=0 note=77 velocity=50 time=0
note_on channel=0 note=77 velocity=0 time=0
note_on channel=0 note=55 velocity=0 time=0
note_on channel=0 note=58 velocity=0 time=0
note_on channel=0 note=53 velocity=56 time=0
note_on channel=0 note=56 velocity=56 time=0
note_on channel=0 note=48 velocity=56 time=0
control_change channel=0 control=64 value=127 time=71
note_on channel=0 note=60 velocity=52 time=49
note_on channel=0 note=60 velocity=0 time=120
note_on channel=0 note=65 velocity=49 time=0
note_on channel=0 note=65 velocity=0 time=120
note_on channel=0 note=68 velocity=50 time=0
note_on channel=0 note=68 velocity=0 time=120
note_on channel=0 note=53 velocity=0 time=0
note_on channel=0 note=56 velocity=0 time=0
note_on channel=0 note=48 velocity=0 time=0
note_on channel=0 note=72 velocity=56 time=0
note_on channel=0 note=60 velocity=50 time=120
note_on channel=0 note=60 velocity=0 time=120
note_on channel=0 note=65 velocity=50 time=0
note_on channel=0 note=65 velocity=0 time=0
note_on channel=0 note=68 velocity=50 time=0
note_on channel=0 note=56 velocity=56 time=0
note_on channel=0 note=53 velocity=56 time=0
note_on channel=0 note=53 velocity=0 time=0
note_on channel=0 note=72 velocity=0 time=0
note_on channel=0 note=68 velocity=0 time=0
note_on channel=0 note=56 velocity=0 time=0
note_on channel=0 note=72 velocity=56 time=0
note_on channel=0 note=55 velocity=63 time=0
note_on channel=0 note=58 velocity=63 time=0
note_on channel=0 note=48 velocity=63 time=0
control_change channel=0 control=64 value=0 time=10
control_change channel=0 control=64 value=127 time=65
note_on channel=0 note=60 velocity=52 time=45
note_on channel=0 note=60 velocity=0 time=120
note_on channel=0 note=67 velocity=52 time=0
note_on channel=0 note=67 velocity=0 time=120
note_on channel=0 note=70 velocity=52 time=0
note_on channel=0 note=70 velocity=0 time=120
note_on channel=0 note=58 velocity=0 time=0
note_on channel=0 note=72 velocity=0 time=0
note_on channel=0 note=55 velocity=0 time=0
note_on channel=0 note=48 velocity=0 time=0
note_on channel=0 note=72 velocity=56 time=0
note_on channel=0 note=60 velocity=52 time=120
note_on channel=0 note=60 velocity=0 time=120
note_on channel=0 note=64 velocity=52 time=0
note_on channel=0 note=64 velocity=0 time=0
note_on channel=0 note=67 velocity=52 time=0
note_on channel=0 note=55 velocity=53 time=0
note_on channel=0 note=52 velocity=53 time=0
note_on channel=0 note=52 velocity=0 time=0
note_on channel=0 note=72 velocity=0 time=0
note_on channel=0 note=67 velocity=0 time=0
note_on channel=0 note=55 velocity=0 time=0
note_on channel=0 note=60 velocity=59 time=0
note_on channel=0 note=72 velocity=59 time=0
note_on channel=0 note=65 velocity=59 time=0
note_on channel=0 note=68 velocity=59 time=0
note_on channel=0 note=53 velocity=56 time=0
control_change channel=0 control=64 value=0 time=18
note_on channel=0 note=53 velocity=0 time=102
note_on channel=0 note=60 velocity=49 time=0
control_change channel=0 control=64 value=127 time=0
note_on channel=0 note=60 velocity=0 time=120
note_on channel=0 note=56 velocity=49 time=0
note_on channel=0 note=56 velocity=0 time=120
note_on channel=0 note=53 velocity=49 time=0
note_on channel=0 note=53 velocity=0 time=120
note_on channel=0 note=68 velocity=0 time=0
note_on channel=0 note=60 velocity=0 time=0
note_on channel=0 note=72 velocity=0 time=0
note_on channel=0 note=65 velocity=0 time=0
note_on channel=0 note=48 velocity=53 time=0
note_on channel=0 note=48 velocity=0 time=120
note_on channel=0 note=56 velocity=49 time=0
note_on channel=0 note=56 velocity=0 time=120
note_on channel=0 note=53 velocity=49 time=0
note_on channel=0 note=53 velocity=0 time=0
note_on channel=0 note=80 velocity=69 time=0
note_on channel=0 note=77 velocity=69 time=0
note_on channel=0 note=48 velocity=49 time=0
note_on channel=0 note=48 velocity=0 time=0
note_on channel=0 note=77 velocity=0 time=0
note_on channel=0 note=80 velocity=0 time=0
note_on channel=0 note=80 velocity=74 time=0
note_on channel=0 note=77 velocity=74 time=0
note_on channel=0 note=44 velocity=53 time=0
control_change channel=0 control=64 value=0 time=13
control_change channel=0 control=64 value=127 time=65
note_on channel=0 note=44 velocity=0 time=42
note_on channel=0 note=53 velocity=49 time=0
note_on channel=0 note=53 velocity=0 time=120
note_on channel=0 note=48 velocity=49 time=0
note_on channel=0 note=48 velocity=0 time=120
note_on channel=0 note=44 velocity=49 time=0
note_on channel=0 note=44 velocity=0 time=120
note_on channel=0 note=77 velocity=0 time=0
note_on channel=0 note=80 velocity=0 time=0
note_on channel=0 note=41 velocity=53 time=0
note_on channel=0 note=41 velocity=0 time=120
note_on channel=0 note=48 velocity=49 time=0
note_on channel=0 note=48 velocity=0 time=120
note_on channel=0 note=44 velocity=49 time=0
note_on channel=0 note=44 velocity=0 time=0
note_on channel=0 note=77 velocity=70 time=0
note_on channel=0 note=80 velocity=70 time=0
note_on channel=0 note=41 velocity=49 time=0
note_on channel=0 note=41 velocity=0 time=0
note_on channel=0 note=80 velocity=0 time=0
note_on channel=0 note=77 velocity=0 time=0
note_on channel=0 note=77 velocity=75 time=0
note_on channel=0 note=80 velocity=75 time=0
note_on channel=0 note=36 velocity=53 time=0
control_change channel=0 control=64 value=0 time=17
control_change channel=0 control=64 value=127 time=75
note_on channel=0 note=36 velocity=0 time=28
note_on channel=0 note=41 velocity=49 time=0
note_on channel=0 note=41 velocity=0 time=120
note_on channel=0 note=44 velocity=49 time=0
note_on channel=0 note=44 velocity=0 time=120
note_on channel=0 note=48 velocity=49 time=0
note_on channel=0 note=48 velocity=0 time=120
note_on channel=0 note=47 velocity=53 time=0
control_change channel=0 control=64 value=0 time=15
control_change channel=0 control=64 value=127 time=88
note_on channel=0 note=47 velocity=0 time=17
note_on channel=0 note=48 velocity=49 time=0
note_on channel=0 note=48 velocity=0 time=120
note_on channel=0 note=47 velocity=49 time=0
note_on channel=0 note=47 velocity=0 time=120
note_on channel=0 note=48 velocity=49 time=0
note_on channel=0 note=48 velocity=0 time=120
note_on channel=0 note=80 velocity=0 time=0
note_on channel=0 note=77 velocity=0 time=0
note_on channel=0 note=76 velocity=68 time=0
note_on channel=0 note=79 velocity=68 time=0
note_on channel=0 note=47 velocity=53 time=0
control_change channel=0 control=64 value=0 time=12
control_change channel=0 control=64 value=127 time=63
note_on channel=0 note=47 velocity=0 time=45
note_on channel=0 note=48 velocity=49 time=0
note_on channel=0 note=48 velocity=0 time=120
note_on channel=0 note=79 velocity=0 time=0
note_on channel=0 note=76 velocity=0 time=0
note_on channel=0 note=43 velocity=49 time=0
note_on channel=0 note=43 velocity=0 time=120
note_on channel=0 note=48 velocity=49 time=0
note_on channel=0 note=48 velocity=0 time=120
note_on channel=0 note=40 velocity=53 time=0
note_on channel=0 note=40 velocity=0 time=120
note_on channel=0 note=48 velocity=49 time=0
note_on channel=0 note=48 velocity=0 time=120
note_on channel=0 note=43 velocity=49 time=0
note_on channel=0 note=43 velocity=0 time=120
note_on channel=0 note=48 velocity=49 time=0
note_on channel=0 note=48 velocity=0 time=0
note_on channel=0 note=36 velocity=56 time=0
control_change channel=0 control=64 value=0 time=18
control_change channel=0 control=64 value=127 time=39
note_on channel=0 note=36 velocity=0 time=63
note_on channel=0 note=40 velocity=49 time=0
note_on channel=0 note=40 velocity=0 time=120
note_on channel=0 note=43 velocity=49 time=0
note_on channel=0 note=43 velocity=0 time=120
note_on channel=0 note=48 velocity=49 time=0
note_on channel=0 note=48 velocity=0 time=120
note_on channel=0 note=40 velocity=53 time=0
note_on channel=0 note=40 velocity=0 time=120
note_on channel=0 note=43 velocity=49 time=0
note_on channel=0 note=43 velocity=0 time=120
note_on channel=0 note=48 velocity=49 time=0
note_on channel=0 note=48 velocity=0 time=0
note_on channel=0 note=82 velocity=69 time=0
note_on channel=0 note=79 velocity=69 time=0
note_on channel=0 note=52 velocity=49 time=0
note_on channel=0 note=52 velocity=0 time=0
note_on channel=0 note=79 velocity=0 time=0
note_on channel=0 note=82 velocity=0 time=0
note_on channel=0 note=82 velocity=74 time=0
note_on channel=0 note=79 velocity=74 time=0
note_on channel=0 note=43 velocity=53 time=0
control_change channel=0 control=64 value=0 time=14
control_change channel=0 control=64 value=127 time=55
note_on channel=0 note=43 velocity=0 time=51
note_on channel=0 note=48 velocity=49 time=0
note_on channel=0 note=48 velocity=0 time=120
note_on channel=0 note=52 velocity=49 time=0
note_on channel=0 note=52 velocity=0 time=120
note_on channel=0 note=55 velocity=49 time=0
note_on channel=0 note=55 velocity=0 time=120
note_on channel=0 note=79 velocity=0 time=0
note_on channel=0 note=82 velocity=0 time=0
note_on channel=0 note=48 velocity=53 time=0
note_on channel=0 note=48 velocity=0 time=120
note_on channel=0 note=52 velocity=49 time=0
note_on channel=0 note=52 velocity=0 time=120
note_on channel=0 note=55 velocity=49 time=0
note_on channel=0 note=55 velocity=0 time=0
note_on channel=0 note=79 velocity=70 time=0
note_on channel=0 note=82 velocity=70 time=0
note_on channel=0 note=60 velocity=49 time=0
note_on channel=0 note=60 velocity=0 time=0
note_on channel=0 note=82 velocity=0 time=0
note_on channel=0 note=79 velocity=0 time=0
note_on channel=0 note=82 velocity=75 time=0
note_on channel=0 note=79 velocity=75 time=0
note_on channel=0 note=53 velocity=59 time=0
control_change channel=0 control=64 value=0 time=11
control_change channel=0 control=64 value=127 time=69
note_on channel=0 note=53 velocity=0 time=40
note_on channel=0 note=56 velocity=49 time=0
note_on channel=0 note=56 velocity=0 time=120
note_on channel=0 note=60 velocity=49 time=0
note_on channel=0 note=60 velocity=0 time=120
note_on channel=0 note=65 velocity=49 time=0
note_on channel=0 note=65 velocity=0 time=120
note_on channel=0 note=64 velocity=53 time=0
control_change channel=0 control=64 value=0 time=18
control_change channel=0 control=64 value=127 time=62
note_on channel=0 note=64 velocity=0 time=40
note_on channel=0 note=65 velocity=49 time=0
note_on channel=0 note=65 velocity=0 time=120
note_on channel=0 note=64 velocity=49 time=0
note_on channel=0 note=64 velocity=0 time=120
note_on channel=0 note=65 velocity=49 time=0
note_on channel=0 note=65 velocity=0 time=120
note_on channel=0 note=79 velocity=0 time=0
note_on channel=0 note=82 velocity=0 time=0
note_on channel=0 note=80 velocity=68 time=0
note_on channel=0 note=77 velocity=68 time=0
note_on channel=0 note=64 velocity=53 time=0
control_change channel=0 control=64 value=0 time=9
control_change channel=0 control=64 value=127 time=54
note_on channel=0 note=64 velocity=0 time=57
note_on channel=0 note=65 velocity=49 time=0
note_on channel=0 note=65 velocity=0 time=120
note_on channel=0 note=77 velocity=0 time=0
note_on channel=0 note=80 velocity=0 time=0
note_on channel=0 note=60 velocity=49 time=0
note_on channel=0 note=60 velocity=0 time=120
note_on channel=0 note=65 velocity=49 time=0
note_on channel=0 note=65 velocity=0 time=120
note_on channel=0 note=56 velocity=53 time=0
note_on channel=0 note=56 velocity=0 time=120
note_on channel=0 note=65 velocity=49 time=0
note_on channel=0 note=65 velocity=0 time=120
note_on channel=0 note=60 velocity=49 time=0
note_on channel=0 note=60 velocity=0 time=120
note_on channel=0 note=65 velocity=49 time=0
note_on channel=0 note=65 velocity=0 time=0
note_on channel=0 note=53 velocity=61 time=0
control_change channel=0 control=64 value=0 time=12
control_change channel=0 control=64 value=127 time=68
note_on channel=0 note=53 velocity=0 time=40
note_on channel=0 note=57 velocity=53 time=0
note_on channel=0 note=57 velocity=0 time=120
note_on channel=0 note=60 velocity=53 time=0
note_on channel=0 note=60 velocity=0 time=120
note_on channel=0 note=65 velocity=53 time=0
note_on channel=0 note=65 velocity=0 time=120
note_on channel=0 note=57 velocity=58 time=0
note_on channel=0 note=57 velocity=0 time=120
note_on channel=0 note=60 velocity=53 time=0
note_on channel=0 note=60 velocity=0 time=120
note_on channel=0 note=65 velocity=53 time=0
note_on channel=0 note=65 velocity=0 time=0
note_on channel=0 note=84 velocity=82 time=0
note_on channel=0 note=87 velocity=82 time=0
note_on channel=0 note=69 velocity=53 time=0
note_on channel=0 note=69 velocity=0 time=0
note_on channel=0 note=87 velocity=0 time=0
note_on channel=0 note=84 velocity=0 time=0
note_on channel=0 note=87 velocity=89 time=0
note_on channel=0 note=84 velocity=89 time=0
note_on channel=0 note=60 velocity=58 time=0
control_change channel=0 control=64 value=0 time=8
control_change channel=0 control=64 value=127 time=56
control_change channel=0 control=64 value=127 time=22
note_on channel=0 note=60 velocity=0 time=34
note_on channel=0 note=65 velocity=53 time=0
note_on channel=0 note=65 velocity=0 time=120
note_on channel=0 note=69 velocity=53 time=0
note_on channel=0 note=69 velocity=0 time=120
note_on channel=0 note=72 velocity=53 time=0
note_on channel=0 note=72 velocity=0 time=120
note_on channel=0 note=84 velocity=0 time=0
note_on channel=0 note=87 velocity=0 time=0
note_on channel=0 note=65 velocity=58 time=0
note_on channel=0 note=65 velocity=0 time=120
note_on channel=0 note=69 velocity=53 time=0
note_on channel=0 note=69 velocity=0 time=120
note_on channel=0 note=72 velocity=53 time=0
note_on channel=0 note=72 velocity=0 time=0
note_on channel=0 note=84 velocity=84 time=0
note_on channel=0 note=87 velocity=84 time=0
note_on channel=0 note=77 velocity=53 time=0
note_on channel=0 note=77 velocity=0 time=0
note_on channel=0 note=87 velocity=0 time=0
note_on channel=0 note=84 velocity=0 time=0
note_on channel=0 note=87 velocity=90 time=0
note_on channel=0 note=84 velocity=90 time=0
note_on channel=0 note=69 velocity=67 time=0
control_change channel=0 control=64 value=0 time=13
control_change channel=0 control=64 value=127 time=67
note_on channel=0 note=69 velocity=0 time=40
note_on channel=0 note=77 velocity=53 time=0
note_on channel=0 note=77 velocity=0 time=120
note_on channel=0 note=76 velocity=53 time=0
note_on channel=0 note=76 velocity=0 time=120
note_on channel=0 note=77 velocity=53 time=0
note_on channel=0 note=77 velocity=0 time=120
note_on channel=0 note=69 velocity=58 time=0
note_on channel=0 note=69 velocity=0 time=120
note_on channel=0 note=77 velocity=53 time=0
note_on channel=0 note=77 velocity=0 time=120
note_on channel=0 note=69 velocity=53 time=0
note_on channel=0 note=69 velocity=0 time=120
note_on channel=0 note=77 velocity=53 time=0
note_on channel=0 note=77 velocity=0 time=120
note_on channel=0 note=69 velocity=57 time=0
control_change channel=0 control=64 value=0 time=23
control_change channel=0 control=64 value=127 time=40
note_on channel=0 note=69 velocity=0 time=57
note_on channel=0 note=77 velocity=56 time=0
note_on channel=0 note=77 velocity=0 time=0
note_on channel=0 note=84 velocity=0 time=0
note_on channel=0 note=87 velocity=0 time=0
note_on channel=0 note=85 velocity=79 time=0
note_on channel=0 note=82 velocity=79 time=0
note_on channel=0 note=70 velocity=56 time=0
note_on channel=0 note=70 velocity=0 time=120
note_on channel=0 note=77 velocity=55 time=0
note_on channel=0 note=77 velocity=0 time=120
note_on channel=0 note=82 velocity=0 time=0
note_on channel=0 note=85 velocity=0 time=0
note_on channel=0 note=80 velocity=77 time=0
note_on channel=0 note=84 velocity=77 time=0
note_on channel=0 note=72 velocity=54 time=0
note_on channel=0 note=72 velocity=0 time=120
note_on channel=0 note=77 velocity=53 time=0
note_on channel=0 note=77 velocity=0 time=120
note_on channel=0 note=84 velocity=0 time=0
note_on channel=0 note=80 velocity=0 time=0
note_on channel=0 note=79 velocity=73 time=0
note_on channel=0 note=82 velocity=73 time=0
note_on channel=0 note=73 velocity=52 time=0
note_on channel=0 note=73 velocity=0 time=120
note_on channel=0 note=77 velocity=52 time=0
note_on channel=0 note=77 velocity=0 time=0
note_on channel=0 note=82 velocity=0 time=0
note_on channel=0 note=79 velocity=0 time=0
note_on channel=0 note=77 velocity=82 time=0
note_on channel=0 note=80 velocity=82 time=0
note_on channel=0 note=60 velocity=52 time=0
control_change channel=0 control=64 value=0 time=18
control_change channel=0 control=64 value=127 time=68
note_on channel=0 note=60 velocity=0 time=34
note_on channel=0 note=65 velocity=47 time=0
note_on channel=0 note=65 velocity=0 time=120
note_on channel=0 note=68 velocity=47 time=0
note_on channel=0 note=68 velocity=0 time=120
note_on channel=0 note=72 velocity=47 time=0
note_on channel=0 note=72 velocity=0 time=120
note_on channel=0 note=80 velocity=0 time=0
note_on channel=0 note=77 velocity=0 time=0
note_on channel=0 note=71 velocity=52 time=0
note_on channel=0 note=71 velocity=0 time=120
note_on channel=0 note=72 velocity=47 time=0
note_on channel=0 note=72 velocity=0 time=120
note_on channel=0 note=71 velocity=47 time=0
note_on channel=0 note=71 velocity=0 time=0
note_on channel=0 note=77 velocity=79 time=0
note_on channel=0 note=89 velocity=79 time=0
note_on channel=0 note=80 velocity=79 time=0
note_on channel=0 note=72 velocity=47 time=0
note_on channel=0 note=72 velocity=0 time=0
note_on channel=0 note=77 velocity=0 time=0
note_on channel=0 note=89 velocity=0 time=0
note_on channel=0 note=80 velocity=0 time=0
note_on channel=0 note=79 velocity=82 time=0
note_on channel=0 note=91 velocity=82 time=0
note_on channel=0 note=82 velocity=82 time=0
note_on channel=0 note=60 velocity=52 time=0
control_change channel=0 control=64 value=0 time=6
control_change channel=0 control=64 value=127 time=80
note_on channel=0 note=60 velocity=0 time=34
note_on channel=0 note=64 velocity=47 time=0
note_on channel=0 note=64 velocity=0 time=120
note_on channel=0 note=67 velocity=47 time=0
note_on channel=0 note=67 velocity=0 time=120
note_on channel=0 note=72 velocity=47 time=0
note_on channel=0 note=72 velocity=0 time=120
note_on channel=0 note=82 velocity=0 time=0
note_on channel=0 note=91 velocity=0 time=0
note_on channel=0 note=79 velocity=0 time=0
note_on channel=0 note=60 velocity=52 time=0
note_on channel=0 note=60 velocity=0 time=120
note_on channel=0 note=67 velocity=47 time=0
note_on channel=0 note=67 velocity=0 time=120
note_on channel=0 note=70 velocity=47 time=0
note_on channel=0 note=70 velocity=0 time=0
note_on channel=0 note=76 velocity=79 time=0
note_on channel=0 note=88 velocity=79 time=0
note_on channel=0 note=79 velocity=79 time=0
note_on channel=0 note=72 velocity=47 time=0
note_on channel=0 note=72 velocity=0 time=0
note_on channel=0 note=76 velocity=0 time=0
note_on channel=0 note=88 velocity=0 time=0
note_on channel=0 note=79 velocity=0 time=0
note_on channel=0 note=77 velocity=73 time=0
note_on channel=0 note=89 velocity=73 time=0
note_on channel=0 note=80 velocity=73 time=0
note_on channel=0 note=53 velocity=52 time=0
control_change channel=0 control=64 value=0 time=19
control_change channel=0 control=64 value=127 time=87
note_on channel=0 note=53 velocity=0 time=0
note_on channel=0 note=77 velocity=0 time=0
note_on channel=0 note=89 velocity=0 time=0
note_on channel=0 note=80 velocity=0 time=0
note_on channel=0 note=72 velocity=61 time=0
note_on channel=0 note=65 velocity=38 time=0
note_on channel=0 note=68 velocity=38 time=0
note_on channel=0 note=68 velocity=0 time=20
note_on channel=0 note=65 velocity=0 time=0
note_on channel=0 note=72 velocity=0 time=0
note_on channel=0 note=77 velocity=62 time=0
note_on channel=0 note=60 velocity=39 time=0
note_on channel=0 note=72 velocity=39 time=0
note_on channel=0 note=72 velocity=0 time=40
note_on channel=0 note=60 velocity=0 time=0
note_on channel=0 note=77 velocity=0 time=0
note_on channel=0 note=80 velocity=63 time=0
note_on channel=0 note=68 velocity=41 time=0
note_on channel=0 note=65 velocity=41 time=0
note_on channel=0 note=65 velocity=0 time=40
note_on channel=0 note=68 velocity=0 time=0
note_on channel=0 note=80 velocity=0 time=0
note_on channel=0 note=84 velocity=68 time=0
note_on channel=0 note=72 velocity=45 time=0
note_on channel=0 note=60 velocity=45 time=0
note_on channel=0 note=60 velocity=0 time=60
note_on channel=0 note=72 velocity=0 time=0
note_on channel=0 note=84 velocity=0 time=0
note_on channel=0 note=85 velocity=65 time=0
note_on channel=0 note=68 velocity=44 time=0
note_on channel=0 note=65 velocity=44 time=0
note_on channel=0 note=65 velocity=0 time=80
note_on channel=0 note=68 velocity=0 time=0
note_on channel=0 note=85 velocity=0 time=0
note_on channel=0 note=84 velocity=66 time=0
note_on channel=0 note=72 velocity=45 time=0
note_on channel=0 note=60 velocity=45 time=0
note_on channel=0 note=60 velocity=0 time=80
note_on channel=0 note=72 velocity=0 time=0
note_on channel=0 note=84 velocity=0 time=0
note_on channel=0 note=82 velocity=65 time=0
note_on channel=0 note=68 velocity=45 time=0
note_on channel=0 note=65 velocity=45 time=0
note_on channel=0 note=65 velocity=0 time=0
note_on channel=0 note=68 velocity=0 time=0
note_on channel=0 note=82 velocity=0 time=0
note_on channel=0 note=80 velocity=68 time=0
note_on channel=0 note=72 velocity=46 time=0
note_on channel=0 note=60 velocity=46 time=0
control_change channel=0 control=64 value=0 time=14
control_change channel=0 control=64 value=127 time=32
note_on channel=0 note=60 velocity=0 time=0
note_on channel=0 note=72 velocity=0 time=0
note_on channel=0 note=80 velocity=0 time=0
note_on channel=0 note=82 velocity=67 time=0
note_on channel=0 note=68 velocity=46 time=0
note_on channel=0 note=65 velocity=46 time=0
note_on channel=0 note=65 velocity=0 time=20
note_on channel=0 note=68 velocity=0 time=0
note_on channel=0 note=82 velocity=0 time=0
note_on channel=0 note=80 velocity=66 time=0
note_on channel=0 note=72 velocity=45 time=0
note_on channel=0 note=60 velocity=45 time=0
note_on channel=0 note=60 velocity=0 time=20
note_on channel=0 note=72 velocity=0 time=0
note_on channel=0 note=80 velocity=0 time=0
note_on channel=0 note=79 velocity=65 time=0
note_on channel=0 note=68 velocity=45 time=0
note_on channel=0 note=65 velocity=45 time=0
note_on channel=0 note=65 velocity=0 time=40
note_on channel=0 note=68 velocity=0 time=0
note_on channel=0 note=79 velocity=0 time=0
note_on channel=0 note=77 velocity=64 time=0
note_on channel=0 note=72 velocity=45 time=0
note_on channel=0 note=60 velocity=45 time=0
note_on channel=0 note=60 velocity=0 time=0
note_on channel=0 note=72 velocity=0 time=0
note_on channel=0 note=77 velocity=0 time=0
note_on channel=0 note=79 velocity=63 time=0
note_on channel=0 note=68 velocity=44 time=0
note_on channel=0 note=65 velocity=44 time=0
note_on channel=0 note=65 velocity=0 time=20
note_on channel=0 note=68 velocity=0 time=0
note_on channel=0 note=79 velocity=0 time=0
note_on channel=0 note=80 velocity=63 time=0
note_on channel=0 note=72 velocity=44 time=0
note_on channel=0 note=60 velocity=44 time=0
note_on channel=0 note=60 velocity=0 time=20
note_on channel=0 note=72 velocity=0 time=0
note_on channel=0 note=80 velocity=0 time=0
note_on channel=0 note=77 velocity=62 time=0
note_on channel=0 note=68 velocity=43 time=0
note_on channel=0 note=65 velocity=43 time=0
note_on channel=0 note=65 velocity=0 time=0
note_on channel=0 note=68 velocity=0 time=0
note_on channel=0 note=77 velocity=0 time=0
note_on channel=0 note=53 velocity=54 time=0
control_change channel=0 control=64 value=0 time=18
control_change channel=0 control=64 value=127 time=33
note_on channel=0 note=53 velocity=0 time=7
note_on channel=0 note=72 velocity=61 time=0
note_on channel=0 note=68 velocity=38 time=0
note_on channel=0 note=65 velocity=38 time=0
note_on channel=0 note=65 velocity=0 time=60
note_on channel=0 note=68 velocity=0 time=0
note_on channel=0 note=72 velocity=0 time=0
note_on channel=0 note=77 velocity=62 time=0
note_on channel=0 note=72 velocity=39 time=0
note_on channel=0 note=60 velocity=39 time=0
note_on channel=0 note=60 velocity=0 time=0
note_on channel=0 note=72 velocity=0 time=0
note_on channel=0 note=77 velocity=0 time=0
note_on channel=0 note=80 velocity=63 time=0
note_on channel=0 note=68 velocity=41 time=0
note_on channel=0 note=65 velocity=41 time=0
note_on channel=0 note=65 velocity=0 time=40
note_on channel=0 note=68 velocity=0 time=0
note_on channel=0 note=80 velocity=0 time=0
note_on channel=0 note=84 velocity=68 time=0
note_on channel=0 note=72 velocity=45 time=0
note_on channel=0 note=60 velocity=45 time=0
note_on channel=0 note=60 velocity=0 time=80
note_on channel=0 note=72 velocity=0 time=0
note_on channel=0 note=84 velocity=0 time=0
note_on channel=0 note=85 velocity=65 time=0
note_on channel=0 note=68 velocity=44 time=0
note_on channel=0 note=65 velocity=44 time=0
note_on channel=0 note=65 velocity=0 time=20
note_on channel=0 note=68 velocity=0 time=0
note_on channel=0 note=85 velocity=0 time=0
note_on channel=0 note=84 velocity=66 time=0
note_on channel=0 note=60 velocity=45 time=0
note_on channel=0 note=72 velocity=45 time=0
note_on channel=0 note=72 velocity=0 time=40
note_on channel=0 note=60 velocity=0 time=0
note_on channel=0 note=84 velocity=0 time=0
note_on channel=0 note=82 velocity=65 time=0
note_on channel=0 note=65 velocity=45 time=0
note_on channel=0 note=68 velocity=45 time=0
note_on channel=0 note=68 velocity=0 time=0
note_on channel=0 note=65 velocity=0 time=0
note_on channel=0 note=82 velocity=0 time=0
note_on channel=0 note=80 velocity=68 time=0
note_on channel=0 note=72 velocity=46 time=0
note_on channel=0 note=60 velocity=46 time=0
control_change channel=0 control=64 value=0 time=14
control_change channel=0 control=64 value=127 time=5
note_on channel=0 note=60 velocity=0 time=35
note_on channel=0 note=72 velocity=0 time=0
note_on channel=0 note=80 velocity=0 time=0
note_on channel=0 note=82 velocity=67 time=0
note_on channel=0 note=68 velocity=46 time=0
note_on channel=0 note=65 velocity=46 time=0
note_on channel=0 note=65 velocity=0 time=20
note_on channel=0 note=68 velocity=0 time=0
note_on channel=0 note=82 velocity=0 time=0
note_on channel=0 note=80 velocity=66 time=0
note_on channel=0 note=72 velocity=45 time=0
note_on channel=0 note=60 velocity=45 time=0
note_on channel=0 note=60 velocity=0 time=0
note_on channel=0 note=72 velocity=0 time=0
note_on channel=0 note=80 velocity=0 time=0
note_on channel=0 note=79 velocity=65 time=0
note_on channel=0 note=68 velocity=45 time=0
note_on channel=0 note=65 velocity=45 time=0
note_on channel=0 note=65 velocity=0 time=40
note_on channel=0 note=68 velocity=0 time=0
note_on channel=0 note=79 velocity=0 time=0
note_on channel=0 note=77 velocity=64 time=0
note_on channel=0 note=72 velocity=45 time=0
note_on channel=0 note=60 velocity=45 time=0
note_on channel=0 note=60 velocity=0 time=20
note_on channel=0 note=72 velocity=0 time=0
note_on channel=0 note=77 velocity=0 time=0
note_on channel=0 note=79 velocity=63 time=0
note_on channel=0 note=68 velocity=44 time=0
note_on channel=0 note=65 velocity=44 time=0
note_on channel=0 note=65 velocity=0 time=0
note_on channel=0 note=68 velocity=0 time=0
note_on channel=0 note=79 velocity=0 time=0
note_on channel=0 note=80 velocity=63 time=0
note_on channel=0 note=72 velocity=44 time=0
note_on channel=0 note=60 velocity=44 time=0
note_on channel=0 note=60 velocity=0 time=60
note_on channel=0 note=72 velocity=0 time=0
note_on channel=0 note=80 velocity=0 time=0
note_on channel=0 note=77 velocity=62 time=0
note_on channel=0 note=68 velocity=43 time=0
note_on channel=0 note=65 velocity=43 time=0
note_on channel=0 note=65 velocity=0 time=0
note_on channel=0 note=68 velocity=0 time=0
note_on channel=0 note=77 velocity=0 time=0
note_on channel=0 note=43 velocity=55 time=0
control_change channel=0 control=64 value=0 time=12
control_change channel=0 control=64 value=127 time=6
note_on channel=0 note=43 velocity=0 time=20
note_on channel=0 note=77 velocity=64 time=0
note_on channel=0 note=55 velocity=40 time=0
note_on channel=0 note=53 velocity=40 time=0
note_on channel=0 note=53 velocity=0 time=60
note_on channel=0 note=55 velocity=0 time=0
note_on channel=0 note=77 velocity=0 time=0
note_on channel=0 note=83 velocity=65 time=0
note_on channel=0 note=59 velocity=41 time=0
note_on channel=0 note=50 velocity=41 time=0
note_on channel=0 note=50 velocity=0 time=20
note_on channel=0 note=59 velocity=0 time=0
note_on channel=0 note=83 velocity=0 time=0
note_on channel=0 note=86 velocity=66 time=0
note_on channel=0 note=55 velocity=43 time=0
note_on channel=0 note=53 velocity=43 time=0
note_on channel=0 note=53 velocity=0 time=60
note_on channel=0 note=55 velocity=0 time=0
note_on channel=0 note=86 velocity=0 time=0
note_on channel=0 note=89 velocity=72 time=0
note_on channel=0 note=59 velocity=47 time=0
note_on channel=0 note=50 velocity=47 time=0
note_on channel=0 note=50 velocity=0 time=40
note_on channel=0 note=59 velocity=0 time=0
note_on channel=0 note=89 velocity=0 time=0
note_on channel=0 note=91 velocity=69 time=0
note_on channel=0 note=55 velocity=46 time=0
note_on channel=0 note=53 velocity=46 time=0
note_on channel=0 note=53 velocity=0 time=0
note_on channel=0 note=55 velocity=0 time=0
note_on channel=0 note=91 velocity=0 time=0
note_on channel=0 note=89 velocity=70 time=0
note_on channel=0 note=50 velocity=47 time=0
note_on channel=0 note=59 velocity=47 time=0
note_on channel=0 note=59 velocity=0 time=40
note_on channel=0 note=50 velocity=0 time=0
note_on channel=0 note=89 velocity=0 time=0
note_on channel=0 note=87 velocity=69 time=0
note_on channel=0 note=53 velocity=48 time=0
note_on channel=0 note=55 velocity=48 time=0
note_on channel=0 note=55 velocity=0 time=20
note_on channel=0 note=53 velocity=0 time=0
note_on channel=0 note=87 velocity=0 time=0
note_on channel=0 note=86 velocity=72 time=0
note_on channel=0 note=50 velocity=49 time=0
note_on channel=0 note=59 velocity=49 time=0
control_change channel=0 control=64 value=0 time=9
control_change channel=0 control=64 value=127 time=20
note_on channel=0 note=59 velocity=0 time=0
note_on channel=0 note=50 velocity=0 time=0
note_on channel=0 note=86 velocity=0 time=0
note_on channel=0 note=87 velocity=71 time=0
note_on channel=0 note=56 velocity=49 time=0
note_on channel=0 note=53 velocity=49 time=0
note_on channel=0 note=53 velocity=0 time=40
note_on channel=0 note=56 velocity=0 time=0
note_on channel=0 note=87 velocity=0 time=0
note_on channel=0 note=86 velocity=70 time=0
note_on channel=0 note=59 velocity=48 time=0
note_on channel=0 note=50 velocity=48 time=0
note_on channel=0 note=50 velocity=0 time=40
note_on channel=0 note=59 velocity=0 time=0
note_on channel=0 note=86 velocity=0 time=0
note_on channel=0 note=84 velocity=69 time=0
note_on channel=0 note=56 velocity=47 time=0
note_on channel=0 note=53 velocity=47 time=0
note_on channel=0 note=53 velocity=0 time=20
note_on channel=0 note=56 velocity=0 time=0
note_on channel=0 note=84 velocity=0 time=0
note_on channel=0 note=83 velocity=68 time=0
note_on channel=0 note=50 velocity=47 time=0
note_on channel=0 note=59 velocity=47 time=0
note_on channel=0 note=59 velocity=0 time=0
note_on channel=0 note=50 velocity=0 time=0
note_on channel=0 note=83 velocity=0 time=0
note_on channel=0 note=84 velocity=67 time=0
note_on channel=0 note=53 velocity=46 time=0
note_on channel=0 note=55 velocity=46 time=0
note_on channel=0 note=55 velocity=0 time=0
note_on channel=0 note=53 velocity=0 time=0
note_on channel=0 note=84 velocity=0 time=0
note_on channel=0 note=86 velocity=66 time=0
note_on channel=0 note=50 velocity=46 time=0
note_on channel=0 note=59 velocity=46 time=0
note_on channel=0 note=59 velocity=0 time=40
note_on channel=0 note=50 velocity=0 time=0
note_on channel=0 note=86 velocity=0 time=0
note_on channel=0 note=83 velocity=65 time=0
note_on channel=0 note=53 velocity=45 time=0
note_on channel=0 note=55 velocity=45 time=0
note_on channel=0 note=55 velocity=0 time=0
note_on channel=0 note=53 velocity=0 time=0
note_on channel=0 note=83 velocity=0 time=0
note_on channel=0 note=43 velocity=54 time=0
control_change channel=0 control=64 value=0 time=10
control_change channel=0 control=64 value=127 time=42
note_on channel=0 note=43 velocity=0 time=40
note_on channel=0 note=77 velocity=64 time=0
note_on channel=0 note=53 velocity=40 time=0
note_on channel=0 note=55 velocity=40 time=0
note_on channel=0 note=55 velocity=0 time=60
note_on channel=0 note=53 velocity=0 time=0
note_on channel=0 note=77 velocity=0 time=0
note_on channel=0 note=83 velocity=65 time=0
note_on channel=0 note=50 velocity=41 time=0
note_on channel=0 note=59 velocity=41 time=0
note_on channel=0 note=59 velocity=0 time=0
note_on channel=0 note=50 velocity=0 time=0
note_on channel=0 note=83 velocity=0 time=0
note_on channel=0 note=86 velocity=66 time=0
note_on channel=0 note=53 velocity=43 time=0
note_on channel=0 note=55 velocity=43 time=0
note_on channel=0 note=55 velocity=0 time=40
note_on channel=0 note=53 velocity=0 time=0
note_on channel=0 note=86 velocity=0 time=0
note_on channel=0 note=89 velocity=72 time=0
note_on channel=0 note=50 velocity=47 time=0
note_on channel=0 note=59 velocity=47 time=0
note_on channel=0 note=59 velocity=0 time=80
note_on channel=0 note=50 velocity=0 time=0
note_on channel=0 note=89 velocity=0 time=0
note_on channel=0 note=91 velocity=69 time=0
note_on channel=0 note=53 velocity=46 time=0
note_on channel=0 note=55 velocity=46 time=0
note_on channel=0 note=55 velocity=0 time=20
note_on channel=0 note=53 velocity=0 time=0
note_on channel=0 note=91 velocity=0 time=0
note_on channel=0 note=89 velocity=70 time=0
note_on channel=0 note=50 velocity=47 time=0
note_on channel=0 note=59 velocity=47 time=0
note_on channel=0 note=59 velocity=0 time=40
note_on channel=0 note=50 velocity=0 time=0
note_on channel=0 note=89 velocity=0 time=0
note_on channel=0 note=87 velocity=69 time=0
note_on channel=0 note=55 velocity=48 time=0
note_on channel=0 note=53 velocity=48 time=0
note_on channel=0 note=53 velocity=0 time=0
note_on channel=0 note=55 velocity=0 time=0
note_on channel=0 note=87 velocity=0 time=0
note_on channel=0 note=86 velocity=72 time=0
note_on channel=0 note=59 velocity=49 time=0
note_on channel=0 note=50 velocity=49 time=0
control_change channel=0 control=64 value=0 time=18
control_change channel=0 control=64 value=127 time=39
note_on channel=0 note=50 velocity=0 time=0
note_on channel=0 note=59 velocity=0 time=0
note_on channel=0 note=86 velocity=0 time=0
note_on channel=0 note=87 velocity=71 time=0
note_on channel=0 note=53 velocity=49 time=0
note_on channel=0 note=56 velocity=49 time=0
note_on channel=0 note=56 velocity=0 time=0
note_on channel=0 note=53 velocity=0 time=0
note_on channel=0 note=87 velocity=0 time=0
note_on channel=0 note=86 velocity=70 time=0
note_on channel=0 note=50 velocity=48 time=0
note_on channel=0 note=59 velocity=48 time=0
note_on channel=0 note=59 velocity=0 time=0
note_on channel=0 note=50 velocity=0 time=0
note_on channel=0 note=86 velocity=0 time=0
note_on channel=0 note=84 velocity=69 time=0
note_on channel=0 note=53 velocity=47 time=0
note_on channel=0 note=56 velocity=47 time=0
note_on channel=0 note=56 velocity=0 time=20
note_on channel=0 note=53 velocity=0 time=0
note_on channel=0 note=84 velocity=0 time=0
note_on channel=0 note=83 velocity=68 time=0
note_on channel=0 note=50 velocity=47 time=0
note_on channel=0 note=59 velocity=47 time=0
note_on channel=0 note=59 velocity=0 time=20
note_on channel=0 note=50 velocity=0 time=0
note_on channel=0 note=83 velocity=0 time=0
note_on channel=0 note=84 velocity=67 time=0
note_on channel=0 note=55 velocity=46 time=0
note_on channel=0 note=53 velocity=46 time=0
note_on channel=0 note=53 velocity=0 time=20
note_on channel=0 note=55 velocity=0 time=0
note_on channel=0 note=84 velocity=0 time=0
note_on channel=0 note=86 velocity=66 time=0
note_on channel=0 note=59 velocity=46 time=0
note_on channel=0 note=50 velocity=46 time=0
note_on channel=0 note=50 velocity=0 time=20
note_on channel=0 note=59 velocity=0 time=0
note_on channel=0 note=86 velocity=0 time=0
note_on channel=0 note=83 velocity=65 time=0
note_on channel=0 note=55 velocity=45 time=0
note_on channel=0 note=53 velocity=45 time=0
note_on channel=0 note=53 velocity=0 time=0
note_on channel=0 note=55 velocity=0 time=0
note_on channel=0 note=83 velocity=0 time=0
note_on channel=0 note=48 velocity=56 time=0
control_change channel=0 control=64 value=0 time=15
control_change channel=0 control=64 value=127 time=56
note_on channel=0 note=48 velocity=0 time=40
note_on channel=0 note=79 velocity=67 time=0
note_on channel=0 note=60 velocity=42 time=0
note_on channel=0 note=63 velocity=42 time=0
note_on channel=0 note=63 velocity=0 time=60
note_on channel=0 note=60 velocity=0 time=0
note_on channel=0 note=79 velocity=0 time=0
note_on channel=0 note=84 velocity=68 time=0
note_on channel=0 note=55 velocity=43 time=0
note_on channel=0 note=67 velocity=43 time=0
note_on channel=0 note=67 velocity=0 time=0
note_on channel=0 note=55 velocity=0 time=0
note_on channel=0 note=84 velocity=0 time=0
note_on channel=0 note=87 velocity=69 time=0
note_on channel=0 note=63 velocity=45 time=0
note_on channel=0 note=60 velocity=45 time=0
note_on channel=0 note=60 velocity=0 time=40
note_on channel=0 note=63 velocity=0 time=0
note_on channel=0 note=87 velocity=0 time=0
note_on channel=0 note=91 velocity=75 time=0
note_on channel=0 note=67 velocity=49 time=0
note_on channel=0 note=55 velocity=49 time=0
note_on channel=0 note=55 velocity=0 time=80
note_on channel=0 note=67 velocity=0 time=0
note_on channel=0 note=91 velocity=0 time=0
note_on channel=0 note=92 velocity=72 time=0
note_on channel=0 note=63 velocity=48 time=0
note_on channel=0 note=60 velocity=48 time=0
note_on channel=0 note=60 velocity=0 time=20
note_on channel=0 note=63 velocity=0 time=0
note_on channel=0 note=92 velocity=0 time=0
note_on channel=0 note=91 velocity=73 time=0
note_on channel=0 note=67 velocity=49 time=0
note_on channel=0 note=55 velocity=49 time=0
note_on channel=0 note=55 velocity=0 time=40
note_on channel=0 note=67 velocity=0 time=0
note_on channel=0 note=91 velocity=0 time=0
note_on channel=0 note=89 velocity=72 time=0
note_on channel=0 note=63 velocity=50 time=0
note_on channel=0 note=60 velocity=50 time=0
note_on channel=0 note=60 velocity=0 time=0
note_on channel=0 note=63 velocity=0 time=0
note_on channel=0 note=89 velocity=0 time=0
note_on channel=0 note=87 velocity=75 time=0
note_on channel=0 note=67 velocity=51 time=0
note_on channel=0 note=55 velocity=51 time=0
control_change channel=0 control=64 value=0 time=15
control_change channel=0 control=64 value=127 time=42
note_on channel=0 note=55 velocity=0 time=0
note_on channel=0 note=67 velocity=0 time=0
note_on channel=0 note=87 velocity=0 time=0
note_on channel=0 note=89 velocity=74 time=0
note_on channel=0 note=63 velocity=51 time=0
note_on channel=0 note=60 velocity=51 time=0
note_on channel=0 note=60 velocity=0 time=0
note_on channel=0 note=63 velocity=0 time=0
note_on channel=0 note=89 velocity=0 time=0
note_on channel=0 note=87 velocity=73 time=0
note_on channel=0 note=67 velocity=50 time=0
note_on channel=0 note=55 velocity=50 time=0
note_on channel=0 note=55 velocity=0 time=0
note_on channel=0 note=67 velocity=0 time=0
note_on channel=0 note=87 velocity=0 time=0
note_on channel=0 note=86 velocity=72 time=0
note_on channel=0 note=60 velocity=49 time=0
note_on channel=0 note=63 velocity=49 time=0
note_on channel=0 note=63 velocity=0 time=20
note_on channel=0 note=60 velocity=0 time=0
note_on channel=0 note=86 velocity=0 time=0
note_on channel=0 note=84 velocity=71 time=0
note_on channel=0 note=55 velocity=49 time=0
note_on channel=0 note=67 velocity=49 time=0
note_on channel=0 note=67 velocity=0 time=20
note_on channel=0 note=55 velocity=0 time=0
note_on channel=0 note=84 velocity=0 time=0
note_on channel=0 note=86 velocity=70 time=0
note_on channel=0 note=63 velocity=48 time=0
note_on channel=0 note=60 velocity=48 time=0
note_on channel=0 note=60 velocity=0 time=20
note_on channel=0 note=63 velocity=0 time=0
note_on channel=0 note=86 velocity=0 time=0
note_on channel=0 note=87 velocity=69 time=0
note_on channel=0 note=67 velocity=48 time=0
note_on channel=0 note=55 velocity=48 time=0
note_on channel=0 note=55 velocity=0 time=20
note_on channel=0 note=67 velocity=0 time=0
note_on channel=0 note=87 velocity=0 time=0
note_on channel=0 note=84 velocity=68 time=0
note_on channel=0 note=63 velocity=47 time=0
note_on channel=0 note=60 velocity=47 time=0
note_on channel=0 note=60 velocity=0 time=0
note_on channel=0 note=63 velocity=0 time=0
note_on channel=0 note=84 velocity=0 time=0
note_on channel=0 note=48 velocity=56 time=0
control_change channel=0 control=64 value=0 time=14
control_change channel=0 control=64 value=127 time=19
note_on channel=0 note=79 velocity=67 time=21
note_on channel=0 note=79 velocity=0 time=60
note_on channel=0 note=48 velocity=0 time=0
note_on channel=0 note=84 velocity=68 time=0
note_on channel=0 note=67 velocity=43 time=0
note_on channel=0 note=67 velocity=0 time=0
note_on channel=0 note=84 velocity=0 time=0
note_on channel=0 note=87 velocity=69 time=0
note_on channel=0 note=63 velocity=45 time=0
note_on channel=0 note=63 velocity=0 time=40
note_on channel=0 note=87 velocity=0 time=0
note_on channel=0 note=91 velocity=76 time=0
note_on channel=0 note=72 velocity=49 time=0
note_on channel=0 note=72 velocity=0 time=80
note_on channel=0 note=91 velocity=0 time=0
note_on channel=0 note=92 velocity=74 time=0
note_on channel=0 note=67 velocity=49 time=0
note_on channel=0 note=67 velocity=0 time=20
note_on channel=0 note=92 velocity=0 time=0
note_on channel=0 note=91 velocity=75 time=0
note_on channel=0 note=72 velocity=50 time=0
note_on channel=0 note=72 velocity=0 time=40
note_on channel=0 note=91 velocity=0 time=0
note_on channel=0 note=89 velocity=74 time=0
note_on channel=0 note=67 velocity=52 time=0
note_on channel=0 note=67 velocity=0 time=0
note_on channel=0 note=89 velocity=0 time=0
note_on channel=0 note=87 velocity=78 time=0
note_on channel=0 note=75 velocity=53 time=0
control_change channel=0 control=64 value=0 time=13
control_change channel=0 control=64 value=127 time=15
note_on channel=0 note=75 velocity=0 time=0
note_on channel=0 note=87 velocity=0 time=0
note_on channel=0 note=89 velocity=77 time=0
note_on channel=0 note=72 velocity=53 time=0
note_on channel=0 note=72 velocity=0 time=0
note_on channel=0 note=89 velocity=0 time=0
note_on channel=0 note=87 velocity=77 time=0
note_on channel=0 note=75 velocity=53 time=0
note_on channel=0 note=75 velocity=0 time=0
note_on channel=0 note=87 velocity=0 time=0
note_on channel=0 note=86 velocity=76 time=0
note_on channel=0 note=72 velocity=51 time=0
note_on channel=0 note=72 velocity=0 time=20
note_on channel=0 note=86 velocity=0 time=0
note_on channel=0 note=84 velocity=75 time=0
note_on channel=0 note=79 velocity=52 time=0
note_on channel=0 note=79 velocity=0 time=20
note_on channel=0 note=84 velocity=0 time=0
note_on channel=0 note=86 velocity=75 time=0
note_on channel=0 note=75 velocity=51 time=0
note_on channel=0 note=75 velocity=0 time=20
note_on channel=0 note=86 velocity=0 time=0
note_on channel=0 note=87 velocity=74 time=0
note_on channel=0 note=79 velocity=51 time=0
note_on channel=0 note=79 velocity=0 time=20
note_on channel=0 note=87 velocity=0 time=0
note_on channel=0 note=84 velocity=74 time=0
note_on channel=0 note=75 velocity=51 time=0
note_on channel=0 note=75 velocity=0 time=0
note_on channel=0 note=84 velocity=0 time=0
note_on channel=0 note=77 velocity=80 time=0
note_on channel=0 note=80 velocity=80 time=0
control_change channel=0 control=64 value=0 time=11
control_change channel=0 control=64 value=127 time=102
note_on channel=0 note=85 velocity=70 time=7
note_on channel=0 note=85 velocity=0 time=120
note_on channel=0 note=87 velocity=73 time=0
note_on channel=0 note=87 velocity=0 time=120
note_on channel=0 note=85 velocity=70 time=0
note_on channel=0 note=85 velocity=0 time=120
note_on channel=0 note=87 velocity=65 time=0
note_on channel=0 note=87 velocity=0 time=120
note_on channel=0 note=85 velocity=63 time=0
note_on channel=0 note=85 velocity=0 time=0
note_on channel=0 note=80 velocity=0 time=0
note_on channel=0 note=77 velocity=0 time=0
note_on channel=0 note=84 velocity=59 time=0
note_on channel=0 note=79 velocity=66 time=0
note_on channel=0 note=75 velocity=66 time=0
note_on channel=0 note=84 velocity=0 time=120
note_on channel=0 note=85 velocity=59 time=0
note_on channel=0 note=85 velocity=0 time=120
note_on channel=0 note=75 velocity=0 time=0
note_on channel=0 note=79 velocity=0 time=0
note_on channel=0 note=74 velocity=68 time=0
note_on channel=0 note=77 velocity=68 time=0
control_change channel=0 control=64 value=0 time=10
control_change channel=0 control=64 value=127 time=47
note_on channel=0 note=83 velocity=58 time=63
note_on channel=0 note=83 velocity=0 time=120
note_on channel=0 note=84 velocity=60 time=0
note_on channel=0 note=84 velocity=0 time=120
note_on channel=0 note=83 velocity=57 time=0
note_on channel=0 note=83 velocity=0 time=120
note_on channel=0 note=77 velocity=0 time=0
note_on channel=0 note=74 velocity=0 time=0
note_on channel=0 note=75 velocity=64 time=0
note_on channel=0 note=79 velocity=64 time=0
control_change channel=0 control=64 value=0 time=17
control_change channel=0 control=64 value=127 time=75
note_on channel=0 note=84 velocity=57 time=28
note_on channel=0 note=84 velocity=0 time=120
note_on channel=0 note=86 velocity=60 time=0
note_on channel=0 note=86 velocity=0 time=120
note_on channel=0 note=84 velocity=56 time=0
note_on channel=0 note=84 velocity=0 time=0
note_on channel=0 note=79 velocity=0 time=0
note_on channel=0 note=75 velocity=0 time=0
note_on channel=0 note=80 velocity=80 time=0
note_on channel=0 note=77 velocity=80 time=0
control_change channel=0 control=64 value=0 time=8
control_change channel=0 control=64 value=127 time=84
note_on channel=0 note=85 velocity=70 time=28
note_on channel=0 note=85 velocity=0 time=120
note_on channel=0 note=87 velocity=73 time=0
note_on channel=0 note=87 velocity=0 time=120
note_on channel=0 note=85 velocity=70 time=0
note_on channel=0 note=85 velocity=0 time=120
note_on channel=0 note=87 velocity=65 time=0
note_on channel=0 note=87 velocity=0 time=120
note_on channel=0 note=85 velocity=63 time=0
note_on channel=0 note=85 velocity=0 time=0
note_on channel=0 note=77 velocity=0 time=0
note_on channel=0 note=80 velocity=0 time=0
note_on channel=0 note=84 velocity=59 time=0
note_on channel=0 note=79 velocity=66 time=0
note_on channel=0 note=75 velocity=66 time=0
note_on channel=0 note=84 velocity=0 time=120
note_on channel=0 note=85 velocity=59 time=0
note_on channel=0 note=85 velocity=0 time=120
note_on channel=0 note=75 velocity=0 time=0
note_on channel=0 note=79 velocity=0 time=0
note_on channel=0 note=77 velocity=68 time=0
note_on channel=0 note=74 velocity=68 time=0
control_change channel=0 control=64 value=0 time=10
control_change channel=0 control=64 value=127 time=70
note_on channel=0 note=83 velocity=58 time=40
note_on channel=0 note=83 velocity=0 time=120
note_on channel=0 note=84 velocity=60 time=0
note_on channel=0 note=84 velocity=0 time=120
note_on channel=0 note=83 velocity=57 time=0
note_on channel=0 note=83 velocity=0 time=120
note_on channel=0 note=74 velocity=0 time=0
note_on channel=0 note=77 velocity=0 time=0
note_on channel=0 note=79 velocity=64 time=0
note_on channel=0 note=75 velocity=64 time=0
control_change channel=0 control=64 value=0 time=16
control_change channel=0 control=64 value=127 time=64
note_on channel=0 note=84 velocity=57 time=40
note_on channel=0 note=84 velocity=0 time=120
note_on channel=0 note=86 velocity=60 time=0
note_on channel=0 note=86 velocity=0 time=120
note_on channel=0 note=84 velocity=56 time=0
note_on channel=0 note=84 velocity=0 time=0
note_on channel=0 note=75 velocity=0 time=0
note_on channel=0 note=79 velocity=0 time=0
note_on channel=0 note=77 velocity=80 time=0
note_on channel=0 note=80 velocity=80 time=0
control_change channel=0 control=64 value=0 time=17
control_change channel=0 control=64 value=127 time=82
note_on channel=0 note=85 velocity=70 time=21
note_on channel=0 note=85 velocity=0 time=120
note_on channel=0 note=87 velocity=73 time=0
note_on channel=0 note=87 velocity=0 time=120
note_on channel=0 note=85 velocity=70 time=0
note_on channel=0 note=85 velocity=0 time=120
note_on channel=0 note=87 velocity=73 time=0
note_on channel=0 note=87 velocity=0 time=120
note_on channel=0 note=85 velocity=70 time=0
note_on channel=0 note=85 velocity=0 time=0
note_on channel=0 note=80 velocity=0 time=0
note_on channel=0 note=77 velocity=0 time=0
note_on channel=0 note=84 velocity=59 time=0
note_on channel=0 note=79 velocity=66 time=0
note_on channel=0 note=75 velocity=66 time=0
note_on channel=0 note=84 velocity=0 time=120
note_on channel=0 note=86 velocity=59 time=0
note_on channel=0 note=86 velocity=0 time=120
note_on channel=0 note=75 velocity=0 time=0
note_on channel=0 note=79 velocity=0 time=0
note_on channel=0 note=74 velocity=68 time=0
note_on channel=0 note=77 velocity=68 time=0
control_change channel=0 control=64 value=0 time=10
control_change channel=0 control=64 value=127 time=65
note_on channel=0 note=83 velocity=58 time=45
note_on channel=0 note=83 velocity=0 time=120
note_on channel=0 note=84 velocity=60 time=0
note_on channel=0 note=84 velocity=0 time=120
note_on channel=0 note=83 velocity=58 time=0
note_on channel=0 note=83 velocity=0 time=120
note_on channel=0 note=77 velocity=0 time=0
note_on channel=0 note=74 velocity=0 time=0
note_on channel=0 note=72 velocity=65 time=0
note_on channel=0 note=75 velocity=65 time=0
control_change channel=0 control=64 value=0 time=18
control_change channel=0 control=64 value=127 time=74
note_on channel=0 note=80 velocity=58 time=28
note_on channel=0 note=80 velocity=0 time=120
note_on channel=0 note=82 velocity=61 time=0
note_on channel=0 note=82 velocity=0 time=120
note_on channel=0 note=80 velocity=57 time=0
note_on channel=0 note=80 velocity=0 time=120
note_on channel=0 note=75 velocity=0 time=0
note_on channel=0 note=72 velocity=0 time=0
note_on channel=0 note=71 velocity=70 time=0
note_on channel=0 note=74 velocity=70 time=0
control_change channel=0 control=64 value=0 time=11
control_change channel=0 control=64 value=127 time=75
note_on channel=0 note=79 velocity=60 time=34
note_on channel=0 note=79 velocity=0 time=120
note_on channel=0 note=80 velocity=62 time=0
note_on channel=0 note=80 velocity=0 time=120
note_on channel=0 note=79 velocity=60 time=0
note_on channel=0 note=79 velocity=0 time=120
note_on channel=0 note=74 velocity=0 time=0
note_on channel=0 note=71 velocity=0 time=0
note_on channel=0 note=72 velocity=70 time=0
note_on channel=0 note=69 velocity=70 time=0
control_change channel=0 control=64 value=0 time=18
control_change channel=0 control=64 value=127 time=68
note_on channel=0 note=78 velocity=61 time=34
note_on channel=0 note=78 velocity=0 time=120
note_on channel=0 note=79 velocity=65 time=0
note_on channel=0 note=79 velocity=0 time=120
note_on channel=0 note=78 velocity=62 time=0
note_on channel=0 note=78 velocity=0 time=120
note_on channel=0 note=69 velocity=0 time=0
note_on channel=0 note=72 velocity=0 time=0
note_on channel=0 note=72 velocity=75 time=0
note_on channel=0 note=68 velocity=75 time=0
control_change channel=0 control=64 value=0 time=20
control_change channel=0 control=64 value=127 time=58
note_on channel=0 note=77 velocity=65 time=42
note_on channel=0 note=77 velocity=0 time=120
note_on channel=0 note=79 velocity=67 time=0
note_on channel=0 note=79 velocity=0 time=120
note_on channel=0 note=77 velocity=64 time=0
note_on channel=0 note=77 velocity=0 time=120
note_on channel=0 note=68 velocity=0 time=0
note_on channel=0 note=72 velocity=0 time=0
note_on channel=0 note=72 velocity=75 time=0
note_on channel=0 note=67 velocity=75 time=0
control_change channel=0 control=64 value=0 time=17
control_change channel=0 control=64 value=127 time=75
note_on channel=0 note=75 velocity=66 time=28
note_on channel=0 note=75 velocity=0 time=120
note_on channel=0 note=77 velocity=69 time=0
note_on channel=0 note=77 velocity=0 time=120
note_on channel=0 note=75 velocity=67 time=0
note_on channel=0 note=75 velocity=0 time=120
note_on channel=0 note=67 velocity=0 time=0
note_on channel=0 note=72 velocity=0 time=0
note_on channel=0 note=66 velocity=76 time=0
control_change channel=0 control=64 value=0 time=7
control_change channel=0 control=64 value=127 time=85
note_on channel=0 note=75 velocity=67 time=28
note_on channel=0 note=75 velocity=0 time=120
note_on channel=0 note=77 velocity=70 time=0
note_on channel=0 note=77 velocity=0 time=120
note_on channel=0 note=75 velocity=68 time=0
note_on channel=0 note=75 velocity=0 time=120
note_on channel=0 note=68 velocity=75 time=0
control_change channel=0 control=64 value=0 time=15
control_change channel=0 control=64 value=127 time=71
note_on channel=0 note=74 velocity=66 time=34
note_on channel=0 note=74 velocity=0 time=120
note_on channel=0 note=75 velocity=69 time=0
note_on channel=0 note=75 velocity=0 time=120
note_on channel=0 note=74 velocity=64 time=0
note_on channel=0 note=74 velocity=0 time=120
note_on channel=0 note=68 velocity=0 time=0
note_on channel=0 note=66 velocity=0 time=0
note_on channel=0 note=55 velocity=72 time=0
note_on channel=0 note=63 velocity=72 time=0
note_on channel=0 note=67 velocity=72 time=0
control_change channel=0 control=64 value=0 time=17
control_change channel=0 control=64 value=127 time=52
note_on channel=0 note=72 velocity=64 time=51
note_on channel=0 note=72 velocity=0 time=120
note_on channel=0 note=74 velocity=65 time=0
note_on channel=0 note=74 velocity=0 time=120
note_on channel=0 note=72 velocity=62 time=0
note_on channel=0 note=72 velocity=0 time=120
note_on channel=0 note=63 velocity=0 time=0
note_on channel=0 note=62 velocity=68 time=0
control_change channel=0 control=64 value=0 time=11
control_change channel=0 control=64 value=127 time=92
note_on channel=0 note=71 velocity=60 time=17
note_on channel=0 note=71 velocity=0 time=120
note_on channel=0 note=72 velocity=62 time=0
note_on channel=0 note=72 velocity=0 time=120
note_on channel=0 note=71 velocity=57 time=0
note_on channel=0 note=71 velocity=0 time=0
note_on channel=0 note=55 velocity=0 time=0
note_on channel=0 note=67 velocity=0 time=0
note_on channel=0 note=62 velocity=0 time=0
note_on channel=0 note=53 velocity=61 time=0
note_on channel=0 note=61 velocity=72 time=0
note_on channel=0 note=56 velocity=61 time=0
control_change channel=0 control=64 value=0 time=17
control_change channel=0 control=64 value=127 time=61
note_on channel=0 note=68 velocity=66 time=42
note_on channel=0 note=68 velocity=0 time=120
note_on channel=0 note=80 velocity=73 time=0
note_on channel=0 note=80 velocity=0 time=120
note_on channel=0 note=68 velocity=59 time=0
note_on channel=0 note=68 velocity=0 time=120
note_on channel=0 note=80 velocity=71 time=0
note_on channel=0 note=80 velocity=0 time=120
note_on channel=0 note=68 velocity=58 time=0
note_on channel=0 note=68 velocity=0 time=0
note_on channel=0 note=53 velocity=0 time=0
note_on channel=0 note=61 velocity=0 time=0
note_on channel=0 note=56 velocity=0 time=0
note_on channel=0 note=80 velocity=63 time=0
note_on channel=0 note=55 velocity=50 time=0
note_on channel=0 note=60 velocity=59 time=0
note_on channel=0 note=51 velocity=50 time=0
note_on channel=0 note=80 velocity=0 time=120
note_on channel=0 note=68 velocity=59 time=0
note_on channel=0 note=68 velocity=0 time=120
note_on channel=0 note=51 velocity=0 time=0
note_on channel=0 note=60 velocity=0 time=0
note_on channel=0 note=55 velocity=0 time=0
note_on channel=0 note=50 velocity=51 time=0
note_on channel=0 note=53 velocity=54 time=0
note_on channel=0 note=59 velocity=64 time=0
control_change channel=0 control=64 value=0 time=12
control_change channel=0 control=64 value=127 time=68
note_on channel=0 note=68 velocity=60 time=40
note_on channel=0 note=68 velocity=0 time=120
note_on channel=0 note=80 velocity=71 time=0
note_on channel=0 note=80 velocity=0 time=120
note_on channel=0 note=79 velocity=66 time=0
note_on channel=0 note=79 velocity=0 time=120
note_on channel=0 note=50 velocity=0 time=0
note_on channel=0 note=53 velocity=0 time=0
note_on channel=0 note=59 velocity=0 time=0
note_on channel=0 note=77 velocity=68 time=0
note_on channel=0 note=55 velocity=48 time=0
note_on channel=0 note=60 velocity=57 time=0
note_on channel=0 note=51 velocity=48 time=0
control_change channel=0 control=64 value=0 time=18
control_change channel=0 control=64 value=127 time=68
note_on channel=0 note=77 velocity=0 time=34
note_on channel=0 note=75 velocity=66 time=0
note_on channel=0 note=75 velocity=0 time=120
note_on channel=0 note=74 velocity=65 time=0
note_on channel=0 note=74 velocity=0 time=120
note_on channel=0 note=72 velocity=58 time=0
note_on channel=0 note=72 velocity=0 time=0
note_on channel=0 note=51 velocity=0 time=0
note_on channel=0 note=60 velocity=0 time=0
note_on channel=0 note=55 velocity=0 time=0
note_on channel=0 note=53 velocity=61 time=0
note_on channel=0 note=61 velocity=72 time=0
note_on channel=0 note=56 velocity=61 time=0
control_change channel=0 control=64 value=0 time=13
control_change channel=0 control=64 value=127 time=100
note_on channel=0 note=80 velocity=68 time=7
note_on channel=0 note=80 velocity=0 time=120
note_on channel=0 note=92 velocity=75 time=0
note_on channel=0 note=92 velocity=0 time=120
note_on channel=0 note=80 velocity=67 time=0
note_on channel=0 note=80 velocity=0 time=120
note_on channel=0 note=92 velocity=74 time=0
note_on channel=0 note=92 velocity=0 time=120
note_on channel=0 note=80 velocity=67 time=0
note_on channel=0 note=80 velocity=0 time=0
note_on channel=0 note=53 velocity=0 time=0
note_on channel=0 note=61 velocity=0 time=0
note_on channel=0 note=56 velocity=0 time=0
note_on channel=0 note=92 velocity=69 time=0
note_on channel=0 note=55 velocity=50 time=0
note_on channel=0 note=60 velocity=59 time=0
note_on channel=0 note=51 velocity=50 time=0
note_on channel=0 note=92 velocity=0 time=120
note_on channel=0 note=80 velocity=60 time=0
note_on channel=0 note=80 velocity=0 time=120
note_on channel=0 note=51 velocity=0 time=0
note_on channel=0 note=60 velocity=0 time=0
note_on channel=0 note=55 velocity=0 time=0
note_on channel=0 note=50 velocity=51 time=0
note_on channel=0 note=59 velocity=61 time=0
note_on channel=0 note=53 velocity=51 time=0
control_change channel=0 control=64 value=0 time=19
control_change channel=0 control=64 value=127 time=61
note_on channel=0 note=80 velocity=61 time=40
note_on channel=0 note=80 velocity=0 time=120
note_on channel=0 note=92 velocity=73 time=0
note_on channel=0 note=92 velocity=0 time=120
note_on channel=0 note=91 velocity=66 time=0
note_on channel=0 note=91 velocity=0 time=120
note_on channel=0 note=50 velocity=0 time=0
note_on channel=0 note=59 velocity=0 time=0
note_on channel=0 note=53 velocity=0 time=0
note_on channel=0 note=89 velocity=70 time=0
note_on channel=0 note=51 velocity=48 time=0
note_on channel=0 note=55 velocity=48 time=0
note_on channel=0 note=60 velocity=57 time=0
control_change channel=0 control=64 value=0 time=13
control_change channel=0 control=64 value=127 time=62
note_on channel=0 note=89 velocity=0 time=45
note_on channel=0 note=87 velocity=68 time=0
note_on channel=0 note=87 velocity=0 time=120
note_on channel=0 note=86 velocity=67 time=0
note_on channel=0 note=86 velocity=0 time=120
note_on channel=0 note=84 velocity=65 time=0
note_on channel=0 note=84 velocity=0 time=0
note_on channel=0 note=60 velocity=0 time=0
note_on channel=0 note=55 velocity=0 time=0
note_on channel=0 note=51 velocity=0 time=0
note_on channel=0 note=61 velocity=72 time=0
note_on channel=0 note=56 velocity=61 time=0
note_on channel=0 note=53 velocity=61 time=0
control_change channel=0 control=64 value=0 time=19
control_change channel=0 control=64 value=127 time=59
note_on channel=0 note=68 velocity=66 time=42
note_on channel=0 note=68 velocity=0 time=120
note_on channel=0 note=80 velocity=73 time=0
note_on channel=0 note=80 velocity=0 time=120
note_on channel=0 note=68 velocity=66 time=0
note_on channel=0 note=68 velocity=0 time=120
note_on channel=0 note=80 velocity=73 time=0
note_on channel=0 note=80 velocity=0 time=120
note_on channel=0 note=68 velocity=66 time=0
note_on channel=0 note=68 velocity=0 time=0
note_on channel=0 note=61 velocity=0 time=0
note_on channel=0 note=56 velocity=0 time=0
note_on channel=0 note=53 velocity=0 time=0
note_on channel=0 note=80 velocity=68 time=0
note_on channel=0 note=60 velocity=59 time=0
note_on channel=0 note=51 velocity=50 time=0
note_on channel=0 note=55 velocity=50 time=0
note_on channel=0 note=80 velocity=0 time=120
note_on channel=0 note=68 velocity=61 time=0
note_on channel=0 note=68 velocity=0 time=120
note_on channel=0 note=55 velocity=0 time=0
note_on channel=0 note=51 velocity=0 time=0
note_on channel=0 note=60 velocity=0 time=0
note_on channel=0 note=50 velocity=51 time=0
note_on channel=0 note=59 velocity=61 time=0
note_on channel=0 note=53 velocity=51 time=0
control_change channel=0 control=64 value=0 time=17
control_change channel=0 control=64 value=127 time=61
note_on channel=0 note=80 velocity=68 time=42
note_on channel=0 note=80 velocity=0 time=120
note_on channel=0 note=68 velocity=60 time=0
note_on channel=0 note=68 velocity=0 time=120
note_on channel=0 note=80 velocity=68 time=0
note_on channel=0 note=80 velocity=0 time=0
note_on channel=0 note=50 velocity=0 time=0
note_on channel=0 note=59 velocity=0 time=0
note_on channel=0 note=53 velocity=0 time=0
note_on channel=0 note=56 velocity=58 time=0
note_on channel=0 note=51 velocity=49 time=0
note_on channel=0 note=48 velocity=49 time=0
control_change channel=0 control=64 value=0 time=15
control_change channel=0 control=64 value=127 time=77
note_on channel=0 note=92 velocity=78 time=28
note_on channel=0 note=92 velocity=0 time=120
note_on channel=0 note=80 velocity=69 time=0
note_on channel=0 note=80 velocity=0 time=120
note_on channel=0 note=92 velocity=75 time=0
note_on channel=0 note=92 velocity=0 time=0
note_on channel=0 note=56 velocity=0 time=0
note_on channel=0 note=51 velocity=0 time=0
note_on channel=0 note=48 velocity=0 time=0
note_on channel=0 note=55 velocity=63 time=0
note_on channel=0 note=47 velocity=53 time=0
note_on channel=0 note=50 velocity=63 time=0
control_change channel=0 control=64 value=0 time=8
control_change channel=0 control=64 value=127 time=44
note_on channel=0 note=91 velocity=78 time=68
note_on channel=0 note=91 velocity=0 time=120
note_on channel=0 note=79 velocity=71 time=0
note_on channel=0 note=79 velocity=0 time=120
note_on channel=0 note=91 velocity=74 time=0
note_on channel=0 note=91 velocity=0 time=120
note_on channel=0 note=55 velocity=0 time=0
note_on channel=0 note=47 velocity=0 time=0
note_on channel=0 note=50 velocity=0 time=0
note_on channel=0 note=54 velocity=63 time=0
note_on channel=0 note=51 velocity=63 time=0
note_on channel=0 note=48 velocity=53 time=0
note_on channel=0 note=45 velocity=53 time=0
control_change channel=0 control=64 value=0 time=9
control_change channel=0 control=64 value=127 time=77
note_on channel=0 note=90 velocity=75 time=34
note_on channel=0 note=90 velocity=0 time=120
note_on channel=0 note=78 velocity=71 time=0
note_on channel=0 note=78 velocity=0 time=120
note_on channel=0 note=90 velocity=74 time=0
note_on channel=0 note=90 velocity=0 time=0
note_on channel=0 note=48 velocity=0 time=0
note_on channel=0 note=54 velocity=0 time=0
note_on channel=0 note=51 velocity=0 time=0
note_on channel=0 note=45 velocity=0 time=0
note_on channel=0 note=50 velocity=56 time=0
note_on channel=0 note=47 velocity=56 time=0
note_on channel=0 note=53 velocity=67 time=0
control_change channel=0 control=64 value=0 time=14
control_change channel=0 control=64 value=127 time=85
note_on channel=0 note=89 velocity=78 time=21
note_on channel=0 note=89 velocity=0 time=120
note_on channel=0 note=77 velocity=69 time=0
note_on channel=0 note=77 velocity=0 time=120
note_on channel=0 note=89 velocity=74 time=0
note_on channel=0 note=89 velocity=0 time=120
note_on channel=0 note=50 velocity=0 time=0
note_on channel=0 note=47 velocity=0 time=0
note_on channel=0 note=53 velocity=0 time=0
note_on channel=0 note=51 velocity=67 time=0
note_on channel=0 note=48 velocity=56 time=0
control_change channel=0 control=64 value=0 time=18
control_change channel=0 control=64 value=127 time=67
note_on channel=0 note=87 velocity=77 time=35
note_on channel=0 note=87 velocity=0 time=120
note_on channel=0 note=79 velocity=71 time=0
note_on channel=0 note=75 velocity=71 time=0
note_on channel=0 note=75 velocity=0 time=120
note_on channel=0 note=79 velocity=0 time=0
note_on channel=0 note=87 velocity=75 time=0
note_on channel=0 note=87 velocity=0 time=0
note_on channel=0 note=48 velocity=0 time=0
note_on channel=0 note=51 velocity=0 time=0
note_on channel=0 note=42 velocity=56 time=0
note_on channel=0 note=51 velocity=66 time=0
note_on channel=0 note=45 velocity=56 time=0
control_change channel=0 control=64 value=0 time=17
control_change channel=0 control=64 value=127 time=40
note_on channel=0 note=87 velocity=75 time=63
note_on channel=0 note=87 velocity=0 time=120
note_on channel=0 note=81 velocity=68 time=0
note_on channel=0 note=75 velocity=68 time=0
note_on channel=0 note=75 velocity=0 time=120
note_on channel=0 note=81 velocity=0 time=0
note_on channel=0 note=87 velocity=75 time=0
note_on channel=0 note=87 velocity=0 time=0
note_on channel=0 note=51 velocity=0 time=0
note_on channel=0 note=50 velocity=64 time=0
control_change channel=0 control=64 value=0 time=12
control_change channel=0 control=64 value=127 time=51
note_on channel=0 note=86 velocity=73 time=57
note_on channel=0 note=86 velocity=0 time=120
note_on channel=0 note=81 velocity=66 time=0
note_on channel=0 note=74 velocity=66 time=0
note_on channel=0 note=74 velocity=0 time=120
note_on channel=0 note=81 velocity=0 time=0
note_on channel=0 note=86 velocity=73 time=0
note_on channel=0 note=86 velocity=0 time=120
note_on channel=0 note=42 velocity=0 time=0
note_on channel=0 note=45 velocity=0 time=0
note_on channel=0 note=50 velocity=0 time=0
note_on channel=0 note=48 velocity=61 time=0
note_on channel=0 note=43 velocity=61 time=0
control_change channel=0 control=64 value=0 time=12
control_change channel=0 control=64 value=127 time=45
note_on channel=0 note=84 velocity=71 time=63
note_on channel=0 note=84 velocity=0 time=120
note_on channel=0 note=75 velocity=66 time=0
note_on channel=0 note=72 velocity=66 time=0
note_on channel=0 note=72 velocity=0 time=120
note_on channel=0 note=75 velocity=0 time=0
note_on channel=0 note=84 velocity=71 time=0
note_on channel=0 note=84 velocity=0 time=120
note_on channel=0 note=48 velocity=0 time=0
note_on channel=0 note=47 velocity=59 time=0
control_change channel=0 control=64 value=0 time=15
control_change channel=0 control=64 value=127 time=65
note_on channel=0 note=83 velocity=69 time=40
note_on channel=0 note=83 velocity=0 time=120
note_on channel=0 note=71 velocity=62 time=0
note_on channel=0 note=74 velocity=62 time=0
note_on channel=0 note=74 velocity=0 time=120
note_on channel=0 note=71 velocity=0 time=0
note_on channel=0 note=83 velocity=64 time=0
note_on channel=0 note=83 velocity=0 time=0
note_on channel=0 note=47 velocity=0 time=0
note_on channel=0 note=43 velocity=0 time=0
note_on channel=0 note=79 velocity=65 time=0
note_on channel=0 note=84 velocity=77 time=0
note_on channel=0 note=75 velocity=65 time=0
note_on channel=0 note=72 velocity=65 time=0
note_on channel=0 note=36 velocity=59 time=0
note_on channel=0 note=43 velocity=59 time=0
note_on channel=0 note=48 velocity=70 time=0
note_on channel=0 note=39 velocity=59 time=0
control_change channel=0 control=64 value=0 time=17
control_change channel=0 control=64 value=127 time=61
note_on channel=0 note=72 velocity=0 time=42
note_on channel=0 note=75 velocity=0 time=0
note_on channel=0 note=79 velocity=0 time=0
note_on channel=0 note=84 velocity=0 time=0
note_on channel=0 note=67 velocity=74 time=0
note_on channel=0 note=67 velocity=0 time=0
note_on channel=0 note=48 velocity=0 time=0
note_on channel=0 note=39 velocity=0 time=0
note_on channel=0 note=43 velocity=0 time=0
note_on channel=0 note=36 velocity=0 time=0
note_on channel=0 note=72 velocity=76 time=0
note_on channel=0 note=72 velocity=0 time=120
note_on channel=0 note=75 velocity=78 time=0
note_on channel=0 note=75 velocity=0 time=0
note_on channel=0 note=79 velocity=80 time=0
control_change channel=0 control=64 value=0 time=18
control_change channel=0 control=64 value=127 time=67
note_on channel=0 note=79 velocity=0 time=35
note_on channel=0 note=80 velocity=76 time=0
note_on channel=0 note=55 velocity=59 time=0
note_on channel=0 note=55 velocity=0 time=0
note_on channel=0 note=80 velocity=0 time=0
note_on channel=0 note=79 velocity=76 time=0
note_on channel=0 note=60 velocity=62 time=0
note_on channel=0 note=60 velocity=0 time=120
note_on channel=0 note=79 velocity=0 time=0
note_on channel=0 note=77 velocity=76 time=0
note_on channel=0 note=63 velocity=64 time=0
note_on channel=0 note=63 velocity=0 time=40
note_on channel=0 note=77 velocity=0 time=0
note_on channel=0 note=75 velocity=77 time=0
note_on channel=0 note=67 velocity=70 time=0
control_change channel=0 control=64 value=0 time=9
control_change channel=0 control=64 value=127 time=48
note_on channel=0 note=67 velocity=0 time=63
note_on channel=0 note=75 velocity=0 time=0
note_on channel=0 note=77 velocity=71 time=0
note_on channel=0 note=68 velocity=64 time=0
note_on channel=0 note=68 velocity=0 time=80
note_on channel=0 note=77 velocity=0 time=0
note_on channel=0 note=75 velocity=72 time=0
note_on channel=0 note=67 velocity=64 time=0
note_on channel=0 note=67 velocity=0 time=40
note_on channel=0 note=75 velocity=0 time=0
note_on channel=0 note=74 velocity=72 time=0
note_on channel=0 note=65 velocity=64 time=0
note_on channel=0 note=65 velocity=0 time=120
note_on channel=0 note=74 velocity=0 time=0
note_on channel=0 note=72 velocity=78 time=0
note_on channel=0 note=63 velocity=70 time=0
control_change channel=0 control=64 value=0 time=13
control_change channel=0 control=64 value=127 time=17
note_on channel=0 note=63 velocity=0 time=63
note_on channel=0 note=72 velocity=0 time=0
note_on channel=0 note=70 velocity=73 time=0
note_on channel=0 note=62 velocity=63 time=0
note_on channel=0 note=62 velocity=0 time=40
note_on channel=0 note=70 velocity=0 time=0
note_on channel=0 note=68 velocity=73 time=0
note_on channel=0 note=60 velocity=63 time=0
note_on channel=0 note=60 velocity=0 time=120
note_on channel=0 note=68 velocity=0 time=0
note_on channel=0 note=67 velocity=72 time=0
note_on channel=0 note=58 velocity=63 time=0
note_on channel=0 note=58 velocity=0 time=80
note_on channel=0 note=67 velocity=0 time=0
note_on channel=0 note=65 velocity=75 time=0
note_on channel=0 note=56 velocity=67 time=0
control_change channel=0 control=64 value=0 time=17
control_change channel=0 control=64 value=127 time=26
note_on channel=0 note=56 velocity=0 time=40
note_on channel=0 note=65 velocity=0 time=0
note_on channel=0 note=63 velocity=70 time=0
note_on channel=0 note=55 velocity=60 time=0
note_on channel=0 note=55 velocity=0 time=120
note_on channel=0 note=63 velocity=0 time=0
note_on channel=0 note=62 velocity=70 time=0
note_on channel=0 note=53 velocity=60 time=0
note_on channel=0 note=53 velocity=0 time=80
note_on channel=0 note=62 velocity=0 time=0
note_on channel=0 note=60 velocity=70 time=0
note_on channel=0 note=51 velocity=60 time=0
note_on channel=0 note=51 velocity=0 time=0
note_on channel=0 note=60 velocity=0 time=0
note_on channel=0 note=59 velocity=73 time=0
note_on channel=0 note=50 velocity=71 time=0
control_change channel=0 control=64 value=0 time=13
control_change channel=0 control=64 value=127 time=58
note_on channel=0 note=50 velocity=0 time=49
note_on channel=0 note=51 velocity=65 time=0
note_on channel=0 note=51 velocity=0 time=120
note_on channel=0 note=59 velocity=0 time=0
note_on channel=0 note=62 velocity=69 time=0
note_on channel=0 note=55 velocity=69 time=0
note_on channel=0 note=59 velocity=69 time=0
note_on channel=0 note=67 velocity=82 time=0
note_on channel=0 note=53 velocity=73 time=0
control_change channel=0 control=64 value=0 time=14
note_on channel=0 note=53 velocity=0 time=106
note_on channel=0 note=51 velocity=69 time=0
note_on channel=0 note=59 velocity=0 time=60
note_on channel=0 note=67 velocity=0 time=0
note_on channel=0 note=62 velocity=0 time=0
note_on channel=0 note=55 velocity=0 time=0
note_on channel=0 note=51 velocity=0 time=60
note_on channel=0 note=59 velocity=61 time=0
note_on channel=0 note=65 velocity=73 time=0
note_on channel=0 note=55 velocity=61 time=0
note_on channel=0 note=67 velocity=73 time=0
note_on channel=0 note=50 velocity=73 time=0
note_on channel=0 note=50 velocity=0 time=120
note_on channel=0 note=48 velocity=73 time=0
note_on channel=0 note=55 velocity=0 time=60
note_on channel=0 note=67 velocity=0 time=0
note_on channel=0 note=59 velocity=0 time=0
note_on channel=0 note=65 velocity=0 time=0
note_on channel=0 note=48 velocity=0 time=60
note_on channel=0 note=59 velocity=60 time=0
note_on channel=0 note=55 velocity=60 time=0
note_on channel=0 note=65 velocity=71 time=0
note_on channel=0 note=67 velocity=71 time=0
note_on channel=0 note=47 velocity=72 time=0
note_on channel=0 note=47 velocity=0 time=120
note_on channel=0 note=44 velocity=72 time=0
note_on channel=0 note=65 velocity=0 time=60
note_on channel=0 note=67 velocity=0 time=0
note_on channel=0 note=59 velocity=0 time=0
note_on channel=0 note=55 velocity=0 time=0
note_on channel=0 note=44 velocity=0 time=60
note_on channel=0 note=55 velocity=61 time=0
note_on channel=0 note=67 velocity=72 time=0
note_on channel=0 note=59 velocity=61 time=0
note_on channel=0 note=65 velocity=72 time=0
note_on channel=0 note=43 velocity=71 time=0
note_on channel=0 note=43 velocity=0 time=120
note_on channel=0 note=41 velocity=71 time=0
note_on channel=0 note=59 velocity=0 time=60
note_on channel=0 note=65 velocity=0 time=0
note_on channel=0 note=55 velocity=0 time=0
note_on channel=0 note=67 velocity=0 time=0
note_on channel=0 note=41 velocity=0 time=60
note_on channel=0 note=65 velocity=72 time=0
note_on channel=0 note=67 velocity=72 time=0
note_on channel=0 note=55 velocity=61 time=0
note_on channel=0 note=59 velocity=61 time=0
note_on channel=0 note=39 velocity=70 time=0
note_on channel=0 note=39 velocity=0 time=120
note_on channel=0 note=38 velocity=70 time=0
note_on channel=0 note=55 velocity=0 time=60
note_on channel=0 note=59 velocity=0 time=0
note_on channel=0 note=65 velocity=0 time=0
note_on channel=0 note=67 velocity=0 time=0
note_on channel=0 note=38 velocity=0 time=0
note_on channel=0 note=63 velocity=77 time=0
note_on channel=0 note=55 velocity=77 time=0
note_on channel=0 note=60 velocity=77 time=0
note_on channel=0 note=67 velocity=77 time=0
note_on channel=0 note=36 velocity=70 time=0
note_on channel=0 note=43 velocity=70 time=0
note_on channel=0 note=48 velocity=70 time=0
note_on channel=0 note=39 velocity=70 time=0
control_change channel=0 control=64 value=127 time=64
note_on channel=0 note=67 velocity=0 time=56
note_on channel=0 note=60 velocity=0 time=0
note_on channel=0 note=63 velocity=0 time=0
note_on channel=0 note=55 velocity=0 time=0
note_on channel=0 note=79 velocity=74 time=0
note_on channel=0 note=79 velocity=0 time=0
note_on channel=0 note=48 velocity=0 time=0
note_on channel=0 note=39 velocity=0 time=0
note_on channel=0 note=43 velocity=0 time=0
note_on channel=0 note=36 velocity=0 time=0
note_on channel=0 note=84 velocity=76 time=0
note_on channel=0 note=84 velocity=0 time=120
note_on channel=0 note=87 velocity=78 time=0
note_on channel=0 note=87 velocity=0 time=0
note_on channel=0 note=91 velocity=80 time=0
control_change channel=0 control=64 value=0 time=16
control_change channel=0 control=64 value=127 time=76
note_on channel=0 note=91 velocity=0 time=28
note_on channel=0 note=92 velocity=76 time=0
note_on channel=0 note=67 velocity=59 time=0
note_on channel=0 note=67 velocity=0 time=0
note_on channel=0 note=92 velocity=0 time=0
note_on channel=0 note=91 velocity=76 time=0
note_on channel=0 note=72 velocity=62 time=0
note_on channel=0 note=72 velocity=0 time=120
note_on channel=0 note=91 velocity=0 time=0
note_on channel=0 note=89 velocity=76 time=0
note_on channel=0 note=75 velocity=64 time=0
note_on channel=0 note=75 velocity=0 time=40
note_on channel=0 note=89 velocity=0 time=0
note_on channel=0 note=87 velocity=77 time=0
note_on channel=0 note=79 velocity=70 time=0
note_on channel=0 note=79 velocity=0 time=120
note_on channel=0 note=87 velocity=0 time=0
note_on channel=0 note=89 velocity=71 time=0
note_on channel=0 note=80 velocity=64 time=0
note_on channel=0 note=80 velocity=0 time=80
note_on channel=0 note=89 velocity=0 time=0
note_on channel=0 note=87 velocity=72 time=0
note_on channel=0 note=79 velocity=64 time=0
note_on channel=0 note=79 velocity=0 time=40
note_on channel=0 note=87 velocity=0 time=0
note_on channel=0 note=86 velocity=72 time=0
note_on channel=0 note=77 velocity=64 time=0
note_on channel=0 note=77 velocity=0 time=120
note_on channel=0 note=86 velocity=0 time=0
note_on channel=0 note=84 velocity=78 time=0
note_on channel=0 note=75 velocity=70 time=0
note_on channel=0 note=75 velocity=0 time=80
note_on channel=0 note=84 velocity=0 time=0
note_on channel=0 note=82 velocity=73 time=0
note_on channel=0 note=74 velocity=63 time=0
note_on channel=0 note=74 velocity=0 time=40
note_on channel=0 note=82 velocity=0 time=0
note_on channel=0 note=80 velocity=73 time=0
note_on channel=0 note=72 velocity=63 time=0
note_on channel=0 note=72 velocity=0 time=120
note_on channel=0 note=80 velocity=0 time=0
note_on channel=0 note=79 velocity=72 time=0
note_on channel=0 note=70 velocity=63 time=0
note_on channel=0 note=70 velocity=0 time=80
note_on channel=0 note=79 velocity=0 time=0
note_on channel=0 note=77 velocity=75 time=0
note_on channel=0 note=68 velocity=67 time=0
note_on channel=0 note=68 velocity=0 time=40
note_on channel=0 note=77 velocity=0 time=0
note_on channel=0 note=75 velocity=70 time=0
note_on channel=0 note=67 velocity=60 time=0
note_on channel=0 note=67 velocity=0 time=120
note_on channel=0 note=75 velocity=0 time=0
note_on channel=0 note=74 velocity=70 time=0
note_on channel=0 note=65 velocity=60 time=0
note_on channel=0 note=65 velocity=0 time=80
note_on channel=0 note=74 velocity=0 time=0
note_on channel=0 note=72 velocity=70 time=0
note_on channel=0 note=63 velocity=60 time=0
note_on channel=0 note=63 velocity=0 time=0
note_on channel=0 note=72 velocity=0 time=0
note_on channel=0 note=71 velocity=73 time=0
note_on channel=0 note=62 velocity=71 time=0
control_change channel=0 control=64 value=0 time=18
control_change channel=0 control=64 value=127 time=53
note_on channel=0 note=62 velocity=0 time=49
note_on channel=0 note=63 velocity=65 time=0
note_on channel=0 note=63 velocity=0 time=120
note_on channel=0 note=71 velocity=0 time=0
note_on channel=0 note=71 velocity=69 time=0
note_on channel=0 note=79 velocity=82 time=0
note_on channel=0 note=74 velocity=69 time=0
note_on channel=0 note=67 velocity=58 time=0
note_on channel=0 note=65 velocity=73 time=0
control_change channel=0 control=64 value=0 time=13
note_on channel=0 note=65 velocity=0 time=107
note_on channel=0 note=63 velocity=69 time=0
note_on channel=0 note=74 velocity=0 time=60
note_on channel=0 note=67 velocity=0 time=0
note_on channel=0 note=71 velocity=0 time=0
note_on channel=0 note=79 velocity=0 time=0
note_on channel=0 note=63 velocity=0 time=60
note_on channel=0 note=67 velocity=51 time=0
note_on channel=0 note=79 velocity=73 time=0
note_on channel=0 note=71 velocity=61 time=0
note_on channel=0 note=77 velocity=73 time=0
note_on channel=0 note=62 velocity=73 time=0
note_on channel=0 note=62 velocity=0 time=120
note_on channel=0 note=60 velocity=73 time=0
note_on channel=0 note=71 velocity=0 time=60
note_on channel=0 note=77 velocity=0 time=0
note_on channel=0 note=67 velocity=0 time=0
note_on channel=0 note=79 velocity=0 time=0
note_on channel=0 note=60 velocity=0 time=60
note_on channel=0 note=77 velocity=70 time=0
note_on channel=0 note=67 velocity=50 time=0
note_on channel=0 note=71 velocity=59 time=0
note_on channel=0 note=79 velocity=70 time=0
note_on channel=0 note=59 velocity=72 time=0
note_on channel=0 note=59 velocity=0 time=120
note_on channel=0 note=56 velocity=72 time=0
note_on channel=0 note=71 velocity=0 time=60
note_on channel=0 note=79 velocity=0 time=0
note_on channel=0 note=77 velocity=0 time=0
note_on channel=0 note=67 velocity=0 time=0
note_on channel=0 note=56 velocity=0 time=60
note_on channel=0 note=71 velocity=61 time=0
note_on channel=0 note=77 velocity=73 time=0
note_on channel=0 note=67 velocity=51 time=0
note_on channel=0 note=79 velocity=73 time=0
note_on channel=0 note=55 velocity=71 time=0
note_on channel=0 note=55 velocity=0 time=120
note_on channel=0 note=53 velocity=71 time=0
note_on channel=0 note=67 velocity=0 time=60
note_on channel=0 note=79 velocity=0 time=0
note_on channel=0 note=71 velocity=0 time=0
note_on channel=0 note=77 velocity=0 time=0
note_on channel=0 note=53 velocity=0 time=60
note_on channel=0 note=71 velocity=60 time=0
note_on channel=0 note=67 velocity=51 time=0
note_on channel=0 note=77 velocity=71 time=0
note_on channel=0 note=79 velocity=71 time=0
note_on channel=0 note=51 velocity=70 time=0
note_on channel=0 note=51 velocity=0 time=120
note_on channel=0 note=50 velocity=70 time=0
note_on channel=0 note=77 velocity=0 time=60
note_on channel=0 note=79 velocity=0 time=0
note_on channel=0 note=71 velocity=0 time=0
note_on channel=0 note=67 velocity=0 time=0
note_on channel=0 note=50 velocity=0 time=0
note_on channel=0 note=67 velocity=51 time=0
note_on channel=0 note=79 velocity=73 time=0
note_on channel=0 note=72 velocity=61 time=0
note_on channel=0 note=75 velocity=73 time=0
note_on channel=0 note=48 velocity=67 time=0
control_change channel=0 control=64 value=127 time=53
note_on channel=0 note=48 velocity=0 time=40
note_on channel=0 note=50 velocity=60 time=0
note_on channel=0 note=50 velocity=0 time=120
note_on channel=0 note=75 velocity=0 time=0
note_on channel=0 note=67 velocity=0 time=0
note_on channel=0 note=79 velocity=0 time=0
note_on channel=0 note=72 velocity=0 time=0
note_on channel=0 note=51 velocity=60 time=0
note_on channel=0 note=51 velocity=0 time=80
note_on channel=0 note=53 velocity=60 time=0
note_on channel=0 note=53 velocity=0 time=0
note_on channel=0 note=55 velocity=71 time=0
note_on channel=0 note=55 velocity=0 time=120
note_on channel=0 note=57 velocity=65 time=0
note_on channel=0 note=57 velocity=0 time=120
note_on channel=0 note=87 velocity=69 time=0
note_on channel=0 note=91 velocity=82 time=0
note_on channel=0 note=79 velocity=58 time=0
note_on channel=0 note=84 velocity=69 time=0
note_on channel=0 note=59 velocity=73 time=0
control_change channel=0 control=64 value=0 time=13
note_on channel=0 note=59 velocity=0 time=107
note_on channel=0 note=60 velocity=69 time=0
note_on channel=0 note=79 velocity=0 time=60
note_on channel=0 note=84 velocity=0 time=0
note_on channel=0 note=87 velocity=0 time=0
note_on channel=0 note=91 velocity=0 time=0
note_on channel=0 note=60 velocity=0 time=60
note_on channel=0 note=89 velocity=73 time=0
note_on channel=0 note=79 velocity=51 time=0
note_on channel=0 note=83 velocity=61 time=0
note_on channel=0 note=91 velocity=73 time=0
note_on channel=0 note=62 velocity=73 time=0
note_on channel=0 note=62 velocity=0 time=120
note_on channel=0 note=60 velocity=73 time=0
note_on channel=0 note=83 velocity=0 time=60
note_on channel=0 note=91 velocity=0 time=0
note_on channel=0 note=89 velocity=0 time=0
note_on channel=0 note=79 velocity=0 time=0
note_on channel=0 note=60 velocity=0 time=60
note_on channel=0 note=83 velocity=59 time=0
note_on channel=0 note=91 velocity=70 time=0
note_on channel=0 note=89 velocity=70 time=0
note_on channel=0 note=79 velocity=50 time=0
note_on channel=0 note=59 velocity=72 time=0
note_on channel=0 note=59 velocity=0 time=120
note_on channel=0 note=56 velocity=72 time=0
note_on channel=0 note=89 velocity=0 time=60
note_on channel=0 note=79 velocity=0 time=0
note_on channel=0 note=83 velocity=0 time=0
note_on channel=0 note=91 velocity=0 time=0
note_on channel=0 note=56 velocity=0 time=60
note_on channel=0 note=79 velocity=51 time=0
note_on channel=0 note=91 velocity=73 time=0
note_on channel=0 note=89 velocity=73 time=0
note_on channel=0 note=83 velocity=61 time=0
note_on channel=0 note=55 velocity=71 time=0
note_on channel=0 note=55 velocity=0 time=120
note_on channel=0 note=53 velocity=71 time=0
note_on channel=0 note=89 velocity=0 time=60
note_on channel=0 note=83 velocity=0 time=0
note_on channel=0 note=79 velocity=0 time=0
note_on channel=0 note=91 velocity=0 time=0
note_on channel=0 note=53 velocity=0 time=60
note_on channel=0 note=83 velocity=60 time=0
note_on channel=0 note=91 velocity=71 time=0
note_on channel=0 note=89 velocity=71 time=0
note_on channel=0 note=79 velocity=51 time=0
note_on channel=0 note=51 velocity=70 time=0
note_on channel=0 note=51 velocity=0 time=120
note_on channel=0 note=50 velocity=70 time=0
note_on channel=0 note=89 velocity=0 time=60
note_on channel=0 note=79 velocity=0 time=0
note_on channel=0 note=83 velocity=0 time=0
note_on channel=0 note=91 velocity=0 time=0
note_on channel=0 note=50 velocity=0 time=0
note_on channel=0 note=79 velocity=51 time=0
note_on channel=0 note=91 velocity=73 time=0
note_on channel=0 note=84 velocity=61 time=0
note_on channel=0 note=87 velocity=73 time=0
note_on channel=0 note=48 velocity=67 time=0
control_change channel=0 control=64 value=127 time=46
note_on channel=0 note=48 velocity=0 time=40
note_on channel=0 note=50 velocity=60 time=0
note_on channel=0 note=84 velocity=0 time=60
note_on channel=0 note=87 velocity=0 time=0
note_on channel=0 note=79 velocity=0 time=0
note_on channel=0 note=91 velocity=0 time=0
note_on channel=0 note=50 velocity=0 time=60
note_on channel=0 note=51 velocity=60 time=0
note_on channel=0 note=51 velocity=0 time=80
note_on channel=0 note=53 velocity=60 time=0
note_on channel=0 note=53 velocity=0 time=0
note_on channel=0 note=55 velocity=71 time=0
note_on channel=0 note=55 velocity=0 time=120
note_on channel=0 note=57 velocity=65 time=0
note_on channel=0 note=57 velocity=0 time=120
note_on channel=0 note=75 velocity=69 time=0
note_on channel=0 note=67 velocity=58 time=0
note_on channel=0 note=72 velocity=69 time=0
note_on channel=0 note=79 velocity=82 time=0
note_on channel=0 note=59 velocity=73 time=0
control_change channel=0 control=64 value=0 time=14
note_on channel=0 note=59 velocity=0 time=106
note_on channel=0 note=60 velocity=69 time=0
note_on channel=0 note=72 velocity=0 time=60
note_on channel=0 note=79 velocity=0 time=0
note_on channel=0 note=75 velocity=0 time=0
note_on channel=0 note=67 velocity=0 time=0
note_on channel=0 note=60 velocity=0 time=60
note_on channel=0 note=71 velocity=61 time=0
note_on channel=0 note=77 velocity=73 time=0
note_on channel=0 note=67 velocity=51 time=0
note_on channel=0 note=79 velocity=73 time=0
note_on channel=0 note=62 velocity=73 time=0
note_on channel=0 note=62 velocity=0 time=120
note_on channel=0 note=60 velocity=73 time=0
note_on channel=0 note=67 velocity=0 time=60
note_on channel=0 note=79 velocity=0 time=0
note_on channel=0 note=71 velocity=0 time=0
note_on channel=0 note=77 velocity=0 time=0
note_on channel=0 note=60 velocity=0 time=60
note_on channel=0 note=71 velocity=59 time=0
note_on channel=0 note=67 velocity=50 time=0
note_on channel=0 note=77 velocity=70 time=0
note_on channel=0 note=79 velocity=70 time=0
note_on channel=0 note=59 velocity=72 time=0
note_on channel=0 note=59 velocity=0 time=120
note_on channel=0 note=56 velocity=72 time=0
note_on channel=0 note=77 velocity=0 time=60
note_on channel=0 note=79 velocity=0 time=0
note_on channel=0 note=71 velocity=0 time=0
note_on channel=0 note=67 velocity=0 time=0
note_on channel=0 note=56 velocity=0 time=60
note_on channel=0 note=67 velocity=51 time=0
note_on channel=0 note=79 velocity=73 time=0
note_on channel=0 note=71 velocity=61 time=0
note_on channel=0 note=77 velocity=73 time=0
note_on channel=0 note=55 velocity=71 time=0
note_on channel=0 note=55 velocity=0 time=120
note_on channel=0 note=53 velocity=71 time=0
note_on channel=0 note=71 velocity=0 time=60
note_on channel=0 note=77 velocity=0 time=0
note_on channel=0 note=67 velocity=0 time=0
note_on channel=0 note=79 velocity=0 time=0
note_on channel=0 note=53 velocity=0 time=60
note_on channel=0 note=77 velocity=71 time=0
note_on channel=0 note=79 velocity=71 time=0
note_on channel=0 note=67 velocity=51 time=0
note_on channel=0 note=71 velocity=60 time=0
note_on channel=0 note=51 velocity=70 time=0
note_on channel=0 note=51 velocity=0 time=120
note_on channel=0 note=50 velocity=70 time=0
note_on channel=0 note=67 velocity=0 time=60
note_on channel=0 note=71 velocity=0 time=0
note_on channel=0 note=77 velocity=0 time=0
note_on channel=0 note=79 velocity=0 time=0
note_on channel=0 note=50 velocity=0 time=0
note_on channel=0 note=75 velocity=61 time=0
note_on channel=0 note=67 velocity=51 time=0
note_on channel=0 note=72 velocity=61 time=0
note_on channel=0 note=79 velocity=73 time=0
note_on channel=0 note=48 velocity=67 time=0
control_change channel=0 control=64 value=127 time=43
note_on channel=0 note=48 velocity=0 time=40
note_on channel=0 note=50 velocity=60 time=0
note_on channel=0 note=72 velocity=0 time=60
note_on channel=0 note=79 velocity=0 time=0
note_on channel=0 note=75 velocity=0 time=0
note_on channel=0 note=67 velocity=0 time=0
note_on channel=0 note=50 velocity=0 time=60
note_on channel=0 note=51 velocity=60 time=0
note_on channel=0 note=51 velocity=0 time=80
note_on channel=0 note=53 velocity=60 time=0
note_on channel=0 note=53 velocity=0 time=0
note_on channel=0 note=55 velocity=71 time=0
note_on channel=0 note=55 velocity=0 time=120
note_on channel=0 note=57 velocity=65 time=0
note_on channel=0 note=57 velocity=0 time=120
note_on channel=0 note=75 velocity=69 time=0
note_on channel=0 note=84 velocity=82 time=0
note_on channel=0 note=79 velocity=69 time=0
note_on channel=0 note=72 velocity=58 time=0
note_on channel=0 note=59 velocity=73 time=0
control_change channel=0 control=64 value=0 time=11
note_on channel=0 note=59 velocity=0 time=109
note_on channel=0 note=60 velocity=69 time=0
note_on channel=0 note=79 velocity=0 time=60
note_on channel=0 note=72 velocity=0 time=0
note_on channel=0 note=75 velocity=0 time=0
note_on channel=0 note=84 velocity=0 time=0
note_on channel=0 note=60 velocity=0 time=60
note_on channel=0 note=72 velocity=51 time=0
note_on channel=0 note=84 velocity=73 time=0
note_on channel=0 note=76 velocity=61 time=0
note_on channel=0 note=79 velocity=61 time=0
note_on channel=0 note=58 velocity=73 time=0
note_on channel=0 note=58 velocity=0 time=120
note_on channel=0 note=56 velocity=73 time=0
note_on channel=0 note=76 velocity=0 time=60
note_on channel=0 note=79 velocity=0 time=0
note_on channel=0 note=72 velocity=0 time=0
note_on channel=0 note=84 velocity=0 time=0
note_on channel=0 note=56 velocity=0 time=60
note_on channel=0 note=72 velocity=50 time=0
note_on channel=0 note=84 velocity=70 time=0
note_on channel=0 note=76 velocity=59 time=0
note_on channel=0 note=79 velocity=59 time=0
note_on channel=0 note=55 velocity=72 time=0
note_on channel=0 note=55 velocity=0 time=120
note_on channel=0 note=53 velocity=72 time=0
note_on channel=0 note=76 velocity=0 time=60
note_on channel=0 note=79 velocity=0 time=0
note_on channel=0 note=72 velocity=0 time=0
note_on channel=0 note=84 velocity=0 time=0
note_on channel=0 note=53 velocity=0 time=60
note_on channel=0 note=79 velocity=61 time=0
note_on channel=0 note=84 velocity=73 time=0
note_on channel=0 note=76 velocity=61 time=0
note_on channel=0 note=72 velocity=51 time=0
note_on channel=0 note=52 velocity=71 time=0
note_on channel=0 note=52 velocity=0 time=120
note_on channel=0 note=50 velocity=71 time=0
note_on channel=0 note=76 velocity=0 time=60
note_on channel=0 note=72 velocity=0 time=0
note_on channel=0 note=79 velocity=0 time=0
note_on channel=0 note=84 velocity=0 time=0
note_on channel=0 note=50 velocity=0 time=60
note_on channel=0 note=76 velocity=60 time=0
note_on channel=0 note=72 velocity=51 time=0
note_on channel=0 note=84 velocity=71 time=0
note_on channel=0 note=79 velocity=60 time=0
note_on channel=0 note=48 velocity=70 time=0
note_on channel=0 note=48 velocity=0 time=120
note_on channel=0 note=46 velocity=70 time=0
note_on channel=0 note=84 velocity=0 time=60
note_on channel=0 note=79 velocity=0 time=0
note_on channel=0 note=76 velocity=0 time=0
note_on channel=0 note=72 velocity=0 time=0
note_on channel=0 note=46 velocity=0 time=0
note_on channel=0 note=77 velocity=61 time=0
note_on channel=0 note=84 velocity=73 time=0
note_on channel=0 note=80 velocity=61 time=0
note_on channel=0 note=72 velocity=51 time=0
note_on channel=0 note=44 velocity=67 time=0
control_change channel=0 control=64 value=127 time=78
note_on channel=0 note=44 velocity=0 time=40
note_on channel=0 note=46 velocity=60 time=0
note_on channel=0 note=80 velocity=0 time=60
note_on channel=0 note=72 velocity=0 time=0
note_on channel=0 note=77 velocity=0 time=0
note_on channel=0 note=84 velocity=0 time=0
note_on channel=0 note=46 velocity=0 time=60
note_on channel=0 note=48 velocity=60 time=0
note_on channel=0 note=48 velocity=0 time=80
note_on channel=0 note=50 velocity=60 time=0
note_on channel=0 note=50 velocity=0 time=0
note_on channel=0 note=52 velocity=71 time=0
note_on channel=0 note=52 velocity=0 time=120
note_on channel=0 note=53 velocity=65 time=0
note_on channel=0 note=53 velocity=0 time=120
note_on channel=0 note=60 velocity=58 time=0
note_on channel=0 note=72 velocity=82 time=0
note_on channel=0 note=65 velocity=69 time=0
note_on channel=0 note=68 velocity=69 time=0
note_on channel=0 note=55 velocity=73 time=0
control_change channel=0 control=64 value=0 time=7
note_on channel=0 note=55 velocity=0 time=113
note_on channel=0 note=56 velocity=69 time=0
note_on channel=0 note=56 velocity=0 time=0
note_on channel=0 note=68 velocity=0 time=0
note_on channel=0 note=60 velocity=0 time=0
note_on channel=0 note=72 velocity=0 time=0
note_on channel=0 note=65 velocity=0 time=0
note_on channel=0 note=70 velocity=73 time=0
note_on channel=0 note=60 velocity=51 time=0
note_on channel=0 note=64 velocity=61 time=0
note_on channel=0 note=72 velocity=73 time=0
note_on channel=0 note=55 velocity=73 time=0
note_on channel=0 note=55 velocity=0 time=0
note_on channel=0 note=53 velocity=73 time=0
note_on channel=0 note=53 velocity=0 time=0
note_on channel=0 note=72 velocity=0 time=0
note_on channel=0 note=70 velocity=0 time=0
note_on channel=0 note=60 velocity=0 time=0
note_on channel=0 note=64 velocity=0 time=0
note_on channel=0 note=64 velocity=59 time=0
note_on channel=0 note=70 velocity=70 time=0
note_on channel=0 note=60 velocity=50 time=0
note_on channel=0 note=72 velocity=70 time=0
note_on channel=0 note=52 velocity=72 time=0
note_on channel=0 note=52 velocity=0 time=40
note_on channel=0 note=50 velocity=72 time=0
note_on channel=0 note=50 velocity=0 time=40
note_on channel=0 note=72 velocity=0 time=0
note_on channel=0 note=64 velocity=0 time=0
note_on channel=0 note=70 velocity=0 time=0
note_on channel=0 note=60 velocity=0 time=0
note_on channel=0 note=64 velocity=61 time=0
note_on channel=0 note=60 velocity=51 time=0
note_on channel=0 note=70 velocity=73 time=0
note_on channel=0 note=72 velocity=73 time=0
note_on channel=0 note=48 velocity=71 time=0
note_on channel=0 note=48 velocity=0 time=80
note_on channel=0 note=46 velocity=71 time=0
note_on channel=0 note=46 velocity=0 time=0
note_on channel=0 note=72 velocity=0 time=0
note_on channel=0 note=64 velocity=0 time=0
note_on channel=0 note=60 velocity=0 time=0
note_on channel=0 note=70 velocity=0 time=0
note_on channel=0 note=60 velocity=51 time=0
note_on channel=0 note=72 velocity=71 time=0
note_on channel=0 note=64 velocity=60 time=0
note_on channel=0 note=70 velocity=71 time=0
note_on channel=0 note=44 velocity=70 time=0
note_on channel=0 note=44 velocity=0 time=0
note_on channel=0 note=43 velocity=70 time=0
note_on channel=0 note=43 velocity=0 time=0
note_on channel=0 note=70 velocity=0 time=0
note_on channel=0 note=60 velocity=0 time=0
note_on channel=0 note=72 velocity=0 time=0
note_on channel=0 note=64 velocity=0 time=0
note_on channel=0 note=69 velocity=89 time=0
note_on channel=0 note=72 velocity=89 time=0
note_on channel=0 note=60 velocity=63 time=0
note_on channel=0 note=63 velocity=75 time=0
note_on channel=0 note=30 velocity=76 time=0
note_on channel=0 note=42 velocity=78 time=0
control_change channel=0 control=64 value=127 time=63
note_on channel=0 note=42 velocity=0 time=57
note_on channel=0 note=72 velocity=0 time=0
note_on channel=0 note=60 velocity=0 time=0
note_on channel=0 note=69 velocity=0 time=0
note_on channel=0 note=30 velocity=0 time=0
note_on channel=0 note=63 velocity=0 time=0
note_on channel=0 note=57 velocity=70 time=0
note_on channel=0 note=57 velocity=0 time=40
note_on channel=0 note=60 velocity=71 time=0
note_on channel=0 note=60 velocity=0 time=120
note_on channel=0 note=63 velocity=72 time=0
note_on channel=0 note=63 velocity=0 time=40
note_on channel=0 note=66 velocity=72 time=0
note_on channel=0 note=66 velocity=0 time=120
note_on channel=0 note=69 velocity=72 time=0
note_on channel=0 note=69 velocity=0 time=40
note_on channel=0 note=72 velocity=73 time=0
note_on channel=0 note=72 velocity=0 time=120
note_on channel=0 note=75 velocity=74 time=0
note_on channel=0 note=75 velocity=0 time=40
note_on channel=0 note=78 velocity=75 time=0
note_on channel=0 note=78 velocity=0 time=120
note_on channel=0 note=81 velocity=77 time=0
note_on channel=0 note=81 velocity=0 time=40
note_on channel=0 note=84 velocity=79 time=0
note_on channel=0 note=84 velocity=0 time=120
note_on channel=0 note=87 velocity=81 time=0
note_on channel=0 note=87 velocity=0 time=40
note_on channel=0 note=90 velocity=83 time=0
note_on channel=0 note=90 velocity=0 time=120
note_on channel=0 note=87 velocity=83 time=0
note_on channel=0 note=87 velocity=0 time=40
note_on channel=0 note=84 velocity=82 time=0
note_on channel=0 note=84 velocity=0 time=120
note_on channel=0 note=81 velocity=81 time=0
note_on channel=0 note=81 velocity=0 time=0
note_on channel=0 note=78 velocity=81 time=0
note_on channel=0 note=78 velocity=0 time=120
note_on channel=0 note=75 velocity=80 time=0
note_on channel=0 note=75 velocity=0 time=0
note_on channel=0 note=72 velocity=79 time=0
note_on channel=0 note=72 velocity=0 time=120
note_on channel=0 note=69 velocity=78 time=0
note_on channel=0 note=69 velocity=0 time=0
note_on channel=0 note=66 velocity=77 time=0
note_on channel=0 note=66 velocity=0 time=120
note_on channel=0 note=63 velocity=76 time=0
note_on channel=0 note=63 velocity=0 time=0
note_on channel=0 note=60 velocity=75 time=0
note_on channel=0 note=60 velocity=0 time=120
note_on channel=0 note=57 velocity=69 time=0
note_on channel=0 note=57 velocity=0 time=0
note_on channel=0 note=54 velocity=68 time=0
note_on channel=0 note=54 velocity=0 time=120
note_on channel=0 note=51 velocity=68 time=0
note_on channel=0 note=51 velocity=0 time=0
note_on channel=0 note=48 velocity=67 time=0
note_on channel=0 note=48 velocity=0 time=120
note_on channel=0 note=45 velocity=66 time=0
note_on channel=0 note=45 velocity=0 time=0
note_on channel=0 note=42 velocity=66 time=0
note_on channel=0 note=42 velocity=0 time=120
note_on channel=0 note=39 velocity=65 time=0
note_on channel=0 note=39 velocity=0 time=0
note_on channel=0 note=36 velocity=64 time=0
note_on channel=0 note=36 velocity=0 time=120
note_on channel=0 note=33 velocity=63 time=0
note_on channel=0 note=33 velocity=0 time=0
note_on channel=0 note=30 velocity=60 time=0
control_change channel=0 control=64 value=0 time=11
control_change channel=0 control=64 value=127 time=23
note_on channel=0 note=30 velocity=0 time=57
note_on channel=0 note=33 velocity=59 time=0
note_on channel=0 note=33 velocity=0 time=120
note_on channel=0 note=36 velocity=58 time=0
note_on channel=0 note=36 velocity=0 time=120
note_on channel=0 note=39 velocity=57 time=0
note_on channel=0 note=39 velocity=0 time=80
note_on channel=0 note=30 velocity=56 time=0
control_change channel=0 control=64 value=0 time=15
control_change channel=0 control=64 value=127 time=71
note_on channel=0 note=30 velocity=0 time=34
note_on channel=0 note=33 velocity=54 time=0
note_on channel=0 note=33 velocity=0 time=120
note_on channel=0 note=36 velocity=53 time=0
note_on channel=0 note=36 velocity=0 time=80
note_on channel=0 note=39 velocity=52 time=0
note_on channel=0 note=39 velocity=0 time=120
note_on channel=0 note=30 velocity=51 time=0
control_change channel=0 control=64 value=0 time=11
control_change channel=0 control=64 value=127 time=52
note_on channel=0 note=30 velocity=0 time=57
note_on channel=0 note=33 velocity=47 time=0
note_on channel=0 note=33 velocity=0 time=80
note_on channel=0 note=36 velocity=47 time=0
note_on channel=0 note=36 velocity=0 time=120
note_on channel=0 note=39 velocity=47 time=0
note_on channel=0 note=39 velocity=0 time=120
note_on channel=0 note=30 velocity=52 time=0
control_change channel=0 control=64 value=0 time=17
control_change channel=0 control=64 value=127 time=29
note_on channel=0 note=30 velocity=0 time=51
note_on channel=0 note=33 velocity=47 time=0
note_on channel=0 note=33 velocity=0 time=120
note_on channel=0 note=36 velocity=46 time=0
note_on channel=0 note=36 velocity=0 time=0
note_on channel=0 note=39 velocity=46 time=0
note_on channel=0 note=39 velocity=0 time=0
note_on channel=0 note=29 velocity=39 time=0
control_change channel=0 control=64 value=0 time=23
note_on channel=0 note=57 velocity=40 time=97
note_on channel=0 note=57 velocity=0 time=40
note_on channel=0 note=60 velocity=37 time=0
note_on channel=0 note=60 velocity=0 time=0
note_on channel=0 note=63 velocity=37 time=0
note_on channel=0 note=63 velocity=0 time=0
note_on channel=0 note=29 velocity=0 time=0
note_on channel=0 note=66 velocity=40 time=0
note_on channel=0 note=66 velocity=0 time=120
note_on channel=0 note=68 velocity=38 time=0
note_on channel=0 note=68 velocity=0 time=120
note_on channel=0 note=66 velocity=38 time=0
note_on channel=0 note=66 velocity=0 time=40
note_on channel=0 note=65 velocity=38 time=0
note_on channel=0 note=65 velocity=0 time=120
note_on channel=0 note=63 velocity=40 time=0
note_on channel=0 note=63 velocity=0 time=120
note_on channel=0 note=65 velocity=37 time=0
note_on channel=0 note=65 velocity=0 time=80
note_on channel=0 note=63 velocity=37 time=0
note_on channel=0 note=63 velocity=0 time=120
note_on channel=0 note=61 velocity=37 time=0
note_on channel=0 note=61 velocity=0 time=0
note_on channel=0 note=60 velocity=40 time=0
note_on channel=0 note=60 velocity=0 time=120
note_on channel=0 note=61 velocity=37 time=0
note_on channel=0 note=61 velocity=0 time=120
note_on channel=0 note=63 velocity=37 time=0
note_on channel=0 note=63 velocity=0 time=0
note_on channel=0 note=60 velocity=37 time=0
note_on channel=0 note=41 velocity=35 time=0
note_on channel=0 note=41 velocity=0 time=0
note_on channel=0 note=60 velocity=0 time=0
note_on channel=0 note=29 velocity=40 time=0
note_on channel=0 note=57 velocity=40 time=120
note_on channel=0 note=57 velocity=0 time=80
note_on channel=0 note=60 velocity=37 time=0
note_on channel=0 note=60 velocity=0 time=80
note_on channel=0 note=63 velocity=37 time=0
note_on channel=0 note=63 velocity=0 time=0
note_on channel=0 note=29 velocity=0 time=0
note_on channel=0 note=66 velocity=40 time=0
note_on channel=0 note=66 velocity=0 time=0
note_on channel=0 note=68 velocity=38 time=0
note_on channel=0 note=68 velocity=0 time=120
note_on channel=0 note=66 velocity=38 time=0
note_on channel=0 note=66 velocity=0 time=120
note_on channel=0 note=65 velocity=38 time=0
note_on channel=0 note=65 velocity=0 time=40
note_on channel=0 note=63 velocity=40 time=0
note_on channel=0 note=63 velocity=0 time=120
note_on channel=0 note=65 velocity=37 time=0
note_on channel=0 note=65 velocity=0 time=0
note_on channel=0 note=63 velocity=37 time=0
note_on channel=0 note=63 velocity=0 time=120
note_on channel=0 note=61 velocity=37 time=0
note_on channel=0 note=61 velocity=0 time=120
note_on channel=0 note=60 velocity=40 time=0
note_on channel=0 note=60 velocity=0 time=80
note_on channel=0 note=61 velocity=37 time=0
note_on channel=0 note=61 velocity=0 time=120
note_on channel=0 note=63 velocity=37 time=0
note_on channel=0 note=63 velocity=0 time=0
note_on channel=0 note=60 velocity=37 time=0
note_on channel=0 note=41 velocity=35 time=0
note_on channel=0 note=41 velocity=0 time=0
note_on channel=0 note=60 velocity=0 time=0
note_on channel=0 note=29 velocity=40 time=0
note_on channel=0 note=57 velocity=47 time=0
note_on channel=0 note=57 velocity=0 time=120
note_on channel=0 note=60 velocity=49 time=0
note_on channel=0 note=60 velocity=0 time=40
note_on channel=0 note=63 velocity=50 time=0
note_on channel=0 note=63 velocity=0 time=0
note_on channel=0 note=29 velocity=0 time=0
note_on channel=0 note=66 velocity=52 time=0
note_on channel=0 note=66 velocity=0 time=120
note_on channel=0 note=68 velocity=54 time=0
note_on channel=0 note=68 velocity=0 time=120
note_on channel=0 note=66 velocity=56 time=0
note_on channel=0 note=57 velocity=38 time=0
note_on channel=0 note=57 velocity=0 time=0
note_on channel=0 note=66 velocity=0 time=0
note_on channel=0 note=65 velocity=58 time=0
note_on channel=0 note=58 velocity=42 time=0
note_on channel=0 note=58 velocity=0 time=0
note_on channel=0 note=65 velocity=0 time=0
note_on channel=0 note=63 velocity=67 time=0
note_on channel=0 note=60 velocity=49 time=0
note_on channel=0 note=60 velocity=0 time=120
note_on channel=0 note=61 velocity=42 time=0
note_on channel=0 note=61 velocity=0 time=80
note_on channel=0 note=63 velocity=0 time=0
note_on channel=0 note=63 velocity=47 time=0
note_on channel=0 note=60 velocity=43 time=0
note_on channel=0 note=60 velocity=0 time=120
note_on channel=0 note=63 velocity=0 time=0
note_on channel=0 note=65 velocity=49 time=0
note_on channel=0 note=58 velocity=43 time=0
note_on channel=0 note=58 velocity=0 time=0
note_on channel=0 note=65 velocity=0 time=0
note_on channel=0 note=66 velocity=52 time=0
note_on channel=0 note=57 velocity=47 time=0
note_on channel=0 note=66 velocity=0 time=120
note_on channel=0 note=68 velocity=54 time=0
note_on channel=0 note=68 velocity=0 time=120
note_on channel=0 note=57 velocity=0 time=0
note_on channel=0 note=66 velocity=56 time=0
note_on channel=0 note=57 velocity=41 time=0
note_on channel=0 note=57 velocity=0 time=0
note_on channel=0 note=66 velocity=0 time=0
note_on channel=0 note=65 velocity=59 time=0
note_on channel=0 note=58 velocity=46 time=0
note_on channel=0 note=58 velocity=0 time=0
note_on channel=0 note=65 velocity=0 time=0
note_on channel=0 note=63 velocity=67 time=0
note_on channel=0 note=60 velocity=53 time=0
note_on channel=0 note=60 velocity=0 time=120
note_on channel=0 note=61 velocity=42 time=0
note_on channel=0 note=61 velocity=0 time=80
note_on channel=0 note=63 velocity=0 time=0
note_on channel=0 note=63 velocity=50 time=0
note_on channel=0 note=60 velocity=43 time=0
note_on channel=0 note=60 velocity=0 time=120
note_on channel=0 note=63 velocity=0 time=0
note_on channel=0 note=65 velocity=50 time=0
note_on channel=0 note=58 velocity=43 time=0
note_on channel=0 note=58 velocity=0 time=0
note_on channel=0 note=65 velocity=0 time=0
note_on channel=0 note=66 velocity=56 time=0
note_on channel=0 note=57 velocity=47 time=0
note_on channel=0 note=66 velocity=0 time=120
note_on channel=0 note=68 velocity=49 time=0
note_on channel=0 note=68 velocity=0 time=120
note_on channel=0 note=57 velocity=0 time=0
note_on channel=0 note=66 velocity=50 time=0
note_on channel=0 note=57 velocity=43 time=0
note_on channel=0 note=57 velocity=0 time=0
note_on channel=0 note=66 velocity=0 time=0
note_on channel=0 note=65 velocity=50 time=0
note_on channel=0 note=58 velocity=47 time=0
note_on channel=0 note=58 velocity=0 time=0
note_on channel=0 note=65 velocity=0 time=0
note_on channel=0 note=63 velocity=67 time=0
note_on channel=0 note=60 velocity=52 time=0
note_on channel=0 note=60 velocity=0 time=120
note_on channel=0 note=61 velocity=42 time=0
note_on channel=0 note=61 velocity=0 time=0
note_on channel=0 note=63 velocity=0 time=0
note_on channel=0 note=66 velocity=56 time=0
note_on channel=0 note=78 velocity=56 time=0
note_on channel=0 note=60 velocity=43 time=0
control_change channel=0 control=64 value=127 time=35
note_on channel=0 note=60 velocity=0 time=85
note_on channel=0 note=58 velocity=43 time=0
note_on channel=0 note=58 velocity=0 time=0
note_on channel=0 note=78 velocity=0 time=0
note_on channel=0 note=66 velocity=0 time=0
note_on channel=0 note=65 velocity=60 time=0
note_on channel=0 note=77 velocity=60 time=0
note_on channel=0 note=57 velocity=44 time=0
control_change channel=0 control=64 value=0 time=12
control_change channel=0 control=64 value=127 time=45
note_on channel=0 note=57 velocity=0 time=63
note_on channel=0 note=54 velocity=42 time=0
note_on channel=0 note=54 velocity=0 time=120
note_on channel=0 note=77 velocity=0 time=0
note_on channel=0 note=65 velocity=0 time=0
note_on channel=0 note=69 velocity=54 time=0
note_on channel=0 note=81 velocity=54 time=0
note_on channel=0 note=53 velocity=41 time=0
note_on channel=0 note=53 velocity=0 time=120
note_on channel=0 note=51 velocity=39 time=0
note_on channel=0 note=51 velocity=0 time=0
note_on channel=0 note=81 velocity=0 time=0
note_on channel=0 note=69 velocity=0 time=0
note_on channel=0 note=82 velocity=56 time=0
note_on channel=0 note=70 velocity=56 time=0
note_on channel=0 note=49 velocity=44 time=0
control_change channel=0 control=64 value=0 time=8
control_change channel=0 control=64 value=127 time=72
note_on channel=0 note=70 velocity=0 time=0
note_on channel=0 note=82 velocity=0 time=0
note_on channel=0 note=65 velocity=51 time=0
note_on channel=0 note=53 velocity=32 time=0
note_on channel=0 note=53 velocity=0 time=0
note_on channel=0 note=65 velocity=0 time=0
note_on channel=0 note=70 velocity=52 time=0
note_on channel=0 note=58 velocity=33 time=0
note_on channel=0 note=58 velocity=0 time=0
note_on channel=0 note=70 velocity=0 time=0
note_on channel=0 note=73 velocity=53 time=0
note_on channel=0 note=53 velocity=34 time=0
note_on channel=0 note=53 velocity=0 time=0
note_on channel=0 note=73 velocity=0 time=0
note_on channel=0 note=77 velocity=57 time=0
note_on channel=0 note=58 velocity=38 time=0
note_on channel=0 note=58 velocity=0 time=0
note_on channel=0 note=77 velocity=0 time=0
note_on channel=0 note=78 velocity=55 time=0
note_on channel=0 note=53 velocity=37 time=0
note_on channel=0 note=53 velocity=0 time=0
note_on channel=0 note=78 velocity=0 time=0
note_on channel=0 note=77 velocity=56 time=0
note_on channel=0 note=58 velocity=38 time=0
note_on channel=0 note=58 velocity=0 time=0
note_on channel=0 note=77 velocity=0 time=0
note_on channel=0 note=75 velocity=55 time=0
note_on channel=0 note=53 velocity=38 time=0
note_on channel=0 note=53 velocity=0 time=0
note_on channel=0 note=75 velocity=0 time=0
note_on channel=0 note=73 velocity=57 time=0
note_on channel=0 note=58 velocity=39 time=0
control_change channel=0 control=64 value=0 time=9
control_change channel=0 control=64 value=127 time=12
note_on channel=0 note=58 velocity=0 time=28
note_on channel=0 note=73 velocity=0 time=0
note_on channel=0 note=75 velocity=56 time=0
note_on channel=0 note=53 velocity=39 time=0
note_on channel=0 note=53 velocity=0 time=0
note_on channel=0 note=75 velocity=0 time=0
note_on channel=0 note=73 velocity=56 time=0
note_on channel=0 note=58 velocity=38 time=0
note_on channel=0 note=58 velocity=0 time=40
note_on channel=0 note=73 velocity=0 time=0
note_on channel=0 note=72 velocity=55 time=0
note_on channel=0 note=53 velocity=38 time=0
note_on channel=0 note=53 velocity=0 time=0
note_on channel=0 note=72 velocity=0 time=0
note_on channel=0 note=70 velocity=54 time=0
note_on channel=0 note=58 velocity=38 time=0
note_on channel=0 note=58 velocity=0 time=40
note_on channel=0 note=70 velocity=0 time=0
note_on channel=0 note=72 velocity=53 time=0
note_on channel=0 note=53 velocity=37 time=0
note_on channel=0 note=53 velocity=0 time=0
note_on channel=0 note=72 velocity=0 time=0
note_on channel=0 note=73 velocity=53 time=0
note_on channel=0 note=58 velocity=37 time=0
note_on channel=0 note=58 velocity=0 time=40
note_on channel=0 note=73 velocity=0 time=0
note_on channel=0 note=70 velocity=52 time=0
note_on channel=0 note=53 velocity=36 time=0
note_on channel=0 note=53 velocity=0 time=0
note_on channel=0 note=70 velocity=0 time=0
note_on channel=0 note=49 velocity=0 time=0
note_on channel=0 note=49 velocity=44 time=0
control_change channel=0 control=64 value=0 time=11
control_change channel=0 control=64 value=127 time=17
note_on channel=0 note=65 velocity=51 time=63
note_on channel=0 note=53 velocity=32 time=0
note_on channel=0 note=53 velocity=0 time=0
note_on channel=0 note=65 velocity=0 time=0
note_on channel=0 note=70 velocity=52 time=0
note_on channel=0 note=58 velocity=33 time=0
note_on channel=0 note=58 velocity=0 time=0
note_on channel=0 note=70 velocity=0 time=0
note_on channel=0 note=73 velocity=53 time=0
note_on channel=0 note=53 velocity=34 time=0
note_on channel=0 note=53 velocity=0 time=40
note_on channel=0 note=73 velocity=0 time=0
note_on channel=0 note=77 velocity=57 time=0
note_on channel=0 note=58 velocity=38 time=0
note_on channel=0 note=58 velocity=0 time=40
note_on channel=0 note=77 velocity=0 time=0
note_on channel=0 note=78 velocity=55 time=0
note_on channel=0 note=53 velocity=37 time=0
note_on channel=0 note=53 velocity=0 time=80
note_on channel=0 note=78 velocity=0 time=0
note_on channel=0 note=77 velocity=56 time=0
note_on channel=0 note=58 velocity=38 time=0
note_on channel=0 note=58 velocity=0 time=0
note_on channel=0 note=77 velocity=0 time=0
note_on channel=0 note=75 velocity=55 time=0
note_on channel=0 note=53 velocity=38 time=0
note_on channel=0 note=53 velocity=0 time=40
note_on channel=0 note=75 velocity=0 time=0
note_on channel=0 note=73 velocity=57 time=0
note_on channel=0 note=58 velocity=39 time=0
control_change channel=0 control=64 value=0 time=13
control_change channel=0 control=64 value=127 time=31
note_on channel=0 note=58 velocity=0 time=0
note_on channel=0 note=73 velocity=0 time=0
note_on channel=0 note=75 velocity=56 time=0
note_on channel=0 note=53 velocity=39 time=0
note_on channel=0 note=53 velocity=0 time=40
note_on channel=0 note=75 velocity=0 time=0
note_on channel=0 note=73 velocity=56 time=0
note_on channel=0 note=58 velocity=38 time=0
note_on channel=0 note=58 velocity=0 time=0
note_on channel=0 note=73 velocity=0 time=0
note_on channel=0 note=72 velocity=55 time=0
note_on channel=0 note=53 velocity=38 time=0
note_on channel=0 note=53 velocity=0 time=40
note_on channel=0 note=72 velocity=0 time=0
note_on channel=0 note=70 velocity=54 time=0
note_on channel=0 note=58 velocity=38 time=0
note_on channel=0 note=58 velocity=0 time=0
note_on channel=0 note=70 velocity=0 time=0
note_on channel=0 note=72 velocity=53 time=0
note_on channel=0 note=53 velocity=37 time=0
note_on channel=0 note=53 velocity=0 time=40
note_on channel=0 note=72 velocity=0 time=0
note_on channel=0 note=73 velocity=53 time=0
note_on channel=0 note=58 velocity=37 time=0
note_on channel=0 note=58 velocity=0 time=0
note_on channel=0 note=73 velocity=0 time=0
note_on channel=0 note=70 velocity=52 time=0
note_on channel=0 note=53 velocity=36 time=0
note_on channel=0 note=53 velocity=0 time=0
note_on channel=0 note=70 velocity=0 time=0
note_on channel=0 note=49 velocity=0 time=0
note_on channel=0 note=51 velocity=44 time=0
control_change channel=0 control=64 value=0 time=13
control_change channel=0 control=64 value=127 time=50
note_on channel=0 note=66 velocity=51 time=0
note_on channel=0 note=54 velocity=32 time=0
note_on channel=0 note=54 velocity=0 time=20
note_on channel=0 note=66 velocity=0 time=0
note_on channel=0 note=71 velocity=53 time=0
note_on channel=0 note=59 velocity=33 time=0
note_on channel=0 note=59 velocity=0 time=40
note_on channel=0 note=71 velocity=0 time=0
note_on channel=0 note=75 velocity=54 time=0
note_on channel=0 note=54 velocity=35 time=0
note_on channel=0 note=54 velocity=0 time=40
note_on channel=0 note=75 velocity=0 time=0
note_on channel=0 note=78 velocity=59 time=0
note_on channel=0 note=59 velocity=39 time=0
note_on channel=0 note=59 velocity=0 time=60
note_on channel=0 note=78 velocity=0 time=0
note_on channel=0 note=80 velocity=58 time=0
note_on channel=0 note=54 velocity=39 time=0
note_on channel=0 note=54 velocity=0 time=80
note_on channel=0 note=80 velocity=0 time=0
note_on channel=0 note=78 velocity=59 time=0
note_on channel=0 note=59 velocity=40 time=0
note_on channel=0 note=59 velocity=0 time=80
note_on channel=0 note=78 velocity=0 time=0
note_on channel=0 note=77 velocity=59 time=0
note_on channel=0 note=54 velocity=41 time=0
note_on channel=0 note=54 velocity=0 time=0
note_on channel=0 note=77 velocity=0 time=0
note_on channel=0 note=75 velocity=62 time=0
note_on channel=0 note=59 velocity=42 time=0
control_change channel=0 control=64 value=0 time=10
control_change channel=0 control=64 value=127 time=9
note_on channel=0 note=59 velocity=0 time=0
note_on channel=0 note=75 velocity=0 time=0
note_on channel=0 note=77 velocity=62 time=0
note_on channel=0 note=54 velocity=43 time=0
note_on channel=0 note=54 velocity=0 time=20
note_on channel=0 note=77 velocity=0 time=0
note_on channel=0 note=75 velocity=62 time=0
note_on channel=0 note=59 velocity=42 time=0
note_on channel=0 note=59 velocity=0 time=20
note_on channel=0 note=75 velocity=0 time=0
note_on channel=0 note=73 velocity=62 time=0
note_on channel=0 note=54 velocity=42 time=0
note_on channel=0 note=54 velocity=0 time=40
note_on channel=0 note=73 velocity=0 time=0
note_on channel=0 note=71 velocity=62 time=0
note_on channel=0 note=59 velocity=43 time=0
note_on channel=0 note=59 velocity=0 time=0
note_on channel=0 note=71 velocity=0 time=0
note_on channel=0 note=73 velocity=61 time=0
note_on channel=0 note=54 velocity=42 time=0
note_on channel=0 note=54 velocity=0 time=20
note_on channel=0 note=73 velocity=0 time=0
note_on channel=0 note=75 velocity=64 time=0
note_on channel=0 note=59 velocity=45 time=0
note_on channel=0 note=59 velocity=0 time=20
note_on channel=0 note=75 velocity=0 time=0
note_on channel=0 note=71 velocity=61 time=0
note_on channel=0 note=54 velocity=42 time=0
note_on channel=0 note=54 velocity=0 time=40
note_on channel=0 note=71 velocity=0 time=0
note_on channel=0 note=51 velocity=0 time=0
note_on channel=0 note=70 velocity=68 time=0
note_on channel=0 note=53 velocity=46 time=0
control_change channel=0 control=64 value=0 time=17
control_change channel=0 control=64 value=127 time=0
note_on channel=0 note=70 velocity=0 time=40
note_on channel=0 note=72 velocity=64 time=0
note_on channel=0 note=58 velocity=46 time=0
note_on channel=0 note=58 velocity=0 time=0
note_on channel=0 note=72 velocity=0 time=0
note_on channel=0 note=70 velocity=66 time=0
note_on channel=0 note=61 velocity=44 time=0
note_on channel=0 note=61 velocity=0 time=40
note_on channel=0 note=70 velocity=0 time=0
note_on channel=0 note=69 velocity=64 time=0
note_on channel=0 note=58 velocity=44 time=0
note_on channel=0 note=58 velocity=0 time=0
note_on channel=0 note=69 velocity=0 time=0
note_on channel=0 note=70 velocity=62 time=0
note_on channel=0 note=61 velocity=43 time=0
note_on channel=0 note=61 velocity=0 time=40
note_on channel=0 note=70 velocity=0 time=0
note_on channel=0 note=72 velocity=60 time=0
note_on channel=0 note=58 velocity=42 time=0
note_on channel=0 note=58 velocity=0 time=0
note_on channel=0 note=72 velocity=0 time=0
note_on channel=0 note=73 velocity=59 time=0
note_on channel=0 note=61 velocity=41 time=0
note_on channel=0 note=61 velocity=0 time=20
note_on channel=0 note=73 velocity=0 time=0
note_on channel=0 note=70 velocity=58 time=0
note_on channel=0 note=58 velocity=40 time=0
note_on channel=0 note=58 velocity=0 time=40
note_on channel=0 note=70 velocity=0 time=0
note_on channel=0 note=53 velocity=0 time=0
note_on channel=0 note=69 velocity=62 time=0
note_on channel=0 note=51 velocity=42 time=0
control_change channel=0 control=64 value=0 time=10
control_change channel=0 control=64 value=127 time=59
note_on channel=0 note=69 velocity=0 time=40
note_on channel=0 note=70 velocity=61 time=0
note_on channel=0 note=53 velocity=42 time=0
note_on channel=0 note=53 velocity=0 time=0
note_on channel=0 note=70 velocity=0 time=0
note_on channel=0 note=69 velocity=60 time=0
note_on channel=0 note=60 velocity=41 time=0
note_on channel=0 note=60 velocity=0 time=0
note_on channel=0 note=69 velocity=0 time=0
note_on channel=0 note=67 velocity=58 time=0
note_on channel=0 note=53 velocity=40 time=0
note_on channel=0 note=53 velocity=0 time=40
note_on channel=0 note=67 velocity=0 time=0
note_on channel=0 note=69 velocity=56 time=0
note_on channel=0 note=60 velocity=39 time=0
note_on channel=0 note=60 velocity=0 time=80
note_on channel=0 note=69 velocity=0 time=0
note_on channel=0 note=70 velocity=55 time=0
note_on channel=0 note=53 velocity=38 time=0
note_on channel=0 note=53 velocity=0 time=0
note_on channel=0 note=70 velocity=0 time=0
note_on channel=0 note=72 velocity=54 time=0
note_on channel=0 note=60 velocity=38 time=0
note_on channel=0 note=60 velocity=0 time=20
note_on channel=0 note=72 velocity=0 time=0
note_on channel=0 note=69 velocity=53 time=0
note_on channel=0 note=53 velocity=36 time=0
note_on channel=0 note=53 velocity=0 time=0
note_on channel=0 note=69 velocity=0 time=0
note_on channel=0 note=51 velocity=0 time=0
note_on channel=0 note=70 velocity=61 time=0
note_on channel=0 note=49 velocity=48 time=0
control_change channel=0 control=64 value=0 time=17
control_change channel=0 control=64 value=127 time=18
note_on channel=0 note=49 velocity=0 time=80
note_on channel=0 note=65 velocity=48 time=0
note_on channel=0 note=65 velocity=0 time=120
note_on channel=0 note=70 velocity=0 time=0
note_on channel=0 note=70 velocity=57 time=0
note_on channel=0 note=70 velocity=0 time=80
note_on channel=0 note=73 velocity=58 time=0
note_on channel=0 note=73 velocity=0 time=0
note_on channel=0 note=77 velocity=62 time=0
note_on channel=0 note=58 velocity=58 time=0
note_on channel=0 note=77 velocity=0 time=120
note_on channel=0 note=78 velocity=60 time=0
note_on channel=0 note=61 velocity=40 time=0
note_on channel=0 note=61 velocity=0 time=0
note_on channel=0 note=78 velocity=0 time=0
note_on channel=0 note=77 velocity=61 time=0
note_on channel=0 note=65 velocity=41 time=0
note_on channel=0 note=65 velocity=0 time=120
note_on channel=0 note=77 velocity=0 time=0
note_on channel=0 note=75 velocity=60 time=0
note_on channel=0 note=61 velocity=41 time=0
note_on channel=0 note=61 velocity=0 time=0
note_on channel=0 note=75 velocity=0 time=0
note_on channel=0 note=58 velocity=0 time=0
note_on channel=0 note=73 velocity=62 time=0
note_on channel=0 note=57 velocity=62 time=0
control_change channel=0 control=64 value=0 time=9
control_change channel=0 control=64 value=127 time=62
note_on channel=0 note=73 velocity=0 time=0
note_on channel=0 note=75 velocity=61 time=0
note_on channel=0 note=61 velocity=42 time=0
note_on channel=0 note=61 velocity=0 time=0
note_on channel=0 note=75 velocity=0 time=0
note_on channel=0 note=73 velocity=61 time=0
note_on channel=0 note=65 velocity=41 time=0
note_on channel=0 note=65 velocity=0 time=0
note_on channel=0 note=73 velocity=0 time=0
note_on channel=0 note=72 velocity=60 time=0
note_on channel=0 note=61 velocity=41 time=0
note_on channel=0 note=61 velocity=0 time=0
note_on channel=0 note=72 velocity=0 time=0
note_on channel=0 note=57 velocity=0 time=0
note_on channel=0 note=82 velocity=69 time=0
note_on channel=0 note=70 velocity=69 time=0
note_on channel=0 note=58 velocity=54 time=0
note_on channel=0 note=70 velocity=0 time=0
note_on channel=0 note=72 velocity=58 time=0
note_on channel=0 note=61 velocity=40 time=0
note_on channel=0 note=61 velocity=0 time=0
note_on channel=0 note=72 velocity=0 time=0
note_on channel=0 note=82 velocity=0 time=0
note_on channel=0 note=73 velocity=59 time=0
note_on channel=0 note=65 velocity=40 time=0
note_on channel=0 note=65 velocity=0 time=20
note_on channel=0 note=73 velocity=0 time=0
note_on channel=0 note=70 velocity=58 time=0
note_on channel=0 note=61 velocity=40 time=0
note_on channel=0 note=61 velocity=0 time=0
note_on channel=0 note=70 velocity=0 time=0
note_on channel=0 note=58 velocity=0 time=0
note_on channel=0 note=81 velocity=71 time=0
note_on channel=0 note=49 velocity=49 time=0
control_change channel=0 control=64 value=0 time=16
control_change channel=0 control=64 value=127 time=59
note_on channel=0 note=49 velocity=0 time=0
note_on channel=0 note=65 velocity=50 time=0
note_on channel=0 note=65 velocity=0 time=0
note_on channel=0 note=81 velocity=0 time=0
note_on channel=0 note=70 velocity=60 time=0
note_on channel=0 note=70 velocity=0 time=0
note_on channel=0 note=73 velocity=62 time=0
note_on channel=0 note=73 velocity=0 time=0
note_on channel=0 note=82 velocity=69 time=0
note_on channel=0 note=77 velocity=69 time=0
note_on channel=0 note=58 velocity=65 time=0
note_on channel=0 note=77 velocity=0 time=0
note_on channel=0 note=78 velocity=65 time=0
note_on channel=0 note=61 velocity=43 time=0
note_on channel=0 note=61 velocity=0 time=0
note_on channel=0 note=78 velocity=0 time=0
note_on channel=0 note=82 velocity=0 time=0
note_on channel=0 note=77 velocity=67 time=0
note_on channel=0 note=65 velocity=45 time=0
note_on channel=0 note=65 velocity=0 time=0
note_on channel=0 note=77 velocity=0 time=0
note_on channel=0 note=75 velocity=66 time=0
note_on channel=0 note=61 velocity=45 time=0
note_on channel=0 note=61 velocity=0 time=40
note_on channel=0 note=75 velocity=0 time=0
note_on channel=0 note=58 velocity=0 time=0
note_on channel=0 note=73 velocity=69 time=0
note_on channel=0 note=57 velocity=70 time=0
control_change channel=0 control=64 value=0 time=10
control_change channel=0 control=64 value=127 time=45
note_on channel=0 note=73 velocity=0 time=0
note_on channel=0 note=75 velocity=68 time=0
note_on channel=0 note=61 velocity=47 time=0
note_on channel=0 note=61 velocity=0 time=40
note_on channel=0 note=75 velocity=0 time=0
note_on channel=0 note=73 velocity=69 time=0
note_on channel=0 note=65 velocity=46 time=0
note_on channel=0 note=65 velocity=0 time=0
note_on channel=0 note=73 velocity=0 time=0
note_on channel=0 note=72 velocity=69 time=0
note_on channel=0 note=61 velocity=47 time=0
note_on channel=0 note=61 velocity=0 time=0
note_on channel=0 note=72 velocity=0 time=0
note_on channel=0 note=57 velocity=0 time=0
note_on channel=0 note=82 velocity=82 time=0
note_on channel=0 note=70 velocity=68 time=0
note_on channel=0 note=58 velocity=72 time=0
note_on channel=0 note=70 velocity=0 time=40
note_on channel=0 note=72 velocity=67 time=0
note_on channel=0 note=61 velocity=46 time=0
note_on channel=0 note=61 velocity=0 time=0
note_on channel=0 note=72 velocity=0 time=0
note_on channel=0 note=82 velocity=0 time=0
note_on channel=0 note=73 velocity=68 time=0
note_on channel=0 note=65 velocity=47 time=0
note_on channel=0 note=65 velocity=0 time=20
note_on channel=0 note=73 velocity=0 time=0
note_on channel=0 note=70 velocity=67 time=0
note_on channel=0 note=61 velocity=46 time=0
note_on channel=0 note=61 velocity=0 time=0
note_on channel=0 note=70 velocity=0 time=0
note_on channel=0 note=58 velocity=0 time=0
note_on channel=0 note=71 velocity=88 time=0
note_on channel=0 note=83 velocity=88 time=0
note_on channel=0 note=51 velocity=70 time=0
control_change channel=0 control=64 value=0 time=14
control_change channel=0 control=64 value=127 time=55
note_on channel=0 note=51 velocity=0 time=51
note_on channel=0 note=83 velocity=0 time=0
note_on channel=0 note=71 velocity=0 time=0
note_on channel=0 note=78 velocity=74 time=0
note_on channel=0 note=66 velocity=55 time=0
note_on channel=0 note=71 velocity=55 time=0
note_on channel=0 note=71 velocity=0 time=80
note_on channel=0 note=66 velocity=0 time=0
note_on channel=0 note=78 velocity=0 time=0
note_on channel=0 note=83 velocity=76 time=0
note_on channel=0 note=63 velocity=59 time=0
note_on channel=0 note=63 velocity=0 time=80
note_on channel=0 note=83 velocity=0 time=0
note_on channel=0 note=87 velocity=78 time=0
note_on channel=0 note=66 velocity=55 time=0
note_on channel=0 note=71 velocity=55 time=0
note_on channel=0 note=71 velocity=0 time=40
note_on channel=0 note=66 velocity=0 time=0
note_on channel=0 note=87 velocity=0 time=0
note_on channel=0 note=90 velocity=80 time=0
note_on channel=0 note=63 velocity=59 time=0
control_change channel=0 control=64 value=0 time=12
control_change channel=0 control=64 value=127 time=6
note_on channel=0 note=63 velocity=0 time=34
note_on channel=0 note=90 velocity=0 time=0
note_on channel=0 note=92 velocity=76 time=0
note_on channel=0 note=66 velocity=55 time=0
note_on channel=0 note=71 velocity=55 time=0
note_on channel=0 note=71 velocity=0 time=0
note_on channel=0 note=66 velocity=0 time=0
note_on channel=0 note=92 velocity=0 time=0
note_on channel=0 note=90 velocity=76 time=0
note_on channel=0 note=63 velocity=59 time=0
note_on channel=0 note=63 velocity=0 time=0
note_on channel=0 note=90 velocity=0 time=0
note_on channel=0 note=89 velocity=76 time=0
note_on channel=0 note=66 velocity=56 time=0
note_on channel=0 note=71 velocity=56 time=0
note_on channel=0 note=71 velocity=0 time=0
note_on channel=0 note=66 velocity=0 time=0
note_on channel=0 note=89 velocity=0 time=0
note_on channel=0 note=87 velocity=77 time=0
note_on channel=0 note=63 velocity=59 time=0
control_change channel=0 control=64 value=0 time=15
control_change channel=0 control=64 value=127 time=17
note_on channel=0 note=63 velocity=0 time=63
note_on channel=0 note=87 velocity=0 time=0
note_on channel=0 note=89 velocity=71 time=0
note_on channel=0 note=66 velocity=55 time=0
note_on channel=0 note=71 velocity=55 time=0
note_on channel=0 note=71 velocity=0 time=0
note_on channel=0 note=66 velocity=0 time=0
note_on channel=0 note=89 velocity=0 time=0
note_on channel=0 note=87 velocity=72 time=0
note_on channel=0 note=63 velocity=59 time=0
note_on channel=0 note=63 velocity=0 time=0
note_on channel=0 note=87 velocity=0 time=0
note_on channel=0 note=85 velocity=72 time=0
note_on channel=0 note=66 velocity=55 time=0
note_on channel=0 note=71 velocity=55 time=0
note_on channel=0 note=71 velocity=0 time=40
note_on channel=0 note=66 velocity=0 time=0
note_on channel=0 note=85 velocity=0 time=0
note_on channel=0 note=83 velocity=78 time=0
note_on channel=0 note=63 velocity=59 time=0
control_change channel=0 control=64 value=0 time=17
control_change channel=0 control=64 value=127 time=0
note_on channel=0 note=63 velocity=0 time=40
note_on channel=0 note=83 velocity=0 time=0
note_on channel=0 note=85 velocity=73 time=0
note_on channel=0 note=66 velocity=55 time=0
note_on channel=0 note=71 velocity=55 time=0
note_on channel=0 note=71 velocity=0 time=80
note_on channel=0 note=66 velocity=0 time=0
note_on channel=0 note=85 velocity=0 time=0
note_on channel=0 note=83 velocity=73 time=0
note_on channel=0 note=63 velocity=59 time=0
note_on channel=0 note=63 velocity=0 time=0
note_on channel=0 note=83 velocity=0 time=0
note_on channel=0 note=82 velocity=72 time=0
note_on channel=0 note=66 velocity=56 time=0
note_on channel=0 note=71 velocity=56 time=0
note_on channel=0 note=71 velocity=0 time=40
note_on channel=0 note=66 velocity=0 time=0
note_on channel=0 note=82 velocity=0 time=0
note_on channel=0 note=81 velocity=77 time=0
note_on channel=0 note=65 velocity=59 time=0
control_change channel=0 control=64 value=0 time=13
control_change channel=0 control=64 value=127 time=50
note_on channel=0 note=65 velocity=0 time=0
note_on channel=0 note=81 velocity=0 time=0
note_on channel=0 note=84 velocity=71 time=0
note_on channel=0 note=69 velocity=55 time=0
note_on channel=0 note=72 velocity=55 time=0
note_on channel=0 note=75 velocity=55 time=0
note_on channel=0 note=75 velocity=0 time=0
note_on channel=0 note=84 velocity=0 time=0
note_on channel=0 note=69 velocity=0 time=0
note_on channel=0 note=72 velocity=0 time=0
note_on channel=0 note=87 velocity=72 time=0
note_on channel=0 note=65 velocity=59 time=0
note_on channel=0 note=65 velocity=0 time=120
note_on channel=0 note=87 velocity=0 time=0
note_on channel=0 note=85 velocity=72 time=0
note_on channel=0 note=69 velocity=55 time=0
note_on channel=0 note=72 velocity=55 time=0
note_on channel=0 note=75 velocity=55 time=0
note_on channel=0 note=75 velocity=0 time=80
note_on channel=0 note=85 velocity=0 time=0
note_on channel=0 note=69 velocity=0 time=0
note_on channel=0 note=72 velocity=0 time=0
note_on channel=0 note=84 velocity=78 time=0
note_on channel=0 note=65 velocity=59 time=0
control_change channel=0 control=64 value=0 time=18
control_change channel=0 control=64 value=127 time=35
note_on channel=0 note=65 velocity=0 time=40
note_on channel=0 note=84 velocity=0 time=0
note_on channel=0 note=85 velocity=73 time=0
note_on channel=0 note=69 velocity=55 time=0
note_on channel=0 note=72 velocity=55 time=0
note_on channel=0 note=75 velocity=55 time=0
note_on channel=0 note=75 velocity=0 time=0
note_on channel=0 note=85 velocity=0 time=0
note_on channel=0 note=69 velocity=0 time=0
note_on channel=0 note=72 velocity=0 time=0
note_on channel=0 note=84 velocity=73 time=0
note_on channel=0 note=65 velocity=59 time=0
note_on channel=0 note=65 velocity=0 time=0
note_on channel=0 note=84 velocity=0 time=0
note_on channel=0 note=82 velocity=72 time=0
note_on channel=0 note=69 velocity=55 time=0
note_on channel=0 note=72 velocity=56 time=0
note_on channel=0 note=75 velocity=56 time=0
note_on channel=0 note=75 velocity=0 time=0
note_on channel=0 note=82 velocity=0 time=0
note_on channel=0 note=69 velocity=0 time=0
note_on channel=0 note=72 velocity=0 time=0
note_on channel=0 note=81 velocity=77 time=0
note_on channel=0 note=65 velocity=59 time=0
control_change channel=0 control=64 value=0 time=10
control_change channel=0 control=64 value=127 time=47
note_on channel=0 note=65 velocity=0 time=63
note_on channel=0 note=81 velocity=0 time=0
note_on channel=0 note=82 velocity=71 time=0
note_on channel=0 note=69 velocity=55 time=0
note_on channel=0 note=69 velocity=0 time=80
note_on channel=0 note=82 velocity=0 time=0
note_on channel=0 note=81 velocity=72 time=0
note_on channel=0 note=65 velocity=59 time=0
note_on channel=0 note=65 velocity=0 time=40
note_on channel=0 note=81 velocity=0 time=0
note_on channel=0 note=78 velocity=72 time=0
note_on channel=0 note=69 velocity=55 time=0
note_on channel=0 note=69 velocity=0 time=120
note_on channel=0 note=78 velocity=0 time=0
note_on channel=0 note=77 velocity=74 time=0
note_on channel=0 note=53 velocity=59 time=0
control_change channel=0 control=64 value=0 time=18
control_change channel=0 control=64 value=127 time=17
note_on channel=0 note=53 velocity=0 time=63
note_on channel=0 note=77 velocity=0 time=0
note_on channel=0 note=75 velocity=71 time=0
note_on channel=0 note=65 velocity=50 time=0
note_on channel=0 note=65 velocity=0 time=40
note_on channel=0 note=75 velocity=0 time=0
note_on channel=0 note=73 velocity=71 time=0
note_on channel=0 note=53 velocity=57 time=0
note_on channel=0 note=53 velocity=0 time=120
note_on channel=0 note=73 velocity=0 time=0
note_on channel=0 note=72 velocity=69 time=0
note_on channel=0 note=65 velocity=49 time=0
note_on channel=0 note=65 velocity=0 time=0
note_on channel=0 note=72 velocity=0 time=0
note_on channel=0 note=70 velocity=73 time=0
note_on channel=0 note=46 velocity=59 time=0
control_change channel=0 control=64 value=0 time=9
note_on channel=0 note=70 velocity=0 time=111
note_on channel=0 note=46 velocity=0 time=0
note_on channel=0 note=77 velocity=74 time=0
note_on channel=0 note=58 velocity=44 time=0
note_on channel=0 note=61 velocity=44 time=0
control_change channel=0 control=64 value=127 time=85
note_on channel=0 note=61 velocity=0 time=35
note_on channel=0 note=58 velocity=0 time=0
note_on channel=0 note=65 velocity=38 time=0
note_on channel=0 note=65 velocity=0 time=120
note_on channel=0 note=58 velocity=44 time=0
note_on channel=0 note=61 velocity=44 time=0
note_on channel=0 note=61 velocity=0 time=120
note_on channel=0 note=58 velocity=0 time=0
note_on channel=0 note=65 velocity=38 time=0
note_on channel=0 note=65 velocity=0 time=120
note_on channel=0 note=77 velocity=0 time=0
note_on channel=0 note=77 velocity=61 time=0
note_on channel=0 note=61 velocity=44 time=0
note_on channel=0 note=58 velocity=44 time=0
control_change channel=0 control=64 value=0 time=106
note_on channel=0 note=58 velocity=0 time=14
note_on channel=0 note=61 velocity=0 time=0
note_on channel=0 note=77 velocity=0 time=0
note_on channel=0 note=65 velocity=38 time=0
note_on channel=0 note=65 velocity=0 time=0
note_on channel=0 note=77 velocity=61 time=0
note_on channel=0 note=58 velocity=44 time=0
note_on channel=0 note=61 velocity=44 time=0
note_on channel=0 note=61 velocity=0 time=120
note_on channel=0 note=58 velocity=0 time=0
note_on channel=0 note=77 velocity=0 time=0
note_on channel=0 note=65 velocity=38 time=0
note_on channel=0 note=65 velocity=0 time=0
note_on channel=0 note=78 velocity=72 time=0
note_on channel=0 note=61 velocity=44 time=0
note_on channel=0 note=58 velocity=44 time=0
control_change channel=0 control=64 value=127 time=115
note_on channel=0 note=58 velocity=0 time=5
note_on channel=0 note=61 velocity=0 time=0
note_on channel=0 note=64 velocity=38 time=0
note_on channel=0 note=64 velocity=0 time=120
note_on channel=0 note=58 velocity=44 time=0
note_on channel=0 note=61 velocity=44 time=0
note_on channel=0 note=61 velocity=0 time=120
note_on channel=0 note=58 velocity=0 time=0
note_on channel=0 note=64 velocity=38 time=0
note_on channel=0 note=64 velocity=0 time=120
note_on channel=0 note=78 velocity=0 time=0
note_on channel=0 note=78 velocity=60 time=0
note_on channel=0 note=58 velocity=44 time=0
note_on channel=0 note=61 velocity=44 time=0
note_on channel=0 note=61 velocity=0 time=120
note_on channel=0 note=58 velocity=0 time=0
note_on channel=0 note=78 velocity=0 time=0
note_on channel=0 note=64 velocity=38 time=0
control_change channel=0 control=64 value=0 time=17
note_on channel=0 note=64 velocity=0 time=0
note_on channel=0 note=78 velocity=59 time=0
note_on channel=0 note=57 velocity=44 time=0
note_on channel=0 note=60 velocity=44 time=0
note_on channel=0 note=60 velocity=0 time=120
note_on channel=0 note=57 velocity=0 time=0
note_on channel=0 note=78 velocity=0 time=0
note_on channel=0 note=64 velocity=38 time=0
note_on channel=0 note=64 velocity=0 time=0
note_on channel=0 note=77 velocity=73 time=0
note_on channel=0 note=60 velocity=44 time=0
note_on channel=0 note=57 velocity=44 time=0
control_change channel=0 control=64 value=127 time=109
note_on channel=0 note=57 velocity=0 time=11
note_on channel=0 note=60 velocity=0 time=0
note_on channel=0 note=65 velocity=38 time=0
note_on channel=0 note=65 velocity=0 time=120
note_on channel=0 note=57 velocity=44 time=0
note_on channel=0 note=60 velocity=44 time=0
note_on channel=0 note=60 velocity=0 time=120
note_on channel=0 note=57 velocity=0 time=0
note_on channel=0 note=65 velocity=38 time=0
note_on channel=0 note=65 velocity=0 time=120
note_on channel=0 note=77 velocity=0 time=0
note_on channel=0 note=77 velocity=63 time=0
note_on channel=0 note=57 velocity=44 time=0
note_on channel=0 note=60 velocity=44 time=0
note_on channel=0 note=60 velocity=0 time=120
note_on channel=0 note=57 velocity=0 time=0
note_on channel=0 note=77 velocity=0 time=0
note_on channel=0 note=65 velocity=38 time=0
control_change channel=0 control=64 value=0 time=52
note_on channel=0 note=65 velocity=0 time=0
note_on channel=0 note=77 velocity=65 time=0
note_on channel=0 note=57 velocity=44 time=0
note_on channel=0 note=60 velocity=44 time=0
note_on channel=0 note=60 velocity=0 time=120
note_on channel=0 note=57 velocity=0 time=0
note_on channel=0 note=77 velocity=0 time=0
note_on channel=0 note=65 velocity=38 time=0
note_on channel=0 note=65 velocity=0 time=0
note_on channel=0 note=72 velocity=61 time=0
note_on channel=0 note=60 velocity=44 time=0
note_on channel=0 note=57 velocity=44 time=0
note_on channel=0 note=57 velocity=0 time=120
note_on channel=0 note=60 velocity=0 time=0
note_on channel=0 note=72 velocity=0 time=0
note_on channel=0 note=65 velocity=38 time=0
note_on channel=0 note=65 velocity=0 time=120
note_on channel=0 note=73 velocity=61 time=0
note_on channel=0 note=57 velocity=44 time=0
note_on channel=0 note=60 velocity=44 time=0
note_on channel=0 note=60 velocity=0 time=120
note_on channel=0 note=57 velocity=0 time=0
note_on channel=0 note=73 velocity=0 time=0
note_on channel=0 note=65 velocity=38 time=0
note_on channel=0 note=65 velocity=0 time=120
note_on channel=0 note=75 velocity=61 time=0
note_on channel=0 note=57 velocity=44 time=0
note_on channel=0 note=60 velocity=44 time=0
note_on channel=0 note=60 velocity=0 time=120
note_on channel=0 note=57 velocity=0 time=0
note_on channel=0 note=75 velocity=0 time=0
note_on channel=0 note=65 velocity=38 time=0
note_on channel=0 note=65 velocity=0 time=0
note_on channel=0 note=73 velocity=65 time=0
note_on channel=0 note=61 velocity=44 time=0
note_on channel=0 note=58 velocity=44 time=0
note_on channel=0 note=58 velocity=0 time=120
note_on channel=0 note=61 velocity=0 time=0
note_on channel=0 note=73 velocity=0 time=0
note_on channel=0 note=65 velocity=38 time=0
note_on channel=0 note=65 velocity=0 time=0
note_on channel=0 note=89 velocity=80 time=0
note_on channel=0 note=77 velocity=73 time=0
note_on channel=0 note=58 velocity=58 time=0
note_on channel=0 note=61 velocity=58 time=0
control_change channel=0 control=64 value=127 time=113
note_on channel=0 note=61 velocity=0 time=7
note_on channel=0 note=58 velocity=0 time=0
note_on channel=0 note=65 velocity=51 time=0
note_on channel=0 note=65 velocity=0 time=120
note_on channel=0 note=58 velocity=58 time=0
note_on channel=0 note=61 velocity=58 time=0
note_on channel=0 note=61 velocity=0 time=120
note_on channel=0 note=58 velocity=0 time=0
note_on channel=0 note=65 velocity=51 time=0
note_on channel=0 note=65 velocity=0 time=120
note_on channel=0 note=77 velocity=0 time=0
note_on channel=0 note=89 velocity=0 time=0
note_on channel=0 note=89 velocity=74 time=0
note_on channel=0 note=77 velocity=68 time=0
note_on channel=0 note=61 velocity=58 time=0
note_on channel=0 note=58 velocity=58 time=0
note_on channel=0 note=58 velocity=0 time=120
note_on channel=0 note=89 velocity=0 time=0
note_on channel=0 note=77 velocity=0 time=0
note_on channel=0 note=61 velocity=0 time=0
note_on channel=0 note=65 velocity=51 time=0
control_change channel=0 control=64 value=0 time=21
note_on channel=0 note=65 velocity=0 time=0
note_on channel=0 note=89 velocity=74 time=0
note_on channel=0 note=77 velocity=68 time=0
note_on channel=0 note=58 velocity=58 time=0
note_on channel=0 note=61 velocity=58 time=0
note_on channel=0 note=61 velocity=0 time=120
note_on channel=0 note=89 velocity=0 time=0
note_on channel=0 note=77 velocity=0 time=0
note_on channel=0 note=58 velocity=0 time=0
note_on channel=0 note=65 velocity=51 time=0
note_on channel=0 note=65 velocity=0 time=0
note_on channel=0 note=90 velocity=81 time=0
note_on channel=0 note=78 velocity=74 time=0
note_on channel=0 note=61 velocity=58 time=0
note_on channel=0 note=58 velocity=58 time=0
control_change channel=0 control=64 value=127 time=63
note_on channel=0 note=58 velocity=0 time=57
note_on channel=0 note=61 velocity=0 time=0
note_on channel=0 note=64 velocity=51 time=0
note_on channel=0 note=64 velocity=0 time=120
note_on channel=0 note=58 velocity=58 time=0
note_on channel=0 note=61 velocity=58 time=0
note_on channel=0 note=61 velocity=0 time=120
note_on channel=0 note=58 velocity=0 time=0
note_on channel=0 note=64 velocity=51 time=0
note_on channel=0 note=64 velocity=0 time=120
note_on channel=0 note=78 velocity=0 time=0
note_on channel=0 note=90 velocity=0 time=0
note_on channel=0 note=90 velocity=73 time=0
note_on channel=0 note=78 velocity=67 time=0
note_on channel=0 note=58 velocity=58 time=0
note_on channel=0 note=61 velocity=58 time=0
note_on channel=0 note=61 velocity=0 time=120
note_on channel=0 note=90 velocity=0 time=0
note_on channel=0 note=78 velocity=0 time=0
note_on channel=0 note=58 velocity=0 time=0
note_on channel=0 note=64 velocity=51 time=0
control_change channel=0 control=64 value=0 time=29
note_on channel=0 note=64 velocity=0 time=0
note_on channel=0 note=90 velocity=72 time=0
note_on channel=0 note=78 velocity=66 time=0
note_on channel=0 note=57 velocity=58 time=0
note_on channel=0 note=60 velocity=58 time=0
note_on channel=0 note=60 velocity=0 time=120
note_on channel=0 note=90 velocity=0 time=0
note_on channel=0 note=78 velocity=0 time=0
note_on channel=0 note=57 velocity=0 time=0
note_on channel=0 note=64 velocity=51 time=0
note_on channel=0 note=64 velocity=0 time=0
note_on channel=0 note=89 velocity=82 time=0
note_on channel=0 note=77 velocity=75 time=0
note_on channel=0 note=60 velocity=58 time=0
note_on channel=0 note=57 velocity=58 time=0
control_change channel=0 control=64 value=127 time=115
note_on channel=0 note=57 velocity=0 time=5
note_on channel=0 note=60 velocity=0 time=0
note_on channel=0 note=65 velocity=51 time=0
note_on channel=0 note=65 velocity=0 time=120
note_on channel=0 note=57 velocity=58 time=0
note_on channel=0 note=60 velocity=58 time=0
note_on channel=0 note=60 velocity=0 time=120
note_on channel=0 note=57 velocity=0 time=0
note_on channel=0 note=65 velocity=51 time=0
note_on channel=0 note=65 velocity=0 time=120
note_on channel=0 note=77 velocity=0 time=0
note_on channel=0 note=89 velocity=0 time=0
note_on channel=0 note=89 velocity=77 time=0
note_on channel=0 note=77 velocity=70 time=0
note_on channel=0 note=57 velocity=58 time=0
note_on channel=0 note=60 velocity=58 time=0
note_on channel=0 note=60 velocity=0 time=120
note_on channel=0 note=89 velocity=0 time=0
note_on channel=0 note=77 velocity=0 time=0
note_on channel=0 note=57 velocity=0 time=0
note_on channel=0 note=65 velocity=51 time=0
control_change channel=0 control=64 value=0 time=40
note_on channel=0 note=65 velocity=0 time=0
note_on channel=0 note=89 velocity=80 time=0
note_on channel=0 note=77 velocity=73 time=0
note_on channel=0 note=57 velocity=58 time=0
note_on channel=0 note=60 velocity=58 time=0
note_on channel=0 note=60 velocity=0 time=120
note_on channel=0 note=89 velocity=0 time=0
note_on channel=0 note=77 velocity=0 time=0
note_on channel=0 note=57 velocity=0 time=0
note_on channel=0 note=65 velocity=51 time=0
note_on channel=0 note=65 velocity=0 time=0
note_on channel=0 note=84 velocity=74 time=0
note_on channel=0 note=72 velocity=68 time=0
note_on channel=0 note=60 velocity=58 time=0
note_on channel=0 note=57 velocity=58 time=0
note_on channel=0 note=57 velocity=0 time=120
note_on channel=0 note=84 velocity=0 time=0
note_on channel=0 note=72 velocity=0 time=0
note_on channel=0 note=60 velocity=0 time=0
note_on channel=0 note=65 velocity=51 time=0
note_on channel=0 note=65 velocity=0 time=120
note_on channel=0 note=85 velocity=74 time=0
note_on channel=0 note=73 velocity=68 time=0
note_on channel=0 note=57 velocity=58 time=0
note_on channel=0 note=60 velocity=58 time=0
note_on channel=0 note=60 velocity=0 time=120
note_on channel=0 note=85 velocity=0 time=0
note_on channel=0 note=73 velocity=0 time=0
note_on channel=0 note=57 velocity=0 time=0
note_on channel=0 note=65 velocity=51 time=0
note_on channel=0 note=65 velocity=0 time=120
note_on channel=0 note=87 velocity=74 time=0
note_on channel=0 note=75 velocity=68 time=0
note_on channel=0 note=57 velocity=58 time=0
note_on channel=0 note=60 velocity=58 time=0
note_on channel=0 note=60 velocity=0 time=120
note_on channel=0 note=87 velocity=0 time=0
note_on channel=0 note=75 velocity=0 time=0
note_on channel=0 note=57 velocity=0 time=0
note_on channel=0 note=65 velocity=51 time=0
note_on channel=0 note=65 velocity=0 time=0
note_on channel=0 note=85 velocity=80 time=0
note_on channel=0 note=73 velocity=73 time=0
note_on channel=0 note=61 velocity=58 time=0
note_on channel=0 note=58 velocity=58 time=0
note_on channel=0 note=58 velocity=0 time=120
note_on channel=0 note=85 velocity=0 time=0
note_on channel=0 note=73 velocity=0 time=0
note_on channel=0 note=61 velocity=0 time=0
note_on channel=0 note=65 velocity=51 time=0
note_on channel=0 note=65 velocity=0 time=0
note_on channel=0 note=72 velocity=72 time=0
note_on channel=0 note=52 velocity=44 time=0
note_on channel=0 note=55 velocity=44 time=0
control_change channel=0 control=64 value=127 time=75
note_on channel=0 note=55 velocity=0 time=45
note_on channel=0 note=52 velocity=0 time=0
note_on channel=0 note=60 velocity=38 time=0
note_on channel=0 note=60 velocity=0 time=120
note_on channel=0 note=52 velocity=44 time=0
note_on channel=0 note=55 velocity=44 time=0
note_on channel=0 note=55 velocity=0 time=120
note_on channel=0 note=52 velocity=0 time=0
note_on channel=0 note=60 velocity=38 time=0
note_on channel=0 note=60 velocity=0 time=120
note_on channel=0 note=72 velocity=0 time=0
note_on channel=0 note=72 velocity=61 time=0
note_on channel=0 note=55 velocity=44 time=0
note_on channel=0 note=52 velocity=44 time=0
note_on channel=0 note=52 velocity=0 time=120
note_on channel=0 note=55 velocity=0 time=0
note_on channel=0 note=72 velocity=0 time=0
note_on channel=0 note=60 velocity=38 time=0
control_change channel=0 control=64 value=0 time=23
note_on channel=0 note=60 velocity=0 time=0
note_on channel=0 note=72 velocity=61 time=0
note_on channel=0 note=53 velocity=44 time=0
note_on channel=0 note=56 velocity=44 time=0
note_on channel=0 note=56 velocity=0 time=120
note_on channel=0 note=53 velocity=0 time=0
note_on channel=0 note=72 velocity=0 time=0
note_on channel=0 note=60 velocity=38 time=0
note_on channel=0 note=60 velocity=0 time=0
note_on channel=0 note=71 velocity=72 time=0
note_on channel=0 note=56 velocity=44 time=0
note_on channel=0 note=53 velocity=44 time=0
control_change channel=0 control=64 value=127 time=63
note_on channel=0 note=53 velocity=0 time=57
note_on channel=0 note=56 velocity=0 time=0
note_on channel=0 note=62 velocity=38 time=0
note_on channel=0 note=62 velocity=0 time=120
note_on channel=0 note=53 velocity=44 time=0
note_on channel=0 note=56 velocity=44 time=0
note_on channel=0 note=56 velocity=0 time=120
note_on channel=0 note=53 velocity=0 time=0
note_on channel=0 note=62 velocity=38 time=0
note_on channel=0 note=62 velocity=0 time=120
note_on channel=0 note=71 velocity=0 time=0
note_on channel=0 note=71 velocity=60 time=0
note_on channel=0 note=53 velocity=44 time=0
note_on channel=0 note=56 velocity=44 time=0
note_on channel=0 note=56 velocity=0 time=120
note_on channel=0 note=53 velocity=0 time=0
note_on channel=0 note=71 velocity=0 time=0
note_on channel=0 note=62 velocity=38 time=0
control_change channel=0 control=64 value=0 time=29
note_on channel=0 note=62 velocity=0 time=0
note_on channel=0 note=71 velocity=59 time=0
note_on channel=0 note=52 velocity=44 time=0
note_on channel=0 note=55 velocity=44 time=0
note_on channel=0 note=55 velocity=0 time=120
note_on channel=0 note=52 velocity=0 time=0
note_on channel=0 note=71 velocity=0 time=0
note_on channel=0 note=62 velocity=38 time=0
note_on channel=0 note=62 velocity=0 time=0
note_on channel=0 note=72 velocity=71 time=0
note_on channel=0 note=55 velocity=44 time=0
note_on channel=0 note=52 velocity=44 time=0
control_change channel=0 control=64 value=127 time=92
note_on channel=0 note=52 velocity=0 time=28
note_on channel=0 note=55 velocity=0 time=0
note_on channel=0 note=60 velocity=38 time=0
note_on channel=0 note=60 velocity=0 time=120
note_on channel=0 note=52 velocity=44 time=0
note_on channel=0 note=55 velocity=44 time=0
note_on channel=0 note=55 velocity=0 time=120
note_on channel=0 note=52 velocity=0 time=0
note_on channel=0 note=60 velocity=38 time=0
note_on channel=0 note=60 velocity=0 time=120
note_on channel=0 note=72 velocity=0 time=0
note_on channel=0 note=72 velocity=63 time=0
note_on channel=0 note=52 velocity=44 time=0
note_on channel=0 note=55 velocity=44 time=0
note_on channel=0 note=55 velocity=0 time=120
note_on channel=0 note=52 velocity=0 time=0
note_on channel=0 note=72 velocity=0 time=0
note_on channel=0 note=60 velocity=38 time=0
control_change channel=0 control=64 value=0 time=12
note_on channel=0 note=60 velocity=0 time=0
note_on channel=0 note=72 velocity=65 time=0
note_on channel=0 note=52 velocity=44 time=0
note_on channel=0 note=55 velocity=44 time=0
note_on channel=0 note=55 velocity=0 time=120
note_on channel=0 note=52 velocity=0 time=0
note_on channel=0 note=72 velocity=0 time=0
note_on channel=0 note=60 velocity=38 time=0
note_on channel=0 note=60 velocity=0 time=0
note_on channel=0 note=67 velocity=61 time=0
note_on channel=0 note=55 velocity=44 time=0
note_on channel=0 note=52 velocity=44 time=0
note_on channel=0 note=52 velocity=0 time=120
note_on channel=0 note=55 velocity=0 time=0
note_on channel=0 note=67 velocity=0 time=0
note_on channel=0 note=60 velocity=38 time=0
note_on channel=0 note=60 velocity=0 time=120
note_on channel=0 note=68 velocity=61 time=0
note_on channel=0 note=52 velocity=44 time=0
note_on channel=0 note=55 velocity=44 time=0
note_on channel=0 note=55 velocity=0 time=120
note_on channel=0 note=52 velocity=0 time=0
note_on channel=0 note=68 velocity=0 time=0
note_on channel=0 note=60 velocity=38 time=0
note_on channel=0 note=60 velocity=0 time=120
note_on channel=0 note=70 velocity=61 time=0
note_on channel=0 note=52 velocity=44 time=0
note_on channel=0 note=55 velocity=44 time=0
note_on channel=0 note=55 velocity=0 time=120
note_on channel=0 note=52 velocity=0 time=0
note_on channel=0 note=70 velocity=0 time=0
note_on channel=0 note=60 velocity=38 time=0
note_on channel=0 note=60 velocity=0 time=0
note_on channel=0 note=68 velocity=65 time=0
note_on channel=0 note=56 velocity=44 time=0
note_on channel=0 note=53 velocity=44 time=0
note_on channel=0 note=53 velocity=0 time=120
note_on channel=0 note=56 velocity=0 time=0
note_on channel=0 note=68 velocity=0 time=0
note_on channel=0 note=60 velocity=38 time=0
note_on channel=0 note=60 velocity=0 time=0
note_on channel=0 note=84 velocity=80 time=0
note_on channel=0 note=72 velocity=73 time=0
note_on channel=0 note=56 velocity=58 time=0
note_on channel=0 note=53 velocity=58 time=0
control_change channel=0 control=64 value=127 time=113
note_on channel=0 note=53 velocity=0 time=7
note_on channel=0 note=56 velocity=0 time=0
note_on channel=0 note=60 velocity=51 time=0
note_on channel=0 note=60 velocity=0 time=120
note_on channel=0 note=56 velocity=58 time=0
note_on channel=0 note=53 velocity=58 time=0
note_on channel=0 note=53 velocity=0 time=120
note_on channel=0 note=56 velocity=0 time=0
note_on channel=0 note=60 velocity=51 time=0
note_on channel=0 note=60 velocity=0 time=120
note_on channel=0 note=72 velocity=0 time=0
note_on channel=0 note=84 velocity=0 time=0
note_on channel=0 note=84 velocity=74 time=0
note_on channel=0 note=72 velocity=68 time=0
note_on channel=0 note=56 velocity=58 time=0
note_on channel=0 note=53 velocity=58 time=0
control_change channel=0 control=64 value=0 time=99
note_on channel=0 note=53 velocity=0 time=21
note_on channel=0 note=84 velocity=0 time=0
note_on channel=0 note=72 velocity=0 time=0
note_on channel=0 note=56 velocity=0 time=0
note_on channel=0 note=60 velocity=51 time=0
note_on channel=0 note=60 velocity=0 time=0
note_on channel=0 note=84 velocity=74 time=0
note_on channel=0 note=72 velocity=68 time=0
note_on channel=0 note=56 velocity=58 time=0
note_on channel=0 note=53 velocity=58 time=0
note_on channel=0 note=53 velocity=0 time=120
note_on channel=0 note=84 velocity=0 time=0
note_on channel=0 note=72 velocity=0 time=0
note_on channel=0 note=56 velocity=0 time=0
note_on channel=0 note=60 velocity=51 time=0
note_on channel=0 note=60 velocity=0 time=0
note_on channel=0 note=83 velocity=81 time=0
note_on channel=0 note=71 velocity=74 time=0
note_on channel=0 note=56 velocity=58 time=0
note_on channel=0 note=53 velocity=58 time=0
control_change channel=0 control=64 value=127 time=97
note_on channel=0 note=53 velocity=0 time=23
note_on channel=0 note=56 velocity=0 time=0
note_on channel=0 note=62 velocity=51 time=0
note_on channel=0 note=62 velocity=0 time=120
note_on channel=0 note=56 velocity=58 time=0
note_on channel=0 note=53 velocity=58 time=0
note_on channel=0 note=53 velocity=0 time=120
note_on channel=0 note=56 velocity=0 time=0
note_on channel=0 note=62 velocity=51 time=0
note_on channel=0 note=62 velocity=0 time=120
note_on channel=0 note=71 velocity=0 time=0
note_on channel=0 note=83 velocity=0 time=0
note_on channel=0 note=83 velocity=73 time=0
note_on channel=0 note=71 velocity=67 time=0
note_on channel=0 note=53 velocity=58 time=0
note_on channel=0 note=56 velocity=58 time=0
note_on channel=0 note=56 velocity=0 time=120
note_on channel=0 note=83 velocity=0 time=0
note_on channel=0 note=71 velocity=0 time=0
note_on channel=0 note=53 velocity=0 time=0
note_on channel=0 note=62 velocity=51 time=0
control_change channel=0 control=64 value=0 time=23
note_on channel=0 note=62 velocity=0 time=0
note_on channel=0 note=83 velocity=72 time=0
note_on channel=0 note=71 velocity=66 time=0
note_on channel=0 note=55 velocity=58 time=0
note_on channel=0 note=52 velocity=58 time=0
note_on channel=0 note=52 velocity=0 time=120
note_on channel=0 note=83 velocity=0 time=0
note_on channel=0 note=71 velocity=0 time=0
note_on channel=0 note=55 velocity=0 time=0
note_on channel=0 note=62 velocity=51 time=0
note_on channel=0 note=62 velocity=0 time=0
note_on channel=0 note=84 velocity=82 time=0
note_on channel=0 note=72 velocity=75 time=0
note_on channel=0 note=52 velocity=58 time=0
note_on channel=0 note=55 velocity=58 time=0
control_change channel=0 control=64 value=127 time=97
note_on channel=0 note=55 velocity=0 time=23
note_on channel=0 note=52 velocity=0 time=0
note_on channel=0 note=60 velocity=51 time=0
note_on channel=0 note=60 velocity=0 time=120
note_on channel=0 note=52 velocity=58 time=0
note_on channel=0 note=55 velocity=58 time=0
note_on channel=0 note=55 velocity=0 time=120
note_on channel=0 note=52 velocity=0 time=0
note_on channel=0 note=60 velocity=51 time=0
note_on channel=0 note=60 velocity=0 time=120
note_on channel=0 note=72 velocity=0 time=0
note_on channel=0 note=84 velocity=0 time=0
note_on channel=0 note=84 velocity=77 time=0
note_on channel=0 note=72 velocity=70 time=0
note_on channel=0 note=52 velocity=58 time=0
note_on channel=0 note=55 velocity=58 time=0
note_on channel=0 note=55 velocity=0 time=120
note_on channel=0 note=84 velocity=0 time=0
note_on channel=0 note=72 velocity=0 time=0
note_on channel=0 note=52 velocity=0 time=0
note_on channel=0 note=60 velocity=51 time=0
control_change channel=0 control=64 value=0 time=29
note_on channel=0 note=60 velocity=0 time=0
note_on channel=0 note=84 velocity=80 time=0
note_on channel=0 note=72 velocity=73 time=0
note_on channel=0 note=55 velocity=58 time=0
note_on channel=0 note=52 velocity=58 time=0
note_on channel=0 note=52 velocity=0 time=120
note_on channel=0 note=84 velocity=0 time=0
note_on channel=0 note=72 velocity=0 time=0
note_on channel=0 note=55 velocity=0 time=0
note_on channel=0 note=60 velocity=51 time=0
note_on channel=0 note=60 velocity=0 time=0
note_on channel=0 note=79 velocity=74 time=0
note_on channel=0 note=67 velocity=68 time=0
note_on channel=0 note=55 velocity=58 time=0
note_on channel=0 note=52 velocity=58 time=0
note_on channel=0 note=52 velocity=0 time=120
note_on channel=0 note=79 velocity=0 time=0
note_on channel=0 note=67 velocity=0 time=0
note_on channel=0 note=55 velocity=0 time=0
note_on channel=0 note=60 velocity=51 time=0
note_on channel=0 note=60 velocity=0 time=120
note_on channel=0 note=80 velocity=74 time=0
note_on channel=0 note=68 velocity=68 time=0
note_on channel=0 note=55 velocity=58 time=0
note_on channel=0 note=52 velocity=58 time=0
note_on channel=0 note=52 velocity=0 time=120
note_on channel=0 note=80 velocity=0 time=0
note_on channel=0 note=68 velocity=0 time=0
note_on channel=0 note=55 velocity=0 time=0
note_on channel=0 note=60 velocity=51 time=0
note_on channel=0 note=60 velocity=0 time=120
note_on channel=0 note=82 velocity=74 time=0
note_on channel=0 note=70 velocity=68 time=0
note_on channel=0 note=55 velocity=58 time=0
note_on channel=0 note=52 velocity=58 time=0
note_on channel=0 note=52 velocity=0 time=120
note_on channel=0 note=82 velocity=0 time=0
note_on channel=0 note=70 velocity=0 time=0
note_on channel=0 note=55 velocity=0 time=0
note_on channel=0 note=60 velocity=51 time=0
note_on channel=0 note=60 velocity=0 time=0
note_on channel=0 note=80 velocity=80 time=0
note_on channel=0 note=68 velocity=73 time=0
note_on channel=0 note=44 velocity=61 time=0
note_on channel=0 note=48 velocity=61 time=0
note_on channel=0 note=53 velocity=72 time=0
note_on channel=0 note=41 velocity=61 time=0
note_on channel=0 note=68 velocity=0 time=0
note_on channel=0 note=80 velocity=0 time=0
note_on channel=0 note=60 velocity=70 time=0
control_change channel=0 control=64 value=127 time=14
note_on channel=0 note=60 velocity=0 time=0
note_on channel=0 note=65 velocity=72 time=0
note_on channel=0 note=65 velocity=0 time=120
note_on channel=0 note=68 velocity=74 time=0
note_on channel=0 note=68 velocity=0 time=0
note_on channel=0 note=44 velocity=0 time=0
note_on channel=0 note=48 velocity=0 time=0
note_on channel=0 note=41 velocity=0 time=0
note_on channel=0 note=53 velocity=0 time=0
note_on channel=0 note=72 velocity=76 time=0
control_change channel=0 control=64 value=0 time=17
control_change channel=0 control=64 value=127 time=61
note_on channel=0 note=72 velocity=0 time=42
note_on channel=0 note=73 velocity=72 time=0
note_on channel=0 note=48 velocity=56 time=0
note_on channel=0 note=48 velocity=0 time=0
note_on channel=0 note=73 velocity=0 time=0
note_on channel=0 note=72 velocity=72 time=0
note_on channel=0 note=53 velocity=58 time=0
note_on channel=0 note=53 velocity=0 time=120
note_on channel=0 note=72 velocity=0 time=0
note_on channel=0 note=70 velocity=72 time=0
note_on channel=0 note=56 velocity=60 time=0
note_on channel=0 note=56 velocity=0 time=40
note_on channel=0 note=70 velocity=0 time=0
note_on channel=0 note=68 velocity=73 time=0
note_on channel=0 note=60 velocity=66 time=0
control_change channel=0 control=64 value=0 time=10
control_change channel=0 control=64 value=127 time=61
note_on channel=0 note=60 velocity=0 time=49
note_on channel=0 note=68 velocity=0 time=0
note_on channel=0 note=70 velocity=67 time=0
note_on channel=0 note=61 velocity=60 time=0
note_on channel=0 note=61 velocity=0 time=80
note_on channel=0 note=70 velocity=0 time=0
note_on channel=0 note=68 velocity=69 time=0
note_on channel=0 note=60 velocity=61 time=0
note_on channel=0 note=60 velocity=0 time=40
note_on channel=0 note=68 velocity=0 time=0
note_on channel=0 note=67 velocity=69 time=0
note_on channel=0 note=58 velocity=61 time=0
note_on channel=0 note=58 velocity=0 time=120
note_on channel=0 note=67 velocity=0 time=0
note_on channel=0 note=65 velocity=75 time=0
note_on channel=0 note=56 velocity=67 time=0
control_change channel=0 control=64 value=0 time=18
control_change channel=0 control=64 value=127 time=52
note_on channel=0 note=56 velocity=0 time=28
note_on channel=0 note=65 velocity=0 time=0
note_on channel=0 note=67 velocity=70 time=0
note_on channel=0 note=58 velocity=60 time=0
note_on channel=0 note=58 velocity=0 time=40
note_on channel=0 note=67 velocity=0 time=0
note_on channel=0 note=68 velocity=70 time=0
note_on channel=0 note=60 velocity=60 time=0
note_on channel=0 note=60 velocity=0 time=120
note_on channel=0 note=68 velocity=0 time=0
note_on channel=0 note=65 velocity=70 time=0
note_on channel=0 note=56 velocity=60 time=0
note_on channel=0 note=56 velocity=0 time=0
note_on channel=0 note=65 velocity=0 time=0
note_on channel=0 note=66 velocity=75 time=0
note_on channel=0 note=58 velocity=72 time=0
control_change channel=0 control=64 value=0 time=10
control_change channel=0 control=64 value=127 time=59
note_on channel=0 note=58 velocity=0 time=0
note_on channel=0 note=66 velocity=0 time=0
note_on channel=0 note=61 velocity=72 time=0
note_on channel=0 note=60 velocity=60 time=0
note_on channel=0 note=60 velocity=0 time=0
note_on channel=0 note=61 velocity=0 time=0
note_on channel=0 note=66 velocity=74 time=0
note_on channel=0 note=58 velocity=60 time=0
note_on channel=0 note=58 velocity=0 time=120
note_on channel=0 note=66 velocity=0 time=0
note_on channel=0 note=70 velocity=76 time=0
note_on channel=0 note=56 velocity=60 time=0
note_on channel=0 note=56 velocity=0 time=0
note_on channel=0 note=70 velocity=0 time=0
note_on channel=0 note=73 velocity=78 time=0
note_on channel=0 note=54 velocity=68 time=0
control_change channel=0 control=64 value=0 time=17
control_change channel=0 control=64 value=127 time=69
note_on channel=0 note=54 velocity=0 time=34
note_on channel=0 note=73 velocity=0 time=0
note_on channel=0 note=75 velocity=75 time=0
note_on channel=0 note=49 velocity=57 time=0
note_on channel=0 note=49 velocity=0 time=0
note_on channel=0 note=75 velocity=0 time=0
note_on channel=0 note=73 velocity=75 time=0
note_on channel=0 note=54 velocity=60 time=0
note_on channel=0 note=54 velocity=0 time=120
note_on channel=0 note=73 velocity=0 time=0
note_on channel=0 note=72 velocity=75 time=0
note_on channel=0 note=58 velocity=62 time=0
note_on channel=0 note=58 velocity=0 time=40
note_on channel=0 note=72 velocity=0 time=0
note_on channel=0 note=70 velocity=76 time=0
note_on channel=0 note=61 velocity=69 time=0
control_change channel=0 control=64 value=0 time=10
control_change channel=0 control=64 value=127 time=53
note_on channel=0 note=61 velocity=0 time=57
note_on channel=0 note=70 velocity=0 time=0
note_on channel=0 note=72 velocity=70 time=0
note_on channel=0 note=63 velocity=63 time=0
note_on channel=0 note=63 velocity=0 time=80
note_on channel=0 note=72 velocity=0 time=0
note_on channel=0 note=70 velocity=71 time=0
note_on channel=0 note=61 velocity=63 time=0
note_on channel=0 note=61 velocity=0 time=40
note_on channel=0 note=70 velocity=0 time=0
note_on channel=0 note=68 velocity=71 time=0
note_on channel=0 note=60 velocity=63 time=0
note_on channel=0 note=60 velocity=0 time=120
note_on channel=0 note=68 velocity=0 time=0
note_on channel=0 note=66 velocity=76 time=0
note_on channel=0 note=58 velocity=69 time=0
control_change channel=0 control=64 value=0 time=12
control_change channel=0 control=64 value=127 time=29
note_on channel=0 note=58 velocity=0 time=51
note_on channel=0 note=66 velocity=0 time=0
note_on channel=0 note=68 velocity=73 time=0
note_on channel=0 note=60 velocity=62 time=0
note_on channel=0 note=60 velocity=0 time=40
note_on channel=0 note=68 velocity=0 time=0
note_on channel=0 note=70 velocity=73 time=0
note_on channel=0 note=61 velocity=62 time=0
note_on channel=0 note=61 velocity=0 time=120
note_on channel=0 note=70 velocity=0 time=0
note_on channel=0 note=66 velocity=72 time=0
note_on channel=0 note=58 velocity=62 time=0
note_on channel=0 note=58 velocity=0 time=0
note_on channel=0 note=66 velocity=0 time=0
note_on channel=0 note=69 velocity=77 time=0
note_on channel=0 note=60 velocity=74 time=0
control_change channel=0 control=64 value=0 time=11
control_change channel=0 control=64 value=127 time=52
note_on channel=0 note=60 velocity=0 time=0
note_on channel=0 note=69 velocity=0 time=0
note_on channel=0 note=63 velocity=74 time=0
note_on channel=0 note=61 velocity=62 time=0
note_on channel=0 note=61 velocity=0 time=0
note_on channel=0 note=63 velocity=0 time=0
note_on channel=0 note=69 velocity=76 time=0
note_on channel=0 note=60 velocity=63 time=0
note_on channel=0 note=60 velocity=0 time=120
note_on channel=0 note=69 velocity=0 time=0
note_on channel=0 note=72 velocity=78 time=0
note_on channel=0 note=58 velocity=63 time=0
note_on channel=0 note=58 velocity=0 time=0
note_on channel=0 note=72 velocity=0 time=0
note_on channel=0 note=75 velocity=80 time=0
note_on channel=0 note=57 velocity=70 time=0
control_change channel=0 control=64 value=0 time=15
control_change channel=0 control=64 value=127 time=71
note_on channel=0 note=57 velocity=0 time=34
note_on channel=0 note=75 velocity=0 time=0
note_on channel=0 note=77 velocity=76 time=0
note_on channel=0 note=51 velocity=59 time=0
note_on channel=0 note=51 velocity=0 time=0
note_on channel=0 note=77 velocity=0 time=0
note_on channel=0 note=75 velocity=76 time=0
note_on channel=0 note=57 velocity=62 time=0
note_on channel=0 note=57 velocity=0 time=120
note_on channel=0 note=75 velocity=0 time=0
note_on channel=0 note=73 velocity=77 time=0
note_on channel=0 note=60 velocity=65 time=0
note_on channel=0 note=60 velocity=0 time=40
note_on channel=0 note=73 velocity=0 time=0
note_on channel=0 note=72 velocity=78 time=0
note_on channel=0 note=63 velocity=71 time=0
control_change channel=0 control=64 value=0 time=17
control_change channel=0 control=64 value=127 time=46
note_on channel=0 note=63 velocity=0 time=57
note_on channel=0 note=72 velocity=0 time=0
note_on channel=0 note=73 velocity=72 time=0
note_on channel=0 note=65 velocity=65 time=0
note_on channel=0 note=65 velocity=0 time=80
note_on channel=0 note=73 velocity=0 time=0
note_on channel=0 note=72 velocity=73 time=0
note_on channel=0 note=63 velocity=65 time=0
note_on channel=0 note=63 velocity=0 time=40
note_on channel=0 note=72 velocity=0 time=0
note_on channel=0 note=70 velocity=73 time=0
note_on channel=0 note=61 velocity=65 time=0
note_on channel=0 note=61 velocity=0 time=120
note_on channel=0 note=70 velocity=0 time=0
note_on channel=0 note=69 velocity=80 time=0
note_on channel=0 note=60 velocity=72 time=0
control_change channel=0 control=64 value=0 time=13
control_change channel=0 control=64 value=127 time=23
note_on channel=0 note=60 velocity=0 time=57
note_on channel=0 note=69 velocity=0 time=0
note_on channel=0 note=70 velocity=75 time=0
note_on channel=0 note=61 velocity=64 time=0
note_on channel=0 note=61 velocity=0 time=40
note_on channel=0 note=70 velocity=0 time=0
note_on channel=0 note=72 velocity=75 time=0
note_on channel=0 note=63 velocity=64 time=0
note_on channel=0 note=63 velocity=0 time=120
note_on channel=0 note=72 velocity=0 time=0
note_on channel=0 note=69 velocity=74 time=0
note_on channel=0 note=60 velocity=64 time=0
note_on channel=0 note=60 velocity=0 time=0
note_on channel=0 note=69 velocity=0 time=0
note_on channel=0 note=70 velocity=90 time=0
note_on channel=0 note=61 velocity=70 time=0
control_change channel=0 control=64 value=0 time=18
control_change channel=0 control=64 value=127 time=62
note_on channel=0 note=61 velocity=0 time=0
note_on channel=0 note=70 velocity=0 time=0
note_on channel=0 note=65 velocity=76 time=0
note_on channel=0 note=53 velocity=59 time=0
note_on channel=0 note=53 velocity=0 time=0
note_on channel=0 note=65 velocity=0 time=0
note_on channel=0 note=70 velocity=79 time=0
note_on channel=0 note=58 velocity=63 time=0
note_on channel=0 note=58 velocity=0 time=120
note_on channel=0 note=70 velocity=0 time=0
note_on channel=0 note=73 velocity=82 time=0
note_on channel=0 note=61 velocity=66 time=0
note_on channel=0 note=61 velocity=0 time=0
note_on channel=0 note=73 velocity=0 time=0
note_on channel=0 note=77 velocity=83 time=0
note_on channel=0 note=65 velocity=65 time=0
control_change channel=0 control=64 value=0 time=18
control_change channel=0 control=64 value=127 time=51
note_on channel=0 note=65 velocity=0 time=51
note_on channel=0 note=77 velocity=0 time=0
note_on channel=0 note=78 velocity=83 time=0
note_on channel=0 note=66 velocity=65 time=0
note_on channel=0 note=66 velocity=0 time=0
note_on channel=0 note=78 velocity=0 time=0
note_on channel=0 note=77 velocity=82 time=0
note_on channel=0 note=65 velocity=65 time=0
note_on channel=0 note=65 velocity=0 time=120
note_on channel=0 note=77 velocity=0 time=0
note_on channel=0 note=75 velocity=82 time=0
note_on channel=0 note=63 velocity=64 time=0
note_on channel=0 note=63 velocity=0 time=40
note_on channel=0 note=75 velocity=0 time=0
note_on channel=0 note=73 velocity=81 time=0
note_on channel=0 note=61 velocity=64 time=0
control_change channel=0 control=64 value=0 time=0
control_change channel=0 control=64 value=0 time=10
control_change channel=0 control=64 value=127 time=47
note_on channel=0 note=61 velocity=0 time=63
note_on channel=0 note=73 velocity=0 time=0
note_on channel=0 note=72 velocity=81 time=0
note_on channel=0 note=60 velocity=64 time=0
note_on channel=0 note=60 velocity=0 time=120
note_on channel=0 note=72 velocity=0 time=0
note_on channel=0 note=70 velocity=80 time=0
note_on channel=0 note=58 velocity=63 time=0
note_on channel=0 note=58 velocity=0 time=120
note_on channel=0 note=70 velocity=0 time=0
note_on channel=0 note=68 velocity=80 time=0
note_on channel=0 note=56 velocity=63 time=0
note_on channel=0 note=56 velocity=0 time=120
note_on channel=0 note=68 velocity=0 time=0
note_on channel=0 note=66 velocity=79 time=0
note_on channel=0 note=54 velocity=62 time=0
control_change channel=0 control=64 value=0 time=12
control_change channel=0 control=64 value=127 time=51
note_on channel=0 note=54 velocity=0 time=57
note_on channel=0 note=66 velocity=0 time=0
note_on channel=0 note=65 velocity=79 time=0
note_on channel=0 note=53 velocity=62 time=0
note_on channel=0 note=53 velocity=0 time=120
note_on channel=0 note=65 velocity=0 time=0
note_on channel=0 note=63 velocity=78 time=0
note_on channel=0 note=51 velocity=62 time=0
note_on channel=0 note=51 velocity=0 time=120
note_on channel=0 note=63 velocity=0 time=0
note_on channel=0 note=61 velocity=78 time=0
note_on channel=0 note=49 velocity=61 time=0
note_on channel=0 note=49 velocity=0 time=120
note_on channel=0 note=61 velocity=0 time=0
note_on channel=0 note=60 velocity=77 time=0
note_on channel=0 note=48 velocity=61 time=0
control_change channel=0 control=64 value=0 time=10
control_change channel=0 control=64 value=127 time=36
note_on channel=0 note=48 velocity=0 time=74
note_on channel=0 note=60 velocity=0 time=0
note_on channel=0 note=58 velocity=77 time=0
note_on channel=0 note=46 velocity=61 time=0
note_on channel=0 note=46 velocity=0 time=120
note_on channel=0 note=58 velocity=0 time=0
note_on channel=0 note=56 velocity=76 time=0
note_on channel=0 note=44 velocity=60 time=0
note_on channel=0 note=44 velocity=0 time=120
note_on channel=0 note=56 velocity=0 time=0
note_on channel=0 note=54 velocity=76 time=0
note_on channel=0 note=42 velocity=60 time=0
note_on channel=0 note=42 velocity=0 time=120
note_on channel=0 note=54 velocity=0 time=0
note_on channel=0 note=53 velocity=73 time=0
note_on channel=0 note=41 velocity=59 time=0
control_change channel=0 control=64 value=0 time=16
control_change channel=0 control=64 value=127 time=53
note_on channel=0 note=41 velocity=0 time=51
note_on channel=0 note=53 velocity=0 time=0
note_on channel=0 note=51 velocity=73 time=0
note_on channel=0 note=39 velocity=59 time=0
note_on channel=0 note=39 velocity=0 time=120
note_on channel=0 note=51 velocity=0 time=0
note_on channel=0 note=49 velocity=74 time=0
note_on channel=0 note=37 velocity=59 time=0
note_on channel=0 note=37 velocity=0 time=120
note_on channel=0 note=49 velocity=0 time=0
note_on channel=0 note=48 velocity=76 time=0
note_on channel=0 note=36 velocity=59 time=0
note_on channel=0 note=36 velocity=0 time=120
note_on channel=0 note=48 velocity=0 time=0
note_on channel=0 note=46 velocity=78 time=0
note_on channel=0 note=34 velocity=59 time=0
control_change channel=0 control=64 value=0 time=14
control_change channel=0 control=64 value=127 time=57
note_on channel=0 note=34 velocity=0 time=49
note_on channel=0 note=46 velocity=0 time=0
note_on channel=0 note=48 velocity=79 time=0
note_on channel=0 note=36 velocity=59 time=0
note_on channel=0 note=36 velocity=0 time=120
note_on channel=0 note=48 velocity=0 time=0
note_on channel=0 note=49 velocity=81 time=0
note_on channel=0 note=37 velocity=62 time=0
note_on channel=0 note=37 velocity=0 time=120
note_on channel=0 note=49 velocity=0 time=0
note_on channel=0 note=46 velocity=82 time=0
note_on channel=0 note=36 velocity=64 time=0
note_on channel=0 note=36 velocity=0 time=0
note_on channel=0 note=46 velocity=0 time=0
note_on channel=0 note=46 velocity=82 time=0
note_on channel=0 note=34 velocity=65 time=0
control_change channel=0 control=64 value=0 time=17
note_on channel=0 note=34 velocity=0 time=0
note_on channel=0 note=46 velocity=0 time=0
note_on channel=0 note=47 velocity=77 time=0
note_on channel=0 note=50 velocity=77 time=0
note_on channel=0 note=53 velocity=77 time=0
note_on channel=0 note=56 velocity=90 time=0
note_on channel=0 note=35 velocity=72 time=0
note_on channel=0 note=35 velocity=0 time=0
note_on channel=0 note=53 velocity=0 time=0
note_on channel=0 note=47 velocity=0 time=0
note_on channel=0 note=50 velocity=0 time=0
note_on channel=0 note=56 velocity=0 time=0
note_on channel=0 note=48 velocity=82 time=0
note_on channel=0 note=52 velocity=82 time=0
note_on channel=0 note=55 velocity=98 time=0
note_on channel=0 note=36 velocity=89 time=0
note_on channel=0 note=36 velocity=0 time=120
note_on channel=0 note=48 velocity=0 time=0
note_on channel=0 note=52 velocity=0 time=0
note_on channel=0 note=55 velocity=0 time=0
note_on channel=0 note=48 velocity=66 time=0
note_on channel=0 note=60 velocity=66 time=0
note_on channel=0 note=60 velocity=0 time=120
note_on channel=0 note=48 velocity=0 time=0
note_on channel=0 note=40 velocity=76 time=0
note_on channel=0 note=40 velocity=0 time=120
note_on channel=0 note=60 velocity=66 time=0
note_on channel=0 note=48 velocity=66 time=0
note_on channel=0 note=48 velocity=0 time=80
note_on channel=0 note=60 velocity=0 time=0
note_on channel=0 note=36 velocity=76 time=0
note_on channel=0 note=36 velocity=0 time=120
note_on channel=0 note=60 velocity=66 time=0
note_on channel=0 note=48 velocity=66 time=0
note_on channel=0 note=48 velocity=0 time=120
note_on channel=0 note=60 velocity=0 time=0
note_on channel=0 note=41 velocity=76 time=0
note_on channel=0 note=41 velocity=0 time=40
note_on channel=0 note=60 velocity=66 time=0
note_on channel=0 note=48 velocity=66 time=0
note_on channel=0 note=48 velocity=0 time=120
note_on channel=0 note=60 velocity=0 time=0
note_on channel=0 note=36 velocity=76 time=0
note_on channel=0 note=36 velocity=0 time=120
note_on channel=0 note=60 velocity=66 time=0
note_on channel=0 note=48 velocity=66 time=0
note_on channel=0 note=48 velocity=0 time=40
note_on channel=0 note=60 velocity=0 time=0
note_on channel=0 note=43 velocity=76 time=0
note_on channel=0 note=43 velocity=0 time=120
note_on channel=0 note=60 velocity=66 time=0
note_on channel=0 note=48 velocity=66 time=0
note_on channel=0 note=48 velocity=0 time=120
note_on channel=0 note=60 velocity=0 time=0
note_on channel=0 note=36 velocity=76 time=0
note_on channel=0 note=36 velocity=0 time=0
note_on channel=0 note=60 velocity=66 time=0
note_on channel=0 note=48 velocity=66 time=0
note_on channel=0 note=48 velocity=0 time=120
note_on channel=0 note=60 velocity=0 time=0
note_on channel=0 note=44 velocity=76 time=0
note_on channel=0 note=44 velocity=0 time=120
note_on channel=0 note=60 velocity=66 time=0
note_on channel=0 note=48 velocity=66 time=0
note_on channel=0 note=48 velocity=0 time=120
note_on channel=0 note=60 velocity=0 time=0
note_on channel=0 note=36 velocity=74 time=0
control_change channel=0 control=64 value=127 time=71
note_on channel=0 note=36 velocity=0 time=49
note_on channel=0 note=60 velocity=64 time=0
note_on channel=0 note=72 velocity=64 time=0
note_on channel=0 note=72 velocity=0 time=120
note_on channel=0 note=60 velocity=0 time=0
note_on channel=0 note=46 velocity=74 time=0
note_on channel=0 note=46 velocity=0 time=120
note_on channel=0 note=60 velocity=64 time=0
note_on channel=0 note=72 velocity=64 time=0
note_on channel=0 note=72 velocity=0 time=120
note_on channel=0 note=60 velocity=0 time=0
note_on channel=0 note=36 velocity=75 time=0
control_change channel=0 control=64 value=0 time=16
control_change channel=0 control=64 value=127 time=69
note_on channel=0 note=36 velocity=0 time=35
note_on channel=0 note=60 velocity=65 time=0
note_on channel=0 note=72 velocity=65 time=0
note_on channel=0 note=72 velocity=0 time=120
note_on channel=0 note=60 velocity=0 time=0
note_on channel=0 note=44 velocity=76 time=0
note_on channel=0 note=44 velocity=0 time=120
note_on channel=0 note=60 velocity=66 time=0
note_on channel=0 note=72 velocity=66 time=0
note_on channel=0 note=72 velocity=0 time=120
note_on channel=0 note=60 velocity=0 time=0
note_on channel=0 note=36 velocity=77 time=0
control_change channel=0 control=64 value=0 time=13
control_change channel=0 control=64 value=127 time=65
note_on channel=0 note=36 velocity=0 time=42
note_on channel=0 note=60 velocity=64 time=0
note_on channel=0 note=72 velocity=64 time=0
note_on channel=0 note=72 velocity=0 time=120
note_on channel=0 note=60 velocity=0 time=0
note_on channel=0 note=43 velocity=78 time=0
note_on channel=0 note=43 velocity=0 time=120
note_on channel=0 note=60 velocity=64 time=0
note_on channel=0 note=72 velocity=64 time=0
note_on channel=0 note=72 velocity=0 time=120
note_on channel=0 note=60 velocity=0 time=0
note_on channel=0 note=36 velocity=79 time=0
control_change channel=0 control=64 value=0 time=18
control_change channel=0 control=64 value=127 time=81
note_on channel=0 note=36 velocity=0 time=21
note_on channel=0 note=60 velocity=65 time=0
note_on channel=0 note=72 velocity=65 time=0
note_on channel=0 note=72 velocity=0 time=120
note_on channel=0 note=60 velocity=0 time=0
note_on channel=0 note=41 velocity=80 time=0
note_on channel=0 note=41 velocity=0 time=120
note_on channel=0 note=60 velocity=66 time=0
note_on channel=0 note=72 velocity=66 time=0
note_on channel=0 note=72 velocity=0 time=0
note_on channel=0 note=60 velocity=0 time=0
note_on channel=0 note=36 velocity=81 time=0
control_change channel=0 control=64 value=0 time=13
control_change channel=0 control=64 value=127 time=56
note_on channel=0 note=36 velocity=0 time=51
note_on channel=0 note=72 velocity=67 time=0
note_on channel=0 note=84 velocity=67 time=0
note_on channel=0 note=84 velocity=0 time=80
note_on channel=0 note=72 velocity=0 time=0
note_on channel=0 note=40 velocity=82 time=0
note_on channel=0 note=40 velocity=0 time=80
note_on channel=0 note=72 velocity=68 time=0
note_on channel=0 note=84 velocity=68 time=0
note_on channel=0 note=84 velocity=0 time=40
note_on channel=0 note=72 velocity=0 time=0
note_on channel=0 note=36 velocity=82 time=0
control_change channel=0 control=64 value=0 time=17
control_change channel=0 control=64 value=127 time=0
note_on channel=0 note=36 velocity=0 time=40
note_on channel=0 note=72 velocity=69 time=0
note_on channel=0 note=84 velocity=69 time=0
note_on channel=0 note=84 velocity=0 time=40
note_on channel=0 note=72 velocity=0 time=0
note_on channel=0 note=41 velocity=83 time=0
note_on channel=0 note=41 velocity=0 time=0
note_on channel=0 note=72 velocity=70 time=0
note_on channel=0 note=84 velocity=70 time=0
note_on channel=0 note=84 velocity=0 time=0
note_on channel=0 note=72 velocity=0 time=0
note_on channel=0 note=36 velocity=84 time=0
control_change channel=0 control=64 value=0 time=10
control_change channel=0 control=64 value=127 time=68
note_on channel=0 note=36 velocity=0 time=0
note_on channel=0 note=72 velocity=71 time=0
note_on channel=0 note=84 velocity=71 time=0
note_on channel=0 note=84 velocity=0 time=120
note_on channel=0 note=72 velocity=0 time=0
note_on channel=0 note=43 velocity=85 time=0
note_on channel=0 note=43 velocity=0 time=80
note_on channel=0 note=72 velocity=72 time=0
note_on channel=0 note=84 velocity=72 time=0
note_on channel=0 note=84 velocity=0 time=80
note_on channel=0 note=72 velocity=0 time=0
note_on channel=0 note=36 velocity=86 time=0
control_change channel=0 control=64 value=0 time=16
control_change channel=0 control=64 value=127 time=59
note_on channel=0 note=36 velocity=0 time=21
note_on channel=0 note=72 velocity=73 time=0
note_on channel=0 note=84 velocity=73 time=0
note_on channel=0 note=84 velocity=0 time=40
note_on channel=0 note=72 velocity=0 time=0
note_on channel=0 note=44 velocity=87 time=0
note_on channel=0 note=44 velocity=0 time=40
note_on channel=0 note=72 velocity=74 time=0
note_on channel=0 note=84 velocity=74 time=0
note_on channel=0 note=84 velocity=0 time=80
note_on channel=0 note=72 velocity=0 time=0
note_on channel=0 note=36 velocity=88 time=0
control_change channel=0 control=64 value=0 time=14
control_change channel=0 control=64 value=127 time=55
note_on channel=0 note=36 velocity=0 time=0
note_on channel=0 note=84 velocity=75 time=0
note_on channel=0 note=96 velocity=75 time=0
note_on channel=0 note=96 velocity=0 time=120
note_on channel=0 note=84 velocity=0 time=0
note_on channel=0 note=45 velocity=89 time=0
note_on channel=0 note=45 velocity=0 time=80
note_on channel=0 note=84 velocity=76 time=0
note_on channel=0 note=96 velocity=76 time=0
note_on channel=0 note=96 velocity=0 time=40
note_on channel=0 note=84 velocity=0 time=0
note_on channel=0 note=36 velocity=91 time=0
control_change channel=0 control=64 value=0 time=19
control_change channel=0 control=64 value=127 time=78
note_on channel=0 note=36 velocity=0 time=0
note_on channel=0 note=84 velocity=78 time=0
note_on channel=0 note=96 velocity=78 time=0
note_on channel=0 note=96 velocity=0 time=120
note_on channel=0 note=84 velocity=0 time=0
note_on channel=0 note=46 velocity=92 time=0
note_on channel=0 note=46 velocity=0 time=80
note_on channel=0 note=84 velocity=81 time=0
note_on channel=0 note=96 velocity=81 time=0
note_on channel=0 note=96 velocity=0 time=40
note_on channel=0 note=84 velocity=0 time=0
note_on channel=0 note=36 velocity=94 time=0
control_change channel=0 control=64 value=0 time=12
control_change channel=0 control=64 value=127 time=63
note_on channel=0 note=36 velocity=0 time=0
note_on channel=0 note=84 velocity=82 time=0
note_on channel=0 note=96 velocity=82 time=0
note_on channel=0 note=96 velocity=0 time=120
note_on channel=0 note=84 velocity=0 time=0
note_on channel=0 note=47 velocity=96 time=0
note_on channel=0 note=47 velocity=0 time=80
note_on channel=0 note=84 velocity=84 time=0
note_on channel=0 note=96 velocity=84 time=0
note_on channel=0 note=96 velocity=0 time=40
note_on channel=0 note=84 velocity=0 time=0
note_on channel=0 note=36 velocity=99 time=0
control_change channel=0 control=64 value=0 time=16
control_change channel=0 control=64 value=127 time=6
note_on channel=0 note=36 velocity=0 time=34
note_on channel=0 note=84 velocity=86 time=0
note_on channel=0 note=96 velocity=86 time=0
note_on channel=0 note=96 velocity=0 time=0
note_on channel=0 note=84 velocity=0 time=0
note_on channel=0 note=48 velocity=101 time=0
note_on channel=0 note=48 velocity=0 time=120
note_on channel=0 note=84 velocity=88 time=0
note_on channel=0 note=96 velocity=88 time=0
note_on channel=0 note=96 velocity=0 time=0
note_on channel=0 note=84 velocity=0 time=0
note_on channel=0 note=34 velocity=86 time=0
note_on channel=0 note=42 velocity=86 time=0
note_on channel=0 note=37 velocity=86 time=0
note_on channel=0 note=46 velocity=102 time=0
control_change channel=0 control=64 value=0 time=16
control_change channel=0 control=64 value=127 time=81
note_on channel=0 note=49 velocity=72 time=0
note_on channel=0 note=49 velocity=0 time=120
note_on channel=0 note=37 velocity=0 time=0
note_on channel=0 note=34 velocity=0 time=0
note_on channel=0 note=42 velocity=0 time=0
note_on channel=0 note=46 velocity=0 time=0
note_on channel=0 note=54 velocity=75 time=0
note_on channel=0 note=54 velocity=0 time=120
note_on channel=0 note=58 velocity=76 time=0
note_on channel=0 note=58 velocity=0 time=120
note_on channel=0 note=61 velocity=90 time=0
note_on channel=0 note=61 velocity=0 time=120
note_on channel=0 note=46 velocity=71 time=0
note_on channel=0 note=46 velocity=0 time=120
note_on channel=0 note=49 velocity=74 time=0
note_on channel=0 note=49 velocity=0 time=0
note_on channel=0 note=54 velocity=76 time=0
note_on channel=0 note=54 velocity=0 time=0
note_on channel=0 note=58 velocity=91 time=0
note_on channel=0 note=58 velocity=0 time=120
note_on channel=0 note=61 velocity=72 time=0
note_on channel=0 note=61 velocity=0 time=120
note_on channel=0 note=66 velocity=75 time=0
note_on channel=0 note=66 velocity=0 time=120
note_on channel=0 note=70 velocity=76 time=0
note_on channel=0 note=70 velocity=0 time=120
note_on channel=0 note=73 velocity=88 time=0
note_on channel=0 note=73 velocity=0 time=120
note_on channel=0 note=58 velocity=73 time=0
note_on channel=0 note=58 velocity=0 time=120
note_on channel=0 note=61 velocity=76 time=0
note_on channel=0 note=61 velocity=0 time=0
note_on channel=0 note=66 velocity=78 time=0
note_on channel=0 note=66 velocity=0 time=0
note_on channel=0 note=70 velocity=86 time=0
note_on channel=0 note=70 velocity=0 time=0
note_on channel=0 note=73 velocity=77 time=0
note_on channel=0 note=73 velocity=0 time=0
note_on channel=0 note=78 velocity=79 time=0
note_on channel=0 note=78 velocity=0 time=0
note_on channel=0 note=82 velocity=81 time=0
note_on channel=0 note=82 velocity=0 time=0
note_on channel=0 note=85 velocity=89 time=0
note_on channel=0 note=85 velocity=0 time=240
control_change channel=0 control=64 value=0 time=75
note_on channel=0 note=36 velocity=79 time=0
note_on channel=0 note=46 velocity=94 time=0
note_on channel=0 note=43 velocity=79 time=0
note_on channel=0 note=48 velocity=97 time=0
control_change channel=0 control=64 value=127 time=103
note_on channel=0 note=52 velocity=72 time=17
note_on channel=0 note=52 velocity=0 time=120
note_on channel=0 note=43 velocity=0 time=0
note_on channel=0 note=36 velocity=0 time=0
note_on channel=0 note=46 velocity=0 time=0
note_on channel=0 note=48 velocity=0 time=0
note_on channel=0 note=55 velocity=75 time=0
note_on channel=0 note=55 velocity=0 time=120
note_on channel=0 note=58 velocity=76 time=0
note_on channel=0 note=58 velocity=0 time=120
note_on channel=0 note=64 velocity=89 time=0
note_on channel=0 note=64 velocity=0 time=120
note_on channel=0 note=48 velocity=71 time=0
note_on channel=0 note=48 velocity=0 time=120
note_on channel=0 note=55 velocity=74 time=0
note_on channel=0 note=55 velocity=0 time=0
note_on channel=0 note=58 velocity=76 time=0
note_on channel=0 note=58 velocity=0 time=0
note_on channel=0 note=60 velocity=90 time=0
note_on channel=0 note=60 velocity=0 time=120
note_on channel=0 note=64 velocity=72 time=0
note_on channel=0 note=64 velocity=0 time=120
note_on channel=0 note=67 velocity=75 time=0
note_on channel=0 note=67 velocity=0 time=120
note_on channel=0 note=70 velocity=76 time=0
note_on channel=0 note=70 velocity=0 time=120
note_on channel=0 note=76 velocity=87 time=0
note_on channel=0 note=76 velocity=0 time=120
note_on channel=0 note=60 velocity=73 time=0
note_on channel=0 note=60 velocity=0 time=120
note_on channel=0 note=67 velocity=76 time=0
note_on channel=0 note=67 velocity=0 time=0
note_on channel=0 note=70 velocity=78 time=0
note_on channel=0 note=70 velocity=0 time=0
note_on channel=0 note=72 velocity=89 time=0
note_on channel=0 note=72 velocity=0 time=0
note_on channel=0 note=76 velocity=77 time=0
note_on channel=0 note=76 velocity=0 time=0
note_on channel=0 note=79 velocity=79 time=0
note_on channel=0 note=79 velocity=0 time=0
note_on channel=0 note=82 velocity=81 time=0
note_on channel=0 note=82 velocity=0 time=0
note_on channel=0 note=88 velocity=93 time=0
note_on channel=0 note=88 velocity=0 time=240
control_change channel=0 control=64 value=0 time=97
note_on channel=0 note=37 velocity=58 time=1103
control_change channel=0 control=64 value=127 time=86
note_on channel=0 note=37 velocity=0 time=74
note_on channel=0 note=49 velocity=50 time=0
note_on channel=0 note=49 velocity=0 time=160
note_on channel=0 note=52 velocity=50 time=0
note_on channel=0 note=52 velocity=0 time=0
note_on channel=0 note=55 velocity=50 time=0
note_on channel=0 note=55 velocity=0 time=0
note_on channel=0 note=58 velocity=54 time=0
note_on channel=0 note=58 velocity=0 time=40
note_on channel=0 note=61 velocity=51 time=0
note_on channel=0 note=61 velocity=0 time=0
note_on channel=0 note=64 velocity=53 time=0
note_on channel=0 note=64 velocity=0 time=0
note_on channel=0 note=67 velocity=54 time=0
note_on channel=0 note=67 velocity=0 time=240
control_change channel=0 control=64 value=0 time=311
note_on channel=0 note=40 velocity=55 time=409
control_change channel=0 control=64 value=127 time=92
note_on channel=0 note=40 velocity=0 time=68
note_on channel=0 note=52 velocity=47 time=0
note_on channel=0 note=52 velocity=0 time=160
note_on channel=0 note=55 velocity=47 time=0
note_on channel=0 note=55 velocity=0 time=0
note_on channel=0 note=58 velocity=47 time=0
note_on channel=0 note=58 velocity=0 time=0
note_on channel=0 note=61 velocity=51 time=0
note_on channel=0 note=61 velocity=0 time=0
note_on channel=0 note=64 velocity=48 time=0
note_on channel=0 note=64 velocity=0 time=0
note_on channel=0 note=67 velocity=50 time=0
note_on channel=0 note=67 velocity=0 time=0
note_on channel=0 note=70 velocity=51 time=0
note_on channel=0 note=70 velocity=0 time=240
control_change channel=0 control=64 value=0 time=254
note_on channel=0 note=43 velocity=52 time=466
control_change channel=0 control=64 value=127 time=69
note_on channel=0 note=43 velocity=0 time=91
note_on channel=0 note=55 velocity=44 time=0
note_on channel=0 note=55 velocity=0 time=160
note_on channel=0 note=58 velocity=44 time=0
note_on channel=0 note=58 velocity=0 time=160
note_on channel=0 note=61 velocity=44 time=0
note_on channel=0 note=61 velocity=0 time=120
note_on channel=0 note=64 velocity=48 time=0
note_on channel=0 note=64 velocity=0 time=120
note_on channel=0 note=67 velocity=45 time=0
note_on channel=0 note=67 velocity=0 time=120
note_on channel=0 note=70 velocity=47 time=0
note_on channel=0 note=70 velocity=0 time=120
note_on channel=0 note=73 velocity=48 time=0
note_on channel=0 note=73 velocity=0 time=240
control_change channel=0 control=64 value=0 time=254
note_on channel=0 note=46 velocity=49 time=466
control_change channel=0 control=64 value=127 time=46
note_on channel=0 note=46 velocity=0 time=114
note_on channel=0 note=58 velocity=41 time=0
note_on channel=0 note=58 velocity=0 time=160
note_on channel=0 note=61 velocity=41 time=0
note_on channel=0 note=61 velocity=0 time=160
note_on channel=0 note=64 velocity=41 time=0
note_on channel=0 note=64 velocity=0 time=120
note_on channel=0 note=67 velocity=45 time=0
note_on channel=0 note=67 velocity=0 time=120
note_on channel=0 note=70 velocity=42 time=0
note_on channel=0 note=70 velocity=0 time=120
note_on channel=0 note=73 velocity=44 time=0
note_on channel=0 note=73 velocity=0 time=120
note_on channel=0 note=76 velocity=45 time=0
note_on channel=0 note=76 velocity=0 time=240
control_change channel=0 control=64 value=0 time=263
note_on channel=0 note=49 velocity=40 time=457
control_change channel=0 control=64 value=127 time=103
note_on channel=0 note=49 velocity=0 time=137
note_on channel=0 note=52 velocity=36 time=0
note_on channel=0 note=52 velocity=0 time=240
note_on channel=0 note=55 velocity=36 time=0
note_on channel=0 note=55 velocity=0 time=240
note_on channel=0 note=58 velocity=36 time=0
note_on channel=0 note=58 velocity=0 time=240
note_on channel=0 note=61 velocity=35 time=0
note_on channel=0 note=61 velocity=0 time=240
note_on channel=0 note=64 velocity=36 time=0
note_on channel=0 note=64 velocity=0 time=240
note_on channel=0 note=67 velocity=37 time=0
note_on channel=0 note=67 velocity=0 time=240
note_on channel=0 note=70 velocity=38 time=0
note_on channel=0 note=70 velocity=0 time=240
note_on channel=0 note=73 velocity=39 time=0
note_on channel=0 note=73 velocity=0 time=240
note_on channel=0 note=76 velocity=40 time=0
note_on channel=0 note=76 velocity=0 time=240
note_on channel=0 note=79 velocity=40 time=0
note_on channel=0 note=79 velocity=0 time=240
note_on channel=0 note=82 velocity=41 time=0
note_on channel=0 note=82 velocity=0 time=240
note_on channel=0 note=85 velocity=42 time=0
note_on channel=0 note=85 velocity=0 time=240
note_on channel=0 note=88 velocity=43 time=0
note_on channel=0 note=88 velocity=0 time=240
note_on channel=0 note=91 velocity=44 time=0
note_on channel=0 note=91 velocity=0 time=240
note_on channel=0 note=94 velocity=46 time=0
note_on channel=0 note=94 velocity=0 time=240
note_on channel=0 note=91 velocity=46 time=0
note_on channel=0 note=91 velocity=0 time=240
note_on channel=0 note=88 velocity=45 time=0
note_on channel=0 note=88 velocity=0 time=240
note_on channel=0 note=85 velocity=45 time=0
note_on channel=0 note=85 velocity=0 time=240
note_on channel=0 note=82 velocity=44 time=0
note_on channel=0 note=82 velocity=0 time=240
note_on channel=0 note=79 velocity=44 time=0
note_on channel=0 note=79 velocity=0 time=240
note_on channel=0 note=76 velocity=43 time=0
note_on channel=0 note=76 velocity=0 time=240
note_on channel=0 note=73 velocity=43 time=0
note_on channel=0 note=73 velocity=0 time=240
note_on channel=0 note=70 velocity=42 time=0
note_on channel=0 note=70 velocity=0 time=240
note_on channel=0 note=67 velocity=42 time=0
note_on channel=0 note=67 velocity=0 time=240
note_on channel=0 note=64 velocity=41 time=0
note_on channel=0 note=64 velocity=0 time=240
note_on channel=0 note=61 velocity=40 time=0
note_on channel=0 note=61 velocity=0 time=240
note_on channel=0 note=58 velocity=38 time=0
note_on channel=0 note=58 velocity=0 time=240
note_on channel=0 note=55 velocity=38 time=0
note_on channel=0 note=55 velocity=0 time=240
note_on channel=0 note=52 velocity=37 time=0
note_on channel=0 note=52 velocity=0 time=240
note_on channel=0 note=49 velocity=36 time=0
note_on channel=0 note=49 velocity=0 time=240
note_on channel=0 note=46 velocity=35 time=0
note_on channel=0 note=46 velocity=0 time=240
note_on channel=0 note=43 velocity=35 time=0
note_on channel=0 note=43 velocity=0 time=960
note_on channel=0 note=40 velocity=36 time=0
note_on channel=0 note=40 velocity=0 time=960
note_on channel=0 note=37 velocity=35 time=0
note_on channel=0 note=37 velocity=0 time=960
note_on channel=0 note=34 velocity=34 time=0
note_on channel=0 note=34 velocity=0 time=960
note_on channel=0 note=31 velocity=34 time=0
control_change channel=0 control=64 value=0 time=0
control_change channel=0 control=64 value=127 time=374
note_on channel=0 note=31 velocity=0 time=1546
note_on channel=0 note=52 velocity=34 time=0
note_on channel=0 note=46 velocity=34 time=0
note_on channel=0 note=43 velocity=34 time=0
note_on channel=0 note=36 velocity=34 time=0
note_on channel=0 note=48 velocity=34 time=0
control_change channel=0 control=64 value=0 time=0
control_change channel=0 control=64 value=127 time=198
note_on channel=0 note=48 velocity=0 time=522
note_on channel=0 note=52 velocity=0 time=0
note_on channel=0 note=43 velocity=0 time=0
note_on channel=0 note=46 velocity=0 time=0
note_on channel=0 note=55 velocity=34 time=1200
note_on channel=0 note=58 velocity=34 time=0
note_on channel=0 note=60 velocity=34 time=0
note_on channel=0 note=64 velocity=34 time=0
note_on channel=0 note=64 velocity=0 time=720
note_on channel=0 note=58 velocity=0 time=0
note_on channel=0 note=60 velocity=0 time=0
note_on channel=0 note=55 velocity=0 time=0
note_on channel=0 note=67 velocity=34 time=240
note_on channel=0 note=70 velocity=34 time=0
note_on channel=0 note=72 velocity=34 time=0
note_on channel=0 note=76 velocity=34 time=0
note_on channel=0 note=76 velocity=0 time=720
note_on channel=0 note=70 velocity=0 time=0
note_on channel=0 note=72 velocity=0 time=0
note_on channel=0 note=67 velocity=0 time=0
note_on channel=0 note=88 velocity=34 time=240
note_on channel=0 note=84 velocity=34 time=0
note_on channel=0 note=82 velocity=34 time=0
note_on channel=0 note=79 velocity=34 time=0
note_on channel=0 note=79 velocity=0 time=720
note_on channel=0 note=84 velocity=0 time=0
note_on channel=0 note=82 velocity=0 time=0
note_on channel=0 note=88 velocity=0 time=0
note_on channel=0 note=46 velocity=34 time=240
note_on channel=0 note=43 velocity=34 time=0
note_on channel=0 note=52 velocity=34 time=0
note_on channel=0 note=48 velocity=34 time=0
note_on channel=0 note=48 velocity=0 time=720
note_on channel=0 note=43 velocity=0 time=0
note_on channel=0 note=52 velocity=0 time=0
note_on channel=0 note=46 velocity=0 time=0
note_on channel=0 note=36 velocity=0 time=120
note_on channel=0 note=36 velocity=34 time=0
note_on channel=0 note=36 velocity=0 time=0
note_on channel=0 note=41 velocity=39 time=0
note_on channel=0 note=29 velocity=39 time=0
control_change channel=0 control=64 value=0 time=8
note_on channel=0 note=48 velocity=40 time=112
note_on channel=0 note=48 velocity=0 time=40
note_on channel=0 note=53 velocity=37 time=0
note_on channel=0 note=53 velocity=0 time=0
note_on channel=0 note=56 velocity=37 time=0
note_on channel=0 note=56 velocity=0 time=0
note_on channel=0 note=29 velocity=0 time=0
note_on channel=0 note=41 velocity=0 time=0
note_on channel=0 note=60 velocity=40 time=0
note_on channel=0 note=60 velocity=0 time=120
note_on channel=0 note=61 velocity=38 time=0
note_on channel=0 note=61 velocity=0 time=120
note_on channel=0 note=60 velocity=38 time=0
note_on channel=0 note=60 velocity=0 time=40
note_on channel=0 note=58 velocity=38 time=0
note_on channel=0 note=58 velocity=0 time=120
note_on channel=0 note=56 velocity=40 time=0
note_on channel=0 note=56 velocity=0 time=120
note_on channel=0 note=58 velocity=37 time=0
note_on channel=0 note=58 velocity=0 time=80
note_on channel=0 note=56 velocity=37 time=0
note_on channel=0 note=56 velocity=0 time=120
note_on channel=0 note=55 velocity=37 time=0
note_on channel=0 note=55 velocity=0 time=0
note_on channel=0 note=53 velocity=40 time=0
note_on channel=0 note=53 velocity=0 time=120
note_on channel=0 note=55 velocity=37 time=0
note_on channel=0 note=55 velocity=0 time=120
note_on channel=0 note=56 velocity=37 time=0
note_on channel=0 note=56 velocity=0 time=0
note_on channel=0 note=53 velocity=37 time=0
note_on channel=0 note=53 velocity=0 time=0
note_on channel=0 note=29 velocity=40 time=0
note_on channel=0 note=41 velocity=40 time=0
note_on channel=0 note=48 velocity=40 time=120
note_on channel=0 note=48 velocity=0 time=120
note_on channel=0 note=53 velocity=37 time=0
note_on channel=0 note=53 velocity=0 time=120
note_on channel=0 note=56 velocity=37 time=0
note_on channel=0 note=56 velocity=0 time=120
note_on channel=0 note=41 velocity=0 time=0
note_on channel=0 note=29 velocity=0 time=0
note_on channel=0 note=60 velocity=40 time=0
note_on channel=0 note=60 velocity=0 time=120
note_on channel=0 note=61 velocity=38 time=0
note_on channel=0 note=61 velocity=0 time=0
note_on channel=0 note=60 velocity=38 time=0
note_on channel=0 note=60 velocity=0 time=120
note_on channel=0 note=58 velocity=38 time=0
note_on channel=0 note=68 velocity=51 time=0
note_on channel=0 note=72 velocity=51 time=0
note_on channel=0 note=72 velocity=0 time=0
note_on channel=0 note=68 velocity=0 time=0
note_on channel=0 note=58 velocity=0 time=0
note_on channel=0 note=56 velocity=40 time=0
note_on channel=0 note=68 velocity=56 time=0
note_on channel=0 note=72 velocity=56 time=0
note_on channel=0 note=56 velocity=0 time=120
note_on channel=0 note=58 velocity=37 time=0
note_on channel=0 note=58 velocity=0 time=120
note_on channel=0 note=56 velocity=37 time=0
note_on channel=0 note=56 velocity=0 time=120
note_on channel=0 note=55 velocity=37 time=0
note_on channel=0 note=55 velocity=0 time=120
note_on channel=0 note=72 velocity=0 time=0
note_on channel=0 note=68 velocity=0 time=0
note_on channel=0 note=53 velocity=40 time=0
note_on channel=0 note=68 velocity=30 time=0
note_on channel=0 note=65 velocity=30 time=0
note_on channel=0 note=53 velocity=0 time=120
note_on channel=0 note=55 velocity=37 time=0
note_on channel=0 note=55 velocity=0 time=120
note_on channel=0 note=65 velocity=0 time=0
note_on channel=0 note=68 velocity=0 time=0
note_on channel=0 note=56 velocity=37 time=0
note_on channel=0 note=56 velocity=0 time=0
note_on channel=0 note=53 velocity=37 time=0
note_on channel=0 note=53 velocity=0 time=0
note_on channel=0 note=34 velocity=40 time=0
note_on channel=0 note=46 velocity=40 time=0
note_on channel=0 note=49 velocity=44 time=120
note_on channel=0 note=49 velocity=0 time=120
note_on channel=0 note=54 velocity=40 time=0
note_on channel=0 note=54 velocity=0 time=120
note_on channel=0 note=58 velocity=40 time=0
note_on channel=0 note=58 velocity=0 time=120
note_on channel=0 note=46 velocity=0 time=0
note_on channel=0 note=34 velocity=0 time=0
note_on channel=0 note=61 velocity=44 time=0
note_on channel=0 note=61 velocity=0 time=120
note_on channel=0 note=63 velocity=41 time=0
note_on channel=0 note=63 velocity=0 time=0
note_on channel=0 note=61 velocity=41 time=0
note_on channel=0 note=61 velocity=0 time=120
note_on channel=0 note=60 velocity=41 time=0
note_on channel=0 note=73 velocity=63 time=0
note_on channel=0 note=70 velocity=63 time=0
note_on channel=0 note=70 velocity=0 time=0
note_on channel=0 note=73 velocity=0 time=0
note_on channel=0 note=60 velocity=0 time=0
note_on channel=0 note=58 velocity=44 time=0
note_on channel=0 note=73 velocity=70 time=0
note_on channel=0 note=70 velocity=70 time=0
note_on channel=0 note=58 velocity=0 time=120
note_on channel=0 note=60 velocity=40 time=0
note_on channel=0 note=60 velocity=0 time=120
note_on channel=0 note=58 velocity=40 time=0
note_on channel=0 note=58 velocity=0 time=120
note_on channel=0 note=56 velocity=40 time=0
note_on channel=0 note=56 velocity=0 time=120
note_on channel=0 note=54 velocity=44 time=0
note_on channel=0 note=54 velocity=0 time=120
note_on channel=0 note=56 velocity=40 time=0
note_on channel=0 note=56 velocity=0 time=120
note_on channel=0 note=54 velocity=40 time=0
note_on channel=0 note=54 velocity=0 time=0
note_on channel=0 note=53 velocity=40 time=0
note_on channel=0 note=53 velocity=0 time=0
note_on channel=0 note=70 velocity=0 time=0
note_on channel=0 note=73 velocity=0 time=0
note_on channel=0 note=52 velocity=44 time=0
note_on channel=0 note=70 velocity=51 time=0
note_on channel=0 note=72 velocity=51 time=0
note_on channel=0 note=52 velocity=0 time=120
note_on channel=0 note=53 velocity=40 time=0
note_on channel=0 note=53 velocity=0 time=120
note_on channel=0 note=72 velocity=0 time=0
note_on channel=0 note=70 velocity=0 time=0
note_on channel=0 note=55 velocity=40 time=0
note_on channel=0 note=48 velocity=43 time=0
note_on channel=0 note=36 velocity=43 time=0
note_on channel=0 note=55 velocity=0 time=0
note_on channel=0 note=52 velocity=40 time=0
note_on channel=0 note=52 velocity=0 time=0
note_on channel=0 note=36 velocity=0 time=0
note_on channel=0 note=48 velocity=0 time=0
note_on channel=0 note=53 velocity=44 time=0
note_on channel=0 note=53 velocity=0 time=120
note_on channel=0 note=55 velocity=40 time=0
note_on channel=0 note=55 velocity=0 time=120
note_on channel=0 note=56 velocity=40 time=0
note_on channel=0 note=37 velocity=37 time=0
note_on channel=0 note=49 velocity=37 time=0
note_on channel=0 note=56 velocity=0 time=0
note_on channel=0 note=53 velocity=40 time=0
note_on channel=0 note=53 velocity=0 time=0
note_on channel=0 note=49 velocity=0 time=0
note_on channel=0 note=37 velocity=0 time=0
note_on channel=0 note=55 velocity=44 time=0
note_on channel=0 note=55 velocity=0 time=120
note_on channel=0 note=56 velocity=40 time=0
note_on channel=0 note=56 velocity=0 time=120
note_on channel=0 note=58 velocity=40 time=0
note_on channel=0 note=34 velocity=39 time=0
note_on channel=0 note=46 velocity=39 time=0
note_on channel=0 note=58 velocity=0 time=0
note_on channel=0 note=55 velocity=40 time=0
note_on channel=0 note=55 velocity=0 time=0
note_on channel=0 note=46 velocity=0 time=0
note_on channel=0 note=34 velocity=0 time=0
note_on channel=0 note=52 velocity=44 time=0
note_on channel=0 note=52 velocity=0 time=120
note_on channel=0 note=53 velocity=37 time=0
note_on channel=0 note=53 velocity=0 time=120
note_on channel=0 note=55 velocity=38 time=0
note_on channel=0 note=36 velocity=35 time=0
note_on channel=0 note=48 velocity=35 time=0
note_on channel=0 note=55 velocity=0 time=0
note_on channel=0 note=52 velocity=40 time=0
note_on channel=0 note=52 velocity=0 time=0
note_on channel=0 note=48 velocity=0 time=0
note_on channel=0 note=36 velocity=0 time=0
note_on channel=0 note=53 velocity=38 time=0
note_on channel=0 note=41 velocity=40 time=0
note_on channel=0 note=29 velocity=40 time=0
note_on channel=0 note=29 velocity=0 time=40
note_on channel=0 note=41 velocity=0 time=0
note_on channel=0 note=48 velocity=37 time=0
note_on channel=0 note=48 velocity=0 time=0
note_on channel=0 note=53 velocity=37 time=0
note_on channel=0 note=53 velocity=0 time=0
note_on channel=0 note=56 velocity=40 time=0
note_on channel=0 note=56 velocity=0 time=120
note_on channel=0 note=53 velocity=0 time=0
note_on channel=0 note=60 velocity=38 time=0
note_on channel=0 note=60 velocity=0 time=120
note_on channel=0 note=61 velocity=38 time=0
note_on channel=0 note=61 velocity=0 time=0
note_on channel=0 note=64 velocity=57 time=0
note_on channel=0 note=60 velocity=38 time=0
note_on channel=0 note=60 velocity=0 time=120
note_on channel=0 note=64 velocity=0 time=0
note_on channel=0 note=58 velocity=40 time=0
note_on channel=0 note=58 velocity=0 time=0
note_on channel=0 note=65 velocity=62 time=0
note_on channel=0 note=56 velocity=37 time=0
note_on channel=0 note=56 velocity=0 time=120
note_on channel=0 note=65 velocity=0 time=0
note_on channel=0 note=58 velocity=37 time=0
note_on channel=0 note=58 velocity=0 time=120
note_on channel=0 note=67 velocity=57 time=0
note_on channel=0 note=56 velocity=37 time=0
note_on channel=0 note=56 velocity=0 time=0
note_on channel=0 note=67 velocity=0 time=0
note_on channel=0 note=55 velocity=40 time=0
note_on channel=0 note=55 velocity=0 time=0
note_on channel=0 note=68 velocity=62 time=0
note_on channel=0 note=53 velocity=37 time=0
note_on channel=0 note=53 velocity=0 time=120
note_on channel=0 note=68 velocity=0 time=0
note_on channel=0 note=55 velocity=37 time=0
note_on channel=0 note=55 velocity=0 time=0
note_on channel=0 note=65 velocity=59 time=0
note_on channel=0 note=56 velocity=37 time=0
note_on channel=0 note=56 velocity=0 time=0
note_on channel=0 note=65 velocity=0 time=0
note_on channel=0 note=53 velocity=37 time=0
note_on channel=0 note=53 velocity=0 time=120
note_on channel=0 note=56 velocity=40 time=0
note_on channel=0 note=56 velocity=0 time=120
note_on channel=0 note=48 velocity=37 time=0
note_on channel=0 note=48 velocity=0 time=120
note_on channel=0 note=53 velocity=37 time=0
note_on channel=0 note=53 velocity=0 time=120
note_on channel=0 note=56 velocity=40 time=0
note_on channel=0 note=56 velocity=0 time=120
note_on channel=0 note=60 velocity=38 time=0
note_on channel=0 note=60 velocity=0 time=0
note_on channel=0 note=61 velocity=38 time=0
note_on channel=0 note=61 velocity=0 time=0
note_on channel=0 note=76 velocity=60 time=0
note_on channel=0 note=64 velocity=52 time=0
note_on channel=0 note=60 velocity=38 time=0
note_on channel=0 note=60 velocity=0 time=120
note_on channel=0 note=64 velocity=0 time=0
note_on channel=0 note=76 velocity=0 time=0
note_on channel=0 note=58 velocity=40 time=0
note_on channel=0 note=58 velocity=0 time=0
note_on channel=0 note=77 velocity=66 time=0
note_on channel=0 note=65 velocity=57 time=0
note_on channel=0 note=56 velocity=37 time=0
note_on channel=0 note=56 velocity=0 time=120
note_on channel=0 note=65 velocity=0 time=0
note_on channel=0 note=77 velocity=0 time=0
note_on channel=0 note=58 velocity=37 time=0
note_on channel=0 note=58 velocity=0 time=0
note_on channel=0 note=67 velocity=53 time=0
note_on channel=0 note=79 velocity=63 time=0
note_on channel=0 note=56 velocity=37 time=0
note_on channel=0 note=56 velocity=0 time=120
note_on channel=0 note=79 velocity=0 time=0
note_on channel=0 note=67 velocity=0 time=0
note_on channel=0 note=55 velocity=40 time=0
note_on channel=0 note=55 velocity=0 time=120
note_on channel=0 note=68 velocity=57 time=0
note_on channel=0 note=80 velocity=68 time=0
note_on channel=0 note=53 velocity=37 time=0
note_on channel=0 note=53 velocity=0 time=120
note_on channel=0 note=80 velocity=0 time=0
note_on channel=0 note=68 velocity=0 time=0
note_on channel=0 note=55 velocity=37 time=0
note_on channel=0 note=55 velocity=0 time=0
note_on channel=0 note=65 velocity=53 time=0
note_on channel=0 note=77 velocity=63 time=0
note_on channel=0 note=56 velocity=37 time=0
note_on channel=0 note=56 velocity=0 time=0
note_on channel=0 note=77 velocity=0 time=0
note_on channel=0 note=65 velocity=0 time=0
note_on channel=0 note=53 velocity=37 time=0
note_on channel=0 note=53 velocity=0 time=120
note_on channel=0 note=58 velocity=44 time=0
note_on channel=0 note=58 velocity=0 time=120
note_on channel=0 note=49 velocity=40 time=0
note_on channel=0 note=49 velocity=0 time=120
note_on channel=0 note=54 velocity=40 time=0
note_on channel=0 note=54 velocity=0 time=120
note_on channel=0 note=58 velocity=44 time=0
note_on channel=0 note=58 velocity=0 time=120
note_on channel=0 note=61 velocity=41 time=0
note_on channel=0 note=61 velocity=0 time=0
note_on channel=0 note=63 velocity=41 time=0
note_on channel=0 note=63 velocity=0 time=0
note_on channel=0 note=65 velocity=59 time=0
note_on channel=0 note=77 velocity=71 time=0
note_on channel=0 note=61 velocity=41 time=0
control_change channel=0 control=64 value=127 time=29
note_on channel=0 note=61 velocity=0 time=91
note_on channel=0 note=60 velocity=44 time=0
note_on channel=0 note=60 velocity=0 time=0
note_on channel=0 note=77 velocity=0 time=0
note_on channel=0 note=65 velocity=0 time=0
note_on channel=0 note=66 velocity=63 time=0
note_on channel=0 note=78 velocity=77 time=0
note_on channel=0 note=58 velocity=40 time=0
control_change channel=0 control=64 value=0 time=9
control_change channel=0 control=64 value=127 time=77
note_on channel=0 note=58 velocity=0 time=34
note_on channel=0 note=60 velocity=40 time=0
note_on channel=0 note=60 velocity=0 time=120
note_on channel=0 note=78 velocity=0 time=0
note_on channel=0 note=66 velocity=0 time=0
note_on channel=0 note=70 velocity=66 time=0
note_on channel=0 note=82 velocity=79 time=0
note_on channel=0 note=58 velocity=40 time=0
note_on channel=0 note=58 velocity=0 time=0
note_on channel=0 note=56 velocity=44 time=0
note_on channel=0 note=56 velocity=0 time=0
note_on channel=0 note=82 velocity=0 time=0
note_on channel=0 note=70 velocity=0 time=0
note_on channel=0 note=73 velocity=69 time=0
note_on channel=0 note=85 velocity=81 time=0
note_on channel=0 note=54 velocity=40 time=0
control_change channel=0 control=64 value=0 time=15
control_change channel=0 control=64 value=127 time=0
note_on channel=0 note=54 velocity=0 time=0
note_on channel=0 note=85 velocity=0 time=0
note_on channel=0 note=73 velocity=0 time=0
note_on channel=0 note=56 velocity=40 time=0
note_on channel=0 note=56 velocity=0 time=0
note_on channel=0 note=73 velocity=66 time=0
note_on channel=0 note=85 velocity=79 time=0
note_on channel=0 note=54 velocity=40 time=0
note_on channel=0 note=54 velocity=0 time=120
note_on channel=0 note=85 velocity=0 time=0
note_on channel=0 note=73 velocity=0 time=0
note_on channel=0 note=53 velocity=44 time=0
note_on channel=0 note=53 velocity=0 time=40
note_on channel=0 note=73 velocity=71 time=0
note_on channel=0 note=85 velocity=83 time=0
note_on channel=0 note=52 velocity=40 time=0
control_change channel=0 control=64 value=0 time=11
control_change channel=0 control=64 value=127 time=0
note_on channel=0 note=52 velocity=0 time=0
note_on channel=0 note=53 velocity=40 time=0
note_on channel=0 note=53 velocity=0 time=0
note_on channel=0 note=55 velocity=40 time=0
note_on channel=0 note=55 velocity=0 time=40
note_on channel=0 note=56 velocity=44 time=0
note_on channel=0 note=56 velocity=0 time=0
note_on channel=0 note=85 velocity=0 time=0
note_on channel=0 note=73 velocity=0 time=0
note_on channel=0 note=84 velocity=78 time=0
note_on channel=0 note=72 velocity=64 time=0
note_on channel=0 note=58 velocity=40 time=0
control_change channel=0 control=64 value=0 time=13
control_change channel=0 control=64 value=127 time=79
note_on channel=0 note=58 velocity=0 time=28
note_on channel=0 note=56 velocity=40 time=0
note_on channel=0 note=56 velocity=0 time=80
note_on channel=0 note=55 velocity=40 time=0
note_on channel=0 note=55 velocity=0 time=40
note_on channel=0 note=53 velocity=44 time=0
note_on channel=0 note=53 velocity=0 time=0
note_on channel=0 note=52 velocity=40 time=0
control_change channel=0 control=64 value=0 time=12
control_change channel=0 control=64 value=127 time=68
note_on channel=0 note=52 velocity=0 time=40
note_on channel=0 note=53 velocity=40 time=0
note_on channel=0 note=53 velocity=0 time=120
note_on channel=0 note=52 velocity=40 time=0
note_on channel=0 note=52 velocity=0 time=120
note_on channel=0 note=49 velocity=44 time=0
note_on channel=0 note=49 velocity=0 time=120
note_on channel=0 note=72 velocity=0 time=0
note_on channel=0 note=84 velocity=0 time=0
note_on channel=0 note=64 velocity=64 time=0
note_on channel=0 note=76 velocity=64 time=0
note_on channel=0 note=48 velocity=37 time=0
control_change channel=0 control=64 value=0 time=18
control_change channel=0 control=64 value=127 time=79
note_on channel=0 note=48 velocity=0 time=23
note_on channel=0 note=46 velocity=38 time=0
note_on channel=0 note=46 velocity=0 time=120
note_on channel=0 note=44 velocity=40 time=0
note_on channel=0 note=44 velocity=0 time=120
note_on channel=0 note=43 velocity=40 time=0
note_on channel=0 note=43 velocity=0 time=0
note_on channel=0 note=76 velocity=0 time=0
note_on channel=0 note=64 velocity=0 time=0
note_on channel=0 note=77 velocity=57 time=0
note_on channel=0 note=65 velocity=57 time=0
note_on channel=0 note=41 velocity=44 time=0
control_change channel=0 control=64 value=0 time=16
control_change channel=0 control=64 value=127 time=62
note_on channel=0 note=65 velocity=0 time=42
note_on channel=0 note=77 velocity=0 time=0
note_on channel=0 note=60 velocity=41 time=0
note_on channel=0 note=60 velocity=0 time=120
note_on channel=0 note=65 velocity=44 time=0
note_on channel=0 note=65 velocity=0 time=80
note_on channel=0 note=68 velocity=46 time=0
note_on channel=0 note=68 velocity=0 time=120
note_on channel=0 note=41 velocity=0 time=0
note_on channel=0 note=72 velocity=43 time=0
note_on channel=0 note=72 velocity=0 time=80
note_on channel=0 note=60 velocity=45 time=0
note_on channel=0 note=60 velocity=0 time=120
note_on channel=0 note=65 velocity=46 time=0
note_on channel=0 note=65 velocity=0 time=0
note_on channel=0 note=68 velocity=48 time=0
note_on channel=0 note=56 velocity=52 time=0
note_on channel=0 note=53 velocity=52 time=0
note_on channel=0 note=53 velocity=0 time=0
note_on channel=0 note=56 velocity=0 time=0
note_on channel=0 note=68 velocity=0 time=0
note_on channel=0 note=53 velocity=65 time=0
note_on channel=0 note=56 velocity=65 time=0
control_change channel=0 control=64 value=0 time=17
control_change channel=0 control=64 value=127 time=82
note_on channel=0 note=60 velocity=46 time=21
note_on channel=0 note=60 velocity=0 time=120
note_on channel=0 note=65 velocity=47 time=0
note_on channel=0 note=65 velocity=0 time=120
note_on channel=0 note=68 velocity=49 time=0
note_on channel=0 note=68 velocity=0 time=120
note_on channel=0 note=56 velocity=0 time=0
note_on channel=0 note=53 velocity=0 time=0
note_on channel=0 note=72 velocity=50 time=0
note_on channel=0 note=72 velocity=0 time=120
note_on channel=0 note=60 velocity=52 time=0
note_on channel=0 note=60 velocity=0 time=120
note_on channel=0 note=65 velocity=53 time=0
note_on channel=0 note=65 velocity=0 time=0
note_on channel=0 note=68 velocity=38 time=0
note_on channel=0 note=56 velocity=54 time=0
note_on channel=0 note=53 velocity=54 time=0
note_on channel=0 note=53 velocity=0 time=0
note_on channel=0 note=56 velocity=0 time=0
note_on channel=0 note=68 velocity=0 time=0
note_on channel=0 note=48 velocity=66 time=0
note_on channel=0 note=56 velocity=66 time=0
note_on channel=0 note=53 velocity=66 time=0
control_change channel=0 control=64 value=0 time=12
control_change channel=0 control=64 value=127 time=63
note_on channel=0 note=59 velocity=51 time=0
note_on channel=0 note=59 velocity=0 time=0
note_on channel=0 note=62 velocity=52 time=0
note_on channel=0 note=62 velocity=0 time=0
note_on channel=0 note=68 velocity=52 time=0
note_on channel=0 note=68 velocity=0 time=0
note_on channel=0 note=71 velocity=54 time=0
note_on channel=0 note=59 velocity=52 time=0
note_on channel=0 note=59 velocity=0 time=0
note_on channel=0 note=62 velocity=52 time=0
note_on channel=0 note=62 velocity=0 time=0
note_on channel=0 note=68 velocity=52 time=0
note_on channel=0 note=68 velocity=0 time=0
note_on channel=0 note=48 velocity=0 time=0
note_on channel=0 note=53 velocity=0 time=0
note_on channel=0 note=56 velocity=0 time=0
note_on channel=0 note=71 velocity=0 time=0
note_on channel=0 note=71 velocity=54 time=0
note_on channel=0 note=52 velocity=48 time=0
note_on channel=0 note=48 velocity=48 time=0
note_on channel=0 note=55 velocity=48 time=0
control_change channel=0 control=64 value=0 time=14
note_on channel=0 note=59 velocity=52 time=0
control_change channel=0 control=64 value=127 time=17
note_on channel=0 note=59 velocity=0 time=0
note_on channel=0 note=48 velocity=0 time=0
note_on channel=0 note=55 velocity=0 time=0
note_on channel=0 note=52 velocity=0 time=0
note_on channel=0 note=64 velocity=50 time=0
note_on channel=0 note=64 velocity=0 time=40
note_on channel=0 note=67 velocity=49 time=0
note_on channel=0 note=67 velocity=0 time=40
note_on channel=0 note=71 velocity=0 time=0
note_on channel=0 note=72 velocity=52 time=0
control_change channel=0 control=64 value=0 time=18
control_change channel=0 control=64 value=127 time=46
note_on channel=0 note=60 velocity=46 time=34
note_on channel=0 note=60 velocity=0 time=0
note_on channel=0 note=64 velocity=44 time=0
note_on channel=0 note=64 velocity=0 time=0
note_on channel=0 note=67 velocity=38 time=0
note_on channel=0 note=67 velocity=0 time=0
note_on channel=0 note=72 velocity=0 time=0
note_on channel=0 note=48 velocity=42 time=0
note_on channel=0 note=36 velocity=42 time=0
control_change channel=0 control=64 value=0 time=17
note_on channel=0 note=60 velocity=38 time=103
control_change channel=0 control=64 value=127 time=35
note_on channel=0 note=60 velocity=0 time=85
note_on channel=0 note=64 velocity=40 time=0
note_on channel=0 note=64 velocity=0 time=120
note_on channel=0 note=67 velocity=42 time=0
note_on channel=0 note=67 velocity=0 time=120
note_on channel=0 note=36 velocity=0 time=0
note_on channel=0 note=48 velocity=0 time=0
note_on channel=0 note=72 velocity=43 time=0
note_on channel=0 note=72 velocity=0 time=120
note_on channel=0 note=60 velocity=45 time=0
note_on channel=0 note=60 velocity=0 time=120
note_on channel=0 note=64 velocity=46 time=0
note_on channel=0 note=64 velocity=0 time=0
note_on channel=0 note=67 velocity=48 time=0
note_on channel=0 note=58 velocity=60 time=0
note_on channel=0 note=55 velocity=60 time=0
note_on channel=0 note=55 velocity=0 time=0
note_on channel=0 note=58 velocity=0 time=0
note_on channel=0 note=67 velocity=0 time=0
note_on channel=0 note=55 velocity=68 time=0
note_on channel=0 note=58 velocity=68 time=0
control_change channel=0 control=64 value=0 time=15
control_change channel=0 control=64 value=127 time=82
note_on channel=0 note=60 velocity=46 time=23
note_on channel=0 note=60 velocity=0 time=120
note_on channel=0 note=64 velocity=47 time=0
note_on channel=0 note=64 velocity=0 time=120
note_on channel=0 note=67 velocity=49 time=0
note_on channel=0 note=67 velocity=0 time=120
note_on channel=0 note=58 velocity=0 time=0
note_on channel=0 note=55 velocity=0 time=0
note_on channel=0 note=72 velocity=50 time=0
note_on channel=0 note=72 velocity=0 time=120
note_on channel=0 note=60 velocity=52 time=0
note_on channel=0 note=60 velocity=0 time=120
note_on channel=0 note=64 velocity=53 time=0
note_on channel=0 note=64 velocity=0 time=0
note_on channel=0 note=67 velocity=38 time=0
note_on channel=0 note=55 velocity=61 time=0
note_on channel=0 note=58 velocity=61 time=0
note_on channel=0 note=58 velocity=0 time=0
note_on channel=0 note=55 velocity=0 time=0
note_on channel=0 note=67 velocity=0 time=0
note_on channel=0 note=53 velocity=58 time=0
note_on channel=0 note=58 velocity=69 time=0
note_on channel=0 note=55 velocity=58 time=0
control_change channel=0 control=64 value=0 time=19
note_on channel=0 note=60 velocity=51 time=80
control_change channel=0 control=64 value=127 time=35
note_on channel=0 note=60 velocity=0 time=0
note_on channel=0 note=64 velocity=52 time=0
note_on channel=0 note=64 velocity=0 time=120
note_on channel=0 note=67 velocity=52 time=0
note_on channel=0 note=67 velocity=0 time=80
note_on channel=0 note=72 velocity=54 time=0
note_on channel=0 note=60 velocity=52 time=40
note_on channel=0 note=60 velocity=0 time=0
note_on channel=0 note=64 velocity=52 time=0
note_on channel=0 note=64 velocity=0 time=120
note_on channel=0 note=67 velocity=52 time=0
note_on channel=0 note=67 velocity=0 time=0
note_on channel=0 note=53 velocity=0 time=0
note_on channel=0 note=55 velocity=0 time=0
note_on channel=0 note=58 velocity=0 time=0
note_on channel=0 note=72 velocity=0 time=0
note_on channel=0 note=72 velocity=53 time=0
note_on channel=0 note=53 velocity=47 time=0
note_on channel=0 note=56 velocity=52 time=0
control_change channel=0 control=64 value=0 time=9
control_change channel=0 control=64 value=127 time=106
note_on channel=0 note=60 velocity=52 time=5
note_on channel=0 note=60 velocity=0 time=80
note_on channel=0 note=56 velocity=0 time=0
note_on channel=0 note=53 velocity=0 time=0
note_on channel=0 note=64 velocity=50 time=0
note_on channel=0 note=64 velocity=0 time=80
note_on channel=0 note=67 velocity=49 time=0
note_on channel=0 note=67 velocity=0 time=40
note_on channel=0 note=72 velocity=0 time=0
note_on channel=0 note=72 velocity=47 time=0
control_change channel=0 control=64 value=0 time=16
control_change channel=0 control=64 value=127 time=0
note_on channel=0 note=60 velocity=46 time=40
note_on channel=0 note=60 velocity=0 time=0
note_on channel=0 note=65 velocity=44 time=0
note_on channel=0 note=65 velocity=0 time=0
note_on channel=0 note=68 velocity=38 time=0
note_on channel=0 note=68 velocity=0 time=0
note_on channel=0 note=72 velocity=0 time=0
note_on channel=0 note=41 velocity=45 time=0
note_on channel=0 note=53 velocity=45 time=0
control_change channel=0 control=64 value=0 time=15
control_change channel=0 control=64 value=127 time=65
note_on channel=0 note=65 velocity=38 time=40
note_on channel=0 note=65 velocity=0 time=120
note_on channel=0 note=69 velocity=40 time=0
note_on channel=0 note=69 velocity=0 time=120
note_on channel=0 note=72 velocity=42 time=0
note_on channel=0 note=72 velocity=0 time=120
note_on channel=0 note=53 velocity=0 time=0
note_on channel=0 note=41 velocity=0 time=0
note_on channel=0 note=77 velocity=43 time=0
note_on channel=0 note=77 velocity=0 time=120
note_on channel=0 note=65 velocity=45 time=0
note_on channel=0 note=65 velocity=0 time=120
note_on channel=0 note=69 velocity=46 time=0
note_on channel=0 note=69 velocity=0 time=0
note_on channel=0 note=72 velocity=48 time=0
note_on channel=0 note=63 velocity=59 time=0
note_on channel=0 note=60 velocity=59 time=0
note_on channel=0 note=60 velocity=0 time=0
note_on channel=0 note=63 velocity=0 time=0
note_on channel=0 note=72 velocity=0 time=0
note_on channel=0 note=60 velocity=68 time=0
note_on channel=0 note=63 velocity=68 time=0
control_change channel=0 control=64 value=0 time=17
note_on channel=0 note=65 velocity=46 time=103
control_change channel=0 control=64 value=127 time=17
note_on channel=0 note=65 velocity=0 time=103
note_on channel=0 note=69 velocity=47 time=0
note_on channel=0 note=69 velocity=0 time=120
note_on channel=0 note=72 velocity=49 time=0
note_on channel=0 note=72 velocity=0 time=120
note_on channel=0 note=63 velocity=0 time=0
note_on channel=0 note=60 velocity=0 time=0
note_on channel=0 note=77 velocity=50 time=0
note_on channel=0 note=77 velocity=0 time=120
note_on channel=0 note=65 velocity=52 time=0
note_on channel=0 note=65 velocity=0 time=120
note_on channel=0 note=69 velocity=53 time=0
note_on channel=0 note=69 velocity=0 time=0
note_on channel=0 note=72 velocity=54 time=0
note_on channel=0 note=60 velocity=66 time=0
note_on channel=0 note=63 velocity=66 time=0
note_on channel=0 note=63 velocity=0 time=0
note_on channel=0 note=60 velocity=0 time=0
note_on channel=0 note=72 velocity=0 time=0
note_on channel=0 note=58 velocity=72 time=0
note_on channel=0 note=63 velocity=72 time=0
note_on channel=0 note=60 velocity=72 time=0
control_change channel=0 control=64 value=0 time=18
control_change channel=0 control=64 value=127 time=79
note_on channel=0 note=65 velocity=50 time=23
note_on channel=0 note=65 velocity=0 time=120
note_on channel=0 note=69 velocity=50 time=0
note_on channel=0 note=69 velocity=0 time=120
note_on channel=0 note=72 velocity=50 time=0
note_on channel=0 note=72 velocity=0 time=120
note_on channel=0 note=77 velocity=55 time=0
note_on channel=0 note=65 velocity=53 time=120
note_on channel=0 note=65 velocity=0 time=120
note_on channel=0 note=69 velocity=52 time=0
note_on channel=0 note=69 velocity=0 time=120
note_on channel=0 note=72 velocity=52 time=0
note_on channel=0 note=72 velocity=0 time=0
note_on channel=0 note=77 velocity=0 time=0
note_on channel=0 note=69 velocity=54 time=0
note_on channel=0 note=65 velocity=54 time=0
control_change channel=0 control=64 value=0 time=8
note_on channel=0 note=65 velocity=0 time=112
note_on channel=0 note=69 velocity=0 time=0
note_on channel=0 note=77 velocity=54 time=0
note_on channel=0 note=77 velocity=0 time=0
note_on channel=0 note=60 velocity=0 time=0
note_on channel=0 note=63 velocity=0 time=0
note_on channel=0 note=58 velocity=0 time=0
note_on channel=0 note=65 velocity=53 time=0
note_on channel=0 note=70 velocity=53 time=0
note_on channel=0 note=61 velocity=64 time=0
note_on channel=0 note=58 velocity=64 time=0
note_on channel=0 note=70 velocity=0 time=120
note_on channel=0 note=65 velocity=0 time=0
note_on channel=0 note=77 velocity=52 time=0
note_on channel=0 note=77 velocity=0 time=0
note_on channel=0 note=61 velocity=0 time=0
note_on channel=0 note=58 velocity=0 time=0
note_on channel=0 note=65 velocity=52 time=0
note_on channel=0 note=72 velocity=52 time=0
note_on channel=0 note=60 velocity=61 time=0
note_on channel=0 note=56 velocity=61 time=0
note_on channel=0 note=72 velocity=0 time=120
note_on channel=0 note=65 velocity=0 time=0
note_on channel=0 note=77 velocity=51 time=0
note_on channel=0 note=77 velocity=0 time=120
note_on channel=0 note=60 velocity=0 time=0
note_on channel=0 note=56 velocity=0 time=0
note_on channel=0 note=73 velocity=50 time=0
note_on channel=0 note=65 velocity=50 time=0
note_on channel=0 note=58 velocity=59 time=0
note_on channel=0 note=55 velocity=59 time=0
note_on channel=0 note=65 velocity=0 time=120
note_on channel=0 note=73 velocity=0 time=0
note_on channel=0 note=77 velocity=50 time=0
note_on channel=0 note=77 velocity=0 time=0
note_on channel=0 note=58 velocity=0 time=0
note_on channel=0 note=55 velocity=0 time=0
note_on channel=0 note=48 velocity=56 time=0
note_on channel=0 note=56 velocity=56 time=0
note_on channel=0 note=53 velocity=56 time=0
control_change channel=0 control=64 value=127 time=64
note_on channel=0 note=60 velocity=52 time=56
note_on channel=0 note=60 velocity=0 time=120
note_on channel=0 note=65 velocity=49 time=0
note_on channel=0 note=65 velocity=0 time=120
note_on channel=0 note=68 velocity=50 time=0
note_on channel=0 note=68 velocity=0 time=120
note_on channel=0 note=48 velocity=0 time=0
note_on channel=0 note=56 velocity=0 time=0
note_on channel=0 note=53 velocity=0 time=0
note_on channel=0 note=72 velocity=56 time=0
note_on channel=0 note=60 velocity=50 time=120
note_on channel=0 note=60 velocity=0 time=120
note_on channel=0 note=65 velocity=50 time=0
note_on channel=0 note=65 velocity=0 time=0
note_on channel=0 note=68 velocity=50 time=0
note_on channel=0 note=56 velocity=56 time=0
note_on channel=0 note=53 velocity=56 time=0
note_on channel=0 note=53 velocity=0 time=0
note_on channel=0 note=72 velocity=0 time=0
note_on channel=0 note=68 velocity=0 time=0
note_on channel=0 note=56 velocity=0 time=0
note_on channel=0 note=72 velocity=56 time=0
note_on channel=0 note=48 velocity=63 time=0
note_on channel=0 note=58 velocity=63 time=0
note_on channel=0 note=55 velocity=63 time=0
control_change channel=0 control=64 value=0 time=12
control_change channel=0 control=64 value=127 time=68
note_on channel=0 note=60 velocity=52 time=40
note_on channel=0 note=60 velocity=0 time=120
note_on channel=0 note=67 velocity=52 time=0
note_on channel=0 note=67 velocity=0 time=120
note_on channel=0 note=70 velocity=52 time=0
note_on channel=0 note=70 velocity=0 time=120
note_on channel=0 note=58 velocity=0 time=0
note_on channel=0 note=72 velocity=0 time=0
note_on channel=0 note=48 velocity=0 time=0
note_on channel=0 note=55 velocity=0 time=0
note_on channel=0 note=72 velocity=56 time=0
note_on channel=0 note=60 velocity=52 time=120
note_on channel=0 note=60 velocity=0 time=120
note_on channel=0 note=64 velocity=52 time=0
note_on channel=0 note=64 velocity=0 time=0
note_on channel=0 note=67 velocity=52 time=0
note_on channel=0 note=55 velocity=53 time=0
note_on channel=0 note=52 velocity=53 time=0
note_on channel=0 note=52 velocity=0 time=0
note_on channel=0 note=72 velocity=0 time=0
note_on channel=0 note=67 velocity=0 time=0
note_on channel=0 note=55 velocity=0 time=0
note_on channel=0 note=60 velocity=59 time=0
note_on channel=0 note=65 velocity=59 time=0
note_on channel=0 note=68 velocity=59 time=0
note_on channel=0 note=72 velocity=59 time=0
note_on channel=0 note=53 velocity=56 time=0
control_change channel=0 control=64 value=0 time=18
control_change channel=0 control=64 value=127 time=81
note_on channel=0 note=53 velocity=0 time=21
note_on channel=0 note=60 velocity=49 time=0
note_on channel=0 note=60 velocity=0 time=120
note_on channel=0 note=56 velocity=49 time=0
note_on channel=0 note=56 velocity=0 time=120
note_on channel=0 note=53 velocity=49 time=0
note_on channel=0 note=53 velocity=0 time=120
note_on channel=0 note=72 velocity=0 time=0
note_on channel=0 note=60 velocity=0 time=0
note_on channel=0 note=65 velocity=0 time=0
note_on channel=0 note=68 velocity=0 time=0
note_on channel=0 note=48 velocity=53 time=0
note_on channel=0 note=48 velocity=0 time=120
note_on channel=0 note=56 velocity=49 time=0
note_on channel=0 note=56 velocity=0 time=120
note_on channel=0 note=53 velocity=49 time=0
note_on channel=0 note=53 velocity=0 time=0
note_on channel=0 note=80 velocity=69 time=0
note_on channel=0 note=77 velocity=69 time=0
note_on channel=0 note=48 velocity=49 time=0
note_on channel=0 note=48 velocity=0 time=0
note_on channel=0 note=77 velocity=0 time=0
note_on channel=0 note=80 velocity=0 time=0
note_on channel=0 note=80 velocity=74 time=0
note_on channel=0 note=77 velocity=74 time=0
note_on channel=0 note=44 velocity=53 time=0
control_change channel=0 control=64 value=0 time=13
control_change channel=0 control=64 value=127 time=86
note_on channel=0 note=44 velocity=0 time=21
note_on channel=0 note=53 velocity=49 time=0
note_on channel=0 note=53 velocity=0 time=120
note_on channel=0 note=48 velocity=49 time=0
note_on channel=0 note=48 velocity=0 time=120
note_on channel=0 note=44 velocity=49 time=0
note_on channel=0 note=44 velocity=0 time=120
note_on channel=0 note=77 velocity=0 time=0
note_on channel=0 note=80 velocity=0 time=0
note_on channel=0 note=41 velocity=53 time=0
note_on channel=0 note=41 velocity=0 time=120
note_on channel=0 note=48 velocity=49 time=0
note_on channel=0 note=48 velocity=0 time=120
note_on channel=0 note=44 velocity=49 time=0
note_on channel=0 note=44 velocity=0 time=0
note_on channel=0 note=80 velocity=70 time=0
note_on channel=0 note=77 velocity=70 time=0
note_on channel=0 note=41 velocity=49 time=0
note_on channel=0 note=41 velocity=0 time=0
note_on channel=0 note=77 velocity=0 time=0
note_on channel=0 note=80 velocity=0 time=0
note_on channel=0 note=80 velocity=75 time=0
note_on channel=0 note=77 velocity=75 time=0
note_on channel=0 note=36 velocity=53 time=0
control_change channel=0 control=64 value=0 time=12
control_change channel=0 control=64 value=127 time=57
note_on channel=0 note=36 velocity=0 time=51
note_on channel=0 note=41 velocity=49 time=0
note_on channel=0 note=41 velocity=0 time=120
note_on channel=0 note=44 velocity=49 time=0
note_on channel=0 note=44 velocity=0 time=120
note_on channel=0 note=48 velocity=49 time=0
note_on channel=0 note=48 velocity=0 time=120
note_on channel=0 note=47 velocity=53 time=0
control_change channel=0 control=64 value=0 time=12
control_change channel=0 control=64 value=127 time=74
note_on channel=0 note=47 velocity=0 time=34
note_on channel=0 note=48 velocity=49 time=0
note_on channel=0 note=48 velocity=0 time=120
note_on channel=0 note=47 velocity=49 time=0
note_on channel=0 note=47 velocity=0 time=120
note_on channel=0 note=48 velocity=49 time=0
note_on channel=0 note=48 velocity=0 time=120
note_on channel=0 note=77 velocity=0 time=0
note_on channel=0 note=80 velocity=0 time=0
note_on channel=0 note=79 velocity=68 time=0
note_on channel=0 note=76 velocity=68 time=0
note_on channel=0 note=47 velocity=53 time=0
control_change channel=0 control=64 value=0 time=12
control_change channel=0 control=64 value=127 time=63
note_on channel=0 note=47 velocity=0 time=45
note_on channel=0 note=48 velocity=49 time=0
note_on channel=0 note=48 velocity=0 time=120
note_on channel=0 note=76 velocity=0 time=0
note_on channel=0 note=79 velocity=0 time=0
note_on channel=0 note=43 velocity=49 time=0
note_on channel=0 note=43 velocity=0 time=120
note_on channel=0 note=48 velocity=49 time=0
note_on channel=0 note=48 velocity=0 time=120
note_on channel=0 note=40 velocity=53 time=0
note_on channel=0 note=40 velocity=0 time=120
note_on channel=0 note=48 velocity=49 time=0
note_on channel=0 note=48 velocity=0 time=120
note_on channel=0 note=43 velocity=49 time=0
note_on channel=0 note=43 velocity=0 time=120
note_on channel=0 note=48 velocity=49 time=0
note_on channel=0 note=48 velocity=0 time=0
note_on channel=0 note=36 velocity=56 time=0
control_change channel=0 control=64 value=0 time=19
control_change channel=0 control=64 value=127 time=61
note_on channel=0 note=36 velocity=0 time=40
note_on channel=0 note=40 velocity=49 time=0
note_on channel=0 note=40 velocity=0 time=120
note_on channel=0 note=43 velocity=49 time=0
note_on channel=0 note=43 velocity=0 time=120
note_on channel=0 note=48 velocity=49 time=0
note_on channel=0 note=48 velocity=0 time=120
note_on channel=0 note=40 velocity=53 time=0
note_on channel=0 note=40 velocity=0 time=120
note_on channel=0 note=43 velocity=49 time=0
note_on channel=0 note=43 velocity=0 time=120
note_on channel=0 note=48 velocity=49 time=0
note_on channel=0 note=48 velocity=0 time=0
note_on channel=0 note=82 velocity=75 time=0
note_on channel=0 note=79 velocity=75 time=0
note_on channel=0 note=52 velocity=49 time=0
note_on channel=0 note=52 velocity=0 time=0
note_on channel=0 note=79 velocity=0 time=0
note_on channel=0 note=82 velocity=0 time=0
note_on channel=0 note=82 velocity=81 time=0
note_on channel=0 note=79 velocity=81 time=0
note_on channel=0 note=43 velocity=53 time=0
control_change channel=0 control=64 value=0 time=10
control_change channel=0 control=64 value=127 time=65
note_on channel=0 note=43 velocity=0 time=45
note_on channel=0 note=48 velocity=49 time=0
note_on channel=0 note=48 velocity=0 time=120
note_on channel=0 note=52 velocity=49 time=0
note_on channel=0 note=52 velocity=0 time=120
note_on channel=0 note=55 velocity=49 time=0
note_on channel=0 note=55 velocity=0 time=120
note_on channel=0 note=79 velocity=0 time=0
note_on channel=0 note=82 velocity=0 time=0
note_on channel=0 note=48 velocity=53 time=0
note_on channel=0 note=48 velocity=0 time=120
note_on channel=0 note=52 velocity=49 time=0
note_on channel=0 note=52 velocity=0 time=120
note_on channel=0 note=55 velocity=49 time=0
note_on channel=0 note=55 velocity=0 time=0
note_on channel=0 note=82 velocity=77 time=0
note_on channel=0 note=79 velocity=77 time=0
note_on channel=0 note=60 velocity=49 time=0
note_on channel=0 note=60 velocity=0 time=0
note_on channel=0 note=79 velocity=0 time=0
note_on channel=0 note=82 velocity=0 time=0
note_on channel=0 note=82 velocity=82 time=0
note_on channel=0 note=79 velocity=82 time=0
note_on channel=0 note=53 velocity=59 time=0
control_change channel=0 control=64 value=0 time=19
control_change channel=0 control=64 value=127 time=44
note_on channel=0 note=53 velocity=0 time=57
note_on channel=0 note=56 velocity=49 time=0
note_on channel=0 note=56 velocity=0 time=120
note_on channel=0 note=60 velocity=49 time=0
note_on channel=0 note=60 velocity=0 time=120
note_on channel=0 note=65 velocity=49 time=0
note_on channel=0 note=65 velocity=0 time=120
note_on channel=0 note=64 velocity=53 time=0
control_change channel=0 control=64 value=0 time=12
control_change channel=0 control=64 value=127 time=74
note_on channel=0 note=64 velocity=0 time=34
note_on channel=0 note=65 velocity=49 time=0
note_on channel=0 note=65 velocity=0 time=120
note_on channel=0 note=64 velocity=49 time=0
note_on channel=0 note=64 velocity=0 time=120
note_on channel=0 note=65 velocity=49 time=0
note_on channel=0 note=65 velocity=0 time=120
note_on channel=0 note=79 velocity=0 time=0
note_on channel=0 note=82 velocity=0 time=0
note_on channel=0 note=80 velocity=74 time=0
note_on channel=0 note=77 velocity=74 time=0
note_on channel=0 note=64 velocity=53 time=0
control_change channel=0 control=64 value=0 time=12
control_change channel=0 control=64 value=127 time=68
note_on channel=0 note=64 velocity=0 time=40
note_on channel=0 note=65 velocity=49 time=0
note_on channel=0 note=65 velocity=0 time=120
note_on channel=0 note=77 velocity=0 time=0
note_on channel=0 note=80 velocity=0 time=0
note_on channel=0 note=60 velocity=49 time=0
note_on channel=0 note=60 velocity=0 time=120
note_on channel=0 note=65 velocity=49 time=0
note_on channel=0 note=65 velocity=0 time=120
note_on channel=0 note=56 velocity=53 time=0
note_on channel=0 note=56 velocity=0 time=120
note_on channel=0 note=65 velocity=49 time=0
note_on channel=0 note=65 velocity=0 time=120
note_on channel=0 note=60 velocity=49 time=0
note_on channel=0 note=60 velocity=0 time=120
note_on channel=0 note=65 velocity=49 time=0
note_on channel=0 note=65 velocity=0 time=0
note_on channel=0 note=53 velocity=61 time=0
control_change channel=0 control=64 value=0 time=14
control_change channel=0 control=64 value=127 time=72
note_on channel=0 note=53 velocity=0 time=34
note_on channel=0 note=57 velocity=53 time=0
note_on channel=0 note=57 velocity=0 time=120
note_on channel=0 note=60 velocity=53 time=0
note_on channel=0 note=60 velocity=0 time=120
note_on channel=0 note=65 velocity=53 time=0
note_on channel=0 note=65 velocity=0 time=120
note_on channel=0 note=57 velocity=58 time=0
note_on channel=0 note=57 velocity=0 time=120
note_on channel=0 note=60 velocity=53 time=0
note_on channel=0 note=60 velocity=0 time=120
note_on channel=0 note=65 velocity=53 time=0
note_on channel=0 note=65 velocity=0 time=0
note_on channel=0 note=87 velocity=82 time=0
note_on channel=0 note=84 velocity=82 time=0
note_on channel=0 note=69 velocity=53 time=0
note_on channel=0 note=69 velocity=0 time=0
note_on channel=0 note=84 velocity=0 time=0
note_on channel=0 note=87 velocity=0 time=0
note_on channel=0 note=87 velocity=89 time=0
note_on channel=0 note=84 velocity=89 time=0
note_on channel=0 note=60 velocity=58 time=0
control_change channel=0 control=64 value=0 time=12
control_change channel=0 control=64 value=127 time=40
note_on channel=0 note=60 velocity=0 time=68
note_on channel=0 note=65 velocity=53 time=0
note_on channel=0 note=65 velocity=0 time=120
note_on channel=0 note=69 velocity=53 time=0
note_on channel=0 note=69 velocity=0 time=120
note_on channel=0 note=72 velocity=53 time=0
note_on channel=0 note=72 velocity=0 time=120
note_on channel=0 note=84 velocity=0 time=0
note_on channel=0 note=87 velocity=0 time=0
note_on channel=0 note=65 velocity=58 time=0
note_on channel=0 note=65 velocity=0 time=120
note_on channel=0 note=69 velocity=53 time=0
note_on channel=0 note=69 velocity=0 time=120
note_on channel=0 note=72 velocity=53 time=0
note_on channel=0 note=72 velocity=0 time=0
note_on channel=0 note=87 velocity=84 time=0
note_on channel=0 note=84 velocity=84 time=0
note_on channel=0 note=77 velocity=53 time=0
note_on channel=0 note=77 velocity=0 time=0
note_on channel=0 note=84 velocity=0 time=0
note_on channel=0 note=87 velocity=0 time=0
note_on channel=0 note=87 velocity=90 time=0
note_on channel=0 note=84 velocity=90 time=0
note_on channel=0 note=69 velocity=67 time=0
control_change channel=0 control=64 value=0 time=12
control_change channel=0 control=64 value=127 time=57
note_on channel=0 note=69 velocity=0 time=51
note_on channel=0 note=77 velocity=53 time=0
note_on channel=0 note=77 velocity=0 time=120
note_on channel=0 note=76 velocity=53 time=0
note_on channel=0 note=76 velocity=0 time=120
note_on channel=0 note=77 velocity=53 time=0
note_on channel=0 note=77 velocity=0 time=120
note_on channel=0 note=69 velocity=58 time=0
note_on channel=0 note=69 velocity=0 time=120
note_on channel=0 note=77 velocity=53 time=0
note_on channel=0 note=77 velocity=0 time=120
note_on channel=0 note=69 velocity=53 time=0
note_on channel=0 note=69 velocity=0 time=120
note_on channel=0 note=77 velocity=53 time=0
note_on channel=0 note=77 velocity=0 time=120
note_on channel=0 note=69 velocity=57 time=0
control_change channel=0 control=64 value=0 time=17
control_change channel=0 control=64 value=127 time=63
note_on channel=0 note=69 velocity=0 time=40
note_on channel=0 note=77 velocity=56 time=0
note_on channel=0 note=77 velocity=0 time=0
note_on channel=0 note=84 velocity=0 time=0
note_on channel=0 note=87 velocity=0 time=0
note_on channel=0 note=85 velocity=79 time=0
note_on channel=0 note=82 velocity=79 time=0
note_on channel=0 note=70 velocity=56 time=0
note_on channel=0 note=70 velocity=0 time=120
note_on channel=0 note=77 velocity=55 time=0
note_on channel=0 note=77 velocity=0 time=120
note_on channel=0 note=82 velocity=0 time=0
note_on channel=0 note=85 velocity=0 time=0
note_on channel=0 note=84 velocity=77 time=0
note_on channel=0 note=80 velocity=77 time=0
note_on channel=0 note=72 velocity=54 time=0
note_on channel=0 note=72 velocity=0 time=120
note_on channel=0 note=77 velocity=53 time=0
note_on channel=0 note=77 velocity=0 time=120
note_on channel=0 note=80 velocity=0 time=0
note_on channel=0 note=84 velocity=0 time=0
note_on channel=0 note=82 velocity=73 time=0
note_on channel=0 note=79 velocity=73 time=0
note_on channel=0 note=73 velocity=52 time=0
note_on channel=0 note=73 velocity=0 time=120
note_on channel=0 note=77 velocity=52 time=0
note_on channel=0 note=77 velocity=0 time=0
note_on channel=0 note=79 velocity=0 time=0
note_on channel=0 note=82 velocity=0 time=0
note_on channel=0 note=80 velocity=82 time=0
note_on channel=0 note=77 velocity=82 time=0
note_on channel=0 note=60 velocity=52 time=0
control_change channel=0 control=64 value=0 time=12
control_change channel=0 control=64 value=127 time=63
note_on channel=0 note=60 velocity=0 time=45
note_on channel=0 note=65 velocity=47 time=0
note_on channel=0 note=65 velocity=0 time=120
note_on channel=0 note=68 velocity=47 time=0
note_on channel=0 note=68 velocity=0 time=120
note_on channel=0 note=72 velocity=47 time=0
note_on channel=0 note=72 velocity=0 time=120
note_on channel=0 note=77 velocity=0 time=0
note_on channel=0 note=80 velocity=0 time=0
note_on channel=0 note=71 velocity=52 time=0
note_on channel=0 note=71 velocity=0 time=120
note_on channel=0 note=72 velocity=47 time=0
note_on channel=0 note=72 velocity=0 time=120
note_on channel=0 note=71 velocity=47 time=0
note_on channel=0 note=71 velocity=0 time=0
note_on channel=0 note=89 velocity=79 time=0
note_on channel=0 note=80 velocity=79 time=0
note_on channel=0 note=77 velocity=79 time=0
note_on channel=0 note=72 velocity=47 time=0
note_on channel=0 note=72 velocity=0 time=0
note_on channel=0 note=89 velocity=0 time=0
note_on channel=0 note=80 velocity=0 time=0
note_on channel=0 note=77 velocity=0 time=0
note_on channel=0 note=91 velocity=82 time=0
note_on channel=0 note=82 velocity=82 time=0
note_on channel=0 note=79 velocity=82 time=0
note_on channel=0 note=60 velocity=52 time=0
control_change channel=0 control=64 value=0 time=17
control_change channel=0 control=64 value=127 time=69
note_on channel=0 note=60 velocity=0 time=34
note_on channel=0 note=64 velocity=47 time=0
note_on channel=0 note=64 velocity=0 time=120
note_on channel=0 note=67 velocity=47 time=0
note_on channel=0 note=67 velocity=0 time=120
note_on channel=0 note=72 velocity=47 time=0
note_on channel=0 note=72 velocity=0 time=120
note_on channel=0 note=79 velocity=0 time=0
note_on channel=0 note=82 velocity=0 time=0
note_on channel=0 note=91 velocity=0 time=0
note_on channel=0 note=60 velocity=52 time=0
note_on channel=0 note=60 velocity=0 time=120
note_on channel=0 note=67 velocity=47 time=0
note_on channel=0 note=67 velocity=0 time=120
note_on channel=0 note=70 velocity=47 time=0
note_on channel=0 note=70 velocity=0 time=0
note_on channel=0 note=88 velocity=79 time=0
note_on channel=0 note=79 velocity=79 time=0
note_on channel=0 note=76 velocity=79 time=0
note_on channel=0 note=72 velocity=47 time=0
note_on channel=0 note=72 velocity=0 time=0
note_on channel=0 note=88 velocity=0 time=0
note_on channel=0 note=79 velocity=0 time=0
note_on channel=0 note=76 velocity=0 time=0
note_on channel=0 note=89 velocity=73 time=0
note_on channel=0 note=80 velocity=73 time=0
note_on channel=0 note=77 velocity=73 time=0
note_on channel=0 note=53 velocity=52 time=0
control_change channel=0 control=64 value=0 time=11
control_change channel=0 control=64 value=127 time=95
note_on channel=0 note=53 velocity=0 time=0
note_on channel=0 note=89 velocity=0 time=0
note_on channel=0 note=80 velocity=0 time=0
note_on channel=0 note=77 velocity=0 time=0
note_on channel=0 note=72 velocity=61 time=0
note_on channel=0 note=65 velocity=38 time=0
note_on channel=0 note=68 velocity=38 time=0
note_on channel=0 note=68 velocity=0 time=20
note_on channel=0 note=65 velocity=0 time=0
note_on channel=0 note=72 velocity=0 time=0
note_on channel=0 note=77 velocity=62 time=0
note_on channel=0 note=60 velocity=39 time=0
note_on channel=0 note=72 velocity=39 time=0
note_on channel=0 note=72 velocity=0 time=40
note_on channel=0 note=60 velocity=0 time=0
note_on channel=0 note=77 velocity=0 time=0
note_on channel=0 note=80 velocity=63 time=0
note_on channel=0 note=68 velocity=41 time=0
note_on channel=0 note=65 velocity=41 time=0
note_on channel=0 note=65 velocity=0 time=40
note_on channel=0 note=68 velocity=0 time=0
note_on channel=0 note=80 velocity=0 time=0
note_on channel=0 note=84 velocity=68 time=0
note_on channel=0 note=72 velocity=45 time=0
note_on channel=0 note=60 velocity=45 time=0
note_on channel=0 note=60 velocity=0 time=60
note_on channel=0 note=72 velocity=0 time=0
note_on channel=0 note=84 velocity=0 time=0
note_on channel=0 note=85 velocity=65 time=0
note_on channel=0 note=65 velocity=44 time=0
note_on channel=0 note=68 velocity=44 time=0
note_on channel=0 note=68 velocity=0 time=80
note_on channel=0 note=65 velocity=0 time=0
note_on channel=0 note=85 velocity=0 time=0
note_on channel=0 note=84 velocity=66 time=0
note_on channel=0 note=72 velocity=45 time=0
note_on channel=0 note=60 velocity=45 time=0
note_on channel=0 note=60 velocity=0 time=80
note_on channel=0 note=72 velocity=0 time=0
note_on channel=0 note=84 velocity=0 time=0
note_on channel=0 note=82 velocity=65 time=0
note_on channel=0 note=65 velocity=45 time=0
note_on channel=0 note=68 velocity=45 time=0
note_on channel=0 note=68 velocity=0 time=0
note_on channel=0 note=65 velocity=0 time=0
note_on channel=0 note=82 velocity=0 time=0
note_on channel=0 note=80 velocity=68 time=0
note_on channel=0 note=60 velocity=46 time=0
note_on channel=0 note=72 velocity=46 time=0
control_change channel=0 control=64 value=0 time=17
control_change channel=0 control=64 value=127 time=18
note_on channel=0 note=72 velocity=0 time=0
note_on channel=0 note=60 velocity=0 time=0
note_on channel=0 note=80 velocity=0 time=0
note_on channel=0 note=82 velocity=67 time=0
note_on channel=0 note=65 velocity=46 time=0
note_on channel=0 note=68 velocity=46 time=0
note_on channel=0 note=68 velocity=0 time=20
note_on channel=0 note=65 velocity=0 time=0
note_on channel=0 note=82 velocity=0 time=0
note_on channel=0 note=80 velocity=66 time=0
note_on channel=0 note=60 velocity=45 time=0
note_on channel=0 note=72 velocity=45 time=0
note_on channel=0 note=72 velocity=0 time=20
note_on channel=0 note=60 velocity=0 time=0
note_on channel=0 note=80 velocity=0 time=0
note_on channel=0 note=79 velocity=65 time=0
note_on channel=0 note=68 velocity=45 time=0
note_on channel=0 note=65 velocity=45 time=0
note_on channel=0 note=65 velocity=0 time=40
note_on channel=0 note=68 velocity=0 time=0
note_on channel=0 note=79 velocity=0 time=0
note_on channel=0 note=77 velocity=64 time=0
note_on channel=0 note=72 velocity=45 time=0
note_on channel=0 note=60 velocity=45 time=0
note_on channel=0 note=60 velocity=0 time=0
note_on channel=0 note=72 velocity=0 time=0
note_on channel=0 note=77 velocity=0 time=0
note_on channel=0 note=79 velocity=63 time=0
note_on channel=0 note=65 velocity=44 time=0
note_on channel=0 note=68 velocity=44 time=0
note_on channel=0 note=68 velocity=0 time=20
note_on channel=0 note=65 velocity=0 time=0
note_on channel=0 note=79 velocity=0 time=0
note_on channel=0 note=80 velocity=63 time=0
note_on channel=0 note=72 velocity=44 time=0
note_on channel=0 note=60 velocity=44 time=0
note_on channel=0 note=60 velocity=0 time=20
note_on channel=0 note=72 velocity=0 time=0
note_on channel=0 note=80 velocity=0 time=0
note_on channel=0 note=77 velocity=62 time=0
note_on channel=0 note=65 velocity=43 time=0
note_on channel=0 note=68 velocity=43 time=0
note_on channel=0 note=68 velocity=0 time=0
note_on channel=0 note=65 velocity=0 time=0
note_on channel=0 note=77 velocity=0 time=0
note_on channel=0 note=53 velocity=54 time=0
control_change channel=0 control=64 value=0 time=9
control_change channel=0 control=64 value=127 time=5
note_on channel=0 note=53 velocity=0 time=35
note_on channel=0 note=72 velocity=61 time=0
note_on channel=0 note=65 velocity=38 time=0
note_on channel=0 note=68 velocity=38 time=0
note_on channel=0 note=68 velocity=0 time=60
note_on channel=0 note=65 velocity=0 time=0
note_on channel=0 note=72 velocity=0 time=0
note_on channel=0 note=77 velocity=62 time=0
note_on channel=0 note=72 velocity=39 time=0
note_on channel=0 note=60 velocity=39 time=0
note_on channel=0 note=60 velocity=0 time=0
note_on channel=0 note=72 velocity=0 time=0
note_on channel=0 note=77 velocity=0 time=0
note_on channel=0 note=80 velocity=63 time=0
note_on channel=0 note=65 velocity=41 time=0
note_on channel=0 note=68 velocity=41 time=0
note_on channel=0 note=68 velocity=0 time=40
note_on channel=0 note=65 velocity=0 time=0
note_on channel=0 note=80 velocity=0 time=0
note_on channel=0 note=84 velocity=68 time=0
note_on channel=0 note=72 velocity=45 time=0
note_on channel=0 note=60 velocity=45 time=0
note_on channel=0 note=60 velocity=0 time=80
note_on channel=0 note=72 velocity=0 time=0
note_on channel=0 note=84 velocity=0 time=0
note_on channel=0 note=85 velocity=65 time=0
note_on channel=0 note=65 velocity=44 time=0
note_on channel=0 note=68 velocity=44 time=0
note_on channel=0 note=68 velocity=0 time=20
note_on channel=0 note=65 velocity=0 time=0
note_on channel=0 note=85 velocity=0 time=0
note_on channel=0 note=84 velocity=66 time=0
note_on channel=0 note=72 velocity=45 time=0
note_on channel=0 note=60 velocity=45 time=0
note_on channel=0 note=60 velocity=0 time=40
note_on channel=0 note=72 velocity=0 time=0
note_on channel=0 note=84 velocity=0 time=0
note_on channel=0 note=82 velocity=65 time=0
note_on channel=0 note=68 velocity=45 time=0
note_on channel=0 note=65 velocity=45 time=0
note_on channel=0 note=65 velocity=0 time=0
note_on channel=0 note=68 velocity=0 time=0
note_on channel=0 note=82 velocity=0 time=0
note_on channel=0 note=80 velocity=68 time=0
note_on channel=0 note=60 velocity=46 time=0
note_on channel=0 note=72 velocity=46 time=0
control_change channel=0 control=64 value=0 time=19
control_change channel=0 control=64 value=127 time=52
note_on channel=0 note=72 velocity=0 time=40
note_on channel=0 note=60 velocity=0 time=0
note_on channel=0 note=80 velocity=0 time=0
note_on channel=0 note=82 velocity=67 time=0
note_on channel=0 note=65 velocity=46 time=0
note_on channel=0 note=68 velocity=46 time=0
note_on channel=0 note=68 velocity=0 time=20
note_on channel=0 note=65 velocity=0 time=0
note_on channel=0 note=82 velocity=0 time=0
note_on channel=0 note=80 velocity=66 time=0
note_on channel=0 note=72 velocity=45 time=0
note_on channel=0 note=60 velocity=45 time=0
note_on channel=0 note=60 velocity=0 time=0
note_on channel=0 note=72 velocity=0 time=0
note_on channel=0 note=80 velocity=0 time=0
note_on channel=0 note=79 velocity=65 time=0
note_on channel=0 note=65 velocity=45 time=0
note_on channel=0 note=68 velocity=45 time=0
note_on channel=0 note=68 velocity=0 time=40
note_on channel=0 note=65 velocity=0 time=0
note_on channel=0 note=79 velocity=0 time=0
note_on channel=0 note=77 velocity=64 time=0
note_on channel=0 note=60 velocity=45 time=0
note_on channel=0 note=72 velocity=45 time=0
note_on channel=0 note=72 velocity=0 time=20
note_on channel=0 note=60 velocity=0 time=0
note_on channel=0 note=77 velocity=0 time=0
note_on channel=0 note=79 velocity=63 time=0
note_on channel=0 note=68 velocity=44 time=0
note_on channel=0 note=65 velocity=44 time=0
note_on channel=0 note=65 velocity=0 time=0
note_on channel=0 note=68 velocity=0 time=0
note_on channel=0 note=79 velocity=0 time=0
note_on channel=0 note=80 velocity=63 time=0
note_on channel=0 note=72 velocity=44 time=0
note_on channel=0 note=60 velocity=44 time=0
note_on channel=0 note=60 velocity=0 time=60
note_on channel=0 note=72 velocity=0 time=0
note_on channel=0 note=80 velocity=0 time=0
note_on channel=0 note=77 velocity=62 time=0
note_on channel=0 note=68 velocity=43 time=0
note_on channel=0 note=65 velocity=43 time=0
note_on channel=0 note=65 velocity=0 time=0
note_on channel=0 note=68 velocity=0 time=0
note_on channel=0 note=77 velocity=0 time=0
note_on channel=0 note=44 velocity=55 time=0
control_change channel=0 control=64 value=0 time=12
control_change channel=0 control=64 value=127 time=43
note_on channel=0 note=44 velocity=0 time=20
note_on channel=0 note=78 velocity=64 time=0
note_on channel=0 note=54 velocity=40 time=0
note_on channel=0 note=56 velocity=40 time=0
note_on channel=0 note=56 velocity=0 time=60
note_on channel=0 note=54 velocity=0 time=0
note_on channel=0 note=78 velocity=0 time=0
note_on channel=0 note=84 velocity=65 time=0
note_on channel=0 note=60 velocity=41 time=0
note_on channel=0 note=51 velocity=41 time=0
note_on channel=0 note=51 velocity=0 time=20
note_on channel=0 note=60 velocity=0 time=0
note_on channel=0 note=84 velocity=0 time=0
note_on channel=0 note=87 velocity=66 time=0
note_on channel=0 note=54 velocity=43 time=0
note_on channel=0 note=56 velocity=43 time=0
note_on channel=0 note=56 velocity=0 time=60
note_on channel=0 note=54 velocity=0 time=0
note_on channel=0 note=87 velocity=0 time=0
note_on channel=0 note=90 velocity=72 time=0
note_on channel=0 note=60 velocity=47 time=0
note_on channel=0 note=51 velocity=47 time=0
note_on channel=0 note=51 velocity=0 time=40
note_on channel=0 note=60 velocity=0 time=0
note_on channel=0 note=90 velocity=0 time=0
note_on channel=0 note=92 velocity=69 time=0
note_on channel=0 note=54 velocity=46 time=0
note_on channel=0 note=56 velocity=46 time=0
note_on channel=0 note=56 velocity=0 time=0
note_on channel=0 note=54 velocity=0 time=0
note_on channel=0 note=92 velocity=0 time=0
note_on channel=0 note=90 velocity=70 time=0
note_on channel=0 note=60 velocity=47 time=0
note_on channel=0 note=51 velocity=47 time=0
note_on channel=0 note=51 velocity=0 time=40
note_on channel=0 note=60 velocity=0 time=0
note_on channel=0 note=90 velocity=0 time=0
note_on channel=0 note=89 velocity=69 time=0
note_on channel=0 note=56 velocity=48 time=0
note_on channel=0 note=54 velocity=48 time=0
note_on channel=0 note=54 velocity=0 time=20
note_on channel=0 note=56 velocity=0 time=0
note_on channel=0 note=89 velocity=0 time=0
note_on channel=0 note=87 velocity=72 time=0
note_on channel=0 note=51 velocity=49 time=0
note_on channel=0 note=60 velocity=49 time=0
control_change channel=0 control=64 value=0 time=11
control_change channel=0 control=64 value=127 time=41
note_on channel=0 note=60 velocity=0 time=0
note_on channel=0 note=51 velocity=0 time=0
note_on channel=0 note=87 velocity=0 time=0
note_on channel=0 note=89 velocity=71 time=0
note_on channel=0 note=56 velocity=49 time=0
note_on channel=0 note=54 velocity=49 time=0
note_on channel=0 note=54 velocity=0 time=40
note_on channel=0 note=56 velocity=0 time=0
note_on channel=0 note=89 velocity=0 time=0
note_on channel=0 note=87 velocity=70 time=0
note_on channel=0 note=51 velocity=48 time=0
note_on channel=0 note=60 velocity=48 time=0
note_on channel=0 note=60 velocity=0 time=40
note_on channel=0 note=51 velocity=0 time=0
note_on channel=0 note=87 velocity=0 time=0
note_on channel=0 note=85 velocity=69 time=0
note_on channel=0 note=54 velocity=47 time=0
note_on channel=0 note=56 velocity=47 time=0
note_on channel=0 note=56 velocity=0 time=20
note_on channel=0 note=54 velocity=0 time=0
note_on channel=0 note=85 velocity=0 time=0
note_on channel=0 note=84 velocity=68 time=0
note_on channel=0 note=60 velocity=47 time=0
note_on channel=0 note=51 velocity=47 time=0
note_on channel=0 note=51 velocity=0 time=0
note_on channel=0 note=60 velocity=0 time=0
note_on channel=0 note=84 velocity=0 time=0
note_on channel=0 note=85 velocity=67 time=0
note_on channel=0 note=54 velocity=46 time=0
note_on channel=0 note=56 velocity=46 time=0
note_on channel=0 note=56 velocity=0 time=0
note_on channel=0 note=54 velocity=0 time=0
note_on channel=0 note=85 velocity=0 time=0
note_on channel=0 note=87 velocity=66 time=0
note_on channel=0 note=60 velocity=46 time=0
note_on channel=0 note=51 velocity=46 time=0
note_on channel=0 note=51 velocity=0 time=40
note_on channel=0 note=60 velocity=0 time=0
note_on channel=0 note=87 velocity=0 time=0
note_on channel=0 note=84 velocity=65 time=0
note_on channel=0 note=56 velocity=45 time=0
note_on channel=0 note=54 velocity=45 time=0
note_on channel=0 note=54 velocity=0 time=0
note_on channel=0 note=56 velocity=0 time=0
note_on channel=0 note=84 velocity=0 time=0
note_on channel=0 note=44 velocity=54 time=0
control_change channel=0 control=64 value=0 time=12
control_change channel=0 control=64 value=127 time=47
note_on channel=0 note=44 velocity=0 time=40
note_on channel=0 note=78 velocity=64 time=0
note_on channel=0 note=54 velocity=40 time=0
note_on channel=0 note=56 velocity=40 time=0
note_on channel=0 note=56 velocity=0 time=60
note_on channel=0 note=54 velocity=0 time=0
note_on channel=0 note=78 velocity=0 time=0
note_on channel=0 note=84 velocity=65 time=0
note_on channel=0 note=60 velocity=41 time=0
note_on channel=0 note=51 velocity=41 time=0
note_on channel=0 note=51 velocity=0 time=0
note_on channel=0 note=60 velocity=0 time=0
note_on channel=0 note=84 velocity=0 time=0
note_on channel=0 note=87 velocity=66 time=0
note_on channel=0 note=54 velocity=43 time=0
note_on channel=0 note=56 velocity=43 time=0
note_on channel=0 note=56 velocity=0 time=40
note_on channel=0 note=54 velocity=0 time=0
note_on channel=0 note=87 velocity=0 time=0
note_on channel=0 note=90 velocity=72 time=0
note_on channel=0 note=60 velocity=47 time=0
note_on channel=0 note=51 velocity=47 time=0
note_on channel=0 note=51 velocity=0 time=80
note_on channel=0 note=60 velocity=0 time=0
note_on channel=0 note=90 velocity=0 time=0
note_on channel=0 note=92 velocity=69 time=0
note_on channel=0 note=54 velocity=46 time=0
note_on channel=0 note=56 velocity=46 time=0
note_on channel=0 note=56 velocity=0 time=20
note_on channel=0 note=54 velocity=0 time=0
note_on channel=0 note=92 velocity=0 time=0
note_on channel=0 note=90 velocity=70 time=0
note_on channel=0 note=51 velocity=47 time=0
note_on channel=0 note=60 velocity=47 time=0
note_on channel=0 note=60 velocity=0 time=40
note_on channel=0 note=51 velocity=0 time=0
note_on channel=0 note=90 velocity=0 time=0
note_on channel=0 note=89 velocity=69 time=0
note_on channel=0 note=56 velocity=48 time=0
note_on channel=0 note=54 velocity=48 time=0
note_on channel=0 note=54 velocity=0 time=0
note_on channel=0 note=56 velocity=0 time=0
note_on channel=0 note=89 velocity=0 time=0
note_on channel=0 note=87 velocity=72 time=0
note_on channel=0 note=60 velocity=49 time=0
note_on channel=0 note=51 velocity=49 time=0
control_change channel=0 control=64 value=0 time=19
control_change channel=0 control=64 value=127 time=40
note_on channel=0 note=51 velocity=0 time=0
note_on channel=0 note=60 velocity=0 time=0
note_on channel=0 note=87 velocity=0 time=0
note_on channel=0 note=89 velocity=71 time=0
note_on channel=0 note=54 velocity=49 time=0
note_on channel=0 note=56 velocity=49 time=0
note_on channel=0 note=56 velocity=0 time=0
note_on channel=0 note=54 velocity=0 time=0
note_on channel=0 note=89 velocity=0 time=0
note_on channel=0 note=87 velocity=70 time=0
note_on channel=0 note=60 velocity=48 time=0
note_on channel=0 note=51 velocity=48 time=0
note_on channel=0 note=51 velocity=0 time=0
note_on channel=0 note=60 velocity=0 time=0
note_on channel=0 note=87 velocity=0 time=0
note_on channel=0 note=85 velocity=69 time=0
note_on channel=0 note=56 velocity=47 time=0
note_on channel=0 note=54 velocity=47 time=0
note_on channel=0 note=54 velocity=0 time=20
note_on channel=0 note=56 velocity=0 time=0
note_on channel=0 note=85 velocity=0 time=0
note_on channel=0 note=84 velocity=68 time=0
note_on channel=0 note=51 velocity=47 time=0
note_on channel=0 note=60 velocity=47 time=0
note_on channel=0 note=60 velocity=0 time=20
note_on channel=0 note=51 velocity=0 time=0
note_on channel=0 note=84 velocity=0 time=0
note_on channel=0 note=82 velocity=67 time=0
note_on channel=0 note=54 velocity=46 time=0
note_on channel=0 note=56 velocity=46 time=0
note_on channel=0 note=56 velocity=0 time=20
note_on channel=0 note=54 velocity=0 time=0
note_on channel=0 note=82 velocity=0 time=0
note_on channel=0 note=80 velocity=66 time=0
note_on channel=0 note=51 velocity=46 time=0
note_on channel=0 note=60 velocity=46 time=0
note_on channel=0 note=60 velocity=0 time=20
note_on channel=0 note=51 velocity=0 time=0
note_on channel=0 note=80 velocity=0 time=0
note_on channel=0 note=78 velocity=65 time=0
note_on channel=0 note=56 velocity=45 time=0
note_on channel=0 note=54 velocity=45 time=0
note_on channel=0 note=54 velocity=0 time=0
note_on channel=0 note=56 velocity=0 time=0
note_on channel=0 note=78 velocity=0 time=0
note_on channel=0 note=77 velocity=68 time=0
note_on channel=0 note=49 velocity=56 time=0
control_change channel=0 control=64 value=0 time=12
control_change channel=0 control=64 value=127 time=57
note_on channel=0 note=49 velocity=0 time=40
note_on channel=0 note=77 velocity=0 time=0
note_on channel=0 note=80 velocity=67 time=0
note_on channel=0 note=61 velocity=42 time=0
note_on channel=0 note=65 velocity=42 time=0
note_on channel=0 note=65 velocity=0 time=60
note_on channel=0 note=61 velocity=0 time=0
note_on channel=0 note=80 velocity=0 time=0
note_on channel=0 note=85 velocity=68 time=0
note_on channel=0 note=68 velocity=43 time=0
note_on channel=0 note=56 velocity=43 time=0
note_on channel=0 note=56 velocity=0 time=0
note_on channel=0 note=68 velocity=0 time=0
note_on channel=0 note=85 velocity=0 time=0
note_on channel=0 note=89 velocity=69 time=0
note_on channel=0 note=65 velocity=45 time=0
note_on channel=0 note=61 velocity=45 time=0
note_on channel=0 note=61 velocity=0 time=40
note_on channel=0 note=65 velocity=0 time=0
note_on channel=0 note=89 velocity=0 time=0
note_on channel=0 note=92 velocity=75 time=0
note_on channel=0 note=56 velocity=49 time=0
note_on channel=0 note=68 velocity=49 time=0
note_on channel=0 note=68 velocity=0 time=80
note_on channel=0 note=56 velocity=0 time=0
note_on channel=0 note=92 velocity=0 time=0
note_on channel=0 note=94 velocity=72 time=0
note_on channel=0 note=61 velocity=48 time=0
note_on channel=0 note=65 velocity=48 time=0
note_on channel=0 note=65 velocity=0 time=20
note_on channel=0 note=61 velocity=0 time=0
note_on channel=0 note=94 velocity=0 time=0
note_on channel=0 note=92 velocity=73 time=0
note_on channel=0 note=68 velocity=49 time=0
note_on channel=0 note=56 velocity=49 time=0
note_on channel=0 note=56 velocity=0 time=40
note_on channel=0 note=68 velocity=0 time=0
note_on channel=0 note=92 velocity=0 time=0
note_on channel=0 note=90 velocity=72 time=0
note_on channel=0 note=61 velocity=50 time=0
note_on channel=0 note=65 velocity=50 time=0
note_on channel=0 note=65 velocity=0 time=0
note_on channel=0 note=61 velocity=0 time=0
note_on channel=0 note=90 velocity=0 time=0
note_on channel=0 note=89 velocity=75 time=0
note_on channel=0 note=68 velocity=51 time=0
note_on channel=0 note=56 velocity=51 time=0
control_change channel=0 control=64 value=0 time=10
control_change channel=0 control=64 value=127 time=20
note_on channel=0 note=56 velocity=0 time=0
note_on channel=0 note=68 velocity=0 time=0
note_on channel=0 note=89 velocity=0 time=0
note_on channel=0 note=90 velocity=74 time=0
note_on channel=0 note=61 velocity=51 time=0
note_on channel=0 note=65 velocity=51 time=0
note_on channel=0 note=65 velocity=0 time=0
note_on channel=0 note=61 velocity=0 time=0
note_on channel=0 note=90 velocity=0 time=0
note_on channel=0 note=89 velocity=73 time=0
note_on channel=0 note=56 velocity=50 time=0
note_on channel=0 note=68 velocity=50 time=0
note_on channel=0 note=68 velocity=0 time=0
note_on channel=0 note=56 velocity=0 time=0
note_on channel=0 note=89 velocity=0 time=0
note_on channel=0 note=87 velocity=72 time=0
note_on channel=0 note=65 velocity=49 time=0
note_on channel=0 note=61 velocity=49 time=0
note_on channel=0 note=61 velocity=0 time=20
note_on channel=0 note=65 velocity=0 time=0
note_on channel=0 note=87 velocity=0 time=0
note_on channel=0 note=85 velocity=71 time=0
note_on channel=0 note=68 velocity=49 time=0
note_on channel=0 note=56 velocity=49 time=0
note_on channel=0 note=56 velocity=0 time=20
note_on channel=0 note=68 velocity=0 time=0
note_on channel=0 note=85 velocity=0 time=0
note_on channel=0 note=87 velocity=70 time=0
note_on channel=0 note=61 velocity=48 time=0
note_on channel=0 note=65 velocity=48 time=0
note_on channel=0 note=65 velocity=0 time=20
note_on channel=0 note=61 velocity=0 time=0
note_on channel=0 note=87 velocity=0 time=0
note_on channel=0 note=89 velocity=69 time=0
note_on channel=0 note=68 velocity=48 time=0
note_on channel=0 note=56 velocity=48 time=0
note_on channel=0 note=56 velocity=0 time=20
note_on channel=0 note=68 velocity=0 time=0
note_on channel=0 note=89 velocity=0 time=0
note_on channel=0 note=85 velocity=68 time=0
note_on channel=0 note=61 velocity=47 time=0
note_on channel=0 note=65 velocity=47 time=0
note_on channel=0 note=65 velocity=0 time=0
note_on channel=0 note=61 velocity=0 time=0
note_on channel=0 note=85 velocity=0 time=0
note_on channel=0 note=49 velocity=56 time=0
control_change channel=0 control=64 value=0 time=11
control_change channel=0 control=64 value=127 time=0
note_on channel=0 note=49 velocity=0 time=40
note_on channel=0 note=80 velocity=67 time=0
note_on channel=0 note=61 velocity=42 time=0
note_on channel=0 note=65 velocity=42 time=0
note_on channel=0 note=65 velocity=0 time=60
note_on channel=0 note=61 velocity=0 time=0
note_on channel=0 note=80 velocity=0 time=0
note_on channel=0 note=85 velocity=68 time=0
note_on channel=0 note=68 velocity=43 time=0
note_on channel=0 note=56 velocity=43 time=0
note_on channel=0 note=56 velocity=0 time=0
note_on channel=0 note=68 velocity=0 time=0
note_on channel=0 note=85 velocity=0 time=0
note_on channel=0 note=89 velocity=69 time=0
note_on channel=0 note=61 velocity=45 time=0
note_on channel=0 note=65 velocity=45 time=0
note_on channel=0 note=65 velocity=0 time=40
note_on channel=0 note=61 velocity=0 time=0
note_on channel=0 note=89 velocity=0 time=0
note_on channel=0 note=92 velocity=76 time=0
note_on channel=0 note=68 velocity=49 time=0
note_on channel=0 note=92 velocity=0 time=80
note_on channel=0 note=94 velocity=74 time=0
note_on channel=0 note=94 velocity=0 time=20
note_on channel=0 note=68 velocity=0 time=0
note_on channel=0 note=92 velocity=75 time=0
note_on channel=0 note=73 velocity=55 time=0
note_on channel=0 note=92 velocity=0 time=40
note_on channel=0 note=90 velocity=74 time=0
note_on channel=0 note=90 velocity=0 time=0
note_on channel=0 note=73 velocity=0 time=0
note_on channel=0 note=89 velocity=78 time=0
note_on channel=0 note=77 velocity=58 time=0
control_change channel=0 control=64 value=0 time=9
control_change channel=0 control=64 value=127 time=26
note_on channel=0 note=89 velocity=0 time=0
note_on channel=0 note=90 velocity=77 time=0
note_on channel=0 note=90 velocity=0 time=0
note_on channel=0 note=77 velocity=0 time=0
note_on channel=0 note=92 velocity=77 time=0
note_on channel=0 note=80 velocity=62 time=0
note_on channel=0 note=92 velocity=0 time=0
note_on channel=0 note=90 velocity=76 time=0
note_on channel=0 note=90 velocity=0 time=20
note_on channel=0 note=80 velocity=0 time=0
note_on channel=0 note=89 velocity=75 time=0
note_on channel=0 note=85 velocity=66 time=0
note_on channel=0 note=89 velocity=0 time=20
note_on channel=0 note=90 velocity=75 time=0
note_on channel=0 note=90 velocity=0 time=20
note_on channel=0 note=85 velocity=0 time=0
note_on channel=0 note=92 velocity=74 time=0
note_on channel=0 note=85 velocity=69 time=0
note_on channel=0 note=92 velocity=0 time=20
note_on channel=0 note=89 velocity=74 time=0
note_on channel=0 note=89 velocity=0 time=0
note_on channel=0 note=85 velocity=0 time=0
note_on channel=0 note=85 velocity=80 time=0
note_on channel=0 note=82 velocity=80 time=0
control_change channel=0 control=64 value=0 time=8
control_change channel=0 control=64 value=127 time=55
note_on channel=0 note=90 velocity=70 time=57
note_on channel=0 note=90 velocity=0 time=120
note_on channel=0 note=92 velocity=73 time=0
note_on channel=0 note=92 velocity=0 time=120
note_on channel=0 note=90 velocity=70 time=0
note_on channel=0 note=90 velocity=0 time=120
note_on channel=0 note=92 velocity=65 time=0
note_on channel=0 note=92 velocity=0 time=120
note_on channel=0 note=90 velocity=63 time=0
note_on channel=0 note=90 velocity=0 time=0
note_on channel=0 note=82 velocity=0 time=0
note_on channel=0 note=85 velocity=0 time=0
note_on channel=0 note=89 velocity=59 time=0
note_on channel=0 note=80 velocity=66 time=0
note_on channel=0 note=84 velocity=66 time=0
note_on channel=0 note=89 velocity=0 time=120
note_on channel=0 note=90 velocity=59 time=0
note_on channel=0 note=90 velocity=0 time=120
note_on channel=0 note=84 velocity=0 time=0
note_on channel=0 note=80 velocity=0 time=0
note_on channel=0 note=79 velocity=68 time=0
note_on channel=0 note=82 velocity=68 time=0
control_change channel=0 control=64 value=0 time=13
control_change channel=0 control=64 value=127 time=44
note_on channel=0 note=88 velocity=58 time=63
note_on channel=0 note=88 velocity=0 time=120
note_on channel=0 note=89 velocity=60 time=0
note_on channel=0 note=89 velocity=0 time=120
note_on channel=0 note=88 velocity=57 time=0
note_on channel=0 note=88 velocity=0 time=120
note_on channel=0 note=82 velocity=0 time=0
note_on channel=0 note=79 velocity=0 time=0
note_on channel=0 note=84 velocity=64 time=0
note_on channel=0 note=80 velocity=64 time=0
control_change channel=0 control=64 value=0 time=14
control_change channel=0 control=64 value=127 time=66
note_on channel=0 note=89 velocity=57 time=40
note_on channel=0 note=89 velocity=0 time=120
note_on channel=0 note=91 velocity=60 time=0
note_on channel=0 note=91 velocity=0 time=120
note_on channel=0 note=89 velocity=56 time=0
note_on channel=0 note=89 velocity=0 time=0
note_on channel=0 note=80 velocity=0 time=0
note_on channel=0 note=84 velocity=0 time=0
note_on channel=0 note=82 velocity=80 time=0
note_on channel=0 note=85 velocity=80 time=0
control_change channel=0 control=64 value=0 time=14
control_change channel=0 control=64 value=127 time=61
note_on channel=0 note=90 velocity=70 time=45
note_on channel=0 note=90 velocity=0 time=120
note_on channel=0 note=92 velocity=73 time=0
note_on channel=0 note=92 velocity=0 time=120
note_on channel=0 note=90 velocity=70 time=0
note_on channel=0 note=90 velocity=0 time=120
note_on channel=0 note=92 velocity=65 time=0
note_on channel=0 note=92 velocity=0 time=120
note_on channel=0 note=90 velocity=63 time=0
note_on channel=0 note=90 velocity=0 time=0
note_on channel=0 note=85 velocity=0 time=0
note_on channel=0 note=82 velocity=0 time=0
note_on channel=0 note=89 velocity=59 time=0
note_on channel=0 note=84 velocity=66 time=0
note_on channel=0 note=80 velocity=66 time=0
note_on channel=0 note=89 velocity=0 time=120
note_on channel=0 note=90 velocity=59 time=0
note_on channel=0 note=90 velocity=0 time=120
note_on channel=0 note=80 velocity=0 time=0
note_on channel=0 note=84 velocity=0 time=0
note_on channel=0 note=79 velocity=68 time=0
note_on channel=0 note=82 velocity=68 time=0
control_change channel=0 control=64 value=0 time=14
control_change channel=0 control=64 value=127 time=49
note_on channel=0 note=88 velocity=58 time=57
note_on channel=0 note=88 velocity=0 time=120
note_on channel=0 note=89 velocity=60 time=0
note_on channel=0 note=89 velocity=0 time=120
note_on channel=0 note=88 velocity=57 time=0
note_on channel=0 note=88 velocity=0 time=120
note_on channel=0 note=82 velocity=0 time=0
note_on channel=0 note=79 velocity=0 time=0
note_on channel=0 note=80 velocity=64 time=0
note_on channel=0 note=84 velocity=64 time=0
control_change channel=0 control=64 value=0 time=19
control_change channel=0 control=64 value=127 time=38
note_on channel=0 note=89 velocity=57 time=63
note_on channel=0 note=89 velocity=0 time=120
note_on channel=0 note=91 velocity=60 time=0
note_on channel=0 note=91 velocity=0 time=120
note_on channel=0 note=89 velocity=56 time=0
note_on channel=0 note=89 velocity=0 time=0
note_on channel=0 note=84 velocity=0 time=0
note_on channel=0 note=80 velocity=0 time=0
note_on channel=0 note=85 velocity=80 time=0
note_on channel=0 note=82 velocity=80 time=0
control_change channel=0 control=64 value=0 time=8
control_change channel=0 control=64 value=127 time=49
note_on channel=0 note=90 velocity=70 time=63
note_on channel=0 note=90 velocity=0 time=120
note_on channel=0 note=92 velocity=73 time=0
note_on channel=0 note=92 velocity=0 time=120
note_on channel=0 note=90 velocity=70 time=0
note_on channel=0 note=90 velocity=0 time=120
note_on channel=0 note=92 velocity=73 time=0
note_on channel=0 note=92 velocity=0 time=120
note_on channel=0 note=90 velocity=70 time=0
note_on channel=0 note=90 velocity=0 time=0
note_on channel=0 note=82 velocity=0 time=0
note_on channel=0 note=85 velocity=0 time=0
note_on channel=0 note=89 velocity=59 time=0
note_on channel=0 note=84 velocity=66 time=0
note_on channel=0 note=80 velocity=66 time=0
note_on channel=0 note=89 velocity=0 time=120
note_on channel=0 note=91 velocity=59 time=0
note_on channel=0 note=91 velocity=0 time=120
note_on channel=0 note=80 velocity=0 time=0
note_on channel=0 note=84 velocity=0 time=0
note_on channel=0 note=79 velocity=68 time=0
note_on channel=0 note=82 velocity=68 time=0
control_change channel=0 control=64 value=0 time=12
control_change channel=0 control=64 value=127 time=45
note_on channel=0 note=88 velocity=58 time=63
note_on channel=0 note=88 velocity=0 time=120
note_on channel=0 note=89 velocity=60 time=0
note_on channel=0 note=89 velocity=0 time=120
note_on channel=0 note=88 velocity=58 time=0
note_on channel=0 note=88 velocity=0 time=120
note_on channel=0 note=82 velocity=0 time=0
note_on channel=0 note=79 velocity=0 time=0
note_on channel=0 note=80 velocity=65 time=0
note_on channel=0 note=77 velocity=65 time=0
control_change channel=0 control=64 value=0 time=16
control_change channel=0 control=64 value=127 time=70
note_on channel=0 note=85 velocity=58 time=34
note_on channel=0 note=85 velocity=0 time=120
note_on channel=0 note=87 velocity=61 time=0
note_on channel=0 note=87 velocity=0 time=120
note_on channel=0 note=85 velocity=57 time=0
note_on channel=0 note=85 velocity=0 time=120
note_on channel=0 note=77 velocity=0 time=0
note_on channel=0 note=80 velocity=0 time=0
note_on channel=0 note=76 velocity=70 time=0
note_on channel=0 note=79 velocity=70 time=0
control_change channel=0 control=64 value=0 time=13
control_change channel=0 control=64 value=127 time=56
note_on channel=0 note=84 velocity=60 time=51
note_on channel=0 note=84 velocity=0 time=120
note_on channel=0 note=85 velocity=62 time=0
note_on channel=0 note=85 velocity=0 time=120
note_on channel=0 note=84 velocity=60 time=0
note_on channel=0 note=84 velocity=0 time=120
note_on channel=0 note=79 velocity=0 time=0
note_on channel=0 note=76 velocity=0 time=0
note_on channel=0 note=77 velocity=70 time=0
note_on channel=0 note=74 velocity=70 time=0
control_change channel=0 control=64 value=0 time=18
control_change channel=0 control=64 value=127 time=62
note_on channel=0 note=83 velocity=61 time=40
note_on channel=0 note=83 velocity=0 time=120
note_on channel=0 note=84 velocity=65 time=0
note_on channel=0 note=84 velocity=0 time=120
note_on channel=0 note=83 velocity=62 time=0
note_on channel=0 note=83 velocity=0 time=120
note_on channel=0 note=74 velocity=0 time=0
note_on channel=0 note=77 velocity=0 time=0
note_on channel=0 note=77 velocity=75 time=0
note_on channel=0 note=73 velocity=75 time=0
control_change channel=0 control=64 value=0 time=18
control_change channel=0 control=64 value=127 time=74
note_on channel=0 note=82 velocity=65 time=28
note_on channel=0 note=82 velocity=0 time=120
note_on channel=0 note=84 velocity=67 time=0
note_on channel=0 note=84 velocity=0 time=120
note_on channel=0 note=82 velocity=64 time=0
note_on channel=0 note=82 velocity=0 time=120
note_on channel=0 note=73 velocity=0 time=0
note_on channel=0 note=77 velocity=0 time=0
note_on channel=0 note=72 velocity=75 time=0
note_on channel=0 note=77 velocity=75 time=0
control_change channel=0 control=64 value=0 time=19
note_on channel=0 note=80 velocity=66 time=101
control_change channel=0 control=64 value=127 time=0
note_on channel=0 note=80 velocity=0 time=120
note_on channel=0 note=82 velocity=69 time=0
note_on channel=0 note=82 velocity=0 time=120
note_on channel=0 note=80 velocity=67 time=0
note_on channel=0 note=80 velocity=0 time=120
note_on channel=0 note=77 velocity=0 time=0
note_on channel=0 note=72 velocity=0 time=0
note_on channel=0 note=71 velocity=76 time=0
control_change channel=0 control=64 value=0 time=10
control_change channel=0 control=64 value=127 time=82
note_on channel=0 note=80 velocity=67 time=28
note_on channel=0 note=80 velocity=0 time=120
note_on channel=0 note=82 velocity=70 time=0
note_on channel=0 note=82 velocity=0 time=120
note_on channel=0 note=80 velocity=68 time=0
note_on channel=0 note=80 velocity=0 time=120
note_on channel=0 note=74 velocity=75 time=0
control_change channel=0 control=64 value=0 time=15
control_change channel=0 control=64 value=127 time=49
note_on channel=0 note=79 velocity=66 time=56
note_on channel=0 note=79 velocity=0 time=120
note_on channel=0 note=80 velocity=69 time=0
note_on channel=0 note=80 velocity=0 time=120
note_on channel=0 note=79 velocity=64 time=0
note_on channel=0 note=79 velocity=0 time=120
note_on channel=0 note=74 velocity=0 time=0
note_on channel=0 note=71 velocity=0 time=0
note_on channel=0 note=60 velocity=72 time=0
note_on channel=0 note=68 velocity=72 time=0
note_on channel=0 note=72 velocity=72 time=0
control_change channel=0 control=64 value=0 time=17
control_change channel=0 control=64 value=127 time=35
note_on channel=0 note=77 velocity=64 time=68
note_on channel=0 note=77 velocity=0 time=120
note_on channel=0 note=79 velocity=65 time=0
note_on channel=0 note=79 velocity=0 time=120
note_on channel=0 note=77 velocity=62 time=0
note_on channel=0 note=77 velocity=0 time=120
note_on channel=0 note=68 velocity=0 time=0
note_on channel=0 note=67 velocity=68 time=0
control_change channel=0 control=64 value=0 time=12
control_change channel=0 control=64 value=127 time=63
note_on channel=0 note=76 velocity=60 time=45
note_on channel=0 note=76 velocity=0 time=120
note_on channel=0 note=77 velocity=62 time=0
note_on channel=0 note=77 velocity=0 time=120
note_on channel=0 note=76 velocity=57 time=0
note_on channel=0 note=76 velocity=0 time=0
note_on channel=0 note=60 velocity=0 time=0
note_on channel=0 note=72 velocity=0 time=0
note_on channel=0 note=67 velocity=0 time=0
note_on channel=0 note=46 velocity=61 time=0
note_on channel=0 note=54 velocity=72 time=0
note_on channel=0 note=49 velocity=61 time=0
control_change channel=0 control=64 value=0 time=16
control_change channel=0 control=64 value=127 time=69
note_on channel=0 note=61 velocity=66 time=35
note_on channel=0 note=61 velocity=0 time=120
note_on channel=0 note=73 velocity=73 time=0
note_on channel=0 note=73 velocity=0 time=120
note_on channel=0 note=61 velocity=59 time=0
note_on channel=0 note=61 velocity=0 time=120
note_on channel=0 note=73 velocity=71 time=0
note_on channel=0 note=73 velocity=0 time=120
note_on channel=0 note=61 velocity=58 time=0
note_on channel=0 note=61 velocity=0 time=0
note_on channel=0 note=46 velocity=0 time=0
note_on channel=0 note=54 velocity=0 time=0
note_on channel=0 note=49 velocity=0 time=0
note_on channel=0 note=73 velocity=63 time=0
note_on channel=0 note=44 velocity=50 time=0
note_on channel=0 note=53 velocity=59 time=0
note_on channel=0 note=48 velocity=50 time=0
note_on channel=0 note=73 velocity=0 time=120
note_on channel=0 note=61 velocity=59 time=0
note_on channel=0 note=61 velocity=0 time=120
note_on channel=0 note=48 velocity=0 time=0
note_on channel=0 note=53 velocity=0 time=0
note_on channel=0 note=44 velocity=0 time=0
note_on channel=0 note=52 velocity=61 time=0
note_on channel=0 note=46 velocity=51 time=0
note_on channel=0 note=43 velocity=51 time=0
control_change channel=0 control=64 value=0 time=13
control_change channel=0 control=64 value=127 time=58
note_on channel=0 note=61 velocity=60 time=49
note_on channel=0 note=61 velocity=0 time=120
note_on channel=0 note=73 velocity=71 time=0
note_on channel=0 note=73 velocity=0 time=120
note_on channel=0 note=72 velocity=66 time=0
note_on channel=0 note=72 velocity=0 time=120
note_on channel=0 note=52 velocity=0 time=0
note_on channel=0 note=46 velocity=0 time=0
note_on channel=0 note=43 velocity=0 time=0
note_on channel=0 note=70 velocity=68 time=0
note_on channel=0 note=48 velocity=48 time=0
note_on channel=0 note=44 velocity=48 time=0
note_on channel=0 note=53 velocity=57 time=0
control_change channel=0 control=64 value=0 time=19
control_change channel=0 control=64 value=127 time=59
note_on channel=0 note=70 velocity=0 time=42
note_on channel=0 note=68 velocity=66 time=0
note_on channel=0 note=68 velocity=0 time=120
note_on channel=0 note=67 velocity=65 time=0
note_on channel=0 note=67 velocity=0 time=120
note_on channel=0 note=65 velocity=58 time=0
note_on channel=0 note=65 velocity=0 time=0
note_on channel=0 note=53 velocity=0 time=0
note_on channel=0 note=44 velocity=0 time=0
note_on channel=0 note=48 velocity=0 time=0
note_on channel=0 note=54 velocity=72 time=0
note_on channel=0 note=49 velocity=61 time=0
note_on channel=0 note=46 velocity=61 time=0
control_change channel=0 control=64 value=0 time=18
control_change channel=0 control=64 value=127 time=67
note_on channel=0 note=73 velocity=68 time=35
note_on channel=0 note=73 velocity=0 time=120
note_on channel=0 note=85 velocity=75 time=0
note_on channel=0 note=85 velocity=0 time=120
note_on channel=0 note=73 velocity=67 time=0
note_on channel=0 note=73 velocity=0 time=120
note_on channel=0 note=85 velocity=74 time=0
note_on channel=0 note=85 velocity=0 time=120
note_on channel=0 note=73 velocity=67 time=0
note_on channel=0 note=73 velocity=0 time=0
note_on channel=0 note=54 velocity=0 time=0
note_on channel=0 note=49 velocity=0 time=0
note_on channel=0 note=46 velocity=0 time=0
note_on channel=0 note=85 velocity=69 time=0
note_on channel=0 note=48 velocity=50 time=0
note_on channel=0 note=53 velocity=59 time=0
note_on channel=0 note=44 velocity=50 time=0
note_on channel=0 note=85 velocity=0 time=120
note_on channel=0 note=73 velocity=60 time=0
note_on channel=0 note=73 velocity=0 time=120
note_on channel=0 note=44 velocity=0 time=0
note_on channel=0 note=53 velocity=0 time=0
note_on channel=0 note=48 velocity=0 time=0
note_on channel=0 note=52 velocity=65 time=0
note_on channel=0 note=46 velocity=54 time=0
note_on channel=0 note=43 velocity=51 time=0
control_change channel=0 control=64 value=0 time=11
control_change channel=0 control=64 value=127 time=67
note_on channel=0 note=73 velocity=61 time=42
note_on channel=0 note=73 velocity=0 time=120
note_on channel=0 note=85 velocity=73 time=0
note_on channel=0 note=85 velocity=0 time=120
note_on channel=0 note=84 velocity=66 time=0
note_on channel=0 note=84 velocity=0 time=120
note_on channel=0 note=52 velocity=0 time=0
note_on channel=0 note=46 velocity=0 time=0
note_on channel=0 note=43 velocity=0 time=0
note_on channel=0 note=82 velocity=70 time=0
note_on channel=0 note=44 velocity=48 time=0
note_on channel=0 note=53 velocity=57 time=0
note_on channel=0 note=48 velocity=48 time=0
control_change channel=0 control=64 value=0 time=19
control_change channel=0 control=64 value=127 time=94
note_on channel=0 note=82 velocity=0 time=7
note_on channel=0 note=80 velocity=68 time=0
note_on channel=0 note=80 velocity=0 time=120
note_on channel=0 note=79 velocity=67 time=0
note_on channel=0 note=79 velocity=0 time=120
note_on channel=0 note=77 velocity=65 time=0
note_on channel=0 note=77 velocity=0 time=0
note_on channel=0 note=48 velocity=0 time=0
note_on channel=0 note=53 velocity=0 time=0
note_on channel=0 note=44 velocity=0 time=0
note_on channel=0 note=46 velocity=61 time=0
note_on channel=0 note=54 velocity=72 time=0
note_on channel=0 note=49 velocity=61 time=0
control_change channel=0 control=64 value=0 time=14
control_change channel=0 control=64 value=127 time=57
note_on channel=0 note=61 velocity=66 time=49
note_on channel=0 note=61 velocity=0 time=120
note_on channel=0 note=73 velocity=73 time=0
note_on channel=0 note=73 velocity=0 time=120
note_on channel=0 note=61 velocity=66 time=0
note_on channel=0 note=61 velocity=0 time=120
note_on channel=0 note=73 velocity=73 time=0
note_on channel=0 note=73 velocity=0 time=120
note_on channel=0 note=61 velocity=66 time=0
note_on channel=0 note=61 velocity=0 time=0
note_on channel=0 note=46 velocity=0 time=0
note_on channel=0 note=54 velocity=0 time=0
note_on channel=0 note=49 velocity=0 time=0
note_on channel=0 note=73 velocity=68 time=0
note_on channel=0 note=44 velocity=50 time=0
note_on channel=0 note=48 velocity=50 time=0
note_on channel=0 note=53 velocity=59 time=0
note_on channel=0 note=73 velocity=0 time=120
note_on channel=0 note=61 velocity=61 time=0
note_on channel=0 note=61 velocity=0 time=120
note_on channel=0 note=53 velocity=0 time=0
note_on channel=0 note=48 velocity=0 time=0
note_on channel=0 note=44 velocity=0 time=0
note_on channel=0 note=52 velocity=61 time=0
note_on channel=0 note=46 velocity=61 time=0
note_on channel=0 note=43 velocity=51 time=0
control_change channel=0 control=64 value=0 time=12
control_change channel=0 control=64 value=127 time=38
note_on channel=0 note=73 velocity=68 time=70
note_on channel=0 note=73 velocity=0 time=120
note_on channel=0 note=61 velocity=60 time=0
note_on channel=0 note=61 velocity=0 time=120
note_on channel=0 note=73 velocity=68 time=0
note_on channel=0 note=73 velocity=0 time=0
note_on channel=0 note=52 velocity=0 time=0
note_on channel=0 note=46 velocity=0 time=0
note_on channel=0 note=43 velocity=0 time=0
note_on channel=0 note=41 velocity=49 time=0
note_on channel=0 note=49 velocity=58 time=0
note_on channel=0 note=44 velocity=49 time=0
control_change channel=0 control=64 value=0 time=16
control_change channel=0 control=64 value=127 time=76
note_on channel=0 note=85 velocity=78 time=28
note_on channel=0 note=85 velocity=0 time=120
note_on channel=0 note=73 velocity=69 time=0
note_on channel=0 note=73 velocity=0 time=120
note_on channel=0 note=85 velocity=75 time=0
note_on channel=0 note=85 velocity=0 time=0
note_on channel=0 note=41 velocity=0 time=0
note_on channel=0 note=49 velocity=0 time=0
note_on channel=0 note=44 velocity=0 time=0
note_on channel=0 note=40 velocity=53 time=0
note_on channel=0 note=48 velocity=63 time=0
note_on channel=0 note=43 velocity=53 time=0
control_change channel=0 control=64 value=0 time=16
control_change channel=0 control=64 value=127 time=53
note_on channel=0 note=84 velocity=76 time=51
note_on channel=0 note=84 velocity=0 time=120
note_on channel=0 note=72 velocity=71 time=0
note_on channel=0 note=72 velocity=0 time=120
note_on channel=0 note=84 velocity=75 time=0
note_on channel=0 note=84 velocity=0 time=120
note_on channel=0 note=40 velocity=0 time=0
note_on channel=0 note=48 velocity=0 time=0
note_on channel=0 note=43 velocity=0 time=0
note_on channel=0 note=47 velocity=63 time=0
note_on channel=0 note=38 velocity=53 time=0
note_on channel=0 note=44 velocity=53 time=0
note_on channel=0 note=41 velocity=53 time=0
control_change channel=0 control=64 value=0 time=18
control_change channel=0 control=64 value=127 time=57
note_on channel=0 note=83 velocity=77 time=45
note_on channel=0 note=83 velocity=0 time=120
note_on channel=0 note=71 velocity=71 time=0
note_on channel=0 note=71 velocity=0 time=120
note_on channel=0 note=83 velocity=74 time=0
note_on channel=0 note=83 velocity=0 time=0
note_on channel=0 note=44 velocity=0 time=0
note_on channel=0 note=47 velocity=0 time=0
note_on channel=0 note=38 velocity=0 time=0
note_on channel=0 note=41 velocity=0 time=0
note_on channel=0 note=46 velocity=67 time=0
note_on channel=0 note=40 velocity=56 time=0
note_on channel=0 note=43 velocity=56 time=0
control_change channel=0 control=64 value=0 time=7
control_change channel=0 control=64 value=127 time=71
note_on channel=0 note=82 velocity=78 time=42
note_on channel=0 note=82 velocity=0 time=120
note_on channel=0 note=70 velocity=69 time=0
note_on channel=0 note=70 velocity=0 time=120
note_on channel=0 note=82 velocity=77 time=0
note_on channel=0 note=82 velocity=0 time=120
note_on channel=0 note=46 velocity=0 time=0
note_on channel=0 note=40 velocity=0 time=0
note_on channel=0 note=43 velocity=0 time=0
note_on channel=0 note=44 velocity=67 time=0
note_on channel=0 note=41 velocity=67 time=0
control_change channel=0 control=64 value=0 time=14
control_change channel=0 control=64 value=127 time=78
note_on channel=0 note=80 velocity=77 time=28
note_on channel=0 note=80 velocity=0 time=120
note_on channel=0 note=68 velocity=71 time=0
note_on channel=0 note=72 velocity=71 time=0
note_on channel=0 note=72 velocity=0 time=120
note_on channel=0 note=68 velocity=0 time=0
note_on channel=0 note=80 velocity=77 time=0
note_on channel=0 note=80 velocity=0 time=0
note_on channel=0 note=41 velocity=0 time=0
note_on channel=0 note=44 velocity=0 time=0
note_on channel=0 note=35 velocity=66 time=0
note_on channel=0 note=44 velocity=66 time=0
control_change channel=0 control=64 value=0 time=16
control_change channel=0 control=64 value=127 time=53
note_on channel=0 note=80 velocity=75 time=51
note_on channel=0 note=80 velocity=0 time=120
note_on channel=0 note=74 velocity=68 time=0
note_on channel=0 note=68 velocity=68 time=0
note_on channel=0 note=68 velocity=0 time=120
note_on channel=0 note=74 velocity=0 time=0
note_on channel=0 note=80 velocity=75 time=0
note_on channel=0 note=80 velocity=0 time=0
note_on channel=0 note=44 velocity=0 time=0
note_on channel=0 note=42 velocity=64 time=0
control_change channel=0 control=64 value=0 time=17
control_change channel=0 control=64 value=127 time=69
note_on channel=0 note=79 velocity=73 time=34
note_on channel=0 note=79 velocity=0 time=120
note_on channel=0 note=74 velocity=66 time=0
note_on channel=0 note=67 velocity=66 time=0
note_on channel=0 note=67 velocity=0 time=120
note_on channel=0 note=74 velocity=0 time=0
note_on channel=0 note=79 velocity=73 time=0
note_on channel=0 note=79 velocity=0 time=120
note_on channel=0 note=42 velocity=0 time=0
note_on channel=0 note=35 velocity=0 time=0
note_on channel=0 note=36 velocity=61 time=0
note_on channel=0 note=41 velocity=61 time=0
control_change channel=0 control=64 value=0 time=15
control_change channel=0 control=64 value=127 time=48
note_on channel=0 note=77 velocity=71 time=57
note_on channel=0 note=77 velocity=0 time=120
note_on channel=0 note=68 velocity=66 time=0
note_on channel=0 note=65 velocity=66 time=0
note_on channel=0 note=65 velocity=0 time=120
note_on channel=0 note=68 velocity=0 time=0
note_on channel=0 note=77 velocity=71 time=0
note_on channel=0 note=77 velocity=0 time=120
note_on channel=0 note=41 velocity=0 time=0
note_on channel=0 note=40 velocity=59 time=0
control_change channel=0 control=64 value=0 time=17
control_change channel=0 control=64 value=127 time=75
note_on channel=0 note=76 velocity=72 time=28
note_on channel=0 note=76 velocity=0 time=120
note_on channel=0 note=67 velocity=66 time=0
note_on channel=0 note=64 velocity=66 time=0
note_on channel=0 note=64 velocity=0 time=120
note_on channel=0 note=67 velocity=0 time=0
note_on channel=0 note=76 velocity=69 time=0
note_on channel=0 note=76 velocity=0 time=0
note_on channel=0 note=40 velocity=0 time=0
note_on channel=0 note=36 velocity=0 time=0
note_on channel=0 note=65 velocity=65 time=0
note_on channel=0 note=68 velocity=65 time=0
note_on channel=0 note=77 velocity=77 time=0
note_on channel=0 note=29 velocity=59 time=0
note_on channel=0 note=32 velocity=59 time=0
note_on channel=0 note=36 velocity=59 time=0
note_on channel=0 note=41 velocity=70 time=0
control_change channel=0 control=64 value=0 time=14
control_change channel=0 control=64 value=127 time=64
note_on channel=0 note=77 velocity=0 time=42
note_on channel=0 note=65 velocity=0 time=0
note_on channel=0 note=68 velocity=0 time=0
note_on channel=0 note=60 velocity=74 time=0
note_on channel=0 note=60 velocity=0 time=0
note_on channel=0 note=41 velocity=0 time=0
note_on channel=0 note=29 velocity=0 time=0
note_on channel=0 note=36 velocity=0 time=0
note_on channel=0 note=32 velocity=0 time=0
note_on channel=0 note=65 velocity=76 time=0
note_on channel=0 note=65 velocity=0 time=120
note_on channel=0 note=68 velocity=78 time=0
note_on channel=0 note=68 velocity=0 time=0
note_on channel=0 note=72 velocity=80 time=0
control_change channel=0 control=64 value=0 time=20
control_change channel=0 control=64 value=127 time=79
note_on channel=0 note=72 velocity=0 time=21
note_on channel=0 note=73 velocity=76 time=0
note_on channel=0 note=48 velocity=59 time=0
note_on channel=0 note=48 velocity=0 time=0
note_on channel=0 note=73 velocity=0 time=0
note_on channel=0 note=72 velocity=76 time=0
note_on channel=0 note=53 velocity=62 time=0
note_on channel=0 note=53 velocity=0 time=120
note_on channel=0 note=72 velocity=0 time=0
note_on channel=0 note=70 velocity=76 time=0
note_on channel=0 note=56 velocity=64 time=0
note_on channel=0 note=56 velocity=0 time=40
note_on channel=0 note=70 velocity=0 time=0
note_on channel=0 note=68 velocity=77 time=0
note_on channel=0 note=60 velocity=70 time=0
control_change channel=0 control=64 value=0 time=17
control_change channel=0 control=64 value=127 time=68
note_on channel=0 note=60 velocity=0 time=35
note_on channel=0 note=68 velocity=0 time=0
note_on channel=0 note=70 velocity=71 time=0
note_on channel=0 note=61 velocity=64 time=0
note_on channel=0 note=61 velocity=0 time=80
note_on channel=0 note=70 velocity=0 time=0
note_on channel=0 note=68 velocity=72 time=0
note_on channel=0 note=60 velocity=64 time=0
note_on channel=0 note=60 velocity=0 time=40
note_on channel=0 note=68 velocity=0 time=0
note_on channel=0 note=67 velocity=72 time=0
note_on channel=0 note=58 velocity=64 time=0
note_on channel=0 note=58 velocity=0 time=120
note_on channel=0 note=67 velocity=0 time=0
note_on channel=0 note=65 velocity=78 time=0
note_on channel=0 note=56 velocity=70 time=0
control_change channel=0 control=64 value=0 time=11
control_change channel=0 control=64 value=127 time=45
note_on channel=0 note=56 velocity=0 time=35
note_on channel=0 note=65 velocity=0 time=0
note_on channel=0 note=63 velocity=73 time=0
note_on channel=0 note=55 velocity=63 time=0
note_on channel=0 note=55 velocity=0 time=40
note_on channel=0 note=63 velocity=0 time=0
note_on channel=0 note=61 velocity=73 time=0
note_on channel=0 note=53 velocity=63 time=0
note_on channel=0 note=53 velocity=0 time=120
note_on channel=0 note=61 velocity=0 time=0
note_on channel=0 note=60 velocity=72 time=0
note_on channel=0 note=51 velocity=63 time=0
note_on channel=0 note=51 velocity=0 time=80
note_on channel=0 note=60 velocity=0 time=0
note_on channel=0 note=58 velocity=75 time=0
note_on channel=0 note=49 velocity=67 time=0
control_change channel=0 control=64 value=0 time=15
control_change channel=0 control=64 value=127 time=28
note_on channel=0 note=49 velocity=0 time=40
note_on channel=0 note=58 velocity=0 time=0
note_on channel=0 note=56 velocity=70 time=0
note_on channel=0 note=48 velocity=60 time=0
note_on channel=0 note=48 velocity=0 time=120
note_on channel=0 note=56 velocity=0 time=0
note_on channel=0 note=54 velocity=70 time=0
note_on channel=0 note=46 velocity=60 time=0
note_on channel=0 note=46 velocity=0 time=80
note_on channel=0 note=54 velocity=0 time=0
note_on channel=0 note=53 velocity=70 time=0
note_on channel=0 note=44 velocity=60 time=0
note_on channel=0 note=44 velocity=0 time=0
note_on channel=0 note=53 velocity=0 time=0
note_on channel=0 note=52 velocity=73 time=0
note_on channel=0 note=43 velocity=71 time=0
control_change channel=0 control=64 value=0 time=8
control_change channel=0 control=64 value=127 time=49
note_on channel=0 note=43 velocity=0 time=63
note_on channel=0 note=44 velocity=65 time=0
note_on channel=0 note=44 velocity=0 time=120
note_on channel=0 note=52 velocity=0 time=0
note_on channel=0 note=48 velocity=69 time=0
note_on channel=0 note=52 velocity=69 time=0
note_on channel=0 note=54 velocity=69 time=0
note_on channel=0 note=60 velocity=82 time=0
note_on channel=0 note=46 velocity=73 time=0
control_change channel=0 control=64 value=0 time=6
note_on channel=0 note=46 velocity=0 time=114
note_on channel=0 note=44 velocity=69 time=0
note_on channel=0 note=54 velocity=0 time=60
note_on channel=0 note=60 velocity=0 time=0
note_on channel=0 note=48 velocity=0 time=0
note_on channel=0 note=52 velocity=0 time=0
note_on channel=0 note=44 velocity=0 time=60
note_on channel=0 note=48 velocity=61 time=0
note_on channel=0 note=52 velocity=61 time=0
note_on channel=0 note=58 velocity=73 time=0
note_on channel=0 note=60 velocity=73 time=0
note_on channel=0 note=43 velocity=73 time=0
note_on channel=0 note=43 velocity=0 time=120
note_on channel=0 note=41 velocity=73 time=0
note_on channel=0 note=58 velocity=0 time=60
note_on channel=0 note=60 velocity=0 time=0
note_on channel=0 note=48 velocity=0 time=0
note_on channel=0 note=52 velocity=0 time=0
note_on channel=0 note=41 velocity=0 time=60
note_on channel=0 note=48 velocity=60 time=0
note_on channel=0 note=52 velocity=60 time=0
note_on channel=0 note=58 velocity=71 time=0
note_on channel=0 note=60 velocity=71 time=0
note_on channel=0 note=40 velocity=72 time=0
note_on channel=0 note=40 velocity=0 time=120
note_on channel=0 note=38 velocity=72 time=0
note_on channel=0 note=58 velocity=0 time=60
note_on channel=0 note=60 velocity=0 time=0
note_on channel=0 note=48 velocity=0 time=0
note_on channel=0 note=52 velocity=0 time=0
note_on channel=0 note=38 velocity=0 time=60
note_on channel=0 note=48 velocity=61 time=0
note_on channel=0 note=52 velocity=61 time=0
note_on channel=0 note=58 velocity=72 time=0
note_on channel=0 note=60 velocity=72 time=0
note_on channel=0 note=36 velocity=71 time=0
note_on channel=0 note=36 velocity=0 time=120
note_on channel=0 note=34 velocity=71 time=0
note_on channel=0 note=58 velocity=0 time=60
note_on channel=0 note=60 velocity=0 time=0
note_on channel=0 note=48 velocity=0 time=0
note_on channel=0 note=52 velocity=0 time=0
note_on channel=0 note=34 velocity=0 time=60
note_on channel=0 note=48 velocity=61 time=0
note_on channel=0 note=52 velocity=61 time=0
note_on channel=0 note=58 velocity=72 time=0
note_on channel=0 note=60 velocity=72 time=0
note_on channel=0 note=32 velocity=70 time=0
note_on channel=0 note=32 velocity=0 time=120
note_on channel=0 note=31 velocity=70 time=0
note_on channel=0 note=58 velocity=0 time=60
note_on channel=0 note=60 velocity=0 time=0
note_on channel=0 note=48 velocity=0 time=0
note_on channel=0 note=52 velocity=0 time=0
note_on channel=0 note=31 velocity=0 time=0
note_on channel=0 note=48 velocity=77 time=0
note_on channel=0 note=53 velocity=77 time=0
note_on channel=0 note=56 velocity=77 time=0
note_on channel=0 note=60 velocity=77 time=0
note_on channel=0 note=29 velocity=70 time=0
note_on channel=0 note=36 velocity=70 time=0
note_on channel=0 note=41 velocity=70 time=0
note_on channel=0 note=32 velocity=70 time=0
control_change channel=0 control=64 value=127 time=50
note_on channel=0 note=60 velocity=0 time=70
note_on channel=0 note=56 velocity=0 time=0
note_on channel=0 note=48 velocity=0 time=0
note_on channel=0 note=53 velocity=0 time=0
note_on channel=0 note=72 velocity=74 time=0
note_on channel=0 note=72 velocity=0 time=0
note_on channel=0 note=41 velocity=0 time=0
note_on channel=0 note=32 velocity=0 time=0
note_on channel=0 note=36 velocity=0 time=0
note_on channel=0 note=29 velocity=0 time=0
note_on channel=0 note=77 velocity=76 time=0
note_on channel=0 note=77 velocity=0 time=120
note_on channel=0 note=80 velocity=78 time=0
note_on channel=0 note=80 velocity=0 time=0
note_on channel=0 note=84 velocity=80 time=0
control_change channel=0 control=64 value=0 time=17
control_change channel=0 control=64 value=127 time=82
note_on channel=0 note=84 velocity=0 time=21
note_on channel=0 note=85 velocity=76 time=0
note_on channel=0 note=60 velocity=59 time=0
note_on channel=0 note=60 velocity=0 time=0
note_on channel=0 note=85 velocity=0 time=0
note_on channel=0 note=84 velocity=76 time=0
note_on channel=0 note=65 velocity=62 time=0
note_on channel=0 note=65 velocity=0 time=120
note_on channel=0 note=84 velocity=0 time=0
note_on channel=0 note=82 velocity=76 time=0
note_on channel=0 note=68 velocity=64 time=0
note_on channel=0 note=68 velocity=0 time=40
note_on channel=0 note=82 velocity=0 time=0
note_on channel=0 note=80 velocity=77 time=0
note_on channel=0 note=72 velocity=70 time=0
control_change channel=0 control=64 value=0 time=14
control_change channel=0 control=64 value=127 time=57
note_on channel=0 note=72 velocity=0 time=49
note_on channel=0 note=80 velocity=0 time=0
note_on channel=0 note=82 velocity=71 time=0
note_on channel=0 note=73 velocity=64 time=0
note_on channel=0 note=73 velocity=0 time=80
note_on channel=0 note=82 velocity=0 time=0
note_on channel=0 note=80 velocity=72 time=0
note_on channel=0 note=72 velocity=64 time=0
note_on channel=0 note=72 velocity=0 time=40
note_on channel=0 note=80 velocity=0 time=0
note_on channel=0 note=79 velocity=72 time=0
note_on channel=0 note=70 velocity=64 time=0
note_on channel=0 note=70 velocity=0 time=120
note_on channel=0 note=79 velocity=0 time=0
note_on channel=0 note=77 velocity=78 time=0
note_on channel=0 note=68 velocity=70 time=0
control_change channel=0 control=64 value=0 time=17
control_change channel=0 control=64 value=127 time=45
note_on channel=0 note=68 velocity=0 time=35
note_on channel=0 note=77 velocity=0 time=0
note_on channel=0 note=75 velocity=73 time=0
note_on channel=0 note=67 velocity=63 time=0
note_on channel=0 note=67 velocity=0 time=40
note_on channel=0 note=75 velocity=0 time=0
note_on channel=0 note=73 velocity=73 time=0
note_on channel=0 note=65 velocity=63 time=0
note_on channel=0 note=65 velocity=0 time=120
note_on channel=0 note=73 velocity=0 time=0
note_on channel=0 note=72 velocity=72 time=0
note_on channel=0 note=63 velocity=63 time=0
note_on channel=0 note=63 velocity=0 time=80
note_on channel=0 note=72 velocity=0 time=0
note_on channel=0 note=70 velocity=75 time=0
note_on channel=0 note=61 velocity=67 time=0
control_change channel=0 control=64 value=0 time=8
control_change channel=0 control=64 value=127 time=56
note_on channel=0 note=61 velocity=0 time=40
note_on channel=0 note=70 velocity=0 time=0
note_on channel=0 note=68 velocity=70 time=0
note_on channel=0 note=60 velocity=60 time=0
note_on channel=0 note=60 velocity=0 time=120
note_on channel=0 note=68 velocity=0 time=0
note_on channel=0 note=67 velocity=70 time=0
note_on channel=0 note=58 velocity=60 time=0
note_on channel=0 note=58 velocity=0 time=80
note_on channel=0 note=67 velocity=0 time=0
note_on channel=0 note=65 velocity=70 time=0
note_on channel=0 note=56 velocity=60 time=0
note_on channel=0 note=56 velocity=0 time=0
note_on channel=0 note=65 velocity=0 time=0
note_on channel=0 note=64 velocity=73 time=0
note_on channel=0 note=55 velocity=71 time=0
control_change channel=0 control=64 value=0 time=18
control_change channel=0 control=64 value=127 time=70
note_on channel=0 note=55 velocity=0 time=32
note_on channel=0 note=56 velocity=65 time=0
note_on channel=0 note=56 velocity=0 time=120
note_on channel=0 note=64 velocity=0 time=0
note_on channel=0 note=60 velocity=58 time=0
note_on channel=0 note=64 velocity=69 time=0
note_on channel=0 note=67 velocity=69 time=0
note_on channel=0 note=72 velocity=82 time=0
note_on channel=0 note=58 velocity=73 time=0
control_change channel=0 control=64 value=0 time=6
note_on channel=0 note=58 velocity=0 time=114
note_on channel=0 note=56 velocity=69 time=0
note_on channel=0 note=67 velocity=0 time=60
note_on channel=0 note=72 velocity=0 time=0
note_on channel=0 note=60 velocity=0 time=0
note_on channel=0 note=64 velocity=0 time=0
note_on channel=0 note=56 velocity=0 time=60
note_on channel=0 note=60 velocity=51 time=0
note_on channel=0 note=64 velocity=61 time=0
note_on channel=0 note=70 velocity=73 time=0
note_on channel=0 note=72 velocity=73 time=0
note_on channel=0 note=55 velocity=73 time=0
note_on channel=0 note=55 velocity=0 time=120
note_on channel=0 note=53 velocity=73 time=0
note_on channel=0 note=70 velocity=0 time=60
note_on channel=0 note=72 velocity=0 time=0
note_on channel=0 note=60 velocity=0 time=0
note_on channel=0 note=64 velocity=0 time=0
note_on channel=0 note=53 velocity=0 time=60
note_on channel=0 note=60 velocity=50 time=0
note_on channel=0 note=64 velocity=59 time=0
note_on channel=0 note=70 velocity=70 time=0
note_on channel=0 note=72 velocity=70 time=0
note_on channel=0 note=52 velocity=72 time=0
note_on channel=0 note=52 velocity=0 time=120
note_on channel=0 note=50 velocity=72 time=0
note_on channel=0 note=70 velocity=0 time=60
note_on channel=0 note=72 velocity=0 time=0
note_on channel=0 note=60 velocity=0 time=0
note_on channel=0 note=64 velocity=0 time=0
note_on channel=0 note=50 velocity=0 time=60
note_on channel=0 note=60 velocity=51 time=0
note_on channel=0 note=64 velocity=61 time=0
note_on channel=0 note=70 velocity=73 time=0
note_on channel=0 note=72 velocity=73 time=0
note_on channel=0 note=48 velocity=71 time=0
note_on channel=0 note=48 velocity=0 time=120
note_on channel=0 note=46 velocity=71 time=0
note_on channel=0 note=70 velocity=0 time=60
note_on channel=0 note=72 velocity=0 time=0
note_on channel=0 note=60 velocity=0 time=0
note_on channel=0 note=64 velocity=0 time=0
note_on channel=0 note=46 velocity=0 time=60
note_on channel=0 note=60 velocity=51 time=0
note_on channel=0 note=64 velocity=60 time=0
note_on channel=0 note=70 velocity=71 time=0
note_on channel=0 note=72 velocity=71 time=0
note_on channel=0 note=44 velocity=70 time=0
note_on channel=0 note=44 velocity=0 time=120
note_on channel=0 note=43 velocity=70 time=0
note_on channel=0 note=70 velocity=0 time=60
note_on channel=0 note=72 velocity=0 time=0
note_on channel=0 note=60 velocity=0 time=0
note_on channel=0 note=64 velocity=0 time=0
note_on channel=0 note=43 velocity=0 time=0
note_on channel=0 note=60 velocity=51 time=0
note_on channel=0 note=65 velocity=61 time=0
note_on channel=0 note=68 velocity=73 time=0
note_on channel=0 note=72 velocity=73 time=0
note_on channel=0 note=41 velocity=67 time=0
control_change channel=0 control=64 value=127 time=53
note_on channel=0 note=41 velocity=0 time=40
note_on channel=0 note=43 velocity=60 time=0
note_on channel=0 note=43 velocity=0 time=120
note_on channel=0 note=72 velocity=0 time=0
note_on channel=0 note=60 velocity=0 time=0
note_on channel=0 note=65 velocity=0 time=0
note_on channel=0 note=68 velocity=0 time=0
note_on channel=0 note=44 velocity=60 time=0
note_on channel=0 note=44 velocity=0 time=80
note_on channel=0 note=46 velocity=60 time=0
note_on channel=0 note=46 velocity=0 time=0
note_on channel=0 note=48 velocity=71 time=0
note_on channel=0 note=48 velocity=0 time=120
note_on channel=0 note=50 velocity=65 time=0
note_on channel=0 note=50 velocity=0 time=120
note_on channel=0 note=72 velocity=63 time=0
note_on channel=0 note=77 velocity=75 time=0
note_on channel=0 note=80 velocity=75 time=0
note_on channel=0 note=84 velocity=90 time=0
note_on channel=0 note=52 velocity=73 time=0
control_change channel=0 control=64 value=0 time=18
note_on channel=0 note=52 velocity=0 time=102
note_on channel=0 note=53 velocity=69 time=0
note_on channel=0 note=80 velocity=0 time=60
note_on channel=0 note=84 velocity=0 time=0
note_on channel=0 note=72 velocity=0 time=0
note_on channel=0 note=77 velocity=0 time=0
note_on channel=0 note=53 velocity=0 time=60
note_on channel=0 note=72 velocity=56 time=0
note_on channel=0 note=76 velocity=67 time=0
note_on channel=0 note=82 velocity=80 time=0
note_on channel=0 note=84 velocity=80 time=0
note_on channel=0 note=55 velocity=73 time=0
note_on channel=0 note=55 velocity=0 time=120
note_on channel=0 note=53 velocity=73 time=0
note_on channel=0 note=82 velocity=0 time=60
note_on channel=0 note=84 velocity=0 time=0
note_on channel=0 note=72 velocity=0 time=0
note_on channel=0 note=76 velocity=0 time=0
note_on channel=0 note=53 velocity=0 time=60
note_on channel=0 note=72 velocity=55 time=0
note_on channel=0 note=76 velocity=64 time=0
note_on channel=0 note=82 velocity=77 time=0
note_on channel=0 note=84 velocity=77 time=0
note_on channel=0 note=52 velocity=72 time=0
note_on channel=0 note=52 velocity=0 time=120
note_on channel=0 note=50 velocity=72 time=0
note_on channel=0 note=82 velocity=0 time=60
note_on channel=0 note=84 velocity=0 time=0
note_on channel=0 note=72 velocity=0 time=0
note_on channel=0 note=76 velocity=0 time=0
note_on channel=0 note=50 velocity=0 time=60
note_on channel=0 note=72 velocity=56 time=0
note_on channel=0 note=76 velocity=67 time=0
note_on channel=0 note=82 velocity=80 time=0
note_on channel=0 note=84 velocity=80 time=0
note_on channel=0 note=48 velocity=71 time=0
note_on channel=0 note=48 velocity=0 time=120
note_on channel=0 note=46 velocity=71 time=0
note_on channel=0 note=82 velocity=0 time=60
note_on channel=0 note=84 velocity=0 time=0
note_on channel=0 note=72 velocity=0 time=0
note_on channel=0 note=76 velocity=0 time=0
note_on channel=0 note=46 velocity=0 time=60
note_on channel=0 note=72 velocity=56 time=0
note_on channel=0 note=76 velocity=66 time=0
note_on channel=0 note=82 velocity=78 time=0
note_on channel=0 note=84 velocity=78 time=0
note_on channel=0 note=44 velocity=70 time=0
note_on channel=0 note=44 velocity=0 time=120
note_on channel=0 note=43 velocity=70 time=0
note_on channel=0 note=82 velocity=0 time=60
note_on channel=0 note=84 velocity=0 time=0
note_on channel=0 note=72 velocity=0 time=0
note_on channel=0 note=76 velocity=0 time=0
note_on channel=0 note=43 velocity=0 time=0
note_on channel=0 note=72 velocity=56 time=0
note_on channel=0 note=77 velocity=67 time=0
note_on channel=0 note=80 velocity=80 time=0
note_on channel=0 note=84 velocity=80 time=0
note_on channel=0 note=41 velocity=67 time=0
control_change channel=0 control=64 value=127 time=39
note_on channel=0 note=41 velocity=0 time=40
note_on channel=0 note=43 velocity=60 time=0
note_on channel=0 note=80 velocity=0 time=60
note_on channel=0 note=84 velocity=0 time=0
note_on channel=0 note=72 velocity=0 time=0
note_on channel=0 note=77 velocity=0 time=0
note_on channel=0 note=43 velocity=0 time=60
note_on channel=0 note=44 velocity=60 time=0
note_on channel=0 note=44 velocity=0 time=80
note_on channel=0 note=46 velocity=60 time=0
note_on channel=0 note=46 velocity=0 time=0
note_on channel=0 note=48 velocity=71 time=0
note_on channel=0 note=48 velocity=0 time=120
note_on channel=0 note=50 velocity=65 time=0
note_on channel=0 note=50 velocity=0 time=120
note_on channel=0 note=60 velocity=58 time=0
note_on channel=0 note=65 velocity=69 time=0
note_on channel=0 note=68 velocity=69 time=0
note_on channel=0 note=72 velocity=82 time=0
note_on channel=0 note=52 velocity=73 time=0
control_change channel=0 control=64 value=0 time=6
note_on channel=0 note=52 velocity=0 time=114
note_on channel=0 note=53 velocity=69 time=0
note_on channel=0 note=68 velocity=0 time=60
note_on channel=0 note=72 velocity=0 time=0
note_on channel=0 note=60 velocity=0 time=0
note_on channel=0 note=65 velocity=0 time=0
note_on channel=0 note=53 velocity=0 time=60
note_on channel=0 note=60 velocity=51 time=0
note_on channel=0 note=64 velocity=61 time=0
note_on channel=0 note=70 velocity=73 time=0
note_on channel=0 note=72 velocity=73 time=0
note_on channel=0 note=55 velocity=73 time=0
note_on channel=0 note=55 velocity=0 time=120
note_on channel=0 note=53 velocity=73 time=0
note_on channel=0 note=70 velocity=0 time=60
note_on channel=0 note=72 velocity=0 time=0
note_on channel=0 note=60 velocity=0 time=0
note_on channel=0 note=64 velocity=0 time=0
note_on channel=0 note=53 velocity=0 time=60
note_on channel=0 note=60 velocity=50 time=0
note_on channel=0 note=64 velocity=59 time=0
note_on channel=0 note=70 velocity=70 time=0
note_on channel=0 note=72 velocity=70 time=0
note_on channel=0 note=52 velocity=72 time=0
note_on channel=0 note=52 velocity=0 time=120
note_on channel=0 note=50 velocity=72 time=0
note_on channel=0 note=70 velocity=0 time=60
note_on channel=0 note=72 velocity=0 time=0
note_on channel=0 note=60 velocity=0 time=0
note_on channel=0 note=64 velocity=0 time=0
note_on channel=0 note=50 velocity=0 time=60
note_on channel=0 note=60 velocity=51 time=0
note_on channel=0 note=64 velocity=61 time=0
note_on channel=0 note=70 velocity=73 time=0
note_on channel=0 note=72 velocity=73 time=0
note_on channel=0 note=48 velocity=71 time=0
note_on channel=0 note=48 velocity=0 time=120
note_on channel=0 note=46 velocity=71 time=0
note_on channel=0 note=70 velocity=0 time=60
note_on channel=0 note=72 velocity=0 time=0
note_on channel=0 note=60 velocity=0 time=0
note_on channel=0 note=64 velocity=0 time=0
note_on channel=0 note=46 velocity=0 time=60
note_on channel=0 note=60 velocity=51 time=0
note_on channel=0 note=64 velocity=60 time=0
note_on channel=0 note=70 velocity=71 time=0
note_on channel=0 note=72 velocity=71 time=0
note_on channel=0 note=44 velocity=70 time=0
note_on channel=0 note=44 velocity=0 time=120
note_on channel=0 note=43 velocity=70 time=0
note_on channel=0 note=70 velocity=0 time=60
note_on channel=0 note=72 velocity=0 time=0
note_on channel=0 note=60 velocity=0 time=0
note_on channel=0 note=64 velocity=0 time=0
note_on channel=0 note=43 velocity=0 time=0
note_on channel=0 note=60 velocity=56 time=0
note_on channel=0 note=65 velocity=67 time=0
note_on channel=0 note=68 velocity=67 time=0
note_on channel=0 note=72 velocity=80 time=0
note_on channel=0 note=41 velocity=67 time=0
control_change channel=0 control=64 value=127 time=36
note_on channel=0 note=41 velocity=0 time=40
note_on channel=0 note=40 velocity=60 time=0
note_on channel=0 note=68 velocity=0 time=60
note_on channel=0 note=72 velocity=0 time=0
note_on channel=0 note=60 velocity=0 time=0
note_on channel=0 note=65 velocity=0 time=0
note_on channel=0 note=40 velocity=0 time=60
note_on channel=0 note=72 velocity=70 time=0
note_on channel=0 note=77 velocity=70 time=0
note_on channel=0 note=80 velocity=70 time=0
note_on channel=0 note=84 velocity=84 time=0
note_on channel=0 note=38 velocity=60 time=0
note_on channel=0 note=38 velocity=0 time=80
note_on channel=0 note=36 velocity=60 time=0
note_on channel=0 note=80 velocity=0 time=60
note_on channel=0 note=84 velocity=0 time=0
note_on channel=0 note=72 velocity=0 time=0
note_on channel=0 note=77 velocity=0 time=0
note_on channel=0 note=36 velocity=0 time=0
note_on channel=0 note=72 velocity=74 time=0
note_on channel=0 note=77 velocity=74 time=0
note_on channel=0 note=80 velocity=74 time=0
note_on channel=0 note=84 velocity=90 time=0
note_on channel=0 note=34 velocity=64 time=0
note_on channel=0 note=34 velocity=0 time=120
note_on channel=0 note=32 velocity=59 time=0
note_on channel=0 note=80 velocity=0 time=60
note_on channel=0 note=84 velocity=0 time=0
note_on channel=0 note=72 velocity=0 time=0
note_on channel=0 note=77 velocity=0 time=0
note_on channel=0 note=32 velocity=0 time=60
note_on channel=0 note=72 velocity=73 time=0
note_on channel=0 note=77 velocity=73 time=0
note_on channel=0 note=80 velocity=73 time=0
note_on channel=0 note=84 velocity=88 time=0
note_on channel=0 note=31 velocity=65 time=0
control_change channel=0 control=64 value=0 time=4
note_on channel=0 note=31 velocity=0 time=116
note_on channel=0 note=29 velocity=58 time=0
note_on channel=0 note=80 velocity=0 time=60
note_on channel=0 note=84 velocity=0 time=0
note_on channel=0 note=72 velocity=0 time=0
note_on channel=0 note=77 velocity=0 time=0
note_on channel=0 note=29 velocity=0 time=60
note_on channel=0 note=72 velocity=64 time=0
note_on channel=0 note=76 velocity=78 time=0
note_on channel=0 note=82 velocity=78 time=0
note_on channel=0 note=84 velocity=93 time=0
note_on channel=0 note=31 velocity=68 time=0
note_on channel=0 note=31 velocity=0 time=120
note_on channel=0 note=32 velocity=69 time=0
note_on channel=0 note=82 velocity=0 time=60
note_on channel=0 note=84 velocity=0 time=0
note_on channel=0 note=72 velocity=0 time=0
note_on channel=0 note=76 velocity=0 time=0
note_on channel=0 note=32 velocity=0 time=60
note_on channel=0 note=72 velocity=64 time=0
note_on channel=0 note=76 velocity=75 time=0
note_on channel=0 note=82 velocity=75 time=0
note_on channel=0 note=84 velocity=91 time=0
note_on channel=0 note=34 velocity=71 time=0
note_on channel=0 note=34 velocity=0 time=120
note_on channel=0 note=36 velocity=72 time=0
note_on channel=0 note=82 velocity=0 time=60
note_on channel=0 note=84 velocity=0 time=0
note_on channel=0 note=72 velocity=0 time=0
note_on channel=0 note=76 velocity=0 time=0
note_on channel=0 note=36 velocity=0 time=60
note_on channel=0 note=72 velocity=68 time=0
note_on channel=0 note=76 velocity=81 time=0
note_on channel=0 note=82 velocity=81 time=0
note_on channel=0 note=84 velocity=97 time=0
note_on channel=0 note=38 velocity=74 time=0
note_on channel=0 note=38 velocity=0 time=120
note_on channel=0 note=40 velocity=75 time=0
note_on channel=0 note=82 velocity=0 time=60
note_on channel=0 note=84 velocity=0 time=0
note_on channel=0 note=72 velocity=0 time=0
note_on channel=0 note=76 velocity=0 time=0
note_on channel=0 note=40 velocity=0 time=60
note_on channel=0 note=72 velocity=69 time=0
note_on channel=0 note=76 velocity=82 time=0
note_on channel=0 note=82 velocity=82 time=0
note_on channel=0 note=84 velocity=96 time=0
note_on channel=0 note=41 velocity=77 time=0
note_on channel=0 note=41 velocity=0 time=120
note_on channel=0 note=43 velocity=78 time=0
note_on channel=0 note=82 velocity=0 time=60
note_on channel=0 note=84 velocity=0 time=0
note_on channel=0 note=72 velocity=0 time=0
note_on channel=0 note=76 velocity=0 time=0
note_on channel=0 note=43 velocity=0 time=0
note_on channel=0 note=72 velocity=72 time=0
note_on channel=0 note=75 velocity=85 time=0
note_on channel=0 note=81 velocity=102 time=0
note_on channel=0 note=84 velocity=102 time=0
note_on channel=0 note=30 velocity=76 time=0
note_on channel=0 note=42 velocity=78 time=0
control_change channel=0 control=64 value=127 time=80
note_on channel=0 note=42 velocity=0 time=40
note_on channel=0 note=75 velocity=0 time=0
note_on channel=0 note=81 velocity=0 time=0
note_on channel=0 note=72 velocity=0 time=0
note_on channel=0 note=30 velocity=0 time=0
note_on channel=0 note=84 velocity=0 time=0
note_on channel=0 note=57 velocity=70 time=0
note_on channel=0 note=57 velocity=0 time=40
note_on channel=0 note=60 velocity=71 time=0
note_on channel=0 note=60 velocity=0 time=120
note_on channel=0 note=63 velocity=72 time=0
note_on channel=0 note=63 velocity=0 time=40
note_on channel=0 note=66 velocity=72 time=0
note_on channel=0 note=66 velocity=0 time=120
note_on channel=0 note=69 velocity=72 time=0
note_on channel=0 note=69 velocity=0 time=40
note_on channel=0 note=72 velocity=73 time=0
note_on channel=0 note=72 velocity=0 time=120
note_on channel=0 note=75 velocity=74 time=0
note_on channel=0 note=75 velocity=0 time=40
note_on channel=0 note=78 velocity=75 time=0
note_on channel=0 note=78 velocity=0 time=120
note_on channel=0 note=81 velocity=77 time=0
note_on channel=0 note=81 velocity=0 time=40
note_on channel=0 note=84 velocity=79 time=0
note_on channel=0 note=84 velocity=0 time=120
note_on channel=0 note=87 velocity=81 time=0
note_on channel=0 note=87 velocity=0 time=40
note_on channel=0 note=90 velocity=83 time=0
note_on channel=0 note=90 velocity=0 time=120
note_on channel=0 note=87 velocity=83 time=0
note_on channel=0 note=87 velocity=0 time=40
note_on channel=0 note=84 velocity=82 time=0
note_on channel=0 note=84 velocity=0 time=120
note_on channel=0 note=81 velocity=81 time=0
note_on channel=0 note=81 velocity=0 time=0
note_on channel=0 note=78 velocity=81 time=0
note_on channel=0 note=78 velocity=0 time=120
note_on channel=0 note=75 velocity=80 time=0
note_on channel=0 note=75 velocity=0 time=0
note_on channel=0 note=72 velocity=79 time=0
note_on channel=0 note=72 velocity=0 time=120
note_on channel=0 note=69 velocity=78 time=0
note_on channel=0 note=69 velocity=0 time=0
note_on channel=0 note=66 velocity=77 time=0
note_on channel=0 note=66 velocity=0 time=120
note_on channel=0 note=63 velocity=76 time=0
note_on channel=0 note=63 velocity=0 time=0
note_on channel=0 note=60 velocity=75 time=0
note_on channel=0 note=60 velocity=0 time=120
note_on channel=0 note=57 velocity=69 time=0
note_on channel=0 note=57 velocity=0 time=0
note_on channel=0 note=54 velocity=68 time=0
note_on channel=0 note=54 velocity=0 time=120
note_on channel=0 note=51 velocity=68 time=0
note_on channel=0 note=51 velocity=0 time=0
note_on channel=0 note=48 velocity=67 time=0
note_on channel=0 note=48 velocity=0 time=120
note_on channel=0 note=45 velocity=66 time=0
note_on channel=0 note=45 velocity=0 time=0
note_on channel=0 note=42 velocity=66 time=0
note_on channel=0 note=42 velocity=0 time=120
note_on channel=0 note=39 velocity=65 time=0
note_on channel=0 note=39 velocity=0 time=0
note_on channel=0 note=36 velocity=64 time=0
note_on channel=0 note=36 velocity=0 time=120
note_on channel=0 note=33 velocity=63 time=0
note_on channel=0 note=33 velocity=0 time=0
note_on channel=0 note=30 velocity=60 time=0
control_change channel=0 control=64 value=0 time=0
control_change channel=0 control=64 value=127 time=0
note_on channel=0 note=30 velocity=0 time=80
note_on channel=0 note=39 velocity=59 time=0
note_on channel=0 note=39 velocity=0 time=120
note_on channel=0 note=36 velocity=58 time=0
note_on channel=0 note=36 velocity=0 time=120
note_on channel=0 note=33 velocity=57 time=0
note_on channel=0 note=33 velocity=0 time=80
note_on channel=0 note=30 velocity=56 time=0
control_change channel=0 control=64 value=0 time=14
control_change channel=0 control=64 value=127 time=55
note_on channel=0 note=30 velocity=0 time=51
note_on channel=0 note=39 velocity=54 time=0
note_on channel=0 note=39 velocity=0 time=120
note_on channel=0 note=36 velocity=53 time=0
note_on channel=0 note=36 velocity=0 time=80
note_on channel=0 note=33 velocity=52 time=0
note_on channel=0 note=33 velocity=0 time=120
note_on channel=0 note=30 velocity=51 time=0
control_change channel=0 control=64 value=0 time=17
control_change channel=0 control=64 value=127 time=46
note_on channel=0 note=30 velocity=0 time=57
note_on channel=0 note=39 velocity=47 time=0
note_on channel=0 note=39 velocity=0 time=80
note_on channel=0 note=36 velocity=47 time=0
note_on channel=0 note=36 velocity=0 time=120
note_on channel=0 note=33 velocity=43 time=0
note_on channel=0 note=33 velocity=0 time=120
note_on channel=0 note=30 velocity=47 time=0
control_change channel=0 control=64 value=0 time=16
control_change channel=0 control=64 value=127 time=52
note_on channel=0 note=30 velocity=0 time=28
note_on channel=0 note=39 velocity=41 time=0
note_on channel=0 note=39 velocity=0 time=120
note_on channel=0 note=36 velocity=39 time=0
note_on channel=0 note=36 velocity=0 time=0
note_on channel=0 note=33 velocity=38 time=0
note_on channel=0 note=33 velocity=0 time=0
note_on channel=0 note=29 velocity=39 time=0
control_change channel=0 control=64 value=0 time=23
note_on channel=0 note=57 velocity=40 time=97
note_on channel=0 note=57 velocity=0 time=40
note_on channel=0 note=60 velocity=37 time=0
note_on channel=0 note=60 velocity=0 time=0
note_on channel=0 note=63 velocity=37 time=0
note_on channel=0 note=63 velocity=0 time=0
note_on channel=0 note=29 velocity=0 time=0
note_on channel=0 note=66 velocity=40 time=0
note_on channel=0 note=66 velocity=0 time=120
note_on channel=0 note=68 velocity=38 time=0
note_on channel=0 note=68 velocity=0 time=120
note_on channel=0 note=66 velocity=38 time=0
note_on channel=0 note=66 velocity=0 time=40
note_on channel=0 note=65 velocity=38 time=0
note_on channel=0 note=65 velocity=0 time=120
note_on channel=0 note=63 velocity=40 time=0
note_on channel=0 note=63 velocity=0 time=120
note_on channel=0 note=65 velocity=37 time=0
note_on channel=0 note=65 velocity=0 time=80
note_on channel=0 note=63 velocity=37 time=0
note_on channel=0 note=63 velocity=0 time=120
note_on channel=0 note=61 velocity=37 time=0
note_on channel=0 note=61 velocity=0 time=0
note_on channel=0 note=60 velocity=40 time=0
note_on channel=0 note=60 velocity=0 time=120
note_on channel=0 note=61 velocity=37 time=0
note_on channel=0 note=61 velocity=0 time=120
note_on channel=0 note=63 velocity=37 time=0
note_on channel=0 note=63 velocity=0 time=0
note_on channel=0 note=60 velocity=37 time=0
note_on channel=0 note=41 velocity=35 time=0
note_on channel=0 note=41 velocity=0 time=0
note_on channel=0 note=60 velocity=0 time=0
note_on channel=0 note=29 velocity=40 time=0
note_on channel=0 note=57 velocity=40 time=120
note_on channel=0 note=57 velocity=0 time=80
note_on channel=0 note=60 velocity=37 time=0
note_on channel=0 note=60 velocity=0 time=80
note_on channel=0 note=63 velocity=37 time=0
note_on channel=0 note=63 velocity=0 time=0
note_on channel=0 note=29 velocity=0 time=0
note_on channel=0 note=66 velocity=40 time=0
note_on channel=0 note=66 velocity=0 time=0
note_on channel=0 note=68 velocity=38 time=0
note_on channel=0 note=68 velocity=0 time=120
note_on channel=0 note=66 velocity=38 time=0
note_on channel=0 note=66 velocity=0 time=120
note_on channel=0 note=65 velocity=38 time=0
note_on channel=0 note=65 velocity=0 time=40
note_on channel=0 note=63 velocity=40 time=0
note_on channel=0 note=63 velocity=0 time=120
note_on channel=0 note=65 velocity=37 time=0
note_on channel=0 note=65 velocity=0 time=0
note_on channel=0 note=63 velocity=37 time=0
note_on channel=0 note=63 velocity=0 time=120
note_on channel=0 note=61 velocity=37 time=0
note_on channel=0 note=61 velocity=0 time=120
note_on channel=0 note=60 velocity=40 time=0
note_on channel=0 note=60 velocity=0 time=80
note_on channel=0 note=61 velocity=37 time=0
note_on channel=0 note=61 velocity=0 time=120
note_on channel=0 note=63 velocity=37 time=0
note_on channel=0 note=63 velocity=0 time=0
note_on channel=0 note=60 velocity=37 time=0
note_on channel=0 note=41 velocity=35 time=0
note_on channel=0 note=41 velocity=0 time=0
note_on channel=0 note=60 velocity=0 time=0
note_on channel=0 note=29 velocity=40 time=0
note_on channel=0 note=57 velocity=47 time=0
note_on channel=0 note=57 velocity=0 time=120
note_on channel=0 note=60 velocity=49 time=0
note_on channel=0 note=60 velocity=0 time=40
note_on channel=0 note=63 velocity=50 time=0
note_on channel=0 note=63 velocity=0 time=0
note_on channel=0 note=29 velocity=0 time=0
note_on channel=0 note=66 velocity=52 time=0
note_on channel=0 note=66 velocity=0 time=120
note_on channel=0 note=68 velocity=54 time=0
note_on channel=0 note=68 velocity=0 time=120
note_on channel=0 note=66 velocity=56 time=0
note_on channel=0 note=57 velocity=38 time=0
note_on channel=0 note=57 velocity=0 time=0
note_on channel=0 note=66 velocity=0 time=0
note_on channel=0 note=65 velocity=58 time=0
note_on channel=0 note=58 velocity=42 time=0
note_on channel=0 note=58 velocity=0 time=0
note_on channel=0 note=65 velocity=0 time=0
note_on channel=0 note=63 velocity=67 time=0
note_on channel=0 note=60 velocity=49 time=0
note_on channel=0 note=60 velocity=0 time=120
note_on channel=0 note=61 velocity=42 time=0
note_on channel=0 note=61 velocity=0 time=80
note_on channel=0 note=63 velocity=0 time=0
note_on channel=0 note=63 velocity=47 time=0
note_on channel=0 note=60 velocity=43 time=0
note_on channel=0 note=60 velocity=0 time=120
note_on channel=0 note=63 velocity=0 time=0
note_on channel=0 note=65 velocity=49 time=0
note_on channel=0 note=58 velocity=43 time=0
note_on channel=0 note=58 velocity=0 time=0
note_on channel=0 note=65 velocity=0 time=0
note_on channel=0 note=66 velocity=52 time=0
note_on channel=0 note=57 velocity=47 time=0
note_on channel=0 note=66 velocity=0 time=120
note_on channel=0 note=68 velocity=54 time=0
note_on channel=0 note=68 velocity=0 time=120
note_on channel=0 note=57 velocity=0 time=0
note_on channel=0 note=66 velocity=56 time=0
note_on channel=0 note=57 velocity=41 time=0
note_on channel=0 note=57 velocity=0 time=0
note_on channel=0 note=66 velocity=0 time=0
note_on channel=0 note=65 velocity=59 time=0
note_on channel=0 note=58 velocity=46 time=0
note_on channel=0 note=58 velocity=0 time=0
note_on channel=0 note=65 velocity=0 time=0
note_on channel=0 note=63 velocity=67 time=0
note_on channel=0 note=60 velocity=53 time=0
note_on channel=0 note=60 velocity=0 time=120
note_on channel=0 note=61 velocity=42 time=0
note_on channel=0 note=61 velocity=0 time=80
note_on channel=0 note=63 velocity=0 time=0
note_on channel=0 note=63 velocity=50 time=0
note_on channel=0 note=60 velocity=43 time=0
note_on channel=0 note=60 velocity=0 time=120
note_on channel=0 note=63 velocity=0 time=0
note_on channel=0 note=65 velocity=50 time=0
note_on channel=0 note=58 velocity=43 time=0
note_on channel=0 note=58 velocity=0 time=0
note_on channel=0 note=65 velocity=0 time=0
note_on channel=0 note=66 velocity=56 time=0
note_on channel=0 note=57 velocity=47 time=0
note_on channel=0 note=66 velocity=0 time=120
note_on channel=0 note=68 velocity=49 time=0
note_on channel=0 note=68 velocity=0 time=120
note_on channel=0 note=57 velocity=0 time=0
note_on channel=0 note=66 velocity=50 time=0
note_on channel=0 note=57 velocity=43 time=0
note_on channel=0 note=57 velocity=0 time=0
note_on channel=0 note=66 velocity=0 time=0
note_on channel=0 note=65 velocity=50 time=0
note_on channel=0 note=58 velocity=47 time=0
note_on channel=0 note=58 velocity=0 time=0
note_on channel=0 note=65 velocity=0 time=0
note_on channel=0 note=63 velocity=67 time=0
note_on channel=0 note=60 velocity=52 time=0
note_on channel=0 note=60 velocity=0 time=120
note_on channel=0 note=61 velocity=42 time=0
note_on channel=0 note=61 velocity=0 time=0
note_on channel=0 note=63 velocity=0 time=0
note_on channel=0 note=66 velocity=56 time=0
note_on channel=0 note=78 velocity=56 time=0
note_on channel=0 note=60 velocity=43 time=0
control_change channel=0 control=64 value=127 time=35
note_on channel=0 note=60 velocity=0 time=85
note_on channel=0 note=58 velocity=43 time=0
note_on channel=0 note=58 velocity=0 time=0
note_on channel=0 note=78 velocity=0 time=0
note_on channel=0 note=66 velocity=0 time=0
note_on channel=0 note=65 velocity=60 time=0
note_on channel=0 note=77 velocity=60 time=0
note_on channel=0 note=57 velocity=44 time=0
control_change channel=0 control=64 value=0 time=12
control_change channel=0 control=64 value=127 time=45
note_on channel=0 note=57 velocity=0 time=63
note_on channel=0 note=54 velocity=42 time=0
note_on channel=0 note=54 velocity=0 time=120
note_on channel=0 note=77 velocity=0 time=0
note_on channel=0 note=65 velocity=0 time=0
note_on channel=0 note=69 velocity=54 time=0
note_on channel=0 note=81 velocity=54 time=0
note_on channel=0 note=53 velocity=41 time=0
note_on channel=0 note=53 velocity=0 time=120
note_on channel=0 note=51 velocity=39 time=0
note_on channel=0 note=51 velocity=0 time=0
note_on channel=0 note=81 velocity=0 time=0
note_on channel=0 note=69 velocity=0 time=0
note_on channel=0 note=82 velocity=56 time=0
note_on channel=0 note=70 velocity=56 time=0
note_on channel=0 note=49 velocity=44 time=0
control_change channel=0 control=64 value=0 time=8
control_change channel=0 control=64 value=127 time=72
note_on channel=0 note=70 velocity=0 time=0
note_on channel=0 note=82 velocity=0 time=0
note_on channel=0 note=65 velocity=51 time=0
note_on channel=0 note=53 velocity=32 time=0
note_on channel=0 note=53 velocity=0 time=20
note_on channel=0 note=65 velocity=0 time=0
note_on channel=0 note=70 velocity=52 time=0
note_on channel=0 note=58 velocity=33 time=0
note_on channel=0 note=58 velocity=0 time=40
note_on channel=0 note=70 velocity=0 time=0
note_on channel=0 note=73 velocity=53 time=0
note_on channel=0 note=53 velocity=34 time=0
note_on channel=0 note=53 velocity=0 time=40
note_on channel=0 note=73 velocity=0 time=0
note_on channel=0 note=77 velocity=57 time=0
note_on channel=0 note=58 velocity=38 time=0
note_on channel=0 note=58 velocity=0 time=60
note_on channel=0 note=77 velocity=0 time=0
note_on channel=0 note=78 velocity=55 time=0
note_on channel=0 note=53 velocity=37 time=0
note_on channel=0 note=53 velocity=0 time=80
note_on channel=0 note=78 velocity=0 time=0
note_on channel=0 note=77 velocity=56 time=0
note_on channel=0 note=58 velocity=38 time=0
note_on channel=0 note=58 velocity=0 time=80
note_on channel=0 note=77 velocity=0 time=0
note_on channel=0 note=75 velocity=55 time=0
note_on channel=0 note=53 velocity=38 time=0
note_on channel=0 note=53 velocity=0 time=0
note_on channel=0 note=75 velocity=0 time=0
note_on channel=0 note=73 velocity=57 time=0
note_on channel=0 note=58 velocity=39 time=0
control_change channel=0 control=64 value=0 time=9
control_change channel=0 control=64 value=127 time=32
note_on channel=0 note=58 velocity=0 time=0
note_on channel=0 note=73 velocity=0 time=0
note_on channel=0 note=75 velocity=56 time=0
note_on channel=0 note=53 velocity=39 time=0
note_on channel=0 note=53 velocity=0 time=20
note_on channel=0 note=75 velocity=0 time=0
note_on channel=0 note=73 velocity=56 time=0
note_on channel=0 note=58 velocity=38 time=0
note_on channel=0 note=58 velocity=0 time=20
note_on channel=0 note=73 velocity=0 time=0
note_on channel=0 note=72 velocity=55 time=0
note_on channel=0 note=53 velocity=38 time=0
note_on channel=0 note=53 velocity=0 time=40
note_on channel=0 note=72 velocity=0 time=0
note_on channel=0 note=70 velocity=54 time=0
note_on channel=0 note=58 velocity=38 time=0
note_on channel=0 note=58 velocity=0 time=0
note_on channel=0 note=70 velocity=0 time=0
note_on channel=0 note=72 velocity=53 time=0
note_on channel=0 note=53 velocity=37 time=0
note_on channel=0 note=53 velocity=0 time=20
note_on channel=0 note=72 velocity=0 time=0
note_on channel=0 note=73 velocity=53 time=0
note_on channel=0 note=58 velocity=37 time=0
note_on channel=0 note=58 velocity=0 time=20
note_on channel=0 note=73 velocity=0 time=0
note_on channel=0 note=70 velocity=52 time=0
note_on channel=0 note=53 velocity=36 time=0
note_on channel=0 note=53 velocity=0 time=0
note_on channel=0 note=70 velocity=0 time=0
note_on channel=0 note=49 velocity=0 time=0
note_on channel=0 note=49 velocity=44 time=0
control_change channel=0 control=64 value=0 time=11
control_change channel=0 control=64 value=127 time=46
note_on channel=0 note=65 velocity=51 time=0
note_on channel=0 note=53 velocity=32 time=0
note_on channel=0 note=53 velocity=0 time=20
note_on channel=0 note=65 velocity=0 time=0
note_on channel=0 note=70 velocity=52 time=0
note_on channel=0 note=58 velocity=33 time=0
note_on channel=0 note=58 velocity=0 time=40
note_on channel=0 note=70 velocity=0 time=0
note_on channel=0 note=73 velocity=53 time=0
note_on channel=0 note=53 velocity=34 time=0
note_on channel=0 note=53 velocity=0 time=40
note_on channel=0 note=73 velocity=0 time=0
note_on channel=0 note=77 velocity=57 time=0
note_on channel=0 note=58 velocity=38 time=0
note_on channel=0 note=58 velocity=0 time=60
note_on channel=0 note=77 velocity=0 time=0
note_on channel=0 note=78 velocity=55 time=0
note_on channel=0 note=53 velocity=37 time=0
note_on channel=0 note=53 velocity=0 time=80
note_on channel=0 note=78 velocity=0 time=0
note_on channel=0 note=77 velocity=56 time=0
note_on channel=0 note=58 velocity=38 time=0
note_on channel=0 note=58 velocity=0 time=80
note_on channel=0 note=77 velocity=0 time=0
note_on channel=0 note=75 velocity=55 time=0
note_on channel=0 note=53 velocity=38 time=0
note_on channel=0 note=53 velocity=0 time=0
note_on channel=0 note=75 velocity=0 time=0
note_on channel=0 note=73 velocity=57 time=0
note_on channel=0 note=58 velocity=39 time=0
control_change channel=0 control=64 value=0 time=13
control_change channel=0 control=64 value=127 time=11
note_on channel=0 note=58 velocity=0 time=0
note_on channel=0 note=73 velocity=0 time=0
note_on channel=0 note=75 velocity=56 time=0
note_on channel=0 note=53 velocity=39 time=0
note_on channel=0 note=53 velocity=0 time=20
note_on channel=0 note=75 velocity=0 time=0
note_on channel=0 note=73 velocity=56 time=0
note_on channel=0 note=58 velocity=38 time=0
note_on channel=0 note=58 velocity=0 time=20
note_on channel=0 note=73 velocity=0 time=0
note_on channel=0 note=72 velocity=55 time=0
note_on channel=0 note=53 velocity=38 time=0
note_on channel=0 note=53 velocity=0 time=40
note_on channel=0 note=72 velocity=0 time=0
note_on channel=0 note=70 velocity=54 time=0
note_on channel=0 note=58 velocity=38 time=0
note_on channel=0 note=58 velocity=0 time=0
note_on channel=0 note=70 velocity=0 time=0
note_on channel=0 note=72 velocity=53 time=0
note_on channel=0 note=53 velocity=37 time=0
note_on channel=0 note=53 velocity=0 time=20
note_on channel=0 note=72 velocity=0 time=0
note_on channel=0 note=73 velocity=53 time=0
note_on channel=0 note=58 velocity=37 time=0
note_on channel=0 note=58 velocity=0 time=20
note_on channel=0 note=73 velocity=0 time=0
note_on channel=0 note=70 velocity=52 time=0
note_on channel=0 note=53 velocity=36 time=0
note_on channel=0 note=53 velocity=0 time=0
note_on channel=0 note=70 velocity=0 time=0
note_on channel=0 note=49 velocity=0 time=0
note_on channel=0 note=51 velocity=44 time=0
control_change channel=0 control=64 value=0 time=13
control_change channel=0 control=64 value=127 time=50
note_on channel=0 note=66 velocity=51 time=0
note_on channel=0 note=54 velocity=32 time=0
note_on channel=0 note=54 velocity=0 time=20
note_on channel=0 note=66 velocity=0 time=0
note_on channel=0 note=71 velocity=53 time=0
note_on channel=0 note=59 velocity=33 time=0
note_on channel=0 note=59 velocity=0 time=40
note_on channel=0 note=71 velocity=0 time=0
note_on channel=0 note=75 velocity=54 time=0
note_on channel=0 note=54 velocity=35 time=0
note_on channel=0 note=54 velocity=0 time=40
note_on channel=0 note=75 velocity=0 time=0
note_on channel=0 note=78 velocity=59 time=0
note_on channel=0 note=59 velocity=39 time=0
note_on channel=0 note=59 velocity=0 time=60
note_on channel=0 note=78 velocity=0 time=0
note_on channel=0 note=80 velocity=58 time=0
note_on channel=0 note=54 velocity=39 time=0
note_on channel=0 note=54 velocity=0 time=80
note_on channel=0 note=80 velocity=0 time=0
note_on channel=0 note=78 velocity=59 time=0
note_on channel=0 note=59 velocity=40 time=0
note_on channel=0 note=59 velocity=0 time=80
note_on channel=0 note=78 velocity=0 time=0
note_on channel=0 note=77 velocity=59 time=0
note_on channel=0 note=54 velocity=41 time=0
note_on channel=0 note=54 velocity=0 time=0
note_on channel=0 note=77 velocity=0 time=0
note_on channel=0 note=75 velocity=62 time=0
note_on channel=0 note=59 velocity=42 time=0
control_change channel=0 control=64 value=0 time=10
control_change channel=0 control=64 value=127 time=9
note_on channel=0 note=59 velocity=0 time=0
note_on channel=0 note=75 velocity=0 time=0
note_on channel=0 note=77 velocity=62 time=0
note_on channel=0 note=54 velocity=43 time=0
note_on channel=0 note=54 velocity=0 time=20
note_on channel=0 note=77 velocity=0 time=0
note_on channel=0 note=75 velocity=62 time=0
note_on channel=0 note=59 velocity=42 time=0
note_on channel=0 note=59 velocity=0 time=20
note_on channel=0 note=75 velocity=0 time=0
note_on channel=0 note=73 velocity=62 time=0
note_on channel=0 note=54 velocity=42 time=0
note_on channel=0 note=54 velocity=0 time=40
note_on channel=0 note=73 velocity=0 time=0
note_on channel=0 note=71 velocity=62 time=0
note_on channel=0 note=59 velocity=43 time=0
note_on channel=0 note=59 velocity=0 time=0
note_on channel=0 note=71 velocity=0 time=0
note_on channel=0 note=73 velocity=61 time=0
note_on channel=0 note=54 velocity=42 time=0
note_on channel=0 note=54 velocity=0 time=20
note_on channel=0 note=73 velocity=0 time=0
note_on channel=0 note=75 velocity=64 time=0
note_on channel=0 note=59 velocity=45 time=0
note_on channel=0 note=59 velocity=0 time=20
note_on channel=0 note=75 velocity=0 time=0
note_on channel=0 note=71 velocity=61 time=0
note_on channel=0 note=54 velocity=42 time=0
note_on channel=0 note=54 velocity=0 time=0
note_on channel=0 note=71 velocity=0 time=0
note_on channel=0 note=51 velocity=0 time=0
note_on channel=0 note=70 velocity=68 time=0
note_on channel=0 note=53 velocity=46 time=0
control_change channel=0 control=64 value=0 time=17
control_change channel=0 control=64 value=127 time=63
note_on channel=0 note=70 velocity=0 time=0
note_on channel=0 note=72 velocity=64 time=0
note_on channel=0 note=58 velocity=46 time=0
note_on channel=0 note=58 velocity=0 time=0
note_on channel=0 note=72 velocity=0 time=0
note_on channel=0 note=70 velocity=66 time=0
note_on channel=0 note=61 velocity=44 time=0
note_on channel=0 note=61 velocity=0 time=0
note_on channel=0 note=70 velocity=0 time=0
note_on channel=0 note=69 velocity=64 time=0
note_on channel=0 note=58 velocity=44 time=0
note_on channel=0 note=58 velocity=0 time=0
note_on channel=0 note=69 velocity=0 time=0
note_on channel=0 note=70 velocity=62 time=0
note_on channel=0 note=61 velocity=43 time=0
note_on channel=0 note=61 velocity=0 time=0
note_on channel=0 note=70 velocity=0 time=0
note_on channel=0 note=72 velocity=60 time=0
note_on channel=0 note=58 velocity=42 time=0
note_on channel=0 note=58 velocity=0 time=0
note_on channel=0 note=72 velocity=0 time=0
note_on channel=0 note=73 velocity=59 time=0
note_on channel=0 note=61 velocity=41 time=0
note_on channel=0 note=61 velocity=0 time=0
note_on channel=0 note=73 velocity=0 time=0
note_on channel=0 note=70 velocity=58 time=0
note_on channel=0 note=58 velocity=40 time=0
note_on channel=0 note=58 velocity=0 time=0
note_on channel=0 note=70 velocity=0 time=0
note_on channel=0 note=53 velocity=0 time=0
note_on channel=0 note=69 velocity=62 time=0
note_on channel=0 note=51 velocity=42 time=0
control_change channel=0 control=64 value=0 time=10
control_change channel=0 control=64 value=127 time=59
note_on channel=0 note=69 velocity=0 time=0
note_on channel=0 note=70 velocity=61 time=0
note_on channel=0 note=53 velocity=42 time=0
note_on channel=0 note=53 velocity=0 time=40
note_on channel=0 note=70 velocity=0 time=0
note_on channel=0 note=69 velocity=60 time=0
note_on channel=0 note=60 velocity=41 time=0
note_on channel=0 note=60 velocity=0 time=80
note_on channel=0 note=69 velocity=0 time=0
note_on channel=0 note=67 velocity=58 time=0
note_on channel=0 note=53 velocity=40 time=0
note_on channel=0 note=53 velocity=0 time=0
note_on channel=0 note=67 velocity=0 time=0
note_on channel=0 note=69 velocity=56 time=0
note_on channel=0 note=60 velocity=39 time=0
note_on channel=0 note=60 velocity=0 time=40
note_on channel=0 note=69 velocity=0 time=0
note_on channel=0 note=70 velocity=55 time=0
note_on channel=0 note=53 velocity=38 time=0
note_on channel=0 note=53 velocity=0 time=40
note_on channel=0 note=70 velocity=0 time=0
note_on channel=0 note=72 velocity=54 time=0
note_on channel=0 note=60 velocity=38 time=0
note_on channel=0 note=60 velocity=0 time=0
note_on channel=0 note=72 velocity=0 time=0
note_on channel=0 note=69 velocity=53 time=0
note_on channel=0 note=53 velocity=36 time=0
note_on channel=0 note=53 velocity=0 time=0
note_on channel=0 note=69 velocity=0 time=0
note_on channel=0 note=51 velocity=0 time=0
note_on channel=0 note=70 velocity=61 time=0
note_on channel=0 note=49 velocity=48 time=0
control_change channel=0 control=64 value=0 time=17
control_change channel=0 control=64 value=127 time=18
note_on channel=0 note=49 velocity=0 time=80
note_on channel=0 note=65 velocity=48 time=0
note_on channel=0 note=65 velocity=0 time=120
note_on channel=0 note=70 velocity=0 time=0
note_on channel=0 note=70 velocity=57 time=0
note_on channel=0 note=70 velocity=0 time=80
note_on channel=0 note=73 velocity=58 time=0
note_on channel=0 note=73 velocity=0 time=0
note_on channel=0 note=77 velocity=62 time=0
note_on channel=0 note=58 velocity=58 time=0
note_on channel=0 note=77 velocity=0 time=120
note_on channel=0 note=78 velocity=60 time=0
note_on channel=0 note=61 velocity=40 time=0
note_on channel=0 note=61 velocity=0 time=0
note_on channel=0 note=78 velocity=0 time=0
note_on channel=0 note=77 velocity=61 time=0
note_on channel=0 note=65 velocity=41 time=0
note_on channel=0 note=65 velocity=0 time=120
note_on channel=0 note=77 velocity=0 time=0
note_on channel=0 note=75 velocity=61 time=0
note_on channel=0 note=61 velocity=41 time=0
note_on channel=0 note=61 velocity=0 time=0
note_on channel=0 note=75 velocity=0 time=0
note_on channel=0 note=58 velocity=0 time=0
note_on channel=0 note=73 velocity=63 time=0
note_on channel=0 note=57 velocity=63 time=0
control_change channel=0 control=64 value=0 time=9
control_change channel=0 control=64 value=127 time=62
note_on channel=0 note=73 velocity=0 time=0
note_on channel=0 note=75 velocity=62 time=0
note_on channel=0 note=61 velocity=42 time=0
note_on channel=0 note=61 velocity=0 time=0
note_on channel=0 note=75 velocity=0 time=0
note_on channel=0 note=73 velocity=62 time=0
note_on channel=0 note=65 velocity=42 time=0
note_on channel=0 note=65 velocity=0 time=0
note_on channel=0 note=73 velocity=0 time=0
note_on channel=0 note=72 velocity=61 time=0
note_on channel=0 note=61 velocity=42 time=0
note_on channel=0 note=61 velocity=0 time=0
note_on channel=0 note=72 velocity=0 time=0
note_on channel=0 note=57 velocity=0 time=0
note_on channel=0 note=82 velocity=71 time=0
note_on channel=0 note=70 velocity=71 time=0
note_on channel=0 note=58 velocity=55 time=0
note_on channel=0 note=70 velocity=0 time=0
note_on channel=0 note=72 velocity=60 time=0
note_on channel=0 note=61 velocity=41 time=0
note_on channel=0 note=61 velocity=0 time=0
note_on channel=0 note=72 velocity=0 time=0
note_on channel=0 note=82 velocity=0 time=0
note_on channel=0 note=73 velocity=61 time=0
note_on channel=0 note=65 velocity=41 time=0
note_on channel=0 note=65 velocity=0 time=20
note_on channel=0 note=73 velocity=0 time=0
note_on channel=0 note=70 velocity=60 time=0
note_on channel=0 note=61 velocity=41 time=0
note_on channel=0 note=61 velocity=0 time=0
note_on channel=0 note=70 velocity=0 time=0
note_on channel=0 note=58 velocity=0 time=0
note_on channel=0 note=81 velocity=74 time=0
note_on channel=0 note=49 velocity=51 time=0
control_change channel=0 control=64 value=0 time=16
control_change channel=0 control=64 value=127 time=59
note_on channel=0 note=49 velocity=0 time=0
note_on channel=0 note=65 velocity=52 time=0
note_on channel=0 note=65 velocity=0 time=0
note_on channel=0 note=81 velocity=0 time=0
note_on channel=0 note=70 velocity=63 time=0
note_on channel=0 note=70 velocity=0 time=0
note_on channel=0 note=73 velocity=65 time=0
note_on channel=0 note=73 velocity=0 time=0
note_on channel=0 note=82 velocity=73 time=0
note_on channel=0 note=77 velocity=73 time=0
note_on channel=0 note=58 velocity=68 time=0
note_on channel=0 note=77 velocity=0 time=0
note_on channel=0 note=78 velocity=68 time=0
note_on channel=0 note=61 velocity=45 time=0
note_on channel=0 note=61 velocity=0 time=0
note_on channel=0 note=78 velocity=0 time=0
note_on channel=0 note=82 velocity=0 time=0
note_on channel=0 note=77 velocity=71 time=0
note_on channel=0 note=65 velocity=47 time=0
note_on channel=0 note=65 velocity=0 time=0
note_on channel=0 note=77 velocity=0 time=0
note_on channel=0 note=75 velocity=70 time=0
note_on channel=0 note=61 velocity=48 time=0
note_on channel=0 note=61 velocity=0 time=40
note_on channel=0 note=75 velocity=0 time=0
note_on channel=0 note=58 velocity=0 time=0
note_on channel=0 note=73 velocity=73 time=0
note_on channel=0 note=57 velocity=74 time=0
control_change channel=0 control=64 value=0 time=10
control_change channel=0 control=64 value=127 time=45
note_on channel=0 note=73 velocity=0 time=0
note_on channel=0 note=75 velocity=72 time=0
note_on channel=0 note=61 velocity=50 time=0
note_on channel=0 note=61 velocity=0 time=40
note_on channel=0 note=75 velocity=0 time=0
note_on channel=0 note=73 velocity=74 time=0
note_on channel=0 note=65 velocity=49 time=0
note_on channel=0 note=65 velocity=0 time=0
note_on channel=0 note=73 velocity=0 time=0
note_on channel=0 note=72 velocity=74 time=0
note_on channel=0 note=61 velocity=50 time=0
note_on channel=0 note=61 velocity=0 time=0
note_on channel=0 note=72 velocity=0 time=0
note_on channel=0 note=57 velocity=0 time=0
note_on channel=0 note=82 velocity=88 time=0
note_on channel=0 note=70 velocity=73 time=0
note_on channel=0 note=58 velocity=77 time=0
note_on channel=0 note=70 velocity=0 time=40
note_on channel=0 note=72 velocity=73 time=0
note_on channel=0 note=61 velocity=50 time=0
note_on channel=0 note=61 velocity=0 time=0
note_on channel=0 note=72 velocity=0 time=0
note_on channel=0 note=82 velocity=0 time=0
note_on channel=0 note=73 velocity=74 time=0
note_on channel=0 note=65 velocity=51 time=0
note_on channel=0 note=65 velocity=0 time=20
note_on channel=0 note=73 velocity=0 time=0
note_on channel=0 note=70 velocity=73 time=0
note_on channel=0 note=61 velocity=50 time=0
note_on channel=0 note=61 velocity=0 time=0
note_on channel=0 note=70 velocity=0 time=0
note_on channel=0 note=58 velocity=0 time=0
note_on channel=0 note=71 velocity=88 time=0
note_on channel=0 note=83 velocity=88 time=0
note_on channel=0 note=51 velocity=70 time=0
control_change channel=0 control=64 value=0 time=14
control_change channel=0 control=64 value=127 time=55
note_on channel=0 note=51 velocity=0 time=51
note_on channel=0 note=83 velocity=0 time=0
note_on channel=0 note=71 velocity=0 time=0
note_on channel=0 note=78 velocity=74 time=0
note_on channel=0 note=66 velocity=55 time=0
note_on channel=0 note=71 velocity=55 time=0
note_on channel=0 note=71 velocity=0 time=80
note_on channel=0 note=66 velocity=0 time=0
note_on channel=0 note=78 velocity=0 time=0
note_on channel=0 note=83 velocity=76 time=0
note_on channel=0 note=63 velocity=59 time=0
note_on channel=0 note=63 velocity=0 time=80
note_on channel=0 note=83 velocity=0 time=0
note_on channel=0 note=87 velocity=78 time=0
note_on channel=0 note=66 velocity=55 time=0
note_on channel=0 note=71 velocity=55 time=0
note_on channel=0 note=71 velocity=0 time=40
note_on channel=0 note=66 velocity=0 time=0
note_on channel=0 note=87 velocity=0 time=0
note_on channel=0 note=90 velocity=80 time=0
note_on channel=0 note=63 velocity=59 time=0
control_change channel=0 control=64 value=0 time=12
control_change channel=0 control=64 value=127 time=6
note_on channel=0 note=63 velocity=0 time=34
note_on channel=0 note=90 velocity=0 time=0
note_on channel=0 note=92 velocity=76 time=0
note_on channel=0 note=66 velocity=55 time=0
note_on channel=0 note=71 velocity=55 time=0
note_on channel=0 note=71 velocity=0 time=0
note_on channel=0 note=66 velocity=0 time=0
note_on channel=0 note=92 velocity=0 time=0
note_on channel=0 note=90 velocity=76 time=0
note_on channel=0 note=63 velocity=59 time=0
note_on channel=0 note=63 velocity=0 time=0
note_on channel=0 note=90 velocity=0 time=0
note_on channel=0 note=89 velocity=76 time=0
note_on channel=0 note=66 velocity=56 time=0
note_on channel=0 note=71 velocity=56 time=0
note_on channel=0 note=71 velocity=0 time=0
note_on channel=0 note=66 velocity=0 time=0
note_on channel=0 note=89 velocity=0 time=0
note_on channel=0 note=87 velocity=77 time=0
note_on channel=0 note=63 velocity=59 time=0
control_change channel=0 control=64 value=0 time=15
control_change channel=0 control=64 value=127 time=17
note_on channel=0 note=63 velocity=0 time=63
note_on channel=0 note=87 velocity=0 time=0
note_on channel=0 note=89 velocity=71 time=0
note_on channel=0 note=66 velocity=55 time=0
note_on channel=0 note=71 velocity=55 time=0
note_on channel=0 note=71 velocity=0 time=0
note_on channel=0 note=66 velocity=0 time=0
note_on channel=0 note=89 velocity=0 time=0
note_on channel=0 note=87 velocity=72 time=0
note_on channel=0 note=63 velocity=59 time=0
note_on channel=0 note=63 velocity=0 time=0
note_on channel=0 note=87 velocity=0 time=0
note_on channel=0 note=85 velocity=72 time=0
note_on channel=0 note=66 velocity=55 time=0
note_on channel=0 note=71 velocity=55 time=0
note_on channel=0 note=71 velocity=0 time=40
note_on channel=0 note=66 velocity=0 time=0
note_on channel=0 note=85 velocity=0 time=0
note_on channel=0 note=83 velocity=78 time=0
note_on channel=0 note=63 velocity=59 time=0
control_change channel=0 control=64 value=0 time=17
control_change channel=0 control=64 value=127 time=0
note_on channel=0 note=63 velocity=0 time=40
note_on channel=0 note=83 velocity=0 time=0
note_on channel=0 note=85 velocity=73 time=0
note_on channel=0 note=66 velocity=55 time=0
note_on channel=0 note=71 velocity=55 time=0
note_on channel=0 note=71 velocity=0 time=80
note_on channel=0 note=66 velocity=0 time=0
note_on channel=0 note=85 velocity=0 time=0
note_on channel=0 note=83 velocity=73 time=0
note_on channel=0 note=63 velocity=59 time=0
note_on channel=0 note=63 velocity=0 time=0
note_on channel=0 note=83 velocity=0 time=0
note_on channel=0 note=82 velocity=72 time=0
note_on channel=0 note=66 velocity=56 time=0
note_on channel=0 note=71 velocity=56 time=0
note_on channel=0 note=71 velocity=0 time=40
note_on channel=0 note=66 velocity=0 time=0
note_on channel=0 note=82 velocity=0 time=0
note_on channel=0 note=81 velocity=77 time=0
note_on channel=0 note=65 velocity=59 time=0
control_change channel=0 control=64 value=0 time=13
control_change channel=0 control=64 value=127 time=50
note_on channel=0 note=65 velocity=0 time=0
note_on channel=0 note=81 velocity=0 time=0
note_on channel=0 note=84 velocity=71 time=0
note_on channel=0 note=69 velocity=55 time=0
note_on channel=0 note=72 velocity=55 time=0
note_on channel=0 note=75 velocity=55 time=0
note_on channel=0 note=75 velocity=0 time=0
note_on channel=0 note=84 velocity=0 time=0
note_on channel=0 note=69 velocity=0 time=0
note_on channel=0 note=72 velocity=0 time=0
note_on channel=0 note=87 velocity=72 time=0
note_on channel=0 note=65 velocity=59 time=0
note_on channel=0 note=65 velocity=0 time=120
note_on channel=0 note=87 velocity=0 time=0
note_on channel=0 note=85 velocity=72 time=0
note_on channel=0 note=69 velocity=55 time=0
note_on channel=0 note=72 velocity=55 time=0
note_on channel=0 note=75 velocity=55 time=0
note_on channel=0 note=75 velocity=0 time=80
note_on channel=0 note=85 velocity=0 time=0
note_on channel=0 note=69 velocity=0 time=0
note_on channel=0 note=72 velocity=0 time=0
note_on channel=0 note=84 velocity=78 time=0
note_on channel=0 note=65 velocity=59 time=0
control_change channel=0 control=64 value=0 time=18
control_change channel=0 control=64 value=127 time=35
note_on channel=0 note=65 velocity=0 time=40
note_on channel=0 note=84 velocity=0 time=0
note_on channel=0 note=85 velocity=73 time=0
note_on channel=0 note=69 velocity=55 time=0
note_on channel=0 note=72 velocity=55 time=0
note_on channel=0 note=75 velocity=55 time=0
note_on channel=0 note=75 velocity=0 time=0
note_on channel=0 note=85 velocity=0 time=0
note_on channel=0 note=69 velocity=0 time=0
note_on channel=0 note=72 velocity=0 time=0
note_on channel=0 note=84 velocity=73 time=0
note_on channel=0 note=65 velocity=59 time=0
note_on channel=0 note=65 velocity=0 time=0
note_on channel=0 note=84 velocity=0 time=0
note_on channel=0 note=82 velocity=72 time=0
note_on channel=0 note=69 velocity=55 time=0
note_on channel=0 note=72 velocity=56 time=0
note_on channel=0 note=75 velocity=56 time=0
note_on channel=0 note=75 velocity=0 time=0
note_on channel=0 note=82 velocity=0 time=0
note_on channel=0 note=69 velocity=0 time=0
note_on channel=0 note=72 velocity=0 time=0
note_on channel=0 note=81 velocity=77 time=0
note_on channel=0 note=65 velocity=59 time=0
control_change channel=0 control=64 value=0 time=10
control_change channel=0 control=64 value=127 time=47
note_on channel=0 note=65 velocity=0 time=63
note_on channel=0 note=81 velocity=0 time=0
note_on channel=0 note=82 velocity=71 time=0
note_on channel=0 note=69 velocity=55 time=0
note_on channel=0 note=69 velocity=0 time=80
note_on channel=0 note=82 velocity=0 time=0
note_on channel=0 note=81 velocity=72 time=0
note_on channel=0 note=65 velocity=59 time=0
note_on channel=0 note=65 velocity=0 time=40
note_on channel=0 note=81 velocity=0 time=0
note_on channel=0 note=78 velocity=72 time=0
note_on channel=0 note=69 velocity=55 time=0
note_on channel=0 note=69 velocity=0 time=120
note_on channel=0 note=78 velocity=0 time=0
note_on channel=0 note=77 velocity=74 time=0
note_on channel=0 note=53 velocity=59 time=0
control_change channel=0 control=64 value=0 time=18
control_change channel=0 control=64 value=127 time=17
note_on channel=0 note=53 velocity=0 time=63
note_on channel=0 note=77 velocity=0 time=0
note_on channel=0 note=75 velocity=71 time=0
note_on channel=0 note=65 velocity=50 time=0
note_on channel=0 note=65 velocity=0 time=40
note_on channel=0 note=75 velocity=0 time=0
note_on channel=0 note=73 velocity=71 time=0
note_on channel=0 note=53 velocity=57 time=0
note_on channel=0 note=53 velocity=0 time=120
note_on channel=0 note=73 velocity=0 time=0
note_on channel=0 note=72 velocity=69 time=0
note_on channel=0 note=65 velocity=49 time=0
note_on channel=0 note=65 velocity=0 time=0
note_on channel=0 note=72 velocity=0 time=0
note_on channel=0 note=70 velocity=73 time=0
note_on channel=0 note=46 velocity=59 time=0
control_change channel=0 control=64 value=0 time=9
note_on channel=0 note=70 velocity=0 time=111
note_on channel=0 note=46 velocity=0 time=0
note_on channel=0 note=77 velocity=74 time=0
note_on channel=0 note=58 velocity=44 time=0
note_on channel=0 note=61 velocity=44 time=0
control_change channel=0 control=64 value=127 time=85
note_on channel=0 note=61 velocity=0 time=35
note_on channel=0 note=58 velocity=0 time=0
note_on channel=0 note=65 velocity=38 time=0
note_on channel=0 note=65 velocity=0 time=120
note_on channel=0 note=58 velocity=44 time=0
note_on channel=0 note=61 velocity=44 time=0
note_on channel=0 note=61 velocity=0 time=120
note_on channel=0 note=58 velocity=0 time=0
note_on channel=0 note=65 velocity=38 time=0
note_on channel=0 note=65 velocity=0 time=120
note_on channel=0 note=77 velocity=0 time=0
note_on channel=0 note=77 velocity=61 time=0
note_on channel=0 note=61 velocity=44 time=0
note_on channel=0 note=58 velocity=44 time=0
control_change channel=0 control=64 value=0 time=106
note_on channel=0 note=58 velocity=0 time=14
note_on channel=0 note=61 velocity=0 time=0
note_on channel=0 note=77 velocity=0 time=0
note_on channel=0 note=65 velocity=38 time=0
note_on channel=0 note=65 velocity=0 time=0
note_on channel=0 note=77 velocity=61 time=0
note_on channel=0 note=58 velocity=44 time=0
note_on channel=0 note=61 velocity=44 time=0
note_on channel=0 note=61 velocity=0 time=120
note_on channel=0 note=58 velocity=0 time=0
note_on channel=0 note=77 velocity=0 time=0
note_on channel=0 note=65 velocity=38 time=0
note_on channel=0 note=65 velocity=0 time=0
note_on channel=0 note=78 velocity=72 time=0
note_on channel=0 note=61 velocity=44 time=0
note_on channel=0 note=58 velocity=44 time=0
control_change channel=0 control=64 value=127 time=115
note_on channel=0 note=58 velocity=0 time=5
note_on channel=0 note=61 velocity=0 time=0
note_on channel=0 note=64 velocity=38 time=0
note_on channel=0 note=64 velocity=0 time=120
note_on channel=0 note=58 velocity=44 time=0
note_on channel=0 note=61 velocity=44 time=0
note_on channel=0 note=61 velocity=0 time=120
note_on channel=0 note=58 velocity=0 time=0
note_on channel=0 note=64 velocity=38 time=0
note_on channel=0 note=64 velocity=0 time=120
note_on channel=0 note=78 velocity=0 time=0
note_on channel=0 note=78 velocity=60 time=0
note_on channel=0 note=58 velocity=44 time=0
note_on channel=0 note=61 velocity=44 time=0
note_on channel=0 note=61 velocity=0 time=120
note_on channel=0 note=58 velocity=0 time=0
note_on channel=0 note=78 velocity=0 time=0
note_on channel=0 note=64 velocity=38 time=0
control_change channel=0 control=64 value=0 time=17
note_on channel=0 note=64 velocity=0 time=0
note_on channel=0 note=78 velocity=59 time=0
note_on channel=0 note=57 velocity=44 time=0
note_on channel=0 note=60 velocity=44 time=0
note_on channel=0 note=60 velocity=0 time=120
note_on channel=0 note=57 velocity=0 time=0
note_on channel=0 note=78 velocity=0 time=0
note_on channel=0 note=64 velocity=38 time=0
note_on channel=0 note=64 velocity=0 time=0
note_on channel=0 note=77 velocity=73 time=0
note_on channel=0 note=60 velocity=44 time=0
note_on channel=0 note=57 velocity=44 time=0
control_change channel=0 control=64 value=127 time=109
note_on channel=0 note=57 velocity=0 time=11
note_on channel=0 note=60 velocity=0 time=0
note_on channel=0 note=65 velocity=38 time=0
note_on channel=0 note=65 velocity=0 time=120
note_on channel=0 note=57 velocity=44 time=0
note_on channel=0 note=60 velocity=44 time=0
note_on channel=0 note=60 velocity=0 time=120
note_on channel=0 note=57 velocity=0 time=0
note_on channel=0 note=65 velocity=38 time=0
note_on channel=0 note=65 velocity=0 time=120
note_on channel=0 note=77 velocity=0 time=0
note_on channel=0 note=77 velocity=63 time=0
note_on channel=0 note=57 velocity=44 time=0
note_on channel=0 note=60 velocity=44 time=0
note_on channel=0 note=60 velocity=0 time=120
note_on channel=0 note=57 velocity=0 time=0
note_on channel=0 note=77 velocity=0 time=0
note_on channel=0 note=65 velocity=38 time=0
control_change channel=0 control=64 value=0 time=52
note_on channel=0 note=65 velocity=0 time=0
note_on channel=0 note=77 velocity=65 time=0
note_on channel=0 note=57 velocity=44 time=0
note_on channel=0 note=60 velocity=44 time=0
note_on channel=0 note=60 velocity=0 time=120
note_on channel=0 note=57 velocity=0 time=0
note_on channel=0 note=77 velocity=0 time=0
note_on channel=0 note=65 velocity=38 time=0
note_on channel=0 note=65 velocity=0 time=0
note_on channel=0 note=72 velocity=61 time=0
note_on channel=0 note=60 velocity=44 time=0
note_on channel=0 note=57 velocity=44 time=0
note_on channel=0 note=57 velocity=0 time=120
note_on channel=0 note=60 velocity=0 time=0
note_on channel=0 note=72 velocity=0 time=0
note_on channel=0 note=65 velocity=38 time=0
note_on channel=0 note=65 velocity=0 time=120
note_on channel=0 note=73 velocity=61 time=0
note_on channel=0 note=57 velocity=44 time=0
note_on channel=0 note=60 velocity=44 time=0
note_on channel=0 note=60 velocity=0 time=120
note_on channel=0 note=57 velocity=0 time=0
note_on channel=0 note=73 velocity=0 time=0
note_on channel=0 note=65 velocity=38 time=0
note_on channel=0 note=65 velocity=0 time=120
note_on channel=0 note=75 velocity=61 time=0
note_on channel=0 note=57 velocity=44 time=0
note_on channel=0 note=60 velocity=44 time=0
note_on channel=0 note=60 velocity=0 time=120
note_on channel=0 note=57 velocity=0 time=0
note_on channel=0 note=75 velocity=0 time=0
note_on channel=0 note=65 velocity=38 time=0
note_on channel=0 note=65 velocity=0 time=0
note_on channel=0 note=73 velocity=65 time=0
note_on channel=0 note=61 velocity=44 time=0
note_on channel=0 note=58 velocity=44 time=0
note_on channel=0 note=58 velocity=0 time=120
note_on channel=0 note=61 velocity=0 time=0
note_on channel=0 note=73 velocity=0 time=0
note_on channel=0 note=65 velocity=38 time=0
note_on channel=0 note=65 velocity=0 time=0
note_on channel=0 note=89 velocity=80 time=0
note_on channel=0 note=77 velocity=73 time=0
note_on channel=0 note=58 velocity=58 time=0
note_on channel=0 note=61 velocity=58 time=0
control_change channel=0 control=64 value=127 time=113
note_on channel=0 note=61 velocity=0 time=7
note_on channel=0 note=58 velocity=0 time=0
note_on channel=0 note=65 velocity=51 time=0
note_on channel=0 note=65 velocity=0 time=0
note_on channel=0 note=58 velocity=58 time=0
note_on channel=0 note=61 velocity=58 time=0
note_on channel=0 note=61 velocity=0 time=120
note_on channel=0 note=58 velocity=0 time=0
note_on channel=0 note=65 velocity=51 time=0
note_on channel=0 note=65 velocity=0 time=120
note_on channel=0 note=77 velocity=0 time=0
note_on channel=0 note=89 velocity=0 time=0
note_on channel=0 note=89 velocity=74 time=0
note_on channel=0 note=77 velocity=68 time=0
note_on channel=0 note=61 velocity=58 time=0
note_on channel=0 note=58 velocity=58 time=0
note_on channel=0 note=58 velocity=0 time=120
note_on channel=0 note=89 velocity=0 time=0
note_on channel=0 note=77 velocity=0 time=0
note_on channel=0 note=61 velocity=0 time=0
note_on channel=0 note=65 velocity=51 time=0
control_change channel=0 control=64 value=0 time=21
note_on channel=0 note=65 velocity=0 time=0
note_on channel=0 note=89 velocity=74 time=0
note_on channel=0 note=77 velocity=68 time=0
note_on channel=0 note=58 velocity=58 time=0
note_on channel=0 note=61 velocity=58 time=0
note_on channel=0 note=61 velocity=0 time=120
note_on channel=0 note=89 velocity=0 time=0
note_on channel=0 note=77 velocity=0 time=0
note_on channel=0 note=58 velocity=0 time=0
note_on channel=0 note=65 velocity=51 time=0
note_on channel=0 note=65 velocity=0 time=0
note_on channel=0 note=90 velocity=81 time=0
note_on channel=0 note=78 velocity=74 time=0
note_on channel=0 note=61 velocity=58 time=0
note_on channel=0 note=58 velocity=58 time=0
control_change channel=0 control=64 value=127 time=63
note_on channel=0 note=58 velocity=0 time=57
note_on channel=0 note=61 velocity=0 time=0
note_on channel=0 note=64 velocity=51 time=0
note_on channel=0 note=64 velocity=0 time=0
note_on channel=0 note=58 velocity=58 time=0
note_on channel=0 note=61 velocity=58 time=0
note_on channel=0 note=61 velocity=0 time=120
note_on channel=0 note=58 velocity=0 time=0
note_on channel=0 note=64 velocity=51 time=0
note_on channel=0 note=64 velocity=0 time=120
note_on channel=0 note=78 velocity=0 time=0
note_on channel=0 note=90 velocity=0 time=0
note_on channel=0 note=90 velocity=73 time=0
note_on channel=0 note=78 velocity=67 time=0
note_on channel=0 note=58 velocity=58 time=0
note_on channel=0 note=61 velocity=58 time=0
note_on channel=0 note=61 velocity=0 time=120
note_on channel=0 note=90 velocity=0 time=0
note_on channel=0 note=78 velocity=0 time=0
note_on channel=0 note=58 velocity=0 time=0
note_on channel=0 note=64 velocity=51 time=0
control_change channel=0 control=64 value=0 time=29
note_on channel=0 note=64 velocity=0 time=0
note_on channel=0 note=90 velocity=72 time=0
note_on channel=0 note=78 velocity=66 time=0
note_on channel=0 note=57 velocity=58 time=0
note_on channel=0 note=60 velocity=58 time=0
note_on channel=0 note=60 velocity=0 time=120
note_on channel=0 note=90 velocity=0 time=0
note_on channel=0 note=78 velocity=0 time=0
note_on channel=0 note=57 velocity=0 time=0
note_on channel=0 note=64 velocity=51 time=0
note_on channel=0 note=64 velocity=0 time=0
note_on channel=0 note=89 velocity=82 time=0
note_on channel=0 note=77 velocity=75 time=0
note_on channel=0 note=60 velocity=58 time=0
note_on channel=0 note=57 velocity=58 time=0
control_change channel=0 control=64 value=127 time=115
note_on channel=0 note=57 velocity=0 time=5
note_on channel=0 note=60 velocity=0 time=0
note_on channel=0 note=65 velocity=51 time=0
note_on channel=0 note=65 velocity=0 time=120
note_on channel=0 note=57 velocity=58 time=0
note_on channel=0 note=60 velocity=58 time=0
note_on channel=0 note=60 velocity=0 time=120
note_on channel=0 note=57 velocity=0 time=0
note_on channel=0 note=65 velocity=51 time=0
note_on channel=0 note=65 velocity=0 time=120
note_on channel=0 note=77 velocity=0 time=0
note_on channel=0 note=89 velocity=0 time=0
note_on channel=0 note=89 velocity=77 time=0
note_on channel=0 note=77 velocity=70 time=0
note_on channel=0 note=57 velocity=58 time=0
note_on channel=0 note=60 velocity=58 time=0
note_on channel=0 note=60 velocity=0 time=120
note_on channel=0 note=89 velocity=0 time=0
note_on channel=0 note=77 velocity=0 time=0
note_on channel=0 note=57 velocity=0 time=0
note_on channel=0 note=65 velocity=51 time=0
control_change channel=0 control=64 value=0 time=40
note_on channel=0 note=65 velocity=0 time=0
note_on channel=0 note=89 velocity=80 time=0
note_on channel=0 note=77 velocity=73 time=0
note_on channel=0 note=57 velocity=58 time=0
note_on channel=0 note=60 velocity=58 time=0
note_on channel=0 note=60 velocity=0 time=120
note_on channel=0 note=89 velocity=0 time=0
note_on channel=0 note=77 velocity=0 time=0
note_on channel=0 note=57 velocity=0 time=0
note_on channel=0 note=65 velocity=51 time=0
note_on channel=0 note=65 velocity=0 time=0
note_on channel=0 note=84 velocity=74 time=0
note_on channel=0 note=72 velocity=68 time=0
note_on channel=0 note=60 velocity=58 time=0
note_on channel=0 note=57 velocity=58 time=0
note_on channel=0 note=57 velocity=0 time=120
note_on channel=0 note=84 velocity=0 time=0
note_on channel=0 note=72 velocity=0 time=0
note_on channel=0 note=60 velocity=0 time=0
note_on channel=0 note=65 velocity=51 time=0
note_on channel=0 note=65 velocity=0 time=120
note_on channel=0 note=85 velocity=74 time=0
note_on channel=0 note=73 velocity=68 time=0
note_on channel=0 note=57 velocity=58 time=0
note_on channel=0 note=60 velocity=58 time=0
note_on channel=0 note=60 velocity=0 time=120
note_on channel=0 note=85 velocity=0 time=0
note_on channel=0 note=73 velocity=0 time=0
note_on channel=0 note=57 velocity=0 time=0
note_on channel=0 note=65 velocity=51 time=0
note_on channel=0 note=65 velocity=0 time=120
note_on channel=0 note=87 velocity=74 time=0
note_on channel=0 note=75 velocity=68 time=0
note_on channel=0 note=57 velocity=58 time=0
note_on channel=0 note=60 velocity=58 time=0
note_on channel=0 note=60 velocity=0 time=120
note_on channel=0 note=87 velocity=0 time=0
note_on channel=0 note=75 velocity=0 time=0
note_on channel=0 note=57 velocity=0 time=0
note_on channel=0 note=65 velocity=51 time=0
note_on channel=0 note=65 velocity=0 time=0
note_on channel=0 note=85 velocity=80 time=0
note_on channel=0 note=73 velocity=73 time=0
note_on channel=0 note=61 velocity=58 time=0
note_on channel=0 note=58 velocity=58 time=0
note_on channel=0 note=58 velocity=0 time=120
note_on channel=0 note=85 velocity=0 time=0
note_on channel=0 note=73 velocity=0 time=0
note_on channel=0 note=61 velocity=0 time=0
note_on channel=0 note=65 velocity=51 time=0
note_on channel=0 note=65 velocity=0 time=0
note_on channel=0 note=72 velocity=72 time=0
note_on channel=0 note=52 velocity=44 time=0
note_on channel=0 note=55 velocity=44 time=0
control_change channel=0 control=64 value=127 time=75
note_on channel=0 note=55 velocity=0 time=45
note_on channel=0 note=52 velocity=0 time=0
note_on channel=0 note=60 velocity=38 time=0
note_on channel=0 note=60 velocity=0 time=0
note_on channel=0 note=52 velocity=44 time=0
note_on channel=0 note=55 velocity=44 time=0
note_on channel=0 note=55 velocity=0 time=120
note_on channel=0 note=52 velocity=0 time=0
note_on channel=0 note=60 velocity=38 time=0
note_on channel=0 note=60 velocity=0 time=120
note_on channel=0 note=72 velocity=0 time=0
note_on channel=0 note=72 velocity=61 time=0
note_on channel=0 note=55 velocity=44 time=0
note_on channel=0 note=52 velocity=44 time=0
note_on channel=0 note=52 velocity=0 time=120
note_on channel=0 note=55 velocity=0 time=0
note_on channel=0 note=72 velocity=0 time=0
note_on channel=0 note=60 velocity=38 time=0
control_change channel=0 control=64 value=0 time=23
note_on channel=0 note=60 velocity=0 time=0
note_on channel=0 note=72 velocity=61 time=0
note_on channel=0 note=53 velocity=44 time=0
note_on channel=0 note=56 velocity=44 time=0
note_on channel=0 note=56 velocity=0 time=120
note_on channel=0 note=53 velocity=0 time=0
note_on channel=0 note=72 velocity=0 time=0
note_on channel=0 note=60 velocity=38 time=0
note_on channel=0 note=60 velocity=0 time=0
note_on channel=0 note=71 velocity=72 time=0
note_on channel=0 note=56 velocity=44 time=0
note_on channel=0 note=53 velocity=44 time=0
control_change channel=0 control=64 value=127 time=63
note_on channel=0 note=53 velocity=0 time=57
note_on channel=0 note=56 velocity=0 time=0
note_on channel=0 note=62 velocity=38 time=0
note_on channel=0 note=62 velocity=0 time=0
note_on channel=0 note=53 velocity=44 time=0
note_on channel=0 note=56 velocity=44 time=0
note_on channel=0 note=56 velocity=0 time=120
note_on channel=0 note=53 velocity=0 time=0
note_on channel=0 note=62 velocity=38 time=0
note_on channel=0 note=62 velocity=0 time=120
note_on channel=0 note=71 velocity=0 time=0
note_on channel=0 note=71 velocity=60 time=0
note_on channel=0 note=53 velocity=44 time=0
note_on channel=0 note=56 velocity=44 time=0
note_on channel=0 note=56 velocity=0 time=120
note_on channel=0 note=53 velocity=0 time=0
note_on channel=0 note=71 velocity=0 time=0
note_on channel=0 note=62 velocity=38 time=0
control_change channel=0 control=64 value=0 time=29
note_on channel=0 note=62 velocity=0 time=0
note_on channel=0 note=71 velocity=59 time=0
note_on channel=0 note=52 velocity=44 time=0
note_on channel=0 note=55 velocity=44 time=0
note_on channel=0 note=55 velocity=0 time=120
note_on channel=0 note=52 velocity=0 time=0
note_on channel=0 note=71 velocity=0 time=0
note_on channel=0 note=62 velocity=38 time=0
note_on channel=0 note=62 velocity=0 time=0
note_on channel=0 note=72 velocity=71 time=0
note_on channel=0 note=55 velocity=44 time=0
note_on channel=0 note=52 velocity=44 time=0
control_change channel=0 control=64 value=127 time=92
note_on channel=0 note=52 velocity=0 time=28
note_on channel=0 note=55 velocity=0 time=0
note_on channel=0 note=60 velocity=38 time=0
note_on channel=0 note=60 velocity=0 time=120
note_on channel=0 note=52 velocity=44 time=0
note_on channel=0 note=55 velocity=44 time=0
note_on channel=0 note=55 velocity=0 time=120
note_on channel=0 note=52 velocity=0 time=0
note_on channel=0 note=60 velocity=38 time=0
note_on channel=0 note=60 velocity=0 time=120
note_on channel=0 note=72 velocity=0 time=0
note_on channel=0 note=72 velocity=63 time=0
note_on channel=0 note=52 velocity=44 time=0
note_on channel=0 note=55 velocity=44 time=0
note_on channel=0 note=55 velocity=0 time=120
note_on channel=0 note=52 velocity=0 time=0
note_on channel=0 note=72 velocity=0 time=0
note_on channel=0 note=60 velocity=38 time=0
control_change channel=0 control=64 value=0 time=12
note_on channel=0 note=60 velocity=0 time=0
note_on channel=0 note=72 velocity=65 time=0
note_on channel=0 note=52 velocity=44 time=0
note_on channel=0 note=55 velocity=44 time=0
note_on channel=0 note=55 velocity=0 time=120
note_on channel=0 note=52 velocity=0 time=0
note_on channel=0 note=72 velocity=0 time=0
note_on channel=0 note=60 velocity=38 time=0
note_on channel=0 note=60 velocity=0 time=0
note_on channel=0 note=67 velocity=61 time=0
note_on channel=0 note=55 velocity=44 time=0
note_on channel=0 note=52 velocity=44 time=0
note_on channel=0 note=52 velocity=0 time=120
note_on channel=0 note=55 velocity=0 time=0
note_on channel=0 note=67 velocity=0 time=0
note_on channel=0 note=60 velocity=38 time=0
note_on channel=0 note=60 velocity=0 time=120
note_on channel=0 note=68 velocity=61 time=0
note_on channel=0 note=52 velocity=44 time=0
note_on channel=0 note=55 velocity=44 time=0
note_on channel=0 note=55 velocity=0 time=120
note_on channel=0 note=52 velocity=0 time=0
note_on channel=0 note=68 velocity=0 time=0
note_on channel=0 note=60 velocity=38 time=0
note_on channel=0 note=60 velocity=0 time=120
note_on channel=0 note=70 velocity=61 time=0
note_on channel=0 note=52 velocity=44 time=0
note_on channel=0 note=55 velocity=44 time=0
note_on channel=0 note=55 velocity=0 time=120
note_on channel=0 note=52 velocity=0 time=0
note_on channel=0 note=70 velocity=0 time=0
note_on channel=0 note=60 velocity=38 time=0
note_on channel=0 note=60 velocity=0 time=0
note_on channel=0 note=68 velocity=65 time=0
note_on channel=0 note=56 velocity=44 time=0
note_on channel=0 note=53 velocity=44 time=0
note_on channel=0 note=53 velocity=0 time=120
note_on channel=0 note=56 velocity=0 time=0
note_on channel=0 note=68 velocity=0 time=0
note_on channel=0 note=60 velocity=38 time=0
note_on channel=0 note=60 velocity=0 time=0
note_on channel=0 note=84 velocity=80 time=0
note_on channel=0 note=72 velocity=73 time=0
note_on channel=0 note=53 velocity=58 time=0
note_on channel=0 note=56 velocity=58 time=0
control_change channel=0 control=64 value=127 time=113
note_on channel=0 note=56 velocity=0 time=7
note_on channel=0 note=53 velocity=0 time=0
note_on channel=0 note=60 velocity=51 time=0
note_on channel=0 note=60 velocity=0 time=0
note_on channel=0 note=53 velocity=58 time=0
note_on channel=0 note=56 velocity=58 time=0
note_on channel=0 note=56 velocity=0 time=120
note_on channel=0 note=53 velocity=0 time=0
note_on channel=0 note=60 velocity=51 time=0
note_on channel=0 note=60 velocity=0 time=120
note_on channel=0 note=72 velocity=0 time=0
note_on channel=0 note=84 velocity=0 time=0
note_on channel=0 note=84 velocity=74 time=0
note_on channel=0 note=72 velocity=68 time=0
note_on channel=0 note=56 velocity=58 time=0
note_on channel=0 note=53 velocity=58 time=0
control_change channel=0 control=64 value=0 time=99
note_on channel=0 note=53 velocity=0 time=21
note_on channel=0 note=84 velocity=0 time=0
note_on channel=0 note=72 velocity=0 time=0
note_on channel=0 note=56 velocity=0 time=0
note_on channel=0 note=60 velocity=51 time=0
note_on channel=0 note=60 velocity=0 time=0
note_on channel=0 note=84 velocity=74 time=0
note_on channel=0 note=72 velocity=68 time=0
note_on channel=0 note=53 velocity=58 time=0
note_on channel=0 note=56 velocity=58 time=0
note_on channel=0 note=56 velocity=0 time=120
note_on channel=0 note=84 velocity=0 time=0
note_on channel=0 note=72 velocity=0 time=0
note_on channel=0 note=53 velocity=0 time=0
note_on channel=0 note=60 velocity=51 time=0
note_on channel=0 note=60 velocity=0 time=0
note_on channel=0 note=83 velocity=81 time=0
note_on channel=0 note=71 velocity=74 time=0
note_on channel=0 note=56 velocity=58 time=0
note_on channel=0 note=53 velocity=58 time=0
control_change channel=0 control=64 value=127 time=97
note_on channel=0 note=53 velocity=0 time=23
note_on channel=0 note=56 velocity=0 time=0
note_on channel=0 note=62 velocity=51 time=0
note_on channel=0 note=62 velocity=0 time=0
note_on channel=0 note=53 velocity=58 time=0
note_on channel=0 note=56 velocity=58 time=0
note_on channel=0 note=56 velocity=0 time=120
note_on channel=0 note=53 velocity=0 time=0
note_on channel=0 note=62 velocity=51 time=0
note_on channel=0 note=62 velocity=0 time=120
note_on channel=0 note=71 velocity=0 time=0
note_on channel=0 note=83 velocity=0 time=0
note_on channel=0 note=83 velocity=73 time=0
note_on channel=0 note=71 velocity=67 time=0
note_on channel=0 note=53 velocity=58 time=0
note_on channel=0 note=56 velocity=58 time=0
note_on channel=0 note=56 velocity=0 time=120
note_on channel=0 note=83 velocity=0 time=0
note_on channel=0 note=71 velocity=0 time=0
note_on channel=0 note=53 velocity=0 time=0
note_on channel=0 note=62 velocity=51 time=0
control_change channel=0 control=64 value=0 time=23
note_on channel=0 note=62 velocity=0 time=0
note_on channel=0 note=83 velocity=72 time=0
note_on channel=0 note=71 velocity=66 time=0
note_on channel=0 note=52 velocity=58 time=0
note_on channel=0 note=55 velocity=58 time=0
note_on channel=0 note=55 velocity=0 time=120
note_on channel=0 note=83 velocity=0 time=0
note_on channel=0 note=71 velocity=0 time=0
note_on channel=0 note=52 velocity=0 time=0
note_on channel=0 note=62 velocity=51 time=0
note_on channel=0 note=62 velocity=0 time=0
note_on channel=0 note=84 velocity=82 time=0
note_on channel=0 note=72 velocity=75 time=0
note_on channel=0 note=55 velocity=58 time=0
note_on channel=0 note=52 velocity=58 time=0
control_change channel=0 control=64 value=127 time=97
note_on channel=0 note=52 velocity=0 time=23
note_on channel=0 note=55 velocity=0 time=0
note_on channel=0 note=60 velocity=51 time=0
note_on channel=0 note=60 velocity=0 time=0
note_on channel=0 note=52 velocity=58 time=0
note_on channel=0 note=55 velocity=58 time=0
note_on channel=0 note=55 velocity=0 time=120
note_on channel=0 note=52 velocity=0 time=0
note_on channel=0 note=60 velocity=51 time=0
note_on channel=0 note=60 velocity=0 time=120
note_on channel=0 note=72 velocity=0 time=0
note_on channel=0 note=84 velocity=0 time=0
note_on channel=0 note=84 velocity=77 time=0
note_on channel=0 note=72 velocity=70 time=0
note_on channel=0 note=52 velocity=58 time=0
note_on channel=0 note=55 velocity=58 time=0
note_on channel=0 note=55 velocity=0 time=120
note_on channel=0 note=84 velocity=0 time=0
note_on channel=0 note=72 velocity=0 time=0
note_on channel=0 note=52 velocity=0 time=0
note_on channel=0 note=60 velocity=51 time=0
control_change channel=0 control=64 value=0 time=29
note_on channel=0 note=60 velocity=0 time=0
note_on channel=0 note=84 velocity=80 time=0
note_on channel=0 note=72 velocity=73 time=0
note_on channel=0 note=52 velocity=58 time=0
note_on channel=0 note=55 velocity=58 time=0
note_on channel=0 note=55 velocity=0 time=120
note_on channel=0 note=84 velocity=0 time=0
note_on channel=0 note=72 velocity=0 time=0
note_on channel=0 note=52 velocity=0 time=0
note_on channel=0 note=60 velocity=51 time=0
note_on channel=0 note=60 velocity=0 time=0
note_on channel=0 note=79 velocity=74 time=0
note_on channel=0 note=67 velocity=68 time=0
note_on channel=0 note=55 velocity=58 time=0
note_on channel=0 note=52 velocity=58 time=0
note_on channel=0 note=52 velocity=0 time=120
note_on channel=0 note=79 velocity=0 time=0
note_on channel=0 note=67 velocity=0 time=0
note_on channel=0 note=55 velocity=0 time=0
note_on channel=0 note=60 velocity=51 time=0
note_on channel=0 note=60 velocity=0 time=120
note_on channel=0 note=80 velocity=74 time=0
note_on channel=0 note=68 velocity=68 time=0
note_on channel=0 note=52 velocity=58 time=0
note_on channel=0 note=55 velocity=58 time=0
note_on channel=0 note=55 velocity=0 time=120
note_on channel=0 note=80 velocity=0 time=0
note_on channel=0 note=68 velocity=0 time=0
note_on channel=0 note=52 velocity=0 time=0
note_on channel=0 note=60 velocity=51 time=0
note_on channel=0 note=60 velocity=0 time=120
note_on channel=0 note=82 velocity=74 time=0
note_on channel=0 note=70 velocity=68 time=0
note_on channel=0 note=52 velocity=58 time=0
note_on channel=0 note=55 velocity=58 time=0
note_on channel=0 note=55 velocity=0 time=120
note_on channel=0 note=82 velocity=0 time=0
note_on channel=0 note=70 velocity=0 time=0
note_on channel=0 note=52 velocity=0 time=0
note_on channel=0 note=60 velocity=51 time=0
note_on channel=0 note=60 velocity=0 time=0
note_on channel=0 note=80 velocity=80 time=0
note_on channel=0 note=68 velocity=73 time=0
note_on channel=0 note=41 velocity=61 time=0
note_on channel=0 note=44 velocity=61 time=0
note_on channel=0 note=48 velocity=61 time=0
note_on channel=0 note=53 velocity=72 time=0
note_on channel=0 note=68 velocity=0 time=0
note_on channel=0 note=80 velocity=0 time=0
note_on channel=0 note=60 velocity=70 time=0
control_change channel=0 control=64 value=127 time=14
note_on channel=0 note=60 velocity=0 time=0
note_on channel=0 note=65 velocity=72 time=0
note_on channel=0 note=65 velocity=0 time=120
note_on channel=0 note=68 velocity=74 time=0
note_on channel=0 note=68 velocity=0 time=0
note_on channel=0 note=41 velocity=0 time=0
note_on channel=0 note=44 velocity=0 time=0
note_on channel=0 note=53 velocity=0 time=0
note_on channel=0 note=48 velocity=0 time=0
note_on channel=0 note=72 velocity=76 time=0
control_change channel=0 control=64 value=0 time=17
control_change channel=0 control=64 value=127 time=61
note_on channel=0 note=72 velocity=0 time=42
note_on channel=0 note=73 velocity=72 time=0
note_on channel=0 note=48 velocity=56 time=0
note_on channel=0 note=48 velocity=0 time=0
note_on channel=0 note=73 velocity=0 time=0
note_on channel=0 note=72 velocity=72 time=0
note_on channel=0 note=53 velocity=58 time=0
note_on channel=0 note=53 velocity=0 time=120
note_on channel=0 note=72 velocity=0 time=0
note_on channel=0 note=70 velocity=72 time=0
note_on channel=0 note=56 velocity=60 time=0
note_on channel=0 note=56 velocity=0 time=40
note_on channel=0 note=70 velocity=0 time=0
note_on channel=0 note=68 velocity=73 time=0
note_on channel=0 note=60 velocity=66 time=0
control_change channel=0 control=64 value=0 time=10
control_change channel=0 control=64 value=127 time=61
note_on channel=0 note=60 velocity=0 time=49
note_on channel=0 note=68 velocity=0 time=0
note_on channel=0 note=70 velocity=67 time=0
note_on channel=0 note=61 velocity=60 time=0
note_on channel=0 note=61 velocity=0 time=80
note_on channel=0 note=70 velocity=0 time=0
note_on channel=0 note=68 velocity=69 time=0
note_on channel=0 note=60 velocity=61 time=0
note_on channel=0 note=60 velocity=0 time=40
note_on channel=0 note=68 velocity=0 time=0
note_on channel=0 note=67 velocity=69 time=0
note_on channel=0 note=58 velocity=61 time=0
note_on channel=0 note=58 velocity=0 time=120
note_on channel=0 note=67 velocity=0 time=0
note_on channel=0 note=65 velocity=75 time=0
note_on channel=0 note=56 velocity=67 time=0
control_change channel=0 control=64 value=0 time=18
control_change channel=0 control=64 value=127 time=52
note_on channel=0 note=56 velocity=0 time=28
note_on channel=0 note=65 velocity=0 time=0
note_on channel=0 note=67 velocity=70 time=0
note_on channel=0 note=58 velocity=60 time=0
note_on channel=0 note=58 velocity=0 time=40
note_on channel=0 note=67 velocity=0 time=0
note_on channel=0 note=68 velocity=70 time=0
note_on channel=0 note=60 velocity=60 time=0
note_on channel=0 note=60 velocity=0 time=120
note_on channel=0 note=68 velocity=0 time=0
note_on channel=0 note=65 velocity=70 time=0
note_on channel=0 note=56 velocity=60 time=0
note_on channel=0 note=56 velocity=0 time=0
note_on channel=0 note=65 velocity=0 time=0
note_on channel=0 note=66 velocity=75 time=0
note_on channel=0 note=58 velocity=72 time=0
control_change channel=0 control=64 value=0 time=10
control_change channel=0 control=64 value=127 time=59
note_on channel=0 note=58 velocity=0 time=0
note_on channel=0 note=66 velocity=0 time=0
note_on channel=0 note=61 velocity=72 time=0
note_on channel=0 note=60 velocity=60 time=0
note_on channel=0 note=60 velocity=0 time=120
note_on channel=0 note=61 velocity=0 time=0
note_on channel=0 note=66 velocity=74 time=0
note_on channel=0 note=58 velocity=60 time=0
note_on channel=0 note=58 velocity=0 time=40
note_on channel=0 note=66 velocity=0 time=0
note_on channel=0 note=70 velocity=76 time=0
note_on channel=0 note=56 velocity=60 time=0
note_on channel=0 note=56 velocity=0 time=120
note_on channel=0 note=70 velocity=0 time=0
note_on channel=0 note=73 velocity=78 time=0
note_on channel=0 note=54 velocity=68 time=0
control_change channel=0 control=64 value=0 time=17
control_change channel=0 control=64 value=127 time=46
note_on channel=0 note=54 velocity=0 time=34
note_on channel=0 note=73 velocity=0 time=0
note_on channel=0 note=75 velocity=75 time=0
note_on channel=0 note=49 velocity=57 time=0
note_on channel=0 note=49 velocity=0 time=0
note_on channel=0 note=75 velocity=0 time=0
note_on channel=0 note=73 velocity=75 time=0
note_on channel=0 note=54 velocity=60 time=0
note_on channel=0 note=54 velocity=0 time=120
note_on channel=0 note=73 velocity=0 time=0
note_on channel=0 note=72 velocity=75 time=0
note_on channel=0 note=58 velocity=62 time=0
note_on channel=0 note=58 velocity=0 time=40
note_on channel=0 note=72 velocity=0 time=0
note_on channel=0 note=70 velocity=76 time=0
note_on channel=0 note=61 velocity=69 time=0
control_change channel=0 control=64 value=0 time=10
control_change channel=0 control=64 value=127 time=53
note_on channel=0 note=61 velocity=0 time=57
note_on channel=0 note=70 velocity=0 time=0
note_on channel=0 note=72 velocity=70 time=0
note_on channel=0 note=63 velocity=63 time=0
note_on channel=0 note=63 velocity=0 time=80
note_on channel=0 note=72 velocity=0 time=0
note_on channel=0 note=70 velocity=71 time=0
note_on channel=0 note=61 velocity=63 time=0
note_on channel=0 note=61 velocity=0 time=40
note_on channel=0 note=70 velocity=0 time=0
note_on channel=0 note=68 velocity=71 time=0
note_on channel=0 note=60 velocity=63 time=0
note_on channel=0 note=60 velocity=0 time=120
note_on channel=0 note=68 velocity=0 time=0
note_on channel=0 note=66 velocity=76 time=0
note_on channel=0 note=58 velocity=69 time=0
control_change channel=0 control=64 value=0 time=12
control_change channel=0 control=64 value=127 time=29
note_on channel=0 note=58 velocity=0 time=51
note_on channel=0 note=66 velocity=0 time=0
note_on channel=0 note=68 velocity=73 time=0
note_on channel=0 note=60 velocity=62 time=0
note_on channel=0 note=60 velocity=0 time=40
note_on channel=0 note=68 velocity=0 time=0
note_on channel=0 note=70 velocity=73 time=0
note_on channel=0 note=61 velocity=62 time=0
note_on channel=0 note=61 velocity=0 time=120
note_on channel=0 note=70 velocity=0 time=0
note_on channel=0 note=66 velocity=72 time=0
note_on channel=0 note=58 velocity=62 time=0
note_on channel=0 note=58 velocity=0 time=0
note_on channel=0 note=66 velocity=0 time=0
note_on channel=0 note=69 velocity=77 time=0
note_on channel=0 note=60 velocity=74 time=0
control_change channel=0 control=64 value=0 time=11
control_change channel=0 control=64 value=127 time=52
note_on channel=0 note=60 velocity=0 time=0
note_on channel=0 note=69 velocity=0 time=0
note_on channel=0 note=63 velocity=74 time=0
note_on channel=0 note=61 velocity=62 time=0
note_on channel=0 note=61 velocity=0 time=40
note_on channel=0 note=63 velocity=0 time=0
note_on channel=0 note=69 velocity=76 time=0
note_on channel=0 note=60 velocity=63 time=0
note_on channel=0 note=60 velocity=0 time=40
note_on channel=0 note=69 velocity=0 time=0
note_on channel=0 note=72 velocity=78 time=0
note_on channel=0 note=58 velocity=63 time=0
note_on channel=0 note=58 velocity=0 time=40
note_on channel=0 note=72 velocity=0 time=0
note_on channel=0 note=75 velocity=80 time=0
note_on channel=0 note=57 velocity=70 time=0
control_change channel=0 control=64 value=0 time=15
control_change channel=0 control=64 value=127 time=6
note_on channel=0 note=57 velocity=0 time=34
note_on channel=0 note=75 velocity=0 time=0
note_on channel=0 note=77 velocity=76 time=0
note_on channel=0 note=51 velocity=59 time=0
note_on channel=0 note=51 velocity=0 time=40
note_on channel=0 note=77 velocity=0 time=0
note_on channel=0 note=75 velocity=76 time=0
note_on channel=0 note=57 velocity=62 time=0
note_on channel=0 note=57 velocity=0 time=40
note_on channel=0 note=75 velocity=0 time=0
note_on channel=0 note=73 velocity=77 time=0
note_on channel=0 note=60 velocity=65 time=0
note_on channel=0 note=60 velocity=0 time=40
note_on channel=0 note=73 velocity=0 time=0
note_on channel=0 note=72 velocity=78 time=0
note_on channel=0 note=63 velocity=71 time=0
control_change channel=0 control=64 value=0 time=17
control_change channel=0 control=64 value=127 time=46
note_on channel=0 note=63 velocity=0 time=40
note_on channel=0 note=72 velocity=0 time=0
note_on channel=0 note=73 velocity=72 time=0
note_on channel=0 note=65 velocity=65 time=0
note_on channel=0 note=65 velocity=0 time=40
note_on channel=0 note=73 velocity=0 time=0
note_on channel=0 note=72 velocity=73 time=0
note_on channel=0 note=63 velocity=65 time=0
note_on channel=0 note=63 velocity=0 time=40
note_on channel=0 note=72 velocity=0 time=0
note_on channel=0 note=70 velocity=73 time=0
note_on channel=0 note=61 velocity=65 time=0
note_on channel=0 note=61 velocity=0 time=80
note_on channel=0 note=70 velocity=0 time=0
note_on channel=0 note=69 velocity=80 time=0
note_on channel=0 note=60 velocity=72 time=0
control_change channel=0 control=64 value=0 time=13
control_change channel=0 control=64 value=127 time=23
note_on channel=0 note=60 velocity=0 time=57
note_on channel=0 note=69 velocity=0 time=0
note_on channel=0 note=70 velocity=75 time=0
note_on channel=0 note=61 velocity=64 time=0
note_on channel=0 note=61 velocity=0 time=0
note_on channel=0 note=70 velocity=0 time=0
note_on channel=0 note=72 velocity=75 time=0
note_on channel=0 note=63 velocity=64 time=0
note_on channel=0 note=63 velocity=0 time=120
note_on channel=0 note=72 velocity=0 time=0
note_on channel=0 note=69 velocity=74 time=0
note_on channel=0 note=60 velocity=64 time=0
note_on channel=0 note=60 velocity=0 time=0
note_on channel=0 note=69 velocity=0 time=0
note_on channel=0 note=70 velocity=90 time=0
note_on channel=0 note=61 velocity=70 time=0
control_change channel=0 control=64 value=0 time=18
control_change channel=0 control=64 value=127 time=62
note_on channel=0 note=61 velocity=0 time=0
note_on channel=0 note=70 velocity=0 time=0
note_on channel=0 note=65 velocity=76 time=0
note_on channel=0 note=53 velocity=59 time=0
note_on channel=0 note=53 velocity=0 time=0
note_on channel=0 note=65 velocity=0 time=0
note_on channel=0 note=70 velocity=79 time=0
note_on channel=0 note=58 velocity=63 time=0
note_on channel=0 note=58 velocity=0 time=120
note_on channel=0 note=70 velocity=0 time=0
note_on channel=0 note=73 velocity=82 time=0
note_on channel=0 note=61 velocity=66 time=0
note_on channel=0 note=61 velocity=0 time=0
note_on channel=0 note=73 velocity=0 time=0
note_on channel=0 note=77 velocity=83 time=0
note_on channel=0 note=65 velocity=65 time=0
control_change channel=0 control=64 value=0 time=18
control_change channel=0 control=64 value=127 time=51
note_on channel=0 note=65 velocity=0 time=51
note_on channel=0 note=77 velocity=0 time=0
note_on channel=0 note=78 velocity=83 time=0
note_on channel=0 note=66 velocity=65 time=0
note_on channel=0 note=66 velocity=0 time=0
note_on channel=0 note=78 velocity=0 time=0
note_on channel=0 note=77 velocity=82 time=0
note_on channel=0 note=65 velocity=65 time=0
note_on channel=0 note=65 velocity=0 time=120
note_on channel=0 note=77 velocity=0 time=0
note_on channel=0 note=75 velocity=82 time=0
note_on channel=0 note=63 velocity=64 time=0
note_on channel=0 note=63 velocity=0 time=40
note_on channel=0 note=75 velocity=0 time=0
note_on channel=0 note=73 velocity=81 time=0
note_on channel=0 note=61 velocity=64 time=0
control_change channel=0 control=64 value=0 time=10
control_change channel=0 control=64 value=127 time=17
note_on channel=0 note=61 velocity=0 time=63
note_on channel=0 note=73 velocity=0 time=0
note_on channel=0 note=72 velocity=81 time=0
note_on channel=0 note=60 velocity=64 time=0
note_on channel=0 note=60 velocity=0 time=120
note_on channel=0 note=72 velocity=0 time=0
note_on channel=0 note=70 velocity=80 time=0
note_on channel=0 note=58 velocity=63 time=0
note_on channel=0 note=58 velocity=0 time=0
note_on channel=0 note=70 velocity=0 time=0
note_on channel=0 note=68 velocity=80 time=0
note_on channel=0 note=56 velocity=63 time=0
note_on channel=0 note=56 velocity=0 time=120
note_on channel=0 note=68 velocity=0 time=0
note_on channel=0 note=66 velocity=79 time=0
note_on channel=0 note=54 velocity=62 time=0
control_change channel=0 control=64 value=0 time=12
control_change channel=0 control=64 value=127 time=51
note_on channel=0 note=54 velocity=0 time=57
note_on channel=0 note=66 velocity=0 time=0
note_on channel=0 note=65 velocity=79 time=0
note_on channel=0 note=53 velocity=62 time=0
note_on channel=0 note=53 velocity=0 time=40
note_on channel=0 note=65 velocity=0 time=0
note_on channel=0 note=63 velocity=78 time=0
note_on channel=0 note=51 velocity=62 time=0
note_on channel=0 note=51 velocity=0 time=120
note_on channel=0 note=63 velocity=0 time=0
note_on channel=0 note=61 velocity=78 time=0
note_on channel=0 note=49 velocity=61 time=0
note_on channel=0 note=49 velocity=0 time=120
note_on channel=0 note=61 velocity=0 time=0
note_on channel=0 note=60 velocity=77 time=0
note_on channel=0 note=48 velocity=61 time=0
control_change channel=0 control=64 value=0 time=10
control_change channel=0 control=64 value=127 time=6
note_on channel=0 note=48 velocity=0 time=74
note_on channel=0 note=60 velocity=0 time=0
note_on channel=0 note=58 velocity=77 time=0
note_on channel=0 note=46 velocity=61 time=0
note_on channel=0 note=46 velocity=0 time=120
note_on channel=0 note=58 velocity=0 time=0
note_on channel=0 note=56 velocity=76 time=0
note_on channel=0 note=44 velocity=60 time=0
note_on channel=0 note=44 velocity=0 time=120
note_on channel=0 note=56 velocity=0 time=0
note_on channel=0 note=54 velocity=76 time=0
note_on channel=0 note=42 velocity=60 time=0
note_on channel=0 note=42 velocity=0 time=80
note_on channel=0 note=54 velocity=0 time=0
note_on channel=0 note=53 velocity=73 time=0
note_on channel=0 note=41 velocity=59 time=0
control_change channel=0 control=64 value=0 time=16
control_change channel=0 control=64 value=127 time=53
note_on channel=0 note=41 velocity=0 time=51
note_on channel=0 note=53 velocity=0 time=0
note_on channel=0 note=51 velocity=73 time=0
note_on channel=0 note=39 velocity=59 time=0
note_on channel=0 note=39 velocity=0 time=0
note_on channel=0 note=51 velocity=0 time=0
note_on channel=0 note=49 velocity=74 time=0
note_on channel=0 note=37 velocity=59 time=0
note_on channel=0 note=37 velocity=0 time=120
note_on channel=0 note=49 velocity=0 time=0
note_on channel=0 note=48 velocity=76 time=0
note_on channel=0 note=36 velocity=59 time=0
note_on channel=0 note=36 velocity=0 time=120
note_on channel=0 note=48 velocity=0 time=0
note_on channel=0 note=46 velocity=78 time=0
note_on channel=0 note=34 velocity=59 time=0
control_change channel=0 control=64 value=0 time=14
control_change channel=0 control=64 value=127 time=57
note_on channel=0 note=34 velocity=0 time=0
note_on channel=0 note=46 velocity=0 time=0
note_on channel=0 note=48 velocity=79 time=0
note_on channel=0 note=36 velocity=59 time=0
note_on channel=0 note=36 velocity=0 time=120
note_on channel=0 note=48 velocity=0 time=0
note_on channel=0 note=49 velocity=81 time=0
note_on channel=0 note=37 velocity=62 time=0
note_on channel=0 note=37 velocity=0 time=120
note_on channel=0 note=49 velocity=0 time=0
note_on channel=0 note=46 velocity=82 time=0
note_on channel=0 note=36 velocity=64 time=0
note_on channel=0 note=36 velocity=0 time=0
note_on channel=0 note=46 velocity=0 time=0
note_on channel=0 note=46 velocity=82 time=0
note_on channel=0 note=34 velocity=65 time=0
control_change channel=0 control=64 value=0 time=17
note_on channel=0 note=34 velocity=0 time=0
note_on channel=0 note=46 velocity=0 time=0
note_on channel=0 note=47 velocity=77 time=0
note_on channel=0 note=50 velocity=77 time=0
note_on channel=0 note=53 velocity=77 time=0
note_on channel=0 note=56 velocity=90 time=0
note_on channel=0 note=35 velocity=72 time=0
note_on channel=0 note=35 velocity=0 time=0
note_on channel=0 note=53 velocity=0 time=0
note_on channel=0 note=47 velocity=0 time=0
note_on channel=0 note=50 velocity=0 time=0
note_on channel=0 note=56 velocity=0 time=0
note_on channel=0 note=48 velocity=82 time=0
note_on channel=0 note=52 velocity=82 time=0
note_on channel=0 note=55 velocity=98 time=0
note_on channel=0 note=36 velocity=89 time=0
note_on channel=0 note=36 velocity=0 time=120
note_on channel=0 note=48 velocity=0 time=0
note_on channel=0 note=52 velocity=0 time=0
note_on channel=0 note=55 velocity=0 time=0
note_on channel=0 note=48 velocity=66 time=0
note_on channel=0 note=60 velocity=66 time=0
note_on channel=0 note=60 velocity=0 time=120
note_on channel=0 note=48 velocity=0 time=0
note_on channel=0 note=40 velocity=76 time=0
note_on channel=0 note=40 velocity=0 time=120
note_on channel=0 note=60 velocity=66 time=0
note_on channel=0 note=48 velocity=66 time=0
note_on channel=0 note=48 velocity=0 time=80
note_on channel=0 note=60 velocity=0 time=0
note_on channel=0 note=36 velocity=76 time=0
note_on channel=0 note=36 velocity=0 time=120
note_on channel=0 note=60 velocity=66 time=0
note_on channel=0 note=48 velocity=66 time=0
note_on channel=0 note=48 velocity=0 time=120
note_on channel=0 note=60 velocity=0 time=0
note_on channel=0 note=41 velocity=76 time=0
note_on channel=0 note=41 velocity=0 time=40
note_on channel=0 note=60 velocity=66 time=0
note_on channel=0 note=48 velocity=66 time=0
note_on channel=0 note=48 velocity=0 time=120
note_on channel=0 note=60 velocity=0 time=0
note_on channel=0 note=36 velocity=76 time=0
note_on channel=0 note=36 velocity=0 time=120
note_on channel=0 note=60 velocity=66 time=0
note_on channel=0 note=48 velocity=66 time=0
note_on channel=0 note=48 velocity=0 time=40
note_on channel=0 note=60 velocity=0 time=0
note_on channel=0 note=43 velocity=76 time=0
note_on channel=0 note=43 velocity=0 time=120
note_on channel=0 note=60 velocity=66 time=0
note_on channel=0 note=48 velocity=66 time=0
note_on channel=0 note=48 velocity=0 time=120
note_on channel=0 note=60 velocity=0 time=0
note_on channel=0 note=36 velocity=76 time=0
note_on channel=0 note=36 velocity=0 time=0
note_on channel=0 note=60 velocity=66 time=0
note_on channel=0 note=48 velocity=66 time=0
note_on channel=0 note=48 velocity=0 time=120
note_on channel=0 note=60 velocity=0 time=0
note_on channel=0 note=44 velocity=76 time=0
note_on channel=0 note=44 velocity=0 time=120
note_on channel=0 note=60 velocity=66 time=0
note_on channel=0 note=48 velocity=66 time=0
note_on channel=0 note=48 velocity=0 time=120
note_on channel=0 note=60 velocity=0 time=0
note_on channel=0 note=36 velocity=74 time=0
control_change channel=0 control=64 value=127 time=71
note_on channel=0 note=36 velocity=0 time=49
note_on channel=0 note=60 velocity=64 time=0
note_on channel=0 note=72 velocity=64 time=0
note_on channel=0 note=72 velocity=0 time=0
note_on channel=0 note=60 velocity=0 time=0
note_on channel=0 note=46 velocity=74 time=0
note_on channel=0 note=46 velocity=0 time=120
note_on channel=0 note=60 velocity=64 time=0
note_on channel=0 note=72 velocity=64 time=0
note_on channel=0 note=72 velocity=0 time=120
note_on channel=0 note=60 velocity=0 time=0
note_on channel=0 note=36 velocity=75 time=0
control_change channel=0 control=64 value=0 time=16
control_change channel=0 control=64 value=127 time=69
note_on channel=0 note=36 velocity=0 time=35
note_on channel=0 note=60 velocity=65 time=0
note_on channel=0 note=72 velocity=65 time=0
note_on channel=0 note=72 velocity=0 time=80
note_on channel=0 note=60 velocity=0 time=0
note_on channel=0 note=44 velocity=76 time=0
note_on channel=0 note=44 velocity=0 time=120
note_on channel=0 note=60 velocity=66 time=0
note_on channel=0 note=72 velocity=66 time=0
note_on channel=0 note=72 velocity=0 time=120
note_on channel=0 note=60 velocity=0 time=0
note_on channel=0 note=36 velocity=77 time=0
control_change channel=0 control=64 value=0 time=13
control_change channel=0 control=64 value=127 time=38
note_on channel=0 note=36 velocity=0 time=42
note_on channel=0 note=60 velocity=64 time=0
note_on channel=0 note=72 velocity=64 time=0
note_on channel=0 note=72 velocity=0 time=120
note_on channel=0 note=60 velocity=0 time=0
note_on channel=0 note=43 velocity=78 time=0
note_on channel=0 note=43 velocity=0 time=120
note_on channel=0 note=60 velocity=64 time=0
note_on channel=0 note=72 velocity=64 time=0
note_on channel=0 note=72 velocity=0 time=120
note_on channel=0 note=60 velocity=0 time=0
note_on channel=0 note=36 velocity=79 time=0
control_change channel=0 control=64 value=0 time=18
control_change channel=0 control=64 value=127 time=81
note_on channel=0 note=36 velocity=0 time=21
note_on channel=0 note=60 velocity=65 time=0
note_on channel=0 note=72 velocity=65 time=0
note_on channel=0 note=72 velocity=0 time=120
note_on channel=0 note=60 velocity=0 time=0
note_on channel=0 note=41 velocity=80 time=0
note_on channel=0 note=41 velocity=0 time=120
note_on channel=0 note=60 velocity=66 time=0
note_on channel=0 note=72 velocity=66 time=0
note_on channel=0 note=72 velocity=0 time=0
note_on channel=0 note=60 velocity=0 time=0
note_on channel=0 note=36 velocity=81 time=0
control_change channel=0 control=64 value=0 time=13
control_change channel=0 control=64 value=127 time=56
note_on channel=0 note=36 velocity=0 time=51
note_on channel=0 note=72 velocity=67 time=0
note_on channel=0 note=84 velocity=67 time=0
note_on channel=0 note=84 velocity=0 time=80
note_on channel=0 note=72 velocity=0 time=0
note_on channel=0 note=40 velocity=82 time=0
note_on channel=0 note=40 velocity=0 time=80
note_on channel=0 note=72 velocity=68 time=0
note_on channel=0 note=84 velocity=68 time=0
note_on channel=0 note=84 velocity=0 time=40
note_on channel=0 note=72 velocity=0 time=0
note_on channel=0 note=36 velocity=82 time=0
control_change channel=0 control=64 value=0 time=17
control_change channel=0 control=64 value=127 time=0
note_on channel=0 note=36 velocity=0 time=40
note_on channel=0 note=72 velocity=69 time=0
note_on channel=0 note=84 velocity=69 time=0
note_on channel=0 note=84 velocity=0 time=40
note_on channel=0 note=72 velocity=0 time=0
note_on channel=0 note=41 velocity=83 time=0
note_on channel=0 note=41 velocity=0 time=0
note_on channel=0 note=72 velocity=70 time=0
note_on channel=0 note=84 velocity=70 time=0
note_on channel=0 note=84 velocity=0 time=0
note_on channel=0 note=72 velocity=0 time=0
note_on channel=0 note=36 velocity=84 time=0
control_change channel=0 control=64 value=0 time=10
control_change channel=0 control=64 value=127 time=68
note_on channel=0 note=36 velocity=0 time=0
note_on channel=0 note=72 velocity=71 time=0
note_on channel=0 note=84 velocity=71 time=0
note_on channel=0 note=84 velocity=0 time=120
note_on channel=0 note=72 velocity=0 time=0
note_on channel=0 note=43 velocity=85 time=0
note_on channel=0 note=43 velocity=0 time=80
note_on channel=0 note=72 velocity=72 time=0
note_on channel=0 note=84 velocity=72 time=0
note_on channel=0 note=84 velocity=0 time=80
note_on channel=0 note=72 velocity=0 time=0
note_on channel=0 note=36 velocity=86 time=0
control_change channel=0 control=64 value=0 time=16
control_change channel=0 control=64 value=127 time=59
note_on channel=0 note=36 velocity=0 time=21
note_on channel=0 note=72 velocity=73 time=0
note_on channel=0 note=84 velocity=73 time=0
note_on channel=0 note=84 velocity=0 time=40
note_on channel=0 note=72 velocity=0 time=0
note_on channel=0 note=44 velocity=87 time=0
note_on channel=0 note=44 velocity=0 time=40
note_on channel=0 note=72 velocity=74 time=0
note_on channel=0 note=84 velocity=74 time=0
note_on channel=0 note=84 velocity=0 time=40
note_on channel=0 note=72 velocity=0 time=0
note_on channel=0 note=36 velocity=88 time=0
control_change channel=0 control=64 value=0 time=14
control_change channel=0 control=64 value=127 time=55
note_on channel=0 note=36 velocity=0 time=40
note_on channel=0 note=84 velocity=75 time=0
note_on channel=0 note=96 velocity=75 time=0
note_on channel=0 note=96 velocity=0 time=0
note_on channel=0 note=84 velocity=0 time=0
note_on channel=0 note=45 velocity=89 time=0
note_on channel=0 note=45 velocity=0 time=0
note_on channel=0 note=84 velocity=76 time=0
note_on channel=0 note=96 velocity=76 time=0
note_on channel=0 note=96 velocity=0 time=40
note_on channel=0 note=84 velocity=0 time=0
note_on channel=0 note=36 velocity=91 time=0
control_change channel=0 control=64 value=0 time=19
control_change channel=0 control=64 value=127 time=57
note_on channel=0 note=36 velocity=0 time=23
note_on channel=0 note=84 velocity=78 time=0
note_on channel=0 note=96 velocity=78 time=0
note_on channel=0 note=96 velocity=0 time=0
note_on channel=0 note=84 velocity=0 time=0
note_on channel=0 note=46 velocity=92 time=0
note_on channel=0 note=46 velocity=0 time=40
note_on channel=0 note=84 velocity=81 time=0
note_on channel=0 note=96 velocity=81 time=0
note_on channel=0 note=96 velocity=0 time=40
note_on channel=0 note=84 velocity=0 time=0
note_on channel=0 note=36 velocity=94 time=0
control_change channel=0 control=64 value=0 time=12
control_change channel=0 control=64 value=127 time=35
note_on channel=0 note=36 velocity=0 time=0
note_on channel=0 note=84 velocity=82 time=0
note_on channel=0 note=96 velocity=82 time=0
note_on channel=0 note=96 velocity=0 time=0
note_on channel=0 note=84 velocity=0 time=0
note_on channel=0 note=47 velocity=96 time=0
note_on channel=0 note=47 velocity=0 time=40
note_on channel=0 note=84 velocity=84 time=0
note_on channel=0 note=96 velocity=84 time=0
note_on channel=0 note=96 velocity=0 time=0
note_on channel=0 note=84 velocity=0 time=0
note_on channel=0 note=36 velocity=99 time=0
control_change channel=0 control=64 value=0 time=16
control_change channel=0 control=64 value=127 time=6
note_on channel=0 note=36 velocity=0 time=34
note_on channel=0 note=84 velocity=86 time=0
note_on channel=0 note=96 velocity=86 time=0
note_on channel=0 note=96 velocity=0 time=0
note_on channel=0 note=84 velocity=0 time=0
note_on channel=0 note=48 velocity=101 time=0
note_on channel=0 note=48 velocity=0 time=120
note_on channel=0 note=84 velocity=88 time=0
note_on channel=0 note=96 velocity=88 time=0
note_on channel=0 note=96 velocity=0 time=0
note_on channel=0 note=84 velocity=0 time=0
note_on channel=0 note=34 velocity=86 time=0
note_on channel=0 note=37 velocity=86 time=0
note_on channel=0 note=42 velocity=86 time=0
note_on channel=0 note=46 velocity=102 time=0
control_change channel=0 control=64 value=0 time=16
control_change channel=0 control=64 value=127 time=81
note_on channel=0 note=49 velocity=72 time=0
note_on channel=0 note=49 velocity=0 time=120
note_on channel=0 note=42 velocity=0 time=0
note_on channel=0 note=34 velocity=0 time=0
note_on channel=0 note=37 velocity=0 time=0
note_on channel=0 note=46 velocity=0 time=0
note_on channel=0 note=54 velocity=75 time=0
note_on channel=0 note=54 velocity=0 time=120
note_on channel=0 note=58 velocity=76 time=0
note_on channel=0 note=58 velocity=0 time=120
note_on channel=0 note=61 velocity=90 time=0
note_on channel=0 note=61 velocity=0 time=120
note_on channel=0 note=46 velocity=71 time=0
note_on channel=0 note=46 velocity=0 time=120
note_on channel=0 note=49 velocity=74 time=0
note_on channel=0 note=49 velocity=0 time=0
note_on channel=0 note=54 velocity=76 time=0
note_on channel=0 note=54 velocity=0 time=0
note_on channel=0 note=58 velocity=91 time=0
note_on channel=0 note=58 velocity=0 time=120
note_on channel=0 note=61 velocity=72 time=0
note_on channel=0 note=61 velocity=0 time=120
note_on channel=0 note=66 velocity=75 time=0
note_on channel=0 note=66 velocity=0 time=120
note_on channel=0 note=70 velocity=76 time=0
note_on channel=0 note=70 velocity=0 time=120
note_on channel=0 note=73 velocity=88 time=0
note_on channel=0 note=73 velocity=0 time=120
note_on channel=0 note=58 velocity=73 time=0
note_on channel=0 note=58 velocity=0 time=120
note_on channel=0 note=61 velocity=76 time=0
note_on channel=0 note=61 velocity=0 time=0
note_on channel=0 note=66 velocity=78 time=0
note_on channel=0 note=66 velocity=0 time=0
note_on channel=0 note=70 velocity=86 time=0
note_on channel=0 note=70 velocity=0 time=0
note_on channel=0 note=73 velocity=77 time=0
note_on channel=0 note=73 velocity=0 time=0
note_on channel=0 note=78 velocity=79 time=0
note_on channel=0 note=78 velocity=0 time=0
note_on channel=0 note=82 velocity=81 time=0
note_on channel=0 note=82 velocity=0 time=0
note_on channel=0 note=85 velocity=89 time=0
note_on channel=0 note=85 velocity=0 time=240
control_change channel=0 control=64 value=0 time=75
note_on channel=0 note=36 velocity=79 time=0
note_on channel=0 note=43 velocity=79 time=0
note_on channel=0 note=46 velocity=94 time=0
note_on channel=0 note=48 velocity=97 time=0
control_change channel=0 control=64 value=127 time=103
note_on channel=0 note=52 velocity=72 time=17
note_on channel=0 note=52 velocity=0 time=120
note_on channel=0 note=46 velocity=0 time=0
note_on channel=0 note=36 velocity=0 time=0
note_on channel=0 note=43 velocity=0 time=0
note_on channel=0 note=48 velocity=0 time=0
note_on channel=0 note=55 velocity=75 time=0
note_on channel=0 note=55 velocity=0 time=120
note_on channel=0 note=58 velocity=76 time=0
note_on channel=0 note=58 velocity=0 time=120
note_on channel=0 note=64 velocity=89 time=0
note_on channel=0 note=64 velocity=0 time=120
note_on channel=0 note=48 velocity=71 time=0
note_on channel=0 note=48 velocity=0 time=120
note_on channel=0 note=55 velocity=74 time=0
note_on channel=0 note=55 velocity=0 time=0
note_on channel=0 note=58 velocity=76 time=0
note_on channel=0 note=58 velocity=0 time=0
note_on channel=0 note=60 velocity=90 time=0
note_on channel=0 note=60 velocity=0 time=120
note_on channel=0 note=64 velocity=72 time=0
note_on channel=0 note=64 velocity=0 time=120
note_on channel=0 note=67 velocity=75 time=0
note_on channel=0 note=67 velocity=0 time=120
note_on channel=0 note=70 velocity=76 time=0
note_on channel=0 note=70 velocity=0 time=120
note_on channel=0 note=76 velocity=87 time=0
note_on channel=0 note=76 velocity=0 time=120
note_on channel=0 note=60 velocity=73 time=0
note_on channel=0 note=60 velocity=0 time=120
note_on channel=0 note=67 velocity=76 time=0
note_on channel=0 note=67 velocity=0 time=0
note_on channel=0 note=70 velocity=78 time=0
note_on channel=0 note=70 velocity=0 time=0
note_on channel=0 note=72 velocity=89 time=0
note_on channel=0 note=72 velocity=0 time=0
note_on channel=0 note=76 velocity=77 time=0
note_on channel=0 note=76 velocity=0 time=0
note_on channel=0 note=79 velocity=79 time=0
note_on channel=0 note=79 velocity=0 time=0
note_on channel=0 note=82 velocity=81 time=0
note_on channel=0 note=82 velocity=0 time=0
note_on channel=0 note=88 velocity=93 time=0
note_on channel=0 note=88 velocity=0 time=240
control_change channel=0 control=64 value=0 time=97
note_on channel=0 note=37 velocity=58 time=1103
control_change channel=0 control=64 value=127 time=86
note_on channel=0 note=37 velocity=0 time=74
note_on channel=0 note=49 velocity=50 time=0
note_on channel=0 note=49 velocity=0 time=160
note_on channel=0 note=52 velocity=50 time=0
note_on channel=0 note=52 velocity=0 time=0
note_on channel=0 note=55 velocity=50 time=0
note_on channel=0 note=55 velocity=0 time=0
note_on channel=0 note=58 velocity=54 time=0
note_on channel=0 note=58 velocity=0 time=40
note_on channel=0 note=61 velocity=51 time=0
note_on channel=0 note=61 velocity=0 time=0
note_on channel=0 note=64 velocity=53 time=0
note_on channel=0 note=64 velocity=0 time=0
note_on channel=0 note=67 velocity=54 time=0
note_on channel=0 note=67 velocity=0 time=240
control_change channel=0 control=64 value=0 time=311
note_on channel=0 note=40 velocity=55 time=409
control_change channel=0 control=64 value=127 time=92
note_on channel=0 note=40 velocity=0 time=68
note_on channel=0 note=52 velocity=47 time=0
note_on channel=0 note=52 velocity=0 time=160
note_on channel=0 note=55 velocity=47 time=0
note_on channel=0 note=55 velocity=0 time=0
note_on channel=0 note=58 velocity=47 time=0
note_on channel=0 note=58 velocity=0 time=0
note_on channel=0 note=61 velocity=51 time=0
note_on channel=0 note=61 velocity=0 time=0
note_on channel=0 note=64 velocity=48 time=0
note_on channel=0 note=64 velocity=0 time=0
note_on channel=0 note=67 velocity=50 time=0
note_on channel=0 note=67 velocity=0 time=0
note_on channel=0 note=70 velocity=51 time=0
note_on channel=0 note=70 velocity=0 time=240
control_change channel=0 control=64 value=0 time=254
note_on channel=0 note=43 velocity=52 time=466
control_change channel=0 control=64 value=127 time=69
note_on channel=0 note=43 velocity=0 time=91
note_on channel=0 note=55 velocity=44 time=0
note_on channel=0 note=55 velocity=0 time=160
note_on channel=0 note=58 velocity=44 time=0
note_on channel=0 note=58 velocity=0 time=160
note_on channel=0 note=61 velocity=44 time=0
note_on channel=0 note=61 velocity=0 time=120
note_on channel=0 note=64 velocity=48 time=0
note_on channel=0 note=64 velocity=0 time=120
note_on channel=0 note=67 velocity=45 time=0
note_on channel=0 note=67 velocity=0 time=120
note_on channel=0 note=70 velocity=47 time=0
note_on channel=0 note=70 velocity=0 time=120
note_on channel=0 note=73 velocity=48 time=0
note_on channel=0 note=73 velocity=0 time=240
control_change channel=0 control=64 value=0 time=254
note_on channel=0 note=46 velocity=49 time=466
control_change channel=0 control=64 value=127 time=46
note_on channel=0 note=46 velocity=0 time=114
note_on channel=0 note=58 velocity=41 time=0
note_on channel=0 note=58 velocity=0 time=160
note_on channel=0 note=61 velocity=41 time=0
note_on channel=0 note=61 velocity=0 time=160
note_on channel=0 note=64 velocity=41 time=0
note_on channel=0 note=64 velocity=0 time=120
note_on channel=0 note=67 velocity=45 time=0
note_on channel=0 note=67 velocity=0 time=120
note_on channel=0 note=70 velocity=42 time=0
note_on channel=0 note=70 velocity=0 time=120
note_on channel=0 note=73 velocity=44 time=0
note_on channel=0 note=73 velocity=0 time=120
note_on channel=0 note=76 velocity=45 time=0
note_on channel=0 note=76 velocity=0 time=240
control_change channel=0 control=64 value=0 time=263
note_on channel=0 note=49 velocity=40 time=457
control_change channel=0 control=64 value=127 time=103
note_on channel=0 note=49 velocity=0 time=137
note_on channel=0 note=52 velocity=36 time=0
note_on channel=0 note=52 velocity=0 time=240
note_on channel=0 note=55 velocity=36 time=0
note_on channel=0 note=55 velocity=0 time=240
note_on channel=0 note=58 velocity=36 time=0
note_on channel=0 note=58 velocity=0 time=240
note_on channel=0 note=61 velocity=35 time=0
note_on channel=0 note=61 velocity=0 time=240
note_on channel=0 note=64 velocity=36 time=0
note_on channel=0 note=64 velocity=0 time=240
note_on channel=0 note=67 velocity=37 time=0
note_on channel=0 note=67 velocity=0 time=240
note_on channel=0 note=70 velocity=38 time=0
note_on channel=0 note=70 velocity=0 time=240
note_on channel=0 note=73 velocity=39 time=0
note_on channel=0 note=73 velocity=0 time=240
note_on channel=0 note=76 velocity=40 time=0
note_on channel=0 note=76 velocity=0 time=240
note_on channel=0 note=79 velocity=40 time=0
note_on channel=0 note=79 velocity=0 time=240
note_on channel=0 note=82 velocity=41 time=0
note_on channel=0 note=82 velocity=0 time=240
note_on channel=0 note=85 velocity=42 time=0
note_on channel=0 note=85 velocity=0 time=240
note_on channel=0 note=88 velocity=43 time=0
note_on channel=0 note=88 velocity=0 time=240
note_on channel=0 note=91 velocity=44 time=0
note_on channel=0 note=91 velocity=0 time=240
note_on channel=0 note=94 velocity=46 time=0
note_on channel=0 note=94 velocity=0 time=240
note_on channel=0 note=91 velocity=46 time=0
note_on channel=0 note=91 velocity=0 time=240
note_on channel=0 note=88 velocity=45 time=0
note_on channel=0 note=88 velocity=0 time=240
note_on channel=0 note=85 velocity=45 time=0
note_on channel=0 note=85 velocity=0 time=240
note_on channel=0 note=82 velocity=44 time=0
note_on channel=0 note=82 velocity=0 time=240
note_on channel=0 note=79 velocity=44 time=0
note_on channel=0 note=79 velocity=0 time=240
note_on channel=0 note=76 velocity=43 time=0
note_on channel=0 note=76 velocity=0 time=240
note_on channel=0 note=73 velocity=43 time=0
note_on channel=0 note=73 velocity=0 time=240
note_on channel=0 note=70 velocity=42 time=0
note_on channel=0 note=70 velocity=0 time=240
note_on channel=0 note=67 velocity=42 time=0
note_on channel=0 note=67 velocity=0 time=240
note_on channel=0 note=64 velocity=41 time=0
note_on channel=0 note=64 velocity=0 time=240
note_on channel=0 note=61 velocity=40 time=0
note_on channel=0 note=61 velocity=0 time=240
note_on channel=0 note=58 velocity=38 time=0
note_on channel=0 note=58 velocity=0 time=240
note_on channel=0 note=55 velocity=38 time=0
note_on channel=0 note=55 velocity=0 time=240
note_on channel=0 note=52 velocity=37 time=0
note_on channel=0 note=52 velocity=0 time=240
note_on channel=0 note=49 velocity=36 time=0
note_on channel=0 note=49 velocity=0 time=240
note_on channel=0 note=46 velocity=35 time=0
note_on channel=0 note=46 velocity=0 time=240
note_on channel=0 note=43 velocity=35 time=0
note_on channel=0 note=43 velocity=0 time=960
note_on channel=0 note=40 velocity=36 time=0
note_on channel=0 note=40 velocity=0 time=960
note_on channel=0 note=37 velocity=35 time=0
note_on channel=0 note=37 velocity=0 time=960
note_on channel=0 note=34 velocity=34 time=0
note_on channel=0 note=34 velocity=0 time=960
note_on channel=0 note=31 velocity=34 time=0
control_change channel=0 control=64 value=0 time=0
control_change channel=0 control=64 value=127 time=374
note_on channel=0 note=31 velocity=0 time=1546
note_on channel=0 note=52 velocity=34 time=0
note_on channel=0 note=48 velocity=34 time=0
note_on channel=0 note=46 velocity=34 time=0
note_on channel=0 note=43 velocity=34 time=0
note_on channel=0 note=36 velocity=34 time=0
control_change channel=0 control=64 value=0 time=0
control_change channel=0 control=64 value=127 time=198
note_on channel=0 note=43 velocity=0 time=522
note_on channel=0 note=46 velocity=0 time=0
note_on channel=0 note=52 velocity=0 time=0
note_on channel=0 note=48 velocity=0 time=0
note_on channel=0 note=55 velocity=34 time=1200
note_on channel=0 note=58 velocity=34 time=0
note_on channel=0 note=60 velocity=34 time=0
note_on channel=0 note=64 velocity=34 time=0
note_on channel=0 note=64 velocity=0 time=720
note_on channel=0 note=58 velocity=0 time=0
note_on channel=0 note=60 velocity=0 time=0
note_on channel=0 note=55 velocity=0 time=0
note_on channel=0 note=67 velocity=34 time=240
note_on channel=0 note=70 velocity=34 time=0
note_on channel=0 note=72 velocity=34 time=0
note_on channel=0 note=76 velocity=34 time=0
note_on channel=0 note=76 velocity=0 time=720
note_on channel=0 note=70 velocity=0 time=0
note_on channel=0 note=72 velocity=0 time=0
note_on channel=0 note=67 velocity=0 time=0
note_on channel=0 note=88 velocity=34 time=240
note_on channel=0 note=84 velocity=34 time=0
note_on channel=0 note=82 velocity=34 time=0
note_on channel=0 note=79 velocity=34 time=0
note_on channel=0 note=79 velocity=0 time=720
note_on channel=0 note=84 velocity=0 time=0
note_on channel=0 note=82 velocity=0 time=0
note_on channel=0 note=88 velocity=0 time=0
note_on channel=0 note=43 velocity=34 time=240
note_on channel=0 note=46 velocity=34 time=0
note_on channel=0 note=48 velocity=34 time=0
note_on channel=0 note=52 velocity=34 time=0
note_on channel=0 note=52 velocity=0 time=720
note_on channel=0 note=46 velocity=0 time=0
note_on channel=0 note=48 velocity=0 time=0
note_on channel=0 note=43 velocity=0 time=0
note_on channel=0 note=36 velocity=0 time=120
note_on channel=0 note=36 velocity=34 time=0
note_on channel=0 note=36 velocity=0 time=0
note_on channel=0 note=41 velocity=39 time=0
note_on channel=0 note=29 velocity=39 time=0
control_change channel=0 control=64 value=0 time=8
note_on channel=0 note=48 velocity=40 time=112
note_on channel=0 note=48 velocity=0 time=40
note_on channel=0 note=53 velocity=37 time=0
note_on channel=0 note=53 velocity=0 time=0
note_on channel=0 note=56 velocity=37 time=0
note_on channel=0 note=56 velocity=0 time=0
note_on channel=0 note=29 velocity=0 time=0
note_on channel=0 note=41 velocity=0 time=0
note_on channel=0 note=60 velocity=40 time=0
note_on channel=0 note=60 velocity=0 time=120
note_on channel=0 note=61 velocity=38 time=0
note_on channel=0 note=61 velocity=0 time=120
note_on channel=0 note=60 velocity=38 time=0
note_on channel=0 note=60 velocity=0 time=40
note_on channel=0 note=58 velocity=38 time=0
note_on channel=0 note=58 velocity=0 time=120
note_on channel=0 note=56 velocity=40 time=0
note_on channel=0 note=56 velocity=0 time=120
note_on channel=0 note=58 velocity=37 time=0
note_on channel=0 note=58 velocity=0 time=80
note_on channel=0 note=56 velocity=37 time=0
note_on channel=0 note=56 velocity=0 time=120
note_on channel=0 note=55 velocity=37 time=0
note_on channel=0 note=55 velocity=0 time=0
note_on channel=0 note=53 velocity=40 time=0
note_on channel=0 note=53 velocity=0 time=120
note_on channel=0 note=55 velocity=37 time=0
note_on channel=0 note=55 velocity=0 time=120
note_on channel=0 note=56 velocity=37 time=0
note_on channel=0 note=56 velocity=0 time=0
note_on channel=0 note=53 velocity=37 time=0
note_on channel=0 note=53 velocity=0 time=0
note_on channel=0 note=41 velocity=40 time=0
note_on channel=0 note=29 velocity=40 time=0
note_on channel=0 note=48 velocity=40 time=120
note_on channel=0 note=48 velocity=0 time=120
note_on channel=0 note=53 velocity=37 time=0
note_on channel=0 note=53 velocity=0 time=120
note_on channel=0 note=56 velocity=37 time=0
note_on channel=0 note=56 velocity=0 time=120
note_on channel=0 note=29 velocity=0 time=0
note_on channel=0 note=41 velocity=0 time=0
note_on channel=0 note=60 velocity=40 time=0
note_on channel=0 note=60 velocity=0 time=120
note_on channel=0 note=61 velocity=38 time=0
note_on channel=0 note=61 velocity=0 time=0
note_on channel=0 note=60 velocity=38 time=0
note_on channel=0 note=60 velocity=0 time=120
note_on channel=0 note=58 velocity=38 time=0
note_on channel=0 note=68 velocity=51 time=0
note_on channel=0 note=72 velocity=51 time=0
note_on channel=0 note=72 velocity=0 time=0
note_on channel=0 note=68 velocity=0 time=0
note_on channel=0 note=58 velocity=0 time=0
note_on channel=0 note=56 velocity=40 time=0
note_on channel=0 note=68 velocity=56 time=0
note_on channel=0 note=72 velocity=56 time=0
note_on channel=0 note=56 velocity=0 time=120
note_on channel=0 note=58 velocity=37 time=0
note_on channel=0 note=58 velocity=0 time=120
note_on channel=0 note=56 velocity=37 time=0
note_on channel=0 note=56 velocity=0 time=120
note_on channel=0 note=55 velocity=37 time=0
note_on channel=0 note=55 velocity=0 time=120
note_on channel=0 note=72 velocity=0 time=0
note_on channel=0 note=68 velocity=0 time=0
note_on channel=0 note=53 velocity=40 time=0
note_on channel=0 note=65 velocity=30 time=0
note_on channel=0 note=68 velocity=30 time=0
note_on channel=0 note=53 velocity=0 time=120
note_on channel=0 note=55 velocity=37 time=0
note_on channel=0 note=55 velocity=0 time=120
note_on channel=0 note=68 velocity=0 time=0
note_on channel=0 note=65 velocity=0 time=0
note_on channel=0 note=56 velocity=37 time=0
note_on channel=0 note=56 velocity=0 time=0
note_on channel=0 note=53 velocity=37 time=0
note_on channel=0 note=53 velocity=0 time=0
note_on channel=0 note=46 velocity=40 time=0
note_on channel=0 note=34 velocity=40 time=0
note_on channel=0 note=49 velocity=44 time=120
note_on channel=0 note=49 velocity=0 time=120
note_on channel=0 note=54 velocity=40 time=0
note_on channel=0 note=54 velocity=0 time=120
note_on channel=0 note=58 velocity=40 time=0
note_on channel=0 note=58 velocity=0 time=120
note_on channel=0 note=34 velocity=0 time=0
note_on channel=0 note=46 velocity=0 time=0
note_on channel=0 note=61 velocity=44 time=0
note_on channel=0 note=61 velocity=0 time=120
note_on channel=0 note=63 velocity=41 time=0
note_on channel=0 note=63 velocity=0 time=0
note_on channel=0 note=61 velocity=41 time=0
note_on channel=0 note=61 velocity=0 time=120
note_on channel=0 note=60 velocity=41 time=0
note_on channel=0 note=70 velocity=63 time=0
note_on channel=0 note=73 velocity=63 time=0
note_on channel=0 note=73 velocity=0 time=0
note_on channel=0 note=70 velocity=0 time=0
note_on channel=0 note=60 velocity=0 time=0
note_on channel=0 note=58 velocity=44 time=0
note_on channel=0 note=70 velocity=70 time=0
note_on channel=0 note=73 velocity=70 time=0
note_on channel=0 note=58 velocity=0 time=120
note_on channel=0 note=60 velocity=40 time=0
note_on channel=0 note=60 velocity=0 time=120
note_on channel=0 note=58 velocity=40 time=0
note_on channel=0 note=58 velocity=0 time=120
note_on channel=0 note=56 velocity=40 time=0
note_on channel=0 note=56 velocity=0 time=120
note_on channel=0 note=54 velocity=44 time=0
note_on channel=0 note=54 velocity=0 time=120
note_on channel=0 note=56 velocity=40 time=0
note_on channel=0 note=56 velocity=0 time=120
note_on channel=0 note=54 velocity=40 time=0
note_on channel=0 note=54 velocity=0 time=0
note_on channel=0 note=53 velocity=40 time=0
note_on channel=0 note=53 velocity=0 time=0
note_on channel=0 note=73 velocity=0 time=0
note_on channel=0 note=70 velocity=0 time=0
note_on channel=0 note=52 velocity=44 time=0
note_on channel=0 note=70 velocity=51 time=0
note_on channel=0 note=72 velocity=51 time=0
note_on channel=0 note=52 velocity=0 time=120
note_on channel=0 note=53 velocity=40 time=0
note_on channel=0 note=53 velocity=0 time=120
note_on channel=0 note=72 velocity=0 time=0
note_on channel=0 note=70 velocity=0 time=0
note_on channel=0 note=55 velocity=40 time=0
note_on channel=0 note=48 velocity=43 time=0
note_on channel=0 note=36 velocity=43 time=0
note_on channel=0 note=55 velocity=0 time=0
note_on channel=0 note=52 velocity=40 time=0
note_on channel=0 note=52 velocity=0 time=0
note_on channel=0 note=36 velocity=0 time=0
note_on channel=0 note=48 velocity=0 time=0
note_on channel=0 note=53 velocity=44 time=0
note_on channel=0 note=53 velocity=0 time=120
note_on channel=0 note=55 velocity=40 time=0
note_on channel=0 note=55 velocity=0 time=120
note_on channel=0 note=56 velocity=40 time=0
note_on channel=0 note=49 velocity=37 time=0
note_on channel=0 note=37 velocity=37 time=0
note_on channel=0 note=56 velocity=0 time=0
note_on channel=0 note=53 velocity=40 time=0
note_on channel=0 note=53 velocity=0 time=0
note_on channel=0 note=37 velocity=0 time=0
note_on channel=0 note=49 velocity=0 time=0
note_on channel=0 note=55 velocity=44 time=0
note_on channel=0 note=55 velocity=0 time=120
note_on channel=0 note=56 velocity=40 time=0
note_on channel=0 note=56 velocity=0 time=120
note_on channel=0 note=58 velocity=40 time=0
note_on channel=0 note=46 velocity=39 time=0
note_on channel=0 note=34 velocity=39 time=0
note_on channel=0 note=58 velocity=0 time=0
note_on channel=0 note=55 velocity=40 time=0
note_on channel=0 note=55 velocity=0 time=0
note_on channel=0 note=34 velocity=0 time=0
note_on channel=0 note=46 velocity=0 time=0
note_on channel=0 note=52 velocity=44 time=0
note_on channel=0 note=52 velocity=0 time=120
note_on channel=0 note=53 velocity=37 time=0
note_on channel=0 note=53 velocity=0 time=120
note_on channel=0 note=55 velocity=38 time=0
note_on channel=0 note=48 velocity=35 time=0
note_on channel=0 note=36 velocity=35 time=0
note_on channel=0 note=55 velocity=0 time=0
note_on channel=0 note=52 velocity=40 time=0
note_on channel=0 note=52 velocity=0 time=0
note_on channel=0 note=36 velocity=0 time=0
note_on channel=0 note=48 velocity=0 time=0
note_on channel=0 note=53 velocity=38 time=0
note_on channel=0 note=29 velocity=40 time=0
note_on channel=0 note=41 velocity=40 time=0
note_on channel=0 note=41 velocity=0 time=40
note_on channel=0 note=29 velocity=0 time=0
note_on channel=0 note=48 velocity=37 time=0
note_on channel=0 note=48 velocity=0 time=0
note_on channel=0 note=53 velocity=37 time=0
note_on channel=0 note=53 velocity=0 time=0
note_on channel=0 note=56 velocity=40 time=0
note_on channel=0 note=56 velocity=0 time=120
note_on channel=0 note=53 velocity=0 time=0
note_on channel=0 note=60 velocity=38 time=0
note_on channel=0 note=60 velocity=0 time=120
note_on channel=0 note=61 velocity=38 time=0
note_on channel=0 note=61 velocity=0 time=0
note_on channel=0 note=64 velocity=57 time=0
note_on channel=0 note=60 velocity=38 time=0
note_on channel=0 note=60 velocity=0 time=120
note_on channel=0 note=64 velocity=0 time=0
note_on channel=0 note=58 velocity=40 time=0
note_on channel=0 note=58 velocity=0 time=0
note_on channel=0 note=65 velocity=62 time=0
note_on channel=0 note=56 velocity=37 time=0
note_on channel=0 note=56 velocity=0 time=120
note_on channel=0 note=65 velocity=0 time=0
note_on channel=0 note=58 velocity=37 time=0
note_on channel=0 note=58 velocity=0 time=120
note_on channel=0 note=67 velocity=57 time=0
note_on channel=0 note=56 velocity=37 time=0
note_on channel=0 note=56 velocity=0 time=0
note_on channel=0 note=67 velocity=0 time=0
note_on channel=0 note=55 velocity=40 time=0
note_on channel=0 note=55 velocity=0 time=0
note_on channel=0 note=68 velocity=62 time=0
note_on channel=0 note=53 velocity=37 time=0
note_on channel=0 note=53 velocity=0 time=120
note_on channel=0 note=68 velocity=0 time=0
note_on channel=0 note=55 velocity=37 time=0
note_on channel=0 note=55 velocity=0 time=0
note_on channel=0 note=65 velocity=59 time=0
note_on channel=0 note=56 velocity=37 time=0
note_on channel=0 note=56 velocity=0 time=0
note_on channel=0 note=65 velocity=0 time=0
note_on channel=0 note=53 velocity=37 time=0
note_on channel=0 note=53 velocity=0 time=0
note_on channel=0 note=56 velocity=40 time=0
note_on channel=0 note=56 velocity=0 time=120
note_on channel=0 note=48 velocity=37 time=0
note_on channel=0 note=48 velocity=0 time=120
note_on channel=0 note=53 velocity=37 time=0
note_on channel=0 note=53 velocity=0 time=120
note_on channel=0 note=56 velocity=40 time=0
note_on channel=0 note=56 velocity=0 time=120
note_on channel=0 note=60 velocity=38 time=0
note_on channel=0 note=60 velocity=0 time=0
note_on channel=0 note=61 velocity=38 time=0
note_on channel=0 note=61 velocity=0 time=0
note_on channel=0 note=76 velocity=60 time=0
note_on channel=0 note=64 velocity=52 time=0
note_on channel=0 note=60 velocity=38 time=0
note_on channel=0 note=60 velocity=0 time=120
note_on channel=0 note=64 velocity=0 time=0
note_on channel=0 note=76 velocity=0 time=0
note_on channel=0 note=58 velocity=40 time=0
note_on channel=0 note=58 velocity=0 time=0
note_on channel=0 note=77 velocity=66 time=0
note_on channel=0 note=65 velocity=57 time=0
note_on channel=0 note=56 velocity=37 time=0
note_on channel=0 note=56 velocity=0 time=120
note_on channel=0 note=65 velocity=0 time=0
note_on channel=0 note=77 velocity=0 time=0
note_on channel=0 note=58 velocity=37 time=0
note_on channel=0 note=58 velocity=0 time=0
note_on channel=0 note=67 velocity=53 time=0
note_on channel=0 note=79 velocity=63 time=0
note_on channel=0 note=56 velocity=37 time=0
note_on channel=0 note=56 velocity=0 time=120
note_on channel=0 note=79 velocity=0 time=0
note_on channel=0 note=67 velocity=0 time=0
note_on channel=0 note=55 velocity=40 time=0
note_on channel=0 note=55 velocity=0 time=120
note_on channel=0 note=68 velocity=57 time=0
note_on channel=0 note=80 velocity=68 time=0
note_on channel=0 note=53 velocity=37 time=0
note_on channel=0 note=53 velocity=0 time=120
note_on channel=0 note=80 velocity=0 time=0
note_on channel=0 note=68 velocity=0 time=0
note_on channel=0 note=55 velocity=37 time=0
note_on channel=0 note=55 velocity=0 time=0
note_on channel=0 note=65 velocity=53 time=0
note_on channel=0 note=77 velocity=63 time=0
note_on channel=0 note=56 velocity=37 time=0
note_on channel=0 note=56 velocity=0 time=0
note_on channel=0 note=77 velocity=0 time=0
note_on channel=0 note=65 velocity=0 time=0
note_on channel=0 note=53 velocity=37 time=0
note_on channel=0 note=53 velocity=0 time=0
note_on channel=0 note=58 velocity=44 time=0
note_on channel=0 note=58 velocity=0 time=120
note_on channel=0 note=49 velocity=40 time=0
note_on channel=0 note=49 velocity=0 time=120
note_on channel=0 note=54 velocity=40 time=0
note_on channel=0 note=54 velocity=0 time=120
note_on channel=0 note=58 velocity=44 time=0
note_on channel=0 note=58 velocity=0 time=120
note_on channel=0 note=61 velocity=41 time=0
note_on channel=0 note=61 velocity=0 time=0
note_on channel=0 note=63 velocity=41 time=0
note_on channel=0 note=63 velocity=0 time=0
note_on channel=0 note=65 velocity=59 time=0
note_on channel=0 note=77 velocity=71 time=0
note_on channel=0 note=61 velocity=41 time=0
control_change channel=0 control=64 value=127 time=29
note_on channel=0 note=61 velocity=0 time=91
note_on channel=0 note=60 velocity=44 time=0
note_on channel=0 note=60 velocity=0 time=0
note_on channel=0 note=77 velocity=0 time=0
note_on channel=0 note=65 velocity=0 time=0
note_on channel=0 note=66 velocity=63 time=0
note_on channel=0 note=78 velocity=77 time=0
note_on channel=0 note=58 velocity=40 time=0
control_change channel=0 control=64 value=0 time=9
control_change channel=0 control=64 value=127 time=77
note_on channel=0 note=58 velocity=0 time=34
note_on channel=0 note=60 velocity=40 time=0
note_on channel=0 note=60 velocity=0 time=120
note_on channel=0 note=78 velocity=0 time=0
note_on channel=0 note=66 velocity=0 time=0
note_on channel=0 note=70 velocity=66 time=0
note_on channel=0 note=82 velocity=79 time=0
note_on channel=0 note=58 velocity=40 time=0
note_on channel=0 note=58 velocity=0 time=0
note_on channel=0 note=56 velocity=44 time=0
note_on channel=0 note=56 velocity=0 time=0
note_on channel=0 note=82 velocity=0 time=0
note_on channel=0 note=70 velocity=0 time=0
note_on channel=0 note=73 velocity=69 time=0
note_on channel=0 note=85 velocity=81 time=0
note_on channel=0 note=54 velocity=40 time=0
control_change channel=0 control=64 value=0 time=15
control_change channel=0 control=64 value=127 time=0
note_on channel=0 note=54 velocity=0 time=0
note_on channel=0 note=85 velocity=0 time=0
note_on channel=0 note=73 velocity=0 time=0
note_on channel=0 note=56 velocity=40 time=0
note_on channel=0 note=56 velocity=0 time=0
note_on channel=0 note=73 velocity=66 time=0
note_on channel=0 note=85 velocity=79 time=0
note_on channel=0 note=54 velocity=40 time=0
note_on channel=0 note=54 velocity=0 time=120
note_on channel=0 note=85 velocity=0 time=0
note_on channel=0 note=73 velocity=0 time=0
note_on channel=0 note=53 velocity=44 time=0
note_on channel=0 note=53 velocity=0 time=40
note_on channel=0 note=73 velocity=71 time=0
note_on channel=0 note=85 velocity=83 time=0
note_on channel=0 note=52 velocity=40 time=0
control_change channel=0 control=64 value=0 time=11
control_change channel=0 control=64 value=127 time=0
note_on channel=0 note=52 velocity=0 time=0
note_on channel=0 note=53 velocity=40 time=0
note_on channel=0 note=53 velocity=0 time=0
note_on channel=0 note=55 velocity=40 time=0
note_on channel=0 note=55 velocity=0 time=40
note_on channel=0 note=56 velocity=44 time=0
note_on channel=0 note=56 velocity=0 time=0
note_on channel=0 note=85 velocity=0 time=0
note_on channel=0 note=73 velocity=0 time=0
note_on channel=0 note=84 velocity=78 time=0
note_on channel=0 note=72 velocity=64 time=0
note_on channel=0 note=58 velocity=40 time=0
control_change channel=0 control=64 value=0 time=13
control_change channel=0 control=64 value=127 time=79
note_on channel=0 note=58 velocity=0 time=28
note_on channel=0 note=56 velocity=40 time=0
note_on channel=0 note=56 velocity=0 time=80
note_on channel=0 note=55 velocity=40 time=0
note_on channel=0 note=55 velocity=0 time=40
note_on channel=0 note=53 velocity=44 time=0
note_on channel=0 note=53 velocity=0 time=0
note_on channel=0 note=52 velocity=40 time=0
control_change channel=0 control=64 value=0 time=12
control_change channel=0 control=64 value=127 time=68
note_on channel=0 note=52 velocity=0 time=40
note_on channel=0 note=53 velocity=40 time=0
note_on channel=0 note=53 velocity=0 time=120
note_on channel=0 note=52 velocity=40 time=0
note_on channel=0 note=52 velocity=0 time=120
note_on channel=0 note=49 velocity=44 time=0
note_on channel=0 note=49 velocity=0 time=120
note_on channel=0 note=72 velocity=0 time=0
note_on channel=0 note=84 velocity=0 time=0
note_on channel=0 note=64 velocity=64 time=0
note_on channel=0 note=76 velocity=64 time=0
note_on channel=0 note=48 velocity=37 time=0
control_change channel=0 control=64 value=0 time=18
control_change channel=0 control=64 value=127 time=79
note_on channel=0 note=48 velocity=0 time=23
note_on channel=0 note=46 velocity=38 time=0
note_on channel=0 note=46 velocity=0 time=120
note_on channel=0 note=44 velocity=40 time=0
note_on channel=0 note=44 velocity=0 time=120
note_on channel=0 note=43 velocity=40 time=0
note_on channel=0 note=43 velocity=0 time=0
note_on channel=0 note=76 velocity=0 time=0
note_on channel=0 note=64 velocity=0 time=0
note_on channel=0 note=77 velocity=57 time=0
note_on channel=0 note=65 velocity=57 time=0
note_on channel=0 note=41 velocity=44 time=0
control_change channel=0 control=64 value=0 time=16
control_change channel=0 control=64 value=127 time=38
note_on channel=0 note=65 velocity=0 time=42
note_on channel=0 note=77 velocity=0 time=0
note_on channel=0 note=60 velocity=41 time=0
note_on channel=0 note=60 velocity=0 time=0
note_on channel=0 note=65 velocity=44 time=0
note_on channel=0 note=65 velocity=0 time=40
note_on channel=0 note=68 velocity=46 time=0
note_on channel=0 note=68 velocity=0 time=0
note_on channel=0 note=41 velocity=0 time=0
note_on channel=0 note=72 velocity=43 time=0
note_on channel=0 note=72 velocity=0 time=0
note_on channel=0 note=60 velocity=45 time=0
note_on channel=0 note=60 velocity=0 time=0
note_on channel=0 note=65 velocity=46 time=0
note_on channel=0 note=65 velocity=0 time=0
note_on channel=0 note=68 velocity=48 time=0
note_on channel=0 note=53 velocity=52 time=0
note_on channel=0 note=56 velocity=52 time=0
note_on channel=0 note=56 velocity=0 time=0
note_on channel=0 note=53 velocity=0 time=0
note_on channel=0 note=68 velocity=0 time=0
note_on channel=0 note=53 velocity=65 time=0
note_on channel=0 note=56 velocity=65 time=0
control_change channel=0 control=64 value=0 time=17
control_change channel=0 control=64 value=127 time=59
note_on channel=0 note=60 velocity=46 time=21
note_on channel=0 note=60 velocity=0 time=80
note_on channel=0 note=65 velocity=47 time=0
note_on channel=0 note=65 velocity=0 time=80
note_on channel=0 note=68 velocity=49 time=0
note_on channel=0 note=68 velocity=0 time=0
note_on channel=0 note=56 velocity=0 time=0
note_on channel=0 note=53 velocity=0 time=0
note_on channel=0 note=72 velocity=50 time=0
note_on channel=0 note=72 velocity=0 time=0
note_on channel=0 note=60 velocity=52 time=0
note_on channel=0 note=60 velocity=0 time=40
note_on channel=0 note=65 velocity=53 time=0
note_on channel=0 note=65 velocity=0 time=0
note_on channel=0 note=68 velocity=38 time=0
note_on channel=0 note=53 velocity=54 time=0
note_on channel=0 note=56 velocity=54 time=0
note_on channel=0 note=56 velocity=0 time=0
note_on channel=0 note=53 velocity=0 time=0
note_on channel=0 note=68 velocity=0 time=0
note_on channel=0 note=48 velocity=66 time=0
note_on channel=0 note=53 velocity=66 time=0
note_on channel=0 note=56 velocity=66 time=0
control_change channel=0 control=64 value=0 time=12
control_change channel=0 control=64 value=127 time=63
note_on channel=0 note=59 velocity=51 time=0
note_on channel=0 note=59 velocity=0 time=0
note_on channel=0 note=62 velocity=52 time=0
note_on channel=0 note=62 velocity=0 time=0
note_on channel=0 note=68 velocity=52 time=0
note_on channel=0 note=68 velocity=0 time=0
note_on channel=0 note=71 velocity=54 time=0
note_on channel=0 note=59 velocity=52 time=0
note_on channel=0 note=59 velocity=0 time=0
note_on channel=0 note=62 velocity=52 time=0
note_on channel=0 note=62 velocity=0 time=0
note_on channel=0 note=68 velocity=52 time=0
note_on channel=0 note=68 velocity=0 time=0
note_on channel=0 note=48 velocity=0 time=0
note_on channel=0 note=56 velocity=0 time=0
note_on channel=0 note=53 velocity=0 time=0
note_on channel=0 note=71 velocity=0 time=0
note_on channel=0 note=71 velocity=54 time=0
note_on channel=0 note=48 velocity=48 time=0
note_on channel=0 note=52 velocity=48 time=0
note_on channel=0 note=55 velocity=48 time=0
control_change channel=0 control=64 value=0 time=14
note_on channel=0 note=59 velocity=52 time=0
control_change channel=0 control=64 value=127 time=17
note_on channel=0 note=59 velocity=0 time=0
note_on channel=0 note=52 velocity=0 time=0
note_on channel=0 note=55 velocity=0 time=0
note_on channel=0 note=48 velocity=0 time=0
note_on channel=0 note=64 velocity=50 time=0
note_on channel=0 note=64 velocity=0 time=40
note_on channel=0 note=67 velocity=49 time=0
note_on channel=0 note=67 velocity=0 time=40
note_on channel=0 note=71 velocity=0 time=0
note_on channel=0 note=72 velocity=52 time=0
control_change channel=0 control=64 value=0 time=18
control_change channel=0 control=64 value=127 time=46
note_on channel=0 note=60 velocity=46 time=34
note_on channel=0 note=60 velocity=0 time=0
note_on channel=0 note=64 velocity=44 time=0
note_on channel=0 note=64 velocity=0 time=0
note_on channel=0 note=67 velocity=38 time=0
note_on channel=0 note=67 velocity=0 time=40
note_on channel=0 note=72 velocity=0 time=0
note_on channel=0 note=36 velocity=42 time=0
note_on channel=0 note=48 velocity=42 time=0
control_change channel=0 control=64 value=0 time=17
note_on channel=0 note=60 velocity=38 time=40
control_change channel=0 control=64 value=127 time=35
note_on channel=0 note=60 velocity=0 time=40
note_on channel=0 note=64 velocity=40 time=0
note_on channel=0 note=64 velocity=0 time=40
note_on channel=0 note=67 velocity=42 time=0
note_on channel=0 note=67 velocity=0 time=40
note_on channel=0 note=48 velocity=0 time=0
note_on channel=0 note=36 velocity=0 time=0
note_on channel=0 note=72 velocity=43 time=0
note_on channel=0 note=72 velocity=0 time=0
note_on channel=0 note=60 velocity=45 time=0
note_on channel=0 note=60 velocity=0 time=0
note_on channel=0 note=64 velocity=46 time=0
note_on channel=0 note=64 velocity=0 time=0
note_on channel=0 note=67 velocity=48 time=0
note_on channel=0 note=55 velocity=60 time=0
note_on channel=0 note=58 velocity=60 time=0
note_on channel=0 note=58 velocity=0 time=40
note_on channel=0 note=55 velocity=0 time=0
note_on channel=0 note=67 velocity=0 time=0
note_on channel=0 note=55 velocity=68 time=0
note_on channel=0 note=58 velocity=68 time=0
control_change channel=0 control=64 value=0 time=15
control_change channel=0 control=64 value=127 time=82
note_on channel=0 note=60 velocity=46 time=0
note_on channel=0 note=60 velocity=0 time=0
note_on channel=0 note=64 velocity=47 time=0
note_on channel=0 note=64 velocity=0 time=0
note_on channel=0 note=67 velocity=49 time=0
note_on channel=0 note=67 velocity=0 time=0
note_on channel=0 note=58 velocity=0 time=0
note_on channel=0 note=55 velocity=0 time=0
note_on channel=0 note=72 velocity=50 time=0
note_on channel=0 note=72 velocity=0 time=0
note_on channel=0 note=60 velocity=52 time=0
note_on channel=0 note=60 velocity=0 time=0
note_on channel=0 note=64 velocity=53 time=0
note_on channel=0 note=64 velocity=0 time=0
note_on channel=0 note=67 velocity=38 time=0
note_on channel=0 note=55 velocity=61 time=0
note_on channel=0 note=58 velocity=61 time=0
note_on channel=0 note=58 velocity=0 time=0
note_on channel=0 note=55 velocity=0 time=0
note_on channel=0 note=67 velocity=0 time=0
note_on channel=0 note=53 velocity=58 time=0
note_on channel=0 note=55 velocity=58 time=0
note_on channel=0 note=58 velocity=69 time=0
control_change channel=0 control=64 value=0 time=19
note_on channel=0 note=60 velocity=51 time=80
control_change channel=0 control=64 value=127 time=35
note_on channel=0 note=60 velocity=0 time=0
note_on channel=0 note=64 velocity=52 time=0
note_on channel=0 note=64 velocity=0 time=120
note_on channel=0 note=67 velocity=52 time=0
note_on channel=0 note=67 velocity=0 time=80
note_on channel=0 note=72 velocity=54 time=0
note_on channel=0 note=60 velocity=52 time=40
note_on channel=0 note=60 velocity=0 time=0
note_on channel=0 note=64 velocity=52 time=0
note_on channel=0 note=64 velocity=0 time=120
note_on channel=0 note=67 velocity=52 time=0
note_on channel=0 note=67 velocity=0 time=0
note_on channel=0 note=53 velocity=0 time=0
note_on channel=0 note=58 velocity=0 time=0
note_on channel=0 note=55 velocity=0 time=0
note_on channel=0 note=72 velocity=0 time=0
note_on channel=0 note=72 velocity=53 time=0
note_on channel=0 note=53 velocity=47 time=0
note_on channel=0 note=56 velocity=52 time=0
control_change channel=0 control=64 value=0 time=9
control_change channel=0 control=64 value=127 time=106
note_on channel=0 note=60 velocity=52 time=5
note_on channel=0 note=60 velocity=0 time=80
note_on channel=0 note=56 velocity=0 time=0
note_on channel=0 note=53 velocity=0 time=0
note_on channel=0 note=64 velocity=50 time=0
note_on channel=0 note=64 velocity=0 time=80
note_on channel=0 note=67 velocity=49 time=0
note_on channel=0 note=67 velocity=0 time=40
note_on channel=0 note=72 velocity=0 time=0
note_on channel=0 note=72 velocity=47 time=0
control_change channel=0 control=64 value=0 time=16
control_change channel=0 control=64 value=127 time=0
note_on channel=0 note=60 velocity=46 time=40
note_on channel=0 note=60 velocity=0 time=0
note_on channel=0 note=65 velocity=44 time=0
note_on channel=0 note=65 velocity=0 time=0
note_on channel=0 note=68 velocity=38 time=0
note_on channel=0 note=68 velocity=0 time=0
note_on channel=0 note=72 velocity=0 time=0
note_on channel=0 note=41 velocity=45 time=0
note_on channel=0 note=53 velocity=45 time=0
control_change channel=0 control=64 value=0 time=15
control_change channel=0 control=64 value=127 time=65
note_on channel=0 note=65 velocity=38 time=0
note_on channel=0 note=65 velocity=0 time=0
note_on channel=0 note=69 velocity=40 time=0
note_on channel=0 note=69 velocity=0 time=0
note_on channel=0 note=72 velocity=42 time=0
note_on channel=0 note=72 velocity=0 time=40
note_on channel=0 note=53 velocity=0 time=0
note_on channel=0 note=41 velocity=0 time=0
note_on channel=0 note=77 velocity=43 time=0
note_on channel=0 note=77 velocity=0 time=40
note_on channel=0 note=65 velocity=45 time=0
note_on channel=0 note=65 velocity=0 time=40
note_on channel=0 note=69 velocity=46 time=0
note_on channel=0 note=69 velocity=0 time=0
note_on channel=0 note=72 velocity=48 time=0
note_on channel=0 note=60 velocity=59 time=0
note_on channel=0 note=63 velocity=59 time=0
note_on channel=0 note=63 velocity=0 time=0
note_on channel=0 note=60 velocity=0 time=0
note_on channel=0 note=72 velocity=0 time=0
note_on channel=0 note=60 velocity=68 time=0
note_on channel=0 note=63 velocity=68 time=0
control_change channel=0 control=64 value=0 time=17
note_on channel=0 note=65 velocity=46 time=0
control_change channel=0 control=64 value=127 time=17
note_on channel=0 note=65 velocity=0 time=0
note_on channel=0 note=69 velocity=47 time=0
note_on channel=0 note=69 velocity=0 time=0
note_on channel=0 note=72 velocity=49 time=0
note_on channel=0 note=72 velocity=0 time=0
note_on channel=0 note=63 velocity=0 time=0
note_on channel=0 note=60 velocity=0 time=0
note_on channel=0 note=77 velocity=50 time=0
note_on channel=0 note=77 velocity=0 time=0
note_on channel=0 note=65 velocity=52 time=0
note_on channel=0 note=65 velocity=0 time=0
note_on channel=0 note=69 velocity=53 time=0
note_on channel=0 note=69 velocity=0 time=0
note_on channel=0 note=72 velocity=54 time=0
note_on channel=0 note=60 velocity=66 time=0
note_on channel=0 note=63 velocity=66 time=0
note_on channel=0 note=63 velocity=0 time=0
note_on channel=0 note=60 velocity=0 time=0
note_on channel=0 note=72 velocity=0 time=0
note_on channel=0 note=58 velocity=72 time=0
note_on channel=0 note=60 velocity=72 time=0
note_on channel=0 note=63 velocity=72 time=0
control_change channel=0 control=64 value=0 time=18
control_change channel=0 control=64 value=127 time=79
note_on channel=0 note=65 velocity=50 time=23
note_on channel=0 note=65 velocity=0 time=120
note_on channel=0 note=69 velocity=50 time=0
note_on channel=0 note=69 velocity=0 time=120
note_on channel=0 note=72 velocity=50 time=0
note_on channel=0 note=72 velocity=0 time=120
note_on channel=0 note=77 velocity=55 time=0
note_on channel=0 note=65 velocity=53 time=120
note_on channel=0 note=65 velocity=0 time=120
note_on channel=0 note=69 velocity=52 time=0
note_on channel=0 note=69 velocity=0 time=120
note_on channel=0 note=72 velocity=52 time=0
note_on channel=0 note=72 velocity=0 time=0
note_on channel=0 note=77 velocity=0 time=0
note_on channel=0 note=69 velocity=54 time=0
note_on channel=0 note=65 velocity=54 time=0
control_change channel=0 control=64 value=0 time=8
note_on channel=0 note=65 velocity=0 time=112
note_on channel=0 note=69 velocity=0 time=0
note_on channel=0 note=77 velocity=54 time=0
note_on channel=0 note=77 velocity=0 time=0
note_on channel=0 note=63 velocity=0 time=0
note_on channel=0 note=60 velocity=0 time=0
note_on channel=0 note=58 velocity=0 time=0
note_on channel=0 note=65 velocity=53 time=0
note_on channel=0 note=70 velocity=53 time=0
note_on channel=0 note=58 velocity=64 time=0
note_on channel=0 note=61 velocity=64 time=0
note_on channel=0 note=70 velocity=0 time=120
note_on channel=0 note=65 velocity=0 time=0
note_on channel=0 note=77 velocity=52 time=0
note_on channel=0 note=77 velocity=0 time=0
note_on channel=0 note=58 velocity=0 time=0
note_on channel=0 note=61 velocity=0 time=0
note_on channel=0 note=65 velocity=52 time=0
note_on channel=0 note=72 velocity=52 time=0
note_on channel=0 note=56 velocity=61 time=0
note_on channel=0 note=60 velocity=61 time=0
note_on channel=0 note=72 velocity=0 time=120
note_on channel=0 note=65 velocity=0 time=0
note_on channel=0 note=77 velocity=51 time=0
note_on channel=0 note=77 velocity=0 time=0
note_on channel=0 note=56 velocity=0 time=0
note_on channel=0 note=60 velocity=0 time=0
note_on channel=0 note=73 velocity=50 time=0
note_on channel=0 note=65 velocity=50 time=0
note_on channel=0 note=55 velocity=59 time=0
note_on channel=0 note=58 velocity=59 time=0
note_on channel=0 note=65 velocity=0 time=120
note_on channel=0 note=73 velocity=0 time=0
note_on channel=0 note=77 velocity=50 time=0
note_on channel=0 note=77 velocity=0 time=0
note_on channel=0 note=55 velocity=0 time=0
note_on channel=0 note=58 velocity=0 time=0
note_on channel=0 note=48 velocity=56 time=0
note_on channel=0 note=53 velocity=56 time=0
note_on channel=0 note=56 velocity=56 time=0
control_change channel=0 control=64 value=127 time=64
note_on channel=0 note=60 velocity=52 time=56
note_on channel=0 note=60 velocity=0 time=120
note_on channel=0 note=65 velocity=49 time=0
note_on channel=0 note=65 velocity=0 time=120
note_on channel=0 note=68 velocity=50 time=0
note_on channel=0 note=68 velocity=0 time=120
note_on channel=0 note=48 velocity=0 time=0
note_on channel=0 note=53 velocity=0 time=0
note_on channel=0 note=56 velocity=0 time=0
note_on channel=0 note=72 velocity=56 time=0
note_on channel=0 note=60 velocity=50 time=120
note_on channel=0 note=60 velocity=0 time=120
note_on channel=0 note=65 velocity=50 time=0
note_on channel=0 note=65 velocity=0 time=0
note_on channel=0 note=68 velocity=50 time=0
note_on channel=0 note=53 velocity=56 time=0
note_on channel=0 note=56 velocity=56 time=0
note_on channel=0 note=56 velocity=0 time=0
note_on channel=0 note=72 velocity=0 time=0
note_on channel=0 note=68 velocity=0 time=0
note_on channel=0 note=53 velocity=0 time=0
note_on channel=0 note=72 velocity=56 time=0
note_on channel=0 note=48 velocity=63 time=0
note_on channel=0 note=55 velocity=63 time=0
note_on channel=0 note=58 velocity=63 time=0
control_change channel=0 control=64 value=0 time=12
control_change channel=0 control=64 value=127 time=68
note_on channel=0 note=60 velocity=52 time=40
note_on channel=0 note=60 velocity=0 time=0
note_on channel=0 note=67 velocity=52 time=0
note_on channel=0 note=67 velocity=0 time=120
note_on channel=0 note=70 velocity=52 time=0
note_on channel=0 note=70 velocity=0 time=0
note_on channel=0 note=55 velocity=0 time=0
note_on channel=0 note=72 velocity=0 time=0
note_on channel=0 note=48 velocity=0 time=0
note_on channel=0 note=58 velocity=0 time=0
note_on channel=0 note=72 velocity=56 time=0
note_on channel=0 note=60 velocity=52 time=40
note_on channel=0 note=60 velocity=0 time=0
note_on channel=0 note=64 velocity=52 time=0
note_on channel=0 note=64 velocity=0 time=0
note_on channel=0 note=67 velocity=52 time=0
note_on channel=0 note=52 velocity=53 time=0
note_on channel=0 note=55 velocity=53 time=0
note_on channel=0 note=55 velocity=0 time=0
note_on channel=0 note=72 velocity=0 time=0
note_on channel=0 note=67 velocity=0 time=0
note_on channel=0 note=52 velocity=0 time=0
note_on channel=0 note=60 velocity=59 time=0
note_on channel=0 note=65 velocity=59 time=0
note_on channel=0 note=68 velocity=59 time=0
note_on channel=0 note=72 velocity=59 time=0
note_on channel=0 note=53 velocity=56 time=0
control_change channel=0 control=64 value=0 time=18
control_change channel=0 control=64 value=127 time=81
note_on channel=0 note=53 velocity=0 time=0
note_on channel=0 note=60 velocity=49 time=0
note_on channel=0 note=60 velocity=0 time=0
note_on channel=0 note=56 velocity=49 time=0
note_on channel=0 note=56 velocity=0 time=0
note_on channel=0 note=53 velocity=49 time=0
note_on channel=0 note=53 velocity=0 time=40
note_on channel=0 note=72 velocity=0 time=0
note_on channel=0 note=60 velocity=0 time=0
note_on channel=0 note=65 velocity=0 time=0
note_on channel=0 note=68 velocity=0 time=0
note_on channel=0 note=48 velocity=53 time=0
note_on channel=0 note=48 velocity=0 time=0
note_on channel=0 note=56 velocity=49 time=0
note_on channel=0 note=56 velocity=0 time=0
note_on channel=0 note=53 velocity=49 time=0
note_on channel=0 note=53 velocity=0 time=0
note_on channel=0 note=80 velocity=69 time=0
note_on channel=0 note=77 velocity=69 time=0
note_on channel=0 note=48 velocity=49 time=0
note_on channel=0 note=48 velocity=0 time=0
note_on channel=0 note=77 velocity=0 time=0
note_on channel=0 note=80 velocity=0 time=0
note_on channel=0 note=80 velocity=74 time=0
note_on channel=0 note=77 velocity=74 time=0
note_on channel=0 note=44 velocity=53 time=0
control_change channel=0 control=64 value=0 time=13
control_change channel=0 control=64 value=127 time=86
note_on channel=0 note=44 velocity=0 time=0
note_on channel=0 note=53 velocity=49 time=0
note_on channel=0 note=53 velocity=0 time=0
note_on channel=0 note=48 velocity=49 time=0
note_on channel=0 note=48 velocity=0 time=0
note_on channel=0 note=44 velocity=49 time=0
note_on channel=0 note=44 velocity=0 time=0
note_on channel=0 note=77 velocity=0 time=0
note_on channel=0 note=80 velocity=0 time=0
note_on channel=0 note=41 velocity=53 time=0
note_on channel=0 note=41 velocity=0 time=0
note_on channel=0 note=48 velocity=49 time=0
note_on channel=0 note=48 velocity=0 time=0
note_on channel=0 note=44 velocity=49 time=0
note_on channel=0 note=44 velocity=0 time=0
note_on channel=0 note=80 velocity=70 time=0
note_on channel=0 note=77 velocity=70 time=0
note_on channel=0 note=41 velocity=49 time=0
note_on channel=0 note=41 velocity=0 time=0
note_on channel=0 note=77 velocity=0 time=0
note_on channel=0 note=80 velocity=0 time=0
note_on channel=0 note=80 velocity=75 time=0
note_on channel=0 note=77 velocity=75 time=0
note_on channel=0 note=36 velocity=53 time=0
control_change channel=0 control=64 value=0 time=12
control_change channel=0 control=64 value=127 time=57
note_on channel=0 note=36 velocity=0 time=51
note_on channel=0 note=41 velocity=49 time=0
note_on channel=0 note=41 velocity=0 time=120
note_on channel=0 note=44 velocity=49 time=0
note_on channel=0 note=44 velocity=0 time=120
note_on channel=0 note=48 velocity=49 time=0
note_on channel=0 note=48 velocity=0 time=120
note_on channel=0 note=47 velocity=53 time=0
control_change channel=0 control=64 value=0 time=12
control_change channel=0 control=64 value=127 time=74
note_on channel=0 note=47 velocity=0 time=34
note_on channel=0 note=48 velocity=49 time=0
note_on channel=0 note=48 velocity=0 time=120
note_on channel=0 note=47 velocity=49 time=0
note_on channel=0 note=47 velocity=0 time=120
note_on channel=0 note=48 velocity=49 time=0
note_on channel=0 note=48 velocity=0 time=40
note_on channel=0 note=77 velocity=0 time=0
note_on channel=0 note=80 velocity=0 time=0
note_on channel=0 note=79 velocity=68 time=0
note_on channel=0 note=76 velocity=68 time=0
note_on channel=0 note=47 velocity=53 time=0
control_change channel=0 control=64 value=0 time=12
control_change channel=0 control=64 value=127 time=63
note_on channel=0 note=47 velocity=0 time=40
note_on channel=0 note=48 velocity=49 time=0
note_on channel=0 note=48 velocity=0 time=40
note_on channel=0 note=76 velocity=0 time=0
note_on channel=0 note=79 velocity=0 time=0
note_on channel=0 note=43 velocity=49 time=0
note_on channel=0 note=43 velocity=0 time=40
note_on channel=0 note=48 velocity=49 time=0
note_on channel=0 note=48 velocity=0 time=40
note_on channel=0 note=40 velocity=53 time=0
note_on channel=0 note=40 velocity=0 time=40
note_on channel=0 note=48 velocity=49 time=0
note_on channel=0 note=48 velocity=0 time=40
note_on channel=0 note=43 velocity=49 time=0
note_on channel=0 note=43 velocity=0 time=40
note_on channel=0 note=48 velocity=49 time=0
note_on channel=0 note=48 velocity=0 time=0
note_on channel=0 note=36 velocity=56 time=0
control_change channel=0 control=64 value=0 time=19
control_change channel=0 control=64 value=127 time=61
note_on channel=0 note=36 velocity=0 time=40
note_on channel=0 note=40 velocity=49 time=0
note_on channel=0 note=40 velocity=0 time=120
note_on channel=0 note=43 velocity=49 time=0
note_on channel=0 note=43 velocity=0 time=120
note_on channel=0 note=48 velocity=49 time=0
note_on channel=0 note=48 velocity=0 time=120
note_on channel=0 note=40 velocity=53 time=0
note_on channel=0 note=40 velocity=0 time=120
note_on channel=0 note=43 velocity=49 time=0
note_on channel=0 note=43 velocity=0 time=120
note_on channel=0 note=48 velocity=49 time=0
note_on channel=0 note=48 velocity=0 time=0
note_on channel=0 note=82 velocity=75 time=0
note_on channel=0 note=79 velocity=75 time=0
note_on channel=0 note=52 velocity=49 time=0
note_on channel=0 note=52 velocity=0 time=0
note_on channel=0 note=79 velocity=0 time=0
note_on channel=0 note=82 velocity=0 time=0
note_on channel=0 note=82 velocity=81 time=0
note_on channel=0 note=79 velocity=81 time=0
note_on channel=0 note=43 velocity=53 time=0
control_change channel=0 control=64 value=0 time=10
control_change channel=0 control=64 value=127 time=65
note_on channel=0 note=43 velocity=0 time=45
note_on channel=0 note=48 velocity=49 time=0
note_on channel=0 note=48 velocity=0 time=120
note_on channel=0 note=52 velocity=49 time=0
note_on channel=0 note=52 velocity=0 time=120
note_on channel=0 note=55 velocity=49 time=0
note_on channel=0 note=55 velocity=0 time=120
note_on channel=0 note=79 velocity=0 time=0
note_on channel=0 note=82 velocity=0 time=0
note_on channel=0 note=48 velocity=53 time=0
note_on channel=0 note=48 velocity=0 time=120
note_on channel=0 note=52 velocity=49 time=0
note_on channel=0 note=52 velocity=0 time=120
note_on channel=0 note=55 velocity=49 time=0
note_on channel=0 note=55 velocity=0 time=0
note_on channel=0 note=82 velocity=77 time=0
note_on channel=0 note=79 velocity=77 time=0
note_on channel=0 note=60 velocity=49 time=0
note_on channel=0 note=60 velocity=0 time=0
note_on channel=0 note=79 velocity=0 time=0
note_on channel=0 note=82 velocity=0 time=0
note_on channel=0 note=82 velocity=82 time=0
note_on channel=0 note=79 velocity=82 time=0
note_on channel=0 note=53 velocity=59 time=0
control_change channel=0 control=64 value=0 time=19
control_change channel=0 control=64 value=127 time=23
note_on channel=0 note=53 velocity=0 time=57
note_on channel=0 note=56 velocity=49 time=0
note_on channel=0 note=56 velocity=0 time=0
note_on channel=0 note=60 velocity=49 time=0
note_on channel=0 note=60 velocity=0 time=0
note_on channel=0 note=65 velocity=49 time=0
note_on channel=0 note=65 velocity=0 time=40
note_on channel=0 note=64 velocity=53 time=0
control_change channel=0 control=64 value=0 time=12
control_change channel=0 control=64 value=127 time=74
note_on channel=0 note=64 velocity=0 time=34
note_on channel=0 note=65 velocity=49 time=0
note_on channel=0 note=65 velocity=0 time=80
note_on channel=0 note=64 velocity=49 time=0
note_on channel=0 note=64 velocity=0 time=40
note_on channel=0 note=65 velocity=49 time=0
note_on channel=0 note=65 velocity=0 time=0
note_on channel=0 note=79 velocity=0 time=0
note_on channel=0 note=82 velocity=0 time=0
note_on channel=0 note=80 velocity=74 time=0
note_on channel=0 note=77 velocity=74 time=0
note_on channel=0 note=64 velocity=53 time=0
control_change channel=0 control=64 value=0 time=12
control_change channel=0 control=64 value=127 time=68
note_on channel=0 note=64 velocity=0 time=40
note_on channel=0 note=65 velocity=49 time=0
note_on channel=0 note=65 velocity=0 time=120
note_on channel=0 note=77 velocity=0 time=0
note_on channel=0 note=80 velocity=0 time=0
note_on channel=0 note=60 velocity=49 time=0
note_on channel=0 note=60 velocity=0 time=120
note_on channel=0 note=65 velocity=49 time=0
note_on channel=0 note=65 velocity=0 time=120
note_on channel=0 note=56 velocity=53 time=0
note_on channel=0 note=56 velocity=0 time=120
note_on channel=0 note=65 velocity=49 time=0
note_on channel=0 note=65 velocity=0 time=120
note_on channel=0 note=60 velocity=49 time=0
note_on channel=0 note=60 velocity=0 time=120
note_on channel=0 note=65 velocity=49 time=0
note_on channel=0 note=65 velocity=0 time=40
note_on channel=0 note=53 velocity=61 time=0
control_change channel=0 control=64 value=0 time=14
control_change channel=0 control=64 value=127 time=72
note_on channel=0 note=53 velocity=0 time=0
note_on channel=0 note=57 velocity=53 time=0
note_on channel=0 note=57 velocity=0 time=120
note_on channel=0 note=60 velocity=53 time=0
note_on channel=0 note=60 velocity=0 time=80
note_on channel=0 note=65 velocity=53 time=0
note_on channel=0 note=65 velocity=0 time=0
note_on channel=0 note=57 velocity=58 time=0
note_on channel=0 note=57 velocity=0 time=40
note_on channel=0 note=60 velocity=53 time=0
note_on channel=0 note=60 velocity=0 time=0
note_on channel=0 note=65 velocity=53 time=0
note_on channel=0 note=65 velocity=0 time=0
note_on channel=0 note=87 velocity=82 time=0
note_on channel=0 note=84 velocity=82 time=0
note_on channel=0 note=69 velocity=53 time=0
note_on channel=0 note=69 velocity=0 time=0
note_on channel=0 note=84 velocity=0 time=0
note_on channel=0 note=87 velocity=0 time=0
note_on channel=0 note=87 velocity=89 time=0
note_on channel=0 note=84 velocity=89 time=0
note_on channel=0 note=60 velocity=58 time=0
control_change channel=0 control=64 value=0 time=12
control_change channel=0 control=64 value=127 time=40
note_on channel=0 note=60 velocity=0 time=68
note_on channel=0 note=65 velocity=53 time=0
note_on channel=0 note=65 velocity=0 time=120
note_on channel=0 note=69 velocity=53 time=0
note_on channel=0 note=69 velocity=0 time=120
note_on channel=0 note=72 velocity=53 time=0
note_on channel=0 note=72 velocity=0 time=120
note_on channel=0 note=84 velocity=0 time=0
note_on channel=0 note=87 velocity=0 time=0
note_on channel=0 note=65 velocity=58 time=0
note_on channel=0 note=65 velocity=0 time=120
note_on channel=0 note=69 velocity=53 time=0
note_on channel=0 note=69 velocity=0 time=120
note_on channel=0 note=72 velocity=53 time=0
note_on channel=0 note=72 velocity=0 time=0
note_on channel=0 note=87 velocity=84 time=0
note_on channel=0 note=84 velocity=84 time=0
note_on channel=0 note=77 velocity=53 time=0
note_on channel=0 note=77 velocity=0 time=0
note_on channel=0 note=84 velocity=0 time=0
note_on channel=0 note=87 velocity=0 time=0
note_on channel=0 note=87 velocity=90 time=0
note_on channel=0 note=84 velocity=90 time=0
note_on channel=0 note=69 velocity=67 time=0
control_change channel=0 control=64 value=0 time=12
control_change channel=0 control=64 value=127 time=57
note_on channel=0 note=69 velocity=0 time=51
note_on channel=0 note=77 velocity=53 time=0
note_on channel=0 note=77 velocity=0 time=120
note_on channel=0 note=76 velocity=53 time=0
note_on channel=0 note=76 velocity=0 time=120
note_on channel=0 note=77 velocity=53 time=0
note_on channel=0 note=77 velocity=0 time=120
note_on channel=0 note=69 velocity=58 time=0
note_on channel=0 note=69 velocity=0 time=120
note_on channel=0 note=77 velocity=53 time=0
note_on channel=0 note=77 velocity=0 time=120
note_on channel=0 note=69 velocity=53 time=0
note_on channel=0 note=69 velocity=0 time=120
note_on channel=0 note=77 velocity=53 time=0
note_on channel=0 note=77 velocity=0 time=0
note_on channel=0 note=69 velocity=57 time=0
control_change channel=0 control=64 value=0 time=17
control_change channel=0 control=64 value=127 time=63
note_on channel=0 note=69 velocity=0 time=40
note_on channel=0 note=77 velocity=56 time=0
note_on channel=0 note=77 velocity=0 time=0
note_on channel=0 note=84 velocity=0 time=0
note_on channel=0 note=87 velocity=0 time=0
note_on channel=0 note=85 velocity=79 time=0
note_on channel=0 note=82 velocity=79 time=0
note_on channel=0 note=70 velocity=56 time=0
note_on channel=0 note=70 velocity=0 time=120
note_on channel=0 note=77 velocity=55 time=0
note_on channel=0 note=77 velocity=0 time=120
note_on channel=0 note=82 velocity=0 time=0
note_on channel=0 note=85 velocity=0 time=0
note_on channel=0 note=84 velocity=77 time=0
note_on channel=0 note=80 velocity=77 time=0
note_on channel=0 note=72 velocity=54 time=0
note_on channel=0 note=72 velocity=0 time=120
note_on channel=0 note=77 velocity=53 time=0
note_on channel=0 note=77 velocity=0 time=120
note_on channel=0 note=80 velocity=0 time=0
note_on channel=0 note=84 velocity=0 time=0
note_on channel=0 note=82 velocity=73 time=0
note_on channel=0 note=79 velocity=73 time=0
note_on channel=0 note=73 velocity=52 time=0
note_on channel=0 note=73 velocity=0 time=120
note_on channel=0 note=77 velocity=52 time=0
note_on channel=0 note=77 velocity=0 time=0
note_on channel=0 note=79 velocity=0 time=0
note_on channel=0 note=82 velocity=0 time=0
note_on channel=0 note=80 velocity=82 time=0
note_on channel=0 note=77 velocity=82 time=0
note_on channel=0 note=60 velocity=52 time=0
control_change channel=0 control=64 value=0 time=12
control_change channel=0 control=64 value=127 time=63
note_on channel=0 note=60 velocity=0 time=45
note_on channel=0 note=65 velocity=47 time=0
note_on channel=0 note=65 velocity=0 time=120
note_on channel=0 note=68 velocity=47 time=0
note_on channel=0 note=68 velocity=0 time=120
note_on channel=0 note=72 velocity=47 time=0
note_on channel=0 note=72 velocity=0 time=0
note_on channel=0 note=77 velocity=0 time=0
note_on channel=0 note=80 velocity=0 time=0
note_on channel=0 note=71 velocity=52 time=0
note_on channel=0 note=71 velocity=0 time=120
note_on channel=0 note=72 velocity=47 time=0
note_on channel=0 note=72 velocity=0 time=120
note_on channel=0 note=71 velocity=47 time=0
note_on channel=0 note=71 velocity=0 time=0
note_on channel=0 note=89 velocity=79 time=0
note_on channel=0 note=80 velocity=79 time=0
note_on channel=0 note=77 velocity=79 time=0
note_on channel=0 note=72 velocity=47 time=0
note_on channel=0 note=72 velocity=0 time=0
note_on channel=0 note=89 velocity=0 time=0
note_on channel=0 note=80 velocity=0 time=0
note_on channel=0 note=77 velocity=0 time=0
note_on channel=0 note=91 velocity=82 time=0
note_on channel=0 note=82 velocity=82 time=0
note_on channel=0 note=79 velocity=82 time=0
note_on channel=0 note=60 velocity=52 time=0
control_change channel=0 control=64 value=0 time=17
control_change channel=0 control=64 value=127 time=69
note_on channel=0 note=60 velocity=0 time=34
note_on channel=0 note=64 velocity=47 time=0
note_on channel=0 note=64 velocity=0 time=120
note_on channel=0 note=67 velocity=47 time=0
note_on channel=0 note=67 velocity=0 time=120
note_on channel=0 note=72 velocity=47 time=0
note_on channel=0 note=72 velocity=0 time=120
note_on channel=0 note=79 velocity=0 time=0
note_on channel=0 note=82 velocity=0 time=0
note_on channel=0 note=91 velocity=0 time=0
note_on channel=0 note=60 velocity=52 time=0
note_on channel=0 note=60 velocity=0 time=120
note_on channel=0 note=67 velocity=47 time=0
note_on channel=0 note=67 velocity=0 time=120
note_on channel=0 note=70 velocity=47 time=0
note_on channel=0 note=70 velocity=0 time=0
note_on channel=0 note=88 velocity=79 time=0
note_on channel=0 note=79 velocity=79 time=0
note_on channel=0 note=76 velocity=79 time=0
note_on channel=0 note=72 velocity=47 time=0
note_on channel=0 note=72 velocity=0 time=0
note_on channel=0 note=88 velocity=0 time=0
note_on channel=0 note=79 velocity=0 time=0
note_on channel=0 note=76 velocity=0 time=0
note_on channel=0 note=89 velocity=73 time=0
note_on channel=0 note=80 velocity=73 time=0
note_on channel=0 note=77 velocity=73 time=0
note_on channel=0 note=53 velocity=52 time=0
control_change channel=0 control=64 value=0 time=11
control_change channel=0 control=64 value=127 time=95
note_on channel=0 note=53 velocity=0 time=0
note_on channel=0 note=89 velocity=0 time=0
note_on channel=0 note=80 velocity=0 time=0
note_on channel=0 note=77 velocity=0 time=0
note_on channel=0 note=72 velocity=61 time=0
note_on channel=0 note=68 velocity=38 time=0
note_on channel=0 note=65 velocity=38 time=0
note_on channel=0 note=65 velocity=0 time=20
note_on channel=0 note=68 velocity=0 time=0
note_on channel=0 note=72 velocity=0 time=0
note_on channel=0 note=77 velocity=62 time=0
note_on channel=0 note=60 velocity=39 time=0
note_on channel=0 note=72 velocity=39 time=0
note_on channel=0 note=72 velocity=0 time=40
note_on channel=0 note=60 velocity=0 time=0
note_on channel=0 note=77 velocity=0 time=0
note_on channel=0 note=80 velocity=63 time=0
note_on channel=0 note=68 velocity=41 time=0
note_on channel=0 note=65 velocity=41 time=0
note_on channel=0 note=65 velocity=0 time=40
note_on channel=0 note=68 velocity=0 time=0
note_on channel=0 note=80 velocity=0 time=0
note_on channel=0 note=84 velocity=68 time=0
note_on channel=0 note=60 velocity=45 time=0
note_on channel=0 note=72 velocity=45 time=0
note_on channel=0 note=72 velocity=0 time=60
note_on channel=0 note=60 velocity=0 time=0
note_on channel=0 note=84 velocity=0 time=0
note_on channel=0 note=85 velocity=65 time=0
note_on channel=0 note=68 velocity=44 time=0
note_on channel=0 note=65 velocity=44 time=0
note_on channel=0 note=65 velocity=0 time=80
note_on channel=0 note=68 velocity=0 time=0
note_on channel=0 note=85 velocity=0 time=0
note_on channel=0 note=84 velocity=66 time=0
note_on channel=0 note=60 velocity=45 time=0
note_on channel=0 note=72 velocity=45 time=0
note_on channel=0 note=72 velocity=0 time=80
note_on channel=0 note=60 velocity=0 time=0
note_on channel=0 note=84 velocity=0 time=0
note_on channel=0 note=82 velocity=65 time=0
note_on channel=0 note=68 velocity=45 time=0
note_on channel=0 note=65 velocity=45 time=0
note_on channel=0 note=65 velocity=0 time=0
note_on channel=0 note=68 velocity=0 time=0
note_on channel=0 note=82 velocity=0 time=0
note_on channel=0 note=80 velocity=68 time=0
note_on channel=0 note=60 velocity=46 time=0
note_on channel=0 note=72 velocity=46 time=0
control_change channel=0 control=64 value=0 time=17
control_change channel=0 control=64 value=127 time=18
note_on channel=0 note=72 velocity=0 time=0
note_on channel=0 note=60 velocity=0 time=0
note_on channel=0 note=80 velocity=0 time=0
note_on channel=0 note=82 velocity=67 time=0
note_on channel=0 note=68 velocity=46 time=0
note_on channel=0 note=65 velocity=46 time=0
note_on channel=0 note=65 velocity=0 time=20
note_on channel=0 note=68 velocity=0 time=0
note_on channel=0 note=82 velocity=0 time=0
note_on channel=0 note=80 velocity=66 time=0
note_on channel=0 note=60 velocity=45 time=0
note_on channel=0 note=72 velocity=45 time=0
note_on channel=0 note=72 velocity=0 time=20
note_on channel=0 note=60 velocity=0 time=0
note_on channel=0 note=80 velocity=0 time=0
note_on channel=0 note=79 velocity=65 time=0
note_on channel=0 note=68 velocity=45 time=0
note_on channel=0 note=65 velocity=45 time=0
note_on channel=0 note=65 velocity=0 time=40
note_on channel=0 note=68 velocity=0 time=0
note_on channel=0 note=79 velocity=0 time=0
note_on channel=0 note=77 velocity=64 time=0
note_on channel=0 note=60 velocity=45 time=0
note_on channel=0 note=72 velocity=45 time=0
note_on channel=0 note=72 velocity=0 time=0
note_on channel=0 note=60 velocity=0 time=0
note_on channel=0 note=77 velocity=0 time=0
note_on channel=0 note=79 velocity=63 time=0
note_on channel=0 note=68 velocity=44 time=0
note_on channel=0 note=65 velocity=44 time=0
note_on channel=0 note=65 velocity=0 time=20
note_on channel=0 note=68 velocity=0 time=0
note_on channel=0 note=79 velocity=0 time=0
note_on channel=0 note=80 velocity=63 time=0
note_on channel=0 note=60 velocity=44 time=0
note_on channel=0 note=72 velocity=44 time=0
note_on channel=0 note=72 velocity=0 time=20
note_on channel=0 note=60 velocity=0 time=0
note_on channel=0 note=80 velocity=0 time=0
note_on channel=0 note=77 velocity=62 time=0
note_on channel=0 note=68 velocity=43 time=0
note_on channel=0 note=65 velocity=43 time=0
note_on channel=0 note=65 velocity=0 time=0
note_on channel=0 note=68 velocity=0 time=0
note_on channel=0 note=77 velocity=0 time=0
note_on channel=0 note=53 velocity=54 time=0
control_change channel=0 control=64 value=0 time=9
control_change channel=0 control=64 value=127 time=5
note_on channel=0 note=53 velocity=0 time=35
note_on channel=0 note=72 velocity=61 time=0
note_on channel=0 note=68 velocity=38 time=0
note_on channel=0 note=65 velocity=38 time=0
note_on channel=0 note=65 velocity=0 time=60
note_on channel=0 note=68 velocity=0 time=0
note_on channel=0 note=72 velocity=0 time=0
note_on channel=0 note=77 velocity=62 time=0
note_on channel=0 note=60 velocity=39 time=0
note_on channel=0 note=72 velocity=39 time=0
note_on channel=0 note=72 velocity=0 time=0
note_on channel=0 note=60 velocity=0 time=0
note_on channel=0 note=77 velocity=0 time=0
note_on channel=0 note=80 velocity=63 time=0
note_on channel=0 note=68 velocity=41 time=0
note_on channel=0 note=65 velocity=41 time=0
note_on channel=0 note=65 velocity=0 time=40
note_on channel=0 note=68 velocity=0 time=0
note_on channel=0 note=80 velocity=0 time=0
note_on channel=0 note=84 velocity=68 time=0
note_on channel=0 note=60 velocity=45 time=0
note_on channel=0 note=72 velocity=45 time=0
note_on channel=0 note=72 velocity=0 time=80
note_on channel=0 note=60 velocity=0 time=0
note_on channel=0 note=84 velocity=0 time=0
note_on channel=0 note=85 velocity=65 time=0
note_on channel=0 note=68 velocity=44 time=0
note_on channel=0 note=65 velocity=44 time=0
note_on channel=0 note=65 velocity=0 time=20
note_on channel=0 note=68 velocity=0 time=0
note_on channel=0 note=85 velocity=0 time=0
note_on channel=0 note=84 velocity=66 time=0
note_on channel=0 note=60 velocity=45 time=0
note_on channel=0 note=72 velocity=45 time=0
note_on channel=0 note=72 velocity=0 time=40
note_on channel=0 note=60 velocity=0 time=0
note_on channel=0 note=84 velocity=0 time=0
note_on channel=0 note=82 velocity=65 time=0
note_on channel=0 note=68 velocity=45 time=0
note_on channel=0 note=65 velocity=45 time=0
note_on channel=0 note=65 velocity=0 time=0
note_on channel=0 note=68 velocity=0 time=0
note_on channel=0 note=82 velocity=0 time=0
note_on channel=0 note=80 velocity=68 time=0
note_on channel=0 note=60 velocity=46 time=0
note_on channel=0 note=72 velocity=46 time=0
control_change channel=0 control=64 value=0 time=19
control_change channel=0 control=64 value=127 time=52
note_on channel=0 note=72 velocity=0 time=40
note_on channel=0 note=60 velocity=0 time=0
note_on channel=0 note=80 velocity=0 time=0
note_on channel=0 note=82 velocity=67 time=0
note_on channel=0 note=68 velocity=46 time=0
note_on channel=0 note=65 velocity=46 time=0
note_on channel=0 note=65 velocity=0 time=20
note_on channel=0 note=68 velocity=0 time=0
note_on channel=0 note=82 velocity=0 time=0
note_on channel=0 note=80 velocity=66 time=0
note_on channel=0 note=60 velocity=45 time=0
note_on channel=0 note=72 velocity=45 time=0
note_on channel=0 note=72 velocity=0 time=0
note_on channel=0 note=60 velocity=0 time=0
note_on channel=0 note=80 velocity=0 time=0
note_on channel=0 note=79 velocity=65 time=0
note_on channel=0 note=68 velocity=45 time=0
note_on channel=0 note=65 velocity=45 time=0
note_on channel=0 note=65 velocity=0 time=40
note_on channel=0 note=68 velocity=0 time=0
note_on channel=0 note=79 velocity=0 time=0
note_on channel=0 note=77 velocity=64 time=0
note_on channel=0 note=60 velocity=45 time=0
note_on channel=0 note=72 velocity=45 time=0
note_on channel=0 note=72 velocity=0 time=20
note_on channel=0 note=60 velocity=0 time=0
note_on channel=0 note=77 velocity=0 time=0
note_on channel=0 note=79 velocity=63 time=0
note_on channel=0 note=68 velocity=44 time=0
note_on channel=0 note=65 velocity=44 time=0
note_on channel=0 note=65 velocity=0 time=0
note_on channel=0 note=68 velocity=0 time=0
note_on channel=0 note=79 velocity=0 time=0
note_on channel=0 note=80 velocity=63 time=0
note_on channel=0 note=60 velocity=44 time=0
note_on channel=0 note=72 velocity=44 time=0
note_on channel=0 note=72 velocity=0 time=60
note_on channel=0 note=60 velocity=0 time=0
note_on channel=0 note=80 velocity=0 time=0
note_on channel=0 note=77 velocity=62 time=0
note_on channel=0 note=68 velocity=43 time=0
note_on channel=0 note=65 velocity=43 time=0
note_on channel=0 note=65 velocity=0 time=0
note_on channel=0 note=68 velocity=0 time=0
note_on channel=0 note=77 velocity=0 time=0
note_on channel=0 note=44 velocity=55 time=0
control_change channel=0 control=64 value=0 time=12
control_change channel=0 control=64 value=127 time=43
note_on channel=0 note=44 velocity=0 time=40
note_on channel=0 note=78 velocity=64 time=0
note_on channel=0 note=56 velocity=40 time=0
note_on channel=0 note=54 velocity=40 time=0
note_on channel=0 note=54 velocity=0 time=0
note_on channel=0 note=56 velocity=0 time=0
note_on channel=0 note=78 velocity=0 time=0
note_on channel=0 note=84 velocity=65 time=0
note_on channel=0 note=51 velocity=41 time=0
note_on channel=0 note=60 velocity=41 time=0
note_on channel=0 note=60 velocity=0 time=40
note_on channel=0 note=51 velocity=0 time=0
note_on channel=0 note=84 velocity=0 time=0
note_on channel=0 note=87 velocity=66 time=0
note_on channel=0 note=56 velocity=43 time=0
note_on channel=0 note=54 velocity=43 time=0
note_on channel=0 note=54 velocity=0 time=0
note_on channel=0 note=56 velocity=0 time=0
note_on channel=0 note=87 velocity=0 time=0
note_on channel=0 note=90 velocity=72 time=0
note_on channel=0 note=51 velocity=47 time=0
note_on channel=0 note=60 velocity=47 time=0
note_on channel=0 note=60 velocity=0 time=40
note_on channel=0 note=51 velocity=0 time=0
note_on channel=0 note=90 velocity=0 time=0
note_on channel=0 note=92 velocity=69 time=0
note_on channel=0 note=56 velocity=46 time=0
note_on channel=0 note=54 velocity=46 time=0
note_on channel=0 note=54 velocity=0 time=0
note_on channel=0 note=56 velocity=0 time=0
note_on channel=0 note=92 velocity=0 time=0
note_on channel=0 note=90 velocity=70 time=0
note_on channel=0 note=51 velocity=47 time=0
note_on channel=0 note=60 velocity=47 time=0
note_on channel=0 note=60 velocity=0 time=40
note_on channel=0 note=51 velocity=0 time=0
note_on channel=0 note=90 velocity=0 time=0
note_on channel=0 note=89 velocity=69 time=0
note_on channel=0 note=56 velocity=48 time=0
note_on channel=0 note=54 velocity=48 time=0
note_on channel=0 note=54 velocity=0 time=0
note_on channel=0 note=56 velocity=0 time=0
note_on channel=0 note=89 velocity=0 time=0
note_on channel=0 note=87 velocity=72 time=0
note_on channel=0 note=51 velocity=49 time=0
note_on channel=0 note=60 velocity=49 time=0
control_change channel=0 control=64 value=0 time=11
control_change channel=0 control=64 value=127 time=41
note_on channel=0 note=60 velocity=0 time=0
note_on channel=0 note=51 velocity=0 time=0
note_on channel=0 note=87 velocity=0 time=0
note_on channel=0 note=89 velocity=71 time=0
note_on channel=0 note=56 velocity=49 time=0
note_on channel=0 note=54 velocity=49 time=0
note_on channel=0 note=54 velocity=0 time=0
note_on channel=0 note=56 velocity=0 time=0
note_on channel=0 note=89 velocity=0 time=0
note_on channel=0 note=87 velocity=70 time=0
note_on channel=0 note=51 velocity=48 time=0
note_on channel=0 note=60 velocity=48 time=0
note_on channel=0 note=60 velocity=0 time=40
note_on channel=0 note=51 velocity=0 time=0
note_on channel=0 note=87 velocity=0 time=0
note_on channel=0 note=85 velocity=69 time=0
note_on channel=0 note=56 velocity=47 time=0
note_on channel=0 note=54 velocity=47 time=0
note_on channel=0 note=54 velocity=0 time=0
note_on channel=0 note=56 velocity=0 time=0
note_on channel=0 note=85 velocity=0 time=0
note_on channel=0 note=84 velocity=68 time=0
note_on channel=0 note=51 velocity=47 time=0
note_on channel=0 note=60 velocity=47 time=0
note_on channel=0 note=60 velocity=0 time=0
note_on channel=0 note=51 velocity=0 time=0
note_on channel=0 note=84 velocity=0 time=0
note_on channel=0 note=85 velocity=67 time=0
note_on channel=0 note=56 velocity=46 time=0
note_on channel=0 note=54 velocity=46 time=0
note_on channel=0 note=54 velocity=0 time=0
note_on channel=0 note=56 velocity=0 time=0
note_on channel=0 note=85 velocity=0 time=0
note_on channel=0 note=87 velocity=66 time=0
note_on channel=0 note=51 velocity=46 time=0
note_on channel=0 note=60 velocity=46 time=0
note_on channel=0 note=60 velocity=0 time=40
note_on channel=0 note=51 velocity=0 time=0
note_on channel=0 note=87 velocity=0 time=0
note_on channel=0 note=84 velocity=65 time=0
note_on channel=0 note=56 velocity=45 time=0
note_on channel=0 note=54 velocity=45 time=0
note_on channel=0 note=54 velocity=0 time=0
note_on channel=0 note=56 velocity=0 time=0
note_on channel=0 note=84 velocity=0 time=0
note_on channel=0 note=44 velocity=54 time=0
control_change channel=0 control=64 value=0 time=12
control_change channel=0 control=64 value=127 time=19
note_on channel=0 note=44 velocity=0 time=0
note_on channel=0 note=78 velocity=64 time=0
note_on channel=0 note=56 velocity=40 time=0
note_on channel=0 note=54 velocity=40 time=0
note_on channel=0 note=54 velocity=0 time=40
note_on channel=0 note=56 velocity=0 time=0
note_on channel=0 note=78 velocity=0 time=0
note_on channel=0 note=84 velocity=65 time=0
note_on channel=0 note=51 velocity=41 time=0
note_on channel=0 note=60 velocity=41 time=0
note_on channel=0 note=60 velocity=0 time=0
note_on channel=0 note=51 velocity=0 time=0
note_on channel=0 note=84 velocity=0 time=0
note_on channel=0 note=87 velocity=66 time=0
note_on channel=0 note=56 velocity=43 time=0
note_on channel=0 note=54 velocity=43 time=0
note_on channel=0 note=54 velocity=0 time=40
note_on channel=0 note=56 velocity=0 time=0
note_on channel=0 note=87 velocity=0 time=0
note_on channel=0 note=90 velocity=72 time=0
note_on channel=0 note=51 velocity=47 time=0
note_on channel=0 note=60 velocity=47 time=0
note_on channel=0 note=60 velocity=0 time=0
note_on channel=0 note=51 velocity=0 time=0
note_on channel=0 note=90 velocity=0 time=0
note_on channel=0 note=92 velocity=69 time=0
note_on channel=0 note=56 velocity=46 time=0
note_on channel=0 note=54 velocity=46 time=0
note_on channel=0 note=54 velocity=0 time=40
note_on channel=0 note=56 velocity=0 time=0
note_on channel=0 note=92 velocity=0 time=0
note_on channel=0 note=90 velocity=70 time=0
note_on channel=0 note=51 velocity=47 time=0
note_on channel=0 note=60 velocity=47 time=0
note_on channel=0 note=60 velocity=0 time=0
note_on channel=0 note=51 velocity=0 time=0
note_on channel=0 note=90 velocity=0 time=0
note_on channel=0 note=89 velocity=69 time=0
note_on channel=0 note=56 velocity=48 time=0
note_on channel=0 note=54 velocity=48 time=0
note_on channel=0 note=54 velocity=0 time=40
note_on channel=0 note=56 velocity=0 time=0
note_on channel=0 note=89 velocity=0 time=0
note_on channel=0 note=87 velocity=72 time=0
note_on channel=0 note=51 velocity=49 time=0
note_on channel=0 note=60 velocity=49 time=0
control_change channel=0 control=64 value=0 time=19
control_change channel=0 control=64 value=127 time=19
note_on channel=0 note=60 velocity=0 time=0
note_on channel=0 note=51 velocity=0 time=0
note_on channel=0 note=87 velocity=0 time=0
note_on channel=0 note=89 velocity=71 time=0
note_on channel=0 note=56 velocity=49 time=0
note_on channel=0 note=54 velocity=49 time=0
note_on channel=0 note=54 velocity=0 time=0
note_on channel=0 note=56 velocity=0 time=0
note_on channel=0 note=89 velocity=0 time=0
note_on channel=0 note=87 velocity=70 time=0
note_on channel=0 note=51 velocity=48 time=0
note_on channel=0 note=60 velocity=48 time=0
note_on channel=0 note=60 velocity=0 time=40
note_on channel=0 note=51 velocity=0 time=0
note_on channel=0 note=87 velocity=0 time=0
note_on channel=0 note=85 velocity=69 time=0
note_on channel=0 note=56 velocity=47 time=0
note_on channel=0 note=54 velocity=47 time=0
note_on channel=0 note=54 velocity=0 time=0
note_on channel=0 note=56 velocity=0 time=0
note_on channel=0 note=85 velocity=0 time=0
note_on channel=0 note=84 velocity=68 time=0
note_on channel=0 note=51 velocity=47 time=0
note_on channel=0 note=60 velocity=47 time=0
note_on channel=0 note=60 velocity=0 time=0
note_on channel=0 note=51 velocity=0 time=0
note_on channel=0 note=84 velocity=0 time=0
note_on channel=0 note=82 velocity=67 time=0
note_on channel=0 note=56 velocity=46 time=0
note_on channel=0 note=54 velocity=46 time=0
note_on channel=0 note=54 velocity=0 time=0
note_on channel=0 note=56 velocity=0 time=0
note_on channel=0 note=82 velocity=0 time=0
note_on channel=0 note=80 velocity=66 time=0
note_on channel=0 note=51 velocity=46 time=0
note_on channel=0 note=60 velocity=46 time=0
note_on channel=0 note=60 velocity=0 time=20
note_on channel=0 note=51 velocity=0 time=0
note_on channel=0 note=80 velocity=0 time=0
note_on channel=0 note=78 velocity=65 time=0
note_on channel=0 note=56 velocity=45 time=0
note_on channel=0 note=54 velocity=45 time=0
note_on channel=0 note=54 velocity=0 time=0
note_on channel=0 note=56 velocity=0 time=0
note_on channel=0 note=78 velocity=0 time=0
note_on channel=0 note=77 velocity=68 time=0
note_on channel=0 note=49 velocity=56 time=0
control_change channel=0 control=64 value=0 time=12
control_change channel=0 control=64 value=127 time=57
note_on channel=0 note=49 velocity=0 time=40
note_on channel=0 note=77 velocity=0 time=0
note_on channel=0 note=80 velocity=67 time=0
note_on channel=0 note=65 velocity=42 time=0
note_on channel=0 note=61 velocity=42 time=0
note_on channel=0 note=61 velocity=0 time=0
note_on channel=0 note=65 velocity=0 time=0
note_on channel=0 note=80 velocity=0 time=0
note_on channel=0 note=85 velocity=68 time=0
note_on channel=0 note=56 velocity=43 time=0
note_on channel=0 note=68 velocity=43 time=0
note_on channel=0 note=68 velocity=0 time=0
note_on channel=0 note=56 velocity=0 time=0
note_on channel=0 note=85 velocity=0 time=0
note_on channel=0 note=89 velocity=69 time=0
note_on channel=0 note=65 velocity=45 time=0
note_on channel=0 note=61 velocity=45 time=0
note_on channel=0 note=61 velocity=0 time=40
note_on channel=0 note=65 velocity=0 time=0
note_on channel=0 note=89 velocity=0 time=0
note_on channel=0 note=92 velocity=75 time=0
note_on channel=0 note=56 velocity=49 time=0
note_on channel=0 note=68 velocity=49 time=0
note_on channel=0 note=68 velocity=0 time=0
note_on channel=0 note=56 velocity=0 time=0
note_on channel=0 note=92 velocity=0 time=0
note_on channel=0 note=94 velocity=72 time=0
note_on channel=0 note=65 velocity=48 time=0
note_on channel=0 note=61 velocity=48 time=0
note_on channel=0 note=61 velocity=0 time=0
note_on channel=0 note=65 velocity=0 time=0
note_on channel=0 note=94 velocity=0 time=0
note_on channel=0 note=92 velocity=73 time=0
note_on channel=0 note=56 velocity=49 time=0
note_on channel=0 note=68 velocity=49 time=0
note_on channel=0 note=68 velocity=0 time=40
note_on channel=0 note=56 velocity=0 time=0
note_on channel=0 note=92 velocity=0 time=0
note_on channel=0 note=90 velocity=72 time=0
note_on channel=0 note=65 velocity=50 time=0
note_on channel=0 note=61 velocity=50 time=0
note_on channel=0 note=61 velocity=0 time=40
note_on channel=0 note=65 velocity=0 time=0
note_on channel=0 note=90 velocity=0 time=0
note_on channel=0 note=89 velocity=75 time=0
note_on channel=0 note=56 velocity=51 time=0
note_on channel=0 note=68 velocity=51 time=0
control_change channel=0 control=64 value=0 time=10
control_change channel=0 control=64 value=127 time=0
note_on channel=0 note=68 velocity=0 time=0
note_on channel=0 note=56 velocity=0 time=0
note_on channel=0 note=89 velocity=0 time=0
note_on channel=0 note=90 velocity=74 time=0
note_on channel=0 note=65 velocity=51 time=0
note_on channel=0 note=61 velocity=51 time=0
note_on channel=0 note=61 velocity=0 time=0
note_on channel=0 note=65 velocity=0 time=0
note_on channel=0 note=90 velocity=0 time=0
note_on channel=0 note=89 velocity=73 time=0
note_on channel=0 note=56 velocity=50 time=0
note_on channel=0 note=68 velocity=50 time=0
note_on channel=0 note=68 velocity=0 time=0
note_on channel=0 note=56 velocity=0 time=0
note_on channel=0 note=89 velocity=0 time=0
note_on channel=0 note=87 velocity=72 time=0
note_on channel=0 note=65 velocity=49 time=0
note_on channel=0 note=61 velocity=49 time=0
note_on channel=0 note=61 velocity=0 time=0
note_on channel=0 note=65 velocity=0 time=0
note_on channel=0 note=87 velocity=0 time=0
note_on channel=0 note=85 velocity=71 time=0
note_on channel=0 note=56 velocity=49 time=0
note_on channel=0 note=68 velocity=49 time=0
note_on channel=0 note=68 velocity=0 time=0
note_on channel=0 note=56 velocity=0 time=0
note_on channel=0 note=85 velocity=0 time=0
note_on channel=0 note=87 velocity=70 time=0
note_on channel=0 note=65 velocity=48 time=0
note_on channel=0 note=61 velocity=48 time=0
note_on channel=0 note=61 velocity=0 time=0
note_on channel=0 note=65 velocity=0 time=0
note_on channel=0 note=87 velocity=0 time=0
note_on channel=0 note=89 velocity=69 time=0
note_on channel=0 note=56 velocity=48 time=0
note_on channel=0 note=68 velocity=48 time=0
note_on channel=0 note=68 velocity=0 time=0
note_on channel=0 note=56 velocity=0 time=0
note_on channel=0 note=89 velocity=0 time=0
note_on channel=0 note=85 velocity=68 time=0
note_on channel=0 note=65 velocity=47 time=0
note_on channel=0 note=61 velocity=47 time=0
note_on channel=0 note=61 velocity=0 time=0
note_on channel=0 note=65 velocity=0 time=0
note_on channel=0 note=85 velocity=0 time=0
note_on channel=0 note=49 velocity=56 time=0
control_change channel=0 control=64 value=0 time=11
control_change channel=0 control=64 value=127 time=40
note_on channel=0 note=49 velocity=0 time=0
note_on channel=0 note=80 velocity=67 time=0
note_on channel=0 note=61 velocity=42 time=0
note_on channel=0 note=65 velocity=42 time=0
note_on channel=0 note=65 velocity=0 time=40
note_on channel=0 note=61 velocity=0 time=0
note_on channel=0 note=80 velocity=0 time=0
note_on channel=0 note=85 velocity=68 time=0
note_on channel=0 note=56 velocity=43 time=0
note_on channel=0 note=68 velocity=43 time=0
note_on channel=0 note=68 velocity=0 time=0
note_on channel=0 note=56 velocity=0 time=0
note_on channel=0 note=85 velocity=0 time=0
note_on channel=0 note=89 velocity=69 time=0
note_on channel=0 note=61 velocity=45 time=0
note_on channel=0 note=65 velocity=45 time=0
note_on channel=0 note=65 velocity=0 time=40
note_on channel=0 note=61 velocity=0 time=0
note_on channel=0 note=89 velocity=0 time=0
note_on channel=0 note=92 velocity=76 time=0
note_on channel=0 note=68 velocity=49 time=0
note_on channel=0 note=92 velocity=0 time=40
note_on channel=0 note=94 velocity=74 time=0
note_on channel=0 note=94 velocity=0 time=0
note_on channel=0 note=68 velocity=0 time=0
note_on channel=0 note=92 velocity=75 time=0
note_on channel=0 note=73 velocity=55 time=0
note_on channel=0 note=92 velocity=0 time=40
note_on channel=0 note=90 velocity=74 time=0
note_on channel=0 note=90 velocity=0 time=0
note_on channel=0 note=73 velocity=0 time=0
note_on channel=0 note=89 velocity=78 time=0
note_on channel=0 note=77 velocity=58 time=0
control_change channel=0 control=64 value=0 time=9
control_change channel=0 control=64 value=127 time=46
note_on channel=0 note=89 velocity=0 time=0
note_on channel=0 note=90 velocity=77 time=0
note_on channel=0 note=90 velocity=0 time=0
note_on channel=0 note=77 velocity=0 time=0
note_on channel=0 note=92 velocity=77 time=0
note_on channel=0 note=80 velocity=62 time=0
note_on channel=0 note=92 velocity=0 time=0
note_on channel=0 note=90 velocity=76 time=0
note_on channel=0 note=90 velocity=0 time=40
note_on channel=0 note=80 velocity=0 time=0
note_on channel=0 note=89 velocity=75 time=0
note_on channel=0 note=85 velocity=66 time=0
note_on channel=0 note=89 velocity=0 time=0
note_on channel=0 note=90 velocity=75 time=0
note_on channel=0 note=90 velocity=0 time=0
note_on channel=0 note=85 velocity=0 time=0
note_on channel=0 note=92 velocity=74 time=0
note_on channel=0 note=85 velocity=69 time=0
note_on channel=0 note=92 velocity=0 time=0
note_on channel=0 note=89 velocity=74 time=0
note_on channel=0 note=89 velocity=0 time=0
note_on channel=0 note=85 velocity=0 time=0
note_on channel=0 note=85 velocity=80 time=0
note_on channel=0 note=82 velocity=80 time=0
control_change channel=0 control=64 value=0 time=8
control_change channel=0 control=64 value=127 time=55
note_on channel=0 note=90 velocity=70 time=57
note_on channel=0 note=90 velocity=0 time=120
note_on channel=0 note=92 velocity=73 time=0
note_on channel=0 note=92 velocity=0 time=120
note_on channel=0 note=90 velocity=70 time=0
note_on channel=0 note=90 velocity=0 time=0
note_on channel=0 note=92 velocity=65 time=0
note_on channel=0 note=92 velocity=0 time=120
note_on channel=0 note=90 velocity=63 time=0
note_on channel=0 note=90 velocity=0 time=0
note_on channel=0 note=82 velocity=0 time=0
note_on channel=0 note=85 velocity=0 time=0
note_on channel=0 note=89 velocity=59 time=0
note_on channel=0 note=80 velocity=66 time=0
note_on channel=0 note=84 velocity=66 time=0
note_on channel=0 note=89 velocity=0 time=120
note_on channel=0 note=90 velocity=59 time=0
note_on channel=0 note=90 velocity=0 time=120
note_on channel=0 note=84 velocity=0 time=0
note_on channel=0 note=80 velocity=0 time=0
note_on channel=0 note=79 velocity=68 time=0
note_on channel=0 note=82 velocity=68 time=0
control_change channel=0 control=64 value=0 time=13
control_change channel=0 control=64 value=127 time=44
note_on channel=0 note=88 velocity=58 time=63
note_on channel=0 note=88 velocity=0 time=120
note_on channel=0 note=89 velocity=60 time=0
note_on channel=0 note=89 velocity=0 time=120
note_on channel=0 note=88 velocity=57 time=0
note_on channel=0 note=88 velocity=0 time=120
note_on channel=0 note=82 velocity=0 time=0
note_on channel=0 note=79 velocity=0 time=0
note_on channel=0 note=80 velocity=64 time=0
note_on channel=0 note=84 velocity=64 time=0
control_change channel=0 control=64 value=0 time=14
control_change channel=0 control=64 value=127 time=66
note_on channel=0 note=89 velocity=57 time=40
note_on channel=0 note=89 velocity=0 time=120
note_on channel=0 note=91 velocity=60 time=0
note_on channel=0 note=91 velocity=0 time=120
note_on channel=0 note=89 velocity=56 time=0
note_on channel=0 note=89 velocity=0 time=0
note_on channel=0 note=84 velocity=0 time=0
note_on channel=0 note=80 velocity=0 time=0
note_on channel=0 note=85 velocity=80 time=0
note_on channel=0 note=82 velocity=80 time=0
control_change channel=0 control=64 value=0 time=14
control_change channel=0 control=64 value=127 time=61
note_on channel=0 note=90 velocity=70 time=45
note_on channel=0 note=90 velocity=0 time=120
note_on channel=0 note=92 velocity=73 time=0
note_on channel=0 note=92 velocity=0 time=120
note_on channel=0 note=90 velocity=70 time=0
note_on channel=0 note=90 velocity=0 time=0
note_on channel=0 note=92 velocity=65 time=0
note_on channel=0 note=92 velocity=0 time=120
note_on channel=0 note=90 velocity=63 time=0
note_on channel=0 note=90 velocity=0 time=0
note_on channel=0 note=82 velocity=0 time=0
note_on channel=0 note=85 velocity=0 time=0
note_on channel=0 note=89 velocity=59 time=0
note_on channel=0 note=80 velocity=66 time=0
note_on channel=0 note=84 velocity=66 time=0
note_on channel=0 note=89 velocity=0 time=120
note_on channel=0 note=90 velocity=59 time=0
note_on channel=0 note=90 velocity=0 time=120
note_on channel=0 note=84 velocity=0 time=0
note_on channel=0 note=80 velocity=0 time=0
note_on channel=0 note=79 velocity=68 time=0
note_on channel=0 note=82 velocity=68 time=0
control_change channel=0 control=64 value=0 time=14
control_change channel=0 control=64 value=127 time=49
note_on channel=0 note=88 velocity=58 time=57
note_on channel=0 note=88 velocity=0 time=120
note_on channel=0 note=89 velocity=60 time=0
note_on channel=0 note=89 velocity=0 time=120
note_on channel=0 note=88 velocity=57 time=0
note_on channel=0 note=88 velocity=0 time=120
note_on channel=0 note=82 velocity=0 time=0
note_on channel=0 note=79 velocity=0 time=0
note_on channel=0 note=80 velocity=64 time=0
note_on channel=0 note=84 velocity=64 time=0
control_change channel=0 control=64 value=0 time=19
control_change channel=0 control=64 value=127 time=38
note_on channel=0 note=89 velocity=57 time=63
note_on channel=0 note=89 velocity=0 time=120
note_on channel=0 note=91 velocity=60 time=0
note_on channel=0 note=91 velocity=0 time=120
note_on channel=0 note=89 velocity=56 time=0
note_on channel=0 note=89 velocity=0 time=0
note_on channel=0 note=84 velocity=0 time=0
note_on channel=0 note=80 velocity=0 time=0
note_on channel=0 note=85 velocity=80 time=0
note_on channel=0 note=82 velocity=80 time=0
control_change channel=0 control=64 value=0 time=8
control_change channel=0 control=64 value=127 time=49
note_on channel=0 note=90 velocity=70 time=63
note_on channel=0 note=90 velocity=0 time=120
note_on channel=0 note=92 velocity=73 time=0
note_on channel=0 note=92 velocity=0 time=120
note_on channel=0 note=90 velocity=70 time=0
note_on channel=0 note=90 velocity=0 time=0
note_on channel=0 note=92 velocity=73 time=0
note_on channel=0 note=92 velocity=0 time=120
note_on channel=0 note=90 velocity=70 time=0
note_on channel=0 note=90 velocity=0 time=0
note_on channel=0 note=82 velocity=0 time=0
note_on channel=0 note=85 velocity=0 time=0
note_on channel=0 note=89 velocity=59 time=0
note_on channel=0 note=80 velocity=66 time=0
note_on channel=0 note=84 velocity=66 time=0
note_on channel=0 note=89 velocity=0 time=120
note_on channel=0 note=91 velocity=59 time=0
note_on channel=0 note=91 velocity=0 time=120
note_on channel=0 note=84 velocity=0 time=0
note_on channel=0 note=80 velocity=0 time=0
note_on channel=0 note=79 velocity=68 time=0
note_on channel=0 note=82 velocity=68 time=0
control_change channel=0 control=64 value=0 time=12
control_change channel=0 control=64 value=127 time=45
note_on channel=0 note=88 velocity=58 time=63
note_on channel=0 note=88 velocity=0 time=120
note_on channel=0 note=89 velocity=60 time=0
note_on channel=0 note=89 velocity=0 time=120
note_on channel=0 note=88 velocity=58 time=0
note_on channel=0 note=88 velocity=0 time=120
note_on channel=0 note=82 velocity=0 time=0
note_on channel=0 note=79 velocity=0 time=0
note_on channel=0 note=77 velocity=65 time=0
note_on channel=0 note=80 velocity=65 time=0
control_change channel=0 control=64 value=0 time=16
control_change channel=0 control=64 value=127 time=70
note_on channel=0 note=85 velocity=58 time=34
note_on channel=0 note=85 velocity=0 time=120
note_on channel=0 note=87 velocity=61 time=0
note_on channel=0 note=87 velocity=0 time=120
note_on channel=0 note=85 velocity=57 time=0
note_on channel=0 note=85 velocity=0 time=120
note_on channel=0 note=80 velocity=0 time=0
note_on channel=0 note=77 velocity=0 time=0
note_on channel=0 note=79 velocity=70 time=0
note_on channel=0 note=76 velocity=70 time=0
control_change channel=0 control=64 value=0 time=13
control_change channel=0 control=64 value=127 time=56
note_on channel=0 note=84 velocity=60 time=51
note_on channel=0 note=84 velocity=0 time=120
note_on channel=0 note=85 velocity=62 time=0
note_on channel=0 note=85 velocity=0 time=120
note_on channel=0 note=84 velocity=60 time=0
note_on channel=0 note=84 velocity=0 time=120
note_on channel=0 note=76 velocity=0 time=0
note_on channel=0 note=79 velocity=0 time=0
note_on channel=0 note=74 velocity=70 time=0
note_on channel=0 note=77 velocity=70 time=0
control_change channel=0 control=64 value=0 time=18
control_change channel=0 control=64 value=127 time=62
note_on channel=0 note=83 velocity=61 time=40
note_on channel=0 note=83 velocity=0 time=120
note_on channel=0 note=84 velocity=65 time=0
note_on channel=0 note=84 velocity=0 time=120
note_on channel=0 note=83 velocity=62 time=0
note_on channel=0 note=83 velocity=0 time=120
note_on channel=0 note=77 velocity=0 time=0
note_on channel=0 note=74 velocity=0 time=0
note_on channel=0 note=77 velocity=75 time=0
note_on channel=0 note=73 velocity=75 time=0
control_change channel=0 control=64 value=0 time=18
control_change channel=0 control=64 value=127 time=74
note_on channel=0 note=82 velocity=65 time=28
note_on channel=0 note=82 velocity=0 time=120
note_on channel=0 note=84 velocity=67 time=0
note_on channel=0 note=84 velocity=0 time=120
note_on channel=0 note=82 velocity=64 time=0
note_on channel=0 note=82 velocity=0 time=120
note_on channel=0 note=73 velocity=0 time=0
note_on channel=0 note=77 velocity=0 time=0
note_on channel=0 note=72 velocity=75 time=0
note_on channel=0 note=77 velocity=75 time=0
control_change channel=0 control=64 value=0 time=19
note_on channel=0 note=80 velocity=66 time=101
control_change channel=0 control=64 value=127 time=0
note_on channel=0 note=80 velocity=0 time=120
note_on channel=0 note=82 velocity=69 time=0
note_on channel=0 note=82 velocity=0 time=120
note_on channel=0 note=80 velocity=67 time=0
note_on channel=0 note=80 velocity=0 time=120
note_on channel=0 note=77 velocity=0 time=0
note_on channel=0 note=72 velocity=0 time=0
note_on channel=0 note=71 velocity=76 time=0
control_change channel=0 control=64 value=0 time=10
control_change channel=0 control=64 value=127 time=82
note_on channel=0 note=80 velocity=67 time=28
note_on channel=0 note=80 velocity=0 time=120
note_on channel=0 note=82 velocity=70 time=0
note_on channel=0 note=82 velocity=0 time=120
note_on channel=0 note=80 velocity=68 time=0
note_on channel=0 note=80 velocity=0 time=120
note_on channel=0 note=74 velocity=75 time=0
control_change channel=0 control=64 value=0 time=15
control_change channel=0 control=64 value=127 time=49
note_on channel=0 note=79 velocity=66 time=56
note_on channel=0 note=79 velocity=0 time=120
note_on channel=0 note=80 velocity=69 time=0
note_on channel=0 note=80 velocity=0 time=120
note_on channel=0 note=79 velocity=64 time=0
note_on channel=0 note=79 velocity=0 time=120
note_on channel=0 note=74 velocity=0 time=0
note_on channel=0 note=71 velocity=0 time=0
note_on channel=0 note=68 velocity=72 time=0
note_on channel=0 note=60 velocity=72 time=0
note_on channel=0 note=72 velocity=72 time=0
control_change channel=0 control=64 value=0 time=17
control_change channel=0 control=64 value=127 time=35
note_on channel=0 note=77 velocity=64 time=68
note_on channel=0 note=77 velocity=0 time=120
note_on channel=0 note=79 velocity=65 time=0
note_on channel=0 note=79 velocity=0 time=120
note_on channel=0 note=77 velocity=62 time=0
note_on channel=0 note=77 velocity=0 time=120
note_on channel=0 note=68 velocity=0 time=0
note_on channel=0 note=67 velocity=68 time=0
control_change channel=0 control=64 value=0 time=12
control_change channel=0 control=64 value=127 time=63
note_on channel=0 note=76 velocity=60 time=45
note_on channel=0 note=76 velocity=0 time=120
note_on channel=0 note=77 velocity=62 time=0
note_on channel=0 note=77 velocity=0 time=120
note_on channel=0 note=76 velocity=57 time=0
note_on channel=0 note=76 velocity=0 time=0
note_on channel=0 note=60 velocity=0 time=0
note_on channel=0 note=72 velocity=0 time=0
note_on channel=0 note=67 velocity=0 time=0
note_on channel=0 note=46 velocity=61 time=0
note_on channel=0 note=54 velocity=72 time=0
note_on channel=0 note=49 velocity=61 time=0
control_change channel=0 control=64 value=0 time=16
control_change channel=0 control=64 value=127 time=69
note_on channel=0 note=61 velocity=66 time=35
note_on channel=0 note=61 velocity=0 time=120
note_on channel=0 note=73 velocity=73 time=0
note_on channel=0 note=73 velocity=0 time=120
note_on channel=0 note=61 velocity=59 time=0
note_on channel=0 note=61 velocity=0 time=0
note_on channel=0 note=73 velocity=71 time=0
note_on channel=0 note=73 velocity=0 time=120
note_on channel=0 note=61 velocity=58 time=0
note_on channel=0 note=61 velocity=0 time=0
note_on channel=0 note=46 velocity=0 time=0
note_on channel=0 note=54 velocity=0 time=0
note_on channel=0 note=49 velocity=0 time=0
note_on channel=0 note=73 velocity=63 time=0
note_on channel=0 note=44 velocity=50 time=0
note_on channel=0 note=48 velocity=50 time=0
note_on channel=0 note=53 velocity=59 time=0
note_on channel=0 note=73 velocity=0 time=120
note_on channel=0 note=61 velocity=59 time=0
note_on channel=0 note=61 velocity=0 time=120
note_on channel=0 note=53 velocity=0 time=0
note_on channel=0 note=48 velocity=0 time=0
note_on channel=0 note=44 velocity=0 time=0
note_on channel=0 note=52 velocity=61 time=0
note_on channel=0 note=43 velocity=51 time=0
note_on channel=0 note=46 velocity=51 time=0
control_change channel=0 control=64 value=0 time=13
control_change channel=0 control=64 value=127 time=58
note_on channel=0 note=61 velocity=60 time=49
note_on channel=0 note=61 velocity=0 time=120
note_on channel=0 note=73 velocity=71 time=0
note_on channel=0 note=73 velocity=0 time=120
note_on channel=0 note=72 velocity=66 time=0
note_on channel=0 note=72 velocity=0 time=120
note_on channel=0 note=52 velocity=0 time=0
note_on channel=0 note=43 velocity=0 time=0
note_on channel=0 note=46 velocity=0 time=0
note_on channel=0 note=70 velocity=68 time=0
note_on channel=0 note=44 velocity=48 time=0
note_on channel=0 note=48 velocity=48 time=0
note_on channel=0 note=53 velocity=57 time=0
control_change channel=0 control=64 value=0 time=19
control_change channel=0 control=64 value=127 time=59
note_on channel=0 note=70 velocity=0 time=42
note_on channel=0 note=68 velocity=66 time=0
note_on channel=0 note=68 velocity=0 time=120
note_on channel=0 note=67 velocity=65 time=0
note_on channel=0 note=67 velocity=0 time=120
note_on channel=0 note=65 velocity=58 time=0
note_on channel=0 note=65 velocity=0 time=0
note_on channel=0 note=53 velocity=0 time=0
note_on channel=0 note=48 velocity=0 time=0
note_on channel=0 note=44 velocity=0 time=0
note_on channel=0 note=46 velocity=61 time=0
note_on channel=0 note=54 velocity=72 time=0
note_on channel=0 note=49 velocity=61 time=0
control_change channel=0 control=64 value=0 time=18
control_change channel=0 control=64 value=127 time=67
note_on channel=0 note=73 velocity=68 time=35
note_on channel=0 note=73 velocity=0 time=120
note_on channel=0 note=85 velocity=75 time=0
note_on channel=0 note=85 velocity=0 time=120
note_on channel=0 note=73 velocity=67 time=0
note_on channel=0 note=73 velocity=0 time=0
note_on channel=0 note=85 velocity=74 time=0
note_on channel=0 note=85 velocity=0 time=120
note_on channel=0 note=73 velocity=67 time=0
note_on channel=0 note=73 velocity=0 time=0
note_on channel=0 note=46 velocity=0 time=0
note_on channel=0 note=54 velocity=0 time=0
note_on channel=0 note=49 velocity=0 time=0
note_on channel=0 note=85 velocity=69 time=0
note_on channel=0 note=44 velocity=50 time=0
note_on channel=0 note=48 velocity=50 time=0
note_on channel=0 note=53 velocity=59 time=0
note_on channel=0 note=85 velocity=0 time=120
note_on channel=0 note=73 velocity=60 time=0
note_on channel=0 note=73 velocity=0 time=120
note_on channel=0 note=53 velocity=0 time=0
note_on channel=0 note=48 velocity=0 time=0
note_on channel=0 note=44 velocity=0 time=0
note_on channel=0 note=52 velocity=65 time=0
note_on channel=0 note=43 velocity=51 time=0
note_on channel=0 note=46 velocity=54 time=0
control_change channel=0 control=64 value=0 time=11
control_change channel=0 control=64 value=127 time=67
note_on channel=0 note=73 velocity=61 time=42
note_on channel=0 note=73 velocity=0 time=120
note_on channel=0 note=85 velocity=73 time=0
note_on channel=0 note=85 velocity=0 time=120
note_on channel=0 note=84 velocity=66 time=0
note_on channel=0 note=84 velocity=0 time=120
note_on channel=0 note=52 velocity=0 time=0
note_on channel=0 note=43 velocity=0 time=0
note_on channel=0 note=46 velocity=0 time=0
note_on channel=0 note=82 velocity=70 time=0
note_on channel=0 note=44 velocity=48 time=0
note_on channel=0 note=48 velocity=48 time=0
note_on channel=0 note=53 velocity=57 time=0
control_change channel=0 control=64 value=0 time=19
control_change channel=0 control=64 value=127 time=94
note_on channel=0 note=82 velocity=0 time=7
note_on channel=0 note=80 velocity=68 time=0
note_on channel=0 note=80 velocity=0 time=120
note_on channel=0 note=79 velocity=67 time=0
note_on channel=0 note=79 velocity=0 time=120
note_on channel=0 note=77 velocity=65 time=0
note_on channel=0 note=77 velocity=0 time=0
note_on channel=0 note=53 velocity=0 time=0
note_on channel=0 note=48 velocity=0 time=0
note_on channel=0 note=44 velocity=0 time=0
note_on channel=0 note=46 velocity=61 time=0
note_on channel=0 note=54 velocity=72 time=0
note_on channel=0 note=49 velocity=61 time=0
control_change channel=0 control=64 value=0 time=14
control_change channel=0 control=64 value=127 time=57
note_on channel=0 note=61 velocity=66 time=49
note_on channel=0 note=61 velocity=0 time=120
note_on channel=0 note=73 velocity=73 time=0
note_on channel=0 note=73 velocity=0 time=120
note_on channel=0 note=61 velocity=66 time=0
note_on channel=0 note=61 velocity=0 time=0
note_on channel=0 note=73 velocity=73 time=0
note_on channel=0 note=73 velocity=0 time=120
note_on channel=0 note=61 velocity=66 time=0
note_on channel=0 note=61 velocity=0 time=0
note_on channel=0 note=46 velocity=0 time=0
note_on channel=0 note=54 velocity=0 time=0
note_on channel=0 note=49 velocity=0 time=0
note_on channel=0 note=73 velocity=68 time=0
note_on channel=0 note=53 velocity=59 time=0
note_on channel=0 note=44 velocity=50 time=0
note_on channel=0 note=48 velocity=50 time=0
note_on channel=0 note=73 velocity=0 time=120
note_on channel=0 note=61 velocity=61 time=0
note_on channel=0 note=61 velocity=0 time=120
note_on channel=0 note=48 velocity=0 time=0
note_on channel=0 note=44 velocity=0 time=0
note_on channel=0 note=53 velocity=0 time=0
note_on channel=0 note=52 velocity=61 time=0
note_on channel=0 note=43 velocity=51 time=0
note_on channel=0 note=46 velocity=61 time=0
control_change channel=0 control=64 value=0 time=12
control_change channel=0 control=64 value=127 time=38
note_on channel=0 note=73 velocity=68 time=70
note_on channel=0 note=73 velocity=0 time=120
note_on channel=0 note=61 velocity=60 time=0
note_on channel=0 note=61 velocity=0 time=120
note_on channel=0 note=73 velocity=68 time=0
note_on channel=0 note=73 velocity=0 time=0
note_on channel=0 note=52 velocity=0 time=0
note_on channel=0 note=43 velocity=0 time=0
note_on channel=0 note=46 velocity=0 time=0
note_on channel=0 note=49 velocity=58 time=0
note_on channel=0 note=41 velocity=49 time=0
note_on channel=0 note=44 velocity=49 time=0
control_change channel=0 control=64 value=0 time=16
control_change channel=0 control=64 value=127 time=76
note_on channel=0 note=85 velocity=78 time=28
note_on channel=0 note=85 velocity=0 time=120
note_on channel=0 note=73 velocity=69 time=0
note_on channel=0 note=73 velocity=0 time=120
note_on channel=0 note=85 velocity=75 time=0
note_on channel=0 note=85 velocity=0 time=0
note_on channel=0 note=49 velocity=0 time=0
note_on channel=0 note=41 velocity=0 time=0
note_on channel=0 note=44 velocity=0 time=0
note_on channel=0 note=40 velocity=53 time=0
note_on channel=0 note=48 velocity=63 time=0
note_on channel=0 note=43 velocity=53 time=0
control_change channel=0 control=64 value=0 time=16
control_change channel=0 control=64 value=127 time=53
note_on channel=0 note=84 velocity=76 time=51
note_on channel=0 note=84 velocity=0 time=120
note_on channel=0 note=72 velocity=71 time=0
note_on channel=0 note=72 velocity=0 time=120
note_on channel=0 note=84 velocity=74 time=0
note_on channel=0 note=84 velocity=0 time=120
note_on channel=0 note=40 velocity=0 time=0
note_on channel=0 note=48 velocity=0 time=0
note_on channel=0 note=43 velocity=0 time=0
note_on channel=0 note=47 velocity=63 time=0
note_on channel=0 note=44 velocity=53 time=0
note_on channel=0 note=38 velocity=53 time=0
note_on channel=0 note=41 velocity=53 time=0
control_change channel=0 control=64 value=0 time=18
control_change channel=0 control=64 value=127 time=57
note_on channel=0 note=83 velocity=77 time=45
note_on channel=0 note=83 velocity=0 time=120
note_on channel=0 note=71 velocity=71 time=0
note_on channel=0 note=71 velocity=0 time=120
note_on channel=0 note=83 velocity=74 time=0
note_on channel=0 note=83 velocity=0 time=0
note_on channel=0 note=38 velocity=0 time=0
note_on channel=0 note=47 velocity=0 time=0
note_on channel=0 note=44 velocity=0 time=0
note_on channel=0 note=41 velocity=0 time=0
note_on channel=0 note=46 velocity=67 time=0
note_on channel=0 note=43 velocity=56 time=0
note_on channel=0 note=40 velocity=56 time=0
control_change channel=0 control=64 value=0 time=7
control_change channel=0 control=64 value=127 time=71
note_on channel=0 note=82 velocity=78 time=42
note_on channel=0 note=82 velocity=0 time=120
note_on channel=0 note=70 velocity=69 time=0
note_on channel=0 note=70 velocity=0 time=120
note_on channel=0 note=82 velocity=74 time=0
note_on channel=0 note=82 velocity=0 time=120
note_on channel=0 note=46 velocity=0 time=0
note_on channel=0 note=43 velocity=0 time=0
note_on channel=0 note=40 velocity=0 time=0
note_on channel=0 note=41 velocity=67 time=0
note_on channel=0 note=44 velocity=67 time=0
control_change channel=0 control=64 value=0 time=14
control_change channel=0 control=64 value=127 time=78
note_on channel=0 note=80 velocity=77 time=28
note_on channel=0 note=80 velocity=0 time=120
note_on channel=0 note=68 velocity=71 time=0
note_on channel=0 note=72 velocity=71 time=0
note_on channel=0 note=72 velocity=0 time=120
note_on channel=0 note=68 velocity=0 time=0
note_on channel=0 note=80 velocity=73 time=0
note_on channel=0 note=80 velocity=0 time=0
note_on channel=0 note=44 velocity=0 time=0
note_on channel=0 note=41 velocity=0 time=0
note_on channel=0 note=44 velocity=66 time=0
note_on channel=0 note=35 velocity=66 time=0
control_change channel=0 control=64 value=0 time=16
control_change channel=0 control=64 value=127 time=53
note_on channel=0 note=80 velocity=75 time=51
note_on channel=0 note=80 velocity=0 time=120
note_on channel=0 note=74 velocity=68 time=0
note_on channel=0 note=68 velocity=68 time=0
note_on channel=0 note=68 velocity=0 time=120
note_on channel=0 note=74 velocity=0 time=0
note_on channel=0 note=80 velocity=72 time=0
note_on channel=0 note=80 velocity=0 time=0
note_on channel=0 note=44 velocity=0 time=0
note_on channel=0 note=42 velocity=64 time=0
control_change channel=0 control=64 value=0 time=17
control_change channel=0 control=64 value=127 time=69
note_on channel=0 note=79 velocity=73 time=34
note_on channel=0 note=79 velocity=0 time=120
note_on channel=0 note=74 velocity=66 time=0
note_on channel=0 note=67 velocity=66 time=0
note_on channel=0 note=67 velocity=0 time=120
note_on channel=0 note=74 velocity=0 time=0
note_on channel=0 note=79 velocity=73 time=0
note_on channel=0 note=79 velocity=0 time=120
note_on channel=0 note=42 velocity=0 time=0
note_on channel=0 note=35 velocity=0 time=0
note_on channel=0 note=41 velocity=61 time=0
note_on channel=0 note=36 velocity=61 time=0
control_change channel=0 control=64 value=0 time=15
control_change channel=0 control=64 value=127 time=48
note_on channel=0 note=77 velocity=71 time=57
note_on channel=0 note=77 velocity=0 time=120
note_on channel=0 note=68 velocity=66 time=0
note_on channel=0 note=65 velocity=66 time=0
note_on channel=0 note=65 velocity=0 time=120
note_on channel=0 note=68 velocity=0 time=0
note_on channel=0 note=77 velocity=71 time=0
note_on channel=0 note=77 velocity=0 time=120
note_on channel=0 note=41 velocity=0 time=0
note_on channel=0 note=40 velocity=59 time=0
control_change channel=0 control=64 value=0 time=17
control_change channel=0 control=64 value=127 time=75
note_on channel=0 note=76 velocity=72 time=28
note_on channel=0 note=76 velocity=0 time=120
note_on channel=0 note=67 velocity=66 time=0
note_on channel=0 note=64 velocity=66 time=0
note_on channel=0 note=64 velocity=0 time=120
note_on channel=0 note=67 velocity=0 time=0
note_on channel=0 note=76 velocity=69 time=0
note_on channel=0 note=76 velocity=0 time=0
note_on channel=0 note=40 velocity=0 time=0
note_on channel=0 note=36 velocity=0 time=0
note_on channel=0 note=65 velocity=65 time=0
note_on channel=0 note=68 velocity=65 time=0
note_on channel=0 note=77 velocity=77 time=0
note_on channel=0 note=29 velocity=59 time=0
note_on channel=0 note=32 velocity=59 time=0
note_on channel=0 note=36 velocity=59 time=0
note_on channel=0 note=41 velocity=70 time=0
control_change channel=0 control=64 value=0 time=14
control_change channel=0 control=64 value=127 time=38
note_on channel=0 note=77 velocity=0 time=42
note_on channel=0 note=65 velocity=0 time=0
note_on channel=0 note=68 velocity=0 time=0
note_on channel=0 note=60 velocity=74 time=0
note_on channel=0 note=60 velocity=0 time=80
note_on channel=0 note=41 velocity=0 time=0
note_on channel=0 note=29 velocity=0 time=0
note_on channel=0 note=36 velocity=0 time=0
note_on channel=0 note=32 velocity=0 time=0
note_on channel=0 note=65 velocity=76 time=0
note_on channel=0 note=65 velocity=0 time=80
note_on channel=0 note=68 velocity=78 time=0
note_on channel=0 note=68 velocity=0 time=0
note_on channel=0 note=72 velocity=80 time=0
control_change channel=0 control=64 value=0 time=20
control_change channel=0 control=64 value=127 time=79
note_on channel=0 note=72 velocity=0 time=0
note_on channel=0 note=73 velocity=76 time=0
note_on channel=0 note=48 velocity=59 time=0
note_on channel=0 note=48 velocity=0 time=0
note_on channel=0 note=73 velocity=0 time=0
note_on channel=0 note=72 velocity=76 time=0
note_on channel=0 note=53 velocity=62 time=0
note_on channel=0 note=53 velocity=0 time=0
note_on channel=0 note=72 velocity=0 time=0
note_on channel=0 note=70 velocity=76 time=0
note_on channel=0 note=56 velocity=64 time=0
note_on channel=0 note=56 velocity=0 time=40
note_on channel=0 note=70 velocity=0 time=0
note_on channel=0 note=68 velocity=77 time=0
note_on channel=0 note=60 velocity=70 time=0
control_change channel=0 control=64 value=0 time=17
control_change channel=0 control=64 value=127 time=68
note_on channel=0 note=60 velocity=0 time=0
note_on channel=0 note=68 velocity=0 time=0
note_on channel=0 note=70 velocity=71 time=0
note_on channel=0 note=61 velocity=64 time=0
note_on channel=0 note=61 velocity=0 time=0
note_on channel=0 note=70 velocity=0 time=0
note_on channel=0 note=68 velocity=72 time=0
note_on channel=0 note=60 velocity=64 time=0
note_on channel=0 note=60 velocity=0 time=0
note_on channel=0 note=68 velocity=0 time=0
note_on channel=0 note=67 velocity=72 time=0
note_on channel=0 note=58 velocity=64 time=0
note_on channel=0 note=58 velocity=0 time=0
note_on channel=0 note=67 velocity=0 time=0
note_on channel=0 note=65 velocity=78 time=0
note_on channel=0 note=56 velocity=70 time=0
control_change channel=0 control=64 value=0 time=11
control_change channel=0 control=64 value=127 time=74
note_on channel=0 note=56 velocity=0 time=0
note_on channel=0 note=65 velocity=0 time=0
note_on channel=0 note=63 velocity=73 time=0
note_on channel=0 note=55 velocity=63 time=0
note_on channel=0 note=55 velocity=0 time=0
note_on channel=0 note=63 velocity=0 time=0
note_on channel=0 note=61 velocity=73 time=0
note_on channel=0 note=53 velocity=63 time=0
note_on channel=0 note=53 velocity=0 time=0
note_on channel=0 note=61 velocity=0 time=0
note_on channel=0 note=60 velocity=72 time=0
note_on channel=0 note=51 velocity=63 time=0
note_on channel=0 note=51 velocity=0 time=0
note_on channel=0 note=60 velocity=0 time=0
note_on channel=0 note=58 velocity=75 time=0
note_on channel=0 note=49 velocity=67 time=0
control_change channel=0 control=64 value=0 time=15
control_change channel=0 control=64 value=127 time=28
note_on channel=0 note=49 velocity=0 time=0
note_on channel=0 note=58 velocity=0 time=0
note_on channel=0 note=56 velocity=70 time=0
note_on channel=0 note=48 velocity=60 time=0
note_on channel=0 note=48 velocity=0 time=0
note_on channel=0 note=56 velocity=0 time=0
note_on channel=0 note=54 velocity=70 time=0
note_on channel=0 note=46 velocity=60 time=0
note_on channel=0 note=46 velocity=0 time=80
note_on channel=0 note=54 velocity=0 time=0
note_on channel=0 note=53 velocity=70 time=0
note_on channel=0 note=44 velocity=60 time=0
note_on channel=0 note=44 velocity=0 time=0
note_on channel=0 note=53 velocity=0 time=0
note_on channel=0 note=52 velocity=73 time=0
note_on channel=0 note=43 velocity=71 time=0
control_change channel=0 control=64 value=0 time=8
control_change channel=0 control=64 value=127 time=49
note_on channel=0 note=43 velocity=0 time=63
note_on channel=0 note=44 velocity=65 time=0
note_on channel=0 note=44 velocity=0 time=120
note_on channel=0 note=52 velocity=0 time=0
note_on channel=0 note=48 velocity=69 time=0
note_on channel=0 note=52 velocity=69 time=0
note_on channel=0 note=54 velocity=69 time=0
note_on channel=0 note=60 velocity=82 time=0
note_on channel=0 note=46 velocity=73 time=0
control_change channel=0 control=64 value=0 time=6
note_on channel=0 note=46 velocity=0 time=114
note_on channel=0 note=44 velocity=69 time=0
note_on channel=0 note=54 velocity=0 time=60
note_on channel=0 note=60 velocity=0 time=0
note_on channel=0 note=48 velocity=0 time=0
note_on channel=0 note=52 velocity=0 time=0
note_on channel=0 note=44 velocity=0 time=60
note_on channel=0 note=48 velocity=61 time=0
note_on channel=0 note=52 velocity=61 time=0
note_on channel=0 note=58 velocity=73 time=0
note_on channel=0 note=60 velocity=73 time=0
note_on channel=0 note=43 velocity=73 time=0
note_on channel=0 note=43 velocity=0 time=120
note_on channel=0 note=41 velocity=73 time=0
note_on channel=0 note=58 velocity=0 time=60
note_on channel=0 note=60 velocity=0 time=0
note_on channel=0 note=48 velocity=0 time=0
note_on channel=0 note=52 velocity=0 time=0
note_on channel=0 note=41 velocity=0 time=60
note_on channel=0 note=48 velocity=60 time=0
note_on channel=0 note=52 velocity=60 time=0
note_on channel=0 note=58 velocity=71 time=0
note_on channel=0 note=60 velocity=71 time=0
note_on channel=0 note=40 velocity=72 time=0
note_on channel=0 note=40 velocity=0 time=120
note_on channel=0 note=38 velocity=72 time=0
note_on channel=0 note=58 velocity=0 time=60
note_on channel=0 note=60 velocity=0 time=0
note_on channel=0 note=48 velocity=0 time=0
note_on channel=0 note=52 velocity=0 time=0
note_on channel=0 note=38 velocity=0 time=60
note_on channel=0 note=48 velocity=61 time=0
note_on channel=0 note=52 velocity=61 time=0
note_on channel=0 note=58 velocity=72 time=0
note_on channel=0 note=60 velocity=72 time=0
note_on channel=0 note=36 velocity=71 time=0
note_on channel=0 note=36 velocity=0 time=120
note_on channel=0 note=34 velocity=71 time=0
note_on channel=0 note=58 velocity=0 time=60
note_on channel=0 note=60 velocity=0 time=0
note_on channel=0 note=48 velocity=0 time=0
note_on channel=0 note=52 velocity=0 time=0
note_on channel=0 note=34 velocity=0 time=60
note_on channel=0 note=48 velocity=61 time=0
note_on channel=0 note=52 velocity=61 time=0
note_on channel=0 note=58 velocity=72 time=0
note_on channel=0 note=60 velocity=72 time=0
note_on channel=0 note=32 velocity=70 time=0
note_on channel=0 note=32 velocity=0 time=120
note_on channel=0 note=31 velocity=70 time=0
note_on channel=0 note=58 velocity=0 time=60
note_on channel=0 note=60 velocity=0 time=0
note_on channel=0 note=48 velocity=0 time=0
note_on channel=0 note=52 velocity=0 time=0
note_on channel=0 note=31 velocity=0 time=0
note_on channel=0 note=48 velocity=77 time=0
note_on channel=0 note=53 velocity=77 time=0
note_on channel=0 note=56 velocity=77 time=0
note_on channel=0 note=60 velocity=77 time=0
note_on channel=0 note=29 velocity=70 time=0
note_on channel=0 note=32 velocity=70 time=0
note_on channel=0 note=36 velocity=70 time=0
note_on channel=0 note=41 velocity=70 time=0
control_change channel=0 control=64 value=127 time=50
note_on channel=0 note=60 velocity=0 time=40
note_on channel=0 note=56 velocity=0 time=0
note_on channel=0 note=48 velocity=0 time=0
note_on channel=0 note=53 velocity=0 time=0
note_on channel=0 note=72 velocity=74 time=0
note_on channel=0 note=72 velocity=0 time=40
note_on channel=0 note=36 velocity=0 time=0
note_on channel=0 note=41 velocity=0 time=0
note_on channel=0 note=32 velocity=0 time=0
note_on channel=0 note=29 velocity=0 time=0
note_on channel=0 note=77 velocity=76 time=0
note_on channel=0 note=77 velocity=0 time=0
note_on channel=0 note=80 velocity=78 time=0
note_on channel=0 note=80 velocity=0 time=40
note_on channel=0 note=84 velocity=80 time=0
control_change channel=0 control=64 value=0 time=17
control_change channel=0 control=64 value=127 time=19
note_on channel=0 note=84 velocity=0 time=21
note_on channel=0 note=85 velocity=76 time=0
note_on channel=0 note=60 velocity=59 time=0
note_on channel=0 note=60 velocity=0 time=0
note_on channel=0 note=85 velocity=0 time=0
note_on channel=0 note=84 velocity=76 time=0
note_on channel=0 note=65 velocity=62 time=0
note_on channel=0 note=65 velocity=0 time=0
note_on channel=0 note=84 velocity=0 time=0
note_on channel=0 note=82 velocity=76 time=0
note_on channel=0 note=68 velocity=64 time=0
note_on channel=0 note=68 velocity=0 time=120
note_on channel=0 note=82 velocity=0 time=0
note_on channel=0 note=80 velocity=77 time=0
note_on channel=0 note=72 velocity=70 time=0
control_change channel=0 control=64 value=0 time=14
control_change channel=0 control=64 value=127 time=31
note_on channel=0 note=72 velocity=0 time=49
note_on channel=0 note=80 velocity=0 time=0
note_on channel=0 note=82 velocity=71 time=0
note_on channel=0 note=73 velocity=64 time=0
note_on channel=0 note=73 velocity=0 time=40
note_on channel=0 note=82 velocity=0 time=0
note_on channel=0 note=80 velocity=72 time=0
note_on channel=0 note=72 velocity=64 time=0
note_on channel=0 note=72 velocity=0 time=40
note_on channel=0 note=80 velocity=0 time=0
note_on channel=0 note=79 velocity=72 time=0
note_on channel=0 note=70 velocity=64 time=0
note_on channel=0 note=70 velocity=0 time=0
note_on channel=0 note=79 velocity=0 time=0
note_on channel=0 note=77 velocity=78 time=0
note_on channel=0 note=68 velocity=70 time=0
control_change channel=0 control=64 value=0 time=17
control_change channel=0 control=64 value=127 time=68
note_on channel=0 note=68 velocity=0 time=0
note_on channel=0 note=77 velocity=0 time=0
note_on channel=0 note=75 velocity=73 time=0
note_on channel=0 note=67 velocity=63 time=0
note_on channel=0 note=67 velocity=0 time=120
note_on channel=0 note=75 velocity=0 time=0
note_on channel=0 note=73 velocity=73 time=0
note_on channel=0 note=65 velocity=63 time=0
note_on channel=0 note=65 velocity=0 time=80
note_on channel=0 note=73 velocity=0 time=0
note_on channel=0 note=72 velocity=72 time=0
note_on channel=0 note=63 velocity=63 time=0
note_on channel=0 note=63 velocity=0 time=40
note_on channel=0 note=72 velocity=0 time=0
note_on channel=0 note=70 velocity=75 time=0
note_on channel=0 note=61 velocity=67 time=0
control_change channel=0 control=64 value=0 time=8
control_change channel=0 control=64 value=127 time=56
note_on channel=0 note=61 velocity=0 time=40
note_on channel=0 note=70 velocity=0 time=0
note_on channel=0 note=68 velocity=70 time=0
note_on channel=0 note=60 velocity=60 time=0
note_on channel=0 note=60 velocity=0 time=0
note_on channel=0 note=68 velocity=0 time=0
note_on channel=0 note=67 velocity=70 time=0
note_on channel=0 note=58 velocity=60 time=0
note_on channel=0 note=58 velocity=0 time=0
note_on channel=0 note=67 velocity=0 time=0
note_on channel=0 note=65 velocity=70 time=0
note_on channel=0 note=56 velocity=60 time=0
note_on channel=0 note=56 velocity=0 time=0
note_on channel=0 note=65 velocity=0 time=0
note_on channel=0 note=64 velocity=73 time=0
note_on channel=0 note=55 velocity=71 time=0
control_change channel=0 control=64 value=0 time=18
control_change channel=0 control=64 value=127 time=70
note_on channel=0 note=55 velocity=0 time=32
note_on channel=0 note=56 velocity=65 time=0
note_on channel=0 note=56 velocity=0 time=120
note_on channel=0 note=64 velocity=0 time=0
note_on channel=0 note=60 velocity=58 time=0
note_on channel=0 note=64 velocity=69 time=0
note_on channel=0 note=67 velocity=69 time=0
note_on channel=0 note=72 velocity=82 time=0
note_on channel=0 note=58 velocity=73 time=0
control_change channel=0 control=64 value=0 time=6
note_on channel=0 note=58 velocity=0 time=114
note_on channel=0 note=56 velocity=69 time=0
note_on channel=0 note=67 velocity=0 time=60
note_on channel=0 note=72 velocity=0 time=0
note_on channel=0 note=60 velocity=0 time=0
note_on channel=0 note=64 velocity=0 time=0
note_on channel=0 note=56 velocity=0 time=60
note_on channel=0 note=60 velocity=51 time=0
note_on channel=0 note=64 velocity=61 time=0
note_on channel=0 note=70 velocity=73 time=0
note_on channel=0 note=72 velocity=73 time=0
note_on channel=0 note=55 velocity=73 time=0
note_on channel=0 note=55 velocity=0 time=120
note_on channel=0 note=53 velocity=73 time=0
note_on channel=0 note=70 velocity=0 time=60
note_on channel=0 note=72 velocity=0 time=0
note_on channel=0 note=60 velocity=0 time=0
note_on channel=0 note=64 velocity=0 time=0
note_on channel=0 note=53 velocity=0 time=60
note_on channel=0 note=60 velocity=50 time=0
note_on channel=0 note=64 velocity=59 time=0
note_on channel=0 note=70 velocity=70 time=0
note_on channel=0 note=72 velocity=70 time=0
note_on channel=0 note=52 velocity=72 time=0
note_on channel=0 note=52 velocity=0 time=120
note_on channel=0 note=50 velocity=72 time=0
note_on channel=0 note=70 velocity=0 time=60
note_on channel=0 note=72 velocity=0 time=0
note_on channel=0 note=60 velocity=0 time=0
note_on channel=0 note=64 velocity=0 time=0
note_on channel=0 note=50 velocity=0 time=60
note_on channel=0 note=60 velocity=51 time=0
note_on channel=0 note=64 velocity=61 time=0
note_on channel=0 note=70 velocity=73 time=0
note_on channel=0 note=72 velocity=73 time=0
note_on channel=0 note=48 velocity=71 time=0
note_on channel=0 note=48 velocity=0 time=120
note_on channel=0 note=46 velocity=71 time=0
note_on channel=0 note=70 velocity=0 time=60
note_on channel=0 note=72 velocity=0 time=0
note_on channel=0 note=60 velocity=0 time=0
note_on channel=0 note=64 velocity=0 time=0
note_on channel=0 note=46 velocity=0 time=60
note_on channel=0 note=60 velocity=51 time=0
note_on channel=0 note=64 velocity=60 time=0
note_on channel=0 note=70 velocity=71 time=0
note_on channel=0 note=72 velocity=71 time=0
note_on channel=0 note=44 velocity=70 time=0
note_on channel=0 note=44 velocity=0 time=120
note_on channel=0 note=43 velocity=70 time=0
note_on channel=0 note=70 velocity=0 time=60
note_on channel=0 note=72 velocity=0 time=0
note_on channel=0 note=60 velocity=0 time=0
note_on channel=0 note=64 velocity=0 time=0
note_on channel=0 note=43 velocity=0 time=0
note_on channel=0 note=60 velocity=51 time=0
note_on channel=0 note=65 velocity=61 time=0
note_on channel=0 note=68 velocity=73 time=0
note_on channel=0 note=72 velocity=73 time=0
note_on channel=0 note=41 velocity=67 time=0
control_change channel=0 control=64 value=127 time=53
note_on channel=0 note=41 velocity=0 time=40
note_on channel=0 note=43 velocity=60 time=0
note_on channel=0 note=43 velocity=0 time=120
note_on channel=0 note=72 velocity=0 time=0
note_on channel=0 note=60 velocity=0 time=0
note_on channel=0 note=65 velocity=0 time=0
note_on channel=0 note=68 velocity=0 time=0
note_on channel=0 note=44 velocity=60 time=0
note_on channel=0 note=44 velocity=0 time=80
note_on channel=0 note=46 velocity=60 time=0
note_on channel=0 note=46 velocity=0 time=0
note_on channel=0 note=48 velocity=71 time=0
note_on channel=0 note=48 velocity=0 time=120
note_on channel=0 note=50 velocity=65 time=0
note_on channel=0 note=50 velocity=0 time=120
note_on channel=0 note=72 velocity=63 time=0
note_on channel=0 note=77 velocity=75 time=0
note_on channel=0 note=80 velocity=75 time=0
note_on channel=0 note=84 velocity=90 time=0
note_on channel=0 note=52 velocity=73 time=0
control_change channel=0 control=64 value=0 time=18
note_on channel=0 note=52 velocity=0 time=102
note_on channel=0 note=53 velocity=69 time=0
note_on channel=0 note=80 velocity=0 time=60
note_on channel=0 note=84 velocity=0 time=0
note_on channel=0 note=72 velocity=0 time=0
note_on channel=0 note=77 velocity=0 time=0
note_on channel=0 note=53 velocity=0 time=60
note_on channel=0 note=72 velocity=56 time=0
note_on channel=0 note=76 velocity=67 time=0
note_on channel=0 note=82 velocity=80 time=0
note_on channel=0 note=84 velocity=80 time=0
note_on channel=0 note=55 velocity=73 time=0
note_on channel=0 note=55 velocity=0 time=120
note_on channel=0 note=53 velocity=73 time=0
note_on channel=0 note=82 velocity=0 time=60
note_on channel=0 note=84 velocity=0 time=0
note_on channel=0 note=72 velocity=0 time=0
note_on channel=0 note=76 velocity=0 time=0
note_on channel=0 note=53 velocity=0 time=60
note_on channel=0 note=72 velocity=55 time=0
note_on channel=0 note=76 velocity=64 time=0
note_on channel=0 note=82 velocity=77 time=0
note_on channel=0 note=84 velocity=77 time=0
note_on channel=0 note=52 velocity=72 time=0
note_on channel=0 note=52 velocity=0 time=120
note_on channel=0 note=50 velocity=72 time=0
note_on channel=0 note=82 velocity=0 time=60
note_on channel=0 note=84 velocity=0 time=0
note_on channel=0 note=72 velocity=0 time=0
note_on channel=0 note=76 velocity=0 time=0
note_on channel=0 note=50 velocity=0 time=60
note_on channel=0 note=72 velocity=56 time=0
note_on channel=0 note=76 velocity=67 time=0
note_on channel=0 note=82 velocity=80 time=0
note_on channel=0 note=84 velocity=80 time=0
note_on channel=0 note=48 velocity=71 time=0
note_on channel=0 note=48 velocity=0 time=120
note_on channel=0 note=46 velocity=71 time=0
note_on channel=0 note=82 velocity=0 time=60
note_on channel=0 note=84 velocity=0 time=0
note_on channel=0 note=72 velocity=0 time=0
note_on channel=0 note=76 velocity=0 time=0
note_on channel=0 note=46 velocity=0 time=60
note_on channel=0 note=72 velocity=56 time=0
note_on channel=0 note=76 velocity=66 time=0
note_on channel=0 note=82 velocity=78 time=0
note_on channel=0 note=84 velocity=78 time=0
note_on channel=0 note=44 velocity=70 time=0
note_on channel=0 note=44 velocity=0 time=120
note_on channel=0 note=43 velocity=70 time=0
note_on channel=0 note=82 velocity=0 time=60
note_on channel=0 note=84 velocity=0 time=0
note_on channel=0 note=72 velocity=0 time=0
note_on channel=0 note=76 velocity=0 time=0
note_on channel=0 note=43 velocity=0 time=0
note_on channel=0 note=72 velocity=56 time=0
note_on channel=0 note=77 velocity=67 time=0
note_on channel=0 note=80 velocity=80 time=0
note_on channel=0 note=84 velocity=80 time=0
note_on channel=0 note=41 velocity=67 time=0
control_change channel=0 control=64 value=127 time=39
control_change channel=0 control=64 value=127 time=7
note_on channel=0 note=41 velocity=0 time=40
note_on channel=0 note=43 velocity=60 time=0
note_on channel=0 note=80 velocity=0 time=60
note_on channel=0 note=84 velocity=0 time=0
note_on channel=0 note=72 velocity=0 time=0
note_on channel=0 note=77 velocity=0 time=0
note_on channel=0 note=43 velocity=0 time=60
note_on channel=0 note=44 velocity=60 time=0
note_on channel=0 note=44 velocity=0 time=80
note_on channel=0 note=46 velocity=60 time=0
note_on channel=0 note=46 velocity=0 time=0
note_on channel=0 note=48 velocity=71 time=0
control_change channel=0 control=64 value=0 time=34
control_change channel=0 control=64 value=127 time=46
note_on channel=0 note=48 velocity=0 time=40
note_on channel=0 note=50 velocity=65 time=0
control_change channel=0 control=64 value=0 time=95
note_on channel=0 note=50 velocity=0 time=25
note_on channel=0 note=60 velocity=58 time=0
note_on channel=0 note=65 velocity=69 time=0
note_on channel=0 note=68 velocity=69 time=0
note_on channel=0 note=72 velocity=82 time=0
note_on channel=0 note=52 velocity=73 time=0
control_change channel=0 control=64 value=0 time=6
note_on channel=0 note=52 velocity=0 time=114
note_on channel=0 note=53 velocity=69 time=0
note_on channel=0 note=68 velocity=0 time=60
note_on channel=0 note=72 velocity=0 time=0
note_on channel=0 note=60 velocity=0 time=0
note_on channel=0 note=65 velocity=0 time=0
note_on channel=0 note=53 velocity=0 time=60
note_on channel=0 note=60 velocity=51 time=0
note_on channel=0 note=64 velocity=61 time=0
note_on channel=0 note=70 velocity=73 time=0
note_on channel=0 note=72 velocity=73 time=0
note_on channel=0 note=55 velocity=73 time=0
note_on channel=0 note=55 velocity=0 time=120
note_on channel=0 note=53 velocity=73 time=0
note_on channel=0 note=70 velocity=0 time=60
note_on channel=0 note=72 velocity=0 time=0
note_on channel=0 note=60 velocity=0 time=0
note_on channel=0 note=64 velocity=0 time=0
note_on channel=0 note=53 velocity=0 time=60
note_on channel=0 note=60 velocity=50 time=0
note_on channel=0 note=64 velocity=59 time=0
note_on channel=0 note=70 velocity=70 time=0
note_on channel=0 note=72 velocity=70 time=0
note_on channel=0 note=52 velocity=72 time=0
note_on channel=0 note=52 velocity=0 time=120
note_on channel=0 note=50 velocity=72 time=0
note_on channel=0 note=70 velocity=0 time=60
note_on channel=0 note=72 velocity=0 time=0
note_on channel=0 note=60 velocity=0 time=0
note_on channel=0 note=64 velocity=0 time=0
note_on channel=0 note=50 velocity=0 time=60
note_on channel=0 note=60 velocity=51 time=0
note_on channel=0 note=64 velocity=61 time=0
note_on channel=0 note=70 velocity=73 time=0
note_on channel=0 note=72 velocity=73 time=0
note_on channel=0 note=48 velocity=71 time=0
note_on channel=0 note=48 velocity=0 time=120
note_on channel=0 note=46 velocity=71 time=0
note_on channel=0 note=70 velocity=0 time=60
note_on channel=0 note=72 velocity=0 time=0
note_on channel=0 note=60 velocity=0 time=0
note_on channel=0 note=64 velocity=0 time=0
note_on channel=0 note=46 velocity=0 time=60
note_on channel=0 note=60 velocity=51 time=0
note_on channel=0 note=64 velocity=60 time=0
note_on channel=0 note=70 velocity=71 time=0
note_on channel=0 note=72 velocity=71 time=0
note_on channel=0 note=44 velocity=70 time=0
note_on channel=0 note=44 velocity=0 time=120
note_on channel=0 note=43 velocity=70 time=0
note_on channel=0 note=70 velocity=0 time=60
note_on channel=0 note=72 velocity=0 time=0
note_on channel=0 note=60 velocity=0 time=0
note_on channel=0 note=64 velocity=0 time=0
note_on channel=0 note=43 velocity=0 time=0
note_on channel=0 note=60 velocity=73 time=0
note_on channel=0 note=65 velocity=73 time=0
note_on channel=0 note=68 velocity=73 time=0
note_on channel=0 note=72 velocity=73 time=0
note_on channel=0 note=41 velocity=67 time=0
control_change channel=0 control=64 value=127 time=36
note_on channel=0 note=72 velocity=0 time=40
note_on channel=0 note=68 velocity=0 time=0
note_on channel=0 note=60 velocity=0 time=0
note_on channel=0 note=65 velocity=0 time=0
note_on channel=0 note=67 velocity=74 time=0
note_on channel=0 note=67 velocity=0 time=120
note_on channel=0 note=68 velocity=75 time=0
note_on channel=0 note=68 velocity=0 time=80
note_on channel=0 note=70 velocity=76 time=0
note_on channel=0 note=70 velocity=0 time=0
note_on channel=0 note=41 velocity=0 time=0
note_on channel=0 note=72 velocity=77 time=0
note_on channel=0 note=72 velocity=0 time=40
note_on channel=0 note=74 velocity=78 time=0
note_on channel=0 note=74 velocity=0 time=0
note_on channel=0 note=76 velocity=79 time=0
note_on channel=0 note=48 velocity=72 time=0
note_on channel=0 note=36 velocity=60 time=0
note_on channel=0 note=41 velocity=60 time=0
note_on channel=0 note=44 velocity=60 time=0
control_change channel=0 control=64 value=0 time=4
note_on channel=0 note=76 velocity=0 time=0
note_on channel=0 note=77 velocity=80 time=0
note_on channel=0 note=41 velocity=0 time=60
note_on channel=0 note=44 velocity=0 time=0
note_on channel=0 note=48 velocity=0 time=0
note_on channel=0 note=36 velocity=0 time=0
note_on channel=0 note=77 velocity=0 time=0
note_on channel=0 note=79 velocity=80 time=0
note_on channel=0 note=43 velocity=63 time=0
note_on channel=0 note=40 velocity=63 time=0
note_on channel=0 note=46 velocity=63 time=0
note_on channel=0 note=36 velocity=53 time=0
note_on channel=0 note=48 velocity=76 time=0
note_on channel=0 note=79 velocity=0 time=0
note_on channel=0 note=77 velocity=79 time=0
note_on channel=0 note=40 velocity=0 time=60
note_on channel=0 note=36 velocity=0 time=0
note_on channel=0 note=46 velocity=0 time=0
note_on channel=0 note=43 velocity=0 time=0
note_on channel=0 note=48 velocity=0 time=0
note_on channel=0 note=77 velocity=0 time=0
note_on channel=0 note=76 velocity=79 time=0
note_on channel=0 note=43 velocity=62 time=0
note_on channel=0 note=36 velocity=53 time=0
note_on channel=0 note=40 velocity=62 time=0
note_on channel=0 note=46 velocity=62 time=0
note_on channel=0 note=48 velocity=74 time=0
note_on channel=0 note=76 velocity=0 time=0
note_on channel=0 note=73 velocity=78 time=0
note_on channel=0 note=36 velocity=0 time=60
note_on channel=0 note=46 velocity=0 time=0
note_on channel=0 note=40 velocity=0 time=0
note_on channel=0 note=43 velocity=0 time=0
note_on channel=0 note=48 velocity=0 time=0
note_on channel=0 note=73 velocity=0 time=0
note_on channel=0 note=72 velocity=77 time=0
note_on channel=0 note=43 velocity=52 time=0
note_on channel=0 note=40 velocity=52 time=0
note_on channel=0 note=36 velocity=52 time=0
note_on channel=0 note=46 velocity=62 time=0
note_on channel=0 note=48 velocity=76 time=0
note_on channel=0 note=72 velocity=0 time=0
note_on channel=0 note=70 velocity=76 time=0
note_on channel=0 note=40 velocity=0 time=60
note_on channel=0 note=46 velocity=0 time=0
note_on channel=0 note=36 velocity=0 time=0
note_on channel=0 note=43 velocity=0 time=0
note_on channel=0 note=48 velocity=0 time=0
note_on channel=0 note=70 velocity=0 time=0
note_on channel=0 note=68 velocity=75 time=0
note_on channel=0 note=43 velocity=59 time=0
note_on channel=0 note=46 velocity=59 time=0
note_on channel=0 note=36 velocity=50 time=0
note_on channel=0 note=40 velocity=59 time=0
note_on channel=0 note=48 velocity=71 time=0
note_on channel=0 note=68 velocity=0 time=0
note_on channel=0 note=67 velocity=74 time=0
note_on channel=0 note=46 velocity=0 time=60
note_on channel=0 note=40 velocity=0 time=0
note_on channel=0 note=36 velocity=0 time=0
note_on channel=0 note=43 velocity=0 time=0
note_on channel=0 note=48 velocity=0 time=0
note_on channel=0 note=67 velocity=0 time=0
note_on channel=0 note=65 velocity=73 time=0
note_on channel=0 note=36 velocity=56 time=0
note_on channel=0 note=48 velocity=67 time=0
note_on channel=0 note=44 velocity=56 time=0
note_on channel=0 note=41 velocity=56 time=0
control_change channel=0 control=64 value=127 time=0
note_on channel=0 note=65 velocity=0 time=40
note_on channel=0 note=67 velocity=74 time=0
note_on channel=0 note=67 velocity=0 time=120
note_on channel=0 note=68 velocity=75 time=0
note_on channel=0 note=68 velocity=0 time=80
note_on channel=0 note=70 velocity=76 time=0
note_on channel=0 note=70 velocity=0 time=40
note_on channel=0 note=41 velocity=0 time=0
note_on channel=0 note=36 velocity=0 time=0
note_on channel=0 note=48 velocity=0 time=0
note_on channel=0 note=44 velocity=0 time=0
note_on channel=0 note=72 velocity=77 time=0
note_on channel=0 note=72 velocity=0 time=0
note_on channel=0 note=74 velocity=78 time=0
note_on channel=0 note=74 velocity=0 time=0
note_on channel=0 note=76 velocity=79 time=0
note_on channel=0 note=60 velocity=72 time=0
note_on channel=0 note=48 velocity=60 time=0
note_on channel=0 note=53 velocity=60 time=0
note_on channel=0 note=56 velocity=60 time=0
control_change channel=0 control=64 value=0 time=18
note_on channel=0 note=76 velocity=0 time=0
note_on channel=0 note=77 velocity=80 time=0
note_on channel=0 note=53 velocity=0 time=60
note_on channel=0 note=56 velocity=0 time=0
note_on channel=0 note=60 velocity=0 time=0
note_on channel=0 note=48 velocity=0 time=0
note_on channel=0 note=77 velocity=0 time=0
note_on channel=0 note=79 velocity=80 time=0
note_on channel=0 note=55 velocity=63 time=0
note_on channel=0 note=52 velocity=63 time=0
note_on channel=0 note=58 velocity=63 time=0
note_on channel=0 note=48 velocity=53 time=0
note_on channel=0 note=60 velocity=76 time=0
note_on channel=0 note=79 velocity=0 time=0
note_on channel=0 note=77 velocity=79 time=0
note_on channel=0 note=52 velocity=0 time=60
note_on channel=0 note=48 velocity=0 time=0
note_on channel=0 note=58 velocity=0 time=0
note_on channel=0 note=55 velocity=0 time=0
note_on channel=0 note=60 velocity=0 time=0
note_on channel=0 note=77 velocity=0 time=40
note_on channel=0 note=76 velocity=79 time=0
note_on channel=0 note=55 velocity=62 time=0
note_on channel=0 note=48 velocity=53 time=0
note_on channel=0 note=52 velocity=62 time=0
note_on channel=0 note=58 velocity=62 time=0
note_on channel=0 note=60 velocity=74 time=0
note_on channel=0 note=76 velocity=0 time=0
note_on channel=0 note=73 velocity=78 time=0
note_on channel=0 note=48 velocity=0 time=60
note_on channel=0 note=58 velocity=0 time=0
note_on channel=0 note=52 velocity=0 time=0
note_on channel=0 note=55 velocity=0 time=0
note_on channel=0 note=60 velocity=0 time=0
note_on channel=0 note=73 velocity=0 time=40
note_on channel=0 note=72 velocity=77 time=0
note_on channel=0 note=55 velocity=52 time=0
note_on channel=0 note=52 velocity=52 time=0
note_on channel=0 note=48 velocity=52 time=0
note_on channel=0 note=58 velocity=62 time=0
note_on channel=0 note=60 velocity=76 time=0
note_on channel=0 note=72 velocity=0 time=0
note_on channel=0 note=70 velocity=76 time=0
note_on channel=0 note=52 velocity=0 time=60
note_on channel=0 note=58 velocity=0 time=0
note_on channel=0 note=48 velocity=0 time=0
note_on channel=0 note=55 velocity=0 time=0
note_on channel=0 note=60 velocity=0 time=0
note_on channel=0 note=70 velocity=0 time=40
note_on channel=0 note=68 velocity=75 time=0
note_on channel=0 note=55 velocity=59 time=0
note_on channel=0 note=58 velocity=59 time=0
note_on channel=0 note=48 velocity=50 time=0
note_on channel=0 note=52 velocity=59 time=0
note_on channel=0 note=60 velocity=71 time=0
note_on channel=0 note=68 velocity=0 time=40
note_on channel=0 note=67 velocity=74 time=0
note_on channel=0 note=58 velocity=0 time=20
note_on channel=0 note=52 velocity=0 time=0
note_on channel=0 note=48 velocity=0 time=0
note_on channel=0 note=55 velocity=0 time=0
note_on channel=0 note=60 velocity=0 time=0
note_on channel=0 note=67 velocity=0 time=0
note_on channel=0 note=65 velocity=73 time=0
note_on channel=0 note=48 velocity=56 time=0
note_on channel=0 note=60 velocity=67 time=0
note_on channel=0 note=56 velocity=56 time=0
note_on channel=0 note=53 velocity=56 time=0
control_change channel=0 control=64 value=127 time=64
note_on channel=0 note=65 velocity=0 time=56
note_on channel=0 note=67 velocity=74 time=0
note_on channel=0 note=67 velocity=0 time=120
note_on channel=0 note=68 velocity=75 time=0
note_on channel=0 note=68 velocity=0 time=120
note_on channel=0 note=70 velocity=76 time=0
note_on channel=0 note=70 velocity=0 time=0
note_on channel=0 note=53 velocity=0 time=0
note_on channel=0 note=48 velocity=0 time=0
note_on channel=0 note=60 velocity=0 time=0
note_on channel=0 note=56 velocity=0 time=0
note_on channel=0 note=72 velocity=77 time=0
note_on channel=0 note=72 velocity=0 time=120
note_on channel=0 note=74 velocity=78 time=0
note_on channel=0 note=74 velocity=0 time=120
note_on channel=0 note=76 velocity=79 time=0
note_on channel=0 note=48 velocity=64 time=0
note_on channel=0 note=36 velocity=54 time=0
note_on channel=0 note=41 velocity=54 time=0
note_on channel=0 note=44 velocity=54 time=0
control_change channel=0 control=64 value=0 time=16
note_on channel=0 note=76 velocity=0 time=104
note_on channel=0 note=77 velocity=80 time=0
note_on channel=0 note=41 velocity=0 time=20
note_on channel=0 note=44 velocity=0 time=0
note_on channel=0 note=48 velocity=0 time=0
note_on channel=0 note=36 velocity=0 time=0
note_on channel=0 note=77 velocity=0 time=60
note_on channel=0 note=79 velocity=80 time=0
note_on channel=0 note=43 velocity=56 time=0
note_on channel=0 note=40 velocity=56 time=0
note_on channel=0 note=46 velocity=56 time=0
note_on channel=0 note=36 velocity=47 time=0
note_on channel=0 note=48 velocity=68 time=0
control_change channel=0 control=64 value=127 time=21
note_on channel=0 note=79 velocity=0 time=99
note_on channel=0 note=78 velocity=76 time=0
note_on channel=0 note=40 velocity=0 time=20
note_on channel=0 note=36 velocity=0 time=0
note_on channel=0 note=46 velocity=0 time=0
note_on channel=0 note=43 velocity=0 time=0
note_on channel=0 note=48 velocity=0 time=0
note_on channel=0 note=78 velocity=0 time=60
note_on channel=0 note=79 velocity=79 time=0
note_on channel=0 note=43 velocity=55 time=0
note_on channel=0 note=36 velocity=47 time=0
note_on channel=0 note=40 velocity=55 time=0
note_on channel=0 note=46 velocity=55 time=0
note_on channel=0 note=48 velocity=66 time=0
note_on channel=0 note=79 velocity=0 time=0
note_on channel=0 note=78 velocity=73 time=0
note_on channel=0 note=36 velocity=0 time=60
note_on channel=0 note=46 velocity=0 time=0
note_on channel=0 note=40 velocity=0 time=0
note_on channel=0 note=43 velocity=0 time=0
note_on channel=0 note=48 velocity=0 time=0
note_on channel=0 note=78 velocity=0 time=60
note_on channel=0 note=79 velocity=77 time=0
note_on channel=0 note=43 velocity=46 time=0
note_on channel=0 note=40 velocity=46 time=0
note_on channel=0 note=36 velocity=46 time=0
note_on channel=0 note=46 velocity=55 time=0
note_on channel=0 note=48 velocity=68 time=0
control_change channel=0 control=64 value=0 time=14
control_change channel=0 control=64 value=127 time=39
note_on channel=0 note=79 velocity=0 time=40
note_on channel=0 note=78 velocity=72 time=0
note_on channel=0 note=40 velocity=0 time=60
note_on channel=0 note=46 velocity=0 time=0
note_on channel=0 note=36 velocity=0 time=0
note_on channel=0 note=43 velocity=0 time=0
note_on channel=0 note=48 velocity=0 time=0
note_on channel=0 note=78 velocity=0 time=60
note_on channel=0 note=79 velocity=75 time=0
note_on channel=0 note=43 velocity=53 time=0
note_on channel=0 note=46 velocity=53 time=0
note_on channel=0 note=36 velocity=45 time=0
note_on channel=0 note=40 velocity=53 time=0
note_on channel=0 note=48 velocity=63 time=0
note_on channel=0 note=79 velocity=0 time=80
note_on channel=0 note=78 velocity=70 time=0
note_on channel=0 note=46 velocity=0 time=60
note_on channel=0 note=40 velocity=0 time=0
note_on channel=0 note=36 velocity=0 time=0
note_on channel=0 note=43 velocity=0 time=0
note_on channel=0 note=48 velocity=0 time=0
note_on channel=0 note=78 velocity=0 time=0
note_on channel=0 note=79 velocity=77 time=0
note_on channel=0 note=43 velocity=56 time=0
note_on channel=0 note=40 velocity=56 time=0
note_on channel=0 note=46 velocity=56 time=0
note_on channel=0 note=36 velocity=47 time=0
note_on channel=0 note=48 velocity=68 time=0
control_change channel=0 control=64 value=0 time=21
control_change channel=0 control=64 value=127 time=19
note_on channel=0 note=79 velocity=0 time=80
note_on channel=0 note=78 velocity=72 time=0
note_on channel=0 note=40 velocity=0 time=60
note_on channel=0 note=36 velocity=0 time=0
note_on channel=0 note=46 velocity=0 time=0
note_on channel=0 note=43 velocity=0 time=0
note_on channel=0 note=48 velocity=0 time=0
note_on channel=0 note=78 velocity=0 time=60
note_on channel=0 note=79 velocity=76 time=0
note_on channel=0 note=43 velocity=55 time=0
note_on channel=0 note=36 velocity=47 time=0
note_on channel=0 note=40 velocity=55 time=0
note_on channel=0 note=46 velocity=55 time=0
note_on channel=0 note=48 velocity=66 time=0
note_on channel=0 note=79 velocity=0 time=120
note_on channel=0 note=78 velocity=72 time=0
note_on channel=0 note=36 velocity=0 time=60
note_on channel=0 note=46 velocity=0 time=0
note_on channel=0 note=40 velocity=0 time=0
note_on channel=0 note=43 velocity=0 time=0
note_on channel=0 note=48 velocity=0 time=0
note_on channel=0 note=78 velocity=0 time=60
note_on channel=0 note=79 velocity=75 time=0
note_on channel=0 note=43 velocity=46 time=0
note_on channel=0 note=40 velocity=46 time=0
note_on channel=0 note=36 velocity=46 time=0
note_on channel=0 note=46 velocity=55 time=0
note_on channel=0 note=48 velocity=68 time=0
control_change channel=0 control=64 value=0 time=14
control_change channel=0 control=64 value=127 time=55
note_on channel=0 note=79 velocity=0 time=51
note_on channel=0 note=78 velocity=71 time=0
note_on channel=0 note=40 velocity=0 time=60
note_on channel=0 note=46 velocity=0 time=0
note_on channel=0 note=36 velocity=0 time=0
note_on channel=0 note=43 velocity=0 time=0
note_on channel=0 note=48 velocity=0 time=0
note_on channel=0 note=78 velocity=0 time=60
note_on channel=0 note=79 velocity=74 time=0
note_on channel=0 note=43 velocity=53 time=0
note_on channel=0 note=46 velocity=53 time=0
note_on channel=0 note=36 velocity=45 time=0
note_on channel=0 note=40 velocity=53 time=0
note_on channel=0 note=48 velocity=63 time=0
note_on channel=0 note=79 velocity=0 time=120
note_on channel=0 note=78 velocity=71 time=0
note_on channel=0 note=46 velocity=0 time=60
note_on channel=0 note=40 velocity=0 time=0
note_on channel=0 note=36 velocity=0 time=0
note_on channel=0 note=43 velocity=0 time=0
note_on channel=0 note=48 velocity=0 time=0
note_on channel=0 note=78 velocity=0 time=0
note_on channel=0 note=79 velocity=80 time=0
note_on channel=0 note=43 velocity=56 time=0
note_on channel=0 note=40 velocity=56 time=0
note_on channel=0 note=46 velocity=56 time=0
note_on channel=0 note=36 velocity=47 time=0
note_on channel=0 note=48 velocity=68 time=0
control_change channel=0 control=64 value=0 time=17
control_change channel=0 control=64 value=127 time=46
note_on channel=0 note=79 velocity=0 time=40
note_on channel=0 note=77 velocity=79 time=0
note_on channel=0 note=40 velocity=0 time=20
note_on channel=0 note=36 velocity=0 time=0
note_on channel=0 note=46 velocity=0 time=0
note_on channel=0 note=43 velocity=0 time=0
note_on channel=0 note=48 velocity=0 time=0
note_on channel=0 note=77 velocity=0 time=0
note_on channel=0 note=76 velocity=79 time=0
note_on channel=0 note=43 velocity=55 time=0
note_on channel=0 note=36 velocity=47 time=0
note_on channel=0 note=40 velocity=55 time=0
note_on channel=0 note=46 velocity=55 time=0
note_on channel=0 note=48 velocity=66 time=0
note_on channel=0 note=76 velocity=0 time=0
note_on channel=0 note=73 velocity=78 time=0
note_on channel=0 note=36 velocity=0 time=60
note_on channel=0 note=46 velocity=0 time=0
note_on channel=0 note=40 velocity=0 time=0
note_on channel=0 note=43 velocity=0 time=0
note_on channel=0 note=48 velocity=0 time=0
note_on channel=0 note=73 velocity=0 time=40
note_on channel=0 note=72 velocity=77 time=0
note_on channel=0 note=43 velocity=46 time=0
note_on channel=0 note=40 velocity=46 time=0
note_on channel=0 note=36 velocity=46 time=0
note_on channel=0 note=46 velocity=55 time=0
note_on channel=0 note=48 velocity=68 time=0
note_on channel=0 note=72 velocity=0 time=0
note_on channel=0 note=70 velocity=76 time=0
note_on channel=0 note=40 velocity=0 time=20
note_on channel=0 note=46 velocity=0 time=0
note_on channel=0 note=36 velocity=0 time=0
note_on channel=0 note=43 velocity=0 time=0
note_on channel=0 note=48 velocity=0 time=0
note_on channel=0 note=70 velocity=0 time=0
note_on channel=0 note=68 velocity=75 time=0
note_on channel=0 note=48 velocity=63 time=0
note_on channel=0 note=43 velocity=53 time=0
note_on channel=0 note=46 velocity=53 time=0
note_on channel=0 note=36 velocity=45 time=0
note_on channel=0 note=40 velocity=53 time=0
note_on channel=0 note=68 velocity=0 time=40
note_on channel=0 note=67 velocity=74 time=0
note_on channel=0 note=43 velocity=0 time=20
note_on channel=0 note=36 velocity=0 time=0
note_on channel=0 note=46 velocity=0 time=0
note_on channel=0 note=48 velocity=0 time=0
note_on channel=0 note=40 velocity=0 time=0
note_on channel=0 note=67 velocity=0 time=0
note_on channel=0 note=56 velocity=94 time=0
note_on channel=0 note=60 velocity=94 time=0
note_on channel=0 note=65 velocity=111 time=0
note_on channel=0 note=29 velocity=62 time=0
note_on channel=0 note=32 velocity=62 time=0
note_on channel=0 note=36 velocity=62 time=0
note_on channel=0 note=41 velocity=75 time=0
control_change channel=0 control=64 value=0 time=0
control_change channel=0 control=64 value=127 time=267
note_on channel=0 note=41 velocity=0 time=0
note_on channel=0 note=32 velocity=0 time=0
note_on channel=0 note=60 velocity=0 time=0
note_on channel=0 note=65 velocity=0 time=0
note_on channel=0 note=56 velocity=0 time=0
note_on channel=0 note=36 velocity=0 time=0
note_on channel=0 note=29 velocity=0 time=0
note_on channel=0 note=56 velocity=88 time=0
note_on channel=0 note=60 velocity=88 time=0
note_on channel=0 note=68 velocity=105 time=0
note_on channel=0 note=29 velocity=62 time=0
note_on channel=0 note=32 velocity=62 time=0
note_on channel=0 note=36 velocity=62 time=0
note_on channel=0 note=41 velocity=75 time=0
note_on channel=0 note=41 velocity=0 time=0
note_on channel=0 note=32 velocity=0 time=0
note_on channel=0 note=60 velocity=0 time=0
note_on channel=0 note=68 velocity=0 time=0
note_on channel=0 note=56 velocity=0 time=0
note_on channel=0 note=36 velocity=0 time=0
note_on channel=0 note=29 velocity=0 time=0
note_on channel=0 note=55 velocity=50 time=0
note_on channel=0 note=58 velocity=50 time=0
note_on channel=0 note=67 velocity=50 time=0
note_on channel=0 note=36 velocity=40 time=0
note_on channel=0 note=48 velocity=40 time=0
control_change channel=0 control=64 value=0 time=10
note_on channel=0 note=48 velocity=0 time=110
note_on channel=0 note=67 velocity=0 time=0
note_on channel=0 note=55 velocity=0 time=0
note_on channel=0 note=58 velocity=0 time=0
note_on channel=0 note=36 velocity=0 time=0
note_on channel=0 note=55 velocity=50 time=0
note_on channel=0 note=58 velocity=50 time=0
note_on channel=0 note=64 velocity=50 time=0
note_on channel=0 note=36 velocity=36 time=0
note_on channel=0 note=36 velocity=0 time=120
note_on channel=0 note=55 velocity=0 time=0
note_on channel=0 note=58 velocity=0 time=0
note_on channel=0 note=64 velocity=0 time=0
note_on channel=0 note=55 velocity=46 time=0
note_on channel=0 note=58 velocity=46 time=0
note_on channel=0 note=60 velocity=46 time=0
note_on channel=0 note=36 velocity=36 time=0
note_on channel=0 note=36 velocity=0 time=120
note_on channel=0 note=55 velocity=0 time=0
note_on channel=0 note=58 velocity=0 time=0
note_on channel=0 note=60 velocity=0 time=0
note_on channel=0 note=55 velocity=46 time=120
note_on channel=0 note=58 velocity=46 time=0
note_on channel=0 note=64 velocity=46 time=0
note_on channel=0 note=36 velocity=36 time=0
note_on channel=0 note=36 velocity=0 time=120
note_on channel=0 note=55 velocity=0 time=0
note_on channel=0 note=58 velocity=0 time=0
note_on channel=0 note=64 velocity=0 time=0
note_on channel=0 note=56 velocity=50 time=0
note_on channel=0 note=60 velocity=50 time=0
note_on channel=0 note=65 velocity=50 time=0
note_on channel=0 note=29 velocity=40 time=0
note_on channel=0 note=41 velocity=40 time=0
note_on channel=0 note=41 velocity=0 time=120
note_on channel=0 note=65 velocity=0 time=0
note_on channel=0 note=56 velocity=0 time=0
note_on channel=0 note=60 velocity=0 time=0
note_on channel=0 note=29 velocity=0 time=0
note_on channel=0 note=56 velocity=47 time=0
note_on channel=0 note=60 velocity=47 time=0
note_on channel=0 note=41 velocity=37 time=0
note_on channel=0 note=41 velocity=0 time=120
note_on channel=0 note=60 velocity=0 time=0
note_on channel=0 note=56 velocity=0 time=0
note_on channel=0 note=56 velocity=47 time=0
note_on channel=0 note=60 velocity=47 time=0
note_on channel=0 note=65 velocity=47 time=0
note_on channel=0 note=41 velocity=37 time=0
note_on channel=0 note=41 velocity=0 time=120
note_on channel=0 note=56 velocity=0 time=0
note_on channel=0 note=60 velocity=0 time=0
note_on channel=0 note=65 velocity=0 time=0
note_on channel=0 note=56 velocity=47 time=120
note_on channel=0 note=60 velocity=47 time=0
note_on channel=0 note=68 velocity=47 time=0
note_on channel=0 note=41 velocity=37 time=0
note_on channel=0 note=41 velocity=0 time=120
note_on channel=0 note=56 velocity=0 time=0
note_on channel=0 note=60 velocity=0 time=0
note_on channel=0 note=68 velocity=0 time=0
note_on channel=0 note=55 velocity=50 time=0
note_on channel=0 note=58 velocity=50 time=0
note_on channel=0 note=67 velocity=50 time=0
note_on channel=0 note=36 velocity=40 time=0
note_on channel=0 note=48 velocity=40 time=0
note_on channel=0 note=48 velocity=0 time=120
note_on channel=0 note=67 velocity=0 time=0
note_on channel=0 note=55 velocity=0 time=0
note_on channel=0 note=58 velocity=0 time=0
note_on channel=0 note=36 velocity=0 time=0
note_on channel=0 note=55 velocity=50 time=0
note_on channel=0 note=58 velocity=50 time=0
note_on channel=0 note=64 velocity=50 time=0
note_on channel=0 note=36 velocity=36 time=0
note_on channel=0 note=36 velocity=0 time=120
note_on channel=0 note=55 velocity=0 time=0
note_on channel=0 note=58 velocity=0 time=0
note_on channel=0 note=64 velocity=0 time=0
note_on channel=0 note=55 velocity=46 time=0
note_on channel=0 note=58 velocity=46 time=0
note_on channel=0 note=60 velocity=46 time=0
note_on channel=0 note=36 velocity=36 time=0
note_on channel=0 note=36 velocity=0 time=120
note_on channel=0 note=55 velocity=0 time=0
note_on channel=0 note=58 velocity=0 time=0
note_on channel=0 note=60 velocity=0 time=0
note_on channel=0 note=55 velocity=46 time=120
note_on channel=0 note=58 velocity=46 time=0
note_on channel=0 note=64 velocity=46 time=0
note_on channel=0 note=36 velocity=36 time=0
note_on channel=0 note=36 velocity=0 time=120
note_on channel=0 note=55 velocity=0 time=0
note_on channel=0 note=58 velocity=0 time=0
note_on channel=0 note=64 velocity=0 time=0
note_on channel=0 note=56 velocity=50 time=0
note_on channel=0 note=60 velocity=50 time=0
note_on channel=0 note=65 velocity=50 time=0
note_on channel=0 note=29 velocity=40 time=0
note_on channel=0 note=41 velocity=40 time=0
note_on channel=0 note=41 velocity=0 time=120
note_on channel=0 note=65 velocity=0 time=0
note_on channel=0 note=56 velocity=0 time=0
note_on channel=0 note=60 velocity=0 time=0
note_on channel=0 note=29 velocity=0 time=0
note_on channel=0 note=56 velocity=47 time=0
note_on channel=0 note=60 velocity=47 time=0
note_on channel=0 note=41 velocity=37 time=0
note_on channel=0 note=41 velocity=0 time=120
note_on channel=0 note=60 velocity=0 time=0
note_on channel=0 note=56 velocity=0 time=0
note_on channel=0 note=56 velocity=49 time=120
note_on channel=0 note=60 velocity=49 time=0
note_on channel=0 note=65 velocity=49 time=0
note_on channel=0 note=41 velocity=38 time=0
note_on channel=0 note=41 velocity=0 time=120
note_on channel=0 note=56 velocity=0 time=0
note_on channel=0 note=60 velocity=0 time=0
note_on channel=0 note=65 velocity=0 time=0
note_on channel=0 note=56 velocity=50 time=120
note_on channel=0 note=60 velocity=50 time=0
note_on channel=0 note=68 velocity=50 time=0
note_on channel=0 note=41 velocity=39 time=0
note_on channel=0 note=41 velocity=0 time=120
note_on channel=0 note=56 velocity=0 time=0
note_on channel=0 note=60 velocity=0 time=0
note_on channel=0 note=68 velocity=0 time=0
note_on channel=0 note=55 velocity=55 time=0
note_on channel=0 note=60 velocity=55 time=0
note_on channel=0 note=67 velocity=55 time=0
note_on channel=0 note=31 velocity=44 time=0
note_on channel=0 note=31 velocity=0 time=120
note_on channel=0 note=55 velocity=0 time=0
note_on channel=0 note=60 velocity=0 time=0
note_on channel=0 note=67 velocity=0 time=0
note_on channel=0 note=55 velocity=50 time=120
note_on channel=0 note=60 velocity=50 time=0
note_on channel=0 note=63 velocity=50 time=0
note_on channel=0 note=43 velocity=39 time=0
note_on channel=0 note=43 velocity=0 time=120
note_on channel=0 note=55 velocity=0 time=0
note_on channel=0 note=60 velocity=0 time=0
note_on channel=0 note=63 velocity=0 time=0
note_on channel=0 note=55 velocity=49 time=0
note_on channel=0 note=59 velocity=49 time=0
note_on channel=0 note=62 velocity=49 time=0
note_on channel=0 note=31 velocity=38 time=0
note_on channel=0 note=31 velocity=0 time=120
note_on channel=0 note=55 velocity=0 time=0
note_on channel=0 note=59 velocity=0 time=0
note_on channel=0 note=62 velocity=0 time=0
note_on channel=0 note=55 velocity=48 time=120
note_on channel=0 note=59 velocity=48 time=0
note_on channel=0 note=67 velocity=48 time=0
note_on channel=0 note=31 velocity=38 time=0
note_on channel=0 note=31 velocity=0 time=120
note_on channel=0 note=55 velocity=0 time=0
note_on channel=0 note=59 velocity=0 time=0
note_on channel=0 note=67 velocity=0 time=0
note_on channel=0 note=60 velocity=60 time=120
note_on channel=0 note=36 velocity=48 time=0
note_on channel=0 note=36 velocity=0 time=480
note_on channel=0 note=60 velocity=0 time=0
note_on channel=0 note=60 velocity=75 time=240
note_on channel=0 note=36 velocity=53 time=0
note_on channel=0 note=36 velocity=0 time=60
note_on channel=0 note=34 velocity=55 time=0
note_on channel=0 note=60 velocity=0 time=20
note_on channel=0 note=62 velocity=78 time=0
note_on channel=0 note=34 velocity=0 time=40
note_on channel=0 note=32 velocity=57 time=0
note_on channel=0 note=62 velocity=0 time=40
note_on channel=0 note=64 velocity=80 time=0
note_on channel=0 note=32 velocity=0 time=20
note_on channel=0 note=31 velocity=61 time=0
note_on channel=0 note=31 velocity=0 time=0
note_on channel=0 note=64 velocity=0 time=0
note_on channel=0 note=56 velocity=94 time=0
note_on channel=0 note=60 velocity=94 time=0
note_on channel=0 note=65 velocity=111 time=0
note_on channel=0 note=29 velocity=62 time=0
note_on channel=0 note=32 velocity=62 time=0
note_on channel=0 note=36 velocity=62 time=0
note_on channel=0 note=41 velocity=75 time=0
control_change channel=0 control=64 value=127 time=320
note_on channel=0 note=41 velocity=0 time=0
note_on channel=0 note=32 velocity=0 time=0
note_on channel=0 note=60 velocity=0 time=0
note_on channel=0 note=65 velocity=0 time=0
note_on channel=0 note=56 velocity=0 time=0
note_on channel=0 note=36 velocity=0 time=0
note_on channel=0 note=29 velocity=0 time=0
note_on channel=0 note=56 velocity=88 time=0
note_on channel=0 note=60 velocity=88 time=0
note_on channel=0 note=68 velocity=105 time=0
note_on channel=0 note=29 velocity=62 time=0
note_on channel=0 note=32 velocity=62 time=0
note_on channel=0 note=36 velocity=62 time=0
note_on channel=0 note=41 velocity=75 time=0
note_on channel=0 note=41 velocity=0 time=0
note_on channel=0 note=32 velocity=0 time=0
note_on channel=0 note=60 velocity=0 time=0
note_on channel=0 note=68 velocity=0 time=0
note_on channel=0 note=56 velocity=0 time=0
note_on channel=0 note=36 velocity=0 time=0
note_on channel=0 note=29 velocity=0 time=0
note_on channel=0 note=55 velocity=50 time=0
note_on channel=0 note=58 velocity=50 time=0
note_on channel=0 note=67 velocity=50 time=0
note_on channel=0 note=36 velocity=40 time=0
note_on channel=0 note=48 velocity=40 time=0
control_change channel=0 control=64 value=0 time=11
note_on channel=0 note=48 velocity=0 time=109
note_on channel=0 note=67 velocity=0 time=0
note_on channel=0 note=55 velocity=0 time=0
note_on channel=0 note=58 velocity=0 time=0
note_on channel=0 note=36 velocity=0 time=0
note_on channel=0 note=55 velocity=50 time=0
note_on channel=0 note=58 velocity=50 time=0
note_on channel=0 note=64 velocity=50 time=0
note_on channel=0 note=36 velocity=36 time=0
note_on channel=0 note=36 velocity=0 time=120
note_on channel=0 note=55 velocity=0 time=0
note_on channel=0 note=58 velocity=0 time=0
note_on channel=0 note=64 velocity=0 time=0
note_on channel=0 note=55 velocity=46 time=0
note_on channel=0 note=58 velocity=46 time=0
note_on channel=0 note=60 velocity=46 time=0
note_on channel=0 note=36 velocity=36 time=0
note_on channel=0 note=36 velocity=0 time=120
note_on channel=0 note=55 velocity=0 time=0
note_on channel=0 note=58 velocity=0 time=0
note_on channel=0 note=60 velocity=0 time=0
note_on channel=0 note=55 velocity=46 time=120
note_on channel=0 note=58 velocity=46 time=0
note_on channel=0 note=64 velocity=46 time=0
note_on channel=0 note=36 velocity=36 time=0
note_on channel=0 note=36 velocity=0 time=120
note_on channel=0 note=55 velocity=0 time=0
note_on channel=0 note=58 velocity=0 time=0
note_on channel=0 note=64 velocity=0 time=0
note_on channel=0 note=56 velocity=50 time=0
note_on channel=0 note=60 velocity=50 time=0
note_on channel=0 note=65 velocity=50 time=0
note_on channel=0 note=29 velocity=40 time=0
note_on channel=0 note=41 velocity=40 time=0
note_on channel=0 note=41 velocity=0 time=80
note_on channel=0 note=65 velocity=0 time=0
note_on channel=0 note=56 velocity=0 time=0
note_on channel=0 note=60 velocity=0 time=0
note_on channel=0 note=29 velocity=0 time=0
note_on channel=0 note=56 velocity=47 time=0
note_on channel=0 note=60 velocity=47 time=0
note_on channel=0 note=41 velocity=37 time=0
note_on channel=0 note=41 velocity=0 time=120
note_on channel=0 note=60 velocity=0 time=0
note_on channel=0 note=56 velocity=0 time=0
note_on channel=0 note=56 velocity=47 time=0
note_on channel=0 note=60 velocity=47 time=0
note_on channel=0 note=65 velocity=47 time=0
note_on channel=0 note=41 velocity=37 time=0
note_on channel=0 note=41 velocity=0 time=120
note_on channel=0 note=56 velocity=0 time=0
note_on channel=0 note=60 velocity=0 time=0
note_on channel=0 note=65 velocity=0 time=0
note_on channel=0 note=56 velocity=47 time=120
note_on channel=0 note=60 velocity=47 time=0
note_on channel=0 note=68 velocity=47 time=0
note_on channel=0 note=41 velocity=37 time=0
note_on channel=0 note=41 velocity=0 time=120
note_on channel=0 note=56 velocity=0 time=0
note_on channel=0 note=60 velocity=0 time=0
note_on channel=0 note=68 velocity=0 time=0
note_on channel=0 note=55 velocity=50 time=0
note_on channel=0 note=58 velocity=50 time=0
note_on channel=0 note=67 velocity=50 time=0
note_on channel=0 note=36 velocity=40 time=0
note_on channel=0 note=48 velocity=40 time=0
note_on channel=0 note=48 velocity=0 time=120
note_on channel=0 note=67 velocity=0 time=0
note_on channel=0 note=55 velocity=0 time=0
note_on channel=0 note=58 velocity=0 time=0
note_on channel=0 note=36 velocity=0 time=0
note_on channel=0 note=55 velocity=50 time=0
note_on channel=0 note=58 velocity=50 time=0
note_on channel=0 note=64 velocity=50 time=0
note_on channel=0 note=36 velocity=36 time=0
note_on channel=0 note=36 velocity=0 time=120
note_on channel=0 note=55 velocity=0 time=0
note_on channel=0 note=58 velocity=0 time=0
note_on channel=0 note=64 velocity=0 time=0
note_on channel=0 note=55 velocity=46 time=0
note_on channel=0 note=58 velocity=46 time=0
note_on channel=0 note=60 velocity=46 time=0
note_on channel=0 note=36 velocity=36 time=0
note_on channel=0 note=36 velocity=0 time=120
note_on channel=0 note=55 velocity=0 time=0
note_on channel=0 note=58 velocity=0 time=0
note_on channel=0 note=60 velocity=0 time=0
note_on channel=0 note=55 velocity=46 time=120
note_on channel=0 note=58 velocity=46 time=0
note_on channel=0 note=64 velocity=46 time=0
note_on channel=0 note=36 velocity=36 time=0
note_on channel=0 note=36 velocity=0 time=120
note_on channel=0 note=55 velocity=0 time=0
note_on channel=0 note=58 velocity=0 time=0
note_on channel=0 note=64 velocity=0 time=0
note_on channel=0 note=56 velocity=50 time=0
note_on channel=0 note=60 velocity=50 time=0
note_on channel=0 note=65 velocity=50 time=0
note_on channel=0 note=29 velocity=40 time=0
note_on channel=0 note=41 velocity=40 time=0
note_on channel=0 note=41 velocity=0 time=120
note_on channel=0 note=65 velocity=0 time=0
note_on channel=0 note=56 velocity=0 time=0
note_on channel=0 note=60 velocity=0 time=0
note_on channel=0 note=29 velocity=0 time=0
note_on channel=0 note=56 velocity=47 time=0
note_on channel=0 note=60 velocity=47 time=0
note_on channel=0 note=41 velocity=37 time=0
note_on channel=0 note=41 velocity=0 time=120
note_on channel=0 note=60 velocity=0 time=0
note_on channel=0 note=56 velocity=0 time=0
note_on channel=0 note=56 velocity=49 time=120
note_on channel=0 note=60 velocity=49 time=0
note_on channel=0 note=65 velocity=49 time=0
note_on channel=0 note=41 velocity=38 time=0
note_on channel=0 note=41 velocity=0 time=120
note_on channel=0 note=56 velocity=0 time=0
note_on channel=0 note=60 velocity=0 time=0
note_on channel=0 note=65 velocity=0 time=0
note_on channel=0 note=56 velocity=50 time=120
note_on channel=0 note=60 velocity=50 time=0
note_on channel=0 note=68 velocity=50 time=0
note_on channel=0 note=41 velocity=39 time=0
note_on channel=0 note=41 velocity=0 time=120
note_on channel=0 note=56 velocity=0 time=0
note_on channel=0 note=60 velocity=0 time=0
note_on channel=0 note=68 velocity=0 time=0
note_on channel=0 note=55 velocity=55 time=0
note_on channel=0 note=60 velocity=55 time=0
note_on channel=0 note=67 velocity=55 time=0
note_on channel=0 note=31 velocity=44 time=0
note_on channel=0 note=31 velocity=0 time=120
note_on channel=0 note=55 velocity=0 time=0
note_on channel=0 note=60 velocity=0 time=0
note_on channel=0 note=67 velocity=0 time=0
note_on channel=0 note=55 velocity=50 time=120
note_on channel=0 note=60 velocity=50 time=0
note_on channel=0 note=63 velocity=50 time=0
note_on channel=0 note=43 velocity=39 time=0
note_on channel=0 note=43 velocity=0 time=120
note_on channel=0 note=55 velocity=0 time=0
note_on channel=0 note=60 velocity=0 time=0
note_on channel=0 note=63 velocity=0 time=0
note_on channel=0 note=55 velocity=49 time=0
note_on channel=0 note=59 velocity=49 time=0
note_on channel=0 note=62 velocity=49 time=0
note_on channel=0 note=31 velocity=38 time=0
note_on channel=0 note=31 velocity=0 time=120
note_on channel=0 note=55 velocity=0 time=0
note_on channel=0 note=59 velocity=0 time=0
note_on channel=0 note=62 velocity=0 time=0
note_on channel=0 note=55 velocity=48 time=120
note_on channel=0 note=59 velocity=48 time=0
note_on channel=0 note=67 velocity=48 time=0
note_on channel=0 note=31 velocity=38 time=0
note_on channel=0 note=31 velocity=0 time=120
note_on channel=0 note=55 velocity=0 time=0
note_on channel=0 note=59 velocity=0 time=0
note_on channel=0 note=67 velocity=0 time=0
note_on channel=0 note=60 velocity=60 time=120
note_on channel=0 note=36 velocity=48 time=0
note_on channel=0 note=36 velocity=0 time=480
note_on channel=0 note=60 velocity=0 time=0
note_on channel=0 note=63 velocity=75 time=240
note_on channel=0 note=39 velocity=63 time=0
note_on channel=0 note=39 velocity=0 time=80
note_on channel=0 note=63 velocity=0 time=0
note_on channel=0 note=65 velocity=78 time=0
note_on channel=0 note=41 velocity=66 time=0
note_on channel=0 note=41 velocity=0 time=80
note_on channel=0 note=65 velocity=0 time=0
note_on channel=0 note=67 velocity=80 time=0
note_on channel=0 note=43 velocity=68 time=0
note_on channel=0 note=43 velocity=0 time=0
note_on channel=0 note=67 velocity=0 time=0
note_on channel=0 note=60 velocity=94 time=0
note_on channel=0 note=63 velocity=94 time=0
note_on channel=0 note=68 velocity=111 time=0
note_on channel=0 note=32 velocity=62 time=0
note_on channel=0 note=36 velocity=62 time=0
note_on channel=0 note=39 velocity=62 time=0
note_on channel=0 note=44 velocity=75 time=0
control_change channel=0 control=64 value=127 time=294
note_on channel=0 note=44 velocity=0 time=0
note_on channel=0 note=36 velocity=0 time=0
note_on channel=0 note=63 velocity=0 time=0
note_on channel=0 note=68 velocity=0 time=0
note_on channel=0 note=60 velocity=0 time=0
note_on channel=0 note=39 velocity=0 time=0
note_on channel=0 note=32 velocity=0 time=0
note_on channel=0 note=60 velocity=88 time=0
note_on channel=0 note=63 velocity=88 time=0
note_on channel=0 note=72 velocity=105 time=0
note_on channel=0 note=32 velocity=62 time=0
note_on channel=0 note=36 velocity=62 time=0
note_on channel=0 note=39 velocity=62 time=0
note_on channel=0 note=44 velocity=75 time=0
note_on channel=0 note=44 velocity=0 time=0
note_on channel=0 note=36 velocity=0 time=0
note_on channel=0 note=63 velocity=0 time=0
note_on channel=0 note=72 velocity=0 time=0
note_on channel=0 note=60 velocity=0 time=0
note_on channel=0 note=39 velocity=0 time=0
note_on channel=0 note=32 velocity=0 time=0
note_on channel=0 note=58 velocity=50 time=0
note_on channel=0 note=61 velocity=50 time=0
note_on channel=0 note=70 velocity=50 time=0
note_on channel=0 note=39 velocity=40 time=0
note_on channel=0 note=51 velocity=40 time=0
control_change channel=0 control=64 value=0 time=11
note_on channel=0 note=51 velocity=0 time=109
note_on channel=0 note=70 velocity=0 time=0
note_on channel=0 note=58 velocity=0 time=0
note_on channel=0 note=61 velocity=0 time=0
note_on channel=0 note=39 velocity=0 time=0
note_on channel=0 note=58 velocity=50 time=0
note_on channel=0 note=61 velocity=50 time=0
note_on channel=0 note=67 velocity=50 time=0
note_on channel=0 note=39 velocity=36 time=0
note_on channel=0 note=39 velocity=0 time=120
note_on channel=0 note=58 velocity=0 time=0
note_on channel=0 note=61 velocity=0 time=0
note_on channel=0 note=67 velocity=0 time=0
note_on channel=0 note=58 velocity=46 time=0
note_on channel=0 note=61 velocity=46 time=0
note_on channel=0 note=63 velocity=46 time=0
note_on channel=0 note=39 velocity=36 time=0
note_on channel=0 note=39 velocity=0 time=120
note_on channel=0 note=58 velocity=0 time=0
note_on channel=0 note=61 velocity=0 time=0
note_on channel=0 note=63 velocity=0 time=0
note_on channel=0 note=58 velocity=46 time=120
note_on channel=0 note=61 velocity=46 time=0
note_on channel=0 note=67 velocity=46 time=0
note_on channel=0 note=39 velocity=36 time=0
note_on channel=0 note=39 velocity=0 time=120
note_on channel=0 note=58 velocity=0 time=0
note_on channel=0 note=61 velocity=0 time=0
note_on channel=0 note=67 velocity=0 time=0
note_on channel=0 note=60 velocity=50 time=0
note_on channel=0 note=63 velocity=50 time=0
note_on channel=0 note=68 velocity=50 time=0
note_on channel=0 note=32 velocity=40 time=0
note_on channel=0 note=44 velocity=40 time=0
note_on channel=0 note=44 velocity=0 time=120
note_on channel=0 note=68 velocity=0 time=0
note_on channel=0 note=60 velocity=0 time=0
note_on channel=0 note=63 velocity=0 time=0
note_on channel=0 note=32 velocity=0 time=0
note_on channel=0 note=60 velocity=47 time=0
note_on channel=0 note=63 velocity=47 time=0
note_on channel=0 note=44 velocity=37 time=0
note_on channel=0 note=44 velocity=0 time=120
note_on channel=0 note=63 velocity=0 time=0
note_on channel=0 note=60 velocity=0 time=0
note_on channel=0 note=60 velocity=47 time=0
note_on channel=0 note=63 velocity=47 time=0
note_on channel=0 note=68 velocity=47 time=0
note_on channel=0 note=44 velocity=37 time=0
note_on channel=0 note=44 velocity=0 time=120
note_on channel=0 note=60 velocity=0 time=0
note_on channel=0 note=63 velocity=0 time=0
note_on channel=0 note=68 velocity=0 time=0
note_on channel=0 note=60 velocity=47 time=120
note_on channel=0 note=63 velocity=47 time=0
note_on channel=0 note=72 velocity=47 time=0
note_on channel=0 note=44 velocity=37 time=0
note_on channel=0 note=44 velocity=0 time=120
note_on channel=0 note=60 velocity=0 time=0
note_on channel=0 note=63 velocity=0 time=0
note_on channel=0 note=72 velocity=0 time=0
note_on channel=0 note=58 velocity=50 time=0
note_on channel=0 note=61 velocity=50 time=0
note_on channel=0 note=70 velocity=50 time=0
note_on channel=0 note=39 velocity=40 time=0
note_on channel=0 note=51 velocity=40 time=0
note_on channel=0 note=51 velocity=0 time=120
note_on channel=0 note=70 velocity=0 time=0
note_on channel=0 note=58 velocity=0 time=0
note_on channel=0 note=61 velocity=0 time=0
note_on channel=0 note=39 velocity=0 time=0
note_on channel=0 note=58 velocity=50 time=0
note_on channel=0 note=61 velocity=50 time=0
note_on channel=0 note=67 velocity=50 time=0
note_on channel=0 note=39 velocity=36 time=0
note_on channel=0 note=39 velocity=0 time=120
note_on channel=0 note=58 velocity=0 time=0
note_on channel=0 note=61 velocity=0 time=0
note_on channel=0 note=67 velocity=0 time=0
note_on channel=0 note=58 velocity=46 time=120
note_on channel=0 note=61 velocity=46 time=0
note_on channel=0 note=63 velocity=46 time=0
note_on channel=0 note=39 velocity=36 time=0
note_on channel=0 note=39 velocity=0 time=120
note_on channel=0 note=58 velocity=0 time=0
note_on channel=0 note=61 velocity=0 time=0
note_on channel=0 note=63 velocity=0 time=0
note_on channel=0 note=58 velocity=46 time=120
note_on channel=0 note=61 velocity=46 time=0
note_on channel=0 note=67 velocity=46 time=0
note_on channel=0 note=39 velocity=36 time=0
note_on channel=0 note=39 velocity=0 time=120
note_on channel=0 note=58 velocity=0 time=0
note_on channel=0 note=61 velocity=0 time=0
note_on channel=0 note=67 velocity=0 time=0
note_on channel=0 note=60 velocity=50 time=0
note_on channel=0 note=63 velocity=50 time=0
note_on channel=0 note=68 velocity=50 time=0
note_on channel=0 note=32 velocity=40 time=0
note_on channel=0 note=44 velocity=40 time=0
note_on channel=0 note=44 velocity=0 time=120
note_on channel=0 note=68 velocity=0 time=0
note_on channel=0 note=60 velocity=0 time=0
note_on channel=0 note=63 velocity=0 time=0
note_on channel=0 note=32 velocity=0 time=0
note_on channel=0 note=60 velocity=47 time=0
note_on channel=0 note=63 velocity=47 time=0
note_on channel=0 note=44 velocity=37 time=0
note_on channel=0 note=44 velocity=0 time=120
note_on channel=0 note=63 velocity=0 time=0
note_on channel=0 note=60 velocity=0 time=0
note_on channel=0 note=60 velocity=47 time=120
note_on channel=0 note=63 velocity=47 time=0
note_on channel=0 note=68 velocity=47 time=0
note_on channel=0 note=44 velocity=37 time=0
note_on channel=0 note=44 velocity=0 time=120
note_on channel=0 note=60 velocity=0 time=0
note_on channel=0 note=63 velocity=0 time=0
note_on channel=0 note=68 velocity=0 time=0
note_on channel=0 note=60 velocity=47 time=120
note_on channel=0 note=63 velocity=47 time=0
note_on channel=0 note=72 velocity=47 time=0
note_on channel=0 note=44 velocity=37 time=0
note_on channel=0 note=44 velocity=0 time=120
note_on channel=0 note=60 velocity=0 time=0
note_on channel=0 note=63 velocity=0 time=0
note_on channel=0 note=72 velocity=0 time=0
note_on channel=0 note=60 velocity=52 time=0
note_on channel=0 note=63 velocity=52 time=0
note_on channel=0 note=69 velocity=52 time=0
note_on channel=0 note=29 velocity=42 time=0
note_on channel=0 note=41 velocity=42 time=0
note_on channel=0 note=41 velocity=0 time=120
note_on channel=0 note=69 velocity=0 time=0
note_on channel=0 note=60 velocity=0 time=0
note_on channel=0 note=63 velocity=0 time=0
note_on channel=0 note=29 velocity=0 time=0
note_on channel=0 note=60 velocity=52 time=0
note_on channel=0 note=63 velocity=52 time=0
note_on channel=0 note=65 velocity=52 time=0
note_on channel=0 note=29 velocity=37 time=0
note_on channel=0 note=29 velocity=0 time=120
note_on channel=0 note=60 velocity=0 time=0
note_on channel=0 note=63 velocity=0 time=0
note_on channel=0 note=65 velocity=0 time=0
note_on channel=0 note=60 velocity=48 time=120
note_on channel=0 note=63 velocity=48 time=0
note_on channel=0 note=69 velocity=48 time=0
note_on channel=0 note=29 velocity=38 time=0
note_on channel=0 note=29 velocity=0 time=120
note_on channel=0 note=60 velocity=0 time=0
note_on channel=0 note=63 velocity=0 time=0
note_on channel=0 note=69 velocity=0 time=0
note_on channel=0 note=60 velocity=49 time=120
note_on channel=0 note=63 velocity=49 time=0
note_on channel=0 note=72 velocity=49 time=0
note_on channel=0 note=29 velocity=38 time=0
note_on channel=0 note=29 velocity=0 time=120
note_on channel=0 note=60 velocity=0 time=0
note_on channel=0 note=63 velocity=0 time=0
note_on channel=0 note=72 velocity=0 time=0
note_on channel=0 note=61 velocity=54 time=0
note_on channel=0 note=65 velocity=54 time=0
note_on channel=0 note=70 velocity=54 time=0
note_on channel=0 note=34 velocity=43 time=0
note_on channel=0 note=46 velocity=43 time=0
note_on channel=0 note=46 velocity=0 time=120
note_on channel=0 note=70 velocity=0 time=0
note_on channel=0 note=61 velocity=0 time=0
note_on channel=0 note=65 velocity=0 time=0
note_on channel=0 note=34 velocity=0 time=0
note_on channel=0 note=61 velocity=52 time=0
note_on channel=0 note=65 velocity=52 time=0
note_on channel=0 note=46 velocity=40 time=0
note_on channel=0 note=46 velocity=0 time=120
note_on channel=0 note=65 velocity=0 time=0
note_on channel=0 note=61 velocity=0 time=0
note_on channel=0 note=61 velocity=53 time=120
note_on channel=0 note=65 velocity=53 time=0
note_on channel=0 note=70 velocity=53 time=0
note_on channel=0 note=46 velocity=42 time=0
note_on channel=0 note=46 velocity=0 time=120
note_on channel=0 note=61 velocity=0 time=0
note_on channel=0 note=65 velocity=0 time=0
note_on channel=0 note=70 velocity=0 time=0
note_on channel=0 note=61 velocity=54 time=120
note_on channel=0 note=65 velocity=54 time=0
note_on channel=0 note=73 velocity=54 time=0
note_on channel=0 note=46 velocity=42 time=0
note_on channel=0 note=46 velocity=0 time=120
note_on channel=0 note=61 velocity=0 time=0
note_on channel=0 note=65 velocity=0 time=0
note_on channel=0 note=73 velocity=0 time=0
note_on channel=0 note=60 velocity=60 time=0
note_on channel=0 note=65 velocity=60 time=0
note_on channel=0 note=72 velocity=60 time=0
note_on channel=0 note=36 velocity=48 time=0
note_on channel=0 note=36 velocity=0 time=120
note_on channel=0 note=60 velocity=0 time=0
note_on channel=0 note=65 velocity=0 time=0
note_on channel=0 note=72 velocity=0 time=0
note_on channel=0 note=60 velocity=60 time=0
note_on channel=0 note=65 velocity=60 time=0
note_on channel=0 note=68 velocity=60 time=0
note_on channel=0 note=48 velocity=43 time=0
note_on channel=0 note=48 velocity=0 time=120
note_on channel=0 note=60 velocity=0 time=0
note_on channel=0 note=65 velocity=0 time=0
note_on channel=0 note=68 velocity=0 time=0
note_on channel=0 note=60 velocity=53 time=120
note_on channel=0 note=64 velocity=53 time=0
note_on channel=0 note=67 velocity=53 time=0
note_on channel=0 note=36 velocity=42 time=0
note_on channel=0 note=36 velocity=0 time=120
note_on channel=0 note=60 velocity=0 time=0
note_on channel=0 note=64 velocity=0 time=0
note_on channel=0 note=67 velocity=0 time=0
note_on channel=0 note=60 velocity=53 time=120
note_on channel=0 note=64 velocity=53 time=0
note_on channel=0 note=72 velocity=53 time=0
note_on channel=0 note=36 velocity=42 time=0
note_on channel=0 note=36 velocity=0 time=120
note_on channel=0 note=60 velocity=0 time=0
note_on channel=0 note=64 velocity=0 time=0
note_on channel=0 note=72 velocity=0 time=0
note_on channel=0 note=65 velocity=70 time=0
note_on channel=0 note=29 velocity=48 time=0
note_on channel=0 note=41 velocity=48 time=0
note_on channel=0 note=41 velocity=0 time=480
note_on channel=0 note=29 velocity=0 time=0
note_on channel=0 note=65 velocity=0 time=0
note_on channel=0 note=63 velocity=75 time=240
note_on channel=0 note=39 velocity=63 time=0
note_on channel=0 note=39 velocity=0 time=80
note_on channel=0 note=63 velocity=0 time=0
note_on channel=0 note=65 velocity=78 time=0
note_on channel=0 note=41 velocity=66 time=0
note_on channel=0 note=41 velocity=0 time=80
note_on channel=0 note=65 velocity=0 time=0
note_on channel=0 note=67 velocity=80 time=0
note_on channel=0 note=43 velocity=68 time=0
note_on channel=0 note=43 velocity=0 time=0
note_on channel=0 note=67 velocity=0 time=0
note_on channel=0 note=60 velocity=94 time=0
note_on channel=0 note=63 velocity=94 time=0
note_on channel=0 note=68 velocity=111 time=0
note_on channel=0 note=32 velocity=62 time=0
note_on channel=0 note=36 velocity=62 time=0
note_on channel=0 note=39 velocity=62 time=0
note_on channel=0 note=44 velocity=75 time=0
control_change channel=0 control=64 value=127 time=214
note_on channel=0 note=44 velocity=0 time=0
note_on channel=0 note=36 velocity=0 time=0
note_on channel=0 note=63 velocity=0 time=0
note_on channel=0 note=68 velocity=0 time=0
note_on channel=0 note=60 velocity=0 time=0
note_on channel=0 note=39 velocity=0 time=0
note_on channel=0 note=32 velocity=0 time=0
note_on channel=0 note=60 velocity=88 time=0
note_on channel=0 note=63 velocity=88 time=0
note_on channel=0 note=72 velocity=105 time=0
note_on channel=0 note=32 velocity=62 time=0
note_on channel=0 note=36 velocity=62 time=0
note_on channel=0 note=39 velocity=62 time=0
note_on channel=0 note=44 velocity=75 time=0
note_on channel=0 note=44 velocity=0 time=0
note_on channel=0 note=36 velocity=0 time=0
note_on channel=0 note=63 velocity=0 time=0
note_on channel=0 note=72 velocity=0 time=0
note_on channel=0 note=60 velocity=0 time=0
note_on channel=0 note=39 velocity=0 time=0
note_on channel=0 note=32 velocity=0 time=0
note_on channel=0 note=58 velocity=50 time=0
note_on channel=0 note=61 velocity=50 time=0
note_on channel=0 note=70 velocity=50 time=0
note_on channel=0 note=39 velocity=40 time=0
note_on channel=0 note=51 velocity=40 time=0
control_change channel=0 control=64 value=0 time=10
note_on channel=0 note=51 velocity=0 time=110
note_on channel=0 note=70 velocity=0 time=0
note_on channel=0 note=58 velocity=0 time=0
note_on channel=0 note=61 velocity=0 time=0
note_on channel=0 note=39 velocity=0 time=0
note_on channel=0 note=58 velocity=50 time=0
note_on channel=0 note=61 velocity=50 time=0
note_on channel=0 note=67 velocity=50 time=0
note_on channel=0 note=39 velocity=36 time=0
note_on channel=0 note=39 velocity=0 time=120
note_on channel=0 note=58 velocity=0 time=0
note_on channel=0 note=61 velocity=0 time=0
note_on channel=0 note=67 velocity=0 time=0
note_on channel=0 note=58 velocity=46 time=0
note_on channel=0 note=61 velocity=46 time=0
note_on channel=0 note=63 velocity=46 time=0
note_on channel=0 note=39 velocity=36 time=0
note_on channel=0 note=39 velocity=0 time=120
note_on channel=0 note=58 velocity=0 time=0
note_on channel=0 note=61 velocity=0 time=0
note_on channel=0 note=63 velocity=0 time=0
note_on channel=0 note=58 velocity=46 time=120
note_on channel=0 note=61 velocity=46 time=0
note_on channel=0 note=67 velocity=46 time=0
note_on channel=0 note=39 velocity=36 time=0
note_on channel=0 note=39 velocity=0 time=120
note_on channel=0 note=58 velocity=0 time=0
note_on channel=0 note=61 velocity=0 time=0
note_on channel=0 note=67 velocity=0 time=0
note_on channel=0 note=60 velocity=50 time=0
note_on channel=0 note=63 velocity=50 time=0
note_on channel=0 note=68 velocity=50 time=0
note_on channel=0 note=32 velocity=40 time=0
note_on channel=0 note=44 velocity=40 time=0
note_on channel=0 note=44 velocity=0 time=120
note_on channel=0 note=68 velocity=0 time=0
note_on channel=0 note=60 velocity=0 time=0
note_on channel=0 note=63 velocity=0 time=0
note_on channel=0 note=32 velocity=0 time=0
note_on channel=0 note=60 velocity=47 time=0
note_on channel=0 note=63 velocity=47 time=0
note_on channel=0 note=44 velocity=37 time=0
note_on channel=0 note=44 velocity=0 time=120
note_on channel=0 note=63 velocity=0 time=0
note_on channel=0 note=60 velocity=0 time=0
note_on channel=0 note=60 velocity=47 time=120
note_on channel=0 note=63 velocity=47 time=0
note_on channel=0 note=68 velocity=47 time=0
note_on channel=0 note=44 velocity=37 time=0
note_on channel=0 note=44 velocity=0 time=120
note_on channel=0 note=60 velocity=0 time=0
note_on channel=0 note=63 velocity=0 time=0
note_on channel=0 note=68 velocity=0 time=0
note_on channel=0 note=60 velocity=47 time=120
note_on channel=0 note=63 velocity=47 time=0
note_on channel=0 note=72 velocity=47 time=0
note_on channel=0 note=44 velocity=37 time=0
note_on channel=0 note=44 velocity=0 time=120
note_on channel=0 note=60 velocity=0 time=0
note_on channel=0 note=63 velocity=0 time=0
note_on channel=0 note=72 velocity=0 time=0
note_on channel=0 note=58 velocity=50 time=0
note_on channel=0 note=61 velocity=50 time=0
note_on channel=0 note=70 velocity=50 time=0
note_on channel=0 note=39 velocity=40 time=0
note_on channel=0 note=51 velocity=40 time=0
note_on channel=0 note=51 velocity=0 time=120
note_on channel=0 note=70 velocity=0 time=0
note_on channel=0 note=58 velocity=0 time=0
note_on channel=0 note=61 velocity=0 time=0
note_on channel=0 note=39 velocity=0 time=0
note_on channel=0 note=58 velocity=50 time=0
note_on channel=0 note=61 velocity=50 time=0
note_on channel=0 note=67 velocity=50 time=0
note_on channel=0 note=39 velocity=36 time=0
note_on channel=0 note=39 velocity=0 time=120
note_on channel=0 note=58 velocity=0 time=0
note_on channel=0 note=61 velocity=0 time=0
note_on channel=0 note=67 velocity=0 time=0
note_on channel=0 note=58 velocity=46 time=120
note_on channel=0 note=61 velocity=46 time=0
note_on channel=0 note=63 velocity=46 time=0
note_on channel=0 note=39 velocity=36 time=0
note_on channel=0 note=39 velocity=0 time=120
note_on channel=0 note=58 velocity=0 time=0
note_on channel=0 note=61 velocity=0 time=0
note_on channel=0 note=63 velocity=0 time=0
note_on channel=0 note=58 velocity=46 time=120
note_on channel=0 note=61 velocity=46 time=0
note_on channel=0 note=67 velocity=46 time=0
note_on channel=0 note=39 velocity=36 time=0
note_on channel=0 note=39 velocity=0 time=120
note_on channel=0 note=58 velocity=0 time=0
note_on channel=0 note=61 velocity=0 time=0
note_on channel=0 note=67 velocity=0 time=0
note_on channel=0 note=60 velocity=50 time=0
note_on channel=0 note=63 velocity=50 time=0
note_on channel=0 note=68 velocity=50 time=0
note_on channel=0 note=32 velocity=40 time=0
note_on channel=0 note=44 velocity=40 time=0
note_on channel=0 note=44 velocity=0 time=120
note_on channel=0 note=68 velocity=0 time=0
note_on channel=0 note=60 velocity=0 time=0
note_on channel=0 note=63 velocity=0 time=0
note_on channel=0 note=32 velocity=0 time=0
note_on channel=0 note=60 velocity=47 time=0
note_on channel=0 note=63 velocity=47 time=0
note_on channel=0 note=44 velocity=37 time=0
note_on channel=0 note=44 velocity=0 time=120
note_on channel=0 note=63 velocity=0 time=0
note_on channel=0 note=60 velocity=0 time=0
note_on channel=0 note=60 velocity=47 time=120
note_on channel=0 note=63 velocity=47 time=0
note_on channel=0 note=68 velocity=47 time=0
note_on channel=0 note=44 velocity=37 time=0
note_on channel=0 note=44 velocity=0 time=120
note_on channel=0 note=60 velocity=0 time=0
note_on channel=0 note=63 velocity=0 time=0
note_on channel=0 note=68 velocity=0 time=0
note_on channel=0 note=60 velocity=47 time=120
note_on channel=0 note=63 velocity=47 time=0
note_on channel=0 note=72 velocity=47 time=0
note_on channel=0 note=44 velocity=37 time=0
note_on channel=0 note=44 velocity=0 time=120
note_on channel=0 note=60 velocity=0 time=0
note_on channel=0 note=63 velocity=0 time=0
note_on channel=0 note=72 velocity=0 time=0
note_on channel=0 note=60 velocity=52 time=0
note_on channel=0 note=63 velocity=52 time=0
note_on channel=0 note=69 velocity=52 time=0
note_on channel=0 note=29 velocity=42 time=0
note_on channel=0 note=41 velocity=42 time=0
note_on channel=0 note=41 velocity=0 time=120
note_on channel=0 note=69 velocity=0 time=0
note_on channel=0 note=60 velocity=0 time=0
note_on channel=0 note=63 velocity=0 time=0
note_on channel=0 note=29 velocity=0 time=0
note_on channel=0 note=60 velocity=52 time=0
note_on channel=0 note=63 velocity=52 time=0
note_on channel=0 note=65 velocity=52 time=0
note_on channel=0 note=29 velocity=37 time=0
note_on channel=0 note=29 velocity=0 time=120
note_on channel=0 note=60 velocity=0 time=0
note_on channel=0 note=63 velocity=0 time=0
note_on channel=0 note=65 velocity=0 time=0
note_on channel=0 note=60 velocity=48 time=120
note_on channel=0 note=63 velocity=48 time=0
note_on channel=0 note=69 velocity=48 time=0
note_on channel=0 note=29 velocity=38 time=0
note_on channel=0 note=29 velocity=0 time=120
note_on channel=0 note=60 velocity=0 time=0
note_on channel=0 note=63 velocity=0 time=0
note_on channel=0 note=69 velocity=0 time=0
note_on channel=0 note=60 velocity=49 time=120
note_on channel=0 note=63 velocity=49 time=0
note_on channel=0 note=72 velocity=49 time=0
note_on channel=0 note=29 velocity=38 time=0
note_on channel=0 note=29 velocity=0 time=120
note_on channel=0 note=60 velocity=0 time=0
note_on channel=0 note=63 velocity=0 time=0
note_on channel=0 note=72 velocity=0 time=0
note_on channel=0 note=61 velocity=54 time=0
note_on channel=0 note=65 velocity=54 time=0
note_on channel=0 note=70 velocity=54 time=0
note_on channel=0 note=34 velocity=43 time=0
note_on channel=0 note=46 velocity=43 time=0
note_on channel=0 note=46 velocity=0 time=120
note_on channel=0 note=70 velocity=0 time=0
note_on channel=0 note=61 velocity=0 time=0
note_on channel=0 note=65 velocity=0 time=0
note_on channel=0 note=34 velocity=0 time=0
note_on channel=0 note=61 velocity=52 time=0
note_on channel=0 note=65 velocity=52 time=0
note_on channel=0 note=46 velocity=40 time=0
note_on channel=0 note=46 velocity=0 time=120
note_on channel=0 note=65 velocity=0 time=0
note_on channel=0 note=61 velocity=0 time=0
note_on channel=0 note=61 velocity=53 time=120
note_on channel=0 note=65 velocity=53 time=0
note_on channel=0 note=70 velocity=53 time=0
note_on channel=0 note=46 velocity=42 time=0
note_on channel=0 note=46 velocity=0 time=120
note_on channel=0 note=61 velocity=0 time=0
note_on channel=0 note=65 velocity=0 time=0
note_on channel=0 note=70 velocity=0 time=0
note_on channel=0 note=61 velocity=54 time=120
note_on channel=0 note=65 velocity=54 time=0
note_on channel=0 note=73 velocity=54 time=0
note_on channel=0 note=46 velocity=42 time=0
note_on channel=0 note=46 velocity=0 time=120
note_on channel=0 note=61 velocity=0 time=0
note_on channel=0 note=65 velocity=0 time=0
note_on channel=0 note=73 velocity=0 time=0
note_on channel=0 note=60 velocity=60 time=0
note_on channel=0 note=65 velocity=60 time=0
note_on channel=0 note=72 velocity=60 time=0
note_on channel=0 note=36 velocity=48 time=0
note_on channel=0 note=36 velocity=0 time=120
note_on channel=0 note=60 velocity=0 time=0
note_on channel=0 note=65 velocity=0 time=0
note_on channel=0 note=72 velocity=0 time=0
note_on channel=0 note=60 velocity=60 time=0
note_on channel=0 note=65 velocity=60 time=0
note_on channel=0 note=68 velocity=60 time=0
note_on channel=0 note=48 velocity=43 time=0
note_on channel=0 note=48 velocity=0 time=120
note_on channel=0 note=60 velocity=0 time=0
note_on channel=0 note=65 velocity=0 time=0
note_on channel=0 note=68 velocity=0 time=0
note_on channel=0 note=60 velocity=53 time=120
note_on channel=0 note=64 velocity=53 time=0
note_on channel=0 note=67 velocity=53 time=0
note_on channel=0 note=36 velocity=42 time=0
note_on channel=0 note=36 velocity=0 time=120
note_on channel=0 note=60 velocity=0 time=0
note_on channel=0 note=64 velocity=0 time=0
note_on channel=0 note=67 velocity=0 time=0
note_on channel=0 note=60 velocity=53 time=120
note_on channel=0 note=64 velocity=53 time=0
note_on channel=0 note=72 velocity=53 time=0
note_on channel=0 note=36 velocity=42 time=0
note_on channel=0 note=36 velocity=0 time=120
note_on channel=0 note=60 velocity=0 time=0
note_on channel=0 note=64 velocity=0 time=0
note_on channel=0 note=72 velocity=0 time=0
note_on channel=0 note=65 velocity=70 time=0
note_on channel=0 note=29 velocity=54 time=0
note_on channel=0 note=41 velocity=54 time=0
control_change channel=0 control=64 value=127 time=50
note_on channel=0 note=41 velocity=0 time=0
note_on channel=0 note=29 velocity=0 time=0
note_on channel=0 note=65 velocity=0 time=0
note_on channel=0 note=60 velocity=65 time=0
note_on channel=0 note=41 velocity=45 time=0
note_on channel=0 note=60 velocity=0 time=40
note_on channel=0 note=65 velocity=63 time=0
note_on channel=0 note=44 velocity=49 time=0
note_on channel=0 note=65 velocity=0 time=40
note_on channel=0 note=68 velocity=62 time=0
note_on channel=0 note=48 velocity=52 time=0
note_on channel=0 note=68 velocity=0 time=0
note_on channel=0 note=72 velocity=62 time=0
note_on channel=0 note=53 velocity=67 time=0
note_on channel=0 note=72 velocity=0 time=120
note_on channel=0 note=73 velocity=58 time=0
note_on channel=0 note=73 velocity=0 time=120
note_on channel=0 note=72 velocity=62 time=0
note_on channel=0 note=72 velocity=0 time=120
note_on channel=0 note=70 velocity=57 time=0
note_on channel=0 note=70 velocity=0 time=120
note_on channel=0 note=68 velocity=65 time=0
control_change channel=0 control=64 value=0 time=15
control_change channel=0 control=64 value=127 time=73
note_on channel=0 note=68 velocity=0 time=7
note_on channel=0 note=41 velocity=0 time=0
note_on channel=0 note=48 velocity=0 time=0
note_on channel=0 note=44 velocity=0 time=0
note_on channel=0 note=53 velocity=0 time=0
note_on channel=0 note=70 velocity=60 time=0
note_on channel=0 note=41 velocity=45 time=0
note_on channel=0 note=70 velocity=0 time=80
note_on channel=0 note=68 velocity=60 time=0
note_on channel=0 note=44 velocity=49 time=0
note_on channel=0 note=68 velocity=0 time=80
note_on channel=0 note=67 velocity=54 time=0
note_on channel=0 note=48 velocity=52 time=0
note_on channel=0 note=67 velocity=0 time=0
note_on channel=0 note=65 velocity=63 time=0
note_on channel=0 note=53 velocity=67 time=0
note_on channel=0 note=65 velocity=0 time=120
note_on channel=0 note=67 velocity=54 time=0
note_on channel=0 note=67 velocity=0 time=120
note_on channel=0 note=68 velocity=57 time=0
note_on channel=0 note=68 velocity=0 time=0
note_on channel=0 note=65 velocity=54 time=0
note_on channel=0 note=65 velocity=0 time=40
note_on channel=0 note=68 velocity=67 time=0
control_change channel=0 control=64 value=0 time=16
control_change channel=0 control=64 value=127 time=59
note_on channel=0 note=68 velocity=0 time=0
note_on channel=0 note=41 velocity=0 time=0
note_on channel=0 note=48 velocity=0 time=0
note_on channel=0 note=44 velocity=0 time=0
note_on channel=0 note=53 velocity=0 time=0
note_on channel=0 note=60 velocity=63 time=0
note_on channel=0 note=41 velocity=45 time=0
note_on channel=0 note=60 velocity=0 time=40
note_on channel=0 note=65 velocity=63 time=0
note_on channel=0 note=44 velocity=49 time=0
note_on channel=0 note=65 velocity=0 time=0
note_on channel=0 note=68 velocity=60 time=0
note_on channel=0 note=48 velocity=52 time=0
note_on channel=0 note=68 velocity=0 time=0
note_on channel=0 note=72 velocity=63 time=0
note_on channel=0 note=53 velocity=67 time=0
note_on channel=0 note=72 velocity=0 time=120
note_on channel=0 note=73 velocity=59 time=0
note_on channel=0 note=73 velocity=0 time=120
note_on channel=0 note=72 velocity=61 time=0
note_on channel=0 note=72 velocity=0 time=120
note_on channel=0 note=70 velocity=61 time=0
note_on channel=0 note=70 velocity=0 time=120
note_on channel=0 note=68 velocity=64 time=0
control_change channel=0 control=64 value=0 time=15
control_change channel=0 control=64 value=127 time=59
note_on channel=0 note=68 velocity=0 time=21
note_on channel=0 note=41 velocity=0 time=0
note_on channel=0 note=48 velocity=0 time=0
note_on channel=0 note=44 velocity=0 time=0
note_on channel=0 note=53 velocity=0 time=0
note_on channel=0 note=70 velocity=61 time=0
note_on channel=0 note=41 velocity=45 time=0
note_on channel=0 note=70 velocity=0 time=0
note_on channel=0 note=68 velocity=60 time=0
note_on channel=0 note=44 velocity=49 time=0
note_on channel=0 note=68 velocity=0 time=0
note_on channel=0 note=67 velocity=54 time=0
note_on channel=0 note=48 velocity=52 time=0
note_on channel=0 note=67 velocity=0 time=0
note_on channel=0 note=65 velocity=63 time=0
note_on channel=0 note=53 velocity=67 time=0
note_on channel=0 note=65 velocity=0 time=120
note_on channel=0 note=67 velocity=54 time=0
note_on channel=0 note=67 velocity=0 time=120
note_on channel=0 note=68 velocity=57 time=0
note_on channel=0 note=68 velocity=0 time=0
note_on channel=0 note=65 velocity=54 time=0
note_on channel=0 note=65 velocity=0 time=40
note_on channel=0 note=53 velocity=0 time=0
note_on channel=0 note=48 velocity=0 time=0
note_on channel=0 note=44 velocity=0 time=0
note_on channel=0 note=41 velocity=0 time=0
note_on channel=0 note=66 velocity=67 time=0
control_change channel=0 control=64 value=0 time=15
control_change channel=0 control=64 value=127 time=52
note_on channel=0 note=66 velocity=0 time=0
note_on channel=0 note=61 velocity=63 time=0
note_on channel=0 note=46 velocity=45 time=0
note_on channel=0 note=61 velocity=0 time=0
note_on channel=0 note=66 velocity=63 time=0
note_on channel=0 note=49 velocity=49 time=0
note_on channel=0 note=66 velocity=0 time=40
note_on channel=0 note=70 velocity=62 time=0
note_on channel=0 note=54 velocity=52 time=0
note_on channel=0 note=70 velocity=0 time=0
note_on channel=0 note=73 velocity=63 time=0
note_on channel=0 note=58 velocity=67 time=0
note_on channel=0 note=73 velocity=0 time=120
note_on channel=0 note=75 velocity=61 time=0
note_on channel=0 note=75 velocity=0 time=120
note_on channel=0 note=73 velocity=63 time=0
note_on channel=0 note=73 velocity=0 time=120
note_on channel=0 note=72 velocity=61 time=0
note_on channel=0 note=72 velocity=0 time=0
note_on channel=0 note=70 velocity=64 time=0
control_change channel=0 control=64 value=0 time=12
control_change channel=0 control=64 value=127 time=57
note_on channel=0 note=70 velocity=0 time=0
note_on channel=0 note=46 velocity=0 time=0
note_on channel=0 note=54 velocity=0 time=0
note_on channel=0 note=49 velocity=0 time=0
note_on channel=0 note=58 velocity=0 time=0
note_on channel=0 note=72 velocity=60 time=0
note_on channel=0 note=46 velocity=45 time=0
note_on channel=0 note=72 velocity=0 time=0
note_on channel=0 note=70 velocity=60 time=0
note_on channel=0 note=49 velocity=49 time=0
note_on channel=0 note=70 velocity=0 time=0
note_on channel=0 note=68 velocity=54 time=0
note_on channel=0 note=54 velocity=52 time=0
note_on channel=0 note=68 velocity=0 time=0
note_on channel=0 note=66 velocity=63 time=0
note_on channel=0 note=58 velocity=67 time=0
note_on channel=0 note=66 velocity=0 time=120
note_on channel=0 note=68 velocity=54 time=0
note_on channel=0 note=68 velocity=0 time=120
note_on channel=0 note=66 velocity=57 time=0
note_on channel=0 note=66 velocity=0 time=0
note_on channel=0 note=65 velocity=54 time=0
note_on channel=0 note=65 velocity=0 time=0
note_on channel=0 note=58 velocity=0 time=0
note_on channel=0 note=54 velocity=0 time=0
note_on channel=0 note=49 velocity=0 time=0
note_on channel=0 note=46 velocity=0 time=0
note_on channel=0 note=64 velocity=69 time=0
control_change channel=0 control=64 value=0 time=24
control_change channel=0 control=64 value=127 time=39
note_on channel=0 note=64 velocity=0 time=0
note_on channel=0 note=65 velocity=63 time=0
note_on channel=0 note=48 velocity=45 time=0
note_on channel=0 note=65 velocity=0 time=0
note_on channel=0 note=67 velocity=63 time=0
note_on channel=0 note=55 velocity=49 time=0
note_on channel=0 note=67 velocity=0 time=0
note_on channel=0 note=68 velocity=62 time=0
note_on channel=0 note=58 velocity=52 time=0
note_on channel=0 note=68 velocity=0 time=0
note_on channel=0 note=70 velocity=63 time=0
note_on channel=0 note=60 velocity=67 time=0
note_on channel=0 note=70 velocity=0 time=120
note_on channel=0 note=68 velocity=61 time=0
note_on channel=0 note=68 velocity=0 time=120
note_on channel=0 note=67 velocity=63 time=0
note_on channel=0 note=67 velocity=0 time=120
note_on channel=0 note=65 velocity=61 time=0
note_on channel=0 note=65 velocity=0 time=120
note_on channel=0 note=64 velocity=63 time=0
control_change channel=0 control=64 value=0 time=18
control_change channel=0 control=64 value=127 time=29
note_on channel=0 note=64 velocity=0 time=0
note_on channel=0 note=48 velocity=0 time=0
note_on channel=0 note=58 velocity=0 time=0
note_on channel=0 note=55 velocity=0 time=0
note_on channel=0 note=60 velocity=0 time=0
note_on channel=0 note=65 velocity=64 time=0
note_on channel=0 note=48 velocity=45 time=0
note_on channel=0 note=65 velocity=0 time=0
note_on channel=0 note=67 velocity=61 time=0
note_on channel=0 note=55 velocity=49 time=0
note_on channel=0 note=67 velocity=0 time=40
note_on channel=0 note=68 velocity=54 time=0
note_on channel=0 note=58 velocity=52 time=0
note_on channel=0 note=68 velocity=0 time=0
note_on channel=0 note=70 velocity=62 time=0
note_on channel=0 note=60 velocity=67 time=0
note_on channel=0 note=70 velocity=0 time=120
note_on channel=0 note=72 velocity=63 time=0
note_on channel=0 note=72 velocity=0 time=120
note_on channel=0 note=74 velocity=65 time=0
note_on channel=0 note=74 velocity=0 time=0
note_on channel=0 note=76 velocity=69 time=0
note_on channel=0 note=76 velocity=0 time=0
note_on channel=0 note=60 velocity=0 time=0
note_on channel=0 note=58 velocity=0 time=0
note_on channel=0 note=55 velocity=0 time=0
note_on channel=0 note=48 velocity=0 time=0
note_on channel=0 note=77 velocity=72 time=0
note_on channel=0 note=41 velocity=56 time=0
note_on channel=0 note=53 velocity=56 time=0
control_change channel=0 control=64 value=0 time=18
control_change channel=0 control=64 value=127 time=81
note_on channel=0 note=53 velocity=0 time=0
note_on channel=0 note=41 velocity=0 time=0
note_on channel=0 note=77 velocity=0 time=0
note_on channel=0 note=72 velocity=69 time=0
note_on channel=0 note=53 velocity=47 time=0
note_on channel=0 note=72 velocity=0 time=40
note_on channel=0 note=77 velocity=65 time=0
note_on channel=0 note=56 velocity=51 time=0
note_on channel=0 note=77 velocity=0 time=40
note_on channel=0 note=80 velocity=64 time=0
note_on channel=0 note=60 velocity=54 time=0
note_on channel=0 note=80 velocity=0 time=0
note_on channel=0 note=84 velocity=67 time=0
note_on channel=0 note=65 velocity=71 time=0
note_on channel=0 note=84 velocity=0 time=120
note_on channel=0 note=85 velocity=64 time=0
note_on channel=0 note=85 velocity=0 time=120
note_on channel=0 note=84 velocity=64 time=0
note_on channel=0 note=84 velocity=0 time=120
note_on channel=0 note=82 velocity=64 time=0
note_on channel=0 note=82 velocity=0 time=120
note_on channel=0 note=80 velocity=66 time=0
control_change channel=0 control=64 value=0 time=14
control_change channel=0 control=64 value=127 time=45
note_on channel=0 note=80 velocity=0 time=35
note_on channel=0 note=53 velocity=0 time=0
note_on channel=0 note=60 velocity=0 time=0
note_on channel=0 note=56 velocity=0 time=0
note_on channel=0 note=65 velocity=0 time=0
note_on channel=0 note=82 velocity=63 time=0
note_on channel=0 note=53 velocity=47 time=0
note_on channel=0 note=82 velocity=0 time=80
note_on channel=0 note=80 velocity=63 time=0
note_on channel=0 note=56 velocity=51 time=0
note_on channel=0 note=80 velocity=0 time=80
note_on channel=0 note=79 velocity=55 time=0
note_on channel=0 note=60 velocity=54 time=0
note_on channel=0 note=79 velocity=0 time=0
note_on channel=0 note=77 velocity=63 time=0
note_on channel=0 note=65 velocity=71 time=0
note_on channel=0 note=77 velocity=0 time=120
note_on channel=0 note=79 velocity=56 time=0
note_on channel=0 note=79 velocity=0 time=120
note_on channel=0 note=80 velocity=60 time=0
note_on channel=0 note=80 velocity=0 time=0
note_on channel=0 note=77 velocity=55 time=0
note_on channel=0 note=77 velocity=0 time=40
note_on channel=0 note=80 velocity=72 time=0
control_change channel=0 control=64 value=0 time=17
note_on channel=0 note=80 velocity=0 time=0
note_on channel=0 note=53 velocity=0 time=0
note_on channel=0 note=60 velocity=0 time=0
note_on channel=0 note=56 velocity=0 time=0
note_on channel=0 note=65 velocity=0 time=0
note_on channel=0 note=72 velocity=65 time=0
note_on channel=0 note=53 velocity=47 time=0
control_change channel=0 control=64 value=127 time=7
note_on channel=0 note=72 velocity=0 time=40
note_on channel=0 note=77 velocity=65 time=0
note_on channel=0 note=56 velocity=51 time=0
note_on channel=0 note=77 velocity=0 time=0
note_on channel=0 note=80 velocity=64 time=0
note_on channel=0 note=60 velocity=54 time=0
note_on channel=0 note=80 velocity=0 time=0
note_on channel=0 note=84 velocity=67 time=0
note_on channel=0 note=65 velocity=71 time=0
note_on channel=0 note=84 velocity=0 time=120
note_on channel=0 note=85 velocity=64 time=0
note_on channel=0 note=85 velocity=0 time=120
note_on channel=0 note=84 velocity=64 time=0
note_on channel=0 note=84 velocity=0 time=120
note_on channel=0 note=82 velocity=64 time=0
note_on channel=0 note=82 velocity=0 time=120
note_on channel=0 note=80 velocity=64 time=0
control_change channel=0 control=64 value=0 time=16
control_change channel=0 control=64 value=127 time=59
note_on channel=0 note=80 velocity=0 time=21
note_on channel=0 note=53 velocity=0 time=0
note_on channel=0 note=60 velocity=0 time=0
note_on channel=0 note=56 velocity=0 time=0
note_on channel=0 note=65 velocity=0 time=0
note_on channel=0 note=82 velocity=63 time=0
note_on channel=0 note=53 velocity=47 time=0
note_on channel=0 note=82 velocity=0 time=0
note_on channel=0 note=80 velocity=63 time=0
note_on channel=0 note=56 velocity=51 time=0
note_on channel=0 note=80 velocity=0 time=0
note_on channel=0 note=79 velocity=55 time=0
note_on channel=0 note=60 velocity=54 time=0
note_on channel=0 note=79 velocity=0 time=0
note_on channel=0 note=77 velocity=63 time=0
note_on channel=0 note=65 velocity=71 time=0
note_on channel=0 note=77 velocity=0 time=120
note_on channel=0 note=79 velocity=56 time=0
note_on channel=0 note=79 velocity=0 time=120
note_on channel=0 note=80 velocity=60 time=0
note_on channel=0 note=80 velocity=0 time=0
note_on channel=0 note=77 velocity=55 time=0
note_on channel=0 note=77 velocity=0 time=40
note_on channel=0 note=65 velocity=0 time=0
note_on channel=0 note=60 velocity=0 time=0
note_on channel=0 note=56 velocity=0 time=0
note_on channel=0 note=53 velocity=0 time=0
note_on channel=0 note=78 velocity=71 time=0
control_change channel=0 control=64 value=0 time=18
control_change channel=0 control=64 value=127 time=46
note_on channel=0 note=78 velocity=0 time=0
note_on channel=0 note=73 velocity=65 time=0
note_on channel=0 note=58 velocity=47 time=0
note_on channel=0 note=73 velocity=0 time=0
note_on channel=0 note=78 velocity=65 time=0
note_on channel=0 note=61 velocity=51 time=0
note_on channel=0 note=78 velocity=0 time=40
note_on channel=0 note=82 velocity=64 time=0
note_on channel=0 note=66 velocity=54 time=0
note_on channel=0 note=82 velocity=0 time=0
note_on channel=0 note=85 velocity=67 time=0
note_on channel=0 note=70 velocity=71 time=0
note_on channel=0 note=85 velocity=0 time=120
note_on channel=0 note=87 velocity=64 time=0
note_on channel=0 note=87 velocity=0 time=120
note_on channel=0 note=85 velocity=64 time=0
note_on channel=0 note=85 velocity=0 time=120
note_on channel=0 note=84 velocity=64 time=0
note_on channel=0 note=84 velocity=0 time=0
note_on channel=0 note=82 velocity=67 time=0
control_change channel=0 control=64 value=0 time=11
control_change channel=0 control=64 value=127 time=69
note_on channel=0 note=82 velocity=0 time=0
note_on channel=0 note=58 velocity=0 time=0
note_on channel=0 note=66 velocity=0 time=0
note_on channel=0 note=61 velocity=0 time=0
note_on channel=0 note=70 velocity=0 time=0
note_on channel=0 note=84 velocity=63 time=0
note_on channel=0 note=58 velocity=47 time=0
note_on channel=0 note=84 velocity=0 time=0
note_on channel=0 note=82 velocity=63 time=0
note_on channel=0 note=61 velocity=51 time=0
note_on channel=0 note=82 velocity=0 time=0
note_on channel=0 note=80 velocity=55 time=0
note_on channel=0 note=66 velocity=54 time=0
note_on channel=0 note=80 velocity=0 time=0
note_on channel=0 note=78 velocity=63 time=0
note_on channel=0 note=70 velocity=71 time=0
note_on channel=0 note=78 velocity=0 time=120
note_on channel=0 note=80 velocity=56 time=0
note_on channel=0 note=80 velocity=0 time=120
note_on channel=0 note=78 velocity=60 time=0
note_on channel=0 note=78 velocity=0 time=0
note_on channel=0 note=77 velocity=55 time=0
note_on channel=0 note=77 velocity=0 time=0
note_on channel=0 note=70 velocity=0 time=0
note_on channel=0 note=66 velocity=0 time=0
note_on channel=0 note=61 velocity=0 time=0
note_on channel=0 note=58 velocity=0 time=0
note_on channel=0 note=76 velocity=72 time=0
control_change channel=0 control=64 value=0 time=12
control_change channel=0 control=64 value=127 time=63
note_on channel=0 note=76 velocity=0 time=0
note_on channel=0 note=77 velocity=65 time=0
note_on channel=0 note=60 velocity=47 time=0
note_on channel=0 note=77 velocity=0 time=0
note_on channel=0 note=79 velocity=65 time=0
note_on channel=0 note=64 velocity=51 time=0
note_on channel=0 note=79 velocity=0 time=0
note_on channel=0 note=80 velocity=64 time=0
note_on channel=0 note=67 velocity=54 time=0
note_on channel=0 note=80 velocity=0 time=0
note_on channel=0 note=82 velocity=70 time=0
note_on channel=0 note=72 velocity=71 time=0
note_on channel=0 note=82 velocity=0 time=120
note_on channel=0 note=80 velocity=66 time=0
note_on channel=0 note=80 velocity=0 time=120
note_on channel=0 note=79 velocity=65 time=0
note_on channel=0 note=79 velocity=0 time=120
note_on channel=0 note=77 velocity=63 time=0
note_on channel=0 note=77 velocity=0 time=120
note_on channel=0 note=76 velocity=66 time=0
control_change channel=0 control=64 value=0 time=13
control_change channel=0 control=64 value=127 time=17
note_on channel=0 note=76 velocity=0 time=0
note_on channel=0 note=60 velocity=0 time=0
note_on channel=0 note=67 velocity=0 time=0
note_on channel=0 note=64 velocity=0 time=0
note_on channel=0 note=72 velocity=0 time=0
note_on channel=0 note=77 velocity=67 time=0
note_on channel=0 note=48 velocity=47 time=0
note_on channel=0 note=77 velocity=0 time=0
note_on channel=0 note=79 velocity=63 time=0
note_on channel=0 note=52 velocity=51 time=0
note_on channel=0 note=79 velocity=0 time=40
note_on channel=0 note=80 velocity=55 time=0
note_on channel=0 note=55 velocity=54 time=0
note_on channel=0 note=80 velocity=0 time=0
note_on channel=0 note=82 velocity=63 time=0
note_on channel=0 note=60 velocity=73 time=0
note_on channel=0 note=82 velocity=0 time=120
note_on channel=0 note=84 velocity=66 time=0
note_on channel=0 note=84 velocity=0 time=120
note_on channel=0 note=86 velocity=71 time=0
note_on channel=0 note=86 velocity=0 time=0
note_on channel=0 note=88 velocity=73 time=0
note_on channel=0 note=88 velocity=0 time=0
note_on channel=0 note=60 velocity=0 time=0
note_on channel=0 note=55 velocity=0 time=0
note_on channel=0 note=52 velocity=0 time=0
note_on channel=0 note=48 velocity=0 time=0
note_on channel=0 note=89 velocity=80 time=0
note_on channel=0 note=41 velocity=77 time=0
note_on channel=0 note=53 velocity=77 time=0
control_change channel=0 control=64 value=0 time=9
control_change channel=0 control=64 value=127 time=97
note_on channel=0 note=53 velocity=0 time=0
note_on channel=0 note=41 velocity=0 time=0
note_on channel=0 note=89 velocity=0 time=0
note_on channel=0 note=80 velocity=75 time=0
note_on channel=0 note=80 velocity=0 time=40
note_on channel=0 note=84 velocity=70 time=0
note_on channel=0 note=84 velocity=0 time=40
note_on channel=0 note=89 velocity=70 time=0
note_on channel=0 note=89 velocity=0 time=0
note_on channel=0 note=92 velocity=86 time=0
note_on channel=0 note=72 velocity=71 time=240
note_on channel=0 note=77 velocity=74 time=120
note_on channel=0 note=80 velocity=89 time=120
control_change channel=0 control=64 value=0 time=17
control_change channel=0 control=64 value=127 time=23
note_on channel=0 note=92 velocity=0 time=57
note_on channel=0 note=84 velocity=70 time=0
note_on channel=0 note=84 velocity=0 time=80
note_on channel=0 note=89 velocity=70 time=0
note_on channel=0 note=89 velocity=0 time=80
note_on channel=0 note=92 velocity=73 time=0
note_on channel=0 note=92 velocity=0 time=0
note_on channel=0 note=96 velocity=77 time=0
note_on channel=0 note=96 velocity=0 time=120
note_on channel=0 note=92 velocity=76 time=0
note_on channel=0 note=92 velocity=0 time=120
note_on channel=0 note=80 velocity=0 time=0
note_on channel=0 note=77 velocity=0 time=0
note_on channel=0 note=72 velocity=0 time=0
note_on channel=0 note=91 velocity=73 time=0
note_on channel=0 note=60 velocity=67 time=0
note_on channel=0 note=91 velocity=0 time=120
note_on channel=0 note=88 velocity=73 time=0
note_on channel=0 note=88 velocity=0 time=0
note_on channel=0 note=60 velocity=0 time=0
note_on channel=0 note=89 velocity=78 time=0
note_on channel=0 note=65 velocity=82 time=0
control_change channel=0 control=64 value=0 time=17
control_change channel=0 control=64 value=127 time=82
note_on channel=0 note=89 velocity=0 time=0
note_on channel=0 note=80 velocity=75 time=0
note_on channel=0 note=80 velocity=0 time=40
note_on channel=0 note=65 velocity=0 time=0
note_on channel=0 note=84 velocity=70 time=0
note_on channel=0 note=84 velocity=0 time=40
note_on channel=0 note=89 velocity=70 time=0
note_on channel=0 note=89 velocity=0 time=0
note_on channel=0 note=92 velocity=86 time=0
note_on channel=0 note=72 velocity=71 time=240
note_on channel=0 note=77 velocity=74 time=120
note_on channel=0 note=80 velocity=87 time=120
control_change channel=0 control=64 value=0 time=14
control_change channel=0 control=64 value=127 time=46
note_on channel=0 note=92 velocity=0 time=34
note_on channel=0 note=84 velocity=69 time=0
note_on channel=0 note=84 velocity=0 time=80
note_on channel=0 note=89 velocity=72 time=0
note_on channel=0 note=89 velocity=0 time=80
note_on channel=0 note=92 velocity=75 time=0
note_on channel=0 note=92 velocity=0 time=0
note_on channel=0 note=96 velocity=77 time=0
note_on channel=0 note=96 velocity=0 time=120
note_on channel=0 note=92 velocity=76 time=0
note_on channel=0 note=92 velocity=0 time=120
note_on channel=0 note=80 velocity=0 time=0
note_on channel=0 note=77 velocity=0 time=0
note_on channel=0 note=72 velocity=0 time=0
note_on channel=0 note=91 velocity=75 time=0
note_on channel=0 note=60 velocity=67 time=0
note_on channel=0 note=91 velocity=0 time=120
note_on channel=0 note=88 velocity=72 time=0
note_on channel=0 note=88 velocity=0 time=0
note_on channel=0 note=60 velocity=0 time=0
note_on channel=0 note=89 velocity=78 time=0
note_on channel=0 note=65 velocity=82 time=0
control_change channel=0 control=64 value=0 time=19
control_change channel=0 control=64 value=127 time=73
note_on channel=0 note=89 velocity=0 time=0
note_on channel=0 note=80 velocity=75 time=0
note_on channel=0 note=80 velocity=0 time=40
note_on channel=0 note=65 velocity=0 time=0
note_on channel=0 note=84 velocity=70 time=0
note_on channel=0 note=84 velocity=0 time=40
note_on channel=0 note=89 velocity=70 time=0
note_on channel=0 note=89 velocity=0 time=0
note_on channel=0 note=92 velocity=86 time=0
note_on channel=0 note=72 velocity=71 time=240
note_on channel=0 note=77 velocity=74 time=120
note_on channel=0 note=80 velocity=86 time=120
control_change channel=0 control=64 value=0 time=13
control_change channel=0 control=64 value=127 time=52
note_on channel=0 note=92 velocity=0 time=28
note_on channel=0 note=84 velocity=69 time=0
note_on channel=0 note=84 velocity=0 time=80
note_on channel=0 note=89 velocity=72 time=0
note_on channel=0 note=89 velocity=0 time=80
note_on channel=0 note=92 velocity=75 time=0
note_on channel=0 note=92 velocity=0 time=0
note_on channel=0 note=96 velocity=77 time=0
note_on channel=0 note=96 velocity=0 time=120
note_on channel=0 note=92 velocity=76 time=0
note_on channel=0 note=92 velocity=0 time=120
note_on channel=0 note=80 velocity=0 time=0
note_on channel=0 note=77 velocity=0 time=0
note_on channel=0 note=72 velocity=0 time=0
note_on channel=0 note=91 velocity=75 time=0
note_on channel=0 note=60 velocity=67 time=0
note_on channel=0 note=91 velocity=0 time=120
note_on channel=0 note=88 velocity=73 time=0
note_on channel=0 note=88 velocity=0 time=0
note_on channel=0 note=60 velocity=0 time=0
note_on channel=0 note=89 velocity=77 time=0
note_on channel=0 note=65 velocity=85 time=0
control_change channel=0 control=64 value=0 time=11
control_change channel=0 control=64 value=127 time=53
note_on channel=0 note=89 velocity=0 time=0
note_on channel=0 note=80 velocity=75 time=0
note_on channel=0 note=80 velocity=0 time=40
note_on channel=0 note=65 velocity=0 time=0
note_on channel=0 note=84 velocity=70 time=0
note_on channel=0 note=84 velocity=0 time=40
note_on channel=0 note=89 velocity=70 time=0
note_on channel=0 note=89 velocity=0 time=0
note_on channel=0 note=92 velocity=86 time=0
note_on channel=0 note=72 velocity=71 time=240
note_on channel=0 note=77 velocity=74 time=120
note_on channel=0 note=80 velocity=88 time=120
control_change channel=0 control=64 value=0 time=12
control_change channel=0 control=64 value=127 time=46
note_on channel=0 note=92 velocity=0 time=34
note_on channel=0 note=84 velocity=70 time=0
note_on channel=0 note=84 velocity=0 time=80
note_on channel=0 note=89 velocity=72 time=0
note_on channel=0 note=89 velocity=0 time=80
note_on channel=0 note=92 velocity=75 time=0
note_on channel=0 note=92 velocity=0 time=0
note_on channel=0 note=96 velocity=76 time=0
note_on channel=0 note=96 velocity=0 time=120
note_on channel=0 note=92 velocity=76 time=0
note_on channel=0 note=92 velocity=0 time=120
note_on channel=0 note=80 velocity=0 time=0
note_on channel=0 note=77 velocity=0 time=0
note_on channel=0 note=72 velocity=0 time=0
note_on channel=0 note=91 velocity=75 time=0
note_on channel=0 note=60 velocity=66 time=0
note_on channel=0 note=91 velocity=0 time=120
note_on channel=0 note=88 velocity=73 time=0
note_on channel=0 note=88 velocity=0 time=0
note_on channel=0 note=60 velocity=0 time=0
note_on channel=0 note=89 velocity=77 time=0
note_on channel=0 note=65 velocity=88 time=0
control_change channel=0 control=64 value=0 time=14
control_change channel=0 control=64 value=127 time=46
note_on channel=0 note=89 velocity=0 time=34
note_on channel=0 note=84 velocity=72 time=0
note_on channel=0 note=84 velocity=0 time=80
note_on channel=0 note=89 velocity=72 time=0
note_on channel=0 note=89 velocity=0 time=80
note_on channel=0 note=92 velocity=76 time=0
note_on channel=0 note=92 velocity=0 time=0
note_on channel=0 note=65 velocity=0 time=0
note_on channel=0 note=96 velocity=79 time=0
note_on channel=0 note=96 velocity=0 time=120
note_on channel=0 note=92 velocity=78 time=0
note_on channel=0 note=92 velocity=0 time=120
note_on channel=0 note=91 velocity=77 time=0
note_on channel=0 note=60 velocity=67 time=0
note_on channel=0 note=91 velocity=0 time=0
note_on channel=0 note=88 velocity=76 time=0
note_on channel=0 note=88 velocity=0 time=0
note_on channel=0 note=60 velocity=0 time=0
note_on channel=0 note=89 velocity=79 time=0
note_on channel=0 note=53 velocity=89 time=0
control_change channel=0 control=64 value=0 time=12
control_change channel=0 control=64 value=127 time=17
note_on channel=0 note=89 velocity=0 time=63
note_on channel=0 note=84 velocity=75 time=0
note_on channel=0 note=84 velocity=0 time=80
note_on channel=0 note=89 velocity=77 time=0
note_on channel=0 note=89 velocity=0 time=80
note_on channel=0 note=92 velocity=80 time=0
note_on channel=0 note=92 velocity=0 time=0
note_on channel=0 note=53 velocity=0 time=0
note_on channel=0 note=96 velocity=80 time=0
note_on channel=0 note=96 velocity=0 time=120
note_on channel=0 note=92 velocity=79 time=0
note_on channel=0 note=92 velocity=0 time=120
note_on channel=0 note=91 velocity=77 time=0
note_on channel=0 note=48 velocity=66 time=0
note_on channel=0 note=91 velocity=0 time=0
note_on channel=0 note=88 velocity=77 time=0
note_on channel=0 note=88 velocity=0 time=0
note_on channel=0 note=48 velocity=0 time=0
note_on channel=0 note=89 velocity=89 time=0
note_on channel=0 note=41 velocity=92 time=0
control_change channel=0 control=64 value=0 time=9
control_change channel=0 control=64 value=127 time=40
note_on channel=0 note=89 velocity=0 time=40
note_on channel=0 note=84 velocity=82 time=0
note_on channel=0 note=84 velocity=0 time=80
note_on channel=0 note=89 velocity=85 time=0
note_on channel=0 note=89 velocity=0 time=80
note_on channel=0 note=92 velocity=88 time=0
note_on channel=0 note=92 velocity=0 time=0
note_on channel=0 note=41 velocity=0 time=0
note_on channel=0 note=96 velocity=84 time=0
note_on channel=0 note=96 velocity=0 time=120
note_on channel=0 note=92 velocity=82 time=0
note_on channel=0 note=92 velocity=0 time=120
note_on channel=0 note=91 velocity=82 time=0
note_on channel=0 note=36 velocity=63 time=0
note_on channel=0 note=91 velocity=0 time=120
note_on channel=0 note=88 velocity=80 time=0
note_on channel=0 note=88 velocity=0 time=0
note_on channel=0 note=36 velocity=0 time=0
note_on channel=0 note=96 velocity=89 time=0
note_on channel=0 note=29 velocity=87 time=0
control_change channel=0 control=64 value=0 time=17
control_change channel=0 control=64 value=127 time=35
note_on channel=0 note=96 velocity=0 time=45
note_on channel=0 note=92 velocity=75 time=0
note_on channel=0 note=92 velocity=0 time=80
note_on channel=0 note=29 velocity=0 time=0
note_on channel=0 note=91 velocity=79 time=0
note_on channel=0 note=36 velocity=65 time=0
note_on channel=0 note=91 velocity=0 time=80
note_on channel=0 note=88 velocity=84 time=0
note_on channel=0 note=88 velocity=0 time=0
note_on channel=0 note=36 velocity=0 time=0
note_on channel=0 note=96 velocity=90 time=0
note_on channel=0 note=29 velocity=89 time=0
note_on channel=0 note=96 velocity=0 time=120
note_on channel=0 note=92 velocity=89 time=0
note_on channel=0 note=92 velocity=0 time=120
note_on channel=0 note=29 velocity=0 time=0
note_on channel=0 note=91 velocity=87 time=0
note_on channel=0 note=36 velocity=64 time=0
note_on channel=0 note=91 velocity=0 time=0
note_on channel=0 note=88 velocity=89 time=0
note_on channel=0 note=88 velocity=0 time=0
note_on channel=0 note=36 velocity=0 time=0
note_on channel=0 note=96 velocity=93 time=0
note_on channel=0 note=29 velocity=72 time=0
control_change channel=0 control=64 value=0 time=13
control_change channel=0 control=64 value=127 time=72
note_on channel=0 note=29 velocity=0 time=35
note_on channel=0 note=96 velocity=0 time=0
note_on channel=0 note=92 velocity=79 time=0
note_on channel=0 note=32 velocity=63 time=0
note_on channel=0 note=32 velocity=0 time=120
note_on channel=0 note=92 velocity=0 time=0
note_on channel=0 note=89 velocity=80 time=0
note_on channel=0 note=36 velocity=63 time=0
note_on channel=0 note=36 velocity=0 time=0
note_on channel=0 note=89 velocity=0 time=0
note_on channel=0 note=84 velocity=80 time=0
note_on channel=0 note=41 velocity=63 time=0
note_on channel=0 note=41 velocity=0 time=0
note_on channel=0 note=84 velocity=0 time=0
note_on channel=0 note=92 velocity=93 time=0
note_on channel=0 note=29 velocity=72 time=0
note_on channel=0 note=29 velocity=0 time=120
note_on channel=0 note=92 velocity=0 time=0
note_on channel=0 note=89 velocity=82 time=0
note_on channel=0 note=32 velocity=63 time=0
note_on channel=0 note=32 velocity=0 time=120
note_on channel=0 note=89 velocity=0 time=0
note_on channel=0 note=84 velocity=82 time=0
note_on channel=0 note=36 velocity=63 time=0
note_on channel=0 note=36 velocity=0 time=0
note_on channel=0 note=84 velocity=0 time=0
note_on channel=0 note=80 velocity=82 time=0
note_on channel=0 note=41 velocity=63 time=0
note_on channel=0 note=41 velocity=0 time=0
note_on channel=0 note=80 velocity=0 time=0
note_on channel=0 note=89 velocity=93 time=0
note_on channel=0 note=29 velocity=72 time=0
note_on channel=0 note=29 velocity=0 time=120
note_on channel=0 note=89 velocity=0 time=0
note_on channel=0 note=84 velocity=81 time=0
note_on channel=0 note=32 velocity=63 time=0
note_on channel=0 note=32 velocity=0 time=120
note_on channel=0 note=84 velocity=0 time=0
note_on channel=0 note=80 velocity=81 time=0
note_on channel=0 note=36 velocity=63 time=0
note_on channel=0 note=36 velocity=0 time=0
note_on channel=0 note=80 velocity=0 time=0
note_on channel=0 note=77 velocity=82 time=0
note_on channel=0 note=41 velocity=63 time=0
note_on channel=0 note=41 velocity=0 time=0
note_on channel=0 note=77 velocity=0 time=0
note_on channel=0 note=84 velocity=93 time=0
note_on channel=0 note=29 velocity=72 time=0
note_on channel=0 note=29 velocity=0 time=120
note_on channel=0 note=84 velocity=0 time=0
note_on channel=0 note=80 velocity=81 time=0
note_on channel=0 note=32 velocity=63 time=0
note_on channel=0 note=32 velocity=0 time=120
note_on channel=0 note=80 velocity=0 time=0
note_on channel=0 note=77 velocity=81 time=0
note_on channel=0 note=36 velocity=63 time=0
note_on channel=0 note=36 velocity=0 time=0
note_on channel=0 note=77 velocity=0 time=0
note_on channel=0 note=72 velocity=81 time=0
note_on channel=0 note=41 velocity=63 time=0
note_on channel=0 note=41 velocity=0 time=0
note_on channel=0 note=72 velocity=0 time=0
note_on channel=0 note=80 velocity=93 time=0
note_on channel=0 note=29 velocity=72 time=0
note_on channel=0 note=29 velocity=0 time=120
note_on channel=0 note=80 velocity=0 time=0
note_on channel=0 note=77 velocity=80 time=0
note_on channel=0 note=32 velocity=63 time=0
note_on channel=0 note=32 velocity=0 time=120
note_on channel=0 note=77 velocity=0 time=0
note_on channel=0 note=72 velocity=80 time=0
note_on channel=0 note=36 velocity=63 time=0
note_on channel=0 note=36 velocity=0 time=0
note_on channel=0 note=72 velocity=0 time=0
note_on channel=0 note=68 velocity=80 time=0
note_on channel=0 note=41 velocity=63 time=0
note_on channel=0 note=41 velocity=0 time=0
note_on channel=0 note=68 velocity=0 time=0
note_on channel=0 note=77 velocity=93 time=0
note_on channel=0 note=29 velocity=72 time=0
note_on channel=0 note=29 velocity=0 time=120
note_on channel=0 note=77 velocity=0 time=0
note_on channel=0 note=72 velocity=82 time=0
note_on channel=0 note=32 velocity=63 time=0
note_on channel=0 note=32 velocity=0 time=120
note_on channel=0 note=72 velocity=0 time=0
note_on channel=0 note=68 velocity=81 time=0
note_on channel=0 note=36 velocity=63 time=0
note_on channel=0 note=36 velocity=0 time=0
note_on channel=0 note=68 velocity=0 time=0
note_on channel=0 note=65 velocity=81 time=0
note_on channel=0 note=41 velocity=63 time=0
note_on channel=0 note=41 velocity=0 time=0
note_on channel=0 note=65 velocity=0 time=0
note_on channel=0 note=72 velocity=93 time=0
note_on channel=0 note=29 velocity=72 time=0
note_on channel=0 note=29 velocity=0 time=120
note_on channel=0 note=72 velocity=0 time=0
note_on channel=0 note=68 velocity=80 time=0
note_on channel=0 note=32 velocity=63 time=0
note_on channel=0 note=32 velocity=0 time=120
note_on channel=0 note=68 velocity=0 time=0
note_on channel=0 note=65 velocity=80 time=0
note_on channel=0 note=36 velocity=63 time=0
note_on channel=0 note=36 velocity=0 time=0
note_on channel=0 note=65 velocity=0 time=0
note_on channel=0 note=60 velocity=80 time=0
note_on channel=0 note=41 velocity=63 time=0
note_on channel=0 note=41 velocity=0 time=0
note_on channel=0 note=60 velocity=0 time=0
note_on channel=0 note=68 velocity=93 time=0
note_on channel=0 note=29 velocity=72 time=0
note_on channel=0 note=29 velocity=0 time=120
note_on channel=0 note=68 velocity=0 time=0
note_on channel=0 note=65 velocity=80 time=0
note_on channel=0 note=32 velocity=63 time=0
note_on channel=0 note=32 velocity=0 time=120
note_on channel=0 note=65 velocity=0 time=0
note_on channel=0 note=60 velocity=81 time=0
note_on channel=0 note=36 velocity=63 time=0
note_on channel=0 note=36 velocity=0 time=0
note_on channel=0 note=60 velocity=0 time=0
note_on channel=0 note=56 velocity=81 time=0
note_on channel=0 note=41 velocity=63 time=0
note_on channel=0 note=41 velocity=0 time=0
note_on channel=0 note=56 velocity=0 time=0
note_on channel=0 note=65 velocity=93 time=0
note_on channel=0 note=29 velocity=72 time=0
note_on channel=0 note=29 velocity=0 time=120
note_on channel=0 note=65 velocity=0 time=0
note_on channel=0 note=60 velocity=81 time=0
note_on channel=0 note=32 velocity=63 time=0
note_on channel=0 note=32 velocity=0 time=120
note_on channel=0 note=60 velocity=0 time=0
note_on channel=0 note=56 velocity=81 time=0
note_on channel=0 note=36 velocity=63 time=0
note_on channel=0 note=36 velocity=0 time=0
note_on channel=0 note=56 velocity=0 time=0
note_on channel=0 note=53 velocity=81 time=0
note_on channel=0 note=41 velocity=63 time=0
note_on channel=0 note=41 velocity=0 time=0
note_on channel=0 note=53 velocity=0 time=0
note_on channel=0 note=60 velocity=93 time=0
note_on channel=0 note=29 velocity=72 time=0
note_on channel=0 note=29 velocity=0 time=120
note_on channel=0 note=60 velocity=0 time=0
note_on channel=0 note=56 velocity=81 time=0
note_on channel=0 note=32 velocity=63 time=0
note_on channel=0 note=32 velocity=0 time=120
note_on channel=0 note=56 velocity=0 time=0
note_on channel=0 note=53 velocity=81 time=0
note_on channel=0 note=36 velocity=63 time=0
note_on channel=0 note=36 velocity=0 time=0
note_on channel=0 note=53 velocity=0 time=0
note_on channel=0 note=48 velocity=81 time=0
note_on channel=0 note=41 velocity=63 time=0
note_on channel=0 note=41 velocity=0 time=0
note_on channel=0 note=48 velocity=0 time=0
note_on channel=0 note=56 velocity=93 time=0
note_on channel=0 note=29 velocity=72 time=0
note_on channel=0 note=29 velocity=0 time=120
note_on channel=0 note=56 velocity=0 time=0
note_on channel=0 note=53 velocity=81 time=0
note_on channel=0 note=32 velocity=63 time=0
note_on channel=0 note=32 velocity=0 time=120
note_on channel=0 note=53 velocity=0 time=0
note_on channel=0 note=48 velocity=81 time=0
note_on channel=0 note=36 velocity=63 time=0
note_on channel=0 note=36 velocity=0 time=0
note_on channel=0 note=48 velocity=0 time=0
note_on channel=0 note=44 velocity=81 time=0
note_on channel=0 note=41 velocity=63 time=0
note_on channel=0 note=41 velocity=0 time=0
note_on channel=0 note=44 velocity=0 time=0
note_on channel=0 note=53 velocity=93 time=0
note_on channel=0 note=29 velocity=72 time=0
note_on channel=0 note=29 velocity=0 time=120
note_on channel=0 note=53 velocity=0 time=0
note_on channel=0 note=48 velocity=85 time=0
note_on channel=0 note=32 velocity=63 time=0
note_on channel=0 note=32 velocity=0 time=120
note_on channel=0 note=48 velocity=0 time=0
note_on channel=0 note=44 velocity=80 time=0
note_on channel=0 note=36 velocity=63 time=0
note_on channel=0 note=36 velocity=0 time=0
note_on channel=0 note=44 velocity=0 time=0
note_on channel=0 note=48 velocity=80 time=0
note_on channel=0 note=41 velocity=63 time=0
note_on channel=0 note=41 velocity=0 time=0
note_on channel=0 note=48 velocity=0 time=0
note_on channel=0 note=41 velocity=90 time=0
note_on channel=0 note=44 velocity=90 time=0
note_on channel=0 note=48 velocity=90 time=0
note_on channel=0 note=53 velocity=106 time=0
note_on channel=0 note=29 velocity=69 time=0
note_on channel=0 note=32 velocity=69 time=0
note_on channel=0 note=36 velocity=69 time=0
note_on channel=0 note=41 velocity=81 time=0
control_change channel=0 control=64 value=0 time=17
control_change channel=0 control=64 value=127 time=124
note_on channel=0 note=41 velocity=0 time=99
note_on channel=0 note=41 velocity=0 time=0
note_on channel=0 note=29 velocity=0 time=0
note_on channel=0 note=44 velocity=0 time=0
note_on channel=0 note=48 velocity=0 time=0
note_on channel=0 note=53 velocity=0 time=0
note_on channel=0 note=32 velocity=0 time=0
note_on channel=0 note=36 velocity=0 time=0
control_change channel=0 control=64 value=0 time=254
note_on channel=0 note=65 velocity=94 time=0
note_on channel=0 note=68 velocity=94 time=0
note_on channel=0 note=72 velocity=94 time=0
note_on channel=0 note=77 velocity=111 time=0
note_on channel=0 note=29 velocity=72 time=0
note_on channel=0 note=32 velocity=72 time=0
note_on channel=0 note=36 velocity=72 time=0
note_on channel=0 note=41 velocity=85 time=0
control_change channel=0 control=64 value=127 time=14
note_on channel=0 note=41 velocity=0 time=226
note_on channel=0 note=65 velocity=0 time=0
note_on channel=0 note=29 velocity=0 time=0
note_on channel=0 note=68 velocity=0 time=0
note_on channel=0 note=72 velocity=0 time=0
note_on channel=0 note=77 velocity=0 time=0
note_on channel=0 note=32 velocity=0 time=0
note_on channel=0 note=36 velocity=0 time=0
control_change channel=0 control=64 value=0 time=254
note_on channel=0 note=53 velocity=94 time=0
note_on channel=0 note=56 velocity=94 time=0
note_on channel=0 note=60 velocity=94 time=0
note_on channel=0 note=65 velocity=111 time=0
note_on channel=0 note=29 velocity=72 time=0
note_on channel=0 note=32 velocity=72 time=0
note_on channel=0 note=36 velocity=72 time=0
note_on channel=0 note=41 velocity=85 time=0
control_change channel=0 control=64 value=127 time=85
note_on channel=0 note=41 velocity=0 time=155
note_on channel=0 note=53 velocity=0 time=0
note_on channel=0 note=29 velocity=0 time=0
note_on channel=0 note=56 velocity=0 time=0
note_on channel=0 note=60 velocity=0 time=0
note_on channel=0 note=65 velocity=0 time=0
note_on channel=0 note=32 velocity=0 time=0
note_on channel=0 note=36 velocity=0 time=0
control_change channel=0 control=64 value=0 time=184
