control_change channel=0 control=7 value=100 time=0
control_change channel=0 control=10 value=64 time=0
note_on channel=0 note=49 velocity=39 time=0
note_on channel=0 note=53 velocity=39 time=0
note_on channel=0 note=56 velocity=47 time=0
control_change channel=0 control=91 value=127 time=0
control_change channel=0 control=7 value=100 time=0
control_change channel=0 control=10 value=64 time=0
note_on channel=0 note=37 velocity=47 time=0
control_change channel=0 control=64 value=127 time=0
note_on channel=0 note=37 velocity=0 time=0
note_on channel=0 note=49 velocity=0 time=0
note_on channel=0 note=53 velocity=0 time=0
note_on channel=0 note=56 velocity=0 time=0
note_on channel=0 note=49 velocity=37 time=0
note_on channel=0 note=58 velocity=44 time=0
note_on channel=0 note=54 velocity=44 time=0
note_on channel=0 note=30 velocity=35 time=0
control_change channel=0 control=64 value=0 time=14
control_change channel=0 control=64 value=127 time=306
note_on channel=0 note=30 velocity=0 time=0
note_on channel=0 note=49 velocity=0 time=0
note_on channel=0 note=58 velocity=0 time=0
note_on channel=0 note=54 velocity=0 time=0
note_on channel=0 note=49 velocity=37 time=0
note_on channel=0 note=53 velocity=37 time=0
note_on channel=0 note=56 velocity=44 time=0
note_on channel=0 note=37 velocity=37 time=0
control_change channel=0 control=64 value=0 time=14
control_change channel=0 control=64 value=127 time=138
note_on channel=0 note=37 velocity=0 time=0
note_on channel=0 note=49 velocity=0 time=0
note_on channel=0 note=53 velocity=0 time=0
note_on channel=0 note=56 velocity=0 time=0
note_on channel=0 note=58 velocity=44 time=0
note_on channel=0 note=51 velocity=37 time=0
note_on channel=0 note=49 velocity=37 time=0
note_on channel=0 note=30 velocity=35 time=0
control_change channel=0 control=64 value=0 time=13
note_on channel=0 note=30 velocity=0 time=0
note_on channel=0 note=58 velocity=0 time=0
note_on channel=0 note=51 velocity=0 time=0
note_on channel=0 note=49 velocity=0 time=0
note_on channel=0 note=49 velocity=39 time=0
note_on channel=0 note=51 velocity=39 time=0
note_on channel=0 note=56 velocity=47 time=0
note_on channel=0 note=32 velocity=40 time=0
control_change channel=0 control=64 value=127 time=71
note_on channel=0 note=32 velocity=0 time=0
note_on channel=0 note=49 velocity=0 time=0
note_on channel=0 note=51 velocity=0 time=0
note_on channel=0 note=56 velocity=0 time=0
note_on channel=0 note=56 velocity=46 time=0
note_on channel=0 note=48 velocity=38 time=0
note_on channel=0 note=51 velocity=38 time=0
note_on channel=0 note=44 velocity=40 time=0
control_change channel=0 control=64 value=0 time=14
control_change channel=0 control=64 value=127 time=71
note_on channel=0 note=44 velocity=0 time=335
note_on channel=0 note=42 velocity=36 time=0
note_on channel=0 note=42 velocity=0 time=0
note_on channel=0 note=51 velocity=0 time=0
note_on channel=0 note=48 velocity=0 time=0
note_on channel=0 note=56 velocity=0 time=0
note_on channel=0 note=49 velocity=39 time=0
note_on channel=0 note=53 velocity=39 time=0
note_on channel=0 note=56 velocity=47 time=0
note_on channel=0 note=41 velocity=43 time=0
control_change channel=0 control=64 value=0 time=11
control_change channel=0 control=64 value=127 time=88
note_on channel=0 note=41 velocity=0 time=0
note_on channel=0 note=42 velocity=36 time=0
note_on channel=0 note=42 velocity=0 time=0
note_on channel=0 note=44 velocity=41 time=0
control_change channel=0 control=64 value=0 time=14
control_change channel=0 control=64 value=127 time=78
note_on channel=0 note=44 velocity=0 time=88
note_on channel=0 note=42 velocity=37 time=0
note_on channel=0 note=42 velocity=0 time=0
note_on channel=0 note=41 velocity=40 time=0
control_change channel=0 control=64 value=0 time=14
control_change channel=0 control=64 value=127 time=74
note_on channel=0 note=41 velocity=0 time=60
note_on channel=0 note=39 velocity=40 time=0
note_on channel=0 note=39 velocity=0 time=0
note_on channel=0 note=56 velocity=0 time=0
note_on channel=0 note=53 velocity=0 time=0
note_on channel=0 note=49 velocity=0 time=0
note_on channel=0 note=61 velocity=54 time=0
note_on channel=0 note=56 velocity=45 time=0
note_on channel=0 note=53 velocity=45 time=0
note_on channel=0 note=37 velocity=39 time=0
note_on channel=0 note=49 velocity=46 time=0
control_change channel=0 control=64 value=0 time=12
control_change channel=0 control=64 value=127 time=175
note_on channel=0 note=49 velocity=0 time=0
note_on channel=0 note=53 velocity=0 time=0
note_on channel=0 note=61 velocity=0 time=0
note_on channel=0 note=56 velocity=0 time=0
note_on channel=0 note=37 velocity=0 time=0
note_on channel=0 note=54 velocity=47 time=0
note_on channel=0 note=58 velocity=47 time=0
note_on channel=0 note=61 velocity=56 time=0
note_on channel=0 note=42 velocity=48 time=0
note_on channel=0 note=30 velocity=40 time=0
control_change channel=0 control=64 value=0 time=17
control_change channel=0 control=64 value=127 time=223
note_on channel=0 note=30 velocity=0 time=0
note_on channel=0 note=61 velocity=0 time=0
note_on channel=0 note=54 velocity=0 time=0
note_on channel=0 note=58 velocity=0 time=0
note_on channel=0 note=42 velocity=0 time=0
note_on channel=0 note=56 velocity=36 time=0
note_on channel=0 note=53 velocity=36 time=0
note_on channel=0 note=61 velocity=44 time=0
note_on channel=0 note=37 velocity=27 time=0
note_on channel=0 note=49 velocity=32 time=0
control_change channel=0 control=64 value=0 time=17
control_change channel=0 control=64 value=127 time=98
note_on channel=0 note=49 velocity=0 time=240
note_on channel=0 note=61 velocity=0 time=0
note_on channel=0 note=56 velocity=0 time=0
note_on channel=0 note=53 velocity=0 time=0
note_on channel=0 note=37 velocity=0 time=0
note_on channel=0 note=52 velocity=37 time=0
note_on channel=0 note=61 velocity=44 time=0
note_on channel=0 note=55 velocity=37 time=0
note_on channel=0 note=33 velocity=30 time=0
note_on channel=0 note=45 velocity=36 time=0
control_change channel=0 control=64 value=0 time=10
note_on channel=0 note=45 velocity=0 time=230
note_on channel=0 note=55 velocity=0 time=0
note_on channel=0 note=52 velocity=0 time=0
note_on channel=0 note=61 velocity=0 time=0
note_on channel=0 note=33 velocity=0 time=0
note_on channel=0 note=54 velocity=39 time=0
note_on channel=0 note=51 velocity=39 time=0
note_on channel=0 note=61 velocity=47 time=0
note_on channel=0 note=32 velocity=31 time=0
note_on channel=0 note=44 velocity=37 time=0
control_change channel=0 control=64 value=127 time=160
note_on channel=0 note=44 velocity=0 time=0
note_on channel=0 note=61 velocity=0 time=0
note_on channel=0 note=54 velocity=0 time=0
note_on channel=0 note=51 velocity=0 time=0
note_on channel=0 note=32 velocity=0 time=0
note_on channel=0 note=51 velocity=37 time=0
note_on channel=0 note=60 velocity=43 time=0
note_on channel=0 note=54 velocity=37 time=0
note_on channel=0 note=44 velocity=34 time=0
control_change channel=0 control=64 value=0 time=18
control_change channel=0 control=64 value=127 time=222
note_on channel=0 note=54 velocity=0 time=0
note_on channel=0 note=51 velocity=0 time=0
note_on channel=0 note=60 velocity=0 time=0
note_on channel=0 note=49 velocity=37 time=0
note_on channel=0 note=53 velocity=37 time=0
note_on channel=0 note=61 velocity=43 time=0
control_change channel=0 control=64 value=0 time=13
control_change channel=0 control=64 value=127 time=47
note_on channel=0 note=44 velocity=0 time=120
note_on channel=0 note=42 velocity=28 time=0
note_on channel=0 note=42 velocity=0 time=40
note_on channel=0 note=41 velocity=32 time=0
control_change channel=0 control=64 value=0 time=14
control_change channel=0 control=64 value=127 time=39
note_on channel=0 note=41 velocity=0 time=0
note_on channel=0 note=39 velocity=27 time=0
note_on channel=0 note=39 velocity=0 time=0
note_on channel=0 note=37 velocity=27 time=0
control_change channel=0 control=64 value=0 time=11
control_change channel=0 control=64 value=127 time=42
note_on channel=0 note=37 velocity=0 time=187
note_on channel=0 note=49 velocity=0 time=0
note_on channel=0 note=53 velocity=0 time=0
note_on channel=0 note=61 velocity=0 time=0
control_change channel=0 control=64 value=0 time=32
note_on channel=0 note=49 velocity=39 time=0
note_on channel=0 note=53 velocity=39 time=0
note_on channel=0 note=56 velocity=47 time=0
note_on channel=0 note=37 velocity=47 time=0
control_change channel=0 control=64 value=127 time=0
note_on channel=0 note=37 velocity=0 time=0
note_on channel=0 note=49 velocity=0 time=0
note_on channel=0 note=53 velocity=0 time=0
note_on channel=0 note=56 velocity=0 time=0
note_on channel=0 note=49 velocity=37 time=0
note_on channel=0 note=54 velocity=44 time=0
note_on channel=0 note=58 velocity=44 time=0
note_on channel=0 note=30 velocity=35 time=0
control_change channel=0 control=64 value=0 time=14
control_change channel=0 control=64 value=127 time=306
note_on channel=0 note=30 velocity=0 time=0
note_on channel=0 note=49 velocity=0 time=0
note_on channel=0 note=54 velocity=0 time=0
note_on channel=0 note=58 velocity=0 time=0
note_on channel=0 note=49 velocity=37 time=0
note_on channel=0 note=53 velocity=37 time=0
note_on channel=0 note=56 velocity=44 time=0
note_on channel=0 note=37 velocity=37 time=0
control_change channel=0 control=64 value=0 time=14
control_change channel=0 control=64 value=127 time=138
note_on channel=0 note=37 velocity=0 time=0
note_on channel=0 note=49 velocity=0 time=0
note_on channel=0 note=53 velocity=0 time=0
note_on channel=0 note=56 velocity=0 time=0
note_on channel=0 note=49 velocity=37 time=0
note_on channel=0 note=51 velocity=37 time=0
note_on channel=0 note=58 velocity=44 time=0
note_on channel=0 note=30 velocity=35 time=0
control_change channel=0 control=64 value=0 time=13
note_on channel=0 note=30 velocity=0 time=0
note_on channel=0 note=49 velocity=0 time=0
note_on channel=0 note=51 velocity=0 time=0
note_on channel=0 note=58 velocity=0 time=0
note_on channel=0 note=49 velocity=39 time=0
note_on channel=0 note=51 velocity=39 time=0
note_on channel=0 note=56 velocity=47 time=0
note_on channel=0 note=32 velocity=40 time=0
control_change channel=0 control=64 value=127 time=71
note_on channel=0 note=32 velocity=0 time=0
note_on channel=0 note=49 velocity=0 time=0
note_on channel=0 note=51 velocity=0 time=0
note_on channel=0 note=56 velocity=0 time=0
note_on channel=0 note=48 velocity=38 time=0
note_on channel=0 note=51 velocity=38 time=0
note_on channel=0 note=56 velocity=46 time=0
note_on channel=0 note=44 velocity=40 time=0
control_change channel=0 control=64 value=0 time=14
control_change channel=0 control=64 value=127 time=71
note_on channel=0 note=44 velocity=0 time=335
note_on channel=0 note=42 velocity=36 time=0
note_on channel=0 note=42 velocity=0 time=0
note_on channel=0 note=56 velocity=0 time=0
note_on channel=0 note=51 velocity=0 time=0
note_on channel=0 note=48 velocity=0 time=0
note_on channel=0 note=49 velocity=39 time=0
note_on channel=0 note=53 velocity=39 time=0
note_on channel=0 note=56 velocity=47 time=0
note_on channel=0 note=41 velocity=43 time=0
control_change channel=0 control=64 value=0 time=11
control_change channel=0 control=64 value=127 time=88
note_on channel=0 note=41 velocity=0 time=0
note_on channel=0 note=42 velocity=36 time=0
note_on channel=0 note=42 velocity=0 time=0
note_on channel=0 note=44 velocity=41 time=0
control_change channel=0 control=64 value=0 time=14
control_change channel=0 control=64 value=127 time=78
note_on channel=0 note=44 velocity=0 time=88
note_on channel=0 note=42 velocity=37 time=0
note_on channel=0 note=42 velocity=0 time=0
note_on channel=0 note=41 velocity=40 time=0
control_change channel=0 control=64 value=0 time=14
control_change channel=0 control=64 value=127 time=74
note_on channel=0 note=41 velocity=0 time=60
note_on channel=0 note=39 velocity=40 time=0
note_on channel=0 note=39 velocity=0 time=0
note_on channel=0 note=56 velocity=0 time=0
note_on channel=0 note=53 velocity=0 time=0
note_on channel=0 note=49 velocity=0 time=0
note_on channel=0 note=53 velocity=45 time=0
note_on channel=0 note=56 velocity=45 time=0
note_on channel=0 note=61 velocity=54 time=0
note_on channel=0 note=37 velocity=39 time=0
note_on channel=0 note=49 velocity=46 time=0
control_change channel=0 control=64 value=0 time=12
control_change channel=0 control=64 value=127 time=175
note_on channel=0 note=49 velocity=0 time=0
note_on channel=0 note=61 velocity=0 time=0
note_on channel=0 note=53 velocity=0 time=0
note_on channel=0 note=56 velocity=0 time=0
note_on channel=0 note=37 velocity=0 time=0
note_on channel=0 note=54 velocity=47 time=0
note_on channel=0 note=58 velocity=47 time=0
note_on channel=0 note=61 velocity=56 time=0
note_on channel=0 note=30 velocity=40 time=0
note_on channel=0 note=42 velocity=48 time=0
control_change channel=0 control=64 value=0 time=17
control_change channel=0 control=64 value=127 time=223
note_on channel=0 note=42 velocity=0 time=0
note_on channel=0 note=61 velocity=0 time=0
note_on channel=0 note=54 velocity=0 time=0
note_on channel=0 note=58 velocity=0 time=0
note_on channel=0 note=30 velocity=0 time=0
note_on channel=0 note=53 velocity=34 time=0
note_on channel=0 note=56 velocity=34 time=0
note_on channel=0 note=61 velocity=41 time=0
note_on channel=0 note=37 velocity=25 time=0
note_on channel=0 note=49 velocity=30 time=0
control_change channel=0 control=64 value=0 time=17
control_change channel=0 control=64 value=127 time=98
note_on channel=0 note=49 velocity=0 time=240
note_on channel=0 note=61 velocity=0 time=0
note_on channel=0 note=53 velocity=0 time=0
note_on channel=0 note=56 velocity=0 time=0
note_on channel=0 note=37 velocity=0 time=0
note_on channel=0 note=52 velocity=37 time=0
note_on channel=0 note=55 velocity=37 time=0
note_on channel=0 note=61 velocity=44 time=0
note_on channel=0 note=33 velocity=30 time=0
note_on channel=0 note=45 velocity=36 time=0
control_change channel=0 control=64 value=0 time=10
note_on channel=0 note=45 velocity=0 time=230
note_on channel=0 note=61 velocity=0 time=0
note_on channel=0 note=52 velocity=0 time=0
note_on channel=0 note=55 velocity=0 time=0
note_on channel=0 note=33 velocity=0 time=0
note_on channel=0 note=51 velocity=39 time=0
note_on channel=0 note=54 velocity=39 time=0
note_on channel=0 note=61 velocity=47 time=0
note_on channel=0 note=32 velocity=31 time=0
note_on channel=0 note=44 velocity=37 time=0
control_change channel=0 control=64 value=127 time=160
note_on channel=0 note=44 velocity=0 time=0
note_on channel=0 note=61 velocity=0 time=0
note_on channel=0 note=51 velocity=0 time=0
note_on channel=0 note=54 velocity=0 time=0
note_on channel=0 note=32 velocity=0 time=0
note_on channel=0 note=51 velocity=37 time=0
note_on channel=0 note=54 velocity=37 time=0
note_on channel=0 note=60 velocity=43 time=0
note_on channel=0 note=44 velocity=34 time=0
control_change channel=0 control=64 value=0 time=18
control_change channel=0 control=64 value=127 time=222
note_on channel=0 note=60 velocity=0 time=0
note_on channel=0 note=51 velocity=0 time=0
note_on channel=0 note=54 velocity=0 time=0
note_on channel=0 note=49 velocity=37 time=0
note_on channel=0 note=53 velocity=37 time=0
note_on channel=0 note=61 velocity=43 time=0
control_change channel=0 control=64 value=0 time=13
control_change channel=0 control=64 value=127 time=47
note_on channel=0 note=44 velocity=0 time=120
note_on channel=0 note=42 velocity=28 time=0
note_on channel=0 note=42 velocity=0 time=40
note_on channel=0 note=41 velocity=31 time=0
control_change channel=0 control=64 value=0 time=14
control_change channel=0 control=64 value=127 time=39
note_on channel=0 note=41 velocity=0 time=0
note_on channel=0 note=39 velocity=27 time=0
note_on channel=0 note=39 velocity=0 time=0
note_on channel=0 note=37 velocity=27 time=0
control_change channel=0 control=64 value=0 time=11
control_change channel=0 control=64 value=127 time=42
note_on channel=0 note=37 velocity=0 time=187
note_on channel=0 note=49 velocity=0 time=0
note_on channel=0 note=53 velocity=0 time=0
note_on channel=0 note=61 velocity=0 time=0
control_change channel=0 control=64 value=0 time=32
note_on channel=0 note=48 velocity=39 time=0
note_on channel=0 note=51 velocity=39 time=0
note_on channel=0 note=56 velocity=47 time=0
note_on channel=0 note=42 velocity=40 time=0
note_on channel=0 note=44 velocity=40 time=0
control_change channel=0 control=64 value=127 time=0
note_on channel=0 note=44 velocity=0 time=0
note_on channel=0 note=56 velocity=0 time=0
note_on channel=0 note=48 velocity=0 time=0
note_on channel=0 note=51 velocity=0 time=0
note_on channel=0 note=42 velocity=0 time=0
note_on channel=0 note=48 velocity=37 time=0
note_on channel=0 note=54 velocity=44 time=0
note_on channel=0 note=56 velocity=44 time=0
note_on channel=0 note=39 velocity=35 time=0
note_on channel=0 note=44 velocity=35 time=0
control_change channel=0 control=64 value=0 time=15
control_change channel=0 control=64 value=127 time=149
note_on channel=0 note=44 velocity=0 time=60
note_on channel=0 note=56 velocity=0 time=0
note_on channel=0 note=48 velocity=0 time=0
note_on channel=0 note=54 velocity=0 time=0
note_on channel=0 note=39 velocity=0 time=0
note_on channel=0 note=48 velocity=37 time=0
note_on channel=0 note=51 velocity=44 time=0
note_on channel=0 note=56 velocity=44 time=0
note_on channel=0 note=42 velocity=35 time=0
note_on channel=0 note=44 velocity=35 time=0
note_on channel=0 note=44 velocity=0 time=0
note_on channel=0 note=56 velocity=0 time=0
note_on channel=0 note=48 velocity=0 time=0
note_on channel=0 note=51 velocity=0 time=0
note_on channel=0 note=42 velocity=0 time=0
note_on channel=0 note=49 velocity=39 time=0
note_on channel=0 note=53 velocity=39 time=0
note_on channel=0 note=56 velocity=47 time=0
note_on channel=0 note=41 velocity=33 time=0
note_on channel=0 note=44 velocity=39 time=0
control_change channel=0 control=64 value=0 time=19
control_change channel=0 control=64 value=127 time=108
note_on channel=0 note=44 velocity=0 time=0
note_on channel=0 note=56 velocity=0 time=0
note_on channel=0 note=49 velocity=0 time=0
note_on channel=0 note=53 velocity=0 time=0
note_on channel=0 note=41 velocity=0 time=0
note_on channel=0 note=53 velocity=45 time=0
note_on channel=0 note=56 velocity=45 time=0
note_on channel=0 note=61 velocity=53 time=0
note_on channel=0 note=37 velocity=39 time=0
note_on channel=0 note=44 velocity=46 time=0
note_on channel=0 note=44 velocity=0 time=0
note_on channel=0 note=61 velocity=0 time=0
note_on channel=0 note=53 velocity=0 time=0
note_on channel=0 note=56 velocity=0 time=0
note_on channel=0 note=37 velocity=0 time=0
note_on channel=0 note=56 velocity=41 time=0
note_on channel=0 note=54 velocity=41 time=0
note_on channel=0 note=60 velocity=49 time=0
note_on channel=0 note=39 velocity=37 time=0
note_on channel=0 note=44 velocity=44 time=0
control_change channel=0 control=64 value=0 time=17
control_change channel=0 control=64 value=127 time=89
note_on channel=0 note=44 velocity=0 time=0
note_on channel=0 note=60 velocity=0 time=0
note_on channel=0 note=56 velocity=0 time=0
note_on channel=0 note=54 velocity=0 time=0
note_on channel=0 note=39 velocity=0 time=0
note_on channel=0 note=53 velocity=31 time=0
note_on channel=0 note=56 velocity=31 time=0
note_on channel=0 note=61 velocity=37 time=0
note_on channel=0 note=37 velocity=28 time=0
note_on channel=0 note=44 velocity=34 time=0
control_change channel=0 control=64 value=0 time=16
control_change channel=0 control=64 value=127 time=76
note_on channel=0 note=44 velocity=0 time=0
note_on channel=0 note=61 velocity=0 time=0
note_on channel=0 note=53 velocity=0 time=0
note_on channel=0 note=56 velocity=0 time=0
note_on channel=0 note=37 velocity=0 time=0
note_on channel=0 note=48 velocity=39 time=0
note_on channel=0 note=51 velocity=39 time=0
note_on channel=0 note=56 velocity=47 time=0
note_on channel=0 note=42 velocity=40 time=0
note_on channel=0 note=44 velocity=40 time=0
control_change channel=0 control=64 value=0 time=11
control_change channel=0 control=64 value=127 time=65
note_on channel=0 note=44 velocity=0 time=0
note_on channel=0 note=56 velocity=0 time=0
note_on channel=0 note=48 velocity=0 time=0
note_on channel=0 note=51 velocity=0 time=0
note_on channel=0 note=42 velocity=0 time=0
note_on channel=0 note=48 velocity=37 time=0
note_on channel=0 note=54 velocity=44 time=0
note_on channel=0 note=56 velocity=44 time=0
note_on channel=0 note=39 velocity=35 time=0
note_on channel=0 note=44 velocity=35 time=0
control_change channel=0 control=64 value=0 time=19
control_change channel=0 control=64 value=127 time=85
note_on channel=0 note=44 velocity=0 time=60
note_on channel=0 note=56 velocity=0 time=0
note_on channel=0 note=48 velocity=0 time=0
note_on channel=0 note=54 velocity=0 time=0
note_on channel=0 note=39 velocity=0 time=0
note_on channel=0 note=48 velocity=37 time=0
note_on channel=0 note=51 velocity=44 time=0
note_on channel=0 note=56 velocity=44 time=0
note_on channel=0 note=42 velocity=35 time=0
note_on channel=0 note=44 velocity=35 time=0
note_on channel=0 note=44 velocity=0 time=0
note_on channel=0 note=56 velocity=0 time=0
note_on channel=0 note=48 velocity=0 time=0
note_on channel=0 note=51 velocity=0 time=0
note_on channel=0 note=42 velocity=0 time=0
note_on channel=0 note=49 velocity=39 time=0
note_on channel=0 note=53 velocity=39 time=0
note_on channel=0 note=56 velocity=47 time=0
note_on channel=0 note=41 velocity=33 time=0
note_on channel=0 note=44 velocity=39 time=0
control_change channel=0 control=64 value=0 time=11
control_change channel=0 control=64 value=127 time=53
note_on channel=0 note=44 velocity=0 time=0
note_on channel=0 note=56 velocity=0 time=0
note_on channel=0 note=49 velocity=0 time=0
note_on channel=0 note=53 velocity=0 time=0
note_on channel=0 note=41 velocity=0 time=0
note_on channel=0 note=53 velocity=45 time=0
note_on channel=0 note=56 velocity=45 time=0
note_on channel=0 note=65 velocity=55 time=0
note_on channel=0 note=37 velocity=39 time=0
note_on channel=0 note=44 velocity=46 time=0
note_on channel=0 note=44 velocity=0 time=0
note_on channel=0 note=65 velocity=0 time=0
note_on channel=0 note=53 velocity=0 time=0
note_on channel=0 note=56 velocity=0 time=0
note_on channel=0 note=37 velocity=0 time=0
note_on channel=0 note=56 velocity=45 time=0
note_on channel=0 note=54 velocity=45 time=0
note_on channel=0 note=65 velocity=58 time=0
note_on channel=0 note=36 velocity=37 time=0
note_on channel=0 note=44 velocity=44 time=0
control_change channel=0 control=64 value=0 time=16
control_change channel=0 control=64 value=127 time=83
note_on channel=0 note=65 velocity=0 time=0
note_on channel=0 note=63 velocity=51 time=0
note_on channel=0 note=63 velocity=0 time=0
note_on channel=0 note=44 velocity=0 time=0
note_on channel=0 note=56 velocity=0 time=0
note_on channel=0 note=54 velocity=0 time=0
note_on channel=0 note=36 velocity=0 time=0
note_on channel=0 note=53 velocity=31 time=0
note_on channel=0 note=56 velocity=31 time=0
note_on channel=0 note=61 velocity=37 time=0
note_on channel=0 note=37 velocity=28 time=0
note_on channel=0 note=44 velocity=34 time=0
control_change channel=0 control=64 value=0 time=14
control_change channel=0 control=64 value=127 time=85
note_on channel=0 note=44 velocity=0 time=0
note_on channel=0 note=61 velocity=0 time=0
note_on channel=0 note=53 velocity=0 time=0
note_on channel=0 note=56 velocity=0 time=0
note_on channel=0 note=37 velocity=0 time=0
note_on channel=0 note=48 velocity=46 time=0
note_on channel=0 note=51 velocity=46 time=0
note_on channel=0 note=56 velocity=56 time=0
note_on channel=0 note=42 velocity=48 time=0
note_on channel=0 note=44 velocity=48 time=0
control_change channel=0 control=64 value=0 time=15
control_change channel=0 control=64 value=127 time=45
note_on channel=0 note=44 velocity=0 time=0
note_on channel=0 note=56 velocity=0 time=0
note_on channel=0 note=48 velocity=0 time=0
note_on channel=0 note=51 velocity=0 time=0
note_on channel=0 note=42 velocity=0 time=0
note_on channel=0 note=48 velocity=52 time=0
note_on channel=0 note=54 velocity=62 time=0
note_on channel=0 note=56 velocity=62 time=0
note_on channel=0 note=39 velocity=49 time=0
note_on channel=0 note=44 velocity=49 time=0
control_change channel=0 control=64 value=0 time=19
control_change channel=0 control=64 value=127 time=101
note_on channel=0 note=44 velocity=0 time=60
note_on channel=0 note=56 velocity=0 time=0
note_on channel=0 note=48 velocity=0 time=0
note_on channel=0 note=54 velocity=0 time=0
note_on channel=0 note=39 velocity=0 time=0
note_on channel=0 note=48 velocity=57 time=0
note_on channel=0 note=51 velocity=68 time=0
note_on channel=0 note=56 velocity=68 time=0
note_on channel=0 note=42 velocity=55 time=0
note_on channel=0 note=44 velocity=55 time=0
note_on channel=0 note=44 velocity=0 time=0
note_on channel=0 note=56 velocity=0 time=0
note_on channel=0 note=48 velocity=0 time=0
note_on channel=0 note=51 velocity=0 time=0
note_on channel=0 note=42 velocity=0 time=0
note_on channel=0 note=56 velocity=70 time=0
note_on channel=0 note=61 velocity=70 time=0
note_on channel=0 note=68 velocity=87 time=0
note_on channel=0 note=41 velocity=73 time=0
note_on channel=0 note=53 velocity=73 time=0
control_change channel=0 control=64 value=0 time=11
control_change channel=0 control=64 value=127 time=88
note_on channel=0 note=53 velocity=0 time=0
note_on channel=0 note=68 velocity=0 time=0
note_on channel=0 note=56 velocity=0 time=0
note_on channel=0 note=61 velocity=0 time=0
note_on channel=0 note=41 velocity=0 time=0
note_on channel=0 note=61 velocity=60 time=0
note_on channel=0 note=65 velocity=60 time=0
note_on channel=0 note=68 velocity=72 time=0
note_on channel=0 note=37 velocity=48 time=0
note_on channel=0 note=49 velocity=53 time=0
note_on channel=0 note=49 velocity=0 time=0
note_on channel=0 note=68 velocity=0 time=0
note_on channel=0 note=61 velocity=0 time=0
note_on channel=0 note=65 velocity=0 time=0
note_on channel=0 note=37 velocity=0 time=0
note_on channel=0 note=63 velocity=61 time=0
note_on channel=0 note=60 velocity=61 time=0
note_on channel=0 note=68 velocity=79 time=0
note_on channel=0 note=39 velocity=52 time=0
note_on channel=0 note=51 velocity=62 time=0
control_change channel=0 control=64 value=0 time=14
control_change channel=0 control=64 value=127 time=92
note_on channel=0 note=68 velocity=0 time=0
note_on channel=0 note=66 velocity=66 time=0
note_on channel=0 note=66 velocity=0 time=0
note_on channel=0 note=51 velocity=0 time=0
note_on channel=0 note=63 velocity=0 time=0
note_on channel=0 note=60 velocity=0 time=0
note_on channel=0 note=39 velocity=0 time=0
note_on channel=0 note=56 velocity=44 time=0
note_on channel=0 note=61 velocity=44 time=0
note_on channel=0 note=65 velocity=55 time=0
note_on channel=0 note=41 velocity=36 time=0
note_on channel=0 note=53 velocity=42 time=0
control_change channel=0 control=64 value=0 time=16
control_change channel=0 control=64 value=127 time=76
note_on channel=0 note=53 velocity=0 time=0
note_on channel=0 note=65 velocity=0 time=0
note_on channel=0 note=56 velocity=0 time=0
note_on channel=0 note=61 velocity=0 time=0
note_on channel=0 note=41 velocity=0 time=0
note_on channel=0 note=54 velocity=39 time=0
note_on channel=0 note=58 velocity=39 time=0
note_on channel=0 note=63 velocity=47 time=0
note_on channel=0 note=42 velocity=37 time=0
control_change channel=0 control=64 value=0 time=10
control_change channel=0 control=64 value=127 time=230
note_on channel=0 note=42 velocity=0 time=0
note_on channel=0 note=54 velocity=0 time=0
note_on channel=0 note=58 velocity=0 time=0
note_on channel=0 note=63 velocity=0 time=0
note_on channel=0 note=48 velocity=37 time=0
note_on channel=0 note=51 velocity=37 time=0
note_on channel=0 note=56 velocity=43 time=0
note_on channel=0 note=44 velocity=34 time=0
control_change channel=0 control=64 value=0 time=19
control_change channel=0 control=64 value=127 time=221
note_on channel=0 note=56 velocity=0 time=0
note_on channel=0 note=48 velocity=0 time=0
note_on channel=0 note=51 velocity=0 time=0
note_on channel=0 note=49 velocity=37 time=0
note_on channel=0 note=53 velocity=37 time=0
note_on channel=0 note=61 velocity=43 time=0
control_change channel=0 control=64 value=0 time=17
control_change channel=0 control=64 value=127 time=29
note_on channel=0 note=44 velocity=0 time=134
note_on channel=0 note=42 velocity=28 time=0
note_on channel=0 note=42 velocity=0 time=40
note_on channel=0 note=41 velocity=30 time=0
control_change channel=0 control=64 value=0 time=15
control_change channel=0 control=64 value=127 time=35
note_on channel=0 note=41 velocity=0 time=0
note_on channel=0 note=39 velocity=27 time=0
note_on channel=0 note=39 velocity=0 time=0
note_on channel=0 note=37 velocity=26 time=0
control_change channel=0 control=64 value=0 time=17
control_change channel=0 control=64 value=127 time=40
note_on channel=0 note=37 velocity=0 time=183
note_on channel=0 note=49 velocity=0 time=0
note_on channel=0 note=53 velocity=0 time=0
note_on channel=0 note=61 velocity=0 time=0
control_change channel=0 control=64 value=0 time=39
note_on channel=0 note=48 velocity=39 time=0
note_on channel=0 note=51 velocity=39 time=0
note_on channel=0 note=56 velocity=47 time=0
note_on channel=0 note=42 velocity=40 time=0
note_on channel=0 note=44 velocity=40 time=0
control_change channel=0 control=64 value=127 time=0
note_on channel=0 note=44 velocity=0 time=0
note_on channel=0 note=56 velocity=0 time=0
note_on channel=0 note=48 velocity=0 time=0
note_on channel=0 note=51 velocity=0 time=0
note_on channel=0 note=42 velocity=0 time=0
note_on channel=0 note=48 velocity=37 time=0
note_on channel=0 note=54 velocity=44 time=0
note_on channel=0 note=56 velocity=44 time=0
note_on channel=0 note=39 velocity=35 time=0
note_on channel=0 note=44 velocity=35 time=0
control_change channel=0 control=64 value=0 time=15
control_change channel=0 control=64 value=127 time=149
note_on channel=0 note=44 velocity=0 time=60
note_on channel=0 note=56 velocity=0 time=0
note_on channel=0 note=48 velocity=0 time=0
note_on channel=0 note=54 velocity=0 time=0
note_on channel=0 note=39 velocity=0 time=0
note_on channel=0 note=48 velocity=37 time=0
note_on channel=0 note=51 velocity=44 time=0
note_on channel=0 note=56 velocity=44 time=0
note_on channel=0 note=42 velocity=35 time=0
note_on channel=0 note=44 velocity=35 time=0
note_on channel=0 note=44 velocity=0 time=0
note_on channel=0 note=56 velocity=0 time=0
note_on channel=0 note=48 velocity=0 time=0
note_on channel=0 note=51 velocity=0 time=0
note_on channel=0 note=42 velocity=0 time=0
note_on channel=0 note=49 velocity=39 time=0
note_on channel=0 note=53 velocity=39 time=0
note_on channel=0 note=56 velocity=47 time=0
note_on channel=0 note=41 velocity=33 time=0
note_on channel=0 note=44 velocity=39 time=0
control_change channel=0 control=64 value=0 time=19
control_change channel=0 control=64 value=127 time=108
note_on channel=0 note=44 velocity=0 time=0
note_on channel=0 note=56 velocity=0 time=0
note_on channel=0 note=49 velocity=0 time=0
note_on channel=0 note=53 velocity=0 time=0
note_on channel=0 note=41 velocity=0 time=0
note_on channel=0 note=53 velocity=45 time=0
note_on channel=0 note=56 velocity=45 time=0
note_on channel=0 note=61 velocity=53 time=0
note_on channel=0 note=37 velocity=39 time=0
note_on channel=0 note=44 velocity=46 time=0
note_on channel=0 note=44 velocity=0 time=0
note_on channel=0 note=61 velocity=0 time=0
note_on channel=0 note=53 velocity=0 time=0
note_on channel=0 note=56 velocity=0 time=0
note_on channel=0 note=37 velocity=0 time=0
note_on channel=0 note=56 velocity=41 time=0
note_on channel=0 note=54 velocity=41 time=0
note_on channel=0 note=60 velocity=49 time=0
note_on channel=0 note=39 velocity=37 time=0
note_on channel=0 note=44 velocity=44 time=0
control_change channel=0 control=64 value=0 time=17
control_change channel=0 control=64 value=127 time=89
note_on channel=0 note=44 velocity=0 time=0
note_on channel=0 note=60 velocity=0 time=0
note_on channel=0 note=56 velocity=0 time=0
note_on channel=0 note=54 velocity=0 time=0
note_on channel=0 note=39 velocity=0 time=0
note_on channel=0 note=53 velocity=31 time=0
note_on channel=0 note=56 velocity=31 time=0
note_on channel=0 note=61 velocity=37 time=0
note_on channel=0 note=37 velocity=28 time=0
note_on channel=0 note=44 velocity=34 time=0
control_change channel=0 control=64 value=0 time=16
control_change channel=0 control=64 value=127 time=76
note_on channel=0 note=44 velocity=0 time=0
note_on channel=0 note=61 velocity=0 time=0
note_on channel=0 note=53 velocity=0 time=0
note_on channel=0 note=56 velocity=0 time=0
note_on channel=0 note=37 velocity=0 time=0
note_on channel=0 note=48 velocity=39 time=0
note_on channel=0 note=51 velocity=39 time=0
note_on channel=0 note=56 velocity=47 time=0
note_on channel=0 note=42 velocity=40 time=0
note_on channel=0 note=44 velocity=40 time=0
control_change channel=0 control=64 value=0 time=11
control_change channel=0 control=64 value=127 time=65
note_on channel=0 note=44 velocity=0 time=0
note_on channel=0 note=56 velocity=0 time=0
note_on channel=0 note=48 velocity=0 time=0
note_on channel=0 note=51 velocity=0 time=0
note_on channel=0 note=42 velocity=0 time=0
note_on channel=0 note=48 velocity=37 time=0
note_on channel=0 note=54 velocity=44 time=0
note_on channel=0 note=56 velocity=44 time=0
note_on channel=0 note=39 velocity=35 time=0
note_on channel=0 note=44 velocity=35 time=0
control_change channel=0 control=64 value=0 time=19
control_change channel=0 control=64 value=127 time=85
note_on channel=0 note=44 velocity=0 time=60
note_on channel=0 note=56 velocity=0 time=0
note_on channel=0 note=48 velocity=0 time=0
note_on channel=0 note=54 velocity=0 time=0
note_on channel=0 note=39 velocity=0 time=0
note_on channel=0 note=48 velocity=37 time=0
note_on channel=0 note=51 velocity=44 time=0
note_on channel=0 note=56 velocity=44 time=0
note_on channel=0 note=42 velocity=35 time=0
note_on channel=0 note=44 velocity=35 time=0
note_on channel=0 note=44 velocity=0 time=0
note_on channel=0 note=56 velocity=0 time=0
note_on channel=0 note=48 velocity=0 time=0
note_on channel=0 note=51 velocity=0 time=0
note_on channel=0 note=42 velocity=0 time=0
note_on channel=0 note=49 velocity=39 time=0
note_on channel=0 note=53 velocity=39 time=0
note_on channel=0 note=56 velocity=47 time=0
note_on channel=0 note=41 velocity=33 time=0
note_on channel=0 note=44 velocity=39 time=0
control_change channel=0 control=64 value=0 time=11
control_change channel=0 control=64 value=127 time=53
note_on channel=0 note=44 velocity=0 time=0
note_on channel=0 note=56 velocity=0 time=0
note_on channel=0 note=49 velocity=0 time=0
note_on channel=0 note=53 velocity=0 time=0
note_on channel=0 note=41 velocity=0 time=0
note_on channel=0 note=53 velocity=45 time=0
note_on channel=0 note=56 velocity=45 time=0
note_on channel=0 note=65 velocity=55 time=0
note_on channel=0 note=37 velocity=39 time=0
note_on channel=0 note=44 velocity=46 time=0
note_on channel=0 note=44 velocity=0 time=0
note_on channel=0 note=65 velocity=0 time=0
note_on channel=0 note=53 velocity=0 time=0
note_on channel=0 note=56 velocity=0 time=0
note_on channel=0 note=37 velocity=0 time=0
note_on channel=0 note=56 velocity=45 time=0
note_on channel=0 note=54 velocity=45 time=0
note_on channel=0 note=65 velocity=58 time=0
note_on channel=0 note=36 velocity=37 time=0
note_on channel=0 note=44 velocity=44 time=0
control_change channel=0 control=64 value=0 time=16
control_change channel=0 control=64 value=127 time=83
note_on channel=0 note=65 velocity=0 time=0
note_on channel=0 note=63 velocity=51 time=0
note_on channel=0 note=63 velocity=0 time=0
note_on channel=0 note=44 velocity=0 time=0
note_on channel=0 note=56 velocity=0 time=0
note_on channel=0 note=54 velocity=0 time=0
note_on channel=0 note=36 velocity=0 time=0
note_on channel=0 note=53 velocity=31 time=0
note_on channel=0 note=56 velocity=31 time=0
note_on channel=0 note=61 velocity=37 time=0
note_on channel=0 note=37 velocity=28 time=0
note_on channel=0 note=44 velocity=34 time=0
control_change channel=0 control=64 value=0 time=14
control_change channel=0 control=64 value=127 time=85
note_on channel=0 note=44 velocity=0 time=0
note_on channel=0 note=61 velocity=0 time=0
note_on channel=0 note=53 velocity=0 time=0
note_on channel=0 note=56 velocity=0 time=0
note_on channel=0 note=37 velocity=0 time=0
note_on channel=0 note=48 velocity=46 time=0
note_on channel=0 note=51 velocity=46 time=0
note_on channel=0 note=56 velocity=56 time=0
note_on channel=0 note=42 velocity=48 time=0
note_on channel=0 note=44 velocity=48 time=0
control_change channel=0 control=64 value=0 time=15
control_change channel=0 control=64 value=127 time=45
note_on channel=0 note=44 velocity=0 time=0
note_on channel=0 note=56 velocity=0 time=0
note_on channel=0 note=48 velocity=0 time=0
note_on channel=0 note=51 velocity=0 time=0
note_on channel=0 note=42 velocity=0 time=0
note_on channel=0 note=48 velocity=52 time=0
note_on channel=0 note=54 velocity=62 time=0
note_on channel=0 note=56 velocity=62 time=0
note_on channel=0 note=39 velocity=49 time=0
note_on channel=0 note=44 velocity=49 time=0
control_change channel=0 control=64 value=0 time=19
control_change channel=0 control=64 value=127 time=101
note_on channel=0 note=44 velocity=0 time=60
note_on channel=0 note=56 velocity=0 time=0
note_on channel=0 note=48 velocity=0 time=0
note_on channel=0 note=54 velocity=0 time=0
note_on channel=0 note=39 velocity=0 time=0
note_on channel=0 note=48 velocity=57 time=0
note_on channel=0 note=51 velocity=68 time=0
note_on channel=0 note=56 velocity=68 time=0
note_on channel=0 note=42 velocity=55 time=0
note_on channel=0 note=44 velocity=55 time=0
note_on channel=0 note=44 velocity=0 time=0
note_on channel=0 note=56 velocity=0 time=0
note_on channel=0 note=48 velocity=0 time=0
note_on channel=0 note=51 velocity=0 time=0
note_on channel=0 note=42 velocity=0 time=0
note_on channel=0 note=56 velocity=70 time=0
note_on channel=0 note=61 velocity=70 time=0
note_on channel=0 note=68 velocity=87 time=0
note_on channel=0 note=41 velocity=73 time=0
note_on channel=0 note=53 velocity=73 time=0
control_change channel=0 control=64 value=0 time=11
control_change channel=0 control=64 value=127 time=88
note_on channel=0 note=53 velocity=0 time=0
note_on channel=0 note=68 velocity=0 time=0
note_on channel=0 note=56 velocity=0 time=0
note_on channel=0 note=61 velocity=0 time=0
note_on channel=0 note=41 velocity=0 time=0
note_on channel=0 note=61 velocity=61 time=0
note_on channel=0 note=65 velocity=61 time=0
note_on channel=0 note=68 velocity=73 time=0
note_on channel=0 note=37 velocity=49 time=0
note_on channel=0 note=49 velocity=55 time=0
note_on channel=0 note=49 velocity=0 time=0
note_on channel=0 note=68 velocity=0 time=0
note_on channel=0 note=61 velocity=0 time=0
note_on channel=0 note=65 velocity=0 time=0
note_on channel=0 note=37 velocity=0 time=0
note_on channel=0 note=63 velocity=61 time=0
note_on channel=0 note=60 velocity=61 time=0
note_on channel=0 note=68 velocity=79 time=0
note_on channel=0 note=39 velocity=52 time=0
note_on channel=0 note=51 velocity=62 time=0
control_change channel=0 control=64 value=0 time=14
control_change channel=0 control=64 value=127 time=92
note_on channel=0 note=68 velocity=0 time=0
note_on channel=0 note=66 velocity=66 time=0
note_on channel=0 note=66 velocity=0 time=0
note_on channel=0 note=51 velocity=0 time=0
note_on channel=0 note=63 velocity=0 time=0
note_on channel=0 note=60 velocity=0 time=0
note_on channel=0 note=39 velocity=0 time=0
note_on channel=0 note=56 velocity=44 time=0
note_on channel=0 note=61 velocity=44 time=0
note_on channel=0 note=65 velocity=55 time=0
note_on channel=0 note=41 velocity=36 time=0
note_on channel=0 note=53 velocity=42 time=0
control_change channel=0 control=64 value=0 time=16
control_change channel=0 control=64 value=127 time=76
note_on channel=0 note=53 velocity=0 time=0
note_on channel=0 note=65 velocity=0 time=0
note_on channel=0 note=56 velocity=0 time=0
note_on channel=0 note=61 velocity=0 time=0
note_on channel=0 note=41 velocity=0 time=0
note_on channel=0 note=54 velocity=39 time=0
note_on channel=0 note=58 velocity=39 time=0
note_on channel=0 note=63 velocity=47 time=0
note_on channel=0 note=42 velocity=37 time=0
control_change channel=0 control=64 value=0 time=10
control_change channel=0 control=64 value=127 time=230
note_on channel=0 note=42 velocity=0 time=0
note_on channel=0 note=54 velocity=0 time=0
note_on channel=0 note=58 velocity=0 time=0
note_on channel=0 note=63 velocity=0 time=0
note_on channel=0 note=48 velocity=37 time=0
note_on channel=0 note=51 velocity=37 time=0
note_on channel=0 note=56 velocity=43 time=0
note_on channel=0 note=44 velocity=34 time=0
control_change channel=0 control=64 value=0 time=19
control_change channel=0 control=64 value=127 time=221
note_on channel=0 note=56 velocity=0 time=0
note_on channel=0 note=48 velocity=0 time=0
note_on channel=0 note=51 velocity=0 time=0
note_on channel=0 note=49 velocity=37 time=0
note_on channel=0 note=53 velocity=37 time=0
note_on channel=0 note=61 velocity=43 time=0
control_change channel=0 control=64 value=0 time=17
control_change channel=0 control=64 value=127 time=29
note_on channel=0 note=44 velocity=0 time=134
note_on channel=0 note=42 velocity=28 time=0
note_on channel=0 note=42 velocity=0 time=40
note_on channel=0 note=41 velocity=30 time=0
control_change channel=0 control=64 value=0 time=15
control_change channel=0 control=64 value=127 time=35
note_on channel=0 note=41 velocity=0 time=0
note_on channel=0 note=39 velocity=28 time=0
note_on channel=0 note=39 velocity=0 time=0
note_on channel=0 note=37 velocity=26 time=0
control_change channel=0 control=64 value=0 time=17
control_change channel=0 control=64 value=127 time=40
note_on channel=0 note=37 velocity=0 time=183
note_on channel=0 note=49 velocity=0 time=0
note_on channel=0 note=53 velocity=0 time=0
note_on channel=0 note=61 velocity=0 time=0
control_change channel=0 control=64 value=0 time=39
note_on channel=0 note=49 velocity=39 time=0
note_on channel=0 note=53 velocity=39 time=0
note_on channel=0 note=56 velocity=47 time=0
control_change channel=0 control=64 value=127 time=0
note_on channel=0 note=56 velocity=0 time=0
note_on channel=0 note=53 velocity=0 time=0
note_on channel=0 note=49 velocity=0 time=0
note_on channel=0 note=37 velocity=40 time=0
note_on channel=0 note=49 velocity=37 time=0
note_on channel=0 note=54 velocity=37 time=0
note_on channel=0 note=58 velocity=44 time=0
control_change channel=0 control=64 value=0 time=16
control_change channel=0 control=64 value=127 time=154
note_on channel=0 note=58 velocity=0 time=0
note_on channel=0 note=37 velocity=0 time=0
note_on channel=0 note=49 velocity=0 time=0
note_on channel=0 note=54 velocity=0 time=0
note_on channel=0 note=30 velocity=31 time=0
note_on channel=0 note=49 velocity=39 time=0
note_on channel=0 note=53 velocity=39 time=0
note_on channel=0 note=56 velocity=47 time=0
control_change channel=0 control=64 value=0 time=9
control_change channel=0 control=64 value=127 time=117
note_on channel=0 note=56 velocity=0 time=0
note_on channel=0 note=30 velocity=0 time=0
note_on channel=0 note=49 velocity=0 time=0
note_on channel=0 note=53 velocity=0 time=0
note_on channel=0 note=32 velocity=39 time=0
note_on channel=0 note=49 velocity=37 time=240
note_on channel=0 note=51 velocity=37 time=0
note_on channel=0 note=58 velocity=44 time=0
control_change channel=0 control=64 value=0 time=19
control_change channel=0 control=64 value=127 time=164
note_on channel=0 note=58 velocity=0 time=0
note_on channel=0 note=32 velocity=0 time=0
note_on channel=0 note=49 velocity=0 time=0
note_on channel=0 note=51 velocity=0 time=0
note_on channel=0 note=31 velocity=35 time=0
note_on channel=0 note=49 velocity=39 time=0
note_on channel=0 note=51 velocity=39 time=0
note_on channel=0 note=56 velocity=47 time=0
control_change channel=0 control=64 value=0 time=15
control_change channel=0 control=64 value=127 time=145
note_on channel=0 note=56 velocity=0 time=0
note_on channel=0 note=31 velocity=0 time=0
note_on channel=0 note=49 velocity=0 time=0
note_on channel=0 note=51 velocity=0 time=0
note_on channel=0 note=32 velocity=40 time=0
note_on channel=0 note=48 velocity=38 time=0
note_on channel=0 note=51 velocity=38 time=0
note_on channel=0 note=56 velocity=46 time=0
control_change channel=0 control=64 value=0 time=18
control_change channel=0 control=64 value=127 time=119
note_on channel=0 note=56 velocity=0 time=0
note_on channel=0 note=32 velocity=0 time=0
note_on channel=0 note=48 velocity=0 time=0
note_on channel=0 note=51 velocity=0 time=0
note_on channel=0 note=42 velocity=38 time=0
note_on channel=0 note=54 velocity=38 time=20
control_change channel=0 control=64 value=0 time=11
control_change channel=0 control=64 value=127 time=56
note_on channel=0 note=54 velocity=0 time=40
note_on channel=0 note=42 velocity=0 time=0
note_on channel=0 note=41 velocity=31 time=0
note_on channel=0 note=53 velocity=37 time=60
note_on channel=0 note=53 velocity=0 time=0
note_on channel=0 note=41 velocity=0 time=0
note_on channel=0 note=39 velocity=29 time=0
note_on channel=0 note=51 velocity=36 time=40
control_change channel=0 control=64 value=0 time=19
control_change channel=0 control=64 value=127 time=7
note_on channel=0 note=51 velocity=0 time=53
note_on channel=0 note=39 velocity=0 time=0
note_on channel=0 note=37 velocity=28 time=0
note_on channel=0 note=49 velocity=35 time=0
control_change channel=0 control=64 value=0 time=13
control_change channel=0 control=64 value=127 time=54
note_on channel=0 note=49 velocity=0 time=53
note_on channel=0 note=37 velocity=0 time=0
note_on channel=0 note=36 velocity=26 time=0
note_on channel=0 note=53 velocity=40 time=0
note_on channel=0 note=56 velocity=40 time=0
note_on channel=0 note=61 velocity=49 time=0
control_change channel=0 control=64 value=0 time=7
control_change channel=0 control=64 value=127 time=163
note_on channel=0 note=61 velocity=0 time=0
note_on channel=0 note=36 velocity=0 time=0
note_on channel=0 note=53 velocity=0 time=0
note_on channel=0 note=56 velocity=0 time=0
note_on channel=0 note=37 velocity=42 time=0
note_on channel=0 note=54 velocity=38 time=0
note_on channel=0 note=58 velocity=46 time=0
note_on channel=0 note=61 velocity=46 time=0
control_change channel=0 control=64 value=0 time=16
control_change channel=0 control=64 value=127 time=154
note_on channel=0 note=61 velocity=0 time=0
note_on channel=0 note=37 velocity=0 time=0
note_on channel=0 note=54 velocity=0 time=0
note_on channel=0 note=58 velocity=0 time=0
note_on channel=0 note=42 velocity=32 time=0
note_on channel=0 note=53 velocity=40 time=0
note_on channel=0 note=56 velocity=40 time=0
note_on channel=0 note=61 velocity=49 time=0
control_change channel=0 control=64 value=0 time=9
control_change channel=0 control=64 value=127 time=117
note_on channel=0 note=61 velocity=0 time=0
note_on channel=0 note=42 velocity=0 time=0
note_on channel=0 note=53 velocity=0 time=0
note_on channel=0 note=56 velocity=0 time=0
note_on channel=0 note=44 velocity=40 time=0
note_on channel=0 note=52 velocity=38 time=240
note_on channel=0 note=55 velocity=38 time=0
note_on channel=0 note=61 velocity=46 time=0
control_change channel=0 control=64 value=0 time=19
control_change channel=0 control=64 value=127 time=164
note_on channel=0 note=61 velocity=0 time=0
note_on channel=0 note=44 velocity=0 time=0
note_on channel=0 note=52 velocity=0 time=0
note_on channel=0 note=55 velocity=0 time=0
note_on channel=0 note=45 velocity=36 time=0
note_on channel=0 note=51 velocity=39 time=0
note_on channel=0 note=54 velocity=39 time=0
note_on channel=0 note=61 velocity=47 time=0
control_change channel=0 control=64 value=0 time=15
control_change channel=0 control=64 value=127 time=145
note_on channel=0 note=61 velocity=0 time=0
note_on channel=0 note=45 velocity=0 time=0
note_on channel=0 note=51 velocity=0 time=0
note_on channel=0 note=54 velocity=0 time=0
note_on channel=0 note=44 velocity=40 time=0
note_on channel=0 note=51 velocity=38 time=0
note_on channel=0 note=54 velocity=38 time=0
note_on channel=0 note=60 velocity=46 time=0
control_change channel=0 control=64 value=0 time=18
control_change channel=0 control=64 value=127 time=119
note_on channel=0 note=60 velocity=0 time=0
note_on channel=0 note=44 velocity=0 time=0
note_on channel=0 note=51 velocity=0 time=0
note_on channel=0 note=54 velocity=0 time=0
note_on channel=0 note=32 velocity=38 time=0
note_on channel=0 note=49 velocity=35 time=20
note_on channel=0 note=53 velocity=35 time=0
note_on channel=0 note=61 velocity=42 time=0
control_change channel=0 control=64 value=0 time=11
control_change channel=0 control=64 value=127 time=56
note_on channel=0 note=61 velocity=0 time=40
note_on channel=0 note=32 velocity=0 time=0
note_on channel=0 note=49 velocity=0 time=0
note_on channel=0 note=53 velocity=0 time=0
note_on channel=0 note=37 velocity=34 time=0
note_on channel=0 note=56 velocity=39 time=60
note_on channel=0 note=56 velocity=0 time=0
note_on channel=0 note=37 velocity=0 time=0
note_on channel=0 note=44 velocity=30 time=0
note_on channel=0 note=53 velocity=42 time=40
control_change channel=0 control=64 value=0 time=19
control_change channel=0 control=64 value=127 time=7
note_on channel=0 note=53 velocity=0 time=53
note_on channel=0 note=44 velocity=0 time=0
note_on channel=0 note=41 velocity=34 time=0
note_on channel=0 note=51 velocity=39 time=0
control_change channel=0 control=64 value=0 time=13
control_change channel=0 control=64 value=127 time=54
note_on channel=0 note=51 velocity=0 time=40
note_on channel=0 note=41 velocity=0 time=0
note_on channel=0 note=39 velocity=31 time=0
note_on channel=0 note=49 velocity=39 time=0
note_on channel=0 note=53 velocity=39 time=0
note_on channel=0 note=56 velocity=47 time=0
control_change channel=0 control=64 value=0 time=7
control_change channel=0 control=64 value=127 time=134
note_on channel=0 note=56 velocity=0 time=0
note_on channel=0 note=39 velocity=0 time=0
note_on channel=0 note=49 velocity=0 time=0
note_on channel=0 note=53 velocity=0 time=0
note_on channel=0 note=37 velocity=40 time=0
note_on channel=0 note=49 velocity=37 time=0
note_on channel=0 note=54 velocity=37 time=0
note_on channel=0 note=58 velocity=44 time=0
control_change channel=0 control=64 value=0 time=16
control_change channel=0 control=64 value=127 time=154
note_on channel=0 note=58 velocity=0 time=0
note_on channel=0 note=37 velocity=0 time=0
note_on channel=0 note=49 velocity=0 time=0
note_on channel=0 note=54 velocity=0 time=0
note_on channel=0 note=30 velocity=31 time=0
note_on channel=0 note=49 velocity=39 time=0
note_on channel=0 note=53 velocity=39 time=0
note_on channel=0 note=56 velocity=47 time=0
control_change channel=0 control=64 value=0 time=9
control_change channel=0 control=64 value=127 time=117
note_on channel=0 note=56 velocity=0 time=0
note_on channel=0 note=30 velocity=0 time=0
note_on channel=0 note=49 velocity=0 time=0
note_on channel=0 note=53 velocity=0 time=0
note_on channel=0 note=32 velocity=39 time=0
note_on channel=0 note=49 velocity=37 time=240
note_on channel=0 note=51 velocity=37 time=0
note_on channel=0 note=58 velocity=44 time=0
control_change channel=0 control=64 value=0 time=19
control_change channel=0 control=64 value=127 time=164
note_on channel=0 note=58 velocity=0 time=0
note_on channel=0 note=32 velocity=0 time=0
note_on channel=0 note=49 velocity=0 time=0
note_on channel=0 note=51 velocity=0 time=0
note_on channel=0 note=31 velocity=35 time=0
note_on channel=0 note=49 velocity=39 time=0
note_on channel=0 note=51 velocity=39 time=0
note_on channel=0 note=56 velocity=47 time=0
control_change channel=0 control=64 value=0 time=15
control_change channel=0 control=64 value=127 time=145
note_on channel=0 note=56 velocity=0 time=0
note_on channel=0 note=31 velocity=0 time=0
note_on channel=0 note=49 velocity=0 time=0
note_on channel=0 note=51 velocity=0 time=0
note_on channel=0 note=32 velocity=40 time=0
note_on channel=0 note=48 velocity=38 time=0
note_on channel=0 note=51 velocity=38 time=0
note_on channel=0 note=56 velocity=46 time=0
control_change channel=0 control=64 value=0 time=18
control_change channel=0 control=64 value=127 time=119
note_on channel=0 note=56 velocity=0 time=0
note_on channel=0 note=32 velocity=0 time=0
note_on channel=0 note=48 velocity=0 time=0
note_on channel=0 note=51 velocity=0 time=0
note_on channel=0 note=42 velocity=38 time=0
note_on channel=0 note=54 velocity=39 time=0
control_change channel=0 control=64 value=0 time=11
control_change channel=0 control=64 value=127 time=56
note_on channel=0 note=54 velocity=0 time=0
note_on channel=0 note=42 velocity=0 time=0
note_on channel=0 note=41 velocity=31 time=0
note_on channel=0 note=53 velocity=38 time=0
note_on channel=0 note=53 velocity=0 time=0
note_on channel=0 note=41 velocity=0 time=0
note_on channel=0 note=39 velocity=30 time=0
note_on channel=0 note=51 velocity=38 time=0
control_change channel=0 control=64 value=0 time=19
control_change channel=0 control=64 value=127 time=7
note_on channel=0 note=51 velocity=0 time=0
note_on channel=0 note=39 velocity=0 time=0
note_on channel=0 note=37 velocity=29 time=0
note_on channel=0 note=49 velocity=37 time=0
control_change channel=0 control=64 value=0 time=13
control_change channel=0 control=64 value=127 time=54
note_on channel=0 note=49 velocity=0 time=53
note_on channel=0 note=37 velocity=0 time=0
note_on channel=0 note=36 velocity=28 time=0
note_on channel=0 note=53 velocity=40 time=0
note_on channel=0 note=56 velocity=40 time=0
note_on channel=0 note=61 velocity=49 time=0
control_change channel=0 control=64 value=0 time=7
control_change channel=0 control=64 value=127 time=163
note_on channel=0 note=61 velocity=0 time=0
note_on channel=0 note=36 velocity=0 time=0
note_on channel=0 note=53 velocity=0 time=0
note_on channel=0 note=56 velocity=0 time=0
note_on channel=0 note=37 velocity=42 time=0
note_on channel=0 note=54 velocity=38 time=0
note_on channel=0 note=58 velocity=46 time=0
note_on channel=0 note=61 velocity=46 time=0
control_change channel=0 control=64 value=0 time=16
control_change channel=0 control=64 value=127 time=154
note_on channel=0 note=61 velocity=0 time=0
note_on channel=0 note=37 velocity=0 time=0
note_on channel=0 note=54 velocity=0 time=0
note_on channel=0 note=58 velocity=0 time=0
note_on channel=0 note=42 velocity=32 time=0
note_on channel=0 note=53 velocity=40 time=0
note_on channel=0 note=56 velocity=40 time=0
note_on channel=0 note=61 velocity=49 time=0
control_change channel=0 control=64 value=0 time=9
control_change channel=0 control=64 value=127 time=117
note_on channel=0 note=61 velocity=0 time=0
note_on channel=0 note=42 velocity=0 time=0
note_on channel=0 note=53 velocity=0 time=0
note_on channel=0 note=56 velocity=0 time=0
note_on channel=0 note=44 velocity=40 time=0
note_on channel=0 note=52 velocity=38 time=240
note_on channel=0 note=55 velocity=38 time=0
note_on channel=0 note=61 velocity=46 time=0
control_change channel=0 control=64 value=0 time=19
control_change channel=0 control=64 value=127 time=164
note_on channel=0 note=61 velocity=0 time=0
note_on channel=0 note=44 velocity=0 time=0
note_on channel=0 note=52 velocity=0 time=0
note_on channel=0 note=55 velocity=0 time=0
note_on channel=0 note=45 velocity=36 time=0
note_on channel=0 note=51 velocity=39 time=0
note_on channel=0 note=54 velocity=39 time=0
note_on channel=0 note=61 velocity=47 time=0
control_change channel=0 control=64 value=0 time=15
control_change channel=0 control=64 value=127 time=145
note_on channel=0 note=61 velocity=0 time=0
note_on channel=0 note=45 velocity=0 time=0
note_on channel=0 note=51 velocity=0 time=0
note_on channel=0 note=54 velocity=0 time=0
note_on channel=0 note=44 velocity=40 time=0
note_on channel=0 note=51 velocity=38 time=0
note_on channel=0 note=54 velocity=38 time=0
note_on channel=0 note=60 velocity=46 time=0
control_change channel=0 control=64 value=0 time=18
control_change channel=0 control=64 value=127 time=119
note_on channel=0 note=60 velocity=0 time=0
note_on channel=0 note=44 velocity=0 time=0
note_on channel=0 note=51 velocity=0 time=0
note_on channel=0 note=54 velocity=0 time=0
note_on channel=0 note=32 velocity=38 time=0
note_on channel=0 note=49 velocity=35 time=20
note_on channel=0 note=53 velocity=35 time=0
note_on channel=0 note=61 velocity=42 time=0
control_change channel=0 control=64 value=0 time=11
control_change channel=0 control=64 value=127 time=56
note_on channel=0 note=61 velocity=0 time=40
note_on channel=0 note=32 velocity=0 time=0
note_on channel=0 note=49 velocity=0 time=0
note_on channel=0 note=53 velocity=0 time=0
note_on channel=0 note=37 velocity=34 time=0
note_on channel=0 note=56 velocity=39 time=60
note_on channel=0 note=56 velocity=0 time=0
note_on channel=0 note=37 velocity=0 time=0
note_on channel=0 note=44 velocity=30 time=0
note_on channel=0 note=53 velocity=42 time=40
control_change channel=0 control=64 value=0 time=19
control_change channel=0 control=64 value=127 time=7
note_on channel=0 note=53 velocity=0 time=53
note_on channel=0 note=44 velocity=0 time=0
note_on channel=0 note=41 velocity=34 time=0
note_on channel=0 note=49 velocity=39 time=0
control_change channel=0 control=64 value=0 time=13
control_change channel=0 control=64 value=127 time=54
note_on channel=0 note=49 velocity=0 time=53
note_on channel=0 note=41 velocity=0 time=0
note_on channel=0 note=37 velocity=31 time=0
note_on channel=0 note=37 velocity=0 time=0
note_on channel=0 note=48 velocity=39 time=0
note_on channel=0 note=51 velocity=39 time=0
note_on channel=0 note=56 velocity=47 time=0
control_change channel=0 control=64 value=0 time=7
control_change channel=0 control=64 value=127 time=134
note_on channel=0 note=56 velocity=0 time=0
note_on channel=0 note=51 velocity=0 time=0
note_on channel=0 note=48 velocity=0 time=0
note_on channel=0 note=42 velocity=40 time=0
note_on channel=0 note=48 velocity=38 time=0
note_on channel=0 note=51 velocity=38 time=0
note_on channel=0 note=56 velocity=46 time=0
control_change channel=0 control=64 value=0 time=17
control_change channel=0 control=64 value=127 time=181
note_on channel=0 note=56 velocity=0 time=0
note_on channel=0 note=42 velocity=0 time=0
note_on channel=0 note=48 velocity=0 time=0
note_on channel=0 note=51 velocity=0 time=0
note_on channel=0 note=66 velocity=57 time=0
note_on channel=0 note=49 velocity=42 time=20
note_on channel=0 note=53 velocity=42 time=0
note_on channel=0 note=56 velocity=42 time=0
control_change channel=0 control=64 value=0 time=16
note_on channel=0 note=66 velocity=0 time=40
note_on channel=0 note=65 velocity=38 time=0
control_change channel=0 control=64 value=127 time=0
note_on channel=0 note=65 velocity=0 time=120
note_on channel=0 note=56 velocity=0 time=0
note_on channel=0 note=53 velocity=0 time=0
note_on channel=0 note=49 velocity=0 time=0
note_on channel=0 note=53 velocity=45 time=0
note_on channel=0 note=53 velocity=0 time=120
note_on channel=0 note=49 velocity=38 time=0
note_on channel=0 note=49 velocity=0 time=120
note_on channel=0 note=54 velocity=52 time=0
control_change channel=0 control=64 value=0 time=18
note_on channel=0 note=54 velocity=0 time=102
note_on channel=0 note=51 velocity=45 time=0
control_change channel=0 control=64 value=127 time=7
note_on channel=0 note=51 velocity=0 time=113
note_on channel=0 note=56 velocity=54 time=0
control_change channel=0 control=64 value=0 time=15
control_change channel=0 control=64 value=127 time=63
note_on channel=0 note=56 velocity=0 time=42
note_on channel=0 note=53 velocity=45 time=0
note_on channel=0 note=53 velocity=0 time=0
note_on channel=0 note=48 velocity=50 time=0
note_on channel=0 note=51 velocity=50 time=0
note_on channel=0 note=56 velocity=61 time=0
control_change channel=0 control=64 value=0 time=23
control_change channel=0 control=64 value=127 time=167
note_on channel=0 note=56 velocity=0 time=0
note_on channel=0 note=51 velocity=0 time=0
note_on channel=0 note=48 velocity=0 time=0
note_on channel=0 note=42 velocity=59 time=0
note_on channel=0 note=51 velocity=49 time=0
note_on channel=0 note=56 velocity=49 time=0
note_on channel=0 note=60 velocity=60 time=0
control_change channel=0 control=64 value=0 time=19
control_change channel=0 control=64 value=127 time=183
note_on channel=0 note=60 velocity=0 time=0
note_on channel=0 note=42 velocity=0 time=0
note_on channel=0 note=51 velocity=0 time=0
note_on channel=0 note=56 velocity=0 time=0
note_on channel=0 note=68 velocity=63 time=0
note_on channel=0 note=66 velocity=52 time=0
note_on channel=0 note=53 velocity=60 time=20
note_on channel=0 note=56 velocity=60 time=0
note_on channel=0 note=61 velocity=60 time=0
control_change channel=0 control=64 value=0 time=18
control_change channel=0 control=64 value=127 time=58
note_on channel=0 note=66 velocity=0 time=44
note_on channel=0 note=68 velocity=0 time=0
note_on channel=0 note=65 velocity=60 time=0
note_on channel=0 note=65 velocity=0 time=120
note_on channel=0 note=61 velocity=0 time=0
note_on channel=0 note=53 velocity=0 time=0
note_on channel=0 note=56 velocity=0 time=0
note_on channel=0 note=56 velocity=67 time=0
note_on channel=0 note=56 velocity=0 time=120
note_on channel=0 note=53 velocity=55 time=0
note_on channel=0 note=49 velocity=45 time=0
note_on channel=0 note=49 velocity=0 time=120
note_on channel=0 note=53 velocity=0 time=0
note_on channel=0 note=60 velocity=73 time=0
control_change channel=0 control=64 value=0 time=18
control_change channel=0 control=64 value=127 time=77
note_on channel=0 note=60 velocity=0 time=25
note_on channel=0 note=54 velocity=63 time=0
note_on channel=0 note=51 velocity=52 time=0
note_on channel=0 note=51 velocity=0 time=120
note_on channel=0 note=54 velocity=0 time=0
note_on channel=0 note=61 velocity=75 time=0
control_change channel=0 control=64 value=0 time=18
control_change channel=0 control=64 value=127 time=64
note_on channel=0 note=61 velocity=0 time=0
note_on channel=0 note=56 velocity=62 time=0
note_on channel=0 note=53 velocity=51 time=0
note_on channel=0 note=53 velocity=0 time=118
note_on channel=0 note=56 velocity=0 time=0
note_on channel=0 note=48 velocity=77 time=0
note_on channel=0 note=51 velocity=77 time=0
note_on channel=0 note=56 velocity=91 time=0
control_change channel=0 control=64 value=0 time=18
control_change channel=0 control=64 value=127 time=152
note_on channel=0 note=56 velocity=0 time=0
note_on channel=0 note=51 velocity=0 time=0
note_on channel=0 note=48 velocity=0 time=0
note_on channel=0 note=30 velocity=61 time=0
note_on channel=0 note=42 velocity=73 time=0
note_on channel=0 note=54 velocity=57 time=0
note_on channel=0 note=60 velocity=57 time=0
note_on channel=0 note=63 velocity=84 time=0
control_change channel=0 control=64 value=0 time=14
control_change channel=0 control=64 value=127 time=127
note_on channel=0 note=63 velocity=0 time=0
note_on channel=0 note=54 velocity=0 time=0
note_on channel=0 note=30 velocity=0 time=0
note_on channel=0 note=42 velocity=0 time=0
note_on channel=0 note=60 velocity=0 time=0
note_on channel=0 note=75 velocity=85 time=0
note_on channel=0 note=72 velocity=58 time=0
note_on channel=0 note=53 velocity=74 time=20
note_on channel=0 note=61 velocity=74 time=0
note_on channel=0 note=65 velocity=89 time=0
control_change channel=0 control=64 value=0 time=11
control_change channel=0 control=64 value=127 time=74
note_on channel=0 note=72 velocity=0 time=35
note_on channel=0 note=75 velocity=0 time=0
note_on channel=0 note=73 velocity=61 time=0
note_on channel=0 note=77 velocity=72 time=0
note_on channel=0 note=77 velocity=0 time=120
note_on channel=0 note=61 velocity=0 time=0
note_on channel=0 note=65 velocity=0 time=0
note_on channel=0 note=53 velocity=0 time=0
note_on channel=0 note=73 velocity=0 time=0
note_on channel=0 note=65 velocity=73 time=0
note_on channel=0 note=53 velocity=61 time=0
note_on channel=0 note=53 velocity=0 time=120
note_on channel=0 note=65 velocity=0 time=0
note_on channel=0 note=49 velocity=66 time=0
note_on channel=0 note=37 velocity=55 time=0
note_on channel=0 note=37 velocity=0 time=120
note_on channel=0 note=49 velocity=0 time=0
note_on channel=0 note=66 velocity=78 time=0
note_on channel=0 note=54 velocity=66 time=0
control_change channel=0 control=64 value=0 time=19
control_change channel=0 control=64 value=127 time=73
note_on channel=0 note=54 velocity=0 time=28
note_on channel=0 note=66 velocity=0 time=0
note_on channel=0 note=51 velocity=70 time=0
note_on channel=0 note=39 velocity=58 time=0
note_on channel=0 note=39 velocity=0 time=120
note_on channel=0 note=51 velocity=0 time=0
note_on channel=0 note=68 velocity=75 time=0
note_on channel=0 note=56 velocity=65 time=0
control_change channel=0 control=64 value=0 time=16
control_change channel=0 control=64 value=127 time=69
note_on channel=0 note=56 velocity=0 time=0
note_on channel=0 note=68 velocity=0 time=0
note_on channel=0 note=53 velocity=66 time=0
note_on channel=0 note=41 velocity=45 time=0
note_on channel=0 note=58 velocity=58 time=0
note_on channel=0 note=70 velocity=58 time=0
control_change channel=0 control=64 value=0 time=11
control_change channel=0 control=64 value=127 time=164
note_on channel=0 note=70 velocity=0 time=0
note_on channel=0 note=53 velocity=0 time=0
note_on channel=0 note=41 velocity=0 time=0
note_on channel=0 note=58 velocity=0 time=0
note_on channel=0 note=42 velocity=42 time=0
note_on channel=0 note=48 velocity=38 time=0
note_on channel=0 note=51 velocity=38 time=0
note_on channel=0 note=56 velocity=46 time=0
control_change channel=0 control=64 value=0 time=19
control_change channel=0 control=64 value=127 time=151
note_on channel=0 note=56 velocity=0 time=0
note_on channel=0 note=42 velocity=0 time=0
note_on channel=0 note=48 velocity=0 time=0
note_on channel=0 note=51 velocity=0 time=0
note_on channel=0 note=44 velocity=38 time=0
note_on channel=0 note=54 velocity=40 time=20
control_change channel=0 control=64 value=0 time=13
control_change channel=0 control=64 value=127 time=47
note_on channel=0 note=54 velocity=0 time=40
note_on channel=0 note=44 velocity=0 time=0
note_on channel=0 note=42 velocity=31 time=0
note_on channel=0 note=53 velocity=39 time=60
note_on channel=0 note=53 velocity=0 time=0
note_on channel=0 note=42 velocity=0 time=0
note_on channel=0 note=41 velocity=30 time=0
note_on channel=0 note=51 velocity=38 time=40
control_change channel=0 control=64 value=0 time=18
control_change channel=0 control=64 value=127 time=18
note_on channel=0 note=51 velocity=0 time=42
note_on channel=0 note=41 velocity=0 time=0
note_on channel=0 note=39 velocity=28 time=0
note_on channel=0 note=49 velocity=37 time=0
control_change channel=0 control=64 value=0 time=15
control_change channel=0 control=64 value=127 time=49
note_on channel=0 note=49 velocity=0 time=56
note_on channel=0 note=39 velocity=0 time=0
note_on channel=0 note=37 velocity=27 time=0
note_on channel=0 note=37 velocity=0 time=0
note_on channel=0 note=48 velocity=39 time=0
note_on channel=0 note=51 velocity=39 time=0
note_on channel=0 note=56 velocity=47 time=0
control_change channel=0 control=64 value=0 time=8
control_change channel=0 control=64 value=127 time=133
note_on channel=0 note=56 velocity=0 time=0
note_on channel=0 note=51 velocity=0 time=0
note_on channel=0 note=48 velocity=0 time=0
note_on channel=0 note=42 velocity=40 time=0
note_on channel=0 note=48 velocity=38 time=0
note_on channel=0 note=51 velocity=38 time=0
note_on channel=0 note=56 velocity=46 time=0
control_change channel=0 control=64 value=0 time=17
control_change channel=0 control=64 value=127 time=181
note_on channel=0 note=56 velocity=0 time=0
note_on channel=0 note=42 velocity=0 time=0
note_on channel=0 note=48 velocity=0 time=0
note_on channel=0 note=51 velocity=0 time=0
note_on channel=0 note=66 velocity=57 time=0
note_on channel=0 note=49 velocity=42 time=20
note_on channel=0 note=53 velocity=42 time=0
note_on channel=0 note=56 velocity=42 time=0
control_change channel=0 control=64 value=0 time=16
note_on channel=0 note=66 velocity=0 time=40
note_on channel=0 note=65 velocity=38 time=0
control_change channel=0 control=64 value=127 time=0
note_on channel=0 note=65 velocity=0 time=120
note_on channel=0 note=56 velocity=0 time=0
note_on channel=0 note=53 velocity=0 time=0
note_on channel=0 note=49 velocity=0 time=0
note_on channel=0 note=53 velocity=45 time=0
note_on channel=0 note=53 velocity=0 time=120
note_on channel=0 note=49 velocity=38 time=0
note_on channel=0 note=49 velocity=0 time=0
note_on channel=0 note=54 velocity=52 time=0
control_change channel=0 control=64 value=0 time=18
note_on channel=0 note=54 velocity=0 time=102
note_on channel=0 note=51 velocity=45 time=0
control_change channel=0 control=64 value=127 time=7
note_on channel=0 note=51 velocity=0 time=113
note_on channel=0 note=56 velocity=54 time=0
control_change channel=0 control=64 value=0 time=15
control_change channel=0 control=64 value=127 time=63
note_on channel=0 note=56 velocity=0 time=42
note_on channel=0 note=53 velocity=45 time=0
note_on channel=0 note=53 velocity=0 time=0
note_on channel=0 note=48 velocity=50 time=0
note_on channel=0 note=51 velocity=50 time=0
note_on channel=0 note=56 velocity=61 time=0
control_change channel=0 control=64 value=0 time=23
control_change channel=0 control=64 value=127 time=167
note_on channel=0 note=56 velocity=0 time=0
note_on channel=0 note=51 velocity=0 time=0
note_on channel=0 note=48 velocity=0 time=0
note_on channel=0 note=42 velocity=59 time=0
note_on channel=0 note=51 velocity=49 time=0
note_on channel=0 note=56 velocity=49 time=0
note_on channel=0 note=60 velocity=60 time=0
control_change channel=0 control=64 value=0 time=19
control_change channel=0 control=64 value=127 time=183
note_on channel=0 note=60 velocity=0 time=0
note_on channel=0 note=42 velocity=0 time=0
note_on channel=0 note=51 velocity=0 time=0
note_on channel=0 note=56 velocity=0 time=0
note_on channel=0 note=68 velocity=63 time=0
note_on channel=0 note=66 velocity=52 time=0
note_on channel=0 note=53 velocity=60 time=20
note_on channel=0 note=56 velocity=60 time=0
note_on channel=0 note=61 velocity=60 time=0
control_change channel=0 control=64 value=0 time=18
control_change channel=0 control=64 value=127 time=58
note_on channel=0 note=66 velocity=0 time=44
note_on channel=0 note=68 velocity=0 time=0
note_on channel=0 note=65 velocity=60 time=0
note_on channel=0 note=65 velocity=0 time=120
note_on channel=0 note=61 velocity=0 time=0
note_on channel=0 note=53 velocity=0 time=0
note_on channel=0 note=56 velocity=0 time=0
note_on channel=0 note=56 velocity=67 time=0
note_on channel=0 note=56 velocity=0 time=120
note_on channel=0 note=53 velocity=55 time=0
note_on channel=0 note=49 velocity=45 time=0
note_on channel=0 note=49 velocity=0 time=0
note_on channel=0 note=53 velocity=0 time=0
note_on channel=0 note=60 velocity=73 time=0
control_change channel=0 control=64 value=0 time=18
control_change channel=0 control=64 value=127 time=77
note_on channel=0 note=60 velocity=0 time=25
note_on channel=0 note=54 velocity=63 time=0
note_on channel=0 note=51 velocity=52 time=0
note_on channel=0 note=51 velocity=0 time=120
note_on channel=0 note=54 velocity=0 time=0
note_on channel=0 note=61 velocity=75 time=0
control_change channel=0 control=64 value=0 time=18
control_change channel=0 control=64 value=127 time=64
note_on channel=0 note=61 velocity=0 time=0
note_on channel=0 note=56 velocity=62 time=0
note_on channel=0 note=53 velocity=51 time=0
note_on channel=0 note=53 velocity=0 time=118
note_on channel=0 note=56 velocity=0 time=0
note_on channel=0 note=48 velocity=77 time=0
note_on channel=0 note=51 velocity=77 time=0
note_on channel=0 note=56 velocity=91 time=0
control_change channel=0 control=64 value=0 time=18
control_change channel=0 control=64 value=127 time=152
note_on channel=0 note=56 velocity=0 time=0
note_on channel=0 note=51 velocity=0 time=0
note_on channel=0 note=48 velocity=0 time=0
note_on channel=0 note=30 velocity=61 time=0
note_on channel=0 note=42 velocity=73 time=0
note_on channel=0 note=54 velocity=57 time=0
note_on channel=0 note=60 velocity=57 time=0
note_on channel=0 note=63 velocity=84 time=0
control_change channel=0 control=64 value=0 time=14
control_change channel=0 control=64 value=127 time=127
note_on channel=0 note=63 velocity=0 time=0
note_on channel=0 note=54 velocity=0 time=0
note_on channel=0 note=30 velocity=0 time=0
note_on channel=0 note=42 velocity=0 time=0
note_on channel=0 note=60 velocity=0 time=0
note_on channel=0 note=75 velocity=85 time=0
note_on channel=0 note=72 velocity=58 time=0
note_on channel=0 note=53 velocity=74 time=20
note_on channel=0 note=61 velocity=74 time=0
note_on channel=0 note=65 velocity=89 time=0
control_change channel=0 control=64 value=0 time=11
control_change channel=0 control=64 value=127 time=74
note_on channel=0 note=72 velocity=0 time=35
note_on channel=0 note=75 velocity=0 time=0
note_on channel=0 note=73 velocity=61 time=0
note_on channel=0 note=77 velocity=72 time=0
note_on channel=0 note=77 velocity=0 time=120
note_on channel=0 note=61 velocity=0 time=0
note_on channel=0 note=65 velocity=0 time=0
note_on channel=0 note=53 velocity=0 time=0
note_on channel=0 note=73 velocity=0 time=0
note_on channel=0 note=65 velocity=73 time=0
note_on channel=0 note=53 velocity=61 time=0
note_on channel=0 note=53 velocity=0 time=120
note_on channel=0 note=65 velocity=0 time=0
note_on channel=0 note=49 velocity=66 time=0
note_on channel=0 note=37 velocity=55 time=0
note_on channel=0 note=37 velocity=0 time=0
note_on channel=0 note=49 velocity=0 time=0
note_on channel=0 note=66 velocity=78 time=0
note_on channel=0 note=54 velocity=66 time=0
control_change channel=0 control=64 value=0 time=19
control_change channel=0 control=64 value=127 time=73
note_on channel=0 note=54 velocity=0 time=28
note_on channel=0 note=66 velocity=0 time=0
note_on channel=0 note=51 velocity=70 time=0
note_on channel=0 note=39 velocity=58 time=0
note_on channel=0 note=39 velocity=0 time=120
note_on channel=0 note=51 velocity=0 time=0
note_on channel=0 note=68 velocity=75 time=0
note_on channel=0 note=56 velocity=65 time=0
control_change channel=0 control=64 value=0 time=16
control_change channel=0 control=64 value=127 time=69
note_on channel=0 note=56 velocity=0 time=0
note_on channel=0 note=68 velocity=0 time=0
note_on channel=0 note=53 velocity=66 time=0
note_on channel=0 note=41 velocity=45 time=0
note_on channel=0 note=58 velocity=58 time=0
note_on channel=0 note=70 velocity=58 time=0
control_change channel=0 control=64 value=0 time=11
control_change channel=0 control=64 value=127 time=164
note_on channel=0 note=70 velocity=0 time=0
note_on channel=0 note=53 velocity=0 time=0
note_on channel=0 note=41 velocity=0 time=0
note_on channel=0 note=58 velocity=0 time=0
note_on channel=0 note=42 velocity=42 time=0
note_on channel=0 note=48 velocity=38 time=0
note_on channel=0 note=51 velocity=38 time=0
note_on channel=0 note=56 velocity=46 time=0
control_change channel=0 control=64 value=0 time=19
control_change channel=0 control=64 value=127 time=151
note_on channel=0 note=56 velocity=0 time=0
note_on channel=0 note=42 velocity=0 time=0
note_on channel=0 note=48 velocity=0 time=0
note_on channel=0 note=51 velocity=0 time=0
note_on channel=0 note=44 velocity=38 time=0
note_on channel=0 note=53 velocity=42 time=20
control_change channel=0 control=64 value=0 time=13
control_change channel=0 control=64 value=127 time=47
note_on channel=0 note=53 velocity=0 time=40
note_on channel=0 note=44 velocity=0 time=0
note_on channel=0 note=41 velocity=30 time=0
note_on channel=0 note=51 velocity=39 time=60
note_on channel=0 note=51 velocity=0 time=0
note_on channel=0 note=41 velocity=0 time=0
note_on channel=0 note=39 velocity=27 time=0
note_on channel=0 note=49 velocity=37 time=40
control_change channel=0 control=64 value=0 time=18
control_change channel=0 control=64 value=127 time=18
note_on channel=0 note=49 velocity=0 time=42
note_on channel=0 note=39 velocity=0 time=0
note_on channel=0 note=37 velocity=26 time=0
control_change channel=0 control=64 value=0 time=15
control_change channel=0 control=64 value=127 time=49
note_on channel=0 note=37 velocity=0 time=0
note_on channel=0 note=68 velocity=47 time=0
note_on channel=0 note=49 velocity=51 time=0
control_change channel=0 control=64 value=0 time=8
control_change channel=0 control=64 value=127 time=77
note_on channel=0 note=68 velocity=0 time=0
note_on channel=0 note=65 velocity=40 time=0
note_on channel=0 note=65 velocity=0 time=0
note_on channel=0 note=61 velocity=43 time=0
note_on channel=0 note=61 velocity=0 time=0
note_on channel=0 note=68 velocity=39 time=0
note_on channel=0 note=68 velocity=0 time=0
note_on channel=0 note=49 velocity=0 time=0
note_on channel=0 note=61 velocity=44 time=0
note_on channel=0 note=42 velocity=38 time=0
control_change channel=0 control=64 value=0 time=15
control_change channel=0 control=64 value=127 time=98
note_on channel=0 note=61 velocity=0 time=0
note_on channel=0 note=70 velocity=40 time=0
note_on channel=0 note=70 velocity=0 time=0
note_on channel=0 note=66 velocity=40 time=0
note_on channel=0 note=66 velocity=0 time=120
note_on channel=0 note=61 velocity=38 time=0
note_on channel=0 note=61 velocity=0 time=0
note_on channel=0 note=42 velocity=0 time=0
note_on channel=0 note=68 velocity=47 time=0
note_on channel=0 note=49 velocity=42 time=0
control_change channel=0 control=64 value=0 time=15
control_change channel=0 control=64 value=127 time=86
note_on channel=0 note=68 velocity=0 time=0
note_on channel=0 note=65 velocity=43 time=0
note_on channel=0 note=65 velocity=0 time=0
note_on channel=0 note=61 velocity=43 time=0
note_on channel=0 note=61 velocity=0 time=0
note_on channel=0 note=68 velocity=44 time=0
note_on channel=0 note=68 velocity=0 time=0
note_on channel=0 note=61 velocity=42 time=0
note_on channel=0 note=61 velocity=0 time=0
note_on channel=0 note=68 velocity=39 time=0
note_on channel=0 note=68 velocity=0 time=120
note_on channel=0 note=49 velocity=0 time=0
note_on channel=0 note=61 velocity=44 time=0
note_on channel=0 note=63 velocity=44 time=0
note_on channel=0 note=42 velocity=38 time=0
control_change channel=0 control=64 value=0 time=16
control_change channel=0 control=64 value=127 time=73
note_on channel=0 note=63 velocity=0 time=0
note_on channel=0 note=61 velocity=0 time=0
note_on channel=0 note=70 velocity=40 time=0
note_on channel=0 note=70 velocity=0 time=0
note_on channel=0 note=42 velocity=0 time=0
note_on channel=0 note=68 velocity=47 time=0
note_on channel=0 note=44 velocity=44 time=0
control_change channel=0 control=64 value=0 time=17
control_change channel=0 control=64 value=127 time=89
note_on channel=0 note=68 velocity=0 time=0
note_on channel=0 note=63 velocity=43 time=0
note_on channel=0 note=63 velocity=0 time=120
note_on channel=0 note=61 velocity=40 time=0
note_on channel=0 note=61 velocity=0 time=120
note_on channel=0 note=68 velocity=40 time=0
note_on channel=0 note=68 velocity=0 time=120
note_on channel=0 note=44 velocity=0 time=0
note_on channel=0 note=60 velocity=46 time=0
note_on channel=0 note=56 velocity=44 time=0
control_change channel=0 control=64 value=0 time=14
control_change channel=0 control=64 value=127 time=73
note_on channel=0 note=60 velocity=0 time=0
note_on channel=0 note=68 velocity=40 time=0
note_on channel=0 note=68 velocity=0 time=120
note_on channel=0 note=63 velocity=43 time=0
note_on channel=0 note=63 velocity=0 time=120
note_on channel=0 note=60 velocity=43 time=0
note_on channel=0 note=60 velocity=0 time=0
note_on channel=0 note=68 velocity=47 time=0
control_change channel=0 control=64 value=0 time=10
control_change channel=0 control=64 value=127 time=75
note_on channel=0 note=68 velocity=0 time=0
note_on channel=0 note=65 velocity=44 time=0
note_on channel=0 note=65 velocity=0 time=120
note_on channel=0 note=56 velocity=0 time=0
note_on channel=0 note=61 velocity=43 time=0
note_on channel=0 note=54 velocity=39 time=0
note_on channel=0 note=54 velocity=0 time=0
note_on channel=0 note=61 velocity=0 time=0
note_on channel=0 note=68 velocity=43 time=0
note_on channel=0 note=53 velocity=39 time=0
note_on channel=0 note=53 velocity=0 time=0
note_on channel=0 note=68 velocity=0 time=0
note_on channel=0 note=65 velocity=47 time=0
note_on channel=0 note=51 velocity=41 time=0
control_change channel=0 control=64 value=0 time=14
control_change channel=0 control=64 value=127 time=71
note_on channel=0 note=65 velocity=0 time=0
note_on channel=0 note=73 velocity=44 time=0
note_on channel=0 note=73 velocity=0 time=0
note_on channel=0 note=51 velocity=0 time=0
note_on channel=0 note=68 velocity=41 time=0
note_on channel=0 note=49 velocity=38 time=0
control_change channel=0 control=64 value=0 time=14
control_change channel=0 control=64 value=127 time=71
note_on channel=0 note=68 velocity=0 time=0
note_on channel=0 note=65 velocity=38 time=0
note_on channel=0 note=65 velocity=0 time=0
note_on channel=0 note=49 velocity=0 time=0
note_on channel=0 note=73 velocity=47 time=0
note_on channel=0 note=61 velocity=51 time=0
control_change channel=0 control=64 value=0 time=11
control_change channel=0 control=64 value=127 time=67
note_on channel=0 note=73 velocity=0 time=0
note_on channel=0 note=68 velocity=43 time=0
note_on channel=0 note=68 velocity=0 time=0
note_on channel=0 note=65 velocity=43 time=0
note_on channel=0 note=65 velocity=0 time=0
note_on channel=0 note=73 velocity=39 time=0
note_on channel=0 note=73 velocity=0 time=0
note_on channel=0 note=61 velocity=0 time=0
note_on channel=0 note=66 velocity=64 time=0
note_on channel=0 note=54 velocity=58 time=0
control_change channel=0 control=64 value=0 time=15
control_change channel=0 control=64 value=127 time=84
note_on channel=0 note=66 velocity=0 time=21
note_on channel=0 note=73 velocity=43 time=0
note_on channel=0 note=73 velocity=0 time=0
note_on channel=0 note=70 velocity=47 time=0
note_on channel=0 note=70 velocity=0 time=120
note_on channel=0 note=66 velocity=38 time=0
note_on channel=0 note=66 velocity=0 time=0
note_on channel=0 note=54 velocity=0 time=0
note_on channel=0 note=73 velocity=47 time=0
note_on channel=0 note=61 velocity=42 time=0
control_change channel=0 control=64 value=0 time=16
control_change channel=0 control=64 value=127 time=64
note_on channel=0 note=73 velocity=0 time=0
note_on channel=0 note=68 velocity=43 time=0
note_on channel=0 note=68 velocity=0 time=120
note_on channel=0 note=65 velocity=43 time=0
note_on channel=0 note=65 velocity=0 time=120
note_on channel=0 note=73 velocity=44 time=0
note_on channel=0 note=73 velocity=0 time=0
note_on channel=0 note=65 velocity=42 time=0
note_on channel=0 note=65 velocity=0 time=0
note_on channel=0 note=73 velocity=39 time=0
note_on channel=0 note=73 velocity=0 time=120
note_on channel=0 note=61 velocity=0 time=0
note_on channel=0 note=64 velocity=44 time=0
note_on channel=0 note=67 velocity=44 time=0
note_on channel=0 note=57 velocity=38 time=0
control_change channel=0 control=64 value=0 time=17
control_change channel=0 control=64 value=127 time=98
note_on channel=0 note=67 velocity=0 time=0
note_on channel=0 note=64 velocity=0 time=0
note_on channel=0 note=73 velocity=40 time=0
note_on channel=0 note=73 velocity=0 time=0
note_on channel=0 note=57 velocity=0 time=0
note_on channel=0 note=63 velocity=47 time=0
note_on channel=0 note=56 velocity=44 time=0
control_change channel=0 control=64 value=0 time=17
control_change channel=0 control=64 value=127 time=75
note_on channel=0 note=63 velocity=0 time=0
note_on channel=0 note=73 velocity=43 time=0
note_on channel=0 note=73 velocity=0 time=120
note_on channel=0 note=66 velocity=43 time=0
note_on channel=0 note=66 velocity=0 time=120
note_on channel=0 note=63 velocity=39 time=0
note_on channel=0 note=63 velocity=0 time=120
note_on channel=0 note=56 velocity=0 time=0
note_on channel=0 note=72 velocity=46 time=0
note_on channel=0 note=44 velocity=44 time=0
control_change channel=0 control=64 value=0 time=11
control_change channel=0 control=64 value=127 time=45
note_on channel=0 note=72 velocity=0 time=0
note_on channel=0 note=66 velocity=43 time=0
note_on channel=0 note=66 velocity=0 time=120
note_on channel=0 note=63 velocity=43 time=0
note_on channel=0 note=63 velocity=0 time=120
note_on channel=0 note=72 velocity=39 time=0
note_on channel=0 note=72 velocity=0 time=0
note_on channel=0 note=73 velocity=47 time=0
control_change channel=0 control=64 value=0 time=14
control_change channel=0 control=64 value=127 time=92
note_on channel=0 note=73 velocity=0 time=0
note_on channel=0 note=68 velocity=44 time=0
note_on channel=0 note=68 velocity=0 time=120
note_on channel=0 note=44 velocity=0 time=0
note_on channel=0 note=65 velocity=43 time=0
note_on channel=0 note=37 velocity=36 time=0
note_on channel=0 note=37 velocity=0 time=0
note_on channel=0 note=65 velocity=0 time=0
note_on channel=0 note=73 velocity=43 time=0
note_on channel=0 note=41 velocity=36 time=0
note_on channel=0 note=41 velocity=0 time=0
note_on channel=0 note=73 velocity=0 time=0
note_on channel=0 note=68 velocity=47 time=0
note_on channel=0 note=44 velocity=38 time=0
control_change channel=0 control=64 value=0 time=18
control_change channel=0 control=64 value=127 time=19
note_on channel=0 note=44 velocity=0 time=0
note_on channel=0 note=68 velocity=0 time=0
note_on channel=0 note=65 velocity=40 time=0
note_on channel=0 note=49 velocity=34 time=0
note_on channel=0 note=49 velocity=0 time=40
note_on channel=0 note=65 velocity=0 time=0
note_on channel=0 note=61 velocity=41 time=0
note_on channel=0 note=53 velocity=35 time=0
note_on channel=0 note=53 velocity=0 time=20
note_on channel=0 note=61 velocity=0 time=0
note_on channel=0 note=68 velocity=38 time=0
note_on channel=0 note=51 velocity=30 time=0
note_on channel=0 note=51 velocity=0 time=0
note_on channel=0 note=68 velocity=0 time=0
note_on channel=0 note=68 velocity=47 time=0
note_on channel=0 note=49 velocity=51 time=0
control_change channel=0 control=64 value=0 time=17
control_change channel=0 control=64 value=127 time=68
note_on channel=0 note=68 velocity=0 time=0
note_on channel=0 note=65 velocity=40 time=0
note_on channel=0 note=65 velocity=0 time=0
note_on channel=0 note=61 velocity=43 time=0
note_on channel=0 note=61 velocity=0 time=0
note_on channel=0 note=68 velocity=39 time=0
note_on channel=0 note=68 velocity=0 time=0
note_on channel=0 note=49 velocity=0 time=0
note_on channel=0 note=61 velocity=44 time=0
note_on channel=0 note=42 velocity=38 time=0
control_change channel=0 control=64 value=0 time=16
control_change channel=0 control=64 value=127 time=98
note_on channel=0 note=61 velocity=0 time=0
note_on channel=0 note=70 velocity=40 time=0
note_on channel=0 note=70 velocity=0 time=0
note_on channel=0 note=66 velocity=40 time=0
note_on channel=0 note=66 velocity=0 time=120
note_on channel=0 note=61 velocity=38 time=0
note_on channel=0 note=61 velocity=0 time=0
note_on channel=0 note=42 velocity=0 time=0
note_on channel=0 note=68 velocity=47 time=0
note_on channel=0 note=49 velocity=42 time=0
control_change channel=0 control=64 value=0 time=16
control_change channel=0 control=64 value=127 time=86
note_on channel=0 note=68 velocity=0 time=0
note_on channel=0 note=65 velocity=43 time=0
note_on channel=0 note=65 velocity=0 time=0
note_on channel=0 note=61 velocity=43 time=0
note_on channel=0 note=61 velocity=0 time=0
note_on channel=0 note=68 velocity=44 time=0
note_on channel=0 note=68 velocity=0 time=0
note_on channel=0 note=61 velocity=42 time=0
note_on channel=0 note=61 velocity=0 time=0
note_on channel=0 note=68 velocity=39 time=0
note_on channel=0 note=68 velocity=0 time=120
note_on channel=0 note=49 velocity=0 time=0
note_on channel=0 note=61 velocity=44 time=0
note_on channel=0 note=63 velocity=44 time=0
note_on channel=0 note=42 velocity=38 time=0
control_change channel=0 control=64 value=0 time=17
control_change channel=0 control=64 value=127 time=72
note_on channel=0 note=63 velocity=0 time=0
note_on channel=0 note=61 velocity=0 time=0
note_on channel=0 note=70 velocity=40 time=0
note_on channel=0 note=70 velocity=0 time=0
note_on channel=0 note=42 velocity=0 time=0
note_on channel=0 note=68 velocity=47 time=0
note_on channel=0 note=44 velocity=44 time=0
control_change channel=0 control=64 value=0 time=18
control_change channel=0 control=64 value=127 time=89
note_on channel=0 note=68 velocity=0 time=0
note_on channel=0 note=63 velocity=43 time=0
note_on channel=0 note=63 velocity=0 time=120
note_on channel=0 note=61 velocity=40 time=0
note_on channel=0 note=61 velocity=0 time=120
note_on channel=0 note=68 velocity=40 time=0
note_on channel=0 note=68 velocity=0 time=0
note_on channel=0 note=44 velocity=0 time=0
note_on channel=0 note=60 velocity=46 time=0
note_on channel=0 note=56 velocity=44 time=0
control_change channel=0 control=64 value=0 time=15
control_change channel=0 control=64 value=127 time=74
note_on channel=0 note=60 velocity=0 time=0
note_on channel=0 note=68 velocity=40 time=0
note_on channel=0 note=68 velocity=0 time=120
note_on channel=0 note=63 velocity=43 time=0
note_on channel=0 note=63 velocity=0 time=120
note_on channel=0 note=60 velocity=43 time=0
note_on channel=0 note=60 velocity=0 time=0
note_on channel=0 note=68 velocity=47 time=0
control_change channel=0 control=64 value=0 time=11
control_change channel=0 control=64 value=127 time=74
note_on channel=0 note=68 velocity=0 time=0
note_on channel=0 note=65 velocity=44 time=0
note_on channel=0 note=65 velocity=0 time=0
note_on channel=0 note=56 velocity=0 time=0
note_on channel=0 note=61 velocity=43 time=0
note_on channel=0 note=54 velocity=39 time=0
note_on channel=0 note=54 velocity=0 time=0
note_on channel=0 note=61 velocity=0 time=0
note_on channel=0 note=68 velocity=43 time=0
note_on channel=0 note=53 velocity=39 time=0
note_on channel=0 note=53 velocity=0 time=0
note_on channel=0 note=68 velocity=0 time=0
note_on channel=0 note=65 velocity=47 time=0
note_on channel=0 note=51 velocity=41 time=0
control_change channel=0 control=64 value=0 time=15
control_change channel=0 control=64 value=127 time=70
note_on channel=0 note=65 velocity=0 time=0
note_on channel=0 note=73 velocity=44 time=0
note_on channel=0 note=73 velocity=0 time=0
note_on channel=0 note=51 velocity=0 time=0
note_on channel=0 note=68 velocity=41 time=0
note_on channel=0 note=49 velocity=38 time=0
control_change channel=0 control=64 value=0 time=15
control_change channel=0 control=64 value=127 time=70
note_on channel=0 note=68 velocity=0 time=0
note_on channel=0 note=65 velocity=38 time=0
note_on channel=0 note=65 velocity=0 time=0
note_on channel=0 note=49 velocity=0 time=0
note_on channel=0 note=73 velocity=47 time=0
note_on channel=0 note=61 velocity=51 time=0
control_change channel=0 control=64 value=0 time=12
control_change channel=0 control=64 value=127 time=66
note_on channel=0 note=73 velocity=0 time=0
note_on channel=0 note=68 velocity=43 time=0
note_on channel=0 note=68 velocity=0 time=0
note_on channel=0 note=65 velocity=43 time=0
note_on channel=0 note=65 velocity=0 time=0
note_on channel=0 note=73 velocity=39 time=0
note_on channel=0 note=73 velocity=0 time=0
note_on channel=0 note=61 velocity=0 time=0
note_on channel=0 note=66 velocity=59 time=0
note_on channel=0 note=54 velocity=58 time=0
control_change channel=0 control=64 value=0 time=16
control_change channel=0 control=64 value=127 time=84
note_on channel=0 note=66 velocity=0 time=20
note_on channel=0 note=73 velocity=43 time=0
note_on channel=0 note=73 velocity=0 time=0
note_on channel=0 note=70 velocity=47 time=0
note_on channel=0 note=70 velocity=0 time=120
note_on channel=0 note=66 velocity=38 time=0
note_on channel=0 note=66 velocity=0 time=0
note_on channel=0 note=54 velocity=0 time=0
note_on channel=0 note=73 velocity=47 time=0
note_on channel=0 note=61 velocity=42 time=0
control_change channel=0 control=64 value=0 time=17
control_change channel=0 control=64 value=127 time=64
note_on channel=0 note=73 velocity=0 time=0
note_on channel=0 note=68 velocity=43 time=0
note_on channel=0 note=68 velocity=0 time=120
note_on channel=0 note=65 velocity=43 time=0
note_on channel=0 note=65 velocity=0 time=120
note_on channel=0 note=73 velocity=44 time=0
note_on channel=0 note=73 velocity=0 time=0
note_on channel=0 note=65 velocity=42 time=0
note_on channel=0 note=65 velocity=0 time=0
note_on channel=0 note=73 velocity=39 time=0
note_on channel=0 note=73 velocity=0 time=0
note_on channel=0 note=61 velocity=0 time=0
note_on channel=0 note=64 velocity=44 time=0
note_on channel=0 note=67 velocity=44 time=0
note_on channel=0 note=57 velocity=38 time=0
control_change channel=0 control=64 value=0 time=18
control_change channel=0 control=64 value=127 time=97
note_on channel=0 note=67 velocity=0 time=0
note_on channel=0 note=64 velocity=0 time=0
note_on channel=0 note=73 velocity=40 time=0
note_on channel=0 note=73 velocity=0 time=0
note_on channel=0 note=57 velocity=0 time=0
note_on channel=0 note=63 velocity=47 time=0
note_on channel=0 note=56 velocity=44 time=0
control_change channel=0 control=64 value=0 time=18
control_change channel=0 control=64 value=127 time=75
note_on channel=0 note=63 velocity=0 time=0
note_on channel=0 note=73 velocity=43 time=0
note_on channel=0 note=73 velocity=0 time=120
note_on channel=0 note=66 velocity=43 time=0
note_on channel=0 note=66 velocity=0 time=120
note_on channel=0 note=63 velocity=39 time=0
note_on channel=0 note=63 velocity=0 time=120
note_on channel=0 note=56 velocity=0 time=0
note_on channel=0 note=72 velocity=46 time=0
note_on channel=0 note=44 velocity=44 time=0
control_change channel=0 control=64 value=0 time=12
control_change channel=0 control=64 value=127 time=45
note_on channel=0 note=72 velocity=0 time=0
note_on channel=0 note=66 velocity=43 time=0
note_on channel=0 note=66 velocity=0 time=120
note_on channel=0 note=63 velocity=43 time=0
note_on channel=0 note=63 velocity=0 time=120
note_on channel=0 note=72 velocity=39 time=0
note_on channel=0 note=72 velocity=0 time=0
note_on channel=0 note=73 velocity=47 time=0
control_change channel=0 control=64 value=0 time=15
control_change channel=0 control=64 value=127 time=92
note_on channel=0 note=73 velocity=0 time=0
note_on channel=0 note=68 velocity=44 time=0
note_on channel=0 note=68 velocity=0 time=120
note_on channel=0 note=44 velocity=0 time=0
note_on channel=0 note=65 velocity=43 time=0
note_on channel=0 note=49 velocity=36 time=0
note_on channel=0 note=49 velocity=0 time=0
note_on channel=0 note=65 velocity=0 time=0
note_on channel=0 note=73 velocity=43 time=0
note_on channel=0 note=53 velocity=36 time=0
note_on channel=0 note=53 velocity=0 time=0
note_on channel=0 note=73 velocity=0 time=0
note_on channel=0 note=68 velocity=47 time=0
note_on channel=0 note=53 velocity=38 time=0
control_change channel=0 control=64 value=0 time=19
control_change channel=0 control=64 value=127 time=20
note_on channel=0 note=53 velocity=0 time=0
note_on channel=0 note=68 velocity=0 time=0
note_on channel=0 note=65 velocity=40 time=0
note_on channel=0 note=49 velocity=34 time=0
note_on channel=0 note=49 velocity=0 time=40
note_on channel=0 note=65 velocity=0 time=0
note_on channel=0 note=61 velocity=41 time=0
note_on channel=0 note=53 velocity=35 time=0
note_on channel=0 note=53 velocity=0 time=20
note_on channel=0 note=61 velocity=0 time=0
note_on channel=0 note=68 velocity=38 time=0
note_on channel=0 note=56 velocity=30 time=0
note_on channel=0 note=56 velocity=0 time=0
note_on channel=0 note=68 velocity=0 time=0
note_on channel=0 note=68 velocity=47 time=0
note_on channel=0 note=56 velocity=51 time=0
note_on channel=0 note=54 velocity=51 time=0
control_change channel=0 control=64 value=0 time=18
control_change channel=0 control=64 value=127 time=67
note_on channel=0 note=68 velocity=0 time=0
note_on channel=0 note=63 velocity=40 time=0
note_on channel=0 note=63 velocity=0 time=0
note_on channel=0 note=60 velocity=43 time=0
note_on channel=0 note=60 velocity=0 time=0
note_on channel=0 note=68 velocity=39 time=0
note_on channel=0 note=68 velocity=0 time=0
note_on channel=0 note=54 velocity=0 time=0
note_on channel=0 note=60 velocity=44 time=0
note_on channel=0 note=51 velocity=38 time=0
control_change channel=0 control=64 value=0 time=17
control_change channel=0 control=64 value=127 time=82
note_on channel=0 note=60 velocity=0 time=0
note_on channel=0 note=68 velocity=40 time=0
note_on channel=0 note=68 velocity=0 time=0
note_on channel=0 note=66 velocity=40 time=0
note_on channel=0 note=66 velocity=0 time=120
note_on channel=0 note=60 velocity=38 time=0
note_on channel=0 note=60 velocity=0 time=0
note_on channel=0 note=51 velocity=0 time=0
note_on channel=0 note=56 velocity=0 time=0
note_on channel=0 note=61 velocity=49 time=0
note_on channel=0 note=53 velocity=38 time=0
note_on channel=0 note=56 velocity=46 time=0
control_change channel=0 control=64 value=0 time=12
control_change channel=0 control=64 value=127 time=59
note_on channel=0 note=61 velocity=0 time=0
note_on channel=0 note=65 velocity=49 time=0
note_on channel=0 note=65 velocity=0 time=0
note_on channel=0 note=56 velocity=0 time=0
note_on channel=0 note=53 velocity=0 time=0
note_on channel=0 note=68 velocity=53 time=0
note_on channel=0 note=51 velocity=41 time=0
note_on channel=0 note=56 velocity=49 time=0
note_on channel=0 note=56 velocity=0 time=0
note_on channel=0 note=51 velocity=0 time=0
note_on channel=0 note=68 velocity=0 time=0
note_on channel=0 note=73 velocity=57 time=0
note_on channel=0 note=53 velocity=45 time=0
note_on channel=0 note=56 velocity=54 time=0
note_on channel=0 note=56 velocity=0 time=0
note_on channel=0 note=53 velocity=0 time=0
note_on channel=0 note=73 velocity=0 time=0
note_on channel=0 note=72 velocity=62 time=0
note_on channel=0 note=51 velocity=49 time=0
note_on channel=0 note=56 velocity=59 time=0
control_change channel=0 control=64 value=0 time=10
control_change channel=0 control=64 value=127 time=82
note_on channel=0 note=72 velocity=0 time=0
note_on channel=0 note=66 velocity=49 time=0
note_on channel=0 note=66 velocity=0 time=120
note_on channel=0 note=56 velocity=0 time=0
note_on channel=0 note=51 velocity=0 time=0
note_on channel=0 note=73 velocity=55 time=0
note_on channel=0 note=49 velocity=42 time=0
note_on channel=0 note=56 velocity=50 time=0
control_change channel=0 control=64 value=0 time=10
control_change channel=0 control=64 value=127 time=75
note_on channel=0 note=73 velocity=0 time=0
note_on channel=0 note=65 velocity=43 time=0
note_on channel=0 note=65 velocity=0 time=0
note_on channel=0 note=56 velocity=0 time=0
note_on channel=0 note=49 velocity=0 time=0
note_on channel=0 note=68 velocity=47 time=0
note_on channel=0 note=56 velocity=51 time=0
note_on channel=0 note=54 velocity=51 time=0
control_change channel=0 control=64 value=0 time=18
control_change channel=0 control=64 value=127 time=95
note_on channel=0 note=68 velocity=0 time=0
note_on channel=0 note=63 velocity=40 time=0
note_on channel=0 note=63 velocity=0 time=0
note_on channel=0 note=60 velocity=43 time=0
note_on channel=0 note=60 velocity=0 time=0
note_on channel=0 note=68 velocity=39 time=0
note_on channel=0 note=68 velocity=0 time=0
note_on channel=0 note=54 velocity=0 time=0
note_on channel=0 note=60 velocity=44 time=0
note_on channel=0 note=51 velocity=38 time=0
control_change channel=0 control=64 value=0 time=18
control_change channel=0 control=64 value=127 time=81
note_on channel=0 note=60 velocity=0 time=0
note_on channel=0 note=68 velocity=40 time=0
note_on channel=0 note=68 velocity=0 time=0
note_on channel=0 note=66 velocity=40 time=0
note_on channel=0 note=66 velocity=0 time=120
note_on channel=0 note=60 velocity=38 time=0
note_on channel=0 note=60 velocity=0 time=0
note_on channel=0 note=51 velocity=0 time=0
note_on channel=0 note=56 velocity=0 time=0
note_on channel=0 note=61 velocity=49 time=0
note_on channel=0 note=53 velocity=38 time=0
note_on channel=0 note=56 velocity=46 time=0
control_change channel=0 control=64 value=0 time=17
control_change channel=0 control=64 value=127 time=40
note_on channel=0 note=61 velocity=0 time=0
note_on channel=0 note=65 velocity=49 time=0
note_on channel=0 note=65 velocity=0 time=0
note_on channel=0 note=56 velocity=0 time=0
note_on channel=0 note=53 velocity=0 time=0
note_on channel=0 note=68 velocity=53 time=0
note_on channel=0 note=51 velocity=41 time=0
note_on channel=0 note=56 velocity=49 time=0
note_on channel=0 note=56 velocity=0 time=0
note_on channel=0 note=51 velocity=0 time=0
note_on channel=0 note=68 velocity=0 time=0
note_on channel=0 note=77 velocity=55 time=0
note_on channel=0 note=49 velocity=45 time=0
note_on channel=0 note=56 velocity=54 time=0
note_on channel=0 note=56 velocity=0 time=0
note_on channel=0 note=49 velocity=0 time=0
note_on channel=0 note=77 velocity=0 time=0
note_on channel=0 note=75 velocity=62 time=0
note_on channel=0 note=48 velocity=49 time=0
note_on channel=0 note=56 velocity=59 time=0
control_change channel=0 control=64 value=0 time=18
control_change channel=0 control=64 value=127 time=74
note_on channel=0 note=75 velocity=0 time=0
note_on channel=0 note=66 velocity=49 time=0
note_on channel=0 note=66 velocity=0 time=120
note_on channel=0 note=56 velocity=0 time=0
note_on channel=0 note=48 velocity=0 time=0
note_on channel=0 note=73 velocity=55 time=0
note_on channel=0 note=49 velocity=42 time=0
note_on channel=0 note=56 velocity=50 time=0
control_change channel=0 control=64 value=0 time=13
control_change channel=0 control=64 value=127 time=58
note_on channel=0 note=73 velocity=0 time=0
note_on channel=0 note=65 velocity=43 time=0
note_on channel=0 note=65 velocity=0 time=0
note_on channel=0 note=56 velocity=0 time=0
note_on channel=0 note=49 velocity=0 time=0
note_on channel=0 note=68 velocity=58 time=0
note_on channel=0 note=56 velocity=58 time=0
note_on channel=0 note=54 velocity=58 time=0
control_change channel=0 control=64 value=0 time=18
control_change channel=0 control=64 value=127 time=53
note_on channel=0 note=68 velocity=0 time=0
note_on channel=0 note=63 velocity=50 time=0
note_on channel=0 note=63 velocity=0 time=0
note_on channel=0 note=60 velocity=58 time=0
note_on channel=0 note=60 velocity=0 time=0
note_on channel=0 note=68 velocity=53 time=0
note_on channel=0 note=68 velocity=0 time=0
note_on channel=0 note=54 velocity=0 time=0
note_on channel=0 note=60 velocity=67 time=0
note_on channel=0 note=51 velocity=62 time=0
control_change channel=0 control=64 value=0 time=18
control_change channel=0 control=64 value=127 time=81
note_on channel=0 note=60 velocity=0 time=0
note_on channel=0 note=68 velocity=62 time=0
note_on channel=0 note=68 velocity=0 time=0
note_on channel=0 note=66 velocity=67 time=0
note_on channel=0 note=66 velocity=0 time=120
note_on channel=0 note=60 velocity=63 time=0
note_on channel=0 note=60 velocity=0 time=0
note_on channel=0 note=51 velocity=0 time=0
note_on channel=0 note=56 velocity=0 time=0
note_on channel=0 note=53 velocity=59 time=0
note_on channel=0 note=56 velocity=59 time=0
note_on channel=0 note=61 velocity=73 time=0
control_change channel=0 control=64 value=0 time=15
control_change channel=0 control=64 value=127 time=70
note_on channel=0 note=80 velocity=73 time=0
note_on channel=0 note=80 velocity=0 time=0
note_on channel=0 note=53 velocity=0 time=0
note_on channel=0 note=56 velocity=0 time=0
note_on channel=0 note=61 velocity=0 time=0
note_on channel=0 note=68 velocity=74 time=0
note_on channel=0 note=54 velocity=55 time=0
note_on channel=0 note=51 velocity=55 time=0
note_on channel=0 note=61 velocity=65 time=0
note_on channel=0 note=61 velocity=0 time=0
note_on channel=0 note=68 velocity=0 time=0
note_on channel=0 note=54 velocity=0 time=0
note_on channel=0 note=51 velocity=0 time=0
note_on channel=0 note=80 velocity=65 time=0
note_on channel=0 note=49 velocity=49 time=0
note_on channel=0 note=53 velocity=49 time=0
note_on channel=0 note=61 velocity=59 time=0
note_on channel=0 note=61 velocity=0 time=0
note_on channel=0 note=80 velocity=0 time=0
note_on channel=0 note=49 velocity=0 time=0
note_on channel=0 note=53 velocity=0 time=0
note_on channel=0 note=78 velocity=70 time=0
note_on channel=0 note=54 velocity=56 time=0
note_on channel=0 note=51 velocity=56 time=0
note_on channel=0 note=60 velocity=66 time=0
control_change channel=0 control=64 value=0 time=14
control_change channel=0 control=64 value=127 time=71
note_on channel=0 note=78 velocity=0 time=0
note_on channel=0 note=68 velocity=58 time=0
note_on channel=0 note=68 velocity=0 time=120
note_on channel=0 note=60 velocity=0 time=0
note_on channel=0 note=51 velocity=0 time=0
note_on channel=0 note=54 velocity=0 time=0
note_on channel=0 note=77 velocity=63 time=0
note_on channel=0 note=56 velocity=40 time=0
note_on channel=0 note=53 velocity=40 time=0
note_on channel=0 note=61 velocity=58 time=0
control_change channel=0 control=64 value=0 time=16
control_change channel=0 control=64 value=127 time=97
note_on channel=0 note=77 velocity=0 time=0
note_on channel=0 note=68 velocity=48 time=0
note_on channel=0 note=68 velocity=0 time=0
note_on channel=0 note=61 velocity=0 time=0
note_on channel=0 note=53 velocity=0 time=0
note_on channel=0 note=56 velocity=0 time=0
note_on channel=0 note=75 velocity=47 time=0
note_on channel=0 note=54 velocity=34 time=0
note_on channel=0 note=58 velocity=34 time=0
note_on channel=0 note=63 velocity=40 time=0
control_change channel=0 control=64 value=0 time=12
control_change channel=0 control=64 value=127 time=80
note_on channel=0 note=75 velocity=0 time=0
note_on channel=0 note=70 velocity=43 time=0
note_on channel=0 note=70 velocity=0 time=120
note_on channel=0 note=66 velocity=43 time=0
note_on channel=0 note=66 velocity=0 time=120
note_on channel=0 note=75 velocity=39 time=0
note_on channel=0 note=75 velocity=0 time=120
note_on channel=0 note=63 velocity=0 time=0
note_on channel=0 note=58 velocity=0 time=0
note_on channel=0 note=54 velocity=0 time=0
note_on channel=0 note=68 velocity=46 time=0
note_on channel=0 note=56 velocity=34 time=0
note_on channel=0 note=60 velocity=40 time=0
control_change channel=0 control=64 value=0 time=13
control_change channel=0 control=64 value=127 time=66
note_on channel=0 note=68 velocity=0 time=0
note_on channel=0 note=66 velocity=43 time=0
note_on channel=0 note=66 velocity=0 time=120
note_on channel=0 note=63 velocity=43 time=0
note_on channel=0 note=63 velocity=0 time=120
note_on channel=0 note=68 velocity=39 time=0
note_on channel=0 note=68 velocity=0 time=0
note_on channel=0 note=60 velocity=0 time=0
note_on channel=0 note=56 velocity=0 time=0
note_on channel=0 note=65 velocity=47 time=0
note_on channel=0 note=56 velocity=34 time=0
note_on channel=0 note=61 velocity=40 time=0
control_change channel=0 control=64 value=0 time=15
control_change channel=0 control=64 value=127 time=63
note_on channel=0 note=65 velocity=0 time=0
note_on channel=0 note=73 velocity=44 time=0
note_on channel=0 note=73 velocity=0 time=120
note_on channel=0 note=61 velocity=0 time=0
note_on channel=0 note=56 velocity=0 time=0
note_on channel=0 note=68 velocity=43 time=0
note_on channel=0 note=49 velocity=36 time=0
note_on channel=0 note=49 velocity=0 time=0
note_on channel=0 note=68 velocity=0 time=0
note_on channel=0 note=65 velocity=43 time=0
note_on channel=0 note=51 velocity=36 time=0
note_on channel=0 note=51 velocity=0 time=0
note_on channel=0 note=65 velocity=0 time=0
note_on channel=0 note=61 velocity=47 time=0
note_on channel=0 note=53 velocity=38 time=0
control_change channel=0 control=64 value=0 time=13
control_change channel=0 control=64 value=127 time=19
note_on channel=0 note=53 velocity=0 time=0
note_on channel=0 note=61 velocity=0 time=0
note_on channel=0 note=49 velocity=28 time=0
note_on channel=0 note=56 velocity=34 time=0
note_on channel=0 note=56 velocity=0 time=40
note_on channel=0 note=49 velocity=0 time=0
note_on channel=0 note=51 velocity=29 time=0
note_on channel=0 note=56 velocity=35 time=0
control_change channel=0 control=64 value=0 time=15
control_change channel=0 control=64 value=127 time=18
note_on channel=0 note=56 velocity=0 time=20
note_on channel=0 note=51 velocity=0 time=0
note_on channel=0 note=53 velocity=25 time=0
note_on channel=0 note=56 velocity=30 time=0
note_on channel=0 note=56 velocity=0 time=0
note_on channel=0 note=53 velocity=0 time=0
note_on channel=0 note=68 velocity=47 time=0
note_on channel=0 note=56 velocity=51 time=0
note_on channel=0 note=54 velocity=51 time=0
control_change channel=0 control=64 value=0 time=9
control_change channel=0 control=64 value=127 time=76
note_on channel=0 note=68 velocity=0 time=0
note_on channel=0 note=63 velocity=40 time=0
note_on channel=0 note=63 velocity=0 time=0
note_on channel=0 note=60 velocity=43 time=0
note_on channel=0 note=60 velocity=0 time=0
note_on channel=0 note=68 velocity=39 time=0
note_on channel=0 note=68 velocity=0 time=0
note_on channel=0 note=54 velocity=0 time=0
note_on channel=0 note=60 velocity=44 time=0
note_on channel=0 note=51 velocity=38 time=0
control_change channel=0 control=64 value=0 time=18
control_change channel=0 control=64 value=127 time=82
note_on channel=0 note=60 velocity=0 time=0
note_on channel=0 note=68 velocity=40 time=0
note_on channel=0 note=68 velocity=0 time=0
note_on channel=0 note=66 velocity=40 time=0
note_on channel=0 note=66 velocity=0 time=120
note_on channel=0 note=60 velocity=38 time=0
note_on channel=0 note=60 velocity=0 time=0
note_on channel=0 note=51 velocity=0 time=0
note_on channel=0 note=56 velocity=0 time=0
note_on channel=0 note=61 velocity=49 time=0
note_on channel=0 note=53 velocity=38 time=0
note_on channel=0 note=56 velocity=46 time=0
control_change channel=0 control=64 value=0 time=13
control_change channel=0 control=64 value=127 time=58
note_on channel=0 note=61 velocity=0 time=0
note_on channel=0 note=65 velocity=49 time=0
note_on channel=0 note=65 velocity=0 time=0
note_on channel=0 note=56 velocity=0 time=0
note_on channel=0 note=53 velocity=0 time=0
note_on channel=0 note=68 velocity=53 time=0
note_on channel=0 note=51 velocity=41 time=0
note_on channel=0 note=56 velocity=49 time=0
note_on channel=0 note=56 velocity=0 time=0
note_on channel=0 note=51 velocity=0 time=0
note_on channel=0 note=68 velocity=0 time=0
note_on channel=0 note=73 velocity=57 time=0
note_on channel=0 note=53 velocity=45 time=0
note_on channel=0 note=56 velocity=54 time=0
note_on channel=0 note=56 velocity=0 time=0
note_on channel=0 note=53 velocity=0 time=0
note_on channel=0 note=73 velocity=0 time=0
note_on channel=0 note=72 velocity=62 time=0
note_on channel=0 note=51 velocity=49 time=0
note_on channel=0 note=56 velocity=59 time=0
control_change channel=0 control=64 value=0 time=11
control_change channel=0 control=64 value=127 time=82
note_on channel=0 note=72 velocity=0 time=0
note_on channel=0 note=66 velocity=49 time=0
note_on channel=0 note=66 velocity=0 time=120
note_on channel=0 note=56 velocity=0 time=0
note_on channel=0 note=51 velocity=0 time=0
note_on channel=0 note=73 velocity=55 time=0
note_on channel=0 note=49 velocity=42 time=0
note_on channel=0 note=56 velocity=50 time=0
control_change channel=0 control=64 value=0 time=11
control_change channel=0 control=64 value=127 time=74
note_on channel=0 note=73 velocity=0 time=0
note_on channel=0 note=65 velocity=43 time=0
note_on channel=0 note=65 velocity=0 time=0
note_on channel=0 note=56 velocity=0 time=0
note_on channel=0 note=49 velocity=0 time=0
note_on channel=0 note=68 velocity=47 time=0
note_on channel=0 note=56 velocity=51 time=0
note_on channel=0 note=54 velocity=51 time=0
control_change channel=0 control=64 value=0 time=19
control_change channel=0 control=64 value=127 time=95
note_on channel=0 note=68 velocity=0 time=0
note_on channel=0 note=63 velocity=40 time=0
note_on channel=0 note=63 velocity=0 time=0
note_on channel=0 note=60 velocity=43 time=0
note_on channel=0 note=60 velocity=0 time=0
note_on channel=0 note=68 velocity=39 time=0
note_on channel=0 note=68 velocity=0 time=0
note_on channel=0 note=54 velocity=0 time=0
note_on channel=0 note=60 velocity=44 time=0
note_on channel=0 note=51 velocity=38 time=0
control_change channel=0 control=64 value=0 time=19
control_change channel=0 control=64 value=127 time=81
note_on channel=0 note=60 velocity=0 time=0
note_on channel=0 note=68 velocity=40 time=0
note_on channel=0 note=68 velocity=0 time=0
note_on channel=0 note=66 velocity=40 time=0
note_on channel=0 note=66 velocity=0 time=120
note_on channel=0 note=60 velocity=38 time=0
note_on channel=0 note=60 velocity=0 time=0
note_on channel=0 note=51 velocity=0 time=0
note_on channel=0 note=56 velocity=0 time=0
note_on channel=0 note=61 velocity=49 time=0
note_on channel=0 note=53 velocity=38 time=0
note_on channel=0 note=56 velocity=46 time=0
control_change channel=0 control=64 value=0 time=18
control_change channel=0 control=64 value=127 time=39
note_on channel=0 note=61 velocity=0 time=0
note_on channel=0 note=65 velocity=49 time=0
note_on channel=0 note=65 velocity=0 time=0
note_on channel=0 note=56 velocity=0 time=0
note_on channel=0 note=53 velocity=0 time=0
note_on channel=0 note=68 velocity=53 time=0
note_on channel=0 note=51 velocity=41 time=0
note_on channel=0 note=56 velocity=49 time=0
note_on channel=0 note=56 velocity=0 time=0
note_on channel=0 note=51 velocity=0 time=0
note_on channel=0 note=68 velocity=0 time=0
note_on channel=0 note=77 velocity=54 time=0
note_on channel=0 note=49 velocity=45 time=0
note_on channel=0 note=56 velocity=54 time=0
note_on channel=0 note=56 velocity=0 time=0
note_on channel=0 note=49 velocity=0 time=0
note_on channel=0 note=77 velocity=0 time=0
note_on channel=0 note=75 velocity=62 time=0
note_on channel=0 note=48 velocity=49 time=0
note_on channel=0 note=56 velocity=59 time=0
control_change channel=0 control=64 value=0 time=19
control_change channel=0 control=64 value=127 time=74
note_on channel=0 note=75 velocity=0 time=0
note_on channel=0 note=66 velocity=49 time=0
note_on channel=0 note=66 velocity=0 time=120
note_on channel=0 note=56 velocity=0 time=0
note_on channel=0 note=48 velocity=0 time=0
note_on channel=0 note=73 velocity=55 time=0
note_on channel=0 note=49 velocity=42 time=0
note_on channel=0 note=56 velocity=50 time=0
control_change channel=0 control=64 value=0 time=14
control_change channel=0 control=64 value=127 time=57
note_on channel=0 note=73 velocity=0 time=0
note_on channel=0 note=65 velocity=43 time=0
note_on channel=0 note=65 velocity=0 time=0
note_on channel=0 note=56 velocity=0 time=0
note_on channel=0 note=49 velocity=0 time=0
note_on channel=0 note=68 velocity=58 time=0
note_on channel=0 note=56 velocity=58 time=0
note_on channel=0 note=54 velocity=58 time=0
control_change channel=0 control=64 value=0 time=19
control_change channel=0 control=64 value=127 time=52
note_on channel=0 note=68 velocity=0 time=0
note_on channel=0 note=63 velocity=50 time=0
note_on channel=0 note=63 velocity=0 time=0
note_on channel=0 note=60 velocity=58 time=0
note_on channel=0 note=60 velocity=0 time=0
note_on channel=0 note=68 velocity=53 time=0
note_on channel=0 note=68 velocity=0 time=0
note_on channel=0 note=54 velocity=0 time=0
note_on channel=0 note=60 velocity=67 time=0
note_on channel=0 note=51 velocity=62 time=0
control_change channel=0 control=64 value=0 time=19
control_change channel=0 control=64 value=127 time=81
note_on channel=0 note=60 velocity=0 time=0
note_on channel=0 note=68 velocity=62 time=0
note_on channel=0 note=68 velocity=0 time=0
note_on channel=0 note=66 velocity=67 time=0
note_on channel=0 note=66 velocity=0 time=0
note_on channel=0 note=60 velocity=64 time=0
note_on channel=0 note=60 velocity=0 time=0
note_on channel=0 note=51 velocity=0 time=0
note_on channel=0 note=56 velocity=0 time=0
note_on channel=0 note=53 velocity=59 time=0
note_on channel=0 note=56 velocity=59 time=0
note_on channel=0 note=61 velocity=73 time=0
control_change channel=0 control=64 value=0 time=16
control_change channel=0 control=64 value=127 time=69
note_on channel=0 note=80 velocity=74 time=0
note_on channel=0 note=80 velocity=0 time=0
note_on channel=0 note=53 velocity=0 time=0
note_on channel=0 note=56 velocity=0 time=0
note_on channel=0 note=61 velocity=0 time=0
note_on channel=0 note=68 velocity=74 time=0
note_on channel=0 note=54 velocity=55 time=0
note_on channel=0 note=51 velocity=55 time=0
note_on channel=0 note=61 velocity=65 time=0
note_on channel=0 note=61 velocity=0 time=0
note_on channel=0 note=68 velocity=0 time=0
note_on channel=0 note=54 velocity=0 time=0
note_on channel=0 note=51 velocity=0 time=0
note_on channel=0 note=80 velocity=66 time=0
note_on channel=0 note=49 velocity=49 time=0
note_on channel=0 note=53 velocity=49 time=0
note_on channel=0 note=61 velocity=59 time=0
note_on channel=0 note=61 velocity=0 time=0
note_on channel=0 note=80 velocity=0 time=0
note_on channel=0 note=49 velocity=0 time=0
note_on channel=0 note=53 velocity=0 time=0
note_on channel=0 note=78 velocity=73 time=0
note_on channel=0 note=54 velocity=56 time=0
note_on channel=0 note=51 velocity=56 time=0
note_on channel=0 note=60 velocity=66 time=0
control_change channel=0 control=64 value=0 time=15
control_change channel=0 control=64 value=127 time=70
note_on channel=0 note=78 velocity=0 time=0
note_on channel=0 note=68 velocity=58 time=0
note_on channel=0 note=68 velocity=0 time=120
note_on channel=0 note=60 velocity=0 time=0
note_on channel=0 note=51 velocity=0 time=0
note_on channel=0 note=54 velocity=0 time=0
note_on channel=0 note=77 velocity=63 time=0
note_on channel=0 note=56 velocity=40 time=0
note_on channel=0 note=53 velocity=40 time=0
note_on channel=0 note=61 velocity=58 time=0
control_change channel=0 control=64 value=0 time=17
control_change channel=0 control=64 value=127 time=97
note_on channel=0 note=77 velocity=0 time=0
note_on channel=0 note=68 velocity=48 time=0
note_on channel=0 note=68 velocity=0 time=0
note_on channel=0 note=61 velocity=0 time=0
note_on channel=0 note=53 velocity=0 time=0
note_on channel=0 note=56 velocity=0 time=0
note_on channel=0 note=75 velocity=47 time=0
note_on channel=0 note=54 velocity=34 time=0
note_on channel=0 note=58 velocity=34 time=0
note_on channel=0 note=63 velocity=40 time=0
control_change channel=0 control=64 value=0 time=13
control_change channel=0 control=64 value=127 time=80
note_on channel=0 note=75 velocity=0 time=0
note_on channel=0 note=70 velocity=43 time=0
note_on channel=0 note=70 velocity=0 time=120
note_on channel=0 note=66 velocity=43 time=0
note_on channel=0 note=66 velocity=0 time=120
note_on channel=0 note=75 velocity=39 time=0
note_on channel=0 note=75 velocity=0 time=120
note_on channel=0 note=63 velocity=0 time=0
note_on channel=0 note=58 velocity=0 time=0
note_on channel=0 note=54 velocity=0 time=0
note_on channel=0 note=68 velocity=46 time=0
note_on channel=0 note=56 velocity=34 time=0
note_on channel=0 note=60 velocity=40 time=0
control_change channel=0 control=64 value=0 time=14
control_change channel=0 control=64 value=127 time=67
note_on channel=0 note=68 velocity=0 time=0
note_on channel=0 note=66 velocity=43 time=0
note_on channel=0 note=66 velocity=0 time=120
note_on channel=0 note=63 velocity=43 time=0
note_on channel=0 note=63 velocity=0 time=120
note_on channel=0 note=68 velocity=39 time=0
note_on channel=0 note=68 velocity=0 time=0
note_on channel=0 note=60 velocity=0 time=0
note_on channel=0 note=56 velocity=0 time=0
note_on channel=0 note=65 velocity=47 time=0
note_on channel=0 note=56 velocity=34 time=0
note_on channel=0 note=61 velocity=40 time=0
control_change channel=0 control=64 value=0 time=16
control_change channel=0 control=64 value=127 time=62
note_on channel=0 note=65 velocity=0 time=0
note_on channel=0 note=73 velocity=44 time=0
note_on channel=0 note=73 velocity=0 time=120
note_on channel=0 note=61 velocity=0 time=0
note_on channel=0 note=56 velocity=0 time=0
note_on channel=0 note=68 velocity=43 time=0
note_on channel=0 note=49 velocity=36 time=0
note_on channel=0 note=68 velocity=0 time=0
note_on channel=0 note=65 velocity=43 time=0
note_on channel=0 note=65 velocity=0 time=0
note_on channel=0 note=49 velocity=0 time=0
note_on channel=0 note=61 velocity=47 time=0
control_change channel=0 control=64 value=0 time=14
note_on channel=0 note=68 velocity=40 time=40
control_change channel=0 control=64 value=127 time=20
note_on channel=0 note=68 velocity=0 time=0
note_on channel=0 note=61 velocity=0 time=0
note_on channel=0 note=65 velocity=37 time=0
note_on channel=0 note=65 velocity=0 time=20
note_on channel=0 note=68 velocity=37 time=0
note_on channel=0 note=68 velocity=0 time=40
note_on channel=0 note=64 velocity=40 time=0
control_change channel=0 control=64 value=0 time=16
note_on channel=0 note=64 velocity=0 time=0
note_on channel=0 note=68 velocity=37 time=0
control_change channel=0 control=64 value=127 time=18
note_on channel=0 note=68 velocity=0 time=20
note_on channel=0 note=65 velocity=37 time=0
note_on channel=0 note=65 velocity=0 time=0
note_on channel=0 note=68 velocity=37 time=0
note_on channel=0 note=68 velocity=0 time=0
note_on channel=0 note=61 velocity=40 time=0
control_change channel=0 control=64 value=0 time=10
note_on channel=0 note=61 velocity=0 time=50
note_on channel=0 note=68 velocity=36 time=0
control_change channel=0 control=64 value=127 time=0
note_on channel=0 note=68 velocity=0 time=0
note_on channel=0 note=65 velocity=36 time=0
note_on channel=0 note=65 velocity=0 time=60
note_on channel=0 note=68 velocity=36 time=0
note_on channel=0 note=68 velocity=0 time=60
note_on channel=0 note=80 velocity=72 time=0
note_on channel=0 note=73 velocity=40 time=0
note_on channel=0 note=73 velocity=0 time=60
note_on channel=0 note=68 velocity=36 time=0
note_on channel=0 note=68 velocity=0 time=60
note_on channel=0 note=65 velocity=36 time=0
note_on channel=0 note=65 velocity=0 time=60
note_on channel=0 note=68 velocity=36 time=0
note_on channel=0 note=68 velocity=0 time=60
note_on channel=0 note=61 velocity=40 time=0
control_change channel=0 control=64 value=0 time=10
note_on channel=0 note=61 velocity=0 time=50
note_on channel=0 note=70 velocity=35 time=0
control_change channel=0 control=64 value=127 time=7
note_on channel=0 note=70 velocity=0 time=0
note_on channel=0 note=66 velocity=37 time=0
note_on channel=0 note=66 velocity=0 time=60
note_on channel=0 note=70 velocity=37 time=0
note_on channel=0 note=70 velocity=0 time=0
note_on channel=0 note=80 velocity=0 time=0
note_on channel=0 note=82 velocity=74 time=0
note_on channel=0 note=73 velocity=40 time=0
note_on channel=0 note=73 velocity=0 time=60
note_on channel=0 note=70 velocity=37 time=0
note_on channel=0 note=70 velocity=0 time=60
note_on channel=0 note=66 velocity=37 time=0
note_on channel=0 note=66 velocity=0 time=60
note_on channel=0 note=70 velocity=37 time=0
note_on channel=0 note=70 velocity=0 time=60
note_on channel=0 note=61 velocity=40 time=0
control_change channel=0 control=64 value=0 time=14
control_change channel=0 control=64 value=127 time=36
note_on channel=0 note=61 velocity=0 time=10
note_on channel=0 note=68 velocity=37 time=0
note_on channel=0 note=68 velocity=0 time=60
note_on channel=0 note=65 velocity=37 time=0
note_on channel=0 note=65 velocity=0 time=60
note_on channel=0 note=68 velocity=37 time=0
note_on channel=0 note=68 velocity=0 time=60
note_on channel=0 note=82 velocity=0 time=0
note_on channel=0 note=80 velocity=72 time=0
note_on channel=0 note=73 velocity=40 time=0
note_on channel=0 note=73 velocity=0 time=60
note_on channel=0 note=68 velocity=37 time=0
note_on channel=0 note=68 velocity=0 time=60
note_on channel=0 note=65 velocity=37 time=0
note_on channel=0 note=65 velocity=0 time=60
note_on channel=0 note=68 velocity=37 time=0
note_on channel=0 note=68 velocity=0 time=60
note_on channel=0 note=61 velocity=40 time=0
control_change channel=0 control=64 value=0 time=17
note_on channel=0 note=61 velocity=0 time=43
note_on channel=0 note=68 velocity=37 time=0
control_change channel=0 control=64 value=127 time=4
note_on channel=0 note=68 velocity=0 time=56
note_on channel=0 note=65 velocity=37 time=0
note_on channel=0 note=65 velocity=0 time=60
note_on channel=0 note=68 velocity=37 time=0
note_on channel=0 note=68 velocity=0 time=0
note_on channel=0 note=80 velocity=0 time=0
note_on channel=0 note=73 velocity=65 time=0
note_on channel=0 note=75 velocity=65 time=0
note_on channel=0 note=82 velocity=77 time=0
note_on channel=0 note=54 velocity=52 time=0
control_change channel=0 control=64 value=0 time=9
control_change channel=0 control=64 value=127 time=37
note_on channel=0 note=54 velocity=0 time=14
note_on channel=0 note=66 velocity=46 time=0
note_on channel=0 note=66 velocity=0 time=60
note_on channel=0 note=63 velocity=46 time=0
note_on channel=0 note=63 velocity=0 time=60
note_on channel=0 note=66 velocity=46 time=0
note_on channel=0 note=66 velocity=0 time=0
note_on channel=0 note=82 velocity=0 time=0
note_on channel=0 note=75 velocity=0 time=0
note_on channel=0 note=73 velocity=0 time=0
note_on channel=0 note=73 velocity=68 time=0
note_on channel=0 note=75 velocity=68 time=0
note_on channel=0 note=80 velocity=80 time=0
note_on channel=0 note=56 velocity=57 time=0
control_change channel=0 control=64 value=0 time=11
control_change channel=0 control=64 value=127 time=35
note_on channel=0 note=56 velocity=0 time=14
note_on channel=0 note=66 velocity=46 time=0
note_on channel=0 note=66 velocity=0 time=60
note_on channel=0 note=63 velocity=46 time=0
note_on channel=0 note=63 velocity=0 time=60
note_on channel=0 note=66 velocity=46 time=0
note_on channel=0 note=66 velocity=0 time=60
note_on channel=0 note=80 velocity=0 time=0
note_on channel=0 note=75 velocity=0 time=0
note_on channel=0 note=73 velocity=0 time=0
note_on channel=0 note=73 velocity=65 time=0
note_on channel=0 note=75 velocity=65 time=0
note_on channel=0 note=80 velocity=77 time=0
note_on channel=0 note=56 velocity=57 time=0
note_on channel=0 note=56 velocity=0 time=60
note_on channel=0 note=66 velocity=46 time=0
note_on channel=0 note=66 velocity=0 time=60
note_on channel=0 note=63 velocity=46 time=0
note_on channel=0 note=63 velocity=0 time=60
note_on channel=0 note=66 velocity=46 time=0
note_on channel=0 note=66 velocity=0 time=0
note_on channel=0 note=80 velocity=0 time=0
note_on channel=0 note=75 velocity=0 time=0
note_on channel=0 note=73 velocity=0 time=0
note_on channel=0 note=72 velocity=69 time=0
note_on channel=0 note=75 velocity=69 time=0
note_on channel=0 note=80 velocity=81 time=0
note_on channel=0 note=56 velocity=59 time=0
control_change channel=0 control=64 value=0 time=21
control_change channel=0 control=64 value=127 time=32
note_on channel=0 note=56 velocity=0 time=7
note_on channel=0 note=66 velocity=46 time=0
note_on channel=0 note=66 velocity=0 time=60
note_on channel=0 note=63 velocity=46 time=0
note_on channel=0 note=63 velocity=0 time=60
note_on channel=0 note=66 velocity=46 time=0
note_on channel=0 note=66 velocity=0 time=60
note_on channel=0 note=80 velocity=0 time=0
note_on channel=0 note=75 velocity=0 time=0
note_on channel=0 note=72 velocity=0 time=0
note_on channel=0 note=72 velocity=65 time=0
note_on channel=0 note=75 velocity=65 time=0
note_on channel=0 note=80 velocity=76 time=0
note_on channel=0 note=56 velocity=58 time=0
note_on channel=0 note=56 velocity=0 time=60
note_on channel=0 note=66 velocity=46 time=0
note_on channel=0 note=66 velocity=0 time=60
note_on channel=0 note=63 velocity=46 time=0
note_on channel=0 note=63 velocity=0 time=60
note_on channel=0 note=66 velocity=46 time=0
note_on channel=0 note=66 velocity=0 time=0
note_on channel=0 note=80 velocity=0 time=0
note_on channel=0 note=75 velocity=0 time=0
note_on channel=0 note=72 velocity=0 time=0
note_on channel=0 note=73 velocity=68 time=0
note_on channel=0 note=77 velocity=68 time=0
note_on channel=0 note=80 velocity=80 time=0
note_on channel=0 note=61 velocity=46 time=0
control_change channel=0 control=64 value=0 time=3
control_change channel=0 control=64 value=127 time=40
note_on channel=0 note=61 velocity=0 time=17
note_on channel=0 note=63 velocity=47 time=0
note_on channel=0 note=63 velocity=0 time=0
note_on channel=0 note=65 velocity=48 time=0
note_on channel=0 note=65 velocity=0 time=60
note_on channel=0 note=66 velocity=49 time=0
note_on channel=0 note=66 velocity=0 time=0
note_on channel=0 note=80 velocity=0 time=0
note_on channel=0 note=77 velocity=0 time=0
note_on channel=0 note=73 velocity=0 time=0
note_on channel=0 note=68 velocity=52 time=0
control_change channel=0 control=64 value=0 time=12
note_on channel=0 note=68 velocity=0 time=48
note_on channel=0 note=70 velocity=49 time=0
control_change channel=0 control=64 value=127 time=0
note_on channel=0 note=70 velocity=0 time=0
note_on channel=0 note=68 velocity=51 time=0
note_on channel=0 note=68 velocity=0 time=60
note_on channel=0 note=66 velocity=50 time=0
note_on channel=0 note=66 velocity=0 time=20
note_on channel=0 note=65 velocity=45 time=0
control_change channel=0 control=64 value=0 time=14
control_change channel=0 control=64 value=127 time=37
note_on channel=0 note=65 velocity=0 time=3
note_on channel=0 note=66 velocity=47 time=0
note_on channel=0 note=66 velocity=0 time=0
note_on channel=0 note=68 velocity=48 time=0
note_on channel=0 note=68 velocity=0 time=0
note_on channel=0 note=70 velocity=49 time=0
note_on channel=0 note=70 velocity=0 time=20
note_on channel=0 note=72 velocity=54 time=0
control_change channel=0 control=64 value=0 time=5
control_change channel=0 control=64 value=127 time=6
note_on channel=0 note=72 velocity=0 time=14
note_on channel=0 note=73 velocity=46 time=0
note_on channel=0 note=73 velocity=0 time=40
note_on channel=0 note=68 velocity=50 time=0
note_on channel=0 note=68 velocity=0 time=0
note_on channel=0 note=66 velocity=46 time=0
note_on channel=0 note=66 velocity=0 time=0
note_on channel=0 note=65 velocity=40 time=0
control_change channel=0 control=64 value=0 time=13
control_change channel=0 control=64 value=127 time=23
note_on channel=0 note=65 velocity=0 time=24
note_on channel=0 note=73 velocity=36 time=0
note_on channel=0 note=73 velocity=0 time=0
note_on channel=0 note=68 velocity=36 time=0
note_on channel=0 note=68 velocity=0 time=60
note_on channel=0 note=73 velocity=36 time=0
note_on channel=0 note=73 velocity=0 time=60
note_on channel=0 note=85 velocity=72 time=0
note_on channel=0 note=80 velocity=60 time=0
note_on channel=0 note=77 velocity=40 time=0
note_on channel=0 note=77 velocity=0 time=60
note_on channel=0 note=73 velocity=36 time=0
note_on channel=0 note=73 velocity=0 time=60
note_on channel=0 note=68 velocity=36 time=0
note_on channel=0 note=68 velocity=0 time=60
note_on channel=0 note=73 velocity=36 time=0
note_on channel=0 note=73 velocity=0 time=60
note_on channel=0 note=66 velocity=40 time=0
control_change channel=0 control=64 value=0 time=17
control_change channel=0 control=64 value=127 time=40
note_on channel=0 note=66 velocity=0 time=3
note_on channel=0 note=73 velocity=35 time=0
note_on channel=0 note=73 velocity=0 time=0
note_on channel=0 note=70 velocity=37 time=0
note_on channel=0 note=70 velocity=0 time=60
note_on channel=0 note=73 velocity=37 time=0
note_on channel=0 note=73 velocity=0 time=0
note_on channel=0 note=80 velocity=0 time=0
note_on channel=0 note=85 velocity=0 time=0
note_on channel=0 note=85 velocity=73 time=0
note_on channel=0 note=82 velocity=61 time=0
note_on channel=0 note=78 velocity=40 time=0
note_on channel=0 note=78 velocity=0 time=60
note_on channel=0 note=73 velocity=37 time=0
note_on channel=0 note=73 velocity=0 time=60
note_on channel=0 note=70 velocity=37 time=0
note_on channel=0 note=70 velocity=0 time=60
note_on channel=0 note=73 velocity=37 time=0
note_on channel=0 note=73 velocity=0 time=60
note_on channel=0 note=65 velocity=40 time=0
control_change channel=0 control=64 value=0 time=13
control_change channel=0 control=64 value=127 time=27
note_on channel=0 note=65 velocity=0 time=20
note_on channel=0 note=73 velocity=37 time=0
note_on channel=0 note=73 velocity=0 time=60
note_on channel=0 note=68 velocity=37 time=0
note_on channel=0 note=68 velocity=0 time=60
note_on channel=0 note=73 velocity=37 time=0
note_on channel=0 note=73 velocity=0 time=60
note_on channel=0 note=82 velocity=0 time=0
note_on channel=0 note=85 velocity=0 time=0
note_on channel=0 note=85 velocity=74 time=0
note_on channel=0 note=80 velocity=63 time=0
note_on channel=0 note=77 velocity=40 time=0
note_on channel=0 note=77 velocity=0 time=60
note_on channel=0 note=73 velocity=37 time=0
note_on channel=0 note=73 velocity=0 time=60
note_on channel=0 note=68 velocity=37 time=0
note_on channel=0 note=68 velocity=0 time=60
note_on channel=0 note=73 velocity=37 time=0
note_on channel=0 note=73 velocity=0 time=60
note_on channel=0 note=65 velocity=40 time=0
control_change channel=0 control=64 value=0 time=13
control_change channel=0 control=64 value=127 time=33
note_on channel=0 note=65 velocity=0 time=14
note_on channel=0 note=73 velocity=37 time=0
note_on channel=0 note=73 velocity=0 time=60
note_on channel=0 note=68 velocity=37 time=0
note_on channel=0 note=68 velocity=0 time=60
note_on channel=0 note=73 velocity=37 time=0
note_on channel=0 note=73 velocity=0 time=0
note_on channel=0 note=80 velocity=0 time=0
note_on channel=0 note=85 velocity=0 time=0
note_on channel=0 note=73 velocity=65 time=0
note_on channel=0 note=79 velocity=65 time=0
note_on channel=0 note=85 velocity=77 time=0
note_on channel=0 note=64 velocity=52 time=0
control_change channel=0 control=64 value=0 time=9
control_change channel=0 control=64 value=127 time=26
note_on channel=0 note=64 velocity=0 time=25
note_on channel=0 note=70 velocity=46 time=0
note_on channel=0 note=70 velocity=0 time=60
note_on channel=0 note=67 velocity=46 time=0
note_on channel=0 note=67 velocity=0 time=60
note_on channel=0 note=70 velocity=46 time=0
note_on channel=0 note=70 velocity=0 time=0
note_on channel=0 note=85 velocity=0 time=0
note_on channel=0 note=79 velocity=0 time=0
note_on channel=0 note=73 velocity=0 time=0
note_on channel=0 note=73 velocity=68 time=0
note_on channel=0 note=78 velocity=68 time=0
note_on channel=0 note=85 velocity=80 time=0
note_on channel=0 note=63 velocity=57 time=0
control_change channel=0 control=64 value=0 time=15
control_change channel=0 control=64 value=127 time=28
note_on channel=0 note=63 velocity=0 time=17
note_on channel=0 note=69 velocity=46 time=0
note_on channel=0 note=69 velocity=0 time=60
note_on channel=0 note=66 velocity=46 time=0
note_on channel=0 note=66 velocity=0 time=60
note_on channel=0 note=69 velocity=46 time=0
note_on channel=0 note=69 velocity=0 time=0
note_on channel=0 note=85 velocity=0 time=0
note_on channel=0 note=78 velocity=0 time=0
note_on channel=0 note=73 velocity=0 time=0
note_on channel=0 note=73 velocity=65 time=0
note_on channel=0 note=78 velocity=65 time=0
note_on channel=0 note=85 velocity=77 time=0
note_on channel=0 note=63 velocity=57 time=0
note_on channel=0 note=63 velocity=0 time=60
note_on channel=0 note=69 velocity=46 time=0
note_on channel=0 note=69 velocity=0 time=60
note_on channel=0 note=66 velocity=46 time=0
note_on channel=0 note=66 velocity=0 time=60
note_on channel=0 note=69 velocity=46 time=0
note_on channel=0 note=69 velocity=0 time=0
note_on channel=0 note=85 velocity=0 time=0
note_on channel=0 note=78 velocity=0 time=0
note_on channel=0 note=73 velocity=0 time=0
note_on channel=0 note=72 velocity=69 time=0
note_on channel=0 note=78 velocity=69 time=0
note_on channel=0 note=84 velocity=81 time=0
note_on channel=0 note=63 velocity=59 time=0
control_change channel=0 control=64 value=0 time=15
control_change channel=0 control=64 value=127 time=34
note_on channel=0 note=63 velocity=0 time=11
note_on channel=0 note=68 velocity=46 time=0
note_on channel=0 note=68 velocity=0 time=60
note_on channel=0 note=66 velocity=46 time=0
note_on channel=0 note=66 velocity=0 time=60
note_on channel=0 note=68 velocity=46 time=0
note_on channel=0 note=68 velocity=0 time=60
note_on channel=0 note=84 velocity=0 time=0
note_on channel=0 note=78 velocity=0 time=0
note_on channel=0 note=72 velocity=0 time=0
note_on channel=0 note=72 velocity=65 time=0
note_on channel=0 note=78 velocity=65 time=0
note_on channel=0 note=84 velocity=76 time=0
note_on channel=0 note=63 velocity=58 time=0
note_on channel=0 note=63 velocity=0 time=60
note_on channel=0 note=68 velocity=46 time=0
note_on channel=0 note=68 velocity=0 time=60
note_on channel=0 note=66 velocity=46 time=0
note_on channel=0 note=66 velocity=0 time=60
note_on channel=0 note=68 velocity=46 time=0
note_on channel=0 note=68 velocity=0 time=60
note_on channel=0 note=84 velocity=0 time=0
note_on channel=0 note=78 velocity=0 time=0
note_on channel=0 note=72 velocity=0 time=0
note_on channel=0 note=85 velocity=66 time=0
note_on channel=0 note=61 velocity=68 time=0
note_on channel=0 note=65 velocity=68 time=0
note_on channel=0 note=68 velocity=80 time=0
control_change channel=0 control=64 value=0 time=9
note_on channel=0 note=85 velocity=0 time=40
note_on channel=0 note=87 velocity=57 time=0
control_change channel=0 control=64 value=127 time=4
note_on channel=0 note=87 velocity=0 time=56
note_on channel=0 note=89 velocity=59 time=0
note_on channel=0 note=89 velocity=0 time=0
note_on channel=0 note=84 velocity=60 time=0
note_on channel=0 note=84 velocity=0 time=60
note_on channel=0 note=68 velocity=0 time=0
note_on channel=0 note=65 velocity=0 time=0
note_on channel=0 note=61 velocity=0 time=0
note_on channel=0 note=85 velocity=66 time=0
note_on channel=0 note=85 velocity=0 time=60
note_on channel=0 note=80 velocity=56 time=0
note_on channel=0 note=80 velocity=0 time=40
note_on channel=0 note=82 velocity=58 time=0
note_on channel=0 note=82 velocity=0 time=60
note_on channel=0 note=78 velocity=57 time=0
note_on channel=0 note=78 velocity=0 time=20
note_on channel=0 note=77 velocity=51 time=0
control_change channel=0 control=64 value=0 time=14
note_on channel=0 note=77 velocity=0 time=0
note_on channel=0 note=80 velocity=54 time=0
control_change channel=0 control=64 value=127 time=4
note_on channel=0 note=80 velocity=0 time=56
note_on channel=0 note=78 velocity=55 time=0
note_on channel=0 note=78 velocity=0 time=40
note_on channel=0 note=75 velocity=56 time=0
note_on channel=0 note=75 velocity=0 time=20
note_on channel=0 note=73 velocity=63 time=0
note_on channel=0 note=73 velocity=0 time=0
note_on channel=0 note=77 velocity=53 time=0
note_on channel=0 note=77 velocity=0 time=60
note_on channel=0 note=75 velocity=57 time=0
note_on channel=0 note=75 velocity=0 time=40
note_on channel=0 note=72 velocity=53 time=0
note_on channel=0 note=72 velocity=0 time=0
note_on channel=0 note=73 velocity=52 time=0
control_change channel=0 control=64 value=0 time=11
control_change channel=0 control=64 value=127 time=29
note_on channel=0 note=73 velocity=0 time=20
note_on channel=0 note=75 velocity=46 time=0
note_on channel=0 note=75 velocity=0 time=0
note_on channel=0 note=73 velocity=46 time=0
note_on channel=0 note=73 velocity=0 time=60
note_on channel=0 note=72 velocity=46 time=0
note_on channel=0 note=72 velocity=0 time=60
note_on channel=0 note=73 velocity=52 time=0
note_on channel=0 note=61 velocity=52 time=0
note_on channel=0 note=68 velocity=62 time=0
note_on channel=0 note=65 velocity=52 time=0
control_change channel=0 control=64 value=0 time=8
control_change channel=0 control=64 value=127 time=44
note_on channel=0 note=73 velocity=0 time=8
note_on channel=0 note=80 velocity=46 time=0
note_on channel=0 note=80 velocity=0 time=60
note_on channel=0 note=79 velocity=46 time=0
note_on channel=0 note=79 velocity=0 time=60
note_on channel=0 note=80 velocity=46 time=0
note_on channel=0 note=80 velocity=0 time=60
note_on channel=0 note=73 velocity=52 time=0
note_on channel=0 note=73 velocity=0 time=60
note_on channel=0 note=75 velocity=45 time=0
note_on channel=0 note=75 velocity=0 time=0
note_on channel=0 note=73 velocity=48 time=0
note_on channel=0 note=73 velocity=0 time=60
note_on channel=0 note=72 velocity=48 time=0
note_on channel=0 note=72 velocity=0 time=0
note_on channel=0 note=65 velocity=0 time=0
note_on channel=0 note=68 velocity=0 time=0
note_on channel=0 note=61 velocity=0 time=0
note_on channel=0 note=73 velocity=52 time=0
note_on channel=0 note=61 velocity=53 time=0
note_on channel=0 note=70 velocity=63 time=0
note_on channel=0 note=66 velocity=53 time=0
control_change channel=0 control=64 value=0 time=12
control_change channel=0 control=64 value=127 time=43
note_on channel=0 note=73 velocity=0 time=5
note_on channel=0 note=82 velocity=48 time=0
note_on channel=0 note=82 velocity=0 time=60
note_on channel=0 note=81 velocity=48 time=0
note_on channel=0 note=81 velocity=0 time=60
note_on channel=0 note=82 velocity=48 time=0
note_on channel=0 note=82 velocity=0 time=60
note_on channel=0 note=73 velocity=52 time=0
note_on channel=0 note=73 velocity=0 time=60
note_on channel=0 note=75 velocity=48 time=0
note_on channel=0 note=75 velocity=0 time=60
note_on channel=0 note=73 velocity=48 time=0
note_on channel=0 note=73 velocity=0 time=60
note_on channel=0 note=72 velocity=48 time=0
note_on channel=0 note=72 velocity=0 time=60
note_on channel=0 note=66 velocity=0 time=0
note_on channel=0 note=70 velocity=0 time=0
note_on channel=0 note=61 velocity=0 time=0
note_on channel=0 note=73 velocity=52 time=0
note_on channel=0 note=61 velocity=54 time=0
note_on channel=0 note=68 velocity=63 time=0
note_on channel=0 note=65 velocity=54 time=0
control_change channel=0 control=64 value=0 time=13
control_change channel=0 control=64 value=127 time=36
note_on channel=0 note=73 velocity=0 time=11
note_on channel=0 note=80 velocity=48 time=0
note_on channel=0 note=80 velocity=0 time=60
note_on channel=0 note=79 velocity=48 time=0
note_on channel=0 note=79 velocity=0 time=60
note_on channel=0 note=80 velocity=48 time=0
note_on channel=0 note=80 velocity=0 time=60
note_on channel=0 note=73 velocity=52 time=0
note_on channel=0 note=73 velocity=0 time=60
note_on channel=0 note=80 velocity=48 time=0
note_on channel=0 note=80 velocity=0 time=60
note_on channel=0 note=79 velocity=48 time=0
note_on channel=0 note=79 velocity=0 time=60
note_on channel=0 note=80 velocity=48 time=0
note_on channel=0 note=80 velocity=0 time=0
note_on channel=0 note=65 velocity=0 time=0
note_on channel=0 note=68 velocity=0 time=0
note_on channel=0 note=61 velocity=0 time=0
note_on channel=0 note=73 velocity=73 time=0
note_on channel=0 note=63 velocity=58 time=0
note_on channel=0 note=54 velocity=58 time=0
note_on channel=0 note=61 velocity=58 time=0
note_on channel=0 note=66 velocity=71 time=0
control_change channel=0 control=64 value=0 time=12
note_on channel=0 note=73 velocity=0 time=48
note_on channel=0 note=82 velocity=63 time=0
control_change channel=0 control=64 value=127 time=0
note_on channel=0 note=82 velocity=0 time=60
note_on channel=0 note=81 velocity=63 time=0
note_on channel=0 note=81 velocity=0 time=60
note_on channel=0 note=82 velocity=63 time=0
note_on channel=0 note=82 velocity=0 time=0
note_on channel=0 note=66 velocity=0 time=0
note_on channel=0 note=63 velocity=0 time=0
note_on channel=0 note=54 velocity=0 time=0
note_on channel=0 note=61 velocity=0 time=0
note_on channel=0 note=73 velocity=80 time=0
note_on channel=0 note=61 velocity=62 time=0
note_on channel=0 note=56 velocity=62 time=0
note_on channel=0 note=63 velocity=62 time=0
note_on channel=0 note=66 velocity=75 time=0
control_change channel=0 control=64 value=0 time=14
control_change channel=0 control=64 value=127 time=41
note_on channel=0 note=73 velocity=0 time=5
note_on channel=0 note=80 velocity=66 time=0
note_on channel=0 note=80 velocity=0 time=60
note_on channel=0 note=79 velocity=67 time=0
note_on channel=0 note=79 velocity=0 time=60
note_on channel=0 note=80 velocity=67 time=0
note_on channel=0 note=80 velocity=0 time=60
note_on channel=0 note=66 velocity=0 time=0
note_on channel=0 note=61 velocity=0 time=0
note_on channel=0 note=56 velocity=0 time=0
note_on channel=0 note=63 velocity=0 time=0
note_on channel=0 note=73 velocity=80 time=0
note_on channel=0 note=61 velocity=58 time=0
note_on channel=0 note=56 velocity=58 time=0
note_on channel=0 note=63 velocity=58 time=0
note_on channel=0 note=66 velocity=71 time=0
note_on channel=0 note=73 velocity=0 time=60
note_on channel=0 note=80 velocity=66 time=0
note_on channel=0 note=80 velocity=0 time=60
note_on channel=0 note=79 velocity=66 time=0
note_on channel=0 note=79 velocity=0 time=60
note_on channel=0 note=80 velocity=66 time=0
note_on channel=0 note=80 velocity=0 time=0
note_on channel=0 note=66 velocity=0 time=0
note_on channel=0 note=61 velocity=0 time=0
note_on channel=0 note=56 velocity=0 time=0
note_on channel=0 note=63 velocity=0 time=0
note_on channel=0 note=72 velocity=83 time=0
note_on channel=0 note=60 velocity=55 time=0
note_on channel=0 note=56 velocity=54 time=0
note_on channel=0 note=63 velocity=60 time=0
note_on channel=0 note=66 velocity=73 time=0
control_change channel=0 control=64 value=0 time=12
control_change channel=0 control=64 value=127 time=37
note_on channel=0 note=72 velocity=0 time=11
note_on channel=0 note=80 velocity=67 time=0
note_on channel=0 note=80 velocity=0 time=60
note_on channel=0 note=79 velocity=67 time=0
note_on channel=0 note=79 velocity=0 time=60
note_on channel=0 note=80 velocity=67 time=0
note_on channel=0 note=80 velocity=0 time=60
note_on channel=0 note=66 velocity=0 time=0
note_on channel=0 note=60 velocity=0 time=0
note_on channel=0 note=56 velocity=0 time=0
note_on channel=0 note=63 velocity=0 time=0
note_on channel=0 note=72 velocity=81 time=0
note_on channel=0 note=60 velocity=53 time=0
note_on channel=0 note=56 velocity=52 time=0
note_on channel=0 note=63 velocity=57 time=0
note_on channel=0 note=66 velocity=67 time=0
note_on channel=0 note=72 velocity=0 time=60
note_on channel=0 note=80 velocity=63 time=0
note_on channel=0 note=80 velocity=0 time=60
note_on channel=0 note=79 velocity=63 time=0
note_on channel=0 note=79 velocity=0 time=60
note_on channel=0 note=80 velocity=63 time=0
note_on channel=0 note=80 velocity=0 time=60
note_on channel=0 note=66 velocity=0 time=0
note_on channel=0 note=60 velocity=0 time=0
note_on channel=0 note=56 velocity=0 time=0
note_on channel=0 note=63 velocity=0 time=0
note_on channel=0 note=80 velocity=53 time=0
note_on channel=0 note=61 velocity=65 time=0
note_on channel=0 note=65 velocity=76 time=0
control_change channel=0 control=64 value=0 time=12
control_change channel=0 control=64 value=127 time=26
note_on channel=0 note=80 velocity=0 time=14
note_on channel=0 note=78 velocity=54 time=0
note_on channel=0 note=78 velocity=0 time=60
note_on channel=0 note=77 velocity=55 time=0
note_on channel=0 note=77 velocity=0 time=0
note_on channel=0 note=75 velocity=56 time=0
note_on channel=0 note=75 velocity=0 time=60
note_on channel=0 note=65 velocity=0 time=0
note_on channel=0 note=61 velocity=0 time=0
note_on channel=0 note=73 velocity=60 time=0
note_on channel=0 note=73 velocity=0 time=60
note_on channel=0 note=75 velocity=56 time=0
note_on channel=0 note=75 velocity=0 time=40
note_on channel=0 note=77 velocity=58 time=0
note_on channel=0 note=77 velocity=0 time=60
note_on channel=0 note=78 velocity=57 time=0
note_on channel=0 note=78 velocity=0 time=20
note_on channel=0 note=80 velocity=51 time=0
control_change channel=0 control=64 value=0 time=13
note_on channel=0 note=80 velocity=0 time=0
note_on channel=0 note=78 velocity=54 time=0
control_change channel=0 control=64 value=127 time=7
note_on channel=0 note=78 velocity=0 time=53
note_on channel=0 note=77 velocity=55 time=0
note_on channel=0 note=77 velocity=0 time=40
note_on channel=0 note=78 velocity=56 time=0
note_on channel=0 note=78 velocity=0 time=20
note_on channel=0 note=80 velocity=63 time=0
note_on channel=0 note=80 velocity=0 time=0
note_on channel=0 note=82 velocity=53 time=0
note_on channel=0 note=82 velocity=0 time=60
note_on channel=0 note=84 velocity=57 time=0
note_on channel=0 note=84 velocity=0 time=40
note_on channel=0 note=85 velocity=53 time=0
note_on channel=0 note=85 velocity=0 time=0
note_on channel=0 note=77 velocity=52 time=0
control_change channel=0 control=64 value=0 time=10
control_change channel=0 control=64 value=127 time=33
note_on channel=0 note=77 velocity=0 time=17
note_on channel=0 note=78 velocity=46 time=0
note_on channel=0 note=78 velocity=0 time=0
note_on channel=0 note=77 velocity=46 time=0
note_on channel=0 note=77 velocity=0 time=60
note_on channel=0 note=76 velocity=46 time=0
note_on channel=0 note=76 velocity=0 time=60
note_on channel=0 note=77 velocity=52 time=0
note_on channel=0 note=73 velocity=62 time=0
note_on channel=0 note=68 velocity=52 time=0
control_change channel=0 control=64 value=0 time=14
control_change channel=0 control=64 value=127 time=29
note_on channel=0 note=77 velocity=0 time=17
note_on channel=0 note=85 velocity=46 time=0
note_on channel=0 note=85 velocity=0 time=60
note_on channel=0 note=84 velocity=46 time=0
note_on channel=0 note=84 velocity=0 time=60
note_on channel=0 note=85 velocity=46 time=0
note_on channel=0 note=85 velocity=0 time=60
note_on channel=0 note=78 velocity=52 time=0
note_on channel=0 note=78 velocity=0 time=60
note_on channel=0 note=80 velocity=45 time=0
note_on channel=0 note=80 velocity=0 time=0
note_on channel=0 note=78 velocity=48 time=0
note_on channel=0 note=78 velocity=0 time=60
note_on channel=0 note=77 velocity=48 time=0
note_on channel=0 note=77 velocity=0 time=0
note_on channel=0 note=68 velocity=0 time=0
note_on channel=0 note=73 velocity=0 time=0
note_on channel=0 note=78 velocity=52 time=0
note_on channel=0 note=73 velocity=63 time=0
note_on channel=0 note=70 velocity=53 time=0
control_change channel=0 control=64 value=0 time=12
control_change channel=0 control=64 value=127 time=25
note_on channel=0 note=78 velocity=0 time=23
note_on channel=0 note=85 velocity=48 time=0
note_on channel=0 note=85 velocity=0 time=60
note_on channel=0 note=84 velocity=48 time=0
note_on channel=0 note=84 velocity=0 time=60
note_on channel=0 note=85 velocity=48 time=0
note_on channel=0 note=85 velocity=0 time=60
note_on channel=0 note=77 velocity=52 time=0
note_on channel=0 note=77 velocity=0 time=60
note_on channel=0 note=78 velocity=48 time=0
note_on channel=0 note=78 velocity=0 time=60
note_on channel=0 note=77 velocity=48 time=0
note_on channel=0 note=77 velocity=0 time=60
note_on channel=0 note=76 velocity=48 time=0
note_on channel=0 note=76 velocity=0 time=60
note_on channel=0 note=70 velocity=0 time=0
note_on channel=0 note=73 velocity=0 time=0
note_on channel=0 note=77 velocity=52 time=0
note_on channel=0 note=73 velocity=63 time=0
note_on channel=0 note=68 velocity=54 time=0
control_change channel=0 control=64 value=0 time=13
control_change channel=0 control=64 value=127 time=42
note_on channel=0 note=77 velocity=0 time=5
note_on channel=0 note=85 velocity=48 time=0
note_on channel=0 note=85 velocity=0 time=60
note_on channel=0 note=84 velocity=48 time=0
note_on channel=0 note=84 velocity=0 time=60
note_on channel=0 note=85 velocity=48 time=0
note_on channel=0 note=85 velocity=0 time=60
note_on channel=0 note=77 velocity=52 time=0
note_on channel=0 note=77 velocity=0 time=60
note_on channel=0 note=85 velocity=48 time=0
note_on channel=0 note=85 velocity=0 time=60
note_on channel=0 note=84 velocity=48 time=0
note_on channel=0 note=84 velocity=0 time=60
note_on channel=0 note=85 velocity=48 time=0
note_on channel=0 note=85 velocity=0 time=0
note_on channel=0 note=68 velocity=0 time=0
note_on channel=0 note=73 velocity=0 time=0
note_on channel=0 note=79 velocity=73 time=0
note_on channel=0 note=76 velocity=60 time=0
note_on channel=0 note=69 velocity=71 time=0
control_change channel=0 control=64 value=0 time=3
control_change channel=0 control=64 value=127 time=40
note_on channel=0 note=76 velocity=0 time=17
note_on channel=0 note=79 velocity=0 time=0
note_on channel=0 note=85 velocity=63 time=0
note_on channel=0 note=85 velocity=0 time=60
note_on channel=0 note=84 velocity=63 time=0
note_on channel=0 note=84 velocity=0 time=60
note_on channel=0 note=85 velocity=63 time=0
note_on channel=0 note=85 velocity=0 time=0
note_on channel=0 note=69 velocity=0 time=0
note_on channel=0 note=78 velocity=80 time=0
note_on channel=0 note=75 velocity=66 time=0
note_on channel=0 note=68 velocity=75 time=0
control_change channel=0 control=64 value=0 time=13
control_change channel=0 control=64 value=127 time=36
note_on channel=0 note=75 velocity=0 time=11
note_on channel=0 note=78 velocity=0 time=0
note_on channel=0 note=85 velocity=66 time=0
note_on channel=0 note=85 velocity=0 time=60
note_on channel=0 note=84 velocity=66 time=0
note_on channel=0 note=84 velocity=0 time=60
note_on channel=0 note=85 velocity=66 time=0
note_on channel=0 note=85 velocity=0 time=60
note_on channel=0 note=68 velocity=0 time=0
note_on channel=0 note=78 velocity=80 time=0
note_on channel=0 note=75 velocity=66 time=0
note_on channel=0 note=68 velocity=71 time=0
note_on channel=0 note=75 velocity=0 time=60
note_on channel=0 note=78 velocity=0 time=0
note_on channel=0 note=85 velocity=67 time=0
note_on channel=0 note=85 velocity=0 time=60
note_on channel=0 note=84 velocity=67 time=0
note_on channel=0 note=84 velocity=0 time=60
note_on channel=0 note=85 velocity=67 time=0
note_on channel=0 note=85 velocity=0 time=60
note_on channel=0 note=68 velocity=0 time=0
note_on channel=0 note=78 velocity=83 time=0
note_on channel=0 note=75 velocity=68 time=0
note_on channel=0 note=56 velocity=76 time=0
control_change channel=0 control=64 value=0 time=12
control_change channel=0 control=64 value=127 time=34
note_on channel=0 note=75 velocity=0 time=14
note_on channel=0 note=78 velocity=0 time=0
note_on channel=0 note=84 velocity=67 time=0
note_on channel=0 note=84 velocity=0 time=60
note_on channel=0 note=83 velocity=67 time=0
note_on channel=0 note=83 velocity=0 time=60
note_on channel=0 note=84 velocity=67 time=0
note_on channel=0 note=84 velocity=0 time=0
note_on channel=0 note=56 velocity=0 time=0
note_on channel=0 note=78 velocity=81 time=0
note_on channel=0 note=75 velocity=68 time=0
note_on channel=0 note=56 velocity=70 time=0
note_on channel=0 note=75 velocity=0 time=60
note_on channel=0 note=78 velocity=0 time=0
note_on channel=0 note=84 velocity=67 time=0
note_on channel=0 note=84 velocity=0 time=60
note_on channel=0 note=83 velocity=67 time=0
note_on channel=0 note=83 velocity=0 time=60
note_on channel=0 note=84 velocity=67 time=0
note_on channel=0 note=84 velocity=0 time=0
note_on channel=0 note=56 velocity=0 time=0
note_on channel=0 note=73 velocity=74 time=0
note_on channel=0 note=77 velocity=74 time=0
note_on channel=0 note=85 velocity=87 time=0
note_on channel=0 note=56 velocity=54 time=0
control_change channel=0 control=64 value=0 time=14
control_change channel=0 control=64 value=127 time=25
note_on channel=0 note=56 velocity=0 time=21
note_on channel=0 note=58 velocity=55 time=0
note_on channel=0 note=58 velocity=0 time=0
note_on channel=0 note=60 velocity=57 time=0
note_on channel=0 note=60 velocity=0 time=60
note_on channel=0 note=61 velocity=58 time=0
note_on channel=0 note=61 velocity=0 time=0
note_on channel=0 note=85 velocity=0 time=0
note_on channel=0 note=77 velocity=0 time=0
note_on channel=0 note=73 velocity=0 time=0
note_on channel=0 note=60 velocity=59 time=0
control_change channel=0 control=64 value=0 time=7
control_change channel=0 control=64 value=127 time=46
note_on channel=0 note=60 velocity=0 time=7
note_on channel=0 note=61 velocity=53 time=0
note_on channel=0 note=61 velocity=0 time=0
note_on channel=0 note=63 velocity=56 time=0
note_on channel=0 note=63 velocity=0 time=60
note_on channel=0 note=65 velocity=53 time=0
note_on channel=0 note=65 velocity=0 time=20
note_on channel=0 note=63 velocity=48 time=0
control_change channel=0 control=64 value=0 time=17
note_on channel=0 note=63 velocity=0 time=40
note_on channel=0 note=65 velocity=49 time=0
control_change channel=0 control=64 value=127 time=4
note_on channel=0 note=65 velocity=0 time=0
note_on channel=0 note=66 velocity=50 time=0
note_on channel=0 note=66 velocity=0 time=0
note_on channel=0 note=68 velocity=51 time=0
note_on channel=0 note=68 velocity=0 time=20
note_on channel=0 note=70 velocity=54 time=0
control_change channel=0 control=64 value=0 time=4
control_change channel=0 control=64 value=127 time=3
note_on channel=0 note=70 velocity=0 time=17
note_on channel=0 note=72 velocity=46 time=0
note_on channel=0 note=72 velocity=0 time=40
note_on channel=0 note=73 velocity=50 time=0
note_on channel=0 note=73 velocity=0 time=0
note_on channel=0 note=68 velocity=46 time=0
note_on channel=0 note=68 velocity=0 time=0
note_on channel=0 note=66 velocity=40 time=0
control_change channel=0 control=64 value=0 time=13
control_change channel=0 control=64 value=127 time=27
note_on channel=0 note=66 velocity=0 time=20
note_on channel=0 note=75 velocity=36 time=0
note_on channel=0 note=75 velocity=0 time=0
note_on channel=0 note=72 velocity=36 time=0
note_on channel=0 note=72 velocity=0 time=60
note_on channel=0 note=75 velocity=36 time=0
note_on channel=0 note=75 velocity=0 time=60
note_on channel=0 note=80 velocity=69 time=0
note_on channel=0 note=71 velocity=40 time=0
note_on channel=0 note=71 velocity=0 time=60
note_on channel=0 note=75 velocity=36 time=0
note_on channel=0 note=75 velocity=0 time=60
note_on channel=0 note=72 velocity=36 time=0
note_on channel=0 note=72 velocity=0 time=60
note_on channel=0 note=75 velocity=36 time=0
note_on channel=0 note=75 velocity=0 time=0
note_on channel=0 note=78 velocity=57 time=0
control_change channel=0 control=64 value=0 time=15
control_change channel=0 control=64 value=127 time=34
note_on channel=0 note=78 velocity=0 time=11
note_on channel=0 note=75 velocity=35 time=0
note_on channel=0 note=75 velocity=0 time=60
note_on channel=0 note=72 velocity=37 time=0
note_on channel=0 note=72 velocity=0 time=60
note_on channel=0 note=75 velocity=37 time=0
note_on channel=0 note=75 velocity=0 time=0
note_on channel=0 note=80 velocity=0 time=0
note_on channel=0 note=80 velocity=59 time=0
note_on channel=0 note=66 velocity=40 time=0
note_on channel=0 note=66 velocity=0 time=60
note_on channel=0 note=75 velocity=37 time=0
note_on channel=0 note=75 velocity=0 time=60
note_on channel=0 note=72 velocity=37 time=0
note_on channel=0 note=72 velocity=0 time=60
note_on channel=0 note=75 velocity=37 time=0
note_on channel=0 note=75 velocity=0 time=0
note_on channel=0 note=80 velocity=0 time=0
note_on channel=0 note=80 velocity=59 time=0
note_on channel=0 note=65 velocity=40 time=0
control_change channel=0 control=64 value=0 time=19
control_change channel=0 control=64 value=127 time=27
note_on channel=0 note=65 velocity=0 time=14
note_on channel=0 note=73 velocity=37 time=0
note_on channel=0 note=73 velocity=0 time=60
note_on channel=0 note=68 velocity=37 time=0
note_on channel=0 note=68 velocity=0 time=60
note_on channel=0 note=73 velocity=37 time=0
note_on channel=0 note=73 velocity=0 time=0
note_on channel=0 note=80 velocity=0 time=0
note_on channel=0 note=80 velocity=55 time=0
note_on channel=0 note=65 velocity=40 time=0
note_on channel=0 note=65 velocity=0 time=60
note_on channel=0 note=73 velocity=37 time=0
note_on channel=0 note=73 velocity=0 time=60
note_on channel=0 note=68 velocity=37 time=0
note_on channel=0 note=68 velocity=0 time=60
note_on channel=0 note=73 velocity=37 time=0
note_on channel=0 note=73 velocity=0 time=0
note_on channel=0 note=80 velocity=0 time=0
note_on channel=0 note=80 velocity=59 time=0
note_on channel=0 note=63 velocity=40 time=0
control_change channel=0 control=64 value=0 time=12
control_change channel=0 control=64 value=127 time=38
note_on channel=0 note=63 velocity=0 time=10
note_on channel=0 note=72 velocity=37 time=0
note_on channel=0 note=72 velocity=0 time=60
note_on channel=0 note=66 velocity=37 time=0
note_on channel=0 note=66 velocity=0 time=60
note_on channel=0 note=72 velocity=37 time=0
note_on channel=0 note=72 velocity=0 time=0
note_on channel=0 note=80 velocity=0 time=0
note_on channel=0 note=80 velocity=56 time=0
note_on channel=0 note=61 velocity=40 time=0
control_change channel=0 control=64 value=0 time=4
control_change channel=0 control=64 value=127 time=39
note_on channel=0 note=61 velocity=0 time=17
note_on channel=0 note=73 velocity=38 time=0
note_on channel=0 note=73 velocity=0 time=60
note_on channel=0 note=65 velocity=38 time=0
note_on channel=0 note=65 velocity=0 time=60
note_on channel=0 note=73 velocity=38 time=0
note_on channel=0 note=73 velocity=0 time=0
note_on channel=0 note=80 velocity=0 time=0
note_on channel=0 note=66 velocity=40 time=0
control_change channel=0 control=64 value=0 time=12
control_change channel=0 control=64 value=127 time=40
note_on channel=0 note=66 velocity=0 time=8
note_on channel=0 note=75 velocity=36 time=0
note_on channel=0 note=75 velocity=0 time=0
note_on channel=0 note=72 velocity=36 time=0
note_on channel=0 note=72 velocity=0 time=60
note_on channel=0 note=75 velocity=36 time=0
note_on channel=0 note=75 velocity=0 time=60
note_on channel=0 note=80 velocity=69 time=0
note_on channel=0 note=71 velocity=40 time=0
note_on channel=0 note=71 velocity=0 time=60
note_on channel=0 note=75 velocity=36 time=0
note_on channel=0 note=75 velocity=0 time=60
note_on channel=0 note=72 velocity=36 time=0
note_on channel=0 note=72 velocity=0 time=60
note_on channel=0 note=75 velocity=36 time=0
note_on channel=0 note=75 velocity=0 time=0
note_on channel=0 note=78 velocity=58 time=0
control_change channel=0 control=64 value=0 time=14
control_change channel=0 control=64 value=127 time=41
note_on channel=0 note=78 velocity=0 time=5
note_on channel=0 note=75 velocity=35 time=0
note_on channel=0 note=75 velocity=0 time=60
note_on channel=0 note=72 velocity=37 time=0
note_on channel=0 note=72 velocity=0 time=60
note_on channel=0 note=75 velocity=37 time=0
note_on channel=0 note=75 velocity=0 time=0
note_on channel=0 note=80 velocity=0 time=0
note_on channel=0 note=80 velocity=57 time=0
note_on channel=0 note=66 velocity=40 time=0
note_on channel=0 note=66 velocity=0 time=60
note_on channel=0 note=75 velocity=37 time=0
note_on channel=0 note=75 velocity=0 time=60
note_on channel=0 note=72 velocity=37 time=0
note_on channel=0 note=72 velocity=0 time=60
note_on channel=0 note=75 velocity=37 time=0
note_on channel=0 note=75 velocity=0 time=0
note_on channel=0 note=80 velocity=0 time=0
note_on channel=0 note=80 velocity=60 time=0
note_on channel=0 note=65 velocity=40 time=0
control_change channel=0 control=64 value=0 time=18
control_change channel=0 control=64 value=127 time=21
note_on channel=0 note=65 velocity=0 time=21
note_on channel=0 note=77 velocity=37 time=0
note_on channel=0 note=77 velocity=0 time=60
note_on channel=0 note=73 velocity=37 time=0
note_on channel=0 note=73 velocity=0 time=60
note_on channel=0 note=77 velocity=37 time=0
note_on channel=0 note=77 velocity=0 time=0
note_on channel=0 note=80 velocity=0 time=0
note_on channel=0 note=80 velocity=56 time=0
note_on channel=0 note=68 velocity=40 time=0
note_on channel=0 note=68 velocity=0 time=60
note_on channel=0 note=77 velocity=37 time=0
note_on channel=0 note=77 velocity=0 time=60
note_on channel=0 note=73 velocity=37 time=0
note_on channel=0 note=73 velocity=0 time=60
note_on channel=0 note=77 velocity=37 time=0
note_on channel=0 note=77 velocity=0 time=0
note_on channel=0 note=80 velocity=0 time=0
note_on channel=0 note=80 velocity=59 time=0
note_on channel=0 note=66 velocity=40 time=0
control_change channel=0 control=64 value=0 time=11
control_change channel=0 control=64 value=127 time=42
note_on channel=0 note=66 velocity=0 time=7
note_on channel=0 note=75 velocity=37 time=0
note_on channel=0 note=75 velocity=0 time=60
note_on channel=0 note=72 velocity=37 time=0
note_on channel=0 note=72 velocity=0 time=60
note_on channel=0 note=75 velocity=37 time=0
note_on channel=0 note=75 velocity=0 time=0
note_on channel=0 note=80 velocity=0 time=0
note_on channel=0 note=80 velocity=56 time=0
note_on channel=0 note=65 velocity=40 time=0
control_change channel=0 control=64 value=0 time=11
control_change channel=0 control=64 value=127 time=39
note_on channel=0 note=65 velocity=0 time=10
note_on channel=0 note=73 velocity=38 time=0
note_on channel=0 note=73 velocity=0 time=60
note_on channel=0 note=68 velocity=38 time=0
note_on channel=0 note=68 velocity=0 time=60
note_on channel=0 note=73 velocity=38 time=0
note_on channel=0 note=73 velocity=0 time=0
note_on channel=0 note=80 velocity=0 time=0
note_on channel=0 note=72 velocity=48 time=0
control_change channel=0 control=64 value=0 time=10
control_change channel=0 control=64 value=127 time=33
note_on channel=0 note=72 velocity=0 time=17
note_on channel=0 note=78 velocity=47 time=0
note_on channel=0 note=78 velocity=0 time=60
note_on channel=0 note=75 velocity=47 time=0
note_on channel=0 note=75 velocity=0 time=60
note_on channel=0 note=78 velocity=47 time=0
note_on channel=0 note=78 velocity=0 time=60
note_on channel=0 note=84 velocity=67 time=0
note_on channel=0 note=80 velocity=53 time=0
note_on channel=0 note=80 velocity=0 time=60
note_on channel=0 note=78 velocity=48 time=0
note_on channel=0 note=78 velocity=0 time=60
note_on channel=0 note=75 velocity=48 time=0
note_on channel=0 note=75 velocity=0 time=60
note_on channel=0 note=78 velocity=48 time=0
note_on channel=0 note=78 velocity=0 time=0
note_on channel=0 note=84 velocity=0 time=0
note_on channel=0 note=83 velocity=72 time=0
note_on channel=0 note=80 velocity=55 time=0
control_change channel=0 control=64 value=0 time=10
control_change channel=0 control=64 value=127 time=40
note_on channel=0 note=80 velocity=0 time=10
note_on channel=0 note=78 velocity=48 time=0
note_on channel=0 note=78 velocity=0 time=60
note_on channel=0 note=75 velocity=50 time=0
note_on channel=0 note=75 velocity=0 time=60
note_on channel=0 note=78 velocity=50 time=0
note_on channel=0 note=78 velocity=0 time=0
note_on channel=0 note=83 velocity=0 time=0
note_on channel=0 note=84 velocity=70 time=0
note_on channel=0 note=80 velocity=56 time=0
note_on channel=0 note=80 velocity=0 time=60
note_on channel=0 note=78 velocity=52 time=0
note_on channel=0 note=78 velocity=0 time=60
note_on channel=0 note=75 velocity=52 time=0
note_on channel=0 note=75 velocity=0 time=60
note_on channel=0 note=78 velocity=53 time=0
note_on channel=0 note=78 velocity=0 time=0
note_on channel=0 note=84 velocity=0 time=0
note_on channel=0 note=85 velocity=77 time=0
note_on channel=0 note=77 velocity=57 time=0
control_change channel=0 control=64 value=0 time=21
control_change channel=0 control=64 value=127 time=11
note_on channel=0 note=77 velocity=0 time=28
note_on channel=0 note=80 velocity=52 time=0
note_on channel=0 note=80 velocity=0 time=0
note_on channel=0 note=77 velocity=53 time=0
note_on channel=0 note=77 velocity=0 time=60
note_on channel=0 note=80 velocity=53 time=0
note_on channel=0 note=80 velocity=0 time=60
note_on channel=0 note=85 velocity=0 time=0
note_on channel=0 note=89 velocity=75 time=0
note_on channel=0 note=85 velocity=60 time=0
note_on channel=0 note=85 velocity=0 time=60
note_on channel=0 note=80 velocity=53 time=0
note_on channel=0 note=80 velocity=0 time=60
note_on channel=0 note=85 velocity=55 time=0
note_on channel=0 note=85 velocity=0 time=60
note_on channel=0 note=80 velocity=55 time=0
note_on channel=0 note=80 velocity=0 time=0
note_on channel=0 note=89 velocity=0 time=0
note_on channel=0 note=87 velocity=86 time=0
note_on channel=0 note=84 velocity=61 time=0
control_change channel=0 control=64 value=0 time=9
control_change channel=0 control=64 value=127 time=37
note_on channel=0 note=84 velocity=0 time=14
note_on channel=0 note=78 velocity=53 time=0
note_on channel=0 note=78 velocity=0 time=60
note_on channel=0 note=84 velocity=57 time=0
note_on channel=0 note=84 velocity=0 time=60
note_on channel=0 note=78 velocity=57 time=0
note_on channel=0 note=78 velocity=0 time=0
note_on channel=0 note=87 velocity=0 time=0
note_on channel=0 note=85 velocity=82 time=0
note_on channel=0 note=77 velocity=67 time=0
note_on channel=0 note=77 velocity=0 time=60
note_on channel=0 note=80 velocity=62 time=0
note_on channel=0 note=80 velocity=0 time=60
note_on channel=0 note=77 velocity=62 time=0
note_on channel=0 note=77 velocity=0 time=60
note_on channel=0 note=80 velocity=62 time=0
note_on channel=0 note=80 velocity=0 time=60
note_on channel=0 note=85 velocity=0 time=0
note_on channel=0 note=90 velocity=94 time=0
note_on channel=0 note=82 velocity=81 time=0
control_change channel=0 control=64 value=0 time=14
control_change channel=0 control=64 value=127 time=32
note_on channel=0 note=82 velocity=0 time=14
note_on channel=0 note=78 velocity=69 time=0
note_on channel=0 note=78 velocity=0 time=60
note_on channel=0 note=82 velocity=74 time=0
note_on channel=0 note=82 velocity=0 time=60
note_on channel=0 note=80 velocity=61 time=0
note_on channel=0 note=80 velocity=0 time=60
note_on channel=0 note=78 velocity=68 time=0
note_on channel=0 note=78 velocity=0 time=60
note_on channel=0 note=77 velocity=60 time=0
note_on channel=0 note=77 velocity=0 time=60
note_on channel=0 note=75 velocity=63 time=0
note_on channel=0 note=75 velocity=0 time=60
note_on channel=0 note=73 velocity=61 time=0
note_on channel=0 note=73 velocity=0 time=60
note_on channel=0 note=90 velocity=0 time=0
note_on channel=0 note=75 velocity=69 time=0
note_on channel=0 note=78 velocity=69 time=0
note_on channel=0 note=80 velocity=81 time=0
note_on channel=0 note=72 velocity=60 time=0
control_change channel=0 control=64 value=0 time=16
control_change channel=0 control=64 value=127 time=30
note_on channel=0 note=72 velocity=0 time=14
note_on channel=0 note=70 velocity=59 time=0
note_on channel=0 note=70 velocity=0 time=60
note_on channel=0 note=68 velocity=57 time=0
note_on channel=0 note=68 velocity=0 time=60
note_on channel=0 note=66 velocity=56 time=0
note_on channel=0 note=66 velocity=0 time=60
note_on channel=0 note=65 velocity=55 time=0
note_on channel=0 note=65 velocity=0 time=60
note_on channel=0 note=63 velocity=52 time=0
note_on channel=0 note=63 velocity=0 time=60
note_on channel=0 note=61 velocity=51 time=0
note_on channel=0 note=61 velocity=0 time=60
note_on channel=0 note=60 velocity=49 time=0
note_on channel=0 note=60 velocity=0 time=0
note_on channel=0 note=80 velocity=0 time=0
note_on channel=0 note=78 velocity=0 time=0
note_on channel=0 note=75 velocity=0 time=0
note_on channel=0 note=77 velocity=50 time=0
note_on channel=0 note=80 velocity=50 time=0
note_on channel=0 note=61 velocity=55 time=0
control_change channel=0 control=64 value=0 time=15
control_change channel=0 control=64 value=127 time=38
note_on channel=0 note=80 velocity=0 time=7
note_on channel=0 note=77 velocity=0 time=0
note_on channel=0 note=82 velocity=45 time=0
note_on channel=0 note=82 velocity=0 time=0
note_on channel=0 note=80 velocity=45 time=0
note_on channel=0 note=80 velocity=0 time=60
note_on channel=0 note=78 velocity=44 time=0
note_on channel=0 note=78 velocity=0 time=0
note_on channel=0 note=61 velocity=0 time=0
note_on channel=0 note=77 velocity=41 time=0
note_on channel=0 note=77 velocity=0 time=60
note_on channel=0 note=78 velocity=45 time=0
note_on channel=0 note=78 velocity=0 time=0
note_on channel=0 note=80 velocity=47 time=0
note_on channel=0 note=80 velocity=0 time=60
note_on channel=0 note=82 velocity=50 time=0
note_on channel=0 note=82 velocity=0 time=20
note_on channel=0 note=84 velocity=52 time=0
control_change channel=0 control=64 value=0 time=15
control_change channel=0 control=64 value=127 time=37
note_on channel=0 note=84 velocity=0 time=3
note_on channel=0 note=85 velocity=50 time=0
note_on channel=0 note=85 velocity=0 time=0
note_on channel=0 note=80 velocity=48 time=0
note_on channel=0 note=80 velocity=0 time=0
note_on channel=0 note=78 velocity=49 time=0
note_on channel=0 note=78 velocity=0 time=20
note_on channel=0 note=77 velocity=50 time=0
note_on channel=0 note=77 velocity=0 time=20
note_on channel=0 note=80 velocity=45 time=0
note_on channel=0 note=80 velocity=0 time=40
note_on channel=0 note=77 velocity=46 time=0
note_on channel=0 note=77 velocity=0 time=0
note_on channel=0 note=73 velocity=46 time=0
note_on channel=0 note=73 velocity=0 time=0
note_on channel=0 note=72 velocity=55 time=0
control_change channel=0 control=64 value=0 time=12
control_change channel=0 control=64 value=127 time=38
note_on channel=0 note=72 velocity=0 time=10
note_on channel=0 note=80 velocity=42 time=0
note_on channel=0 note=80 velocity=0 time=0
note_on channel=0 note=82 velocity=42 time=0
note_on channel=0 note=82 velocity=0 time=60
note_on channel=0 note=80 velocity=42 time=0
note_on channel=0 note=80 velocity=0 time=0
note_on channel=0 note=84 velocity=51 time=0
note_on channel=0 note=54 velocity=66 time=0
note_on channel=0 note=84 velocity=0 time=60
note_on channel=0 note=80 velocity=42 time=0
note_on channel=0 note=80 velocity=0 time=60
note_on channel=0 note=82 velocity=42 time=0
note_on channel=0 note=82 velocity=0 time=60
note_on channel=0 note=80 velocity=42 time=0
note_on channel=0 note=80 velocity=0 time=0
note_on channel=0 note=87 velocity=55 time=0
control_change channel=0 control=64 value=0 time=26
note_on channel=0 note=87 velocity=0 time=34
note_on channel=0 note=80 velocity=41 time=0
control_change channel=0 control=64 value=127 time=14
note_on channel=0 note=80 velocity=0 time=0
note_on channel=0 note=82 velocity=44 time=0
note_on channel=0 note=82 velocity=0 time=60
note_on channel=0 note=80 velocity=44 time=0
note_on channel=0 note=80 velocity=0 time=0
note_on channel=0 note=54 velocity=0 time=0
note_on channel=0 note=84 velocity=48 time=0
note_on channel=0 note=66 velocity=55 time=0
note_on channel=0 note=68 velocity=55 time=0
note_on channel=0 note=75 velocity=66 time=0
note_on channel=0 note=84 velocity=0 time=60
note_on channel=0 note=80 velocity=44 time=0
note_on channel=0 note=80 velocity=0 time=60
note_on channel=0 note=82 velocity=44 time=0
note_on channel=0 note=82 velocity=0 time=60
note_on channel=0 note=80 velocity=44 time=0
note_on channel=0 note=80 velocity=0 time=0
note_on channel=0 note=85 velocity=53 time=0
control_change channel=0 control=64 value=0 time=17
control_change channel=0 control=64 value=127 time=22
note_on channel=0 note=85 velocity=0 time=21
note_on channel=0 note=80 velocity=44 time=0
note_on channel=0 note=80 velocity=0 time=0
note_on channel=0 note=82 velocity=44 time=0
note_on channel=0 note=82 velocity=0 time=60
note_on channel=0 note=80 velocity=44 time=0
note_on channel=0 note=80 velocity=0 time=0
note_on channel=0 note=75 velocity=0 time=0
note_on channel=0 note=68 velocity=0 time=0
note_on channel=0 note=66 velocity=0 time=0
note_on channel=0 note=85 velocity=55 time=0
note_on channel=0 note=65 velocity=49 time=0
note_on channel=0 note=68 velocity=49 time=0
note_on channel=0 note=73 velocity=58 time=0
control_change channel=0 control=64 value=0 time=12
control_change channel=0 control=64 value=127 time=41
note_on channel=0 note=85 velocity=0 time=7
note_on channel=0 note=80 velocity=44 time=0
note_on channel=0 note=80 velocity=0 time=60
note_on channel=0 note=73 velocity=0 time=0
note_on channel=0 note=68 velocity=0 time=0
note_on channel=0 note=65 velocity=0 time=0
note_on channel=0 note=82 velocity=44 time=0
note_on channel=0 note=82 velocity=0 time=60
note_on channel=0 note=80 velocity=44 time=0
note_on channel=0 note=80 velocity=0 time=0
note_on channel=0 note=78 velocity=48 time=0
note_on channel=0 note=63 velocity=46 time=0
note_on channel=0 note=68 velocity=46 time=0
note_on channel=0 note=72 velocity=56 time=0
control_change channel=0 control=64 value=0 time=17
note_on channel=0 note=78 velocity=0 time=43
note_on channel=0 note=80 velocity=44 time=0
note_on channel=0 note=80 velocity=0 time=60
note_on channel=0 note=72 velocity=0 time=0
note_on channel=0 note=68 velocity=0 time=0
note_on channel=0 note=63 velocity=0 time=0
note_on channel=0 note=82 velocity=44 time=0
note_on channel=0 note=82 velocity=0 time=60
note_on channel=0 note=80 velocity=44 time=0
note_on channel=0 note=80 velocity=0 time=0
note_on channel=0 note=77 velocity=48 time=0
note_on channel=0 note=61 velocity=42 time=0
note_on channel=0 note=68 velocity=42 time=0
note_on channel=0 note=73 velocity=50 time=0
note_on channel=0 note=77 velocity=0 time=60
note_on channel=0 note=80 velocity=45 time=0
note_on channel=0 note=80 velocity=0 time=60
note_on channel=0 note=73 velocity=0 time=0
note_on channel=0 note=68 velocity=0 time=0
note_on channel=0 note=61 velocity=0 time=0
note_on channel=0 note=82 velocity=45 time=0
note_on channel=0 note=82 velocity=0 time=60
note_on channel=0 note=80 velocity=45 time=0
note_on channel=0 note=80 velocity=0 time=0
note_on channel=0 note=72 velocity=55 time=0
control_change channel=0 control=64 value=127 time=50
note_on channel=0 note=72 velocity=0 time=10
note_on channel=0 note=80 velocity=42 time=0
note_on channel=0 note=80 velocity=0 time=0
note_on channel=0 note=82 velocity=42 time=0
note_on channel=0 note=82 velocity=0 time=60
note_on channel=0 note=80 velocity=42 time=0
note_on channel=0 note=80 velocity=0 time=0
note_on channel=0 note=84 velocity=51 time=0
note_on channel=0 note=54 velocity=66 time=0
note_on channel=0 note=84 velocity=0 time=60
note_on channel=0 note=80 velocity=42 time=0
note_on channel=0 note=80 velocity=0 time=60
note_on channel=0 note=82 velocity=42 time=0
note_on channel=0 note=82 velocity=0 time=60
note_on channel=0 note=80 velocity=42 time=0
note_on channel=0 note=80 velocity=0 time=0
note_on channel=0 note=87 velocity=55 time=0
control_change channel=0 control=64 value=0 time=22
note_on channel=0 note=87 velocity=0 time=38
note_on channel=0 note=80 velocity=41 time=0
control_change channel=0 control=64 value=127 time=11
note_on channel=0 note=80 velocity=0 time=0
note_on channel=0 note=82 velocity=44 time=0
note_on channel=0 note=82 velocity=0 time=60
note_on channel=0 note=80 velocity=44 time=0
note_on channel=0 note=80 velocity=0 time=60
note_on channel=0 note=54 velocity=0 time=0
note_on channel=0 note=82 velocity=48 time=0
note_on channel=0 note=72 velocity=55 time=0
note_on channel=0 note=75 velocity=55 time=0
note_on channel=0 note=78 velocity=66 time=0
note_on channel=0 note=82 velocity=0 time=60
note_on channel=0 note=80 velocity=44 time=0
note_on channel=0 note=80 velocity=0 time=60
note_on channel=0 note=82 velocity=44 time=0
note_on channel=0 note=82 velocity=0 time=60
note_on channel=0 note=80 velocity=44 time=0
note_on channel=0 note=80 velocity=0 time=0
note_on channel=0 note=82 velocity=53 time=0
control_change channel=0 control=64 value=0 time=9
control_change channel=0 control=64 value=127 time=41
note_on channel=0 note=82 velocity=0 time=10
note_on channel=0 note=80 velocity=44 time=0
note_on channel=0 note=80 velocity=0 time=0
note_on channel=0 note=82 velocity=44 time=0
note_on channel=0 note=82 velocity=0 time=60
note_on channel=0 note=80 velocity=44 time=0
note_on channel=0 note=80 velocity=0 time=0
note_on channel=0 note=78 velocity=0 time=0
note_on channel=0 note=75 velocity=0 time=0
note_on channel=0 note=72 velocity=0 time=0
note_on channel=0 note=85 velocity=55 time=0
note_on channel=0 note=68 velocity=42 time=0
note_on channel=0 note=73 velocity=42 time=0
note_on channel=0 note=77 velocity=61 time=0
control_change channel=0 control=64 value=0 time=12
control_change channel=0 control=64 value=127 time=41
note_on channel=0 note=85 velocity=0 time=7
note_on channel=0 note=80 velocity=44 time=0
note_on channel=0 note=80 velocity=0 time=60
note_on channel=0 note=77 velocity=0 time=0
note_on channel=0 note=73 velocity=0 time=0
note_on channel=0 note=68 velocity=0 time=0
note_on channel=0 note=82 velocity=44 time=0
note_on channel=0 note=82 velocity=0 time=60
note_on channel=0 note=80 velocity=44 time=0
note_on channel=0 note=80 velocity=0 time=0
note_on channel=0 note=87 velocity=59 time=0
note_on channel=0 note=66 velocity=48 time=0
note_on channel=0 note=72 velocity=48 time=0
note_on channel=0 note=75 velocity=58 time=0
control_change channel=0 control=64 value=0 time=12
note_on channel=0 note=87 velocity=0 time=48
note_on channel=0 note=80 velocity=47 time=0
note_on channel=0 note=80 velocity=0 time=60
note_on channel=0 note=75 velocity=0 time=0
note_on channel=0 note=72 velocity=0 time=0
note_on channel=0 note=66 velocity=0 time=0
note_on channel=0 note=82 velocity=47 time=0
note_on channel=0 note=82 velocity=0 time=60
note_on channel=0 note=80 velocity=44 time=0
note_on channel=0 note=80 velocity=0 time=0
note_on channel=0 note=89 velocity=57 time=0
note_on channel=0 note=65 velocity=45 time=0
note_on channel=0 note=68 velocity=45 time=0
note_on channel=0 note=73 velocity=53 time=0
note_on channel=0 note=89 velocity=0 time=60
note_on channel=0 note=80 velocity=47 time=0
note_on channel=0 note=80 velocity=0 time=60
note_on channel=0 note=73 velocity=0 time=0
note_on channel=0 note=68 velocity=0 time=0
note_on channel=0 note=65 velocity=0 time=0
note_on channel=0 note=82 velocity=47 time=0
note_on channel=0 note=82 velocity=0 time=60
note_on channel=0 note=80 velocity=48 time=0
note_on channel=0 note=80 velocity=0 time=0
note_on channel=0 note=87 velocity=71 time=0
control_change channel=0 control=64 value=127 time=43
note_on channel=0 note=87 velocity=0 time=17
note_on channel=0 note=84 velocity=58 time=0
note_on channel=0 note=84 velocity=0 time=0
note_on channel=0 note=85 velocity=58 time=0
note_on channel=0 note=85 velocity=0 time=60
note_on channel=0 note=84 velocity=58 time=0
note_on channel=0 note=84 velocity=0 time=0
note_on channel=0 note=87 velocity=72 time=0
note_on channel=0 note=66 velocity=74 time=0
note_on channel=0 note=72 velocity=74 time=0
note_on channel=0 note=75 velocity=74 time=0
note_on channel=0 note=87 velocity=0 time=60
note_on channel=0 note=84 velocity=58 time=0
note_on channel=0 note=84 velocity=0 time=60
note_on channel=0 note=85 velocity=59 time=0
note_on channel=0 note=85 velocity=0 time=60
note_on channel=0 note=84 velocity=61 time=0
note_on channel=0 note=84 velocity=0 time=0
note_on channel=0 note=92 velocity=75 time=0
control_change channel=0 control=64 value=0 time=13
note_on channel=0 note=92 velocity=0 time=47
note_on channel=0 note=84 velocity=57 time=0
control_change channel=0 control=64 value=127 time=0
note_on channel=0 note=84 velocity=0 time=0
note_on channel=0 note=85 velocity=61 time=0
note_on channel=0 note=85 velocity=0 time=60
note_on channel=0 note=84 velocity=61 time=0
note_on channel=0 note=84 velocity=0 time=0
note_on channel=0 note=75 velocity=0 time=0
note_on channel=0 note=72 velocity=0 time=0
note_on channel=0 note=66 velocity=0 time=0
note_on channel=0 note=92 velocity=78 time=0
note_on channel=0 note=75 velocity=68 time=0
note_on channel=0 note=78 velocity=68 time=0
note_on channel=0 note=80 velocity=81 time=0
note_on channel=0 note=92 velocity=0 time=60
note_on channel=0 note=84 velocity=68 time=0
note_on channel=0 note=84 velocity=0 time=60
note_on channel=0 note=85 velocity=69 time=0
note_on channel=0 note=85 velocity=0 time=60
note_on channel=0 note=84 velocity=70 time=0
note_on channel=0 note=84 velocity=0 time=0
note_on channel=0 note=92 velocity=82 time=0
control_change channel=0 control=64 value=0 time=18
control_change channel=0 control=64 value=127 time=28
note_on channel=0 note=92 velocity=0 time=14
note_on channel=0 note=84 velocity=72 time=0
note_on channel=0 note=84 velocity=0 time=0
note_on channel=0 note=85 velocity=73 time=0
note_on channel=0 note=85 velocity=0 time=60
note_on channel=0 note=84 velocity=74 time=0
note_on channel=0 note=84 velocity=0 time=0
note_on channel=0 note=80 velocity=0 time=0
note_on channel=0 note=78 velocity=0 time=0
note_on channel=0 note=75 velocity=0 time=0
note_on channel=0 note=92 velocity=90 time=0
note_on channel=0 note=73 velocity=52 time=0
note_on channel=0 note=77 velocity=52 time=0
note_on channel=0 note=80 velocity=75 time=0
control_change channel=0 control=64 value=0 time=9
note_on channel=0 note=92 velocity=0 time=51
note_on channel=0 note=85 velocity=78 time=0
control_change channel=0 control=64 value=127 time=14
note_on channel=0 note=85 velocity=0 time=46
note_on channel=0 note=80 velocity=0 time=0
note_on channel=0 note=77 velocity=0 time=0
note_on channel=0 note=73 velocity=0 time=0
note_on channel=0 note=87 velocity=78 time=0
note_on channel=0 note=87 velocity=0 time=60
note_on channel=0 note=85 velocity=80 time=0
note_on channel=0 note=85 velocity=0 time=0
note_on channel=0 note=92 velocity=97 time=0
note_on channel=0 note=72 velocity=61 time=0
note_on channel=0 note=66 velocity=61 time=0
note_on channel=0 note=75 velocity=61 time=0
note_on channel=0 note=78 velocity=74 time=0
control_change channel=0 control=64 value=0 time=15
note_on channel=0 note=92 velocity=0 time=45
note_on channel=0 note=87 velocity=81 time=0
control_change channel=0 control=64 value=127 time=4
note_on channel=0 note=87 velocity=0 time=56
note_on channel=0 note=78 velocity=0 time=0
note_on channel=0 note=72 velocity=0 time=0
note_on channel=0 note=66 velocity=0 time=0
note_on channel=0 note=75 velocity=0 time=0
note_on channel=0 note=89 velocity=82 time=0
note_on channel=0 note=89 velocity=0 time=60
note_on channel=0 note=87 velocity=84 time=0
note_on channel=0 note=87 velocity=0 time=0
note_on channel=0 note=92 velocity=99 time=0
note_on channel=0 note=68 velocity=60 time=0
note_on channel=0 note=65 velocity=60 time=0
note_on channel=0 note=73 velocity=60 time=0
note_on channel=0 note=77 velocity=72 time=0
control_change channel=0 control=64 value=0 time=18
note_on channel=0 note=92 velocity=0 time=40
note_on channel=0 note=89 velocity=84 time=0
control_change channel=0 control=64 value=127 time=0
note_on channel=0 note=89 velocity=0 time=20
note_on channel=0 note=77 velocity=0 time=0
note_on channel=0 note=68 velocity=0 time=0
note_on channel=0 note=65 velocity=0 time=0
note_on channel=0 note=73 velocity=0 time=0
note_on channel=0 note=90 velocity=85 time=0
note_on channel=0 note=90 velocity=0 time=0
note_on channel=0 note=89 velocity=88 time=0
note_on channel=0 note=89 velocity=0 time=0
note_on channel=0 note=94 velocity=104 time=0
control_change channel=0 control=64 value=0 time=13
control_change channel=0 control=64 value=127 time=19
note_on channel=0 note=94 velocity=0 time=0
note_on channel=0 note=90 velocity=92 time=0
note_on channel=0 note=90 velocity=0 time=0
note_on channel=0 note=94 velocity=97 time=0
note_on channel=0 note=94 velocity=0 time=0
note_on channel=0 note=92 velocity=86 time=0
note_on channel=0 note=92 velocity=0 time=0
note_on channel=0 note=90 velocity=97 time=0
note_on channel=0 note=63 velocity=68 time=0
note_on channel=0 note=66 velocity=68 time=0
note_on channel=0 note=70 velocity=68 time=0
note_on channel=0 note=73 velocity=81 time=0
note_on channel=0 note=90 velocity=0 time=60
note_on channel=0 note=89 velocity=83 time=0
note_on channel=0 note=89 velocity=0 time=60
note_on channel=0 note=73 velocity=0 time=0
note_on channel=0 note=63 velocity=0 time=0
note_on channel=0 note=66 velocity=0 time=0
note_on channel=0 note=70 velocity=0 time=0
note_on channel=0 note=87 velocity=90 time=0
note_on channel=0 note=87 velocity=0 time=60
note_on channel=0 note=85 velocity=78 time=0
note_on channel=0 note=85 velocity=0 time=60
note_on channel=0 note=84 velocity=86 time=0
control_change channel=0 control=64 value=0 time=18
note_on channel=0 note=84 velocity=0 time=42
note_on channel=0 note=82 velocity=79 time=0
control_change channel=0 control=64 value=127 time=7
note_on channel=0 note=82 velocity=0 time=53
note_on channel=0 note=80 velocity=82 time=0
note_on channel=0 note=80 velocity=0 time=60
note_on channel=0 note=78 velocity=75 time=0
note_on channel=0 note=78 velocity=0 time=60
note_on channel=0 note=77 velocity=79 time=0
note_on channel=0 note=56 velocity=69 time=0
note_on channel=0 note=60 velocity=69 time=0
note_on channel=0 note=63 velocity=69 time=0
note_on channel=0 note=66 velocity=82 time=0
note_on channel=0 note=77 velocity=0 time=60
note_on channel=0 note=75 velocity=72 time=0
note_on channel=0 note=75 velocity=0 time=60
note_on channel=0 note=66 velocity=0 time=0
note_on channel=0 note=56 velocity=0 time=0
note_on channel=0 note=60 velocity=0 time=0
note_on channel=0 note=63 velocity=0 time=0
note_on channel=0 note=73 velocity=75 time=0
note_on channel=0 note=73 velocity=0 time=60
note_on channel=0 note=72 velocity=69 time=0
note_on channel=0 note=72 velocity=0 time=0
note_on channel=0 note=73 velocity=72 time=0
control_change channel=0 control=64 value=0 time=25
control_change channel=0 control=64 value=127 time=32
note_on channel=0 note=73 velocity=0 time=3
note_on channel=0 note=70 velocity=70 time=0
note_on channel=0 note=70 velocity=0 time=60
note_on channel=0 note=68 velocity=69 time=0
note_on channel=0 note=68 velocity=0 time=60
note_on channel=0 note=66 velocity=67 time=0
note_on channel=0 note=66 velocity=0 time=0
note_on channel=0 note=65 velocity=64 time=0
note_on channel=0 note=65 velocity=0 time=60
note_on channel=0 note=63 velocity=63 time=0
note_on channel=0 note=63 velocity=0 time=60
note_on channel=0 note=61 velocity=61 time=0
note_on channel=0 note=61 velocity=0 time=60
note_on channel=0 note=60 velocity=60 time=0
note_on channel=0 note=60 velocity=0 time=0
note_on channel=0 note=58 velocity=54 time=0
note_on channel=0 note=58 velocity=0 time=0
note_on channel=0 note=56 velocity=53 time=0
note_on channel=0 note=56 velocity=0 time=0
note_on channel=0 note=54 velocity=51 time=0
note_on channel=0 note=54 velocity=0 time=0
note_on channel=0 note=53 velocity=50 time=0
note_on channel=0 note=53 velocity=0 time=0
note_on channel=0 note=51 velocity=48 time=0
note_on channel=0 note=51 velocity=0 time=0
note_on channel=0 note=49 velocity=47 time=0
note_on channel=0 note=49 velocity=0 time=0
note_on channel=0 note=44 velocity=45 time=0
note_on channel=0 note=44 velocity=0 time=0
note_on channel=0 note=41 velocity=44 time=0
note_on channel=0 note=41 velocity=0 time=0
note_on channel=0 note=49 velocity=39 time=0
note_on channel=0 note=53 velocity=39 time=0
note_on channel=0 note=56 velocity=47 time=0
note_on channel=0 note=37 velocity=47 time=0
control_change channel=0 control=64 value=0 time=9
control_change channel=0 control=64 value=127 time=205
note_on channel=0 note=37 velocity=0 time=0
note_on channel=0 note=49 velocity=0 time=0
note_on channel=0 note=53 velocity=0 time=0
note_on channel=0 note=56 velocity=0 time=0
note_on channel=0 note=49 velocity=37 time=0
note_on channel=0 note=54 velocity=44 time=0
note_on channel=0 note=58 velocity=44 time=0
note_on channel=0 note=30 velocity=35 time=0
control_change channel=0 control=64 value=0 time=18
control_change channel=0 control=64 value=127 time=249
note_on channel=0 note=30 velocity=0 time=0
note_on channel=0 note=49 velocity=0 time=0
note_on channel=0 note=54 velocity=0 time=0
note_on channel=0 note=58 velocity=0 time=0
note_on channel=0 note=49 velocity=37 time=0
note_on channel=0 note=53 velocity=37 time=0
note_on channel=0 note=56 velocity=44 time=0
note_on channel=0 note=37 velocity=37 time=0
control_change channel=0 control=64 value=0 time=10
control_change channel=0 control=64 value=127 time=117
note_on channel=0 note=37 velocity=0 time=0
note_on channel=0 note=49 velocity=0 time=0
note_on channel=0 note=53 velocity=0 time=0
note_on channel=0 note=56 velocity=0 time=0
note_on channel=0 note=61 velocity=37 time=0
note_on channel=0 note=63 velocity=37 time=0
note_on channel=0 note=70 velocity=44 time=0
note_on channel=0 note=54 velocity=35 time=0
control_change channel=0 control=64 value=0 time=16
note_on channel=0 note=54 velocity=0 time=0
note_on channel=0 note=61 velocity=0 time=0
note_on channel=0 note=63 velocity=0 time=0
note_on channel=0 note=70 velocity=0 time=0
note_on channel=0 note=61 velocity=39 time=0
note_on channel=0 note=63 velocity=39 time=0
note_on channel=0 note=68 velocity=47 time=0
note_on channel=0 note=56 velocity=40 time=0
control_change channel=0 control=64 value=127 time=64
note_on channel=0 note=68 velocity=0 time=0
note_on channel=0 note=61 velocity=0 time=0
note_on channel=0 note=63 velocity=0 time=0
note_on channel=0 note=60 velocity=38 time=0
note_on channel=0 note=63 velocity=38 time=0
note_on channel=0 note=68 velocity=46 time=0
control_change channel=0 control=64 value=0 time=18
control_change channel=0 control=64 value=127 time=88
note_on channel=0 note=56 velocity=0 time=14
note_on channel=0 note=54 velocity=38 time=0
note_on channel=0 note=54 velocity=0 time=120
note_on channel=0 note=53 velocity=38 time=0
note_on channel=0 note=53 velocity=0 time=120
note_on channel=0 note=51 velocity=38 time=0
note_on channel=0 note=51 velocity=0 time=0
note_on channel=0 note=68 velocity=0 time=0
note_on channel=0 note=63 velocity=0 time=0
note_on channel=0 note=60 velocity=0 time=0
note_on channel=0 note=61 velocity=39 time=0
note_on channel=0 note=65 velocity=39 time=0
note_on channel=0 note=68 velocity=47 time=0
note_on channel=0 note=49 velocity=40 time=0
control_change channel=0 control=64 value=0 time=14
control_change channel=0 control=64 value=127 time=64
note_on channel=0 note=49 velocity=0 time=42
note_on channel=0 note=46 velocity=37 time=0
note_on channel=0 note=46 velocity=0 time=120
note_on channel=0 note=68 velocity=0 time=0
note_on channel=0 note=65 velocity=0 time=0
note_on channel=0 note=61 velocity=0 time=0
note_on channel=0 note=44 velocity=37 time=0
note_on channel=0 note=44 velocity=0 time=120
note_on channel=0 note=42 velocity=37 time=0
note_on channel=0 note=42 velocity=0 time=0
note_on channel=0 note=41 velocity=40 time=0
control_change channel=0 control=64 value=0 time=18
control_change channel=0 control=64 value=127 time=4
note_on channel=0 note=41 velocity=0 time=20
note_on channel=0 note=44 velocity=38 time=0
note_on channel=0 note=44 velocity=0 time=20
note_on channel=0 note=42 velocity=38 time=0
control_change channel=0 control=64 value=0 time=17
control_change channel=0 control=64 value=127 time=4
note_on channel=0 note=42 velocity=0 time=0
note_on channel=0 note=39 velocity=38 time=0
note_on channel=0 note=39 velocity=0 time=0
note_on channel=0 note=53 velocity=45 time=0
note_on channel=0 note=56 velocity=45 time=0
note_on channel=0 note=61 velocity=54 time=0
note_on channel=0 note=37 velocity=39 time=0
note_on channel=0 note=49 velocity=46 time=0
control_change channel=0 control=64 value=0 time=7
control_change channel=0 control=64 value=127 time=180
note_on channel=0 note=49 velocity=0 time=0
note_on channel=0 note=61 velocity=0 time=0
note_on channel=0 note=53 velocity=0 time=0
note_on channel=0 note=56 velocity=0 time=0
note_on channel=0 note=37 velocity=0 time=0
note_on channel=0 note=54 velocity=47 time=0
note_on channel=0 note=58 velocity=47 time=0
note_on channel=0 note=61 velocity=56 time=0
note_on channel=0 note=30 velocity=40 time=0
note_on channel=0 note=42 velocity=48 time=0
control_change channel=0 control=64 value=0 time=19
control_change channel=0 control=64 value=127 time=195
note_on channel=0 note=42 velocity=0 time=0
note_on channel=0 note=61 velocity=0 time=0
note_on channel=0 note=54 velocity=0 time=0
note_on channel=0 note=58 velocity=0 time=0
note_on channel=0 note=30 velocity=0 time=0
note_on channel=0 note=53 velocity=36 time=0
note_on channel=0 note=56 velocity=36 time=0
note_on channel=0 note=61 velocity=44 time=0
note_on channel=0 note=37 velocity=27 time=0
note_on channel=0 note=49 velocity=32 time=0
control_change channel=0 control=64 value=0 time=11
control_change channel=0 control=64 value=127 time=95
note_on channel=0 note=49 velocity=0 time=240
note_on channel=0 note=61 velocity=0 time=0
note_on channel=0 note=53 velocity=0 time=0
note_on channel=0 note=56 velocity=0 time=0
note_on channel=0 note=37 velocity=0 time=0
note_on channel=0 note=64 velocity=37 time=0
note_on channel=0 note=67 velocity=37 time=0
note_on channel=0 note=73 velocity=44 time=0
note_on channel=0 note=57 velocity=36 time=0
control_change channel=0 control=64 value=0 time=9
note_on channel=0 note=57 velocity=0 time=231
note_on channel=0 note=64 velocity=0 time=0
note_on channel=0 note=67 velocity=0 time=0
note_on channel=0 note=73 velocity=0 time=0
note_on channel=0 note=63 velocity=39 time=0
note_on channel=0 note=66 velocity=39 time=0
note_on channel=0 note=73 velocity=47 time=0
note_on channel=0 note=56 velocity=37 time=0
control_change channel=0 control=64 value=127 time=113
note_on channel=0 note=73 velocity=0 time=0
note_on channel=0 note=63 velocity=0 time=0
note_on channel=0 note=66 velocity=0 time=0
note_on channel=0 note=63 velocity=37 time=0
note_on channel=0 note=66 velocity=37 time=0
note_on channel=0 note=72 velocity=43 time=0
control_change channel=0 control=64 value=0 time=18
note_on channel=0 note=56 velocity=0 time=102
note_on channel=0 note=54 velocity=37 time=0
control_change channel=0 control=64 value=127 time=0
note_on channel=0 note=54 velocity=0 time=120
note_on channel=0 note=51 velocity=37 time=0
note_on channel=0 note=51 velocity=0 time=120
note_on channel=0 note=48 velocity=37 time=0
note_on channel=0 note=48 velocity=0 time=0
note_on channel=0 note=72 velocity=0 time=0
note_on channel=0 note=66 velocity=0 time=0
note_on channel=0 note=63 velocity=0 time=0
note_on channel=0 note=61 velocity=37 time=0
note_on channel=0 note=65 velocity=37 time=0
note_on channel=0 note=73 velocity=43 time=0
note_on channel=0 note=44 velocity=40 time=0
control_change channel=0 control=64 value=0 time=17
control_change channel=0 control=64 value=127 time=54
note_on channel=0 note=44 velocity=0 time=49
note_on channel=0 note=41 velocity=37 time=0
note_on channel=0 note=41 velocity=0 time=120
note_on channel=0 note=73 velocity=0 time=0
note_on channel=0 note=65 velocity=0 time=0
note_on channel=0 note=61 velocity=0 time=0
note_on channel=0 note=39 velocity=37 time=0
control_change channel=0 control=64 value=0 time=14
control_change channel=0 control=64 value=127 time=64
note_on channel=0 note=39 velocity=0 time=42
note_on channel=0 note=37 velocity=37 time=0
note_on channel=0 note=37 velocity=0 time=20
note_on channel=0 note=36 velocity=40 time=0
control_change channel=0 control=64 value=0 time=16
control_change channel=0 control=64 value=127 time=38
note_on channel=0 note=36 velocity=0 time=0
note_on channel=0 note=37 velocity=37 time=0
control_change channel=0 control=64 value=0 time=34
note_on channel=0 note=37 velocity=0 time=0
note_on channel=0 note=41 velocity=37 time=0
note_on channel=0 note=41 velocity=0 time=0
note_on channel=0 note=37 velocity=37 time=0
note_on channel=0 note=37 velocity=0 time=0
note_on channel=0 note=48 velocity=39 time=0
note_on channel=0 note=51 velocity=39 time=0
note_on channel=0 note=56 velocity=47 time=0
note_on channel=0 note=42 velocity=40 time=0
note_on channel=0 note=44 velocity=40 time=0
control_change channel=0 control=64 value=127 time=48
note_on channel=0 note=44 velocity=0 time=0
note_on channel=0 note=56 velocity=0 time=0
note_on channel=0 note=48 velocity=0 time=0
note_on channel=0 note=51 velocity=0 time=0
note_on channel=0 note=42 velocity=0 time=0
note_on channel=0 note=48 velocity=37 time=0
note_on channel=0 note=54 velocity=44 time=0
note_on channel=0 note=56 velocity=44 time=0
note_on channel=0 note=39 velocity=35 time=0
note_on channel=0 note=44 velocity=35 time=0
control_change channel=0 control=64 value=0 time=13
control_change channel=0 control=64 value=127 time=133
note_on channel=0 note=44 velocity=0 time=60
note_on channel=0 note=56 velocity=0 time=0
note_on channel=0 note=48 velocity=0 time=0
note_on channel=0 note=54 velocity=0 time=0
note_on channel=0 note=39 velocity=0 time=0
note_on channel=0 note=48 velocity=37 time=0
note_on channel=0 note=51 velocity=44 time=0
note_on channel=0 note=56 velocity=44 time=0
note_on channel=0 note=42 velocity=35 time=0
note_on channel=0 note=44 velocity=35 time=0
note_on channel=0 note=44 velocity=0 time=0
note_on channel=0 note=56 velocity=0 time=0
note_on channel=0 note=48 velocity=0 time=0
note_on channel=0 note=51 velocity=0 time=0
note_on channel=0 note=42 velocity=0 time=0
note_on channel=0 note=49 velocity=39 time=0
note_on channel=0 note=53 velocity=39 time=0
note_on channel=0 note=56 velocity=47 time=0
note_on channel=0 note=41 velocity=33 time=0
note_on channel=0 note=44 velocity=39 time=0
control_change channel=0 control=64 value=0 time=19
control_change channel=0 control=64 value=127 time=52
note_on channel=0 note=44 velocity=0 time=0
note_on channel=0 note=56 velocity=0 time=0
note_on channel=0 note=49 velocity=0 time=0
note_on channel=0 note=53 velocity=0 time=0
note_on channel=0 note=41 velocity=0 time=0
note_on channel=0 note=65 velocity=45 time=0
note_on channel=0 note=68 velocity=45 time=0
note_on channel=0 note=73 velocity=53 time=0
note_on channel=0 note=61 velocity=46 time=0
note_on channel=0 note=61 velocity=0 time=0
note_on channel=0 note=65 velocity=0 time=0
note_on channel=0 note=68 velocity=0 time=0
note_on channel=0 note=73 velocity=0 time=0
note_on channel=0 note=68 velocity=41 time=0
note_on channel=0 note=66 velocity=41 time=0
note_on channel=0 note=72 velocity=49 time=0
note_on channel=0 note=63 velocity=44 time=0
control_change channel=0 control=64 value=0 time=22
control_change channel=0 control=64 value=127 time=91
note_on channel=0 note=63 velocity=0 time=0
note_on channel=0 note=68 velocity=0 time=0
note_on channel=0 note=66 velocity=0 time=0
note_on channel=0 note=72 velocity=0 time=0
note_on channel=0 note=65 velocity=31 time=0
note_on channel=0 note=68 velocity=31 time=0
note_on channel=0 note=73 velocity=37 time=0
note_on channel=0 note=61 velocity=34 time=0
control_change channel=0 control=64 value=0 time=7
control_change channel=0 control=64 value=127 time=78
note_on channel=0 note=61 velocity=0 time=0
note_on channel=0 note=65 velocity=0 time=0
note_on channel=0 note=68 velocity=0 time=0
note_on channel=0 note=73 velocity=0 time=0
note_on channel=0 note=48 velocity=39 time=0
note_on channel=0 note=51 velocity=39 time=0
note_on channel=0 note=56 velocity=47 time=0
note_on channel=0 note=42 velocity=40 time=0
note_on channel=0 note=44 velocity=40 time=0
control_change channel=0 control=64 value=0 time=15
control_change channel=0 control=64 value=127 time=29
note_on channel=0 note=44 velocity=0 time=0
note_on channel=0 note=56 velocity=0 time=0
note_on channel=0 note=48 velocity=0 time=0
note_on channel=0 note=51 velocity=0 time=0
note_on channel=0 note=42 velocity=0 time=0
note_on channel=0 note=48 velocity=37 time=0
note_on channel=0 note=54 velocity=44 time=0
note_on channel=0 note=56 velocity=44 time=0
note_on channel=0 note=39 velocity=35 time=0
note_on channel=0 note=44 velocity=35 time=0
control_change channel=0 control=64 value=0 time=17
control_change channel=0 control=64 value=127 time=141
note_on channel=0 note=44 velocity=0 time=60
note_on channel=0 note=56 velocity=0 time=0
note_on channel=0 note=48 velocity=0 time=0
note_on channel=0 note=54 velocity=0 time=0
note_on channel=0 note=39 velocity=0 time=0
note_on channel=0 note=48 velocity=37 time=0
note_on channel=0 note=51 velocity=44 time=0
note_on channel=0 note=56 velocity=44 time=0
note_on channel=0 note=42 velocity=35 time=0
note_on channel=0 note=44 velocity=35 time=0
note_on channel=0 note=44 velocity=0 time=0
note_on channel=0 note=56 velocity=0 time=0
note_on channel=0 note=48 velocity=0 time=0
note_on channel=0 note=51 velocity=0 time=0
note_on channel=0 note=42 velocity=0 time=0
note_on channel=0 note=49 velocity=39 time=0
note_on channel=0 note=53 velocity=39 time=0
note_on channel=0 note=56 velocity=47 time=0
note_on channel=0 note=41 velocity=33 time=0
note_on channel=0 note=44 velocity=39 time=0
control_change channel=0 control=64 value=0 time=14
control_change channel=0 control=64 value=127 time=64
note_on channel=0 note=44 velocity=0 time=0
note_on channel=0 note=56 velocity=0 time=0
note_on channel=0 note=49 velocity=0 time=0
note_on channel=0 note=53 velocity=0 time=0
note_on channel=0 note=41 velocity=0 time=0
note_on channel=0 note=65 velocity=45 time=0
note_on channel=0 note=68 velocity=45 time=0
note_on channel=0 note=77 velocity=55 time=0
note_on channel=0 note=61 velocity=46 time=0
note_on channel=0 note=61 velocity=0 time=0
note_on channel=0 note=65 velocity=0 time=0
note_on channel=0 note=68 velocity=0 time=0
note_on channel=0 note=77 velocity=0 time=0
note_on channel=0 note=68 velocity=45 time=0
note_on channel=0 note=66 velocity=45 time=0
note_on channel=0 note=77 velocity=58 time=0
note_on channel=0 note=60 velocity=44 time=0
control_change channel=0 control=64 value=0 time=16
control_change channel=0 control=64 value=127 time=62
note_on channel=0 note=77 velocity=0 time=0
note_on channel=0 note=75 velocity=51 time=0
note_on channel=0 note=75 velocity=0 time=0
note_on channel=0 note=60 velocity=0 time=0
note_on channel=0 note=66 velocity=0 time=0
note_on channel=0 note=68 velocity=0 time=0
note_on channel=0 note=65 velocity=31 time=0
note_on channel=0 note=68 velocity=31 time=0
note_on channel=0 note=73 velocity=37 time=0
note_on channel=0 note=61 velocity=34 time=0
control_change channel=0 control=64 value=0 time=7
control_change channel=0 control=64 value=127 time=57
note_on channel=0 note=61 velocity=0 time=0
note_on channel=0 note=65 velocity=0 time=0
note_on channel=0 note=68 velocity=0 time=0
note_on channel=0 note=73 velocity=0 time=0
note_on channel=0 note=48 velocity=53 time=0
note_on channel=0 note=51 velocity=53 time=0
note_on channel=0 note=56 velocity=66 time=0
note_on channel=0 note=42 velocity=56 time=0
note_on channel=0 note=44 velocity=56 time=0
control_change channel=0 control=64 value=0 time=11
control_change channel=0 control=64 value=127 time=46
note_on channel=0 note=44 velocity=0 time=0
note_on channel=0 note=56 velocity=0 time=0
note_on channel=0 note=48 velocity=0 time=0
note_on channel=0 note=51 velocity=0 time=0
note_on channel=0 note=42 velocity=0 time=0
note_on channel=0 note=48 velocity=61 time=0
note_on channel=0 note=54 velocity=72 time=0
note_on channel=0 note=56 velocity=72 time=0
note_on channel=0 note=39 velocity=57 time=0
note_on channel=0 note=44 velocity=57 time=0
control_change channel=0 control=64 value=0 time=19
control_change channel=0 control=64 value=127 time=111
note_on channel=0 note=44 velocity=0 time=60
note_on channel=0 note=56 velocity=0 time=0
note_on channel=0 note=48 velocity=0 time=0
note_on channel=0 note=54 velocity=0 time=0
note_on channel=0 note=39 velocity=0 time=0
note_on channel=0 note=48 velocity=65 time=0
note_on channel=0 note=51 velocity=77 time=0
note_on channel=0 note=56 velocity=77 time=0
note_on channel=0 note=42 velocity=62 time=0
note_on channel=0 note=44 velocity=62 time=0
note_on channel=0 note=44 velocity=0 time=0
note_on channel=0 note=56 velocity=0 time=0
note_on channel=0 note=48 velocity=0 time=0
note_on channel=0 note=51 velocity=0 time=0
note_on channel=0 note=42 velocity=0 time=0
note_on channel=0 note=68 velocity=80 time=0
note_on channel=0 note=73 velocity=80 time=0
note_on channel=0 note=80 velocity=98 time=0
note_on channel=0 note=65 velocity=82 time=0
control_change channel=0 control=64 value=0 time=18
control_change channel=0 control=64 value=127 time=130
note_on channel=0 note=65 velocity=0 time=0
note_on channel=0 note=68 velocity=0 time=0
note_on channel=0 note=73 velocity=0 time=0
note_on channel=0 note=80 velocity=0 time=0
note_on channel=0 note=73 velocity=70 time=0
note_on channel=0 note=77 velocity=70 time=0
note_on channel=0 note=80 velocity=83 time=0
note_on channel=0 note=61 velocity=56 time=0
note_on channel=0 note=65 velocity=63 time=0
note_on channel=0 note=65 velocity=0 time=0
note_on channel=0 note=80 velocity=0 time=0
note_on channel=0 note=73 velocity=0 time=0
note_on channel=0 note=77 velocity=0 time=0
note_on channel=0 note=61 velocity=0 time=0
note_on channel=0 note=75 velocity=70 time=0
note_on channel=0 note=72 velocity=70 time=0
note_on channel=0 note=80 velocity=87 time=0
note_on channel=0 note=63 velocity=59 time=0
note_on channel=0 note=66 velocity=71 time=0
control_change channel=0 control=64 value=0 time=18
control_change channel=0 control=64 value=127 time=74
note_on channel=0 note=80 velocity=0 time=0
note_on channel=0 note=78 velocity=68 time=0
note_on channel=0 note=78 velocity=0 time=0
note_on channel=0 note=66 velocity=0 time=0
note_on channel=0 note=75 velocity=0 time=0
note_on channel=0 note=72 velocity=0 time=0
note_on channel=0 note=63 velocity=0 time=0
note_on channel=0 note=73 velocity=57 time=0
note_on channel=0 note=77 velocity=71 time=0
note_on channel=0 note=65 velocity=47 time=0
note_on channel=0 note=68 velocity=53 time=0
control_change channel=0 control=64 value=0 time=14
control_change channel=0 control=64 value=127 time=64
note_on channel=0 note=68 velocity=0 time=0
note_on channel=0 note=65 velocity=0 time=0
note_on channel=0 note=61 velocity=37 time=0
note_on channel=0 note=65 velocity=50 time=0
note_on channel=0 note=65 velocity=0 time=0
note_on channel=0 note=73 velocity=0 time=0
note_on channel=0 note=77 velocity=0 time=0
note_on channel=0 note=61 velocity=0 time=0
note_on channel=0 note=66 velocity=39 time=0
note_on channel=0 note=70 velocity=39 time=0
note_on channel=0 note=75 velocity=47 time=0
note_on channel=0 note=54 velocity=37 time=0
note_on channel=0 note=58 velocity=37 time=0
control_change channel=0 control=64 value=0 time=10
control_change channel=0 control=64 value=127 time=204
note_on channel=0 note=58 velocity=0 time=0
note_on channel=0 note=75 velocity=0 time=0
note_on channel=0 note=66 velocity=0 time=0
note_on channel=0 note=70 velocity=0 time=0
note_on channel=0 note=54 velocity=0 time=0
note_on channel=0 note=63 velocity=37 time=0
note_on channel=0 note=68 velocity=43 time=0
note_on channel=0 note=60 velocity=34 time=0
note_on channel=0 note=56 velocity=34 time=0
control_change channel=0 control=64 value=0 time=16
control_change channel=0 control=64 value=127 time=224
note_on channel=0 note=56 velocity=0 time=0
note_on channel=0 note=63 velocity=0 time=0
note_on channel=0 note=68 velocity=0 time=0
note_on channel=0 note=60 velocity=0 time=0
note_on channel=0 note=46 velocity=27 time=0
control_change channel=0 control=64 value=0 time=12
control_change channel=0 control=64 value=127 time=45
note_on channel=0 note=49 velocity=28 time=3
note_on channel=0 note=52 velocity=30 time=60
note_on channel=0 note=55 velocity=31 time=60
note_on channel=0 note=58 velocity=34 time=60
note_on channel=0 note=61 velocity=30 time=60
note_on channel=0 note=64 velocity=32 time=60
note_on channel=0 note=67 velocity=34 time=60
note_on channel=0 note=73 velocity=38 time=0
note_on channel=0 note=73 velocity=0 time=0
note_on channel=0 note=55 velocity=0 time=0
note_on channel=0 note=46 velocity=0 time=0
note_on channel=0 note=58 velocity=0 time=0
note_on channel=0 note=49 velocity=0 time=0
note_on channel=0 note=52 velocity=0 time=0
note_on channel=0 note=64 velocity=0 time=0
note_on channel=0 note=61 velocity=0 time=0
note_on channel=0 note=67 velocity=0 time=0
note_on channel=0 note=58 velocity=74 time=0
control_change channel=0 control=64 value=0 time=12
control_change channel=0 control=64 value=127 time=37
note_on channel=0 note=61 velocity=79 time=11
note_on channel=0 note=64 velocity=82 time=60
note_on channel=0 note=67 velocity=86 time=60
note_on channel=0 note=85 velocity=102 time=0
note_on channel=0 note=79 velocity=86 time=0
note_on channel=0 note=76 velocity=86 time=0
note_on channel=0 note=73 velocity=86 time=0
note_on channel=0 note=70 velocity=90 time=0
note_on channel=0 note=70 velocity=0 time=0
note_on channel=0 note=67 velocity=0 time=0
note_on channel=0 note=58 velocity=0 time=0
note_on channel=0 note=85 velocity=0 time=0
note_on channel=0 note=61 velocity=0 time=0
note_on channel=0 note=64 velocity=0 time=0
note_on channel=0 note=76 velocity=0 time=0
note_on channel=0 note=79 velocity=0 time=0
note_on channel=0 note=73 velocity=0 time=0
control_change channel=0 control=64 value=0 time=44
