note_on channel=0 note=77 velocity=45 time=0
note_on channel=0 note=77 velocity=0 time=0
note_on channel=0 note=79 velocity=50 time=0
note_on channel=0 note=79 velocity=0 time=120
note_on channel=0 note=77 velocity=46 time=0
note_on channel=0 note=77 velocity=0 time=120
note_on channel=0 note=75 velocity=50 time=0
note_on channel=0 note=58 velocity=42 time=0
note_on channel=0 note=75 velocity=0 time=120
note_on channel=0 note=74 velocity=46 time=0
note_on channel=0 note=65 velocity=34 time=0
note_on channel=0 note=65 velocity=0 time=120
note_on channel=0 note=74 velocity=0 time=0
note_on channel=0 note=58 velocity=0 time=0
note_on channel=0 note=72 velocity=46 time=0
note_on channel=0 note=62 velocity=38 time=0
note_on channel=0 note=72 velocity=0 time=120
note_on channel=0 note=70 velocity=46 time=0
note_on channel=0 note=65 velocity=34 time=0
note_on channel=0 note=65 velocity=0 time=120
note_on channel=0 note=70 velocity=0 time=0
note_on channel=0 note=62 velocity=0 time=0
note_on channel=0 note=69 velocity=50 time=0
note_on channel=0 note=63 velocity=38 time=0
note_on channel=0 note=60 velocity=38 time=0
control_change channel=0 control=64 value=127 time=78
note_on channel=0 note=63 velocity=0 time=42
note_on channel=0 note=65 velocity=34 time=0
note_on channel=0 note=65 velocity=0 time=120
note_on channel=0 note=60 velocity=0 time=0
note_on channel=0 note=69 velocity=0 time=0
note_on channel=0 note=70 velocity=47 time=0
note_on channel=0 note=62 velocity=37 time=0
note_on channel=0 note=58 velocity=37 time=0
control_change channel=0 control=64 value=0 time=5
control_change channel=0 control=64 value=127 time=80
note_on channel=0 note=62 velocity=0 time=0
note_on channel=0 note=65 velocity=34 time=0
note_on channel=0 note=65 velocity=0 time=0
note_on channel=0 note=58 velocity=0 time=0
note_on channel=0 note=70 velocity=0 time=0
note_on channel=0 note=71 velocity=53 time=0
note_on channel=0 note=57 velocity=43 time=0
note_on channel=0 note=63 velocity=43 time=0
control_change channel=0 control=64 value=0 time=0
note_on channel=0 note=65 velocity=34 time=120
note_on channel=0 note=65 velocity=0 time=60
note_on channel=0 note=71 velocity=0 time=0
note_on channel=0 note=72 velocity=49 time=0
note_on channel=0 note=65 velocity=34 time=0
note_on channel=0 note=65 velocity=0 time=60
note_on channel=0 note=65 velocity=34 time=0
note_on channel=0 note=65 velocity=0 time=60
note_on channel=0 note=65 velocity=37 time=0
note_on channel=0 note=65 velocity=0 time=60
note_on channel=0 note=72 velocity=0 time=0
note_on channel=0 note=78 velocity=45 time=0
note_on channel=0 note=65 velocity=34 time=0
note_on channel=0 note=65 velocity=0 time=60
note_on channel=0 note=78 velocity=0 time=0
note_on channel=0 note=81 velocity=50 time=0
note_on channel=0 note=65 velocity=34 time=0
note_on channel=0 note=65 velocity=0 time=60
note_on channel=0 note=81 velocity=0 time=0
note_on channel=0 note=79 velocity=46 time=0
note_on channel=0 note=65 velocity=34 time=0
note_on channel=0 note=65 velocity=0 time=60
note_on channel=0 note=57 velocity=0 time=0
note_on channel=0 note=63 velocity=0 time=0
note_on channel=0 note=79 velocity=0 time=0
note_on channel=0 note=77 velocity=50 time=0
note_on channel=0 note=57 velocity=42 time=0
note_on channel=0 note=77 velocity=0 time=120
note_on channel=0 note=75 velocity=46 time=0
note_on channel=0 note=65 velocity=34 time=0
note_on channel=0 note=65 velocity=0 time=120
note_on channel=0 note=75 velocity=0 time=0
note_on channel=0 note=57 velocity=0 time=0
note_on channel=0 note=74 velocity=46 time=0
note_on channel=0 note=63 velocity=38 time=0
note_on channel=0 note=74 velocity=0 time=120
note_on channel=0 note=72 velocity=46 time=0
note_on channel=0 note=65 velocity=34 time=0
note_on channel=0 note=65 velocity=0 time=120
note_on channel=0 note=72 velocity=0 time=0
note_on channel=0 note=63 velocity=0 time=0
note_on channel=0 note=70 velocity=50 time=0
note_on channel=0 note=62 velocity=38 time=0
control_change channel=0 control=64 value=127 time=78
note_on channel=0 note=65 velocity=34 time=42
note_on channel=0 note=65 velocity=0 time=120
note_on channel=0 note=62 velocity=0 time=0
note_on channel=0 note=70 velocity=0 time=0
note_on channel=0 note=72 velocity=47 time=0
note_on channel=0 note=57 velocity=37 time=0
control_change channel=0 control=64 value=0 time=5
control_change channel=0 control=64 value=127 time=66
note_on channel=0 note=65 velocity=34 time=0
note_on channel=0 note=65 velocity=0 time=0
note_on channel=0 note=57 velocity=0 time=0
note_on channel=0 note=72 velocity=0 time=0
note_on channel=0 note=73 velocity=53 time=0
note_on channel=0 note=58 velocity=43 time=0
control_change channel=0 control=64 value=0 time=4
note_on channel=0 note=65 velocity=34 time=0
note_on channel=0 note=65 velocity=0 time=60
note_on channel=0 note=73 velocity=0 time=0
note_on channel=0 note=74 velocity=49 time=0
note_on channel=0 note=65 velocity=34 time=0
note_on channel=0 note=65 velocity=0 time=60
note_on channel=0 note=65 velocity=34 time=0
note_on channel=0 note=65 velocity=0 time=60
note_on channel=0 note=65 velocity=37 time=0
note_on channel=0 note=65 velocity=0 time=60
note_on channel=0 note=74 velocity=0 time=0
note_on channel=0 note=77 velocity=51 time=0
note_on channel=0 note=65 velocity=34 time=0
note_on channel=0 note=65 velocity=0 time=60
note_on channel=0 note=77 velocity=0 time=0
note_on channel=0 note=58 velocity=0 time=0
note_on channel=0 note=79 velocity=58 time=0
note_on channel=0 note=59 velocity=34 time=0
note_on channel=0 note=79 velocity=0 time=0
note_on channel=0 note=74 velocity=52 time=0
note_on channel=0 note=65 velocity=34 time=0
note_on channel=0 note=65 velocity=0 time=60
note_on channel=0 note=74 velocity=0 time=60
note_on channel=0 note=59 velocity=0 time=0
note_on channel=0 note=77 velocity=56 time=0
note_on channel=0 note=60 velocity=42 time=0
control_change channel=0 control=64 value=127 time=57
note_on channel=0 note=77 velocity=0 time=0
note_on channel=0 note=75 velocity=52 time=0
note_on channel=0 note=65 velocity=34 time=0
note_on channel=0 note=65 velocity=0 time=0
note_on channel=0 note=75 velocity=0 time=0
note_on channel=0 note=60 velocity=0 time=0
note_on channel=0 note=77 velocity=57 time=0
note_on channel=0 note=57 velocity=38 time=0
control_change channel=0 control=64 value=0 time=11
control_change channel=0 control=64 value=127 time=53
note_on channel=0 note=77 velocity=0 time=0
note_on channel=0 note=72 velocity=52 time=0
note_on channel=0 note=65 velocity=34 time=0
note_on channel=0 note=65 velocity=0 time=0
note_on channel=0 note=72 velocity=0 time=0
note_on channel=0 note=57 velocity=0 time=0
note_on channel=0 note=75 velocity=57 time=0
note_on channel=0 note=58 velocity=42 time=0
control_change channel=0 control=64 value=0 time=7
control_change channel=0 control=64 value=127 time=64
note_on channel=0 note=75 velocity=0 time=0
note_on channel=0 note=74 velocity=52 time=0
note_on channel=0 note=65 velocity=34 time=0
note_on channel=0 note=65 velocity=0 time=0
note_on channel=0 note=74 velocity=0 time=0
note_on channel=0 note=58 velocity=0 time=0
note_on channel=0 note=79 velocity=59 time=0
note_on channel=0 note=59 velocity=38 time=0
control_change channel=0 control=64 value=0 time=7
control_change channel=0 control=64 value=127 time=64
note_on channel=0 note=79 velocity=0 time=0
note_on channel=0 note=74 velocity=52 time=0
note_on channel=0 note=65 velocity=34 time=0
note_on channel=0 note=65 velocity=0 time=0
note_on channel=0 note=74 velocity=0 time=0
note_on channel=0 note=59 velocity=0 time=0
note_on channel=0 note=77 velocity=62 time=0
note_on channel=0 note=60 velocity=47 time=0
control_change channel=0 control=64 value=0 time=8
control_change channel=0 control=64 value=127 time=67
note_on channel=0 note=77 velocity=0 time=45
note_on channel=0 note=75 velocity=56 time=0
note_on channel=0 note=65 velocity=34 time=0
note_on channel=0 note=65 velocity=0 time=120
note_on channel=0 note=75 velocity=0 time=0
note_on channel=0 note=60 velocity=0 time=0
note_on channel=0 note=77 velocity=62 time=0
note_on channel=0 note=57 velocity=42 time=0
control_change channel=0 control=64 value=0 time=7
control_change channel=0 control=64 value=127 time=50
note_on channel=0 note=77 velocity=0 time=63
note_on channel=0 note=72 velocity=54 time=0
note_on channel=0 note=65 velocity=34 time=0
note_on channel=0 note=65 velocity=0 time=120
note_on channel=0 note=72 velocity=0 time=0
note_on channel=0 note=57 velocity=0 time=0
note_on channel=0 note=74 velocity=67 time=0
note_on channel=0 note=58 velocity=52 time=0
control_change channel=0 control=64 value=0 time=8
control_change channel=0 control=64 value=127 time=61
note_on channel=0 note=74 velocity=0 time=0
note_on channel=0 note=75 velocity=57 time=0
note_on channel=0 note=62 velocity=38 time=0
note_on channel=0 note=62 velocity=0 time=120
note_on channel=0 note=75 velocity=0 time=0
note_on channel=0 note=58 velocity=0 time=0
note_on channel=0 note=76 velocity=59 time=0
note_on channel=0 note=57 velocity=47 time=0
control_change channel=0 control=64 value=0 time=5
control_change channel=0 control=64 value=127 time=64
note_on channel=0 note=76 velocity=0 time=51
note_on channel=0 note=77 velocity=61 time=0
note_on channel=0 note=60 velocity=42 time=0
note_on channel=0 note=60 velocity=0 time=0
note_on channel=0 note=77 velocity=0 time=0
note_on channel=0 note=57 velocity=0 time=0
note_on channel=0 note=78 velocity=67 time=0
note_on channel=0 note=55 velocity=58 time=0
control_change channel=0 control=64 value=0 time=0
control_change channel=0 control=64 value=127 time=69
note_on channel=0 note=78 velocity=0 time=51
note_on channel=0 note=79 velocity=64 time=0
note_on channel=0 note=58 velocity=42 time=0
note_on channel=0 note=55 velocity=0 time=110
note_on channel=0 note=58 velocity=0 time=10
note_on channel=0 note=79 velocity=0 time=0
note_on channel=0 note=81 velocity=67 time=0
note_on channel=0 note=55 velocity=49 time=0
control_change channel=0 control=64 value=0 time=11
control_change channel=0 control=64 value=127 time=64
note_on channel=0 note=81 velocity=0 time=45
note_on channel=0 note=82 velocity=69 time=0
note_on channel=0 note=58 velocity=41 time=0
note_on channel=0 note=58 velocity=0 time=0
note_on channel=0 note=82 velocity=0 time=0
note_on channel=0 note=55 velocity=0 time=0
note_on channel=0 note=84 velocity=70 time=0
note_on channel=0 note=48 velocity=63 time=0
control_change channel=0 control=64 value=0 time=10
control_change channel=0 control=64 value=127 time=59
note_on channel=0 note=84 velocity=0 time=51
note_on channel=0 note=85 velocity=74 time=0
note_on channel=0 note=58 velocity=39 time=0
note_on channel=0 note=48 velocity=0 time=110
note_on channel=0 note=58 velocity=0 time=10
note_on channel=0 note=85 velocity=0 time=0
note_on channel=0 note=86 velocity=81 time=0
note_on channel=0 note=48 velocity=43 time=0
control_change channel=0 control=64 value=0 time=8
control_change channel=0 control=64 value=127 time=49
note_on channel=0 note=86 velocity=0 time=0
note_on channel=0 note=76 velocity=54 time=0
note_on channel=0 note=58 velocity=34 time=0
note_on channel=0 note=58 velocity=0 time=0
note_on channel=0 note=76 velocity=0 time=0
note_on channel=0 note=48 velocity=0 time=0
note_on channel=0 note=79 velocity=58 time=0
note_on channel=0 note=53 velocity=43 time=0
control_change channel=0 control=64 value=0 time=12
note_on channel=0 note=58 velocity=29 time=108
note_on channel=0 note=58 velocity=0 time=0
note_on channel=0 note=79 velocity=0 time=0
note_on channel=0 note=77 velocity=53 time=0
note_on channel=0 note=57 velocity=35 time=0
note_on channel=0 note=57 velocity=0 time=120
note_on channel=0 note=55 velocity=29 time=0
note_on channel=0 note=55 velocity=0 time=120
note_on channel=0 note=77 velocity=0 time=0
note_on channel=0 note=57 velocity=34 time=0
note_on channel=0 note=65 velocity=38 time=0
note_on channel=0 note=77 velocity=45 time=0
note_on channel=0 note=77 velocity=0 time=0
note_on channel=0 note=53 velocity=0 time=0
note_on channel=0 note=57 velocity=0 time=0
note_on channel=0 note=65 velocity=0 time=0
note_on channel=0 note=67 velocity=42 time=0
note_on channel=0 note=79 velocity=50 time=0
note_on channel=0 note=79 velocity=0 time=120
note_on channel=0 note=67 velocity=0 time=0
note_on channel=0 note=65 velocity=39 time=0
note_on channel=0 note=77 velocity=46 time=0
note_on channel=0 note=77 velocity=0 time=120
note_on channel=0 note=65 velocity=0 time=0
note_on channel=0 note=63 velocity=42 time=0
note_on channel=0 note=75 velocity=50 time=0
note_on channel=0 note=46 velocity=42 time=0
note_on channel=0 note=75 velocity=0 time=120
note_on channel=0 note=63 velocity=0 time=0
note_on channel=0 note=62 velocity=39 time=0
note_on channel=0 note=74 velocity=46 time=0
note_on channel=0 note=53 velocity=34 time=0
note_on channel=0 note=53 velocity=0 time=120
note_on channel=0 note=46 velocity=0 time=0
note_on channel=0 note=62 velocity=0 time=0
note_on channel=0 note=74 velocity=0 time=0
note_on channel=0 note=60 velocity=39 time=0
note_on channel=0 note=72 velocity=46 time=0
note_on channel=0 note=50 velocity=38 time=0
note_on channel=0 note=72 velocity=0 time=120
note_on channel=0 note=60 velocity=0 time=0
note_on channel=0 note=58 velocity=39 time=0
note_on channel=0 note=70 velocity=46 time=0
note_on channel=0 note=53 velocity=34 time=0
note_on channel=0 note=53 velocity=0 time=120
note_on channel=0 note=50 velocity=0 time=0
note_on channel=0 note=58 velocity=0 time=0
note_on channel=0 note=70 velocity=0 time=0
note_on channel=0 note=57 velocity=42 time=0
note_on channel=0 note=69 velocity=42 time=0
note_on channel=0 note=51 velocity=38 time=0
note_on channel=0 note=48 velocity=38 time=0
control_change channel=0 control=64 value=127 time=78
note_on channel=0 note=51 velocity=0 time=42
note_on channel=0 note=53 velocity=34 time=0
note_on channel=0 note=53 velocity=0 time=120
note_on channel=0 note=48 velocity=0 time=0
note_on channel=0 note=69 velocity=0 time=0
note_on channel=0 note=57 velocity=0 time=0
note_on channel=0 note=58 velocity=39 time=0
note_on channel=0 note=70 velocity=47 time=0
note_on channel=0 note=50 velocity=37 time=0
note_on channel=0 note=46 velocity=37 time=0
control_change channel=0 control=64 value=0 time=5
control_change channel=0 control=64 value=127 time=80
note_on channel=0 note=50 velocity=0 time=0
note_on channel=0 note=53 velocity=34 time=0
note_on channel=0 note=53 velocity=0 time=0
note_on channel=0 note=46 velocity=0 time=0
note_on channel=0 note=70 velocity=0 time=0
note_on channel=0 note=58 velocity=0 time=0
note_on channel=0 note=59 velocity=45 time=0
note_on channel=0 note=71 velocity=53 time=0
note_on channel=0 note=45 velocity=43 time=0
note_on channel=0 note=51 velocity=43 time=0
control_change channel=0 control=64 value=0 time=0
note_on channel=0 note=53 velocity=34 time=120
note_on channel=0 note=53 velocity=0 time=60
note_on channel=0 note=59 velocity=0 time=60
note_on channel=0 note=71 velocity=0 time=0
note_on channel=0 note=60 velocity=41 time=0
note_on channel=0 note=72 velocity=49 time=0
note_on channel=0 note=53 velocity=34 time=0
note_on channel=0 note=53 velocity=0 time=60
note_on channel=0 note=53 velocity=34 time=60
note_on channel=0 note=53 velocity=0 time=60
note_on channel=0 note=53 velocity=37 time=60
note_on channel=0 note=53 velocity=0 time=60
note_on channel=0 note=60 velocity=0 time=0
note_on channel=0 note=72 velocity=0 time=0
note_on channel=0 note=66 velocity=38 time=0
note_on channel=0 note=78 velocity=45 time=0
note_on channel=0 note=53 velocity=34 time=0
note_on channel=0 note=53 velocity=0 time=60
note_on channel=0 note=66 velocity=0 time=0
note_on channel=0 note=78 velocity=0 time=0
note_on channel=0 note=69 velocity=42 time=0
note_on channel=0 note=81 velocity=50 time=0
note_on channel=0 note=53 velocity=34 time=0
note_on channel=0 note=53 velocity=0 time=60
note_on channel=0 note=69 velocity=0 time=0
note_on channel=0 note=81 velocity=0 time=0
note_on channel=0 note=67 velocity=39 time=0
note_on channel=0 note=79 velocity=46 time=0
note_on channel=0 note=53 velocity=34 time=0
note_on channel=0 note=53 velocity=0 time=60
note_on channel=0 note=67 velocity=0 time=0
note_on channel=0 note=51 velocity=0 time=0
note_on channel=0 note=45 velocity=0 time=0
note_on channel=0 note=79 velocity=0 time=0
note_on channel=0 note=65 velocity=42 time=0
note_on channel=0 note=77 velocity=50 time=0
note_on channel=0 note=45 velocity=42 time=0
note_on channel=0 note=77 velocity=0 time=120
note_on channel=0 note=65 velocity=0 time=0
note_on channel=0 note=63 velocity=39 time=0
note_on channel=0 note=75 velocity=46 time=0
note_on channel=0 note=53 velocity=34 time=0
note_on channel=0 note=53 velocity=0 time=120
note_on channel=0 note=45 velocity=0 time=0
note_on channel=0 note=63 velocity=0 time=0
note_on channel=0 note=75 velocity=0 time=0
note_on channel=0 note=62 velocity=39 time=0
note_on channel=0 note=74 velocity=46 time=0
note_on channel=0 note=51 velocity=38 time=0
note_on channel=0 note=74 velocity=0 time=120
note_on channel=0 note=62 velocity=0 time=0
note_on channel=0 note=60 velocity=39 time=0
note_on channel=0 note=72 velocity=46 time=0
note_on channel=0 note=53 velocity=34 time=0
note_on channel=0 note=53 velocity=0 time=120
note_on channel=0 note=51 velocity=0 time=0
note_on channel=0 note=60 velocity=0 time=0
note_on channel=0 note=72 velocity=0 time=0
note_on channel=0 note=58 velocity=42 time=0
note_on channel=0 note=70 velocity=50 time=0
note_on channel=0 note=50 velocity=38 time=0
control_change channel=0 control=64 value=127 time=78
note_on channel=0 note=53 velocity=34 time=42
note_on channel=0 note=53 velocity=0 time=120
note_on channel=0 note=58 velocity=0 time=0
note_on channel=0 note=70 velocity=0 time=0
note_on channel=0 note=50 velocity=0 time=0
note_on channel=0 note=60 velocity=39 time=0
note_on channel=0 note=72 velocity=47 time=0
note_on channel=0 note=45 velocity=37 time=0
control_change channel=0 control=64 value=0 time=5
control_change channel=0 control=64 value=127 time=66
note_on channel=0 note=53 velocity=34 time=0
note_on channel=0 note=53 velocity=0 time=0
note_on channel=0 note=60 velocity=0 time=0
note_on channel=0 note=72 velocity=0 time=0
note_on channel=0 note=45 velocity=0 time=0
note_on channel=0 note=61 velocity=45 time=0
note_on channel=0 note=73 velocity=53 time=0
note_on channel=0 note=46 velocity=43 time=0
control_change channel=0 control=64 value=0 time=4
note_on channel=0 note=53 velocity=34 time=116
note_on channel=0 note=53 velocity=0 time=60
note_on channel=0 note=61 velocity=0 time=60
note_on channel=0 note=73 velocity=0 time=0
note_on channel=0 note=62 velocity=41 time=0
note_on channel=0 note=74 velocity=49 time=0
note_on channel=0 note=53 velocity=34 time=0
note_on channel=0 note=53 velocity=0 time=60
note_on channel=0 note=53 velocity=34 time=60
note_on channel=0 note=53 velocity=0 time=60
note_on channel=0 note=53 velocity=37 time=60
note_on channel=0 note=53 velocity=0 time=60
note_on channel=0 note=74 velocity=0 time=0
note_on channel=0 note=62 velocity=0 time=0
note_on channel=0 note=77 velocity=56 time=0
note_on channel=0 note=53 velocity=37 time=0
note_on channel=0 note=53 velocity=0 time=60
note_on channel=0 note=77 velocity=0 time=0
note_on channel=0 note=46 velocity=0 time=0
note_on channel=0 note=68 velocity=45 time=0
note_on channel=0 note=79 velocity=63 time=0
note_on channel=0 note=47 velocity=37 time=0
note_on channel=0 note=79 velocity=0 time=0
note_on channel=0 note=74 velocity=57 time=0
note_on channel=0 note=53 velocity=37 time=0
note_on channel=0 note=53 velocity=0 time=60
note_on channel=0 note=74 velocity=0 time=60
note_on channel=0 note=47 velocity=0 time=0
note_on channel=0 note=77 velocity=62 time=0
note_on channel=0 note=48 velocity=46 time=0
control_change channel=0 control=64 value=127 time=57
note_on channel=0 note=77 velocity=0 time=63
note_on channel=0 note=75 velocity=58 time=0
note_on channel=0 note=53 velocity=38 time=0
note_on channel=0 note=53 velocity=0 time=120
note_on channel=0 note=68 velocity=0 time=0
note_on channel=0 note=48 velocity=0 time=0
note_on channel=0 note=75 velocity=0 time=0
note_on channel=0 note=69 velocity=45 time=0
note_on channel=0 note=77 velocity=63 time=0
note_on channel=0 note=41 velocity=42 time=0
control_change channel=0 control=64 value=0 time=11
control_change channel=0 control=64 value=127 time=53
note_on channel=0 note=77 velocity=0 time=56
note_on channel=0 note=72 velocity=58 time=0
note_on channel=0 note=53 velocity=38 time=0
note_on channel=0 note=53 velocity=0 time=120
note_on channel=0 note=69 velocity=0 time=0
note_on channel=0 note=41 velocity=0 time=0
note_on channel=0 note=72 velocity=0 time=0
note_on channel=0 note=70 velocity=46 time=0
note_on channel=0 note=75 velocity=64 time=0
note_on channel=0 note=46 velocity=47 time=0
control_change channel=0 control=64 value=0 time=7
control_change channel=0 control=64 value=127 time=64
note_on channel=0 note=75 velocity=0 time=49
note_on channel=0 note=74 velocity=59 time=0
note_on channel=0 note=53 velocity=38 time=0
note_on channel=0 note=53 velocity=0 time=120
note_on channel=0 note=70 velocity=0 time=0
note_on channel=0 note=46 velocity=0 time=0
note_on channel=0 note=74 velocity=0 time=0
note_on channel=0 note=68 velocity=46 time=0
note_on channel=0 note=79 velocity=67 time=0
note_on channel=0 note=47 velocity=43 time=0
control_change channel=0 control=64 value=0 time=7
control_change channel=0 control=64 value=127 time=64
note_on channel=0 note=79 velocity=0 time=0
note_on channel=0 note=74 velocity=59 time=0
note_on channel=0 note=53 velocity=39 time=0
note_on channel=0 note=53 velocity=0 time=0
note_on channel=0 note=74 velocity=0 time=0
note_on channel=0 note=47 velocity=0 time=0
note_on channel=0 note=77 velocity=71 time=0
note_on channel=0 note=48 velocity=54 time=0
control_change channel=0 control=64 value=0 time=8
control_change channel=0 control=64 value=127 time=67
note_on channel=0 note=77 velocity=0 time=45
note_on channel=0 note=75 velocity=64 time=0
note_on channel=0 note=53 velocity=39 time=0
note_on channel=0 note=53 velocity=0 time=120
note_on channel=0 note=68 velocity=0 time=0
note_on channel=0 note=48 velocity=0 time=0
note_on channel=0 note=75 velocity=0 time=0
note_on channel=0 note=69 velocity=47 time=0
note_on channel=0 note=77 velocity=71 time=0
note_on channel=0 note=41 velocity=48 time=0
control_change channel=0 control=64 value=0 time=7
control_change channel=0 control=64 value=127 time=50
note_on channel=0 note=77 velocity=0 time=63
note_on channel=0 note=72 velocity=63 time=0
note_on channel=0 note=53 velocity=39 time=0
note_on channel=0 note=53 velocity=0 time=120
note_on channel=0 note=69 velocity=0 time=0
note_on channel=0 note=41 velocity=0 time=0
note_on channel=0 note=72 velocity=0 time=0
note_on channel=0 note=70 velocity=59 time=0
note_on channel=0 note=75 velocity=71 time=0
note_on channel=0 note=46 velocity=56 time=0
control_change channel=0 control=64 value=0 time=8
control_change channel=0 control=64 value=127 time=61
note_on channel=0 note=75 velocity=0 time=0
note_on channel=0 note=70 velocity=0 time=0
note_on channel=0 note=62 velocity=53 time=0
note_on channel=0 note=74 velocity=63 time=0
note_on channel=0 note=53 velocity=41 time=0
note_on channel=0 note=53 velocity=0 time=120
note_on channel=0 note=46 velocity=0 time=0
note_on channel=0 note=62 velocity=0 time=0
note_on channel=0 note=74 velocity=0 time=0
note_on channel=0 note=63 velocity=56 time=0
note_on channel=0 note=75 velocity=67 time=0
note_on channel=0 note=44 velocity=50 time=0
control_change channel=0 control=64 value=0 time=5
control_change channel=0 control=64 value=127 time=64
note_on channel=0 note=75 velocity=0 time=51
note_on channel=0 note=63 velocity=0 time=0
note_on channel=0 note=65 velocity=60 time=0
note_on channel=0 note=77 velocity=71 time=0
note_on channel=0 note=46 velocity=45 time=0
note_on channel=0 note=46 velocity=0 time=0
note_on channel=0 note=44 velocity=0 time=0
note_on channel=0 note=65 velocity=0 time=0
note_on channel=0 note=77 velocity=0 time=0
note_on channel=0 note=66 velocity=67 time=0
note_on channel=0 note=78 velocity=80 time=0
note_on channel=0 note=43 velocity=65 time=0
control_change channel=0 control=64 value=0 time=0
control_change channel=0 control=64 value=127 time=69
note_on channel=0 note=78 velocity=0 time=51
note_on channel=0 note=66 velocity=0 time=0
note_on channel=0 note=67 velocity=63 time=0
note_on channel=0 note=79 velocity=75 time=0
note_on channel=0 note=46 velocity=53 time=0
note_on channel=0 note=43 velocity=0 time=110
note_on channel=0 note=67 velocity=0 time=10
note_on channel=0 note=79 velocity=0 time=0
note_on channel=0 note=46 velocity=0 time=0
note_on channel=0 note=69 velocity=67 time=0
note_on channel=0 note=81 velocity=80 time=0
note_on channel=0 note=39 velocity=61 time=0
control_change channel=0 control=64 value=0 time=11
note_on channel=0 note=81 velocity=0 time=49
note_on channel=0 note=69 velocity=0 time=0
control_change channel=0 control=64 value=127 time=15
note_on channel=0 note=70 velocity=70 time=0
note_on channel=0 note=82 velocity=83 time=0
note_on channel=0 note=51 velocity=53 time=0
note_on channel=0 note=82 velocity=0 time=60
note_on channel=0 note=70 velocity=0 time=0
note_on channel=0 note=39 velocity=0 time=0
note_on channel=0 note=51 velocity=0 time=0
note_on channel=0 note=58 velocity=70 time=0
note_on channel=0 note=70 velocity=70 time=0
note_on channel=0 note=41 velocity=56 time=0
control_change channel=0 control=64 value=0 time=10
control_change channel=0 control=64 value=127 time=59
note_on channel=0 note=50 velocity=42 time=51
note_on channel=0 note=41 velocity=0 time=110
note_on channel=0 note=58 velocity=0 time=10
note_on channel=0 note=70 velocity=0 time=0
note_on channel=0 note=50 velocity=0 time=0
note_on channel=0 note=60 velocity=58 time=0
note_on channel=0 note=72 velocity=69 time=0
note_on channel=0 note=41 velocity=49 time=0
control_change channel=0 control=64 value=0 time=8
control_change channel=0 control=64 value=127 time=49
note_on channel=0 note=45 velocity=43 time=0
note_on channel=0 note=45 velocity=0 time=0
note_on channel=0 note=60 velocity=0 time=0
note_on channel=0 note=72 velocity=0 time=0
note_on channel=0 note=41 velocity=0 time=0
note_on channel=0 note=61 velocity=41 time=0
note_on channel=0 note=73 velocity=49 time=0
note_on channel=0 note=34 velocity=43 time=0
control_change channel=0 control=64 value=0 time=12
note_on channel=0 note=34 velocity=0 time=108
note_on channel=0 note=46 velocity=29 time=0
note_on channel=0 note=73 velocity=0 time=120
note_on channel=0 note=61 velocity=0 time=0
note_on channel=0 note=62 velocity=38 time=0
note_on channel=0 note=74 velocity=45 time=0
note_on channel=0 note=58 velocity=35 time=0
note_on channel=0 note=58 velocity=0 time=31
note_on channel=0 note=58 velocity=29 time=60
note_on channel=0 note=58 velocity=0 time=36
note_on channel=0 note=58 velocity=37 time=0
control_change channel=0 control=64 value=127 time=26
note_on channel=0 note=58 velocity=0 time=34
note_on channel=0 note=74 velocity=0 time=0
note_on channel=0 note=62 velocity=0 time=0
note_on channel=0 note=70 velocity=59 time=0
note_on channel=0 note=70 velocity=0 time=5
note_on channel=0 note=69 velocity=61 time=0
note_on channel=0 note=58 velocity=35 time=0
note_on channel=0 note=58 velocity=0 time=60
note_on channel=0 note=69 velocity=0 time=0
note_on channel=0 note=70 velocity=62 time=0
note_on channel=0 note=70 velocity=0 time=29
note_on channel=0 note=46 velocity=0 time=0
note_on channel=0 note=71 velocity=62 time=0
note_on channel=0 note=56 velocity=43 time=0
note_on channel=0 note=71 velocity=0 time=60
note_on channel=0 note=72 velocity=64 time=0
note_on channel=0 note=72 velocity=0 time=53
note_on channel=0 note=73 velocity=65 time=0
note_on channel=0 note=58 velocity=39 time=0
note_on channel=0 note=73 velocity=0 time=60
note_on channel=0 note=74 velocity=67 time=0
note_on channel=0 note=74 velocity=0 time=58
note_on channel=0 note=58 velocity=0 time=0
note_on channel=0 note=56 velocity=0 time=0
note_on channel=0 note=75 velocity=69 time=0
note_on channel=0 note=55 velocity=52 time=0
note_on channel=0 note=75 velocity=0 time=22
note_on channel=0 note=76 velocity=70 time=0
note_on channel=0 note=76 velocity=0 time=60
note_on channel=0 note=77 velocity=71 time=0
note_on channel=0 note=58 velocity=46 time=0
note_on channel=0 note=77 velocity=0 time=26
note_on channel=0 note=78 velocity=73 time=0
note_on channel=0 note=78 velocity=0 time=60
note_on channel=0 note=58 velocity=0 time=0
note_on channel=0 note=55 velocity=0 time=0
note_on channel=0 note=79 velocity=74 time=0
note_on channel=0 note=51 velocity=56 time=0
note_on channel=0 note=79 velocity=0 time=50
note_on channel=0 note=80 velocity=76 time=0
note_on channel=0 note=80 velocity=0 time=14
note_on channel=0 note=81 velocity=77 time=0
note_on channel=0 note=63 velocity=50 time=0
note_on channel=0 note=81 velocity=0 time=60
note_on channel=0 note=82 velocity=78 time=0
note_on channel=0 note=82 velocity=0 time=0
note_on channel=0 note=63 velocity=0 time=0
note_on channel=0 note=51 velocity=0 time=0
note_on channel=0 note=70 velocity=53 time=0
note_on channel=0 note=53 velocity=35 time=0
control_change channel=0 control=64 value=0 time=11
note_on channel=0 note=70 velocity=0 time=37
note_on channel=0 note=72 velocity=48 time=0
control_change channel=0 control=64 value=127 time=18
note_on channel=0 note=72 velocity=0 time=30
note_on channel=0 note=70 velocity=45 time=0
note_on channel=0 note=62 velocity=29 time=24
note_on channel=0 note=70 velocity=0 time=24
note_on channel=0 note=69 velocity=45 time=0
note_on channel=0 note=69 velocity=0 time=48
note_on channel=0 note=70 velocity=45 time=0
note_on channel=0 note=53 velocity=0 time=38
note_on channel=0 note=70 velocity=0 time=10
note_on channel=0 note=62 velocity=0 time=0
note_on channel=0 note=63 velocity=42 time=0
note_on channel=0 note=74 velocity=52 time=0
note_on channel=0 note=53 velocity=35 time=0
control_change channel=0 control=64 value=0 time=8
control_change channel=0 control=64 value=127 time=38
note_on channel=0 note=57 velocity=29 time=0
note_on channel=0 note=74 velocity=0 time=60
note_on channel=0 note=72 velocity=41 time=0
note_on channel=0 note=72 velocity=0 time=60
note_on channel=0 note=57 velocity=0 time=0
note_on channel=0 note=53 velocity=0 time=0
note_on channel=0 note=63 velocity=0 time=0
note_on channel=0 note=62 velocity=42 time=0
note_on channel=0 note=70 velocity=50 time=0
note_on channel=0 note=46 velocity=33 time=0
note_on channel=0 note=58 velocity=39 time=0
control_change channel=0 control=64 value=0 time=0
note_on channel=0 note=58 velocity=0 time=221
note_on channel=0 note=62 velocity=0 time=0
note_on channel=0 note=70 velocity=0 time=0
note_on channel=0 note=46 velocity=0 time=0
note_on channel=0 note=65 velocity=67 time=240
note_on channel=0 note=74 velocity=80 time=0
note_on channel=0 note=58 velocity=50 time=0
note_on channel=0 note=62 velocity=60 time=0
control_change channel=0 control=64 value=127 time=198
note_on channel=0 note=62 velocity=0 time=13
note_on channel=0 note=65 velocity=0 time=0
note_on channel=0 note=74 velocity=0 time=0
note_on channel=0 note=58 velocity=0 time=0
note_on channel=0 note=67 velocity=45 time=0
note_on channel=0 note=72 velocity=53 time=0
note_on channel=0 note=51 velocity=38 time=0
note_on channel=0 note=60 velocity=45 time=0
control_change channel=0 control=64 value=0 time=0
control_change channel=0 control=64 value=127 time=2
note_on channel=0 note=72 velocity=0 time=6
note_on channel=0 note=74 velocity=50 time=0
note_on channel=0 note=74 velocity=0 time=20
note_on channel=0 note=72 velocity=53 time=0
note_on channel=0 note=72 velocity=0 time=15
note_on channel=0 note=74 velocity=50 time=0
note_on channel=0 note=74 velocity=0 time=28
note_on channel=0 note=72 velocity=53 time=0
note_on channel=0 note=72 velocity=0 time=51
note_on channel=0 note=71 velocity=49 time=0
note_on channel=0 note=71 velocity=0 time=52
note_on channel=0 note=72 velocity=49 time=0
note_on channel=0 note=74 velocity=49 time=0
note_on channel=0 note=72 velocity=0 time=1
note_on channel=0 note=74 velocity=0 time=59
note_on channel=0 note=75 velocity=50 time=0
note_on channel=0 note=75 velocity=0 time=0
note_on channel=0 note=67 velocity=0 time=0
note_on channel=0 note=67 velocity=57 time=0
control_change channel=0 control=64 value=0 time=8
control_change channel=0 control=64 value=127 time=44
note_on channel=0 note=67 velocity=0 time=0
note_on channel=0 note=51 velocity=0 time=0
note_on channel=0 note=60 velocity=0 time=0
note_on channel=0 note=63 velocity=45 time=0
note_on channel=0 note=69 velocity=54 time=0
note_on channel=0 note=53 velocity=34 time=0
note_on channel=0 note=60 velocity=41 time=0
control_change channel=0 control=64 value=0 time=8
control_change channel=0 control=64 value=127 time=38
note_on channel=0 note=60 velocity=0 time=0
note_on channel=0 note=63 velocity=0 time=0
note_on channel=0 note=69 velocity=0 time=0
note_on channel=0 note=53 velocity=0 time=0
note_on channel=0 note=62 velocity=47 time=0
note_on channel=0 note=70 velocity=56 time=0
note_on channel=0 note=46 velocity=42 time=0
note_on channel=0 note=58 velocity=50 time=0
control_change channel=0 control=64 value=0 time=0
control_change channel=0 control=64 value=127 time=120
note_on channel=0 note=58 velocity=0 time=0
note_on channel=0 note=46 velocity=0 time=0
note_on channel=0 note=70 velocity=0 time=0
note_on channel=0 note=65 velocity=46 time=0
note_on channel=0 note=65 velocity=0 time=120
control_change channel=0 control=64 value=0 time=0
note_on channel=0 note=62 velocity=0 time=0
note_on channel=0 note=65 velocity=67 time=0
note_on channel=0 note=74 velocity=80 time=0
note_on channel=0 note=58 velocity=50 time=0
note_on channel=0 note=62 velocity=60 time=0
control_change channel=0 control=64 value=127 time=184
note_on channel=0 note=62 velocity=0 time=27
note_on channel=0 note=65 velocity=0 time=0
note_on channel=0 note=74 velocity=0 time=0
note_on channel=0 note=58 velocity=0 time=0
note_on channel=0 note=67 velocity=45 time=0
note_on channel=0 note=72 velocity=63 time=0
note_on channel=0 note=52 velocity=41 time=0
note_on channel=0 note=55 velocity=41 time=0
control_change channel=0 control=64 value=0 time=0
control_change channel=0 control=64 value=127 time=43
note_on channel=0 note=72 velocity=0 time=0
note_on channel=0 note=74 velocity=56 time=0
note_on channel=0 note=74 velocity=0 time=40
note_on channel=0 note=72 velocity=56 time=0
note_on channel=0 note=72 velocity=0 time=40
note_on channel=0 note=71 velocity=56 time=0
note_on channel=0 note=71 velocity=0 time=40
note_on channel=0 note=72 velocity=63 time=0
note_on channel=0 note=72 velocity=0 time=60
note_on channel=0 note=74 velocity=58 time=0
note_on channel=0 note=74 velocity=0 time=0
note_on channel=0 note=55 velocity=0 time=0
note_on channel=0 note=52 velocity=0 time=0
note_on channel=0 note=67 velocity=0 time=0
note_on channel=0 note=64 velocity=45 time=0
note_on channel=0 note=70 velocity=63 time=0
note_on channel=0 note=48 velocity=41 time=0
note_on channel=0 note=60 velocity=41 time=0
control_change channel=0 control=64 value=0 time=9
control_change channel=0 control=64 value=127 time=48
note_on channel=0 note=70 velocity=0 time=0
note_on channel=0 note=72 velocity=56 time=0
note_on channel=0 note=72 velocity=0 time=40
note_on channel=0 note=70 velocity=56 time=0
note_on channel=0 note=70 velocity=0 time=40
note_on channel=0 note=69 velocity=56 time=0
note_on channel=0 note=69 velocity=0 time=40
note_on channel=0 note=70 velocity=63 time=0
note_on channel=0 note=70 velocity=0 time=60
note_on channel=0 note=72 velocity=58 time=0
note_on channel=0 note=72 velocity=0 time=0
note_on channel=0 note=60 velocity=0 time=0
note_on channel=0 note=48 velocity=0 time=0
note_on channel=0 note=64 velocity=0 time=0
note_on channel=0 note=65 velocity=47 time=0
note_on channel=0 note=70 velocity=56 time=0
note_on channel=0 note=53 velocity=42 time=0
note_on channel=0 note=60 velocity=50 time=0
control_change channel=0 control=64 value=0 time=0
control_change channel=0 control=64 value=127 time=120
note_on channel=0 note=70 velocity=0 time=0
note_on channel=0 note=69 velocity=46 time=0
note_on channel=0 note=69 velocity=0 time=120
control_change channel=0 control=64 value=0 time=0
note_on channel=0 note=60 velocity=0 time=14
note_on channel=0 note=53 velocity=0 time=0
note_on channel=0 note=65 velocity=0 time=0
note_on channel=0 note=45 velocity=62 time=0
control_change channel=0 control=64 value=127 time=43
note_on channel=0 note=53 velocity=52 time=17
note_on channel=0 note=57 velocity=54 time=0
note_on channel=0 note=69 velocity=55 time=120
note_on channel=0 note=77 velocity=64 time=60
note_on channel=0 note=81 velocity=69 time=0
note_on channel=0 note=57 velocity=0 time=0
note_on channel=0 note=45 velocity=0 time=0
note_on channel=0 note=53 velocity=0 time=0
note_on channel=0 note=46 velocity=65 time=0
control_change channel=0 control=64 value=0 time=11
note_on channel=0 note=53 velocity=54 time=49
control_change channel=0 control=64 value=127 time=4
note_on channel=0 note=57 velocity=57 time=0
note_on channel=0 note=69 velocity=0 time=120
note_on channel=0 note=81 velocity=0 time=0
note_on channel=0 note=77 velocity=0 time=0
note_on channel=0 note=69 velocity=57 time=0
note_on channel=0 note=77 velocity=68 time=60
note_on channel=0 note=81 velocity=73 time=0
note_on channel=0 note=46 velocity=0 time=0
note_on channel=0 note=57 velocity=0 time=0
note_on channel=0 note=53 velocity=0 time=0
note_on channel=0 note=48 velocity=68 time=0
control_change channel=0 control=64 value=0 time=14
note_on channel=0 note=53 velocity=57 time=46
control_change channel=0 control=64 value=127 time=0
note_on channel=0 note=57 velocity=59 time=0
note_on channel=0 note=69 velocity=0 time=120
note_on channel=0 note=81 velocity=0 time=0
note_on channel=0 note=77 velocity=0 time=0
note_on channel=0 note=69 velocity=60 time=0
note_on channel=0 note=77 velocity=71 time=60
note_on channel=0 note=81 velocity=76 time=0
note_on channel=0 note=48 velocity=0 time=0
note_on channel=0 note=57 velocity=0 time=0
note_on channel=0 note=53 velocity=0 time=0
note_on channel=0 note=50 velocity=71 time=0
control_change channel=0 control=64 value=0 time=0
control_change channel=0 control=64 value=127 time=50
note_on channel=0 note=53 velocity=59 time=10
note_on channel=0 note=57 velocity=62 time=0
note_on channel=0 note=69 velocity=0 time=120
note_on channel=0 note=81 velocity=0 time=0
note_on channel=0 note=77 velocity=0 time=0
note_on channel=0 note=69 velocity=63 time=0
note_on channel=0 note=77 velocity=74 time=60
note_on channel=0 note=81 velocity=79 time=0
note_on channel=0 note=81 velocity=0 time=0
note_on channel=0 note=53 velocity=0 time=0
note_on channel=0 note=50 velocity=0 time=0
note_on channel=0 note=57 velocity=0 time=0
note_on channel=0 note=77 velocity=0 time=0
note_on channel=0 note=69 velocity=0 time=0
note_on channel=0 note=62 velocity=53 time=0
note_on channel=0 note=65 velocity=53 time=0
note_on channel=0 note=69 velocity=63 time=0
control_change channel=0 control=64 value=0 time=18
control_change channel=0 control=64 value=127 time=42
note_on channel=0 note=69 velocity=0 time=0
note_on channel=0 note=89 velocity=82 time=0
note_on channel=0 note=77 velocity=69 time=0
note_on channel=0 note=71 velocity=59 time=0
control_change channel=0 control=64 value=0 time=14
control_change channel=0 control=64 value=127 time=36
note_on channel=0 note=65 velocity=0 time=0
note_on channel=0 note=62 velocity=0 time=0
note_on channel=0 note=60 velocity=54 time=0
note_on channel=0 note=67 velocity=64 time=0
control_change channel=0 control=64 value=0 time=11
control_change channel=0 control=64 value=127 time=64
note_on channel=0 note=77 velocity=0 time=165
note_on channel=0 note=71 velocity=0 time=0
note_on channel=0 note=89 velocity=0 time=0
note_on channel=0 note=88 velocity=62 time=0
note_on channel=0 note=76 velocity=52 time=0
note_on channel=0 note=72 velocity=58 time=0
control_change channel=0 control=64 value=0 time=10
note_on channel=0 note=72 velocity=0 time=110
note_on channel=0 note=88 velocity=0 time=0
note_on channel=0 note=76 velocity=0 time=0
note_on channel=0 note=60 velocity=0 time=0
note_on channel=0 note=67 velocity=0 time=0
note_on channel=0 note=58 velocity=53 time=0
note_on channel=0 note=62 velocity=53 time=0
note_on channel=0 note=65 velocity=63 time=0
control_change channel=0 control=64 value=0 time=18
control_change channel=0 control=64 value=127 time=42
note_on channel=0 note=65 velocity=0 time=0
note_on channel=0 note=86 velocity=82 time=0
note_on channel=0 note=74 velocity=69 time=0
note_on channel=0 note=64 velocity=50 time=0
note_on channel=0 note=67 velocity=59 time=0
control_change channel=0 control=64 value=0 time=14
control_change channel=0 control=64 value=127 time=36
note_on channel=0 note=62 velocity=0 time=0
note_on channel=0 note=58 velocity=0 time=0
note_on channel=0 note=57 velocity=54 time=0
control_change channel=0 control=64 value=0 time=11
control_change channel=0 control=64 value=127 time=64
note_on channel=0 note=64 velocity=0 time=165
note_on channel=0 note=86 velocity=0 time=0
note_on channel=0 note=74 velocity=0 time=0
note_on channel=0 note=67 velocity=0 time=0
note_on channel=0 note=84 velocity=62 time=0
note_on channel=0 note=72 velocity=52 time=0
note_on channel=0 note=65 velocity=50 time=0
note_on channel=0 note=69 velocity=58 time=0
control_change channel=0 control=64 value=0 time=10
note_on channel=0 note=69 velocity=0 time=110
note_on channel=0 note=72 velocity=0 time=0
note_on channel=0 note=65 velocity=0 time=0
note_on channel=0 note=84 velocity=0 time=0
note_on channel=0 note=57 velocity=0 time=0
note_on channel=0 note=55 velocity=53 time=0
note_on channel=0 note=58 velocity=53 time=0
note_on channel=0 note=62 velocity=63 time=0
control_change channel=0 control=64 value=0 time=18
control_change channel=0 control=64 value=127 time=42
note_on channel=0 note=62 velocity=0 time=0
note_on channel=0 note=82 velocity=82 time=0
note_on channel=0 note=70 velocity=69 time=0
note_on channel=0 note=64 velocity=59 time=0
control_change channel=0 control=64 value=0 time=14
control_change channel=0 control=64 value=127 time=36
note_on channel=0 note=64 velocity=0 time=0
note_on channel=0 note=55 velocity=0 time=0
note_on channel=0 note=58 velocity=0 time=0
note_on channel=0 note=60 velocity=58 time=0
note_on channel=0 note=65 velocity=58 time=0
note_on channel=0 note=53 velocity=58 time=0
control_change channel=0 control=64 value=0 time=11
control_change channel=0 control=64 value=127 time=64
note_on channel=0 note=82 velocity=0 time=45
note_on channel=0 note=70 velocity=0 time=0
note_on channel=0 note=69 velocity=52 time=0
note_on channel=0 note=81 velocity=62 time=0
note_on channel=0 note=65 velocity=0 time=0
note_on channel=0 note=53 velocity=0 time=0
note_on channel=0 note=60 velocity=0 time=0
note_on channel=0 note=46 velocity=45 time=0
note_on channel=0 note=58 velocity=53 time=0
control_change channel=0 control=64 value=0 time=10
note_on channel=0 note=58 velocity=0 time=110
note_on channel=0 note=81 velocity=0 time=0
note_on channel=0 note=69 velocity=0 time=0
note_on channel=0 note=46 velocity=0 time=0
note_on channel=0 note=67 velocity=60 time=0
note_on channel=0 note=79 velocity=60 time=0
note_on channel=0 note=48 velocity=51 time=0
note_on channel=0 note=57 velocity=60 time=0
note_on channel=0 note=57 velocity=0 time=120
note_on channel=0 note=67 velocity=0 time=0
note_on channel=0 note=79 velocity=0 time=0
note_on channel=0 note=48 velocity=0 time=0
note_on channel=0 note=65 velocity=52 time=0
note_on channel=0 note=77 velocity=62 time=0
note_on channel=0 note=48 velocity=45 time=120
note_on channel=0 note=52 velocity=54 time=0
note_on channel=0 note=52 velocity=0 time=0
note_on channel=0 note=65 velocity=0 time=0
note_on channel=0 note=77 velocity=0 time=0
note_on channel=0 note=48 velocity=0 time=0
note_on channel=0 note=67 velocity=54 time=0
note_on channel=0 note=79 velocity=58 time=0
note_on channel=0 note=79 velocity=0 time=0
note_on channel=0 note=67 velocity=0 time=0
note_on channel=0 note=68 velocity=56 time=0
note_on channel=0 note=80 velocity=66 time=0
note_on channel=0 note=41 velocity=51 time=0
note_on channel=0 note=53 velocity=60 time=0
note_on channel=0 note=53 velocity=0 time=240
note_on channel=0 note=68 velocity=0 time=0
note_on channel=0 note=80 velocity=0 time=0
note_on channel=0 note=41 velocity=0 time=0
note_on channel=0 note=69 velocity=51 time=0
note_on channel=0 note=81 velocity=60 time=0
note_on channel=0 note=81 velocity=0 time=0
note_on channel=0 note=69 velocity=0 time=0
note_on channel=0 note=65 velocity=57 time=0
note_on channel=0 note=69 velocity=57 time=0
note_on channel=0 note=50 velocity=58 time=0
note_on channel=0 note=53 velocity=58 time=0
control_change channel=0 control=64 value=0 time=18
control_change channel=0 control=64 value=127 time=88
note_on channel=0 note=53 velocity=0 time=0
note_on channel=0 note=69 velocity=0 time=0
note_on channel=0 note=71 velocity=49 time=0
note_on channel=0 note=56 velocity=52 time=0
control_change channel=0 control=64 value=0 time=14
control_change channel=0 control=64 value=127 time=73
note_on channel=0 note=50 velocity=0 time=0
note_on channel=0 note=48 velocity=62 time=0
control_change channel=0 control=64 value=0 time=11
control_change channel=0 control=64 value=127 time=64
note_on channel=0 note=65 velocity=0 time=165
note_on channel=0 note=56 velocity=0 time=0
note_on channel=0 note=71 velocity=0 time=0
note_on channel=0 note=72 velocity=62 time=0
note_on channel=0 note=64 velocity=52 time=0
note_on channel=0 note=57 velocity=58 time=0
control_change channel=0 control=64 value=0 time=10
note_on channel=0 note=57 velocity=0 time=110
note_on channel=0 note=64 velocity=0 time=0
note_on channel=0 note=72 velocity=0 time=0
note_on channel=0 note=48 velocity=0 time=0
note_on channel=0 note=62 velocity=57 time=0
note_on channel=0 note=65 velocity=57 time=0
note_on channel=0 note=46 velocity=58 time=0
note_on channel=0 note=50 velocity=58 time=0
control_change channel=0 control=64 value=0 time=18
control_change channel=0 control=64 value=127 time=88
note_on channel=0 note=50 velocity=0 time=0
note_on channel=0 note=65 velocity=0 time=0
note_on channel=0 note=67 velocity=49 time=0
note_on channel=0 note=52 velocity=52 time=0
control_change channel=0 control=64 value=0 time=14
control_change channel=0 control=64 value=127 time=73
note_on channel=0 note=67 velocity=0 time=0
note_on channel=0 note=46 velocity=0 time=0
note_on channel=0 note=68 velocity=53 time=0
note_on channel=0 note=45 velocity=62 time=0
control_change channel=0 control=64 value=0 time=11
control_change channel=0 control=64 value=127 time=64
note_on channel=0 note=68 velocity=0 time=165
note_on channel=0 note=52 velocity=0 time=0
note_on channel=0 note=62 velocity=0 time=0
note_on channel=0 note=69 velocity=62 time=0
note_on channel=0 note=60 velocity=52 time=0
note_on channel=0 note=53 velocity=58 time=0
control_change channel=0 control=64 value=0 time=10
note_on channel=0 note=53 velocity=0 time=110
note_on channel=0 note=60 velocity=0 time=0
note_on channel=0 note=69 velocity=0 time=0
note_on channel=0 note=45 velocity=0 time=120
note_on channel=0 note=58 velocity=57 time=0
note_on channel=0 note=62 velocity=57 time=0
note_on channel=0 note=43 velocity=62 time=0
note_on channel=0 note=50 velocity=58 time=0
note_on channel=0 note=50 velocity=0 time=240
note_on channel=0 note=62 velocity=0 time=0
note_on channel=0 note=64 velocity=49 time=0
note_on channel=0 note=49 velocity=52 time=0
note_on channel=0 note=64 velocity=0 time=240
note_on channel=0 note=43 velocity=0 time=0
note_on channel=0 note=65 velocity=53 time=0
note_on channel=0 note=41 velocity=62 time=0
note_on channel=0 note=65 velocity=0 time=120
note_on channel=0 note=49 velocity=0 time=0
note_on channel=0 note=58 velocity=0 time=0
note_on channel=0 note=57 velocity=57 time=0
note_on channel=0 note=48 velocity=51 time=0
note_on channel=0 note=41 velocity=0 time=120
note_on channel=0 note=34 velocity=57 time=0
note_on channel=0 note=48 velocity=0 time=120
note_on channel=0 note=57 velocity=0 time=0
note_on channel=0 note=55 velocity=62 time=0
note_on channel=0 note=46 velocity=54 time=0
note_on channel=0 note=34 velocity=0 time=6
note_on channel=0 note=36 velocity=59 time=0
note_on channel=0 note=46 velocity=0 time=30
note_on channel=0 note=55 velocity=0 time=0
note_on channel=0 note=53 velocity=67 time=0
note_on channel=0 note=45 velocity=55 time=0
note_on channel=0 note=36 velocity=0 time=34
note_on channel=0 note=36 velocity=62 time=0
note_on channel=0 note=45 velocity=0 time=20
note_on channel=0 note=53 velocity=0 time=0
note_on channel=0 note=52 velocity=72 time=0
note_on channel=0 note=43 velocity=57 time=0
note_on channel=0 note=43 velocity=0 time=0
note_on channel=0 note=52 velocity=0 time=0
note_on channel=0 note=36 velocity=0 time=0
note_on channel=0 note=53 velocity=70 time=0
note_on channel=0 note=29 velocity=64 time=0
control_change channel=0 control=64 value=127 time=50
note_on channel=0 note=53 velocity=0 time=0
note_on channel=0 note=45 velocity=50 time=0
note_on channel=0 note=45 velocity=0 time=60
note_on channel=0 note=48 velocity=50 time=0
note_on channel=0 note=48 velocity=0 time=60
note_on channel=0 note=53 velocity=50 time=0
note_on channel=0 note=53 velocity=0 time=60
note_on channel=0 note=29 velocity=0 time=0
note_on channel=0 note=57 velocity=53 time=0
note_on channel=0 note=41 velocity=46 time=0
note_on channel=0 note=57 velocity=0 time=60
note_on channel=0 note=60 velocity=50 time=0
note_on channel=0 note=60 velocity=0 time=60
note_on channel=0 note=65 velocity=50 time=0
note_on channel=0 note=65 velocity=0 time=60
note_on channel=0 note=69 velocity=50 time=0
note_on channel=0 note=69 velocity=0 time=60
note_on channel=0 note=60 velocity=55 time=0
note_on channel=0 note=45 velocity=46 time=0
note_on channel=0 note=60 velocity=0 time=60
note_on channel=0 note=65 velocity=50 time=0
note_on channel=0 note=65 velocity=0 time=60
note_on channel=0 note=69 velocity=50 time=0
note_on channel=0 note=69 velocity=0 time=60
note_on channel=0 note=72 velocity=50 time=0
note_on channel=0 note=72 velocity=0 time=60
note_on channel=0 note=65 velocity=55 time=0
note_on channel=0 note=48 velocity=46 time=0
note_on channel=0 note=65 velocity=0 time=60
note_on channel=0 note=69 velocity=50 time=0
note_on channel=0 note=69 velocity=0 time=60
note_on channel=0 note=72 velocity=50 time=0
note_on channel=0 note=72 velocity=0 time=0
note_on channel=0 note=77 velocity=50 time=0
note_on channel=0 note=77 velocity=0 time=0
note_on channel=0 note=48 velocity=0 time=0
note_on channel=0 note=45 velocity=0 time=0
note_on channel=0 note=41 velocity=0 time=0
note_on channel=0 note=76 velocity=74 time=0
note_on channel=0 note=41 velocity=54 time=0
note_on channel=0 note=43 velocity=54 time=0
control_change channel=0 control=64 value=0 time=8
control_change channel=0 control=64 value=127 time=29
note_on channel=0 note=76 velocity=0 time=23
note_on channel=0 note=82 velocity=50 time=0
note_on channel=0 note=82 velocity=0 time=0
note_on channel=0 note=79 velocity=50 time=0
note_on channel=0 note=79 velocity=0 time=60
note_on channel=0 note=76 velocity=50 time=0
note_on channel=0 note=76 velocity=0 time=60
note_on channel=0 note=72 velocity=54 time=0
note_on channel=0 note=46 velocity=47 time=0
note_on channel=0 note=72 velocity=0 time=60
note_on channel=0 note=79 velocity=50 time=0
note_on channel=0 note=79 velocity=0 time=60
note_on channel=0 note=76 velocity=50 time=0
note_on channel=0 note=76 velocity=0 time=60
note_on channel=0 note=72 velocity=50 time=0
note_on channel=0 note=72 velocity=0 time=60
note_on channel=0 note=70 velocity=56 time=0
note_on channel=0 note=48 velocity=47 time=0
note_on channel=0 note=70 velocity=0 time=60
note_on channel=0 note=76 velocity=50 time=0
note_on channel=0 note=76 velocity=0 time=60
note_on channel=0 note=72 velocity=50 time=0
note_on channel=0 note=72 velocity=0 time=60
note_on channel=0 note=70 velocity=50 time=0
note_on channel=0 note=70 velocity=0 time=60
note_on channel=0 note=67 velocity=54 time=0
note_on channel=0 note=52 velocity=47 time=0
note_on channel=0 note=67 velocity=0 time=60
note_on channel=0 note=72 velocity=50 time=0
note_on channel=0 note=72 velocity=0 time=60
note_on channel=0 note=70 velocity=50 time=0
note_on channel=0 note=70 velocity=0 time=0
note_on channel=0 note=67 velocity=50 time=0
note_on channel=0 note=67 velocity=0 time=0
note_on channel=0 note=52 velocity=0 time=0
note_on channel=0 note=46 velocity=0 time=0
note_on channel=0 note=41 velocity=0 time=0
note_on channel=0 note=43 velocity=0 time=0
note_on channel=0 note=48 velocity=0 time=0
note_on channel=0 note=65 velocity=70 time=0
note_on channel=0 note=41 velocity=64 time=0
control_change channel=0 control=64 value=0 time=0
control_change channel=0 control=64 value=127 time=50
note_on channel=0 note=65 velocity=0 time=0
note_on channel=0 note=57 velocity=50 time=0
note_on channel=0 note=57 velocity=0 time=60
note_on channel=0 note=60 velocity=50 time=0
note_on channel=0 note=60 velocity=0 time=60
note_on channel=0 note=65 velocity=50 time=0
note_on channel=0 note=65 velocity=0 time=60
note_on channel=0 note=41 velocity=0 time=0
note_on channel=0 note=69 velocity=53 time=0
note_on channel=0 note=53 velocity=46 time=0
note_on channel=0 note=69 velocity=0 time=60
note_on channel=0 note=72 velocity=50 time=0
note_on channel=0 note=72 velocity=0 time=60
note_on channel=0 note=77 velocity=50 time=0
note_on channel=0 note=77 velocity=0 time=60
note_on channel=0 note=81 velocity=50 time=0
note_on channel=0 note=81 velocity=0 time=60
note_on channel=0 note=72 velocity=55 time=0
note_on channel=0 note=57 velocity=46 time=0
note_on channel=0 note=72 velocity=0 time=60
note_on channel=0 note=77 velocity=50 time=0
note_on channel=0 note=77 velocity=0 time=60
note_on channel=0 note=81 velocity=50 time=0
note_on channel=0 note=81 velocity=0 time=60
note_on channel=0 note=84 velocity=50 time=0
note_on channel=0 note=84 velocity=0 time=60
note_on channel=0 note=77 velocity=55 time=0
note_on channel=0 note=60 velocity=46 time=0
note_on channel=0 note=77 velocity=0 time=60
note_on channel=0 note=81 velocity=50 time=0
note_on channel=0 note=81 velocity=0 time=60
note_on channel=0 note=84 velocity=50 time=0
note_on channel=0 note=84 velocity=0 time=0
note_on channel=0 note=89 velocity=50 time=0
note_on channel=0 note=89 velocity=0 time=0
note_on channel=0 note=60 velocity=0 time=0
note_on channel=0 note=57 velocity=0 time=0
note_on channel=0 note=53 velocity=0 time=0
note_on channel=0 note=82 velocity=74 time=0
note_on channel=0 note=53 velocity=54 time=0
note_on channel=0 note=55 velocity=54 time=0
control_change channel=0 control=64 value=0 time=8
control_change channel=0 control=64 value=127 time=29
note_on channel=0 note=82 velocity=0 time=23
note_on channel=0 note=88 velocity=50 time=0
note_on channel=0 note=88 velocity=0 time=0
note_on channel=0 note=84 velocity=50 time=0
note_on channel=0 note=84 velocity=0 time=60
note_on channel=0 note=82 velocity=50 time=0
note_on channel=0 note=82 velocity=0 time=60
note_on channel=0 note=79 velocity=54 time=0
note_on channel=0 note=58 velocity=47 time=0
note_on channel=0 note=79 velocity=0 time=60
note_on channel=0 note=84 velocity=50 time=0
note_on channel=0 note=84 velocity=0 time=60
note_on channel=0 note=82 velocity=50 time=0
note_on channel=0 note=82 velocity=0 time=60
note_on channel=0 note=79 velocity=50 time=0
note_on channel=0 note=79 velocity=0 time=60
note_on channel=0 note=76 velocity=56 time=0
note_on channel=0 note=60 velocity=47 time=0
note_on channel=0 note=76 velocity=0 time=60
note_on channel=0 note=82 velocity=50 time=0
note_on channel=0 note=82 velocity=0 time=60
note_on channel=0 note=79 velocity=50 time=0
note_on channel=0 note=79 velocity=0 time=60
note_on channel=0 note=76 velocity=50 time=0
note_on channel=0 note=76 velocity=0 time=60
note_on channel=0 note=70 velocity=54 time=0
note_on channel=0 note=64 velocity=47 time=0
note_on channel=0 note=70 velocity=0 time=60
note_on channel=0 note=79 velocity=50 time=0
note_on channel=0 note=79 velocity=0 time=60
note_on channel=0 note=76 velocity=50 time=0
note_on channel=0 note=76 velocity=0 time=0
note_on channel=0 note=70 velocity=50 time=0
note_on channel=0 note=70 velocity=0 time=0
note_on channel=0 note=64 velocity=0 time=0
note_on channel=0 note=58 velocity=0 time=0
note_on channel=0 note=53 velocity=0 time=0
note_on channel=0 note=55 velocity=0 time=0
note_on channel=0 note=60 velocity=0 time=0
note_on channel=0 note=65 velocity=77 time=0
note_on channel=0 note=41 velocity=75 time=0
control_change channel=0 control=64 value=0 time=0
control_change channel=0 control=64 value=127 time=50
note_on channel=0 note=65 velocity=0 time=0
note_on channel=0 note=57 velocity=55 time=0
note_on channel=0 note=57 velocity=0 time=60
note_on channel=0 note=60 velocity=55 time=0
note_on channel=0 note=60 velocity=0 time=60
note_on channel=0 note=65 velocity=55 time=0
note_on channel=0 note=65 velocity=0 time=60
note_on channel=0 note=41 velocity=0 time=0
note_on channel=0 note=69 velocity=58 time=0
note_on channel=0 note=53 velocity=57 time=0
note_on channel=0 note=69 velocity=0 time=60
note_on channel=0 note=72 velocity=55 time=0
note_on channel=0 note=72 velocity=0 time=60
note_on channel=0 note=77 velocity=55 time=0
note_on channel=0 note=77 velocity=0 time=60
note_on channel=0 note=81 velocity=55 time=0
note_on channel=0 note=81 velocity=0 time=60
note_on channel=0 note=72 velocity=61 time=0
note_on channel=0 note=57 velocity=57 time=0
note_on channel=0 note=72 velocity=0 time=60
note_on channel=0 note=77 velocity=55 time=0
note_on channel=0 note=77 velocity=0 time=60
note_on channel=0 note=81 velocity=56 time=0
note_on channel=0 note=81 velocity=0 time=60
note_on channel=0 note=84 velocity=56 time=0
note_on channel=0 note=84 velocity=0 time=60
note_on channel=0 note=77 velocity=61 time=0
note_on channel=0 note=60 velocity=58 time=0
note_on channel=0 note=77 velocity=0 time=60
note_on channel=0 note=81 velocity=56 time=0
note_on channel=0 note=81 velocity=0 time=60
note_on channel=0 note=84 velocity=56 time=0
note_on channel=0 note=84 velocity=0 time=0
note_on channel=0 note=89 velocity=56 time=0
note_on channel=0 note=89 velocity=0 time=0
note_on channel=0 note=60 velocity=0 time=0
note_on channel=0 note=57 velocity=0 time=0
note_on channel=0 note=53 velocity=0 time=0
note_on channel=0 note=39 velocity=82 time=0
control_change channel=0 control=64 value=0 time=0
control_change channel=0 control=64 value=127 time=50
note_on channel=0 note=57 velocity=62 time=0
note_on channel=0 note=57 velocity=0 time=60
note_on channel=0 note=60 velocity=62 time=0
note_on channel=0 note=60 velocity=0 time=60
note_on channel=0 note=65 velocity=62 time=0
note_on channel=0 note=65 velocity=0 time=60
note_on channel=0 note=39 velocity=0 time=0
note_on channel=0 note=69 velocity=66 time=0
note_on channel=0 note=51 velocity=63 time=0
note_on channel=0 note=69 velocity=0 time=60
note_on channel=0 note=72 velocity=62 time=0
note_on channel=0 note=72 velocity=0 time=60
note_on channel=0 note=77 velocity=62 time=0
note_on channel=0 note=77 velocity=0 time=60
note_on channel=0 note=81 velocity=62 time=0
note_on channel=0 note=81 velocity=0 time=60
note_on channel=0 note=72 velocity=69 time=0
note_on channel=0 note=57 velocity=64 time=0
note_on channel=0 note=72 velocity=0 time=60
note_on channel=0 note=77 velocity=63 time=0
note_on channel=0 note=77 velocity=0 time=60
note_on channel=0 note=81 velocity=63 time=0
note_on channel=0 note=81 velocity=0 time=60
note_on channel=0 note=84 velocity=63 time=0
note_on channel=0 note=84 velocity=0 time=60
note_on channel=0 note=77 velocity=69 time=0
note_on channel=0 note=60 velocity=64 time=0
note_on channel=0 note=77 velocity=0 time=60
note_on channel=0 note=81 velocity=63 time=0
note_on channel=0 note=81 velocity=0 time=60
note_on channel=0 note=84 velocity=63 time=0
note_on channel=0 note=84 velocity=0 time=0
note_on channel=0 note=89 velocity=63 time=0
note_on channel=0 note=89 velocity=0 time=0
note_on channel=0 note=60 velocity=0 time=0
note_on channel=0 note=57 velocity=0 time=0
note_on channel=0 note=51 velocity=0 time=0
note_on channel=0 note=37 velocity=91 time=0
control_change channel=0 control=64 value=0 time=0
control_change channel=0 control=64 value=127 time=50
note_on channel=0 note=58 velocity=63 time=0
note_on channel=0 note=58 velocity=0 time=60
note_on channel=0 note=61 velocity=70 time=0
note_on channel=0 note=61 velocity=0 time=60
note_on channel=0 note=65 velocity=70 time=0
note_on channel=0 note=65 velocity=0 time=60
note_on channel=0 note=37 velocity=0 time=0
note_on channel=0 note=70 velocity=73 time=0
note_on channel=0 note=49 velocity=66 time=0
note_on channel=0 note=70 velocity=0 time=60
note_on channel=0 note=73 velocity=70 time=0
note_on channel=0 note=73 velocity=0 time=60
note_on channel=0 note=77 velocity=70 time=0
note_on channel=0 note=77 velocity=0 time=60
note_on channel=0 note=82 velocity=70 time=0
note_on channel=0 note=82 velocity=0 time=60
note_on channel=0 note=73 velocity=77 time=0
note_on channel=0 note=53 velocity=67 time=0
note_on channel=0 note=73 velocity=0 time=60
note_on channel=0 note=77 velocity=70 time=0
note_on channel=0 note=77 velocity=0 time=60
note_on channel=0 note=82 velocity=70 time=0
note_on channel=0 note=82 velocity=0 time=60
note_on channel=0 note=85 velocity=70 time=0
note_on channel=0 note=85 velocity=0 time=60
note_on channel=0 note=77 velocity=78 time=0
note_on channel=0 note=58 velocity=67 time=0
note_on channel=0 note=77 velocity=0 time=60
note_on channel=0 note=82 velocity=71 time=0
note_on channel=0 note=82 velocity=0 time=60
note_on channel=0 note=85 velocity=71 time=0
note_on channel=0 note=85 velocity=0 time=0
note_on channel=0 note=89 velocity=71 time=0
note_on channel=0 note=89 velocity=0 time=0
note_on channel=0 note=58 velocity=0 time=0
note_on channel=0 note=53 velocity=0 time=0
note_on channel=0 note=49 velocity=0 time=0
note_on channel=0 note=76 velocity=79 time=0
note_on channel=0 note=42 velocity=94 time=0
control_change channel=0 control=64 value=0 time=6
control_change channel=0 control=64 value=127 time=37
note_on channel=0 note=76 velocity=0 time=0
note_on channel=0 note=88 velocity=70 time=0
note_on channel=0 note=88 velocity=0 time=60
note_on channel=0 note=85 velocity=70 time=0
note_on channel=0 note=85 velocity=0 time=60
note_on channel=0 note=82 velocity=70 time=0
note_on channel=0 note=82 velocity=0 time=60
note_on channel=0 note=76 velocity=80 time=0
note_on channel=0 note=46 velocity=68 time=0
note_on channel=0 note=76 velocity=0 time=60
note_on channel=0 note=73 velocity=68 time=0
note_on channel=0 note=73 velocity=0 time=60
note_on channel=0 note=70 velocity=70 time=0
note_on channel=0 note=70 velocity=0 time=60
note_on channel=0 note=64 velocity=70 time=0
note_on channel=0 note=64 velocity=0 time=60
note_on channel=0 note=46 velocity=0 time=0
note_on channel=0 note=61 velocity=79 time=0
note_on channel=0 note=49 velocity=72 time=0
control_change channel=0 control=64 value=0 time=9
control_change channel=0 control=64 value=127 time=28
note_on channel=0 note=61 velocity=0 time=23
note_on channel=0 note=63 velocity=68 time=0
note_on channel=0 note=63 velocity=0 time=60
note_on channel=0 note=61 velocity=69 time=0
note_on channel=0 note=61 velocity=0 time=60
note_on channel=0 note=60 velocity=69 time=0
note_on channel=0 note=60 velocity=0 time=60
note_on channel=0 note=49 velocity=0 time=0
note_on channel=0 note=58 velocity=78 time=0
note_on channel=0 note=52 velocity=75 time=0
control_change channel=0 control=64 value=0 time=8
control_change channel=0 control=64 value=127 time=41
note_on channel=0 note=58 velocity=0 time=11
note_on channel=0 note=61 velocity=72 time=0
note_on channel=0 note=61 velocity=0 time=60
note_on channel=0 note=60 velocity=76 time=0
note_on channel=0 note=60 velocity=0 time=0
note_on channel=0 note=58 velocity=81 time=0
note_on channel=0 note=58 velocity=0 time=0
note_on channel=0 note=52 velocity=0 time=0
note_on channel=0 note=42 velocity=0 time=0
note_on channel=0 note=57 velocity=86 time=0
note_on channel=0 note=41 velocity=72 time=0
note_on channel=0 note=53 velocity=84 time=0
control_change channel=0 control=64 value=0 time=0
note_on channel=0 note=57 velocity=0 time=240
note_on channel=0 note=53 velocity=0 time=0
note_on channel=0 note=41 velocity=0 time=0
note_on channel=0 note=48 velocity=40 time=0
note_on channel=0 note=48 velocity=0 time=0
note_on channel=0 note=50 velocity=45 time=0
note_on channel=0 note=50 velocity=0 time=120
note_on channel=0 note=48 velocity=41 time=0
note_on channel=0 note=48 velocity=0 time=120
note_on channel=0 note=46 velocity=45 time=0
note_on channel=0 note=46 velocity=0 time=120
note_on channel=0 note=45 velocity=40 time=0
note_on channel=0 note=45 velocity=0 time=120
note_on channel=0 note=43 velocity=43 time=0
note_on channel=0 note=43 velocity=0 time=0
note_on channel=0 note=41 velocity=40 time=0
note_on channel=0 note=41 velocity=0 time=90
note_on channel=0 note=41 velocity=45 time=0
note_on channel=0 note=60 velocity=40 time=0
note_on channel=0 note=60 velocity=0 time=0
note_on channel=0 note=41 velocity=0 time=0
note_on channel=0 note=62 velocity=45 time=0
note_on channel=0 note=62 velocity=0 time=120
note_on channel=0 note=60 velocity=41 time=0
note_on channel=0 note=60 velocity=0 time=120
note_on channel=0 note=58 velocity=45 time=0
note_on channel=0 note=58 velocity=0 time=120
note_on channel=0 note=57 velocity=40 time=0
note_on channel=0 note=57 velocity=0 time=120
note_on channel=0 note=55 velocity=43 time=0
note_on channel=0 note=55 velocity=0 time=0
note_on channel=0 note=53 velocity=40 time=0
note_on channel=0 note=53 velocity=0 time=90
note_on channel=0 note=53 velocity=45 time=0
note_on channel=0 note=51 velocity=38 time=0
note_on channel=0 note=51 velocity=0 time=40
note_on channel=0 note=53 velocity=40 time=0
note_on channel=0 note=53 velocity=0 time=40
note_on channel=0 note=51 velocity=38 time=0
note_on channel=0 note=51 velocity=0 time=0
note_on channel=0 note=53 velocity=0 time=0
note_on channel=0 note=53 velocity=45 time=0
note_on channel=0 note=53 velocity=0 time=120
note_on channel=0 note=51 velocity=41 time=0
note_on channel=0 note=51 velocity=0 time=120
note_on channel=0 note=50 velocity=45 time=0
note_on channel=0 note=50 velocity=0 time=120
note_on channel=0 note=48 velocity=40 time=0
note_on channel=0 note=48 velocity=0 time=120
note_on channel=0 note=46 velocity=43 time=0
note_on channel=0 note=46 velocity=0 time=0
note_on channel=0 note=45 velocity=40 time=0
note_on channel=0 note=45 velocity=0 time=90
note_on channel=0 note=45 velocity=45 time=0
note_on channel=0 note=63 velocity=38 time=0
note_on channel=0 note=63 velocity=0 time=40
note_on channel=0 note=65 velocity=40 time=0
note_on channel=0 note=65 velocity=0 time=40
note_on channel=0 note=63 velocity=38 time=0
note_on channel=0 note=63 velocity=0 time=0
note_on channel=0 note=45 velocity=0 time=0
note_on channel=0 note=65 velocity=45 time=0
note_on channel=0 note=65 velocity=0 time=120
note_on channel=0 note=63 velocity=41 time=0
note_on channel=0 note=63 velocity=0 time=120
note_on channel=0 note=62 velocity=45 time=0
note_on channel=0 note=62 velocity=0 time=120
note_on channel=0 note=60 velocity=40 time=0
note_on channel=0 note=60 velocity=0 time=120
note_on channel=0 note=58 velocity=43 time=0
note_on channel=0 note=58 velocity=0 time=0
note_on channel=0 note=57 velocity=40 time=0
note_on channel=0 note=57 velocity=0 time=90
note_on channel=0 note=57 velocity=45 time=0
note_on channel=0 note=60 velocity=40 time=0
note_on channel=0 note=60 velocity=0 time=0
note_on channel=0 note=57 velocity=0 time=0
note_on channel=0 note=62 velocity=45 time=0
note_on channel=0 note=62 velocity=0 time=120
note_on channel=0 note=72 velocity=44 time=0
note_on channel=0 note=60 velocity=41 time=0
note_on channel=0 note=60 velocity=0 time=120
note_on channel=0 note=72 velocity=0 time=0
note_on channel=0 note=74 velocity=49 time=0
note_on channel=0 note=58 velocity=45 time=0
note_on channel=0 note=58 velocity=0 time=120
note_on channel=0 note=74 velocity=0 time=0
note_on channel=0 note=72 velocity=45 time=0
note_on channel=0 note=57 velocity=40 time=0
note_on channel=0 note=57 velocity=0 time=120
note_on channel=0 note=72 velocity=0 time=0
note_on channel=0 note=70 velocity=49 time=0
note_on channel=0 note=55 velocity=43 time=0
note_on channel=0 note=55 velocity=0 time=0
note_on channel=0 note=70 velocity=0 time=0
note_on channel=0 note=69 velocity=44 time=0
note_on channel=0 note=53 velocity=40 time=0
note_on channel=0 note=53 velocity=0 time=90
note_on channel=0 note=69 velocity=0 time=0
note_on channel=0 note=67 velocity=47 time=0
note_on channel=0 note=67 velocity=0 time=0
note_on channel=0 note=65 velocity=44 time=0
note_on channel=0 note=63 velocity=40 time=0
note_on channel=0 note=65 velocity=0 time=90
note_on channel=0 note=63 velocity=0 time=0
note_on channel=0 note=65 velocity=45 time=0
note_on channel=0 note=65 velocity=0 time=120
note_on channel=0 note=75 velocity=44 time=0
note_on channel=0 note=63 velocity=41 time=0
note_on channel=0 note=63 velocity=0 time=120
note_on channel=0 note=75 velocity=0 time=0
note_on channel=0 note=77 velocity=49 time=0
note_on channel=0 note=62 velocity=45 time=0
note_on channel=0 note=62 velocity=0 time=120
note_on channel=0 note=77 velocity=0 time=0
note_on channel=0 note=75 velocity=45 time=0
note_on channel=0 note=60 velocity=40 time=0
note_on channel=0 note=60 velocity=0 time=120
note_on channel=0 note=75 velocity=0 time=0
note_on channel=0 note=74 velocity=49 time=0
note_on channel=0 note=58 velocity=43 time=0
note_on channel=0 note=58 velocity=0 time=120
note_on channel=0 note=74 velocity=0 time=0
note_on channel=0 note=72 velocity=44 time=0
note_on channel=0 note=57 velocity=40 time=0
note_on channel=0 note=57 velocity=0 time=90
note_on channel=0 note=72 velocity=0 time=0
note_on channel=0 note=70 velocity=47 time=0
note_on channel=0 note=70 velocity=0 time=0
note_on channel=0 note=69 velocity=44 time=0
note_on channel=0 note=69 velocity=0 time=0
note_on channel=0 note=77 velocity=49 time=0
note_on channel=0 note=77 velocity=0 time=120
note_on channel=0 note=75 velocity=47 time=0
note_on channel=0 note=75 velocity=0 time=120
note_on channel=0 note=74 velocity=47 time=0
note_on channel=0 note=74 velocity=0 time=120
note_on channel=0 note=72 velocity=47 time=0
note_on channel=0 note=72 velocity=0 time=120
note_on channel=0 note=70 velocity=44 time=0
note_on channel=0 note=70 velocity=0 time=0
note_on channel=0 note=69 velocity=44 time=0
note_on channel=0 note=69 velocity=0 time=0
note_on channel=0 note=77 velocity=53 time=0
note_on channel=0 note=77 velocity=0 time=120
note_on channel=0 note=75 velocity=49 time=0
note_on channel=0 note=75 velocity=0 time=120
note_on channel=0 note=74 velocity=46 time=0
note_on channel=0 note=74 velocity=0 time=120
note_on channel=0 note=72 velocity=46 time=0
note_on channel=0 note=72 velocity=0 time=120
note_on channel=0 note=70 velocity=49 time=0
note_on channel=0 note=70 velocity=0 time=80
note_on channel=0 note=69 velocity=49 time=0
note_on channel=0 note=69 velocity=0 time=40
note_on channel=0 note=77 velocity=54 time=0
note_on channel=0 note=77 velocity=0 time=0
note_on channel=0 note=75 velocity=49 time=0
note_on channel=0 note=75 velocity=0 time=80
note_on channel=0 note=74 velocity=49 time=0
note_on channel=0 note=74 velocity=0 time=80
note_on channel=0 note=72 velocity=49 time=0
note_on channel=0 note=72 velocity=0 time=0
note_on channel=0 note=70 velocity=49 time=0
note_on channel=0 note=70 velocity=0 time=60
note_on channel=0 note=69 velocity=49 time=0
note_on channel=0 note=69 velocity=0 time=0
note_on channel=0 note=77 velocity=58 time=0
note_on channel=0 note=77 velocity=0 time=60
note_on channel=0 note=75 velocity=50 time=0
note_on channel=0 note=75 velocity=0 time=60
note_on channel=0 note=74 velocity=50 time=0
note_on channel=0 note=74 velocity=0 time=60
note_on channel=0 note=72 velocity=50 time=0
note_on channel=0 note=72 velocity=0 time=0
note_on channel=0 note=70 velocity=50 time=0
note_on channel=0 note=70 velocity=0 time=60
note_on channel=0 note=69 velocity=50 time=0
note_on channel=0 note=69 velocity=0 time=0
note_on channel=0 note=77 velocity=59 time=0
note_on channel=0 note=77 velocity=0 time=60
note_on channel=0 note=75 velocity=52 time=0
note_on channel=0 note=75 velocity=0 time=60
note_on channel=0 note=74 velocity=52 time=0
note_on channel=0 note=74 velocity=0 time=60
note_on channel=0 note=72 velocity=52 time=0
note_on channel=0 note=72 velocity=0 time=0
note_on channel=0 note=70 velocity=52 time=0
note_on channel=0 note=70 velocity=0 time=60
note_on channel=0 note=69 velocity=52 time=0
note_on channel=0 note=69 velocity=0 time=0
note_on channel=0 note=78 velocity=61 time=0
note_on channel=0 note=78 velocity=0 time=18
note_on channel=0 note=77 velocity=55 time=0
note_on channel=0 note=77 velocity=0 time=1
note_on channel=0 note=75 velocity=56 time=0
note_on channel=0 note=75 velocity=0 time=30
note_on channel=0 note=74 velocity=57 time=0
note_on channel=0 note=74 velocity=0 time=20
note_on channel=0 note=72 velocity=58 time=0
note_on channel=0 note=72 velocity=0 time=10
note_on channel=0 note=70 velocity=58 time=0
note_on channel=0 note=70 velocity=0 time=12
note_on channel=0 note=69 velocity=59 time=0
note_on channel=0 note=69 velocity=0 time=0
note_on channel=0 note=79 velocity=50 time=0
note_on channel=0 note=79 velocity=0 time=0
note_on channel=0 note=77 velocity=46 time=0
note_on channel=0 note=77 velocity=0 time=120
note_on channel=0 note=75 velocity=50 time=0
note_on channel=0 note=58 velocity=42 time=0
note_on channel=0 note=75 velocity=0 time=120
note_on channel=0 note=74 velocity=46 time=0
note_on channel=0 note=65 velocity=34 time=0
note_on channel=0 note=65 velocity=0 time=120
note_on channel=0 note=74 velocity=0 time=0
note_on channel=0 note=58 velocity=0 time=0
note_on channel=0 note=72 velocity=46 time=0
note_on channel=0 note=62 velocity=38 time=0
note_on channel=0 note=72 velocity=0 time=120
note_on channel=0 note=70 velocity=46 time=0
note_on channel=0 note=65 velocity=34 time=0
note_on channel=0 note=65 velocity=0 time=120
note_on channel=0 note=70 velocity=0 time=0
note_on channel=0 note=62 velocity=0 time=0
note_on channel=0 note=69 velocity=50 time=0
note_on channel=0 note=63 velocity=38 time=0
note_on channel=0 note=60 velocity=38 time=0
control_change channel=0 control=64 value=127 time=78
note_on channel=0 note=63 velocity=0 time=42
note_on channel=0 note=65 velocity=34 time=0
note_on channel=0 note=65 velocity=0 time=120
note_on channel=0 note=60 velocity=0 time=0
note_on channel=0 note=69 velocity=0 time=0
note_on channel=0 note=70 velocity=47 time=0
note_on channel=0 note=62 velocity=37 time=0
note_on channel=0 note=58 velocity=37 time=0
control_change channel=0 control=64 value=0 time=5
control_change channel=0 control=64 value=127 time=80
note_on channel=0 note=62 velocity=0 time=0
note_on channel=0 note=65 velocity=34 time=0
note_on channel=0 note=65 velocity=0 time=0
note_on channel=0 note=58 velocity=0 time=0
note_on channel=0 note=70 velocity=0 time=0
note_on channel=0 note=71 velocity=53 time=0
note_on channel=0 note=57 velocity=43 time=0
note_on channel=0 note=63 velocity=43 time=0
control_change channel=0 control=64 value=0 time=0
note_on channel=0 note=65 velocity=34 time=120
note_on channel=0 note=65 velocity=0 time=60
note_on channel=0 note=71 velocity=0 time=60
note_on channel=0 note=72 velocity=49 time=0
note_on channel=0 note=65 velocity=34 time=0
note_on channel=0 note=65 velocity=0 time=60
note_on channel=0 note=65 velocity=34 time=60
note_on channel=0 note=65 velocity=0 time=60
note_on channel=0 note=72 velocity=0 time=60
note_on channel=0 note=65 velocity=37 time=0
note_on channel=0 note=65 velocity=0 time=60
note_on channel=0 note=78 velocity=45 time=0
note_on channel=0 note=65 velocity=34 time=0
note_on channel=0 note=65 velocity=0 time=60
note_on channel=0 note=78 velocity=0 time=0
note_on channel=0 note=81 velocity=50 time=0
note_on channel=0 note=65 velocity=34 time=0
note_on channel=0 note=65 velocity=0 time=60
note_on channel=0 note=81 velocity=0 time=0
note_on channel=0 note=79 velocity=46 time=0
note_on channel=0 note=65 velocity=34 time=0
note_on channel=0 note=65 velocity=0 time=60
note_on channel=0 note=57 velocity=0 time=0
note_on channel=0 note=63 velocity=0 time=0
note_on channel=0 note=79 velocity=0 time=0
note_on channel=0 note=77 velocity=50 time=0
note_on channel=0 note=57 velocity=42 time=0
note_on channel=0 note=77 velocity=0 time=120
note_on channel=0 note=75 velocity=44 time=0
note_on channel=0 note=65 velocity=34 time=0
note_on channel=0 note=65 velocity=0 time=120
note_on channel=0 note=75 velocity=0 time=0
note_on channel=0 note=57 velocity=0 time=0
note_on channel=0 note=74 velocity=46 time=0
note_on channel=0 note=63 velocity=38 time=0
note_on channel=0 note=74 velocity=0 time=120
note_on channel=0 note=72 velocity=44 time=0
note_on channel=0 note=65 velocity=34 time=0
note_on channel=0 note=65 velocity=0 time=120
note_on channel=0 note=72 velocity=0 time=0
note_on channel=0 note=63 velocity=0 time=0
note_on channel=0 note=69 velocity=50 time=0
note_on channel=0 note=62 velocity=38 time=0
control_change channel=0 control=64 value=127 time=78
note_on channel=0 note=69 velocity=0 time=42
note_on channel=0 note=70 velocity=41 time=0
note_on channel=0 note=65 velocity=34 time=0
note_on channel=0 note=65 velocity=0 time=120
note_on channel=0 note=70 velocity=0 time=0
note_on channel=0 note=62 velocity=0 time=0
note_on channel=0 note=71 velocity=47 time=0
note_on channel=0 note=57 velocity=37 time=0
control_change channel=0 control=64 value=0 time=5
control_change channel=0 control=64 value=127 time=66
note_on channel=0 note=71 velocity=0 time=0
note_on channel=0 note=72 velocity=44 time=0
note_on channel=0 note=65 velocity=34 time=0
note_on channel=0 note=65 velocity=0 time=0
note_on channel=0 note=72 velocity=0 time=0
note_on channel=0 note=57 velocity=0 time=0
note_on channel=0 note=73 velocity=58 time=0
note_on channel=0 note=58 velocity=47 time=0
control_change channel=0 control=64 value=0 time=4
note_on channel=0 note=65 velocity=37 time=116
note_on channel=0 note=65 velocity=0 time=60
note_on channel=0 note=73 velocity=0 time=60
note_on channel=0 note=74 velocity=53 time=0
note_on channel=0 note=65 velocity=37 time=0
note_on channel=0 note=65 velocity=0 time=60
note_on channel=0 note=65 velocity=37 time=60
note_on channel=0 note=65 velocity=0 time=60
note_on channel=0 note=65 velocity=41 time=60
note_on channel=0 note=65 velocity=0 time=60
note_on channel=0 note=74 velocity=0 time=0
note_on channel=0 note=77 velocity=56 time=0
note_on channel=0 note=65 velocity=37 time=0
note_on channel=0 note=65 velocity=0 time=60
note_on channel=0 note=77 velocity=0 time=0
note_on channel=0 note=58 velocity=0 time=0
note_on channel=0 note=79 velocity=64 time=0
note_on channel=0 note=59 velocity=37 time=0
note_on channel=0 note=79 velocity=0 time=0
note_on channel=0 note=74 velocity=58 time=0
note_on channel=0 note=65 velocity=38 time=0
note_on channel=0 note=65 velocity=0 time=60
note_on channel=0 note=74 velocity=0 time=60
note_on channel=0 note=59 velocity=0 time=0
note_on channel=0 note=77 velocity=62 time=0
note_on channel=0 note=60 velocity=47 time=0
control_change channel=0 control=64 value=127 time=57
note_on channel=0 note=77 velocity=0 time=63
note_on channel=0 note=75 velocity=58 time=0
note_on channel=0 note=65 velocity=38 time=0
note_on channel=0 note=65 velocity=0 time=120
note_on channel=0 note=75 velocity=0 time=0
note_on channel=0 note=60 velocity=0 time=0
note_on channel=0 note=77 velocity=64 time=0
note_on channel=0 note=57 velocity=42 time=0
control_change channel=0 control=64 value=0 time=11
control_change channel=0 control=64 value=127 time=53
note_on channel=0 note=77 velocity=0 time=56
note_on channel=0 note=72 velocity=58 time=0
note_on channel=0 note=65 velocity=38 time=0
note_on channel=0 note=65 velocity=0 time=120
note_on channel=0 note=72 velocity=0 time=0
note_on channel=0 note=57 velocity=0 time=0
note_on channel=0 note=75 velocity=64 time=0
note_on channel=0 note=58 velocity=47 time=0
control_change channel=0 control=64 value=0 time=7
control_change channel=0 control=64 value=127 time=64
note_on channel=0 note=75 velocity=0 time=49
note_on channel=0 note=74 velocity=59 time=0
note_on channel=0 note=65 velocity=38 time=0
note_on channel=0 note=65 velocity=0 time=120
note_on channel=0 note=74 velocity=0 time=0
note_on channel=0 note=58 velocity=0 time=0
note_on channel=0 note=79 velocity=67 time=0
note_on channel=0 note=59 velocity=43 time=0
control_change channel=0 control=64 value=0 time=7
control_change channel=0 control=64 value=127 time=64
note_on channel=0 note=79 velocity=0 time=0
note_on channel=0 note=74 velocity=59 time=0
note_on channel=0 note=65 velocity=38 time=0
note_on channel=0 note=65 velocity=0 time=0
note_on channel=0 note=74 velocity=0 time=0
note_on channel=0 note=59 velocity=0 time=0
note_on channel=0 note=77 velocity=71 time=0
note_on channel=0 note=60 velocity=54 time=0
control_change channel=0 control=64 value=0 time=8
control_change channel=0 control=64 value=127 time=67
note_on channel=0 note=77 velocity=0 time=45
note_on channel=0 note=75 velocity=64 time=0
note_on channel=0 note=65 velocity=39 time=0
note_on channel=0 note=65 velocity=0 time=120
note_on channel=0 note=75 velocity=0 time=0
note_on channel=0 note=60 velocity=0 time=0
note_on channel=0 note=77 velocity=71 time=0
note_on channel=0 note=57 velocity=48 time=0
control_change channel=0 control=64 value=0 time=7
control_change channel=0 control=64 value=127 time=50
note_on channel=0 note=77 velocity=0 time=63
note_on channel=0 note=72 velocity=62 time=0
note_on channel=0 note=65 velocity=39 time=0
note_on channel=0 note=65 velocity=0 time=120
note_on channel=0 note=72 velocity=0 time=0
note_on channel=0 note=57 velocity=0 time=0
note_on channel=0 note=74 velocity=70 time=0
note_on channel=0 note=58 velocity=55 time=0
control_change channel=0 control=64 value=0 time=8
control_change channel=0 control=64 value=127 time=61
note_on channel=0 note=74 velocity=0 time=0
note_on channel=0 note=75 velocity=60 time=0
note_on channel=0 note=62 velocity=40 time=0
note_on channel=0 note=62 velocity=0 time=120
note_on channel=0 note=75 velocity=0 time=0
note_on channel=0 note=58 velocity=0 time=0
note_on channel=0 note=76 velocity=62 time=0
note_on channel=0 note=57 velocity=49 time=0
control_change channel=0 control=64 value=0 time=5
control_change channel=0 control=64 value=127 time=64
note_on channel=0 note=76 velocity=0 time=51
note_on channel=0 note=77 velocity=64 time=0
note_on channel=0 note=60 velocity=44 time=0
note_on channel=0 note=60 velocity=0 time=0
note_on channel=0 note=77 velocity=0 time=0
note_on channel=0 note=57 velocity=0 time=0
note_on channel=0 note=78 velocity=70 time=0
note_on channel=0 note=55 velocity=60 time=0
control_change channel=0 control=64 value=0 time=0
control_change channel=0 control=64 value=127 time=69
note_on channel=0 note=78 velocity=0 time=51
note_on channel=0 note=79 velocity=66 time=0
note_on channel=0 note=58 velocity=43 time=0
note_on channel=0 note=55 velocity=0 time=110
note_on channel=0 note=58 velocity=0 time=10
note_on channel=0 note=79 velocity=0 time=0
note_on channel=0 note=81 velocity=69 time=0
note_on channel=0 note=55 velocity=50 time=0
control_change channel=0 control=64 value=0 time=11
control_change channel=0 control=64 value=127 time=64
note_on channel=0 note=81 velocity=0 time=45
note_on channel=0 note=82 velocity=70 time=0
note_on channel=0 note=58 velocity=42 time=0
note_on channel=0 note=58 velocity=0 time=0
note_on channel=0 note=82 velocity=0 time=0
note_on channel=0 note=55 velocity=0 time=0
note_on channel=0 note=84 velocity=71 time=0
note_on channel=0 note=48 velocity=57 time=0
control_change channel=0 control=64 value=0 time=10
control_change channel=0 control=64 value=127 time=59
note_on channel=0 note=84 velocity=0 time=51
note_on channel=0 note=85 velocity=76 time=0
note_on channel=0 note=58 velocity=40 time=0
note_on channel=0 note=48 velocity=0 time=110
note_on channel=0 note=58 velocity=0 time=10
note_on channel=0 note=85 velocity=0 time=0
note_on channel=0 note=86 velocity=81 time=0
note_on channel=0 note=48 velocity=44 time=0
control_change channel=0 control=64 value=0 time=8
control_change channel=0 control=64 value=127 time=49
note_on channel=0 note=86 velocity=0 time=0
note_on channel=0 note=76 velocity=64 time=0
note_on channel=0 note=58 velocity=40 time=0
note_on channel=0 note=58 velocity=0 time=0
note_on channel=0 note=76 velocity=0 time=0
note_on channel=0 note=48 velocity=0 time=0
note_on channel=0 note=79 velocity=58 time=0
note_on channel=0 note=53 velocity=43 time=0
control_change channel=0 control=64 value=0 time=12
note_on channel=0 note=58 velocity=29 time=108
note_on channel=0 note=58 velocity=0 time=120
note_on channel=0 note=79 velocity=0 time=0
note_on channel=0 note=77 velocity=53 time=0
note_on channel=0 note=57 velocity=35 time=0
note_on channel=0 note=57 velocity=0 time=120
note_on channel=0 note=55 velocity=29 time=0
note_on channel=0 note=55 velocity=0 time=120
note_on channel=0 note=77 velocity=0 time=0
note_on channel=0 note=57 velocity=34 time=0
note_on channel=0 note=65 velocity=38 time=0
note_on channel=0 note=77 velocity=45 time=0
note_on channel=0 note=77 velocity=0 time=0
note_on channel=0 note=53 velocity=0 time=0
note_on channel=0 note=57 velocity=0 time=0
note_on channel=0 note=65 velocity=0 time=0
note_on channel=0 note=67 velocity=42 time=0
note_on channel=0 note=79 velocity=50 time=0
note_on channel=0 note=79 velocity=0 time=120
note_on channel=0 note=67 velocity=0 time=0
note_on channel=0 note=65 velocity=39 time=0
note_on channel=0 note=77 velocity=46 time=0
note_on channel=0 note=77 velocity=0 time=120
note_on channel=0 note=65 velocity=0 time=0
note_on channel=0 note=63 velocity=42 time=0
note_on channel=0 note=75 velocity=50 time=0
note_on channel=0 note=46 velocity=42 time=0
note_on channel=0 note=75 velocity=0 time=120
note_on channel=0 note=63 velocity=0 time=0
note_on channel=0 note=62 velocity=39 time=0
note_on channel=0 note=74 velocity=46 time=0
note_on channel=0 note=53 velocity=34 time=0
note_on channel=0 note=53 velocity=0 time=120
note_on channel=0 note=46 velocity=0 time=0
note_on channel=0 note=62 velocity=0 time=0
note_on channel=0 note=74 velocity=0 time=0
note_on channel=0 note=60 velocity=39 time=0
note_on channel=0 note=72 velocity=46 time=0
note_on channel=0 note=50 velocity=38 time=0
note_on channel=0 note=72 velocity=0 time=120
note_on channel=0 note=60 velocity=0 time=0
note_on channel=0 note=58 velocity=39 time=0
note_on channel=0 note=70 velocity=46 time=0
note_on channel=0 note=53 velocity=34 time=0
note_on channel=0 note=53 velocity=0 time=120
note_on channel=0 note=50 velocity=0 time=0
note_on channel=0 note=58 velocity=0 time=0
note_on channel=0 note=70 velocity=0 time=0
note_on channel=0 note=57 velocity=42 time=0
note_on channel=0 note=69 velocity=42 time=0
note_on channel=0 note=51 velocity=38 time=0
note_on channel=0 note=48 velocity=38 time=0
control_change channel=0 control=64 value=127 time=78
note_on channel=0 note=51 velocity=0 time=42
note_on channel=0 note=53 velocity=34 time=0
note_on channel=0 note=53 velocity=0 time=120
note_on channel=0 note=48 velocity=0 time=0
note_on channel=0 note=69 velocity=0 time=0
note_on channel=0 note=57 velocity=0 time=0
note_on channel=0 note=58 velocity=39 time=0
note_on channel=0 note=70 velocity=47 time=0
note_on channel=0 note=50 velocity=37 time=0
note_on channel=0 note=46 velocity=37 time=0
control_change channel=0 control=64 value=0 time=5
control_change channel=0 control=64 value=127 time=80
note_on channel=0 note=50 velocity=0 time=0
note_on channel=0 note=53 velocity=34 time=0
note_on channel=0 note=53 velocity=0 time=0
note_on channel=0 note=46 velocity=0 time=0
note_on channel=0 note=70 velocity=0 time=0
note_on channel=0 note=58 velocity=0 time=0
note_on channel=0 note=59 velocity=45 time=0
note_on channel=0 note=71 velocity=53 time=0
note_on channel=0 note=45 velocity=43 time=0
note_on channel=0 note=51 velocity=43 time=0
control_change channel=0 control=64 value=0 time=0
note_on channel=0 note=53 velocity=34 time=120
note_on channel=0 note=53 velocity=0 time=60
note_on channel=0 note=59 velocity=0 time=60
note_on channel=0 note=71 velocity=0 time=0
note_on channel=0 note=60 velocity=41 time=0
note_on channel=0 note=72 velocity=49 time=0
note_on channel=0 note=53 velocity=34 time=0
note_on channel=0 note=53 velocity=0 time=60
note_on channel=0 note=53 velocity=34 time=60
note_on channel=0 note=53 velocity=0 time=60
note_on channel=0 note=53 velocity=37 time=60
note_on channel=0 note=53 velocity=0 time=60
note_on channel=0 note=60 velocity=0 time=0
note_on channel=0 note=72 velocity=0 time=0
note_on channel=0 note=66 velocity=38 time=0
note_on channel=0 note=78 velocity=45 time=0
note_on channel=0 note=53 velocity=34 time=0
note_on channel=0 note=53 velocity=0 time=60
note_on channel=0 note=66 velocity=0 time=0
note_on channel=0 note=78 velocity=0 time=0
note_on channel=0 note=69 velocity=42 time=0
note_on channel=0 note=81 velocity=50 time=0
note_on channel=0 note=53 velocity=34 time=0
note_on channel=0 note=53 velocity=0 time=60
note_on channel=0 note=69 velocity=0 time=0
note_on channel=0 note=81 velocity=0 time=0
note_on channel=0 note=67 velocity=39 time=0
note_on channel=0 note=79 velocity=46 time=0
note_on channel=0 note=53 velocity=34 time=0
note_on channel=0 note=53 velocity=0 time=60
note_on channel=0 note=67 velocity=0 time=0
note_on channel=0 note=51 velocity=0 time=0
note_on channel=0 note=45 velocity=0 time=0
note_on channel=0 note=79 velocity=0 time=0
note_on channel=0 note=65 velocity=42 time=0
note_on channel=0 note=77 velocity=50 time=0
note_on channel=0 note=45 velocity=42 time=0
note_on channel=0 note=77 velocity=0 time=120
note_on channel=0 note=65 velocity=0 time=0
note_on channel=0 note=63 velocity=43 time=0
note_on channel=0 note=75 velocity=43 time=0
note_on channel=0 note=53 velocity=34 time=0
note_on channel=0 note=53 velocity=0 time=120
note_on channel=0 note=45 velocity=0 time=0
note_on channel=0 note=63 velocity=0 time=0
note_on channel=0 note=75 velocity=0 time=0
note_on channel=0 note=62 velocity=39 time=0
note_on channel=0 note=74 velocity=46 time=0
note_on channel=0 note=51 velocity=38 time=0
note_on channel=0 note=74 velocity=0 time=120
note_on channel=0 note=62 velocity=0 time=0
note_on channel=0 note=60 velocity=43 time=0
note_on channel=0 note=72 velocity=43 time=0
note_on channel=0 note=53 velocity=34 time=0
note_on channel=0 note=53 velocity=0 time=120
note_on channel=0 note=51 velocity=0 time=0
note_on channel=0 note=60 velocity=0 time=0
note_on channel=0 note=72 velocity=0 time=0
note_on channel=0 note=57 velocity=42 time=0
note_on channel=0 note=69 velocity=50 time=0
note_on channel=0 note=50 velocity=38 time=0
control_change channel=0 control=64 value=127 time=78
note_on channel=0 note=69 velocity=0 time=42
note_on channel=0 note=57 velocity=0 time=0
note_on channel=0 note=58 velocity=44 time=0
note_on channel=0 note=70 velocity=44 time=0
note_on channel=0 note=53 velocity=34 time=0
note_on channel=0 note=53 velocity=0 time=120
note_on channel=0 note=50 velocity=0 time=0
note_on channel=0 note=58 velocity=0 time=0
note_on channel=0 note=70 velocity=0 time=0
note_on channel=0 note=59 velocity=39 time=0
note_on channel=0 note=71 velocity=47 time=0
note_on channel=0 note=45 velocity=37 time=0
control_change channel=0 control=64 value=0 time=5
control_change channel=0 control=64 value=127 time=66
note_on channel=0 note=71 velocity=0 time=0
note_on channel=0 note=59 velocity=0 time=0
note_on channel=0 note=60 velocity=45 time=0
note_on channel=0 note=72 velocity=45 time=0
note_on channel=0 note=53 velocity=34 time=0
note_on channel=0 note=53 velocity=0 time=0
note_on channel=0 note=45 velocity=0 time=0
note_on channel=0 note=60 velocity=0 time=0
note_on channel=0 note=72 velocity=0 time=0
note_on channel=0 note=61 velocity=45 time=0
note_on channel=0 note=73 velocity=53 time=0
note_on channel=0 note=46 velocity=43 time=0
control_change channel=0 control=64 value=0 time=4
note_on channel=0 note=53 velocity=34 time=116
note_on channel=0 note=53 velocity=0 time=60
note_on channel=0 note=61 velocity=0 time=60
note_on channel=0 note=73 velocity=0 time=0
note_on channel=0 note=62 velocity=41 time=0
note_on channel=0 note=74 velocity=49 time=0
note_on channel=0 note=53 velocity=34 time=0
note_on channel=0 note=53 velocity=0 time=60
note_on channel=0 note=53 velocity=34 time=60
note_on channel=0 note=53 velocity=0 time=60
note_on channel=0 note=53 velocity=37 time=60
note_on channel=0 note=53 velocity=0 time=60
note_on channel=0 note=74 velocity=0 time=0
note_on channel=0 note=62 velocity=0 time=0
note_on channel=0 note=77 velocity=56 time=0
note_on channel=0 note=53 velocity=37 time=0
note_on channel=0 note=53 velocity=0 time=60
note_on channel=0 note=77 velocity=0 time=0
note_on channel=0 note=46 velocity=0 time=0
note_on channel=0 note=68 velocity=45 time=0
note_on channel=0 note=79 velocity=63 time=0
note_on channel=0 note=47 velocity=37 time=0
note_on channel=0 note=79 velocity=0 time=0
note_on channel=0 note=74 velocity=57 time=0
note_on channel=0 note=53 velocity=37 time=0
note_on channel=0 note=53 velocity=0 time=60
note_on channel=0 note=74 velocity=0 time=60
note_on channel=0 note=47 velocity=0 time=0
note_on channel=0 note=77 velocity=62 time=0
note_on channel=0 note=48 velocity=46 time=0
control_change channel=0 control=64 value=127 time=57
note_on channel=0 note=77 velocity=0 time=63
note_on channel=0 note=75 velocity=58 time=0
note_on channel=0 note=53 velocity=38 time=0
note_on channel=0 note=53 velocity=0 time=120
note_on channel=0 note=68 velocity=0 time=0
note_on channel=0 note=48 velocity=0 time=0
note_on channel=0 note=75 velocity=0 time=0
note_on channel=0 note=69 velocity=45 time=0
note_on channel=0 note=77 velocity=63 time=0
note_on channel=0 note=41 velocity=42 time=0
control_change channel=0 control=64 value=0 time=11
control_change channel=0 control=64 value=127 time=53
note_on channel=0 note=77 velocity=0 time=56
note_on channel=0 note=72 velocity=58 time=0
note_on channel=0 note=53 velocity=38 time=0
note_on channel=0 note=53 velocity=0 time=120
note_on channel=0 note=69 velocity=0 time=0
note_on channel=0 note=41 velocity=0 time=0
note_on channel=0 note=72 velocity=0 time=0
note_on channel=0 note=70 velocity=46 time=0
note_on channel=0 note=75 velocity=64 time=0
note_on channel=0 note=46 velocity=47 time=0
control_change channel=0 control=64 value=0 time=7
control_change channel=0 control=64 value=127 time=64
note_on channel=0 note=75 velocity=0 time=49
note_on channel=0 note=74 velocity=59 time=0
note_on channel=0 note=53 velocity=38 time=0
note_on channel=0 note=53 velocity=0 time=120
note_on channel=0 note=70 velocity=0 time=0
note_on channel=0 note=46 velocity=0 time=0
note_on channel=0 note=74 velocity=0 time=0
note_on channel=0 note=68 velocity=46 time=0
note_on channel=0 note=79 velocity=67 time=0
note_on channel=0 note=47 velocity=43 time=0
control_change channel=0 control=64 value=0 time=7
control_change channel=0 control=64 value=127 time=64
note_on channel=0 note=79 velocity=0 time=0
note_on channel=0 note=74 velocity=59 time=0
note_on channel=0 note=53 velocity=39 time=0
note_on channel=0 note=53 velocity=0 time=0
note_on channel=0 note=74 velocity=0 time=0
note_on channel=0 note=47 velocity=0 time=0
note_on channel=0 note=77 velocity=71 time=0
note_on channel=0 note=48 velocity=54 time=0
control_change channel=0 control=64 value=0 time=8
control_change channel=0 control=64 value=127 time=67
note_on channel=0 note=77 velocity=0 time=45
note_on channel=0 note=75 velocity=64 time=0
note_on channel=0 note=53 velocity=39 time=0
note_on channel=0 note=53 velocity=0 time=120
note_on channel=0 note=68 velocity=0 time=0
note_on channel=0 note=48 velocity=0 time=0
note_on channel=0 note=75 velocity=0 time=0
note_on channel=0 note=69 velocity=47 time=0
note_on channel=0 note=77 velocity=71 time=0
note_on channel=0 note=41 velocity=48 time=0
control_change channel=0 control=64 value=0 time=7
control_change channel=0 control=64 value=127 time=50
note_on channel=0 note=77 velocity=0 time=63
note_on channel=0 note=72 velocity=63 time=0
note_on channel=0 note=53 velocity=39 time=0
note_on channel=0 note=53 velocity=0 time=120
note_on channel=0 note=69 velocity=0 time=0
note_on channel=0 note=41 velocity=0 time=0
note_on channel=0 note=72 velocity=0 time=0
note_on channel=0 note=70 velocity=59 time=0
note_on channel=0 note=75 velocity=71 time=0
note_on channel=0 note=46 velocity=56 time=0
control_change channel=0 control=64 value=0 time=8
control_change channel=0 control=64 value=127 time=61
note_on channel=0 note=75 velocity=0 time=0
note_on channel=0 note=70 velocity=0 time=0
note_on channel=0 note=62 velocity=53 time=0
note_on channel=0 note=74 velocity=63 time=0
note_on channel=0 note=53 velocity=41 time=0
note_on channel=0 note=53 velocity=0 time=120
note_on channel=0 note=46 velocity=0 time=0
note_on channel=0 note=62 velocity=0 time=0
note_on channel=0 note=74 velocity=0 time=0
note_on channel=0 note=63 velocity=56 time=0
note_on channel=0 note=75 velocity=67 time=0
note_on channel=0 note=44 velocity=50 time=0
control_change channel=0 control=64 value=0 time=5
control_change channel=0 control=64 value=127 time=64
note_on channel=0 note=75 velocity=0 time=51
note_on channel=0 note=63 velocity=0 time=0
note_on channel=0 note=65 velocity=60 time=0
note_on channel=0 note=77 velocity=71 time=0
note_on channel=0 note=46 velocity=45 time=0
note_on channel=0 note=46 velocity=0 time=0
note_on channel=0 note=44 velocity=0 time=0
note_on channel=0 note=65 velocity=0 time=0
note_on channel=0 note=77 velocity=0 time=0
note_on channel=0 note=66 velocity=64 time=0
note_on channel=0 note=78 velocity=76 time=0
note_on channel=0 note=43 velocity=62 time=0
control_change channel=0 control=64 value=0 time=0
control_change channel=0 control=64 value=127 time=69
note_on channel=0 note=78 velocity=0 time=51
note_on channel=0 note=66 velocity=0 time=0
note_on channel=0 note=67 velocity=61 time=0
note_on channel=0 note=79 velocity=72 time=0
note_on channel=0 note=46 velocity=51 time=0
note_on channel=0 note=43 velocity=0 time=110
note_on channel=0 note=67 velocity=0 time=10
note_on channel=0 note=79 velocity=0 time=0
note_on channel=0 note=46 velocity=0 time=0
note_on channel=0 note=69 velocity=64 time=0
note_on channel=0 note=81 velocity=76 time=0
note_on channel=0 note=39 velocity=58 time=0
control_change channel=0 control=64 value=0 time=11
note_on channel=0 note=81 velocity=0 time=49
note_on channel=0 note=69 velocity=0 time=0
control_change channel=0 control=64 value=127 time=15
note_on channel=0 note=70 velocity=67 time=0
note_on channel=0 note=82 velocity=80 time=0
note_on channel=0 note=51 velocity=51 time=0
note_on channel=0 note=82 velocity=0 time=60
note_on channel=0 note=70 velocity=0 time=0
note_on channel=0 note=39 velocity=0 time=0
note_on channel=0 note=51 velocity=0 time=0
note_on channel=0 note=58 velocity=71 time=0
note_on channel=0 note=70 velocity=71 time=0
note_on channel=0 note=41 velocity=56 time=0
control_change channel=0 control=64 value=0 time=10
control_change channel=0 control=64 value=127 time=59
note_on channel=0 note=50 velocity=42 time=51
note_on channel=0 note=41 velocity=0 time=110
note_on channel=0 note=58 velocity=0 time=10
note_on channel=0 note=70 velocity=0 time=0
note_on channel=0 note=50 velocity=0 time=0
note_on channel=0 note=60 velocity=58 time=0
note_on channel=0 note=72 velocity=69 time=0
note_on channel=0 note=41 velocity=49 time=0
control_change channel=0 control=64 value=0 time=8
control_change channel=0 control=64 value=127 time=49
note_on channel=0 note=45 velocity=43 time=0
note_on channel=0 note=45 velocity=0 time=0
note_on channel=0 note=60 velocity=0 time=0
note_on channel=0 note=72 velocity=0 time=0
note_on channel=0 note=41 velocity=0 time=0
note_on channel=0 note=61 velocity=41 time=0
note_on channel=0 note=73 velocity=49 time=0
note_on channel=0 note=34 velocity=43 time=0
control_change channel=0 control=64 value=0 time=12
note_on channel=0 note=34 velocity=0 time=108
note_on channel=0 note=46 velocity=29 time=0
note_on channel=0 note=73 velocity=0 time=120
note_on channel=0 note=61 velocity=0 time=0
note_on channel=0 note=62 velocity=38 time=0
note_on channel=0 note=74 velocity=45 time=0
note_on channel=0 note=58 velocity=35 time=0
note_on channel=0 note=58 velocity=0 time=31
note_on channel=0 note=58 velocity=29 time=60
note_on channel=0 note=58 velocity=0 time=36
note_on channel=0 note=58 velocity=40 time=0
control_change channel=0 control=64 value=127 time=26
note_on channel=0 note=58 velocity=0 time=34
note_on channel=0 note=74 velocity=0 time=0
note_on channel=0 note=62 velocity=0 time=0
note_on channel=0 note=70 velocity=59 time=0
note_on channel=0 note=70 velocity=0 time=5
note_on channel=0 note=69 velocity=61 time=0
note_on channel=0 note=58 velocity=35 time=0
note_on channel=0 note=58 velocity=0 time=60
note_on channel=0 note=69 velocity=0 time=0
note_on channel=0 note=70 velocity=62 time=0
note_on channel=0 note=70 velocity=0 time=29
note_on channel=0 note=46 velocity=0 time=0
note_on channel=0 note=71 velocity=62 time=0
note_on channel=0 note=56 velocity=43 time=0
note_on channel=0 note=71 velocity=0 time=60
note_on channel=0 note=72 velocity=64 time=0
note_on channel=0 note=72 velocity=0 time=53
note_on channel=0 note=73 velocity=65 time=0
note_on channel=0 note=58 velocity=39 time=0
note_on channel=0 note=73 velocity=0 time=60
note_on channel=0 note=74 velocity=67 time=0
note_on channel=0 note=74 velocity=0 time=58
note_on channel=0 note=58 velocity=0 time=0
note_on channel=0 note=56 velocity=0 time=0
note_on channel=0 note=75 velocity=69 time=0
note_on channel=0 note=55 velocity=52 time=0
note_on channel=0 note=75 velocity=0 time=22
note_on channel=0 note=76 velocity=70 time=0
note_on channel=0 note=76 velocity=0 time=60
note_on channel=0 note=77 velocity=71 time=0
note_on channel=0 note=58 velocity=46 time=0
note_on channel=0 note=77 velocity=0 time=26
note_on channel=0 note=78 velocity=73 time=0
note_on channel=0 note=78 velocity=0 time=60
note_on channel=0 note=58 velocity=0 time=0
note_on channel=0 note=55 velocity=0 time=0
note_on channel=0 note=79 velocity=74 time=0
note_on channel=0 note=51 velocity=56 time=0
note_on channel=0 note=79 velocity=0 time=50
note_on channel=0 note=80 velocity=76 time=0
note_on channel=0 note=80 velocity=0 time=14
note_on channel=0 note=81 velocity=78 time=0
note_on channel=0 note=63 velocity=51 time=0
note_on channel=0 note=81 velocity=0 time=60
note_on channel=0 note=82 velocity=78 time=0
note_on channel=0 note=82 velocity=0 time=0
note_on channel=0 note=63 velocity=0 time=0
note_on channel=0 note=51 velocity=0 time=0
note_on channel=0 note=70 velocity=53 time=0
note_on channel=0 note=53 velocity=35 time=0
control_change channel=0 control=64 value=0 time=11
note_on channel=0 note=70 velocity=0 time=37
note_on channel=0 note=72 velocity=48 time=0
control_change channel=0 control=64 value=127 time=18
note_on channel=0 note=72 velocity=0 time=30
note_on channel=0 note=70 velocity=45 time=0
note_on channel=0 note=62 velocity=29 time=24
note_on channel=0 note=70 velocity=0 time=24
note_on channel=0 note=69 velocity=45 time=0
note_on channel=0 note=69 velocity=0 time=48
note_on channel=0 note=70 velocity=45 time=0
note_on channel=0 note=53 velocity=0 time=38
note_on channel=0 note=70 velocity=0 time=10
note_on channel=0 note=62 velocity=0 time=0
note_on channel=0 note=63 velocity=42 time=0
note_on channel=0 note=74 velocity=52 time=0
note_on channel=0 note=53 velocity=35 time=0
control_change channel=0 control=64 value=0 time=8
control_change channel=0 control=64 value=127 time=38
note_on channel=0 note=57 velocity=29 time=0
note_on channel=0 note=74 velocity=0 time=60
note_on channel=0 note=72 velocity=41 time=0
note_on channel=0 note=72 velocity=0 time=60
note_on channel=0 note=57 velocity=0 time=0
note_on channel=0 note=53 velocity=0 time=0
note_on channel=0 note=63 velocity=0 time=0
note_on channel=0 note=62 velocity=42 time=0
note_on channel=0 note=70 velocity=50 time=0
note_on channel=0 note=46 velocity=33 time=0
note_on channel=0 note=58 velocity=39 time=0
control_change channel=0 control=64 value=0 time=0
note_on channel=0 note=58 velocity=0 time=221
note_on channel=0 note=62 velocity=0 time=0
note_on channel=0 note=70 velocity=0 time=0
note_on channel=0 note=46 velocity=0 time=0
note_on channel=0 note=53 velocity=79 time=0
note_on channel=0 note=61 velocity=96 time=0
note_on channel=0 note=46 velocity=59 time=0
note_on channel=0 note=49 velocity=71 time=0
control_change channel=0 control=64 value=127 time=138
note_on channel=0 note=49 velocity=0 time=0
note_on channel=0 note=53 velocity=0 time=0
note_on channel=0 note=61 velocity=0 time=0
note_on channel=0 note=46 velocity=0 time=0
note_on channel=0 note=54 velocity=85 time=0
note_on channel=0 note=59 velocity=96 time=0
note_on channel=0 note=39 velocity=53 time=0
note_on channel=0 note=47 velocity=64 time=0
control_change channel=0 control=64 value=0 time=0
control_change channel=0 control=64 value=127 time=51
note_on channel=0 note=47 velocity=0 time=265
note_on channel=0 note=59 velocity=0 time=0
note_on channel=0 note=61 velocity=70 time=0
note_on channel=0 note=49 velocity=64 time=0
note_on channel=0 note=49 velocity=0 time=60
note_on channel=0 note=61 velocity=0 time=0
note_on channel=0 note=63 velocity=71 time=0
note_on channel=0 note=51 velocity=64 time=0
note_on channel=0 note=51 velocity=0 time=0
note_on channel=0 note=63 velocity=0 time=0
note_on channel=0 note=54 velocity=0 time=0
note_on channel=0 note=54 velocity=81 time=0
note_on channel=0 note=42 velocity=58 time=0
control_change channel=0 control=64 value=0 time=8
control_change channel=0 control=64 value=127 time=44
note_on channel=0 note=42 velocity=0 time=0
note_on channel=0 note=54 velocity=0 time=0
note_on channel=0 note=39 velocity=0 time=0
note_on channel=0 note=51 velocity=64 time=0
note_on channel=0 note=57 velocity=77 time=0
note_on channel=0 note=41 velocity=48 time=0
note_on channel=0 note=45 velocity=58 time=0
control_change channel=0 control=64 value=0 time=8
control_change channel=0 control=64 value=127 time=38
note_on channel=0 note=45 velocity=0 time=0
note_on channel=0 note=51 velocity=0 time=0
note_on channel=0 note=57 velocity=0 time=0
note_on channel=0 note=41 velocity=0 time=0
note_on channel=0 note=49 velocity=67 time=0
note_on channel=0 note=58 velocity=79 time=0
note_on channel=0 note=34 velocity=59 time=0
note_on channel=0 note=46 velocity=71 time=0
control_change channel=0 control=64 value=0 time=0
control_change channel=0 control=64 value=127 time=120
note_on channel=0 note=58 velocity=0 time=0
note_on channel=0 note=53 velocity=65 time=0
note_on channel=0 note=53 velocity=0 time=120
note_on channel=0 note=46 velocity=0 time=0
note_on channel=0 note=34 velocity=0 time=0
control_change channel=0 control=64 value=0 time=0
note_on channel=0 note=49 velocity=0 time=0
note_on channel=0 note=53 velocity=79 time=0
note_on channel=0 note=61 velocity=96 time=0
note_on channel=0 note=46 velocity=59 time=0
note_on channel=0 note=49 velocity=71 time=0
note_on channel=0 note=49 velocity=0 time=0
note_on channel=0 note=53 velocity=0 time=0
note_on channel=0 note=61 velocity=0 time=0
note_on channel=0 note=46 velocity=0 time=0
note_on channel=0 note=55 velocity=96 time=0
note_on channel=0 note=60 velocity=96 time=0
note_on channel=0 note=40 velocity=71 time=0
note_on channel=0 note=48 velocity=71 time=0
note_on channel=0 note=48 velocity=0 time=480
note_on channel=0 note=55 velocity=0 time=0
note_on channel=0 note=60 velocity=0 time=0
note_on channel=0 note=40 velocity=0 time=0
note_on channel=0 note=60 velocity=96 time=0
note_on channel=0 note=70 velocity=96 time=0
note_on channel=0 note=52 velocity=71 time=0
note_on channel=0 note=55 velocity=71 time=0
note_on channel=0 note=55 velocity=0 time=0
note_on channel=0 note=60 velocity=0 time=0
note_on channel=0 note=70 velocity=0 time=0
note_on channel=0 note=52 velocity=0 time=0
note_on channel=0 note=60 velocity=81 time=0
note_on channel=0 note=68 velocity=96 time=0
note_on channel=0 note=53 velocity=59 time=0
note_on channel=0 note=56 velocity=71 time=0
note_on channel=0 note=56 velocity=0 time=120
note_on channel=0 note=60 velocity=0 time=0
note_on channel=0 note=68 velocity=0 time=0
note_on channel=0 note=53 velocity=0 time=0
note_on channel=0 note=65 velocity=86 time=60
note_on channel=0 note=68 velocity=86 time=0
note_on channel=0 note=77 velocity=102 time=0
note_on channel=0 note=47 velocity=64 time=0
note_on channel=0 note=59 velocity=76 time=0
note_on channel=0 note=59 velocity=0 time=120
note_on channel=0 note=47 velocity=0 time=0
note_on channel=0 note=48 velocity=59 time=120
note_on channel=0 note=60 velocity=71 time=0
note_on channel=0 note=60 velocity=0 time=120
note_on channel=0 note=48 velocity=0 time=0
note_on channel=0 note=77 velocity=0 time=0
note_on channel=0 note=68 velocity=0 time=0
note_on channel=0 note=65 velocity=0 time=0
note_on channel=0 note=64 velocity=81 time=0
note_on channel=0 note=67 velocity=81 time=0
note_on channel=0 note=76 velocity=96 time=0
note_on channel=0 note=36 velocity=59 time=0
note_on channel=0 note=48 velocity=71 time=0
note_on channel=0 note=48 velocity=0 time=120
note_on channel=0 note=76 velocity=0 time=0
note_on channel=0 note=64 velocity=0 time=0
note_on channel=0 note=67 velocity=0 time=0
note_on channel=0 note=36 velocity=0 time=0
note_on channel=0 note=65 velocity=86 time=0
note_on channel=0 note=68 velocity=86 time=0
note_on channel=0 note=77 velocity=102 time=0
note_on channel=0 note=41 velocity=70 time=0
note_on channel=0 note=53 velocity=82 time=0
control_change channel=0 control=64 value=0 time=0
note_on channel=0 note=53 velocity=0 time=0
note_on channel=0 note=77 velocity=0 time=0
note_on channel=0 note=65 velocity=0 time=0
note_on channel=0 note=68 velocity=0 time=0
note_on channel=0 note=41 velocity=0 time=0
note_on channel=0 note=60 velocity=36 time=0
note_on channel=0 note=40 velocity=30 time=0
note_on channel=0 note=43 velocity=36 time=0
note_on channel=0 note=43 velocity=0 time=60
note_on channel=0 note=40 velocity=0 time=0
note_on channel=0 note=58 velocity=31 time=0
note_on channel=0 note=60 velocity=0 time=6
note_on channel=0 note=58 velocity=0 time=54
note_on channel=0 note=60 velocity=36 time=0
note_on channel=0 note=41 velocity=30 time=0
note_on channel=0 note=44 velocity=36 time=0
note_on channel=0 note=44 velocity=0 time=60
note_on channel=0 note=41 velocity=0 time=0
note_on channel=0 note=56 velocity=32 time=0
note_on channel=0 note=60 velocity=0 time=6
note_on channel=0 note=56 velocity=0 time=0
note_on channel=0 note=60 velocity=36 time=0
note_on channel=0 note=43 velocity=30 time=0
note_on channel=0 note=46 velocity=36 time=0
note_on channel=0 note=46 velocity=0 time=60
note_on channel=0 note=43 velocity=0 time=0
note_on channel=0 note=55 velocity=31 time=0
note_on channel=0 note=60 velocity=0 time=6
note_on channel=0 note=55 velocity=0 time=54
note_on channel=0 note=60 velocity=42 time=0
note_on channel=0 note=44 velocity=34 time=0
note_on channel=0 note=48 velocity=40 time=0
note_on channel=0 note=48 velocity=0 time=60
note_on channel=0 note=44 velocity=0 time=0
note_on channel=0 note=53 velocity=31 time=0
note_on channel=0 note=60 velocity=0 time=6
note_on channel=0 note=53 velocity=0 time=54
note_on channel=0 note=60 velocity=36 time=0
note_on channel=0 note=46 velocity=29 time=0
note_on channel=0 note=49 velocity=35 time=0
note_on channel=0 note=49 velocity=0 time=60
note_on channel=0 note=46 velocity=0 time=0
note_on channel=0 note=52 velocity=31 time=0
note_on channel=0 note=60 velocity=0 time=6
note_on channel=0 note=52 velocity=0 time=54
note_on channel=0 note=60 velocity=36 time=0
note_on channel=0 note=44 velocity=29 time=0
note_on channel=0 note=48 velocity=35 time=0
note_on channel=0 note=48 velocity=0 time=60
note_on channel=0 note=44 velocity=0 time=0
note_on channel=0 note=53 velocity=30 time=0
note_on channel=0 note=60 velocity=0 time=6
note_on channel=0 note=53 velocity=0 time=0
note_on channel=0 note=60 velocity=36 time=0
note_on channel=0 note=43 velocity=29 time=0
note_on channel=0 note=46 velocity=35 time=0
note_on channel=0 note=46 velocity=0 time=60
note_on channel=0 note=43 velocity=0 time=0
note_on channel=0 note=55 velocity=31 time=0
note_on channel=0 note=60 velocity=0 time=6
note_on channel=0 note=55 velocity=0 time=0
note_on channel=0 note=60 velocity=45 time=0
note_on channel=0 note=41 velocity=34 time=0
note_on channel=0 note=44 velocity=40 time=0
note_on channel=0 note=44 velocity=0 time=60
note_on channel=0 note=41 velocity=0 time=0
note_on channel=0 note=56 velocity=31 time=0
note_on channel=0 note=60 velocity=0 time=6
note_on channel=0 note=56 velocity=0 time=0
note_on channel=0 note=65 velocity=36 time=0
note_on channel=0 note=45 velocity=30 time=0
note_on channel=0 note=48 velocity=36 time=0
note_on channel=0 note=48 velocity=0 time=60
note_on channel=0 note=45 velocity=0 time=0
note_on channel=0 note=63 velocity=31 time=0
note_on channel=0 note=65 velocity=0 time=6
note_on channel=0 note=63 velocity=0 time=54
note_on channel=0 note=65 velocity=36 time=0
note_on channel=0 note=46 velocity=30 time=0
note_on channel=0 note=49 velocity=36 time=0
note_on channel=0 note=49 velocity=0 time=60
note_on channel=0 note=46 velocity=0 time=0
note_on channel=0 note=61 velocity=32 time=0
note_on channel=0 note=65 velocity=0 time=6
note_on channel=0 note=61 velocity=0 time=54
note_on channel=0 note=65 velocity=36 time=0
note_on channel=0 note=51 velocity=36 time=0
note_on channel=0 note=48 velocity=30 time=0
note_on channel=0 note=48 velocity=0 time=60
note_on channel=0 note=51 velocity=0 time=0
note_on channel=0 note=60 velocity=31 time=0
note_on channel=0 note=65 velocity=0 time=6
note_on channel=0 note=60 velocity=0 time=54
note_on channel=0 note=65 velocity=42 time=0
note_on channel=0 note=53 velocity=40 time=0
note_on channel=0 note=49 velocity=34 time=0
note_on channel=0 note=49 velocity=0 time=60
note_on channel=0 note=53 velocity=0 time=0
note_on channel=0 note=58 velocity=31 time=0
note_on channel=0 note=65 velocity=0 time=6
note_on channel=0 note=58 velocity=0 time=54
note_on channel=0 note=65 velocity=36 time=0
note_on channel=0 note=51 velocity=30 time=0
note_on channel=0 note=54 velocity=36 time=0
note_on channel=0 note=54 velocity=0 time=60
note_on channel=0 note=51 velocity=0 time=0
note_on channel=0 note=57 velocity=31 time=0
note_on channel=0 note=65 velocity=0 time=6
note_on channel=0 note=57 velocity=0 time=54
note_on channel=0 note=65 velocity=36 time=0
note_on channel=0 note=49 velocity=30 time=0
note_on channel=0 note=53 velocity=36 time=0
note_on channel=0 note=53 velocity=0 time=60
note_on channel=0 note=49 velocity=0 time=0
note_on channel=0 note=58 velocity=30 time=0
note_on channel=0 note=65 velocity=0 time=6
note_on channel=0 note=58 velocity=0 time=0
note_on channel=0 note=65 velocity=36 time=0
note_on channel=0 note=48 velocity=30 time=0
note_on channel=0 note=51 velocity=36 time=0
note_on channel=0 note=51 velocity=0 time=60
note_on channel=0 note=48 velocity=0 time=0
note_on channel=0 note=60 velocity=31 time=0
note_on channel=0 note=65 velocity=0 time=6
note_on channel=0 note=60 velocity=0 time=0
note_on channel=0 note=65 velocity=49 time=0
note_on channel=0 note=46 velocity=38 time=0
note_on channel=0 note=49 velocity=45 time=0
note_on channel=0 note=49 velocity=0 time=60
note_on channel=0 note=46 velocity=0 time=0
note_on channel=0 note=61 velocity=34 time=0
note_on channel=0 note=65 velocity=0 time=6
note_on channel=0 note=61 velocity=0 time=0
note_on channel=0 note=65 velocity=39 time=0
note_on channel=0 note=46 velocity=30 time=0
note_on channel=0 note=49 velocity=36 time=0
note_on channel=0 note=49 velocity=0 time=60
note_on channel=0 note=46 velocity=0 time=0
note_on channel=0 note=61 velocity=34 time=0
note_on channel=0 note=65 velocity=0 time=6
note_on channel=0 note=61 velocity=0 time=54
note_on channel=0 note=67 velocity=39 time=0
note_on channel=0 note=47 velocity=30 time=0
note_on channel=0 note=50 velocity=36 time=0
note_on channel=0 note=50 velocity=0 time=60
note_on channel=0 note=47 velocity=0 time=0
note_on channel=0 note=65 velocity=35 time=0
note_on channel=0 note=67 velocity=0 time=6
note_on channel=0 note=65 velocity=0 time=54
note_on channel=0 note=67 velocity=39 time=0
note_on channel=0 note=47 velocity=30 time=0
note_on channel=0 note=50 velocity=36 time=0
note_on channel=0 note=50 velocity=0 time=60
note_on channel=0 note=47 velocity=0 time=0
note_on channel=0 note=65 velocity=34 time=0
note_on channel=0 note=67 velocity=0 time=6
note_on channel=0 note=65 velocity=0 time=54
note_on channel=0 note=68 velocity=46 time=0
note_on channel=0 note=48 velocity=39 time=0
note_on channel=0 note=53 velocity=47 time=0
note_on channel=0 note=53 velocity=0 time=60
note_on channel=0 note=48 velocity=0 time=0
note_on channel=0 note=65 velocity=34 time=0
note_on channel=0 note=68 velocity=0 time=6
note_on channel=0 note=65 velocity=0 time=54
note_on channel=0 note=68 velocity=39 time=0
note_on channel=0 note=48 velocity=32 time=0
note_on channel=0 note=53 velocity=38 time=0
note_on channel=0 note=53 velocity=0 time=60
note_on channel=0 note=48 velocity=0 time=0
note_on channel=0 note=65 velocity=34 time=0
note_on channel=0 note=68 velocity=0 time=6
note_on channel=0 note=65 velocity=0 time=54
note_on channel=0 note=70 velocity=39 time=0
note_on channel=0 note=48 velocity=32 time=0
note_on channel=0 note=55 velocity=38 time=0
note_on channel=0 note=55 velocity=0 time=60
note_on channel=0 note=48 velocity=0 time=0
note_on channel=0 note=64 velocity=33 time=0
note_on channel=0 note=70 velocity=0 time=6
note_on channel=0 note=64 velocity=0 time=0
note_on channel=0 note=70 velocity=39 time=0
note_on channel=0 note=48 velocity=32 time=0
note_on channel=0 note=55 velocity=38 time=0
note_on channel=0 note=55 velocity=0 time=60
note_on channel=0 note=48 velocity=0 time=0
note_on channel=0 note=64 velocity=34 time=0
note_on channel=0 note=70 velocity=0 time=6
note_on channel=0 note=64 velocity=0 time=0
note_on channel=0 note=65 velocity=78 time=0
note_on channel=0 note=53 velocity=61 time=0
note_on channel=0 note=56 velocity=72 time=0
control_change channel=0 control=64 value=0 time=0
note_on channel=0 note=56 velocity=0 time=0
note_on channel=0 note=53 velocity=0 time=0
note_on channel=0 note=65 velocity=0 time=0
note_on channel=0 note=60 velocity=36 time=0
note_on channel=0 note=72 velocity=42 time=0
note_on channel=0 note=40 velocity=36 time=0
note_on channel=0 note=52 velocity=42 time=0
note_on channel=0 note=52 velocity=0 time=60
note_on channel=0 note=40 velocity=0 time=0
note_on channel=0 note=60 velocity=0 time=0
note_on channel=0 note=70 velocity=37 time=0
note_on channel=0 note=72 velocity=0 time=6
note_on channel=0 note=70 velocity=0 time=54
note_on channel=0 note=60 velocity=36 time=0
note_on channel=0 note=72 velocity=43 time=0
note_on channel=0 note=41 velocity=36 time=0
note_on channel=0 note=53 velocity=43 time=0
note_on channel=0 note=53 velocity=0 time=60
note_on channel=0 note=41 velocity=0 time=0
note_on channel=0 note=60 velocity=0 time=0
note_on channel=0 note=68 velocity=39 time=0
note_on channel=0 note=72 velocity=0 time=6
note_on channel=0 note=68 velocity=0 time=54
note_on channel=0 note=60 velocity=36 time=0
note_on channel=0 note=72 velocity=44 time=0
note_on channel=0 note=43 velocity=36 time=0
note_on channel=0 note=55 velocity=44 time=0
note_on channel=0 note=55 velocity=0 time=60
note_on channel=0 note=43 velocity=0 time=0
note_on channel=0 note=60 velocity=0 time=0
note_on channel=0 note=67 velocity=39 time=0
note_on channel=0 note=72 velocity=0 time=6
note_on channel=0 note=67 velocity=0 time=54
note_on channel=0 note=60 velocity=44 time=0
note_on channel=0 note=72 velocity=53 time=0
note_on channel=0 note=44 velocity=42 time=0
note_on channel=0 note=56 velocity=50 time=0
note_on channel=0 note=56 velocity=0 time=60
note_on channel=0 note=44 velocity=0 time=0
note_on channel=0 note=60 velocity=0 time=0
note_on channel=0 note=65 velocity=39 time=0
note_on channel=0 note=72 velocity=0 time=6
note_on channel=0 note=65 velocity=0 time=54
note_on channel=0 note=60 velocity=38 time=0
note_on channel=0 note=72 velocity=46 time=0
note_on channel=0 note=46 velocity=37 time=0
note_on channel=0 note=58 velocity=45 time=0
note_on channel=0 note=58 velocity=0 time=60
note_on channel=0 note=46 velocity=0 time=0
note_on channel=0 note=60 velocity=0 time=0
note_on channel=0 note=64 velocity=39 time=0
note_on channel=0 note=72 velocity=0 time=6
note_on channel=0 note=64 velocity=0 time=54
note_on channel=0 note=60 velocity=39 time=0
note_on channel=0 note=72 velocity=47 time=0
note_on channel=0 note=44 velocity=37 time=0
note_on channel=0 note=56 velocity=46 time=0
note_on channel=0 note=56 velocity=0 time=60
note_on channel=0 note=44 velocity=0 time=0
note_on channel=0 note=60 velocity=0 time=0
note_on channel=0 note=65 velocity=40 time=0
note_on channel=0 note=72 velocity=0 time=6
note_on channel=0 note=65 velocity=0 time=0
note_on channel=0 note=60 velocity=40 time=0
note_on channel=0 note=72 velocity=48 time=0
note_on channel=0 note=43 velocity=37 time=0
note_on channel=0 note=55 velocity=46 time=0
note_on channel=0 note=55 velocity=0 time=60
note_on channel=0 note=43 velocity=0 time=0
note_on channel=0 note=60 velocity=0 time=0
note_on channel=0 note=67 velocity=41 time=0
note_on channel=0 note=72 velocity=0 time=6
note_on channel=0 note=67 velocity=0 time=0
note_on channel=0 note=60 velocity=52 time=0
note_on channel=0 note=72 velocity=61 time=0
note_on channel=0 note=41 velocity=46 time=0
note_on channel=0 note=53 velocity=54 time=0
control_change channel=0 control=64 value=127 time=17
note_on channel=0 note=53 velocity=0 time=43
note_on channel=0 note=41 velocity=0 time=0
note_on channel=0 note=60 velocity=0 time=0
note_on channel=0 note=68 velocity=42 time=0
note_on channel=0 note=72 velocity=0 time=6
control_change channel=0 control=64 value=0 time=37
note_on channel=0 note=68 velocity=0 time=0
note_on channel=0 note=65 velocity=42 time=0
note_on channel=0 note=77 velocity=50 time=0
note_on channel=0 note=45 velocity=42 time=0
note_on channel=0 note=57 velocity=50 time=0
note_on channel=0 note=57 velocity=0 time=60
note_on channel=0 note=45 velocity=0 time=0
note_on channel=0 note=65 velocity=0 time=0
note_on channel=0 note=75 velocity=43 time=0
note_on channel=0 note=77 velocity=0 time=6
note_on channel=0 note=75 velocity=0 time=54
note_on channel=0 note=65 velocity=42 time=0
note_on channel=0 note=77 velocity=50 time=0
note_on channel=0 note=46 velocity=42 time=0
note_on channel=0 note=58 velocity=50 time=0
control_change channel=0 control=64 value=127 time=29
note_on channel=0 note=58 velocity=0 time=31
note_on channel=0 note=46 velocity=0 time=0
note_on channel=0 note=65 velocity=0 time=0
note_on channel=0 note=73 velocity=46 time=0
note_on channel=0 note=77 velocity=0 time=6
note_on channel=0 note=73 velocity=0 time=54
note_on channel=0 note=65 velocity=42 time=0
note_on channel=0 note=77 velocity=52 time=0
note_on channel=0 note=60 velocity=52 time=0
note_on channel=0 note=48 velocity=42 time=0
control_change channel=0 control=64 value=0 time=5
note_on channel=0 note=48 velocity=0 time=55
note_on channel=0 note=60 velocity=0 time=0
note_on channel=0 note=65 velocity=0 time=0
note_on channel=0 note=72 velocity=45 time=0
note_on channel=0 note=77 velocity=0 time=6
note_on channel=0 note=72 velocity=0 time=54
note_on channel=0 note=65 velocity=51 time=0
note_on channel=0 note=77 velocity=62 time=0
note_on channel=0 note=61 velocity=58 time=0
note_on channel=0 note=49 velocity=50 time=0
note_on channel=0 note=49 velocity=0 time=60
note_on channel=0 note=61 velocity=0 time=0
note_on channel=0 note=65 velocity=0 time=0
note_on channel=0 note=70 velocity=45 time=0
note_on channel=0 note=77 velocity=0 time=6
note_on channel=0 note=70 velocity=0 time=54
note_on channel=0 note=65 velocity=44 time=0
note_on channel=0 note=77 velocity=54 time=0
note_on channel=0 note=51 velocity=44 time=0
note_on channel=0 note=63 velocity=54 time=0
note_on channel=0 note=63 velocity=0 time=60
note_on channel=0 note=51 velocity=0 time=0
note_on channel=0 note=65 velocity=0 time=0
note_on channel=0 note=69 velocity=47 time=0
note_on channel=0 note=77 velocity=0 time=6
note_on channel=0 note=69 velocity=0 time=54
note_on channel=0 note=65 velocity=44 time=0
note_on channel=0 note=77 velocity=54 time=0
note_on channel=0 note=49 velocity=44 time=0
note_on channel=0 note=61 velocity=54 time=0
note_on channel=0 note=61 velocity=0 time=60
note_on channel=0 note=49 velocity=0 time=0
note_on channel=0 note=65 velocity=0 time=0
note_on channel=0 note=70 velocity=46 time=0
note_on channel=0 note=77 velocity=0 time=6
note_on channel=0 note=70 velocity=0 time=0
note_on channel=0 note=65 velocity=46 time=0
note_on channel=0 note=77 velocity=56 time=0
note_on channel=0 note=48 velocity=46 time=0
note_on channel=0 note=60 velocity=56 time=0
note_on channel=0 note=60 velocity=0 time=60
note_on channel=0 note=48 velocity=0 time=0
note_on channel=0 note=65 velocity=0 time=0
note_on channel=0 note=72 velocity=47 time=0
note_on channel=0 note=77 velocity=0 time=6
note_on channel=0 note=72 velocity=0 time=0
note_on channel=0 note=65 velocity=63 time=0
note_on channel=0 note=77 velocity=77 time=0
note_on channel=0 note=46 velocity=60 time=0
note_on channel=0 note=58 velocity=71 time=0
control_change channel=0 control=64 value=127 time=20
note_on channel=0 note=58 velocity=0 time=40
note_on channel=0 note=46 velocity=0 time=0
note_on channel=0 note=65 velocity=0 time=0
note_on channel=0 note=73 velocity=54 time=0
note_on channel=0 note=77 velocity=0 time=6
note_on channel=0 note=73 velocity=0 time=54
note_on channel=0 note=65 velocity=52 time=0
note_on channel=0 note=77 velocity=62 time=0
note_on channel=0 note=58 velocity=48 time=0
note_on channel=0 note=61 velocity=57 time=0
note_on channel=0 note=61 velocity=0 time=60
note_on channel=0 note=58 velocity=0 time=0
note_on channel=0 note=65 velocity=0 time=0
note_on channel=0 note=73 velocity=54 time=0
note_on channel=0 note=77 velocity=0 time=6
note_on channel=0 note=73 velocity=0 time=54
note_on channel=0 note=67 velocity=53 time=0
note_on channel=0 note=79 velocity=63 time=0
note_on channel=0 note=59 velocity=48 time=0
note_on channel=0 note=62 velocity=58 time=0
control_change channel=0 control=64 value=0 time=9
control_change channel=0 control=64 value=127 time=31
note_on channel=0 note=62 velocity=0 time=20
note_on channel=0 note=59 velocity=0 time=0
note_on channel=0 note=67 velocity=0 time=0
note_on channel=0 note=77 velocity=57 time=0
note_on channel=0 note=79 velocity=0 time=6
note_on channel=0 note=77 velocity=0 time=54
note_on channel=0 note=67 velocity=53 time=0
note_on channel=0 note=79 velocity=63 time=0
note_on channel=0 note=59 velocity=48 time=0
note_on channel=0 note=62 velocity=58 time=0
note_on channel=0 note=62 velocity=0 time=60
note_on channel=0 note=59 velocity=0 time=0
note_on channel=0 note=67 velocity=0 time=0
note_on channel=0 note=77 velocity=56 time=0
note_on channel=0 note=79 velocity=0 time=6
note_on channel=0 note=77 velocity=0 time=0
note_on channel=0 note=68 velocity=65 time=0
note_on channel=0 note=80 velocity=76 time=0
note_on channel=0 note=60 velocity=65 time=0
note_on channel=0 note=65 velocity=78 time=0
control_change channel=0 control=64 value=0 time=9
control_change channel=0 control=64 value=127 time=48
note_on channel=0 note=65 velocity=0 time=3
note_on channel=0 note=60 velocity=0 time=0
note_on channel=0 note=68 velocity=0 time=0
note_on channel=0 note=77 velocity=57 time=0
note_on channel=0 note=80 velocity=0 time=6
note_on channel=0 note=77 velocity=0 time=54
note_on channel=0 note=68 velocity=55 time=0
note_on channel=0 note=80 velocity=67 time=0
note_on channel=0 note=60 velocity=54 time=0
note_on channel=0 note=65 velocity=64 time=0
note_on channel=0 note=65 velocity=0 time=60
note_on channel=0 note=60 velocity=0 time=0
note_on channel=0 note=68 velocity=0 time=0
note_on channel=0 note=77 velocity=58 time=0
note_on channel=0 note=80 velocity=0 time=6
note_on channel=0 note=77 velocity=0 time=0
note_on channel=0 note=70 velocity=57 time=0
note_on channel=0 note=82 velocity=67 time=0
note_on channel=0 note=60 velocity=55 time=0
note_on channel=0 note=67 velocity=66 time=0
control_change channel=0 control=64 value=0 time=5
control_change channel=0 control=64 value=127 time=35
note_on channel=0 note=67 velocity=0 time=20
note_on channel=0 note=60 velocity=0 time=0
note_on channel=0 note=70 velocity=0 time=0
note_on channel=0 note=76 velocity=57 time=0
note_on channel=0 note=82 velocity=0 time=6
note_on channel=0 note=76 velocity=0 time=0
note_on channel=0 note=70 velocity=58 time=0
note_on channel=0 note=82 velocity=68 time=0
note_on channel=0 note=60 velocity=56 time=0
note_on channel=0 note=67 velocity=67 time=0
note_on channel=0 note=67 velocity=0 time=60
note_on channel=0 note=60 velocity=0 time=0
note_on channel=0 note=70 velocity=0 time=0
note_on channel=0 note=76 velocity=60 time=0
note_on channel=0 note=82 velocity=0 time=6
note_on channel=0 note=76 velocity=0 time=0
note_on channel=0 note=77 velocity=94 time=0
note_on channel=0 note=53 velocity=53 time=0
note_on channel=0 note=56 velocity=53 time=0
note_on channel=0 note=60 velocity=53 time=0
note_on channel=0 note=65 velocity=63 time=0
control_change channel=0 control=64 value=0 time=0
note_on channel=0 note=65 velocity=0 time=60
note_on channel=0 note=56 velocity=0 time=0
note_on channel=0 note=60 velocity=0 time=0
note_on channel=0 note=53 velocity=0 time=0
note_on channel=0 note=77 velocity=0 time=0
note_on channel=0 note=89 velocity=93 time=0
note_on channel=0 note=53 velocity=53 time=0
note_on channel=0 note=56 velocity=53 time=0
note_on channel=0 note=60 velocity=53 time=0
note_on channel=0 note=65 velocity=63 time=0
note_on channel=0 note=65 velocity=0 time=60
note_on channel=0 note=56 velocity=0 time=0
note_on channel=0 note=60 velocity=0 time=0
note_on channel=0 note=53 velocity=0 time=0
note_on channel=0 note=53 velocity=47 time=0
note_on channel=0 note=56 velocity=47 time=0
note_on channel=0 note=60 velocity=47 time=0
note_on channel=0 note=65 velocity=56 time=0
note_on channel=0 note=65 velocity=0 time=60
note_on channel=0 note=56 velocity=0 time=0
note_on channel=0 note=60 velocity=0 time=0
note_on channel=0 note=53 velocity=0 time=0
note_on channel=0 note=89 velocity=0 time=60
note_on channel=0 note=89 velocity=89 time=0
note_on channel=0 note=53 velocity=47 time=0
note_on channel=0 note=56 velocity=47 time=0
note_on channel=0 note=60 velocity=47 time=0
note_on channel=0 note=65 velocity=56 time=0
note_on channel=0 note=65 velocity=0 time=60
note_on channel=0 note=56 velocity=0 time=0
note_on channel=0 note=60 velocity=0 time=0
note_on channel=0 note=53 velocity=0 time=0
note_on channel=0 note=89 velocity=0 time=0
note_on channel=0 note=88 velocity=90 time=0
note_on channel=0 note=53 velocity=49 time=0
note_on channel=0 note=55 velocity=49 time=0
note_on channel=0 note=58 velocity=49 time=0
note_on channel=0 note=60 velocity=49 time=0
note_on channel=0 note=64 velocity=59 time=0
control_change channel=0 control=64 value=127 time=42
note_on channel=0 note=64 velocity=0 time=18
note_on channel=0 note=53 velocity=0 time=0
note_on channel=0 note=55 velocity=0 time=0
note_on channel=0 note=88 velocity=0 time=0
note_on channel=0 note=60 velocity=0 time=0
note_on channel=0 note=58 velocity=0 time=0
note_on channel=0 note=85 velocity=73 time=0
note_on channel=0 note=85 velocity=0 time=60
note_on channel=0 note=82 velocity=78 time=0
note_on channel=0 note=53 velocity=42 time=0
note_on channel=0 note=55 velocity=42 time=0
note_on channel=0 note=58 velocity=42 time=0
note_on channel=0 note=60 velocity=42 time=0
note_on channel=0 note=64 velocity=50 time=0
note_on channel=0 note=64 velocity=0 time=60
note_on channel=0 note=53 velocity=0 time=0
note_on channel=0 note=55 velocity=0 time=0
note_on channel=0 note=82 velocity=0 time=0
note_on channel=0 note=60 velocity=0 time=0
note_on channel=0 note=58 velocity=0 time=0
note_on channel=0 note=79 velocity=74 time=0
note_on channel=0 note=79 velocity=0 time=60
note_on channel=0 note=76 velocity=67 time=0
note_on channel=0 note=73 velocity=56 time=0
note_on channel=0 note=53 velocity=42 time=0
note_on channel=0 note=55 velocity=42 time=0
note_on channel=0 note=58 velocity=42 time=0
note_on channel=0 note=60 velocity=42 time=0
note_on channel=0 note=64 velocity=50 time=0
control_change channel=0 control=64 value=0 time=4
control_change channel=0 control=64 value=127 time=29
note_on channel=0 note=64 velocity=0 time=27
note_on channel=0 note=58 velocity=0 time=0
note_on channel=0 note=73 velocity=0 time=0
note_on channel=0 note=53 velocity=0 time=0
note_on channel=0 note=55 velocity=0 time=0
note_on channel=0 note=60 velocity=0 time=0
note_on channel=0 note=72 velocity=61 time=0
note_on channel=0 note=72 velocity=0 time=60
note_on channel=0 note=76 velocity=0 time=0
note_on channel=0 note=76 velocity=61 time=0
note_on channel=0 note=73 velocity=51 time=0
note_on channel=0 note=53 velocity=42 time=0
note_on channel=0 note=55 velocity=42 time=0
note_on channel=0 note=58 velocity=42 time=0
note_on channel=0 note=60 velocity=42 time=0
note_on channel=0 note=64 velocity=50 time=0
note_on channel=0 note=64 velocity=0 time=60
note_on channel=0 note=58 velocity=0 time=0
note_on channel=0 note=73 velocity=0 time=0
note_on channel=0 note=53 velocity=0 time=0
note_on channel=0 note=55 velocity=0 time=0
note_on channel=0 note=60 velocity=0 time=0
note_on channel=0 note=70 velocity=60 time=0
note_on channel=0 note=70 velocity=0 time=0
note_on channel=0 note=76 velocity=0 time=0
note_on channel=0 note=77 velocity=83 time=0
note_on channel=0 note=68 velocity=77 time=0
note_on channel=0 note=41 velocity=53 time=0
note_on channel=0 note=44 velocity=53 time=0
note_on channel=0 note=48 velocity=53 time=0
note_on channel=0 note=53 velocity=63 time=0
control_change channel=0 control=64 value=0 time=0
note_on channel=0 note=53 velocity=0 time=60
note_on channel=0 note=44 velocity=0 time=0
note_on channel=0 note=41 velocity=0 time=0
note_on channel=0 note=48 velocity=0 time=0
note_on channel=0 note=77 velocity=0 time=50
note_on channel=0 note=68 velocity=0 time=0
note_on channel=0 note=77 velocity=93 time=0
note_on channel=0 note=41 velocity=53 time=0
note_on channel=0 note=44 velocity=53 time=0
note_on channel=0 note=48 velocity=53 time=0
note_on channel=0 note=53 velocity=63 time=0
note_on channel=0 note=53 velocity=0 time=60
note_on channel=0 note=44 velocity=0 time=0
note_on channel=0 note=48 velocity=0 time=0
note_on channel=0 note=41 velocity=0 time=0
note_on channel=0 note=41 velocity=47 time=0
note_on channel=0 note=44 velocity=47 time=0
note_on channel=0 note=48 velocity=47 time=0
note_on channel=0 note=53 velocity=56 time=0
note_on channel=0 note=53 velocity=0 time=60
note_on channel=0 note=44 velocity=0 time=0
note_on channel=0 note=48 velocity=0 time=0
note_on channel=0 note=41 velocity=0 time=0
note_on channel=0 note=77 velocity=0 time=60
note_on channel=0 note=77 velocity=89 time=0
note_on channel=0 note=41 velocity=47 time=0
note_on channel=0 note=44 velocity=47 time=0
note_on channel=0 note=48 velocity=47 time=0
note_on channel=0 note=53 velocity=56 time=0
note_on channel=0 note=53 velocity=0 time=60
note_on channel=0 note=44 velocity=0 time=0
note_on channel=0 note=48 velocity=0 time=0
note_on channel=0 note=41 velocity=0 time=0
note_on channel=0 note=77 velocity=0 time=0
note_on channel=0 note=76 velocity=90 time=0
note_on channel=0 note=41 velocity=49 time=0
note_on channel=0 note=43 velocity=49 time=0
note_on channel=0 note=46 velocity=49 time=0
note_on channel=0 note=48 velocity=49 time=0
note_on channel=0 note=52 velocity=59 time=0
control_change channel=0 control=64 value=127 time=42
note_on channel=0 note=52 velocity=0 time=18
note_on channel=0 note=41 velocity=0 time=0
note_on channel=0 note=43 velocity=0 time=0
note_on channel=0 note=76 velocity=0 time=0
note_on channel=0 note=48 velocity=0 time=0
note_on channel=0 note=46 velocity=0 time=0
note_on channel=0 note=73 velocity=75 time=0
note_on channel=0 note=73 velocity=0 time=60
note_on channel=0 note=70 velocity=78 time=0
note_on channel=0 note=41 velocity=42 time=0
note_on channel=0 note=43 velocity=42 time=0
note_on channel=0 note=46 velocity=42 time=0
note_on channel=0 note=48 velocity=42 time=0
note_on channel=0 note=52 velocity=50 time=0
note_on channel=0 note=52 velocity=0 time=60
note_on channel=0 note=41 velocity=0 time=0
note_on channel=0 note=43 velocity=0 time=0
note_on channel=0 note=70 velocity=0 time=0
note_on channel=0 note=48 velocity=0 time=0
note_on channel=0 note=46 velocity=0 time=0
note_on channel=0 note=67 velocity=74 time=0
note_on channel=0 note=67 velocity=0 time=60
note_on channel=0 note=64 velocity=67 time=0
note_on channel=0 note=61 velocity=56 time=0
note_on channel=0 note=41 velocity=42 time=0
note_on channel=0 note=43 velocity=42 time=0
note_on channel=0 note=46 velocity=42 time=0
note_on channel=0 note=48 velocity=42 time=0
note_on channel=0 note=52 velocity=50 time=0
control_change channel=0 control=64 value=0 time=4
control_change channel=0 control=64 value=127 time=29
note_on channel=0 note=52 velocity=0 time=27
note_on channel=0 note=46 velocity=0 time=0
note_on channel=0 note=61 velocity=0 time=0
note_on channel=0 note=41 velocity=0 time=0
note_on channel=0 note=43 velocity=0 time=0
note_on channel=0 note=48 velocity=0 time=0
note_on channel=0 note=60 velocity=61 time=0
note_on channel=0 note=60 velocity=0 time=0
note_on channel=0 note=64 velocity=0 time=0
note_on channel=0 note=64 velocity=61 time=0
note_on channel=0 note=61 velocity=51 time=0
note_on channel=0 note=41 velocity=42 time=0
note_on channel=0 note=43 velocity=42 time=0
note_on channel=0 note=46 velocity=42 time=0
note_on channel=0 note=48 velocity=42 time=0
note_on channel=0 note=52 velocity=50 time=0
note_on channel=0 note=52 velocity=0 time=60
note_on channel=0 note=46 velocity=0 time=0
note_on channel=0 note=61 velocity=0 time=0
note_on channel=0 note=41 velocity=0 time=0
note_on channel=0 note=43 velocity=0 time=0
note_on channel=0 note=48 velocity=0 time=0
note_on channel=0 note=58 velocity=60 time=0
note_on channel=0 note=58 velocity=0 time=0
note_on channel=0 note=64 velocity=0 time=0
note_on channel=0 note=56 velocity=70 time=0
note_on channel=0 note=65 velocity=83 time=0
note_on channel=0 note=41 velocity=51 time=0
note_on channel=0 note=53 velocity=61 time=0
control_change channel=0 control=64 value=0 time=0
note_on channel=0 note=65 velocity=0 time=240
note_on channel=0 note=56 velocity=0 time=0
note_on channel=0 note=41 velocity=0 time=240
note_on channel=0 note=53 velocity=0 time=0
note_on channel=0 note=44 velocity=79 time=0
note_on channel=0 note=44 velocity=0 time=0
note_on channel=0 note=43 velocity=83 time=0
note_on channel=0 note=58 velocity=88 time=0
note_on channel=0 note=43 velocity=0 time=120
note_on channel=0 note=44 velocity=70 time=0
note_on channel=0 note=44 velocity=0 time=60
note_on channel=0 note=46 velocity=70 time=0
note_on channel=0 note=46 velocity=0 time=60
note_on channel=0 note=38 velocity=85 time=0
note_on channel=0 note=38 velocity=0 time=120
note_on channel=0 note=40 velocity=80 time=120
note_on channel=0 note=58 velocity=0 time=60
note_on channel=0 note=61 velocity=71 time=0
note_on channel=0 note=61 velocity=0 time=0
note_on channel=0 note=40 velocity=0 time=0
note_on channel=0 note=60 velocity=71 time=0
note_on channel=0 note=60 velocity=0 time=60
note_on channel=0 note=58 velocity=64 time=0
note_on channel=0 note=58 velocity=0 time=0
note_on channel=0 note=56 velocity=81 time=0
note_on channel=0 note=41 velocity=90 time=0
control_change channel=0 control=64 value=127 time=106
note_on channel=0 note=41 velocity=0 time=14
note_on channel=0 note=56 velocity=0 time=0
note_on channel=0 note=53 velocity=73 time=0
note_on channel=0 note=53 velocity=0 time=0
note_on channel=0 note=49 velocity=79 time=0
control_change channel=0 control=64 value=0 time=21
note_on channel=0 note=49 velocity=0 time=0
note_on channel=0 note=48 velocity=83 time=0
note_on channel=0 note=63 velocity=88 time=0
note_on channel=0 note=48 velocity=0 time=120
note_on channel=0 note=49 velocity=70 time=0
note_on channel=0 note=49 velocity=0 time=60
note_on channel=0 note=51 velocity=70 time=0
note_on channel=0 note=51 velocity=0 time=60
note_on channel=0 note=43 velocity=85 time=0
note_on channel=0 note=43 velocity=0 time=120
note_on channel=0 note=45 velocity=80 time=120
note_on channel=0 note=63 velocity=0 time=60
note_on channel=0 note=66 velocity=71 time=0
note_on channel=0 note=66 velocity=0 time=0
note_on channel=0 note=45 velocity=0 time=0
note_on channel=0 note=65 velocity=71 time=0
note_on channel=0 note=65 velocity=0 time=60
note_on channel=0 note=63 velocity=64 time=0
note_on channel=0 note=63 velocity=0 time=0
note_on channel=0 note=61 velocity=81 time=0
note_on channel=0 note=46 velocity=90 time=0
control_change channel=0 control=64 value=127 time=106
note_on channel=0 note=46 velocity=0 time=14
note_on channel=0 note=61 velocity=0 time=0
note_on channel=0 note=58 velocity=73 time=0
control_change channel=0 control=64 value=0 time=212
note_on channel=0 note=58 velocity=0 time=21
note_on channel=0 note=73 velocity=79 time=0
note_on channel=0 note=73 velocity=0 time=21
note_on channel=0 note=63 velocity=72 time=0
note_on channel=0 note=72 velocity=83 time=0
note_on channel=0 note=72 velocity=0 time=141
note_on channel=0 note=73 velocity=70 time=0
note_on channel=0 note=73 velocity=0 time=60
note_on channel=0 note=75 velocity=70 time=0
note_on channel=0 note=75 velocity=0 time=60
note_on channel=0 note=67 velocity=85 time=0
note_on channel=0 note=53 velocity=80 time=0
note_on channel=0 note=67 velocity=0 time=120
note_on channel=0 note=69 velocity=80 time=120
note_on channel=0 note=63 velocity=0 time=60
note_on channel=0 note=66 velocity=71 time=0
note_on channel=0 note=66 velocity=0 time=21
note_on channel=0 note=69 velocity=0 time=0
note_on channel=0 note=65 velocity=71 time=0
note_on channel=0 note=65 velocity=0 time=60
note_on channel=0 note=63 velocity=64 time=0
note_on channel=0 note=63 velocity=0 time=0
note_on channel=0 note=53 velocity=0 time=0
note_on channel=0 note=61 velocity=81 time=0
note_on channel=0 note=70 velocity=81 time=0
note_on channel=0 note=46 velocity=90 time=0
control_change channel=0 control=64 value=127 time=46
note_on channel=0 note=46 velocity=0 time=0
note_on channel=0 note=61 velocity=0 time=0
note_on channel=0 note=58 velocity=73 time=0
control_change channel=0 control=64 value=0 time=126
note_on channel=0 note=58 velocity=0 time=0
note_on channel=0 note=70 velocity=0 time=0
note_on channel=0 note=78 velocity=79 time=0
note_on channel=0 note=78 velocity=0 time=21
note_on channel=0 note=68 velocity=72 time=0
note_on channel=0 note=77 velocity=83 time=0
note_on channel=0 note=77 velocity=0 time=141
note_on channel=0 note=78 velocity=70 time=0
note_on channel=0 note=78 velocity=0 time=60
note_on channel=0 note=80 velocity=70 time=0
note_on channel=0 note=80 velocity=0 time=60
note_on channel=0 note=72 velocity=85 time=0
note_on channel=0 note=58 velocity=80 time=0
note_on channel=0 note=72 velocity=0 time=120
note_on channel=0 note=74 velocity=80 time=120
note_on channel=0 note=68 velocity=0 time=60
note_on channel=0 note=71 velocity=71 time=0
note_on channel=0 note=71 velocity=0 time=21
note_on channel=0 note=74 velocity=0 time=0
note_on channel=0 note=70 velocity=71 time=0
note_on channel=0 note=70 velocity=0 time=60
note_on channel=0 note=68 velocity=64 time=0
note_on channel=0 note=68 velocity=0 time=0
note_on channel=0 note=58 velocity=0 time=0
note_on channel=0 note=66 velocity=81 time=0
note_on channel=0 note=75 velocity=81 time=0
note_on channel=0 note=51 velocity=90 time=0
control_change channel=0 control=64 value=127 time=46
note_on channel=0 note=51 velocity=0 time=0
note_on channel=0 note=66 velocity=0 time=0
note_on channel=0 note=63 velocity=73 time=0
control_change channel=0 control=64 value=0 time=126
note_on channel=0 note=63 velocity=0 time=0
note_on channel=0 note=75 velocity=0 time=0
note_on channel=0 note=58 velocity=79 time=0
note_on channel=0 note=54 velocity=67 time=0
note_on channel=0 note=54 velocity=0 time=0
note_on channel=0 note=58 velocity=0 time=0
note_on channel=0 note=56 velocity=83 time=0
note_on channel=0 note=53 velocity=70 time=0
control_change channel=0 control=64 value=0 time=0
note_on channel=0 note=83 velocity=93 time=0
note_on channel=0 note=80 velocity=79 time=0
note_on channel=0 note=53 velocity=0 time=120
note_on channel=0 note=56 velocity=0 time=0
note_on channel=0 note=54 velocity=59 time=0
note_on channel=0 note=58 velocity=70 time=0
note_on channel=0 note=56 velocity=59 time=60
note_on channel=0 note=59 velocity=70 time=0
note_on channel=0 note=58 velocity=0 time=6
note_on channel=0 note=54 velocity=0 time=0
note_on channel=0 note=48 velocity=72 time=54
note_on channel=0 note=51 velocity=85 time=0
note_on channel=0 note=56 velocity=0 time=6
note_on channel=0 note=59 velocity=0 time=0
note_on channel=0 note=48 velocity=0 time=114
note_on channel=0 note=51 velocity=0 time=0
note_on channel=0 note=50 velocity=68 time=120
note_on channel=0 note=53 velocity=80 time=0
note_on channel=0 note=53 velocity=0 time=0
note_on channel=0 note=83 velocity=0 time=0
note_on channel=0 note=80 velocity=0 time=0
note_on channel=0 note=50 velocity=0 time=0
note_on channel=0 note=78 velocity=68 time=0
note_on channel=0 note=82 velocity=80 time=0
note_on channel=0 note=77 velocity=62 time=60
note_on channel=0 note=80 velocity=74 time=0
note_on channel=0 note=82 velocity=0 time=6
note_on channel=0 note=78 velocity=0 time=0
note_on channel=0 note=75 velocity=86 time=0
note_on channel=0 note=78 velocity=93 time=0
note_on channel=0 note=54 velocity=83 time=0
note_on channel=0 note=51 velocity=70 time=0
control_change channel=0 control=64 value=0 time=0
note_on channel=0 note=77 velocity=0 time=6
note_on channel=0 note=80 velocity=0 time=0
note_on channel=0 note=78 velocity=0 time=114
note_on channel=0 note=75 velocity=0 time=0
note_on channel=0 note=82 velocity=93 time=0
note_on channel=0 note=78 velocity=79 time=0
note_on channel=0 note=51 velocity=0 time=120
note_on channel=0 note=54 velocity=0 time=0
note_on channel=0 note=53 velocity=59 time=0
note_on channel=0 note=56 velocity=70 time=0
note_on channel=0 note=54 velocity=59 time=60
note_on channel=0 note=58 velocity=70 time=0
note_on channel=0 note=56 velocity=0 time=6
note_on channel=0 note=53 velocity=0 time=0
note_on channel=0 note=46 velocity=72 time=54
note_on channel=0 note=49 velocity=85 time=0
note_on channel=0 note=54 velocity=0 time=6
note_on channel=0 note=58 velocity=0 time=0
note_on channel=0 note=46 velocity=0 time=114
note_on channel=0 note=49 velocity=0 time=0
note_on channel=0 note=48 velocity=68 time=120
note_on channel=0 note=51 velocity=80 time=0
note_on channel=0 note=51 velocity=0 time=0
note_on channel=0 note=82 velocity=0 time=0
note_on channel=0 note=78 velocity=0 time=0
note_on channel=0 note=48 velocity=0 time=0
note_on channel=0 note=77 velocity=68 time=0
note_on channel=0 note=80 velocity=80 time=0
note_on channel=0 note=75 velocity=62 time=60
note_on channel=0 note=78 velocity=74 time=0
note_on channel=0 note=80 velocity=0 time=6
note_on channel=0 note=77 velocity=0 time=0
note_on channel=0 note=77 velocity=91 time=0
note_on channel=0 note=73 velocity=77 time=0
note_on channel=0 note=49 velocity=78 time=0
note_on channel=0 note=53 velocity=83 time=0
control_change channel=0 control=64 value=0 time=0
note_on channel=0 note=75 velocity=0 time=6
note_on channel=0 note=78 velocity=0 time=0
note_on channel=0 note=49 velocity=0 time=114
note_on channel=0 note=53 velocity=0 time=0
note_on channel=0 note=56 velocity=83 time=0
note_on channel=0 note=53 velocity=70 time=0
note_on channel=0 note=73 velocity=0 time=120
note_on channel=0 note=77 velocity=0 time=0
note_on channel=0 note=75 velocity=64 time=0
note_on channel=0 note=78 velocity=77 time=0
note_on channel=0 note=77 velocity=64 time=60
note_on channel=0 note=80 velocity=77 time=0
note_on channel=0 note=78 velocity=0 time=6
note_on channel=0 note=75 velocity=0 time=0
note_on channel=0 note=68 velocity=79 time=54
note_on channel=0 note=72 velocity=93 time=0
note_on channel=0 note=77 velocity=0 time=6
note_on channel=0 note=80 velocity=0 time=0
note_on channel=0 note=68 velocity=0 time=114
note_on channel=0 note=72 velocity=0 time=0
note_on channel=0 note=70 velocity=74 time=120
note_on channel=0 note=73 velocity=88 time=0
note_on channel=0 note=73 velocity=0 time=120
note_on channel=0 note=56 velocity=0 time=0
note_on channel=0 note=53 velocity=0 time=0
note_on channel=0 note=70 velocity=0 time=0
note_on channel=0 note=51 velocity=60 time=0
note_on channel=0 note=54 velocity=71 time=0
note_on channel=0 note=49 velocity=56 time=60
note_on channel=0 note=53 velocity=67 time=0
note_on channel=0 note=54 velocity=0 time=6
note_on channel=0 note=51 velocity=0 time=0
note_on channel=0 note=75 velocity=91 time=0
note_on channel=0 note=72 velocity=77 time=0
note_on channel=0 note=48 velocity=78 time=0
note_on channel=0 note=51 velocity=83 time=0
control_change channel=0 control=64 value=0 time=0
note_on channel=0 note=49 velocity=0 time=6
note_on channel=0 note=53 velocity=0 time=0
note_on channel=0 note=48 velocity=0 time=114
note_on channel=0 note=51 velocity=0 time=0
note_on channel=0 note=66 velocity=83 time=0
note_on channel=0 note=63 velocity=70 time=0
note_on channel=0 note=72 velocity=0 time=120
note_on channel=0 note=75 velocity=0 time=0
note_on channel=0 note=73 velocity=64 time=0
note_on channel=0 note=77 velocity=77 time=0
note_on channel=0 note=75 velocity=64 time=60
note_on channel=0 note=78 velocity=77 time=0
note_on channel=0 note=77 velocity=0 time=6
note_on channel=0 note=73 velocity=0 time=0
note_on channel=0 note=67 velocity=79 time=54
note_on channel=0 note=70 velocity=93 time=0
note_on channel=0 note=75 velocity=0 time=6
note_on channel=0 note=78 velocity=0 time=0
note_on channel=0 note=67 velocity=0 time=114
note_on channel=0 note=70 velocity=0 time=0
note_on channel=0 note=69 velocity=74 time=120
note_on channel=0 note=72 velocity=88 time=0
note_on channel=0 note=72 velocity=0 time=120
note_on channel=0 note=66 velocity=0 time=0
note_on channel=0 note=63 velocity=0 time=0
note_on channel=0 note=69 velocity=0 time=0
note_on channel=0 note=61 velocity=60 time=0
note_on channel=0 note=65 velocity=71 time=0
note_on channel=0 note=60 velocity=56 time=60
note_on channel=0 note=63 velocity=67 time=0
note_on channel=0 note=65 velocity=0 time=6
note_on channel=0 note=61 velocity=0 time=0
note_on channel=0 note=73 velocity=91 time=0
note_on channel=0 note=70 velocity=77 time=0
note_on channel=0 note=61 velocity=83 time=0
note_on channel=0 note=58 velocity=70 time=0
control_change channel=0 control=64 value=0 time=0
note_on channel=0 note=60 velocity=0 time=6
note_on channel=0 note=63 velocity=0 time=0
note_on channel=0 note=61 velocity=0 time=120
note_on channel=0 note=73 velocity=0 time=0
note_on channel=0 note=58 velocity=0 time=0
note_on channel=0 note=75 velocity=77 time=0
note_on channel=0 note=56 velocity=59 time=0
note_on channel=0 note=60 velocity=70 time=0
note_on channel=0 note=75 velocity=0 time=60
note_on channel=0 note=77 velocity=77 time=0
note_on channel=0 note=77 velocity=0 time=0
note_on channel=0 note=60 velocity=0 time=0
note_on channel=0 note=56 velocity=0 time=0
note_on channel=0 note=70 velocity=0 time=0
note_on channel=0 note=78 velocity=91 time=0
note_on channel=0 note=70 velocity=77 time=0
note_on channel=0 note=58 velocity=83 time=0
note_on channel=0 note=54 velocity=70 time=0
note_on channel=0 note=54 velocity=0 time=120
note_on channel=0 note=58 velocity=0 time=0
note_on channel=0 note=78 velocity=0 time=0
note_on channel=0 note=80 velocity=77 time=0
note_on channel=0 note=53 velocity=59 time=0
note_on channel=0 note=56 velocity=70 time=0
note_on channel=0 note=80 velocity=0 time=60
note_on channel=0 note=82 velocity=77 time=0
note_on channel=0 note=82 velocity=0 time=0
note_on channel=0 note=56 velocity=0 time=0
note_on channel=0 note=53 velocity=0 time=0
note_on channel=0 note=70 velocity=0 time=0
note_on channel=0 note=83 velocity=91 time=0
note_on channel=0 note=78 velocity=77 time=0
note_on channel=0 note=54 velocity=83 time=0
note_on channel=0 note=51 velocity=70 time=0
control_change channel=0 control=64 value=127 time=86
note_on channel=0 note=54 velocity=0 time=0
note_on channel=0 note=63 velocity=70 time=0
note_on channel=0 note=83 velocity=0 time=120
note_on channel=0 note=85 velocity=77 time=0
note_on channel=0 note=85 velocity=0 time=60
note_on channel=0 note=87 velocity=77 time=0
note_on channel=0 note=87 velocity=0 time=60
note_on channel=0 note=51 velocity=0 time=0
note_on channel=0 note=78 velocity=0 time=0
note_on channel=0 note=63 velocity=0 time=0
note_on channel=0 note=65 velocity=77 time=0
note_on channel=0 note=70 velocity=91 time=0
note_on channel=0 note=53 velocity=70 time=0
note_on channel=0 note=61 velocity=83 time=0
control_change channel=0 control=64 value=0 time=14
note_on channel=0 note=61 velocity=0 time=106
note_on channel=0 note=65 velocity=0 time=0
note_on channel=0 note=70 velocity=0 time=0
note_on channel=0 note=53 velocity=0 time=0
note_on channel=0 note=63 velocity=74 time=120
note_on channel=0 note=69 velocity=88 time=0
note_on channel=0 note=60 velocity=79 time=0
note_on channel=0 note=53 velocity=67 time=0
note_on channel=0 note=53 velocity=0 time=120
note_on channel=0 note=63 velocity=0 time=0
note_on channel=0 note=69 velocity=0 time=0
note_on channel=0 note=60 velocity=0 time=0
note_on channel=0 note=61 velocity=75 time=0
note_on channel=0 note=70 velocity=90 time=0
note_on channel=0 note=46 velocity=61 time=0
note_on channel=0 note=58 velocity=72 time=0
control_change channel=0 control=64 value=0 time=0
note_on channel=0 note=58 velocity=0 time=0
note_on channel=0 note=61 velocity=0 time=0
note_on channel=0 note=70 velocity=0 time=0
note_on channel=0 note=46 velocity=0 time=0
note_on channel=0 note=65 velocity=36 time=0
note_on channel=0 note=45 velocity=30 time=0
note_on channel=0 note=48 velocity=36 time=0
note_on channel=0 note=48 velocity=0 time=60
note_on channel=0 note=45 velocity=0 time=0
note_on channel=0 note=63 velocity=31 time=0
note_on channel=0 note=65 velocity=0 time=6
note_on channel=0 note=63 velocity=0 time=54
note_on channel=0 note=65 velocity=36 time=0
note_on channel=0 note=46 velocity=30 time=0
note_on channel=0 note=49 velocity=36 time=0
note_on channel=0 note=49 velocity=0 time=60
note_on channel=0 note=46 velocity=0 time=0
note_on channel=0 note=61 velocity=32 time=0
note_on channel=0 note=65 velocity=0 time=6
note_on channel=0 note=61 velocity=0 time=0
note_on channel=0 note=65 velocity=36 time=0
note_on channel=0 note=48 velocity=30 time=0
note_on channel=0 note=51 velocity=36 time=0
note_on channel=0 note=51 velocity=0 time=60
note_on channel=0 note=48 velocity=0 time=0
note_on channel=0 note=60 velocity=31 time=0
note_on channel=0 note=65 velocity=0 time=6
note_on channel=0 note=60 velocity=0 time=54
note_on channel=0 note=65 velocity=42 time=0
note_on channel=0 note=49 velocity=34 time=0
note_on channel=0 note=53 velocity=40 time=0
note_on channel=0 note=53 velocity=0 time=60
note_on channel=0 note=49 velocity=0 time=0
note_on channel=0 note=58 velocity=31 time=0
note_on channel=0 note=65 velocity=0 time=6
note_on channel=0 note=58 velocity=0 time=54
note_on channel=0 note=65 velocity=36 time=0
note_on channel=0 note=51 velocity=29 time=0
note_on channel=0 note=54 velocity=35 time=0
note_on channel=0 note=54 velocity=0 time=60
note_on channel=0 note=51 velocity=0 time=0
note_on channel=0 note=57 velocity=31 time=0
note_on channel=0 note=65 velocity=0 time=6
note_on channel=0 note=57 velocity=0 time=54
note_on channel=0 note=65 velocity=36 time=0
note_on channel=0 note=49 velocity=29 time=0
note_on channel=0 note=53 velocity=35 time=0
note_on channel=0 note=53 velocity=0 time=60
note_on channel=0 note=49 velocity=0 time=0
note_on channel=0 note=58 velocity=30 time=0
note_on channel=0 note=65 velocity=0 time=6
note_on channel=0 note=58 velocity=0 time=0
note_on channel=0 note=65 velocity=36 time=0
note_on channel=0 note=48 velocity=29 time=0
note_on channel=0 note=51 velocity=35 time=0
note_on channel=0 note=51 velocity=0 time=60
note_on channel=0 note=48 velocity=0 time=0
note_on channel=0 note=60 velocity=31 time=0
note_on channel=0 note=65 velocity=0 time=6
note_on channel=0 note=60 velocity=0 time=0
note_on channel=0 note=65 velocity=45 time=0
note_on channel=0 note=46 velocity=34 time=0
note_on channel=0 note=49 velocity=40 time=0
note_on channel=0 note=49 velocity=0 time=60
note_on channel=0 note=46 velocity=0 time=0
note_on channel=0 note=61 velocity=31 time=0
note_on channel=0 note=65 velocity=0 time=6
note_on channel=0 note=61 velocity=0 time=0
note_on channel=0 note=70 velocity=36 time=0
note_on channel=0 note=50 velocity=30 time=0
note_on channel=0 note=53 velocity=36 time=0
note_on channel=0 note=53 velocity=0 time=60
note_on channel=0 note=50 velocity=0 time=0
note_on channel=0 note=68 velocity=31 time=0
note_on channel=0 note=70 velocity=0 time=6
note_on channel=0 note=68 velocity=0 time=54
note_on channel=0 note=70 velocity=36 time=0
note_on channel=0 note=51 velocity=30 time=0
note_on channel=0 note=54 velocity=36 time=0
note_on channel=0 note=54 velocity=0 time=60
note_on channel=0 note=51 velocity=0 time=0
note_on channel=0 note=66 velocity=32 time=0
note_on channel=0 note=70 velocity=0 time=6
note_on channel=0 note=66 velocity=0 time=54
note_on channel=0 note=70 velocity=36 time=0
note_on channel=0 note=56 velocity=36 time=0
note_on channel=0 note=53 velocity=30 time=0
note_on channel=0 note=53 velocity=0 time=60
note_on channel=0 note=56 velocity=0 time=0
note_on channel=0 note=65 velocity=31 time=0
note_on channel=0 note=70 velocity=0 time=6
note_on channel=0 note=65 velocity=0 time=54
note_on channel=0 note=70 velocity=42 time=0
note_on channel=0 note=58 velocity=40 time=0
note_on channel=0 note=54 velocity=34 time=0
note_on channel=0 note=54 velocity=0 time=60
note_on channel=0 note=58 velocity=0 time=0
note_on channel=0 note=63 velocity=31 time=0
note_on channel=0 note=70 velocity=0 time=6
note_on channel=0 note=63 velocity=0 time=54
note_on channel=0 note=70 velocity=36 time=0
note_on channel=0 note=56 velocity=30 time=0
note_on channel=0 note=59 velocity=36 time=0
note_on channel=0 note=59 velocity=0 time=60
note_on channel=0 note=56 velocity=0 time=0
note_on channel=0 note=62 velocity=31 time=0
note_on channel=0 note=70 velocity=0 time=6
note_on channel=0 note=62 velocity=0 time=54
note_on channel=0 note=70 velocity=36 time=0
note_on channel=0 note=54 velocity=30 time=0
note_on channel=0 note=58 velocity=36 time=0
note_on channel=0 note=58 velocity=0 time=60
note_on channel=0 note=54 velocity=0 time=0
note_on channel=0 note=63 velocity=30 time=0
note_on channel=0 note=70 velocity=0 time=6
note_on channel=0 note=63 velocity=0 time=0
note_on channel=0 note=70 velocity=36 time=0
note_on channel=0 note=53 velocity=30 time=0
note_on channel=0 note=56 velocity=36 time=0
note_on channel=0 note=56 velocity=0 time=60
note_on channel=0 note=53 velocity=0 time=0
note_on channel=0 note=65 velocity=31 time=0
note_on channel=0 note=70 velocity=0 time=6
note_on channel=0 note=65 velocity=0 time=0
note_on channel=0 note=70 velocity=49 time=0
note_on channel=0 note=51 velocity=38 time=0
note_on channel=0 note=54 velocity=45 time=0
note_on channel=0 note=54 velocity=0 time=60
note_on channel=0 note=51 velocity=0 time=0
note_on channel=0 note=66 velocity=34 time=0
note_on channel=0 note=70 velocity=0 time=6
note_on channel=0 note=66 velocity=0 time=0
note_on channel=0 note=70 velocity=39 time=0
note_on channel=0 note=51 velocity=30 time=0
note_on channel=0 note=54 velocity=36 time=0
note_on channel=0 note=54 velocity=0 time=60
note_on channel=0 note=51 velocity=0 time=0
note_on channel=0 note=66 velocity=34 time=0
note_on channel=0 note=70 velocity=0 time=6
note_on channel=0 note=66 velocity=0 time=54
note_on channel=0 note=72 velocity=39 time=0
note_on channel=0 note=52 velocity=30 time=0
note_on channel=0 note=55 velocity=36 time=0
note_on channel=0 note=55 velocity=0 time=60
note_on channel=0 note=52 velocity=0 time=0
note_on channel=0 note=70 velocity=35 time=0
note_on channel=0 note=72 velocity=0 time=6
note_on channel=0 note=70 velocity=0 time=54
note_on channel=0 note=72 velocity=39 time=0
note_on channel=0 note=52 velocity=30 time=0
note_on channel=0 note=55 velocity=36 time=0
note_on channel=0 note=55 velocity=0 time=60
note_on channel=0 note=52 velocity=0 time=0
note_on channel=0 note=70 velocity=34 time=0
note_on channel=0 note=72 velocity=0 time=6
note_on channel=0 note=70 velocity=0 time=54
note_on channel=0 note=73 velocity=46 time=0
note_on channel=0 note=53 velocity=39 time=0
note_on channel=0 note=58 velocity=47 time=0
note_on channel=0 note=58 velocity=0 time=60
note_on channel=0 note=53 velocity=0 time=0
note_on channel=0 note=70 velocity=34 time=0
note_on channel=0 note=73 velocity=0 time=6
note_on channel=0 note=70 velocity=0 time=54
note_on channel=0 note=73 velocity=39 time=0
note_on channel=0 note=53 velocity=32 time=0
note_on channel=0 note=58 velocity=38 time=0
note_on channel=0 note=58 velocity=0 time=60
note_on channel=0 note=53 velocity=0 time=0
note_on channel=0 note=70 velocity=34 time=0
note_on channel=0 note=73 velocity=0 time=6
note_on channel=0 note=70 velocity=0 time=54
note_on channel=0 note=75 velocity=39 time=0
note_on channel=0 note=53 velocity=32 time=0
note_on channel=0 note=60 velocity=38 time=0
note_on channel=0 note=60 velocity=0 time=60
note_on channel=0 note=53 velocity=0 time=0
note_on channel=0 note=69 velocity=33 time=0
note_on channel=0 note=75 velocity=0 time=6
note_on channel=0 note=69 velocity=0 time=0
note_on channel=0 note=75 velocity=39 time=0
note_on channel=0 note=53 velocity=32 time=0
note_on channel=0 note=60 velocity=38 time=0
note_on channel=0 note=60 velocity=0 time=60
note_on channel=0 note=53 velocity=0 time=0
note_on channel=0 note=69 velocity=34 time=0
note_on channel=0 note=75 velocity=0 time=6
note_on channel=0 note=69 velocity=0 time=0
note_on channel=0 note=70 velocity=74 time=0
note_on channel=0 note=46 velocity=58 time=0
note_on channel=0 note=58 velocity=69 time=0
control_change channel=0 control=64 value=0 time=0
note_on channel=0 note=58 velocity=0 time=0
note_on channel=0 note=46 velocity=0 time=0
note_on channel=0 note=70 velocity=0 time=0
note_on channel=0 note=77 velocity=48 time=0
note_on channel=0 note=65 velocity=40 time=0
note_on channel=0 note=45 velocity=40 time=0
note_on channel=0 note=57 velocity=48 time=0
note_on channel=0 note=57 velocity=0 time=60
note_on channel=0 note=45 velocity=0 time=0
note_on channel=0 note=65 velocity=0 time=0
note_on channel=0 note=75 velocity=42 time=0
note_on channel=0 note=77 velocity=0 time=6
note_on channel=0 note=75 velocity=0 time=54
note_on channel=0 note=65 velocity=40 time=0
note_on channel=0 note=77 velocity=48 time=0
note_on channel=0 note=46 velocity=40 time=0
note_on channel=0 note=58 velocity=48 time=0
note_on channel=0 note=58 velocity=0 time=60
note_on channel=0 note=46 velocity=0 time=0
note_on channel=0 note=65 velocity=0 time=0
note_on channel=0 note=73 velocity=43 time=0
note_on channel=0 note=77 velocity=0 time=6
note_on channel=0 note=73 velocity=0 time=54
note_on channel=0 note=65 velocity=40 time=0
note_on channel=0 note=77 velocity=50 time=0
note_on channel=0 note=48 velocity=40 time=0
note_on channel=0 note=60 velocity=50 time=0
note_on channel=0 note=60 velocity=0 time=60
note_on channel=0 note=48 velocity=0 time=0
note_on channel=0 note=65 velocity=0 time=0
note_on channel=0 note=72 velocity=45 time=0
note_on channel=0 note=77 velocity=0 time=6
note_on channel=0 note=72 velocity=0 time=54
note_on channel=0 note=77 velocity=59 time=0
note_on channel=0 note=65 velocity=49 time=0
note_on channel=0 note=49 velocity=48 time=0
note_on channel=0 note=61 velocity=57 time=0
note_on channel=0 note=61 velocity=0 time=60
note_on channel=0 note=49 velocity=0 time=0
note_on channel=0 note=65 velocity=0 time=0
note_on channel=0 note=70 velocity=45 time=0
note_on channel=0 note=77 velocity=0 time=6
note_on channel=0 note=70 velocity=0 time=54
note_on channel=0 note=65 velocity=44 time=0
note_on channel=0 note=77 velocity=54 time=0
note_on channel=0 note=51 velocity=43 time=0
note_on channel=0 note=63 velocity=51 time=0
note_on channel=0 note=63 velocity=0 time=60
note_on channel=0 note=51 velocity=0 time=0
note_on channel=0 note=65 velocity=0 time=0
note_on channel=0 note=69 velocity=45 time=0
note_on channel=0 note=77 velocity=0 time=6
note_on channel=0 note=69 velocity=0 time=54
note_on channel=0 note=65 velocity=44 time=0
note_on channel=0 note=77 velocity=54 time=0
note_on channel=0 note=49 velocity=43 time=0
note_on channel=0 note=61 velocity=53 time=0
note_on channel=0 note=61 velocity=0 time=60
note_on channel=0 note=49 velocity=0 time=0
note_on channel=0 note=65 velocity=0 time=0
note_on channel=0 note=70 velocity=45 time=0
note_on channel=0 note=77 velocity=0 time=6
note_on channel=0 note=70 velocity=0 time=0
note_on channel=0 note=77 velocity=56 time=0
note_on channel=0 note=65 velocity=46 time=0
note_on channel=0 note=48 velocity=43 time=0
note_on channel=0 note=60 velocity=54 time=0
note_on channel=0 note=60 velocity=0 time=60
note_on channel=0 note=48 velocity=0 time=0
note_on channel=0 note=65 velocity=0 time=0
note_on channel=0 note=72 velocity=47 time=0
note_on channel=0 note=77 velocity=0 time=6
note_on channel=0 note=72 velocity=0 time=0
note_on channel=0 note=65 velocity=61 time=0
note_on channel=0 note=77 velocity=72 time=0
note_on channel=0 note=46 velocity=54 time=0
note_on channel=0 note=58 velocity=64 time=0
control_change channel=0 control=64 value=127 time=17
note_on channel=0 note=58 velocity=0 time=43
note_on channel=0 note=46 velocity=0 time=0
note_on channel=0 note=65 velocity=0 time=0
note_on channel=0 note=73 velocity=48 time=0
note_on channel=0 note=77 velocity=0 time=6
control_change channel=0 control=64 value=0 time=37
note_on channel=0 note=73 velocity=0 time=0
note_on channel=0 note=70 velocity=48 time=0
note_on channel=0 note=82 velocity=58 time=0
note_on channel=0 note=50 velocity=48 time=0
note_on channel=0 note=62 velocity=58 time=0
note_on channel=0 note=62 velocity=0 time=60
note_on channel=0 note=50 velocity=0 time=0
note_on channel=0 note=70 velocity=0 time=0
note_on channel=0 note=80 velocity=50 time=0
note_on channel=0 note=82 velocity=0 time=6
note_on channel=0 note=80 velocity=0 time=54
note_on channel=0 note=70 velocity=50 time=0
note_on channel=0 note=82 velocity=59 time=0
note_on channel=0 note=51 velocity=50 time=0
note_on channel=0 note=63 velocity=59 time=0
control_change channel=0 control=64 value=127 time=29
note_on channel=0 note=63 velocity=0 time=31
note_on channel=0 note=51 velocity=0 time=0
note_on channel=0 note=70 velocity=0 time=0
note_on channel=0 note=78 velocity=55 time=0
note_on channel=0 note=82 velocity=0 time=6
note_on channel=0 note=78 velocity=0 time=54
note_on channel=0 note=82 velocity=62 time=0
note_on channel=0 note=70 velocity=50 time=0
note_on channel=0 note=65 velocity=62 time=0
note_on channel=0 note=53 velocity=50 time=0
control_change channel=0 control=64 value=0 time=5
note_on channel=0 note=53 velocity=0 time=55
note_on channel=0 note=65 velocity=0 time=0
note_on channel=0 note=70 velocity=0 time=0
note_on channel=0 note=77 velocity=54 time=0
note_on channel=0 note=82 velocity=0 time=6
note_on channel=0 note=77 velocity=0 time=54
note_on channel=0 note=70 velocity=62 time=0
note_on channel=0 note=82 velocity=73 time=0
note_on channel=0 note=66 velocity=70 time=0
note_on channel=0 note=54 velocity=58 time=0
note_on channel=0 note=54 velocity=0 time=60
note_on channel=0 note=66 velocity=0 time=0
note_on channel=0 note=70 velocity=0 time=0
note_on channel=0 note=75 velocity=54 time=0
note_on channel=0 note=82 velocity=0 time=6
note_on channel=0 note=75 velocity=0 time=54
note_on channel=0 note=82 velocity=66 time=0
note_on channel=0 note=70 velocity=53 time=0
note_on channel=0 note=56 velocity=53 time=0
note_on channel=0 note=68 velocity=66 time=0
note_on channel=0 note=68 velocity=0 time=60
note_on channel=0 note=56 velocity=0 time=0
note_on channel=0 note=70 velocity=0 time=0
note_on channel=0 note=74 velocity=55 time=0
note_on channel=0 note=82 velocity=0 time=6
note_on channel=0 note=74 velocity=0 time=54
note_on channel=0 note=70 velocity=53 time=0
note_on channel=0 note=82 velocity=66 time=0
note_on channel=0 note=54 velocity=53 time=0
note_on channel=0 note=66 velocity=66 time=0
note_on channel=0 note=66 velocity=0 time=60
note_on channel=0 note=54 velocity=0 time=0
note_on channel=0 note=70 velocity=0 time=0
note_on channel=0 note=75 velocity=55 time=0
note_on channel=0 note=82 velocity=0 time=6
note_on channel=0 note=75 velocity=0 time=0
note_on channel=0 note=70 velocity=57 time=0
note_on channel=0 note=82 velocity=69 time=0
note_on channel=0 note=53 velocity=57 time=0
note_on channel=0 note=65 velocity=69 time=0
note_on channel=0 note=65 velocity=0 time=60
note_on channel=0 note=53 velocity=0 time=0
note_on channel=0 note=70 velocity=0 time=0
note_on channel=0 note=77 velocity=58 time=0
note_on channel=0 note=82 velocity=0 time=6
note_on channel=0 note=77 velocity=0 time=0
note_on channel=0 note=82 velocity=86 time=0
note_on channel=0 note=70 velocity=70 time=0
note_on channel=0 note=51 velocity=74 time=0
note_on channel=0 note=63 velocity=88 time=0
control_change channel=0 control=64 value=127 time=20
note_on channel=0 note=63 velocity=0 time=40
note_on channel=0 note=51 velocity=0 time=0
note_on channel=0 note=70 velocity=0 time=0
note_on channel=0 note=78 velocity=66 time=0
note_on channel=0 note=82 velocity=0 time=6
note_on channel=0 note=78 velocity=0 time=54
note_on channel=0 note=70 velocity=63 time=0
note_on channel=0 note=82 velocity=75 time=0
note_on channel=0 note=63 velocity=58 time=0
note_on channel=0 note=66 velocity=69 time=0
note_on channel=0 note=66 velocity=0 time=60
note_on channel=0 note=63 velocity=0 time=0
note_on channel=0 note=70 velocity=0 time=0
note_on channel=0 note=78 velocity=68 time=0
note_on channel=0 note=82 velocity=0 time=6
note_on channel=0 note=78 velocity=0 time=54
note_on channel=0 note=72 velocity=66 time=0
note_on channel=0 note=84 velocity=78 time=0
note_on channel=0 note=64 velocity=60 time=0
note_on channel=0 note=67 velocity=72 time=0
control_change channel=0 control=64 value=0 time=9
control_change channel=0 control=64 value=127 time=31
note_on channel=0 note=67 velocity=0 time=20
note_on channel=0 note=64 velocity=0 time=0
note_on channel=0 note=72 velocity=0 time=0
note_on channel=0 note=82 velocity=71 time=0
note_on channel=0 note=84 velocity=0 time=6
note_on channel=0 note=82 velocity=0 time=54
note_on channel=0 note=84 velocity=78 time=0
note_on channel=0 note=72 velocity=66 time=0
note_on channel=0 note=64 velocity=60 time=0
note_on channel=0 note=67 velocity=72 time=0
note_on channel=0 note=67 velocity=0 time=60
note_on channel=0 note=64 velocity=0 time=0
note_on channel=0 note=72 velocity=0 time=0
note_on channel=0 note=82 velocity=71 time=0
note_on channel=0 note=84 velocity=0 time=6
note_on channel=0 note=82 velocity=0 time=0
note_on channel=0 note=85 velocity=97 time=0
note_on channel=0 note=73 velocity=82 time=0
note_on channel=0 note=65 velocity=73 time=0
note_on channel=0 note=70 velocity=90 time=0
control_change channel=0 control=64 value=0 time=9
control_change channel=0 control=64 value=127 time=48
note_on channel=0 note=70 velocity=0 time=3
note_on channel=0 note=65 velocity=0 time=0
note_on channel=0 note=73 velocity=0 time=0
note_on channel=0 note=82 velocity=71 time=0
note_on channel=0 note=85 velocity=0 time=6
note_on channel=0 note=82 velocity=0 time=54
note_on channel=0 note=73 velocity=69 time=0
note_on channel=0 note=85 velocity=86 time=0
note_on channel=0 note=65 velocity=68 time=0
note_on channel=0 note=70 velocity=81 time=0
note_on channel=0 note=70 velocity=0 time=60
note_on channel=0 note=65 velocity=0 time=0
note_on channel=0 note=73 velocity=0 time=0
note_on channel=0 note=82 velocity=74 time=0
note_on channel=0 note=85 velocity=0 time=6
note_on channel=0 note=82 velocity=0 time=0
note_on channel=0 note=75 velocity=73 time=0
note_on channel=0 note=87 velocity=86 time=0
note_on channel=0 note=65 velocity=70 time=0
note_on channel=0 note=72 velocity=85 time=0
control_change channel=0 control=64 value=0 time=5
control_change channel=0 control=64 value=127 time=35
note_on channel=0 note=72 velocity=0 time=20
note_on channel=0 note=65 velocity=0 time=0
note_on channel=0 note=75 velocity=0 time=0
note_on channel=0 note=81 velocity=73 time=0
note_on channel=0 note=87 velocity=0 time=6
note_on channel=0 note=81 velocity=0 time=0
note_on channel=0 note=87 velocity=87 time=0
note_on channel=0 note=75 velocity=75 time=0
note_on channel=0 note=65 velocity=71 time=0
note_on channel=0 note=72 velocity=86 time=0
note_on channel=0 note=72 velocity=0 time=60
note_on channel=0 note=65 velocity=0 time=0
note_on channel=0 note=75 velocity=0 time=0
note_on channel=0 note=81 velocity=77 time=0
note_on channel=0 note=87 velocity=0 time=6
note_on channel=0 note=81 velocity=0 time=0
note_on channel=0 note=82 velocity=100 time=0
note_on channel=0 note=58 velocity=66 time=0
note_on channel=0 note=61 velocity=66 time=0
note_on channel=0 note=65 velocity=66 time=0
note_on channel=0 note=70 velocity=78 time=0
control_change channel=0 control=64 value=0 time=0
note_on channel=0 note=70 velocity=0 time=60
note_on channel=0 note=61 velocity=0 time=0
note_on channel=0 note=65 velocity=0 time=0
note_on channel=0 note=58 velocity=0 time=0
note_on channel=0 note=82 velocity=0 time=0
note_on channel=0 note=89 velocity=97 time=0
note_on channel=0 note=58 velocity=55 time=0
note_on channel=0 note=61 velocity=55 time=0
note_on channel=0 note=65 velocity=55 time=0
note_on channel=0 note=70 velocity=66 time=0
note_on channel=0 note=70 velocity=0 time=60
note_on channel=0 note=61 velocity=0 time=0
note_on channel=0 note=65 velocity=0 time=0
note_on channel=0 note=58 velocity=0 time=0
note_on channel=0 note=58 velocity=49 time=0
note_on channel=0 note=61 velocity=49 time=0
note_on channel=0 note=65 velocity=49 time=0
note_on channel=0 note=70 velocity=58 time=0
note_on channel=0 note=70 velocity=0 time=60
note_on channel=0 note=61 velocity=0 time=0
note_on channel=0 note=65 velocity=0 time=0
note_on channel=0 note=58 velocity=0 time=0
note_on channel=0 note=89 velocity=0 time=60
note_on channel=0 note=89 velocity=93 time=0
note_on channel=0 note=58 velocity=49 time=0
note_on channel=0 note=61 velocity=49 time=0
note_on channel=0 note=65 velocity=49 time=0
note_on channel=0 note=70 velocity=58 time=0
note_on channel=0 note=70 velocity=0 time=60
note_on channel=0 note=61 velocity=0 time=0
note_on channel=0 note=65 velocity=0 time=0
note_on channel=0 note=58 velocity=0 time=0
note_on channel=0 note=89 velocity=0 time=0
note_on channel=0 note=87 velocity=94 time=0
note_on channel=0 note=58 velocity=51 time=0
note_on channel=0 note=60 velocity=51 time=0
note_on channel=0 note=63 velocity=51 time=0
note_on channel=0 note=65 velocity=51 time=0
note_on channel=0 note=69 velocity=61 time=0
control_change channel=0 control=64 value=127 time=42
note_on channel=0 note=69 velocity=0 time=18
note_on channel=0 note=58 velocity=0 time=0
note_on channel=0 note=60 velocity=0 time=0
note_on channel=0 note=87 velocity=0 time=0
note_on channel=0 note=65 velocity=0 time=0
note_on channel=0 note=63 velocity=0 time=0
note_on channel=0 note=84 velocity=74 time=0
note_on channel=0 note=84 velocity=0 time=60
note_on channel=0 note=81 velocity=81 time=0
note_on channel=0 note=58 velocity=44 time=0
note_on channel=0 note=60 velocity=44 time=0
note_on channel=0 note=63 velocity=44 time=0
note_on channel=0 note=65 velocity=44 time=0
note_on channel=0 note=69 velocity=52 time=0
note_on channel=0 note=69 velocity=0 time=60
note_on channel=0 note=58 velocity=0 time=0
note_on channel=0 note=60 velocity=0 time=0
note_on channel=0 note=81 velocity=0 time=0
note_on channel=0 note=65 velocity=0 time=0
note_on channel=0 note=63 velocity=0 time=0
note_on channel=0 note=77 velocity=77 time=0
note_on channel=0 note=77 velocity=0 time=60
note_on channel=0 note=75 velocity=58 time=0
note_on channel=0 note=58 velocity=44 time=0
note_on channel=0 note=60 velocity=44 time=0
note_on channel=0 note=63 velocity=44 time=0
note_on channel=0 note=65 velocity=44 time=0
note_on channel=0 note=69 velocity=52 time=0
control_change channel=0 control=64 value=0 time=4
control_change channel=0 control=64 value=127 time=29
note_on channel=0 note=69 velocity=0 time=27
note_on channel=0 note=58 velocity=0 time=0
note_on channel=0 note=60 velocity=0 time=0
note_on channel=0 note=75 velocity=0 time=0
note_on channel=0 note=65 velocity=0 time=0
note_on channel=0 note=63 velocity=0 time=0
note_on channel=0 note=74 velocity=64 time=0
note_on channel=0 note=74 velocity=0 time=60
note_on channel=0 note=75 velocity=53 time=0
note_on channel=0 note=58 velocity=44 time=0
note_on channel=0 note=60 velocity=44 time=0
note_on channel=0 note=63 velocity=44 time=0
note_on channel=0 note=65 velocity=44 time=0
note_on channel=0 note=69 velocity=52 time=0
note_on channel=0 note=69 velocity=0 time=60
note_on channel=0 note=58 velocity=0 time=0
note_on channel=0 note=60 velocity=0 time=0
note_on channel=0 note=75 velocity=0 time=0
note_on channel=0 note=65 velocity=0 time=0
note_on channel=0 note=63 velocity=0 time=0
note_on channel=0 note=72 velocity=63 time=0
note_on channel=0 note=72 velocity=0 time=0
note_on channel=0 note=70 velocity=87 time=0
note_on channel=0 note=46 velocity=55 time=0
note_on channel=0 note=49 velocity=55 time=0
note_on channel=0 note=53 velocity=55 time=0
note_on channel=0 note=58 velocity=66 time=0
control_change channel=0 control=64 value=0 time=0
note_on channel=0 note=58 velocity=0 time=60
note_on channel=0 note=49 velocity=0 time=0
note_on channel=0 note=53 velocity=0 time=0
note_on channel=0 note=46 velocity=0 time=0
note_on channel=0 note=70 velocity=0 time=50
note_on channel=0 note=77 velocity=97 time=0
note_on channel=0 note=46 velocity=55 time=0
note_on channel=0 note=49 velocity=55 time=0
note_on channel=0 note=53 velocity=55 time=0
note_on channel=0 note=58 velocity=66 time=0
note_on channel=0 note=58 velocity=0 time=60
note_on channel=0 note=49 velocity=0 time=0
note_on channel=0 note=53 velocity=0 time=0
note_on channel=0 note=46 velocity=0 time=0
note_on channel=0 note=46 velocity=49 time=0
note_on channel=0 note=49 velocity=49 time=0
note_on channel=0 note=53 velocity=49 time=0
note_on channel=0 note=58 velocity=58 time=0
note_on channel=0 note=58 velocity=0 time=60
note_on channel=0 note=49 velocity=0 time=0
note_on channel=0 note=53 velocity=0 time=0
note_on channel=0 note=46 velocity=0 time=0
note_on channel=0 note=77 velocity=0 time=60
note_on channel=0 note=77 velocity=93 time=0
note_on channel=0 note=46 velocity=49 time=0
note_on channel=0 note=49 velocity=49 time=0
note_on channel=0 note=53 velocity=49 time=0
note_on channel=0 note=58 velocity=58 time=0
note_on channel=0 note=58 velocity=0 time=60
note_on channel=0 note=49 velocity=0 time=0
note_on channel=0 note=53 velocity=0 time=0
note_on channel=0 note=46 velocity=0 time=0
note_on channel=0 note=77 velocity=0 time=0
note_on channel=0 note=75 velocity=94 time=0
note_on channel=0 note=46 velocity=51 time=0
note_on channel=0 note=48 velocity=51 time=0
note_on channel=0 note=51 velocity=51 time=0
note_on channel=0 note=53 velocity=51 time=0
note_on channel=0 note=57 velocity=61 time=0
control_change channel=0 control=64 value=127 time=42
note_on channel=0 note=57 velocity=0 time=18
note_on channel=0 note=46 velocity=0 time=0
note_on channel=0 note=48 velocity=0 time=0
note_on channel=0 note=75 velocity=0 time=0
note_on channel=0 note=53 velocity=0 time=0
note_on channel=0 note=51 velocity=0 time=0
note_on channel=0 note=72 velocity=73 time=0
note_on channel=0 note=72 velocity=0 time=60
note_on channel=0 note=69 velocity=81 time=0
note_on channel=0 note=46 velocity=44 time=0
note_on channel=0 note=48 velocity=44 time=0
note_on channel=0 note=51 velocity=44 time=0
note_on channel=0 note=53 velocity=44 time=0
note_on channel=0 note=57 velocity=52 time=0
note_on channel=0 note=57 velocity=0 time=60
note_on channel=0 note=46 velocity=0 time=0
note_on channel=0 note=48 velocity=0 time=0
note_on channel=0 note=69 velocity=0 time=0
note_on channel=0 note=53 velocity=0 time=0
note_on channel=0 note=51 velocity=0 time=0
note_on channel=0 note=65 velocity=74 time=0
note_on channel=0 note=65 velocity=0 time=60
note_on channel=0 note=63 velocity=58 time=0
note_on channel=0 note=46 velocity=44 time=0
note_on channel=0 note=48 velocity=44 time=0
note_on channel=0 note=51 velocity=44 time=0
note_on channel=0 note=53 velocity=44 time=0
note_on channel=0 note=57 velocity=52 time=0
control_change channel=0 control=64 value=0 time=4
control_change channel=0 control=64 value=127 time=29
note_on channel=0 note=57 velocity=0 time=27
note_on channel=0 note=46 velocity=0 time=0
note_on channel=0 note=48 velocity=0 time=0
note_on channel=0 note=63 velocity=0 time=0
note_on channel=0 note=53 velocity=0 time=0
note_on channel=0 note=51 velocity=0 time=0
note_on channel=0 note=62 velocity=64 time=0
note_on channel=0 note=62 velocity=0 time=0
note_on channel=0 note=63 velocity=53 time=0
note_on channel=0 note=46 velocity=44 time=0
note_on channel=0 note=48 velocity=44 time=0
note_on channel=0 note=51 velocity=44 time=0
note_on channel=0 note=53 velocity=44 time=0
note_on channel=0 note=57 velocity=52 time=0
note_on channel=0 note=57 velocity=0 time=60
note_on channel=0 note=46 velocity=0 time=0
note_on channel=0 note=48 velocity=0 time=0
note_on channel=0 note=63 velocity=0 time=0
note_on channel=0 note=53 velocity=0 time=0
note_on channel=0 note=51 velocity=0 time=0
note_on channel=0 note=60 velocity=63 time=0
note_on channel=0 note=60 velocity=0 time=0
note_on channel=0 note=58 velocity=87 time=0
note_on channel=0 note=46 velocity=64 time=0
control_change channel=0 control=64 value=0 time=0
note_on channel=0 note=58 velocity=0 time=240
note_on channel=0 note=46 velocity=0 time=0
note_on channel=0 note=49 velocity=45 time=0
note_on channel=0 note=51 velocity=50 time=0
note_on channel=0 note=49 velocity=0 time=12
note_on channel=0 note=49 velocity=46 time=108
note_on channel=0 note=51 velocity=0 time=12
note_on channel=0 note=47 velocity=50 time=108
control_change channel=0 control=64 value=0 time=0
note_on channel=0 note=49 velocity=0 time=12
note_on channel=0 note=46 velocity=46 time=108
note_on channel=0 note=47 velocity=0 time=12
note_on channel=0 note=44 velocity=46 time=108
note_on channel=0 note=46 velocity=0 time=12
note_on channel=0 note=42 velocity=46 time=108
note_on channel=0 note=44 velocity=0 time=12
note_on channel=0 note=41 velocity=50 time=108
note_on channel=0 note=42 velocity=0 time=12
note_on channel=0 note=41 velocity=0 time=228
note_on channel=0 note=42 velocity=47 time=0
note_on channel=0 note=42 velocity=0 time=0
note_on channel=0 note=63 velocity=36 time=0
note_on channel=0 note=58 velocity=36 time=0
note_on channel=0 note=61 velocity=43 time=0
note_on channel=0 note=43 velocity=53 time=0
control_change channel=0 control=64 value=0 time=0
note_on channel=0 note=43 velocity=0 time=240
note_on channel=0 note=61 velocity=0 time=0
note_on channel=0 note=58 velocity=0 time=0
note_on channel=0 note=56 velocity=34 time=0
note_on channel=0 note=59 velocity=40 time=0
note_on channel=0 note=44 velocity=49 time=0
note_on channel=0 note=59 velocity=0 time=0
note_on channel=0 note=63 velocity=0 time=0
note_on channel=0 note=56 velocity=0 time=0
note_on channel=0 note=44 velocity=0 time=0
note_on channel=0 note=51 velocity=45 time=0
note_on channel=0 note=52 velocity=50 time=0
note_on channel=0 note=51 velocity=0 time=12
note_on channel=0 note=51 velocity=46 time=0
note_on channel=0 note=52 velocity=0 time=12
note_on channel=0 note=49 velocity=50 time=0
control_change channel=0 control=64 value=0 time=0
note_on channel=0 note=51 velocity=0 time=12
note_on channel=0 note=47 velocity=41 time=108
note_on channel=0 note=49 velocity=0 time=12
note_on channel=0 note=46 velocity=46 time=108
note_on channel=0 note=47 velocity=0 time=12
note_on channel=0 note=44 velocity=40 time=108
note_on channel=0 note=46 velocity=0 time=12
note_on channel=0 note=43 velocity=48 time=108
note_on channel=0 note=44 velocity=0 time=12
note_on channel=0 note=43 velocity=0 time=228
note_on channel=0 note=44 velocity=40 time=0
note_on channel=0 note=44 velocity=0 time=0
note_on channel=0 note=63 velocity=30 time=0
note_on channel=0 note=60 velocity=30 time=0
note_on channel=0 note=66 velocity=36 time=0
note_on channel=0 note=45 velocity=45 time=0
note_on channel=0 note=66 velocity=0 time=240
note_on channel=0 note=65 velocity=34 time=0
note_on channel=0 note=65 velocity=0 time=350
note_on channel=0 note=65 velocity=34 time=10
note_on channel=0 note=66 velocity=34 time=0
note_on channel=0 note=65 velocity=0 time=12
note_on channel=0 note=65 velocity=34 time=0
note_on channel=0 note=66 velocity=0 time=12
note_on channel=0 note=45 velocity=0 time=0
note_on channel=0 note=63 velocity=0 time=0
note_on channel=0 note=60 velocity=0 time=0
note_on channel=0 note=65 velocity=0 time=0
note_on channel=0 note=63 velocity=30 time=0
note_on channel=0 note=60 velocity=30 time=0
note_on channel=0 note=66 velocity=36 time=0
note_on channel=0 note=46 velocity=45 time=0
note_on channel=0 note=66 velocity=0 time=240
note_on channel=0 note=65 velocity=34 time=0
note_on channel=0 note=65 velocity=0 time=350
note_on channel=0 note=65 velocity=34 time=10
note_on channel=0 note=66 velocity=34 time=0
note_on channel=0 note=65 velocity=0 time=12
note_on channel=0 note=65 velocity=34 time=0
note_on channel=0 note=66 velocity=0 time=12
note_on channel=0 note=46 velocity=0 time=0
note_on channel=0 note=63 velocity=0 time=0
note_on channel=0 note=60 velocity=0 time=0
note_on channel=0 note=65 velocity=0 time=0
note_on channel=0 note=63 velocity=30 time=0
note_on channel=0 note=60 velocity=30 time=0
note_on channel=0 note=66 velocity=36 time=0
note_on channel=0 note=45 velocity=45 time=0
note_on channel=0 note=45 velocity=0 time=240
note_on channel=0 note=63 velocity=0 time=0
note_on channel=0 note=60 velocity=0 time=0
note_on channel=0 note=66 velocity=0 time=120
note_on channel=0 note=65 velocity=34 time=0
note_on channel=0 note=65 velocity=0 time=0
note_on channel=0 note=66 velocity=36 time=0
note_on channel=0 note=66 velocity=0 time=360
note_on channel=0 note=65 velocity=29 time=0
note_on channel=0 note=65 velocity=0 time=19
note_on channel=0 note=66 velocity=34 time=0
control_change channel=0 control=64 value=127 time=17
note_on channel=0 note=66 velocity=0 time=43
note_on channel=0 note=65 velocity=29 time=0
note_on channel=0 note=65 velocity=0 time=43
note_on channel=0 note=66 velocity=34 time=0
note_on channel=0 note=66 velocity=0 time=26
note_on channel=0 note=65 velocity=29 time=0
note_on channel=0 note=65 velocity=0 time=9
note_on channel=0 note=66 velocity=34 time=0
note_on channel=0 note=66 velocity=0 time=60
note_on channel=0 note=65 velocity=29 time=0
note_on channel=0 note=65 velocity=0 time=52
note_on channel=0 note=66 velocity=34 time=0
note_on channel=0 note=66 velocity=0 time=35
note_on channel=0 note=65 velocity=30 time=0
note_on channel=0 note=65 velocity=0 time=24
note_on channel=0 note=66 velocity=34 time=0
note_on channel=0 note=66 velocity=0 time=7
note_on channel=0 note=65 velocity=30 time=0
note_on channel=0 note=65 velocity=0 time=29
note_on channel=0 note=66 velocity=34 time=0
note_on channel=0 note=66 velocity=0 time=12
note_on channel=0 note=65 velocity=29 time=0
note_on channel=0 note=65 velocity=0 time=14
note_on channel=0 note=66 velocity=34 time=0
note_on channel=0 note=66 velocity=0 time=17
note_on channel=0 note=65 velocity=29 time=0
note_on channel=0 note=65 velocity=0 time=0
note_on channel=0 note=66 velocity=34 time=0
note_on channel=0 note=66 velocity=0 time=2
note_on channel=0 note=65 velocity=31 time=0
note_on channel=0 note=65 velocity=0 time=5
note_on channel=0 note=67 velocity=34 time=0
control_change channel=0 control=64 value=0 time=2
control_change channel=0 control=64 value=127 time=29
note_on channel=0 note=67 velocity=0 time=14
note_on channel=0 note=65 velocity=29 time=0
note_on channel=0 note=65 velocity=0 time=29
note_on channel=0 note=67 velocity=35 time=0
note_on channel=0 note=67 velocity=0 time=31
note_on channel=0 note=65 velocity=30 time=0
note_on channel=0 note=65 velocity=0 time=33
note_on channel=0 note=67 velocity=36 time=0
note_on channel=0 note=67 velocity=0 time=36
note_on channel=0 note=65 velocity=31 time=0
note_on channel=0 note=65 velocity=0 time=24
note_on channel=0 note=67 velocity=37 time=0
note_on channel=0 note=67 velocity=0 time=60
note_on channel=0 note=65 velocity=33 time=0
note_on channel=0 note=65 velocity=0 time=48
note_on channel=0 note=67 velocity=39 time=0
note_on channel=0 note=67 velocity=0 time=32
note_on channel=0 note=65 velocity=34 time=0
note_on channel=0 note=65 velocity=0 time=15
note_on channel=0 note=67 velocity=40 time=0
note_on channel=0 note=67 velocity=0 time=60
note_on channel=0 note=65 velocity=34 time=0
note_on channel=0 note=65 velocity=0 time=58
note_on channel=0 note=67 velocity=41 time=0
note_on channel=0 note=67 velocity=0 time=41
note_on channel=0 note=65 velocity=35 time=0
note_on channel=0 note=65 velocity=0 time=24
note_on channel=0 note=67 velocity=42 time=0
note_on channel=0 note=67 velocity=0 time=8
note_on channel=0 note=65 velocity=39 time=0
note_on channel=0 note=65 velocity=0 time=0
note_on channel=0 note=55 velocity=35 time=0
note_on channel=0 note=63 velocity=42 time=0
control_change channel=0 control=64 value=0 time=0
note_on channel=0 note=63 velocity=0 time=120
note_on channel=0 note=55 velocity=0 time=0
note_on channel=0 note=65 velocity=42 time=0
note_on channel=0 note=53 velocity=33 time=0
note_on channel=0 note=62 velocity=39 time=0
note_on channel=0 note=62 velocity=0 time=120
note_on channel=0 note=53 velocity=0 time=0
note_on channel=0 note=65 velocity=0 time=0
note_on channel=0 note=77 velocity=48 time=0
note_on channel=0 note=51 velocity=33 time=0
note_on channel=0 note=60 velocity=39 time=0
control_change channel=0 control=64 value=127 time=43
note_on channel=0 note=60 velocity=0 time=77
note_on channel=0 note=51 velocity=0 time=0
note_on channel=0 note=77 velocity=0 time=0
note_on channel=0 note=65 velocity=42 time=0
note_on channel=0 note=50 velocity=33 time=0
note_on channel=0 note=58 velocity=39 time=0
note_on channel=0 note=58 velocity=0 time=120
note_on channel=0 note=50 velocity=0 time=0
note_on channel=0 note=65 velocity=0 time=0
note_on channel=0 note=48 velocity=35 time=0
note_on channel=0 note=57 velocity=35 time=0
control_change channel=0 control=64 value=0 time=12
note_on channel=0 note=65 velocity=42 time=108
note_on channel=0 note=65 velocity=0 time=120
note_on channel=0 note=57 velocity=0 time=0
note_on channel=0 note=48 velocity=0 time=0
note_on channel=0 note=77 velocity=47 time=0
note_on channel=0 note=50 velocity=33 time=0
note_on channel=0 note=58 velocity=39 time=0
control_change channel=0 control=64 value=127 time=21
note_on channel=0 note=77 velocity=0 time=0
note_on channel=0 note=65 velocity=42 time=0
note_on channel=0 note=65 velocity=0 time=0
note_on channel=0 note=58 velocity=0 time=0
note_on channel=0 note=50 velocity=0 time=0
note_on channel=0 note=56 velocity=38 time=0
note_on channel=0 note=59 velocity=45 time=0
control_change channel=0 control=64 value=0 time=0
note_on channel=0 note=65 velocity=42 time=120
note_on channel=0 note=65 velocity=0 time=120
note_on channel=0 note=59 velocity=0 time=0
note_on channel=0 note=56 velocity=0 time=0
note_on channel=0 note=77 velocity=48 time=0
note_on channel=0 note=57 velocity=34 time=0
note_on channel=0 note=60 velocity=41 time=0
control_change channel=0 control=64 value=127 time=52
note_on channel=0 note=77 velocity=0 time=68
note_on channel=0 note=65 velocity=42 time=0
note_on channel=0 note=65 velocity=0 time=120
note_on channel=0 note=77 velocity=48 time=0
control_change channel=0 control=64 value=0 time=11
note_on channel=0 note=77 velocity=0 time=0
note_on channel=0 note=60 velocity=0 time=0
note_on channel=0 note=57 velocity=0 time=0
note_on channel=0 note=66 velocity=38 time=0
note_on channel=0 note=66 velocity=0 time=0
note_on channel=0 note=69 velocity=42 time=0
note_on channel=0 note=69 velocity=0 time=0
note_on channel=0 note=67 velocity=39 time=0
note_on channel=0 note=67 velocity=0 time=0
note_on channel=0 note=65 velocity=42 time=0
note_on channel=0 note=65 velocity=0 time=110
note_on channel=0 note=65 velocity=42 time=10
note_on channel=0 note=55 velocity=33 time=0
note_on channel=0 note=63 velocity=39 time=0
note_on channel=0 note=63 velocity=0 time=120
note_on channel=0 note=55 velocity=0 time=0
note_on channel=0 note=65 velocity=0 time=0
note_on channel=0 note=77 velocity=48 time=0
note_on channel=0 note=53 velocity=33 time=0
note_on channel=0 note=62 velocity=39 time=0
control_change channel=0 control=64 value=127 time=21
note_on channel=0 note=62 velocity=0 time=99
note_on channel=0 note=53 velocity=0 time=0
note_on channel=0 note=77 velocity=0 time=0
note_on channel=0 note=65 velocity=42 time=0
note_on channel=0 note=51 velocity=33 time=0
note_on channel=0 note=60 velocity=39 time=0
note_on channel=0 note=60 velocity=0 time=120
note_on channel=0 note=51 velocity=0 time=0
note_on channel=0 note=65 velocity=0 time=0
note_on channel=0 note=50 velocity=35 time=0
note_on channel=0 note=58 velocity=42 time=0
control_change channel=0 control=64 value=0 time=14
note_on channel=0 note=65 velocity=42 time=106
note_on channel=0 note=65 velocity=0 time=120
note_on channel=0 note=58 velocity=0 time=0
note_on channel=0 note=50 velocity=0 time=0
note_on channel=0 note=77 velocity=47 time=0
note_on channel=0 note=57 velocity=33 time=0
note_on channel=0 note=60 velocity=39 time=0
control_change channel=0 control=64 value=127 time=21
note_on channel=0 note=77 velocity=0 time=0
note_on channel=0 note=65 velocity=42 time=0
note_on channel=0 note=65 velocity=0 time=0
note_on channel=0 note=60 velocity=0 time=0
note_on channel=0 note=57 velocity=0 time=0
note_on channel=0 note=57 velocity=38 time=0
note_on channel=0 note=61 velocity=45 time=0
control_change channel=0 control=64 value=0 time=3
note_on channel=0 note=65 velocity=42 time=117
note_on channel=0 note=65 velocity=0 time=120
note_on channel=0 note=61 velocity=0 time=0
note_on channel=0 note=57 velocity=0 time=0
note_on channel=0 note=77 velocity=48 time=0
note_on channel=0 note=58 velocity=34 time=0
note_on channel=0 note=62 velocity=41 time=0
control_change channel=0 control=64 value=127 time=28
note_on channel=0 note=77 velocity=0 time=92
note_on channel=0 note=65 velocity=42 time=0
note_on channel=0 note=65 velocity=0 time=120
note_on channel=0 note=77 velocity=48 time=0
control_change channel=0 control=64 value=0 time=15
note_on channel=0 note=62 velocity=0 time=0
note_on channel=0 note=58 velocity=0 time=0
note_on channel=0 note=65 velocity=43 time=0
note_on channel=0 note=65 velocity=0 time=0
note_on channel=0 note=77 velocity=0 time=0
note_on channel=0 note=59 velocity=34 time=0
note_on channel=0 note=67 velocity=49 time=0
note_on channel=0 note=67 velocity=0 time=0
note_on channel=0 note=62 velocity=44 time=0
note_on channel=0 note=62 velocity=0 time=120
note_on channel=0 note=59 velocity=0 time=0
note_on channel=0 note=60 velocity=37 time=0
note_on channel=0 note=65 velocity=51 time=0
control_change channel=0 control=64 value=127 time=50
note_on channel=0 note=65 velocity=0 time=70
note_on channel=0 note=77 velocity=56 time=0
note_on channel=0 note=63 velocity=48 time=0
note_on channel=0 note=63 velocity=0 time=120
note_on channel=0 note=77 velocity=0 time=0
note_on channel=0 note=60 velocity=0 time=0
note_on channel=0 note=89 velocity=67 time=0
note_on channel=0 note=57 velocity=37 time=0
note_on channel=0 note=65 velocity=53 time=0
control_change channel=0 control=64 value=0 time=8
control_change channel=0 control=64 value=127 time=70
note_on channel=0 note=65 velocity=0 time=42
note_on channel=0 note=60 velocity=48 time=0
note_on channel=0 note=60 velocity=0 time=120
note_on channel=0 note=57 velocity=0 time=0
note_on channel=0 note=89 velocity=0 time=0
note_on channel=0 note=58 velocity=38 time=0
note_on channel=0 note=63 velocity=53 time=0
control_change channel=0 control=64 value=0 time=6
control_change channel=0 control=64 value=127 time=86
note_on channel=0 note=63 velocity=0 time=28
note_on channel=0 note=65 velocity=47 time=0
note_on channel=0 note=62 velocity=49 time=0
note_on channel=0 note=62 velocity=0 time=120
note_on channel=0 note=65 velocity=0 time=0
note_on channel=0 note=58 velocity=0 time=0
note_on channel=0 note=77 velocity=54 time=0
note_on channel=0 note=59 velocity=38 time=0
note_on channel=0 note=67 velocity=56 time=0
control_change channel=0 control=64 value=0 time=8
control_change channel=0 control=64 value=127 time=70
note_on channel=0 note=67 velocity=0 time=0
note_on channel=0 note=62 velocity=50 time=0
note_on channel=0 note=62 velocity=0 time=0
note_on channel=0 note=59 velocity=0 time=0
note_on channel=0 note=77 velocity=0 time=0
note_on channel=0 note=60 velocity=39 time=0
note_on channel=0 note=65 velocity=59 time=0
control_change channel=0 control=64 value=0 time=0
control_change channel=0 control=64 value=127 time=46
note_on channel=0 note=65 velocity=0 time=74
note_on channel=0 note=77 velocity=66 time=0
note_on channel=0 note=63 velocity=54 time=0
note_on channel=0 note=63 velocity=0 time=120
note_on channel=0 note=77 velocity=0 time=0
note_on channel=0 note=60 velocity=0 time=0
note_on channel=0 note=89 velocity=78 time=0
note_on channel=0 note=57 velocity=39 time=0
note_on channel=0 note=65 velocity=60 time=0
control_change channel=0 control=64 value=0 time=10
control_change channel=0 control=64 value=127 time=40
note_on channel=0 note=65 velocity=0 time=70
note_on channel=0 note=60 velocity=52 time=0
note_on channel=0 note=60 velocity=0 time=120
note_on channel=0 note=57 velocity=0 time=0
note_on channel=0 note=58 velocity=50 time=0
note_on channel=0 note=63 velocity=59 time=0
control_change channel=0 control=64 value=0 time=15
control_change channel=0 control=64 value=127 time=42
note_on channel=0 note=63 velocity=0 time=8
note_on channel=0 note=89 velocity=0 time=0
note_on channel=0 note=77 velocity=71 time=0
note_on channel=0 note=62 velocity=53 time=0
note_on channel=0 note=58 velocity=0 time=51
note_on channel=0 note=57 velocity=47 time=0
control_change channel=0 control=64 value=0 time=5
control_change channel=0 control=64 value=127 time=40
note_on channel=0 note=62 velocity=0 time=37
note_on channel=0 note=77 velocity=0 time=0
note_on channel=0 note=79 velocity=67 time=0
note_on channel=0 note=60 velocity=60 time=0
note_on channel=0 note=79 velocity=0 time=39
note_on channel=0 note=81 velocity=70 time=0
note_on channel=0 note=81 velocity=0 time=23
note_on channel=0 note=57 velocity=0 time=0
note_on channel=0 note=82 velocity=72 time=0
note_on channel=0 note=55 velocity=66 time=0
control_change channel=0 control=64 value=0 time=0
note_on channel=0 note=82 velocity=0 time=44
note_on channel=0 note=84 velocity=73 time=0
control_change channel=0 control=64 value=127 time=20
note_on channel=0 note=84 velocity=0 time=40
note_on channel=0 note=86 velocity=75 time=0
note_on channel=0 note=86 velocity=0 time=60
note_on channel=0 note=84 velocity=73 time=0
note_on channel=0 note=84 velocity=0 time=32
note_on channel=0 note=60 velocity=0 time=0
note_on channel=0 note=82 velocity=74 time=0
note_on channel=0 note=58 velocity=60 time=0
control_change channel=0 control=64 value=0 time=13
control_change channel=0 control=64 value=127 time=36
note_on channel=0 note=82 velocity=0 time=11
note_on channel=0 note=81 velocity=70 time=0
note_on channel=0 note=81 velocity=0 time=60
note_on channel=0 note=79 velocity=71 time=0
note_on channel=0 note=79 velocity=0 time=39
note_on channel=0 note=77 velocity=69 time=0
note_on channel=0 note=77 velocity=0 time=60
note_on channel=0 note=55 velocity=0 time=0
note_on channel=0 note=76 velocity=68 time=0
note_on channel=0 note=48 velocity=62 time=0
control_change channel=0 control=64 value=0 time=15
note_on channel=0 note=76 velocity=0 time=45
note_on channel=0 note=74 velocity=66 time=0
control_change channel=0 control=64 value=127 time=0
note_on channel=0 note=74 velocity=0 time=47
note_on channel=0 note=72 velocity=63 time=0
note_on channel=0 note=72 velocity=0 time=60
note_on channel=0 note=70 velocity=62 time=0
note_on channel=0 note=70 velocity=0 time=60
note_on channel=0 note=58 velocity=0 time=0
note_on channel=0 note=69 velocity=60 time=0
note_on channel=0 note=58 velocity=58 time=0
control_change channel=0 control=64 value=0 time=8
control_change channel=0 control=64 value=127 time=44
note_on channel=0 note=69 velocity=0 time=8
note_on channel=0 note=67 velocity=58 time=0
note_on channel=0 note=67 velocity=0 time=60
note_on channel=0 note=65 velocity=57 time=0
note_on channel=0 note=65 velocity=0 time=60
note_on channel=0 note=64 velocity=55 time=0
note_on channel=0 note=64 velocity=0 time=0
note_on channel=0 note=48 velocity=0 time=0
note_on channel=0 note=67 velocity=54 time=0
note_on channel=0 note=53 velocity=58 time=0
control_change channel=0 control=64 value=0 time=9
control_change channel=0 control=64 value=127 time=21
note_on channel=0 note=67 velocity=0 time=23
note_on channel=0 note=65 velocity=49 time=0
note_on channel=0 note=65 velocity=0 time=60
note_on channel=0 note=69 velocity=54 time=0
control_change channel=0 control=64 value=0 time=31
note_on channel=0 note=69 velocity=0 time=29
note_on channel=0 note=67 velocity=48 time=0
control_change channel=0 control=64 value=127 time=3
note_on channel=0 note=67 velocity=0 time=57
note_on channel=0 note=58 velocity=0 time=0
note_on channel=0 note=70 velocity=54 time=0
note_on channel=0 note=57 velocity=47 time=0
control_change channel=0 control=64 value=0 time=11
control_change channel=0 control=64 value=127 time=32
note_on channel=0 note=70 velocity=0 time=17
note_on channel=0 note=69 velocity=50 time=0
note_on channel=0 note=69 velocity=0 time=60
note_on channel=0 note=72 velocity=54 time=0
control_change channel=0 control=64 value=0 time=10
control_change channel=0 control=64 value=127 time=36
note_on channel=0 note=72 velocity=0 time=14
note_on channel=0 note=70 velocity=49 time=0
note_on channel=0 note=70 velocity=0 time=3
note_on channel=0 note=57 velocity=0 time=0
note_on channel=0 note=53 velocity=0 time=0
note_on channel=0 note=74 velocity=54 time=0
control_change channel=0 control=64 value=0 time=11
control_change channel=0 control=64 value=127 time=27
note_on channel=0 note=74 velocity=0 time=6
note_on channel=0 note=72 velocity=48 time=0
note_on channel=0 note=72 velocity=0 time=27
note_on channel=0 note=75 velocity=54 time=0
control_change channel=0 control=64 value=0 time=4
control_change channel=0 control=64 value=127 time=31
note_on channel=0 note=75 velocity=0 time=11
note_on channel=0 note=74 velocity=49 time=0
note_on channel=0 note=74 velocity=0 time=32
note_on channel=0 note=77 velocity=54 time=0
control_change channel=0 control=64 value=0 time=7
control_change channel=0 control=64 value=127 time=7
note_on channel=0 note=77 velocity=0 time=8
note_on channel=0 note=76 velocity=48 time=0
note_on channel=0 note=76 velocity=0 time=37
note_on channel=0 note=79 velocity=53 time=0
control_change channel=0 control=64 value=0 time=10
control_change channel=0 control=64 value=127 time=26
note_on channel=0 note=79 velocity=0 time=20
note_on channel=0 note=77 velocity=49 time=0
note_on channel=0 note=77 velocity=0 time=0
note_on channel=0 note=63 velocity=42 time=0
note_on channel=0 note=75 velocity=50 time=0
note_on channel=0 note=46 velocity=42 time=0
control_change channel=0 control=64 value=0 time=0
note_on channel=0 note=75 velocity=0 time=120
note_on channel=0 note=63 velocity=0 time=0
note_on channel=0 note=62 velocity=39 time=0
note_on channel=0 note=74 velocity=46 time=0
note_on channel=0 note=53 velocity=34 time=0
note_on channel=0 note=53 velocity=0 time=120
note_on channel=0 note=46 velocity=0 time=0
note_on channel=0 note=62 velocity=0 time=0
note_on channel=0 note=74 velocity=0 time=0
note_on channel=0 note=60 velocity=39 time=0
note_on channel=0 note=72 velocity=46 time=0
note_on channel=0 note=50 velocity=38 time=0
note_on channel=0 note=72 velocity=0 time=120
note_on channel=0 note=60 velocity=0 time=0
note_on channel=0 note=58 velocity=39 time=0
note_on channel=0 note=70 velocity=46 time=0
note_on channel=0 note=53 velocity=34 time=0
note_on channel=0 note=53 velocity=0 time=120
note_on channel=0 note=50 velocity=0 time=0
note_on channel=0 note=58 velocity=0 time=0
note_on channel=0 note=70 velocity=0 time=0
note_on channel=0 note=57 velocity=42 time=0
note_on channel=0 note=69 velocity=42 time=0
note_on channel=0 note=51 velocity=38 time=0
note_on channel=0 note=48 velocity=38 time=0
control_change channel=0 control=64 value=127 time=78
note_on channel=0 note=51 velocity=0 time=42
note_on channel=0 note=53 velocity=34 time=0
note_on channel=0 note=53 velocity=0 time=120
note_on channel=0 note=48 velocity=0 time=0
note_on channel=0 note=69 velocity=0 time=0
note_on channel=0 note=57 velocity=0 time=0
note_on channel=0 note=58 velocity=39 time=0
note_on channel=0 note=70 velocity=47 time=0
note_on channel=0 note=50 velocity=37 time=0
note_on channel=0 note=46 velocity=37 time=0
control_change channel=0 control=64 value=0 time=5
control_change channel=0 control=64 value=127 time=80
note_on channel=0 note=50 velocity=0 time=0
note_on channel=0 note=53 velocity=34 time=0
note_on channel=0 note=53 velocity=0 time=0
note_on channel=0 note=46 velocity=0 time=0
note_on channel=0 note=70 velocity=0 time=0
note_on channel=0 note=58 velocity=0 time=0
note_on channel=0 note=59 velocity=45 time=0
note_on channel=0 note=71 velocity=53 time=0
note_on channel=0 note=45 velocity=43 time=0
note_on channel=0 note=51 velocity=43 time=0
control_change channel=0 control=64 value=0 time=0
note_on channel=0 note=53 velocity=34 time=120
note_on channel=0 note=53 velocity=0 time=60
note_on channel=0 note=59 velocity=0 time=60
note_on channel=0 note=71 velocity=0 time=0
note_on channel=0 note=60 velocity=41 time=0
note_on channel=0 note=72 velocity=49 time=0
note_on channel=0 note=53 velocity=34 time=0
note_on channel=0 note=53 velocity=0 time=60
note_on channel=0 note=53 velocity=34 time=60
note_on channel=0 note=53 velocity=0 time=60
note_on channel=0 note=53 velocity=37 time=60
note_on channel=0 note=53 velocity=0 time=60
note_on channel=0 note=60 velocity=0 time=0
note_on channel=0 note=72 velocity=0 time=0
note_on channel=0 note=66 velocity=48 time=0
note_on channel=0 note=53 velocity=34 time=0
control_change channel=0 control=64 value=127 time=32
note_on channel=0 note=53 velocity=0 time=28
note_on channel=0 note=66 velocity=0 time=0
note_on channel=0 note=78 velocity=45 time=0
note_on channel=0 note=78 velocity=0 time=0
note_on channel=0 note=69 velocity=43 time=0
note_on channel=0 note=53 velocity=34 time=0
control_change channel=0 control=64 value=0 time=5
control_change channel=0 control=64 value=127 time=35
note_on channel=0 note=53 velocity=0 time=20
note_on channel=0 note=69 velocity=0 time=0
note_on channel=0 note=81 velocity=46 time=0
note_on channel=0 note=81 velocity=0 time=0
note_on channel=0 note=67 velocity=53 time=0
note_on channel=0 note=53 velocity=34 time=0
control_change channel=0 control=64 value=0 time=0
note_on channel=0 note=53 velocity=0 time=60
note_on channel=0 note=67 velocity=0 time=0
note_on channel=0 note=79 velocity=46 time=0
control_change channel=0 control=64 value=127 time=0
note_on channel=0 note=79 velocity=0 time=0
note_on channel=0 note=45 velocity=0 time=0
note_on channel=0 note=51 velocity=0 time=0
note_on channel=0 note=65 velocity=52 time=0
note_on channel=0 note=45 velocity=42 time=0
control_change channel=0 control=64 value=0 time=6
control_change channel=0 control=64 value=127 time=34
note_on channel=0 note=65 velocity=0 time=20
note_on channel=0 note=77 velocity=47 time=0
note_on channel=0 note=77 velocity=0 time=60
note_on channel=0 note=63 velocity=51 time=0
note_on channel=0 note=53 velocity=34 time=0
control_change channel=0 control=64 value=0 time=6
control_change channel=0 control=64 value=127 time=46
note_on channel=0 note=63 velocity=0 time=8
note_on channel=0 note=75 velocity=46 time=0
note_on channel=0 note=75 velocity=0 time=60
note_on channel=0 note=53 velocity=0 time=0
note_on channel=0 note=45 velocity=0 time=0
note_on channel=0 note=62 velocity=51 time=0
note_on channel=0 note=51 velocity=38 time=0
control_change channel=0 control=64 value=0 time=9
control_change channel=0 control=64 value=127 time=40
note_on channel=0 note=62 velocity=0 time=11
note_on channel=0 note=74 velocity=46 time=0
note_on channel=0 note=74 velocity=0 time=60
note_on channel=0 note=60 velocity=51 time=0
note_on channel=0 note=53 velocity=34 time=0
control_change channel=0 control=64 value=0 time=10
control_change channel=0 control=64 value=127 time=36
note_on channel=0 note=60 velocity=0 time=14
note_on channel=0 note=72 velocity=46 time=0
note_on channel=0 note=72 velocity=0 time=60
note_on channel=0 note=53 velocity=0 time=0
note_on channel=0 note=51 velocity=0 time=0
note_on channel=0 note=57 velocity=50 time=0
note_on channel=0 note=50 velocity=38 time=0
control_change channel=0 control=64 value=0 time=5
control_change channel=0 control=64 value=127 time=41
note_on channel=0 note=57 velocity=0 time=14
note_on channel=0 note=69 velocity=42 time=0
note_on channel=0 note=69 velocity=0 time=60
note_on channel=0 note=58 velocity=47 time=0
note_on channel=0 note=53 velocity=34 time=0
control_change channel=0 control=64 value=0 time=13
control_change channel=0 control=64 value=127 time=33
note_on channel=0 note=58 velocity=0 time=14
note_on channel=0 note=70 velocity=42 time=0
note_on channel=0 note=70 velocity=0 time=60
note_on channel=0 note=53 velocity=0 time=0
note_on channel=0 note=50 velocity=0 time=0
note_on channel=0 note=59 velocity=49 time=0
note_on channel=0 note=45 velocity=37 time=0
control_change channel=0 control=64 value=0 time=9
control_change channel=0 control=64 value=127 time=28
note_on channel=0 note=59 velocity=0 time=23
note_on channel=0 note=71 velocity=42 time=0
note_on channel=0 note=71 velocity=0 time=0
note_on channel=0 note=60 velocity=49 time=0
note_on channel=0 note=53 velocity=34 time=0
control_change channel=0 control=64 value=0 time=10
control_change channel=0 control=64 value=127 time=36
note_on channel=0 note=60 velocity=0 time=14
note_on channel=0 note=72 velocity=42 time=0
note_on channel=0 note=72 velocity=0 time=0
note_on channel=0 note=53 velocity=0 time=0
note_on channel=0 note=45 velocity=0 time=0
note_on channel=0 note=61 velocity=45 time=0
note_on channel=0 note=73 velocity=53 time=0
note_on channel=0 note=46 velocity=43 time=0
control_change channel=0 control=64 value=0 time=0
note_on channel=0 note=53 velocity=34 time=120
note_on channel=0 note=53 velocity=0 time=60
note_on channel=0 note=61 velocity=0 time=60
note_on channel=0 note=73 velocity=0 time=0
note_on channel=0 note=62 velocity=41 time=0
note_on channel=0 note=74 velocity=49 time=0
note_on channel=0 note=53 velocity=34 time=0
note_on channel=0 note=53 velocity=0 time=60
note_on channel=0 note=53 velocity=34 time=60
note_on channel=0 note=53 velocity=0 time=60
note_on channel=0 note=53 velocity=40 time=60
note_on channel=0 note=53 velocity=0 time=60
note_on channel=0 note=74 velocity=0 time=0
note_on channel=0 note=62 velocity=0 time=0
note_on channel=0 note=65 velocity=56 time=0
note_on channel=0 note=53 velocity=37 time=0
control_change channel=0 control=64 value=127 time=46
note_on channel=0 note=53 velocity=0 time=14
note_on channel=0 note=65 velocity=0 time=0
note_on channel=0 note=77 velocity=52 time=0
note_on channel=0 note=77 velocity=0 time=0
note_on channel=0 note=46 velocity=0 time=0
note_on channel=0 note=67 velocity=64 time=0
note_on channel=0 note=53 velocity=37 time=0
note_on channel=0 note=47 velocity=37 time=0
control_change channel=0 control=64 value=0 time=4
control_change channel=0 control=64 value=127 time=32
note_on channel=0 note=53 velocity=0 time=24
note_on channel=0 note=67 velocity=0 time=0
note_on channel=0 note=79 velocity=58 time=0
note_on channel=0 note=79 velocity=0 time=0
note_on channel=0 note=62 velocity=57 time=0
note_on channel=0 note=53 velocity=37 time=0
note_on channel=0 note=53 velocity=0 time=60
note_on channel=0 note=62 velocity=0 time=0
note_on channel=0 note=74 velocity=52 time=0
note_on channel=0 note=74 velocity=0 time=60
note_on channel=0 note=47 velocity=0 time=0
note_on channel=0 note=65 velocity=62 time=0
note_on channel=0 note=48 velocity=47 time=0
control_change channel=0 control=64 value=0 time=0
control_change channel=0 control=64 value=127 time=57
note_on channel=0 note=65 velocity=0 time=3
note_on channel=0 note=77 velocity=59 time=0
note_on channel=0 note=77 velocity=0 time=60
note_on channel=0 note=63 velocity=58 time=0
note_on channel=0 note=53 velocity=38 time=0
note_on channel=0 note=63 velocity=0 time=60
note_on channel=0 note=75 velocity=53 time=0
note_on channel=0 note=75 velocity=0 time=60
note_on channel=0 note=53 velocity=0 time=0
note_on channel=0 note=48 velocity=0 time=0
note_on channel=0 note=65 velocity=64 time=0
note_on channel=0 note=45 velocity=42 time=0
control_change channel=0 control=64 value=0 time=11
note_on channel=0 note=65 velocity=0 time=49
note_on channel=0 note=77 velocity=58 time=0
control_change channel=0 control=64 value=127 time=4
note_on channel=0 note=77 velocity=0 time=56
note_on channel=0 note=60 velocity=58 time=0
note_on channel=0 note=53 velocity=38 time=0
note_on channel=0 note=60 velocity=0 time=60
note_on channel=0 note=72 velocity=51 time=0
note_on channel=0 note=72 velocity=0 time=60
note_on channel=0 note=53 velocity=0 time=0
note_on channel=0 note=45 velocity=0 time=0
note_on channel=0 note=63 velocity=64 time=0
note_on channel=0 note=46 velocity=47 time=0
control_change channel=0 control=64 value=0 time=7
note_on channel=0 note=63 velocity=0 time=53
note_on channel=0 note=75 velocity=59 time=0
control_change channel=0 control=64 value=127 time=11
note_on channel=0 note=75 velocity=0 time=49
note_on channel=0 note=62 velocity=59 time=0
note_on channel=0 note=53 velocity=38 time=0
note_on channel=0 note=62 velocity=0 time=60
note_on channel=0 note=74 velocity=53 time=0
note_on channel=0 note=74 velocity=0 time=60
note_on channel=0 note=53 velocity=0 time=0
note_on channel=0 note=46 velocity=0 time=0
note_on channel=0 note=67 velocity=67 time=0
note_on channel=0 note=47 velocity=43 time=0
control_change channel=0 control=64 value=0 time=7
note_on channel=0 note=67 velocity=0 time=53
note_on channel=0 note=79 velocity=60 time=0
control_change channel=0 control=64 value=127 time=11
note_on channel=0 note=79 velocity=0 time=0
note_on channel=0 note=62 velocity=59 time=0
note_on channel=0 note=53 velocity=39 time=0
note_on channel=0 note=62 velocity=0 time=60
note_on channel=0 note=74 velocity=55 time=0
note_on channel=0 note=74 velocity=0 time=0
note_on channel=0 note=53 velocity=0 time=0
note_on channel=0 note=47 velocity=0 time=0
note_on channel=0 note=65 velocity=71 time=0
note_on channel=0 note=48 velocity=54 time=0
control_change channel=0 control=64 value=0 time=8
note_on channel=0 note=65 velocity=0 time=52
note_on channel=0 note=77 velocity=67 time=0
control_change channel=0 control=64 value=127 time=15
note_on channel=0 note=77 velocity=0 time=45
note_on channel=0 note=63 velocity=64 time=0
note_on channel=0 note=53 velocity=39 time=0
note_on channel=0 note=63 velocity=0 time=60
note_on channel=0 note=75 velocity=59 time=0
note_on channel=0 note=75 velocity=0 time=60
note_on channel=0 note=53 velocity=0 time=0
note_on channel=0 note=48 velocity=0 time=0
note_on channel=0 note=65 velocity=72 time=0
note_on channel=0 note=45 velocity=49 time=0
control_change channel=0 control=64 value=0 time=7
control_change channel=0 control=64 value=127 time=50
note_on channel=0 note=65 velocity=0 time=3
note_on channel=0 note=77 velocity=67 time=0
note_on channel=0 note=77 velocity=0 time=60
note_on channel=0 note=60 velocity=63 time=0
note_on channel=0 note=53 velocity=39 time=0
note_on channel=0 note=60 velocity=0 time=60
note_on channel=0 note=72 velocity=60 time=0
note_on channel=0 note=72 velocity=0 time=60
note_on channel=0 note=53 velocity=0 time=0
note_on channel=0 note=45 velocity=0 time=0
note_on channel=0 note=63 velocity=71 time=0
note_on channel=0 note=46 velocity=56 time=0
control_change channel=0 control=64 value=0 time=8
note_on channel=0 note=63 velocity=0 time=52
note_on channel=0 note=75 velocity=64 time=0
control_change channel=0 control=64 value=127 time=9
note_on channel=0 note=75 velocity=0 time=0
note_on channel=0 note=62 velocity=64 time=0
note_on channel=0 note=53 velocity=41 time=0
note_on channel=0 note=62 velocity=0 time=60
note_on channel=0 note=74 velocity=57 time=0
note_on channel=0 note=74 velocity=0 time=60
note_on channel=0 note=53 velocity=0 time=0
note_on channel=0 note=46 velocity=0 time=0
note_on channel=0 note=63 velocity=67 time=0
note_on channel=0 note=44 velocity=51 time=0
control_change channel=0 control=64 value=0 time=5
note_on channel=0 note=63 velocity=0 time=55
note_on channel=0 note=75 velocity=58 time=0
control_change channel=0 control=64 value=127 time=9
note_on channel=0 note=75 velocity=0 time=51
note_on channel=0 note=65 velocity=71 time=0
note_on channel=0 note=46 velocity=45 time=0
note_on channel=0 note=65 velocity=0 time=60
note_on channel=0 note=77 velocity=64 time=0
note_on channel=0 note=77 velocity=0 time=0
note_on channel=0 note=46 velocity=0 time=0
note_on channel=0 note=44 velocity=0 time=0
note_on channel=0 note=66 velocity=76 time=0
note_on channel=0 note=43 velocity=62 time=0
control_change channel=0 control=64 value=0 time=0
note_on channel=0 note=66 velocity=0 time=60
note_on channel=0 note=78 velocity=69 time=0
control_change channel=0 control=64 value=127 time=9
note_on channel=0 note=78 velocity=0 time=51
note_on channel=0 note=67 velocity=76 time=0
note_on channel=0 note=46 velocity=51 time=0
note_on channel=0 note=67 velocity=0 time=60
note_on channel=0 note=79 velocity=69 time=0
note_on channel=0 note=43 velocity=0 time=50
note_on channel=0 note=79 velocity=0 time=10
note_on channel=0 note=46 velocity=0 time=0
note_on channel=0 note=69 velocity=76 time=0
note_on channel=0 note=39 velocity=58 time=0
control_change channel=0 control=64 value=0 time=11
note_on channel=0 note=69 velocity=0 time=49
note_on channel=0 note=81 velocity=66 time=0
control_change channel=0 control=64 value=127 time=15
note_on channel=0 note=81 velocity=0 time=0
note_on channel=0 note=70 velocity=78 time=0
note_on channel=0 note=51 velocity=51 time=0
note_on channel=0 note=70 velocity=0 time=60
note_on channel=0 note=82 velocity=70 time=0
note_on channel=0 note=82 velocity=0 time=0
note_on channel=0 note=51 velocity=0 time=0
note_on channel=0 note=39 velocity=0 time=0
note_on channel=0 note=58 velocity=71 time=0
note_on channel=0 note=70 velocity=71 time=0
note_on channel=0 note=41 velocity=56 time=0
control_change channel=0 control=64 value=0 time=10
control_change channel=0 control=64 value=127 time=59
note_on channel=0 note=50 velocity=42 time=51
note_on channel=0 note=41 velocity=0 time=110
note_on channel=0 note=58 velocity=0 time=10
note_on channel=0 note=70 velocity=0 time=0
note_on channel=0 note=50 velocity=0 time=0
note_on channel=0 note=60 velocity=58 time=0
note_on channel=0 note=72 velocity=69 time=0
note_on channel=0 note=41 velocity=49 time=0
control_change channel=0 control=64 value=0 time=8
control_change channel=0 control=64 value=127 time=49
note_on channel=0 note=45 velocity=43 time=0
note_on channel=0 note=45 velocity=0 time=0
note_on channel=0 note=60 velocity=0 time=0
note_on channel=0 note=72 velocity=0 time=0
note_on channel=0 note=41 velocity=0 time=0
note_on channel=0 note=61 velocity=41 time=0
note_on channel=0 note=73 velocity=49 time=0
note_on channel=0 note=34 velocity=43 time=0
control_change channel=0 control=64 value=0 time=12
note_on channel=0 note=34 velocity=0 time=108
note_on channel=0 note=46 velocity=29 time=0
note_on channel=0 note=73 velocity=0 time=120
note_on channel=0 note=61 velocity=0 time=0
note_on channel=0 note=62 velocity=38 time=0
note_on channel=0 note=74 velocity=45 time=0
note_on channel=0 note=58 velocity=35 time=0
note_on channel=0 note=58 velocity=0 time=31
note_on channel=0 note=58 velocity=29 time=60
note_on channel=0 note=58 velocity=0 time=36
note_on channel=0 note=58 velocity=37 time=0
control_change channel=0 control=64 value=127 time=26
note_on channel=0 note=58 velocity=0 time=34
note_on channel=0 note=74 velocity=0 time=0
note_on channel=0 note=62 velocity=0 time=0
note_on channel=0 note=70 velocity=59 time=0
note_on channel=0 note=70 velocity=0 time=5
note_on channel=0 note=69 velocity=61 time=0
note_on channel=0 note=58 velocity=35 time=0
note_on channel=0 note=58 velocity=0 time=60
note_on channel=0 note=69 velocity=0 time=0
note_on channel=0 note=70 velocity=62 time=0
note_on channel=0 note=70 velocity=0 time=29
note_on channel=0 note=46 velocity=0 time=0
note_on channel=0 note=71 velocity=62 time=0
note_on channel=0 note=56 velocity=43 time=0
note_on channel=0 note=71 velocity=0 time=60
note_on channel=0 note=72 velocity=64 time=0
note_on channel=0 note=72 velocity=0 time=53
note_on channel=0 note=73 velocity=65 time=0
note_on channel=0 note=58 velocity=39 time=0
note_on channel=0 note=73 velocity=0 time=60
note_on channel=0 note=74 velocity=67 time=0
note_on channel=0 note=74 velocity=0 time=58
note_on channel=0 note=58 velocity=0 time=0
note_on channel=0 note=56 velocity=0 time=0
note_on channel=0 note=75 velocity=69 time=0
note_on channel=0 note=55 velocity=52 time=0
note_on channel=0 note=75 velocity=0 time=22
note_on channel=0 note=76 velocity=70 time=0
note_on channel=0 note=76 velocity=0 time=60
note_on channel=0 note=77 velocity=71 time=0
note_on channel=0 note=58 velocity=46 time=0
note_on channel=0 note=77 velocity=0 time=26
note_on channel=0 note=78 velocity=73 time=0
note_on channel=0 note=78 velocity=0 time=60
note_on channel=0 note=58 velocity=0 time=0
note_on channel=0 note=55 velocity=0 time=0
note_on channel=0 note=79 velocity=74 time=0
note_on channel=0 note=51 velocity=56 time=0
note_on channel=0 note=79 velocity=0 time=50
note_on channel=0 note=80 velocity=76 time=0
note_on channel=0 note=80 velocity=0 time=14
note_on channel=0 note=81 velocity=77 time=0
note_on channel=0 note=63 velocity=50 time=0
note_on channel=0 note=81 velocity=0 time=60
note_on channel=0 note=82 velocity=78 time=0
note_on channel=0 note=82 velocity=0 time=0
note_on channel=0 note=63 velocity=0 time=0
note_on channel=0 note=51 velocity=0 time=0
note_on channel=0 note=70 velocity=53 time=0
note_on channel=0 note=53 velocity=35 time=0
control_change channel=0 control=64 value=0 time=11
note_on channel=0 note=70 velocity=0 time=37
note_on channel=0 note=72 velocity=48 time=0
control_change channel=0 control=64 value=127 time=18
note_on channel=0 note=72 velocity=0 time=30
note_on channel=0 note=70 velocity=45 time=0
note_on channel=0 note=62 velocity=29 time=24
note_on channel=0 note=70 velocity=0 time=24
note_on channel=0 note=69 velocity=45 time=0
note_on channel=0 note=69 velocity=0 time=48
note_on channel=0 note=70 velocity=45 time=0
note_on channel=0 note=53 velocity=0 time=38
note_on channel=0 note=70 velocity=0 time=10
note_on channel=0 note=62 velocity=0 time=0
note_on channel=0 note=63 velocity=42 time=0
note_on channel=0 note=74 velocity=52 time=0
note_on channel=0 note=53 velocity=35 time=0
control_change channel=0 control=64 value=0 time=8
control_change channel=0 control=64 value=127 time=38
note_on channel=0 note=57 velocity=29 time=0
note_on channel=0 note=74 velocity=0 time=60
note_on channel=0 note=72 velocity=41 time=0
note_on channel=0 note=72 velocity=0 time=0
note_on channel=0 note=57 velocity=0 time=0
note_on channel=0 note=53 velocity=0 time=0
note_on channel=0 note=63 velocity=0 time=0
note_on channel=0 note=62 velocity=42 time=0
note_on channel=0 note=70 velocity=50 time=0
note_on channel=0 note=46 velocity=33 time=0
note_on channel=0 note=58 velocity=39 time=0
control_change channel=0 control=64 value=0 time=0
note_on channel=0 note=58 velocity=0 time=240
note_on channel=0 note=62 velocity=0 time=0
note_on channel=0 note=70 velocity=0 time=0
note_on channel=0 note=46 velocity=0 time=0
note_on channel=0 note=65 velocity=67 time=0
note_on channel=0 note=74 velocity=80 time=0
note_on channel=0 note=58 velocity=50 time=0
note_on channel=0 note=62 velocity=60 time=0
control_change channel=0 control=64 value=127 time=198
note_on channel=0 note=62 velocity=0 time=13
note_on channel=0 note=65 velocity=0 time=0
note_on channel=0 note=74 velocity=0 time=0
note_on channel=0 note=58 velocity=0 time=0
note_on channel=0 note=67 velocity=45 time=0
note_on channel=0 note=72 velocity=53 time=0
note_on channel=0 note=51 velocity=38 time=0
note_on channel=0 note=60 velocity=45 time=0
control_change channel=0 control=64 value=0 time=0
control_change channel=0 control=64 value=127 time=2
note_on channel=0 note=72 velocity=0 time=6
note_on channel=0 note=74 velocity=50 time=0
note_on channel=0 note=74 velocity=0 time=20
note_on channel=0 note=72 velocity=53 time=0
note_on channel=0 note=72 velocity=0 time=15
note_on channel=0 note=74 velocity=50 time=0
note_on channel=0 note=74 velocity=0 time=28
note_on channel=0 note=72 velocity=53 time=0
note_on channel=0 note=72 velocity=0 time=51
note_on channel=0 note=71 velocity=49 time=0
note_on channel=0 note=71 velocity=0 time=52
note_on channel=0 note=72 velocity=49 time=0
note_on channel=0 note=74 velocity=49 time=0
note_on channel=0 note=72 velocity=0 time=1
note_on channel=0 note=74 velocity=0 time=59
note_on channel=0 note=75 velocity=50 time=0
note_on channel=0 note=75 velocity=0 time=0
note_on channel=0 note=67 velocity=0 time=0
note_on channel=0 note=67 velocity=57 time=0
control_change channel=0 control=64 value=0 time=8
control_change channel=0 control=64 value=127 time=44
note_on channel=0 note=67 velocity=0 time=0
note_on channel=0 note=51 velocity=0 time=0
note_on channel=0 note=60 velocity=0 time=0
note_on channel=0 note=63 velocity=45 time=0
note_on channel=0 note=69 velocity=54 time=0
note_on channel=0 note=53 velocity=34 time=0
note_on channel=0 note=60 velocity=41 time=0
control_change channel=0 control=64 value=0 time=8
control_change channel=0 control=64 value=127 time=38
note_on channel=0 note=60 velocity=0 time=0
note_on channel=0 note=63 velocity=0 time=0
note_on channel=0 note=69 velocity=0 time=0
note_on channel=0 note=53 velocity=0 time=0
note_on channel=0 note=62 velocity=47 time=0
note_on channel=0 note=70 velocity=56 time=0
note_on channel=0 note=46 velocity=42 time=0
note_on channel=0 note=58 velocity=50 time=0
control_change channel=0 control=64 value=0 time=0
control_change channel=0 control=64 value=127 time=120
note_on channel=0 note=70 velocity=0 time=0
note_on channel=0 note=65 velocity=46 time=0
note_on channel=0 note=65 velocity=0 time=120
control_change channel=0 control=64 value=0 time=0
note_on channel=0 note=58 velocity=0 time=4
note_on channel=0 note=46 velocity=0 time=0
note_on channel=0 note=62 velocity=0 time=0
note_on channel=0 note=65 velocity=67 time=10
note_on channel=0 note=74 velocity=80 time=0
note_on channel=0 note=58 velocity=50 time=0
note_on channel=0 note=62 velocity=60 time=0
control_change channel=0 control=64 value=127 time=184
note_on channel=0 note=62 velocity=0 time=27
note_on channel=0 note=65 velocity=0 time=0
note_on channel=0 note=74 velocity=0 time=0
note_on channel=0 note=58 velocity=0 time=0
note_on channel=0 note=67 velocity=45 time=0
note_on channel=0 note=72 velocity=63 time=0
note_on channel=0 note=52 velocity=41 time=0
note_on channel=0 note=55 velocity=41 time=0
control_change channel=0 control=64 value=0 time=0
control_change channel=0 control=64 value=127 time=43
note_on channel=0 note=72 velocity=0 time=0
note_on channel=0 note=74 velocity=56 time=0
note_on channel=0 note=74 velocity=0 time=40
note_on channel=0 note=72 velocity=56 time=0
note_on channel=0 note=72 velocity=0 time=40
note_on channel=0 note=71 velocity=56 time=0
note_on channel=0 note=71 velocity=0 time=40
note_on channel=0 note=72 velocity=63 time=0
note_on channel=0 note=72 velocity=0 time=60
note_on channel=0 note=74 velocity=58 time=0
note_on channel=0 note=74 velocity=0 time=0
note_on channel=0 note=55 velocity=0 time=0
note_on channel=0 note=52 velocity=0 time=0
note_on channel=0 note=67 velocity=0 time=0
note_on channel=0 note=64 velocity=45 time=0
note_on channel=0 note=70 velocity=63 time=0
note_on channel=0 note=48 velocity=41 time=0
note_on channel=0 note=60 velocity=41 time=0
control_change channel=0 control=64 value=0 time=9
control_change channel=0 control=64 value=127 time=48
note_on channel=0 note=70 velocity=0 time=0
note_on channel=0 note=72 velocity=56 time=0
note_on channel=0 note=72 velocity=0 time=40
note_on channel=0 note=70 velocity=56 time=0
note_on channel=0 note=70 velocity=0 time=40
note_on channel=0 note=69 velocity=56 time=0
note_on channel=0 note=69 velocity=0 time=40
note_on channel=0 note=70 velocity=63 time=0
note_on channel=0 note=70 velocity=0 time=60
note_on channel=0 note=72 velocity=58 time=0
note_on channel=0 note=72 velocity=0 time=0
note_on channel=0 note=60 velocity=0 time=0
note_on channel=0 note=48 velocity=0 time=0
note_on channel=0 note=64 velocity=0 time=0
note_on channel=0 note=65 velocity=47 time=0
note_on channel=0 note=70 velocity=56 time=0
note_on channel=0 note=53 velocity=42 time=0
note_on channel=0 note=60 velocity=50 time=0
control_change channel=0 control=64 value=0 time=0
control_change channel=0 control=64 value=127 time=120
note_on channel=0 note=70 velocity=0 time=0
note_on channel=0 note=69 velocity=46 time=0
note_on channel=0 note=69 velocity=0 time=120
control_change channel=0 control=64 value=0 time=0
note_on channel=0 note=60 velocity=0 time=0
note_on channel=0 note=53 velocity=0 time=0
note_on channel=0 note=65 velocity=0 time=0
note_on channel=0 note=67 velocity=67 time=0
note_on channel=0 note=79 velocity=80 time=0
note_on channel=0 note=58 velocity=50 time=0
note_on channel=0 note=62 velocity=60 time=0
control_change channel=0 control=64 value=127 time=184
note_on channel=0 note=62 velocity=0 time=27
note_on channel=0 note=67 velocity=0 time=0
note_on channel=0 note=79 velocity=0 time=0
note_on channel=0 note=58 velocity=0 time=0
note_on channel=0 note=72 velocity=45 time=0
note_on channel=0 note=77 velocity=63 time=0
note_on channel=0 note=57 velocity=41 time=0
note_on channel=0 note=60 velocity=41 time=0
control_change channel=0 control=64 value=0 time=0
control_change channel=0 control=64 value=127 time=43
note_on channel=0 note=77 velocity=0 time=0
note_on channel=0 note=79 velocity=56 time=0
note_on channel=0 note=79 velocity=0 time=40
note_on channel=0 note=77 velocity=56 time=0
note_on channel=0 note=77 velocity=0 time=40
note_on channel=0 note=76 velocity=56 time=0
note_on channel=0 note=76 velocity=0 time=40
note_on channel=0 note=77 velocity=63 time=0
note_on channel=0 note=77 velocity=0 time=60
note_on channel=0 note=79 velocity=58 time=0
note_on channel=0 note=79 velocity=0 time=0
note_on channel=0 note=60 velocity=0 time=0
note_on channel=0 note=57 velocity=0 time=0
note_on channel=0 note=72 velocity=0 time=0
note_on channel=0 note=69 velocity=45 time=0
note_on channel=0 note=75 velocity=63 time=0
note_on channel=0 note=53 velocity=41 time=0
note_on channel=0 note=65 velocity=41 time=0
control_change channel=0 control=64 value=0 time=9
control_change channel=0 control=64 value=127 time=48
note_on channel=0 note=75 velocity=0 time=0
note_on channel=0 note=77 velocity=56 time=0
note_on channel=0 note=77 velocity=0 time=40
note_on channel=0 note=75 velocity=56 time=0
note_on channel=0 note=75 velocity=0 time=40
note_on channel=0 note=74 velocity=56 time=0
note_on channel=0 note=74 velocity=0 time=40
note_on channel=0 note=75 velocity=63 time=0
note_on channel=0 note=75 velocity=0 time=60
note_on channel=0 note=77 velocity=58 time=0
note_on channel=0 note=77 velocity=0 time=0
note_on channel=0 note=65 velocity=0 time=0
note_on channel=0 note=53 velocity=0 time=0
note_on channel=0 note=69 velocity=0 time=0
note_on channel=0 note=70 velocity=47 time=0
note_on channel=0 note=75 velocity=56 time=0
note_on channel=0 note=58 velocity=42 time=0
note_on channel=0 note=65 velocity=50 time=0
control_change channel=0 control=64 value=0 time=0
control_change channel=0 control=64 value=127 time=120
note_on channel=0 note=75 velocity=0 time=120
note_on channel=0 note=74 velocity=46 time=0
note_on channel=0 note=74 velocity=0 time=120
control_change channel=0 control=64 value=0 time=0
note_on channel=0 note=65 velocity=0 time=4
note_on channel=0 note=58 velocity=0 time=0
note_on channel=0 note=70 velocity=0 time=0
note_on channel=0 note=50 velocity=62 time=0
control_change channel=0 control=64 value=127 time=43
note_on channel=0 note=58 velocity=52 time=17
note_on channel=0 note=62 velocity=54 time=0
note_on channel=0 note=74 velocity=54 time=120
note_on channel=0 note=82 velocity=69 time=60
note_on channel=0 note=86 velocity=73 time=0
note_on channel=0 note=62 velocity=0 time=0
note_on channel=0 note=50 velocity=0 time=0
note_on channel=0 note=58 velocity=0 time=0
note_on channel=0 note=51 velocity=69 time=0
control_change channel=0 control=64 value=0 time=11
note_on channel=0 note=58 velocity=58 time=49
control_change channel=0 control=64 value=127 time=4
note_on channel=0 note=62 velocity=60 time=0
note_on channel=0 note=74 velocity=0 time=120
note_on channel=0 note=86 velocity=0 time=0
note_on channel=0 note=82 velocity=0 time=0
note_on channel=0 note=74 velocity=61 time=0
note_on channel=0 note=82 velocity=73 time=60
note_on channel=0 note=86 velocity=78 time=0
note_on channel=0 note=51 velocity=0 time=0
note_on channel=0 note=62 velocity=0 time=0
note_on channel=0 note=58 velocity=0 time=0
note_on channel=0 note=53 velocity=73 time=0
control_change channel=0 control=64 value=0 time=14
note_on channel=0 note=58 velocity=61 time=46
control_change channel=0 control=64 value=127 time=0
note_on channel=0 note=62 velocity=64 time=0
note_on channel=0 note=74 velocity=0 time=120
note_on channel=0 note=86 velocity=0 time=0
note_on channel=0 note=82 velocity=0 time=0
note_on channel=0 note=74 velocity=65 time=0
note_on channel=0 note=82 velocity=76 time=60
note_on channel=0 note=86 velocity=81 time=0
note_on channel=0 note=53 velocity=0 time=0
note_on channel=0 note=62 velocity=0 time=0
note_on channel=0 note=58 velocity=0 time=0
note_on channel=0 note=55 velocity=77 time=0
control_change channel=0 control=64 value=0 time=0
control_change channel=0 control=64 value=127 time=50
note_on channel=0 note=58 velocity=64 time=10
note_on channel=0 note=62 velocity=68 time=0
note_on channel=0 note=74 velocity=0 time=120
note_on channel=0 note=86 velocity=0 time=0
note_on channel=0 note=82 velocity=0 time=0
note_on channel=0 note=74 velocity=68 time=0
note_on channel=0 note=82 velocity=80 time=60
note_on channel=0 note=86 velocity=86 time=0
note_on channel=0 note=86 velocity=0 time=0
note_on channel=0 note=58 velocity=0 time=0
note_on channel=0 note=55 velocity=0 time=0
note_on channel=0 note=62 velocity=0 time=0
note_on channel=0 note=82 velocity=0 time=0
note_on channel=0 note=74 velocity=0 time=0
note_on channel=0 note=62 velocity=58 time=0
note_on channel=0 note=65 velocity=58 time=0
note_on channel=0 note=70 velocity=69 time=0
control_change channel=0 control=64 value=0 time=18
control_change channel=0 control=64 value=127 time=42
note_on channel=0 note=70 velocity=0 time=170
note_on channel=0 note=65 velocity=0 time=0
note_on channel=0 note=62 velocity=0 time=0
note_on channel=0 note=86 velocity=90 time=0
note_on channel=0 note=74 velocity=75 time=0
note_on channel=0 note=64 velocity=58 time=0
note_on channel=0 note=67 velocity=58 time=0
note_on channel=0 note=70 velocity=64 time=0
control_change channel=0 control=64 value=0 time=14
control_change channel=0 control=64 value=127 time=36
note_on channel=0 note=67 velocity=0 time=0
note_on channel=0 note=64 velocity=0 time=0
note_on channel=0 note=65 velocity=59 time=0
control_change channel=0 control=64 value=0 time=11
control_change channel=0 control=64 value=127 time=64
note_on channel=0 note=86 velocity=0 time=165
note_on channel=0 note=70 velocity=0 time=0
note_on channel=0 note=74 velocity=0 time=0
note_on channel=0 note=84 velocity=68 time=0
note_on channel=0 note=72 velocity=57 time=0
note_on channel=0 note=69 velocity=63 time=0
control_change channel=0 control=64 value=0 time=10
note_on channel=0 note=69 velocity=0 time=110
note_on channel=0 note=72 velocity=0 time=0
note_on channel=0 note=84 velocity=0 time=0
note_on channel=0 note=65 velocity=0 time=0
note_on channel=0 note=58 velocity=58 time=0
note_on channel=0 note=62 velocity=58 time=0
note_on channel=0 note=67 velocity=69 time=0
control_change channel=0 control=64 value=0 time=18
control_change channel=0 control=64 value=127 time=42
note_on channel=0 note=67 velocity=0 time=170
note_on channel=0 note=62 velocity=0 time=0
note_on channel=0 note=58 velocity=0 time=0
note_on channel=0 note=82 velocity=90 time=0
note_on channel=0 note=70 velocity=75 time=0
note_on channel=0 note=61 velocity=55 time=0
note_on channel=0 note=64 velocity=55 time=0
note_on channel=0 note=67 velocity=64 time=0
control_change channel=0 control=64 value=0 time=14
control_change channel=0 control=64 value=127 time=36
note_on channel=0 note=61 velocity=0 time=0
note_on channel=0 note=62 velocity=59 time=0
control_change channel=0 control=64 value=0 time=11
control_change channel=0 control=64 value=127 time=64
note_on channel=0 note=64 velocity=0 time=165
note_on channel=0 note=67 velocity=0 time=0
note_on channel=0 note=82 velocity=0 time=0
note_on channel=0 note=70 velocity=0 time=0
note_on channel=0 note=81 velocity=68 time=0
note_on channel=0 note=69 velocity=57 time=0
note_on channel=0 note=65 velocity=63 time=0
control_change channel=0 control=64 value=0 time=10
note_on channel=0 note=65 velocity=0 time=110
note_on channel=0 note=62 velocity=0 time=0
note_on channel=0 note=81 velocity=0 time=0
note_on channel=0 note=69 velocity=0 time=0
note_on channel=0 note=55 velocity=58 time=0
note_on channel=0 note=58 velocity=58 time=0
note_on channel=0 note=63 velocity=69 time=0
control_change channel=0 control=64 value=0 time=18
control_change channel=0 control=64 value=127 time=42
note_on channel=0 note=63 velocity=0 time=0
note_on channel=0 note=58 velocity=0 time=0
note_on channel=0 note=55 velocity=0 time=0
note_on channel=0 note=79 velocity=90 time=0
note_on channel=0 note=67 velocity=75 time=0
note_on channel=0 note=57 velocity=58 time=0
note_on channel=0 note=60 velocity=58 time=0
note_on channel=0 note=63 velocity=64 time=0
control_change channel=0 control=64 value=0 time=14
control_change channel=0 control=64 value=127 time=36
note_on channel=0 note=60 velocity=0 time=0
note_on channel=0 note=57 velocity=0 time=0
note_on channel=0 note=58 velocity=68 time=0
control_change channel=0 control=64 value=0 time=11
control_change channel=0 control=64 value=127 time=64
note_on channel=0 note=79 velocity=0 time=45
note_on channel=0 note=67 velocity=0 time=0
note_on channel=0 note=65 velocity=57 time=0
note_on channel=0 note=77 velocity=68 time=0
note_on channel=0 note=62 velocity=58 time=0
note_on channel=0 note=63 velocity=0 time=120
note_on channel=0 note=58 velocity=0 time=0
note_on channel=0 note=51 velocity=49 time=0
control_change channel=0 control=64 value=0 time=10
note_on channel=0 note=77 velocity=0 time=110
note_on channel=0 note=62 velocity=0 time=0
note_on channel=0 note=65 velocity=0 time=0
note_on channel=0 note=63 velocity=66 time=0
note_on channel=0 note=75 velocity=66 time=0
note_on channel=0 note=60 velocity=66 time=0
note_on channel=0 note=51 velocity=0 time=120
note_on channel=0 note=53 velocity=56 time=0
note_on channel=0 note=63 velocity=0 time=120
note_on channel=0 note=60 velocity=0 time=0
note_on channel=0 note=75 velocity=0 time=0
note_on channel=0 note=62 velocity=57 time=0
note_on channel=0 note=74 velocity=68 time=0
note_on channel=0 note=58 velocity=59 time=0
note_on channel=0 note=53 velocity=0 time=110
note_on channel=0 note=53 velocity=49 time=10
note_on channel=0 note=62 velocity=0 time=0
note_on channel=0 note=58 velocity=0 time=0
note_on channel=0 note=74 velocity=0 time=0
note_on channel=0 note=60 velocity=59 time=0
note_on channel=0 note=72 velocity=63 time=0
note_on channel=0 note=57 velocity=59 time=0
note_on channel=0 note=72 velocity=0 time=0
note_on channel=0 note=53 velocity=0 time=0
note_on channel=0 note=60 velocity=0 time=0
note_on channel=0 note=61 velocity=61 time=0
note_on channel=0 note=73 velocity=72 time=0
note_on channel=0 note=46 velocity=56 time=0
note_on channel=0 note=73 velocity=0 time=240
note_on channel=0 note=57 velocity=0 time=0
note_on channel=0 note=61 velocity=0 time=0
note_on channel=0 note=62 velocity=56 time=0
note_on channel=0 note=74 velocity=66 time=0
note_on channel=0 note=58 velocity=66 time=0
note_on channel=0 note=58 velocity=0 time=120
note_on channel=0 note=46 velocity=0 time=0
note_on channel=0 note=62 velocity=0 time=0
note_on channel=0 note=74 velocity=0 time=0
note_on channel=0 note=62 velocity=62 time=0
note_on channel=0 note=46 velocity=63 time=0
note_on channel=0 note=53 velocity=63 time=0
control_change channel=0 control=64 value=0 time=18
control_change channel=0 control=64 value=127 time=88
note_on channel=0 note=53 velocity=0 time=0
note_on channel=0 note=62 velocity=0 time=0
note_on channel=0 note=74 velocity=57 time=0
note_on channel=0 note=64 velocity=53 time=0
note_on channel=0 note=55 velocity=57 time=0
control_change channel=0 control=64 value=0 time=14
control_change channel=0 control=64 value=127 time=73
note_on channel=0 note=46 velocity=0 time=0
note_on channel=0 note=45 velocity=68 time=0
control_change channel=0 control=64 value=0 time=11
control_change channel=0 control=64 value=127 time=64
note_on channel=0 note=74 velocity=0 time=165
note_on channel=0 note=55 velocity=0 time=0
note_on channel=0 note=64 velocity=0 time=0
note_on channel=0 note=65 velocity=68 time=0
note_on channel=0 note=72 velocity=57 time=0
note_on channel=0 note=57 velocity=63 time=0
control_change channel=0 control=64 value=0 time=10
note_on channel=0 note=57 velocity=0 time=110
note_on channel=0 note=72 velocity=0 time=0
note_on channel=0 note=65 velocity=0 time=0
note_on channel=0 note=45 velocity=0 time=0
note_on channel=0 note=58 velocity=62 time=0
note_on channel=0 note=43 velocity=63 time=0
note_on channel=0 note=50 velocity=63 time=0
control_change channel=0 control=64 value=0 time=18
control_change channel=0 control=64 value=127 time=88
note_on channel=0 note=50 velocity=0 time=0
note_on channel=0 note=58 velocity=0 time=0
note_on channel=0 note=70 velocity=57 time=0
note_on channel=0 note=61 velocity=53 time=0
note_on channel=0 note=52 velocity=57 time=0
control_change channel=0 control=64 value=0 time=14
control_change channel=0 control=64 value=127 time=73
note_on channel=0 note=43 velocity=0 time=0
note_on channel=0 note=41 velocity=68 time=0
control_change channel=0 control=64 value=0 time=11
control_change channel=0 control=64 value=127 time=64
note_on channel=0 note=70 velocity=0 time=165
note_on channel=0 note=52 velocity=0 time=0
note_on channel=0 note=61 velocity=0 time=0
note_on channel=0 note=62 velocity=68 time=0
note_on channel=0 note=69 velocity=57 time=0
note_on channel=0 note=53 velocity=63 time=0
control_change channel=0 control=64 value=0 time=10
note_on channel=0 note=53 velocity=0 time=110
note_on channel=0 note=69 velocity=0 time=0
note_on channel=0 note=62 velocity=0 time=0
note_on channel=0 note=41 velocity=0 time=120
note_on channel=0 note=55 velocity=62 time=0
note_on channel=0 note=67 velocity=62 time=0
note_on channel=0 note=39 velocity=68 time=0
note_on channel=0 note=46 velocity=63 time=0
control_change channel=0 control=64 value=127 time=120
note_on channel=0 note=46 velocity=0 time=120
note_on channel=0 note=55 velocity=0 time=0
note_on channel=0 note=67 velocity=0 time=0
note_on channel=0 note=57 velocity=59 time=0
note_on channel=0 note=66 velocity=53 time=0
note_on channel=0 note=48 velocity=57 time=0
control_change channel=0 control=64 value=0 time=13
control_change channel=0 control=64 value=127 time=62
note_on channel=0 note=48 velocity=0 time=165
note_on channel=0 note=39 velocity=0 time=0
note_on channel=0 note=57 velocity=0 time=0
note_on channel=0 note=58 velocity=59 time=0
note_on channel=0 note=53 velocity=56 time=0
note_on channel=0 note=38 velocity=68 time=0
control_change channel=0 control=64 value=0 time=0
control_change channel=0 control=64 value=127 time=75
note_on channel=0 note=65 velocity=69 time=45
note_on channel=0 note=38 velocity=0 time=120
note_on channel=0 note=53 velocity=0 time=0
note_on channel=0 note=66 velocity=0 time=0
note_on channel=0 note=58 velocity=0 time=0
note_on channel=0 note=55 velocity=69 time=0
note_on channel=0 note=60 velocity=69 time=0
note_on channel=0 note=39 velocity=69 time=0
control_change channel=0 control=64 value=0 time=12
control_change channel=0 control=64 value=127 time=57
note_on channel=0 note=65 velocity=0 time=51
note_on channel=0 note=63 velocity=77 time=0
note_on channel=0 note=55 velocity=0 time=6
note_on channel=0 note=39 velocity=0 time=0
note_on channel=0 note=60 velocity=0 time=0
note_on channel=0 note=58 velocity=68 time=0
note_on channel=0 note=53 velocity=68 time=0
note_on channel=0 note=41 velocity=73 time=0
control_change channel=0 control=64 value=0 time=15
control_change channel=0 control=64 value=127 time=2
note_on channel=0 note=63 velocity=0 time=28
note_on channel=0 note=62 velocity=84 time=0
note_on channel=0 note=58 velocity=0 time=34
note_on channel=0 note=41 velocity=0 time=0
note_on channel=0 note=53 velocity=0 time=0
note_on channel=0 note=57 velocity=72 time=0
note_on channel=0 note=51 velocity=72 time=0
note_on channel=0 note=29 velocity=79 time=0
control_change channel=0 control=64 value=0 time=14
control_change channel=0 control=64 value=127 time=18
note_on channel=0 note=62 velocity=0 time=20
note_on channel=0 note=60 velocity=92 time=0
note_on channel=0 note=60 velocity=0 time=0
note_on channel=0 note=29 velocity=0 time=0
note_on channel=0 note=51 velocity=0 time=0
note_on channel=0 note=57 velocity=0 time=0
note_on channel=0 note=58 velocity=92 time=0
note_on channel=0 note=34 velocity=83 time=0
control_change channel=0 control=64 value=0 time=0
control_change channel=0 control=64 value=127 time=50
note_on channel=0 note=58 velocity=0 time=0
note_on channel=0 note=50 velocity=50 time=0
note_on channel=0 note=50 velocity=0 time=60
note_on channel=0 note=53 velocity=50 time=0
note_on channel=0 note=53 velocity=0 time=60
note_on channel=0 note=58 velocity=50 time=0
note_on channel=0 note=58 velocity=0 time=60
note_on channel=0 note=34 velocity=0 time=0
note_on channel=0 note=62 velocity=53 time=0
note_on channel=0 note=46 velocity=46 time=0
note_on channel=0 note=62 velocity=0 time=60
note_on channel=0 note=65 velocity=50 time=0
note_on channel=0 note=65 velocity=0 time=60
note_on channel=0 note=70 velocity=50 time=0
note_on channel=0 note=70 velocity=0 time=60
note_on channel=0 note=74 velocity=50 time=0
note_on channel=0 note=74 velocity=0 time=60
note_on channel=0 note=65 velocity=55 time=0
note_on channel=0 note=50 velocity=46 time=0
note_on channel=0 note=65 velocity=0 time=60
note_on channel=0 note=70 velocity=50 time=0
note_on channel=0 note=70 velocity=0 time=60
note_on channel=0 note=74 velocity=50 time=0
note_on channel=0 note=74 velocity=0 time=60
note_on channel=0 note=77 velocity=50 time=0
note_on channel=0 note=77 velocity=0 time=60
note_on channel=0 note=70 velocity=55 time=0
note_on channel=0 note=53 velocity=46 time=0
note_on channel=0 note=70 velocity=0 time=60
note_on channel=0 note=74 velocity=50 time=0
note_on channel=0 note=74 velocity=0 time=60
note_on channel=0 note=77 velocity=50 time=0
note_on channel=0 note=77 velocity=0 time=0
note_on channel=0 note=82 velocity=50 time=0
note_on channel=0 note=82 velocity=0 time=0
note_on channel=0 note=53 velocity=0 time=0
note_on channel=0 note=50 velocity=0 time=0
note_on channel=0 note=46 velocity=0 time=0
note_on channel=0 note=81 velocity=69 time=0
note_on channel=0 note=46 velocity=54 time=0
note_on channel=0 note=48 velocity=54 time=0
control_change channel=0 control=64 value=0 time=8
control_change channel=0 control=64 value=127 time=29
note_on channel=0 note=81 velocity=0 time=23
note_on channel=0 note=87 velocity=50 time=0
note_on channel=0 note=87 velocity=0 time=0
note_on channel=0 note=84 velocity=50 time=0
note_on channel=0 note=84 velocity=0 time=60
note_on channel=0 note=81 velocity=50 time=0
note_on channel=0 note=81 velocity=0 time=60
note_on channel=0 note=77 velocity=54 time=0
note_on channel=0 note=51 velocity=47 time=0
note_on channel=0 note=77 velocity=0 time=60
note_on channel=0 note=84 velocity=50 time=0
note_on channel=0 note=84 velocity=0 time=60
note_on channel=0 note=81 velocity=50 time=0
note_on channel=0 note=81 velocity=0 time=60
note_on channel=0 note=77 velocity=50 time=0
note_on channel=0 note=77 velocity=0 time=60
note_on channel=0 note=75 velocity=56 time=0
note_on channel=0 note=53 velocity=47 time=0
note_on channel=0 note=75 velocity=0 time=60
note_on channel=0 note=81 velocity=50 time=0
note_on channel=0 note=81 velocity=0 time=60
note_on channel=0 note=77 velocity=50 time=0
note_on channel=0 note=77 velocity=0 time=60
note_on channel=0 note=75 velocity=50 time=0
note_on channel=0 note=75 velocity=0 time=60
note_on channel=0 note=72 velocity=54 time=0
note_on channel=0 note=57 velocity=47 time=0
note_on channel=0 note=72 velocity=0 time=60
note_on channel=0 note=77 velocity=50 time=0
note_on channel=0 note=77 velocity=0 time=60
note_on channel=0 note=75 velocity=50 time=0
note_on channel=0 note=75 velocity=0 time=0
note_on channel=0 note=72 velocity=50 time=0
note_on channel=0 note=72 velocity=0 time=0
note_on channel=0 note=57 velocity=0 time=0
note_on channel=0 note=51 velocity=0 time=0
note_on channel=0 note=46 velocity=0 time=0
note_on channel=0 note=48 velocity=0 time=0
note_on channel=0 note=53 velocity=0 time=0
note_on channel=0 note=70 velocity=69 time=0
note_on channel=0 note=34 velocity=64 time=0
control_change channel=0 control=64 value=0 time=0
control_change channel=0 control=64 value=127 time=50
note_on channel=0 note=70 velocity=0 time=0
note_on channel=0 note=50 velocity=50 time=0
note_on channel=0 note=50 velocity=0 time=60
note_on channel=0 note=53 velocity=50 time=0
note_on channel=0 note=53 velocity=0 time=60
note_on channel=0 note=58 velocity=50 time=0
note_on channel=0 note=58 velocity=0 time=60
note_on channel=0 note=34 velocity=0 time=0
note_on channel=0 note=62 velocity=53 time=0
note_on channel=0 note=46 velocity=46 time=0
note_on channel=0 note=62 velocity=0 time=60
note_on channel=0 note=65 velocity=50 time=0
note_on channel=0 note=65 velocity=0 time=60
note_on channel=0 note=70 velocity=50 time=0
note_on channel=0 note=70 velocity=0 time=60
note_on channel=0 note=74 velocity=50 time=0
note_on channel=0 note=74 velocity=0 time=60
note_on channel=0 note=65 velocity=55 time=0
note_on channel=0 note=50 velocity=46 time=0
note_on channel=0 note=65 velocity=0 time=60
note_on channel=0 note=70 velocity=50 time=0
note_on channel=0 note=70 velocity=0 time=60
note_on channel=0 note=74 velocity=50 time=0
note_on channel=0 note=74 velocity=0 time=60
note_on channel=0 note=77 velocity=50 time=0
note_on channel=0 note=77 velocity=0 time=60
note_on channel=0 note=70 velocity=55 time=0
note_on channel=0 note=53 velocity=46 time=0
note_on channel=0 note=70 velocity=0 time=60
note_on channel=0 note=74 velocity=50 time=0
note_on channel=0 note=74 velocity=0 time=60
note_on channel=0 note=77 velocity=50 time=0
note_on channel=0 note=77 velocity=0 time=0
note_on channel=0 note=82 velocity=50 time=0
note_on channel=0 note=82 velocity=0 time=0
note_on channel=0 note=53 velocity=0 time=0
note_on channel=0 note=50 velocity=0 time=0
note_on channel=0 note=46 velocity=0 time=0
note_on channel=0 note=81 velocity=72 time=0
note_on channel=0 note=46 velocity=54 time=0
note_on channel=0 note=48 velocity=54 time=0
control_change channel=0 control=64 value=0 time=8
control_change channel=0 control=64 value=127 time=29
note_on channel=0 note=81 velocity=0 time=23
note_on channel=0 note=87 velocity=50 time=0
note_on channel=0 note=87 velocity=0 time=0
note_on channel=0 note=84 velocity=50 time=0
note_on channel=0 note=84 velocity=0 time=60
note_on channel=0 note=81 velocity=50 time=0
note_on channel=0 note=81 velocity=0 time=60
note_on channel=0 note=77 velocity=54 time=0
note_on channel=0 note=51 velocity=47 time=0
note_on channel=0 note=77 velocity=0 time=60
note_on channel=0 note=84 velocity=50 time=0
note_on channel=0 note=84 velocity=0 time=60
note_on channel=0 note=81 velocity=50 time=0
note_on channel=0 note=81 velocity=0 time=60
note_on channel=0 note=77 velocity=50 time=0
note_on channel=0 note=77 velocity=0 time=60
note_on channel=0 note=75 velocity=56 time=0
note_on channel=0 note=53 velocity=47 time=0
note_on channel=0 note=75 velocity=0 time=60
note_on channel=0 note=81 velocity=50 time=0
note_on channel=0 note=81 velocity=0 time=60
note_on channel=0 note=77 velocity=50 time=0
note_on channel=0 note=77 velocity=0 time=60
note_on channel=0 note=75 velocity=50 time=0
note_on channel=0 note=75 velocity=0 time=60
note_on channel=0 note=72 velocity=54 time=0
note_on channel=0 note=57 velocity=47 time=0
note_on channel=0 note=72 velocity=0 time=60
note_on channel=0 note=77 velocity=50 time=0
note_on channel=0 note=77 velocity=0 time=60
note_on channel=0 note=75 velocity=50 time=0
note_on channel=0 note=75 velocity=0 time=0
note_on channel=0 note=72 velocity=50 time=0
note_on channel=0 note=72 velocity=0 time=0
note_on channel=0 note=57 velocity=0 time=0
note_on channel=0 note=51 velocity=0 time=0
note_on channel=0 note=46 velocity=0 time=0
note_on channel=0 note=48 velocity=0 time=0
note_on channel=0 note=53 velocity=0 time=0
note_on channel=0 note=70 velocity=74 time=0
note_on channel=0 note=34 velocity=69 time=0
control_change channel=0 control=64 value=0 time=0
control_change channel=0 control=64 value=127 time=50
note_on channel=0 note=70 velocity=0 time=0
note_on channel=0 note=50 velocity=50 time=0
note_on channel=0 note=50 velocity=0 time=60
note_on channel=0 note=53 velocity=50 time=0
note_on channel=0 note=53 velocity=0 time=60
note_on channel=0 note=58 velocity=50 time=0
note_on channel=0 note=58 velocity=0 time=60
note_on channel=0 note=34 velocity=0 time=0
note_on channel=0 note=62 velocity=53 time=0
note_on channel=0 note=46 velocity=52 time=0
note_on channel=0 note=62 velocity=0 time=60
note_on channel=0 note=65 velocity=50 time=0
note_on channel=0 note=65 velocity=0 time=60
note_on channel=0 note=70 velocity=50 time=0
note_on channel=0 note=70 velocity=0 time=60
note_on channel=0 note=74 velocity=50 time=0
note_on channel=0 note=74 velocity=0 time=60
note_on channel=0 note=65 velocity=55 time=0
note_on channel=0 note=50 velocity=52 time=0
note_on channel=0 note=65 velocity=0 time=60
note_on channel=0 note=70 velocity=50 time=0
note_on channel=0 note=70 velocity=0 time=60
note_on channel=0 note=74 velocity=50 time=0
note_on channel=0 note=74 velocity=0 time=60
note_on channel=0 note=77 velocity=50 time=0
note_on channel=0 note=77 velocity=0 time=60
note_on channel=0 note=70 velocity=55 time=0
note_on channel=0 note=53 velocity=52 time=0
note_on channel=0 note=70 velocity=0 time=60
note_on channel=0 note=74 velocity=50 time=0
note_on channel=0 note=74 velocity=0 time=60
note_on channel=0 note=77 velocity=50 time=0
note_on channel=0 note=77 velocity=0 time=0
note_on channel=0 note=82 velocity=50 time=0
note_on channel=0 note=82 velocity=0 time=0
note_on channel=0 note=53 velocity=0 time=0
note_on channel=0 note=50 velocity=0 time=0
note_on channel=0 note=46 velocity=0 time=0
note_on channel=0 note=32 velocity=77 time=0
control_change channel=0 control=64 value=0 time=0
control_change channel=0 control=64 value=127 time=50
note_on channel=0 note=50 velocity=55 time=0
note_on channel=0 note=50 velocity=0 time=60
note_on channel=0 note=53 velocity=55 time=0
note_on channel=0 note=53 velocity=0 time=60
note_on channel=0 note=58 velocity=55 time=0
note_on channel=0 note=58 velocity=0 time=60
note_on channel=0 note=32 velocity=0 time=0
note_on channel=0 note=62 velocity=58 time=0
note_on channel=0 note=44 velocity=56 time=0
note_on channel=0 note=62 velocity=0 time=60
note_on channel=0 note=65 velocity=55 time=0
note_on channel=0 note=65 velocity=0 time=60
note_on channel=0 note=70 velocity=55 time=0
note_on channel=0 note=70 velocity=0 time=60
note_on channel=0 note=74 velocity=55 time=0
note_on channel=0 note=74 velocity=0 time=60
note_on channel=0 note=65 velocity=60 time=0
note_on channel=0 note=50 velocity=56 time=0
note_on channel=0 note=65 velocity=0 time=60
note_on channel=0 note=70 velocity=55 time=0
note_on channel=0 note=70 velocity=0 time=60
note_on channel=0 note=74 velocity=55 time=0
note_on channel=0 note=74 velocity=0 time=60
note_on channel=0 note=77 velocity=55 time=0
note_on channel=0 note=77 velocity=0 time=60
note_on channel=0 note=70 velocity=60 time=0
note_on channel=0 note=53 velocity=56 time=0
note_on channel=0 note=70 velocity=0 time=60
note_on channel=0 note=74 velocity=55 time=0
note_on channel=0 note=74 velocity=0 time=60
note_on channel=0 note=77 velocity=55 time=0
note_on channel=0 note=77 velocity=0 time=0
note_on channel=0 note=82 velocity=55 time=0
note_on channel=0 note=82 velocity=0 time=0
note_on channel=0 note=53 velocity=0 time=0
note_on channel=0 note=50 velocity=0 time=0
note_on channel=0 note=44 velocity=0 time=0
note_on channel=0 note=31 velocity=83 time=0
control_change channel=0 control=64 value=0 time=0
control_change channel=0 control=64 value=127 time=50
note_on channel=0 note=51 velocity=55 time=0
note_on channel=0 note=51 velocity=0 time=60
note_on channel=0 note=55 velocity=60 time=0
note_on channel=0 note=55 velocity=0 time=60
note_on channel=0 note=58 velocity=60 time=0
note_on channel=0 note=58 velocity=0 time=60
note_on channel=0 note=31 velocity=0 time=0
note_on channel=0 note=63 velocity=63 time=0
note_on channel=0 note=43 velocity=57 time=0
note_on channel=0 note=63 velocity=0 time=60
note_on channel=0 note=67 velocity=60 time=0
note_on channel=0 note=67 velocity=0 time=60
note_on channel=0 note=70 velocity=60 time=0
note_on channel=0 note=70 velocity=0 time=60
note_on channel=0 note=75 velocity=60 time=0
note_on channel=0 note=75 velocity=0 time=60
note_on channel=0 note=67 velocity=66 time=0
note_on channel=0 note=46 velocity=57 time=0
note_on channel=0 note=67 velocity=0 time=60
note_on channel=0 note=70 velocity=60 time=0
note_on channel=0 note=70 velocity=0 time=60
note_on channel=0 note=75 velocity=60 time=0
note_on channel=0 note=75 velocity=0 time=60
note_on channel=0 note=79 velocity=60 time=0
note_on channel=0 note=79 velocity=0 time=60
note_on channel=0 note=70 velocity=66 time=0
note_on channel=0 note=51 velocity=57 time=0
note_on channel=0 note=70 velocity=0 time=60
note_on channel=0 note=75 velocity=60 time=0
note_on channel=0 note=75 velocity=0 time=60
note_on channel=0 note=79 velocity=60 time=0
note_on channel=0 note=79 velocity=0 time=0
note_on channel=0 note=82 velocity=60 time=0
note_on channel=0 note=82 velocity=0 time=0
note_on channel=0 note=51 velocity=0 time=0
note_on channel=0 note=46 velocity=0 time=0
note_on channel=0 note=43 velocity=0 time=0
note_on channel=0 note=38 velocity=59 time=0
control_change channel=0 control=64 value=0 time=6
control_change channel=0 control=64 value=127 time=37
note_on channel=0 note=38 velocity=0 time=0
note_on channel=0 note=41 velocity=60 time=0
note_on channel=0 note=41 velocity=0 time=60
note_on channel=0 note=44 velocity=61 time=0
note_on channel=0 note=44 velocity=0 time=60
note_on channel=0 note=46 velocity=61 time=0
note_on channel=0 note=46 velocity=0 time=60
note_on channel=0 note=50 velocity=62 time=0
note_on channel=0 note=50 velocity=0 time=60
note_on channel=0 note=53 velocity=64 time=0
note_on channel=0 note=53 velocity=0 time=60
note_on channel=0 note=56 velocity=65 time=0
note_on channel=0 note=56 velocity=0 time=60
note_on channel=0 note=58 velocity=66 time=0
note_on channel=0 note=58 velocity=0 time=60
note_on channel=0 note=62 velocity=66 time=0
note_on channel=0 note=62 velocity=0 time=60
note_on channel=0 note=65 velocity=59 time=0
note_on channel=0 note=65 velocity=0 time=60
note_on channel=0 note=68 velocity=61 time=0
note_on channel=0 note=68 velocity=0 time=60
note_on channel=0 note=70 velocity=64 time=0
note_on channel=0 note=70 velocity=0 time=60
note_on channel=0 note=74 velocity=67 time=0
note_on channel=0 note=74 velocity=0 time=6
note_on channel=0 note=77 velocity=68 time=0
note_on channel=0 note=77 velocity=0 time=15
note_on channel=0 note=80 velocity=70 time=0
note_on channel=0 note=80 velocity=0 time=6
note_on channel=0 note=84 velocity=68 time=0
note_on channel=0 note=84 velocity=0 time=12
note_on channel=0 note=82 velocity=65 time=0
note_on channel=0 note=82 velocity=0 time=0
note_on channel=0 note=80 velocity=50 time=0
note_on channel=0 note=63 velocity=42 time=0
control_change channel=0 control=64 value=0 time=0
note_on channel=0 note=80 velocity=0 time=120
note_on channel=0 note=79 velocity=46 time=0
note_on channel=0 note=70 velocity=34 time=0
note_on channel=0 note=70 velocity=0 time=120
note_on channel=0 note=79 velocity=0 time=0
note_on channel=0 note=63 velocity=0 time=0
note_on channel=0 note=77 velocity=46 time=0
note_on channel=0 note=67 velocity=38 time=0
note_on channel=0 note=77 velocity=0 time=120
note_on channel=0 note=75 velocity=46 time=0
note_on channel=0 note=70 velocity=34 time=0
note_on channel=0 note=70 velocity=0 time=120
note_on channel=0 note=75 velocity=0 time=0
note_on channel=0 note=67 velocity=0 time=0
note_on channel=0 note=74 velocity=50 time=0
note_on channel=0 note=68 velocity=38 time=0
note_on channel=0 note=65 velocity=38 time=0
control_change channel=0 control=64 value=127 time=78
note_on channel=0 note=68 velocity=0 time=42
note_on channel=0 note=70 velocity=34 time=0
note_on channel=0 note=70 velocity=0 time=120
note_on channel=0 note=65 velocity=0 time=0
note_on channel=0 note=74 velocity=0 time=0
note_on channel=0 note=75 velocity=47 time=0
note_on channel=0 note=67 velocity=37 time=0
note_on channel=0 note=63 velocity=37 time=0
control_change channel=0 control=64 value=0 time=5
control_change channel=0 control=64 value=127 time=80
note_on channel=0 note=67 velocity=0 time=0
note_on channel=0 note=70 velocity=34 time=0
note_on channel=0 note=70 velocity=0 time=0
note_on channel=0 note=63 velocity=0 time=0
note_on channel=0 note=75 velocity=0 time=0
note_on channel=0 note=76 velocity=53 time=0
note_on channel=0 note=62 velocity=43 time=0
note_on channel=0 note=68 velocity=43 time=0
control_change channel=0 control=64 value=0 time=0
note_on channel=0 note=70 velocity=34 time=120
note_on channel=0 note=70 velocity=0 time=60
note_on channel=0 note=76 velocity=0 time=60
note_on channel=0 note=77 velocity=49 time=0
note_on channel=0 note=70 velocity=34 time=0
note_on channel=0 note=70 velocity=0 time=60
note_on channel=0 note=70 velocity=34 time=60
note_on channel=0 note=70 velocity=0 time=60
note_on channel=0 note=77 velocity=0 time=60
note_on channel=0 note=70 velocity=37 time=0
note_on channel=0 note=70 velocity=0 time=60
note_on channel=0 note=83 velocity=45 time=0
note_on channel=0 note=70 velocity=34 time=0
note_on channel=0 note=83 velocity=0 time=24
note_on channel=0 note=84 velocity=43 time=0
control_change channel=0 control=64 value=127 time=7
note_on channel=0 note=84 velocity=0 time=17
note_on channel=0 note=83 velocity=45 time=0
note_on channel=0 note=70 velocity=0 time=12
note_on channel=0 note=83 velocity=0 time=12
note_on channel=0 note=81 velocity=42 time=0
note_on channel=0 note=81 velocity=0 time=24
note_on channel=0 note=83 velocity=42 time=0
note_on channel=0 note=83 velocity=0 time=0
note_on channel=0 note=86 velocity=50 time=0
note_on channel=0 note=70 velocity=34 time=0
control_change channel=0 control=64 value=0 time=13
note_on channel=0 note=70 velocity=0 time=47
note_on channel=0 note=86 velocity=0 time=0
note_on channel=0 note=84 velocity=46 time=0
note_on channel=0 note=70 velocity=34 time=0
note_on channel=0 note=70 velocity=0 time=60
note_on channel=0 note=62 velocity=0 time=0
note_on channel=0 note=68 velocity=0 time=0
note_on channel=0 note=84 velocity=0 time=0
note_on channel=0 note=82 velocity=50 time=0
note_on channel=0 note=62 velocity=42 time=0
note_on channel=0 note=82 velocity=0 time=120
note_on channel=0 note=80 velocity=44 time=0
note_on channel=0 note=70 velocity=34 time=0
note_on channel=0 note=70 velocity=0 time=120
note_on channel=0 note=80 velocity=0 time=0
note_on channel=0 note=62 velocity=0 time=0
note_on channel=0 note=79 velocity=46 time=0
note_on channel=0 note=68 velocity=38 time=0
note_on channel=0 note=79 velocity=0 time=120
note_on channel=0 note=77 velocity=43 time=0
note_on channel=0 note=70 velocity=34 time=0
note_on channel=0 note=70 velocity=0 time=120
note_on channel=0 note=77 velocity=0 time=0
note_on channel=0 note=68 velocity=0 time=0
note_on channel=0 note=74 velocity=50 time=0
note_on channel=0 note=67 velocity=38 time=0
control_change channel=0 control=64 value=127 time=78
note_on channel=0 note=74 velocity=0 time=42
note_on channel=0 note=75 velocity=44 time=0
note_on channel=0 note=70 velocity=34 time=0
note_on channel=0 note=70 velocity=0 time=120
note_on channel=0 note=75 velocity=0 time=0
note_on channel=0 note=67 velocity=0 time=0
note_on channel=0 note=76 velocity=47 time=0
note_on channel=0 note=62 velocity=37 time=0
control_change channel=0 control=64 value=0 time=5
control_change channel=0 control=64 value=127 time=66
note_on channel=0 note=76 velocity=0 time=0
note_on channel=0 note=77 velocity=43 time=0
note_on channel=0 note=70 velocity=34 time=0
note_on channel=0 note=70 velocity=0 time=0
note_on channel=0 note=77 velocity=0 time=0
note_on channel=0 note=62 velocity=0 time=0
note_on channel=0 note=78 velocity=53 time=0
note_on channel=0 note=63 velocity=43 time=0
control_change channel=0 control=64 value=0 time=4
note_on channel=0 note=70 velocity=34 time=116
note_on channel=0 note=70 velocity=0 time=60
note_on channel=0 note=63 velocity=0 time=60
note_on channel=0 note=78 velocity=0 time=0
note_on channel=0 note=79 velocity=49 time=0
note_on channel=0 note=63 velocity=43 time=0
note_on channel=0 note=71 velocity=34 time=120
note_on channel=0 note=71 velocity=0 time=60
note_on channel=0 note=63 velocity=0 time=60
note_on channel=0 note=63 velocity=43 time=0
note_on channel=0 note=79 velocity=0 time=0
note_on channel=0 note=79 velocity=51 time=0
note_on channel=0 note=72 velocity=34 time=0
note_on channel=0 note=72 velocity=0 time=60
note_on channel=0 note=79 velocity=0 time=0
note_on channel=0 note=63 velocity=0 time=0
note_on channel=0 note=80 velocity=58 time=0
note_on channel=0 note=80 velocity=0 time=0
note_on channel=0 note=79 velocity=52 time=0
note_on channel=0 note=79 velocity=0 time=0
note_on channel=0 note=77 velocity=50 time=0
control_change channel=0 control=64 value=0 time=0
note_on channel=0 note=77 velocity=0 time=120
note_on channel=0 note=75 velocity=44 time=0
note_on channel=0 note=67 velocity=34 time=0
note_on channel=0 note=67 velocity=0 time=120
note_on channel=0 note=75 velocity=0 time=0
note_on channel=0 note=74 velocity=46 time=0
note_on channel=0 note=63 velocity=38 time=0
note_on channel=0 note=74 velocity=0 time=120
note_on channel=0 note=72 velocity=43 time=0
note_on channel=0 note=67 velocity=34 time=0
note_on channel=0 note=67 velocity=0 time=120
note_on channel=0 note=72 velocity=0 time=0
note_on channel=0 note=63 velocity=0 time=0
note_on channel=0 note=71 velocity=50 time=0
note_on channel=0 note=65 velocity=38 time=0
note_on channel=0 note=62 velocity=38 time=0
control_change channel=0 control=64 value=127 time=78
note_on channel=0 note=65 velocity=0 time=42
note_on channel=0 note=67 velocity=34 time=0
note_on channel=0 note=67 velocity=0 time=120
note_on channel=0 note=62 velocity=0 time=0
note_on channel=0 note=71 velocity=0 time=0
note_on channel=0 note=72 velocity=47 time=0
note_on channel=0 note=63 velocity=37 time=0
note_on channel=0 note=60 velocity=37 time=0
control_change channel=0 control=64 value=0 time=5
control_change channel=0 control=64 value=127 time=80
note_on channel=0 note=63 velocity=0 time=0
note_on channel=0 note=67 velocity=34 time=0
note_on channel=0 note=67 velocity=0 time=0
note_on channel=0 note=60 velocity=0 time=0
note_on channel=0 note=72 velocity=0 time=0
note_on channel=0 note=73 velocity=53 time=0
note_on channel=0 note=59 velocity=43 time=0
note_on channel=0 note=65 velocity=43 time=0
control_change channel=0 control=64 value=0 time=0
note_on channel=0 note=67 velocity=34 time=120
note_on channel=0 note=67 velocity=0 time=60
note_on channel=0 note=73 velocity=0 time=60
note_on channel=0 note=74 velocity=49 time=0
note_on channel=0 note=67 velocity=34 time=0
note_on channel=0 note=67 velocity=0 time=60
note_on channel=0 note=67 velocity=34 time=60
note_on channel=0 note=67 velocity=0 time=60
note_on channel=0 note=74 velocity=0 time=60
note_on channel=0 note=67 velocity=34 time=0
note_on channel=0 note=67 velocity=0 time=0
note_on channel=0 note=65 velocity=0 time=0
note_on channel=0 note=59 velocity=0 time=0
note_on channel=0 note=79 velocity=34 time=0
note_on channel=0 note=79 velocity=0 time=0
note_on channel=0 note=80 velocity=40 time=0
note_on channel=0 note=80 velocity=0 time=120
note_on channel=0 note=79 velocity=36 time=0
note_on channel=0 note=79 velocity=0 time=120
note_on channel=0 note=77 velocity=40 time=0
note_on channel=0 note=77 velocity=0 time=120
note_on channel=0 note=75 velocity=36 time=0
note_on channel=0 note=75 velocity=0 time=120
note_on channel=0 note=74 velocity=38 time=0
note_on channel=0 note=74 velocity=0 time=0
note_on channel=0 note=72 velocity=36 time=0
note_on channel=0 note=72 velocity=0 time=0
note_on channel=0 note=75 velocity=34 time=0
note_on channel=0 note=67 velocity=28 time=0
note_on channel=0 note=67 velocity=0 time=0
note_on channel=0 note=75 velocity=0 time=0
note_on channel=0 note=77 velocity=40 time=0
note_on channel=0 note=68 velocity=34 time=0
note_on channel=0 note=68 velocity=0 time=120
note_on channel=0 note=77 velocity=0 time=0
note_on channel=0 note=75 velocity=36 time=0
note_on channel=0 note=67 velocity=30 time=0
note_on channel=0 note=67 velocity=0 time=120
note_on channel=0 note=75 velocity=0 time=0
note_on channel=0 note=74 velocity=40 time=0
note_on channel=0 note=65 velocity=34 time=0
note_on channel=0 note=65 velocity=0 time=120
note_on channel=0 note=74 velocity=0 time=0
note_on channel=0 note=72 velocity=36 time=0
note_on channel=0 note=63 velocity=30 time=0
note_on channel=0 note=63 velocity=0 time=120
note_on channel=0 note=72 velocity=0 time=0
note_on channel=0 note=70 velocity=38 time=0
note_on channel=0 note=62 velocity=32 time=0
note_on channel=0 note=62 velocity=0 time=0
note_on channel=0 note=70 velocity=0 time=0
note_on channel=0 note=69 velocity=36 time=0
note_on channel=0 note=60 velocity=30 time=0
note_on channel=0 note=60 velocity=0 time=0
note_on channel=0 note=69 velocity=0 time=0
note_on channel=0 note=63 velocity=40 time=0
note_on channel=0 note=63 velocity=0 time=0
note_on channel=0 note=65 velocity=45 time=0
note_on channel=0 note=65 velocity=0 time=120
note_on channel=0 note=63 velocity=41 time=0
note_on channel=0 note=63 velocity=0 time=120
note_on channel=0 note=62 velocity=45 time=0
note_on channel=0 note=62 velocity=0 time=120
note_on channel=0 note=60 velocity=40 time=0
note_on channel=0 note=60 velocity=0 time=120
note_on channel=0 note=58 velocity=43 time=0
note_on channel=0 note=58 velocity=0 time=0
note_on channel=0 note=57 velocity=40 time=0
note_on channel=0 note=57 velocity=0 time=0
note_on channel=0 note=55 velocity=46 time=0
note_on channel=0 note=55 velocity=0 time=120
note_on channel=0 note=53 velocity=40 time=0
note_on channel=0 note=53 velocity=0 time=120
note_on channel=0 note=51 velocity=40 time=0
note_on channel=0 note=51 velocity=0 time=120
note_on channel=0 note=50 velocity=40 time=0
note_on channel=0 note=50 velocity=0 time=120
note_on channel=0 note=48 velocity=51 time=0
note_on channel=0 note=57 velocity=36 time=60
note_on channel=0 note=57 velocity=0 time=60
note_on channel=0 note=48 velocity=0 time=0
note_on channel=0 note=58 velocity=36 time=0
note_on channel=0 note=46 velocity=41 time=0
note_on channel=0 note=58 velocity=0 time=60
note_on channel=0 note=60 velocity=37 time=0
note_on channel=0 note=60 velocity=0 time=60
note_on channel=0 note=46 velocity=0 time=0
note_on channel=0 note=62 velocity=37 time=0
note_on channel=0 note=45 velocity=45 time=0
note_on channel=0 note=62 velocity=0 time=60
note_on channel=0 note=63 velocity=38 time=0
note_on channel=0 note=63 velocity=0 time=0
note_on channel=0 note=45 velocity=0 time=0
note_on channel=0 note=65 velocity=39 time=0
note_on channel=0 note=43 velocity=47 time=0
note_on channel=0 note=65 velocity=0 time=60
note_on channel=0 note=67 velocity=39 time=0
note_on channel=0 note=67 velocity=0 time=0
note_on channel=0 note=43 velocity=0 time=0
note_on channel=0 note=69 velocity=40 time=0
note_on channel=0 note=41 velocity=51 time=0
note_on channel=0 note=69 velocity=0 time=69
note_on channel=0 note=70 velocity=42 time=0
note_on channel=0 note=70 velocity=0 time=80
note_on channel=0 note=71 velocity=43 time=0
note_on channel=0 note=71 velocity=0 time=34
note_on channel=0 note=72 velocity=44 time=0
note_on channel=0 note=72 velocity=0 time=80
note_on channel=0 note=73 velocity=44 time=0
note_on channel=0 note=73 velocity=0 time=14
note_on channel=0 note=74 velocity=45 time=0
note_on channel=0 note=74 velocity=0 time=19
note_on channel=0 note=75 velocity=49 time=0
note_on channel=0 note=75 velocity=0 time=80
note_on channel=0 note=69 velocity=42 time=0
note_on channel=0 note=69 velocity=0 time=59
note_on channel=0 note=70 velocity=42 time=0
note_on channel=0 note=70 velocity=0 time=19
note_on channel=0 note=71 velocity=45 time=0
note_on channel=0 note=71 velocity=0 time=80
note_on channel=0 note=72 velocity=48 time=0
note_on channel=0 note=72 velocity=0 time=59
note_on channel=0 note=74 velocity=50 time=0
note_on channel=0 note=74 velocity=0 time=19
note_on channel=0 note=75 velocity=52 time=0
note_on channel=0 note=75 velocity=0 time=24
note_on channel=0 note=69 velocity=47 time=0
note_on channel=0 note=69 velocity=0 time=29
note_on channel=0 note=70 velocity=49 time=0
note_on channel=0 note=70 velocity=0 time=34
note_on channel=0 note=71 velocity=50 time=0
note_on channel=0 note=71 velocity=0 time=39
note_on channel=0 note=72 velocity=52 time=0
note_on channel=0 note=72 velocity=0 time=44
note_on channel=0 note=74 velocity=53 time=0
note_on channel=0 note=74 velocity=0 time=49
note_on channel=0 note=75 velocity=62 time=0
note_on channel=0 note=75 velocity=0 time=4
note_on channel=0 note=69 velocity=54 time=0
note_on channel=0 note=69 velocity=0 time=60
note_on channel=0 note=68 velocity=51 time=0
note_on channel=0 note=68 velocity=0 time=34
note_on channel=0 note=69 velocity=52 time=0
note_on channel=0 note=69 velocity=0 time=19
note_on channel=0 note=70 velocity=53 time=0
note_on channel=0 note=70 velocity=0 time=4
note_on channel=0 note=71 velocity=54 time=0
note_on channel=0 note=71 velocity=0 time=60
note_on channel=0 note=72 velocity=56 time=0
note_on channel=0 note=72 velocity=0 time=34
note_on channel=0 note=73 velocity=57 time=0
note_on channel=0 note=73 velocity=0 time=19
note_on channel=0 note=74 velocity=59 time=0
note_on channel=0 note=74 velocity=0 time=4
note_on channel=0 note=75 velocity=61 time=0
note_on channel=0 note=75 velocity=0 time=9
note_on channel=0 note=76 velocity=59 time=0
note_on channel=0 note=76 velocity=0 time=0
note_on channel=0 note=79 velocity=50 time=0
note_on channel=0 note=79 velocity=0 time=0
note_on channel=0 note=77 velocity=46 time=0
note_on channel=0 note=77 velocity=0 time=110
note_on channel=0 note=41 velocity=0 time=0
note_on channel=0 note=77 velocity=50 time=0
note_on channel=0 note=67 velocity=42 time=0
note_on channel=0 note=77 velocity=0 time=40
note_on channel=0 note=67 velocity=0 time=20
note_on channel=0 note=75 velocity=46 time=20
note_on channel=0 note=75 velocity=0 time=0
note_on channel=0 note=65 velocity=34 time=0
note_on channel=0 note=74 velocity=46 time=40
note_on channel=0 note=74 velocity=0 time=40
note_on channel=0 note=65 velocity=0 time=40
note_on channel=0 note=74 velocity=46 time=0
note_on channel=0 note=62 velocity=38 time=0
note_on channel=0 note=74 velocity=0 time=40
note_on channel=0 note=72 velocity=46 time=40
note_on channel=0 note=72 velocity=0 time=40
note_on channel=0 note=65 velocity=34 time=0
note_on channel=0 note=70 velocity=46 time=40
note_on channel=0 note=70 velocity=0 time=40
note_on channel=0 note=65 velocity=0 time=40
note_on channel=0 note=62 velocity=0 time=0
note_on channel=0 note=70 velocity=50 time=0
note_on channel=0 note=63 velocity=38 time=0
note_on channel=0 note=60 velocity=38 time=0
note_on channel=0 note=70 velocity=0 time=40
note_on channel=0 note=68 velocity=44 time=40
note_on channel=0 note=68 velocity=0 time=40
note_on channel=0 note=63 velocity=0 time=0
note_on channel=0 note=65 velocity=34 time=0
note_on channel=0 note=69 velocity=44 time=40
note_on channel=0 note=69 velocity=0 time=40
note_on channel=0 note=65 velocity=0 time=40
note_on channel=0 note=60 velocity=0 time=0
note_on channel=0 note=72 velocity=47 time=0
note_on channel=0 note=62 velocity=37 time=0
note_on channel=0 note=58 velocity=37 time=0
note_on channel=0 note=72 velocity=0 time=40
note_on channel=0 note=69 velocity=44 time=40
note_on channel=0 note=69 velocity=0 time=0
note_on channel=0 note=62 velocity=0 time=0
note_on channel=0 note=65 velocity=34 time=0
note_on channel=0 note=70 velocity=44 time=40
note_on channel=0 note=70 velocity=0 time=40
note_on channel=0 note=65 velocity=0 time=0
note_on channel=0 note=58 velocity=0 time=0
note_on channel=0 note=71 velocity=53 time=0
note_on channel=0 note=57 velocity=43 time=0
note_on channel=0 note=63 velocity=43 time=0
note_on channel=0 note=65 velocity=34 time=120
note_on channel=0 note=65 velocity=0 time=60
note_on channel=0 note=71 velocity=0 time=60
note_on channel=0 note=72 velocity=49 time=0
note_on channel=0 note=65 velocity=34 time=0
note_on channel=0 note=65 velocity=0 time=60
note_on channel=0 note=65 velocity=34 time=60
note_on channel=0 note=65 velocity=0 time=60
note_on channel=0 note=72 velocity=0 time=0
note_on channel=0 note=65 velocity=37 time=0
note_on channel=0 note=65 velocity=0 time=60
note_on channel=0 note=78 velocity=45 time=0
note_on channel=0 note=65 velocity=34 time=0
note_on channel=0 note=65 velocity=0 time=60
note_on channel=0 note=78 velocity=0 time=0
note_on channel=0 note=81 velocity=50 time=0
note_on channel=0 note=65 velocity=34 time=0
note_on channel=0 note=65 velocity=0 time=60
note_on channel=0 note=81 velocity=0 time=0
note_on channel=0 note=79 velocity=46 time=0
note_on channel=0 note=65 velocity=34 time=0
note_on channel=0 note=65 velocity=0 time=60
note_on channel=0 note=57 velocity=0 time=0
note_on channel=0 note=63 velocity=0 time=0
note_on channel=0 note=79 velocity=0 time=0
note_on channel=0 note=79 velocity=50 time=0
note_on channel=0 note=57 velocity=42 time=0
note_on channel=0 note=79 velocity=0 time=40
note_on channel=0 note=77 velocity=46 time=40
note_on channel=0 note=77 velocity=0 time=0
note_on channel=0 note=65 velocity=34 time=0
note_on channel=0 note=75 velocity=46 time=40
note_on channel=0 note=75 velocity=0 time=40
note_on channel=0 note=65 velocity=0 time=40
note_on channel=0 note=57 velocity=0 time=0
note_on channel=0 note=75 velocity=46 time=0
note_on channel=0 note=63 velocity=38 time=0
note_on channel=0 note=75 velocity=0 time=40
note_on channel=0 note=74 velocity=42 time=40
note_on channel=0 note=74 velocity=0 time=40
note_on channel=0 note=65 velocity=34 time=0
note_on channel=0 note=72 velocity=42 time=40
note_on channel=0 note=72 velocity=0 time=40
note_on channel=0 note=65 velocity=0 time=0
note_on channel=0 note=63 velocity=0 time=0
note_on channel=0 note=72 velocity=50 time=0
note_on channel=0 note=62 velocity=38 time=0
note_on channel=0 note=72 velocity=0 time=40
note_on channel=0 note=69 velocity=44 time=40
note_on channel=0 note=69 velocity=0 time=40
note_on channel=0 note=65 velocity=34 time=0
note_on channel=0 note=70 velocity=44 time=40
note_on channel=0 note=70 velocity=0 time=40
note_on channel=0 note=65 velocity=0 time=40
note_on channel=0 note=62 velocity=0 time=0
note_on channel=0 note=74 velocity=47 time=0
note_on channel=0 note=57 velocity=37 time=0
note_on channel=0 note=74 velocity=0 time=40
note_on channel=0 note=71 velocity=44 time=40
note_on channel=0 note=71 velocity=0 time=0
note_on channel=0 note=65 velocity=34 time=0
note_on channel=0 note=72 velocity=44 time=40
note_on channel=0 note=72 velocity=0 time=40
note_on channel=0 note=65 velocity=0 time=0
note_on channel=0 note=57 velocity=0 time=0
note_on channel=0 note=73 velocity=53 time=0
note_on channel=0 note=58 velocity=43 time=0
note_on channel=0 note=65 velocity=34 time=120
note_on channel=0 note=65 velocity=0 time=60
note_on channel=0 note=73 velocity=0 time=60
note_on channel=0 note=74 velocity=49 time=0
note_on channel=0 note=65 velocity=34 time=0
note_on channel=0 note=65 velocity=0 time=60
note_on channel=0 note=65 velocity=34 time=60
note_on channel=0 note=65 velocity=0 time=60
note_on channel=0 note=65 velocity=37 time=60
note_on channel=0 note=65 velocity=0 time=60
note_on channel=0 note=74 velocity=0 time=20
note_on channel=0 note=77 velocity=51 time=0
note_on channel=0 note=65 velocity=34 time=0
note_on channel=0 note=77 velocity=0 time=40
note_on channel=0 note=76 velocity=48 time=0
note_on channel=0 note=65 velocity=0 time=20
note_on channel=0 note=76 velocity=0 time=0
note_on channel=0 note=58 velocity=0 time=0
note_on channel=0 note=77 velocity=58 time=0
note_on channel=0 note=59 velocity=34 time=0
note_on channel=0 note=77 velocity=0 time=80
note_on channel=0 note=79 velocity=52 time=0
note_on channel=0 note=65 velocity=34 time=0
note_on channel=0 note=79 velocity=0 time=40
note_on channel=0 note=74 velocity=49 time=0
note_on channel=0 note=65 velocity=0 time=20
note_on channel=0 note=74 velocity=0 time=60
note_on channel=0 note=59 velocity=0 time=0
note_on channel=0 note=77 velocity=56 time=0
note_on channel=0 note=60 velocity=42 time=0
control_change channel=0 control=64 value=127 time=57
note_on channel=0 note=77 velocity=0 time=23
note_on channel=0 note=75 velocity=52 time=0
note_on channel=0 note=65 velocity=34 time=40
note_on channel=0 note=75 velocity=0 time=40
note_on channel=0 note=74 velocity=51 time=0
note_on channel=0 note=74 velocity=0 time=80
note_on channel=0 note=65 velocity=0 time=0
note_on channel=0 note=60 velocity=0 time=0
note_on channel=0 note=75 velocity=57 time=0
note_on channel=0 note=57 velocity=38 time=0
control_change channel=0 control=64 value=0 time=11
control_change channel=0 control=64 value=127 time=53
note_on channel=0 note=75 velocity=0 time=16
note_on channel=0 note=77 velocity=52 time=0
note_on channel=0 note=65 velocity=34 time=40
note_on channel=0 note=77 velocity=0 time=40
note_on channel=0 note=72 velocity=52 time=0
note_on channel=0 note=72 velocity=0 time=0
note_on channel=0 note=65 velocity=0 time=0
note_on channel=0 note=57 velocity=0 time=0
note_on channel=0 note=75 velocity=57 time=0
note_on channel=0 note=58 velocity=42 time=0
control_change channel=0 control=64 value=0 time=7
control_change channel=0 control=64 value=127 time=64
note_on channel=0 note=75 velocity=0 time=9
note_on channel=0 note=74 velocity=52 time=0
note_on channel=0 note=65 velocity=34 time=40
note_on channel=0 note=74 velocity=0 time=40
note_on channel=0 note=73 velocity=51 time=0
note_on channel=0 note=73 velocity=0 time=80
note_on channel=0 note=65 velocity=0 time=0
note_on channel=0 note=58 velocity=0 time=0
note_on channel=0 note=74 velocity=59 time=0
note_on channel=0 note=59 velocity=38 time=0
control_change channel=0 control=64 value=0 time=7
control_change channel=0 control=64 value=127 time=64
note_on channel=0 note=74 velocity=0 time=9
note_on channel=0 note=79 velocity=52 time=0
note_on channel=0 note=65 velocity=34 time=0
note_on channel=0 note=79 velocity=0 time=40
note_on channel=0 note=74 velocity=55 time=0
note_on channel=0 note=74 velocity=0 time=0
note_on channel=0 note=65 velocity=0 time=0
note_on channel=0 note=59 velocity=0 time=0
note_on channel=0 note=77 velocity=62 time=0
note_on channel=0 note=60 velocity=47 time=0
control_change channel=0 control=64 value=0 time=8
control_change channel=0 control=64 value=127 time=67
note_on channel=0 note=77 velocity=0 time=5
note_on channel=0 note=75 velocity=56 time=0
note_on channel=0 note=65 velocity=34 time=40
note_on channel=0 note=75 velocity=0 time=40
note_on channel=0 note=74 velocity=56 time=0
note_on channel=0 note=74 velocity=0 time=80
note_on channel=0 note=65 velocity=0 time=0
note_on channel=0 note=60 velocity=0 time=0
note_on channel=0 note=75 velocity=62 time=0
note_on channel=0 note=57 velocity=42 time=0
control_change channel=0 control=64 value=0 time=7
control_change channel=0 control=64 value=127 time=50
note_on channel=0 note=75 velocity=0 time=23
note_on channel=0 note=77 velocity=54 time=0
note_on channel=0 note=65 velocity=34 time=40
note_on channel=0 note=77 velocity=0 time=40
note_on channel=0 note=72 velocity=54 time=0
note_on channel=0 note=72 velocity=0 time=80
note_on channel=0 note=65 velocity=0 time=0
note_on channel=0 note=57 velocity=0 time=0
note_on channel=0 note=75 velocity=61 time=0
note_on channel=0 note=58 velocity=48 time=0
control_change channel=0 control=64 value=0 time=8
note_on channel=0 note=75 velocity=0 time=52
note_on channel=0 note=74 velocity=55 time=0
control_change channel=0 control=64 value=127 time=9
note_on channel=0 note=74 velocity=0 time=0
note_on channel=0 note=73 velocity=52 time=0
note_on channel=0 note=62 velocity=35 time=0
note_on channel=0 note=73 velocity=0 time=60
note_on channel=0 note=74 velocity=53 time=0
note_on channel=0 note=74 velocity=0 time=60
note_on channel=0 note=62 velocity=0 time=0
note_on channel=0 note=58 velocity=0 time=0
note_on channel=0 note=75 velocity=55 time=0
note_on channel=0 note=57 velocity=44 time=0
control_change channel=0 control=64 value=0 time=5
note_on channel=0 note=75 velocity=0 time=55
note_on channel=0 note=76 velocity=56 time=0
control_change channel=0 control=64 value=127 time=9
note_on channel=0 note=76 velocity=0 time=51
note_on channel=0 note=77 velocity=57 time=0
note_on channel=0 note=60 velocity=39 time=0
note_on channel=0 note=77 velocity=0 time=60
note_on channel=0 note=78 velocity=58 time=0
note_on channel=0 note=78 velocity=0 time=0
note_on channel=0 note=60 velocity=0 time=0
note_on channel=0 note=57 velocity=0 time=0
note_on channel=0 note=79 velocity=64 time=0
note_on channel=0 note=55 velocity=55 time=0
control_change channel=0 control=64 value=0 time=0
note_on channel=0 note=79 velocity=0 time=60
note_on channel=0 note=80 velocity=60 time=0
control_change channel=0 control=64 value=127 time=9
note_on channel=0 note=80 velocity=0 time=51
note_on channel=0 note=81 velocity=61 time=0
note_on channel=0 note=58 velocity=47 time=0
note_on channel=0 note=81 velocity=0 time=60
note_on channel=0 note=82 velocity=62 time=0
note_on channel=0 note=55 velocity=0 time=50
note_on channel=0 note=82 velocity=0 time=10
note_on channel=0 note=58 velocity=0 time=0
note_on channel=0 note=83 velocity=63 time=0
note_on channel=0 note=55 velocity=57 time=0
control_change channel=0 control=64 value=0 time=11
note_on channel=0 note=83 velocity=0 time=49
note_on channel=0 note=84 velocity=65 time=0
control_change channel=0 control=64 value=127 time=15
note_on channel=0 note=84 velocity=0 time=45
note_on channel=0 note=85 velocity=67 time=0
note_on channel=0 note=58 velocity=50 time=0
note_on channel=0 note=85 velocity=0 time=60
note_on channel=0 note=86 velocity=68 time=0
note_on channel=0 note=86 velocity=0 time=0
note_on channel=0 note=58 velocity=0 time=0
note_on channel=0 note=55 velocity=0 time=0
note_on channel=0 note=88 velocity=79 time=0
note_on channel=0 note=48 velocity=63 time=0
control_change channel=0 control=64 value=0 time=10
note_on channel=0 note=88 velocity=0 time=50
note_on channel=0 note=86 velocity=62 time=0
control_change channel=0 control=64 value=127 time=9
note_on channel=0 note=86 velocity=0 time=51
note_on channel=0 note=84 velocity=65 time=0
note_on channel=0 note=58 velocity=46 time=0
note_on channel=0 note=84 velocity=0 time=60
note_on channel=0 note=82 velocity=59 time=0
note_on channel=0 note=48 velocity=0 time=50
note_on channel=0 note=82 velocity=0 time=10
note_on channel=0 note=58 velocity=0 time=0
note_on channel=0 note=81 velocity=64 time=0
note_on channel=0 note=48 velocity=53 time=0
control_change channel=0 control=64 value=0 time=8
control_change channel=0 control=64 value=127 time=49
note_on channel=0 note=81 velocity=0 time=3
note_on channel=0 note=79 velocity=59 time=0
note_on channel=0 note=79 velocity=0 time=0
note_on channel=0 note=77 velocity=58 time=0
note_on channel=0 note=58 velocity=34 time=0
note_on channel=0 note=77 velocity=0 time=0
note_on channel=0 note=76 velocity=54 time=0
note_on channel=0 note=76 velocity=0 time=0
note_on channel=0 note=48 velocity=0 time=0
note_on channel=0 note=79 velocity=58 time=0
note_on channel=0 note=53 velocity=43 time=0
control_change channel=0 control=64 value=0 time=12
note_on channel=0 note=58 velocity=0 time=98
note_on channel=0 note=58 velocity=29 time=10
note_on channel=0 note=58 velocity=0 time=120
note_on channel=0 note=79 velocity=0 time=0
note_on channel=0 note=77 velocity=53 time=0
note_on channel=0 note=57 velocity=35 time=0
note_on channel=0 note=57 velocity=0 time=120
note_on channel=0 note=55 velocity=29 time=0
note_on channel=0 note=55 velocity=0 time=120
note_on channel=0 note=77 velocity=0 time=0
note_on channel=0 note=57 velocity=34 time=0
note_on channel=0 note=65 velocity=38 time=0
note_on channel=0 note=77 velocity=45 time=0
note_on channel=0 note=77 velocity=0 time=0
note_on channel=0 note=53 velocity=0 time=0
note_on channel=0 note=57 velocity=0 time=0
note_on channel=0 note=65 velocity=0 time=0
note_on channel=0 note=67 velocity=42 time=0
note_on channel=0 note=79 velocity=50 time=0
note_on channel=0 note=79 velocity=0 time=120
note_on channel=0 note=67 velocity=0 time=0
note_on channel=0 note=65 velocity=39 time=0
note_on channel=0 note=77 velocity=46 time=0
note_on channel=0 note=77 velocity=0 time=120
note_on channel=0 note=65 velocity=0 time=0
note_on channel=0 note=46 velocity=42 time=0
note_on channel=0 note=63 velocity=42 time=80
note_on channel=0 note=75 velocity=50 time=0
note_on channel=0 note=75 velocity=0 time=40
note_on channel=0 note=63 velocity=0 time=0
note_on channel=0 note=53 velocity=34 time=0
note_on channel=0 note=62 velocity=35 time=40
note_on channel=0 note=74 velocity=41 time=0
note_on channel=0 note=74 velocity=0 time=40
note_on channel=0 note=62 velocity=0 time=0
note_on channel=0 note=53 velocity=0 time=40
note_on channel=0 note=46 velocity=0 time=0
note_on channel=0 note=50 velocity=38 time=0
note_on channel=0 note=60 velocity=39 time=80
note_on channel=0 note=72 velocity=46 time=0
note_on channel=0 note=72 velocity=0 time=40
note_on channel=0 note=60 velocity=0 time=0
note_on channel=0 note=53 velocity=34 time=0
note_on channel=0 note=58 velocity=35 time=40
note_on channel=0 note=70 velocity=41 time=0
note_on channel=0 note=70 velocity=0 time=40
note_on channel=0 note=58 velocity=0 time=0
note_on channel=0 note=53 velocity=0 time=0
note_on channel=0 note=50 velocity=0 time=0
note_on channel=0 note=51 velocity=38 time=0
note_on channel=0 note=48 velocity=38 time=0
note_on channel=0 note=56 velocity=42 time=80
note_on channel=0 note=68 velocity=50 time=0
note_on channel=0 note=68 velocity=0 time=40
note_on channel=0 note=56 velocity=0 time=0
note_on channel=0 note=51 velocity=0 time=0
note_on channel=0 note=53 velocity=34 time=0
note_on channel=0 note=57 velocity=35 time=40
note_on channel=0 note=69 velocity=41 time=0
note_on channel=0 note=69 velocity=0 time=40
note_on channel=0 note=57 velocity=0 time=0
note_on channel=0 note=53 velocity=0 time=40
note_on channel=0 note=48 velocity=0 time=0
note_on channel=0 note=50 velocity=37 time=0
note_on channel=0 note=46 velocity=37 time=0
note_on channel=0 note=57 velocity=39 time=80
note_on channel=0 note=69 velocity=46 time=0
note_on channel=0 note=69 velocity=0 time=0
note_on channel=0 note=57 velocity=0 time=0
note_on channel=0 note=50 velocity=0 time=0
note_on channel=0 note=53 velocity=34 time=0
note_on channel=0 note=70 velocity=41 time=40
note_on channel=0 note=58 velocity=35 time=0
note_on channel=0 note=58 velocity=0 time=20
note_on channel=0 note=70 velocity=0 time=0
note_on channel=0 note=53 velocity=0 time=0
note_on channel=0 note=46 velocity=0 time=0
note_on channel=0 note=59 velocity=45 time=0
note_on channel=0 note=71 velocity=53 time=0
note_on channel=0 note=45 velocity=43 time=0
note_on channel=0 note=51 velocity=43 time=0
note_on channel=0 note=53 velocity=34 time=120
note_on channel=0 note=53 velocity=0 time=60
note_on channel=0 note=59 velocity=0 time=60
note_on channel=0 note=71 velocity=0 time=0
note_on channel=0 note=72 velocity=49 time=0
note_on channel=0 note=60 velocity=41 time=0
note_on channel=0 note=53 velocity=34 time=0
note_on channel=0 note=53 velocity=0 time=60
note_on channel=0 note=53 velocity=34 time=60
note_on channel=0 note=53 velocity=0 time=60
note_on channel=0 note=53 velocity=37 time=60
note_on channel=0 note=53 velocity=0 time=60
note_on channel=0 note=72 velocity=0 time=0
note_on channel=0 note=60 velocity=0 time=0
note_on channel=0 note=78 velocity=45 time=0
note_on channel=0 note=66 velocity=38 time=0
note_on channel=0 note=53 velocity=34 time=0
note_on channel=0 note=53 velocity=0 time=60
note_on channel=0 note=78 velocity=0 time=0
note_on channel=0 note=66 velocity=0 time=0
note_on channel=0 note=69 velocity=42 time=0
note_on channel=0 note=81 velocity=50 time=0
note_on channel=0 note=53 velocity=34 time=0
note_on channel=0 note=53 velocity=0 time=60
note_on channel=0 note=69 velocity=0 time=0
note_on channel=0 note=81 velocity=0 time=0
note_on channel=0 note=67 velocity=39 time=0
note_on channel=0 note=79 velocity=46 time=0
note_on channel=0 note=53 velocity=34 time=0
note_on channel=0 note=53 velocity=0 time=60
note_on channel=0 note=67 velocity=0 time=0
note_on channel=0 note=51 velocity=0 time=0
note_on channel=0 note=45 velocity=0 time=0
note_on channel=0 note=79 velocity=0 time=0
note_on channel=0 note=45 velocity=42 time=0
note_on channel=0 note=65 velocity=42 time=80
note_on channel=0 note=77 velocity=50 time=0
note_on channel=0 note=77 velocity=0 time=40
note_on channel=0 note=65 velocity=0 time=0
note_on channel=0 note=53 velocity=34 time=0
note_on channel=0 note=63 velocity=35 time=40
note_on channel=0 note=75 velocity=41 time=0
note_on channel=0 note=75 velocity=0 time=40
note_on channel=0 note=63 velocity=0 time=0
note_on channel=0 note=53 velocity=0 time=40
note_on channel=0 note=45 velocity=0 time=0
note_on channel=0 note=51 velocity=38 time=0
note_on channel=0 note=62 velocity=39 time=80
note_on channel=0 note=74 velocity=46 time=0
note_on channel=0 note=74 velocity=0 time=40
note_on channel=0 note=62 velocity=0 time=0
note_on channel=0 note=53 velocity=34 time=0
note_on channel=0 note=72 velocity=41 time=40
note_on channel=0 note=60 velocity=35 time=0
note_on channel=0 note=60 velocity=0 time=40
note_on channel=0 note=72 velocity=0 time=0
note_on channel=0 note=53 velocity=0 time=0
note_on channel=0 note=51 velocity=0 time=0
note_on channel=0 note=50 velocity=38 time=0
note_on channel=0 note=57 velocity=42 time=80
note_on channel=0 note=69 velocity=50 time=0
note_on channel=0 note=69 velocity=0 time=40
note_on channel=0 note=57 velocity=0 time=0
note_on channel=0 note=53 velocity=34 time=0
note_on channel=0 note=58 velocity=35 time=40
note_on channel=0 note=70 velocity=41 time=0
note_on channel=0 note=70 velocity=0 time=40
note_on channel=0 note=58 velocity=0 time=0
note_on channel=0 note=53 velocity=0 time=40
note_on channel=0 note=50 velocity=0 time=0
note_on channel=0 note=45 velocity=37 time=0
note_on channel=0 note=59 velocity=39 time=80
note_on channel=0 note=71 velocity=46 time=0
note_on channel=0 note=71 velocity=0 time=0
note_on channel=0 note=59 velocity=0 time=0
note_on channel=0 note=53 velocity=34 time=0
note_on channel=0 note=72 velocity=41 time=40
note_on channel=0 note=60 velocity=35 time=0
note_on channel=0 note=60 velocity=0 time=40
note_on channel=0 note=72 velocity=0 time=0
note_on channel=0 note=53 velocity=0 time=0
note_on channel=0 note=45 velocity=0 time=0
note_on channel=0 note=61 velocity=45 time=0
note_on channel=0 note=73 velocity=53 time=0
note_on channel=0 note=46 velocity=43 time=0
note_on channel=0 note=53 velocity=34 time=120
note_on channel=0 note=53 velocity=0 time=60
note_on channel=0 note=61 velocity=0 time=60
note_on channel=0 note=73 velocity=0 time=0
note_on channel=0 note=74 velocity=49 time=0
note_on channel=0 note=62 velocity=41 time=0
note_on channel=0 note=53 velocity=34 time=0
note_on channel=0 note=53 velocity=0 time=60
note_on channel=0 note=53 velocity=34 time=60
note_on channel=0 note=53 velocity=0 time=60
note_on channel=0 note=53 velocity=40 time=60
note_on channel=0 note=53 velocity=0 time=60
note_on channel=0 note=74 velocity=0 time=20
note_on channel=0 note=77 velocity=56 time=0
note_on channel=0 note=53 velocity=37 time=0
note_on channel=0 note=77 velocity=0 time=40
note_on channel=0 note=76 velocity=56 time=0
note_on channel=0 note=53 velocity=0 time=20
note_on channel=0 note=46 velocity=0 time=0
note_on channel=0 note=62 velocity=0 time=0
note_on channel=0 note=76 velocity=0 time=0
note_on channel=0 note=68 velocity=54 time=0
note_on channel=0 note=77 velocity=62 time=0
note_on channel=0 note=47 velocity=37 time=0
note_on channel=0 note=77 velocity=0 time=80
note_on channel=0 note=79 velocity=57 time=0
note_on channel=0 note=53 velocity=37 time=0
note_on channel=0 note=79 velocity=0 time=40
note_on channel=0 note=74 velocity=51 time=0
note_on channel=0 note=53 velocity=0 time=20
note_on channel=0 note=74 velocity=0 time=60
note_on channel=0 note=47 velocity=0 time=0
note_on channel=0 note=77 velocity=62 time=0
note_on channel=0 note=48 velocity=47 time=0
control_change channel=0 control=64 value=127 time=57
note_on channel=0 note=77 velocity=0 time=23
note_on channel=0 note=75 velocity=58 time=0
note_on channel=0 note=53 velocity=38 time=40
note_on channel=0 note=75 velocity=0 time=40
note_on channel=0 note=74 velocity=54 time=0
note_on channel=0 note=74 velocity=0 time=80
note_on channel=0 note=53 velocity=0 time=0
note_on channel=0 note=48 velocity=0 time=0
note_on channel=0 note=68 velocity=0 time=0
note_on channel=0 note=75 velocity=63 time=0
note_on channel=0 note=69 velocity=46 time=0
note_on channel=0 note=41 velocity=42 time=0
control_change channel=0 control=64 value=0 time=11
control_change channel=0 control=64 value=127 time=53
note_on channel=0 note=75 velocity=0 time=16
note_on channel=0 note=77 velocity=58 time=0
note_on channel=0 note=53 velocity=38 time=40
note_on channel=0 note=77 velocity=0 time=40
note_on channel=0 note=72 velocity=53 time=0
note_on channel=0 note=72 velocity=0 time=80
note_on channel=0 note=53 velocity=0 time=0
note_on channel=0 note=41 velocity=0 time=0
note_on channel=0 note=69 velocity=0 time=0
note_on channel=0 note=75 velocity=64 time=0
note_on channel=0 note=70 velocity=46 time=0
note_on channel=0 note=46 velocity=47 time=0
control_change channel=0 control=64 value=0 time=7
control_change channel=0 control=64 value=127 time=64
note_on channel=0 note=75 velocity=0 time=9
note_on channel=0 note=74 velocity=59 time=0
note_on channel=0 note=53 velocity=38 time=40
note_on channel=0 note=74 velocity=0 time=40
note_on channel=0 note=73 velocity=59 time=0
note_on channel=0 note=73 velocity=0 time=80
note_on channel=0 note=53 velocity=0 time=0
note_on channel=0 note=46 velocity=0 time=0
note_on channel=0 note=70 velocity=0 time=0
note_on channel=0 note=74 velocity=67 time=0
note_on channel=0 note=68 velocity=47 time=0
note_on channel=0 note=47 velocity=43 time=0
control_change channel=0 control=64 value=0 time=7
control_change channel=0 control=64 value=127 time=64
note_on channel=0 note=74 velocity=0 time=9
note_on channel=0 note=79 velocity=62 time=0
note_on channel=0 note=53 velocity=39 time=0
note_on channel=0 note=79 velocity=0 time=40
note_on channel=0 note=74 velocity=59 time=0
note_on channel=0 note=74 velocity=0 time=0
note_on channel=0 note=53 velocity=0 time=0
note_on channel=0 note=47 velocity=0 time=0
note_on channel=0 note=77 velocity=71 time=0
note_on channel=0 note=48 velocity=54 time=0
control_change channel=0 control=64 value=0 time=8
control_change channel=0 control=64 value=127 time=67
note_on channel=0 note=77 velocity=0 time=5
note_on channel=0 note=75 velocity=64 time=0
note_on channel=0 note=53 velocity=47 time=40
note_on channel=0 note=75 velocity=0 time=40
note_on channel=0 note=74 velocity=61 time=0
note_on channel=0 note=74 velocity=0 time=80
note_on channel=0 note=53 velocity=0 time=0
note_on channel=0 note=48 velocity=0 time=0
note_on channel=0 note=68 velocity=0 time=0
note_on channel=0 note=75 velocity=72 time=0
note_on channel=0 note=69 velocity=47 time=0
note_on channel=0 note=41 velocity=53 time=0
control_change channel=0 control=64 value=0 time=7
control_change channel=0 control=64 value=127 time=50
note_on channel=0 note=75 velocity=0 time=23
note_on channel=0 note=77 velocity=66 time=0
note_on channel=0 note=53 velocity=44 time=40
note_on channel=0 note=77 velocity=0 time=40
note_on channel=0 note=72 velocity=63 time=0
note_on channel=0 note=72 velocity=0 time=60
note_on channel=0 note=53 velocity=0 time=20
note_on channel=0 note=41 velocity=0 time=0
note_on channel=0 note=69 velocity=0 time=0
note_on channel=0 note=70 velocity=60 time=0
note_on channel=0 note=75 velocity=71 time=0
note_on channel=0 note=46 velocity=64 time=0
control_change channel=0 control=64 value=0 time=8
control_change channel=0 control=64 value=127 time=61
note_on channel=0 note=75 velocity=0 time=11
note_on channel=0 note=70 velocity=0 time=0
note_on channel=0 note=62 velocity=53 time=0
note_on channel=0 note=74 velocity=63 time=0
note_on channel=0 note=53 velocity=49 time=0
note_on channel=0 note=74 velocity=0 time=40
note_on channel=0 note=62 velocity=0 time=0
note_on channel=0 note=61 velocity=53 time=0
note_on channel=0 note=73 velocity=63 time=0
note_on channel=0 note=73 velocity=0 time=80
note_on channel=0 note=53 velocity=0 time=0
note_on channel=0 note=46 velocity=0 time=0
note_on channel=0 note=61 velocity=0 time=0
note_on channel=0 note=62 velocity=57 time=0
note_on channel=0 note=74 velocity=67 time=0
note_on channel=0 note=44 velocity=60 time=0
control_change channel=0 control=64 value=0 time=5
control_change channel=0 control=64 value=127 time=64
note_on channel=0 note=74 velocity=0 time=11
note_on channel=0 note=62 velocity=0 time=0
note_on channel=0 note=63 velocity=60 time=0
note_on channel=0 note=75 velocity=71 time=0
control_change channel=0 control=64 value=0 time=10
note_on channel=0 note=75 velocity=0 time=30
note_on channel=0 note=63 velocity=0 time=0
note_on channel=0 note=46 velocity=45 time=0
note_on channel=0 note=64 velocity=60 time=40
note_on channel=0 note=76 velocity=71 time=0
note_on channel=0 note=76 velocity=0 time=40
note_on channel=0 note=64 velocity=0 time=0
note_on channel=0 note=46 velocity=0 time=0
note_on channel=0 note=44 velocity=0 time=0
note_on channel=0 note=65 velocity=64 time=0
note_on channel=0 note=77 velocity=76 time=0
note_on channel=0 note=43 velocity=73 time=0
note_on channel=0 note=77 velocity=0 time=40
note_on channel=0 note=65 velocity=0 time=0
note_on channel=0 note=66 velocity=61 time=40
note_on channel=0 note=78 velocity=72 time=0
note_on channel=0 note=78 velocity=0 time=40
note_on channel=0 note=66 velocity=0 time=0
note_on channel=0 note=46 velocity=60 time=0
note_on channel=0 note=67 velocity=61 time=40
note_on channel=0 note=79 velocity=72 time=0
note_on channel=0 note=79 velocity=0 time=40
note_on channel=0 note=67 velocity=0 time=0
note_on channel=0 note=43 velocity=0 time=30
note_on channel=0 note=46 velocity=0 time=10
note_on channel=0 note=68 velocity=64 time=0
note_on channel=0 note=80 velocity=76 time=0
note_on channel=0 note=39 velocity=69 time=0
note_on channel=0 note=80 velocity=0 time=40
note_on channel=0 note=68 velocity=0 time=0
note_on channel=0 note=69 velocity=67 time=40
note_on channel=0 note=81 velocity=80 time=0
note_on channel=0 note=81 velocity=0 time=40
note_on channel=0 note=69 velocity=0 time=0
note_on channel=0 note=51 velocity=60 time=0
note_on channel=0 note=70 velocity=67 time=40
note_on channel=0 note=82 velocity=80 time=0
note_on channel=0 note=82 velocity=0 time=40
note_on channel=0 note=70 velocity=0 time=0
note_on channel=0 note=51 velocity=0 time=0
note_on channel=0 note=39 velocity=0 time=0
note_on channel=0 note=70 velocity=71 time=0
note_on channel=0 note=58 velocity=71 time=0
note_on channel=0 note=41 velocity=56 time=0
control_change channel=0 control=64 value=0 time=10
control_change channel=0 control=64 value=127 time=59
note_on channel=0 note=50 velocity=42 time=51
note_on channel=0 note=41 velocity=0 time=110
note_on channel=0 note=70 velocity=0 time=10
note_on channel=0 note=58 velocity=0 time=0
note_on channel=0 note=50 velocity=0 time=0
note_on channel=0 note=72 velocity=69 time=0
note_on channel=0 note=60 velocity=58 time=0
note_on channel=0 note=41 velocity=49 time=0
control_change channel=0 control=64 value=0 time=8
control_change channel=0 control=64 value=127 time=49
note_on channel=0 note=45 velocity=43 time=0
note_on channel=0 note=45 velocity=0 time=0
note_on channel=0 note=72 velocity=0 time=0
note_on channel=0 note=60 velocity=0 time=0
note_on channel=0 note=41 velocity=0 time=0
note_on channel=0 note=61 velocity=41 time=0
note_on channel=0 note=73 velocity=49 time=0
note_on channel=0 note=34 velocity=43 time=0
control_change channel=0 control=64 value=0 time=12
note_on channel=0 note=34 velocity=0 time=108
note_on channel=0 note=46 velocity=29 time=0
note_on channel=0 note=73 velocity=0 time=120
note_on channel=0 note=61 velocity=0 time=0
note_on channel=0 note=62 velocity=38 time=0
note_on channel=0 note=74 velocity=45 time=0
note_on channel=0 note=58 velocity=35 time=0
note_on channel=0 note=58 velocity=0 time=31
note_on channel=0 note=58 velocity=29 time=60
note_on channel=0 note=58 velocity=0 time=36
note_on channel=0 note=58 velocity=49 time=0
control_change channel=0 control=64 value=127 time=26
note_on channel=0 note=58 velocity=0 time=34
note_on channel=0 note=74 velocity=0 time=0
note_on channel=0 note=62 velocity=0 time=0
note_on channel=0 note=70 velocity=59 time=0
note_on channel=0 note=70 velocity=0 time=5
note_on channel=0 note=69 velocity=61 time=0
note_on channel=0 note=58 velocity=39 time=0
note_on channel=0 note=58 velocity=0 time=60
note_on channel=0 note=69 velocity=0 time=0
note_on channel=0 note=70 velocity=62 time=0
note_on channel=0 note=70 velocity=0 time=29
note_on channel=0 note=46 velocity=0 time=0
note_on channel=0 note=71 velocity=62 time=0
note_on channel=0 note=56 velocity=50 time=0
note_on channel=0 note=71 velocity=0 time=60
note_on channel=0 note=72 velocity=64 time=0
note_on channel=0 note=72 velocity=0 time=53
note_on channel=0 note=73 velocity=65 time=0
note_on channel=0 note=58 velocity=39 time=0
note_on channel=0 note=73 velocity=0 time=60
note_on channel=0 note=74 velocity=67 time=0
note_on channel=0 note=74 velocity=0 time=58
note_on channel=0 note=58 velocity=0 time=0
note_on channel=0 note=56 velocity=0 time=0
note_on channel=0 note=75 velocity=69 time=0
note_on channel=0 note=55 velocity=63 time=0
note_on channel=0 note=75 velocity=0 time=22
note_on channel=0 note=76 velocity=70 time=0
note_on channel=0 note=76 velocity=0 time=60
note_on channel=0 note=77 velocity=71 time=0
note_on channel=0 note=58 velocity=52 time=0
note_on channel=0 note=77 velocity=0 time=26
note_on channel=0 note=78 velocity=73 time=0
note_on channel=0 note=78 velocity=0 time=60
note_on channel=0 note=58 velocity=0 time=0
note_on channel=0 note=55 velocity=0 time=0
note_on channel=0 note=79 velocity=74 time=0
note_on channel=0 note=51 velocity=56 time=0
note_on channel=0 note=79 velocity=0 time=50
note_on channel=0 note=80 velocity=76 time=0
note_on channel=0 note=80 velocity=0 time=14
note_on channel=0 note=81 velocity=77 time=0
note_on channel=0 note=63 velocity=50 time=0
note_on channel=0 note=81 velocity=0 time=60
note_on channel=0 note=82 velocity=78 time=0
note_on channel=0 note=82 velocity=0 time=0
note_on channel=0 note=63 velocity=0 time=0
note_on channel=0 note=51 velocity=0 time=0
note_on channel=0 note=70 velocity=53 time=0
note_on channel=0 note=53 velocity=35 time=0
control_change channel=0 control=64 value=0 time=11
note_on channel=0 note=70 velocity=0 time=37
note_on channel=0 note=72 velocity=48 time=0
control_change channel=0 control=64 value=127 time=18
note_on channel=0 note=72 velocity=0 time=30
note_on channel=0 note=70 velocity=45 time=0
note_on channel=0 note=62 velocity=29 time=24
note_on channel=0 note=70 velocity=0 time=24
note_on channel=0 note=69 velocity=45 time=0
note_on channel=0 note=69 velocity=0 time=48
note_on channel=0 note=70 velocity=45 time=0
note_on channel=0 note=53 velocity=0 time=38
note_on channel=0 note=70 velocity=0 time=10
note_on channel=0 note=62 velocity=0 time=0
note_on channel=0 note=63 velocity=44 time=0
note_on channel=0 note=74 velocity=52 time=0
note_on channel=0 note=53 velocity=35 time=0
control_change channel=0 control=64 value=0 time=8
control_change channel=0 control=64 value=127 time=38
note_on channel=0 note=57 velocity=29 time=0
note_on channel=0 note=74 velocity=0 time=60
note_on channel=0 note=72 velocity=41 time=0
note_on channel=0 note=72 velocity=0 time=60
note_on channel=0 note=57 velocity=0 time=0
note_on channel=0 note=53 velocity=0 time=0
note_on channel=0 note=63 velocity=0 time=0
note_on channel=0 note=70 velocity=53 time=0
note_on channel=0 note=62 velocity=53 time=0
note_on channel=0 note=46 velocity=33 time=0
note_on channel=0 note=58 velocity=39 time=0
control_change channel=0 control=64 value=0 time=0
note_on channel=0 note=70 velocity=0 time=15
note_on channel=0 note=65 velocity=59 time=0
note_on channel=0 note=65 velocity=0 time=15
note_on channel=0 note=67 velocity=62 time=0
note_on channel=0 note=67 velocity=0 time=0
note_on channel=0 note=69 velocity=64 time=0
control_change channel=0 control=64 value=127 time=0
note_on channel=0 note=69 velocity=0 time=0
note_on channel=0 note=58 velocity=0 time=0
note_on channel=0 note=46 velocity=0 time=0
note_on channel=0 note=62 velocity=0 time=0
note_on channel=0 note=70 velocity=67 time=0
note_on channel=0 note=70 velocity=0 time=15
note_on channel=0 note=72 velocity=71 time=0
note_on channel=0 note=72 velocity=0 time=60
note_on channel=0 note=74 velocity=78 time=0
note_on channel=0 note=74 velocity=0 time=60
note_on channel=0 note=75 velocity=84 time=0
note_on channel=0 note=75 velocity=0 time=0
note_on channel=0 note=70 velocity=85 time=0
note_on channel=0 note=77 velocity=101 time=0
note_on channel=0 note=62 velocity=69 time=0
note_on channel=0 note=65 velocity=79 time=0
control_change channel=0 control=64 value=0 time=8
control_change channel=0 control=64 value=127 time=140
note_on channel=0 note=65 velocity=0 time=332
note_on channel=0 note=70 velocity=0 time=0
note_on channel=0 note=77 velocity=0 time=0
note_on channel=0 note=62 velocity=0 time=0
note_on channel=0 note=69 velocity=85 time=0
note_on channel=0 note=77 velocity=101 time=0
note_on channel=0 note=60 velocity=69 time=0
note_on channel=0 note=63 velocity=69 time=0
note_on channel=0 note=65 velocity=79 time=0
control_change channel=0 control=64 value=0 time=7
control_change channel=0 control=64 value=127 time=81
note_on channel=0 note=65 velocity=0 time=392
note_on channel=0 note=60 velocity=0 time=0
note_on channel=0 note=69 velocity=0 time=0
note_on channel=0 note=77 velocity=0 time=0
note_on channel=0 note=63 velocity=0 time=0
note_on channel=0 note=70 velocity=85 time=0
note_on channel=0 note=77 velocity=101 time=0
note_on channel=0 note=58 velocity=69 time=0
note_on channel=0 note=62 velocity=69 time=0
note_on channel=0 note=65 velocity=79 time=0
control_change channel=0 control=64 value=0 time=13
control_change channel=0 control=64 value=127 time=93
note_on channel=0 note=70 velocity=0 time=254
note_on channel=0 note=72 velocity=85 time=0
note_on channel=0 note=72 velocity=0 time=60
note_on channel=0 note=74 velocity=85 time=0
note_on channel=0 note=74 velocity=0 time=60
note_on channel=0 note=62 velocity=0 time=0
note_on channel=0 note=77 velocity=0 time=0
note_on channel=0 note=58 velocity=0 time=0
note_on channel=0 note=65 velocity=0 time=0
note_on channel=0 note=75 velocity=85 time=0
note_on channel=0 note=77 velocity=101 time=0
note_on channel=0 note=65 velocity=79 time=0
note_on channel=0 note=60 velocity=69 time=0
note_on channel=0 note=57 velocity=69 time=0
control_change channel=0 control=64 value=0 time=9
control_change channel=0 control=64 value=127 time=83
note_on channel=0 note=57 velocity=0 time=388
note_on channel=0 note=65 velocity=0 time=0
note_on channel=0 note=75 velocity=0 time=0
note_on channel=0 note=77 velocity=0 time=0
note_on channel=0 note=60 velocity=0 time=0
note_on channel=0 note=74 velocity=85 time=0
note_on channel=0 note=82 velocity=101 time=0
note_on channel=0 note=65 velocity=86 time=0
note_on channel=0 note=56 velocity=72 time=0
note_on channel=0 note=58 velocity=72 time=0
control_change channel=0 control=64 value=0 time=12
control_change channel=0 control=64 value=127 time=122
note_on channel=0 note=74 velocity=0 time=226
note_on channel=0 note=75 velocity=56 time=0
note_on channel=0 note=75 velocity=0 time=60
note_on channel=0 note=77 velocity=57 time=0
note_on channel=0 note=77 velocity=0 time=0
note_on channel=0 note=56 velocity=0 time=0
note_on channel=0 note=82 velocity=0 time=0
note_on channel=0 note=65 velocity=0 time=0
note_on channel=0 note=58 velocity=0 time=0
note_on channel=0 note=82 velocity=81 time=0
note_on channel=0 note=79 velocity=68 time=0
note_on channel=0 note=63 velocity=64 time=0
note_on channel=0 note=58 velocity=55 time=0
note_on channel=0 note=55 velocity=55 time=0
control_change channel=0 control=64 value=0 time=0
note_on channel=0 note=55 velocity=0 time=60
note_on channel=0 note=63 velocity=0 time=0
note_on channel=0 note=82 velocity=0 time=0
note_on channel=0 note=79 velocity=0 time=0
note_on channel=0 note=58 velocity=0 time=0
note_on channel=0 note=72 velocity=45 time=180
note_on channel=0 note=84 velocity=53 time=0
note_on channel=0 note=79 velocity=45 time=0
note_on channel=0 note=60 velocity=35 time=0
note_on channel=0 note=58 velocity=29 time=0
note_on channel=0 note=52 velocity=29 time=0
note_on channel=0 note=52 velocity=0 time=60
note_on channel=0 note=84 velocity=0 time=0
note_on channel=0 note=79 velocity=0 time=0
note_on channel=0 note=72 velocity=0 time=0
note_on channel=0 note=58 velocity=0 time=0
note_on channel=0 note=60 velocity=0 time=0
note_on channel=0 note=86 velocity=63 time=180
note_on channel=0 note=77 velocity=53 time=0
note_on channel=0 note=74 velocity=53 time=0
note_on channel=0 note=62 velocity=39 time=0
note_on channel=0 note=58 velocity=33 time=0
note_on channel=0 note=53 velocity=33 time=0
note_on channel=0 note=53 velocity=0 time=60
note_on channel=0 note=77 velocity=0 time=0
note_on channel=0 note=74 velocity=0 time=0
note_on channel=0 note=86 velocity=0 time=0
note_on channel=0 note=58 velocity=0 time=0
note_on channel=0 note=62 velocity=0 time=0
note_on channel=0 note=87 velocity=54 time=0
note_on channel=0 note=75 velocity=45 time=0
note_on channel=0 note=60 velocity=35 time=0
note_on channel=0 note=57 velocity=29 time=0
note_on channel=0 note=53 velocity=29 time=0
note_on channel=0 note=53 velocity=0 time=60
note_on channel=0 note=60 velocity=0 time=0
note_on channel=0 note=87 velocity=0 time=0
note_on channel=0 note=75 velocity=0 time=0
note_on channel=0 note=57 velocity=0 time=0
note_on channel=0 note=74 velocity=51 time=0
note_on channel=0 note=86 velocity=61 time=0
note_on channel=0 note=46 velocity=33 time=0
note_on channel=0 note=58 velocity=39 time=0
control_change channel=0 control=64 value=127 time=14
note_on channel=0 note=58 velocity=0 time=226
note_on channel=0 note=46 velocity=0 time=0
note_on channel=0 note=86 velocity=0 time=0
note_on channel=0 note=82 velocity=53 time=0
note_on channel=0 note=82 velocity=0 time=120
control_change channel=0 control=64 value=0 time=28
note_on channel=0 note=74 velocity=0 time=0
note_on channel=0 note=70 velocity=81 time=0
note_on channel=0 note=77 velocity=97 time=0
note_on channel=0 note=62 velocity=70 time=0
note_on channel=0 note=61 velocity=56 time=60
note_on channel=0 note=62 velocity=0 time=6
note_on channel=0 note=62 velocity=60 time=0
note_on channel=0 note=61 velocity=0 time=6
note_on channel=0 note=61 velocity=55 time=54
note_on channel=0 note=62 velocity=0 time=6
note_on channel=0 note=62 velocity=60 time=54
note_on channel=0 note=61 velocity=0 time=6
note_on channel=0 note=65 velocity=55 time=54
note_on channel=0 note=62 velocity=0 time=6
note_on channel=0 note=63 velocity=55 time=0
note_on channel=0 note=65 velocity=0 time=6
note_on channel=0 note=62 velocity=55 time=54
note_on channel=0 note=63 velocity=0 time=6
note_on channel=0 note=70 velocity=0 time=0
note_on channel=0 note=77 velocity=0 time=0
note_on channel=0 note=62 velocity=0 time=0
note_on channel=0 note=69 velocity=81 time=0
note_on channel=0 note=77 velocity=97 time=0
note_on channel=0 note=60 velocity=70 time=0
note_on channel=0 note=59 velocity=56 time=60
note_on channel=0 note=60 velocity=0 time=6
note_on channel=0 note=60 velocity=60 time=54
note_on channel=0 note=59 velocity=0 time=6
note_on channel=0 note=59 velocity=55 time=54
note_on channel=0 note=60 velocity=0 time=6
note_on channel=0 note=60 velocity=60 time=54
note_on channel=0 note=59 velocity=0 time=6
note_on channel=0 note=63 velocity=55 time=54
note_on channel=0 note=60 velocity=0 time=6
note_on channel=0 note=62 velocity=55 time=0
note_on channel=0 note=63 velocity=0 time=6
note_on channel=0 note=60 velocity=55 time=54
note_on channel=0 note=62 velocity=0 time=6
note_on channel=0 note=69 velocity=0 time=0
note_on channel=0 note=77 velocity=0 time=0
note_on channel=0 note=60 velocity=0 time=0
note_on channel=0 note=70 velocity=81 time=0
note_on channel=0 note=77 velocity=97 time=0
note_on channel=0 note=58 velocity=70 time=0
note_on channel=0 note=57 velocity=56 time=60
note_on channel=0 note=58 velocity=0 time=6
note_on channel=0 note=58 velocity=60 time=0
note_on channel=0 note=57 velocity=0 time=6
note_on channel=0 note=57 velocity=55 time=54
note_on channel=0 note=58 velocity=0 time=6
note_on channel=0 note=58 velocity=60 time=54
note_on channel=0 note=57 velocity=0 time=6
note_on channel=0 note=62 velocity=55 time=54
note_on channel=0 note=58 velocity=0 time=6
note_on channel=0 note=70 velocity=0 time=0
note_on channel=0 note=72 velocity=81 time=0
note_on channel=0 note=60 velocity=55 time=0
note_on channel=0 note=62 velocity=0 time=6
note_on channel=0 note=72 velocity=0 time=54
note_on channel=0 note=74 velocity=81 time=0
note_on channel=0 note=58 velocity=55 time=0
note_on channel=0 note=60 velocity=0 time=6
note_on channel=0 note=77 velocity=0 time=0
note_on channel=0 note=74 velocity=0 time=0
note_on channel=0 note=58 velocity=0 time=0
note_on channel=0 note=75 velocity=81 time=0
note_on channel=0 note=77 velocity=97 time=0
note_on channel=0 note=57 velocity=70 time=0
note_on channel=0 note=56 velocity=56 time=60
note_on channel=0 note=57 velocity=0 time=6
note_on channel=0 note=57 velocity=60 time=0
note_on channel=0 note=56 velocity=0 time=6
note_on channel=0 note=56 velocity=55 time=54
note_on channel=0 note=57 velocity=0 time=6
note_on channel=0 note=57 velocity=60 time=54
note_on channel=0 note=56 velocity=0 time=6
note_on channel=0 note=60 velocity=55 time=54
note_on channel=0 note=57 velocity=0 time=6
note_on channel=0 note=58 velocity=55 time=0
note_on channel=0 note=60 velocity=0 time=6
note_on channel=0 note=57 velocity=55 time=54
note_on channel=0 note=58 velocity=0 time=6
note_on channel=0 note=75 velocity=0 time=0
note_on channel=0 note=77 velocity=0 time=0
note_on channel=0 note=57 velocity=0 time=0
note_on channel=0 note=74 velocity=81 time=0
note_on channel=0 note=82 velocity=97 time=0
note_on channel=0 note=56 velocity=70 time=0
note_on channel=0 note=55 velocity=56 time=60
note_on channel=0 note=56 velocity=0 time=6
note_on channel=0 note=56 velocity=60 time=0
note_on channel=0 note=55 velocity=0 time=6
note_on channel=0 note=55 velocity=55 time=54
note_on channel=0 note=56 velocity=0 time=6
note_on channel=0 note=56 velocity=60 time=54
note_on channel=0 note=55 velocity=0 time=6
note_on channel=0 note=60 velocity=55 time=54
note_on channel=0 note=56 velocity=0 time=6
note_on channel=0 note=74 velocity=0 time=0
note_on channel=0 note=75 velocity=67 time=0
note_on channel=0 note=58 velocity=55 time=0
note_on channel=0 note=60 velocity=0 time=6
note_on channel=0 note=75 velocity=0 time=54
note_on channel=0 note=77 velocity=68 time=0
note_on channel=0 note=56 velocity=55 time=0
note_on channel=0 note=58 velocity=0 time=6
note_on channel=0 note=56 velocity=0 time=0
note_on channel=0 note=77 velocity=0 time=0
note_on channel=0 note=79 velocity=97 time=0
note_on channel=0 note=75 velocity=81 time=0
note_on channel=0 note=55 velocity=70 time=0
note_on channel=0 note=75 velocity=0 time=60
note_on channel=0 note=82 velocity=0 time=0
note_on channel=0 note=79 velocity=0 time=0
note_on channel=0 note=58 velocity=48 time=0
note_on channel=0 note=55 velocity=0 time=6
note_on channel=0 note=57 velocity=43 time=54
note_on channel=0 note=58 velocity=0 time=6
note_on channel=0 note=58 velocity=43 time=54
note_on channel=0 note=57 velocity=0 time=6
note_on channel=0 note=58 velocity=0 time=0
note_on channel=0 note=72 velocity=67 time=0
note_on channel=0 note=84 velocity=79 time=0
note_on channel=0 note=79 velocity=67 time=0
note_on channel=0 note=52 velocity=49 time=0
note_on channel=0 note=79 velocity=0 time=60
note_on channel=0 note=72 velocity=0 time=0
note_on channel=0 note=84 velocity=0 time=0
note_on channel=0 note=58 velocity=43 time=0
note_on channel=0 note=52 velocity=0 time=6
note_on channel=0 note=57 velocity=42 time=54
note_on channel=0 note=58 velocity=0 time=6
note_on channel=0 note=58 velocity=43 time=54
note_on channel=0 note=57 velocity=0 time=6
note_on channel=0 note=58 velocity=0 time=54
note_on channel=0 note=86 velocity=98 time=0
note_on channel=0 note=77 velocity=82 time=0
note_on channel=0 note=74 velocity=82 time=0
note_on channel=0 note=53 velocity=57 time=0
note_on channel=0 note=74 velocity=0 time=60
note_on channel=0 note=86 velocity=0 time=0
note_on channel=0 note=77 velocity=0 time=0
note_on channel=0 note=58 velocity=46 time=0
note_on channel=0 note=53 velocity=0 time=6
note_on channel=0 note=57 velocity=50 time=54
note_on channel=0 note=58 velocity=0 time=6
note_on channel=0 note=58 velocity=50 time=54
note_on channel=0 note=57 velocity=0 time=6
note_on channel=0 note=58 velocity=0 time=0
note_on channel=0 note=87 velocity=87 time=0
note_on channel=0 note=75 velocity=74 time=0
note_on channel=0 note=53 velocity=60 time=0
note_on channel=0 note=75 velocity=0 time=60
note_on channel=0 note=87 velocity=0 time=0
note_on channel=0 note=57 velocity=50 time=0
note_on channel=0 note=53 velocity=0 time=6
note_on channel=0 note=56 velocity=50 time=54
note_on channel=0 note=57 velocity=0 time=6
note_on channel=0 note=57 velocity=51 time=54
note_on channel=0 note=56 velocity=0 time=6
note_on channel=0 note=57 velocity=0 time=0
note_on channel=0 note=74 velocity=75 time=0
note_on channel=0 note=86 velocity=104 time=0
note_on channel=0 note=58 velocity=61 time=0
control_change channel=0 control=64 value=127 time=53
note_on channel=0 note=58 velocity=0 time=7
note_on channel=0 note=60 velocity=56 time=0
note_on channel=0 note=60 velocity=0 time=60
note_on channel=0 note=62 velocity=58 time=0
note_on channel=0 note=62 velocity=0 time=60
note_on channel=0 note=63 velocity=61 time=0
note_on channel=0 note=63 velocity=0 time=60
note_on channel=0 note=86 velocity=0 time=0
note_on channel=0 note=82 velocity=81 time=0
note_on channel=0 note=65 velocity=63 time=0
control_change channel=0 control=64 value=0 time=18
control_change channel=0 control=64 value=127 time=28
note_on channel=0 note=65 velocity=0 time=14
note_on channel=0 note=67 velocity=66 time=0
note_on channel=0 note=67 velocity=0 time=60
note_on channel=0 note=82 velocity=0 time=0
note_on channel=0 note=69 velocity=68 time=0
note_on channel=0 note=69 velocity=0 time=60
note_on channel=0 note=70 velocity=72 time=0
note_on channel=0 note=70 velocity=0 time=0
note_on channel=0 note=74 velocity=0 time=0
note_on channel=0 note=70 velocity=74 time=0
note_on channel=0 note=74 velocity=88 time=0
note_on channel=0 note=82 velocity=106 time=0
note_on channel=0 note=68 velocity=76 time=0
control_change channel=0 control=64 value=0 time=7
control_change channel=0 control=64 value=127 time=39
note_on channel=0 note=67 velocity=61 time=14
note_on channel=0 note=68 velocity=0 time=6
note_on channel=0 note=65 velocity=66 time=0
note_on channel=0 note=67 velocity=0 time=6
note_on channel=0 note=63 velocity=60 time=54
note_on channel=0 note=65 velocity=0 time=6
note_on channel=0 note=62 velocity=66 time=54
note_on channel=0 note=63 velocity=0 time=6
control_change channel=0 control=64 value=0 time=2
control_change channel=0 control=64 value=127 time=24
note_on channel=0 note=60 velocity=60 time=28
note_on channel=0 note=62 velocity=0 time=6
note_on channel=0 note=74 velocity=0 time=0
note_on channel=0 note=70 velocity=0 time=0
note_on channel=0 note=72 velocity=61 time=0
note_on channel=0 note=75 velocity=73 time=0
note_on channel=0 note=58 velocity=60 time=0
note_on channel=0 note=60 velocity=0 time=6
note_on channel=0 note=75 velocity=0 time=54
note_on channel=0 note=72 velocity=0 time=0
note_on channel=0 note=74 velocity=62 time=0
note_on channel=0 note=77 velocity=74 time=0
note_on channel=0 note=56 velocity=60 time=0
note_on channel=0 note=58 velocity=0 time=6
note_on channel=0 note=77 velocity=0 time=0
note_on channel=0 note=56 velocity=0 time=0
note_on channel=0 note=74 velocity=0 time=0
note_on channel=0 note=79 velocity=106 time=0
note_on channel=0 note=75 velocity=88 time=0
note_on channel=0 note=55 velocity=76 time=0
control_change channel=0 control=64 value=0 time=0
note_on channel=0 note=75 velocity=0 time=60
note_on channel=0 note=82 velocity=0 time=0
note_on channel=0 note=79 velocity=0 time=0
note_on channel=0 note=58 velocity=52 time=0
note_on channel=0 note=55 velocity=0 time=6
note_on channel=0 note=57 velocity=46 time=54
note_on channel=0 note=58 velocity=0 time=6
note_on channel=0 note=58 velocity=46 time=54
note_on channel=0 note=57 velocity=0 time=6
note_on channel=0 note=58 velocity=0 time=0
note_on channel=0 note=72 velocity=72 time=0
note_on channel=0 note=84 velocity=86 time=0
note_on channel=0 note=79 velocity=72 time=0
note_on channel=0 note=52 velocity=44 time=0
note_on channel=0 note=79 velocity=0 time=60
note_on channel=0 note=72 velocity=0 time=0
note_on channel=0 note=84 velocity=0 time=0
note_on channel=0 note=58 velocity=52 time=0
note_on channel=0 note=52 velocity=0 time=6
note_on channel=0 note=57 velocity=46 time=54
note_on channel=0 note=58 velocity=0 time=6
note_on channel=0 note=58 velocity=48 time=54
note_on channel=0 note=57 velocity=0 time=6
note_on channel=0 note=58 velocity=0 time=54
note_on channel=0 note=86 velocity=108 time=0
note_on channel=0 note=77 velocity=90 time=0
note_on channel=0 note=74 velocity=90 time=0
note_on channel=0 note=53 velocity=62 time=0
note_on channel=0 note=74 velocity=0 time=60
note_on channel=0 note=86 velocity=0 time=0
note_on channel=0 note=77 velocity=0 time=0
note_on channel=0 note=58 velocity=50 time=0
note_on channel=0 note=53 velocity=0 time=6
note_on channel=0 note=57 velocity=55 time=54
note_on channel=0 note=58 velocity=0 time=6
note_on channel=0 note=58 velocity=55 time=54
note_on channel=0 note=57 velocity=0 time=6
note_on channel=0 note=58 velocity=0 time=0
note_on channel=0 note=87 velocity=99 time=0
note_on channel=0 note=75 velocity=80 time=0
note_on channel=0 note=53 velocity=66 time=0
note_on channel=0 note=75 velocity=0 time=60
note_on channel=0 note=87 velocity=0 time=0
note_on channel=0 note=57 velocity=55 time=0
note_on channel=0 note=53 velocity=0 time=6
note_on channel=0 note=56 velocity=55 time=54
note_on channel=0 note=57 velocity=0 time=6
note_on channel=0 note=57 velocity=56 time=54
note_on channel=0 note=56 velocity=0 time=6
note_on channel=0 note=57 velocity=0 time=0
note_on channel=0 note=74 velocity=82 time=0
note_on channel=0 note=86 velocity=114 time=0
note_on channel=0 note=58 velocity=67 time=0
control_change channel=0 control=64 value=127 time=53
note_on channel=0 note=58 velocity=0 time=7
note_on channel=0 note=57 velocity=61 time=0
note_on channel=0 note=57 velocity=0 time=60
note_on channel=0 note=55 velocity=63 time=0
note_on channel=0 note=55 velocity=0 time=60
note_on channel=0 note=53 velocity=67 time=0
note_on channel=0 note=53 velocity=0 time=60
note_on channel=0 note=86 velocity=0 time=0
note_on channel=0 note=82 velocity=88 time=0
note_on channel=0 note=51 velocity=69 time=0
control_change channel=0 control=64 value=0 time=18
control_change channel=0 control=64 value=127 time=28
note_on channel=0 note=51 velocity=0 time=14
note_on channel=0 note=50 velocity=72 time=0
note_on channel=0 note=50 velocity=0 time=60
note_on channel=0 note=82 velocity=0 time=0
note_on channel=0 note=48 velocity=74 time=0
note_on channel=0 note=48 velocity=0 time=60
note_on channel=0 note=46 velocity=79 time=0
note_on channel=0 note=74 velocity=0 time=50
note_on channel=0 note=46 velocity=0 time=0
note_on channel=0 note=70 velocity=94 time=0
note_on channel=0 note=74 velocity=94 time=0
note_on channel=0 note=82 velocity=111 time=0
note_on channel=0 note=44 velocity=76 time=0
control_change channel=0 control=64 value=0 time=7
control_change channel=0 control=64 value=127 time=39
note_on channel=0 note=43 velocity=61 time=14
note_on channel=0 note=44 velocity=0 time=6
note_on channel=0 note=41 velocity=66 time=0
note_on channel=0 note=43 velocity=0 time=6
note_on channel=0 note=39 velocity=60 time=54
note_on channel=0 note=41 velocity=0 time=6
note_on channel=0 note=38 velocity=66 time=54
note_on channel=0 note=39 velocity=0 time=6
control_change channel=0 control=64 value=0 time=5
control_change channel=0 control=64 value=127 time=32
note_on channel=0 note=36 velocity=60 time=17
note_on channel=0 note=38 velocity=0 time=6
note_on channel=0 note=74 velocity=0 time=0
note_on channel=0 note=70 velocity=0 time=0
note_on channel=0 note=72 velocity=73 time=0
note_on channel=0 note=75 velocity=86 time=0
note_on channel=0 note=34 velocity=60 time=0
note_on channel=0 note=36 velocity=0 time=6
note_on channel=0 note=75 velocity=0 time=54
note_on channel=0 note=72 velocity=0 time=0
note_on channel=0 note=74 velocity=75 time=0
note_on channel=0 note=77 velocity=90 time=0
note_on channel=0 note=32 velocity=60 time=0
note_on channel=0 note=34 velocity=0 time=6
note_on channel=0 note=77 velocity=0 time=0
note_on channel=0 note=32 velocity=0 time=0
note_on channel=0 note=74 velocity=0 time=0
note_on channel=0 note=79 velocity=106 time=0
note_on channel=0 note=75 velocity=74 time=0
note_on channel=0 note=31 velocity=87 time=0
control_change channel=0 control=64 value=0 time=0
note_on channel=0 note=75 velocity=0 time=60
note_on channel=0 note=82 velocity=0 time=0
note_on channel=0 note=79 velocity=0 time=0
note_on channel=0 note=43 velocity=56 time=0
note_on channel=0 note=31 velocity=0 time=6
note_on channel=0 note=42 velocity=58 time=54
note_on channel=0 note=43 velocity=0 time=6
note_on channel=0 note=43 velocity=58 time=54
note_on channel=0 note=42 velocity=0 time=6
note_on channel=0 note=43 velocity=0 time=0
note_on channel=0 note=76 velocity=85 time=0
note_on channel=0 note=72 velocity=85 time=0
note_on channel=0 note=84 velocity=100 time=0
note_on channel=0 note=82 velocity=85 time=0
note_on channel=0 note=30 velocity=84 time=0
note_on channel=0 note=82 velocity=0 time=60
note_on channel=0 note=84 velocity=0 time=0
note_on channel=0 note=76 velocity=0 time=0
note_on channel=0 note=72 velocity=0 time=0
note_on channel=0 note=42 velocity=63 time=0
note_on channel=0 note=30 velocity=0 time=6
note_on channel=0 note=41 velocity=62 time=54
note_on channel=0 note=42 velocity=0 time=6
note_on channel=0 note=42 velocity=62 time=54
note_on channel=0 note=41 velocity=0 time=6
note_on channel=0 note=42 velocity=0 time=0
note_on channel=0 note=82 velocity=91 time=0
note_on channel=0 note=86 velocity=108 time=0
note_on channel=0 note=77 velocity=91 time=0
note_on channel=0 note=74 velocity=91 time=0
note_on channel=0 note=29 velocity=93 time=0
note_on channel=0 note=74 velocity=0 time=60
note_on channel=0 note=77 velocity=0 time=0
note_on channel=0 note=82 velocity=0 time=0
note_on channel=0 note=86 velocity=0 time=0
note_on channel=0 note=41 velocity=66 time=0
note_on channel=0 note=29 velocity=0 time=6
note_on channel=0 note=40 velocity=66 time=54
note_on channel=0 note=41 velocity=0 time=6
note_on channel=0 note=41 velocity=66 time=54
note_on channel=0 note=40 velocity=0 time=6
note_on channel=0 note=41 velocity=0 time=0
note_on channel=0 note=75 velocity=82 time=0
note_on channel=0 note=81 velocity=97 time=0
note_on channel=0 note=69 velocity=82 time=0
note_on channel=0 note=29 velocity=90 time=0
note_on channel=0 note=69 velocity=0 time=60
note_on channel=0 note=75 velocity=0 time=0
note_on channel=0 note=81 velocity=0 time=0
note_on channel=0 note=41 velocity=68 time=0
note_on channel=0 note=29 velocity=0 time=6
note_on channel=0 note=40 velocity=68 time=54
note_on channel=0 note=41 velocity=0 time=6
note_on channel=0 note=41 velocity=68 time=0
note_on channel=0 note=40 velocity=0 time=6
note_on channel=0 note=41 velocity=0 time=0
note_on channel=0 note=74 velocity=87 time=0
note_on channel=0 note=70 velocity=87 time=0
note_on channel=0 note=82 velocity=103 time=0
note_on channel=0 note=34 velocity=96 time=0
control_change channel=0 control=64 value=127 time=53
note_on channel=0 note=82 velocity=0 time=7
note_on channel=0 note=74 velocity=0 time=0
note_on channel=0 note=70 velocity=0 time=0
control_change channel=0 control=64 value=0 time=43
note_on channel=0 note=77 velocity=45 time=0
note_on channel=0 note=77 velocity=0 time=0
note_on channel=0 note=34 velocity=0 time=0
note_on channel=0 note=79 velocity=50 time=0
note_on channel=0 note=79 velocity=0 time=120
note_on channel=0 note=77 velocity=46 time=0
note_on channel=0 note=65 velocity=39 time=0
note_on channel=0 note=65 velocity=0 time=120
note_on channel=0 note=77 velocity=0 time=0
note_on channel=0 note=75 velocity=50 time=0
note_on channel=0 note=67 velocity=42 time=0
note_on channel=0 note=67 velocity=0 time=120
note_on channel=0 note=75 velocity=0 time=0
note_on channel=0 note=74 velocity=43 time=0
note_on channel=0 note=65 velocity=36 time=0
note_on channel=0 note=65 velocity=0 time=120
note_on channel=0 note=74 velocity=0 time=0
note_on channel=0 note=72 velocity=46 time=0
note_on channel=0 note=63 velocity=39 time=0
note_on channel=0 note=63 velocity=0 time=120
note_on channel=0 note=72 velocity=0 time=0
note_on channel=0 note=70 velocity=43 time=0
note_on channel=0 note=62 velocity=36 time=0
note_on channel=0 note=62 velocity=0 time=120
note_on channel=0 note=70 velocity=0 time=0
note_on channel=0 note=63 velocity=40 time=0
note_on channel=0 note=69 velocity=50 time=0
note_on channel=0 note=53 velocity=35 time=0
note_on channel=0 note=60 velocity=42 time=0
note_on channel=0 note=60 velocity=0 time=120
note_on channel=0 note=69 velocity=0 time=0
note_on channel=0 note=67 velocity=46 time=0
note_on channel=0 note=58 velocity=37 time=0
note_on channel=0 note=58 velocity=0 time=120
note_on channel=0 note=67 velocity=0 time=0
note_on channel=0 note=65 velocity=47 time=0
note_on channel=0 note=57 velocity=39 time=0
note_on channel=0 note=57 velocity=0 time=0
note_on channel=0 note=55 velocity=36 time=0
note_on channel=0 note=55 velocity=0 time=0
note_on channel=0 note=53 velocity=0 time=0
note_on channel=0 note=41 velocity=35 time=0
note_on channel=0 note=53 velocity=39 time=0
note_on channel=0 note=53 velocity=0 time=120
note_on channel=0 note=51 velocity=37 time=0
note_on channel=0 note=63 velocity=0 time=110
note_on channel=0 note=65 velocity=0 time=10
note_on channel=0 note=51 velocity=0 time=0
note_on channel=0 note=63 velocity=37 time=0
note_on channel=0 note=67 velocity=44 time=0
note_on channel=0 note=50 velocity=36 time=0
note_on channel=0 note=50 velocity=0 time=120
note_on channel=0 note=67 velocity=0 time=0
note_on channel=0 note=69 velocity=42 time=0
note_on channel=0 note=48 velocity=34 time=0
note_on channel=0 note=48 velocity=0 time=0
note_on channel=0 note=41 velocity=0 time=0
note_on channel=0 note=63 velocity=0 time=0
note_on channel=0 note=69 velocity=0 time=0
note_on channel=0 note=62 velocity=35 time=0
note_on channel=0 note=70 velocity=42 time=0
note_on channel=0 note=46 velocity=53 time=0
control_change channel=0 control=64 value=127 time=53
note_on channel=0 note=70 velocity=0 time=7
note_on channel=0 note=62 velocity=0 time=0
control_change channel=0 control=64 value=0 time=43
note_on channel=0 note=65 velocity=38 time=0
note_on channel=0 note=65 velocity=0 time=0
note_on channel=0 note=46 velocity=0 time=0
note_on channel=0 note=67 velocity=42 time=0
note_on channel=0 note=67 velocity=0 time=120
note_on channel=0 note=65 velocity=39 time=0
note_on channel=0 note=53 velocity=33 time=0
note_on channel=0 note=53 velocity=0 time=120
note_on channel=0 note=65 velocity=0 time=0
note_on channel=0 note=63 velocity=42 time=0
note_on channel=0 note=55 velocity=35 time=0
note_on channel=0 note=55 velocity=0 time=120
note_on channel=0 note=63 velocity=0 time=0
note_on channel=0 note=62 velocity=37 time=0
note_on channel=0 note=53 velocity=32 time=0
note_on channel=0 note=53 velocity=0 time=120
note_on channel=0 note=62 velocity=0 time=0
note_on channel=0 note=60 velocity=39 time=0
note_on channel=0 note=51 velocity=33 time=0
note_on channel=0 note=51 velocity=0 time=120
note_on channel=0 note=60 velocity=0 time=0
note_on channel=0 note=58 velocity=37 time=0
note_on channel=0 note=50 velocity=32 time=0
note_on channel=0 note=50 velocity=0 time=120
note_on channel=0 note=58 velocity=0 time=0
note_on channel=0 note=51 velocity=34 time=0
note_on channel=0 note=57 velocity=42 time=0
note_on channel=0 note=41 velocity=30 time=0
note_on channel=0 note=48 velocity=35 time=0
note_on channel=0 note=48 velocity=0 time=120
note_on channel=0 note=57 velocity=0 time=0
note_on channel=0 note=55 velocity=39 time=0
note_on channel=0 note=46 velocity=32 time=0
note_on channel=0 note=46 velocity=0 time=120
note_on channel=0 note=55 velocity=0 time=0
note_on channel=0 note=53 velocity=39 time=0
note_on channel=0 note=45 velocity=33 time=0
note_on channel=0 note=45 velocity=0 time=0
note_on channel=0 note=43 velocity=29 time=0
note_on channel=0 note=43 velocity=0 time=0
note_on channel=0 note=41 velocity=0 time=0
note_on channel=0 note=29 velocity=30 time=0
note_on channel=0 note=41 velocity=33 time=0
note_on channel=0 note=41 velocity=0 time=120
note_on channel=0 note=39 velocity=31 time=0
note_on channel=0 note=51 velocity=0 time=110
note_on channel=0 note=53 velocity=0 time=10
note_on channel=0 note=39 velocity=0 time=0
note_on channel=0 note=51 velocity=31 time=0
note_on channel=0 note=55 velocity=37 time=0
note_on channel=0 note=38 velocity=30 time=0
note_on channel=0 note=38 velocity=0 time=0
note_on channel=0 note=55 velocity=0 time=0
note_on channel=0 note=57 velocity=35 time=0
note_on channel=0 note=36 velocity=28 time=0
note_on channel=0 note=36 velocity=0 time=0
note_on channel=0 note=29 velocity=0 time=0
note_on channel=0 note=51 velocity=0 time=0
note_on channel=0 note=57 velocity=0 time=0
note_on channel=0 note=50 velocity=32 time=0
note_on channel=0 note=58 velocity=37 time=0
note_on channel=0 note=34 velocity=31 time=0
note_on channel=0 note=34 velocity=0 time=60
note_on channel=0 note=58 velocity=0 time=0
note_on channel=0 note=50 velocity=0 time=0
note_on channel=0 note=63 velocity=42 time=180
note_on channel=0 note=69 velocity=42 time=0
note_on channel=0 note=53 velocity=35 time=0
note_on channel=0 note=60 velocity=35 time=0
note_on channel=0 note=60 velocity=0 time=60
note_on channel=0 note=63 velocity=0 time=0
note_on channel=0 note=69 velocity=0 time=0
note_on channel=0 note=53 velocity=0 time=0
note_on channel=0 note=62 velocity=42 time=0
note_on channel=0 note=70 velocity=42 time=0
note_on channel=0 note=58 velocity=35 time=0
note_on channel=0 note=58 velocity=0 time=60
note_on channel=0 note=70 velocity=0 time=0
note_on channel=0 note=62 velocity=0 time=0
note_on channel=0 note=72 velocity=88 time=0
note_on channel=0 note=75 velocity=88 time=0
note_on channel=0 note=81 velocity=105 time=0
note_on channel=0 note=41 velocity=70 time=0
note_on channel=0 note=53 velocity=84 time=0
note_on channel=0 note=53 velocity=0 time=60
note_on channel=0 note=81 velocity=0 time=0
note_on channel=0 note=72 velocity=0 time=0
note_on channel=0 note=75 velocity=0 time=0
note_on channel=0 note=41 velocity=0 time=0
note_on channel=0 note=70 velocity=98 time=180
note_on channel=0 note=74 velocity=98 time=0
note_on channel=0 note=82 velocity=116 time=0
note_on channel=0 note=34 velocity=79 time=0
note_on channel=0 note=46 velocity=93 time=0
note_on channel=0 note=46 velocity=0 time=60
note_on channel=0 note=82 velocity=0 time=0
note_on channel=0 note=70 velocity=0 time=0
note_on channel=0 note=74 velocity=0 time=0
note_on channel=0 note=34 velocity=0 time=0
