note_on channel=0 note=64 velocity=43 time=720
note_on channel=0 note=64 velocity=0 time=0
note_on channel=0 note=66 velocity=39 time=0
note_on channel=0 note=66 velocity=0 time=0
note_on channel=0 note=64 velocity=34 time=0
note_on channel=0 note=68 velocity=50 time=0
note_on channel=0 note=40 velocity=25 time=0
note_on channel=0 note=52 velocity=30 time=0
control_change channel=0 control=64 value=127 time=78
note_on channel=0 note=64 velocity=0 time=42
note_on channel=0 note=59 velocity=26 time=0
note_on channel=0 note=59 velocity=0 time=120
note_on channel=0 note=52 velocity=0 time=0
note_on channel=0 note=40 velocity=0 time=0
note_on channel=0 note=64 velocity=31 time=0
note_on channel=0 note=64 velocity=0 time=120
note_on channel=0 note=59 velocity=26 time=0
note_on channel=0 note=59 velocity=0 time=0
note_on channel=0 note=68 velocity=0 time=0
note_on channel=0 note=68 velocity=30 time=0
note_on channel=0 note=71 velocity=46 time=0
control_change channel=0 control=64 value=0 time=16
control_change channel=0 control=64 value=127 time=83
note_on channel=0 note=68 velocity=0 time=21
note_on channel=0 note=59 velocity=27 time=0
note_on channel=0 note=59 velocity=0 time=0
note_on channel=0 note=71 velocity=0 time=0
note_on channel=0 note=66 velocity=28 time=0
note_on channel=0 note=69 velocity=43 time=0
control_change channel=0 control=64 value=0 time=13
control_change channel=0 control=64 value=127 time=51
note_on channel=0 note=66 velocity=0 time=0
note_on channel=0 note=59 velocity=27 time=0
note_on channel=0 note=59 velocity=0 time=0
note_on channel=0 note=69 velocity=0 time=0
note_on channel=0 note=64 velocity=34 time=0
note_on channel=0 note=68 velocity=50 time=0
note_on channel=0 note=35 velocity=25 time=0
note_on channel=0 note=47 velocity=30 time=0
control_change channel=0 control=64 value=0 time=0
control_change channel=0 control=64 value=127 time=64
note_on channel=0 note=64 velocity=0 time=56
note_on channel=0 note=59 velocity=26 time=0
note_on channel=0 note=59 velocity=0 time=0
note_on channel=0 note=47 velocity=0 time=0
note_on channel=0 note=35 velocity=0 time=0
note_on channel=0 note=68 velocity=0 time=0
note_on channel=0 note=63 velocity=27 time=0
note_on channel=0 note=66 velocity=41 time=0
control_change channel=0 control=64 value=0 time=14
control_change channel=0 control=64 value=127 time=43
note_on channel=0 note=63 velocity=0 time=63
note_on channel=0 note=59 velocity=25 time=0
note_on channel=0 note=59 velocity=0 time=90
note_on channel=0 note=66 velocity=0 time=0
control_change channel=0 control=64 value=0 time=0
note_on channel=0 note=63 velocity=27 time=30
note_on channel=0 note=66 velocity=41 time=0
control_change channel=0 control=64 value=127 time=64
note_on channel=0 note=63 velocity=0 time=56
note_on channel=0 note=59 velocity=26 time=0
note_on channel=0 note=59 velocity=0 time=0
note_on channel=0 note=66 velocity=0 time=0
note_on channel=0 note=64 velocity=28 time=0
note_on channel=0 note=68 velocity=43 time=0
control_change channel=0 control=64 value=0 time=18
control_change channel=0 control=64 value=127 time=67
note_on channel=0 note=64 velocity=0 time=35
note_on channel=0 note=59 velocity=28 time=0
note_on channel=0 note=59 velocity=0 time=0
note_on channel=0 note=68 velocity=0 time=0
note_on channel=0 note=64 velocity=30 time=0
note_on channel=0 note=69 velocity=46 time=0
note_on channel=0 note=37 velocity=25 time=0
note_on channel=0 note=49 velocity=30 time=0
control_change channel=0 control=64 value=0 time=10
control_change channel=0 control=64 value=127 time=75
note_on channel=0 note=64 velocity=0 time=35
note_on channel=0 note=59 velocity=28 time=0
note_on channel=0 note=59 velocity=0 time=120
note_on channel=0 note=49 velocity=0 time=0
note_on channel=0 note=37 velocity=0 time=0
note_on channel=0 note=69 velocity=0 time=0
note_on channel=0 note=64 velocity=36 time=0
note_on channel=0 note=73 velocity=54 time=0
note_on channel=0 note=64 velocity=0 time=120
note_on channel=0 note=59 velocity=31 time=0
note_on channel=0 note=59 velocity=0 time=120
note_on channel=0 note=73 velocity=0 time=0
note_on channel=0 note=66 velocity=37 time=0
note_on channel=0 note=71 velocity=47 time=0
note_on channel=0 note=51 velocity=28 time=0
note_on channel=0 note=39 velocity=23 time=0
control_change channel=0 control=64 value=0 time=16
control_change channel=0 control=64 value=127 time=62
note_on channel=0 note=66 velocity=0 time=42
note_on channel=0 note=59 velocity=26 time=0
note_on channel=0 note=59 velocity=0 time=0
note_on channel=0 note=39 velocity=0 time=0
note_on channel=0 note=51 velocity=0 time=0
note_on channel=0 note=71 velocity=0 time=0
note_on channel=0 note=63 velocity=25 time=0
note_on channel=0 note=66 velocity=38 time=0
note_on channel=0 note=47 velocity=26 time=0
note_on channel=0 note=35 velocity=22 time=0
note_on channel=0 note=63 velocity=0 time=0
note_on channel=0 note=59 velocity=27 time=0
note_on channel=0 note=59 velocity=0 time=0
note_on channel=0 note=35 velocity=0 time=0
note_on channel=0 note=47 velocity=0 time=0
note_on channel=0 note=66 velocity=0 time=0
note_on channel=0 note=59 velocity=35 time=0
note_on channel=0 note=64 velocity=35 time=0
note_on channel=0 note=68 velocity=42 time=0
note_on channel=0 note=40 velocity=28 time=0
note_on channel=0 note=52 velocity=28 time=0
control_change channel=0 control=64 value=0 time=8
note_on channel=0 note=52 velocity=0 time=112
note_on channel=0 note=40 velocity=0 time=0
note_on channel=0 note=56 velocity=25 time=0
note_on channel=0 note=56 velocity=0 time=120
note_on channel=0 note=59 velocity=28 time=0
note_on channel=0 note=59 velocity=0 time=120
note_on channel=0 note=57 velocity=26 time=0
note_on channel=0 note=57 velocity=0 time=120
note_on channel=0 note=68 velocity=0 time=0
note_on channel=0 note=64 velocity=0 time=0
note_on channel=0 note=59 velocity=0 time=0
note_on channel=0 note=56 velocity=28 time=0
note_on channel=0 note=56 velocity=0 time=120
note_on channel=0 note=57 velocity=25 time=0
note_on channel=0 note=57 velocity=0 time=0
note_on channel=0 note=76 velocity=54 time=0
note_on channel=0 note=56 velocity=34 time=0
note_on channel=0 note=56 velocity=0 time=0
note_on channel=0 note=76 velocity=0 time=0
note_on channel=0 note=78 velocity=48 time=0
note_on channel=0 note=54 velocity=31 time=0
note_on channel=0 note=54 velocity=0 time=0
note_on channel=0 note=78 velocity=0 time=0
note_on channel=0 note=68 velocity=63 time=0
note_on channel=0 note=80 velocity=63 time=0
note_on channel=0 note=52 velocity=42 time=0
control_change channel=0 control=64 value=127 time=92
note_on channel=0 note=52 velocity=0 time=28
note_on channel=0 note=59 velocity=32 time=0
note_on channel=0 note=59 velocity=0 time=120
note_on channel=0 note=47 velocity=39 time=0
note_on channel=0 note=47 velocity=0 time=120
note_on channel=0 note=59 velocity=32 time=0
note_on channel=0 note=59 velocity=0 time=0
note_on channel=0 note=80 velocity=0 time=0
note_on channel=0 note=68 velocity=0 time=0
note_on channel=0 note=71 velocity=57 time=0
note_on channel=0 note=83 velocity=57 time=0
note_on channel=0 note=52 velocity=37 time=0
control_change channel=0 control=64 value=0 time=14
control_change channel=0 control=64 value=127 time=92
note_on channel=0 note=52 velocity=0 time=14
note_on channel=0 note=59 velocity=33 time=0
note_on channel=0 note=59 velocity=0 time=0
note_on channel=0 note=83 velocity=0 time=0
note_on channel=0 note=71 velocity=0 time=0
note_on channel=0 note=69 velocity=54 time=0
note_on channel=0 note=81 velocity=54 time=0
note_on channel=0 note=47 velocity=34 time=0
control_change channel=0 control=64 value=0 time=12
control_change channel=0 control=64 value=127 time=66
note_on channel=0 note=47 velocity=0 time=0
note_on channel=0 note=59 velocity=33 time=0
note_on channel=0 note=59 velocity=0 time=0
note_on channel=0 note=81 velocity=0 time=0
note_on channel=0 note=69 velocity=0 time=0
note_on channel=0 note=68 velocity=63 time=0
note_on channel=0 note=80 velocity=63 time=0
note_on channel=0 note=51 velocity=42 time=0
control_change channel=0 control=64 value=0 time=10
control_change channel=0 control=64 value=127 time=70
note_on channel=0 note=51 velocity=0 time=40
note_on channel=0 note=59 velocity=32 time=0
note_on channel=0 note=59 velocity=0 time=0
note_on channel=0 note=80 velocity=0 time=0
note_on channel=0 note=68 velocity=0 time=0
note_on channel=0 note=66 velocity=51 time=0
note_on channel=0 note=78 velocity=51 time=0
note_on channel=0 note=47 velocity=33 time=0
control_change channel=0 control=64 value=0 time=9
control_change channel=0 control=64 value=127 time=77
note_on channel=0 note=47 velocity=0 time=34
note_on channel=0 note=59 velocity=31 time=0
note_on channel=0 note=59 velocity=0 time=90
note_on channel=0 note=78 velocity=0 time=0
note_on channel=0 note=66 velocity=0 time=0
control_change channel=0 control=64 value=0 time=0
note_on channel=0 note=66 velocity=51 time=30
note_on channel=0 note=78 velocity=51 time=0
note_on channel=0 note=51 velocity=33 time=0
control_change channel=0 control=64 value=127 time=75
note_on channel=0 note=51 velocity=0 time=45
note_on channel=0 note=59 velocity=33 time=0
note_on channel=0 note=59 velocity=0 time=0
note_on channel=0 note=78 velocity=0 time=0
note_on channel=0 note=66 velocity=0 time=0
note_on channel=0 note=68 velocity=58 time=0
note_on channel=0 note=80 velocity=58 time=0
note_on channel=0 note=53 velocity=37 time=0
control_change channel=0 control=64 value=0 time=17
control_change channel=0 control=64 value=127 time=58
note_on channel=0 note=53 velocity=0 time=45
note_on channel=0 note=59 velocity=39 time=0
note_on channel=0 note=59 velocity=0 time=0
note_on channel=0 note=80 velocity=0 time=0
note_on channel=0 note=68 velocity=0 time=0
note_on channel=0 note=69 velocity=57 time=0
note_on channel=0 note=81 velocity=69 time=0
note_on channel=0 note=54 velocity=43 time=0
control_change channel=0 control=64 value=0 time=21
control_change channel=0 control=64 value=127 time=71
note_on channel=0 note=54 velocity=0 time=28
note_on channel=0 note=59 velocity=43 time=0
note_on channel=0 note=59 velocity=0 time=120
note_on channel=0 note=81 velocity=0 time=0
note_on channel=0 note=69 velocity=0 time=0
note_on channel=0 note=73 velocity=69 time=0
note_on channel=0 note=85 velocity=69 time=0
note_on channel=0 note=57 velocity=49 time=0
note_on channel=0 note=57 velocity=0 time=120
note_on channel=0 note=59 velocity=43 time=0
note_on channel=0 note=59 velocity=0 time=120
note_on channel=0 note=85 velocity=0 time=0
note_on channel=0 note=73 velocity=0 time=0
note_on channel=0 note=71 velocity=56 time=0
note_on channel=0 note=83 velocity=67 time=0
note_on channel=0 note=56 velocity=44 time=0
control_change channel=0 control=64 value=0 time=20
control_change channel=0 control=64 value=127 time=93
note_on channel=0 note=56 velocity=0 time=7
note_on channel=0 note=59 velocity=37 time=0
note_on channel=0 note=59 velocity=0 time=0
note_on channel=0 note=83 velocity=0 time=0
note_on channel=0 note=71 velocity=0 time=0
note_on channel=0 note=87 velocity=49 time=0
note_on channel=0 note=75 velocity=32 time=0
note_on channel=0 note=47 velocity=25 time=0
note_on channel=0 note=54 velocity=25 time=0
control_change channel=0 control=64 value=0 time=14
control_change channel=0 control=64 value=127 time=64
note_on channel=0 note=54 velocity=0 time=0
note_on channel=0 note=47 velocity=0 time=0
note_on channel=0 note=57 velocity=27 time=0
note_on channel=0 note=57 velocity=0 time=0
note_on channel=0 note=75 velocity=0 time=0
note_on channel=0 note=87 velocity=0 time=0
note_on channel=0 note=88 velocity=57 time=0
note_on channel=0 note=76 velocity=35 time=0
note_on channel=0 note=52 velocity=31 time=0
note_on channel=0 note=56 velocity=31 time=0
control_change channel=0 control=64 value=0 time=6
control_change channel=0 control=64 value=127 time=58
note_on channel=0 note=56 velocity=0 time=56
note_on channel=0 note=52 velocity=0 time=0
note_on channel=0 note=59 velocity=23 time=0
note_on channel=0 note=59 velocity=0 time=120
note_on channel=0 note=56 velocity=31 time=0
note_on channel=0 note=56 velocity=0 time=120
note_on channel=0 note=52 velocity=25 time=0
note_on channel=0 note=52 velocity=0 time=0
note_on channel=0 note=76 velocity=0 time=0
note_on channel=0 note=88 velocity=0 time=0
note_on channel=0 note=51 velocity=31 time=0
control_change channel=0 control=64 value=0 time=14
control_change channel=0 control=64 value=127 time=78
note_on channel=0 note=51 velocity=0 time=28
note_on channel=0 note=59 velocity=27 time=0
note_on channel=0 note=59 velocity=0 time=120
note_on channel=0 note=71 velocity=47 time=0
note_on channel=0 note=54 velocity=31 time=0
note_on channel=0 note=54 velocity=0 time=0
note_on channel=0 note=51 velocity=32 time=0
note_on channel=0 note=51 velocity=0 time=0
note_on channel=0 note=71 velocity=0 time=0
note_on channel=0 note=70 velocity=51 time=0
note_on channel=0 note=49 velocity=38 time=0
control_change channel=0 control=64 value=0 time=7
control_change channel=0 control=64 value=127 time=85
note_on channel=0 note=49 velocity=0 time=28
note_on channel=0 note=58 velocity=29 time=0
note_on channel=0 note=58 velocity=0 time=120
note_on channel=0 note=54 velocity=31 time=0
note_on channel=0 note=54 velocity=0 time=120
note_on channel=0 note=49 velocity=27 time=0
note_on channel=0 note=49 velocity=0 time=120
note_on channel=0 note=70 velocity=0 time=0
note_on channel=0 note=76 velocity=56 time=0
note_on channel=0 note=42 velocity=31 time=0
note_on channel=0 note=42 velocity=0 time=120
note_on channel=0 note=58 velocity=26 time=0
note_on channel=0 note=58 velocity=0 time=120
note_on channel=0 note=54 velocity=29 time=0
note_on channel=0 note=54 velocity=0 time=0
note_on channel=0 note=49 velocity=27 time=0
note_on channel=0 note=49 velocity=0 time=0
note_on channel=0 note=76 velocity=0 time=0
note_on channel=0 note=75 velocity=51 time=0
note_on channel=0 note=47 velocity=31 time=0
control_change channel=0 control=64 value=0 time=0
control_change channel=0 control=64 value=127 time=99
note_on channel=0 note=47 velocity=0 time=21
note_on channel=0 note=59 velocity=25 time=0
note_on channel=0 note=59 velocity=0 time=120
note_on channel=0 note=54 velocity=30 time=0
note_on channel=0 note=54 velocity=0 time=120
note_on channel=0 note=51 velocity=27 time=0
note_on channel=0 note=51 velocity=0 time=120
note_on channel=0 note=47 velocity=37 time=0
note_on channel=0 note=47 velocity=0 time=120
note_on channel=0 note=59 velocity=30 time=0
note_on channel=0 note=59 velocity=0 time=120
note_on channel=0 note=75 velocity=0 time=0
note_on channel=0 note=69 velocity=49 time=0
note_on channel=0 note=49 velocity=40 time=0
control_change channel=0 control=64 value=0 time=8
control_change channel=0 control=64 value=127 time=63
note_on channel=0 note=49 velocity=0 time=0
note_on channel=0 note=57 velocity=36 time=0
note_on channel=0 note=57 velocity=0 time=0
note_on channel=0 note=69 velocity=0 time=0
note_on channel=0 note=68 velocity=60 time=0
note_on channel=0 note=47 velocity=34 time=0
control_change channel=0 control=64 value=0 time=7
control_change channel=0 control=64 value=127 time=78
note_on channel=0 note=47 velocity=0 time=35
note_on channel=0 note=56 velocity=31 time=0
note_on channel=0 note=56 velocity=0 time=120
note_on channel=0 note=52 velocity=41 time=0
note_on channel=0 note=52 velocity=0 time=120
note_on channel=0 note=47 velocity=37 time=0
note_on channel=0 note=47 velocity=0 time=120
note_on channel=0 note=68 velocity=0 time=0
note_on channel=0 note=74 velocity=64 time=0
note_on channel=0 note=40 velocity=47 time=0
control_change channel=0 control=64 value=0 time=18
control_change channel=0 control=64 value=127 time=74
note_on channel=0 note=40 velocity=0 time=28
note_on channel=0 note=56 velocity=35 time=0
note_on channel=0 note=56 velocity=0 time=120
note_on channel=0 note=52 velocity=39 time=0
note_on channel=0 note=52 velocity=0 time=0
note_on channel=0 note=47 velocity=31 time=0
note_on channel=0 note=47 velocity=0 time=0
note_on channel=0 note=74 velocity=0 time=0
note_on channel=0 note=73 velocity=56 time=0
note_on channel=0 note=45 velocity=38 time=0
control_change channel=0 control=64 value=0 time=16
control_change channel=0 control=64 value=127 time=69
note_on channel=0 note=45 velocity=0 time=35
note_on channel=0 note=57 velocity=29 time=0
note_on channel=0 note=57 velocity=0 time=120
note_on channel=0 note=52 velocity=34 time=0
note_on channel=0 note=52 velocity=0 time=120
note_on channel=0 note=49 velocity=29 time=0
note_on channel=0 note=49 velocity=0 time=120
note_on channel=0 note=45 velocity=34 time=0
note_on channel=0 note=45 velocity=0 time=0
note_on channel=0 note=52 velocity=29 time=0
note_on channel=0 note=52 velocity=0 time=120
note_on channel=0 note=73 velocity=0 time=0
note_on channel=0 note=73 velocity=56 time=0
note_on channel=0 note=45 velocity=31 time=0
note_on channel=0 note=45 velocity=0 time=120
note_on channel=0 note=52 velocity=35 time=0
note_on channel=0 note=52 velocity=0 time=0
note_on channel=0 note=73 velocity=0 time=0
note_on channel=0 note=72 velocity=58 time=0
note_on channel=0 note=45 velocity=40 time=0
control_change channel=0 control=64 value=0 time=0
control_change channel=0 control=64 value=127 time=71
note_on channel=0 note=45 velocity=0 time=49
note_on channel=0 note=52 velocity=35 time=0
note_on channel=0 note=52 velocity=0 time=120
note_on channel=0 note=72 velocity=0 time=0
note_on channel=0 note=73 velocity=58 time=0
note_on channel=0 note=45 velocity=39 time=0
note_on channel=0 note=45 velocity=0 time=120
note_on channel=0 note=52 velocity=35 time=0
note_on channel=0 note=52 velocity=0 time=120
note_on channel=0 note=73 velocity=0 time=0
note_on channel=0 note=69 velocity=55 time=0
note_on channel=0 note=64 velocity=46 time=0
note_on channel=0 note=61 velocity=46 time=0
note_on channel=0 note=45 velocity=43 time=0
control_change channel=0 control=64 value=0 time=7
control_change channel=0 control=64 value=127 time=64
note_on channel=0 note=45 velocity=0 time=49
note_on channel=0 note=52 velocity=35 time=0
note_on channel=0 note=69 velocity=0 time=60
note_on channel=0 note=61 velocity=0 time=0
note_on channel=0 note=64 velocity=0 time=0
note_on channel=0 note=52 velocity=0 time=60
note_on channel=0 note=68 velocity=54 time=0
note_on channel=0 note=64 velocity=44 time=0
note_on channel=0 note=59 velocity=44 time=0
note_on channel=0 note=47 velocity=43 time=0
control_change channel=0 control=64 value=0 time=14
control_change channel=0 control=64 value=127 time=64
note_on channel=0 note=47 velocity=0 time=0
note_on channel=0 note=52 velocity=35 time=0
note_on channel=0 note=68 velocity=0 time=60
note_on channel=0 note=59 velocity=0 time=0
note_on channel=0 note=64 velocity=0 time=0
note_on channel=0 note=52 velocity=0 time=0
note_on channel=0 note=68 velocity=72 time=0
note_on channel=0 note=64 velocity=60 time=0
note_on channel=0 note=58 velocity=60 time=0
note_on channel=0 note=49 velocity=52 time=0
control_change channel=0 control=64 value=0 time=7
control_change channel=0 control=64 value=127 time=62
note_on channel=0 note=49 velocity=0 time=51
note_on channel=0 note=52 velocity=46 time=0
note_on channel=0 note=52 velocity=0 time=120
note_on channel=0 note=68 velocity=0 time=0
note_on channel=0 note=66 velocity=58 time=0
note_on channel=0 note=49 velocity=50 time=0
note_on channel=0 note=49 velocity=0 time=0
note_on channel=0 note=52 velocity=40 time=0
note_on channel=0 note=52 velocity=0 time=0
note_on channel=0 note=58 velocity=0 time=0
note_on channel=0 note=64 velocity=0 time=0
note_on channel=0 note=64 velocity=58 time=0
note_on channel=0 note=57 velocity=58 time=0
note_on channel=0 note=48 velocity=46 time=0
control_change channel=0 control=64 value=0 time=12
control_change channel=0 control=64 value=127 time=68
note_on channel=0 note=48 velocity=0 time=40
note_on channel=0 note=52 velocity=35 time=0
note_on channel=0 note=52 velocity=0 time=120
note_on channel=0 note=66 velocity=0 time=0
note_on channel=0 note=66 velocity=60 time=0
note_on channel=0 note=48 velocity=44 time=0
note_on channel=0 note=48 velocity=0 time=0
note_on channel=0 note=52 velocity=35 time=0
note_on channel=0 note=52 velocity=0 time=0
note_on channel=0 note=66 velocity=0 time=0
note_on channel=0 note=57 velocity=0 time=0
note_on channel=0 note=64 velocity=0 time=0
note_on channel=0 note=66 velocity=49 time=0
note_on channel=0 note=63 velocity=41 time=0
note_on channel=0 note=57 velocity=41 time=0
note_on channel=0 note=47 velocity=31 time=0
control_change channel=0 control=64 value=0 time=7
control_change channel=0 control=64 value=127 time=78
note_on channel=0 note=47 velocity=0 time=35
note_on channel=0 note=54 velocity=27 time=0
note_on channel=0 note=54 velocity=0 time=120
note_on channel=0 note=57 velocity=0 time=0
note_on channel=0 note=63 velocity=0 time=0
note_on channel=0 note=66 velocity=0 time=0
note_on channel=0 note=71 velocity=38 time=0
note_on channel=0 note=63 velocity=32 time=0
note_on channel=0 note=47 velocity=31 time=0
note_on channel=0 note=47 velocity=0 time=120
note_on channel=0 note=54 velocity=29 time=0
note_on channel=0 note=57 velocity=29 time=0
note_on channel=0 note=57 velocity=0 time=0
note_on channel=0 note=54 velocity=0 time=0
note_on channel=0 note=71 velocity=0 time=0
note_on channel=0 note=70 velocity=46 time=0
note_on channel=0 note=47 velocity=31 time=0
control_change channel=0 control=64 value=0 time=9
control_change channel=0 control=64 value=127 time=76
note_on channel=0 note=47 velocity=0 time=35
note_on channel=0 note=54 velocity=27 time=0
note_on channel=0 note=57 velocity=27 time=0
note_on channel=0 note=57 velocity=0 time=120
note_on channel=0 note=63 velocity=0 time=0
note_on channel=0 note=70 velocity=0 time=0
note_on channel=0 note=54 velocity=0 time=0
note_on channel=0 note=71 velocity=40 time=0
note_on channel=0 note=63 velocity=34 time=0
note_on channel=0 note=47 velocity=31 time=0
note_on channel=0 note=47 velocity=0 time=0
note_on channel=0 note=57 velocity=28 time=0
note_on channel=0 note=54 velocity=28 time=0
note_on channel=0 note=54 velocity=0 time=0
note_on channel=0 note=71 velocity=0 time=0
note_on channel=0 note=63 velocity=0 time=0
note_on channel=0 note=57 velocity=0 time=0
note_on channel=0 note=64 velocity=51 time=0
note_on channel=0 note=52 velocity=31 time=0
note_on channel=0 note=56 velocity=31 time=0
control_change channel=0 control=64 value=0 time=6
control_change channel=0 control=64 value=0 time=1
control_change channel=0 control=64 value=127 time=57
note_on channel=0 note=56 velocity=0 time=56
note_on channel=0 note=52 velocity=0 time=0
note_on channel=0 note=59 velocity=23 time=0
note_on channel=0 note=59 velocity=0 time=120
note_on channel=0 note=56 velocity=31 time=0
note_on channel=0 note=56 velocity=0 time=120
note_on channel=0 note=52 velocity=25 time=0
note_on channel=0 note=52 velocity=0 time=0
note_on channel=0 note=64 velocity=0 time=0
note_on channel=0 note=51 velocity=31 time=0
control_change channel=0 control=64 value=0 time=14
control_change channel=0 control=64 value=127 time=78
note_on channel=0 note=51 velocity=0 time=28
note_on channel=0 note=59 velocity=27 time=0
note_on channel=0 note=59 velocity=0 time=120
note_on channel=0 note=83 velocity=47 time=0
note_on channel=0 note=71 velocity=47 time=0
note_on channel=0 note=54 velocity=31 time=0
note_on channel=0 note=54 velocity=0 time=0
note_on channel=0 note=51 velocity=32 time=0
note_on channel=0 note=51 velocity=0 time=0
note_on channel=0 note=71 velocity=0 time=0
note_on channel=0 note=83 velocity=0 time=0
note_on channel=0 note=82 velocity=51 time=0
note_on channel=0 note=70 velocity=51 time=0
note_on channel=0 note=49 velocity=38 time=0
control_change channel=0 control=64 value=0 time=7
control_change channel=0 control=64 value=127 time=85
note_on channel=0 note=49 velocity=0 time=28
note_on channel=0 note=58 velocity=29 time=0
note_on channel=0 note=58 velocity=0 time=120
note_on channel=0 note=54 velocity=31 time=0
note_on channel=0 note=54 velocity=0 time=120
note_on channel=0 note=49 velocity=27 time=0
note_on channel=0 note=49 velocity=0 time=120
note_on channel=0 note=70 velocity=0 time=0
note_on channel=0 note=82 velocity=0 time=0
note_on channel=0 note=88 velocity=56 time=0
note_on channel=0 note=76 velocity=56 time=0
note_on channel=0 note=42 velocity=31 time=0
note_on channel=0 note=42 velocity=0 time=120
note_on channel=0 note=58 velocity=26 time=0
note_on channel=0 note=58 velocity=0 time=120
note_on channel=0 note=54 velocity=29 time=0
note_on channel=0 note=54 velocity=0 time=0
note_on channel=0 note=49 velocity=27 time=0
note_on channel=0 note=49 velocity=0 time=0
note_on channel=0 note=76 velocity=0 time=0
note_on channel=0 note=88 velocity=0 time=0
note_on channel=0 note=87 velocity=51 time=0
note_on channel=0 note=75 velocity=51 time=0
note_on channel=0 note=47 velocity=31 time=0
control_change channel=0 control=64 value=0 time=0
control_change channel=0 control=64 value=127 time=99
note_on channel=0 note=47 velocity=0 time=21
note_on channel=0 note=59 velocity=25 time=0
note_on channel=0 note=59 velocity=0 time=120
note_on channel=0 note=54 velocity=30 time=0
note_on channel=0 note=54 velocity=0 time=120
note_on channel=0 note=51 velocity=27 time=0
note_on channel=0 note=51 velocity=0 time=120
note_on channel=0 note=47 velocity=37 time=0
note_on channel=0 note=47 velocity=0 time=120
note_on channel=0 note=59 velocity=30 time=0
note_on channel=0 note=59 velocity=0 time=120
note_on channel=0 note=75 velocity=0 time=0
note_on channel=0 note=87 velocity=0 time=0
note_on channel=0 note=81 velocity=51 time=0
note_on channel=0 note=69 velocity=51 time=0
note_on channel=0 note=49 velocity=42 time=0
control_change channel=0 control=64 value=0 time=8
control_change channel=0 control=64 value=127 time=63
note_on channel=0 note=49 velocity=0 time=0
note_on channel=0 note=57 velocity=38 time=0
note_on channel=0 note=57 velocity=0 time=0
note_on channel=0 note=69 velocity=0 time=0
note_on channel=0 note=81 velocity=0 time=0
note_on channel=0 note=80 velocity=62 time=0
note_on channel=0 note=68 velocity=62 time=0
note_on channel=0 note=47 velocity=37 time=0
control_change channel=0 control=64 value=0 time=7
control_change channel=0 control=64 value=127 time=78
note_on channel=0 note=47 velocity=0 time=35
note_on channel=0 note=56 velocity=36 time=0
note_on channel=0 note=56 velocity=0 time=120
note_on channel=0 note=52 velocity=44 time=0
note_on channel=0 note=52 velocity=0 time=120
note_on channel=0 note=47 velocity=38 time=0
note_on channel=0 note=47 velocity=0 time=120
note_on channel=0 note=68 velocity=0 time=0
note_on channel=0 note=80 velocity=0 time=0
note_on channel=0 note=86 velocity=59 time=0
note_on channel=0 note=74 velocity=59 time=0
note_on channel=0 note=40 velocity=42 time=0
control_change channel=0 control=64 value=0 time=18
control_change channel=0 control=64 value=127 time=74
note_on channel=0 note=40 velocity=0 time=28
note_on channel=0 note=56 velocity=35 time=0
note_on channel=0 note=56 velocity=0 time=120
note_on channel=0 note=52 velocity=39 time=0
note_on channel=0 note=52 velocity=0 time=0
note_on channel=0 note=47 velocity=31 time=0
note_on channel=0 note=47 velocity=0 time=0
note_on channel=0 note=74 velocity=0 time=0
note_on channel=0 note=86 velocity=0 time=0
note_on channel=0 note=85 velocity=56 time=0
note_on channel=0 note=73 velocity=56 time=0
note_on channel=0 note=45 velocity=38 time=0
control_change channel=0 control=64 value=0 time=16
control_change channel=0 control=64 value=127 time=69
note_on channel=0 note=45 velocity=0 time=35
note_on channel=0 note=57 velocity=29 time=0
note_on channel=0 note=57 velocity=0 time=120
note_on channel=0 note=52 velocity=34 time=0
note_on channel=0 note=52 velocity=0 time=120
note_on channel=0 note=49 velocity=29 time=0
note_on channel=0 note=49 velocity=0 time=120
note_on channel=0 note=45 velocity=34 time=0
note_on channel=0 note=45 velocity=0 time=0
note_on channel=0 note=52 velocity=29 time=0
note_on channel=0 note=52 velocity=0 time=120
note_on channel=0 note=73 velocity=0 time=0
note_on channel=0 note=85 velocity=0 time=0
note_on channel=0 note=85 velocity=50 time=0
note_on channel=0 note=73 velocity=50 time=0
note_on channel=0 note=45 velocity=35 time=0
note_on channel=0 note=45 velocity=0 time=120
note_on channel=0 note=52 velocity=40 time=0
note_on channel=0 note=52 velocity=0 time=0
note_on channel=0 note=73 velocity=0 time=0
note_on channel=0 note=85 velocity=0 time=0
note_on channel=0 note=84 velocity=59 time=0
note_on channel=0 note=72 velocity=59 time=0
note_on channel=0 note=44 velocity=40 time=0
control_change channel=0 control=64 value=0 time=0
control_change channel=0 control=64 value=127 time=71
note_on channel=0 note=44 velocity=0 time=49
note_on channel=0 note=52 velocity=36 time=0
note_on channel=0 note=52 velocity=0 time=120
note_on channel=0 note=72 velocity=0 time=0
note_on channel=0 note=84 velocity=0 time=0
note_on channel=0 note=85 velocity=60 time=0
note_on channel=0 note=73 velocity=60 time=0
note_on channel=0 note=45 velocity=40 time=0
note_on channel=0 note=45 velocity=0 time=120
note_on channel=0 note=52 velocity=36 time=0
note_on channel=0 note=52 velocity=0 time=120
note_on channel=0 note=73 velocity=0 time=0
note_on channel=0 note=85 velocity=0 time=0
note_on channel=0 note=81 velocity=58 time=0
note_on channel=0 note=69 velocity=58 time=0
note_on channel=0 note=49 velocity=45 time=0
note_on channel=0 note=45 velocity=38 time=0
control_change channel=0 control=64 value=0 time=7
control_change channel=0 control=64 value=127 time=64
note_on channel=0 note=45 velocity=0 time=49
note_on channel=0 note=49 velocity=0 time=0
note_on channel=0 note=52 velocity=37 time=0
note_on channel=0 note=69 velocity=0 time=60
note_on channel=0 note=81 velocity=0 time=0
note_on channel=0 note=52 velocity=0 time=60
note_on channel=0 note=80 velocity=57 time=0
note_on channel=0 note=68 velocity=57 time=0
note_on channel=0 note=52 velocity=46 time=0
note_on channel=0 note=47 velocity=39 time=0
control_change channel=0 control=64 value=0 time=14
control_change channel=0 control=64 value=127 time=64
note_on channel=0 note=47 velocity=0 time=0
note_on channel=0 note=52 velocity=0 time=0
note_on channel=0 note=56 velocity=37 time=0
note_on channel=0 note=68 velocity=0 time=60
note_on channel=0 note=80 velocity=0 time=0
note_on channel=0 note=56 velocity=0 time=0
note_on channel=0 note=80 velocity=70 time=0
note_on channel=0 note=68 velocity=70 time=0
note_on channel=0 note=52 velocity=44 time=0
note_on channel=0 note=49 velocity=37 time=0
control_change channel=0 control=64 value=0 time=7
control_change channel=0 control=64 value=127 time=62
note_on channel=0 note=49 velocity=0 time=51
note_on channel=0 note=52 velocity=0 time=0
note_on channel=0 note=58 velocity=39 time=0
note_on channel=0 note=58 velocity=0 time=120
note_on channel=0 note=68 velocity=0 time=0
note_on channel=0 note=80 velocity=0 time=0
note_on channel=0 note=78 velocity=64 time=0
note_on channel=0 note=66 velocity=64 time=0
note_on channel=0 note=52 velocity=44 time=0
note_on channel=0 note=49 velocity=36 time=0
note_on channel=0 note=49 velocity=0 time=0
note_on channel=0 note=52 velocity=0 time=0
note_on channel=0 note=58 velocity=35 time=0
note_on channel=0 note=58 velocity=0 time=0
note_on channel=0 note=52 velocity=40 time=0
note_on channel=0 note=48 velocity=34 time=0
control_change channel=0 control=64 value=0 time=12
control_change channel=0 control=64 value=127 time=68
note_on channel=0 note=48 velocity=0 time=40
note_on channel=0 note=52 velocity=0 time=0
note_on channel=0 note=57 velocity=31 time=0
note_on channel=0 note=66 velocity=0 time=115
note_on channel=0 note=78 velocity=0 time=0
note_on channel=0 note=57 velocity=0 time=5
note_on channel=0 note=78 velocity=53 time=0
note_on channel=0 note=66 velocity=53 time=0
note_on channel=0 note=52 velocity=49 time=0
note_on channel=0 note=48 velocity=42 time=0
note_on channel=0 note=48 velocity=0 time=0
note_on channel=0 note=52 velocity=0 time=0
note_on channel=0 note=57 velocity=39 time=0
note_on channel=0 note=66 velocity=0 time=108
note_on channel=0 note=78 velocity=0 time=0
note_on channel=0 note=57 velocity=0 time=0
note_on channel=0 note=78 velocity=49 time=0
note_on channel=0 note=66 velocity=49 time=0
note_on channel=0 note=51 velocity=31 time=0
note_on channel=0 note=47 velocity=26 time=0
control_change channel=0 control=64 value=0 time=7
control_change channel=0 control=64 value=127 time=78
note_on channel=0 note=47 velocity=0 time=35
note_on channel=0 note=51 velocity=0 time=0
note_on channel=0 note=57 velocity=27 time=0
note_on channel=0 note=57 velocity=0 time=120
note_on channel=0 note=66 velocity=0 time=0
note_on channel=0 note=78 velocity=0 time=0
note_on channel=0 note=83 velocity=38 time=0
note_on channel=0 note=71 velocity=38 time=0
note_on channel=0 note=51 velocity=31 time=0
note_on channel=0 note=47 velocity=26 time=0
note_on channel=0 note=47 velocity=0 time=120
note_on channel=0 note=51 velocity=0 time=0
note_on channel=0 note=57 velocity=29 time=0
note_on channel=0 note=57 velocity=0 time=0
note_on channel=0 note=71 velocity=0 time=0
note_on channel=0 note=83 velocity=0 time=0
note_on channel=0 note=82 velocity=46 time=0
note_on channel=0 note=70 velocity=46 time=0
note_on channel=0 note=51 velocity=31 time=0
note_on channel=0 note=47 velocity=26 time=0
control_change channel=0 control=64 value=0 time=9
control_change channel=0 control=64 value=127 time=76
note_on channel=0 note=47 velocity=0 time=35
note_on channel=0 note=51 velocity=0 time=0
note_on channel=0 note=57 velocity=27 time=0
note_on channel=0 note=57 velocity=0 time=120
note_on channel=0 note=70 velocity=0 time=0
note_on channel=0 note=82 velocity=0 time=0
note_on channel=0 note=83 velocity=40 time=0
note_on channel=0 note=71 velocity=40 time=0
note_on channel=0 note=51 velocity=31 time=0
note_on channel=0 note=47 velocity=26 time=0
note_on channel=0 note=47 velocity=0 time=0
note_on channel=0 note=51 velocity=0 time=0
note_on channel=0 note=57 velocity=28 time=0
note_on channel=0 note=57 velocity=0 time=0
note_on channel=0 note=71 velocity=0 time=0
note_on channel=0 note=83 velocity=0 time=0
note_on channel=0 note=76 velocity=51 time=0
note_on channel=0 note=64 velocity=51 time=0
note_on channel=0 note=52 velocity=31 time=0
note_on channel=0 note=56 velocity=31 time=0
control_change channel=0 control=64 value=0 time=7
note_on channel=0 note=56 velocity=0 time=113
note_on channel=0 note=52 velocity=0 time=0
note_on channel=0 note=52 velocity=31 time=0
note_on channel=0 note=52 velocity=0 time=120
note_on channel=0 note=51 velocity=31 time=0
note_on channel=0 note=51 velocity=0 time=120
note_on channel=0 note=49 velocity=31 time=0
note_on channel=0 note=49 velocity=0 time=120
note_on channel=0 note=64 velocity=0 time=0
note_on channel=0 note=76 velocity=0 time=0
note_on channel=0 note=47 velocity=31 time=0
note_on channel=0 note=47 velocity=0 time=0
note_on channel=0 note=45 velocity=30 time=0
note_on channel=0 note=45 velocity=0 time=0
note_on channel=0 note=64 velocity=43 time=0
note_on channel=0 note=44 velocity=25 time=0
note_on channel=0 note=44 velocity=0 time=0
note_on channel=0 note=64 velocity=0 time=0
note_on channel=0 note=66 velocity=39 time=0
note_on channel=0 note=42 velocity=25 time=0
note_on channel=0 note=42 velocity=0 time=0
note_on channel=0 note=66 velocity=0 time=0
note_on channel=0 note=64 velocity=34 time=0
note_on channel=0 note=68 velocity=50 time=0
note_on channel=0 note=40 velocity=25 time=0
control_change channel=0 control=64 value=127 time=78
note_on channel=0 note=64 velocity=0 time=42
note_on channel=0 note=59 velocity=26 time=0
note_on channel=0 note=59 velocity=0 time=120
note_on channel=0 note=40 velocity=0 time=0
note_on channel=0 note=64 velocity=31 time=0
note_on channel=0 note=64 velocity=0 time=120
note_on channel=0 note=59 velocity=26 time=0
note_on channel=0 note=59 velocity=0 time=0
note_on channel=0 note=68 velocity=0 time=0
note_on channel=0 note=68 velocity=30 time=0
note_on channel=0 note=71 velocity=46 time=0
control_change channel=0 control=64 value=0 time=16
control_change channel=0 control=64 value=127 time=83
note_on channel=0 note=68 velocity=0 time=21
note_on channel=0 note=59 velocity=27 time=0
note_on channel=0 note=59 velocity=0 time=0
note_on channel=0 note=71 velocity=0 time=0
note_on channel=0 note=66 velocity=28 time=0
note_on channel=0 note=69 velocity=43 time=0
control_change channel=0 control=64 value=0 time=13
control_change channel=0 control=64 value=127 time=51
note_on channel=0 note=66 velocity=0 time=0
note_on channel=0 note=59 velocity=27 time=0
note_on channel=0 note=59 velocity=0 time=0
note_on channel=0 note=69 velocity=0 time=0
note_on channel=0 note=64 velocity=34 time=0
note_on channel=0 note=68 velocity=50 time=0
note_on channel=0 note=35 velocity=25 time=0
control_change channel=0 control=64 value=0 time=0
control_change channel=0 control=64 value=127 time=64
note_on channel=0 note=64 velocity=0 time=56
note_on channel=0 note=59 velocity=26 time=0
note_on channel=0 note=59 velocity=0 time=0
note_on channel=0 note=35 velocity=0 time=0
note_on channel=0 note=68 velocity=0 time=0
note_on channel=0 note=63 velocity=27 time=0
note_on channel=0 note=66 velocity=41 time=0
control_change channel=0 control=64 value=0 time=14
control_change channel=0 control=64 value=127 time=43
note_on channel=0 note=63 velocity=0 time=63
note_on channel=0 note=59 velocity=25 time=0
note_on channel=0 note=59 velocity=0 time=90
note_on channel=0 note=66 velocity=0 time=0
control_change channel=0 control=64 value=0 time=0
note_on channel=0 note=63 velocity=27 time=30
note_on channel=0 note=66 velocity=41 time=0
control_change channel=0 control=64 value=127 time=64
note_on channel=0 note=63 velocity=0 time=56
note_on channel=0 note=59 velocity=26 time=0
note_on channel=0 note=59 velocity=0 time=0
note_on channel=0 note=66 velocity=0 time=0
note_on channel=0 note=64 velocity=28 time=0
note_on channel=0 note=68 velocity=43 time=0
control_change channel=0 control=64 value=0 time=18
control_change channel=0 control=64 value=127 time=67
note_on channel=0 note=64 velocity=0 time=35
note_on channel=0 note=59 velocity=28 time=0
note_on channel=0 note=59 velocity=0 time=0
note_on channel=0 note=68 velocity=0 time=0
note_on channel=0 note=64 velocity=30 time=0
note_on channel=0 note=69 velocity=46 time=0
note_on channel=0 note=37 velocity=25 time=0
control_change channel=0 control=64 value=0 time=10
control_change channel=0 control=64 value=127 time=75
note_on channel=0 note=64 velocity=0 time=35
note_on channel=0 note=59 velocity=28 time=0
note_on channel=0 note=59 velocity=0 time=120
note_on channel=0 note=37 velocity=0 time=0
note_on channel=0 note=69 velocity=0 time=0
note_on channel=0 note=64 velocity=36 time=0
note_on channel=0 note=73 velocity=54 time=0
note_on channel=0 note=64 velocity=0 time=120
note_on channel=0 note=59 velocity=31 time=0
note_on channel=0 note=59 velocity=0 time=120
note_on channel=0 note=73 velocity=0 time=0
note_on channel=0 note=66 velocity=37 time=0
note_on channel=0 note=71 velocity=47 time=0
note_on channel=0 note=39 velocity=23 time=0
control_change channel=0 control=64 value=0 time=16
control_change channel=0 control=64 value=127 time=62
note_on channel=0 note=66 velocity=0 time=42
note_on channel=0 note=59 velocity=26 time=0
note_on channel=0 note=59 velocity=0 time=0
note_on channel=0 note=39 velocity=0 time=0
note_on channel=0 note=71 velocity=0 time=0
note_on channel=0 note=63 velocity=25 time=0
note_on channel=0 note=66 velocity=38 time=0
note_on channel=0 note=35 velocity=22 time=0
note_on channel=0 note=63 velocity=0 time=0
note_on channel=0 note=59 velocity=27 time=0
note_on channel=0 note=59 velocity=0 time=0
note_on channel=0 note=35 velocity=0 time=0
note_on channel=0 note=66 velocity=0 time=0
note_on channel=0 note=59 velocity=35 time=0
note_on channel=0 note=64 velocity=35 time=0
note_on channel=0 note=68 velocity=42 time=0
note_on channel=0 note=40 velocity=28 time=0
control_change channel=0 control=64 value=0 time=8
control_change channel=0 control=64 value=127 time=31
note_on channel=0 note=40 velocity=0 time=0
note_on channel=0 note=59 velocity=0 time=0
note_on channel=0 note=64 velocity=0 time=0
note_on channel=0 note=68 velocity=0 time=0
note_on channel=0 note=64 velocity=32 time=0
control_change channel=0 control=64 value=0 time=7
control_change channel=0 control=64 value=127 time=46
note_on channel=0 note=64 velocity=0 time=67
note_on channel=0 note=59 velocity=25 time=0
note_on channel=0 note=78 velocity=48 time=90
note_on channel=0 note=78 velocity=0 time=0
note_on channel=0 note=59 velocity=0 time=0
note_on channel=0 note=76 velocity=54 time=0
note_on channel=0 note=64 velocity=32 time=0
control_change channel=0 control=64 value=0 time=18
note_on channel=0 note=64 velocity=0 time=102
note_on channel=0 note=76 velocity=0 time=0
note_on channel=0 note=75 velocity=48 time=0
note_on channel=0 note=59 velocity=27 time=0
note_on channel=0 note=59 velocity=0 time=120
note_on channel=0 note=75 velocity=0 time=0
note_on channel=0 note=76 velocity=56 time=0
note_on channel=0 note=64 velocity=32 time=0
note_on channel=0 note=64 velocity=0 time=120
note_on channel=0 note=76 velocity=0 time=0
note_on channel=0 note=78 velocity=50 time=0
note_on channel=0 note=59 velocity=29 time=0
note_on channel=0 note=78 velocity=0 time=90
note_on channel=0 note=81 velocity=50 time=0
note_on channel=0 note=81 velocity=0 time=0
note_on channel=0 note=59 velocity=0 time=0
note_on channel=0 note=80 velocity=60 time=0
note_on channel=0 note=64 velocity=35 time=0
note_on channel=0 note=64 velocity=0 time=120
note_on channel=0 note=80 velocity=0 time=0
note_on channel=0 note=78 velocity=55 time=0
note_on channel=0 note=59 velocity=34 time=0
note_on channel=0 note=59 velocity=0 time=0
note_on channel=0 note=78 velocity=0 time=0
note_on channel=0 note=80 velocity=49 time=0
note_on channel=0 note=64 velocity=38 time=0
note_on channel=0 note=64 velocity=0 time=0
note_on channel=0 note=80 velocity=0 time=0
note_on channel=0 note=81 velocity=55 time=0
note_on channel=0 note=59 velocity=36 time=0
note_on channel=0 note=59 velocity=0 time=0
note_on channel=0 note=81 velocity=0 time=0
note_on channel=0 note=71 velocity=54 time=0
note_on channel=0 note=83 velocity=63 time=0
note_on channel=0 note=68 velocity=42 time=0
control_change channel=0 control=64 value=127 time=99
note_on channel=0 note=68 velocity=0 time=21
note_on channel=0 note=59 velocity=38 time=0
note_on channel=0 note=59 velocity=0 time=120
note_on channel=0 note=83 velocity=0 time=0
note_on channel=0 note=71 velocity=0 time=0
note_on channel=0 note=81 velocity=64 time=0
note_on channel=0 note=69 velocity=54 time=0
note_on channel=0 note=66 velocity=47 time=0
control_change channel=0 control=64 value=0 time=7
control_change channel=0 control=64 value=127 time=71
note_on channel=0 note=66 velocity=0 time=0
note_on channel=0 note=59 velocity=43 time=0
note_on channel=0 note=59 velocity=0 time=0
note_on channel=0 note=69 velocity=0 time=0
note_on channel=0 note=81 velocity=0 time=0
note_on channel=0 note=80 velocity=70 time=0
note_on channel=0 note=68 velocity=59 time=0
note_on channel=0 note=64 velocity=54 time=0
control_change channel=0 control=64 value=0 time=7
control_change channel=0 control=64 value=127 time=45
note_on channel=0 note=64 velocity=0 time=68
note_on channel=0 note=59 velocity=45 time=0
note_on channel=0 note=59 velocity=0 time=120
note_on channel=0 note=68 velocity=0 time=0
note_on channel=0 note=80 velocity=0 time=0
note_on channel=0 note=66 velocity=56 time=0
note_on channel=0 note=78 velocity=67 time=0
note_on channel=0 note=63 velocity=52 time=0
control_change channel=0 control=64 value=0 time=15
control_change channel=0 control=64 value=127 time=48
note_on channel=0 note=63 velocity=0 time=0
note_on channel=0 note=59 velocity=45 time=0
control_change channel=0 control=64 value=0 time=92
note_on channel=0 note=78 velocity=0 time=16
note_on channel=0 note=66 velocity=0 time=0
note_on channel=0 note=59 velocity=0 time=0
note_on channel=0 note=66 velocity=63 time=0
note_on channel=0 note=78 velocity=75 time=0
note_on channel=0 note=63 velocity=49 time=0
control_change channel=0 control=64 value=127 time=75
note_on channel=0 note=63 velocity=0 time=45
note_on channel=0 note=59 velocity=42 time=0
note_on channel=0 note=59 velocity=0 time=120
note_on channel=0 note=78 velocity=0 time=0
note_on channel=0 note=66 velocity=0 time=0
note_on channel=0 note=80 velocity=68 time=0
note_on channel=0 note=68 velocity=57 time=0
note_on channel=0 note=65 velocity=52 time=0
control_change channel=0 control=64 value=0 time=8
control_change channel=0 control=64 value=127 time=55
note_on channel=0 note=65 velocity=0 time=57
note_on channel=0 note=59 velocity=46 time=0
note_on channel=0 note=59 velocity=0 time=120
note_on channel=0 note=68 velocity=0 time=0
note_on channel=0 note=80 velocity=0 time=0
note_on channel=0 note=69 velocity=64 time=0
note_on channel=0 note=81 velocity=76 time=0
note_on channel=0 note=66 velocity=60 time=0
control_change channel=0 control=64 value=0 time=6
control_change channel=0 control=64 value=127 time=26
note_on channel=0 note=66 velocity=0 time=88
note_on channel=0 note=59 velocity=50 time=0
note_on channel=0 note=59 velocity=0 time=120
note_on channel=0 note=81 velocity=0 time=0
note_on channel=0 note=69 velocity=0 time=0
note_on channel=0 note=85 velocity=69 time=0
note_on channel=0 note=73 velocity=58 time=0
note_on channel=0 note=69 velocity=54 time=0
control_change channel=0 control=64 value=0 time=7
control_change channel=0 control=64 value=127 time=39
note_on channel=0 note=69 velocity=0 time=0
note_on channel=0 note=59 velocity=48 time=0
note_on channel=0 note=59 velocity=0 time=0
note_on channel=0 note=73 velocity=0 time=0
note_on channel=0 note=85 velocity=0 time=0
note_on channel=0 note=83 velocity=80 time=0
note_on channel=0 note=71 velocity=67 time=0
note_on channel=0 note=68 velocity=57 time=0
control_change channel=0 control=64 value=0 time=14
control_change channel=0 control=64 value=127 time=32
note_on channel=0 note=68 velocity=0 time=74
note_on channel=0 note=59 velocity=45 time=0
note_on channel=0 note=59 velocity=0 time=0
note_on channel=0 note=71 velocity=0 time=0
note_on channel=0 note=83 velocity=0 time=0
note_on channel=0 note=75 velocity=70 time=0
note_on channel=0 note=81 velocity=70 time=0
note_on channel=0 note=87 velocity=83 time=0
note_on channel=0 note=66 velocity=54 time=0
control_change channel=0 control=64 value=0 time=11
control_change channel=0 control=64 value=127 time=39
note_on channel=0 note=66 velocity=0 time=70
note_on channel=0 note=59 velocity=46 time=0
note_on channel=0 note=75 velocity=0 time=60
note_on channel=0 note=87 velocity=0 time=0
note_on channel=0 note=81 velocity=0 time=0
control_change channel=0 control=64 value=0 time=18
note_on channel=0 note=59 velocity=0 time=42
note_on channel=0 note=76 velocity=73 time=0
note_on channel=0 note=80 velocity=73 time=0
note_on channel=0 note=88 velocity=88 time=0
note_on channel=0 note=64 velocity=59 time=0
control_change channel=0 control=64 value=127 time=78
note_on channel=0 note=64 velocity=0 time=0
note_on channel=0 note=59 velocity=49 time=0
note_on channel=0 note=59 velocity=0 time=120
note_on channel=0 note=56 velocity=58 time=0
note_on channel=0 note=56 velocity=0 time=120
note_on channel=0 note=59 velocity=50 time=0
note_on channel=0 note=59 velocity=0 time=0
note_on channel=0 note=88 velocity=0 time=0
note_on channel=0 note=80 velocity=0 time=0
note_on channel=0 note=76 velocity=0 time=0
note_on channel=0 note=52 velocity=59 time=0
control_change channel=0 control=64 value=0 time=17
note_on channel=0 note=52 velocity=0 time=0
note_on channel=0 note=64 velocity=73 time=0
note_on channel=0 note=68 velocity=87 time=0
note_on channel=0 note=68 velocity=0 time=120
note_on channel=0 note=64 velocity=0 time=0
note_on channel=0 note=64 velocity=81 time=0
note_on channel=0 note=68 velocity=96 time=0
note_on channel=0 note=61 velocity=67 time=0
control_change channel=0 control=64 value=127 time=78
note_on channel=0 note=61 velocity=0 time=42
note_on channel=0 note=56 velocity=57 time=0
note_on channel=0 note=56 velocity=0 time=120
note_on channel=0 note=52 velocity=62 time=0
note_on channel=0 note=52 velocity=0 time=120
note_on channel=0 note=56 velocity=57 time=0
note_on channel=0 note=56 velocity=0 time=120
note_on channel=0 note=49 velocity=70 time=0
note_on channel=0 note=49 velocity=0 time=0
note_on channel=0 note=68 velocity=0 time=0
note_on channel=0 note=64 velocity=0 time=0
note_on channel=0 note=76 velocity=34 time=0
note_on channel=0 note=68 velocity=28 time=0
note_on channel=0 note=64 velocity=28 time=0
note_on channel=0 note=61 velocity=26 time=0
control_change channel=0 control=64 value=0 time=1
note_on channel=0 note=61 velocity=0 time=119
note_on channel=0 note=76 velocity=0 time=0
note_on channel=0 note=68 velocity=0 time=0
note_on channel=0 note=64 velocity=0 time=0
note_on channel=0 note=75 velocity=39 time=0
note_on channel=0 note=68 velocity=33 time=0
note_on channel=0 note=66 velocity=33 time=0
note_on channel=0 note=63 velocity=33 time=0
note_on channel=0 note=60 velocity=33 time=0
control_change channel=0 control=64 value=127 time=23
note_on channel=0 note=60 velocity=0 time=0
note_on channel=0 note=56 velocity=27 time=0
note_on channel=0 note=56 velocity=0 time=120
note_on channel=0 note=51 velocity=33 time=0
note_on channel=0 note=51 velocity=0 time=120
note_on channel=0 note=56 velocity=27 time=0
note_on channel=0 note=56 velocity=0 time=120
note_on channel=0 note=48 velocity=36 time=0
note_on channel=0 note=48 velocity=0 time=0
note_on channel=0 note=66 velocity=0 time=0
note_on channel=0 note=75 velocity=0 time=0
note_on channel=0 note=68 velocity=0 time=0
note_on channel=0 note=63 velocity=0 time=0
note_on channel=0 note=63 velocity=73 time=0
note_on channel=0 note=66 velocity=73 time=0
note_on channel=0 note=68 velocity=87 time=0
note_on channel=0 note=60 velocity=77 time=0
control_change channel=0 control=64 value=0 time=6
note_on channel=0 note=60 velocity=0 time=114
note_on channel=0 note=63 velocity=0 time=0
note_on channel=0 note=66 velocity=0 time=0
note_on channel=0 note=68 velocity=0 time=0
note_on channel=0 note=66 velocity=81 time=0
note_on channel=0 note=63 velocity=81 time=0
note_on channel=0 note=68 velocity=96 time=0
note_on channel=0 note=56 velocity=67 time=0
control_change channel=0 control=64 value=127 time=78
note_on channel=0 note=56 velocity=0 time=42
note_on channel=0 note=51 velocity=57 time=0
note_on channel=0 note=51 velocity=0 time=120
note_on channel=0 note=48 velocity=62 time=0
note_on channel=0 note=48 velocity=0 time=120
note_on channel=0 note=51 velocity=57 time=0
note_on channel=0 note=51 velocity=0 time=120
note_on channel=0 note=44 velocity=70 time=0
note_on channel=0 note=44 velocity=0 time=0
note_on channel=0 note=66 velocity=0 time=0
note_on channel=0 note=63 velocity=0 time=0
note_on channel=0 note=68 velocity=0 time=0
note_on channel=0 note=63 velocity=28 time=0
note_on channel=0 note=75 velocity=34 time=0
note_on channel=0 note=68 velocity=28 time=0
note_on channel=0 note=66 velocity=28 time=0
note_on channel=0 note=60 velocity=26 time=0
control_change channel=0 control=64 value=0 time=1
note_on channel=0 note=60 velocity=0 time=119
note_on channel=0 note=68 velocity=0 time=0
note_on channel=0 note=63 velocity=0 time=0
note_on channel=0 note=75 velocity=0 time=0
note_on channel=0 note=66 velocity=0 time=0
note_on channel=0 note=76 velocity=39 time=0
note_on channel=0 note=68 velocity=33 time=0
note_on channel=0 note=64 velocity=33 time=0
note_on channel=0 note=61 velocity=33 time=0
control_change channel=0 control=64 value=127 time=23
note_on channel=0 note=61 velocity=0 time=0
note_on channel=0 note=56 velocity=27 time=0
note_on channel=0 note=56 velocity=0 time=120
note_on channel=0 note=52 velocity=33 time=0
note_on channel=0 note=52 velocity=0 time=120
note_on channel=0 note=56 velocity=27 time=0
note_on channel=0 note=56 velocity=0 time=120
note_on channel=0 note=49 velocity=36 time=0
note_on channel=0 note=49 velocity=0 time=0
note_on channel=0 note=76 velocity=0 time=0
note_on channel=0 note=68 velocity=0 time=0
note_on channel=0 note=64 velocity=0 time=0
note_on channel=0 note=64 velocity=73 time=0
note_on channel=0 note=68 velocity=87 time=0
note_on channel=0 note=61 velocity=83 time=0
control_change channel=0 control=64 value=0 time=0
note_on channel=0 note=61 velocity=0 time=120
note_on channel=0 note=68 velocity=0 time=0
note_on channel=0 note=64 velocity=0 time=0
note_on channel=0 note=64 velocity=81 time=0
note_on channel=0 note=68 velocity=96 time=0
note_on channel=0 note=59 velocity=67 time=0
control_change channel=0 control=64 value=127 time=78
note_on channel=0 note=59 velocity=0 time=42
note_on channel=0 note=56 velocity=57 time=0
note_on channel=0 note=56 velocity=0 time=120
note_on channel=0 note=52 velocity=62 time=0
note_on channel=0 note=52 velocity=0 time=120
note_on channel=0 note=56 velocity=57 time=0
note_on channel=0 note=56 velocity=0 time=120
note_on channel=0 note=47 velocity=70 time=0
note_on channel=0 note=47 velocity=0 time=0
note_on channel=0 note=68 velocity=0 time=0
note_on channel=0 note=64 velocity=0 time=0
note_on channel=0 note=76 velocity=34 time=0
note_on channel=0 note=68 velocity=28 time=0
note_on channel=0 note=64 velocity=28 time=0
note_on channel=0 note=59 velocity=26 time=0
control_change channel=0 control=64 value=0 time=1
note_on channel=0 note=59 velocity=0 time=119
note_on channel=0 note=76 velocity=0 time=0
note_on channel=0 note=68 velocity=0 time=0
note_on channel=0 note=64 velocity=0 time=0
note_on channel=0 note=76 velocity=39 time=0
note_on channel=0 note=66 velocity=33 time=0
note_on channel=0 note=64 velocity=33 time=0
note_on channel=0 note=58 velocity=33 time=0
control_change channel=0 control=64 value=127 time=23
note_on channel=0 note=58 velocity=0 time=0
note_on channel=0 note=54 velocity=27 time=0
note_on channel=0 note=54 velocity=0 time=120
note_on channel=0 note=49 velocity=33 time=0
note_on channel=0 note=49 velocity=0 time=120
note_on channel=0 note=54 velocity=27 time=0
note_on channel=0 note=54 velocity=0 time=120
note_on channel=0 note=46 velocity=36 time=0
note_on channel=0 note=46 velocity=0 time=0
note_on channel=0 note=76 velocity=0 time=0
note_on channel=0 note=66 velocity=0 time=0
note_on channel=0 note=64 velocity=0 time=0
note_on channel=0 note=61 velocity=73 time=0
note_on channel=0 note=64 velocity=87 time=0
note_on channel=0 note=46 velocity=77 time=0
control_change channel=0 control=64 value=0 time=6
note_on channel=0 note=46 velocity=0 time=114
note_on channel=0 note=64 velocity=0 time=0
note_on channel=0 note=61 velocity=0 time=0
note_on channel=0 note=59 velocity=81 time=0
note_on channel=0 note=64 velocity=96 time=0
note_on channel=0 note=44 velocity=67 time=0
control_change channel=0 control=64 value=127 time=78
note_on channel=0 note=44 velocity=0 time=42
note_on channel=0 note=40 velocity=57 time=0
note_on channel=0 note=40 velocity=0 time=120
note_on channel=0 note=35 velocity=62 time=0
note_on channel=0 note=35 velocity=0 time=120
note_on channel=0 note=40 velocity=57 time=0
note_on channel=0 note=40 velocity=0 time=120
note_on channel=0 note=32 velocity=70 time=0
note_on channel=0 note=32 velocity=0 time=0
note_on channel=0 note=64 velocity=0 time=0
note_on channel=0 note=59 velocity=0 time=0
note_on channel=0 note=64 velocity=70 time=0
note_on channel=0 note=76 velocity=85 time=0
note_on channel=0 note=71 velocity=70 time=0
note_on channel=0 note=32 velocity=60 time=0
note_on channel=0 note=44 velocity=65 time=0
control_change channel=0 control=64 value=0 time=1
note_on channel=0 note=44 velocity=0 time=119
note_on channel=0 note=71 velocity=0 time=0
note_on channel=0 note=64 velocity=0 time=0
note_on channel=0 note=76 velocity=0 time=0
note_on channel=0 note=32 velocity=0 time=0
note_on channel=0 note=64 velocity=66 time=0
note_on channel=0 note=76 velocity=78 time=0
note_on channel=0 note=73 velocity=66 time=0
note_on channel=0 note=70 velocity=66 time=0
note_on channel=0 note=30 velocity=78 time=0
note_on channel=0 note=42 velocity=78 time=0
note_on channel=0 note=42 velocity=0 time=120
note_on channel=0 note=30 velocity=0 time=0
note_on channel=0 note=66 velocity=33 time=0
note_on channel=0 note=66 velocity=0 time=120
note_on channel=0 note=68 velocity=27 time=0
note_on channel=0 note=68 velocity=0 time=120
note_on channel=0 note=66 velocity=33 time=0
note_on channel=0 note=66 velocity=0 time=120
note_on channel=0 note=68 velocity=29 time=0
note_on channel=0 note=68 velocity=0 time=120
note_on channel=0 note=73 velocity=0 time=0
note_on channel=0 note=64 velocity=0 time=0
note_on channel=0 note=76 velocity=0 time=0
note_on channel=0 note=70 velocity=0 time=0
note_on channel=0 note=66 velocity=33 time=0
note_on channel=0 note=66 velocity=0 time=0
note_on channel=0 note=68 velocity=29 time=0
note_on channel=0 note=68 velocity=0 time=0
note_on channel=0 note=76 velocity=53 time=0
note_on channel=0 note=85 velocity=53 time=0
note_on channel=0 note=66 velocity=32 time=0
note_on channel=0 note=61 velocity=41 time=0
note_on channel=0 note=58 velocity=34 time=0
control_change channel=0 control=64 value=0 time=0
note_on channel=0 note=66 velocity=0 time=120
note_on channel=0 note=68 velocity=27 time=0
note_on channel=0 note=68 velocity=0 time=120
note_on channel=0 note=66 velocity=31 time=0
note_on channel=0 note=66 velocity=0 time=120
note_on channel=0 note=68 velocity=26 time=0
note_on channel=0 note=68 velocity=0 time=120
note_on channel=0 note=66 velocity=32 time=0
note_on channel=0 note=66 velocity=0 time=120
note_on channel=0 note=68 velocity=32 time=0
note_on channel=0 note=68 velocity=0 time=0
note_on channel=0 note=58 velocity=0 time=0
note_on channel=0 note=76 velocity=0 time=0
note_on channel=0 note=85 velocity=0 time=0
note_on channel=0 note=61 velocity=0 time=0
note_on channel=0 note=75 velocity=57 time=0
note_on channel=0 note=83 velocity=57 time=0
note_on channel=0 note=66 velocity=33 time=0
note_on channel=0 note=63 velocity=42 time=0
note_on channel=0 note=59 velocity=35 time=0
note_on channel=0 note=66 velocity=0 time=120
note_on channel=0 note=68 velocity=36 time=0
note_on channel=0 note=63 velocity=0 time=96
note_on channel=0 note=59 velocity=0 time=0
note_on channel=0 note=75 velocity=0 time=0
note_on channel=0 note=83 velocity=0 time=0
note_on channel=0 note=68 velocity=0 time=0
note_on channel=0 note=83 velocity=62 time=0
note_on channel=0 note=75 velocity=62 time=0
note_on channel=0 note=66 velocity=37 time=0
note_on channel=0 note=63 velocity=47 time=0
note_on channel=0 note=59 velocity=39 time=0
control_change channel=0 control=64 value=0 time=50
note_on channel=0 note=66 velocity=0 time=70
note_on channel=0 note=68 velocity=29 time=0
note_on channel=0 note=68 velocity=0 time=120
note_on channel=0 note=59 velocity=0 time=0
note_on channel=0 note=83 velocity=0 time=0
note_on channel=0 note=75 velocity=0 time=0
note_on channel=0 note=63 velocity=0 time=0
note_on channel=0 note=73 velocity=48 time=0
note_on channel=0 note=82 velocity=48 time=0
note_on channel=0 note=66 velocity=32 time=0
note_on channel=0 note=64 velocity=41 time=0
note_on channel=0 note=61 velocity=34 time=0
note_on channel=0 note=66 velocity=0 time=120
note_on channel=0 note=68 velocity=28 time=0
note_on channel=0 note=64 velocity=0 time=96
note_on channel=0 note=61 velocity=0 time=0
note_on channel=0 note=73 velocity=0 time=0
note_on channel=0 note=82 velocity=0 time=0
note_on channel=0 note=68 velocity=0 time=0
note_on channel=0 note=82 velocity=47 time=0
note_on channel=0 note=73 velocity=47 time=0
note_on channel=0 note=61 velocity=28 time=0
note_on channel=0 note=64 velocity=33 time=0
note_on channel=0 note=66 velocity=26 time=0
note_on channel=0 note=66 velocity=0 time=120
note_on channel=0 note=68 velocity=24 time=0
note_on channel=0 note=68 velocity=0 time=0
note_on channel=0 note=64 velocity=0 time=0
note_on channel=0 note=82 velocity=0 time=0
note_on channel=0 note=73 velocity=0 time=0
note_on channel=0 note=61 velocity=0 time=0
note_on channel=0 note=75 velocity=39 time=0
note_on channel=0 note=83 velocity=39 time=0
note_on channel=0 note=59 velocity=28 time=0
note_on channel=0 note=63 velocity=33 time=0
note_on channel=0 note=66 velocity=26 time=0
note_on channel=0 note=66 velocity=0 time=120
note_on channel=0 note=68 velocity=24 time=0
note_on channel=0 note=68 velocity=0 time=0
note_on channel=0 note=63 velocity=0 time=0
note_on channel=0 note=75 velocity=0 time=0
note_on channel=0 note=83 velocity=0 time=0
note_on channel=0 note=59 velocity=0 time=0
note_on channel=0 note=76 velocity=53 time=0
note_on channel=0 note=85 velocity=53 time=0
note_on channel=0 note=66 velocity=32 time=0
note_on channel=0 note=61 velocity=41 time=0
note_on channel=0 note=58 velocity=34 time=0
control_change channel=0 control=64 value=0 time=0
note_on channel=0 note=66 velocity=0 time=120
note_on channel=0 note=68 velocity=27 time=0
note_on channel=0 note=68 velocity=0 time=120
note_on channel=0 note=66 velocity=31 time=0
note_on channel=0 note=66 velocity=0 time=120
note_on channel=0 note=68 velocity=26 time=0
note_on channel=0 note=68 velocity=0 time=120
note_on channel=0 note=66 velocity=32 time=0
note_on channel=0 note=66 velocity=0 time=120
note_on channel=0 note=68 velocity=32 time=0
note_on channel=0 note=68 velocity=0 time=0
note_on channel=0 note=58 velocity=0 time=0
note_on channel=0 note=76 velocity=0 time=0
note_on channel=0 note=85 velocity=0 time=0
note_on channel=0 note=61 velocity=0 time=0
note_on channel=0 note=75 velocity=57 time=0
note_on channel=0 note=83 velocity=57 time=0
note_on channel=0 note=66 velocity=33 time=0
note_on channel=0 note=63 velocity=42 time=0
note_on channel=0 note=59 velocity=35 time=0
note_on channel=0 note=66 velocity=0 time=120
note_on channel=0 note=68 velocity=36 time=0
note_on channel=0 note=63 velocity=0 time=96
note_on channel=0 note=59 velocity=0 time=0
note_on channel=0 note=75 velocity=0 time=0
note_on channel=0 note=83 velocity=0 time=0
note_on channel=0 note=68 velocity=0 time=0
note_on channel=0 note=82 velocity=62 time=0
note_on channel=0 note=73 velocity=62 time=0
note_on channel=0 note=66 velocity=37 time=0
note_on channel=0 note=64 velocity=47 time=0
note_on channel=0 note=61 velocity=39 time=0
control_change channel=0 control=64 value=0 time=50
note_on channel=0 note=66 velocity=0 time=70
note_on channel=0 note=68 velocity=29 time=0
note_on channel=0 note=68 velocity=0 time=120
note_on channel=0 note=61 velocity=0 time=0
note_on channel=0 note=82 velocity=0 time=0
note_on channel=0 note=73 velocity=0 time=0
note_on channel=0 note=64 velocity=0 time=0
note_on channel=0 note=85 velocity=48 time=0
note_on channel=0 note=76 velocity=48 time=0
note_on channel=0 note=66 velocity=32 time=0
note_on channel=0 note=61 velocity=41 time=0
note_on channel=0 note=58 velocity=34 time=0
note_on channel=0 note=66 velocity=0 time=120
note_on channel=0 note=68 velocity=28 time=0
note_on channel=0 note=61 velocity=0 time=96
note_on channel=0 note=58 velocity=0 time=0
note_on channel=0 note=85 velocity=0 time=0
note_on channel=0 note=76 velocity=0 time=0
note_on channel=0 note=68 velocity=0 time=0
note_on channel=0 note=83 velocity=47 time=0
note_on channel=0 note=75 velocity=47 time=0
note_on channel=0 note=59 velocity=28 time=0
note_on channel=0 note=63 velocity=33 time=0
note_on channel=0 note=66 velocity=26 time=0
note_on channel=0 note=66 velocity=0 time=120
note_on channel=0 note=68 velocity=24 time=0
note_on channel=0 note=68 velocity=0 time=0
note_on channel=0 note=63 velocity=0 time=0
note_on channel=0 note=83 velocity=0 time=0
note_on channel=0 note=75 velocity=0 time=0
note_on channel=0 note=59 velocity=0 time=0
note_on channel=0 note=73 velocity=39 time=0
note_on channel=0 note=82 velocity=39 time=0
note_on channel=0 note=61 velocity=28 time=0
note_on channel=0 note=64 velocity=33 time=0
note_on channel=0 note=66 velocity=26 time=0
note_on channel=0 note=66 velocity=0 time=120
note_on channel=0 note=68 velocity=24 time=0
note_on channel=0 note=68 velocity=0 time=120
note_on channel=0 note=64 velocity=0 time=0
note_on channel=0 note=73 velocity=0 time=0
note_on channel=0 note=82 velocity=0 time=0
note_on channel=0 note=61 velocity=0 time=0
note_on channel=0 note=83 velocity=39 time=0
note_on channel=0 note=78 velocity=39 time=0
note_on channel=0 note=63 velocity=28 time=0
note_on channel=0 note=66 velocity=33 time=0
control_change channel=0 control=64 value=127 time=36
note_on channel=0 note=66 velocity=0 time=84
note_on channel=0 note=71 velocity=27 time=0
note_on channel=0 note=71 velocity=0 time=0
note_on channel=0 note=63 velocity=0 time=0
note_on channel=0 note=78 velocity=0 time=0
note_on channel=0 note=83 velocity=0 time=0
note_on channel=0 note=82 velocity=34 time=0
note_on channel=0 note=66 velocity=31 time=0
control_change channel=0 control=64 value=0 time=7
control_change channel=0 control=64 value=127 time=57
note_on channel=0 note=66 velocity=0 time=56
note_on channel=0 note=71 velocity=27 time=0
note_on channel=0 note=71 velocity=0 time=120
note_on channel=0 note=82 velocity=0 time=0
note_on channel=0 note=80 velocity=39 time=0
note_on channel=0 note=64 velocity=33 time=0
control_change channel=0 control=64 value=0 time=7
control_change channel=0 control=64 value=127 time=71
note_on channel=0 note=64 velocity=0 time=42
note_on channel=0 note=71 velocity=26 time=0
note_on channel=0 note=71 velocity=0 time=0
note_on channel=0 note=80 velocity=0 time=0
note_on channel=0 note=78 velocity=35 time=0
note_on channel=0 note=63 velocity=30 time=0
control_change channel=0 control=64 value=0 time=14
control_change channel=0 control=64 value=127 time=64
note_on channel=0 note=63 velocity=0 time=0
note_on channel=0 note=71 velocity=27 time=0
note_on channel=0 note=71 velocity=0 time=0
note_on channel=0 note=78 velocity=0 time=0
note_on channel=0 note=80 velocity=39 time=0
note_on channel=0 note=64 velocity=33 time=0
control_change channel=0 control=64 value=0 time=23
control_change channel=0 control=64 value=127 time=46
note_on channel=0 note=64 velocity=0 time=51
note_on channel=0 note=71 velocity=26 time=0
note_on channel=0 note=71 velocity=0 time=120
note_on channel=0 note=80 velocity=0 time=0
note_on channel=0 note=78 velocity=37 time=0
note_on channel=0 note=66 velocity=31 time=0
control_change channel=0 control=64 value=0 time=16
control_change channel=0 control=64 value=127 time=47
note_on channel=0 note=66 velocity=0 time=57
note_on channel=0 note=71 velocity=25 time=0
note_on channel=0 note=71 velocity=0 time=120
note_on channel=0 note=78 velocity=0 time=0
note_on channel=0 note=76 velocity=39 time=0
note_on channel=0 note=68 velocity=33 time=0
control_change channel=0 control=64 value=0 time=19
control_change channel=0 control=64 value=127 time=33
note_on channel=0 note=68 velocity=0 time=0
note_on channel=0 note=71 velocity=25 time=0
note_on channel=0 note=71 velocity=0 time=120
note_on channel=0 note=76 velocity=0 time=0
note_on channel=0 note=75 velocity=34 time=0
note_on channel=0 note=65 velocity=30 time=0
control_change channel=0 control=64 value=0 time=6
control_change channel=0 control=64 value=127 time=51
note_on channel=0 note=65 velocity=0 time=0
note_on channel=0 note=71 velocity=27 time=0
note_on channel=0 note=75 velocity=0 time=110
note_on channel=0 note=71 velocity=0 time=0
note_on channel=0 note=75 velocity=39 time=0
note_on channel=0 note=66 velocity=33 time=0
control_change channel=0 control=64 value=0 time=7
note_on channel=0 note=68 velocity=27 time=113
note_on channel=0 note=68 velocity=0 time=120
note_on channel=0 note=70 velocity=32 time=0
note_on channel=0 note=70 velocity=0 time=120
note_on channel=0 note=71 velocity=26 time=0
note_on channel=0 note=71 velocity=0 time=0
note_on channel=0 note=70 velocity=31 time=0
note_on channel=0 note=70 velocity=0 time=120
note_on channel=0 note=71 velocity=27 time=0
note_on channel=0 note=71 velocity=0 time=0
note_on channel=0 note=75 velocity=0 time=0
note_on channel=0 note=76 velocity=38 time=0
note_on channel=0 note=73 velocity=29 time=0
note_on channel=0 note=73 velocity=0 time=0
note_on channel=0 note=76 velocity=0 time=0
note_on channel=0 note=78 velocity=33 time=0
note_on channel=0 note=75 velocity=27 time=0
note_on channel=0 note=75 velocity=0 time=0
note_on channel=0 note=78 velocity=0 time=0
note_on channel=0 note=66 velocity=0 time=0
note_on channel=0 note=73 velocity=39 time=0
note_on channel=0 note=70 velocity=33 time=0
note_on channel=0 note=66 velocity=33 time=0
note_on channel=0 note=66 velocity=0 time=0
note_on channel=0 note=70 velocity=0 time=0
note_on channel=0 note=73 velocity=0 time=0
note_on channel=0 note=78 velocity=39 time=0
note_on channel=0 note=68 velocity=33 time=0
note_on channel=0 note=68 velocity=0 time=27
note_on channel=0 note=78 velocity=0 time=0
note_on channel=0 note=80 velocity=34 time=0
note_on channel=0 note=66 velocity=30 time=0
note_on channel=0 note=66 velocity=0 time=57
note_on channel=0 note=80 velocity=0 time=0
note_on channel=0 note=78 velocity=39 time=0
note_on channel=0 note=68 velocity=33 time=0
note_on channel=0 note=68 velocity=0 time=0
note_on channel=0 note=78 velocity=0 time=0
note_on channel=0 note=80 velocity=35 time=0
note_on channel=0 note=66 velocity=29 time=0
note_on channel=0 note=66 velocity=0 time=120
note_on channel=0 note=80 velocity=0 time=0
note_on channel=0 note=78 velocity=39 time=0
note_on channel=0 note=68 velocity=33 time=0
note_on channel=0 note=68 velocity=0 time=0
note_on channel=0 note=78 velocity=0 time=0
note_on channel=0 note=80 velocity=35 time=0
note_on channel=0 note=66 velocity=33 time=0
note_on channel=0 note=66 velocity=0 time=0
note_on channel=0 note=80 velocity=0 time=0
note_on channel=0 note=85 velocity=53 time=0
note_on channel=0 note=88 velocity=53 time=0
note_on channel=0 note=78 velocity=39 time=0
note_on channel=0 note=68 velocity=32 time=0
note_on channel=0 note=61 velocity=41 time=0
note_on channel=0 note=58 velocity=34 time=0
control_change channel=0 control=64 value=0 time=0
note_on channel=0 note=68 velocity=0 time=120
note_on channel=0 note=78 velocity=0 time=0
note_on channel=0 note=80 velocity=35 time=0
note_on channel=0 note=66 velocity=27 time=0
note_on channel=0 note=66 velocity=0 time=120
note_on channel=0 note=80 velocity=0 time=0
note_on channel=0 note=78 velocity=39 time=0
note_on channel=0 note=68 velocity=31 time=0
note_on channel=0 note=68 velocity=0 time=120
note_on channel=0 note=78 velocity=0 time=0
note_on channel=0 note=80 velocity=35 time=0
note_on channel=0 note=66 velocity=26 time=0
note_on channel=0 note=66 velocity=0 time=120
note_on channel=0 note=80 velocity=0 time=0
note_on channel=0 note=78 velocity=39 time=0
note_on channel=0 note=68 velocity=32 time=0
note_on channel=0 note=68 velocity=0 time=120
note_on channel=0 note=78 velocity=0 time=0
note_on channel=0 note=80 velocity=37 time=0
note_on channel=0 note=66 velocity=32 time=0
note_on channel=0 note=66 velocity=0 time=0
note_on channel=0 note=58 velocity=0 time=0
note_on channel=0 note=88 velocity=0 time=0
note_on channel=0 note=85 velocity=0 time=0
note_on channel=0 note=80 velocity=0 time=0
note_on channel=0 note=61 velocity=0 time=0
note_on channel=0 note=87 velocity=57 time=0
note_on channel=0 note=83 velocity=57 time=0
note_on channel=0 note=78 velocity=43 time=0
note_on channel=0 note=68 velocity=33 time=0
note_on channel=0 note=63 velocity=42 time=0
note_on channel=0 note=59 velocity=35 time=0
note_on channel=0 note=68 velocity=0 time=120
note_on channel=0 note=78 velocity=0 time=0
note_on channel=0 note=80 velocity=41 time=0
note_on channel=0 note=66 velocity=36 time=0
note_on channel=0 note=63 velocity=0 time=96
note_on channel=0 note=83 velocity=0 time=0
note_on channel=0 note=87 velocity=0 time=0
note_on channel=0 note=59 velocity=0 time=0
note_on channel=0 note=66 velocity=0 time=0
note_on channel=0 note=80 velocity=0 time=0
note_on channel=0 note=87 velocity=62 time=0
note_on channel=0 note=83 velocity=62 time=0
note_on channel=0 note=78 velocity=48 time=0
note_on channel=0 note=68 velocity=37 time=0
note_on channel=0 note=63 velocity=47 time=0
note_on channel=0 note=59 velocity=39 time=0
control_change channel=0 control=64 value=0 time=50
note_on channel=0 note=68 velocity=0 time=70
note_on channel=0 note=78 velocity=0 time=0
note_on channel=0 note=80 velocity=42 time=0
note_on channel=0 note=66 velocity=29 time=0
note_on channel=0 note=66 velocity=0 time=120
note_on channel=0 note=59 velocity=0 time=0
note_on channel=0 note=83 velocity=0 time=0
note_on channel=0 note=87 velocity=0 time=0
note_on channel=0 note=80 velocity=0 time=0
note_on channel=0 note=63 velocity=0 time=0
note_on channel=0 note=82 velocity=48 time=0
note_on channel=0 note=85 velocity=48 time=0
note_on channel=0 note=78 velocity=46 time=0
note_on channel=0 note=68 velocity=32 time=0
note_on channel=0 note=64 velocity=41 time=0
note_on channel=0 note=61 velocity=34 time=0
note_on channel=0 note=68 velocity=0 time=120
note_on channel=0 note=78 velocity=0 time=0
note_on channel=0 note=80 velocity=40 time=0
note_on channel=0 note=66 velocity=28 time=0
note_on channel=0 note=64 velocity=0 time=96
note_on channel=0 note=85 velocity=0 time=0
note_on channel=0 note=82 velocity=0 time=0
note_on channel=0 note=61 velocity=0 time=0
note_on channel=0 note=66 velocity=0 time=0
note_on channel=0 note=80 velocity=0 time=0
note_on channel=0 note=85 velocity=47 time=0
note_on channel=0 note=78 velocity=44 time=0
note_on channel=0 note=82 velocity=47 time=0
note_on channel=0 note=61 velocity=28 time=0
note_on channel=0 note=64 velocity=33 time=0
note_on channel=0 note=68 velocity=26 time=0
note_on channel=0 note=68 velocity=0 time=120
note_on channel=0 note=78 velocity=0 time=0
note_on channel=0 note=80 velocity=38 time=0
note_on channel=0 note=66 velocity=24 time=0
note_on channel=0 note=66 velocity=0 time=0
note_on channel=0 note=82 velocity=0 time=0
note_on channel=0 note=64 velocity=0 time=0
note_on channel=0 note=85 velocity=0 time=0
note_on channel=0 note=80 velocity=0 time=0
note_on channel=0 note=61 velocity=0 time=0
note_on channel=0 note=87 velocity=39 time=0
note_on channel=0 note=83 velocity=39 time=0
note_on channel=0 note=78 velocity=41 time=0
note_on channel=0 note=59 velocity=28 time=0
note_on channel=0 note=63 velocity=33 time=0
note_on channel=0 note=68 velocity=26 time=0
note_on channel=0 note=68 velocity=0 time=120
note_on channel=0 note=78 velocity=0 time=0
note_on channel=0 note=80 velocity=36 time=0
note_on channel=0 note=66 velocity=24 time=0
note_on channel=0 note=66 velocity=0 time=0
note_on channel=0 note=83 velocity=0 time=0
note_on channel=0 note=63 velocity=0 time=0
note_on channel=0 note=87 velocity=0 time=0
note_on channel=0 note=80 velocity=0 time=0
note_on channel=0 note=59 velocity=0 time=0
note_on channel=0 note=88 velocity=53 time=0
note_on channel=0 note=85 velocity=53 time=0
note_on channel=0 note=78 velocity=39 time=0
note_on channel=0 note=68 velocity=32 time=0
note_on channel=0 note=61 velocity=41 time=0
note_on channel=0 note=58 velocity=34 time=0
control_change channel=0 control=64 value=0 time=0
note_on channel=0 note=68 velocity=0 time=0
note_on channel=0 note=78 velocity=0 time=0
note_on channel=0 note=80 velocity=36 time=0
note_on channel=0 note=66 velocity=27 time=0
note_on channel=0 note=66 velocity=0 time=120
note_on channel=0 note=80 velocity=0 time=0
note_on channel=0 note=78 velocity=41 time=0
note_on channel=0 note=68 velocity=31 time=0
note_on channel=0 note=68 velocity=0 time=120
note_on channel=0 note=78 velocity=0 time=0
note_on channel=0 note=80 velocity=38 time=0
note_on channel=0 note=66 velocity=26 time=0
note_on channel=0 note=66 velocity=0 time=120
note_on channel=0 note=80 velocity=0 time=0
note_on channel=0 note=78 velocity=43 time=0
note_on channel=0 note=68 velocity=32 time=0
note_on channel=0 note=68 velocity=0 time=120
note_on channel=0 note=78 velocity=0 time=0
note_on channel=0 note=80 velocity=40 time=0
note_on channel=0 note=66 velocity=32 time=0
note_on channel=0 note=66 velocity=0 time=0
note_on channel=0 note=58 velocity=0 time=0
note_on channel=0 note=85 velocity=0 time=0
note_on channel=0 note=88 velocity=0 time=0
note_on channel=0 note=80 velocity=0 time=0
note_on channel=0 note=61 velocity=0 time=0
note_on channel=0 note=78 velocity=46 time=0
note_on channel=0 note=87 velocity=57 time=0
note_on channel=0 note=83 velocity=57 time=0
note_on channel=0 note=68 velocity=33 time=0
note_on channel=0 note=63 velocity=42 time=0
note_on channel=0 note=59 velocity=35 time=0
note_on channel=0 note=68 velocity=0 time=120
note_on channel=0 note=78 velocity=0 time=0
note_on channel=0 note=80 velocity=42 time=0
note_on channel=0 note=66 velocity=36 time=0
note_on channel=0 note=63 velocity=0 time=96
note_on channel=0 note=83 velocity=0 time=0
note_on channel=0 note=87 velocity=0 time=0
note_on channel=0 note=59 velocity=0 time=0
note_on channel=0 note=66 velocity=0 time=0
note_on channel=0 note=80 velocity=0 time=0
note_on channel=0 note=85 velocity=62 time=0
note_on channel=0 note=82 velocity=62 time=0
note_on channel=0 note=64 velocity=32 time=0
note_on channel=0 note=61 velocity=39 time=0
control_change channel=0 control=64 value=0 time=13
control_change channel=0 control=64 value=127 time=90
note_on channel=0 note=64 velocity=0 time=17
note_on channel=0 note=82 velocity=0 time=0
note_on channel=0 note=78 velocity=36 time=0
note_on channel=0 note=66 velocity=29 time=0
note_on channel=0 note=66 velocity=0 time=0
note_on channel=0 note=61 velocity=0 time=0
note_on channel=0 note=85 velocity=0 time=0
note_on channel=0 note=78 velocity=0 time=0
note_on channel=0 note=92 velocity=48 time=0
note_on channel=0 note=88 velocity=48 time=0
note_on channel=0 note=58 velocity=41 time=0
note_on channel=0 note=54 velocity=34 time=0
control_change channel=0 control=64 value=0 time=10
control_change channel=0 control=64 value=127 time=59
note_on channel=0 note=54 velocity=0 time=39
note_on channel=0 note=58 velocity=0 time=0
note_on channel=0 note=88 velocity=0 time=12
note_on channel=0 note=78 velocity=36 time=0
note_on channel=0 note=66 velocity=28 time=0
note_on channel=0 note=66 velocity=0 time=0
note_on channel=0 note=78 velocity=0 time=0
note_on channel=0 note=92 velocity=0 time=0
note_on channel=0 note=90 velocity=47 time=0
note_on channel=0 note=87 velocity=47 time=0
note_on channel=0 note=56 velocity=28 time=0
note_on channel=0 note=59 velocity=33 time=0
control_change channel=0 control=64 value=0 time=5
control_change channel=0 control=64 value=127 time=47
note_on channel=0 note=59 velocity=0 time=68
note_on channel=0 note=56 velocity=0 time=0
note_on channel=0 note=87 velocity=0 time=0
note_on channel=0 note=78 velocity=36 time=0
note_on channel=0 note=66 velocity=24 time=0
note_on channel=0 note=66 velocity=0 time=0
note_on channel=0 note=78 velocity=0 time=0
note_on channel=0 note=90 velocity=0 time=0
note_on channel=0 note=85 velocity=39 time=0
note_on channel=0 note=88 velocity=39 time=0
note_on channel=0 note=58 velocity=28 time=0
note_on channel=0 note=61 velocity=33 time=0
control_change channel=0 control=64 value=0 time=12
control_change channel=0 control=64 value=127 time=45
note_on channel=0 note=61 velocity=0 time=63
note_on channel=0 note=58 velocity=0 time=0
note_on channel=0 note=85 velocity=0 time=0
note_on channel=0 note=78 velocity=36 time=0
note_on channel=0 note=66 velocity=24 time=0
note_on channel=0 note=66 velocity=0 time=0
note_on channel=0 note=78 velocity=0 time=0
note_on channel=0 note=88 velocity=0 time=0
note_on channel=0 note=87 velocity=62 time=0
note_on channel=0 note=83 velocity=62 time=0
note_on channel=0 note=63 velocity=32 time=0
note_on channel=0 note=59 velocity=39 time=0
control_change channel=0 control=64 value=0 time=13
control_change channel=0 control=64 value=127 time=90
note_on channel=0 note=59 velocity=0 time=0
note_on channel=0 note=63 velocity=0 time=0
note_on channel=0 note=83 velocity=0 time=0
note_on channel=0 note=78 velocity=35 time=0
note_on channel=0 note=66 velocity=28 time=0
note_on channel=0 note=66 velocity=0 time=0
note_on channel=0 note=78 velocity=0 time=0
note_on channel=0 note=87 velocity=0 time=0
note_on channel=0 note=90 velocity=47 time=0
note_on channel=0 note=87 velocity=47 time=0
note_on channel=0 note=59 velocity=40 time=0
note_on channel=0 note=56 velocity=33 time=0
control_change channel=0 control=64 value=0 time=10
control_change channel=0 control=64 value=127 time=59
note_on channel=0 note=56 velocity=0 time=39
note_on channel=0 note=59 velocity=0 time=0
note_on channel=0 note=87 velocity=0 time=12
note_on channel=0 note=78 velocity=34 time=0
note_on channel=0 note=66 velocity=27 time=0
note_on channel=0 note=66 velocity=0 time=0
note_on channel=0 note=78 velocity=0 time=0
note_on channel=0 note=90 velocity=0 time=0
note_on channel=0 note=88 velocity=45 time=0
note_on channel=0 note=85 velocity=45 time=0
note_on channel=0 note=58 velocity=26 time=0
note_on channel=0 note=61 velocity=31 time=0
control_change channel=0 control=64 value=0 time=5
control_change channel=0 control=64 value=127 time=47
note_on channel=0 note=61 velocity=0 time=68
note_on channel=0 note=58 velocity=0 time=0
note_on channel=0 note=85 velocity=0 time=0
note_on channel=0 note=78 velocity=34 time=0
note_on channel=0 note=66 velocity=22 time=0
note_on channel=0 note=66 velocity=0 time=0
note_on channel=0 note=78 velocity=0 time=0
note_on channel=0 note=88 velocity=0 time=0
note_on channel=0 note=83 velocity=36 time=0
note_on channel=0 note=87 velocity=36 time=0
note_on channel=0 note=59 velocity=26 time=0
note_on channel=0 note=63 velocity=31 time=0
control_change channel=0 control=64 value=0 time=12
control_change channel=0 control=64 value=127 time=45
note_on channel=0 note=63 velocity=0 time=0
note_on channel=0 note=59 velocity=0 time=0
note_on channel=0 note=83 velocity=0 time=0
note_on channel=0 note=78 velocity=33 time=0
note_on channel=0 note=66 velocity=22 time=0
note_on channel=0 note=66 velocity=0 time=0
note_on channel=0 note=78 velocity=0 time=0
note_on channel=0 note=87 velocity=0 time=0
note_on channel=0 note=85 velocity=57 time=0
note_on channel=0 note=82 velocity=57 time=0
note_on channel=0 note=64 velocity=29 time=0
note_on channel=0 note=61 velocity=35 time=0
control_change channel=0 control=64 value=0 time=13
control_change channel=0 control=64 value=127 time=90
note_on channel=0 note=61 velocity=0 time=17
note_on channel=0 note=64 velocity=0 time=0
note_on channel=0 note=82 velocity=0 time=0
note_on channel=0 note=78 velocity=32 time=0
note_on channel=0 note=66 velocity=26 time=0
note_on channel=0 note=66 velocity=0 time=0
note_on channel=0 note=78 velocity=0 time=0
note_on channel=0 note=85 velocity=0 time=0
note_on channel=0 note=88 velocity=43 time=0
note_on channel=0 note=85 velocity=43 time=0
note_on channel=0 note=61 velocity=36 time=0
note_on channel=0 note=58 velocity=30 time=0
control_change channel=0 control=64 value=0 time=10
control_change channel=0 control=64 value=127 time=59
note_on channel=0 note=58 velocity=0 time=39
note_on channel=0 note=61 velocity=0 time=0
note_on channel=0 note=85 velocity=0 time=12
note_on channel=0 note=78 velocity=32 time=0
note_on channel=0 note=66 velocity=24 time=0
note_on channel=0 note=66 velocity=0 time=0
note_on channel=0 note=78 velocity=0 time=0
note_on channel=0 note=88 velocity=0 time=0
note_on channel=0 note=87 velocity=41 time=0
note_on channel=0 note=83 velocity=41 time=0
note_on channel=0 note=59 velocity=24 time=0
note_on channel=0 note=63 velocity=29 time=0
control_change channel=0 control=64 value=0 time=5
control_change channel=0 control=64 value=127 time=47
note_on channel=0 note=63 velocity=0 time=68
note_on channel=0 note=59 velocity=0 time=0
note_on channel=0 note=83 velocity=0 time=0
note_on channel=0 note=78 velocity=31 time=0
note_on channel=0 note=66 velocity=20 time=0
note_on channel=0 note=66 velocity=0 time=0
note_on channel=0 note=78 velocity=0 time=0
note_on channel=0 note=87 velocity=0 time=0
note_on channel=0 note=82 velocity=33 time=0
note_on channel=0 note=85 velocity=33 time=0
note_on channel=0 note=61 velocity=24 time=0
note_on channel=0 note=64 velocity=28 time=0
control_change channel=0 control=64 value=0 time=12
control_change channel=0 control=64 value=127 time=45
note_on channel=0 note=64 velocity=0 time=63
note_on channel=0 note=61 velocity=0 time=0
note_on channel=0 note=82 velocity=0 time=0
note_on channel=0 note=78 velocity=30 time=0
note_on channel=0 note=66 velocity=20 time=0
note_on channel=0 note=66 velocity=0 time=0
note_on channel=0 note=78 velocity=0 time=0
note_on channel=0 note=85 velocity=0 time=0
note_on channel=0 note=83 velocity=52 time=0
note_on channel=0 note=63 velocity=26 time=0
control_change channel=0 control=64 value=0 time=13
control_change channel=0 control=64 value=127 time=90
note_on channel=0 note=63 velocity=0 time=17
note_on channel=0 note=78 velocity=29 time=0
note_on channel=0 note=66 velocity=24 time=0
note_on channel=0 note=66 velocity=0 time=0
note_on channel=0 note=78 velocity=0 time=0
note_on channel=0 note=83 velocity=0 time=0
note_on channel=0 note=81 velocity=39 time=0
note_on channel=0 note=63 velocity=33 time=0
control_change channel=0 control=64 value=0 time=10
control_change channel=0 control=64 value=127 time=59
note_on channel=0 note=63 velocity=0 time=39
note_on channel=0 note=72 velocity=29 time=12
note_on channel=0 note=66 velocity=22 time=0
note_on channel=0 note=66 velocity=0 time=0
note_on channel=0 note=72 velocity=0 time=0
note_on channel=0 note=81 velocity=0 time=0
note_on channel=0 note=80 velocity=37 time=0
note_on channel=0 note=63 velocity=26 time=0
control_change channel=0 control=64 value=0 time=5
control_change channel=0 control=64 value=127 time=47
note_on channel=0 note=63 velocity=0 time=68
note_on channel=0 note=72 velocity=28 time=0
note_on channel=0 note=66 velocity=18 time=0
note_on channel=0 note=66 velocity=0 time=0
note_on channel=0 note=72 velocity=0 time=0
note_on channel=0 note=80 velocity=0 time=0
note_on channel=0 note=80 velocity=30 time=0
note_on channel=0 note=63 velocity=25 time=0
note_on channel=0 note=63 velocity=0 time=120
note_on channel=0 note=72 velocity=27 time=0
note_on channel=0 note=66 velocity=18 time=0
note_on channel=0 note=66 velocity=0 time=120
note_on channel=0 note=72 velocity=0 time=0
note_on channel=0 note=80 velocity=0 time=0
note_on channel=0 note=80 velocity=39 time=0
note_on channel=0 note=72 velocity=39 time=0
note_on channel=0 note=63 velocity=24 time=0
note_on channel=0 note=66 velocity=24 time=0
control_change channel=0 control=64 value=0 time=0
note_on channel=0 note=72 velocity=0 time=0
note_on channel=0 note=80 velocity=0 time=0
note_on channel=0 note=68 velocity=33 time=0
note_on channel=0 note=68 velocity=0 time=120
note_on channel=0 note=63 velocity=0 time=0
note_on channel=0 note=66 velocity=0 time=0
note_on channel=0 note=70 velocity=34 time=0
note_on channel=0 note=70 velocity=0 time=0
note_on channel=0 note=72 velocity=37 time=0
note_on channel=0 note=72 velocity=0 time=90
note_on channel=0 note=75 velocity=35 time=0
note_on channel=0 note=75 velocity=0 time=0
note_on channel=0 note=73 velocity=39 time=0
note_on channel=0 note=73 velocity=0 time=120
note_on channel=0 note=72 velocity=32 time=0
note_on channel=0 note=56 velocity=27 time=0
note_on channel=0 note=56 velocity=0 time=120
note_on channel=0 note=72 velocity=0 time=0
note_on channel=0 note=73 velocity=35 time=0
note_on channel=0 note=58 velocity=29 time=0
note_on channel=0 note=58 velocity=0 time=0
note_on channel=0 note=73 velocity=0 time=0
note_on channel=0 note=75 velocity=32 time=0
note_on channel=0 note=60 velocity=27 time=0
note_on channel=0 note=60 velocity=0 time=0
note_on channel=0 note=75 velocity=0 time=0
note_on channel=0 note=76 velocity=39 time=0
note_on channel=0 note=61 velocity=33 time=0
note_on channel=0 note=61 velocity=0 time=120
note_on channel=0 note=76 velocity=0 time=0
note_on channel=0 note=72 velocity=33 time=0
note_on channel=0 note=56 velocity=28 time=0
note_on channel=0 note=56 velocity=0 time=120
note_on channel=0 note=72 velocity=0 time=0
note_on channel=0 note=73 velocity=35 time=0
note_on channel=0 note=58 velocity=29 time=0
note_on channel=0 note=58 velocity=0 time=0
note_on channel=0 note=73 velocity=0 time=0
note_on channel=0 note=75 velocity=32 time=0
note_on channel=0 note=60 velocity=27 time=0
note_on channel=0 note=60 velocity=0 time=90
note_on channel=0 note=75 velocity=0 time=0
note_on channel=0 note=78 velocity=32 time=0
note_on channel=0 note=63 velocity=27 time=0
note_on channel=0 note=63 velocity=0 time=0
note_on channel=0 note=78 velocity=0 time=0
note_on channel=0 note=76 velocity=41 time=0
note_on channel=0 note=61 velocity=34 time=0
note_on channel=0 note=61 velocity=0 time=120
note_on channel=0 note=76 velocity=0 time=0
note_on channel=0 note=75 velocity=33 time=0
note_on channel=0 note=60 velocity=28 time=0
note_on channel=0 note=60 velocity=0 time=0
note_on channel=0 note=75 velocity=0 time=0
note_on channel=0 note=76 velocity=35 time=0
note_on channel=0 note=61 velocity=29 time=0
note_on channel=0 note=61 velocity=0 time=0
note_on channel=0 note=76 velocity=0 time=0
note_on channel=0 note=78 velocity=32 time=0
note_on channel=0 note=63 velocity=27 time=0
note_on channel=0 note=63 velocity=0 time=0
note_on channel=0 note=78 velocity=0 time=0
note_on channel=0 note=80 velocity=42 time=0
note_on channel=0 note=64 velocity=35 time=0
note_on channel=0 note=64 velocity=0 time=120
note_on channel=0 note=80 velocity=0 time=0
note_on channel=0 note=78 velocity=35 time=0
note_on channel=0 note=63 velocity=29 time=0
note_on channel=0 note=63 velocity=0 time=120
note_on channel=0 note=78 velocity=0 time=0
note_on channel=0 note=76 velocity=35 time=0
note_on channel=0 note=64 velocity=29 time=0
note_on channel=0 note=64 velocity=0 time=0
note_on channel=0 note=76 velocity=0 time=0
note_on channel=0 note=75 velocity=34 time=0
note_on channel=0 note=66 velocity=28 time=0
note_on channel=0 note=66 velocity=0 time=0
note_on channel=0 note=75 velocity=0 time=0
note_on channel=0 note=76 velocity=41 time=0
note_on channel=0 note=68 velocity=34 time=0
note_on channel=0 note=68 velocity=0 time=120
note_on channel=0 note=76 velocity=0 time=0
note_on channel=0 note=75 velocity=35 time=0
note_on channel=0 note=66 velocity=29 time=0
note_on channel=0 note=66 velocity=0 time=120
note_on channel=0 note=75 velocity=0 time=0
note_on channel=0 note=73 velocity=35 time=0
note_on channel=0 note=64 velocity=29 time=0
note_on channel=0 note=64 velocity=0 time=0
note_on channel=0 note=73 velocity=0 time=0
note_on channel=0 note=80 velocity=34 time=0
note_on channel=0 note=65 velocity=28 time=0
note_on channel=0 note=65 velocity=0 time=0
note_on channel=0 note=80 velocity=0 time=0
note_on channel=0 note=75 velocity=40 time=0
note_on channel=0 note=66 velocity=34 time=0
note_on channel=0 note=75 velocity=0 time=120
note_on channel=0 note=73 velocity=34 time=0
note_on channel=0 note=73 velocity=0 time=120
note_on channel=0 note=66 velocity=0 time=0
note_on channel=0 note=71 velocity=35 time=0
note_on channel=0 note=71 velocity=0 time=120
note_on channel=0 note=78 velocity=35 time=0
note_on channel=0 note=78 velocity=0 time=120
note_on channel=0 note=73 velocity=40 time=0
note_on channel=0 note=54 velocity=34 time=0
note_on channel=0 note=73 velocity=0 time=120
note_on channel=0 note=71 velocity=33 time=0
note_on channel=0 note=71 velocity=0 time=0
note_on channel=0 note=54 velocity=0 time=0
note_on channel=0 note=70 velocity=35 time=0
note_on channel=0 note=70 velocity=0 time=0
note_on channel=0 note=78 velocity=33 time=0
note_on channel=0 note=78 velocity=0 time=110
note_on channel=0 note=78 velocity=43 time=0
note_on channel=0 note=75 velocity=43 time=0
note_on channel=0 note=66 velocity=36 time=0
note_on channel=0 note=47 velocity=32 time=0
control_change channel=0 control=64 value=127 time=85
note_on channel=0 note=47 velocity=0 time=75
note_on channel=0 note=54 velocity=27 time=0
note_on channel=0 note=54 velocity=0 time=160
note_on channel=0 note=51 velocity=27 time=0
note_on channel=0 note=51 velocity=0 time=160
note_on channel=0 note=47 velocity=32 time=0
note_on channel=0 note=47 velocity=0 time=160
note_on channel=0 note=59 velocity=27 time=0
note_on channel=0 note=59 velocity=0 time=0
note_on channel=0 note=54 velocity=27 time=0
note_on channel=0 note=54 velocity=0 time=0
note_on channel=0 note=66 velocity=0 time=0
note_on channel=0 note=75 velocity=0 time=0
note_on channel=0 note=78 velocity=0 time=0
note_on channel=0 note=64 velocity=28 time=0
note_on channel=0 note=73 velocity=34 time=0
note_on channel=0 note=76 velocity=34 time=0
note_on channel=0 note=49 velocity=32 time=0
control_change channel=0 control=64 value=0 time=7
control_change channel=0 control=64 value=127 time=45
note_on channel=0 note=49 velocity=0 time=40
note_on channel=0 note=58 velocity=27 time=0
note_on channel=0 note=58 velocity=0 time=26
note_on channel=0 note=54 velocity=27 time=0
note_on channel=0 note=54 velocity=0 time=66
note_on channel=0 note=64 velocity=0 time=0
note_on channel=0 note=73 velocity=0 time=0
note_on channel=0 note=76 velocity=0 time=0
note_on channel=0 note=63 velocity=25 time=0
note_on channel=0 note=71 velocity=30 time=0
note_on channel=0 note=75 velocity=30 time=0
note_on channel=0 note=51 velocity=33 time=0
control_change channel=0 control=64 value=0 time=12
control_change channel=0 control=64 value=127 time=15
note_on channel=0 note=51 velocity=0 time=91
note_on channel=0 note=59 velocity=27 time=0
note_on channel=0 note=59 velocity=0 time=0
note_on channel=0 note=54 velocity=29 time=0
note_on channel=0 note=54 velocity=0 time=0
note_on channel=0 note=63 velocity=0 time=0
note_on channel=0 note=71 velocity=0 time=0
note_on channel=0 note=75 velocity=0 time=0
note_on channel=0 note=68 velocity=39 time=0
note_on channel=0 note=73 velocity=39 time=0
note_on channel=0 note=52 velocity=32 time=0
control_change channel=0 control=64 value=0 time=9
control_change channel=0 control=64 value=127 time=71
note_on channel=0 note=52 velocity=0 time=80
note_on channel=0 note=61 velocity=29 time=0
note_on channel=0 note=61 velocity=0 time=0
note_on channel=0 note=56 velocity=29 time=0
note_on channel=0 note=56 velocity=0 time=0
note_on channel=0 note=73 velocity=0 time=0
note_on channel=0 note=68 velocity=0 time=0
note_on channel=0 note=71 velocity=35 time=0
note_on channel=0 note=68 velocity=29 time=0
note_on channel=0 note=53 velocity=34 time=0
control_change channel=0 control=64 value=0 time=19
control_change channel=0 control=64 value=127 time=61
note_on channel=0 note=53 velocity=0 time=80
note_on channel=0 note=63 velocity=31 time=0
note_on channel=0 note=63 velocity=0 time=0
note_on channel=0 note=59 velocity=30 time=0
note_on channel=0 note=59 velocity=0 time=0
note_on channel=0 note=68 velocity=0 time=0
note_on channel=0 note=66 velocity=33 time=0
note_on channel=0 note=54 velocity=37 time=0
control_change channel=0 control=64 value=0 time=7
control_change channel=0 control=64 value=127 time=45
note_on channel=0 note=54 velocity=0 time=108
note_on channel=0 note=63 velocity=32 time=0
note_on channel=0 note=63 velocity=0 time=0
note_on channel=0 note=59 velocity=32 time=0
note_on channel=0 note=59 velocity=0 time=0
note_on channel=0 note=66 velocity=0 time=0
note_on channel=0 note=71 velocity=0 time=0
note_on channel=0 note=70 velocity=44 time=0
note_on channel=0 note=66 velocity=37 time=0
note_on channel=0 note=52 velocity=42 time=0
control_change channel=0 control=64 value=0 time=13
control_change channel=0 control=64 value=127 time=44
note_on channel=0 note=52 velocity=0 time=40
note_on channel=0 note=61 velocity=36 time=0
note_on channel=0 note=70 velocity=0 time=80
note_on channel=0 note=78 velocity=43 time=0
note_on channel=0 note=61 velocity=0 time=0
note_on channel=0 note=58 velocity=36 time=0
note_on channel=0 note=58 velocity=0 time=0
note_on channel=0 note=78 velocity=0 time=0
note_on channel=0 note=66 velocity=0 time=0
note_on channel=0 note=66 velocity=57 time=0
note_on channel=0 note=69 velocity=57 time=0
note_on channel=0 note=78 velocity=67 time=0
note_on channel=0 note=51 velocity=43 time=0
control_change channel=0 control=64 value=0 time=10
control_change channel=0 control=64 value=127 time=61
note_on channel=0 note=51 velocity=0 time=0
note_on channel=0 note=59 velocity=36 time=0
note_on channel=0 note=59 velocity=0 time=120
note_on channel=0 note=54 velocity=36 time=0
note_on channel=0 note=54 velocity=0 time=120
note_on channel=0 note=51 velocity=34 time=0
note_on channel=0 note=51 velocity=0 time=0
note_on channel=0 note=47 velocity=42 time=0
note_on channel=0 note=47 velocity=0 time=120
note_on channel=0 note=54 velocity=37 time=0
note_on channel=0 note=54 velocity=0 time=120
note_on channel=0 note=51 velocity=38 time=0
note_on channel=0 note=51 velocity=0 time=120
note_on channel=0 note=47 velocity=35 time=0
note_on channel=0 note=47 velocity=0 time=0
note_on channel=0 note=78 velocity=0 time=0
note_on channel=0 note=69 velocity=0 time=0
note_on channel=0 note=66 velocity=0 time=0
note_on channel=0 note=64 velocity=51 time=0
note_on channel=0 note=69 velocity=51 time=0
note_on channel=0 note=76 velocity=63 time=0
note_on channel=0 note=49 velocity=50 time=0
control_change channel=0 control=64 value=0 time=7
control_change channel=0 control=64 value=127 time=64
note_on channel=0 note=49 velocity=0 time=49
note_on channel=0 note=57 velocity=40 time=0
note_on channel=0 note=57 velocity=0 time=120
note_on channel=0 note=52 velocity=40 time=0
note_on channel=0 note=52 velocity=0 time=120
note_on channel=0 note=49 velocity=36 time=0
note_on channel=0 note=49 velocity=0 time=120
note_on channel=0 note=76 velocity=0 time=0
note_on channel=0 note=69 velocity=0 time=0
note_on channel=0 note=64 velocity=0 time=0
note_on channel=0 note=63 velocity=52 time=0
note_on channel=0 note=69 velocity=52 time=0
note_on channel=0 note=75 velocity=64 time=0
note_on channel=0 note=66 velocity=52 time=0
note_on channel=0 note=51 velocity=48 time=0
control_change channel=0 control=64 value=0 time=14
control_change channel=0 control=64 value=127 time=92
note_on channel=0 note=51 velocity=0 time=14
note_on channel=0 note=59 velocity=43 time=0
note_on channel=0 note=59 velocity=0 time=120
note_on channel=0 note=54 velocity=43 time=0
note_on channel=0 note=54 velocity=0 time=40
note_on channel=0 note=51 velocity=41 time=0
note_on channel=0 note=51 velocity=0 time=0
note_on channel=0 note=66 velocity=0 time=0
note_on channel=0 note=63 velocity=0 time=0
note_on channel=0 note=69 velocity=0 time=0
note_on channel=0 note=75 velocity=0 time=0
note_on channel=0 note=69 velocity=68 time=0
note_on channel=0 note=73 velocity=80 time=0
note_on channel=0 note=52 velocity=61 time=0
control_change channel=0 control=64 value=0 time=7
control_change channel=0 control=64 value=127 time=85
note_on channel=0 note=52 velocity=0 time=28
note_on channel=0 note=61 velocity=46 time=0
note_on channel=0 note=61 velocity=0 time=120
note_on channel=0 note=57 velocity=45 time=0
note_on channel=0 note=57 velocity=0 time=0
note_on channel=0 note=52 velocity=43 time=0
note_on channel=0 note=52 velocity=0 time=0
note_on channel=0 note=73 velocity=0 time=0
note_on channel=0 note=69 velocity=0 time=0
note_on channel=0 note=66 velocity=68 time=0
note_on channel=0 note=71 velocity=81 time=0
note_on channel=0 note=63 velocity=68 time=0
note_on channel=0 note=54 velocity=62 time=0
control_change channel=0 control=64 value=0 time=16
control_change channel=0 control=64 value=127 time=69
note_on channel=0 note=54 velocity=0 time=35
note_on channel=0 note=59 velocity=47 time=0
note_on channel=0 note=59 velocity=0 time=120
note_on channel=0 note=57 velocity=48 time=0
note_on channel=0 note=57 velocity=0 time=40
note_on channel=0 note=54 velocity=46 time=0
note_on channel=0 note=54 velocity=0 time=110
note_on channel=0 note=54 velocity=66 time=0
note_on channel=0 note=54 velocity=0 time=120
note_on channel=0 note=59 velocity=50 time=0
note_on channel=0 note=59 velocity=0 time=120
note_on channel=0 note=57 velocity=50 time=0
note_on channel=0 note=57 velocity=0 time=40
note_on channel=0 note=54 velocity=48 time=0
note_on channel=0 note=54 velocity=0 time=0
note_on channel=0 note=63 velocity=0 time=0
note_on channel=0 note=71 velocity=0 time=0
note_on channel=0 note=66 velocity=0 time=0
note_on channel=0 note=66 velocity=67 time=0
note_on channel=0 note=69 velocity=80 time=0
note_on channel=0 note=63 velocity=67 time=0
note_on channel=0 note=48 velocity=60 time=0
control_change channel=0 control=64 value=0 time=17
control_change channel=0 control=64 value=127 time=46
note_on channel=0 note=48 velocity=0 time=57
note_on channel=0 note=57 velocity=51 time=0
note_on channel=0 note=57 velocity=0 time=120
note_on channel=0 note=54 velocity=51 time=0
note_on channel=0 note=54 velocity=0 time=40
note_on channel=0 note=51 velocity=47 time=0
note_on channel=0 note=51 velocity=0 time=0
note_on channel=0 note=63 velocity=0 time=0
note_on channel=0 note=69 velocity=0 time=0
note_on channel=0 note=66 velocity=0 time=0
note_on channel=0 note=69 velocity=82 time=0
note_on channel=0 note=48 velocity=60 time=0
control_change channel=0 control=64 value=0 time=17
control_change channel=0 control=64 value=127 time=52
note_on channel=0 note=48 velocity=0 time=51
note_on channel=0 note=69 velocity=0 time=0
note_on channel=0 note=75 velocity=75 time=0
note_on channel=0 note=57 velocity=51 time=0
note_on channel=0 note=57 velocity=0 time=120
note_on channel=0 note=75 velocity=0 time=0
note_on channel=0 note=78 velocity=80 time=0
note_on channel=0 note=54 velocity=51 time=0
note_on channel=0 note=54 velocity=0 time=120
note_on channel=0 note=78 velocity=0 time=0
note_on channel=0 note=75 velocity=77 time=0
note_on channel=0 note=51 velocity=43 time=0
note_on channel=0 note=51 velocity=0 time=120
note_on channel=0 note=75 velocity=0 time=0
note_on channel=0 note=81 velocity=68 time=0
note_on channel=0 note=48 velocity=48 time=0
note_on channel=0 note=48 velocity=0 time=120
note_on channel=0 note=81 velocity=0 time=0
note_on channel=0 note=87 velocity=59 time=0
note_on channel=0 note=57 velocity=37 time=0
note_on channel=0 note=57 velocity=0 time=120
note_on channel=0 note=87 velocity=0 time=0
note_on channel=0 note=90 velocity=50 time=0
note_on channel=0 note=54 velocity=35 time=0
note_on channel=0 note=54 velocity=0 time=0
note_on channel=0 note=90 velocity=0 time=0
note_on channel=0 note=87 velocity=41 time=0
note_on channel=0 note=51 velocity=33 time=0
note_on channel=0 note=51 velocity=0 time=0
note_on channel=0 note=87 velocity=0 time=0
note_on channel=0 note=93 velocity=54 time=0
note_on channel=0 note=47 velocity=37 time=0
control_change channel=0 control=64 value=0 time=28
control_change channel=0 control=64 value=127 time=57
note_on channel=0 note=47 velocity=0 time=35
note_on channel=0 note=57 velocity=26 time=0
note_on channel=0 note=57 velocity=0 time=120
note_on channel=0 note=54 velocity=30 time=0
note_on channel=0 note=54 velocity=0 time=120
note_on channel=0 note=51 velocity=26 time=0
note_on channel=0 note=51 velocity=0 time=0
note_on channel=0 note=93 velocity=0 time=0
note_on channel=0 note=47 velocity=31 time=0
note_on channel=0 note=47 velocity=0 time=27
note_on channel=0 note=63 velocity=39 time=0
note_on channel=0 note=57 velocity=26 time=0
control_change channel=0 control=64 value=0 time=0
note_on channel=0 note=57 velocity=0 time=27
note_on channel=0 note=63 velocity=0 time=0
note_on channel=0 note=64 velocity=39 time=0
note_on channel=0 note=56 velocity=26 time=0
note_on channel=0 note=56 velocity=0 time=0
note_on channel=0 note=64 velocity=0 time=0
note_on channel=0 note=66 velocity=41 time=0
note_on channel=0 note=54 velocity=26 time=0
note_on channel=0 note=54 velocity=0 time=0
note_on channel=0 note=66 velocity=0 time=0
note_on channel=0 note=64 velocity=34 time=0
note_on channel=0 note=68 velocity=50 time=0
note_on channel=0 note=40 velocity=25 time=0
note_on channel=0 note=52 velocity=30 time=0
control_change channel=0 control=64 value=127 time=78
note_on channel=0 note=64 velocity=0 time=42
note_on channel=0 note=59 velocity=26 time=0
note_on channel=0 note=59 velocity=0 time=120
note_on channel=0 note=52 velocity=0 time=0
note_on channel=0 note=40 velocity=0 time=0
note_on channel=0 note=64 velocity=31 time=0
note_on channel=0 note=64 velocity=0 time=120
note_on channel=0 note=59 velocity=26 time=0
note_on channel=0 note=59 velocity=0 time=0
note_on channel=0 note=68 velocity=0 time=0
note_on channel=0 note=68 velocity=30 time=0
note_on channel=0 note=71 velocity=46 time=0
control_change channel=0 control=64 value=0 time=16
control_change channel=0 control=64 value=127 time=83
note_on channel=0 note=68 velocity=0 time=0
note_on channel=0 note=59 velocity=27 time=0
note_on channel=0 note=59 velocity=0 time=0
note_on channel=0 note=71 velocity=0 time=0
note_on channel=0 note=66 velocity=28 time=0
note_on channel=0 note=69 velocity=43 time=0
control_change channel=0 control=64 value=0 time=13
control_change channel=0 control=64 value=127 time=51
note_on channel=0 note=66 velocity=0 time=0
note_on channel=0 note=59 velocity=27 time=0
note_on channel=0 note=59 velocity=0 time=0
note_on channel=0 note=69 velocity=0 time=0
note_on channel=0 note=64 velocity=34 time=0
note_on channel=0 note=68 velocity=50 time=0
note_on channel=0 note=35 velocity=25 time=0
note_on channel=0 note=47 velocity=30 time=0
control_change channel=0 control=64 value=0 time=0
control_change channel=0 control=64 value=127 time=64
note_on channel=0 note=64 velocity=0 time=56
note_on channel=0 note=59 velocity=26 time=0
note_on channel=0 note=59 velocity=0 time=0
note_on channel=0 note=47 velocity=0 time=0
note_on channel=0 note=35 velocity=0 time=0
note_on channel=0 note=68 velocity=0 time=0
note_on channel=0 note=63 velocity=27 time=0
note_on channel=0 note=66 velocity=41 time=0
control_change channel=0 control=64 value=0 time=14
control_change channel=0 control=64 value=127 time=43
note_on channel=0 note=63 velocity=0 time=63
note_on channel=0 note=59 velocity=25 time=0
note_on channel=0 note=59 velocity=0 time=90
note_on channel=0 note=66 velocity=0 time=0
control_change channel=0 control=64 value=0 time=0
note_on channel=0 note=63 velocity=27 time=30
note_on channel=0 note=66 velocity=41 time=0
control_change channel=0 control=64 value=127 time=64
note_on channel=0 note=63 velocity=0 time=56
note_on channel=0 note=59 velocity=26 time=0
note_on channel=0 note=59 velocity=0 time=0
note_on channel=0 note=66 velocity=0 time=0
note_on channel=0 note=64 velocity=28 time=0
note_on channel=0 note=68 velocity=43 time=0
control_change channel=0 control=64 value=0 time=18
control_change channel=0 control=64 value=127 time=67
note_on channel=0 note=64 velocity=0 time=35
note_on channel=0 note=59 velocity=28 time=0
note_on channel=0 note=59 velocity=0 time=0
note_on channel=0 note=68 velocity=0 time=0
note_on channel=0 note=64 velocity=30 time=0
note_on channel=0 note=69 velocity=46 time=0
note_on channel=0 note=37 velocity=25 time=0
note_on channel=0 note=49 velocity=30 time=0
control_change channel=0 control=64 value=0 time=10
control_change channel=0 control=64 value=127 time=75
note_on channel=0 note=64 velocity=0 time=35
note_on channel=0 note=59 velocity=28 time=0
note_on channel=0 note=59 velocity=0 time=120
note_on channel=0 note=49 velocity=0 time=0
note_on channel=0 note=37 velocity=0 time=0
note_on channel=0 note=69 velocity=0 time=0
note_on channel=0 note=64 velocity=36 time=0
note_on channel=0 note=73 velocity=54 time=0
note_on channel=0 note=64 velocity=0 time=120
note_on channel=0 note=59 velocity=31 time=0
note_on channel=0 note=59 velocity=0 time=120
note_on channel=0 note=73 velocity=0 time=0
note_on channel=0 note=66 velocity=37 time=0
note_on channel=0 note=71 velocity=47 time=0
note_on channel=0 note=51 velocity=28 time=0
note_on channel=0 note=39 velocity=23 time=0
control_change channel=0 control=64 value=0 time=16
control_change channel=0 control=64 value=127 time=62
note_on channel=0 note=66 velocity=0 time=42
note_on channel=0 note=59 velocity=26 time=0
note_on channel=0 note=59 velocity=0 time=0
note_on channel=0 note=39 velocity=0 time=0
note_on channel=0 note=51 velocity=0 time=0
note_on channel=0 note=71 velocity=0 time=0
note_on channel=0 note=63 velocity=25 time=0
note_on channel=0 note=66 velocity=38 time=0
note_on channel=0 note=47 velocity=26 time=0
note_on channel=0 note=35 velocity=22 time=0
note_on channel=0 note=63 velocity=0 time=0
note_on channel=0 note=59 velocity=27 time=0
note_on channel=0 note=59 velocity=0 time=0
note_on channel=0 note=35 velocity=0 time=0
note_on channel=0 note=47 velocity=0 time=0
note_on channel=0 note=66 velocity=0 time=0
note_on channel=0 note=59 velocity=35 time=0
note_on channel=0 note=64 velocity=35 time=0
note_on channel=0 note=68 velocity=42 time=0
note_on channel=0 note=40 velocity=28 time=0
note_on channel=0 note=52 velocity=28 time=0
control_change channel=0 control=64 value=0 time=8
note_on channel=0 note=52 velocity=0 time=112
note_on channel=0 note=40 velocity=0 time=0
note_on channel=0 note=56 velocity=25 time=0
note_on channel=0 note=56 velocity=0 time=120
note_on channel=0 note=59 velocity=28 time=0
note_on channel=0 note=59 velocity=0 time=120
note_on channel=0 note=57 velocity=26 time=0
note_on channel=0 note=57 velocity=0 time=120
note_on channel=0 note=68 velocity=0 time=0
note_on channel=0 note=64 velocity=0 time=0
note_on channel=0 note=59 velocity=0 time=0
note_on channel=0 note=56 velocity=28 time=0
note_on channel=0 note=56 velocity=0 time=120
note_on channel=0 note=57 velocity=25 time=0
note_on channel=0 note=57 velocity=0 time=0
note_on channel=0 note=76 velocity=47 time=0
note_on channel=0 note=56 velocity=30 time=0
note_on channel=0 note=56 velocity=0 time=0
note_on channel=0 note=76 velocity=0 time=0
note_on channel=0 note=78 velocity=42 time=0
note_on channel=0 note=54 velocity=27 time=0
note_on channel=0 note=54 velocity=0 time=0
note_on channel=0 note=78 velocity=0 time=0
note_on channel=0 note=68 velocity=55 time=0
note_on channel=0 note=80 velocity=55 time=0
note_on channel=0 note=52 velocity=37 time=0
control_change channel=0 control=64 value=127 time=92
note_on channel=0 note=52 velocity=0 time=28
note_on channel=0 note=59 velocity=28 time=0
note_on channel=0 note=59 velocity=0 time=120
note_on channel=0 note=47 velocity=34 time=0
note_on channel=0 note=47 velocity=0 time=120
note_on channel=0 note=59 velocity=28 time=0
note_on channel=0 note=59 velocity=0 time=0
note_on channel=0 note=80 velocity=0 time=0
note_on channel=0 note=68 velocity=0 time=0
note_on channel=0 note=71 velocity=50 time=0
note_on channel=0 note=83 velocity=50 time=0
note_on channel=0 note=52 velocity=33 time=0
control_change channel=0 control=64 value=0 time=14
control_change channel=0 control=64 value=127 time=92
note_on channel=0 note=52 velocity=0 time=14
note_on channel=0 note=59 velocity=29 time=0
note_on channel=0 note=59 velocity=0 time=0
note_on channel=0 note=83 velocity=0 time=0
note_on channel=0 note=71 velocity=0 time=0
note_on channel=0 note=69 velocity=47 time=0
note_on channel=0 note=81 velocity=47 time=0
note_on channel=0 note=47 velocity=30 time=0
control_change channel=0 control=64 value=0 time=12
control_change channel=0 control=64 value=127 time=66
note_on channel=0 note=47 velocity=0 time=0
note_on channel=0 note=59 velocity=29 time=0
note_on channel=0 note=59 velocity=0 time=0
note_on channel=0 note=81 velocity=0 time=0
note_on channel=0 note=69 velocity=0 time=0
note_on channel=0 note=68 velocity=55 time=0
note_on channel=0 note=80 velocity=55 time=0
note_on channel=0 note=51 velocity=37 time=0
control_change channel=0 control=64 value=0 time=10
control_change channel=0 control=64 value=127 time=70
note_on channel=0 note=51 velocity=0 time=40
note_on channel=0 note=59 velocity=28 time=0
note_on channel=0 note=59 velocity=0 time=0
note_on channel=0 note=80 velocity=0 time=0
note_on channel=0 note=68 velocity=0 time=0
note_on channel=0 note=66 velocity=45 time=0
note_on channel=0 note=78 velocity=45 time=0
note_on channel=0 note=47 velocity=29 time=0
control_change channel=0 control=64 value=0 time=9
control_change channel=0 control=64 value=127 time=77
note_on channel=0 note=47 velocity=0 time=34
note_on channel=0 note=59 velocity=27 time=0
note_on channel=0 note=59 velocity=0 time=90
note_on channel=0 note=78 velocity=0 time=0
note_on channel=0 note=66 velocity=0 time=0
control_change channel=0 control=64 value=0 time=0
note_on channel=0 note=66 velocity=45 time=30
note_on channel=0 note=78 velocity=45 time=0
note_on channel=0 note=51 velocity=29 time=0
control_change channel=0 control=64 value=127 time=75
note_on channel=0 note=51 velocity=0 time=45
note_on channel=0 note=59 velocity=28 time=0
note_on channel=0 note=59 velocity=0 time=0
note_on channel=0 note=78 velocity=0 time=0
note_on channel=0 note=66 velocity=0 time=0
note_on channel=0 note=68 velocity=49 time=0
note_on channel=0 note=80 velocity=49 time=0
note_on channel=0 note=53 velocity=31 time=0
control_change channel=0 control=64 value=0 time=17
control_change channel=0 control=64 value=127 time=58
note_on channel=0 note=53 velocity=0 time=45
note_on channel=0 note=59 velocity=33 time=0
note_on channel=0 note=59 velocity=0 time=0
note_on channel=0 note=80 velocity=0 time=0
note_on channel=0 note=68 velocity=0 time=0
note_on channel=0 note=69 velocity=47 time=0
note_on channel=0 note=81 velocity=56 time=0
note_on channel=0 note=54 velocity=36 time=0
control_change channel=0 control=64 value=0 time=21
control_change channel=0 control=64 value=127 time=71
note_on channel=0 note=54 velocity=0 time=28
note_on channel=0 note=59 velocity=36 time=0
note_on channel=0 note=59 velocity=0 time=120
note_on channel=0 note=81 velocity=0 time=0
note_on channel=0 note=69 velocity=0 time=0
note_on channel=0 note=73 velocity=51 time=0
note_on channel=0 note=85 velocity=61 time=0
note_on channel=0 note=57 velocity=41 time=0
note_on channel=0 note=57 velocity=0 time=120
note_on channel=0 note=59 velocity=37 time=0
note_on channel=0 note=59 velocity=0 time=120
note_on channel=0 note=85 velocity=0 time=0
note_on channel=0 note=73 velocity=0 time=0
note_on channel=0 note=71 velocity=47 time=0
note_on channel=0 note=83 velocity=57 time=0
note_on channel=0 note=56 velocity=38 time=0
control_change channel=0 control=64 value=0 time=50
control_change channel=0 control=64 value=127 time=63
note_on channel=0 note=56 velocity=0 time=7
note_on channel=0 note=59 velocity=32 time=0
note_on channel=0 note=59 velocity=0 time=0
note_on channel=0 note=83 velocity=0 time=0
note_on channel=0 note=71 velocity=0 time=0
note_on channel=0 note=87 velocity=49 time=0
note_on channel=0 note=75 velocity=32 time=0
note_on channel=0 note=47 velocity=25 time=0
note_on channel=0 note=54 velocity=25 time=0
control_change channel=0 control=64 value=0 time=14
control_change channel=0 control=64 value=127 time=64
note_on channel=0 note=54 velocity=0 time=0
note_on channel=0 note=47 velocity=0 time=0
note_on channel=0 note=57 velocity=27 time=0
note_on channel=0 note=57 velocity=0 time=0
note_on channel=0 note=75 velocity=0 time=0
note_on channel=0 note=87 velocity=0 time=0
note_on channel=0 note=88 velocity=57 time=0
note_on channel=0 note=76 velocity=35 time=0
note_on channel=0 note=52 velocity=31 time=0
note_on channel=0 note=56 velocity=31 time=0
control_change channel=0 control=64 value=0 time=6
control_change channel=0 control=64 value=127 time=58
note_on channel=0 note=56 velocity=0 time=56
note_on channel=0 note=52 velocity=0 time=0
note_on channel=0 note=59 velocity=23 time=0
note_on channel=0 note=59 velocity=0 time=120
note_on channel=0 note=56 velocity=31 time=0
note_on channel=0 note=56 velocity=0 time=120
note_on channel=0 note=52 velocity=25 time=0
note_on channel=0 note=52 velocity=0 time=0
note_on channel=0 note=76 velocity=0 time=0
note_on channel=0 note=88 velocity=0 time=0
note_on channel=0 note=51 velocity=31 time=0
control_change channel=0 control=64 value=0 time=14
control_change channel=0 control=64 value=127 time=78
note_on channel=0 note=51 velocity=0 time=28
note_on channel=0 note=59 velocity=27 time=0
note_on channel=0 note=59 velocity=0 time=120
note_on channel=0 note=71 velocity=47 time=0
note_on channel=0 note=54 velocity=31 time=0
note_on channel=0 note=54 velocity=0 time=0
note_on channel=0 note=51 velocity=32 time=0
note_on channel=0 note=51 velocity=0 time=0
note_on channel=0 note=71 velocity=0 time=0
note_on channel=0 note=70 velocity=51 time=0
note_on channel=0 note=49 velocity=38 time=0
control_change channel=0 control=64 value=0 time=7
control_change channel=0 control=64 value=127 time=85
note_on channel=0 note=49 velocity=0 time=28
note_on channel=0 note=58 velocity=29 time=0
note_on channel=0 note=58 velocity=0 time=120
note_on channel=0 note=54 velocity=31 time=0
note_on channel=0 note=54 velocity=0 time=120
note_on channel=0 note=49 velocity=27 time=0
note_on channel=0 note=49 velocity=0 time=120
note_on channel=0 note=70 velocity=0 time=0
note_on channel=0 note=76 velocity=56 time=0
note_on channel=0 note=42 velocity=31 time=0
note_on channel=0 note=42 velocity=0 time=120
note_on channel=0 note=58 velocity=26 time=0
note_on channel=0 note=58 velocity=0 time=120
note_on channel=0 note=54 velocity=29 time=0
note_on channel=0 note=54 velocity=0 time=0
note_on channel=0 note=49 velocity=27 time=0
note_on channel=0 note=49 velocity=0 time=0
note_on channel=0 note=76 velocity=0 time=0
note_on channel=0 note=75 velocity=51 time=0
note_on channel=0 note=47 velocity=31 time=0
control_change channel=0 control=64 value=0 time=0
control_change channel=0 control=64 value=127 time=99
note_on channel=0 note=47 velocity=0 time=21
note_on channel=0 note=59 velocity=25 time=0
note_on channel=0 note=59 velocity=0 time=120
note_on channel=0 note=54 velocity=30 time=0
note_on channel=0 note=54 velocity=0 time=120
note_on channel=0 note=51 velocity=27 time=0
note_on channel=0 note=51 velocity=0 time=120
note_on channel=0 note=47 velocity=37 time=0
note_on channel=0 note=47 velocity=0 time=120
note_on channel=0 note=59 velocity=30 time=0
note_on channel=0 note=59 velocity=0 time=120
note_on channel=0 note=75 velocity=0 time=0
note_on channel=0 note=69 velocity=45 time=0
note_on channel=0 note=49 velocity=37 time=0
control_change channel=0 control=64 value=0 time=8
control_change channel=0 control=64 value=127 time=63
note_on channel=0 note=49 velocity=0 time=0
note_on channel=0 note=57 velocity=33 time=0
note_on channel=0 note=57 velocity=0 time=0
note_on channel=0 note=69 velocity=0 time=0
note_on channel=0 note=68 velocity=51 time=0
note_on channel=0 note=47 velocity=31 time=0
control_change channel=0 control=64 value=0 time=7
control_change channel=0 control=64 value=127 time=78
note_on channel=0 note=47 velocity=0 time=35
note_on channel=0 note=56 velocity=32 time=0
note_on channel=0 note=56 velocity=0 time=120
note_on channel=0 note=52 velocity=38 time=0
note_on channel=0 note=52 velocity=0 time=120
note_on channel=0 note=47 velocity=33 time=0
note_on channel=0 note=47 velocity=0 time=120
note_on channel=0 note=68 velocity=0 time=0
note_on channel=0 note=74 velocity=54 time=0
note_on channel=0 note=40 velocity=45 time=0
control_change channel=0 control=64 value=0 time=18
control_change channel=0 control=64 value=127 time=74
note_on channel=0 note=40 velocity=0 time=28
note_on channel=0 note=56 velocity=32 time=0
note_on channel=0 note=56 velocity=0 time=120
note_on channel=0 note=52 velocity=36 time=0
note_on channel=0 note=52 velocity=0 time=0
note_on channel=0 note=47 velocity=29 time=0
note_on channel=0 note=47 velocity=0 time=0
note_on channel=0 note=74 velocity=0 time=0
note_on channel=0 note=73 velocity=51 time=0
note_on channel=0 note=45 velocity=35 time=0
control_change channel=0 control=64 value=0 time=16
control_change channel=0 control=64 value=127 time=69
note_on channel=0 note=45 velocity=0 time=35
note_on channel=0 note=57 velocity=27 time=0
note_on channel=0 note=57 velocity=0 time=120
note_on channel=0 note=52 velocity=31 time=0
note_on channel=0 note=52 velocity=0 time=120
note_on channel=0 note=49 velocity=27 time=0
note_on channel=0 note=49 velocity=0 time=120
note_on channel=0 note=45 velocity=31 time=0
note_on channel=0 note=45 velocity=0 time=0
note_on channel=0 note=52 velocity=29 time=0
note_on channel=0 note=52 velocity=0 time=120
note_on channel=0 note=73 velocity=0 time=0
note_on channel=0 note=73 velocity=48 time=0
note_on channel=0 note=45 velocity=34 time=0
note_on channel=0 note=45 velocity=0 time=120
note_on channel=0 note=52 velocity=38 time=0
note_on channel=0 note=52 velocity=0 time=0
note_on channel=0 note=73 velocity=0 time=0
note_on channel=0 note=72 velocity=57 time=0
note_on channel=0 note=45 velocity=39 time=0
control_change channel=0 control=64 value=0 time=0
control_change channel=0 control=64 value=127 time=71
note_on channel=0 note=45 velocity=0 time=49
note_on channel=0 note=52 velocity=35 time=0
note_on channel=0 note=52 velocity=0 time=120
note_on channel=0 note=72 velocity=0 time=0
note_on channel=0 note=73 velocity=58 time=0
note_on channel=0 note=45 velocity=38 time=0
note_on channel=0 note=45 velocity=0 time=120
note_on channel=0 note=52 velocity=35 time=0
note_on channel=0 note=52 velocity=0 time=0
note_on channel=0 note=73 velocity=0 time=0
note_on channel=0 note=69 velocity=55 time=0
note_on channel=0 note=64 velocity=46 time=0
note_on channel=0 note=61 velocity=46 time=0
note_on channel=0 note=45 velocity=44 time=0
control_change channel=0 control=64 value=0 time=7
control_change channel=0 control=64 value=127 time=64
note_on channel=0 note=45 velocity=0 time=49
note_on channel=0 note=52 velocity=36 time=0
note_on channel=0 note=69 velocity=0 time=60
note_on channel=0 note=61 velocity=0 time=0
note_on channel=0 note=64 velocity=0 time=0
note_on channel=0 note=52 velocity=0 time=60
note_on channel=0 note=68 velocity=55 time=0
note_on channel=0 note=64 velocity=46 time=0
note_on channel=0 note=59 velocity=46 time=0
note_on channel=0 note=47 velocity=44 time=0
control_change channel=0 control=64 value=0 time=14
control_change channel=0 control=64 value=127 time=64
note_on channel=0 note=47 velocity=0 time=0
note_on channel=0 note=52 velocity=37 time=0
note_on channel=0 note=68 velocity=0 time=60
note_on channel=0 note=59 velocity=0 time=0
note_on channel=0 note=64 velocity=0 time=0
note_on channel=0 note=52 velocity=0 time=0
note_on channel=0 note=68 velocity=76 time=0
note_on channel=0 note=64 velocity=64 time=0
note_on channel=0 note=58 velocity=64 time=0
note_on channel=0 note=49 velocity=55 time=0
control_change channel=0 control=64 value=0 time=7
control_change channel=0 control=64 value=127 time=62
note_on channel=0 note=49 velocity=0 time=51
note_on channel=0 note=52 velocity=48 time=0
note_on channel=0 note=52 velocity=0 time=120
note_on channel=0 note=68 velocity=0 time=0
note_on channel=0 note=66 velocity=62 time=0
note_on channel=0 note=49 velocity=54 time=0
note_on channel=0 note=49 velocity=0 time=0
note_on channel=0 note=52 velocity=43 time=0
note_on channel=0 note=52 velocity=0 time=0
note_on channel=0 note=58 velocity=0 time=0
note_on channel=0 note=64 velocity=0 time=0
note_on channel=0 note=64 velocity=63 time=0
note_on channel=0 note=57 velocity=63 time=0
note_on channel=0 note=48 velocity=50 time=0
control_change channel=0 control=64 value=0 time=12
control_change channel=0 control=64 value=127 time=68
note_on channel=0 note=48 velocity=0 time=40
note_on channel=0 note=52 velocity=39 time=0
note_on channel=0 note=52 velocity=0 time=120
note_on channel=0 note=66 velocity=0 time=0
note_on channel=0 note=66 velocity=67 time=0
note_on channel=0 note=48 velocity=49 time=0
note_on channel=0 note=48 velocity=0 time=0
note_on channel=0 note=52 velocity=39 time=0
note_on channel=0 note=52 velocity=0 time=0
note_on channel=0 note=66 velocity=0 time=0
note_on channel=0 note=57 velocity=0 time=0
note_on channel=0 note=64 velocity=0 time=0
note_on channel=0 note=66 velocity=49 time=0
note_on channel=0 note=63 velocity=41 time=0
note_on channel=0 note=57 velocity=41 time=0
note_on channel=0 note=47 velocity=31 time=0
control_change channel=0 control=64 value=0 time=7
control_change channel=0 control=64 value=127 time=78
note_on channel=0 note=47 velocity=0 time=35
note_on channel=0 note=54 velocity=27 time=0
note_on channel=0 note=54 velocity=0 time=120
note_on channel=0 note=57 velocity=0 time=0
note_on channel=0 note=63 velocity=0 time=0
note_on channel=0 note=66 velocity=0 time=0
note_on channel=0 note=71 velocity=38 time=0
note_on channel=0 note=63 velocity=32 time=0
note_on channel=0 note=47 velocity=31 time=0
note_on channel=0 note=47 velocity=0 time=120
note_on channel=0 note=54 velocity=29 time=0
note_on channel=0 note=57 velocity=29 time=0
note_on channel=0 note=57 velocity=0 time=0
note_on channel=0 note=54 velocity=0 time=0
note_on channel=0 note=71 velocity=0 time=0
note_on channel=0 note=70 velocity=46 time=0
note_on channel=0 note=47 velocity=31 time=0
control_change channel=0 control=64 value=0 time=9
control_change channel=0 control=64 value=127 time=76
note_on channel=0 note=47 velocity=0 time=35
note_on channel=0 note=54 velocity=27 time=0
note_on channel=0 note=57 velocity=27 time=0
note_on channel=0 note=57 velocity=0 time=120
note_on channel=0 note=63 velocity=0 time=0
note_on channel=0 note=70 velocity=0 time=0
note_on channel=0 note=54 velocity=0 time=0
note_on channel=0 note=71 velocity=40 time=0
note_on channel=0 note=63 velocity=34 time=0
note_on channel=0 note=47 velocity=31 time=0
note_on channel=0 note=47 velocity=0 time=0
note_on channel=0 note=57 velocity=28 time=0
note_on channel=0 note=54 velocity=28 time=0
note_on channel=0 note=54 velocity=0 time=0
note_on channel=0 note=71 velocity=0 time=0
note_on channel=0 note=63 velocity=0 time=0
note_on channel=0 note=57 velocity=0 time=0
note_on channel=0 note=64 velocity=51 time=0
note_on channel=0 note=52 velocity=31 time=0
note_on channel=0 note=56 velocity=31 time=0
control_change channel=0 control=64 value=0 time=6
control_change channel=0 control=64 value=0 time=1
control_change channel=0 control=64 value=127 time=57
note_on channel=0 note=56 velocity=0 time=56
note_on channel=0 note=52 velocity=0 time=0
note_on channel=0 note=59 velocity=23 time=0
note_on channel=0 note=59 velocity=0 time=120
note_on channel=0 note=56 velocity=31 time=0
note_on channel=0 note=56 velocity=0 time=120
note_on channel=0 note=52 velocity=25 time=0
note_on channel=0 note=52 velocity=0 time=0
note_on channel=0 note=64 velocity=0 time=0
note_on channel=0 note=51 velocity=31 time=0
control_change channel=0 control=64 value=0 time=14
control_change channel=0 control=64 value=127 time=78
note_on channel=0 note=51 velocity=0 time=28
note_on channel=0 note=59 velocity=27 time=0
note_on channel=0 note=59 velocity=0 time=120
note_on channel=0 note=83 velocity=47 time=0
note_on channel=0 note=71 velocity=47 time=0
note_on channel=0 note=54 velocity=31 time=0
note_on channel=0 note=54 velocity=0 time=0
note_on channel=0 note=51 velocity=32 time=0
note_on channel=0 note=51 velocity=0 time=0
note_on channel=0 note=71 velocity=0 time=0
note_on channel=0 note=83 velocity=0 time=0
note_on channel=0 note=82 velocity=51 time=0
note_on channel=0 note=70 velocity=51 time=0
note_on channel=0 note=49 velocity=38 time=0
control_change channel=0 control=64 value=0 time=7
control_change channel=0 control=64 value=127 time=85
note_on channel=0 note=49 velocity=0 time=28
note_on channel=0 note=58 velocity=29 time=0
note_on channel=0 note=58 velocity=0 time=120
note_on channel=0 note=54 velocity=31 time=0
note_on channel=0 note=54 velocity=0 time=120
note_on channel=0 note=49 velocity=27 time=0
note_on channel=0 note=49 velocity=0 time=120
note_on channel=0 note=70 velocity=0 time=0
note_on channel=0 note=82 velocity=0 time=0
note_on channel=0 note=88 velocity=56 time=0
note_on channel=0 note=76 velocity=56 time=0
note_on channel=0 note=42 velocity=31 time=0
note_on channel=0 note=42 velocity=0 time=120
note_on channel=0 note=58 velocity=26 time=0
note_on channel=0 note=58 velocity=0 time=120
note_on channel=0 note=54 velocity=29 time=0
note_on channel=0 note=54 velocity=0 time=0
note_on channel=0 note=49 velocity=27 time=0
note_on channel=0 note=49 velocity=0 time=0
note_on channel=0 note=76 velocity=0 time=0
note_on channel=0 note=88 velocity=0 time=0
note_on channel=0 note=87 velocity=51 time=0
note_on channel=0 note=75 velocity=51 time=0
note_on channel=0 note=47 velocity=31 time=0
control_change channel=0 control=64 value=0 time=0
control_change channel=0 control=64 value=127 time=99
note_on channel=0 note=47 velocity=0 time=21
note_on channel=0 note=59 velocity=25 time=0
note_on channel=0 note=59 velocity=0 time=120
note_on channel=0 note=54 velocity=30 time=0
note_on channel=0 note=54 velocity=0 time=120
note_on channel=0 note=51 velocity=27 time=0
note_on channel=0 note=51 velocity=0 time=120
note_on channel=0 note=47 velocity=37 time=0
note_on channel=0 note=47 velocity=0 time=120
note_on channel=0 note=59 velocity=30 time=0
note_on channel=0 note=59 velocity=0 time=120
note_on channel=0 note=75 velocity=0 time=0
note_on channel=0 note=87 velocity=0 time=0
note_on channel=0 note=81 velocity=45 time=0
note_on channel=0 note=69 velocity=45 time=0
note_on channel=0 note=49 velocity=37 time=0
control_change channel=0 control=64 value=0 time=8
control_change channel=0 control=64 value=127 time=63
note_on channel=0 note=49 velocity=0 time=0
note_on channel=0 note=57 velocity=33 time=0
note_on channel=0 note=57 velocity=0 time=0
note_on channel=0 note=69 velocity=0 time=0
note_on channel=0 note=81 velocity=0 time=0
note_on channel=0 note=80 velocity=51 time=0
note_on channel=0 note=68 velocity=51 time=0
note_on channel=0 note=47 velocity=31 time=0
control_change channel=0 control=64 value=0 time=7
control_change channel=0 control=64 value=127 time=78
note_on channel=0 note=47 velocity=0 time=35
note_on channel=0 note=56 velocity=33 time=0
note_on channel=0 note=56 velocity=0 time=120
note_on channel=0 note=52 velocity=37 time=0
note_on channel=0 note=52 velocity=0 time=120
note_on channel=0 note=47 velocity=37 time=0
note_on channel=0 note=47 velocity=0 time=120
note_on channel=0 note=68 velocity=0 time=0
note_on channel=0 note=80 velocity=0 time=0
note_on channel=0 note=86 velocity=54 time=0
note_on channel=0 note=74 velocity=54 time=0
note_on channel=0 note=40 velocity=42 time=0
control_change channel=0 control=64 value=0 time=18
control_change channel=0 control=64 value=127 time=74
note_on channel=0 note=40 velocity=0 time=28
note_on channel=0 note=56 velocity=32 time=0
note_on channel=0 note=56 velocity=0 time=120
note_on channel=0 note=52 velocity=36 time=0
note_on channel=0 note=52 velocity=0 time=0
note_on channel=0 note=47 velocity=29 time=0
note_on channel=0 note=47 velocity=0 time=0
note_on channel=0 note=74 velocity=0 time=0
note_on channel=0 note=86 velocity=0 time=0
note_on channel=0 note=85 velocity=51 time=0
note_on channel=0 note=73 velocity=51 time=0
note_on channel=0 note=45 velocity=35 time=0
control_change channel=0 control=64 value=0 time=16
control_change channel=0 control=64 value=127 time=69
note_on channel=0 note=45 velocity=0 time=35
note_on channel=0 note=57 velocity=27 time=0
note_on channel=0 note=57 velocity=0 time=120
note_on channel=0 note=52 velocity=31 time=0
note_on channel=0 note=52 velocity=0 time=120
note_on channel=0 note=49 velocity=27 time=0
note_on channel=0 note=49 velocity=0 time=120
note_on channel=0 note=45 velocity=31 time=0
note_on channel=0 note=45 velocity=0 time=0
note_on channel=0 note=52 velocity=29 time=0
note_on channel=0 note=52 velocity=0 time=120
note_on channel=0 note=73 velocity=0 time=0
note_on channel=0 note=85 velocity=0 time=0
note_on channel=0 note=85 velocity=50 time=0
note_on channel=0 note=73 velocity=50 time=0
note_on channel=0 note=45 velocity=35 time=0
note_on channel=0 note=45 velocity=0 time=120
note_on channel=0 note=52 velocity=40 time=0
note_on channel=0 note=52 velocity=0 time=0
note_on channel=0 note=73 velocity=0 time=0
note_on channel=0 note=85 velocity=0 time=0
note_on channel=0 note=84 velocity=59 time=0
note_on channel=0 note=72 velocity=59 time=0
note_on channel=0 note=45 velocity=40 time=0
control_change channel=0 control=64 value=0 time=0
control_change channel=0 control=64 value=127 time=71
note_on channel=0 note=45 velocity=0 time=49
note_on channel=0 note=52 velocity=36 time=0
note_on channel=0 note=52 velocity=0 time=120
note_on channel=0 note=72 velocity=0 time=0
note_on channel=0 note=84 velocity=0 time=0
note_on channel=0 note=85 velocity=60 time=0
note_on channel=0 note=73 velocity=60 time=0
note_on channel=0 note=45 velocity=40 time=0
note_on channel=0 note=45 velocity=0 time=120
note_on channel=0 note=52 velocity=37 time=0
note_on channel=0 note=52 velocity=0 time=120
note_on channel=0 note=73 velocity=0 time=0
note_on channel=0 note=85 velocity=0 time=0
note_on channel=0 note=81 velocity=58 time=0
note_on channel=0 note=69 velocity=58 time=0
note_on channel=0 note=49 velocity=45 time=0
note_on channel=0 note=45 velocity=38 time=0
control_change channel=0 control=64 value=0 time=7
control_change channel=0 control=64 value=127 time=64
note_on channel=0 note=45 velocity=0 time=49
note_on channel=0 note=49 velocity=0 time=0
note_on channel=0 note=52 velocity=37 time=0
note_on channel=0 note=69 velocity=0 time=60
note_on channel=0 note=81 velocity=0 time=0
note_on channel=0 note=52 velocity=0 time=60
note_on channel=0 note=80 velocity=57 time=0
note_on channel=0 note=68 velocity=57 time=0
note_on channel=0 note=52 velocity=46 time=0
note_on channel=0 note=47 velocity=39 time=0
control_change channel=0 control=64 value=0 time=14
control_change channel=0 control=64 value=127 time=64
note_on channel=0 note=47 velocity=0 time=0
note_on channel=0 note=52 velocity=0 time=0
note_on channel=0 note=56 velocity=38 time=0
note_on channel=0 note=68 velocity=0 time=60
note_on channel=0 note=80 velocity=0 time=0
note_on channel=0 note=56 velocity=0 time=0
note_on channel=0 note=80 velocity=71 time=0
note_on channel=0 note=68 velocity=71 time=0
note_on channel=0 note=52 velocity=57 time=0
note_on channel=0 note=49 velocity=49 time=0
control_change channel=0 control=64 value=0 time=7
control_change channel=0 control=64 value=127 time=62
note_on channel=0 note=49 velocity=0 time=51
note_on channel=0 note=52 velocity=0 time=0
note_on channel=0 note=58 velocity=50 time=0
note_on channel=0 note=58 velocity=0 time=120
note_on channel=0 note=68 velocity=0 time=0
note_on channel=0 note=80 velocity=0 time=0
note_on channel=0 note=78 velocity=65 time=0
note_on channel=0 note=66 velocity=65 time=0
note_on channel=0 note=52 velocity=56 time=0
note_on channel=0 note=49 velocity=47 time=0
note_on channel=0 note=49 velocity=0 time=0
note_on channel=0 note=52 velocity=0 time=0
note_on channel=0 note=58 velocity=45 time=0
note_on channel=0 note=58 velocity=0 time=0
note_on channel=0 note=52 velocity=52 time=0
note_on channel=0 note=48 velocity=44 time=0
control_change channel=0 control=64 value=0 time=12
control_change channel=0 control=64 value=127 time=68
note_on channel=0 note=48 velocity=0 time=40
note_on channel=0 note=52 velocity=0 time=0
note_on channel=0 note=57 velocity=40 time=0
note_on channel=0 note=66 velocity=0 time=115
note_on channel=0 note=78 velocity=0 time=0
note_on channel=0 note=57 velocity=0 time=5
note_on channel=0 note=78 velocity=69 time=0
note_on channel=0 note=66 velocity=69 time=0
note_on channel=0 note=52 velocity=51 time=0
note_on channel=0 note=48 velocity=43 time=0
note_on channel=0 note=48 velocity=0 time=0
note_on channel=0 note=52 velocity=0 time=0
note_on channel=0 note=57 velocity=41 time=0
note_on channel=0 note=66 velocity=0 time=108
note_on channel=0 note=78 velocity=0 time=0
note_on channel=0 note=57 velocity=0 time=0
note_on channel=0 note=78 velocity=49 time=0
note_on channel=0 note=66 velocity=49 time=0
note_on channel=0 note=51 velocity=31 time=0
note_on channel=0 note=47 velocity=26 time=0
control_change channel=0 control=64 value=0 time=7
control_change channel=0 control=64 value=127 time=78
note_on channel=0 note=47 velocity=0 time=35
note_on channel=0 note=51 velocity=0 time=0
note_on channel=0 note=57 velocity=27 time=0
note_on channel=0 note=57 velocity=0 time=120
note_on channel=0 note=66 velocity=0 time=0
note_on channel=0 note=78 velocity=0 time=0
note_on channel=0 note=83 velocity=38 time=0
note_on channel=0 note=71 velocity=38 time=0
note_on channel=0 note=51 velocity=31 time=0
note_on channel=0 note=47 velocity=26 time=0
note_on channel=0 note=47 velocity=0 time=120
note_on channel=0 note=51 velocity=0 time=0
note_on channel=0 note=57 velocity=29 time=0
note_on channel=0 note=57 velocity=0 time=0
note_on channel=0 note=71 velocity=0 time=0
note_on channel=0 note=83 velocity=0 time=0
note_on channel=0 note=82 velocity=46 time=0
note_on channel=0 note=70 velocity=46 time=0
note_on channel=0 note=51 velocity=31 time=0
note_on channel=0 note=47 velocity=26 time=0
control_change channel=0 control=64 value=0 time=9
control_change channel=0 control=64 value=127 time=76
note_on channel=0 note=47 velocity=0 time=35
note_on channel=0 note=51 velocity=0 time=0
note_on channel=0 note=57 velocity=27 time=0
note_on channel=0 note=57 velocity=0 time=120
note_on channel=0 note=70 velocity=0 time=0
note_on channel=0 note=82 velocity=0 time=0
note_on channel=0 note=83 velocity=40 time=0
note_on channel=0 note=71 velocity=40 time=0
note_on channel=0 note=51 velocity=31 time=0
note_on channel=0 note=47 velocity=26 time=0
note_on channel=0 note=47 velocity=0 time=0
note_on channel=0 note=51 velocity=0 time=0
note_on channel=0 note=57 velocity=28 time=0
note_on channel=0 note=57 velocity=0 time=0
note_on channel=0 note=71 velocity=0 time=0
note_on channel=0 note=83 velocity=0 time=0
note_on channel=0 note=76 velocity=51 time=0
note_on channel=0 note=64 velocity=51 time=0
note_on channel=0 note=52 velocity=31 time=0
note_on channel=0 note=56 velocity=31 time=0
control_change channel=0 control=64 value=0 time=7
note_on channel=0 note=56 velocity=0 time=113
note_on channel=0 note=52 velocity=0 time=0
note_on channel=0 note=52 velocity=31 time=0
note_on channel=0 note=52 velocity=0 time=120
note_on channel=0 note=51 velocity=31 time=0
note_on channel=0 note=51 velocity=0 time=120
note_on channel=0 note=49 velocity=31 time=0
note_on channel=0 note=49 velocity=0 time=120
note_on channel=0 note=64 velocity=0 time=0
note_on channel=0 note=76 velocity=0 time=0
note_on channel=0 note=47 velocity=31 time=0
note_on channel=0 note=47 velocity=0 time=0
note_on channel=0 note=45 velocity=30 time=0
note_on channel=0 note=45 velocity=0 time=0
note_on channel=0 note=64 velocity=43 time=0
note_on channel=0 note=44 velocity=25 time=0
note_on channel=0 note=44 velocity=0 time=0
note_on channel=0 note=64 velocity=0 time=0
note_on channel=0 note=66 velocity=39 time=0
note_on channel=0 note=42 velocity=25 time=0
note_on channel=0 note=42 velocity=0 time=0
note_on channel=0 note=66 velocity=0 time=0
note_on channel=0 note=64 velocity=34 time=0
note_on channel=0 note=68 velocity=50 time=0
note_on channel=0 note=40 velocity=25 time=0
control_change channel=0 control=64 value=127 time=78
note_on channel=0 note=64 velocity=0 time=42
note_on channel=0 note=59 velocity=26 time=0
note_on channel=0 note=59 velocity=0 time=120
note_on channel=0 note=40 velocity=0 time=0
note_on channel=0 note=64 velocity=31 time=0
note_on channel=0 note=64 velocity=0 time=120
note_on channel=0 note=59 velocity=26 time=0
note_on channel=0 note=59 velocity=0 time=0
note_on channel=0 note=68 velocity=0 time=0
note_on channel=0 note=68 velocity=30 time=0
note_on channel=0 note=71 velocity=46 time=0
control_change channel=0 control=64 value=0 time=16
control_change channel=0 control=64 value=127 time=83
note_on channel=0 note=68 velocity=0 time=21
note_on channel=0 note=59 velocity=27 time=0
note_on channel=0 note=59 velocity=0 time=0
note_on channel=0 note=71 velocity=0 time=0
note_on channel=0 note=66 velocity=28 time=0
note_on channel=0 note=69 velocity=43 time=0
control_change channel=0 control=64 value=0 time=13
control_change channel=0 control=64 value=127 time=51
note_on channel=0 note=66 velocity=0 time=0
note_on channel=0 note=59 velocity=27 time=0
note_on channel=0 note=59 velocity=0 time=0
note_on channel=0 note=69 velocity=0 time=0
note_on channel=0 note=64 velocity=34 time=0
note_on channel=0 note=68 velocity=50 time=0
note_on channel=0 note=35 velocity=25 time=0
control_change channel=0 control=64 value=0 time=0
control_change channel=0 control=64 value=127 time=64
note_on channel=0 note=64 velocity=0 time=56
note_on channel=0 note=59 velocity=26 time=0
note_on channel=0 note=59 velocity=0 time=0
note_on channel=0 note=35 velocity=0 time=0
note_on channel=0 note=68 velocity=0 time=0
note_on channel=0 note=63 velocity=27 time=0
note_on channel=0 note=66 velocity=41 time=0
control_change channel=0 control=64 value=0 time=14
control_change channel=0 control=64 value=127 time=43
note_on channel=0 note=63 velocity=0 time=63
note_on channel=0 note=59 velocity=25 time=0
note_on channel=0 note=59 velocity=0 time=90
note_on channel=0 note=66 velocity=0 time=0
control_change channel=0 control=64 value=0 time=0
note_on channel=0 note=63 velocity=27 time=30
note_on channel=0 note=66 velocity=41 time=0
control_change channel=0 control=64 value=127 time=64
note_on channel=0 note=63 velocity=0 time=56
note_on channel=0 note=59 velocity=26 time=0
note_on channel=0 note=59 velocity=0 time=0
note_on channel=0 note=66 velocity=0 time=0
note_on channel=0 note=64 velocity=28 time=0
note_on channel=0 note=68 velocity=43 time=0
control_change channel=0 control=64 value=0 time=18
control_change channel=0 control=64 value=127 time=67
note_on channel=0 note=64 velocity=0 time=35
note_on channel=0 note=59 velocity=28 time=0
note_on channel=0 note=59 velocity=0 time=0
note_on channel=0 note=68 velocity=0 time=0
note_on channel=0 note=64 velocity=30 time=0
note_on channel=0 note=69 velocity=46 time=0
note_on channel=0 note=37 velocity=25 time=0
control_change channel=0 control=64 value=0 time=10
control_change channel=0 control=64 value=127 time=75
note_on channel=0 note=64 velocity=0 time=35
note_on channel=0 note=59 velocity=28 time=0
note_on channel=0 note=59 velocity=0 time=120
note_on channel=0 note=37 velocity=0 time=0
note_on channel=0 note=69 velocity=0 time=0
note_on channel=0 note=64 velocity=36 time=0
note_on channel=0 note=73 velocity=54 time=0
note_on channel=0 note=64 velocity=0 time=120
note_on channel=0 note=59 velocity=31 time=0
note_on channel=0 note=59 velocity=0 time=120
note_on channel=0 note=73 velocity=0 time=0
note_on channel=0 note=66 velocity=37 time=0
note_on channel=0 note=71 velocity=47 time=0
note_on channel=0 note=39 velocity=23 time=0
control_change channel=0 control=64 value=0 time=16
control_change channel=0 control=64 value=127 time=62
note_on channel=0 note=66 velocity=0 time=42
note_on channel=0 note=59 velocity=26 time=0
note_on channel=0 note=59 velocity=0 time=0
note_on channel=0 note=39 velocity=0 time=0
note_on channel=0 note=71 velocity=0 time=0
note_on channel=0 note=63 velocity=25 time=0
note_on channel=0 note=66 velocity=38 time=0
note_on channel=0 note=35 velocity=22 time=0
note_on channel=0 note=63 velocity=0 time=0
note_on channel=0 note=59 velocity=27 time=0
note_on channel=0 note=59 velocity=0 time=0
note_on channel=0 note=35 velocity=0 time=0
note_on channel=0 note=66 velocity=0 time=0
note_on channel=0 note=59 velocity=35 time=0
note_on channel=0 note=64 velocity=35 time=0
note_on channel=0 note=68 velocity=42 time=0
note_on channel=0 note=40 velocity=28 time=0
control_change channel=0 control=64 value=0 time=8
control_change channel=0 control=64 value=127 time=31
note_on channel=0 note=40 velocity=0 time=0
note_on channel=0 note=59 velocity=0 time=0
note_on channel=0 note=64 velocity=0 time=0
note_on channel=0 note=68 velocity=0 time=0
note_on channel=0 note=64 velocity=28 time=0
control_change channel=0 control=64 value=0 time=7
control_change channel=0 control=64 value=127 time=46
note_on channel=0 note=64 velocity=0 time=67
note_on channel=0 note=59 velocity=22 time=0
note_on channel=0 note=78 velocity=42 time=90
note_on channel=0 note=78 velocity=0 time=0
note_on channel=0 note=59 velocity=0 time=0
note_on channel=0 note=76 velocity=47 time=0
note_on channel=0 note=64 velocity=28 time=0
control_change channel=0 control=64 value=0 time=18
note_on channel=0 note=64 velocity=0 time=102
note_on channel=0 note=76 velocity=0 time=0
note_on channel=0 note=75 velocity=42 time=0
note_on channel=0 note=59 velocity=24 time=0
note_on channel=0 note=59 velocity=0 time=120
note_on channel=0 note=75 velocity=0 time=0
note_on channel=0 note=76 velocity=48 time=0
note_on channel=0 note=64 velocity=28 time=0
note_on channel=0 note=64 velocity=0 time=120
note_on channel=0 note=76 velocity=0 time=0
note_on channel=0 note=78 velocity=47 time=0
note_on channel=0 note=59 velocity=25 time=0
note_on channel=0 note=78 velocity=0 time=90
note_on channel=0 note=81 velocity=50 time=0
note_on channel=0 note=81 velocity=0 time=30
note_on channel=0 note=59 velocity=0 time=0
note_on channel=0 note=80 velocity=52 time=0
note_on channel=0 note=64 velocity=30 time=0
note_on channel=0 note=64 velocity=0 time=120
note_on channel=0 note=80 velocity=0 time=0
note_on channel=0 note=78 velocity=47 time=0
note_on channel=0 note=59 velocity=29 time=0
note_on channel=0 note=59 velocity=0 time=0
note_on channel=0 note=78 velocity=0 time=0
note_on channel=0 note=80 velocity=42 time=0
note_on channel=0 note=64 velocity=32 time=0
note_on channel=0 note=64 velocity=0 time=0
note_on channel=0 note=80 velocity=0 time=0
note_on channel=0 note=81 velocity=47 time=0
note_on channel=0 note=59 velocity=31 time=0
note_on channel=0 note=59 velocity=0 time=0
note_on channel=0 note=81 velocity=0 time=0
note_on channel=0 note=71 velocity=45 time=0
note_on channel=0 note=83 velocity=53 time=0
note_on channel=0 note=68 velocity=35 time=0
control_change channel=0 control=64 value=127 time=99
note_on channel=0 note=68 velocity=0 time=21
note_on channel=0 note=59 velocity=32 time=0
note_on channel=0 note=59 velocity=0 time=120
note_on channel=0 note=83 velocity=0 time=0
note_on channel=0 note=71 velocity=0 time=0
note_on channel=0 note=81 velocity=53 time=0
note_on channel=0 note=69 velocity=45 time=0
note_on channel=0 note=66 velocity=39 time=0
control_change channel=0 control=64 value=0 time=7
control_change channel=0 control=64 value=127 time=71
note_on channel=0 note=66 velocity=0 time=0
note_on channel=0 note=59 velocity=36 time=0
note_on channel=0 note=59 velocity=0 time=0
note_on channel=0 note=69 velocity=0 time=0
note_on channel=0 note=81 velocity=0 time=0
note_on channel=0 note=80 velocity=58 time=0
note_on channel=0 note=68 velocity=49 time=0
note_on channel=0 note=64 velocity=45 time=0
control_change channel=0 control=64 value=0 time=7
control_change channel=0 control=64 value=127 time=45
note_on channel=0 note=64 velocity=0 time=68
note_on channel=0 note=59 velocity=37 time=0
note_on channel=0 note=59 velocity=0 time=120
note_on channel=0 note=68 velocity=0 time=0
note_on channel=0 note=80 velocity=0 time=0
note_on channel=0 note=66 velocity=46 time=0
note_on channel=0 note=78 velocity=55 time=0
note_on channel=0 note=63 velocity=43 time=0
control_change channel=0 control=64 value=0 time=15
control_change channel=0 control=64 value=127 time=48
note_on channel=0 note=63 velocity=0 time=0
note_on channel=0 note=59 velocity=37 time=0
control_change channel=0 control=64 value=0 time=92
note_on channel=0 note=78 velocity=0 time=16
note_on channel=0 note=66 velocity=0 time=0
note_on channel=0 note=59 velocity=0 time=0
note_on channel=0 note=66 velocity=58 time=0
note_on channel=0 note=78 velocity=70 time=0
note_on channel=0 note=63 velocity=46 time=0
control_change channel=0 control=64 value=127 time=75
note_on channel=0 note=63 velocity=0 time=45
note_on channel=0 note=59 velocity=39 time=0
note_on channel=0 note=59 velocity=0 time=120
note_on channel=0 note=78 velocity=0 time=0
note_on channel=0 note=66 velocity=0 time=0
note_on channel=0 note=80 velocity=64 time=0
note_on channel=0 note=68 velocity=54 time=0
note_on channel=0 note=65 velocity=49 time=0
control_change channel=0 control=64 value=0 time=8
control_change channel=0 control=64 value=127 time=55
note_on channel=0 note=65 velocity=0 time=57
note_on channel=0 note=59 velocity=44 time=0
note_on channel=0 note=59 velocity=0 time=120
note_on channel=0 note=68 velocity=0 time=0
note_on channel=0 note=80 velocity=0 time=0
note_on channel=0 note=69 velocity=65 time=0
note_on channel=0 note=81 velocity=77 time=0
note_on channel=0 note=66 velocity=58 time=0
control_change channel=0 control=64 value=0 time=6
control_change channel=0 control=64 value=127 time=26
note_on channel=0 note=66 velocity=0 time=88
note_on channel=0 note=59 velocity=48 time=0
note_on channel=0 note=59 velocity=0 time=120
note_on channel=0 note=81 velocity=0 time=0
note_on channel=0 note=69 velocity=0 time=0
note_on channel=0 note=85 velocity=68 time=0
note_on channel=0 note=73 velocity=57 time=0
note_on channel=0 note=69 velocity=53 time=0
control_change channel=0 control=64 value=0 time=7
control_change channel=0 control=64 value=127 time=39
note_on channel=0 note=69 velocity=0 time=0
note_on channel=0 note=59 velocity=47 time=0
note_on channel=0 note=59 velocity=0 time=0
note_on channel=0 note=73 velocity=0 time=0
note_on channel=0 note=85 velocity=0 time=0
note_on channel=0 note=83 velocity=80 time=0
note_on channel=0 note=71 velocity=67 time=0
note_on channel=0 note=68 velocity=57 time=0
control_change channel=0 control=64 value=0 time=14
control_change channel=0 control=64 value=127 time=32
note_on channel=0 note=68 velocity=0 time=74
note_on channel=0 note=59 velocity=44 time=0
note_on channel=0 note=59 velocity=0 time=0
note_on channel=0 note=71 velocity=0 time=0
note_on channel=0 note=83 velocity=0 time=0
note_on channel=0 note=75 velocity=70 time=0
note_on channel=0 note=81 velocity=70 time=0
note_on channel=0 note=87 velocity=83 time=0
note_on channel=0 note=66 velocity=54 time=0
control_change channel=0 control=64 value=0 time=11
control_change channel=0 control=64 value=127 time=39
note_on channel=0 note=66 velocity=0 time=70
note_on channel=0 note=59 velocity=46 time=0
note_on channel=0 note=75 velocity=0 time=60
note_on channel=0 note=87 velocity=0 time=0
note_on channel=0 note=81 velocity=0 time=0
control_change channel=0 control=64 value=0 time=18
note_on channel=0 note=59 velocity=0 time=42
note_on channel=0 note=76 velocity=76 time=0
note_on channel=0 note=80 velocity=76 time=0
note_on channel=0 note=88 velocity=91 time=0
note_on channel=0 note=64 velocity=59 time=0
control_change channel=0 control=64 value=127 time=78
note_on channel=0 note=64 velocity=0 time=0
note_on channel=0 note=59 velocity=49 time=0
note_on channel=0 note=59 velocity=0 time=120
note_on channel=0 note=56 velocity=58 time=0
note_on channel=0 note=56 velocity=0 time=120
note_on channel=0 note=59 velocity=50 time=0
note_on channel=0 note=59 velocity=0 time=120
note_on channel=0 note=88 velocity=0 time=0
note_on channel=0 note=80 velocity=0 time=0
note_on channel=0 note=76 velocity=0 time=0
note_on channel=0 note=52 velocity=45 time=0
control_change channel=0 control=64 value=0 time=28
control_change channel=0 control=64 value=127 time=71
note_on channel=0 note=52 velocity=0 time=21
note_on channel=0 note=59 velocity=31 time=0
note_on channel=0 note=59 velocity=0 time=120
note_on channel=0 note=68 velocity=41 time=0
note_on channel=0 note=64 velocity=34 time=0
note_on channel=0 note=47 velocity=31 time=0
note_on channel=0 note=47 velocity=0 time=120
note_on channel=0 note=59 velocity=31 time=0
note_on channel=0 note=59 velocity=0 time=0
note_on channel=0 note=64 velocity=0 time=0
note_on channel=0 note=68 velocity=0 time=0
note_on channel=0 note=69 velocity=46 time=0
note_on channel=0 note=63 velocity=39 time=0
note_on channel=0 note=54 velocity=40 time=0
control_change channel=0 control=64 value=0 time=10
control_change channel=0 control=64 value=127 time=54
note_on channel=0 note=54 velocity=0 time=56
note_on channel=0 note=59 velocity=33 time=0
note_on channel=0 note=59 velocity=0 time=120
note_on channel=0 note=69 velocity=0 time=0
note_on channel=0 note=73 velocity=39 time=0
note_on channel=0 note=57 velocity=33 time=0
note_on channel=0 note=57 velocity=0 time=120
note_on channel=0 note=59 velocity=33 time=0
note_on channel=0 note=59 velocity=0 time=120
note_on channel=0 note=73 velocity=0 time=0
note_on channel=0 note=63 velocity=0 time=0
note_on channel=0 note=71 velocity=45 time=0
note_on channel=0 note=64 velocity=38 time=0
note_on channel=0 note=56 velocity=37 time=0
control_change channel=0 control=64 value=0 time=11
control_change channel=0 control=64 value=127 time=49
note_on channel=0 note=56 velocity=0 time=60
note_on channel=0 note=59 velocity=33 time=0
note_on channel=0 note=59 velocity=0 time=120
note_on channel=0 note=64 velocity=0 time=0
note_on channel=0 note=71 velocity=0 time=0
note_on channel=0 note=75 velocity=48 time=0
note_on channel=0 note=69 velocity=40 time=0
note_on channel=0 note=54 velocity=33 time=0
control_change channel=0 control=64 value=0 time=18
control_change channel=0 control=64 value=127 time=39
note_on channel=0 note=54 velocity=0 time=0
note_on channel=0 note=59 velocity=33 time=0
note_on channel=0 note=69 velocity=0 time=60
note_on channel=0 note=75 velocity=0 time=0
note_on channel=0 note=59 velocity=0 time=0
note_on channel=0 note=76 velocity=45 time=0
note_on channel=0 note=68 velocity=38 time=0
note_on channel=0 note=52 velocity=40 time=0
control_change channel=0 control=64 value=0 time=5
control_change channel=0 control=64 value=127 time=66
note_on channel=0 note=52 velocity=0 time=0
note_on channel=0 note=59 velocity=35 time=0
note_on channel=0 note=59 velocity=0 time=120
note_on channel=0 note=68 velocity=0 time=0
note_on channel=0 note=76 velocity=0 time=0
note_on channel=0 note=67 velocity=34 time=0
note_on channel=0 note=64 velocity=28 time=0
control_change channel=0 control=64 value=0 time=9
control_change channel=0 control=64 value=127 time=76
note_on channel=0 note=64 velocity=0 time=35
note_on channel=0 note=59 velocity=28 time=0
note_on channel=0 note=59 velocity=0 time=57
note_on channel=0 note=64 velocity=31 time=0
note_on channel=0 note=64 velocity=0 time=57
note_on channel=0 note=59 velocity=28 time=0
note_on channel=0 note=59 velocity=0 time=57
note_on channel=0 note=67 velocity=0 time=0
note_on channel=0 note=79 velocity=57 time=0
note_on channel=0 note=64 velocity=40 time=0
note_on channel=0 note=64 velocity=0 time=0
note_on channel=0 note=59 velocity=49 time=0
note_on channel=0 note=59 velocity=0 time=0
note_on channel=0 note=79 velocity=0 time=0
note_on channel=0 note=81 velocity=67 time=0
note_on channel=0 note=66 velocity=47 time=0
control_change channel=0 control=64 value=0 time=9
control_change channel=0 control=64 value=127 time=30
note_on channel=0 note=66 velocity=0 time=27
note_on channel=0 note=59 velocity=48 time=0
note_on channel=0 note=59 velocity=0 time=120
note_on channel=0 note=81 velocity=0 time=0
note_on channel=0 note=84 velocity=65 time=0
note_on channel=0 note=69 velocity=45 time=0
note_on channel=0 note=69 velocity=0 time=120
note_on channel=0 note=59 velocity=49 time=0
note_on channel=0 note=59 velocity=0 time=0
note_on channel=0 note=84 velocity=0 time=0
note_on channel=0 note=83 velocity=76 time=0
note_on channel=0 note=67 velocity=55 time=0
control_change channel=0 control=64 value=0 time=19
control_change channel=0 control=64 value=127 time=20
note_on channel=0 note=67 velocity=0 time=81
note_on channel=0 note=59 velocity=52 time=0
note_on channel=0 note=59 velocity=0 time=0
note_on channel=0 note=83 velocity=0 time=0
note_on channel=0 note=87 velocity=93 time=0
note_on channel=0 note=81 velocity=79 time=0
note_on channel=0 note=75 velocity=79 time=0
note_on channel=0 note=66 velocity=71 time=0
control_change channel=0 control=64 value=0 time=12
control_change channel=0 control=64 value=127 time=34
note_on channel=0 note=66 velocity=0 time=0
note_on channel=0 note=59 velocity=65 time=0
note_on channel=0 note=87 velocity=0 time=60
note_on channel=0 note=75 velocity=0 time=0
note_on channel=0 note=81 velocity=0 time=0
note_on channel=0 note=59 velocity=0 time=0
note_on channel=0 note=76 velocity=85 time=0
note_on channel=0 note=79 velocity=85 time=0
note_on channel=0 note=88 velocity=101 time=0
note_on channel=0 note=64 velocity=80 time=0
control_change channel=0 control=64 value=0 time=11
control_change channel=0 control=64 value=127 time=63
note_on channel=0 note=64 velocity=0 time=46
note_on channel=0 note=59 velocity=65 time=0
note_on channel=0 note=59 velocity=0 time=0
note_on channel=0 note=55 velocity=68 time=0
note_on channel=0 note=55 velocity=0 time=120
note_on channel=0 note=59 velocity=57 time=0
note_on channel=0 note=59 velocity=0 time=120
note_on channel=0 note=88 velocity=0 time=0
note_on channel=0 note=79 velocity=0 time=0
note_on channel=0 note=76 velocity=0 time=0
note_on channel=0 note=52 velocity=44 time=0
note_on channel=0 note=52 velocity=0 time=120
note_on channel=0 note=59 velocity=44 time=0
note_on channel=0 note=59 velocity=0 time=120
note_on channel=0 note=67 velocity=47 time=0
note_on channel=0 note=47 velocity=38 time=0
control_change channel=0 control=64 value=0 time=7
control_change channel=0 control=64 value=127 time=50
note_on channel=0 note=47 velocity=0 time=0
note_on channel=0 note=59 velocity=38 time=0
note_on channel=0 note=59 velocity=0 time=27
note_on channel=0 note=67 velocity=0 time=0
note_on channel=0 note=69 velocity=53 time=0
note_on channel=0 note=54 velocity=35 time=0
control_change channel=0 control=64 value=0 time=8
control_change channel=0 control=64 value=127 time=49
note_on channel=0 note=54 velocity=0 time=63
note_on channel=0 note=59 velocity=36 time=0
note_on channel=0 note=59 velocity=0 time=120
note_on channel=0 note=69 velocity=0 time=0
note_on channel=0 note=72 velocity=48 time=0
note_on channel=0 note=57 velocity=36 time=0
control_change channel=0 control=64 value=0 time=6
note_on channel=0 note=57 velocity=0 time=114
note_on channel=0 note=59 velocity=37 time=0
note_on channel=0 note=59 velocity=0 time=27
note_on channel=0 note=72 velocity=0 time=0
note_on channel=0 note=71 velocity=49 time=0
note_on channel=0 note=55 velocity=39 time=0
control_change channel=0 control=64 value=127 time=52
note_on channel=0 note=55 velocity=0 time=68
note_on channel=0 note=59 velocity=39 time=0
note_on channel=0 note=59 velocity=0 time=120
note_on channel=0 note=71 velocity=0 time=0
note_on channel=0 note=69 velocity=41 time=0
note_on channel=0 note=75 velocity=49 time=0
note_on channel=0 note=54 velocity=40 time=0
control_change channel=0 control=64 value=0 time=8
control_change channel=0 control=64 value=127 time=49
note_on channel=0 note=54 velocity=0 time=63
note_on channel=0 note=75 velocity=0 time=0
note_on channel=0 note=69 velocity=0 time=0
note_on channel=0 note=59 velocity=42 time=0
note_on channel=0 note=59 velocity=0 time=0
note_on channel=0 note=76 velocity=57 time=0
note_on channel=0 note=67 velocity=47 time=0
note_on channel=0 note=52 velocity=43 time=0
control_change channel=0 control=64 value=0 time=8
control_change channel=0 control=64 value=127 time=63
note_on channel=0 note=52 velocity=0 time=49
note_on channel=0 note=67 velocity=0 time=0
note_on channel=0 note=76 velocity=0 time=0
note_on channel=0 note=64 velocity=41 time=0
note_on channel=0 note=64 velocity=0 time=120
note_on channel=0 note=76 velocity=67 time=0
note_on channel=0 note=79 velocity=67 time=0
note_on channel=0 note=50 velocity=44 time=0
control_change channel=0 control=64 value=0 time=9
control_change channel=0 control=64 value=127 time=76
note_on channel=0 note=50 velocity=0 time=35
note_on channel=0 note=79 velocity=0 time=0
note_on channel=0 note=76 velocity=0 time=0
note_on channel=0 note=62 velocity=42 time=0
note_on channel=0 note=62 velocity=0 time=120
note_on channel=0 note=84 velocity=73 time=0
note_on channel=0 note=76 velocity=73 time=0
note_on channel=0 note=48 velocity=49 time=0
control_change channel=0 control=64 value=0 time=13
control_change channel=0 control=64 value=127 time=51
note_on channel=0 note=48 velocity=0 time=56
note_on channel=0 note=76 velocity=0 time=0
note_on channel=0 note=84 velocity=0 time=0
note_on channel=0 note=60 velocity=45 time=0
note_on channel=0 note=60 velocity=0 time=120
note_on channel=0 note=76 velocity=73 time=0
note_on channel=0 note=84 velocity=73 time=0
note_on channel=0 note=47 velocity=51 time=0
control_change channel=0 control=64 value=0 time=14
control_change channel=0 control=64 value=127 time=50
note_on channel=0 note=47 velocity=0 time=56
note_on channel=0 note=84 velocity=0 time=0
note_on channel=0 note=76 velocity=0 time=0
note_on channel=0 note=59 velocity=47 time=0
note_on channel=0 note=59 velocity=0 time=120
note_on channel=0 note=76 velocity=84 time=0
note_on channel=0 note=84 velocity=84 time=0
note_on channel=0 note=45 velocity=52 time=0
control_change channel=0 control=64 value=0 time=17
control_change channel=0 control=64 value=127 time=52
note_on channel=0 note=45 velocity=0 time=51
note_on channel=0 note=84 velocity=0 time=0
note_on channel=0 note=76 velocity=0 time=0
note_on channel=0 note=57 velocity=51 time=0
note_on channel=0 note=57 velocity=0 time=0
note_on channel=0 note=84 velocity=83 time=0
note_on channel=0 note=81 velocity=83 time=0
note_on channel=0 note=43 velocity=57 time=0
control_change channel=0 control=64 value=0 time=10
control_change channel=0 control=64 value=127 time=65
note_on channel=0 note=43 velocity=0 time=45
note_on channel=0 note=81 velocity=0 time=0
note_on channel=0 note=84 velocity=0 time=0
note_on channel=0 note=55 velocity=53 time=0
note_on channel=0 note=55 velocity=0 time=0
note_on channel=0 note=89 velocity=87 time=0
note_on channel=0 note=86 velocity=87 time=0
note_on channel=0 note=41 velocity=57 time=0
control_change channel=0 control=64 value=0 time=12
control_change channel=0 control=64 value=127 time=57
note_on channel=0 note=41 velocity=0 time=51
note_on channel=0 note=86 velocity=0 time=0
note_on channel=0 note=89 velocity=0 time=0
note_on channel=0 note=53 velocity=55 time=0
note_on channel=0 note=53 velocity=0 time=120
note_on channel=0 note=89 velocity=85 time=0
note_on channel=0 note=86 velocity=85 time=0
note_on channel=0 note=40 velocity=63 time=0
control_change channel=0 control=64 value=0 time=17
control_change channel=0 control=64 value=127 time=46
note_on channel=0 note=40 velocity=0 time=57
note_on channel=0 note=86 velocity=0 time=0
note_on channel=0 note=89 velocity=0 time=0
note_on channel=0 note=52 velocity=59 time=0
note_on channel=0 note=52 velocity=0 time=0
note_on channel=0 note=89 velocity=90 time=0
note_on channel=0 note=86 velocity=90 time=0
note_on channel=0 note=38 velocity=69 time=0
control_change channel=0 control=64 value=0 time=6
control_change channel=0 control=64 value=127 time=58
note_on channel=0 note=38 velocity=0 time=56
note_on channel=0 note=86 velocity=0 time=0
note_on channel=0 note=89 velocity=0 time=0
note_on channel=0 note=50 velocity=67 time=0
note_on channel=0 note=50 velocity=0 time=120
note_on channel=0 note=86 velocity=86 time=0
note_on channel=0 note=89 velocity=86 time=0
note_on channel=0 note=36 velocity=74 time=0
control_change channel=0 control=64 value=0 time=10
control_change channel=0 control=64 value=127 time=75
note_on channel=0 note=36 velocity=0 time=35
note_on channel=0 note=89 velocity=0 time=0
note_on channel=0 note=86 velocity=0 time=0
note_on channel=0 note=48 velocity=77 time=0
note_on channel=0 note=48 velocity=0 time=120
note_on channel=0 note=86 velocity=88 time=0
note_on channel=0 note=89 velocity=88 time=0
note_on channel=0 note=35 velocity=81 time=0
control_change channel=0 control=64 value=0 time=16
control_change channel=0 control=64 value=127 time=76
note_on channel=0 note=35 velocity=0 time=28
note_on channel=0 note=89 velocity=0 time=0
note_on channel=0 note=86 velocity=0 time=0
note_on channel=0 note=47 velocity=76 time=0
note_on channel=0 note=47 velocity=0 time=120
note_on channel=0 note=86 velocity=94 time=0
note_on channel=0 note=89 velocity=94 time=0
note_on channel=0 note=33 velocity=83 time=0
control_change channel=0 control=64 value=0 time=16
control_change channel=0 control=64 value=127 time=48
note_on channel=0 note=33 velocity=0 time=0
note_on channel=0 note=89 velocity=0 time=0
note_on channel=0 note=86 velocity=0 time=0
note_on channel=0 note=45 velocity=80 time=0
note_on channel=0 note=45 velocity=0 time=0
note_on channel=0 note=89 velocity=102 time=0
note_on channel=0 note=86 velocity=102 time=0
note_on channel=0 note=31 velocity=86 time=0
control_change channel=0 control=64 value=0 time=0
control_change channel=0 control=64 value=127 time=80
note_on channel=0 note=31 velocity=0 time=40
note_on channel=0 note=43 velocity=80 time=0
note_on channel=0 note=43 velocity=0 time=120
note_on channel=0 note=35 velocity=86 time=0
note_on channel=0 note=35 velocity=0 time=120
note_on channel=0 note=47 velocity=80 time=0
note_on channel=0 note=47 velocity=0 time=120
note_on channel=0 note=38 velocity=86 time=0
note_on channel=0 note=38 velocity=0 time=120
note_on channel=0 note=50 velocity=81 time=0
note_on channel=0 note=50 velocity=0 time=120
note_on channel=0 note=42 velocity=87 time=0
note_on channel=0 note=42 velocity=0 time=27
note_on channel=0 note=54 velocity=81 time=0
note_on channel=0 note=54 velocity=0 time=120
note_on channel=0 note=43 velocity=86 time=0
control_change channel=0 control=64 value=0 time=0
control_change channel=0 control=64 value=127 time=37
note_on channel=0 note=43 velocity=0 time=57
note_on channel=0 note=55 velocity=76 time=0
note_on channel=0 note=55 velocity=0 time=87
note_on channel=0 note=47 velocity=81 time=0
note_on channel=0 note=47 velocity=0 time=27
note_on channel=0 note=59 velocity=73 time=0
note_on channel=0 note=59 velocity=0 time=87
note_on channel=0 note=50 velocity=77 time=0
note_on channel=0 note=50 velocity=0 time=87
note_on channel=0 note=62 velocity=76 time=0
note_on channel=0 note=62 velocity=0 time=120
note_on channel=0 note=54 velocity=73 time=0
note_on channel=0 note=54 velocity=0 time=120
note_on channel=0 note=66 velocity=73 time=0
note_on channel=0 note=66 velocity=0 time=120
note_on channel=0 note=55 velocity=81 time=0
control_change channel=0 control=64 value=0 time=0
control_change channel=0 control=64 value=127 time=38
note_on channel=0 note=55 velocity=0 time=49
note_on channel=0 note=67 velocity=53 time=0
note_on channel=0 note=67 velocity=0 time=87
note_on channel=0 note=86 velocity=0 time=0
note_on channel=0 note=89 velocity=0 time=0
note_on channel=0 note=86 velocity=62 time=0
note_on channel=0 note=89 velocity=62 time=0
note_on channel=0 note=57 velocity=50 time=0
control_change channel=0 control=64 value=0 time=14
control_change channel=0 control=64 value=127 time=47
note_on channel=0 note=57 velocity=0 time=56
note_on channel=0 note=69 velocity=49 time=0
note_on channel=0 note=69 velocity=0 time=27
note_on channel=0 note=59 velocity=49 time=0
control_change channel=0 control=64 value=0 time=12
control_change channel=0 control=64 value=127 time=52
note_on channel=0 note=59 velocity=0 time=56
note_on channel=0 note=71 velocity=48 time=0
note_on channel=0 note=71 velocity=0 time=120
note_on channel=0 note=89 velocity=0 time=0
note_on channel=0 note=86 velocity=0 time=0
note_on channel=0 note=88 velocity=54 time=0
note_on channel=0 note=84 velocity=54 time=0
note_on channel=0 note=60 velocity=46 time=0
control_change channel=0 control=64 value=0 time=8
control_change channel=0 control=64 value=127 time=56
note_on channel=0 note=60 velocity=0 time=56
note_on channel=0 note=84 velocity=0 time=0
note_on channel=0 note=88 velocity=0 time=0
note_on channel=0 note=72 velocity=42 time=0
note_on channel=0 note=72 velocity=0 time=120
note_on channel=0 note=86 velocity=46 time=0
note_on channel=0 note=65 velocity=42 time=0
control_change channel=0 control=64 value=0 time=4
control_change channel=0 control=64 value=127 time=45
note_on channel=0 note=65 velocity=0 time=68
note_on channel=0 note=86 velocity=0 time=0
note_on channel=0 note=72 velocity=35 time=0
note_on channel=0 note=72 velocity=0 time=120
note_on channel=0 note=74 velocity=41 time=0
note_on channel=0 note=81 velocity=49 time=0
note_on channel=0 note=66 velocity=39 time=0
control_change channel=0 control=64 value=0 time=12
control_change channel=0 control=64 value=127 time=57
note_on channel=0 note=66 velocity=0 time=51
note_on channel=0 note=81 velocity=0 time=0
note_on channel=0 note=74 velocity=0 time=0
note_on channel=0 note=72 velocity=34 time=0
note_on channel=0 note=72 velocity=0 time=27
note_on channel=0 note=79 velocity=43 time=0
note_on channel=0 note=76 velocity=36 time=0
note_on channel=0 note=67 velocity=39 time=0
control_change channel=0 control=64 value=0 time=12
control_change channel=0 control=64 value=127 time=30
note_on channel=0 note=67 velocity=0 time=27
note_on channel=0 note=72 velocity=35 time=0
note_on channel=0 note=72 velocity=0 time=27
note_on channel=0 note=76 velocity=0 time=0
note_on channel=0 note=79 velocity=0 time=0
note_on channel=0 note=79 velocity=43 time=0
note_on channel=0 note=74 velocity=36 time=0
note_on channel=0 note=71 velocity=36 time=0
note_on channel=0 note=55 velocity=40 time=0
control_change channel=0 control=64 value=0 time=17
control_change channel=0 control=64 value=127 time=30
note_on channel=0 note=55 velocity=0 time=27
note_on channel=0 note=79 velocity=0 time=0
note_on channel=0 note=74 velocity=0 time=0
note_on channel=0 note=71 velocity=0 time=0
note_on channel=0 note=67 velocity=40 time=0
note_on channel=0 note=67 velocity=0 time=0
note_on channel=0 note=76 velocity=43 time=0
note_on channel=0 note=72 velocity=43 time=0
note_on channel=0 note=67 velocity=36 time=0
note_on channel=0 note=48 velocity=32 time=0
control_change channel=0 control=64 value=0 time=9
control_change channel=0 control=64 value=127 time=76
note_on channel=0 note=48 velocity=0 time=75
note_on channel=0 note=55 velocity=27 time=0
note_on channel=0 note=55 velocity=0 time=160
note_on channel=0 note=52 velocity=27 time=0
note_on channel=0 note=52 velocity=0 time=160
note_on channel=0 note=48 velocity=32 time=0
note_on channel=0 note=48 velocity=0 time=160
note_on channel=0 note=60 velocity=27 time=0
note_on channel=0 note=60 velocity=0 time=0
note_on channel=0 note=55 velocity=27 time=0
note_on channel=0 note=55 velocity=0 time=0
note_on channel=0 note=67 velocity=0 time=0
note_on channel=0 note=72 velocity=0 time=0
note_on channel=0 note=76 velocity=0 time=0
note_on channel=0 note=65 velocity=28 time=0
note_on channel=0 note=74 velocity=34 time=0
note_on channel=0 note=77 velocity=34 time=0
note_on channel=0 note=50 velocity=32 time=0
control_change channel=0 control=64 value=0 time=7
control_change channel=0 control=64 value=127 time=19
note_on channel=0 note=50 velocity=0 time=7
note_on channel=0 note=59 velocity=27 time=0
note_on channel=0 note=59 velocity=0 time=47
note_on channel=0 note=55 velocity=27 time=0
note_on channel=0 note=55 velocity=0 time=27
note_on channel=0 note=65 velocity=0 time=0
note_on channel=0 note=74 velocity=0 time=0
note_on channel=0 note=77 velocity=0 time=0
note_on channel=0 note=67 velocity=25 time=0
note_on channel=0 note=72 velocity=30 time=0
note_on channel=0 note=76 velocity=30 time=0
note_on channel=0 note=52 velocity=33 time=0
control_change channel=0 control=64 value=0 time=12
control_change channel=0 control=64 value=127 time=57
note_on channel=0 note=52 velocity=0 time=7
note_on channel=0 note=60 velocity=27 time=0
note_on channel=0 note=60 velocity=0 time=0
note_on channel=0 note=55 velocity=29 time=0
note_on channel=0 note=55 velocity=0 time=0
note_on channel=0 note=67 velocity=0 time=0
note_on channel=0 note=72 velocity=0 time=0
note_on channel=0 note=76 velocity=0 time=0
note_on channel=0 note=69 velocity=39 time=0
note_on channel=0 note=74 velocity=39 time=0
note_on channel=0 note=53 velocity=32 time=0
control_change channel=0 control=64 value=0 time=6
control_change channel=0 control=64 value=127 time=71
note_on channel=0 note=53 velocity=0 time=80
note_on channel=0 note=62 velocity=29 time=0
note_on channel=0 note=62 velocity=0 time=0
note_on channel=0 note=57 velocity=29 time=0
note_on channel=0 note=57 velocity=0 time=0
note_on channel=0 note=74 velocity=0 time=0
note_on channel=0 note=69 velocity=0 time=0
note_on channel=0 note=72 velocity=35 time=0
note_on channel=0 note=69 velocity=29 time=0
note_on channel=0 note=54 velocity=34 time=0
control_change channel=0 control=64 value=0 time=19
control_change channel=0 control=64 value=127 time=61
note_on channel=0 note=54 velocity=0 time=80
note_on channel=0 note=63 velocity=31 time=0
note_on channel=0 note=63 velocity=0 time=0
note_on channel=0 note=60 velocity=30 time=0
note_on channel=0 note=60 velocity=0 time=0
note_on channel=0 note=69 velocity=0 time=0
note_on channel=0 note=67 velocity=33 time=0
note_on channel=0 note=55 velocity=37 time=0
control_change channel=0 control=64 value=0 time=7
control_change channel=0 control=64 value=127 time=45
note_on channel=0 note=55 velocity=0 time=108
note_on channel=0 note=64 velocity=32 time=0
note_on channel=0 note=64 velocity=0 time=0
note_on channel=0 note=60 velocity=32 time=0
note_on channel=0 note=60 velocity=0 time=0
note_on channel=0 note=67 velocity=0 time=0
note_on channel=0 note=72 velocity=0 time=0
note_on channel=0 note=71 velocity=56 time=0
note_on channel=0 note=67 velocity=34 time=0
note_on channel=0 note=53 velocity=39 time=0
control_change channel=0 control=64 value=0 time=13
control_change channel=0 control=64 value=127 time=44
note_on channel=0 note=53 velocity=0 time=103
note_on channel=0 note=65 velocity=33 time=0
note_on channel=0 note=71 velocity=0 time=80
note_on channel=0 note=79 velocity=60 time=0
note_on channel=0 note=65 velocity=0 time=0
note_on channel=0 note=62 velocity=33 time=0
note_on channel=0 note=59 velocity=33 time=0
note_on channel=0 note=59 velocity=0 time=0
note_on channel=0 note=67 velocity=0 time=0
note_on channel=0 note=79 velocity=0 time=0
note_on channel=0 note=62 velocity=0 time=0
note_on channel=0 note=67 velocity=51 time=0
note_on channel=0 note=75 velocity=51 time=0
note_on channel=0 note=79 velocity=60 time=0
note_on channel=0 note=60 velocity=39 time=0
control_change channel=0 control=64 value=0 time=7
control_change channel=0 control=64 value=127 time=61
note_on channel=0 note=60 velocity=0 time=49
note_on channel=0 note=55 velocity=32 time=0
note_on channel=0 note=55 velocity=0 time=117
note_on channel=0 note=51 velocity=32 time=0
note_on channel=0 note=51 velocity=0 time=27
note_on channel=0 note=55 velocity=30 time=0
note_on channel=0 note=55 velocity=0 time=27
note_on channel=0 note=48 velocity=38 time=0
note_on channel=0 note=48 velocity=0 time=57
note_on channel=0 note=60 velocity=33 time=0
note_on channel=0 note=60 velocity=0 time=27
note_on channel=0 note=55 velocity=34 time=0
note_on channel=0 note=55 velocity=0 time=27
note_on channel=0 note=48 velocity=32 time=0
note_on channel=0 note=48 velocity=0 time=0
note_on channel=0 note=79 velocity=0 time=0
note_on channel=0 note=75 velocity=0 time=0
note_on channel=0 note=67 velocity=0 time=0
note_on channel=0 note=65 velocity=46 time=0
note_on channel=0 note=74 velocity=46 time=0
note_on channel=0 note=77 velocity=57 time=0
note_on channel=0 note=50 velocity=45 time=0
control_change channel=0 control=64 value=0 time=7
control_change channel=0 control=64 value=127 time=64
note_on channel=0 note=50 velocity=0 time=49
note_on channel=0 note=59 velocity=36 time=0
note_on channel=0 note=59 velocity=0 time=120
note_on channel=0 note=55 velocity=36 time=0
note_on channel=0 note=55 velocity=0 time=120
note_on channel=0 note=50 velocity=33 time=0
note_on channel=0 note=50 velocity=0 time=120
note_on channel=0 note=77 velocity=0 time=0
note_on channel=0 note=74 velocity=0 time=0
note_on channel=0 note=65 velocity=0 time=0
note_on channel=0 note=63 velocity=47 time=0
note_on channel=0 note=72 velocity=47 time=0
note_on channel=0 note=75 velocity=58 time=0
note_on channel=0 note=67 velocity=47 time=0
note_on channel=0 note=51 velocity=43 time=0
control_change channel=0 control=64 value=0 time=14
control_change channel=0 control=64 value=127 time=92
note_on channel=0 note=51 velocity=0 time=14
note_on channel=0 note=60 velocity=39 time=0
note_on channel=0 note=60 velocity=0 time=120
note_on channel=0 note=55 velocity=39 time=0
note_on channel=0 note=55 velocity=0 time=40
note_on channel=0 note=51 velocity=37 time=0
note_on channel=0 note=51 velocity=0 time=0
note_on channel=0 note=67 velocity=0 time=0
note_on channel=0 note=63 velocity=0 time=0
note_on channel=0 note=72 velocity=0 time=0
note_on channel=0 note=75 velocity=0 time=0
note_on channel=0 note=68 velocity=62 time=0
note_on channel=0 note=74 velocity=73 time=0
note_on channel=0 note=53 velocity=56 time=0
control_change channel=0 control=64 value=0 time=7
control_change channel=0 control=64 value=127 time=85
note_on channel=0 note=53 velocity=0 time=28
note_on channel=0 note=62 velocity=42 time=0
note_on channel=0 note=62 velocity=0 time=120
note_on channel=0 note=56 velocity=42 time=0
note_on channel=0 note=56 velocity=0 time=0
note_on channel=0 note=53 velocity=39 time=0
note_on channel=0 note=53 velocity=0 time=0
note_on channel=0 note=74 velocity=0 time=0
note_on channel=0 note=68 velocity=0 time=0
note_on channel=0 note=69 velocity=63 time=0
note_on channel=0 note=72 velocity=74 time=0
note_on channel=0 note=54 velocity=57 time=0
control_change channel=0 control=64 value=0 time=16
control_change channel=0 control=64 value=127 time=69
note_on channel=0 note=54 velocity=0 time=0
note_on channel=0 note=63 velocity=44 time=0
note_on channel=0 note=63 velocity=0 time=120
note_on channel=0 note=60 velocity=45 time=0
note_on channel=0 note=60 velocity=0 time=0
note_on channel=0 note=54 velocity=43 time=0
note_on channel=0 note=54 velocity=0 time=110
note_on channel=0 note=69 velocity=0 time=0
note_on channel=0 note=67 velocity=64 time=0
note_on channel=0 note=55 velocity=62 time=0
control_change channel=0 control=64 value=0 time=8
control_change channel=0 control=64 value=127 time=49
note_on channel=0 note=55 velocity=0 time=63
note_on channel=0 note=63 velocity=47 time=0
note_on channel=0 note=63 velocity=0 time=120
note_on channel=0 note=60 velocity=48 time=0
note_on channel=0 note=60 velocity=0 time=40
note_on channel=0 note=55 velocity=47 time=0
note_on channel=0 note=55 velocity=0 time=0
note_on channel=0 note=67 velocity=0 time=0
note_on channel=0 note=72 velocity=0 time=0
note_on channel=0 note=66 velocity=76 time=0
note_on channel=0 note=72 velocity=76 time=0
note_on channel=0 note=56 velocity=58 time=0
control_change channel=0 control=64 value=0 time=17
control_change channel=0 control=64 value=127 time=46
note_on channel=0 note=56 velocity=0 time=57
note_on channel=0 note=63 velocity=52 time=0
note_on channel=0 note=63 velocity=0 time=120
note_on channel=0 note=72 velocity=0 time=0
note_on channel=0 note=66 velocity=0 time=0
note_on channel=0 note=80 velocity=82 time=0
note_on channel=0 note=60 velocity=57 time=0
note_on channel=0 note=60 velocity=0 time=40
note_on channel=0 note=63 velocity=58 time=0
note_on channel=0 note=63 velocity=0 time=0
note_on channel=0 note=80 velocity=0 time=0
note_on channel=0 note=80 velocity=43 time=0
note_on channel=0 note=76 velocity=43 time=0
note_on channel=0 note=68 velocity=36 time=0
note_on channel=0 note=61 velocity=32 time=0
note_on channel=0 note=49 velocity=32 time=0
control_change channel=0 control=64 value=0 time=9
control_change channel=0 control=64 value=127 time=76
note_on channel=0 note=49 velocity=0 time=75
note_on channel=0 note=61 velocity=0 time=0
note_on channel=0 note=56 velocity=27 time=0
note_on channel=0 note=56 velocity=0 time=160
note_on channel=0 note=52 velocity=27 time=0
note_on channel=0 note=52 velocity=0 time=160
note_on channel=0 note=49 velocity=32 time=0
note_on channel=0 note=49 velocity=0 time=160
note_on channel=0 note=61 velocity=27 time=0
note_on channel=0 note=61 velocity=0 time=0
note_on channel=0 note=56 velocity=27 time=0
note_on channel=0 note=56 velocity=0 time=0
note_on channel=0 note=68 velocity=0 time=0
note_on channel=0 note=76 velocity=0 time=0
note_on channel=0 note=80 velocity=0 time=0
note_on channel=0 note=66 velocity=28 time=0
note_on channel=0 note=75 velocity=34 time=0
note_on channel=0 note=78 velocity=34 time=0
note_on channel=0 note=51 velocity=32 time=0
control_change channel=0 control=64 value=0 time=7
control_change channel=0 control=64 value=127 time=45
note_on channel=0 note=51 velocity=0 time=40
note_on channel=0 note=60 velocity=27 time=0
note_on channel=0 note=60 velocity=0 time=160
note_on channel=0 note=56 velocity=27 time=0
note_on channel=0 note=56 velocity=0 time=160
note_on channel=0 note=66 velocity=0 time=0
note_on channel=0 note=75 velocity=0 time=0
note_on channel=0 note=78 velocity=0 time=0
note_on channel=0 note=68 velocity=25 time=0
note_on channel=0 note=73 velocity=30 time=0
note_on channel=0 note=76 velocity=30 time=0
note_on channel=0 note=52 velocity=33 time=0
control_change channel=0 control=64 value=0 time=12
control_change channel=0 control=64 value=127 time=57
note_on channel=0 note=52 velocity=0 time=91
note_on channel=0 note=61 velocity=27 time=0
note_on channel=0 note=61 velocity=0 time=0
note_on channel=0 note=56 velocity=29 time=0
note_on channel=0 note=56 velocity=0 time=0
note_on channel=0 note=68 velocity=0 time=0
note_on channel=0 note=73 velocity=0 time=0
note_on channel=0 note=76 velocity=0 time=0
note_on channel=0 note=69 velocity=39 time=0
note_on channel=0 note=75 velocity=39 time=0
note_on channel=0 note=54 velocity=32 time=0
control_change channel=0 control=64 value=0 time=9
control_change channel=0 control=64 value=127 time=71
note_on channel=0 note=54 velocity=0 time=80
note_on channel=0 note=63 velocity=29 time=0
note_on channel=0 note=63 velocity=0 time=0
note_on channel=0 note=57 velocity=29 time=0
note_on channel=0 note=57 velocity=0 time=0
note_on channel=0 note=75 velocity=0 time=0
note_on channel=0 note=69 velocity=0 time=0
note_on channel=0 note=73 velocity=35 time=0
note_on channel=0 note=70 velocity=29 time=0
note_on channel=0 note=55 velocity=34 time=0
control_change channel=0 control=64 value=0 time=19
control_change channel=0 control=64 value=127 time=61
note_on channel=0 note=55 velocity=0 time=80
note_on channel=0 note=64 velocity=31 time=0
note_on channel=0 note=64 velocity=0 time=0
note_on channel=0 note=61 velocity=30 time=0
note_on channel=0 note=61 velocity=0 time=0
note_on channel=0 note=70 velocity=0 time=0
note_on channel=0 note=68 velocity=33 time=0
note_on channel=0 note=56 velocity=37 time=0
control_change channel=0 control=64 value=0 time=7
control_change channel=0 control=64 value=127 time=45
note_on channel=0 note=56 velocity=0 time=108
note_on channel=0 note=64 velocity=32 time=0
note_on channel=0 note=64 velocity=0 time=0
note_on channel=0 note=61 velocity=32 time=0
note_on channel=0 note=61 velocity=0 time=0
note_on channel=0 note=68 velocity=0 time=0
note_on channel=0 note=73 velocity=0 time=0
note_on channel=0 note=72 velocity=56 time=0
note_on channel=0 note=68 velocity=34 time=0
note_on channel=0 note=56 velocity=39 time=0
control_change channel=0 control=64 value=0 time=13
control_change channel=0 control=64 value=127 time=44
note_on channel=0 note=56 velocity=0 time=63
note_on channel=0 note=63 velocity=32 time=0
note_on channel=0 note=63 velocity=0 time=120
note_on channel=0 note=72 velocity=0 time=0
note_on channel=0 note=80 velocity=60 time=0
note_on channel=0 note=60 velocity=34 time=0
note_on channel=0 note=60 velocity=0 time=0
note_on channel=0 note=63 velocity=32 time=0
note_on channel=0 note=63 velocity=0 time=0
note_on channel=0 note=80 velocity=0 time=0
note_on channel=0 note=68 velocity=0 time=0
note_on channel=0 note=68 velocity=51 time=0
note_on channel=0 note=77 velocity=51 time=0
note_on channel=0 note=80 velocity=60 time=0
note_on channel=0 note=49 velocity=36 time=0
note_on channel=0 note=61 velocity=39 time=0
control_change channel=0 control=64 value=0 time=10
control_change channel=0 control=64 value=127 time=38
note_on channel=0 note=61 velocity=0 time=49
note_on channel=0 note=49 velocity=0 time=0
note_on channel=0 note=56 velocity=32 time=0
note_on channel=0 note=56 velocity=0 time=87
note_on channel=0 note=53 velocity=32 time=0
note_on channel=0 note=53 velocity=0 time=87
note_on channel=0 note=56 velocity=30 time=0
note_on channel=0 note=56 velocity=0 time=87
note_on channel=0 note=49 velocity=38 time=0
note_on channel=0 note=49 velocity=0 time=87
note_on channel=0 note=61 velocity=33 time=0
note_on channel=0 note=61 velocity=0 time=27
note_on channel=0 note=56 velocity=34 time=0
note_on channel=0 note=56 velocity=0 time=17
note_on channel=0 note=49 velocity=32 time=0
note_on channel=0 note=49 velocity=0 time=0
note_on channel=0 note=80 velocity=0 time=0
note_on channel=0 note=77 velocity=0 time=0
note_on channel=0 note=68 velocity=0 time=0
note_on channel=0 note=66 velocity=46 time=0
note_on channel=0 note=75 velocity=46 time=0
note_on channel=0 note=78 velocity=57 time=0
note_on channel=0 note=51 velocity=45 time=0
control_change channel=0 control=64 value=0 time=7
control_change channel=0 control=64 value=127 time=64
note_on channel=0 note=51 velocity=0 time=0
note_on channel=0 note=60 velocity=36 time=0
note_on channel=0 note=60 velocity=0 time=120
note_on channel=0 note=56 velocity=36 time=0
note_on channel=0 note=56 velocity=0 time=120
note_on channel=0 note=51 velocity=33 time=0
note_on channel=0 note=51 velocity=0 time=120
note_on channel=0 note=78 velocity=0 time=0
note_on channel=0 note=75 velocity=0 time=0
note_on channel=0 note=66 velocity=0 time=0
note_on channel=0 note=65 velocity=47 time=0
note_on channel=0 note=73 velocity=47 time=0
note_on channel=0 note=77 velocity=58 time=0
note_on channel=0 note=68 velocity=47 time=0
note_on channel=0 note=53 velocity=43 time=0
control_change channel=0 control=64 value=0 time=14
control_change channel=0 control=64 value=127 time=92
note_on channel=0 note=53 velocity=0 time=14
note_on channel=0 note=61 velocity=39 time=0
note_on channel=0 note=61 velocity=0 time=120
note_on channel=0 note=56 velocity=39 time=0
note_on channel=0 note=56 velocity=0 time=0
note_on channel=0 note=53 velocity=37 time=0
note_on channel=0 note=53 velocity=0 time=0
note_on channel=0 note=68 velocity=0 time=0
note_on channel=0 note=65 velocity=0 time=0
note_on channel=0 note=73 velocity=0 time=0
note_on channel=0 note=77 velocity=0 time=0
note_on channel=0 note=69 velocity=62 time=0
note_on channel=0 note=75 velocity=73 time=0
note_on channel=0 note=54 velocity=56 time=0
control_change channel=0 control=64 value=0 time=7
control_change channel=0 control=64 value=127 time=85
note_on channel=0 note=54 velocity=0 time=28
note_on channel=0 note=61 velocity=42 time=0
note_on channel=0 note=61 velocity=0 time=120
note_on channel=0 note=57 velocity=42 time=0
note_on channel=0 note=57 velocity=0 time=0
note_on channel=0 note=54 velocity=39 time=0
note_on channel=0 note=54 velocity=0 time=110
note_on channel=0 note=75 velocity=0 time=0
note_on channel=0 note=69 velocity=0 time=0
note_on channel=0 note=69 velocity=63 time=0
note_on channel=0 note=73 velocity=74 time=0
note_on channel=0 note=54 velocity=57 time=0
control_change channel=0 control=64 value=0 time=16
control_change channel=0 control=64 value=127 time=69
note_on channel=0 note=54 velocity=0 time=0
note_on channel=0 note=61 velocity=44 time=0
note_on channel=0 note=61 velocity=0 time=120
note_on channel=0 note=57 velocity=45 time=0
note_on channel=0 note=57 velocity=0 time=40
note_on channel=0 note=54 velocity=43 time=0
note_on channel=0 note=54 velocity=0 time=110
note_on channel=0 note=73 velocity=0 time=0
note_on channel=0 note=72 velocity=64 time=0
note_on channel=0 note=54 velocity=62 time=0
control_change channel=0 control=64 value=0 time=8
control_change channel=0 control=64 value=127 time=49
note_on channel=0 note=54 velocity=0 time=63
note_on channel=0 note=61 velocity=47 time=0
note_on channel=0 note=61 velocity=0 time=0
note_on channel=0 note=57 velocity=48 time=0
note_on channel=0 note=57 velocity=0 time=40
note_on channel=0 note=54 velocity=47 time=0
note_on channel=0 note=54 velocity=0 time=0
note_on channel=0 note=72 velocity=0 time=0
note_on channel=0 note=69 velocity=0 time=0
note_on channel=0 note=73 velocity=82 time=0
note_on channel=0 note=69 velocity=82 time=0
note_on channel=0 note=52 velocity=58 time=0
control_change channel=0 control=64 value=0 time=17
control_change channel=0 control=64 value=127 time=46
note_on channel=0 note=52 velocity=0 time=0
note_on channel=0 note=61 velocity=52 time=0
note_on channel=0 note=61 velocity=0 time=120
note_on channel=0 note=69 velocity=0 time=0
note_on channel=0 note=73 velocity=0 time=0
note_on channel=0 note=78 velocity=87 time=0
note_on channel=0 note=81 velocity=87 time=0
note_on channel=0 note=57 velocity=57 time=0
note_on channel=0 note=57 velocity=0 time=40
note_on channel=0 note=52 velocity=57 time=0
note_on channel=0 note=52 velocity=0 time=0
note_on channel=0 note=81 velocity=0 time=0
note_on channel=0 note=78 velocity=0 time=0
note_on channel=0 note=69 velocity=88 time=0
note_on channel=0 note=78 velocity=88 time=0
note_on channel=0 note=81 velocity=101 time=0
note_on channel=0 note=51 velocity=77 time=0
note_on channel=0 note=59 velocity=77 time=0
control_change channel=0 control=64 value=0 time=6
note_on channel=0 note=59 velocity=0 time=0
note_on channel=0 note=51 velocity=0 time=0
note_on channel=0 note=57 velocity=69 time=0
note_on channel=0 note=57 velocity=0 time=120
note_on channel=0 note=60 velocity=57 time=0
note_on channel=0 note=60 velocity=0 time=120
note_on channel=0 note=59 velocity=41 time=0
note_on channel=0 note=59 velocity=0 time=120
note_on channel=0 note=58 velocity=37 time=0
note_on channel=0 note=58 velocity=0 time=120
note_on channel=0 note=59 velocity=41 time=0
note_on channel=0 note=59 velocity=0 time=120
note_on channel=0 note=54 velocity=35 time=0
note_on channel=0 note=54 velocity=0 time=120
note_on channel=0 note=51 velocity=41 time=0
note_on channel=0 note=51 velocity=0 time=120
note_on channel=0 note=49 velocity=37 time=0
note_on channel=0 note=49 velocity=0 time=0
note_on channel=0 note=51 velocity=41 time=0
note_on channel=0 note=51 velocity=0 time=0
note_on channel=0 note=47 velocity=40 time=0
note_on channel=0 note=47 velocity=0 time=0
note_on channel=0 note=51 velocity=49 time=0
note_on channel=0 note=51 velocity=0 time=60
note_on channel=0 note=54 velocity=41 time=120
note_on channel=0 note=54 velocity=0 time=60
note_on channel=0 note=69 velocity=0 time=0
note_on channel=0 note=78 velocity=0 time=0
note_on channel=0 note=81 velocity=0 time=0
note_on channel=0 note=75 velocity=88 time=0
note_on channel=0 note=78 velocity=88 time=0
note_on channel=0 note=81 velocity=88 time=0
note_on channel=0 note=87 velocity=101 time=0
control_change channel=0 control=64 value=0 time=6
note_on channel=0 note=57 velocity=69 time=0
note_on channel=0 note=57 velocity=0 time=120
note_on channel=0 note=60 velocity=57 time=0
note_on channel=0 note=60 velocity=0 time=120
note_on channel=0 note=59 velocity=41 time=0
note_on channel=0 note=59 velocity=0 time=120
note_on channel=0 note=58 velocity=37 time=0
note_on channel=0 note=58 velocity=0 time=120
note_on channel=0 note=59 velocity=41 time=0
note_on channel=0 note=59 velocity=0 time=120
note_on channel=0 note=54 velocity=35 time=0
note_on channel=0 note=54 velocity=0 time=0
note_on channel=0 note=51 velocity=41 time=0
note_on channel=0 note=51 velocity=0 time=120
note_on channel=0 note=49 velocity=37 time=0
note_on channel=0 note=49 velocity=0 time=120
note_on channel=0 note=51 velocity=41 time=0
note_on channel=0 note=51 velocity=0 time=0
note_on channel=0 note=47 velocity=40 time=0
note_on channel=0 note=47 velocity=0 time=0
note_on channel=0 note=51 velocity=49 time=0
note_on channel=0 note=51 velocity=0 time=60
note_on channel=0 note=54 velocity=41 time=120
note_on channel=0 note=54 velocity=0 time=60
note_on channel=0 note=87 velocity=0 time=0
note_on channel=0 note=75 velocity=0 time=0
note_on channel=0 note=78 velocity=0 time=0
note_on channel=0 note=81 velocity=0 time=0
note_on channel=0 note=87 velocity=88 time=0
note_on channel=0 note=78 velocity=88 time=0
note_on channel=0 note=81 velocity=88 time=0
note_on channel=0 note=90 velocity=101 time=0
control_change channel=0 control=64 value=0 time=6
note_on channel=0 note=57 velocity=69 time=0
note_on channel=0 note=57 velocity=0 time=0
note_on channel=0 note=60 velocity=57 time=0
note_on channel=0 note=60 velocity=0 time=0
note_on channel=0 note=59 velocity=41 time=0
note_on channel=0 note=59 velocity=0 time=0
note_on channel=0 note=58 velocity=37 time=0
note_on channel=0 note=58 velocity=0 time=120
note_on channel=0 note=59 velocity=41 time=0
note_on channel=0 note=59 velocity=0 time=120
note_on channel=0 note=54 velocity=35 time=0
note_on channel=0 note=54 velocity=0 time=0
note_on channel=0 note=51 velocity=41 time=0
note_on channel=0 note=51 velocity=0 time=120
note_on channel=0 note=49 velocity=37 time=0
note_on channel=0 note=49 velocity=0 time=120
note_on channel=0 note=51 velocity=41 time=0
note_on channel=0 note=51 velocity=0 time=0
note_on channel=0 note=47 velocity=40 time=0
note_on channel=0 note=47 velocity=0 time=0
note_on channel=0 note=51 velocity=49 time=0
note_on channel=0 note=51 velocity=0 time=120
note_on channel=0 note=49 velocity=47 time=0
note_on channel=0 note=49 velocity=0 time=120
note_on channel=0 note=51 velocity=49 time=0
note_on channel=0 note=51 velocity=0 time=120
note_on channel=0 note=54 velocity=50 time=0
note_on channel=0 note=54 velocity=0 time=0
note_on channel=0 note=90 velocity=0 time=0
note_on channel=0 note=87 velocity=0 time=0
note_on channel=0 note=78 velocity=0 time=0
note_on channel=0 note=81 velocity=0 time=0
note_on channel=0 note=78 velocity=68 time=0
note_on channel=0 note=57 velocity=58 time=0
note_on channel=0 note=57 velocity=0 time=120
note_on channel=0 note=78 velocity=0 time=0
note_on channel=0 note=69 velocity=39 time=0
note_on channel=0 note=51 velocity=26 time=0
note_on channel=0 note=69 velocity=0 time=120
note_on channel=0 note=72 velocity=32 time=0
note_on channel=0 note=72 velocity=0 time=120
note_on channel=0 note=51 velocity=0 time=0
note_on channel=0 note=71 velocity=40 time=0
note_on channel=0 note=54 velocity=30 time=0
note_on channel=0 note=71 velocity=0 time=120
note_on channel=0 note=70 velocity=37 time=0
note_on channel=0 note=70 velocity=0 time=120
note_on channel=0 note=54 velocity=0 time=0
note_on channel=0 note=71 velocity=41 time=0
note_on channel=0 note=59 velocity=29 time=0
note_on channel=0 note=71 velocity=0 time=0
note_on channel=0 note=68 velocity=35 time=0
note_on channel=0 note=68 velocity=0 time=0
note_on channel=0 note=59 velocity=0 time=0
note_on channel=0 note=78 velocity=68 time=0
note_on channel=0 note=57 velocity=58 time=0
note_on channel=0 note=57 velocity=0 time=120
note_on channel=0 note=78 velocity=0 time=0
note_on channel=0 note=69 velocity=39 time=0
note_on channel=0 note=51 velocity=26 time=0
note_on channel=0 note=69 velocity=0 time=120
note_on channel=0 note=72 velocity=32 time=0
note_on channel=0 note=72 velocity=0 time=120
note_on channel=0 note=51 velocity=0 time=0
note_on channel=0 note=71 velocity=40 time=0
note_on channel=0 note=54 velocity=30 time=0
note_on channel=0 note=71 velocity=0 time=120
note_on channel=0 note=70 velocity=37 time=0
note_on channel=0 note=70 velocity=0 time=120
note_on channel=0 note=54 velocity=0 time=0
note_on channel=0 note=71 velocity=41 time=0
note_on channel=0 note=59 velocity=29 time=0
note_on channel=0 note=71 velocity=0 time=0
note_on channel=0 note=68 velocity=35 time=0
note_on channel=0 note=68 velocity=0 time=0
note_on channel=0 note=59 velocity=0 time=0
note_on channel=0 note=78 velocity=68 time=0
note_on channel=0 note=57 velocity=58 time=0
note_on channel=0 note=57 velocity=0 time=120
note_on channel=0 note=78 velocity=0 time=0
note_on channel=0 note=69 velocity=39 time=0
note_on channel=0 note=51 velocity=26 time=0
note_on channel=0 note=69 velocity=0 time=120
note_on channel=0 note=72 velocity=32 time=0
note_on channel=0 note=72 velocity=0 time=120
note_on channel=0 note=51 velocity=0 time=0
note_on channel=0 note=71 velocity=40 time=0
note_on channel=0 note=54 velocity=30 time=0
note_on channel=0 note=71 velocity=0 time=120
note_on channel=0 note=70 velocity=37 time=0
note_on channel=0 note=70 velocity=0 time=120
note_on channel=0 note=54 velocity=0 time=0
note_on channel=0 note=71 velocity=41 time=0
note_on channel=0 note=59 velocity=29 time=0
note_on channel=0 note=71 velocity=0 time=0
note_on channel=0 note=69 velocity=35 time=0
note_on channel=0 note=69 velocity=0 time=120
note_on channel=0 note=68 velocity=40 time=0
note_on channel=0 note=68 velocity=0 time=120
note_on channel=0 note=59 velocity=0 time=0
note_on channel=0 note=66 velocity=31 time=0
note_on channel=0 note=57 velocity=27 time=0
note_on channel=0 note=57 velocity=0 time=120
note_on channel=0 note=66 velocity=0 time=0
note_on channel=0 note=68 velocity=35 time=0
note_on channel=0 note=59 velocity=30 time=0
note_on channel=0 note=59 velocity=0 time=120
note_on channel=0 note=68 velocity=0 time=0
note_on channel=0 note=66 velocity=30 time=0
note_on channel=0 note=57 velocity=26 time=0
note_on channel=0 note=57 velocity=0 time=120
note_on channel=0 note=66 velocity=0 time=0
note_on channel=0 note=64 velocity=37 time=0
note_on channel=0 note=56 velocity=30 time=0
note_on channel=0 note=56 velocity=0 time=0
note_on channel=0 note=64 velocity=0 time=0
note_on channel=0 note=63 velocity=29 time=0
note_on channel=0 note=57 velocity=25 time=0
note_on channel=0 note=57 velocity=0 time=120
note_on channel=0 note=63 velocity=0 time=0
note_on channel=0 note=64 velocity=29 time=0
note_on channel=0 note=56 velocity=30 time=0
note_on channel=0 note=56 velocity=0 time=0
note_on channel=0 note=64 velocity=0 time=0
note_on channel=0 note=66 velocity=29 time=0
note_on channel=0 note=54 velocity=26 time=0
note_on channel=0 note=54 velocity=0 time=0
note_on channel=0 note=66 velocity=0 time=0
note_on channel=0 note=68 velocity=42 time=0
note_on channel=0 note=64 velocity=31 time=0
note_on channel=0 note=40 velocity=25 time=0
note_on channel=0 note=52 velocity=30 time=0
control_change channel=0 control=64 value=127 time=78
note_on channel=0 note=64 velocity=0 time=42
note_on channel=0 note=59 velocity=26 time=0
note_on channel=0 note=59 velocity=0 time=120
note_on channel=0 note=52 velocity=0 time=0
note_on channel=0 note=40 velocity=0 time=0
note_on channel=0 note=64 velocity=31 time=0
note_on channel=0 note=64 velocity=0 time=120
note_on channel=0 note=59 velocity=26 time=0
note_on channel=0 note=59 velocity=0 time=0
note_on channel=0 note=68 velocity=0 time=0
note_on channel=0 note=71 velocity=45 time=0
note_on channel=0 note=68 velocity=45 time=0
control_change channel=0 control=64 value=0 time=16
control_change channel=0 control=64 value=127 time=83
note_on channel=0 note=68 velocity=0 time=21
note_on channel=0 note=59 velocity=27 time=0
note_on channel=0 note=59 velocity=0 time=0
note_on channel=0 note=71 velocity=0 time=0
note_on channel=0 note=69 velocity=40 time=0
note_on channel=0 note=66 velocity=40 time=0
control_change channel=0 control=64 value=0 time=13
control_change channel=0 control=64 value=127 time=51
note_on channel=0 note=66 velocity=0 time=0
note_on channel=0 note=59 velocity=27 time=0
note_on channel=0 note=59 velocity=0 time=0
note_on channel=0 note=69 velocity=0 time=0
note_on channel=0 note=64 velocity=34 time=0
note_on channel=0 note=68 velocity=50 time=0
note_on channel=0 note=35 velocity=25 time=0
note_on channel=0 note=47 velocity=30 time=0
control_change channel=0 control=64 value=0 time=0
control_change channel=0 control=64 value=127 time=64
note_on channel=0 note=64 velocity=0 time=56
note_on channel=0 note=59 velocity=26 time=0
note_on channel=0 note=59 velocity=0 time=0
note_on channel=0 note=47 velocity=0 time=0
note_on channel=0 note=35 velocity=0 time=0
note_on channel=0 note=68 velocity=0 time=0
note_on channel=0 note=63 velocity=27 time=0
note_on channel=0 note=66 velocity=41 time=0
control_change channel=0 control=64 value=0 time=14
control_change channel=0 control=64 value=127 time=43
note_on channel=0 note=63 velocity=0 time=63
note_on channel=0 note=59 velocity=25 time=0
note_on channel=0 note=59 velocity=0 time=90
note_on channel=0 note=66 velocity=0 time=0
control_change channel=0 control=64 value=0 time=0
note_on channel=0 note=63 velocity=27 time=30
note_on channel=0 note=66 velocity=41 time=0
control_change channel=0 control=64 value=127 time=64
note_on channel=0 note=63 velocity=0 time=56
note_on channel=0 note=59 velocity=26 time=0
note_on channel=0 note=59 velocity=0 time=0
note_on channel=0 note=66 velocity=0 time=0
note_on channel=0 note=64 velocity=28 time=0
note_on channel=0 note=68 velocity=43 time=0
control_change channel=0 control=64 value=0 time=18
control_change channel=0 control=64 value=127 time=67
note_on channel=0 note=64 velocity=0 time=35
note_on channel=0 note=59 velocity=28 time=0
note_on channel=0 note=59 velocity=0 time=0
note_on channel=0 note=68 velocity=0 time=0
note_on channel=0 note=64 velocity=30 time=0
note_on channel=0 note=69 velocity=46 time=0
note_on channel=0 note=37 velocity=25 time=0
note_on channel=0 note=49 velocity=30 time=0
control_change channel=0 control=64 value=0 time=10
control_change channel=0 control=64 value=127 time=75
note_on channel=0 note=64 velocity=0 time=35
note_on channel=0 note=59 velocity=28 time=0
note_on channel=0 note=59 velocity=0 time=120
note_on channel=0 note=49 velocity=0 time=0
note_on channel=0 note=37 velocity=0 time=0
note_on channel=0 note=69 velocity=0 time=0
note_on channel=0 note=64 velocity=36 time=0
note_on channel=0 note=73 velocity=54 time=0
note_on channel=0 note=64 velocity=0 time=120
note_on channel=0 note=59 velocity=31 time=0
note_on channel=0 note=59 velocity=0 time=120
note_on channel=0 note=73 velocity=0 time=0
note_on channel=0 note=66 velocity=37 time=0
note_on channel=0 note=71 velocity=47 time=0
note_on channel=0 note=51 velocity=28 time=0
note_on channel=0 note=39 velocity=23 time=0
control_change channel=0 control=64 value=0 time=16
control_change channel=0 control=64 value=127 time=62
note_on channel=0 note=66 velocity=0 time=42
note_on channel=0 note=59 velocity=26 time=0
note_on channel=0 note=59 velocity=0 time=0
note_on channel=0 note=39 velocity=0 time=0
note_on channel=0 note=51 velocity=0 time=0
note_on channel=0 note=71 velocity=0 time=0
note_on channel=0 note=63 velocity=25 time=0
note_on channel=0 note=66 velocity=38 time=0
note_on channel=0 note=47 velocity=26 time=0
note_on channel=0 note=35 velocity=22 time=0
note_on channel=0 note=63 velocity=0 time=0
note_on channel=0 note=59 velocity=27 time=0
note_on channel=0 note=59 velocity=0 time=0
note_on channel=0 note=35 velocity=0 time=0
note_on channel=0 note=47 velocity=0 time=0
note_on channel=0 note=66 velocity=0 time=0
note_on channel=0 note=59 velocity=35 time=0
note_on channel=0 note=64 velocity=35 time=0
note_on channel=0 note=68 velocity=42 time=0
note_on channel=0 note=40 velocity=28 time=0
note_on channel=0 note=52 velocity=28 time=0
control_change channel=0 control=64 value=0 time=8
note_on channel=0 note=52 velocity=0 time=112
note_on channel=0 note=40 velocity=0 time=0
note_on channel=0 note=56 velocity=25 time=0
note_on channel=0 note=56 velocity=0 time=120
note_on channel=0 note=59 velocity=28 time=0
note_on channel=0 note=59 velocity=0 time=120
note_on channel=0 note=57 velocity=26 time=0
note_on channel=0 note=57 velocity=0 time=120
note_on channel=0 note=68 velocity=0 time=0
note_on channel=0 note=64 velocity=0 time=0
note_on channel=0 note=59 velocity=0 time=0
note_on channel=0 note=56 velocity=28 time=0
note_on channel=0 note=56 velocity=0 time=120
note_on channel=0 note=57 velocity=25 time=0
note_on channel=0 note=57 velocity=0 time=0
note_on channel=0 note=76 velocity=47 time=0
note_on channel=0 note=56 velocity=30 time=0
note_on channel=0 note=56 velocity=0 time=0
note_on channel=0 note=76 velocity=0 time=0
note_on channel=0 note=78 velocity=42 time=0
note_on channel=0 note=54 velocity=27 time=0
note_on channel=0 note=54 velocity=0 time=0
note_on channel=0 note=78 velocity=0 time=0
note_on channel=0 note=68 velocity=55 time=0
note_on channel=0 note=80 velocity=55 time=0
note_on channel=0 note=52 velocity=37 time=0
control_change channel=0 control=64 value=127 time=92
note_on channel=0 note=52 velocity=0 time=28
note_on channel=0 note=59 velocity=28 time=0
note_on channel=0 note=59 velocity=0 time=120
note_on channel=0 note=47 velocity=34 time=0
note_on channel=0 note=47 velocity=0 time=120
note_on channel=0 note=59 velocity=28 time=0
note_on channel=0 note=59 velocity=0 time=0
note_on channel=0 note=80 velocity=0 time=0
note_on channel=0 note=68 velocity=0 time=0
note_on channel=0 note=71 velocity=50 time=0
note_on channel=0 note=83 velocity=50 time=0
note_on channel=0 note=52 velocity=33 time=0
control_change channel=0 control=64 value=0 time=14
control_change channel=0 control=64 value=127 time=92
note_on channel=0 note=52 velocity=0 time=14
note_on channel=0 note=59 velocity=29 time=0
note_on channel=0 note=59 velocity=0 time=0
note_on channel=0 note=83 velocity=0 time=0
note_on channel=0 note=71 velocity=0 time=0
note_on channel=0 note=69 velocity=47 time=0
note_on channel=0 note=81 velocity=47 time=0
note_on channel=0 note=47 velocity=30 time=0
control_change channel=0 control=64 value=0 time=12
control_change channel=0 control=64 value=127 time=66
note_on channel=0 note=47 velocity=0 time=0
note_on channel=0 note=59 velocity=29 time=0
note_on channel=0 note=59 velocity=0 time=0
note_on channel=0 note=81 velocity=0 time=0
note_on channel=0 note=69 velocity=0 time=0
note_on channel=0 note=68 velocity=55 time=0
note_on channel=0 note=80 velocity=55 time=0
note_on channel=0 note=51 velocity=37 time=0
control_change channel=0 control=64 value=0 time=10
control_change channel=0 control=64 value=127 time=70
note_on channel=0 note=51 velocity=0 time=40
note_on channel=0 note=59 velocity=28 time=0
note_on channel=0 note=59 velocity=0 time=0
note_on channel=0 note=80 velocity=0 time=0
note_on channel=0 note=68 velocity=0 time=0
note_on channel=0 note=66 velocity=45 time=0
note_on channel=0 note=78 velocity=45 time=0
note_on channel=0 note=47 velocity=29 time=0
control_change channel=0 control=64 value=0 time=9
control_change channel=0 control=64 value=127 time=77
note_on channel=0 note=47 velocity=0 time=34
note_on channel=0 note=59 velocity=27 time=0
note_on channel=0 note=59 velocity=0 time=90
note_on channel=0 note=78 velocity=0 time=0
note_on channel=0 note=66 velocity=0 time=0
control_change channel=0 control=64 value=0 time=0
note_on channel=0 note=66 velocity=45 time=30
note_on channel=0 note=78 velocity=45 time=0
note_on channel=0 note=51 velocity=29 time=0
control_change channel=0 control=64 value=127 time=75
note_on channel=0 note=51 velocity=0 time=45
note_on channel=0 note=59 velocity=28 time=0
note_on channel=0 note=59 velocity=0 time=0
note_on channel=0 note=78 velocity=0 time=0
note_on channel=0 note=66 velocity=0 time=0
note_on channel=0 note=68 velocity=49 time=0
note_on channel=0 note=80 velocity=49 time=0
note_on channel=0 note=53 velocity=31 time=0
control_change channel=0 control=64 value=0 time=17
control_change channel=0 control=64 value=127 time=58
note_on channel=0 note=53 velocity=0 time=45
note_on channel=0 note=59 velocity=33 time=0
note_on channel=0 note=59 velocity=0 time=0
note_on channel=0 note=80 velocity=0 time=0
note_on channel=0 note=68 velocity=0 time=0
note_on channel=0 note=69 velocity=47 time=0
note_on channel=0 note=81 velocity=56 time=0
note_on channel=0 note=54 velocity=36 time=0
control_change channel=0 control=64 value=0 time=21
control_change channel=0 control=64 value=127 time=71
note_on channel=0 note=54 velocity=0 time=28
note_on channel=0 note=59 velocity=35 time=0
note_on channel=0 note=59 velocity=0 time=120
note_on channel=0 note=81 velocity=0 time=0
note_on channel=0 note=69 velocity=0 time=0
note_on channel=0 note=73 velocity=50 time=0
note_on channel=0 note=85 velocity=60 time=0
note_on channel=0 note=57 velocity=41 time=0
note_on channel=0 note=57 velocity=0 time=120
note_on channel=0 note=59 velocity=36 time=0
note_on channel=0 note=59 velocity=0 time=120
note_on channel=0 note=85 velocity=0 time=0
note_on channel=0 note=73 velocity=0 time=0
note_on channel=0 note=71 velocity=46 time=0
note_on channel=0 note=83 velocity=56 time=0
note_on channel=0 note=56 velocity=37 time=0
control_change channel=0 control=64 value=0 time=50
control_change channel=0 control=64 value=127 time=63
note_on channel=0 note=56 velocity=0 time=7
note_on channel=0 note=59 velocity=31 time=0
note_on channel=0 note=59 velocity=0 time=0
note_on channel=0 note=83 velocity=0 time=0
note_on channel=0 note=71 velocity=0 time=0
note_on channel=0 note=87 velocity=49 time=0
note_on channel=0 note=75 velocity=32 time=0
note_on channel=0 note=47 velocity=25 time=0
note_on channel=0 note=54 velocity=25 time=0
control_change channel=0 control=64 value=0 time=14
control_change channel=0 control=64 value=127 time=64
note_on channel=0 note=54 velocity=0 time=0
note_on channel=0 note=47 velocity=0 time=0
note_on channel=0 note=57 velocity=27 time=0
note_on channel=0 note=57 velocity=0 time=0
note_on channel=0 note=75 velocity=0 time=0
note_on channel=0 note=87 velocity=0 time=0
note_on channel=0 note=88 velocity=57 time=0
note_on channel=0 note=76 velocity=35 time=0
note_on channel=0 note=52 velocity=31 time=0
note_on channel=0 note=56 velocity=31 time=0
control_change channel=0 control=64 value=0 time=6
control_change channel=0 control=64 value=127 time=58
note_on channel=0 note=56 velocity=0 time=56
note_on channel=0 note=52 velocity=0 time=0
note_on channel=0 note=59 velocity=23 time=0
note_on channel=0 note=59 velocity=0 time=120
note_on channel=0 note=56 velocity=31 time=0
note_on channel=0 note=56 velocity=0 time=120
note_on channel=0 note=52 velocity=25 time=0
note_on channel=0 note=52 velocity=0 time=0
note_on channel=0 note=76 velocity=0 time=0
note_on channel=0 note=88 velocity=0 time=0
note_on channel=0 note=51 velocity=31 time=0
control_change channel=0 control=64 value=0 time=14
control_change channel=0 control=64 value=127 time=78
note_on channel=0 note=51 velocity=0 time=28
note_on channel=0 note=59 velocity=27 time=0
note_on channel=0 note=59 velocity=0 time=120
note_on channel=0 note=71 velocity=47 time=0
note_on channel=0 note=54 velocity=31 time=0
note_on channel=0 note=54 velocity=0 time=0
note_on channel=0 note=51 velocity=32 time=0
note_on channel=0 note=51 velocity=0 time=0
note_on channel=0 note=71 velocity=0 time=0
note_on channel=0 note=70 velocity=51 time=0
note_on channel=0 note=49 velocity=38 time=0
control_change channel=0 control=64 value=0 time=7
control_change channel=0 control=64 value=127 time=85
note_on channel=0 note=49 velocity=0 time=28
note_on channel=0 note=58 velocity=29 time=0
note_on channel=0 note=58 velocity=0 time=120
note_on channel=0 note=54 velocity=31 time=0
note_on channel=0 note=54 velocity=0 time=120
note_on channel=0 note=49 velocity=27 time=0
note_on channel=0 note=49 velocity=0 time=120
note_on channel=0 note=70 velocity=0 time=0
note_on channel=0 note=76 velocity=56 time=0
note_on channel=0 note=42 velocity=31 time=0
note_on channel=0 note=42 velocity=0 time=120
note_on channel=0 note=58 velocity=26 time=0
note_on channel=0 note=58 velocity=0 time=120
note_on channel=0 note=54 velocity=29 time=0
note_on channel=0 note=54 velocity=0 time=0
note_on channel=0 note=49 velocity=27 time=0
note_on channel=0 note=49 velocity=0 time=0
note_on channel=0 note=76 velocity=0 time=0
note_on channel=0 note=75 velocity=51 time=0
note_on channel=0 note=47 velocity=31 time=0
control_change channel=0 control=64 value=0 time=0
control_change channel=0 control=64 value=127 time=99
note_on channel=0 note=47 velocity=0 time=21
note_on channel=0 note=59 velocity=25 time=0
note_on channel=0 note=59 velocity=0 time=120
note_on channel=0 note=54 velocity=30 time=0
note_on channel=0 note=54 velocity=0 time=120
note_on channel=0 note=51 velocity=27 time=0
note_on channel=0 note=51 velocity=0 time=120
note_on channel=0 note=47 velocity=37 time=0
note_on channel=0 note=47 velocity=0 time=120
note_on channel=0 note=59 velocity=30 time=0
note_on channel=0 note=59 velocity=0 time=120
note_on channel=0 note=75 velocity=0 time=0
note_on channel=0 note=69 velocity=45 time=0
note_on channel=0 note=49 velocity=37 time=0
control_change channel=0 control=64 value=0 time=8
control_change channel=0 control=64 value=127 time=63
note_on channel=0 note=49 velocity=0 time=0
note_on channel=0 note=57 velocity=33 time=0
note_on channel=0 note=57 velocity=0 time=0
note_on channel=0 note=69 velocity=0 time=0
note_on channel=0 note=68 velocity=51 time=0
note_on channel=0 note=47 velocity=31 time=0
control_change channel=0 control=64 value=0 time=7
control_change channel=0 control=64 value=127 time=78
note_on channel=0 note=47 velocity=0 time=35
note_on channel=0 note=56 velocity=36 time=0
note_on channel=0 note=56 velocity=0 time=120
note_on channel=0 note=52 velocity=39 time=0
note_on channel=0 note=52 velocity=0 time=120
note_on channel=0 note=47 velocity=45 time=0
note_on channel=0 note=47 velocity=0 time=120
note_on channel=0 note=68 velocity=0 time=0
note_on channel=0 note=74 velocity=54 time=0
note_on channel=0 note=40 velocity=47 time=0
control_change channel=0 control=64 value=0 time=18
control_change channel=0 control=64 value=127 time=74
note_on channel=0 note=40 velocity=0 time=28
note_on channel=0 note=56 velocity=32 time=0
note_on channel=0 note=56 velocity=0 time=120
note_on channel=0 note=52 velocity=36 time=0
note_on channel=0 note=52 velocity=0 time=0
note_on channel=0 note=47 velocity=29 time=0
note_on channel=0 note=47 velocity=0 time=0
note_on channel=0 note=74 velocity=0 time=0
note_on channel=0 note=73 velocity=51 time=0
note_on channel=0 note=45 velocity=35 time=0
control_change channel=0 control=64 value=0 time=16
control_change channel=0 control=64 value=127 time=69
note_on channel=0 note=45 velocity=0 time=35
note_on channel=0 note=57 velocity=27 time=0
note_on channel=0 note=57 velocity=0 time=120
note_on channel=0 note=52 velocity=31 time=0
note_on channel=0 note=52 velocity=0 time=120
note_on channel=0 note=49 velocity=27 time=0
note_on channel=0 note=49 velocity=0 time=120
note_on channel=0 note=45 velocity=31 time=0
note_on channel=0 note=45 velocity=0 time=0
note_on channel=0 note=52 velocity=29 time=0
note_on channel=0 note=52 velocity=0 time=120
note_on channel=0 note=73 velocity=0 time=0
note_on channel=0 note=73 velocity=48 time=0
note_on channel=0 note=45 velocity=34 time=0
note_on channel=0 note=45 velocity=0 time=120
note_on channel=0 note=52 velocity=38 time=0
note_on channel=0 note=52 velocity=0 time=0
note_on channel=0 note=73 velocity=0 time=0
note_on channel=0 note=72 velocity=57 time=0
note_on channel=0 note=45 velocity=39 time=0
control_change channel=0 control=64 value=0 time=0
control_change channel=0 control=64 value=127 time=71
note_on channel=0 note=45 velocity=0 time=49
note_on channel=0 note=52 velocity=35 time=0
note_on channel=0 note=52 velocity=0 time=120
note_on channel=0 note=72 velocity=0 time=0
note_on channel=0 note=73 velocity=58 time=0
note_on channel=0 note=45 velocity=38 time=0
note_on channel=0 note=45 velocity=0 time=120
note_on channel=0 note=52 velocity=35 time=0
note_on channel=0 note=52 velocity=0 time=120
note_on channel=0 note=73 velocity=0 time=0
note_on channel=0 note=69 velocity=55 time=0
note_on channel=0 note=64 velocity=46 time=0
note_on channel=0 note=61 velocity=46 time=0
note_on channel=0 note=45 velocity=44 time=0
control_change channel=0 control=64 value=0 time=7
control_change channel=0 control=64 value=127 time=64
note_on channel=0 note=45 velocity=0 time=49
note_on channel=0 note=52 velocity=36 time=0
note_on channel=0 note=69 velocity=0 time=60
note_on channel=0 note=61 velocity=0 time=0
note_on channel=0 note=64 velocity=0 time=0
note_on channel=0 note=52 velocity=0 time=60
note_on channel=0 note=68 velocity=55 time=0
note_on channel=0 note=64 velocity=46 time=0
note_on channel=0 note=59 velocity=46 time=0
note_on channel=0 note=47 velocity=44 time=0
control_change channel=0 control=64 value=0 time=14
control_change channel=0 control=64 value=127 time=64
note_on channel=0 note=47 velocity=0 time=0
note_on channel=0 note=52 velocity=37 time=0
note_on channel=0 note=68 velocity=0 time=60
note_on channel=0 note=59 velocity=0 time=0
note_on channel=0 note=64 velocity=0 time=0
note_on channel=0 note=52 velocity=0 time=0
note_on channel=0 note=68 velocity=76 time=0
note_on channel=0 note=64 velocity=64 time=0
note_on channel=0 note=58 velocity=64 time=0
note_on channel=0 note=49 velocity=55 time=0
control_change channel=0 control=64 value=0 time=7
control_change channel=0 control=64 value=127 time=62
note_on channel=0 note=49 velocity=0 time=51
note_on channel=0 note=52 velocity=48 time=0
note_on channel=0 note=52 velocity=0 time=120
note_on channel=0 note=68 velocity=0 time=0
note_on channel=0 note=66 velocity=62 time=0
note_on channel=0 note=49 velocity=54 time=0
note_on channel=0 note=49 velocity=0 time=0
note_on channel=0 note=52 velocity=43 time=0
note_on channel=0 note=52 velocity=0 time=0
note_on channel=0 note=58 velocity=0 time=0
note_on channel=0 note=64 velocity=0 time=0
note_on channel=0 note=64 velocity=63 time=0
note_on channel=0 note=57 velocity=63 time=0
note_on channel=0 note=48 velocity=50 time=0
control_change channel=0 control=64 value=0 time=12
control_change channel=0 control=64 value=127 time=68
note_on channel=0 note=48 velocity=0 time=40
note_on channel=0 note=52 velocity=39 time=0
note_on channel=0 note=66 velocity=0 time=110
note_on channel=0 note=52 velocity=0 time=10
note_on channel=0 note=66 velocity=67 time=0
note_on channel=0 note=48 velocity=49 time=0
note_on channel=0 note=48 velocity=0 time=0
note_on channel=0 note=52 velocity=39 time=0
note_on channel=0 note=66 velocity=0 time=110
note_on channel=0 note=64 velocity=0 time=0
note_on channel=0 note=57 velocity=0 time=0
note_on channel=0 note=52 velocity=0 time=0
note_on channel=0 note=66 velocity=49 time=0
note_on channel=0 note=63 velocity=41 time=0
note_on channel=0 note=57 velocity=41 time=0
note_on channel=0 note=47 velocity=31 time=0
control_change channel=0 control=64 value=0 time=7
control_change channel=0 control=64 value=127 time=78
note_on channel=0 note=47 velocity=0 time=35
note_on channel=0 note=54 velocity=27 time=0
note_on channel=0 note=54 velocity=0 time=120
note_on channel=0 note=57 velocity=0 time=0
note_on channel=0 note=63 velocity=0 time=0
note_on channel=0 note=66 velocity=0 time=0
note_on channel=0 note=71 velocity=38 time=0
note_on channel=0 note=63 velocity=32 time=0
note_on channel=0 note=47 velocity=31 time=0
note_on channel=0 note=47 velocity=0 time=120
note_on channel=0 note=54 velocity=29 time=0
note_on channel=0 note=57 velocity=29 time=0
note_on channel=0 note=57 velocity=0 time=0
note_on channel=0 note=54 velocity=0 time=0
note_on channel=0 note=71 velocity=0 time=0
note_on channel=0 note=70 velocity=46 time=0
note_on channel=0 note=47 velocity=31 time=0
control_change channel=0 control=64 value=0 time=9
control_change channel=0 control=64 value=127 time=76
note_on channel=0 note=47 velocity=0 time=35
note_on channel=0 note=54 velocity=27 time=0
note_on channel=0 note=57 velocity=27 time=0
note_on channel=0 note=57 velocity=0 time=120
note_on channel=0 note=63 velocity=0 time=0
note_on channel=0 note=70 velocity=0 time=0
note_on channel=0 note=54 velocity=0 time=0
note_on channel=0 note=71 velocity=40 time=0
note_on channel=0 note=63 velocity=34 time=0
note_on channel=0 note=47 velocity=31 time=0
note_on channel=0 note=47 velocity=0 time=0
note_on channel=0 note=57 velocity=28 time=0
note_on channel=0 note=54 velocity=28 time=0
note_on channel=0 note=54 velocity=0 time=0
note_on channel=0 note=71 velocity=0 time=0
note_on channel=0 note=63 velocity=0 time=0
note_on channel=0 note=57 velocity=0 time=0
note_on channel=0 note=64 velocity=51 time=0
note_on channel=0 note=52 velocity=31 time=0
note_on channel=0 note=56 velocity=31 time=0
control_change channel=0 control=64 value=0 time=6
control_change channel=0 control=64 value=0 time=1
control_change channel=0 control=64 value=127 time=57
note_on channel=0 note=56 velocity=0 time=56
note_on channel=0 note=52 velocity=0 time=0
note_on channel=0 note=59 velocity=23 time=0
note_on channel=0 note=59 velocity=0 time=120
note_on channel=0 note=56 velocity=31 time=0
note_on channel=0 note=56 velocity=0 time=120
note_on channel=0 note=52 velocity=25 time=0
note_on channel=0 note=52 velocity=0 time=0
note_on channel=0 note=64 velocity=0 time=0
note_on channel=0 note=51 velocity=31 time=0
control_change channel=0 control=64 value=0 time=14
control_change channel=0 control=64 value=127 time=78
note_on channel=0 note=51 velocity=0 time=28
note_on channel=0 note=59 velocity=27 time=0
note_on channel=0 note=59 velocity=0 time=120
note_on channel=0 note=83 velocity=47 time=0
note_on channel=0 note=71 velocity=47 time=0
note_on channel=0 note=54 velocity=31 time=0
note_on channel=0 note=54 velocity=0 time=0
note_on channel=0 note=51 velocity=32 time=0
note_on channel=0 note=51 velocity=0 time=0
note_on channel=0 note=71 velocity=0 time=0
note_on channel=0 note=83 velocity=0 time=0
note_on channel=0 note=82 velocity=51 time=0
note_on channel=0 note=70 velocity=51 time=0
note_on channel=0 note=49 velocity=38 time=0
control_change channel=0 control=64 value=0 time=7
control_change channel=0 control=64 value=127 time=85
note_on channel=0 note=49 velocity=0 time=28
note_on channel=0 note=58 velocity=37 time=0
note_on channel=0 note=58 velocity=0 time=120
note_on channel=0 note=54 velocity=40 time=0
note_on channel=0 note=54 velocity=0 time=120
note_on channel=0 note=49 velocity=43 time=0
note_on channel=0 note=49 velocity=0 time=120
note_on channel=0 note=70 velocity=0 time=0
note_on channel=0 note=82 velocity=0 time=0
note_on channel=0 note=88 velocity=61 time=0
note_on channel=0 note=76 velocity=61 time=0
note_on channel=0 note=42 velocity=44 time=0
note_on channel=0 note=42 velocity=0 time=120
note_on channel=0 note=58 velocity=33 time=0
note_on channel=0 note=58 velocity=0 time=120
note_on channel=0 note=54 velocity=39 time=0
note_on channel=0 note=54 velocity=0 time=0
note_on channel=0 note=49 velocity=27 time=0
note_on channel=0 note=49 velocity=0 time=0
note_on channel=0 note=76 velocity=0 time=0
note_on channel=0 note=88 velocity=0 time=0
note_on channel=0 note=87 velocity=56 time=0
note_on channel=0 note=75 velocity=56 time=0
note_on channel=0 note=47 velocity=31 time=0
control_change channel=0 control=64 value=0 time=0
control_change channel=0 control=64 value=127 time=99
note_on channel=0 note=47 velocity=0 time=21
note_on channel=0 note=59 velocity=25 time=0
note_on channel=0 note=59 velocity=0 time=120
note_on channel=0 note=54 velocity=30 time=0
note_on channel=0 note=54 velocity=0 time=120
note_on channel=0 note=51 velocity=27 time=0
note_on channel=0 note=51 velocity=0 time=120
note_on channel=0 note=47 velocity=37 time=0
note_on channel=0 note=47 velocity=0 time=120
note_on channel=0 note=59 velocity=30 time=0
note_on channel=0 note=59 velocity=0 time=120
note_on channel=0 note=75 velocity=0 time=0
note_on channel=0 note=87 velocity=0 time=0
note_on channel=0 note=81 velocity=49 time=0
note_on channel=0 note=69 velocity=49 time=0
note_on channel=0 note=49 velocity=37 time=0
control_change channel=0 control=64 value=0 time=8
control_change channel=0 control=64 value=127 time=63
note_on channel=0 note=49 velocity=0 time=0
note_on channel=0 note=57 velocity=33 time=0
note_on channel=0 note=57 velocity=0 time=0
note_on channel=0 note=69 velocity=0 time=0
note_on channel=0 note=81 velocity=0 time=0
note_on channel=0 note=80 velocity=56 time=0
note_on channel=0 note=68 velocity=56 time=0
note_on channel=0 note=47 velocity=31 time=0
control_change channel=0 control=64 value=0 time=7
control_change channel=0 control=64 value=127 time=78
note_on channel=0 note=47 velocity=0 time=35
note_on channel=0 note=56 velocity=29 time=0
note_on channel=0 note=56 velocity=0 time=120
note_on channel=0 note=52 velocity=38 time=0
note_on channel=0 note=52 velocity=0 time=120
note_on channel=0 note=47 velocity=38 time=0
note_on channel=0 note=47 velocity=0 time=120
note_on channel=0 note=68 velocity=0 time=0
note_on channel=0 note=80 velocity=0 time=0
note_on channel=0 note=86 velocity=59 time=0
note_on channel=0 note=74 velocity=59 time=0
note_on channel=0 note=40 velocity=46 time=0
control_change channel=0 control=64 value=0 time=18
control_change channel=0 control=64 value=127 time=74
note_on channel=0 note=40 velocity=0 time=28
note_on channel=0 note=56 velocity=32 time=0
note_on channel=0 note=56 velocity=0 time=120
note_on channel=0 note=52 velocity=36 time=0
note_on channel=0 note=52 velocity=0 time=0
note_on channel=0 note=47 velocity=29 time=0
note_on channel=0 note=47 velocity=0 time=0
note_on channel=0 note=74 velocity=0 time=0
note_on channel=0 note=86 velocity=0 time=0
note_on channel=0 note=85 velocity=56 time=0
note_on channel=0 note=73 velocity=56 time=0
note_on channel=0 note=45 velocity=35 time=0
control_change channel=0 control=64 value=0 time=16
control_change channel=0 control=64 value=127 time=69
note_on channel=0 note=45 velocity=0 time=35
note_on channel=0 note=57 velocity=27 time=0
note_on channel=0 note=57 velocity=0 time=120
note_on channel=0 note=52 velocity=31 time=0
note_on channel=0 note=52 velocity=0 time=120
note_on channel=0 note=49 velocity=27 time=0
note_on channel=0 note=49 velocity=0 time=120
note_on channel=0 note=45 velocity=31 time=0
note_on channel=0 note=45 velocity=0 time=0
note_on channel=0 note=52 velocity=29 time=0
note_on channel=0 note=52 velocity=0 time=120
note_on channel=0 note=73 velocity=0 time=0
note_on channel=0 note=85 velocity=0 time=0
note_on channel=0 note=85 velocity=48 time=0
note_on channel=0 note=73 velocity=48 time=0
note_on channel=0 note=45 velocity=34 time=0
note_on channel=0 note=45 velocity=0 time=120
note_on channel=0 note=52 velocity=38 time=0
note_on channel=0 note=52 velocity=0 time=0
note_on channel=0 note=73 velocity=0 time=0
note_on channel=0 note=85 velocity=0 time=0
note_on channel=0 note=84 velocity=57 time=0
note_on channel=0 note=72 velocity=57 time=0
note_on channel=0 note=45 velocity=39 time=0
control_change channel=0 control=64 value=0 time=0
control_change channel=0 control=64 value=127 time=59
note_on channel=0 note=45 velocity=0 time=49
note_on channel=0 note=52 velocity=35 time=0
note_on channel=0 note=52 velocity=0 time=108
note_on channel=0 note=72 velocity=0 time=0
note_on channel=0 note=84 velocity=0 time=0
note_on channel=0 note=85 velocity=58 time=0
note_on channel=0 note=73 velocity=58 time=0
note_on channel=0 note=45 velocity=38 time=0
note_on channel=0 note=45 velocity=0 time=108
note_on channel=0 note=52 velocity=35 time=0
note_on channel=0 note=52 velocity=0 time=18
note_on channel=0 note=73 velocity=0 time=0
note_on channel=0 note=85 velocity=0 time=0
note_on channel=0 note=81 velocity=55 time=0
note_on channel=0 note=69 velocity=55 time=0
note_on channel=0 note=49 velocity=44 time=0
note_on channel=0 note=45 velocity=37 time=0
control_change channel=0 control=64 value=0 time=7
control_change channel=0 control=64 value=127 time=64
note_on channel=0 note=45 velocity=0 time=48
note_on channel=0 note=49 velocity=0 time=0
note_on channel=0 note=52 velocity=36 time=0
note_on channel=0 note=69 velocity=0 time=48
note_on channel=0 note=81 velocity=0 time=0
note_on channel=0 note=52 velocity=0 time=48
note_on channel=0 note=80 velocity=55 time=0
note_on channel=0 note=68 velocity=55 time=0
note_on channel=0 note=52 velocity=44 time=0
note_on channel=0 note=47 velocity=37 time=0
control_change channel=0 control=64 value=0 time=2
control_change channel=0 control=64 value=127 time=6
note_on channel=0 note=47 velocity=0 time=0
note_on channel=0 note=52 velocity=0 time=0
note_on channel=0 note=56 velocity=37 time=0
note_on channel=0 note=68 velocity=0 time=60
note_on channel=0 note=80 velocity=0 time=0
note_on channel=0 note=56 velocity=0 time=0
note_on channel=0 note=80 velocity=72 time=0
note_on channel=0 note=68 velocity=72 time=0
note_on channel=0 note=52 velocity=55 time=0
note_on channel=0 note=49 velocity=47 time=0
control_change channel=0 control=64 value=0 time=7
control_change channel=0 control=64 value=127 time=62
note_on channel=0 note=49 velocity=0 time=0
note_on channel=0 note=52 velocity=0 time=0
note_on channel=0 note=58 velocity=48 time=0
note_on channel=0 note=58 velocity=0 time=120
note_on channel=0 note=68 velocity=0 time=0
note_on channel=0 note=80 velocity=0 time=0
note_on channel=0 note=78 velocity=62 time=0
note_on channel=0 note=66 velocity=62 time=0
note_on channel=0 note=52 velocity=54 time=0
note_on channel=0 note=49 velocity=45 time=0
note_on channel=0 note=49 velocity=0 time=0
note_on channel=0 note=52 velocity=0 time=0
note_on channel=0 note=58 velocity=43 time=0
note_on channel=0 note=58 velocity=0 time=0
note_on channel=0 note=52 velocity=50 time=0
note_on channel=0 note=48 velocity=42 time=0
control_change channel=0 control=64 value=0 time=12
control_change channel=0 control=64 value=127 time=68
note_on channel=0 note=48 velocity=0 time=40
note_on channel=0 note=52 velocity=0 time=0
note_on channel=0 note=57 velocity=39 time=0
note_on channel=0 note=66 velocity=0 time=115
note_on channel=0 note=78 velocity=0 time=0
note_on channel=0 note=57 velocity=0 time=5
note_on channel=0 note=78 velocity=67 time=0
note_on channel=0 note=66 velocity=67 time=0
note_on channel=0 note=52 velocity=49 time=0
note_on channel=0 note=48 velocity=41 time=0
note_on channel=0 note=48 velocity=0 time=0
note_on channel=0 note=52 velocity=0 time=0
note_on channel=0 note=57 velocity=39 time=0
note_on channel=0 note=66 velocity=0 time=108
note_on channel=0 note=78 velocity=0 time=0
note_on channel=0 note=57 velocity=0 time=0
note_on channel=0 note=78 velocity=49 time=0
note_on channel=0 note=66 velocity=49 time=0
note_on channel=0 note=51 velocity=31 time=0
note_on channel=0 note=47 velocity=26 time=0
control_change channel=0 control=64 value=0 time=7
control_change channel=0 control=64 value=127 time=78
note_on channel=0 note=47 velocity=0 time=35
note_on channel=0 note=51 velocity=0 time=0
note_on channel=0 note=57 velocity=27 time=0
note_on channel=0 note=57 velocity=0 time=120
note_on channel=0 note=66 velocity=0 time=0
note_on channel=0 note=78 velocity=0 time=0
note_on channel=0 note=83 velocity=38 time=0
note_on channel=0 note=71 velocity=38 time=0
note_on channel=0 note=51 velocity=31 time=0
note_on channel=0 note=47 velocity=26 time=0
note_on channel=0 note=47 velocity=0 time=120
note_on channel=0 note=51 velocity=0 time=0
note_on channel=0 note=57 velocity=29 time=0
note_on channel=0 note=57 velocity=0 time=0
note_on channel=0 note=71 velocity=0 time=0
note_on channel=0 note=83 velocity=0 time=0
note_on channel=0 note=82 velocity=46 time=0
note_on channel=0 note=70 velocity=46 time=0
note_on channel=0 note=51 velocity=31 time=0
note_on channel=0 note=47 velocity=26 time=0
control_change channel=0 control=64 value=0 time=9
control_change channel=0 control=64 value=127 time=76
note_on channel=0 note=47 velocity=0 time=35
note_on channel=0 note=51 velocity=0 time=0
note_on channel=0 note=57 velocity=27 time=0
note_on channel=0 note=57 velocity=0 time=120
note_on channel=0 note=70 velocity=0 time=0
note_on channel=0 note=82 velocity=0 time=0
note_on channel=0 note=83 velocity=40 time=0
note_on channel=0 note=71 velocity=40 time=0
note_on channel=0 note=51 velocity=31 time=0
note_on channel=0 note=47 velocity=26 time=0
note_on channel=0 note=47 velocity=0 time=0
note_on channel=0 note=51 velocity=0 time=0
note_on channel=0 note=57 velocity=28 time=0
note_on channel=0 note=57 velocity=0 time=0
note_on channel=0 note=71 velocity=0 time=0
note_on channel=0 note=83 velocity=0 time=0
note_on channel=0 note=76 velocity=51 time=0
note_on channel=0 note=64 velocity=51 time=0
note_on channel=0 note=52 velocity=31 time=0
note_on channel=0 note=56 velocity=31 time=0
control_change channel=0 control=64 value=0 time=7
note_on channel=0 note=56 velocity=0 time=113
note_on channel=0 note=52 velocity=0 time=0
note_on channel=0 note=52 velocity=31 time=0
note_on channel=0 note=52 velocity=0 time=120
note_on channel=0 note=51 velocity=31 time=0
note_on channel=0 note=51 velocity=0 time=120
note_on channel=0 note=49 velocity=31 time=0
note_on channel=0 note=49 velocity=0 time=120
note_on channel=0 note=64 velocity=0 time=0
note_on channel=0 note=76 velocity=0 time=0
note_on channel=0 note=47 velocity=31 time=0
note_on channel=0 note=47 velocity=0 time=0
note_on channel=0 note=45 velocity=30 time=0
note_on channel=0 note=45 velocity=0 time=0
note_on channel=0 note=64 velocity=43 time=0
note_on channel=0 note=44 velocity=25 time=0
note_on channel=0 note=44 velocity=0 time=0
note_on channel=0 note=64 velocity=0 time=0
note_on channel=0 note=66 velocity=39 time=0
note_on channel=0 note=42 velocity=25 time=0
note_on channel=0 note=42 velocity=0 time=0
note_on channel=0 note=66 velocity=0 time=0
note_on channel=0 note=64 velocity=34 time=0
note_on channel=0 note=68 velocity=50 time=0
note_on channel=0 note=40 velocity=25 time=0
control_change channel=0 control=64 value=127 time=78
note_on channel=0 note=64 velocity=0 time=42
note_on channel=0 note=59 velocity=26 time=0
note_on channel=0 note=59 velocity=0 time=120
note_on channel=0 note=40 velocity=0 time=0
note_on channel=0 note=64 velocity=31 time=0
note_on channel=0 note=64 velocity=0 time=120
note_on channel=0 note=59 velocity=26 time=0
note_on channel=0 note=59 velocity=0 time=0
note_on channel=0 note=68 velocity=0 time=0
note_on channel=0 note=68 velocity=30 time=0
note_on channel=0 note=71 velocity=46 time=0
control_change channel=0 control=64 value=0 time=16
control_change channel=0 control=64 value=127 time=83
note_on channel=0 note=68 velocity=0 time=21
note_on channel=0 note=59 velocity=27 time=0
note_on channel=0 note=59 velocity=0 time=0
note_on channel=0 note=71 velocity=0 time=0
note_on channel=0 note=66 velocity=28 time=0
note_on channel=0 note=69 velocity=43 time=0
control_change channel=0 control=64 value=0 time=13
control_change channel=0 control=64 value=127 time=51
note_on channel=0 note=66 velocity=0 time=0
note_on channel=0 note=59 velocity=27 time=0
note_on channel=0 note=59 velocity=0 time=0
note_on channel=0 note=69 velocity=0 time=0
note_on channel=0 note=64 velocity=34 time=0
note_on channel=0 note=68 velocity=50 time=0
note_on channel=0 note=35 velocity=25 time=0
control_change channel=0 control=64 value=0 time=0
control_change channel=0 control=64 value=127 time=64
note_on channel=0 note=64 velocity=0 time=56
note_on channel=0 note=59 velocity=26 time=0
note_on channel=0 note=59 velocity=0 time=0
note_on channel=0 note=35 velocity=0 time=0
note_on channel=0 note=68 velocity=0 time=0
note_on channel=0 note=63 velocity=27 time=0
note_on channel=0 note=66 velocity=41 time=0
control_change channel=0 control=64 value=0 time=14
control_change channel=0 control=64 value=127 time=43
note_on channel=0 note=63 velocity=0 time=63
note_on channel=0 note=59 velocity=25 time=0
note_on channel=0 note=59 velocity=0 time=90
note_on channel=0 note=66 velocity=0 time=0
control_change channel=0 control=64 value=0 time=0
note_on channel=0 note=63 velocity=27 time=30
note_on channel=0 note=66 velocity=41 time=0
control_change channel=0 control=64 value=127 time=64
note_on channel=0 note=63 velocity=0 time=56
note_on channel=0 note=59 velocity=26 time=0
note_on channel=0 note=59 velocity=0 time=0
note_on channel=0 note=66 velocity=0 time=0
note_on channel=0 note=64 velocity=28 time=0
note_on channel=0 note=68 velocity=43 time=0
control_change channel=0 control=64 value=0 time=18
control_change channel=0 control=64 value=127 time=67
note_on channel=0 note=64 velocity=0 time=35
note_on channel=0 note=59 velocity=28 time=0
note_on channel=0 note=59 velocity=0 time=0
note_on channel=0 note=68 velocity=0 time=0
note_on channel=0 note=64 velocity=30 time=0
note_on channel=0 note=69 velocity=46 time=0
note_on channel=0 note=37 velocity=25 time=0
control_change channel=0 control=64 value=0 time=10
control_change channel=0 control=64 value=127 time=75
note_on channel=0 note=64 velocity=0 time=35
note_on channel=0 note=59 velocity=28 time=0
note_on channel=0 note=59 velocity=0 time=120
note_on channel=0 note=37 velocity=0 time=0
note_on channel=0 note=69 velocity=0 time=0
note_on channel=0 note=64 velocity=36 time=0
note_on channel=0 note=73 velocity=54 time=0
note_on channel=0 note=64 velocity=0 time=120
note_on channel=0 note=59 velocity=31 time=0
note_on channel=0 note=59 velocity=0 time=120
note_on channel=0 note=73 velocity=0 time=0
note_on channel=0 note=66 velocity=37 time=0
note_on channel=0 note=71 velocity=47 time=0
note_on channel=0 note=39 velocity=23 time=0
control_change channel=0 control=64 value=0 time=16
control_change channel=0 control=64 value=127 time=62
note_on channel=0 note=66 velocity=0 time=42
note_on channel=0 note=59 velocity=26 time=0
note_on channel=0 note=59 velocity=0 time=0
note_on channel=0 note=39 velocity=0 time=0
note_on channel=0 note=71 velocity=0 time=0
note_on channel=0 note=63 velocity=25 time=0
note_on channel=0 note=66 velocity=38 time=0
note_on channel=0 note=35 velocity=22 time=0
note_on channel=0 note=63 velocity=0 time=0
note_on channel=0 note=59 velocity=27 time=0
note_on channel=0 note=59 velocity=0 time=0
note_on channel=0 note=35 velocity=0 time=0
note_on channel=0 note=66 velocity=0 time=0
note_on channel=0 note=59 velocity=35 time=0
note_on channel=0 note=64 velocity=35 time=0
note_on channel=0 note=68 velocity=42 time=0
note_on channel=0 note=40 velocity=28 time=0
control_change channel=0 control=64 value=0 time=8
control_change channel=0 control=64 value=127 time=31
note_on channel=0 note=40 velocity=0 time=0
note_on channel=0 note=59 velocity=0 time=0
note_on channel=0 note=64 velocity=0 time=0
note_on channel=0 note=68 velocity=0 time=0
note_on channel=0 note=64 velocity=28 time=0
control_change channel=0 control=64 value=0 time=7
control_change channel=0 control=64 value=127 time=46
note_on channel=0 note=64 velocity=0 time=67
note_on channel=0 note=59 velocity=22 time=0
note_on channel=0 note=78 velocity=42 time=90
note_on channel=0 note=78 velocity=0 time=0
note_on channel=0 note=59 velocity=0 time=0
note_on channel=0 note=76 velocity=47 time=0
note_on channel=0 note=64 velocity=28 time=0
control_change channel=0 control=64 value=0 time=18
note_on channel=0 note=64 velocity=0 time=102
note_on channel=0 note=76 velocity=0 time=0
note_on channel=0 note=75 velocity=42 time=0
note_on channel=0 note=59 velocity=24 time=0
note_on channel=0 note=59 velocity=0 time=120
note_on channel=0 note=75 velocity=0 time=0
note_on channel=0 note=76 velocity=48 time=0
note_on channel=0 note=64 velocity=28 time=0
note_on channel=0 note=64 velocity=0 time=120
note_on channel=0 note=76 velocity=0 time=0
note_on channel=0 note=78 velocity=43 time=0
note_on channel=0 note=59 velocity=25 time=0
note_on channel=0 note=78 velocity=0 time=90
note_on channel=0 note=81 velocity=50 time=0
note_on channel=0 note=81 velocity=0 time=30
note_on channel=0 note=59 velocity=0 time=0
note_on channel=0 note=80 velocity=55 time=0
note_on channel=0 note=64 velocity=30 time=0
note_on channel=0 note=64 velocity=0 time=120
note_on channel=0 note=80 velocity=0 time=0
note_on channel=0 note=78 velocity=50 time=0
note_on channel=0 note=59 velocity=29 time=0
note_on channel=0 note=59 velocity=0 time=0
note_on channel=0 note=78 velocity=0 time=0
note_on channel=0 note=80 velocity=52 time=0
note_on channel=0 note=64 velocity=32 time=0
note_on channel=0 note=64 velocity=0 time=0
note_on channel=0 note=80 velocity=0 time=0
note_on channel=0 note=81 velocity=54 time=0
note_on channel=0 note=59 velocity=31 time=0
note_on channel=0 note=59 velocity=0 time=0
note_on channel=0 note=81 velocity=0 time=0
note_on channel=0 note=71 velocity=45 time=0
note_on channel=0 note=83 velocity=53 time=0
note_on channel=0 note=68 velocity=35 time=0
control_change channel=0 control=64 value=127 time=99
note_on channel=0 note=68 velocity=0 time=21
note_on channel=0 note=59 velocity=32 time=0
note_on channel=0 note=59 velocity=0 time=120
note_on channel=0 note=83 velocity=0 time=0
note_on channel=0 note=71 velocity=0 time=0
note_on channel=0 note=81 velocity=53 time=0
note_on channel=0 note=69 velocity=45 time=0
note_on channel=0 note=66 velocity=39 time=0
control_change channel=0 control=64 value=0 time=7
control_change channel=0 control=64 value=127 time=71
note_on channel=0 note=66 velocity=0 time=0
note_on channel=0 note=59 velocity=36 time=0
note_on channel=0 note=59 velocity=0 time=0
note_on channel=0 note=69 velocity=0 time=0
note_on channel=0 note=81 velocity=0 time=0
note_on channel=0 note=80 velocity=63 time=0
note_on channel=0 note=68 velocity=53 time=0
note_on channel=0 note=64 velocity=49 time=0
control_change channel=0 control=64 value=0 time=7
control_change channel=0 control=64 value=127 time=45
note_on channel=0 note=64 velocity=0 time=68
note_on channel=0 note=59 velocity=41 time=0
note_on channel=0 note=59 velocity=0 time=120
note_on channel=0 note=68 velocity=0 time=0
note_on channel=0 note=80 velocity=0 time=0
note_on channel=0 note=66 velocity=51 time=0
note_on channel=0 note=78 velocity=61 time=0
note_on channel=0 note=63 velocity=48 time=0
control_change channel=0 control=64 value=0 time=15
control_change channel=0 control=64 value=127 time=48
note_on channel=0 note=63 velocity=0 time=0
note_on channel=0 note=59 velocity=42 time=0
control_change channel=0 control=64 value=0 time=92
note_on channel=0 note=78 velocity=0 time=16
note_on channel=0 note=66 velocity=0 time=0
note_on channel=0 note=59 velocity=0 time=0
note_on channel=0 note=66 velocity=58 time=0
note_on channel=0 note=78 velocity=70 time=0
note_on channel=0 note=63 velocity=46 time=0
control_change channel=0 control=64 value=127 time=75
note_on channel=0 note=63 velocity=0 time=45
note_on channel=0 note=59 velocity=39 time=0
note_on channel=0 note=59 velocity=0 time=120
note_on channel=0 note=78 velocity=0 time=0
note_on channel=0 note=66 velocity=0 time=0
note_on channel=0 note=80 velocity=64 time=0
note_on channel=0 note=68 velocity=54 time=0
note_on channel=0 note=65 velocity=49 time=0
control_change channel=0 control=64 value=0 time=8
control_change channel=0 control=64 value=127 time=55
note_on channel=0 note=65 velocity=0 time=57
note_on channel=0 note=59 velocity=44 time=0
note_on channel=0 note=59 velocity=0 time=120
note_on channel=0 note=68 velocity=0 time=0
note_on channel=0 note=80 velocity=0 time=0
note_on channel=0 note=69 velocity=65 time=0
note_on channel=0 note=81 velocity=77 time=0
note_on channel=0 note=66 velocity=58 time=0
control_change channel=0 control=64 value=0 time=6
control_change channel=0 control=64 value=127 time=26
note_on channel=0 note=66 velocity=0 time=88
note_on channel=0 note=59 velocity=48 time=0
note_on channel=0 note=59 velocity=0 time=120
note_on channel=0 note=81 velocity=0 time=0
note_on channel=0 note=69 velocity=0 time=0
note_on channel=0 note=85 velocity=68 time=0
note_on channel=0 note=73 velocity=57 time=0
note_on channel=0 note=69 velocity=53 time=0
control_change channel=0 control=64 value=0 time=7
control_change channel=0 control=64 value=127 time=39
note_on channel=0 note=69 velocity=0 time=0
note_on channel=0 note=59 velocity=47 time=0
note_on channel=0 note=59 velocity=0 time=0
note_on channel=0 note=73 velocity=0 time=0
note_on channel=0 note=85 velocity=0 time=0
note_on channel=0 note=83 velocity=80 time=0
note_on channel=0 note=71 velocity=67 time=0
note_on channel=0 note=68 velocity=57 time=0
control_change channel=0 control=64 value=0 time=14
control_change channel=0 control=64 value=127 time=32
note_on channel=0 note=68 velocity=0 time=74
note_on channel=0 note=59 velocity=44 time=0
note_on channel=0 note=59 velocity=0 time=0
note_on channel=0 note=71 velocity=0 time=0
note_on channel=0 note=83 velocity=0 time=0
note_on channel=0 note=75 velocity=70 time=0
note_on channel=0 note=81 velocity=70 time=0
note_on channel=0 note=87 velocity=83 time=0
note_on channel=0 note=66 velocity=54 time=0
control_change channel=0 control=64 value=0 time=11
control_change channel=0 control=64 value=127 time=39
note_on channel=0 note=66 velocity=0 time=70
note_on channel=0 note=59 velocity=46 time=0
note_on channel=0 note=75 velocity=0 time=60
note_on channel=0 note=87 velocity=0 time=0
note_on channel=0 note=81 velocity=0 time=0
control_change channel=0 control=64 value=0 time=18
note_on channel=0 note=59 velocity=0 time=42
note_on channel=0 note=76 velocity=73 time=0
note_on channel=0 note=80 velocity=73 time=0
note_on channel=0 note=88 velocity=88 time=0
note_on channel=0 note=64 velocity=59 time=0
control_change channel=0 control=64 value=127 time=78
note_on channel=0 note=64 velocity=0 time=0
note_on channel=0 note=59 velocity=49 time=0
note_on channel=0 note=59 velocity=0 time=120
note_on channel=0 note=56 velocity=58 time=0
note_on channel=0 note=56 velocity=0 time=120
note_on channel=0 note=59 velocity=50 time=0
note_on channel=0 note=59 velocity=0 time=0
note_on channel=0 note=88 velocity=0 time=0
note_on channel=0 note=80 velocity=0 time=0
note_on channel=0 note=76 velocity=0 time=0
note_on channel=0 note=52 velocity=59 time=0
control_change channel=0 control=64 value=0 time=17
note_on channel=0 note=52 velocity=0 time=0
note_on channel=0 note=64 velocity=73 time=0
note_on channel=0 note=68 velocity=87 time=0
note_on channel=0 note=68 velocity=0 time=120
note_on channel=0 note=64 velocity=0 time=0
note_on channel=0 note=64 velocity=81 time=0
note_on channel=0 note=68 velocity=96 time=0
note_on channel=0 note=61 velocity=67 time=0
control_change channel=0 control=64 value=127 time=78
note_on channel=0 note=61 velocity=0 time=0
note_on channel=0 note=56 velocity=57 time=0
note_on channel=0 note=56 velocity=0 time=120
note_on channel=0 note=52 velocity=62 time=0
note_on channel=0 note=52 velocity=0 time=120
note_on channel=0 note=56 velocity=57 time=0
note_on channel=0 note=56 velocity=0 time=120
note_on channel=0 note=49 velocity=70 time=0
note_on channel=0 note=49 velocity=0 time=0
note_on channel=0 note=68 velocity=0 time=0
note_on channel=0 note=64 velocity=0 time=0
note_on channel=0 note=76 velocity=34 time=0
note_on channel=0 note=68 velocity=28 time=0
note_on channel=0 note=64 velocity=28 time=0
note_on channel=0 note=61 velocity=26 time=0
control_change channel=0 control=64 value=0 time=1
note_on channel=0 note=61 velocity=0 time=119
note_on channel=0 note=76 velocity=0 time=0
note_on channel=0 note=68 velocity=0 time=0
note_on channel=0 note=64 velocity=0 time=0
note_on channel=0 note=75 velocity=39 time=0
note_on channel=0 note=68 velocity=33 time=0
note_on channel=0 note=66 velocity=33 time=0
note_on channel=0 note=63 velocity=33 time=0
note_on channel=0 note=60 velocity=33 time=0
control_change channel=0 control=64 value=127 time=23
note_on channel=0 note=60 velocity=0 time=0
note_on channel=0 note=56 velocity=27 time=0
note_on channel=0 note=56 velocity=0 time=120
note_on channel=0 note=51 velocity=33 time=0
note_on channel=0 note=51 velocity=0 time=120
note_on channel=0 note=56 velocity=27 time=0
note_on channel=0 note=56 velocity=0 time=120
note_on channel=0 note=48 velocity=36 time=0
note_on channel=0 note=48 velocity=0 time=0
note_on channel=0 note=66 velocity=0 time=0
note_on channel=0 note=75 velocity=0 time=0
note_on channel=0 note=68 velocity=0 time=0
note_on channel=0 note=63 velocity=0 time=0
note_on channel=0 note=63 velocity=73 time=0
note_on channel=0 note=68 velocity=87 time=0
note_on channel=0 note=60 velocity=77 time=0
control_change channel=0 control=64 value=0 time=6
note_on channel=0 note=60 velocity=0 time=114
note_on channel=0 note=68 velocity=0 time=0
note_on channel=0 note=63 velocity=0 time=0
note_on channel=0 note=64 velocity=81 time=0
note_on channel=0 note=62 velocity=81 time=0
note_on channel=0 note=68 velocity=96 time=0
note_on channel=0 note=59 velocity=67 time=0
control_change channel=0 control=64 value=127 time=78
note_on channel=0 note=59 velocity=0 time=42
note_on channel=0 note=56 velocity=57 time=0
note_on channel=0 note=56 velocity=0 time=120
note_on channel=0 note=52 velocity=62 time=0
note_on channel=0 note=52 velocity=0 time=120
note_on channel=0 note=56 velocity=57 time=0
note_on channel=0 note=56 velocity=0 time=120
note_on channel=0 note=47 velocity=70 time=0
note_on channel=0 note=47 velocity=0 time=0
note_on channel=0 note=64 velocity=0 time=0
note_on channel=0 note=62 velocity=0 time=0
note_on channel=0 note=68 velocity=0 time=0
note_on channel=0 note=62 velocity=28 time=0
note_on channel=0 note=74 velocity=34 time=0
note_on channel=0 note=64 velocity=28 time=0
note_on channel=0 note=59 velocity=26 time=0
control_change channel=0 control=64 value=0 time=1
note_on channel=0 note=59 velocity=0 time=119
note_on channel=0 note=62 velocity=0 time=0
note_on channel=0 note=74 velocity=0 time=0
note_on channel=0 note=64 velocity=0 time=0
note_on channel=0 note=73 velocity=39 time=0
note_on channel=0 note=64 velocity=33 time=0
note_on channel=0 note=61 velocity=33 time=0
note_on channel=0 note=57 velocity=33 time=0
control_change channel=0 control=64 value=127 time=23
note_on channel=0 note=57 velocity=0 time=0
note_on channel=0 note=52 velocity=27 time=0
note_on channel=0 note=52 velocity=0 time=120
note_on channel=0 note=49 velocity=33 time=0
note_on channel=0 note=49 velocity=0 time=120
note_on channel=0 note=52 velocity=27 time=0
note_on channel=0 note=52 velocity=0 time=120
note_on channel=0 note=45 velocity=36 time=0
note_on channel=0 note=45 velocity=0 time=0
note_on channel=0 note=73 velocity=0 time=0
note_on channel=0 note=64 velocity=0 time=0
note_on channel=0 note=61 velocity=0 time=0
note_on channel=0 note=61 velocity=87 time=0
note_on channel=0 note=57 velocity=83 time=0
control_change channel=0 control=64 value=0 time=0
note_on channel=0 note=57 velocity=0 time=120
note_on channel=0 note=61 velocity=0 time=0
note_on channel=0 note=59 velocity=81 time=0
note_on channel=0 note=61 velocity=96 time=0
note_on channel=0 note=56 velocity=67 time=0
control_change channel=0 control=64 value=127 time=78
note_on channel=0 note=56 velocity=0 time=0
note_on channel=0 note=53 velocity=57 time=0
note_on channel=0 note=53 velocity=0 time=120
note_on channel=0 note=49 velocity=62 time=0
note_on channel=0 note=49 velocity=0 time=120
note_on channel=0 note=53 velocity=57 time=0
note_on channel=0 note=53 velocity=0 time=120
note_on channel=0 note=44 velocity=70 time=0
note_on channel=0 note=44 velocity=0 time=0
note_on channel=0 note=61 velocity=0 time=0
note_on channel=0 note=59 velocity=0 time=0
note_on channel=0 note=71 velocity=34 time=0
note_on channel=0 note=61 velocity=28 time=0
note_on channel=0 note=59 velocity=28 time=0
note_on channel=0 note=56 velocity=26 time=0
control_change channel=0 control=64 value=0 time=1
note_on channel=0 note=56 velocity=0 time=119
note_on channel=0 note=71 velocity=0 time=0
note_on channel=0 note=61 velocity=0 time=0
note_on channel=0 note=59 velocity=0 time=0
note_on channel=0 note=69 velocity=39 time=0
note_on channel=0 note=61 velocity=33 time=0
note_on channel=0 note=57 velocity=33 time=0
note_on channel=0 note=54 velocity=33 time=0
control_change channel=0 control=64 value=127 time=23
note_on channel=0 note=54 velocity=0 time=0
note_on channel=0 note=49 velocity=27 time=0
note_on channel=0 note=49 velocity=0 time=120
note_on channel=0 note=45 velocity=33 time=0
note_on channel=0 note=45 velocity=0 time=120
note_on channel=0 note=49 velocity=27 time=0
note_on channel=0 note=49 velocity=0 time=120
note_on channel=0 note=42 velocity=36 time=0
note_on channel=0 note=42 velocity=0 time=0
note_on channel=0 note=69 velocity=0 time=0
note_on channel=0 note=61 velocity=0 time=0
note_on channel=0 note=57 velocity=0 time=0
note_on channel=0 note=73 velocity=73 time=0
note_on channel=0 note=78 velocity=73 time=0
note_on channel=0 note=81 velocity=87 time=0
note_on channel=0 note=66 velocity=77 time=0
control_change channel=0 control=64 value=0 time=6
note_on channel=0 note=66 velocity=0 time=114
note_on channel=0 note=73 velocity=0 time=0
note_on channel=0 note=78 velocity=0 time=0
note_on channel=0 note=81 velocity=0 time=0
note_on channel=0 note=78 velocity=81 time=0
note_on channel=0 note=71 velocity=81 time=0
note_on channel=0 note=81 velocity=96 time=0
note_on channel=0 note=63 velocity=67 time=0
control_change channel=0 control=64 value=127 time=78
note_on channel=0 note=63 velocity=0 time=42
note_on channel=0 note=59 velocity=57 time=0
note_on channel=0 note=59 velocity=0 time=120
note_on channel=0 note=54 velocity=62 time=0
note_on channel=0 note=54 velocity=0 time=120
note_on channel=0 note=59 velocity=57 time=0
note_on channel=0 note=59 velocity=0 time=120
note_on channel=0 note=51 velocity=70 time=0
note_on channel=0 note=51 velocity=0 time=0
note_on channel=0 note=78 velocity=0 time=0
note_on channel=0 note=71 velocity=0 time=0
note_on channel=0 note=81 velocity=0 time=0
note_on channel=0 note=66 velocity=73 time=0
note_on channel=0 note=69 velocity=87 time=0
note_on channel=0 note=51 velocity=77 time=0
control_change channel=0 control=64 value=0 time=1
control_change channel=0 control=64 value=0 time=0
control_change channel=0 control=64 value=0 time=5
note_on channel=0 note=51 velocity=0 time=114
note_on channel=0 note=69 velocity=0 time=0
note_on channel=0 note=66 velocity=0 time=0
note_on channel=0 note=64 velocity=81 time=0
note_on channel=0 note=69 velocity=96 time=0
note_on channel=0 note=48 velocity=67 time=0
control_change channel=0 control=64 value=127 time=78
note_on channel=0 note=48 velocity=0 time=0
note_on channel=0 note=45 velocity=57 time=0
note_on channel=0 note=45 velocity=0 time=120
note_on channel=0 note=40 velocity=62 time=0
note_on channel=0 note=40 velocity=0 time=120
note_on channel=0 note=45 velocity=57 time=0
note_on channel=0 note=45 velocity=0 time=120
note_on channel=0 note=36 velocity=70 time=0
note_on channel=0 note=36 velocity=0 time=0
note_on channel=0 note=69 velocity=0 time=0
note_on channel=0 note=64 velocity=0 time=0
note_on channel=0 note=69 velocity=73 time=0
note_on channel=0 note=76 velocity=73 time=0
note_on channel=0 note=81 velocity=87 time=0
note_on channel=0 note=48 velocity=63 time=0
note_on channel=0 note=60 velocity=77 time=0
control_change channel=0 control=64 value=0 time=6
note_on channel=0 note=60 velocity=0 time=114
note_on channel=0 note=81 velocity=0 time=0
note_on channel=0 note=69 velocity=0 time=0
note_on channel=0 note=76 velocity=0 time=0
note_on channel=0 note=48 velocity=0 time=0
note_on channel=0 note=75 velocity=81 time=0
note_on channel=0 note=78 velocity=81 time=0
note_on channel=0 note=69 velocity=81 time=0
note_on channel=0 note=81 velocity=96 time=0
note_on channel=0 note=47 velocity=48 time=0
note_on channel=0 note=59 velocity=48 time=0
control_change channel=0 control=64 value=127 time=78
note_on channel=0 note=59 velocity=0 time=120
note_on channel=0 note=78 velocity=0 time=0
note_on channel=0 note=69 velocity=0 time=0
note_on channel=0 note=75 velocity=0 time=0
note_on channel=0 note=47 velocity=0 time=0
note_on channel=0 note=81 velocity=0 time=0
note_on channel=0 note=71 velocity=33 time=0
note_on channel=0 note=71 velocity=0 time=120
note_on channel=0 note=73 velocity=27 time=0
note_on channel=0 note=73 velocity=0 time=120
note_on channel=0 note=71 velocity=33 time=0
note_on channel=0 note=71 velocity=0 time=120
note_on channel=0 note=73 velocity=29 time=0
note_on channel=0 note=73 velocity=0 time=120
note_on channel=0 note=71 velocity=33 time=0
note_on channel=0 note=71 velocity=0 time=0
note_on channel=0 note=73 velocity=29 time=0
note_on channel=0 note=73 velocity=0 time=0
note_on channel=0 note=81 velocity=53 time=0
note_on channel=0 note=90 velocity=53 time=0
note_on channel=0 note=71 velocity=32 time=0
note_on channel=0 note=66 velocity=41 time=0
note_on channel=0 note=63 velocity=34 time=0
control_change channel=0 control=64 value=0 time=0
note_on channel=0 note=71 velocity=0 time=120
note_on channel=0 note=73 velocity=27 time=0
note_on channel=0 note=73 velocity=0 time=120
note_on channel=0 note=71 velocity=31 time=0
note_on channel=0 note=71 velocity=0 time=120
note_on channel=0 note=73 velocity=26 time=0
note_on channel=0 note=73 velocity=0 time=120
note_on channel=0 note=71 velocity=38 time=0
note_on channel=0 note=71 velocity=0 time=120
note_on channel=0 note=73 velocity=32 time=0
note_on channel=0 note=73 velocity=0 time=0
note_on channel=0 note=63 velocity=0 time=0
note_on channel=0 note=81 velocity=0 time=0
note_on channel=0 note=90 velocity=0 time=0
note_on channel=0 note=66 velocity=0 time=0
note_on channel=0 note=80 velocity=57 time=0
note_on channel=0 note=88 velocity=57 time=0
note_on channel=0 note=64 velocity=46 time=0
note_on channel=0 note=68 velocity=46 time=0
note_on channel=0 note=71 velocity=46 time=0
note_on channel=0 note=71 velocity=0 time=120
note_on channel=0 note=73 velocity=36 time=0
note_on channel=0 note=64 velocity=0 time=96
note_on channel=0 note=68 velocity=0 time=0
note_on channel=0 note=80 velocity=0 time=0
note_on channel=0 note=88 velocity=0 time=0
note_on channel=0 note=73 velocity=0 time=0
note_on channel=0 note=88 velocity=62 time=0
note_on channel=0 note=80 velocity=62 time=0
note_on channel=0 note=64 velocity=52 time=0
note_on channel=0 note=68 velocity=52 time=0
note_on channel=0 note=71 velocity=52 time=0
control_change channel=0 control=64 value=0 time=50
note_on channel=0 note=71 velocity=0 time=70
note_on channel=0 note=73 velocity=29 time=0
note_on channel=0 note=73 velocity=0 time=120
note_on channel=0 note=68 velocity=0 time=0
note_on channel=0 note=88 velocity=0 time=0
note_on channel=0 note=80 velocity=0 time=0
note_on channel=0 note=64 velocity=0 time=0
note_on channel=0 note=78 velocity=48 time=0
note_on channel=0 note=87 velocity=48 time=0
note_on channel=0 note=71 velocity=32 time=0
note_on channel=0 note=69 velocity=41 time=0
note_on channel=0 note=66 velocity=34 time=0
note_on channel=0 note=71 velocity=0 time=120
note_on channel=0 note=73 velocity=28 time=0
note_on channel=0 note=69 velocity=0 time=96
note_on channel=0 note=66 velocity=0 time=0
note_on channel=0 note=78 velocity=0 time=0
note_on channel=0 note=87 velocity=0 time=0
note_on channel=0 note=73 velocity=0 time=0
note_on channel=0 note=87 velocity=47 time=0
note_on channel=0 note=78 velocity=47 time=0
note_on channel=0 note=66 velocity=28 time=0
note_on channel=0 note=69 velocity=33 time=0
note_on channel=0 note=71 velocity=26 time=0
note_on channel=0 note=71 velocity=0 time=120
note_on channel=0 note=73 velocity=24 time=0
note_on channel=0 note=73 velocity=0 time=0
note_on channel=0 note=69 velocity=0 time=0
note_on channel=0 note=87 velocity=0 time=0
note_on channel=0 note=78 velocity=0 time=0
note_on channel=0 note=66 velocity=0 time=0
note_on channel=0 note=80 velocity=39 time=0
note_on channel=0 note=88 velocity=39 time=0
note_on channel=0 note=64 velocity=28 time=0
note_on channel=0 note=68 velocity=33 time=0
note_on channel=0 note=71 velocity=26 time=0
note_on channel=0 note=71 velocity=0 time=120
note_on channel=0 note=73 velocity=24 time=0
note_on channel=0 note=73 velocity=0 time=0
note_on channel=0 note=68 velocity=0 time=0
note_on channel=0 note=80 velocity=0 time=0
note_on channel=0 note=88 velocity=0 time=0
note_on channel=0 note=64 velocity=0 time=0
note_on channel=0 note=81 velocity=53 time=0
note_on channel=0 note=90 velocity=53 time=0
note_on channel=0 note=71 velocity=32 time=0
note_on channel=0 note=66 velocity=41 time=0
note_on channel=0 note=63 velocity=34 time=0
control_change channel=0 control=64 value=0 time=0
note_on channel=0 note=71 velocity=0 time=120
note_on channel=0 note=73 velocity=27 time=0
note_on channel=0 note=73 velocity=0 time=120
note_on channel=0 note=71 velocity=31 time=0
note_on channel=0 note=71 velocity=0 time=120
note_on channel=0 note=73 velocity=26 time=0
note_on channel=0 note=73 velocity=0 time=120
note_on channel=0 note=71 velocity=32 time=0
note_on channel=0 note=71 velocity=0 time=120
note_on channel=0 note=73 velocity=32 time=0
note_on channel=0 note=73 velocity=0 time=0
note_on channel=0 note=63 velocity=0 time=0
note_on channel=0 note=81 velocity=0 time=0
note_on channel=0 note=90 velocity=0 time=0
note_on channel=0 note=66 velocity=0 time=0
note_on channel=0 note=80 velocity=57 time=0
note_on channel=0 note=88 velocity=57 time=0
note_on channel=0 note=64 velocity=45 time=0
note_on channel=0 note=68 velocity=45 time=0
note_on channel=0 note=71 velocity=45 time=0
note_on channel=0 note=71 velocity=0 time=120
note_on channel=0 note=73 velocity=41 time=0
note_on channel=0 note=64 velocity=0 time=96
note_on channel=0 note=68 velocity=0 time=0
note_on channel=0 note=80 velocity=0 time=0
note_on channel=0 note=88 velocity=0 time=0
note_on channel=0 note=73 velocity=0 time=0
note_on channel=0 note=87 velocity=62 time=0
note_on channel=0 note=78 velocity=62 time=0
note_on channel=0 note=71 velocity=37 time=0
note_on channel=0 note=69 velocity=47 time=0
note_on channel=0 note=66 velocity=39 time=0
control_change channel=0 control=64 value=0 time=50
note_on channel=0 note=71 velocity=0 time=70
note_on channel=0 note=73 velocity=29 time=0
note_on channel=0 note=73 velocity=0 time=120
note_on channel=0 note=66 velocity=0 time=0
note_on channel=0 note=87 velocity=0 time=0
note_on channel=0 note=78 velocity=0 time=0
note_on channel=0 note=69 velocity=0 time=0
note_on channel=0 note=90 velocity=48 time=0
note_on channel=0 note=81 velocity=48 time=0
note_on channel=0 note=71 velocity=32 time=0
note_on channel=0 note=66 velocity=41 time=0
note_on channel=0 note=63 velocity=34 time=0
note_on channel=0 note=71 velocity=0 time=120
note_on channel=0 note=73 velocity=28 time=0
note_on channel=0 note=66 velocity=0 time=96
note_on channel=0 note=63 velocity=0 time=0
note_on channel=0 note=90 velocity=0 time=0
note_on channel=0 note=81 velocity=0 time=0
note_on channel=0 note=73 velocity=0 time=0
note_on channel=0 note=88 velocity=47 time=0
note_on channel=0 note=80 velocity=47 time=0
note_on channel=0 note=64 velocity=28 time=0
note_on channel=0 note=68 velocity=33 time=0
note_on channel=0 note=71 velocity=26 time=0
note_on channel=0 note=71 velocity=0 time=120
note_on channel=0 note=73 velocity=24 time=0
note_on channel=0 note=73 velocity=0 time=0
note_on channel=0 note=68 velocity=0 time=0
note_on channel=0 note=88 velocity=0 time=0
note_on channel=0 note=80 velocity=0 time=0
note_on channel=0 note=64 velocity=0 time=0
note_on channel=0 note=75 velocity=39 time=0
note_on channel=0 note=78 velocity=39 time=0
note_on channel=0 note=87 velocity=39 time=0
note_on channel=0 note=66 velocity=28 time=0
note_on channel=0 note=69 velocity=33 time=0
note_on channel=0 note=71 velocity=26 time=0
note_on channel=0 note=71 velocity=0 time=120
note_on channel=0 note=73 velocity=24 time=0
note_on channel=0 note=73 velocity=0 time=120
note_on channel=0 note=69 velocity=0 time=0
note_on channel=0 note=87 velocity=0 time=0
note_on channel=0 note=75 velocity=0 time=0
note_on channel=0 note=78 velocity=0 time=0
note_on channel=0 note=66 velocity=0 time=0
note_on channel=0 note=88 velocity=39 time=0
note_on channel=0 note=76 velocity=39 time=0
note_on channel=0 note=68 velocity=28 time=0
note_on channel=0 note=71 velocity=33 time=0
control_change channel=0 control=64 value=127 time=36
note_on channel=0 note=71 velocity=0 time=84
note_on channel=0 note=76 velocity=27 time=0
note_on channel=0 note=76 velocity=0 time=0
note_on channel=0 note=68 velocity=0 time=0
note_on channel=0 note=76 velocity=0 time=0
note_on channel=0 note=88 velocity=0 time=0
note_on channel=0 note=87 velocity=34 time=0
note_on channel=0 note=71 velocity=31 time=0
control_change channel=0 control=64 value=0 time=7
control_change channel=0 control=64 value=127 time=57
note_on channel=0 note=71 velocity=0 time=56
note_on channel=0 note=76 velocity=27 time=0
note_on channel=0 note=76 velocity=0 time=120
note_on channel=0 note=87 velocity=0 time=0
note_on channel=0 note=85 velocity=39 time=0
note_on channel=0 note=69 velocity=33 time=0
control_change channel=0 control=64 value=0 time=7
control_change channel=0 control=64 value=127 time=71
note_on channel=0 note=69 velocity=0 time=42
note_on channel=0 note=76 velocity=26 time=0
note_on channel=0 note=76 velocity=0 time=0
note_on channel=0 note=85 velocity=0 time=0
note_on channel=0 note=83 velocity=35 time=0
note_on channel=0 note=68 velocity=30 time=0
control_change channel=0 control=64 value=0 time=14
control_change channel=0 control=64 value=127 time=64
note_on channel=0 note=68 velocity=0 time=0
note_on channel=0 note=76 velocity=27 time=0
note_on channel=0 note=76 velocity=0 time=0
note_on channel=0 note=83 velocity=0 time=0
note_on channel=0 note=85 velocity=39 time=0
note_on channel=0 note=69 velocity=33 time=0
control_change channel=0 control=64 value=0 time=23
control_change channel=0 control=64 value=127 time=46
note_on channel=0 note=69 velocity=0 time=51
note_on channel=0 note=76 velocity=26 time=0
note_on channel=0 note=76 velocity=0 time=120
note_on channel=0 note=85 velocity=0 time=0
note_on channel=0 note=83 velocity=37 time=0
note_on channel=0 note=71 velocity=31 time=0
control_change channel=0 control=64 value=0 time=16
control_change channel=0 control=64 value=127 time=47
note_on channel=0 note=71 velocity=0 time=57
note_on channel=0 note=76 velocity=25 time=0
note_on channel=0 note=76 velocity=0 time=120
note_on channel=0 note=83 velocity=0 time=0
note_on channel=0 note=81 velocity=39 time=0
note_on channel=0 note=73 velocity=33 time=0
control_change channel=0 control=64 value=0 time=19
control_change channel=0 control=64 value=127 time=33
note_on channel=0 note=73 velocity=0 time=0
note_on channel=0 note=76 velocity=25 time=0
note_on channel=0 note=76 velocity=0 time=120
note_on channel=0 note=81 velocity=0 time=0
note_on channel=0 note=80 velocity=34 time=0
note_on channel=0 note=70 velocity=30 time=0
control_change channel=0 control=64 value=0 time=6
control_change channel=0 control=64 value=127 time=51
note_on channel=0 note=70 velocity=0 time=0
note_on channel=0 note=76 velocity=27 time=0
note_on channel=0 note=80 velocity=0 time=110
note_on channel=0 note=76 velocity=0 time=0
note_on channel=0 note=80 velocity=39 time=0
note_on channel=0 note=71 velocity=33 time=0
control_change channel=0 control=64 value=0 time=7
control_change channel=0 control=64 value=0 time=0
note_on channel=0 note=73 velocity=27 time=113
note_on channel=0 note=73 velocity=0 time=120
note_on channel=0 note=75 velocity=32 time=0
note_on channel=0 note=75 velocity=0 time=120
note_on channel=0 note=76 velocity=26 time=0
note_on channel=0 note=76 velocity=0 time=0
note_on channel=0 note=75 velocity=31 time=0
note_on channel=0 note=75 velocity=0 time=120
note_on channel=0 note=76 velocity=27 time=0
note_on channel=0 note=76 velocity=0 time=0
note_on channel=0 note=80 velocity=0 time=0
note_on channel=0 note=81 velocity=38 time=0
note_on channel=0 note=78 velocity=29 time=0
note_on channel=0 note=78 velocity=0 time=0
note_on channel=0 note=81 velocity=0 time=0
note_on channel=0 note=83 velocity=33 time=0
note_on channel=0 note=80 velocity=27 time=0
note_on channel=0 note=80 velocity=0 time=0
note_on channel=0 note=83 velocity=0 time=0
note_on channel=0 note=71 velocity=0 time=0
note_on channel=0 note=78 velocity=39 time=0
note_on channel=0 note=75 velocity=33 time=0
note_on channel=0 note=71 velocity=33 time=0
note_on channel=0 note=71 velocity=0 time=0
note_on channel=0 note=75 velocity=0 time=0
note_on channel=0 note=78 velocity=0 time=0
note_on channel=0 note=71 velocity=39 time=0
note_on channel=0 note=61 velocity=33 time=0
note_on channel=0 note=61 velocity=0 time=27
note_on channel=0 note=71 velocity=0 time=0
note_on channel=0 note=73 velocity=34 time=0
note_on channel=0 note=59 velocity=30 time=0
note_on channel=0 note=59 velocity=0 time=57
note_on channel=0 note=73 velocity=0 time=0
note_on channel=0 note=71 velocity=39 time=0
note_on channel=0 note=61 velocity=33 time=0
note_on channel=0 note=61 velocity=0 time=0
note_on channel=0 note=71 velocity=0 time=0
note_on channel=0 note=73 velocity=35 time=0
note_on channel=0 note=59 velocity=29 time=0
note_on channel=0 note=59 velocity=0 time=120
note_on channel=0 note=73 velocity=0 time=0
note_on channel=0 note=71 velocity=39 time=0
note_on channel=0 note=61 velocity=33 time=0
note_on channel=0 note=61 velocity=0 time=0
note_on channel=0 note=71 velocity=0 time=0
note_on channel=0 note=73 velocity=35 time=0
note_on channel=0 note=59 velocity=33 time=0
note_on channel=0 note=59 velocity=0 time=0
note_on channel=0 note=73 velocity=0 time=0
note_on channel=0 note=78 velocity=53 time=0
note_on channel=0 note=81 velocity=53 time=0
note_on channel=0 note=71 velocity=39 time=0
note_on channel=0 note=61 velocity=32 time=0
note_on channel=0 note=54 velocity=41 time=0
note_on channel=0 note=51 velocity=34 time=0
control_change channel=0 control=64 value=0 time=0
note_on channel=0 note=61 velocity=0 time=120
note_on channel=0 note=71 velocity=0 time=0
note_on channel=0 note=73 velocity=35 time=0
note_on channel=0 note=59 velocity=27 time=0
note_on channel=0 note=59 velocity=0 time=120
note_on channel=0 note=73 velocity=0 time=0
note_on channel=0 note=71 velocity=39 time=0
note_on channel=0 note=61 velocity=31 time=0
note_on channel=0 note=61 velocity=0 time=120
note_on channel=0 note=71 velocity=0 time=0
note_on channel=0 note=73 velocity=35 time=0
note_on channel=0 note=59 velocity=26 time=0
note_on channel=0 note=59 velocity=0 time=120
note_on channel=0 note=73 velocity=0 time=0
note_on channel=0 note=71 velocity=39 time=0
note_on channel=0 note=61 velocity=32 time=0
note_on channel=0 note=61 velocity=0 time=120
note_on channel=0 note=71 velocity=0 time=0
note_on channel=0 note=73 velocity=37 time=0
note_on channel=0 note=59 velocity=32 time=0
note_on channel=0 note=59 velocity=0 time=0
note_on channel=0 note=51 velocity=0 time=0
note_on channel=0 note=81 velocity=0 time=0
note_on channel=0 note=78 velocity=0 time=0
note_on channel=0 note=73 velocity=0 time=0
note_on channel=0 note=54 velocity=0 time=0
note_on channel=0 note=80 velocity=57 time=0
note_on channel=0 note=76 velocity=57 time=0
note_on channel=0 note=71 velocity=43 time=0
note_on channel=0 note=61 velocity=33 time=0
note_on channel=0 note=56 velocity=42 time=0
note_on channel=0 note=52 velocity=35 time=0
note_on channel=0 note=61 velocity=0 time=120
note_on channel=0 note=71 velocity=0 time=0
note_on channel=0 note=73 velocity=41 time=0
note_on channel=0 note=59 velocity=36 time=0
note_on channel=0 note=56 velocity=0 time=96
note_on channel=0 note=76 velocity=0 time=0
note_on channel=0 note=80 velocity=0 time=0
note_on channel=0 note=52 velocity=0 time=0
note_on channel=0 note=59 velocity=0 time=0
note_on channel=0 note=73 velocity=0 time=0
note_on channel=0 note=80 velocity=62 time=0
note_on channel=0 note=76 velocity=62 time=0
note_on channel=0 note=71 velocity=48 time=0
note_on channel=0 note=61 velocity=37 time=0
note_on channel=0 note=56 velocity=47 time=0
note_on channel=0 note=52 velocity=39 time=0
control_change channel=0 control=64 value=0 time=50
note_on channel=0 note=61 velocity=0 time=70
note_on channel=0 note=71 velocity=0 time=0
note_on channel=0 note=73 velocity=42 time=0
note_on channel=0 note=59 velocity=29 time=0
note_on channel=0 note=59 velocity=0 time=120
note_on channel=0 note=52 velocity=0 time=0
note_on channel=0 note=76 velocity=0 time=0
note_on channel=0 note=80 velocity=0 time=0
note_on channel=0 note=73 velocity=0 time=0
note_on channel=0 note=56 velocity=0 time=0
note_on channel=0 note=75 velocity=48 time=0
note_on channel=0 note=78 velocity=48 time=0
note_on channel=0 note=71 velocity=46 time=0
note_on channel=0 note=61 velocity=32 time=0
note_on channel=0 note=57 velocity=41 time=0
note_on channel=0 note=54 velocity=34 time=0
note_on channel=0 note=61 velocity=0 time=120
note_on channel=0 note=71 velocity=0 time=0
note_on channel=0 note=73 velocity=40 time=0
note_on channel=0 note=59 velocity=28 time=0
note_on channel=0 note=57 velocity=0 time=96
note_on channel=0 note=78 velocity=0 time=0
note_on channel=0 note=75 velocity=0 time=0
note_on channel=0 note=54 velocity=0 time=0
note_on channel=0 note=59 velocity=0 time=0
note_on channel=0 note=73 velocity=0 time=0
note_on channel=0 note=78 velocity=47 time=0
note_on channel=0 note=71 velocity=44 time=0
note_on channel=0 note=75 velocity=47 time=0
note_on channel=0 note=54 velocity=28 time=0
note_on channel=0 note=57 velocity=33 time=0
note_on channel=0 note=61 velocity=26 time=0
note_on channel=0 note=61 velocity=0 time=120
note_on channel=0 note=71 velocity=0 time=0
note_on channel=0 note=73 velocity=38 time=0
note_on channel=0 note=59 velocity=24 time=0
note_on channel=0 note=59 velocity=0 time=0
note_on channel=0 note=75 velocity=0 time=0
note_on channel=0 note=57 velocity=0 time=0
note_on channel=0 note=78 velocity=0 time=0
note_on channel=0 note=73 velocity=0 time=0
note_on channel=0 note=54 velocity=0 time=0
note_on channel=0 note=80 velocity=39 time=0
note_on channel=0 note=76 velocity=39 time=0
note_on channel=0 note=71 velocity=41 time=0
note_on channel=0 note=52 velocity=28 time=0
note_on channel=0 note=56 velocity=33 time=0
note_on channel=0 note=61 velocity=26 time=0
note_on channel=0 note=61 velocity=0 time=120
note_on channel=0 note=71 velocity=0 time=0
note_on channel=0 note=73 velocity=36 time=0
note_on channel=0 note=59 velocity=24 time=0
note_on channel=0 note=59 velocity=0 time=0
note_on channel=0 note=76 velocity=0 time=0
note_on channel=0 note=56 velocity=0 time=0
note_on channel=0 note=80 velocity=0 time=0
note_on channel=0 note=73 velocity=0 time=0
note_on channel=0 note=52 velocity=0 time=0
note_on channel=0 note=81 velocity=53 time=0
note_on channel=0 note=78 velocity=53 time=0
note_on channel=0 note=71 velocity=39 time=0
note_on channel=0 note=61 velocity=32 time=0
note_on channel=0 note=54 velocity=41 time=0
note_on channel=0 note=51 velocity=34 time=0
control_change channel=0 control=64 value=0 time=0
note_on channel=0 note=61 velocity=0 time=120
note_on channel=0 note=71 velocity=0 time=0
note_on channel=0 note=73 velocity=36 time=0
note_on channel=0 note=59 velocity=27 time=0
note_on channel=0 note=59 velocity=0 time=120
note_on channel=0 note=73 velocity=0 time=0
note_on channel=0 note=71 velocity=41 time=0
note_on channel=0 note=61 velocity=31 time=0
note_on channel=0 note=61 velocity=0 time=120
note_on channel=0 note=71 velocity=0 time=0
note_on channel=0 note=73 velocity=38 time=0
note_on channel=0 note=59 velocity=26 time=0
note_on channel=0 note=59 velocity=0 time=120
note_on channel=0 note=73 velocity=0 time=0
note_on channel=0 note=71 velocity=43 time=0
note_on channel=0 note=61 velocity=32 time=0
note_on channel=0 note=61 velocity=0 time=120
note_on channel=0 note=71 velocity=0 time=0
note_on channel=0 note=73 velocity=40 time=0
note_on channel=0 note=59 velocity=32 time=0
note_on channel=0 note=59 velocity=0 time=0
note_on channel=0 note=51 velocity=0 time=0
note_on channel=0 note=78 velocity=0 time=0
note_on channel=0 note=81 velocity=0 time=0
note_on channel=0 note=73 velocity=0 time=0
note_on channel=0 note=54 velocity=0 time=0
note_on channel=0 note=71 velocity=46 time=0
note_on channel=0 note=80 velocity=57 time=0
note_on channel=0 note=76 velocity=57 time=0
note_on channel=0 note=61 velocity=33 time=0
note_on channel=0 note=56 velocity=42 time=0
note_on channel=0 note=52 velocity=35 time=0
note_on channel=0 note=61 velocity=0 time=120
note_on channel=0 note=71 velocity=0 time=0
note_on channel=0 note=73 velocity=42 time=0
note_on channel=0 note=59 velocity=36 time=0
note_on channel=0 note=56 velocity=0 time=96
note_on channel=0 note=76 velocity=0 time=0
note_on channel=0 note=80 velocity=0 time=0
note_on channel=0 note=52 velocity=0 time=0
note_on channel=0 note=59 velocity=0 time=0
note_on channel=0 note=73 velocity=0 time=0
note_on channel=0 note=78 velocity=62 time=0
note_on channel=0 note=75 velocity=62 time=0
note_on channel=0 note=57 velocity=32 time=0
note_on channel=0 note=54 velocity=39 time=0
control_change channel=0 control=64 value=0 time=13
control_change channel=0 control=64 value=127 time=90
note_on channel=0 note=57 velocity=0 time=17
note_on channel=0 note=75 velocity=0 time=0
note_on channel=0 note=71 velocity=36 time=0
note_on channel=0 note=59 velocity=29 time=0
note_on channel=0 note=59 velocity=0 time=0
note_on channel=0 note=54 velocity=0 time=0
note_on channel=0 note=78 velocity=0 time=0
note_on channel=0 note=71 velocity=0 time=0
note_on channel=0 note=85 velocity=48 time=0
note_on channel=0 note=81 velocity=48 time=0
note_on channel=0 note=51 velocity=41 time=0
note_on channel=0 note=47 velocity=34 time=0
control_change channel=0 control=64 value=0 time=10
control_change channel=0 control=64 value=127 time=59
note_on channel=0 note=47 velocity=0 time=39
note_on channel=0 note=51 velocity=0 time=0
note_on channel=0 note=81 velocity=0 time=12
note_on channel=0 note=71 velocity=36 time=0
note_on channel=0 note=59 velocity=28 time=0
note_on channel=0 note=59 velocity=0 time=0
note_on channel=0 note=71 velocity=0 time=0
note_on channel=0 note=85 velocity=0 time=0
note_on channel=0 note=83 velocity=47 time=0
note_on channel=0 note=80 velocity=47 time=0
note_on channel=0 note=49 velocity=28 time=0
note_on channel=0 note=52 velocity=33 time=0
control_change channel=0 control=64 value=0 time=5
control_change channel=0 control=64 value=127 time=47
note_on channel=0 note=52 velocity=0 time=68
note_on channel=0 note=49 velocity=0 time=0
note_on channel=0 note=80 velocity=0 time=0
note_on channel=0 note=71 velocity=36 time=0
note_on channel=0 note=59 velocity=24 time=0
note_on channel=0 note=59 velocity=0 time=0
note_on channel=0 note=71 velocity=0 time=0
note_on channel=0 note=83 velocity=0 time=0
note_on channel=0 note=78 velocity=39 time=0
note_on channel=0 note=81 velocity=39 time=0
note_on channel=0 note=51 velocity=28 time=0
note_on channel=0 note=54 velocity=33 time=0
control_change channel=0 control=64 value=0 time=12
control_change channel=0 control=64 value=127 time=45
note_on channel=0 note=54 velocity=0 time=63
note_on channel=0 note=51 velocity=0 time=0
note_on channel=0 note=78 velocity=0 time=0
note_on channel=0 note=71 velocity=36 time=0
note_on channel=0 note=59 velocity=24 time=0
note_on channel=0 note=59 velocity=0 time=0
note_on channel=0 note=71 velocity=0 time=0
note_on channel=0 note=81 velocity=0 time=0
note_on channel=0 note=80 velocity=62 time=0
note_on channel=0 note=76 velocity=62 time=0
note_on channel=0 note=56 velocity=32 time=0
note_on channel=0 note=52 velocity=39 time=0
control_change channel=0 control=64 value=0 time=13
control_change channel=0 control=64 value=127 time=90
note_on channel=0 note=52 velocity=0 time=0
note_on channel=0 note=56 velocity=0 time=0
note_on channel=0 note=76 velocity=0 time=0
note_on channel=0 note=71 velocity=35 time=0
note_on channel=0 note=59 velocity=28 time=0
note_on channel=0 note=59 velocity=0 time=0
note_on channel=0 note=71 velocity=0 time=0
note_on channel=0 note=80 velocity=0 time=0
note_on channel=0 note=83 velocity=47 time=0
note_on channel=0 note=80 velocity=47 time=0
note_on channel=0 note=52 velocity=40 time=0
note_on channel=0 note=49 velocity=33 time=0
control_change channel=0 control=64 value=0 time=10
control_change channel=0 control=64 value=127 time=59
note_on channel=0 note=49 velocity=0 time=39
note_on channel=0 note=52 velocity=0 time=0
note_on channel=0 note=80 velocity=0 time=12
note_on channel=0 note=71 velocity=34 time=0
note_on channel=0 note=59 velocity=27 time=0
note_on channel=0 note=59 velocity=0 time=0
note_on channel=0 note=71 velocity=0 time=0
note_on channel=0 note=83 velocity=0 time=0
note_on channel=0 note=81 velocity=45 time=0
note_on channel=0 note=78 velocity=45 time=0
note_on channel=0 note=51 velocity=26 time=0
note_on channel=0 note=54 velocity=31 time=0
control_change channel=0 control=64 value=0 time=5
control_change channel=0 control=64 value=127 time=47
note_on channel=0 note=54 velocity=0 time=68
note_on channel=0 note=51 velocity=0 time=0
note_on channel=0 note=78 velocity=0 time=0
note_on channel=0 note=71 velocity=34 time=0
note_on channel=0 note=59 velocity=22 time=0
note_on channel=0 note=59 velocity=0 time=0
note_on channel=0 note=71 velocity=0 time=0
note_on channel=0 note=81 velocity=0 time=0
note_on channel=0 note=76 velocity=36 time=0
note_on channel=0 note=80 velocity=36 time=0
note_on channel=0 note=52 velocity=26 time=0
note_on channel=0 note=56 velocity=31 time=0
control_change channel=0 control=64 value=0 time=12
control_change channel=0 control=64 value=127 time=45
note_on channel=0 note=56 velocity=0 time=0
note_on channel=0 note=52 velocity=0 time=0
note_on channel=0 note=76 velocity=0 time=0
note_on channel=0 note=71 velocity=33 time=0
note_on channel=0 note=59 velocity=22 time=0
note_on channel=0 note=59 velocity=0 time=0
note_on channel=0 note=71 velocity=0 time=0
note_on channel=0 note=80 velocity=0 time=0
note_on channel=0 note=78 velocity=57 time=0
note_on channel=0 note=75 velocity=57 time=0
note_on channel=0 note=57 velocity=29 time=0
note_on channel=0 note=54 velocity=35 time=0
control_change channel=0 control=64 value=0 time=13
control_change channel=0 control=64 value=127 time=90
note_on channel=0 note=54 velocity=0 time=17
note_on channel=0 note=57 velocity=0 time=0
note_on channel=0 note=75 velocity=0 time=0
note_on channel=0 note=71 velocity=32 time=0
note_on channel=0 note=59 velocity=26 time=0
note_on channel=0 note=59 velocity=0 time=0
note_on channel=0 note=71 velocity=0 time=0
note_on channel=0 note=78 velocity=0 time=0
note_on channel=0 note=81 velocity=43 time=0
note_on channel=0 note=78 velocity=43 time=0
note_on channel=0 note=54 velocity=36 time=0
note_on channel=0 note=51 velocity=30 time=0
control_change channel=0 control=64 value=0 time=10
control_change channel=0 control=64 value=127 time=59
note_on channel=0 note=51 velocity=0 time=39
note_on channel=0 note=54 velocity=0 time=0
note_on channel=0 note=78 velocity=0 time=12
note_on channel=0 note=71 velocity=32 time=0
note_on channel=0 note=59 velocity=24 time=0
note_on channel=0 note=59 velocity=0 time=0
note_on channel=0 note=71 velocity=0 time=0
note_on channel=0 note=81 velocity=0 time=0
note_on channel=0 note=80 velocity=41 time=0
note_on channel=0 note=76 velocity=41 time=0
note_on channel=0 note=52 velocity=24 time=0
note_on channel=0 note=56 velocity=29 time=0
control_change channel=0 control=64 value=0 time=5
control_change channel=0 control=64 value=127 time=47
note_on channel=0 note=56 velocity=0 time=68
note_on channel=0 note=52 velocity=0 time=0
note_on channel=0 note=76 velocity=0 time=0
note_on channel=0 note=71 velocity=31 time=0
note_on channel=0 note=59 velocity=20 time=0
note_on channel=0 note=59 velocity=0 time=0
note_on channel=0 note=71 velocity=0 time=0
note_on channel=0 note=80 velocity=0 time=0
note_on channel=0 note=75 velocity=33 time=0
note_on channel=0 note=78 velocity=33 time=0
note_on channel=0 note=54 velocity=24 time=0
note_on channel=0 note=57 velocity=28 time=0
control_change channel=0 control=64 value=0 time=12
control_change channel=0 control=64 value=127 time=45
note_on channel=0 note=57 velocity=0 time=63
note_on channel=0 note=54 velocity=0 time=0
note_on channel=0 note=75 velocity=0 time=0
note_on channel=0 note=69 velocity=30 time=0
note_on channel=0 note=63 velocity=20 time=0
note_on channel=0 note=63 velocity=0 time=0
note_on channel=0 note=69 velocity=0 time=0
note_on channel=0 note=78 velocity=0 time=0
note_on channel=0 note=71 velocity=41 time=0
note_on channel=0 note=76 velocity=52 time=0
note_on channel=0 note=56 velocity=26 time=0
control_change channel=0 control=64 value=0 time=13
control_change channel=0 control=64 value=127 time=90
note_on channel=0 note=56 velocity=0 time=17
note_on channel=0 note=71 velocity=0 time=0
note_on channel=0 note=68 velocity=29 time=0
note_on channel=0 note=59 velocity=24 time=0
note_on channel=0 note=59 velocity=0 time=0
note_on channel=0 note=68 velocity=0 time=0
note_on channel=0 note=76 velocity=0 time=0
note_on channel=0 note=71 velocity=29 time=0
note_on channel=0 note=74 velocity=39 time=0
note_on channel=0 note=56 velocity=33 time=0
control_change channel=0 control=64 value=0 time=10
control_change channel=0 control=64 value=127 time=59
note_on channel=0 note=56 velocity=0 time=39
note_on channel=0 note=71 velocity=0 time=12
note_on channel=0 note=65 velocity=29 time=0
note_on channel=0 note=59 velocity=22 time=0
note_on channel=0 note=59 velocity=0 time=0
note_on channel=0 note=65 velocity=0 time=0
note_on channel=0 note=74 velocity=0 time=0
note_on channel=0 note=71 velocity=29 time=0
note_on channel=0 note=73 velocity=37 time=0
note_on channel=0 note=56 velocity=26 time=0
control_change channel=0 control=64 value=0 time=5
control_change channel=0 control=64 value=127 time=47
note_on channel=0 note=56 velocity=0 time=68
note_on channel=0 note=71 velocity=0 time=0
note_on channel=0 note=65 velocity=28 time=0
note_on channel=0 note=59 velocity=18 time=0
note_on channel=0 note=59 velocity=0 time=0
note_on channel=0 note=65 velocity=0 time=0
note_on channel=0 note=73 velocity=0 time=0
note_on channel=0 note=71 velocity=29 time=0
note_on channel=0 note=73 velocity=30 time=0
note_on channel=0 note=56 velocity=25 time=0
note_on channel=0 note=56 velocity=0 time=120
note_on channel=0 note=71 velocity=0 time=0
note_on channel=0 note=65 velocity=27 time=0
note_on channel=0 note=59 velocity=18 time=0
note_on channel=0 note=59 velocity=0 time=120
note_on channel=0 note=65 velocity=0 time=0
note_on channel=0 note=73 velocity=0 time=0
note_on channel=0 note=73 velocity=39 time=0
note_on channel=0 note=65 velocity=39 time=0
note_on channel=0 note=56 velocity=24 time=0
note_on channel=0 note=59 velocity=24 time=0
control_change channel=0 control=64 value=0 time=0
note_on channel=0 note=65 velocity=0 time=0
note_on channel=0 note=73 velocity=0 time=0
note_on channel=0 note=73 velocity=33 time=0
note_on channel=0 note=73 velocity=0 time=120
note_on channel=0 note=56 velocity=0 time=0
note_on channel=0 note=59 velocity=0 time=0
note_on channel=0 note=75 velocity=34 time=0
note_on channel=0 note=75 velocity=0 time=0
note_on channel=0 note=77 velocity=37 time=0
note_on channel=0 note=77 velocity=0 time=90
note_on channel=0 note=80 velocity=35 time=0
note_on channel=0 note=80 velocity=0 time=0
note_on channel=0 note=78 velocity=39 time=0
note_on channel=0 note=78 velocity=0 time=120
note_on channel=0 note=77 velocity=32 time=0
note_on channel=0 note=61 velocity=27 time=0
note_on channel=0 note=61 velocity=0 time=120
note_on channel=0 note=77 velocity=0 time=0
note_on channel=0 note=78 velocity=35 time=0
note_on channel=0 note=63 velocity=29 time=0
note_on channel=0 note=63 velocity=0 time=0
note_on channel=0 note=78 velocity=0 time=0
note_on channel=0 note=80 velocity=32 time=0
note_on channel=0 note=65 velocity=27 time=0
note_on channel=0 note=65 velocity=0 time=0
note_on channel=0 note=80 velocity=0 time=0
note_on channel=0 note=81 velocity=39 time=0
note_on channel=0 note=66 velocity=33 time=0
note_on channel=0 note=66 velocity=0 time=120
note_on channel=0 note=81 velocity=0 time=0
note_on channel=0 note=77 velocity=33 time=0
note_on channel=0 note=61 velocity=28 time=0
note_on channel=0 note=61 velocity=0 time=120
note_on channel=0 note=77 velocity=0 time=0
note_on channel=0 note=78 velocity=35 time=0
note_on channel=0 note=63 velocity=29 time=0
note_on channel=0 note=63 velocity=0 time=0
note_on channel=0 note=78 velocity=0 time=0
note_on channel=0 note=80 velocity=32 time=0
note_on channel=0 note=65 velocity=27 time=0
note_on channel=0 note=65 velocity=0 time=90
note_on channel=0 note=80 velocity=0 time=0
note_on channel=0 note=83 velocity=32 time=0
note_on channel=0 note=68 velocity=27 time=0
note_on channel=0 note=68 velocity=0 time=0
note_on channel=0 note=83 velocity=0 time=0
note_on channel=0 note=81 velocity=41 time=0
note_on channel=0 note=66 velocity=34 time=0
note_on channel=0 note=66 velocity=0 time=120
note_on channel=0 note=81 velocity=0 time=0
note_on channel=0 note=80 velocity=33 time=0
note_on channel=0 note=65 velocity=28 time=0
note_on channel=0 note=65 velocity=0 time=0
note_on channel=0 note=80 velocity=0 time=0
note_on channel=0 note=81 velocity=35 time=0
note_on channel=0 note=66 velocity=29 time=0
note_on channel=0 note=66 velocity=0 time=0
note_on channel=0 note=81 velocity=0 time=0
note_on channel=0 note=83 velocity=32 time=0
note_on channel=0 note=68 velocity=27 time=0
note_on channel=0 note=68 velocity=0 time=0
note_on channel=0 note=83 velocity=0 time=0
note_on channel=0 note=85 velocity=42 time=0
note_on channel=0 note=69 velocity=35 time=0
note_on channel=0 note=69 velocity=0 time=120
note_on channel=0 note=85 velocity=0 time=0
note_on channel=0 note=83 velocity=35 time=0
note_on channel=0 note=68 velocity=29 time=0
note_on channel=0 note=68 velocity=0 time=120
note_on channel=0 note=83 velocity=0 time=0
note_on channel=0 note=81 velocity=35 time=0
note_on channel=0 note=69 velocity=29 time=0
note_on channel=0 note=69 velocity=0 time=0
note_on channel=0 note=81 velocity=0 time=0
note_on channel=0 note=80 velocity=34 time=0
note_on channel=0 note=71 velocity=28 time=0
note_on channel=0 note=71 velocity=0 time=0
note_on channel=0 note=80 velocity=0 time=0
note_on channel=0 note=81 velocity=41 time=0
note_on channel=0 note=73 velocity=34 time=0
note_on channel=0 note=73 velocity=0 time=120
note_on channel=0 note=81 velocity=0 time=0
note_on channel=0 note=80 velocity=35 time=0
note_on channel=0 note=71 velocity=29 time=0
note_on channel=0 note=71 velocity=0 time=120
note_on channel=0 note=80 velocity=0 time=0
note_on channel=0 note=78 velocity=35 time=0
note_on channel=0 note=69 velocity=29 time=0
note_on channel=0 note=69 velocity=0 time=0
note_on channel=0 note=78 velocity=0 time=0
note_on channel=0 note=85 velocity=34 time=0
note_on channel=0 note=70 velocity=28 time=0
note_on channel=0 note=70 velocity=0 time=0
note_on channel=0 note=85 velocity=0 time=0
note_on channel=0 note=80 velocity=40 time=0
note_on channel=0 note=71 velocity=34 time=0
note_on channel=0 note=80 velocity=0 time=120
note_on channel=0 note=78 velocity=34 time=0
note_on channel=0 note=78 velocity=0 time=120
note_on channel=0 note=71 velocity=0 time=0
note_on channel=0 note=76 velocity=35 time=0
note_on channel=0 note=76 velocity=0 time=120
note_on channel=0 note=83 velocity=35 time=0
note_on channel=0 note=83 velocity=0 time=120
note_on channel=0 note=78 velocity=40 time=0
note_on channel=0 note=59 velocity=34 time=0
note_on channel=0 note=78 velocity=0 time=120
note_on channel=0 note=76 velocity=33 time=0
note_on channel=0 note=76 velocity=0 time=0
note_on channel=0 note=59 velocity=0 time=0
note_on channel=0 note=75 velocity=35 time=0
note_on channel=0 note=75 velocity=0 time=0
note_on channel=0 note=83 velocity=33 time=0
note_on channel=0 note=83 velocity=0 time=110
note_on channel=0 note=83 velocity=43 time=0
note_on channel=0 note=80 velocity=43 time=0
note_on channel=0 note=71 velocity=36 time=0
note_on channel=0 note=52 velocity=32 time=0
control_change channel=0 control=64 value=127 time=85
note_on channel=0 note=52 velocity=0 time=75
note_on channel=0 note=59 velocity=27 time=0
note_on channel=0 note=59 velocity=0 time=160
note_on channel=0 note=56 velocity=27 time=0
note_on channel=0 note=56 velocity=0 time=160
note_on channel=0 note=52 velocity=32 time=0
note_on channel=0 note=52 velocity=0 time=160
note_on channel=0 note=64 velocity=27 time=0
note_on channel=0 note=64 velocity=0 time=0
note_on channel=0 note=59 velocity=27 time=0
note_on channel=0 note=59 velocity=0 time=0
note_on channel=0 note=71 velocity=0 time=0
note_on channel=0 note=80 velocity=0 time=0
note_on channel=0 note=83 velocity=0 time=0
note_on channel=0 note=69 velocity=28 time=0
note_on channel=0 note=78 velocity=34 time=0
note_on channel=0 note=81 velocity=34 time=0
note_on channel=0 note=54 velocity=32 time=0
control_change channel=0 control=64 value=0 time=7
control_change channel=0 control=64 value=127 time=17
note_on channel=0 note=54 velocity=0 time=108
note_on channel=0 note=63 velocity=27 time=0
note_on channel=0 note=63 velocity=0 time=105
note_on channel=0 note=59 velocity=27 time=0
note_on channel=0 note=59 velocity=0 time=115
note_on channel=0 note=69 velocity=0 time=0
note_on channel=0 note=78 velocity=0 time=0
note_on channel=0 note=81 velocity=0 time=0
note_on channel=0 note=71 velocity=25 time=0
note_on channel=0 note=76 velocity=30 time=0
note_on channel=0 note=80 velocity=30 time=0
note_on channel=0 note=56 velocity=33 time=0
control_change channel=0 control=64 value=0 time=12
control_change channel=0 control=64 value=127 time=34
note_on channel=0 note=56 velocity=0 time=35
note_on channel=0 note=64 velocity=27 time=0
note_on channel=0 note=64 velocity=0 time=0
note_on channel=0 note=59 velocity=29 time=0
note_on channel=0 note=59 velocity=0 time=0
note_on channel=0 note=71 velocity=0 time=0
note_on channel=0 note=76 velocity=0 time=0
note_on channel=0 note=80 velocity=0 time=0
note_on channel=0 note=73 velocity=39 time=0
note_on channel=0 note=78 velocity=39 time=0
note_on channel=0 note=57 velocity=32 time=0
control_change channel=0 control=64 value=0 time=9
control_change channel=0 control=64 value=127 time=71
note_on channel=0 note=57 velocity=0 time=40
note_on channel=0 note=66 velocity=29 time=0
note_on channel=0 note=66 velocity=0 time=0
note_on channel=0 note=61 velocity=29 time=0
note_on channel=0 note=61 velocity=0 time=0
note_on channel=0 note=78 velocity=0 time=0
note_on channel=0 note=73 velocity=0 time=0
note_on channel=0 note=76 velocity=35 time=0
note_on channel=0 note=73 velocity=29 time=0
note_on channel=0 note=58 velocity=34 time=0
control_change channel=0 control=64 value=0 time=19
control_change channel=0 control=64 value=127 time=61
note_on channel=0 note=58 velocity=0 time=80
note_on channel=0 note=68 velocity=31 time=0
note_on channel=0 note=68 velocity=0 time=0
note_on channel=0 note=64 velocity=30 time=0
note_on channel=0 note=64 velocity=0 time=0
note_on channel=0 note=73 velocity=0 time=0
note_on channel=0 note=71 velocity=33 time=0
note_on channel=0 note=59 velocity=37 time=0
control_change channel=0 control=64 value=0 time=7
control_change channel=0 control=64 value=127 time=45
note_on channel=0 note=59 velocity=0 time=108
note_on channel=0 note=68 velocity=32 time=0
note_on channel=0 note=68 velocity=0 time=0
note_on channel=0 note=64 velocity=32 time=0
note_on channel=0 note=64 velocity=0 time=0
note_on channel=0 note=71 velocity=0 time=0
note_on channel=0 note=76 velocity=0 time=0
note_on channel=0 note=75 velocity=44 time=0
note_on channel=0 note=71 velocity=37 time=0
note_on channel=0 note=57 velocity=42 time=0
control_change channel=0 control=64 value=0 time=13
control_change channel=0 control=64 value=127 time=44
note_on channel=0 note=57 velocity=0 time=103
note_on channel=0 note=66 velocity=36 time=0
note_on channel=0 note=75 velocity=0 time=80
note_on channel=0 note=83 velocity=43 time=0
note_on channel=0 note=66 velocity=0 time=0
note_on channel=0 note=63 velocity=36 time=0
note_on channel=0 note=63 velocity=0 time=0
note_on channel=0 note=83 velocity=0 time=0
note_on channel=0 note=71 velocity=0 time=0
note_on channel=0 note=71 velocity=57 time=0
note_on channel=0 note=74 velocity=57 time=0
note_on channel=0 note=83 velocity=67 time=0
note_on channel=0 note=56 velocity=43 time=0
control_change channel=0 control=64 value=0 time=10
control_change channel=0 control=64 value=127 time=61
note_on channel=0 note=56 velocity=0 time=25
note_on channel=0 note=64 velocity=36 time=0
note_on channel=0 note=64 velocity=0 time=25
note_on channel=0 note=59 velocity=36 time=0
note_on channel=0 note=59 velocity=0 time=25
note_on channel=0 note=56 velocity=34 time=0
note_on channel=0 note=56 velocity=0 time=25
note_on channel=0 note=52 velocity=42 time=0
note_on channel=0 note=52 velocity=0 time=25
note_on channel=0 note=59 velocity=37 time=0
note_on channel=0 note=59 velocity=0 time=25
note_on channel=0 note=56 velocity=38 time=0
note_on channel=0 note=56 velocity=0 time=55
note_on channel=0 note=52 velocity=35 time=0
note_on channel=0 note=52 velocity=0 time=0
note_on channel=0 note=83 velocity=0 time=0
note_on channel=0 note=74 velocity=0 time=0
note_on channel=0 note=71 velocity=0 time=0
note_on channel=0 note=69 velocity=51 time=0
note_on channel=0 note=74 velocity=51 time=0
note_on channel=0 note=81 velocity=63 time=0
note_on channel=0 note=54 velocity=50 time=0
control_change channel=0 control=64 value=0 time=7
control_change channel=0 control=64 value=127 time=21
note_on channel=0 note=54 velocity=0 time=0
note_on channel=0 note=62 velocity=40 time=0
note_on channel=0 note=62 velocity=0 time=85
note_on channel=0 note=57 velocity=40 time=0
note_on channel=0 note=57 velocity=0 time=55
note_on channel=0 note=54 velocity=36 time=0
note_on channel=0 note=54 velocity=0 time=25
note_on channel=0 note=81 velocity=0 time=0
note_on channel=0 note=74 velocity=0 time=0
note_on channel=0 note=69 velocity=0 time=0
note_on channel=0 note=68 velocity=52 time=0
note_on channel=0 note=74 velocity=52 time=0
note_on channel=0 note=80 velocity=64 time=0
note_on channel=0 note=71 velocity=52 time=0
note_on channel=0 note=56 velocity=48 time=0
control_change channel=0 control=64 value=0 time=14
control_change channel=0 control=64 value=127 time=92
note_on channel=0 note=56 velocity=0 time=14
note_on channel=0 note=64 velocity=43 time=0
note_on channel=0 note=64 velocity=0 time=115
note_on channel=0 note=59 velocity=43 time=0
note_on channel=0 note=59 velocity=0 time=40
note_on channel=0 note=56 velocity=41 time=0
note_on channel=0 note=56 velocity=0 time=0
note_on channel=0 note=71 velocity=0 time=0
note_on channel=0 note=68 velocity=0 time=0
note_on channel=0 note=74 velocity=0 time=0
note_on channel=0 note=80 velocity=0 time=0
note_on channel=0 note=74 velocity=68 time=0
note_on channel=0 note=78 velocity=80 time=0
note_on channel=0 note=57 velocity=61 time=0
control_change channel=0 control=64 value=0 time=7
control_change channel=0 control=64 value=127 time=85
note_on channel=0 note=57 velocity=0 time=28
note_on channel=0 note=66 velocity=46 time=0
note_on channel=0 note=66 velocity=0 time=120
note_on channel=0 note=62 velocity=45 time=0
note_on channel=0 note=62 velocity=0 time=0
note_on channel=0 note=57 velocity=43 time=0
note_on channel=0 note=57 velocity=0 time=0
note_on channel=0 note=78 velocity=0 time=0
note_on channel=0 note=74 velocity=0 time=0
note_on channel=0 note=74 velocity=68 time=0
note_on channel=0 note=76 velocity=81 time=0
note_on channel=0 note=59 velocity=62 time=0
control_change channel=0 control=64 value=0 time=16
control_change channel=0 control=64 value=127 time=69
note_on channel=0 note=59 velocity=0 time=35
note_on channel=0 note=68 velocity=47 time=0
note_on channel=0 note=68 velocity=0 time=120
note_on channel=0 note=62 velocity=49 time=0
note_on channel=0 note=62 velocity=0 time=40
note_on channel=0 note=59 velocity=46 time=0
note_on channel=0 note=59 velocity=0 time=110
note_on channel=0 note=76 velocity=0 time=0
note_on channel=0 note=74 velocity=0 time=0
note_on channel=0 note=76 velocity=82 time=0
note_on channel=0 note=74 velocity=82 time=0
note_on channel=0 note=71 velocity=69 time=0
note_on channel=0 note=56 velocity=63 time=0
control_change channel=0 control=64 value=0 time=7
control_change channel=0 control=64 value=127 time=85
note_on channel=0 note=56 velocity=0 time=28
note_on channel=0 note=62 velocity=53 time=0
note_on channel=0 note=62 velocity=0 time=120
note_on channel=0 note=59 velocity=62 time=0
note_on channel=0 note=59 velocity=0 time=40
note_on channel=0 note=56 velocity=68 time=0
note_on channel=0 note=56 velocity=0 time=0
note_on channel=0 note=71 velocity=0 time=0
note_on channel=0 note=74 velocity=0 time=0
note_on channel=0 note=76 velocity=0 time=0
note_on channel=0 note=86 velocity=94 time=0
note_on channel=0 note=74 velocity=80 time=0
note_on channel=0 note=53 velocity=79 time=0
control_change channel=0 control=64 value=0 time=16
control_change channel=0 control=64 value=127 time=69
note_on channel=0 note=53 velocity=0 time=35
note_on channel=0 note=62 velocity=65 time=0
note_on channel=0 note=62 velocity=0 time=120
note_on channel=0 note=59 velocity=70 time=0
note_on channel=0 note=59 velocity=0 time=0
note_on channel=0 note=56 velocity=65 time=0
note_on channel=0 note=56 velocity=0 time=110
note_on channel=0 note=74 velocity=0 time=0
note_on channel=0 note=86 velocity=0 time=0
note_on channel=0 note=86 velocity=102 time=0
note_on channel=0 note=74 velocity=87 time=0
note_on channel=0 note=53 velocity=79 time=0
note_on channel=0 note=53 velocity=0 time=120
note_on channel=0 note=62 velocity=70 time=0
note_on channel=0 note=62 velocity=0 time=120
note_on channel=0 note=59 velocity=70 time=0
note_on channel=0 note=59 velocity=0 time=0
note_on channel=0 note=56 velocity=65 time=0
note_on channel=0 note=56 velocity=0 time=0
note_on channel=0 note=53 velocity=79 time=0
note_on channel=0 note=53 velocity=0 time=0
note_on channel=0 note=62 velocity=66 time=0
note_on channel=0 note=62 velocity=0 time=120
note_on channel=0 note=59 velocity=72 time=0
note_on channel=0 note=59 velocity=0 time=120
note_on channel=0 note=56 velocity=66 time=0
note_on channel=0 note=56 velocity=0 time=0
note_on channel=0 note=74 velocity=0 time=0
note_on channel=0 note=86 velocity=0 time=0
note_on channel=0 note=77 velocity=87 time=0
note_on channel=0 note=89 velocity=102 time=0
note_on channel=0 note=50 velocity=79 time=0
control_change channel=0 control=64 value=0 time=54
control_change channel=0 control=64 value=127 time=52
note_on channel=0 note=50 velocity=0 time=5
note_on channel=0 note=59 velocity=59 time=0
note_on channel=0 note=59 velocity=0 time=120
note_on channel=0 note=56 velocity=68 time=0
note_on channel=0 note=56 velocity=0 time=57
note_on channel=0 note=53 velocity=58 time=0
note_on channel=0 note=53 velocity=0 time=120
note_on channel=0 note=50 velocity=72 time=0
note_on channel=0 note=50 velocity=0 time=57
note_on channel=0 note=59 velocity=57 time=0
note_on channel=0 note=59 velocity=0 time=120
note_on channel=0 note=56 velocity=63 time=0
note_on channel=0 note=56 velocity=0 time=120
note_on channel=0 note=53 velocity=56 time=0
note_on channel=0 note=53 velocity=0 time=0
note_on channel=0 note=89 velocity=0 time=0
note_on channel=0 note=77 velocity=0 time=0
note_on channel=0 note=77 velocity=102 time=0
note_on channel=0 note=89 velocity=102 time=0
note_on channel=0 note=47 velocity=73 time=0
note_on channel=0 note=47 velocity=0 time=87
note_on channel=0 note=89 velocity=0 time=0
note_on channel=0 note=77 velocity=0 time=0
note_on channel=0 note=65 velocity=63 time=0
note_on channel=0 note=56 velocity=54 time=0
note_on channel=0 note=56 velocity=0 time=120
note_on channel=0 note=65 velocity=0 time=0
note_on channel=0 note=71 velocity=70 time=0
note_on channel=0 note=53 velocity=54 time=0
note_on channel=0 note=53 velocity=0 time=120
note_on channel=0 note=71 velocity=0 time=0
note_on channel=0 note=74 velocity=56 time=0
note_on channel=0 note=50 velocity=46 time=0
note_on channel=0 note=50 velocity=0 time=27
note_on channel=0 note=74 velocity=0 time=0
note_on channel=0 note=77 velocity=53 time=0
note_on channel=0 note=47 velocity=53 time=0
note_on channel=0 note=47 velocity=0 time=87
note_on channel=0 note=77 velocity=0 time=0
note_on channel=0 note=83 velocity=49 time=0
note_on channel=0 note=56 velocity=39 time=0
note_on channel=0 note=56 velocity=0 time=120
note_on channel=0 note=83 velocity=0 time=0
note_on channel=0 note=86 velocity=46 time=0
note_on channel=0 note=53 velocity=42 time=0
note_on channel=0 note=53 velocity=0 time=117
note_on channel=0 note=86 velocity=0 time=0
note_on channel=0 note=83 velocity=42 time=0
note_on channel=0 note=50 velocity=35 time=0
note_on channel=0 note=50 velocity=0 time=27
note_on channel=0 note=83 velocity=0 time=0
note_on channel=0 note=86 velocity=39 time=0
note_on channel=0 note=47 velocity=42 time=0
control_change channel=0 control=64 value=0 time=0
control_change channel=0 control=64 value=127 time=50
note_on channel=0 note=47 velocity=0 time=57
note_on channel=0 note=55 velocity=33 time=0
note_on channel=0 note=55 velocity=0 time=57
note_on channel=0 note=53 velocity=37 time=0
note_on channel=0 note=53 velocity=0 time=27
note_on channel=0 note=50 velocity=32 time=0
note_on channel=0 note=50 velocity=0 time=27
note_on channel=0 note=86 velocity=0 time=0
note_on channel=0 note=47 velocity=37 time=0
note_on channel=0 note=47 velocity=0 time=27
note_on channel=0 note=55 velocity=31 time=0
note_on channel=0 note=55 velocity=0 time=27
note_on channel=0 note=76 velocity=39 time=0
note_on channel=0 note=47 velocity=34 time=0
note_on channel=0 note=47 velocity=0 time=87
note_on channel=0 note=55 velocity=29 time=0
note_on channel=0 note=55 velocity=0 time=0
note_on channel=0 note=76 velocity=0 time=0
note_on channel=0 note=77 velocity=42 time=0
note_on channel=0 note=55 velocity=34 time=0
note_on channel=0 note=47 velocity=34 time=0
control_change channel=0 control=64 value=0 time=50
note_on channel=0 note=77 velocity=0 time=190
note_on channel=0 note=80 velocity=34 time=0
note_on channel=0 note=80 velocity=0 time=240
note_on channel=0 note=47 velocity=0 time=0
note_on channel=0 note=55 velocity=0 time=0
note_on channel=0 note=79 velocity=39 time=0
note_on channel=0 note=79 velocity=0 time=240
note_on channel=0 note=74 velocity=37 time=0
note_on channel=0 note=67 velocity=31 time=0
note_on channel=0 note=67 velocity=0 time=240
note_on channel=0 note=74 velocity=0 time=0
note_on channel=0 note=76 velocity=39 time=0
note_on channel=0 note=67 velocity=33 time=0
control_change channel=0 control=64 value=0 time=0
note_on channel=0 note=67 velocity=0 time=240
note_on channel=0 note=76 velocity=0 time=0
note_on channel=0 note=77 velocity=34 time=0
note_on channel=0 note=68 velocity=28 time=0
note_on channel=0 note=68 velocity=0 time=240
note_on channel=0 note=77 velocity=0 time=0
note_on channel=0 note=76 velocity=39 time=0
note_on channel=0 note=67 velocity=33 time=0
note_on channel=0 note=67 velocity=0 time=240
note_on channel=0 note=76 velocity=0 time=0
note_on channel=0 note=71 velocity=37 time=0
note_on channel=0 note=55 velocity=22 time=0
note_on channel=0 note=62 velocity=26 time=0
note_on channel=0 note=62 velocity=0 time=240
note_on channel=0 note=55 velocity=0 time=0
note_on channel=0 note=71 velocity=0 time=0
note_on channel=0 note=72 velocity=39 time=0
note_on channel=0 note=64 velocity=39 time=0
note_on channel=0 note=55 velocity=33 time=0
control_change channel=0 control=64 value=0 time=0
note_on channel=0 note=55 velocity=0 time=240
note_on channel=0 note=58 velocity=28 time=0
note_on channel=0 note=58 velocity=0 time=240
note_on channel=0 note=72 velocity=0 time=0
note_on channel=0 note=73 velocity=47 time=0
note_on channel=0 note=57 velocity=33 time=0
note_on channel=0 note=57 velocity=0 time=240
note_on channel=0 note=52 velocity=22 time=0
note_on channel=0 note=55 velocity=26 time=0
note_on channel=0 note=55 velocity=0 time=0
note_on channel=0 note=64 velocity=0 time=0
note_on channel=0 note=73 velocity=0 time=0
note_on channel=0 note=52 velocity=0 time=0
note_on channel=0 note=62 velocity=45 time=0
note_on channel=0 note=74 velocity=45 time=0
note_on channel=0 note=53 velocity=28 time=0
note_on channel=0 note=57 velocity=33 time=0
control_change channel=0 control=64 value=0 time=149
note_on channel=0 note=57 velocity=0 time=0
note_on channel=0 note=53 velocity=0 time=0
note_on channel=0 note=55 velocity=23 time=0
note_on channel=0 note=58 velocity=28 time=0
note_on channel=0 note=58 velocity=0 time=0
note_on channel=0 note=62 velocity=0 time=0
note_on channel=0 note=74 velocity=0 time=0
note_on channel=0 note=55 velocity=0 time=0
note_on channel=0 note=81 velocity=49 time=0
note_on channel=0 note=53 velocity=28 time=0
note_on channel=0 note=57 velocity=33 time=0
note_on channel=0 note=57 velocity=0 time=0
note_on channel=0 note=53 velocity=0 time=0
note_on channel=0 note=49 velocity=22 time=0
note_on channel=0 note=52 velocity=26 time=0
note_on channel=0 note=52 velocity=0 time=0
note_on channel=0 note=49 velocity=0 time=0
note_on channel=0 note=50 velocity=28 time=0
note_on channel=0 note=53 velocity=33 time=0
control_change channel=0 control=64 value=0 time=0
note_on channel=0 note=53 velocity=0 time=0
note_on channel=0 note=50 velocity=0 time=0
note_on channel=0 note=81 velocity=0 time=0
note_on channel=0 note=82 velocity=39 time=0
note_on channel=0 note=65 velocity=33 time=0
note_on channel=0 note=62 velocity=28 time=0
note_on channel=0 note=82 velocity=0 time=240
note_on channel=0 note=81 velocity=43 time=0
note_on channel=0 note=81 velocity=0 time=0
note_on channel=0 note=62 velocity=0 time=0
note_on channel=0 note=65 velocity=0 time=0
note_on channel=0 note=77 velocity=39 time=0
note_on channel=0 note=63 velocity=30 time=0
note_on channel=0 note=60 velocity=25 time=0
note_on channel=0 note=77 velocity=0 time=0
note_on channel=0 note=82 velocity=43 time=0
control_change channel=0 control=64 value=0 time=23
note_on channel=0 note=82 velocity=0 time=0
note_on channel=0 note=60 velocity=0 time=0
note_on channel=0 note=63 velocity=0 time=0
note_on channel=0 note=77 velocity=39 time=0
note_on channel=0 note=58 velocity=25 time=0
note_on channel=0 note=61 velocity=30 time=0
note_on channel=0 note=77 velocity=0 time=240
note_on channel=0 note=77 velocity=39 time=0
note_on channel=0 note=77 velocity=0 time=0
note_on channel=0 note=61 velocity=0 time=0
note_on channel=0 note=58 velocity=0 time=0
note_on channel=0 note=73 velocity=36 time=0
note_on channel=0 note=59 velocity=30 time=0
note_on channel=0 note=56 velocity=25 time=0
note_on channel=0 note=73 velocity=0 time=0
note_on channel=0 note=78 velocity=37 time=0
note_on channel=0 note=78 velocity=0 time=0
note_on channel=0 note=56 velocity=0 time=0
note_on channel=0 note=59 velocity=0 time=0
note_on channel=0 note=73 velocity=39 time=0
note_on channel=0 note=54 velocity=25 time=0
note_on channel=0 note=58 velocity=30 time=0
control_change channel=0 control=64 value=127 time=92
note_on channel=0 note=73 velocity=0 time=148
note_on channel=0 note=73 velocity=43 time=0
note_on channel=0 note=73 velocity=0 time=0
note_on channel=0 note=58 velocity=0 time=0
note_on channel=0 note=54 velocity=0 time=0
note_on channel=0 note=70 velocity=39 time=0
note_on channel=0 note=54 velocity=25 time=0
note_on channel=0 note=58 velocity=30 time=0
note_on channel=0 note=70 velocity=0 time=0
note_on channel=0 note=82 velocity=46 time=0
note_on channel=0 note=82 velocity=0 time=0
note_on channel=0 note=58 velocity=0 time=0
note_on channel=0 note=54 velocity=0 time=0
note_on channel=0 note=78 velocity=38 time=0
note_on channel=0 note=54 velocity=25 time=0
note_on channel=0 note=58 velocity=30 time=0
note_on channel=0 note=78 velocity=0 time=240
note_on channel=0 note=78 velocity=42 time=0
note_on channel=0 note=78 velocity=0 time=0
note_on channel=0 note=58 velocity=0 time=0
note_on channel=0 note=54 velocity=0 time=0
note_on channel=0 note=73 velocity=39 time=0
note_on channel=0 note=54 velocity=39 time=0
note_on channel=0 note=58 velocity=39 time=0
note_on channel=0 note=73 velocity=0 time=0
note_on channel=0 note=85 velocity=54 time=0
note_on channel=0 note=85 velocity=0 time=0
note_on channel=0 note=58 velocity=0 time=0
note_on channel=0 note=54 velocity=0 time=0
note_on channel=0 note=81 velocity=49 time=0
note_on channel=0 note=60 velocity=44 time=0
note_on channel=0 note=54 velocity=37 time=0
note_on channel=0 note=57 velocity=37 time=0
control_change channel=0 control=64 value=0 time=12
control_change channel=0 control=64 value=127 time=137
note_on channel=0 note=81 velocity=0 time=91
note_on channel=0 note=81 velocity=64 time=0
note_on channel=0 note=81 velocity=0 time=0
note_on channel=0 note=57 velocity=0 time=0
note_on channel=0 note=54 velocity=0 time=0
note_on channel=0 note=60 velocity=0 time=0
note_on channel=0 note=78 velocity=64 time=0
note_on channel=0 note=52 velocity=48 time=0
note_on channel=0 note=60 velocity=58 time=0
note_on channel=0 note=54 velocity=48 time=0
note_on channel=0 note=57 velocity=48 time=0
note_on channel=0 note=78 velocity=0 time=0
note_on channel=0 note=84 velocity=79 time=0
note_on channel=0 note=84 velocity=0 time=0
note_on channel=0 note=57 velocity=0 time=0
note_on channel=0 note=52 velocity=0 time=0
note_on channel=0 note=60 velocity=0 time=0
note_on channel=0 note=54 velocity=0 time=0
note_on channel=0 note=78 velocity=73 time=0
note_on channel=0 note=51 velocity=61 time=0
note_on channel=0 note=59 velocity=71 time=0
note_on channel=0 note=54 velocity=61 time=0
note_on channel=0 note=57 velocity=71 time=0
control_change channel=0 control=64 value=0 time=7
note_on channel=0 note=57 velocity=0 time=0
note_on channel=0 note=59 velocity=0 time=0
note_on channel=0 note=78 velocity=0 time=0
note_on channel=0 note=51 velocity=0 time=0
note_on channel=0 note=54 velocity=0 time=0
note_on channel=0 note=83 velocity=97 time=0
note_on channel=0 note=51 velocity=63 time=0
control_change channel=0 control=64 value=127 time=50
note_on channel=0 note=51 velocity=0 time=0
note_on channel=0 note=59 velocity=57 time=0
note_on channel=0 note=59 velocity=0 time=0
note_on channel=0 note=83 velocity=0 time=0
note_on channel=0 note=78 velocity=87 time=0
note_on channel=0 note=51 velocity=57 time=0
control_change channel=0 control=64 value=0 time=16
note_on channel=0 note=51 velocity=0 time=104
note_on channel=0 note=78 velocity=0 time=0
note_on channel=0 note=52 velocity=58 time=0
note_on channel=0 note=52 velocity=0 time=0
note_on channel=0 note=54 velocity=45 time=0
control_change channel=0 control=64 value=127 time=78
note_on channel=0 note=54 velocity=0 time=0
note_on channel=0 note=59 velocity=41 time=0
note_on channel=0 note=59 velocity=0 time=120
note_on channel=0 note=54 velocity=41 time=0
control_change channel=0 control=64 value=0 time=9
note_on channel=0 note=54 velocity=0 time=111
note_on channel=0 note=56 velocity=44 time=0
note_on channel=0 note=56 velocity=0 time=120
note_on channel=0 note=75 velocity=72 time=0
note_on channel=0 note=57 velocity=49 time=0
control_change channel=0 control=64 value=127 time=7
note_on channel=0 note=57 velocity=0 time=113
note_on channel=0 note=75 velocity=0 time=0
note_on channel=0 note=83 velocity=59 time=0
note_on channel=0 note=59 velocity=40 time=0
control_change channel=0 control=64 value=0 time=16
note_on channel=0 note=59 velocity=0 time=0
note_on channel=0 note=83 velocity=0 time=0
note_on channel=0 note=75 velocity=61 time=0
note_on channel=0 note=57 velocity=40 time=0
note_on channel=0 note=57 velocity=0 time=120
note_on channel=0 note=75 velocity=0 time=0
note_on channel=0 note=76 velocity=64 time=0
note_on channel=0 note=56 velocity=44 time=0
note_on channel=0 note=56 velocity=0 time=0
note_on channel=0 note=76 velocity=0 time=0
note_on channel=0 note=78 velocity=74 time=0
note_on channel=0 note=54 velocity=49 time=0
control_change channel=0 control=64 value=127 time=78
note_on channel=0 note=54 velocity=0 time=42
note_on channel=0 note=78 velocity=0 time=0
note_on channel=0 note=83 velocity=59 time=0
note_on channel=0 note=59 velocity=37 time=0
note_on channel=0 note=59 velocity=0 time=0
note_on channel=0 note=83 velocity=0 time=0
note_on channel=0 note=78 velocity=61 time=0
note_on channel=0 note=54 velocity=39 time=0
control_change channel=0 control=64 value=0 time=11
note_on channel=0 note=54 velocity=0 time=109
note_on channel=0 note=78 velocity=0 time=0
note_on channel=0 note=80 velocity=64 time=0
note_on channel=0 note=52 velocity=42 time=0
note_on channel=0 note=52 velocity=0 time=0
note_on channel=0 note=80 velocity=0 time=0
note_on channel=0 note=81 velocity=74 time=0
note_on channel=0 note=51 velocity=49 time=0
control_change channel=0 control=64 value=127 time=64
note_on channel=0 note=51 velocity=0 time=56
note_on channel=0 note=81 velocity=0 time=0
note_on channel=0 note=83 velocity=59 time=0
note_on channel=0 note=59 velocity=40 time=0
control_change channel=0 control=64 value=0 time=14
note_on channel=0 note=59 velocity=0 time=0
note_on channel=0 note=83 velocity=0 time=0
note_on channel=0 note=81 velocity=62 time=0
note_on channel=0 note=51 velocity=39 time=0
note_on channel=0 note=51 velocity=0 time=120
note_on channel=0 note=81 velocity=0 time=0
note_on channel=0 note=80 velocity=69 time=0
note_on channel=0 note=52 velocity=43 time=0
note_on channel=0 note=52 velocity=0 time=0
note_on channel=0 note=80 velocity=0 time=0
note_on channel=0 note=78 velocity=74 time=0
note_on channel=0 note=54 velocity=49 time=0
control_change channel=0 control=64 value=127 time=50
note_on channel=0 note=54 velocity=0 time=70
note_on channel=0 note=78 velocity=0 time=0
note_on channel=0 note=83 velocity=59 time=0
note_on channel=0 note=59 velocity=37 time=0
note_on channel=0 note=59 velocity=0 time=0
note_on channel=0 note=83 velocity=0 time=0
note_on channel=0 note=78 velocity=61 time=0
note_on channel=0 note=54 velocity=39 time=0
control_change channel=0 control=64 value=0 time=9
note_on channel=0 note=54 velocity=0 time=111
note_on channel=0 note=78 velocity=0 time=0
note_on channel=0 note=76 velocity=64 time=0
note_on channel=0 note=56 velocity=42 time=0
note_on channel=0 note=56 velocity=0 time=0
note_on channel=0 note=76 velocity=0 time=0
note_on channel=0 note=75 velocity=66 time=0
note_on channel=0 note=57 velocity=44 time=0
control_change channel=0 control=64 value=127 time=43
note_on channel=0 note=57 velocity=0 time=77
note_on channel=0 note=75 velocity=0 time=0
note_on channel=0 note=83 velocity=52 time=0
note_on channel=0 note=59 velocity=35 time=0
control_change channel=0 control=64 value=0 time=14
note_on channel=0 note=59 velocity=0 time=0
note_on channel=0 note=83 velocity=0 time=0
note_on channel=0 note=75 velocity=53 time=0
note_on channel=0 note=57 velocity=33 time=0
note_on channel=0 note=57 velocity=0 time=120
note_on channel=0 note=75 velocity=0 time=0
note_on channel=0 note=76 velocity=58 time=0
note_on channel=0 note=56 velocity=36 time=0
note_on channel=0 note=56 velocity=0 time=0
note_on channel=0 note=76 velocity=0 time=0
note_on channel=0 note=78 velocity=61 time=0
note_on channel=0 note=54 velocity=40 time=0
control_change channel=0 control=64 value=127 time=64
note_on channel=0 note=54 velocity=0 time=56
note_on channel=0 note=78 velocity=0 time=0
note_on channel=0 note=83 velocity=47 time=0
note_on channel=0 note=59 velocity=29 time=0
note_on channel=0 note=59 velocity=0 time=0
note_on channel=0 note=83 velocity=0 time=0
note_on channel=0 note=78 velocity=48 time=0
note_on channel=0 note=54 velocity=30 time=0
control_change channel=0 control=64 value=0 time=14
note_on channel=0 note=54 velocity=0 time=106
note_on channel=0 note=78 velocity=0 time=0
note_on channel=0 note=80 velocity=49 time=0
note_on channel=0 note=52 velocity=32 time=0
note_on channel=0 note=52 velocity=0 time=0
note_on channel=0 note=80 velocity=0 time=0
note_on channel=0 note=81 velocity=55 time=0
note_on channel=0 note=51 velocity=36 time=0
note_on channel=0 note=51 velocity=0 time=120
note_on channel=0 note=81 velocity=0 time=0
note_on channel=0 note=83 velocity=43 time=0
note_on channel=0 note=59 velocity=29 time=0
note_on channel=0 note=59 velocity=0 time=0
note_on channel=0 note=83 velocity=0 time=0
note_on channel=0 note=81 velocity=44 time=0
note_on channel=0 note=51 velocity=28 time=0
note_on channel=0 note=51 velocity=0 time=120
note_on channel=0 note=81 velocity=0 time=0
note_on channel=0 note=80 velocity=48 time=0
note_on channel=0 note=52 velocity=30 time=0
note_on channel=0 note=52 velocity=0 time=0
note_on channel=0 note=80 velocity=0 time=0
note_on channel=0 note=78 velocity=50 time=0
note_on channel=0 note=54 velocity=33 time=0
control_change channel=0 control=64 value=127 time=57
note_on channel=0 note=54 velocity=0 time=63
note_on channel=0 note=78 velocity=0 time=0
note_on channel=0 note=83 velocity=38 time=0
note_on channel=0 note=59 velocity=24 time=0
note_on channel=0 note=59 velocity=0 time=0
note_on channel=0 note=83 velocity=0 time=0
note_on channel=0 note=78 velocity=39 time=0
note_on channel=0 note=54 velocity=24 time=0
control_change channel=0 control=64 value=0 time=13
note_on channel=0 note=54 velocity=0 time=107
note_on channel=0 note=78 velocity=0 time=0
note_on channel=0 note=76 velocity=39 time=0
note_on channel=0 note=56 velocity=26 time=0
note_on channel=0 note=56 velocity=0 time=0
note_on channel=0 note=76 velocity=0 time=0
note_on channel=0 note=75 velocity=44 time=0
note_on channel=0 note=57 velocity=29 time=0
control_change channel=0 control=64 value=127 time=80
note_on channel=0 note=57 velocity=0 time=40
note_on channel=0 note=75 velocity=0 time=0
note_on channel=0 note=83 velocity=35 time=0
note_on channel=0 note=59 velocity=24 time=0
control_change channel=0 control=64 value=0 time=17
note_on channel=0 note=59 velocity=0 time=0
note_on channel=0 note=83 velocity=0 time=0
note_on channel=0 note=75 velocity=37 time=0
note_on channel=0 note=57 velocity=23 time=0
note_on channel=0 note=57 velocity=0 time=0
note_on channel=0 note=75 velocity=0 time=0
note_on channel=0 note=76 velocity=41 time=0
note_on channel=0 note=56 velocity=25 time=0
note_on channel=0 note=56 velocity=0 time=0
note_on channel=0 note=76 velocity=0 time=0
note_on channel=0 note=78 velocity=44 time=0
note_on channel=0 note=54 velocity=29 time=0
control_change channel=0 control=64 value=127 time=78
note_on channel=0 note=54 velocity=0 time=42
note_on channel=0 note=78 velocity=0 time=0
note_on channel=0 note=83 velocity=35 time=0
note_on channel=0 note=59 velocity=22 time=0
note_on channel=0 note=59 velocity=0 time=0
note_on channel=0 note=83 velocity=0 time=0
note_on channel=0 note=78 velocity=36 time=0
note_on channel=0 note=54 velocity=23 time=0
control_change channel=0 control=64 value=0 time=9
note_on channel=0 note=54 velocity=0 time=0
note_on channel=0 note=78 velocity=0 time=0
note_on channel=0 note=80 velocity=38 time=0
note_on channel=0 note=52 velocity=25 time=0
note_on channel=0 note=52 velocity=0 time=0
note_on channel=0 note=80 velocity=0 time=0
note_on channel=0 note=81 velocity=44 time=0
note_on channel=0 note=51 velocity=29 time=0
control_change channel=0 control=64 value=127 time=43
note_on channel=0 note=51 velocity=0 time=77
note_on channel=0 note=81 velocity=0 time=0
note_on channel=0 note=83 velocity=35 time=0
note_on channel=0 note=59 velocity=24 time=0
control_change channel=0 control=64 value=0 time=14
note_on channel=0 note=59 velocity=0 time=0
note_on channel=0 note=83 velocity=0 time=0
note_on channel=0 note=81 velocity=37 time=0
note_on channel=0 note=51 velocity=23 time=0
note_on channel=0 note=51 velocity=0 time=120
note_on channel=0 note=81 velocity=0 time=0
note_on channel=0 note=80 velocity=41 time=0
note_on channel=0 note=52 velocity=25 time=0
note_on channel=0 note=52 velocity=0 time=0
note_on channel=0 note=80 velocity=0 time=0
note_on channel=0 note=78 velocity=44 time=0
note_on channel=0 note=54 velocity=29 time=0
control_change channel=0 control=64 value=127 time=46
note_on channel=0 note=54 velocity=0 time=74
note_on channel=0 note=78 velocity=0 time=0
note_on channel=0 note=83 velocity=35 time=0
note_on channel=0 note=59 velocity=22 time=0
note_on channel=0 note=59 velocity=0 time=0
note_on channel=0 note=83 velocity=0 time=0
note_on channel=0 note=78 velocity=36 time=0
note_on channel=0 note=54 velocity=23 time=0
control_change channel=0 control=64 value=0 time=5
note_on channel=0 note=54 velocity=0 time=0
note_on channel=0 note=78 velocity=0 time=0
note_on channel=0 note=76 velocity=38 time=0
note_on channel=0 note=56 velocity=25 time=0
note_on channel=0 note=56 velocity=0 time=0
note_on channel=0 note=76 velocity=0 time=0
note_on channel=0 note=75 velocity=44 time=0
note_on channel=0 note=57 velocity=29 time=0
note_on channel=0 note=57 velocity=0 time=120
note_on channel=0 note=75 velocity=0 time=0
note_on channel=0 note=76 velocity=35 time=0
note_on channel=0 note=56 velocity=24 time=0
note_on channel=0 note=56 velocity=0 time=0
note_on channel=0 note=76 velocity=0 time=0
note_on channel=0 note=75 velocity=37 time=0
note_on channel=0 note=57 velocity=23 time=0
note_on channel=0 note=57 velocity=0 time=120
note_on channel=0 note=75 velocity=0 time=0
note_on channel=0 note=73 velocity=41 time=0
note_on channel=0 note=58 velocity=25 time=0
note_on channel=0 note=58 velocity=0 time=0
note_on channel=0 note=73 velocity=0 time=0
note_on channel=0 note=71 velocity=44 time=0
note_on channel=0 note=59 velocity=29 time=0
control_change channel=0 control=64 value=0 time=0
note_on channel=0 note=59 velocity=0 time=0
note_on channel=0 note=71 velocity=0 time=0
note_on channel=0 note=73 velocity=35 time=0
note_on channel=0 note=58 velocity=24 time=0
note_on channel=0 note=58 velocity=0 time=120
note_on channel=0 note=73 velocity=0 time=0
note_on channel=0 note=63 velocity=35 time=0
note_on channel=0 note=57 velocity=24 time=0
note_on channel=0 note=57 velocity=0 time=120
note_on channel=0 note=63 velocity=0 time=0
note_on channel=0 note=64 velocity=35 time=0
note_on channel=0 note=56 velocity=24 time=0
note_on channel=0 note=56 velocity=0 time=120
note_on channel=0 note=64 velocity=0 time=0
note_on channel=0 note=66 velocity=35 time=0
note_on channel=0 note=54 velocity=27 time=0
note_on channel=0 note=54 velocity=0 time=57
note_on channel=0 note=66 velocity=0 time=0
note_on channel=0 note=69 velocity=32 time=0
note_on channel=0 note=51 velocity=24 time=0
note_on channel=0 note=47 velocity=24 time=0
note_on channel=0 note=47 velocity=0 time=57
note_on channel=0 note=51 velocity=0 time=0
note_on channel=0 note=69 velocity=0 time=0
note_on channel=0 note=68 velocity=32 time=0
note_on channel=0 note=52 velocity=24 time=0
note_on channel=0 note=49 velocity=24 time=0
note_on channel=0 note=49 velocity=0 time=0
note_on channel=0 note=52 velocity=0 time=0
note_on channel=0 note=68 velocity=0 time=0
note_on channel=0 note=66 velocity=32 time=0
note_on channel=0 note=54 velocity=24 time=0
note_on channel=0 note=51 velocity=24 time=0
note_on channel=0 note=51 velocity=0 time=0
note_on channel=0 note=54 velocity=0 time=0
note_on channel=0 note=66 velocity=0 time=0
note_on channel=0 note=68 velocity=34 time=0
note_on channel=0 note=56 velocity=40 time=0
note_on channel=0 note=52 velocity=24 time=0
control_change channel=0 control=64 value=127 time=78
note_on channel=0 note=68 velocity=0 time=42
note_on channel=0 note=71 velocity=26 time=0
note_on channel=0 note=71 velocity=0 time=120
note_on channel=0 note=52 velocity=0 time=0
note_on channel=0 note=59 velocity=31 time=0
note_on channel=0 note=59 velocity=0 time=120
note_on channel=0 note=71 velocity=26 time=0
note_on channel=0 note=71 velocity=0 time=0
note_on channel=0 note=56 velocity=0 time=0
note_on channel=0 note=68 velocity=30 time=0
note_on channel=0 note=59 velocity=36 time=0
control_change channel=0 control=64 value=0 time=16
control_change channel=0 control=64 value=127 time=83
note_on channel=0 note=68 velocity=0 time=21
note_on channel=0 note=71 velocity=27 time=0
note_on channel=0 note=71 velocity=0 time=0
note_on channel=0 note=59 velocity=0 time=0
note_on channel=0 note=66 velocity=28 time=0
note_on channel=0 note=57 velocity=34 time=0
control_change channel=0 control=64 value=0 time=13
control_change channel=0 control=64 value=127 time=51
note_on channel=0 note=66 velocity=0 time=0
note_on channel=0 note=71 velocity=27 time=0
note_on channel=0 note=71 velocity=0 time=0
note_on channel=0 note=57 velocity=0 time=0
note_on channel=0 note=64 velocity=34 time=0
note_on channel=0 note=56 velocity=40 time=0
note_on channel=0 note=47 velocity=24 time=0
control_change channel=0 control=64 value=0 time=0
control_change channel=0 control=64 value=127 time=64
note_on channel=0 note=64 velocity=0 time=56
note_on channel=0 note=71 velocity=26 time=0
note_on channel=0 note=71 velocity=0 time=0
note_on channel=0 note=47 velocity=0 time=0
note_on channel=0 note=56 velocity=0 time=0
note_on channel=0 note=63 velocity=27 time=0
note_on channel=0 note=54 velocity=32 time=0
control_change channel=0 control=64 value=0 time=14
control_change channel=0 control=64 value=127 time=43
note_on channel=0 note=63 velocity=0 time=63
note_on channel=0 note=71 velocity=25 time=0
note_on channel=0 note=71 velocity=0 time=90
note_on channel=0 note=54 velocity=0 time=0
control_change channel=0 control=64 value=0 time=0
note_on channel=0 note=63 velocity=27 time=30
note_on channel=0 note=54 velocity=32 time=0
control_change channel=0 control=64 value=127 time=64
note_on channel=0 note=63 velocity=0 time=56
note_on channel=0 note=71 velocity=26 time=0
note_on channel=0 note=71 velocity=0 time=0
note_on channel=0 note=54 velocity=0 time=0
note_on channel=0 note=65 velocity=28 time=0
note_on channel=0 note=56 velocity=34 time=0
control_change channel=0 control=64 value=0 time=18
control_change channel=0 control=64 value=127 time=67
note_on channel=0 note=65 velocity=0 time=35
note_on channel=0 note=71 velocity=28 time=0
note_on channel=0 note=71 velocity=0 time=0
note_on channel=0 note=56 velocity=0 time=0
note_on channel=0 note=66 velocity=30 time=0
note_on channel=0 note=57 velocity=36 time=0
note_on channel=0 note=47 velocity=24 time=0
control_change channel=0 control=64 value=0 time=10
control_change channel=0 control=64 value=127 time=75
note_on channel=0 note=66 velocity=0 time=35
note_on channel=0 note=71 velocity=28 time=0
note_on channel=0 note=71 velocity=0 time=120
note_on channel=0 note=47 velocity=0 time=0
note_on channel=0 note=57 velocity=0 time=0
note_on channel=0 note=69 velocity=36 time=0
note_on channel=0 note=61 velocity=43 time=0
note_on channel=0 note=69 velocity=0 time=120
note_on channel=0 note=71 velocity=31 time=0
note_on channel=0 note=71 velocity=0 time=120
note_on channel=0 note=61 velocity=0 time=0
note_on channel=0 note=68 velocity=37 time=0
note_on channel=0 note=59 velocity=37 time=0
note_on channel=0 note=47 velocity=22 time=0
control_change channel=0 control=64 value=0 time=16
control_change channel=0 control=64 value=127 time=62
note_on channel=0 note=68 velocity=0 time=42
note_on channel=0 note=71 velocity=26 time=0
note_on channel=0 note=71 velocity=0 time=110
note_on channel=0 note=47 velocity=0 time=0
note_on channel=0 note=59 velocity=0 time=0
note_on channel=0 note=71 velocity=25 time=0
note_on channel=0 note=54 velocity=30 time=0
note_on channel=0 note=45 velocity=20 time=0
control_change channel=0 control=64 value=0 time=8
control_change channel=0 control=64 value=127 time=63
note_on channel=0 note=71 velocity=0 time=0
note_on channel=0 note=75 velocity=27 time=0
note_on channel=0 note=75 velocity=0 time=0
note_on channel=0 note=45 velocity=0 time=0
note_on channel=0 note=54 velocity=0 time=0
note_on channel=0 note=71 velocity=36 time=0
note_on channel=0 note=44 velocity=22 time=0
note_on channel=0 note=56 velocity=22 time=0
control_change channel=0 control=64 value=0 time=8
control_change channel=0 control=64 value=127 time=61
note_on channel=0 note=71 velocity=0 time=51
note_on channel=0 note=76 velocity=30 time=0
note_on channel=0 note=76 velocity=0 time=0
note_on channel=0 note=56 velocity=0 time=0
note_on channel=0 note=44 velocity=0 time=0
note_on channel=0 note=71 velocity=38 time=0
control_change channel=0 control=64 value=0 time=10
control_change channel=0 control=64 value=127 time=99
note_on channel=0 note=71 velocity=0 time=11
note_on channel=0 note=78 velocity=30 time=0
note_on channel=0 note=78 velocity=0 time=0
note_on channel=0 note=71 velocity=45 time=0
control_change channel=0 control=64 value=0 time=10
control_change channel=0 control=64 value=127 time=65
note_on channel=0 note=71 velocity=0 time=45
note_on channel=0 note=79 velocity=33 time=0
note_on channel=0 note=79 velocity=0 time=0
note_on channel=0 note=71 velocity=49 time=0
control_change channel=0 control=64 value=0 time=6
control_change channel=0 control=64 value=127 time=46
note_on channel=0 note=71 velocity=0 time=0
note_on channel=0 note=80 velocity=40 time=0
note_on channel=0 note=80 velocity=0 time=0
note_on channel=0 note=71 velocity=34 time=0
note_on channel=0 note=80 velocity=57 time=0
note_on channel=0 note=52 velocity=30 time=0
control_change channel=0 control=64 value=0 time=7
control_change channel=0 control=64 value=127 time=71
note_on channel=0 note=52 velocity=0 time=42
note_on channel=0 note=71 velocity=0 time=0
note_on channel=0 note=76 velocity=26 time=0
note_on channel=0 note=64 velocity=23 time=0
note_on channel=0 note=64 velocity=0 time=120
note_on channel=0 note=76 velocity=0 time=0
note_on channel=0 note=71 velocity=31 time=0
note_on channel=0 note=52 velocity=27 time=0
note_on channel=0 note=52 velocity=0 time=120
note_on channel=0 note=71 velocity=0 time=0
note_on channel=0 note=76 velocity=26 time=0
note_on channel=0 note=64 velocity=23 time=0
note_on channel=0 note=64 velocity=0 time=0
note_on channel=0 note=76 velocity=0 time=0
note_on channel=0 note=80 velocity=0 time=0
note_on channel=0 note=76 velocity=30 time=0
note_on channel=0 note=83 velocity=52 time=0
note_on channel=0 note=49 velocity=27 time=0
control_change channel=0 control=64 value=0 time=16
control_change channel=0 control=64 value=127 time=83
note_on channel=0 note=49 velocity=0 time=0
note_on channel=0 note=76 velocity=0 time=0
note_on channel=0 note=69 velocity=27 time=0
note_on channel=0 note=61 velocity=24 time=0
note_on channel=0 note=61 velocity=0 time=0
note_on channel=0 note=69 velocity=0 time=0
note_on channel=0 note=83 velocity=0 time=0
note_on channel=0 note=73 velocity=28 time=0
note_on channel=0 note=81 velocity=49 time=0
note_on channel=0 note=45 velocity=25 time=0
control_change channel=0 control=64 value=0 time=13
control_change channel=0 control=64 value=127 time=79
note_on channel=0 note=45 velocity=0 time=0
note_on channel=0 note=73 velocity=0 time=0
note_on channel=0 note=76 velocity=27 time=0
note_on channel=0 note=57 velocity=24 time=0
note_on channel=0 note=57 velocity=0 time=0
note_on channel=0 note=76 velocity=0 time=0
note_on channel=0 note=81 velocity=0 time=0
note_on channel=0 note=76 velocity=34 time=0
note_on channel=0 note=80 velocity=57 time=0
note_on channel=0 note=47 velocity=30 time=0
control_change channel=0 control=64 value=0 time=0
control_change channel=0 control=64 value=127 time=64
note_on channel=0 note=47 velocity=0 time=56
note_on channel=0 note=76 velocity=0 time=0
note_on channel=0 note=71 velocity=26 time=0
note_on channel=0 note=59 velocity=23 time=0
note_on channel=0 note=59 velocity=0 time=0
note_on channel=0 note=71 velocity=0 time=0
note_on channel=0 note=80 velocity=0 time=0
note_on channel=0 note=75 velocity=27 time=0
note_on channel=0 note=78 velocity=47 time=0
note_on channel=0 note=47 velocity=24 time=0
control_change channel=0 control=64 value=0 time=14
control_change channel=0 control=64 value=127 time=43
note_on channel=0 note=47 velocity=0 time=63
note_on channel=0 note=75 velocity=0 time=0
note_on channel=0 note=71 velocity=25 time=0
note_on channel=0 note=59 velocity=22 time=0
note_on channel=0 note=78 velocity=0 time=90
control_change channel=0 control=64 value=0 time=0
note_on channel=0 note=59 velocity=0 time=30
note_on channel=0 note=71 velocity=0 time=0
note_on channel=0 note=75 velocity=27 time=0
note_on channel=0 note=78 velocity=47 time=0
note_on channel=0 note=57 velocity=24 time=0
control_change channel=0 control=64 value=127 time=64
note_on channel=0 note=57 velocity=0 time=56
note_on channel=0 note=75 velocity=0 time=0
note_on channel=0 note=71 velocity=26 time=0
note_on channel=0 note=69 velocity=23 time=0
note_on channel=0 note=69 velocity=0 time=0
note_on channel=0 note=71 velocity=0 time=0
note_on channel=0 note=78 velocity=0 time=0
note_on channel=0 note=76 velocity=28 time=0
note_on channel=0 note=80 velocity=49 time=0
note_on channel=0 note=56 velocity=25 time=0
control_change channel=0 control=64 value=0 time=18
control_change channel=0 control=64 value=127 time=67
note_on channel=0 note=56 velocity=0 time=35
note_on channel=0 note=76 velocity=0 time=0
note_on channel=0 note=71 velocity=28 time=0
note_on channel=0 note=68 velocity=25 time=0
note_on channel=0 note=68 velocity=0 time=0
note_on channel=0 note=71 velocity=0 time=0
note_on channel=0 note=80 velocity=0 time=0
note_on channel=0 note=78 velocity=33 time=0
note_on channel=0 note=81 velocity=57 time=0
note_on channel=0 note=54 velocity=29 time=0
control_change channel=0 control=64 value=0 time=10
control_change channel=0 control=64 value=127 time=75
note_on channel=0 note=54 velocity=0 time=35
note_on channel=0 note=78 velocity=0 time=0
note_on channel=0 note=71 velocity=42 time=0
note_on channel=0 note=66 velocity=28 time=0
note_on channel=0 note=66 velocity=0 time=120
note_on channel=0 note=71 velocity=0 time=0
note_on channel=0 note=81 velocity=0 time=0
note_on channel=0 note=85 velocity=56 time=0
note_on channel=0 note=80 velocity=56 time=0
note_on channel=0 note=52 velocity=37 time=0
note_on channel=0 note=52 velocity=0 time=120
note_on channel=0 note=80 velocity=0 time=0
note_on channel=0 note=71 velocity=49 time=0
note_on channel=0 note=64 velocity=31 time=0
note_on channel=0 note=64 velocity=0 time=0
note_on channel=0 note=71 velocity=0 time=0
note_on channel=0 note=85 velocity=0 time=0
note_on channel=0 note=78 velocity=66 time=0
note_on channel=0 note=83 velocity=66 time=0
note_on channel=0 note=51 velocity=48 time=0
control_change channel=0 control=64 value=0 time=16
control_change channel=0 control=64 value=127 time=62
note_on channel=0 note=51 velocity=0 time=42
note_on channel=0 note=78 velocity=0 time=0
note_on channel=0 note=71 velocity=55 time=0
note_on channel=0 note=63 velocity=40 time=0
note_on channel=0 note=63 velocity=0 time=0
note_on channel=0 note=71 velocity=0 time=0
note_on channel=0 note=83 velocity=0 time=0
note_on channel=0 note=81 velocity=25 time=0
note_on channel=0 note=78 velocity=25 time=0
note_on channel=0 note=87 velocity=38 time=0
note_on channel=0 note=47 velocity=22 time=0
note_on channel=0 note=47 velocity=0 time=0
note_on channel=0 note=81 velocity=0 time=0
note_on channel=0 note=78 velocity=0 time=0
note_on channel=0 note=87 velocity=0 time=0
note_on channel=0 note=59 velocity=20 time=0
note_on channel=0 note=59 velocity=0 time=0
note_on channel=0 note=88 velocity=42 time=0
note_on channel=0 note=80 velocity=35 time=0
note_on channel=0 note=76 velocity=42 time=0
note_on channel=0 note=52 velocity=28 time=0
note_on channel=0 note=64 velocity=28 time=0
control_change channel=0 control=64 value=0 time=8
control_change channel=0 control=64 value=127 time=63
note_on channel=0 note=76 velocity=0 time=19
note_on channel=0 note=88 velocity=0 time=0
note_on channel=0 note=80 velocity=0 time=0
note_on channel=0 note=76 velocity=36 time=30
note_on channel=0 note=76 velocity=0 time=120
note_on channel=0 note=71 velocity=40 time=0
note_on channel=0 note=71 velocity=0 time=120
note_on channel=0 note=68 velocity=36 time=0
note_on channel=0 note=68 velocity=0 time=120
note_on channel=0 note=52 velocity=0 time=0
note_on channel=0 note=64 velocity=0 time=0
note_on channel=0 note=71 velocity=41 time=0
note_on channel=0 note=71 velocity=0 time=120
note_on channel=0 note=68 velocity=36 time=0
note_on channel=0 note=68 velocity=0 time=0
note_on channel=0 note=66 velocity=40 time=0
note_on channel=0 note=51 velocity=42 time=0
note_on channel=0 note=59 velocity=42 time=0
control_change channel=0 control=64 value=0 time=14
control_change channel=0 control=64 value=127 time=64
note_on channel=0 note=66 velocity=0 time=0
note_on channel=0 note=75 velocity=36 time=0
note_on channel=0 note=75 velocity=0 time=0
note_on channel=0 note=59 velocity=0 time=0
note_on channel=0 note=51 velocity=0 time=0
note_on channel=0 note=66 velocity=47 time=0
note_on channel=0 note=49 velocity=42 time=0
note_on channel=0 note=58 velocity=42 time=0
control_change channel=0 control=64 value=0 time=0
note_on channel=0 note=66 velocity=0 time=120
note_on channel=0 note=76 velocity=36 time=0
control_change channel=0 control=64 value=127 time=0
note_on channel=0 note=76 velocity=0 time=120
note_on channel=0 note=73 velocity=38 time=0
note_on channel=0 note=73 velocity=0 time=120
note_on channel=0 note=66 velocity=34 time=0
note_on channel=0 note=66 velocity=0 time=90
note_on channel=0 note=58 velocity=0 time=30
note_on channel=0 note=49 velocity=0 time=0
note_on channel=0 note=66 velocity=38 time=0
note_on channel=0 note=58 velocity=47 time=0
note_on channel=0 note=64 velocity=47 time=0
control_change channel=0 control=64 value=0 time=10
control_change channel=0 control=64 value=127 time=68
note_on channel=0 note=66 velocity=0 time=42
note_on channel=0 note=78 velocity=31 time=0
note_on channel=0 note=78 velocity=0 time=120
note_on channel=0 note=73 velocity=36 time=0
note_on channel=0 note=73 velocity=0 time=0
note_on channel=0 note=66 velocity=34 time=0
note_on channel=0 note=66 velocity=0 time=90
note_on channel=0 note=64 velocity=0 time=0
note_on channel=0 note=58 velocity=0 time=0
note_on channel=0 note=66 velocity=38 time=0
note_on channel=0 note=59 velocity=42 time=0
note_on channel=0 note=63 velocity=42 time=0
control_change channel=0 control=64 value=0 time=19
control_change channel=0 control=64 value=127 time=22
note_on channel=0 note=66 velocity=0 time=35
note_on channel=0 note=75 velocity=30 time=0
note_on channel=0 note=75 velocity=0 time=120
note_on channel=0 note=71 velocity=37 time=0
note_on channel=0 note=71 velocity=0 time=120
note_on channel=0 note=66 velocity=34 time=0
note_on channel=0 note=66 velocity=0 time=57
note_on channel=0 note=63 velocity=0 time=0
note_on channel=0 note=59 velocity=0 time=0
note_on channel=0 note=63 velocity=46 time=0
note_on channel=0 note=47 velocity=38 time=0
note_on channel=0 note=59 velocity=38 time=0
note_on channel=0 note=63 velocity=0 time=57
note_on channel=0 note=71 velocity=37 time=0
note_on channel=0 note=71 velocity=0 time=57
note_on channel=0 note=59 velocity=0 time=0
note_on channel=0 note=47 velocity=0 time=0
note_on channel=0 note=64 velocity=46 time=0
note_on channel=0 note=49 velocity=38 time=0
note_on channel=0 note=57 velocity=38 time=0
control_change channel=0 control=64 value=0 time=8
control_change channel=0 control=64 value=127 time=8
note_on channel=0 note=64 velocity=0 time=0
note_on channel=0 note=69 velocity=40 time=0
note_on channel=0 note=69 velocity=0 time=0
note_on channel=0 note=57 velocity=0 time=0
note_on channel=0 note=49 velocity=0 time=0
note_on channel=0 note=64 velocity=38 time=0
note_on channel=0 note=50 velocity=42 time=0
note_on channel=0 note=56 velocity=42 time=0
control_change channel=0 control=64 value=0 time=8
control_change channel=0 control=64 value=127 time=77
note_on channel=0 note=64 velocity=0 time=35
note_on channel=0 note=71 velocity=36 time=0
note_on channel=0 note=71 velocity=0 time=120
note_on channel=0 note=68 velocity=42 time=0
note_on channel=0 note=68 velocity=0 time=120
note_on channel=0 note=64 velocity=36 time=0
note_on channel=0 note=64 velocity=0 time=90
note_on channel=0 note=56 velocity=0 time=30
note_on channel=0 note=50 velocity=0 time=0
note_on channel=0 note=64 velocity=48 time=0
note_on channel=0 note=56 velocity=45 time=0
note_on channel=0 note=62 velocity=45 time=0
note_on channel=0 note=64 velocity=0 time=120
note_on channel=0 note=76 velocity=39 time=0
note_on channel=0 note=76 velocity=0 time=120
note_on channel=0 note=71 velocity=45 time=0
note_on channel=0 note=71 velocity=0 time=0
note_on channel=0 note=64 velocity=36 time=0
note_on channel=0 note=64 velocity=0 time=90
note_on channel=0 note=62 velocity=0 time=0
note_on channel=0 note=56 velocity=0 time=0
note_on channel=0 note=64 velocity=44 time=0
note_on channel=0 note=57 velocity=42 time=0
note_on channel=0 note=61 velocity=42 time=0
control_change channel=0 control=64 value=0 time=0
control_change channel=0 control=64 value=127 time=75
note_on channel=0 note=64 velocity=0 time=42
note_on channel=0 note=76 velocity=34 time=0
note_on channel=0 note=76 velocity=0 time=120
note_on channel=0 note=73 velocity=38 time=0
note_on channel=0 note=73 velocity=0 time=120
note_on channel=0 note=69 velocity=34 time=0
note_on channel=0 note=69 velocity=0 time=120
note_on channel=0 note=64 velocity=38 time=0
note_on channel=0 note=64 velocity=0 time=27
note_on channel=0 note=76 velocity=36 time=0
note_on channel=0 note=76 velocity=0 time=57
note_on channel=0 note=61 velocity=0 time=0
note_on channel=0 note=57 velocity=0 time=0
note_on channel=0 note=64 velocity=41 time=0
note_on channel=0 note=57 velocity=40 time=0
note_on channel=0 note=61 velocity=40 time=0
note_on channel=0 note=64 velocity=0 time=87
note_on channel=0 note=76 velocity=48 time=0
note_on channel=0 note=76 velocity=0 time=0
note_on channel=0 note=61 velocity=0 time=0
note_on channel=0 note=57 velocity=0 time=0
note_on channel=0 note=64 velocity=48 time=0
note_on channel=0 note=60 velocity=54 time=0
note_on channel=0 note=56 velocity=54 time=0
control_change channel=0 control=64 value=0 time=3
control_change channel=0 control=64 value=127 time=29
note_on channel=0 note=64 velocity=0 time=88
note_on channel=0 note=76 velocity=42 time=0
note_on channel=0 note=76 velocity=0 time=120
note_on channel=0 note=56 velocity=0 time=0
note_on channel=0 note=60 velocity=0 time=0
note_on channel=0 note=64 velocity=53 time=0
note_on channel=0 note=61 velocity=51 time=0
note_on channel=0 note=57 velocity=51 time=0
control_change channel=0 control=64 value=0 time=10
control_change channel=0 control=64 value=127 time=61
note_on channel=0 note=64 velocity=0 time=49
note_on channel=0 note=76 velocity=43 time=0
note_on channel=0 note=76 velocity=0 time=120
note_on channel=0 note=57 velocity=0 time=0
note_on channel=0 note=61 velocity=0 time=0
note_on channel=0 note=64 velocity=54 time=0
note_on channel=0 note=49 velocity=60 time=0
note_on channel=0 note=57 velocity=60 time=0
control_change channel=0 control=64 value=0 time=13
control_change channel=0 control=64 value=127 time=40
note_on channel=0 note=64 velocity=0 time=67
note_on channel=0 note=76 velocity=50 time=0
note_on channel=0 note=57 velocity=0 time=60
note_on channel=0 note=49 velocity=0 time=0
note_on channel=0 note=76 velocity=0 time=60
note_on channel=0 note=64 velocity=60 time=0
note_on channel=0 note=47 velocity=58 time=0
note_on channel=0 note=56 velocity=58 time=0
control_change channel=0 control=64 value=0 time=11
control_change channel=0 control=64 value=127 time=35
note_on channel=0 note=64 velocity=0 time=0
note_on channel=0 note=76 velocity=53 time=0
note_on channel=0 note=56 velocity=0 time=60
note_on channel=0 note=47 velocity=0 time=0
note_on channel=0 note=76 velocity=0 time=0
note_on channel=0 note=64 velocity=67 time=0
note_on channel=0 note=56 velocity=68 time=0
control_change channel=0 control=64 value=0 time=10
control_change channel=0 control=64 value=127 time=68
note_on channel=0 note=64 velocity=0 time=42
note_on channel=0 note=76 velocity=59 time=0
note_on channel=0 note=76 velocity=0 time=120
note_on channel=0 note=56 velocity=0 time=0
note_on channel=0 note=64 velocity=66 time=0
note_on channel=0 note=54 velocity=64 time=0
note_on channel=0 note=46 velocity=64 time=0
note_on channel=0 note=64 velocity=0 time=0
note_on channel=0 note=76 velocity=52 time=0
note_on channel=0 note=76 velocity=0 time=0
note_on channel=0 note=64 velocity=60 time=0
note_on channel=0 note=64 velocity=0 time=120
note_on channel=0 note=76 velocity=46 time=0
note_on channel=0 note=76 velocity=0 time=120
note_on channel=0 note=46 velocity=0 time=0
note_on channel=0 note=54 velocity=0 time=0
note_on channel=0 note=64 velocity=59 time=0
note_on channel=0 note=46 velocity=51 time=0
note_on channel=0 note=54 velocity=54 time=0
control_change channel=0 control=64 value=0 time=7
control_change channel=0 control=64 value=127 time=57
note_on channel=0 note=64 velocity=0 time=0
note_on channel=0 note=76 velocity=47 time=0
note_on channel=0 note=76 velocity=0 time=0
note_on channel=0 note=54 velocity=0 time=0
note_on channel=0 note=46 velocity=0 time=0
note_on channel=0 note=63 velocity=38 time=0
note_on channel=0 note=54 velocity=41 time=0
note_on channel=0 note=47 velocity=34 time=0
control_change channel=0 control=64 value=0 time=0
control_change channel=0 control=64 value=127 time=71
note_on channel=0 note=63 velocity=0 time=49
note_on channel=0 note=75 velocity=34 time=0
note_on channel=0 note=75 velocity=0 time=120
note_on channel=0 note=54 velocity=0 time=0
note_on channel=0 note=71 velocity=38 time=0
note_on channel=0 note=59 velocity=32 time=0
note_on channel=0 note=71 velocity=0 time=120
note_on channel=0 note=66 velocity=36 time=0
note_on channel=0 note=66 velocity=0 time=90
note_on channel=0 note=59 velocity=0 time=0
note_on channel=0 note=66 velocity=38 time=0
note_on channel=0 note=58 velocity=38 time=0
control_change channel=0 control=64 value=0 time=9
control_change channel=0 control=64 value=127 time=83
note_on channel=0 note=66 velocity=0 time=28
note_on channel=0 note=78 velocity=34 time=0
note_on channel=0 note=78 velocity=0 time=120
note_on channel=0 note=58 velocity=0 time=0
note_on channel=0 note=75 velocity=38 time=0
note_on channel=0 note=59 velocity=34 time=0
control_change channel=0 control=64 value=0 time=13
control_change channel=0 control=64 value=127 time=65
note_on channel=0 note=75 velocity=0 time=0
note_on channel=0 note=69 velocity=35 time=0
note_on channel=0 note=69 velocity=0 time=0
note_on channel=0 note=59 velocity=0 time=0
note_on channel=0 note=47 velocity=0 time=0
note_on channel=0 note=68 velocity=51 time=0
note_on channel=0 note=52 velocity=31 time=0
control_change channel=0 control=64 value=0 time=6
control_change channel=0 control=64 value=0 time=0
control_change channel=0 control=64 value=0 time=1
control_change channel=0 control=64 value=127 time=57
note_on channel=0 note=52 velocity=0 time=56
note_on channel=0 note=59 velocity=23 time=0
note_on channel=0 note=59 velocity=0 time=120
note_on channel=0 note=56 velocity=31 time=0
note_on channel=0 note=56 velocity=0 time=120
note_on channel=0 note=52 velocity=25 time=0
note_on channel=0 note=52 velocity=0 time=0
note_on channel=0 note=68 velocity=0 time=0
note_on channel=0 note=51 velocity=31 time=0
control_change channel=0 control=64 value=0 time=14
control_change channel=0 control=64 value=127 time=78
note_on channel=0 note=51 velocity=0 time=28
note_on channel=0 note=59 velocity=27 time=0
note_on channel=0 note=59 velocity=0 time=120
note_on channel=0 note=83 velocity=47 time=0
note_on channel=0 note=71 velocity=47 time=0
note_on channel=0 note=54 velocity=31 time=0
note_on channel=0 note=54 velocity=0 time=0
note_on channel=0 note=51 velocity=32 time=0
note_on channel=0 note=51 velocity=0 time=0
note_on channel=0 note=71 velocity=0 time=0
note_on channel=0 note=83 velocity=0 time=0
note_on channel=0 note=82 velocity=51 time=0
note_on channel=0 note=70 velocity=51 time=0
note_on channel=0 note=49 velocity=38 time=0
control_change channel=0 control=64 value=0 time=7
control_change channel=0 control=64 value=127 time=85
note_on channel=0 note=49 velocity=0 time=28
note_on channel=0 note=58 velocity=29 time=0
note_on channel=0 note=58 velocity=0 time=120
note_on channel=0 note=54 velocity=31 time=0
note_on channel=0 note=54 velocity=0 time=120
note_on channel=0 note=49 velocity=27 time=0
note_on channel=0 note=49 velocity=0 time=120
note_on channel=0 note=70 velocity=0 time=0
note_on channel=0 note=82 velocity=0 time=0
note_on channel=0 note=88 velocity=56 time=0
note_on channel=0 note=76 velocity=56 time=0
note_on channel=0 note=42 velocity=31 time=0
note_on channel=0 note=42 velocity=0 time=120
note_on channel=0 note=58 velocity=26 time=0
note_on channel=0 note=58 velocity=0 time=120
note_on channel=0 note=54 velocity=29 time=0
note_on channel=0 note=54 velocity=0 time=0
note_on channel=0 note=49 velocity=27 time=0
note_on channel=0 note=49 velocity=0 time=0
note_on channel=0 note=76 velocity=0 time=0
note_on channel=0 note=88 velocity=0 time=0
note_on channel=0 note=87 velocity=51 time=0
note_on channel=0 note=75 velocity=51 time=0
note_on channel=0 note=47 velocity=31 time=0
control_change channel=0 control=64 value=0 time=0
control_change channel=0 control=64 value=127 time=92
note_on channel=0 note=47 velocity=0 time=21
note_on channel=0 note=59 velocity=25 time=0
note_on channel=0 note=59 velocity=0 time=120
note_on channel=0 note=54 velocity=30 time=0
note_on channel=0 note=54 velocity=0 time=120
note_on channel=0 note=51 velocity=27 time=0
note_on channel=0 note=51 velocity=0 time=53
note_on channel=0 note=47 velocity=37 time=0
note_on channel=0 note=47 velocity=0 time=120
note_on channel=0 note=59 velocity=30 time=0
note_on channel=0 note=59 velocity=0 time=113
note_on channel=0 note=75 velocity=0 time=0
note_on channel=0 note=87 velocity=0 time=0
note_on channel=0 note=81 velocity=45 time=0
note_on channel=0 note=69 velocity=45 time=0
note_on channel=0 note=49 velocity=37 time=0
control_change channel=0 control=64 value=0 time=8
control_change channel=0 control=64 value=127 time=4
note_on channel=0 note=49 velocity=0 time=0
note_on channel=0 note=57 velocity=33 time=0
note_on channel=0 note=57 velocity=0 time=0
note_on channel=0 note=69 velocity=0 time=0
note_on channel=0 note=81 velocity=0 time=0
note_on channel=0 note=80 velocity=51 time=0
note_on channel=0 note=68 velocity=51 time=0
note_on channel=0 note=47 velocity=31 time=0
control_change channel=0 control=64 value=0 time=7
control_change channel=0 control=64 value=127 time=78
note_on channel=0 note=47 velocity=0 time=35
note_on channel=0 note=56 velocity=29 time=0
note_on channel=0 note=56 velocity=0 time=120
note_on channel=0 note=52 velocity=34 time=0
note_on channel=0 note=52 velocity=0 time=120
note_on channel=0 note=47 velocity=29 time=0
note_on channel=0 note=47 velocity=0 time=120
note_on channel=0 note=68 velocity=0 time=0
note_on channel=0 note=80 velocity=0 time=0
note_on channel=0 note=86 velocity=54 time=0
note_on channel=0 note=74 velocity=54 time=0
note_on channel=0 note=40 velocity=39 time=0
control_change channel=0 control=64 value=0 time=18
control_change channel=0 control=64 value=127 time=74
note_on channel=0 note=40 velocity=0 time=28
note_on channel=0 note=56 velocity=32 time=0
note_on channel=0 note=56 velocity=0 time=120
note_on channel=0 note=52 velocity=36 time=0
note_on channel=0 note=52 velocity=0 time=0
note_on channel=0 note=47 velocity=29 time=0
note_on channel=0 note=47 velocity=0 time=0
note_on channel=0 note=74 velocity=0 time=0
note_on channel=0 note=86 velocity=0 time=0
note_on channel=0 note=85 velocity=51 time=0
note_on channel=0 note=73 velocity=51 time=0
note_on channel=0 note=45 velocity=35 time=0
control_change channel=0 control=64 value=0 time=16
control_change channel=0 control=64 value=127 time=69
note_on channel=0 note=45 velocity=0 time=35
note_on channel=0 note=57 velocity=27 time=0
note_on channel=0 note=57 velocity=0 time=120
note_on channel=0 note=52 velocity=31 time=0
note_on channel=0 note=52 velocity=0 time=120
note_on channel=0 note=49 velocity=27 time=0
note_on channel=0 note=49 velocity=0 time=120
note_on channel=0 note=45 velocity=31 time=0
note_on channel=0 note=45 velocity=0 time=0
note_on channel=0 note=52 velocity=29 time=0
note_on channel=0 note=52 velocity=0 time=120
note_on channel=0 note=73 velocity=0 time=0
note_on channel=0 note=85 velocity=0 time=0
note_on channel=0 note=85 velocity=48 time=0
note_on channel=0 note=73 velocity=48 time=0
note_on channel=0 note=45 velocity=34 time=0
note_on channel=0 note=45 velocity=0 time=120
note_on channel=0 note=52 velocity=38 time=0
note_on channel=0 note=52 velocity=0 time=0
note_on channel=0 note=73 velocity=0 time=0
note_on channel=0 note=85 velocity=0 time=0
note_on channel=0 note=84 velocity=56 time=0
note_on channel=0 note=72 velocity=56 time=0
note_on channel=0 note=44 velocity=38 time=0
control_change channel=0 control=64 value=0 time=0
control_change channel=0 control=64 value=127 time=71
note_on channel=0 note=44 velocity=0 time=49
note_on channel=0 note=52 velocity=34 time=0
note_on channel=0 note=52 velocity=0 time=120
note_on channel=0 note=72 velocity=0 time=0
note_on channel=0 note=84 velocity=0 time=0
note_on channel=0 note=85 velocity=57 time=0
note_on channel=0 note=73 velocity=57 time=0
note_on channel=0 note=45 velocity=38 time=0
note_on channel=0 note=45 velocity=0 time=120
note_on channel=0 note=52 velocity=35 time=0
note_on channel=0 note=52 velocity=0 time=120
note_on channel=0 note=73 velocity=0 time=0
note_on channel=0 note=85 velocity=0 time=0
note_on channel=0 note=81 velocity=55 time=0
note_on channel=0 note=69 velocity=55 time=0
note_on channel=0 note=45 velocity=36 time=0
note_on channel=0 note=49 velocity=43 time=0
control_change channel=0 control=64 value=0 time=7
control_change channel=0 control=64 value=127 time=64
note_on channel=0 note=49 velocity=0 time=49
note_on channel=0 note=45 velocity=0 time=0
note_on channel=0 note=52 velocity=35 time=0
note_on channel=0 note=69 velocity=0 time=60
note_on channel=0 note=81 velocity=0 time=0
note_on channel=0 note=52 velocity=0 time=60
note_on channel=0 note=80 velocity=54 time=0
note_on channel=0 note=68 velocity=54 time=0
note_on channel=0 note=47 velocity=37 time=0
note_on channel=0 note=52 velocity=44 time=0
control_change channel=0 control=64 value=0 time=14
control_change channel=0 control=64 value=127 time=64
note_on channel=0 note=52 velocity=0 time=0
note_on channel=0 note=47 velocity=0 time=0
note_on channel=0 note=56 velocity=36 time=0
note_on channel=0 note=68 velocity=0 time=60
note_on channel=0 note=80 velocity=0 time=0
note_on channel=0 note=56 velocity=0 time=0
note_on channel=0 note=80 velocity=70 time=0
note_on channel=0 note=68 velocity=70 time=0
note_on channel=0 note=52 velocity=54 time=0
note_on channel=0 note=49 velocity=46 time=0
control_change channel=0 control=64 value=0 time=7
control_change channel=0 control=64 value=127 time=62
note_on channel=0 note=49 velocity=0 time=51
note_on channel=0 note=52 velocity=0 time=0
note_on channel=0 note=58 velocity=47 time=0
note_on channel=0 note=58 velocity=0 time=120
note_on channel=0 note=68 velocity=0 time=0
note_on channel=0 note=80 velocity=0 time=0
note_on channel=0 note=78 velocity=61 time=0
note_on channel=0 note=66 velocity=61 time=0
note_on channel=0 note=52 velocity=52 time=0
note_on channel=0 note=49 velocity=44 time=0
note_on channel=0 note=49 velocity=0 time=0
note_on channel=0 note=52 velocity=0 time=0
note_on channel=0 note=58 velocity=42 time=0
note_on channel=0 note=58 velocity=0 time=0
note_on channel=0 note=52 velocity=48 time=0
note_on channel=0 note=48 velocity=41 time=0
control_change channel=0 control=64 value=0 time=12
control_change channel=0 control=64 value=127 time=68
note_on channel=0 note=48 velocity=0 time=40
note_on channel=0 note=52 velocity=0 time=0
note_on channel=0 note=57 velocity=37 time=0
note_on channel=0 note=66 velocity=0 time=115
note_on channel=0 note=78 velocity=0 time=0
note_on channel=0 note=57 velocity=0 time=5
note_on channel=0 note=78 velocity=65 time=0
note_on channel=0 note=66 velocity=65 time=0
note_on channel=0 note=48 velocity=40 time=0
note_on channel=0 note=52 velocity=47 time=0
note_on channel=0 note=52 velocity=0 time=0
note_on channel=0 note=48 velocity=0 time=0
note_on channel=0 note=57 velocity=38 time=0
note_on channel=0 note=66 velocity=0 time=108
note_on channel=0 note=78 velocity=0 time=0
note_on channel=0 note=57 velocity=0 time=0
note_on channel=0 note=78 velocity=49 time=0
note_on channel=0 note=66 velocity=49 time=0
note_on channel=0 note=47 velocity=31 time=0
control_change channel=0 control=64 value=0 time=7
control_change channel=0 control=64 value=127 time=78
note_on channel=0 note=47 velocity=0 time=35
note_on channel=0 note=51 velocity=21 time=0
note_on channel=0 note=54 velocity=21 time=0
note_on channel=0 note=57 velocity=27 time=0
note_on channel=0 note=57 velocity=0 time=120
note_on channel=0 note=51 velocity=0 time=0
note_on channel=0 note=78 velocity=0 time=0
note_on channel=0 note=66 velocity=0 time=0
note_on channel=0 note=54 velocity=0 time=0
note_on channel=0 note=83 velocity=38 time=0
note_on channel=0 note=71 velocity=38 time=0
note_on channel=0 note=47 velocity=31 time=0
note_on channel=0 note=47 velocity=0 time=120
note_on channel=0 note=51 velocity=23 time=0
note_on channel=0 note=54 velocity=23 time=0
note_on channel=0 note=57 velocity=29 time=0
note_on channel=0 note=57 velocity=0 time=0
note_on channel=0 note=51 velocity=0 time=0
note_on channel=0 note=83 velocity=0 time=0
note_on channel=0 note=71 velocity=0 time=0
note_on channel=0 note=54 velocity=0 time=0
note_on channel=0 note=82 velocity=46 time=0
note_on channel=0 note=70 velocity=46 time=0
note_on channel=0 note=47 velocity=31 time=0
control_change channel=0 control=64 value=0 time=9
control_change channel=0 control=64 value=127 time=76
note_on channel=0 note=47 velocity=0 time=35
note_on channel=0 note=51 velocity=21 time=0
note_on channel=0 note=54 velocity=21 time=0
note_on channel=0 note=57 velocity=27 time=0
note_on channel=0 note=57 velocity=0 time=120
note_on channel=0 note=51 velocity=0 time=0
note_on channel=0 note=82 velocity=0 time=0
note_on channel=0 note=70 velocity=0 time=0
note_on channel=0 note=54 velocity=0 time=0
note_on channel=0 note=83 velocity=40 time=0
note_on channel=0 note=71 velocity=40 time=0
note_on channel=0 note=47 velocity=31 time=0
note_on channel=0 note=47 velocity=0 time=0
note_on channel=0 note=51 velocity=22 time=0
note_on channel=0 note=54 velocity=22 time=0
note_on channel=0 note=57 velocity=28 time=0
note_on channel=0 note=57 velocity=0 time=0
note_on channel=0 note=51 velocity=0 time=0
note_on channel=0 note=83 velocity=0 time=0
note_on channel=0 note=71 velocity=0 time=0
note_on channel=0 note=54 velocity=0 time=0
note_on channel=0 note=76 velocity=49 time=0
note_on channel=0 note=64 velocity=49 time=0
note_on channel=0 note=47 velocity=31 time=0
control_change channel=0 control=64 value=0 time=7
control_change channel=0 control=64 value=127 time=78
note_on channel=0 note=47 velocity=0 time=35
note_on channel=0 note=52 velocity=21 time=0
note_on channel=0 note=56 velocity=27 time=0
note_on channel=0 note=56 velocity=0 time=120
note_on channel=0 note=76 velocity=0 time=0
note_on channel=0 note=64 velocity=0 time=0
note_on channel=0 note=52 velocity=0 time=0
note_on channel=0 note=83 velocity=38 time=0
note_on channel=0 note=71 velocity=38 time=0
note_on channel=0 note=47 velocity=31 time=0
note_on channel=0 note=47 velocity=0 time=120
note_on channel=0 note=52 velocity=23 time=0
note_on channel=0 note=56 velocity=29 time=0
note_on channel=0 note=56 velocity=0 time=0
note_on channel=0 note=83 velocity=0 time=0
note_on channel=0 note=71 velocity=0 time=0
note_on channel=0 note=52 velocity=0 time=0
note_on channel=0 note=82 velocity=46 time=0
note_on channel=0 note=70 velocity=46 time=0
note_on channel=0 note=47 velocity=31 time=0
control_change channel=0 control=64 value=0 time=9
control_change channel=0 control=64 value=127 time=76
note_on channel=0 note=47 velocity=0 time=35
note_on channel=0 note=52 velocity=21 time=0
note_on channel=0 note=56 velocity=27 time=0
note_on channel=0 note=56 velocity=0 time=120
note_on channel=0 note=82 velocity=0 time=0
note_on channel=0 note=70 velocity=0 time=0
note_on channel=0 note=52 velocity=0 time=0
note_on channel=0 note=83 velocity=40 time=0
note_on channel=0 note=71 velocity=40 time=0
note_on channel=0 note=47 velocity=31 time=0
note_on channel=0 note=47 velocity=0 time=0
note_on channel=0 note=52 velocity=22 time=0
note_on channel=0 note=56 velocity=28 time=0
note_on channel=0 note=56 velocity=0 time=0
note_on channel=0 note=83 velocity=0 time=0
note_on channel=0 note=71 velocity=0 time=0
note_on channel=0 note=52 velocity=0 time=0
note_on channel=0 note=54 velocity=46 time=0
note_on channel=0 note=47 velocity=46 time=0
control_change channel=0 control=64 value=0 time=0
note_on channel=0 note=75 velocity=33 time=120
note_on channel=0 note=75 velocity=0 time=120
note_on channel=0 note=83 velocity=38 time=0
note_on channel=0 note=59 velocity=34 time=0
note_on channel=0 note=83 velocity=0 time=120
note_on channel=0 note=81 velocity=34 time=0
note_on channel=0 note=81 velocity=0 time=0
note_on channel=0 note=59 velocity=0 time=0
note_on channel=0 note=78 velocity=39 time=0
note_on channel=0 note=58 velocity=43 time=0
note_on channel=0 note=78 velocity=0 time=120
note_on channel=0 note=75 velocity=32 time=0
note_on channel=0 note=75 velocity=0 time=120
note_on channel=0 note=58 velocity=0 time=0
note_on channel=0 note=71 velocity=37 time=0
note_on channel=0 note=59 velocity=35 time=0
note_on channel=0 note=71 velocity=0 time=0
note_on channel=0 note=69 velocity=32 time=0
note_on channel=0 note=69 velocity=0 time=0
note_on channel=0 note=59 velocity=0 time=0
note_on channel=0 note=47 velocity=0 time=0
note_on channel=0 note=54 velocity=0 time=0
note_on channel=0 note=52 velocity=46 time=0
note_on channel=0 note=47 velocity=46 time=0
control_change channel=0 control=64 value=0 time=0
control_change channel=0 control=64 value=127 time=71
note_on channel=0 note=68 velocity=33 time=49
note_on channel=0 note=68 velocity=0 time=120
note_on channel=0 note=83 velocity=38 time=0
note_on channel=0 note=59 velocity=34 time=0
note_on channel=0 note=83 velocity=0 time=120
note_on channel=0 note=80 velocity=34 time=0
note_on channel=0 note=80 velocity=0 time=0
note_on channel=0 note=59 velocity=0 time=0
note_on channel=0 note=76 velocity=39 time=0
note_on channel=0 note=58 velocity=43 time=0
control_change channel=0 control=64 value=0 time=14
note_on channel=0 note=76 velocity=0 time=106
note_on channel=0 note=71 velocity=32 time=0
note_on channel=0 note=71 velocity=0 time=120
note_on channel=0 note=58 velocity=0 time=0
note_on channel=0 note=69 velocity=37 time=0
note_on channel=0 note=59 velocity=35 time=0
note_on channel=0 note=69 velocity=0 time=0
note_on channel=0 note=68 velocity=32 time=0
note_on channel=0 note=68 velocity=0 time=0
note_on channel=0 note=59 velocity=0 time=0
note_on channel=0 note=47 velocity=0 time=0
note_on channel=0 note=52 velocity=0 time=0
note_on channel=0 note=78 velocity=58 time=0
note_on channel=0 note=66 velocity=58 time=0
note_on channel=0 note=47 velocity=37 time=0
control_change channel=0 control=64 value=0 time=7
control_change channel=0 control=64 value=127 time=78
note_on channel=0 note=47 velocity=0 time=35
note_on channel=0 note=51 velocity=25 time=0
note_on channel=0 note=54 velocity=25 time=0
note_on channel=0 note=57 velocity=31 time=0
note_on channel=0 note=57 velocity=0 time=120
note_on channel=0 note=51 velocity=0 time=0
note_on channel=0 note=78 velocity=0 time=0
note_on channel=0 note=66 velocity=0 time=0
note_on channel=0 note=54 velocity=0 time=0
note_on channel=0 note=83 velocity=46 time=0
note_on channel=0 note=71 velocity=46 time=0
note_on channel=0 note=47 velocity=37 time=0
note_on channel=0 note=47 velocity=0 time=120
note_on channel=0 note=51 velocity=27 time=0
note_on channel=0 note=54 velocity=27 time=0
note_on channel=0 note=57 velocity=35 time=0
note_on channel=0 note=57 velocity=0 time=0
note_on channel=0 note=51 velocity=0 time=0
note_on channel=0 note=83 velocity=0 time=0
note_on channel=0 note=71 velocity=0 time=0
note_on channel=0 note=54 velocity=0 time=0
note_on channel=0 note=82 velocity=58 time=0
note_on channel=0 note=70 velocity=58 time=0
note_on channel=0 note=47 velocity=39 time=0
control_change channel=0 control=64 value=0 time=9
control_change channel=0 control=64 value=127 time=76
note_on channel=0 note=47 velocity=0 time=35
note_on channel=0 note=51 velocity=27 time=0
note_on channel=0 note=54 velocity=27 time=0
note_on channel=0 note=57 velocity=35 time=0
note_on channel=0 note=57 velocity=0 time=120
note_on channel=0 note=51 velocity=0 time=0
note_on channel=0 note=82 velocity=0 time=0
note_on channel=0 note=70 velocity=0 time=0
note_on channel=0 note=54 velocity=0 time=0
note_on channel=0 note=83 velocity=51 time=0
note_on channel=0 note=71 velocity=51 time=0
note_on channel=0 note=47 velocity=40 time=0
note_on channel=0 note=47 velocity=0 time=0
note_on channel=0 note=51 velocity=28 time=0
note_on channel=0 note=54 velocity=28 time=0
note_on channel=0 note=57 velocity=37 time=0
note_on channel=0 note=57 velocity=0 time=0
note_on channel=0 note=51 velocity=0 time=0
note_on channel=0 note=83 velocity=0 time=0
note_on channel=0 note=71 velocity=0 time=0
note_on channel=0 note=54 velocity=0 time=0
note_on channel=0 note=65 velocity=70 time=0
note_on channel=0 note=77 velocity=70 time=0
note_on channel=0 note=47 velocity=48 time=0
control_change channel=0 control=64 value=0 time=7
control_change channel=0 control=64 value=127 time=78
note_on channel=0 note=47 velocity=0 time=35
note_on channel=0 note=50 velocity=32 time=0
note_on channel=0 note=53 velocity=32 time=0
note_on channel=0 note=56 velocity=41 time=0
note_on channel=0 note=56 velocity=0 time=120
note_on channel=0 note=50 velocity=0 time=0
note_on channel=0 note=65 velocity=0 time=0
note_on channel=0 note=77 velocity=0 time=0
note_on channel=0 note=53 velocity=0 time=0
note_on channel=0 note=74 velocity=64 time=0
note_on channel=0 note=86 velocity=64 time=0
note_on channel=0 note=47 velocity=48 time=0
note_on channel=0 note=47 velocity=0 time=120
note_on channel=0 note=50 velocity=37 time=0
note_on channel=0 note=53 velocity=37 time=0
note_on channel=0 note=56 velocity=46 time=0
note_on channel=0 note=56 velocity=0 time=0
note_on channel=0 note=50 velocity=0 time=0
note_on channel=0 note=74 velocity=0 time=0
note_on channel=0 note=86 velocity=0 time=0
note_on channel=0 note=53 velocity=0 time=0
note_on channel=0 note=73 velocity=74 time=0
note_on channel=0 note=85 velocity=74 time=0
note_on channel=0 note=47 velocity=50 time=0
control_change channel=0 control=64 value=0 time=9
control_change channel=0 control=64 value=127 time=51
note_on channel=0 note=47 velocity=0 time=60
note_on channel=0 note=50 velocity=34 time=0
note_on channel=0 note=53 velocity=34 time=0
note_on channel=0 note=56 velocity=46 time=0
note_on channel=0 note=56 velocity=0 time=120
note_on channel=0 note=50 velocity=0 time=0
note_on channel=0 note=73 velocity=0 time=0
note_on channel=0 note=85 velocity=0 time=0
note_on channel=0 note=53 velocity=0 time=0
note_on channel=0 note=74 velocity=69 time=0
note_on channel=0 note=86 velocity=69 time=0
note_on channel=0 note=47 velocity=51 time=0
note_on channel=0 note=47 velocity=0 time=0
note_on channel=0 note=50 velocity=38 time=0
note_on channel=0 note=53 velocity=38 time=0
note_on channel=0 note=56 velocity=47 time=0
note_on channel=0 note=56 velocity=0 time=120
note_on channel=0 note=50 velocity=0 time=0
note_on channel=0 note=74 velocity=0 time=0
note_on channel=0 note=86 velocity=0 time=0
note_on channel=0 note=53 velocity=0 time=0
note_on channel=0 note=85 velocity=79 time=0
note_on channel=0 note=45 velocity=51 time=0
control_change channel=0 control=64 value=0 time=0
control_change channel=0 control=64 value=127 time=92
note_on channel=0 note=45 velocity=0 time=28
note_on channel=0 note=54 velocity=42 time=0
note_on channel=0 note=49 velocity=34 time=0
note_on channel=0 note=49 velocity=0 time=120
note_on channel=0 note=54 velocity=0 time=0
note_on channel=0 note=85 velocity=0 time=0
note_on channel=0 note=78 velocity=67 time=0
note_on channel=0 note=45 velocity=49 time=0
note_on channel=0 note=45 velocity=0 time=120
note_on channel=0 note=49 velocity=35 time=0
note_on channel=0 note=54 velocity=42 time=0
note_on channel=0 note=54 velocity=0 time=120
note_on channel=0 note=49 velocity=0 time=0
note_on channel=0 note=78 velocity=0 time=0
note_on channel=0 note=81 velocity=77 time=0
note_on channel=0 note=45 velocity=52 time=0
note_on channel=0 note=45 velocity=0 time=120
note_on channel=0 note=54 velocity=43 time=0
note_on channel=0 note=49 velocity=35 time=0
note_on channel=0 note=49 velocity=0 time=120
note_on channel=0 note=54 velocity=0 time=0
note_on channel=0 note=81 velocity=0 time=0
note_on channel=0 note=73 velocity=68 time=0
note_on channel=0 note=45 velocity=49 time=0
note_on channel=0 note=45 velocity=0 time=120
note_on channel=0 note=49 velocity=38 time=0
note_on channel=0 note=54 velocity=45 time=0
note_on channel=0 note=54 velocity=0 time=120
note_on channel=0 note=49 velocity=0 time=0
note_on channel=0 note=73 velocity=0 time=0
note_on channel=0 note=78 velocity=59 time=0
note_on channel=0 note=46 velocity=43 time=0
control_change channel=0 control=64 value=0 time=7
control_change channel=0 control=64 value=127 time=50
note_on channel=0 note=46 velocity=0 time=63
note_on channel=0 note=54 velocity=35 time=0
note_on channel=0 note=52 velocity=29 time=0
note_on channel=0 note=49 velocity=29 time=0
note_on channel=0 note=49 velocity=0 time=120
note_on channel=0 note=78 velocity=0 time=0
note_on channel=0 note=54 velocity=0 time=0
note_on channel=0 note=52 velocity=0 time=0
note_on channel=0 note=73 velocity=54 time=0
note_on channel=0 note=46 velocity=40 time=0
note_on channel=0 note=46 velocity=0 time=120
note_on channel=0 note=54 velocity=34 time=0
note_on channel=0 note=52 velocity=28 time=0
note_on channel=0 note=49 velocity=28 time=0
note_on channel=0 note=49 velocity=0 time=120
note_on channel=0 note=73 velocity=0 time=0
note_on channel=0 note=54 velocity=0 time=0
note_on channel=0 note=52 velocity=0 time=0
note_on channel=0 note=76 velocity=59 time=0
note_on channel=0 note=46 velocity=43 time=0
note_on channel=0 note=46 velocity=0 time=120
note_on channel=0 note=54 velocity=34 time=0
note_on channel=0 note=52 velocity=28 time=0
note_on channel=0 note=49 velocity=28 time=0
note_on channel=0 note=49 velocity=0 time=120
note_on channel=0 note=76 velocity=0 time=0
note_on channel=0 note=54 velocity=0 time=0
note_on channel=0 note=52 velocity=0 time=0
note_on channel=0 note=66 velocity=45 time=0
note_on channel=0 note=46 velocity=39 time=0
note_on channel=0 note=46 velocity=0 time=120
note_on channel=0 note=54 velocity=33 time=0
note_on channel=0 note=52 velocity=28 time=0
note_on channel=0 note=49 velocity=28 time=0
note_on channel=0 note=49 velocity=0 time=120
note_on channel=0 note=66 velocity=0 time=0
note_on channel=0 note=54 velocity=0 time=0
note_on channel=0 note=52 velocity=0 time=0
note_on channel=0 note=71 velocity=51 time=0
note_on channel=0 note=47 velocity=38 time=0
control_change channel=0 control=64 value=0 time=11
control_change channel=0 control=64 value=127 time=53
note_on channel=0 note=47 velocity=0 time=56
note_on channel=0 note=52 velocity=25 time=0
note_on channel=0 note=56 velocity=30 time=0
note_on channel=0 note=56 velocity=0 time=120
note_on channel=0 note=52 velocity=0 time=0
note_on channel=0 note=71 velocity=0 time=0
note_on channel=0 note=68 velocity=38 time=0
note_on channel=0 note=47 velocity=35 time=0
note_on channel=0 note=47 velocity=0 time=120
note_on channel=0 note=56 velocity=26 time=0
note_on channel=0 note=52 velocity=22 time=0
note_on channel=0 note=52 velocity=0 time=120
note_on channel=0 note=56 velocity=0 time=0
note_on channel=0 note=68 velocity=0 time=0
note_on channel=0 note=71 velocity=47 time=0
note_on channel=0 note=47 velocity=32 time=0
note_on channel=0 note=47 velocity=0 time=120
note_on channel=0 note=52 velocity=21 time=0
note_on channel=0 note=56 velocity=25 time=0
note_on channel=0 note=56 velocity=0 time=0
note_on channel=0 note=52 velocity=0 time=0
note_on channel=0 note=71 velocity=0 time=0
note_on channel=0 note=64 velocity=30 time=0
note_on channel=0 note=47 velocity=32 time=0
note_on channel=0 note=47 velocity=0 time=120
note_on channel=0 note=56 velocity=25 time=0
note_on channel=0 note=52 velocity=21 time=0
note_on channel=0 note=52 velocity=0 time=0
note_on channel=0 note=56 velocity=0 time=0
note_on channel=0 note=64 velocity=0 time=0
note_on channel=0 note=63 velocity=42 time=0
note_on channel=0 note=47 velocity=32 time=0
control_change channel=0 control=64 value=0 time=9
control_change channel=0 control=64 value=127 time=69
note_on channel=0 note=47 velocity=0 time=42
note_on channel=0 note=54 velocity=25 time=0
note_on channel=0 note=54 velocity=0 time=120
note_on channel=0 note=63 velocity=0 time=0
note_on channel=0 note=71 velocity=34 time=0
note_on channel=0 note=47 velocity=32 time=0
note_on channel=0 note=47 velocity=0 time=120
note_on channel=0 note=51 velocity=26 time=0
note_on channel=0 note=51 velocity=0 time=0
note_on channel=0 note=71 velocity=0 time=0
note_on channel=0 note=66 velocity=41 time=0
note_on channel=0 note=63 velocity=34 time=0
note_on channel=0 note=47 velocity=32 time=0
note_on channel=0 note=47 velocity=0 time=120
note_on channel=0 note=59 velocity=26 time=0
note_on channel=0 note=59 velocity=0 time=0
note_on channel=0 note=63 velocity=0 time=0
note_on channel=0 note=66 velocity=0 time=0
note_on channel=0 note=71 velocity=34 time=0
note_on channel=0 note=63 velocity=28 time=0
note_on channel=0 note=47 velocity=32 time=0
note_on channel=0 note=47 velocity=0 time=120
note_on channel=0 note=59 velocity=27 time=0
note_on channel=0 note=59 velocity=0 time=110
note_on channel=0 note=63 velocity=0 time=0
note_on channel=0 note=71 velocity=0 time=0
note_on channel=0 note=59 velocity=50 time=0
control_change channel=0 control=64 value=0 time=12
control_change channel=0 control=64 value=127 time=63
note_on channel=0 note=62 velocity=49 time=45
note_on channel=0 note=62 velocity=0 time=0
note_on channel=0 note=68 velocity=57 time=0
note_on channel=0 note=68 velocity=0 time=120
note_on channel=0 note=65 velocity=50 time=0
note_on channel=0 note=65 velocity=0 time=120
note_on channel=0 note=59 velocity=0 time=0
note_on channel=0 note=57 velocity=56 time=0
control_change channel=0 control=64 value=0 time=10
control_change channel=0 control=64 value=127 time=42
note_on channel=0 note=61 velocity=53 time=68
note_on channel=0 note=61 velocity=0 time=120
note_on channel=0 note=69 velocity=60 time=0
note_on channel=0 note=69 velocity=0 time=120
note_on channel=0 note=66 velocity=55 time=0
note_on channel=0 note=66 velocity=0 time=0
note_on channel=0 note=57 velocity=0 time=0
note_on channel=0 note=56 velocity=64 time=0
note_on channel=0 note=59 velocity=64 time=0
control_change channel=0 control=64 value=0 time=9
control_change channel=0 control=64 value=127 time=69
note_on channel=0 note=71 velocity=65 time=42
note_on channel=0 note=71 velocity=0 time=120
note_on channel=0 note=83 velocity=71 time=0
note_on channel=0 note=83 velocity=0 time=120
note_on channel=0 note=80 velocity=67 time=0
note_on channel=0 note=80 velocity=0 time=120
note_on channel=0 note=59 velocity=0 time=0
note_on channel=0 note=56 velocity=0 time=0
note_on channel=0 note=54 velocity=70 time=0
note_on channel=0 note=57 velocity=70 time=0
control_change channel=0 control=64 value=0 time=9
control_change channel=0 control=64 value=127 time=62
note_on channel=0 note=73 velocity=70 time=49
note_on channel=0 note=73 velocity=0 time=120
note_on channel=0 note=85 velocity=81 time=0
note_on channel=0 note=85 velocity=0 time=120
note_on channel=0 note=81 velocity=76 time=0
note_on channel=0 note=81 velocity=0 time=0
note_on channel=0 note=57 velocity=0 time=0
note_on channel=0 note=54 velocity=0 time=0
note_on channel=0 note=56 velocity=80 time=0
note_on channel=0 note=53 velocity=80 time=0
control_change channel=0 control=64 value=0 time=7
control_change channel=0 control=64 value=127 time=62
note_on channel=0 note=74 velocity=91 time=51
note_on channel=0 note=74 velocity=0 time=120
note_on channel=0 note=53 velocity=0 time=0
note_on channel=0 note=56 velocity=0 time=0
note_on channel=0 note=86 velocity=97 time=0
note_on channel=0 note=86 velocity=0 time=120
note_on channel=0 note=83 velocity=89 time=0
note_on channel=0 note=83 velocity=0 time=120
note_on channel=0 note=56 velocity=81 time=0
note_on channel=0 note=53 velocity=81 time=0
control_change channel=0 control=64 value=0 time=12
control_change channel=0 control=64 value=127 time=57
note_on channel=0 note=73 velocity=89 time=51
note_on channel=0 note=73 velocity=0 time=120
note_on channel=0 note=53 velocity=0 time=0
note_on channel=0 note=56 velocity=0 time=0
note_on channel=0 note=85 velocity=98 time=0
note_on channel=0 note=85 velocity=0 time=120
note_on channel=0 note=83 velocity=91 time=0
note_on channel=0 note=83 velocity=0 time=0
control_change channel=0 control=64 value=0 time=0
note_on channel=0 note=61 velocity=45 time=720
note_on channel=0 note=61 velocity=0 time=120
note_on channel=0 note=63 velocity=41 time=0
note_on channel=0 note=63 velocity=0 time=0
note_on channel=0 note=64 velocity=47 time=0
note_on channel=0 note=58 velocity=40 time=0
note_on channel=0 note=64 velocity=0 time=0
note_on channel=0 note=67 velocity=50 time=0
note_on channel=0 note=67 velocity=0 time=240
note_on channel=0 note=66 velocity=46 time=0
note_on channel=0 note=66 velocity=0 time=240
note_on channel=0 note=61 velocity=46 time=0
note_on channel=0 note=61 velocity=0 time=0
note_on channel=0 note=58 velocity=0 time=0
note_on channel=0 note=78 velocity=48 time=0
note_on channel=0 note=63 velocity=48 time=0
note_on channel=0 note=59 velocity=40 time=0
note_on channel=0 note=78 velocity=0 time=0
note_on channel=0 note=85 velocity=55 time=0
note_on channel=0 note=85 velocity=0 time=240
note_on channel=0 note=83 velocity=49 time=0
note_on channel=0 note=83 velocity=0 time=240
note_on channel=0 note=78 velocity=48 time=0
note_on channel=0 note=78 velocity=0 time=0
note_on channel=0 note=81 velocity=50 time=0
note_on channel=0 note=63 velocity=0 time=240
note_on channel=0 note=66 velocity=40 time=0
note_on channel=0 note=66 velocity=0 time=120
note_on channel=0 note=64 velocity=43 time=0
note_on channel=0 note=64 velocity=0 time=240
note_on channel=0 note=61 velocity=40 time=0
note_on channel=0 note=61 velocity=0 time=0
note_on channel=0 note=64 velocity=42 time=0
note_on channel=0 note=81 velocity=0 time=0
note_on channel=0 note=81 velocity=48 time=0
note_on channel=0 note=81 velocity=0 time=240
note_on channel=0 note=80 velocity=47 time=0
note_on channel=0 note=80 velocity=0 time=240
note_on channel=0 note=76 velocity=43 time=0
note_on channel=0 note=76 velocity=0 time=0
note_on channel=0 note=80 velocity=50 time=0
note_on channel=0 note=64 velocity=0 time=0
note_on channel=0 note=64 velocity=38 time=0
note_on channel=0 note=64 velocity=0 time=240
note_on channel=0 note=63 velocity=41 time=0
note_on channel=0 note=59 velocity=0 time=230
note_on channel=0 note=63 velocity=0 time=10
note_on channel=0 note=59 velocity=39 time=0
note_on channel=0 note=59 velocity=0 time=0
note_on channel=0 note=63 velocity=41 time=0
note_on channel=0 note=63 velocity=0 time=120
note_on channel=0 note=80 velocity=0 time=0
note_on channel=0 note=76 velocity=34 time=0
note_on channel=0 note=80 velocity=40 time=0
note_on channel=0 note=58 velocity=32 time=0
note_on channel=0 note=58 velocity=0 time=240
note_on channel=0 note=80 velocity=0 time=0
note_on channel=0 note=76 velocity=0 time=0
note_on channel=0 note=78 velocity=42 time=0
note_on channel=0 note=75 velocity=35 time=0
note_on channel=0 note=59 velocity=36 time=0
note_on channel=0 note=59 velocity=0 time=0
note_on channel=0 note=75 velocity=0 time=0
note_on channel=0 note=78 velocity=0 time=0
note_on channel=0 note=71 velocity=34 time=0
note_on channel=0 note=75 velocity=40 time=0
note_on channel=0 note=63 velocity=32 time=0
note_on channel=0 note=63 velocity=0 time=0
note_on channel=0 note=75 velocity=0 time=0
note_on channel=0 note=71 velocity=0 time=0
note_on channel=0 note=75 velocity=40 time=0
note_on channel=0 note=78 velocity=48 time=0
note_on channel=0 note=59 velocity=38 time=0
note_on channel=0 note=59 velocity=0 time=228
note_on channel=0 note=78 velocity=0 time=0
note_on channel=0 note=75 velocity=0 time=0
note_on channel=0 note=72 velocity=34 time=0
note_on channel=0 note=78 velocity=40 time=0
note_on channel=0 note=56 velocity=30 time=0
note_on channel=0 note=56 velocity=0 time=240
note_on channel=0 note=78 velocity=0 time=0
note_on channel=0 note=72 velocity=0 time=0
note_on channel=0 note=76 velocity=42 time=0
note_on channel=0 note=73 velocity=35 time=0
note_on channel=0 note=57 velocity=34 time=0
note_on channel=0 note=57 velocity=0 time=0
note_on channel=0 note=73 velocity=0 time=0
note_on channel=0 note=76 velocity=0 time=0
note_on channel=0 note=69 velocity=33 time=0
note_on channel=0 note=73 velocity=39 time=0
note_on channel=0 note=61 velocity=31 time=0
note_on channel=0 note=61 velocity=0 time=0
note_on channel=0 note=73 velocity=0 time=0
note_on channel=0 note=69 velocity=0 time=0
note_on channel=0 note=73 velocity=40 time=0
note_on channel=0 note=76 velocity=48 time=0
note_on channel=0 note=57 velocity=38 time=0
note_on channel=0 note=57 velocity=0 time=228
note_on channel=0 note=76 velocity=0 time=0
note_on channel=0 note=73 velocity=0 time=0
note_on channel=0 note=70 velocity=34 time=0
note_on channel=0 note=76 velocity=40 time=0
note_on channel=0 note=55 velocity=31 time=0
note_on channel=0 note=55 velocity=0 time=240
note_on channel=0 note=76 velocity=0 time=0
note_on channel=0 note=70 velocity=0 time=0
note_on channel=0 note=75 velocity=45 time=0
note_on channel=0 note=71 velocity=38 time=0
note_on channel=0 note=47 velocity=35 time=0
note_on channel=0 note=56 velocity=35 time=0
note_on channel=0 note=56 velocity=0 time=0
note_on channel=0 note=75 velocity=0 time=0
note_on channel=0 note=71 velocity=0 time=0
note_on channel=0 note=47 velocity=0 time=0
note_on channel=0 note=68 velocity=34 time=0
note_on channel=0 note=71 velocity=41 time=0
note_on channel=0 note=59 velocity=32 time=0
note_on channel=0 note=59 velocity=0 time=0
note_on channel=0 note=71 velocity=0 time=0
note_on channel=0 note=68 velocity=0 time=0
note_on channel=0 note=71 velocity=40 time=0
note_on channel=0 note=74 velocity=48 time=0
note_on channel=0 note=56 velocity=36 time=0
note_on channel=0 note=56 velocity=0 time=228
note_on channel=0 note=74 velocity=0 time=0
note_on channel=0 note=71 velocity=0 time=0
note_on channel=0 note=68 velocity=32 time=12
note_on channel=0 note=74 velocity=38 time=0
note_on channel=0 note=53 velocity=30 time=0
note_on channel=0 note=53 velocity=0 time=120
note_on channel=0 note=74 velocity=0 time=0
note_on channel=0 note=68 velocity=0 time=0
note_on channel=0 note=73 velocity=43 time=0
note_on channel=0 note=69 velocity=36 time=0
note_on channel=0 note=47 velocity=30 time=0
note_on channel=0 note=54 velocity=36 time=0
note_on channel=0 note=54 velocity=0 time=0
note_on channel=0 note=73 velocity=0 time=0
note_on channel=0 note=69 velocity=0 time=0
note_on channel=0 note=47 velocity=0 time=0
note_on channel=0 note=63 velocity=33 time=0
note_on channel=0 note=72 velocity=39 time=0
note_on channel=0 note=57 velocity=33 time=0
note_on channel=0 note=47 velocity=28 time=0
note_on channel=0 note=57 velocity=0 time=0
note_on channel=0 note=63 velocity=0 time=0
note_on channel=0 note=72 velocity=0 time=0
note_on channel=0 note=71 velocity=56 time=0
note_on channel=0 note=64 velocity=47 time=0
note_on channel=0 note=56 velocity=49 time=0
note_on channel=0 note=56 velocity=0 time=0
note_on channel=0 note=47 velocity=0 time=0
note_on channel=0 note=71 velocity=0 time=0
note_on channel=0 note=64 velocity=0 time=0
note_on channel=0 note=61 velocity=44 time=0
note_on channel=0 note=71 velocity=54 time=0
note_on channel=0 note=47 velocity=39 time=0
note_on channel=0 note=52 velocity=46 time=0
note_on channel=0 note=52 velocity=0 time=0
note_on channel=0 note=61 velocity=0 time=0
note_on channel=0 note=71 velocity=0 time=0
note_on channel=0 note=69 velocity=60 time=0
note_on channel=0 note=63 velocity=50 time=0
note_on channel=0 note=54 velocity=52 time=0
note_on channel=0 note=54 velocity=0 time=120
note_on channel=0 note=63 velocity=0 time=0
note_on channel=0 note=69 velocity=0 time=0
note_on channel=0 note=66 velocity=53 time=0
note_on channel=0 note=57 velocity=50 time=0
note_on channel=0 note=57 velocity=0 time=0
note_on channel=0 note=66 velocity=0 time=0
note_on channel=0 note=47 velocity=0 time=0
note_on channel=0 note=64 velocity=42 time=0
note_on channel=0 note=56 velocity=45 time=0
note_on channel=0 note=47 velocity=37 time=0
note_on channel=0 note=56 velocity=0 time=0
note_on channel=0 note=64 velocity=0 time=0
note_on channel=0 note=66 velocity=38 time=0
note_on channel=0 note=54 velocity=40 time=0
note_on channel=0 note=54 velocity=0 time=0
note_on channel=0 note=66 velocity=0 time=0
note_on channel=0 note=47 velocity=0 time=0
note_on channel=0 note=68 velocity=45 time=0
note_on channel=0 note=64 velocity=45 time=0
note_on channel=0 note=40 velocity=25 time=0
note_on channel=0 note=52 velocity=30 time=0
control_change channel=0 control=64 value=127 time=78
note_on channel=0 note=64 velocity=0 time=42
note_on channel=0 note=59 velocity=26 time=0
note_on channel=0 note=59 velocity=0 time=120
note_on channel=0 note=52 velocity=0 time=0
note_on channel=0 note=40 velocity=0 time=0
note_on channel=0 note=64 velocity=31 time=0
note_on channel=0 note=64 velocity=0 time=120
note_on channel=0 note=59 velocity=26 time=0
note_on channel=0 note=59 velocity=0 time=0
note_on channel=0 note=68 velocity=0 time=0
note_on channel=0 note=68 velocity=30 time=0
note_on channel=0 note=71 velocity=46 time=0
control_change channel=0 control=64 value=0 time=16
control_change channel=0 control=64 value=127 time=83
note_on channel=0 note=68 velocity=0 time=21
note_on channel=0 note=59 velocity=27 time=0
note_on channel=0 note=59 velocity=0 time=0
note_on channel=0 note=71 velocity=0 time=0
note_on channel=0 note=66 velocity=28 time=0
note_on channel=0 note=69 velocity=43 time=0
control_change channel=0 control=64 value=0 time=13
control_change channel=0 control=64 value=127 time=51
note_on channel=0 note=66 velocity=0 time=0
note_on channel=0 note=59 velocity=27 time=0
note_on channel=0 note=59 velocity=0 time=0
note_on channel=0 note=69 velocity=0 time=0
note_on channel=0 note=64 velocity=34 time=0
note_on channel=0 note=68 velocity=50 time=0
note_on channel=0 note=35 velocity=25 time=0
note_on channel=0 note=47 velocity=30 time=0
control_change channel=0 control=64 value=0 time=0
control_change channel=0 control=64 value=127 time=64
note_on channel=0 note=64 velocity=0 time=56
note_on channel=0 note=59 velocity=26 time=0
note_on channel=0 note=59 velocity=0 time=0
note_on channel=0 note=47 velocity=0 time=0
note_on channel=0 note=35 velocity=0 time=0
note_on channel=0 note=68 velocity=0 time=0
note_on channel=0 note=63 velocity=27 time=0
note_on channel=0 note=66 velocity=41 time=0
control_change channel=0 control=64 value=0 time=14
control_change channel=0 control=64 value=127 time=43
note_on channel=0 note=63 velocity=0 time=63
note_on channel=0 note=59 velocity=25 time=0
note_on channel=0 note=59 velocity=0 time=90
note_on channel=0 note=66 velocity=0 time=0
control_change channel=0 control=64 value=0 time=0
note_on channel=0 note=63 velocity=27 time=30
note_on channel=0 note=66 velocity=41 time=0
control_change channel=0 control=64 value=127 time=64
note_on channel=0 note=63 velocity=0 time=56
note_on channel=0 note=59 velocity=26 time=0
note_on channel=0 note=59 velocity=0 time=0
note_on channel=0 note=66 velocity=0 time=0
note_on channel=0 note=64 velocity=28 time=0
note_on channel=0 note=68 velocity=43 time=0
control_change channel=0 control=64 value=0 time=18
control_change channel=0 control=64 value=127 time=67
note_on channel=0 note=64 velocity=0 time=35
note_on channel=0 note=59 velocity=28 time=0
note_on channel=0 note=59 velocity=0 time=0
note_on channel=0 note=68 velocity=0 time=0
note_on channel=0 note=64 velocity=30 time=0
note_on channel=0 note=69 velocity=46 time=0
note_on channel=0 note=37 velocity=25 time=0
note_on channel=0 note=49 velocity=30 time=0
control_change channel=0 control=64 value=0 time=10
control_change channel=0 control=64 value=127 time=75
note_on channel=0 note=64 velocity=0 time=35
note_on channel=0 note=59 velocity=28 time=0
note_on channel=0 note=59 velocity=0 time=120
note_on channel=0 note=49 velocity=0 time=0
note_on channel=0 note=37 velocity=0 time=0
note_on channel=0 note=69 velocity=0 time=0
note_on channel=0 note=64 velocity=36 time=0
note_on channel=0 note=73 velocity=54 time=0
note_on channel=0 note=64 velocity=0 time=120
note_on channel=0 note=59 velocity=31 time=0
note_on channel=0 note=59 velocity=0 time=120
note_on channel=0 note=73 velocity=0 time=0
note_on channel=0 note=66 velocity=37 time=0
note_on channel=0 note=71 velocity=47 time=0
note_on channel=0 note=51 velocity=28 time=0
note_on channel=0 note=39 velocity=23 time=0
control_change channel=0 control=64 value=0 time=16
control_change channel=0 control=64 value=127 time=62
note_on channel=0 note=66 velocity=0 time=42
note_on channel=0 note=59 velocity=26 time=0
note_on channel=0 note=59 velocity=0 time=0
note_on channel=0 note=39 velocity=0 time=0
note_on channel=0 note=51 velocity=0 time=0
note_on channel=0 note=71 velocity=0 time=0
note_on channel=0 note=63 velocity=25 time=0
note_on channel=0 note=66 velocity=38 time=0
note_on channel=0 note=47 velocity=26 time=0
note_on channel=0 note=35 velocity=22 time=0
note_on channel=0 note=63 velocity=0 time=0
note_on channel=0 note=59 velocity=27 time=0
note_on channel=0 note=59 velocity=0 time=0
note_on channel=0 note=35 velocity=0 time=0
note_on channel=0 note=47 velocity=0 time=0
note_on channel=0 note=66 velocity=0 time=0
note_on channel=0 note=59 velocity=30 time=0
note_on channel=0 note=68 velocity=42 time=0
note_on channel=0 note=40 velocity=28 time=0
note_on channel=0 note=52 velocity=28 time=0
control_change channel=0 control=64 value=0 time=8
control_change channel=0 control=64 value=127 time=77
note_on channel=0 note=59 velocity=0 time=25
note_on channel=0 note=59 velocity=28 time=10
note_on channel=0 note=59 velocity=0 time=120
note_on channel=0 note=64 velocity=36 time=0
note_on channel=0 note=64 velocity=0 time=120
note_on channel=0 note=59 velocity=31 time=0
note_on channel=0 note=59 velocity=0 time=120
note_on channel=0 note=52 velocity=0 time=0
note_on channel=0 note=40 velocity=0 time=0
note_on channel=0 note=68 velocity=0 time=0
note_on channel=0 note=64 velocity=37 time=0
note_on channel=0 note=64 velocity=0 time=120
note_on channel=0 note=59 velocity=31 time=0
note_on channel=0 note=59 velocity=0 time=0
note_on channel=0 note=64 velocity=28 time=0
note_on channel=0 note=68 velocity=43 time=0
note_on channel=0 note=47 velocity=26 time=0
control_change channel=0 control=64 value=0 time=18
control_change channel=0 control=64 value=127 time=67
note_on channel=0 note=64 velocity=0 time=35
note_on channel=0 note=59 velocity=28 time=0
note_on channel=0 note=59 velocity=0 time=0
note_on channel=0 note=47 velocity=0 time=0
note_on channel=0 note=68 velocity=0 time=0
note_on channel=0 note=64 velocity=30 time=0
note_on channel=0 note=69 velocity=46 time=0
note_on channel=0 note=49 velocity=30 time=0
control_change channel=0 control=64 value=0 time=10
control_change channel=0 control=64 value=127 time=75
note_on channel=0 note=64 velocity=0 time=35
note_on channel=0 note=59 velocity=28 time=0
note_on channel=0 note=59 velocity=0 time=120
note_on channel=0 note=69 velocity=0 time=0
note_on channel=0 note=64 velocity=36 time=0
note_on channel=0 note=73 velocity=54 time=0
note_on channel=0 note=64 velocity=0 time=120
note_on channel=0 note=59 velocity=31 time=0
note_on channel=0 note=59 velocity=0 time=120
note_on channel=0 note=73 velocity=0 time=0
note_on channel=0 note=49 velocity=0 time=0
note_on channel=0 note=66 velocity=37 time=0
note_on channel=0 note=71 velocity=47 time=0
note_on channel=0 note=51 velocity=28 time=0
control_change channel=0 control=64 value=0 time=16
control_change channel=0 control=64 value=127 time=62
note_on channel=0 note=66 velocity=0 time=42
note_on channel=0 note=59 velocity=26 time=0
note_on channel=0 note=59 velocity=0 time=0
note_on channel=0 note=51 velocity=0 time=0
note_on channel=0 note=71 velocity=0 time=0
note_on channel=0 note=63 velocity=25 time=0
note_on channel=0 note=66 velocity=38 time=0
note_on channel=0 note=57 velocity=26 time=0
note_on channel=0 note=47 velocity=22 time=0
note_on channel=0 note=63 velocity=0 time=0
note_on channel=0 note=59 velocity=27 time=0
note_on channel=0 note=59 velocity=0 time=0
note_on channel=0 note=47 velocity=0 time=0
note_on channel=0 note=57 velocity=0 time=0
note_on channel=0 note=66 velocity=0 time=0
note_on channel=0 note=59 velocity=35 time=0
note_on channel=0 note=64 velocity=35 time=0
note_on channel=0 note=68 velocity=42 time=0
note_on channel=0 note=52 velocity=28 time=0
note_on channel=0 note=56 velocity=33 time=0
control_change channel=0 control=64 value=0 time=8
control_change channel=0 control=64 value=127 time=55
note_on channel=0 note=56 velocity=0 time=57
note_on channel=0 note=52 velocity=0 time=0
note_on channel=0 note=47 velocity=27 time=0
note_on channel=0 note=47 velocity=0 time=120
note_on channel=0 note=52 velocity=28 time=0
note_on channel=0 note=56 velocity=33 time=0
note_on channel=0 note=56 velocity=0 time=120
note_on channel=0 note=52 velocity=0 time=0
note_on channel=0 note=47 velocity=30 time=0
note_on channel=0 note=47 velocity=0 time=120
note_on channel=0 note=68 velocity=0 time=0
note_on channel=0 note=64 velocity=0 time=0
note_on channel=0 note=59 velocity=0 time=0
note_on channel=0 note=56 velocity=31 time=0
note_on channel=0 note=52 velocity=26 time=0
note_on channel=0 note=52 velocity=0 time=120
note_on channel=0 note=56 velocity=0 time=0
note_on channel=0 note=47 velocity=26 time=0
note_on channel=0 note=47 velocity=0 time=0
note_on channel=0 note=68 velocity=45 time=0
note_on channel=0 note=80 velocity=45 time=0
note_on channel=0 note=56 velocity=30 time=0
note_on channel=0 note=53 velocity=25 time=0
control_change channel=0 control=64 value=0 time=17
control_change channel=0 control=64 value=127 time=58
note_on channel=0 note=53 velocity=0 time=45
note_on channel=0 note=56 velocity=0 time=0
note_on channel=0 note=47 velocity=26 time=0
note_on channel=0 note=47 velocity=0 time=0
note_on channel=0 note=80 velocity=0 time=0
note_on channel=0 note=68 velocity=0 time=0
note_on channel=0 note=69 velocity=43 time=0
note_on channel=0 note=81 velocity=51 time=0
note_on channel=0 note=54 velocity=28 time=0
note_on channel=0 note=57 velocity=33 time=0
control_change channel=0 control=64 value=0 time=21
control_change channel=0 control=64 value=127 time=71
note_on channel=0 note=57 velocity=0 time=28
note_on channel=0 note=54 velocity=0 time=0
note_on channel=0 note=47 velocity=26 time=0
note_on channel=0 note=47 velocity=0 time=120
note_on channel=0 note=81 velocity=0 time=0
note_on channel=0 note=69 velocity=0 time=0
note_on channel=0 note=73 velocity=44 time=0
note_on channel=0 note=85 velocity=53 time=0
note_on channel=0 note=57 velocity=28 time=0
note_on channel=0 note=61 velocity=33 time=0
note_on channel=0 note=61 velocity=0 time=120
note_on channel=0 note=57 velocity=0 time=0
note_on channel=0 note=47 velocity=27 time=0
note_on channel=0 note=47 velocity=0 time=120
note_on channel=0 note=85 velocity=0 time=0
note_on channel=0 note=73 velocity=0 time=0
note_on channel=0 note=71 velocity=39 time=0
note_on channel=0 note=83 velocity=47 time=0
note_on channel=0 note=59 velocity=31 time=0
note_on channel=0 note=56 velocity=26 time=0
control_change channel=0 control=64 value=0 time=50
control_change channel=0 control=64 value=127 time=63
note_on channel=0 note=56 velocity=0 time=0
note_on channel=0 note=59 velocity=0 time=0
note_on channel=0 note=47 velocity=26 time=0
note_on channel=0 note=47 velocity=0 time=120
note_on channel=0 note=83 velocity=0 time=0
note_on channel=0 note=71 velocity=0 time=0
note_on channel=0 note=87 velocity=49 time=0
note_on channel=0 note=75 velocity=32 time=0
note_on channel=0 note=57 velocity=29 time=0
note_on channel=0 note=54 velocity=24 time=0
control_change channel=0 control=64 value=0 time=14
control_change channel=0 control=64 value=127 time=64
note_on channel=0 note=54 velocity=0 time=0
note_on channel=0 note=57 velocity=0 time=0
note_on channel=0 note=47 velocity=27 time=0
note_on channel=0 note=47 velocity=0 time=0
note_on channel=0 note=75 velocity=0 time=0
note_on channel=0 note=87 velocity=0 time=0
note_on channel=0 note=88 velocity=57 time=0
note_on channel=0 note=76 velocity=35 time=0
note_on channel=0 note=52 velocity=26 time=0
note_on channel=0 note=56 velocity=31 time=0
control_change channel=0 control=64 value=0 time=6
note_on channel=0 note=56 velocity=0 time=120
note_on channel=0 note=52 velocity=0 time=0
note_on channel=0 note=42 velocity=31 time=0
note_on channel=0 note=42 velocity=0 time=240
note_on channel=0 note=76 velocity=0 time=0
note_on channel=0 note=88 velocity=0 time=0
note_on channel=0 note=40 velocity=34 time=0
note_on channel=0 note=40 velocity=0 time=240
note_on channel=0 note=49 velocity=37 time=0
note_on channel=0 note=49 velocity=0 time=240
note_on channel=0 note=47 velocity=34 time=0
note_on channel=0 note=57 velocity=40 time=240
note_on channel=0 note=57 velocity=0 time=240
note_on channel=0 note=56 velocity=39 time=0
note_on channel=0 note=56 velocity=0 time=240
note_on channel=0 note=47 velocity=0 time=0
note_on channel=0 note=68 velocity=31 time=0
note_on channel=0 note=64 velocity=45 time=0
note_on channel=0 note=49 velocity=45 time=0
note_on channel=0 note=49 velocity=0 time=120
note_on channel=0 note=47 velocity=49 time=0
note_on channel=0 note=47 velocity=0 time=120
note_on channel=0 note=64 velocity=0 time=0
note_on channel=0 note=68 velocity=0 time=0
note_on channel=0 note=66 velocity=31 time=0
note_on channel=0 note=64 velocity=52 time=0
note_on channel=0 note=46 velocity=52 time=0
note_on channel=0 note=64 velocity=0 time=240
note_on channel=0 note=66 velocity=0 time=0
note_on channel=0 note=78 velocity=42 time=0
note_on channel=0 note=76 velocity=35 time=0
note_on channel=0 note=73 velocity=35 time=0
note_on channel=0 note=73 velocity=0 time=240
note_on channel=0 note=46 velocity=0 time=0
note_on channel=0 note=78 velocity=0 time=0
note_on channel=0 note=76 velocity=0 time=0
note_on channel=0 note=73 velocity=38 time=0
note_on channel=0 note=76 velocity=45 time=0
note_on channel=0 note=58 velocity=39 time=0
note_on channel=0 note=64 velocity=39 time=0
note_on channel=0 note=66 velocity=47 time=0
note_on channel=0 note=76 velocity=0 time=240
note_on channel=0 note=85 velocity=50 time=0
note_on channel=0 note=85 velocity=0 time=27
note_on channel=0 note=66 velocity=0 time=0
note_on channel=0 note=73 velocity=0 time=0
note_on channel=0 note=58 velocity=0 time=0
note_on channel=0 note=64 velocity=0 time=0
note_on channel=0 note=85 velocity=45 time=0
note_on channel=0 note=59 velocity=22 time=0
note_on channel=0 note=64 velocity=22 time=0
note_on channel=0 note=68 velocity=27 time=0
control_change channel=0 control=64 value=0 time=0
note_on channel=0 note=85 velocity=0 time=57
note_on channel=0 note=83 velocity=37 time=0
note_on channel=0 note=83 velocity=0 time=87
note_on channel=0 note=68 velocity=0 time=0
note_on channel=0 note=64 velocity=0 time=0
note_on channel=0 note=59 velocity=0 time=0
note_on channel=0 note=80 velocity=38 time=0
note_on channel=0 note=80 velocity=0 time=57
note_on channel=0 note=76 velocity=38 time=0
note_on channel=0 note=76 velocity=0 time=87
note_on channel=0 note=75 velocity=39 time=0
note_on channel=0 note=66 velocity=27 time=0
note_on channel=0 note=59 velocity=23 time=0
note_on channel=0 note=75 velocity=0 time=57
note_on channel=0 note=73 velocity=39 time=0
note_on channel=0 note=73 velocity=0 time=87
note_on channel=0 note=59 velocity=0 time=0
note_on channel=0 note=66 velocity=0 time=0
note_on channel=0 note=71 velocity=39 time=0
note_on channel=0 note=71 velocity=0 time=57
note_on channel=0 note=69 velocity=40 time=0
note_on channel=0 note=69 velocity=0 time=27
note_on channel=0 note=68 velocity=43 time=0
note_on channel=0 note=64 velocity=29 time=0
note_on channel=0 note=61 velocity=24 time=0
note_on channel=0 note=68 velocity=0 time=27
note_on channel=0 note=66 velocity=40 time=0
note_on channel=0 note=66 velocity=0 time=120
note_on channel=0 note=61 velocity=0 time=0
note_on channel=0 note=64 velocity=0 time=0
note_on channel=0 note=64 velocity=36 time=0
note_on channel=0 note=64 velocity=0 time=27
note_on channel=0 note=76 velocity=49 time=30
note_on channel=0 note=76 velocity=0 time=120
note_on channel=0 note=75 velocity=46 time=0
note_on channel=0 note=61 velocity=30 time=0
note_on channel=0 note=57 velocity=25 time=0
note_on channel=0 note=75 velocity=0 time=117
note_on channel=0 note=73 velocity=45 time=0
note_on channel=0 note=73 velocity=0 time=27
note_on channel=0 note=57 velocity=0 time=30
note_on channel=0 note=61 velocity=0 time=0
note_on channel=0 note=85 velocity=55 time=0
note_on channel=0 note=85 velocity=0 time=120
note_on channel=0 note=83 velocity=52 time=0
note_on channel=0 note=83 velocity=0 time=87
note_on channel=0 note=81 velocity=50 time=0
note_on channel=0 note=54 velocity=26 time=0
note_on channel=0 note=57 velocity=31 time=0
note_on channel=0 note=81 velocity=0 time=117
note_on channel=0 note=80 velocity=49 time=0
note_on channel=0 note=80 velocity=0 time=57
note_on channel=0 note=57 velocity=0 time=30
note_on channel=0 note=54 velocity=0 time=0
note_on channel=0 note=93 velocity=59 time=0
note_on channel=0 note=93 velocity=0 time=57
note_on channel=0 note=92 velocity=56 time=0
note_on channel=0 note=92 velocity=0 time=27
note_on channel=0 note=92 velocity=57 time=30
note_on channel=0 note=51 velocity=26 time=0
note_on channel=0 note=54 velocity=32 time=0
note_on channel=0 note=92 velocity=0 time=27
note_on channel=0 note=90 velocity=55 time=0
note_on channel=0 note=90 velocity=0 time=120
note_on channel=0 note=54 velocity=0 time=0
note_on channel=0 note=51 velocity=0 time=0
note_on channel=0 note=93 velocity=58 time=0
note_on channel=0 note=93 velocity=0 time=117
note_on channel=0 note=90 velocity=56 time=0
note_on channel=0 note=90 velocity=0 time=87
note_on channel=0 note=88 velocity=55 time=0
note_on channel=0 note=63 velocity=33 time=0
note_on channel=0 note=59 velocity=27 time=0
note_on channel=0 note=88 velocity=0 time=0
note_on channel=0 note=87 velocity=56 time=0
note_on channel=0 note=87 velocity=0 time=120
note_on channel=0 note=59 velocity=0 time=0
note_on channel=0 note=63 velocity=0 time=0
note_on channel=0 note=90 velocity=63 time=0
note_on channel=0 note=90 velocity=0 time=0
note_on channel=0 note=81 velocity=54 time=0
note_on channel=0 note=81 velocity=0 time=90
note_on channel=0 note=81 velocity=50 time=0
note_on channel=0 note=64 velocity=30 time=0
note_on channel=0 note=61 velocity=25 time=0
note_on channel=0 note=81 velocity=0 time=87
note_on channel=0 note=80 velocity=47 time=0
note_on channel=0 note=80 velocity=0 time=120
note_on channel=0 note=61 velocity=0 time=0
note_on channel=0 note=64 velocity=0 time=0
note_on channel=0 note=88 velocity=50 time=0
note_on channel=0 note=64 velocity=30 time=0
note_on channel=0 note=61 velocity=25 time=0
note_on channel=0 note=88 velocity=0 time=0
note_on channel=0 note=80 velocity=46 time=0
note_on channel=0 note=80 velocity=0 time=0
note_on channel=0 note=61 velocity=0 time=0
note_on channel=0 note=64 velocity=0 time=0
note_on channel=0 note=78 velocity=40 time=0
note_on channel=0 note=57 velocity=28 time=0
note_on channel=0 note=78 velocity=0 time=120
note_on channel=0 note=85 velocity=37 time=0
note_on channel=0 note=85 velocity=0 time=0
note_on channel=0 note=57 velocity=0 time=0
note_on channel=0 note=83 velocity=40 time=0
note_on channel=0 note=59 velocity=24 time=0
note_on channel=0 note=83 velocity=0 time=0
note_on channel=0 note=75 velocity=36 time=0
note_on channel=0 note=75 velocity=0 time=0
note_on channel=0 note=59 velocity=0 time=0
note_on channel=0 note=76 velocity=40 time=0
note_on channel=0 note=52 velocity=27 time=0
note_on channel=0 note=52 velocity=0 time=240
note_on channel=0 note=76 velocity=0 time=0
