note_on channel=0 note=67 velocity=40 time=0
note_on channel=0 note=63 velocity=34 time=0
control_change channel=0 control=64 value=127 time=0
note_on channel=0 note=63 velocity=0 time=0
note_on channel=0 note=67 velocity=0 time=0
note_on channel=0 note=65 velocity=39 time=0
note_on channel=0 note=58 velocity=33 time=0
control_change channel=0 control=64 value=0 time=6
control_change channel=0 control=64 value=127 time=181
note_on channel=0 note=58 velocity=0 time=0
note_on channel=0 note=65 velocity=0 time=0
note_on channel=0 note=55 velocity=33 time=0
note_on channel=0 note=63 velocity=39 time=0
note_on channel=0 note=36 velocity=27 time=0
note_on channel=0 note=48 velocity=32 time=0
control_change channel=0 control=64 value=0 time=12
control_change channel=0 control=64 value=127 time=34
note_on channel=0 note=48 velocity=0 time=674
note_on channel=0 note=55 velocity=0 time=0
note_on channel=0 note=63 velocity=0 time=0
note_on channel=0 note=36 velocity=0 time=0
note_on channel=0 note=63 velocity=44 time=0
note_on channel=0 note=48 velocity=27 time=0
note_on channel=0 note=51 velocity=32 time=0
note_on channel=0 note=63 velocity=0 time=180
note_on channel=0 note=68 velocity=37 time=0
note_on channel=0 note=68 velocity=0 time=0
note_on channel=0 note=51 velocity=0 time=0
note_on channel=0 note=48 velocity=0 time=0
note_on channel=0 note=67 velocity=44 time=0
note_on channel=0 note=46 velocity=28 time=0
note_on channel=0 note=52 velocity=33 time=0
control_change channel=0 control=64 value=0 time=8
control_change channel=0 control=64 value=127 time=34
note_on channel=0 note=52 velocity=0 time=196
note_on channel=0 note=46 velocity=0 time=0
note_on channel=0 note=67 velocity=0 time=2
note_on channel=0 note=67 velocity=46 time=0
note_on channel=0 note=46 velocity=28 time=0
note_on channel=0 note=52 velocity=34 time=0
note_on channel=0 note=67 velocity=0 time=180
note_on channel=0 note=73 velocity=44 time=0
note_on channel=0 note=52 velocity=0 time=58
note_on channel=0 note=46 velocity=0 time=0
note_on channel=0 note=73 velocity=0 time=2
note_on channel=0 note=72 velocity=50 time=0
note_on channel=0 note=45 velocity=30 time=0
note_on channel=0 note=53 velocity=36 time=0
control_change channel=0 control=64 value=0 time=5
control_change channel=0 control=64 value=127 time=34
note_on channel=0 note=53 velocity=0 time=0
note_on channel=0 note=45 velocity=0 time=0
note_on channel=0 note=72 velocity=0 time=0
note_on channel=0 note=72 velocity=55 time=0
note_on channel=0 note=54 velocity=38 time=0
note_on channel=0 note=44 velocity=32 time=0
control_change channel=0 control=64 value=0 time=6
control_change channel=0 control=64 value=127 time=27
note_on channel=0 note=72 velocity=0 time=0
note_on channel=0 note=74 velocity=48 time=0
note_on channel=0 note=74 velocity=0 time=20
note_on channel=0 note=72 velocity=48 time=0
note_on channel=0 note=72 velocity=0 time=20
note_on channel=0 note=71 velocity=48 time=0
note_on channel=0 note=71 velocity=0 time=0
note_on channel=0 note=72 velocity=55 time=0
note_on channel=0 note=72 velocity=0 time=0
note_on channel=0 note=74 velocity=48 time=0
note_on channel=0 note=74 velocity=0 time=0
note_on channel=0 note=44 velocity=0 time=0
note_on channel=0 note=54 velocity=0 time=0
note_on channel=0 note=75 velocity=58 time=0
note_on channel=0 note=63 velocity=44 time=0
note_on channel=0 note=55 velocity=40 time=0
note_on channel=0 note=43 velocity=34 time=0
control_change channel=0 control=64 value=0 time=0
control_change channel=0 control=64 value=127 time=106
note_on channel=0 note=55 velocity=0 time=0
note_on channel=0 note=63 velocity=0 time=0
note_on channel=0 note=66 velocity=39 time=0
note_on channel=0 note=63 velocity=33 time=0
note_on channel=0 note=57 velocity=26 time=0
note_on channel=0 note=75 velocity=0 time=0
note_on channel=0 note=72 velocity=44 time=0
note_on channel=0 note=72 velocity=0 time=0
note_on channel=0 note=57 velocity=0 time=0
note_on channel=0 note=63 velocity=0 time=0
note_on channel=0 note=66 velocity=0 time=0
note_on channel=0 note=71 velocity=46 time=0
note_on channel=0 note=62 velocity=32 time=0
note_on channel=0 note=67 velocity=37 time=0
note_on channel=0 note=59 velocity=29 time=0
control_change channel=0 control=64 value=0 time=8
control_change channel=0 control=64 value=127 time=112
note_on channel=0 note=59 velocity=0 time=0
note_on channel=0 note=62 velocity=0 time=0
note_on channel=0 note=43 velocity=0 time=0
note_on channel=0 note=71 velocity=0 time=0
note_on channel=0 note=67 velocity=0 time=0
note_on channel=0 note=79 velocity=62 time=0
note_on channel=0 note=79 velocity=0 time=0
note_on channel=0 note=87 velocity=58 time=0
note_on channel=0 note=87 velocity=0 time=0
note_on channel=0 note=87 velocity=63 time=0
note_on channel=0 note=75 velocity=48 time=0
note_on channel=0 note=67 velocity=44 time=0
note_on channel=0 note=55 velocity=44 time=0
control_change channel=0 control=64 value=0 time=5
control_change channel=0 control=64 value=127 time=115
note_on channel=0 note=67 velocity=0 time=0
note_on channel=0 note=75 velocity=0 time=0
note_on channel=0 note=78 velocity=48 time=0
note_on channel=0 note=75 velocity=40 time=0
note_on channel=0 note=69 velocity=37 time=0
note_on channel=0 note=87 velocity=0 time=0
note_on channel=0 note=84 velocity=53 time=0
note_on channel=0 note=84 velocity=0 time=120
note_on channel=0 note=69 velocity=0 time=0
note_on channel=0 note=75 velocity=0 time=0
note_on channel=0 note=78 velocity=0 time=0
note_on channel=0 note=74 velocity=40 time=0
note_on channel=0 note=79 velocity=40 time=0
note_on channel=0 note=83 velocity=50 time=0
note_on channel=0 note=71 velocity=33 time=0
control_change channel=0 control=64 value=0 time=7
control_change channel=0 control=64 value=127 time=92
note_on channel=0 note=83 velocity=0 time=139
note_on channel=0 note=79 velocity=0 time=0
note_on channel=0 note=74 velocity=0 time=0
note_on channel=0 note=55 velocity=0 time=0
note_on channel=0 note=71 velocity=0 time=0
note_on channel=0 note=82 velocity=60 time=0
note_on channel=0 note=74 velocity=46 time=0
note_on channel=0 note=79 velocity=46 time=0
note_on channel=0 note=70 velocity=33 time=0
note_on channel=0 note=67 velocity=24 time=0
control_change channel=0 control=64 value=0 time=11
control_change channel=0 control=64 value=127 time=81
note_on channel=0 note=67 velocity=0 time=0
note_on channel=0 note=79 velocity=0 time=0
note_on channel=0 note=82 velocity=0 time=0
note_on channel=0 note=74 velocity=0 time=0
note_on channel=0 note=70 velocity=0 time=0
note_on channel=0 note=82 velocity=68 time=0
note_on channel=0 note=74 velocity=55 time=0
note_on channel=0 note=68 velocity=45 time=0
note_on channel=0 note=65 velocity=45 time=0
note_on channel=0 note=70 velocity=53 time=0
control_change channel=0 control=64 value=0 time=0
control_change channel=0 control=64 value=127 time=52
note_on channel=0 note=65 velocity=0 time=0
note_on channel=0 note=68 velocity=0 time=0
note_on channel=0 note=74 velocity=0 time=0
note_on channel=0 note=75 velocity=55 time=0
note_on channel=0 note=63 velocity=39 time=0
note_on channel=0 note=67 velocity=46 time=0
control_change channel=0 control=64 value=0 time=7
control_change channel=0 control=64 value=127 time=36
note_on channel=0 note=67 velocity=0 time=0
note_on channel=0 note=75 velocity=0 time=0
note_on channel=0 note=63 velocity=0 time=0
note_on channel=0 note=77 velocity=46 time=0
note_on channel=0 note=62 velocity=43 time=0
note_on channel=0 note=65 velocity=51 time=0
control_change channel=0 control=64 value=0 time=8
note_on channel=0 note=77 velocity=0 time=72
note_on channel=0 note=82 velocity=0 time=0
note_on channel=0 note=70 velocity=51 time=0
note_on channel=0 note=70 velocity=0 time=80
note_on channel=0 note=72 velocity=46 time=0
note_on channel=0 note=72 velocity=0 time=80
note_on channel=0 note=70 velocity=0 time=0
note_on channel=0 note=62 velocity=0 time=0
note_on channel=0 note=65 velocity=0 time=0
note_on channel=0 note=69 velocity=55 time=0
note_on channel=0 note=62 velocity=46 time=0
note_on channel=0 note=58 velocity=39 time=0
note_on channel=0 note=69 velocity=0 time=0
note_on channel=0 note=70 velocity=46 time=0
note_on channel=0 note=70 velocity=0 time=0
note_on channel=0 note=68 velocity=46 time=0
note_on channel=0 note=68 velocity=0 time=40
note_on channel=0 note=58 velocity=0 time=0
note_on channel=0 note=62 velocity=0 time=0
note_on channel=0 note=58 velocity=34 time=0
note_on channel=0 note=64 velocity=40 time=0
note_on channel=0 note=67 velocity=40 time=0
note_on channel=0 note=61 velocity=34 time=0
control_change channel=0 control=64 value=127 time=52
note_on channel=0 note=61 velocity=0 time=0
note_on channel=0 note=58 velocity=0 time=0
note_on channel=0 note=64 velocity=0 time=0
note_on channel=0 note=67 velocity=0 time=0
note_on channel=0 note=62 velocity=33 time=0
note_on channel=0 note=65 velocity=39 time=0
note_on channel=0 note=56 velocity=33 time=0
note_on channel=0 note=46 velocity=32 time=0
note_on channel=0 note=34 velocity=27 time=0
control_change channel=0 control=64 value=0 time=7
control_change channel=0 control=64 value=127 time=149
note_on channel=0 note=34 velocity=0 time=0
note_on channel=0 note=56 velocity=0 time=0
note_on channel=0 note=62 velocity=0 time=0
note_on channel=0 note=65 velocity=0 time=0
note_on channel=0 note=46 velocity=0 time=0
note_on channel=0 note=54 velocity=33 time=0
note_on channel=0 note=63 velocity=39 time=0
note_on channel=0 note=35 velocity=27 time=0
note_on channel=0 note=47 velocity=32 time=0
control_change channel=0 control=64 value=0 time=9
control_change channel=0 control=64 value=127 time=46
note_on channel=0 note=47 velocity=0 time=665
note_on channel=0 note=54 velocity=0 time=0
note_on channel=0 note=63 velocity=0 time=0
note_on channel=0 note=35 velocity=0 time=0
note_on channel=0 note=66 velocity=44 time=0
note_on channel=0 note=63 velocity=34 time=0
note_on channel=0 note=47 velocity=27 time=0
note_on channel=0 note=54 velocity=32 time=0
note_on channel=0 note=66 velocity=0 time=180
note_on channel=0 note=71 velocity=37 time=0
note_on channel=0 note=71 velocity=0 time=0
note_on channel=0 note=54 velocity=0 time=0
note_on channel=0 note=47 velocity=0 time=0
note_on channel=0 note=63 velocity=0 time=0
note_on channel=0 note=71 velocity=44 time=0
note_on channel=0 note=64 velocity=34 time=0
note_on channel=0 note=54 velocity=33 time=0
note_on channel=0 note=49 velocity=28 time=0
control_change channel=0 control=64 value=0 time=7
control_change channel=0 control=64 value=127 time=28
note_on channel=0 note=49 velocity=0 time=203
note_on channel=0 note=54 velocity=0 time=0
note_on channel=0 note=64 velocity=0 time=2
note_on channel=0 note=71 velocity=0 time=0
note_on channel=0 note=64 velocity=34 time=0
note_on channel=0 note=70 velocity=46 time=0
note_on channel=0 note=54 velocity=34 time=0
note_on channel=0 note=49 velocity=28 time=0
control_change channel=0 control=64 value=0 time=9
control_change channel=0 control=64 value=127 time=28
note_on channel=0 note=70 velocity=0 time=143
note_on channel=0 note=76 velocity=44 time=0
note_on channel=0 note=49 velocity=0 time=58
note_on channel=0 note=54 velocity=0 time=0
note_on channel=0 note=64 velocity=0 time=2
note_on channel=0 note=76 velocity=0 time=0
note_on channel=0 note=75 velocity=50 time=0
note_on channel=0 note=63 velocity=34 time=0
note_on channel=0 note=47 velocity=30 time=0
note_on channel=0 note=54 velocity=36 time=0
control_change channel=0 control=64 value=0 time=10
control_change channel=0 control=64 value=127 time=34
note_on channel=0 note=54 velocity=0 time=194
note_on channel=0 note=47 velocity=0 time=0
note_on channel=0 note=63 velocity=0 time=0
note_on channel=0 note=75 velocity=0 time=0
note_on channel=0 note=75 velocity=55 time=0
note_on channel=0 note=46 velocity=32 time=0
note_on channel=0 note=54 velocity=38 time=0
control_change channel=0 control=64 value=0 time=8
control_change channel=0 control=64 value=127 time=38
note_on channel=0 note=75 velocity=0 time=0
note_on channel=0 note=77 velocity=48 time=0
note_on channel=0 note=77 velocity=0 time=20
note_on channel=0 note=75 velocity=48 time=0
note_on channel=0 note=75 velocity=0 time=20
note_on channel=0 note=74 velocity=48 time=0
note_on channel=0 note=74 velocity=0 time=0
note_on channel=0 note=75 velocity=55 time=0
note_on channel=0 note=75 velocity=0 time=0
note_on channel=0 note=77 velocity=48 time=0
note_on channel=0 note=77 velocity=0 time=0
note_on channel=0 note=46 velocity=0 time=0
note_on channel=0 note=78 velocity=58 time=0
note_on channel=0 note=72 velocity=37 time=0
note_on channel=0 note=45 velocity=40 time=0
control_change channel=0 control=64 value=0 time=4
control_change channel=0 control=64 value=127 time=42
note_on channel=0 note=72 velocity=0 time=0
note_on channel=0 note=54 velocity=0 time=0
note_on channel=0 note=72 velocity=44 time=0
note_on channel=0 note=53 velocity=34 time=0
control_change channel=0 control=64 value=0 time=10
control_change channel=0 control=64 value=127 time=33
note_on channel=0 note=78 velocity=0 time=0
note_on channel=0 note=75 velocity=49 time=0
note_on channel=0 note=75 velocity=0 time=0
note_on channel=0 note=53 velocity=0 time=0
note_on channel=0 note=72 velocity=0 time=0
note_on channel=0 note=45 velocity=0 time=0
note_on channel=0 note=74 velocity=46 time=0
note_on channel=0 note=70 velocity=37 time=0
note_on channel=0 note=53 velocity=30 time=0
note_on channel=0 note=46 velocity=25 time=0
control_change channel=0 control=64 value=0 time=9
control_change channel=0 control=64 value=127 time=40
note_on channel=0 note=46 velocity=0 time=0
note_on channel=0 note=74 velocity=0 time=0
note_on channel=0 note=70 velocity=0 time=0
note_on channel=0 note=53 velocity=0 time=0
note_on channel=0 note=70 velocity=37 time=0
note_on channel=0 note=73 velocity=55 time=0
note_on channel=0 note=44 velocity=32 time=0
note_on channel=0 note=52 velocity=38 time=0
control_change channel=0 control=64 value=0 time=8
note_on channel=0 note=73 velocity=0 time=0
note_on channel=0 note=75 velocity=48 time=0
control_change channel=0 control=64 value=127 time=9
note_on channel=0 note=75 velocity=0 time=11
note_on channel=0 note=73 velocity=48 time=0
note_on channel=0 note=73 velocity=0 time=20
note_on channel=0 note=72 velocity=48 time=0
note_on channel=0 note=72 velocity=0 time=0
note_on channel=0 note=73 velocity=55 time=0
note_on channel=0 note=73 velocity=0 time=0
note_on channel=0 note=75 velocity=48 time=0
note_on channel=0 note=75 velocity=0 time=0
note_on channel=0 note=44 velocity=0 time=0
note_on channel=0 note=76 velocity=58 time=0
note_on channel=0 note=43 velocity=40 time=0
control_change channel=0 control=64 value=0 time=5
control_change channel=0 control=64 value=127 time=44
note_on channel=0 note=70 velocity=0 time=0
note_on channel=0 note=52 velocity=0 time=0
note_on channel=0 note=70 velocity=44 time=0
note_on channel=0 note=51 velocity=34 time=0
control_change channel=0 control=64 value=0 time=8
control_change channel=0 control=64 value=127 time=32
note_on channel=0 note=76 velocity=0 time=0
note_on channel=0 note=75 velocity=49 time=0
note_on channel=0 note=75 velocity=0 time=60
note_on channel=0 note=73 velocity=44 time=0
note_on channel=0 note=73 velocity=0 time=0
note_on channel=0 note=43 velocity=0 time=0
note_on channel=0 note=70 velocity=0 time=0
note_on channel=0 note=51 velocity=0 time=0
note_on channel=0 note=71 velocity=46 time=0
note_on channel=0 note=68 velocity=37 time=0
note_on channel=0 note=51 velocity=30 time=0
note_on channel=0 note=44 velocity=25 time=0
control_change channel=0 control=64 value=0 time=8
control_change channel=0 control=64 value=127 time=44
note_on channel=0 note=44 velocity=0 time=188
note_on channel=0 note=71 velocity=0 time=0
note_on channel=0 note=68 velocity=0 time=0
note_on channel=0 note=51 velocity=0 time=0
note_on channel=0 note=63 velocity=42 time=0
note_on channel=0 note=75 velocity=55 time=0
note_on channel=0 note=70 velocity=42 time=0
note_on channel=0 note=54 velocity=31 time=0
note_on channel=0 note=42 velocity=26 time=0
note_on channel=0 note=46 velocity=26 time=0
control_change channel=0 control=64 value=0 time=4
control_change channel=0 control=64 value=127 time=45
note_on channel=0 note=46 velocity=0 time=0
note_on channel=0 note=75 velocity=0 time=0
note_on channel=0 note=70 velocity=0 time=0
note_on channel=0 note=63 velocity=0 time=0
note_on channel=0 note=42 velocity=0 time=0
note_on channel=0 note=54 velocity=0 time=0
note_on channel=0 note=74 velocity=51 time=0
note_on channel=0 note=68 velocity=39 time=0
note_on channel=0 note=62 velocity=39 time=0
note_on channel=0 note=70 velocity=39 time=0
note_on channel=0 note=41 velocity=27 time=0
note_on channel=0 note=46 velocity=27 time=0
note_on channel=0 note=53 velocity=32 time=0
control_change channel=0 control=64 value=0 time=3
control_change channel=0 control=64 value=127 time=89
note_on channel=0 note=53 velocity=0 time=148
note_on channel=0 note=41 velocity=0 time=0
note_on channel=0 note=68 velocity=0 time=0
note_on channel=0 note=62 velocity=0 time=0
note_on channel=0 note=74 velocity=0 time=0
note_on channel=0 note=46 velocity=0 time=0
note_on channel=0 note=70 velocity=0 time=0
control_change channel=0 control=64 value=0 time=97
note_on channel=0 note=62 velocity=32 time=263
note_on channel=0 note=70 velocity=38 time=0
note_on channel=0 note=74 velocity=45 time=0
note_on channel=0 note=68 velocity=32 time=0
note_on channel=0 note=46 velocity=34 time=0
note_on channel=0 note=53 velocity=40 time=0
note_on channel=0 note=41 velocity=28 time=0
note_on channel=0 note=41 velocity=0 time=119
note_on channel=0 note=46 velocity=0 time=0
note_on channel=0 note=70 velocity=0 time=0
note_on channel=0 note=74 velocity=0 time=0
note_on channel=0 note=62 velocity=0 time=0
note_on channel=0 note=53 velocity=0 time=0
note_on channel=0 note=68 velocity=0 time=0
note_on channel=0 note=70 velocity=39 time=1
note_on channel=0 note=63 velocity=33 time=0
note_on channel=0 note=66 velocity=33 time=0
note_on channel=0 note=75 velocity=47 time=0
note_on channel=0 note=39 velocity=28 time=0
note_on channel=0 note=46 velocity=34 time=0
note_on channel=0 note=51 velocity=40 time=0
note_on channel=0 note=51 velocity=0 time=119
note_on channel=0 note=39 velocity=0 time=0
note_on channel=0 note=63 velocity=0 time=0
note_on channel=0 note=66 velocity=0 time=0
note_on channel=0 note=70 velocity=0 time=0
note_on channel=0 note=46 velocity=0 time=0
note_on channel=0 note=75 velocity=0 time=0
note_on channel=0 note=66 velocity=30 time=0
note_on channel=0 note=75 velocity=43 time=0
note_on channel=0 note=70 velocity=36 time=0
note_on channel=0 note=63 velocity=30 time=0
note_on channel=0 note=46 velocity=28 time=0
note_on channel=0 note=39 velocity=23 time=0
note_on channel=0 note=51 velocity=34 time=0
note_on channel=0 note=51 velocity=0 time=119
note_on channel=0 note=46 velocity=0 time=0
note_on channel=0 note=75 velocity=0 time=0
note_on channel=0 note=70 velocity=0 time=0
note_on channel=0 note=66 velocity=0 time=0
note_on channel=0 note=39 velocity=0 time=0
note_on channel=0 note=63 velocity=0 time=0
note_on channel=0 note=77 velocity=55 time=0
note_on channel=0 note=65 velocity=39 time=0
note_on channel=0 note=70 velocity=46 time=0
note_on channel=0 note=46 velocity=39 time=0
note_on channel=0 note=50 velocity=47 time=0
note_on channel=0 note=38 velocity=33 time=0
note_on channel=0 note=38 velocity=0 time=240
note_on channel=0 note=65 velocity=0 time=0
note_on channel=0 note=70 velocity=0 time=0
note_on channel=0 note=77 velocity=0 time=0
note_on channel=0 note=50 velocity=0 time=0
note_on channel=0 note=46 velocity=0 time=0
note_on channel=0 note=74 velocity=45 time=0
note_on channel=0 note=70 velocity=38 time=0
note_on channel=0 note=65 velocity=34 time=0
note_on channel=0 note=68 velocity=40 time=0
note_on channel=0 note=68 velocity=0 time=119
note_on channel=0 note=74 velocity=0 time=0
note_on channel=0 note=70 velocity=0 time=0
note_on channel=0 note=65 velocity=0 time=0
note_on channel=0 note=70 velocity=39 time=1
note_on channel=0 note=75 velocity=47 time=0
note_on channel=0 note=66 velocity=40 time=0
note_on channel=0 note=63 velocity=34 time=0
note_on channel=0 note=63 velocity=0 time=119
note_on channel=0 note=70 velocity=0 time=0
note_on channel=0 note=75 velocity=0 time=0
note_on channel=0 note=66 velocity=0 time=0
note_on channel=0 note=75 velocity=43 time=0
note_on channel=0 note=70 velocity=36 time=0
note_on channel=0 note=66 velocity=34 time=0
note_on channel=0 note=63 velocity=28 time=0
note_on channel=0 note=63 velocity=0 time=119
note_on channel=0 note=75 velocity=0 time=0
note_on channel=0 note=70 velocity=0 time=0
note_on channel=0 note=66 velocity=0 time=0
note_on channel=0 note=77 velocity=55 time=0
note_on channel=0 note=70 velocity=46 time=0
note_on channel=0 note=62 velocity=39 time=0
note_on channel=0 note=65 velocity=47 time=0
note_on channel=0 note=65 velocity=0 time=240
note_on channel=0 note=77 velocity=0 time=0
note_on channel=0 note=70 velocity=0 time=0
note_on channel=0 note=62 velocity=0 time=0
note_on channel=0 note=70 velocity=41 time=0
note_on channel=0 note=77 velocity=49 time=0
note_on channel=0 note=65 velocity=44 time=0
note_on channel=0 note=62 velocity=37 time=0
note_on channel=0 note=62 velocity=0 time=119
note_on channel=0 note=70 velocity=0 time=0
note_on channel=0 note=77 velocity=0 time=0
note_on channel=0 note=65 velocity=0 time=0
note_on channel=0 note=79 velocity=54 time=1
note_on channel=0 note=70 velocity=44 time=0
note_on channel=0 note=63 velocity=46 time=0
note_on channel=0 note=61 velocity=39 time=0
note_on channel=0 note=61 velocity=0 time=119
note_on channel=0 note=79 velocity=0 time=0
note_on channel=0 note=70 velocity=0 time=0
note_on channel=0 note=63 velocity=0 time=0
note_on channel=0 note=68 velocity=42 time=0
note_on channel=0 note=80 velocity=51 time=0
note_on channel=0 note=59 velocity=33 time=0
note_on channel=0 note=63 velocity=40 time=0
note_on channel=0 note=63 velocity=0 time=119
note_on channel=0 note=68 velocity=0 time=0
note_on channel=0 note=80 velocity=0 time=0
note_on channel=0 note=59 velocity=0 time=0
note_on channel=0 note=68 velocity=46 time=0
note_on channel=0 note=80 velocity=55 time=0
note_on channel=0 note=59 velocity=39 time=0
note_on channel=0 note=63 velocity=47 time=0
note_on channel=0 note=63 velocity=0 time=240
note_on channel=0 note=68 velocity=0 time=0
note_on channel=0 note=80 velocity=0 time=0
note_on channel=0 note=59 velocity=0 time=0
note_on channel=0 note=77 velocity=49 time=0
note_on channel=0 note=70 velocity=41 time=0
note_on channel=0 note=62 velocity=37 time=0
note_on channel=0 note=65 velocity=44 time=0
note_on channel=0 note=65 velocity=0 time=119
note_on channel=0 note=77 velocity=0 time=0
note_on channel=0 note=70 velocity=0 time=0
note_on channel=0 note=62 velocity=0 time=0
note_on channel=0 note=79 velocity=54 time=1
note_on channel=0 note=70 velocity=44 time=0
note_on channel=0 note=61 velocity=39 time=0
note_on channel=0 note=63 velocity=46 time=0
note_on channel=0 note=63 velocity=0 time=119
note_on channel=0 note=79 velocity=0 time=0
note_on channel=0 note=70 velocity=0 time=0
note_on channel=0 note=61 velocity=0 time=0
note_on channel=0 note=80 velocity=51 time=0
note_on channel=0 note=68 velocity=42 time=0
note_on channel=0 note=60 velocity=33 time=0
note_on channel=0 note=63 velocity=40 time=0
note_on channel=0 note=63 velocity=0 time=119
note_on channel=0 note=80 velocity=0 time=0
note_on channel=0 note=68 velocity=0 time=0
note_on channel=0 note=60 velocity=0 time=0
note_on channel=0 note=80 velocity=44 time=240
note_on channel=0 note=68 velocity=36 time=0
note_on channel=0 note=60 velocity=31 time=0
note_on channel=0 note=63 velocity=37 time=0
note_on channel=0 note=63 velocity=0 time=240
note_on channel=0 note=80 velocity=0 time=0
note_on channel=0 note=68 velocity=0 time=0
note_on channel=0 note=60 velocity=0 time=0
note_on channel=0 note=68 velocity=36 time=240
note_on channel=0 note=80 velocity=44 time=0
note_on channel=0 note=63 velocity=37 time=0
note_on channel=0 note=60 velocity=31 time=0
note_on channel=0 note=60 velocity=0 time=0
note_on channel=0 note=68 velocity=0 time=0
note_on channel=0 note=80 velocity=0 time=0
note_on channel=0 note=63 velocity=0 time=0
note_on channel=0 note=80 velocity=77 time=0
note_on channel=0 note=68 velocity=64 time=0
note_on channel=0 note=63 velocity=77 time=0
note_on channel=0 note=60 velocity=64 time=0
control_change channel=0 control=64 value=127 time=49
note_on channel=0 note=60 velocity=0 time=0
note_on channel=0 note=80 velocity=0 time=0
note_on channel=0 note=68 velocity=0 time=0
note_on channel=0 note=63 velocity=0 time=0
note_on channel=0 note=67 velocity=59 time=0
note_on channel=0 note=74 velocity=70 time=0
note_on channel=0 note=62 velocity=60 time=0
note_on channel=0 note=59 velocity=51 time=0
control_change channel=0 control=64 value=0 time=8
control_change channel=0 control=64 value=127 time=64
note_on channel=0 note=59 velocity=0 time=0
note_on channel=0 note=62 velocity=0 time=0
note_on channel=0 note=74 velocity=0 time=0
note_on channel=0 note=79 velocity=67 time=0
note_on channel=0 note=61 velocity=59 time=0
note_on channel=0 note=58 velocity=50 time=0
control_change channel=0 control=64 value=0 time=37
note_on channel=0 note=58 velocity=0 time=23
note_on channel=0 note=61 velocity=0 time=0
note_on channel=0 note=79 velocity=0 time=0
note_on channel=0 note=67 velocity=0 time=0
note_on channel=0 note=67 velocity=59 time=0
note_on channel=0 note=79 velocity=70 time=0
note_on channel=0 note=58 velocity=56 time=0
note_on channel=0 note=61 velocity=67 time=0
control_change channel=0 control=64 value=127 time=49
note_on channel=0 note=61 velocity=0 time=0
note_on channel=0 note=67 velocity=0 time=0
note_on channel=0 note=79 velocity=0 time=0
note_on channel=0 note=58 velocity=0 time=0
note_on channel=0 note=72 velocity=70 time=0
note_on channel=0 note=65 velocity=59 time=0
note_on channel=0 note=57 velocity=51 time=0
note_on channel=0 note=60 velocity=60 time=0
control_change channel=0 control=64 value=0 time=5
control_change channel=0 control=64 value=127 time=47
note_on channel=0 note=60 velocity=0 time=0
note_on channel=0 note=57 velocity=0 time=0
note_on channel=0 note=72 velocity=0 time=0
note_on channel=0 note=77 velocity=67 time=0
note_on channel=0 note=56 velocity=50 time=0
note_on channel=0 note=59 velocity=59 time=0
control_change channel=0 control=64 value=0 time=25
note_on channel=0 note=59 velocity=0 time=35
note_on channel=0 note=56 velocity=0 time=0
note_on channel=0 note=77 velocity=0 time=0
note_on channel=0 note=65 velocity=0 time=0
note_on channel=0 note=65 velocity=59 time=0
note_on channel=0 note=77 velocity=70 time=0
note_on channel=0 note=56 velocity=56 time=0
note_on channel=0 note=59 velocity=67 time=0
control_change channel=0 control=64 value=127 time=83
note_on channel=0 note=59 velocity=0 time=0
note_on channel=0 note=65 velocity=0 time=0
note_on channel=0 note=77 velocity=0 time=0
note_on channel=0 note=56 velocity=0 time=0
note_on channel=0 note=70 velocity=70 time=0
note_on channel=0 note=63 velocity=59 time=0
note_on channel=0 note=58 velocity=60 time=0
note_on channel=0 note=55 velocity=51 time=0
control_change channel=0 control=64 value=0 time=5
control_change channel=0 control=64 value=127 time=41
note_on channel=0 note=55 velocity=0 time=0
note_on channel=0 note=58 velocity=0 time=0
note_on channel=0 note=70 velocity=0 time=0
note_on channel=0 note=75 velocity=67 time=0
note_on channel=0 note=54 velocity=50 time=0
note_on channel=0 note=57 velocity=59 time=0
control_change channel=0 control=64 value=0 time=28
note_on channel=0 note=57 velocity=0 time=32
note_on channel=0 note=54 velocity=0 time=0
note_on channel=0 note=75 velocity=0 time=0
note_on channel=0 note=63 velocity=0 time=0
note_on channel=0 note=68 velocity=59 time=0
note_on channel=0 note=63 velocity=59 time=0
note_on channel=0 note=75 velocity=70 time=0
note_on channel=0 note=70 velocity=59 time=0
note_on channel=0 note=56 velocity=67 time=0
note_on channel=0 note=53 velocity=56 time=0
control_change channel=0 control=64 value=127 time=67
note_on channel=0 note=75 velocity=0 time=0
note_on channel=0 note=63 velocity=0 time=0
note_on channel=0 note=74 velocity=59 time=0
note_on channel=0 note=62 velocity=50 time=0
control_change channel=0 control=64 value=0 time=8
control_change channel=0 control=64 value=127 time=139
note_on channel=0 note=62 velocity=0 time=93
note_on channel=0 note=53 velocity=0 time=0
note_on channel=0 note=56 velocity=0 time=0
note_on channel=0 note=68 velocity=0 time=0
note_on channel=0 note=74 velocity=0 time=0
note_on channel=0 note=70 velocity=0 time=0
note_on channel=0 note=75 velocity=59 time=0
note_on channel=0 note=70 velocity=50 time=0
note_on channel=0 note=63 velocity=50 time=0
note_on channel=0 note=55 velocity=45 time=0
note_on channel=0 note=51 velocity=38 time=0
control_change channel=0 control=64 value=0 time=12
control_change channel=0 control=64 value=127 time=68
note_on channel=0 note=51 velocity=0 time=160
note_on channel=0 note=63 velocity=0 time=0
note_on channel=0 note=75 velocity=0 time=0
note_on channel=0 note=70 velocity=0 time=0
note_on channel=0 note=55 velocity=0 time=0
note_on channel=0 note=65 velocity=48 time=0
note_on channel=0 note=70 velocity=48 time=0
note_on channel=0 note=77 velocity=57 time=0
note_on channel=0 note=50 velocity=40 time=0
note_on channel=0 note=53 velocity=48 time=0
control_change channel=0 control=64 value=0 time=7
control_change channel=0 control=64 value=127 time=107
note_on channel=0 note=53 velocity=0 time=126
note_on channel=0 note=77 velocity=0 time=0
note_on channel=0 note=65 velocity=0 time=0
note_on channel=0 note=70 velocity=0 time=0
note_on channel=0 note=50 velocity=0 time=0
note_on channel=0 note=67 velocity=51 time=0
note_on channel=0 note=70 velocity=51 time=0
note_on channel=0 note=79 velocity=60 time=0
note_on channel=0 note=48 velocity=42 time=0
note_on channel=0 note=51 velocity=50 time=0
control_change channel=0 control=64 value=0 time=10
control_change channel=0 control=64 value=127 time=129
note_on channel=0 note=51 velocity=0 time=0
note_on channel=0 note=79 velocity=0 time=0
note_on channel=0 note=67 velocity=0 time=0
note_on channel=0 note=70 velocity=0 time=0
note_on channel=0 note=48 velocity=0 time=0
note_on channel=0 note=70 velocity=54 time=0
note_on channel=0 note=80 velocity=64 time=0
note_on channel=0 note=68 velocity=54 time=0
note_on channel=0 note=46 velocity=45 time=0
note_on channel=0 note=50 velocity=53 time=0
control_change channel=0 control=64 value=0 time=13
control_change channel=0 control=64 value=127 time=114
note_on channel=0 note=50 velocity=0 time=0
note_on channel=0 note=68 velocity=0 time=0
note_on channel=0 note=70 velocity=0 time=0
note_on channel=0 note=80 velocity=0 time=0
note_on channel=0 note=46 velocity=0 time=0
note_on channel=0 note=70 velocity=57 time=0
note_on channel=0 note=82 velocity=68 time=0
note_on channel=0 note=53 velocity=56 time=0
note_on channel=0 note=46 velocity=47 time=0
note_on channel=0 note=50 velocity=47 time=0
control_change channel=0 control=64 value=0 time=80
control_change channel=0 control=64 value=127 time=47
note_on channel=0 note=50 velocity=0 time=0
note_on channel=0 note=53 velocity=0 time=0
note_on channel=0 note=70 velocity=0 time=0
note_on channel=0 note=82 velocity=0 time=0
note_on channel=0 note=46 velocity=0 time=0
note_on channel=0 note=67 velocity=66 time=0
note_on channel=0 note=70 velocity=66 time=0
note_on channel=0 note=82 velocity=78 time=0
note_on channel=0 note=39 velocity=56 time=0
control_change channel=0 control=64 value=0 time=0
note_on channel=0 note=39 velocity=0 time=120
note_on channel=0 note=46 velocity=40 time=0
control_change channel=0 control=64 value=127 time=0
note_on channel=0 note=46 velocity=0 time=120
note_on channel=0 note=82 velocity=0 time=0
note_on channel=0 note=70 velocity=0 time=0
note_on channel=0 note=67 velocity=0 time=0
note_on channel=0 note=55 velocity=40 time=0
note_on channel=0 note=55 velocity=0 time=120
note_on channel=0 note=46 velocity=40 time=0
note_on channel=0 note=46 velocity=0 time=120
note_on channel=0 note=82 velocity=81 time=0
note_on channel=0 note=70 velocity=69 time=0
note_on channel=0 note=39 velocity=54 time=0
note_on channel=0 note=39 velocity=0 time=120
note_on channel=0 note=46 velocity=44 time=0
note_on channel=0 note=46 velocity=0 time=0
note_on channel=0 note=70 velocity=0 time=0
note_on channel=0 note=82 velocity=0 time=0
note_on channel=0 note=55 velocity=43 time=0
note_on channel=0 note=55 velocity=0 time=120
note_on channel=0 note=46 velocity=43 time=0
note_on channel=0 note=46 velocity=0 time=0
note_on channel=0 note=82 velocity=78 time=0
note_on channel=0 note=94 velocity=93 time=0
note_on channel=0 note=41 velocity=58 time=0
control_change channel=0 control=64 value=0 time=10
control_change channel=0 control=64 value=127 time=103
note_on channel=0 note=41 velocity=0 time=7
note_on channel=0 note=46 velocity=49 time=0
note_on channel=0 note=46 velocity=0 time=120
note_on channel=0 note=56 velocity=49 time=0
note_on channel=0 note=56 velocity=0 time=120
note_on channel=0 note=46 velocity=47 time=0
note_on channel=0 note=46 velocity=0 time=120
note_on channel=0 note=41 velocity=53 time=0
note_on channel=0 note=41 velocity=0 time=120
note_on channel=0 note=46 velocity=44 time=0
note_on channel=0 note=46 velocity=0 time=0
note_on channel=0 note=94 velocity=0 time=0
note_on channel=0 note=82 velocity=0 time=0
note_on channel=0 note=82 velocity=65 time=0
note_on channel=0 note=70 velocity=55 time=0
note_on channel=0 note=56 velocity=44 time=0
note_on channel=0 note=56 velocity=0 time=120
note_on channel=0 note=46 velocity=44 time=0
note_on channel=0 note=46 velocity=0 time=120
note_on channel=0 note=43 velocity=53 time=0
control_change channel=0 control=64 value=0 time=0
control_change channel=0 control=64 value=127 time=99
note_on channel=0 note=43 velocity=0 time=21
note_on channel=0 note=46 velocity=43 time=0
note_on channel=0 note=46 velocity=0 time=120
note_on channel=0 note=58 velocity=43 time=0
note_on channel=0 note=58 velocity=0 time=120
note_on channel=0 note=46 velocity=43 time=0
note_on channel=0 note=46 velocity=0 time=120
note_on channel=0 note=43 velocity=53 time=0
note_on channel=0 note=43 velocity=0 time=120
note_on channel=0 note=46 velocity=43 time=0
note_on channel=0 note=46 velocity=0 time=0
note_on channel=0 note=70 velocity=0 time=0
note_on channel=0 note=82 velocity=0 time=0
note_on channel=0 note=67 velocity=62 time=0
note_on channel=0 note=79 velocity=62 time=0
note_on channel=0 note=58 velocity=43 time=0
note_on channel=0 note=58 velocity=0 time=120
note_on channel=0 note=46 velocity=43 time=0
note_on channel=0 note=46 velocity=0 time=0
note_on channel=0 note=79 velocity=0 time=0
note_on channel=0 note=67 velocity=0 time=0
note_on channel=0 note=77 velocity=65 time=0
note_on channel=0 note=65 velocity=55 time=0
note_on channel=0 note=44 velocity=53 time=0
control_change channel=0 control=64 value=0 time=0
control_change channel=0 control=64 value=127 time=99
note_on channel=0 note=44 velocity=0 time=21
note_on channel=0 note=46 velocity=44 time=0
note_on channel=0 note=46 velocity=0 time=120
note_on channel=0 note=65 velocity=0 time=0
note_on channel=0 note=77 velocity=0 time=0
note_on channel=0 note=74 velocity=57 time=0
note_on channel=0 note=62 velocity=48 time=0
note_on channel=0 note=56 velocity=44 time=0
note_on channel=0 note=56 velocity=0 time=120
note_on channel=0 note=46 velocity=44 time=0
note_on channel=0 note=46 velocity=0 time=120
note_on channel=0 note=62 velocity=0 time=0
note_on channel=0 note=74 velocity=0 time=0
note_on channel=0 note=71 velocity=57 time=0
note_on channel=0 note=59 velocity=48 time=0
note_on channel=0 note=34 velocity=53 time=0
control_change channel=0 control=64 value=0 time=14
note_on channel=0 note=34 velocity=0 time=106
note_on channel=0 note=46 velocity=46 time=0
control_change channel=0 control=64 value=127 time=0
note_on channel=0 note=46 velocity=0 time=0
note_on channel=0 note=59 velocity=0 time=0
note_on channel=0 note=71 velocity=0 time=0
note_on channel=0 note=70 velocity=56 time=0
note_on channel=0 note=58 velocity=47 time=0
note_on channel=0 note=53 velocity=46 time=0
note_on channel=0 note=53 velocity=0 time=120
note_on channel=0 note=46 velocity=46 time=0
note_on channel=0 note=58 velocity=0 time=118
note_on channel=0 note=70 velocity=0 time=0
note_on channel=0 note=46 velocity=0 time=0
note_on channel=0 note=70 velocity=78 time=0
note_on channel=0 note=58 velocity=66 time=0
note_on channel=0 note=39 velocity=56 time=0
control_change channel=0 control=64 value=0 time=0
control_change channel=0 control=64 value=127 time=64
note_on channel=0 note=39 velocity=0 time=56
note_on channel=0 note=46 velocity=40 time=0
note_on channel=0 note=46 velocity=0 time=120
note_on channel=0 note=58 velocity=0 time=0
note_on channel=0 note=70 velocity=0 time=0
note_on channel=0 note=55 velocity=40 time=0
note_on channel=0 note=55 velocity=0 time=120
note_on channel=0 note=46 velocity=40 time=0
note_on channel=0 note=46 velocity=0 time=120
note_on channel=0 note=82 velocity=81 time=0
note_on channel=0 note=70 velocity=69 time=0
note_on channel=0 note=39 velocity=54 time=0
note_on channel=0 note=39 velocity=0 time=120
note_on channel=0 note=46 velocity=44 time=0
note_on channel=0 note=46 velocity=0 time=0
note_on channel=0 note=70 velocity=0 time=0
note_on channel=0 note=82 velocity=0 time=0
note_on channel=0 note=55 velocity=43 time=0
note_on channel=0 note=55 velocity=0 time=120
note_on channel=0 note=46 velocity=43 time=0
note_on channel=0 note=46 velocity=0 time=0
note_on channel=0 note=82 velocity=78 time=0
note_on channel=0 note=94 velocity=93 time=0
note_on channel=0 note=41 velocity=58 time=0
control_change channel=0 control=64 value=0 time=10
control_change channel=0 control=64 value=127 time=103
note_on channel=0 note=41 velocity=0 time=7
note_on channel=0 note=46 velocity=49 time=0
note_on channel=0 note=46 velocity=0 time=120
note_on channel=0 note=56 velocity=49 time=0
note_on channel=0 note=56 velocity=0 time=120
note_on channel=0 note=46 velocity=47 time=0
note_on channel=0 note=46 velocity=0 time=120
note_on channel=0 note=41 velocity=53 time=0
note_on channel=0 note=41 velocity=0 time=120
note_on channel=0 note=46 velocity=44 time=0
note_on channel=0 note=46 velocity=0 time=0
note_on channel=0 note=94 velocity=0 time=0
note_on channel=0 note=82 velocity=0 time=0
note_on channel=0 note=70 velocity=55 time=0
note_on channel=0 note=82 velocity=65 time=0
note_on channel=0 note=56 velocity=44 time=0
note_on channel=0 note=56 velocity=0 time=120
note_on channel=0 note=46 velocity=44 time=0
note_on channel=0 note=46 velocity=0 time=120
note_on channel=0 note=43 velocity=53 time=0
control_change channel=0 control=64 value=0 time=0
control_change channel=0 control=64 value=127 time=99
note_on channel=0 note=43 velocity=0 time=21
note_on channel=0 note=51 velocity=43 time=0
note_on channel=0 note=51 velocity=0 time=120
note_on channel=0 note=58 velocity=43 time=0
note_on channel=0 note=58 velocity=0 time=120
note_on channel=0 note=51 velocity=43 time=0
note_on channel=0 note=51 velocity=0 time=120
note_on channel=0 note=43 velocity=53 time=0
note_on channel=0 note=43 velocity=0 time=120
note_on channel=0 note=51 velocity=43 time=0
note_on channel=0 note=51 velocity=0 time=0
note_on channel=0 note=82 velocity=0 time=0
note_on channel=0 note=70 velocity=0 time=0
note_on channel=0 note=67 velocity=62 time=0
note_on channel=0 note=79 velocity=62 time=0
note_on channel=0 note=58 velocity=43 time=0
note_on channel=0 note=58 velocity=0 time=120
note_on channel=0 note=51 velocity=43 time=0
note_on channel=0 note=51 velocity=0 time=0
note_on channel=0 note=79 velocity=0 time=0
note_on channel=0 note=67 velocity=0 time=0
note_on channel=0 note=64 velocity=55 time=0
note_on channel=0 note=76 velocity=65 time=0
note_on channel=0 note=44 velocity=53 time=0
control_change channel=0 control=64 value=0 time=0
control_change channel=0 control=64 value=127 time=99
note_on channel=0 note=44 velocity=0 time=21
note_on channel=0 note=51 velocity=44 time=0
note_on channel=0 note=51 velocity=0 time=120
note_on channel=0 note=76 velocity=0 time=0
note_on channel=0 note=64 velocity=0 time=0
note_on channel=0 note=77 velocity=57 time=0
note_on channel=0 note=65 velocity=48 time=0
note_on channel=0 note=60 velocity=44 time=0
note_on channel=0 note=60 velocity=0 time=120
note_on channel=0 note=51 velocity=44 time=0
note_on channel=0 note=51 velocity=0 time=120
note_on channel=0 note=65 velocity=0 time=0
note_on channel=0 note=77 velocity=0 time=0
note_on channel=0 note=72 velocity=57 time=0
note_on channel=0 note=60 velocity=48 time=0
note_on channel=0 note=45 velocity=53 time=0
control_change channel=0 control=64 value=0 time=14
note_on channel=0 note=45 velocity=0 time=106
note_on channel=0 note=53 velocity=46 time=0
control_change channel=0 control=64 value=127 time=0
note_on channel=0 note=53 velocity=0 time=0
note_on channel=0 note=60 velocity=0 time=0
note_on channel=0 note=72 velocity=0 time=0
note_on channel=0 note=63 velocity=47 time=0
note_on channel=0 note=75 velocity=56 time=0
note_on channel=0 note=60 velocity=46 time=0
note_on channel=0 note=60 velocity=0 time=120
note_on channel=0 note=53 velocity=46 time=0
note_on channel=0 note=53 velocity=0 time=120
note_on channel=0 note=75 velocity=0 time=0
note_on channel=0 note=63 velocity=0 time=0
note_on channel=0 note=74 velocity=56 time=0
note_on channel=0 note=62 velocity=56 time=0
note_on channel=0 note=46 velocity=52 time=0
note_on channel=0 note=58 velocity=52 time=0
control_change channel=0 control=64 value=0 time=0
control_change channel=0 control=64 value=127 time=92
note_on channel=0 note=62 velocity=0 time=0
note_on channel=0 note=74 velocity=0 time=0
note_on channel=0 note=70 velocity=49 time=0
note_on channel=0 note=70 velocity=0 time=120
note_on channel=0 note=46 velocity=0 time=0
note_on channel=0 note=58 velocity=0 time=0
note_on channel=0 note=69 velocity=51 time=0
note_on channel=0 note=63 velocity=46 time=0
note_on channel=0 note=63 velocity=0 time=120
note_on channel=0 note=69 velocity=0 time=0
note_on channel=0 note=70 velocity=53 time=0
note_on channel=0 note=62 velocity=49 time=0
note_on channel=0 note=62 velocity=0 time=120
note_on channel=0 note=70 velocity=0 time=0
note_on channel=0 note=72 velocity=55 time=0
note_on channel=0 note=69 velocity=46 time=0
note_on channel=0 note=60 velocity=48 time=0
control_change channel=0 control=64 value=0 time=5
control_change channel=0 control=64 value=127 time=70
note_on channel=0 note=60 velocity=0 time=45
note_on channel=0 note=69 velocity=0 time=0
note_on channel=0 note=72 velocity=0 time=0
note_on channel=0 note=70 velocity=48 time=0
note_on channel=0 note=74 velocity=57 time=0
note_on channel=0 note=58 velocity=47 time=0
note_on channel=0 note=58 velocity=0 time=120
note_on channel=0 note=74 velocity=0 time=0
note_on channel=0 note=70 velocity=0 time=0
note_on channel=0 note=72 velocity=50 time=0
note_on channel=0 note=75 velocity=59 time=0
note_on channel=0 note=57 velocity=46 time=0
note_on channel=0 note=57 velocity=0 time=0
note_on channel=0 note=75 velocity=0 time=0
note_on channel=0 note=72 velocity=0 time=0
note_on channel=0 note=74 velocity=51 time=0
note_on channel=0 note=77 velocity=61 time=0
note_on channel=0 note=56 velocity=45 time=0
note_on channel=0 note=56 velocity=0 time=0
note_on channel=0 note=77 velocity=0 time=0
note_on channel=0 note=74 velocity=0 time=0
note_on channel=0 note=75 velocity=53 time=0
note_on channel=0 note=79 velocity=63 time=0
note_on channel=0 note=55 velocity=44 time=0
control_change channel=0 control=64 value=0 time=4
note_on channel=0 note=55 velocity=0 time=116
note_on channel=0 note=53 velocity=43 time=0
control_change channel=0 control=64 value=127 time=28
note_on channel=0 note=53 velocity=0 time=92
note_on channel=0 note=51 velocity=42 time=0
note_on channel=0 note=51 velocity=0 time=120
note_on channel=0 note=50 velocity=41 time=0
note_on channel=0 note=50 velocity=0 time=5
note_on channel=0 note=79 velocity=0 time=0
note_on channel=0 note=75 velocity=0 time=0
note_on channel=0 note=84 velocity=62 time=0
note_on channel=0 note=80 velocity=52 time=0
note_on channel=0 note=51 velocity=40 time=0
control_change channel=0 control=64 value=0 time=17
note_on channel=0 note=51 velocity=0 time=5
note_on channel=0 note=80 velocity=0 time=0
note_on channel=0 note=84 velocity=0 time=0
note_on channel=0 note=82 velocity=59 time=0
note_on channel=0 note=79 velocity=50 time=0
note_on channel=0 note=53 velocity=42 time=0
control_change channel=0 control=64 value=127 time=14
note_on channel=0 note=53 velocity=0 time=5
note_on channel=0 note=79 velocity=0 time=0
note_on channel=0 note=82 velocity=0 time=0
note_on channel=0 note=77 velocity=47 time=0
note_on channel=0 note=80 velocity=56 time=0
note_on channel=0 note=55 velocity=44 time=0
note_on channel=0 note=55 velocity=0 time=5
note_on channel=0 note=80 velocity=0 time=0
note_on channel=0 note=77 velocity=0 time=0
note_on channel=0 note=79 velocity=53 time=0
note_on channel=0 note=75 velocity=45 time=0
note_on channel=0 note=56 velocity=46 time=0
note_on channel=0 note=56 velocity=0 time=5
note_on channel=0 note=75 velocity=0 time=0
note_on channel=0 note=79 velocity=0 time=0
note_on channel=0 note=77 velocity=61 time=0
note_on channel=0 note=74 velocity=51 time=0
note_on channel=0 note=58 velocity=48 time=0
control_change channel=0 control=64 value=0 time=4
control_change channel=0 control=64 value=127 time=95
note_on channel=0 note=58 velocity=0 time=141
note_on channel=0 note=74 velocity=0 time=0
note_on channel=0 note=77 velocity=0 time=0
note_on channel=0 note=60 velocity=42 time=0
note_on channel=0 note=60 velocity=0 time=120
note_on channel=0 note=62 velocity=46 time=0
note_on channel=0 note=62 velocity=0 time=0
note_on channel=0 note=96 velocity=68 time=0
note_on channel=0 note=92 velocity=57 time=0
note_on channel=0 note=63 velocity=44 time=0
control_change channel=0 control=64 value=0 time=13
note_on channel=0 note=63 velocity=0 time=5
note_on channel=0 note=92 velocity=0 time=0
note_on channel=0 note=96 velocity=0 time=0
note_on channel=0 note=94 velocity=64 time=0
note_on channel=0 note=91 velocity=55 time=0
note_on channel=0 note=65 velocity=46 time=0
control_change channel=0 control=64 value=127 time=43
note_on channel=0 note=65 velocity=0 time=5
note_on channel=0 note=91 velocity=0 time=0
note_on channel=0 note=94 velocity=0 time=0
note_on channel=0 note=89 velocity=51 time=0
note_on channel=0 note=92 velocity=61 time=0
note_on channel=0 note=67 velocity=48 time=0
note_on channel=0 note=67 velocity=0 time=5
note_on channel=0 note=92 velocity=0 time=0
note_on channel=0 note=89 velocity=0 time=0
note_on channel=0 note=91 velocity=58 time=0
note_on channel=0 note=87 velocity=49 time=0
note_on channel=0 note=68 velocity=50 time=0
note_on channel=0 note=68 velocity=0 time=5
note_on channel=0 note=87 velocity=0 time=0
note_on channel=0 note=91 velocity=0 time=0
note_on channel=0 note=89 velocity=67 time=0
note_on channel=0 note=86 velocity=56 time=0
note_on channel=0 note=70 velocity=57 time=0
control_change channel=0 control=64 value=0 time=3
control_change channel=0 control=64 value=127 time=51
note_on channel=0 note=70 velocity=0 time=186
note_on channel=0 note=86 velocity=0 time=0
note_on channel=0 note=89 velocity=0 time=0
note_on channel=0 note=84 velocity=68 time=0
note_on channel=0 note=74 velocity=57 time=0
note_on channel=0 note=68 velocity=46 time=0
control_change channel=0 control=64 value=0 time=6
control_change channel=0 control=64 value=127 time=66
note_on channel=0 note=68 velocity=0 time=41
note_on channel=0 note=74 velocity=0 time=0
note_on channel=0 note=84 velocity=0 time=0
note_on channel=0 note=82 velocity=67 time=0
note_on channel=0 note=75 velocity=56 time=0
note_on channel=0 note=67 velocity=53 time=0
note_on channel=0 note=67 velocity=0 time=120
note_on channel=0 note=75 velocity=0 time=0
note_on channel=0 note=82 velocity=0 time=0
note_on channel=0 note=71 velocity=56 time=0
note_on channel=0 note=80 velocity=67 time=0
note_on channel=0 note=65 velocity=52 time=0
control_change channel=0 control=64 value=0 time=6
control_change channel=0 control=64 value=127 time=70
note_on channel=0 note=65 velocity=0 time=37
note_on channel=0 note=80 velocity=0 time=0
note_on channel=0 note=71 velocity=0 time=0
note_on channel=0 note=79 velocity=66 time=0
note_on channel=0 note=72 velocity=56 time=0
note_on channel=0 note=63 velocity=51 time=0
note_on channel=0 note=63 velocity=0 time=120
note_on channel=0 note=72 velocity=0 time=0
note_on channel=0 note=79 velocity=0 time=0
note_on channel=0 note=67 velocity=55 time=0
note_on channel=0 note=77 velocity=64 time=0
note_on channel=0 note=62 velocity=50 time=0
note_on channel=0 note=62 velocity=0 time=83
note_on channel=0 note=77 velocity=0 time=0
note_on channel=0 note=67 velocity=0 time=0
note_on channel=0 note=75 velocity=53 time=30
note_on channel=0 note=78 velocity=63 time=0
note_on channel=0 note=60 velocity=49 time=0
note_on channel=0 note=60 velocity=0 time=90
note_on channel=0 note=78 velocity=0 time=0
note_on channel=0 note=75 velocity=0 time=0
note_on channel=0 note=79 velocity=61 time=8
note_on channel=0 note=74 velocity=51 time=0
note_on channel=0 note=59 velocity=47 time=0
control_change channel=0 control=64 value=0 time=5
note_on channel=0 note=59 velocity=0 time=85
note_on channel=0 note=74 velocity=0 time=0
note_on channel=0 note=79 velocity=0 time=0
control_change channel=0 control=64 value=127 time=7
note_on channel=0 note=74 velocity=55 time=23
note_on channel=0 note=78 velocity=55 time=0
note_on channel=0 note=81 velocity=64 time=0
note_on channel=0 note=57 velocity=48 time=0
note_on channel=0 note=57 velocity=0 time=53
note_on channel=0 note=74 velocity=0 time=0
note_on channel=0 note=78 velocity=0 time=0
note_on channel=0 note=81 velocity=0 time=0
note_on channel=0 note=74 velocity=57 time=30
note_on channel=0 note=79 velocity=57 time=0
note_on channel=0 note=83 velocity=68 time=0
note_on channel=0 note=55 velocity=51 time=0
control_change channel=0 control=64 value=0 time=8
note_on channel=0 note=55 velocity=0 time=8
note_on channel=0 note=74 velocity=0 time=0
note_on channel=0 note=79 velocity=0 time=0
note_on channel=0 note=83 velocity=0 time=0
note_on channel=0 note=74 velocity=60 time=30
note_on channel=0 note=83 velocity=71 time=0
note_on channel=0 note=79 velocity=60 time=0
note_on channel=0 note=53 velocity=55 time=0
note_on channel=0 note=53 velocity=0 time=90
note_on channel=0 note=74 velocity=0 time=0
note_on channel=0 note=83 velocity=0 time=0
note_on channel=0 note=79 velocity=0 time=0
note_on channel=0 note=75 velocity=63 time=30
note_on channel=0 note=79 velocity=63 time=0
note_on channel=0 note=84 velocity=75 time=0
note_on channel=0 note=51 velocity=59 time=0
note_on channel=0 note=51 velocity=0 time=83
note_on channel=0 note=75 velocity=0 time=0
note_on channel=0 note=79 velocity=0 time=0
note_on channel=0 note=84 velocity=0 time=0
note_on channel=0 note=77 velocity=67 time=30
note_on channel=0 note=83 velocity=67 time=0
note_on channel=0 note=86 velocity=79 time=0
note_on channel=0 note=50 velocity=62 time=0
control_change channel=0 control=64 value=127 time=0
note_on channel=0 note=50 velocity=0 time=23
note_on channel=0 note=77 velocity=0 time=0
note_on channel=0 note=83 velocity=0 time=0
note_on channel=0 note=86 velocity=0 time=0
note_on channel=0 note=79 velocity=69 time=23
note_on channel=0 note=84 velocity=69 time=0
note_on channel=0 note=87 velocity=82 time=0
note_on channel=0 note=48 velocity=66 time=0
control_change channel=0 control=64 value=0 time=14
note_on channel=0 note=48 velocity=0 time=8
note_on channel=0 note=79 velocity=0 time=0
note_on channel=0 note=84 velocity=0 time=0
note_on channel=0 note=87 velocity=0 time=0
note_on channel=0 note=88 velocity=85 time=8
note_on channel=0 note=84 velocity=72 time=0
note_on channel=0 note=79 velocity=72 time=0
note_on channel=0 note=46 velocity=58 time=0
note_on channel=0 note=48 velocity=69 time=0
note_on channel=0 note=48 velocity=0 time=8
note_on channel=0 note=79 velocity=0 time=0
note_on channel=0 note=88 velocity=0 time=0
note_on channel=0 note=84 velocity=0 time=0
note_on channel=0 note=46 velocity=0 time=0
note_on channel=0 note=88 velocity=89 time=23
note_on channel=0 note=84 velocity=74 time=0
note_on channel=0 note=79 velocity=74 time=0
note_on channel=0 note=48 velocity=72 time=0
note_on channel=0 note=46 velocity=61 time=0
control_change channel=0 control=64 value=127 time=75
note_on channel=0 note=46 velocity=0 time=45
note_on channel=0 note=79 velocity=0 time=0
note_on channel=0 note=88 velocity=0 time=0
note_on channel=0 note=84 velocity=0 time=0
note_on channel=0 note=48 velocity=0 time=0
control_change channel=0 control=64 value=0 time=69
note_on channel=0 note=89 velocity=92 time=0
note_on channel=0 note=77 velocity=92 time=0
note_on channel=0 note=84 velocity=92 time=0
note_on channel=0 note=48 velocity=75 time=0
note_on channel=0 note=45 velocity=63 time=0
control_change channel=0 control=64 value=127 time=46
note_on channel=0 note=45 velocity=0 time=74
note_on channel=0 note=84 velocity=0 time=0
note_on channel=0 note=89 velocity=0 time=0
note_on channel=0 note=77 velocity=0 time=0
note_on channel=0 note=48 velocity=0 time=0
control_change channel=0 control=64 value=0 time=120
note_on channel=0 note=70 velocity=65 time=0
note_on channel=0 note=75 velocity=84 time=0
note_on channel=0 note=42 velocity=71 time=0
note_on channel=0 note=48 velocity=65 time=0
control_change channel=0 control=64 value=127 time=99
note_on channel=0 note=42 velocity=0 time=0
note_on channel=0 note=75 velocity=0 time=0
note_on channel=0 note=77 velocity=85 time=0
note_on channel=0 note=41 velocity=71 time=0
control_change channel=0 control=64 value=0 time=78
note_on channel=0 note=41 velocity=0 time=42
note_on channel=0 note=77 velocity=0 time=0
note_on channel=0 note=78 velocity=93 time=0
note_on channel=0 note=39 velocity=80 time=0
control_change channel=0 control=64 value=127 time=46
note_on channel=0 note=70 velocity=0 time=0
note_on channel=0 note=70 velocity=61 time=0
note_on channel=0 note=70 velocity=0 time=120
note_on channel=0 note=69 velocity=52 time=0
note_on channel=0 note=69 velocity=0 time=120
note_on channel=0 note=70 velocity=61 time=0
note_on channel=0 note=70 velocity=0 time=120
note_on channel=0 note=69 velocity=54 time=0
note_on channel=0 note=69 velocity=0 time=120
note_on channel=0 note=70 velocity=61 time=0
note_on channel=0 note=70 velocity=0 time=0
note_on channel=0 note=69 velocity=54 time=0
note_on channel=0 note=69 velocity=0 time=0
note_on channel=0 note=48 velocity=0 time=0
note_on channel=0 note=78 velocity=0 time=0
note_on channel=0 note=39 velocity=0 time=0
note_on channel=0 note=70 velocity=65 time=0
note_on channel=0 note=75 velocity=84 time=0
note_on channel=0 note=42 velocity=71 time=0
note_on channel=0 note=48 velocity=65 time=0
control_change channel=0 control=64 value=0 time=0
control_change channel=0 control=64 value=127 time=99
note_on channel=0 note=42 velocity=0 time=0
note_on channel=0 note=75 velocity=0 time=0
note_on channel=0 note=77 velocity=85 time=0
note_on channel=0 note=41 velocity=71 time=0
control_change channel=0 control=64 value=0 time=78
note_on channel=0 note=41 velocity=0 time=42
note_on channel=0 note=77 velocity=0 time=0
note_on channel=0 note=79 velocity=93 time=0
note_on channel=0 note=40 velocity=80 time=0
control_change channel=0 control=64 value=127 time=46
note_on channel=0 note=70 velocity=0 time=0
note_on channel=0 note=70 velocity=61 time=0
note_on channel=0 note=70 velocity=0 time=120
note_on channel=0 note=69 velocity=52 time=0
note_on channel=0 note=69 velocity=0 time=120
note_on channel=0 note=70 velocity=61 time=0
note_on channel=0 note=70 velocity=0 time=120
note_on channel=0 note=69 velocity=54 time=0
note_on channel=0 note=69 velocity=0 time=120
note_on channel=0 note=70 velocity=61 time=0
note_on channel=0 note=70 velocity=0 time=0
note_on channel=0 note=69 velocity=54 time=0
note_on channel=0 note=69 velocity=0 time=0
note_on channel=0 note=48 velocity=0 time=0
note_on channel=0 note=79 velocity=0 time=0
note_on channel=0 note=40 velocity=0 time=0
note_on channel=0 note=78 velocity=70 time=0
note_on channel=0 note=48 velocity=48 time=0
note_on channel=0 note=41 velocity=40 time=0
control_change channel=0 control=64 value=0 time=0
control_change channel=0 control=64 value=127 time=75
note_on channel=0 note=41 velocity=0 time=0
note_on channel=0 note=48 velocity=0 time=0
note_on channel=0 note=78 velocity=0 time=0
note_on channel=0 note=70 velocity=51 time=0
control_change channel=0 control=64 value=0 time=15
note_on channel=0 note=70 velocity=0 time=105
note_on channel=0 note=69 velocity=44 time=0
control_change channel=0 control=64 value=127 time=6
note_on channel=0 note=69 velocity=0 time=114
note_on channel=0 note=70 velocity=51 time=0
note_on channel=0 note=70 velocity=0 time=120
note_on channel=0 note=69 velocity=43 time=0
note_on channel=0 note=69 velocity=0 time=120
note_on channel=0 note=70 velocity=51 time=0
note_on channel=0 note=70 velocity=0 time=0
note_on channel=0 note=69 velocity=45 time=0
note_on channel=0 note=69 velocity=0 time=0
note_on channel=0 note=77 velocity=70 time=0
note_on channel=0 note=50 velocity=48 time=0
note_on channel=0 note=41 velocity=40 time=0
control_change channel=0 control=64 value=0 time=0
control_change channel=0 control=64 value=127 time=75
note_on channel=0 note=41 velocity=0 time=0
note_on channel=0 note=50 velocity=0 time=0
note_on channel=0 note=77 velocity=0 time=0
note_on channel=0 note=72 velocity=51 time=0
control_change channel=0 control=64 value=0 time=15
note_on channel=0 note=72 velocity=0 time=105
note_on channel=0 note=71 velocity=44 time=0
control_change channel=0 control=64 value=127 time=6
note_on channel=0 note=71 velocity=0 time=114
note_on channel=0 note=72 velocity=51 time=0
note_on channel=0 note=72 velocity=0 time=120
note_on channel=0 note=71 velocity=43 time=0
note_on channel=0 note=71 velocity=0 time=120
note_on channel=0 note=72 velocity=51 time=0
note_on channel=0 note=72 velocity=0 time=0
note_on channel=0 note=71 velocity=45 time=0
note_on channel=0 note=71 velocity=0 time=0
note_on channel=0 note=77 velocity=70 time=0
note_on channel=0 note=41 velocity=40 time=0
note_on channel=0 note=51 velocity=48 time=0
control_change channel=0 control=64 value=0 time=0
control_change channel=0 control=64 value=127 time=75
note_on channel=0 note=77 velocity=0 time=45
control_change channel=0 control=64 value=0 time=35
note_on channel=0 note=51 velocity=0 time=0
note_on channel=0 note=41 velocity=0 time=0
note_on channel=0 note=74 velocity=51 time=0
control_change channel=0 control=64 value=127 time=92
note_on channel=0 note=74 velocity=0 time=0
note_on channel=0 note=72 velocity=44 time=0
note_on channel=0 note=72 velocity=0 time=0
note_on channel=0 note=77 velocity=70 time=0
note_on channel=0 note=41 velocity=40 time=0
note_on channel=0 note=50 velocity=48 time=0
control_change channel=0 control=64 value=0 time=0
control_change channel=0 control=64 value=127 time=75
note_on channel=0 note=77 velocity=0 time=45
control_change channel=0 control=64 value=0 time=35
note_on channel=0 note=50 velocity=0 time=0
note_on channel=0 note=41 velocity=0 time=0
note_on channel=0 note=72 velocity=51 time=0
control_change channel=0 control=64 value=127 time=71
note_on channel=0 note=72 velocity=0 time=0
note_on channel=0 note=70 velocity=44 time=0
note_on channel=0 note=70 velocity=0 time=0
note_on channel=0 note=77 velocity=70 time=0
note_on channel=0 note=41 velocity=40 time=0
note_on channel=0 note=48 velocity=48 time=0
control_change channel=0 control=64 value=0 time=0
control_change channel=0 control=64 value=127 time=75
note_on channel=0 note=77 velocity=0 time=45
control_change channel=0 control=64 value=0 time=35
note_on channel=0 note=48 velocity=0 time=0
note_on channel=0 note=41 velocity=0 time=0
note_on channel=0 note=70 velocity=51 time=0
control_change channel=0 control=64 value=127 time=92
note_on channel=0 note=70 velocity=0 time=0
note_on channel=0 note=69 velocity=44 time=0
note_on channel=0 note=69 velocity=0 time=0
note_on channel=0 note=77 velocity=70 time=0
note_on channel=0 note=41 velocity=40 time=0
note_on channel=0 note=50 velocity=48 time=0
control_change channel=0 control=64 value=0 time=0
control_change channel=0 control=64 value=127 time=75
note_on channel=0 note=77 velocity=0 time=45
control_change channel=0 control=64 value=0 time=35
note_on channel=0 note=50 velocity=0 time=0
note_on channel=0 note=41 velocity=0 time=0
note_on channel=0 note=72 velocity=51 time=0
control_change channel=0 control=64 value=127 time=71
note_on channel=0 note=72 velocity=0 time=0
note_on channel=0 note=70 velocity=44 time=0
note_on channel=0 note=70 velocity=0 time=0
note_on channel=0 note=78 velocity=70 time=0
note_on channel=0 note=48 velocity=48 time=0
note_on channel=0 note=41 velocity=40 time=0
control_change channel=0 control=64 value=0 time=0
control_change channel=0 control=64 value=127 time=75
note_on channel=0 note=41 velocity=0 time=0
note_on channel=0 note=48 velocity=0 time=0
note_on channel=0 note=78 velocity=0 time=0
note_on channel=0 note=70 velocity=51 time=0
control_change channel=0 control=64 value=0 time=15
note_on channel=0 note=70 velocity=0 time=105
note_on channel=0 note=69 velocity=44 time=0
control_change channel=0 control=64 value=127 time=6
note_on channel=0 note=69 velocity=0 time=114
note_on channel=0 note=70 velocity=51 time=0
note_on channel=0 note=70 velocity=0 time=120
note_on channel=0 note=69 velocity=43 time=0
note_on channel=0 note=69 velocity=0 time=120
note_on channel=0 note=70 velocity=51 time=0
note_on channel=0 note=70 velocity=0 time=0
note_on channel=0 note=69 velocity=45 time=0
note_on channel=0 note=69 velocity=0 time=0
note_on channel=0 note=77 velocity=70 time=0
note_on channel=0 note=50 velocity=48 time=0
note_on channel=0 note=41 velocity=40 time=0
control_change channel=0 control=64 value=0 time=0
control_change channel=0 control=64 value=127 time=75
note_on channel=0 note=41 velocity=0 time=0
note_on channel=0 note=50 velocity=0 time=0
note_on channel=0 note=77 velocity=0 time=0
note_on channel=0 note=72 velocity=51 time=0
control_change channel=0 control=64 value=0 time=15
note_on channel=0 note=72 velocity=0 time=105
note_on channel=0 note=71 velocity=44 time=0
control_change channel=0 control=64 value=127 time=6
note_on channel=0 note=71 velocity=0 time=114
note_on channel=0 note=72 velocity=51 time=0
note_on channel=0 note=72 velocity=0 time=120
note_on channel=0 note=71 velocity=43 time=0
note_on channel=0 note=71 velocity=0 time=120
note_on channel=0 note=72 velocity=51 time=0
note_on channel=0 note=72 velocity=0 time=0
note_on channel=0 note=71 velocity=45 time=0
note_on channel=0 note=71 velocity=0 time=0
note_on channel=0 note=77 velocity=70 time=0
note_on channel=0 note=41 velocity=40 time=0
note_on channel=0 note=51 velocity=48 time=0
control_change channel=0 control=64 value=0 time=0
control_change channel=0 control=64 value=127 time=75
note_on channel=0 note=77 velocity=0 time=45
control_change channel=0 control=64 value=0 time=35
note_on channel=0 note=51 velocity=0 time=0
note_on channel=0 note=41 velocity=0 time=0
note_on channel=0 note=74 velocity=51 time=0
control_change channel=0 control=64 value=127 time=92
note_on channel=0 note=74 velocity=0 time=0
note_on channel=0 note=72 velocity=44 time=0
note_on channel=0 note=72 velocity=0 time=0
note_on channel=0 note=77 velocity=70 time=0
note_on channel=0 note=41 velocity=40 time=0
note_on channel=0 note=50 velocity=48 time=0
control_change channel=0 control=64 value=0 time=0
control_change channel=0 control=64 value=127 time=75
note_on channel=0 note=77 velocity=0 time=45
control_change channel=0 control=64 value=0 time=35
note_on channel=0 note=50 velocity=0 time=0
note_on channel=0 note=41 velocity=0 time=0
note_on channel=0 note=72 velocity=51 time=0
control_change channel=0 control=64 value=127 time=71
note_on channel=0 note=72 velocity=0 time=0
note_on channel=0 note=71 velocity=44 time=0
note_on channel=0 note=71 velocity=0 time=0
note_on channel=0 note=77 velocity=70 time=0
note_on channel=0 note=51 velocity=48 time=0
note_on channel=0 note=41 velocity=40 time=0
control_change channel=0 control=64 value=0 time=0
control_change channel=0 control=64 value=127 time=75
note_on channel=0 note=77 velocity=0 time=45
control_change channel=0 control=64 value=0 time=35
note_on channel=0 note=41 velocity=0 time=0
note_on channel=0 note=51 velocity=0 time=0
note_on channel=0 note=74 velocity=51 time=0
control_change channel=0 control=64 value=127 time=92
note_on channel=0 note=74 velocity=0 time=0
note_on channel=0 note=72 velocity=44 time=0
note_on channel=0 note=72 velocity=0 time=0
note_on channel=0 note=77 velocity=64 time=0
note_on channel=0 note=53 velocity=48 time=0
control_change channel=0 control=64 value=0 time=0
control_change channel=0 control=64 value=127 time=75
control_change channel=0 control=64 value=0 time=80
note_on channel=0 note=53 velocity=0 time=0
note_on channel=0 note=77 velocity=0 time=0
note_on channel=0 note=72 velocity=59 time=0
note_on channel=0 note=75 velocity=70 time=0
note_on channel=0 note=55 velocity=38 time=0
control_change channel=0 control=64 value=127 time=71
note_on channel=0 note=55 velocity=0 time=0
note_on channel=0 note=57 velocity=40 time=0
note_on channel=0 note=57 velocity=0 time=0
note_on channel=0 note=65 velocity=45 time=0
note_on channel=0 note=58 velocity=42 time=0
control_change channel=0 control=64 value=0 time=0
note_on channel=0 note=58 velocity=0 time=0
note_on channel=0 note=60 velocity=44 time=0
note_on channel=0 note=60 velocity=0 time=120
note_on channel=0 note=75 velocity=0 time=0
note_on channel=0 note=72 velocity=0 time=0
note_on channel=0 note=74 velocity=65 time=0
note_on channel=0 note=70 velocity=55 time=0
note_on channel=0 note=62 velocity=46 time=0
note_on channel=0 note=62 velocity=0 time=0
note_on channel=0 note=63 velocity=48 time=0
note_on channel=0 note=63 velocity=0 time=0
note_on channel=0 note=70 velocity=0 time=0
note_on channel=0 note=74 velocity=0 time=0
note_on channel=0 note=65 velocity=0 time=0
note_on channel=0 note=72 velocity=65 time=0
note_on channel=0 note=69 velocity=55 time=0
note_on channel=0 note=65 velocity=50 time=0
note_on channel=0 note=65 velocity=0 time=0
note_on channel=0 note=69 velocity=0 time=0
note_on channel=0 note=72 velocity=0 time=0
note_on channel=0 note=84 velocity=59 time=0
note_on channel=0 note=87 velocity=70 time=0
note_on channel=0 note=67 velocity=38 time=0
control_change channel=0 control=64 value=127 time=71
note_on channel=0 note=67 velocity=0 time=0
note_on channel=0 note=69 velocity=40 time=0
note_on channel=0 note=69 velocity=0 time=0
note_on channel=0 note=77 velocity=45 time=0
note_on channel=0 note=70 velocity=42 time=0
control_change channel=0 control=64 value=0 time=0
note_on channel=0 note=70 velocity=0 time=0
note_on channel=0 note=72 velocity=44 time=0
note_on channel=0 note=72 velocity=0 time=120
note_on channel=0 note=87 velocity=0 time=0
note_on channel=0 note=84 velocity=0 time=0
note_on channel=0 note=82 velocity=55 time=0
note_on channel=0 note=86 velocity=65 time=0
note_on channel=0 note=74 velocity=46 time=0
note_on channel=0 note=74 velocity=0 time=0
note_on channel=0 note=75 velocity=48 time=0
note_on channel=0 note=75 velocity=0 time=0
note_on channel=0 note=86 velocity=0 time=0
note_on channel=0 note=82 velocity=0 time=0
note_on channel=0 note=77 velocity=0 time=0
note_on channel=0 note=84 velocity=65 time=0
note_on channel=0 note=81 velocity=55 time=0
note_on channel=0 note=77 velocity=50 time=0
note_on channel=0 note=77 velocity=0 time=0
note_on channel=0 note=81 velocity=0 time=0
note_on channel=0 note=84 velocity=0 time=0
note_on channel=0 note=91 velocity=77 time=0
note_on channel=0 note=84 velocity=64 time=0
note_on channel=0 note=81 velocity=64 time=0
note_on channel=0 note=75 velocity=47 time=0
control_change channel=0 control=64 value=127 time=71
note_on channel=0 note=75 velocity=0 time=0
note_on channel=0 note=81 velocity=0 time=0
note_on channel=0 note=84 velocity=0 time=0
note_on channel=0 note=77 velocity=65 time=0
note_on channel=0 note=82 velocity=65 time=0
note_on channel=0 note=74 velocity=56 time=0
control_change channel=0 control=64 value=0 time=0
note_on channel=0 note=74 velocity=0 time=120
note_on channel=0 note=91 velocity=0 time=0
note_on channel=0 note=77 velocity=0 time=0
note_on channel=0 note=82 velocity=0 time=0
note_on channel=0 note=77 velocity=63 time=0
note_on channel=0 note=89 velocity=75 time=0
note_on channel=0 note=82 velocity=63 time=0
note_on channel=0 note=73 velocity=46 time=0
note_on channel=0 note=73 velocity=0 time=0
note_on channel=0 note=77 velocity=0 time=0
note_on channel=0 note=89 velocity=0 time=0
note_on channel=0 note=82 velocity=0 time=0
note_on channel=0 note=79 velocity=69 time=0
note_on channel=0 note=82 velocity=69 time=0
note_on channel=0 note=72 velocity=55 time=0
note_on channel=0 note=72 velocity=0 time=240
note_on channel=0 note=82 velocity=0 time=0
note_on channel=0 note=79 velocity=0 time=0
note_on channel=0 note=87 velocity=79 time=0
note_on channel=0 note=84 velocity=67 time=0
note_on channel=0 note=81 velocity=67 time=0
note_on channel=0 note=65 velocity=47 time=0
note_on channel=0 note=65 velocity=0 time=0
note_on channel=0 note=87 velocity=0 time=0
note_on channel=0 note=84 velocity=0 time=0
note_on channel=0 note=81 velocity=0 time=0
note_on channel=0 note=86 velocity=88 time=0
note_on channel=0 note=58 velocity=39 time=0
control_change channel=0 control=64 value=127 time=0
note_on channel=0 note=77 velocity=49 time=120
note_on channel=0 note=77 velocity=0 time=0
note_on channel=0 note=79 velocity=55 time=0
note_on channel=0 note=61 velocity=39 time=0
note_on channel=0 note=64 velocity=39 time=0
note_on channel=0 note=79 velocity=0 time=120
note_on channel=0 note=77 velocity=50 time=0
note_on channel=0 note=77 velocity=0 time=120
note_on channel=0 note=79 velocity=55 time=0
note_on channel=0 note=79 velocity=0 time=120
note_on channel=0 note=77 velocity=47 time=0
note_on channel=0 note=77 velocity=0 time=0
note_on channel=0 note=64 velocity=0 time=0
note_on channel=0 note=61 velocity=0 time=0
note_on channel=0 note=79 velocity=55 time=0
note_on channel=0 note=62 velocity=39 time=0
note_on channel=0 note=65 velocity=39 time=0
control_change channel=0 control=64 value=0 time=12
control_change channel=0 control=64 value=127 time=94
note_on channel=0 note=79 velocity=0 time=14
note_on channel=0 note=77 velocity=48 time=0
note_on channel=0 note=77 velocity=0 time=0
note_on channel=0 note=65 velocity=0 time=0
note_on channel=0 note=86 velocity=0 time=0
note_on channel=0 note=58 velocity=0 time=0
note_on channel=0 note=62 velocity=0 time=0
note_on channel=0 note=84 velocity=80 time=0
note_on channel=0 note=58 velocity=39 time=0
control_change channel=0 control=64 value=0 time=0
control_change channel=0 control=64 value=127 time=106
note_on channel=0 note=75 velocity=46 time=14
note_on channel=0 note=75 velocity=0 time=0
note_on channel=0 note=77 velocity=54 time=0
note_on channel=0 note=66 velocity=39 time=0
note_on channel=0 note=69 velocity=39 time=0
note_on channel=0 note=77 velocity=0 time=120
note_on channel=0 note=75 velocity=50 time=0
note_on channel=0 note=75 velocity=0 time=120
note_on channel=0 note=77 velocity=53 time=0
note_on channel=0 note=77 velocity=0 time=120
note_on channel=0 note=75 velocity=47 time=0
note_on channel=0 note=75 velocity=0 time=0
note_on channel=0 note=69 velocity=0 time=0
note_on channel=0 note=66 velocity=0 time=0
note_on channel=0 note=77 velocity=53 time=0
note_on channel=0 note=65 velocity=39 time=0
control_change channel=0 control=64 value=0 time=11
control_change channel=0 control=64 value=127 time=95
note_on channel=0 note=77 velocity=0 time=14
note_on channel=0 note=75 velocity=48 time=0
note_on channel=0 note=75 velocity=0 time=0
note_on channel=0 note=65 velocity=0 time=0
note_on channel=0 note=58 velocity=0 time=0
note_on channel=0 note=84 velocity=0 time=0
note_on channel=0 note=82 velocity=70 time=0
note_on channel=0 note=74 velocity=53 time=0
note_on channel=0 note=58 velocity=39 time=0
control_change channel=0 control=64 value=0 time=40
note_on channel=0 note=74 velocity=0 time=80
note_on channel=0 note=70 velocity=48 time=0
control_change channel=0 control=64 value=127 time=7
note_on channel=0 note=70 velocity=0 time=113
note_on channel=0 note=72 velocity=53 time=0
note_on channel=0 note=62 velocity=33 time=0
note_on channel=0 note=65 velocity=39 time=0
note_on channel=0 note=72 velocity=0 time=120
note_on channel=0 note=70 velocity=48 time=0
note_on channel=0 note=70 velocity=0 time=0
note_on channel=0 note=65 velocity=0 time=0
note_on channel=0 note=62 velocity=0 time=0
note_on channel=0 note=82 velocity=0 time=0
note_on channel=0 note=79 velocity=68 time=0
note_on channel=0 note=63 velocity=33 time=0
note_on channel=0 note=67 velocity=39 time=0
control_change channel=0 control=64 value=0 time=12
control_change channel=0 control=64 value=127 time=101
note_on channel=0 note=70 velocity=48 time=7
note_on channel=0 note=70 velocity=0 time=120
note_on channel=0 note=63 velocity=0 time=0
note_on channel=0 note=67 velocity=0 time=0
note_on channel=0 note=79 velocity=0 time=0
note_on channel=0 note=77 velocity=60 time=0
note_on channel=0 note=62 velocity=30 time=0
note_on channel=0 note=65 velocity=39 time=0
control_change channel=0 control=64 value=0 time=12
control_change channel=0 control=64 value=127 time=73
note_on channel=0 note=70 velocity=48 time=0
note_on channel=0 note=70 velocity=0 time=0
note_on channel=0 note=62 velocity=0 time=0
note_on channel=0 note=58 velocity=0 time=0
note_on channel=0 note=77 velocity=0 time=0
note_on channel=0 note=65 velocity=0 time=0
note_on channel=0 note=77 velocity=68 time=0
note_on channel=0 note=70 velocity=53 time=0
note_on channel=0 note=62 velocity=39 time=0
note_on channel=0 note=53 velocity=39 time=0
control_change channel=0 control=64 value=0 time=5
control_change channel=0 control=64 value=127 time=64
note_on channel=0 note=70 velocity=0 time=51
note_on channel=0 note=65 velocity=48 time=0
note_on channel=0 note=65 velocity=0 time=0
note_on channel=0 note=77 velocity=0 time=0
note_on channel=0 note=62 velocity=0 time=0
note_on channel=0 note=69 velocity=53 time=0
note_on channel=0 note=75 velocity=58 time=0
note_on channel=0 note=63 velocity=39 time=0
note_on channel=0 note=60 velocity=33 time=0
control_change channel=0 control=64 value=0 time=11
control_change channel=0 control=64 value=127 time=69
note_on channel=0 note=69 velocity=0 time=40
note_on channel=0 note=65 velocity=48 time=0
note_on channel=0 note=65 velocity=0 time=0
note_on channel=0 note=60 velocity=0 time=0
note_on channel=0 note=63 velocity=0 time=0
note_on channel=0 note=75 velocity=0 time=0
note_on channel=0 note=70 velocity=53 time=0
note_on channel=0 note=74 velocity=66 time=0
note_on channel=0 note=58 velocity=33 time=0
note_on channel=0 note=62 velocity=39 time=0
control_change channel=0 control=64 value=0 time=11
control_change channel=0 control=64 value=127 time=52
note_on channel=0 note=70 velocity=0 time=57
note_on channel=0 note=65 velocity=48 time=0
note_on channel=0 note=65 velocity=0 time=0
note_on channel=0 note=62 velocity=0 time=0
note_on channel=0 note=58 velocity=0 time=0
note_on channel=0 note=74 velocity=0 time=0
note_on channel=0 note=72 velocity=57 time=0
note_on channel=0 note=60 velocity=39 time=0
note_on channel=0 note=57 velocity=30 time=0
control_change channel=0 control=64 value=0 time=11
control_change channel=0 control=64 value=127 time=58
note_on channel=0 note=65 velocity=48 time=51
note_on channel=0 note=65 velocity=0 time=0
note_on channel=0 note=60 velocity=0 time=0
note_on channel=0 note=53 velocity=0 time=0
note_on channel=0 note=72 velocity=0 time=0
note_on channel=0 note=57 velocity=0 time=0
note_on channel=0 note=74 velocity=79 time=0
note_on channel=0 note=46 velocity=35 time=0
control_change channel=0 control=64 value=0 time=8
control_change channel=0 control=64 value=127 time=84
note_on channel=0 note=65 velocity=44 time=28
note_on channel=0 note=65 velocity=0 time=0
note_on channel=0 note=67 velocity=49 time=0
note_on channel=0 note=49 velocity=35 time=0
note_on channel=0 note=52 velocity=35 time=0
note_on channel=0 note=67 velocity=0 time=120
note_on channel=0 note=65 velocity=45 time=0
note_on channel=0 note=65 velocity=0 time=120
note_on channel=0 note=67 velocity=49 time=0
note_on channel=0 note=67 velocity=0 time=120
note_on channel=0 note=65 velocity=42 time=0
note_on channel=0 note=65 velocity=0 time=0
note_on channel=0 note=52 velocity=0 time=0
note_on channel=0 note=49 velocity=0 time=0
note_on channel=0 note=67 velocity=49 time=0
note_on channel=0 note=53 velocity=35 time=0
note_on channel=0 note=50 velocity=35 time=0
control_change channel=0 control=64 value=0 time=12
control_change channel=0 control=64 value=127 time=94
note_on channel=0 note=67 velocity=0 time=14
note_on channel=0 note=65 velocity=43 time=0
note_on channel=0 note=65 velocity=0 time=0
note_on channel=0 note=50 velocity=0 time=0
note_on channel=0 note=74 velocity=0 time=0
note_on channel=0 note=46 velocity=0 time=0
note_on channel=0 note=53 velocity=0 time=0
note_on channel=0 note=72 velocity=72 time=0
note_on channel=0 note=46 velocity=35 time=0
control_change channel=0 control=64 value=0 time=0
control_change channel=0 control=64 value=127 time=106
note_on channel=0 note=63 velocity=41 time=14
note_on channel=0 note=63 velocity=0 time=0
note_on channel=0 note=65 velocity=48 time=0
note_on channel=0 note=54 velocity=35 time=0
note_on channel=0 note=57 velocity=35 time=0
note_on channel=0 note=65 velocity=0 time=120
note_on channel=0 note=63 velocity=45 time=0
note_on channel=0 note=63 velocity=0 time=120
note_on channel=0 note=65 velocity=47 time=0
note_on channel=0 note=65 velocity=0 time=120
note_on channel=0 note=63 velocity=42 time=0
note_on channel=0 note=63 velocity=0 time=0
note_on channel=0 note=57 velocity=0 time=0
note_on channel=0 note=54 velocity=0 time=0
note_on channel=0 note=65 velocity=47 time=0
note_on channel=0 note=53 velocity=35 time=0
control_change channel=0 control=64 value=0 time=11
control_change channel=0 control=64 value=127 time=95
note_on channel=0 note=65 velocity=0 time=14
note_on channel=0 note=63 velocity=43 time=0
note_on channel=0 note=63 velocity=0 time=0
note_on channel=0 note=53 velocity=0 time=0
note_on channel=0 note=46 velocity=0 time=0
note_on channel=0 note=72 velocity=0 time=0
note_on channel=0 note=70 velocity=63 time=0
note_on channel=0 note=62 velocity=47 time=0
note_on channel=0 note=46 velocity=35 time=0
control_change channel=0 control=64 value=0 time=40
note_on channel=0 note=62 velocity=0 time=80
note_on channel=0 note=58 velocity=43 time=0
control_change channel=0 control=64 value=127 time=7
note_on channel=0 note=58 velocity=0 time=113
note_on channel=0 note=60 velocity=47 time=0
note_on channel=0 note=50 velocity=29 time=0
note_on channel=0 note=53 velocity=35 time=0
note_on channel=0 note=60 velocity=0 time=120
note_on channel=0 note=58 velocity=43 time=0
note_on channel=0 note=58 velocity=0 time=0
note_on channel=0 note=53 velocity=0 time=0
note_on channel=0 note=50 velocity=0 time=0
note_on channel=0 note=70 velocity=0 time=0
note_on channel=0 note=67 velocity=61 time=0
note_on channel=0 note=55 velocity=35 time=0
note_on channel=0 note=51 velocity=29 time=0
control_change channel=0 control=64 value=0 time=12
control_change channel=0 control=64 value=127 time=101
note_on channel=0 note=58 velocity=43 time=7
note_on channel=0 note=58 velocity=0 time=120
note_on channel=0 note=55 velocity=0 time=0
note_on channel=0 note=51 velocity=0 time=0
note_on channel=0 note=67 velocity=0 time=0
note_on channel=0 note=65 velocity=54 time=0
note_on channel=0 note=50 velocity=27 time=0
note_on channel=0 note=53 velocity=35 time=0
control_change channel=0 control=64 value=0 time=12
control_change channel=0 control=64 value=127 time=73
note_on channel=0 note=58 velocity=43 time=0
note_on channel=0 note=58 velocity=0 time=0
note_on channel=0 note=50 velocity=0 time=0
note_on channel=0 note=46 velocity=0 time=0
note_on channel=0 note=65 velocity=0 time=0
note_on channel=0 note=53 velocity=0 time=0
note_on channel=0 note=58 velocity=47 time=0
note_on channel=0 note=65 velocity=61 time=0
note_on channel=0 note=41 velocity=35 time=0
note_on channel=0 note=50 velocity=35 time=0
control_change channel=0 control=64 value=0 time=5
control_change channel=0 control=64 value=127 time=64
note_on channel=0 note=58 velocity=0 time=51
note_on channel=0 note=53 velocity=43 time=0
note_on channel=0 note=53 velocity=0 time=0
note_on channel=0 note=50 velocity=0 time=0
note_on channel=0 note=65 velocity=0 time=0
note_on channel=0 note=63 velocity=52 time=0
note_on channel=0 note=57 velocity=47 time=0
note_on channel=0 note=48 velocity=29 time=0
note_on channel=0 note=51 velocity=35 time=0
control_change channel=0 control=64 value=0 time=11
control_change channel=0 control=64 value=127 time=69
note_on channel=0 note=57 velocity=0 time=40
note_on channel=0 note=53 velocity=43 time=0
note_on channel=0 note=53 velocity=0 time=0
note_on channel=0 note=51 velocity=0 time=0
note_on channel=0 note=48 velocity=0 time=0
note_on channel=0 note=63 velocity=0 time=0
note_on channel=0 note=58 velocity=47 time=0
note_on channel=0 note=62 velocity=59 time=0
note_on channel=0 note=46 velocity=29 time=0
note_on channel=0 note=50 velocity=35 time=0
control_change channel=0 control=64 value=0 time=11
control_change channel=0 control=64 value=127 time=52
note_on channel=0 note=58 velocity=0 time=57
note_on channel=0 note=53 velocity=43 time=0
note_on channel=0 note=53 velocity=0 time=0
note_on channel=0 note=50 velocity=0 time=0
note_on channel=0 note=46 velocity=0 time=0
note_on channel=0 note=62 velocity=0 time=0
note_on channel=0 note=60 velocity=51 time=0
note_on channel=0 note=45 velocity=27 time=0
note_on channel=0 note=48 velocity=35 time=0
control_change channel=0 control=64 value=0 time=11
control_change channel=0 control=64 value=127 time=58
note_on channel=0 note=53 velocity=43 time=51
note_on channel=0 note=53 velocity=0 time=120
note_on channel=0 note=45 velocity=0 time=0
note_on channel=0 note=41 velocity=0 time=0
note_on channel=0 note=60 velocity=0 time=0
note_on channel=0 note=48 velocity=0 time=0
note_on channel=0 note=58 velocity=57 time=0
note_on channel=0 note=46 velocity=43 time=0
note_on channel=0 note=34 velocity=43 time=0
control_change channel=0 control=64 value=0 time=7
control_change channel=0 control=64 value=127 time=96
note_on channel=0 note=54 velocity=46 time=0
note_on channel=0 note=50 velocity=55 time=120
note_on channel=0 note=34 velocity=0 time=120
note_on channel=0 note=46 velocity=0 time=0
note_on channel=0 note=42 velocity=39 time=0
note_on channel=0 note=42 velocity=0 time=120
note_on channel=0 note=50 velocity=0 time=0
note_on channel=0 note=54 velocity=0 time=0
note_on channel=0 note=41 velocity=45 time=0
control_change channel=0 control=64 value=0 time=8
control_change channel=0 control=64 value=127 time=78
note_on channel=0 note=58 velocity=0 time=34
note_on channel=0 note=53 velocity=47 time=10
note_on channel=0 note=41 velocity=0 time=110
note_on channel=0 note=50 velocity=47 time=0
note_on channel=0 note=34 velocity=38 time=0
note_on channel=0 note=53 velocity=0 time=10
note_on channel=0 note=50 velocity=0 time=0
note_on channel=0 note=58 velocity=47 time=0
note_on channel=0 note=34 velocity=0 time=0
note_on channel=0 note=29 velocity=55 time=0
note_on channel=0 note=53 velocity=47 time=0
control_change channel=0 control=64 value=0 time=0
note_on channel=0 note=58 velocity=0 time=120
note_on channel=0 note=58 velocity=47 time=0
note_on channel=0 note=58 velocity=0 time=120
note_on channel=0 note=29 velocity=0 time=0
note_on channel=0 note=57 velocity=51 time=0
note_on channel=0 note=51 velocity=44 time=0
note_on channel=0 note=51 velocity=0 time=120
note_on channel=0 note=57 velocity=0 time=0
note_on channel=0 note=58 velocity=49 time=0
note_on channel=0 note=50 velocity=36 time=0
note_on channel=0 note=50 velocity=0 time=0
note_on channel=0 note=58 velocity=0 time=0
note_on channel=0 note=53 velocity=0 time=0
note_on channel=0 note=60 velocity=52 time=0
note_on channel=0 note=48 velocity=43 time=0
control_change channel=0 control=64 value=127 time=69
note_on channel=0 note=48 velocity=0 time=51
note_on channel=0 note=60 velocity=0 time=0
note_on channel=0 note=62 velocity=44 time=0
note_on channel=0 note=46 velocity=39 time=0
note_on channel=0 note=46 velocity=0 time=120
note_on channel=0 note=62 velocity=0 time=0
note_on channel=0 note=63 velocity=51 time=0
note_on channel=0 note=45 velocity=39 time=0
note_on channel=0 note=41 velocity=39 time=0
control_change channel=0 control=64 value=0 time=12
control_change channel=0 control=64 value=127 time=63
note_on channel=0 note=41 velocity=0 time=0
note_on channel=0 note=45 velocity=0 time=0
note_on channel=0 note=63 velocity=0 time=0
note_on channel=0 note=60 velocity=47 time=0
note_on channel=0 note=53 velocity=39 time=0
note_on channel=0 note=53 velocity=0 time=0
note_on channel=0 note=60 velocity=0 time=0
note_on channel=0 note=70 velocity=57 time=0
note_on channel=0 note=46 velocity=43 time=0
control_change channel=0 control=64 value=0 time=7
control_change channel=0 control=64 value=127 time=96
note_on channel=0 note=66 velocity=46 time=0
note_on channel=0 note=62 velocity=55 time=120
note_on channel=0 note=46 velocity=0 time=120
note_on channel=0 note=54 velocity=39 time=0
note_on channel=0 note=54 velocity=0 time=120
note_on channel=0 note=62 velocity=0 time=0
note_on channel=0 note=66 velocity=0 time=0
note_on channel=0 note=53 velocity=45 time=0
control_change channel=0 control=64 value=0 time=8
control_change channel=0 control=64 value=127 time=78
note_on channel=0 note=70 velocity=0 time=34
note_on channel=0 note=65 velocity=47 time=10
note_on channel=0 note=53 velocity=0 time=110
note_on channel=0 note=62 velocity=47 time=0
note_on channel=0 note=46 velocity=38 time=0
note_on channel=0 note=65 velocity=0 time=10
note_on channel=0 note=62 velocity=0 time=0
note_on channel=0 note=70 velocity=47 time=0
note_on channel=0 note=46 velocity=0 time=0
note_on channel=0 note=65 velocity=47 time=0
note_on channel=0 note=41 velocity=55 time=0
control_change channel=0 control=64 value=0 time=0
note_on channel=0 note=70 velocity=0 time=120
note_on channel=0 note=70 velocity=47 time=0
note_on channel=0 note=70 velocity=0 time=120
note_on channel=0 note=41 velocity=0 time=0
note_on channel=0 note=69 velocity=51 time=0
note_on channel=0 note=63 velocity=44 time=0
note_on channel=0 note=63 velocity=0 time=120
note_on channel=0 note=69 velocity=0 time=0
note_on channel=0 note=70 velocity=49 time=0
note_on channel=0 note=62 velocity=36 time=0
note_on channel=0 note=62 velocity=0 time=0
note_on channel=0 note=70 velocity=0 time=0
note_on channel=0 note=65 velocity=0 time=0
note_on channel=0 note=72 velocity=52 time=0
note_on channel=0 note=60 velocity=43 time=0
control_change channel=0 control=64 value=127 time=69
note_on channel=0 note=60 velocity=0 time=51
note_on channel=0 note=72 velocity=0 time=0
note_on channel=0 note=74 velocity=44 time=0
note_on channel=0 note=58 velocity=39 time=0
note_on channel=0 note=58 velocity=0 time=120
note_on channel=0 note=74 velocity=0 time=0
note_on channel=0 note=75 velocity=51 time=0
note_on channel=0 note=57 velocity=39 time=0
note_on channel=0 note=53 velocity=39 time=0
control_change channel=0 control=64 value=0 time=12
control_change channel=0 control=64 value=127 time=63
note_on channel=0 note=53 velocity=0 time=0
note_on channel=0 note=57 velocity=0 time=0
note_on channel=0 note=75 velocity=0 time=0
note_on channel=0 note=72 velocity=47 time=0
note_on channel=0 note=60 velocity=39 time=0
note_on channel=0 note=60 velocity=0 time=0
note_on channel=0 note=72 velocity=0 time=0
note_on channel=0 note=74 velocity=51 time=0
note_on channel=0 note=58 velocity=39 time=0
note_on channel=0 note=62 velocity=39 time=0
control_change channel=0 control=64 value=0 time=0
control_change channel=0 control=64 value=127 time=78
note_on channel=0 note=74 velocity=0 time=0
note_on channel=0 note=72 velocity=42 time=0
note_on channel=0 note=72 velocity=0 time=120
note_on channel=0 note=70 velocity=49 time=0
control_change channel=0 control=64 value=0 time=99
note_on channel=0 note=62 velocity=0 time=21
note_on channel=0 note=58 velocity=0 time=0
note_on channel=0 note=60 velocity=33 time=0
note_on channel=0 note=60 velocity=0 time=0
note_on channel=0 note=58 velocity=39 time=0
note_on channel=0 note=70 velocity=0 time=0
note_on channel=0 note=67 velocity=41 time=0
control_change channel=0 control=64 value=127 time=7
note_on channel=0 note=67 velocity=0 time=0
note_on channel=0 note=65 velocity=48 time=0
note_on channel=0 note=58 velocity=0 time=120
note_on channel=0 note=55 velocity=34 time=0
control_change channel=0 control=64 value=0 time=7
note_on channel=0 note=55 velocity=0 time=113
note_on channel=0 note=53 velocity=39 time=0
control_change channel=0 control=64 value=127 time=99
note_on channel=0 note=65 velocity=0 time=21
note_on channel=0 note=63 velocity=42 time=0
note_on channel=0 note=63 velocity=0 time=0
note_on channel=0 note=62 velocity=48 time=0
note_on channel=0 note=53 velocity=0 time=0
note_on channel=0 note=51 velocity=35 time=0
control_change channel=0 control=64 value=0 time=7
note_on channel=0 note=51 velocity=0 time=113
note_on channel=0 note=50 velocity=39 time=0
note_on channel=0 note=62 velocity=0 time=120
note_on channel=0 note=60 velocity=42 time=0
control_change channel=0 control=64 value=127 time=7
note_on channel=0 note=60 velocity=0 time=113
note_on channel=0 note=58 velocity=47 time=0
note_on channel=0 note=50 velocity=0 time=0
note_on channel=0 note=48 velocity=33 time=0
control_change channel=0 control=64 value=0 time=21
note_on channel=0 note=48 velocity=0 time=0
note_on channel=0 note=46 velocity=39 time=0
control_change channel=0 control=64 value=127 time=78
note_on channel=0 note=58 velocity=0 time=42
note_on channel=0 note=55 velocity=41 time=0
note_on channel=0 note=55 velocity=0 time=120
note_on channel=0 note=53 velocity=47 time=0
note_on channel=0 note=46 velocity=0 time=0
note_on channel=0 note=43 velocity=31 time=0
control_change channel=0 control=64 value=0 time=7
note_on channel=0 note=43 velocity=0 time=0
note_on channel=0 note=41 velocity=39 time=0
control_change channel=0 control=64 value=127 time=99
note_on channel=0 note=53 velocity=0 time=21
note_on channel=0 note=51 velocity=38 time=0
note_on channel=0 note=51 velocity=0 time=120
note_on channel=0 note=50 velocity=43 time=0
note_on channel=0 note=41 velocity=0 time=0
note_on channel=0 note=39 velocity=34 time=0
control_change channel=0 control=64 value=0 time=7
note_on channel=0 note=39 velocity=0 time=0
note_on channel=0 note=38 velocity=39 time=0
control_change channel=0 control=64 value=127 time=85
note_on channel=0 note=50 velocity=0 time=35
note_on channel=0 note=48 velocity=37 time=0
note_on channel=0 note=48 velocity=0 time=120
note_on channel=0 note=46 velocity=44 time=0
note_on channel=0 note=38 velocity=0 time=0
note_on channel=0 note=36 velocity=35 time=0
control_change channel=0 control=64 value=0 time=19
note_on channel=0 note=36 velocity=0 time=0
note_on channel=0 note=34 velocity=39 time=0
note_on channel=0 note=46 velocity=0 time=120
note_on channel=0 note=48 velocity=36 time=0
control_change channel=0 control=64 value=127 time=21
note_on channel=0 note=48 velocity=0 time=0
note_on channel=0 note=46 velocity=41 time=0
note_on channel=0 note=34 velocity=0 time=0
note_on channel=0 note=68 velocity=37 time=0
note_on channel=0 note=65 velocity=30 time=0
note_on channel=0 note=65 velocity=0 time=0
note_on channel=0 note=68 velocity=0 time=0
note_on channel=0 note=65 velocity=36 time=0
note_on channel=0 note=68 velocity=42 time=0
control_change channel=0 control=64 value=0 time=9
control_change channel=0 control=64 value=127 time=151
note_on channel=0 note=46 velocity=0 time=80
note_on channel=0 note=68 velocity=0 time=0
note_on channel=0 note=65 velocity=0 time=0
note_on channel=0 note=63 velocity=36 time=0
note_on channel=0 note=67 velocity=42 time=0
control_change channel=0 control=64 value=0 time=10
control_change channel=0 control=64 value=127 time=177
note_on channel=0 note=67 velocity=0 time=773
note_on channel=0 note=63 velocity=0 time=0
note_on channel=0 note=70 velocity=45 time=0
note_on channel=0 note=77 velocity=53 time=0
note_on channel=0 note=62 velocity=36 time=0
note_on channel=0 note=65 velocity=42 time=0
control_change channel=0 control=64 value=0 time=8
control_change channel=0 control=64 value=127 time=179
note_on channel=0 note=65 velocity=0 time=0
note_on channel=0 note=70 velocity=0 time=0
note_on channel=0 note=77 velocity=0 time=0
note_on channel=0 note=62 velocity=0 time=0
note_on channel=0 note=70 velocity=43 time=0
note_on channel=0 note=79 velocity=51 time=0
note_on channel=0 note=63 velocity=42 time=0
note_on channel=0 note=61 velocity=36 time=0
control_change channel=0 control=64 value=0 time=4
control_change channel=0 control=64 value=127 time=250
note_on channel=0 note=61 velocity=0 time=0
note_on channel=0 note=70 velocity=0 time=0
note_on channel=0 note=79 velocity=0 time=0
note_on channel=0 note=63 velocity=0 time=0
note_on channel=0 note=80 velocity=77 time=0
note_on channel=0 note=68 velocity=64 time=0
note_on channel=0 note=63 velocity=77 time=0
note_on channel=0 note=60 velocity=64 time=0
control_change channel=0 control=64 value=0 time=4
control_change channel=0 control=64 value=127 time=45
note_on channel=0 note=60 velocity=0 time=0
note_on channel=0 note=80 velocity=0 time=0
note_on channel=0 note=68 velocity=0 time=0
note_on channel=0 note=63 velocity=0 time=0
note_on channel=0 note=67 velocity=59 time=0
note_on channel=0 note=74 velocity=70 time=0
note_on channel=0 note=59 velocity=51 time=0
note_on channel=0 note=62 velocity=60 time=0
control_change channel=0 control=64 value=0 time=8
control_change channel=0 control=64 value=127 time=64
note_on channel=0 note=62 velocity=0 time=0
note_on channel=0 note=59 velocity=0 time=0
note_on channel=0 note=74 velocity=0 time=0
note_on channel=0 note=79 velocity=67 time=0
note_on channel=0 note=58 velocity=50 time=0
note_on channel=0 note=61 velocity=59 time=0
control_change channel=0 control=64 value=0 time=37
note_on channel=0 note=61 velocity=0 time=23
note_on channel=0 note=58 velocity=0 time=0
note_on channel=0 note=79 velocity=0 time=0
note_on channel=0 note=67 velocity=0 time=0
note_on channel=0 note=79 velocity=70 time=0
note_on channel=0 note=67 velocity=59 time=0
note_on channel=0 note=58 velocity=56 time=0
note_on channel=0 note=61 velocity=67 time=0
control_change channel=0 control=64 value=127 time=49
note_on channel=0 note=61 velocity=0 time=0
note_on channel=0 note=79 velocity=0 time=0
note_on channel=0 note=67 velocity=0 time=0
note_on channel=0 note=58 velocity=0 time=0
note_on channel=0 note=72 velocity=70 time=0
note_on channel=0 note=65 velocity=59 time=0
note_on channel=0 note=57 velocity=51 time=0
note_on channel=0 note=60 velocity=60 time=0
control_change channel=0 control=64 value=0 time=5
control_change channel=0 control=64 value=127 time=47
note_on channel=0 note=60 velocity=0 time=0
note_on channel=0 note=57 velocity=0 time=0
note_on channel=0 note=72 velocity=0 time=0
note_on channel=0 note=77 velocity=67 time=0
note_on channel=0 note=59 velocity=59 time=0
note_on channel=0 note=56 velocity=50 time=0
control_change channel=0 control=64 value=0 time=25
note_on channel=0 note=56 velocity=0 time=35
note_on channel=0 note=59 velocity=0 time=0
note_on channel=0 note=77 velocity=0 time=0
note_on channel=0 note=65 velocity=0 time=0
note_on channel=0 note=77 velocity=70 time=0
note_on channel=0 note=65 velocity=59 time=0
note_on channel=0 note=56 velocity=56 time=0
note_on channel=0 note=59 velocity=67 time=0
control_change channel=0 control=64 value=127 time=83
note_on channel=0 note=59 velocity=0 time=0
note_on channel=0 note=77 velocity=0 time=0
note_on channel=0 note=65 velocity=0 time=0
note_on channel=0 note=56 velocity=0 time=0
note_on channel=0 note=63 velocity=59 time=0
note_on channel=0 note=70 velocity=70 time=0
note_on channel=0 note=55 velocity=51 time=0
note_on channel=0 note=58 velocity=60 time=0
control_change channel=0 control=64 value=0 time=5
control_change channel=0 control=64 value=127 time=41
note_on channel=0 note=58 velocity=0 time=0
note_on channel=0 note=55 velocity=0 time=0
note_on channel=0 note=70 velocity=0 time=0
note_on channel=0 note=75 velocity=67 time=0
note_on channel=0 note=54 velocity=50 time=0
note_on channel=0 note=57 velocity=59 time=0
control_change channel=0 control=64 value=0 time=28
note_on channel=0 note=57 velocity=0 time=32
note_on channel=0 note=54 velocity=0 time=0
note_on channel=0 note=75 velocity=0 time=0
note_on channel=0 note=63 velocity=0 time=0
note_on channel=0 note=63 velocity=59 time=0
note_on channel=0 note=70 velocity=59 time=0
note_on channel=0 note=68 velocity=59 time=0
note_on channel=0 note=75 velocity=70 time=0
note_on channel=0 note=56 velocity=67 time=0
note_on channel=0 note=53 velocity=56 time=0
control_change channel=0 control=64 value=127 time=67
note_on channel=0 note=75 velocity=0 time=0
note_on channel=0 note=63 velocity=0 time=0
note_on channel=0 note=74 velocity=59 time=0
note_on channel=0 note=62 velocity=50 time=0
control_change channel=0 control=64 value=0 time=8
control_change channel=0 control=64 value=127 time=139
note_on channel=0 note=62 velocity=0 time=93
note_on channel=0 note=53 velocity=0 time=0
note_on channel=0 note=68 velocity=0 time=0
note_on channel=0 note=70 velocity=0 time=0
note_on channel=0 note=74 velocity=0 time=0
note_on channel=0 note=56 velocity=0 time=0
note_on channel=0 note=75 velocity=59 time=0
note_on channel=0 note=70 velocity=50 time=0
note_on channel=0 note=63 velocity=50 time=0
note_on channel=0 note=51 velocity=38 time=0
note_on channel=0 note=55 velocity=45 time=0
control_change channel=0 control=64 value=0 time=12
control_change channel=0 control=64 value=127 time=68
note_on channel=0 note=55 velocity=0 time=160
note_on channel=0 note=63 velocity=0 time=0
note_on channel=0 note=75 velocity=0 time=0
note_on channel=0 note=70 velocity=0 time=0
note_on channel=0 note=51 velocity=0 time=0
note_on channel=0 note=70 velocity=48 time=0
note_on channel=0 note=65 velocity=48 time=0
note_on channel=0 note=77 velocity=57 time=0
note_on channel=0 note=53 velocity=48 time=0
note_on channel=0 note=50 velocity=40 time=0
control_change channel=0 control=64 value=0 time=7
control_change channel=0 control=64 value=127 time=107
note_on channel=0 note=50 velocity=0 time=126
note_on channel=0 note=77 velocity=0 time=0
note_on channel=0 note=70 velocity=0 time=0
note_on channel=0 note=65 velocity=0 time=0
note_on channel=0 note=53 velocity=0 time=0
note_on channel=0 note=70 velocity=51 time=0
note_on channel=0 note=79 velocity=60 time=0
note_on channel=0 note=67 velocity=51 time=0
note_on channel=0 note=48 velocity=42 time=0
note_on channel=0 note=51 velocity=50 time=0
control_change channel=0 control=64 value=0 time=10
control_change channel=0 control=64 value=127 time=129
note_on channel=0 note=51 velocity=0 time=0
note_on channel=0 note=67 velocity=0 time=0
note_on channel=0 note=70 velocity=0 time=0
note_on channel=0 note=79 velocity=0 time=0
note_on channel=0 note=48 velocity=0 time=0
note_on channel=0 note=68 velocity=54 time=0
note_on channel=0 note=70 velocity=54 time=0
note_on channel=0 note=80 velocity=64 time=0
note_on channel=0 note=46 velocity=45 time=0
note_on channel=0 note=50 velocity=53 time=0
control_change channel=0 control=64 value=0 time=13
control_change channel=0 control=64 value=127 time=114
note_on channel=0 note=50 velocity=0 time=0
note_on channel=0 note=80 velocity=0 time=0
note_on channel=0 note=68 velocity=0 time=0
note_on channel=0 note=70 velocity=0 time=0
note_on channel=0 note=46 velocity=0 time=0
note_on channel=0 note=70 velocity=57 time=0
note_on channel=0 note=82 velocity=68 time=0
note_on channel=0 note=53 velocity=56 time=0
note_on channel=0 note=50 velocity=47 time=0
note_on channel=0 note=46 velocity=47 time=0
control_change channel=0 control=64 value=0 time=80
control_change channel=0 control=64 value=127 time=47
note_on channel=0 note=46 velocity=0 time=0
note_on channel=0 note=53 velocity=0 time=0
note_on channel=0 note=70 velocity=0 time=0
note_on channel=0 note=82 velocity=0 time=0
note_on channel=0 note=50 velocity=0 time=0
note_on channel=0 note=70 velocity=66 time=0
note_on channel=0 note=82 velocity=78 time=0
note_on channel=0 note=67 velocity=66 time=0
note_on channel=0 note=39 velocity=56 time=0
control_change channel=0 control=64 value=0 time=0
note_on channel=0 note=39 velocity=0 time=120
note_on channel=0 note=46 velocity=40 time=0
control_change channel=0 control=64 value=127 time=0
note_on channel=0 note=46 velocity=0 time=120
note_on channel=0 note=67 velocity=0 time=0
note_on channel=0 note=82 velocity=0 time=0
note_on channel=0 note=70 velocity=0 time=0
note_on channel=0 note=55 velocity=40 time=0
note_on channel=0 note=55 velocity=0 time=120
note_on channel=0 note=46 velocity=40 time=0
note_on channel=0 note=46 velocity=0 time=120
note_on channel=0 note=82 velocity=81 time=0
note_on channel=0 note=70 velocity=69 time=0
note_on channel=0 note=39 velocity=54 time=0
note_on channel=0 note=39 velocity=0 time=120
note_on channel=0 note=46 velocity=44 time=0
note_on channel=0 note=46 velocity=0 time=0
note_on channel=0 note=70 velocity=0 time=0
note_on channel=0 note=82 velocity=0 time=0
note_on channel=0 note=55 velocity=43 time=0
note_on channel=0 note=55 velocity=0 time=120
note_on channel=0 note=46 velocity=43 time=0
note_on channel=0 note=46 velocity=0 time=0
note_on channel=0 note=82 velocity=78 time=0
note_on channel=0 note=94 velocity=93 time=0
note_on channel=0 note=41 velocity=58 time=0
control_change channel=0 control=64 value=0 time=10
control_change channel=0 control=64 value=127 time=103
note_on channel=0 note=41 velocity=0 time=7
note_on channel=0 note=46 velocity=49 time=0
note_on channel=0 note=46 velocity=0 time=120
note_on channel=0 note=56 velocity=49 time=0
note_on channel=0 note=56 velocity=0 time=120
note_on channel=0 note=46 velocity=47 time=0
note_on channel=0 note=46 velocity=0 time=120
note_on channel=0 note=41 velocity=53 time=0
note_on channel=0 note=41 velocity=0 time=120
note_on channel=0 note=46 velocity=44 time=0
note_on channel=0 note=46 velocity=0 time=0
note_on channel=0 note=94 velocity=0 time=0
note_on channel=0 note=82 velocity=0 time=0
note_on channel=0 note=82 velocity=65 time=0
note_on channel=0 note=70 velocity=55 time=0
note_on channel=0 note=56 velocity=44 time=0
note_on channel=0 note=56 velocity=0 time=120
note_on channel=0 note=46 velocity=44 time=0
note_on channel=0 note=46 velocity=0 time=120
note_on channel=0 note=43 velocity=53 time=0
control_change channel=0 control=64 value=0 time=0
control_change channel=0 control=64 value=127 time=99
note_on channel=0 note=43 velocity=0 time=21
note_on channel=0 note=46 velocity=43 time=0
note_on channel=0 note=46 velocity=0 time=120
note_on channel=0 note=58 velocity=43 time=0
note_on channel=0 note=58 velocity=0 time=120
note_on channel=0 note=46 velocity=43 time=0
note_on channel=0 note=46 velocity=0 time=120
note_on channel=0 note=43 velocity=53 time=0
note_on channel=0 note=43 velocity=0 time=120
note_on channel=0 note=46 velocity=43 time=0
note_on channel=0 note=46 velocity=0 time=0
note_on channel=0 note=70 velocity=0 time=0
note_on channel=0 note=82 velocity=0 time=0
note_on channel=0 note=67 velocity=62 time=0
note_on channel=0 note=79 velocity=62 time=0
note_on channel=0 note=58 velocity=43 time=0
note_on channel=0 note=58 velocity=0 time=120
note_on channel=0 note=46 velocity=43 time=0
note_on channel=0 note=46 velocity=0 time=0
note_on channel=0 note=79 velocity=0 time=0
note_on channel=0 note=67 velocity=0 time=0
note_on channel=0 note=77 velocity=65 time=0
note_on channel=0 note=65 velocity=55 time=0
note_on channel=0 note=44 velocity=53 time=0
control_change channel=0 control=64 value=0 time=0
control_change channel=0 control=64 value=127 time=99
note_on channel=0 note=44 velocity=0 time=21
note_on channel=0 note=46 velocity=44 time=0
note_on channel=0 note=46 velocity=0 time=120
note_on channel=0 note=65 velocity=0 time=0
note_on channel=0 note=77 velocity=0 time=0
note_on channel=0 note=74 velocity=57 time=0
note_on channel=0 note=62 velocity=48 time=0
note_on channel=0 note=56 velocity=44 time=0
note_on channel=0 note=56 velocity=0 time=120
note_on channel=0 note=46 velocity=44 time=0
note_on channel=0 note=46 velocity=0 time=120
note_on channel=0 note=62 velocity=0 time=0
note_on channel=0 note=74 velocity=0 time=0
note_on channel=0 note=71 velocity=57 time=0
note_on channel=0 note=59 velocity=48 time=0
note_on channel=0 note=34 velocity=53 time=0
control_change channel=0 control=64 value=0 time=14
note_on channel=0 note=34 velocity=0 time=106
note_on channel=0 note=46 velocity=46 time=0
control_change channel=0 control=64 value=127 time=0
note_on channel=0 note=46 velocity=0 time=0
note_on channel=0 note=59 velocity=0 time=0
note_on channel=0 note=71 velocity=0 time=0
note_on channel=0 note=58 velocity=47 time=0
note_on channel=0 note=70 velocity=56 time=0
note_on channel=0 note=53 velocity=46 time=0
note_on channel=0 note=53 velocity=0 time=120
note_on channel=0 note=46 velocity=46 time=0
note_on channel=0 note=46 velocity=0 time=0
note_on channel=0 note=70 velocity=0 time=0
note_on channel=0 note=58 velocity=0 time=0
note_on channel=0 note=58 velocity=66 time=0
note_on channel=0 note=70 velocity=78 time=0
note_on channel=0 note=39 velocity=56 time=0
control_change channel=0 control=64 value=0 time=0
control_change channel=0 control=64 value=127 time=64
note_on channel=0 note=39 velocity=0 time=56
note_on channel=0 note=46 velocity=40 time=0
note_on channel=0 note=46 velocity=0 time=120
note_on channel=0 note=70 velocity=0 time=0
note_on channel=0 note=58 velocity=0 time=0
note_on channel=0 note=55 velocity=40 time=0
note_on channel=0 note=55 velocity=0 time=40
note_on channel=0 note=46 velocity=40 time=0
note_on channel=0 note=46 velocity=0 time=120
note_on channel=0 note=82 velocity=81 time=0
note_on channel=0 note=70 velocity=69 time=0
note_on channel=0 note=39 velocity=54 time=0
note_on channel=0 note=39 velocity=0 time=120
note_on channel=0 note=46 velocity=44 time=0
note_on channel=0 note=46 velocity=0 time=0
note_on channel=0 note=70 velocity=0 time=0
note_on channel=0 note=82 velocity=0 time=0
note_on channel=0 note=55 velocity=43 time=0
note_on channel=0 note=55 velocity=0 time=120
note_on channel=0 note=46 velocity=43 time=0
note_on channel=0 note=46 velocity=0 time=0
note_on channel=0 note=82 velocity=78 time=0
note_on channel=0 note=94 velocity=93 time=0
note_on channel=0 note=41 velocity=58 time=0
control_change channel=0 control=64 value=0 time=10
control_change channel=0 control=64 value=127 time=103
note_on channel=0 note=41 velocity=0 time=7
note_on channel=0 note=46 velocity=49 time=0
note_on channel=0 note=46 velocity=0 time=120
note_on channel=0 note=56 velocity=49 time=0
note_on channel=0 note=56 velocity=0 time=120
note_on channel=0 note=46 velocity=47 time=0
note_on channel=0 note=46 velocity=0 time=120
note_on channel=0 note=41 velocity=53 time=0
note_on channel=0 note=41 velocity=0 time=120
note_on channel=0 note=46 velocity=44 time=0
note_on channel=0 note=46 velocity=0 time=0
note_on channel=0 note=94 velocity=0 time=0
note_on channel=0 note=82 velocity=0 time=0
note_on channel=0 note=82 velocity=65 time=0
note_on channel=0 note=70 velocity=55 time=0
note_on channel=0 note=56 velocity=44 time=0
note_on channel=0 note=56 velocity=0 time=120
note_on channel=0 note=46 velocity=44 time=0
note_on channel=0 note=46 velocity=0 time=120
note_on channel=0 note=43 velocity=53 time=0
control_change channel=0 control=64 value=0 time=0
control_change channel=0 control=64 value=127 time=19
note_on channel=0 note=43 velocity=0 time=21
note_on channel=0 note=51 velocity=43 time=0
note_on channel=0 note=51 velocity=0 time=120
note_on channel=0 note=58 velocity=43 time=0
note_on channel=0 note=58 velocity=0 time=120
note_on channel=0 note=51 velocity=43 time=0
note_on channel=0 note=51 velocity=0 time=120
note_on channel=0 note=43 velocity=53 time=0
note_on channel=0 note=43 velocity=0 time=120
note_on channel=0 note=51 velocity=43 time=0
note_on channel=0 note=51 velocity=0 time=0
note_on channel=0 note=70 velocity=0 time=0
note_on channel=0 note=82 velocity=0 time=0
note_on channel=0 note=79 velocity=62 time=0
note_on channel=0 note=67 velocity=62 time=0
note_on channel=0 note=58 velocity=43 time=0
note_on channel=0 note=58 velocity=0 time=120
note_on channel=0 note=51 velocity=43 time=0
note_on channel=0 note=51 velocity=0 time=0
note_on channel=0 note=67 velocity=0 time=0
note_on channel=0 note=79 velocity=0 time=0
note_on channel=0 note=64 velocity=55 time=0
note_on channel=0 note=76 velocity=65 time=0
note_on channel=0 note=44 velocity=53 time=0
control_change channel=0 control=64 value=0 time=0
control_change channel=0 control=64 value=127 time=99
note_on channel=0 note=44 velocity=0 time=21
note_on channel=0 note=51 velocity=44 time=0
note_on channel=0 note=51 velocity=0 time=120
note_on channel=0 note=76 velocity=0 time=0
note_on channel=0 note=64 velocity=0 time=0
note_on channel=0 note=65 velocity=48 time=0
note_on channel=0 note=77 velocity=57 time=0
note_on channel=0 note=60 velocity=44 time=0
note_on channel=0 note=60 velocity=0 time=120
note_on channel=0 note=51 velocity=44 time=0
note_on channel=0 note=51 velocity=0 time=120
note_on channel=0 note=77 velocity=0 time=0
note_on channel=0 note=65 velocity=0 time=0
note_on channel=0 note=72 velocity=57 time=0
note_on channel=0 note=60 velocity=48 time=0
note_on channel=0 note=45 velocity=53 time=0
control_change channel=0 control=64 value=0 time=14
note_on channel=0 note=45 velocity=0 time=106
note_on channel=0 note=53 velocity=46 time=0
control_change channel=0 control=64 value=127 time=0
note_on channel=0 note=53 velocity=0 time=0
note_on channel=0 note=60 velocity=0 time=0
note_on channel=0 note=72 velocity=0 time=0
note_on channel=0 note=63 velocity=47 time=0
note_on channel=0 note=75 velocity=56 time=0
note_on channel=0 note=60 velocity=46 time=0
note_on channel=0 note=60 velocity=0 time=120
note_on channel=0 note=53 velocity=46 time=0
note_on channel=0 note=53 velocity=0 time=120
note_on channel=0 note=75 velocity=0 time=0
note_on channel=0 note=63 velocity=0 time=0
note_on channel=0 note=62 velocity=56 time=0
note_on channel=0 note=74 velocity=56 time=0
note_on channel=0 note=46 velocity=52 time=0
note_on channel=0 note=58 velocity=52 time=0
control_change channel=0 control=64 value=0 time=0
note_on channel=0 note=74 velocity=0 time=0
note_on channel=0 note=62 velocity=0 time=0
note_on channel=0 note=70 velocity=49 time=0
control_change channel=0 control=64 value=127 time=12
note_on channel=0 note=70 velocity=0 time=0
note_on channel=0 note=46 velocity=0 time=0
note_on channel=0 note=58 velocity=0 time=0
note_on channel=0 note=69 velocity=51 time=0
note_on channel=0 note=63 velocity=46 time=0
note_on channel=0 note=63 velocity=0 time=120
note_on channel=0 note=69 velocity=0 time=0
note_on channel=0 note=70 velocity=53 time=0
note_on channel=0 note=62 velocity=49 time=0
note_on channel=0 note=62 velocity=0 time=120
note_on channel=0 note=70 velocity=0 time=0
note_on channel=0 note=72 velocity=55 time=0
note_on channel=0 note=69 velocity=46 time=0
note_on channel=0 note=60 velocity=48 time=0
control_change channel=0 control=64 value=0 time=11
control_change channel=0 control=64 value=127 time=86
note_on channel=0 note=60 velocity=0 time=23
note_on channel=0 note=69 velocity=0 time=0
note_on channel=0 note=72 velocity=0 time=0
note_on channel=0 note=74 velocity=57 time=0
note_on channel=0 note=70 velocity=48 time=0
note_on channel=0 note=58 velocity=47 time=0
note_on channel=0 note=58 velocity=0 time=120
note_on channel=0 note=70 velocity=0 time=0
note_on channel=0 note=74 velocity=0 time=0
note_on channel=0 note=72 velocity=50 time=0
note_on channel=0 note=75 velocity=59 time=0
note_on channel=0 note=57 velocity=46 time=0
note_on channel=0 note=57 velocity=0 time=0
note_on channel=0 note=75 velocity=0 time=0
note_on channel=0 note=72 velocity=0 time=0
note_on channel=0 note=77 velocity=61 time=0
note_on channel=0 note=74 velocity=51 time=0
note_on channel=0 note=56 velocity=45 time=0
note_on channel=0 note=56 velocity=0 time=0
note_on channel=0 note=74 velocity=0 time=0
note_on channel=0 note=77 velocity=0 time=0
note_on channel=0 note=79 velocity=63 time=0
note_on channel=0 note=75 velocity=53 time=0
note_on channel=0 note=55 velocity=44 time=0
control_change channel=0 control=64 value=0 time=7
control_change channel=0 control=64 value=127 time=106
note_on channel=0 note=55 velocity=0 time=7
note_on channel=0 note=53 velocity=43 time=0
note_on channel=0 note=53 velocity=0 time=120
note_on channel=0 note=51 velocity=42 time=0
note_on channel=0 note=51 velocity=0 time=120
note_on channel=0 note=50 velocity=41 time=0
note_on channel=0 note=50 velocity=0 time=5
note_on channel=0 note=75 velocity=0 time=0
note_on channel=0 note=79 velocity=0 time=0
note_on channel=0 note=84 velocity=62 time=0
note_on channel=0 note=80 velocity=52 time=0
note_on channel=0 note=51 velocity=40 time=0
control_change channel=0 control=64 value=0 time=9
note_on channel=0 note=51 velocity=0 time=103
note_on channel=0 note=80 velocity=0 time=0
note_on channel=0 note=84 velocity=0 time=0
note_on channel=0 note=79 velocity=50 time=0
note_on channel=0 note=82 velocity=59 time=0
note_on channel=0 note=53 velocity=42 time=0
control_change channel=0 control=64 value=127 time=0
note_on channel=0 note=53 velocity=0 time=55
note_on channel=0 note=82 velocity=0 time=0
note_on channel=0 note=79 velocity=0 time=0
note_on channel=0 note=77 velocity=47 time=0
note_on channel=0 note=80 velocity=56 time=0
note_on channel=0 note=55 velocity=44 time=0
note_on channel=0 note=55 velocity=0 time=7
note_on channel=0 note=80 velocity=0 time=0
note_on channel=0 note=77 velocity=0 time=0
note_on channel=0 note=75 velocity=45 time=0
note_on channel=0 note=79 velocity=53 time=0
note_on channel=0 note=56 velocity=46 time=0
note_on channel=0 note=56 velocity=0 time=120
note_on channel=0 note=79 velocity=0 time=0
note_on channel=0 note=75 velocity=0 time=0
note_on channel=0 note=77 velocity=61 time=0
note_on channel=0 note=74 velocity=51 time=0
note_on channel=0 note=58 velocity=48 time=0
control_change channel=0 control=64 value=0 time=12
control_change channel=0 control=64 value=127 time=58
note_on channel=0 note=58 velocity=0 time=141
note_on channel=0 note=74 velocity=0 time=0
note_on channel=0 note=77 velocity=0 time=0
note_on channel=0 note=60 velocity=42 time=0
note_on channel=0 note=60 velocity=0 time=120
note_on channel=0 note=62 velocity=46 time=0
note_on channel=0 note=62 velocity=0 time=0
note_on channel=0 note=96 velocity=68 time=0
note_on channel=0 note=92 velocity=57 time=0
note_on channel=0 note=63 velocity=44 time=0
control_change channel=0 control=64 value=0 time=12
control_change channel=0 control=64 value=127 time=80
note_on channel=0 note=63 velocity=0 time=5
note_on channel=0 note=92 velocity=0 time=0
note_on channel=0 note=96 velocity=0 time=0
note_on channel=0 note=94 velocity=64 time=0
note_on channel=0 note=91 velocity=55 time=0
note_on channel=0 note=65 velocity=46 time=0
note_on channel=0 note=65 velocity=0 time=5
note_on channel=0 note=91 velocity=0 time=0
note_on channel=0 note=94 velocity=0 time=0
note_on channel=0 note=89 velocity=51 time=0
note_on channel=0 note=92 velocity=61 time=0
note_on channel=0 note=67 velocity=48 time=0
note_on channel=0 note=67 velocity=0 time=5
note_on channel=0 note=92 velocity=0 time=0
note_on channel=0 note=89 velocity=0 time=0
note_on channel=0 note=87 velocity=49 time=0
note_on channel=0 note=91 velocity=58 time=0
note_on channel=0 note=68 velocity=50 time=0
note_on channel=0 note=68 velocity=0 time=5
note_on channel=0 note=91 velocity=0 time=0
note_on channel=0 note=87 velocity=0 time=0
note_on channel=0 note=89 velocity=67 time=0
note_on channel=0 note=86 velocity=56 time=0
note_on channel=0 note=70 velocity=57 time=0
control_change channel=0 control=64 value=0 time=9
control_change channel=0 control=64 value=127 time=49
note_on channel=0 note=70 velocity=0 time=7
note_on channel=0 note=86 velocity=0 time=0
note_on channel=0 note=89 velocity=0 time=0
note_on channel=0 note=84 velocity=68 time=0
note_on channel=0 note=74 velocity=57 time=0
note_on channel=0 note=68 velocity=46 time=0
control_change channel=0 control=64 value=0 time=12
control_change channel=0 control=64 value=127 time=54
note_on channel=0 note=68 velocity=0 time=54
note_on channel=0 note=74 velocity=0 time=0
note_on channel=0 note=84 velocity=0 time=0
note_on channel=0 note=75 velocity=56 time=0
note_on channel=0 note=82 velocity=67 time=0
note_on channel=0 note=67 velocity=53 time=0
note_on channel=0 note=67 velocity=0 time=103
note_on channel=0 note=82 velocity=0 time=0
note_on channel=0 note=75 velocity=0 time=0
note_on channel=0 note=80 velocity=67 time=0
note_on channel=0 note=71 velocity=56 time=0
note_on channel=0 note=65 velocity=52 time=0
control_change channel=0 control=64 value=0 time=13
control_change channel=0 control=64 value=127 time=42
note_on channel=0 note=65 velocity=0 time=37
note_on channel=0 note=71 velocity=0 time=0
note_on channel=0 note=80 velocity=0 time=0
note_on channel=0 note=79 velocity=66 time=0
note_on channel=0 note=72 velocity=56 time=0
note_on channel=0 note=63 velocity=51 time=0
note_on channel=0 note=63 velocity=0 time=79
note_on channel=0 note=72 velocity=0 time=0
note_on channel=0 note=79 velocity=0 time=0
note_on channel=0 note=67 velocity=55 time=0
note_on channel=0 note=77 velocity=64 time=0
note_on channel=0 note=62 velocity=50 time=0
note_on channel=0 note=62 velocity=0 time=25
note_on channel=0 note=77 velocity=0 time=0
note_on channel=0 note=67 velocity=0 time=0
note_on channel=0 note=75 velocity=53 time=30
note_on channel=0 note=78 velocity=63 time=0
note_on channel=0 note=60 velocity=49 time=0
note_on channel=0 note=60 velocity=0 time=25
note_on channel=0 note=78 velocity=0 time=0
note_on channel=0 note=75 velocity=0 time=0
note_on channel=0 note=79 velocity=61 time=8
note_on channel=0 note=74 velocity=51 time=0
note_on channel=0 note=59 velocity=47 time=0
control_change channel=0 control=64 value=0 time=4
note_on channel=0 note=59 velocity=0 time=86
note_on channel=0 note=74 velocity=0 time=0
note_on channel=0 note=79 velocity=0 time=0
control_change channel=0 control=64 value=127 time=2
note_on channel=0 note=81 velocity=64 time=28
note_on channel=0 note=74 velocity=55 time=0
note_on channel=0 note=78 velocity=55 time=0
note_on channel=0 note=57 velocity=48 time=0
note_on channel=0 note=57 velocity=0 time=53
note_on channel=0 note=81 velocity=0 time=0
note_on channel=0 note=74 velocity=0 time=0
note_on channel=0 note=78 velocity=0 time=0
note_on channel=0 note=74 velocity=57 time=30
note_on channel=0 note=79 velocity=57 time=0
note_on channel=0 note=83 velocity=68 time=0
note_on channel=0 note=55 velocity=51 time=0
control_change channel=0 control=64 value=0 time=10
note_on channel=0 note=55 velocity=0 time=8
note_on channel=0 note=74 velocity=0 time=0
note_on channel=0 note=79 velocity=0 time=0
note_on channel=0 note=83 velocity=0 time=0
note_on channel=0 note=83 velocity=71 time=30
note_on channel=0 note=74 velocity=60 time=0
note_on channel=0 note=79 velocity=60 time=0
note_on channel=0 note=53 velocity=55 time=0
note_on channel=0 note=53 velocity=0 time=90
note_on channel=0 note=83 velocity=0 time=0
note_on channel=0 note=74 velocity=0 time=0
note_on channel=0 note=79 velocity=0 time=0
note_on channel=0 note=84 velocity=75 time=30
note_on channel=0 note=79 velocity=63 time=0
note_on channel=0 note=75 velocity=63 time=0
note_on channel=0 note=51 velocity=59 time=0
control_change channel=0 control=64 value=127 time=68
note_on channel=0 note=51 velocity=0 time=15
note_on channel=0 note=84 velocity=0 time=0
note_on channel=0 note=79 velocity=0 time=0
note_on channel=0 note=75 velocity=0 time=0
note_on channel=0 note=77 velocity=67 time=30
note_on channel=0 note=86 velocity=79 time=0
note_on channel=0 note=83 velocity=67 time=0
note_on channel=0 note=50 velocity=62 time=0
note_on channel=0 note=50 velocity=0 time=23
note_on channel=0 note=77 velocity=0 time=0
note_on channel=0 note=86 velocity=0 time=0
note_on channel=0 note=83 velocity=0 time=0
note_on channel=0 note=84 velocity=69 time=23
note_on channel=0 note=87 velocity=82 time=0
note_on channel=0 note=79 velocity=69 time=0
note_on channel=0 note=48 velocity=66 time=0
control_change channel=0 control=64 value=0 time=3
note_on channel=0 note=48 velocity=0 time=8
note_on channel=0 note=84 velocity=0 time=0
note_on channel=0 note=87 velocity=0 time=0
note_on channel=0 note=79 velocity=0 time=0
note_on channel=0 note=79 velocity=72 time=8
note_on channel=0 note=84 velocity=72 time=0
note_on channel=0 note=88 velocity=85 time=0
note_on channel=0 note=46 velocity=58 time=0
note_on channel=0 note=48 velocity=69 time=0
note_on channel=0 note=48 velocity=0 time=8
note_on channel=0 note=88 velocity=0 time=0
note_on channel=0 note=79 velocity=0 time=0
note_on channel=0 note=84 velocity=0 time=0
note_on channel=0 note=46 velocity=0 time=0
note_on channel=0 note=88 velocity=89 time=23
note_on channel=0 note=79 velocity=74 time=0
note_on channel=0 note=84 velocity=74 time=0
note_on channel=0 note=46 velocity=61 time=0
note_on channel=0 note=48 velocity=72 time=0
control_change channel=0 control=64 value=127 time=75
note_on channel=0 note=48 velocity=0 time=45
note_on channel=0 note=84 velocity=0 time=0
note_on channel=0 note=88 velocity=0 time=0
note_on channel=0 note=79 velocity=0 time=0
note_on channel=0 note=46 velocity=0 time=0
control_change channel=0 control=64 value=0 time=69
note_on channel=0 note=84 velocity=92 time=0
note_on channel=0 note=77 velocity=92 time=0
note_on channel=0 note=89 velocity=92 time=0
note_on channel=0 note=48 velocity=75 time=0
note_on channel=0 note=45 velocity=63 time=0
control_change channel=0 control=64 value=127 time=46
note_on channel=0 note=45 velocity=0 time=74
note_on channel=0 note=89 velocity=0 time=0
note_on channel=0 note=84 velocity=0 time=0
note_on channel=0 note=77 velocity=0 time=0
note_on channel=0 note=48 velocity=0 time=0
control_change channel=0 control=64 value=0 time=120
note_on channel=0 note=75 velocity=84 time=0
note_on channel=0 note=70 velocity=65 time=0
note_on channel=0 note=48 velocity=65 time=0
note_on channel=0 note=42 velocity=71 time=0
control_change channel=0 control=64 value=127 time=99
note_on channel=0 note=42 velocity=0 time=0
note_on channel=0 note=75 velocity=0 time=0
note_on channel=0 note=77 velocity=85 time=0
note_on channel=0 note=41 velocity=71 time=0
control_change channel=0 control=64 value=0 time=78
note_on channel=0 note=41 velocity=0 time=42
note_on channel=0 note=77 velocity=0 time=0
note_on channel=0 note=78 velocity=93 time=0
note_on channel=0 note=39 velocity=80 time=0
control_change channel=0 control=64 value=127 time=46
note_on channel=0 note=70 velocity=0 time=0
note_on channel=0 note=70 velocity=61 time=0
note_on channel=0 note=70 velocity=0 time=120
note_on channel=0 note=69 velocity=52 time=0
note_on channel=0 note=69 velocity=0 time=0
note_on channel=0 note=70 velocity=61 time=0
note_on channel=0 note=70 velocity=0 time=120
note_on channel=0 note=69 velocity=54 time=0
note_on channel=0 note=69 velocity=0 time=120
note_on channel=0 note=70 velocity=61 time=0
note_on channel=0 note=70 velocity=0 time=0
note_on channel=0 note=69 velocity=54 time=0
note_on channel=0 note=69 velocity=0 time=0
note_on channel=0 note=48 velocity=0 time=0
note_on channel=0 note=78 velocity=0 time=0
note_on channel=0 note=39 velocity=0 time=0
note_on channel=0 note=75 velocity=84 time=0
note_on channel=0 note=70 velocity=65 time=0
note_on channel=0 note=48 velocity=65 time=0
note_on channel=0 note=42 velocity=71 time=0
control_change channel=0 control=64 value=0 time=0
control_change channel=0 control=64 value=127 time=99
note_on channel=0 note=42 velocity=0 time=0
note_on channel=0 note=75 velocity=0 time=0
note_on channel=0 note=77 velocity=85 time=0
note_on channel=0 note=41 velocity=71 time=0
control_change channel=0 control=64 value=0 time=78
note_on channel=0 note=41 velocity=0 time=42
note_on channel=0 note=77 velocity=0 time=0
note_on channel=0 note=79 velocity=93 time=0
note_on channel=0 note=40 velocity=80 time=0
control_change channel=0 control=64 value=127 time=46
note_on channel=0 note=70 velocity=0 time=0
note_on channel=0 note=70 velocity=61 time=0
note_on channel=0 note=70 velocity=0 time=120
note_on channel=0 note=69 velocity=52 time=0
note_on channel=0 note=69 velocity=0 time=0
note_on channel=0 note=70 velocity=61 time=0
note_on channel=0 note=70 velocity=0 time=120
note_on channel=0 note=69 velocity=54 time=0
note_on channel=0 note=69 velocity=0 time=120
note_on channel=0 note=70 velocity=61 time=0
note_on channel=0 note=70 velocity=0 time=0
note_on channel=0 note=69 velocity=54 time=0
note_on channel=0 note=69 velocity=0 time=0
note_on channel=0 note=48 velocity=0 time=0
note_on channel=0 note=79 velocity=0 time=0
note_on channel=0 note=40 velocity=0 time=0
note_on channel=0 note=78 velocity=70 time=0
note_on channel=0 note=41 velocity=40 time=0
note_on channel=0 note=48 velocity=48 time=0
control_change channel=0 control=64 value=0 time=0
control_change channel=0 control=64 value=127 time=75
note_on channel=0 note=48 velocity=0 time=0
note_on channel=0 note=41 velocity=0 time=0
note_on channel=0 note=78 velocity=0 time=0
note_on channel=0 note=70 velocity=51 time=0
control_change channel=0 control=64 value=0 time=15
note_on channel=0 note=70 velocity=0 time=105
note_on channel=0 note=69 velocity=44 time=0
control_change channel=0 control=64 value=127 time=6
note_on channel=0 note=69 velocity=0 time=114
note_on channel=0 note=70 velocity=51 time=0
note_on channel=0 note=70 velocity=0 time=120
note_on channel=0 note=69 velocity=43 time=0
note_on channel=0 note=69 velocity=0 time=120
note_on channel=0 note=70 velocity=51 time=0
note_on channel=0 note=70 velocity=0 time=0
note_on channel=0 note=69 velocity=45 time=0
note_on channel=0 note=69 velocity=0 time=0
note_on channel=0 note=77 velocity=70 time=0
note_on channel=0 note=41 velocity=40 time=0
note_on channel=0 note=50 velocity=48 time=0
control_change channel=0 control=64 value=0 time=0
control_change channel=0 control=64 value=127 time=75
note_on channel=0 note=50 velocity=0 time=0
note_on channel=0 note=41 velocity=0 time=0
note_on channel=0 note=77 velocity=0 time=0
note_on channel=0 note=72 velocity=51 time=0
control_change channel=0 control=64 value=0 time=15
note_on channel=0 note=72 velocity=0 time=105
note_on channel=0 note=71 velocity=44 time=0
control_change channel=0 control=64 value=127 time=6
note_on channel=0 note=71 velocity=0 time=114
note_on channel=0 note=72 velocity=51 time=0
note_on channel=0 note=72 velocity=0 time=120
note_on channel=0 note=71 velocity=43 time=0
note_on channel=0 note=71 velocity=0 time=120
note_on channel=0 note=72 velocity=51 time=0
note_on channel=0 note=72 velocity=0 time=0
note_on channel=0 note=71 velocity=45 time=0
note_on channel=0 note=71 velocity=0 time=0
note_on channel=0 note=77 velocity=70 time=0
note_on channel=0 note=51 velocity=48 time=0
note_on channel=0 note=41 velocity=40 time=0
control_change channel=0 control=64 value=0 time=0
control_change channel=0 control=64 value=127 time=75
note_on channel=0 note=77 velocity=0 time=45
control_change channel=0 control=64 value=0 time=35
note_on channel=0 note=41 velocity=0 time=0
note_on channel=0 note=51 velocity=0 time=0
note_on channel=0 note=74 velocity=51 time=0
control_change channel=0 control=64 value=127 time=92
note_on channel=0 note=74 velocity=0 time=0
note_on channel=0 note=72 velocity=44 time=0
note_on channel=0 note=72 velocity=0 time=0
note_on channel=0 note=77 velocity=70 time=0
note_on channel=0 note=41 velocity=40 time=0
note_on channel=0 note=50 velocity=48 time=0
control_change channel=0 control=64 value=0 time=0
control_change channel=0 control=64 value=127 time=75
note_on channel=0 note=77 velocity=0 time=45
control_change channel=0 control=64 value=0 time=35
note_on channel=0 note=50 velocity=0 time=0
note_on channel=0 note=41 velocity=0 time=0
note_on channel=0 note=72 velocity=51 time=0
control_change channel=0 control=64 value=127 time=71
note_on channel=0 note=72 velocity=0 time=0
note_on channel=0 note=70 velocity=44 time=0
note_on channel=0 note=70 velocity=0 time=0
note_on channel=0 note=77 velocity=70 time=0
note_on channel=0 note=41 velocity=40 time=0
note_on channel=0 note=48 velocity=48 time=0
control_change channel=0 control=64 value=0 time=0
control_change channel=0 control=64 value=127 time=75
note_on channel=0 note=77 velocity=0 time=45
control_change channel=0 control=64 value=0 time=35
note_on channel=0 note=48 velocity=0 time=0
note_on channel=0 note=41 velocity=0 time=0
note_on channel=0 note=70 velocity=51 time=0
control_change channel=0 control=64 value=127 time=92
note_on channel=0 note=70 velocity=0 time=0
note_on channel=0 note=69 velocity=44 time=0
note_on channel=0 note=69 velocity=0 time=0
note_on channel=0 note=77 velocity=70 time=0
note_on channel=0 note=41 velocity=40 time=0
note_on channel=0 note=50 velocity=48 time=0
control_change channel=0 control=64 value=0 time=0
control_change channel=0 control=64 value=127 time=75
note_on channel=0 note=77 velocity=0 time=45
control_change channel=0 control=64 value=0 time=35
note_on channel=0 note=50 velocity=0 time=0
note_on channel=0 note=41 velocity=0 time=0
note_on channel=0 note=72 velocity=51 time=0
control_change channel=0 control=64 value=127 time=71
note_on channel=0 note=72 velocity=0 time=0
note_on channel=0 note=70 velocity=44 time=0
note_on channel=0 note=70 velocity=0 time=0
note_on channel=0 note=78 velocity=70 time=0
note_on channel=0 note=41 velocity=40 time=0
note_on channel=0 note=48 velocity=48 time=0
control_change channel=0 control=64 value=0 time=0
control_change channel=0 control=64 value=127 time=75
note_on channel=0 note=48 velocity=0 time=0
note_on channel=0 note=41 velocity=0 time=0
note_on channel=0 note=78 velocity=0 time=0
note_on channel=0 note=70 velocity=51 time=0
control_change channel=0 control=64 value=0 time=15
note_on channel=0 note=70 velocity=0 time=105
note_on channel=0 note=69 velocity=44 time=0
control_change channel=0 control=64 value=127 time=6
note_on channel=0 note=69 velocity=0 time=114
note_on channel=0 note=70 velocity=51 time=0
note_on channel=0 note=70 velocity=0 time=120
note_on channel=0 note=69 velocity=43 time=0
note_on channel=0 note=69 velocity=0 time=120
note_on channel=0 note=70 velocity=51 time=0
note_on channel=0 note=70 velocity=0 time=0
note_on channel=0 note=69 velocity=45 time=0
note_on channel=0 note=69 velocity=0 time=0
note_on channel=0 note=77 velocity=70 time=0
note_on channel=0 note=41 velocity=40 time=0
note_on channel=0 note=50 velocity=48 time=0
control_change channel=0 control=64 value=0 time=0
control_change channel=0 control=64 value=127 time=75
note_on channel=0 note=50 velocity=0 time=0
note_on channel=0 note=41 velocity=0 time=0
note_on channel=0 note=77 velocity=0 time=0
note_on channel=0 note=72 velocity=51 time=0
control_change channel=0 control=64 value=0 time=15
note_on channel=0 note=72 velocity=0 time=105
note_on channel=0 note=71 velocity=44 time=0
control_change channel=0 control=64 value=127 time=6
note_on channel=0 note=71 velocity=0 time=0
note_on channel=0 note=72 velocity=51 time=0
note_on channel=0 note=72 velocity=0 time=120
note_on channel=0 note=71 velocity=43 time=0
note_on channel=0 note=71 velocity=0 time=120
note_on channel=0 note=72 velocity=51 time=0
note_on channel=0 note=72 velocity=0 time=0
note_on channel=0 note=71 velocity=45 time=0
note_on channel=0 note=71 velocity=0 time=0
note_on channel=0 note=77 velocity=70 time=0
note_on channel=0 note=41 velocity=40 time=0
note_on channel=0 note=51 velocity=48 time=0
control_change channel=0 control=64 value=0 time=0
control_change channel=0 control=64 value=127 time=75
note_on channel=0 note=77 velocity=0 time=45
control_change channel=0 control=64 value=0 time=35
note_on channel=0 note=51 velocity=0 time=0
note_on channel=0 note=41 velocity=0 time=0
note_on channel=0 note=74 velocity=51 time=0
control_change channel=0 control=64 value=127 time=92
note_on channel=0 note=74 velocity=0 time=0
note_on channel=0 note=72 velocity=44 time=0
note_on channel=0 note=72 velocity=0 time=0
note_on channel=0 note=77 velocity=70 time=0
note_on channel=0 note=41 velocity=40 time=0
note_on channel=0 note=50 velocity=48 time=0
control_change channel=0 control=64 value=0 time=0
control_change channel=0 control=64 value=127 time=75
note_on channel=0 note=77 velocity=0 time=45
control_change channel=0 control=64 value=0 time=35
note_on channel=0 note=50 velocity=0 time=0
note_on channel=0 note=41 velocity=0 time=0
note_on channel=0 note=72 velocity=51 time=0
control_change channel=0 control=64 value=127 time=71
note_on channel=0 note=72 velocity=0 time=0
note_on channel=0 note=71 velocity=44 time=0
note_on channel=0 note=71 velocity=0 time=0
note_on channel=0 note=77 velocity=70 time=0
note_on channel=0 note=51 velocity=48 time=0
note_on channel=0 note=41 velocity=40 time=0
control_change channel=0 control=64 value=0 time=0
control_change channel=0 control=64 value=127 time=75
note_on channel=0 note=77 velocity=0 time=45
control_change channel=0 control=64 value=0 time=35
note_on channel=0 note=41 velocity=0 time=0
note_on channel=0 note=51 velocity=0 time=0
note_on channel=0 note=74 velocity=51 time=0
control_change channel=0 control=64 value=127 time=92
note_on channel=0 note=74 velocity=0 time=0
note_on channel=0 note=72 velocity=44 time=0
note_on channel=0 note=72 velocity=0 time=0
note_on channel=0 note=77 velocity=64 time=0
control_change channel=0 control=64 value=0 time=0
note_on channel=0 note=53 velocity=48 time=7
control_change channel=0 control=64 value=127 time=68
control_change channel=0 control=64 value=0 time=80
note_on channel=0 note=77 velocity=0 time=0
note_on channel=0 note=72 velocity=59 time=0
note_on channel=0 note=75 velocity=70 time=0
note_on channel=0 note=55 velocity=38 time=0
note_on channel=0 note=53 velocity=0 time=7
control_change channel=0 control=64 value=127 time=64
note_on channel=0 note=55 velocity=0 time=0
note_on channel=0 note=57 velocity=40 time=0
note_on channel=0 note=57 velocity=0 time=0
note_on channel=0 note=65 velocity=45 time=0
note_on channel=0 note=58 velocity=42 time=0
control_change channel=0 control=64 value=0 time=0
note_on channel=0 note=58 velocity=0 time=0
note_on channel=0 note=60 velocity=44 time=0
note_on channel=0 note=60 velocity=0 time=120
note_on channel=0 note=75 velocity=0 time=0
note_on channel=0 note=72 velocity=0 time=0
note_on channel=0 note=74 velocity=65 time=0
note_on channel=0 note=70 velocity=55 time=0
note_on channel=0 note=62 velocity=46 time=0
note_on channel=0 note=62 velocity=0 time=0
note_on channel=0 note=63 velocity=48 time=0
note_on channel=0 note=63 velocity=0 time=0
note_on channel=0 note=70 velocity=0 time=0
note_on channel=0 note=74 velocity=0 time=0
note_on channel=0 note=65 velocity=0 time=0
note_on channel=0 note=72 velocity=65 time=0
note_on channel=0 note=69 velocity=55 time=0
note_on channel=0 note=65 velocity=50 time=0
note_on channel=0 note=65 velocity=0 time=0
note_on channel=0 note=69 velocity=0 time=0
note_on channel=0 note=72 velocity=0 time=0
note_on channel=0 note=84 velocity=59 time=0
note_on channel=0 note=87 velocity=70 time=0
note_on channel=0 note=67 velocity=38 time=0
control_change channel=0 control=64 value=127 time=71
note_on channel=0 note=67 velocity=0 time=0
note_on channel=0 note=69 velocity=40 time=0
note_on channel=0 note=69 velocity=0 time=0
note_on channel=0 note=77 velocity=45 time=0
note_on channel=0 note=70 velocity=42 time=0
control_change channel=0 control=64 value=0 time=0
note_on channel=0 note=70 velocity=0 time=0
note_on channel=0 note=72 velocity=44 time=0
note_on channel=0 note=72 velocity=0 time=120
note_on channel=0 note=87 velocity=0 time=0
note_on channel=0 note=84 velocity=0 time=0
note_on channel=0 note=86 velocity=65 time=0
note_on channel=0 note=82 velocity=55 time=0
note_on channel=0 note=74 velocity=46 time=0
note_on channel=0 note=74 velocity=0 time=0
note_on channel=0 note=75 velocity=48 time=0
note_on channel=0 note=75 velocity=0 time=0
note_on channel=0 note=82 velocity=0 time=0
note_on channel=0 note=86 velocity=0 time=0
note_on channel=0 note=77 velocity=0 time=0
note_on channel=0 note=81 velocity=55 time=0
note_on channel=0 note=84 velocity=65 time=0
note_on channel=0 note=77 velocity=50 time=0
note_on channel=0 note=77 velocity=0 time=0
note_on channel=0 note=84 velocity=0 time=0
note_on channel=0 note=81 velocity=0 time=0
note_on channel=0 note=81 velocity=64 time=0
note_on channel=0 note=84 velocity=64 time=0
note_on channel=0 note=91 velocity=77 time=0
note_on channel=0 note=75 velocity=47 time=0
control_change channel=0 control=64 value=127 time=71
note_on channel=0 note=75 velocity=0 time=0
note_on channel=0 note=81 velocity=0 time=0
note_on channel=0 note=84 velocity=0 time=0
note_on channel=0 note=82 velocity=65 time=0
note_on channel=0 note=77 velocity=65 time=0
note_on channel=0 note=74 velocity=56 time=0
control_change channel=0 control=64 value=0 time=0
note_on channel=0 note=74 velocity=0 time=120
note_on channel=0 note=91 velocity=0 time=0
note_on channel=0 note=82 velocity=0 time=0
note_on channel=0 note=77 velocity=0 time=0
note_on channel=0 note=82 velocity=63 time=0
note_on channel=0 note=77 velocity=63 time=0
note_on channel=0 note=89 velocity=75 time=0
note_on channel=0 note=73 velocity=46 time=0
note_on channel=0 note=73 velocity=0 time=0
note_on channel=0 note=82 velocity=0 time=0
note_on channel=0 note=77 velocity=0 time=0
note_on channel=0 note=89 velocity=0 time=0
note_on channel=0 note=82 velocity=69 time=0
note_on channel=0 note=79 velocity=69 time=0
note_on channel=0 note=72 velocity=55 time=0
note_on channel=0 note=72 velocity=0 time=240
note_on channel=0 note=79 velocity=0 time=0
note_on channel=0 note=82 velocity=0 time=0
note_on channel=0 note=87 velocity=79 time=0
note_on channel=0 note=81 velocity=67 time=0
note_on channel=0 note=84 velocity=67 time=0
note_on channel=0 note=65 velocity=47 time=0
note_on channel=0 note=65 velocity=0 time=0
note_on channel=0 note=87 velocity=0 time=0
note_on channel=0 note=81 velocity=0 time=0
note_on channel=0 note=84 velocity=0 time=0
note_on channel=0 note=86 velocity=88 time=0
note_on channel=0 note=58 velocity=39 time=0
control_change channel=0 control=64 value=127 time=0
note_on channel=0 note=77 velocity=49 time=120
note_on channel=0 note=77 velocity=0 time=0
note_on channel=0 note=79 velocity=55 time=0
note_on channel=0 note=64 velocity=39 time=0
note_on channel=0 note=61 velocity=39 time=0
note_on channel=0 note=79 velocity=0 time=120
note_on channel=0 note=77 velocity=50 time=0
note_on channel=0 note=77 velocity=0 time=120
note_on channel=0 note=79 velocity=55 time=0
note_on channel=0 note=79 velocity=0 time=120
note_on channel=0 note=77 velocity=47 time=0
note_on channel=0 note=77 velocity=0 time=0
note_on channel=0 note=61 velocity=0 time=0
note_on channel=0 note=64 velocity=0 time=0
note_on channel=0 note=79 velocity=55 time=0
note_on channel=0 note=62 velocity=39 time=0
note_on channel=0 note=65 velocity=39 time=0
control_change channel=0 control=64 value=0 time=12
control_change channel=0 control=64 value=127 time=94
note_on channel=0 note=79 velocity=0 time=14
note_on channel=0 note=77 velocity=48 time=0
note_on channel=0 note=77 velocity=0 time=0
note_on channel=0 note=65 velocity=0 time=0
note_on channel=0 note=86 velocity=0 time=0
note_on channel=0 note=58 velocity=0 time=0
note_on channel=0 note=62 velocity=0 time=0
note_on channel=0 note=84 velocity=80 time=0
note_on channel=0 note=58 velocity=39 time=0
control_change channel=0 control=64 value=0 time=0
control_change channel=0 control=64 value=127 time=106
note_on channel=0 note=75 velocity=46 time=14
note_on channel=0 note=75 velocity=0 time=0
note_on channel=0 note=77 velocity=54 time=0
note_on channel=0 note=66 velocity=39 time=0
note_on channel=0 note=69 velocity=39 time=0
note_on channel=0 note=77 velocity=0 time=120
note_on channel=0 note=75 velocity=50 time=0
note_on channel=0 note=75 velocity=0 time=120
note_on channel=0 note=77 velocity=53 time=0
note_on channel=0 note=77 velocity=0 time=120
note_on channel=0 note=75 velocity=47 time=0
note_on channel=0 note=75 velocity=0 time=0
note_on channel=0 note=69 velocity=0 time=0
note_on channel=0 note=66 velocity=0 time=0
note_on channel=0 note=77 velocity=53 time=0
note_on channel=0 note=65 velocity=39 time=0
control_change channel=0 control=64 value=0 time=11
control_change channel=0 control=64 value=127 time=95
note_on channel=0 note=77 velocity=0 time=14
note_on channel=0 note=75 velocity=48 time=0
note_on channel=0 note=75 velocity=0 time=0
note_on channel=0 note=65 velocity=0 time=0
note_on channel=0 note=58 velocity=0 time=0
note_on channel=0 note=84 velocity=0 time=0
note_on channel=0 note=74 velocity=53 time=0
note_on channel=0 note=82 velocity=70 time=0
note_on channel=0 note=58 velocity=39 time=0
control_change channel=0 control=64 value=0 time=40
note_on channel=0 note=74 velocity=0 time=80
note_on channel=0 note=70 velocity=48 time=0
control_change channel=0 control=64 value=127 time=7
note_on channel=0 note=70 velocity=0 time=113
note_on channel=0 note=72 velocity=53 time=0
note_on channel=0 note=62 velocity=33 time=0
note_on channel=0 note=65 velocity=39 time=0
note_on channel=0 note=72 velocity=0 time=120
note_on channel=0 note=70 velocity=48 time=0
note_on channel=0 note=70 velocity=0 time=0
note_on channel=0 note=65 velocity=0 time=0
note_on channel=0 note=62 velocity=0 time=0
note_on channel=0 note=82 velocity=0 time=0
note_on channel=0 note=79 velocity=68 time=0
note_on channel=0 note=67 velocity=39 time=0
note_on channel=0 note=63 velocity=33 time=0
control_change channel=0 control=64 value=0 time=12
control_change channel=0 control=64 value=127 time=101
note_on channel=0 note=70 velocity=48 time=7
note_on channel=0 note=70 velocity=0 time=120
note_on channel=0 note=67 velocity=0 time=0
note_on channel=0 note=63 velocity=0 time=0
note_on channel=0 note=79 velocity=0 time=0
note_on channel=0 note=77 velocity=60 time=0
note_on channel=0 note=65 velocity=39 time=0
note_on channel=0 note=62 velocity=30 time=0
control_change channel=0 control=64 value=0 time=12
control_change channel=0 control=64 value=127 time=73
note_on channel=0 note=70 velocity=48 time=0
note_on channel=0 note=70 velocity=0 time=0
note_on channel=0 note=65 velocity=0 time=0
note_on channel=0 note=58 velocity=0 time=0
note_on channel=0 note=77 velocity=0 time=0
note_on channel=0 note=62 velocity=0 time=0
note_on channel=0 note=70 velocity=53 time=0
note_on channel=0 note=77 velocity=68 time=0
note_on channel=0 note=62 velocity=39 time=0
note_on channel=0 note=53 velocity=39 time=0
control_change channel=0 control=64 value=0 time=5
control_change channel=0 control=64 value=127 time=64
note_on channel=0 note=70 velocity=0 time=51
note_on channel=0 note=65 velocity=48 time=0
note_on channel=0 note=65 velocity=0 time=0
note_on channel=0 note=77 velocity=0 time=0
note_on channel=0 note=62 velocity=0 time=0
note_on channel=0 note=69 velocity=53 time=0
note_on channel=0 note=75 velocity=58 time=0
note_on channel=0 note=63 velocity=39 time=0
note_on channel=0 note=60 velocity=33 time=0
control_change channel=0 control=64 value=0 time=11
control_change channel=0 control=64 value=127 time=69
note_on channel=0 note=69 velocity=0 time=40
note_on channel=0 note=65 velocity=48 time=0
note_on channel=0 note=65 velocity=0 time=0
note_on channel=0 note=60 velocity=0 time=0
note_on channel=0 note=63 velocity=0 time=0
note_on channel=0 note=75 velocity=0 time=0
note_on channel=0 note=74 velocity=66 time=0
note_on channel=0 note=70 velocity=53 time=0
note_on channel=0 note=58 velocity=33 time=0
note_on channel=0 note=62 velocity=39 time=0
control_change channel=0 control=64 value=0 time=11
control_change channel=0 control=64 value=127 time=52
note_on channel=0 note=70 velocity=0 time=57
note_on channel=0 note=65 velocity=48 time=0
note_on channel=0 note=65 velocity=0 time=0
note_on channel=0 note=62 velocity=0 time=0
note_on channel=0 note=58 velocity=0 time=0
note_on channel=0 note=74 velocity=0 time=0
note_on channel=0 note=72 velocity=57 time=0
note_on channel=0 note=60 velocity=39 time=0
note_on channel=0 note=57 velocity=30 time=0
control_change channel=0 control=64 value=0 time=11
control_change channel=0 control=64 value=127 time=58
note_on channel=0 note=65 velocity=48 time=51
note_on channel=0 note=65 velocity=0 time=0
note_on channel=0 note=60 velocity=0 time=0
note_on channel=0 note=53 velocity=0 time=0
note_on channel=0 note=72 velocity=0 time=0
note_on channel=0 note=57 velocity=0 time=0
note_on channel=0 note=74 velocity=79 time=0
note_on channel=0 note=46 velocity=35 time=0
control_change channel=0 control=64 value=0 time=8
control_change channel=0 control=64 value=127 time=84
note_on channel=0 note=65 velocity=44 time=28
note_on channel=0 note=65 velocity=0 time=0
note_on channel=0 note=67 velocity=49 time=0
note_on channel=0 note=49 velocity=35 time=0
note_on channel=0 note=52 velocity=35 time=0
note_on channel=0 note=67 velocity=0 time=120
note_on channel=0 note=65 velocity=45 time=0
note_on channel=0 note=65 velocity=0 time=120
note_on channel=0 note=67 velocity=49 time=0
note_on channel=0 note=67 velocity=0 time=120
note_on channel=0 note=65 velocity=42 time=0
note_on channel=0 note=65 velocity=0 time=0
note_on channel=0 note=52 velocity=0 time=0
note_on channel=0 note=49 velocity=0 time=0
note_on channel=0 note=67 velocity=49 time=0
note_on channel=0 note=50 velocity=35 time=0
note_on channel=0 note=53 velocity=35 time=0
control_change channel=0 control=64 value=0 time=12
control_change channel=0 control=64 value=127 time=94
note_on channel=0 note=67 velocity=0 time=14
note_on channel=0 note=65 velocity=43 time=0
note_on channel=0 note=65 velocity=0 time=0
note_on channel=0 note=53 velocity=0 time=0
note_on channel=0 note=74 velocity=0 time=0
note_on channel=0 note=46 velocity=0 time=0
note_on channel=0 note=50 velocity=0 time=0
note_on channel=0 note=72 velocity=72 time=0
note_on channel=0 note=46 velocity=35 time=0
control_change channel=0 control=64 value=0 time=0
control_change channel=0 control=64 value=127 time=106
note_on channel=0 note=63 velocity=41 time=14
note_on channel=0 note=63 velocity=0 time=0
note_on channel=0 note=65 velocity=48 time=0
note_on channel=0 note=54 velocity=35 time=0
note_on channel=0 note=57 velocity=35 time=0
note_on channel=0 note=65 velocity=0 time=120
note_on channel=0 note=63 velocity=45 time=0
note_on channel=0 note=63 velocity=0 time=120
note_on channel=0 note=65 velocity=47 time=0
note_on channel=0 note=65 velocity=0 time=120
note_on channel=0 note=63 velocity=42 time=0
note_on channel=0 note=63 velocity=0 time=0
note_on channel=0 note=57 velocity=0 time=0
note_on channel=0 note=54 velocity=0 time=0
note_on channel=0 note=65 velocity=47 time=0
note_on channel=0 note=53 velocity=35 time=0
control_change channel=0 control=64 value=0 time=11
control_change channel=0 control=64 value=127 time=95
note_on channel=0 note=65 velocity=0 time=14
note_on channel=0 note=63 velocity=43 time=0
note_on channel=0 note=63 velocity=0 time=0
note_on channel=0 note=53 velocity=0 time=0
note_on channel=0 note=46 velocity=0 time=0
note_on channel=0 note=72 velocity=0 time=0
note_on channel=0 note=70 velocity=63 time=0
note_on channel=0 note=62 velocity=47 time=0
note_on channel=0 note=46 velocity=35 time=0
control_change channel=0 control=64 value=0 time=40
note_on channel=0 note=62 velocity=0 time=80
note_on channel=0 note=58 velocity=43 time=0
control_change channel=0 control=64 value=127 time=7
note_on channel=0 note=58 velocity=0 time=113
note_on channel=0 note=60 velocity=47 time=0
note_on channel=0 note=53 velocity=35 time=0
note_on channel=0 note=50 velocity=29 time=0
note_on channel=0 note=60 velocity=0 time=120
note_on channel=0 note=58 velocity=43 time=0
note_on channel=0 note=58 velocity=0 time=0
note_on channel=0 note=50 velocity=0 time=0
note_on channel=0 note=53 velocity=0 time=0
note_on channel=0 note=70 velocity=0 time=0
note_on channel=0 note=67 velocity=61 time=0
note_on channel=0 note=55 velocity=35 time=0
note_on channel=0 note=51 velocity=29 time=0
control_change channel=0 control=64 value=0 time=12
control_change channel=0 control=64 value=127 time=101
note_on channel=0 note=58 velocity=43 time=7
note_on channel=0 note=58 velocity=0 time=120
note_on channel=0 note=55 velocity=0 time=0
note_on channel=0 note=51 velocity=0 time=0
note_on channel=0 note=67 velocity=0 time=0
note_on channel=0 note=65 velocity=54 time=0
note_on channel=0 note=50 velocity=27 time=0
note_on channel=0 note=53 velocity=35 time=0
control_change channel=0 control=64 value=0 time=12
control_change channel=0 control=64 value=127 time=73
note_on channel=0 note=58 velocity=43 time=0
note_on channel=0 note=58 velocity=0 time=0
note_on channel=0 note=50 velocity=0 time=0
note_on channel=0 note=46 velocity=0 time=0
note_on channel=0 note=65 velocity=0 time=0
note_on channel=0 note=53 velocity=0 time=0
note_on channel=0 note=58 velocity=47 time=0
note_on channel=0 note=65 velocity=61 time=0
note_on channel=0 note=50 velocity=35 time=0
note_on channel=0 note=41 velocity=35 time=0
control_change channel=0 control=64 value=0 time=5
control_change channel=0 control=64 value=127 time=64
note_on channel=0 note=58 velocity=0 time=51
note_on channel=0 note=53 velocity=43 time=0
note_on channel=0 note=53 velocity=0 time=0
note_on channel=0 note=65 velocity=0 time=0
note_on channel=0 note=50 velocity=0 time=0
note_on channel=0 note=57 velocity=47 time=0
note_on channel=0 note=63 velocity=52 time=0
note_on channel=0 note=51 velocity=35 time=0
note_on channel=0 note=48 velocity=29 time=0
control_change channel=0 control=64 value=0 time=11
control_change channel=0 control=64 value=127 time=69
note_on channel=0 note=57 velocity=0 time=40
note_on channel=0 note=53 velocity=43 time=0
note_on channel=0 note=53 velocity=0 time=0
note_on channel=0 note=48 velocity=0 time=0
note_on channel=0 note=51 velocity=0 time=0
note_on channel=0 note=63 velocity=0 time=0
note_on channel=0 note=62 velocity=59 time=0
note_on channel=0 note=58 velocity=47 time=0
note_on channel=0 note=46 velocity=29 time=0
note_on channel=0 note=50 velocity=35 time=0
control_change channel=0 control=64 value=0 time=11
control_change channel=0 control=64 value=127 time=52
note_on channel=0 note=58 velocity=0 time=57
note_on channel=0 note=53 velocity=43 time=0
note_on channel=0 note=53 velocity=0 time=0
note_on channel=0 note=50 velocity=0 time=0
note_on channel=0 note=46 velocity=0 time=0
note_on channel=0 note=62 velocity=0 time=0
note_on channel=0 note=60 velocity=51 time=0
note_on channel=0 note=45 velocity=27 time=0
note_on channel=0 note=48 velocity=35 time=0
control_change channel=0 control=64 value=0 time=11
control_change channel=0 control=64 value=127 time=58
note_on channel=0 note=53 velocity=43 time=51
note_on channel=0 note=53 velocity=0 time=120
note_on channel=0 note=45 velocity=0 time=0
note_on channel=0 note=41 velocity=0 time=0
note_on channel=0 note=60 velocity=0 time=0
note_on channel=0 note=48 velocity=0 time=0
note_on channel=0 note=58 velocity=57 time=0
note_on channel=0 note=34 velocity=43 time=0
note_on channel=0 note=46 velocity=43 time=0
control_change channel=0 control=64 value=0 time=7
control_change channel=0 control=64 value=127 time=96
note_on channel=0 note=54 velocity=46 time=0
note_on channel=0 note=50 velocity=55 time=120
note_on channel=0 note=46 velocity=0 time=120
note_on channel=0 note=34 velocity=0 time=0
note_on channel=0 note=42 velocity=39 time=0
note_on channel=0 note=42 velocity=0 time=120
note_on channel=0 note=50 velocity=0 time=0
note_on channel=0 note=54 velocity=0 time=0
note_on channel=0 note=41 velocity=45 time=0
control_change channel=0 control=64 value=0 time=8
control_change channel=0 control=64 value=127 time=78
note_on channel=0 note=58 velocity=0 time=34
note_on channel=0 note=53 velocity=47 time=10
note_on channel=0 note=41 velocity=0 time=110
note_on channel=0 note=50 velocity=47 time=0
note_on channel=0 note=34 velocity=38 time=0
note_on channel=0 note=53 velocity=0 time=10
note_on channel=0 note=50 velocity=0 time=0
note_on channel=0 note=58 velocity=47 time=0
note_on channel=0 note=34 velocity=0 time=0
note_on channel=0 note=29 velocity=55 time=0
note_on channel=0 note=53 velocity=47 time=0
control_change channel=0 control=64 value=0 time=0
note_on channel=0 note=58 velocity=0 time=120
note_on channel=0 note=58 velocity=47 time=0
note_on channel=0 note=58 velocity=0 time=120
note_on channel=0 note=29 velocity=0 time=0
note_on channel=0 note=57 velocity=51 time=0
note_on channel=0 note=51 velocity=44 time=0
note_on channel=0 note=51 velocity=0 time=120
note_on channel=0 note=57 velocity=0 time=0
note_on channel=0 note=58 velocity=49 time=0
note_on channel=0 note=50 velocity=36 time=0
note_on channel=0 note=50 velocity=0 time=0
note_on channel=0 note=58 velocity=0 time=0
note_on channel=0 note=53 velocity=0 time=0
note_on channel=0 note=60 velocity=52 time=0
note_on channel=0 note=48 velocity=43 time=0
control_change channel=0 control=64 value=127 time=69
note_on channel=0 note=48 velocity=0 time=51
note_on channel=0 note=60 velocity=0 time=0
note_on channel=0 note=62 velocity=44 time=0
note_on channel=0 note=46 velocity=39 time=0
note_on channel=0 note=46 velocity=0 time=120
note_on channel=0 note=62 velocity=0 time=0
note_on channel=0 note=63 velocity=51 time=0
note_on channel=0 note=41 velocity=39 time=0
note_on channel=0 note=45 velocity=39 time=0
control_change channel=0 control=64 value=0 time=12
control_change channel=0 control=64 value=127 time=63
note_on channel=0 note=45 velocity=0 time=0
note_on channel=0 note=41 velocity=0 time=0
note_on channel=0 note=63 velocity=0 time=0
note_on channel=0 note=60 velocity=47 time=0
note_on channel=0 note=53 velocity=39 time=0
note_on channel=0 note=53 velocity=0 time=0
note_on channel=0 note=60 velocity=0 time=0
note_on channel=0 note=70 velocity=57 time=0
note_on channel=0 note=46 velocity=43 time=0
control_change channel=0 control=64 value=0 time=7
control_change channel=0 control=64 value=127 time=96
note_on channel=0 note=66 velocity=46 time=0
note_on channel=0 note=62 velocity=55 time=120
note_on channel=0 note=46 velocity=0 time=120
note_on channel=0 note=54 velocity=39 time=0
note_on channel=0 note=54 velocity=0 time=120
note_on channel=0 note=62 velocity=0 time=0
note_on channel=0 note=66 velocity=0 time=0
note_on channel=0 note=53 velocity=45 time=0
control_change channel=0 control=64 value=0 time=8
control_change channel=0 control=64 value=127 time=78
note_on channel=0 note=70 velocity=0 time=34
note_on channel=0 note=65 velocity=47 time=10
note_on channel=0 note=53 velocity=0 time=110
note_on channel=0 note=62 velocity=47 time=0
note_on channel=0 note=46 velocity=38 time=0
note_on channel=0 note=65 velocity=0 time=10
note_on channel=0 note=62 velocity=0 time=0
note_on channel=0 note=70 velocity=47 time=0
note_on channel=0 note=46 velocity=0 time=0
note_on channel=0 note=65 velocity=47 time=0
note_on channel=0 note=41 velocity=55 time=0
control_change channel=0 control=64 value=0 time=0
note_on channel=0 note=70 velocity=0 time=120
note_on channel=0 note=70 velocity=47 time=0
note_on channel=0 note=70 velocity=0 time=120
note_on channel=0 note=41 velocity=0 time=0
note_on channel=0 note=69 velocity=51 time=0
note_on channel=0 note=63 velocity=44 time=0
note_on channel=0 note=63 velocity=0 time=120
note_on channel=0 note=69 velocity=0 time=0
note_on channel=0 note=70 velocity=49 time=0
note_on channel=0 note=62 velocity=36 time=0
note_on channel=0 note=62 velocity=0 time=0
note_on channel=0 note=70 velocity=0 time=0
note_on channel=0 note=65 velocity=0 time=0
note_on channel=0 note=72 velocity=52 time=0
note_on channel=0 note=60 velocity=43 time=0
control_change channel=0 control=64 value=127 time=69
note_on channel=0 note=60 velocity=0 time=51
note_on channel=0 note=72 velocity=0 time=0
note_on channel=0 note=74 velocity=44 time=0
note_on channel=0 note=58 velocity=39 time=0
note_on channel=0 note=58 velocity=0 time=120
note_on channel=0 note=74 velocity=0 time=0
note_on channel=0 note=75 velocity=51 time=0
note_on channel=0 note=53 velocity=39 time=0
note_on channel=0 note=57 velocity=39 time=0
control_change channel=0 control=64 value=0 time=12
control_change channel=0 control=64 value=127 time=63
note_on channel=0 note=57 velocity=0 time=0
note_on channel=0 note=53 velocity=0 time=0
note_on channel=0 note=75 velocity=0 time=0
note_on channel=0 note=72 velocity=47 time=0
note_on channel=0 note=60 velocity=39 time=0
note_on channel=0 note=60 velocity=0 time=0
note_on channel=0 note=72 velocity=0 time=0
note_on channel=0 note=74 velocity=51 time=0
note_on channel=0 note=62 velocity=39 time=0
note_on channel=0 note=58 velocity=39 time=0
control_change channel=0 control=64 value=0 time=0
control_change channel=0 control=64 value=127 time=78
note_on channel=0 note=74 velocity=0 time=0
note_on channel=0 note=72 velocity=42 time=0
note_on channel=0 note=72 velocity=0 time=120
note_on channel=0 note=70 velocity=49 time=0
note_on channel=0 note=58 velocity=0 time=120
note_on channel=0 note=62 velocity=0 time=0
note_on channel=0 note=60 velocity=33 time=0
note_on channel=0 note=60 velocity=0 time=0
note_on channel=0 note=58 velocity=39 time=0
control_change channel=0 control=64 value=0 time=17
note_on channel=0 note=70 velocity=0 time=0
note_on channel=0 note=67 velocity=41 time=0
control_change channel=0 control=64 value=127 time=7
note_on channel=0 note=67 velocity=0 time=0
note_on channel=0 note=65 velocity=48 time=0
note_on channel=0 note=58 velocity=0 time=120
note_on channel=0 note=55 velocity=34 time=0
control_change channel=0 control=64 value=0 time=8
note_on channel=0 note=55 velocity=0 time=112
note_on channel=0 note=53 velocity=39 time=0
control_change channel=0 control=64 value=127 time=99
note_on channel=0 note=65 velocity=0 time=21
note_on channel=0 note=63 velocity=42 time=0
note_on channel=0 note=63 velocity=0 time=0
note_on channel=0 note=62 velocity=48 time=0
note_on channel=0 note=53 velocity=0 time=0
note_on channel=0 note=51 velocity=35 time=0
control_change channel=0 control=64 value=0 time=9
note_on channel=0 note=51 velocity=0 time=111
note_on channel=0 note=50 velocity=39 time=0
note_on channel=0 note=62 velocity=0 time=120
note_on channel=0 note=60 velocity=42 time=0
control_change channel=0 control=64 value=127 time=7
note_on channel=0 note=60 velocity=0 time=113
note_on channel=0 note=58 velocity=47 time=0
note_on channel=0 note=50 velocity=0 time=0
note_on channel=0 note=48 velocity=33 time=0
control_change channel=0 control=64 value=0 time=15
note_on channel=0 note=48 velocity=0 time=0
note_on channel=0 note=46 velocity=39 time=0
control_change channel=0 control=64 value=127 time=78
note_on channel=0 note=58 velocity=0 time=42
note_on channel=0 note=55 velocity=41 time=0
note_on channel=0 note=55 velocity=0 time=120
note_on channel=0 note=53 velocity=47 time=0
note_on channel=0 note=46 velocity=0 time=0
note_on channel=0 note=43 velocity=31 time=0
control_change channel=0 control=64 value=0 time=11
note_on channel=0 note=43 velocity=0 time=0
note_on channel=0 note=41 velocity=39 time=0
control_change channel=0 control=64 value=127 time=99
note_on channel=0 note=53 velocity=0 time=21
note_on channel=0 note=51 velocity=38 time=0
note_on channel=0 note=51 velocity=0 time=120
note_on channel=0 note=50 velocity=43 time=0
note_on channel=0 note=41 velocity=0 time=0
note_on channel=0 note=39 velocity=34 time=0
control_change channel=0 control=64 value=0 time=12
note_on channel=0 note=39 velocity=0 time=0
note_on channel=0 note=38 velocity=39 time=0
control_change channel=0 control=64 value=127 time=85
note_on channel=0 note=50 velocity=0 time=35
note_on channel=0 note=48 velocity=37 time=0
note_on channel=0 note=48 velocity=0 time=120
note_on channel=0 note=46 velocity=44 time=0
note_on channel=0 note=38 velocity=0 time=0
note_on channel=0 note=36 velocity=35 time=0
control_change channel=0 control=64 value=0 time=7
note_on channel=0 note=36 velocity=0 time=0
note_on channel=0 note=34 velocity=39 time=0
note_on channel=0 note=46 velocity=0 time=120
note_on channel=0 note=48 velocity=36 time=0
control_change channel=0 control=64 value=127 time=21
note_on channel=0 note=48 velocity=0 time=0
note_on channel=0 note=46 velocity=41 time=0
note_on channel=0 note=34 velocity=0 time=0
note_on channel=0 note=65 velocity=30 time=0
note_on channel=0 note=68 velocity=37 time=0
note_on channel=0 note=68 velocity=0 time=0
note_on channel=0 note=65 velocity=0 time=0
note_on channel=0 note=68 velocity=42 time=0
note_on channel=0 note=65 velocity=36 time=0
control_change channel=0 control=64 value=0 time=9
control_change channel=0 control=64 value=127 time=151
note_on channel=0 note=46 velocity=0 time=80
note_on channel=0 note=65 velocity=0 time=0
note_on channel=0 note=68 velocity=0 time=0
note_on channel=0 note=63 velocity=36 time=0
note_on channel=0 note=67 velocity=42 time=0
control_change channel=0 control=64 value=0 time=10
control_change channel=0 control=64 value=127 time=177
note_on channel=0 note=67 velocity=0 time=773
note_on channel=0 note=63 velocity=0 time=0
note_on channel=0 note=70 velocity=45 time=0
note_on channel=0 note=77 velocity=53 time=0
note_on channel=0 note=62 velocity=36 time=0
note_on channel=0 note=65 velocity=42 time=0
control_change channel=0 control=64 value=0 time=8
control_change channel=0 control=64 value=127 time=179
note_on channel=0 note=65 velocity=0 time=773
note_on channel=0 note=70 velocity=0 time=0
note_on channel=0 note=77 velocity=0 time=0
note_on channel=0 note=62 velocity=0 time=0
note_on channel=0 note=80 velocity=51 time=0
note_on channel=0 note=68 velocity=43 time=0
note_on channel=0 note=63 velocity=42 time=0
note_on channel=0 note=60 velocity=36 time=0
control_change channel=0 control=64 value=0 time=4
control_change channel=0 control=64 value=127 time=250
note_on channel=0 note=60 velocity=0 time=0
note_on channel=0 note=80 velocity=0 time=0
note_on channel=0 note=68 velocity=0 time=0
note_on channel=0 note=63 velocity=0 time=0
note_on channel=0 note=67 velocity=73 time=0
note_on channel=0 note=79 velocity=88 time=0
note_on channel=0 note=62 velocity=77 time=0
note_on channel=0 note=59 velocity=64 time=0
control_change channel=0 control=64 value=0 time=4
control_change channel=0 control=64 value=127 time=45
note_on channel=0 note=59 velocity=0 time=0
note_on channel=0 note=67 velocity=0 time=0
note_on channel=0 note=79 velocity=0 time=0
note_on channel=0 note=62 velocity=0 time=0
note_on channel=0 note=74 velocity=79 time=0
note_on channel=0 note=58 velocity=51 time=0
note_on channel=0 note=62 velocity=60 time=0
control_change channel=0 control=64 value=0 time=8
control_change channel=0 control=64 value=127 time=64
note_on channel=0 note=74 velocity=0 time=0
note_on channel=0 note=79 velocity=76 time=0
control_change channel=0 control=64 value=0 time=37
note_on channel=0 note=79 velocity=0 time=23
note_on channel=0 note=62 velocity=0 time=0
note_on channel=0 note=58 velocity=0 time=0
note_on channel=0 note=79 velocity=79 time=0
note_on channel=0 note=67 velocity=66 time=0
note_on channel=0 note=56 velocity=56 time=0
note_on channel=0 note=60 velocity=67 time=0
control_change channel=0 control=64 value=127 time=49
note_on channel=0 note=60 velocity=0 time=0
note_on channel=0 note=79 velocity=0 time=0
note_on channel=0 note=67 velocity=0 time=0
note_on channel=0 note=56 velocity=0 time=0
note_on channel=0 note=72 velocity=78 time=0
control_change channel=0 control=64 value=0 time=5
control_change channel=0 control=64 value=127 time=47
note_on channel=0 note=72 velocity=0 time=0
note_on channel=0 note=77 velocity=74 time=0
control_change channel=0 control=64 value=0 time=25
note_on channel=0 note=77 velocity=0 time=35
note_on channel=0 note=65 velocity=65 time=0
note_on channel=0 note=77 velocity=77 time=0
note_on channel=0 note=59 velocity=67 time=0
note_on channel=0 note=56 velocity=56 time=0
control_change channel=0 control=64 value=127 time=83
note_on channel=0 note=56 velocity=0 time=0
note_on channel=0 note=65 velocity=0 time=0
note_on channel=0 note=77 velocity=0 time=0
note_on channel=0 note=59 velocity=0 time=0
note_on channel=0 note=72 velocity=77 time=0
control_change channel=0 control=64 value=0 time=5
control_change channel=0 control=64 value=127 time=41
note_on channel=0 note=72 velocity=0 time=0
note_on channel=0 note=75 velocity=73 time=0
control_change channel=0 control=64 value=0 time=28
note_on channel=0 note=75 velocity=0 time=32
note_on channel=0 note=63 velocity=63 time=0
note_on channel=0 note=75 velocity=75 time=0
note_on channel=0 note=60 velocity=62 time=0
note_on channel=0 note=55 velocity=52 time=0
control_change channel=0 control=64 value=127 time=49
note_on channel=0 note=55 velocity=0 time=0
note_on channel=0 note=63 velocity=0 time=0
note_on channel=0 note=75 velocity=0 time=0
note_on channel=0 note=60 velocity=0 time=0
note_on channel=0 note=69 velocity=74 time=0
note_on channel=0 note=60 velocity=49 time=0
note_on channel=0 note=54 velocity=41 time=0
control_change channel=0 control=64 value=0 time=5
control_change channel=0 control=64 value=127 time=47
note_on channel=0 note=69 velocity=0 time=0
note_on channel=0 note=74 velocity=71 time=0
control_change channel=0 control=64 value=0 time=25
note_on channel=0 note=74 velocity=0 time=35
note_on channel=0 note=54 velocity=0 time=0
note_on channel=0 note=60 velocity=0 time=0
note_on channel=0 note=62 velocity=62 time=0
note_on channel=0 note=74 velocity=74 time=0
note_on channel=0 note=67 velocity=62 time=0
note_on channel=0 note=59 velocity=61 time=0
note_on channel=0 note=53 velocity=51 time=0
note_on channel=0 note=55 velocity=51 time=0
control_change channel=0 control=64 value=127 time=83
note_on channel=0 note=55 velocity=0 time=0
note_on channel=0 note=74 velocity=0 time=0
note_on channel=0 note=67 velocity=0 time=0
note_on channel=0 note=62 velocity=0 time=0
note_on channel=0 note=53 velocity=0 time=0
note_on channel=0 note=59 velocity=0 time=0
note_on channel=0 note=72 velocity=64 time=0
note_on channel=0 note=79 velocity=64 time=0
note_on channel=0 note=55 velocity=34 time=0
note_on channel=0 note=60 velocity=41 time=0
note_on channel=0 note=51 velocity=34 time=0
control_change channel=0 control=64 value=0 time=1
control_change channel=0 control=64 value=127 time=45
note_on channel=0 note=79 velocity=0 time=0
note_on channel=0 note=84 velocity=57 time=0
control_change channel=0 control=64 value=0 time=28
note_on channel=0 note=84 velocity=0 time=32
note_on channel=0 note=51 velocity=0 time=0
note_on channel=0 note=72 velocity=0 time=0
note_on channel=0 note=55 velocity=0 time=0
note_on channel=0 note=60 velocity=0 time=0
note_on channel=0 note=65 velocity=45 time=0
note_on channel=0 note=65 velocity=0 time=960
note_on channel=0 note=63 velocity=45 time=0
note_on channel=0 note=63 velocity=0 time=0
note_on channel=0 note=66 velocity=38 time=0
note_on channel=0 note=69 velocity=38 time=0
note_on channel=0 note=75 velocity=45 time=0
note_on channel=0 note=48 velocity=50 time=0
note_on channel=0 note=48 velocity=0 time=0
note_on channel=0 note=54 velocity=41 time=0
note_on channel=0 note=54 velocity=0 time=60
note_on channel=0 note=54 velocity=48 time=0
note_on channel=0 note=54 velocity=0 time=120
note_on channel=0 note=45 velocity=47 time=0
note_on channel=0 note=45 velocity=0 time=0
note_on channel=0 note=51 velocity=37 time=0
note_on channel=0 note=51 velocity=0 time=60
note_on channel=0 note=51 velocity=48 time=0
note_on channel=0 note=51 velocity=0 time=120
note_on channel=0 note=41 velocity=48 time=0
note_on channel=0 note=41 velocity=0 time=0
note_on channel=0 note=48 velocity=39 time=0
note_on channel=0 note=48 velocity=0 time=60
note_on channel=0 note=48 velocity=48 time=0
note_on channel=0 note=48 velocity=0 time=120
note_on channel=0 note=66 velocity=0 time=0
note_on channel=0 note=69 velocity=0 time=0
note_on channel=0 note=75 velocity=0 time=0
note_on channel=0 note=70 velocity=45 time=0
note_on channel=0 note=73 velocity=45 time=0
note_on channel=0 note=65 velocity=45 time=0
note_on channel=0 note=49 velocity=45 time=0
note_on channel=0 note=49 velocity=0 time=120
note_on channel=0 note=70 velocity=0 time=0
note_on channel=0 note=73 velocity=0 time=0
note_on channel=0 note=65 velocity=0 time=0
note_on channel=0 note=73 velocity=55 time=0
note_on channel=0 note=73 velocity=0 time=960
note_on channel=0 note=72 velocity=50 time=0
note_on channel=0 note=72 velocity=0 time=0
note_on channel=0 note=74 velocity=45 time=0
note_on channel=0 note=72 velocity=45 time=0
note_on channel=0 note=81 velocity=45 time=0
note_on channel=0 note=78 velocity=45 time=0
note_on channel=0 note=62 velocity=50 time=0
note_on channel=0 note=62 velocity=0 time=0
note_on channel=0 note=69 velocity=41 time=0
note_on channel=0 note=69 velocity=0 time=60
note_on channel=0 note=69 velocity=48 time=0
note_on channel=0 note=69 velocity=0 time=120
note_on channel=0 note=54 velocity=47 time=0
note_on channel=0 note=54 velocity=0 time=0
note_on channel=0 note=60 velocity=37 time=0
note_on channel=0 note=60 velocity=0 time=60
note_on channel=0 note=60 velocity=48 time=0
note_on channel=0 note=60 velocity=0 time=120
note_on channel=0 note=50 velocity=48 time=0
note_on channel=0 note=50 velocity=0 time=0
note_on channel=0 note=57 velocity=39 time=0
note_on channel=0 note=57 velocity=0 time=60
note_on channel=0 note=57 velocity=48 time=0
note_on channel=0 note=57 velocity=0 time=120
note_on channel=0 note=38 velocity=48 time=0
note_on channel=0 note=38 velocity=0 time=0
note_on channel=0 note=50 velocity=39 time=0
note_on channel=0 note=50 velocity=0 time=60
note_on channel=0 note=81 velocity=0 time=0
note_on channel=0 note=74 velocity=0 time=0
note_on channel=0 note=72 velocity=0 time=0
note_on channel=0 note=78 velocity=0 time=0
note_on channel=0 note=72 velocity=55 time=0
note_on channel=0 note=72 velocity=0 time=960
note_on channel=0 note=71 velocity=50 time=0
note_on channel=0 note=71 velocity=0 time=0
note_on channel=0 note=71 velocity=45 time=0
note_on channel=0 note=75 velocity=45 time=0
note_on channel=0 note=81 velocity=45 time=0
note_on channel=0 note=78 velocity=45 time=0
note_on channel=0 note=54 velocity=50 time=0
note_on channel=0 note=54 velocity=0 time=0
note_on channel=0 note=63 velocity=41 time=0
note_on channel=0 note=63 velocity=0 time=60
note_on channel=0 note=63 velocity=48 time=0
note_on channel=0 note=63 velocity=0 time=120
note_on channel=0 note=51 velocity=47 time=0
note_on channel=0 note=51 velocity=0 time=0
note_on channel=0 note=59 velocity=37 time=0
note_on channel=0 note=59 velocity=0 time=60
note_on channel=0 note=59 velocity=48 time=0
note_on channel=0 note=59 velocity=0 time=120
note_on channel=0 note=47 velocity=48 time=0
note_on channel=0 note=47 velocity=0 time=0
note_on channel=0 note=54 velocity=39 time=0
note_on channel=0 note=54 velocity=0 time=60
note_on channel=0 note=54 velocity=48 time=0
note_on channel=0 note=54 velocity=0 time=120
note_on channel=0 note=42 velocity=48 time=0
note_on channel=0 note=42 velocity=0 time=120
note_on channel=0 note=51 velocity=39 time=0
note_on channel=0 note=51 velocity=0 time=60
note_on channel=0 note=81 velocity=0 time=0
note_on channel=0 note=71 velocity=0 time=0
note_on channel=0 note=75 velocity=0 time=0
note_on channel=0 note=78 velocity=0 time=0
note_on channel=0 note=71 velocity=55 time=0
note_on channel=0 note=71 velocity=0 time=960
note_on channel=0 note=70 velocity=50 time=0
note_on channel=0 note=70 velocity=0 time=0
note_on channel=0 note=74 velocity=45 time=0
note_on channel=0 note=77 velocity=45 time=0
note_on channel=0 note=70 velocity=45 time=0
note_on channel=0 note=80 velocity=45 time=0
note_on channel=0 note=56 velocity=50 time=0
note_on channel=0 note=56 velocity=0 time=0
note_on channel=0 note=65 velocity=41 time=0
note_on channel=0 note=65 velocity=0 time=60
note_on channel=0 note=65 velocity=48 time=0
note_on channel=0 note=65 velocity=0 time=120
note_on channel=0 note=53 velocity=47 time=0
note_on channel=0 note=53 velocity=0 time=0
note_on channel=0 note=62 velocity=37 time=0
note_on channel=0 note=62 velocity=0 time=60
note_on channel=0 note=62 velocity=48 time=0
note_on channel=0 note=62 velocity=0 time=120
note_on channel=0 note=80 velocity=0 time=0
note_on channel=0 note=74 velocity=0 time=0
note_on channel=0 note=77 velocity=0 time=0
note_on channel=0 note=70 velocity=0 time=0
note_on channel=0 note=82 velocity=62 time=0
note_on channel=0 note=50 velocity=40 time=0
note_on channel=0 note=53 velocity=48 time=0
note_on channel=0 note=53 velocity=0 time=0
note_on channel=0 note=50 velocity=0 time=0
note_on channel=0 note=53 velocity=33 time=0
note_on channel=0 note=56 velocity=39 time=0
note_on channel=0 note=56 velocity=0 time=60
note_on channel=0 note=53 velocity=0 time=0
note_on channel=0 note=82 velocity=0 time=0
note_on channel=0 note=83 velocity=69 time=0
note_on channel=0 note=53 velocity=40 time=0
note_on channel=0 note=56 velocity=48 time=0
note_on channel=0 note=56 velocity=0 time=120
note_on channel=0 note=53 velocity=0 time=0
note_on channel=0 note=83 velocity=0 time=0
note_on channel=0 note=82 velocity=62 time=0
note_on channel=0 note=53 velocity=48 time=0
note_on channel=0 note=50 velocity=40 time=0
note_on channel=0 note=50 velocity=0 time=120
note_on channel=0 note=53 velocity=0 time=0
note_on channel=0 note=53 velocity=33 time=0
note_on channel=0 note=56 velocity=39 time=0
note_on channel=0 note=56 velocity=0 time=60
note_on channel=0 note=53 velocity=0 time=0
note_on channel=0 note=82 velocity=0 time=0
note_on channel=0 note=74 velocity=45 time=0
note_on channel=0 note=70 velocity=45 time=0
note_on channel=0 note=77 velocity=45 time=0
note_on channel=0 note=80 velocity=45 time=0
note_on channel=0 note=56 velocity=50 time=0
note_on channel=0 note=56 velocity=0 time=0
note_on channel=0 note=65 velocity=41 time=0
note_on channel=0 note=65 velocity=0 time=60
note_on channel=0 note=65 velocity=48 time=0
note_on channel=0 note=65 velocity=0 time=120
note_on channel=0 note=53 velocity=47 time=0
note_on channel=0 note=53 velocity=0 time=0
note_on channel=0 note=62 velocity=37 time=0
note_on channel=0 note=62 velocity=0 time=60
note_on channel=0 note=62 velocity=48 time=0
note_on channel=0 note=62 velocity=0 time=120
note_on channel=0 note=80 velocity=0 time=0
note_on channel=0 note=74 velocity=0 time=0
note_on channel=0 note=70 velocity=0 time=0
note_on channel=0 note=77 velocity=0 time=0
note_on channel=0 note=82 velocity=62 time=0
note_on channel=0 note=77 velocity=52 time=0
note_on channel=0 note=74 velocity=52 time=0
note_on channel=0 note=74 velocity=0 time=0
note_on channel=0 note=77 velocity=0 time=0
note_on channel=0 note=82 velocity=0 time=0
note_on channel=0 note=78 velocity=58 time=0
note_on channel=0 note=83 velocity=69 time=0
note_on channel=0 note=75 velocity=58 time=0
note_on channel=0 note=75 velocity=0 time=0
note_on channel=0 note=83 velocity=0 time=0
note_on channel=0 note=78 velocity=0 time=0
note_on channel=0 note=82 velocity=62 time=0
note_on channel=0 note=77 velocity=52 time=0
note_on channel=0 note=74 velocity=52 time=0
note_on channel=0 note=74 velocity=0 time=0
note_on channel=0 note=77 velocity=0 time=0
note_on channel=0 note=82 velocity=0 time=0
note_on channel=0 note=79 velocity=64 time=0
note_on channel=0 note=82 velocity=64 time=0
note_on channel=0 note=75 velocity=64 time=0
note_on channel=0 note=87 velocity=77 time=0
note_on channel=0 note=70 velocity=77 time=0
note_on channel=0 note=67 velocity=64 time=0
note_on channel=0 note=61 velocity=64 time=0
control_change channel=0 control=64 value=0 time=4
control_change channel=0 control=64 value=127 time=45
note_on channel=0 note=61 velocity=0 time=0
note_on channel=0 note=70 velocity=0 time=0
note_on channel=0 note=82 velocity=0 time=0
note_on channel=0 note=75 velocity=0 time=0
note_on channel=0 note=79 velocity=0 time=0
note_on channel=0 note=67 velocity=0 time=0
note_on channel=0 note=87 velocity=0 time=0
note_on channel=0 note=77 velocity=45 time=0
note_on channel=0 note=80 velocity=62 time=0
note_on channel=0 note=68 velocity=43 time=0
note_on channel=0 note=59 velocity=43 time=0
note_on channel=0 note=65 velocity=43 time=0
control_change channel=0 control=64 value=0 time=8
control_change channel=0 control=64 value=127 time=64
note_on channel=0 note=80 velocity=0 time=0
note_on channel=0 note=85 velocity=52 time=0
control_change channel=0 control=64 value=0 time=37
note_on channel=0 note=85 velocity=0 time=23
note_on channel=0 note=65 velocity=0 time=0
note_on channel=0 note=77 velocity=0 time=0
note_on channel=0 note=68 velocity=0 time=0
note_on channel=0 note=59 velocity=0 time=0
note_on channel=0 note=78 velocity=51 time=0
note_on channel=0 note=85 velocity=61 time=0
note_on channel=0 note=66 velocity=48 time=0
note_on channel=0 note=58 velocity=40 time=0
note_on channel=0 note=61 velocity=40 time=0
control_change channel=0 control=64 value=127 time=83
note_on channel=0 note=61 velocity=0 time=0
note_on channel=0 note=66 velocity=0 time=0
note_on channel=0 note=78 velocity=0 time=0
note_on channel=0 note=85 velocity=0 time=0
note_on channel=0 note=58 velocity=0 time=0
note_on channel=0 note=77 velocity=51 time=0
note_on channel=0 note=71 velocity=51 time=0
note_on channel=0 note=56 velocity=42 time=0
note_on channel=0 note=61 velocity=42 time=0
control_change channel=0 control=64 value=0 time=5
control_change channel=0 control=64 value=127 time=47
note_on channel=0 note=77 velocity=0 time=0
note_on channel=0 note=83 velocity=51 time=0
control_change channel=0 control=64 value=0 time=25
note_on channel=0 note=83 velocity=0 time=35
note_on channel=0 note=61 velocity=0 time=0
note_on channel=0 note=56 velocity=0 time=0
note_on channel=0 note=71 velocity=0 time=0
note_on channel=0 note=83 velocity=55 time=0
note_on channel=0 note=80 velocity=46 time=0
note_on channel=0 note=71 velocity=46 time=0
note_on channel=0 note=53 velocity=42 time=0
note_on channel=0 note=61 velocity=42 time=0
control_change channel=0 control=64 value=127 time=97
note_on channel=0 note=61 velocity=0 time=0
note_on channel=0 note=71 velocity=0 time=0
note_on channel=0 note=83 velocity=0 time=0
note_on channel=0 note=80 velocity=0 time=0
note_on channel=0 note=53 velocity=0 time=0
note_on channel=0 note=66 velocity=47 time=0
note_on channel=0 note=82 velocity=47 time=0
note_on channel=0 note=78 velocity=47 time=0
note_on channel=0 note=61 velocity=42 time=0
note_on channel=0 note=54 velocity=42 time=0
control_change channel=0 control=64 value=0 time=14
control_change channel=0 control=64 value=127 time=72
note_on channel=0 note=54 velocity=0 time=0
note_on channel=0 note=78 velocity=0 time=0
note_on channel=0 note=66 velocity=0 time=0
note_on channel=0 note=82 velocity=0 time=0
note_on channel=0 note=61 velocity=0 time=0
note_on channel=0 note=80 velocity=50 time=0
note_on channel=0 note=68 velocity=42 time=0
note_on channel=0 note=63 velocity=48 time=0
note_on channel=0 note=59 velocity=40 time=0
control_change channel=0 control=64 value=0 time=0
control_change channel=0 control=64 value=127 time=126
note_on channel=0 note=59 velocity=0 time=0
note_on channel=0 note=80 velocity=0 time=0
note_on channel=0 note=68 velocity=0 time=0
note_on channel=0 note=63 velocity=0 time=0
note_on channel=0 note=66 velocity=38 time=0
note_on channel=0 note=78 velocity=45 time=0
note_on channel=0 note=58 velocity=34 time=0
note_on channel=0 note=61 velocity=40 time=0
control_change channel=0 control=64 value=0 time=10
control_change channel=0 control=64 value=127 time=116
note_on channel=0 note=61 velocity=0 time=114
note_on channel=0 note=66 velocity=0 time=0
note_on channel=0 note=78 velocity=0 time=0
note_on channel=0 note=58 velocity=0 time=0
note_on channel=0 note=77 velocity=50 time=0
note_on channel=0 note=65 velocity=42 time=0
note_on channel=0 note=59 velocity=40 time=0
note_on channel=0 note=56 velocity=34 time=0
control_change channel=0 control=64 value=0 time=13
control_change channel=0 control=64 value=127 time=102
note_on channel=0 note=56 velocity=0 time=0
note_on channel=0 note=77 velocity=0 time=0
note_on channel=0 note=65 velocity=0 time=0
note_on channel=0 note=59 velocity=0 time=0
note_on channel=0 note=66 velocity=39 time=0
note_on channel=0 note=78 velocity=47 time=0
note_on channel=0 note=54 velocity=34 time=0
note_on channel=0 note=58 velocity=40 time=0
control_change channel=0 control=64 value=0 time=13
control_change channel=0 control=64 value=127 time=79
note_on channel=0 note=58 velocity=0 time=0
note_on channel=0 note=66 velocity=0 time=0
note_on channel=0 note=78 velocity=0 time=0
note_on channel=0 note=54 velocity=0 time=0
note_on channel=0 note=71 velocity=38 time=0
note_on channel=0 note=68 velocity=38 time=0
note_on channel=0 note=80 velocity=45 time=0
control_change channel=0 control=64 value=0 time=0
note_on channel=0 note=41 velocity=50 time=0
note_on channel=0 note=41 velocity=0 time=0
note_on channel=0 note=49 velocity=41 time=0
note_on channel=0 note=49 velocity=0 time=60
note_on channel=0 note=49 velocity=48 time=0
note_on channel=0 note=49 velocity=0 time=120
note_on channel=0 note=53 velocity=47 time=0
note_on channel=0 note=53 velocity=0 time=0
note_on channel=0 note=61 velocity=37 time=0
note_on channel=0 note=61 velocity=0 time=60
note_on channel=0 note=71 velocity=0 time=0
note_on channel=0 note=68 velocity=0 time=0
note_on channel=0 note=80 velocity=0 time=0
note_on channel=0 note=80 velocity=45 time=0
note_on channel=0 note=71 velocity=38 time=0
note_on channel=0 note=68 velocity=38 time=0
note_on channel=0 note=41 velocity=50 time=0
note_on channel=0 note=41 velocity=0 time=0
note_on channel=0 note=50 velocity=41 time=0
note_on channel=0 note=50 velocity=0 time=60
note_on channel=0 note=50 velocity=48 time=0
note_on channel=0 note=50 velocity=0 time=120
note_on channel=0 note=53 velocity=47 time=0
note_on channel=0 note=53 velocity=0 time=0
note_on channel=0 note=62 velocity=37 time=0
note_on channel=0 note=62 velocity=0 time=60
note_on channel=0 note=80 velocity=0 time=0
note_on channel=0 note=71 velocity=0 time=0
note_on channel=0 note=68 velocity=0 time=0
note_on channel=0 note=67 velocity=38 time=0
note_on channel=0 note=72 velocity=38 time=0
note_on channel=0 note=79 velocity=45 time=0
note_on channel=0 note=39 velocity=50 time=0
note_on channel=0 note=39 velocity=0 time=0
note_on channel=0 note=48 velocity=41 time=0
note_on channel=0 note=48 velocity=0 time=60
note_on channel=0 note=48 velocity=47 time=0
note_on channel=0 note=48 velocity=0 time=120
note_on channel=0 note=51 velocity=46 time=0
note_on channel=0 note=51 velocity=0 time=0
note_on channel=0 note=60 velocity=36 time=0
note_on channel=0 note=60 velocity=0 time=60
note_on channel=0 note=67 velocity=0 time=0
note_on channel=0 note=72 velocity=0 time=0
note_on channel=0 note=79 velocity=0 time=0
note_on channel=0 note=77 velocity=44 time=0
note_on channel=0 note=65 velocity=37 time=0
note_on channel=0 note=67 velocity=37 time=0
note_on channel=0 note=71 velocity=37 time=0
note_on channel=0 note=38 velocity=48 time=0
note_on channel=0 note=38 velocity=0 time=0
note_on channel=0 note=47 velocity=39 time=0
note_on channel=0 note=47 velocity=0 time=60
note_on channel=0 note=47 velocity=46 time=0
note_on channel=0 note=47 velocity=0 time=120
note_on channel=0 note=50 velocity=45 time=0
note_on channel=0 note=50 velocity=0 time=0
note_on channel=0 note=59 velocity=35 time=0
note_on channel=0 note=59 velocity=0 time=60
note_on channel=0 note=67 velocity=0 time=0
note_on channel=0 note=77 velocity=0 time=0
note_on channel=0 note=65 velocity=0 time=0
note_on channel=0 note=71 velocity=0 time=0
note_on channel=0 note=63 velocity=36 time=0
note_on channel=0 note=75 velocity=42 time=0
note_on channel=0 note=67 velocity=36 time=0
note_on channel=0 note=72 velocity=36 time=0
note_on channel=0 note=36 velocity=47 time=0
note_on channel=0 note=36 velocity=0 time=0
note_on channel=0 note=48 velocity=38 time=0
note_on channel=0 note=48 velocity=0 time=60
note_on channel=0 note=48 velocity=45 time=0
note_on channel=0 note=48 velocity=0 time=120
note_on channel=0 note=48 velocity=44 time=0
note_on channel=0 note=48 velocity=0 time=0
note_on channel=0 note=60 velocity=34 time=0
note_on channel=0 note=60 velocity=0 time=60
note_on channel=0 note=67 velocity=0 time=0
note_on channel=0 note=63 velocity=0 time=0
note_on channel=0 note=75 velocity=0 time=0
note_on channel=0 note=72 velocity=0 time=0
note_on channel=0 note=74 velocity=41 time=0
note_on channel=0 note=71 velocity=35 time=0
note_on channel=0 note=65 velocity=35 time=0
note_on channel=0 note=68 velocity=35 time=4
note_on channel=0 note=36 velocity=46 time=0
note_on channel=0 note=36 velocity=0 time=0
note_on channel=0 note=48 velocity=37 time=0
note_on channel=0 note=48 velocity=0 time=60
note_on channel=0 note=48 velocity=44 time=0
note_on channel=0 note=48 velocity=0 time=120
note_on channel=0 note=48 velocity=42 time=0
note_on channel=0 note=48 velocity=0 time=0
note_on channel=0 note=60 velocity=33 time=0
note_on channel=0 note=60 velocity=0 time=60
note_on channel=0 note=65 velocity=0 time=0
note_on channel=0 note=74 velocity=0 time=0
note_on channel=0 note=71 velocity=0 time=0
note_on channel=0 note=68 velocity=0 time=0
note_on channel=0 note=67 velocity=34 time=0
note_on channel=0 note=63 velocity=34 time=0
note_on channel=0 note=72 velocity=40 time=0
note_on channel=0 note=36 velocity=45 time=0
note_on channel=0 note=36 velocity=0 time=0
note_on channel=0 note=48 velocity=36 time=0
note_on channel=0 note=48 velocity=0 time=60
note_on channel=0 note=48 velocity=42 time=0
note_on channel=0 note=48 velocity=0 time=120
note_on channel=0 note=48 velocity=41 time=0
note_on channel=0 note=48 velocity=0 time=0
note_on channel=0 note=60 velocity=32 time=0
note_on channel=0 note=60 velocity=0 time=60
note_on channel=0 note=67 velocity=0 time=0
note_on channel=0 note=63 velocity=0 time=0
note_on channel=0 note=72 velocity=0 time=0
note_on channel=0 note=65 velocity=33 time=0
note_on channel=0 note=62 velocity=33 time=0
note_on channel=0 note=59 velocity=33 time=0
note_on channel=0 note=68 velocity=39 time=0
note_on channel=0 note=36 velocity=43 time=0
note_on channel=0 note=36 velocity=0 time=0
note_on channel=0 note=48 velocity=35 time=0
note_on channel=0 note=48 velocity=0 time=60
note_on channel=0 note=48 velocity=41 time=0
note_on channel=0 note=48 velocity=0 time=120
note_on channel=0 note=48 velocity=40 time=0
note_on channel=0 note=48 velocity=0 time=0
note_on channel=0 note=60 velocity=31 time=0
note_on channel=0 note=60 velocity=0 time=60
note_on channel=0 note=59 velocity=0 time=0
note_on channel=0 note=65 velocity=0 time=0
note_on channel=0 note=62 velocity=0 time=0
note_on channel=0 note=68 velocity=0 time=0
note_on channel=0 note=60 velocity=32 time=0
note_on channel=0 note=63 velocity=32 time=0
note_on channel=0 note=67 velocity=38 time=0
note_on channel=0 note=36 velocity=42 time=0
note_on channel=0 note=36 velocity=0 time=0
note_on channel=0 note=48 velocity=34 time=0
note_on channel=0 note=48 velocity=0 time=60
note_on channel=0 note=48 velocity=40 time=0
note_on channel=0 note=48 velocity=0 time=120
note_on channel=0 note=48 velocity=39 time=0
note_on channel=0 note=48 velocity=0 time=0
note_on channel=0 note=60 velocity=30 time=0
note_on channel=0 note=60 velocity=0 time=58
note_on channel=0 note=60 velocity=0 time=2
note_on channel=0 note=67 velocity=0 time=0
note_on channel=0 note=63 velocity=0 time=0
note_on channel=0 note=68 velocity=37 time=0
note_on channel=0 note=63 velocity=31 time=0
note_on channel=0 note=60 velocity=31 time=0
note_on channel=0 note=36 velocity=41 time=0
note_on channel=0 note=36 velocity=0 time=0
note_on channel=0 note=48 velocity=33 time=0
note_on channel=0 note=48 velocity=0 time=60
note_on channel=0 note=48 velocity=39 time=0
note_on channel=0 note=48 velocity=0 time=120
note_on channel=0 note=48 velocity=38 time=0
note_on channel=0 note=48 velocity=0 time=0
note_on channel=0 note=60 velocity=29 time=0
note_on channel=0 note=60 velocity=0 time=58
note_on channel=0 note=60 velocity=0 time=2
note_on channel=0 note=63 velocity=0 time=0
note_on channel=0 note=68 velocity=0 time=0
note_on channel=0 note=63 velocity=30 time=0
note_on channel=0 note=68 velocity=36 time=0
note_on channel=0 note=48 velocity=40 time=0
note_on channel=0 note=48 velocity=0 time=0
note_on channel=0 note=60 velocity=32 time=0
note_on channel=0 note=60 velocity=0 time=60
note_on channel=0 note=48 velocity=37 time=0
note_on channel=0 note=48 velocity=0 time=0
note_on channel=0 note=60 velocity=29 time=0
note_on channel=0 note=60 velocity=0 time=60
note_on channel=0 note=68 velocity=0 time=0
note_on channel=0 note=63 velocity=0 time=0
note_on channel=0 note=62 velocity=30 time=0
note_on channel=0 note=68 velocity=36 time=0
note_on channel=0 note=47 velocity=40 time=0
note_on channel=0 note=47 velocity=0 time=0
note_on channel=0 note=59 velocity=32 time=0
note_on channel=0 note=59 velocity=0 time=60
note_on channel=0 note=47 velocity=37 time=0
note_on channel=0 note=47 velocity=0 time=0
note_on channel=0 note=59 velocity=29 time=0
note_on channel=0 note=59 velocity=0 time=60
note_on channel=0 note=68 velocity=0 time=0
note_on channel=0 note=62 velocity=0 time=0
note_on channel=0 note=68 velocity=36 time=0
note_on channel=0 note=63 velocity=30 time=0
note_on channel=0 note=48 velocity=40 time=0
note_on channel=0 note=48 velocity=0 time=0
note_on channel=0 note=60 velocity=32 time=0
note_on channel=0 note=60 velocity=0 time=60
note_on channel=0 note=48 velocity=37 time=0
note_on channel=0 note=48 velocity=0 time=0
note_on channel=0 note=60 velocity=29 time=0
note_on channel=0 note=60 velocity=0 time=60
note_on channel=0 note=63 velocity=0 time=0
note_on channel=0 note=68 velocity=0 time=0
note_on channel=0 note=63 velocity=30 time=0
note_on channel=0 note=68 velocity=36 time=0
note_on channel=0 note=48 velocity=40 time=0
note_on channel=0 note=48 velocity=0 time=0
note_on channel=0 note=60 velocity=32 time=0
note_on channel=0 note=60 velocity=0 time=60
note_on channel=0 note=48 velocity=37 time=0
note_on channel=0 note=48 velocity=0 time=0
note_on channel=0 note=60 velocity=29 time=0
note_on channel=0 note=60 velocity=0 time=60
note_on channel=0 note=68 velocity=0 time=0
note_on channel=0 note=63 velocity=0 time=0
note_on channel=0 note=63 velocity=30 time=0
note_on channel=0 note=68 velocity=36 time=0
note_on channel=0 note=48 velocity=40 time=0
note_on channel=0 note=48 velocity=0 time=0
note_on channel=0 note=60 velocity=32 time=0
note_on channel=0 note=60 velocity=0 time=60
note_on channel=0 note=48 velocity=37 time=0
note_on channel=0 note=48 velocity=0 time=0
note_on channel=0 note=60 velocity=29 time=0
note_on channel=0 note=60 velocity=0 time=60
note_on channel=0 note=68 velocity=0 time=0
note_on channel=0 note=63 velocity=0 time=0
note_on channel=0 note=56 velocity=50 time=0
note_on channel=0 note=48 velocity=40 time=0
control_change channel=0 control=64 value=127 time=18
note_on channel=0 note=48 velocity=0 time=102
note_on channel=0 note=56 velocity=0 time=0
note_on channel=0 note=68 velocity=52 time=0
note_on channel=0 note=60 velocity=40 time=0
note_on channel=0 note=60 velocity=0 time=120
note_on channel=0 note=68 velocity=0 time=0
note_on channel=0 note=56 velocity=55 time=0
note_on channel=0 note=48 velocity=45 time=0
note_on channel=0 note=48 velocity=0 time=120
note_on channel=0 note=56 velocity=0 time=0
note_on channel=0 note=68 velocity=56 time=0
note_on channel=0 note=60 velocity=48 time=0
note_on channel=0 note=60 velocity=0 time=108
note_on channel=0 note=68 velocity=0 time=0
note_on channel=0 note=68 velocity=59 time=10
note_on channel=0 note=60 velocity=52 time=0
note_on channel=0 note=60 velocity=0 time=55
note_on channel=0 note=68 velocity=0 time=0
note_on channel=0 note=80 velocity=61 time=0
note_on channel=0 note=63 velocity=56 time=0
note_on channel=0 note=63 velocity=0 time=40
note_on channel=0 note=80 velocity=0 time=0
note_on channel=0 note=68 velocity=64 time=0
note_on channel=0 note=60 velocity=59 time=0
note_on channel=0 note=60 velocity=0 time=40
note_on channel=0 note=68 velocity=0 time=0
note_on channel=0 note=80 velocity=66 time=0
note_on channel=0 note=63 velocity=63 time=0
note_on channel=0 note=63 velocity=0 time=25
note_on channel=0 note=80 velocity=0 time=0
note_on channel=0 note=68 velocity=69 time=0
note_on channel=0 note=60 velocity=67 time=0
note_on channel=0 note=60 velocity=0 time=0
note_on channel=0 note=68 velocity=0 time=0
note_on channel=0 note=80 velocity=71 time=0
note_on channel=0 note=63 velocity=70 time=0
note_on channel=0 note=63 velocity=0 time=108
note_on channel=0 note=80 velocity=0 time=0
note_on channel=0 note=80 velocity=84 time=0
note_on channel=0 note=68 velocity=68 time=0
note_on channel=0 note=63 velocity=77 time=0
note_on channel=0 note=60 velocity=64 time=0
control_change channel=0 control=64 value=0 time=0
control_change channel=0 control=64 value=127 time=89
note_on channel=0 note=60 velocity=0 time=0
note_on channel=0 note=80 velocity=0 time=0
note_on channel=0 note=68 velocity=0 time=0
note_on channel=0 note=63 velocity=0 time=0
note_on channel=0 note=67 velocity=59 time=0
note_on channel=0 note=74 velocity=70 time=0
note_on channel=0 note=59 velocity=51 time=0
note_on channel=0 note=62 velocity=60 time=0
control_change channel=0 control=64 value=0 time=8
control_change channel=0 control=64 value=127 time=64
note_on channel=0 note=62 velocity=0 time=0
note_on channel=0 note=59 velocity=0 time=0
note_on channel=0 note=74 velocity=0 time=0
note_on channel=0 note=79 velocity=67 time=0
note_on channel=0 note=61 velocity=59 time=0
note_on channel=0 note=58 velocity=50 time=0
control_change channel=0 control=64 value=0 time=37
note_on channel=0 note=58 velocity=0 time=23
note_on channel=0 note=61 velocity=0 time=0
note_on channel=0 note=79 velocity=0 time=0
note_on channel=0 note=67 velocity=0 time=0
note_on channel=0 note=79 velocity=70 time=0
note_on channel=0 note=67 velocity=59 time=0
note_on channel=0 note=61 velocity=67 time=0
note_on channel=0 note=58 velocity=56 time=0
control_change channel=0 control=64 value=127 time=49
note_on channel=0 note=58 velocity=0 time=0
note_on channel=0 note=79 velocity=0 time=0
note_on channel=0 note=67 velocity=0 time=0
note_on channel=0 note=61 velocity=0 time=0
note_on channel=0 note=72 velocity=70 time=0
note_on channel=0 note=65 velocity=59 time=0
note_on channel=0 note=57 velocity=51 time=0
note_on channel=0 note=60 velocity=60 time=0
control_change channel=0 control=64 value=0 time=5
control_change channel=0 control=64 value=127 time=47
note_on channel=0 note=60 velocity=0 time=0
note_on channel=0 note=57 velocity=0 time=0
note_on channel=0 note=72 velocity=0 time=0
note_on channel=0 note=77 velocity=67 time=0
note_on channel=0 note=56 velocity=50 time=0
note_on channel=0 note=59 velocity=59 time=0
control_change channel=0 control=64 value=0 time=25
note_on channel=0 note=59 velocity=0 time=35
note_on channel=0 note=56 velocity=0 time=0
note_on channel=0 note=77 velocity=0 time=0
note_on channel=0 note=65 velocity=0 time=0
note_on channel=0 note=77 velocity=70 time=0
note_on channel=0 note=65 velocity=59 time=0
note_on channel=0 note=59 velocity=67 time=0
note_on channel=0 note=56 velocity=56 time=0
control_change channel=0 control=64 value=127 time=83
note_on channel=0 note=56 velocity=0 time=0
note_on channel=0 note=77 velocity=0 time=0
note_on channel=0 note=65 velocity=0 time=0
note_on channel=0 note=59 velocity=0 time=0
note_on channel=0 note=63 velocity=59 time=0
note_on channel=0 note=70 velocity=70 time=0
note_on channel=0 note=55 velocity=51 time=0
note_on channel=0 note=58 velocity=60 time=0
control_change channel=0 control=64 value=0 time=5
control_change channel=0 control=64 value=127 time=41
note_on channel=0 note=58 velocity=0 time=0
note_on channel=0 note=55 velocity=0 time=0
note_on channel=0 note=70 velocity=0 time=0
note_on channel=0 note=75 velocity=67 time=0
note_on channel=0 note=57 velocity=59 time=0
note_on channel=0 note=54 velocity=50 time=0
control_change channel=0 control=64 value=0 time=28
note_on channel=0 note=54 velocity=0 time=32
note_on channel=0 note=57 velocity=0 time=0
note_on channel=0 note=75 velocity=0 time=0
note_on channel=0 note=63 velocity=0 time=0
note_on channel=0 note=70 velocity=59 time=0
note_on channel=0 note=63 velocity=59 time=0
note_on channel=0 note=75 velocity=70 time=0
note_on channel=0 note=68 velocity=59 time=0
note_on channel=0 note=56 velocity=67 time=0
note_on channel=0 note=53 velocity=56 time=0
control_change channel=0 control=64 value=127 time=67
note_on channel=0 note=75 velocity=0 time=0
note_on channel=0 note=63 velocity=0 time=0
note_on channel=0 note=74 velocity=59 time=0
note_on channel=0 note=62 velocity=50 time=0
control_change channel=0 control=64 value=0 time=8
control_change channel=0 control=64 value=127 time=139
note_on channel=0 note=62 velocity=0 time=93
note_on channel=0 note=53 velocity=0 time=0
note_on channel=0 note=56 velocity=0 time=0
note_on channel=0 note=70 velocity=0 time=0
note_on channel=0 note=74 velocity=0 time=0
note_on channel=0 note=68 velocity=0 time=0
note_on channel=0 note=75 velocity=59 time=0
note_on channel=0 note=70 velocity=50 time=0
note_on channel=0 note=63 velocity=50 time=0
note_on channel=0 note=51 velocity=38 time=0
note_on channel=0 note=55 velocity=45 time=0
control_change channel=0 control=64 value=0 time=12
control_change channel=0 control=64 value=127 time=68
note_on channel=0 note=55 velocity=0 time=160
note_on channel=0 note=63 velocity=0 time=0
note_on channel=0 note=75 velocity=0 time=0
note_on channel=0 note=70 velocity=0 time=0
note_on channel=0 note=51 velocity=0 time=0
note_on channel=0 note=65 velocity=48 time=0
note_on channel=0 note=70 velocity=48 time=0
note_on channel=0 note=77 velocity=57 time=0
note_on channel=0 note=50 velocity=40 time=0
note_on channel=0 note=53 velocity=48 time=0
control_change channel=0 control=64 value=0 time=7
control_change channel=0 control=64 value=127 time=107
note_on channel=0 note=53 velocity=0 time=126
note_on channel=0 note=77 velocity=0 time=0
note_on channel=0 note=65 velocity=0 time=0
note_on channel=0 note=70 velocity=0 time=0
note_on channel=0 note=50 velocity=0 time=0
note_on channel=0 note=70 velocity=51 time=0
note_on channel=0 note=67 velocity=51 time=0
note_on channel=0 note=79 velocity=60 time=0
note_on channel=0 note=48 velocity=42 time=0
note_on channel=0 note=51 velocity=50 time=0
control_change channel=0 control=64 value=0 time=10
control_change channel=0 control=64 value=127 time=129
note_on channel=0 note=51 velocity=0 time=0
note_on channel=0 note=79 velocity=0 time=0
note_on channel=0 note=70 velocity=0 time=0
note_on channel=0 note=67 velocity=0 time=0
note_on channel=0 note=48 velocity=0 time=0
note_on channel=0 note=68 velocity=54 time=0
note_on channel=0 note=80 velocity=64 time=0
note_on channel=0 note=70 velocity=54 time=0
note_on channel=0 note=46 velocity=45 time=0
note_on channel=0 note=50 velocity=53 time=0
control_change channel=0 control=64 value=0 time=13
control_change channel=0 control=64 value=127 time=114
note_on channel=0 note=50 velocity=0 time=0
note_on channel=0 note=70 velocity=0 time=0
note_on channel=0 note=68 velocity=0 time=0
note_on channel=0 note=80 velocity=0 time=0
note_on channel=0 note=46 velocity=0 time=0
note_on channel=0 note=82 velocity=68 time=0
note_on channel=0 note=70 velocity=57 time=0
note_on channel=0 note=53 velocity=56 time=0
note_on channel=0 note=46 velocity=47 time=0
note_on channel=0 note=50 velocity=47 time=0
control_change channel=0 control=64 value=0 time=20
control_change channel=0 control=64 value=127 time=107
note_on channel=0 note=50 velocity=0 time=0
note_on channel=0 note=53 velocity=0 time=0
note_on channel=0 note=82 velocity=0 time=0
note_on channel=0 note=70 velocity=0 time=0
note_on channel=0 note=46 velocity=0 time=0
note_on channel=0 note=67 velocity=66 time=0
note_on channel=0 note=82 velocity=78 time=0
note_on channel=0 note=70 velocity=66 time=0
note_on channel=0 note=39 velocity=56 time=0
control_change channel=0 control=64 value=0 time=0
note_on channel=0 note=39 velocity=0 time=120
note_on channel=0 note=46 velocity=40 time=0
control_change channel=0 control=64 value=127 time=0
note_on channel=0 note=46 velocity=0 time=120
note_on channel=0 note=70 velocity=0 time=0
note_on channel=0 note=82 velocity=0 time=0
note_on channel=0 note=67 velocity=0 time=0
note_on channel=0 note=55 velocity=40 time=0
note_on channel=0 note=55 velocity=0 time=120
note_on channel=0 note=46 velocity=40 time=0
note_on channel=0 note=46 velocity=0 time=120
note_on channel=0 note=82 velocity=81 time=0
note_on channel=0 note=70 velocity=69 time=0
note_on channel=0 note=39 velocity=54 time=0
note_on channel=0 note=39 velocity=0 time=120
note_on channel=0 note=46 velocity=44 time=0
note_on channel=0 note=46 velocity=0 time=0
note_on channel=0 note=70 velocity=0 time=0
note_on channel=0 note=82 velocity=0 time=0
note_on channel=0 note=55 velocity=43 time=0
note_on channel=0 note=55 velocity=0 time=120
note_on channel=0 note=46 velocity=43 time=0
note_on channel=0 note=46 velocity=0 time=0
note_on channel=0 note=94 velocity=93 time=0
note_on channel=0 note=82 velocity=78 time=0
note_on channel=0 note=41 velocity=58 time=0
control_change channel=0 control=64 value=0 time=10
control_change channel=0 control=64 value=127 time=103
note_on channel=0 note=41 velocity=0 time=7
note_on channel=0 note=46 velocity=49 time=0
note_on channel=0 note=46 velocity=0 time=120
note_on channel=0 note=56 velocity=49 time=0
note_on channel=0 note=56 velocity=0 time=120
note_on channel=0 note=46 velocity=47 time=0
note_on channel=0 note=46 velocity=0 time=120
note_on channel=0 note=41 velocity=53 time=0
note_on channel=0 note=41 velocity=0 time=120
note_on channel=0 note=46 velocity=44 time=0
note_on channel=0 note=46 velocity=0 time=0
note_on channel=0 note=82 velocity=0 time=0
note_on channel=0 note=94 velocity=0 time=0
note_on channel=0 note=82 velocity=65 time=0
note_on channel=0 note=70 velocity=55 time=0
note_on channel=0 note=56 velocity=44 time=0
note_on channel=0 note=56 velocity=0 time=120
note_on channel=0 note=46 velocity=44 time=0
note_on channel=0 note=46 velocity=0 time=120
note_on channel=0 note=43 velocity=53 time=0
control_change channel=0 control=64 value=0 time=0
control_change channel=0 control=64 value=127 time=99
note_on channel=0 note=43 velocity=0 time=21
note_on channel=0 note=46 velocity=43 time=0
note_on channel=0 note=46 velocity=0 time=120
note_on channel=0 note=58 velocity=43 time=0
note_on channel=0 note=58 velocity=0 time=120
note_on channel=0 note=46 velocity=43 time=0
note_on channel=0 note=46 velocity=0 time=120
note_on channel=0 note=43 velocity=53 time=0
note_on channel=0 note=43 velocity=0 time=120
note_on channel=0 note=46 velocity=43 time=0
note_on channel=0 note=46 velocity=0 time=0
note_on channel=0 note=70 velocity=0 time=0
note_on channel=0 note=82 velocity=0 time=0
note_on channel=0 note=79 velocity=62 time=0
note_on channel=0 note=67 velocity=62 time=0
note_on channel=0 note=58 velocity=43 time=0
note_on channel=0 note=58 velocity=0 time=120
note_on channel=0 note=46 velocity=43 time=0
note_on channel=0 note=46 velocity=0 time=0
note_on channel=0 note=67 velocity=0 time=0
note_on channel=0 note=79 velocity=0 time=0
note_on channel=0 note=65 velocity=55 time=0
note_on channel=0 note=77 velocity=65 time=0
note_on channel=0 note=44 velocity=53 time=0
control_change channel=0 control=64 value=0 time=0
control_change channel=0 control=64 value=127 time=99
note_on channel=0 note=44 velocity=0 time=21
note_on channel=0 note=46 velocity=44 time=0
note_on channel=0 note=46 velocity=0 time=120
note_on channel=0 note=77 velocity=0 time=0
note_on channel=0 note=65 velocity=0 time=0
note_on channel=0 note=62 velocity=48 time=0
note_on channel=0 note=74 velocity=57 time=0
note_on channel=0 note=56 velocity=44 time=0
note_on channel=0 note=56 velocity=0 time=120
note_on channel=0 note=46 velocity=44 time=0
note_on channel=0 note=46 velocity=0 time=120
note_on channel=0 note=74 velocity=0 time=0
note_on channel=0 note=62 velocity=0 time=0
note_on channel=0 note=71 velocity=57 time=0
note_on channel=0 note=59 velocity=48 time=0
note_on channel=0 note=34 velocity=53 time=0
control_change channel=0 control=64 value=0 time=14
note_on channel=0 note=34 velocity=0 time=106
note_on channel=0 note=46 velocity=46 time=0
control_change channel=0 control=64 value=127 time=0
note_on channel=0 note=46 velocity=0 time=0
note_on channel=0 note=59 velocity=0 time=0
note_on channel=0 note=71 velocity=0 time=0
note_on channel=0 note=58 velocity=47 time=0
note_on channel=0 note=70 velocity=56 time=0
note_on channel=0 note=53 velocity=46 time=0
note_on channel=0 note=53 velocity=0 time=120
note_on channel=0 note=46 velocity=46 time=0
note_on channel=0 note=46 velocity=0 time=0
note_on channel=0 note=70 velocity=0 time=0
note_on channel=0 note=58 velocity=0 time=0
note_on channel=0 note=70 velocity=78 time=0
note_on channel=0 note=58 velocity=66 time=0
note_on channel=0 note=39 velocity=56 time=0
control_change channel=0 control=64 value=0 time=0
control_change channel=0 control=64 value=127 time=64
note_on channel=0 note=39 velocity=0 time=56
note_on channel=0 note=46 velocity=40 time=0
note_on channel=0 note=46 velocity=0 time=120
note_on channel=0 note=58 velocity=0 time=0
note_on channel=0 note=70 velocity=0 time=0
note_on channel=0 note=55 velocity=40 time=0
note_on channel=0 note=55 velocity=0 time=120
note_on channel=0 note=46 velocity=40 time=0
note_on channel=0 note=46 velocity=0 time=120
note_on channel=0 note=82 velocity=81 time=0
note_on channel=0 note=70 velocity=69 time=0
note_on channel=0 note=39 velocity=54 time=0
note_on channel=0 note=39 velocity=0 time=120
note_on channel=0 note=46 velocity=44 time=0
note_on channel=0 note=46 velocity=0 time=0
note_on channel=0 note=70 velocity=0 time=0
note_on channel=0 note=82 velocity=0 time=0
note_on channel=0 note=56 velocity=43 time=0
note_on channel=0 note=56 velocity=0 time=120
note_on channel=0 note=46 velocity=43 time=0
note_on channel=0 note=46 velocity=0 time=0
note_on channel=0 note=94 velocity=93 time=0
note_on channel=0 note=82 velocity=78 time=0
note_on channel=0 note=43 velocity=58 time=0
control_change channel=0 control=64 value=0 time=10
control_change channel=0 control=64 value=127 time=103
note_on channel=0 note=43 velocity=0 time=7
note_on channel=0 note=51 velocity=49 time=0
note_on channel=0 note=51 velocity=0 time=120
note_on channel=0 note=58 velocity=49 time=0
note_on channel=0 note=58 velocity=0 time=120
note_on channel=0 note=51 velocity=47 time=0
note_on channel=0 note=51 velocity=0 time=120
note_on channel=0 note=43 velocity=53 time=0
note_on channel=0 note=43 velocity=0 time=120
note_on channel=0 note=51 velocity=44 time=0
note_on channel=0 note=51 velocity=0 time=0
note_on channel=0 note=82 velocity=0 time=0
note_on channel=0 note=94 velocity=0 time=0
note_on channel=0 note=82 velocity=65 time=0
note_on channel=0 note=70 velocity=55 time=0
note_on channel=0 note=58 velocity=44 time=0
note_on channel=0 note=58 velocity=0 time=120
note_on channel=0 note=51 velocity=44 time=0
note_on channel=0 note=51 velocity=0 time=120
note_on channel=0 note=43 velocity=53 time=0
control_change channel=0 control=64 value=0 time=0
control_change channel=0 control=64 value=127 time=99
note_on channel=0 note=43 velocity=0 time=21
note_on channel=0 note=51 velocity=43 time=0
note_on channel=0 note=51 velocity=0 time=120
note_on channel=0 note=58 velocity=43 time=0
note_on channel=0 note=58 velocity=0 time=120
note_on channel=0 note=51 velocity=43 time=0
note_on channel=0 note=51 velocity=0 time=120
note_on channel=0 note=43 velocity=53 time=0
note_on channel=0 note=43 velocity=0 time=120
note_on channel=0 note=51 velocity=43 time=0
note_on channel=0 note=51 velocity=0 time=0
note_on channel=0 note=70 velocity=0 time=0
note_on channel=0 note=82 velocity=0 time=0
note_on channel=0 note=79 velocity=62 time=0
note_on channel=0 note=67 velocity=62 time=0
note_on channel=0 note=58 velocity=43 time=0
note_on channel=0 note=58 velocity=0 time=120
note_on channel=0 note=51 velocity=43 time=0
note_on channel=0 note=51 velocity=0 time=0
note_on channel=0 note=67 velocity=0 time=0
note_on channel=0 note=79 velocity=0 time=0
note_on channel=0 note=64 velocity=55 time=0
note_on channel=0 note=76 velocity=65 time=0
note_on channel=0 note=44 velocity=53 time=0
control_change channel=0 control=64 value=0 time=0
control_change channel=0 control=64 value=127 time=99
note_on channel=0 note=44 velocity=0 time=21
note_on channel=0 note=51 velocity=44 time=0
note_on channel=0 note=51 velocity=0 time=120
note_on channel=0 note=76 velocity=0 time=0
note_on channel=0 note=64 velocity=0 time=0
note_on channel=0 note=77 velocity=57 time=0
note_on channel=0 note=65 velocity=48 time=0
note_on channel=0 note=60 velocity=44 time=0
note_on channel=0 note=60 velocity=0 time=120
note_on channel=0 note=51 velocity=44 time=0
note_on channel=0 note=51 velocity=0 time=120
note_on channel=0 note=65 velocity=0 time=0
note_on channel=0 note=77 velocity=0 time=0
note_on channel=0 note=60 velocity=48 time=0
note_on channel=0 note=72 velocity=57 time=0
note_on channel=0 note=45 velocity=53 time=0
control_change channel=0 control=64 value=0 time=14
note_on channel=0 note=45 velocity=0 time=106
note_on channel=0 note=53 velocity=46 time=0
control_change channel=0 control=64 value=127 time=0
note_on channel=0 note=53 velocity=0 time=0
note_on channel=0 note=72 velocity=0 time=0
note_on channel=0 note=60 velocity=0 time=0
note_on channel=0 note=63 velocity=47 time=0
note_on channel=0 note=75 velocity=56 time=0
note_on channel=0 note=60 velocity=46 time=0
note_on channel=0 note=60 velocity=0 time=120
note_on channel=0 note=53 velocity=46 time=0
note_on channel=0 note=53 velocity=0 time=120
note_on channel=0 note=75 velocity=0 time=0
note_on channel=0 note=63 velocity=0 time=0
note_on channel=0 note=74 velocity=56 time=0
note_on channel=0 note=62 velocity=56 time=0
note_on channel=0 note=46 velocity=52 time=0
control_change channel=0 control=64 value=0 time=0
note_on channel=0 note=62 velocity=0 time=0
note_on channel=0 note=74 velocity=0 time=0
note_on channel=0 note=70 velocity=49 time=0
note_on channel=0 note=70 velocity=0 time=120
note_on channel=0 note=46 velocity=0 time=0
note_on channel=0 note=69 velocity=51 time=0
note_on channel=0 note=63 velocity=46 time=0
control_change channel=0 control=64 value=127 time=29
note_on channel=0 note=63 velocity=0 time=91
note_on channel=0 note=69 velocity=0 time=0
note_on channel=0 note=70 velocity=53 time=0
note_on channel=0 note=62 velocity=49 time=0
note_on channel=0 note=62 velocity=0 time=120
note_on channel=0 note=70 velocity=0 time=0
note_on channel=0 note=72 velocity=55 time=0
note_on channel=0 note=69 velocity=46 time=0
note_on channel=0 note=60 velocity=48 time=0
control_change channel=0 control=64 value=0 time=9
control_change channel=0 control=64 value=127 time=66
note_on channel=0 note=60 velocity=0 time=45
note_on channel=0 note=69 velocity=0 time=0
note_on channel=0 note=72 velocity=0 time=0
note_on channel=0 note=74 velocity=57 time=0
note_on channel=0 note=70 velocity=48 time=0
note_on channel=0 note=58 velocity=47 time=0
note_on channel=0 note=58 velocity=0 time=120
note_on channel=0 note=70 velocity=0 time=0
note_on channel=0 note=74 velocity=0 time=0
note_on channel=0 note=75 velocity=59 time=0
note_on channel=0 note=72 velocity=50 time=0
note_on channel=0 note=57 velocity=46 time=0
note_on channel=0 note=57 velocity=0 time=0
note_on channel=0 note=72 velocity=0 time=0
note_on channel=0 note=75 velocity=0 time=0
note_on channel=0 note=74 velocity=51 time=0
note_on channel=0 note=77 velocity=61 time=0
note_on channel=0 note=56 velocity=45 time=0
note_on channel=0 note=56 velocity=0 time=0
note_on channel=0 note=77 velocity=0 time=0
note_on channel=0 note=74 velocity=0 time=0
note_on channel=0 note=79 velocity=63 time=0
note_on channel=0 note=75 velocity=53 time=0
note_on channel=0 note=55 velocity=44 time=0
control_change channel=0 control=64 value=0 time=14
note_on channel=0 note=55 velocity=0 time=106
note_on channel=0 note=53 velocity=43 time=0
control_change channel=0 control=64 value=127 time=0
note_on channel=0 note=53 velocity=0 time=120
note_on channel=0 note=51 velocity=42 time=0
note_on channel=0 note=51 velocity=0 time=120
note_on channel=0 note=50 velocity=41 time=0
note_on channel=0 note=50 velocity=0 time=5
note_on channel=0 note=75 velocity=0 time=0
note_on channel=0 note=79 velocity=0 time=0
note_on channel=0 note=80 velocity=52 time=0
note_on channel=0 note=84 velocity=62 time=0
note_on channel=0 note=51 velocity=40 time=0
control_change channel=0 control=64 value=0 time=13
note_on channel=0 note=51 velocity=0 time=5
note_on channel=0 note=84 velocity=0 time=0
note_on channel=0 note=80 velocity=0 time=0
note_on channel=0 note=82 velocity=59 time=0
note_on channel=0 note=79 velocity=50 time=0
note_on channel=0 note=53 velocity=42 time=0
control_change channel=0 control=64 value=127 time=7
note_on channel=0 note=53 velocity=0 time=5
note_on channel=0 note=79 velocity=0 time=0
note_on channel=0 note=82 velocity=0 time=0
note_on channel=0 note=77 velocity=47 time=0
note_on channel=0 note=80 velocity=56 time=0
note_on channel=0 note=55 velocity=44 time=0
note_on channel=0 note=55 velocity=0 time=5
note_on channel=0 note=80 velocity=0 time=0
note_on channel=0 note=77 velocity=0 time=0
note_on channel=0 note=75 velocity=45 time=0
note_on channel=0 note=79 velocity=53 time=0
note_on channel=0 note=56 velocity=46 time=0
note_on channel=0 note=56 velocity=0 time=5
note_on channel=0 note=79 velocity=0 time=0
note_on channel=0 note=75 velocity=0 time=0
note_on channel=0 note=77 velocity=67 time=0
note_on channel=0 note=74 velocity=56 time=0
note_on channel=0 note=58 velocity=57 time=0
control_change channel=0 control=64 value=0 time=0
control_change channel=0 control=64 value=127 time=79
note_on channel=0 note=58 velocity=0 time=161
note_on channel=0 note=74 velocity=0 time=0
note_on channel=0 note=77 velocity=0 time=0
note_on channel=0 note=80 velocity=68 time=0
note_on channel=0 note=71 velocity=57 time=0
note_on channel=0 note=65 velocity=46 time=0
control_change channel=0 control=64 value=0 time=5
control_change channel=0 control=64 value=127 time=59
note_on channel=0 note=65 velocity=0 time=49
note_on channel=0 note=71 velocity=0 time=0
note_on channel=0 note=80 velocity=0 time=0
note_on channel=0 note=72 velocity=56 time=0
note_on channel=0 note=79 velocity=67 time=0
note_on channel=0 note=63 velocity=53 time=0
note_on channel=0 note=63 velocity=0 time=120
note_on channel=0 note=79 velocity=0 time=0
note_on channel=0 note=72 velocity=0 time=0
note_on channel=0 note=67 velocity=56 time=0
note_on channel=0 note=77 velocity=67 time=0
note_on channel=0 note=62 velocity=52 time=0
control_change channel=0 control=64 value=0 time=5
control_change channel=0 control=64 value=127 time=54
note_on channel=0 note=62 velocity=0 time=54
note_on channel=0 note=77 velocity=0 time=0
note_on channel=0 note=67 velocity=0 time=0
note_on channel=0 note=78 velocity=66 time=0
note_on channel=0 note=75 velocity=56 time=0
note_on channel=0 note=60 velocity=51 time=0
note_on channel=0 note=60 velocity=0 time=120
note_on channel=0 note=75 velocity=0 time=0
note_on channel=0 note=78 velocity=0 time=0
note_on channel=0 note=74 velocity=55 time=0
note_on channel=0 note=79 velocity=64 time=0
note_on channel=0 note=59 velocity=50 time=0
note_on channel=0 note=59 velocity=0 time=83
note_on channel=0 note=79 velocity=0 time=0
note_on channel=0 note=74 velocity=0 time=0
note_on channel=0 note=77 velocity=53 time=30
note_on channel=0 note=74 velocity=53 time=0
note_on channel=0 note=81 velocity=63 time=0
note_on channel=0 note=57 velocity=49 time=0
note_on channel=0 note=57 velocity=0 time=90
note_on channel=0 note=77 velocity=0 time=0
note_on channel=0 note=74 velocity=0 time=0
note_on channel=0 note=81 velocity=0 time=0
note_on channel=0 note=79 velocity=51 time=8
note_on channel=0 note=74 velocity=51 time=0
note_on channel=0 note=83 velocity=61 time=0
note_on channel=0 note=55 velocity=47 time=0
control_change channel=0 control=64 value=0 time=3
note_on channel=0 note=55 velocity=0 time=87
note_on channel=0 note=79 velocity=0 time=0
note_on channel=0 note=74 velocity=0 time=0
note_on channel=0 note=83 velocity=0 time=0
control_change channel=0 control=64 value=127 time=13
note_on channel=0 note=79 velocity=55 time=17
note_on channel=0 note=74 velocity=55 time=0
note_on channel=0 note=83 velocity=64 time=0
note_on channel=0 note=53 velocity=48 time=0
note_on channel=0 note=53 velocity=0 time=53
note_on channel=0 note=79 velocity=0 time=0
note_on channel=0 note=74 velocity=0 time=0
note_on channel=0 note=83 velocity=0 time=0
note_on channel=0 note=75 velocity=57 time=30
note_on channel=0 note=79 velocity=57 time=0
note_on channel=0 note=84 velocity=68 time=0
note_on channel=0 note=51 velocity=51 time=0
control_change channel=0 control=64 value=0 time=17
note_on channel=0 note=51 velocity=0 time=8
note_on channel=0 note=75 velocity=0 time=0
note_on channel=0 note=79 velocity=0 time=0
note_on channel=0 note=84 velocity=0 time=0
note_on channel=0 note=77 velocity=60 time=30
note_on channel=0 note=86 velocity=71 time=0
note_on channel=0 note=83 velocity=60 time=0
note_on channel=0 note=50 velocity=55 time=0
note_on channel=0 note=50 velocity=0 time=90
note_on channel=0 note=77 velocity=0 time=0
note_on channel=0 note=86 velocity=0 time=0
note_on channel=0 note=83 velocity=0 time=0
note_on channel=0 note=87 velocity=75 time=30
note_on channel=0 note=84 velocity=63 time=0
note_on channel=0 note=79 velocity=63 time=0
note_on channel=0 note=48 velocity=59 time=0
note_on channel=0 note=48 velocity=0 time=83
note_on channel=0 note=87 velocity=0 time=0
note_on channel=0 note=84 velocity=0 time=0
note_on channel=0 note=79 velocity=0 time=0
control_change channel=0 control=64 value=127 time=2
note_on channel=0 note=79 velocity=67 time=28
note_on channel=0 note=88 velocity=79 time=0
note_on channel=0 note=84 velocity=67 time=0
note_on channel=0 note=46 velocity=62 time=0
note_on channel=0 note=46 velocity=0 time=23
note_on channel=0 note=79 velocity=0 time=0
note_on channel=0 note=88 velocity=0 time=0
note_on channel=0 note=84 velocity=0 time=0
note_on channel=0 note=89 velocity=82 time=23
note_on channel=0 note=84 velocity=69 time=0
note_on channel=0 note=77 velocity=69 time=0
note_on channel=0 note=48 velocity=66 time=0
note_on channel=0 note=45 velocity=66 time=0
control_change channel=0 control=64 value=0 time=16
note_on channel=0 note=45 velocity=0 time=8
note_on channel=0 note=77 velocity=0 time=0
note_on channel=0 note=89 velocity=0 time=0
note_on channel=0 note=84 velocity=0 time=0
note_on channel=0 note=48 velocity=0 time=0
note_on channel=0 note=89 velocity=85 time=8
note_on channel=0 note=84 velocity=72 time=0
note_on channel=0 note=77 velocity=72 time=0
note_on channel=0 note=45 velocity=58 time=0
note_on channel=0 note=48 velocity=69 time=0
note_on channel=0 note=48 velocity=0 time=8
note_on channel=0 note=77 velocity=0 time=0
note_on channel=0 note=89 velocity=0 time=0
note_on channel=0 note=84 velocity=0 time=0
note_on channel=0 note=45 velocity=0 time=0
note_on channel=0 note=82 velocity=81 time=23
note_on channel=0 note=86 velocity=93 time=0
note_on channel=0 note=77 velocity=77 time=0
note_on channel=0 note=46 velocity=72 time=0
note_on channel=0 note=44 velocity=61 time=0
control_change channel=0 control=64 value=127 time=82
note_on channel=0 note=44 velocity=0 time=38
note_on channel=0 note=77 velocity=0 time=0
note_on channel=0 note=82 velocity=0 time=0
note_on channel=0 note=86 velocity=0 time=0
note_on channel=0 note=46 velocity=0 time=0
control_change channel=0 control=64 value=0 time=69
note_on channel=0 note=87 velocity=92 time=0
note_on channel=0 note=82 velocity=92 time=0
note_on channel=0 note=75 velocity=92 time=0
note_on channel=0 note=43 velocity=63 time=0
note_on channel=0 note=46 velocity=75 time=0
control_change channel=0 control=64 value=127 time=46
note_on channel=0 note=46 velocity=0 time=74
note_on channel=0 note=75 velocity=0 time=0
note_on channel=0 note=87 velocity=0 time=0
note_on channel=0 note=82 velocity=0 time=0
note_on channel=0 note=43 velocity=0 time=0
control_change channel=0 control=64 value=0 time=120
note_on channel=0 note=68 velocity=84 time=0
note_on channel=0 note=63 velocity=65 time=0
note_on channel=0 note=53 velocity=65 time=0
note_on channel=0 note=47 velocity=71 time=0
control_change channel=0 control=64 value=127 time=99
note_on channel=0 note=47 velocity=0 time=0
note_on channel=0 note=68 velocity=0 time=0
note_on channel=0 note=70 velocity=85 time=0
note_on channel=0 note=46 velocity=71 time=0
control_change channel=0 control=64 value=0 time=78
note_on channel=0 note=46 velocity=0 time=42
note_on channel=0 note=70 velocity=0 time=0
note_on channel=0 note=71 velocity=93 time=0
note_on channel=0 note=44 velocity=80 time=0
control_change channel=0 control=64 value=127 time=46
note_on channel=0 note=63 velocity=0 time=0
note_on channel=0 note=63 velocity=61 time=0
note_on channel=0 note=63 velocity=0 time=120
note_on channel=0 note=62 velocity=52 time=0
note_on channel=0 note=62 velocity=0 time=120
note_on channel=0 note=63 velocity=61 time=0
note_on channel=0 note=63 velocity=0 time=120
note_on channel=0 note=62 velocity=54 time=0
note_on channel=0 note=62 velocity=0 time=120
note_on channel=0 note=63 velocity=61 time=0
note_on channel=0 note=63 velocity=0 time=0
note_on channel=0 note=62 velocity=54 time=0
note_on channel=0 note=62 velocity=0 time=0
note_on channel=0 note=53 velocity=0 time=0
note_on channel=0 note=71 velocity=0 time=0
note_on channel=0 note=44 velocity=0 time=0
note_on channel=0 note=68 velocity=84 time=0
note_on channel=0 note=63 velocity=65 time=0
note_on channel=0 note=53 velocity=65 time=0
note_on channel=0 note=47 velocity=71 time=0
control_change channel=0 control=64 value=0 time=0
control_change channel=0 control=64 value=127 time=99
note_on channel=0 note=47 velocity=0 time=0
note_on channel=0 note=68 velocity=0 time=0
note_on channel=0 note=70 velocity=85 time=0
note_on channel=0 note=46 velocity=71 time=0
control_change channel=0 control=64 value=0 time=78
note_on channel=0 note=46 velocity=0 time=42
note_on channel=0 note=70 velocity=0 time=0
note_on channel=0 note=72 velocity=93 time=0
note_on channel=0 note=45 velocity=80 time=0
control_change channel=0 control=64 value=127 time=46
note_on channel=0 note=63 velocity=0 time=0
note_on channel=0 note=63 velocity=61 time=0
note_on channel=0 note=63 velocity=0 time=120
note_on channel=0 note=62 velocity=52 time=0
note_on channel=0 note=62 velocity=0 time=0
note_on channel=0 note=63 velocity=61 time=0
note_on channel=0 note=63 velocity=0 time=120
note_on channel=0 note=62 velocity=54 time=0
note_on channel=0 note=62 velocity=0 time=120
note_on channel=0 note=63 velocity=61 time=0
note_on channel=0 note=63 velocity=0 time=0
note_on channel=0 note=62 velocity=54 time=0
note_on channel=0 note=62 velocity=0 time=0
note_on channel=0 note=53 velocity=0 time=0
note_on channel=0 note=72 velocity=0 time=0
note_on channel=0 note=45 velocity=0 time=0
note_on channel=0 note=71 velocity=70 time=0
note_on channel=0 note=53 velocity=48 time=0
note_on channel=0 note=46 velocity=40 time=0
control_change channel=0 control=64 value=0 time=0
control_change channel=0 control=64 value=127 time=75
note_on channel=0 note=46 velocity=0 time=0
note_on channel=0 note=53 velocity=0 time=0
note_on channel=0 note=71 velocity=0 time=0
note_on channel=0 note=63 velocity=51 time=0
control_change channel=0 control=64 value=0 time=15
note_on channel=0 note=63 velocity=0 time=105
note_on channel=0 note=62 velocity=44 time=0
control_change channel=0 control=64 value=127 time=6
note_on channel=0 note=62 velocity=0 time=114
note_on channel=0 note=63 velocity=51 time=0
note_on channel=0 note=63 velocity=0 time=120
note_on channel=0 note=62 velocity=43 time=0
note_on channel=0 note=62 velocity=0 time=120
note_on channel=0 note=63 velocity=51 time=0
note_on channel=0 note=63 velocity=0 time=0
note_on channel=0 note=62 velocity=45 time=0
note_on channel=0 note=62 velocity=0 time=0
note_on channel=0 note=70 velocity=70 time=0
note_on channel=0 note=46 velocity=40 time=0
note_on channel=0 note=55 velocity=48 time=0
control_change channel=0 control=64 value=0 time=0
control_change channel=0 control=64 value=127 time=75
note_on channel=0 note=55 velocity=0 time=0
note_on channel=0 note=46 velocity=0 time=0
note_on channel=0 note=70 velocity=0 time=0
note_on channel=0 note=65 velocity=51 time=0
control_change channel=0 control=64 value=0 time=15
note_on channel=0 note=65 velocity=0 time=105
note_on channel=0 note=64 velocity=44 time=0
control_change channel=0 control=64 value=127 time=6
note_on channel=0 note=64 velocity=0 time=114
note_on channel=0 note=65 velocity=51 time=0
note_on channel=0 note=65 velocity=0 time=120
note_on channel=0 note=64 velocity=43 time=0
note_on channel=0 note=64 velocity=0 time=120
note_on channel=0 note=65 velocity=51 time=0
note_on channel=0 note=65 velocity=0 time=0
note_on channel=0 note=64 velocity=45 time=0
note_on channel=0 note=64 velocity=0 time=0
note_on channel=0 note=70 velocity=70 time=0
note_on channel=0 note=56 velocity=48 time=0
note_on channel=0 note=46 velocity=40 time=0
control_change channel=0 control=64 value=0 time=0
control_change channel=0 control=64 value=127 time=75
note_on channel=0 note=70 velocity=0 time=45
control_change channel=0 control=64 value=0 time=35
note_on channel=0 note=46 velocity=0 time=0
note_on channel=0 note=56 velocity=0 time=0
note_on channel=0 note=67 velocity=51 time=0
control_change channel=0 control=64 value=127 time=92
note_on channel=0 note=67 velocity=0 time=0
note_on channel=0 note=65 velocity=44 time=0
note_on channel=0 note=65 velocity=0 time=0
note_on channel=0 note=70 velocity=70 time=0
note_on channel=0 note=55 velocity=48 time=0
note_on channel=0 note=46 velocity=40 time=0
control_change channel=0 control=64 value=0 time=0
control_change channel=0 control=64 value=127 time=75
note_on channel=0 note=70 velocity=0 time=45
control_change channel=0 control=64 value=0 time=35
note_on channel=0 note=46 velocity=0 time=0
note_on channel=0 note=55 velocity=0 time=0
note_on channel=0 note=65 velocity=51 time=0
control_change channel=0 control=64 value=127 time=71
note_on channel=0 note=65 velocity=0 time=0
note_on channel=0 note=63 velocity=44 time=0
note_on channel=0 note=63 velocity=0 time=0
note_on channel=0 note=70 velocity=70 time=0
note_on channel=0 note=53 velocity=48 time=0
note_on channel=0 note=46 velocity=40 time=0
control_change channel=0 control=64 value=0 time=0
control_change channel=0 control=64 value=127 time=75
note_on channel=0 note=70 velocity=0 time=45
control_change channel=0 control=64 value=0 time=35
note_on channel=0 note=46 velocity=0 time=0
note_on channel=0 note=53 velocity=0 time=0
note_on channel=0 note=63 velocity=51 time=0
control_change channel=0 control=64 value=127 time=92
note_on channel=0 note=63 velocity=0 time=0
note_on channel=0 note=62 velocity=44 time=0
note_on channel=0 note=62 velocity=0 time=0
note_on channel=0 note=70 velocity=70 time=0
note_on channel=0 note=46 velocity=40 time=0
note_on channel=0 note=55 velocity=48 time=0
control_change channel=0 control=64 value=0 time=0
control_change channel=0 control=64 value=127 time=75
note_on channel=0 note=70 velocity=0 time=45
control_change channel=0 control=64 value=0 time=35
note_on channel=0 note=55 velocity=0 time=0
note_on channel=0 note=46 velocity=0 time=0
note_on channel=0 note=65 velocity=51 time=0
control_change channel=0 control=64 value=127 time=71
note_on channel=0 note=65 velocity=0 time=0
note_on channel=0 note=63 velocity=44 time=0
note_on channel=0 note=63 velocity=0 time=0
note_on channel=0 note=83 velocity=70 time=0
note_on channel=0 note=58 velocity=40 time=0
note_on channel=0 note=65 velocity=48 time=0
control_change channel=0 control=64 value=0 time=0
control_change channel=0 control=64 value=127 time=75
note_on channel=0 note=65 velocity=0 time=0
note_on channel=0 note=58 velocity=0 time=0
note_on channel=0 note=83 velocity=0 time=0
note_on channel=0 note=75 velocity=51 time=0
control_change channel=0 control=64 value=0 time=15
note_on channel=0 note=75 velocity=0 time=105
note_on channel=0 note=74 velocity=44 time=0
control_change channel=0 control=64 value=127 time=6
note_on channel=0 note=74 velocity=0 time=114
note_on channel=0 note=75 velocity=51 time=0
note_on channel=0 note=75 velocity=0 time=120
note_on channel=0 note=74 velocity=43 time=0
note_on channel=0 note=74 velocity=0 time=120
note_on channel=0 note=75 velocity=51 time=0
note_on channel=0 note=75 velocity=0 time=0
note_on channel=0 note=74 velocity=45 time=0
note_on channel=0 note=74 velocity=0 time=0
note_on channel=0 note=82 velocity=70 time=0
note_on channel=0 note=58 velocity=40 time=0
note_on channel=0 note=67 velocity=48 time=0
control_change channel=0 control=64 value=0 time=0
control_change channel=0 control=64 value=127 time=75
note_on channel=0 note=67 velocity=0 time=0
note_on channel=0 note=58 velocity=0 time=0
note_on channel=0 note=82 velocity=0 time=0
note_on channel=0 note=77 velocity=51 time=0
control_change channel=0 control=64 value=0 time=15
note_on channel=0 note=77 velocity=0 time=105
note_on channel=0 note=76 velocity=44 time=0
control_change channel=0 control=64 value=127 time=6
note_on channel=0 note=76 velocity=0 time=114
note_on channel=0 note=77 velocity=51 time=0
note_on channel=0 note=77 velocity=0 time=120
note_on channel=0 note=76 velocity=43 time=0
note_on channel=0 note=76 velocity=0 time=120
note_on channel=0 note=77 velocity=51 time=0
note_on channel=0 note=77 velocity=0 time=0
note_on channel=0 note=76 velocity=45 time=0
note_on channel=0 note=76 velocity=0 time=0
note_on channel=0 note=82 velocity=70 time=0
note_on channel=0 note=58 velocity=40 time=0
note_on channel=0 note=68 velocity=48 time=0
control_change channel=0 control=64 value=0 time=0
control_change channel=0 control=64 value=127 time=75
note_on channel=0 note=82 velocity=0 time=45
control_change channel=0 control=64 value=0 time=35
note_on channel=0 note=68 velocity=0 time=0
note_on channel=0 note=58 velocity=0 time=0
note_on channel=0 note=79 velocity=51 time=0
control_change channel=0 control=64 value=127 time=92
note_on channel=0 note=79 velocity=0 time=0
note_on channel=0 note=77 velocity=44 time=0
note_on channel=0 note=77 velocity=0 time=0
note_on channel=0 note=82 velocity=70 time=0
note_on channel=0 note=58 velocity=40 time=0
note_on channel=0 note=67 velocity=48 time=0
control_change channel=0 control=64 value=0 time=0
control_change channel=0 control=64 value=127 time=75
note_on channel=0 note=82 velocity=0 time=45
control_change channel=0 control=64 value=0 time=35
note_on channel=0 note=67 velocity=0 time=0
note_on channel=0 note=58 velocity=0 time=0
note_on channel=0 note=77 velocity=51 time=0
control_change channel=0 control=64 value=127 time=71
note_on channel=0 note=77 velocity=0 time=0
note_on channel=0 note=76 velocity=44 time=0
note_on channel=0 note=76 velocity=0 time=0
note_on channel=0 note=82 velocity=70 time=0
note_on channel=0 note=58 velocity=40 time=0
note_on channel=0 note=68 velocity=48 time=0
control_change channel=0 control=64 value=0 time=0
control_change channel=0 control=64 value=127 time=75
note_on channel=0 note=82 velocity=0 time=45
control_change channel=0 control=64 value=0 time=35
note_on channel=0 note=68 velocity=0 time=0
note_on channel=0 note=58 velocity=0 time=0
note_on channel=0 note=79 velocity=51 time=0
control_change channel=0 control=64 value=127 time=92
note_on channel=0 note=79 velocity=0 time=0
note_on channel=0 note=77 velocity=44 time=0
note_on channel=0 note=77 velocity=0 time=0
note_on channel=0 note=82 velocity=64 time=0
note_on channel=0 note=58 velocity=48 time=0
control_change channel=0 control=64 value=0 time=0
control_change channel=0 control=64 value=127 time=75
control_change channel=0 control=64 value=0 time=80
note_on channel=0 note=58 velocity=0 time=0
note_on channel=0 note=82 velocity=0 time=0
note_on channel=0 note=80 velocity=70 time=0
note_on channel=0 note=77 velocity=59 time=0
note_on channel=0 note=60 velocity=38 time=0
control_change channel=0 control=64 value=127 time=71
note_on channel=0 note=60 velocity=0 time=0
note_on channel=0 note=62 velocity=40 time=0
note_on channel=0 note=62 velocity=0 time=0
note_on channel=0 note=70 velocity=45 time=0
note_on channel=0 note=63 velocity=42 time=0
control_change channel=0 control=64 value=0 time=0
note_on channel=0 note=63 velocity=0 time=0
note_on channel=0 note=65 velocity=44 time=0
note_on channel=0 note=65 velocity=0 time=120
note_on channel=0 note=77 velocity=0 time=0
note_on channel=0 note=80 velocity=0 time=0
note_on channel=0 note=79 velocity=65 time=0
note_on channel=0 note=75 velocity=55 time=0
note_on channel=0 note=67 velocity=46 time=0
note_on channel=0 note=67 velocity=0 time=0
note_on channel=0 note=68 velocity=48 time=0
note_on channel=0 note=68 velocity=0 time=0
note_on channel=0 note=75 velocity=0 time=0
note_on channel=0 note=79 velocity=0 time=0
note_on channel=0 note=70 velocity=0 time=0
note_on channel=0 note=77 velocity=65 time=0
note_on channel=0 note=74 velocity=55 time=0
note_on channel=0 note=70 velocity=50 time=0
note_on channel=0 note=70 velocity=0 time=0
note_on channel=0 note=74 velocity=0 time=0
note_on channel=0 note=77 velocity=0 time=0
note_on channel=0 note=89 velocity=59 time=0
note_on channel=0 note=92 velocity=70 time=0
note_on channel=0 note=72 velocity=38 time=0
control_change channel=0 control=64 value=127 time=71
note_on channel=0 note=72 velocity=0 time=0
note_on channel=0 note=74 velocity=40 time=0
note_on channel=0 note=74 velocity=0 time=0
note_on channel=0 note=82 velocity=45 time=0
note_on channel=0 note=75 velocity=42 time=0
control_change channel=0 control=64 value=0 time=0
note_on channel=0 note=75 velocity=0 time=0
note_on channel=0 note=77 velocity=44 time=0
note_on channel=0 note=77 velocity=0 time=120
note_on channel=0 note=92 velocity=0 time=0
note_on channel=0 note=89 velocity=0 time=0
note_on channel=0 note=87 velocity=55 time=0
note_on channel=0 note=91 velocity=65 time=0
note_on channel=0 note=79 velocity=46 time=0
note_on channel=0 note=79 velocity=0 time=0
note_on channel=0 note=80 velocity=48 time=0
note_on channel=0 note=80 velocity=0 time=0
note_on channel=0 note=91 velocity=0 time=0
note_on channel=0 note=87 velocity=0 time=0
note_on channel=0 note=82 velocity=0 time=0
note_on channel=0 note=89 velocity=65 time=0
note_on channel=0 note=86 velocity=55 time=0
note_on channel=0 note=82 velocity=50 time=0
note_on channel=0 note=82 velocity=0 time=0
note_on channel=0 note=86 velocity=0 time=0
note_on channel=0 note=89 velocity=0 time=0
note_on channel=0 note=86 velocity=64 time=0
note_on channel=0 note=89 velocity=64 time=0
note_on channel=0 note=96 velocity=77 time=0
note_on channel=0 note=80 velocity=47 time=0
control_change channel=0 control=64 value=127 time=71
note_on channel=0 note=80 velocity=0 time=0
note_on channel=0 note=86 velocity=0 time=0
note_on channel=0 note=89 velocity=0 time=0
note_on channel=0 note=87 velocity=65 time=0
note_on channel=0 note=82 velocity=65 time=0
note_on channel=0 note=79 velocity=56 time=0
control_change channel=0 control=64 value=0 time=0
note_on channel=0 note=79 velocity=0 time=120
note_on channel=0 note=96 velocity=0 time=0
note_on channel=0 note=87 velocity=0 time=0
note_on channel=0 note=82 velocity=0 time=0
note_on channel=0 note=94 velocity=75 time=0
note_on channel=0 note=87 velocity=63 time=0
note_on channel=0 note=82 velocity=63 time=0
note_on channel=0 note=78 velocity=46 time=0
note_on channel=0 note=78 velocity=0 time=0
note_on channel=0 note=94 velocity=0 time=0
note_on channel=0 note=87 velocity=0 time=0
note_on channel=0 note=82 velocity=0 time=0
note_on channel=0 note=87 velocity=69 time=0
note_on channel=0 note=84 velocity=69 time=0
note_on channel=0 note=77 velocity=55 time=0
note_on channel=0 note=77 velocity=0 time=240
note_on channel=0 note=84 velocity=0 time=0
note_on channel=0 note=87 velocity=0 time=0
note_on channel=0 note=92 velocity=79 time=0
note_on channel=0 note=89 velocity=67 time=0
note_on channel=0 note=86 velocity=67 time=0
note_on channel=0 note=70 velocity=47 time=0
note_on channel=0 note=70 velocity=0 time=0
note_on channel=0 note=92 velocity=0 time=0
note_on channel=0 note=89 velocity=0 time=0
note_on channel=0 note=86 velocity=0 time=0
note_on channel=0 note=79 velocity=70 time=0
note_on channel=0 note=91 velocity=88 time=0
note_on channel=0 note=63 velocity=39 time=0
control_change channel=0 control=64 value=127 time=0
note_on channel=0 note=82 velocity=49 time=120
note_on channel=0 note=82 velocity=0 time=0
note_on channel=0 note=84 velocity=55 time=0
note_on channel=0 note=66 velocity=39 time=0
note_on channel=0 note=69 velocity=39 time=0
note_on channel=0 note=84 velocity=0 time=120
note_on channel=0 note=82 velocity=50 time=0
note_on channel=0 note=82 velocity=0 time=120
note_on channel=0 note=84 velocity=55 time=0
note_on channel=0 note=84 velocity=0 time=120
note_on channel=0 note=82 velocity=47 time=0
note_on channel=0 note=82 velocity=0 time=0
note_on channel=0 note=69 velocity=0 time=0
note_on channel=0 note=66 velocity=0 time=0
note_on channel=0 note=84 velocity=55 time=0
note_on channel=0 note=67 velocity=39 time=0
note_on channel=0 note=70 velocity=39 time=0
control_change channel=0 control=64 value=0 time=12
control_change channel=0 control=64 value=127 time=94
note_on channel=0 note=84 velocity=0 time=14
note_on channel=0 note=82 velocity=48 time=0
note_on channel=0 note=82 velocity=0 time=0
note_on channel=0 note=70 velocity=0 time=0
note_on channel=0 note=63 velocity=0 time=0
note_on channel=0 note=91 velocity=0 time=0
note_on channel=0 note=79 velocity=0 time=0
note_on channel=0 note=67 velocity=0 time=0
note_on channel=0 note=77 velocity=70 time=0
note_on channel=0 note=89 velocity=80 time=0
note_on channel=0 note=63 velocity=39 time=0
control_change channel=0 control=64 value=0 time=0
control_change channel=0 control=64 value=127 time=106
note_on channel=0 note=80 velocity=46 time=14
note_on channel=0 note=80 velocity=0 time=0
note_on channel=0 note=82 velocity=54 time=0
note_on channel=0 note=74 velocity=39 time=0
note_on channel=0 note=71 velocity=39 time=0
note_on channel=0 note=82 velocity=0 time=120
note_on channel=0 note=80 velocity=50 time=0
note_on channel=0 note=80 velocity=0 time=120
note_on channel=0 note=82 velocity=53 time=0
note_on channel=0 note=82 velocity=0 time=120
note_on channel=0 note=80 velocity=47 time=0
note_on channel=0 note=80 velocity=0 time=0
note_on channel=0 note=71 velocity=0 time=0
note_on channel=0 note=74 velocity=0 time=0
note_on channel=0 note=82 velocity=53 time=0
note_on channel=0 note=70 velocity=39 time=0
control_change channel=0 control=64 value=0 time=11
control_change channel=0 control=64 value=127 time=95
note_on channel=0 note=82 velocity=0 time=14
note_on channel=0 note=80 velocity=48 time=0
note_on channel=0 note=80 velocity=0 time=0
note_on channel=0 note=70 velocity=0 time=0
note_on channel=0 note=89 velocity=0 time=0
note_on channel=0 note=77 velocity=0 time=0
note_on channel=0 note=63 velocity=0 time=0
note_on channel=0 note=87 velocity=70 time=0
note_on channel=0 note=79 velocity=53 time=0
note_on channel=0 note=63 velocity=39 time=0
control_change channel=0 control=64 value=0 time=40
note_on channel=0 note=79 velocity=0 time=80
note_on channel=0 note=75 velocity=48 time=0
control_change channel=0 control=64 value=127 time=7
note_on channel=0 note=75 velocity=0 time=113
note_on channel=0 note=77 velocity=53 time=0
note_on channel=0 note=67 velocity=33 time=0
note_on channel=0 note=70 velocity=39 time=0
note_on channel=0 note=77 velocity=0 time=120
note_on channel=0 note=75 velocity=48 time=0
note_on channel=0 note=75 velocity=0 time=0
note_on channel=0 note=70 velocity=0 time=0
note_on channel=0 note=67 velocity=0 time=0
note_on channel=0 note=87 velocity=0 time=0
note_on channel=0 note=84 velocity=68 time=0
note_on channel=0 note=72 velocity=39 time=0
note_on channel=0 note=68 velocity=33 time=0
control_change channel=0 control=64 value=0 time=12
control_change channel=0 control=64 value=127 time=101
note_on channel=0 note=75 velocity=48 time=7
note_on channel=0 note=75 velocity=0 time=120
note_on channel=0 note=72 velocity=0 time=0
note_on channel=0 note=68 velocity=0 time=0
note_on channel=0 note=84 velocity=0 time=0
note_on channel=0 note=82 velocity=60 time=0
note_on channel=0 note=67 velocity=30 time=0
note_on channel=0 note=70 velocity=39 time=0
control_change channel=0 control=64 value=0 time=12
control_change channel=0 control=64 value=127 time=73
note_on channel=0 note=75 velocity=48 time=0
note_on channel=0 note=75 velocity=0 time=0
note_on channel=0 note=67 velocity=0 time=0
note_on channel=0 note=63 velocity=0 time=0
note_on channel=0 note=82 velocity=0 time=0
note_on channel=0 note=70 velocity=0 time=0
note_on channel=0 note=82 velocity=68 time=0
note_on channel=0 note=75 velocity=53 time=0
note_on channel=0 note=67 velocity=39 time=0
note_on channel=0 note=58 velocity=39 time=0
control_change channel=0 control=64 value=0 time=5
control_change channel=0 control=64 value=127 time=64
note_on channel=0 note=75 velocity=0 time=51
note_on channel=0 note=70 velocity=48 time=0
note_on channel=0 note=70 velocity=0 time=0
note_on channel=0 note=82 velocity=0 time=0
note_on channel=0 note=67 velocity=0 time=0
note_on channel=0 note=74 velocity=53 time=0
note_on channel=0 note=80 velocity=58 time=0
note_on channel=0 note=65 velocity=33 time=0
note_on channel=0 note=68 velocity=39 time=0
control_change channel=0 control=64 value=0 time=11
control_change channel=0 control=64 value=127 time=69
note_on channel=0 note=74 velocity=0 time=40
note_on channel=0 note=70 velocity=48 time=0
note_on channel=0 note=70 velocity=0 time=0
note_on channel=0 note=68 velocity=0 time=0
note_on channel=0 note=65 velocity=0 time=0
note_on channel=0 note=80 velocity=0 time=0
note_on channel=0 note=75 velocity=53 time=0
note_on channel=0 note=79 velocity=66 time=0
note_on channel=0 note=67 velocity=39 time=0
note_on channel=0 note=63 velocity=33 time=0
control_change channel=0 control=64 value=0 time=11
control_change channel=0 control=64 value=127 time=52
note_on channel=0 note=75 velocity=0 time=57
note_on channel=0 note=70 velocity=48 time=0
note_on channel=0 note=70 velocity=0 time=0
note_on channel=0 note=63 velocity=0 time=0
note_on channel=0 note=67 velocity=0 time=0
note_on channel=0 note=79 velocity=0 time=0
note_on channel=0 note=68 velocity=53 time=0
note_on channel=0 note=77 velocity=57 time=0
note_on channel=0 note=62 velocity=30 time=0
note_on channel=0 note=65 velocity=39 time=0
control_change channel=0 control=64 value=0 time=11
control_change channel=0 control=64 value=127 time=58
note_on channel=0 note=68 velocity=0 time=51
note_on channel=0 note=70 velocity=48 time=0
note_on channel=0 note=70 velocity=0 time=0
note_on channel=0 note=65 velocity=0 time=0
note_on channel=0 note=58 velocity=0 time=0
note_on channel=0 note=77 velocity=0 time=0
note_on channel=0 note=62 velocity=0 time=0
note_on channel=0 note=67 velocity=65 time=0
note_on channel=0 note=79 velocity=79 time=0
note_on channel=0 note=51 velocity=35 time=0
control_change channel=0 control=64 value=0 time=8
control_change channel=0 control=64 value=127 time=84
note_on channel=0 note=70 velocity=44 time=28
note_on channel=0 note=70 velocity=0 time=0
note_on channel=0 note=72 velocity=49 time=0
note_on channel=0 note=54 velocity=38 time=0
note_on channel=0 note=57 velocity=53 time=0
note_on channel=0 note=72 velocity=0 time=120
note_on channel=0 note=70 velocity=45 time=0
note_on channel=0 note=70 velocity=0 time=120
note_on channel=0 note=72 velocity=49 time=0
note_on channel=0 note=72 velocity=0 time=120
note_on channel=0 note=70 velocity=42 time=0
note_on channel=0 note=70 velocity=0 time=0
note_on channel=0 note=57 velocity=0 time=0
note_on channel=0 note=54 velocity=0 time=0
note_on channel=0 note=72 velocity=49 time=0
note_on channel=0 note=58 velocity=35 time=0
note_on channel=0 note=55 velocity=35 time=0
control_change channel=0 control=64 value=0 time=12
control_change channel=0 control=64 value=127 time=94
note_on channel=0 note=72 velocity=0 time=14
note_on channel=0 note=70 velocity=43 time=0
note_on channel=0 note=70 velocity=0 time=0
note_on channel=0 note=55 velocity=0 time=0
note_on channel=0 note=51 velocity=0 time=0
note_on channel=0 note=79 velocity=0 time=0
note_on channel=0 note=67 velocity=0 time=0
note_on channel=0 note=58 velocity=0 time=0
note_on channel=0 note=65 velocity=65 time=0
note_on channel=0 note=77 velocity=72 time=0
note_on channel=0 note=51 velocity=35 time=0
control_change channel=0 control=64 value=0 time=0
control_change channel=0 control=64 value=127 time=106
note_on channel=0 note=68 velocity=41 time=14
note_on channel=0 note=68 velocity=0 time=0
note_on channel=0 note=70 velocity=48 time=0
note_on channel=0 note=59 velocity=38 time=0
note_on channel=0 note=62 velocity=50 time=0
note_on channel=0 note=70 velocity=0 time=120
note_on channel=0 note=68 velocity=45 time=0
note_on channel=0 note=68 velocity=0 time=120
note_on channel=0 note=70 velocity=47 time=0
note_on channel=0 note=70 velocity=0 time=120
note_on channel=0 note=68 velocity=42 time=0
note_on channel=0 note=68 velocity=0 time=0
note_on channel=0 note=62 velocity=0 time=0
note_on channel=0 note=59 velocity=0 time=0
note_on channel=0 note=70 velocity=47 time=0
note_on channel=0 note=58 velocity=35 time=0
control_change channel=0 control=64 value=0 time=11
control_change channel=0 control=64 value=127 time=95
note_on channel=0 note=70 velocity=0 time=14
note_on channel=0 note=68 velocity=43 time=0
note_on channel=0 note=68 velocity=0 time=0
note_on channel=0 note=58 velocity=0 time=0
note_on channel=0 note=77 velocity=0 time=0
note_on channel=0 note=65 velocity=0 time=0
note_on channel=0 note=51 velocity=0 time=0
note_on channel=0 note=67 velocity=47 time=0
note_on channel=0 note=75 velocity=63 time=0
note_on channel=0 note=51 velocity=29 time=0
note_on channel=0 note=55 velocity=29 time=0
note_on channel=0 note=58 velocity=35 time=0
control_change channel=0 control=64 value=0 time=40
note_on channel=0 note=67 velocity=0 time=80
note_on channel=0 note=63 velocity=43 time=0
control_change channel=0 control=64 value=127 time=7
note_on channel=0 note=63 velocity=0 time=0
note_on channel=0 note=65 velocity=47 time=0
note_on channel=0 note=65 velocity=0 time=120
note_on channel=0 note=63 velocity=43 time=0
note_on channel=0 note=63 velocity=0 time=0
note_on channel=0 note=58 velocity=0 time=0
note_on channel=0 note=75 velocity=0 time=0
note_on channel=0 note=51 velocity=0 time=0
note_on channel=0 note=55 velocity=0 time=0
note_on channel=0 note=72 velocity=61 time=0
note_on channel=0 note=60 velocity=47 time=0
note_on channel=0 note=68 velocity=51 time=0
note_on channel=0 note=56 velocity=35 time=0
note_on channel=0 note=44 velocity=29 time=0
note_on channel=0 note=51 velocity=29 time=0
control_change channel=0 control=64 value=0 time=12
control_change channel=0 control=64 value=127 time=101
note_on channel=0 note=60 velocity=0 time=7
note_on channel=0 note=63 velocity=43 time=0
note_on channel=0 note=63 velocity=0 time=120
note_on channel=0 note=51 velocity=0 time=0
note_on channel=0 note=56 velocity=0 time=0
note_on channel=0 note=72 velocity=0 time=0
note_on channel=0 note=68 velocity=0 time=0
note_on channel=0 note=44 velocity=0 time=0
note_on channel=0 note=67 velocity=45 time=0
note_on channel=0 note=58 velocity=47 time=0
note_on channel=0 note=70 velocity=54 time=0
note_on channel=0 note=39 velocity=27 time=0
note_on channel=0 note=51 velocity=35 time=0
control_change channel=0 control=64 value=0 time=12
control_change channel=0 control=64 value=127 time=73
note_on channel=0 note=58 velocity=0 time=0
note_on channel=0 note=63 velocity=43 time=0
note_on channel=0 note=63 velocity=0 time=0
note_on channel=0 note=51 velocity=0 time=0
note_on channel=0 note=67 velocity=0 time=0
note_on channel=0 note=70 velocity=0 time=0
note_on channel=0 note=39 velocity=0 time=0
note_on channel=0 note=67 velocity=47 time=0
note_on channel=0 note=70 velocity=61 time=0
note_on channel=0 note=34 velocity=35 time=0
control_change channel=0 control=64 value=0 time=5
control_change channel=0 control=64 value=127 time=64
note_on channel=0 note=67 velocity=0 time=51
note_on channel=0 note=58 velocity=43 time=0
note_on channel=0 note=58 velocity=0 time=0
note_on channel=0 note=34 velocity=0 time=0
note_on channel=0 note=70 velocity=0 time=0
note_on channel=0 note=68 velocity=52 time=0
note_on channel=0 note=65 velocity=47 time=0
note_on channel=0 note=46 velocity=35 time=0
control_change channel=0 control=64 value=0 time=11
control_change channel=0 control=64 value=127 time=69
note_on channel=0 note=65 velocity=0 time=40
note_on channel=0 note=56 velocity=43 time=0
note_on channel=0 note=56 velocity=0 time=0
note_on channel=0 note=46 velocity=0 time=0
note_on channel=0 note=68 velocity=0 time=0
note_on channel=0 note=67 velocity=59 time=0
note_on channel=0 note=63 velocity=47 time=0
note_on channel=0 note=34 velocity=35 time=0
control_change channel=0 control=64 value=0 time=11
control_change channel=0 control=64 value=127 time=52
note_on channel=0 note=63 velocity=0 time=57
note_on channel=0 note=55 velocity=43 time=0
note_on channel=0 note=55 velocity=0 time=0
note_on channel=0 note=34 velocity=0 time=0
note_on channel=0 note=67 velocity=0 time=0
note_on channel=0 note=65 velocity=51 time=0
note_on channel=0 note=62 velocity=51 time=0
note_on channel=0 note=46 velocity=35 time=0
control_change channel=0 control=64 value=0 time=11
control_change channel=0 control=64 value=127 time=58
note_on channel=0 note=53 velocity=43 time=51
note_on channel=0 note=53 velocity=0 time=0
note_on channel=0 note=65 velocity=0 time=0
note_on channel=0 note=62 velocity=0 time=0
note_on channel=0 note=46 velocity=0 time=0
note_on channel=0 note=63 velocity=57 time=0
note_on channel=0 note=51 velocity=43 time=0
note_on channel=0 note=39 velocity=43 time=0
control_change channel=0 control=64 value=0 time=7
control_change channel=0 control=64 value=127 time=96
note_on channel=0 note=59 velocity=46 time=0
note_on channel=0 note=55 velocity=55 time=120
note_on channel=0 note=39 velocity=0 time=120
note_on channel=0 note=51 velocity=0 time=0
note_on channel=0 note=47 velocity=39 time=0
note_on channel=0 note=47 velocity=0 time=120
note_on channel=0 note=55 velocity=0 time=0
note_on channel=0 note=59 velocity=0 time=0
note_on channel=0 note=46 velocity=45 time=0
control_change channel=0 control=64 value=0 time=8
control_change channel=0 control=64 value=127 time=78
note_on channel=0 note=63 velocity=0 time=34
note_on channel=0 note=58 velocity=47 time=10
note_on channel=0 note=46 velocity=0 time=110
note_on channel=0 note=55 velocity=47 time=0
note_on channel=0 note=39 velocity=38 time=0
note_on channel=0 note=58 velocity=0 time=10
note_on channel=0 note=55 velocity=0 time=0
note_on channel=0 note=63 velocity=47 time=0
note_on channel=0 note=39 velocity=0 time=0
note_on channel=0 note=58 velocity=47 time=0
note_on channel=0 note=34 velocity=55 time=0
control_change channel=0 control=64 value=0 time=0
note_on channel=0 note=63 velocity=0 time=120
note_on channel=0 note=63 velocity=47 time=0
note_on channel=0 note=63 velocity=0 time=120
note_on channel=0 note=34 velocity=0 time=0
note_on channel=0 note=62 velocity=51 time=0
note_on channel=0 note=56 velocity=44 time=0
note_on channel=0 note=56 velocity=0 time=120
note_on channel=0 note=62 velocity=0 time=0
note_on channel=0 note=63 velocity=49 time=0
note_on channel=0 note=55 velocity=36 time=0
note_on channel=0 note=55 velocity=0 time=0
note_on channel=0 note=63 velocity=0 time=0
note_on channel=0 note=58 velocity=0 time=0
note_on channel=0 note=65 velocity=52 time=0
note_on channel=0 note=53 velocity=43 time=0
control_change channel=0 control=64 value=127 time=69
note_on channel=0 note=53 velocity=0 time=51
note_on channel=0 note=65 velocity=0 time=0
note_on channel=0 note=67 velocity=44 time=0
note_on channel=0 note=51 velocity=39 time=0
note_on channel=0 note=51 velocity=0 time=120
note_on channel=0 note=67 velocity=0 time=0
note_on channel=0 note=68 velocity=51 time=0
note_on channel=0 note=50 velocity=39 time=0
note_on channel=0 note=46 velocity=39 time=0
control_change channel=0 control=64 value=0 time=12
control_change channel=0 control=64 value=127 time=63
note_on channel=0 note=50 velocity=0 time=0
note_on channel=0 note=68 velocity=0 time=0
note_on channel=0 note=65 velocity=47 time=0
note_on channel=0 note=58 velocity=39 time=0
note_on channel=0 note=58 velocity=0 time=0
note_on channel=0 note=65 velocity=0 time=0
note_on channel=0 note=46 velocity=0 time=0
note_on channel=0 note=75 velocity=57 time=0
note_on channel=0 note=51 velocity=43 time=0
control_change channel=0 control=64 value=0 time=7
control_change channel=0 control=64 value=127 time=96
note_on channel=0 note=71 velocity=46 time=0
note_on channel=0 note=67 velocity=55 time=120
note_on channel=0 note=51 velocity=0 time=120
note_on channel=0 note=59 velocity=39 time=0
note_on channel=0 note=59 velocity=0 time=120
note_on channel=0 note=67 velocity=0 time=0
note_on channel=0 note=71 velocity=0 time=0
note_on channel=0 note=58 velocity=45 time=0
control_change channel=0 control=64 value=0 time=8
control_change channel=0 control=64 value=127 time=78
note_on channel=0 note=75 velocity=0 time=34
note_on channel=0 note=70 velocity=47 time=10
note_on channel=0 note=58 velocity=0 time=110
note_on channel=0 note=67 velocity=47 time=0
note_on channel=0 note=51 velocity=38 time=0
note_on channel=0 note=70 velocity=0 time=10
note_on channel=0 note=67 velocity=0 time=0
note_on channel=0 note=75 velocity=47 time=0
note_on channel=0 note=51 velocity=0 time=0
note_on channel=0 note=70 velocity=47 time=0
note_on channel=0 note=46 velocity=55 time=0
control_change channel=0 control=64 value=0 time=0
note_on channel=0 note=75 velocity=0 time=120
note_on channel=0 note=75 velocity=47 time=0
note_on channel=0 note=75 velocity=0 time=120
note_on channel=0 note=46 velocity=0 time=0
note_on channel=0 note=74 velocity=51 time=0
note_on channel=0 note=68 velocity=44 time=0
note_on channel=0 note=68 velocity=0 time=120
note_on channel=0 note=74 velocity=0 time=0
note_on channel=0 note=75 velocity=49 time=0
note_on channel=0 note=67 velocity=36 time=0
note_on channel=0 note=67 velocity=0 time=0
note_on channel=0 note=75 velocity=0 time=0
note_on channel=0 note=70 velocity=0 time=0
note_on channel=0 note=77 velocity=52 time=0
note_on channel=0 note=65 velocity=43 time=0
control_change channel=0 control=64 value=127 time=69
note_on channel=0 note=65 velocity=0 time=51
note_on channel=0 note=77 velocity=0 time=0
note_on channel=0 note=79 velocity=44 time=0
note_on channel=0 note=63 velocity=39 time=0
note_on channel=0 note=63 velocity=0 time=120
note_on channel=0 note=79 velocity=0 time=0
note_on channel=0 note=80 velocity=51 time=0
note_on channel=0 note=58 velocity=39 time=0
note_on channel=0 note=62 velocity=39 time=0
control_change channel=0 control=64 value=0 time=12
control_change channel=0 control=64 value=127 time=63
note_on channel=0 note=62 velocity=0 time=0
note_on channel=0 note=58 velocity=0 time=0
note_on channel=0 note=80 velocity=0 time=0
note_on channel=0 note=77 velocity=47 time=0
note_on channel=0 note=65 velocity=39 time=0
note_on channel=0 note=65 velocity=0 time=0
note_on channel=0 note=77 velocity=0 time=0
note_on channel=0 note=79 velocity=51 time=0
note_on channel=0 note=63 velocity=39 time=0
note_on channel=0 note=67 velocity=39 time=0
control_change channel=0 control=64 value=0 time=0
control_change channel=0 control=64 value=127 time=78
note_on channel=0 note=79 velocity=0 time=0
note_on channel=0 note=77 velocity=42 time=0
note_on channel=0 note=77 velocity=0 time=120
note_on channel=0 note=75 velocity=49 time=0
note_on channel=0 note=67 velocity=0 time=120
note_on channel=0 note=63 velocity=0 time=0
note_on channel=0 note=65 velocity=33 time=0
control_change channel=0 control=64 value=0 time=4
note_on channel=0 note=65 velocity=0 time=0
note_on channel=0 note=63 velocity=39 time=0
note_on channel=0 note=75 velocity=0 time=0
note_on channel=0 note=72 velocity=41 time=0
control_change channel=0 control=64 value=127 time=7
note_on channel=0 note=72 velocity=0 time=0
note_on channel=0 note=70 velocity=48 time=0
note_on channel=0 note=63 velocity=0 time=120
note_on channel=0 note=60 velocity=34 time=0
control_change channel=0 control=64 value=0 time=25
note_on channel=0 note=60 velocity=0 time=95
note_on channel=0 note=58 velocity=39 time=0
control_change channel=0 control=64 value=127 time=99
note_on channel=0 note=70 velocity=0 time=21
note_on channel=0 note=68 velocity=42 time=0
note_on channel=0 note=68 velocity=0 time=0
note_on channel=0 note=67 velocity=48 time=0
note_on channel=0 note=58 velocity=0 time=0
note_on channel=0 note=56 velocity=35 time=0
control_change channel=0 control=64 value=0 time=7
note_on channel=0 note=56 velocity=0 time=113
note_on channel=0 note=55 velocity=39 time=0
note_on channel=0 note=67 velocity=0 time=120
note_on channel=0 note=65 velocity=42 time=0
control_change channel=0 control=64 value=127 time=7
note_on channel=0 note=65 velocity=0 time=113
note_on channel=0 note=63 velocity=47 time=0
note_on channel=0 note=55 velocity=0 time=0
note_on channel=0 note=53 velocity=33 time=0
control_change channel=0 control=64 value=0 time=19
note_on channel=0 note=53 velocity=0 time=0
note_on channel=0 note=51 velocity=39 time=0
control_change channel=0 control=64 value=127 time=78
note_on channel=0 note=63 velocity=0 time=42
note_on channel=0 note=60 velocity=41 time=0
note_on channel=0 note=60 velocity=0 time=120
note_on channel=0 note=58 velocity=47 time=0
note_on channel=0 note=51 velocity=0 time=0
note_on channel=0 note=48 velocity=31 time=0
control_change channel=0 control=64 value=0 time=7
note_on channel=0 note=48 velocity=0 time=0
note_on channel=0 note=46 velocity=39 time=0
control_change channel=0 control=64 value=127 time=99
note_on channel=0 note=58 velocity=0 time=21
note_on channel=0 note=56 velocity=38 time=0
note_on channel=0 note=56 velocity=0 time=120
note_on channel=0 note=55 velocity=43 time=0
note_on channel=0 note=46 velocity=0 time=0
note_on channel=0 note=44 velocity=34 time=0
control_change channel=0 control=64 value=0 time=21
note_on channel=0 note=44 velocity=0 time=0
note_on channel=0 note=43 velocity=39 time=0
control_change channel=0 control=64 value=127 time=85
note_on channel=0 note=55 velocity=0 time=35
note_on channel=0 note=53 velocity=37 time=0
note_on channel=0 note=53 velocity=0 time=120
note_on channel=0 note=51 velocity=44 time=0
note_on channel=0 note=43 velocity=0 time=0
note_on channel=0 note=41 velocity=35 time=0
control_change channel=0 control=64 value=0 time=16
note_on channel=0 note=41 velocity=0 time=0
note_on channel=0 note=39 velocity=39 time=0
note_on channel=0 note=51 velocity=0 time=120
note_on channel=0 note=53 velocity=36 time=0
control_change channel=0 control=64 value=127 time=21
note_on channel=0 note=53 velocity=0 time=0
note_on channel=0 note=51 velocity=41 time=0
note_on channel=0 note=39 velocity=0 time=0
note_on channel=0 note=73 velocity=37 time=0
note_on channel=0 note=70 velocity=30 time=0
note_on channel=0 note=70 velocity=0 time=0
note_on channel=0 note=73 velocity=0 time=0
note_on channel=0 note=70 velocity=36 time=0
note_on channel=0 note=73 velocity=42 time=0
control_change channel=0 control=64 value=0 time=9
control_change channel=0 control=64 value=127 time=151
note_on channel=0 note=51 velocity=0 time=80
note_on channel=0 note=73 velocity=0 time=0
note_on channel=0 note=70 velocity=0 time=0
note_on channel=0 note=68 velocity=36 time=0
note_on channel=0 note=72 velocity=42 time=0
control_change channel=0 control=64 value=0 time=10
control_change channel=0 control=64 value=127 time=177
note_on channel=0 note=72 velocity=0 time=773
note_on channel=0 note=68 velocity=0 time=0
note_on channel=0 note=75 velocity=45 time=0
note_on channel=0 note=82 velocity=53 time=0
note_on channel=0 note=70 velocity=42 time=0
note_on channel=0 note=67 velocity=36 time=0
control_change channel=0 control=64 value=0 time=8
control_change channel=0 control=64 value=127 time=179
note_on channel=0 note=67 velocity=0 time=0
note_on channel=0 note=75 velocity=0 time=0
note_on channel=0 note=82 velocity=0 time=0
note_on channel=0 note=70 velocity=0 time=0
note_on channel=0 note=85 velocity=55 time=0
note_on channel=0 note=73 velocity=46 time=0
note_on channel=0 note=65 velocity=36 time=0
note_on channel=0 note=68 velocity=42 time=0
control_change channel=0 control=64 value=0 time=4
control_change channel=0 control=64 value=127 time=250
note_on channel=0 note=68 velocity=0 time=0
note_on channel=0 note=85 velocity=0 time=0
note_on channel=0 note=73 velocity=0 time=0
note_on channel=0 note=65 velocity=0 time=0
note_on channel=0 note=84 velocity=84 time=0
note_on channel=0 note=72 velocity=70 time=0
note_on channel=0 note=67 velocity=84 time=0
note_on channel=0 note=63 velocity=70 time=0
control_change channel=0 control=64 value=0 time=0
control_change channel=0 control=64 value=127 time=89
note_on channel=0 note=63 velocity=0 time=0
note_on channel=0 note=84 velocity=0 time=0
note_on channel=0 note=72 velocity=0 time=0
note_on channel=0 note=67 velocity=0 time=0
note_on channel=0 note=72 velocity=59 time=0
note_on channel=0 note=77 velocity=70 time=0
note_on channel=0 note=63 velocity=51 time=0
note_on channel=0 note=69 velocity=60 time=0
control_change channel=0 control=64 value=0 time=8
control_change channel=0 control=64 value=127 time=64
note_on channel=0 note=69 velocity=0 time=0
note_on channel=0 note=72 velocity=0 time=0
note_on channel=0 note=77 velocity=0 time=0
note_on channel=0 note=63 velocity=0 time=0
note_on channel=0 note=73 velocity=56 time=0
note_on channel=0 note=82 velocity=67 time=0
note_on channel=0 note=65 velocity=59 time=0
note_on channel=0 note=61 velocity=50 time=0
control_change channel=0 control=64 value=0 time=37
note_on channel=0 note=61 velocity=0 time=23
note_on channel=0 note=73 velocity=0 time=0
note_on channel=0 note=82 velocity=0 time=0
note_on channel=0 note=65 velocity=0 time=0
note_on channel=0 note=82 velocity=70 time=0
note_on channel=0 note=73 velocity=59 time=0
note_on channel=0 note=65 velocity=67 time=0
note_on channel=0 note=61 velocity=56 time=0
control_change channel=0 control=64 value=127 time=49
note_on channel=0 note=61 velocity=0 time=0
note_on channel=0 note=82 velocity=0 time=0
note_on channel=0 note=73 velocity=0 time=0
note_on channel=0 note=65 velocity=0 time=0
note_on channel=0 note=70 velocity=59 time=0
note_on channel=0 note=75 velocity=70 time=0
note_on channel=0 note=61 velocity=51 time=0
note_on channel=0 note=67 velocity=60 time=0
control_change channel=0 control=64 value=0 time=5
control_change channel=0 control=64 value=127 time=47
note_on channel=0 note=67 velocity=0 time=0
note_on channel=0 note=70 velocity=0 time=0
note_on channel=0 note=75 velocity=0 time=0
note_on channel=0 note=61 velocity=0 time=0
note_on channel=0 note=72 velocity=56 time=0
note_on channel=0 note=80 velocity=67 time=0
note_on channel=0 note=63 velocity=59 time=0
note_on channel=0 note=60 velocity=50 time=0
control_change channel=0 control=64 value=0 time=25
note_on channel=0 note=60 velocity=0 time=35
note_on channel=0 note=72 velocity=0 time=0
note_on channel=0 note=80 velocity=0 time=0
note_on channel=0 note=63 velocity=0 time=0
note_on channel=0 note=80 velocity=70 time=0
note_on channel=0 note=72 velocity=59 time=0
note_on channel=0 note=63 velocity=67 time=0
note_on channel=0 note=60 velocity=56 time=0
control_change channel=0 control=64 value=127 time=83
note_on channel=0 note=60 velocity=0 time=0
note_on channel=0 note=80 velocity=0 time=0
note_on channel=0 note=72 velocity=0 time=0
note_on channel=0 note=63 velocity=0 time=0
note_on channel=0 note=68 velocity=59 time=0
note_on channel=0 note=73 velocity=70 time=0
note_on channel=0 note=65 velocity=60 time=0
note_on channel=0 note=60 velocity=44 time=0
control_change channel=0 control=64 value=0 time=5
control_change channel=0 control=64 value=127 time=41
note_on channel=0 note=60 velocity=0 time=0
note_on channel=0 note=68 velocity=0 time=0
note_on channel=0 note=73 velocity=0 time=0
note_on channel=0 note=65 velocity=0 time=0
note_on channel=0 note=79 velocity=67 time=0
note_on channel=0 note=70 velocity=56 time=0
note_on channel=0 note=58 velocity=50 time=0
note_on channel=0 note=61 velocity=59 time=0
control_change channel=0 control=64 value=0 time=28
note_on channel=0 note=61 velocity=0 time=32
note_on channel=0 note=79 velocity=0 time=0
note_on channel=0 note=70 velocity=0 time=0
note_on channel=0 note=58 velocity=0 time=0
note_on channel=0 note=79 velocity=70 time=0
note_on channel=0 note=70 velocity=59 time=0
note_on channel=0 note=61 velocity=67 time=0
note_on channel=0 note=58 velocity=56 time=0
control_change channel=0 control=64 value=127 time=49
note_on channel=0 note=58 velocity=0 time=0
note_on channel=0 note=79 velocity=0 time=0
note_on channel=0 note=70 velocity=0 time=0
note_on channel=0 note=61 velocity=0 time=0
note_on channel=0 note=72 velocity=70 time=0
note_on channel=0 note=67 velocity=59 time=0
note_on channel=0 note=64 velocity=60 time=0
note_on channel=0 note=58 velocity=51 time=0
control_change channel=0 control=64 value=0 time=5
control_change channel=0 control=64 value=127 time=47
note_on channel=0 note=58 velocity=0 time=0
note_on channel=0 note=72 velocity=0 time=0
note_on channel=0 note=67 velocity=0 time=0
note_on channel=0 note=64 velocity=0 time=0
note_on channel=0 note=68 velocity=56 time=0
note_on channel=0 note=77 velocity=67 time=0
note_on channel=0 note=60 velocity=59 time=0
note_on channel=0 note=56 velocity=50 time=0
control_change channel=0 control=64 value=0 time=25
note_on channel=0 note=56 velocity=0 time=35
note_on channel=0 note=68 velocity=0 time=0
note_on channel=0 note=77 velocity=0 time=0
note_on channel=0 note=60 velocity=0 time=0
note_on channel=0 note=68 velocity=59 time=0
note_on channel=0 note=77 velocity=70 time=0
note_on channel=0 note=56 velocity=56 time=0
note_on channel=0 note=60 velocity=67 time=0
control_change channel=0 control=64 value=127 time=28
note_on channel=0 note=60 velocity=0 time=210
note_on channel=0 note=68 velocity=0 time=0
note_on channel=0 note=77 velocity=0 time=0
note_on channel=0 note=56 velocity=0 time=0
note_on channel=0 note=77 velocity=70 time=2
note_on channel=0 note=65 velocity=59 time=0
note_on channel=0 note=56 velocity=56 time=0
note_on channel=0 note=59 velocity=67 time=0
control_change channel=0 control=64 value=0 time=5
control_change channel=0 control=64 value=127 time=41
note_on channel=0 note=59 velocity=0 time=192
note_on channel=0 note=77 velocity=0 time=0
note_on channel=0 note=65 velocity=0 time=0
note_on channel=0 note=56 velocity=0 time=0
note_on channel=0 note=77 velocity=70 time=0
note_on channel=0 note=65 velocity=59 time=0
note_on channel=0 note=58 velocity=67 time=0
note_on channel=0 note=55 velocity=56 time=0
control_change channel=0 control=64 value=0 time=0
control_change channel=0 control=64 value=127 time=134
note_on channel=0 note=65 velocity=0 time=0
note_on channel=0 note=77 velocity=0 time=0
note_on channel=0 note=64 velocity=50 time=0
note_on channel=0 note=76 velocity=59 time=0
control_change channel=0 control=64 value=0 time=8
control_change channel=0 control=64 value=127 time=139
note_on channel=0 note=76 velocity=0 time=93
note_on channel=0 note=55 velocity=0 time=0
note_on channel=0 note=58 velocity=0 time=0
note_on channel=0 note=64 velocity=0 time=0
note_on channel=0 note=72 velocity=50 time=0
note_on channel=0 note=65 velocity=50 time=0
note_on channel=0 note=77 velocity=59 time=0
note_on channel=0 note=53 velocity=38 time=0
note_on channel=0 note=56 velocity=45 time=0
control_change channel=0 control=64 value=0 time=12
control_change channel=0 control=64 value=127 time=68
note_on channel=0 note=56 velocity=0 time=0
note_on channel=0 note=77 velocity=0 time=0
note_on channel=0 note=72 velocity=0 time=0
note_on channel=0 note=65 velocity=0 time=0
note_on channel=0 note=53 velocity=0 time=0
note_on channel=0 note=72 velocity=48 time=0
note_on channel=0 note=67 velocity=48 time=0
note_on channel=0 note=79 velocity=57 time=0
note_on channel=0 note=55 velocity=48 time=0
note_on channel=0 note=52 velocity=40 time=0
control_change channel=0 control=64 value=0 time=7
control_change channel=0 control=64 value=127 time=107
note_on channel=0 note=52 velocity=0 time=126
note_on channel=0 note=79 velocity=0 time=0
note_on channel=0 note=72 velocity=0 time=0
note_on channel=0 note=67 velocity=0 time=0
note_on channel=0 note=55 velocity=0 time=0
note_on channel=0 note=80 velocity=60 time=0
note_on channel=0 note=72 velocity=51 time=0
note_on channel=0 note=68 velocity=51 time=0
note_on channel=0 note=50 velocity=42 time=0
note_on channel=0 note=53 velocity=50 time=0
control_change channel=0 control=64 value=0 time=10
control_change channel=0 control=64 value=127 time=129
note_on channel=0 note=53 velocity=0 time=0
note_on channel=0 note=68 velocity=0 time=0
note_on channel=0 note=80 velocity=0 time=0
note_on channel=0 note=72 velocity=0 time=0
note_on channel=0 note=50 velocity=0 time=0
note_on channel=0 note=70 velocity=54 time=0
note_on channel=0 note=72 velocity=54 time=0
note_on channel=0 note=82 velocity=64 time=0
note_on channel=0 note=52 velocity=53 time=0
note_on channel=0 note=48 velocity=45 time=0
control_change channel=0 control=64 value=0 time=13
control_change channel=0 control=64 value=127 time=114
note_on channel=0 note=48 velocity=0 time=0
note_on channel=0 note=82 velocity=0 time=0
note_on channel=0 note=70 velocity=0 time=0
note_on channel=0 note=72 velocity=0 time=0
note_on channel=0 note=52 velocity=0 time=0
note_on channel=0 note=67 velocity=57 time=0
note_on channel=0 note=72 velocity=57 time=0
note_on channel=0 note=76 velocity=57 time=0
note_on channel=0 note=79 velocity=68 time=0
note_on channel=0 note=48 velocity=47 time=0
note_on channel=0 note=55 velocity=47 time=0
note_on channel=0 note=58 velocity=56 time=0
note_on channel=0 note=52 velocity=47 time=0
control_change channel=0 control=64 value=0 time=18
control_change channel=0 control=64 value=127 time=109
note_on channel=0 note=52 velocity=0 time=0
note_on channel=0 note=67 velocity=0 time=0
note_on channel=0 note=48 velocity=0 time=0
note_on channel=0 note=72 velocity=0 time=0
note_on channel=0 note=76 velocity=0 time=0
note_on channel=0 note=79 velocity=0 time=0
note_on channel=0 note=55 velocity=0 time=0
note_on channel=0 note=58 velocity=0 time=0
note_on channel=0 note=77 velocity=66 time=0
note_on channel=0 note=68 velocity=66 time=0
note_on channel=0 note=80 velocity=78 time=0
note_on channel=0 note=72 velocity=66 time=0
note_on channel=0 note=41 velocity=56 time=0
control_change channel=0 control=64 value=0 time=0
note_on channel=0 note=41 velocity=0 time=120
note_on channel=0 note=48 velocity=40 time=0
control_change channel=0 control=64 value=127 time=0
note_on channel=0 note=48 velocity=0 time=0
note_on channel=0 note=72 velocity=0 time=0
note_on channel=0 note=77 velocity=0 time=0
note_on channel=0 note=68 velocity=0 time=0
note_on channel=0 note=80 velocity=0 time=0
note_on channel=0 note=56 velocity=40 time=0
note_on channel=0 note=56 velocity=0 time=120
note_on channel=0 note=48 velocity=40 time=0
note_on channel=0 note=48 velocity=0 time=120
note_on channel=0 note=72 velocity=75 time=0
note_on channel=0 note=84 velocity=89 time=0
note_on channel=0 note=41 velocity=54 time=0
note_on channel=0 note=41 velocity=0 time=120
note_on channel=0 note=48 velocity=44 time=0
note_on channel=0 note=48 velocity=0 time=0
note_on channel=0 note=84 velocity=0 time=0
note_on channel=0 note=72 velocity=0 time=0
note_on channel=0 note=56 velocity=43 time=0
note_on channel=0 note=56 velocity=0 time=120
note_on channel=0 note=48 velocity=43 time=0
note_on channel=0 note=48 velocity=0 time=0
note_on channel=0 note=96 velocity=102 time=0
note_on channel=0 note=84 velocity=85 time=0
note_on channel=0 note=43 velocity=58 time=0
control_change channel=0 control=64 value=0 time=10
control_change channel=0 control=64 value=127 time=103
note_on channel=0 note=43 velocity=0 time=7
note_on channel=0 note=48 velocity=49 time=0
note_on channel=0 note=48 velocity=0 time=120
note_on channel=0 note=58 velocity=49 time=0
note_on channel=0 note=58 velocity=0 time=120
note_on channel=0 note=48 velocity=47 time=0
note_on channel=0 note=48 velocity=0 time=120
note_on channel=0 note=43 velocity=53 time=0
note_on channel=0 note=43 velocity=0 time=120
note_on channel=0 note=48 velocity=44 time=0
note_on channel=0 note=48 velocity=0 time=0
note_on channel=0 note=84 velocity=0 time=0
note_on channel=0 note=96 velocity=0 time=0
note_on channel=0 note=84 velocity=65 time=0
note_on channel=0 note=72 velocity=55 time=0
note_on channel=0 note=58 velocity=44 time=0
note_on channel=0 note=58 velocity=0 time=120
note_on channel=0 note=48 velocity=44 time=0
note_on channel=0 note=48 velocity=0 time=120
note_on channel=0 note=44 velocity=53 time=0
control_change channel=0 control=64 value=0 time=0
control_change channel=0 control=64 value=127 time=99
note_on channel=0 note=44 velocity=0 time=21
note_on channel=0 note=48 velocity=43 time=0
note_on channel=0 note=48 velocity=0 time=120
note_on channel=0 note=60 velocity=43 time=0
note_on channel=0 note=60 velocity=0 time=120
note_on channel=0 note=48 velocity=43 time=0
note_on channel=0 note=48 velocity=0 time=120
note_on channel=0 note=44 velocity=53 time=0
note_on channel=0 note=44 velocity=0 time=120
note_on channel=0 note=48 velocity=43 time=0
note_on channel=0 note=48 velocity=0 time=0
note_on channel=0 note=72 velocity=0 time=0
note_on channel=0 note=84 velocity=0 time=0
note_on channel=0 note=80 velocity=62 time=0
note_on channel=0 note=68 velocity=62 time=0
note_on channel=0 note=60 velocity=43 time=0
note_on channel=0 note=60 velocity=0 time=120
note_on channel=0 note=48 velocity=43 time=0
note_on channel=0 note=48 velocity=0 time=0
note_on channel=0 note=68 velocity=0 time=0
note_on channel=0 note=80 velocity=0 time=0
note_on channel=0 note=67 velocity=55 time=0
note_on channel=0 note=79 velocity=65 time=0
note_on channel=0 note=46 velocity=53 time=0
control_change channel=0 control=64 value=0 time=0
control_change channel=0 control=64 value=127 time=99
note_on channel=0 note=46 velocity=0 time=21
note_on channel=0 note=48 velocity=44 time=0
note_on channel=0 note=48 velocity=0 time=0
note_on channel=0 note=79 velocity=0 time=0
note_on channel=0 note=67 velocity=0 time=0
note_on channel=0 note=76 velocity=57 time=0
note_on channel=0 note=64 velocity=48 time=0
note_on channel=0 note=58 velocity=44 time=0
note_on channel=0 note=58 velocity=0 time=120
note_on channel=0 note=48 velocity=44 time=0
note_on channel=0 note=48 velocity=0 time=120
note_on channel=0 note=64 velocity=0 time=0
note_on channel=0 note=76 velocity=0 time=0
note_on channel=0 note=61 velocity=48 time=0
note_on channel=0 note=73 velocity=57 time=0
note_on channel=0 note=36 velocity=53 time=0
control_change channel=0 control=64 value=0 time=14
note_on channel=0 note=36 velocity=0 time=106
note_on channel=0 note=48 velocity=46 time=0
control_change channel=0 control=64 value=127 time=0
note_on channel=0 note=48 velocity=0 time=0
note_on channel=0 note=73 velocity=0 time=0
note_on channel=0 note=61 velocity=0 time=0
note_on channel=0 note=72 velocity=56 time=0
note_on channel=0 note=60 velocity=47 time=0
note_on channel=0 note=55 velocity=46 time=0
note_on channel=0 note=55 velocity=0 time=120
note_on channel=0 note=48 velocity=46 time=0
note_on channel=0 note=60 velocity=0 time=118
note_on channel=0 note=72 velocity=0 time=0
note_on channel=0 note=48 velocity=0 time=0
note_on channel=0 note=60 velocity=66 time=0
note_on channel=0 note=72 velocity=78 time=0
note_on channel=0 note=41 velocity=56 time=0
control_change channel=0 control=64 value=0 time=0
control_change channel=0 control=64 value=127 time=64
note_on channel=0 note=41 velocity=0 time=56
note_on channel=0 note=48 velocity=40 time=0
note_on channel=0 note=48 velocity=0 time=120
note_on channel=0 note=72 velocity=0 time=0
note_on channel=0 note=60 velocity=0 time=0
note_on channel=0 note=56 velocity=40 time=0
note_on channel=0 note=56 velocity=0 time=120
note_on channel=0 note=48 velocity=40 time=0
note_on channel=0 note=48 velocity=0 time=120
note_on channel=0 note=72 velocity=75 time=0
note_on channel=0 note=84 velocity=89 time=0
note_on channel=0 note=41 velocity=54 time=0
note_on channel=0 note=41 velocity=0 time=120
note_on channel=0 note=48 velocity=44 time=0
note_on channel=0 note=48 velocity=0 time=0
note_on channel=0 note=84 velocity=0 time=0
note_on channel=0 note=72 velocity=0 time=0
note_on channel=0 note=56 velocity=43 time=0
note_on channel=0 note=56 velocity=0 time=120
note_on channel=0 note=48 velocity=43 time=0
note_on channel=0 note=48 velocity=0 time=0
note_on channel=0 note=84 velocity=85 time=0
note_on channel=0 note=96 velocity=102 time=0
note_on channel=0 note=43 velocity=58 time=0
control_change channel=0 control=64 value=0 time=10
control_change channel=0 control=64 value=127 time=103
note_on channel=0 note=43 velocity=0 time=7
note_on channel=0 note=48 velocity=49 time=0
note_on channel=0 note=48 velocity=0 time=120
note_on channel=0 note=58 velocity=49 time=0
note_on channel=0 note=58 velocity=0 time=120
note_on channel=0 note=48 velocity=47 time=0
note_on channel=0 note=48 velocity=0 time=120
note_on channel=0 note=43 velocity=53 time=0
note_on channel=0 note=43 velocity=0 time=120
note_on channel=0 note=48 velocity=44 time=0
note_on channel=0 note=48 velocity=0 time=0
note_on channel=0 note=96 velocity=0 time=0
note_on channel=0 note=84 velocity=0 time=0
note_on channel=0 note=84 velocity=65 time=0
note_on channel=0 note=72 velocity=55 time=0
note_on channel=0 note=58 velocity=44 time=0
note_on channel=0 note=58 velocity=0 time=120
note_on channel=0 note=48 velocity=44 time=0
note_on channel=0 note=48 velocity=0 time=120
note_on channel=0 note=44 velocity=53 time=0
control_change channel=0 control=64 value=0 time=0
control_change channel=0 control=64 value=127 time=99
note_on channel=0 note=44 velocity=0 time=21
note_on channel=0 note=48 velocity=43 time=0
note_on channel=0 note=48 velocity=0 time=120
note_on channel=0 note=60 velocity=43 time=0
note_on channel=0 note=60 velocity=0 time=120
note_on channel=0 note=48 velocity=43 time=0
note_on channel=0 note=48 velocity=0 time=120
note_on channel=0 note=41 velocity=53 time=0
note_on channel=0 note=41 velocity=0 time=120
note_on channel=0 note=48 velocity=43 time=0
note_on channel=0 note=48 velocity=0 time=0
note_on channel=0 note=72 velocity=0 time=0
note_on channel=0 note=84 velocity=0 time=0
note_on channel=0 note=68 velocity=62 time=0
note_on channel=0 note=80 velocity=62 time=0
note_on channel=0 note=56 velocity=43 time=0
note_on channel=0 note=56 velocity=0 time=120
note_on channel=0 note=48 velocity=43 time=0
note_on channel=0 note=48 velocity=0 time=0
note_on channel=0 note=80 velocity=0 time=0
note_on channel=0 note=68 velocity=0 time=0
note_on channel=0 note=77 velocity=65 time=0
note_on channel=0 note=65 velocity=55 time=0
note_on channel=0 note=38 velocity=53 time=0
control_change channel=0 control=64 value=0 time=0
control_change channel=0 control=64 value=127 time=99
note_on channel=0 note=38 velocity=0 time=21
note_on channel=0 note=46 velocity=44 time=0
note_on channel=0 note=46 velocity=0 time=120
note_on channel=0 note=65 velocity=0 time=0
note_on channel=0 note=77 velocity=0 time=0
note_on channel=0 note=74 velocity=57 time=0
note_on channel=0 note=62 velocity=48 time=0
note_on channel=0 note=53 velocity=44 time=0
note_on channel=0 note=53 velocity=0 time=120
note_on channel=0 note=46 velocity=44 time=0
note_on channel=0 note=46 velocity=0 time=120
note_on channel=0 note=62 velocity=0 time=0
note_on channel=0 note=74 velocity=0 time=0
note_on channel=0 note=71 velocity=57 time=0
note_on channel=0 note=59 velocity=48 time=0
note_on channel=0 note=38 velocity=53 time=0
control_change channel=0 control=64 value=0 time=14
note_on channel=0 note=38 velocity=0 time=106
note_on channel=0 note=46 velocity=46 time=0
control_change channel=0 control=64 value=127 time=0
note_on channel=0 note=46 velocity=0 time=0
note_on channel=0 note=59 velocity=0 time=0
note_on channel=0 note=71 velocity=0 time=0
note_on channel=0 note=70 velocity=56 time=0
note_on channel=0 note=58 velocity=47 time=0
note_on channel=0 note=53 velocity=46 time=0
note_on channel=0 note=53 velocity=0 time=120
note_on channel=0 note=46 velocity=46 time=0
note_on channel=0 note=46 velocity=0 time=0
note_on channel=0 note=58 velocity=0 time=0
note_on channel=0 note=70 velocity=0 time=0
note_on channel=0 note=70 velocity=78 time=0
note_on channel=0 note=58 velocity=66 time=0
note_on channel=0 note=39 velocity=56 time=0
control_change channel=0 control=64 value=0 time=0
note_on channel=0 note=39 velocity=0 time=120
note_on channel=0 note=46 velocity=40 time=0
control_change channel=0 control=64 value=127 time=0
note_on channel=0 note=46 velocity=0 time=0
note_on channel=0 note=58 velocity=0 time=0
note_on channel=0 note=70 velocity=0 time=0
note_on channel=0 note=54 velocity=40 time=0
note_on channel=0 note=54 velocity=0 time=120
note_on channel=0 note=46 velocity=40 time=0
note_on channel=0 note=46 velocity=0 time=120
note_on channel=0 note=70 velocity=75 time=0
note_on channel=0 note=82 velocity=89 time=0
note_on channel=0 note=39 velocity=54 time=0
note_on channel=0 note=39 velocity=0 time=120
note_on channel=0 note=46 velocity=44 time=0
note_on channel=0 note=46 velocity=0 time=0
note_on channel=0 note=82 velocity=0 time=0
note_on channel=0 note=70 velocity=0 time=0
note_on channel=0 note=54 velocity=43 time=0
note_on channel=0 note=54 velocity=0 time=120
note_on channel=0 note=46 velocity=43 time=0
note_on channel=0 note=46 velocity=0 time=0
note_on channel=0 note=94 velocity=102 time=0
note_on channel=0 note=82 velocity=85 time=0
note_on channel=0 note=41 velocity=58 time=0
control_change channel=0 control=64 value=0 time=10
control_change channel=0 control=64 value=127 time=103
note_on channel=0 note=41 velocity=0 time=7
note_on channel=0 note=46 velocity=49 time=0
note_on channel=0 note=46 velocity=0 time=120
note_on channel=0 note=56 velocity=49 time=0
note_on channel=0 note=56 velocity=0 time=120
note_on channel=0 note=46 velocity=47 time=0
note_on channel=0 note=46 velocity=0 time=120
note_on channel=0 note=41 velocity=53 time=0
note_on channel=0 note=41 velocity=0 time=120
note_on channel=0 note=46 velocity=44 time=0
note_on channel=0 note=46 velocity=0 time=0
note_on channel=0 note=82 velocity=0 time=0
note_on channel=0 note=94 velocity=0 time=0
note_on channel=0 note=82 velocity=65 time=0
note_on channel=0 note=70 velocity=55 time=0
note_on channel=0 note=56 velocity=44 time=0
note_on channel=0 note=56 velocity=0 time=120
note_on channel=0 note=46 velocity=44 time=0
note_on channel=0 note=46 velocity=0 time=120
note_on channel=0 note=42 velocity=53 time=0
control_change channel=0 control=64 value=0 time=0
control_change channel=0 control=64 value=127 time=99
note_on channel=0 note=42 velocity=0 time=21
note_on channel=0 note=46 velocity=43 time=0
note_on channel=0 note=46 velocity=0 time=120
note_on channel=0 note=58 velocity=43 time=0
note_on channel=0 note=58 velocity=0 time=120
note_on channel=0 note=46 velocity=43 time=0
note_on channel=0 note=46 velocity=0 time=120
note_on channel=0 note=42 velocity=53 time=0
note_on channel=0 note=42 velocity=0 time=120
note_on channel=0 note=46 velocity=43 time=0
note_on channel=0 note=46 velocity=0 time=0
note_on channel=0 note=70 velocity=0 time=0
note_on channel=0 note=82 velocity=0 time=0
note_on channel=0 note=66 velocity=62 time=0
note_on channel=0 note=78 velocity=62 time=0
note_on channel=0 note=58 velocity=43 time=0
note_on channel=0 note=58 velocity=0 time=120
note_on channel=0 note=46 velocity=43 time=0
note_on channel=0 note=46 velocity=0 time=0
note_on channel=0 note=78 velocity=0 time=0
note_on channel=0 note=66 velocity=0 time=0
note_on channel=0 note=65 velocity=55 time=0
note_on channel=0 note=77 velocity=65 time=0
note_on channel=0 note=44 velocity=53 time=0
control_change channel=0 control=64 value=0 time=0
control_change channel=0 control=64 value=127 time=99
note_on channel=0 note=44 velocity=0 time=21
note_on channel=0 note=46 velocity=44 time=0
note_on channel=0 note=46 velocity=0 time=0
note_on channel=0 note=77 velocity=0 time=0
note_on channel=0 note=65 velocity=0 time=0
note_on channel=0 note=74 velocity=57 time=0
note_on channel=0 note=62 velocity=48 time=0
note_on channel=0 note=56 velocity=44 time=0
note_on channel=0 note=56 velocity=0 time=120
note_on channel=0 note=46 velocity=44 time=0
note_on channel=0 note=46 velocity=0 time=120
note_on channel=0 note=62 velocity=0 time=0
note_on channel=0 note=74 velocity=0 time=0
note_on channel=0 note=59 velocity=48 time=0
note_on channel=0 note=71 velocity=57 time=0
note_on channel=0 note=34 velocity=53 time=0
control_change channel=0 control=64 value=0 time=14
note_on channel=0 note=34 velocity=0 time=106
note_on channel=0 note=46 velocity=46 time=0
control_change channel=0 control=64 value=127 time=0
note_on channel=0 note=46 velocity=0 time=0
note_on channel=0 note=71 velocity=0 time=0
note_on channel=0 note=59 velocity=0 time=0
note_on channel=0 note=70 velocity=56 time=0
note_on channel=0 note=58 velocity=47 time=0
note_on channel=0 note=53 velocity=46 time=0
note_on channel=0 note=53 velocity=0 time=120
note_on channel=0 note=46 velocity=46 time=0
note_on channel=0 note=58 velocity=0 time=118
note_on channel=0 note=70 velocity=0 time=0
note_on channel=0 note=46 velocity=0 time=0
note_on channel=0 note=70 velocity=78 time=0
note_on channel=0 note=58 velocity=66 time=0
note_on channel=0 note=39 velocity=56 time=0
control_change channel=0 control=64 value=0 time=0
control_change channel=0 control=64 value=127 time=64
note_on channel=0 note=39 velocity=0 time=56
note_on channel=0 note=46 velocity=40 time=0
note_on channel=0 note=46 velocity=0 time=120
note_on channel=0 note=58 velocity=0 time=0
note_on channel=0 note=70 velocity=0 time=0
note_on channel=0 note=54 velocity=40 time=0
note_on channel=0 note=54 velocity=0 time=120
note_on channel=0 note=46 velocity=40 time=0
note_on channel=0 note=46 velocity=0 time=0
note_on channel=0 note=82 velocity=89 time=0
note_on channel=0 note=70 velocity=75 time=0
note_on channel=0 note=41 velocity=54 time=0
control_change channel=0 control=64 value=0 time=3
control_change channel=0 control=64 value=127 time=100
note_on channel=0 note=41 velocity=0 time=17
note_on channel=0 note=46 velocity=44 time=0
note_on channel=0 note=46 velocity=0 time=0
note_on channel=0 note=70 velocity=0 time=0
note_on channel=0 note=82 velocity=0 time=0
note_on channel=0 note=56 velocity=43 time=0
note_on channel=0 note=56 velocity=0 time=120
note_on channel=0 note=46 velocity=43 time=0
note_on channel=0 note=46 velocity=0 time=0
note_on channel=0 note=82 velocity=78 time=0
note_on channel=0 note=94 velocity=90 time=0
note_on channel=0 note=43 velocity=56 time=0
control_change channel=0 control=64 value=0 time=7
control_change channel=0 control=64 value=127 time=68
note_on channel=0 note=43 velocity=0 time=45
note_on channel=0 note=51 velocity=40 time=0
note_on channel=0 note=51 velocity=0 time=120
note_on channel=0 note=94 velocity=0 time=0
note_on channel=0 note=82 velocity=0 time=0
note_on channel=0 note=58 velocity=40 time=0
note_on channel=0 note=58 velocity=0 time=120
note_on channel=0 note=51 velocity=40 time=0
note_on channel=0 note=51 velocity=0 time=0
note_on channel=0 note=83 velocity=86 time=0
note_on channel=0 note=95 velocity=103 time=0
note_on channel=0 note=44 velocity=54 time=0
control_change channel=0 control=64 value=0 time=11
control_change channel=0 control=64 value=127 time=104
note_on channel=0 note=44 velocity=0 time=5
note_on channel=0 note=51 velocity=44 time=0
note_on channel=0 note=51 velocity=0 time=120
note_on channel=0 note=95 velocity=0 time=0
note_on channel=0 note=83 velocity=0 time=0
note_on channel=0 note=59 velocity=43 time=0
note_on channel=0 note=59 velocity=0 time=120
note_on channel=0 note=51 velocity=43 time=0
note_on channel=0 note=51 velocity=0 time=0
note_on channel=0 note=71 velocity=55 time=0
control_change channel=0 control=64 value=0 time=0
control_change channel=0 control=64 value=127 time=160
note_on channel=0 note=71 velocity=0 time=0
note_on channel=0 note=70 velocity=50 time=0
control_change channel=0 control=64 value=0 time=0
control_change channel=0 control=64 value=127 time=174
note_on channel=0 note=70 velocity=0 time=0
note_on channel=0 note=68 velocity=48 time=0
note_on channel=0 note=59 velocity=43 time=0
control_change channel=0 control=64 value=0 time=0
control_change channel=0 control=64 value=127 time=174
note_on channel=0 note=68 velocity=0 time=66
control_change channel=0 control=64 value=0 time=320
note_on channel=0 note=59 velocity=0 time=0
note_on channel=0 note=58 velocity=44 time=0
control_change channel=0 control=64 value=127 time=187
note_on channel=0 note=58 velocity=0 time=0
note_on channel=0 note=72 velocity=55 time=0
note_on channel=0 note=57 velocity=46 time=0
control_change channel=0 control=64 value=0 time=0
control_change channel=0 control=64 value=127 time=160
note_on channel=0 note=57 velocity=0 time=80
control_change channel=0 control=64 value=0 time=240
note_on channel=0 note=72 velocity=0 time=0
note_on channel=0 note=70 velocity=50 time=0
control_change channel=0 control=64 value=127 time=174
note_on channel=0 note=70 velocity=0 time=0
note_on channel=0 note=69 velocity=48 time=0
note_on channel=0 note=60 velocity=43 time=0
control_change channel=0 control=64 value=0 time=0
control_change channel=0 control=64 value=127 time=174
note_on channel=0 note=69 velocity=0 time=66
control_change channel=0 control=64 value=0 time=320
note_on channel=0 note=60 velocity=0 time=0
note_on channel=0 note=58 velocity=44 time=0
control_change channel=0 control=64 value=127 time=187
note_on channel=0 note=58 velocity=0 time=0
note_on channel=0 note=77 velocity=55 time=0
note_on channel=0 note=56 velocity=46 time=0
control_change channel=0 control=64 value=0 time=0
control_change channel=0 control=64 value=127 time=160
note_on channel=0 note=56 velocity=0 time=80
control_change channel=0 control=64 value=0 time=240
note_on channel=0 note=77 velocity=0 time=0
note_on channel=0 note=75 velocity=50 time=0
control_change channel=0 control=64 value=127 time=174
note_on channel=0 note=75 velocity=0 time=0
note_on channel=0 note=74 velocity=48 time=0
note_on channel=0 note=65 velocity=36 time=0
note_on channel=0 note=68 velocity=43 time=0
control_change channel=0 control=64 value=0 time=0
control_change channel=0 control=64 value=127 time=174
note_on channel=0 note=74 velocity=0 time=66
control_change channel=0 control=64 value=0 time=320
note_on channel=0 note=68 velocity=0 time=400
note_on channel=0 note=65 velocity=0 time=0
note_on channel=0 note=63 velocity=39 time=0
note_on channel=0 note=67 velocity=47 time=0
control_change channel=0 control=64 value=127 time=0
note_on channel=0 note=67 velocity=0 time=0
note_on channel=0 note=63 velocity=0 time=0
note_on channel=0 note=70 velocity=51 time=0
note_on channel=0 note=82 velocity=60 time=0
note_on channel=0 note=62 velocity=40 time=0
note_on channel=0 note=65 velocity=48 time=0
control_change channel=0 control=64 value=0 time=11
control_change channel=0 control=64 value=127 time=149
note_on channel=0 note=65 velocity=0 time=0
note_on channel=0 note=70 velocity=0 time=0
note_on channel=0 note=82 velocity=0 time=0
note_on channel=0 note=62 velocity=0 time=0
note_on channel=0 note=68 velocity=52 time=0
note_on channel=0 note=80 velocity=61 time=0
note_on channel=0 note=60 velocity=43 time=0
note_on channel=0 note=63 velocity=51 time=0
control_change channel=0 control=64 value=0 time=12
control_change channel=0 control=64 value=127 time=148
note_on channel=0 note=63 velocity=0 time=800
note_on channel=0 note=68 velocity=0 time=0
note_on channel=0 note=80 velocity=0 time=0
note_on channel=0 note=60 velocity=0 time=0
note_on channel=0 note=67 velocity=59 time=0
note_on channel=0 note=79 velocity=70 time=0
note_on channel=0 note=59 velocity=55 time=0
note_on channel=0 note=62 velocity=64 time=0
control_change channel=0 control=64 value=0 time=5
control_change channel=0 control=64 value=127 time=182
note_on channel=0 note=62 velocity=0 time=0
note_on channel=0 note=59 velocity=0 time=0
note_on channel=0 note=63 velocity=41 time=0
note_on channel=0 note=58 velocity=34 time=0
control_change channel=0 control=64 value=0 time=4
control_change channel=0 control=64 value=127 time=116
note_on channel=0 note=63 velocity=0 time=0
note_on channel=0 note=67 velocity=0 time=0
note_on channel=0 note=79 velocity=0 time=0
note_on channel=0 note=68 velocity=38 time=0
note_on channel=0 note=80 velocity=45 time=0
note_on channel=0 note=65 velocity=36 time=0
control_change channel=0 control=64 value=0 time=7
control_change channel=0 control=64 value=127 time=113
note_on channel=0 note=65 velocity=0 time=0
note_on channel=0 note=80 velocity=0 time=0
note_on channel=0 note=68 velocity=0 time=0
note_on channel=0 note=65 velocity=34 time=0
note_on channel=0 note=77 velocity=40 time=0
note_on channel=0 note=62 velocity=36 time=0
note_on channel=0 note=62 velocity=0 time=0
note_on channel=0 note=58 velocity=0 time=0
note_on channel=0 note=65 velocity=0 time=0
note_on channel=0 note=77 velocity=0 time=0
note_on channel=0 note=75 velocity=39 time=0
note_on channel=0 note=79 velocity=47 time=0
control_change channel=0 control=64 value=0 time=0
control_change channel=0 control=64 value=127 time=86
note_on channel=0 note=58 velocity=36 time=0
note_on channel=0 note=58 velocity=0 time=120
note_on channel=0 note=60 velocity=36 time=0
note_on channel=0 note=60 velocity=0 time=120
note_on channel=0 note=58 velocity=36 time=0
note_on channel=0 note=58 velocity=0 time=0
note_on channel=0 note=57 velocity=42 time=0
control_change channel=0 control=64 value=0 time=4
control_change channel=0 control=64 value=127 time=65
note_on channel=0 note=57 velocity=0 time=51
note_on channel=0 note=58 velocity=36 time=0
note_on channel=0 note=58 velocity=0 time=120
note_on channel=0 note=55 velocity=36 time=0
note_on channel=0 note=55 velocity=0 time=0
note_on channel=0 note=51 velocity=36 time=0
note_on channel=0 note=51 velocity=0 time=0
note_on channel=0 note=79 velocity=0 time=0
note_on channel=0 note=75 velocity=0 time=0
note_on channel=0 note=70 velocity=40 time=0
note_on channel=0 note=77 velocity=48 time=0
note_on channel=0 note=56 velocity=42 time=0
control_change channel=0 control=64 value=0 time=0
control_change channel=0 control=64 value=127 time=106
note_on channel=0 note=56 velocity=0 time=14
note_on channel=0 note=53 velocity=36 time=0
note_on channel=0 note=53 velocity=0 time=0
note_on channel=0 note=50 velocity=36 time=0
note_on channel=0 note=50 velocity=0 time=120
note_on channel=0 note=46 velocity=36 time=0
note_on channel=0 note=46 velocity=0 time=0
note_on channel=0 note=44 velocity=43 time=0
note_on channel=0 note=44 velocity=0 time=120
note_on channel=0 note=41 velocity=36 time=0
note_on channel=0 note=41 velocity=0 time=120
note_on channel=0 note=38 velocity=36 time=0
note_on channel=0 note=38 velocity=0 time=0
note_on channel=0 note=34 velocity=36 time=0
note_on channel=0 note=34 velocity=0 time=0
note_on channel=0 note=77 velocity=0 time=0
note_on channel=0 note=70 velocity=0 time=0
note_on channel=0 note=67 velocity=40 time=0
note_on channel=0 note=75 velocity=48 time=0
note_on channel=0 note=39 velocity=45 time=0
control_change channel=0 control=64 value=0 time=0
note_on channel=0 note=39 velocity=0 time=120
note_on channel=0 note=41 velocity=36 time=0
control_change channel=0 control=64 value=127 time=14
note_on channel=0 note=41 velocity=0 time=106
note_on channel=0 note=43 velocity=36 time=0
note_on channel=0 note=43 velocity=0 time=120
note_on channel=0 note=44 velocity=36 time=0
note_on channel=0 note=44 velocity=0 time=120
note_on channel=0 note=75 velocity=0 time=0
note_on channel=0 note=67 velocity=0 time=0
note_on channel=0 note=68 velocity=35 time=0
note_on channel=0 note=72 velocity=42 time=0
note_on channel=0 note=46 velocity=43 time=0
control_change channel=0 control=64 value=0 time=12
control_change channel=0 control=64 value=127 time=94
note_on channel=0 note=46 velocity=0 time=14
note_on channel=0 note=48 velocity=36 time=0
note_on channel=0 note=48 velocity=0 time=120
note_on channel=0 note=72 velocity=0 time=0
note_on channel=0 note=68 velocity=0 time=0
note_on channel=0 note=70 velocity=41 time=0
note_on channel=0 note=67 velocity=34 time=0
note_on channel=0 note=50 velocity=36 time=0
note_on channel=0 note=50 velocity=0 time=120
note_on channel=0 note=51 velocity=36 time=0
note_on channel=0 note=67 velocity=0 time=118
note_on channel=0 note=70 velocity=0 time=0
note_on channel=0 note=51 velocity=0 time=1
note_on channel=0 note=67 velocity=39 time=0
note_on channel=0 note=70 velocity=46 time=0
note_on channel=0 note=46 velocity=33 time=0
note_on channel=0 note=53 velocity=42 time=0
control_change channel=0 control=64 value=0 time=0
control_change channel=0 control=64 value=127 time=75
note_on channel=0 note=53 velocity=0 time=16
note_on channel=0 note=55 velocity=30 time=0
note_on channel=0 note=55 velocity=0 time=46
note_on channel=0 note=70 velocity=0 time=0
note_on channel=0 note=67 velocity=0 time=0
note_on channel=0 note=65 velocity=34 time=0
note_on channel=0 note=68 velocity=40 time=0
note_on channel=0 note=56 velocity=30 time=0
note_on channel=0 note=56 velocity=0 time=61
note_on channel=0 note=57 velocity=30 time=0
note_on channel=0 note=57 velocity=0 time=1
note_on channel=0 note=68 velocity=0 time=0
note_on channel=0 note=65 velocity=0 time=0
note_on channel=0 note=63 velocity=34 time=0
note_on channel=0 note=67 velocity=40 time=0
note_on channel=0 note=58 velocity=39 time=0
control_change channel=0 control=64 value=0 time=5
control_change channel=0 control=64 value=127 time=75
note_on channel=0 note=58 velocity=0 time=46
note_on channel=0 note=67 velocity=0 time=0
note_on channel=0 note=63 velocity=0 time=0
note_on channel=0 note=58 velocity=34 time=0
note_on channel=0 note=65 velocity=40 time=0
note_on channel=0 note=56 velocity=33 time=0
note_on channel=0 note=56 velocity=0 time=0
note_on channel=0 note=46 velocity=0 time=0
note_on channel=0 note=58 velocity=0 time=0
note_on channel=0 note=65 velocity=0 time=0
note_on channel=0 note=63 velocity=42 time=0
note_on channel=0 note=55 velocity=39 time=0
note_on channel=0 note=51 velocity=33 time=0
control_change channel=0 control=64 value=0 time=0
control_change channel=0 control=64 value=127 time=97
note_on channel=0 note=63 velocity=0 time=23
note_on channel=0 note=58 velocity=36 time=0
note_on channel=0 note=58 velocity=0 time=0
note_on channel=0 note=60 velocity=36 time=0
note_on channel=0 note=60 velocity=0 time=120
note_on channel=0 note=58 velocity=36 time=0
note_on channel=0 note=58 velocity=0 time=120
note_on channel=0 note=57 velocity=42 time=0
control_change channel=0 control=64 value=0 time=15
control_change channel=0 control=64 value=127 time=82
note_on channel=0 note=57 velocity=0 time=23
note_on channel=0 note=58 velocity=36 time=0
note_on channel=0 note=58 velocity=0 time=0
note_on channel=0 note=67 velocity=36 time=0
note_on channel=0 note=67 velocity=0 time=0
note_on channel=0 note=63 velocity=36 time=0
note_on channel=0 note=63 velocity=0 time=0
note_on channel=0 note=51 velocity=0 time=0
note_on channel=0 note=55 velocity=0 time=0
note_on channel=0 note=62 velocity=42 time=0
note_on channel=0 note=46 velocity=33 time=0
note_on channel=0 note=53 velocity=39 time=0
control_change channel=0 control=64 value=0 time=0
control_change channel=0 control=64 value=127 time=86
note_on channel=0 note=62 velocity=0 time=34
note_on channel=0 note=63 velocity=36 time=0
note_on channel=0 note=63 velocity=0 time=0
note_on channel=0 note=65 velocity=36 time=0
note_on channel=0 note=65 velocity=0 time=120
note_on channel=0 note=67 velocity=36 time=0
note_on channel=0 note=67 velocity=0 time=120
note_on channel=0 note=68 velocity=42 time=0
control_change channel=0 control=64 value=0 time=15
control_change channel=0 control=64 value=127 time=82
note_on channel=0 note=68 velocity=0 time=23
note_on channel=0 note=69 velocity=37 time=0
note_on channel=0 note=69 velocity=0 time=0
note_on channel=0 note=72 velocity=37 time=0
note_on channel=0 note=72 velocity=0 time=0
note_on channel=0 note=70 velocity=37 time=0
note_on channel=0 note=70 velocity=0 time=0
note_on channel=0 note=53 velocity=0 time=0
note_on channel=0 note=46 velocity=0 time=0
note_on channel=0 note=69 velocity=42 time=0
note_on channel=0 note=63 velocity=33 time=0
note_on channel=0 note=67 velocity=39 time=0
control_change channel=0 control=64 value=0 time=7
control_change channel=0 control=64 value=127 time=79
note_on channel=0 note=69 velocity=0 time=34
note_on channel=0 note=70 velocity=35 time=0
note_on channel=0 note=70 velocity=0 time=0
note_on channel=0 note=72 velocity=35 time=0
note_on channel=0 note=72 velocity=0 time=120
note_on channel=0 note=70 velocity=35 time=0
note_on channel=0 note=70 velocity=0 time=0
note_on channel=0 note=69 velocity=42 time=0
control_change channel=0 control=64 value=0 time=11
control_change channel=0 control=64 value=127 time=81
note_on channel=0 note=69 velocity=0 time=28
note_on channel=0 note=70 velocity=35 time=0
note_on channel=0 note=70 velocity=0 time=120
note_on channel=0 note=79 velocity=35 time=0
note_on channel=0 note=79 velocity=0 time=0
note_on channel=0 note=75 velocity=35 time=0
note_on channel=0 note=75 velocity=0 time=0
note_on channel=0 note=67 velocity=0 time=0
note_on channel=0 note=63 velocity=0 time=0
note_on channel=0 note=74 velocity=47 time=0
note_on channel=0 note=58 velocity=33 time=0
note_on channel=0 note=65 velocity=39 time=0
control_change channel=0 control=64 value=0 time=0
control_change channel=0 control=64 value=127 time=92
note_on channel=0 note=74 velocity=0 time=28
note_on channel=0 note=75 velocity=40 time=0
note_on channel=0 note=75 velocity=0 time=0
note_on channel=0 note=77 velocity=40 time=0
note_on channel=0 note=77 velocity=0 time=120
note_on channel=0 note=79 velocity=40 time=0
note_on channel=0 note=79 velocity=0 time=120
note_on channel=0 note=80 velocity=48 time=0
control_change channel=0 control=64 value=0 time=8
control_change channel=0 control=64 value=127 time=67
note_on channel=0 note=80 velocity=0 time=45
note_on channel=0 note=81 velocity=39 time=0
note_on channel=0 note=81 velocity=0 time=120
note_on channel=0 note=84 velocity=39 time=0
note_on channel=0 note=84 velocity=0 time=0
note_on channel=0 note=82 velocity=39 time=0
note_on channel=0 note=82 velocity=0 time=0
note_on channel=0 note=65 velocity=0 time=0
note_on channel=0 note=58 velocity=0 time=0
note_on channel=0 note=81 velocity=46 time=0
note_on channel=0 note=75 velocity=33 time=0
note_on channel=0 note=79 velocity=39 time=0
control_change channel=0 control=64 value=0 time=3
control_change channel=0 control=64 value=127 time=77
note_on channel=0 note=81 velocity=0 time=40
note_on channel=0 note=82 velocity=38 time=0
note_on channel=0 note=82 velocity=0 time=0
note_on channel=0 note=84 velocity=39 time=0
note_on channel=0 note=84 velocity=0 time=120
note_on channel=0 note=82 velocity=39 time=0
note_on channel=0 note=82 velocity=0 time=120
note_on channel=0 note=81 velocity=48 time=0
control_change channel=0 control=64 value=0 time=8
control_change channel=0 control=64 value=127 time=67
note_on channel=0 note=81 velocity=0 time=45
note_on channel=0 note=82 velocity=40 time=0
note_on channel=0 note=82 velocity=0 time=120
note_on channel=0 note=91 velocity=41 time=0
note_on channel=0 note=91 velocity=0 time=0
note_on channel=0 note=87 velocity=41 time=0
note_on channel=0 note=87 velocity=0 time=0
note_on channel=0 note=79 velocity=0 time=0
note_on channel=0 note=75 velocity=0 time=0
note_on channel=0 note=86 velocity=57 time=0
note_on channel=0 note=70 velocity=36 time=0
note_on channel=0 note=74 velocity=36 time=0
note_on channel=0 note=77 velocity=43 time=0
control_change channel=0 control=64 value=0 time=29
control_change channel=0 control=64 value=127 time=74
note_on channel=0 note=86 velocity=0 time=17
note_on channel=0 note=87 velocity=50 time=0
note_on channel=0 note=87 velocity=0 time=120
note_on channel=0 note=89 velocity=50 time=0
note_on channel=0 note=89 velocity=0 time=120
note_on channel=0 note=91 velocity=51 time=0
note_on channel=0 note=91 velocity=0 time=0
note_on channel=0 note=77 velocity=0 time=0
note_on channel=0 note=74 velocity=0 time=0
note_on channel=0 note=70 velocity=0 time=0
note_on channel=0 note=92 velocity=61 time=0
note_on channel=0 note=68 velocity=39 time=0
note_on channel=0 note=70 velocity=39 time=0
note_on channel=0 note=74 velocity=39 time=0
note_on channel=0 note=77 velocity=46 time=0
control_change channel=0 control=64 value=0 time=8
control_change channel=0 control=64 value=127 time=84
note_on channel=0 note=92 velocity=0 time=28
note_on channel=0 note=93 velocity=50 time=0
note_on channel=0 note=93 velocity=0 time=0
note_on channel=0 note=96 velocity=50 time=0
note_on channel=0 note=96 velocity=0 time=0
note_on channel=0 note=94 velocity=51 time=0
note_on channel=0 note=94 velocity=0 time=0
note_on channel=0 note=77 velocity=0 time=0
note_on channel=0 note=68 velocity=0 time=0
note_on channel=0 note=70 velocity=0 time=0
note_on channel=0 note=74 velocity=0 time=0
note_on channel=0 note=93 velocity=63 time=0
note_on channel=0 note=67 velocity=40 time=0
note_on channel=0 note=70 velocity=48 time=0
control_change channel=0 control=64 value=0 time=0
control_change channel=0 control=64 value=127 time=86
note_on channel=0 note=93 velocity=0 time=34
note_on channel=0 note=94 velocity=54 time=0
note_on channel=0 note=94 velocity=0 time=120
note_on channel=0 note=92 velocity=53 time=0
note_on channel=0 note=92 velocity=0 time=0
note_on channel=0 note=91 velocity=53 time=0
note_on channel=0 note=91 velocity=0 time=0
note_on channel=0 note=70 velocity=0 time=0
note_on channel=0 note=67 velocity=0 time=0
note_on channel=0 note=89 velocity=60 time=0
note_on channel=0 note=63 velocity=39 time=0
note_on channel=0 note=67 velocity=46 time=0
control_change channel=0 control=64 value=0 time=12
control_change channel=0 control=64 value=127 time=74
note_on channel=0 note=89 velocity=0 time=34
note_on channel=0 note=87 velocity=51 time=0
note_on channel=0 note=87 velocity=0 time=120
note_on channel=0 note=86 velocity=51 time=0
note_on channel=0 note=86 velocity=0 time=0
note_on channel=0 note=84 velocity=50 time=0
note_on channel=0 note=84 velocity=0 time=0
note_on channel=0 note=67 velocity=0 time=0
note_on channel=0 note=63 velocity=0 time=0
note_on channel=0 note=82 velocity=59 time=0
note_on channel=0 note=58 velocity=37 time=0
note_on channel=0 note=65 velocity=37 time=0
note_on channel=0 note=68 velocity=44 time=0
control_change channel=0 control=64 value=0 time=21
control_change channel=0 control=64 value=127 time=85
note_on channel=0 note=82 velocity=0 time=14
note_on channel=0 note=80 velocity=45 time=0
note_on channel=0 note=80 velocity=0 time=0
note_on channel=0 note=79 velocity=45 time=0
note_on channel=0 note=79 velocity=0 time=120
note_on channel=0 note=77 velocity=45 time=0
note_on channel=0 note=77 velocity=0 time=120
note_on channel=0 note=68 velocity=0 time=0
note_on channel=0 note=65 velocity=0 time=0
note_on channel=0 note=58 velocity=0 time=0
note_on channel=0 note=75 velocity=52 time=0
note_on channel=0 note=58 velocity=34 time=0
note_on channel=0 note=65 velocity=34 time=0
note_on channel=0 note=68 velocity=41 time=0
note_on channel=0 note=75 velocity=0 time=120
note_on channel=0 note=74 velocity=47 time=0
note_on channel=0 note=74 velocity=0 time=120
note_on channel=0 note=77 velocity=43 time=0
note_on channel=0 note=77 velocity=0 time=0
note_on channel=0 note=80 velocity=41 time=0
note_on channel=0 note=80 velocity=0 time=0
note_on channel=0 note=68 velocity=0 time=0
note_on channel=0 note=65 velocity=0 time=0
note_on channel=0 note=58 velocity=0 time=0
note_on channel=0 note=75 velocity=39 time=0
note_on channel=0 note=79 velocity=47 time=0
control_change channel=0 control=64 value=0 time=0
control_change channel=0 control=64 value=0 time=0
control_change channel=0 control=64 value=127 time=86
note_on channel=0 note=58 velocity=36 time=0
note_on channel=0 note=58 velocity=0 time=0
note_on channel=0 note=60 velocity=36 time=0
note_on channel=0 note=60 velocity=0 time=120
note_on channel=0 note=58 velocity=36 time=0
note_on channel=0 note=58 velocity=0 time=120
note_on channel=0 note=57 velocity=42 time=0
control_change channel=0 control=64 value=0 time=4
control_change channel=0 control=64 value=127 time=65
note_on channel=0 note=57 velocity=0 time=51
note_on channel=0 note=58 velocity=36 time=0
note_on channel=0 note=58 velocity=0 time=120
note_on channel=0 note=55 velocity=36 time=0
note_on channel=0 note=55 velocity=0 time=0
note_on channel=0 note=51 velocity=36 time=0
note_on channel=0 note=51 velocity=0 time=0
note_on channel=0 note=79 velocity=0 time=0
note_on channel=0 note=75 velocity=0 time=0
note_on channel=0 note=70 velocity=40 time=0
note_on channel=0 note=77 velocity=48 time=0
note_on channel=0 note=56 velocity=42 time=0
control_change channel=0 control=64 value=0 time=0
control_change channel=0 control=64 value=127 time=106
note_on channel=0 note=56 velocity=0 time=14
note_on channel=0 note=53 velocity=36 time=0
note_on channel=0 note=53 velocity=0 time=120
note_on channel=0 note=50 velocity=36 time=0
note_on channel=0 note=50 velocity=0 time=120
note_on channel=0 note=46 velocity=36 time=0
note_on channel=0 note=46 velocity=0 time=0
note_on channel=0 note=44 velocity=43 time=0
note_on channel=0 note=44 velocity=0 time=120
note_on channel=0 note=41 velocity=36 time=0
note_on channel=0 note=41 velocity=0 time=120
note_on channel=0 note=38 velocity=36 time=0
note_on channel=0 note=38 velocity=0 time=0
note_on channel=0 note=34 velocity=36 time=0
note_on channel=0 note=34 velocity=0 time=0
note_on channel=0 note=77 velocity=0 time=0
note_on channel=0 note=70 velocity=0 time=0
note_on channel=0 note=67 velocity=40 time=0
note_on channel=0 note=75 velocity=48 time=0
note_on channel=0 note=39 velocity=45 time=0
control_change channel=0 control=64 value=0 time=0
note_on channel=0 note=39 velocity=0 time=120
note_on channel=0 note=41 velocity=36 time=0
control_change channel=0 control=64 value=127 time=14
note_on channel=0 note=41 velocity=0 time=106
note_on channel=0 note=43 velocity=36 time=0
note_on channel=0 note=43 velocity=0 time=120
note_on channel=0 note=44 velocity=36 time=0
note_on channel=0 note=44 velocity=0 time=120
note_on channel=0 note=75 velocity=0 time=0
note_on channel=0 note=67 velocity=0 time=0
note_on channel=0 note=68 velocity=35 time=0
note_on channel=0 note=72 velocity=42 time=0
note_on channel=0 note=46 velocity=43 time=0
control_change channel=0 control=64 value=0 time=12
control_change channel=0 control=64 value=127 time=94
note_on channel=0 note=46 velocity=0 time=14
note_on channel=0 note=48 velocity=36 time=0
note_on channel=0 note=48 velocity=0 time=120
note_on channel=0 note=72 velocity=0 time=0
note_on channel=0 note=68 velocity=0 time=0
note_on channel=0 note=70 velocity=41 time=0
note_on channel=0 note=67 velocity=34 time=0
note_on channel=0 note=50 velocity=36 time=0
note_on channel=0 note=50 velocity=0 time=120
note_on channel=0 note=51 velocity=36 time=0
note_on channel=0 note=67 velocity=0 time=118
note_on channel=0 note=70 velocity=0 time=0
note_on channel=0 note=51 velocity=0 time=1
note_on channel=0 note=67 velocity=39 time=0
note_on channel=0 note=70 velocity=46 time=0
note_on channel=0 note=46 velocity=33 time=0
note_on channel=0 note=53 velocity=42 time=0
control_change channel=0 control=64 value=0 time=0
control_change channel=0 control=64 value=127 time=75
note_on channel=0 note=53 velocity=0 time=16
note_on channel=0 note=55 velocity=30 time=0
note_on channel=0 note=55 velocity=0 time=46
note_on channel=0 note=70 velocity=0 time=0
note_on channel=0 note=67 velocity=0 time=0
note_on channel=0 note=65 velocity=34 time=0
note_on channel=0 note=68 velocity=40 time=0
note_on channel=0 note=56 velocity=30 time=0
note_on channel=0 note=56 velocity=0 time=61
note_on channel=0 note=57 velocity=30 time=0
note_on channel=0 note=57 velocity=0 time=1
note_on channel=0 note=68 velocity=0 time=0
note_on channel=0 note=65 velocity=0 time=0
note_on channel=0 note=63 velocity=34 time=0
note_on channel=0 note=67 velocity=40 time=0
note_on channel=0 note=58 velocity=39 time=0
control_change channel=0 control=64 value=0 time=5
control_change channel=0 control=64 value=127 time=75
note_on channel=0 note=58 velocity=0 time=46
note_on channel=0 note=67 velocity=0 time=0
note_on channel=0 note=63 velocity=0 time=0
note_on channel=0 note=58 velocity=34 time=0
note_on channel=0 note=65 velocity=40 time=0
note_on channel=0 note=56 velocity=33 time=0
note_on channel=0 note=56 velocity=0 time=0
note_on channel=0 note=46 velocity=0 time=0
note_on channel=0 note=58 velocity=0 time=0
note_on channel=0 note=65 velocity=0 time=0
note_on channel=0 note=63 velocity=42 time=0
note_on channel=0 note=55 velocity=39 time=0
note_on channel=0 note=51 velocity=33 time=0
control_change channel=0 control=64 value=0 time=0
control_change channel=0 control=64 value=127 time=97
note_on channel=0 note=63 velocity=0 time=23
note_on channel=0 note=58 velocity=36 time=0
note_on channel=0 note=58 velocity=0 time=0
note_on channel=0 note=60 velocity=36 time=0
note_on channel=0 note=60 velocity=0 time=120
note_on channel=0 note=58 velocity=36 time=0
note_on channel=0 note=58 velocity=0 time=120
note_on channel=0 note=57 velocity=42 time=0
control_change channel=0 control=64 value=0 time=15
control_change channel=0 control=64 value=127 time=82
note_on channel=0 note=57 velocity=0 time=23
note_on channel=0 note=58 velocity=36 time=0
note_on channel=0 note=58 velocity=0 time=120
note_on channel=0 note=67 velocity=36 time=0
note_on channel=0 note=67 velocity=0 time=0
note_on channel=0 note=63 velocity=36 time=0
note_on channel=0 note=63 velocity=0 time=0
note_on channel=0 note=51 velocity=0 time=0
note_on channel=0 note=55 velocity=0 time=0
note_on channel=0 note=62 velocity=42 time=0
note_on channel=0 note=46 velocity=33 time=0
note_on channel=0 note=53 velocity=39 time=0
control_change channel=0 control=64 value=0 time=0
control_change channel=0 control=64 value=127 time=86
note_on channel=0 note=62 velocity=0 time=34
note_on channel=0 note=63 velocity=36 time=0
note_on channel=0 note=63 velocity=0 time=0
note_on channel=0 note=65 velocity=36 time=0
note_on channel=0 note=65 velocity=0 time=120
note_on channel=0 note=67 velocity=36 time=0
note_on channel=0 note=67 velocity=0 time=120
note_on channel=0 note=68 velocity=42 time=0
control_change channel=0 control=64 value=0 time=15
control_change channel=0 control=64 value=127 time=82
note_on channel=0 note=68 velocity=0 time=23
note_on channel=0 note=69 velocity=37 time=0
note_on channel=0 note=69 velocity=0 time=120
note_on channel=0 note=72 velocity=37 time=0
note_on channel=0 note=72 velocity=0 time=0
note_on channel=0 note=70 velocity=37 time=0
note_on channel=0 note=70 velocity=0 time=0
note_on channel=0 note=53 velocity=0 time=0
note_on channel=0 note=46 velocity=0 time=0
note_on channel=0 note=69 velocity=42 time=0
note_on channel=0 note=63 velocity=33 time=0
note_on channel=0 note=67 velocity=39 time=0
control_change channel=0 control=64 value=0 time=7
control_change channel=0 control=64 value=127 time=79
note_on channel=0 note=69 velocity=0 time=34
note_on channel=0 note=70 velocity=35 time=0
note_on channel=0 note=70 velocity=0 time=0
note_on channel=0 note=72 velocity=35 time=0
note_on channel=0 note=72 velocity=0 time=120
note_on channel=0 note=70 velocity=35 time=0
note_on channel=0 note=70 velocity=0 time=120
note_on channel=0 note=69 velocity=42 time=0
control_change channel=0 control=64 value=0 time=11
control_change channel=0 control=64 value=127 time=81
note_on channel=0 note=69 velocity=0 time=28
note_on channel=0 note=70 velocity=37 time=0
note_on channel=0 note=70 velocity=0 time=0
note_on channel=0 note=79 velocity=37 time=0
note_on channel=0 note=79 velocity=0 time=0
note_on channel=0 note=75 velocity=37 time=0
note_on channel=0 note=75 velocity=0 time=0
note_on channel=0 note=67 velocity=0 time=0
note_on channel=0 note=63 velocity=0 time=0
note_on channel=0 note=74 velocity=51 time=0
note_on channel=0 note=58 velocity=33 time=0
note_on channel=0 note=65 velocity=39 time=0
control_change channel=0 control=64 value=0 time=0
control_change channel=0 control=64 value=127 time=92
note_on channel=0 note=74 velocity=0 time=28
note_on channel=0 note=75 velocity=42 time=0
note_on channel=0 note=75 velocity=0 time=0
note_on channel=0 note=77 velocity=42 time=0
note_on channel=0 note=77 velocity=0 time=120
note_on channel=0 note=79 velocity=42 time=0
note_on channel=0 note=79 velocity=0 time=120
note_on channel=0 note=80 velocity=51 time=0
control_change channel=0 control=64 value=0 time=8
control_change channel=0 control=64 value=127 time=67
note_on channel=0 note=80 velocity=0 time=45
note_on channel=0 note=81 velocity=43 time=0
note_on channel=0 note=81 velocity=0 time=120
note_on channel=0 note=84 velocity=42 time=0
note_on channel=0 note=84 velocity=0 time=0
note_on channel=0 note=82 velocity=42 time=0
note_on channel=0 note=82 velocity=0 time=0
note_on channel=0 note=65 velocity=0 time=0
note_on channel=0 note=58 velocity=0 time=0
note_on channel=0 note=81 velocity=53 time=0
note_on channel=0 note=75 velocity=33 time=0
note_on channel=0 note=79 velocity=39 time=0
control_change channel=0 control=64 value=0 time=3
control_change channel=0 control=64 value=127 time=77
note_on channel=0 note=81 velocity=0 time=40
note_on channel=0 note=82 velocity=44 time=0
note_on channel=0 note=82 velocity=0 time=0
note_on channel=0 note=84 velocity=45 time=0
note_on channel=0 note=84 velocity=0 time=120
note_on channel=0 note=82 velocity=46 time=0
note_on channel=0 note=82 velocity=0 time=120
note_on channel=0 note=81 velocity=54 time=0
control_change channel=0 control=64 value=0 time=8
control_change channel=0 control=64 value=127 time=67
note_on channel=0 note=81 velocity=0 time=45
note_on channel=0 note=82 velocity=45 time=0
note_on channel=0 note=82 velocity=0 time=120
note_on channel=0 note=91 velocity=47 time=0
note_on channel=0 note=91 velocity=0 time=0
note_on channel=0 note=87 velocity=47 time=0
note_on channel=0 note=87 velocity=0 time=0
note_on channel=0 note=79 velocity=0 time=0
note_on channel=0 note=75 velocity=0 time=0
note_on channel=0 note=86 velocity=57 time=0
note_on channel=0 note=70 velocity=36 time=0
note_on channel=0 note=77 velocity=43 time=0
control_change channel=0 control=64 value=0 time=29
control_change channel=0 control=64 value=127 time=74
note_on channel=0 note=86 velocity=0 time=17
note_on channel=0 note=87 velocity=50 time=0
note_on channel=0 note=87 velocity=0 time=120
note_on channel=0 note=89 velocity=50 time=0
note_on channel=0 note=89 velocity=0 time=120
note_on channel=0 note=91 velocity=51 time=0
note_on channel=0 note=91 velocity=0 time=0
note_on channel=0 note=77 velocity=0 time=0
note_on channel=0 note=70 velocity=0 time=0
note_on channel=0 note=92 velocity=65 time=0
note_on channel=0 note=68 velocity=39 time=0
note_on channel=0 note=70 velocity=39 time=0
note_on channel=0 note=77 velocity=46 time=0
control_change channel=0 control=64 value=0 time=8
control_change channel=0 control=64 value=127 time=84
note_on channel=0 note=92 velocity=0 time=28
note_on channel=0 note=93 velocity=52 time=0
note_on channel=0 note=93 velocity=0 time=0
note_on channel=0 note=96 velocity=54 time=0
note_on channel=0 note=96 velocity=0 time=0
note_on channel=0 note=94 velocity=51 time=0
note_on channel=0 note=94 velocity=0 time=118
note_on channel=0 note=77 velocity=0 time=0
note_on channel=0 note=70 velocity=0 time=0
note_on channel=0 note=68 velocity=0 time=0
note_on channel=0 note=94 velocity=73 time=0
note_on channel=0 note=67 velocity=40 time=0
note_on channel=0 note=70 velocity=48 time=0
control_change channel=0 control=64 value=0 time=0
control_change channel=0 control=64 value=127 time=86
note_on channel=0 note=70 velocity=0 time=32
note_on channel=0 note=94 velocity=0 time=2
note_on channel=0 note=70 velocity=47 time=0
note_on channel=0 note=70 velocity=0 time=120
note_on channel=0 note=67 velocity=0 time=0
note_on channel=0 note=72 velocity=47 time=0
note_on channel=0 note=63 velocity=39 time=0
note_on channel=0 note=67 velocity=46 time=0
note_on channel=0 note=72 velocity=0 time=0
note_on channel=0 note=70 velocity=47 time=0
note_on channel=0 note=70 velocity=0 time=0
note_on channel=0 note=69 velocity=56 time=0
control_change channel=0 control=64 value=0 time=12
control_change channel=0 control=64 value=127 time=74
note_on channel=0 note=69 velocity=0 time=34
note_on channel=0 note=70 velocity=41 time=0
note_on channel=0 note=70 velocity=0 time=120
note_on channel=0 note=67 velocity=0 time=0
note_on channel=0 note=63 velocity=0 time=0
note_on channel=0 note=79 velocity=42 time=0
note_on channel=0 note=63 velocity=40 time=0
note_on channel=0 note=67 velocity=48 time=0
note_on channel=0 note=79 velocity=0 time=0
note_on channel=0 note=75 velocity=44 time=0
note_on channel=0 note=75 velocity=0 time=0
note_on channel=0 note=67 velocity=0 time=0
note_on channel=0 note=63 velocity=0 time=0
note_on channel=0 note=74 velocity=59 time=0
note_on channel=0 note=58 velocity=37 time=0
note_on channel=0 note=65 velocity=44 time=0
control_change channel=0 control=64 value=0 time=21
control_change channel=0 control=64 value=127 time=85
note_on channel=0 note=74 velocity=0 time=14
note_on channel=0 note=75 velocity=48 time=0
note_on channel=0 note=75 velocity=0 time=120
note_on channel=0 note=77 velocity=45 time=0
note_on channel=0 note=77 velocity=0 time=120
note_on channel=0 note=79 velocity=42 time=0
note_on channel=0 note=79 velocity=0 time=0
note_on channel=0 note=65 velocity=0 time=0
note_on channel=0 note=58 velocity=0 time=0
note_on channel=0 note=80 velocity=54 time=0
note_on channel=0 note=56 velocity=34 time=0
note_on channel=0 note=58 velocity=34 time=0
note_on channel=0 note=65 velocity=41 time=0
note_on channel=0 note=80 velocity=0 time=120
note_on channel=0 note=81 velocity=41 time=0
note_on channel=0 note=81 velocity=0 time=120
note_on channel=0 note=84 velocity=41 time=0
note_on channel=0 note=84 velocity=0 time=120
note_on channel=0 note=82 velocity=41 time=0
note_on channel=0 note=82 velocity=0 time=0
note_on channel=0 note=65 velocity=0 time=0
note_on channel=0 note=58 velocity=0 time=0
note_on channel=0 note=56 velocity=0 time=0
note_on channel=0 note=82 velocity=60 time=0
note_on channel=0 note=55 velocity=40 time=0
note_on channel=0 note=58 velocity=48 time=0
control_change channel=0 control=64 value=0 time=0
control_change channel=0 control=64 value=127 time=86
note_on channel=0 note=58 velocity=0 time=32
note_on channel=0 note=82 velocity=0 time=2
note_on channel=0 note=58 velocity=39 time=0
note_on channel=0 note=58 velocity=0 time=120
note_on channel=0 note=55 velocity=0 time=0
note_on channel=0 note=60 velocity=36 time=0
note_on channel=0 note=51 velocity=33 time=0
note_on channel=0 note=55 velocity=39 time=0
note_on channel=0 note=60 velocity=0 time=0
note_on channel=0 note=58 velocity=36 time=0
note_on channel=0 note=58 velocity=0 time=0
note_on channel=0 note=57 velocity=45 time=0
control_change channel=0 control=64 value=0 time=12
control_change channel=0 control=64 value=127 time=74
note_on channel=0 note=57 velocity=0 time=34
note_on channel=0 note=58 velocity=34 time=0
note_on channel=0 note=58 velocity=0 time=120
note_on channel=0 note=55 velocity=0 time=0
note_on channel=0 note=51 velocity=0 time=0
note_on channel=0 note=67 velocity=34 time=0
note_on channel=0 note=51 velocity=34 time=0
note_on channel=0 note=55 velocity=40 time=0
note_on channel=0 note=67 velocity=0 time=0
note_on channel=0 note=63 velocity=37 time=0
note_on channel=0 note=63 velocity=0 time=0
note_on channel=0 note=55 velocity=0 time=0
note_on channel=0 note=51 velocity=0 time=0
note_on channel=0 note=57 velocity=50 time=0
note_on channel=0 note=53 velocity=31 time=0
note_on channel=0 note=46 velocity=31 time=0
note_on channel=0 note=56 velocity=37 time=0
control_change channel=0 control=64 value=0 time=21
control_change channel=0 control=64 value=127 time=85
note_on channel=0 note=57 velocity=0 time=14
note_on channel=0 note=58 velocity=37 time=0
note_on channel=0 note=58 velocity=0 time=120
note_on channel=0 note=68 velocity=35 time=0
note_on channel=0 note=68 velocity=0 time=120
note_on channel=0 note=65 velocity=35 time=0
note_on channel=0 note=65 velocity=0 time=19
note_on channel=0 note=56 velocity=0 time=0
note_on channel=0 note=46 velocity=0 time=0
note_on channel=0 note=53 velocity=0 time=0
note_on channel=0 note=62 velocity=45 time=0
note_on channel=0 note=46 velocity=28 time=0
note_on channel=0 note=53 velocity=28 time=0
note_on channel=0 note=56 velocity=34 time=0
control_change channel=0 control=64 value=0 time=1
control_change channel=0 control=64 value=127 time=8
note_on channel=0 note=62 velocity=0 time=4
note_on channel=0 note=72 velocity=39 time=0
note_on channel=0 note=72 velocity=0 time=4
note_on channel=0 note=70 velocity=39 time=0
note_on channel=0 note=70 velocity=0 time=4
note_on channel=0 note=62 velocity=39 time=0
note_on channel=0 note=62 velocity=0 time=0
note_on channel=0 note=56 velocity=0 time=0
note_on channel=0 note=53 velocity=0 time=0
note_on channel=0 note=46 velocity=0 time=0
note_on channel=0 note=63 velocity=55 time=0
control_change channel=0 control=64 value=0 time=0
control_change channel=0 control=64 value=127 time=147
note_on channel=0 note=63 velocity=0 time=0
note_on channel=0 note=58 velocity=50 time=0
control_change channel=0 control=64 value=0 time=0
control_change channel=0 control=64 value=127 time=174
note_on channel=0 note=58 velocity=0 time=0
note_on channel=0 note=55 velocity=48 time=0
note_on channel=0 note=51 velocity=43 time=0
control_change channel=0 control=64 value=0 time=0
control_change channel=0 control=64 value=127 time=174
note_on channel=0 note=55 velocity=0 time=66
control_change channel=0 control=64 value=0 time=320
note_on channel=0 note=51 velocity=0 time=0
note_on channel=0 note=46 velocity=44 time=0
control_change channel=0 control=64 value=127 time=187
note_on channel=0 note=46 velocity=0 time=0
note_on channel=0 note=63 velocity=46 time=0
note_on channel=0 note=67 velocity=55 time=0
note_on channel=0 note=43 velocity=37 time=0
control_change channel=0 control=64 value=0 time=0
control_change channel=0 control=64 value=127 time=160
note_on channel=0 note=43 velocity=0 time=80
note_on channel=0 note=67 velocity=0 time=0
note_on channel=0 note=63 velocity=0 time=0
note_on channel=0 note=65 velocity=50 time=0
note_on channel=0 note=58 velocity=42 time=0
control_change channel=0 control=64 value=0 time=0
control_change channel=0 control=64 value=127 time=174
note_on channel=0 note=58 velocity=0 time=786
note_on channel=0 note=65 velocity=0 time=0
note_on channel=0 note=63 velocity=48 time=0
note_on channel=0 note=55 velocity=40 time=0
note_on channel=0 note=55 velocity=43 time=0
note_on channel=0 note=51 velocity=36 time=0
control_change channel=0 control=64 value=0 time=0
control_change channel=0 control=64 value=127 time=174
note_on channel=0 note=55 velocity=0 time=66
note_on channel=0 note=63 velocity=0 time=0
control_change channel=0 control=64 value=0 time=320
note_on channel=0 note=55 velocity=0 time=0
note_on channel=0 note=51 velocity=0 time=0
note_on channel=0 note=53 velocity=44 time=0
note_on channel=0 note=46 velocity=37 time=0
control_change channel=0 control=64 value=127 time=187
note_on channel=0 note=63 velocity=31 time=533
note_on channel=0 note=67 velocity=39 time=0
note_on channel=0 note=67 velocity=0 time=0
note_on channel=0 note=53 velocity=0 time=0
note_on channel=0 note=46 velocity=0 time=0
note_on channel=0 note=63 velocity=0 time=0
note_on channel=0 note=58 velocity=42 time=0
note_on channel=0 note=65 velocity=52 time=0
note_on channel=0 note=43 velocity=27 time=0
note_on channel=0 note=51 velocity=33 time=0
control_change channel=0 control=64 value=0 time=27
control_change channel=0 control=64 value=127 time=173
note_on channel=0 note=51 velocity=0 time=40
note_on channel=0 note=43 velocity=0 time=0
control_change channel=0 control=64 value=0 time=280
note_on channel=0 note=51 velocity=26 time=0
note_on channel=0 note=55 velocity=31 time=0
note_on channel=0 note=55 velocity=0 time=238
note_on channel=0 note=58 velocity=0 time=0
note_on channel=0 note=65 velocity=0 time=0
note_on channel=0 note=51 velocity=0 time=0
note_on channel=0 note=55 velocity=37 time=0
note_on channel=0 note=63 velocity=46 time=0
note_on channel=0 note=46 velocity=31 time=0
note_on channel=0 note=53 velocity=37 time=0
control_change channel=0 control=64 value=127 time=134
note_on channel=0 note=63 velocity=0 time=106
note_on channel=0 note=55 velocity=0 time=0
control_change channel=0 control=64 value=0 time=254
note_on channel=0 note=75 velocity=31 time=0
note_on channel=0 note=79 velocity=39 time=0
note_on channel=0 note=79 velocity=0 time=0
note_on channel=0 note=53 velocity=0 time=0
note_on channel=0 note=46 velocity=0 time=0
note_on channel=0 note=75 velocity=0 time=0
note_on channel=0 note=70 velocity=44 time=0
note_on channel=0 note=77 velocity=46 time=0
note_on channel=0 note=43 velocity=27 time=0
note_on channel=0 note=51 velocity=33 time=0
control_change channel=0 control=64 value=127 time=120
note_on channel=0 note=51 velocity=0 time=120
note_on channel=0 note=43 velocity=0 time=0
control_change channel=0 control=64 value=0 time=280
note_on channel=0 note=63 velocity=26 time=0
note_on channel=0 note=67 velocity=31 time=0
note_on channel=0 note=67 velocity=0 time=238
note_on channel=0 note=70 velocity=0 time=0
note_on channel=0 note=77 velocity=0 time=0
note_on channel=0 note=63 velocity=0 time=0
note_on channel=0 note=67 velocity=33 time=0
note_on channel=0 note=75 velocity=39 time=0
note_on channel=0 note=58 velocity=31 time=0
note_on channel=0 note=65 velocity=37 time=0
control_change channel=0 control=64 value=127 time=94
note_on channel=0 note=75 velocity=0 time=146
note_on channel=0 note=67 velocity=0 time=0
control_change channel=0 control=64 value=0 time=427
note_on channel=0 note=87 velocity=37 time=0
note_on channel=0 note=91 velocity=45 time=0
note_on channel=0 note=91 velocity=0 time=0
note_on channel=0 note=65 velocity=0 time=0
note_on channel=0 note=58 velocity=0 time=0
note_on channel=0 note=87 velocity=0 time=0
note_on channel=0 note=55 velocity=31 time=0
note_on channel=0 note=63 velocity=37 time=0
control_change channel=0 control=64 value=127 time=0
note_on channel=0 note=63 velocity=0 time=0
note_on channel=0 note=55 velocity=0 time=0
note_on channel=0 note=87 velocity=41 time=0
note_on channel=0 note=91 velocity=49 time=0
note_on channel=0 note=91 velocity=0 time=240
note_on channel=0 note=87 velocity=0 time=0
note_on channel=0 note=82 velocity=45 time=0
note_on channel=0 note=89 velocity=53 time=0
control_change channel=0 control=64 value=0 time=17
note_on channel=0 note=89 velocity=0 time=0
note_on channel=0 note=82 velocity=0 time=0
note_on channel=0 note=87 velocity=50 time=0
note_on channel=0 note=79 velocity=42 time=0
note_on channel=0 note=79 velocity=0 time=238
note_on channel=0 note=87 velocity=0 time=0
note_on channel=0 note=79 velocity=41 time=0
note_on channel=0 note=87 velocity=49 time=0
control_change channel=0 control=64 value=127 time=107
note_on channel=0 note=79 velocity=0 time=131
note_on channel=0 note=87 velocity=0 time=0
note_on channel=0 note=75 velocity=38 time=0
note_on channel=0 note=79 velocity=45 time=0
note_on channel=0 note=79 velocity=0 time=240
note_on channel=0 note=75 velocity=0 time=0
note_on channel=0 note=70 velocity=41 time=0
note_on channel=0 note=77 velocity=49 time=0
control_change channel=0 control=64 value=0 time=13
note_on channel=0 note=77 velocity=0 time=0
note_on channel=0 note=70 velocity=0 time=0
note_on channel=0 note=75 velocity=46 time=0
note_on channel=0 note=67 velocity=39 time=0
note_on channel=0 note=67 velocity=0 time=238
note_on channel=0 note=75 velocity=0 time=0
note_on channel=0 note=67 velocity=38 time=0
note_on channel=0 note=75 velocity=45 time=0
control_change channel=0 control=64 value=127 time=67
note_on channel=0 note=67 velocity=0 time=171
note_on channel=0 note=75 velocity=0 time=0
note_on channel=0 note=63 velocity=38 time=0
note_on channel=0 note=67 velocity=45 time=0
note_on channel=0 note=67 velocity=0 time=240
note_on channel=0 note=63 velocity=0 time=0
note_on channel=0 note=58 velocity=41 time=0
note_on channel=0 note=65 velocity=49 time=0
control_change channel=0 control=64 value=0 time=20
note_on channel=0 note=65 velocity=0 time=0
note_on channel=0 note=58 velocity=0 time=0
note_on channel=0 note=63 velocity=46 time=0
note_on channel=0 note=55 velocity=39 time=0
note_on channel=0 note=55 velocity=0 time=238
note_on channel=0 note=63 velocity=0 time=0
note_on channel=0 note=55 velocity=38 time=0
note_on channel=0 note=63 velocity=45 time=0
control_change channel=0 control=64 value=127 time=14
note_on channel=0 note=55 velocity=0 time=224
note_on channel=0 note=63 velocity=0 time=0
note_on channel=0 note=51 velocity=38 time=0
note_on channel=0 note=55 velocity=45 time=0
note_on channel=0 note=55 velocity=0 time=240
note_on channel=0 note=51 velocity=0 time=0
note_on channel=0 note=46 velocity=41 time=0
note_on channel=0 note=53 velocity=49 time=0
control_change channel=0 control=64 value=0 time=13
note_on channel=0 note=53 velocity=0 time=0
note_on channel=0 note=46 velocity=0 time=0
note_on channel=0 note=51 velocity=46 time=0
note_on channel=0 note=43 velocity=39 time=0
note_on channel=0 note=43 velocity=0 time=0
note_on channel=0 note=51 velocity=0 time=0
note_on channel=0 note=53 velocity=43 time=0
note_on channel=0 note=58 velocity=51 time=0
control_change channel=0 control=64 value=127 time=43
note_on channel=0 note=50 velocity=47 time=0
note_on channel=0 note=53 velocity=56 time=0
control_change channel=0 control=64 value=0 time=14
note_on channel=0 note=53 velocity=0 time=106
note_on channel=0 note=50 velocity=0 time=0
note_on channel=0 note=53 velocity=0 time=118
note_on channel=0 note=39 velocity=59 time=2
note_on channel=0 note=39 velocity=0 time=120
note_on channel=0 note=58 velocity=0 time=0
note_on channel=0 note=51 velocity=46 time=0
note_on channel=0 note=55 velocity=55 time=0
note_on channel=0 note=55 velocity=0 time=120
note_on channel=0 note=51 velocity=0 time=0
note_on channel=0 note=53 velocity=48 time=0
note_on channel=0 note=58 velocity=57 time=0
control_change channel=0 control=64 value=127 time=64
note_on channel=0 note=50 velocity=54 time=0
note_on channel=0 note=53 velocity=63 time=0
control_change channel=0 control=64 value=0 time=14
note_on channel=0 note=53 velocity=0 time=106
note_on channel=0 note=50 velocity=0 time=0
note_on channel=0 note=53 velocity=0 time=118
note_on channel=0 note=39 velocity=65 time=2
note_on channel=0 note=39 velocity=0 time=120
note_on channel=0 note=58 velocity=0 time=0
note_on channel=0 note=51 velocity=52 time=0
note_on channel=0 note=55 velocity=62 time=0
note_on channel=0 note=55 velocity=0 time=120
note_on channel=0 note=51 velocity=0 time=0
note_on channel=0 note=53 velocity=53 time=0
note_on channel=0 note=58 velocity=63 time=0
control_change channel=0 control=64 value=127 time=57
note_on channel=0 note=50 velocity=59 time=0
note_on channel=0 note=53 velocity=70 time=0
control_change channel=0 control=64 value=0 time=18
note_on channel=0 note=53 velocity=0 time=102
note_on channel=0 note=50 velocity=0 time=0
note_on channel=0 note=53 velocity=0 time=118
note_on channel=0 note=39 velocity=73 time=2
note_on channel=0 note=39 velocity=0 time=120
note_on channel=0 note=58 velocity=0 time=0
note_on channel=0 note=51 velocity=56 time=0
note_on channel=0 note=55 velocity=67 time=0
note_on channel=0 note=55 velocity=0 time=120
note_on channel=0 note=51 velocity=0 time=0
note_on channel=0 note=50 velocity=59 time=0
note_on channel=0 note=53 velocity=59 time=0
note_on channel=0 note=58 velocity=70 time=0
control_change channel=0 control=64 value=127 time=50
note_on channel=0 note=46 velocity=77 time=0
control_change channel=0 control=64 value=0 time=13
note_on channel=0 note=46 velocity=0 time=107
note_on channel=0 note=34 velocity=80 time=120
note_on channel=0 note=34 velocity=0 time=120
note_on channel=0 note=58 velocity=0 time=120
note_on channel=0 note=53 velocity=0 time=0
note_on channel=0 note=50 velocity=0 time=0
note_on channel=0 note=62 velocity=75 time=0
note_on channel=0 note=53 velocity=63 time=0
note_on channel=0 note=56 velocity=63 time=0
note_on channel=0 note=46 velocity=82 time=0
note_on channel=0 note=46 velocity=0 time=0
note_on channel=0 note=62 velocity=0 time=0
note_on channel=0 note=53 velocity=0 time=0
note_on channel=0 note=56 velocity=0 time=0
note_on channel=0 note=55 velocity=41 time=0
note_on channel=0 note=63 velocity=41 time=0
note_on channel=0 note=39 velocity=30 time=0
control_change channel=0 control=64 value=127 time=147
note_on channel=0 note=63 velocity=0 time=93
note_on channel=0 note=55 velocity=0 time=0
note_on channel=0 note=39 velocity=0 time=711
note_on channel=0 note=39 velocity=30 time=9
note_on channel=0 note=38 velocity=24 time=0
control_change channel=0 control=64 value=0 time=5
control_change channel=0 control=64 value=127 time=182
note_on channel=0 note=38 velocity=0 time=1
note_on channel=0 note=39 velocity=0 time=0
note_on channel=0 note=63 velocity=41 time=9
note_on channel=0 note=36 velocity=24 time=0
note_on channel=0 note=39 velocity=30 time=0
control_change channel=0 control=64 value=0 time=0
note_on channel=0 note=63 velocity=0 time=120
note_on channel=0 note=65 velocity=35 time=0
control_change channel=0 control=64 value=127 time=14
note_on channel=0 note=65 velocity=0 time=106
note_on channel=0 note=63 velocity=35 time=0
note_on channel=0 note=63 velocity=0 time=40
note_on channel=0 note=62 velocity=35 time=0
note_on channel=0 note=62 velocity=0 time=120
note_on channel=0 note=63 velocity=41 time=0
note_on channel=0 note=63 velocity=0 time=120
note_on channel=0 note=65 velocity=37 time=0
note_on channel=0 note=65 velocity=0 time=70
note_on channel=0 note=67 velocity=37 time=0
note_on channel=0 note=67 velocity=0 time=120
note_on channel=0 note=68 velocity=37 time=0
note_on channel=0 note=39 velocity=0 time=111
note_on channel=0 note=36 velocity=0 time=0
note_on channel=0 note=68 velocity=0 time=9
note_on channel=0 note=70 velocity=46 time=0
note_on channel=0 note=34 velocity=24 time=0
note_on channel=0 note=39 velocity=30 time=0
control_change channel=0 control=64 value=0 time=6
control_change channel=0 control=64 value=127 time=79
note_on channel=0 note=70 velocity=0 time=21
note_on channel=0 note=72 velocity=40 time=0
note_on channel=0 note=72 velocity=0 time=120
note_on channel=0 note=74 velocity=41 time=0
note_on channel=0 note=74 velocity=0 time=120
note_on channel=0 note=75 velocity=43 time=0
note_on channel=0 note=75 velocity=0 time=120
note_on channel=0 note=77 velocity=44 time=0
note_on channel=0 note=77 velocity=0 time=120
note_on channel=0 note=79 velocity=45 time=0
note_on channel=0 note=79 velocity=0 time=120
note_on channel=0 note=80 velocity=47 time=0
note_on channel=0 note=80 velocity=0 time=120
note_on channel=0 note=82 velocity=48 time=0
note_on channel=0 note=39 velocity=0 time=1
note_on channel=0 note=34 velocity=0 time=0
note_on channel=0 note=82 velocity=0 time=9
note_on channel=0 note=84 velocity=55 time=0
note_on channel=0 note=32 velocity=24 time=0
note_on channel=0 note=39 velocity=30 time=0
control_change channel=0 control=64 value=0 time=8
control_change channel=0 control=64 value=127 time=140
note_on channel=0 note=84 velocity=0 time=12
note_on channel=0 note=86 velocity=48 time=0
note_on channel=0 note=86 velocity=0 time=80
note_on channel=0 note=87 velocity=49 time=0
note_on channel=0 note=87 velocity=0 time=160
note_on channel=0 note=89 velocity=51 time=0
note_on channel=0 note=89 velocity=0 time=120
note_on channel=0 note=91 velocity=54 time=0
note_on channel=0 note=91 velocity=0 time=120
note_on channel=0 note=92 velocity=58 time=0
note_on channel=0 note=92 velocity=0 time=115
note_on channel=0 note=94 velocity=61 time=0
note_on channel=0 note=39 velocity=0 time=111
note_on channel=0 note=32 velocity=0 time=0
note_on channel=0 note=94 velocity=0 time=9
note_on channel=0 note=96 velocity=64 time=0
note_on channel=0 note=31 velocity=24 time=0
note_on channel=0 note=39 velocity=30 time=0
control_change channel=0 control=64 value=0 time=89
control_change channel=0 control=64 value=127 time=146
note_on channel=0 note=96 velocity=0 time=240
note_on channel=0 note=94 velocity=52 time=0
note_on channel=0 note=94 velocity=0 time=0
note_on channel=0 note=39 velocity=0 time=231
note_on channel=0 note=31 velocity=0 time=0
note_on channel=0 note=87 velocity=57 time=0
note_on channel=0 note=32 velocity=24 time=0
note_on channel=0 note=39 velocity=30 time=0
control_change channel=0 control=64 value=0 time=0
control_change channel=0 control=64 value=127 time=53
note_on channel=0 note=87 velocity=0 time=67
note_on channel=0 note=89 velocity=42 time=0
note_on channel=0 note=89 velocity=0 time=0
note_on channel=0 note=87 velocity=43 time=0
note_on channel=0 note=87 velocity=0 time=120
note_on channel=0 note=86 velocity=45 time=0
note_on channel=0 note=86 velocity=0 time=120
note_on channel=0 note=87 velocity=47 time=0
note_on channel=0 note=87 velocity=0 time=96
note_on channel=0 note=89 velocity=48 time=0
note_on channel=0 note=89 velocity=0 time=96
note_on channel=0 note=91 velocity=49 time=0
note_on channel=0 note=91 velocity=0 time=48
note_on channel=0 note=92 velocity=51 time=0
note_on channel=0 note=92 velocity=0 time=96
note_on channel=0 note=94 velocity=52 time=0
note_on channel=0 note=39 velocity=0 time=87
note_on channel=0 note=32 velocity=0 time=0
note_on channel=0 note=94 velocity=0 time=0
note_on channel=0 note=96 velocity=62 time=0
note_on channel=0 note=31 velocity=24 time=0
note_on channel=0 note=39 velocity=30 time=0
control_change channel=0 control=64 value=0 time=7
control_change channel=0 control=64 value=127 time=193
note_on channel=0 note=96 velocity=0 time=280
note_on channel=0 note=94 velocity=48 time=0
note_on channel=0 note=94 velocity=0 time=0
note_on channel=0 note=39 velocity=0 time=231
note_on channel=0 note=31 velocity=0 time=0
note_on channel=0 note=87 velocity=65 time=0
note_on channel=0 note=32 velocity=24 time=0
note_on channel=0 note=39 velocity=30 time=0
control_change channel=0 control=64 value=0 time=7
control_change channel=0 control=64 value=127 time=46
note_on channel=0 note=87 velocity=0 time=67
note_on channel=0 note=89 velocity=50 time=0
note_on channel=0 note=89 velocity=0 time=0
note_on channel=0 note=87 velocity=54 time=0
note_on channel=0 note=87 velocity=0 time=120
note_on channel=0 note=86 velocity=58 time=0
note_on channel=0 note=86 velocity=0 time=120
note_on channel=0 note=87 velocity=62 time=0
note_on channel=0 note=87 velocity=0 time=96
note_on channel=0 note=89 velocity=64 time=0
note_on channel=0 note=89 velocity=0 time=96
note_on channel=0 note=91 velocity=67 time=0
note_on channel=0 note=91 velocity=0 time=48
note_on channel=0 note=92 velocity=71 time=0
note_on channel=0 note=92 velocity=0 time=96
note_on channel=0 note=94 velocity=74 time=0
note_on channel=0 note=39 velocity=0 time=87
note_on channel=0 note=32 velocity=0 time=0
note_on channel=0 note=94 velocity=0 time=0
note_on channel=0 note=84 velocity=77 time=0
note_on channel=0 note=96 velocity=77 time=0
note_on channel=0 note=31 velocity=26 time=0
note_on channel=0 note=39 velocity=33 time=0
control_change channel=0 control=64 value=0 time=9
control_change channel=0 control=64 value=127 time=191
note_on channel=0 note=39 velocity=0 time=40
note_on channel=0 note=31 velocity=0 time=0
note_on channel=0 note=96 velocity=0 time=0
note_on channel=0 note=84 velocity=0 time=0
note_on channel=0 note=82 velocity=68 time=0
note_on channel=0 note=94 velocity=68 time=0
control_change channel=0 control=64 value=0 time=94
note_on channel=0 note=94 velocity=0 time=146
note_on channel=0 note=82 velocity=0 time=0
note_on channel=0 note=53 velocity=79 time=0
note_on channel=0 note=56 velocity=79 time=0
note_on channel=0 note=58 velocity=79 time=0
note_on channel=0 note=62 velocity=93 time=0
note_on channel=0 note=34 velocity=53 time=0
note_on channel=0 note=38 velocity=53 time=0
note_on channel=0 note=41 velocity=53 time=0
note_on channel=0 note=46 velocity=63 time=0
control_change channel=0 control=64 value=127 time=13
note_on channel=0 note=62 velocity=0 time=107
note_on channel=0 note=58 velocity=0 time=0
note_on channel=0 note=53 velocity=0 time=0
note_on channel=0 note=56 velocity=0 time=0
note_on channel=0 note=34 velocity=0 time=120
note_on channel=0 note=46 velocity=0 time=0
note_on channel=0 note=38 velocity=0 time=0
note_on channel=0 note=41 velocity=0 time=0
control_change channel=0 control=64 value=0 time=19
note_on channel=0 note=55 velocity=79 time=701
note_on channel=0 note=58 velocity=79 time=0
note_on channel=0 note=63 velocity=93 time=0
note_on channel=0 note=39 velocity=53 time=0
note_on channel=0 note=43 velocity=53 time=0
note_on channel=0 note=46 velocity=53 time=0
note_on channel=0 note=51 velocity=63 time=0
note_on channel=0 note=63 velocity=0 time=120
note_on channel=0 note=55 velocity=0 time=0
note_on channel=0 note=58 velocity=0 time=0
control_change channel=0 control=64 value=127 time=0
note_on channel=0 note=43 velocity=0 time=120
note_on channel=0 note=39 velocity=0 time=0
note_on channel=0 note=46 velocity=0 time=0
note_on channel=0 note=51 velocity=0 time=0
control_change channel=0 control=64 value=0 time=134
