note_on channel=0 note=67 velocity=78 time=0
note_on channel=0 note=64 velocity=66 time=0
note_on channel=0 note=59 velocity=66 time=0
note_on channel=0 note=55 velocity=66 time=0
note_on channel=0 note=52 velocity=63 time=0
note_on channel=0 note=40 velocity=53 time=0
note_on channel=0 note=40 velocity=0 time=120
note_on channel=0 note=64 velocity=0 time=0
note_on channel=0 note=59 velocity=0 time=0
note_on channel=0 note=67 velocity=0 time=0
note_on channel=0 note=52 velocity=0 time=0
note_on channel=0 note=55 velocity=0 time=0
note_on channel=0 note=55 velocity=70 time=0
note_on channel=0 note=59 velocity=70 time=0
note_on channel=0 note=64 velocity=70 time=0
note_on channel=0 note=67 velocity=84 time=0
note_on channel=0 note=40 velocity=61 time=0
note_on channel=0 note=52 velocity=72 time=0
note_on channel=0 note=67 velocity=0 time=720
note_on channel=0 note=66 velocity=77 time=0
note_on channel=0 note=66 velocity=0 time=0
note_on channel=0 note=52 velocity=0 time=0
note_on channel=0 note=64 velocity=0 time=0
note_on channel=0 note=55 velocity=0 time=0
note_on channel=0 note=59 velocity=0 time=0
note_on channel=0 note=40 velocity=0 time=0
note_on channel=0 note=64 velocity=68 time=0
note_on channel=0 note=55 velocity=57 time=0
note_on channel=0 note=52 velocity=63 time=0
note_on channel=0 note=40 velocity=53 time=0
note_on channel=0 note=40 velocity=0 time=120
note_on channel=0 note=64 velocity=0 time=0
note_on channel=0 note=55 velocity=0 time=0
note_on channel=0 note=52 velocity=0 time=0
note_on channel=0 note=57 velocity=70 time=0
note_on channel=0 note=66 velocity=70 time=0
note_on channel=0 note=69 velocity=84 time=0
note_on channel=0 note=38 velocity=61 time=0
note_on channel=0 note=50 velocity=72 time=0
note_on channel=0 note=50 velocity=0 time=240
note_on channel=0 note=69 velocity=0 time=0
note_on channel=0 note=57 velocity=0 time=0
note_on channel=0 note=66 velocity=0 time=0
note_on channel=0 note=38 velocity=0 time=0
note_on channel=0 note=69 velocity=37 time=720
note_on channel=0 note=66 velocity=31 time=0
note_on channel=0 note=62 velocity=29 time=0
note_on channel=0 note=62 velocity=0 time=480
note_on channel=0 note=66 velocity=0 time=0
note_on channel=0 note=69 velocity=0 time=0
note_on channel=0 note=66 velocity=37 time=0
note_on channel=0 note=69 velocity=45 time=0
note_on channel=0 note=60 velocity=30 time=0
note_on channel=0 note=62 velocity=36 time=0
note_on channel=0 note=62 velocity=0 time=720
note_on channel=0 note=66 velocity=0 time=0
note_on channel=0 note=69 velocity=0 time=0
note_on channel=0 note=60 velocity=0 time=0
note_on channel=0 note=67 velocity=40 time=0
note_on channel=0 note=62 velocity=31 time=0
note_on channel=0 note=59 velocity=26 time=0
note_on channel=0 note=59 velocity=0 time=0
note_on channel=0 note=62 velocity=0 time=0
note_on channel=0 note=67 velocity=0 time=0
note_on channel=0 note=69 velocity=41 time=0
note_on channel=0 note=66 velocity=35 time=0
note_on channel=0 note=57 velocity=24 time=0
note_on channel=0 note=60 velocity=28 time=0
note_on channel=0 note=60 velocity=0 time=360
note_on channel=0 note=69 velocity=0 time=0
note_on channel=0 note=66 velocity=0 time=0
note_on channel=0 note=57 velocity=0 time=0
note_on channel=0 note=71 velocity=43 time=0
note_on channel=0 note=67 velocity=36 time=0
note_on channel=0 note=55 velocity=30 time=0
note_on channel=0 note=59 velocity=36 time=0
note_on channel=0 note=59 velocity=0 time=360
note_on channel=0 note=71 velocity=0 time=0
note_on channel=0 note=67 velocity=0 time=0
note_on channel=0 note=55 velocity=0 time=0
note_on channel=0 note=71 velocity=78 time=0
note_on channel=0 note=67 velocity=66 time=0
note_on channel=0 note=62 velocity=66 time=0
note_on channel=0 note=59 velocity=66 time=0
note_on channel=0 note=55 velocity=63 time=0
note_on channel=0 note=43 velocity=53 time=0
note_on channel=0 note=43 velocity=0 time=120
note_on channel=0 note=67 velocity=0 time=0
note_on channel=0 note=62 velocity=0 time=0
note_on channel=0 note=71 velocity=0 time=0
note_on channel=0 note=55 velocity=0 time=0
note_on channel=0 note=59 velocity=0 time=0
note_on channel=0 note=62 velocity=70 time=0
note_on channel=0 note=59 velocity=70 time=0
note_on channel=0 note=67 velocity=70 time=0
note_on channel=0 note=71 velocity=84 time=0
note_on channel=0 note=43 velocity=61 time=0
note_on channel=0 note=55 velocity=72 time=0
note_on channel=0 note=71 velocity=0 time=720
note_on channel=0 note=69 velocity=77 time=0
note_on channel=0 note=69 velocity=0 time=0
note_on channel=0 note=55 velocity=0 time=0
note_on channel=0 note=67 velocity=0 time=0
note_on channel=0 note=62 velocity=0 time=0
note_on channel=0 note=59 velocity=0 time=0
note_on channel=0 note=43 velocity=0 time=0
note_on channel=0 note=67 velocity=68 time=0
note_on channel=0 note=59 velocity=57 time=0
note_on channel=0 note=43 velocity=63 time=0
note_on channel=0 note=31 velocity=53 time=0
note_on channel=0 note=31 velocity=0 time=120
note_on channel=0 note=67 velocity=0 time=0
note_on channel=0 note=59 velocity=0 time=0
note_on channel=0 note=43 velocity=0 time=0
note_on channel=0 note=61 velocity=70 time=0
note_on channel=0 note=70 velocity=70 time=0
note_on channel=0 note=73 velocity=84 time=0
note_on channel=0 note=30 velocity=61 time=0
note_on channel=0 note=42 velocity=72 time=0
note_on channel=0 note=42 velocity=0 time=240
note_on channel=0 note=73 velocity=0 time=0
note_on channel=0 note=61 velocity=0 time=0
note_on channel=0 note=70 velocity=0 time=0
note_on channel=0 note=30 velocity=0 time=0
note_on channel=0 note=73 velocity=37 time=720
note_on channel=0 note=70 velocity=31 time=0
note_on channel=0 note=66 velocity=29 time=0
note_on channel=0 note=66 velocity=0 time=480
note_on channel=0 note=70 velocity=0 time=0
note_on channel=0 note=73 velocity=0 time=0
note_on channel=0 note=70 velocity=37 time=0
note_on channel=0 note=73 velocity=45 time=0
note_on channel=0 note=64 velocity=30 time=0
note_on channel=0 note=66 velocity=36 time=0
note_on channel=0 note=66 velocity=0 time=720
note_on channel=0 note=70 velocity=0 time=0
note_on channel=0 note=73 velocity=0 time=0
note_on channel=0 note=64 velocity=0 time=0
note_on channel=0 note=71 velocity=40 time=0
note_on channel=0 note=66 velocity=31 time=0
note_on channel=0 note=62 velocity=26 time=0
note_on channel=0 note=62 velocity=0 time=0
note_on channel=0 note=66 velocity=0 time=0
note_on channel=0 note=71 velocity=0 time=0
note_on channel=0 note=73 velocity=41 time=0
note_on channel=0 note=70 velocity=35 time=0
note_on channel=0 note=61 velocity=24 time=0
note_on channel=0 note=64 velocity=28 time=0
note_on channel=0 note=64 velocity=0 time=360
note_on channel=0 note=73 velocity=0 time=0
note_on channel=0 note=70 velocity=0 time=0
note_on channel=0 note=61 velocity=0 time=0
note_on channel=0 note=74 velocity=43 time=0
note_on channel=0 note=71 velocity=36 time=0
note_on channel=0 note=59 velocity=30 time=0
note_on channel=0 note=62 velocity=36 time=0
note_on channel=0 note=62 velocity=0 time=360
note_on channel=0 note=74 velocity=0 time=0
note_on channel=0 note=71 velocity=0 time=0
note_on channel=0 note=59 velocity=0 time=0
note_on channel=0 note=74 velocity=70 time=0
note_on channel=0 note=62 velocity=38 time=480
note_on channel=0 note=59 velocity=38 time=0
note_on channel=0 note=67 velocity=45 time=0
note_on channel=0 note=74 velocity=0 time=0
note_on channel=0 note=79 velocity=70 time=0
note_on channel=0 note=79 velocity=0 time=0
note_on channel=0 note=62 velocity=0 time=0
note_on channel=0 note=76 velocity=62 time=0
note_on channel=0 note=64 velocity=50 time=0
note_on channel=0 note=76 velocity=0 time=480
note_on channel=0 note=59 velocity=0 time=0
note_on channel=0 note=74 velocity=66 time=0
note_on channel=0 note=57 velocity=39 time=0
note_on channel=0 note=74 velocity=0 time=480
note_on channel=0 note=72 velocity=56 time=0
note_on channel=0 note=72 velocity=0 time=456
note_on channel=0 note=57 velocity=0 time=0
note_on channel=0 note=67 velocity=0 time=0
note_on channel=0 note=64 velocity=0 time=0
note_on channel=0 note=72 velocity=61 time=0
note_on channel=0 note=66 velocity=38 time=0
note_on channel=0 note=63 velocity=32 time=0
note_on channel=0 note=63 velocity=0 time=480
note_on channel=0 note=62 velocity=34 time=0
note_on channel=0 note=72 velocity=0 time=0
note_on channel=0 note=81 velocity=61 time=0
note_on channel=0 note=81 velocity=0 time=0
note_on channel=0 note=62 velocity=0 time=0
note_on channel=0 note=66 velocity=0 time=0
note_on channel=0 note=72 velocity=52 time=0
note_on channel=0 note=66 velocity=46 time=0
note_on channel=0 note=66 velocity=0 time=0
note_on channel=0 note=67 velocity=46 time=0
note_on channel=0 note=72 velocity=0 time=480
note_on channel=0 note=71 velocity=61 time=0
control_change channel=0 control=64 value=127 time=320
note_on channel=0 note=71 velocity=0 time=136
note_on channel=0 note=67 velocity=0 time=0
note_on channel=0 note=71 velocity=55 time=0
note_on channel=0 note=55 velocity=45 time=0
note_on channel=0 note=55 velocity=0 time=480
note_on channel=0 note=52 velocity=49 time=0
note_on channel=0 note=71 velocity=0 time=0
note_on channel=0 note=67 velocity=50 time=0
note_on channel=0 note=67 velocity=0 time=456
note_on channel=0 note=52 velocity=0 time=24
note_on channel=0 note=67 velocity=44 time=0
note_on channel=0 note=64 velocity=41 time=0
control_change channel=0 control=64 value=0 time=10
control_change channel=0 control=64 value=127 time=284
note_on channel=0 note=64 velocity=0 time=186
note_on channel=0 note=60 velocity=40 time=0
note_on channel=0 note=67 velocity=0 time=480
note_on channel=0 note=64 velocity=43 time=0
note_on channel=0 note=64 velocity=0 time=456
note_on channel=0 note=60 velocity=0 time=0
note_on channel=0 note=64 velocity=41 time=0
note_on channel=0 note=48 velocity=28 time=0
control_change channel=0 control=64 value=0 time=15
control_change channel=0 control=64 value=127 time=132
note_on channel=0 note=36 velocity=28 time=333
note_on channel=0 note=64 velocity=0 time=0
note_on channel=0 note=55 velocity=36 time=0
note_on channel=0 note=55 velocity=0 time=0
note_on channel=0 note=52 velocity=24 time=0
note_on channel=0 note=52 velocity=0 time=0
note_on channel=0 note=36 velocity=0 time=0
note_on channel=0 note=48 velocity=0 time=0
note_on channel=0 note=51 velocity=24 time=0
note_on channel=0 note=59 velocity=28 time=0
note_on channel=0 note=47 velocity=28 time=0
note_on channel=0 note=35 velocity=24 time=0
control_change channel=0 control=64 value=0 time=8
control_change channel=0 control=64 value=127 time=179
control_change channel=0 control=64 value=0 time=604
note_on channel=0 note=35 velocity=0 time=73
note_on channel=0 note=51 velocity=0 time=0
note_on channel=0 note=59 velocity=0 time=0
note_on channel=0 note=47 velocity=0 time=0
note_on channel=0 note=76 velocity=51 time=0
note_on channel=0 note=88 velocity=61 time=0
note_on channel=0 note=59 velocity=34 time=480
note_on channel=0 note=43 velocity=28 time=0
note_on channel=0 note=52 velocity=28 time=0
note_on channel=0 note=88 velocity=0 time=240
note_on channel=0 note=76 velocity=0 time=0
note_on channel=0 note=75 velocity=45 time=0
note_on channel=0 note=87 velocity=53 time=0
note_on channel=0 note=87 velocity=0 time=0
note_on channel=0 note=75 velocity=0 time=0
note_on channel=0 note=76 velocity=48 time=0
note_on channel=0 note=88 velocity=57 time=0
note_on channel=0 note=88 velocity=0 time=0
note_on channel=0 note=43 velocity=0 time=0
note_on channel=0 note=76 velocity=0 time=0
note_on channel=0 note=59 velocity=0 time=0
note_on channel=0 note=60 velocity=51 time=0
note_on channel=0 note=64 velocity=51 time=0
note_on channel=0 note=66 velocity=61 time=0
note_on channel=0 note=45 velocity=39 time=0
control_change channel=0 control=64 value=127 time=100
note_on channel=0 note=45 velocity=0 time=0
note_on channel=0 note=64 velocity=0 time=0
note_on channel=0 note=66 velocity=0 time=0
note_on channel=0 note=60 velocity=0 time=0
note_on channel=0 note=66 velocity=66 time=0
note_on channel=0 note=64 velocity=56 time=0
note_on channel=0 note=61 velocity=56 time=0
note_on channel=0 note=46 velocity=43 time=0
control_change channel=0 control=64 value=0 time=15
control_change channel=0 control=64 value=127 time=134
note_on channel=0 note=46 velocity=0 time=331
note_on channel=0 note=64 velocity=0 time=0
note_on channel=0 note=52 velocity=0 time=0
note_on channel=0 note=66 velocity=0 time=0
note_on channel=0 note=61 velocity=0 time=0
note_on channel=0 note=57 velocity=60 time=0
note_on channel=0 note=63 velocity=60 time=0
note_on channel=0 note=66 velocity=71 time=0
note_on channel=0 note=47 velocity=49 time=0
control_change channel=0 control=64 value=0 time=10
note_on channel=0 note=66 velocity=0 time=240
note_on channel=0 note=67 velocity=51 time=0
note_on channel=0 note=67 velocity=0 time=240
note_on channel=0 note=69 velocity=56 time=0
note_on channel=0 note=69 velocity=0 time=0
note_on channel=0 note=67 velocity=43 time=0
note_on channel=0 note=67 velocity=0 time=0
note_on channel=0 note=47 velocity=0 time=0
note_on channel=0 note=63 velocity=0 time=0
note_on channel=0 note=57 velocity=0 time=0
note_on channel=0 note=66 velocity=47 time=0
note_on channel=0 note=55 velocity=29 time=0
note_on channel=0 note=48 velocity=24 time=0
note_on channel=0 note=66 velocity=0 time=0
note_on channel=0 note=64 velocity=39 time=0
note_on channel=0 note=64 velocity=0 time=0
note_on channel=0 note=48 velocity=0 time=0
note_on channel=0 note=55 velocity=0 time=0
note_on channel=0 note=76 velocity=51 time=0
note_on channel=0 note=88 velocity=61 time=0
note_on channel=0 note=47 velocity=32 time=0
note_on channel=0 note=47 velocity=0 time=240
note_on channel=0 note=45 velocity=35 time=0
note_on channel=0 note=45 velocity=0 time=0
note_on channel=0 note=52 velocity=39 time=0
note_on channel=0 note=43 velocity=39 time=0
note_on channel=0 note=59 velocity=39 time=0
note_on channel=0 note=88 velocity=0 time=240
note_on channel=0 note=76 velocity=0 time=0
note_on channel=0 note=75 velocity=52 time=0
note_on channel=0 note=87 velocity=61 time=0
note_on channel=0 note=87 velocity=0 time=0
note_on channel=0 note=43 velocity=0 time=0
note_on channel=0 note=75 velocity=0 time=0
note_on channel=0 note=76 velocity=56 time=0
note_on channel=0 note=88 velocity=66 time=0
note_on channel=0 note=44 velocity=37 time=0
note_on channel=0 note=44 velocity=0 time=0
note_on channel=0 note=76 velocity=0 time=0
note_on channel=0 note=88 velocity=0 time=0
note_on channel=0 note=59 velocity=0 time=0
note_on channel=0 note=60 velocity=51 time=0
note_on channel=0 note=64 velocity=51 time=0
note_on channel=0 note=66 velocity=61 time=0
note_on channel=0 note=45 velocity=39 time=0
control_change channel=0 control=64 value=127 time=133
note_on channel=0 note=45 velocity=0 time=0
note_on channel=0 note=64 velocity=0 time=0
note_on channel=0 note=66 velocity=0 time=0
note_on channel=0 note=60 velocity=0 time=0
note_on channel=0 note=66 velocity=52 time=0
note_on channel=0 note=64 velocity=44 time=0
note_on channel=0 note=61 velocity=44 time=0
note_on channel=0 note=46 velocity=34 time=0
control_change channel=0 control=64 value=0 time=11
control_change channel=0 control=64 value=127 time=138
note_on channel=0 note=46 velocity=0 time=331
note_on channel=0 note=64 velocity=0 time=0
note_on channel=0 note=52 velocity=0 time=0
note_on channel=0 note=66 velocity=0 time=0
note_on channel=0 note=61 velocity=0 time=0
note_on channel=0 note=57 velocity=46 time=0
note_on channel=0 note=63 velocity=46 time=0
note_on channel=0 note=66 velocity=55 time=0
note_on channel=0 note=35 velocity=29 time=0
note_on channel=0 note=47 velocity=38 time=0
control_change channel=0 control=64 value=0 time=8
note_on channel=0 note=66 velocity=0 time=0
note_on channel=0 note=69 velocity=38 time=0
note_on channel=0 note=69 velocity=0 time=0
note_on channel=0 note=67 velocity=41 time=0
note_on channel=0 note=67 velocity=0 time=0
note_on channel=0 note=66 velocity=32 time=0
note_on channel=0 note=66 velocity=0 time=0
note_on channel=0 note=47 velocity=0 time=0
note_on channel=0 note=57 velocity=0 time=0
note_on channel=0 note=63 velocity=0 time=0
note_on channel=0 note=35 velocity=0 time=0
note_on channel=0 note=55 velocity=30 time=0
note_on channel=0 note=64 velocity=36 time=0
note_on channel=0 note=52 velocity=22 time=0
note_on channel=0 note=40 velocity=18 time=0
note_on channel=0 note=40 velocity=0 time=480
note_on channel=0 note=55 velocity=0 time=0
note_on channel=0 note=64 velocity=0 time=0
note_on channel=0 note=52 velocity=0 time=0
note_on channel=0 note=59 velocity=30 time=0
note_on channel=0 note=71 velocity=36 time=0
note_on channel=0 note=35 velocity=25 time=0
note_on channel=0 note=47 velocity=30 time=0
note_on channel=0 note=47 velocity=0 time=120
note_on channel=0 note=59 velocity=0 time=0
note_on channel=0 note=71 velocity=0 time=0
note_on channel=0 note=35 velocity=0 time=0
note_on channel=0 note=71 velocity=41 time=0
note_on channel=0 note=59 velocity=34 time=0
note_on channel=0 note=35 velocity=28 time=0
note_on channel=0 note=47 velocity=34 time=0
control_change channel=0 control=64 value=127 time=113
note_on channel=0 note=47 velocity=0 time=0
note_on channel=0 note=71 velocity=0 time=0
note_on channel=0 note=59 velocity=0 time=0
note_on channel=0 note=35 velocity=0 time=0
note_on channel=0 note=64 velocity=30 time=0
note_on channel=0 note=76 velocity=36 time=0
note_on channel=0 note=40 velocity=25 time=0
note_on channel=0 note=52 velocity=30 time=0
control_change channel=0 control=64 value=0 time=13
note_on channel=0 note=52 velocity=0 time=107
note_on channel=0 note=64 velocity=0 time=0
note_on channel=0 note=76 velocity=0 time=0
note_on channel=0 note=40 velocity=0 time=0
note_on channel=0 note=76 velocity=42 time=0
note_on channel=0 note=64 velocity=35 time=0
note_on channel=0 note=40 velocity=28 time=0
note_on channel=0 note=52 velocity=34 time=0
control_change channel=0 control=64 value=127 time=92
note_on channel=0 note=52 velocity=0 time=0
note_on channel=0 note=76 velocity=0 time=0
note_on channel=0 note=64 velocity=0 time=0
note_on channel=0 note=40 velocity=0 time=0
note_on channel=0 note=71 velocity=30 time=0
note_on channel=0 note=83 velocity=36 time=0
note_on channel=0 note=47 velocity=25 time=0
note_on channel=0 note=59 velocity=30 time=0
control_change channel=0 control=64 value=0 time=19
note_on channel=0 note=59 velocity=0 time=101
note_on channel=0 note=71 velocity=0 time=0
note_on channel=0 note=83 velocity=0 time=0
note_on channel=0 note=47 velocity=0 time=0
note_on channel=0 note=83 velocity=40 time=0
note_on channel=0 note=71 velocity=34 time=0
note_on channel=0 note=47 velocity=28 time=0
note_on channel=0 note=59 velocity=34 time=0
control_change channel=0 control=64 value=127 time=71
note_on channel=0 note=59 velocity=0 time=0
note_on channel=0 note=83 velocity=0 time=0
note_on channel=0 note=71 velocity=0 time=0
note_on channel=0 note=47 velocity=0 time=0
note_on channel=0 note=88 velocity=36 time=0
note_on channel=0 note=76 velocity=30 time=0
note_on channel=0 note=52 velocity=25 time=0
note_on channel=0 note=64 velocity=30 time=0
control_change channel=0 control=64 value=0 time=18
note_on channel=0 note=64 velocity=0 time=102
note_on channel=0 note=88 velocity=0 time=0
note_on channel=0 note=76 velocity=0 time=0
note_on channel=0 note=52 velocity=0 time=0
note_on channel=0 note=76 velocity=34 time=0
note_on channel=0 note=88 velocity=41 time=0
note_on channel=0 note=52 velocity=28 time=0
note_on channel=0 note=64 velocity=34 time=0
control_change channel=0 control=64 value=127 time=63
note_on channel=0 note=64 velocity=0 time=0
note_on channel=0 note=76 velocity=0 time=0
note_on channel=0 note=88 velocity=0 time=0
note_on channel=0 note=52 velocity=0 time=0
note_on channel=0 note=77 velocity=70 time=0
note_on channel=0 note=83 velocity=70 time=0
note_on channel=0 note=86 velocity=70 time=0
note_on channel=0 note=89 velocity=82 time=0
note_on channel=0 note=55 velocity=54 time=0
note_on channel=0 note=59 velocity=54 time=0
note_on channel=0 note=62 velocity=54 time=0
note_on channel=0 note=65 velocity=65 time=0
control_change channel=0 control=64 value=0 time=13
note_on channel=0 note=65 velocity=0 time=107
note_on channel=0 note=77 velocity=0 time=0
note_on channel=0 note=55 velocity=0 time=0
note_on channel=0 note=83 velocity=0 time=0
note_on channel=0 note=86 velocity=0 time=0
note_on channel=0 note=89 velocity=0 time=0
note_on channel=0 note=59 velocity=0 time=0
note_on channel=0 note=62 velocity=0 time=0
note_on channel=0 note=77 velocity=76 time=0
note_on channel=0 note=83 velocity=76 time=0
note_on channel=0 note=86 velocity=76 time=0
note_on channel=0 note=89 velocity=90 time=0
note_on channel=0 note=55 velocity=59 time=0
note_on channel=0 note=59 velocity=59 time=0
note_on channel=0 note=62 velocity=59 time=0
note_on channel=0 note=65 velocity=71 time=0
note_on channel=0 note=65 velocity=0 time=720
note_on channel=0 note=77 velocity=0 time=0
note_on channel=0 note=55 velocity=0 time=0
note_on channel=0 note=83 velocity=0 time=0
note_on channel=0 note=86 velocity=0 time=0
note_on channel=0 note=89 velocity=0 time=0
note_on channel=0 note=59 velocity=0 time=0
note_on channel=0 note=62 velocity=0 time=0
note_on channel=0 note=88 velocity=70 time=0
note_on channel=0 note=86 velocity=69 time=120
note_on channel=0 note=88 velocity=0 time=12
note_on channel=0 note=84 velocity=68 time=60
note_on channel=0 note=86 velocity=0 time=12
note_on channel=0 note=83 velocity=68 time=108
note_on channel=0 note=84 velocity=0 time=12
note_on channel=0 note=81 velocity=68 time=108
note_on channel=0 note=83 velocity=0 time=12
note_on channel=0 note=79 velocity=66 time=108
note_on channel=0 note=81 velocity=0 time=12
note_on channel=0 note=77 velocity=64 time=30
note_on channel=0 note=79 velocity=0 time=12
note_on channel=0 note=76 velocity=64 time=108
note_on channel=0 note=77 velocity=0 time=12
note_on channel=0 note=74 velocity=64 time=108
note_on channel=0 note=76 velocity=0 time=12
note_on channel=0 note=72 velocity=64 time=108
note_on channel=0 note=74 velocity=0 time=12
note_on channel=0 note=71 velocity=63 time=0
note_on channel=0 note=72 velocity=0 time=12
note_on channel=0 note=69 velocity=63 time=68
note_on channel=0 note=71 velocity=0 time=8
note_on channel=0 note=67 velocity=63 time=72
note_on channel=0 note=69 velocity=0 time=8
note_on channel=0 note=65 velocity=63 time=72
note_on channel=0 note=67 velocity=0 time=8
note_on channel=0 note=64 velocity=63 time=72
note_on channel=0 note=65 velocity=0 time=8
note_on channel=0 note=62 velocity=63 time=72
note_on channel=0 note=64 velocity=0 time=8
note_on channel=0 note=60 velocity=63 time=0
note_on channel=0 note=62 velocity=0 time=8
note_on channel=0 note=59 velocity=63 time=6
note_on channel=0 note=60 velocity=0 time=10
note_on channel=0 note=57 velocity=63 time=12
note_on channel=0 note=59 velocity=0 time=10
note_on channel=0 note=55 velocity=62 time=18
note_on channel=0 note=57 velocity=0 time=10
note_on channel=0 note=54 velocity=62 time=24
note_on channel=0 note=55 velocity=0 time=4
note_on channel=0 note=55 velocity=89 time=0
note_on channel=0 note=54 velocity=0 time=10
note_on channel=0 note=55 velocity=0 time=230
note_on channel=0 note=65 velocity=40 time=0
note_on channel=0 note=62 velocity=34 time=0
note_on channel=0 note=55 velocity=34 time=0
note_on channel=0 note=47 velocity=29 time=0
note_on channel=0 note=35 velocity=24 time=0
note_on channel=0 note=35 velocity=0 time=120
note_on channel=0 note=55 velocity=0 time=0
note_on channel=0 note=65 velocity=0 time=0
note_on channel=0 note=62 velocity=0 time=0
note_on channel=0 note=47 velocity=0 time=0
note_on channel=0 note=64 velocity=45 time=0
note_on channel=0 note=60 velocity=38 time=0
note_on channel=0 note=55 velocity=38 time=0
note_on channel=0 note=36 velocity=29 time=0
note_on channel=0 note=48 velocity=35 time=0
note_on channel=0 note=48 velocity=0 time=240
note_on channel=0 note=55 velocity=0 time=0
note_on channel=0 note=64 velocity=0 time=0
note_on channel=0 note=60 velocity=0 time=0
note_on channel=0 note=36 velocity=0 time=0
note_on channel=0 note=74 velocity=76 time=0
note_on channel=0 note=80 velocity=76 time=0
note_on channel=0 note=83 velocity=76 time=0
note_on channel=0 note=86 velocity=90 time=0
note_on channel=0 note=52 velocity=59 time=0
note_on channel=0 note=56 velocity=59 time=0
note_on channel=0 note=59 velocity=59 time=0
note_on channel=0 note=62 velocity=71 time=0
note_on channel=0 note=62 velocity=0 time=120
note_on channel=0 note=74 velocity=0 time=0
note_on channel=0 note=52 velocity=0 time=0
note_on channel=0 note=80 velocity=0 time=0
note_on channel=0 note=83 velocity=0 time=0
note_on channel=0 note=86 velocity=0 time=0
note_on channel=0 note=56 velocity=0 time=0
note_on channel=0 note=59 velocity=0 time=0
note_on channel=0 note=74 velocity=84 time=0
note_on channel=0 note=80 velocity=84 time=0
note_on channel=0 note=83 velocity=84 time=0
note_on channel=0 note=86 velocity=98 time=0
note_on channel=0 note=52 velocity=65 time=0
note_on channel=0 note=56 velocity=65 time=0
note_on channel=0 note=59 velocity=65 time=0
note_on channel=0 note=62 velocity=77 time=0
note_on channel=0 note=62 velocity=0 time=720
note_on channel=0 note=74 velocity=0 time=0
note_on channel=0 note=52 velocity=0 time=0
note_on channel=0 note=80 velocity=0 time=0
note_on channel=0 note=83 velocity=0 time=0
note_on channel=0 note=86 velocity=0 time=0
note_on channel=0 note=56 velocity=0 time=0
note_on channel=0 note=59 velocity=0 time=0
note_on channel=0 note=84 velocity=70 time=0
note_on channel=0 note=83 velocity=69 time=120
note_on channel=0 note=84 velocity=0 time=12
note_on channel=0 note=81 velocity=68 time=60
note_on channel=0 note=83 velocity=0 time=12
note_on channel=0 note=80 velocity=68 time=108
note_on channel=0 note=81 velocity=0 time=12
note_on channel=0 note=78 velocity=68 time=108
note_on channel=0 note=80 velocity=0 time=12
note_on channel=0 note=76 velocity=66 time=108
note_on channel=0 note=78 velocity=0 time=12
note_on channel=0 note=74 velocity=64 time=30
note_on channel=0 note=76 velocity=0 time=12
note_on channel=0 note=72 velocity=64 time=108
note_on channel=0 note=74 velocity=0 time=12
note_on channel=0 note=71 velocity=64 time=108
note_on channel=0 note=72 velocity=0 time=12
note_on channel=0 note=69 velocity=64 time=108
note_on channel=0 note=71 velocity=0 time=12
note_on channel=0 note=68 velocity=63 time=0
note_on channel=0 note=69 velocity=0 time=12
note_on channel=0 note=66 velocity=63 time=68
note_on channel=0 note=68 velocity=0 time=8
note_on channel=0 note=64 velocity=63 time=72
note_on channel=0 note=66 velocity=0 time=8
note_on channel=0 note=62 velocity=63 time=72
note_on channel=0 note=64 velocity=0 time=8
note_on channel=0 note=60 velocity=63 time=72
note_on channel=0 note=62 velocity=0 time=8
note_on channel=0 note=59 velocity=63 time=72
note_on channel=0 note=60 velocity=0 time=8
note_on channel=0 note=57 velocity=63 time=0
note_on channel=0 note=59 velocity=0 time=8
note_on channel=0 note=56 velocity=63 time=6
note_on channel=0 note=57 velocity=0 time=10
note_on channel=0 note=54 velocity=63 time=12
note_on channel=0 note=56 velocity=0 time=10
note_on channel=0 note=52 velocity=62 time=18
note_on channel=0 note=54 velocity=0 time=10
note_on channel=0 note=51 velocity=62 time=24
note_on channel=0 note=52 velocity=0 time=4
note_on channel=0 note=52 velocity=89 time=0
note_on channel=0 note=51 velocity=0 time=10
note_on channel=0 note=52 velocity=0 time=470
note_on channel=0 note=62 velocity=40 time=0
note_on channel=0 note=59 velocity=34 time=0
note_on channel=0 note=52 velocity=34 time=0
note_on channel=0 note=44 velocity=29 time=0
note_on channel=0 note=32 velocity=24 time=0
note_on channel=0 note=32 velocity=0 time=120
note_on channel=0 note=52 velocity=0 time=0
note_on channel=0 note=62 velocity=0 time=0
note_on channel=0 note=59 velocity=0 time=0
note_on channel=0 note=44 velocity=0 time=0
note_on channel=0 note=60 velocity=45 time=0
note_on channel=0 note=57 velocity=38 time=0
note_on channel=0 note=52 velocity=38 time=0
note_on channel=0 note=33 velocity=29 time=0
note_on channel=0 note=45 velocity=35 time=0
note_on channel=0 note=45 velocity=0 time=240
note_on channel=0 note=52 velocity=0 time=0
note_on channel=0 note=60 velocity=0 time=0
note_on channel=0 note=57 velocity=0 time=0
note_on channel=0 note=33 velocity=0 time=0
note_on channel=0 note=82 velocity=57 time=0
note_on channel=0 note=58 velocity=50 time=0
note_on channel=0 note=58 velocity=0 time=450
note_on channel=0 note=82 velocity=0 time=0
note_on channel=0 note=82 velocity=60 time=0
note_on channel=0 note=58 velocity=50 time=0
note_on channel=0 note=82 velocity=0 time=720
note_on channel=0 note=81 velocity=53 time=0
note_on channel=0 note=79 velocity=53 time=57
note_on channel=0 note=81 velocity=0 time=12
note_on channel=0 note=77 velocity=51 time=27
note_on channel=0 note=79 velocity=0 time=12
note_on channel=0 note=75 velocity=51 time=27
note_on channel=0 note=77 velocity=0 time=12
note_on channel=0 note=74 velocity=51 time=27
note_on channel=0 note=75 velocity=0 time=12
note_on channel=0 note=72 velocity=51 time=27
note_on channel=0 note=74 velocity=0 time=12
note_on channel=0 note=70 velocity=51 time=17
note_on channel=0 note=72 velocity=0 time=12
note_on channel=0 note=69 velocity=50 time=47
note_on channel=0 note=70 velocity=0 time=12
note_on channel=0 note=67 velocity=49 time=108
note_on channel=0 note=69 velocity=0 time=12
note_on channel=0 note=65 velocity=49 time=108
note_on channel=0 note=67 velocity=0 time=12
note_on channel=0 note=58 velocity=0 time=0
note_on channel=0 note=63 velocity=53 time=0
note_on channel=0 note=65 velocity=0 time=12
note_on channel=0 note=62 velocity=49 time=148
note_on channel=0 note=63 velocity=0 time=16
note_on channel=0 note=60 velocity=44 time=0
note_on channel=0 note=62 velocity=0 time=16
note_on channel=0 note=58 velocity=53 time=144
note_on channel=0 note=60 velocity=0 time=13
control_change channel=0 control=64 value=127 time=104
note_on channel=0 note=58 velocity=0 time=350
note_on channel=0 note=58 velocity=53 time=0
note_on channel=0 note=64 velocity=53 time=0
control_change channel=0 control=64 value=0 time=13
control_change channel=0 control=64 value=127 time=51
note_on channel=0 note=64 velocity=0 time=368
note_on channel=0 note=64 velocity=62 time=0
note_on channel=0 note=64 velocity=0 time=0
note_on channel=0 note=58 velocity=0 time=0
note_on channel=0 note=67 velocity=53 time=0
note_on channel=0 note=58 velocity=45 time=0
note_on channel=0 note=64 velocity=53 time=0
control_change channel=0 control=64 value=0 time=13
control_change channel=0 control=64 value=127 time=75
note_on channel=0 note=64 velocity=0 time=344
note_on channel=0 note=58 velocity=0 time=0
note_on channel=0 note=67 velocity=0 time=0
note_on channel=0 note=67 velocity=59 time=0
note_on channel=0 note=64 velocity=59 time=0
note_on channel=0 note=58 velocity=50 time=0
note_on channel=0 note=58 velocity=0 time=0
note_on channel=0 note=64 velocity=0 time=0
note_on channel=0 note=67 velocity=0 time=0
note_on channel=0 note=67 velocity=53 time=0
note_on channel=0 note=73 velocity=63 time=0
note_on channel=0 note=58 velocity=45 time=0
note_on channel=0 note=64 velocity=53 time=0
control_change channel=0 control=64 value=0 time=14
control_change channel=0 control=64 value=127 time=53
note_on channel=0 note=64 velocity=0 time=365
note_on channel=0 note=67 velocity=0 time=0
note_on channel=0 note=73 velocity=0 time=0
note_on channel=0 note=58 velocity=0 time=0
note_on channel=0 note=73 velocity=68 time=0
note_on channel=0 note=67 velocity=57 time=0
note_on channel=0 note=64 velocity=64 time=0
note_on channel=0 note=58 velocity=54 time=0
note_on channel=0 note=58 velocity=0 time=0
note_on channel=0 note=73 velocity=0 time=0
note_on channel=0 note=67 velocity=0 time=0
note_on channel=0 note=64 velocity=0 time=0
note_on channel=0 note=73 velocity=58 time=0
note_on channel=0 note=76 velocity=58 time=0
note_on channel=0 note=79 velocity=69 time=0
note_on channel=0 note=58 velocity=49 time=0
note_on channel=0 note=61 velocity=49 time=0
note_on channel=0 note=64 velocity=49 time=0
note_on channel=0 note=67 velocity=59 time=0
control_change channel=0 control=64 value=0 time=14
control_change channel=0 control=64 value=127 time=43
note_on channel=0 note=67 velocity=0 time=375
note_on channel=0 note=61 velocity=0 time=0
note_on channel=0 note=76 velocity=0 time=0
note_on channel=0 note=79 velocity=0 time=0
note_on channel=0 note=73 velocity=0 time=0
note_on channel=0 note=64 velocity=0 time=0
note_on channel=0 note=58 velocity=0 time=0
note_on channel=0 note=73 velocity=66 time=48
note_on channel=0 note=76 velocity=66 time=0
note_on channel=0 note=79 velocity=78 time=0
note_on channel=0 note=58 velocity=58 time=0
note_on channel=0 note=61 velocity=58 time=0
note_on channel=0 note=64 velocity=58 time=0
note_on channel=0 note=67 velocity=69 time=0
control_change channel=0 control=64 value=0 time=8
control_change channel=0 control=64 value=127 time=259
note_on channel=0 note=67 velocity=0 time=0
note_on channel=0 note=79 velocity=0 time=0
note_on channel=0 note=78 velocity=80 time=0
note_on channel=0 note=66 velocity=63 time=0
control_change channel=0 control=64 value=0 time=16
control_change channel=0 control=64 value=127 time=171
note_on channel=0 note=66 velocity=0 time=0
note_on channel=0 note=78 velocity=0 time=0
note_on channel=0 note=77 velocity=84 time=0
note_on channel=0 note=65 velocity=77 time=0
control_change channel=0 control=64 value=0 time=12
control_change channel=0 control=64 value=127 time=23
note_on channel=0 note=65 velocity=0 time=0
note_on channel=0 note=64 velocity=0 time=0
note_on channel=0 note=76 velocity=0 time=0
note_on channel=0 note=58 velocity=0 time=0
note_on channel=0 note=73 velocity=0 time=0
note_on channel=0 note=77 velocity=0 time=0
note_on channel=0 note=61 velocity=0 time=0
note_on channel=0 note=78 velocity=82 time=0
note_on channel=0 note=76 velocity=69 time=0
note_on channel=0 note=73 velocity=69 time=0
note_on channel=0 note=66 velocity=75 time=0
note_on channel=0 note=64 velocity=63 time=0
note_on channel=0 note=61 velocity=63 time=0
note_on channel=0 note=58 velocity=63 time=0
control_change channel=0 control=64 value=0 time=21
control_change channel=0 control=64 value=127 time=42
note_on channel=0 note=58 velocity=0 time=369
note_on channel=0 note=64 velocity=0 time=0
note_on channel=0 note=76 velocity=0 time=0
note_on channel=0 note=73 velocity=0 time=0
note_on channel=0 note=78 velocity=0 time=0
note_on channel=0 note=61 velocity=0 time=0
note_on channel=0 note=66 velocity=0 time=0
note_on channel=0 note=71 velocity=80 time=0
note_on channel=0 note=74 velocity=80 time=0
note_on channel=0 note=78 velocity=95 time=0
note_on channel=0 note=66 velocity=48 time=0
note_on channel=0 note=62 velocity=40 time=0
note_on channel=0 note=59 velocity=40 time=0
control_change channel=0 control=64 value=0 time=7
note_on channel=0 note=59 velocity=0 time=113
note_on channel=0 note=66 velocity=0 time=0
note_on channel=0 note=62 velocity=0 time=0
note_on channel=0 note=59 velocity=33 time=120
note_on channel=0 note=62 velocity=33 time=0
note_on channel=0 note=66 velocity=40 time=0
control_change channel=0 control=64 value=127 time=54
note_on channel=0 note=66 velocity=0 time=66
note_on channel=0 note=59 velocity=0 time=0
note_on channel=0 note=62 velocity=0 time=0
note_on channel=0 note=59 velocity=33 time=120
note_on channel=0 note=62 velocity=33 time=0
note_on channel=0 note=66 velocity=40 time=0
note_on channel=0 note=66 velocity=0 time=120
note_on channel=0 note=59 velocity=0 time=0
note_on channel=0 note=62 velocity=0 time=0
note_on channel=0 note=59 velocity=33 time=120
note_on channel=0 note=62 velocity=33 time=0
note_on channel=0 note=66 velocity=40 time=0
note_on channel=0 note=66 velocity=0 time=120
note_on channel=0 note=59 velocity=0 time=0
note_on channel=0 note=62 velocity=0 time=0
note_on channel=0 note=59 velocity=33 time=0
note_on channel=0 note=62 velocity=33 time=0
note_on channel=0 note=66 velocity=40 time=0
note_on channel=0 note=66 velocity=0 time=120
note_on channel=0 note=59 velocity=0 time=0
note_on channel=0 note=62 velocity=0 time=0
note_on channel=0 note=59 velocity=33 time=0
note_on channel=0 note=62 velocity=33 time=0
note_on channel=0 note=66 velocity=40 time=0
note_on channel=0 note=66 velocity=0 time=120
note_on channel=0 note=59 velocity=0 time=0
note_on channel=0 note=62 velocity=0 time=0
note_on channel=0 note=78 velocity=0 time=0
note_on channel=0 note=74 velocity=0 time=0
note_on channel=0 note=71 velocity=0 time=0
note_on channel=0 note=71 velocity=80 time=0
note_on channel=0 note=78 velocity=80 time=0
note_on channel=0 note=83 velocity=94 time=0
note_on channel=0 note=59 velocity=48 time=0
note_on channel=0 note=54 velocity=40 time=0
note_on channel=0 note=50 velocity=40 time=0
control_change channel=0 control=64 value=0 time=9
control_change channel=0 control=64 value=127 time=48
note_on channel=0 note=50 velocity=0 time=63
note_on channel=0 note=59 velocity=0 time=0
note_on channel=0 note=54 velocity=0 time=0
note_on channel=0 note=50 velocity=34 time=120
note_on channel=0 note=54 velocity=34 time=0
note_on channel=0 note=59 velocity=41 time=0
note_on channel=0 note=59 velocity=0 time=120
note_on channel=0 note=50 velocity=0 time=0
note_on channel=0 note=54 velocity=0 time=0
note_on channel=0 note=50 velocity=34 time=120
note_on channel=0 note=54 velocity=34 time=0
note_on channel=0 note=59 velocity=41 time=0
note_on channel=0 note=59 velocity=0 time=120
note_on channel=0 note=50 velocity=0 time=0
note_on channel=0 note=54 velocity=0 time=0
note_on channel=0 note=50 velocity=34 time=120
note_on channel=0 note=54 velocity=34 time=0
note_on channel=0 note=59 velocity=41 time=0
note_on channel=0 note=59 velocity=0 time=120
note_on channel=0 note=50 velocity=0 time=0
note_on channel=0 note=54 velocity=0 time=0
note_on channel=0 note=50 velocity=34 time=120
note_on channel=0 note=54 velocity=34 time=0
note_on channel=0 note=59 velocity=41 time=0
note_on channel=0 note=59 velocity=0 time=120
note_on channel=0 note=50 velocity=0 time=0
note_on channel=0 note=54 velocity=0 time=0
note_on channel=0 note=50 velocity=34 time=0
note_on channel=0 note=54 velocity=34 time=0
note_on channel=0 note=59 velocity=41 time=0
note_on channel=0 note=59 velocity=0 time=120
note_on channel=0 note=50 velocity=0 time=0
note_on channel=0 note=54 velocity=0 time=0
note_on channel=0 note=83 velocity=0 time=0
note_on channel=0 note=78 velocity=0 time=0
note_on channel=0 note=71 velocity=0 time=0
note_on channel=0 note=66 velocity=41 time=0
note_on channel=0 note=71 velocity=49 time=0
note_on channel=0 note=57 velocity=44 time=0
note_on channel=0 note=54 velocity=37 time=0
note_on channel=0 note=51 velocity=37 time=0
control_change channel=0 control=64 value=0 time=0
note_on channel=0 note=51 velocity=0 time=120
note_on channel=0 note=57 velocity=0 time=0
note_on channel=0 note=66 velocity=0 time=0
note_on channel=0 note=71 velocity=0 time=0
note_on channel=0 note=54 velocity=0 time=0
note_on channel=0 note=51 velocity=28 time=120
note_on channel=0 note=54 velocity=28 time=0
note_on channel=0 note=57 velocity=34 time=0
note_on channel=0 note=57 velocity=0 time=120
note_on channel=0 note=54 velocity=0 time=0
note_on channel=0 note=51 velocity=0 time=0
note_on channel=0 note=72 velocity=59 time=0
note_on channel=0 note=60 velocity=49 time=0
note_on channel=0 note=55 velocity=44 time=0
note_on channel=0 note=52 velocity=37 time=0
note_on channel=0 note=52 velocity=0 time=120
note_on channel=0 note=72 velocity=0 time=0
note_on channel=0 note=60 velocity=0 time=0
note_on channel=0 note=55 velocity=0 time=0
note_on channel=0 note=55 velocity=37 time=120
note_on channel=0 note=52 velocity=30 time=0
note_on channel=0 note=52 velocity=0 time=120
note_on channel=0 note=55 velocity=0 time=0
note_on channel=0 note=55 velocity=37 time=120
note_on channel=0 note=52 velocity=30 time=0
note_on channel=0 note=52 velocity=0 time=120
note_on channel=0 note=55 velocity=0 time=0
note_on channel=0 note=55 velocity=37 time=120
note_on channel=0 note=52 velocity=30 time=0
note_on channel=0 note=52 velocity=0 time=120
note_on channel=0 note=55 velocity=0 time=0
note_on channel=0 note=72 velocity=56 time=0
note_on channel=0 note=67 velocity=47 time=0
note_on channel=0 note=59 velocity=45 time=0
note_on channel=0 note=55 velocity=37 time=0
note_on channel=0 note=52 velocity=37 time=0
note_on channel=0 note=52 velocity=0 time=120
note_on channel=0 note=59 velocity=0 time=0
note_on channel=0 note=72 velocity=0 time=0
note_on channel=0 note=67 velocity=0 time=0
note_on channel=0 note=55 velocity=0 time=0
note_on channel=0 note=59 velocity=37 time=120
note_on channel=0 note=55 velocity=30 time=0
note_on channel=0 note=52 velocity=30 time=0
note_on channel=0 note=52 velocity=0 time=120
note_on channel=0 note=55 velocity=0 time=0
note_on channel=0 note=59 velocity=0 time=0
note_on channel=0 note=75 velocity=59 time=0
note_on channel=0 note=63 velocity=49 time=0
note_on channel=0 note=57 velocity=44 time=0
note_on channel=0 note=54 velocity=37 time=0
note_on channel=0 note=54 velocity=0 time=120
note_on channel=0 note=75 velocity=0 time=0
note_on channel=0 note=63 velocity=0 time=0
note_on channel=0 note=57 velocity=0 time=0
note_on channel=0 note=54 velocity=31 time=120
note_on channel=0 note=57 velocity=38 time=0
note_on channel=0 note=57 velocity=0 time=120
note_on channel=0 note=54 velocity=0 time=0
note_on channel=0 note=54 velocity=31 time=0
note_on channel=0 note=57 velocity=38 time=0
note_on channel=0 note=57 velocity=0 time=120
note_on channel=0 note=54 velocity=0 time=0
note_on channel=0 note=54 velocity=31 time=120
note_on channel=0 note=57 velocity=38 time=0
note_on channel=0 note=57 velocity=0 time=120
note_on channel=0 note=54 velocity=0 time=0
note_on channel=0 note=75 velocity=57 time=0
note_on channel=0 note=69 velocity=48 time=0
note_on channel=0 note=60 velocity=44 time=0
note_on channel=0 note=57 velocity=37 time=0
note_on channel=0 note=54 velocity=37 time=0
note_on channel=0 note=54 velocity=0 time=120
note_on channel=0 note=60 velocity=0 time=0
note_on channel=0 note=75 velocity=0 time=0
note_on channel=0 note=69 velocity=0 time=0
note_on channel=0 note=57 velocity=0 time=0
note_on channel=0 note=54 velocity=30 time=120
note_on channel=0 note=57 velocity=30 time=0
note_on channel=0 note=60 velocity=37 time=0
note_on channel=0 note=60 velocity=0 time=120
note_on channel=0 note=57 velocity=0 time=0
note_on channel=0 note=54 velocity=0 time=0
note_on channel=0 note=76 velocity=63 time=120
note_on channel=0 note=64 velocity=53 time=0
note_on channel=0 note=59 velocity=44 time=0
note_on channel=0 note=55 velocity=37 time=0
note_on channel=0 note=55 velocity=0 time=120
note_on channel=0 note=76 velocity=0 time=0
note_on channel=0 note=64 velocity=0 time=0
note_on channel=0 note=59 velocity=0 time=0
note_on channel=0 note=55 velocity=33 time=120
note_on channel=0 note=59 velocity=39 time=0
note_on channel=0 note=59 velocity=0 time=120
note_on channel=0 note=55 velocity=0 time=0
note_on channel=0 note=55 velocity=33 time=0
note_on channel=0 note=59 velocity=39 time=0
note_on channel=0 note=59 velocity=0 time=120
note_on channel=0 note=55 velocity=0 time=0
note_on channel=0 note=55 velocity=33 time=120
note_on channel=0 note=59 velocity=39 time=0
note_on channel=0 note=59 velocity=0 time=120
note_on channel=0 note=55 velocity=0 time=0
note_on channel=0 note=76 velocity=60 time=0
note_on channel=0 note=71 velocity=50 time=0
note_on channel=0 note=56 velocity=41 time=0
note_on channel=0 note=59 velocity=49 time=0
note_on channel=0 note=59 velocity=0 time=120
note_on channel=0 note=76 velocity=0 time=0
note_on channel=0 note=71 velocity=0 time=0
note_on channel=0 note=56 velocity=0 time=0
note_on channel=0 note=56 velocity=37 time=120
note_on channel=0 note=59 velocity=37 time=0
note_on channel=0 note=62 velocity=44 time=0
note_on channel=0 note=62 velocity=0 time=120
note_on channel=0 note=59 velocity=0 time=0
note_on channel=0 note=56 velocity=0 time=0
note_on channel=0 note=77 velocity=64 time=120
note_on channel=0 note=65 velocity=55 time=0
note_on channel=0 note=56 velocity=39 time=0
note_on channel=0 note=59 velocity=39 time=0
note_on channel=0 note=61 velocity=47 time=0
note_on channel=0 note=61 velocity=0 time=120
note_on channel=0 note=56 velocity=0 time=0
note_on channel=0 note=77 velocity=0 time=0
note_on channel=0 note=65 velocity=0 time=0
note_on channel=0 note=59 velocity=0 time=0
note_on channel=0 note=56 velocity=35 time=120
note_on channel=0 note=59 velocity=35 time=0
note_on channel=0 note=61 velocity=41 time=0
note_on channel=0 note=61 velocity=0 time=120
note_on channel=0 note=59 velocity=0 time=0
note_on channel=0 note=56 velocity=0 time=0
note_on channel=0 note=56 velocity=36 time=0
note_on channel=0 note=59 velocity=36 time=0
note_on channel=0 note=61 velocity=42 time=0
note_on channel=0 note=61 velocity=0 time=120
note_on channel=0 note=59 velocity=0 time=0
note_on channel=0 note=56 velocity=0 time=0
note_on channel=0 note=56 velocity=36 time=120
note_on channel=0 note=59 velocity=36 time=0
note_on channel=0 note=61 velocity=42 time=0
note_on channel=0 note=61 velocity=0 time=120
note_on channel=0 note=59 velocity=0 time=0
note_on channel=0 note=56 velocity=0 time=0
note_on channel=0 note=68 velocity=39 time=0
note_on channel=0 note=71 velocity=39 time=0
note_on channel=0 note=76 velocity=46 time=0
note_on channel=0 note=61 velocity=34 time=0
control_change channel=0 control=64 value=127 time=49
note_on channel=0 note=61 velocity=0 time=68
note_on channel=0 note=68 velocity=0 time=0
note_on channel=0 note=71 velocity=0 time=0
note_on channel=0 note=76 velocity=0 time=0
note_on channel=0 note=77 velocity=38 time=120
note_on channel=0 note=71 velocity=32 time=0
note_on channel=0 note=68 velocity=32 time=0
note_on channel=0 note=61 velocity=32 time=0
control_change channel=0 control=64 value=0 time=13
control_change channel=0 control=64 value=127 time=90
note_on channel=0 note=61 velocity=0 time=17
note_on channel=0 note=77 velocity=0 time=0
note_on channel=0 note=71 velocity=0 time=0
note_on channel=0 note=68 velocity=0 time=0
note_on channel=0 note=77 velocity=38 time=120
note_on channel=0 note=71 velocity=32 time=0
note_on channel=0 note=68 velocity=32 time=0
note_on channel=0 note=61 velocity=32 time=0
note_on channel=0 note=61 velocity=0 time=120
note_on channel=0 note=77 velocity=0 time=0
note_on channel=0 note=71 velocity=0 time=0
note_on channel=0 note=68 velocity=0 time=0
note_on channel=0 note=77 velocity=38 time=120
note_on channel=0 note=71 velocity=32 time=0
note_on channel=0 note=68 velocity=32 time=0
note_on channel=0 note=61 velocity=32 time=0
note_on channel=0 note=61 velocity=0 time=87
note_on channel=0 note=77 velocity=0 time=0
note_on channel=0 note=71 velocity=0 time=0
note_on channel=0 note=68 velocity=0 time=0
note_on channel=0 note=77 velocity=38 time=120
note_on channel=0 note=71 velocity=32 time=0
note_on channel=0 note=68 velocity=32 time=0
note_on channel=0 note=61 velocity=32 time=0
note_on channel=0 note=61 velocity=0 time=120
note_on channel=0 note=77 velocity=0 time=0
note_on channel=0 note=71 velocity=0 time=0
note_on channel=0 note=68 velocity=0 time=0
note_on channel=0 note=77 velocity=38 time=120
note_on channel=0 note=71 velocity=32 time=0
note_on channel=0 note=68 velocity=32 time=0
note_on channel=0 note=61 velocity=32 time=0
note_on channel=0 note=61 velocity=0 time=120
note_on channel=0 note=77 velocity=0 time=0
note_on channel=0 note=71 velocity=0 time=0
note_on channel=0 note=68 velocity=0 time=0
note_on channel=0 note=68 velocity=39 time=120
note_on channel=0 note=71 velocity=39 time=0
note_on channel=0 note=77 velocity=46 time=0
note_on channel=0 note=61 velocity=40 time=0
control_change channel=0 control=64 value=0 time=6
control_change channel=0 control=64 value=127 time=19
note_on channel=0 note=61 velocity=0 time=68
note_on channel=0 note=68 velocity=0 time=0
note_on channel=0 note=71 velocity=0 time=0
note_on channel=0 note=77 velocity=0 time=0
note_on channel=0 note=77 velocity=52 time=120
note_on channel=0 note=71 velocity=44 time=0
note_on channel=0 note=68 velocity=44 time=0
note_on channel=0 note=61 velocity=45 time=0
note_on channel=0 note=61 velocity=0 time=120
note_on channel=0 note=77 velocity=0 time=0
note_on channel=0 note=71 velocity=0 time=0
note_on channel=0 note=68 velocity=0 time=0
note_on channel=0 note=77 velocity=58 time=120
note_on channel=0 note=71 velocity=48 time=0
note_on channel=0 note=68 velocity=48 time=0
note_on channel=0 note=61 velocity=49 time=0
note_on channel=0 note=61 velocity=0 time=120
note_on channel=0 note=77 velocity=0 time=0
note_on channel=0 note=71 velocity=0 time=0
note_on channel=0 note=68 velocity=0 time=0
note_on channel=0 note=77 velocity=63 time=120
note_on channel=0 note=71 velocity=53 time=0
note_on channel=0 note=68 velocity=53 time=0
note_on channel=0 note=61 velocity=52 time=0
note_on channel=0 note=61 velocity=0 time=120
note_on channel=0 note=77 velocity=0 time=0
note_on channel=0 note=71 velocity=0 time=0
note_on channel=0 note=68 velocity=0 time=0
note_on channel=0 note=77 velocity=69 time=120
note_on channel=0 note=71 velocity=59 time=0
note_on channel=0 note=68 velocity=59 time=0
note_on channel=0 note=61 velocity=56 time=0
note_on channel=0 note=61 velocity=0 time=120
note_on channel=0 note=77 velocity=0 time=0
note_on channel=0 note=71 velocity=0 time=0
note_on channel=0 note=68 velocity=0 time=0
note_on channel=0 note=77 velocity=75 time=27
note_on channel=0 note=71 velocity=63 time=0
note_on channel=0 note=68 velocity=63 time=0
note_on channel=0 note=61 velocity=58 time=0
note_on channel=0 note=61 velocity=0 time=120
note_on channel=0 note=77 velocity=0 time=0
note_on channel=0 note=71 velocity=0 time=0
note_on channel=0 note=68 velocity=0 time=0
note_on channel=0 note=78 velocity=77 time=27
note_on channel=0 note=82 velocity=77 time=0
note_on channel=0 note=85 velocity=77 time=0
note_on channel=0 note=88 velocity=91 time=0
note_on channel=0 note=90 velocity=91 time=0
note_on channel=0 note=54 velocity=60 time=0
note_on channel=0 note=58 velocity=60 time=0
note_on channel=0 note=61 velocity=60 time=0
note_on channel=0 note=64 velocity=71 time=0
control_change channel=0 control=64 value=0 time=0
note_on channel=0 note=64 velocity=0 time=120
note_on channel=0 note=88 velocity=0 time=0
note_on channel=0 note=78 velocity=0 time=0
note_on channel=0 note=90 velocity=0 time=0
note_on channel=0 note=82 velocity=0 time=0
note_on channel=0 note=85 velocity=0 time=0
note_on channel=0 note=58 velocity=0 time=0
note_on channel=0 note=54 velocity=0 time=0
note_on channel=0 note=61 velocity=0 time=0
note_on channel=0 note=79 velocity=70 time=120
note_on channel=0 note=82 velocity=70 time=0
note_on channel=0 note=85 velocity=70 time=0
note_on channel=0 note=88 velocity=83 time=0
note_on channel=0 note=91 velocity=83 time=0
note_on channel=0 note=64 velocity=59 time=0
note_on channel=0 note=61 velocity=49 time=0
note_on channel=0 note=58 velocity=49 time=0
note_on channel=0 note=54 velocity=49 time=0
control_change channel=0 control=64 value=127 time=50
note_on channel=0 note=54 velocity=0 time=70
note_on channel=0 note=88 velocity=0 time=0
note_on channel=0 note=79 velocity=0 time=0
note_on channel=0 note=91 velocity=0 time=0
note_on channel=0 note=82 velocity=0 time=0
note_on channel=0 note=85 velocity=0 time=0
note_on channel=0 note=61 velocity=0 time=0
note_on channel=0 note=64 velocity=0 time=0
note_on channel=0 note=58 velocity=0 time=0
note_on channel=0 note=79 velocity=70 time=120
note_on channel=0 note=82 velocity=70 time=0
note_on channel=0 note=85 velocity=70 time=0
note_on channel=0 note=88 velocity=83 time=0
note_on channel=0 note=91 velocity=83 time=0
note_on channel=0 note=64 velocity=59 time=0
note_on channel=0 note=61 velocity=49 time=0
note_on channel=0 note=58 velocity=49 time=0
note_on channel=0 note=54 velocity=49 time=0
note_on channel=0 note=54 velocity=0 time=120
note_on channel=0 note=88 velocity=0 time=0
note_on channel=0 note=79 velocity=0 time=0
note_on channel=0 note=91 velocity=0 time=0
note_on channel=0 note=82 velocity=0 time=0
note_on channel=0 note=85 velocity=0 time=0
note_on channel=0 note=61 velocity=0 time=0
note_on channel=0 note=64 velocity=0 time=0
note_on channel=0 note=58 velocity=0 time=0
note_on channel=0 note=79 velocity=70 time=120
note_on channel=0 note=82 velocity=70 time=0
note_on channel=0 note=85 velocity=70 time=0
note_on channel=0 note=88 velocity=83 time=0
note_on channel=0 note=91 velocity=83 time=0
note_on channel=0 note=64 velocity=59 time=0
note_on channel=0 note=61 velocity=49 time=0
note_on channel=0 note=58 velocity=49 time=0
note_on channel=0 note=54 velocity=49 time=0
note_on channel=0 note=54 velocity=0 time=120
note_on channel=0 note=88 velocity=0 time=0
note_on channel=0 note=79 velocity=0 time=0
note_on channel=0 note=91 velocity=0 time=0
note_on channel=0 note=82 velocity=0 time=0
note_on channel=0 note=85 velocity=0 time=0
note_on channel=0 note=61 velocity=0 time=0
note_on channel=0 note=64 velocity=0 time=0
note_on channel=0 note=58 velocity=0 time=0
note_on channel=0 note=79 velocity=70 time=120
note_on channel=0 note=82 velocity=70 time=0
note_on channel=0 note=85 velocity=70 time=0
note_on channel=0 note=88 velocity=83 time=0
note_on channel=0 note=91 velocity=83 time=0
note_on channel=0 note=64 velocity=59 time=0
note_on channel=0 note=61 velocity=49 time=0
note_on channel=0 note=58 velocity=49 time=0
note_on channel=0 note=54 velocity=49 time=0
note_on channel=0 note=54 velocity=0 time=120
note_on channel=0 note=88 velocity=0 time=0
note_on channel=0 note=79 velocity=0 time=0
note_on channel=0 note=91 velocity=0 time=0
note_on channel=0 note=82 velocity=0 time=0
note_on channel=0 note=85 velocity=0 time=0
note_on channel=0 note=61 velocity=0 time=0
note_on channel=0 note=64 velocity=0 time=0
note_on channel=0 note=58 velocity=0 time=0
note_on channel=0 note=79 velocity=70 time=0
note_on channel=0 note=82 velocity=70 time=0
note_on channel=0 note=85 velocity=70 time=0
note_on channel=0 note=88 velocity=83 time=0
note_on channel=0 note=91 velocity=83 time=0
note_on channel=0 note=64 velocity=59 time=0
note_on channel=0 note=61 velocity=49 time=0
note_on channel=0 note=58 velocity=49 time=0
note_on channel=0 note=54 velocity=49 time=0
note_on channel=0 note=54 velocity=0 time=120
note_on channel=0 note=88 velocity=0 time=0
note_on channel=0 note=79 velocity=0 time=0
note_on channel=0 note=91 velocity=0 time=0
note_on channel=0 note=82 velocity=0 time=0
note_on channel=0 note=85 velocity=0 time=0
note_on channel=0 note=61 velocity=0 time=0
note_on channel=0 note=64 velocity=0 time=0
note_on channel=0 note=58 velocity=0 time=0
note_on channel=0 note=79 velocity=71 time=120
note_on channel=0 note=82 velocity=71 time=0
note_on channel=0 note=85 velocity=71 time=0
note_on channel=0 note=88 velocity=85 time=0
note_on channel=0 note=91 velocity=85 time=0
note_on channel=0 note=64 velocity=64 time=0
note_on channel=0 note=61 velocity=53 time=0
note_on channel=0 note=58 velocity=53 time=0
note_on channel=0 note=54 velocity=53 time=0
note_on channel=0 note=54 velocity=0 time=57
note_on channel=0 note=88 velocity=0 time=0
note_on channel=0 note=79 velocity=0 time=0
note_on channel=0 note=91 velocity=0 time=0
note_on channel=0 note=82 velocity=0 time=0
note_on channel=0 note=85 velocity=0 time=0
note_on channel=0 note=61 velocity=0 time=0
note_on channel=0 note=64 velocity=0 time=0
note_on channel=0 note=58 velocity=0 time=0
note_on channel=0 note=79 velocity=65 time=27
note_on channel=0 note=82 velocity=65 time=0
note_on channel=0 note=85 velocity=65 time=0
note_on channel=0 note=88 velocity=77 time=0
note_on channel=0 note=91 velocity=77 time=0
note_on channel=0 note=54 velocity=51 time=0
note_on channel=0 note=58 velocity=51 time=0
note_on channel=0 note=61 velocity=51 time=0
note_on channel=0 note=64 velocity=60 time=0
note_on channel=0 note=64 velocity=0 time=57
note_on channel=0 note=88 velocity=0 time=0
note_on channel=0 note=79 velocity=0 time=0
note_on channel=0 note=91 velocity=0 time=0
note_on channel=0 note=82 velocity=0 time=0
note_on channel=0 note=85 velocity=0 time=0
note_on channel=0 note=58 velocity=0 time=0
note_on channel=0 note=54 velocity=0 time=0
note_on channel=0 note=61 velocity=0 time=0
note_on channel=0 note=79 velocity=63 time=27
note_on channel=0 note=82 velocity=63 time=0
note_on channel=0 note=85 velocity=63 time=0
note_on channel=0 note=88 velocity=74 time=0
note_on channel=0 note=91 velocity=74 time=0
note_on channel=0 note=54 velocity=47 time=0
note_on channel=0 note=58 velocity=47 time=0
note_on channel=0 note=61 velocity=47 time=0
note_on channel=0 note=64 velocity=57 time=0
note_on channel=0 note=64 velocity=0 time=57
note_on channel=0 note=88 velocity=0 time=0
note_on channel=0 note=79 velocity=0 time=0
note_on channel=0 note=91 velocity=0 time=0
note_on channel=0 note=82 velocity=0 time=0
note_on channel=0 note=85 velocity=0 time=0
note_on channel=0 note=58 velocity=0 time=0
note_on channel=0 note=54 velocity=0 time=0
note_on channel=0 note=61 velocity=0 time=0
note_on channel=0 note=79 velocity=57 time=27
note_on channel=0 note=82 velocity=57 time=0
note_on channel=0 note=85 velocity=57 time=0
note_on channel=0 note=88 velocity=67 time=0
note_on channel=0 note=91 velocity=67 time=0
note_on channel=0 note=54 velocity=44 time=0
note_on channel=0 note=58 velocity=44 time=0
note_on channel=0 note=61 velocity=44 time=0
note_on channel=0 note=64 velocity=52 time=0
note_on channel=0 note=64 velocity=0 time=57
note_on channel=0 note=88 velocity=0 time=0
note_on channel=0 note=79 velocity=0 time=0
note_on channel=0 note=91 velocity=0 time=0
note_on channel=0 note=82 velocity=0 time=0
note_on channel=0 note=85 velocity=0 time=0
note_on channel=0 note=58 velocity=0 time=0
note_on channel=0 note=54 velocity=0 time=0
note_on channel=0 note=61 velocity=0 time=0
note_on channel=0 note=79 velocity=51 time=27
note_on channel=0 note=82 velocity=51 time=0
note_on channel=0 note=85 velocity=51 time=0
note_on channel=0 note=88 velocity=60 time=0
note_on channel=0 note=91 velocity=60 time=0
note_on channel=0 note=54 velocity=39 time=0
note_on channel=0 note=58 velocity=39 time=0
note_on channel=0 note=61 velocity=39 time=0
note_on channel=0 note=64 velocity=47 time=0
note_on channel=0 note=64 velocity=0 time=57
note_on channel=0 note=88 velocity=0 time=0
note_on channel=0 note=79 velocity=0 time=0
note_on channel=0 note=91 velocity=0 time=0
note_on channel=0 note=82 velocity=0 time=0
note_on channel=0 note=85 velocity=0 time=0
note_on channel=0 note=58 velocity=0 time=0
note_on channel=0 note=54 velocity=0 time=0
note_on channel=0 note=61 velocity=0 time=0
note_on channel=0 note=79 velocity=47 time=0
note_on channel=0 note=82 velocity=47 time=0
note_on channel=0 note=85 velocity=47 time=0
note_on channel=0 note=88 velocity=56 time=0
note_on channel=0 note=91 velocity=56 time=0
note_on channel=0 note=54 velocity=39 time=0
note_on channel=0 note=58 velocity=39 time=0
note_on channel=0 note=61 velocity=39 time=0
note_on channel=0 note=64 velocity=46 time=0
note_on channel=0 note=64 velocity=0 time=120
note_on channel=0 note=88 velocity=0 time=0
note_on channel=0 note=79 velocity=0 time=0
note_on channel=0 note=91 velocity=0 time=0
note_on channel=0 note=82 velocity=0 time=0
note_on channel=0 note=85 velocity=0 time=0
note_on channel=0 note=58 velocity=0 time=0
note_on channel=0 note=54 velocity=0 time=0
note_on channel=0 note=61 velocity=0 time=0
note_on channel=0 note=91 velocity=56 time=0
note_on channel=0 note=79 velocity=56 time=0
note_on channel=0 note=47 velocity=40 time=0
control_change channel=0 control=64 value=0 time=0
control_change channel=0 control=64 value=127 time=52
note_on channel=0 note=47 velocity=0 time=68
note_on channel=0 note=62 velocity=34 time=0
note_on channel=0 note=62 velocity=0 time=120
note_on channel=0 note=54 velocity=37 time=0
note_on channel=0 note=54 velocity=0 time=120
note_on channel=0 note=62 velocity=34 time=0
note_on channel=0 note=62 velocity=0 time=120
note_on channel=0 note=79 velocity=0 time=0
note_on channel=0 note=91 velocity=0 time=0
note_on channel=0 note=90 velocity=56 time=0
note_on channel=0 note=78 velocity=56 time=0
note_on channel=0 note=49 velocity=40 time=0
control_change channel=0 control=64 value=0 time=6
control_change channel=0 control=64 value=127 time=46
note_on channel=0 note=49 velocity=0 time=68
note_on channel=0 note=64 velocity=34 time=0
note_on channel=0 note=64 velocity=0 time=120
note_on channel=0 note=54 velocity=37 time=0
note_on channel=0 note=54 velocity=0 time=120
note_on channel=0 note=64 velocity=34 time=0
note_on channel=0 note=64 velocity=0 time=120
note_on channel=0 note=50 velocity=40 time=0
control_change channel=0 control=64 value=0 time=17
control_change channel=0 control=64 value=127 time=46
note_on channel=0 note=50 velocity=0 time=57
note_on channel=0 note=66 velocity=35 time=0
note_on channel=0 note=66 velocity=0 time=120
note_on channel=0 note=54 velocity=38 time=0
note_on channel=0 note=54 velocity=0 time=120
note_on channel=0 note=66 velocity=35 time=0
note_on channel=0 note=66 velocity=0 time=120
note_on channel=0 note=47 velocity=40 time=0
note_on channel=0 note=47 velocity=0 time=120
note_on channel=0 note=62 velocity=34 time=0
note_on channel=0 note=62 velocity=0 time=120
note_on channel=0 note=54 velocity=37 time=0
note_on channel=0 note=54 velocity=0 time=120
note_on channel=0 note=62 velocity=34 time=0
note_on channel=0 note=62 velocity=0 time=120
note_on channel=0 note=78 velocity=0 time=0
note_on channel=0 note=90 velocity=0 time=0
note_on channel=0 note=71 velocity=56 time=0
note_on channel=0 note=83 velocity=56 time=0
note_on channel=0 note=49 velocity=40 time=0
control_change channel=0 control=64 value=0 time=52
control_change channel=0 control=64 value=127 time=63
note_on channel=0 note=49 velocity=0 time=5
note_on channel=0 note=64 velocity=34 time=0
note_on channel=0 note=64 velocity=0 time=120
note_on channel=0 note=54 velocity=37 time=0
note_on channel=0 note=54 velocity=0 time=120
note_on channel=0 note=64 velocity=34 time=0
note_on channel=0 note=64 velocity=0 time=120
note_on channel=0 note=50 velocity=40 time=0
control_change channel=0 control=64 value=0 time=12
control_change channel=0 control=64 value=127 time=57
note_on channel=0 note=50 velocity=0 time=51
note_on channel=0 note=66 velocity=35 time=0
note_on channel=0 note=66 velocity=0 time=120
note_on channel=0 note=54 velocity=38 time=0
note_on channel=0 note=54 velocity=0 time=120
note_on channel=0 note=66 velocity=35 time=0
note_on channel=0 note=66 velocity=0 time=120
note_on channel=0 note=47 velocity=40 time=0
note_on channel=0 note=47 velocity=0 time=120
note_on channel=0 note=62 velocity=34 time=0
note_on channel=0 note=62 velocity=0 time=120
note_on channel=0 note=54 velocity=37 time=0
note_on channel=0 note=54 velocity=0 time=120
note_on channel=0 note=62 velocity=34 time=0
note_on channel=0 note=62 velocity=0 time=120
note_on channel=0 note=83 velocity=0 time=0
note_on channel=0 note=71 velocity=0 time=0
note_on channel=0 note=66 velocity=56 time=0
note_on channel=0 note=78 velocity=56 time=0
note_on channel=0 note=49 velocity=40 time=0
control_change channel=0 control=64 value=0 time=9
control_change channel=0 control=64 value=127 time=94
note_on channel=0 note=49 velocity=0 time=17
note_on channel=0 note=64 velocity=34 time=0
note_on channel=0 note=64 velocity=0 time=120
note_on channel=0 note=54 velocity=37 time=0
note_on channel=0 note=54 velocity=0 time=120
note_on channel=0 note=64 velocity=34 time=0
note_on channel=0 note=64 velocity=0 time=120
note_on channel=0 note=50 velocity=40 time=0
control_change channel=0 control=64 value=0 time=15
control_change channel=0 control=64 value=127 time=82
note_on channel=0 note=50 velocity=0 time=23
note_on channel=0 note=66 velocity=35 time=0
note_on channel=0 note=66 velocity=0 time=120
note_on channel=0 note=54 velocity=38 time=0
note_on channel=0 note=54 velocity=0 time=120
note_on channel=0 note=66 velocity=35 time=0
note_on channel=0 note=66 velocity=0 time=120
note_on channel=0 note=47 velocity=40 time=0
note_on channel=0 note=47 velocity=0 time=120
note_on channel=0 note=62 velocity=34 time=0
note_on channel=0 note=62 velocity=0 time=120
note_on channel=0 note=54 velocity=37 time=0
note_on channel=0 note=54 velocity=0 time=120
note_on channel=0 note=62 velocity=34 time=0
note_on channel=0 note=62 velocity=0 time=120
note_on channel=0 note=78 velocity=0 time=0
note_on channel=0 note=66 velocity=0 time=0
note_on channel=0 note=59 velocity=56 time=0
note_on channel=0 note=71 velocity=56 time=0
note_on channel=0 note=49 velocity=40 time=0
control_change channel=0 control=64 value=0 time=17
control_change channel=0 control=64 value=127 time=52
note_on channel=0 note=49 velocity=0 time=51
note_on channel=0 note=64 velocity=34 time=0
note_on channel=0 note=64 velocity=0 time=120
note_on channel=0 note=54 velocity=37 time=0
note_on channel=0 note=54 velocity=0 time=120
note_on channel=0 note=64 velocity=34 time=0
note_on channel=0 note=64 velocity=0 time=120
note_on channel=0 note=50 velocity=40 time=0
control_change channel=0 control=64 value=0 time=19
control_change channel=0 control=64 value=127 time=67
note_on channel=0 note=50 velocity=0 time=34
note_on channel=0 note=66 velocity=35 time=0
note_on channel=0 note=66 velocity=0 time=120
note_on channel=0 note=54 velocity=38 time=0
note_on channel=0 note=54 velocity=0 time=120
note_on channel=0 note=66 velocity=35 time=0
note_on channel=0 note=66 velocity=0 time=120
note_on channel=0 note=59 velocity=0 time=0
note_on channel=0 note=52 velocity=40 time=0
control_change channel=0 control=64 value=0 time=0
control_change channel=0 control=64 value=127 time=75
note_on channel=0 note=52 velocity=0 time=45
note_on channel=0 note=62 velocity=34 time=0
note_on channel=0 note=62 velocity=0 time=120
note_on channel=0 note=59 velocity=37 time=0
note_on channel=0 note=59 velocity=0 time=120
note_on channel=0 note=62 velocity=34 time=0
note_on channel=0 note=62 velocity=0 time=120
note_on channel=0 note=71 velocity=0 time=0
note_on channel=0 note=67 velocity=63 time=0
note_on channel=0 note=53 velocity=49 time=0
control_change channel=0 control=64 value=0 time=19
control_change channel=0 control=64 value=127 time=44
note_on channel=0 note=53 velocity=0 time=57
note_on channel=0 note=62 velocity=34 time=0
note_on channel=0 note=62 velocity=0 time=0
note_on channel=0 note=59 velocity=42 time=0
note_on channel=0 note=59 velocity=0 time=120
note_on channel=0 note=62 velocity=34 time=0
note_on channel=0 note=62 velocity=0 time=120
note_on channel=0 note=67 velocity=0 time=0
note_on channel=0 note=66 velocity=57 time=0
note_on channel=0 note=54 velocity=48 time=0
control_change channel=0 control=64 value=0 time=19
control_change channel=0 control=64 value=127 time=61
note_on channel=0 note=54 velocity=0 time=40
note_on channel=0 note=62 velocity=35 time=0
note_on channel=0 note=62 velocity=0 time=0
note_on channel=0 note=59 velocity=38 time=0
note_on channel=0 note=59 velocity=0 time=120
note_on channel=0 note=62 velocity=38 time=0
note_on channel=0 note=66 velocity=0 time=110
note_on channel=0 note=62 velocity=0 time=0
note_on channel=0 note=66 velocity=65 time=0
note_on channel=0 note=54 velocity=51 time=0
control_change channel=0 control=64 value=0 time=15
control_change channel=0 control=64 value=127 time=25
note_on channel=0 note=54 velocity=0 time=80
note_on channel=0 note=62 velocity=39 time=0
note_on channel=0 note=62 velocity=0 time=120
note_on channel=0 note=59 velocity=42 time=0
note_on channel=0 note=59 velocity=0 time=120
note_on channel=0 note=62 velocity=39 time=0
note_on channel=0 note=62 velocity=0 time=120
note_on channel=0 note=54 velocity=48 time=0
note_on channel=0 note=54 velocity=0 time=120
note_on channel=0 note=62 velocity=38 time=0
note_on channel=0 note=62 velocity=0 time=120
note_on channel=0 note=59 velocity=39 time=0
note_on channel=0 note=59 velocity=0 time=120
note_on channel=0 note=62 velocity=38 time=0
note_on channel=0 note=62 velocity=0 time=0
note_on channel=0 note=66 velocity=0 time=0
note_on channel=0 note=70 velocity=58 time=0
note_on channel=0 note=54 velocity=45 time=0
control_change channel=0 control=64 value=0 time=14
control_change channel=0 control=64 value=127 time=49
note_on channel=0 note=54 velocity=0 time=57
note_on channel=0 note=64 velocity=41 time=0
note_on channel=0 note=64 velocity=0 time=0
note_on channel=0 note=61 velocity=45 time=0
note_on channel=0 note=61 velocity=0 time=120
note_on channel=0 note=64 velocity=40 time=0
note_on channel=0 note=64 velocity=0 time=0
note_on channel=0 note=70 velocity=0 time=0
note_on channel=0 note=71 velocity=56 time=0
note_on channel=0 note=47 velocity=40 time=0
control_change channel=0 control=64 value=0 time=12
control_change channel=0 control=64 value=127 time=63
note_on channel=0 note=47 velocity=0 time=45
note_on channel=0 note=62 velocity=36 time=0
note_on channel=0 note=62 velocity=0 time=0
note_on channel=0 note=71 velocity=0 time=0
note_on channel=0 note=79 velocity=68 time=0
note_on channel=0 note=54 velocity=41 time=0
note_on channel=0 note=54 velocity=0 time=120
note_on channel=0 note=62 velocity=40 time=0
note_on channel=0 note=62 velocity=0 time=0
note_on channel=0 note=79 velocity=0 time=0
note_on channel=0 note=91 velocity=74 time=0
note_on channel=0 note=49 velocity=50 time=0
control_change channel=0 control=64 value=0 time=11
control_change channel=0 control=64 value=127 time=58
note_on channel=0 note=49 velocity=0 time=51
note_on channel=0 note=64 velocity=41 time=0
note_on channel=0 note=64 velocity=0 time=120
note_on channel=0 note=54 velocity=44 time=0
note_on channel=0 note=54 velocity=0 time=120
note_on channel=0 note=64 velocity=39 time=0
note_on channel=0 note=64 velocity=0 time=120
note_on channel=0 note=50 velocity=45 time=0
note_on channel=0 note=50 velocity=0 time=120
note_on channel=0 note=66 velocity=38 time=0
note_on channel=0 note=66 velocity=0 time=120
note_on channel=0 note=91 velocity=0 time=0
note_on channel=0 note=90 velocity=56 time=0
note_on channel=0 note=54 velocity=40 time=0
note_on channel=0 note=54 velocity=0 time=120
note_on channel=0 note=66 velocity=36 time=0
note_on channel=0 note=66 velocity=0 time=0
note_on channel=0 note=90 velocity=0 time=0
note_on channel=0 note=47 velocity=40 time=0
control_change channel=0 control=64 value=0 time=0
control_change channel=0 control=64 value=127 time=75
note_on channel=0 note=47 velocity=0 time=45
note_on channel=0 note=62 velocity=36 time=0
note_on channel=0 note=62 velocity=0 time=0
note_on channel=0 note=90 velocity=69 time=0
note_on channel=0 note=54 velocity=41 time=0
note_on channel=0 note=54 velocity=0 time=120
note_on channel=0 note=62 velocity=40 time=0
note_on channel=0 note=62 velocity=0 time=120
note_on channel=0 note=90 velocity=0 time=0
note_on channel=0 note=85 velocity=66 time=0
note_on channel=0 note=49 velocity=50 time=0
control_change channel=0 control=64 value=0 time=17
control_change channel=0 control=64 value=127 time=52
note_on channel=0 note=49 velocity=0 time=51
note_on channel=0 note=64 velocity=41 time=0
note_on channel=0 note=64 velocity=0 time=120
note_on channel=0 note=54 velocity=44 time=0
note_on channel=0 note=54 velocity=0 time=120
note_on channel=0 note=64 velocity=39 time=0
note_on channel=0 note=64 velocity=0 time=120
note_on channel=0 note=50 velocity=45 time=0
note_on channel=0 note=50 velocity=0 time=120
note_on channel=0 note=66 velocity=38 time=0
note_on channel=0 note=66 velocity=0 time=120
note_on channel=0 note=85 velocity=0 time=0
note_on channel=0 note=83 velocity=51 time=0
note_on channel=0 note=54 velocity=40 time=0
note_on channel=0 note=54 velocity=0 time=120
note_on channel=0 note=66 velocity=36 time=0
note_on channel=0 note=66 velocity=0 time=0
note_on channel=0 note=83 velocity=0 time=0
note_on channel=0 note=47 velocity=40 time=0
control_change channel=0 control=64 value=0 time=9
control_change channel=0 control=64 value=127 time=66
note_on channel=0 note=47 velocity=0 time=45
note_on channel=0 note=62 velocity=36 time=0
note_on channel=0 note=62 velocity=0 time=0
note_on channel=0 note=83 velocity=73 time=0
note_on channel=0 note=54 velocity=41 time=0
note_on channel=0 note=54 velocity=0 time=120
note_on channel=0 note=62 velocity=40 time=0
note_on channel=0 note=62 velocity=0 time=120
note_on channel=0 note=83 velocity=0 time=0
note_on channel=0 note=79 velocity=70 time=0
note_on channel=0 note=49 velocity=50 time=0
control_change channel=0 control=64 value=0 time=19
control_change channel=0 control=64 value=127 time=61
note_on channel=0 note=49 velocity=0 time=40
note_on channel=0 note=64 velocity=41 time=0
note_on channel=0 note=64 velocity=0 time=120
note_on channel=0 note=54 velocity=44 time=0
note_on channel=0 note=54 velocity=0 time=120
note_on channel=0 note=64 velocity=39 time=0
note_on channel=0 note=64 velocity=0 time=120
note_on channel=0 note=50 velocity=45 time=0
note_on channel=0 note=50 velocity=0 time=120
note_on channel=0 note=66 velocity=38 time=0
note_on channel=0 note=66 velocity=0 time=120
note_on channel=0 note=79 velocity=0 time=0
note_on channel=0 note=78 velocity=53 time=0
note_on channel=0 note=54 velocity=40 time=0
note_on channel=0 note=54 velocity=0 time=120
note_on channel=0 note=66 velocity=36 time=0
note_on channel=0 note=66 velocity=0 time=0
note_on channel=0 note=78 velocity=0 time=0
note_on channel=0 note=47 velocity=40 time=0
control_change channel=0 control=64 value=0 time=8
control_change channel=0 control=64 value=127 time=49
note_on channel=0 note=47 velocity=0 time=63
note_on channel=0 note=62 velocity=36 time=0
note_on channel=0 note=62 velocity=0 time=0
note_on channel=0 note=78 velocity=70 time=0
note_on channel=0 note=54 velocity=41 time=0
note_on channel=0 note=54 velocity=0 time=120
note_on channel=0 note=62 velocity=40 time=0
note_on channel=0 note=62 velocity=0 time=120
note_on channel=0 note=78 velocity=0 time=0
note_on channel=0 note=73 velocity=65 time=0
note_on channel=0 note=49 velocity=50 time=0
control_change channel=0 control=64 value=0 time=19
control_change channel=0 control=64 value=127 time=58
note_on channel=0 note=49 velocity=0 time=43
note_on channel=0 note=64 velocity=41 time=0
note_on channel=0 note=64 velocity=0 time=120
note_on channel=0 note=54 velocity=44 time=0
note_on channel=0 note=54 velocity=0 time=120
note_on channel=0 note=64 velocity=39 time=0
note_on channel=0 note=64 velocity=0 time=120
note_on channel=0 note=50 velocity=45 time=0
note_on channel=0 note=50 velocity=0 time=120
note_on channel=0 note=66 velocity=38 time=0
note_on channel=0 note=66 velocity=0 time=0
note_on channel=0 note=73 velocity=0 time=0
note_on channel=0 note=71 velocity=56 time=0
note_on channel=0 note=54 velocity=40 time=0
note_on channel=0 note=54 velocity=0 time=120
note_on channel=0 note=66 velocity=36 time=0
note_on channel=0 note=71 velocity=0 time=110
note_on channel=0 note=66 velocity=0 time=0
note_on channel=0 note=71 velocity=63 time=0
note_on channel=0 note=52 velocity=40 time=0
control_change channel=0 control=64 value=0 time=12
control_change channel=0 control=64 value=127 time=57
note_on channel=0 note=52 velocity=0 time=51
note_on channel=0 note=62 velocity=34 time=0
note_on channel=0 note=62 velocity=0 time=120
note_on channel=0 note=59 velocity=37 time=0
note_on channel=0 note=59 velocity=0 time=120
note_on channel=0 note=62 velocity=34 time=0
note_on channel=0 note=62 velocity=0 time=0
note_on channel=0 note=71 velocity=0 time=0
note_on channel=0 note=67 velocity=63 time=0
note_on channel=0 note=53 velocity=49 time=0
control_change channel=0 control=64 value=0 time=19
control_change channel=0 control=64 value=127 time=56
note_on channel=0 note=53 velocity=0 time=45
note_on channel=0 note=62 velocity=34 time=0
note_on channel=0 note=62 velocity=0 time=120
note_on channel=0 note=59 velocity=42 time=0
note_on channel=0 note=59 velocity=0 time=120
note_on channel=0 note=62 velocity=34 time=0
note_on channel=0 note=62 velocity=0 time=0
note_on channel=0 note=67 velocity=0 time=0
note_on channel=0 note=66 velocity=65 time=0
note_on channel=0 note=54 velocity=48 time=0
control_change channel=0 control=64 value=0 time=13
control_change channel=0 control=64 value=127 time=50
note_on channel=0 note=54 velocity=0 time=57
note_on channel=0 note=62 velocity=35 time=0
note_on channel=0 note=62 velocity=0 time=120
note_on channel=0 note=59 velocity=38 time=0
note_on channel=0 note=59 velocity=0 time=120
note_on channel=0 note=62 velocity=38 time=0
note_on channel=0 note=66 velocity=0 time=110
note_on channel=0 note=62 velocity=0 time=0
note_on channel=0 note=66 velocity=71 time=0
note_on channel=0 note=54 velocity=53 time=0
control_change channel=0 control=64 value=0 time=7
control_change channel=0 control=64 value=127 time=142
note_on channel=0 note=66 velocity=0 time=0
note_on channel=0 note=62 velocity=65 time=0
note_on channel=0 note=62 velocity=0 time=0
note_on channel=0 note=59 velocity=71 time=0
note_on channel=0 note=59 velocity=0 time=240
note_on channel=0 note=55 velocity=65 time=0
note_on channel=0 note=54 velocity=0 time=230
note_on channel=0 note=55 velocity=0 time=0
note_on channel=0 note=54 velocity=70 time=0
note_on channel=0 note=42 velocity=57 time=0
note_on channel=0 note=30 velocity=48 time=0
note_on channel=0 note=54 velocity=0 time=0
note_on channel=0 note=58 velocity=76 time=0
note_on channel=0 note=58 velocity=0 time=0
note_on channel=0 note=30 velocity=0 time=0
note_on channel=0 note=42 velocity=0 time=0
note_on channel=0 note=59 velocity=80 time=0
note_on channel=0 note=47 velocity=93 time=0
note_on channel=0 note=35 velocity=79 time=0
control_change channel=0 control=64 value=0 time=0
note_on channel=0 note=35 velocity=0 time=120
note_on channel=0 note=47 velocity=0 time=0
note_on channel=0 note=49 velocity=81 time=120
note_on channel=0 note=37 velocity=69 time=0
note_on channel=0 note=37 velocity=0 time=120
note_on channel=0 note=49 velocity=0 time=0
note_on channel=0 note=59 velocity=0 time=0
note_on channel=0 note=50 velocity=81 time=0
note_on channel=0 note=38 velocity=69 time=0
note_on channel=0 note=38 velocity=0 time=120
note_on channel=0 note=50 velocity=0 time=0
note_on channel=0 note=52 velocity=88 time=0
note_on channel=0 note=40 velocity=72 time=0
note_on channel=0 note=40 velocity=0 time=120
note_on channel=0 note=52 velocity=0 time=0
note_on channel=0 note=54 velocity=94 time=0
note_on channel=0 note=42 velocity=80 time=0
note_on channel=0 note=59 velocity=79 time=0
note_on channel=0 note=55 velocity=67 time=0
control_change channel=0 control=64 value=127 time=374
note_on channel=0 note=55 velocity=0 time=0
note_on channel=0 note=54 velocity=0 time=0
note_on channel=0 note=42 velocity=0 time=0
note_on channel=0 note=59 velocity=0 time=0
note_on channel=0 note=60 velocity=34 time=0
note_on channel=0 note=55 velocity=28 time=0
note_on channel=0 note=40 velocity=37 time=0
note_on channel=0 note=52 velocity=44 time=0
control_change channel=0 control=64 value=0 time=8
control_change channel=0 control=64 value=127 time=232
note_on channel=0 note=60 velocity=0 time=720
note_on channel=0 note=67 velocity=39 time=0
note_on channel=0 note=55 velocity=0 time=0
note_on channel=0 note=52 velocity=0 time=0
note_on channel=0 note=40 velocity=0 time=0
note_on channel=0 note=64 velocity=27 time=0
note_on channel=0 note=58 velocity=27 time=0
note_on channel=0 note=61 velocity=27 time=0
note_on channel=0 note=54 velocity=43 time=0
note_on channel=0 note=42 velocity=36 time=0
control_change channel=0 control=64 value=0 time=9
control_change channel=0 control=64 value=127 time=285
note_on channel=0 note=67 velocity=0 time=0
note_on channel=0 note=66 velocity=33 time=0
control_change channel=0 control=64 value=0 time=17
note_on channel=0 note=66 velocity=0 time=453
note_on channel=0 note=42 velocity=0 time=0
note_on channel=0 note=61 velocity=0 time=0
note_on channel=0 note=64 velocity=0 time=0
note_on channel=0 note=58 velocity=0 time=0
note_on channel=0 note=54 velocity=0 time=0
note_on channel=0 note=66 velocity=40 time=0
note_on channel=0 note=62 velocity=34 time=0
note_on channel=0 note=59 velocity=34 time=0
note_on channel=0 note=47 velocity=93 time=0
note_on channel=0 note=35 velocity=79 time=0
note_on channel=0 note=35 velocity=0 time=120
note_on channel=0 note=47 velocity=0 time=0
note_on channel=0 note=49 velocity=81 time=120
note_on channel=0 note=37 velocity=69 time=0
note_on channel=0 note=37 velocity=0 time=120
note_on channel=0 note=49 velocity=0 time=0
note_on channel=0 note=59 velocity=0 time=0
note_on channel=0 note=62 velocity=0 time=0
note_on channel=0 note=66 velocity=0 time=0
note_on channel=0 note=50 velocity=81 time=0
note_on channel=0 note=38 velocity=69 time=0
note_on channel=0 note=38 velocity=0 time=120
note_on channel=0 note=50 velocity=0 time=0
note_on channel=0 note=52 velocity=88 time=0
note_on channel=0 note=40 velocity=72 time=0
note_on channel=0 note=40 velocity=0 time=120
note_on channel=0 note=52 velocity=0 time=0
note_on channel=0 note=54 velocity=94 time=0
note_on channel=0 note=42 velocity=80 time=0
note_on channel=0 note=59 velocity=79 time=0
note_on channel=0 note=55 velocity=67 time=0
control_change channel=0 control=64 value=127 time=294
note_on channel=0 note=55 velocity=0 time=0
note_on channel=0 note=54 velocity=0 time=0
note_on channel=0 note=42 velocity=0 time=0
note_on channel=0 note=59 velocity=0 time=0
note_on channel=0 note=60 velocity=34 time=0
note_on channel=0 note=55 velocity=28 time=0
note_on channel=0 note=40 velocity=37 time=0
note_on channel=0 note=52 velocity=44 time=0
control_change channel=0 control=64 value=0 time=13
control_change channel=0 control=64 value=127 time=281
note_on channel=0 note=60 velocity=0 time=666
note_on channel=0 note=67 velocity=39 time=0
note_on channel=0 note=55 velocity=0 time=0
note_on channel=0 note=52 velocity=0 time=0
note_on channel=0 note=40 velocity=0 time=0
note_on channel=0 note=64 velocity=27 time=0
note_on channel=0 note=58 velocity=27 time=0
note_on channel=0 note=61 velocity=27 time=0
note_on channel=0 note=42 velocity=24 time=0
note_on channel=0 note=54 velocity=29 time=0
control_change channel=0 control=64 value=0 time=12
control_change channel=0 control=64 value=127 time=308
note_on channel=0 note=67 velocity=0 time=0
note_on channel=0 note=66 velocity=33 time=0
note_on channel=0 note=66 velocity=0 time=470
note_on channel=0 note=54 velocity=0 time=10
note_on channel=0 note=61 velocity=0 time=0
note_on channel=0 note=64 velocity=0 time=0
note_on channel=0 note=58 velocity=0 time=0
note_on channel=0 note=42 velocity=0 time=0
control_change channel=0 control=64 value=0 time=12
note_on channel=0 note=67 velocity=39 time=27
control_change channel=0 control=64 value=127 time=187
note_on channel=0 note=59 velocity=24 time=0
note_on channel=0 note=62 velocity=24 time=0
note_on channel=0 note=47 velocity=23 time=0
note_on channel=0 note=35 velocity=19 time=0
note_on channel=0 note=67 velocity=0 time=987
note_on channel=0 note=66 velocity=33 time=0
note_on channel=0 note=47 velocity=0 time=453
note_on channel=0 note=35 velocity=0 time=0
note_on channel=0 note=59 velocity=0 time=0
note_on channel=0 note=62 velocity=0 time=0
control_change channel=0 control=64 value=0 time=0
note_on channel=0 note=66 velocity=0 time=27
note_on channel=0 note=67 velocity=39 time=960
control_change channel=0 control=64 value=127 time=187
note_on channel=0 note=61 velocity=24 time=0
note_on channel=0 note=64 velocity=24 time=0
note_on channel=0 note=42 velocity=23 time=0
note_on channel=0 note=30 velocity=19 time=0
note_on channel=0 note=70 velocity=33 time=0
note_on channel=0 note=67 velocity=0 time=27
note_on channel=0 note=64 velocity=0 time=0
note_on channel=0 note=42 velocity=0 time=0
note_on channel=0 note=61 velocity=0 time=0
note_on channel=0 note=70 velocity=0 time=0
note_on channel=0 note=30 velocity=0 time=0
note_on channel=0 note=59 velocity=28 time=0
note_on channel=0 note=62 velocity=28 time=0
note_on channel=0 note=71 velocity=33 time=0
note_on channel=0 note=35 velocity=19 time=0
note_on channel=0 note=47 velocity=23 time=0
control_change channel=0 control=64 value=0 time=4
control_change channel=0 control=64 value=127 time=236
note_on channel=0 note=47 velocity=0 time=240
note_on channel=0 note=71 velocity=0 time=0
note_on channel=0 note=59 velocity=0 time=0
note_on channel=0 note=62 velocity=0 time=0
note_on channel=0 note=35 velocity=0 time=0
control_change channel=0 control=64 value=0 time=107
note_on channel=0 note=59 velocity=28 time=853
note_on channel=0 note=62 velocity=28 time=0
note_on channel=0 note=71 velocity=33 time=0
note_on channel=0 note=35 velocity=19 time=0
note_on channel=0 note=47 velocity=23 time=0
control_change channel=0 control=64 value=127 time=0
note_on channel=0 note=47 velocity=0 time=480
note_on channel=0 note=71 velocity=0 time=0
note_on channel=0 note=59 velocity=0 time=0
note_on channel=0 note=62 velocity=0 time=0
note_on channel=0 note=35 velocity=0 time=0
control_change channel=0 control=64 value=0 time=27
note_on channel=0 note=59 velocity=28 time=933
note_on channel=0 note=62 velocity=28 time=0
note_on channel=0 note=71 velocity=33 time=0
note_on channel=0 note=35 velocity=19 time=0
note_on channel=0 note=47 velocity=23 time=0
control_change channel=0 control=64 value=127 time=0
note_on channel=0 note=47 velocity=0 time=480
note_on channel=0 note=71 velocity=0 time=0
note_on channel=0 note=59 velocity=0 time=0
note_on channel=0 note=62 velocity=0 time=0
note_on channel=0 note=35 velocity=0 time=0
control_change channel=0 control=64 value=0 time=14
note_on channel=0 note=71 velocity=33 time=946
control_change channel=0 control=64 value=127 time=294
note_on channel=0 note=71 velocity=0 time=1136
note_on channel=0 note=71 velocity=33 time=10
note_on channel=0 note=71 velocity=0 time=1430
note_on channel=0 note=71 velocity=33 time=0
note_on channel=0 note=71 velocity=0 time=950
note_on channel=0 note=81 velocity=42 time=0
note_on channel=0 note=71 velocity=34 time=0
note_on channel=0 note=69 velocity=30 time=0
note_on channel=0 note=66 velocity=25 time=0
control_change channel=0 control=64 value=0 time=8
note_on channel=0 note=66 velocity=0 time=112
note_on channel=0 note=81 velocity=0 time=0
note_on channel=0 note=71 velocity=0 time=0
note_on channel=0 note=69 velocity=0 time=0
note_on channel=0 note=71 velocity=33 time=120
note_on channel=0 note=71 velocity=0 time=120
note_on channel=0 note=71 velocity=34 time=0
note_on channel=0 note=81 velocity=46 time=0
note_on channel=0 note=66 velocity=28 time=0
note_on channel=0 note=69 velocity=34 time=0
note_on channel=0 note=71 velocity=0 time=120
control_change channel=0 control=64 value=127 time=50
note_on channel=0 note=71 velocity=30 time=70
note_on channel=0 note=71 velocity=0 time=120
note_on channel=0 note=69 velocity=0 time=120
note_on channel=0 note=66 velocity=0 time=0
note_on channel=0 note=71 velocity=30 time=0
note_on channel=0 note=71 velocity=0 time=120
note_on channel=0 note=81 velocity=0 time=120
note_on channel=0 note=71 velocity=30 time=0
note_on channel=0 note=79 velocity=42 time=0
note_on channel=0 note=71 velocity=0 time=120
note_on channel=0 note=79 velocity=0 time=0
note_on channel=0 note=71 velocity=30 time=0
note_on channel=0 note=78 velocity=37 time=0
note_on channel=0 note=69 velocity=31 time=0
note_on channel=0 note=66 velocity=26 time=0
control_change channel=0 control=64 value=0 time=78
note_on channel=0 note=66 velocity=0 time=42
note_on channel=0 note=71 velocity=0 time=0
note_on channel=0 note=78 velocity=0 time=0
note_on channel=0 note=69 velocity=0 time=0
note_on channel=0 note=71 velocity=30 time=0
note_on channel=0 note=71 velocity=0 time=120
note_on channel=0 note=71 velocity=34 time=0
note_on channel=0 note=83 velocity=46 time=0
note_on channel=0 note=79 velocity=46 time=0
note_on channel=0 note=64 velocity=28 time=0
note_on channel=0 note=67 velocity=34 time=0
note_on channel=0 note=71 velocity=0 time=120
note_on channel=0 note=83 velocity=0 time=120
note_on channel=0 note=79 velocity=0 time=0
note_on channel=0 note=71 velocity=30 time=0
note_on channel=0 note=71 velocity=0 time=120
note_on channel=0 note=64 velocity=0 time=120
note_on channel=0 note=67 velocity=0 time=0
note_on channel=0 note=71 velocity=30 time=0
note_on channel=0 note=71 velocity=0 time=120
note_on channel=0 note=71 velocity=30 time=120
note_on channel=0 note=71 velocity=0 time=120
note_on channel=0 note=71 velocity=30 time=120
note_on channel=0 note=83 velocity=40 time=0
note_on channel=0 note=79 velocity=22 time=0
note_on channel=0 note=67 velocity=31 time=0
note_on channel=0 note=64 velocity=26 time=0
note_on channel=0 note=71 velocity=0 time=120
note_on channel=0 note=71 velocity=30 time=120
note_on channel=0 note=71 velocity=0 time=120
note_on channel=0 note=64 velocity=0 time=120
note_on channel=0 note=83 velocity=0 time=0
note_on channel=0 note=79 velocity=0 time=0
note_on channel=0 note=67 velocity=0 time=0
note_on channel=0 note=71 velocity=34 time=0
note_on channel=0 note=83 velocity=46 time=0
note_on channel=0 note=80 velocity=27 time=0
note_on channel=0 note=62 velocity=28 time=0
note_on channel=0 note=65 velocity=34 time=0
control_change channel=0 control=64 value=127 time=64
note_on channel=0 note=71 velocity=0 time=56
note_on channel=0 note=71 velocity=30 time=120
note_on channel=0 note=71 velocity=0 time=120
note_on channel=0 note=65 velocity=0 time=120
note_on channel=0 note=62 velocity=0 time=0
note_on channel=0 note=71 velocity=30 time=0
note_on channel=0 note=71 velocity=0 time=120
note_on channel=0 note=80 velocity=0 time=120
note_on channel=0 note=83 velocity=0 time=0
note_on channel=0 note=71 velocity=30 time=0
note_on channel=0 note=81 velocity=40 time=0
note_on channel=0 note=71 velocity=0 time=120
note_on channel=0 note=81 velocity=0 time=0
note_on channel=0 note=71 velocity=30 time=0
note_on channel=0 note=83 velocity=37 time=0
note_on channel=0 note=80 velocity=24 time=0
note_on channel=0 note=65 velocity=30 time=0
note_on channel=0 note=62 velocity=25 time=0
control_change channel=0 control=64 value=0 time=17
note_on channel=0 note=71 velocity=0 time=103
note_on channel=0 note=65 velocity=0 time=0
note_on channel=0 note=83 velocity=0 time=0
note_on channel=0 note=80 velocity=0 time=0
note_on channel=0 note=62 velocity=0 time=0
note_on channel=0 note=71 velocity=30 time=0
note_on channel=0 note=71 velocity=0 time=120
note_on channel=0 note=72 velocity=34 time=0
note_on channel=0 note=81 velocity=46 time=0
note_on channel=0 note=84 velocity=25 time=0
note_on channel=0 note=60 velocity=28 time=0
note_on channel=0 note=64 velocity=34 time=0
note_on channel=0 note=64 velocity=0 time=240
note_on channel=0 note=60 velocity=0 time=0
note_on channel=0 note=64 velocity=30 time=0
note_on channel=0 note=64 velocity=0 time=120
note_on channel=0 note=84 velocity=0 time=120
note_on channel=0 note=81 velocity=0 time=0
note_on channel=0 note=72 velocity=0 time=0
note_on channel=0 note=64 velocity=30 time=0
note_on channel=0 note=64 velocity=0 time=120
note_on channel=0 note=64 velocity=30 time=120
note_on channel=0 note=64 velocity=0 time=120
note_on channel=0 note=72 velocity=48 time=0
note_on channel=0 note=84 velocity=48 time=0
note_on channel=0 note=64 velocity=39 time=0
note_on channel=0 note=64 velocity=0 time=120
note_on channel=0 note=84 velocity=0 time=0
note_on channel=0 note=72 velocity=0 time=0
note_on channel=0 note=64 velocity=37 time=0
note_on channel=0 note=64 velocity=0 time=120
note_on channel=0 note=72 velocity=54 time=0
note_on channel=0 note=84 velocity=54 time=0
note_on channel=0 note=64 velocity=40 time=0
note_on channel=0 note=57 velocity=33 time=0
note_on channel=0 note=60 velocity=40 time=0
note_on channel=0 note=64 velocity=0 time=120
control_change channel=0 control=64 value=127 time=50
note_on channel=0 note=64 velocity=36 time=70
note_on channel=0 note=64 velocity=0 time=120
note_on channel=0 note=60 velocity=0 time=120
note_on channel=0 note=57 velocity=0 time=0
note_on channel=0 note=64 velocity=37 time=0
note_on channel=0 note=64 velocity=0 time=120
note_on channel=0 note=84 velocity=0 time=120
note_on channel=0 note=72 velocity=0 time=0
note_on channel=0 note=71 velocity=54 time=0
note_on channel=0 note=83 velocity=54 time=0
note_on channel=0 note=64 velocity=38 time=0
note_on channel=0 note=64 velocity=0 time=120
note_on channel=0 note=83 velocity=0 time=0
note_on channel=0 note=71 velocity=0 time=0
note_on channel=0 note=69 velocity=48 time=0
note_on channel=0 note=81 velocity=48 time=0
note_on channel=0 note=64 velocity=39 time=0
note_on channel=0 note=60 velocity=41 time=0
note_on channel=0 note=57 velocity=34 time=0
control_change channel=0 control=64 value=0 time=78
note_on channel=0 note=57 velocity=0 time=42
note_on channel=0 note=64 velocity=0 time=0
note_on channel=0 note=69 velocity=0 time=0
note_on channel=0 note=81 velocity=0 time=0
note_on channel=0 note=60 velocity=0 time=0
note_on channel=0 note=64 velocity=40 time=0
note_on channel=0 note=64 velocity=0 time=120
note_on channel=0 note=86 velocity=64 time=0
note_on channel=0 note=74 velocity=64 time=0
note_on channel=0 note=65 velocity=47 time=0
note_on channel=0 note=56 velocity=38 time=0
note_on channel=0 note=59 velocity=47 time=0
note_on channel=0 note=65 velocity=0 time=120
note_on channel=0 note=86 velocity=0 time=120
note_on channel=0 note=74 velocity=0 time=0
note_on channel=0 note=65 velocity=42 time=0
note_on channel=0 note=65 velocity=0 time=120
note_on channel=0 note=56 velocity=0 time=120
note_on channel=0 note=59 velocity=0 time=0
note_on channel=0 note=65 velocity=43 time=0
note_on channel=0 note=65 velocity=0 time=120
note_on channel=0 note=65 velocity=45 time=120
note_on channel=0 note=65 velocity=0 time=120
note_on channel=0 note=74 velocity=64 time=0
note_on channel=0 note=86 velocity=64 time=0
note_on channel=0 note=56 velocity=47 time=0
note_on channel=0 note=59 velocity=47 time=0
note_on channel=0 note=65 velocity=52 time=0
note_on channel=0 note=65 velocity=0 time=120
note_on channel=0 note=56 velocity=0 time=0
note_on channel=0 note=74 velocity=0 time=0
note_on channel=0 note=86 velocity=0 time=0
note_on channel=0 note=59 velocity=0 time=0
note_on channel=0 note=65 velocity=50 time=0
note_on channel=0 note=65 velocity=0 time=120
note_on channel=0 note=74 velocity=73 time=0
note_on channel=0 note=86 velocity=73 time=0
note_on channel=0 note=65 velocity=53 time=0
note_on channel=0 note=56 velocity=45 time=0
note_on channel=0 note=58 velocity=53 time=0
control_change channel=0 control=64 value=127 time=108
note_on channel=0 note=65 velocity=0 time=12
note_on channel=0 note=65 velocity=49 time=120
note_on channel=0 note=65 velocity=0 time=120
note_on channel=0 note=58 velocity=0 time=120
note_on channel=0 note=56 velocity=0 time=0
note_on channel=0 note=65 velocity=49 time=0
note_on channel=0 note=65 velocity=0 time=120
note_on channel=0 note=86 velocity=0 time=120
note_on channel=0 note=74 velocity=0 time=0
note_on channel=0 note=72 velocity=69 time=0
note_on channel=0 note=84 velocity=69 time=0
note_on channel=0 note=65 velocity=50 time=0
note_on channel=0 note=65 velocity=0 time=120
note_on channel=0 note=84 velocity=0 time=0
note_on channel=0 note=72 velocity=0 time=0
note_on channel=0 note=74 velocity=64 time=0
note_on channel=0 note=86 velocity=64 time=0
note_on channel=0 note=65 velocity=51 time=0
note_on channel=0 note=58 velocity=53 time=0
note_on channel=0 note=56 velocity=44 time=0
control_change channel=0 control=64 value=0 time=78
note_on channel=0 note=56 velocity=0 time=42
note_on channel=0 note=65 velocity=0 time=0
note_on channel=0 note=74 velocity=0 time=0
note_on channel=0 note=86 velocity=0 time=0
note_on channel=0 note=58 velocity=0 time=0
note_on channel=0 note=65 velocity=52 time=0
note_on channel=0 note=65 velocity=0 time=120
note_on channel=0 note=75 velocity=81 time=0
note_on channel=0 note=87 velocity=97 time=0
note_on channel=0 note=55 velocity=56 time=0
note_on channel=0 note=58 velocity=56 time=0
note_on channel=0 note=63 velocity=67 time=0
control_change channel=0 control=64 value=127 time=35
note_on channel=0 note=63 velocity=0 time=85
note_on channel=0 note=55 velocity=0 time=0
note_on channel=0 note=58 velocity=0 time=0
note_on channel=0 note=63 velocity=61 time=120
note_on channel=0 note=58 velocity=51 time=0
note_on channel=0 note=55 velocity=51 time=0
note_on channel=0 note=55 velocity=0 time=120
note_on channel=0 note=63 velocity=0 time=0
note_on channel=0 note=58 velocity=0 time=0
note_on channel=0 note=63 velocity=61 time=120
note_on channel=0 note=58 velocity=51 time=0
note_on channel=0 note=55 velocity=51 time=0
note_on channel=0 note=55 velocity=0 time=120
note_on channel=0 note=63 velocity=0 time=0
note_on channel=0 note=58 velocity=0 time=0
note_on channel=0 note=87 velocity=0 time=120
note_on channel=0 note=75 velocity=0 time=0
note_on channel=0 note=74 velocity=62 time=0
note_on channel=0 note=86 velocity=74 time=0
note_on channel=0 note=63 velocity=61 time=0
note_on channel=0 note=58 velocity=51 time=0
note_on channel=0 note=55 velocity=51 time=0
note_on channel=0 note=55 velocity=0 time=120
note_on channel=0 note=63 velocity=0 time=0
note_on channel=0 note=58 velocity=0 time=0
note_on channel=0 note=86 velocity=0 time=0
note_on channel=0 note=74 velocity=0 time=0
note_on channel=0 note=87 velocity=84 time=0
note_on channel=0 note=75 velocity=71 time=0
note_on channel=0 note=63 velocity=61 time=0
note_on channel=0 note=58 velocity=51 time=0
note_on channel=0 note=55 velocity=51 time=0
control_change channel=0 control=64 value=0 time=19
note_on channel=0 note=55 velocity=0 time=101
note_on channel=0 note=63 velocity=0 time=0
note_on channel=0 note=58 velocity=0 time=0
note_on channel=0 note=75 velocity=0 time=0
note_on channel=0 note=87 velocity=0 time=0
note_on channel=0 note=63 velocity=61 time=0
note_on channel=0 note=58 velocity=51 time=0
note_on channel=0 note=55 velocity=51 time=0
note_on channel=0 note=55 velocity=0 time=120
note_on channel=0 note=58 velocity=0 time=0
note_on channel=0 note=63 velocity=0 time=0
note_on channel=0 note=63 velocity=89 time=0
note_on channel=0 note=54 velocity=56 time=0
note_on channel=0 note=58 velocity=56 time=0
control_change channel=0 control=64 value=127 time=35
note_on channel=0 note=58 velocity=0 time=85
note_on channel=0 note=54 velocity=0 time=0
note_on channel=0 note=58 velocity=51 time=120
note_on channel=0 note=54 velocity=51 time=0
note_on channel=0 note=54 velocity=0 time=120
note_on channel=0 note=58 velocity=0 time=0
note_on channel=0 note=58 velocity=51 time=120
note_on channel=0 note=54 velocity=51 time=0
note_on channel=0 note=54 velocity=0 time=120
note_on channel=0 note=58 velocity=0 time=0
note_on channel=0 note=63 velocity=0 time=120
note_on channel=0 note=62 velocity=62 time=0
note_on channel=0 note=58 velocity=51 time=0
note_on channel=0 note=54 velocity=51 time=0
note_on channel=0 note=54 velocity=0 time=120
note_on channel=0 note=58 velocity=0 time=0
note_on channel=0 note=62 velocity=0 time=0
note_on channel=0 note=63 velocity=71 time=0
note_on channel=0 note=58 velocity=51 time=0
note_on channel=0 note=54 velocity=51 time=0
control_change channel=0 control=64 value=0 time=19
note_on channel=0 note=54 velocity=0 time=101
note_on channel=0 note=58 velocity=0 time=0
note_on channel=0 note=63 velocity=0 time=0
note_on channel=0 note=58 velocity=52 time=0
note_on channel=0 note=54 velocity=52 time=0
note_on channel=0 note=54 velocity=0 time=120
note_on channel=0 note=58 velocity=0 time=0
note_on channel=0 note=63 velocity=75 time=0
note_on channel=0 note=51 velocity=47 time=0
note_on channel=0 note=54 velocity=57 time=0
note_on channel=0 note=66 velocity=90 time=6
control_change channel=0 control=64 value=127 time=29
note_on channel=0 note=54 velocity=0 time=85
note_on channel=0 note=51 velocity=0 time=0
note_on channel=0 note=54 velocity=52 time=120
note_on channel=0 note=51 velocity=43 time=0
note_on channel=0 note=51 velocity=0 time=120
note_on channel=0 note=54 velocity=0 time=0
note_on channel=0 note=54 velocity=52 time=120
note_on channel=0 note=51 velocity=44 time=0
note_on channel=0 note=51 velocity=0 time=120
note_on channel=0 note=54 velocity=0 time=0
note_on channel=0 note=63 velocity=0 time=120
note_on channel=0 note=65 velocity=63 time=0
note_on channel=0 note=62 velocity=53 time=0
note_on channel=0 note=54 velocity=52 time=0
note_on channel=0 note=51 velocity=44 time=0
note_on channel=0 note=66 velocity=0 time=6
note_on channel=0 note=54 velocity=0 time=114
note_on channel=0 note=51 velocity=0 time=0
note_on channel=0 note=62 velocity=0 time=0
note_on channel=0 note=65 velocity=0 time=0
note_on channel=0 note=66 velocity=73 time=0
note_on channel=0 note=63 velocity=62 time=0
note_on channel=0 note=54 velocity=53 time=0
note_on channel=0 note=51 velocity=44 time=0
control_change channel=0 control=64 value=0 time=19
note_on channel=0 note=51 velocity=0 time=101
note_on channel=0 note=54 velocity=0 time=0
note_on channel=0 note=63 velocity=0 time=0
note_on channel=0 note=66 velocity=0 time=0
note_on channel=0 note=54 velocity=53 time=0
note_on channel=0 note=51 velocity=44 time=0
note_on channel=0 note=51 velocity=0 time=120
note_on channel=0 note=54 velocity=0 time=0
note_on channel=0 note=78 velocity=92 time=0
note_on channel=0 note=75 velocity=78 time=0
note_on channel=0 note=51 velocity=58 time=0
note_on channel=0 note=48 velocity=49 time=6
control_change channel=0 control=64 value=127 time=29
note_on channel=0 note=51 velocity=0 time=85
note_on channel=0 note=48 velocity=0 time=6
note_on channel=0 note=51 velocity=53 time=114
note_on channel=0 note=48 velocity=45 time=0
note_on channel=0 note=48 velocity=0 time=120
note_on channel=0 note=51 velocity=0 time=0
note_on channel=0 note=51 velocity=53 time=120
note_on channel=0 note=48 velocity=45 time=0
note_on channel=0 note=48 velocity=0 time=120
note_on channel=0 note=51 velocity=0 time=0
note_on channel=0 note=75 velocity=0 time=120
note_on channel=0 note=78 velocity=0 time=0
note_on channel=0 note=77 velocity=65 time=0
note_on channel=0 note=74 velocity=55 time=0
note_on channel=0 note=51 velocity=54 time=0
note_on channel=0 note=48 velocity=45 time=0
note_on channel=0 note=48 velocity=0 time=120
note_on channel=0 note=51 velocity=0 time=0
note_on channel=0 note=74 velocity=0 time=0
note_on channel=0 note=77 velocity=0 time=0
note_on channel=0 note=78 velocity=75 time=0
note_on channel=0 note=75 velocity=63 time=0
note_on channel=0 note=51 velocity=54 time=0
note_on channel=0 note=48 velocity=45 time=0
control_change channel=0 control=64 value=0 time=19
note_on channel=0 note=48 velocity=0 time=101
note_on channel=0 note=51 velocity=0 time=0
note_on channel=0 note=75 velocity=0 time=0
note_on channel=0 note=78 velocity=0 time=0
note_on channel=0 note=51 velocity=54 time=0
note_on channel=0 note=48 velocity=46 time=0
note_on channel=0 note=48 velocity=0 time=120
note_on channel=0 note=51 velocity=0 time=0
note_on channel=0 note=84 velocity=94 time=0
note_on channel=0 note=72 velocity=79 time=0
note_on channel=0 note=45 velocity=50 time=0
note_on channel=0 note=48 velocity=59 time=0
control_change channel=0 control=64 value=127 time=35
note_on channel=0 note=48 velocity=0 time=85
note_on channel=0 note=45 velocity=0 time=0
note_on channel=0 note=48 velocity=54 time=120
note_on channel=0 note=45 velocity=46 time=0
note_on channel=0 note=45 velocity=0 time=120
note_on channel=0 note=48 velocity=0 time=0
note_on channel=0 note=48 velocity=55 time=120
note_on channel=0 note=45 velocity=46 time=0
note_on channel=0 note=45 velocity=0 time=120
note_on channel=0 note=48 velocity=0 time=0
note_on channel=0 note=72 velocity=0 time=120
note_on channel=0 note=84 velocity=0 time=0
note_on channel=0 note=83 velocity=66 time=0
note_on channel=0 note=71 velocity=56 time=0
note_on channel=0 note=48 velocity=55 time=0
note_on channel=0 note=45 velocity=46 time=0
note_on channel=0 note=45 velocity=0 time=120
note_on channel=0 note=48 velocity=0 time=0
note_on channel=0 note=71 velocity=0 time=0
note_on channel=0 note=83 velocity=0 time=0
note_on channel=0 note=84 velocity=77 time=0
note_on channel=0 note=72 velocity=65 time=0
note_on channel=0 note=48 velocity=55 time=0
note_on channel=0 note=45 velocity=46 time=0
control_change channel=0 control=64 value=0 time=19
note_on channel=0 note=45 velocity=0 time=101
note_on channel=0 note=48 velocity=0 time=0
note_on channel=0 note=72 velocity=0 time=0
note_on channel=0 note=84 velocity=0 time=0
note_on channel=0 note=48 velocity=55 time=0
note_on channel=0 note=45 velocity=46 time=0
note_on channel=0 note=45 velocity=0 time=120
note_on channel=0 note=48 velocity=0 time=0
note_on channel=0 note=57 velocity=97 time=0
note_on channel=0 note=42 velocity=61 time=0
note_on channel=0 note=45 velocity=61 time=0
note_on channel=0 note=48 velocity=61 time=0
control_change channel=0 control=64 value=127 time=35
note_on channel=0 note=48 velocity=0 time=85
note_on channel=0 note=45 velocity=0 time=0
note_on channel=0 note=42 velocity=0 time=0
note_on channel=0 note=42 velocity=56 time=120
note_on channel=0 note=48 velocity=56 time=0
note_on channel=0 note=45 velocity=56 time=0
note_on channel=0 note=45 velocity=0 time=120
note_on channel=0 note=48 velocity=0 time=0
note_on channel=0 note=42 velocity=0 time=0
note_on channel=0 note=42 velocity=56 time=120
note_on channel=0 note=48 velocity=56 time=0
note_on channel=0 note=45 velocity=56 time=0
note_on channel=0 note=45 velocity=0 time=120
note_on channel=0 note=48 velocity=0 time=0
note_on channel=0 note=42 velocity=0 time=0
note_on channel=0 note=57 velocity=0 time=120
note_on channel=0 note=56 velocity=68 time=0
note_on channel=0 note=42 velocity=56 time=0
note_on channel=0 note=48 velocity=56 time=0
note_on channel=0 note=45 velocity=56 time=0
note_on channel=0 note=45 velocity=0 time=120
note_on channel=0 note=48 velocity=0 time=0
note_on channel=0 note=42 velocity=0 time=0
note_on channel=0 note=56 velocity=0 time=0
note_on channel=0 note=57 velocity=78 time=0
note_on channel=0 note=42 velocity=56 time=0
note_on channel=0 note=48 velocity=56 time=0
note_on channel=0 note=45 velocity=56 time=0
control_change channel=0 control=64 value=0 time=19
note_on channel=0 note=45 velocity=0 time=101
note_on channel=0 note=48 velocity=0 time=0
note_on channel=0 note=42 velocity=0 time=0
note_on channel=0 note=57 velocity=0 time=0
note_on channel=0 note=42 velocity=57 time=0
note_on channel=0 note=48 velocity=57 time=0
note_on channel=0 note=45 velocity=57 time=0
note_on channel=0 note=45 velocity=0 time=120
note_on channel=0 note=48 velocity=0 time=0
note_on channel=0 note=42 velocity=0 time=0
note_on channel=0 note=90 velocity=99 time=0
note_on channel=0 note=78 velocity=82 time=0
note_on channel=0 note=39 velocity=52 time=0
note_on channel=0 note=42 velocity=52 time=0
note_on channel=0 note=45 velocity=52 time=0
note_on channel=0 note=48 velocity=62 time=0
control_change channel=0 control=64 value=127 time=35
note_on channel=0 note=48 velocity=0 time=85
note_on channel=0 note=42 velocity=0 time=0
note_on channel=0 note=39 velocity=0 time=0
note_on channel=0 note=45 velocity=0 time=0
note_on channel=0 note=39 velocity=48 time=120
note_on channel=0 note=42 velocity=48 time=0
note_on channel=0 note=48 velocity=57 time=0
note_on channel=0 note=45 velocity=48 time=0
note_on channel=0 note=45 velocity=0 time=120
note_on channel=0 note=42 velocity=0 time=0
note_on channel=0 note=39 velocity=0 time=0
note_on channel=0 note=48 velocity=0 time=0
note_on channel=0 note=39 velocity=48 time=120
note_on channel=0 note=42 velocity=48 time=0
note_on channel=0 note=48 velocity=57 time=0
note_on channel=0 note=45 velocity=48 time=0
note_on channel=0 note=45 velocity=0 time=120
note_on channel=0 note=42 velocity=0 time=0
note_on channel=0 note=39 velocity=0 time=0
note_on channel=0 note=48 velocity=0 time=0
note_on channel=0 note=90 velocity=0 time=120
note_on channel=0 note=78 velocity=0 time=0
note_on channel=0 note=89 velocity=70 time=0
note_on channel=0 note=77 velocity=58 time=0
note_on channel=0 note=39 velocity=48 time=0
note_on channel=0 note=42 velocity=48 time=0
note_on channel=0 note=48 velocity=57 time=0
note_on channel=0 note=45 velocity=48 time=0
note_on channel=0 note=45 velocity=0 time=120
note_on channel=0 note=42 velocity=0 time=0
note_on channel=0 note=39 velocity=0 time=0
note_on channel=0 note=48 velocity=0 time=0
note_on channel=0 note=89 velocity=0 time=0
note_on channel=0 note=77 velocity=0 time=0
note_on channel=0 note=90 velocity=80 time=0
note_on channel=0 note=78 velocity=68 time=0
note_on channel=0 note=39 velocity=49 time=0
note_on channel=0 note=42 velocity=49 time=0
note_on channel=0 note=48 velocity=58 time=0
note_on channel=0 note=45 velocity=49 time=0
control_change channel=0 control=64 value=0 time=19
note_on channel=0 note=45 velocity=0 time=101
note_on channel=0 note=42 velocity=0 time=0
note_on channel=0 note=39 velocity=0 time=0
note_on channel=0 note=48 velocity=0 time=0
note_on channel=0 note=90 velocity=0 time=0
note_on channel=0 note=78 velocity=0 time=0
note_on channel=0 note=39 velocity=49 time=0
note_on channel=0 note=42 velocity=49 time=0
note_on channel=0 note=48 velocity=58 time=0
note_on channel=0 note=45 velocity=49 time=0
note_on channel=0 note=45 velocity=0 time=120
note_on channel=0 note=39 velocity=0 time=0
note_on channel=0 note=42 velocity=0 time=0
note_on channel=0 note=48 velocity=0 time=0
note_on channel=0 note=66 velocity=71 time=0
note_on channel=0 note=72 velocity=85 time=0
note_on channel=0 note=69 velocity=71 time=0
note_on channel=0 note=38 velocity=54 time=0
note_on channel=0 note=42 velocity=54 time=0
note_on channel=0 note=45 velocity=54 time=0
note_on channel=0 note=48 velocity=64 time=0
control_change channel=0 control=64 value=127 time=35
note_on channel=0 note=48 velocity=0 time=85
note_on channel=0 note=42 velocity=0 time=0
note_on channel=0 note=38 velocity=0 time=0
note_on channel=0 note=45 velocity=0 time=0
note_on channel=0 note=38 velocity=49 time=120
note_on channel=0 note=42 velocity=49 time=0
note_on channel=0 note=48 velocity=58 time=0
note_on channel=0 note=45 velocity=49 time=0
note_on channel=0 note=45 velocity=0 time=120
note_on channel=0 note=42 velocity=0 time=0
note_on channel=0 note=38 velocity=0 time=0
note_on channel=0 note=48 velocity=0 time=0
note_on channel=0 note=38 velocity=49 time=120
note_on channel=0 note=42 velocity=49 time=0
note_on channel=0 note=48 velocity=58 time=0
note_on channel=0 note=45 velocity=49 time=0
note_on channel=0 note=45 velocity=0 time=120
note_on channel=0 note=42 velocity=0 time=0
note_on channel=0 note=38 velocity=0 time=0
note_on channel=0 note=48 velocity=0 time=0
note_on channel=0 note=69 velocity=0 time=120
note_on channel=0 note=72 velocity=0 time=0
note_on channel=0 note=66 velocity=0 time=0
note_on channel=0 note=66 velocity=59 time=0
note_on channel=0 note=71 velocity=71 time=0
note_on channel=0 note=69 velocity=59 time=0
note_on channel=0 note=38 velocity=49 time=0
note_on channel=0 note=42 velocity=49 time=0
note_on channel=0 note=48 velocity=58 time=0
note_on channel=0 note=45 velocity=49 time=0
note_on channel=0 note=45 velocity=0 time=120
note_on channel=0 note=42 velocity=0 time=0
note_on channel=0 note=38 velocity=0 time=0
note_on channel=0 note=48 velocity=0 time=0
note_on channel=0 note=66 velocity=0 time=0
note_on channel=0 note=69 velocity=0 time=0
note_on channel=0 note=71 velocity=0 time=0
note_on channel=0 note=66 velocity=69 time=0
note_on channel=0 note=72 velocity=81 time=0
note_on channel=0 note=69 velocity=69 time=0
note_on channel=0 note=38 velocity=49 time=0
note_on channel=0 note=42 velocity=49 time=0
note_on channel=0 note=48 velocity=58 time=0
note_on channel=0 note=45 velocity=49 time=0
control_change channel=0 control=64 value=0 time=19
note_on channel=0 note=45 velocity=0 time=101
note_on channel=0 note=42 velocity=0 time=0
note_on channel=0 note=38 velocity=0 time=0
note_on channel=0 note=48 velocity=0 time=0
note_on channel=0 note=66 velocity=0 time=0
note_on channel=0 note=69 velocity=0 time=0
note_on channel=0 note=72 velocity=0 time=0
note_on channel=0 note=38 velocity=49 time=0
note_on channel=0 note=42 velocity=49 time=0
note_on channel=0 note=48 velocity=58 time=0
note_on channel=0 note=45 velocity=49 time=0
note_on channel=0 note=45 velocity=0 time=120
note_on channel=0 note=38 velocity=0 time=0
note_on channel=0 note=42 velocity=0 time=0
note_on channel=0 note=48 velocity=0 time=0
note_on channel=0 note=71 velocity=93 time=120
note_on channel=0 note=68 velocity=80 time=0
note_on channel=0 note=65 velocity=80 time=0
note_on channel=0 note=43 velocity=73 time=0
note_on channel=0 note=31 velocity=57 time=0
control_change channel=0 control=64 value=127 time=57
note_on channel=0 note=31 velocity=0 time=63
note_on channel=0 note=43 velocity=0 time=0
note_on channel=0 note=31 velocity=54 time=0
note_on channel=0 note=43 velocity=64 time=0
note_on channel=0 note=43 velocity=0 time=120
note_on channel=0 note=31 velocity=0 time=0
note_on channel=0 note=65 velocity=0 time=120
note_on channel=0 note=68 velocity=0 time=0
note_on channel=0 note=71 velocity=0 time=0
note_on channel=0 note=43 velocity=69 time=0
note_on channel=0 note=31 velocity=54 time=0
note_on channel=0 note=31 velocity=0 time=120
note_on channel=0 note=43 velocity=0 time=0
control_change channel=0 control=64 value=0 time=50
note_on channel=0 note=69 velocity=32 time=0
note_on channel=0 note=71 velocity=32 time=0
note_on channel=0 note=77 velocity=45 time=0
note_on channel=0 note=77 velocity=0 time=120
note_on channel=0 note=71 velocity=0 time=0
note_on channel=0 note=69 velocity=0 time=0
note_on channel=0 note=67 velocity=32 time=0
note_on channel=0 note=72 velocity=32 time=0
note_on channel=0 note=76 velocity=45 time=0
note_on channel=0 note=76 velocity=0 time=120
note_on channel=0 note=72 velocity=0 time=0
note_on channel=0 note=67 velocity=0 time=0
note_on channel=0 note=75 velocity=52 time=360
note_on channel=0 note=69 velocity=37 time=0
note_on channel=0 note=66 velocity=37 time=0
note_on channel=0 note=43 velocity=31 time=240
note_on channel=0 note=31 velocity=22 time=0
control_change channel=0 control=64 value=127 time=57
note_on channel=0 note=31 velocity=0 time=63
note_on channel=0 note=43 velocity=0 time=0
note_on channel=0 note=75 velocity=0 time=120
note_on channel=0 note=69 velocity=0 time=0
note_on channel=0 note=66 velocity=0 time=0
note_on channel=0 note=31 velocity=24 time=0
note_on channel=0 note=43 velocity=35 time=0
note_on channel=0 note=43 velocity=0 time=120
note_on channel=0 note=31 velocity=0 time=0
control_change channel=0 control=64 value=0 time=12
note_on channel=0 note=66 velocity=32 time=0
note_on channel=0 note=69 velocity=32 time=0
note_on channel=0 note=75 velocity=45 time=0
note_on channel=0 note=75 velocity=0 time=120
note_on channel=0 note=69 velocity=0 time=0
note_on channel=0 note=66 velocity=0 time=0
note_on channel=0 note=65 velocity=32 time=0
note_on channel=0 note=71 velocity=32 time=0
note_on channel=0 note=74 velocity=45 time=0
note_on channel=0 note=74 velocity=0 time=120
note_on channel=0 note=71 velocity=0 time=0
note_on channel=0 note=65 velocity=0 time=0
note_on channel=0 note=73 velocity=50 time=360
note_on channel=0 note=67 velocity=35 time=0
note_on channel=0 note=64 velocity=35 time=0
note_on channel=0 note=43 velocity=31 time=240
note_on channel=0 note=31 velocity=22 time=0
control_change channel=0 control=64 value=127 time=80
note_on channel=0 note=31 velocity=0 time=40
note_on channel=0 note=43 velocity=0 time=0
note_on channel=0 note=73 velocity=0 time=120
note_on channel=0 note=67 velocity=0 time=0
note_on channel=0 note=64 velocity=0 time=0
note_on channel=0 note=31 velocity=24 time=0
note_on channel=0 note=43 velocity=35 time=0
control_change channel=0 control=64 value=0 time=40
note_on channel=0 note=43 velocity=0 time=80
note_on channel=0 note=31 velocity=0 time=0
note_on channel=0 note=63 velocity=32 time=0
note_on channel=0 note=67 velocity=32 time=0
note_on channel=0 note=72 velocity=45 time=0
note_on channel=0 note=72 velocity=0 time=120
note_on channel=0 note=67 velocity=0 time=0
note_on channel=0 note=63 velocity=0 time=0
note_on channel=0 note=62 velocity=32 time=0
note_on channel=0 note=67 velocity=32 time=0
note_on channel=0 note=71 velocity=45 time=0
note_on channel=0 note=71 velocity=0 time=120
note_on channel=0 note=67 velocity=0 time=0
note_on channel=0 note=62 velocity=0 time=0
note_on channel=0 note=61 velocity=42 time=8
note_on channel=0 note=64 velocity=42 time=0
note_on channel=0 note=70 velocity=50 time=0
note_on channel=0 note=70 velocity=0 time=120
note_on channel=0 note=64 velocity=0 time=0
note_on channel=0 note=61 velocity=0 time=0
note_on channel=0 note=31 velocity=26 time=120
note_on channel=0 note=43 velocity=31 time=0
note_on channel=0 note=43 velocity=0 time=68
note_on channel=0 note=31 velocity=0 time=0
note_on channel=0 note=60 velocity=42 time=120
note_on channel=0 note=64 velocity=42 time=0
note_on channel=0 note=69 velocity=50 time=0
note_on channel=0 note=69 velocity=0 time=8
note_on channel=0 note=64 velocity=0 time=0
note_on channel=0 note=60 velocity=0 time=0
note_on channel=0 note=31 velocity=26 time=120
note_on channel=0 note=43 velocity=31 time=0
note_on channel=0 note=43 velocity=0 time=120
note_on channel=0 note=31 velocity=0 time=0
note_on channel=0 note=60 velocity=42 time=68
note_on channel=0 note=63 velocity=42 time=0
note_on channel=0 note=68 velocity=50 time=0
note_on channel=0 note=68 velocity=0 time=120
note_on channel=0 note=63 velocity=0 time=0
note_on channel=0 note=60 velocity=0 time=0
note_on channel=0 note=31 velocity=26 time=8
note_on channel=0 note=43 velocity=31 time=0
note_on channel=0 note=43 velocity=0 time=120
note_on channel=0 note=31 velocity=0 time=0
note_on channel=0 note=67 velocity=54 time=120
note_on channel=0 note=67 velocity=0 time=98
note_on channel=0 note=43 velocity=34 time=120
note_on channel=0 note=31 velocity=28 time=0
note_on channel=0 note=31 velocity=0 time=38
note_on channel=0 note=43 velocity=0 time=0
note_on channel=0 note=66 velocity=55 time=120
note_on channel=0 note=66 velocity=0 time=120
note_on channel=0 note=45 velocity=38 time=98
note_on channel=0 note=33 velocity=32 time=0
note_on channel=0 note=33 velocity=0 time=120
note_on channel=0 note=45 velocity=0 time=0
note_on channel=0 note=65 velocity=58 time=38
note_on channel=0 note=65 velocity=0 time=120
note_on channel=0 note=47 velocity=39 time=120
note_on channel=0 note=35 velocity=33 time=0
note_on channel=0 note=35 velocity=0 time=98
note_on channel=0 note=47 velocity=0 time=0
note_on channel=0 note=64 velocity=60 time=120
note_on channel=0 note=64 velocity=0 time=68
note_on channel=0 note=48 velocity=39 time=120
note_on channel=0 note=36 velocity=33 time=0
note_on channel=0 note=36 velocity=0 time=120
note_on channel=0 note=48 velocity=0 time=0
note_on channel=0 note=63 velocity=60 time=120
note_on channel=0 note=63 velocity=0 time=120
note_on channel=0 note=37 velocity=34 time=120
note_on channel=0 note=49 velocity=40 time=0
note_on channel=0 note=49 velocity=0 time=117
note_on channel=0 note=37 velocity=0 time=0
note_on channel=0 note=62 velocity=60 time=120
note_on channel=0 note=62 velocity=0 time=120
note_on channel=0 note=38 velocity=34 time=120
note_on channel=0 note=50 velocity=41 time=0
note_on channel=0 note=50 velocity=0 time=120
note_on channel=0 note=38 velocity=0 time=0
note_on channel=0 note=61 velocity=60 time=120
note_on channel=0 note=61 velocity=0 time=117
note_on channel=0 note=39 velocity=35 time=57
note_on channel=0 note=51 velocity=42 time=0
note_on channel=0 note=51 velocity=0 time=27
note_on channel=0 note=39 velocity=0 time=0
note_on channel=0 note=60 velocity=64 time=120
note_on channel=0 note=60 velocity=0 time=117
note_on channel=0 note=40 velocity=39 time=87
note_on channel=0 note=52 velocity=46 time=0
note_on channel=0 note=52 velocity=0 time=57
note_on channel=0 note=40 velocity=0 time=0
note_on channel=0 note=59 velocity=68 time=27
note_on channel=0 note=59 velocity=0 time=120
note_on channel=0 note=41 velocity=40 time=117
note_on channel=0 note=53 velocity=48 time=0
note_on channel=0 note=53 velocity=0 time=87
note_on channel=0 note=41 velocity=0 time=0
note_on channel=0 note=58 velocity=63 time=57
note_on channel=0 note=58 velocity=0 time=57
note_on channel=0 note=54 velocity=35 time=120
note_on channel=0 note=42 velocity=29 time=0
note_on channel=0 note=42 velocity=0 time=120
note_on channel=0 note=54 velocity=0 time=0
note_on channel=0 note=57 velocity=50 time=0
note_on channel=0 note=57 velocity=0 time=120
note_on channel=0 note=55 velocity=30 time=120
note_on channel=0 note=43 velocity=25 time=0
note_on channel=0 note=43 velocity=0 time=120
note_on channel=0 note=55 velocity=0 time=0
note_on channel=0 note=56 velocity=46 time=0
note_on channel=0 note=56 velocity=0 time=120
note_on channel=0 note=55 velocity=26 time=0
note_on channel=0 note=43 velocity=22 time=0
note_on channel=0 note=43 velocity=0 time=120
note_on channel=0 note=55 velocity=0 time=0
note_on channel=0 note=56 velocity=42 time=0
note_on channel=0 note=56 velocity=0 time=0
note_on channel=0 note=55 velocity=33 time=0
note_on channel=0 note=55 velocity=0 time=0
note_on channel=0 note=67 velocity=43 time=0
note_on channel=0 note=65 velocity=26 time=0
note_on channel=0 note=65 velocity=0 time=950
note_on channel=0 note=67 velocity=0 time=0
note_on channel=0 note=67 velocity=43 time=10
note_on channel=0 note=59 velocity=26 time=0
note_on channel=0 note=65 velocity=26 time=0
note_on channel=0 note=65 velocity=0 time=0
note_on channel=0 note=59 velocity=0 time=0
note_on channel=0 note=60 velocity=33 time=0
note_on channel=0 note=64 velocity=33 time=0
note_on channel=0 note=64 velocity=0 time=0
note_on channel=0 note=60 velocity=0 time=0
note_on channel=0 note=67 velocity=0 time=0
note_on channel=0 note=72 velocity=48 time=0
note_on channel=0 note=60 velocity=26 time=0
note_on channel=0 note=60 velocity=0 time=0
note_on channel=0 note=72 velocity=0 time=0
note_on channel=0 note=69 velocity=43 time=0
note_on channel=0 note=61 velocity=26 time=0
note_on channel=0 note=61 velocity=0 time=0
note_on channel=0 note=69 velocity=0 time=0
note_on channel=0 note=67 velocity=47 time=0
note_on channel=0 note=62 velocity=33 time=0
note_on channel=0 note=62 velocity=0 time=0
note_on channel=0 note=67 velocity=0 time=0
note_on channel=0 note=65 velocity=43 time=0
note_on channel=0 note=57 velocity=26 time=0
note_on channel=0 note=65 velocity=0 time=470
note_on channel=0 note=57 velocity=0 time=10
note_on channel=0 note=65 velocity=45 time=0
note_on channel=0 note=58 velocity=26 time=0
note_on channel=0 note=58 velocity=0 time=470
note_on channel=0 note=59 velocity=32 time=0
note_on channel=0 note=59 velocity=0 time=0
note_on channel=0 note=65 velocity=0 time=0
note_on channel=0 note=74 velocity=52 time=0
note_on channel=0 note=55 velocity=26 time=0
note_on channel=0 note=55 velocity=0 time=0
note_on channel=0 note=74 velocity=0 time=0
note_on channel=0 note=65 velocity=46 time=0
note_on channel=0 note=62 velocity=26 time=0
note_on channel=0 note=62 velocity=0 time=0
note_on channel=0 note=61 velocity=31 time=0
note_on channel=0 note=61 velocity=0 time=0
note_on channel=0 note=65 velocity=0 time=0
note_on channel=0 note=64 velocity=43 time=0
note_on channel=0 note=60 velocity=26 time=0
note_on channel=0 note=60 velocity=0 time=450
note_on channel=0 note=64 velocity=0 time=0
note_on channel=0 note=64 velocity=36 time=30
note_on channel=0 note=58 velocity=26 time=0
note_on channel=0 note=60 velocity=26 time=0
control_change channel=0 control=64 value=127 time=64
note_on channel=0 note=64 velocity=0 time=56
note_on channel=0 note=67 velocity=31 time=0
note_on channel=0 note=67 velocity=0 time=120
note_on channel=0 note=72 velocity=32 time=0
note_on channel=0 note=72 velocity=0 time=120
note_on channel=0 note=76 velocity=31 time=0
note_on channel=0 note=76 velocity=0 time=0
note_on channel=0 note=58 velocity=0 time=0
note_on channel=0 note=77 velocity=39 time=0
note_on channel=0 note=57 velocity=43 time=0
control_change channel=0 control=64 value=0 time=11
control_change channel=0 control=64 value=127 time=52
note_on channel=0 note=77 velocity=0 time=57
note_on channel=0 note=72 velocity=38 time=0
note_on channel=0 note=72 velocity=0 time=120
note_on channel=0 note=69 velocity=41 time=0
note_on channel=0 note=69 velocity=0 time=120
note_on channel=0 note=65 velocity=47 time=0
note_on channel=0 note=65 velocity=0 time=0
note_on channel=0 note=57 velocity=0 time=0
note_on channel=0 note=60 velocity=0 time=0
note_on channel=0 note=69 velocity=52 time=0
note_on channel=0 note=65 velocity=48 time=0
note_on channel=0 note=53 velocity=48 time=0
note_on channel=0 note=69 velocity=0 time=120
note_on channel=0 note=72 velocity=41 time=0
note_on channel=0 note=72 velocity=0 time=120
note_on channel=0 note=77 velocity=37 time=0
note_on channel=0 note=77 velocity=0 time=120
note_on channel=0 note=81 velocity=35 time=0
note_on channel=0 note=81 velocity=0 time=110
note_on channel=0 note=53 velocity=0 time=0
note_on channel=0 note=65 velocity=0 time=0
note_on channel=0 note=81 velocity=38 time=0
note_on channel=0 note=62 velocity=42 time=0
note_on channel=0 note=54 velocity=42 time=0
control_change channel=0 control=64 value=0 time=11
control_change channel=0 control=64 value=127 time=69
note_on channel=0 note=81 velocity=0 time=40
note_on channel=0 note=74 velocity=32 time=0
note_on channel=0 note=74 velocity=0 time=120
note_on channel=0 note=81 velocity=35 time=0
note_on channel=0 note=81 velocity=0 time=120
note_on channel=0 note=86 velocity=35 time=0
note_on channel=0 note=86 velocity=0 time=0
note_on channel=0 note=54 velocity=0 time=0
note_on channel=0 note=62 velocity=0 time=0
note_on channel=0 note=81 velocity=39 time=0
note_on channel=0 note=60 velocity=47 time=0
note_on channel=0 note=55 velocity=47 time=0
control_change channel=0 control=64 value=0 time=8
control_change channel=0 control=64 value=127 time=78
note_on channel=0 note=81 velocity=0 time=34
note_on channel=0 note=74 velocity=34 time=0
note_on channel=0 note=74 velocity=0 time=120
note_on channel=0 note=81 velocity=41 time=0
note_on channel=0 note=81 velocity=0 time=120
note_on channel=0 note=82 velocity=48 time=0
note_on channel=0 note=82 velocity=0 time=120
note_on channel=0 note=55 velocity=0 time=0
note_on channel=0 note=60 velocity=0 time=0
note_on channel=0 note=79 velocity=52 time=0
note_on channel=0 note=58 velocity=47 time=0
note_on channel=0 note=50 velocity=47 time=0
control_change channel=0 control=64 value=0 time=15
control_change channel=0 control=64 value=127 time=88
note_on channel=0 note=79 velocity=0 time=17
note_on channel=0 note=74 velocity=41 time=0
note_on channel=0 note=74 velocity=0 time=120
note_on channel=0 note=79 velocity=37 time=0
note_on channel=0 note=79 velocity=0 time=120
note_on channel=0 note=82 velocity=34 time=0
note_on channel=0 note=50 velocity=0 time=110
note_on channel=0 note=58 velocity=0 time=0
note_on channel=0 note=82 velocity=0 time=10
note_on channel=0 note=79 velocity=38 time=0
note_on channel=0 note=53 velocity=43 time=0
note_on channel=0 note=58 velocity=43 time=0
control_change channel=0 control=64 value=0 time=13
control_change channel=0 control=64 value=127 time=56
note_on channel=0 note=79 velocity=0 time=51
note_on channel=0 note=73 velocity=32 time=0
note_on channel=0 note=73 velocity=0 time=120
note_on channel=0 note=79 velocity=35 time=0
note_on channel=0 note=79 velocity=0 time=120
note_on channel=0 note=82 velocity=35 time=0
note_on channel=0 note=82 velocity=0 time=0
note_on channel=0 note=53 velocity=0 time=0
note_on channel=0 note=79 velocity=39 time=0
note_on channel=0 note=52 velocity=41 time=0
control_change channel=0 control=64 value=0 time=21
control_change channel=0 control=64 value=127 time=42
note_on channel=0 note=79 velocity=0 time=57
note_on channel=0 note=72 velocity=38 time=0
note_on channel=0 note=72 velocity=0 time=120
note_on channel=0 note=79 velocity=40 time=0
note_on channel=0 note=79 velocity=0 time=120
note_on channel=0 note=82 velocity=47 time=0
note_on channel=0 note=82 velocity=0 time=0
note_on channel=0 note=52 velocity=0 time=0
note_on channel=0 note=58 velocity=0 time=0
note_on channel=0 note=76 velocity=54 time=0
note_on channel=0 note=67 velocity=51 time=0
control_change channel=0 control=64 value=0 time=15
control_change channel=0 control=64 value=127 time=54
note_on channel=0 note=76 velocity=0 time=51
note_on channel=0 note=72 velocity=47 time=0
note_on channel=0 note=72 velocity=0 time=120
note_on channel=0 note=76 velocity=45 time=0
note_on channel=0 note=76 velocity=0 time=120
note_on channel=0 note=79 velocity=39 time=0
note_on channel=0 note=79 velocity=0 time=110
note_on channel=0 note=67 velocity=0 time=10
note_on channel=0 note=79 velocity=38 time=0
note_on channel=0 note=48 velocity=44 time=0
note_on channel=0 note=58 velocity=44 time=0
note_on channel=0 note=79 velocity=0 time=120
note_on channel=0 note=76 velocity=32 time=0
note_on channel=0 note=76 velocity=0 time=120
note_on channel=0 note=79 velocity=35 time=0
note_on channel=0 note=79 velocity=0 time=120
note_on channel=0 note=84 velocity=35 time=0
note_on channel=0 note=84 velocity=0 time=0
note_on channel=0 note=48 velocity=0 time=0
note_on channel=0 note=79 velocity=39 time=0
note_on channel=0 note=53 velocity=49 time=0
control_change channel=0 control=64 value=0 time=29
control_change channel=0 control=64 value=127 time=17
note_on channel=0 note=79 velocity=0 time=74
note_on channel=0 note=76 velocity=35 time=0
note_on channel=0 note=76 velocity=0 time=120
note_on channel=0 note=79 velocity=36 time=0
note_on channel=0 note=79 velocity=0 time=120
note_on channel=0 note=84 velocity=41 time=0
note_on channel=0 note=84 velocity=0 time=0
note_on channel=0 note=53 velocity=0 time=0
note_on channel=0 note=58 velocity=0 time=0
note_on channel=0 note=81 velocity=46 time=0
note_on channel=0 note=53 velocity=44 time=0
note_on channel=0 note=57 velocity=44 time=0
control_change channel=0 control=64 value=0 time=19
control_change channel=0 control=64 value=127 time=56
note_on channel=0 note=81 velocity=0 time=45
note_on channel=0 note=77 velocity=32 time=0
note_on channel=0 note=77 velocity=0 time=120
note_on channel=0 note=81 velocity=32 time=0
note_on channel=0 note=81 velocity=0 time=120
note_on channel=0 note=84 velocity=32 time=0
note_on channel=0 note=84 velocity=0 time=120
note_on channel=0 note=57 velocity=0 time=0
note_on channel=0 note=53 velocity=0 time=0
note_on channel=0 note=81 velocity=38 time=0
note_on channel=0 note=45 velocity=50 time=0
note_on channel=0 note=81 velocity=0 time=120
note_on channel=0 note=77 velocity=32 time=0
note_on channel=0 note=77 velocity=0 time=120
note_on channel=0 note=81 velocity=35 time=0
note_on channel=0 note=81 velocity=0 time=120
note_on channel=0 note=84 velocity=35 time=0
note_on channel=0 note=84 velocity=0 time=0
note_on channel=0 note=81 velocity=46 time=0
control_change channel=0 control=64 value=0 time=6
control_change channel=0 control=64 value=127 time=57
note_on channel=0 note=81 velocity=0 time=57
note_on channel=0 note=77 velocity=37 time=0
note_on channel=0 note=77 velocity=0 time=120
note_on channel=0 note=81 velocity=38 time=0
note_on channel=0 note=81 velocity=0 time=120
note_on channel=0 note=86 velocity=37 time=0
note_on channel=0 note=86 velocity=0 time=0
note_on channel=0 note=45 velocity=0 time=0
note_on channel=0 note=81 velocity=45 time=0
note_on channel=0 note=50 velocity=56 time=0
note_on channel=0 note=81 velocity=0 time=120
note_on channel=0 note=77 velocity=38 time=0
note_on channel=0 note=77 velocity=0 time=120
note_on channel=0 note=81 velocity=38 time=0
note_on channel=0 note=81 velocity=0 time=120
note_on channel=0 note=86 velocity=38 time=0
note_on channel=0 note=86 velocity=0 time=0
note_on channel=0 note=50 velocity=0 time=0
note_on channel=0 note=82 velocity=45 time=0
note_on channel=0 note=46 velocity=48 time=0
control_change channel=0 control=64 value=0 time=17
control_change channel=0 control=64 value=127 time=63
note_on channel=0 note=82 velocity=0 time=40
note_on channel=0 note=77 velocity=39 time=0
note_on channel=0 note=77 velocity=0 time=120
note_on channel=0 note=82 velocity=43 time=0
note_on channel=0 note=82 velocity=0 time=120
note_on channel=0 note=86 velocity=43 time=0
note_on channel=0 note=86 velocity=0 time=0
note_on channel=0 note=46 velocity=0 time=0
note_on channel=0 note=83 velocity=47 time=0
note_on channel=0 note=45 velocity=58 time=0
control_change channel=0 control=64 value=0 time=8
control_change channel=0 control=64 value=127 time=70
note_on channel=0 note=83 velocity=0 time=42
note_on channel=0 note=77 velocity=38 time=0
note_on channel=0 note=77 velocity=0 time=120
note_on channel=0 note=83 velocity=39 time=0
note_on channel=0 note=83 velocity=0 time=120
note_on channel=0 note=86 velocity=38 time=0
note_on channel=0 note=86 velocity=0 time=0
note_on channel=0 note=45 velocity=0 time=0
note_on channel=0 note=83 velocity=47 time=0
note_on channel=0 note=44 velocity=50 time=0
control_change channel=0 control=64 value=0 time=13
control_change channel=0 control=64 value=127 time=65
note_on channel=0 note=83 velocity=0 time=42
note_on channel=0 note=76 velocity=39 time=0
note_on channel=0 note=76 velocity=0 time=120
note_on channel=0 note=83 velocity=40 time=0
note_on channel=0 note=83 velocity=0 time=120
note_on channel=0 note=86 velocity=40 time=0
note_on channel=0 note=44 velocity=0 time=110
note_on channel=0 note=86 velocity=0 time=10
note_on channel=0 note=83 velocity=47 time=0
note_on channel=0 note=44 velocity=58 time=0
note_on channel=0 note=83 velocity=0 time=120
note_on channel=0 note=76 velocity=40 time=0
note_on channel=0 note=76 velocity=0 time=120
note_on channel=0 note=83 velocity=45 time=0
note_on channel=0 note=83 velocity=0 time=120
note_on channel=0 note=86 velocity=45 time=0
note_on channel=0 note=86 velocity=0 time=0
note_on channel=0 note=83 velocity=50 time=0
note_on channel=0 note=83 velocity=0 time=120
note_on channel=0 note=76 velocity=40 time=0
note_on channel=0 note=76 velocity=0 time=120
note_on channel=0 note=83 velocity=42 time=0
note_on channel=0 note=83 velocity=0 time=120
note_on channel=0 note=86 velocity=41 time=0
note_on channel=0 note=86 velocity=0 time=0
note_on channel=0 note=44 velocity=0 time=0
note_on channel=0 note=83 velocity=50 time=0
note_on channel=0 note=52 velocity=57 time=0
note_on channel=0 note=83 velocity=0 time=120
note_on channel=0 note=76 velocity=42 time=0
note_on channel=0 note=76 velocity=0 time=120
note_on channel=0 note=83 velocity=42 time=0
note_on channel=0 note=83 velocity=0 time=120
note_on channel=0 note=86 velocity=42 time=0
note_on channel=0 note=86 velocity=0 time=0
note_on channel=0 note=83 velocity=50 time=0
note_on channel=0 note=44 velocity=50 time=0
note_on channel=0 note=83 velocity=0 time=120
note_on channel=0 note=76 velocity=43 time=0
note_on channel=0 note=76 velocity=0 time=120
note_on channel=0 note=83 velocity=47 time=0
note_on channel=0 note=83 velocity=0 time=120
note_on channel=0 note=86 velocity=48 time=0
note_on channel=0 note=86 velocity=0 time=0
note_on channel=0 note=44 velocity=0 time=0
note_on channel=0 note=52 velocity=0 time=0
note_on channel=0 note=83 velocity=53 time=0
note_on channel=0 note=45 velocity=55 time=0
control_change channel=0 control=64 value=0 time=7
control_change channel=0 control=64 value=127 time=64
note_on channel=0 note=83 velocity=0 time=49
note_on channel=0 note=76 velocity=44 time=0
note_on channel=0 note=76 velocity=0 time=120
note_on channel=0 note=83 velocity=51 time=0
note_on channel=0 note=83 velocity=0 time=120
note_on channel=0 note=84 velocity=55 time=0
note_on channel=0 note=84 velocity=0 time=0
note_on channel=0 note=45 velocity=0 time=0
note_on channel=0 note=81 velocity=52 time=0
note_on channel=0 note=52 velocity=59 time=0
control_change channel=0 control=64 value=0 time=19
control_change channel=0 control=64 value=127 time=66
note_on channel=0 note=81 velocity=0 time=35
note_on channel=0 note=76 velocity=50 time=0
note_on channel=0 note=76 velocity=0 time=120
note_on channel=0 note=81 velocity=48 time=0
note_on channel=0 note=81 velocity=0 time=120
note_on channel=0 note=84 velocity=47 time=0
note_on channel=0 note=84 velocity=0 time=120
note_on channel=0 note=81 velocity=54 time=0
note_on channel=0 note=45 velocity=51 time=0
note_on channel=0 note=81 velocity=0 time=120
note_on channel=0 note=76 velocity=45 time=0
note_on channel=0 note=76 velocity=0 time=120
note_on channel=0 note=81 velocity=50 time=0
note_on channel=0 note=81 velocity=0 time=120
note_on channel=0 note=84 velocity=48 time=0
note_on channel=0 note=84 velocity=0 time=0
note_on channel=0 note=45 velocity=0 time=0
note_on channel=0 note=52 velocity=0 time=0
note_on channel=0 note=81 velocity=56 time=0
note_on channel=0 note=47 velocity=56 time=0
control_change channel=0 control=64 value=0 time=6
control_change channel=0 control=64 value=127 time=57
note_on channel=0 note=81 velocity=0 time=57
note_on channel=0 note=74 velocity=48 time=0
note_on channel=0 note=74 velocity=0 time=120
note_on channel=0 note=81 velocity=55 time=0
note_on channel=0 note=81 velocity=0 time=120
note_on channel=0 note=83 velocity=56 time=0
note_on channel=0 note=83 velocity=0 time=0
note_on channel=0 note=47 velocity=0 time=0
note_on channel=0 note=80 velocity=59 time=0
note_on channel=0 note=52 velocity=62 time=0
control_change channel=0 control=64 value=0 time=19
control_change channel=0 control=64 value=127 time=44
note_on channel=0 note=80 velocity=0 time=57
note_on channel=0 note=74 velocity=52 time=0
note_on channel=0 note=74 velocity=0 time=120
note_on channel=0 note=80 velocity=51 time=0
note_on channel=0 note=80 velocity=0 time=120
note_on channel=0 note=83 velocity=48 time=0
note_on channel=0 note=83 velocity=0 time=120
note_on channel=0 note=80 velocity=56 time=0
note_on channel=0 note=47 velocity=57 time=0
note_on channel=0 note=80 velocity=0 time=120
note_on channel=0 note=74 velocity=48 time=0
note_on channel=0 note=74 velocity=0 time=120
note_on channel=0 note=80 velocity=54 time=0
note_on channel=0 note=80 velocity=0 time=120
note_on channel=0 note=83 velocity=51 time=0
note_on channel=0 note=83 velocity=0 time=0
note_on channel=0 note=47 velocity=0 time=0
note_on channel=0 note=52 velocity=0 time=0
note_on channel=0 note=80 velocity=59 time=0
note_on channel=0 note=48 velocity=61 time=0
control_change channel=0 control=64 value=0 time=6
control_change channel=0 control=64 value=127 time=63
note_on channel=0 note=80 velocity=0 time=51
note_on channel=0 note=72 velocity=56 time=0
note_on channel=0 note=72 velocity=0 time=120
note_on channel=0 note=80 velocity=58 time=0
note_on channel=0 note=80 velocity=0 time=120
note_on channel=0 note=83 velocity=60 time=0
note_on channel=0 note=83 velocity=0 time=0
note_on channel=0 note=48 velocity=0 time=0
note_on channel=0 note=80 velocity=61 time=0
note_on channel=0 note=52 velocity=68 time=0
note_on channel=0 note=80 velocity=0 time=120
note_on channel=0 note=81 velocity=54 time=0
note_on channel=0 note=81 velocity=0 time=120
note_on channel=0 note=72 velocity=50 time=0
note_on channel=0 note=72 velocity=0 time=120
note_on channel=0 note=81 velocity=50 time=0
note_on channel=0 note=81 velocity=0 time=0
note_on channel=0 note=80 velocity=59 time=0
note_on channel=0 note=48 velocity=59 time=0
note_on channel=0 note=80 velocity=0 time=120
note_on channel=0 note=81 velocity=50 time=0
note_on channel=0 note=81 velocity=0 time=120
note_on channel=0 note=72 velocity=56 time=0
note_on channel=0 note=72 velocity=0 time=120
note_on channel=0 note=81 velocity=53 time=0
note_on channel=0 note=81 velocity=0 time=110
note_on channel=0 note=48 velocity=0 time=0
note_on channel=0 note=52 velocity=0 time=0
note_on channel=0 note=81 velocity=62 time=0
note_on channel=0 note=51 velocity=64 time=0
control_change channel=0 control=64 value=0 time=9
control_change channel=0 control=64 value=127 time=69
note_on channel=0 note=81 velocity=0 time=42
note_on channel=0 note=71 velocity=52 time=0
note_on channel=0 note=71 velocity=0 time=120
note_on channel=0 note=81 velocity=53 time=0
note_on channel=0 note=81 velocity=0 time=120
note_on channel=0 note=83 velocity=55 time=0
note_on channel=0 note=83 velocity=0 time=0
note_on channel=0 note=51 velocity=0 time=0
note_on channel=0 note=81 velocity=60 time=0
note_on channel=0 note=59 velocity=68 time=0
note_on channel=0 note=81 velocity=0 time=120
note_on channel=0 note=71 velocity=56 time=0
note_on channel=0 note=71 velocity=0 time=120
note_on channel=0 note=81 velocity=49 time=0
note_on channel=0 note=81 velocity=0 time=120
note_on channel=0 note=83 velocity=49 time=0
note_on channel=0 note=83 velocity=0 time=0
note_on channel=0 note=81 velocity=63 time=0
note_on channel=0 note=51 velocity=63 time=0
note_on channel=0 note=81 velocity=0 time=120
note_on channel=0 note=71 velocity=53 time=0
note_on channel=0 note=71 velocity=0 time=120
note_on channel=0 note=81 velocity=58 time=0
note_on channel=0 note=81 velocity=0 time=120
note_on channel=0 note=83 velocity=58 time=0
note_on channel=0 note=83 velocity=0 time=0
note_on channel=0 note=51 velocity=0 time=0
note_on channel=0 note=59 velocity=0 time=0
note_on channel=0 note=81 velocity=65 time=0
note_on channel=0 note=52 velocity=67 time=0
control_change channel=0 control=64 value=0 time=18
control_change channel=0 control=64 value=127 time=88
note_on channel=0 note=81 velocity=0 time=14
note_on channel=0 note=71 velocity=54 time=0
note_on channel=0 note=71 velocity=0 time=120
note_on channel=0 note=81 velocity=58 time=0
note_on channel=0 note=81 velocity=0 time=120
note_on channel=0 note=83 velocity=60 time=0
note_on channel=0 note=83 velocity=0 time=0
note_on channel=0 note=52 velocity=0 time=0
note_on channel=0 note=81 velocity=62 time=0
note_on channel=0 note=60 velocity=73 time=0
note_on channel=0 note=81 velocity=0 time=120
note_on channel=0 note=71 velocity=60 time=0
note_on channel=0 note=71 velocity=0 time=120
note_on channel=0 note=81 velocity=56 time=0
note_on channel=0 note=81 velocity=0 time=120
note_on channel=0 note=83 velocity=54 time=0
note_on channel=0 note=83 velocity=0 time=0
note_on channel=0 note=81 velocity=64 time=0
note_on channel=0 note=52 velocity=63 time=0
note_on channel=0 note=81 velocity=0 time=120
note_on channel=0 note=71 velocity=56 time=0
note_on channel=0 note=71 velocity=0 time=120
note_on channel=0 note=81 velocity=62 time=0
note_on channel=0 note=81 velocity=0 time=120
note_on channel=0 note=83 velocity=58 time=0
note_on channel=0 note=83 velocity=0 time=0
note_on channel=0 note=52 velocity=0 time=0
note_on channel=0 note=60 velocity=0 time=0
note_on channel=0 note=81 velocity=68 time=0
note_on channel=0 note=54 velocity=68 time=0
control_change channel=0 control=64 value=0 time=7
control_change channel=0 control=64 value=127 time=71
note_on channel=0 note=81 velocity=0 time=42
note_on channel=0 note=71 velocity=59 time=0
note_on channel=0 note=71 velocity=0 time=120
note_on channel=0 note=81 velocity=62 time=0
note_on channel=0 note=81 velocity=0 time=120
note_on channel=0 note=83 velocity=64 time=0
note_on channel=0 note=83 velocity=0 time=0
note_on channel=0 note=54 velocity=0 time=0
note_on channel=0 note=81 velocity=67 time=0
note_on channel=0 note=63 velocity=76 time=0
note_on channel=0 note=81 velocity=0 time=120
note_on channel=0 note=71 velocity=64 time=0
note_on channel=0 note=71 velocity=0 time=120
note_on channel=0 note=81 velocity=62 time=0
note_on channel=0 note=81 velocity=0 time=120
note_on channel=0 note=83 velocity=62 time=0
note_on channel=0 note=83 velocity=0 time=0
note_on channel=0 note=81 velocity=69 time=0
note_on channel=0 note=54 velocity=70 time=0
note_on channel=0 note=81 velocity=0 time=120
note_on channel=0 note=71 velocity=58 time=0
note_on channel=0 note=71 velocity=0 time=120
note_on channel=0 note=81 velocity=64 time=0
note_on channel=0 note=81 velocity=0 time=120
note_on channel=0 note=83 velocity=61 time=0
note_on channel=0 note=83 velocity=0 time=0
note_on channel=0 note=54 velocity=0 time=0
note_on channel=0 note=63 velocity=0 time=0
note_on channel=0 note=79 velocity=72 time=0
note_on channel=0 note=55 velocity=74 time=0
control_change channel=0 control=64 value=0 time=9
control_change channel=0 control=64 value=127 time=90
note_on channel=0 note=79 velocity=0 time=21
note_on channel=0 note=71 velocity=62 time=0
note_on channel=0 note=71 velocity=0 time=120
note_on channel=0 note=79 velocity=64 time=0
note_on channel=0 note=79 velocity=0 time=120
note_on channel=0 note=83 velocity=65 time=0
note_on channel=0 note=83 velocity=0 time=0
note_on channel=0 note=55 velocity=0 time=0
note_on channel=0 note=79 velocity=70 time=0
note_on channel=0 note=64 velocity=78 time=0
note_on channel=0 note=79 velocity=0 time=120
note_on channel=0 note=71 velocity=67 time=0
note_on channel=0 note=71 velocity=0 time=120
note_on channel=0 note=79 velocity=65 time=0
note_on channel=0 note=79 velocity=0 time=120
note_on channel=0 note=83 velocity=63 time=0
note_on channel=0 note=83 velocity=0 time=110
note_on channel=0 note=83 velocity=73 time=10
note_on channel=0 note=55 velocity=75 time=0
note_on channel=0 note=83 velocity=0 time=120
note_on channel=0 note=76 velocity=61 time=0
note_on channel=0 note=76 velocity=0 time=120
note_on channel=0 note=83 velocity=67 time=0
note_on channel=0 note=83 velocity=0 time=120
note_on channel=0 note=88 velocity=64 time=0
note_on channel=0 note=88 velocity=0 time=0
note_on channel=0 note=55 velocity=0 time=0
note_on channel=0 note=64 velocity=0 time=0
note_on channel=0 note=84 velocity=64 time=0
note_on channel=0 note=57 velocity=77 time=0
control_change channel=0 control=64 value=0 time=11
control_change channel=0 control=64 value=127 time=81
note_on channel=0 note=84 velocity=0 time=28
note_on channel=0 note=76 velocity=66 time=0
note_on channel=0 note=76 velocity=0 time=120
note_on channel=0 note=84 velocity=69 time=0
note_on channel=0 note=84 velocity=0 time=120
note_on channel=0 note=88 velocity=72 time=0
note_on channel=0 note=88 velocity=0 time=0
note_on channel=0 note=57 velocity=0 time=0
note_on channel=0 note=84 velocity=78 time=0
note_on channel=0 note=66 velocity=85 time=0
note_on channel=0 note=84 velocity=0 time=120
note_on channel=0 note=76 velocity=74 time=0
note_on channel=0 note=76 velocity=0 time=120
note_on channel=0 note=84 velocity=67 time=0
note_on channel=0 note=84 velocity=0 time=120
note_on channel=0 note=88 velocity=67 time=0
note_on channel=0 note=88 velocity=0 time=120
note_on channel=0 note=84 velocity=74 time=0
note_on channel=0 note=57 velocity=81 time=0
note_on channel=0 note=84 velocity=0 time=120
note_on channel=0 note=76 velocity=63 time=0
note_on channel=0 note=76 velocity=0 time=120
note_on channel=0 note=84 velocity=70 time=0
note_on channel=0 note=84 velocity=0 time=120
note_on channel=0 note=88 velocity=67 time=0
note_on channel=0 note=88 velocity=0 time=0
note_on channel=0 note=57 velocity=0 time=0
note_on channel=0 note=66 velocity=0 time=0
note_on channel=0 note=85 velocity=77 time=0
note_on channel=0 note=58 velocity=83 time=0
control_change channel=0 control=64 value=0 time=9
control_change channel=0 control=64 value=127 time=66
note_on channel=0 note=85 velocity=0 time=45
note_on channel=0 note=79 velocity=67 time=0
note_on channel=0 note=79 velocity=0 time=120
note_on channel=0 note=85 velocity=71 time=0
note_on channel=0 note=85 velocity=0 time=120
note_on channel=0 note=88 velocity=75 time=0
note_on channel=0 note=88 velocity=0 time=0
note_on channel=0 note=58 velocity=0 time=0
note_on channel=0 note=85 velocity=77 time=0
note_on channel=0 note=67 velocity=90 time=0
note_on channel=0 note=85 velocity=0 time=120
note_on channel=0 note=79 velocity=72 time=0
note_on channel=0 note=79 velocity=0 time=120
note_on channel=0 note=85 velocity=72 time=0
note_on channel=0 note=85 velocity=0 time=120
note_on channel=0 note=88 velocity=67 time=0
note_on channel=0 note=88 velocity=0 time=0
note_on channel=0 note=85 velocity=78 time=0
note_on channel=0 note=58 velocity=88 time=0
note_on channel=0 note=85 velocity=0 time=120
note_on channel=0 note=79 velocity=66 time=0
note_on channel=0 note=79 velocity=0 time=120
note_on channel=0 note=85 velocity=73 time=0
note_on channel=0 note=85 velocity=0 time=120
note_on channel=0 note=88 velocity=66 time=0
note_on channel=0 note=88 velocity=0 time=0
note_on channel=0 note=58 velocity=0 time=0
note_on channel=0 note=67 velocity=0 time=0
note_on channel=0 note=83 velocity=87 time=0
note_on channel=0 note=59 velocity=99 time=0
control_change channel=0 control=64 value=0 time=7
control_change channel=0 control=64 value=127 time=62
note_on channel=0 note=83 velocity=0 time=51
note_on channel=0 note=79 velocity=74 time=0
note_on channel=0 note=79 velocity=0 time=120
note_on channel=0 note=83 velocity=79 time=0
note_on channel=0 note=83 velocity=0 time=120
note_on channel=0 note=88 velocity=74 time=0
note_on channel=0 note=88 velocity=0 time=120
note_on channel=0 note=91 velocity=85 time=0
note_on channel=0 note=64 velocity=85 time=0
note_on channel=0 note=91 velocity=0 time=120
note_on channel=0 note=90 velocity=75 time=0
note_on channel=0 note=90 velocity=0 time=120
note_on channel=0 note=88 velocity=79 time=0
note_on channel=0 note=88 velocity=0 time=120
note_on channel=0 note=87 velocity=75 time=0
note_on channel=0 note=87 velocity=0 time=120
note_on channel=0 note=64 velocity=0 time=0
note_on channel=0 note=88 velocity=86 time=0
note_on channel=0 note=67 velocity=85 time=0
note_on channel=0 note=88 velocity=0 time=120
note_on channel=0 note=87 velocity=75 time=0
note_on channel=0 note=87 velocity=0 time=120
note_on channel=0 note=88 velocity=79 time=0
note_on channel=0 note=88 velocity=0 time=120
note_on channel=0 note=90 velocity=76 time=0
note_on channel=0 note=90 velocity=0 time=0
note_on channel=0 note=67 velocity=0 time=0
note_on channel=0 note=59 velocity=0 time=0
note_on channel=0 note=91 velocity=85 time=0
note_on channel=0 note=71 velocity=96 time=0
note_on channel=0 note=91 velocity=0 time=120
note_on channel=0 note=90 velocity=79 time=0
note_on channel=0 note=90 velocity=0 time=120
note_on channel=0 note=88 velocity=79 time=0
note_on channel=0 note=88 velocity=0 time=120
note_on channel=0 note=87 velocity=75 time=0
note_on channel=0 note=87 velocity=0 time=0
note_on channel=0 note=71 velocity=0 time=0
note_on channel=0 note=91 velocity=85 time=0
note_on channel=0 note=76 velocity=85 time=0
note_on channel=0 note=91 velocity=0 time=120
note_on channel=0 note=90 velocity=79 time=0
note_on channel=0 note=90 velocity=0 time=120
note_on channel=0 note=88 velocity=79 time=0
note_on channel=0 note=88 velocity=0 time=120
note_on channel=0 note=87 velocity=75 time=0
note_on channel=0 note=87 velocity=0 time=0
note_on channel=0 note=76 velocity=0 time=0
note_on channel=0 note=91 velocity=85 time=0
note_on channel=0 note=79 velocity=85 time=0
note_on channel=0 note=91 velocity=0 time=120
note_on channel=0 note=90 velocity=79 time=0
note_on channel=0 note=90 velocity=0 time=120
note_on channel=0 note=88 velocity=79 time=0
note_on channel=0 note=88 velocity=0 time=0
note_on channel=0 note=87 velocity=76 time=0
note_on channel=0 note=87 velocity=0 time=0
note_on channel=0 note=79 velocity=0 time=0
note_on channel=0 note=91 velocity=85 time=0
control_change channel=0 control=64 value=0 time=0
control_change channel=0 control=64 value=127 time=57
note_on channel=0 note=91 velocity=0 time=63
note_on channel=0 note=90 velocity=79 time=0
note_on channel=0 note=90 velocity=0 time=120
note_on channel=0 note=88 velocity=79 time=0
note_on channel=0 note=88 velocity=0 time=0
note_on channel=0 note=87 velocity=76 time=0
note_on channel=0 note=87 velocity=0 time=0
note_on channel=0 note=88 velocity=88 time=0
note_on channel=0 note=79 velocity=86 time=0
control_change channel=0 control=64 value=0 time=17
control_change channel=0 control=64 value=127 time=69
note_on channel=0 note=79 velocity=0 time=34
note_on channel=0 note=78 velocity=79 time=0
note_on channel=0 note=78 velocity=0 time=120
note_on channel=0 note=88 velocity=0 time=0
note_on channel=0 note=76 velocity=79 time=0
note_on channel=0 note=76 velocity=0 time=0
note_on channel=0 note=75 velocity=74 time=0
note_on channel=0 note=75 velocity=0 time=0
note_on channel=0 note=76 velocity=85 time=0
control_change channel=0 control=64 value=0 time=12
note_on channel=0 note=76 velocity=0 time=228
note_on channel=0 note=91 velocity=50 time=0
note_on channel=0 note=91 velocity=0 time=240
note_on channel=0 note=90 velocity=42 time=0
note_on channel=0 note=90 velocity=0 time=240
note_on channel=0 note=88 velocity=46 time=0
note_on channel=0 note=79 velocity=50 time=0
note_on channel=0 note=79 velocity=0 time=240
note_on channel=0 note=88 velocity=0 time=0
note_on channel=0 note=87 velocity=46 time=0
note_on channel=0 note=78 velocity=41 time=0
note_on channel=0 note=78 velocity=0 time=240
note_on channel=0 note=87 velocity=0 time=0
note_on channel=0 note=88 velocity=50 time=0
note_on channel=0 note=76 velocity=45 time=0
note_on channel=0 note=76 velocity=0 time=240
note_on channel=0 note=75 velocity=42 time=0
note_on channel=0 note=75 velocity=0 time=240
note_on channel=0 note=88 velocity=0 time=0
note_on channel=0 note=91 velocity=50 time=0
note_on channel=0 note=76 velocity=50 time=0
note_on channel=0 note=76 velocity=0 time=480
note_on channel=0 note=91 velocity=0 time=0
note_on channel=0 note=90 velocity=47 time=0
note_on channel=0 note=90 velocity=0 time=480
note_on channel=0 note=88 velocity=50 time=0
note_on channel=0 note=79 velocity=41 time=0
note_on channel=0 note=79 velocity=0 time=480
note_on channel=0 note=88 velocity=0 time=0
note_on channel=0 note=87 velocity=54 time=0
note_on channel=0 note=78 velocity=46 time=0
note_on channel=0 note=78 velocity=0 time=480
note_on channel=0 note=87 velocity=0 time=0
note_on channel=0 note=88 velocity=49 time=0
note_on channel=0 note=76 velocity=39 time=0
note_on channel=0 note=76 velocity=0 time=480
note_on channel=0 note=88 velocity=0 time=0
note_on channel=0 note=75 velocity=39 time=0
note_on channel=0 note=75 velocity=0 time=480
note_on channel=0 note=91 velocity=50 time=0
note_on channel=0 note=76 velocity=45 time=0
note_on channel=0 note=76 velocity=0 time=480
note_on channel=0 note=91 velocity=0 time=480
note_on channel=0 note=90 velocity=50 time=0
note_on channel=0 note=79 velocity=40 time=480
note_on channel=0 note=90 velocity=0 time=480
note_on channel=0 note=88 velocity=50 time=0
note_on channel=0 note=88 velocity=0 time=480
note_on channel=0 note=79 velocity=0 time=0
note_on channel=0 note=78 velocity=37 time=0
note_on channel=0 note=67 velocity=50 time=480
note_on channel=0 note=78 velocity=0 time=480
note_on channel=0 note=76 velocity=41 time=0
note_on channel=0 note=76 velocity=0 time=0
note_on channel=0 note=67 velocity=0 time=0
note_on channel=0 note=66 velocity=56 time=0
note_on channel=0 note=66 velocity=0 time=0
note_on channel=0 note=64 velocity=40 time=0
note_on channel=0 note=64 velocity=0 time=230
note_on channel=0 note=64 velocity=50 time=0
note_on channel=0 note=67 velocity=51 time=0
note_on channel=0 note=64 velocity=0 time=480
note_on channel=0 note=67 velocity=0 time=0
note_on channel=0 note=66 velocity=59 time=0
note_on channel=0 note=66 velocity=0 time=0
note_on channel=0 note=64 velocity=42 time=0
note_on channel=0 note=64 velocity=0 time=230
note_on channel=0 note=64 velocity=50 time=0
note_on channel=0 note=64 velocity=0 time=480
note_on channel=0 note=67 velocity=50 time=0
note_on channel=0 note=67 velocity=0 time=470
note_on channel=0 note=66 velocity=46 time=0
note_on channel=0 note=67 velocity=39 time=0
note_on channel=0 note=66 velocity=0 time=0
note_on channel=0 note=64 velocity=46 time=0
note_on channel=0 note=64 velocity=0 time=230
note_on channel=0 note=67 velocity=0 time=0
note_on channel=0 note=64 velocity=50 time=0
note_on channel=0 note=66 velocity=39 time=0
note_on channel=0 note=64 velocity=0 time=230
note_on channel=0 note=66 velocity=0 time=10
note_on channel=0 note=64 velocity=39 time=0
note_on channel=0 note=64 velocity=0 time=230
note_on channel=0 note=64 velocity=39 time=10
note_on channel=0 note=64 velocity=0 time=0
note_on channel=0 note=67 velocity=53 time=0
note_on channel=0 note=67 velocity=0 time=240
note_on channel=0 note=66 velocity=56 time=0
note_on channel=0 note=66 velocity=0 time=0
note_on channel=0 note=64 velocity=57 time=0
note_on channel=0 note=79 velocity=55 time=0
note_on channel=0 note=79 velocity=0 time=240
note_on channel=0 note=64 velocity=0 time=0
note_on channel=0 note=78 velocity=61 time=0
note_on channel=0 note=78 velocity=0 time=0
note_on channel=0 note=91 velocity=61 time=0
note_on channel=0 note=76 velocity=56 time=0
note_on channel=0 note=76 velocity=0 time=240
note_on channel=0 note=91 velocity=0 time=0
note_on channel=0 note=90 velocity=66 time=0
note_on channel=0 note=90 velocity=0 time=0
note_on channel=0 note=88 velocity=63 time=0
note_on channel=0 note=79 velocity=58 time=0
note_on channel=0 note=79 velocity=0 time=0
note_on channel=0 note=88 velocity=0 time=0
note_on channel=0 note=78 velocity=65 time=0
note_on channel=0 note=78 velocity=0 time=240
note_on channel=0 note=67 velocity=63 time=0
note_on channel=0 note=76 velocity=61 time=0
note_on channel=0 note=76 velocity=0 time=0
note_on channel=0 note=67 velocity=0 time=0
note_on channel=0 note=66 velocity=74 time=0
note_on channel=0 note=66 velocity=0 time=0
note_on channel=0 note=64 velocity=64 time=0
note_on channel=0 note=55 velocity=71 time=0
note_on channel=0 note=55 velocity=0 time=0
note_on channel=0 note=64 velocity=0 time=0
note_on channel=0 note=54 velocity=77 time=0
note_on channel=0 note=54 velocity=0 time=0
note_on channel=0 note=52 velocity=74 time=0
note_on channel=0 note=52 velocity=0 time=120
note_on channel=0 note=67 velocity=78 time=0
note_on channel=0 note=64 velocity=66 time=0
note_on channel=0 note=59 velocity=66 time=0
note_on channel=0 note=55 velocity=66 time=0
note_on channel=0 note=40 velocity=70 time=0
note_on channel=0 note=52 velocity=70 time=0
note_on channel=0 note=52 velocity=0 time=120
note_on channel=0 note=64 velocity=0 time=0
note_on channel=0 note=59 velocity=0 time=0
note_on channel=0 note=67 velocity=0 time=0
note_on channel=0 note=40 velocity=0 time=0
note_on channel=0 note=55 velocity=0 time=0
note_on channel=0 note=55 velocity=70 time=0
note_on channel=0 note=59 velocity=70 time=0
note_on channel=0 note=64 velocity=70 time=0
note_on channel=0 note=67 velocity=84 time=0
note_on channel=0 note=40 velocity=61 time=0
note_on channel=0 note=52 velocity=72 time=0
note_on channel=0 note=67 velocity=0 time=720
note_on channel=0 note=66 velocity=77 time=0
note_on channel=0 note=66 velocity=0 time=0
note_on channel=0 note=52 velocity=0 time=0
note_on channel=0 note=64 velocity=0 time=0
note_on channel=0 note=55 velocity=0 time=0
note_on channel=0 note=59 velocity=0 time=0
note_on channel=0 note=40 velocity=0 time=0
note_on channel=0 note=64 velocity=68 time=0
note_on channel=0 note=55 velocity=57 time=0
note_on channel=0 note=52 velocity=63 time=0
note_on channel=0 note=40 velocity=53 time=0
note_on channel=0 note=40 velocity=0 time=120
note_on channel=0 note=64 velocity=0 time=0
note_on channel=0 note=55 velocity=0 time=0
note_on channel=0 note=52 velocity=0 time=0
note_on channel=0 note=57 velocity=70 time=0
note_on channel=0 note=66 velocity=70 time=0
note_on channel=0 note=69 velocity=84 time=0
note_on channel=0 note=38 velocity=61 time=0
note_on channel=0 note=50 velocity=72 time=0
note_on channel=0 note=50 velocity=0 time=240
note_on channel=0 note=69 velocity=0 time=0
note_on channel=0 note=57 velocity=0 time=0
note_on channel=0 note=66 velocity=0 time=0
note_on channel=0 note=38 velocity=0 time=0
note_on channel=0 note=69 velocity=37 time=720
note_on channel=0 note=66 velocity=31 time=0
note_on channel=0 note=62 velocity=29 time=0
note_on channel=0 note=62 velocity=0 time=480
note_on channel=0 note=66 velocity=0 time=0
note_on channel=0 note=69 velocity=0 time=0
note_on channel=0 note=66 velocity=37 time=0
note_on channel=0 note=69 velocity=45 time=0
note_on channel=0 note=60 velocity=30 time=0
note_on channel=0 note=62 velocity=36 time=0
note_on channel=0 note=62 velocity=0 time=720
note_on channel=0 note=66 velocity=0 time=0
note_on channel=0 note=69 velocity=0 time=0
note_on channel=0 note=60 velocity=0 time=0
note_on channel=0 note=67 velocity=40 time=0
note_on channel=0 note=62 velocity=31 time=0
note_on channel=0 note=59 velocity=26 time=0
note_on channel=0 note=59 velocity=0 time=0
note_on channel=0 note=62 velocity=0 time=0
note_on channel=0 note=67 velocity=0 time=0
note_on channel=0 note=69 velocity=41 time=0
note_on channel=0 note=66 velocity=35 time=0
note_on channel=0 note=57 velocity=24 time=0
note_on channel=0 note=60 velocity=28 time=0
note_on channel=0 note=60 velocity=0 time=360
note_on channel=0 note=69 velocity=0 time=0
note_on channel=0 note=66 velocity=0 time=0
note_on channel=0 note=57 velocity=0 time=0
note_on channel=0 note=71 velocity=43 time=0
note_on channel=0 note=67 velocity=36 time=0
note_on channel=0 note=55 velocity=30 time=0
note_on channel=0 note=59 velocity=36 time=0
note_on channel=0 note=59 velocity=0 time=360
note_on channel=0 note=71 velocity=0 time=0
note_on channel=0 note=67 velocity=0 time=0
note_on channel=0 note=55 velocity=0 time=0
note_on channel=0 note=71 velocity=78 time=0
note_on channel=0 note=67 velocity=66 time=0
note_on channel=0 note=62 velocity=66 time=0
note_on channel=0 note=59 velocity=66 time=0
note_on channel=0 note=55 velocity=63 time=0
note_on channel=0 note=43 velocity=53 time=0
note_on channel=0 note=43 velocity=0 time=120
note_on channel=0 note=67 velocity=0 time=0
note_on channel=0 note=62 velocity=0 time=0
note_on channel=0 note=71 velocity=0 time=0
note_on channel=0 note=55 velocity=0 time=0
note_on channel=0 note=59 velocity=0 time=0
note_on channel=0 note=62 velocity=70 time=0
note_on channel=0 note=59 velocity=70 time=0
note_on channel=0 note=67 velocity=70 time=0
note_on channel=0 note=71 velocity=84 time=0
note_on channel=0 note=43 velocity=61 time=0
note_on channel=0 note=55 velocity=72 time=0
note_on channel=0 note=71 velocity=0 time=720
note_on channel=0 note=69 velocity=77 time=0
note_on channel=0 note=69 velocity=0 time=0
note_on channel=0 note=55 velocity=0 time=0
note_on channel=0 note=67 velocity=0 time=0
note_on channel=0 note=62 velocity=0 time=0
note_on channel=0 note=59 velocity=0 time=0
note_on channel=0 note=43 velocity=0 time=0
note_on channel=0 note=67 velocity=68 time=0
note_on channel=0 note=59 velocity=57 time=0
note_on channel=0 note=43 velocity=63 time=0
note_on channel=0 note=31 velocity=53 time=0
note_on channel=0 note=31 velocity=0 time=120
note_on channel=0 note=67 velocity=0 time=0
note_on channel=0 note=59 velocity=0 time=0
note_on channel=0 note=43 velocity=0 time=0
note_on channel=0 note=61 velocity=70 time=0
note_on channel=0 note=70 velocity=70 time=0
note_on channel=0 note=73 velocity=84 time=0
note_on channel=0 note=30 velocity=61 time=0
note_on channel=0 note=42 velocity=72 time=0
note_on channel=0 note=42 velocity=0 time=240
note_on channel=0 note=73 velocity=0 time=0
note_on channel=0 note=61 velocity=0 time=0
note_on channel=0 note=70 velocity=0 time=0
note_on channel=0 note=30 velocity=0 time=0
note_on channel=0 note=73 velocity=37 time=720
note_on channel=0 note=70 velocity=31 time=0
note_on channel=0 note=66 velocity=29 time=0
note_on channel=0 note=66 velocity=0 time=480
note_on channel=0 note=70 velocity=0 time=0
note_on channel=0 note=73 velocity=0 time=0
note_on channel=0 note=70 velocity=37 time=0
note_on channel=0 note=73 velocity=45 time=0
note_on channel=0 note=64 velocity=30 time=0
note_on channel=0 note=66 velocity=36 time=0
note_on channel=0 note=66 velocity=0 time=720
note_on channel=0 note=70 velocity=0 time=0
note_on channel=0 note=73 velocity=0 time=0
note_on channel=0 note=64 velocity=0 time=0
note_on channel=0 note=71 velocity=40 time=0
note_on channel=0 note=66 velocity=31 time=0
note_on channel=0 note=62 velocity=26 time=0
note_on channel=0 note=62 velocity=0 time=0
note_on channel=0 note=66 velocity=0 time=0
note_on channel=0 note=71 velocity=0 time=0
note_on channel=0 note=73 velocity=41 time=0
note_on channel=0 note=70 velocity=35 time=0
note_on channel=0 note=61 velocity=24 time=0
note_on channel=0 note=64 velocity=28 time=0
note_on channel=0 note=64 velocity=0 time=360
note_on channel=0 note=73 velocity=0 time=0
note_on channel=0 note=70 velocity=0 time=0
note_on channel=0 note=61 velocity=0 time=0
note_on channel=0 note=74 velocity=43 time=0
note_on channel=0 note=71 velocity=36 time=0
note_on channel=0 note=59 velocity=30 time=0
note_on channel=0 note=62 velocity=36 time=0
note_on channel=0 note=62 velocity=0 time=360
note_on channel=0 note=74 velocity=0 time=0
note_on channel=0 note=71 velocity=0 time=0
note_on channel=0 note=59 velocity=0 time=0
note_on channel=0 note=74 velocity=70 time=0
note_on channel=0 note=62 velocity=38 time=480
note_on channel=0 note=59 velocity=38 time=0
note_on channel=0 note=67 velocity=45 time=0
note_on channel=0 note=74 velocity=0 time=0
note_on channel=0 note=79 velocity=70 time=0
note_on channel=0 note=79 velocity=0 time=0
note_on channel=0 note=62 velocity=0 time=0
note_on channel=0 note=76 velocity=62 time=0
note_on channel=0 note=64 velocity=50 time=0
note_on channel=0 note=76 velocity=0 time=480
note_on channel=0 note=59 velocity=0 time=0
note_on channel=0 note=74 velocity=66 time=0
note_on channel=0 note=57 velocity=39 time=0
note_on channel=0 note=74 velocity=0 time=480
note_on channel=0 note=72 velocity=56 time=0
note_on channel=0 note=72 velocity=0 time=456
note_on channel=0 note=57 velocity=0 time=0
note_on channel=0 note=67 velocity=0 time=0
note_on channel=0 note=64 velocity=0 time=0
note_on channel=0 note=72 velocity=61 time=0
note_on channel=0 note=66 velocity=38 time=0
note_on channel=0 note=63 velocity=32 time=0
note_on channel=0 note=63 velocity=0 time=480
note_on channel=0 note=62 velocity=34 time=0
note_on channel=0 note=72 velocity=0 time=0
note_on channel=0 note=81 velocity=61 time=0
note_on channel=0 note=81 velocity=0 time=0
note_on channel=0 note=62 velocity=0 time=0
note_on channel=0 note=66 velocity=0 time=0
note_on channel=0 note=72 velocity=52 time=0
note_on channel=0 note=66 velocity=46 time=0
note_on channel=0 note=66 velocity=0 time=0
note_on channel=0 note=67 velocity=46 time=0
note_on channel=0 note=72 velocity=0 time=480
note_on channel=0 note=71 velocity=61 time=0
note_on channel=0 note=71 velocity=0 time=456
note_on channel=0 note=67 velocity=0 time=0
note_on channel=0 note=71 velocity=55 time=0
note_on channel=0 note=55 velocity=45 time=0
control_change channel=0 control=64 value=127 time=54
note_on channel=0 note=55 velocity=0 time=426
note_on channel=0 note=52 velocity=49 time=0
note_on channel=0 note=71 velocity=0 time=0
note_on channel=0 note=67 velocity=50 time=0
note_on channel=0 note=67 velocity=0 time=456
note_on channel=0 note=52 velocity=0 time=24
note_on channel=0 note=67 velocity=44 time=0
note_on channel=0 note=64 velocity=41 time=0
control_change channel=0 control=64 value=0 time=14
control_change channel=0 control=64 value=127 time=280
note_on channel=0 note=64 velocity=0 time=186
note_on channel=0 note=60 velocity=40 time=0
note_on channel=0 note=67 velocity=0 time=480
note_on channel=0 note=64 velocity=43 time=0
note_on channel=0 note=64 velocity=0 time=456
note_on channel=0 note=60 velocity=0 time=0
note_on channel=0 note=64 velocity=40 time=0
note_on channel=0 note=48 velocity=28 time=0
control_change channel=0 control=64 value=0 time=12
control_change channel=0 control=64 value=127 time=202
note_on channel=0 note=36 velocity=28 time=266
note_on channel=0 note=64 velocity=0 time=0
note_on channel=0 note=55 velocity=36 time=0
note_on channel=0 note=55 velocity=0 time=0
note_on channel=0 note=52 velocity=24 time=0
note_on channel=0 note=52 velocity=0 time=0
note_on channel=0 note=36 velocity=0 time=0
note_on channel=0 note=48 velocity=0 time=0
note_on channel=0 note=51 velocity=24 time=0
note_on channel=0 note=59 velocity=28 time=0
note_on channel=0 note=47 velocity=28 time=0
note_on channel=0 note=35 velocity=24 time=0
control_change channel=0 control=64 value=0 time=14
control_change channel=0 control=64 value=127 time=173
note_on channel=0 note=35 velocity=0 time=677
note_on channel=0 note=51 velocity=0 time=0
note_on channel=0 note=59 velocity=0 time=0
note_on channel=0 note=47 velocity=0 time=0
control_change channel=0 control=64 value=0 time=89
note_on channel=0 note=76 velocity=51 time=0
note_on channel=0 note=88 velocity=61 time=0
note_on channel=0 note=59 velocity=34 time=480
note_on channel=0 note=43 velocity=28 time=0
note_on channel=0 note=52 velocity=28 time=0
note_on channel=0 note=88 velocity=0 time=240
note_on channel=0 note=76 velocity=0 time=0
note_on channel=0 note=75 velocity=45 time=0
note_on channel=0 note=87 velocity=53 time=0
note_on channel=0 note=87 velocity=0 time=0
note_on channel=0 note=75 velocity=0 time=0
note_on channel=0 note=76 velocity=48 time=0
note_on channel=0 note=88 velocity=57 time=0
note_on channel=0 note=88 velocity=0 time=0
note_on channel=0 note=43 velocity=0 time=0
note_on channel=0 note=76 velocity=0 time=0
note_on channel=0 note=59 velocity=0 time=0
note_on channel=0 note=60 velocity=51 time=0
note_on channel=0 note=64 velocity=51 time=0
note_on channel=0 note=66 velocity=61 time=0
note_on channel=0 note=45 velocity=39 time=0
control_change channel=0 control=64 value=127 time=116
note_on channel=0 note=45 velocity=0 time=0
note_on channel=0 note=64 velocity=0 time=0
note_on channel=0 note=66 velocity=0 time=0
note_on channel=0 note=60 velocity=0 time=0
note_on channel=0 note=66 velocity=66 time=0
note_on channel=0 note=64 velocity=56 time=0
note_on channel=0 note=61 velocity=56 time=0
note_on channel=0 note=46 velocity=43 time=0
control_change channel=0 control=64 value=0 time=14
control_change channel=0 control=64 value=127 time=135
note_on channel=0 note=46 velocity=0 time=331
note_on channel=0 note=64 velocity=0 time=0
note_on channel=0 note=52 velocity=0 time=0
note_on channel=0 note=66 velocity=0 time=0
note_on channel=0 note=61 velocity=0 time=0
note_on channel=0 note=57 velocity=60 time=0
note_on channel=0 note=63 velocity=60 time=0
note_on channel=0 note=66 velocity=71 time=0
note_on channel=0 note=47 velocity=49 time=0
control_change channel=0 control=64 value=0 time=9
note_on channel=0 note=66 velocity=0 time=240
note_on channel=0 note=67 velocity=51 time=0
note_on channel=0 note=67 velocity=0 time=240
note_on channel=0 note=69 velocity=56 time=0
note_on channel=0 note=69 velocity=0 time=0
note_on channel=0 note=67 velocity=43 time=0
note_on channel=0 note=67 velocity=0 time=0
note_on channel=0 note=47 velocity=0 time=0
note_on channel=0 note=63 velocity=0 time=0
note_on channel=0 note=57 velocity=0 time=0
note_on channel=0 note=66 velocity=47 time=0
note_on channel=0 note=55 velocity=29 time=0
note_on channel=0 note=48 velocity=24 time=0
note_on channel=0 note=66 velocity=0 time=0
note_on channel=0 note=64 velocity=39 time=0
note_on channel=0 note=64 velocity=0 time=0
note_on channel=0 note=48 velocity=0 time=0
note_on channel=0 note=55 velocity=0 time=0
note_on channel=0 note=76 velocity=51 time=0
note_on channel=0 note=88 velocity=61 time=0
note_on channel=0 note=47 velocity=32 time=0
note_on channel=0 note=47 velocity=0 time=240
note_on channel=0 note=45 velocity=35 time=0
note_on channel=0 note=45 velocity=0 time=0
note_on channel=0 note=52 velocity=39 time=0
note_on channel=0 note=43 velocity=39 time=0
note_on channel=0 note=59 velocity=39 time=0
note_on channel=0 note=88 velocity=0 time=240
note_on channel=0 note=76 velocity=0 time=0
note_on channel=0 note=75 velocity=52 time=0
note_on channel=0 note=87 velocity=61 time=0
note_on channel=0 note=87 velocity=0 time=0
note_on channel=0 note=43 velocity=0 time=0
note_on channel=0 note=75 velocity=0 time=0
note_on channel=0 note=76 velocity=56 time=0
note_on channel=0 note=88 velocity=66 time=0
note_on channel=0 note=44 velocity=37 time=0
note_on channel=0 note=44 velocity=0 time=0
note_on channel=0 note=76 velocity=0 time=0
note_on channel=0 note=88 velocity=0 time=0
note_on channel=0 note=59 velocity=0 time=0
note_on channel=0 note=60 velocity=51 time=0
note_on channel=0 note=64 velocity=51 time=0
note_on channel=0 note=66 velocity=61 time=0
note_on channel=0 note=45 velocity=39 time=0
control_change channel=0 control=64 value=127 time=182
note_on channel=0 note=45 velocity=0 time=0
note_on channel=0 note=64 velocity=0 time=0
note_on channel=0 note=66 velocity=0 time=0
note_on channel=0 note=60 velocity=0 time=0
note_on channel=0 note=66 velocity=52 time=0
note_on channel=0 note=64 velocity=44 time=0
note_on channel=0 note=61 velocity=44 time=0
note_on channel=0 note=46 velocity=34 time=0
control_change channel=0 control=64 value=0 time=8
control_change channel=0 control=64 value=127 time=108
note_on channel=0 note=46 velocity=0 time=364
note_on channel=0 note=64 velocity=0 time=0
note_on channel=0 note=52 velocity=0 time=0
note_on channel=0 note=66 velocity=0 time=0
note_on channel=0 note=61 velocity=0 time=0
note_on channel=0 note=57 velocity=46 time=0
note_on channel=0 note=63 velocity=46 time=0
note_on channel=0 note=66 velocity=55 time=0
note_on channel=0 note=35 velocity=29 time=0
note_on channel=0 note=47 velocity=38 time=0
control_change channel=0 control=64 value=0 time=10
note_on channel=0 note=66 velocity=0 time=0
note_on channel=0 note=69 velocity=38 time=0
note_on channel=0 note=69 velocity=0 time=0
note_on channel=0 note=67 velocity=41 time=0
note_on channel=0 note=67 velocity=0 time=0
note_on channel=0 note=66 velocity=32 time=0
note_on channel=0 note=66 velocity=0 time=0
note_on channel=0 note=47 velocity=0 time=0
note_on channel=0 note=57 velocity=0 time=0
note_on channel=0 note=63 velocity=0 time=0
note_on channel=0 note=35 velocity=0 time=0
note_on channel=0 note=55 velocity=30 time=0
note_on channel=0 note=64 velocity=36 time=0
note_on channel=0 note=52 velocity=22 time=0
note_on channel=0 note=40 velocity=18 time=0
note_on channel=0 note=40 velocity=0 time=480
note_on channel=0 note=55 velocity=0 time=0
note_on channel=0 note=64 velocity=0 time=0
note_on channel=0 note=52 velocity=0 time=0
note_on channel=0 note=55 velocity=30 time=0
note_on channel=0 note=67 velocity=36 time=0
note_on channel=0 note=31 velocity=25 time=0
note_on channel=0 note=43 velocity=30 time=0
note_on channel=0 note=43 velocity=0 time=120
note_on channel=0 note=55 velocity=0 time=0
note_on channel=0 note=67 velocity=0 time=0
note_on channel=0 note=31 velocity=0 time=0
note_on channel=0 note=67 velocity=41 time=0
note_on channel=0 note=55 velocity=34 time=0
note_on channel=0 note=31 velocity=28 time=0
note_on channel=0 note=43 velocity=34 time=0
control_change channel=0 control=64 value=127 time=85
note_on channel=0 note=43 velocity=0 time=0
note_on channel=0 note=67 velocity=0 time=0
note_on channel=0 note=55 velocity=0 time=0
note_on channel=0 note=31 velocity=0 time=0
note_on channel=0 note=60 velocity=30 time=0
note_on channel=0 note=72 velocity=36 time=0
note_on channel=0 note=36 velocity=25 time=0
note_on channel=0 note=48 velocity=30 time=0
control_change channel=0 control=64 value=0 time=14
note_on channel=0 note=48 velocity=0 time=106
note_on channel=0 note=60 velocity=0 time=0
note_on channel=0 note=72 velocity=0 time=0
note_on channel=0 note=36 velocity=0 time=0
note_on channel=0 note=72 velocity=42 time=0
note_on channel=0 note=60 velocity=35 time=0
note_on channel=0 note=36 velocity=28 time=0
note_on channel=0 note=48 velocity=34 time=0
control_change channel=0 control=64 value=127 time=156
note_on channel=0 note=48 velocity=0 time=0
note_on channel=0 note=72 velocity=0 time=0
note_on channel=0 note=60 velocity=0 time=0
note_on channel=0 note=36 velocity=0 time=0
note_on channel=0 note=67 velocity=30 time=0
note_on channel=0 note=79 velocity=36 time=0
note_on channel=0 note=43 velocity=25 time=0
note_on channel=0 note=55 velocity=30 time=0
control_change channel=0 control=64 value=0 time=15
note_on channel=0 note=55 velocity=0 time=105
note_on channel=0 note=67 velocity=0 time=0
note_on channel=0 note=79 velocity=0 time=0
note_on channel=0 note=43 velocity=0 time=0
note_on channel=0 note=79 velocity=40 time=0
note_on channel=0 note=67 velocity=34 time=0
note_on channel=0 note=43 velocity=28 time=0
note_on channel=0 note=55 velocity=34 time=0
control_change channel=0 control=64 value=127 time=120
note_on channel=0 note=55 velocity=0 time=0
note_on channel=0 note=79 velocity=0 time=0
note_on channel=0 note=67 velocity=0 time=0
note_on channel=0 note=43 velocity=0 time=0
note_on channel=0 note=84 velocity=36 time=0
note_on channel=0 note=72 velocity=30 time=0
note_on channel=0 note=48 velocity=25 time=0
note_on channel=0 note=60 velocity=30 time=0
control_change channel=0 control=64 value=0 time=8
note_on channel=0 note=60 velocity=0 time=112
note_on channel=0 note=84 velocity=0 time=0
note_on channel=0 note=72 velocity=0 time=0
note_on channel=0 note=48 velocity=0 time=0
note_on channel=0 note=72 velocity=34 time=0
note_on channel=0 note=84 velocity=41 time=0
note_on channel=0 note=48 velocity=28 time=0
note_on channel=0 note=60 velocity=34 time=0
control_change channel=0 control=64 value=127 time=81
note_on channel=0 note=60 velocity=0 time=0
note_on channel=0 note=72 velocity=0 time=0
note_on channel=0 note=84 velocity=0 time=0
note_on channel=0 note=48 velocity=0 time=0
note_on channel=0 note=77 velocity=70 time=0
note_on channel=0 note=86 velocity=70 time=0
note_on channel=0 note=89 velocity=82 time=0
note_on channel=0 note=59 velocity=54 time=0
note_on channel=0 note=62 velocity=54 time=0
note_on channel=0 note=65 velocity=54 time=0
note_on channel=0 note=67 velocity=65 time=0
control_change channel=0 control=64 value=0 time=13
note_on channel=0 note=67 velocity=0 time=107
note_on channel=0 note=62 velocity=0 time=0
note_on channel=0 note=86 velocity=0 time=0
note_on channel=0 note=89 velocity=0 time=0
note_on channel=0 note=77 velocity=0 time=0
note_on channel=0 note=65 velocity=0 time=0
note_on channel=0 note=59 velocity=0 time=0
note_on channel=0 note=77 velocity=76 time=0
note_on channel=0 note=86 velocity=76 time=0
note_on channel=0 note=89 velocity=90 time=0
note_on channel=0 note=59 velocity=59 time=0
note_on channel=0 note=62 velocity=59 time=0
note_on channel=0 note=65 velocity=59 time=0
note_on channel=0 note=67 velocity=71 time=0
note_on channel=0 note=67 velocity=0 time=720
note_on channel=0 note=62 velocity=0 time=0
note_on channel=0 note=86 velocity=0 time=0
note_on channel=0 note=89 velocity=0 time=0
note_on channel=0 note=77 velocity=0 time=0
note_on channel=0 note=65 velocity=0 time=0
note_on channel=0 note=59 velocity=0 time=0
note_on channel=0 note=88 velocity=70 time=0
note_on channel=0 note=86 velocity=69 time=120
note_on channel=0 note=88 velocity=0 time=12
note_on channel=0 note=84 velocity=68 time=60
note_on channel=0 note=86 velocity=0 time=12
note_on channel=0 note=83 velocity=68 time=108
note_on channel=0 note=84 velocity=0 time=12
note_on channel=0 note=81 velocity=68 time=108
note_on channel=0 note=83 velocity=0 time=12
note_on channel=0 note=79 velocity=66 time=108
note_on channel=0 note=81 velocity=0 time=12
note_on channel=0 note=77 velocity=64 time=30
note_on channel=0 note=79 velocity=0 time=12
note_on channel=0 note=76 velocity=64 time=108
note_on channel=0 note=77 velocity=0 time=12
note_on channel=0 note=74 velocity=64 time=108
note_on channel=0 note=76 velocity=0 time=12
note_on channel=0 note=72 velocity=64 time=108
note_on channel=0 note=74 velocity=0 time=12
note_on channel=0 note=71 velocity=63 time=0
note_on channel=0 note=72 velocity=0 time=12
note_on channel=0 note=69 velocity=63 time=68
note_on channel=0 note=71 velocity=0 time=8
note_on channel=0 note=67 velocity=63 time=72
note_on channel=0 note=69 velocity=0 time=8
note_on channel=0 note=65 velocity=63 time=72
note_on channel=0 note=67 velocity=0 time=8
note_on channel=0 note=64 velocity=63 time=72
note_on channel=0 note=65 velocity=0 time=8
note_on channel=0 note=62 velocity=63 time=72
note_on channel=0 note=64 velocity=0 time=8
note_on channel=0 note=60 velocity=63 time=0
note_on channel=0 note=62 velocity=0 time=8
note_on channel=0 note=59 velocity=63 time=6
note_on channel=0 note=60 velocity=0 time=10
note_on channel=0 note=57 velocity=63 time=12
note_on channel=0 note=59 velocity=0 time=10
note_on channel=0 note=55 velocity=62 time=18
note_on channel=0 note=57 velocity=0 time=10
note_on channel=0 note=54 velocity=62 time=24
note_on channel=0 note=55 velocity=0 time=4
note_on channel=0 note=55 velocity=89 time=0
note_on channel=0 note=54 velocity=0 time=10
note_on channel=0 note=55 velocity=0 time=230
note_on channel=0 note=65 velocity=40 time=0
note_on channel=0 note=62 velocity=34 time=0
note_on channel=0 note=55 velocity=34 time=0
note_on channel=0 note=47 velocity=29 time=0
note_on channel=0 note=35 velocity=24 time=0
note_on channel=0 note=35 velocity=0 time=120
note_on channel=0 note=55 velocity=0 time=0
note_on channel=0 note=65 velocity=0 time=0
note_on channel=0 note=62 velocity=0 time=0
note_on channel=0 note=47 velocity=0 time=0
note_on channel=0 note=64 velocity=45 time=0
note_on channel=0 note=60 velocity=38 time=0
note_on channel=0 note=55 velocity=38 time=0
note_on channel=0 note=36 velocity=29 time=0
note_on channel=0 note=48 velocity=35 time=0
note_on channel=0 note=48 velocity=0 time=240
note_on channel=0 note=55 velocity=0 time=0
note_on channel=0 note=64 velocity=0 time=0
note_on channel=0 note=60 velocity=0 time=0
note_on channel=0 note=36 velocity=0 time=0
note_on channel=0 note=74 velocity=76 time=0
note_on channel=0 note=80 velocity=76 time=0
note_on channel=0 note=83 velocity=76 time=0
note_on channel=0 note=86 velocity=90 time=0
note_on channel=0 note=52 velocity=59 time=0
note_on channel=0 note=56 velocity=59 time=0
note_on channel=0 note=59 velocity=59 time=0
note_on channel=0 note=62 velocity=71 time=0
note_on channel=0 note=62 velocity=0 time=120
note_on channel=0 note=74 velocity=0 time=0
note_on channel=0 note=52 velocity=0 time=0
note_on channel=0 note=80 velocity=0 time=0
note_on channel=0 note=83 velocity=0 time=0
note_on channel=0 note=86 velocity=0 time=0
note_on channel=0 note=56 velocity=0 time=0
note_on channel=0 note=59 velocity=0 time=0
note_on channel=0 note=74 velocity=84 time=0
note_on channel=0 note=80 velocity=84 time=0
note_on channel=0 note=83 velocity=84 time=0
note_on channel=0 note=86 velocity=98 time=0
note_on channel=0 note=52 velocity=65 time=0
note_on channel=0 note=56 velocity=65 time=0
note_on channel=0 note=59 velocity=65 time=0
note_on channel=0 note=62 velocity=77 time=0
note_on channel=0 note=62 velocity=0 time=720
note_on channel=0 note=74 velocity=0 time=0
note_on channel=0 note=52 velocity=0 time=0
note_on channel=0 note=80 velocity=0 time=0
note_on channel=0 note=83 velocity=0 time=0
note_on channel=0 note=86 velocity=0 time=0
note_on channel=0 note=56 velocity=0 time=0
note_on channel=0 note=59 velocity=0 time=0
note_on channel=0 note=84 velocity=70 time=0
note_on channel=0 note=83 velocity=69 time=120
note_on channel=0 note=84 velocity=0 time=12
note_on channel=0 note=81 velocity=68 time=60
note_on channel=0 note=83 velocity=0 time=12
note_on channel=0 note=80 velocity=68 time=108
note_on channel=0 note=81 velocity=0 time=12
note_on channel=0 note=78 velocity=68 time=108
note_on channel=0 note=80 velocity=0 time=12
note_on channel=0 note=76 velocity=66 time=108
note_on channel=0 note=78 velocity=0 time=12
note_on channel=0 note=74 velocity=64 time=30
note_on channel=0 note=76 velocity=0 time=12
note_on channel=0 note=72 velocity=64 time=108
note_on channel=0 note=74 velocity=0 time=12
note_on channel=0 note=71 velocity=64 time=108
note_on channel=0 note=72 velocity=0 time=12
note_on channel=0 note=69 velocity=64 time=108
note_on channel=0 note=71 velocity=0 time=12
note_on channel=0 note=68 velocity=63 time=0
note_on channel=0 note=69 velocity=0 time=12
note_on channel=0 note=66 velocity=63 time=68
note_on channel=0 note=68 velocity=0 time=8
note_on channel=0 note=64 velocity=63 time=72
note_on channel=0 note=66 velocity=0 time=8
note_on channel=0 note=62 velocity=63 time=72
note_on channel=0 note=64 velocity=0 time=8
note_on channel=0 note=60 velocity=63 time=72
note_on channel=0 note=62 velocity=0 time=8
note_on channel=0 note=59 velocity=63 time=72
note_on channel=0 note=60 velocity=0 time=8
note_on channel=0 note=57 velocity=63 time=0
note_on channel=0 note=59 velocity=0 time=8
note_on channel=0 note=56 velocity=63 time=6
note_on channel=0 note=57 velocity=0 time=10
note_on channel=0 note=54 velocity=63 time=12
note_on channel=0 note=56 velocity=0 time=10
note_on channel=0 note=52 velocity=62 time=18
note_on channel=0 note=54 velocity=0 time=10
note_on channel=0 note=51 velocity=62 time=24
note_on channel=0 note=52 velocity=0 time=4
note_on channel=0 note=52 velocity=89 time=0
note_on channel=0 note=51 velocity=0 time=10
note_on channel=0 note=52 velocity=0 time=470
note_on channel=0 note=62 velocity=40 time=0
note_on channel=0 note=59 velocity=34 time=0
note_on channel=0 note=52 velocity=34 time=0
note_on channel=0 note=44 velocity=29 time=0
note_on channel=0 note=32 velocity=24 time=0
note_on channel=0 note=32 velocity=0 time=120
note_on channel=0 note=52 velocity=0 time=0
note_on channel=0 note=62 velocity=0 time=0
note_on channel=0 note=59 velocity=0 time=0
note_on channel=0 note=44 velocity=0 time=0
note_on channel=0 note=60 velocity=45 time=0
note_on channel=0 note=57 velocity=38 time=0
note_on channel=0 note=52 velocity=38 time=0
note_on channel=0 note=33 velocity=29 time=0
note_on channel=0 note=45 velocity=35 time=0
note_on channel=0 note=45 velocity=0 time=240
note_on channel=0 note=52 velocity=0 time=0
note_on channel=0 note=60 velocity=0 time=0
note_on channel=0 note=57 velocity=0 time=0
note_on channel=0 note=33 velocity=0 time=0
note_on channel=0 note=84 velocity=43 time=0
note_on channel=0 note=41 velocity=31 time=0
note_on channel=0 note=48 velocity=31 time=0
note_on channel=0 note=57 velocity=37 time=0
note_on channel=0 note=57 velocity=0 time=240
note_on channel=0 note=84 velocity=0 time=0
note_on channel=0 note=41 velocity=0 time=0
note_on channel=0 note=48 velocity=0 time=0
note_on channel=0 note=84 velocity=45 time=0
note_on channel=0 note=41 velocity=31 time=0
note_on channel=0 note=48 velocity=31 time=0
note_on channel=0 note=57 velocity=37 time=0
note_on channel=0 note=84 velocity=0 time=720
note_on channel=0 note=82 velocity=42 time=0
note_on channel=0 note=82 velocity=0 time=57
note_on channel=0 note=81 velocity=42 time=0
note_on channel=0 note=81 velocity=0 time=27
note_on channel=0 note=79 velocity=40 time=0
note_on channel=0 note=79 velocity=0 time=27
note_on channel=0 note=77 velocity=40 time=0
note_on channel=0 note=77 velocity=0 time=27
note_on channel=0 note=76 velocity=40 time=0
note_on channel=0 note=76 velocity=0 time=27
note_on channel=0 note=74 velocity=40 time=0
note_on channel=0 note=74 velocity=0 time=120
note_on channel=0 note=72 velocity=40 time=0
note_on channel=0 note=72 velocity=0 time=117
note_on channel=0 note=70 velocity=40 time=0
note_on channel=0 note=70 velocity=0 time=117
note_on channel=0 note=69 velocity=39 time=0
note_on channel=0 note=69 velocity=0 time=117
note_on channel=0 note=67 velocity=39 time=0
note_on channel=0 note=67 velocity=0 time=117
note_on channel=0 note=66 velocity=37 time=0
note_on channel=0 note=66 velocity=0 time=63
note_on channel=0 note=64 velocity=36 time=0
note_on channel=0 note=64 velocity=0 time=39
note_on channel=0 note=62 velocity=35 time=0
note_on channel=0 note=62 velocity=0 time=45
note_on channel=0 note=60 velocity=35 time=0
note_on channel=0 note=60 velocity=0 time=21
note_on channel=0 note=58 velocity=40 time=0
note_on channel=0 note=41 velocity=0 time=47
note_on channel=0 note=57 velocity=0 time=0
note_on channel=0 note=48 velocity=0 time=0
note_on channel=0 note=58 velocity=0 time=10
note_on channel=0 note=57 velocity=42 time=0
note_on channel=0 note=41 velocity=31 time=0
note_on channel=0 note=48 velocity=36 time=0
note_on channel=0 note=57 velocity=0 time=467
note_on channel=0 note=48 velocity=0 time=0
note_on channel=0 note=41 velocity=0 time=0
note_on channel=0 note=57 velocity=42 time=0
note_on channel=0 note=41 velocity=31 time=0
note_on channel=0 note=48 velocity=36 time=0
control_change channel=0 control=64 value=127 time=0
note_on channel=0 note=48 velocity=0 time=0
note_on channel=0 note=41 velocity=0 time=0
note_on channel=0 note=57 velocity=0 time=0
note_on channel=0 note=57 velocity=45 time=0
note_on channel=0 note=63 velocity=53 time=0
note_on channel=0 note=48 velocity=40 time=0
note_on channel=0 note=41 velocity=34 time=0
control_change channel=0 control=64 value=0 time=13
control_change channel=0 control=64 value=127 time=51
note_on channel=0 note=41 velocity=0 time=368
note_on channel=0 note=57 velocity=0 time=0
note_on channel=0 note=63 velocity=0 time=0
note_on channel=0 note=48 velocity=0 time=0
note_on channel=0 note=57 velocity=45 time=0
note_on channel=0 note=63 velocity=53 time=0
note_on channel=0 note=41 velocity=39 time=0
note_on channel=0 note=48 velocity=46 time=0
note_on channel=0 note=48 velocity=0 time=0
note_on channel=0 note=57 velocity=0 time=0
note_on channel=0 note=63 velocity=0 time=0
note_on channel=0 note=41 velocity=0 time=0
note_on channel=0 note=63 velocity=53 time=0
note_on channel=0 note=69 velocity=53 time=0
note_on channel=0 note=42 velocity=45 time=0
note_on channel=0 note=48 velocity=45 time=0
note_on channel=0 note=57 velocity=53 time=0
control_change channel=0 control=64 value=0 time=13
control_change channel=0 control=64 value=127 time=75
note_on channel=0 note=57 velocity=0 time=344
note_on channel=0 note=42 velocity=0 time=0
note_on channel=0 note=63 velocity=0 time=0
note_on channel=0 note=69 velocity=0 time=0
note_on channel=0 note=48 velocity=0 time=0
note_on channel=0 note=63 velocity=59 time=0
note_on channel=0 note=69 velocity=59 time=0
note_on channel=0 note=42 velocity=50 time=0
note_on channel=0 note=57 velocity=59 time=0
note_on channel=0 note=48 velocity=50 time=0
note_on channel=0 note=48 velocity=0 time=0
note_on channel=0 note=42 velocity=0 time=0
note_on channel=0 note=63 velocity=0 time=0
note_on channel=0 note=69 velocity=0 time=0
note_on channel=0 note=57 velocity=0 time=0
note_on channel=0 note=63 velocity=53 time=0
note_on channel=0 note=69 velocity=53 time=0
note_on channel=0 note=75 velocity=63 time=0
note_on channel=0 note=42 velocity=45 time=0
note_on channel=0 note=48 velocity=45 time=0
note_on channel=0 note=57 velocity=53 time=0
control_change channel=0 control=64 value=0 time=14
control_change channel=0 control=64 value=127 time=53
note_on channel=0 note=57 velocity=0 time=365
note_on channel=0 note=69 velocity=0 time=0
note_on channel=0 note=75 velocity=0 time=0
note_on channel=0 note=63 velocity=0 time=0
note_on channel=0 note=48 velocity=0 time=0
note_on channel=0 note=42 velocity=0 time=0
note_on channel=0 note=63 velocity=57 time=0
note_on channel=0 note=75 velocity=68 time=0
note_on channel=0 note=69 velocity=57 time=0
note_on channel=0 note=42 velocity=54 time=0
note_on channel=0 note=57 velocity=64 time=0
note_on channel=0 note=48 velocity=54 time=0
note_on channel=0 note=48 velocity=0 time=0
note_on channel=0 note=75 velocity=0 time=0
note_on channel=0 note=69 velocity=0 time=0
note_on channel=0 note=63 velocity=0 time=0
note_on channel=0 note=57 velocity=0 time=0
note_on channel=0 note=42 velocity=0 time=0
note_on channel=0 note=75 velocity=58 time=0
note_on channel=0 note=72 velocity=58 time=0
note_on channel=0 note=81 velocity=58 time=0
note_on channel=0 note=84 velocity=69 time=0
note_on channel=0 note=42 velocity=49 time=0
note_on channel=0 note=48 velocity=49 time=0
note_on channel=0 note=57 velocity=59 time=0
control_change channel=0 control=64 value=0 time=14
control_change channel=0 control=64 value=127 time=43
note_on channel=0 note=57 velocity=0 time=375
note_on channel=0 note=42 velocity=0 time=0
note_on channel=0 note=72 velocity=0 time=0
note_on channel=0 note=81 velocity=0 time=0
note_on channel=0 note=75 velocity=0 time=0
note_on channel=0 note=48 velocity=0 time=0
note_on channel=0 note=84 velocity=0 time=0
note_on channel=0 note=72 velocity=66 time=48
note_on channel=0 note=75 velocity=66 time=0
note_on channel=0 note=81 velocity=66 time=0
note_on channel=0 note=84 velocity=78 time=0
note_on channel=0 note=42 velocity=58 time=0
note_on channel=0 note=47 velocity=58 time=0
note_on channel=0 note=57 velocity=58 time=0
control_change channel=0 control=64 value=0 time=8
control_change channel=0 control=64 value=127 time=259
note_on channel=0 note=84 velocity=0 time=0
note_on channel=0 note=81 velocity=0 time=0
note_on channel=0 note=72 velocity=0 time=0
note_on channel=0 note=75 velocity=0 time=0
note_on channel=0 note=71 velocity=68 time=0
note_on channel=0 note=75 velocity=68 time=0
note_on channel=0 note=81 velocity=68 time=0
note_on channel=0 note=83 velocity=80 time=0
control_change channel=0 control=64 value=0 time=16
control_change channel=0 control=64 value=127 time=181
note_on channel=0 note=83 velocity=0 time=0
note_on channel=0 note=75 velocity=0 time=0
note_on channel=0 note=71 velocity=0 time=0
note_on channel=0 note=81 velocity=0 time=0
note_on channel=0 note=70 velocity=71 time=0
note_on channel=0 note=75 velocity=71 time=0
note_on channel=0 note=82 velocity=84 time=0
control_change channel=0 control=64 value=0 time=12
control_change channel=0 control=64 value=127 time=121
note_on channel=0 note=82 velocity=0 time=0
note_on channel=0 note=57 velocity=0 time=0
note_on channel=0 note=47 velocity=0 time=0
note_on channel=0 note=42 velocity=0 time=0
note_on channel=0 note=75 velocity=0 time=0
note_on channel=0 note=70 velocity=0 time=0
note_on channel=0 note=71 velocity=69 time=0
note_on channel=0 note=83 velocity=82 time=0
note_on channel=0 note=81 velocity=69 time=0
note_on channel=0 note=75 velocity=69 time=0
note_on channel=0 note=57 velocity=75 time=0
note_on channel=0 note=47 velocity=63 time=0
note_on channel=0 note=42 velocity=63 time=0
control_change channel=0 control=64 value=0 time=21
control_change channel=0 control=64 value=127 time=42
note_on channel=0 note=42 velocity=0 time=369
note_on channel=0 note=57 velocity=0 time=0
note_on channel=0 note=83 velocity=0 time=0
note_on channel=0 note=81 velocity=0 time=0
note_on channel=0 note=71 velocity=0 time=0
note_on channel=0 note=47 velocity=0 time=0
note_on channel=0 note=75 velocity=0 time=0
note_on channel=0 note=71 velocity=80 time=0
note_on channel=0 note=76 velocity=80 time=0
note_on channel=0 note=83 velocity=95 time=0
note_on channel=0 note=55 velocity=48 time=0
note_on channel=0 note=47 velocity=40 time=0
note_on channel=0 note=43 velocity=40 time=0
control_change channel=0 control=64 value=0 time=7
note_on channel=0 note=43 velocity=0 time=113
note_on channel=0 note=55 velocity=0 time=0
note_on channel=0 note=47 velocity=0 time=0
control_change channel=0 control=64 value=127 time=0
note_on channel=0 note=55 velocity=33 time=120
note_on channel=0 note=59 velocity=40 time=0
note_on channel=0 note=59 velocity=0 time=120
note_on channel=0 note=55 velocity=0 time=0
note_on channel=0 note=55 velocity=33 time=120
note_on channel=0 note=59 velocity=40 time=0
note_on channel=0 note=59 velocity=0 time=120
note_on channel=0 note=55 velocity=0 time=0
note_on channel=0 note=55 velocity=33 time=120
note_on channel=0 note=59 velocity=40 time=0
note_on channel=0 note=59 velocity=0 time=120
note_on channel=0 note=55 velocity=0 time=0
note_on channel=0 note=55 velocity=33 time=0
note_on channel=0 note=59 velocity=40 time=0
note_on channel=0 note=59 velocity=0 time=120
note_on channel=0 note=55 velocity=0 time=0
note_on channel=0 note=55 velocity=33 time=0
note_on channel=0 note=59 velocity=40 time=0
note_on channel=0 note=59 velocity=0 time=120
note_on channel=0 note=55 velocity=0 time=0
note_on channel=0 note=76 velocity=0 time=0
note_on channel=0 note=83 velocity=0 time=0
note_on channel=0 note=71 velocity=0 time=0
note_on channel=0 note=76 velocity=80 time=0
note_on channel=0 note=88 velocity=94 time=0
note_on channel=0 note=59 velocity=48 time=0
note_on channel=0 note=56 velocity=40 time=0
control_change channel=0 control=64 value=0 time=9
control_change channel=0 control=64 value=127 time=48
note_on channel=0 note=56 velocity=0 time=63
note_on channel=0 note=59 velocity=0 time=0
note_on channel=0 note=56 velocity=34 time=120
note_on channel=0 note=59 velocity=41 time=0
note_on channel=0 note=59 velocity=0 time=120
note_on channel=0 note=56 velocity=0 time=0
note_on channel=0 note=56 velocity=34 time=120
note_on channel=0 note=59 velocity=41 time=0
note_on channel=0 note=59 velocity=0 time=120
note_on channel=0 note=56 velocity=0 time=0
note_on channel=0 note=56 velocity=34 time=120
note_on channel=0 note=59 velocity=41 time=0
note_on channel=0 note=59 velocity=0 time=120
note_on channel=0 note=56 velocity=0 time=0
note_on channel=0 note=56 velocity=34 time=120
note_on channel=0 note=59 velocity=41 time=0
note_on channel=0 note=59 velocity=0 time=120
note_on channel=0 note=56 velocity=0 time=0
note_on channel=0 note=56 velocity=34 time=0
note_on channel=0 note=59 velocity=41 time=0
note_on channel=0 note=59 velocity=0 time=120
note_on channel=0 note=56 velocity=0 time=0
note_on channel=0 note=88 velocity=0 time=0
note_on channel=0 note=76 velocity=0 time=0
note_on channel=0 note=71 velocity=41 time=0
note_on channel=0 note=74 velocity=41 time=0
note_on channel=0 note=76 velocity=49 time=0
note_on channel=0 note=62 velocity=44 time=0
note_on channel=0 note=59 velocity=37 time=0
note_on channel=0 note=56 velocity=37 time=0
control_change channel=0 control=64 value=0 time=0
note_on channel=0 note=56 velocity=0 time=120
note_on channel=0 note=74 velocity=0 time=0
note_on channel=0 note=76 velocity=0 time=0
note_on channel=0 note=71 velocity=0 time=0
note_on channel=0 note=59 velocity=0 time=0
note_on channel=0 note=62 velocity=0 time=0
note_on channel=0 note=62 velocity=34 time=115
note_on channel=0 note=56 velocity=28 time=5
note_on channel=0 note=59 velocity=28 time=0
note_on channel=0 note=62 velocity=0 time=115
note_on channel=0 note=59 velocity=0 time=5
note_on channel=0 note=56 velocity=0 time=0
note_on channel=0 note=72 velocity=49 time=0
note_on channel=0 note=77 velocity=59 time=0
note_on channel=0 note=65 velocity=49 time=0
note_on channel=0 note=60 velocity=44 time=0
note_on channel=0 note=57 velocity=37 time=0
note_on channel=0 note=57 velocity=0 time=120
note_on channel=0 note=65 velocity=0 time=0
note_on channel=0 note=72 velocity=0 time=0
note_on channel=0 note=77 velocity=0 time=0
note_on channel=0 note=60 velocity=0 time=0
note_on channel=0 note=60 velocity=37 time=120
note_on channel=0 note=57 velocity=30 time=0
note_on channel=0 note=57 velocity=0 time=120
note_on channel=0 note=60 velocity=0 time=0
note_on channel=0 note=60 velocity=37 time=120
note_on channel=0 note=57 velocity=30 time=0
note_on channel=0 note=57 velocity=0 time=120
note_on channel=0 note=60 velocity=0 time=0
note_on channel=0 note=60 velocity=37 time=120
note_on channel=0 note=57 velocity=30 time=0
note_on channel=0 note=57 velocity=0 time=120
note_on channel=0 note=60 velocity=0 time=0
note_on channel=0 note=76 velocity=47 time=0
note_on channel=0 note=77 velocity=56 time=0
note_on channel=0 note=72 velocity=47 time=0
note_on channel=0 note=64 velocity=45 time=0
note_on channel=0 note=60 velocity=37 time=0
note_on channel=0 note=57 velocity=37 time=0
note_on channel=0 note=57 velocity=0 time=120
note_on channel=0 note=77 velocity=0 time=0
note_on channel=0 note=72 velocity=0 time=0
note_on channel=0 note=76 velocity=0 time=0
note_on channel=0 note=60 velocity=0 time=0
note_on channel=0 note=64 velocity=0 time=0
note_on channel=0 note=64 velocity=37 time=120
note_on channel=0 note=60 velocity=30 time=0
note_on channel=0 note=57 velocity=30 time=0
note_on channel=0 note=57 velocity=0 time=120
note_on channel=0 note=60 velocity=0 time=0
note_on channel=0 note=64 velocity=0 time=0
note_on channel=0 note=74 velocity=49 time=0
note_on channel=0 note=80 velocity=59 time=0
note_on channel=0 note=68 velocity=49 time=0
note_on channel=0 note=62 velocity=44 time=0
note_on channel=0 note=59 velocity=37 time=0
note_on channel=0 note=59 velocity=0 time=120
note_on channel=0 note=68 velocity=0 time=0
note_on channel=0 note=74 velocity=0 time=0
note_on channel=0 note=80 velocity=0 time=0
note_on channel=0 note=62 velocity=0 time=0
note_on channel=0 note=59 velocity=31 time=120
note_on channel=0 note=62 velocity=38 time=0
note_on channel=0 note=62 velocity=0 time=120
note_on channel=0 note=59 velocity=0 time=0
note_on channel=0 note=59 velocity=31 time=0
note_on channel=0 note=62 velocity=38 time=0
note_on channel=0 note=62 velocity=0 time=120
note_on channel=0 note=59 velocity=0 time=0
note_on channel=0 note=59 velocity=31 time=120
note_on channel=0 note=62 velocity=38 time=0
note_on channel=0 note=62 velocity=0 time=120
note_on channel=0 note=59 velocity=0 time=0
note_on channel=0 note=76 velocity=48 time=0
note_on channel=0 note=74 velocity=48 time=0
note_on channel=0 note=80 velocity=57 time=0
note_on channel=0 note=68 velocity=48 time=0
note_on channel=0 note=64 velocity=44 time=0
note_on channel=0 note=62 velocity=37 time=0
note_on channel=0 note=59 velocity=37 time=0
note_on channel=0 note=59 velocity=0 time=120
note_on channel=0 note=64 velocity=0 time=0
note_on channel=0 note=74 velocity=0 time=0
note_on channel=0 note=80 velocity=0 time=0
note_on channel=0 note=76 velocity=0 time=0
note_on channel=0 note=62 velocity=0 time=0
note_on channel=0 note=68 velocity=0 time=0
note_on channel=0 note=59 velocity=30 time=120
note_on channel=0 note=62 velocity=30 time=0
note_on channel=0 note=64 velocity=37 time=0
note_on channel=0 note=64 velocity=0 time=120
note_on channel=0 note=62 velocity=0 time=0
note_on channel=0 note=59 velocity=0 time=0
note_on channel=0 note=76 velocity=53 time=120
note_on channel=0 note=81 velocity=63 time=0
note_on channel=0 note=69 velocity=53 time=0
note_on channel=0 note=64 velocity=44 time=0
note_on channel=0 note=60 velocity=37 time=0
note_on channel=0 note=60 velocity=0 time=120
note_on channel=0 note=69 velocity=0 time=0
note_on channel=0 note=76 velocity=0 time=0
note_on channel=0 note=81 velocity=0 time=0
note_on channel=0 note=64 velocity=0 time=0
note_on channel=0 note=60 velocity=33 time=120
note_on channel=0 note=64 velocity=39 time=0
note_on channel=0 note=64 velocity=0 time=120
note_on channel=0 note=60 velocity=0 time=0
note_on channel=0 note=60 velocity=33 time=0
note_on channel=0 note=64 velocity=39 time=0
note_on channel=0 note=64 velocity=0 time=120
note_on channel=0 note=60 velocity=0 time=0
note_on channel=0 note=60 velocity=33 time=120
note_on channel=0 note=64 velocity=39 time=0
note_on channel=0 note=64 velocity=0 time=120
note_on channel=0 note=60 velocity=0 time=0
note_on channel=0 note=81 velocity=60 time=0
note_on channel=0 note=76 velocity=50 time=0
note_on channel=0 note=60 velocity=41 time=0
note_on channel=0 note=64 velocity=49 time=0
note_on channel=0 note=64 velocity=0 time=120
note_on channel=0 note=81 velocity=0 time=0
note_on channel=0 note=76 velocity=0 time=0
note_on channel=0 note=60 velocity=0 time=0
note_on channel=0 note=61 velocity=37 time=120
note_on channel=0 note=64 velocity=44 time=0
note_on channel=0 note=64 velocity=0 time=120
note_on channel=0 note=61 velocity=0 time=0
note_on channel=0 note=79 velocity=55 time=120
note_on channel=0 note=76 velocity=55 time=0
note_on channel=0 note=82 velocity=64 time=0
note_on channel=0 note=70 velocity=55 time=0
note_on channel=0 note=61 velocity=39 time=0
note_on channel=0 note=64 velocity=47 time=0
note_on channel=0 note=64 velocity=0 time=120
note_on channel=0 note=76 velocity=0 time=0
note_on channel=0 note=82 velocity=0 time=0
note_on channel=0 note=79 velocity=0 time=0
note_on channel=0 note=61 velocity=0 time=0
note_on channel=0 note=70 velocity=0 time=0
note_on channel=0 note=61 velocity=35 time=120
note_on channel=0 note=64 velocity=41 time=0
note_on channel=0 note=64 velocity=0 time=120
note_on channel=0 note=61 velocity=0 time=0
note_on channel=0 note=61 velocity=36 time=0
note_on channel=0 note=64 velocity=42 time=0
note_on channel=0 note=64 velocity=0 time=120
note_on channel=0 note=61 velocity=0 time=0
note_on channel=0 note=61 velocity=36 time=120
note_on channel=0 note=64 velocity=42 time=0
note_on channel=0 note=64 velocity=0 time=120
note_on channel=0 note=61 velocity=0 time=0
note_on channel=0 note=73 velocity=39 time=0
note_on channel=0 note=76 velocity=39 time=0
note_on channel=0 note=81 velocity=46 time=0
note_on channel=0 note=66 velocity=34 time=0
control_change channel=0 control=64 value=127 time=49
note_on channel=0 note=66 velocity=0 time=68
note_on channel=0 note=73 velocity=0 time=0
note_on channel=0 note=76 velocity=0 time=0
note_on channel=0 note=81 velocity=0 time=0
note_on channel=0 note=82 velocity=38 time=120
note_on channel=0 note=76 velocity=32 time=0
note_on channel=0 note=73 velocity=32 time=0
note_on channel=0 note=66 velocity=32 time=0
control_change channel=0 control=64 value=0 time=13
control_change channel=0 control=64 value=127 time=90
note_on channel=0 note=66 velocity=0 time=17
note_on channel=0 note=82 velocity=0 time=0
note_on channel=0 note=76 velocity=0 time=0
note_on channel=0 note=73 velocity=0 time=0
note_on channel=0 note=82 velocity=38 time=120
note_on channel=0 note=76 velocity=32 time=0
note_on channel=0 note=73 velocity=32 time=0
note_on channel=0 note=66 velocity=32 time=0
note_on channel=0 note=66 velocity=0 time=120
note_on channel=0 note=82 velocity=0 time=0
note_on channel=0 note=76 velocity=0 time=0
note_on channel=0 note=73 velocity=0 time=0
note_on channel=0 note=82 velocity=38 time=120
note_on channel=0 note=76 velocity=32 time=0
note_on channel=0 note=73 velocity=32 time=0
note_on channel=0 note=66 velocity=32 time=0
note_on channel=0 note=66 velocity=0 time=87
note_on channel=0 note=82 velocity=0 time=0
note_on channel=0 note=76 velocity=0 time=0
note_on channel=0 note=73 velocity=0 time=0
note_on channel=0 note=82 velocity=38 time=120
note_on channel=0 note=76 velocity=32 time=0
note_on channel=0 note=73 velocity=32 time=0
note_on channel=0 note=66 velocity=32 time=0
note_on channel=0 note=66 velocity=0 time=120
note_on channel=0 note=82 velocity=0 time=0
note_on channel=0 note=76 velocity=0 time=0
note_on channel=0 note=73 velocity=0 time=0
note_on channel=0 note=82 velocity=38 time=120
note_on channel=0 note=76 velocity=32 time=0
note_on channel=0 note=73 velocity=32 time=0
note_on channel=0 note=66 velocity=32 time=0
note_on channel=0 note=66 velocity=0 time=120
note_on channel=0 note=82 velocity=0 time=0
note_on channel=0 note=76 velocity=0 time=0
note_on channel=0 note=73 velocity=0 time=0
note_on channel=0 note=73 velocity=39 time=120
note_on channel=0 note=76 velocity=39 time=0
note_on channel=0 note=82 velocity=46 time=0
note_on channel=0 note=66 velocity=40 time=0
control_change channel=0 control=64 value=0 time=6
control_change channel=0 control=64 value=127 time=19
note_on channel=0 note=66 velocity=0 time=68
note_on channel=0 note=73 velocity=0 time=0
note_on channel=0 note=76 velocity=0 time=0
note_on channel=0 note=82 velocity=0 time=0
note_on channel=0 note=82 velocity=52 time=120
note_on channel=0 note=76 velocity=44 time=0
note_on channel=0 note=73 velocity=44 time=0
note_on channel=0 note=66 velocity=45 time=0
note_on channel=0 note=66 velocity=0 time=120
note_on channel=0 note=82 velocity=0 time=0
note_on channel=0 note=76 velocity=0 time=0
note_on channel=0 note=73 velocity=0 time=0
note_on channel=0 note=82 velocity=58 time=120
note_on channel=0 note=76 velocity=48 time=0
note_on channel=0 note=73 velocity=48 time=0
note_on channel=0 note=66 velocity=49 time=0
note_on channel=0 note=66 velocity=0 time=120
note_on channel=0 note=82 velocity=0 time=0
note_on channel=0 note=76 velocity=0 time=0
note_on channel=0 note=73 velocity=0 time=0
note_on channel=0 note=82 velocity=63 time=120
note_on channel=0 note=76 velocity=53 time=0
note_on channel=0 note=73 velocity=53 time=0
note_on channel=0 note=66 velocity=52 time=0
note_on channel=0 note=66 velocity=0 time=120
note_on channel=0 note=82 velocity=0 time=0
note_on channel=0 note=76 velocity=0 time=0
note_on channel=0 note=73 velocity=0 time=0
note_on channel=0 note=82 velocity=69 time=120
note_on channel=0 note=76 velocity=59 time=0
note_on channel=0 note=73 velocity=59 time=0
note_on channel=0 note=66 velocity=56 time=0
note_on channel=0 note=66 velocity=0 time=120
note_on channel=0 note=82 velocity=0 time=0
note_on channel=0 note=76 velocity=0 time=0
note_on channel=0 note=73 velocity=0 time=0
note_on channel=0 note=82 velocity=75 time=27
note_on channel=0 note=76 velocity=63 time=0
note_on channel=0 note=73 velocity=63 time=0
note_on channel=0 note=66 velocity=58 time=0
note_on channel=0 note=66 velocity=0 time=120
note_on channel=0 note=82 velocity=0 time=0
note_on channel=0 note=76 velocity=0 time=0
note_on channel=0 note=73 velocity=0 time=0
note_on channel=0 note=83 velocity=91 time=27
note_on channel=0 note=59 velocity=60 time=0
note_on channel=0 note=63 velocity=60 time=0
note_on channel=0 note=66 velocity=60 time=0
note_on channel=0 note=69 velocity=71 time=0
control_change channel=0 control=64 value=0 time=0
note_on channel=0 note=69 velocity=0 time=120
note_on channel=0 note=63 velocity=0 time=0
note_on channel=0 note=83 velocity=0 time=0
note_on channel=0 note=59 velocity=0 time=0
note_on channel=0 note=66 velocity=0 time=0
note_on channel=0 note=84 velocity=70 time=120
note_on channel=0 note=96 velocity=83 time=0
note_on channel=0 note=69 velocity=59 time=0
note_on channel=0 note=66 velocity=49 time=0
note_on channel=0 note=63 velocity=49 time=0
note_on channel=0 note=59 velocity=49 time=0
control_change channel=0 control=64 value=127 time=50
note_on channel=0 note=59 velocity=0 time=70
note_on channel=0 note=96 velocity=0 time=0
note_on channel=0 note=69 velocity=0 time=0
note_on channel=0 note=84 velocity=0 time=0
note_on channel=0 note=63 velocity=0 time=0
note_on channel=0 note=66 velocity=0 time=0
note_on channel=0 note=84 velocity=70 time=120
note_on channel=0 note=96 velocity=83 time=0
note_on channel=0 note=69 velocity=59 time=0
note_on channel=0 note=66 velocity=49 time=0
note_on channel=0 note=63 velocity=49 time=0
note_on channel=0 note=59 velocity=49 time=0
note_on channel=0 note=59 velocity=0 time=120
note_on channel=0 note=96 velocity=0 time=0
note_on channel=0 note=69 velocity=0 time=0
note_on channel=0 note=84 velocity=0 time=0
note_on channel=0 note=63 velocity=0 time=0
note_on channel=0 note=66 velocity=0 time=0
note_on channel=0 note=84 velocity=70 time=120
note_on channel=0 note=96 velocity=83 time=0
note_on channel=0 note=69 velocity=59 time=0
note_on channel=0 note=66 velocity=49 time=0
note_on channel=0 note=63 velocity=49 time=0
note_on channel=0 note=59 velocity=49 time=0
note_on channel=0 note=59 velocity=0 time=120
note_on channel=0 note=96 velocity=0 time=0
note_on channel=0 note=69 velocity=0 time=0
note_on channel=0 note=84 velocity=0 time=0
note_on channel=0 note=63 velocity=0 time=0
note_on channel=0 note=66 velocity=0 time=0
note_on channel=0 note=84 velocity=70 time=120
note_on channel=0 note=96 velocity=83 time=0
note_on channel=0 note=69 velocity=59 time=0
note_on channel=0 note=66 velocity=49 time=0
note_on channel=0 note=63 velocity=49 time=0
note_on channel=0 note=59 velocity=49 time=0
note_on channel=0 note=59 velocity=0 time=120
note_on channel=0 note=96 velocity=0 time=0
note_on channel=0 note=69 velocity=0 time=0
note_on channel=0 note=84 velocity=0 time=0
note_on channel=0 note=63 velocity=0 time=0
note_on channel=0 note=66 velocity=0 time=0
note_on channel=0 note=84 velocity=70 time=0
note_on channel=0 note=96 velocity=83 time=0
note_on channel=0 note=69 velocity=59 time=0
note_on channel=0 note=66 velocity=49 time=0
note_on channel=0 note=63 velocity=49 time=0
note_on channel=0 note=59 velocity=49 time=0
note_on channel=0 note=59 velocity=0 time=120
note_on channel=0 note=96 velocity=0 time=0
note_on channel=0 note=69 velocity=0 time=0
note_on channel=0 note=84 velocity=0 time=0
note_on channel=0 note=63 velocity=0 time=0
note_on channel=0 note=66 velocity=0 time=0
note_on channel=0 note=84 velocity=71 time=120
note_on channel=0 note=96 velocity=85 time=0
note_on channel=0 note=69 velocity=64 time=0
note_on channel=0 note=66 velocity=53 time=0
note_on channel=0 note=63 velocity=53 time=0
note_on channel=0 note=59 velocity=53 time=0
note_on channel=0 note=59 velocity=0 time=57
note_on channel=0 note=96 velocity=0 time=0
note_on channel=0 note=69 velocity=0 time=0
note_on channel=0 note=84 velocity=0 time=0
note_on channel=0 note=63 velocity=0 time=0
note_on channel=0 note=66 velocity=0 time=0
note_on channel=0 note=84 velocity=65 time=27
note_on channel=0 note=96 velocity=77 time=0
note_on channel=0 note=59 velocity=51 time=0
note_on channel=0 note=63 velocity=51 time=0
note_on channel=0 note=66 velocity=51 time=0
note_on channel=0 note=69 velocity=60 time=0
note_on channel=0 note=69 velocity=0 time=57
note_on channel=0 note=96 velocity=0 time=0
note_on channel=0 note=59 velocity=0 time=0
note_on channel=0 note=84 velocity=0 time=0
note_on channel=0 note=66 velocity=0 time=0
note_on channel=0 note=63 velocity=0 time=0
note_on channel=0 note=84 velocity=63 time=27
note_on channel=0 note=96 velocity=74 time=0
note_on channel=0 note=59 velocity=47 time=0
note_on channel=0 note=63 velocity=47 time=0
note_on channel=0 note=66 velocity=47 time=0
note_on channel=0 note=69 velocity=57 time=0
note_on channel=0 note=69 velocity=0 time=57
note_on channel=0 note=96 velocity=0 time=0
note_on channel=0 note=59 velocity=0 time=0
note_on channel=0 note=84 velocity=0 time=0
note_on channel=0 note=66 velocity=0 time=0
note_on channel=0 note=63 velocity=0 time=0
note_on channel=0 note=84 velocity=57 time=27
note_on channel=0 note=96 velocity=67 time=0
note_on channel=0 note=59 velocity=44 time=0
note_on channel=0 note=63 velocity=44 time=0
note_on channel=0 note=66 velocity=44 time=0
note_on channel=0 note=69 velocity=52 time=0
note_on channel=0 note=69 velocity=0 time=57
note_on channel=0 note=96 velocity=0 time=0
note_on channel=0 note=59 velocity=0 time=0
note_on channel=0 note=84 velocity=0 time=0
note_on channel=0 note=66 velocity=0 time=0
note_on channel=0 note=63 velocity=0 time=0
note_on channel=0 note=84 velocity=51 time=27
note_on channel=0 note=96 velocity=60 time=0
note_on channel=0 note=59 velocity=39 time=0
note_on channel=0 note=63 velocity=39 time=0
note_on channel=0 note=66 velocity=39 time=0
note_on channel=0 note=69 velocity=47 time=0
note_on channel=0 note=69 velocity=0 time=57
note_on channel=0 note=96 velocity=0 time=0
note_on channel=0 note=59 velocity=0 time=0
note_on channel=0 note=84 velocity=0 time=0
note_on channel=0 note=66 velocity=0 time=0
note_on channel=0 note=63 velocity=0 time=0
note_on channel=0 note=84 velocity=47 time=0
note_on channel=0 note=96 velocity=56 time=0
note_on channel=0 note=59 velocity=39 time=0
note_on channel=0 note=63 velocity=39 time=0
note_on channel=0 note=66 velocity=39 time=0
note_on channel=0 note=69 velocity=46 time=0
note_on channel=0 note=69 velocity=0 time=120
note_on channel=0 note=96 velocity=0 time=0
note_on channel=0 note=59 velocity=0 time=0
note_on channel=0 note=84 velocity=0 time=0
note_on channel=0 note=66 velocity=0 time=0
note_on channel=0 note=63 velocity=0 time=0
note_on channel=0 note=96 velocity=56 time=0
note_on channel=0 note=84 velocity=56 time=0
note_on channel=0 note=52 velocity=40 time=0
control_change channel=0 control=64 value=0 time=0
control_change channel=0 control=64 value=127 time=52
note_on channel=0 note=52 velocity=0 time=68
note_on channel=0 note=67 velocity=34 time=0
note_on channel=0 note=67 velocity=0 time=120
note_on channel=0 note=59 velocity=37 time=0
note_on channel=0 note=59 velocity=0 time=120
note_on channel=0 note=67 velocity=34 time=0
note_on channel=0 note=67 velocity=0 time=120
note_on channel=0 note=84 velocity=0 time=0
note_on channel=0 note=96 velocity=0 time=0
note_on channel=0 note=95 velocity=56 time=0
note_on channel=0 note=83 velocity=56 time=0
note_on channel=0 note=54 velocity=40 time=0
control_change channel=0 control=64 value=0 time=6
control_change channel=0 control=64 value=127 time=46
note_on channel=0 note=54 velocity=0 time=68
note_on channel=0 note=69 velocity=34 time=0
note_on channel=0 note=69 velocity=0 time=120
note_on channel=0 note=59 velocity=37 time=0
note_on channel=0 note=59 velocity=0 time=120
note_on channel=0 note=69 velocity=34 time=0
note_on channel=0 note=69 velocity=0 time=120
note_on channel=0 note=55 velocity=40 time=0
control_change channel=0 control=64 value=0 time=17
control_change channel=0 control=64 value=127 time=46
note_on channel=0 note=55 velocity=0 time=57
note_on channel=0 note=71 velocity=35 time=0
note_on channel=0 note=71 velocity=0 time=120
note_on channel=0 note=59 velocity=38 time=0
note_on channel=0 note=59 velocity=0 time=120
note_on channel=0 note=71 velocity=35 time=0
note_on channel=0 note=71 velocity=0 time=120
note_on channel=0 note=52 velocity=40 time=0
note_on channel=0 note=52 velocity=0 time=120
note_on channel=0 note=67 velocity=34 time=0
note_on channel=0 note=67 velocity=0 time=120
note_on channel=0 note=59 velocity=37 time=0
note_on channel=0 note=59 velocity=0 time=120
note_on channel=0 note=67 velocity=34 time=0
note_on channel=0 note=67 velocity=0 time=120
note_on channel=0 note=83 velocity=0 time=0
note_on channel=0 note=95 velocity=0 time=0
note_on channel=0 note=76 velocity=56 time=0
note_on channel=0 note=88 velocity=56 time=0
note_on channel=0 note=54 velocity=40 time=0
control_change channel=0 control=64 value=0 time=52
control_change channel=0 control=64 value=127 time=63
note_on channel=0 note=54 velocity=0 time=5
note_on channel=0 note=69 velocity=34 time=0
note_on channel=0 note=69 velocity=0 time=120
note_on channel=0 note=59 velocity=37 time=0
note_on channel=0 note=59 velocity=0 time=120
note_on channel=0 note=69 velocity=34 time=0
note_on channel=0 note=69 velocity=0 time=120
note_on channel=0 note=55 velocity=40 time=0
control_change channel=0 control=64 value=0 time=12
control_change channel=0 control=64 value=127 time=57
note_on channel=0 note=55 velocity=0 time=51
note_on channel=0 note=71 velocity=35 time=0
note_on channel=0 note=71 velocity=0 time=120
note_on channel=0 note=59 velocity=38 time=0
note_on channel=0 note=59 velocity=0 time=120
note_on channel=0 note=71 velocity=35 time=0
note_on channel=0 note=71 velocity=0 time=120
note_on channel=0 note=52 velocity=40 time=0
note_on channel=0 note=52 velocity=0 time=120
note_on channel=0 note=67 velocity=34 time=0
note_on channel=0 note=67 velocity=0 time=120
note_on channel=0 note=59 velocity=37 time=0
note_on channel=0 note=59 velocity=0 time=120
note_on channel=0 note=67 velocity=34 time=0
note_on channel=0 note=67 velocity=0 time=120
note_on channel=0 note=88 velocity=0 time=0
note_on channel=0 note=76 velocity=0 time=0
note_on channel=0 note=71 velocity=56 time=0
note_on channel=0 note=83 velocity=56 time=0
note_on channel=0 note=54 velocity=40 time=0
control_change channel=0 control=64 value=0 time=9
control_change channel=0 control=64 value=127 time=94
note_on channel=0 note=54 velocity=0 time=17
note_on channel=0 note=69 velocity=34 time=0
note_on channel=0 note=69 velocity=0 time=120
note_on channel=0 note=59 velocity=37 time=0
note_on channel=0 note=59 velocity=0 time=120
note_on channel=0 note=69 velocity=34 time=0
note_on channel=0 note=69 velocity=0 time=120
note_on channel=0 note=55 velocity=40 time=0
control_change channel=0 control=64 value=0 time=15
control_change channel=0 control=64 value=127 time=82
note_on channel=0 note=55 velocity=0 time=23
note_on channel=0 note=71 velocity=35 time=0
note_on channel=0 note=71 velocity=0 time=120
note_on channel=0 note=59 velocity=38 time=0
note_on channel=0 note=59 velocity=0 time=120
note_on channel=0 note=71 velocity=35 time=0
note_on channel=0 note=71 velocity=0 time=120
note_on channel=0 note=52 velocity=40 time=0
note_on channel=0 note=52 velocity=0 time=120
note_on channel=0 note=67 velocity=34 time=0
note_on channel=0 note=67 velocity=0 time=120
note_on channel=0 note=59 velocity=37 time=0
note_on channel=0 note=59 velocity=0 time=120
note_on channel=0 note=67 velocity=34 time=0
note_on channel=0 note=67 velocity=0 time=120
note_on channel=0 note=83 velocity=0 time=0
note_on channel=0 note=71 velocity=0 time=0
note_on channel=0 note=64 velocity=56 time=0
note_on channel=0 note=76 velocity=56 time=0
note_on channel=0 note=54 velocity=40 time=0
control_change channel=0 control=64 value=0 time=17
control_change channel=0 control=64 value=127 time=52
note_on channel=0 note=54 velocity=0 time=51
note_on channel=0 note=69 velocity=34 time=0
note_on channel=0 note=69 velocity=0 time=120
note_on channel=0 note=59 velocity=37 time=0
note_on channel=0 note=59 velocity=0 time=120
note_on channel=0 note=69 velocity=34 time=0
note_on channel=0 note=69 velocity=0 time=120
note_on channel=0 note=55 velocity=40 time=0
control_change channel=0 control=64 value=0 time=19
control_change channel=0 control=64 value=127 time=67
note_on channel=0 note=55 velocity=0 time=34
note_on channel=0 note=71 velocity=35 time=0
note_on channel=0 note=71 velocity=0 time=120
note_on channel=0 note=59 velocity=38 time=0
note_on channel=0 note=59 velocity=0 time=120
note_on channel=0 note=71 velocity=35 time=0
note_on channel=0 note=71 velocity=0 time=120
note_on channel=0 note=64 velocity=0 time=0
note_on channel=0 note=57 velocity=40 time=0
control_change channel=0 control=64 value=0 time=0
control_change channel=0 control=64 value=127 time=75
note_on channel=0 note=57 velocity=0 time=45
note_on channel=0 note=67 velocity=34 time=0
note_on channel=0 note=67 velocity=0 time=120
note_on channel=0 note=64 velocity=37 time=0
note_on channel=0 note=64 velocity=0 time=120
note_on channel=0 note=67 velocity=34 time=0
note_on channel=0 note=67 velocity=0 time=120
note_on channel=0 note=76 velocity=0 time=0
note_on channel=0 note=72 velocity=63 time=0
note_on channel=0 note=58 velocity=49 time=0
control_change channel=0 control=64 value=0 time=19
control_change channel=0 control=64 value=127 time=44
note_on channel=0 note=58 velocity=0 time=57
note_on channel=0 note=67 velocity=34 time=0
note_on channel=0 note=67 velocity=0 time=0
note_on channel=0 note=64 velocity=42 time=0
note_on channel=0 note=64 velocity=0 time=120
note_on channel=0 note=67 velocity=34 time=0
note_on channel=0 note=67 velocity=0 time=120
note_on channel=0 note=72 velocity=0 time=0
note_on channel=0 note=71 velocity=57 time=0
note_on channel=0 note=59 velocity=48 time=0
control_change channel=0 control=64 value=0 time=19
control_change channel=0 control=64 value=127 time=61
note_on channel=0 note=59 velocity=0 time=40
note_on channel=0 note=67 velocity=35 time=0
note_on channel=0 note=67 velocity=0 time=0
note_on channel=0 note=64 velocity=38 time=0
note_on channel=0 note=64 velocity=0 time=120
note_on channel=0 note=67 velocity=38 time=0
note_on channel=0 note=71 velocity=0 time=110
note_on channel=0 note=67 velocity=0 time=0
note_on channel=0 note=71 velocity=65 time=0
note_on channel=0 note=59 velocity=51 time=0
control_change channel=0 control=64 value=0 time=15
control_change channel=0 control=64 value=127 time=25
note_on channel=0 note=59 velocity=0 time=80
note_on channel=0 note=67 velocity=39 time=0
note_on channel=0 note=67 velocity=0 time=120
note_on channel=0 note=64 velocity=42 time=0
note_on channel=0 note=64 velocity=0 time=120
note_on channel=0 note=67 velocity=39 time=0
note_on channel=0 note=67 velocity=0 time=120
note_on channel=0 note=59 velocity=48 time=0
note_on channel=0 note=59 velocity=0 time=120
note_on channel=0 note=67 velocity=38 time=0
note_on channel=0 note=67 velocity=0 time=120
note_on channel=0 note=64 velocity=39 time=0
note_on channel=0 note=64 velocity=0 time=120
note_on channel=0 note=67 velocity=38 time=0
note_on channel=0 note=67 velocity=0 time=0
note_on channel=0 note=71 velocity=0 time=0
note_on channel=0 note=75 velocity=58 time=0
note_on channel=0 note=59 velocity=45 time=0
control_change channel=0 control=64 value=0 time=14
control_change channel=0 control=64 value=127 time=49
note_on channel=0 note=59 velocity=0 time=57
note_on channel=0 note=69 velocity=41 time=0
note_on channel=0 note=69 velocity=0 time=0
note_on channel=0 note=66 velocity=45 time=0
note_on channel=0 note=66 velocity=0 time=120
note_on channel=0 note=69 velocity=36 time=0
note_on channel=0 note=69 velocity=0 time=0
note_on channel=0 note=75 velocity=0 time=0
note_on channel=0 note=76 velocity=56 time=0
note_on channel=0 note=40 velocity=36 time=0
control_change channel=0 control=64 value=0 time=12
control_change channel=0 control=64 value=127 time=63
note_on channel=0 note=40 velocity=0 time=45
note_on channel=0 note=55 velocity=31 time=0
note_on channel=0 note=55 velocity=0 time=0
note_on channel=0 note=76 velocity=0 time=0
note_on channel=0 note=72 velocity=69 time=0
note_on channel=0 note=47 velocity=36 time=0
note_on channel=0 note=47 velocity=0 time=120
note_on channel=0 note=55 velocity=35 time=0
note_on channel=0 note=55 velocity=0 time=0
note_on channel=0 note=72 velocity=0 time=0
note_on channel=0 note=84 velocity=73 time=0
note_on channel=0 note=42 velocity=45 time=0
control_change channel=0 control=64 value=0 time=11
control_change channel=0 control=64 value=127 time=58
note_on channel=0 note=42 velocity=0 time=51
note_on channel=0 note=57 velocity=36 time=0
note_on channel=0 note=57 velocity=0 time=120
note_on channel=0 note=47 velocity=39 time=0
note_on channel=0 note=47 velocity=0 time=120
note_on channel=0 note=57 velocity=34 time=0
note_on channel=0 note=57 velocity=0 time=120
note_on channel=0 note=43 velocity=40 time=0
note_on channel=0 note=43 velocity=0 time=120
note_on channel=0 note=59 velocity=34 time=0
note_on channel=0 note=59 velocity=0 time=120
note_on channel=0 note=84 velocity=0 time=0
note_on channel=0 note=83 velocity=56 time=0
note_on channel=0 note=47 velocity=36 time=0
note_on channel=0 note=47 velocity=0 time=120
note_on channel=0 note=59 velocity=32 time=0
note_on channel=0 note=59 velocity=0 time=0
note_on channel=0 note=83 velocity=0 time=0
note_on channel=0 note=40 velocity=36 time=0
control_change channel=0 control=64 value=0 time=0
control_change channel=0 control=64 value=127 time=75
note_on channel=0 note=40 velocity=0 time=45
note_on channel=0 note=55 velocity=31 time=0
note_on channel=0 note=55 velocity=0 time=0
note_on channel=0 note=83 velocity=71 time=0
note_on channel=0 note=47 velocity=36 time=0
note_on channel=0 note=47 velocity=0 time=120
note_on channel=0 note=55 velocity=35 time=0
note_on channel=0 note=55 velocity=0 time=120
note_on channel=0 note=83 velocity=0 time=0
note_on channel=0 note=78 velocity=68 time=0
note_on channel=0 note=42 velocity=45 time=0
control_change channel=0 control=64 value=0 time=17
control_change channel=0 control=64 value=127 time=52
note_on channel=0 note=42 velocity=0 time=51
note_on channel=0 note=57 velocity=36 time=0
note_on channel=0 note=57 velocity=0 time=120
note_on channel=0 note=47 velocity=39 time=0
note_on channel=0 note=47 velocity=0 time=120
note_on channel=0 note=57 velocity=34 time=0
note_on channel=0 note=57 velocity=0 time=120
note_on channel=0 note=43 velocity=40 time=0
note_on channel=0 note=43 velocity=0 time=120
note_on channel=0 note=59 velocity=34 time=0
note_on channel=0 note=59 velocity=0 time=120
note_on channel=0 note=78 velocity=0 time=0
note_on channel=0 note=76 velocity=51 time=0
note_on channel=0 note=47 velocity=36 time=0
note_on channel=0 note=47 velocity=0 time=120
note_on channel=0 note=59 velocity=32 time=0
note_on channel=0 note=59 velocity=0 time=0
note_on channel=0 note=76 velocity=0 time=0
note_on channel=0 note=40 velocity=36 time=0
control_change channel=0 control=64 value=0 time=9
control_change channel=0 control=64 value=127 time=66
note_on channel=0 note=40 velocity=0 time=45
note_on channel=0 note=55 velocity=31 time=0
note_on channel=0 note=55 velocity=0 time=0
note_on channel=0 note=76 velocity=71 time=0
note_on channel=0 note=47 velocity=36 time=0
note_on channel=0 note=47 velocity=0 time=120
note_on channel=0 note=55 velocity=35 time=0
note_on channel=0 note=55 velocity=0 time=120
note_on channel=0 note=76 velocity=0 time=0
note_on channel=0 note=72 velocity=69 time=0
note_on channel=0 note=42 velocity=45 time=0
control_change channel=0 control=64 value=0 time=19
control_change channel=0 control=64 value=127 time=61
note_on channel=0 note=42 velocity=0 time=40
note_on channel=0 note=57 velocity=36 time=0
note_on channel=0 note=57 velocity=0 time=120
note_on channel=0 note=47 velocity=39 time=0
note_on channel=0 note=47 velocity=0 time=120
note_on channel=0 note=57 velocity=34 time=0
note_on channel=0 note=57 velocity=0 time=120
note_on channel=0 note=43 velocity=40 time=0
note_on channel=0 note=43 velocity=0 time=120
note_on channel=0 note=59 velocity=34 time=0
note_on channel=0 note=59 velocity=0 time=120
note_on channel=0 note=72 velocity=0 time=0
note_on channel=0 note=71 velocity=53 time=0
note_on channel=0 note=47 velocity=36 time=0
note_on channel=0 note=47 velocity=0 time=120
note_on channel=0 note=59 velocity=32 time=0
note_on channel=0 note=59 velocity=0 time=0
note_on channel=0 note=71 velocity=0 time=0
note_on channel=0 note=40 velocity=36 time=0
control_change channel=0 control=64 value=0 time=8
control_change channel=0 control=64 value=127 time=49
note_on channel=0 note=40 velocity=0 time=63
note_on channel=0 note=55 velocity=30 time=0
note_on channel=0 note=55 velocity=0 time=0
note_on channel=0 note=71 velocity=69 time=0
note_on channel=0 note=47 velocity=33 time=0
note_on channel=0 note=47 velocity=0 time=120
note_on channel=0 note=55 velocity=30 time=0
note_on channel=0 note=55 velocity=0 time=120
note_on channel=0 note=71 velocity=0 time=0
note_on channel=0 note=66 velocity=63 time=0
note_on channel=0 note=42 velocity=36 time=0
control_change channel=0 control=64 value=0 time=19
control_change channel=0 control=64 value=127 time=58
note_on channel=0 note=42 velocity=0 time=43
note_on channel=0 note=57 velocity=30 time=0
note_on channel=0 note=57 velocity=0 time=120
note_on channel=0 note=47 velocity=33 time=0
note_on channel=0 note=47 velocity=0 time=120
note_on channel=0 note=57 velocity=30 time=0
note_on channel=0 note=57 velocity=0 time=120
note_on channel=0 note=43 velocity=36 time=0
note_on channel=0 note=43 velocity=0 time=120
note_on channel=0 note=59 velocity=31 time=0
note_on channel=0 note=59 velocity=0 time=0
note_on channel=0 note=66 velocity=0 time=0
note_on channel=0 note=64 velocity=56 time=0
note_on channel=0 note=47 velocity=34 time=0
note_on channel=0 note=47 velocity=0 time=120
note_on channel=0 note=59 velocity=31 time=0
note_on channel=0 note=64 velocity=0 time=110
note_on channel=0 note=59 velocity=0 time=0
note_on channel=0 note=64 velocity=63 time=0
note_on channel=0 note=45 velocity=40 time=0
control_change channel=0 control=64 value=0 time=12
control_change channel=0 control=64 value=127 time=57
note_on channel=0 note=45 velocity=0 time=51
note_on channel=0 note=55 velocity=34 time=0
note_on channel=0 note=55 velocity=0 time=120
note_on channel=0 note=52 velocity=37 time=0
note_on channel=0 note=52 velocity=0 time=120
note_on channel=0 note=55 velocity=34 time=0
note_on channel=0 note=55 velocity=0 time=0
note_on channel=0 note=64 velocity=0 time=0
note_on channel=0 note=60 velocity=63 time=0
note_on channel=0 note=46 velocity=49 time=0
control_change channel=0 control=64 value=0 time=19
control_change channel=0 control=64 value=127 time=56
note_on channel=0 note=46 velocity=0 time=45
note_on channel=0 note=55 velocity=34 time=0
note_on channel=0 note=55 velocity=0 time=120
note_on channel=0 note=52 velocity=42 time=0
note_on channel=0 note=52 velocity=0 time=120
note_on channel=0 note=55 velocity=34 time=0
note_on channel=0 note=55 velocity=0 time=0
note_on channel=0 note=60 velocity=0 time=0
note_on channel=0 note=59 velocity=65 time=0
note_on channel=0 note=47 velocity=48 time=0
control_change channel=0 control=64 value=0 time=13
control_change channel=0 control=64 value=127 time=50
note_on channel=0 note=47 velocity=0 time=57
note_on channel=0 note=55 velocity=35 time=0
note_on channel=0 note=55 velocity=0 time=120
note_on channel=0 note=52 velocity=38 time=0
note_on channel=0 note=52 velocity=0 time=120
note_on channel=0 note=55 velocity=38 time=0
note_on channel=0 note=59 velocity=0 time=110
note_on channel=0 note=55 velocity=0 time=0
note_on channel=0 note=59 velocity=71 time=0
note_on channel=0 note=47 velocity=53 time=0
control_change channel=0 control=64 value=0 time=7
control_change channel=0 control=64 value=127 time=142
note_on channel=0 note=59 velocity=0 time=0
note_on channel=0 note=55 velocity=65 time=0
note_on channel=0 note=55 velocity=0 time=0
note_on channel=0 note=52 velocity=71 time=0
note_on channel=0 note=52 velocity=0 time=240
note_on channel=0 note=48 velocity=65 time=0
note_on channel=0 note=47 velocity=0 time=230
note_on channel=0 note=48 velocity=0 time=0
note_on channel=0 note=47 velocity=70 time=0
note_on channel=0 note=35 velocity=57 time=0
note_on channel=0 note=47 velocity=0 time=0
note_on channel=0 note=51 velocity=76 time=0
note_on channel=0 note=51 velocity=0 time=0
note_on channel=0 note=35 velocity=0 time=0
note_on channel=0 note=52 velocity=80 time=0
note_on channel=0 note=40 velocity=79 time=0
control_change channel=0 control=64 value=0 time=0
note_on channel=0 note=40 velocity=0 time=120
note_on channel=0 note=54 velocity=81 time=120
note_on channel=0 note=42 velocity=69 time=0
note_on channel=0 note=42 velocity=0 time=120
note_on channel=0 note=54 velocity=0 time=0
note_on channel=0 note=52 velocity=0 time=0
note_on channel=0 note=55 velocity=81 time=0
note_on channel=0 note=43 velocity=69 time=0
note_on channel=0 note=43 velocity=0 time=120
note_on channel=0 note=55 velocity=0 time=0
note_on channel=0 note=57 velocity=88 time=0
note_on channel=0 note=45 velocity=72 time=0
note_on channel=0 note=45 velocity=0 time=120
note_on channel=0 note=57 velocity=0 time=0
note_on channel=0 note=59 velocity=94 time=0
note_on channel=0 note=47 velocity=80 time=0
note_on channel=0 note=64 velocity=79 time=0
note_on channel=0 note=60 velocity=67 time=0
control_change channel=0 control=64 value=127 time=374
note_on channel=0 note=60 velocity=0 time=0
note_on channel=0 note=59 velocity=0 time=0
note_on channel=0 note=47 velocity=0 time=0
note_on channel=0 note=64 velocity=0 time=0
note_on channel=0 note=65 velocity=34 time=0
note_on channel=0 note=60 velocity=28 time=0
note_on channel=0 note=45 velocity=37 time=0
note_on channel=0 note=57 velocity=44 time=0
control_change channel=0 control=64 value=0 time=8
control_change channel=0 control=64 value=127 time=232
note_on channel=0 note=65 velocity=0 time=720
note_on channel=0 note=72 velocity=39 time=0
note_on channel=0 note=60 velocity=0 time=0
note_on channel=0 note=57 velocity=0 time=0
note_on channel=0 note=45 velocity=0 time=0
note_on channel=0 note=69 velocity=27 time=0
note_on channel=0 note=63 velocity=27 time=0
note_on channel=0 note=66 velocity=27 time=0
note_on channel=0 note=59 velocity=43 time=0
note_on channel=0 note=47 velocity=36 time=0
control_change channel=0 control=64 value=0 time=9
control_change channel=0 control=64 value=127 time=285
note_on channel=0 note=72 velocity=0 time=0
note_on channel=0 note=71 velocity=33 time=0
control_change channel=0 control=64 value=0 time=17
note_on channel=0 note=71 velocity=0 time=453
note_on channel=0 note=47 velocity=0 time=0
note_on channel=0 note=66 velocity=0 time=0
note_on channel=0 note=69 velocity=0 time=0
note_on channel=0 note=63 velocity=0 time=0
note_on channel=0 note=59 velocity=0 time=0
note_on channel=0 note=71 velocity=40 time=0
note_on channel=0 note=67 velocity=34 time=0
note_on channel=0 note=64 velocity=34 time=0
note_on channel=0 note=40 velocity=93 time=0
note_on channel=0 note=28 velocity=79 time=0
note_on channel=0 note=28 velocity=0 time=120
note_on channel=0 note=40 velocity=0 time=0
note_on channel=0 note=42 velocity=81 time=120
note_on channel=0 note=30 velocity=69 time=0
note_on channel=0 note=30 velocity=0 time=120
note_on channel=0 note=42 velocity=0 time=0
note_on channel=0 note=64 velocity=0 time=0
note_on channel=0 note=67 velocity=0 time=0
note_on channel=0 note=71 velocity=0 time=0
note_on channel=0 note=43 velocity=81 time=0
note_on channel=0 note=31 velocity=69 time=0
note_on channel=0 note=31 velocity=0 time=120
note_on channel=0 note=43 velocity=0 time=0
note_on channel=0 note=45 velocity=88 time=0
note_on channel=0 note=33 velocity=72 time=0
note_on channel=0 note=33 velocity=0 time=120
note_on channel=0 note=45 velocity=0 time=0
note_on channel=0 note=47 velocity=94 time=0
note_on channel=0 note=35 velocity=80 time=0
note_on channel=0 note=52 velocity=79 time=0
note_on channel=0 note=48 velocity=67 time=0
control_change channel=0 control=64 value=127 time=294
note_on channel=0 note=48 velocity=0 time=0
note_on channel=0 note=47 velocity=0 time=0
note_on channel=0 note=35 velocity=0 time=0
note_on channel=0 note=52 velocity=0 time=0
note_on channel=0 note=53 velocity=34 time=0
note_on channel=0 note=48 velocity=28 time=0
note_on channel=0 note=33 velocity=37 time=0
note_on channel=0 note=45 velocity=44 time=0
control_change channel=0 control=64 value=0 time=13
control_change channel=0 control=64 value=127 time=281
note_on channel=0 note=53 velocity=0 time=666
note_on channel=0 note=60 velocity=39 time=0
note_on channel=0 note=48 velocity=0 time=0
note_on channel=0 note=45 velocity=0 time=0
note_on channel=0 note=33 velocity=0 time=0
note_on channel=0 note=57 velocity=27 time=0
note_on channel=0 note=51 velocity=27 time=0
note_on channel=0 note=54 velocity=27 time=0
note_on channel=0 note=35 velocity=24 time=0
note_on channel=0 note=47 velocity=29 time=0
control_change channel=0 control=64 value=0 time=12
control_change channel=0 control=64 value=127 time=308
note_on channel=0 note=60 velocity=0 time=0
note_on channel=0 note=59 velocity=33 time=0
note_on channel=0 note=59 velocity=0 time=470
note_on channel=0 note=47 velocity=0 time=10
note_on channel=0 note=54 velocity=0 time=0
note_on channel=0 note=57 velocity=0 time=0
note_on channel=0 note=51 velocity=0 time=0
note_on channel=0 note=35 velocity=0 time=0
control_change channel=0 control=64 value=0 time=12
note_on channel=0 note=60 velocity=39 time=27
control_change channel=0 control=64 value=127 time=187
note_on channel=0 note=52 velocity=24 time=0
note_on channel=0 note=55 velocity=24 time=0
note_on channel=0 note=47 velocity=23 time=0
note_on channel=0 note=40 velocity=19 time=0
note_on channel=0 note=60 velocity=0 time=987
note_on channel=0 note=59 velocity=33 time=0
note_on channel=0 note=47 velocity=0 time=453
note_on channel=0 note=40 velocity=0 time=0
note_on channel=0 note=52 velocity=0 time=0
note_on channel=0 note=55 velocity=0 time=0
control_change channel=0 control=64 value=0 time=0
note_on channel=0 note=59 velocity=0 time=27
note_on channel=0 note=60 velocity=39 time=960
control_change channel=0 control=64 value=127 time=187
note_on channel=0 note=54 velocity=24 time=0
note_on channel=0 note=57 velocity=24 time=0
note_on channel=0 note=47 velocity=23 time=0
note_on channel=0 note=35 velocity=19 time=0
note_on channel=0 note=63 velocity=33 time=0
note_on channel=0 note=60 velocity=0 time=27
note_on channel=0 note=57 velocity=0 time=0
note_on channel=0 note=47 velocity=0 time=0
note_on channel=0 note=54 velocity=0 time=0
note_on channel=0 note=63 velocity=0 time=0
note_on channel=0 note=35 velocity=0 time=0
note_on channel=0 note=55 velocity=28 time=0
note_on channel=0 note=64 velocity=33 time=0
note_on channel=0 note=40 velocity=23 time=0
control_change channel=0 control=64 value=0 time=4
control_change channel=0 control=64 value=127 time=236
note_on channel=0 note=40 velocity=0 time=240
note_on channel=0 note=64 velocity=0 time=0
note_on channel=0 note=55 velocity=0 time=0
control_change channel=0 control=64 value=0 time=107
note_on channel=0 note=72 velocity=35 time=27
control_change channel=0 control=64 value=127 time=187
note_on channel=0 note=63 velocity=21 time=0
note_on channel=0 note=66 velocity=21 time=0
note_on channel=0 note=69 velocity=21 time=0
note_on channel=0 note=59 velocity=20 time=0
note_on channel=0 note=47 velocity=17 time=0
note_on channel=0 note=72 velocity=0 time=987
note_on channel=0 note=71 velocity=29 time=0
note_on channel=0 note=66 velocity=0 time=453
note_on channel=0 note=59 velocity=0 time=0
note_on channel=0 note=69 velocity=0 time=0
note_on channel=0 note=63 velocity=0 time=0
note_on channel=0 note=47 velocity=0 time=0
control_change channel=0 control=64 value=0 time=0
note_on channel=0 note=71 velocity=0 time=27
note_on channel=0 note=72 velocity=35 time=26
control_change channel=0 control=64 value=127 time=187
note_on channel=0 note=67 velocity=21 time=26
note_on channel=0 note=64 velocity=21 time=0
note_on channel=0 note=59 velocity=20 time=0
note_on channel=0 note=52 velocity=17 time=0
note_on channel=0 note=72 velocity=0 time=960
note_on channel=0 note=71 velocity=29 time=0
note_on channel=0 note=71 velocity=0 time=480
note_on channel=0 note=52 velocity=0 time=0
note_on channel=0 note=67 velocity=0 time=0
note_on channel=0 note=64 velocity=0 time=0
note_on channel=0 note=59 velocity=0 time=0
control_change channel=0 control=64 value=0 time=0
note_on channel=0 note=72 velocity=35 time=27
control_change channel=0 control=64 value=127 time=187
note_on channel=0 note=66 velocity=21 time=0
note_on channel=0 note=69 velocity=21 time=0
note_on channel=0 note=59 velocity=20 time=0
note_on channel=0 note=47 velocity=17 time=0
note_on channel=0 note=75 velocity=29 time=0
note_on channel=0 note=72 velocity=0 time=27
note_on channel=0 note=69 velocity=0 time=0
note_on channel=0 note=59 velocity=0 time=0
note_on channel=0 note=66 velocity=0 time=0
note_on channel=0 note=75 velocity=0 time=0
note_on channel=0 note=47 velocity=0 time=0
note_on channel=0 note=67 velocity=25 time=0
note_on channel=0 note=76 velocity=29 time=0
note_on channel=0 note=52 velocity=20 time=0
control_change channel=0 control=64 value=0 time=4
control_change channel=0 control=64 value=127 time=236
note_on channel=0 note=52 velocity=0 time=240
note_on channel=0 note=76 velocity=0 time=0
note_on channel=0 note=67 velocity=0 time=0
control_change channel=0 control=64 value=0 time=20
note_on channel=0 note=84 velocity=35 time=27
control_change channel=0 control=64 value=127 time=187
note_on channel=0 note=75 velocity=21 time=0
note_on channel=0 note=78 velocity=21 time=0
note_on channel=0 note=81 velocity=21 time=0
note_on channel=0 note=71 velocity=20 time=0
note_on channel=0 note=84 velocity=0 time=987
note_on channel=0 note=83 velocity=29 time=0
note_on channel=0 note=81 velocity=0 time=453
note_on channel=0 note=71 velocity=0 time=0
note_on channel=0 note=75 velocity=0 time=0
note_on channel=0 note=78 velocity=0 time=0
control_change channel=0 control=64 value=0 time=0
note_on channel=0 note=83 velocity=0 time=27
note_on channel=0 note=72 velocity=29 time=0
note_on channel=0 note=72 velocity=0 time=960
note_on channel=0 note=71 velocity=38 time=0
note_on channel=0 note=71 velocity=0 time=0
note_on channel=0 note=78 velocity=31 time=0
note_on channel=0 note=75 velocity=26 time=0
note_on channel=0 note=69 velocity=24 time=0
note_on channel=0 note=66 velocity=19 time=0
note_on channel=0 note=66 velocity=0 time=0
note_on channel=0 note=78 velocity=0 time=0
note_on channel=0 note=75 velocity=0 time=0
note_on channel=0 note=69 velocity=0 time=0
note_on channel=0 note=76 velocity=31 time=0
note_on channel=0 note=79 velocity=38 time=0
note_on channel=0 note=64 velocity=25 time=0
note_on channel=0 note=67 velocity=30 time=0
note_on channel=0 note=67 velocity=0 time=720
note_on channel=0 note=76 velocity=0 time=0
note_on channel=0 note=79 velocity=0 time=0
note_on channel=0 note=64 velocity=0 time=0
note_on channel=0 note=75 velocity=27 time=0
note_on channel=0 note=78 velocity=34 time=0
note_on channel=0 note=69 velocity=26 time=0
note_on channel=0 note=66 velocity=22 time=0
note_on channel=0 note=66 velocity=0 time=0
note_on channel=0 note=75 velocity=0 time=0
note_on channel=0 note=78 velocity=0 time=0
note_on channel=0 note=69 velocity=0 time=0
note_on channel=0 note=76 velocity=34 time=0
note_on channel=0 note=67 velocity=23 time=0
note_on channel=0 note=67 velocity=0 time=360
note_on channel=0 note=76 velocity=0 time=0
note_on channel=0 note=81 velocity=36 time=0
note_on channel=0 note=78 velocity=30 time=0
note_on channel=0 note=62 velocity=25 time=0
note_on channel=0 note=66 velocity=25 time=0
note_on channel=0 note=69 velocity=30 time=0
note_on channel=0 note=69 velocity=0 time=360
note_on channel=0 note=62 velocity=0 time=0
note_on channel=0 note=81 velocity=0 time=0
note_on channel=0 note=78 velocity=0 time=0
note_on channel=0 note=66 velocity=0 time=0
note_on channel=0 note=81 velocity=31 time=0
note_on channel=0 note=78 velocity=26 time=0
note_on channel=0 note=74 velocity=24 time=0
note_on channel=0 note=74 velocity=0 time=456
note_on channel=0 note=78 velocity=0 time=0
note_on channel=0 note=81 velocity=0 time=0
note_on channel=0 note=78 velocity=31 time=0
note_on channel=0 note=81 velocity=38 time=0
note_on channel=0 note=72 velocity=25 time=0
note_on channel=0 note=74 velocity=30 time=0
note_on channel=0 note=74 velocity=0 time=720
note_on channel=0 note=78 velocity=0 time=0
note_on channel=0 note=81 velocity=0 time=0
note_on channel=0 note=72 velocity=0 time=0
note_on channel=0 note=79 velocity=34 time=0
note_on channel=0 note=74 velocity=26 time=0
note_on channel=0 note=71 velocity=22 time=0
note_on channel=0 note=71 velocity=0 time=0
note_on channel=0 note=74 velocity=0 time=0
note_on channel=0 note=79 velocity=0 time=0
note_on channel=0 note=78 velocity=31 time=0
note_on channel=0 note=81 velocity=34 time=0
note_on channel=0 note=69 velocity=20 time=0
note_on channel=0 note=72 velocity=23 time=0
note_on channel=0 note=72 velocity=0 time=360
note_on channel=0 note=78 velocity=0 time=0
note_on channel=0 note=81 velocity=0 time=0
note_on channel=0 note=69 velocity=0 time=0
note_on channel=0 note=83 velocity=36 time=0
note_on channel=0 note=79 velocity=30 time=0
note_on channel=0 note=67 velocity=25 time=0
note_on channel=0 note=71 velocity=30 time=0
note_on channel=0 note=71 velocity=0 time=360
note_on channel=0 note=83 velocity=0 time=0
note_on channel=0 note=79 velocity=0 time=0
note_on channel=0 note=67 velocity=0 time=0
note_on channel=0 note=83 velocity=27 time=0
note_on channel=0 note=79 velocity=21 time=0
note_on channel=0 note=79 velocity=0 time=456
note_on channel=0 note=83 velocity=0 time=0
note_on channel=0 note=83 velocity=34 time=0
note_on channel=0 note=79 velocity=27 time=0
note_on channel=0 note=79 velocity=0 time=0
note_on channel=0 note=83 velocity=0 time=0
note_on channel=0 note=81 velocity=30 time=0
note_on channel=0 note=78 velocity=23 time=0
note_on channel=0 note=78 velocity=0 time=0
note_on channel=0 note=81 velocity=0 time=0
note_on channel=0 note=79 velocity=27 time=0
note_on channel=0 note=83 velocity=30 time=0
note_on channel=0 note=76 velocity=20 time=0
note_on channel=0 note=76 velocity=0 time=360
note_on channel=0 note=83 velocity=0 time=0
note_on channel=0 note=79 velocity=0 time=0
note_on channel=0 note=84 velocity=32 time=0
note_on channel=0 note=81 velocity=27 time=0
note_on channel=0 note=75 velocity=27 time=0
note_on channel=0 note=75 velocity=0 time=360
note_on channel=0 note=81 velocity=0 time=0
note_on channel=0 note=84 velocity=0 time=0
note_on channel=0 note=76 velocity=51 time=0
note_on channel=0 note=88 velocity=61 time=0
note_on channel=0 note=59 velocity=34 time=480
note_on channel=0 note=43 velocity=28 time=0
note_on channel=0 note=52 velocity=28 time=0
note_on channel=0 note=88 velocity=0 time=240
note_on channel=0 note=76 velocity=0 time=0
note_on channel=0 note=75 velocity=51 time=0
note_on channel=0 note=87 velocity=60 time=0
note_on channel=0 note=87 velocity=0 time=0
note_on channel=0 note=75 velocity=0 time=0
note_on channel=0 note=76 velocity=55 time=0
note_on channel=0 note=88 velocity=65 time=0
note_on channel=0 note=88 velocity=0 time=0
note_on channel=0 note=52 velocity=0 time=0
note_on channel=0 note=43 velocity=0 time=0
note_on channel=0 note=59 velocity=0 time=0
note_on channel=0 note=76 velocity=0 time=0
note_on channel=0 note=60 velocity=45 time=0
note_on channel=0 note=64 velocity=45 time=0
note_on channel=0 note=66 velocity=54 time=0
note_on channel=0 note=45 velocity=35 time=0
control_change channel=0 control=64 value=127 time=282
note_on channel=0 note=45 velocity=0 time=0
note_on channel=0 note=60 velocity=0 time=0
note_on channel=0 note=64 velocity=0 time=0
note_on channel=0 note=66 velocity=0 time=0
note_on channel=0 note=66 velocity=66 time=0
note_on channel=0 note=64 velocity=56 time=0
note_on channel=0 note=61 velocity=56 time=0
note_on channel=0 note=46 velocity=43 time=0
control_change channel=0 control=64 value=0 time=11
control_change channel=0 control=64 value=127 time=171
note_on channel=0 note=46 velocity=0 time=298
note_on channel=0 note=66 velocity=0 time=0
note_on channel=0 note=64 velocity=0 time=0
note_on channel=0 note=61 velocity=0 time=0
note_on channel=0 note=57 velocity=60 time=0
note_on channel=0 note=63 velocity=60 time=0
note_on channel=0 note=66 velocity=71 time=0
note_on channel=0 note=47 velocity=49 time=0
control_change channel=0 control=64 value=0 time=6
note_on channel=0 note=66 velocity=0 time=240
note_on channel=0 note=67 velocity=51 time=0
note_on channel=0 note=67 velocity=0 time=240
note_on channel=0 note=69 velocity=56 time=0
note_on channel=0 note=69 velocity=0 time=0
note_on channel=0 note=67 velocity=43 time=0
note_on channel=0 note=67 velocity=0 time=0
note_on channel=0 note=47 velocity=0 time=0
note_on channel=0 note=63 velocity=0 time=0
note_on channel=0 note=57 velocity=0 time=0
note_on channel=0 note=66 velocity=47 time=0
note_on channel=0 note=55 velocity=29 time=0
note_on channel=0 note=48 velocity=24 time=0
note_on channel=0 note=66 velocity=0 time=0
note_on channel=0 note=64 velocity=39 time=0
note_on channel=0 note=64 velocity=0 time=0
note_on channel=0 note=48 velocity=0 time=0
note_on channel=0 note=55 velocity=0 time=0
note_on channel=0 note=76 velocity=53 time=0
note_on channel=0 note=88 velocity=64 time=0
note_on channel=0 note=35 velocity=31 time=0
note_on channel=0 note=47 velocity=36 time=0
note_on channel=0 note=47 velocity=0 time=240
note_on channel=0 note=35 velocity=0 time=0
note_on channel=0 note=33 velocity=33 time=0
note_on channel=0 note=45 velocity=40 time=0
note_on channel=0 note=45 velocity=0 time=0
note_on channel=0 note=33 velocity=0 time=0
note_on channel=0 note=31 velocity=37 time=0
note_on channel=0 note=43 velocity=44 time=0
note_on channel=0 note=88 velocity=0 time=240
note_on channel=0 note=76 velocity=0 time=0
note_on channel=0 note=75 velocity=54 time=0
note_on channel=0 note=87 velocity=64 time=0
note_on channel=0 note=87 velocity=0 time=0
note_on channel=0 note=43 velocity=0 time=0
note_on channel=0 note=31 velocity=0 time=0
note_on channel=0 note=75 velocity=0 time=0
note_on channel=0 note=76 velocity=56 time=0
note_on channel=0 note=88 velocity=66 time=0
note_on channel=0 note=32 velocity=31 time=0
note_on channel=0 note=44 velocity=37 time=0
note_on channel=0 note=44 velocity=0 time=0
note_on channel=0 note=76 velocity=0 time=0
note_on channel=0 note=88 velocity=0 time=0
note_on channel=0 note=32 velocity=0 time=0
note_on channel=0 note=60 velocity=40 time=0
note_on channel=0 note=64 velocity=40 time=0
note_on channel=0 note=66 velocity=48 time=0
note_on channel=0 note=33 velocity=26 time=0
note_on channel=0 note=45 velocity=31 time=0
control_change channel=0 control=64 value=127 time=298
note_on channel=0 note=45 velocity=0 time=0
note_on channel=0 note=66 velocity=0 time=0
note_on channel=0 note=60 velocity=0 time=0
note_on channel=0 note=64 velocity=0 time=0
note_on channel=0 note=33 velocity=0 time=0
note_on channel=0 note=66 velocity=41 time=0
note_on channel=0 note=64 velocity=34 time=0
note_on channel=0 note=61 velocity=34 time=0
note_on channel=0 note=34 velocity=22 time=0
note_on channel=0 note=46 velocity=26 time=0
control_change channel=0 control=64 value=0 time=18
control_change channel=0 control=64 value=127 time=148
note_on channel=0 note=46 velocity=0 time=0
note_on channel=0 note=61 velocity=0 time=0
note_on channel=0 note=66 velocity=0 time=0
note_on channel=0 note=64 velocity=0 time=0
note_on channel=0 note=34 velocity=0 time=0
note_on channel=0 note=57 velocity=34 time=0
note_on channel=0 note=63 velocity=34 time=0
note_on channel=0 note=66 velocity=41 time=0
note_on channel=0 note=35 velocity=22 time=0
note_on channel=0 note=47 velocity=28 time=0
control_change channel=0 control=64 value=0 time=8
control_change channel=0 control=64 value=127 time=148
note_on channel=0 note=66 velocity=0 time=0
note_on channel=0 note=69 velocity=26 time=0
note_on channel=0 note=69 velocity=0 time=0
note_on channel=0 note=67 velocity=28 time=0
control_change channel=0 control=64 value=0 time=15
control_change channel=0 control=64 value=127 time=98
note_on channel=0 note=67 velocity=0 time=0
note_on channel=0 note=66 velocity=21 time=0
note_on channel=0 note=66 velocity=0 time=0
note_on channel=0 note=47 velocity=0 time=0
note_on channel=0 note=57 velocity=0 time=0
note_on channel=0 note=63 velocity=0 time=0
note_on channel=0 note=35 velocity=0 time=0
note_on channel=0 note=55 velocity=20 time=0
note_on channel=0 note=64 velocity=24 time=0
note_on channel=0 note=40 velocity=14 time=0
control_change channel=0 control=64 value=0 time=13
control_change channel=0 control=64 value=127 time=174
note_on channel=0 note=40 velocity=0 time=293
note_on channel=0 note=64 velocity=0 time=0
note_on channel=0 note=55 velocity=0 time=0
control_change channel=0 control=64 value=0 time=80
