note_on channel=0 note=74 velocity=50 time=0
note_on channel=0 note=62 velocity=40 time=0
note_on channel=0 note=58 velocity=34 time=0
note_on channel=0 note=58 velocity=0 time=0
note_on channel=0 note=62 velocity=0 time=0
note_on channel=0 note=74 velocity=0 time=0
note_on channel=0 note=69 velocity=42 time=0
note_on channel=0 note=77 velocity=50 time=0
note_on channel=0 note=53 velocity=34 time=0
note_on channel=0 note=60 velocity=40 time=0
note_on channel=0 note=60 velocity=0 time=51
note_on channel=0 note=69 velocity=0 time=0
note_on channel=0 note=77 velocity=0 time=0
note_on channel=0 note=53 velocity=0 time=0
note_on channel=0 note=72 velocity=53 time=0
note_on channel=0 note=77 velocity=62 time=0
note_on channel=0 note=60 velocity=50 time=0
note_on channel=0 note=57 velocity=42 time=0
note_on channel=0 note=57 velocity=0 time=188
note_on channel=0 note=72 velocity=0 time=0
note_on channel=0 note=77 velocity=0 time=0
note_on channel=0 note=60 velocity=0 time=0
note_on channel=0 note=65 velocity=46 time=0
note_on channel=0 note=74 velocity=55 time=0
note_on channel=0 note=62 velocity=44 time=0
note_on channel=0 note=58 velocity=37 time=0
note_on channel=0 note=58 velocity=0 time=111
note_on channel=0 note=65 velocity=0 time=0
note_on channel=0 note=74 velocity=0 time=0
note_on channel=0 note=62 velocity=0 time=0
note_on channel=0 note=70 velocity=50 time=0
note_on channel=0 note=58 velocity=40 time=0
note_on channel=0 note=55 velocity=34 time=0
note_on channel=0 note=55 velocity=0 time=0
note_on channel=0 note=58 velocity=0 time=0
note_on channel=0 note=70 velocity=0 time=0
note_on channel=0 note=66 velocity=42 time=0
note_on channel=0 note=74 velocity=50 time=0
note_on channel=0 note=50 velocity=34 time=0
note_on channel=0 note=57 velocity=40 time=0
note_on channel=0 note=57 velocity=0 time=49
note_on channel=0 note=66 velocity=0 time=0
note_on channel=0 note=74 velocity=0 time=0
note_on channel=0 note=50 velocity=0 time=0
note_on channel=0 note=69 velocity=53 time=0
note_on channel=0 note=74 velocity=62 time=0
note_on channel=0 note=57 velocity=50 time=0
note_on channel=0 note=54 velocity=42 time=0
note_on channel=0 note=54 velocity=0 time=200
note_on channel=0 note=69 velocity=0 time=0
note_on channel=0 note=74 velocity=0 time=0
note_on channel=0 note=57 velocity=0 time=0
note_on channel=0 note=62 velocity=46 time=0
note_on channel=0 note=70 velocity=55 time=0
note_on channel=0 note=58 velocity=44 time=0
note_on channel=0 note=55 velocity=37 time=0
note_on channel=0 note=55 velocity=0 time=115
note_on channel=0 note=62 velocity=0 time=0
note_on channel=0 note=70 velocity=0 time=0
note_on channel=0 note=58 velocity=0 time=0
note_on channel=0 note=67 velocity=52 time=0
note_on channel=0 note=55 velocity=42 time=0
note_on channel=0 note=51 velocity=35 time=0
note_on channel=0 note=51 velocity=0 time=0
note_on channel=0 note=55 velocity=0 time=0
note_on channel=0 note=67 velocity=0 time=0
note_on channel=0 note=62 velocity=44 time=0
note_on channel=0 note=70 velocity=53 time=0
note_on channel=0 note=46 velocity=36 time=0
note_on channel=0 note=53 velocity=42 time=0
note_on channel=0 note=53 velocity=0 time=49
note_on channel=0 note=62 velocity=0 time=0
note_on channel=0 note=70 velocity=0 time=0
note_on channel=0 note=46 velocity=0 time=0
note_on channel=0 note=65 velocity=57 time=0
note_on channel=0 note=70 velocity=66 time=0
note_on channel=0 note=53 velocity=54 time=0
note_on channel=0 note=50 velocity=45 time=0
note_on channel=0 note=50 velocity=0 time=173
note_on channel=0 note=65 velocity=0 time=0
note_on channel=0 note=70 velocity=0 time=0
note_on channel=0 note=53 velocity=0 time=0
note_on channel=0 note=58 velocity=51 time=0
note_on channel=0 note=67 velocity=61 time=0
note_on channel=0 note=55 velocity=48 time=0
note_on channel=0 note=51 velocity=41 time=0
note_on channel=0 note=51 velocity=0 time=111
note_on channel=0 note=58 velocity=0 time=0
note_on channel=0 note=67 velocity=0 time=0
note_on channel=0 note=55 velocity=0 time=0
note_on channel=0 note=58 velocity=47 time=0
note_on channel=0 note=67 velocity=57 time=0
note_on channel=0 note=55 velocity=45 time=0
note_on channel=0 note=51 velocity=38 time=0
note_on channel=0 note=51 velocity=0 time=0
note_on channel=0 note=58 velocity=0 time=0
note_on channel=0 note=67 velocity=0 time=0
note_on channel=0 note=55 velocity=0 time=0
note_on channel=0 note=63 velocity=48 time=0
note_on channel=0 note=69 velocity=58 time=0
note_on channel=0 note=48 velocity=39 time=0
note_on channel=0 note=53 velocity=46 time=0
note_on channel=0 note=53 velocity=0 time=47
note_on channel=0 note=63 velocity=0 time=0
note_on channel=0 note=69 velocity=0 time=0
note_on channel=0 note=48 velocity=0 time=0
note_on channel=0 note=63 velocity=62 time=0
note_on channel=0 note=69 velocity=72 time=0
note_on channel=0 note=53 velocity=58 time=0
note_on channel=0 note=48 velocity=49 time=0
note_on channel=0 note=48 velocity=0 time=155
note_on channel=0 note=63 velocity=0 time=0
note_on channel=0 note=69 velocity=0 time=0
note_on channel=0 note=58 velocity=55 time=0
note_on channel=0 note=70 velocity=66 time=0
note_on channel=0 note=50 velocity=44 time=0
note_on channel=0 note=50 velocity=0 time=111
note_on channel=0 note=53 velocity=0 time=0
note_on channel=0 note=58 velocity=0 time=0
note_on channel=0 note=70 velocity=0 time=0
note_on channel=0 note=65 velocity=51 time=0
note_on channel=0 note=70 velocity=61 time=0
note_on channel=0 note=53 velocity=41 time=0
note_on channel=0 note=50 velocity=49 time=0
note_on channel=0 note=50 velocity=0 time=0
note_on channel=0 note=70 velocity=0 time=0
note_on channel=0 note=72 velocity=63 time=0
note_on channel=0 note=45 velocity=42 time=0
note_on channel=0 note=45 velocity=0 time=48
note_on channel=0 note=72 velocity=0 time=0
note_on channel=0 note=53 velocity=0 time=0
note_on channel=0 note=65 velocity=0 time=0
note_on channel=0 note=65 velocity=67 time=0
note_on channel=0 note=72 velocity=79 time=0
note_on channel=0 note=53 velocity=64 time=0
note_on channel=0 note=45 velocity=53 time=0
note_on channel=0 note=45 velocity=0 time=187
note_on channel=0 note=65 velocity=0 time=0
note_on channel=0 note=72 velocity=0 time=0
note_on channel=0 note=70 velocity=60 time=0
note_on channel=0 note=65 velocity=60 time=0
note_on channel=0 note=74 velocity=72 time=0
note_on channel=0 note=44 velocity=48 time=0
note_on channel=0 note=44 velocity=0 time=112
note_on channel=0 note=65 velocity=0 time=0
note_on channel=0 note=53 velocity=0 time=0
note_on channel=0 note=70 velocity=0 time=0
note_on channel=0 note=74 velocity=0 time=0
note_on channel=0 note=70 velocity=56 time=0
note_on channel=0 note=74 velocity=67 time=0
note_on channel=0 note=44 velocity=45 time=0
note_on channel=0 note=53 velocity=53 time=0
note_on channel=0 note=53 velocity=0 time=0
note_on channel=0 note=44 velocity=0 time=0
note_on channel=0 note=74 velocity=0 time=0
note_on channel=0 note=75 velocity=70 time=0
note_on channel=0 note=43 velocity=46 time=0
note_on channel=0 note=51 velocity=46 time=0
note_on channel=0 note=51 velocity=0 time=49
note_on channel=0 note=43 velocity=0 time=0
note_on channel=0 note=75 velocity=0 time=0
note_on channel=0 note=70 velocity=0 time=0
note_on channel=0 note=70 velocity=75 time=0
note_on channel=0 note=75 velocity=88 time=0
note_on channel=0 note=51 velocity=71 time=0
note_on channel=0 note=43 velocity=59 time=0
note_on channel=0 note=43 velocity=0 time=0
note_on channel=0 note=70 velocity=0 time=0
note_on channel=0 note=75 velocity=0 time=0
note_on channel=0 note=51 velocity=0 time=0
note_on channel=0 note=73 velocity=68 time=0
note_on channel=0 note=70 velocity=68 time=0
note_on channel=0 note=65 velocity=68 time=0
note_on channel=0 note=77 velocity=82 time=0
note_on channel=0 note=49 velocity=56 time=0
note_on channel=0 note=41 velocity=49 time=0
note_on channel=0 note=41 velocity=0 time=50
note_on channel=0 note=70 velocity=0 time=0
note_on channel=0 note=65 velocity=0 time=0
note_on channel=0 note=73 velocity=0 time=0
note_on channel=0 note=49 velocity=0 time=0
note_on channel=0 note=77 velocity=0 time=0
note_on channel=0 note=67 velocity=79 time=0
note_on channel=0 note=70 velocity=79 time=0
note_on channel=0 note=72 velocity=79 time=0
note_on channel=0 note=79 velocity=94 time=0
note_on channel=0 note=40 velocity=58 time=0
note_on channel=0 note=48 velocity=62 time=0
note_on channel=0 note=48 velocity=0 time=60
note_on channel=0 note=70 velocity=0 time=0
note_on channel=0 note=72 velocity=0 time=0
note_on channel=0 note=67 velocity=0 time=0
note_on channel=0 note=40 velocity=0 time=0
note_on channel=0 note=79 velocity=0 time=0
note_on channel=0 note=60 velocity=79 time=0
note_on channel=0 note=69 velocity=79 time=0
note_on channel=0 note=72 velocity=94 time=0
note_on channel=0 note=41 velocity=58 time=0
note_on channel=0 note=53 velocity=62 time=0
note_on channel=0 note=53 velocity=0 time=120
note_on channel=0 note=72 velocity=0 time=0
note_on channel=0 note=60 velocity=0 time=0
note_on channel=0 note=69 velocity=0 time=0
note_on channel=0 note=41 velocity=0 time=0
note_on channel=0 note=86 velocity=50 time=0
note_on channel=0 note=74 velocity=40 time=0
note_on channel=0 note=70 velocity=34 time=0
note_on channel=0 note=70 velocity=0 time=0
note_on channel=0 note=74 velocity=0 time=0
note_on channel=0 note=86 velocity=0 time=0
note_on channel=0 note=81 velocity=42 time=0
note_on channel=0 note=89 velocity=50 time=0
note_on channel=0 note=65 velocity=34 time=0
note_on channel=0 note=72 velocity=40 time=0
note_on channel=0 note=72 velocity=0 time=51
note_on channel=0 note=81 velocity=0 time=0
note_on channel=0 note=89 velocity=0 time=0
note_on channel=0 note=65 velocity=0 time=0
note_on channel=0 note=84 velocity=53 time=0
note_on channel=0 note=89 velocity=62 time=0
note_on channel=0 note=72 velocity=50 time=0
note_on channel=0 note=69 velocity=42 time=0
note_on channel=0 note=69 velocity=0 time=0
note_on channel=0 note=84 velocity=0 time=0
note_on channel=0 note=89 velocity=0 time=0
note_on channel=0 note=72 velocity=0 time=0
note_on channel=0 note=77 velocity=46 time=0
note_on channel=0 note=86 velocity=55 time=0
note_on channel=0 note=74 velocity=44 time=0
note_on channel=0 note=70 velocity=37 time=0
note_on channel=0 note=70 velocity=0 time=111
note_on channel=0 note=77 velocity=0 time=0
note_on channel=0 note=86 velocity=0 time=0
note_on channel=0 note=74 velocity=0 time=0
note_on channel=0 note=82 velocity=50 time=0
note_on channel=0 note=70 velocity=40 time=0
note_on channel=0 note=67 velocity=34 time=0
note_on channel=0 note=67 velocity=0 time=0
note_on channel=0 note=70 velocity=0 time=0
note_on channel=0 note=82 velocity=0 time=0
note_on channel=0 note=78 velocity=42 time=0
note_on channel=0 note=86 velocity=50 time=0
note_on channel=0 note=62 velocity=34 time=0
note_on channel=0 note=69 velocity=40 time=0
note_on channel=0 note=69 velocity=0 time=49
note_on channel=0 note=78 velocity=0 time=0
note_on channel=0 note=86 velocity=0 time=0
note_on channel=0 note=62 velocity=0 time=0
note_on channel=0 note=81 velocity=53 time=0
note_on channel=0 note=86 velocity=62 time=0
note_on channel=0 note=69 velocity=50 time=0
note_on channel=0 note=66 velocity=42 time=0
note_on channel=0 note=66 velocity=0 time=200
note_on channel=0 note=81 velocity=0 time=0
note_on channel=0 note=86 velocity=0 time=0
note_on channel=0 note=69 velocity=0 time=0
note_on channel=0 note=74 velocity=46 time=0
note_on channel=0 note=82 velocity=55 time=0
note_on channel=0 note=70 velocity=44 time=0
note_on channel=0 note=67 velocity=37 time=0
note_on channel=0 note=67 velocity=0 time=115
note_on channel=0 note=74 velocity=0 time=0
note_on channel=0 note=82 velocity=0 time=0
note_on channel=0 note=70 velocity=0 time=0
note_on channel=0 note=79 velocity=52 time=0
note_on channel=0 note=67 velocity=42 time=0
note_on channel=0 note=63 velocity=35 time=0
note_on channel=0 note=63 velocity=0 time=0
note_on channel=0 note=67 velocity=0 time=0
note_on channel=0 note=79 velocity=0 time=0
note_on channel=0 note=74 velocity=44 time=0
note_on channel=0 note=82 velocity=53 time=0
note_on channel=0 note=58 velocity=36 time=0
note_on channel=0 note=65 velocity=42 time=0
note_on channel=0 note=65 velocity=0 time=49
note_on channel=0 note=74 velocity=0 time=0
note_on channel=0 note=82 velocity=0 time=0
note_on channel=0 note=58 velocity=0 time=0
note_on channel=0 note=77 velocity=57 time=0
note_on channel=0 note=82 velocity=66 time=0
note_on channel=0 note=65 velocity=54 time=0
note_on channel=0 note=62 velocity=45 time=0
note_on channel=0 note=62 velocity=0 time=0
note_on channel=0 note=77 velocity=0 time=0
note_on channel=0 note=82 velocity=0 time=0
note_on channel=0 note=65 velocity=0 time=0
note_on channel=0 note=70 velocity=51 time=0
note_on channel=0 note=79 velocity=61 time=0
note_on channel=0 note=67 velocity=48 time=0
note_on channel=0 note=63 velocity=41 time=0
note_on channel=0 note=63 velocity=0 time=111
note_on channel=0 note=70 velocity=0 time=0
note_on channel=0 note=79 velocity=0 time=0
note_on channel=0 note=67 velocity=0 time=0
note_on channel=0 note=70 velocity=47 time=0
note_on channel=0 note=79 velocity=57 time=0
note_on channel=0 note=67 velocity=45 time=0
note_on channel=0 note=63 velocity=38 time=0
note_on channel=0 note=63 velocity=0 time=0
note_on channel=0 note=70 velocity=0 time=0
note_on channel=0 note=79 velocity=0 time=0
note_on channel=0 note=67 velocity=0 time=0
note_on channel=0 note=75 velocity=48 time=0
note_on channel=0 note=81 velocity=58 time=0
note_on channel=0 note=60 velocity=39 time=0
note_on channel=0 note=65 velocity=46 time=0
note_on channel=0 note=65 velocity=0 time=47
note_on channel=0 note=75 velocity=0 time=0
note_on channel=0 note=81 velocity=0 time=0
note_on channel=0 note=60 velocity=0 time=0
note_on channel=0 note=75 velocity=62 time=0
note_on channel=0 note=81 velocity=72 time=0
note_on channel=0 note=65 velocity=58 time=0
note_on channel=0 note=60 velocity=49 time=0
note_on channel=0 note=60 velocity=0 time=155
note_on channel=0 note=75 velocity=0 time=0
note_on channel=0 note=81 velocity=0 time=0
note_on channel=0 note=70 velocity=55 time=0
note_on channel=0 note=82 velocity=66 time=0
note_on channel=0 note=62 velocity=44 time=0
note_on channel=0 note=62 velocity=0 time=111
note_on channel=0 note=65 velocity=0 time=0
note_on channel=0 note=70 velocity=0 time=0
note_on channel=0 note=82 velocity=0 time=0
note_on channel=0 note=77 velocity=51 time=0
note_on channel=0 note=82 velocity=61 time=0
note_on channel=0 note=74 velocity=49 time=0
note_on channel=0 note=74 velocity=0 time=0
note_on channel=0 note=82 velocity=0 time=0
note_on channel=0 note=84 velocity=63 time=0
note_on channel=0 note=72 velocity=42 time=0
note_on channel=0 note=69 velocity=42 time=0
note_on channel=0 note=69 velocity=0 time=48
note_on channel=0 note=72 velocity=0 time=0
note_on channel=0 note=84 velocity=0 time=0
note_on channel=0 note=77 velocity=0 time=0
note_on channel=0 note=77 velocity=67 time=0
note_on channel=0 note=84 velocity=79 time=0
note_on channel=0 note=72 velocity=64 time=0
note_on channel=0 note=69 velocity=53 time=0
note_on channel=0 note=69 velocity=0 time=0
note_on channel=0 note=77 velocity=0 time=0
note_on channel=0 note=84 velocity=0 time=0
note_on channel=0 note=72 velocity=0 time=0
note_on channel=0 note=77 velocity=60 time=0
note_on channel=0 note=86 velocity=72 time=0
note_on channel=0 note=70 velocity=52 time=0
note_on channel=0 note=68 velocity=48 time=0
note_on channel=0 note=68 velocity=0 time=112
note_on channel=0 note=77 velocity=0 time=0
note_on channel=0 note=86 velocity=0 time=0
note_on channel=0 note=70 velocity=0 time=0
note_on channel=0 note=82 velocity=56 time=0
note_on channel=0 note=87 velocity=67 time=0
note_on channel=0 note=67 velocity=45 time=0
note_on channel=0 note=70 velocity=53 time=0
note_on channel=0 note=67 velocity=0 time=0
note_on channel=0 note=87 velocity=0 time=0
note_on channel=0 note=88 velocity=70 time=0
note_on channel=0 note=66 velocity=46 time=0
note_on channel=0 note=66 velocity=0 time=49
note_on channel=0 note=88 velocity=0 time=0
note_on channel=0 note=82 velocity=0 time=0
note_on channel=0 note=70 velocity=0 time=0
note_on channel=0 note=82 velocity=75 time=0
note_on channel=0 note=88 velocity=88 time=0
note_on channel=0 note=70 velocity=71 time=0
note_on channel=0 note=66 velocity=59 time=0
note_on channel=0 note=66 velocity=0 time=0
note_on channel=0 note=82 velocity=0 time=0
note_on channel=0 note=88 velocity=0 time=0
note_on channel=0 note=70 velocity=0 time=0
note_on channel=0 note=81 velocity=68 time=0
note_on channel=0 note=77 velocity=68 time=0
note_on channel=0 note=89 velocity=82 time=0
note_on channel=0 note=72 velocity=56 time=0
note_on channel=0 note=65 velocity=49 time=0
note_on channel=0 note=65 velocity=0 time=50
note_on channel=0 note=89 velocity=0 time=0
note_on channel=0 note=81 velocity=0 time=0
note_on channel=0 note=77 velocity=0 time=0
note_on channel=0 note=72 velocity=0 time=0
note_on channel=0 note=79 velocity=79 time=0
note_on channel=0 note=82 velocity=79 time=0
note_on channel=0 note=88 velocity=79 time=0
note_on channel=0 note=91 velocity=94 time=0
note_on channel=0 note=48 velocity=58 time=0
note_on channel=0 note=60 velocity=62 time=0
note_on channel=0 note=60 velocity=0 time=60
note_on channel=0 note=82 velocity=0 time=0
note_on channel=0 note=88 velocity=0 time=0
note_on channel=0 note=79 velocity=0 time=0
note_on channel=0 note=48 velocity=0 time=0
note_on channel=0 note=91 velocity=0 time=0
note_on channel=0 note=77 velocity=79 time=0
note_on channel=0 note=81 velocity=79 time=0
note_on channel=0 note=89 velocity=94 time=0
note_on channel=0 note=53 velocity=58 time=0
note_on channel=0 note=65 velocity=62 time=0
note_on channel=0 note=65 velocity=0 time=120
note_on channel=0 note=89 velocity=0 time=0
note_on channel=0 note=77 velocity=0 time=0
note_on channel=0 note=81 velocity=0 time=0
note_on channel=0 note=53 velocity=0 time=0
note_on channel=0 note=71 velocity=43 time=0
note_on channel=0 note=74 velocity=50 time=0
note_on channel=0 note=65 velocity=40 time=0
note_on channel=0 note=53 velocity=34 time=0
note_on channel=0 note=74 velocity=0 time=0
note_on channel=0 note=71 velocity=0 time=0
note_on channel=0 note=74 velocity=42 time=0
note_on channel=0 note=77 velocity=50 time=0
note_on channel=0 note=77 velocity=0 time=42
note_on channel=0 note=74 velocity=0 time=0
note_on channel=0 note=74 velocity=53 time=0
note_on channel=0 note=77 velocity=62 time=0
note_on channel=0 note=77 velocity=0 time=0
note_on channel=0 note=74 velocity=0 time=0
note_on channel=0 note=71 velocity=46 time=0
note_on channel=0 note=74 velocity=55 time=0
note_on channel=0 note=74 velocity=0 time=111
note_on channel=0 note=71 velocity=0 time=0
note_on channel=0 note=65 velocity=0 time=0
note_on channel=0 note=53 velocity=0 time=0
note_on channel=0 note=71 velocity=43 time=0
note_on channel=0 note=74 velocity=50 time=0
note_on channel=0 note=53 velocity=40 time=0
note_on channel=0 note=41 velocity=34 time=0
note_on channel=0 note=74 velocity=0 time=0
note_on channel=0 note=71 velocity=0 time=0
note_on channel=0 note=75 velocity=42 time=0
note_on channel=0 note=79 velocity=50 time=0
note_on channel=0 note=79 velocity=0 time=42
note_on channel=0 note=75 velocity=0 time=0
note_on channel=0 note=75 velocity=53 time=0
note_on channel=0 note=79 velocity=62 time=0
note_on channel=0 note=79 velocity=0 time=188
note_on channel=0 note=75 velocity=0 time=0
note_on channel=0 note=72 velocity=46 time=0
note_on channel=0 note=75 velocity=55 time=0
note_on channel=0 note=75 velocity=0 time=111
note_on channel=0 note=72 velocity=0 time=0
note_on channel=0 note=53 velocity=0 time=0
note_on channel=0 note=41 velocity=0 time=0
note_on channel=0 note=69 velocity=43 time=0
note_on channel=0 note=72 velocity=50 time=0
note_on channel=0 note=53 velocity=40 time=0
note_on channel=0 note=41 velocity=34 time=0
note_on channel=0 note=72 velocity=0 time=0
note_on channel=0 note=69 velocity=0 time=0
note_on channel=0 note=72 velocity=42 time=0
note_on channel=0 note=75 velocity=50 time=0
note_on channel=0 note=75 velocity=0 time=42
note_on channel=0 note=72 velocity=0 time=0
note_on channel=0 note=72 velocity=53 time=0
note_on channel=0 note=75 velocity=62 time=0
note_on channel=0 note=75 velocity=0 time=0
note_on channel=0 note=72 velocity=0 time=0
note_on channel=0 note=69 velocity=46 time=0
note_on channel=0 note=72 velocity=55 time=0
note_on channel=0 note=72 velocity=0 time=111
note_on channel=0 note=69 velocity=0 time=0
note_on channel=0 note=53 velocity=0 time=0
note_on channel=0 note=41 velocity=0 time=0
note_on channel=0 note=69 velocity=43 time=0
note_on channel=0 note=72 velocity=50 time=0
note_on channel=0 note=41 velocity=36 time=0
note_on channel=0 note=29 velocity=30 time=0
note_on channel=0 note=72 velocity=0 time=0
note_on channel=0 note=69 velocity=0 time=0
note_on channel=0 note=73 velocity=42 time=0
note_on channel=0 note=77 velocity=50 time=0
note_on channel=0 note=77 velocity=0 time=42
note_on channel=0 note=73 velocity=0 time=0
note_on channel=0 note=74 velocity=53 time=0
note_on channel=0 note=77 velocity=62 time=0
note_on channel=0 note=77 velocity=0 time=188
note_on channel=0 note=74 velocity=0 time=0
note_on channel=0 note=70 velocity=46 time=0
note_on channel=0 note=74 velocity=55 time=0
note_on channel=0 note=74 velocity=0 time=111
note_on channel=0 note=70 velocity=0 time=0
note_on channel=0 note=41 velocity=0 time=0
note_on channel=0 note=29 velocity=0 time=0
note_on channel=0 note=57 velocity=38 time=0
note_on channel=0 note=60 velocity=45 time=0
note_on channel=0 note=42 velocity=36 time=0
note_on channel=0 note=30 velocity=30 time=0
note_on channel=0 note=60 velocity=0 time=0
note_on channel=0 note=57 velocity=0 time=0
note_on channel=0 note=60 velocity=37 time=0
note_on channel=0 note=63 velocity=45 time=0
note_on channel=0 note=63 velocity=0 time=42
note_on channel=0 note=60 velocity=0 time=0
note_on channel=0 note=60 velocity=47 time=0
note_on channel=0 note=63 velocity=55 time=0
note_on channel=0 note=42 velocity=0 time=188
note_on channel=0 note=30 velocity=0 time=0
note_on channel=0 note=31 velocity=28 time=0
note_on channel=0 note=43 velocity=34 time=0
note_on channel=0 note=60 velocity=0 time=231
note_on channel=0 note=63 velocity=0 time=0
note_on channel=0 note=58 velocity=40 time=0
note_on channel=0 note=62 velocity=48 time=0
note_on channel=0 note=62 velocity=0 time=0
note_on channel=0 note=43 velocity=0 time=0
note_on channel=0 note=31 velocity=0 time=0
note_on channel=0 note=58 velocity=0 time=0
note_on channel=0 note=57 velocity=39 time=0
note_on channel=0 note=60 velocity=46 time=0
note_on channel=0 note=33 velocity=28 time=0
note_on channel=0 note=45 velocity=34 time=0
note_on channel=0 note=45 velocity=0 time=240
note_on channel=0 note=57 velocity=0 time=0
note_on channel=0 note=60 velocity=0 time=0
note_on channel=0 note=33 velocity=0 time=0
note_on channel=0 note=55 velocity=38 time=0
note_on channel=0 note=58 velocity=45 time=0
note_on channel=0 note=34 velocity=28 time=0
note_on channel=0 note=46 velocity=33 time=0
note_on channel=0 note=46 velocity=0 time=240
note_on channel=0 note=55 velocity=0 time=0
note_on channel=0 note=58 velocity=0 time=0
note_on channel=0 note=34 velocity=0 time=0
note_on channel=0 note=53 velocity=36 time=0
note_on channel=0 note=57 velocity=43 time=0
note_on channel=0 note=35 velocity=28 time=0
note_on channel=0 note=47 velocity=33 time=0
note_on channel=0 note=47 velocity=0 time=0
note_on channel=0 note=35 velocity=0 time=0
note_on channel=0 note=36 velocity=28 time=0
note_on channel=0 note=48 velocity=33 time=0
note_on channel=0 note=57 velocity=0 time=240
note_on channel=0 note=53 velocity=0 time=0
note_on channel=0 note=52 velocity=33 time=0
note_on channel=0 note=55 velocity=39 time=0
note_on channel=0 note=55 velocity=0 time=240
note_on channel=0 note=48 velocity=0 time=0
note_on channel=0 note=36 velocity=0 time=0
note_on channel=0 note=52 velocity=0 time=0
note_on channel=0 note=51 velocity=32 time=0
note_on channel=0 note=55 velocity=32 time=0
note_on channel=0 note=60 velocity=38 time=0
note_on channel=0 note=36 velocity=32 time=0
note_on channel=0 note=36 velocity=0 time=0
note_on channel=0 note=43 velocity=32 time=0
note_on channel=0 note=60 velocity=0 time=240
note_on channel=0 note=51 velocity=0 time=0
note_on channel=0 note=50 velocity=32 time=0
note_on channel=0 note=59 velocity=38 time=0
note_on channel=0 note=59 velocity=0 time=240
note_on channel=0 note=43 velocity=0 time=0
note_on channel=0 note=55 velocity=0 time=0
note_on channel=0 note=50 velocity=0 time=0
note_on channel=0 note=59 velocity=40 time=0
note_on channel=0 note=59 velocity=0 time=0
note_on channel=0 note=62 velocity=40 time=0
note_on channel=0 note=62 velocity=0 time=51
note_on channel=0 note=62 velocity=49 time=0
note_on channel=0 note=62 velocity=0 time=188
note_on channel=0 note=59 velocity=44 time=0
note_on channel=0 note=59 velocity=0 time=111
note_on channel=0 note=62 velocity=33 time=0
note_on channel=0 note=71 velocity=40 time=0
note_on channel=0 note=43 velocity=32 time=0
note_on channel=0 note=55 velocity=27 time=0
note_on channel=0 note=43 velocity=0 time=0
note_on channel=0 note=71 velocity=0 time=0
note_on channel=0 note=74 velocity=40 time=0
note_on channel=0 note=47 velocity=32 time=0
note_on channel=0 note=47 velocity=0 time=51
note_on channel=0 note=74 velocity=0 time=0
note_on channel=0 note=74 velocity=49 time=0
note_on channel=0 note=47 velocity=40 time=0
note_on channel=0 note=47 velocity=0 time=0
note_on channel=0 note=74 velocity=0 time=0
note_on channel=0 note=71 velocity=44 time=0
note_on channel=0 note=43 velocity=35 time=0
note_on channel=0 note=43 velocity=0 time=111
note_on channel=0 note=55 velocity=0 time=0
note_on channel=0 note=62 velocity=0 time=0
note_on channel=0 note=71 velocity=0 time=0
note_on channel=0 note=84 velocity=46 time=0
note_on channel=0 note=72 velocity=36 time=0
note_on channel=0 note=72 velocity=0 time=0
note_on channel=0 note=84 velocity=0 time=0
note_on channel=0 note=87 velocity=46 time=0
note_on channel=0 note=75 velocity=36 time=0
note_on channel=0 note=75 velocity=0 time=51
note_on channel=0 note=87 velocity=0 time=0
note_on channel=0 note=87 velocity=56 time=0
note_on channel=0 note=75 velocity=46 time=0
note_on channel=0 note=75 velocity=0 time=188
note_on channel=0 note=87 velocity=0 time=0
note_on channel=0 note=84 velocity=50 time=0
note_on channel=0 note=72 velocity=40 time=0
note_on channel=0 note=72 velocity=0 time=111
note_on channel=0 note=84 velocity=0 time=0
note_on channel=0 note=62 velocity=43 time=0
note_on channel=0 note=71 velocity=50 time=0
note_on channel=0 note=55 velocity=40 time=0
note_on channel=0 note=43 velocity=34 time=0
note_on channel=0 note=71 velocity=0 time=0
note_on channel=0 note=62 velocity=0 time=0
note_on channel=0 note=65 velocity=42 time=0
note_on channel=0 note=74 velocity=50 time=0
note_on channel=0 note=74 velocity=0 time=42
note_on channel=0 note=65 velocity=0 time=0
note_on channel=0 note=65 velocity=53 time=0
note_on channel=0 note=74 velocity=62 time=0
note_on channel=0 note=74 velocity=0 time=0
note_on channel=0 note=65 velocity=0 time=0
note_on channel=0 note=62 velocity=47 time=0
note_on channel=0 note=71 velocity=56 time=0
note_on channel=0 note=71 velocity=0 time=111
note_on channel=0 note=62 velocity=0 time=0
note_on channel=0 note=55 velocity=0 time=0
note_on channel=0 note=43 velocity=0 time=0
note_on channel=0 note=62 velocity=51 time=0
note_on channel=0 note=71 velocity=59 time=0
note_on channel=0 note=48 velocity=48 time=0
note_on channel=0 note=36 velocity=40 time=0
note_on channel=0 note=71 velocity=0 time=0
note_on channel=0 note=62 velocity=0 time=0
note_on channel=0 note=67 velocity=50 time=0
note_on channel=0 note=75 velocity=60 time=0
note_on channel=0 note=75 velocity=0 time=42
note_on channel=0 note=67 velocity=0 time=0
note_on channel=0 note=67 velocity=63 time=0
note_on channel=0 note=75 velocity=75 time=0
note_on channel=0 note=75 velocity=0 time=0
note_on channel=0 note=67 velocity=0 time=0
note_on channel=0 note=63 velocity=56 time=0
note_on channel=0 note=72 velocity=68 time=0
note_on channel=0 note=72 velocity=0 time=111
note_on channel=0 note=63 velocity=0 time=0
note_on channel=0 note=48 velocity=0 time=0
note_on channel=0 note=36 velocity=0 time=0
note_on channel=0 note=69 velocity=61 time=0
note_on channel=0 note=72 velocity=73 time=0
note_on channel=0 note=29 velocity=57 time=0
note_on channel=0 note=41 velocity=71 time=0
note_on channel=0 note=72 velocity=0 time=0
note_on channel=0 note=69 velocity=0 time=0
note_on channel=0 note=72 velocity=66 time=0
note_on channel=0 note=81 velocity=75 time=0
note_on channel=0 note=81 velocity=0 time=49
note_on channel=0 note=72 velocity=0 time=0
note_on channel=0 note=72 velocity=80 time=0
note_on channel=0 note=81 velocity=94 time=0
note_on channel=0 note=81 velocity=0 time=0
note_on channel=0 note=41 velocity=0 time=0
note_on channel=0 note=29 velocity=0 time=0
note_on channel=0 note=72 velocity=0 time=0
note_on channel=0 note=69 velocity=71 time=0
note_on channel=0 note=77 velocity=85 time=0
note_on channel=0 note=41 velocity=57 time=0
note_on channel=0 note=53 velocity=60 time=0
note_on channel=0 note=53 velocity=0 time=50
note_on channel=0 note=69 velocity=0 time=0
note_on channel=0 note=77 velocity=0 time=0
note_on channel=0 note=41 velocity=0 time=0
note_on channel=0 note=70 velocity=86 time=0
note_on channel=0 note=82 velocity=103 time=0
note_on channel=0 note=34 velocity=63 time=0
note_on channel=0 note=46 velocity=68 time=0
note_on channel=0 note=46 velocity=0 time=60
note_on channel=0 note=70 velocity=0 time=0
note_on channel=0 note=82 velocity=0 time=0
note_on channel=0 note=34 velocity=0 time=0
note_on channel=0 note=70 velocity=86 time=0
note_on channel=0 note=82 velocity=103 time=0
note_on channel=0 note=34 velocity=63 time=0
note_on channel=0 note=46 velocity=68 time=0
note_on channel=0 note=46 velocity=0 time=120
note_on channel=0 note=70 velocity=0 time=0
note_on channel=0 note=82 velocity=0 time=0
note_on channel=0 note=34 velocity=0 time=0
note_on channel=0 note=83 velocity=43 time=0
note_on channel=0 note=86 velocity=50 time=0
note_on channel=0 note=77 velocity=40 time=0
note_on channel=0 note=65 velocity=34 time=0
note_on channel=0 note=86 velocity=0 time=0
note_on channel=0 note=83 velocity=0 time=0
note_on channel=0 note=86 velocity=42 time=0
note_on channel=0 note=89 velocity=50 time=0
note_on channel=0 note=89 velocity=0 time=42
note_on channel=0 note=86 velocity=0 time=0
note_on channel=0 note=86 velocity=53 time=0
note_on channel=0 note=89 velocity=62 time=0
note_on channel=0 note=89 velocity=0 time=0
note_on channel=0 note=86 velocity=0 time=0
note_on channel=0 note=83 velocity=46 time=0
note_on channel=0 note=86 velocity=55 time=0
note_on channel=0 note=86 velocity=0 time=111
note_on channel=0 note=83 velocity=0 time=0
note_on channel=0 note=77 velocity=0 time=0
note_on channel=0 note=65 velocity=0 time=0
note_on channel=0 note=83 velocity=43 time=0
note_on channel=0 note=86 velocity=50 time=0
note_on channel=0 note=65 velocity=40 time=0
note_on channel=0 note=53 velocity=34 time=0
note_on channel=0 note=86 velocity=0 time=0
note_on channel=0 note=83 velocity=0 time=0
note_on channel=0 note=87 velocity=42 time=0
note_on channel=0 note=91 velocity=50 time=0
note_on channel=0 note=91 velocity=0 time=42
note_on channel=0 note=87 velocity=0 time=0
note_on channel=0 note=87 velocity=53 time=0
note_on channel=0 note=91 velocity=62 time=0
note_on channel=0 note=91 velocity=0 time=188
note_on channel=0 note=87 velocity=0 time=0
note_on channel=0 note=84 velocity=46 time=0
note_on channel=0 note=87 velocity=55 time=0
note_on channel=0 note=87 velocity=0 time=111
note_on channel=0 note=84 velocity=0 time=0
note_on channel=0 note=65 velocity=0 time=0
note_on channel=0 note=53 velocity=0 time=0
note_on channel=0 note=81 velocity=43 time=0
note_on channel=0 note=84 velocity=50 time=0
note_on channel=0 note=65 velocity=40 time=0
note_on channel=0 note=53 velocity=34 time=0
note_on channel=0 note=84 velocity=0 time=0
note_on channel=0 note=81 velocity=0 time=0
note_on channel=0 note=84 velocity=42 time=0
note_on channel=0 note=87 velocity=50 time=0
note_on channel=0 note=87 velocity=0 time=42
note_on channel=0 note=84 velocity=0 time=0
note_on channel=0 note=84 velocity=53 time=0
note_on channel=0 note=87 velocity=62 time=0
note_on channel=0 note=87 velocity=0 time=0
note_on channel=0 note=84 velocity=0 time=0
note_on channel=0 note=81 velocity=46 time=0
note_on channel=0 note=84 velocity=55 time=0
note_on channel=0 note=84 velocity=0 time=111
note_on channel=0 note=81 velocity=0 time=0
note_on channel=0 note=65 velocity=0 time=0
note_on channel=0 note=53 velocity=0 time=0
note_on channel=0 note=81 velocity=43 time=0
note_on channel=0 note=84 velocity=50 time=0
note_on channel=0 note=53 velocity=36 time=0
note_on channel=0 note=41 velocity=30 time=0
note_on channel=0 note=84 velocity=0 time=0
note_on channel=0 note=81 velocity=0 time=0
note_on channel=0 note=85 velocity=42 time=0
note_on channel=0 note=89 velocity=50 time=0
note_on channel=0 note=89 velocity=0 time=42
note_on channel=0 note=85 velocity=0 time=0
note_on channel=0 note=86 velocity=53 time=0
note_on channel=0 note=89 velocity=62 time=0
note_on channel=0 note=89 velocity=0 time=188
note_on channel=0 note=86 velocity=0 time=0
note_on channel=0 note=82 velocity=46 time=0
note_on channel=0 note=86 velocity=55 time=0
note_on channel=0 note=86 velocity=0 time=111
note_on channel=0 note=82 velocity=0 time=0
note_on channel=0 note=53 velocity=0 time=0
note_on channel=0 note=41 velocity=0 time=0
note_on channel=0 note=69 velocity=38 time=0
note_on channel=0 note=72 velocity=45 time=0
note_on channel=0 note=54 velocity=36 time=0
note_on channel=0 note=42 velocity=30 time=0
note_on channel=0 note=72 velocity=0 time=0
note_on channel=0 note=69 velocity=0 time=0
note_on channel=0 note=72 velocity=37 time=0
note_on channel=0 note=75 velocity=45 time=0
note_on channel=0 note=75 velocity=0 time=42
note_on channel=0 note=72 velocity=0 time=0
note_on channel=0 note=72 velocity=47 time=0
note_on channel=0 note=75 velocity=55 time=0
note_on channel=0 note=54 velocity=0 time=188
note_on channel=0 note=42 velocity=0 time=0
note_on channel=0 note=54 velocity=28 time=0
note_on channel=0 note=60 velocity=28 time=0
note_on channel=0 note=63 velocity=34 time=0
note_on channel=0 note=63 velocity=0 time=231
note_on channel=0 note=54 velocity=0 time=0
note_on channel=0 note=75 velocity=0 time=0
note_on channel=0 note=72 velocity=0 time=0
note_on channel=0 note=60 velocity=0 time=0
note_on channel=0 note=70 velocity=40 time=0
note_on channel=0 note=74 velocity=48 time=0
note_on channel=0 note=55 velocity=28 time=0
note_on channel=0 note=58 velocity=28 time=0
note_on channel=0 note=62 velocity=34 time=0
note_on channel=0 note=62 velocity=0 time=0
note_on channel=0 note=55 velocity=0 time=0
note_on channel=0 note=70 velocity=0 time=0
note_on channel=0 note=74 velocity=0 time=0
note_on channel=0 note=58 velocity=0 time=0
note_on channel=0 note=69 velocity=39 time=0
note_on channel=0 note=72 velocity=46 time=0
note_on channel=0 note=57 velocity=28 time=0
note_on channel=0 note=60 velocity=34 time=0
note_on channel=0 note=60 velocity=0 time=240
note_on channel=0 note=69 velocity=0 time=0
note_on channel=0 note=72 velocity=0 time=0
note_on channel=0 note=57 velocity=0 time=0
note_on channel=0 note=67 velocity=38 time=0
note_on channel=0 note=70 velocity=45 time=0
note_on channel=0 note=46 velocity=28 time=0
note_on channel=0 note=55 velocity=28 time=0
note_on channel=0 note=58 velocity=33 time=0
note_on channel=0 note=58 velocity=0 time=240
note_on channel=0 note=46 velocity=0 time=0
note_on channel=0 note=67 velocity=0 time=0
note_on channel=0 note=70 velocity=0 time=0
note_on channel=0 note=55 velocity=0 time=0
note_on channel=0 note=65 velocity=36 time=0
note_on channel=0 note=69 velocity=43 time=0
note_on channel=0 note=53 velocity=28 time=0
note_on channel=0 note=47 velocity=28 time=0
note_on channel=0 note=57 velocity=33 time=0
note_on channel=0 note=47 velocity=0 time=0
note_on channel=0 note=48 velocity=28 time=0
note_on channel=0 note=53 velocity=0 time=240
note_on channel=0 note=57 velocity=0 time=0
note_on channel=0 note=65 velocity=0 time=0
note_on channel=0 note=69 velocity=0 time=0
note_on channel=0 note=64 velocity=33 time=0
note_on channel=0 note=67 velocity=39 time=0
note_on channel=0 note=52 velocity=27 time=0
note_on channel=0 note=55 velocity=33 time=0
note_on channel=0 note=55 velocity=0 time=240
note_on channel=0 note=67 velocity=0 time=0
note_on channel=0 note=48 velocity=0 time=0
note_on channel=0 note=64 velocity=0 time=0
note_on channel=0 note=52 velocity=0 time=0
note_on channel=0 note=63 velocity=32 time=0
note_on channel=0 note=67 velocity=32 time=0
note_on channel=0 note=72 velocity=38 time=0
note_on channel=0 note=51 velocity=27 time=0
note_on channel=0 note=55 velocity=33 time=0
note_on channel=0 note=60 velocity=32 time=0
note_on channel=0 note=55 velocity=0 time=0
note_on channel=0 note=51 velocity=0 time=0
note_on channel=0 note=55 velocity=32 time=0
note_on channel=0 note=72 velocity=0 time=240
note_on channel=0 note=63 velocity=0 time=0
note_on channel=0 note=60 velocity=0 time=0
note_on channel=0 note=62 velocity=32 time=0
note_on channel=0 note=71 velocity=38 time=0
note_on channel=0 note=59 velocity=30 time=0
note_on channel=0 note=59 velocity=0 time=240
note_on channel=0 note=62 velocity=0 time=0
note_on channel=0 note=55 velocity=0 time=0
note_on channel=0 note=67 velocity=0 time=0
note_on channel=0 note=71 velocity=0 time=0
note_on channel=0 note=71 velocity=40 time=0
note_on channel=0 note=71 velocity=0 time=0
note_on channel=0 note=74 velocity=40 time=0
note_on channel=0 note=74 velocity=0 time=51
note_on channel=0 note=74 velocity=49 time=0
note_on channel=0 note=74 velocity=0 time=0
note_on channel=0 note=71 velocity=44 time=0
note_on channel=0 note=71 velocity=0 time=111
note_on channel=0 note=74 velocity=33 time=0
note_on channel=0 note=83 velocity=40 time=0
note_on channel=0 note=55 velocity=32 time=0
note_on channel=0 note=67 velocity=27 time=0
note_on channel=0 note=55 velocity=0 time=0
note_on channel=0 note=83 velocity=0 time=0
note_on channel=0 note=86 velocity=40 time=0
note_on channel=0 note=59 velocity=32 time=0
note_on channel=0 note=59 velocity=0 time=51
note_on channel=0 note=86 velocity=0 time=0
note_on channel=0 note=86 velocity=49 time=0
note_on channel=0 note=59 velocity=40 time=0
note_on channel=0 note=59 velocity=0 time=0
note_on channel=0 note=86 velocity=0 time=0
note_on channel=0 note=83 velocity=44 time=0
note_on channel=0 note=55 velocity=35 time=0
note_on channel=0 note=55 velocity=0 time=111
note_on channel=0 note=67 velocity=0 time=0
note_on channel=0 note=74 velocity=0 time=0
note_on channel=0 note=83 velocity=0 time=0
note_on channel=0 note=72 velocity=46 time=0
note_on channel=0 note=60 velocity=36 time=0
note_on channel=0 note=60 velocity=0 time=0
note_on channel=0 note=72 velocity=0 time=0
note_on channel=0 note=75 velocity=46 time=0
note_on channel=0 note=63 velocity=36 time=0
note_on channel=0 note=63 velocity=0 time=51
note_on channel=0 note=75 velocity=0 time=0
note_on channel=0 note=75 velocity=56 time=0
note_on channel=0 note=63 velocity=46 time=0
note_on channel=0 note=63 velocity=0 time=0
note_on channel=0 note=75 velocity=0 time=0
note_on channel=0 note=72 velocity=50 time=0
note_on channel=0 note=60 velocity=40 time=0
note_on channel=0 note=60 velocity=0 time=111
note_on channel=0 note=72 velocity=0 time=0
note_on channel=0 note=74 velocity=43 time=0
note_on channel=0 note=83 velocity=50 time=0
note_on channel=0 note=67 velocity=40 time=0
note_on channel=0 note=55 velocity=34 time=0
note_on channel=0 note=83 velocity=0 time=0
note_on channel=0 note=74 velocity=0 time=0
note_on channel=0 note=77 velocity=42 time=0
note_on channel=0 note=86 velocity=50 time=0
note_on channel=0 note=86 velocity=0 time=42
note_on channel=0 note=77 velocity=0 time=0
note_on channel=0 note=77 velocity=54 time=0
note_on channel=0 note=86 velocity=63 time=0
note_on channel=0 note=86 velocity=0 time=0
note_on channel=0 note=77 velocity=0 time=0
note_on channel=0 note=74 velocity=48 time=0
note_on channel=0 note=83 velocity=57 time=0
note_on channel=0 note=83 velocity=0 time=111
note_on channel=0 note=74 velocity=0 time=0
note_on channel=0 note=67 velocity=0 time=0
note_on channel=0 note=55 velocity=0 time=0
note_on channel=0 note=74 velocity=52 time=0
note_on channel=0 note=83 velocity=60 time=0
note_on channel=0 note=60 velocity=49 time=0
note_on channel=0 note=48 velocity=41 time=0
note_on channel=0 note=83 velocity=0 time=0
note_on channel=0 note=74 velocity=0 time=0
note_on channel=0 note=79 velocity=52 time=0
note_on channel=0 note=87 velocity=62 time=0
note_on channel=0 note=87 velocity=0 time=42
note_on channel=0 note=79 velocity=0 time=0
note_on channel=0 note=79 velocity=66 time=0
note_on channel=0 note=87 velocity=78 time=0
note_on channel=0 note=87 velocity=0 time=0
note_on channel=0 note=79 velocity=0 time=0
note_on channel=0 note=75 velocity=58 time=0
note_on channel=0 note=84 velocity=70 time=0
note_on channel=0 note=84 velocity=0 time=111
note_on channel=0 note=75 velocity=0 time=0
note_on channel=0 note=60 velocity=0 time=0
note_on channel=0 note=48 velocity=0 time=0
note_on channel=0 note=81 velocity=64 time=0
note_on channel=0 note=84 velocity=77 time=0
note_on channel=0 note=41 velocity=59 time=0
note_on channel=0 note=53 velocity=74 time=0
note_on channel=0 note=84 velocity=0 time=0
note_on channel=0 note=81 velocity=0 time=0
note_on channel=0 note=84 velocity=69 time=0
note_on channel=0 note=93 velocity=79 time=0
note_on channel=0 note=93 velocity=0 time=49
note_on channel=0 note=84 velocity=0 time=0
note_on channel=0 note=84 velocity=83 time=0
note_on channel=0 note=93 velocity=98 time=0
note_on channel=0 note=93 velocity=0 time=0
note_on channel=0 note=84 velocity=0 time=0
note_on channel=0 note=81 velocity=74 time=0
note_on channel=0 note=89 velocity=89 time=0
note_on channel=0 note=89 velocity=0 time=50
note_on channel=0 note=81 velocity=0 time=0
note_on channel=0 note=41 velocity=0 time=0
note_on channel=0 note=53 velocity=0 time=0
note_on channel=0 note=82 velocity=94 time=0
note_on channel=0 note=94 velocity=112 time=0
note_on channel=0 note=34 velocity=69 time=0
note_on channel=0 note=46 velocity=74 time=0
note_on channel=0 note=46 velocity=0 time=60
note_on channel=0 note=82 velocity=0 time=0
note_on channel=0 note=94 velocity=0 time=0
note_on channel=0 note=34 velocity=0 time=0
note_on channel=0 note=82 velocity=94 time=0
note_on channel=0 note=94 velocity=112 time=0
note_on channel=0 note=34 velocity=69 time=0
note_on channel=0 note=46 velocity=74 time=0
note_on channel=0 note=46 velocity=0 time=120
note_on channel=0 note=82 velocity=0 time=0
note_on channel=0 note=94 velocity=0 time=0
note_on channel=0 note=34 velocity=0 time=0
note_on channel=0 note=73 velocity=52 time=0
note_on channel=0 note=85 velocity=62 time=0
note_on channel=0 note=34 velocity=31 time=0
note_on channel=0 note=46 velocity=37 time=0
note_on channel=0 note=46 velocity=0 time=120
note_on channel=0 note=34 velocity=0 time=0
note_on channel=0 note=34 velocity=31 time=0
note_on channel=0 note=46 velocity=37 time=0
note_on channel=0 note=46 velocity=0 time=120
note_on channel=0 note=34 velocity=0 time=0
note_on channel=0 note=85 velocity=0 time=120
note_on channel=0 note=73 velocity=0 time=0
note_on channel=0 note=89 velocity=58 time=0
note_on channel=0 note=77 velocity=58 time=0
note_on channel=0 note=77 velocity=0 time=23
note_on channel=0 note=89 velocity=0 time=0
note_on channel=0 note=73 velocity=52 time=0
note_on channel=0 note=85 velocity=62 time=0
note_on channel=0 note=34 velocity=37 time=0
note_on channel=0 note=34 velocity=0 time=37
note_on channel=0 note=41 velocity=30 time=0
note_on channel=0 note=41 velocity=0 time=68
note_on channel=0 note=49 velocity=30 time=0
note_on channel=0 note=49 velocity=0 time=52
note_on channel=0 note=34 velocity=37 time=0
note_on channel=0 note=34 velocity=0 time=36
note_on channel=0 note=41 velocity=31 time=0
note_on channel=0 note=41 velocity=0 time=20
note_on channel=0 note=49 velocity=31 time=0
note_on channel=0 note=49 velocity=0 time=4
note_on channel=0 note=85 velocity=0 time=0
note_on channel=0 note=73 velocity=0 time=0
note_on channel=0 note=70 velocity=52 time=0
note_on channel=0 note=82 velocity=62 time=0
note_on channel=0 note=34 velocity=37 time=0
note_on channel=0 note=34 velocity=0 time=80
note_on channel=0 note=41 velocity=31 time=0
note_on channel=0 note=41 velocity=0 time=68
note_on channel=0 note=49 velocity=30 time=0
note_on channel=0 note=49 velocity=0 time=52
note_on channel=0 note=82 velocity=0 time=0
note_on channel=0 note=70 velocity=0 time=0
note_on channel=0 note=65 velocity=48 time=0
note_on channel=0 note=77 velocity=57 time=0
note_on channel=0 note=34 velocity=37 time=0
note_on channel=0 note=34 velocity=0 time=74
note_on channel=0 note=41 velocity=31 time=0
note_on channel=0 note=41 velocity=0 time=80
note_on channel=0 note=49 velocity=31 time=0
note_on channel=0 note=49 velocity=0 time=80
note_on channel=0 note=77 velocity=0 time=0
note_on channel=0 note=65 velocity=0 time=0
note_on channel=0 note=70 velocity=53 time=0
note_on channel=0 note=82 velocity=63 time=0
note_on channel=0 note=34 velocity=37 time=0
note_on channel=0 note=34 velocity=0 time=80
note_on channel=0 note=41 velocity=31 time=0
note_on channel=0 note=41 velocity=0 time=80
note_on channel=0 note=49 velocity=31 time=0
note_on channel=0 note=49 velocity=0 time=80
note_on channel=0 note=34 velocity=38 time=0
note_on channel=0 note=34 velocity=0 time=80
note_on channel=0 note=41 velocity=32 time=0
note_on channel=0 note=41 velocity=0 time=40
note_on channel=0 note=49 velocity=31 time=0
note_on channel=0 note=49 velocity=0 time=0
note_on channel=0 note=82 velocity=0 time=0
note_on channel=0 note=70 velocity=0 time=0
note_on channel=0 note=85 velocity=66 time=0
note_on channel=0 note=73 velocity=55 time=0
note_on channel=0 note=34 velocity=39 time=0
note_on channel=0 note=34 velocity=0 time=80
note_on channel=0 note=41 velocity=33 time=0
note_on channel=0 note=41 velocity=0 time=80
note_on channel=0 note=49 velocity=34 time=0
note_on channel=0 note=49 velocity=0 time=80
note_on channel=0 note=73 velocity=0 time=0
note_on channel=0 note=85 velocity=0 time=0
note_on channel=0 note=77 velocity=58 time=0
note_on channel=0 note=89 velocity=69 time=0
note_on channel=0 note=34 velocity=41 time=0
note_on channel=0 note=34 velocity=0 time=80
note_on channel=0 note=41 velocity=35 time=0
note_on channel=0 note=41 velocity=0 time=80
note_on channel=0 note=49 velocity=35 time=0
note_on channel=0 note=49 velocity=0 time=80
note_on channel=0 note=34 velocity=42 time=0
note_on channel=0 note=34 velocity=0 time=80
note_on channel=0 note=41 velocity=36 time=0
note_on channel=0 note=41 velocity=0 time=40
note_on channel=0 note=49 velocity=35 time=0
note_on channel=0 note=49 velocity=0 time=0
note_on channel=0 note=89 velocity=0 time=0
note_on channel=0 note=77 velocity=0 time=0
note_on channel=0 note=85 velocity=79 time=0
note_on channel=0 note=73 velocity=67 time=0
note_on channel=0 note=34 velocity=44 time=0
note_on channel=0 note=34 velocity=0 time=80
note_on channel=0 note=41 velocity=37 time=0
note_on channel=0 note=41 velocity=0 time=80
note_on channel=0 note=49 velocity=38 time=0
note_on channel=0 note=49 velocity=0 time=80
note_on channel=0 note=73 velocity=0 time=0
note_on channel=0 note=85 velocity=0 time=0
note_on channel=0 note=82 velocity=81 time=0
note_on channel=0 note=70 velocity=68 time=0
note_on channel=0 note=34 velocity=49 time=0
note_on channel=0 note=34 velocity=0 time=80
note_on channel=0 note=41 velocity=42 time=0
note_on channel=0 note=41 velocity=0 time=80
note_on channel=0 note=49 velocity=42 time=0
note_on channel=0 note=49 velocity=0 time=80
note_on channel=0 note=34 velocity=54 time=0
note_on channel=0 note=34 velocity=0 time=80
note_on channel=0 note=41 velocity=49 time=0
note_on channel=0 note=41 velocity=0 time=40
note_on channel=0 note=49 velocity=49 time=0
note_on channel=0 note=49 velocity=0 time=0
note_on channel=0 note=70 velocity=0 time=0
note_on channel=0 note=82 velocity=0 time=0
note_on channel=0 note=77 velocity=82 time=0
note_on channel=0 note=65 velocity=68 time=0
note_on channel=0 note=34 velocity=61 time=0
note_on channel=0 note=34 velocity=0 time=80
note_on channel=0 note=41 velocity=56 time=0
note_on channel=0 note=41 velocity=0 time=80
note_on channel=0 note=49 velocity=58 time=0
note_on channel=0 note=49 velocity=0 time=80
note_on channel=0 note=65 velocity=0 time=0
note_on channel=0 note=77 velocity=0 time=0
note_on channel=0 note=70 velocity=72 time=0
note_on channel=0 note=82 velocity=86 time=0
note_on channel=0 note=34 velocity=69 time=0
note_on channel=0 note=34 velocity=0 time=80
note_on channel=0 note=41 velocity=57 time=0
note_on channel=0 note=41 velocity=0 time=80
note_on channel=0 note=49 velocity=52 time=0
note_on channel=0 note=49 velocity=0 time=80
note_on channel=0 note=34 velocity=61 time=0
note_on channel=0 note=34 velocity=0 time=80
note_on channel=0 note=41 velocity=51 time=0
note_on channel=0 note=41 velocity=0 time=40
note_on channel=0 note=49 velocity=51 time=0
note_on channel=0 note=49 velocity=0 time=0
note_on channel=0 note=82 velocity=0 time=0
note_on channel=0 note=70 velocity=0 time=0
note_on channel=0 note=85 velocity=78 time=0
note_on channel=0 note=73 velocity=66 time=0
note_on channel=0 note=32 velocity=60 time=0
note_on channel=0 note=32 velocity=0 time=16
note_on channel=0 note=41 velocity=50 time=0
note_on channel=0 note=41 velocity=0 time=80
note_on channel=0 note=49 velocity=46 time=0
note_on channel=0 note=49 velocity=0 time=80
note_on channel=0 note=73 velocity=0 time=0
note_on channel=0 note=85 velocity=0 time=0
note_on channel=0 note=77 velocity=60 time=0
note_on channel=0 note=89 velocity=72 time=0
note_on channel=0 note=32 velocity=44 time=0
note_on channel=0 note=32 velocity=0 time=80
note_on channel=0 note=41 velocity=36 time=0
note_on channel=0 note=41 velocity=0 time=80
note_on channel=0 note=49 velocity=35 time=0
note_on channel=0 note=49 velocity=0 time=0
note_on channel=0 note=32 velocity=41 time=0
note_on channel=0 note=32 velocity=0 time=80
note_on channel=0 note=41 velocity=34 time=0
note_on channel=0 note=41 velocity=0 time=80
note_on channel=0 note=49 velocity=32 time=0
note_on channel=0 note=49 velocity=0 time=0
note_on channel=0 note=89 velocity=0 time=0
note_on channel=0 note=77 velocity=0 time=0
note_on channel=0 note=92 velocity=51 time=0
note_on channel=0 note=80 velocity=42 time=0
note_on channel=0 note=37 velocity=39 time=0
note_on channel=0 note=37 velocity=0 time=80
note_on channel=0 note=41 velocity=32 time=0
note_on channel=0 note=41 velocity=0 time=80
note_on channel=0 note=49 velocity=31 time=0
note_on channel=0 note=49 velocity=0 time=80
note_on channel=0 note=80 velocity=0 time=0
note_on channel=0 note=92 velocity=0 time=0
note_on channel=0 note=85 velocity=48 time=0
note_on channel=0 note=73 velocity=40 time=0
note_on channel=0 note=37 velocity=37 time=0
note_on channel=0 note=37 velocity=0 time=80
note_on channel=0 note=41 velocity=26 time=0
note_on channel=0 note=41 velocity=0 time=80
note_on channel=0 note=49 velocity=26 time=0
note_on channel=0 note=49 velocity=0 time=80
note_on channel=0 note=73 velocity=0 time=0
note_on channel=0 note=85 velocity=0 time=0
note_on channel=0 note=37 velocity=30 time=0
note_on channel=0 note=37 velocity=0 time=80
note_on channel=0 note=41 velocity=25 time=0
note_on channel=0 note=41 velocity=0 time=80
note_on channel=0 note=49 velocity=25 time=0
note_on channel=0 note=49 velocity=0 time=0
note_on channel=0 note=70 velocity=34 time=0
note_on channel=0 note=82 velocity=40 time=0
note_on channel=0 note=37 velocity=40 time=0
note_on channel=0 note=49 velocity=48 time=0
note_on channel=0 note=82 velocity=0 time=60
note_on channel=0 note=70 velocity=0 time=0
note_on channel=0 note=70 velocity=34 time=160
note_on channel=0 note=82 velocity=40 time=0
note_on channel=0 note=82 velocity=0 time=60
note_on channel=0 note=70 velocity=0 time=0
note_on channel=0 note=37 velocity=0 time=180
note_on channel=0 note=49 velocity=0 time=0
note_on channel=0 note=53 velocity=50 time=0
note_on channel=0 note=41 velocity=50 time=0
note_on channel=0 note=41 velocity=0 time=23
note_on channel=0 note=53 velocity=0 time=0
note_on channel=0 note=73 velocity=37 time=0
note_on channel=0 note=37 velocity=44 time=0
note_on channel=0 note=49 velocity=52 time=0
note_on channel=0 note=73 velocity=0 time=62
note_on channel=0 note=70 velocity=30 time=0
note_on channel=0 note=70 velocity=0 time=68
note_on channel=0 note=65 velocity=30 time=0
note_on channel=0 note=65 velocity=0 time=52
note_on channel=0 note=73 velocity=37 time=0
note_on channel=0 note=73 velocity=0 time=36
note_on channel=0 note=70 velocity=31 time=0
note_on channel=0 note=70 velocity=0 time=20
note_on channel=0 note=65 velocity=31 time=0
note_on channel=0 note=65 velocity=0 time=4
note_on channel=0 note=49 velocity=0 time=0
note_on channel=0 note=37 velocity=0 time=0
note_on channel=0 note=77 velocity=37 time=0
note_on channel=0 note=34 velocity=44 time=0
note_on channel=0 note=46 velocity=52 time=0
note_on channel=0 note=77 velocity=0 time=80
note_on channel=0 note=73 velocity=31 time=0
note_on channel=0 note=73 velocity=0 time=68
note_on channel=0 note=70 velocity=30 time=0
note_on channel=0 note=70 velocity=0 time=52
note_on channel=0 note=46 velocity=0 time=0
note_on channel=0 note=34 velocity=0 time=0
note_on channel=0 note=73 velocity=37 time=0
note_on channel=0 note=29 velocity=40 time=0
note_on channel=0 note=41 velocity=49 time=0
note_on channel=0 note=73 velocity=0 time=74
note_on channel=0 note=70 velocity=31 time=0
note_on channel=0 note=70 velocity=0 time=80
note_on channel=0 note=65 velocity=31 time=0
note_on channel=0 note=65 velocity=0 time=80
note_on channel=0 note=41 velocity=0 time=0
note_on channel=0 note=29 velocity=0 time=0
note_on channel=0 note=73 velocity=37 time=0
note_on channel=0 note=34 velocity=46 time=0
note_on channel=0 note=46 velocity=53 time=0
note_on channel=0 note=73 velocity=0 time=80
note_on channel=0 note=70 velocity=31 time=0
note_on channel=0 note=70 velocity=0 time=80
note_on channel=0 note=65 velocity=31 time=0
note_on channel=0 note=65 velocity=0 time=80
note_on channel=0 note=70 velocity=39 time=0
note_on channel=0 note=70 velocity=0 time=80
note_on channel=0 note=65 velocity=32 time=0
note_on channel=0 note=65 velocity=0 time=40
note_on channel=0 note=61 velocity=32 time=0
note_on channel=0 note=61 velocity=0 time=0
note_on channel=0 note=46 velocity=0 time=0
note_on channel=0 note=34 velocity=0 time=0
note_on channel=0 note=65 velocity=40 time=0
note_on channel=0 note=49 velocity=61 time=0
note_on channel=0 note=37 velocity=51 time=0
note_on channel=0 note=65 velocity=0 time=80
note_on channel=0 note=61 velocity=34 time=0
note_on channel=0 note=61 velocity=0 time=80
note_on channel=0 note=58 velocity=36 time=0
note_on channel=0 note=58 velocity=0 time=80
note_on channel=0 note=37 velocity=0 time=0
note_on channel=0 note=49 velocity=0 time=0
note_on channel=0 note=61 velocity=49 time=0
note_on channel=0 note=70 velocity=49 time=0
note_on channel=0 note=41 velocity=51 time=0
note_on channel=0 note=53 velocity=61 time=0
note_on channel=0 note=70 velocity=0 time=80
note_on channel=0 note=61 velocity=0 time=0
note_on channel=0 note=58 velocity=42 time=0
note_on channel=0 note=58 velocity=0 time=80
note_on channel=0 note=61 velocity=42 time=0
note_on channel=0 note=61 velocity=0 time=80
note_on channel=0 note=70 velocity=50 time=0
note_on channel=0 note=70 velocity=0 time=80
note_on channel=0 note=61 velocity=43 time=0
note_on channel=0 note=61 velocity=0 time=40
note_on channel=0 note=58 velocity=43 time=0
note_on channel=0 note=58 velocity=0 time=0
note_on channel=0 note=41 velocity=0 time=0
note_on channel=0 note=53 velocity=0 time=0
note_on channel=0 note=65 velocity=54 time=0
note_on channel=0 note=73 velocity=54 time=0
note_on channel=0 note=49 velocity=70 time=0
note_on channel=0 note=37 velocity=59 time=0
note_on channel=0 note=73 velocity=0 time=80
note_on channel=0 note=65 velocity=0 time=0
note_on channel=0 note=61 velocity=46 time=0
note_on channel=0 note=61 velocity=0 time=80
note_on channel=0 note=65 velocity=51 time=0
note_on channel=0 note=65 velocity=0 time=80
note_on channel=0 note=49 velocity=0 time=0
note_on channel=0 note=37 velocity=0 time=0
note_on channel=0 note=77 velocity=63 time=0
note_on channel=0 note=46 velocity=79 time=0
note_on channel=0 note=34 velocity=67 time=0
note_on channel=0 note=77 velocity=0 time=80
note_on channel=0 note=73 velocity=55 time=0
note_on channel=0 note=73 velocity=0 time=80
note_on channel=0 note=70 velocity=59 time=0
note_on channel=0 note=70 velocity=0 time=80
note_on channel=0 note=77 velocity=71 time=0
note_on channel=0 note=77 velocity=0 time=80
note_on channel=0 note=73 velocity=60 time=0
note_on channel=0 note=73 velocity=0 time=40
note_on channel=0 note=70 velocity=64 time=0
note_on channel=0 note=70 velocity=0 time=0
note_on channel=0 note=34 velocity=0 time=0
note_on channel=0 note=46 velocity=0 time=0
note_on channel=0 note=73 velocity=77 time=0
note_on channel=0 note=41 velocity=73 time=0
note_on channel=0 note=29 velocity=61 time=0
note_on channel=0 note=73 velocity=0 time=80
note_on channel=0 note=70 velocity=67 time=0
note_on channel=0 note=70 velocity=0 time=80
note_on channel=0 note=65 velocity=61 time=0
note_on channel=0 note=65 velocity=0 time=80
note_on channel=0 note=29 velocity=0 time=0
note_on channel=0 note=41 velocity=0 time=0
note_on channel=0 note=70 velocity=83 time=0
note_on channel=0 note=34 velocity=64 time=0
note_on channel=0 note=46 velocity=77 time=0
note_on channel=0 note=70 velocity=0 time=80
note_on channel=0 note=65 velocity=68 time=0
note_on channel=0 note=65 velocity=0 time=80
note_on channel=0 note=61 velocity=58 time=0
note_on channel=0 note=61 velocity=0 time=80
note_on channel=0 note=70 velocity=64 time=0
note_on channel=0 note=70 velocity=0 time=80
note_on channel=0 note=65 velocity=54 time=0
note_on channel=0 note=65 velocity=0 time=40
note_on channel=0 note=61 velocity=46 time=0
note_on channel=0 note=61 velocity=0 time=0
note_on channel=0 note=46 velocity=0 time=0
note_on channel=0 note=34 velocity=0 time=0
note_on channel=0 note=65 velocity=60 time=0
note_on channel=0 note=49 velocity=69 time=0
note_on channel=0 note=37 velocity=58 time=0
note_on channel=0 note=65 velocity=0 time=80
note_on channel=0 note=61 velocity=45 time=0
note_on channel=0 note=61 velocity=0 time=80
note_on channel=0 note=58 velocity=44 time=0
note_on channel=0 note=58 velocity=0 time=80
note_on channel=0 note=37 velocity=0 time=0
note_on channel=0 note=49 velocity=0 time=0
note_on channel=0 note=61 velocity=31 time=0
note_on channel=0 note=68 velocity=44 time=0
note_on channel=0 note=41 velocity=54 time=0
note_on channel=0 note=53 velocity=64 time=0
note_on channel=0 note=68 velocity=0 time=80
note_on channel=0 note=61 velocity=0 time=0
note_on channel=0 note=56 velocity=36 time=0
note_on channel=0 note=56 velocity=0 time=80
note_on channel=0 note=61 velocity=35 time=0
note_on channel=0 note=61 velocity=0 time=0
note_on channel=0 note=68 velocity=41 time=0
note_on channel=0 note=68 velocity=0 time=80
note_on channel=0 note=65 velocity=34 time=0
note_on channel=0 note=65 velocity=0 time=80
note_on channel=0 note=61 velocity=32 time=0
note_on channel=0 note=61 velocity=0 time=0
note_on channel=0 note=41 velocity=0 time=0
note_on channel=0 note=53 velocity=0 time=0
note_on channel=0 note=65 velocity=27 time=0
note_on channel=0 note=73 velocity=39 time=0
note_on channel=0 note=56 velocity=45 time=0
note_on channel=0 note=44 velocity=37 time=0
note_on channel=0 note=73 velocity=0 time=80
note_on channel=0 note=65 velocity=0 time=0
note_on channel=0 note=61 velocity=32 time=0
note_on channel=0 note=61 velocity=0 time=80
note_on channel=0 note=65 velocity=31 time=0
note_on channel=0 note=65 velocity=0 time=80
note_on channel=0 note=56 velocity=0 time=0
note_on channel=0 note=44 velocity=0 time=0
note_on channel=0 note=77 velocity=37 time=0
note_on channel=0 note=49 velocity=43 time=0
note_on channel=0 note=37 velocity=36 time=0
note_on channel=0 note=77 velocity=0 time=13
note_on channel=0 note=73 velocity=26 time=0
note_on channel=0 note=73 velocity=0 time=80
note_on channel=0 note=68 velocity=26 time=0
note_on channel=0 note=68 velocity=0 time=80
note_on channel=0 note=37 velocity=0 time=0
note_on channel=0 note=49 velocity=0 time=0
note_on channel=0 note=77 velocity=30 time=0
note_on channel=0 note=77 velocity=0 time=80
note_on channel=0 note=73 velocity=25 time=0
note_on channel=0 note=73 velocity=0 time=80
note_on channel=0 note=68 velocity=25 time=0
note_on channel=0 note=68 velocity=0 time=0
note_on channel=0 note=80 velocity=30 time=0
note_on channel=0 note=37 velocity=37 time=0
note_on channel=0 note=49 velocity=37 time=0
note_on channel=0 note=80 velocity=0 time=80
note_on channel=0 note=77 velocity=25 time=0
note_on channel=0 note=49 velocity=0 time=40
note_on channel=0 note=37 velocity=0 time=0
note_on channel=0 note=77 velocity=0 time=40
note_on channel=0 note=73 velocity=25 time=0
note_on channel=0 note=73 velocity=0 time=78
note_on channel=0 note=65 velocity=33 time=2
note_on channel=0 note=73 velocity=40 time=0
note_on channel=0 note=37 velocity=34 time=0
note_on channel=0 note=49 velocity=34 time=0
note_on channel=0 note=49 velocity=0 time=120
note_on channel=0 note=37 velocity=0 time=0
note_on channel=0 note=73 velocity=0 time=120
note_on channel=0 note=65 velocity=0 time=0
note_on channel=0 note=37 velocity=37 time=0
note_on channel=0 note=37 velocity=0 time=80
note_on channel=0 note=41 velocity=31 time=0
note_on channel=0 note=41 velocity=0 time=80
note_on channel=0 note=49 velocity=30 time=0
note_on channel=0 note=49 velocity=0 time=9
note_on channel=0 note=77 velocity=48 time=0
note_on channel=0 note=89 velocity=57 time=0
note_on channel=0 note=37 velocity=37 time=0
note_on channel=0 note=37 velocity=0 time=12
note_on channel=0 note=41 velocity=30 time=0
note_on channel=0 note=41 velocity=0 time=15
note_on channel=0 note=49 velocity=30 time=0
note_on channel=0 note=49 velocity=0 time=19
note_on channel=0 note=37 velocity=37 time=0
note_on channel=0 note=37 velocity=0 time=80
note_on channel=0 note=41 velocity=31 time=0
note_on channel=0 note=41 velocity=0 time=80
note_on channel=0 note=49 velocity=31 time=0
note_on channel=0 note=49 velocity=0 time=80
note_on channel=0 note=89 velocity=0 time=0
note_on channel=0 note=77 velocity=0 time=0
note_on channel=0 note=92 velocity=53 time=0
note_on channel=0 note=80 velocity=53 time=0
note_on channel=0 note=37 velocity=37 time=0
note_on channel=0 note=37 velocity=0 time=80
note_on channel=0 note=41 velocity=31 time=0
note_on channel=0 note=41 velocity=0 time=80
note_on channel=0 note=49 velocity=30 time=0
note_on channel=0 note=49 velocity=0 time=23
note_on channel=0 note=80 velocity=0 time=0
note_on channel=0 note=92 velocity=0 time=0
note_on channel=0 note=77 velocity=48 time=0
note_on channel=0 note=89 velocity=57 time=0
note_on channel=0 note=37 velocity=37 time=0
note_on channel=0 note=37 velocity=0 time=80
note_on channel=0 note=41 velocity=30 time=0
note_on channel=0 note=41 velocity=0 time=68
note_on channel=0 note=49 velocity=30 time=0
note_on channel=0 note=49 velocity=0 time=52
note_on channel=0 note=37 velocity=37 time=0
note_on channel=0 note=37 velocity=0 time=36
note_on channel=0 note=41 velocity=31 time=0
note_on channel=0 note=41 velocity=0 time=20
note_on channel=0 note=49 velocity=31 time=0
note_on channel=0 note=49 velocity=0 time=4
note_on channel=0 note=89 velocity=0 time=0
note_on channel=0 note=77 velocity=0 time=0
note_on channel=0 note=73 velocity=48 time=0
note_on channel=0 note=85 velocity=57 time=0
note_on channel=0 note=37 velocity=37 time=0
note_on channel=0 note=37 velocity=0 time=80
note_on channel=0 note=41 velocity=31 time=0
note_on channel=0 note=41 velocity=0 time=68
note_on channel=0 note=49 velocity=30 time=0
note_on channel=0 note=49 velocity=0 time=52
note_on channel=0 note=85 velocity=0 time=0
note_on channel=0 note=73 velocity=0 time=0
note_on channel=0 note=68 velocity=44 time=0
note_on channel=0 note=80 velocity=52 time=0
note_on channel=0 note=37 velocity=37 time=0
note_on channel=0 note=37 velocity=0 time=74
note_on channel=0 note=41 velocity=31 time=0
note_on channel=0 note=41 velocity=0 time=80
note_on channel=0 note=49 velocity=31 time=0
note_on channel=0 note=49 velocity=0 time=80
note_on channel=0 note=80 velocity=0 time=0
note_on channel=0 note=68 velocity=0 time=0
note_on channel=0 note=73 velocity=49 time=0
note_on channel=0 note=85 velocity=58 time=0
note_on channel=0 note=37 velocity=37 time=0
note_on channel=0 note=37 velocity=0 time=80
note_on channel=0 note=41 velocity=31 time=0
note_on channel=0 note=41 velocity=0 time=80
note_on channel=0 note=49 velocity=31 time=0
note_on channel=0 note=49 velocity=0 time=80
note_on channel=0 note=37 velocity=38 time=0
note_on channel=0 note=37 velocity=0 time=80
note_on channel=0 note=41 velocity=32 time=0
note_on channel=0 note=41 velocity=0 time=40
note_on channel=0 note=49 velocity=31 time=0
note_on channel=0 note=49 velocity=0 time=0
note_on channel=0 note=85 velocity=0 time=0
note_on channel=0 note=73 velocity=0 time=0
note_on channel=0 note=89 velocity=60 time=0
note_on channel=0 note=77 velocity=50 time=0
note_on channel=0 note=32 velocity=39 time=0
note_on channel=0 note=32 velocity=0 time=80
note_on channel=0 note=41 velocity=33 time=0
note_on channel=0 note=41 velocity=0 time=80
note_on channel=0 note=49 velocity=34 time=0
note_on channel=0 note=49 velocity=0 time=80
note_on channel=0 note=77 velocity=0 time=0
note_on channel=0 note=89 velocity=0 time=0
note_on channel=0 note=80 velocity=53 time=0
note_on channel=0 note=92 velocity=63 time=0
note_on channel=0 note=32 velocity=41 time=0
note_on channel=0 note=32 velocity=0 time=80
note_on channel=0 note=41 velocity=35 time=0
note_on channel=0 note=41 velocity=0 time=80
note_on channel=0 note=49 velocity=35 time=0
note_on channel=0 note=49 velocity=0 time=80
note_on channel=0 note=32 velocity=42 time=0
note_on channel=0 note=32 velocity=0 time=80
note_on channel=0 note=41 velocity=36 time=0
note_on channel=0 note=41 velocity=0 time=40
note_on channel=0 note=49 velocity=35 time=0
note_on channel=0 note=49 velocity=0 time=0
note_on channel=0 note=92 velocity=0 time=0
note_on channel=0 note=80 velocity=0 time=0
note_on channel=0 note=89 velocity=72 time=0
note_on channel=0 note=77 velocity=61 time=0
note_on channel=0 note=32 velocity=46 time=0
note_on channel=0 note=32 velocity=0 time=80
note_on channel=0 note=41 velocity=37 time=0
note_on channel=0 note=41 velocity=0 time=80
note_on channel=0 note=49 velocity=40 time=0
note_on channel=0 note=49 velocity=0 time=80
note_on channel=0 note=77 velocity=0 time=0
note_on channel=0 note=89 velocity=0 time=0
note_on channel=0 note=85 velocity=81 time=0
note_on channel=0 note=73 velocity=68 time=0
note_on channel=0 note=34 velocity=51 time=0
note_on channel=0 note=34 velocity=0 time=80
note_on channel=0 note=41 velocity=43 time=0
note_on channel=0 note=41 velocity=0 time=64
note_on channel=0 note=49 velocity=43 time=0
note_on channel=0 note=49 velocity=0 time=80
note_on channel=0 note=34 velocity=55 time=0
note_on channel=0 note=34 velocity=0 time=80
note_on channel=0 note=41 velocity=48 time=0
note_on channel=0 note=41 velocity=0 time=40
note_on channel=0 note=49 velocity=51 time=0
note_on channel=0 note=49 velocity=0 time=0
note_on channel=0 note=73 velocity=0 time=0
note_on channel=0 note=85 velocity=0 time=0
note_on channel=0 note=82 velocity=82 time=0
note_on channel=0 note=70 velocity=68 time=0
note_on channel=0 note=34 velocity=61 time=0
note_on channel=0 note=34 velocity=0 time=80
note_on channel=0 note=41 velocity=53 time=0
note_on channel=0 note=41 velocity=0 time=80
note_on channel=0 note=49 velocity=55 time=0
note_on channel=0 note=49 velocity=0 time=80
note_on channel=0 note=70 velocity=0 time=0
note_on channel=0 note=82 velocity=0 time=0
note_on channel=0 note=65 velocity=72 time=0
note_on channel=0 note=77 velocity=86 time=0
note_on channel=0 note=34 velocity=66 time=0
note_on channel=0 note=34 velocity=0 time=80
note_on channel=0 note=41 velocity=57 time=0
note_on channel=0 note=41 velocity=0 time=80
note_on channel=0 note=49 velocity=52 time=0
note_on channel=0 note=49 velocity=0 time=80
note_on channel=0 note=34 velocity=55 time=0
note_on channel=0 note=34 velocity=0 time=80
note_on channel=0 note=41 velocity=45 time=0
note_on channel=0 note=41 velocity=0 time=40
note_on channel=0 note=49 velocity=42 time=0
note_on channel=0 note=49 velocity=0 time=0
note_on channel=0 note=77 velocity=0 time=0
note_on channel=0 note=65 velocity=0 time=0
note_on channel=0 note=82 velocity=78 time=0
note_on channel=0 note=70 velocity=66 time=0
note_on channel=0 note=34 velocity=50 time=0
note_on channel=0 note=34 velocity=0 time=80
note_on channel=0 note=41 velocity=45 time=0
note_on channel=0 note=41 velocity=0 time=80
note_on channel=0 note=49 velocity=44 time=0
note_on channel=0 note=49 velocity=0 time=80
note_on channel=0 note=70 velocity=0 time=0
note_on channel=0 note=82 velocity=0 time=0
note_on channel=0 note=73 velocity=60 time=0
note_on channel=0 note=85 velocity=72 time=0
note_on channel=0 note=29 velocity=44 time=0
note_on channel=0 note=29 velocity=0 time=80
note_on channel=0 note=41 velocity=36 time=0
note_on channel=0 note=41 velocity=0 time=80
note_on channel=0 note=49 velocity=35 time=0
note_on channel=0 note=49 velocity=0 time=0
note_on channel=0 note=29 velocity=41 time=0
note_on channel=0 note=29 velocity=0 time=80
note_on channel=0 note=41 velocity=27 time=0
note_on channel=0 note=41 velocity=0 time=80
note_on channel=0 note=49 velocity=27 time=0
note_on channel=0 note=49 velocity=0 time=0
note_on channel=0 note=85 velocity=0 time=0
note_on channel=0 note=73 velocity=0 time=0
note_on channel=0 note=89 velocity=51 time=0
note_on channel=0 note=77 velocity=42 time=0
note_on channel=0 note=29 velocity=33 time=0
note_on channel=0 note=29 velocity=0 time=80
note_on channel=0 note=41 velocity=32 time=0
note_on channel=0 note=41 velocity=0 time=80
note_on channel=0 note=49 velocity=28 time=0
note_on channel=0 note=49 velocity=0 time=80
note_on channel=0 note=77 velocity=0 time=0
note_on channel=0 note=89 velocity=0 time=0
note_on channel=0 note=82 velocity=48 time=0
note_on channel=0 note=70 velocity=40 time=0
note_on channel=0 note=34 velocity=37 time=0
note_on channel=0 note=34 velocity=0 time=80
note_on channel=0 note=41 velocity=26 time=0
note_on channel=0 note=41 velocity=0 time=80
note_on channel=0 note=49 velocity=26 time=0
note_on channel=0 note=49 velocity=0 time=80
note_on channel=0 note=70 velocity=0 time=0
note_on channel=0 note=82 velocity=0 time=0
note_on channel=0 note=34 velocity=30 time=0
note_on channel=0 note=34 velocity=0 time=14
note_on channel=0 note=61 velocity=34 time=0
note_on channel=0 note=73 velocity=40 time=0
note_on channel=0 note=41 velocity=39 time=0
note_on channel=0 note=53 velocity=46 time=0
note_on channel=0 note=73 velocity=0 time=53
note_on channel=0 note=61 velocity=0 time=0
note_on channel=0 note=61 velocity=34 time=160
note_on channel=0 note=73 velocity=40 time=0
note_on channel=0 note=73 velocity=0 time=60
note_on channel=0 note=61 velocity=0 time=0
note_on channel=0 note=41 velocity=0 time=180
note_on channel=0 note=53 velocity=0 time=0
note_on channel=0 note=61 velocity=37 time=0
note_on channel=0 note=56 velocity=48 time=0
note_on channel=0 note=44 velocity=48 time=0
note_on channel=0 note=61 velocity=0 time=80
note_on channel=0 note=65 velocity=32 time=0
note_on channel=0 note=65 velocity=0 time=80
note_on channel=0 note=73 velocity=32 time=0
note_on channel=0 note=73 velocity=0 time=16
note_on channel=0 note=44 velocity=0 time=0
note_on channel=0 note=56 velocity=0 time=0
note_on channel=0 note=77 velocity=37 time=0
note_on channel=0 note=41 velocity=42 time=0
note_on channel=0 note=53 velocity=50 time=0
note_on channel=0 note=73 velocity=30 time=62
note_on channel=0 note=73 velocity=0 time=61
note_on channel=0 note=68 velocity=30 time=0
note_on channel=0 note=68 velocity=0 time=45
note_on channel=0 note=77 velocity=0 time=0
note_on channel=0 note=77 velocity=37 time=0
note_on channel=0 note=73 velocity=31 time=29
note_on channel=0 note=73 velocity=0 time=13
note_on channel=0 note=68 velocity=31 time=0
note_on channel=0 note=68 velocity=0 time=80
note_on channel=0 note=77 velocity=0 time=0
note_on channel=0 note=53 velocity=0 time=0
note_on channel=0 note=41 velocity=0 time=0
note_on channel=0 note=77 velocity=37 time=0
note_on channel=0 note=80 velocity=37 time=0
note_on channel=0 note=37 velocity=42 time=0
note_on channel=0 note=49 velocity=50 time=0
note_on channel=0 note=77 velocity=0 time=77
note_on channel=0 note=73 velocity=31 time=0
note_on channel=0 note=73 velocity=0 time=61
note_on channel=0 note=68 velocity=30 time=0
note_on channel=0 note=68 velocity=0 time=45
note_on channel=0 note=80 velocity=0 time=0
note_on channel=0 note=37 velocity=0 time=0
note_on channel=0 note=49 velocity=0 time=0
note_on channel=0 note=77 velocity=37 time=0
note_on channel=0 note=32 velocity=39 time=0
note_on channel=0 note=44 velocity=47 time=0
note_on channel=0 note=77 velocity=0 time=67
note_on channel=0 note=73 velocity=31 time=0
note_on channel=0 note=73 velocity=0 time=80
note_on channel=0 note=68 velocity=31 time=0
note_on channel=0 note=68 velocity=0 time=80
note_on channel=0 note=44 velocity=0 time=0
note_on channel=0 note=32 velocity=0 time=0
note_on channel=0 note=77 velocity=37 time=0
note_on channel=0 note=37 velocity=44 time=0
note_on channel=0 note=49 velocity=51 time=0
note_on channel=0 note=77 velocity=0 time=80
note_on channel=0 note=73 velocity=31 time=0
note_on channel=0 note=73 velocity=0 time=80
note_on channel=0 note=68 velocity=31 time=0
note_on channel=0 note=68 velocity=0 time=80
note_on channel=0 note=73 velocity=38 time=0
note_on channel=0 note=73 velocity=0 time=80
note_on channel=0 note=68 velocity=32 time=0
note_on channel=0 note=68 velocity=0 time=33
note_on channel=0 note=65 velocity=31 time=0
note_on channel=0 note=65 velocity=0 time=80
note_on channel=0 note=49 velocity=0 time=0
note_on channel=0 note=37 velocity=0 time=0
note_on channel=0 note=61 velocity=34 time=0
note_on channel=0 note=68 velocity=39 time=0
note_on channel=0 note=53 velocity=59 time=0
note_on channel=0 note=41 velocity=49 time=0
note_on channel=0 note=68 velocity=0 time=73
note_on channel=0 note=61 velocity=0 time=0
note_on channel=0 note=56 velocity=33 time=0
note_on channel=0 note=56 velocity=0 time=80
note_on channel=0 note=61 velocity=34 time=0
note_on channel=0 note=61 velocity=0 time=80
note_on channel=0 note=53 velocity=0 time=0
note_on channel=0 note=41 velocity=0 time=0
note_on channel=0 note=65 velocity=32 time=0
note_on channel=0 note=73 velocity=41 time=0
note_on channel=0 note=44 velocity=51 time=0
note_on channel=0 note=56 velocity=61 time=0
note_on channel=0 note=73 velocity=0 time=80
note_on channel=0 note=65 velocity=0 time=0
note_on channel=0 note=61 velocity=35 time=0
note_on channel=0 note=61 velocity=0 time=80
note_on channel=0 note=65 velocity=35 time=0
note_on channel=0 note=65 velocity=0 time=80
note_on channel=0 note=73 velocity=50 time=0
note_on channel=0 note=73 velocity=0 time=80
note_on channel=0 note=68 velocity=40 time=0
note_on channel=0 note=68 velocity=0 time=33
note_on channel=0 note=65 velocity=43 time=0
note_on channel=0 note=65 velocity=0 time=80
note_on channel=0 note=44 velocity=0 time=0
note_on channel=0 note=56 velocity=0 time=0
note_on channel=0 note=77 velocity=54 time=0
note_on channel=0 note=53 velocity=70 time=0
note_on channel=0 note=41 velocity=59 time=0
note_on channel=0 note=77 velocity=0 time=73
note_on channel=0 note=73 velocity=47 time=0
note_on channel=0 note=73 velocity=0 time=80
note_on channel=0 note=68 velocity=50 time=0
note_on channel=0 note=68 velocity=0 time=80
note_on channel=0 note=41 velocity=0 time=0
note_on channel=0 note=53 velocity=0 time=0
note_on channel=0 note=80 velocity=62 time=0
note_on channel=0 note=49 velocity=79 time=0
note_on channel=0 note=37 velocity=67 time=0
note_on channel=0 note=80 velocity=0 time=80
note_on channel=0 note=77 velocity=53 time=0
note_on channel=0 note=77 velocity=0 time=80
note_on channel=0 note=73 velocity=55 time=0
note_on channel=0 note=73 velocity=0 time=80
note_on channel=0 note=77 velocity=67 time=0
note_on channel=0 note=77 velocity=0 time=80
note_on channel=0 note=73 velocity=60 time=0
note_on channel=0 note=73 velocity=0 time=33
note_on channel=0 note=77 velocity=62 time=0
note_on channel=0 note=77 velocity=0 time=78
note_on channel=0 note=37 velocity=0 time=2
note_on channel=0 note=49 velocity=0 time=0
note_on channel=0 note=77 velocity=72 time=0
note_on channel=0 note=34 velocity=61 time=0
note_on channel=0 note=46 velocity=73 time=0
note_on channel=0 note=77 velocity=0 time=70
note_on channel=0 note=73 velocity=63 time=0
note_on channel=0 note=73 velocity=0 time=47
note_on channel=0 note=65 velocity=60 time=0
note_on channel=0 note=65 velocity=0 time=80
note_on channel=0 note=46 velocity=0 time=0
note_on channel=0 note=34 velocity=0 time=0
note_on channel=0 note=73 velocity=75 time=0
note_on channel=0 note=29 velocity=64 time=0
note_on channel=0 note=41 velocity=77 time=0
note_on channel=0 note=73 velocity=0 time=80
note_on channel=0 note=70 velocity=66 time=0
note_on channel=0 note=70 velocity=0 time=80
note_on channel=0 note=65 velocity=52 time=0
note_on channel=0 note=65 velocity=0 time=80
note_on channel=0 note=73 velocity=55 time=0
note_on channel=0 note=73 velocity=0 time=80
note_on channel=0 note=70 velocity=45 time=0
note_on channel=0 note=70 velocity=0 time=33
note_on channel=0 note=65 velocity=42 time=0
note_on channel=0 note=65 velocity=0 time=80
note_on channel=0 note=41 velocity=0 time=0
note_on channel=0 note=29 velocity=0 time=0
note_on channel=0 note=70 velocity=60 time=0
note_on channel=0 note=34 velocity=58 time=0
note_on channel=0 note=46 velocity=69 time=0
note_on channel=0 note=70 velocity=0 time=73
note_on channel=0 note=65 velocity=45 time=0
note_on channel=0 note=65 velocity=0 time=80
note_on channel=0 note=61 velocity=44 time=0
note_on channel=0 note=61 velocity=0 time=80
note_on channel=0 note=46 velocity=0 time=0
note_on channel=0 note=34 velocity=0 time=0
note_on channel=0 note=65 velocity=44 time=0
note_on channel=0 note=37 velocity=54 time=0
note_on channel=0 note=49 velocity=64 time=0
note_on channel=0 note=65 velocity=0 time=80
note_on channel=0 note=61 velocity=36 time=0
note_on channel=0 note=61 velocity=0 time=80
note_on channel=0 note=58 velocity=35 time=0
note_on channel=0 note=58 velocity=0 time=80
note_on channel=0 note=65 velocity=41 time=0
note_on channel=0 note=65 velocity=0 time=73
note_on channel=0 note=61 velocity=34 time=0
note_on channel=0 note=61 velocity=0 time=80
note_on channel=0 note=58 velocity=32 time=0
note_on channel=0 note=58 velocity=0 time=80
note_on channel=0 note=49 velocity=0 time=0
note_on channel=0 note=37 velocity=0 time=0
note_on channel=0 note=61 velocity=27 time=0
note_on channel=0 note=70 velocity=39 time=0
note_on channel=0 note=41 velocity=37 time=0
note_on channel=0 note=53 velocity=45 time=0
note_on channel=0 note=70 velocity=0 time=73
note_on channel=0 note=61 velocity=0 time=0
note_on channel=0 note=58 velocity=32 time=0
note_on channel=0 note=58 velocity=0 time=80
note_on channel=0 note=61 velocity=31 time=0
note_on channel=0 note=61 velocity=0 time=80
note_on channel=0 note=41 velocity=0 time=0
note_on channel=0 note=53 velocity=0 time=0
note_on channel=0 note=73 velocity=37 time=0
note_on channel=0 note=34 velocity=36 time=0
note_on channel=0 note=46 velocity=43 time=0
note_on channel=0 note=73 velocity=0 time=13
note_on channel=0 note=70 velocity=26 time=0
note_on channel=0 note=70 velocity=0 time=80
note_on channel=0 note=65 velocity=26 time=0
note_on channel=0 note=65 velocity=0 time=80
note_on channel=0 note=46 velocity=0 time=0
note_on channel=0 note=34 velocity=0 time=0
note_on channel=0 note=73 velocity=30 time=0
note_on channel=0 note=73 velocity=0 time=80
note_on channel=0 note=70 velocity=25 time=0
note_on channel=0 note=70 velocity=0 time=80
note_on channel=0 note=65 velocity=25 time=0
note_on channel=0 note=65 velocity=0 time=0
note_on channel=0 note=77 velocity=30 time=0
note_on channel=0 note=77 velocity=0 time=80
note_on channel=0 note=73 velocity=25 time=0
note_on channel=0 note=73 velocity=0 time=80
note_on channel=0 note=65 velocity=25 time=0
note_on channel=0 note=65 velocity=0 time=19
note_on channel=0 note=70 velocity=40 time=0
note_on channel=0 note=61 velocity=29 time=0
note_on channel=0 note=61 velocity=0 time=22
note_on channel=0 note=58 velocity=20 time=0
note_on channel=0 note=58 velocity=0 time=6
note_on channel=0 note=53 velocity=20 time=0
note_on channel=0 note=53 velocity=0 time=10
note_on channel=0 note=70 velocity=0 time=0
note_on channel=0 note=61 velocity=24 time=0
note_on channel=0 note=61 velocity=0 time=32
note_on channel=0 note=58 velocity=20 time=0
note_on channel=0 note=58 velocity=0 time=16
note_on channel=0 note=53 velocity=20 time=0
note_on channel=0 note=53 velocity=0 time=0
note_on channel=0 note=65 velocity=24 time=0
note_on channel=0 note=65 velocity=0 time=3
note_on channel=0 note=61 velocity=20 time=0
note_on channel=0 note=61 velocity=0 time=26
note_on channel=0 note=53 velocity=20 time=0
note_on channel=0 note=53 velocity=0 time=0
note_on channel=0 note=70 velocity=50 time=0
note_on channel=0 note=58 velocity=42 time=0
note_on channel=0 note=58 velocity=0 time=60
note_on channel=0 note=70 velocity=0 time=0
note_on channel=0 note=73 velocity=44 time=180
note_on channel=0 note=61 velocity=37 time=0
note_on channel=0 note=61 velocity=0 time=60
note_on channel=0 note=73 velocity=0 time=0
note_on channel=0 note=72 velocity=50 time=0
note_on channel=0 note=60 velocity=42 time=0
note_on channel=0 note=60 velocity=0 time=60
note_on channel=0 note=72 velocity=0 time=0
note_on channel=0 note=65 velocity=43 time=0
note_on channel=0 note=53 velocity=36 time=0
note_on channel=0 note=53 velocity=0 time=60
note_on channel=0 note=65 velocity=0 time=0
note_on channel=0 note=77 velocity=50 time=0
note_on channel=0 note=65 velocity=42 time=0
note_on channel=0 note=65 velocity=0 time=60
note_on channel=0 note=77 velocity=0 time=0
note_on channel=0 note=75 velocity=45 time=180
note_on channel=0 note=63 velocity=38 time=0
note_on channel=0 note=63 velocity=0 time=60
note_on channel=0 note=75 velocity=0 time=0
note_on channel=0 note=73 velocity=45 time=0
note_on channel=0 note=61 velocity=38 time=0
note_on channel=0 note=61 velocity=0 time=60
note_on channel=0 note=73 velocity=0 time=0
note_on channel=0 note=72 velocity=45 time=0
note_on channel=0 note=60 velocity=38 time=0
note_on channel=0 note=60 velocity=0 time=60
note_on channel=0 note=72 velocity=0 time=0
note_on channel=0 note=70 velocity=50 time=0
note_on channel=0 note=58 velocity=42 time=0
note_on channel=0 note=58 velocity=0 time=60
note_on channel=0 note=70 velocity=0 time=0
note_on channel=0 note=73 velocity=43 time=180
note_on channel=0 note=61 velocity=36 time=0
note_on channel=0 note=61 velocity=0 time=60
note_on channel=0 note=73 velocity=0 time=0
note_on channel=0 note=72 velocity=50 time=0
note_on channel=0 note=60 velocity=42 time=0
note_on channel=0 note=60 velocity=0 time=60
note_on channel=0 note=72 velocity=0 time=0
note_on channel=0 note=68 velocity=42 time=0
note_on channel=0 note=56 velocity=35 time=0
note_on channel=0 note=56 velocity=0 time=60
note_on channel=0 note=68 velocity=0 time=0
note_on channel=0 note=72 velocity=50 time=0
note_on channel=0 note=60 velocity=42 time=0
note_on channel=0 note=60 velocity=0 time=60
note_on channel=0 note=72 velocity=0 time=0
note_on channel=0 note=67 velocity=42 time=0
note_on channel=0 note=55 velocity=35 time=0
note_on channel=0 note=55 velocity=0 time=60
note_on channel=0 note=67 velocity=0 time=0
note_on channel=0 note=65 velocity=46 time=0
note_on channel=0 note=53 velocity=39 time=0
note_on channel=0 note=53 velocity=0 time=0
note_on channel=0 note=65 velocity=0 time=0
note_on channel=0 note=41 velocity=46 time=0
note_on channel=0 note=53 velocity=55 time=0
note_on channel=0 note=65 velocity=42 time=0
note_on channel=0 note=68 velocity=42 time=0
note_on channel=0 note=72 velocity=50 time=0
note_on channel=0 note=53 velocity=0 time=60
note_on channel=0 note=41 velocity=0 time=0
note_on channel=0 note=68 velocity=0 time=0
note_on channel=0 note=65 velocity=0 time=0
note_on channel=0 note=72 velocity=0 time=0
note_on channel=0 note=44 velocity=41 time=0
note_on channel=0 note=56 velocity=49 time=0
note_on channel=0 note=65 velocity=40 time=0
note_on channel=0 note=68 velocity=40 time=0
note_on channel=0 note=72 velocity=48 time=0
note_on channel=0 note=56 velocity=0 time=60
note_on channel=0 note=44 velocity=0 time=0
note_on channel=0 note=68 velocity=0 time=0
note_on channel=0 note=65 velocity=0 time=0
note_on channel=0 note=72 velocity=0 time=0
note_on channel=0 note=43 velocity=48 time=0
note_on channel=0 note=55 velocity=57 time=0
note_on channel=0 note=64 velocity=41 time=0
note_on channel=0 note=70 velocity=41 time=0
note_on channel=0 note=72 velocity=49 time=0
note_on channel=0 note=55 velocity=0 time=60
note_on channel=0 note=43 velocity=0 time=0
note_on channel=0 note=70 velocity=0 time=0
note_on channel=0 note=64 velocity=0 time=0
note_on channel=0 note=72 velocity=0 time=0
note_on channel=0 note=36 velocity=41 time=0
note_on channel=0 note=48 velocity=50 time=0
note_on channel=0 note=64 velocity=42 time=49
note_on channel=0 note=67 velocity=42 time=0
note_on channel=0 note=70 velocity=42 time=0
note_on channel=0 note=72 velocity=51 time=0
note_on channel=0 note=48 velocity=0 time=60
note_on channel=0 note=36 velocity=0 time=0
note_on channel=0 note=70 velocity=0 time=0
note_on channel=0 note=67 velocity=0 time=0
note_on channel=0 note=72 velocity=0 time=0
note_on channel=0 note=64 velocity=0 time=0
note_on channel=0 note=48 velocity=51 time=0
note_on channel=0 note=60 velocity=61 time=0
note_on channel=0 note=64 velocity=46 time=0
note_on channel=0 note=67 velocity=46 time=0
note_on channel=0 note=72 velocity=57 time=0
note_on channel=0 note=60 velocity=0 time=60
note_on channel=0 note=48 velocity=0 time=0
note_on channel=0 note=67 velocity=0 time=0
note_on channel=0 note=64 velocity=0 time=0
note_on channel=0 note=72 velocity=0 time=0
note_on channel=0 note=46 velocity=48 time=0
note_on channel=0 note=58 velocity=57 time=0
note_on channel=0 note=64 velocity=47 time=0
note_on channel=0 note=67 velocity=47 time=0
note_on channel=0 note=72 velocity=57 time=0
note_on channel=0 note=58 velocity=0 time=60
note_on channel=0 note=46 velocity=0 time=0
note_on channel=0 note=67 velocity=0 time=0
note_on channel=0 note=64 velocity=0 time=0
note_on channel=0 note=72 velocity=0 time=0
note_on channel=0 note=44 velocity=49 time=0
note_on channel=0 note=56 velocity=58 time=0
note_on channel=0 note=65 velocity=48 time=45
note_on channel=0 note=68 velocity=48 time=0
note_on channel=0 note=72 velocity=58 time=0
note_on channel=0 note=56 velocity=0 time=60
note_on channel=0 note=44 velocity=0 time=0
note_on channel=0 note=68 velocity=0 time=0
note_on channel=0 note=65 velocity=0 time=0
note_on channel=0 note=72 velocity=0 time=0
note_on channel=0 note=43 velocity=50 time=0
note_on channel=0 note=55 velocity=60 time=0
note_on channel=0 note=64 velocity=49 time=58
note_on channel=0 note=70 velocity=49 time=0
note_on channel=0 note=72 velocity=59 time=0
note_on channel=0 note=55 velocity=0 time=60
note_on channel=0 note=43 velocity=0 time=0
note_on channel=0 note=70 velocity=0 time=0
note_on channel=0 note=64 velocity=0 time=0
note_on channel=0 note=72 velocity=0 time=0
note_on channel=0 note=41 velocity=57 time=0
note_on channel=0 note=53 velocity=69 time=0
note_on channel=0 note=65 velocity=58 time=0
note_on channel=0 note=68 velocity=58 time=0
note_on channel=0 note=72 velocity=70 time=0
note_on channel=0 note=53 velocity=0 time=60
note_on channel=0 note=41 velocity=0 time=0
note_on channel=0 note=68 velocity=0 time=0
note_on channel=0 note=65 velocity=0 time=0
note_on channel=0 note=72 velocity=0 time=0
note_on channel=0 note=44 velocity=50 time=0
note_on channel=0 note=56 velocity=60 time=0
note_on channel=0 note=65 velocity=54 time=0
note_on channel=0 note=68 velocity=54 time=0
note_on channel=0 note=72 velocity=54 time=0
note_on channel=0 note=77 velocity=65 time=0
note_on channel=0 note=56 velocity=0 time=60
note_on channel=0 note=44 velocity=0 time=0
note_on channel=0 note=72 velocity=0 time=0
note_on channel=0 note=68 velocity=0 time=0
note_on channel=0 note=77 velocity=0 time=0
note_on channel=0 note=65 velocity=0 time=0
note_on channel=0 note=43 velocity=60 time=0
note_on channel=0 note=55 velocity=73 time=0
note_on channel=0 note=65 velocity=56 time=0
note_on channel=0 note=70 velocity=56 time=0
note_on channel=0 note=72 velocity=56 time=0
note_on channel=0 note=77 velocity=66 time=0
note_on channel=0 note=55 velocity=0 time=60
note_on channel=0 note=43 velocity=0 time=0
note_on channel=0 note=72 velocity=0 time=0
note_on channel=0 note=70 velocity=0 time=0
note_on channel=0 note=77 velocity=0 time=0
note_on channel=0 note=65 velocity=0 time=0
note_on channel=0 note=48 velocity=50 time=0
note_on channel=0 note=60 velocity=61 time=0
note_on channel=0 note=64 velocity=57 time=29
note_on channel=0 note=70 velocity=57 time=0
note_on channel=0 note=72 velocity=57 time=0
note_on channel=0 note=76 velocity=69 time=0
note_on channel=0 note=60 velocity=0 time=60
note_on channel=0 note=48 velocity=0 time=0
note_on channel=0 note=72 velocity=0 time=0
note_on channel=0 note=70 velocity=0 time=0
note_on channel=0 note=76 velocity=0 time=0
note_on channel=0 note=64 velocity=0 time=0
note_on channel=0 note=45 velocity=63 time=0
note_on channel=0 note=57 velocity=75 time=0
note_on channel=0 note=65 velocity=69 time=0
note_on channel=0 note=72 velocity=69 time=0
note_on channel=0 note=77 velocity=82 time=0
note_on channel=0 note=57 velocity=0 time=60
note_on channel=0 note=45 velocity=0 time=0
note_on channel=0 note=72 velocity=0 time=0
note_on channel=0 note=65 velocity=0 time=0
note_on channel=0 note=77 velocity=0 time=0
note_on channel=0 note=41 velocity=54 time=0
note_on channel=0 note=53 velocity=65 time=0
note_on channel=0 note=65 velocity=60 time=120
note_on channel=0 note=72 velocity=60 time=0
note_on channel=0 note=75 velocity=73 time=0
note_on channel=0 note=53 velocity=0 time=60
note_on channel=0 note=41 velocity=0 time=0
note_on channel=0 note=72 velocity=0 time=0
note_on channel=0 note=65 velocity=0 time=0
note_on channel=0 note=75 velocity=0 time=0
note_on channel=0 note=46 velocity=66 time=0
note_on channel=0 note=58 velocity=79 time=0
note_on channel=0 note=65 velocity=62 time=40
note_on channel=0 note=70 velocity=62 time=0
note_on channel=0 note=73 velocity=75 time=0
note_on channel=0 note=58 velocity=0 time=60
note_on channel=0 note=46 velocity=0 time=0
note_on channel=0 note=70 velocity=0 time=0
note_on channel=0 note=65 velocity=0 time=0
note_on channel=0 note=73 velocity=0 time=0
note_on channel=0 note=48 velocity=56 time=0
note_on channel=0 note=60 velocity=68 time=0
note_on channel=0 note=63 velocity=63 time=0
note_on channel=0 note=69 velocity=63 time=0
note_on channel=0 note=72 velocity=76 time=0
note_on channel=0 note=60 velocity=0 time=60
note_on channel=0 note=48 velocity=0 time=0
note_on channel=0 note=69 velocity=0 time=0
note_on channel=0 note=63 velocity=0 time=0
note_on channel=0 note=72 velocity=0 time=0
note_on channel=0 note=70 velocity=76 time=0
note_on channel=0 note=77 velocity=76 time=0
note_on channel=0 note=82 velocity=90 time=0
note_on channel=0 note=49 velocity=78 time=0
note_on channel=0 note=49 velocity=0 time=35
note_on channel=0 note=70 velocity=0 time=0
note_on channel=0 note=77 velocity=0 time=0
note_on channel=0 note=82 velocity=0 time=0
note_on channel=0 note=61 velocity=69 time=0
note_on channel=0 note=61 velocity=0 time=120
note_on channel=0 note=85 velocity=85 time=0
note_on channel=0 note=82 velocity=72 time=0
note_on channel=0 note=77 velocity=72 time=0
note_on channel=0 note=73 velocity=72 time=0
note_on channel=0 note=46 velocity=78 time=0
note_on channel=0 note=46 velocity=0 time=120
note_on channel=0 note=77 velocity=0 time=0
note_on channel=0 note=85 velocity=0 time=0
note_on channel=0 note=82 velocity=0 time=0
note_on channel=0 note=73 velocity=0 time=0
note_on channel=0 note=58 velocity=68 time=0
note_on channel=0 note=58 velocity=0 time=0
note_on channel=0 note=84 velocity=85 time=0
note_on channel=0 note=81 velocity=85 time=0
note_on channel=0 note=77 velocity=72 time=0
note_on channel=0 note=72 velocity=72 time=0
note_on channel=0 note=41 velocity=78 time=0
note_on channel=0 note=41 velocity=0 time=11
note_on channel=0 note=77 velocity=0 time=0
note_on channel=0 note=84 velocity=0 time=0
note_on channel=0 note=81 velocity=0 time=0
note_on channel=0 note=72 velocity=0 time=0
note_on channel=0 note=53 velocity=67 time=0
note_on channel=0 note=53 velocity=0 time=0
note_on channel=0 note=77 velocity=85 time=0
note_on channel=0 note=72 velocity=72 time=0
note_on channel=0 note=69 velocity=72 time=0
note_on channel=0 note=65 velocity=72 time=0
note_on channel=0 note=39 velocity=78 time=0
note_on channel=0 note=39 velocity=0 time=0
note_on channel=0 note=69 velocity=0 time=0
note_on channel=0 note=77 velocity=0 time=0
note_on channel=0 note=72 velocity=0 time=0
note_on channel=0 note=65 velocity=0 time=0
note_on channel=0 note=51 velocity=66 time=0
note_on channel=0 note=51 velocity=0 time=0
note_on channel=0 note=89 velocity=99 time=0
note_on channel=0 note=82 velocity=83 time=0
note_on channel=0 note=77 velocity=83 time=0
note_on channel=0 note=37 velocity=78 time=0
note_on channel=0 note=37 velocity=0 time=37
note_on channel=0 note=89 velocity=0 time=0
note_on channel=0 note=82 velocity=0 time=0
note_on channel=0 note=77 velocity=0 time=0
note_on channel=0 note=49 velocity=67 time=0
note_on channel=0 note=49 velocity=0 time=120
note_on channel=0 note=87 velocity=84 time=0
note_on channel=0 note=81 velocity=71 time=0
note_on channel=0 note=77 velocity=71 time=0
note_on channel=0 note=75 velocity=71 time=0
note_on channel=0 note=36 velocity=78 time=0
note_on channel=0 note=36 velocity=0 time=66
note_on channel=0 note=77 velocity=0 time=0
note_on channel=0 note=87 velocity=0 time=0
note_on channel=0 note=81 velocity=0 time=0
note_on channel=0 note=75 velocity=0 time=0
note_on channel=0 note=48 velocity=67 time=0
note_on channel=0 note=48 velocity=0 time=0
note_on channel=0 note=85 velocity=84 time=0
note_on channel=0 note=82 velocity=71 time=0
note_on channel=0 note=77 velocity=71 time=0
note_on channel=0 note=73 velocity=71 time=0
note_on channel=0 note=34 velocity=73 time=0
note_on channel=0 note=34 velocity=0 time=45
note_on channel=0 note=77 velocity=0 time=0
note_on channel=0 note=85 velocity=0 time=0
note_on channel=0 note=82 velocity=0 time=0
note_on channel=0 note=73 velocity=0 time=0
note_on channel=0 note=46 velocity=62 time=0
note_on channel=0 note=46 velocity=0 time=0
note_on channel=0 note=84 velocity=84 time=0
note_on channel=0 note=77 velocity=71 time=0
note_on channel=0 note=72 velocity=71 time=0
note_on channel=0 note=33 velocity=73 time=0
note_on channel=0 note=33 velocity=0 time=40
note_on channel=0 note=84 velocity=0 time=0
note_on channel=0 note=77 velocity=0 time=0
note_on channel=0 note=72 velocity=0 time=0
note_on channel=0 note=45 velocity=61 time=0
note_on channel=0 note=45 velocity=0 time=0
note_on channel=0 note=82 velocity=90 time=0
note_on channel=0 note=77 velocity=76 time=0
note_on channel=0 note=73 velocity=76 time=0
note_on channel=0 note=70 velocity=76 time=0
note_on channel=0 note=34 velocity=75 time=0
note_on channel=0 note=34 velocity=0 time=28
note_on channel=0 note=73 velocity=0 time=0
note_on channel=0 note=82 velocity=0 time=0
note_on channel=0 note=77 velocity=0 time=0
note_on channel=0 note=70 velocity=0 time=0
note_on channel=0 note=46 velocity=63 time=0
note_on channel=0 note=46 velocity=0 time=120
note_on channel=0 note=85 velocity=82 time=0
note_on channel=0 note=82 velocity=69 time=0
note_on channel=0 note=77 velocity=69 time=0
note_on channel=0 note=73 velocity=69 time=0
note_on channel=0 note=34 velocity=73 time=0
note_on channel=0 note=34 velocity=0 time=120
note_on channel=0 note=77 velocity=0 time=0
note_on channel=0 note=85 velocity=0 time=0
note_on channel=0 note=82 velocity=0 time=0
note_on channel=0 note=73 velocity=0 time=0
note_on channel=0 note=46 velocity=65 time=0
note_on channel=0 note=46 velocity=0 time=0
note_on channel=0 note=84 velocity=90 time=0
note_on channel=0 note=77 velocity=76 time=0
note_on channel=0 note=72 velocity=76 time=0
note_on channel=0 note=33 velocity=74 time=0
note_on channel=0 note=33 velocity=0 time=34
note_on channel=0 note=84 velocity=0 time=0
note_on channel=0 note=77 velocity=0 time=0
note_on channel=0 note=72 velocity=0 time=0
note_on channel=0 note=45 velocity=62 time=0
note_on channel=0 note=45 velocity=0 time=0
note_on channel=0 note=77 velocity=81 time=0
note_on channel=0 note=72 velocity=68 time=0
note_on channel=0 note=69 velocity=68 time=0
note_on channel=0 note=65 velocity=68 time=0
note_on channel=0 note=39 velocity=73 time=0
note_on channel=0 note=39 velocity=0 time=0
note_on channel=0 note=69 velocity=0 time=0
note_on channel=0 note=77 velocity=0 time=0
note_on channel=0 note=72 velocity=0 time=0
note_on channel=0 note=65 velocity=0 time=0
note_on channel=0 note=51 velocity=60 time=0
note_on channel=0 note=51 velocity=0 time=0
note_on channel=0 note=89 velocity=109 time=0
note_on channel=0 note=77 velocity=92 time=0
note_on channel=0 note=37 velocity=71 time=0
note_on channel=0 note=37 velocity=0 time=35
note_on channel=0 note=77 velocity=0 time=0
note_on channel=0 note=89 velocity=0 time=0
note_on channel=0 note=49 velocity=61 time=0
note_on channel=0 note=49 velocity=0 time=0
note_on channel=0 note=85 velocity=92 time=0
note_on channel=0 note=82 velocity=78 time=0
note_on channel=0 note=73 velocity=78 time=0
note_on channel=0 note=34 velocity=70 time=0
note_on channel=0 note=34 velocity=0 time=120
note_on channel=0 note=85 velocity=0 time=0
note_on channel=0 note=82 velocity=0 time=0
note_on channel=0 note=73 velocity=0 time=0
note_on channel=0 note=46 velocity=63 time=0
note_on channel=0 note=46 velocity=0 time=0
note_on channel=0 note=84 velocity=101 time=0
note_on channel=0 note=81 velocity=85 time=0
note_on channel=0 note=72 velocity=85 time=0
note_on channel=0 note=41 velocity=75 time=0
note_on channel=0 note=53 velocity=75 time=0
note_on channel=0 note=53 velocity=0 time=0
note_on channel=0 note=72 velocity=0 time=0
note_on channel=0 note=84 velocity=0 time=0
note_on channel=0 note=81 velocity=0 time=0
note_on channel=0 note=41 velocity=0 time=0
note_on channel=0 note=89 velocity=109 time=0
note_on channel=0 note=77 velocity=92 time=0
note_on channel=0 note=61 velocity=71 time=0
note_on channel=0 note=61 velocity=0 time=35
note_on channel=0 note=77 velocity=0 time=0
note_on channel=0 note=89 velocity=0 time=0
note_on channel=0 note=73 velocity=61 time=0
note_on channel=0 note=73 velocity=0 time=0
note_on channel=0 note=85 velocity=92 time=0
note_on channel=0 note=82 velocity=78 time=0
note_on channel=0 note=58 velocity=70 time=0
note_on channel=0 note=58 velocity=0 time=120
note_on channel=0 note=82 velocity=0 time=0
note_on channel=0 note=85 velocity=0 time=0
note_on channel=0 note=70 velocity=63 time=0
note_on channel=0 note=70 velocity=0 time=0
note_on channel=0 note=84 velocity=101 time=0
note_on channel=0 note=81 velocity=85 time=0
note_on channel=0 note=77 velocity=80 time=0
note_on channel=0 note=77 velocity=0 time=0
note_on channel=0 note=81 velocity=0 time=0
note_on channel=0 note=84 velocity=0 time=0
note_on channel=0 note=72 velocity=97 time=0
note_on channel=0 note=69 velocity=81 time=0
note_on channel=0 note=65 velocity=80 time=0
note_on channel=0 note=65 velocity=0 time=0
note_on channel=0 note=69 velocity=0 time=0
note_on channel=0 note=72 velocity=0 time=0
note_on channel=0 note=60 velocity=98 time=0
note_on channel=0 note=57 velocity=80 time=0
note_on channel=0 note=53 velocity=80 time=0
note_on channel=0 note=53 velocity=0 time=0
note_on channel=0 note=57 velocity=0 time=0
note_on channel=0 note=60 velocity=0 time=0
note_on channel=0 note=48 velocity=101 time=0
note_on channel=0 note=45 velocity=85 time=0
note_on channel=0 note=41 velocity=80 time=0
note_on channel=0 note=41 velocity=0 time=0
note_on channel=0 note=45 velocity=0 time=0
note_on channel=0 note=48 velocity=0 time=0
note_on channel=0 note=36 velocity=101 time=0
note_on channel=0 note=33 velocity=85 time=0
note_on channel=0 note=29 velocity=89 time=0
note_on channel=0 note=29 velocity=0 time=43
note_on channel=0 note=33 velocity=0 time=0
note_on channel=0 note=36 velocity=0 time=0
note_on channel=0 note=29 velocity=65 time=0
note_on channel=0 note=29 velocity=0 time=27
note_on channel=0 note=31 velocity=65 time=0
note_on channel=0 note=31 velocity=0 time=30
note_on channel=0 note=33 velocity=66 time=0
note_on channel=0 note=33 velocity=0 time=33
note_on channel=0 note=34 velocity=66 time=0
note_on channel=0 note=34 velocity=0 time=0
note_on channel=0 note=36 velocity=67 time=0
note_on channel=0 note=36 velocity=0 time=4
note_on channel=0 note=38 velocity=68 time=0
note_on channel=0 note=38 velocity=0 time=9
note_on channel=0 note=40 velocity=69 time=0
note_on channel=0 note=40 velocity=0 time=14
note_on channel=0 note=41 velocity=69 time=0
note_on channel=0 note=41 velocity=0 time=9
note_on channel=0 note=43 velocity=70 time=0
note_on channel=0 note=43 velocity=0 time=20
note_on channel=0 note=45 velocity=70 time=0
note_on channel=0 note=45 velocity=0 time=24
note_on channel=0 note=46 velocity=71 time=0
note_on channel=0 note=46 velocity=0 time=28
note_on channel=0 note=48 velocity=72 time=0
note_on channel=0 note=48 velocity=0 time=33
note_on channel=0 note=50 velocity=73 time=0
note_on channel=0 note=50 velocity=0 time=0
note_on channel=0 note=52 velocity=73 time=0
note_on channel=0 note=52 velocity=0 time=4
note_on channel=0 note=53 velocity=74 time=0
note_on channel=0 note=53 velocity=0 time=8
note_on channel=0 note=55 velocity=75 time=0
note_on channel=0 note=55 velocity=0 time=11
note_on channel=0 note=57 velocity=75 time=0
note_on channel=0 note=57 velocity=0 time=33
note_on channel=0 note=58 velocity=76 time=0
note_on channel=0 note=58 velocity=0 time=56
note_on channel=0 note=60 velocity=77 time=0
note_on channel=0 note=60 velocity=0 time=24
note_on channel=0 note=62 velocity=77 time=0
note_on channel=0 note=62 velocity=0 time=120
note_on channel=0 note=64 velocity=78 time=0
note_on channel=0 note=64 velocity=0 time=33
note_on channel=0 note=65 velocity=81 time=0
note_on channel=0 note=65 velocity=0 time=80
note_on channel=0 note=67 velocity=81 time=0
note_on channel=0 note=67 velocity=0 time=80
note_on channel=0 note=69 velocity=81 time=0
note_on channel=0 note=69 velocity=0 time=24
note_on channel=0 note=70 velocity=81 time=0
note_on channel=0 note=70 velocity=0 time=120
note_on channel=0 note=72 velocity=82 time=0
note_on channel=0 note=72 velocity=0 time=33
note_on channel=0 note=74 velocity=82 time=0
note_on channel=0 note=74 velocity=0 time=120
note_on channel=0 note=76 velocity=83 time=0
note_on channel=0 note=76 velocity=0 time=24
note_on channel=0 note=77 velocity=83 time=0
note_on channel=0 note=77 velocity=0 time=80
note_on channel=0 note=79 velocity=83 time=0
note_on channel=0 note=79 velocity=0 time=80
note_on channel=0 note=81 velocity=84 time=0
note_on channel=0 note=81 velocity=0 time=33
note_on channel=0 note=82 velocity=84 time=0
note_on channel=0 note=82 velocity=0 time=120
note_on channel=0 note=84 velocity=84 time=0
note_on channel=0 note=84 velocity=0 time=24
note_on channel=0 note=86 velocity=85 time=0
note_on channel=0 note=86 velocity=0 time=120
note_on channel=0 note=88 velocity=85 time=0
note_on channel=0 note=88 velocity=0 time=0
note_on channel=0 note=89 velocity=86 time=0
note_on channel=0 note=65 velocity=60 time=0
note_on channel=0 note=65 velocity=0 time=6
note_on channel=0 note=89 velocity=0 time=0
note_on channel=0 note=91 velocity=88 time=0
note_on channel=0 note=67 velocity=61 time=0
note_on channel=0 note=67 velocity=0 time=1
note_on channel=0 note=91 velocity=0 time=0
note_on channel=0 note=93 velocity=89 time=0
note_on channel=0 note=69 velocity=62 time=0
note_on channel=0 note=69 velocity=0 time=4
note_on channel=0 note=93 velocity=0 time=0
note_on channel=0 note=94 velocity=90 time=0
note_on channel=0 note=70 velocity=63 time=0
note_on channel=0 note=70 velocity=0 time=9
note_on channel=0 note=94 velocity=0 time=0
note_on channel=0 note=96 velocity=92 time=0
note_on channel=0 note=72 velocity=64 time=0
note_on channel=0 note=72 velocity=0 time=14
note_on channel=0 note=96 velocity=0 time=0
note_on channel=0 note=98 velocity=94 time=0
note_on channel=0 note=74 velocity=65 time=0
note_on channel=0 note=74 velocity=0 time=0
note_on channel=0 note=98 velocity=0 time=0
note_on channel=0 note=100 velocity=96 time=0
note_on channel=0 note=76 velocity=67 time=0
note_on channel=0 note=76 velocity=0 time=4
note_on channel=0 note=100 velocity=0 time=0
note_on channel=0 note=101 velocity=98 time=0
note_on channel=0 note=77 velocity=68 time=0
note_on channel=0 note=77 velocity=0 time=0
note_on channel=0 note=101 velocity=0 time=0
note_on channel=0 note=75 velocity=68 time=0
note_on channel=0 note=78 velocity=81 time=0
note_on channel=0 note=53 velocity=66 time=0
note_on channel=0 note=53 velocity=0 time=25
note_on channel=0 note=78 velocity=0 time=0
note_on channel=0 note=75 velocity=0 time=0
note_on channel=0 note=69 velocity=70 time=0
note_on channel=0 note=63 velocity=58 time=0
note_on channel=0 note=63 velocity=0 time=60
note_on channel=0 note=69 velocity=0 time=0
note_on channel=0 note=75 velocity=67 time=0
note_on channel=0 note=78 velocity=79 time=0
note_on channel=0 note=53 velocity=66 time=0
note_on channel=0 note=53 velocity=0 time=16
note_on channel=0 note=78 velocity=0 time=0
note_on channel=0 note=75 velocity=0 time=0
note_on channel=0 note=69 velocity=70 time=0
note_on channel=0 note=63 velocity=58 time=0
note_on channel=0 note=63 velocity=0 time=0
note_on channel=0 note=69 velocity=0 time=0
note_on channel=0 note=75 velocity=67 time=0
note_on channel=0 note=78 velocity=79 time=0
note_on channel=0 note=53 velocity=66 time=0
note_on channel=0 note=53 velocity=0 time=21
note_on channel=0 note=78 velocity=0 time=0
note_on channel=0 note=75 velocity=0 time=0
note_on channel=0 note=69 velocity=70 time=0
note_on channel=0 note=63 velocity=58 time=0
note_on channel=0 note=63 velocity=0 time=23
note_on channel=0 note=69 velocity=0 time=0
note_on channel=0 note=75 velocity=67 time=0
note_on channel=0 note=78 velocity=79 time=0
note_on channel=0 note=53 velocity=66 time=0
note_on channel=0 note=53 velocity=0 time=6
note_on channel=0 note=78 velocity=0 time=0
note_on channel=0 note=75 velocity=0 time=0
note_on channel=0 note=69 velocity=70 time=0
note_on channel=0 note=63 velocity=58 time=0
note_on channel=0 note=63 velocity=0 time=28
note_on channel=0 note=69 velocity=0 time=0
note_on channel=0 note=75 velocity=68 time=0
note_on channel=0 note=78 velocity=80 time=0
note_on channel=0 note=53 velocity=66 time=0
note_on channel=0 note=53 velocity=0 time=30
note_on channel=0 note=78 velocity=0 time=0
note_on channel=0 note=75 velocity=0 time=0
note_on channel=0 note=69 velocity=70 time=0
note_on channel=0 note=63 velocity=57 time=0
note_on channel=0 note=63 velocity=0 time=13
note_on channel=0 note=69 velocity=0 time=0
note_on channel=0 note=75 velocity=65 time=0
note_on channel=0 note=78 velocity=77 time=0
note_on channel=0 note=53 velocity=65 time=0
note_on channel=0 note=53 velocity=0 time=16
note_on channel=0 note=78 velocity=0 time=0
note_on channel=0 note=75 velocity=0 time=0
note_on channel=0 note=69 velocity=70 time=0
note_on channel=0 note=63 velocity=58 time=0
note_on channel=0 note=63 velocity=0 time=18
note_on channel=0 note=69 velocity=0 time=0
note_on channel=0 note=74 velocity=50 time=0
note_on channel=0 note=62 velocity=40 time=0
note_on channel=0 note=58 velocity=34 time=0
note_on channel=0 note=58 velocity=0 time=0
note_on channel=0 note=62 velocity=0 time=0
note_on channel=0 note=74 velocity=0 time=0
note_on channel=0 note=69 velocity=42 time=0
note_on channel=0 note=77 velocity=50 time=0
note_on channel=0 note=53 velocity=34 time=0
note_on channel=0 note=60 velocity=40 time=0
note_on channel=0 note=60 velocity=0 time=51
note_on channel=0 note=69 velocity=0 time=0
note_on channel=0 note=77 velocity=0 time=0
note_on channel=0 note=53 velocity=0 time=0
note_on channel=0 note=72 velocity=53 time=0
note_on channel=0 note=77 velocity=62 time=0
note_on channel=0 note=60 velocity=50 time=0
note_on channel=0 note=57 velocity=42 time=0
note_on channel=0 note=57 velocity=0 time=0
note_on channel=0 note=72 velocity=0 time=0
note_on channel=0 note=77 velocity=0 time=0
note_on channel=0 note=60 velocity=0 time=0
note_on channel=0 note=65 velocity=46 time=0
note_on channel=0 note=74 velocity=55 time=0
note_on channel=0 note=62 velocity=44 time=0
note_on channel=0 note=58 velocity=37 time=0
note_on channel=0 note=58 velocity=0 time=111
note_on channel=0 note=65 velocity=0 time=0
note_on channel=0 note=74 velocity=0 time=0
note_on channel=0 note=62 velocity=0 time=0
note_on channel=0 note=70 velocity=50 time=0
note_on channel=0 note=58 velocity=40 time=0
note_on channel=0 note=55 velocity=34 time=0
note_on channel=0 note=55 velocity=0 time=0
note_on channel=0 note=58 velocity=0 time=0
note_on channel=0 note=70 velocity=0 time=0
note_on channel=0 note=66 velocity=42 time=0
note_on channel=0 note=74 velocity=50 time=0
note_on channel=0 note=50 velocity=34 time=0
note_on channel=0 note=57 velocity=40 time=0
note_on channel=0 note=57 velocity=0 time=49
note_on channel=0 note=66 velocity=0 time=0
note_on channel=0 note=74 velocity=0 time=0
note_on channel=0 note=50 velocity=0 time=0
note_on channel=0 note=69 velocity=53 time=0
note_on channel=0 note=74 velocity=62 time=0
note_on channel=0 note=57 velocity=50 time=0
note_on channel=0 note=54 velocity=42 time=0
note_on channel=0 note=54 velocity=0 time=0
note_on channel=0 note=69 velocity=0 time=0
note_on channel=0 note=74 velocity=0 time=0
note_on channel=0 note=57 velocity=0 time=0
note_on channel=0 note=62 velocity=46 time=0
note_on channel=0 note=70 velocity=55 time=0
note_on channel=0 note=58 velocity=44 time=0
note_on channel=0 note=55 velocity=37 time=0
note_on channel=0 note=55 velocity=0 time=115
note_on channel=0 note=62 velocity=0 time=0
note_on channel=0 note=70 velocity=0 time=0
note_on channel=0 note=58 velocity=0 time=0
note_on channel=0 note=67 velocity=52 time=0
note_on channel=0 note=55 velocity=42 time=0
note_on channel=0 note=51 velocity=35 time=0
note_on channel=0 note=51 velocity=0 time=0
note_on channel=0 note=55 velocity=0 time=0
note_on channel=0 note=67 velocity=0 time=0
note_on channel=0 note=62 velocity=44 time=0
note_on channel=0 note=70 velocity=53 time=0
note_on channel=0 note=46 velocity=36 time=0
note_on channel=0 note=53 velocity=42 time=0
note_on channel=0 note=53 velocity=0 time=49
note_on channel=0 note=62 velocity=0 time=0
note_on channel=0 note=70 velocity=0 time=0
note_on channel=0 note=46 velocity=0 time=0
note_on channel=0 note=65 velocity=57 time=0
note_on channel=0 note=70 velocity=66 time=0
note_on channel=0 note=53 velocity=54 time=0
note_on channel=0 note=50 velocity=45 time=0
note_on channel=0 note=50 velocity=0 time=173
note_on channel=0 note=65 velocity=0 time=0
note_on channel=0 note=70 velocity=0 time=0
note_on channel=0 note=53 velocity=0 time=0
note_on channel=0 note=58 velocity=51 time=0
note_on channel=0 note=67 velocity=61 time=0
note_on channel=0 note=55 velocity=48 time=0
note_on channel=0 note=51 velocity=41 time=0
note_on channel=0 note=51 velocity=0 time=111
note_on channel=0 note=58 velocity=0 time=0
note_on channel=0 note=67 velocity=0 time=0
note_on channel=0 note=55 velocity=0 time=0
note_on channel=0 note=58 velocity=47 time=0
note_on channel=0 note=67 velocity=57 time=0
note_on channel=0 note=55 velocity=45 time=0
note_on channel=0 note=51 velocity=38 time=0
note_on channel=0 note=51 velocity=0 time=0
note_on channel=0 note=58 velocity=0 time=0
note_on channel=0 note=67 velocity=0 time=0
note_on channel=0 note=55 velocity=0 time=0
note_on channel=0 note=63 velocity=48 time=0
note_on channel=0 note=69 velocity=58 time=0
note_on channel=0 note=48 velocity=39 time=0
note_on channel=0 note=53 velocity=46 time=0
note_on channel=0 note=53 velocity=0 time=47
note_on channel=0 note=63 velocity=0 time=0
note_on channel=0 note=69 velocity=0 time=0
note_on channel=0 note=48 velocity=0 time=0
note_on channel=0 note=63 velocity=62 time=0
note_on channel=0 note=69 velocity=72 time=0
note_on channel=0 note=53 velocity=58 time=0
note_on channel=0 note=48 velocity=49 time=0
note_on channel=0 note=48 velocity=0 time=0
note_on channel=0 note=63 velocity=0 time=0
note_on channel=0 note=69 velocity=0 time=0
note_on channel=0 note=58 velocity=55 time=0
note_on channel=0 note=70 velocity=66 time=0
note_on channel=0 note=50 velocity=44 time=0
note_on channel=0 note=50 velocity=0 time=111
note_on channel=0 note=53 velocity=0 time=0
note_on channel=0 note=58 velocity=0 time=0
note_on channel=0 note=70 velocity=0 time=0
note_on channel=0 note=65 velocity=51 time=0
note_on channel=0 note=70 velocity=61 time=0
note_on channel=0 note=53 velocity=41 time=0
note_on channel=0 note=50 velocity=49 time=0
note_on channel=0 note=50 velocity=0 time=0
note_on channel=0 note=70 velocity=0 time=0
note_on channel=0 note=72 velocity=63 time=0
note_on channel=0 note=45 velocity=42 time=0
note_on channel=0 note=45 velocity=0 time=48
note_on channel=0 note=72 velocity=0 time=0
note_on channel=0 note=53 velocity=0 time=0
note_on channel=0 note=65 velocity=0 time=0
note_on channel=0 note=65 velocity=67 time=0
note_on channel=0 note=72 velocity=79 time=0
note_on channel=0 note=53 velocity=64 time=0
note_on channel=0 note=45 velocity=53 time=0
note_on channel=0 note=45 velocity=0 time=0
note_on channel=0 note=65 velocity=0 time=0
note_on channel=0 note=72 velocity=0 time=0
note_on channel=0 note=70 velocity=60 time=0
note_on channel=0 note=65 velocity=60 time=0
note_on channel=0 note=74 velocity=72 time=0
note_on channel=0 note=44 velocity=48 time=0
note_on channel=0 note=44 velocity=0 time=112
note_on channel=0 note=65 velocity=0 time=0
note_on channel=0 note=53 velocity=0 time=0
note_on channel=0 note=70 velocity=0 time=0
note_on channel=0 note=74 velocity=0 time=0
note_on channel=0 note=70 velocity=56 time=0
note_on channel=0 note=74 velocity=67 time=0
note_on channel=0 note=44 velocity=45 time=0
note_on channel=0 note=53 velocity=53 time=0
note_on channel=0 note=53 velocity=0 time=0
note_on channel=0 note=44 velocity=0 time=0
note_on channel=0 note=74 velocity=0 time=0
note_on channel=0 note=75 velocity=70 time=0
note_on channel=0 note=43 velocity=46 time=0
note_on channel=0 note=51 velocity=46 time=0
note_on channel=0 note=51 velocity=0 time=49
note_on channel=0 note=43 velocity=0 time=0
note_on channel=0 note=75 velocity=0 time=0
note_on channel=0 note=70 velocity=0 time=0
note_on channel=0 note=70 velocity=75 time=0
note_on channel=0 note=75 velocity=88 time=0
note_on channel=0 note=51 velocity=71 time=0
note_on channel=0 note=43 velocity=59 time=0
note_on channel=0 note=43 velocity=0 time=0
note_on channel=0 note=70 velocity=0 time=0
note_on channel=0 note=75 velocity=0 time=0
note_on channel=0 note=51 velocity=0 time=0
note_on channel=0 note=73 velocity=68 time=0
note_on channel=0 note=70 velocity=68 time=0
note_on channel=0 note=65 velocity=68 time=0
note_on channel=0 note=77 velocity=82 time=0
note_on channel=0 note=49 velocity=56 time=0
note_on channel=0 note=41 velocity=49 time=0
note_on channel=0 note=41 velocity=0 time=50
note_on channel=0 note=70 velocity=0 time=0
note_on channel=0 note=65 velocity=0 time=0
note_on channel=0 note=73 velocity=0 time=0
note_on channel=0 note=49 velocity=0 time=0
note_on channel=0 note=77 velocity=0 time=0
note_on channel=0 note=67 velocity=79 time=0
note_on channel=0 note=70 velocity=79 time=0
note_on channel=0 note=72 velocity=79 time=0
note_on channel=0 note=79 velocity=94 time=0
note_on channel=0 note=40 velocity=58 time=0
note_on channel=0 note=48 velocity=62 time=0
note_on channel=0 note=48 velocity=0 time=60
note_on channel=0 note=70 velocity=0 time=0
note_on channel=0 note=72 velocity=0 time=0
note_on channel=0 note=67 velocity=0 time=0
note_on channel=0 note=40 velocity=0 time=0
note_on channel=0 note=79 velocity=0 time=0
note_on channel=0 note=60 velocity=79 time=0
note_on channel=0 note=69 velocity=79 time=0
note_on channel=0 note=72 velocity=94 time=0
note_on channel=0 note=41 velocity=58 time=0
note_on channel=0 note=53 velocity=62 time=0
note_on channel=0 note=53 velocity=0 time=120
note_on channel=0 note=72 velocity=0 time=0
note_on channel=0 note=60 velocity=0 time=0
note_on channel=0 note=69 velocity=0 time=0
note_on channel=0 note=41 velocity=0 time=0
note_on channel=0 note=86 velocity=50 time=0
note_on channel=0 note=74 velocity=40 time=0
note_on channel=0 note=70 velocity=34 time=0
note_on channel=0 note=70 velocity=0 time=0
note_on channel=0 note=74 velocity=0 time=0
note_on channel=0 note=86 velocity=0 time=0
note_on channel=0 note=81 velocity=42 time=0
note_on channel=0 note=89 velocity=50 time=0
note_on channel=0 note=65 velocity=34 time=0
note_on channel=0 note=72 velocity=40 time=0
note_on channel=0 note=72 velocity=0 time=51
note_on channel=0 note=81 velocity=0 time=0
note_on channel=0 note=89 velocity=0 time=0
note_on channel=0 note=65 velocity=0 time=0
note_on channel=0 note=81 velocity=53 time=0
note_on channel=0 note=89 velocity=62 time=0
note_on channel=0 note=72 velocity=50 time=0
note_on channel=0 note=69 velocity=42 time=0
note_on channel=0 note=77 velocity=46 time=68
note_on channel=0 note=69 velocity=0 time=0
note_on channel=0 note=72 velocity=0 time=0
note_on channel=0 note=81 velocity=0 time=0
note_on channel=0 note=89 velocity=0 time=0
note_on channel=0 note=86 velocity=55 time=0
note_on channel=0 note=74 velocity=44 time=0
note_on channel=0 note=70 velocity=37 time=0
note_on channel=0 note=70 velocity=0 time=111
note_on channel=0 note=77 velocity=0 time=0
note_on channel=0 note=86 velocity=0 time=0
note_on channel=0 note=74 velocity=0 time=0
note_on channel=0 note=82 velocity=50 time=0
note_on channel=0 note=70 velocity=40 time=0
note_on channel=0 note=67 velocity=34 time=0
note_on channel=0 note=67 velocity=0 time=0
note_on channel=0 note=70 velocity=0 time=0
note_on channel=0 note=82 velocity=0 time=0
note_on channel=0 note=78 velocity=42 time=0
note_on channel=0 note=86 velocity=50 time=0
note_on channel=0 note=62 velocity=34 time=0
note_on channel=0 note=69 velocity=40 time=0
note_on channel=0 note=69 velocity=0 time=49
note_on channel=0 note=78 velocity=0 time=0
note_on channel=0 note=86 velocity=0 time=0
note_on channel=0 note=62 velocity=0 time=0
note_on channel=0 note=86 velocity=62 time=0
note_on channel=0 note=69 velocity=50 time=0
note_on channel=0 note=66 velocity=42 time=0
note_on channel=0 note=74 velocity=46 time=80
note_on channel=0 note=66 velocity=0 time=0
note_on channel=0 note=86 velocity=0 time=0
note_on channel=0 note=69 velocity=0 time=0
note_on channel=0 note=82 velocity=55 time=0
note_on channel=0 note=70 velocity=44 time=0
note_on channel=0 note=67 velocity=37 time=0
note_on channel=0 note=67 velocity=0 time=115
note_on channel=0 note=74 velocity=0 time=0
note_on channel=0 note=82 velocity=0 time=0
note_on channel=0 note=70 velocity=0 time=0
note_on channel=0 note=79 velocity=52 time=0
note_on channel=0 note=67 velocity=42 time=0
note_on channel=0 note=63 velocity=35 time=0
note_on channel=0 note=63 velocity=0 time=0
note_on channel=0 note=67 velocity=0 time=0
note_on channel=0 note=79 velocity=0 time=0
note_on channel=0 note=74 velocity=44 time=0
note_on channel=0 note=82 velocity=53 time=0
note_on channel=0 note=58 velocity=36 time=0
note_on channel=0 note=65 velocity=42 time=0
note_on channel=0 note=65 velocity=0 time=49
note_on channel=0 note=74 velocity=0 time=0
note_on channel=0 note=82 velocity=0 time=0
note_on channel=0 note=58 velocity=0 time=0
note_on channel=0 note=82 velocity=66 time=0
note_on channel=0 note=65 velocity=54 time=0
note_on channel=0 note=62 velocity=45 time=0
note_on channel=0 note=70 velocity=51 time=53
note_on channel=0 note=62 velocity=0 time=0
note_on channel=0 note=82 velocity=0 time=0
note_on channel=0 note=65 velocity=0 time=0
note_on channel=0 note=79 velocity=61 time=0
note_on channel=0 note=67 velocity=48 time=0
note_on channel=0 note=63 velocity=41 time=0
note_on channel=0 note=63 velocity=0 time=111
note_on channel=0 note=70 velocity=0 time=0
note_on channel=0 note=79 velocity=0 time=0
note_on channel=0 note=67 velocity=0 time=0
note_on channel=0 note=70 velocity=47 time=0
note_on channel=0 note=79 velocity=57 time=0
note_on channel=0 note=67 velocity=45 time=0
note_on channel=0 note=63 velocity=38 time=0
note_on channel=0 note=63 velocity=0 time=0
note_on channel=0 note=70 velocity=0 time=0
note_on channel=0 note=79 velocity=0 time=0
note_on channel=0 note=67 velocity=0 time=0
note_on channel=0 note=75 velocity=48 time=0
note_on channel=0 note=81 velocity=58 time=0
note_on channel=0 note=60 velocity=39 time=0
note_on channel=0 note=65 velocity=46 time=0
note_on channel=0 note=65 velocity=0 time=47
note_on channel=0 note=75 velocity=0 time=0
note_on channel=0 note=81 velocity=0 time=0
note_on channel=0 note=60 velocity=0 time=0
note_on channel=0 note=81 velocity=72 time=0
note_on channel=0 note=65 velocity=58 time=0
note_on channel=0 note=60 velocity=49 time=0
note_on channel=0 note=75 velocity=62 time=44
note_on channel=0 note=60 velocity=0 time=0
note_on channel=0 note=81 velocity=0 time=0
note_on channel=0 note=70 velocity=55 time=0
note_on channel=0 note=82 velocity=66 time=0
note_on channel=0 note=62 velocity=44 time=0
note_on channel=0 note=75 velocity=0 time=9
note_on channel=0 note=82 velocity=0 time=111
note_on channel=0 note=65 velocity=0 time=0
note_on channel=0 note=70 velocity=0 time=0
note_on channel=0 note=62 velocity=0 time=0
note_on channel=0 note=77 velocity=51 time=0
note_on channel=0 note=82 velocity=61 time=0
note_on channel=0 note=74 velocity=49 time=0
note_on channel=0 note=74 velocity=0 time=0
note_on channel=0 note=82 velocity=0 time=0
note_on channel=0 note=84 velocity=63 time=0
note_on channel=0 note=72 velocity=42 time=0
note_on channel=0 note=69 velocity=42 time=0
note_on channel=0 note=69 velocity=0 time=48
note_on channel=0 note=72 velocity=0 time=0
note_on channel=0 note=84 velocity=0 time=0
note_on channel=0 note=77 velocity=0 time=0
note_on channel=0 note=84 velocity=79 time=0
note_on channel=0 note=72 velocity=64 time=0
note_on channel=0 note=69 velocity=53 time=0
note_on channel=0 note=77 velocity=67 time=67
note_on channel=0 note=69 velocity=0 time=0
note_on channel=0 note=84 velocity=0 time=0
note_on channel=0 note=72 velocity=0 time=0
note_on channel=0 note=86 velocity=72 time=0
note_on channel=0 note=70 velocity=52 time=0
note_on channel=0 note=68 velocity=48 time=0
note_on channel=0 note=68 velocity=0 time=112
note_on channel=0 note=77 velocity=0 time=0
note_on channel=0 note=86 velocity=0 time=0
note_on channel=0 note=70 velocity=0 time=0
note_on channel=0 note=82 velocity=56 time=0
note_on channel=0 note=87 velocity=67 time=0
note_on channel=0 note=67 velocity=45 time=0
note_on channel=0 note=70 velocity=53 time=0
note_on channel=0 note=67 velocity=0 time=0
note_on channel=0 note=87 velocity=0 time=0
note_on channel=0 note=88 velocity=70 time=0
note_on channel=0 note=66 velocity=46 time=0
note_on channel=0 note=66 velocity=0 time=49
note_on channel=0 note=88 velocity=0 time=0
note_on channel=0 note=82 velocity=0 time=0
note_on channel=0 note=70 velocity=0 time=0
note_on channel=0 note=88 velocity=88 time=0
note_on channel=0 note=70 velocity=71 time=0
note_on channel=0 note=66 velocity=59 time=0
note_on channel=0 note=82 velocity=76 time=88
note_on channel=0 note=82 velocity=0 time=0
note_on channel=0 note=88 velocity=0 time=0
note_on channel=0 note=70 velocity=0 time=0
note_on channel=0 note=66 velocity=0 time=0
note_on channel=0 note=81 velocity=68 time=0
note_on channel=0 note=89 velocity=82 time=0
note_on channel=0 note=72 velocity=56 time=0
note_on channel=0 note=65 velocity=49 time=0
note_on channel=0 note=65 velocity=0 time=50
note_on channel=0 note=81 velocity=0 time=0
note_on channel=0 note=89 velocity=0 time=0
note_on channel=0 note=72 velocity=0 time=0
note_on channel=0 note=79 velocity=79 time=0
note_on channel=0 note=82 velocity=79 time=0
note_on channel=0 note=88 velocity=79 time=0
note_on channel=0 note=91 velocity=94 time=0
note_on channel=0 note=48 velocity=58 time=0
note_on channel=0 note=60 velocity=62 time=0
note_on channel=0 note=60 velocity=0 time=60
note_on channel=0 note=82 velocity=0 time=0
note_on channel=0 note=88 velocity=0 time=0
note_on channel=0 note=79 velocity=0 time=0
note_on channel=0 note=48 velocity=0 time=0
note_on channel=0 note=91 velocity=0 time=0
note_on channel=0 note=77 velocity=79 time=0
note_on channel=0 note=81 velocity=79 time=0
note_on channel=0 note=89 velocity=94 time=0
note_on channel=0 note=53 velocity=58 time=0
note_on channel=0 note=65 velocity=62 time=0
note_on channel=0 note=65 velocity=0 time=120
note_on channel=0 note=89 velocity=0 time=0
note_on channel=0 note=77 velocity=0 time=0
note_on channel=0 note=81 velocity=0 time=0
note_on channel=0 note=53 velocity=0 time=0
note_on channel=0 note=71 velocity=43 time=0
note_on channel=0 note=74 velocity=50 time=0
note_on channel=0 note=65 velocity=40 time=0
note_on channel=0 note=53 velocity=34 time=0
note_on channel=0 note=74 velocity=0 time=0
note_on channel=0 note=71 velocity=0 time=0
note_on channel=0 note=74 velocity=42 time=0
note_on channel=0 note=77 velocity=50 time=0
note_on channel=0 note=77 velocity=0 time=42
note_on channel=0 note=74 velocity=0 time=0
note_on channel=0 note=74 velocity=53 time=0
note_on channel=0 note=77 velocity=62 time=0
note_on channel=0 note=65 velocity=0 time=68
note_on channel=0 note=53 velocity=0 time=0
note_on channel=0 note=53 velocity=34 time=0
note_on channel=0 note=53 velocity=0 time=0
note_on channel=0 note=74 velocity=0 time=0
note_on channel=0 note=77 velocity=0 time=0
note_on channel=0 note=71 velocity=46 time=0
note_on channel=0 note=74 velocity=55 time=0
note_on channel=0 note=65 velocity=39 time=0
note_on channel=0 note=65 velocity=0 time=111
note_on channel=0 note=74 velocity=0 time=0
note_on channel=0 note=71 velocity=0 time=0
note_on channel=0 note=71 velocity=43 time=0
note_on channel=0 note=74 velocity=50 time=0
note_on channel=0 note=53 velocity=40 time=0
note_on channel=0 note=41 velocity=34 time=0
note_on channel=0 note=74 velocity=0 time=0
note_on channel=0 note=71 velocity=0 time=0
note_on channel=0 note=75 velocity=42 time=0
note_on channel=0 note=79 velocity=50 time=0
note_on channel=0 note=79 velocity=0 time=42
note_on channel=0 note=75 velocity=0 time=0
note_on channel=0 note=75 velocity=53 time=0
note_on channel=0 note=79 velocity=62 time=0
note_on channel=0 note=53 velocity=0 time=68
note_on channel=0 note=41 velocity=0 time=0
note_on channel=0 note=41 velocity=34 time=0
note_on channel=0 note=41 velocity=0 time=120
note_on channel=0 note=75 velocity=0 time=0
note_on channel=0 note=79 velocity=0 time=0
note_on channel=0 note=72 velocity=46 time=0
note_on channel=0 note=75 velocity=55 time=0
note_on channel=0 note=53 velocity=39 time=0
note_on channel=0 note=53 velocity=0 time=111
note_on channel=0 note=75 velocity=0 time=0
note_on channel=0 note=72 velocity=0 time=0
note_on channel=0 note=69 velocity=43 time=0
note_on channel=0 note=72 velocity=50 time=0
note_on channel=0 note=53 velocity=40 time=0
note_on channel=0 note=41 velocity=34 time=0
note_on channel=0 note=72 velocity=0 time=0
note_on channel=0 note=69 velocity=0 time=0
note_on channel=0 note=72 velocity=42 time=0
note_on channel=0 note=75 velocity=50 time=0
note_on channel=0 note=75 velocity=0 time=42
note_on channel=0 note=72 velocity=0 time=0
note_on channel=0 note=72 velocity=53 time=0
note_on channel=0 note=75 velocity=62 time=0
note_on channel=0 note=53 velocity=0 time=68
note_on channel=0 note=41 velocity=0 time=0
note_on channel=0 note=63 velocity=34 time=0
note_on channel=0 note=41 velocity=34 time=0
note_on channel=0 note=41 velocity=0 time=0
note_on channel=0 note=75 velocity=0 time=0
note_on channel=0 note=72 velocity=0 time=0
note_on channel=0 note=69 velocity=46 time=0
note_on channel=0 note=72 velocity=55 time=0
note_on channel=0 note=53 velocity=39 time=0
note_on channel=0 note=53 velocity=0 time=111
note_on channel=0 note=63 velocity=0 time=0
note_on channel=0 note=69 velocity=0 time=0
note_on channel=0 note=72 velocity=0 time=0
note_on channel=0 note=69 velocity=43 time=0
note_on channel=0 note=72 velocity=50 time=0
note_on channel=0 note=41 velocity=36 time=0
note_on channel=0 note=29 velocity=30 time=0
note_on channel=0 note=72 velocity=0 time=0
note_on channel=0 note=69 velocity=0 time=0
note_on channel=0 note=73 velocity=42 time=0
note_on channel=0 note=77 velocity=50 time=0
note_on channel=0 note=77 velocity=0 time=42
note_on channel=0 note=73 velocity=0 time=0
note_on channel=0 note=74 velocity=53 time=0
note_on channel=0 note=77 velocity=62 time=0
note_on channel=0 note=41 velocity=0 time=68
note_on channel=0 note=29 velocity=0 time=0
note_on channel=0 note=65 velocity=34 time=0
note_on channel=0 note=29 velocity=34 time=0
note_on channel=0 note=29 velocity=0 time=0
note_on channel=0 note=77 velocity=0 time=0
note_on channel=0 note=74 velocity=0 time=0
note_on channel=0 note=70 velocity=46 time=0
note_on channel=0 note=74 velocity=55 time=0
note_on channel=0 note=41 velocity=39 time=0
note_on channel=0 note=41 velocity=0 time=111
note_on channel=0 note=65 velocity=0 time=0
note_on channel=0 note=70 velocity=0 time=0
note_on channel=0 note=74 velocity=0 time=0
note_on channel=0 note=57 velocity=38 time=0
note_on channel=0 note=60 velocity=45 time=0
note_on channel=0 note=42 velocity=36 time=0
note_on channel=0 note=30 velocity=30 time=0
note_on channel=0 note=60 velocity=0 time=0
note_on channel=0 note=57 velocity=0 time=0
note_on channel=0 note=60 velocity=37 time=0
note_on channel=0 note=63 velocity=45 time=0
note_on channel=0 note=63 velocity=0 time=42
note_on channel=0 note=60 velocity=0 time=0
note_on channel=0 note=60 velocity=47 time=0
note_on channel=0 note=63 velocity=55 time=0
note_on channel=0 note=42 velocity=0 time=188
note_on channel=0 note=30 velocity=0 time=0
note_on channel=0 note=31 velocity=28 time=0
note_on channel=0 note=43 velocity=34 time=0
note_on channel=0 note=60 velocity=0 time=231
note_on channel=0 note=63 velocity=0 time=0
note_on channel=0 note=58 velocity=40 time=0
note_on channel=0 note=62 velocity=48 time=0
note_on channel=0 note=62 velocity=0 time=0
note_on channel=0 note=58 velocity=0 time=0
note_on channel=0 note=57 velocity=39 time=0
note_on channel=0 note=60 velocity=46 time=0
note_on channel=0 note=60 velocity=0 time=240
note_on channel=0 note=43 velocity=0 time=0
note_on channel=0 note=31 velocity=0 time=0
note_on channel=0 note=57 velocity=0 time=0
note_on channel=0 note=55 velocity=38 time=0
note_on channel=0 note=58 velocity=45 time=0
note_on channel=0 note=33 velocity=28 time=0
note_on channel=0 note=45 velocity=33 time=0
note_on channel=0 note=45 velocity=0 time=240
note_on channel=0 note=55 velocity=0 time=0
note_on channel=0 note=58 velocity=0 time=0
note_on channel=0 note=33 velocity=0 time=0
note_on channel=0 note=53 velocity=36 time=0
note_on channel=0 note=57 velocity=43 time=0
note_on channel=0 note=34 velocity=28 time=0
note_on channel=0 note=46 velocity=33 time=0
note_on channel=0 note=46 velocity=0 time=0
note_on channel=0 note=34 velocity=0 time=0
note_on channel=0 note=35 velocity=28 time=0
note_on channel=0 note=47 velocity=33 time=0
note_on channel=0 note=47 velocity=0 time=240
note_on channel=0 note=53 velocity=0 time=0
note_on channel=0 note=57 velocity=0 time=0
note_on channel=0 note=35 velocity=0 time=0
note_on channel=0 note=52 velocity=33 time=0
note_on channel=0 note=55 velocity=39 time=0
note_on channel=0 note=36 velocity=28 time=0
note_on channel=0 note=48 velocity=33 time=0
note_on channel=0 note=48 velocity=0 time=240
note_on channel=0 note=52 velocity=0 time=0
note_on channel=0 note=55 velocity=0 time=0
note_on channel=0 note=36 velocity=0 time=0
note_on channel=0 note=51 velocity=32 time=0
note_on channel=0 note=55 velocity=32 time=0
note_on channel=0 note=60 velocity=38 time=0
note_on channel=0 note=36 velocity=32 time=0
note_on channel=0 note=36 velocity=0 time=0
note_on channel=0 note=43 velocity=32 time=0
note_on channel=0 note=60 velocity=0 time=240
note_on channel=0 note=51 velocity=0 time=0
note_on channel=0 note=50 velocity=32 time=0
note_on channel=0 note=59 velocity=38 time=0
note_on channel=0 note=59 velocity=0 time=240
note_on channel=0 note=43 velocity=0 time=0
note_on channel=0 note=55 velocity=0 time=0
note_on channel=0 note=50 velocity=0 time=0
note_on channel=0 note=59 velocity=40 time=0
note_on channel=0 note=59 velocity=0 time=0
note_on channel=0 note=62 velocity=40 time=0
note_on channel=0 note=62 velocity=0 time=51
note_on channel=0 note=62 velocity=49 time=0
note_on channel=0 note=62 velocity=0 time=0
note_on channel=0 note=59 velocity=44 time=0
note_on channel=0 note=59 velocity=0 time=111
note_on channel=0 note=62 velocity=33 time=0
note_on channel=0 note=71 velocity=40 time=0
note_on channel=0 note=43 velocity=32 time=0
note_on channel=0 note=55 velocity=27 time=0
note_on channel=0 note=43 velocity=0 time=0
note_on channel=0 note=71 velocity=0 time=0
note_on channel=0 note=74 velocity=40 time=0
note_on channel=0 note=47 velocity=32 time=0
note_on channel=0 note=47 velocity=0 time=51
note_on channel=0 note=74 velocity=0 time=0
note_on channel=0 note=74 velocity=49 time=0
note_on channel=0 note=47 velocity=40 time=0
note_on channel=0 note=62 velocity=0 time=66
note_on channel=0 note=62 velocity=33 time=2
note_on channel=0 note=47 velocity=0 time=120
note_on channel=0 note=74 velocity=0 time=0
note_on channel=0 note=71 velocity=44 time=0
note_on channel=0 note=43 velocity=35 time=0
note_on channel=0 note=43 velocity=0 time=111
note_on channel=0 note=71 velocity=0 time=0
note_on channel=0 note=62 velocity=0 time=0
note_on channel=0 note=55 velocity=0 time=0
note_on channel=0 note=84 velocity=46 time=0
note_on channel=0 note=72 velocity=36 time=0
note_on channel=0 note=72 velocity=0 time=0
note_on channel=0 note=84 velocity=0 time=0
note_on channel=0 note=87 velocity=46 time=0
note_on channel=0 note=75 velocity=36 time=0
note_on channel=0 note=75 velocity=0 time=51
note_on channel=0 note=87 velocity=0 time=0
note_on channel=0 note=87 velocity=56 time=0
note_on channel=0 note=75 velocity=46 time=0
note_on channel=0 note=75 velocity=0 time=0
note_on channel=0 note=87 velocity=0 time=0
note_on channel=0 note=84 velocity=50 time=0
note_on channel=0 note=72 velocity=40 time=0
note_on channel=0 note=72 velocity=0 time=111
note_on channel=0 note=84 velocity=0 time=0
note_on channel=0 note=62 velocity=43 time=0
note_on channel=0 note=71 velocity=50 time=0
note_on channel=0 note=55 velocity=40 time=0
note_on channel=0 note=43 velocity=34 time=0
note_on channel=0 note=71 velocity=0 time=0
note_on channel=0 note=62 velocity=0 time=0
note_on channel=0 note=65 velocity=42 time=0
note_on channel=0 note=74 velocity=50 time=0
note_on channel=0 note=74 velocity=0 time=42
note_on channel=0 note=65 velocity=0 time=0
note_on channel=0 note=65 velocity=53 time=0
note_on channel=0 note=74 velocity=62 time=0
note_on channel=0 note=55 velocity=0 time=66
note_on channel=0 note=43 velocity=0 time=0
note_on channel=0 note=43 velocity=34 time=2
note_on channel=0 note=43 velocity=0 time=120
note_on channel=0 note=65 velocity=0 time=0
note_on channel=0 note=74 velocity=0 time=0
note_on channel=0 note=62 velocity=46 time=0
note_on channel=0 note=71 velocity=55 time=0
note_on channel=0 note=55 velocity=39 time=0
note_on channel=0 note=55 velocity=0 time=111
note_on channel=0 note=71 velocity=0 time=0
note_on channel=0 note=62 velocity=0 time=0
note_on channel=0 note=62 velocity=49 time=0
note_on channel=0 note=71 velocity=57 time=0
note_on channel=0 note=48 velocity=46 time=0
note_on channel=0 note=36 velocity=39 time=0
note_on channel=0 note=71 velocity=0 time=0
note_on channel=0 note=62 velocity=0 time=0
note_on channel=0 note=67 velocity=48 time=0
note_on channel=0 note=75 velocity=57 time=0
note_on channel=0 note=75 velocity=0 time=42
note_on channel=0 note=67 velocity=0 time=0
note_on channel=0 note=67 velocity=61 time=0
note_on channel=0 note=75 velocity=72 time=0
note_on channel=0 note=48 velocity=0 time=68
note_on channel=0 note=36 velocity=0 time=0
note_on channel=0 note=36 velocity=54 time=0
note_on channel=0 note=36 velocity=0 time=0
note_on channel=0 note=67 velocity=0 time=0
note_on channel=0 note=75 velocity=0 time=0
note_on channel=0 note=63 velocity=54 time=0
note_on channel=0 note=72 velocity=66 time=0
note_on channel=0 note=48 velocity=64 time=0
note_on channel=0 note=48 velocity=0 time=111
note_on channel=0 note=72 velocity=0 time=0
note_on channel=0 note=63 velocity=0 time=0
note_on channel=0 note=69 velocity=59 time=0
note_on channel=0 note=72 velocity=71 time=0
note_on channel=0 note=29 velocity=55 time=0
note_on channel=0 note=41 velocity=69 time=0
note_on channel=0 note=72 velocity=0 time=0
note_on channel=0 note=69 velocity=0 time=0
note_on channel=0 note=72 velocity=65 time=0
note_on channel=0 note=81 velocity=75 time=0
note_on channel=0 note=81 velocity=0 time=49
note_on channel=0 note=72 velocity=0 time=0
note_on channel=0 note=72 velocity=80 time=0
note_on channel=0 note=81 velocity=94 time=0
note_on channel=0 note=29 velocity=0 time=86
note_on channel=0 note=41 velocity=0 time=0
note_on channel=0 note=41 velocity=75 time=2
note_on channel=0 note=41 velocity=0 time=0
note_on channel=0 note=72 velocity=0 time=0
note_on channel=0 note=81 velocity=0 time=0
note_on channel=0 note=69 velocity=72 time=0
note_on channel=0 note=77 velocity=87 time=0
note_on channel=0 note=53 velocity=86 time=0
note_on channel=0 note=53 velocity=0 time=50
note_on channel=0 note=77 velocity=0 time=0
note_on channel=0 note=69 velocity=0 time=0
note_on channel=0 note=70 velocity=90 time=0
note_on channel=0 note=82 velocity=108 time=0
note_on channel=0 note=34 velocity=66 time=0
note_on channel=0 note=46 velocity=71 time=0
note_on channel=0 note=46 velocity=0 time=60
note_on channel=0 note=70 velocity=0 time=0
note_on channel=0 note=82 velocity=0 time=0
note_on channel=0 note=34 velocity=0 time=0
note_on channel=0 note=70 velocity=90 time=0
note_on channel=0 note=82 velocity=108 time=0
note_on channel=0 note=34 velocity=66 time=0
note_on channel=0 note=46 velocity=71 time=0
note_on channel=0 note=46 velocity=0 time=120
note_on channel=0 note=70 velocity=0 time=0
note_on channel=0 note=82 velocity=0 time=0
note_on channel=0 note=34 velocity=0 time=0
note_on channel=0 note=83 velocity=43 time=0
note_on channel=0 note=86 velocity=50 time=0
note_on channel=0 note=77 velocity=40 time=0
note_on channel=0 note=65 velocity=34 time=0
note_on channel=0 note=86 velocity=0 time=0
note_on channel=0 note=83 velocity=0 time=0
note_on channel=0 note=86 velocity=42 time=0
note_on channel=0 note=89 velocity=50 time=0
note_on channel=0 note=89 velocity=0 time=42
note_on channel=0 note=86 velocity=0 time=0
note_on channel=0 note=86 velocity=53 time=0
note_on channel=0 note=89 velocity=62 time=0
note_on channel=0 note=77 velocity=0 time=66
note_on channel=0 note=65 velocity=0 time=0
note_on channel=0 note=65 velocity=34 time=2
note_on channel=0 note=65 velocity=0 time=0
note_on channel=0 note=86 velocity=0 time=0
note_on channel=0 note=89 velocity=0 time=0
note_on channel=0 note=83 velocity=46 time=0
note_on channel=0 note=86 velocity=55 time=0
note_on channel=0 note=77 velocity=39 time=0
note_on channel=0 note=77 velocity=0 time=111
note_on channel=0 note=86 velocity=0 time=0
note_on channel=0 note=83 velocity=0 time=0
note_on channel=0 note=83 velocity=43 time=0
note_on channel=0 note=86 velocity=50 time=0
note_on channel=0 note=53 velocity=34 time=0
note_on channel=0 note=65 velocity=40 time=0
note_on channel=0 note=86 velocity=0 time=0
note_on channel=0 note=83 velocity=0 time=0
note_on channel=0 note=87 velocity=42 time=0
note_on channel=0 note=91 velocity=50 time=0
note_on channel=0 note=91 velocity=0 time=42
note_on channel=0 note=87 velocity=0 time=0
note_on channel=0 note=87 velocity=53 time=0
note_on channel=0 note=91 velocity=62 time=0
note_on channel=0 note=53 velocity=0 time=66
note_on channel=0 note=65 velocity=0 time=0
note_on channel=0 note=53 velocity=34 time=2
note_on channel=0 note=53 velocity=0 time=0
note_on channel=0 note=87 velocity=0 time=0
note_on channel=0 note=91 velocity=0 time=0
note_on channel=0 note=84 velocity=46 time=0
note_on channel=0 note=87 velocity=55 time=0
note_on channel=0 note=65 velocity=39 time=0
note_on channel=0 note=65 velocity=0 time=111
note_on channel=0 note=87 velocity=0 time=0
note_on channel=0 note=84 velocity=0 time=0
note_on channel=0 note=81 velocity=43 time=0
note_on channel=0 note=84 velocity=50 time=0
note_on channel=0 note=65 velocity=40 time=0
note_on channel=0 note=53 velocity=34 time=0
note_on channel=0 note=84 velocity=0 time=0
note_on channel=0 note=81 velocity=0 time=0
note_on channel=0 note=84 velocity=42 time=0
note_on channel=0 note=87 velocity=50 time=0
note_on channel=0 note=87 velocity=0 time=42
note_on channel=0 note=84 velocity=0 time=0
note_on channel=0 note=84 velocity=53 time=0
note_on channel=0 note=87 velocity=62 time=0
note_on channel=0 note=65 velocity=0 time=66
note_on channel=0 note=53 velocity=0 time=0
note_on channel=0 note=75 velocity=39 time=2
note_on channel=0 note=53 velocity=34 time=0
note_on channel=0 note=53 velocity=0 time=0
note_on channel=0 note=87 velocity=0 time=0
note_on channel=0 note=84 velocity=0 time=0
note_on channel=0 note=81 velocity=46 time=0
note_on channel=0 note=84 velocity=55 time=0
note_on channel=0 note=65 velocity=39 time=0
note_on channel=0 note=65 velocity=0 time=111
note_on channel=0 note=75 velocity=0 time=0
note_on channel=0 note=81 velocity=0 time=0
note_on channel=0 note=84 velocity=0 time=0
note_on channel=0 note=81 velocity=43 time=0
note_on channel=0 note=84 velocity=50 time=0
note_on channel=0 note=41 velocity=30 time=0
note_on channel=0 note=53 velocity=36 time=0
note_on channel=0 note=84 velocity=0 time=0
note_on channel=0 note=81 velocity=0 time=0
note_on channel=0 note=85 velocity=42 time=0
note_on channel=0 note=89 velocity=50 time=0
note_on channel=0 note=89 velocity=0 time=42
note_on channel=0 note=85 velocity=0 time=0
note_on channel=0 note=86 velocity=53 time=0
note_on channel=0 note=89 velocity=62 time=0
note_on channel=0 note=41 velocity=0 time=66
note_on channel=0 note=53 velocity=0 time=0
note_on channel=0 note=77 velocity=39 time=2
note_on channel=0 note=41 velocity=34 time=0
note_on channel=0 note=41 velocity=0 time=120
note_on channel=0 note=89 velocity=0 time=0
note_on channel=0 note=86 velocity=0 time=0
note_on channel=0 note=82 velocity=46 time=0
note_on channel=0 note=86 velocity=55 time=0
note_on channel=0 note=53 velocity=39 time=0
note_on channel=0 note=53 velocity=0 time=111
note_on channel=0 note=77 velocity=0 time=0
note_on channel=0 note=82 velocity=0 time=0
note_on channel=0 note=86 velocity=0 time=0
note_on channel=0 note=69 velocity=38 time=0
note_on channel=0 note=72 velocity=45 time=0
note_on channel=0 note=60 velocity=30 time=0
note_on channel=0 note=63 velocity=36 time=0
note_on channel=0 note=54 velocity=30 time=0
note_on channel=0 note=72 velocity=0 time=0
note_on channel=0 note=69 velocity=0 time=0
note_on channel=0 note=72 velocity=37 time=0
note_on channel=0 note=75 velocity=45 time=0
note_on channel=0 note=75 velocity=0 time=42
note_on channel=0 note=72 velocity=0 time=0
note_on channel=0 note=72 velocity=47 time=0
note_on channel=0 note=75 velocity=55 time=0
note_on channel=0 note=54 velocity=0 time=183
note_on channel=0 note=63 velocity=0 time=0
note_on channel=0 note=60 velocity=0 time=0
note_on channel=0 note=54 velocity=28 time=5
note_on channel=0 note=60 velocity=28 time=0
note_on channel=0 note=63 velocity=34 time=0
note_on channel=0 note=63 velocity=0 time=231
note_on channel=0 note=54 velocity=0 time=0
note_on channel=0 note=75 velocity=0 time=0
note_on channel=0 note=72 velocity=0 time=0
note_on channel=0 note=60 velocity=0 time=0
note_on channel=0 note=70 velocity=40 time=0
note_on channel=0 note=74 velocity=48 time=0
note_on channel=0 note=62 velocity=34 time=0
note_on channel=0 note=55 velocity=28 time=0
note_on channel=0 note=58 velocity=28 time=0
note_on channel=0 note=58 velocity=0 time=0
note_on channel=0 note=62 velocity=0 time=0
note_on channel=0 note=70 velocity=0 time=0
note_on channel=0 note=74 velocity=0 time=0
note_on channel=0 note=55 velocity=0 time=0
note_on channel=0 note=69 velocity=39 time=0
note_on channel=0 note=72 velocity=46 time=0
note_on channel=0 note=57 velocity=28 time=0
note_on channel=0 note=60 velocity=34 time=0
note_on channel=0 note=60 velocity=0 time=120
note_on channel=0 note=57 velocity=0 time=0
note_on channel=0 note=45 velocity=28 time=0
note_on channel=0 note=45 velocity=0 time=120
note_on channel=0 note=72 velocity=0 time=0
note_on channel=0 note=69 velocity=0 time=0
note_on channel=0 note=67 velocity=38 time=0
note_on channel=0 note=70 velocity=45 time=0
note_on channel=0 note=58 velocity=33 time=0
note_on channel=0 note=55 velocity=28 time=0
note_on channel=0 note=46 velocity=28 time=0
note_on channel=0 note=46 velocity=0 time=240
note_on channel=0 note=58 velocity=0 time=0
note_on channel=0 note=67 velocity=0 time=0
note_on channel=0 note=70 velocity=0 time=0
note_on channel=0 note=55 velocity=0 time=0
note_on channel=0 note=65 velocity=36 time=0
note_on channel=0 note=69 velocity=43 time=0
note_on channel=0 note=53 velocity=28 time=0
note_on channel=0 note=47 velocity=28 time=0
note_on channel=0 note=57 velocity=33 time=0
note_on channel=0 note=47 velocity=0 time=0
note_on channel=0 note=48 velocity=28 time=0
note_on channel=0 note=53 velocity=0 time=240
note_on channel=0 note=57 velocity=0 time=0
note_on channel=0 note=65 velocity=0 time=0
note_on channel=0 note=69 velocity=0 time=0
note_on channel=0 note=64 velocity=33 time=0
note_on channel=0 note=67 velocity=39 time=0
note_on channel=0 note=55 velocity=33 time=0
note_on channel=0 note=52 velocity=27 time=0
note_on channel=0 note=52 velocity=0 time=240
note_on channel=0 note=67 velocity=0 time=0
note_on channel=0 note=48 velocity=0 time=0
note_on channel=0 note=64 velocity=0 time=0
note_on channel=0 note=55 velocity=0 time=0
note_on channel=0 note=63 velocity=32 time=0
note_on channel=0 note=67 velocity=32 time=0
note_on channel=0 note=72 velocity=38 time=0
note_on channel=0 note=51 velocity=27 time=0
note_on channel=0 note=55 velocity=33 time=0
note_on channel=0 note=60 velocity=32 time=0
note_on channel=0 note=55 velocity=0 time=0
note_on channel=0 note=51 velocity=0 time=0
note_on channel=0 note=55 velocity=32 time=0
note_on channel=0 note=72 velocity=0 time=240
note_on channel=0 note=63 velocity=0 time=0
note_on channel=0 note=60 velocity=0 time=0
note_on channel=0 note=62 velocity=32 time=0
note_on channel=0 note=71 velocity=38 time=0
note_on channel=0 note=59 velocity=30 time=0
note_on channel=0 note=59 velocity=0 time=240
note_on channel=0 note=62 velocity=0 time=0
note_on channel=0 note=55 velocity=0 time=0
note_on channel=0 note=67 velocity=0 time=0
note_on channel=0 note=71 velocity=0 time=0
note_on channel=0 note=71 velocity=40 time=0
note_on channel=0 note=71 velocity=0 time=0
note_on channel=0 note=74 velocity=40 time=0
note_on channel=0 note=74 velocity=0 time=51
note_on channel=0 note=74 velocity=49 time=0
note_on channel=0 note=74 velocity=0 time=188
note_on channel=0 note=71 velocity=44 time=0
note_on channel=0 note=71 velocity=0 time=111
note_on channel=0 note=50 velocity=33 time=0
note_on channel=0 note=59 velocity=40 time=0
note_on channel=0 note=31 velocity=32 time=0
note_on channel=0 note=43 velocity=27 time=0
note_on channel=0 note=31 velocity=0 time=0
note_on channel=0 note=59 velocity=0 time=0
note_on channel=0 note=62 velocity=40 time=0
note_on channel=0 note=35 velocity=32 time=0
note_on channel=0 note=35 velocity=0 time=51
note_on channel=0 note=62 velocity=0 time=0
note_on channel=0 note=62 velocity=49 time=0
note_on channel=0 note=35 velocity=40 time=0
note_on channel=0 note=50 velocity=0 time=68
note_on channel=0 note=50 velocity=33 time=0
note_on channel=0 note=35 velocity=0 time=0
note_on channel=0 note=62 velocity=0 time=0
note_on channel=0 note=59 velocity=44 time=0
note_on channel=0 note=31 velocity=35 time=0
note_on channel=0 note=31 velocity=0 time=111
note_on channel=0 note=59 velocity=0 time=0
note_on channel=0 note=50 velocity=0 time=0
note_on channel=0 note=43 velocity=0 time=0
note_on channel=0 note=84 velocity=46 time=0
note_on channel=0 note=72 velocity=36 time=0
note_on channel=0 note=72 velocity=0 time=0
note_on channel=0 note=84 velocity=0 time=0
note_on channel=0 note=87 velocity=46 time=0
note_on channel=0 note=75 velocity=36 time=0
note_on channel=0 note=75 velocity=0 time=51
note_on channel=0 note=87 velocity=0 time=0
note_on channel=0 note=87 velocity=56 time=0
note_on channel=0 note=75 velocity=46 time=0
note_on channel=0 note=75 velocity=0 time=0
note_on channel=0 note=87 velocity=0 time=0
note_on channel=0 note=84 velocity=50 time=0
note_on channel=0 note=72 velocity=40 time=0
note_on channel=0 note=72 velocity=0 time=111
note_on channel=0 note=84 velocity=0 time=0
note_on channel=0 note=74 velocity=43 time=0
note_on channel=0 note=83 velocity=50 time=0
note_on channel=0 note=67 velocity=40 time=0
note_on channel=0 note=55 velocity=34 time=0
note_on channel=0 note=83 velocity=0 time=0
note_on channel=0 note=74 velocity=0 time=0
note_on channel=0 note=77 velocity=42 time=0
note_on channel=0 note=86 velocity=50 time=0
note_on channel=0 note=86 velocity=0 time=42
note_on channel=0 note=77 velocity=0 time=0
note_on channel=0 note=77 velocity=53 time=0
note_on channel=0 note=86 velocity=62 time=0
note_on channel=0 note=67 velocity=0 time=68
note_on channel=0 note=55 velocity=0 time=0
note_on channel=0 note=55 velocity=34 time=0
note_on channel=0 note=55 velocity=0 time=120
note_on channel=0 note=77 velocity=0 time=0
note_on channel=0 note=86 velocity=0 time=0
note_on channel=0 note=74 velocity=47 time=0
note_on channel=0 note=83 velocity=56 time=0
note_on channel=0 note=67 velocity=40 time=0
note_on channel=0 note=67 velocity=0 time=111
note_on channel=0 note=83 velocity=0 time=0
note_on channel=0 note=74 velocity=0 time=0
note_on channel=0 note=74 velocity=51 time=0
note_on channel=0 note=83 velocity=59 time=0
note_on channel=0 note=60 velocity=48 time=0
note_on channel=0 note=48 velocity=40 time=0
note_on channel=0 note=83 velocity=0 time=0
note_on channel=0 note=74 velocity=0 time=0
note_on channel=0 note=79 velocity=50 time=0
note_on channel=0 note=87 velocity=60 time=0
note_on channel=0 note=87 velocity=0 time=42
note_on channel=0 note=79 velocity=0 time=0
note_on channel=0 note=79 velocity=63 time=0
note_on channel=0 note=87 velocity=75 time=0
note_on channel=0 note=60 velocity=0 time=68
note_on channel=0 note=48 velocity=0 time=0
note_on channel=0 note=48 velocity=55 time=0
note_on channel=0 note=48 velocity=0 time=0
note_on channel=0 note=79 velocity=0 time=0
note_on channel=0 note=87 velocity=0 time=0
note_on channel=0 note=75 velocity=56 time=0
note_on channel=0 note=84 velocity=68 time=0
note_on channel=0 note=60 velocity=64 time=0
note_on channel=0 note=60 velocity=0 time=111
note_on channel=0 note=84 velocity=0 time=0
note_on channel=0 note=75 velocity=0 time=0
note_on channel=0 note=81 velocity=63 time=0
note_on channel=0 note=84 velocity=77 time=0
note_on channel=0 note=41 velocity=59 time=0
note_on channel=0 note=53 velocity=74 time=0
note_on channel=0 note=84 velocity=0 time=0
note_on channel=0 note=81 velocity=0 time=0
note_on channel=0 note=84 velocity=69 time=0
note_on channel=0 note=93 velocity=80 time=0
note_on channel=0 note=93 velocity=0 time=49
note_on channel=0 note=84 velocity=0 time=0
note_on channel=0 note=84 velocity=85 time=0
note_on channel=0 note=93 velocity=101 time=0
note_on channel=0 note=41 velocity=0 time=88
note_on channel=0 note=53 velocity=0 time=0
note_on channel=0 note=41 velocity=70 time=0
note_on channel=0 note=41 velocity=0 time=0
note_on channel=0 note=84 velocity=0 time=0
note_on channel=0 note=93 velocity=0 time=0
note_on channel=0 note=81 velocity=77 time=0
note_on channel=0 note=89 velocity=93 time=0
note_on channel=0 note=53 velocity=78 time=0
note_on channel=0 note=53 velocity=0 time=50
note_on channel=0 note=89 velocity=0 time=0
note_on channel=0 note=81 velocity=0 time=0
note_on channel=0 note=82 velocity=99 time=0
note_on channel=0 note=94 velocity=117 time=0
note_on channel=0 note=34 velocity=72 time=0
note_on channel=0 note=46 velocity=78 time=0
note_on channel=0 note=46 velocity=0 time=60
note_on channel=0 note=82 velocity=0 time=0
note_on channel=0 note=94 velocity=0 time=0
note_on channel=0 note=34 velocity=0 time=0
note_on channel=0 note=82 velocity=99 time=0
note_on channel=0 note=94 velocity=117 time=0
note_on channel=0 note=34 velocity=72 time=0
note_on channel=0 note=46 velocity=78 time=0
note_on channel=0 note=46 velocity=0 time=120
note_on channel=0 note=82 velocity=0 time=0
note_on channel=0 note=94 velocity=0 time=0
note_on channel=0 note=34 velocity=0 time=0
note_on channel=0 note=59 velocity=28 time=0
note_on channel=0 note=71 velocity=35 time=0
note_on channel=0 note=35 velocity=21 time=0
note_on channel=0 note=47 velocity=23 time=0
note_on channel=0 note=47 velocity=0 time=60
note_on channel=0 note=59 velocity=0 time=0
note_on channel=0 note=71 velocity=0 time=0
note_on channel=0 note=35 velocity=0 time=0
note_on channel=0 note=59 velocity=28 time=0
note_on channel=0 note=71 velocity=35 time=0
note_on channel=0 note=35 velocity=21 time=0
note_on channel=0 note=47 velocity=23 time=0
note_on channel=0 note=47 velocity=0 time=120
note_on channel=0 note=59 velocity=0 time=0
note_on channel=0 note=71 velocity=0 time=0
note_on channel=0 note=35 velocity=0 time=0
note_on channel=0 note=82 velocity=99 time=0
note_on channel=0 note=94 velocity=117 time=0
note_on channel=0 note=34 velocity=72 time=0
note_on channel=0 note=46 velocity=78 time=0
note_on channel=0 note=46 velocity=0 time=60
note_on channel=0 note=82 velocity=0 time=0
note_on channel=0 note=94 velocity=0 time=0
note_on channel=0 note=34 velocity=0 time=0
note_on channel=0 note=82 velocity=99 time=0
note_on channel=0 note=94 velocity=117 time=0
note_on channel=0 note=34 velocity=72 time=0
note_on channel=0 note=46 velocity=78 time=0
note_on channel=0 note=46 velocity=0 time=120
note_on channel=0 note=82 velocity=0 time=0
note_on channel=0 note=94 velocity=0 time=0
note_on channel=0 note=34 velocity=0 time=0
note_on channel=0 note=59 velocity=25 time=0
note_on channel=0 note=71 velocity=31 time=0
note_on channel=0 note=35 velocity=18 time=0
note_on channel=0 note=47 velocity=20 time=0
note_on channel=0 note=47 velocity=0 time=60
note_on channel=0 note=59 velocity=0 time=0
note_on channel=0 note=71 velocity=0 time=0
note_on channel=0 note=35 velocity=0 time=0
note_on channel=0 note=59 velocity=25 time=0
note_on channel=0 note=71 velocity=30 time=0
note_on channel=0 note=35 velocity=18 time=0
note_on channel=0 note=47 velocity=19 time=0
note_on channel=0 note=47 velocity=0 time=120
note_on channel=0 note=59 velocity=0 time=0
note_on channel=0 note=71 velocity=0 time=0
note_on channel=0 note=35 velocity=0 time=0
note_on channel=0 note=58 velocity=23 time=0
note_on channel=0 note=70 velocity=28 time=0
note_on channel=0 note=34 velocity=17 time=0
note_on channel=0 note=46 velocity=18 time=0
note_on channel=0 note=46 velocity=0 time=60
note_on channel=0 note=58 velocity=0 time=0
note_on channel=0 note=70 velocity=0 time=0
note_on channel=0 note=34 velocity=0 time=0
note_on channel=0 note=58 velocity=22 time=0
note_on channel=0 note=70 velocity=27 time=0
note_on channel=0 note=34 velocity=17 time=0
note_on channel=0 note=46 velocity=18 time=0
note_on channel=0 note=46 velocity=0 time=120
note_on channel=0 note=58 velocity=0 time=0
note_on channel=0 note=70 velocity=0 time=0
note_on channel=0 note=34 velocity=0 time=0
note_on channel=0 note=62 velocity=31 time=0
note_on channel=0 note=62 velocity=0 time=180
note_on channel=0 note=66 velocity=28 time=0
note_on channel=0 note=66 velocity=0 time=57
note_on channel=0 note=66 velocity=33 time=0
note_on channel=0 note=66 velocity=0 time=0
note_on channel=0 note=62 velocity=28 time=0
note_on channel=0 note=62 velocity=0 time=120
note_on channel=0 note=59 velocity=22 time=0
note_on channel=0 note=71 velocity=28 time=0
note_on channel=0 note=35 velocity=16 time=0
note_on channel=0 note=47 velocity=18 time=0
note_on channel=0 note=47 velocity=0 time=60
note_on channel=0 note=59 velocity=0 time=0
note_on channel=0 note=71 velocity=0 time=0
note_on channel=0 note=35 velocity=0 time=0
note_on channel=0 note=59 velocity=22 time=180
note_on channel=0 note=71 velocity=27 time=0
note_on channel=0 note=35 velocity=16 time=0
note_on channel=0 note=47 velocity=17 time=0
note_on channel=0 note=47 velocity=0 time=120
note_on channel=0 note=59 velocity=0 time=0
note_on channel=0 note=71 velocity=0 time=0
note_on channel=0 note=35 velocity=0 time=0
note_on channel=0 note=59 velocity=22 time=0
note_on channel=0 note=71 velocity=28 time=0
note_on channel=0 note=35 velocity=16 time=0
note_on channel=0 note=47 velocity=18 time=0
note_on channel=0 note=47 velocity=0 time=60
note_on channel=0 note=59 velocity=0 time=0
note_on channel=0 note=71 velocity=0 time=0
note_on channel=0 note=35 velocity=0 time=0
note_on channel=0 note=59 velocity=22 time=180
note_on channel=0 note=71 velocity=27 time=0
note_on channel=0 note=35 velocity=16 time=0
note_on channel=0 note=47 velocity=17 time=0
note_on channel=0 note=47 velocity=0 time=120
note_on channel=0 note=59 velocity=0 time=0
note_on channel=0 note=71 velocity=0 time=0
note_on channel=0 note=35 velocity=0 time=0
note_on channel=0 note=59 velocity=39 time=0
note_on channel=0 note=71 velocity=46 time=0
note_on channel=0 note=35 velocity=25 time=0
note_on channel=0 note=47 velocity=30 time=0
note_on channel=0 note=47 velocity=0 time=22
note_on channel=0 note=59 velocity=0 time=0
note_on channel=0 note=71 velocity=0 time=0
note_on channel=0 note=35 velocity=0 time=0
note_on channel=0 note=59 velocity=39 time=0
note_on channel=0 note=71 velocity=47 time=0
note_on channel=0 note=35 velocity=34 time=0
note_on channel=0 note=47 velocity=41 time=0
note_on channel=0 note=47 velocity=0 time=238
note_on channel=0 note=59 velocity=0 time=0
note_on channel=0 note=71 velocity=0 time=0
note_on channel=0 note=35 velocity=0 time=0
note_on channel=0 note=59 velocity=43 time=2
note_on channel=0 note=71 velocity=51 time=0
note_on channel=0 note=35 velocity=38 time=0
note_on channel=0 note=47 velocity=45 time=0
note_on channel=0 note=47 velocity=0 time=238
note_on channel=0 note=59 velocity=0 time=0
note_on channel=0 note=71 velocity=0 time=0
note_on channel=0 note=35 velocity=0 time=0
note_on channel=0 note=59 velocity=45 time=2
note_on channel=0 note=71 velocity=55 time=0
note_on channel=0 note=35 velocity=42 time=0
note_on channel=0 note=47 velocity=51 time=0
note_on channel=0 note=47 velocity=0 time=238
note_on channel=0 note=59 velocity=0 time=0
note_on channel=0 note=71 velocity=0 time=0
note_on channel=0 note=35 velocity=0 time=0
note_on channel=0 note=59 velocity=50 time=2
note_on channel=0 note=71 velocity=59 time=0
note_on channel=0 note=35 velocity=46 time=0
note_on channel=0 note=47 velocity=55 time=0
note_on channel=0 note=47 velocity=0 time=0
note_on channel=0 note=59 velocity=0 time=0
note_on channel=0 note=71 velocity=0 time=0
note_on channel=0 note=35 velocity=0 time=0
note_on channel=0 note=59 velocity=55 time=2
note_on channel=0 note=71 velocity=65 time=0
note_on channel=0 note=35 velocity=52 time=0
note_on channel=0 note=47 velocity=61 time=0
note_on channel=0 note=47 velocity=0 time=10
note_on channel=0 note=59 velocity=0 time=0
note_on channel=0 note=71 velocity=0 time=0
note_on channel=0 note=35 velocity=0 time=0
note_on channel=0 note=71 velocity=60 time=2
note_on channel=0 note=83 velocity=72 time=0
note_on channel=0 note=35 velocity=55 time=0
note_on channel=0 note=47 velocity=66 time=0
note_on channel=0 note=47 velocity=0 time=0
note_on channel=0 note=71 velocity=0 time=0
note_on channel=0 note=83 velocity=0 time=0
note_on channel=0 note=35 velocity=0 time=0
note_on channel=0 note=71 velocity=66 time=2
note_on channel=0 note=83 velocity=79 time=0
note_on channel=0 note=35 velocity=60 time=0
note_on channel=0 note=47 velocity=72 time=0
note_on channel=0 note=47 velocity=0 time=10
note_on channel=0 note=71 velocity=0 time=0
note_on channel=0 note=83 velocity=0 time=0
note_on channel=0 note=35 velocity=0 time=0
note_on channel=0 note=71 velocity=73 time=2
note_on channel=0 note=83 velocity=87 time=0
note_on channel=0 note=35 velocity=65 time=0
note_on channel=0 note=47 velocity=77 time=0
note_on channel=0 note=47 velocity=0 time=20
note_on channel=0 note=71 velocity=0 time=0
note_on channel=0 note=83 velocity=0 time=0
note_on channel=0 note=35 velocity=0 time=0
note_on channel=0 note=71 velocity=96 time=2
note_on channel=0 note=83 velocity=81 time=0
note_on channel=0 note=35 velocity=70 time=0
note_on channel=0 note=47 velocity=83 time=0
note_on channel=0 note=47 velocity=0 time=48
note_on channel=0 note=71 velocity=0 time=0
note_on channel=0 note=83 velocity=0 time=0
note_on channel=0 note=35 velocity=0 time=0
note_on channel=0 note=83 velocity=81 time=2
note_on channel=0 note=95 velocity=97 time=0
note_on channel=0 note=35 velocity=67 time=0
note_on channel=0 note=47 velocity=80 time=0
note_on channel=0 note=47 velocity=0 time=20
note_on channel=0 note=83 velocity=0 time=0
note_on channel=0 note=95 velocity=0 time=0
note_on channel=0 note=35 velocity=0 time=0
note_on channel=0 note=83 velocity=82 time=2
note_on channel=0 note=95 velocity=97 time=0
note_on channel=0 note=35 velocity=70 time=0
note_on channel=0 note=47 velocity=83 time=0
note_on channel=0 note=47 velocity=0 time=48
note_on channel=0 note=83 velocity=0 time=0
note_on channel=0 note=95 velocity=0 time=0
note_on channel=0 note=35 velocity=0 time=0
note_on channel=0 note=83 velocity=83 time=2
note_on channel=0 note=95 velocity=98 time=0
note_on channel=0 note=35 velocity=71 time=0
note_on channel=0 note=47 velocity=84 time=0
note_on channel=0 note=47 velocity=0 time=77
note_on channel=0 note=83 velocity=0 time=0
note_on channel=0 note=95 velocity=0 time=0
note_on channel=0 note=35 velocity=0 time=0
note_on channel=0 note=95 velocity=105 time=2
note_on channel=0 note=83 velocity=88 time=0
note_on channel=0 note=35 velocity=72 time=0
note_on channel=0 note=47 velocity=86 time=0
note_on channel=0 note=47 velocity=0 time=238
note_on channel=0 note=95 velocity=0 time=0
note_on channel=0 note=83 velocity=0 time=0
note_on channel=0 note=35 velocity=0 time=0
note_on channel=0 note=95 velocity=99 time=2
note_on channel=0 note=83 velocity=83 time=0
note_on channel=0 note=35 velocity=70 time=0
note_on channel=0 note=47 velocity=82 time=0
note_on channel=0 note=47 velocity=0 time=238
note_on channel=0 note=95 velocity=0 time=0
note_on channel=0 note=83 velocity=0 time=0
note_on channel=0 note=35 velocity=0 time=0
note_on channel=0 note=95 velocity=100 time=0
note_on channel=0 note=83 velocity=84 time=0
note_on channel=0 note=35 velocity=70 time=0
note_on channel=0 note=47 velocity=83 time=0
note_on channel=0 note=47 velocity=0 time=12
note_on channel=0 note=95 velocity=0 time=0
note_on channel=0 note=83 velocity=0 time=0
note_on channel=0 note=35 velocity=0 time=0
note_on channel=0 note=82 velocity=92 time=0
note_on channel=0 note=94 velocity=109 time=0
note_on channel=0 note=34 velocity=84 time=0
note_on channel=0 note=46 velocity=99 time=0
note_on channel=0 note=46 velocity=0 time=17
note_on channel=0 note=82 velocity=0 time=0
note_on channel=0 note=94 velocity=0 time=0
note_on channel=0 note=34 velocity=0 time=0
note_on channel=0 note=82 velocity=92 time=0
note_on channel=0 note=94 velocity=109 time=0
note_on channel=0 note=34 velocity=84 time=0
note_on channel=0 note=46 velocity=99 time=0
note_on channel=0 note=46 velocity=0 time=120
note_on channel=0 note=82 velocity=0 time=0
note_on channel=0 note=94 velocity=0 time=0
note_on channel=0 note=34 velocity=0 time=0
note_on channel=0 note=62 velocity=40 time=7
note_on channel=0 note=58 velocity=32 time=0
note_on channel=0 note=58 velocity=0 time=87
note_on channel=0 note=62 velocity=0 time=0
note_on channel=0 note=65 velocity=40 time=0
note_on channel=0 note=53 velocity=32 time=0
note_on channel=0 note=53 velocity=0 time=46
note_on channel=0 note=65 velocity=0 time=0
note_on channel=0 note=65 velocity=49 time=6
note_on channel=0 note=57 velocity=40 time=0
note_on channel=0 note=60 velocity=46 time=64
note_on channel=0 note=57 velocity=0 time=120
note_on channel=0 note=65 velocity=0 time=0
note_on channel=0 note=53 velocity=33 time=0
note_on channel=0 note=62 velocity=44 time=0
note_on channel=0 note=58 velocity=35 time=0
note_on channel=0 note=58 velocity=0 time=106
note_on channel=0 note=60 velocity=0 time=0
note_on channel=0 note=53 velocity=0 time=0
note_on channel=0 note=62 velocity=0 time=0
note_on channel=0 note=74 velocity=40 time=7
note_on channel=0 note=70 velocity=32 time=0
note_on channel=0 note=70 velocity=0 time=88
note_on channel=0 note=74 velocity=0 time=0
note_on channel=0 note=77 velocity=40 time=0
note_on channel=0 note=65 velocity=32 time=0
note_on channel=0 note=65 velocity=0 time=47
note_on channel=0 note=77 velocity=0 time=0
note_on channel=0 note=77 velocity=49 time=6
note_on channel=0 note=69 velocity=40 time=0
note_on channel=0 note=72 velocity=33 time=64
note_on channel=0 note=69 velocity=0 time=120
note_on channel=0 note=77 velocity=0 time=0
note_on channel=0 note=65 velocity=33 time=0
note_on channel=0 note=74 velocity=44 time=0
note_on channel=0 note=70 velocity=35 time=0
note_on channel=0 note=70 velocity=0 time=107
note_on channel=0 note=72 velocity=0 time=0
note_on channel=0 note=65 velocity=0 time=0
note_on channel=0 note=74 velocity=0 time=0
note_on channel=0 note=86 velocity=34 time=7
note_on channel=0 note=82 velocity=27 time=0
note_on channel=0 note=82 velocity=0 time=88
note_on channel=0 note=86 velocity=0 time=0
note_on channel=0 note=89 velocity=34 time=0
note_on channel=0 note=77 velocity=27 time=0
note_on channel=0 note=77 velocity=0 time=47
note_on channel=0 note=89 velocity=0 time=0
note_on channel=0 note=89 velocity=41 time=6
note_on channel=0 note=81 velocity=34 time=0
note_on channel=0 note=84 velocity=35 time=64
note_on channel=0 note=81 velocity=0 time=120
note_on channel=0 note=89 velocity=0 time=0
note_on channel=0 note=77 velocity=28 time=0
note_on channel=0 note=86 velocity=37 time=0
note_on channel=0 note=82 velocity=29 time=0
note_on channel=0 note=82 velocity=0 time=107
note_on channel=0 note=84 velocity=0 time=0
note_on channel=0 note=77 velocity=0 time=0
note_on channel=0 note=86 velocity=0 time=0
