note_on channel=0 note=57 velocity=42 time=0
note_on channel=0 note=33 velocity=23 time=0
note_on channel=0 note=45 velocity=28 time=0
control_change channel=0 control=64 value=127 time=0
note_on channel=0 note=45 velocity=0 time=720
note_on channel=0 note=33 velocity=0 time=0
note_on channel=0 note=57 velocity=0 time=0
note_on channel=0 note=61 velocity=40 time=0
note_on channel=0 note=37 velocity=21 time=0
note_on channel=0 note=49 velocity=30 time=0
control_change channel=0 control=64 value=0 time=13
control_change channel=0 control=64 value=127 time=94
note_on channel=0 note=49 velocity=0 time=613
note_on channel=0 note=37 velocity=0 time=0
note_on channel=0 note=61 velocity=0 time=0
note_on channel=0 note=66 velocity=40 time=0
note_on channel=0 note=61 velocity=40 time=0
note_on channel=0 note=73 velocity=48 time=0
note_on channel=0 note=69 velocity=40 time=0
note_on channel=0 note=42 velocity=29 time=0
note_on channel=0 note=49 velocity=29 time=0
note_on channel=0 note=54 velocity=35 time=0
control_change channel=0 control=64 value=0 time=0
control_change channel=0 control=64 value=127 time=108
note_on channel=0 note=69 velocity=0 time=0
note_on channel=0 note=73 velocity=0 time=0
note_on channel=0 note=69 velocity=42 time=0
control_change channel=0 control=64 value=0 time=182
note_on channel=0 note=69 velocity=0 time=0
note_on channel=0 note=54 velocity=0 time=0
note_on channel=0 note=42 velocity=0 time=0
note_on channel=0 note=66 velocity=0 time=0
note_on channel=0 note=61 velocity=0 time=0
note_on channel=0 note=49 velocity=0 time=0
note_on channel=0 note=61 velocity=39 time=0
note_on channel=0 note=69 velocity=47 time=0
note_on channel=0 note=42 velocity=29 time=0
note_on channel=0 note=49 velocity=29 time=0
note_on channel=0 note=54 velocity=35 time=0
control_change channel=0 control=64 value=127 time=33
note_on channel=0 note=54 velocity=0 time=0
note_on channel=0 note=42 velocity=0 time=0
note_on channel=0 note=61 velocity=0 time=0
note_on channel=0 note=69 velocity=0 time=0
note_on channel=0 note=49 velocity=0 time=0
note_on channel=0 note=61 velocity=34 time=0
note_on channel=0 note=66 velocity=41 time=0
note_on channel=0 note=45 velocity=26 time=0
note_on channel=0 note=49 velocity=26 time=0
note_on channel=0 note=57 velocity=31 time=0
control_change channel=0 control=64 value=0 time=191
note_on channel=0 note=57 velocity=0 time=0
note_on channel=0 note=45 velocity=0 time=0
note_on channel=0 note=61 velocity=0 time=0
note_on channel=0 note=66 velocity=0 time=0
note_on channel=0 note=49 velocity=0 time=0
note_on channel=0 note=59 velocity=34 time=0
note_on channel=0 note=65 velocity=34 time=0
note_on channel=0 note=68 velocity=41 time=0
note_on channel=0 note=61 velocity=34 time=0
note_on channel=0 note=44 velocity=26 time=0
note_on channel=0 note=49 velocity=26 time=0
note_on channel=0 note=56 velocity=31 time=0
control_change channel=0 control=64 value=127 time=58
note_on channel=0 note=56 velocity=0 time=0
note_on channel=0 note=44 velocity=0 time=0
note_on channel=0 note=65 velocity=0 time=0
note_on channel=0 note=68 velocity=0 time=0
note_on channel=0 note=59 velocity=0 time=0
note_on channel=0 note=49 velocity=0 time=0
note_on channel=0 note=61 velocity=0 time=0
note_on channel=0 note=57 velocity=42 time=0
note_on channel=0 note=66 velocity=42 time=0
note_on channel=0 note=69 velocity=50 time=0
note_on channel=0 note=61 velocity=42 time=0
note_on channel=0 note=42 velocity=28 time=0
note_on channel=0 note=49 velocity=28 time=0
note_on channel=0 note=54 velocity=34 time=0
control_change channel=0 control=64 value=0 time=6
control_change channel=0 control=64 value=127 time=181
note_on channel=0 note=54 velocity=0 time=533
note_on channel=0 note=42 velocity=0 time=0
note_on channel=0 note=66 velocity=0 time=0
note_on channel=0 note=69 velocity=0 time=0
note_on channel=0 note=57 velocity=0 time=0
note_on channel=0 note=49 velocity=0 time=0
note_on channel=0 note=61 velocity=0 time=0
note_on channel=0 note=59 velocity=47 time=0
note_on channel=0 note=71 velocity=56 time=0
note_on channel=0 note=66 velocity=47 time=0
note_on channel=0 note=38 velocity=33 time=0
note_on channel=0 note=50 velocity=39 time=0
control_change channel=0 control=64 value=0 time=12
control_change channel=0 control=64 value=127 time=188
note_on channel=0 note=50 velocity=0 time=0
note_on channel=0 note=66 velocity=0 time=0
note_on channel=0 note=59 velocity=0 time=0
note_on channel=0 note=71 velocity=0 time=0
note_on channel=0 note=38 velocity=0 time=0
note_on channel=0 note=66 velocity=46 time=0
note_on channel=0 note=62 velocity=46 time=0
note_on channel=0 note=74 velocity=55 time=0
note_on channel=0 note=35 velocity=34 time=0
note_on channel=0 note=47 velocity=40 time=0
note_on channel=0 note=47 velocity=0 time=238
note_on channel=0 note=62 velocity=0 time=0
note_on channel=0 note=66 velocity=0 time=0
note_on channel=0 note=35 velocity=0 time=0
note_on channel=0 note=74 velocity=0 time=0
note_on channel=0 note=62 velocity=52 time=0
note_on channel=0 note=74 velocity=62 time=0
note_on channel=0 note=66 velocity=52 time=0
note_on channel=0 note=35 velocity=37 time=0
note_on channel=0 note=47 velocity=46 time=0
control_change channel=0 control=64 value=0 time=0
control_change channel=0 control=64 value=127 time=133
note_on channel=0 note=47 velocity=0 time=347
note_on channel=0 note=66 velocity=0 time=0
note_on channel=0 note=62 velocity=0 time=0
note_on channel=0 note=74 velocity=0 time=0
note_on channel=0 note=35 velocity=0 time=0
note_on channel=0 note=66 velocity=48 time=0
note_on channel=0 note=73 velocity=57 time=0
note_on channel=0 note=61 velocity=48 time=0
note_on channel=0 note=33 velocity=35 time=0
note_on channel=0 note=45 velocity=42 time=0
control_change channel=0 control=64 value=0 time=12
control_change channel=0 control=64 value=127 time=88
note_on channel=0 note=45 velocity=0 time=138
note_on channel=0 note=61 velocity=0 time=0
note_on channel=0 note=66 velocity=0 time=0
note_on channel=0 note=73 velocity=0 time=0
note_on channel=0 note=33 velocity=0 time=0
note_on channel=0 note=66 velocity=53 time=2
note_on channel=0 note=73 velocity=64 time=0
note_on channel=0 note=61 velocity=53 time=0
note_on channel=0 note=33 velocity=39 time=0
note_on channel=0 note=45 velocity=48 time=0
control_change channel=0 control=64 value=0 time=14
control_change channel=0 control=64 value=127 time=86
note_on channel=0 note=45 velocity=0 time=0
note_on channel=0 note=61 velocity=0 time=0
note_on channel=0 note=66 velocity=0 time=0
note_on channel=0 note=73 velocity=0 time=0
note_on channel=0 note=33 velocity=0 time=0
note_on channel=0 note=65 velocity=49 time=0
note_on channel=0 note=71 velocity=49 time=0
note_on channel=0 note=73 velocity=49 time=0
note_on channel=0 note=77 velocity=60 time=0
note_on channel=0 note=32 velocity=38 time=0
note_on channel=0 note=44 velocity=45 time=0
control_change channel=0 control=64 value=0 time=12
control_change channel=0 control=64 value=127 time=79
note_on channel=0 note=44 velocity=0 time=0
note_on channel=0 note=71 velocity=0 time=0
note_on channel=0 note=73 velocity=0 time=0
note_on channel=0 note=65 velocity=0 time=0
note_on channel=0 note=32 velocity=0 time=0
note_on channel=0 note=77 velocity=0 time=0
note_on channel=0 note=73 velocity=57 time=0
note_on channel=0 note=69 velocity=52 time=0
note_on channel=0 note=66 velocity=52 time=0
note_on channel=0 note=78 velocity=68 time=0
note_on channel=0 note=30 velocity=40 time=0
note_on channel=0 note=42 velocity=48 time=0
control_change channel=0 control=64 value=0 time=12
control_change channel=0 control=64 value=127 time=63
note_on channel=0 note=42 velocity=0 time=0
note_on channel=0 note=69 velocity=0 time=0
note_on channel=0 note=66 velocity=0 time=0
note_on channel=0 note=73 velocity=0 time=0
note_on channel=0 note=30 velocity=0 time=0
note_on channel=0 note=78 velocity=0 time=0
note_on channel=0 note=80 velocity=72 time=0
note_on channel=0 note=73 velocity=61 time=0
note_on channel=0 note=68 velocity=61 time=0
note_on channel=0 note=29 velocity=39 time=0
note_on channel=0 note=41 velocity=48 time=0
control_change channel=0 control=64 value=0 time=0
control_change channel=0 control=64 value=127 time=120
note_on channel=0 note=41 velocity=0 time=600
note_on channel=0 note=68 velocity=0 time=0
note_on channel=0 note=80 velocity=0 time=0
note_on channel=0 note=73 velocity=0 time=0
note_on channel=0 note=29 velocity=0 time=0
note_on channel=0 note=74 velocity=51 time=0
note_on channel=0 note=71 velocity=43 time=0
note_on channel=0 note=68 velocity=43 time=0
note_on channel=0 note=59 velocity=30 time=0
note_on channel=0 note=56 velocity=30 time=0
note_on channel=0 note=53 velocity=30 time=0
note_on channel=0 note=62 velocity=36 time=0
control_change channel=0 control=64 value=0 time=10
control_change channel=0 control=64 value=127 time=177
note_on channel=0 note=62 velocity=0 time=0
note_on channel=0 note=56 velocity=0 time=0
note_on channel=0 note=71 velocity=0 time=0
note_on channel=0 note=68 velocity=0 time=0
note_on channel=0 note=74 velocity=0 time=0
note_on channel=0 note=53 velocity=0 time=0
note_on channel=0 note=59 velocity=0 time=0
note_on channel=0 note=68 velocity=42 time=0
note_on channel=0 note=71 velocity=42 time=0
note_on channel=0 note=74 velocity=50 time=0
note_on channel=0 note=29 velocity=28 time=0
note_on channel=0 note=41 velocity=34 time=0
note_on channel=0 note=62 velocity=42 time=0
note_on channel=0 note=62 velocity=0 time=0
note_on channel=0 note=71 velocity=0 time=0
note_on channel=0 note=74 velocity=0 time=0
note_on channel=0 note=68 velocity=0 time=0
note_on channel=0 note=41 velocity=0 time=0
note_on channel=0 note=29 velocity=0 time=0
note_on channel=0 note=61 velocity=36 time=0
note_on channel=0 note=69 velocity=36 time=0
note_on channel=0 note=73 velocity=43 time=0
note_on channel=0 note=30 velocity=25 time=0
note_on channel=0 note=42 velocity=30 time=0
control_change channel=0 control=64 value=0 time=8
control_change channel=0 control=64 value=127 time=116
note_on channel=0 note=42 velocity=0 time=0
note_on channel=0 note=73 velocity=0 time=0
note_on channel=0 note=61 velocity=0 time=0
note_on channel=0 note=69 velocity=0 time=0
note_on channel=0 note=30 velocity=0 time=0
note_on channel=0 note=59 velocity=35 time=0
note_on channel=0 note=62 velocity=35 time=0
note_on channel=0 note=65 velocity=35 time=0
note_on channel=0 note=71 velocity=42 time=0
note_on channel=0 note=32 velocity=26 time=0
note_on channel=0 note=44 velocity=31 time=0
control_change channel=0 control=64 value=0 time=8
control_change channel=0 control=64 value=127 time=67
note_on channel=0 note=44 velocity=0 time=163
note_on channel=0 note=62 velocity=0 time=0
note_on channel=0 note=65 velocity=0 time=0
note_on channel=0 note=59 velocity=0 time=0
note_on channel=0 note=32 velocity=0 time=0
note_on channel=0 note=71 velocity=0 time=0
note_on channel=0 note=59 velocity=40 time=0
note_on channel=0 note=62 velocity=40 time=0
note_on channel=0 note=65 velocity=40 time=0
note_on channel=0 note=71 velocity=48 time=0
note_on channel=0 note=32 velocity=29 time=0
note_on channel=0 note=44 velocity=35 time=0
control_change channel=0 control=64 value=0 time=4
control_change channel=0 control=64 value=127 time=148
note_on channel=0 note=44 velocity=0 time=561
note_on channel=0 note=62 velocity=0 time=0
note_on channel=0 note=65 velocity=0 time=0
note_on channel=0 note=59 velocity=0 time=0
note_on channel=0 note=32 velocity=0 time=0
note_on channel=0 note=71 velocity=0 time=0
note_on channel=0 note=59 velocity=39 time=7
note_on channel=0 note=65 velocity=39 time=0
note_on channel=0 note=62 velocity=39 time=0
note_on channel=0 note=71 velocity=47 time=0
note_on channel=0 note=32 velocity=29 time=0
note_on channel=0 note=44 velocity=35 time=0
control_change channel=0 control=64 value=0 time=12
control_change channel=0 control=64 value=127 time=127
note_on channel=0 note=44 velocity=0 time=0
note_on channel=0 note=65 velocity=0 time=0
note_on channel=0 note=62 velocity=0 time=0
note_on channel=0 note=59 velocity=0 time=0
note_on channel=0 note=32 velocity=0 time=0
note_on channel=0 note=71 velocity=0 time=0
note_on channel=0 note=66 velocity=34 time=0
note_on channel=0 note=57 velocity=34 time=0
note_on channel=0 note=61 velocity=34 time=0
note_on channel=0 note=69 velocity=41 time=0
note_on channel=0 note=33 velocity=26 time=0
note_on channel=0 note=45 velocity=31 time=0
control_change channel=0 control=64 value=0 time=12
control_change channel=0 control=64 value=127 time=115
note_on channel=0 note=45 velocity=0 time=0
note_on channel=0 note=57 velocity=0 time=0
note_on channel=0 note=61 velocity=0 time=0
note_on channel=0 note=66 velocity=0 time=0
note_on channel=0 note=33 velocity=0 time=0
note_on channel=0 note=69 velocity=0 time=0
note_on channel=0 note=56 velocity=34 time=0
note_on channel=0 note=62 velocity=34 time=0
note_on channel=0 note=66 velocity=34 time=0
note_on channel=0 note=68 velocity=41 time=0
note_on channel=0 note=35 velocity=26 time=0
note_on channel=0 note=47 velocity=31 time=0
control_change channel=0 control=64 value=0 time=11
control_change channel=0 control=64 value=127 time=103
note_on channel=0 note=47 velocity=0 time=0
note_on channel=0 note=62 velocity=0 time=0
note_on channel=0 note=66 velocity=0 time=0
note_on channel=0 note=56 velocity=0 time=0
note_on channel=0 note=35 velocity=0 time=0
note_on channel=0 note=68 velocity=0 time=0
note_on channel=0 note=66 velocity=40 time=0
note_on channel=0 note=56 velocity=40 time=0
note_on channel=0 note=63 velocity=40 time=0
note_on channel=0 note=68 velocity=48 time=0
note_on channel=0 note=36 velocity=29 time=0
note_on channel=0 note=48 velocity=35 time=0
control_change channel=0 control=64 value=0 time=2
control_change channel=0 control=64 value=127 time=137
note_on channel=0 note=48 velocity=0 time=336
note_on channel=0 note=56 velocity=0 time=0
note_on channel=0 note=63 velocity=0 time=0
note_on channel=0 note=66 velocity=0 time=0
note_on channel=0 note=36 velocity=0 time=0
note_on channel=0 note=68 velocity=0 time=0
note_on channel=0 note=63 velocity=36 time=0
note_on channel=0 note=56 velocity=36 time=0
note_on channel=0 note=66 velocity=36 time=0
note_on channel=0 note=68 velocity=43 time=0
note_on channel=0 note=36 velocity=27 time=0
note_on channel=0 note=48 velocity=32 time=0
note_on channel=0 note=48 velocity=0 time=238
note_on channel=0 note=56 velocity=0 time=0
note_on channel=0 note=66 velocity=0 time=0
note_on channel=0 note=63 velocity=0 time=0
note_on channel=0 note=36 velocity=0 time=0
note_on channel=0 note=68 velocity=0 time=0
note_on channel=0 note=63 velocity=45 time=0
note_on channel=0 note=66 velocity=45 time=0
note_on channel=0 note=56 velocity=45 time=0
note_on channel=0 note=68 velocity=53 time=0
note_on channel=0 note=36 velocity=33 time=0
note_on channel=0 note=48 velocity=40 time=0
note_on channel=0 note=48 velocity=0 time=238
note_on channel=0 note=36 velocity=0 time=0
note_on channel=0 note=56 velocity=0 time=2
note_on channel=0 note=63 velocity=0 time=0
note_on channel=0 note=66 velocity=0 time=0
note_on channel=0 note=68 velocity=0 time=0
note_on channel=0 note=66 velocity=40 time=0
note_on channel=0 note=63 velocity=40 time=0
note_on channel=0 note=57 velocity=40 time=0
note_on channel=0 note=69 velocity=49 time=0
note_on channel=0 note=36 velocity=31 time=0
note_on channel=0 note=48 velocity=37 time=0
control_change channel=0 control=64 value=0 time=10
control_change channel=0 control=64 value=127 time=117
note_on channel=0 note=48 velocity=0 time=111
note_on channel=0 note=36 velocity=0 time=0
note_on channel=0 note=57 velocity=0 time=0
note_on channel=0 note=66 velocity=0 time=0
note_on channel=0 note=63 velocity=0 time=0
note_on channel=0 note=69 velocity=0 time=0
note_on channel=0 note=54 velocity=42 time=0
note_on channel=0 note=57 velocity=42 time=0
note_on channel=0 note=63 velocity=42 time=0
note_on channel=0 note=66 velocity=52 time=0
note_on channel=0 note=36 velocity=32 time=0
note_on channel=0 note=48 velocity=39 time=0
control_change channel=0 control=64 value=0 time=12
control_change channel=0 control=64 value=127 time=89
note_on channel=0 note=48 velocity=0 time=0
note_on channel=0 note=57 velocity=0 time=0
note_on channel=0 note=63 velocity=0 time=0
note_on channel=0 note=54 velocity=0 time=0
note_on channel=0 note=36 velocity=0 time=0
note_on channel=0 note=66 velocity=0 time=0
note_on channel=0 note=54 velocity=44 time=0
note_on channel=0 note=57 velocity=44 time=0
note_on channel=0 note=63 velocity=44 time=0
note_on channel=0 note=66 velocity=53 time=0
note_on channel=0 note=37 velocity=32 time=0
note_on channel=0 note=49 velocity=39 time=0
control_change channel=0 control=64 value=0 time=0
control_change channel=0 control=64 value=127 time=126
note_on channel=0 note=63 velocity=0 time=0
note_on channel=0 note=60 velocity=45 time=0
note_on channel=0 note=60 velocity=0 time=0
note_on channel=0 note=61 velocity=46 time=0
note_on channel=0 note=61 velocity=0 time=0
note_on channel=0 note=57 velocity=0 time=0
note_on channel=0 note=66 velocity=0 time=0
note_on channel=0 note=54 velocity=0 time=0
note_on channel=0 note=49 velocity=0 time=0
note_on channel=0 note=37 velocity=0 time=0
note_on channel=0 note=56 velocity=36 time=0
note_on channel=0 note=65 velocity=55 time=0
note_on channel=0 note=53 velocity=36 time=0
note_on channel=0 note=61 velocity=46 time=0
note_on channel=0 note=37 velocity=27 time=0
note_on channel=0 note=49 velocity=32 time=0
control_change channel=0 control=64 value=0 time=8
control_change channel=0 control=64 value=127 time=164
note_on channel=0 note=49 velocity=0 time=68
note_on channel=0 note=65 velocity=0 time=0
note_on channel=0 note=53 velocity=0 time=0
note_on channel=0 note=56 velocity=0 time=0
note_on channel=0 note=37 velocity=0 time=0
note_on channel=0 note=61 velocity=0 time=0
note_on channel=0 note=68 velocity=57 time=0
note_on channel=0 note=49 velocity=31 time=0
note_on channel=0 note=53 velocity=31 time=0
note_on channel=0 note=56 velocity=37 time=0
note_on channel=0 note=56 velocity=0 time=0
note_on channel=0 note=68 velocity=0 time=0
note_on channel=0 note=49 velocity=0 time=0
note_on channel=0 note=53 velocity=0 time=0
note_on channel=0 note=71 velocity=59 time=0
note_on channel=0 note=49 velocity=31 time=0
note_on channel=0 note=56 velocity=31 time=0
note_on channel=0 note=59 velocity=37 time=0
note_on channel=0 note=59 velocity=0 time=0
note_on channel=0 note=71 velocity=0 time=0
note_on channel=0 note=49 velocity=0 time=0
note_on channel=0 note=56 velocity=0 time=0
note_on channel=0 note=62 velocity=50 time=0
note_on channel=0 note=65 velocity=50 time=0
note_on channel=0 note=71 velocity=60 time=0
note_on channel=0 note=49 velocity=36 time=0
note_on channel=0 note=59 velocity=43 time=0
control_change channel=0 control=64 value=0 time=0
control_change channel=0 control=64 value=127 time=92
note_on channel=0 note=65 velocity=0 time=148
note_on channel=0 note=68 velocity=50 time=0
note_on channel=0 note=68 velocity=0 time=0
note_on channel=0 note=59 velocity=0 time=0
note_on channel=0 note=62 velocity=0 time=0
note_on channel=0 note=71 velocity=0 time=0
note_on channel=0 note=49 velocity=0 time=0
note_on channel=0 note=61 velocity=45 time=0
note_on channel=0 note=69 velocity=50 time=0
note_on channel=0 note=66 velocity=45 time=0
note_on channel=0 note=49 velocity=28 time=0
note_on channel=0 note=57 velocity=34 time=0
control_change channel=0 control=64 value=0 time=11
control_change channel=0 control=64 value=127 time=69
note_on channel=0 note=57 velocity=0 time=158
note_on channel=0 note=66 velocity=0 time=0
note_on channel=0 note=61 velocity=0 time=0
note_on channel=0 note=69 velocity=0 time=0
note_on channel=0 note=49 velocity=0 time=0
note_on channel=0 note=69 velocity=58 time=0
note_on channel=0 note=61 velocity=48 time=0
note_on channel=0 note=66 velocity=48 time=0
note_on channel=0 note=49 velocity=36 time=0
note_on channel=0 note=57 velocity=43 time=0
control_change channel=0 control=64 value=0 time=12
control_change channel=0 control=64 value=127 time=57
note_on channel=0 note=57 velocity=0 time=171
note_on channel=0 note=66 velocity=0 time=0
note_on channel=0 note=69 velocity=0 time=0
note_on channel=0 note=61 velocity=0 time=0
note_on channel=0 note=49 velocity=0 time=0
note_on channel=0 note=65 velocity=42 time=0
note_on channel=0 note=68 velocity=51 time=0
note_on channel=0 note=59 velocity=42 time=0
note_on channel=0 note=62 velocity=42 time=0
note_on channel=0 note=49 velocity=32 time=0
note_on channel=0 note=56 velocity=38 time=0
control_change channel=0 control=64 value=0 time=10
control_change channel=0 control=64 value=127 time=65
note_on channel=0 note=56 velocity=0 time=165
note_on channel=0 note=68 velocity=0 time=0
note_on channel=0 note=59 velocity=0 time=0
note_on channel=0 note=65 velocity=0 time=0
note_on channel=0 note=49 velocity=0 time=0
note_on channel=0 note=62 velocity=0 time=0
note_on channel=0 note=66 velocity=51 time=0
note_on channel=0 note=63 velocity=42 time=0
note_on channel=0 note=57 velocity=42 time=0
note_on channel=0 note=49 velocity=32 time=0
note_on channel=0 note=54 velocity=38 time=0
control_change channel=0 control=64 value=0 time=6
control_change channel=0 control=64 value=127 time=51
note_on channel=0 note=57 velocity=0 time=0
note_on channel=0 note=60 velocity=42 time=0
note_on channel=0 note=60 velocity=0 time=0
note_on channel=0 note=54 velocity=0 time=0
note_on channel=0 note=66 velocity=0 time=0
note_on channel=0 note=63 velocity=0 time=0
note_on channel=0 note=49 velocity=0 time=0
note_on channel=0 note=63 velocity=50 time=0
note_on channel=0 note=66 velocity=60 time=0
note_on channel=0 note=57 velocity=50 time=0
note_on channel=0 note=60 velocity=50 time=0
note_on channel=0 note=49 velocity=36 time=0
note_on channel=0 note=54 velocity=43 time=0
control_change channel=0 control=64 value=0 time=0
control_change channel=0 control=64 value=127 time=78
note_on channel=0 note=54 velocity=0 time=402
note_on channel=0 note=66 velocity=0 time=0
note_on channel=0 note=57 velocity=0 time=0
note_on channel=0 note=63 velocity=0 time=0
note_on channel=0 note=49 velocity=0 time=0
note_on channel=0 note=60 velocity=0 time=0
note_on channel=0 note=65 velocity=50 time=0
note_on channel=0 note=61 velocity=45 time=0
note_on channel=0 note=56 velocity=45 time=0
note_on channel=0 note=49 velocity=28 time=0
note_on channel=0 note=53 velocity=34 time=0
control_change channel=0 control=64 value=0 time=6
control_change channel=0 control=64 value=127 time=107
note_on channel=0 note=53 velocity=0 time=127
note_on channel=0 note=56 velocity=0 time=0
note_on channel=0 note=65 velocity=0 time=0
note_on channel=0 note=61 velocity=0 time=0
note_on channel=0 note=49 velocity=0 time=0
note_on channel=0 note=65 velocity=66 time=0
note_on channel=0 note=49 velocity=36 time=0
note_on channel=0 note=53 velocity=49 time=0
control_change channel=0 control=64 value=0 time=12
control_change channel=0 control=64 value=127 time=94
note_on channel=0 note=53 velocity=0 time=0
note_on channel=0 note=65 velocity=0 time=0
note_on channel=0 note=68 velocity=60 time=0
note_on channel=0 note=56 velocity=45 time=0
note_on channel=0 note=56 velocity=0 time=0
note_on channel=0 note=68 velocity=0 time=0
note_on channel=0 note=49 velocity=0 time=0
note_on channel=0 note=65 velocity=42 time=0
note_on channel=0 note=71 velocity=63 time=0
note_on channel=0 note=68 velocity=42 time=0
note_on channel=0 note=56 velocity=32 time=0
note_on channel=0 note=49 velocity=32 time=0
note_on channel=0 note=59 velocity=38 time=0
control_change channel=0 control=64 value=0 time=8
control_change channel=0 control=64 value=127 time=70
note_on channel=0 note=59 velocity=0 time=0
note_on channel=0 note=71 velocity=0 time=0
note_on channel=0 note=74 velocity=63 time=0
note_on channel=0 note=62 velocity=38 time=0
note_on channel=0 note=62 velocity=0 time=119
note_on channel=0 note=74 velocity=0 time=0
note_on channel=0 note=49 velocity=0 time=0
note_on channel=0 note=56 velocity=0 time=0
note_on channel=0 note=71 velocity=50 time=0
note_on channel=0 note=74 velocity=72 time=0
note_on channel=0 note=59 velocity=36 time=0
note_on channel=0 note=49 velocity=36 time=0
note_on channel=0 note=62 velocity=43 time=0
control_change channel=0 control=64 value=0 time=0
control_change channel=0 control=64 value=127 time=78
note_on channel=0 note=68 velocity=0 time=0
note_on channel=0 note=65 velocity=0 time=0
note_on channel=0 note=65 velocity=36 time=0
note_on channel=0 note=68 velocity=36 time=0
note_on channel=0 note=68 velocity=0 time=0
note_on channel=0 note=71 velocity=0 time=0
note_on channel=0 note=62 velocity=0 time=0
note_on channel=0 note=59 velocity=0 time=0
note_on channel=0 note=74 velocity=0 time=0
note_on channel=0 note=65 velocity=0 time=0
note_on channel=0 note=49 velocity=0 time=0
note_on channel=0 note=66 velocity=48 time=0
note_on channel=0 note=73 velocity=54 time=0
note_on channel=0 note=69 velocity=48 time=0
note_on channel=0 note=57 velocity=31 time=0
note_on channel=0 note=49 velocity=31 time=0
note_on channel=0 note=61 velocity=37 time=0
control_change channel=0 control=64 value=0 time=14
control_change channel=0 control=64 value=127 time=71
note_on channel=0 note=61 velocity=0 time=153
note_on channel=0 note=73 velocity=0 time=0
note_on channel=0 note=69 velocity=0 time=0
note_on channel=0 note=66 velocity=0 time=0
note_on channel=0 note=49 velocity=0 time=0
note_on channel=0 note=57 velocity=0 time=0
note_on channel=0 note=73 velocity=55 time=0
note_on channel=0 note=69 velocity=46 time=0
note_on channel=0 note=49 velocity=34 time=0
note_on channel=0 note=61 velocity=41 time=0
note_on channel=0 note=57 velocity=34 time=0
note_on channel=0 note=66 velocity=46 time=120
note_on channel=0 note=66 velocity=0 time=120
note_on channel=0 note=69 velocity=0 time=0
note_on channel=0 note=49 velocity=0 time=0
note_on channel=0 note=73 velocity=0 time=0
note_on channel=0 note=57 velocity=0 time=0
note_on channel=0 note=61 velocity=0 time=0
note_on channel=0 note=62 velocity=39 time=0
note_on channel=0 note=68 velocity=39 time=0
note_on channel=0 note=71 velocity=47 time=0
note_on channel=0 note=65 velocity=39 time=0
note_on channel=0 note=49 velocity=30 time=0
note_on channel=0 note=59 velocity=36 time=0
note_on channel=0 note=56 velocity=30 time=0
control_change channel=0 control=64 value=0 time=14
control_change channel=0 control=64 value=127 time=78
note_on channel=0 note=56 velocity=0 time=0
note_on channel=0 note=49 velocity=0 time=0
note_on channel=0 note=68 velocity=0 time=0
note_on channel=0 note=71 velocity=0 time=0
note_on channel=0 note=62 velocity=0 time=0
note_on channel=0 note=59 velocity=0 time=0
note_on channel=0 note=65 velocity=0 time=0
note_on channel=0 note=60 velocity=39 time=0
note_on channel=0 note=66 velocity=39 time=0
note_on channel=0 note=69 velocity=47 time=0
note_on channel=0 note=63 velocity=39 time=0
note_on channel=0 note=49 velocity=29 time=0
note_on channel=0 note=57 velocity=35 time=0
note_on channel=0 note=54 velocity=29 time=0
control_change channel=0 control=64 value=0 time=13
control_change channel=0 control=64 value=127 time=65
note_on channel=0 note=54 velocity=0 time=160
note_on channel=0 note=49 velocity=0 time=0
note_on channel=0 note=66 velocity=0 time=0
note_on channel=0 note=69 velocity=0 time=0
note_on channel=0 note=60 velocity=0 time=0
note_on channel=0 note=57 velocity=0 time=0
note_on channel=0 note=63 velocity=0 time=0
note_on channel=0 note=66 velocity=45 time=0
note_on channel=0 note=69 velocity=54 time=0
note_on channel=0 note=54 velocity=32 time=0
note_on channel=0 note=49 velocity=32 time=0
note_on channel=0 note=57 velocity=39 time=0
control_change channel=0 control=64 value=0 time=0
control_change channel=0 control=64 value=127 time=160
note_on channel=0 note=60 velocity=44 time=0
note_on channel=0 note=63 velocity=44 time=0
note_on channel=0 note=63 velocity=0 time=0
note_on channel=0 note=57 velocity=0 time=0
note_on channel=0 note=69 velocity=0 time=0
note_on channel=0 note=54 velocity=0 time=0
note_on channel=0 note=66 velocity=0 time=0
note_on channel=0 note=60 velocity=0 time=0
note_on channel=0 note=49 velocity=0 time=0
note_on channel=0 note=61 velocity=38 time=0
note_on channel=0 note=65 velocity=38 time=0
note_on channel=0 note=68 velocity=44 time=0
note_on channel=0 note=53 velocity=25 time=0
note_on channel=0 note=49 velocity=25 time=0
note_on channel=0 note=56 velocity=29 time=0
control_change channel=0 control=64 value=0 time=12
control_change channel=0 control=64 value=127 time=114
note_on channel=0 note=56 velocity=0 time=112
note_on channel=0 note=65 velocity=0 time=0
note_on channel=0 note=68 velocity=0 time=0
note_on channel=0 note=61 velocity=0 time=0
note_on channel=0 note=49 velocity=0 time=0
note_on channel=0 note=53 velocity=0 time=0
note_on channel=0 note=68 velocity=43 time=2
note_on channel=0 note=65 velocity=35 time=0
note_on channel=0 note=61 velocity=35 time=0
note_on channel=0 note=53 velocity=26 time=0
note_on channel=0 note=49 velocity=26 time=0
note_on channel=0 note=56 velocity=31 time=0
note_on channel=0 note=56 velocity=0 time=0
note_on channel=0 note=65 velocity=0 time=0
note_on channel=0 note=61 velocity=0 time=0
note_on channel=0 note=68 velocity=0 time=0
note_on channel=0 note=49 velocity=0 time=0
note_on channel=0 note=53 velocity=0 time=0
note_on channel=0 note=64 velocity=34 time=0
note_on channel=0 note=67 velocity=39 time=0
note_on channel=0 note=61 velocity=34 time=0
note_on channel=0 note=55 velocity=21 time=0
note_on channel=0 note=52 velocity=21 time=0
note_on channel=0 note=49 velocity=21 time=0
note_on channel=0 note=58 velocity=26 time=0
control_change channel=0 control=64 value=0 time=7
control_change channel=0 control=64 value=127 time=96
note_on channel=0 note=58 velocity=0 time=77
note_on channel=0 note=52 velocity=0 time=0
note_on channel=0 note=67 velocity=0 time=0
note_on channel=0 note=61 velocity=0 time=0
note_on channel=0 note=64 velocity=0 time=0
note_on channel=0 note=49 velocity=0 time=0
note_on channel=0 note=55 velocity=0 time=0
note_on channel=0 note=67 velocity=53 time=0
control_change channel=0 control=64 value=0 time=11
control_change channel=0 control=64 value=127 time=29
note_on channel=0 note=67 velocity=0 time=0
note_on channel=0 note=83 velocity=65 time=0
note_on channel=0 note=50 velocity=32 time=0
note_on channel=0 note=55 velocity=32 time=0
note_on channel=0 note=59 velocity=43 time=10
note_on channel=0 note=83 velocity=0 time=0
note_on channel=0 note=81 velocity=62 time=0
note_on channel=0 note=81 velocity=0 time=0
note_on channel=0 note=50 velocity=0 time=0
note_on channel=0 note=55 velocity=0 time=0
note_on channel=0 note=67 velocity=55 time=0
note_on channel=0 note=79 velocity=65 time=0
note_on channel=0 note=59 velocity=30 time=0
note_on channel=0 note=55 velocity=30 time=0
note_on channel=0 note=62 velocity=36 time=0
note_on channel=0 note=59 velocity=0 time=10
control_change channel=0 control=64 value=0 time=2
control_change channel=0 control=64 value=127 time=162
note_on channel=0 note=79 velocity=0 time=0
note_on channel=0 note=59 velocity=0 time=0
note_on channel=0 note=62 velocity=0 time=0
note_on channel=0 note=78 velocity=64 time=0
note_on channel=0 note=62 velocity=30 time=0
note_on channel=0 note=62 velocity=0 time=0
note_on channel=0 note=55 velocity=0 time=0
note_on channel=0 note=67 velocity=0 time=0
note_on channel=0 note=78 velocity=0 time=0
note_on channel=0 note=67 velocity=55 time=0
note_on channel=0 note=76 velocity=65 time=0
note_on channel=0 note=64 velocity=39 time=0
note_on channel=0 note=60 velocity=33 time=0
control_change channel=0 control=64 value=0 time=2
control_change channel=0 control=64 value=127 time=178
note_on channel=0 note=76 velocity=0 time=0
note_on channel=0 note=78 velocity=63 time=0
note_on channel=0 note=78 velocity=0 time=0
note_on channel=0 note=60 velocity=0 time=0
note_on channel=0 note=64 velocity=0 time=0
note_on channel=0 note=67 velocity=0 time=0
note_on channel=0 note=67 velocity=55 time=0
note_on channel=0 note=79 velocity=65 time=0
note_on channel=0 note=59 velocity=29 time=0
note_on channel=0 note=62 velocity=35 time=0
control_change channel=0 control=64 value=0 time=12
control_change channel=0 control=64 value=127 time=162
note_on channel=0 note=62 velocity=0 time=0
note_on channel=0 note=67 velocity=0 time=0
note_on channel=0 note=79 velocity=0 time=0
note_on channel=0 note=59 velocity=0 time=0
note_on channel=0 note=66 velocity=64 time=0
note_on channel=0 note=62 velocity=32 time=0
control_change channel=0 control=64 value=0 time=12
control_change channel=0 control=64 value=127 time=122
note_on channel=0 note=62 velocity=0 time=104
note_on channel=0 note=66 velocity=0 time=0
note_on channel=0 note=66 velocity=60 time=0
note_on channel=0 note=62 velocity=35 time=0
control_change channel=0 control=64 value=0 time=12
control_change channel=0 control=64 value=127 time=127
note_on channel=0 note=62 velocity=0 time=0
note_on channel=0 note=66 velocity=0 time=0
note_on channel=0 note=66 velocity=45 time=0
note_on channel=0 note=69 velocity=53 time=0
note_on channel=0 note=61 velocity=31 time=0
control_change channel=0 control=64 value=0 time=12
control_change channel=0 control=64 value=127 time=115
note_on channel=0 note=61 velocity=0 time=0
note_on channel=0 note=69 velocity=0 time=0
note_on channel=0 note=66 velocity=0 time=0
note_on channel=0 note=66 velocity=43 time=0
note_on channel=0 note=69 velocity=43 time=0
note_on channel=0 note=73 velocity=51 time=0
note_on channel=0 note=49 velocity=26 time=0
note_on channel=0 note=54 velocity=26 time=0
note_on channel=0 note=57 velocity=26 time=0
note_on channel=0 note=61 velocity=31 time=0
note_on channel=0 note=61 velocity=0 time=0
note_on channel=0 note=54 velocity=0 time=0
note_on channel=0 note=69 velocity=0 time=0
note_on channel=0 note=73 velocity=0 time=0
note_on channel=0 note=66 velocity=0 time=0
note_on channel=0 note=57 velocity=0 time=0
note_on channel=0 note=49 velocity=0 time=0
note_on channel=0 note=73 velocity=54 time=0
note_on channel=0 note=65 velocity=45 time=0
note_on channel=0 note=68 velocity=45 time=0
note_on channel=0 note=49 velocity=29 time=0
note_on channel=0 note=53 velocity=29 time=0
note_on channel=0 note=56 velocity=29 time=0
note_on channel=0 note=61 velocity=35 time=0
control_change channel=0 control=64 value=0 time=2
control_change channel=0 control=64 value=127 time=137
note_on channel=0 note=61 velocity=0 time=336
note_on channel=0 note=53 velocity=0 time=0
note_on channel=0 note=65 velocity=0 time=0
note_on channel=0 note=68 velocity=0 time=0
note_on channel=0 note=73 velocity=0 time=0
note_on channel=0 note=56 velocity=0 time=0
note_on channel=0 note=49 velocity=0 time=0
note_on channel=0 note=73 velocity=43 time=0
note_on channel=0 note=68 velocity=36 time=0
note_on channel=0 note=65 velocity=36 time=0
note_on channel=0 note=49 velocity=27 time=0
note_on channel=0 note=53 velocity=27 time=0
note_on channel=0 note=56 velocity=27 time=0
note_on channel=0 note=61 velocity=32 time=0
note_on channel=0 note=61 velocity=0 time=238
note_on channel=0 note=53 velocity=0 time=0
note_on channel=0 note=68 velocity=0 time=0
note_on channel=0 note=65 velocity=0 time=0
note_on channel=0 note=73 velocity=0 time=0
note_on channel=0 note=56 velocity=0 time=0
note_on channel=0 note=49 velocity=0 time=0
note_on channel=0 note=68 velocity=40 time=0
note_on channel=0 note=65 velocity=40 time=0
note_on channel=0 note=73 velocity=48 time=0
note_on channel=0 note=49 velocity=29 time=0
note_on channel=0 note=53 velocity=29 time=0
note_on channel=0 note=56 velocity=29 time=0
note_on channel=0 note=61 velocity=35 time=0
note_on channel=0 note=61 velocity=0 time=0
note_on channel=0 note=53 velocity=0 time=0
note_on channel=0 note=65 velocity=0 time=0
note_on channel=0 note=73 velocity=0 time=0
note_on channel=0 note=68 velocity=0 time=0
note_on channel=0 note=56 velocity=0 time=0
note_on channel=0 note=49 velocity=0 time=0
note_on channel=0 note=66 velocity=36 time=0
note_on channel=0 note=69 velocity=43 time=0
note_on channel=0 note=54 velocity=27 time=0
note_on channel=0 note=57 velocity=27 time=0
note_on channel=0 note=61 velocity=32 time=0
control_change channel=0 control=64 value=0 time=4
control_change channel=0 control=64 value=127 time=102
note_on channel=0 note=61 velocity=0 time=132
note_on channel=0 note=54 velocity=0 time=0
note_on channel=0 note=57 velocity=0 time=0
note_on channel=0 note=66 velocity=0 time=0
note_on channel=0 note=69 velocity=0 time=0
note_on channel=0 note=66 velocity=37 time=0
note_on channel=0 note=69 velocity=47 time=0
note_on channel=0 note=54 velocity=27 time=0
note_on channel=0 note=57 velocity=27 time=0
note_on channel=0 note=61 velocity=35 time=0
note_on channel=0 note=61 velocity=0 time=238
note_on channel=0 note=54 velocity=0 time=0
note_on channel=0 note=66 velocity=0 time=0
note_on channel=0 note=69 velocity=0 time=0
note_on channel=0 note=57 velocity=0 time=0
note_on channel=0 note=61 velocity=37 time=0
note_on channel=0 note=66 velocity=45 time=0
note_on channel=0 note=57 velocity=34 time=0
note_on channel=0 note=57 velocity=0 time=0
note_on channel=0 note=66 velocity=0 time=0
note_on channel=0 note=61 velocity=0 time=0
note_on channel=0 note=68 velocity=44 time=0
note_on channel=0 note=65 velocity=44 time=0
note_on channel=0 note=61 velocity=44 time=0
note_on channel=0 note=56 velocity=33 time=0
note_on channel=0 note=59 velocity=33 time=0
control_change channel=0 control=64 value=0 time=5
note_on channel=0 note=59 velocity=0 time=115
note_on channel=0 note=65 velocity=0 time=0
note_on channel=0 note=68 velocity=0 time=0
note_on channel=0 note=56 velocity=0 time=0
note_on channel=0 note=66 velocity=47 time=0
note_on channel=0 note=69 velocity=47 time=0
note_on channel=0 note=54 velocity=38 time=0
note_on channel=0 note=57 velocity=38 time=0
note_on channel=0 note=57 velocity=0 time=0
note_on channel=0 note=69 velocity=0 time=0
note_on channel=0 note=61 velocity=0 time=0
note_on channel=0 note=66 velocity=0 time=0
note_on channel=0 note=54 velocity=0 time=0
note_on channel=0 note=68 velocity=51 time=0
note_on channel=0 note=71 velocity=51 time=0
note_on channel=0 note=37 velocity=43 time=0
note_on channel=0 note=62 velocity=50 time=0
note_on channel=0 note=41 velocity=38 time=0
note_on channel=0 note=41 velocity=0 time=0
note_on channel=0 note=71 velocity=0 time=0
note_on channel=0 note=68 velocity=0 time=0
note_on channel=0 note=62 velocity=0 time=0
note_on channel=0 note=61 velocity=47 time=0
note_on channel=0 note=66 velocity=47 time=0
note_on channel=0 note=69 velocity=58 time=0
note_on channel=0 note=42 velocity=39 time=0
note_on channel=0 note=42 velocity=0 time=0
note_on channel=0 note=66 velocity=0 time=0
note_on channel=0 note=69 velocity=0 time=0
note_on channel=0 note=61 velocity=0 time=0
note_on channel=0 note=59 velocity=51 time=0
note_on channel=0 note=69 velocity=60 time=0
note_on channel=0 note=65 velocity=51 time=0
note_on channel=0 note=62 velocity=51 time=0
note_on channel=0 note=44 velocity=42 time=0
note_on channel=0 note=69 velocity=0 time=0
note_on channel=0 note=68 velocity=57 time=0
note_on channel=0 note=44 velocity=0 time=120
note_on channel=0 note=45 velocity=45 time=0
note_on channel=0 note=45 velocity=0 time=0
note_on channel=0 note=68 velocity=0 time=0
note_on channel=0 note=65 velocity=0 time=0
note_on channel=0 note=62 velocity=0 time=0
note_on channel=0 note=59 velocity=0 time=0
note_on channel=0 note=66 velocity=54 time=0
note_on channel=0 note=63 velocity=45 time=0
note_on channel=0 note=57 velocity=45 time=0
note_on channel=0 note=47 velocity=48 time=0
note_on channel=0 note=47 velocity=0 time=120
note_on channel=0 note=48 velocity=50 time=0
note_on channel=0 note=48 velocity=0 time=0
note_on channel=0 note=57 velocity=0 time=0
note_on channel=0 note=37 velocity=0 time=0
note_on channel=0 note=66 velocity=0 time=0
note_on channel=0 note=63 velocity=0 time=0
note_on channel=0 note=57 velocity=50 time=0
note_on channel=0 note=61 velocity=50 time=0
note_on channel=0 note=66 velocity=60 time=0
note_on channel=0 note=37 velocity=36 time=0
note_on channel=0 note=49 velocity=43 time=0
control_change channel=0 control=64 value=0 time=0
control_change channel=0 control=64 value=127 time=78
note_on channel=0 note=66 velocity=0 time=162
note_on channel=0 note=57 velocity=0 time=0
note_on channel=0 note=55 velocity=50 time=0
note_on channel=0 note=64 velocity=56 time=0
control_change channel=0 control=64 value=0 time=11
control_change channel=0 control=64 value=127 time=75
note_on channel=0 note=64 velocity=0 time=0
note_on channel=0 note=55 velocity=0 time=0
note_on channel=0 note=56 velocity=50 time=0
note_on channel=0 note=65 velocity=56 time=0
control_change channel=0 control=64 value=0 time=12
control_change channel=0 control=64 value=127 time=74
note_on channel=0 note=65 velocity=0 time=152
note_on channel=0 note=56 velocity=0 time=0
note_on channel=0 note=61 velocity=0 time=0
note_on channel=0 note=56 velocity=50 time=0
note_on channel=0 note=61 velocity=50 time=0
note_on channel=0 note=65 velocity=59 time=0
note_on channel=0 note=49 velocity=0 time=120
note_on channel=0 note=37 velocity=0 time=0
note_on channel=0 note=49 velocity=45 time=0
note_on channel=0 note=49 velocity=0 time=0
note_on channel=0 note=53 velocity=45 time=0
note_on channel=0 note=53 velocity=0 time=120
note_on channel=0 note=61 velocity=0 time=0
note_on channel=0 note=56 velocity=0 time=0
note_on channel=0 note=65 velocity=0 time=0
note_on channel=0 note=68 velocity=60 time=0
note_on channel=0 note=56 velocity=45 time=0
note_on channel=0 note=56 velocity=0 time=0
note_on channel=0 note=68 velocity=0 time=0
note_on channel=0 note=71 velocity=63 time=0
note_on channel=0 note=59 velocity=38 time=0
note_on channel=0 note=59 velocity=0 time=0
note_on channel=0 note=71 velocity=0 time=0
note_on channel=0 note=74 velocity=66 time=0
note_on channel=0 note=62 velocity=38 time=0
note_on channel=0 note=62 velocity=0 time=119
note_on channel=0 note=74 velocity=0 time=0
note_on channel=0 note=68 velocity=36 time=0
note_on channel=0 note=71 velocity=50 time=0
note_on channel=0 note=74 velocity=71 time=0
note_on channel=0 note=65 velocity=36 time=0
note_on channel=0 note=62 velocity=36 time=0
note_on channel=0 note=37 velocity=36 time=0
control_change channel=0 control=64 value=0 time=0
note_on channel=0 note=49 velocity=43 time=7
control_change channel=0 control=64 value=127 time=71
note_on channel=0 note=37 velocity=0 time=0
note_on channel=0 note=65 velocity=0 time=0
note_on channel=0 note=68 velocity=0 time=0
note_on channel=0 note=71 velocity=0 time=0
note_on channel=0 note=62 velocity=0 time=0
note_on channel=0 note=65 velocity=36 time=0
note_on channel=0 note=68 velocity=36 time=0
note_on channel=0 note=41 velocity=31 time=0
note_on channel=0 note=49 velocity=31 time=0
note_on channel=0 note=53 velocity=37 time=0
note_on channel=0 note=49 velocity=0 time=7
note_on channel=0 note=49 velocity=0 time=0
note_on channel=0 note=65 velocity=0 time=0
note_on channel=0 note=68 velocity=0 time=0
note_on channel=0 note=74 velocity=0 time=0
note_on channel=0 note=53 velocity=0 time=0
note_on channel=0 note=41 velocity=0 time=0
note_on channel=0 note=69 velocity=48 time=0
note_on channel=0 note=73 velocity=54 time=0
note_on channel=0 note=49 velocity=31 time=0
note_on channel=0 note=42 velocity=31 time=0
note_on channel=0 note=54 velocity=37 time=0
control_change channel=0 control=64 value=0 time=14
control_change channel=0 control=64 value=127 time=71
note_on channel=0 note=54 velocity=0 time=0
note_on channel=0 note=49 velocity=0 time=0
note_on channel=0 note=69 velocity=0 time=0
note_on channel=0 note=73 velocity=0 time=0
note_on channel=0 note=42 velocity=0 time=0
note_on channel=0 note=65 velocity=39 time=0
note_on channel=0 note=62 velocity=39 time=0
note_on channel=0 note=73 velocity=55 time=0
note_on channel=0 note=68 velocity=39 time=0
note_on channel=0 note=44 velocity=34 time=0
note_on channel=0 note=56 velocity=41 time=0
note_on channel=0 note=49 velocity=34 time=0
control_change channel=0 control=64 value=0 time=11
control_change channel=0 control=64 value=127 time=109
note_on channel=0 note=73 velocity=0 time=0
note_on channel=0 note=71 velocity=47 time=0
note_on channel=0 note=56 velocity=0 time=0
note_on channel=0 note=44 velocity=0 time=0
note_on channel=0 note=49 velocity=0 time=0
note_on channel=0 note=57 velocity=45 time=0
note_on channel=0 note=45 velocity=38 time=0
note_on channel=0 note=45 velocity=0 time=0
note_on channel=0 note=62 velocity=0 time=0
note_on channel=0 note=71 velocity=0 time=0
note_on channel=0 note=65 velocity=0 time=0
note_on channel=0 note=57 velocity=0 time=0
note_on channel=0 note=68 velocity=0 time=0
note_on channel=0 note=63 velocity=39 time=0
note_on channel=0 note=66 velocity=39 time=0
note_on channel=0 note=69 velocity=47 time=0
note_on channel=0 note=59 velocity=48 time=0
note_on channel=0 note=47 velocity=40 time=0
control_change channel=0 control=64 value=0 time=13
control_change channel=0 control=64 value=127 time=65
note_on channel=0 note=47 velocity=0 time=0
note_on channel=0 note=59 velocity=0 time=0
note_on channel=0 note=60 velocity=50 time=0
note_on channel=0 note=48 velocity=42 time=0
note_on channel=0 note=48 velocity=0 time=0
note_on channel=0 note=63 velocity=0 time=0
note_on channel=0 note=69 velocity=0 time=0
note_on channel=0 note=66 velocity=0 time=0
note_on channel=0 note=60 velocity=0 time=0
note_on channel=0 note=66 velocity=45 time=0
note_on channel=0 note=63 velocity=44 time=0
note_on channel=0 note=60 velocity=44 time=0
note_on channel=0 note=69 velocity=54 time=0
note_on channel=0 note=49 velocity=32 time=0
control_change channel=0 control=64 value=0 time=0
control_change channel=0 control=64 value=127 time=160
note_on channel=0 note=60 velocity=0 time=80
note_on channel=0 note=63 velocity=0 time=0
note_on channel=0 note=60 velocity=39 time=0
note_on channel=0 note=63 velocity=39 time=0
note_on channel=0 note=54 velocity=28 time=0
note_on channel=0 note=57 velocity=35 time=0
note_on channel=0 note=57 velocity=0 time=240
note_on channel=0 note=63 velocity=0 time=0
note_on channel=0 note=69 velocity=0 time=0
note_on channel=0 note=66 velocity=0 time=0
note_on channel=0 note=49 velocity=0 time=0
note_on channel=0 note=54 velocity=0 time=0
note_on channel=0 note=60 velocity=0 time=0
note_on channel=0 note=61 velocity=38 time=0
note_on channel=0 note=65 velocity=38 time=0
note_on channel=0 note=68 velocity=44 time=0
note_on channel=0 note=53 velocity=25 time=0
note_on channel=0 note=49 velocity=25 time=0
note_on channel=0 note=56 velocity=29 time=0
control_change channel=0 control=64 value=0 time=12
control_change channel=0 control=64 value=127 time=69
note_on channel=0 note=56 velocity=0 time=159
note_on channel=0 note=65 velocity=0 time=0
note_on channel=0 note=68 velocity=0 time=0
note_on channel=0 note=61 velocity=0 time=0
note_on channel=0 note=49 velocity=0 time=0
note_on channel=0 note=53 velocity=0 time=0
note_on channel=0 note=65 velocity=35 time=0
note_on channel=0 note=61 velocity=35 time=0
note_on channel=0 note=68 velocity=43 time=0
note_on channel=0 note=53 velocity=26 time=0
note_on channel=0 note=49 velocity=26 time=0
note_on channel=0 note=56 velocity=31 time=0
note_on channel=0 note=56 velocity=0 time=240
note_on channel=0 note=61 velocity=0 time=0
note_on channel=0 note=68 velocity=0 time=0
note_on channel=0 note=65 velocity=0 time=0
note_on channel=0 note=49 velocity=0 time=0
note_on channel=0 note=53 velocity=0 time=0
note_on channel=0 note=64 velocity=34 time=0
note_on channel=0 note=67 velocity=39 time=0
note_on channel=0 note=58 velocity=26 time=0
note_on channel=0 note=52 velocity=21 time=0
note_on channel=0 note=49 velocity=21 time=0
note_on channel=0 note=55 velocity=21 time=0
control_change channel=0 control=64 value=0 time=7
control_change channel=0 control=64 value=127 time=89
note_on channel=0 note=55 velocity=0 time=0
note_on channel=0 note=67 velocity=0 time=0
note_on channel=0 note=58 velocity=0 time=0
note_on channel=0 note=64 velocity=0 time=0
note_on channel=0 note=49 velocity=0 time=0
note_on channel=0 note=52 velocity=0 time=0
note_on channel=0 note=62 velocity=34 time=0
note_on channel=0 note=50 velocity=21 time=0
note_on channel=0 note=55 velocity=21 time=0
note_on channel=0 note=59 velocity=26 time=0
control_change channel=0 control=64 value=0 time=12
control_change channel=0 control=64 value=127 time=45
note_on channel=0 note=62 velocity=0 time=123
note_on channel=0 note=67 velocity=53 time=0
note_on channel=0 note=67 velocity=0 time=0
note_on channel=0 note=59 velocity=0 time=0
note_on channel=0 note=55 velocity=0 time=0
note_on channel=0 note=50 velocity=0 time=0
note_on channel=0 note=83 velocity=65 time=0
note_on channel=0 note=59 velocity=43 time=0
note_on channel=0 note=43 velocity=32 time=0
note_on channel=0 note=50 velocity=32 time=0
note_on channel=0 note=81 velocity=60 time=473
note_on channel=0 note=83 velocity=0 time=0
note_on channel=0 note=81 velocity=0 time=231
note_on channel=0 note=59 velocity=0 time=0
note_on channel=0 note=43 velocity=0 time=0
note_on channel=0 note=50 velocity=0 time=0
note_on channel=0 note=81 velocity=65 time=0
note_on channel=0 note=55 velocity=30 time=0
note_on channel=0 note=47 velocity=30 time=0
note_on channel=0 note=62 velocity=36 time=0
control_change channel=0 control=64 value=0 time=12
control_change channel=0 control=64 value=127 time=162
note_on channel=0 note=81 velocity=0 time=0
note_on channel=0 note=91 velocity=65 time=0
note_on channel=0 note=79 velocity=46 time=0
note_on channel=0 note=79 velocity=0 time=0
note_on channel=0 note=91 velocity=0 time=0
note_on channel=0 note=78 velocity=54 time=0
note_on channel=0 note=90 velocity=64 time=0
note_on channel=0 note=90 velocity=0 time=238
note_on channel=0 note=78 velocity=0 time=0
note_on channel=0 note=55 velocity=0 time=0
note_on channel=0 note=47 velocity=0 time=0
note_on channel=0 note=62 velocity=0 time=0
note_on channel=0 note=90 velocity=69 time=0
note_on channel=0 note=78 velocity=58 time=0
note_on channel=0 note=48 velocity=30 time=0
note_on channel=0 note=64 velocity=42 time=0
note_on channel=0 note=55 velocity=30 time=0
control_change channel=0 control=64 value=0 time=2
control_change channel=0 control=64 value=127 time=178
note_on channel=0 note=78 velocity=0 time=60
note_on channel=0 note=90 velocity=0 time=0
note_on channel=0 note=76 velocity=56 time=0
note_on channel=0 note=88 velocity=67 time=0
note_on channel=0 note=88 velocity=0 time=0
note_on channel=0 note=76 velocity=0 time=0
note_on channel=0 note=78 velocity=60 time=0
note_on channel=0 note=90 velocity=71 time=0
note_on channel=0 note=90 velocity=0 time=238
note_on channel=0 note=78 velocity=0 time=0
note_on channel=0 note=64 velocity=0 time=0
note_on channel=0 note=48 velocity=0 time=0
note_on channel=0 note=55 velocity=0 time=0
note_on channel=0 note=90 velocity=75 time=0
note_on channel=0 note=78 velocity=63 time=0
note_on channel=0 note=47 velocity=39 time=0
note_on channel=0 note=55 velocity=39 time=0
note_on channel=0 note=62 velocity=47 time=0
control_change channel=0 control=64 value=0 time=12
note_on channel=0 note=62 velocity=0 time=0
note_on channel=0 note=78 velocity=0 time=0
note_on channel=0 note=90 velocity=0 time=0
note_on channel=0 note=55 velocity=0 time=0
note_on channel=0 note=91 velocity=72 time=0
note_on channel=0 note=79 velocity=61 time=0
note_on channel=0 note=55 velocity=35 time=0
control_change channel=0 control=64 value=127 time=78
note_on channel=0 note=55 velocity=0 time=0
note_on channel=0 note=47 velocity=0 time=0
note_on channel=0 note=50 velocity=36 time=0
note_on channel=0 note=54 velocity=43 time=0
note_on channel=0 note=79 velocity=0 time=120
note_on channel=0 note=91 velocity=0 time=0
note_on channel=0 note=78 velocity=64 time=0
note_on channel=0 note=66 velocity=57 time=0
note_on channel=0 note=66 velocity=0 time=119
note_on channel=0 note=78 velocity=0 time=0
note_on channel=0 note=50 velocity=0 time=0
note_on channel=0 note=54 velocity=0 time=0
note_on channel=0 note=66 velocity=54 time=0
note_on channel=0 note=78 velocity=54 time=0
note_on channel=0 note=50 velocity=35 time=0
note_on channel=0 note=54 velocity=35 time=0
control_change channel=0 control=64 value=0 time=12
control_change channel=0 control=64 value=127 time=127
note_on channel=0 note=54 velocity=0 time=0
note_on channel=0 note=66 velocity=0 time=0
note_on channel=0 note=78 velocity=0 time=0
note_on channel=0 note=50 velocity=0 time=0
note_on channel=0 note=81 velocity=52 time=0
note_on channel=0 note=69 velocity=52 time=0
note_on channel=0 note=49 velocity=31 time=0
note_on channel=0 note=54 velocity=31 time=0
note_on channel=0 note=57 velocity=31 time=0
control_change channel=0 control=64 value=0 time=12
control_change channel=0 control=64 value=127 time=115
note_on channel=0 note=57 velocity=0 time=0
note_on channel=0 note=49 velocity=0 time=0
note_on channel=0 note=81 velocity=0 time=0
note_on channel=0 note=69 velocity=0 time=0
note_on channel=0 note=54 velocity=0 time=0
note_on channel=0 note=85 velocity=59 time=0
note_on channel=0 note=73 velocity=59 time=0
note_on channel=0 note=49 velocity=26 time=0
note_on channel=0 note=54 velocity=26 time=0
note_on channel=0 note=57 velocity=26 time=0
note_on channel=0 note=61 velocity=31 time=0
note_on channel=0 note=61 velocity=0 time=238
note_on channel=0 note=73 velocity=0 time=0
note_on channel=0 note=49 velocity=0 time=0
note_on channel=0 note=85 velocity=0 time=0
note_on channel=0 note=57 velocity=0 time=0
note_on channel=0 note=54 velocity=0 time=0
note_on channel=0 note=73 velocity=62 time=0
note_on channel=0 note=85 velocity=62 time=0
note_on channel=0 note=49 velocity=31 time=0
note_on channel=0 note=53 velocity=31 time=0
note_on channel=0 note=56 velocity=31 time=0
note_on channel=0 note=61 velocity=38 time=0
control_change channel=0 control=64 value=0 time=2
control_change channel=0 control=64 value=127 time=137
note_on channel=0 note=61 velocity=0 time=0
note_on channel=0 note=85 velocity=0 time=0
note_on channel=0 note=49 velocity=0 time=0
note_on channel=0 note=73 velocity=0 time=0
note_on channel=0 note=56 velocity=0 time=0
note_on channel=0 note=53 velocity=0 time=0
note_on channel=0 note=85 velocity=57 time=0
note_on channel=0 note=73 velocity=57 time=0
note_on channel=0 note=54 velocity=27 time=0
note_on channel=0 note=57 velocity=27 time=0
note_on channel=0 note=61 velocity=32 time=0
control_change channel=0 control=64 value=0 time=2
note_on channel=0 note=61 velocity=0 time=236
note_on channel=0 note=54 velocity=0 time=0
note_on channel=0 note=85 velocity=0 time=0
note_on channel=0 note=73 velocity=0 time=0
note_on channel=0 note=57 velocity=0 time=0
note_on channel=0 note=85 velocity=63 time=0
note_on channel=0 note=73 velocity=53 time=0
note_on channel=0 note=57 velocity=33 time=0
note_on channel=0 note=54 velocity=33 time=0
note_on channel=0 note=61 velocity=39 time=0
control_change channel=0 control=64 value=0 time=12
control_change channel=0 control=64 value=127 time=127
note_on channel=0 note=61 velocity=0 time=0
note_on channel=0 note=57 velocity=0 time=0
note_on channel=0 note=85 velocity=0 time=0
note_on channel=0 note=73 velocity=0 time=0
note_on channel=0 note=54 velocity=0 time=0
note_on channel=0 note=74 velocity=52 time=0
note_on channel=0 note=86 velocity=62 time=0
note_on channel=0 note=47 velocity=26 time=0
note_on channel=0 note=62 velocity=34 time=0
control_change channel=0 control=64 value=0 time=12
control_change channel=0 control=64 value=127 time=115
note_on channel=0 note=62 velocity=0 time=0
note_on channel=0 note=74 velocity=0 time=0
note_on channel=0 note=86 velocity=0 time=0
note_on channel=0 note=67 velocity=47 time=0
note_on channel=0 note=79 velocity=56 time=0
note_on channel=0 note=55 velocity=31 time=0
note_on channel=0 note=55 velocity=0 time=0
note_on channel=0 note=47 velocity=0 time=0
note_on channel=0 note=67 velocity=0 time=0
note_on channel=0 note=79 velocity=0 time=0
note_on channel=0 note=83 velocity=63 time=0
note_on channel=0 note=71 velocity=53 time=0
note_on channel=0 note=59 velocity=39 time=0
control_change channel=0 control=64 value=0 time=12
control_change channel=0 control=64 value=127 time=127
note_on channel=0 note=59 velocity=0 time=0
note_on channel=0 note=71 velocity=0 time=0
note_on channel=0 note=83 velocity=0 time=0
note_on channel=0 note=61 velocity=48 time=0
note_on channel=0 note=73 velocity=57 time=0
note_on channel=0 note=37 velocity=26 time=0
note_on channel=0 note=49 velocity=31 time=0
control_change channel=0 control=64 value=0 time=12
control_change channel=0 control=64 value=127 time=115
note_on channel=0 note=37 velocity=0 time=0
note_on channel=0 note=61 velocity=0 time=0
note_on channel=0 note=73 velocity=0 time=0
note_on channel=0 note=65 velocity=47 time=0
note_on channel=0 note=77 velocity=56 time=0
note_on channel=0 note=53 velocity=31 time=0
note_on channel=0 note=53 velocity=0 time=0
note_on channel=0 note=49 velocity=0 time=0
note_on channel=0 note=65 velocity=0 time=0
note_on channel=0 note=77 velocity=0 time=0
note_on channel=0 note=78 velocity=63 time=0
note_on channel=0 note=66 velocity=53 time=0
note_on channel=0 note=49 velocity=33 time=0
note_on channel=0 note=42 velocity=33 time=0
note_on channel=0 note=54 velocity=39 time=0
control_change channel=0 control=64 value=0 time=12
control_change channel=0 control=64 value=127 time=127
note_on channel=0 note=54 velocity=0 time=0
note_on channel=0 note=49 velocity=0 time=0
note_on channel=0 note=78 velocity=0 time=0
note_on channel=0 note=66 velocity=0 time=0
note_on channel=0 note=42 velocity=0 time=0
note_on channel=0 note=73 velocity=57 time=0
note_on channel=0 note=85 velocity=68 time=0
note_on channel=0 note=49 velocity=31 time=0
note_on channel=0 note=41 velocity=31 time=0
note_on channel=0 note=56 velocity=37 time=0
control_change channel=0 control=64 value=0 time=12
control_change channel=0 control=64 value=127 time=115
note_on channel=0 note=85 velocity=0 time=120
note_on channel=0 note=73 velocity=0 time=0
note_on channel=0 note=68 velocity=41 time=0
note_on channel=0 note=80 velocity=49 time=0
note_on channel=0 note=80 velocity=0 time=0
note_on channel=0 note=41 velocity=0 time=0
note_on channel=0 note=56 velocity=0 time=0
note_on channel=0 note=49 velocity=0 time=0
note_on channel=0 note=68 velocity=0 time=0
note_on channel=0 note=81 velocity=53 time=0
note_on channel=0 note=69 velocity=45 time=0
note_on channel=0 note=49 velocity=28 time=0
note_on channel=0 note=42 velocity=28 time=0
note_on channel=0 note=54 velocity=33 time=0
control_change channel=0 control=64 value=0 time=12
control_change channel=0 control=64 value=127 time=127
note_on channel=0 note=54 velocity=0 time=0
note_on channel=0 note=49 velocity=0 time=0
note_on channel=0 note=81 velocity=0 time=0
note_on channel=0 note=69 velocity=0 time=0
note_on channel=0 note=42 velocity=0 time=0
note_on channel=0 note=69 velocity=45 time=0
note_on channel=0 note=81 velocity=54 time=0
note_on channel=0 note=49 velocity=20 time=0
note_on channel=0 note=57 velocity=32 time=0
control_change channel=0 control=64 value=0 time=12
control_change channel=0 control=64 value=127 time=115
note_on channel=0 note=57 velocity=0 time=120
note_on channel=0 note=69 velocity=0 time=0
note_on channel=0 note=81 velocity=0 time=0
note_on channel=0 note=65 velocity=37 time=0
note_on channel=0 note=77 velocity=44 time=0
note_on channel=0 note=53 velocity=22 time=0
note_on channel=0 note=53 velocity=0 time=0
note_on channel=0 note=49 velocity=0 time=0
note_on channel=0 note=65 velocity=0 time=0
note_on channel=0 note=77 velocity=0 time=0
control_change channel=0 control=64 value=0 time=0
note_on channel=0 note=42 velocity=26 time=0
control_change channel=0 control=64 value=127 time=36
note_on channel=0 note=42 velocity=0 time=84
note_on channel=0 note=61 velocity=26 time=0
note_on channel=0 note=57 velocity=20 time=0
note_on channel=0 note=54 velocity=20 time=0
note_on channel=0 note=49 velocity=20 time=0
note_on channel=0 note=49 velocity=0 time=120
note_on channel=0 note=61 velocity=0 time=0
note_on channel=0 note=57 velocity=0 time=0
note_on channel=0 note=54 velocity=0 time=0
note_on channel=0 note=61 velocity=31 time=0
note_on channel=0 note=57 velocity=24 time=0
note_on channel=0 note=54 velocity=24 time=0
note_on channel=0 note=49 velocity=24 time=0
note_on channel=0 note=49 velocity=0 time=120
note_on channel=0 note=61 velocity=0 time=0
note_on channel=0 note=57 velocity=0 time=0
note_on channel=0 note=54 velocity=0 time=0
note_on channel=0 note=42 velocity=26 time=0
note_on channel=0 note=42 velocity=0 time=120
note_on channel=0 note=61 velocity=26 time=0
note_on channel=0 note=57 velocity=20 time=0
note_on channel=0 note=54 velocity=20 time=0
note_on channel=0 note=49 velocity=20 time=0
note_on channel=0 note=49 velocity=0 time=120
note_on channel=0 note=61 velocity=0 time=0
note_on channel=0 note=57 velocity=0 time=0
note_on channel=0 note=54 velocity=0 time=0
note_on channel=0 note=73 velocity=44 time=0
note_on channel=0 note=49 velocity=23 time=0
note_on channel=0 note=54 velocity=23 time=0
note_on channel=0 note=57 velocity=23 time=0
note_on channel=0 note=61 velocity=29 time=0
control_change channel=0 control=64 value=0 time=0
control_change channel=0 control=64 value=127 time=78
note_on channel=0 note=73 velocity=0 time=40
note_on channel=0 note=57 velocity=0 time=2
note_on channel=0 note=49 velocity=0 time=0
note_on channel=0 note=54 velocity=0 time=0
note_on channel=0 note=61 velocity=0 time=0
note_on channel=0 note=73 velocity=44 time=0
note_on channel=0 note=42 velocity=26 time=120
note_on channel=0 note=73 velocity=0 time=118
note_on channel=0 note=42 velocity=0 time=2
note_on channel=0 note=73 velocity=44 time=0
note_on channel=0 note=78 velocity=55 time=120
note_on channel=0 note=61 velocity=26 time=0
note_on channel=0 note=57 velocity=20 time=0
note_on channel=0 note=54 velocity=20 time=0
note_on channel=0 note=49 velocity=20 time=0
note_on channel=0 note=73 velocity=0 time=118
note_on channel=0 note=61 velocity=0 time=2
note_on channel=0 note=57 velocity=0 time=0
note_on channel=0 note=54 velocity=0 time=0
note_on channel=0 note=49 velocity=0 time=0
note_on channel=0 note=73 velocity=44 time=0
note_on channel=0 note=78 velocity=0 time=118
note_on channel=0 note=78 velocity=63 time=2
note_on channel=0 note=49 velocity=24 time=0
note_on channel=0 note=54 velocity=24 time=0
note_on channel=0 note=57 velocity=24 time=0
note_on channel=0 note=61 velocity=30 time=0
note_on channel=0 note=73 velocity=0 time=118
note_on channel=0 note=49 velocity=0 time=2
note_on channel=0 note=54 velocity=0 time=0
note_on channel=0 note=57 velocity=0 time=0
note_on channel=0 note=61 velocity=0 time=0
note_on channel=0 note=73 velocity=44 time=0
note_on channel=0 note=78 velocity=0 time=0
note_on channel=0 note=81 velocity=63 time=0
note_on channel=0 note=42 velocity=26 time=0
note_on channel=0 note=73 velocity=0 time=118
note_on channel=0 note=42 velocity=0 time=2
note_on channel=0 note=73 velocity=48 time=0
note_on channel=0 note=81 velocity=0 time=0
note_on channel=0 note=85 velocity=68 time=0
note_on channel=0 note=61 velocity=26 time=0
note_on channel=0 note=57 velocity=20 time=0
note_on channel=0 note=54 velocity=20 time=0
note_on channel=0 note=49 velocity=20 time=0
note_on channel=0 note=73 velocity=0 time=118
note_on channel=0 note=61 velocity=0 time=2
note_on channel=0 note=57 velocity=0 time=0
note_on channel=0 note=54 velocity=0 time=0
note_on channel=0 note=49 velocity=0 time=0
note_on channel=0 note=73 velocity=50 time=0
note_on channel=0 note=85 velocity=0 time=118
note_on channel=0 note=73 velocity=0 time=0
note_on channel=0 note=85 velocity=71 time=0
note_on channel=0 note=53 velocity=23 time=0
note_on channel=0 note=49 velocity=23 time=0
note_on channel=0 note=56 velocity=23 time=0
note_on channel=0 note=59 velocity=23 time=0
note_on channel=0 note=61 velocity=29 time=0
control_change channel=0 control=64 value=0 time=0
control_change channel=0 control=64 value=127 time=95
note_on channel=0 note=61 velocity=0 time=25
note_on channel=0 note=53 velocity=0 time=0
note_on channel=0 note=49 velocity=0 time=0
note_on channel=0 note=56 velocity=0 time=0
note_on channel=0 note=59 velocity=0 time=0
note_on channel=0 note=77 velocity=52 time=0
note_on channel=0 note=83 velocity=52 time=0
note_on channel=0 note=44 velocity=26 time=120
note_on channel=0 note=83 velocity=0 time=118
note_on channel=0 note=77 velocity=0 time=0
note_on channel=0 note=44 velocity=0 time=0
note_on channel=0 note=77 velocity=37 time=0
note_on channel=0 note=83 velocity=44 time=0
note_on channel=0 note=85 velocity=0 time=0
note_on channel=0 note=88 velocity=75 time=0
note_on channel=0 note=62 velocity=26 time=0
note_on channel=0 note=59 velocity=20 time=0
note_on channel=0 note=56 velocity=20 time=0
note_on channel=0 note=53 velocity=20 time=0
control_change channel=0 control=64 value=0 time=12
control_change channel=0 control=64 value=127 time=30
note_on channel=0 note=53 velocity=0 time=78
note_on channel=0 note=59 velocity=0 time=0
note_on channel=0 note=83 velocity=0 time=0
note_on channel=0 note=88 velocity=0 time=0
note_on channel=0 note=77 velocity=0 time=0
note_on channel=0 note=56 velocity=0 time=0
note_on channel=0 note=62 velocity=0 time=0
note_on channel=0 note=86 velocity=67 time=0
note_on channel=0 note=86 velocity=0 time=120
note_on channel=0 note=86 velocity=73 time=0
note_on channel=0 note=53 velocity=24 time=0
note_on channel=0 note=56 velocity=24 time=0
note_on channel=0 note=59 velocity=24 time=0
note_on channel=0 note=62 velocity=30 time=0
control_change channel=0 control=64 value=0 time=8
control_change channel=0 control=64 value=127 time=54
note_on channel=0 note=62 velocity=0 time=58
note_on channel=0 note=56 velocity=0 time=0
note_on channel=0 note=59 velocity=0 time=0
note_on channel=0 note=53 velocity=0 time=0
note_on channel=0 note=71 velocity=44 time=0
note_on channel=0 note=86 velocity=0 time=120
note_on channel=0 note=77 velocity=64 time=0
note_on channel=0 note=44 velocity=26 time=0
note_on channel=0 note=71 velocity=0 time=118
note_on channel=0 note=44 velocity=0 time=2
note_on channel=0 note=71 velocity=44 time=0
note_on channel=0 note=77 velocity=0 time=120
note_on channel=0 note=83 velocity=64 time=0
note_on channel=0 note=62 velocity=26 time=0
note_on channel=0 note=59 velocity=20 time=0
note_on channel=0 note=56 velocity=20 time=0
note_on channel=0 note=53 velocity=20 time=0
note_on channel=0 note=71 velocity=0 time=118
note_on channel=0 note=62 velocity=0 time=2
note_on channel=0 note=59 velocity=0 time=0
note_on channel=0 note=56 velocity=0 time=0
note_on channel=0 note=53 velocity=0 time=0
note_on channel=0 note=71 velocity=44 time=0
note_on channel=0 note=83 velocity=0 time=0
note_on channel=0 note=83 velocity=74 time=0
note_on channel=0 note=53 velocity=23 time=0
note_on channel=0 note=56 velocity=23 time=0
note_on channel=0 note=59 velocity=23 time=0
note_on channel=0 note=62 velocity=29 time=0
control_change channel=0 control=64 value=0 time=0
control_change channel=0 control=64 value=127 time=92
note_on channel=0 note=62 velocity=0 time=28
note_on channel=0 note=71 velocity=0 time=0
note_on channel=0 note=53 velocity=0 time=0
note_on channel=0 note=56 velocity=0 time=0
note_on channel=0 note=59 velocity=0 time=0
note_on channel=0 note=65 velocity=44 time=0
note_on channel=0 note=83 velocity=0 time=0
note_on channel=0 note=71 velocity=55 time=0
note_on channel=0 note=44 velocity=26 time=0
note_on channel=0 note=65 velocity=0 time=118
note_on channel=0 note=44 velocity=0 time=0
note_on channel=0 note=65 velocity=39 time=0
note_on channel=0 note=71 velocity=0 time=0
note_on channel=0 note=73 velocity=63 time=0
note_on channel=0 note=62 velocity=26 time=0
note_on channel=0 note=59 velocity=20 time=0
note_on channel=0 note=56 velocity=20 time=0
note_on channel=0 note=53 velocity=20 time=0
note_on channel=0 note=65 velocity=0 time=118
note_on channel=0 note=62 velocity=0 time=2
note_on channel=0 note=59 velocity=0 time=0
note_on channel=0 note=73 velocity=0 time=0
note_on channel=0 note=53 velocity=0 time=0
note_on channel=0 note=56 velocity=0 time=0
note_on channel=0 note=65 velocity=37 time=0
note_on channel=0 note=74 velocity=65 time=0
note_on channel=0 note=74 velocity=0 time=119
note_on channel=0 note=71 velocity=40 time=1
note_on channel=0 note=74 velocity=66 time=0
note_on channel=0 note=53 velocity=24 time=0
note_on channel=0 note=56 velocity=24 time=0
note_on channel=0 note=59 velocity=24 time=0
note_on channel=0 note=62 velocity=30 time=0
control_change channel=0 control=64 value=0 time=12
control_change channel=0 control=64 value=127 time=68
note_on channel=0 note=65 velocity=0 time=38
note_on channel=0 note=59 velocity=0 time=2
note_on channel=0 note=56 velocity=0 time=0
note_on channel=0 note=53 velocity=0 time=0
note_on channel=0 note=62 velocity=0 time=0
note_on channel=0 note=65 velocity=37 time=0
note_on channel=0 note=71 velocity=44 time=0
note_on channel=0 note=71 velocity=0 time=120
note_on channel=0 note=74 velocity=0 time=0
note_on channel=0 note=73 velocity=63 time=0
note_on channel=0 note=44 velocity=26 time=0
note_on channel=0 note=65 velocity=0 time=118
note_on channel=0 note=71 velocity=0 time=0
note_on channel=0 note=44 velocity=0 time=2
note_on channel=0 note=71 velocity=44 time=0
note_on channel=0 note=65 velocity=37 time=0
note_on channel=0 note=61 velocity=26 time=120
note_on channel=0 note=59 velocity=20 time=0
note_on channel=0 note=56 velocity=20 time=0
note_on channel=0 note=53 velocity=20 time=0
control_change channel=0 control=64 value=0 time=12
control_change channel=0 control=64 value=127 time=57
note_on channel=0 note=65 velocity=0 time=49
note_on channel=0 note=71 velocity=0 time=0
note_on channel=0 note=56 velocity=0 time=2
note_on channel=0 note=61 velocity=0 time=0
note_on channel=0 note=73 velocity=0 time=0
note_on channel=0 note=53 velocity=0 time=0
note_on channel=0 note=59 velocity=0 time=0
note_on channel=0 note=65 velocity=37 time=0
note_on channel=0 note=71 velocity=66 time=0
note_on channel=0 note=71 velocity=0 time=0
note_on channel=0 note=65 velocity=0 time=0
note_on channel=0 note=71 velocity=63 time=0
note_on channel=0 note=49 velocity=23 time=0
note_on channel=0 note=54 velocity=23 time=0
note_on channel=0 note=57 velocity=23 time=0
note_on channel=0 note=61 velocity=29 time=0
control_change channel=0 control=64 value=0 time=0
control_change channel=0 control=64 value=127 time=67
note_on channel=0 note=61 velocity=0 time=53
note_on channel=0 note=54 velocity=0 time=0
note_on channel=0 note=71 velocity=0 time=0
note_on channel=0 note=49 velocity=0 time=0
note_on channel=0 note=57 velocity=0 time=0
note_on channel=0 note=69 velocity=54 time=0
note_on channel=0 note=42 velocity=26 time=120
note_on channel=0 note=42 velocity=0 time=120
note_on channel=0 note=69 velocity=0 time=0
note_on channel=0 note=73 velocity=63 time=0
note_on channel=0 note=61 velocity=26 time=120
note_on channel=0 note=57 velocity=20 time=0
note_on channel=0 note=54 velocity=20 time=0
note_on channel=0 note=49 velocity=20 time=0
note_on channel=0 note=49 velocity=0 time=120
note_on channel=0 note=57 velocity=0 time=0
note_on channel=0 note=73 velocity=0 time=0
note_on channel=0 note=61 velocity=0 time=0
note_on channel=0 note=54 velocity=0 time=0
note_on channel=0 note=78 velocity=67 time=0
note_on channel=0 note=49 velocity=24 time=120
note_on channel=0 note=54 velocity=24 time=0
note_on channel=0 note=57 velocity=24 time=0
note_on channel=0 note=61 velocity=30 time=0
control_change channel=0 control=64 value=0 time=5
control_change channel=0 control=64 value=127 time=41
note_on channel=0 note=78 velocity=0 time=34
note_on channel=0 note=81 velocity=66 time=0
note_on channel=0 note=57 velocity=0 time=40
note_on channel=0 note=61 velocity=0 time=0
note_on channel=0 note=49 velocity=0 time=0
note_on channel=0 note=54 velocity=0 time=0
note_on channel=0 note=81 velocity=0 time=40
note_on channel=0 note=85 velocity=67 time=0
note_on channel=0 note=42 velocity=26 time=0
note_on channel=0 note=85 velocity=0 time=80
note_on channel=0 note=90 velocity=70 time=0
note_on channel=0 note=42 velocity=0 time=40
note_on channel=0 note=90 velocity=0 time=40
note_on channel=0 note=92 velocity=71 time=0
note_on channel=0 note=92 velocity=0 time=0
note_on channel=0 note=93 velocity=75 time=0
note_on channel=0 note=61 velocity=26 time=0
note_on channel=0 note=57 velocity=20 time=0
note_on channel=0 note=54 velocity=20 time=0
note_on channel=0 note=49 velocity=20 time=0
note_on channel=0 note=93 velocity=0 time=80
note_on channel=0 note=90 velocity=73 time=0
note_on channel=0 note=54 velocity=0 time=40
note_on channel=0 note=49 velocity=0 time=0
note_on channel=0 note=61 velocity=0 time=0
note_on channel=0 note=57 velocity=0 time=0
note_on channel=0 note=90 velocity=0 time=40
note_on channel=0 note=85 velocity=63 time=0
note_on channel=0 note=85 velocity=0 time=15
note_on channel=0 note=85 velocity=68 time=0
note_on channel=0 note=53 velocity=25 time=0
note_on channel=0 note=49 velocity=25 time=0
note_on channel=0 note=56 velocity=25 time=0
note_on channel=0 note=59 velocity=25 time=0
note_on channel=0 note=61 velocity=32 time=0
control_change channel=0 control=64 value=0 time=0
control_change channel=0 control=64 value=127 time=16
note_on channel=0 note=85 velocity=0 time=17
note_on channel=0 note=86 velocity=63 time=0
note_on channel=0 note=86 velocity=0 time=0
note_on channel=0 note=61 velocity=0 time=0
note_on channel=0 note=56 velocity=0 time=0
note_on channel=0 note=53 velocity=0 time=0
note_on channel=0 note=49 velocity=0 time=0
note_on channel=0 note=59 velocity=0 time=0
note_on channel=0 note=85 velocity=59 time=0
note_on channel=0 note=85 velocity=0 time=11
note_on channel=0 note=86 velocity=60 time=0
note_on channel=0 note=86 velocity=0 time=3
note_on channel=0 note=85 velocity=62 time=0
note_on channel=0 note=85 velocity=0 time=13
note_on channel=0 note=86 velocity=63 time=0
note_on channel=0 note=86 velocity=0 time=5
note_on channel=0 note=85 velocity=64 time=0
note_on channel=0 note=44 velocity=30 time=0
note_on channel=0 note=85 velocity=0 time=30
note_on channel=0 note=86 velocity=65 time=0
note_on channel=0 note=86 velocity=0 time=30
note_on channel=0 note=85 velocity=66 time=0
note_on channel=0 note=85 velocity=0 time=0
note_on channel=0 note=44 velocity=0 time=0
note_on channel=0 note=84 velocity=69 time=0
note_on channel=0 note=84 velocity=0 time=60
note_on channel=0 note=85 velocity=71 time=0
note_on channel=0 note=85 velocity=0 time=0
note_on channel=0 note=88 velocity=74 time=0
note_on channel=0 note=62 velocity=32 time=0
note_on channel=0 note=59 velocity=24 time=0
note_on channel=0 note=56 velocity=24 time=0
note_on channel=0 note=53 velocity=24 time=0
control_change channel=0 control=64 value=0 time=5
control_change channel=0 control=64 value=127 time=41
note_on channel=0 note=88 velocity=0 time=34
note_on channel=0 note=85 velocity=69 time=0
note_on channel=0 note=56 velocity=0 time=0
note_on channel=0 note=53 velocity=0 time=0
note_on channel=0 note=62 velocity=0 time=0
note_on channel=0 note=59 velocity=0 time=0
note_on channel=0 note=85 velocity=0 time=40
note_on channel=0 note=86 velocity=70 time=0
note_on channel=0 note=86 velocity=0 time=79
note_on channel=0 note=86 velocity=76 time=0
note_on channel=0 note=53 velocity=28 time=0
note_on channel=0 note=56 velocity=28 time=0
note_on channel=0 note=59 velocity=28 time=0
note_on channel=0 note=62 velocity=35 time=0
control_change channel=0 control=64 value=0 time=26
control_change channel=0 control=64 value=127 time=46
note_on channel=0 note=86 velocity=0 time=8
note_on channel=0 note=76 velocity=62 time=0
note_on channel=0 note=59 velocity=0 time=40
note_on channel=0 note=62 velocity=0 time=0
note_on channel=0 note=53 velocity=0 time=0
note_on channel=0 note=56 velocity=0 time=0
note_on channel=0 note=76 velocity=0 time=40
note_on channel=0 note=77 velocity=62 time=0
note_on channel=0 note=77 velocity=0 time=80
note_on channel=0 note=77 velocity=70 time=0
note_on channel=0 note=44 velocity=29 time=0
control_change channel=0 control=64 value=0 time=12
control_change channel=0 control=64 value=127 time=28
note_on channel=0 note=77 velocity=0 time=40
note_on channel=0 note=86 velocity=59 time=0
note_on channel=0 note=44 velocity=0 time=0
note_on channel=0 note=86 velocity=0 time=40
note_on channel=0 note=85 velocity=60 time=0
note_on channel=0 note=85 velocity=0 time=79
note_on channel=0 note=85 velocity=67 time=0
note_on channel=0 note=62 velocity=28 time=0
note_on channel=0 note=59 velocity=21 time=0
note_on channel=0 note=56 velocity=21 time=0
note_on channel=0 note=53 velocity=21 time=0
control_change channel=0 control=64 value=0 time=12
control_change channel=0 control=64 value=127 time=31
note_on channel=0 note=85 velocity=0 time=37
note_on channel=0 note=82 velocity=58 time=0
note_on channel=0 note=56 velocity=0 time=40
note_on channel=0 note=53 velocity=0 time=0
note_on channel=0 note=62 velocity=0 time=0
note_on channel=0 note=59 velocity=0 time=0
note_on channel=0 note=82 velocity=0 time=40
note_on channel=0 note=83 velocity=53 time=0
note_on channel=0 note=83 velocity=0 time=79
note_on channel=0 note=83 velocity=59 time=0
note_on channel=0 note=53 velocity=23 time=0
note_on channel=0 note=56 velocity=23 time=0
note_on channel=0 note=59 velocity=23 time=0
note_on channel=0 note=62 velocity=29 time=0
control_change channel=0 control=64 value=0 time=0
control_change channel=0 control=64 value=127 time=52
note_on channel=0 note=83 velocity=0 time=8
note_on channel=0 note=65 velocity=46 time=0
note_on channel=0 note=65 velocity=0 time=60
note_on channel=0 note=62 velocity=0 time=0
note_on channel=0 note=53 velocity=0 time=0
note_on channel=0 note=56 velocity=0 time=0
note_on channel=0 note=59 velocity=0 time=0
note_on channel=0 note=66 velocity=47 time=0
note_on channel=0 note=66 velocity=0 time=60
note_on channel=0 note=68 velocity=48 time=0
note_on channel=0 note=68 velocity=0 time=0
note_on channel=0 note=69 velocity=49 time=0
note_on channel=0 note=44 velocity=29 time=0
note_on channel=0 note=69 velocity=0 time=60
note_on channel=0 note=70 velocity=50 time=0
note_on channel=0 note=70 velocity=0 time=0
note_on channel=0 note=44 velocity=0 time=0
note_on channel=0 note=71 velocity=51 time=0
note_on channel=0 note=71 velocity=0 time=60
note_on channel=0 note=72 velocity=52 time=0
note_on channel=0 note=72 velocity=0 time=0
note_on channel=0 note=73 velocity=54 time=0
note_on channel=0 note=62 velocity=31 time=0
note_on channel=0 note=59 velocity=24 time=0
note_on channel=0 note=56 velocity=24 time=0
note_on channel=0 note=53 velocity=24 time=0
control_change channel=0 control=64 value=0 time=7
control_change channel=0 control=64 value=127 time=42
note_on channel=0 note=73 velocity=0 time=31
note_on channel=0 note=74 velocity=55 time=0
note_on channel=0 note=56 velocity=0 time=40
note_on channel=0 note=53 velocity=0 time=0
note_on channel=0 note=62 velocity=0 time=0
note_on channel=0 note=59 velocity=0 time=0
note_on channel=0 note=74 velocity=0 time=40
note_on channel=0 note=75 velocity=57 time=0
control_change channel=0 control=64 value=0 time=77
note_on channel=0 note=75 velocity=0 time=3
note_on channel=0 note=76 velocity=58 time=0
note_on channel=0 note=53 velocity=28 time=0
note_on channel=0 note=56 velocity=28 time=0
note_on channel=0 note=59 velocity=28 time=0
note_on channel=0 note=62 velocity=35 time=0
control_change channel=0 control=64 value=127 time=40
note_on channel=0 note=76 velocity=0 time=40
note_on channel=0 note=73 velocity=60 time=0
note_on channel=0 note=59 velocity=0 time=40
note_on channel=0 note=62 velocity=0 time=0
note_on channel=0 note=53 velocity=0 time=0
note_on channel=0 note=56 velocity=0 time=0
note_on channel=0 note=73 velocity=0 time=40
note_on channel=0 note=74 velocity=61 time=0
note_on channel=0 note=74 velocity=0 time=79
note_on channel=0 note=74 velocity=64 time=1
note_on channel=0 note=44 velocity=32 time=0
control_change channel=0 control=64 value=0 time=7
control_change channel=0 control=64 value=127 time=39
note_on channel=0 note=74 velocity=0 time=14
note_on channel=0 note=83 velocity=62 time=0
note_on channel=0 note=83 velocity=0 time=60
note_on channel=0 note=44 velocity=0 time=0
note_on channel=0 note=80 velocity=56 time=0
note_on channel=0 note=80 velocity=0 time=60
note_on channel=0 note=77 velocity=56 time=0
note_on channel=0 note=77 velocity=0 time=60
note_on channel=0 note=74 velocity=62 time=0
note_on channel=0 note=61 velocity=32 time=0
note_on channel=0 note=59 velocity=25 time=0
note_on channel=0 note=56 velocity=25 time=0
note_on channel=0 note=53 velocity=25 time=0
note_on channel=0 note=74 velocity=0 time=60
note_on channel=0 note=72 velocity=57 time=0
note_on channel=0 note=72 velocity=0 time=60
note_on channel=0 note=53 velocity=0 time=0
note_on channel=0 note=61 velocity=0 time=0
note_on channel=0 note=59 velocity=0 time=0
note_on channel=0 note=56 velocity=0 time=0
note_on channel=0 note=74 velocity=55 time=0
note_on channel=0 note=74 velocity=0 time=60
note_on channel=0 note=73 velocity=55 time=0
note_on channel=0 note=73 velocity=0 time=0
note_on channel=0 note=73 velocity=57 time=0
note_on channel=0 note=54 velocity=28 time=0
note_on channel=0 note=57 velocity=28 time=0
note_on channel=0 note=61 velocity=36 time=0
control_change channel=0 control=64 value=0 time=0
control_change channel=0 control=64 value=127 time=75
note_on channel=0 note=61 velocity=0 time=45
note_on channel=0 note=57 velocity=0 time=0
note_on channel=0 note=54 velocity=0 time=0
note_on channel=0 note=66 velocity=48 time=0
note_on channel=0 note=73 velocity=0 time=120
note_on channel=0 note=78 velocity=62 time=0
note_on channel=0 note=45 velocity=32 time=0
note_on channel=0 note=66 velocity=0 time=118
note_on channel=0 note=45 velocity=0 time=2
note_on channel=0 note=66 velocity=48 time=0
note_on channel=0 note=61 velocity=32 time=120
note_on channel=0 note=57 velocity=25 time=0
note_on channel=0 note=54 velocity=25 time=0
note_on channel=0 note=54 velocity=0 time=120
note_on channel=0 note=61 velocity=0 time=0
note_on channel=0 note=78 velocity=0 time=0
note_on channel=0 note=66 velocity=0 time=0
note_on channel=0 note=57 velocity=0 time=0
note_on channel=0 note=73 velocity=56 time=0
note_on channel=0 note=73 velocity=0 time=120
note_on channel=0 note=74 velocity=62 time=0
note_on channel=0 note=53 velocity=30 time=0
note_on channel=0 note=56 velocity=30 time=0
note_on channel=0 note=59 velocity=30 time=0
note_on channel=0 note=62 velocity=37 time=0
control_change channel=0 control=64 value=0 time=11
control_change channel=0 control=64 value=127 time=92
note_on channel=0 note=62 velocity=0 time=17
note_on channel=0 note=56 velocity=0 time=0
note_on channel=0 note=59 velocity=0 time=0
note_on channel=0 note=53 velocity=0 time=0
note_on channel=0 note=71 velocity=43 time=0
note_on channel=0 note=65 velocity=36 time=0
note_on channel=0 note=44 velocity=32 time=0
note_on channel=0 note=65 velocity=0 time=118
note_on channel=0 note=71 velocity=0 time=0
note_on channel=0 note=44 velocity=0 time=2
note_on channel=0 note=65 velocity=36 time=0
note_on channel=0 note=71 velocity=43 time=0
note_on channel=0 note=74 velocity=0 time=0
note_on channel=0 note=73 velocity=56 time=0
note_on channel=0 note=61 velocity=32 time=0
note_on channel=0 note=59 velocity=25 time=0
note_on channel=0 note=56 velocity=25 time=0
note_on channel=0 note=53 velocity=25 time=0
control_change channel=0 control=64 value=0 time=13
control_change channel=0 control=64 value=127 time=62
note_on channel=0 note=71 velocity=0 time=43
note_on channel=0 note=65 velocity=0 time=0
note_on channel=0 note=56 velocity=0 time=2
note_on channel=0 note=59 velocity=0 time=0
note_on channel=0 note=61 velocity=0 time=0
note_on channel=0 note=53 velocity=0 time=0
note_on channel=0 note=65 velocity=36 time=0
note_on channel=0 note=71 velocity=43 time=0
note_on channel=0 note=71 velocity=0 time=0
note_on channel=0 note=65 velocity=0 time=0
note_on channel=0 note=73 velocity=0 time=0
note_on channel=0 note=73 velocity=62 time=0
note_on channel=0 note=54 velocity=28 time=0
note_on channel=0 note=57 velocity=28 time=0
note_on channel=0 note=61 velocity=36 time=0
control_change channel=0 control=64 value=0 time=0
control_change channel=0 control=64 value=127 time=60
note_on channel=0 note=73 velocity=0 time=20
note_on channel=0 note=85 velocity=57 time=0
note_on channel=0 note=54 velocity=0 time=40
note_on channel=0 note=61 velocity=0 time=0
note_on channel=0 note=57 velocity=0 time=0
note_on channel=0 note=85 velocity=0 time=40
note_on channel=0 note=80 velocity=57 time=0
note_on channel=0 note=80 velocity=0 time=14
note_on channel=0 note=83 velocity=63 time=0
note_on channel=0 note=45 velocity=32 time=0
note_on channel=0 note=83 velocity=0 time=60
note_on channel=0 note=81 velocity=65 time=0
note_on channel=0 note=81 velocity=0 time=60
note_on channel=0 note=45 velocity=0 time=0
note_on channel=0 note=77 velocity=68 time=0
note_on channel=0 note=77 velocity=0 time=60
note_on channel=0 note=78 velocity=70 time=0
note_on channel=0 note=78 velocity=0 time=60
note_on channel=0 note=80 velocity=71 time=0
note_on channel=0 note=49 velocity=25 time=0
note_on channel=0 note=61 velocity=32 time=0
note_on channel=0 note=57 velocity=25 time=0
note_on channel=0 note=54 velocity=25 time=0
note_on channel=0 note=80 velocity=0 time=60
note_on channel=0 note=78 velocity=70 time=0
note_on channel=0 note=78 velocity=0 time=60
note_on channel=0 note=54 velocity=0 time=0
note_on channel=0 note=49 velocity=0 time=0
note_on channel=0 note=61 velocity=0 time=0
note_on channel=0 note=57 velocity=0 time=0
note_on channel=0 note=81 velocity=68 time=0
note_on channel=0 note=81 velocity=0 time=40
note_on channel=0 note=78 velocity=67 time=0
note_on channel=0 note=78 velocity=0 time=12
note_on channel=0 note=73 velocity=65 time=1
control_change channel=0 control=64 value=0 time=36
note_on channel=0 note=76 velocity=66 time=3
note_on channel=0 note=49 velocity=30 time=0
note_on channel=0 note=53 velocity=30 time=0
note_on channel=0 note=56 velocity=30 time=0
note_on channel=0 note=59 velocity=30 time=0
note_on channel=0 note=61 velocity=37 time=0
note_on channel=0 note=73 velocity=0 time=1
control_change channel=0 control=64 value=127 time=39
note_on channel=0 note=59 velocity=0 time=80
note_on channel=0 note=49 velocity=0 time=0
note_on channel=0 note=53 velocity=0 time=0
note_on channel=0 note=76 velocity=0 time=0
note_on channel=0 note=61 velocity=0 time=0
note_on channel=0 note=56 velocity=0 time=0
note_on channel=0 note=75 velocity=62 time=0
note_on channel=0 note=71 velocity=52 time=0
note_on channel=0 note=65 velocity=43 time=0
note_on channel=0 note=75 velocity=0 time=100
note_on channel=0 note=74 velocity=62 time=0
note_on channel=0 note=44 velocity=32 time=0
control_change channel=0 control=64 value=0 time=10
control_change channel=0 control=64 value=127 time=42
note_on channel=0 note=65 velocity=0 time=26
note_on channel=0 note=71 velocity=0 time=0
note_on channel=0 note=74 velocity=0 time=2
note_on channel=0 note=44 velocity=0 time=0
note_on channel=0 note=74 velocity=58 time=0
note_on channel=0 note=71 velocity=48 time=0
note_on channel=0 note=65 velocity=41 time=0
note_on channel=0 note=61 velocity=32 time=120
note_on channel=0 note=59 velocity=25 time=0
note_on channel=0 note=56 velocity=25 time=0
note_on channel=0 note=65 velocity=0 time=94
note_on channel=0 note=74 velocity=0 time=0
note_on channel=0 note=71 velocity=0 time=0
note_on channel=0 note=61 velocity=0 time=2
note_on channel=0 note=59 velocity=0 time=0
note_on channel=0 note=56 velocity=0 time=0
note_on channel=0 note=65 velocity=41 time=0
note_on channel=0 note=71 velocity=48 time=0
note_on channel=0 note=73 velocity=58 time=0
note_on channel=0 note=73 velocity=0 time=0
note_on channel=0 note=71 velocity=0 time=0
note_on channel=0 note=65 velocity=0 time=0
note_on channel=0 note=73 velocity=60 time=0
note_on channel=0 note=57 velocity=30 time=0
note_on channel=0 note=61 velocity=39 time=0
control_change channel=0 control=64 value=0 time=0
control_change channel=0 control=64 value=127 time=86
note_on channel=0 note=61 velocity=0 time=34
note_on channel=0 note=57 velocity=0 time=0
note_on channel=0 note=66 velocity=40 time=0
note_on channel=0 note=45 velocity=35 time=120
note_on channel=0 note=45 velocity=0 time=0
note_on channel=0 note=66 velocity=0 time=0
note_on channel=0 note=73 velocity=0 time=0
note_on channel=0 note=78 velocity=62 time=0
note_on channel=0 note=61 velocity=36 time=120
note_on channel=0 note=58 velocity=28 time=0
control_change channel=0 control=64 value=0 time=7
control_change channel=0 control=64 value=127 time=108
note_on channel=0 note=78 velocity=0 time=3
note_on channel=0 note=58 velocity=0 time=2
note_on channel=0 note=61 velocity=0 time=0
note_on channel=0 note=78 velocity=63 time=0
note_on channel=0 note=58 velocity=34 time=120
note_on channel=0 note=61 velocity=42 time=0
note_on channel=0 note=61 velocity=0 time=0
note_on channel=0 note=58 velocity=0 time=0
note_on channel=0 note=66 velocity=40 time=0
note_on channel=0 note=46 velocity=40 time=0
note_on channel=0 note=78 velocity=0 time=115
note_on channel=0 note=46 velocity=0 time=0
note_on channel=0 note=66 velocity=0 time=0
note_on channel=0 note=78 velocity=65 time=0
note_on channel=0 note=63 velocity=40 time=0
note_on channel=0 note=59 velocity=31 time=0
control_change channel=0 control=64 value=0 time=11
control_change channel=0 control=64 value=127 time=86
note_on channel=0 note=78 velocity=0 time=21
note_on channel=0 note=59 velocity=0 time=2
note_on channel=0 note=63 velocity=0 time=0
note_on channel=0 note=78 velocity=67 time=0
note_on channel=0 note=59 velocity=36 time=0
note_on channel=0 note=63 velocity=47 time=0
note_on channel=0 note=63 velocity=0 time=0
note_on channel=0 note=59 velocity=0 time=0
note_on channel=0 note=71 velocity=45 time=0
note_on channel=0 note=47 velocity=42 time=0
note_on channel=0 note=47 velocity=0 time=0
note_on channel=0 note=71 velocity=0 time=0
note_on channel=0 note=78 velocity=0 time=0
note_on channel=0 note=83 velocity=69 time=0
note_on channel=0 note=64 velocity=42 time=0
note_on channel=0 note=61 velocity=33 time=0
control_change channel=0 control=64 value=0 time=12
control_change channel=0 control=64 value=127 time=63
note_on channel=0 note=83 velocity=0 time=43
note_on channel=0 note=61 velocity=0 time=2
note_on channel=0 note=64 velocity=0 time=0
note_on channel=0 note=83 velocity=71 time=0
note_on channel=0 note=61 velocity=40 time=120
note_on channel=0 note=64 velocity=50 time=0
note_on channel=0 note=64 velocity=0 time=0
note_on channel=0 note=61 velocity=0 time=0
note_on channel=0 note=71 velocity=61 time=0
note_on channel=0 note=49 velocity=44 time=0
note_on channel=0 note=83 velocity=0 time=115
note_on channel=0 note=49 velocity=0 time=0
note_on channel=0 note=71 velocity=0 time=0
note_on channel=0 note=71 velocity=62 time=0
note_on channel=0 note=83 velocity=73 time=0
note_on channel=0 note=66 velocity=44 time=0
note_on channel=0 note=63 velocity=35 time=0
control_change channel=0 control=64 value=0 time=15
control_change channel=0 control=64 value=127 time=88
note_on channel=0 note=83 velocity=0 time=15
note_on channel=0 note=71 velocity=0 time=0
note_on channel=0 note=66 velocity=0 time=2
note_on channel=0 note=63 velocity=0 time=0
note_on channel=0 note=71 velocity=63 time=0
note_on channel=0 note=83 velocity=75 time=0
note_on channel=0 note=66 velocity=49 time=0
note_on channel=0 note=63 velocity=41 time=0
control_change channel=0 control=64 value=0 time=0
control_change channel=0 control=64 value=127 time=69
note_on channel=0 note=83 velocity=0 time=49
note_on channel=0 note=71 velocity=0 time=0
note_on channel=0 note=66 velocity=0 time=2
note_on channel=0 note=63 velocity=0 time=0
note_on channel=0 note=71 velocity=64 time=0
note_on channel=0 note=83 velocity=76 time=0
note_on channel=0 note=51 velocity=41 time=0
note_on channel=0 note=51 velocity=0 time=120
note_on channel=0 note=67 velocity=49 time=0
note_on channel=0 note=64 velocity=41 time=0
control_change channel=0 control=64 value=0 time=8
control_change channel=0 control=64 value=127 time=49
note_on channel=0 note=83 velocity=0 time=61
note_on channel=0 note=71 velocity=0 time=0
note_on channel=0 note=67 velocity=0 time=2
note_on channel=0 note=64 velocity=0 time=0
note_on channel=0 note=71 velocity=65 time=0
note_on channel=0 note=83 velocity=77 time=0
note_on channel=0 note=52 velocity=42 time=0
note_on channel=0 note=52 velocity=0 time=120
note_on channel=0 note=69 velocity=51 time=0
note_on channel=0 note=66 velocity=42 time=0
control_change channel=0 control=64 value=0 time=14
control_change channel=0 control=64 value=127 time=49
note_on channel=0 note=83 velocity=0 time=55
note_on channel=0 note=71 velocity=0 time=0
note_on channel=0 note=69 velocity=0 time=2
note_on channel=0 note=66 velocity=0 time=0
note_on channel=0 note=71 velocity=66 time=0
note_on channel=0 note=83 velocity=78 time=0
note_on channel=0 note=54 velocity=41 time=0
note_on channel=0 note=71 velocity=0 time=119
note_on channel=0 note=54 velocity=0 time=0
note_on channel=0 note=67 velocity=47 time=0
note_on channel=0 note=71 velocity=56 time=0
control_change channel=0 control=64 value=0 time=12
control_change channel=0 control=64 value=127 time=68
note_on channel=0 note=83 velocity=0 time=38
note_on channel=0 note=71 velocity=0 time=0
note_on channel=0 note=67 velocity=0 time=0
note_on channel=0 note=88 velocity=80 time=0
note_on channel=0 note=83 velocity=68 time=0
note_on channel=0 note=76 velocity=68 time=0
note_on channel=0 note=55 velocity=44 time=0
note_on channel=0 note=55 velocity=0 time=0
note_on channel=0 note=68 velocity=48 time=0
note_on channel=0 note=71 velocity=57 time=0
control_change channel=0 control=64 value=0 time=12
control_change channel=0 control=64 value=127 time=51
note_on channel=0 note=88 velocity=0 time=23
note_on channel=0 note=76 velocity=0 time=0
note_on channel=0 note=83 velocity=0 time=0
note_on channel=0 note=68 velocity=0 time=2
note_on channel=0 note=71 velocity=0 time=0
note_on channel=0 note=86 velocity=81 time=0
note_on channel=0 note=88 velocity=81 time=0
note_on channel=0 note=83 velocity=68 time=0
note_on channel=0 note=76 velocity=68 time=0
note_on channel=0 note=56 velocity=51 time=0
note_on channel=0 note=56 velocity=0 time=30
note_on channel=0 note=69 velocity=52 time=0
note_on channel=0 note=73 velocity=62 time=0
control_change channel=0 control=64 value=0 time=3
control_change channel=0 control=64 value=127 time=35
note_on channel=0 note=83 velocity=0 time=32
note_on channel=0 note=76 velocity=0 time=0
note_on channel=0 note=86 velocity=0 time=0
note_on channel=0 note=88 velocity=0 time=0
note_on channel=0 note=73 velocity=0 time=0
note_on channel=0 note=69 velocity=0 time=0
note_on channel=0 note=88 velocity=82 time=0
note_on channel=0 note=85 velocity=69 time=0
note_on channel=0 note=81 velocity=69 time=0
note_on channel=0 note=76 velocity=69 time=0
note_on channel=0 note=57 velocity=49 time=0
note_on channel=0 note=76 velocity=0 time=119
note_on channel=0 note=81 velocity=0 time=0
note_on channel=0 note=88 velocity=0 time=0
note_on channel=0 note=85 velocity=0 time=0
note_on channel=0 note=57 velocity=0 time=0
note_on channel=0 note=76 velocity=56 time=0
note_on channel=0 note=88 velocity=73 time=0
note_on channel=0 note=69 velocity=40 time=0
note_on channel=0 note=73 velocity=48 time=0
control_change channel=0 control=64 value=0 time=2
control_change channel=0 control=64 value=127 time=84
note_on channel=0 note=88 velocity=0 time=34
note_on channel=0 note=80 velocity=57 time=0
note_on channel=0 note=80 velocity=0 time=120
note_on channel=0 note=73 velocity=0 time=0
note_on channel=0 note=69 velocity=0 time=0
note_on channel=0 note=76 velocity=0 time=0
note_on channel=0 note=76 velocity=54 time=0
note_on channel=0 note=83 velocity=64 time=0
note_on channel=0 note=61 velocity=40 time=0
note_on channel=0 note=57 velocity=34 time=0
control_change channel=0 control=64 value=0 time=14
control_change channel=0 control=64 value=127 time=55
note_on channel=0 note=83 velocity=0 time=51
note_on channel=0 note=81 velocity=60 time=0
note_on channel=0 note=81 velocity=0 time=120
note_on channel=0 note=76 velocity=0 time=0
note_on channel=0 note=61 velocity=0 time=0
note_on channel=0 note=78 velocity=51 time=0
note_on channel=0 note=80 velocity=60 time=0
note_on channel=0 note=63 velocity=35 time=0
control_change channel=0 control=64 value=0 time=12
control_change channel=0 control=64 value=127 time=57
note_on channel=0 note=80 velocity=0 time=0
note_on channel=0 note=81 velocity=60 time=0
note_on channel=0 note=81 velocity=0 time=0
note_on channel=0 note=57 velocity=0 time=0
note_on channel=0 note=84 velocity=69 time=0
note_on channel=0 note=57 velocity=33 time=0
control_change channel=0 control=64 value=0 time=7
control_change channel=0 control=64 value=127 time=73
note_on channel=0 note=78 velocity=0 time=40
note_on channel=0 note=63 velocity=0 time=0
note_on channel=0 note=78 velocity=60 time=0
note_on channel=0 note=63 velocity=32 time=0
note_on channel=0 note=63 velocity=0 time=120
note_on channel=0 note=78 velocity=0 time=0
note_on channel=0 note=84 velocity=0 time=0
note_on channel=0 note=81 velocity=65 time=0
note_on channel=0 note=83 velocity=55 time=0
note_on channel=0 note=66 velocity=38 time=0
control_change channel=0 control=64 value=0 time=12
control_change channel=0 control=64 value=127 time=68
note_on channel=0 note=66 velocity=0 time=40
note_on channel=0 note=79 velocity=57 time=0
note_on channel=0 note=64 velocity=34 time=0
note_on channel=0 note=64 velocity=0 time=120
note_on channel=0 note=79 velocity=0 time=0
note_on channel=0 note=78 velocity=60 time=0
note_on channel=0 note=63 velocity=39 time=0
control_change channel=0 control=64 value=0 time=10
control_change channel=0 control=64 value=127 time=65
note_on channel=0 note=63 velocity=0 time=0
note_on channel=0 note=81 velocity=0 time=0
note_on channel=0 note=78 velocity=0 time=0
note_on channel=0 note=79 velocity=55 time=0
note_on channel=0 note=64 velocity=35 time=0
note_on channel=0 note=64 velocity=0 time=0
note_on channel=0 note=79 velocity=0 time=0
note_on channel=0 note=57 velocity=0 time=0
note_on channel=0 note=77 velocity=56 time=0
note_on channel=0 note=57 velocity=34 time=0
note_on channel=0 note=62 velocity=48 time=0
control_change channel=0 control=64 value=0 time=2
control_change channel=0 control=64 value=127 time=84
note_on channel=0 note=80 velocity=57 time=34
note_on channel=0 note=80 velocity=0 time=120
note_on channel=0 note=77 velocity=0 time=0
note_on channel=0 note=83 velocity=0 time=0
note_on channel=0 note=62 velocity=0 time=0
note_on channel=0 note=76 velocity=54 time=0
note_on channel=0 note=82 velocity=64 time=0
note_on channel=0 note=61 velocity=40 time=0
control_change channel=0 control=64 value=0 time=14
control_change channel=0 control=64 value=127 time=55
note_on channel=0 note=82 velocity=0 time=51
note_on channel=0 note=81 velocity=60 time=0
note_on channel=0 note=81 velocity=0 time=120
note_on channel=0 note=80 velocity=60 time=0
control_change channel=0 control=64 value=0 time=12
control_change channel=0 control=64 value=127 time=57
note_on channel=0 note=80 velocity=0 time=0
note_on channel=0 note=81 velocity=60 time=0
note_on channel=0 note=81 velocity=0 time=0
note_on channel=0 note=57 velocity=0 time=0
note_on channel=0 note=83 velocity=69 time=0
note_on channel=0 note=57 velocity=33 time=0
control_change channel=0 control=64 value=0 time=7
control_change channel=0 control=64 value=127 time=73
note_on channel=0 note=76 velocity=0 time=40
note_on channel=0 note=61 velocity=0 time=0
note_on channel=0 note=76 velocity=60 time=0
note_on channel=0 note=61 velocity=32 time=0
note_on channel=0 note=61 velocity=0 time=120
note_on channel=0 note=76 velocity=0 time=0
note_on channel=0 note=83 velocity=0 time=0
note_on channel=0 note=79 velocity=65 time=0
note_on channel=0 note=81 velocity=55 time=0
note_on channel=0 note=64 velocity=38 time=0
control_change channel=0 control=64 value=0 time=12
control_change channel=0 control=64 value=127 time=68
note_on channel=0 note=64 velocity=0 time=40
note_on channel=0 note=79 velocity=0 time=0
note_on channel=0 note=78 velocity=57 time=0
note_on channel=0 note=62 velocity=34 time=0
note_on channel=0 note=62 velocity=0 time=120
note_on channel=0 note=78 velocity=0 time=0
note_on channel=0 note=77 velocity=60 time=0
note_on channel=0 note=61 velocity=39 time=0
control_change channel=0 control=64 value=0 time=10
control_change channel=0 control=64 value=127 time=65
note_on channel=0 note=61 velocity=0 time=0
note_on channel=0 note=77 velocity=0 time=0
note_on channel=0 note=78 velocity=55 time=0
note_on channel=0 note=62 velocity=35 time=0
note_on channel=0 note=62 velocity=0 time=0
note_on channel=0 note=78 velocity=0 time=0
note_on channel=0 note=57 velocity=0 time=0
note_on channel=0 note=75 velocity=50 time=0
note_on channel=0 note=57 velocity=33 time=0
note_on channel=0 note=63 velocity=39 time=0
note_on channel=0 note=60 velocity=39 time=0
control_change channel=0 control=64 value=0 time=0
control_change channel=0 control=64 value=127 time=75
note_on channel=0 note=81 velocity=0 time=45
note_on channel=0 note=78 velocity=53 time=0
note_on channel=0 note=78 velocity=0 time=120
note_on channel=0 note=60 velocity=0 time=0
note_on channel=0 note=75 velocity=0 time=0
note_on channel=0 note=63 velocity=0 time=0
note_on channel=0 note=76 velocity=51 time=0
note_on channel=0 note=81 velocity=61 time=0
note_on channel=0 note=64 velocity=39 time=0
note_on channel=0 note=61 velocity=33 time=0
control_change channel=0 control=64 value=0 time=12
control_change channel=0 control=64 value=127 time=63
note_on channel=0 note=81 velocity=0 time=45
note_on channel=0 note=79 velocity=55 time=0
note_on channel=0 note=79 velocity=0 time=120
note_on channel=0 note=61 velocity=0 time=0
note_on channel=0 note=57 velocity=0 time=0
note_on channel=0 note=76 velocity=0 time=0
note_on channel=0 note=64 velocity=0 time=0
note_on channel=0 note=73 velocity=51 time=0
note_on channel=0 note=78 velocity=61 time=0
note_on channel=0 note=63 velocity=39 time=0
note_on channel=0 note=58 velocity=33 time=0
control_change channel=0 control=64 value=0 time=5
control_change channel=0 control=64 value=127 time=47
note_on channel=0 note=63 velocity=0 time=0
note_on channel=0 note=78 velocity=0 time=0
note_on channel=0 note=79 velocity=55 time=0
note_on channel=0 note=64 velocity=39 time=0
note_on channel=0 note=64 velocity=0 time=119
note_on channel=0 note=79 velocity=0 time=0
note_on channel=0 note=73 velocity=0 time=0
note_on channel=0 note=58 velocity=0 time=0
note_on channel=0 note=79 velocity=63 time=0
note_on channel=0 note=73 velocity=53 time=0
note_on channel=0 note=64 velocity=45 time=0
note_on channel=0 note=58 velocity=38 time=0
control_change channel=0 control=64 value=0 time=4
control_change channel=0 control=64 value=127 time=93
note_on channel=0 note=64 velocity=0 time=23
note_on channel=0 note=79 velocity=0 time=0
note_on channel=0 note=76 velocity=57 time=0
note_on channel=0 note=61 velocity=39 time=0
note_on channel=0 note=61 velocity=0 time=120
note_on channel=0 note=58 velocity=0 time=0
note_on channel=0 note=73 velocity=0 time=0
note_on channel=0 note=76 velocity=0 time=0
note_on channel=0 note=74 velocity=56 time=0
note_on channel=0 note=79 velocity=67 time=0
note_on channel=0 note=64 velocity=44 time=0
note_on channel=0 note=59 velocity=37 time=0
control_change channel=0 control=64 value=0 time=11
control_change channel=0 control=64 value=127 time=58
note_on channel=0 note=64 velocity=0 time=51
note_on channel=0 note=79 velocity=0 time=0
note_on channel=0 note=78 velocity=58 time=0
note_on channel=0 note=62 velocity=39 time=0
note_on channel=0 note=62 velocity=0 time=120
note_on channel=0 note=59 velocity=0 time=0
note_on channel=0 note=74 velocity=0 time=0
note_on channel=0 note=78 velocity=0 time=0
note_on channel=0 note=76 velocity=68 time=0
note_on channel=0 note=71 velocity=57 time=0
note_on channel=0 note=61 velocity=43 time=0
note_on channel=0 note=56 velocity=36 time=0
control_change channel=0 control=64 value=0 time=13
control_change channel=0 control=64 value=127 time=67
note_on channel=0 note=61 velocity=0 time=0
note_on channel=0 note=76 velocity=0 time=0
note_on channel=0 note=77 velocity=61 time=0
note_on channel=0 note=62 velocity=39 time=0
note_on channel=0 note=62 velocity=0 time=119
note_on channel=0 note=77 velocity=0 time=0
note_on channel=0 note=56 velocity=0 time=0
note_on channel=0 note=77 velocity=71 time=0
note_on channel=0 note=56 velocity=39 time=0
note_on channel=0 note=62 velocity=46 time=0
control_change channel=0 control=64 value=0 time=0
control_change channel=0 control=64 value=127 time=80
note_on channel=0 note=71 velocity=0 time=40
note_on channel=0 note=65 velocity=61 time=0
note_on channel=0 note=65 velocity=0 time=0
note_on channel=0 note=62 velocity=0 time=0
note_on channel=0 note=56 velocity=0 time=0
note_on channel=0 note=77 velocity=0 time=0
note_on channel=0 note=64 velocity=57 time=0
note_on channel=0 note=70 velocity=68 time=0
note_on channel=0 note=76 velocity=68 time=0
note_on channel=0 note=61 velocity=42 time=0
note_on channel=0 note=55 velocity=35 time=0
control_change channel=0 control=64 value=0 time=9
control_change channel=0 control=64 value=127 time=66
note_on channel=0 note=70 velocity=0 time=45
note_on channel=0 note=69 velocity=59 time=0
note_on channel=0 note=69 velocity=0 time=120
note_on channel=0 note=55 velocity=0 time=0
note_on channel=0 note=64 velocity=0 time=0
note_on channel=0 note=76 velocity=0 time=0
note_on channel=0 note=61 velocity=0 time=0
note_on channel=0 note=66 velocity=58 time=0
note_on channel=0 note=68 velocity=69 time=0
note_on channel=0 note=74 velocity=69 time=0
note_on channel=0 note=57 velocity=33 time=0
note_on channel=0 note=54 velocity=33 time=0
note_on channel=0 note=62 velocity=39 time=0
control_change channel=0 control=64 value=0 time=11
control_change channel=0 control=64 value=127 time=52
note_on channel=0 note=68 velocity=0 time=0
note_on channel=0 note=69 velocity=60 time=0
note_on channel=0 note=69 velocity=0 time=0
note_on channel=0 note=62 velocity=0 time=0
note_on channel=0 note=57 velocity=0 time=0
note_on channel=0 note=66 velocity=0 time=0
note_on channel=0 note=74 velocity=0 time=0
note_on channel=0 note=54 velocity=0 time=0
note_on channel=0 note=79 velocity=74 time=0
note_on channel=0 note=73 velocity=67 time=0
note_on channel=0 note=52 velocity=45 time=0
note_on channel=0 note=45 velocity=38 time=0
control_change channel=0 control=64 value=0 time=11
control_change channel=0 control=64 value=127 time=75
note_on channel=0 note=52 velocity=0 time=34
note_on channel=0 note=73 velocity=0 time=0
note_on channel=0 note=76 velocity=62 time=0
note_on channel=0 note=49 velocity=39 time=0
note_on channel=0 note=49 velocity=0 time=120
note_on channel=0 note=45 velocity=0 time=0
note_on channel=0 note=79 velocity=0 time=0
note_on channel=0 note=76 velocity=0 time=0
note_on channel=0 note=78 velocity=71 time=0
note_on channel=0 note=74 velocity=60 time=0
note_on channel=0 note=52 velocity=57 time=0
note_on channel=0 note=47 velocity=43 time=0
control_change channel=0 control=64 value=0 time=12
control_change channel=0 control=64 value=127 time=91
note_on channel=0 note=52 velocity=0 time=17
note_on channel=0 note=50 velocity=48 time=0
note_on channel=0 note=50 velocity=0 time=120
note_on channel=0 note=47 velocity=0 time=0
note_on channel=0 note=74 velocity=0 time=0
note_on channel=0 note=78 velocity=0 time=0
note_on channel=0 note=77 velocity=58 time=0
note_on channel=0 note=83 velocity=69 time=0
note_on channel=0 note=71 velocity=58 time=0
note_on channel=0 note=49 velocity=57 time=0
note_on channel=0 note=44 velocity=48 time=0
control_change channel=0 control=64 value=0 time=12
control_change channel=0 control=64 value=127 time=57
note_on channel=0 note=49 velocity=0 time=0
note_on channel=0 note=50 velocity=53 time=0
note_on channel=0 note=50 velocity=0 time=0
note_on channel=0 note=44 velocity=0 time=0
note_on channel=0 note=71 velocity=0 time=0
note_on channel=0 note=77 velocity=0 time=0
note_on channel=0 note=71 velocity=61 time=0
note_on channel=0 note=80 velocity=72 time=0
note_on channel=0 note=74 velocity=61 time=0
note_on channel=0 note=41 velocity=51 time=0
note_on channel=0 note=50 velocity=67 time=0
control_change channel=0 control=64 value=0 time=5
control_change channel=0 control=64 value=127 time=64
note_on channel=0 note=50 velocity=0 time=51
note_on channel=0 note=44 velocity=59 time=0
note_on channel=0 note=44 velocity=0 time=120
note_on channel=0 note=41 velocity=0 time=0
note_on channel=0 note=80 velocity=0 time=0
note_on channel=0 note=83 velocity=0 time=0
note_on channel=0 note=71 velocity=0 time=0
note_on channel=0 note=74 velocity=0 time=0
note_on channel=0 note=74 velocity=62 time=0
note_on channel=0 note=69 velocity=62 time=0
note_on channel=0 note=81 velocity=74 time=0
note_on channel=0 note=42 velocity=53 time=0
note_on channel=0 note=47 velocity=69 time=0
control_change channel=0 control=64 value=0 time=7
control_change channel=0 control=64 value=127 time=62
note_on channel=0 note=47 velocity=0 time=0
note_on channel=0 note=45 velocity=58 time=0
note_on channel=0 note=45 velocity=0 time=0
note_on channel=0 note=81 velocity=0 time=0
note_on channel=0 note=74 velocity=0 time=0
note_on channel=0 note=69 velocity=0 time=0
note_on channel=0 note=74 velocity=80 time=0
note_on channel=0 note=86 velocity=91 time=0
note_on channel=0 note=44 velocity=69 time=0
control_change channel=0 control=64 value=0 time=3
control_change channel=0 control=64 value=127 time=77
note_on channel=0 note=44 velocity=0 time=40
note_on channel=0 note=42 velocity=0 time=0
note_on channel=0 note=41 velocity=45 time=0
note_on channel=0 note=45 velocity=58 time=0
note_on channel=0 note=45 velocity=0 time=120
note_on channel=0 note=41 velocity=0 time=0
note_on channel=0 note=74 velocity=0 time=0
note_on channel=0 note=74 velocity=82 time=0
note_on channel=0 note=79 velocity=82 time=0
note_on channel=0 note=40 velocity=57 time=0
note_on channel=0 note=45 velocity=68 time=0
control_change channel=0 control=64 value=0 time=0
control_change channel=0 control=64 value=127 time=80
note_on channel=0 note=45 velocity=0 time=40
note_on channel=0 note=40 velocity=0 time=0
note_on channel=0 note=32 velocity=61 time=0
note_on channel=0 note=32 velocity=0 time=120
note_on channel=0 note=79 velocity=0 time=0
note_on channel=0 note=74 velocity=0 time=0
note_on channel=0 note=86 velocity=0 time=0
note_on channel=0 note=76 velocity=73 time=0
note_on channel=0 note=73 velocity=73 time=0
note_on channel=0 note=85 velocity=87 time=0
note_on channel=0 note=79 velocity=73 time=0
note_on channel=0 note=34 velocity=72 time=0
control_change channel=0 control=64 value=0 time=5
control_change channel=0 control=64 value=127 time=75
note_on channel=0 note=34 velocity=0 time=0
note_on channel=0 note=33 velocity=63 time=0
note_on channel=0 note=33 velocity=0 time=120
note_on channel=0 note=79 velocity=0 time=0
note_on channel=0 note=76 velocity=0 time=0
note_on channel=0 note=73 velocity=0 time=0
note_on channel=0 note=85 velocity=0 time=0
note_on channel=0 note=85 velocity=78 time=0
note_on channel=0 note=79 velocity=78 time=0
note_on channel=0 note=91 velocity=95 time=0
note_on channel=0 note=88 velocity=80 time=0
note_on channel=0 note=32 velocity=72 time=0
control_change channel=0 control=64 value=0 time=5
control_change channel=0 control=64 value=127 time=64
note_on channel=0 note=32 velocity=0 time=51
note_on channel=0 note=33 velocity=62 time=0
note_on channel=0 note=33 velocity=0 time=110
note_on channel=0 note=33 velocity=81 time=10
note_on channel=0 note=33 velocity=0 time=42
note_on channel=0 note=52 velocity=43 time=0
note_on channel=0 note=52 velocity=0 time=47
note_on channel=0 note=49 velocity=47 time=0
control_change channel=0 control=64 value=0 time=3
control_change channel=0 control=64 value=127 time=1
note_on channel=0 note=49 velocity=0 time=51
note_on channel=0 note=91 velocity=0 time=0
note_on channel=0 note=85 velocity=0 time=0
note_on channel=0 note=79 velocity=0 time=0
note_on channel=0 note=88 velocity=0 time=0
note_on channel=0 note=67 velocity=50 time=0
note_on channel=0 note=55 velocity=43 time=0
note_on channel=0 note=55 velocity=0 time=120
note_on channel=0 note=67 velocity=0 time=0
note_on channel=0 note=64 velocity=54 time=0
note_on channel=0 note=52 velocity=48 time=0
control_change channel=0 control=64 value=0 time=11
control_change channel=0 control=64 value=127 time=53
note_on channel=0 note=52 velocity=0 time=28
note_on channel=0 note=64 velocity=0 time=0
note_on channel=0 note=70 velocity=45 time=0
note_on channel=0 note=58 velocity=43 time=0
note_on channel=0 note=58 velocity=0 time=120
note_on channel=0 note=70 velocity=0 time=0
note_on channel=0 note=68 velocity=52 time=0
note_on channel=0 note=56 velocity=47 time=0
control_change channel=0 control=64 value=0 time=5
control_change channel=0 control=64 value=127 time=46
note_on channel=0 note=56 velocity=0 time=63
note_on channel=0 note=68 velocity=0 time=0
note_on channel=0 note=69 velocity=45 time=0
note_on channel=0 note=57 velocity=43 time=0
note_on channel=0 note=57 velocity=0 time=18
note_on channel=0 note=69 velocity=0 time=0
note_on channel=0 note=64 velocity=50 time=0
note_on channel=0 note=52 velocity=46 time=0
control_change channel=0 control=64 value=0 time=5
control_change channel=0 control=64 value=127 time=13
note_on channel=0 note=52 velocity=0 time=23
note_on channel=0 note=64 velocity=0 time=0
note_on channel=0 note=71 velocity=45 time=0
note_on channel=0 note=59 velocity=39 time=0
note_on channel=0 note=59 velocity=0 time=28
note_on channel=0 note=71 velocity=0 time=0
note_on channel=0 note=69 velocity=49 time=0
note_on channel=0 note=57 velocity=45 time=0
control_change channel=0 control=64 value=0 time=5
control_change channel=0 control=64 value=127 time=1
note_on channel=0 note=57 velocity=0 time=51
note_on channel=0 note=69 velocity=0 time=0
note_on channel=0 note=67 velocity=45 time=0
note_on channel=0 note=55 velocity=40 time=0
note_on channel=0 note=55 velocity=0 time=0
note_on channel=0 note=67 velocity=0 time=0
note_on channel=0 note=66 velocity=49 time=0
note_on channel=0 note=50 velocity=32 time=0
note_on channel=0 note=54 velocity=38 time=0
control_change channel=0 control=64 value=0 time=0
control_change channel=0 control=64 value=127 time=74
note_on channel=0 note=54 velocity=0 time=46
note_on channel=0 note=59 velocity=33 time=0
note_on channel=0 note=59 velocity=0 time=120
note_on channel=0 note=66 velocity=0 time=0
note_on channel=0 note=56 velocity=38 time=0
control_change channel=0 control=64 value=0 time=8
control_change channel=0 control=64 value=127 time=38
note_on channel=0 note=56 velocity=0 time=74
note_on channel=0 note=57 velocity=34 time=0
note_on channel=0 note=57 velocity=0 time=120
note_on channel=0 note=38 velocity=58 time=0
note_on channel=0 note=54 velocity=38 time=0
control_change channel=0 control=64 value=0 time=4
control_change channel=0 control=64 value=127 time=56
note_on channel=0 note=54 velocity=0 time=60
note_on channel=0 note=59 velocity=33 time=0
note_on channel=0 note=59 velocity=0 time=120
note_on channel=0 note=56 velocity=38 time=0
control_change channel=0 control=64 value=0 time=3
control_change channel=0 control=64 value=127 time=54
note_on channel=0 note=56 velocity=0 time=63
note_on channel=0 note=57 velocity=33 time=0
note_on channel=0 note=57 velocity=0 time=120
note_on channel=0 note=54 velocity=32 time=0
control_change channel=0 control=64 value=0 time=10
control_change channel=0 control=64 value=127 time=50
note_on channel=0 note=54 velocity=0 time=60
note_on channel=0 note=59 velocity=28 time=0
note_on channel=0 note=59 velocity=0 time=0
note_on channel=0 note=38 velocity=0 time=0
note_on channel=0 note=50 velocity=0 time=0
note_on channel=0 note=38 velocity=52 time=0
note_on channel=0 note=50 velocity=27 time=0
note_on channel=0 note=54 velocity=32 time=0
control_change channel=0 control=64 value=0 time=9
control_change channel=0 control=64 value=127 time=65
note_on channel=0 note=54 velocity=0 time=0
note_on channel=0 note=38 velocity=0 time=0
note_on channel=0 note=33 velocity=46 time=0
note_on channel=0 note=57 velocity=28 time=0
note_on channel=0 note=57 velocity=0 time=0
note_on channel=0 note=33 velocity=0 time=0
note_on channel=0 note=50 velocity=0 time=0
note_on channel=0 note=33 velocity=52 time=0
note_on channel=0 note=49 velocity=32 time=0
note_on channel=0 note=52 velocity=38 time=0
control_change channel=0 control=64 value=0 time=0
control_change channel=0 control=64 value=127 time=74
note_on channel=0 note=52 velocity=0 time=46
note_on channel=0 note=57 velocity=33 time=0
note_on channel=0 note=57 velocity=0 time=0
note_on channel=0 note=49 velocity=0 time=0
note_on channel=0 note=50 velocity=32 time=0
note_on channel=0 note=54 velocity=38 time=0
control_change channel=0 control=64 value=0 time=8
control_change channel=0 control=64 value=127 time=38
note_on channel=0 note=54 velocity=0 time=74
note_on channel=0 note=57 velocity=34 time=0
note_on channel=0 note=57 velocity=0 time=0
note_on channel=0 note=50 velocity=0 time=0
note_on channel=0 note=52 velocity=34 time=0
note_on channel=0 note=55 velocity=41 time=0
control_change channel=0 control=64 value=0 time=4
control_change channel=0 control=64 value=127 time=56
note_on channel=0 note=55 velocity=0 time=0
note_on channel=0 note=57 velocity=36 time=0
note_on channel=0 note=52 velocity=0 time=118
note_on channel=0 note=33 velocity=0 time=0
note_on channel=0 note=57 velocity=0 time=0
note_on channel=0 note=33 velocity=52 time=0
note_on channel=0 note=52 velocity=34 time=0
note_on channel=0 note=55 velocity=40 time=0
control_change channel=0 control=64 value=0 time=3
control_change channel=0 control=64 value=127 time=54
note_on channel=0 note=55 velocity=0 time=0
note_on channel=0 note=57 velocity=34 time=0
note_on channel=0 note=57 velocity=0 time=0
note_on channel=0 note=52 velocity=0 time=0
note_on channel=0 note=50 velocity=32 time=0
note_on channel=0 note=54 velocity=38 time=0
control_change channel=0 control=64 value=0 time=10
control_change channel=0 control=64 value=127 time=50
note_on channel=0 note=54 velocity=0 time=60
note_on channel=0 note=57 velocity=32 time=0
note_on channel=0 note=33 velocity=0 time=118
note_on channel=0 note=57 velocity=0 time=2
note_on channel=0 note=50 velocity=0 time=0
note_on channel=0 note=33 velocity=52 time=0
note_on channel=0 note=49 velocity=31 time=0
note_on channel=0 note=52 velocity=37 time=0
control_change channel=0 control=64 value=0 time=9
control_change channel=0 control=64 value=127 time=65
note_on channel=0 note=52 velocity=0 time=0
note_on channel=0 note=57 velocity=34 time=0
note_on channel=0 note=57 velocity=0 time=0
note_on channel=0 note=49 velocity=0 time=0
note_on channel=0 note=33 velocity=0 time=0
note_on channel=0 note=30 velocity=52 time=0
note_on channel=0 note=50 velocity=32 time=0
note_on channel=0 note=54 velocity=38 time=0
control_change channel=0 control=64 value=0 time=0
control_change channel=0 control=64 value=127 time=74
note_on channel=0 note=54 velocity=0 time=46
note_on channel=0 note=59 velocity=33 time=0
note_on channel=0 note=59 velocity=0 time=0
note_on channel=0 note=30 velocity=0 time=0
note_on channel=0 note=56 velocity=38 time=0
control_change channel=0 control=64 value=0 time=8
control_change channel=0 control=64 value=127 time=38
note_on channel=0 note=56 velocity=0 time=74
note_on channel=0 note=57 velocity=34 time=0
note_on channel=0 note=57 velocity=0 time=0
note_on channel=0 note=86 velocity=61 time=0
note_on channel=0 note=74 velocity=53 time=0
note_on channel=0 note=54 velocity=38 time=0
control_change channel=0 control=64 value=0 time=4
control_change channel=0 control=64 value=127 time=56
note_on channel=0 note=54 velocity=0 time=60
note_on channel=0 note=59 velocity=33 time=0
note_on channel=0 note=59 velocity=0 time=0
note_on channel=0 note=56 velocity=38 time=0
control_change channel=0 control=64 value=0 time=3
control_change channel=0 control=64 value=127 time=54
note_on channel=0 note=56 velocity=0 time=63
note_on channel=0 note=57 velocity=33 time=0
note_on channel=0 note=57 velocity=0 time=0
note_on channel=0 note=54 velocity=38 time=0
control_change channel=0 control=64 value=0 time=10
control_change channel=0 control=64 value=127 time=50
note_on channel=0 note=54 velocity=0 time=60
note_on channel=0 note=59 velocity=32 time=0
note_on channel=0 note=59 velocity=0 time=0
note_on channel=0 note=74 velocity=0 time=0
note_on channel=0 note=86 velocity=0 time=0
note_on channel=0 note=50 velocity=0 time=0
note_on channel=0 note=86 velocity=55 time=0
note_on channel=0 note=74 velocity=48 time=0
note_on channel=0 note=50 velocity=29 time=0
note_on channel=0 note=54 velocity=34 time=0
control_change channel=0 control=64 value=0 time=9
control_change channel=0 control=64 value=127 time=65
note_on channel=0 note=54 velocity=0 time=0
note_on channel=0 note=86 velocity=0 time=0
note_on channel=0 note=74 velocity=0 time=0
note_on channel=0 note=81 velocity=48 time=0
note_on channel=0 note=69 velocity=42 time=0
note_on channel=0 note=57 velocity=29 time=0
note_on channel=0 note=69 velocity=0 time=119
note_on channel=0 note=81 velocity=0 time=0
note_on channel=0 note=50 velocity=0 time=0
note_on channel=0 note=57 velocity=0 time=0
note_on channel=0 note=81 velocity=55 time=0
note_on channel=0 note=69 velocity=48 time=0
note_on channel=0 note=49 velocity=27 time=0
note_on channel=0 note=52 velocity=32 time=0
control_change channel=0 control=64 value=0 time=0
control_change channel=0 control=64 value=127 time=74
note_on channel=0 note=52 velocity=0 time=46
note_on channel=0 note=57 velocity=28 time=0
note_on channel=0 note=57 velocity=0 time=0
note_on channel=0 note=49 velocity=0 time=0
note_on channel=0 note=50 velocity=28 time=0
note_on channel=0 note=54 velocity=34 time=0
control_change channel=0 control=64 value=0 time=8
control_change channel=0 control=64 value=127 time=38
note_on channel=0 note=54 velocity=0 time=74
note_on channel=0 note=57 velocity=31 time=0
note_on channel=0 note=57 velocity=0 time=0
note_on channel=0 note=50 velocity=0 time=0
note_on channel=0 note=52 velocity=32 time=0
note_on channel=0 note=55 velocity=39 time=0
control_change channel=0 control=64 value=0 time=4
control_change channel=0 control=64 value=127 time=56
note_on channel=0 note=55 velocity=0 time=0
note_on channel=0 note=57 velocity=35 time=0
note_on channel=0 note=81 velocity=0 time=118
note_on channel=0 note=52 velocity=0 time=0
note_on channel=0 note=69 velocity=0 time=0
note_on channel=0 note=57 velocity=0 time=0
note_on channel=0 note=81 velocity=55 time=0
note_on channel=0 note=69 velocity=48 time=0
note_on channel=0 note=52 velocity=34 time=0
note_on channel=0 note=55 velocity=40 time=0
control_change channel=0 control=64 value=0 time=3
control_change channel=0 control=64 value=127 time=54
note_on channel=0 note=55 velocity=0 time=0
note_on channel=0 note=57 velocity=34 time=0
note_on channel=0 note=57 velocity=0 time=0
note_on channel=0 note=52 velocity=0 time=0
note_on channel=0 note=50 velocity=32 time=0
note_on channel=0 note=54 velocity=38 time=0
control_change channel=0 control=64 value=0 time=10
control_change channel=0 control=64 value=127 time=50
note_on channel=0 note=54 velocity=0 time=60
note_on channel=0 note=57 velocity=32 time=0
note_on channel=0 note=81 velocity=0 time=118
note_on channel=0 note=69 velocity=0 time=0
note_on channel=0 note=50 velocity=0 time=2
note_on channel=0 note=57 velocity=0 time=0
note_on channel=0 note=81 velocity=55 time=0
note_on channel=0 note=69 velocity=48 time=0
note_on channel=0 note=49 velocity=31 time=0
note_on channel=0 note=52 velocity=37 time=0
control_change channel=0 control=64 value=0 time=9
control_change channel=0 control=64 value=127 time=65
note_on channel=0 note=52 velocity=0 time=0
note_on channel=0 note=57 velocity=34 time=0
note_on channel=0 note=57 velocity=0 time=0
note_on channel=0 note=49 velocity=0 time=0
note_on channel=0 note=69 velocity=0 time=0
note_on channel=0 note=81 velocity=0 time=0
note_on channel=0 note=78 velocity=53 time=0
note_on channel=0 note=66 velocity=45 time=0
note_on channel=0 note=50 velocity=32 time=0
note_on channel=0 note=54 velocity=38 time=0
control_change channel=0 control=64 value=0 time=0
control_change channel=0 control=64 value=127 time=74
note_on channel=0 note=54 velocity=0 time=7
note_on channel=0 note=59 velocity=33 time=0
note_on channel=0 note=57 velocity=33 time=79
note_on channel=0 note=59 velocity=0 time=1
note_on channel=0 note=78 velocity=0 time=0
note_on channel=0 note=66 velocity=0 time=0
note_on channel=0 note=57 velocity=0 time=0
note_on channel=0 note=56 velocity=38 time=0
control_change channel=0 control=64 value=0 time=8
control_change channel=0 control=64 value=127 time=38
note_on channel=0 note=59 velocity=34 time=34
note_on channel=0 note=56 velocity=0 time=1
note_on channel=0 note=59 velocity=0 time=79
note_on channel=0 note=57 velocity=34 time=0
note_on channel=0 note=57 velocity=0 time=60
note_on channel=0 note=38 velocity=58 time=20
note_on channel=0 note=54 velocity=38 time=0
control_change channel=0 control=64 value=0 time=4
control_change channel=0 control=64 value=127 time=56
note_on channel=0 note=54 velocity=0 time=21
note_on channel=0 note=59 velocity=33 time=0
note_on channel=0 note=57 velocity=33 time=40
note_on channel=0 note=59 velocity=0 time=1
note_on channel=0 note=57 velocity=0 time=59
note_on channel=0 note=56 velocity=38 time=0
control_change channel=0 control=64 value=0 time=3
control_change channel=0 control=64 value=127 time=54
note_on channel=0 note=59 velocity=33 time=23
note_on channel=0 note=56 velocity=0 time=1
note_on channel=0 note=59 velocity=0 time=79
note_on channel=0 note=57 velocity=33 time=0
note_on channel=0 note=57 velocity=0 time=60
note_on channel=0 note=38 velocity=0 time=18
note_on channel=0 note=38 velocity=56 time=2
note_on channel=0 note=54 velocity=38 time=0
control_change channel=0 control=64 value=0 time=10
control_change channel=0 control=64 value=127 time=50
note_on channel=0 note=54 velocity=0 time=21
note_on channel=0 note=59 velocity=34 time=0
note_on channel=0 note=57 velocity=34 time=79
note_on channel=0 note=59 velocity=0 time=1
note_on channel=0 note=57 velocity=0 time=59
note_on channel=0 note=38 velocity=0 time=18
note_on channel=0 note=50 velocity=0 time=0
note_on channel=0 note=38 velocity=56 time=0
note_on channel=0 note=50 velocity=32 time=0
note_on channel=0 note=54 velocity=38 time=0
control_change channel=0 control=64 value=0 time=9
control_change channel=0 control=64 value=127 time=65
note_on channel=0 note=38 velocity=0 time=6
note_on channel=0 note=37 velocity=50 time=0
note_on channel=0 note=58 velocity=34 time=0
note_on channel=0 note=54 velocity=0 time=1
note_on channel=0 note=58 velocity=0 time=40
note_on channel=0 note=37 velocity=0 time=0
note_on channel=0 note=38 velocity=50 time=0
note_on channel=0 note=57 velocity=34 time=0
note_on channel=0 note=57 velocity=0 time=60
note_on channel=0 note=38 velocity=0 time=0
note_on channel=0 note=50 velocity=0 time=0
note_on channel=0 note=33 velocity=52 time=0
note_on channel=0 note=49 velocity=32 time=0
note_on channel=0 note=52 velocity=38 time=0
control_change channel=0 control=64 value=0 time=0
control_change channel=0 control=64 value=127 time=74
note_on channel=0 note=59 velocity=33 time=6
note_on channel=0 note=52 velocity=0 time=1
note_on channel=0 note=59 velocity=0 time=79
note_on channel=0 note=57 velocity=33 time=0
note_on channel=0 note=57 velocity=0 time=60
note_on channel=0 note=49 velocity=0 time=0
note_on channel=0 note=50 velocity=32 time=0
note_on channel=0 note=54 velocity=38 time=0
control_change channel=0 control=64 value=0 time=8
control_change channel=0 control=64 value=127 time=38
note_on channel=0 note=59 velocity=34 time=34
note_on channel=0 note=54 velocity=0 time=1
note_on channel=0 note=59 velocity=0 time=79
note_on channel=0 note=57 velocity=34 time=0
note_on channel=0 note=57 velocity=0 time=60
note_on channel=0 note=33 velocity=0 time=18
note_on channel=0 note=50 velocity=0 time=0
note_on channel=0 note=33 velocity=52 time=0
note_on channel=0 note=52 velocity=34 time=0
note_on channel=0 note=55 velocity=41 time=0
control_change channel=0 control=64 value=0 time=4
control_change channel=0 control=64 value=127 time=56
note_on channel=0 note=59 velocity=36 time=20
note_on channel=0 note=55 velocity=0 time=1
note_on channel=0 note=59 velocity=0 time=40
note_on channel=0 note=57 velocity=36 time=0
note_on channel=0 note=57 velocity=0 time=60
note_on channel=0 note=52 velocity=0 time=18
note_on channel=0 note=52 velocity=34 time=0
note_on channel=0 note=55 velocity=40 time=0
control_change channel=0 control=64 value=0 time=3
control_change channel=0 control=64 value=127 time=54
note_on channel=0 note=59 velocity=34 time=23
note_on channel=0 note=55 velocity=0 time=1
note_on channel=0 note=59 velocity=0 time=40
note_on channel=0 note=57 velocity=34 time=0
note_on channel=0 note=57 velocity=0 time=60
note_on channel=0 note=33 velocity=0 time=18
note_on channel=0 note=52 velocity=0 time=0
note_on channel=0 note=33 velocity=52 time=0
note_on channel=0 note=50 velocity=32 time=0
note_on channel=0 note=54 velocity=38 time=0
control_change channel=0 control=64 value=0 time=10
control_change channel=0 control=64 value=127 time=50
note_on channel=0 note=59 velocity=32 time=20
note_on channel=0 note=54 velocity=0 time=1
note_on channel=0 note=59 velocity=0 time=79
note_on channel=0 note=57 velocity=32 time=0
note_on channel=0 note=57 velocity=0 time=60
note_on channel=0 note=50 velocity=0 time=20
note_on channel=0 note=49 velocity=31 time=0
note_on channel=0 note=52 velocity=37 time=0
control_change channel=0 control=64 value=0 time=9
control_change channel=0 control=64 value=127 time=48
note_on channel=0 note=59 velocity=34 time=23
note_on channel=0 note=52 velocity=0 time=1
note_on channel=0 note=59 velocity=0 time=40
note_on channel=0 note=57 velocity=34 time=0
note_on channel=0 note=57 velocity=0 time=60
note_on channel=0 note=49 velocity=0 time=0
note_on channel=0 note=33 velocity=0 time=0
note_on channel=0 note=30 velocity=52 time=0
note_on channel=0 note=50 velocity=32 time=0
note_on channel=0 note=54 velocity=38 time=0
control_change channel=0 control=64 value=0 time=0
control_change channel=0 control=64 value=127 time=49
note_on channel=0 note=54 velocity=0 time=32
note_on channel=0 note=59 velocity=39 time=0
note_on channel=0 note=57 velocity=39 time=79
note_on channel=0 note=59 velocity=0 time=1
note_on channel=0 note=57 velocity=0 time=0
note_on channel=0 note=30 velocity=0 time=0
note_on channel=0 note=56 velocity=46 time=0
control_change channel=0 control=64 value=0 time=8
control_change channel=0 control=64 value=127 time=38
note_on channel=0 note=59 velocity=41 time=34
note_on channel=0 note=56 velocity=0 time=1
note_on channel=0 note=59 velocity=0 time=40
note_on channel=0 note=57 velocity=42 time=0
note_on channel=0 note=57 velocity=0 time=60
note_on channel=0 note=86 velocity=70 time=0
note_on channel=0 note=74 velocity=61 time=0
note_on channel=0 note=54 velocity=47 time=0
control_change channel=0 control=64 value=0 time=4
control_change channel=0 control=64 value=127 time=56
note_on channel=0 note=54 velocity=0 time=21
note_on channel=0 note=59 velocity=41 time=0
note_on channel=0 note=57 velocity=42 time=79
note_on channel=0 note=59 velocity=0 time=1
note_on channel=0 note=57 velocity=0 time=59
note_on channel=0 note=56 velocity=49 time=0
control_change channel=0 control=64 value=0 time=3
control_change channel=0 control=64 value=127 time=54
note_on channel=0 note=59 velocity=42 time=23
note_on channel=0 note=56 velocity=0 time=1
note_on channel=0 note=59 velocity=0 time=79
note_on channel=0 note=57 velocity=43 time=0
note_on channel=0 note=57 velocity=0 time=60
note_on channel=0 note=74 velocity=0 time=18
note_on channel=0 note=86 velocity=0 time=0
note_on channel=0 note=74 velocity=61 time=2
note_on channel=0 note=86 velocity=70 time=0
note_on channel=0 note=54 velocity=50 time=0
control_change channel=0 control=64 value=0 time=10
control_change channel=0 control=64 value=127 time=50
note_on channel=0 note=54 velocity=0 time=21
note_on channel=0 note=59 velocity=45 time=0
note_on channel=0 note=57 velocity=45 time=79
note_on channel=0 note=59 velocity=0 time=1
note_on channel=0 note=57 velocity=0 time=59
note_on channel=0 note=86 velocity=0 time=18
note_on channel=0 note=74 velocity=0 time=0
note_on channel=0 note=50 velocity=0 time=0
note_on channel=0 note=86 velocity=68 time=0
note_on channel=0 note=74 velocity=59 time=0
note_on channel=0 note=50 velocity=43 time=0
note_on channel=0 note=54 velocity=51 time=0
control_change channel=0 control=64 value=0 time=9
control_change channel=0 control=64 value=127 time=65
note_on channel=0 note=73 velocity=53 time=6
note_on channel=0 note=85 velocity=60 time=0
note_on channel=0 note=58 velocity=50 time=0
note_on channel=0 note=54 velocity=0 time=1
note_on channel=0 note=74 velocity=0 time=0
note_on channel=0 note=86 velocity=0 time=0
note_on channel=0 note=73 velocity=0 time=40
note_on channel=0 note=85 velocity=0 time=0
note_on channel=0 note=58 velocity=0 time=0
note_on channel=0 note=74 velocity=53 time=0
note_on channel=0 note=86 velocity=60 time=0
note_on channel=0 note=57 velocity=50 time=0
note_on channel=0 note=57 velocity=0 time=60
note_on channel=0 note=86 velocity=0 time=0
note_on channel=0 note=74 velocity=0 time=0
note_on channel=0 note=50 velocity=0 time=0
note_on channel=0 note=81 velocity=67 time=0
note_on channel=0 note=69 velocity=59 time=0
note_on channel=0 note=49 velocity=44 time=0
note_on channel=0 note=52 velocity=53 time=0
control_change channel=0 control=64 value=0 time=0
control_change channel=0 control=64 value=127 time=46
note_on channel=0 note=59 velocity=46 time=34
note_on channel=0 note=52 velocity=0 time=1
note_on channel=0 note=59 velocity=0 time=79
note_on channel=0 note=57 velocity=46 time=0
note_on channel=0 note=57 velocity=0 time=60
note_on channel=0 note=49 velocity=0 time=0
note_on channel=0 note=50 velocity=45 time=0
note_on channel=0 note=54 velocity=54 time=0
control_change channel=0 control=64 value=0 time=8
control_change channel=0 control=64 value=127 time=38
note_on channel=0 note=59 velocity=48 time=34
note_on channel=0 note=54 velocity=0 time=1
note_on channel=0 note=59 velocity=0 time=79
note_on channel=0 note=57 velocity=49 time=0
note_on channel=0 note=57 velocity=0 time=60
note_on channel=0 note=81 velocity=0 time=18
note_on channel=0 note=69 velocity=0 time=1
note_on channel=0 note=50 velocity=0 time=0
note_on channel=0 note=69 velocity=62 time=0
note_on channel=0 note=81 velocity=70 time=0
note_on channel=0 note=52 velocity=50 time=0
note_on channel=0 note=55 velocity=60 time=0
control_change channel=0 control=64 value=0 time=4
control_change channel=0 control=64 value=127 time=56
note_on channel=0 note=59 velocity=53 time=20
note_on channel=0 note=55 velocity=0 time=1
note_on channel=0 note=59 velocity=0 time=40
note_on channel=0 note=57 velocity=54 time=0
note_on channel=0 note=57 velocity=0 time=60
note_on channel=0 note=52 velocity=0 time=0
note_on channel=0 note=52 velocity=50 time=0
note_on channel=0 note=55 velocity=60 time=0
control_change channel=0 control=64 value=0 time=3
control_change channel=0 control=64 value=127 time=54
note_on channel=0 note=59 velocity=51 time=23
note_on channel=0 note=55 velocity=0 time=1
note_on channel=0 note=59 velocity=0 time=40
note_on channel=0 note=57 velocity=51 time=0
note_on channel=0 note=57 velocity=0 time=60
note_on channel=0 note=81 velocity=0 time=18
note_on channel=0 note=69 velocity=0 time=0
note_on channel=0 note=52 velocity=0 time=0
note_on channel=0 note=69 velocity=61 time=0
note_on channel=0 note=81 velocity=70 time=0
note_on channel=0 note=50 velocity=49 time=0
note_on channel=0 note=54 velocity=58 time=0
control_change channel=0 control=64 value=0 time=10
control_change channel=0 control=64 value=127 time=50
note_on channel=0 note=59 velocity=49 time=20
note_on channel=0 note=54 velocity=0 time=1
note_on channel=0 note=59 velocity=0 time=79
note_on channel=0 note=57 velocity=50 time=0
note_on channel=0 note=57 velocity=0 time=60
note_on channel=0 note=50 velocity=0 time=0
note_on channel=0 note=49 velocity=49 time=0
note_on channel=0 note=52 velocity=58 time=0
control_change channel=0 control=64 value=0 time=9
control_change channel=0 control=64 value=127 time=65
note_on channel=0 note=57 velocity=53 time=6
note_on channel=0 note=52 velocity=0 time=1
note_on channel=0 note=81 velocity=0 time=40
note_on channel=0 note=69 velocity=0 time=0
note_on channel=0 note=57 velocity=0 time=0
note_on channel=0 note=67 velocity=45 time=0
note_on channel=0 note=79 velocity=50 time=0
note_on channel=0 note=55 velocity=40 time=0
note_on channel=0 note=55 velocity=0 time=60
note_on channel=0 note=49 velocity=0 time=0
note_on channel=0 note=67 velocity=0 time=0
note_on channel=0 note=79 velocity=0 time=0
note_on channel=0 note=66 velocity=50 time=0
note_on channel=0 note=78 velocity=50 time=0
note_on channel=0 note=54 velocity=40 time=0
note_on channel=0 note=50 velocity=50 time=0
control_change channel=0 control=64 value=0 time=11
control_change channel=0 control=64 value=127 time=41
note_on channel=0 note=54 velocity=0 time=28
note_on channel=0 note=57 velocity=36 time=0
note_on channel=0 note=57 velocity=0 time=80
note_on channel=0 note=55 velocity=36 time=0
note_on channel=0 note=55 velocity=0 time=0
note_on channel=0 note=66 velocity=0 time=0
note_on channel=0 note=78 velocity=0 time=0
note_on channel=0 note=66 velocity=40 time=0
note_on channel=0 note=78 velocity=50 time=0
note_on channel=0 note=54 velocity=40 time=0
control_change channel=0 control=64 value=0 time=7
control_change channel=0 control=64 value=127 time=45
note_on channel=0 note=54 velocity=0 time=28
note_on channel=0 note=66 velocity=0 time=0
note_on channel=0 note=76 velocity=40 time=0
note_on channel=0 note=55 velocity=38 time=0
note_on channel=0 note=55 velocity=0 time=80
note_on channel=0 note=76 velocity=0 time=0
note_on channel=0 note=74 velocity=40 time=0
note_on channel=0 note=57 velocity=38 time=0
note_on channel=0 note=57 velocity=0 time=80
note_on channel=0 note=74 velocity=0 time=0
note_on channel=0 note=73 velocity=50 time=0
note_on channel=0 note=59 velocity=40 time=0
control_change channel=0 control=64 value=0 time=4
control_change channel=0 control=64 value=127 time=39
note_on channel=0 note=59 velocity=0 time=37
note_on channel=0 note=73 velocity=0 time=0
note_on channel=0 note=71 velocity=41 time=0
note_on channel=0 note=61 velocity=37 time=0
note_on channel=0 note=61 velocity=0 time=0
note_on channel=0 note=71 velocity=0 time=0
note_on channel=0 note=69 velocity=43 time=0
note_on channel=0 note=62 velocity=37 time=0
note_on channel=0 note=62 velocity=0 time=0
note_on channel=0 note=50 velocity=0 time=0
note_on channel=0 note=78 velocity=0 time=0
note_on channel=0 note=69 velocity=0 time=0
note_on channel=0 note=67 velocity=50 time=0
note_on channel=0 note=79 velocity=50 time=0
note_on channel=0 note=64 velocity=40 time=0
note_on channel=0 note=52 velocity=50 time=0
control_change channel=0 control=64 value=0 time=7
control_change channel=0 control=64 value=127 time=42
note_on channel=0 note=67 velocity=0 time=31
note_on channel=0 note=70 velocity=42 time=0
note_on channel=0 note=70 velocity=0 time=80
note_on channel=0 note=69 velocity=42 time=0
note_on channel=0 note=69 velocity=0 time=0
note_on channel=0 note=64 velocity=0 time=0
note_on channel=0 note=67 velocity=50 time=0
note_on channel=0 note=64 velocity=40 time=0
control_change channel=0 control=64 value=0 time=6
control_change channel=0 control=64 value=127 time=40
note_on channel=0 note=64 velocity=0 time=0
note_on channel=0 note=67 velocity=0 time=0
note_on channel=0 note=69 velocity=40 time=0
note_on channel=0 note=62 velocity=36 time=0
note_on channel=0 note=62 velocity=0 time=80
note_on channel=0 note=69 velocity=0 time=0
note_on channel=0 note=71 velocity=40 time=0
note_on channel=0 note=61 velocity=36 time=0
note_on channel=0 note=61 velocity=0 time=80
note_on channel=0 note=71 velocity=0 time=0
note_on channel=0 note=73 velocity=50 time=0
note_on channel=0 note=59 velocity=40 time=0
control_change channel=0 control=64 value=0 time=7
control_change channel=0 control=64 value=127 time=48
note_on channel=0 note=59 velocity=0 time=25
note_on channel=0 note=73 velocity=0 time=0
note_on channel=0 note=74 velocity=41 time=0
note_on channel=0 note=57 velocity=35 time=0
note_on channel=0 note=57 velocity=0 time=0
note_on channel=0 note=74 velocity=0 time=0
note_on channel=0 note=76 velocity=41 time=0
note_on channel=0 note=55 velocity=35 time=0
note_on channel=0 note=55 velocity=0 time=0
note_on channel=0 note=52 velocity=0 time=0
note_on channel=0 note=79 velocity=0 time=0
note_on channel=0 note=76 velocity=0 time=0
note_on channel=0 note=69 velocity=50 time=0
note_on channel=0 note=81 velocity=50 time=0
note_on channel=0 note=61 velocity=40 time=0
note_on channel=0 note=54 velocity=50 time=0
control_change channel=0 control=64 value=0 time=11
control_change channel=0 control=64 value=127 time=41
note_on channel=0 note=61 velocity=0 time=28
note_on channel=0 note=62 velocity=36 time=0
note_on channel=0 note=62 velocity=0 time=80
note_on channel=0 note=61 velocity=37 time=0
note_on channel=0 note=61 velocity=0 time=0
note_on channel=0 note=69 velocity=0 time=0
note_on channel=0 note=81 velocity=0 time=0
note_on channel=0 note=69 velocity=42 time=0
note_on channel=0 note=81 velocity=52 time=0
note_on channel=0 note=57 velocity=42 time=0
control_change channel=0 control=64 value=0 time=7
control_change channel=0 control=64 value=127 time=45
note_on channel=0 note=57 velocity=0 time=28
note_on channel=0 note=69 velocity=0 time=0
note_on channel=0 note=79 velocity=42 time=0
note_on channel=0 note=59 velocity=40 time=0
note_on channel=0 note=59 velocity=0 time=80
note_on channel=0 note=79 velocity=0 time=0
note_on channel=0 note=78 velocity=43 time=0
note_on channel=0 note=60 velocity=41 time=0
note_on channel=0 note=60 velocity=0 time=80
note_on channel=0 note=78 velocity=0 time=0
note_on channel=0 note=76 velocity=55 time=0
note_on channel=0 note=62 velocity=44 time=0
control_change channel=0 control=64 value=0 time=4
control_change channel=0 control=64 value=127 time=39
note_on channel=0 note=62 velocity=0 time=37
note_on channel=0 note=76 velocity=0 time=0
note_on channel=0 note=74 velocity=45 time=0
note_on channel=0 note=64 velocity=41 time=0
note_on channel=0 note=64 velocity=0 time=0
note_on channel=0 note=74 velocity=0 time=0
note_on channel=0 note=72 velocity=48 time=0
note_on channel=0 note=66 velocity=41 time=0
note_on channel=0 note=66 velocity=0 time=0
note_on channel=0 note=54 velocity=0 time=0
note_on channel=0 note=81 velocity=0 time=0
note_on channel=0 note=72 velocity=0 time=0
note_on channel=0 note=71 velocity=57 time=0
note_on channel=0 note=83 velocity=57 time=0
note_on channel=0 note=67 velocity=46 time=0
note_on channel=0 note=55 velocity=57 time=0
control_change channel=0 control=64 value=0 time=7
control_change channel=0 control=64 value=127 time=42
note_on channel=0 note=71 velocity=0 time=31
note_on channel=0 note=74 velocity=48 time=0
note_on channel=0 note=74 velocity=0 time=80
note_on channel=0 note=72 velocity=49 time=0
note_on channel=0 note=72 velocity=0 time=0
note_on channel=0 note=71 velocity=60 time=0
control_change channel=0 control=64 value=0 time=6
control_change channel=0 control=64 value=127 time=40
note_on channel=0 note=71 velocity=0 time=0
note_on channel=0 note=67 velocity=0 time=0
note_on channel=0 note=72 velocity=48 time=0
note_on channel=0 note=66 velocity=43 time=0
note_on channel=0 note=66 velocity=0 time=80
note_on channel=0 note=72 velocity=0 time=0
note_on channel=0 note=74 velocity=49 time=0
note_on channel=0 note=64 velocity=44 time=0
note_on channel=0 note=64 velocity=0 time=80
note_on channel=0 note=74 velocity=0 time=0
note_on channel=0 note=76 velocity=62 time=0
note_on channel=0 note=62 velocity=50 time=0
control_change channel=0 control=64 value=0 time=7
control_change channel=0 control=64 value=127 time=48
note_on channel=0 note=62 velocity=0 time=25
note_on channel=0 note=76 velocity=0 time=0
note_on channel=0 note=78 velocity=51 time=0
note_on channel=0 note=60 velocity=44 time=0
note_on channel=0 note=60 velocity=0 time=0
note_on channel=0 note=78 velocity=0 time=0
note_on channel=0 note=79 velocity=52 time=0
note_on channel=0 note=59 velocity=44 time=0
note_on channel=0 note=59 velocity=0 time=0
note_on channel=0 note=55 velocity=0 time=0
note_on channel=0 note=83 velocity=0 time=0
note_on channel=0 note=85 velocity=65 time=0
note_on channel=0 note=64 velocity=52 time=0
note_on channel=0 note=57 velocity=65 time=0
control_change channel=0 control=64 value=0 time=11
control_change channel=0 control=64 value=127 time=41
note_on channel=0 note=64 velocity=0 time=28
note_on channel=0 note=79 velocity=0 time=0
note_on channel=0 note=79 velocity=53 time=0
note_on channel=0 note=61 velocity=47 time=0
note_on channel=0 note=61 velocity=0 time=80
note_on channel=0 note=79 velocity=0 time=0
note_on channel=0 note=78 velocity=54 time=0
note_on channel=0 note=62 velocity=47 time=0
note_on channel=0 note=62 velocity=0 time=0
note_on channel=0 note=78 velocity=0 time=0
note_on channel=0 note=85 velocity=0 time=0
note_on channel=0 note=76 velocity=54 time=0
note_on channel=0 note=64 velocity=54 time=0
control_change channel=0 control=64 value=0 time=7
control_change channel=0 control=64 value=127 time=45
note_on channel=0 note=64 velocity=0 time=28
note_on channel=0 note=76 velocity=0 time=0
note_on channel=0 note=74 velocity=54 time=0
note_on channel=0 note=66 velocity=51 time=0
note_on channel=0 note=66 velocity=0 time=80
note_on channel=0 note=74 velocity=0 time=0
note_on channel=0 note=73 velocity=55 time=0
note_on channel=0 note=67 velocity=52 time=0
note_on channel=0 note=67 velocity=0 time=80
note_on channel=0 note=73 velocity=0 time=0
note_on channel=0 note=57 velocity=0 time=0
note_on channel=0 note=86 velocity=70 time=0
note_on channel=0 note=74 velocity=70 time=0
note_on channel=0 note=59 velocity=70 time=0
note_on channel=0 note=66 velocity=56 time=0
control_change channel=0 control=64 value=0 time=4
control_change channel=0 control=64 value=127 time=39
note_on channel=0 note=66 velocity=0 time=37
note_on channel=0 note=74 velocity=0 time=0
note_on channel=0 note=76 velocity=57 time=0
note_on channel=0 note=64 velocity=52 time=0
note_on channel=0 note=64 velocity=0 time=0
note_on channel=0 note=76 velocity=0 time=0
note_on channel=0 note=78 velocity=61 time=0
note_on channel=0 note=62 velocity=52 time=0
note_on channel=0 note=62 velocity=0 time=0
note_on channel=0 note=86 velocity=0 time=0
note_on channel=0 note=59 velocity=0 time=0
note_on channel=0 note=78 velocity=0 time=0
note_on channel=0 note=76 velocity=72 time=0
note_on channel=0 note=88 velocity=77 time=0
note_on channel=0 note=70 velocity=58 time=0
note_on channel=0 note=61 velocity=72 time=0
control_change channel=0 control=64 value=0 time=7
control_change channel=0 control=64 value=127 time=42
note_on channel=0 note=70 velocity=0 time=31
note_on channel=0 note=76 velocity=0 time=0
note_on channel=0 note=82 velocity=61 time=0
note_on channel=0 note=64 velocity=52 time=0
note_on channel=0 note=64 velocity=0 time=80
note_on channel=0 note=82 velocity=0 time=0
note_on channel=0 note=81 velocity=62 time=0
note_on channel=0 note=66 velocity=53 time=0
note_on channel=0 note=66 velocity=0 time=0
note_on channel=0 note=81 velocity=0 time=0
note_on channel=0 note=79 velocity=75 time=0
note_on channel=0 note=67 velocity=60 time=0
control_change channel=0 control=64 value=0 time=6
control_change channel=0 control=64 value=127 time=40
note_on channel=0 note=67 velocity=0 time=0
note_on channel=0 note=79 velocity=0 time=0
note_on channel=0 note=78 velocity=60 time=0
note_on channel=0 note=69 velocity=57 time=0
note_on channel=0 note=69 velocity=0 time=80
note_on channel=0 note=78 velocity=0 time=0
note_on channel=0 note=76 velocity=61 time=0
note_on channel=0 note=70 velocity=58 time=0
note_on channel=0 note=70 velocity=0 time=80
note_on channel=0 note=61 velocity=0 time=0
note_on channel=0 note=88 velocity=0 time=0
note_on channel=0 note=76 velocity=0 time=0
note_on channel=0 note=78 velocity=77 time=0
note_on channel=0 note=90 velocity=83 time=0
note_on channel=0 note=63 velocity=77 time=0
note_on channel=0 note=69 velocity=62 time=0
control_change channel=0 control=64 value=0 time=7
control_change channel=0 control=64 value=127 time=48
note_on channel=0 note=69 velocity=0 time=25
note_on channel=0 note=78 velocity=0 time=0
note_on channel=0 note=79 velocity=63 time=0
note_on channel=0 note=67 velocity=57 time=0
note_on channel=0 note=67 velocity=0 time=0
note_on channel=0 note=79 velocity=0 time=0
note_on channel=0 note=81 velocity=64 time=0
note_on channel=0 note=66 velocity=58 time=0
note_on channel=0 note=66 velocity=0 time=0
note_on channel=0 note=90 velocity=0 time=0
note_on channel=0 note=63 velocity=0 time=0
note_on channel=0 note=81 velocity=0 time=0
note_on channel=0 note=91 velocity=88 time=0
note_on channel=0 note=79 velocity=72 time=0
note_on channel=0 note=67 velocity=58 time=0
note_on channel=0 note=64 velocity=72 time=0
control_change channel=0 control=64 value=0 time=7
control_change channel=0 control=64 value=127 time=42
note_on channel=0 note=67 velocity=0 time=31
note_on channel=0 note=79 velocity=0 time=0
note_on channel=0 note=78 velocity=61 time=0
note_on channel=0 note=70 velocity=52 time=0
note_on channel=0 note=70 velocity=0 time=80
note_on channel=0 note=78 velocity=0 time=0
note_on channel=0 note=76 velocity=62 time=0
note_on channel=0 note=73 velocity=53 time=0
note_on channel=0 note=73 velocity=0 time=0
note_on channel=0 note=64 velocity=0 time=0
note_on channel=0 note=91 velocity=0 time=0
note_on channel=0 note=76 velocity=0 time=0
note_on channel=0 note=81 velocity=74 time=0
note_on channel=0 note=75 velocity=63 time=0
note_on channel=0 note=66 velocity=50 time=0
note_on channel=0 note=72 velocity=51 time=0
control_change channel=0 control=64 value=0 time=6
control_change channel=0 control=64 value=127 time=40
note_on channel=0 note=72 velocity=0 time=0
note_on channel=0 note=75 velocity=0 time=0
note_on channel=0 note=74 velocity=51 time=0
note_on channel=0 note=71 velocity=48 time=0
note_on channel=0 note=71 velocity=0 time=80
note_on channel=0 note=74 velocity=0 time=0
note_on channel=0 note=75 velocity=51 time=0
note_on channel=0 note=72 velocity=49 time=0
note_on channel=0 note=72 velocity=0 time=80
note_on channel=0 note=81 velocity=0 time=0
note_on channel=0 note=66 velocity=0 time=0
note_on channel=0 note=75 velocity=0 time=0
note_on channel=0 note=83 velocity=70 time=0
note_on channel=0 note=74 velocity=65 time=0
note_on channel=0 note=67 velocity=65 time=0
note_on channel=0 note=71 velocity=52 time=0
control_change channel=0 control=64 value=0 time=7
control_change channel=0 control=64 value=127 time=48
note_on channel=0 note=71 velocity=0 time=25
note_on channel=0 note=74 velocity=0 time=0
note_on channel=0 note=72 velocity=53 time=0
note_on channel=0 note=69 velocity=48 time=0
note_on channel=0 note=69 velocity=0 time=0
note_on channel=0 note=72 velocity=0 time=0
note_on channel=0 note=67 velocity=0 time=0
note_on channel=0 note=71 velocity=54 time=0
note_on channel=0 note=55 velocity=52 time=0
note_on channel=0 note=67 velocity=52 time=0
note_on channel=0 note=67 velocity=0 time=0
note_on channel=0 note=83 velocity=0 time=0
note_on channel=0 note=71 velocity=0 time=0
note_on channel=0 note=55 velocity=0 time=0
note_on channel=0 note=74 velocity=53 time=0
note_on channel=0 note=77 velocity=70 time=0
note_on channel=0 note=59 velocity=48 time=0
note_on channel=0 note=56 velocity=52 time=0
control_change channel=0 control=64 value=0 time=5
control_change channel=0 control=64 value=127 time=35
note_on channel=0 note=59 velocity=0 time=40
note_on channel=0 note=74 velocity=0 time=0
note_on channel=0 note=73 velocity=48 time=0
note_on channel=0 note=61 velocity=47 time=0
note_on channel=0 note=61 velocity=0 time=80
note_on channel=0 note=73 velocity=0 time=0
note_on channel=0 note=71 velocity=47 time=0
note_on channel=0 note=62 velocity=39 time=0
note_on channel=0 note=62 velocity=0 time=0
note_on channel=0 note=71 velocity=0 time=0
note_on channel=0 note=68 velocity=52 time=0
note_on channel=0 note=65 velocity=45 time=0
control_change channel=0 control=64 value=0 time=8
control_change channel=0 control=64 value=127 time=29
note_on channel=0 note=65 velocity=0 time=43
note_on channel=0 note=68 velocity=0 time=0
note_on channel=0 note=69 velocity=46 time=0
note_on channel=0 note=64 velocity=38 time=0
note_on channel=0 note=64 velocity=0 time=80
note_on channel=0 note=69 velocity=0 time=0
note_on channel=0 note=71 velocity=45 time=0
note_on channel=0 note=62 velocity=37 time=0
note_on channel=0 note=62 velocity=0 time=0
note_on channel=0 note=56 velocity=0 time=0
note_on channel=0 note=77 velocity=0 time=0
note_on channel=0 note=71 velocity=0 time=0
note_on channel=0 note=73 velocity=47 time=0
note_on channel=0 note=76 velocity=58 time=0
note_on channel=0 note=61 velocity=43 time=0
note_on channel=0 note=55 velocity=38 time=0
control_change channel=0 control=64 value=0 time=7
control_change channel=0 control=64 value=127 time=29
note_on channel=0 note=61 velocity=0 time=34
note_on channel=0 note=73 velocity=0 time=0
note_on channel=0 note=70 velocity=44 time=0
note_on channel=0 note=63 velocity=36 time=0
note_on channel=0 note=63 velocity=0 time=40
note_on channel=0 note=70 velocity=0 time=0
note_on channel=0 note=69 velocity=43 time=0
note_on channel=0 note=64 velocity=35 time=0
note_on channel=0 note=64 velocity=0 time=0
note_on channel=0 note=55 velocity=0 time=0
note_on channel=0 note=76 velocity=0 time=0
note_on channel=0 note=69 velocity=0 time=0
note_on channel=0 note=75 velocity=51 time=0
note_on channel=0 note=81 velocity=61 time=0
note_on channel=0 note=66 velocity=39 time=0
note_on channel=0 note=69 velocity=46 time=0
control_change channel=0 control=64 value=0 time=3
control_change channel=0 control=64 value=127 time=131
note_on channel=0 note=69 velocity=0 time=586
note_on channel=0 note=75 velocity=0 time=0
note_on channel=0 note=81 velocity=0 time=0
note_on channel=0 note=66 velocity=0 time=0
note_on channel=0 note=83 velocity=52 time=0
note_on channel=0 note=78 velocity=44 time=0
note_on channel=0 note=71 velocity=44 time=0
note_on channel=0 note=63 velocity=32 time=0
note_on channel=0 note=66 velocity=38 time=0
control_change channel=0 control=64 value=0 time=14
control_change channel=0 control=64 value=127 time=160
note_on channel=0 note=66 velocity=0 time=304
note_on channel=0 note=71 velocity=0 time=0
note_on channel=0 note=83 velocity=0 time=0
note_on channel=0 note=78 velocity=0 time=0
note_on channel=0 note=63 velocity=0 time=0
note_on channel=0 note=78 velocity=51 time=2
note_on channel=0 note=75 velocity=43 time=0
note_on channel=0 note=71 velocity=43 time=0
note_on channel=0 note=59 velocity=26 time=0
note_on channel=0 note=63 velocity=26 time=0
note_on channel=0 note=66 velocity=31 time=0
note_on channel=0 note=66 velocity=0 time=240
note_on channel=0 note=75 velocity=0 time=0
note_on channel=0 note=71 velocity=0 time=0
note_on channel=0 note=78 velocity=0 time=0
note_on channel=0 note=63 velocity=0 time=0
note_on channel=0 note=59 velocity=0 time=0
note_on channel=0 note=81 velocity=61 time=0
note_on channel=0 note=64 velocity=41 time=0
note_on channel=0 note=67 velocity=41 time=0
control_change channel=0 control=64 value=0 time=27
control_change channel=0 control=64 value=127 time=33
note_on channel=0 note=81 velocity=0 time=60
note_on channel=0 note=78 velocity=57 time=0
note_on channel=0 note=78 velocity=0 time=0
note_on channel=0 note=91 velocity=66 time=0
note_on channel=0 note=79 velocity=66 time=0
note_on channel=0 note=79 velocity=0 time=120
note_on channel=0 note=64 velocity=0 time=0
note_on channel=0 note=67 velocity=0 time=0
note_on channel=0 note=91 velocity=0 time=0
note_on channel=0 note=71 velocity=62 time=0
note_on channel=0 note=83 velocity=62 time=0
note_on channel=0 note=55 velocity=30 time=0
note_on channel=0 note=59 velocity=36 time=0
note_on channel=0 note=59 velocity=0 time=0
note_on channel=0 note=71 velocity=0 time=0
note_on channel=0 note=83 velocity=0 time=0
note_on channel=0 note=55 velocity=0 time=0
note_on channel=0 note=90 velocity=69 time=0
note_on channel=0 note=78 velocity=69 time=0
note_on channel=0 note=55 velocity=43 time=0
note_on channel=0 note=69 velocity=43 time=0
control_change channel=0 control=64 value=0 time=14
control_change channel=0 control=64 value=127 time=50
note_on channel=0 note=69 velocity=0 time=0
note_on channel=0 note=90 velocity=0 time=0
note_on channel=0 note=78 velocity=0 time=0
note_on channel=0 note=88 velocity=62 time=0
note_on channel=0 note=76 velocity=62 time=0
note_on channel=0 note=67 velocity=37 time=0
note_on channel=0 note=67 velocity=0 time=0
note_on channel=0 note=55 velocity=0 time=0
note_on channel=0 note=88 velocity=0 time=0
note_on channel=0 note=76 velocity=0 time=0
note_on channel=0 note=86 velocity=52 time=0
note_on channel=0 note=74 velocity=62 time=0
note_on channel=0 note=66 velocity=46 time=0
note_on channel=0 note=57 velocity=39 time=0
control_change channel=0 control=64 value=0 time=9
control_change channel=0 control=64 value=127 time=65
note_on channel=0 note=66 velocity=0 time=46
note_on channel=0 note=74 velocity=0 time=0
note_on channel=0 note=77 velocity=65 time=0
note_on channel=0 note=68 velocity=39 time=0
note_on channel=0 note=68 velocity=0 time=0
note_on channel=0 note=77 velocity=0 time=0
note_on channel=0 note=79 velocity=69 time=0
note_on channel=0 note=71 velocity=44 time=0
control_change channel=0 control=64 value=0 time=6
control_change channel=0 control=64 value=127 time=44
note_on channel=0 note=71 velocity=0 time=70
note_on channel=0 note=79 velocity=0 time=0
note_on channel=0 note=78 velocity=64 time=0
note_on channel=0 note=69 velocity=40 time=0
note_on channel=0 note=69 velocity=0 time=120
note_on channel=0 note=57 velocity=0 time=0
note_on channel=0 note=86 velocity=0 time=0
note_on channel=0 note=78 velocity=0 time=0
note_on channel=0 note=73 velocity=54 time=0
note_on channel=0 note=81 velocity=54 time=0
note_on channel=0 note=85 velocity=64 time=0
note_on channel=0 note=76 velocity=54 time=0
note_on channel=0 note=33 velocity=38 time=0
note_on channel=0 note=45 velocity=45 time=0
control_change channel=0 control=64 value=0 time=5
note_on channel=0 note=45 velocity=0 time=115
note_on channel=0 note=81 velocity=0 time=0
note_on channel=0 note=85 velocity=0 time=0
note_on channel=0 note=73 velocity=0 time=0
note_on channel=0 note=33 velocity=0 time=0
note_on channel=0 note=76 velocity=0 time=0
note_on channel=0 note=72 velocity=58 time=0
note_on channel=0 note=81 velocity=58 time=0
note_on channel=0 note=84 velocity=69 time=0
note_on channel=0 note=75 velocity=58 time=0
note_on channel=0 note=31 velocity=38 time=0
note_on channel=0 note=43 velocity=45 time=0
control_change channel=0 control=64 value=127 time=0
note_on channel=0 note=43 velocity=0 time=60
note_on channel=0 note=31 velocity=0 time=0
note_on channel=0 note=30 velocity=39 time=0
note_on channel=0 note=42 velocity=46 time=0
note_on channel=0 note=42 velocity=0 time=0
note_on channel=0 note=81 velocity=0 time=0
note_on channel=0 note=75 velocity=0 time=0
note_on channel=0 note=72 velocity=0 time=0
note_on channel=0 note=30 velocity=0 time=0
note_on channel=0 note=84 velocity=0 time=0
note_on channel=0 note=84 velocity=72 time=0
note_on channel=0 note=81 velocity=61 time=0
note_on channel=0 note=30 velocity=52 time=0
control_change channel=0 control=64 value=0 time=0
control_change channel=0 control=64 value=127 time=35
note_on channel=0 note=30 velocity=0 time=25
note_on channel=0 note=81 velocity=0 time=0
note_on channel=0 note=78 velocity=71 time=0
note_on channel=0 note=33 velocity=44 time=0
note_on channel=0 note=33 velocity=0 time=60
note_on channel=0 note=78 velocity=0 time=0
note_on channel=0 note=75 velocity=69 time=0
note_on channel=0 note=36 velocity=43 time=0
note_on channel=0 note=36 velocity=0 time=60
note_on channel=0 note=75 velocity=0 time=0
note_on channel=0 note=72 velocity=68 time=0
note_on channel=0 note=39 velocity=42 time=0
note_on channel=0 note=39 velocity=0 time=60
note_on channel=0 note=72 velocity=0 time=0
note_on channel=0 note=84 velocity=0 time=0
note_on channel=0 note=72 velocity=66 time=0
note_on channel=0 note=69 velocity=56 time=0
note_on channel=0 note=42 velocity=41 time=0
control_change channel=0 control=64 value=0 time=7
control_change channel=0 control=64 value=127 time=27
note_on channel=0 note=42 velocity=0 time=23
note_on channel=0 note=69 velocity=0 time=0
note_on channel=0 note=66 velocity=61 time=0
note_on channel=0 note=45 velocity=40 time=0
note_on channel=0 note=45 velocity=0 time=60
note_on channel=0 note=66 velocity=0 time=0
note_on channel=0 note=63 velocity=59 time=0
note_on channel=0 note=48 velocity=39 time=0
note_on channel=0 note=48 velocity=0 time=55
note_on channel=0 note=63 velocity=0 time=0
note_on channel=0 note=60 velocity=58 time=0
note_on channel=0 note=51 velocity=38 time=0
note_on channel=0 note=51 velocity=0 time=19
note_on channel=0 note=60 velocity=0 time=0
note_on channel=0 note=69 velocity=60 time=0
note_on channel=0 note=54 velocity=36 time=0
control_change channel=0 control=64 value=0 time=11
control_change channel=0 control=64 value=127 time=32
note_on channel=0 note=54 velocity=0 time=17
note_on channel=0 note=69 velocity=0 time=0
note_on channel=0 note=63 velocity=48 time=0
note_on channel=0 note=60 velocity=27 time=0
note_on channel=0 note=60 velocity=0 time=43
note_on channel=0 note=63 velocity=0 time=0
note_on channel=0 note=72 velocity=0 time=0
note_on channel=0 note=71 velocity=48 time=0
note_on channel=0 note=59 velocity=40 time=0
note_on channel=0 note=62 velocity=48 time=0
note_on channel=0 note=55 velocity=27 time=0
control_change channel=0 control=64 value=0 time=5
control_change channel=0 control=64 value=127 time=24
note_on channel=0 note=55 velocity=0 time=0
note_on channel=0 note=62 velocity=0 time=0
note_on channel=0 note=59 velocity=0 time=0
note_on channel=0 note=67 velocity=48 time=0
note_on channel=0 note=59 velocity=27 time=0
note_on channel=0 note=59 velocity=0 time=0
note_on channel=0 note=67 velocity=0 time=0
note_on channel=0 note=71 velocity=0 time=0
note_on channel=0 note=58 velocity=35 time=0
note_on channel=0 note=70 velocity=41 time=0
note_on channel=0 note=67 velocity=35 time=0
note_on channel=0 note=62 velocity=35 time=0
note_on channel=0 note=43 velocity=22 time=0
note_on channel=0 note=55 velocity=26 time=0
control_change channel=0 control=64 value=0 time=10
control_change channel=0 control=64 value=127 time=26
note_on channel=0 note=55 velocity=0 time=425
note_on channel=0 note=70 velocity=0 time=0
note_on channel=0 note=67 velocity=0 time=0
note_on channel=0 note=58 velocity=0 time=0
note_on channel=0 note=43 velocity=0 time=0
note_on channel=0 note=62 velocity=0 time=0
control_change channel=0 control=64 value=0 time=60
note_on channel=0 note=69 velocity=61 time=0
note_on channel=0 note=66 velocity=51 time=0
note_on channel=0 note=33 velocity=39 time=0
control_change channel=0 control=64 value=127 time=23
note_on channel=0 note=33 velocity=0 time=57
note_on channel=0 note=66 velocity=0 time=0
note_on channel=0 note=62 velocity=55 time=0
note_on channel=0 note=38 velocity=34 time=0
note_on channel=0 note=38 velocity=0 time=0
note_on channel=0 note=62 velocity=0 time=0
note_on channel=0 note=57 velocity=55 time=0
note_on channel=0 note=42 velocity=34 time=0
note_on channel=0 note=42 velocity=0 time=0
note_on channel=0 note=57 velocity=0 time=0
note_on channel=0 note=69 velocity=0 time=0
note_on channel=0 note=69 velocity=61 time=0
note_on channel=0 note=66 velocity=51 time=0
note_on channel=0 note=45 velocity=39 time=0
control_change channel=0 control=64 value=0 time=13
note_on channel=0 note=66 velocity=0 time=47
note_on channel=0 note=62 velocity=54 time=0
note_on channel=0 note=50 velocity=32 time=0
control_change channel=0 control=64 value=127 time=3
note_on channel=0 note=50 velocity=0 time=57
note_on channel=0 note=62 velocity=0 time=0
note_on channel=0 note=57 velocity=55 time=0
note_on channel=0 note=54 velocity=32 time=0
note_on channel=0 note=54 velocity=0 time=0
note_on channel=0 note=57 velocity=0 time=0
note_on channel=0 note=66 velocity=55 time=0
note_on channel=0 note=57 velocity=32 time=0
note_on channel=0 note=57 velocity=0 time=18
note_on channel=0 note=66 velocity=0 time=0
note_on channel=0 note=66 velocity=63 time=0
note_on channel=0 note=50 velocity=38 time=0
control_change channel=0 control=64 value=0 time=6
control_change channel=0 control=64 value=127 time=9
note_on channel=0 note=50 velocity=0 time=1
note_on channel=0 note=66 velocity=0 time=0
note_on channel=0 note=62 velocity=54 time=0
note_on channel=0 note=54 velocity=34 time=0
note_on channel=0 note=54 velocity=0 time=4
note_on channel=0 note=69 velocity=0 time=0
note_on channel=0 note=45 velocity=0 time=0
note_on channel=0 note=62 velocity=0 time=0
note_on channel=0 note=68 velocity=59 time=0
note_on channel=0 note=65 velocity=50 time=0
note_on channel=0 note=47 velocity=28 time=0
note_on channel=0 note=50 velocity=34 time=0
control_change channel=0 control=64 value=0 time=5
control_change channel=0 control=64 value=127 time=22
note_on channel=0 note=50 velocity=0 time=0
note_on channel=0 note=65 velocity=0 time=0
note_on channel=0 note=62 velocity=50 time=0
note_on channel=0 note=53 velocity=34 time=0
note_on channel=0 note=53 velocity=0 time=17
note_on channel=0 note=68 velocity=0 time=0
note_on channel=0 note=47 velocity=0 time=0
note_on channel=0 note=62 velocity=0 time=0
note_on channel=0 note=64 velocity=48 time=0
note_on channel=0 note=58 velocity=48 time=0
note_on channel=0 note=55 velocity=48 time=0
note_on channel=0 note=67 velocity=57 time=0
note_on channel=0 note=49 velocity=32 time=0
note_on channel=0 note=52 velocity=38 time=0
control_change channel=0 control=64 value=0 time=7
control_change channel=0 control=64 value=127 time=96
note_on channel=0 note=52 velocity=0 time=135
note_on channel=0 note=58 velocity=0 time=0
note_on channel=0 note=55 velocity=0 time=0
note_on channel=0 note=64 velocity=0 time=0
note_on channel=0 note=49 velocity=0 time=0
note_on channel=0 note=67 velocity=0 time=0
note_on channel=0 note=46 velocity=25 time=2
note_on channel=0 note=49 velocity=25 time=0
note_on channel=0 note=52 velocity=25 time=0
note_on channel=0 note=55 velocity=30 time=0
note_on channel=0 note=55 velocity=0 time=360
note_on channel=0 note=46 velocity=0 time=0
note_on channel=0 note=49 velocity=0 time=0
note_on channel=0 note=52 velocity=0 time=0
note_on channel=0 note=47 velocity=22 time=0
note_on channel=0 note=51 velocity=22 time=0
note_on channel=0 note=54 velocity=27 time=0
control_change channel=0 control=64 value=0 time=3
note_on channel=0 note=54 velocity=0 time=117
note_on channel=0 note=51 velocity=0 time=0
note_on channel=0 note=47 velocity=0 time=0
note_on channel=0 note=47 velocity=25 time=0
note_on channel=0 note=51 velocity=25 time=0
note_on channel=0 note=54 velocity=30 time=0
control_change channel=0 control=64 value=127 time=80
note_on channel=0 note=54 velocity=0 time=395
note_on channel=0 note=51 velocity=0 time=0
note_on channel=0 note=47 velocity=0 time=0
note_on channel=0 note=47 velocity=22 time=0
note_on channel=0 note=51 velocity=22 time=0
note_on channel=0 note=54 velocity=22 time=0
note_on channel=0 note=59 velocity=27 time=0
note_on channel=0 note=59 velocity=0 time=238
note_on channel=0 note=47 velocity=0 time=0
note_on channel=0 note=51 velocity=0 time=0
note_on channel=0 note=54 velocity=0 time=0
note_on channel=0 note=63 velocity=38 time=0
note_on channel=0 note=66 velocity=45 time=0
note_on channel=0 note=47 velocity=25 time=0
note_on channel=0 note=51 velocity=25 time=0
note_on channel=0 note=54 velocity=25 time=0
note_on channel=0 note=59 velocity=30 time=0
note_on channel=0 note=59 velocity=0 time=475
note_on channel=0 note=66 velocity=0 time=0
note_on channel=0 note=47 velocity=0 time=0
note_on channel=0 note=63 velocity=0 time=0
note_on channel=0 note=54 velocity=0 time=0
note_on channel=0 note=51 velocity=0 time=0
note_on channel=0 note=63 velocity=36 time=0
note_on channel=0 note=66 velocity=36 time=0
note_on channel=0 note=71 velocity=42 time=0
note_on channel=0 note=47 velocity=22 time=0
note_on channel=0 note=51 velocity=22 time=0
note_on channel=0 note=54 velocity=22 time=0
note_on channel=0 note=59 velocity=27 time=0
note_on channel=0 note=59 velocity=0 time=238
note_on channel=0 note=51 velocity=0 time=0
note_on channel=0 note=66 velocity=0 time=0
note_on channel=0 note=71 velocity=0 time=0
note_on channel=0 note=63 velocity=0 time=0
note_on channel=0 note=54 velocity=0 time=0
note_on channel=0 note=47 velocity=0 time=0
note_on channel=0 note=59 velocity=38 time=0
note_on channel=0 note=63 velocity=38 time=0
note_on channel=0 note=71 velocity=45 time=0
note_on channel=0 note=66 velocity=38 time=0
note_on channel=0 note=35 velocity=25 time=0
note_on channel=0 note=47 velocity=30 time=0
note_on channel=0 note=47 velocity=0 time=238
note_on channel=0 note=35 velocity=0 time=0
note_on channel=0 note=30 velocity=25 time=0
note_on channel=0 note=42 velocity=30 time=0
note_on channel=0 note=71 velocity=0 time=235
note_on channel=0 note=66 velocity=0 time=0
note_on channel=0 note=59 velocity=0 time=0
note_on channel=0 note=63 velocity=0 time=0
note_on channel=0 note=63 velocity=36 time=0
note_on channel=0 note=59 velocity=36 time=0
note_on channel=0 note=71 velocity=44 time=0
note_on channel=0 note=66 velocity=36 time=0
note_on channel=0 note=42 velocity=0 time=235
note_on channel=0 note=30 velocity=0 time=0
note_on channel=0 note=71 velocity=0 time=3
note_on channel=0 note=59 velocity=0 time=0
note_on channel=0 note=66 velocity=0 time=0
note_on channel=0 note=63 velocity=0 time=0
note_on channel=0 note=64 velocity=38 time=0
note_on channel=0 note=59 velocity=38 time=0
note_on channel=0 note=71 velocity=45 time=0
note_on channel=0 note=31 velocity=25 time=0
note_on channel=0 note=43 velocity=30 time=0
control_change channel=0 control=64 value=0 time=13
note_on channel=0 note=43 velocity=0 time=225
note_on channel=0 note=71 velocity=0 time=0
note_on channel=0 note=64 velocity=0 time=0
note_on channel=0 note=59 velocity=0 time=0
note_on channel=0 note=31 velocity=0 time=0
note_on channel=0 note=57 velocity=35 time=0
note_on channel=0 note=64 velocity=35 time=0
note_on channel=0 note=61 velocity=35 time=0
note_on channel=0 note=69 velocity=41 time=0
note_on channel=0 note=33 velocity=21 time=0
note_on channel=0 note=45 velocity=25 time=0
note_on channel=0 note=45 velocity=0 time=235
note_on channel=0 note=64 velocity=0 time=0
note_on channel=0 note=61 velocity=0 time=0
note_on channel=0 note=57 velocity=0 time=0
note_on channel=0 note=33 velocity=0 time=0
note_on channel=0 note=69 velocity=0 time=0
note_on channel=0 note=57 velocity=35 time=0
note_on channel=0 note=66 velocity=35 time=0
note_on channel=0 note=62 velocity=35 time=0
note_on channel=0 note=69 velocity=41 time=0
note_on channel=0 note=26 velocity=20 time=0
note_on channel=0 note=38 velocity=24 time=0
control_change channel=0 control=64 value=127 time=94
note_on channel=0 note=38 velocity=0 time=386
note_on channel=0 note=66 velocity=0 time=0
note_on channel=0 note=62 velocity=0 time=0
note_on channel=0 note=57 velocity=0 time=0
note_on channel=0 note=26 velocity=0 time=0
note_on channel=0 note=69 velocity=0 time=0
note_on channel=0 note=66 velocity=33 time=0
note_on channel=0 note=54 velocity=22 time=0
note_on channel=0 note=54 velocity=0 time=240
note_on channel=0 note=66 velocity=0 time=0
note_on channel=0 note=57 velocity=42 time=0
note_on channel=0 note=45 velocity=24 time=0
note_on channel=0 note=45 velocity=0 time=0
note_on channel=0 note=57 velocity=0 time=0
note_on channel=0 note=69 velocity=36 time=0
note_on channel=0 note=57 velocity=21 time=0
note_on channel=0 note=57 velocity=0 time=0
note_on channel=0 note=69 velocity=0 time=0
note_on channel=0 note=66 velocity=40 time=0
note_on channel=0 note=54 velocity=24 time=0
control_change channel=0 control=64 value=0 time=387
note_on channel=0 note=54 velocity=0 time=93
note_on channel=0 note=66 velocity=0 time=0
note_on channel=0 note=90 velocity=59 time=0
note_on channel=0 note=78 velocity=49 time=0
note_on channel=0 note=81 velocity=49 time=0
note_on channel=0 note=33 velocity=28 time=0
note_on channel=0 note=45 velocity=34 time=0
note_on channel=0 note=45 velocity=0 time=240
note_on channel=0 note=81 velocity=0 time=0
note_on channel=0 note=90 velocity=0 time=0
note_on channel=0 note=78 velocity=0 time=0
note_on channel=0 note=33 velocity=0 time=0
note_on channel=0 note=79 velocity=53 time=0
note_on channel=0 note=76 velocity=53 time=0
note_on channel=0 note=88 velocity=63 time=0
note_on channel=0 note=47 velocity=40 time=0
note_on channel=0 note=35 velocity=27 time=0
note_on channel=0 note=45 velocity=34 time=0
control_change channel=0 control=64 value=127 time=240
note_on channel=0 note=45 velocity=0 time=240
note_on channel=0 note=76 velocity=0 time=0
note_on channel=0 note=88 velocity=0 time=0
note_on channel=0 note=79 velocity=0 time=0
note_on channel=0 note=35 velocity=0 time=0
note_on channel=0 note=47 velocity=0 time=0
note_on channel=0 note=81 velocity=51 time=0
note_on channel=0 note=76 velocity=43 time=0
note_on channel=0 note=69 velocity=43 time=0
note_on channel=0 note=79 velocity=43 time=0
note_on channel=0 note=37 velocity=29 time=0
note_on channel=0 note=49 velocity=29 time=0
note_on channel=0 note=45 velocity=29 time=0
control_change channel=0 control=64 value=0 time=13
note_on channel=0 note=45 velocity=0 time=225
note_on channel=0 note=37 velocity=0 time=0
note_on channel=0 note=76 velocity=0 time=0
note_on channel=0 note=69 velocity=0 time=0
note_on channel=0 note=81 velocity=0 time=0
note_on channel=0 note=49 velocity=0 time=0
note_on channel=0 note=79 velocity=0 time=0
note_on channel=0 note=69 velocity=45 time=0
note_on channel=0 note=81 velocity=54 time=0
note_on channel=0 note=78 velocity=45 time=0
note_on channel=0 note=45 velocity=30 time=0
note_on channel=0 note=38 velocity=30 time=0
note_on channel=0 note=50 velocity=36 time=0
control_change channel=0 control=64 value=127 time=94
note_on channel=0 note=50 velocity=0 time=386
note_on channel=0 note=81 velocity=0 time=0
note_on channel=0 note=78 velocity=0 time=0
note_on channel=0 note=69 velocity=0 time=0
note_on channel=0 note=38 velocity=0 time=0
note_on channel=0 note=45 velocity=0 time=0
note_on channel=0 note=78 velocity=43 time=0
note_on channel=0 note=66 velocity=33 time=0
note_on channel=0 note=66 velocity=0 time=240
note_on channel=0 note=78 velocity=0 time=0
note_on channel=0 note=69 velocity=50 time=0
note_on channel=0 note=57 velocity=33 time=0
note_on channel=0 note=57 velocity=0 time=0
note_on channel=0 note=69 velocity=0 time=0
note_on channel=0 note=69 velocity=39 time=0
note_on channel=0 note=81 velocity=47 time=0
note_on channel=0 note=42 velocity=26 time=0
note_on channel=0 note=45 velocity=26 time=0
note_on channel=0 note=54 velocity=31 time=0
note_on channel=0 note=54 velocity=0 time=0
note_on channel=0 note=42 velocity=0 time=0
note_on channel=0 note=69 velocity=0 time=0
note_on channel=0 note=81 velocity=0 time=0
note_on channel=0 note=45 velocity=0 time=0
note_on channel=0 note=78 velocity=54 time=0
note_on channel=0 note=66 velocity=45 time=0
note_on channel=0 note=45 velocity=28 time=0
note_on channel=0 note=57 velocity=33 time=0
control_change channel=0 control=64 value=0 time=67
control_change channel=0 control=64 value=127 time=147
note_on channel=0 note=57 velocity=0 time=266
note_on channel=0 note=78 velocity=0 time=0
note_on channel=0 note=66 velocity=0 time=0
note_on channel=0 note=45 velocity=0 time=0
note_on channel=0 note=69 velocity=40 time=0
note_on channel=0 note=81 velocity=48 time=0
note_on channel=0 note=42 velocity=28 time=0
note_on channel=0 note=45 velocity=28 time=0
note_on channel=0 note=54 velocity=33 time=0
note_on channel=0 note=81 velocity=0 time=0
note_on channel=0 note=69 velocity=0 time=0
note_on channel=0 note=79 velocity=56 time=0
note_on channel=0 note=83 velocity=56 time=0
note_on channel=0 note=71 velocity=47 time=0
control_change channel=0 control=64 value=0 time=12
control_change channel=0 control=64 value=127 time=108
note_on channel=0 note=45 velocity=0 time=0
note_on channel=0 note=54 velocity=0 time=0
note_on channel=0 note=42 velocity=0 time=0
note_on channel=0 note=40 velocity=28 time=0
note_on channel=0 note=45 velocity=28 time=0
note_on channel=0 note=52 velocity=34 time=0
note_on channel=0 note=52 velocity=0 time=240
note_on channel=0 note=83 velocity=0 time=0
note_on channel=0 note=79 velocity=0 time=0
note_on channel=0 note=71 velocity=0 time=0
note_on channel=0 note=45 velocity=0 time=0
note_on channel=0 note=40 velocity=0 time=0
note_on channel=0 note=85 velocity=54 time=0
note_on channel=0 note=76 velocity=45 time=0
note_on channel=0 note=79 velocity=45 time=0
note_on channel=0 note=73 velocity=45 time=0
note_on channel=0 note=33 velocity=29 time=0
note_on channel=0 note=45 velocity=34 time=0
control_change channel=0 control=64 value=0 time=13
control_change channel=0 control=64 value=127 time=94
note_on channel=0 note=45 velocity=0 time=133
note_on channel=0 note=76 velocity=0 time=0
note_on channel=0 note=79 velocity=0 time=0
note_on channel=0 note=85 velocity=0 time=0
note_on channel=0 note=33 velocity=0 time=0
note_on channel=0 note=73 velocity=0 time=0
note_on channel=0 note=78 velocity=50 time=0
note_on channel=0 note=74 velocity=50 time=0
note_on channel=0 note=86 velocity=60 time=0
note_on channel=0 note=38 velocity=30 time=0
note_on channel=0 note=45 velocity=36 time=0
control_change channel=0 control=64 value=0 time=0
control_change channel=0 control=64 value=127 time=174
note_on channel=0 note=45 velocity=0 time=0
note_on channel=0 note=86 velocity=0 time=0
note_on channel=0 note=78 velocity=0 time=0
note_on channel=0 note=74 velocity=0 time=0
note_on channel=0 note=38 velocity=0 time=0
note_on channel=0 note=88 velocity=68 time=0
note_on channel=0 note=85 velocity=56 time=0
note_on channel=0 note=76 velocity=56 time=0
note_on channel=0 note=33 velocity=31 time=0
note_on channel=0 note=45 velocity=37 time=0
control_change channel=0 control=64 value=0 time=10
control_change channel=0 control=64 value=127 time=124
note_on channel=0 note=45 velocity=0 time=579
note_on channel=0 note=76 velocity=0 time=0
note_on channel=0 note=88 velocity=0 time=0
note_on channel=0 note=85 velocity=0 time=0
note_on channel=0 note=33 velocity=0 time=0
note_on channel=0 note=76 velocity=62 time=7
note_on channel=0 note=88 velocity=73 time=0
note_on channel=0 note=85 velocity=62 time=0
note_on channel=0 note=33 velocity=32 time=0
note_on channel=0 note=45 velocity=38 time=0
note_on channel=0 note=45 velocity=0 time=0
note_on channel=0 note=85 velocity=0 time=0
note_on channel=0 note=76 velocity=0 time=0
note_on channel=0 note=88 velocity=0 time=0
note_on channel=0 note=33 velocity=0 time=0
note_on channel=0 note=87 velocity=70 time=0
note_on channel=0 note=90 velocity=70 time=0
note_on channel=0 note=78 velocity=59 time=0
note_on channel=0 note=43 velocity=43 time=0
control_change channel=0 control=64 value=0 time=14
control_change channel=0 control=64 value=127 time=57
note_on channel=0 note=43 velocity=0 time=49
note_on channel=0 note=42 velocity=45 time=0
note_on channel=0 note=42 velocity=0 time=0
note_on channel=0 note=78 velocity=0 time=0
note_on channel=0 note=90 velocity=0 time=0
note_on channel=0 note=87 velocity=0 time=0
note_on channel=0 note=91 velocity=75 time=0
note_on channel=0 note=79 velocity=63 time=0
note_on channel=0 note=88 velocity=75 time=0
note_on channel=0 note=40 velocity=53 time=0
control_change channel=0 control=64 value=0 time=4
control_change channel=0 control=64 value=127 time=32
note_on channel=0 note=40 velocity=0 time=84
note_on channel=0 note=38 velocity=48 time=0
note_on channel=0 note=91 velocity=0 time=11
note_on channel=0 note=88 velocity=0 time=0
note_on channel=0 note=79 velocity=0 time=0
note_on channel=0 note=38 velocity=0 time=2
note_on channel=0 note=88 velocity=80 time=0
note_on channel=0 note=93 velocity=80 time=0
note_on channel=0 note=81 velocity=68 time=0
note_on channel=0 note=37 velocity=64 time=0
control_change channel=0 control=64 value=0 time=7
control_change channel=0 control=64 value=127 time=39
note_on channel=0 note=37 velocity=0 time=33
note_on channel=0 note=40 velocity=53 time=0
note_on channel=0 note=40 velocity=0 time=53
note_on channel=0 note=45 velocity=55 time=0
note_on channel=0 note=81 velocity=0 time=11
note_on channel=0 note=88 velocity=0 time=0
note_on channel=0 note=93 velocity=0 time=0
note_on channel=0 note=45 velocity=0 time=2
note_on channel=0 note=88 velocity=72 time=0
note_on channel=0 note=93 velocity=85 time=0
note_on channel=0 note=91 velocity=85 time=0
note_on channel=0 note=81 velocity=72 time=0
note_on channel=0 note=49 velocity=65 time=0
control_change channel=0 control=64 value=0 time=12
control_change channel=0 control=64 value=127 time=10
note_on channel=0 note=49 velocity=0 time=23
note_on channel=0 note=52 velocity=59 time=0
note_on channel=0 note=52 velocity=0 time=53
note_on channel=0 note=57 velocity=59 time=0
note_on channel=0 note=81 velocity=0 time=11
note_on channel=0 note=91 velocity=0 time=0
note_on channel=0 note=88 velocity=0 time=0
note_on channel=0 note=93 velocity=0 time=0
note_on channel=0 note=57 velocity=0 time=0
note_on channel=0 note=93 velocity=74 time=0
note_on channel=0 note=81 velocity=62 time=0
note_on channel=0 note=42 velocity=36 time=0
note_on channel=0 note=54 velocity=43 time=0
control_change channel=0 control=64 value=0 time=0
control_change channel=0 control=64 value=127 time=187
note_on channel=0 note=81 velocity=0 time=0
note_on channel=0 note=93 velocity=0 time=0
note_on channel=0 note=69 velocity=46 time=0
note_on channel=0 note=81 velocity=55 time=0
note_on channel=0 note=81 velocity=0 time=0
note_on channel=0 note=69 velocity=0 time=0
note_on channel=0 note=66 velocity=46 time=0
note_on channel=0 note=78 velocity=55 time=0
note_on channel=0 note=78 velocity=0 time=238
note_on channel=0 note=66 velocity=0 time=0
note_on channel=0 note=42 velocity=0 time=2
note_on channel=0 note=54 velocity=0 time=0
note_on channel=0 note=66 velocity=51 time=0
note_on channel=0 note=78 velocity=60 time=0
note_on channel=0 note=45 velocity=36 time=0
note_on channel=0 note=57 velocity=43 time=0
note_on channel=0 note=78 velocity=0 time=240
note_on channel=0 note=66 velocity=0 time=0
note_on channel=0 note=62 velocity=46 time=0
note_on channel=0 note=74 velocity=55 time=0
note_on channel=0 note=74 velocity=0 time=0
note_on channel=0 note=62 velocity=0 time=0
note_on channel=0 note=64 velocity=47 time=0
note_on channel=0 note=76 velocity=56 time=0
note_on channel=0 note=76 velocity=0 time=0
note_on channel=0 note=57 velocity=0 time=0
note_on channel=0 note=45 velocity=0 time=0
note_on channel=0 note=64 velocity=0 time=0
note_on channel=0 note=66 velocity=51 time=0
note_on channel=0 note=78 velocity=60 time=0
note_on channel=0 note=50 velocity=36 time=0
note_on channel=0 note=62 velocity=43 time=0
control_change channel=0 control=64 value=0 time=0
control_change channel=0 control=64 value=127 time=187
note_on channel=0 note=62 velocity=0 time=480
note_on channel=0 note=66 velocity=0 time=0
note_on channel=0 note=78 velocity=0 time=0
note_on channel=0 note=50 velocity=0 time=0
note_on channel=0 note=67 velocity=51 time=0
note_on channel=0 note=79 velocity=60 time=0
note_on channel=0 note=47 velocity=36 time=0
note_on channel=0 note=59 velocity=43 time=0
control_change channel=0 control=64 value=0 time=13
control_change channel=0 control=64 value=127 time=147
note_on channel=0 note=59 velocity=0 time=0
note_on channel=0 note=67 velocity=0 time=0
note_on channel=0 note=79 velocity=0 time=0
note_on channel=0 note=47 velocity=0 time=0
note_on channel=0 note=71 velocity=53 time=0
note_on channel=0 note=83 velocity=63 time=0
note_on channel=0 note=43 velocity=30 time=0
note_on channel=0 note=55 velocity=36 time=0
note_on channel=0 note=83 velocity=0 time=238
note_on channel=0 note=71 velocity=0 time=0
note_on channel=0 note=43 velocity=0 time=0
note_on channel=0 note=55 velocity=0 time=0
note_on channel=0 note=71 velocity=56 time=0
note_on channel=0 note=79 velocity=56 time=0
note_on channel=0 note=83 velocity=67 time=0
note_on channel=0 note=40 velocity=39 time=0
note_on channel=0 note=52 velocity=47 time=0
control_change channel=0 control=64 value=0 time=0
control_change channel=0 control=64 value=127 time=97
note_on channel=0 note=52 velocity=0 time=0
note_on channel=0 note=83 velocity=0 time=0
note_on channel=0 note=71 velocity=0 time=0
note_on channel=0 note=79 velocity=0 time=0
note_on channel=0 note=40 velocity=0 time=0
note_on channel=0 note=79 velocity=55 time=0
note_on channel=0 note=82 velocity=65 time=0
note_on channel=0 note=70 velocity=55 time=0
note_on channel=0 note=52 velocity=36 time=0
note_on channel=0 note=55 velocity=43 time=0
control_change channel=0 control=64 value=0 time=14
control_change channel=0 control=64 value=127 time=72
note_on channel=0 note=55 velocity=0 time=152
note_on channel=0 note=70 velocity=0 time=0
note_on channel=0 note=79 velocity=0 time=0
note_on channel=0 note=82 velocity=0 time=0
note_on channel=0 note=52 velocity=0 time=0
note_on channel=0 note=70 velocity=55 time=0
note_on channel=0 note=82 velocity=65 time=0
note_on channel=0 note=49 velocity=36 time=0
note_on channel=0 note=52 velocity=43 time=0
control_change channel=0 control=64 value=0 time=13
control_change channel=0 control=64 value=127 time=62
note_on channel=0 note=82 velocity=0 time=165
note_on channel=0 note=70 velocity=0 time=0
note_on channel=0 note=88 velocity=64 time=0
note_on channel=0 note=76 velocity=54 time=0
note_on channel=0 note=76 velocity=0 time=240
note_on channel=0 note=52 velocity=0 time=0
note_on channel=0 note=49 velocity=0 time=0
note_on channel=0 note=88 velocity=0 time=0
note_on channel=0 note=89 velocity=66 time=0
note_on channel=0 note=77 velocity=56 time=0
note_on channel=0 note=47 velocity=37 time=0
note_on channel=0 note=50 velocity=44 time=0
control_change channel=0 control=64 value=0 time=14
control_change channel=0 control=64 value=127 time=61
note_on channel=0 note=50 velocity=0 time=0
note_on channel=0 note=89 velocity=0 time=0
note_on channel=0 note=77 velocity=0 time=0
note_on channel=0 note=47 velocity=0 time=0
note_on channel=0 note=78 velocity=57 time=0
note_on channel=0 note=90 velocity=68 time=0
note_on channel=0 note=46 velocity=38 time=0
note_on channel=0 note=49 velocity=45 time=0
note_on channel=0 note=49 velocity=0 time=119
note_on channel=0 note=78 velocity=0 time=0
note_on channel=0 note=90 velocity=0 time=0
note_on channel=0 note=46 velocity=0 time=0
note_on channel=0 note=90 velocity=69 time=0
note_on channel=0 note=78 velocity=58 time=0
note_on channel=0 note=46 velocity=47 time=0
control_change channel=0 control=64 value=0 time=0
control_change channel=0 control=64 value=127 time=69
note_on channel=0 note=46 velocity=0 time=51
note_on channel=0 note=49 velocity=44 time=0
note_on channel=0 note=49 velocity=0 time=120
note_on channel=0 note=54 velocity=47 time=0
note_on channel=0 note=54 velocity=0 time=120
note_on channel=0 note=58 velocity=49 time=0
note_on channel=0 note=58 velocity=0 time=120
note_on channel=0 note=61 velocity=51 time=0
note_on channel=0 note=61 velocity=0 time=120
note_on channel=0 note=66 velocity=53 time=0
note_on channel=0 note=66 velocity=0 time=0
note_on channel=0 note=78 velocity=0 time=0
note_on channel=0 note=90 velocity=0 time=0
note_on channel=0 note=75 velocity=68 time=0
note_on channel=0 note=68 velocity=56 time=0
note_on channel=0 note=66 velocity=47 time=0
note_on channel=0 note=63 velocity=47 time=0
note_on channel=0 note=60 velocity=47 time=0
control_change channel=0 control=64 value=0 time=15
control_change channel=0 control=64 value=127 time=71
note_on channel=0 note=75 velocity=0 time=34
note_on channel=0 note=78 velocity=70 time=0
note_on channel=0 note=78 velocity=0 time=40
note_on channel=0 note=80 velocity=69 time=0
note_on channel=0 note=80 velocity=0 time=55
note_on channel=0 note=87 velocity=73 time=0
note_on channel=0 note=87 velocity=0 time=70
note_on channel=0 note=90 velocity=74 time=0
note_on channel=0 note=90 velocity=0 time=100
note_on channel=0 note=92 velocity=76 time=0
note_on channel=0 note=92 velocity=0 time=0
note_on channel=0 note=60 velocity=0 time=0
note_on channel=0 note=68 velocity=0 time=0
note_on channel=0 note=66 velocity=0 time=0
note_on channel=0 note=63 velocity=0 time=0
note_on channel=0 note=65 velocity=51 time=0
note_on channel=0 note=77 velocity=60 time=0
note_on channel=0 note=44 velocity=42 time=0
note_on channel=0 note=56 velocity=50 time=0
control_change channel=0 control=64 value=0 time=14
control_change channel=0 control=64 value=127 time=112
note_on channel=0 note=56 velocity=0 time=354
note_on channel=0 note=44 velocity=0 time=0
note_on channel=0 note=41 velocity=38 time=0
note_on channel=0 note=53 velocity=45 time=0
note_on channel=0 note=53 velocity=0 time=238
note_on channel=0 note=41 velocity=0 time=0
note_on channel=0 note=77 velocity=0 time=0
note_on channel=0 note=65 velocity=0 time=0
note_on channel=0 note=68 velocity=51 time=0
note_on channel=0 note=80 velocity=60 time=0
note_on channel=0 note=41 velocity=42 time=0
note_on channel=0 note=53 velocity=50 time=0
control_change channel=0 control=64 value=0 time=11
control_change channel=0 control=64 value=127 time=149
note_on channel=0 note=53 velocity=0 time=0
note_on channel=0 note=41 velocity=0 time=0
note_on channel=0 note=68 velocity=0 time=0
note_on channel=0 note=77 velocity=57 time=0
note_on channel=0 note=37 velocity=38 time=0
note_on channel=0 note=49 velocity=45 time=0
note_on channel=0 note=49 velocity=0 time=0
note_on channel=0 note=80 velocity=0 time=0
note_on channel=0 note=77 velocity=0 time=0
note_on channel=0 note=37 velocity=0 time=0
note_on channel=0 note=80 velocity=61 time=0
note_on channel=0 note=78 velocity=45 time=0
note_on channel=0 note=39 velocity=38 time=0
note_on channel=0 note=51 velocity=45 time=0
control_change channel=0 control=64 value=0 time=6
control_change channel=0 control=64 value=127 time=86
note_on channel=0 note=51 velocity=0 time=0
note_on channel=0 note=80 velocity=0 time=0
note_on channel=0 note=78 velocity=0 time=0
note_on channel=0 note=39 velocity=0 time=0
note_on channel=0 note=85 velocity=69 time=0
note_on channel=0 note=80 velocity=58 time=0
note_on channel=0 note=41 velocity=42 time=0
note_on channel=0 note=53 velocity=50 time=0
control_change channel=0 control=64 value=0 time=6
control_change channel=0 control=64 value=127 time=114
note_on channel=0 note=80 velocity=0 time=0
note_on channel=0 note=73 velocity=60 time=0
note_on channel=0 note=73 velocity=0 time=0
note_on channel=0 note=53 velocity=0 time=0
note_on channel=0 note=41 velocity=0 time=0
note_on channel=0 note=73 velocity=60 time=0
note_on channel=0 note=53 velocity=38 time=0
note_on channel=0 note=56 velocity=45 time=0
note_on channel=0 note=73 velocity=0 time=238
note_on channel=0 note=85 velocity=0 time=0
note_on channel=0 note=53 velocity=0 time=0
note_on channel=0 note=56 velocity=0 time=0
note_on channel=0 note=81 velocity=68 time=0
note_on channel=0 note=73 velocity=57 time=0
note_on channel=0 note=54 velocity=42 time=0
note_on channel=0 note=57 velocity=50 time=0
control_change channel=0 control=64 value=0 time=3
control_change channel=0 control=64 value=127 time=171
note_on channel=0 note=73 velocity=0 time=0
note_on channel=0 note=69 velocity=56 time=0
note_on channel=0 note=69 velocity=0 time=0
note_on channel=0 note=57 velocity=0 time=0
note_on channel=0 note=54 velocity=0 time=0
note_on channel=0 note=81 velocity=0 time=0
note_on channel=0 note=73 velocity=51 time=0
note_on channel=0 note=78 velocity=60 time=0
note_on channel=0 note=66 velocity=51 time=0
note_on channel=0 note=61 velocity=48 time=0
note_on channel=0 note=57 velocity=40 time=0
note_on channel=0 note=78 velocity=0 time=238
note_on channel=0 note=61 velocity=0 time=0
note_on channel=0 note=73 velocity=0 time=0
note_on channel=0 note=66 velocity=0 time=0
note_on channel=0 note=57 velocity=0 time=0
note_on channel=0 note=90 velocity=73 time=0
note_on channel=0 note=78 velocity=62 time=0
note_on channel=0 note=61 velocity=50 time=0
note_on channel=0 note=57 velocity=42 time=0
control_change channel=0 control=64 value=0 time=3
control_change channel=0 control=64 value=127 time=169
note_on channel=0 note=78 velocity=0 time=0
note_on channel=0 note=87 velocity=70 time=0
note_on channel=0 note=87 velocity=0 time=0
note_on channel=0 note=57 velocity=0 time=0
note_on channel=0 note=61 velocity=0 time=0
note_on channel=0 note=90 velocity=0 time=0
note_on channel=0 note=78 velocity=59 time=0
note_on channel=0 note=87 velocity=70 time=0
note_on channel=0 note=90 velocity=70 time=0
note_on channel=0 note=60 velocity=46 time=0
note_on channel=0 note=56 velocity=39 time=0
control_change channel=0 control=64 value=0 time=15
control_change channel=0 control=64 value=127 time=100
note_on channel=0 note=56 velocity=0 time=123
note_on channel=0 note=90 velocity=0 time=0
note_on channel=0 note=78 velocity=0 time=0
note_on channel=0 note=87 velocity=0 time=0
note_on channel=0 note=60 velocity=0 time=0
note_on channel=0 note=78 velocity=64 time=0
note_on channel=0 note=87 velocity=76 time=0
note_on channel=0 note=90 velocity=76 time=0
note_on channel=0 note=56 velocity=42 time=0
note_on channel=0 note=60 velocity=50 time=0
control_change channel=0 control=64 value=0 time=6
control_change channel=0 control=64 value=127 time=120
note_on channel=0 note=60 velocity=0 time=0
note_on channel=0 note=90 velocity=0 time=0
note_on channel=0 note=78 velocity=0 time=0
note_on channel=0 note=87 velocity=0 time=0
note_on channel=0 note=56 velocity=0 time=0
note_on channel=0 note=87 velocity=73 time=0
note_on channel=0 note=80 velocity=62 time=0
note_on channel=0 note=78 velocity=62 time=0
note_on channel=0 note=63 velocity=46 time=0
note_on channel=0 note=60 velocity=39 time=0
control_change channel=0 control=64 value=0 time=15
control_change channel=0 control=64 value=127 time=134
note_on channel=0 note=60 velocity=0 time=0
note_on channel=0 note=78 velocity=0 time=0
note_on channel=0 note=87 velocity=0 time=0
note_on channel=0 note=80 velocity=0 time=0
note_on channel=0 note=63 velocity=0 time=0
note_on channel=0 note=85 velocity=73 time=0
note_on channel=0 note=80 velocity=62 time=0
note_on channel=0 note=77 velocity=62 time=0
note_on channel=0 note=65 velocity=46 time=0
note_on channel=0 note=61 velocity=39 time=0
control_change channel=0 control=64 value=0 time=12
control_change channel=0 control=64 value=127 time=91
note_on channel=0 note=61 velocity=0 time=0
note_on channel=0 note=77 velocity=0 time=0
note_on channel=0 note=85 velocity=0 time=0
note_on channel=0 note=80 velocity=0 time=0
note_on channel=0 note=65 velocity=0 time=0
note_on channel=0 note=83 velocity=73 time=0
note_on channel=0 note=80 velocity=62 time=0
note_on channel=0 note=77 velocity=62 time=0
note_on channel=0 note=62 velocity=50 time=0
control_change channel=0 control=64 value=0 time=0
control_change channel=0 control=64 value=127 time=85
note_on channel=0 note=62 velocity=0 time=35
note_on channel=0 note=65 velocity=45 time=0
note_on channel=0 note=65 velocity=0 time=120
note_on channel=0 note=68 velocity=48 time=0
note_on channel=0 note=68 velocity=0 time=120
note_on channel=0 note=74 velocity=51 time=0
note_on channel=0 note=74 velocity=0 time=120
note_on channel=0 note=77 velocity=0 time=0
note_on channel=0 note=80 velocity=0 time=0
note_on channel=0 note=80 velocity=70 time=0
note_on channel=0 note=77 velocity=52 time=0
note_on channel=0 note=77 velocity=0 time=110
note_on channel=0 note=80 velocity=0 time=0
note_on channel=0 note=77 velocity=67 time=0
note_on channel=0 note=80 velocity=49 time=0
note_on channel=0 note=80 velocity=0 time=0
note_on channel=0 note=77 velocity=0 time=0
note_on channel=0 note=83 velocity=0 time=0
note_on channel=0 note=50 velocity=61 time=0
note_on channel=0 note=74 velocity=46 time=0
note_on channel=0 note=77 velocity=46 time=0
note_on channel=0 note=80 velocity=46 time=0
note_on channel=0 note=82 velocity=55 time=0
control_change channel=0 control=64 value=0 time=9
control_change channel=0 control=64 value=127 time=76
note_on channel=0 note=50 velocity=0 time=35
note_on channel=0 note=53 velocity=60 time=0
note_on channel=0 note=53 velocity=0 time=0
note_on channel=0 note=58 velocity=62 time=0
note_on channel=0 note=58 velocity=0 time=120
note_on channel=0 note=62 velocity=64 time=0
note_on channel=0 note=62 velocity=0 time=0
note_on channel=0 note=82 velocity=0 time=0
note_on channel=0 note=74 velocity=0 time=0
note_on channel=0 note=77 velocity=0 time=0
note_on channel=0 note=80 velocity=0 time=0
note_on channel=0 note=65 velocity=67 time=0
note_on channel=0 note=65 velocity=0 time=120
note_on channel=0 note=70 velocity=69 time=0
note_on channel=0 note=70 velocity=0 time=118
note_on channel=0 note=70 velocity=62 time=0
note_on channel=0 note=82 velocity=73 time=0
note_on channel=0 note=43 velocity=62 time=0
control_change channel=0 control=64 value=0 time=14
control_change channel=0 control=64 value=127 time=92
note_on channel=0 note=43 velocity=0 time=14
note_on channel=0 note=46 velocity=50 time=0
note_on channel=0 note=46 velocity=0 time=0
note_on channel=0 note=51 velocity=50 time=0
note_on channel=0 note=51 velocity=0 time=120
note_on channel=0 note=55 velocity=47 time=0
note_on channel=0 note=55 velocity=0 time=0
note_on channel=0 note=82 velocity=0 time=0
note_on channel=0 note=70 velocity=0 time=0
note_on channel=0 note=67 velocity=56 time=0
note_on channel=0 note=79 velocity=67 time=0
note_on channel=0 note=58 velocity=54 time=0
note_on channel=0 note=58 velocity=0 time=120
note_on channel=0 note=63 velocity=45 time=0
note_on channel=0 note=79 velocity=0 time=118
note_on channel=0 note=67 velocity=0 time=0
note_on channel=0 note=63 velocity=0 time=0
note_on channel=0 note=67 velocity=62 time=0
note_on channel=0 note=79 velocity=73 time=0
note_on channel=0 note=46 velocity=53 time=0
control_change channel=0 control=64 value=0 time=7
control_change channel=0 control=64 value=127 time=64
note_on channel=0 note=46 velocity=0 time=49
note_on channel=0 note=51 velocity=45 time=0
note_on channel=0 note=51 velocity=0 time=0
note_on channel=0 note=79 velocity=0 time=0
note_on channel=0 note=67 velocity=0 time=0
note_on channel=0 note=63 velocity=57 time=0
note_on channel=0 note=75 velocity=68 time=0
note_on channel=0 note=55 velocity=51 time=0
note_on channel=0 note=55 velocity=0 time=120
note_on channel=0 note=58 velocity=45 time=0
note_on channel=0 note=58 velocity=0 time=0
note_on channel=0 note=75 velocity=0 time=0
note_on channel=0 note=63 velocity=0 time=0
note_on channel=0 note=77 velocity=68 time=0
note_on channel=0 note=70 velocity=57 time=0
note_on channel=0 note=65 velocity=57 time=0
note_on channel=0 note=74 velocity=57 time=0
note_on channel=0 note=56 velocity=45 time=0
note_on channel=0 note=56 velocity=0 time=120
note_on channel=0 note=65 velocity=0 time=0
note_on channel=0 note=68 velocity=68 time=0
note_on channel=0 note=53 velocity=45 time=0
note_on channel=0 note=53 velocity=0 time=0
note_on channel=0 note=77 velocity=0 time=0
note_on channel=0 note=74 velocity=0 time=0
note_on channel=0 note=70 velocity=0 time=0
note_on channel=0 note=68 velocity=0 time=0
note_on channel=0 note=79 velocity=73 time=0
note_on channel=0 note=67 velocity=62 time=0
note_on channel=0 note=70 velocity=62 time=0
note_on channel=0 note=75 velocity=62 time=0
note_on channel=0 note=51 velocity=55 time=0
control_change channel=0 control=64 value=0 time=4
control_change channel=0 control=64 value=127 time=65
note_on channel=0 note=51 velocity=0 time=51
note_on channel=0 note=55 velocity=49 time=0
note_on channel=0 note=55 velocity=0 time=120
note_on channel=0 note=58 velocity=49 time=0
note_on channel=0 note=58 velocity=0 time=120
note_on channel=0 note=63 velocity=49 time=0
note_on channel=0 note=63 velocity=0 time=0
note_on channel=0 note=75 velocity=0 time=0
note_on channel=0 note=79 velocity=0 time=0
note_on channel=0 note=67 velocity=0 time=0
note_on channel=0 note=70 velocity=0 time=0
note_on channel=0 note=83 velocity=73 time=0
note_on channel=0 note=71 velocity=62 time=0
note_on channel=0 note=44 velocity=54 time=0
control_change channel=0 control=64 value=0 time=4
control_change channel=0 control=64 value=127 time=59
note_on channel=0 note=44 velocity=0 time=57
note_on channel=0 note=56 velocity=47 time=0
note_on channel=0 note=56 velocity=0 time=0
note_on channel=0 note=71 velocity=0 time=0
note_on channel=0 note=83 velocity=0 time=0
note_on channel=0 note=80 velocity=75 time=0
note_on channel=0 note=68 velocity=63 time=0
note_on channel=0 note=47 velocity=54 time=0
control_change channel=0 control=64 value=0 time=11
control_change channel=0 control=64 value=127 time=81
note_on channel=0 note=47 velocity=0 time=28
note_on channel=0 note=51 velocity=48 time=0
note_on channel=0 note=51 velocity=0 time=0
note_on channel=0 note=56 velocity=51 time=0
note_on channel=0 note=56 velocity=0 time=120
note_on channel=0 note=59 velocity=45 time=0
note_on channel=0 note=59 velocity=0 time=0
note_on channel=0 note=68 velocity=0 time=0
note_on channel=0 note=80 velocity=0 time=0
note_on channel=0 note=77 velocity=68 time=0
note_on channel=0 note=65 velocity=57 time=0
note_on channel=0 note=49 velocity=45 time=0
control_change channel=0 control=64 value=0 time=6
control_change channel=0 control=64 value=127 time=63
note_on channel=0 note=49 velocity=0 time=51
note_on channel=0 note=61 velocity=45 time=0
note_on channel=0 note=61 velocity=0 time=0
note_on channel=0 note=65 velocity=0 time=0
note_on channel=0 note=77 velocity=0 time=0
note_on channel=0 note=85 velocity=84 time=0
note_on channel=0 note=73 velocity=71 time=0
note_on channel=0 note=46 velocity=65 time=0
control_change channel=0 control=64 value=0 time=0
control_change channel=0 control=64 value=127 time=69
note_on channel=0 note=46 velocity=0 time=51
note_on channel=0 note=49 velocity=42 time=0
note_on channel=0 note=49 velocity=0 time=0
note_on channel=0 note=54 velocity=51 time=0
note_on channel=0 note=54 velocity=0 time=120
note_on channel=0 note=58 velocity=46 time=0
note_on channel=0 note=58 velocity=0 time=0
note_on channel=0 note=73 velocity=0 time=0
note_on channel=0 note=85 velocity=0 time=0
note_on channel=0 note=70 velocity=66 time=0
note_on channel=0 note=82 velocity=78 time=0
note_on channel=0 note=49 velocity=58 time=0
note_on channel=0 note=49 velocity=0 time=120
note_on channel=0 note=61 velocity=46 time=0
note_on channel=0 note=61 velocity=0 time=0
note_on channel=0 note=82 velocity=0 time=0
note_on channel=0 note=70 velocity=0 time=0
note_on channel=0 note=79 velocity=81 time=0
note_on channel=0 note=67 velocity=68 time=0
note_on channel=0 note=51 velocity=58 time=0
control_change channel=0 control=64 value=0 time=14
control_change channel=0 control=64 value=127 time=66
note_on channel=0 note=51 velocity=0 time=40
note_on channel=0 note=55 velocity=47 time=0
note_on channel=0 note=55 velocity=0 time=120
note_on channel=0 note=58 velocity=55 time=0
note_on channel=0 note=58 velocity=0 time=120
note_on channel=0 note=61 velocity=47 time=0
note_on channel=0 note=61 velocity=0 time=0
note_on channel=0 note=67 velocity=0 time=0
note_on channel=0 note=79 velocity=0 time=0
note_on channel=0 note=75 velocity=54 time=0
note_on channel=0 note=55 velocity=30 time=0
control_change channel=0 control=64 value=0 time=6
control_change channel=0 control=64 value=127 time=57
note_on channel=0 note=55 velocity=0 time=57
note_on channel=0 note=63 velocity=27 time=0
note_on channel=0 note=67 velocity=33 time=0
note_on channel=0 note=58 velocity=30 time=0
note_on channel=0 note=58 velocity=0 time=0
note_on channel=0 note=75 velocity=0 time=0
note_on channel=0 note=63 velocity=0 time=0
note_on channel=0 note=67 velocity=0 time=0
note_on channel=0 note=63 velocity=39 time=0
note_on channel=0 note=71 velocity=46 time=0
note_on channel=0 note=68 velocity=39 time=0
note_on channel=0 note=56 velocity=39 time=0
control_change channel=0 control=64 value=0 time=0
note_on channel=0 note=56 velocity=0 time=120
note_on channel=0 note=59 velocity=26 time=0
control_change channel=0 control=64 value=127 time=6
note_on channel=0 note=59 velocity=0 time=0
note_on channel=0 note=68 velocity=0 time=0
note_on channel=0 note=63 velocity=0 time=0
note_on channel=0 note=63 velocity=26 time=0
note_on channel=0 note=63 velocity=0 time=120
note_on channel=0 note=68 velocity=26 time=0
note_on channel=0 note=68 velocity=0 time=118
note_on channel=0 note=71 velocity=0 time=0
note_on channel=0 note=68 velocity=52 time=0
note_on channel=0 note=60 velocity=31 time=0
control_change channel=0 control=64 value=0 time=8
control_change channel=0 control=64 value=127 time=72
note_on channel=0 note=60 velocity=0 time=40
note_on channel=0 note=63 velocity=31 time=0
note_on channel=0 note=63 velocity=0 time=0
note_on channel=0 note=68 velocity=0 time=0
note_on channel=0 note=76 velocity=58 time=0
note_on channel=0 note=61 velocity=40 time=0
control_change channel=0 control=64 value=0 time=12
control_change channel=0 control=64 value=127 time=80
note_on channel=0 note=61 velocity=0 time=28
note_on channel=0 note=64 velocity=34 time=0
note_on channel=0 note=64 velocity=0 time=0
note_on channel=0 note=68 velocity=34 time=0
note_on channel=0 note=68 velocity=0 time=120
note_on channel=0 note=73 velocity=29 time=0
note_on channel=0 note=73 velocity=0 time=118
note_on channel=0 note=76 velocity=0 time=0
note_on channel=0 note=73 velocity=56 time=0
note_on channel=0 note=65 velocity=34 time=0
control_change channel=0 control=64 value=0 time=5
control_change channel=0 control=64 value=127 time=47
note_on channel=0 note=65 velocity=0 time=68
note_on channel=0 note=68 velocity=31 time=0
note_on channel=0 note=68 velocity=0 time=0
note_on channel=0 note=73 velocity=0 time=0
note_on channel=0 note=70 velocity=60 time=0
note_on channel=0 note=54 velocity=39 time=0
control_change channel=0 control=64 value=0 time=0
note_on channel=0 note=54 velocity=0 time=120
note_on channel=0 note=58 velocity=31 time=0
control_change channel=0 control=64 value=127 time=6
note_on channel=0 note=58 velocity=0 time=0
note_on channel=0 note=61 velocity=31 time=0
note_on channel=0 note=61 velocity=0 time=120
note_on channel=0 note=66 velocity=45 time=0
note_on channel=0 note=66 velocity=0 time=0
note_on channel=0 note=70 velocity=0 time=0
note_on channel=0 note=78 velocity=68 time=0
note_on channel=0 note=90 velocity=80 time=0
note_on channel=0 note=39 velocity=59 time=0
control_change channel=0 control=64 value=0 time=8
control_change channel=0 control=64 value=127 time=72
note_on channel=0 note=39 velocity=0 time=40
note_on channel=0 note=51 velocity=52 time=0
note_on channel=0 note=51 velocity=0 time=0
note_on channel=0 note=90 velocity=0 time=0
note_on channel=0 note=78 velocity=0 time=0
note_on channel=0 note=75 velocity=73 time=0
note_on channel=0 note=87 velocity=87 time=0
note_on channel=0 note=42 velocity=58 time=0
control_change channel=0 control=64 value=0 time=12
control_change channel=0 control=64 value=127 time=80
note_on channel=0 note=42 velocity=0 time=28
note_on channel=0 note=46 velocity=49 time=0
note_on channel=0 note=46 velocity=0 time=0
note_on channel=0 note=51 velocity=57 time=0
note_on channel=0 note=51 velocity=0 time=120
note_on channel=0 note=54 velocity=49 time=0
note_on channel=0 note=54 velocity=0 time=0
note_on channel=0 note=87 velocity=0 time=0
note_on channel=0 note=75 velocity=0 time=0
note_on channel=0 note=72 velocity=70 time=0
note_on channel=0 note=84 velocity=83 time=0
note_on channel=0 note=44 velocity=53 time=0
control_change channel=0 control=64 value=0 time=5
control_change channel=0 control=64 value=127 time=47
note_on channel=0 note=44 velocity=0 time=68
note_on channel=0 note=56 velocity=49 time=0
note_on channel=0 note=56 velocity=0 time=0
note_on channel=0 note=84 velocity=0 time=0
note_on channel=0 note=72 velocity=0 time=0
note_on channel=0 note=80 velocity=74 time=0
note_on channel=0 note=92 velocity=87 time=0
note_on channel=0 note=40 velocity=59 time=0
control_change channel=0 control=64 value=0 time=0
note_on channel=0 note=40 velocity=0 time=120
note_on channel=0 note=44 velocity=51 time=0
control_change channel=0 control=64 value=127 time=6
note_on channel=0 note=44 velocity=0 time=0
note_on channel=0 note=49 velocity=52 time=0
note_on channel=0 note=49 velocity=0 time=120
note_on channel=0 note=52 velocity=50 time=0
note_on channel=0 note=52 velocity=0 time=0
note_on channel=0 note=92 velocity=0 time=0
note_on channel=0 note=80 velocity=0 time=0
note_on channel=0 note=76 velocity=68 time=0
note_on channel=0 note=88 velocity=80 time=0
note_on channel=0 note=44 velocity=50 time=0
control_change channel=0 control=64 value=0 time=8
control_change channel=0 control=64 value=127 time=72
note_on channel=0 note=44 velocity=0 time=40
note_on channel=0 note=56 velocity=45 time=0
note_on channel=0 note=56 velocity=0 time=0
note_on channel=0 note=88 velocity=0 time=0
note_on channel=0 note=76 velocity=0 time=0
note_on channel=0 note=73 velocity=73 time=0
note_on channel=0 note=85 velocity=87 time=0
note_on channel=0 note=45 velocity=54 time=0
control_change channel=0 control=64 value=0 time=12
control_change channel=0 control=64 value=127 time=80
note_on channel=0 note=45 velocity=0 time=28
note_on channel=0 note=49 velocity=49 time=0
note_on channel=0 note=49 velocity=0 time=0
note_on channel=0 note=52 velocity=49 time=0
note_on channel=0 note=52 velocity=0 time=120
note_on channel=0 note=57 velocity=49 time=0
note_on channel=0 note=57 velocity=0 time=118
note_on channel=0 note=85 velocity=0 time=0
note_on channel=0 note=73 velocity=0 time=0
note_on channel=0 note=57 velocity=45 time=0
note_on channel=0 note=69 velocity=53 time=0
note_on channel=0 note=49 velocity=37 time=0
note_on channel=0 note=49 velocity=0 time=120
note_on channel=0 note=61 velocity=34 time=0
note_on channel=0 note=61 velocity=0 time=0
note_on channel=0 note=69 velocity=0 time=0
note_on channel=0 note=57 velocity=0 time=0
note_on channel=0 note=57 velocity=43 time=0
note_on channel=0 note=66 velocity=51 time=0
note_on channel=0 note=51 velocity=39 time=0
control_change channel=0 control=64 value=0 time=0
control_change channel=0 control=64 value=127 time=69
note_on channel=0 note=54 velocity=31 time=51
note_on channel=0 note=57 velocity=0 time=115
note_on channel=0 note=58 velocity=31 time=0
control_change channel=0 control=64 value=0 time=2
control_change channel=0 control=64 value=127 time=84
note_on channel=0 note=58 velocity=0 time=34
note_on channel=0 note=63 velocity=31 time=0
note_on channel=0 note=63 velocity=0 time=118
note_on channel=0 note=66 velocity=0 time=0
note_on channel=0 note=51 velocity=0 time=0
note_on channel=0 note=54 velocity=0 time=0
note_on channel=0 note=63 velocity=56 time=0
note_on channel=0 note=55 velocity=35 time=0
control_change channel=0 control=64 value=0 time=8
control_change channel=0 control=64 value=127 time=72
note_on channel=0 note=55 velocity=0 time=40
note_on channel=0 note=58 velocity=31 time=0
note_on channel=0 note=58 velocity=0 time=0
note_on channel=0 note=63 velocity=0 time=0
note_on channel=0 note=83 velocity=63 time=0
note_on channel=0 note=56 velocity=37 time=0
control_change channel=0 control=64 value=0 time=12
control_change channel=0 control=64 value=127 time=80
note_on channel=0 note=56 velocity=0 time=28
note_on channel=0 note=59 velocity=34 time=0
note_on channel=0 note=59 velocity=0 time=0
note_on channel=0 note=63 velocity=34 time=0
note_on channel=0 note=63 velocity=0 time=120
note_on channel=0 note=68 velocity=34 time=0
note_on channel=0 note=68 velocity=0 time=0
note_on channel=0 note=83 velocity=0 time=0
note_on channel=0 note=80 velocity=53 time=0
note_on channel=0 note=60 velocity=37 time=0
control_change channel=0 control=64 value=0 time=5
control_change channel=0 control=64 value=127 time=47
note_on channel=0 note=60 velocity=0 time=68
note_on channel=0 note=63 velocity=34 time=0
note_on channel=0 note=63 velocity=0 time=0
note_on channel=0 note=80 velocity=0 time=0
note_on channel=0 note=77 velocity=51 time=0
note_on channel=0 note=61 velocity=41 time=0
control_change channel=0 control=64 value=0 time=0
control_change channel=0 control=64 value=127 time=69
note_on channel=0 note=61 velocity=0 time=51
note_on channel=0 note=65 velocity=31 time=0
note_on channel=0 note=65 velocity=0 time=0
note_on channel=0 note=68 velocity=31 time=0
note_on channel=0 note=68 velocity=0 time=120
note_on channel=0 note=73 velocity=31 time=0
note_on channel=0 note=73 velocity=0 time=118
note_on channel=0 note=77 velocity=0 time=0
note_on channel=0 note=85 velocity=59 time=0
note_on channel=0 note=73 velocity=54 time=0
note_on channel=0 note=65 velocity=42 time=0
note_on channel=0 note=65 velocity=0 time=120
note_on channel=0 note=68 velocity=36 time=0
note_on channel=0 note=68 velocity=0 time=0
note_on channel=0 note=73 velocity=0 time=0
note_on channel=0 note=85 velocity=0 time=0
note_on channel=0 note=81 velocity=60 time=0
note_on channel=0 note=73 velocity=51 time=0
note_on channel=0 note=66 velocity=42 time=0
control_change channel=0 control=64 value=0 time=12
control_change channel=0 control=64 value=127 time=80
note_on channel=0 note=66 velocity=0 time=28
note_on channel=0 note=73 velocity=0 time=0
note_on channel=0 note=78 velocity=51 time=0
note_on channel=0 note=69 velocity=34 time=0
note_on channel=0 note=69 velocity=0 time=0
note_on channel=0 note=73 velocity=34 time=0
note_on channel=0 note=78 velocity=0 time=118
note_on channel=0 note=73 velocity=0 time=2
note_on channel=0 note=69 velocity=51 time=0
note_on channel=0 note=78 velocity=34 time=0
note_on channel=0 note=78 velocity=0 time=0
note_on channel=0 note=69 velocity=0 time=0
note_on channel=0 note=81 velocity=0 time=0
note_on channel=0 note=86 velocity=56 time=0
note_on channel=0 note=74 velocity=50 time=0
note_on channel=0 note=59 velocity=37 time=0
control_change channel=0 control=64 value=0 time=5
control_change channel=0 control=64 value=127 time=47
note_on channel=0 note=59 velocity=0 time=68
note_on channel=0 note=71 velocity=34 time=0
note_on channel=0 note=59 velocity=34 time=0
note_on channel=0 note=71 velocity=0 time=118
note_on channel=0 note=86 velocity=0 time=0
note_on channel=0 note=74 velocity=0 time=0
note_on channel=0 note=59 velocity=0 time=0
note_on channel=0 note=83 velocity=56 time=0
note_on channel=0 note=71 velocity=47 time=0
control_change channel=0 control=64 value=0 time=0
control_change channel=0 control=64 value=127 time=103
note_on channel=0 note=56 velocity=28 time=17
note_on channel=0 note=68 velocity=33 time=0
note_on channel=0 note=68 velocity=0 time=120
note_on channel=0 note=56 velocity=0 time=0
note_on channel=0 note=65 velocity=33 time=120
note_on channel=0 note=53 velocity=28 time=0
note_on channel=0 note=53 velocity=0 time=120
note_on channel=0 note=83 velocity=0 time=0
note_on channel=0 note=71 velocity=0 time=0
note_on channel=0 note=65 velocity=0 time=0
note_on channel=0 note=68 velocity=42 time=0
note_on channel=0 note=80 velocity=50 time=0
note_on channel=0 note=80 velocity=0 time=240
note_on channel=0 note=68 velocity=0 time=0
note_on channel=0 note=77 velocity=46 time=0
note_on channel=0 note=65 velocity=39 time=0
control_change channel=0 control=64 value=0 time=11
note_on channel=0 note=61 velocity=30 time=107
note_on channel=0 note=49 velocity=25 time=0
control_change channel=0 control=64 value=127 time=29
note_on channel=0 note=49 velocity=0 time=65
note_on channel=0 note=61 velocity=0 time=0
note_on channel=0 note=37 velocity=25 time=13
note_on channel=0 note=49 velocity=30 time=0
note_on channel=0 note=49 velocity=0 time=120
note_on channel=0 note=77 velocity=0 time=0
note_on channel=0 note=65 velocity=0 time=0
note_on channel=0 note=37 velocity=0 time=0
note_on channel=0 note=74 velocity=44 time=0
note_on channel=0 note=65 velocity=37 time=0
note_on channel=0 note=68 velocity=37 time=0
note_on channel=0 note=71 velocity=37 time=0
note_on channel=0 note=71 velocity=0 time=25
note_on channel=0 note=68 velocity=0 time=0
note_on channel=0 note=65 velocity=0 time=0
note_on channel=0 note=74 velocity=0 time=0
note_on channel=0 note=71 velocity=39 time=2
note_on channel=0 note=65 velocity=27 time=0
note_on channel=0 note=62 velocity=27 time=0
note_on channel=0 note=68 velocity=27 time=0
note_on channel=0 note=37 velocity=22 time=120
note_on channel=0 note=49 velocity=26 time=0
note_on channel=0 note=49 velocity=0 time=120
note_on channel=0 note=37 velocity=0 time=0
note_on channel=0 note=37 velocity=25 time=120
note_on channel=0 note=62 velocity=0 time=115
note_on channel=0 note=68 velocity=0 time=0
note_on channel=0 note=71 velocity=0 time=0
note_on channel=0 note=65 velocity=0 time=0
note_on channel=0 note=37 velocity=0 time=5
note_on channel=0 note=68 velocity=36 time=0
note_on channel=0 note=59 velocity=25 time=0
note_on channel=0 note=62 velocity=25 time=0
note_on channel=0 note=65 velocity=25 time=0
note_on channel=0 note=65 velocity=0 time=15
note_on channel=0 note=68 velocity=0 time=0
note_on channel=0 note=59 velocity=0 time=0
note_on channel=0 note=62 velocity=0 time=0
note_on channel=0 note=65 velocity=34 time=2
note_on channel=0 note=56 velocity=24 time=0
note_on channel=0 note=59 velocity=24 time=0
note_on channel=0 note=62 velocity=24 time=0
note_on channel=0 note=37 velocity=22 time=22
note_on channel=0 note=37 velocity=0 time=8
note_on channel=0 note=37 velocity=21 time=13
note_on channel=0 note=59 velocity=0 time=32
note_on channel=0 note=62 velocity=0 time=0
note_on channel=0 note=65 velocity=0 time=0
note_on channel=0 note=56 velocity=0 time=0
note_on channel=0 note=37 velocity=0 time=5
note_on channel=0 note=62 velocity=30 time=0
note_on channel=0 note=53 velocity=21 time=0
note_on channel=0 note=56 velocity=21 time=0
note_on channel=0 note=59 velocity=21 time=0
note_on channel=0 note=37 velocity=21 time=0
note_on channel=0 note=37 velocity=0 time=0
note_on channel=0 note=37 velocity=30 time=0
control_change channel=0 control=64 value=0 time=0
control_change channel=0 control=64 value=127 time=52
note_on channel=0 note=56 velocity=0 time=8
note_on channel=0 note=59 velocity=0 time=0
note_on channel=0 note=62 velocity=0 time=0
note_on channel=0 note=53 velocity=0 time=0
note_on channel=0 note=59 velocity=30 time=0
note_on channel=0 note=59 velocity=0 time=60
note_on channel=0 note=56 velocity=30 time=0
note_on channel=0 note=56 velocity=0 time=60
note_on channel=0 note=53 velocity=30 time=0
note_on channel=0 note=37 velocity=0 time=58
note_on channel=0 note=53 velocity=0 time=2
note_on channel=0 note=50 velocity=30 time=0
note_on channel=0 note=37 velocity=24 time=0
control_change channel=0 control=64 value=0 time=10
control_change channel=0 control=64 value=127 time=45
note_on channel=0 note=50 velocity=0 time=5
note_on channel=0 note=47 velocity=30 time=0
note_on channel=0 note=47 velocity=0 time=60
note_on channel=0 note=44 velocity=30 time=0
note_on channel=0 note=44 velocity=0 time=60
note_on channel=0 note=47 velocity=30 time=0
note_on channel=0 note=37 velocity=0 time=25
note_on channel=0 note=47 velocity=0 time=2
note_on channel=0 note=50 velocity=35 time=0
note_on channel=0 note=44 velocity=24 time=0
note_on channel=0 note=37 velocity=20 time=0
control_change channel=0 control=64 value=0 time=10
control_change channel=0 control=64 value=127 time=33
note_on channel=0 note=50 velocity=0 time=17
note_on channel=0 note=53 velocity=30 time=0
note_on channel=0 note=53 velocity=0 time=60
note_on channel=0 note=56 velocity=30 time=0
note_on channel=0 note=56 velocity=0 time=60
note_on channel=0 note=59 velocity=30 time=0
note_on channel=0 note=37 velocity=0 time=35
note_on channel=0 note=44 velocity=0 time=0
note_on channel=0 note=59 velocity=0 time=2
note_on channel=0 note=59 velocity=30 time=0
note_on channel=0 note=62 velocity=36 time=0
note_on channel=0 note=37 velocity=20 time=0
note_on channel=0 note=44 velocity=24 time=0
control_change channel=0 control=64 value=0 time=11
control_change channel=0 control=64 value=127 time=41
note_on channel=0 note=62 velocity=0 time=8
note_on channel=0 note=59 velocity=0 time=0
note_on channel=0 note=65 velocity=30 time=0
note_on channel=0 note=65 velocity=0 time=60
note_on channel=0 note=68 velocity=30 time=0
note_on channel=0 note=68 velocity=0 time=5
note_on channel=0 note=71 velocity=30 time=0
note_on channel=0 note=37 velocity=0 time=58
note_on channel=0 note=44 velocity=0 time=0
note_on channel=0 note=71 velocity=0 time=0
note_on channel=0 note=74 velocity=35 time=0
note_on channel=0 note=71 velocity=29 time=0
note_on channel=0 note=37 velocity=20 time=0
note_on channel=0 note=44 velocity=24 time=0
control_change channel=0 control=64 value=0 time=11
control_change channel=0 control=64 value=127 time=32
note_on channel=0 note=71 velocity=0 time=17
note_on channel=0 note=74 velocity=0 time=0
note_on channel=0 note=77 velocity=30 time=0
note_on channel=0 note=77 velocity=0 time=60
note_on channel=0 note=80 velocity=30 time=0
note_on channel=0 note=80 velocity=0 time=0
note_on channel=0 note=83 velocity=30 time=0
note_on channel=0 note=37 velocity=0 time=35
note_on channel=0 note=44 velocity=0 time=0
note_on channel=0 note=83 velocity=0 time=2
note_on channel=0 note=81 velocity=22 time=0
note_on channel=0 note=86 velocity=32 time=0
note_on channel=0 note=30 velocity=20 time=0
note_on channel=0 note=37 velocity=20 time=0
note_on channel=0 note=42 velocity=24 time=0
control_change channel=0 control=64 value=0 time=11
control_change channel=0 control=64 value=127 time=28
note_on channel=0 note=86 velocity=0 time=1
note_on channel=0 note=84 velocity=28 time=0
note_on channel=0 note=84 velocity=0 time=22
note_on channel=0 note=86 velocity=28 time=0
note_on channel=0 note=86 velocity=0 time=25
note_on channel=0 note=85 velocity=28 time=0
note_on channel=0 note=37 velocity=0 time=6
note_on channel=0 note=42 velocity=0 time=0
note_on channel=0 note=30 velocity=0 time=0
note_on channel=0 note=81 velocity=0 time=2
note_on channel=0 note=85 velocity=0 time=0
note_on channel=0 note=81 velocity=24 time=0
note_on channel=0 note=86 velocity=35 time=0
note_on channel=0 note=30 velocity=20 time=0
note_on channel=0 note=37 velocity=20 time=0
note_on channel=0 note=42 velocity=24 time=0
control_change channel=0 control=64 value=0 time=0
control_change channel=0 control=64 value=127 time=52
note_on channel=0 note=86 velocity=0 time=8
note_on channel=0 note=73 velocity=24 time=0
note_on channel=0 note=73 velocity=0 time=60
note_on channel=0 note=86 velocity=28 time=0
note_on channel=0 note=86 velocity=0 time=60
note_on channel=0 note=85 velocity=28 time=0
note_on channel=0 note=37 velocity=0 time=58
note_on channel=0 note=42 velocity=0 time=0
note_on channel=0 note=30 velocity=0 time=0
note_on channel=0 note=81 velocity=0 time=2
note_on channel=0 note=85 velocity=0 time=0
note_on channel=0 note=73 velocity=22 time=0
note_on channel=0 note=81 velocity=32 time=0
note_on channel=0 note=37 velocity=20 time=0
note_on channel=0 note=42 velocity=20 time=0
note_on channel=0 note=49 velocity=24 time=0
control_change channel=0 control=64 value=0 time=10
control_change channel=0 control=64 value=127 time=45
note_on channel=0 note=73 velocity=0 time=5
note_on channel=0 note=85 velocity=28 time=0
note_on channel=0 note=85 velocity=0 time=60
note_on channel=0 note=86 velocity=28 time=0
note_on channel=0 note=86 velocity=0 time=60
note_on channel=0 note=85 velocity=28 time=0
note_on channel=0 note=42 velocity=0 time=58
note_on channel=0 note=49 velocity=0 time=0
note_on channel=0 note=37 velocity=0 time=0
note_on channel=0 note=81 velocity=0 time=2
note_on channel=0 note=85 velocity=0 time=0
note_on channel=0 note=83 velocity=28 time=0
note_on channel=0 note=37 velocity=20 time=0
note_on channel=0 note=42 velocity=20 time=0
note_on channel=0 note=49 velocity=24 time=0
control_change channel=0 control=64 value=0 time=10
control_change channel=0 control=64 value=127 time=33
note_on channel=0 note=83 velocity=0 time=17
note_on channel=0 note=69 velocity=24 time=0
note_on channel=0 note=69 velocity=0 time=60
note_on channel=0 note=83 velocity=28 time=0
note_on channel=0 note=83 velocity=0 time=0
note_on channel=0 note=81 velocity=26 time=0
note_on channel=0 note=37 velocity=0 time=58
note_on channel=0 note=49 velocity=0 time=0
note_on channel=0 note=42 velocity=0 time=0
note_on channel=0 note=81 velocity=0 time=0
note_on channel=0 note=69 velocity=28 time=0
note_on channel=0 note=37 velocity=20 time=0
note_on channel=0 note=42 velocity=20 time=0
note_on channel=0 note=49 velocity=24 time=0
control_change channel=0 control=64 value=0 time=11
control_change channel=0 control=64 value=127 time=41
note_on channel=0 note=69 velocity=0 time=8
note_on channel=0 note=81 velocity=28 time=0
note_on channel=0 note=81 velocity=0 time=60
note_on channel=0 note=83 velocity=28 time=0
note_on channel=0 note=83 velocity=0 time=60
note_on channel=0 note=81 velocity=28 time=0
note_on channel=0 note=37 velocity=0 time=58
note_on channel=0 note=49 velocity=0 time=0
note_on channel=0 note=42 velocity=0 time=0
note_on channel=0 note=81 velocity=0 time=0
note_on channel=0 note=80 velocity=34 time=0
note_on channel=0 note=37 velocity=20 time=0
note_on channel=0 note=42 velocity=20 time=0
note_on channel=0 note=49 velocity=24 time=0
control_change channel=0 control=64 value=0 time=11
control_change channel=0 control=64 value=127 time=32
note_on channel=0 note=80 velocity=0 time=17
note_on channel=0 note=66 velocity=24 time=0
note_on channel=0 note=66 velocity=0 time=60
note_on channel=0 note=80 velocity=28 time=0
note_on channel=0 note=80 velocity=0 time=0
note_on channel=0 note=78 velocity=28 time=0
note_on channel=0 note=37 velocity=0 time=58
note_on channel=0 note=49 velocity=0 time=0
note_on channel=0 note=42 velocity=0 time=0
note_on channel=0 note=78 velocity=0 time=0
note_on channel=0 note=68 velocity=28 time=0
note_on channel=0 note=37 velocity=20 time=0
note_on channel=0 note=41 velocity=20 time=0
note_on channel=0 note=49 velocity=24 time=0
control_change channel=0 control=64 value=0 time=11
control_change channel=0 control=64 value=127 time=38
note_on channel=0 note=68 velocity=0 time=11
note_on channel=0 note=80 velocity=28 time=0
note_on channel=0 note=80 velocity=0 time=60
note_on channel=0 note=81 velocity=26 time=0
note_on channel=0 note=81 velocity=0 time=60
note_on channel=0 note=80 velocity=26 time=0
note_on channel=0 note=37 velocity=0 time=58
note_on channel=0 note=49 velocity=0 time=0
note_on channel=0 note=41 velocity=0 time=0
note_on channel=0 note=80 velocity=0 time=2
note_on channel=0 note=69 velocity=31 time=0
note_on channel=0 note=37 velocity=28 time=0
note_on channel=0 note=42 velocity=28 time=0
note_on channel=0 note=49 velocity=34 time=0
control_change channel=0 control=64 value=0 time=0
control_change channel=0 control=64 value=127 time=52
note_on channel=0 note=69 velocity=0 time=0
note_on channel=0 note=81 velocity=31 time=0
note_on channel=0 note=81 velocity=0 time=60
note_on channel=0 note=83 velocity=29 time=0
note_on channel=0 note=83 velocity=0 time=60
note_on channel=0 note=81 velocity=30 time=0
note_on channel=0 note=37 velocity=0 time=58
note_on channel=0 note=42 velocity=0 time=0
note_on channel=0 note=49 velocity=0 time=0
note_on channel=0 note=81 velocity=0 time=2
note_on channel=0 note=83 velocity=39 time=0
note_on channel=0 note=37 velocity=23 time=0
note_on channel=0 note=42 velocity=23 time=0
note_on channel=0 note=49 velocity=27 time=0
control_change channel=0 control=64 value=0 time=10
control_change channel=0 control=64 value=127 time=45
note_on channel=0 note=83 velocity=0 time=5
note_on channel=0 note=70 velocity=28 time=0
note_on channel=0 note=70 velocity=0 time=60
note_on channel=0 note=83 velocity=35 time=0
note_on channel=0 note=83 velocity=0 time=60
note_on channel=0 note=82 velocity=35 time=0
note_on channel=0 note=37 velocity=0 time=58
note_on channel=0 note=49 velocity=0 time=0
note_on channel=0 note=42 velocity=0 time=0
note_on channel=0 note=82 velocity=0 time=2
note_on channel=0 note=71 velocity=36 time=0
note_on channel=0 note=38 velocity=24 time=0
note_on channel=0 note=42 velocity=24 time=0
note_on channel=0 note=50 velocity=28 time=0
control_change channel=0 control=64 value=0 time=10
control_change channel=0 control=64 value=127 time=33
note_on channel=0 note=71 velocity=0 time=17
note_on channel=0 note=83 velocity=37 time=0
note_on channel=0 note=83 velocity=0 time=60
note_on channel=0 note=85 velocity=37 time=0
note_on channel=0 note=85 velocity=0 time=60
note_on channel=0 note=83 velocity=38 time=0
note_on channel=0 note=38 velocity=0 time=58
note_on channel=0 note=50 velocity=0 time=0
note_on channel=0 note=42 velocity=0 time=0
note_on channel=0 note=83 velocity=0 time=2
note_on channel=0 note=85 velocity=49 time=0
note_on channel=0 note=38 velocity=25 time=0
note_on channel=0 note=42 velocity=25 time=0
note_on channel=0 note=50 velocity=30 time=0
control_change channel=0 control=64 value=0 time=11
control_change channel=0 control=64 value=127 time=41
note_on channel=0 note=85 velocity=0 time=8
note_on channel=0 note=83 velocity=40 time=0
note_on channel=0 note=83 velocity=0 time=60
note_on channel=0 note=71 velocity=34 time=0
note_on channel=0 note=71 velocity=0 time=60
note_on channel=0 note=83 velocity=42 time=0
note_on channel=0 note=38 velocity=0 time=58
note_on channel=0 note=50 velocity=0 time=0
note_on channel=0 note=42 velocity=0 time=0
note_on channel=0 note=83 velocity=0 time=2
note_on channel=0 note=71 velocity=42 time=0
note_on channel=0 note=38 velocity=26 time=0
note_on channel=0 note=42 velocity=26 time=0
note_on channel=0 note=50 velocity=31 time=0
control_change channel=0 control=64 value=0 time=11
control_change channel=0 control=64 value=127 time=32
note_on channel=0 note=71 velocity=0 time=17
note_on channel=0 note=83 velocity=44 time=0
note_on channel=0 note=83 velocity=0 time=60
note_on channel=0 note=85 velocity=42 time=0
note_on channel=0 note=85 velocity=0 time=0
note_on channel=0 note=83 velocity=42 time=0
note_on channel=0 note=38 velocity=0 time=58
note_on channel=0 note=50 velocity=0 time=0
note_on channel=0 note=42 velocity=0 time=0
note_on channel=0 note=83 velocity=0 time=0
note_on channel=0 note=88 velocity=55 time=0
note_on channel=0 note=35 velocity=27 time=0
note_on channel=0 note=42 velocity=27 time=0
note_on channel=0 note=47 velocity=32 time=0
control_change channel=0 control=64 value=0 time=11
control_change channel=0 control=64 value=127 time=38
note_on channel=0 note=88 velocity=0 time=11
note_on channel=0 note=86 velocity=46 time=0
note_on channel=0 note=86 velocity=0 time=60
note_on channel=0 note=74 velocity=40 time=0
note_on channel=0 note=74 velocity=0 time=60
note_on channel=0 note=86 velocity=48 time=0
note_on channel=0 note=35 velocity=0 time=58
note_on channel=0 note=47 velocity=0 time=0
note_on channel=0 note=42 velocity=0 time=0
note_on channel=0 note=86 velocity=0 time=0
note_on channel=0 note=74 velocity=50 time=0
note_on channel=0 note=35 velocity=29 time=0
note_on channel=0 note=42 velocity=29 time=0
note_on channel=0 note=47 velocity=35 time=0
control_change channel=0 control=64 value=0 time=0
control_change channel=0 control=64 value=127 time=52
note_on channel=0 note=74 velocity=0 time=8
note_on channel=0 note=86 velocity=50 time=0
note_on channel=0 note=86 velocity=0 time=60
note_on channel=0 note=88 velocity=51 time=0
note_on channel=0 note=88 velocity=0 time=60
note_on channel=0 note=86 velocity=51 time=0
note_on channel=0 note=35 velocity=0 time=58
note_on channel=0 note=47 velocity=0 time=0
note_on channel=0 note=42 velocity=0 time=0
note_on channel=0 note=86 velocity=0 time=0
note_on channel=0 note=88 velocity=60 time=0
note_on channel=0 note=47 velocity=29 time=0
note_on channel=0 note=54 velocity=29 time=0
note_on channel=0 note=59 velocity=34 time=0
control_change channel=0 control=64 value=0 time=10
control_change channel=0 control=64 value=127 time=45
note_on channel=0 note=88 velocity=0 time=5
note_on channel=0 note=86 velocity=43 time=0
note_on channel=0 note=86 velocity=0 time=60
note_on channel=0 note=74 velocity=52 time=0
note_on channel=0 note=74 velocity=0 time=0
note_on channel=0 note=86 velocity=53 time=0
note_on channel=0 note=47 velocity=0 time=58
note_on channel=0 note=59 velocity=0 time=0
note_on channel=0 note=54 velocity=0 time=0
note_on channel=0 note=86 velocity=0 time=0
note_on channel=0 note=73 velocity=52 time=0
note_on channel=0 note=45 velocity=30 time=0
note_on channel=0 note=54 velocity=30 time=0
note_on channel=0 note=57 velocity=36 time=0
control_change channel=0 control=64 value=0 time=10
control_change channel=0 control=64 value=127 time=33
note_on channel=0 note=73 velocity=0 time=17
note_on channel=0 note=85 velocity=54 time=0
note_on channel=0 note=85 velocity=0 time=60
note_on channel=0 note=86 velocity=54 time=0
note_on channel=0 note=86 velocity=0 time=60
note_on channel=0 note=85 velocity=55 time=0
note_on channel=0 note=45 velocity=0 time=58
note_on channel=0 note=57 velocity=0 time=0
note_on channel=0 note=54 velocity=0 time=0
note_on channel=0 note=85 velocity=0 time=2
note_on channel=0 note=86 velocity=68 time=0
note_on channel=0 note=45 velocity=31 time=0
note_on channel=0 note=54 velocity=31 time=0
note_on channel=0 note=57 velocity=37 time=0
control_change channel=0 control=64 value=0 time=11
control_change channel=0 control=64 value=127 time=41
note_on channel=0 note=86 velocity=0 time=8
note_on channel=0 note=85 velocity=56 time=0
note_on channel=0 note=85 velocity=0 time=60
note_on channel=0 note=73 velocity=47 time=0
note_on channel=0 note=73 velocity=0 time=60
note_on channel=0 note=85 velocity=56 time=0
note_on channel=0 note=45 velocity=0 time=58
note_on channel=0 note=57 velocity=0 time=0
note_on channel=0 note=54 velocity=0 time=0
note_on channel=0 note=85 velocity=0 time=0
note_on channel=0 note=77 velocity=43 time=0
note_on channel=0 note=83 velocity=57 time=0
note_on channel=0 note=44 velocity=32 time=0
note_on channel=0 note=49 velocity=32 time=0
note_on channel=0 note=56 velocity=38 time=0
control_change channel=0 control=64 value=0 time=11
control_change channel=0 control=64 value=127 time=32
note_on channel=0 note=83 velocity=0 time=17
note_on channel=0 note=77 velocity=0 time=0
note_on channel=0 note=89 velocity=57 time=0
note_on channel=0 note=89 velocity=0 time=60
note_on channel=0 note=90 velocity=58 time=0
note_on channel=0 note=90 velocity=0 time=0
note_on channel=0 note=89 velocity=58 time=0
note_on channel=0 note=49 velocity=0 time=58
note_on channel=0 note=56 velocity=0 time=0
note_on channel=0 note=44 velocity=0 time=0
note_on channel=0 note=89 velocity=0 time=0
note_on channel=0 note=92 velocity=70 time=0
note_on channel=0 note=42 velocity=33 time=0
note_on channel=0 note=49 velocity=33 time=0
note_on channel=0 note=54 velocity=39 time=0
control_change channel=0 control=64 value=0 time=11
control_change channel=0 control=64 value=127 time=38
note_on channel=0 note=92 velocity=0 time=11
note_on channel=0 note=90 velocity=59 time=0
note_on channel=0 note=90 velocity=0 time=60
note_on channel=0 note=81 velocity=50 time=0
note_on channel=0 note=78 velocity=50 time=0
note_on channel=0 note=78 velocity=0 time=0
note_on channel=0 note=81 velocity=0 time=0
note_on channel=0 note=90 velocity=60 time=0
note_on channel=0 note=42 velocity=0 time=58
note_on channel=0 note=54 velocity=0 time=0
note_on channel=0 note=49 velocity=0 time=0
note_on channel=0 note=90 velocity=0 time=0
note_on channel=0 note=93 velocity=68 time=0
note_on channel=0 note=41 velocity=35 time=0
note_on channel=0 note=49 velocity=35 time=0
note_on channel=0 note=56 velocity=42 time=0
control_change channel=0 control=64 value=0 time=0
control_change channel=0 control=64 value=127 time=52
note_on channel=0 note=93 velocity=0 time=8
note_on channel=0 note=92 velocity=61 time=0
note_on channel=0 note=92 velocity=0 time=60
note_on channel=0 note=80 velocity=61 time=0
note_on channel=0 note=80 velocity=0 time=60
note_on channel=0 note=92 velocity=61 time=0
note_on channel=0 note=41 velocity=0 time=58
note_on channel=0 note=56 velocity=0 time=0
note_on channel=0 note=49 velocity=0 time=0
note_on channel=0 note=92 velocity=0 time=0
note_on channel=0 note=41 velocity=34 time=0
note_on channel=0 note=49 velocity=34 time=0
note_on channel=0 note=56 velocity=40 time=0
control_change channel=0 control=64 value=0 time=10
control_change channel=0 control=64 value=127 time=45
note_on channel=0 note=92 velocity=51 time=0
note_on channel=0 note=92 velocity=0 time=60
note_on channel=0 note=80 velocity=60 time=0
note_on channel=0 note=80 velocity=0 time=60
note_on channel=0 note=92 velocity=55 time=0
note_on channel=0 note=56 velocity=0 time=58
note_on channel=0 note=41 velocity=0 time=0
note_on channel=0 note=49 velocity=0 time=0
note_on channel=0 note=92 velocity=0 time=2
note_on channel=0 note=53 velocity=34 time=0
note_on channel=0 note=56 velocity=34 time=0
note_on channel=0 note=59 velocity=34 time=0
note_on channel=0 note=61 velocity=40 time=0
control_change channel=0 control=64 value=0 time=10
control_change channel=0 control=64 value=127 time=33
note_on channel=0 note=92 velocity=54 time=17
note_on channel=0 note=92 velocity=0 time=60
note_on channel=0 note=80 velocity=59 time=0
note_on channel=0 note=80 velocity=0 time=0
note_on channel=0 note=92 velocity=55 time=0
note_on channel=0 note=61 velocity=0 time=58
note_on channel=0 note=59 velocity=0 time=0
note_on channel=0 note=53 velocity=0 time=0
note_on channel=0 note=56 velocity=0 time=0
note_on channel=0 note=92 velocity=0 time=0
note_on channel=0 note=53 velocity=34 time=0
note_on channel=0 note=56 velocity=34 time=0
note_on channel=0 note=59 velocity=34 time=0
note_on channel=0 note=62 velocity=40 time=0
control_change channel=0 control=64 value=0 time=11
control_change channel=0 control=64 value=127 time=41
note_on channel=0 note=80 velocity=53 time=8
note_on channel=0 note=80 velocity=0 time=60
note_on channel=0 note=88 velocity=64 time=0
note_on channel=0 note=88 velocity=0 time=60
note_on channel=0 note=86 velocity=53 time=0
note_on channel=0 note=62 velocity=0 time=58
note_on channel=0 note=59 velocity=0 time=0
note_on channel=0 note=53 velocity=0 time=0
note_on channel=0 note=56 velocity=0 time=0
note_on channel=0 note=86 velocity=0 time=0
note_on channel=0 note=85 velocity=61 time=0
note_on channel=0 note=53 velocity=34 time=0
note_on channel=0 note=56 velocity=34 time=0
note_on channel=0 note=59 velocity=34 time=0
note_on channel=0 note=62 velocity=40 time=0
control_change channel=0 control=64 value=0 time=11
control_change channel=0 control=64 value=127 time=32
note_on channel=0 note=85 velocity=0 time=17
note_on channel=0 note=86 velocity=61 time=0
note_on channel=0 note=86 velocity=0 time=60
note_on channel=0 note=80 velocity=57 time=0
note_on channel=0 note=80 velocity=0 time=60
note_on channel=0 note=86 velocity=57 time=0
note_on channel=0 note=59 velocity=0 time=58
note_on channel=0 note=62 velocity=0 time=0
note_on channel=0 note=53 velocity=0 time=0
note_on channel=0 note=56 velocity=0 time=0
note_on channel=0 note=86 velocity=0 time=2
note_on channel=0 note=53 velocity=34 time=0
note_on channel=0 note=56 velocity=34 time=0
note_on channel=0 note=59 velocity=34 time=0
note_on channel=0 note=62 velocity=40 time=0
control_change channel=0 control=64 value=0 time=11
control_change channel=0 control=64 value=127 time=38
note_on channel=0 note=86 velocity=56 time=11
note_on channel=0 note=86 velocity=0 time=60
note_on channel=0 note=80 velocity=64 time=0
note_on channel=0 note=80 velocity=0 time=60
note_on channel=0 note=86 velocity=56 time=0
note_on channel=0 note=62 velocity=0 time=58
note_on channel=0 note=59 velocity=0 time=0
note_on channel=0 note=53 velocity=0 time=0
note_on channel=0 note=56 velocity=0 time=0
note_on channel=0 note=86 velocity=0 time=2
note_on channel=0 note=74 velocity=61 time=0
note_on channel=0 note=53 velocity=35 time=0
note_on channel=0 note=56 velocity=35 time=0
note_on channel=0 note=59 velocity=35 time=0
note_on channel=0 note=62 velocity=42 time=0
control_change channel=0 control=64 value=0 time=0
control_change channel=0 control=64 value=127 time=52
note_on channel=0 note=74 velocity=0 time=8
note_on channel=0 note=85 velocity=54 time=0
note_on channel=0 note=85 velocity=0 time=60
note_on channel=0 note=88 velocity=58 time=0
note_on channel=0 note=88 velocity=0 time=0
note_on channel=0 note=86 velocity=53 time=0
note_on channel=0 note=59 velocity=0 time=58
note_on channel=0 note=62 velocity=0 time=0
note_on channel=0 note=53 velocity=0 time=0
note_on channel=0 note=56 velocity=0 time=0
note_on channel=0 note=86 velocity=0 time=0
note_on channel=0 note=85 velocity=66 time=0
note_on channel=0 note=41 velocity=34 time=0
note_on channel=0 note=44 velocity=34 time=0
note_on channel=0 note=53 velocity=40 time=0
control_change channel=0 control=64 value=0 time=10
control_change channel=0 control=64 value=127 time=45
note_on channel=0 note=85 velocity=0 time=5
note_on channel=0 note=86 velocity=51 time=0
note_on channel=0 note=86 velocity=0 time=60
note_on channel=0 note=74 velocity=61 time=0
note_on channel=0 note=74 velocity=0 time=60
note_on channel=0 note=86 velocity=54 time=0
note_on channel=0 note=41 velocity=0 time=58
note_on channel=0 note=53 velocity=0 time=0
note_on channel=0 note=44 velocity=0 time=0
note_on channel=0 note=86 velocity=0 time=0
note_on channel=0 note=74 velocity=63 time=0
note_on channel=0 note=41 velocity=34 time=0
note_on channel=0 note=44 velocity=34 time=0
note_on channel=0 note=53 velocity=40 time=0
control_change channel=0 control=64 value=0 time=10
control_change channel=0 control=64 value=127 time=33
note_on channel=0 note=74 velocity=0 time=17
note_on channel=0 note=86 velocity=57 time=0
note_on channel=0 note=86 velocity=0 time=60
note_on channel=0 note=88 velocity=64 time=0
note_on channel=0 note=88 velocity=0 time=60
note_on channel=0 note=86 velocity=57 time=0
note_on channel=0 note=41 velocity=0 time=58
note_on channel=0 note=53 velocity=0 time=0
note_on channel=0 note=44 velocity=0 time=0
note_on channel=0 note=86 velocity=0 time=0
note_on channel=0 note=86 velocity=66 time=0
note_on channel=0 note=41 velocity=30 time=0
note_on channel=0 note=44 velocity=30 time=0
note_on channel=0 note=53 velocity=36 time=0
control_change channel=0 control=64 value=0 time=11
control_change channel=0 control=64 value=127 time=41
note_on channel=0 note=86 velocity=0 time=8
note_on channel=0 note=85 velocity=53 time=0
note_on channel=0 note=85 velocity=0 time=60
note_on channel=0 note=73 velocity=59 time=0
note_on channel=0 note=73 velocity=0 time=0
note_on channel=0 note=85 velocity=51 time=0
note_on channel=0 note=41 velocity=0 time=58
note_on channel=0 note=53 velocity=0 time=0
note_on channel=0 note=44 velocity=0 time=0
note_on channel=0 note=85 velocity=0 time=0
note_on channel=0 note=84 velocity=50 time=0
note_on channel=0 note=42 velocity=28 time=0
note_on channel=0 note=45 velocity=28 time=0
note_on channel=0 note=54 velocity=33 time=0
control_change channel=0 control=64 value=0 time=11
control_change channel=0 control=64 value=127 time=32
note_on channel=0 note=84 velocity=0 time=17
note_on channel=0 note=85 velocity=49 time=0
note_on channel=0 note=85 velocity=0 time=60
note_on channel=0 note=73 velocity=48 time=0
note_on channel=0 note=73 velocity=0 time=60
note_on channel=0 note=85 velocity=47 time=0
note_on channel=0 note=42 velocity=0 time=58
note_on channel=0 note=54 velocity=0 time=0
note_on channel=0 note=45 velocity=0 time=0
note_on channel=0 note=85 velocity=0 time=0
note_on channel=0 note=82 velocity=55 time=0
note_on channel=0 note=44 velocity=26 time=0
note_on channel=0 note=47 velocity=26 time=0
note_on channel=0 note=56 velocity=31 time=0
control_change channel=0 control=64 value=0 time=11
control_change channel=0 control=64 value=127 time=38
note_on channel=0 note=82 velocity=0 time=11
note_on channel=0 note=83 velocity=46 time=0
note_on channel=0 note=83 velocity=0 time=60
note_on channel=0 note=71 velocity=37 time=0
note_on channel=0 note=71 velocity=0 time=60
note_on channel=0 note=83 velocity=44 time=0
note_on channel=0 note=44 velocity=0 time=58
note_on channel=0 note=56 velocity=0 time=0
note_on channel=0 note=47 velocity=0 time=0
note_on channel=0 note=83 velocity=0 time=0
note_on channel=0 note=71 velocity=50 time=0
note_on channel=0 note=44 velocity=25 time=0
note_on channel=0 note=47 velocity=25 time=0
note_on channel=0 note=56 velocity=30 time=0
control_change channel=0 control=64 value=0 time=0
control_change channel=0 control=64 value=127 time=52
note_on channel=0 note=71 velocity=0 time=8
note_on channel=0 note=83 velocity=44 time=0
note_on channel=0 note=83 velocity=0 time=60
note_on channel=0 note=85 velocity=45 time=0
note_on channel=0 note=85 velocity=0 time=0
note_on channel=0 note=83 velocity=46 time=0
note_on channel=0 note=44 velocity=0 time=58
note_on channel=0 note=56 velocity=0 time=0
note_on channel=0 note=47 velocity=0 time=0
note_on channel=0 note=83 velocity=0 time=0
note_on channel=0 note=82 velocity=55 time=0
note_on channel=0 note=56 velocity=26 time=0
note_on channel=0 note=59 velocity=26 time=0
note_on channel=0 note=62 velocity=26 time=0
note_on channel=0 note=65 velocity=31 time=0
control_change channel=0 control=64 value=0 time=10
control_change channel=0 control=64 value=127 time=45
note_on channel=0 note=82 velocity=0 time=5
note_on channel=0 note=83 velocity=48 time=0
note_on channel=0 note=83 velocity=0 time=60
note_on channel=0 note=71 velocity=43 time=0
note_on channel=0 note=71 velocity=0 time=60
note_on channel=0 note=83 velocity=51 time=0
note_on channel=0 note=62 velocity=0 time=58
note_on channel=0 note=65 velocity=0 time=0
note_on channel=0 note=56 velocity=0 time=0
note_on channel=0 note=59 velocity=0 time=0
note_on channel=0 note=83 velocity=0 time=2
note_on channel=0 note=71 velocity=56 time=0
note_on channel=0 note=56 velocity=29 time=0
note_on channel=0 note=59 velocity=29 time=0
note_on channel=0 note=62 velocity=29 time=0
note_on channel=0 note=65 velocity=35 time=0
control_change channel=0 control=64 value=0 time=10
control_change channel=0 control=64 value=127 time=33
note_on channel=0 note=71 velocity=0 time=17
note_on channel=0 note=83 velocity=54 time=0
note_on channel=0 note=83 velocity=0 time=60
note_on channel=0 note=85 velocity=55 time=0
note_on channel=0 note=85 velocity=0 time=60
note_on channel=0 note=83 velocity=56 time=0
note_on channel=0 note=62 velocity=0 time=58
note_on channel=0 note=65 velocity=0 time=0
note_on channel=0 note=56 velocity=0 time=0
note_on channel=0 note=59 velocity=0 time=0
note_on channel=0 note=83 velocity=0 time=2
note_on channel=0 note=59 velocity=32 time=0
note_on channel=0 note=56 velocity=32 time=0
note_on channel=0 note=62 velocity=32 time=0
note_on channel=0 note=65 velocity=38 time=0
control_change channel=0 control=64 value=0 time=11
control_change channel=0 control=64 value=127 time=41
note_on channel=0 note=85 velocity=49 time=8
note_on channel=0 note=85 velocity=0 time=60
note_on channel=0 note=71 velocity=43 time=0
note_on channel=0 note=71 velocity=0 time=0
note_on channel=0 note=83 velocity=49 time=0
note_on channel=0 note=65 velocity=0 time=58
note_on channel=0 note=62 velocity=0 time=0
note_on channel=0 note=59 velocity=0 time=0
note_on channel=0 note=56 velocity=0 time=0
note_on channel=0 note=83 velocity=0 time=0
note_on channel=0 note=57 velocity=31 time=0
note_on channel=0 note=61 velocity=31 time=0
note_on channel=0 note=66 velocity=37 time=0
control_change channel=0 control=64 value=0 time=11
control_change channel=0 control=64 value=127 time=32
note_on channel=0 note=83 velocity=45 time=17
note_on channel=0 note=83 velocity=0 time=60
note_on channel=0 note=69 velocity=43 time=0
note_on channel=0 note=69 velocity=0 time=60
note_on channel=0 note=81 velocity=43 time=0
note_on channel=0 note=66 velocity=0 time=58
note_on channel=0 note=57 velocity=0 time=0
note_on channel=0 note=61 velocity=0 time=0
note_on channel=0 note=81 velocity=0 time=0
note_on channel=0 note=59 velocity=30 time=0
note_on channel=0 note=62 velocity=30 time=0
note_on channel=0 note=66 velocity=36 time=0
control_change channel=0 control=64 value=0 time=11
control_change channel=0 control=64 value=127 time=38
note_on channel=0 note=81 velocity=49 time=11
note_on channel=0 note=66 velocity=0 time=59
note_on channel=0 note=59 velocity=0 time=0
note_on channel=0 note=62 velocity=0 time=0
note_on channel=0 note=81 velocity=0 time=1
note_on channel=0 note=68 velocity=47 time=0
note_on channel=0 note=60 velocity=30 time=0
note_on channel=0 note=63 velocity=30 time=0
note_on channel=0 note=66 velocity=36 time=0
note_on channel=0 note=68 velocity=0 time=60
note_on channel=0 note=80 velocity=54 time=0
note_on channel=0 note=80 velocity=0 time=0
note_on channel=0 note=66 velocity=0 time=0
note_on channel=0 note=63 velocity=0 time=0
note_on channel=0 note=60 velocity=0 time=0
note_on channel=0 note=68 velocity=54 time=0
control_change channel=0 control=64 value=0 time=0
control_change channel=0 control=64 value=127 time=52
note_on channel=0 note=68 velocity=0 time=8
note_on channel=0 note=80 velocity=54 time=0
note_on channel=0 note=80 velocity=0 time=60
note_on channel=0 note=79 velocity=51 time=0
note_on channel=0 note=60 velocity=31 time=0
note_on channel=0 note=63 velocity=31 time=0
note_on channel=0 note=66 velocity=31 time=0
note_on channel=0 note=68 velocity=37 time=0
note_on channel=0 note=79 velocity=0 time=60
note_on channel=0 note=80 velocity=51 time=0
note_on channel=0 note=80 velocity=0 time=60
note_on channel=0 note=68 velocity=0 time=0
note_on channel=0 note=60 velocity=0 time=0
note_on channel=0 note=63 velocity=0 time=0
note_on channel=0 note=66 velocity=0 time=0
note_on channel=0 note=81 velocity=61 time=0
control_change channel=0 control=64 value=0 time=10
control_change channel=0 control=64 value=127 time=45
note_on channel=0 note=81 velocity=0 time=5
note_on channel=0 note=80 velocity=43 time=0
note_on channel=0 note=80 velocity=0 time=60
note_on channel=0 note=68 velocity=52 time=0
note_on channel=0 note=60 velocity=29 time=0
note_on channel=0 note=63 velocity=29 time=0
note_on channel=0 note=66 velocity=34 time=0
note_on channel=0 note=68 velocity=0 time=60
note_on channel=0 note=80 velocity=52 time=0
note_on channel=0 note=80 velocity=0 time=60
note_on channel=0 note=66 velocity=0 time=0
note_on channel=0 note=63 velocity=0 time=0
note_on channel=0 note=60 velocity=0 time=0
note_on channel=0 note=68 velocity=50 time=0
control_change channel=0 control=64 value=0 time=10
control_change channel=0 control=64 value=127 time=33
note_on channel=0 note=68 velocity=0 time=17
note_on channel=0 note=80 velocity=51 time=0
note_on channel=0 note=80 velocity=0 time=60
note_on channel=0 note=81 velocity=51 time=0
note_on channel=0 note=66 velocity=28 time=0
note_on channel=0 note=60 velocity=28 time=0
note_on channel=0 note=63 velocity=28 time=0
note_on channel=0 note=68 velocity=34 time=0
note_on channel=0 note=81 velocity=0 time=60
note_on channel=0 note=80 velocity=50 time=0
note_on channel=0 note=80 velocity=0 time=60
note_on channel=0 note=68 velocity=0 time=0
note_on channel=0 note=66 velocity=0 time=0
note_on channel=0 note=60 velocity=0 time=0
note_on channel=0 note=63 velocity=0 time=0
note_on channel=0 note=81 velocity=61 time=0
control_change channel=0 control=64 value=0 time=11
control_change channel=0 control=64 value=127 time=41
note_on channel=0 note=81 velocity=0 time=8
note_on channel=0 note=80 velocity=50 time=0
note_on channel=0 note=80 velocity=0 time=60
note_on channel=0 note=68 velocity=41 time=0
note_on channel=0 note=60 velocity=27 time=0
note_on channel=0 note=63 velocity=27 time=0
note_on channel=0 note=66 velocity=33 time=0
note_on channel=0 note=68 velocity=0 time=0
note_on channel=0 note=80 velocity=49 time=0
note_on channel=0 note=80 velocity=0 time=0
note_on channel=0 note=66 velocity=0 time=0
note_on channel=0 note=63 velocity=0 time=0
note_on channel=0 note=60 velocity=0 time=0
note_on channel=0 note=69 velocity=49 time=0
control_change channel=0 control=64 value=0 time=11
control_change channel=0 control=64 value=127 time=32
note_on channel=0 note=69 velocity=0 time=17
note_on channel=0 note=81 velocity=48 time=0
note_on channel=0 note=81 velocity=0 time=60
note_on channel=0 note=83 velocity=48 time=0
note_on channel=0 note=60 velocity=27 time=0
note_on channel=0 note=63 velocity=27 time=0
note_on channel=0 note=66 velocity=27 time=0
note_on channel=0 note=69 velocity=32 time=0
note_on channel=0 note=83 velocity=0 time=60
note_on channel=0 note=81 velocity=48 time=0
note_on channel=0 note=81 velocity=0 time=60
note_on channel=0 note=69 velocity=0 time=0
note_on channel=0 note=60 velocity=0 time=0
note_on channel=0 note=63 velocity=0 time=0
note_on channel=0 note=66 velocity=0 time=0
note_on channel=0 note=80 velocity=57 time=0
control_change channel=0 control=64 value=0 time=11
control_change channel=0 control=64 value=127 time=38
note_on channel=0 note=80 velocity=0 time=11
note_on channel=0 note=78 velocity=47 time=0
note_on channel=0 note=78 velocity=0 time=60
note_on channel=0 note=66 velocity=39 time=0
note_on channel=0 note=54 velocity=26 time=0
note_on channel=0 note=48 velocity=26 time=0
note_on channel=0 note=51 velocity=26 time=0
note_on channel=0 note=57 velocity=31 time=0
note_on channel=0 note=66 velocity=0 time=0
note_on channel=0 note=78 velocity=47 time=0
note_on channel=0 note=78 velocity=0 time=0
note_on channel=0 note=57 velocity=0 time=0
note_on channel=0 note=54 velocity=0 time=0
note_on channel=0 note=48 velocity=0 time=0
note_on channel=0 note=51 velocity=0 time=0
note_on channel=0 note=77 velocity=53 time=0
control_change channel=0 control=64 value=0 time=0
control_change channel=0 control=64 value=127 time=52
note_on channel=0 note=77 velocity=0 time=8
note_on channel=0 note=78 velocity=46 time=0
note_on channel=0 note=78 velocity=0 time=60
note_on channel=0 note=66 velocity=45 time=0
note_on channel=0 note=49 velocity=27 time=0
note_on channel=0 note=54 velocity=27 time=0
note_on channel=0 note=57 velocity=32 time=0
note_on channel=0 note=66 velocity=0 time=60
note_on channel=0 note=78 velocity=46 time=0
note_on channel=0 note=78 velocity=0 time=0
note_on channel=0 note=57 velocity=0 time=0
note_on channel=0 note=54 velocity=0 time=0
note_on channel=0 note=49 velocity=0 time=0
note_on channel=0 note=80 velocity=54 time=0
control_change channel=0 control=64 value=0 time=10
control_change channel=0 control=64 value=127 time=45
note_on channel=0 note=80 velocity=0 time=5
note_on channel=0 note=78 velocity=39 time=0
note_on channel=0 note=78 velocity=0 time=60
note_on channel=0 note=66 velocity=46 time=0
note_on channel=0 note=57 velocity=22 time=0
note_on channel=0 note=49 velocity=22 time=0
note_on channel=0 note=54 velocity=22 time=0
note_on channel=0 note=60 velocity=26 time=0
note_on channel=0 note=66 velocity=0 time=60
note_on channel=0 note=78 velocity=46 time=0
note_on channel=0 note=78 velocity=0 time=60
note_on channel=0 note=60 velocity=0 time=0
note_on channel=0 note=57 velocity=0 time=0
note_on channel=0 note=49 velocity=0 time=0
note_on channel=0 note=54 velocity=0 time=0
note_on channel=0 note=77 velocity=45 time=0
control_change channel=0 control=64 value=0 time=10
control_change channel=0 control=64 value=127 time=33
note_on channel=0 note=77 velocity=0 time=17
note_on channel=0 note=78 velocity=41 time=0
note_on channel=0 note=78 velocity=0 time=60
note_on channel=0 note=66 velocity=46 time=0
note_on channel=0 note=57 velocity=26 time=0
note_on channel=0 note=49 velocity=26 time=0
note_on channel=0 note=54 velocity=26 time=0
note_on channel=0 note=61 velocity=31 time=0
note_on channel=0 note=66 velocity=0 time=60
note_on channel=0 note=78 velocity=40 time=0
note_on channel=0 note=78 velocity=0 time=60
note_on channel=0 note=61 velocity=0 time=0
note_on channel=0 note=57 velocity=0 time=0
note_on channel=0 note=49 velocity=0 time=0
note_on channel=0 note=54 velocity=0 time=0
note_on channel=0 note=53 velocity=26 time=0
note_on channel=0 note=49 velocity=26 time=0
note_on channel=0 note=56 velocity=26 time=0
note_on channel=0 note=61 velocity=31 time=0
control_change channel=0 control=64 value=0 time=11
control_change channel=0 control=64 value=127 time=41
note_on channel=0 note=78 velocity=46 time=8
note_on channel=0 note=78 velocity=0 time=60
note_on channel=0 note=65 velocity=39 time=0
note_on channel=0 note=65 velocity=0 time=60
note_on channel=0 note=77 velocity=46 time=0
note_on channel=0 note=77 velocity=0 time=0
note_on channel=0 note=56 velocity=0 time=0
note_on channel=0 note=53 velocity=0 time=0
note_on channel=0 note=49 velocity=0 time=0
note_on channel=0 note=61 velocity=0 time=0
note_on channel=0 note=49 velocity=26 time=0
note_on channel=0 note=53 velocity=26 time=0
note_on channel=0 note=56 velocity=31 time=0
control_change channel=0 control=64 value=0 time=11
control_change channel=0 control=64 value=127 time=32
note_on channel=0 note=81 velocity=46 time=17
note_on channel=0 note=81 velocity=0 time=60
note_on channel=0 note=68 velocity=42 time=0
note_on channel=0 note=68 velocity=0 time=60
note_on channel=0 note=80 velocity=46 time=0
note_on channel=0 note=80 velocity=0 time=60
note_on channel=0 note=49 velocity=0 time=0
note_on channel=0 note=53 velocity=0 time=0
note_on channel=0 note=56 velocity=0 time=0
note_on channel=0 note=49 velocity=26 time=0
note_on channel=0 note=56 velocity=26 time=0
note_on channel=0 note=59 velocity=31 time=0
control_change channel=0 control=64 value=0 time=11
control_change channel=0 control=64 value=127 time=38
note_on channel=0 note=85 velocity=46 time=11
note_on channel=0 note=85 velocity=0 time=60
note_on channel=0 note=71 velocity=39 time=0
note_on channel=0 note=71 velocity=0 time=0
note_on channel=0 note=83 velocity=46 time=0
note_on channel=0 note=83 velocity=0 time=0
note_on channel=0 note=49 velocity=0 time=0
note_on channel=0 note=56 velocity=0 time=0
note_on channel=0 note=59 velocity=0 time=0
note_on channel=0 note=85 velocity=46 time=0
note_on channel=0 note=49 velocity=27 time=0
note_on channel=0 note=56 velocity=27 time=0
note_on channel=0 note=59 velocity=32 time=0
control_change channel=0 control=64 value=0 time=0
control_change channel=0 control=64 value=127 time=52
note_on channel=0 note=85 velocity=0 time=8
note_on channel=0 note=71 velocity=39 time=0
note_on channel=0 note=71 velocity=0 time=60
note_on channel=0 note=85 velocity=46 time=0
note_on channel=0 note=85 velocity=0 time=60
note_on channel=0 note=83 velocity=46 time=0
note_on channel=0 note=83 velocity=0 time=60
note_on channel=0 note=59 velocity=0 time=0
note_on channel=0 note=56 velocity=0 time=0
note_on channel=0 note=49 velocity=0 time=0
note_on channel=0 note=82 velocity=54 time=0
note_on channel=0 note=49 velocity=23 time=0
note_on channel=0 note=56 velocity=23 time=0
note_on channel=0 note=59 velocity=27 time=0
control_change channel=0 control=64 value=0 time=10
control_change channel=0 control=64 value=127 time=45
note_on channel=0 note=82 velocity=0 time=5
note_on channel=0 note=83 velocity=46 time=0
note_on channel=0 note=83 velocity=0 time=60
note_on channel=0 note=71 velocity=37 time=0
note_on channel=0 note=71 velocity=0 time=0
note_on channel=0 note=83 velocity=46 time=0
note_on channel=0 note=83 velocity=0 time=58
note_on channel=0 note=59 velocity=0 time=0
note_on channel=0 note=56 velocity=0 time=0
note_on channel=0 note=49 velocity=0 time=0
note_on channel=0 note=83 velocity=45 time=0
note_on channel=0 note=49 velocity=26 time=0
note_on channel=0 note=54 velocity=26 time=0
note_on channel=0 note=57 velocity=31 time=0
control_change channel=0 control=64 value=0 time=10
control_change channel=0 control=64 value=127 time=33
note_on channel=0 note=83 velocity=0 time=0
note_on channel=0 note=81 velocity=46 time=0
note_on channel=0 note=81 velocity=0 time=60
note_on channel=0 note=69 velocity=41 time=0
note_on channel=0 note=69 velocity=0 time=0
note_on channel=0 note=81 velocity=46 time=0
note_on channel=0 note=81 velocity=0 time=0
note_on channel=0 note=57 velocity=0 time=0
note_on channel=0 note=54 velocity=0 time=0
note_on channel=0 note=49 velocity=0 time=0
note_on channel=0 note=83 velocity=57 time=0
note_on channel=0 note=49 velocity=23 time=0
note_on channel=0 note=54 velocity=23 time=0
note_on channel=0 note=57 velocity=27 time=0
control_change channel=0 control=64 value=0 time=11
control_change channel=0 control=64 value=127 time=41
note_on channel=0 note=83 velocity=0 time=8
note_on channel=0 note=69 velocity=39 time=0
note_on channel=0 note=69 velocity=0 time=60
note_on channel=0 note=83 velocity=44 time=0
note_on channel=0 note=83 velocity=0 time=60
note_on channel=0 note=81 velocity=46 time=0
note_on channel=0 note=81 velocity=0 time=58
note_on channel=0 note=57 velocity=0 time=2
note_on channel=0 note=54 velocity=0 time=0
note_on channel=0 note=49 velocity=0 time=0
note_on channel=0 note=81 velocity=46 time=0
note_on channel=0 note=47 velocity=26 time=0
note_on channel=0 note=50 velocity=26 time=0
note_on channel=0 note=53 velocity=26 time=0
note_on channel=0 note=56 velocity=31 time=0
control_change channel=0 control=64 value=0 time=11
control_change channel=0 control=64 value=127 time=32
note_on channel=0 note=81 velocity=0 time=17
note_on channel=0 note=68 velocity=39 time=0
note_on channel=0 note=68 velocity=0 time=60
note_on channel=0 note=81 velocity=43 time=0
note_on channel=0 note=81 velocity=0 time=60
note_on channel=0 note=80 velocity=43 time=0
note_on channel=0 note=80 velocity=0 time=58
note_on channel=0 note=56 velocity=0 time=2
note_on channel=0 note=47 velocity=0 time=0
note_on channel=0 note=50 velocity=0 time=0
note_on channel=0 note=53 velocity=0 time=0
note_on channel=0 note=80 velocity=55 time=0
note_on channel=0 note=45 velocity=26 time=0
note_on channel=0 note=48 velocity=26 time=0
note_on channel=0 note=51 velocity=26 time=0
note_on channel=0 note=54 velocity=31 time=0
control_change channel=0 control=64 value=0 time=11
control_change channel=0 control=64 value=127 time=38
note_on channel=0 note=80 velocity=0 time=11
note_on channel=0 note=66 velocity=38 time=0
note_on channel=0 note=66 velocity=0 time=60
note_on channel=0 note=80 velocity=39 time=0
note_on channel=0 note=80 velocity=0 time=0
note_on channel=0 note=78 velocity=46 time=0
note_on channel=0 note=78 velocity=0 time=0
note_on channel=0 note=54 velocity=0 time=0
note_on channel=0 note=45 velocity=0 time=0
note_on channel=0 note=48 velocity=0 time=0
note_on channel=0 note=51 velocity=0 time=0
note_on channel=0 note=77 velocity=46 time=0
note_on channel=0 note=51 velocity=27 time=0
note_on channel=0 note=46 velocity=27 time=0
note_on channel=0 note=47 velocity=27 time=0
note_on channel=0 note=54 velocity=32 time=0
control_change channel=0 control=64 value=0 time=0
control_change channel=0 control=64 value=127 time=52
note_on channel=0 note=77 velocity=0 time=8
note_on channel=0 note=78 velocity=46 time=0
note_on channel=0 note=78 velocity=0 time=60
note_on channel=0 note=66 velocity=41 time=0
note_on channel=0 note=66 velocity=0 time=60
note_on channel=0 note=78 velocity=46 time=0
note_on channel=0 note=78 velocity=0 time=0
note_on channel=0 note=54 velocity=0 time=0
note_on channel=0 note=51 velocity=0 time=0
note_on channel=0 note=46 velocity=0 time=0
note_on channel=0 note=47 velocity=0 time=0
note_on channel=0 note=80 velocity=54 time=0
note_on channel=0 note=51 velocity=23 time=0
note_on channel=0 note=46 velocity=23 time=0
note_on channel=0 note=47 velocity=23 time=0
note_on channel=0 note=54 velocity=27 time=0
control_change channel=0 control=64 value=0 time=10
control_change channel=0 control=64 value=127 time=45
note_on channel=0 note=80 velocity=0 time=5
note_on channel=0 note=78 velocity=45 time=0
note_on channel=0 note=78 velocity=0 time=60
note_on channel=0 note=66 velocity=38 time=0
note_on channel=0 note=66 velocity=0 time=60
note_on channel=0 note=78 velocity=46 time=0
note_on channel=0 note=78 velocity=0 time=60
note_on channel=0 note=54 velocity=0 time=0
note_on channel=0 note=51 velocity=0 time=0
note_on channel=0 note=46 velocity=0 time=0
note_on channel=0 note=47 velocity=0 time=0
note_on channel=0 note=65 velocity=45 time=0
note_on channel=0 note=44 velocity=26 time=0
note_on channel=0 note=49 velocity=26 time=0
note_on channel=0 note=53 velocity=31 time=0
control_change channel=0 control=64 value=0 time=10
control_change channel=0 control=64 value=127 time=33
note_on channel=0 note=65 velocity=0 time=17
note_on channel=0 note=77 velocity=42 time=0
note_on channel=0 note=77 velocity=0 time=60
note_on channel=0 note=78 velocity=46 time=0
note_on channel=0 note=78 velocity=0 time=60
note_on channel=0 note=77 velocity=46 time=0
note_on channel=0 note=77 velocity=0 time=60
note_on channel=0 note=53 velocity=0 time=0
note_on channel=0 note=49 velocity=0 time=0
note_on channel=0 note=44 velocity=0 time=0
note_on channel=0 note=78 velocity=57 time=0
note_on channel=0 note=44 velocity=23 time=0
note_on channel=0 note=49 velocity=23 time=0
note_on channel=0 note=53 velocity=27 time=0
control_change channel=0 control=64 value=0 time=11
control_change channel=0 control=64 value=127 time=41
note_on channel=0 note=78 velocity=0 time=8
note_on channel=0 note=65 velocity=39 time=0
note_on channel=0 note=65 velocity=0 time=60
note_on channel=0 note=78 velocity=45 time=0
note_on channel=0 note=78 velocity=0 time=60
note_on channel=0 note=77 velocity=46 time=0
note_on channel=0 note=77 velocity=0 time=60
note_on channel=0 note=53 velocity=0 time=0
note_on channel=0 note=49 velocity=0 time=0
note_on channel=0 note=44 velocity=0 time=0
note_on channel=0 note=68 velocity=51 time=0
note_on channel=0 note=49 velocity=26 time=0
note_on channel=0 note=53 velocity=31 time=0
control_change channel=0 control=64 value=0 time=11
control_change channel=0 control=64 value=127 time=32
note_on channel=0 note=68 velocity=0 time=17
note_on channel=0 note=80 velocity=47 time=0
note_on channel=0 note=80 velocity=0 time=60
note_on channel=0 note=53 velocity=0 time=0
note_on channel=0 note=81 velocity=47 time=0
note_on channel=0 note=53 velocity=31 time=0
note_on channel=0 note=56 velocity=31 time=0
note_on channel=0 note=81 velocity=0 time=0
note_on channel=0 note=80 velocity=48 time=0
note_on channel=0 note=80 velocity=0 time=0
note_on channel=0 note=56 velocity=0 time=0
note_on channel=0 note=53 velocity=0 time=0
note_on channel=0 note=49 velocity=0 time=0
note_on channel=0 note=83 velocity=59 time=0
note_on channel=0 note=59 velocity=32 time=0
note_on channel=0 note=49 velocity=27 time=0
note_on channel=0 note=56 velocity=32 time=0
control_change channel=0 control=64 value=0 time=11
control_change channel=0 control=64 value=127 time=38
note_on channel=0 note=83 velocity=0 time=11
note_on channel=0 note=71 velocity=42 time=0
note_on channel=0 note=71 velocity=0 time=60
note_on channel=0 note=56 velocity=0 time=0
note_on channel=0 note=59 velocity=0 time=0
note_on channel=0 note=74 velocity=51 time=0
note_on channel=0 note=62 velocity=34 time=0
note_on channel=0 note=59 velocity=34 time=0
note_on channel=0 note=74 velocity=0 time=60
note_on channel=0 note=86 velocity=53 time=0
note_on channel=0 note=86 velocity=0 time=0
note_on channel=0 note=59 velocity=0 time=0
note_on channel=0 note=62 velocity=0 time=0
note_on channel=0 note=49 velocity=0 time=0
note_on channel=0 note=85 velocity=58 time=0
note_on channel=0 note=49 velocity=31 time=0
note_on channel=0 note=59 velocity=31 time=0
note_on channel=0 note=62 velocity=37 time=0
control_change channel=0 control=64 value=0 time=0
control_change channel=0 control=64 value=127 time=52
note_on channel=0 note=85 velocity=0 time=8
note_on channel=0 note=86 velocity=55 time=0
note_on channel=0 note=86 velocity=0 time=60
note_on channel=0 note=74 velocity=50 time=0
note_on channel=0 note=74 velocity=0 time=60
note_on channel=0 note=86 velocity=57 time=0
note_on channel=0 note=49 velocity=0 time=58
note_on channel=0 note=62 velocity=0 time=0
note_on channel=0 note=59 velocity=0 time=0
note_on channel=0 note=86 velocity=0 time=0
note_on channel=0 note=88 velocity=68 time=0
note_on channel=0 note=49 velocity=32 time=0
note_on channel=0 note=59 velocity=32 time=0
note_on channel=0 note=62 velocity=38 time=0
control_change channel=0 control=64 value=0 time=10
control_change channel=0 control=64 value=127 time=45
note_on channel=0 note=88 velocity=0 time=5
note_on channel=0 note=86 velocity=58 time=0
note_on channel=0 note=86 velocity=0 time=60
note_on channel=0 note=74 velocity=50 time=0
note_on channel=0 note=74 velocity=0 time=0
note_on channel=0 note=86 velocity=61 time=0
note_on channel=0 note=49 velocity=0 time=58
note_on channel=0 note=62 velocity=0 time=0
note_on channel=0 note=59 velocity=0 time=0
note_on channel=0 note=86 velocity=0 time=0
note_on channel=0 note=86 velocity=60 time=0
note_on channel=0 note=49 velocity=34 time=0
note_on channel=0 note=57 velocity=34 time=0
note_on channel=0 note=61 velocity=41 time=0
control_change channel=0 control=64 value=0 time=10
control_change channel=0 control=64 value=127 time=33
note_on channel=0 note=86 velocity=0 time=17
note_on channel=0 note=73 velocity=52 time=0
note_on channel=0 note=73 velocity=0 time=60
note_on channel=0 note=86 velocity=59 time=0
note_on channel=0 note=86 velocity=0 time=60
note_on channel=0 note=85 velocity=58 time=0
note_on channel=0 note=49 velocity=0 time=58
note_on channel=0 note=61 velocity=0 time=0
note_on channel=0 note=57 velocity=0 time=0
note_on channel=0 note=85 velocity=0 time=2
note_on channel=0 note=49 velocity=35 time=0
note_on channel=0 note=57 velocity=35 time=0
note_on channel=0 note=61 velocity=42 time=0
control_change channel=0 control=64 value=0 time=11
control_change channel=0 control=64 value=127 time=41
note_on channel=0 note=86 velocity=62 time=8
note_on channel=0 note=86 velocity=0 time=60
note_on channel=0 note=73 velocity=50 time=0
note_on channel=0 note=73 velocity=0 time=60
note_on channel=0 note=85 velocity=54 time=0
note_on channel=0 note=61 velocity=0 time=58
note_on channel=0 note=49 velocity=0 time=0
note_on channel=0 note=57 velocity=0 time=0
note_on channel=0 note=85 velocity=0 time=2
note_on channel=0 note=49 velocity=32 time=0
note_on channel=0 note=56 velocity=32 time=0
note_on channel=0 note=59 velocity=38 time=0
control_change channel=0 control=64 value=0 time=11
control_change channel=0 control=64 value=127 time=32
note_on channel=0 note=85 velocity=56 time=17
note_on channel=0 note=85 velocity=0 time=60
note_on channel=0 note=71 velocity=45 time=0
note_on channel=0 note=71 velocity=0 time=0
note_on channel=0 note=83 velocity=49 time=0
note_on channel=0 note=59 velocity=0 time=58
note_on channel=0 note=49 velocity=0 time=0
note_on channel=0 note=56 velocity=0 time=0
note_on channel=0 note=83 velocity=0 time=0
note_on channel=0 note=49 velocity=29 time=0
note_on channel=0 note=54 velocity=29 time=0
note_on channel=0 note=57 velocity=34 time=0
control_change channel=0 control=64 value=0 time=11
control_change channel=0 control=64 value=127 time=38
note_on channel=0 note=83 velocity=50 time=11
note_on channel=0 note=83 velocity=0 time=60
note_on channel=0 note=69 velocity=40 time=0
note_on channel=0 note=69 velocity=0 time=60
note_on channel=0 note=81 velocity=47 time=0
note_on channel=0 note=57 velocity=0 time=58
note_on channel=0 note=49 velocity=0 time=0
note_on channel=0 note=54 velocity=0 time=0
note_on channel=0 note=81 velocity=0 time=2
note_on channel=0 note=83 velocity=57 time=0
note_on channel=0 note=49 velocity=33 time=0
note_on channel=0 note=54 velocity=33 time=0
note_on channel=0 note=57 velocity=40 time=0
control_change channel=0 control=64 value=0 time=0
control_change channel=0 control=64 value=127 time=52
note_on channel=0 note=83 velocity=0 time=0
note_on channel=0 note=69 velocity=45 time=0
note_on channel=0 note=69 velocity=0 time=60
note_on channel=0 note=83 velocity=54 time=0
note_on channel=0 note=83 velocity=0 time=60
note_on channel=0 note=81 velocity=51 time=0
note_on channel=0 note=49 velocity=0 time=58
note_on channel=0 note=57 velocity=0 time=0
note_on channel=0 note=54 velocity=0 time=0
note_on channel=0 note=81 velocity=0 time=0
note_on channel=0 note=80 velocity=63 time=0
note_on channel=0 note=57 velocity=30 time=0
note_on channel=0 note=49 velocity=30 time=0
note_on channel=0 note=54 velocity=30 time=0
note_on channel=0 note=60 velocity=36 time=0
control_change channel=0 control=64 value=0 time=10
control_change channel=0 control=64 value=127 time=45
note_on channel=0 note=80 velocity=0 time=5
note_on channel=0 note=81 velocity=52 time=0
note_on channel=0 note=81 velocity=0 time=60
note_on channel=0 note=69 velocity=42 time=0
note_on channel=0 note=69 velocity=0 time=0
note_on channel=0 note=81 velocity=51 time=0
note_on channel=0 note=54 velocity=0 time=58
note_on channel=0 note=60 velocity=0 time=0
note_on channel=0 note=57 velocity=0 time=0
note_on channel=0 note=49 velocity=0 time=0
note_on channel=0 note=81 velocity=0 time=0
note_on channel=0 note=81 velocity=49 time=0
note_on channel=0 note=53 velocity=28 time=0
note_on channel=0 note=49 velocity=28 time=0
note_on channel=0 note=56 velocity=28 time=0
note_on channel=0 note=61 velocity=33 time=0
control_change channel=0 control=64 value=0 time=10
control_change channel=0 control=64 value=127 time=33
note_on channel=0 note=81 velocity=0 time=17
note_on channel=0 note=68 velocity=42 time=0
note_on channel=0 note=68 velocity=0 time=60
note_on channel=0 note=81 velocity=48 time=0
note_on channel=0 note=81 velocity=0 time=60
note_on channel=0 note=80 velocity=47 time=0
note_on channel=0 note=56 velocity=0 time=58
note_on channel=0 note=61 velocity=0 time=0
note_on channel=0 note=53 velocity=0 time=0
note_on channel=0 note=49 velocity=0 time=0
note_on channel=0 note=80 velocity=0 time=2
note_on channel=0 note=53 velocity=28 time=0
note_on channel=0 note=49 velocity=28 time=0
note_on channel=0 note=56 velocity=28 time=0
note_on channel=0 note=61 velocity=33 time=0
control_change channel=0 control=64 value=0 time=11
control_change channel=0 control=64 value=127 time=41
note_on channel=0 note=80 velocity=50 time=8
note_on channel=0 note=80 velocity=0 time=60
note_on channel=0 note=68 velocity=41 time=0
note_on channel=0 note=68 velocity=0 time=0
note_on channel=0 note=80 velocity=49 time=0
note_on channel=0 note=61 velocity=0 time=58
note_on channel=0 note=56 velocity=0 time=0
note_on channel=0 note=53 velocity=0 time=0
note_on channel=0 note=49 velocity=0 time=0
note_on channel=0 note=80 velocity=0 time=0
note_on channel=0 note=53 velocity=27 time=0
note_on channel=0 note=49 velocity=27 time=0
note_on channel=0 note=56 velocity=27 time=0
note_on channel=0 note=61 velocity=32 time=0
control_change channel=0 control=64 value=0 time=11
control_change channel=0 control=64 value=127 time=32
note_on channel=0 note=92 velocity=48 time=17
note_on channel=0 note=92 velocity=0 time=60
note_on channel=0 note=80 velocity=53 time=0
note_on channel=0 note=80 velocity=0 time=60
note_on channel=0 note=92 velocity=48 time=0
note_on channel=0 note=61 velocity=0 time=58
note_on channel=0 note=56 velocity=0 time=0
note_on channel=0 note=53 velocity=0 time=0
note_on channel=0 note=49 velocity=0 time=0
note_on channel=0 note=92 velocity=0 time=0
note_on channel=0 note=52 velocity=26 time=0
note_on channel=0 note=58 velocity=26 time=0
note_on channel=0 note=49 velocity=26 time=0
note_on channel=0 note=55 velocity=26 time=0
note_on channel=0 note=61 velocity=32 time=0
control_change channel=0 control=64 value=0 time=11
control_change channel=0 control=64 value=127 time=38
note_on channel=0 note=91 velocity=44 time=11
note_on channel=0 note=91 velocity=0 time=60
note_on channel=0 note=79 velocity=51 time=0
note_on channel=0 note=79 velocity=0 time=60
note_on channel=0 note=91 velocity=47 time=0
note_on channel=0 note=61 velocity=0 time=58
note_on channel=0 note=55 velocity=0 time=0
note_on channel=0 note=49 velocity=0 time=0
note_on channel=0 note=52 velocity=0 time=0
note_on channel=0 note=58 velocity=0 time=0
note_on channel=0 note=91 velocity=0 time=2
note_on channel=0 note=55 velocity=26 time=0
note_on channel=0 note=50 velocity=26 time=0
note_on channel=0 note=59 velocity=26 time=0
note_on channel=0 note=62 velocity=31 time=0
control_change channel=0 control=64 value=0 time=0
control_change channel=0 control=64 value=127 time=52
note_on channel=0 note=91 velocity=46 time=8
note_on channel=0 note=91 velocity=0 time=60
note_on channel=0 note=79 velocity=52 time=0
note_on channel=0 note=79 velocity=0 time=0
note_on channel=0 note=91 velocity=46 time=0
note_on channel=0 note=62 velocity=0 time=58
note_on channel=0 note=59 velocity=0 time=0
note_on channel=0 note=55 velocity=0 time=0
note_on channel=0 note=50 velocity=0 time=0
note_on channel=0 note=91 velocity=0 time=0
note_on channel=0 note=55 velocity=25 time=0
note_on channel=0 note=50 velocity=25 time=0
note_on channel=0 note=59 velocity=25 time=0
note_on channel=0 note=62 velocity=30 time=0
note_on channel=0 note=91 velocity=45 time=60
note_on channel=0 note=91 velocity=0 time=60
note_on channel=0 note=83 velocity=51 time=0
note_on channel=0 note=83 velocity=0 time=60
note_on channel=0 note=95 velocity=45 time=0
note_on channel=0 note=62 velocity=0 time=58
note_on channel=0 note=59 velocity=0 time=0
note_on channel=0 note=55 velocity=0 time=0
note_on channel=0 note=50 velocity=0 time=0
note_on channel=0 note=95 velocity=0 time=0
note_on channel=0 note=50 velocity=24 time=0
note_on channel=0 note=59 velocity=24 time=0
note_on channel=0 note=55 velocity=24 time=0
note_on channel=0 note=62 velocity=29 time=0
note_on channel=0 note=95 velocity=44 time=60
note_on channel=0 note=95 velocity=0 time=60
note_on channel=0 note=81 velocity=48 time=0
note_on channel=0 note=81 velocity=0 time=60
note_on channel=0 note=93 velocity=43 time=0
note_on channel=0 note=62 velocity=0 time=58
note_on channel=0 note=55 velocity=0 time=0
note_on channel=0 note=50 velocity=0 time=0
note_on channel=0 note=59 velocity=0 time=0
note_on channel=0 note=93 velocity=0 time=2
note_on channel=0 note=55 velocity=24 time=0
note_on channel=0 note=50 velocity=24 time=0
note_on channel=0 note=59 velocity=24 time=0
note_on channel=0 note=62 velocity=28 time=0
control_change channel=0 control=64 value=0 time=11
control_change channel=0 control=64 value=127 time=41
note_on channel=0 note=93 velocity=43 time=8
note_on channel=0 note=93 velocity=0 time=60
note_on channel=0 note=79 velocity=49 time=0
note_on channel=0 note=79 velocity=0 time=60
note_on channel=0 note=91 velocity=45 time=0
note_on channel=0 note=62 velocity=0 time=58
note_on channel=0 note=59 velocity=0 time=0
note_on channel=0 note=55 velocity=0 time=0
note_on channel=0 note=50 velocity=0 time=0
note_on channel=0 note=91 velocity=0 time=0
note_on channel=0 note=55 velocity=26 time=0
note_on channel=0 note=59 velocity=26 time=0
note_on channel=0 note=62 velocity=31 time=0
control_change channel=0 control=64 value=0 time=11
control_change channel=0 control=64 value=127 time=32
note_on channel=0 note=91 velocity=48 time=17
note_on channel=0 note=91 velocity=0 time=60
note_on channel=0 note=79 velocity=57 time=0
note_on channel=0 note=79 velocity=0 time=60
note_on channel=0 note=91 velocity=51 time=0
note_on channel=0 note=62 velocity=0 time=58
note_on channel=0 note=55 velocity=0 time=0
note_on channel=0 note=59 velocity=0 time=0
note_on channel=0 note=91 velocity=0 time=2
note_on channel=0 note=59 velocity=29 time=0
note_on channel=0 note=55 velocity=29 time=0
note_on channel=0 note=62 velocity=35 time=0
control_change channel=0 control=64 value=0 time=11
control_change channel=0 control=64 value=127 time=38
note_on channel=0 note=91 velocity=55 time=11
note_on channel=0 note=91 velocity=0 time=60
note_on channel=0 note=79 velocity=61 time=0
note_on channel=0 note=79 velocity=0 time=0
note_on channel=0 note=78 velocity=57 time=0
note_on channel=0 note=90 velocity=57 time=0
note_on channel=0 note=62 velocity=0 time=58
note_on channel=0 note=59 velocity=0 time=0
note_on channel=0 note=55 velocity=0 time=0
note_on channel=0 note=78 velocity=0 time=0
note_on channel=0 note=90 velocity=0 time=0
note_on channel=0 note=55 velocity=33 time=0
note_on channel=0 note=60 velocity=33 time=0
note_on channel=0 note=64 velocity=39 time=0
control_change channel=0 control=64 value=0 time=0
control_change channel=0 control=64 value=127 time=52
note_on channel=0 note=90 velocity=60 time=8
note_on channel=0 note=90 velocity=0 time=60
note_on channel=0 note=76 velocity=55 time=0
note_on channel=0 note=76 velocity=0 time=60
note_on channel=0 note=88 velocity=63 time=0
note_on channel=0 note=64 velocity=0 time=58
note_on channel=0 note=55 velocity=0 time=0
note_on channel=0 note=60 velocity=0 time=0
note_on channel=0 note=88 velocity=0 time=0
note_on channel=0 note=55 velocity=34 time=0
note_on channel=0 note=60 velocity=34 time=0
note_on channel=0 note=64 velocity=41 time=0
control_change channel=0 control=64 value=0 time=10
control_change channel=0 control=64 value=127 time=45
note_on channel=0 note=88 velocity=60 time=5
note_on channel=0 note=88 velocity=0 time=60
note_on channel=0 note=76 velocity=53 time=0
note_on channel=0 note=76 velocity=0 time=60
note_on channel=0 note=88 velocity=57 time=0
note_on channel=0 note=64 velocity=0 time=58
note_on channel=0 note=55 velocity=0 time=0
note_on channel=0 note=60 velocity=0 time=0
note_on channel=0 note=88 velocity=0 time=0
note_on channel=0 note=60 velocity=30 time=0
note_on channel=0 note=55 velocity=30 time=0
note_on channel=0 note=64 velocity=36 time=0
control_change channel=0 control=64 value=0 time=10
control_change channel=0 control=64 value=127 time=33
note_on channel=0 note=88 velocity=53 time=17
note_on channel=0 note=88 velocity=0 time=60
note_on channel=0 note=76 velocity=57 time=0
note_on channel=0 note=76 velocity=0 time=0
note_on channel=0 note=78 velocity=50 time=0
note_on channel=0 note=90 velocity=50 time=0
note_on channel=0 note=64 velocity=0 time=58
note_on channel=0 note=60 velocity=0 time=0
note_on channel=0 note=55 velocity=0 time=0
note_on channel=0 note=78 velocity=0 time=0
note_on channel=0 note=90 velocity=0 time=0
note_on channel=0 note=55 velocity=27 time=0
note_on channel=0 note=59 velocity=27 time=0
note_on channel=0 note=62 velocity=32 time=0
control_change channel=0 control=64 value=0 time=11
control_change channel=0 control=64 value=127 time=41
note_on channel=0 note=90 velocity=47 time=8
note_on channel=0 note=90 velocity=0 time=60
note_on channel=0 note=79 velocity=54 time=0
note_on channel=0 note=79 velocity=0 time=60
note_on channel=0 note=91 velocity=44 time=0
note_on channel=0 note=62 velocity=0 time=58
note_on channel=0 note=55 velocity=0 time=0
note_on channel=0 note=59 velocity=0 time=0
note_on channel=0 note=91 velocity=0 time=2
note_on channel=0 note=50 velocity=24 time=0
note_on channel=0 note=55 velocity=24 time=0
note_on channel=0 note=59 velocity=24 time=0
note_on channel=0 note=62 velocity=28 time=0
control_change channel=0 control=64 value=0 time=11
control_change channel=0 control=64 value=127 time=32
note_on channel=0 note=91 velocity=43 time=17
note_on channel=0 note=91 velocity=0 time=60
note_on channel=0 note=79 velocity=50 time=0
note_on channel=0 note=79 velocity=0 time=60
note_on channel=0 note=91 velocity=43 time=0
note_on channel=0 note=62 velocity=0 time=58
note_on channel=0 note=59 velocity=0 time=0
note_on channel=0 note=50 velocity=0 time=0
note_on channel=0 note=55 velocity=0 time=0
note_on channel=0 note=91 velocity=0 time=0
note_on channel=0 note=50 velocity=24 time=0
note_on channel=0 note=57 velocity=24 time=0
note_on channel=0 note=54 velocity=24 time=0
note_on channel=0 note=62 velocity=28 time=0
control_change channel=0 control=64 value=0 time=11
control_change channel=0 control=64 value=127 time=38
note_on channel=0 note=91 velocity=43 time=11
note_on channel=0 note=91 velocity=0 time=60
note_on channel=0 note=79 velocity=51 time=0
note_on channel=0 note=79 velocity=0 time=60
note_on channel=0 note=78 velocity=43 time=0
note_on channel=0 note=90 velocity=43 time=0
note_on channel=0 note=62 velocity=0 time=58
note_on channel=0 note=54 velocity=0 time=0
note_on channel=0 note=50 velocity=0 time=0
note_on channel=0 note=57 velocity=0 time=0
note_on channel=0 note=90 velocity=0 time=2
note_on channel=0 note=78 velocity=0 time=0
note_on channel=0 note=90 velocity=52 time=0
note_on channel=0 note=54 velocity=25 time=0
note_on channel=0 note=50 velocity=25 time=0
note_on channel=0 note=57 velocity=25 time=0
note_on channel=0 note=62 velocity=30 time=0
control_change channel=0 control=64 value=0 time=0
control_change channel=0 control=64 value=127 time=52
note_on channel=0 note=90 velocity=0 time=8
note_on channel=0 note=78 velocity=43 time=0
note_on channel=0 note=78 velocity=0 time=60
note_on channel=0 note=78 velocity=43 time=0
note_on channel=0 note=78 velocity=0 time=60
note_on channel=0 note=90 velocity=43 time=0
note_on channel=0 note=57 velocity=0 time=58
note_on channel=0 note=62 velocity=0 time=0
note_on channel=0 note=54 velocity=0 time=0
note_on channel=0 note=50 velocity=0 time=0
note_on channel=0 note=90 velocity=0 time=2
note_on channel=0 note=93 velocity=50 time=0
note_on channel=0 note=54 velocity=24 time=0
note_on channel=0 note=49 velocity=24 time=0
note_on channel=0 note=57 velocity=24 time=0
note_on channel=0 note=61 velocity=28 time=0
control_change channel=0 control=64 value=0 time=10
control_change channel=0 control=64 value=127 time=45
note_on channel=0 note=93 velocity=0 time=5
note_on channel=0 note=81 velocity=36 time=0
note_on channel=0 note=81 velocity=0 time=60
note_on channel=0 note=81 velocity=43 time=0
note_on channel=0 note=81 velocity=0 time=60
note_on channel=0 note=93 velocity=43 time=0
note_on channel=0 note=57 velocity=0 time=58
note_on channel=0 note=54 velocity=0 time=0
note_on channel=0 note=49 velocity=0 time=0
note_on channel=0 note=61 velocity=0 time=0
note_on channel=0 note=93 velocity=0 time=0
note_on channel=0 note=97 velocity=50 time=0
note_on channel=0 note=54 velocity=24 time=0
note_on channel=0 note=49 velocity=24 time=0
note_on channel=0 note=57 velocity=24 time=0
note_on channel=0 note=61 velocity=28 time=0
note_on channel=0 note=97 velocity=0 time=60
note_on channel=0 note=85 velocity=43 time=0
note_on channel=0 note=85 velocity=0 time=60
note_on channel=0 note=85 velocity=49 time=0
note_on channel=0 note=85 velocity=0 time=0
note_on channel=0 note=97 velocity=43 time=0
note_on channel=0 note=57 velocity=0 time=58
note_on channel=0 note=61 velocity=0 time=0
note_on channel=0 note=54 velocity=0 time=0
note_on channel=0 note=49 velocity=0 time=0
note_on channel=0 note=97 velocity=0 time=0
note_on channel=0 note=53 velocity=24 time=0
note_on channel=0 note=49 velocity=24 time=0
note_on channel=0 note=56 velocity=24 time=0
note_on channel=0 note=61 velocity=28 time=0
control_change channel=0 control=64 value=0 time=11
control_change channel=0 control=64 value=127 time=41
note_on channel=0 note=97 velocity=43 time=8
note_on channel=0 note=97 velocity=0 time=60
note_on channel=0 note=85 velocity=49 time=0
note_on channel=0 note=85 velocity=0 time=60
note_on channel=0 note=97 velocity=45 time=0
note_on channel=0 note=61 velocity=0 time=58
note_on channel=0 note=56 velocity=0 time=0
note_on channel=0 note=53 velocity=0 time=0
note_on channel=0 note=49 velocity=0 time=0
note_on channel=0 note=97 velocity=0 time=0
note_on channel=0 note=49 velocity=26 time=0
note_on channel=0 note=53 velocity=26 time=0
note_on channel=0 note=56 velocity=26 time=0
note_on channel=0 note=61 velocity=31 time=0
note_on channel=0 note=85 velocity=48 time=60
note_on channel=0 note=85 velocity=0 time=60
note_on channel=0 note=73 velocity=45 time=0
note_on channel=0 note=73 velocity=0 time=60
note_on channel=0 note=85 velocity=51 time=0
note_on channel=0 note=61 velocity=0 time=58
note_on channel=0 note=56 velocity=0 time=0
note_on channel=0 note=49 velocity=0 time=0
note_on channel=0 note=53 velocity=0 time=0
note_on channel=0 note=85 velocity=0 time=2
note_on channel=0 note=49 velocity=29 time=0
note_on channel=0 note=53 velocity=29 time=0
note_on channel=0 note=56 velocity=29 time=0
note_on channel=0 note=61 velocity=35 time=0
note_on channel=0 note=97 velocity=55 time=60
note_on channel=0 note=97 velocity=0 time=60
note_on channel=0 note=85 velocity=65 time=0
note_on channel=0 note=85 velocity=0 time=60
note_on channel=0 note=97 velocity=57 time=0
note_on channel=0 note=61 velocity=0 time=58
note_on channel=0 note=56 velocity=0 time=0
note_on channel=0 note=49 velocity=0 time=0
note_on channel=0 note=53 velocity=0 time=0
note_on channel=0 note=97 velocity=0 time=0
note_on channel=0 note=53 velocity=34 time=0
note_on channel=0 note=49 velocity=34 time=0
note_on channel=0 note=56 velocity=34 time=0
note_on channel=0 note=61 velocity=41 time=0
note_on channel=0 note=85 velocity=60 time=60
note_on channel=0 note=85 velocity=0 time=60
note_on channel=0 note=73 velocity=48 time=0
note_on channel=0 note=73 velocity=0 time=60
note_on channel=0 note=85 velocity=63 time=0
note_on channel=0 note=61 velocity=0 time=58
note_on channel=0 note=56 velocity=0 time=0
note_on channel=0 note=53 velocity=0 time=0
note_on channel=0 note=49 velocity=0 time=0
note_on channel=0 note=85 velocity=0 time=2
note_on channel=0 note=53 velocity=36 time=0
note_on channel=0 note=49 velocity=36 time=0
note_on channel=0 note=56 velocity=36 time=0
note_on channel=0 note=61 velocity=43 time=0
note_on channel=0 note=97 velocity=53 time=60
note_on channel=0 note=97 velocity=0 time=0
note_on channel=0 note=85 velocity=61 time=0
note_on channel=0 note=85 velocity=0 time=0
note_on channel=0 note=97 velocity=59 time=0
note_on channel=0 note=61 velocity=0 time=58
note_on channel=0 note=56 velocity=0 time=0
note_on channel=0 note=53 velocity=0 time=0
note_on channel=0 note=49 velocity=0 time=0
note_on channel=0 note=97 velocity=0 time=0
note_on channel=0 note=93 velocity=55 time=0
note_on channel=0 note=54 velocity=31 time=0
note_on channel=0 note=57 velocity=31 time=0
note_on channel=0 note=61 velocity=37 time=0
control_change channel=0 control=64 value=0 time=10
control_change channel=0 control=64 value=127 time=33
note_on channel=0 note=93 velocity=0 time=17
note_on channel=0 note=81 velocity=54 time=0
note_on channel=0 note=81 velocity=0 time=60
note_on channel=0 note=81 velocity=52 time=0
note_on channel=0 note=81 velocity=0 time=60
note_on channel=0 note=93 velocity=49 time=0
note_on channel=0 note=54 velocity=0 time=58
note_on channel=0 note=61 velocity=0 time=0
note_on channel=0 note=57 velocity=0 time=0
note_on channel=0 note=93 velocity=0 time=2
note_on channel=0 note=93 velocity=52 time=0
note_on channel=0 note=54 velocity=26 time=0
note_on channel=0 note=57 velocity=26 time=0
note_on channel=0 note=61 velocity=32 time=0
note_on channel=0 note=93 velocity=0 time=60
note_on channel=0 note=81 velocity=41 time=0
note_on channel=0 note=81 velocity=0 time=60
note_on channel=0 note=81 velocity=47 time=0
note_on channel=0 note=81 velocity=0 time=60
note_on channel=0 note=93 velocity=44 time=0
note_on channel=0 note=54 velocity=0 time=58
note_on channel=0 note=61 velocity=0 time=0
note_on channel=0 note=57 velocity=0 time=0
note_on channel=0 note=93 velocity=0 time=2
note_on channel=0 note=90 velocity=52 time=0
note_on channel=0 note=61 velocity=32 time=0
note_on channel=0 note=57 velocity=32 time=0
control_change channel=0 control=64 value=0 time=11
control_change channel=0 control=64 value=127 time=32
note_on channel=0 note=90 velocity=0 time=17
note_on channel=0 note=78 velocity=47 time=0
note_on channel=0 note=57 velocity=0 time=59
note_on channel=0 note=61 velocity=0 time=0
note_on channel=0 note=78 velocity=0 time=0
note_on channel=0 note=78 velocity=47 time=0
note_on channel=0 note=49 velocity=25 time=0
note_on channel=0 note=45 velocity=25 time=0
note_on channel=0 note=57 velocity=30 time=0
note_on channel=0 note=78 velocity=0 time=60
note_on channel=0 note=66 velocity=46 time=0
note_on channel=0 note=66 velocity=0 time=60
note_on channel=0 note=57 velocity=0 time=0
note_on channel=0 note=45 velocity=0 time=0
note_on channel=0 note=49 velocity=0 time=0
note_on channel=0 note=77 velocity=50 time=0
note_on channel=0 note=80 velocity=59 time=0
note_on channel=0 note=71 velocity=50 time=0
note_on channel=0 note=44 velocity=32 time=0
note_on channel=0 note=49 velocity=32 time=0
note_on channel=0 note=56 velocity=37 time=0
control_change channel=0 control=64 value=0 time=11
control_change channel=0 control=64 value=127 time=38
note_on channel=0 note=71 velocity=0 time=11
note_on channel=0 note=77 velocity=0 time=0
note_on channel=0 note=80 velocity=0 time=0
note_on channel=0 note=68 velocity=56 time=0
note_on channel=0 note=68 velocity=0 time=0
note_on channel=0 note=56 velocity=0 time=0
note_on channel=0 note=49 velocity=0 time=0
note_on channel=0 note=44 velocity=0 time=0
note_on channel=0 note=78 velocity=50 time=0
note_on channel=0 note=81 velocity=59 time=0
note_on channel=0 note=73 velocity=50 time=0
note_on channel=0 note=42 velocity=34 time=0
note_on channel=0 note=49 velocity=34 time=0
note_on channel=0 note=54 velocity=41 time=0
note_on channel=0 note=73 velocity=0 time=60
note_on channel=0 note=78 velocity=0 time=0
note_on channel=0 note=81 velocity=0 time=0
note_on channel=0 note=69 velocity=62 time=0
note_on channel=0 note=69 velocity=0 time=0
note_on channel=0 note=54 velocity=0 time=0
note_on channel=0 note=49 velocity=0 time=0
note_on channel=0 note=42 velocity=0 time=0
note_on channel=0 note=80 velocity=55 time=0
note_on channel=0 note=83 velocity=65 time=0
note_on channel=0 note=71 velocity=55 time=0
note_on channel=0 note=37 velocity=37 time=0
note_on channel=0 note=49 velocity=44 time=0
control_change channel=0 control=64 value=0 time=0
note_on channel=0 note=49 velocity=0 time=119
note_on channel=0 note=37 velocity=0 time=0
note_on channel=0 note=37 velocity=61 time=1
note_on channel=0 note=80 velocity=0 time=120
note_on channel=0 note=71 velocity=0 time=0
note_on channel=0 note=83 velocity=0 time=0
note_on channel=0 note=68 velocity=50 time=0
note_on channel=0 note=71 velocity=59 time=0
note_on channel=0 note=62 velocity=50 time=0
note_on channel=0 note=37 velocity=0 time=120
note_on channel=0 note=29 velocity=39 time=0
note_on channel=0 note=41 velocity=47 time=0
note_on channel=0 note=68 velocity=0 time=120
note_on channel=0 note=62 velocity=0 time=0
note_on channel=0 note=71 velocity=0 time=0
note_on channel=0 note=61 velocity=50 time=0
note_on channel=0 note=66 velocity=50 time=0
note_on channel=0 note=69 velocity=59 time=0
note_on channel=0 note=29 velocity=0 time=0
note_on channel=0 note=41 velocity=0 time=0
note_on channel=0 note=30 velocity=39 time=0
note_on channel=0 note=42 velocity=47 time=0
note_on channel=0 note=66 velocity=0 time=0
note_on channel=0 note=69 velocity=0 time=0
note_on channel=0 note=61 velocity=0 time=0
note_on channel=0 note=59 velocity=51 time=0
note_on channel=0 note=62 velocity=51 time=0
note_on channel=0 note=69 velocity=65 time=0
note_on channel=0 note=65 velocity=55 time=0
note_on channel=0 note=30 velocity=0 time=120
note_on channel=0 note=42 velocity=0 time=0
note_on channel=0 note=32 velocity=39 time=0
note_on channel=0 note=44 velocity=47 time=0
note_on channel=0 note=69 velocity=0 time=120
note_on channel=0 note=59 velocity=0 time=0
note_on channel=0 note=62 velocity=0 time=0
note_on channel=0 note=65 velocity=0 time=0
note_on channel=0 note=62 velocity=50 time=0
note_on channel=0 note=59 velocity=50 time=0
note_on channel=0 note=68 velocity=59 time=0
note_on channel=0 note=65 velocity=59 time=0
note_on channel=0 note=44 velocity=0 time=120
note_on channel=0 note=32 velocity=0 time=0
note_on channel=0 note=33 velocity=41 time=0
note_on channel=0 note=45 velocity=49 time=0
note_on channel=0 note=45 velocity=0 time=120
note_on channel=0 note=65 velocity=0 time=0
note_on channel=0 note=62 velocity=0 time=0
note_on channel=0 note=59 velocity=0 time=0
note_on channel=0 note=33 velocity=0 time=0
note_on channel=0 note=68 velocity=0 time=0
note_on channel=0 note=63 velocity=50 time=0
note_on channel=0 note=57 velocity=50 time=0
note_on channel=0 note=66 velocity=59 time=0
note_on channel=0 note=35 velocity=44 time=0
note_on channel=0 note=47 velocity=52 time=0
note_on channel=0 note=47 velocity=0 time=0
note_on channel=0 note=35 velocity=0 time=0
note_on channel=0 note=36 velocity=46 time=0
note_on channel=0 note=48 velocity=55 time=0
note_on channel=0 note=48 velocity=0 time=0
note_on channel=0 note=63 velocity=0 time=0
note_on channel=0 note=66 velocity=0 time=0
note_on channel=0 note=57 velocity=0 time=0
note_on channel=0 note=36 velocity=0 time=0
note_on channel=0 note=63 velocity=56 time=0
note_on channel=0 note=66 velocity=66 time=0
note_on channel=0 note=57 velocity=56 time=0
note_on channel=0 note=37 velocity=42 time=0
note_on channel=0 note=49 velocity=50 time=0
note_on channel=0 note=49 velocity=0 time=120
note_on channel=0 note=37 velocity=0 time=0
note_on channel=0 note=36 velocity=36 time=0
note_on channel=0 note=48 velocity=43 time=0
note_on channel=0 note=48 velocity=0 time=120
note_on channel=0 note=36 velocity=0 time=0
note_on channel=0 note=37 velocity=41 time=0
note_on channel=0 note=49 velocity=49 time=0
note_on channel=0 note=49 velocity=0 time=120
note_on channel=0 note=63 velocity=0 time=0
note_on channel=0 note=37 velocity=0 time=0
note_on channel=0 note=60 velocity=55 time=0
note_on channel=0 note=36 velocity=36 time=0
note_on channel=0 note=48 velocity=43 time=0
note_on channel=0 note=48 velocity=0 time=120
note_on channel=0 note=60 velocity=0 time=0
note_on channel=0 note=36 velocity=0 time=0
note_on channel=0 note=61 velocity=55 time=0
note_on channel=0 note=37 velocity=39 time=0
note_on channel=0 note=49 velocity=46 time=0
note_on channel=0 note=49 velocity=0 time=120
note_on channel=0 note=61 velocity=0 time=0
note_on channel=0 note=37 velocity=0 time=0
note_on channel=0 note=60 velocity=55 time=0
note_on channel=0 note=36 velocity=35 time=0
note_on channel=0 note=48 velocity=42 time=0
note_on channel=0 note=48 velocity=0 time=120
note_on channel=0 note=60 velocity=0 time=0
note_on channel=0 note=66 velocity=0 time=0
note_on channel=0 note=57 velocity=0 time=0
note_on channel=0 note=36 velocity=0 time=0
note_on channel=0 note=56 velocity=50 time=0
note_on channel=0 note=65 velocity=59 time=0
note_on channel=0 note=61 velocity=50 time=0
note_on channel=0 note=37 velocity=40 time=0
note_on channel=0 note=49 velocity=48 time=0
control_change channel=0 control=64 value=127 time=80
note_on channel=0 note=49 velocity=0 time=40
note_on channel=0 note=37 velocity=0 time=0
note_on channel=0 note=53 velocity=36 time=0
note_on channel=0 note=53 velocity=0 time=0
note_on channel=0 note=56 velocity=46 time=0
note_on channel=0 note=56 velocity=0 time=0
note_on channel=0 note=68 velocity=57 time=0
note_on channel=0 note=53 velocity=36 time=0
note_on channel=0 note=53 velocity=0 time=120
note_on channel=0 note=68 velocity=0 time=0
note_on channel=0 note=71 velocity=60 time=0
note_on channel=0 note=56 velocity=44 time=0
note_on channel=0 note=56 velocity=0 time=120
note_on channel=0 note=71 velocity=0 time=0
note_on channel=0 note=74 velocity=63 time=0
note_on channel=0 note=59 velocity=36 time=0
note_on channel=0 note=59 velocity=0 time=0
note_on channel=0 note=56 velocity=0 time=0
note_on channel=0 note=61 velocity=0 time=0
note_on channel=0 note=65 velocity=0 time=0
note_on channel=0 note=74 velocity=0 time=0
note_on channel=0 note=68 velocity=55 time=0
note_on channel=0 note=62 velocity=46 time=0
note_on channel=0 note=74 velocity=65 time=0
note_on channel=0 note=65 velocity=46 time=0
note_on channel=0 note=71 velocity=55 time=0
note_on channel=0 note=49 velocity=31 time=0
note_on channel=0 note=53 velocity=31 time=0
note_on channel=0 note=56 velocity=37 time=0
note_on channel=0 note=59 velocity=44 time=0
control_change channel=0 control=64 value=0 time=0
note_on channel=0 note=59 velocity=0 time=120
note_on channel=0 note=56 velocity=0 time=0
note_on channel=0 note=53 velocity=0 time=0
note_on channel=0 note=49 velocity=0 time=0
note_on channel=0 note=37 velocity=51 time=0
note_on channel=0 note=49 velocity=61 time=0
note_on channel=0 note=62 velocity=0 time=118
note_on channel=0 note=68 velocity=0 time=0
note_on channel=0 note=65 velocity=0 time=0
note_on channel=0 note=74 velocity=0 time=0
note_on channel=0 note=71 velocity=0 time=0
note_on channel=0 note=68 velocity=50 time=2
note_on channel=0 note=74 velocity=59 time=0
note_on channel=0 note=62 velocity=50 time=0
note_on channel=0 note=71 velocity=50 time=0
note_on channel=0 note=49 velocity=0 time=120
note_on channel=0 note=37 velocity=0 time=0
note_on channel=0 note=41 velocity=39 time=0
note_on channel=0 note=53 velocity=47 time=0
note_on channel=0 note=62 velocity=0 time=118
note_on channel=0 note=68 velocity=0 time=0
note_on channel=0 note=74 velocity=0 time=0
note_on channel=0 note=71 velocity=0 time=0
note_on channel=0 note=61 velocity=50 time=2
note_on channel=0 note=73 velocity=59 time=0
note_on channel=0 note=69 velocity=50 time=0
note_on channel=0 note=53 velocity=0 time=0
note_on channel=0 note=41 velocity=0 time=0
note_on channel=0 note=42 velocity=39 time=0
note_on channel=0 note=54 velocity=47 time=0
note_on channel=0 note=73 velocity=0 time=118
note_on channel=0 note=69 velocity=0 time=0
note_on channel=0 note=61 velocity=0 time=0
note_on channel=0 note=68 velocity=55 time=0
note_on channel=0 note=73 velocity=65 time=0
note_on channel=0 note=65 velocity=55 time=0
note_on channel=0 note=62 velocity=55 time=0
note_on channel=0 note=42 velocity=0 time=120
note_on channel=0 note=54 velocity=0 time=0
note_on channel=0 note=44 velocity=39 time=0
note_on channel=0 note=56 velocity=47 time=0
note_on channel=0 note=65 velocity=0 time=118
note_on channel=0 note=68 velocity=0 time=0
note_on channel=0 note=73 velocity=0 time=0
note_on channel=0 note=62 velocity=0 time=0
note_on channel=0 note=68 velocity=50 time=2
note_on channel=0 note=71 velocity=59 time=0
note_on channel=0 note=65 velocity=59 time=0
note_on channel=0 note=62 velocity=50 time=0
note_on channel=0 note=56 velocity=0 time=120
note_on channel=0 note=44 velocity=0 time=0
note_on channel=0 note=45 velocity=41 time=0
note_on channel=0 note=57 velocity=49 time=0
note_on channel=0 note=65 velocity=0 time=118
note_on channel=0 note=68 velocity=0 time=0
note_on channel=0 note=71 velocity=0 time=0
note_on channel=0 note=62 velocity=0 time=0
note_on channel=0 note=57 velocity=0 time=2
note_on channel=0 note=45 velocity=0 time=0
note_on channel=0 note=63 velocity=50 time=0
note_on channel=0 note=66 velocity=50 time=0
note_on channel=0 note=69 velocity=59 time=0
note_on channel=0 note=47 velocity=44 time=0
note_on channel=0 note=59 velocity=52 time=0
note_on channel=0 note=59 velocity=0 time=0
note_on channel=0 note=47 velocity=0 time=0
note_on channel=0 note=48 velocity=46 time=0
note_on channel=0 note=60 velocity=55 time=0
note_on channel=0 note=63 velocity=0 time=118
note_on channel=0 note=69 velocity=0 time=0
note_on channel=0 note=66 velocity=0 time=0
note_on channel=0 note=66 velocity=56 time=0
note_on channel=0 note=69 velocity=66 time=0
note_on channel=0 note=48 velocity=0 time=104
note_on channel=0 note=60 velocity=0 time=0
note_on channel=0 note=49 velocity=36 time=0
note_on channel=0 note=61 velocity=43 time=0
note_on channel=0 note=61 velocity=0 time=71
note_on channel=0 note=49 velocity=0 time=0
note_on channel=0 note=60 velocity=55 time=0
note_on channel=0 note=36 velocity=41 time=0
note_on channel=0 note=48 velocity=49 time=0
note_on channel=0 note=48 velocity=0 time=56
note_on channel=0 note=60 velocity=0 time=0
note_on channel=0 note=36 velocity=0 time=0
note_on channel=0 note=61 velocity=55 time=0
note_on channel=0 note=37 velocity=36 time=0
note_on channel=0 note=49 velocity=43 time=0
note_on channel=0 note=49 velocity=0 time=23
note_on channel=0 note=61 velocity=0 time=0
note_on channel=0 note=69 velocity=0 time=0
note_on channel=0 note=66 velocity=0 time=0
note_on channel=0 note=37 velocity=0 time=0
note_on channel=0 note=65 velocity=51 time=0
note_on channel=0 note=68 velocity=51 time=0
note_on channel=0 note=60 velocity=55 time=0
note_on channel=0 note=36 velocity=39 time=0
note_on channel=0 note=48 velocity=46 time=0
note_on channel=0 note=48 velocity=0 time=8
note_on channel=0 note=60 velocity=0 time=0
note_on channel=0 note=36 velocity=0 time=0
note_on channel=0 note=61 velocity=55 time=0
note_on channel=0 note=37 velocity=35 time=0
note_on channel=0 note=49 velocity=42 time=0
note_on channel=0 note=49 velocity=0 time=120
note_on channel=0 note=61 velocity=0 time=0
note_on channel=0 note=65 velocity=0 time=0
note_on channel=0 note=68 velocity=0 time=0
note_on channel=0 note=37 velocity=0 time=0
note_on channel=0 note=61 velocity=50 time=0
note_on channel=0 note=56 velocity=50 time=0
note_on channel=0 note=65 velocity=50 time=0
note_on channel=0 note=68 velocity=59 time=0
note_on channel=0 note=48 velocity=46 time=0
note_on channel=0 note=36 velocity=39 time=0
note_on channel=0 note=36 velocity=0 time=114
note_on channel=0 note=48 velocity=0 time=0
note_on channel=0 note=37 velocity=35 time=0
note_on channel=0 note=49 velocity=42 time=0
note_on channel=0 note=49 velocity=0 time=0
note_on channel=0 note=56 velocity=0 time=0
note_on channel=0 note=68 velocity=0 time=0
note_on channel=0 note=61 velocity=0 time=0
note_on channel=0 note=37 velocity=0 time=0
note_on channel=0 note=65 velocity=0 time=0
note_on channel=0 note=55 velocity=33 time=0
note_on channel=0 note=58 velocity=33 time=0
note_on channel=0 note=64 velocity=39 time=0
note_on channel=0 note=67 velocity=48 time=0
note_on channel=0 note=37 velocity=34 time=0
control_change channel=0 control=64 value=127 time=57
note_on channel=0 note=37 velocity=0 time=63
note_on channel=0 note=46 velocity=30 time=0
note_on channel=0 note=46 velocity=0 time=120
note_on channel=0 note=64 velocity=0 time=0
note_on channel=0 note=55 velocity=0 time=0
note_on channel=0 note=58 velocity=0 time=0
note_on channel=0 note=55 velocity=33 time=0
note_on channel=0 note=59 velocity=33 time=0
note_on channel=0 note=62 velocity=39 time=0
note_on channel=0 note=38 velocity=33 time=0
control_change channel=0 control=64 value=0 time=11
control_change channel=0 control=64 value=127 time=75
note_on channel=0 note=38 velocity=0 time=34
note_on channel=0 note=47 velocity=30 time=0
note_on channel=0 note=67 velocity=0 time=60
note_on channel=0 note=67 velocity=47 time=0
note_on channel=0 note=67 velocity=0 time=60
note_on channel=0 note=47 velocity=0 time=0
note_on channel=0 note=55 velocity=0 time=0
note_on channel=0 note=59 velocity=0 time=0
note_on channel=0 note=62 velocity=0 time=0
note_on channel=0 note=83 velocity=63 time=0
note_on channel=0 note=31 velocity=33 time=0
control_change channel=0 control=64 value=0 time=0
control_change channel=0 control=64 value=127 time=57
note_on channel=0 note=31 velocity=0 time=63
note_on channel=0 note=43 velocity=28 time=0
note_on channel=0 note=43 velocity=0 time=0
note_on channel=0 note=71 velocity=47 time=0
note_on channel=0 note=50 velocity=28 time=0
note_on channel=0 note=50 velocity=0 time=120
note_on channel=0 note=43 velocity=28 time=0
note_on channel=0 note=43 velocity=0 time=120
note_on channel=0 note=71 velocity=0 time=0
note_on channel=0 note=83 velocity=0 time=0
note_on channel=0 note=69 velocity=37 time=0
note_on channel=0 note=81 velocity=50 time=0
note_on channel=0 note=50 velocity=28 time=0
note_on channel=0 note=50 velocity=0 time=0
note_on channel=0 note=43 velocity=28 time=0
note_on channel=0 note=81 velocity=0 time=118
note_on channel=0 note=69 velocity=0 time=0
note_on channel=0 note=43 velocity=0 time=0
note_on channel=0 note=69 velocity=40 time=0
note_on channel=0 note=81 velocity=55 time=0
note_on channel=0 note=35 velocity=33 time=0
control_change channel=0 control=64 value=0 time=10
control_change channel=0 control=64 value=127 time=76
note_on channel=0 note=35 velocity=0 time=34
note_on channel=0 note=43 velocity=28 time=0
note_on channel=0 note=43 velocity=0 time=0
note_on channel=0 note=81 velocity=0 time=0
note_on channel=0 note=69 velocity=0 time=0
note_on channel=0 note=67 velocity=35 time=0
note_on channel=0 note=79 velocity=48 time=0
note_on channel=0 note=55 velocity=28 time=0
note_on channel=0 note=55 velocity=0 time=120
note_on channel=0 note=43 velocity=28 time=0
note_on channel=0 note=43 velocity=0 time=120
note_on channel=0 note=79 velocity=0 time=0
note_on channel=0 note=67 velocity=0 time=0
note_on channel=0 note=67 velocity=36 time=0
note_on channel=0 note=71 velocity=36 time=0
note_on channel=0 note=79 velocity=49 time=0
note_on channel=0 note=55 velocity=28 time=0
note_on channel=0 note=55 velocity=0 time=0
note_on channel=0 note=79 velocity=0 time=0
note_on channel=0 note=71 velocity=0 time=0
note_on channel=0 note=74 velocity=33 time=0
note_on channel=0 note=78 velocity=44 time=0
note_on channel=0 note=43 velocity=28 time=0
note_on channel=0 note=43 velocity=0 time=0
note_on channel=0 note=67 velocity=0 time=0
note_on channel=0 note=74 velocity=0 time=0
note_on channel=0 note=78 velocity=0 time=0
note_on channel=0 note=67 velocity=40 time=0
note_on channel=0 note=74 velocity=48 time=0
note_on channel=0 note=78 velocity=55 time=0
note_on channel=0 note=36 velocity=33 time=0
control_change channel=0 control=64 value=0 time=0
control_change channel=0 control=64 value=127 time=49
note_on channel=0 note=36 velocity=0 time=71
note_on channel=0 note=43 velocity=29 time=0
note_on channel=0 note=43 velocity=0 time=120
note_on channel=0 note=78 velocity=0 time=0
note_on channel=0 note=74 velocity=0 time=0
note_on channel=0 note=67 velocity=0 time=0
note_on channel=0 note=67 velocity=36 time=0
note_on channel=0 note=72 velocity=36 time=0
note_on channel=0 note=76 velocity=49 time=0
note_on channel=0 note=55 velocity=29 time=0
note_on channel=0 note=55 velocity=0 time=120
note_on channel=0 note=43 velocity=29 time=0
note_on channel=0 note=43 velocity=0 time=0
note_on channel=0 note=76 velocity=0 time=0
note_on channel=0 note=72 velocity=0 time=0
note_on channel=0 note=67 velocity=0 time=0
note_on channel=0 note=76 velocity=48 time=0
note_on channel=0 note=72 velocity=35 time=0
note_on channel=0 note=67 velocity=35 time=0
note_on channel=0 note=55 velocity=29 time=0
control_change channel=0 control=64 value=0 time=12
note_on channel=0 note=55 velocity=0 time=108
note_on channel=0 note=76 velocity=0 time=0
note_on channel=0 note=72 velocity=0 time=0
note_on channel=0 note=67 velocity=0 time=0
note_on channel=0 note=75 velocity=38 time=0
note_on channel=0 note=78 velocity=51 time=0
note_on channel=0 note=69 velocity=38 time=0
note_on channel=0 note=72 velocity=38 time=0
note_on channel=0 note=43 velocity=29 time=0
note_on channel=0 note=43 velocity=0 time=0
note_on channel=0 note=69 velocity=0 time=0
note_on channel=0 note=75 velocity=0 time=0
note_on channel=0 note=78 velocity=0 time=0
note_on channel=0 note=72 velocity=0 time=0
note_on channel=0 note=75 velocity=40 time=0
note_on channel=0 note=78 velocity=55 time=0
note_on channel=0 note=69 velocity=40 time=0
note_on channel=0 note=72 velocity=40 time=0
note_on channel=0 note=31 velocity=33 time=0
control_change channel=0 control=64 value=127 time=29
note_on channel=0 note=31 velocity=0 time=0
note_on channel=0 note=69 velocity=0 time=0
note_on channel=0 note=75 velocity=0 time=0
note_on channel=0 note=78 velocity=0 time=0
note_on channel=0 note=72 velocity=0 time=0
note_on channel=0 note=79 velocity=50 time=0
note_on channel=0 note=74 velocity=37 time=0
note_on channel=0 note=71 velocity=37 time=0
note_on channel=0 note=43 velocity=28 time=0
note_on channel=0 note=43 velocity=0 time=0
note_on channel=0 note=79 velocity=0 time=0
note_on channel=0 note=74 velocity=0 time=0
note_on channel=0 note=71 velocity=0 time=0
note_on channel=0 note=71 velocity=37 time=0
note_on channel=0 note=74 velocity=37 time=0
note_on channel=0 note=79 velocity=50 time=0
note_on channel=0 note=55 velocity=28 time=0
control_change channel=0 control=64 value=0 time=11
control_change channel=0 control=64 value=127 time=41
note_on channel=0 note=55 velocity=0 time=68
note_on channel=0 note=43 velocity=28 time=0
note_on channel=0 note=43 velocity=0 time=0
note_on channel=0 note=79 velocity=0 time=0
note_on channel=0 note=74 velocity=0 time=0
note_on channel=0 note=71 velocity=0 time=0
note_on channel=0 note=67 velocity=40 time=0
note_on channel=0 note=55 velocity=28 time=0
note_on channel=0 note=55 velocity=0 time=60
note_on channel=0 note=43 velocity=24 time=0
note_on channel=0 note=43 velocity=0 time=0
note_on channel=0 note=67 velocity=0 time=0
note_on channel=0 note=54 velocity=30 time=0
note_on channel=0 note=66 velocity=36 time=0
note_on channel=0 note=38 velocity=23 time=0
note_on channel=0 note=42 velocity=28 time=0
note_on channel=0 note=42 velocity=0 time=120
note_on channel=0 note=54 velocity=0 time=0
note_on channel=0 note=66 velocity=0 time=0
note_on channel=0 note=38 velocity=0 time=0
note_on channel=0 note=54 velocity=34 time=0
note_on channel=0 note=66 velocity=40 time=0
note_on channel=0 note=38 velocity=25 time=0
note_on channel=0 note=42 velocity=30 time=0
control_change channel=0 control=64 value=0 time=0
control_change channel=0 control=64 value=127 time=97
note_on channel=0 note=42 velocity=0 time=23
note_on channel=0 note=38 velocity=0 time=0
note_on channel=0 note=45 velocity=27 time=0
note_on channel=0 note=66 velocity=0 time=118
note_on channel=0 note=54 velocity=0 time=0
note_on channel=0 note=45 velocity=0 time=0
note_on channel=0 note=57 velocity=31 time=0
note_on channel=0 note=69 velocity=37 time=0
note_on channel=0 note=66 velocity=31 time=0
note_on channel=0 note=61 velocity=31 time=0
note_on channel=0 note=37 velocity=22 time=0
note_on channel=0 note=42 velocity=22 time=0
note_on channel=0 note=45 velocity=27 time=0
note_on channel=0 note=45 velocity=0 time=120
note_on channel=0 note=37 velocity=0 time=0
note_on channel=0 note=42 velocity=0 time=0
note_on channel=0 note=49 velocity=27 time=0
note_on channel=0 note=66 velocity=0 time=118
note_on channel=0 note=61 velocity=0 time=0
note_on channel=0 note=57 velocity=0 time=0
note_on channel=0 note=69 velocity=0 time=0
note_on channel=0 note=49 velocity=0 time=2
note_on channel=0 note=61 velocity=31 time=0
note_on channel=0 note=73 velocity=37 time=0
note_on channel=0 note=69 velocity=31 time=0
note_on channel=0 note=66 velocity=31 time=0
note_on channel=0 note=37 velocity=22 time=0
note_on channel=0 note=42 velocity=22 time=0
note_on channel=0 note=45 velocity=27 time=0
note_on channel=0 note=45 velocity=0 time=0
note_on channel=0 note=37 velocity=0 time=0
note_on channel=0 note=42 velocity=0 time=0
note_on channel=0 note=49 velocity=27 time=0
note_on channel=0 note=69 velocity=0 time=118
note_on channel=0 note=66 velocity=0 time=0
note_on channel=0 note=61 velocity=0 time=0
note_on channel=0 note=73 velocity=0 time=0
note_on channel=0 note=49 velocity=0 time=0
note_on channel=0 note=61 velocity=34 time=0
note_on channel=0 note=73 velocity=41 time=0
note_on channel=0 note=68 velocity=34 time=0
note_on channel=0 note=65 velocity=34 time=0
note_on channel=0 note=37 velocity=28 time=0
note_on channel=0 note=41 velocity=28 time=0
note_on channel=0 note=44 velocity=33 time=0
control_change channel=0 control=64 value=0 time=11
control_change channel=0 control=64 value=127 time=98
note_on channel=0 note=44 velocity=0 time=11
note_on channel=0 note=37 velocity=0 time=0
note_on channel=0 note=41 velocity=0 time=0
note_on channel=0 note=49 velocity=28 time=0
note_on channel=0 note=49 velocity=0 time=0
note_on channel=0 note=37 velocity=23 time=0
note_on channel=0 note=41 velocity=23 time=0
note_on channel=0 note=44 velocity=28 time=0
note_on channel=0 note=44 velocity=0 time=120
note_on channel=0 note=37 velocity=0 time=0
note_on channel=0 note=41 velocity=0 time=0
note_on channel=0 note=49 velocity=28 time=0
note_on channel=0 note=68 velocity=0 time=115
note_on channel=0 note=65 velocity=0 time=0
note_on channel=0 note=61 velocity=0 time=0
note_on channel=0 note=73 velocity=0 time=0
note_on channel=0 note=49 velocity=0 time=5
note_on channel=0 note=61 velocity=29 time=0
note_on channel=0 note=73 velocity=35 time=0
note_on channel=0 note=69 velocity=29 time=0
note_on channel=0 note=66 velocity=29 time=0
note_on channel=0 note=42 velocity=28 time=0
note_on channel=0 note=45 velocity=28 time=0
control_change channel=0 control=64 value=0 time=12
control_change channel=0 control=64 value=127 time=63
note_on channel=0 note=45 velocity=0 time=0
note_on channel=0 note=42 velocity=0 time=0
note_on channel=0 note=49 velocity=28 time=0
note_on channel=0 note=69 velocity=0 time=118
note_on channel=0 note=66 velocity=0 time=0
note_on channel=0 note=61 velocity=0 time=0
note_on channel=0 note=73 velocity=0 time=0
note_on channel=0 note=49 velocity=0 time=0
note_on channel=0 note=61 velocity=36 time=0
note_on channel=0 note=69 velocity=36 time=0
note_on channel=0 note=73 velocity=43 time=0
note_on channel=0 note=42 velocity=26 time=0
note_on channel=0 note=45 velocity=31 time=0
control_change channel=0 control=64 value=0 time=0
control_change channel=0 control=64 value=127 time=86
note_on channel=0 note=45 velocity=0 time=34
note_on channel=0 note=42 velocity=0 time=0
note_on channel=0 note=49 velocity=26 time=0
note_on channel=0 note=49 velocity=0 time=120
note_on channel=0 note=73 velocity=0 time=0
note_on channel=0 note=69 velocity=0 time=0
note_on channel=0 note=61 velocity=0 time=0
note_on channel=0 note=62 velocity=34 time=0
note_on channel=0 note=67 velocity=34 time=0
note_on channel=0 note=74 velocity=40 time=0
note_on channel=0 note=35 velocity=22 time=0
note_on channel=0 note=47 velocity=26 time=0
control_change channel=0 control=64 value=0 time=12
control_change channel=0 control=64 value=127 time=63
note_on channel=0 note=47 velocity=0 time=45
note_on channel=0 note=35 velocity=0 time=0
note_on channel=0 note=50 velocity=26 time=0
note_on channel=0 note=50 velocity=0 time=120
note_on channel=0 note=74 velocity=0 time=0
note_on channel=0 note=67 velocity=0 time=0
note_on channel=0 note=62 velocity=0 time=0
note_on channel=0 note=55 velocity=30 time=0
note_on channel=0 note=67 velocity=36 time=0
note_on channel=0 note=35 velocity=22 time=0
note_on channel=0 note=43 velocity=26 time=0
note_on channel=0 note=43 velocity=0 time=120
note_on channel=0 note=35 velocity=0 time=0
note_on channel=0 note=47 velocity=26 time=0
note_on channel=0 note=47 velocity=0 time=118
note_on channel=0 note=67 velocity=0 time=0
note_on channel=0 note=55 velocity=0 time=0
note_on channel=0 note=59 velocity=31 time=0
note_on channel=0 note=71 velocity=37 time=0
note_on channel=0 note=35 velocity=26 time=0
note_on channel=0 note=47 velocity=31 time=0
control_change channel=0 control=64 value=0 time=12
control_change channel=0 control=64 value=127 time=91
note_on channel=0 note=47 velocity=0 time=17
note_on channel=0 note=35 velocity=0 time=0
note_on channel=0 note=47 velocity=24 time=0
note_on channel=0 note=47 velocity=0 time=120
note_on channel=0 note=71 velocity=0 time=0
note_on channel=0 note=59 velocity=0 time=0
note_on channel=0 note=61 velocity=37 time=0
note_on channel=0 note=37 velocity=20 time=0
note_on channel=0 note=49 velocity=24 time=0
control_change channel=0 control=64 value=0 time=10
control_change channel=0 control=64 value=127 time=76
note_on channel=0 note=49 velocity=0 time=34
note_on channel=0 note=37 velocity=0 time=0
note_on channel=0 note=49 velocity=24 time=0
note_on channel=0 note=49 velocity=0 time=120
note_on channel=0 note=61 velocity=0 time=0
note_on channel=0 note=65 velocity=31 time=0
note_on channel=0 note=53 velocity=26 time=0
note_on channel=0 note=37 velocity=24 time=0
note_on channel=0 note=37 velocity=0 time=0
note_on channel=0 note=41 velocity=24 time=0
note_on channel=0 note=41 velocity=0 time=0
note_on channel=0 note=53 velocity=0 time=0
note_on channel=0 note=65 velocity=0 time=0
note_on channel=0 note=66 velocity=38 time=0
note_on channel=0 note=54 velocity=32 time=0
note_on channel=0 note=30 velocity=29 time=0
control_change channel=0 control=64 value=0 time=0
control_change channel=0 control=64 value=127 time=92
note_on channel=0 note=30 velocity=0 time=28
note_on channel=0 note=37 velocity=22 time=0
note_on channel=0 note=42 velocity=26 time=0
note_on channel=0 note=42 velocity=0 time=0
note_on channel=0 note=66 velocity=0 time=0
note_on channel=0 note=54 velocity=0 time=0
note_on channel=0 note=37 velocity=0 time=0
note_on channel=0 note=73 velocity=41 time=0
note_on channel=0 note=61 velocity=34 time=0
note_on channel=0 note=29 velocity=26 time=0
control_change channel=0 control=64 value=0 time=11
control_change channel=0 control=64 value=127 time=75
note_on channel=0 note=29 velocity=0 time=34
note_on channel=0 note=37 velocity=21 time=0
note_on channel=0 note=44 velocity=24 time=0
note_on channel=0 note=44 velocity=0 time=120
note_on channel=0 note=37 velocity=0 time=0
note_on channel=0 note=29 velocity=23 time=0
note_on channel=0 note=29 velocity=0 time=0
note_on channel=0 note=61 velocity=0 time=0
note_on channel=0 note=73 velocity=0 time=0
note_on channel=0 note=68 velocity=29 time=0
note_on channel=0 note=56 velocity=24 time=0
note_on channel=0 note=37 velocity=19 time=0
note_on channel=0 note=44 velocity=22 time=0
note_on channel=0 note=44 velocity=0 time=0
note_on channel=0 note=68 velocity=0 time=0
note_on channel=0 note=56 velocity=0 time=0
note_on channel=0 note=37 velocity=0 time=0
note_on channel=0 note=69 velocity=31 time=0
note_on channel=0 note=57 velocity=26 time=0
note_on channel=0 note=30 velocity=24 time=0
control_change channel=0 control=64 value=0 time=13
control_change channel=0 control=64 value=127 time=73
note_on channel=0 note=30 velocity=0 time=34
note_on channel=0 note=37 velocity=19 time=0
note_on channel=0 note=45 velocity=23 time=0
note_on channel=0 note=45 velocity=0 time=120
note_on channel=0 note=69 velocity=0 time=0
note_on channel=0 note=57 velocity=0 time=0
note_on channel=0 note=37 velocity=0 time=0
note_on channel=0 note=81 velocity=42 time=0
note_on channel=0 note=69 velocity=34 time=0
note_on channel=0 note=37 velocity=18 time=0
note_on channel=0 note=37 velocity=0 time=120
note_on channel=0 note=49 velocity=18 time=0
note_on channel=0 note=42 velocity=15 time=0
note_on channel=0 note=42 velocity=0 time=120
note_on channel=0 note=49 velocity=0 time=0
note_on channel=0 note=37 velocity=18 time=0
note_on channel=0 note=37 velocity=0 time=0
note_on channel=0 note=69 velocity=0 time=0
note_on channel=0 note=81 velocity=0 time=0
note_on channel=0 note=77 velocity=25 time=0
note_on channel=0 note=65 velocity=21 time=0
note_on channel=0 note=49 velocity=18 time=0
note_on channel=0 note=49 velocity=0 time=0
note_on channel=0 note=65 velocity=0 time=0
note_on channel=0 note=77 velocity=0 time=0
control_change channel=0 control=64 value=0 time=0
note_on channel=0 note=38 velocity=24 time=240
note_on channel=0 note=50 velocity=29 time=0
control_change channel=0 control=64 value=127 time=28
note_on channel=0 note=50 velocity=0 time=92
note_on channel=0 note=38 velocity=0 time=0
note_on channel=0 note=69 velocity=23 time=120
note_on channel=0 note=66 velocity=19 time=0
note_on channel=0 note=62 velocity=19 time=0
note_on channel=0 note=57 velocity=19 time=0
note_on channel=0 note=57 velocity=0 time=120
note_on channel=0 note=69 velocity=0 time=0
note_on channel=0 note=66 velocity=0 time=0
note_on channel=0 note=62 velocity=0 time=0
note_on channel=0 note=69 velocity=23 time=120
note_on channel=0 note=66 velocity=19 time=0
note_on channel=0 note=62 velocity=19 time=0
note_on channel=0 note=57 velocity=19 time=0
note_on channel=0 note=57 velocity=0 time=120
note_on channel=0 note=69 velocity=0 time=0
note_on channel=0 note=66 velocity=0 time=0
note_on channel=0 note=62 velocity=0 time=0
note_on channel=0 note=38 velocity=23 time=120
note_on channel=0 note=50 velocity=28 time=0
note_on channel=0 note=50 velocity=0 time=120
note_on channel=0 note=38 velocity=0 time=0
note_on channel=0 note=78 velocity=43 time=120
note_on channel=0 note=69 velocity=23 time=0
note_on channel=0 note=66 velocity=19 time=0
note_on channel=0 note=62 velocity=19 time=0
note_on channel=0 note=57 velocity=19 time=0
note_on channel=0 note=57 velocity=0 time=120
note_on channel=0 note=66 velocity=0 time=0
note_on channel=0 note=62 velocity=0 time=0
note_on channel=0 note=69 velocity=0 time=0
note_on channel=0 note=69 velocity=23 time=120
note_on channel=0 note=66 velocity=19 time=0
note_on channel=0 note=62 velocity=19 time=0
note_on channel=0 note=57 velocity=19 time=0
control_change channel=0 control=64 value=0 time=3
note_on channel=0 note=78 velocity=0 time=114
note_on channel=0 note=62 velocity=0 time=3
note_on channel=0 note=69 velocity=0 time=0
note_on channel=0 note=66 velocity=0 time=0
note_on channel=0 note=57 velocity=0 time=0
note_on channel=0 note=78 velocity=44 time=0
control_change channel=0 control=64 value=127 time=7
note_on channel=0 note=38 velocity=22 time=113
note_on channel=0 note=50 velocity=27 time=0
note_on channel=0 note=78 velocity=0 time=118
note_on channel=0 note=50 velocity=0 time=2
note_on channel=0 note=38 velocity=0 time=0
note_on channel=0 note=78 velocity=44 time=0
note_on channel=0 note=81 velocity=61 time=0
note_on channel=0 note=69 velocity=23 time=0
note_on channel=0 note=66 velocity=19 time=0
note_on channel=0 note=62 velocity=19 time=0
note_on channel=0 note=57 velocity=19 time=0
note_on channel=0 note=78 velocity=0 time=118
note_on channel=0 note=69 velocity=0 time=2
note_on channel=0 note=66 velocity=0 time=0
note_on channel=0 note=62 velocity=0 time=0
note_on channel=0 note=57 velocity=0 time=0
note_on channel=0 note=78 velocity=49 time=0
note_on channel=0 note=81 velocity=0 time=118
note_on channel=0 note=86 velocity=74 time=2
note_on channel=0 note=69 velocity=23 time=0
note_on channel=0 note=66 velocity=19 time=0
note_on channel=0 note=62 velocity=19 time=0
note_on channel=0 note=57 velocity=19 time=0
note_on channel=0 note=78 velocity=0 time=118
note_on channel=0 note=69 velocity=0 time=2
note_on channel=0 note=66 velocity=0 time=0
note_on channel=0 note=62 velocity=0 time=0
note_on channel=0 note=57 velocity=0 time=0
note_on channel=0 note=78 velocity=54 time=0
note_on channel=0 note=86 velocity=0 time=0
note_on channel=0 note=88 velocity=71 time=0
note_on channel=0 note=38 velocity=22 time=0
note_on channel=0 note=50 velocity=26 time=0
note_on channel=0 note=78 velocity=0 time=118
note_on channel=0 note=50 velocity=0 time=2
note_on channel=0 note=38 velocity=0 time=0
note_on channel=0 note=78 velocity=52 time=0
note_on channel=0 note=88 velocity=0 time=120
note_on channel=0 note=90 velocity=71 time=0
note_on channel=0 note=69 velocity=23 time=0
note_on channel=0 note=66 velocity=19 time=0
note_on channel=0 note=62 velocity=19 time=0
note_on channel=0 note=57 velocity=19 time=0
note_on channel=0 note=78 velocity=0 time=118
note_on channel=0 note=69 velocity=0 time=0
note_on channel=0 note=66 velocity=0 time=0
note_on channel=0 note=62 velocity=0 time=0
note_on channel=0 note=57 velocity=0 time=0
note_on channel=0 note=78 velocity=45 time=0
note_on channel=0 note=78 velocity=0 time=4
note_on channel=0 note=90 velocity=0 time=0
note_on channel=0 note=90 velocity=69 time=0
note_on channel=0 note=69 velocity=23 time=0
note_on channel=0 note=64 velocity=19 time=0
note_on channel=0 note=61 velocity=19 time=0
note_on channel=0 note=57 velocity=19 time=0
control_change channel=0 control=64 value=0 time=0
note_on channel=0 note=90 velocity=0 time=6
note_on channel=0 note=91 velocity=61 time=0
note_on channel=0 note=91 velocity=0 time=7
note_on channel=0 note=90 velocity=67 time=0
control_change channel=0 control=64 value=127 time=0
note_on channel=0 note=90 velocity=0 time=8
note_on channel=0 note=91 velocity=63 time=0
note_on channel=0 note=91 velocity=0 time=9
note_on channel=0 note=57 velocity=0 time=0
note_on channel=0 note=69 velocity=0 time=0
note_on channel=0 note=64 velocity=0 time=0
note_on channel=0 note=61 velocity=0 time=0
note_on channel=0 note=90 velocity=63 time=0
note_on channel=0 note=90 velocity=0 time=1
note_on channel=0 note=91 velocity=71 time=0
note_on channel=0 note=91 velocity=0 time=2
note_on channel=0 note=90 velocity=69 time=0
note_on channel=0 note=90 velocity=0 time=3
note_on channel=0 note=91 velocity=78 time=0
note_on channel=0 note=91 velocity=0 time=0
note_on channel=0 note=93 velocity=83 time=0
note_on channel=0 note=37 velocity=22 time=0
note_on channel=0 note=49 velocity=27 time=0
note_on channel=0 note=49 velocity=0 time=0
note_on channel=0 note=37 velocity=0 time=0
note_on channel=0 note=81 velocity=57 time=0
note_on channel=0 note=93 velocity=0 time=120
note_on channel=0 note=91 velocity=75 time=0
note_on channel=0 note=69 velocity=23 time=0
note_on channel=0 note=64 velocity=19 time=0
note_on channel=0 note=61 velocity=19 time=0
note_on channel=0 note=57 velocity=19 time=0
note_on channel=0 note=57 velocity=0 time=120
note_on channel=0 note=64 velocity=0 time=0
note_on channel=0 note=69 velocity=0 time=0
note_on channel=0 note=61 velocity=0 time=0
note_on channel=0 note=91 velocity=0 time=120
note_on channel=0 note=91 velocity=77 time=0
note_on channel=0 note=69 velocity=23 time=0
note_on channel=0 note=64 velocity=19 time=0
note_on channel=0 note=61 velocity=19 time=0
note_on channel=0 note=57 velocity=19 time=0
note_on channel=0 note=81 velocity=0 time=115
note_on channel=0 note=69 velocity=0 time=5
note_on channel=0 note=64 velocity=0 time=0
note_on channel=0 note=61 velocity=0 time=0
note_on channel=0 note=57 velocity=0 time=0
note_on channel=0 note=81 velocity=56 time=0
note_on channel=0 note=37 velocity=22 time=120
note_on channel=0 note=49 velocity=26 time=0
note_on channel=0 note=91 velocity=0 time=80
note_on channel=0 note=81 velocity=0 time=40
note_on channel=0 note=37 velocity=0 time=0
note_on channel=0 note=49 velocity=0 time=0
note_on channel=0 note=88 velocity=68 time=0
note_on channel=0 note=88 velocity=0 time=120
note_on channel=0 note=85 velocity=62 time=0
note_on channel=0 note=69 velocity=23 time=0
note_on channel=0 note=64 velocity=19 time=0
note_on channel=0 note=61 velocity=19 time=0
note_on channel=0 note=57 velocity=19 time=0
note_on channel=0 note=57 velocity=0 time=120
note_on channel=0 note=64 velocity=0 time=0
note_on channel=0 note=85 velocity=0 time=0
note_on channel=0 note=69 velocity=0 time=0
note_on channel=0 note=61 velocity=0 time=0
note_on channel=0 note=86 velocity=65 time=0
note_on channel=0 note=86 velocity=0 time=0
note_on channel=0 note=87 velocity=74 time=0
note_on channel=0 note=69 velocity=23 time=0
note_on channel=0 note=64 velocity=19 time=0
note_on channel=0 note=61 velocity=19 time=0
note_on channel=0 note=57 velocity=19 time=0
control_change channel=0 control=64 value=0 time=26
control_change channel=0 control=64 value=127 time=9
note_on channel=0 note=57 velocity=0 time=85
note_on channel=0 note=64 velocity=0 time=0
note_on channel=0 note=87 velocity=0 time=0
note_on channel=0 note=69 velocity=0 time=0
note_on channel=0 note=61 velocity=0 time=0
note_on channel=0 note=88 velocity=64 time=0
note_on channel=0 note=37 velocity=22 time=0
note_on channel=0 note=49 velocity=27 time=0
control_change channel=0 control=64 value=0 time=5
control_change channel=0 control=64 value=127 time=32
note_on channel=0 note=88 velocity=0 time=43
note_on channel=0 note=79 velocity=63 time=0
note_on channel=0 note=49 velocity=0 time=40
note_on channel=0 note=37 velocity=0 time=0
note_on channel=0 note=79 velocity=0 time=40
note_on channel=0 note=78 velocity=64 time=0
note_on channel=0 note=78 velocity=0 time=0
note_on channel=0 note=79 velocity=64 time=0
note_on channel=0 note=69 velocity=23 time=0
note_on channel=0 note=64 velocity=19 time=0
note_on channel=0 note=61 velocity=19 time=0
note_on channel=0 note=57 velocity=19 time=0
note_on channel=0 note=79 velocity=0 time=80
note_on channel=0 note=81 velocity=66 time=0
note_on channel=0 note=61 velocity=0 time=40
note_on channel=0 note=57 velocity=0 time=0
note_on channel=0 note=69 velocity=0 time=0
note_on channel=0 note=64 velocity=0 time=0
note_on channel=0 note=81 velocity=0 time=40
note_on channel=0 note=82 velocity=68 time=0
note_on channel=0 note=82 velocity=0 time=0
note_on channel=0 note=85 velocity=70 time=0
note_on channel=0 note=69 velocity=23 time=0
note_on channel=0 note=64 velocity=19 time=0
note_on channel=0 note=61 velocity=19 time=0
note_on channel=0 note=57 velocity=19 time=0
control_change channel=0 control=64 value=0 time=6
control_change channel=0 control=64 value=127 time=54
note_on channel=0 note=85 velocity=0 time=20
note_on channel=0 note=83 velocity=68 time=0
note_on channel=0 note=61 velocity=0 time=40
note_on channel=0 note=57 velocity=0 time=0
note_on channel=0 note=69 velocity=0 time=0
note_on channel=0 note=64 velocity=0 time=0
note_on channel=0 note=83 velocity=0 time=40
note_on channel=0 note=81 velocity=66 time=0
note_on channel=0 note=81 velocity=0 time=0
note_on channel=0 note=79 velocity=69 time=0
note_on channel=0 note=37 velocity=22 time=0
note_on channel=0 note=49 velocity=26 time=0
note_on channel=0 note=79 velocity=0 time=80
note_on channel=0 note=78 velocity=65 time=0
note_on channel=0 note=49 velocity=0 time=40
note_on channel=0 note=37 velocity=0 time=0
note_on channel=0 note=78 velocity=0 time=40
note_on channel=0 note=79 velocity=60 time=0
note_on channel=0 note=79 velocity=0 time=0
note_on channel=0 note=80 velocity=69 time=0
note_on channel=0 note=69 velocity=23 time=0
note_on channel=0 note=64 velocity=19 time=0
note_on channel=0 note=61 velocity=19 time=0
note_on channel=0 note=57 velocity=19 time=0
control_change channel=0 control=64 value=0 time=8
control_change channel=0 control=64 value=127 time=29
note_on channel=0 note=80 velocity=0 time=43
note_on channel=0 note=81 velocity=64 time=0
note_on channel=0 note=61 velocity=0 time=40
note_on channel=0 note=57 velocity=0 time=0
note_on channel=0 note=69 velocity=0 time=0
note_on channel=0 note=64 velocity=0 time=0
note_on channel=0 note=81 velocity=0 time=40
note_on channel=0 note=76 velocity=59 time=0
note_on channel=0 note=76 velocity=0 time=0
note_on channel=0 note=79 velocity=70 time=0
note_on channel=0 note=69 velocity=26 time=0
note_on channel=0 note=66 velocity=21 time=0
note_on channel=0 note=62 velocity=21 time=0
note_on channel=0 note=57 velocity=21 time=0
control_change channel=0 control=64 value=0 time=0
control_change channel=0 control=64 value=127 time=75
note_on channel=0 note=57 velocity=0 time=45
note_on channel=0 note=66 velocity=0 time=0
note_on channel=0 note=79 velocity=0 time=0
note_on channel=0 note=69 velocity=0 time=0
note_on channel=0 note=62 velocity=0 time=0
note_on channel=0 note=78 velocity=64 time=0
note_on channel=0 note=38 velocity=25 time=0
note_on channel=0 note=50 velocity=31 time=0
note_on channel=0 note=50 velocity=0 time=120
note_on channel=0 note=38 velocity=0 time=0
note_on channel=0 note=78 velocity=0 time=0
note_on channel=0 note=81 velocity=69 time=0
note_on channel=0 note=66 velocity=26 time=120
note_on channel=0 note=62 velocity=21 time=0
note_on channel=0 note=57 velocity=21 time=0
note_on channel=0 note=54 velocity=21 time=0
note_on channel=0 note=54 velocity=0 time=120
note_on channel=0 note=62 velocity=0 time=0
note_on channel=0 note=81 velocity=0 time=0
note_on channel=0 note=66 velocity=0 time=0
note_on channel=0 note=57 velocity=0 time=0
note_on channel=0 note=86 velocity=76 time=0
note_on channel=0 note=66 velocity=26 time=120
note_on channel=0 note=62 velocity=21 time=0
note_on channel=0 note=59 velocity=21 time=0
note_on channel=0 note=54 velocity=21 time=0
control_change channel=0 control=64 value=0 time=10
control_change channel=0 control=64 value=127 time=82
note_on channel=0 note=86 velocity=0 time=26
note_on channel=0 note=59 velocity=0 time=2
note_on channel=0 note=66 velocity=0 time=0
note_on channel=0 note=62 velocity=0 time=0
note_on channel=0 note=54 velocity=0 time=0
note_on channel=0 note=86 velocity=74 time=0
note_on channel=0 note=35 velocity=25 time=0
note_on channel=0 note=47 velocity=29 time=0
note_on channel=0 note=47 velocity=0 time=0
note_on channel=0 note=35 velocity=0 time=0
note_on channel=0 note=86 velocity=0 time=0
note_on channel=0 note=88 velocity=78 time=0
note_on channel=0 note=66 velocity=26 time=120
note_on channel=0 note=62 velocity=21 time=0
note_on channel=0 note=59 velocity=21 time=0
note_on channel=0 note=54 velocity=21 time=0
note_on channel=0 note=54 velocity=0 time=120
note_on channel=0 note=62 velocity=0 time=0
note_on channel=0 note=88 velocity=0 time=0
note_on channel=0 note=66 velocity=0 time=0
note_on channel=0 note=59 velocity=0 time=0
note_on channel=0 note=90 velocity=68 time=0
note_on channel=0 note=90 velocity=0 time=1
note_on channel=0 note=90 velocity=62 time=1
note_on channel=0 note=61 velocity=21 time=0
note_on channel=0 note=66 velocity=26 time=0
note_on channel=0 note=64 velocity=21 time=0
note_on channel=0 note=58 velocity=21 time=0
note_on channel=0 note=54 velocity=21 time=0
control_change channel=0 control=64 value=0 time=0
note_on channel=0 note=90 velocity=0 time=4
note_on channel=0 note=91 velocity=59 time=0
control_change channel=0 control=64 value=127 time=3
note_on channel=0 note=91 velocity=0 time=5
note_on channel=0 note=90 velocity=64 time=0
note_on channel=0 note=90 velocity=0 time=6
note_on channel=0 note=91 velocity=60 time=0
note_on channel=0 note=91 velocity=0 time=17
note_on channel=0 note=54 velocity=0 time=0
note_on channel=0 note=64 velocity=0 time=0
note_on channel=0 note=61 velocity=0 time=0
note_on channel=0 note=66 velocity=0 time=0
note_on channel=0 note=58 velocity=0 time=0
note_on channel=0 note=90 velocity=67 time=0
note_on channel=0 note=90 velocity=0 time=28
note_on channel=0 note=91 velocity=62 time=0
note_on channel=0 note=91 velocity=0 time=19
note_on channel=0 note=90 velocity=69 time=0
note_on channel=0 note=90 velocity=0 time=11
note_on channel=0 note=91 velocity=65 time=0
note_on channel=0 note=91 velocity=0 time=2
note_on channel=0 note=90 velocity=72 time=0
note_on channel=0 note=34 velocity=25 time=0
note_on channel=0 note=46 velocity=31 time=0
note_on channel=0 note=90 velocity=0 time=30
note_on channel=0 note=91 velocity=66 time=0
note_on channel=0 note=91 velocity=0 time=5
note_on channel=0 note=90 velocity=74 time=0
note_on channel=0 note=90 velocity=0 time=16
note_on channel=0 note=91 velocity=70 time=0
note_on channel=0 note=91 velocity=0 time=7
note_on channel=0 note=46 velocity=0 time=0
note_on channel=0 note=34 velocity=0 time=0
note_on channel=0 note=90 velocity=77 time=0
note_on channel=0 note=90 velocity=0 time=9
note_on channel=0 note=89 velocity=79 time=0
note_on channel=0 note=89 velocity=0 time=20
note_on channel=0 note=90 velocity=75 time=0
note_on channel=0 note=90 velocity=0 time=0
note_on channel=0 note=93 velocity=84 time=0
note_on channel=0 note=55 velocity=21 time=0
note_on channel=0 note=67 velocity=26 time=0
note_on channel=0 note=64 velocity=21 time=0
note_on channel=0 note=61 velocity=21 time=0
note_on channel=0 note=58 velocity=21 time=0
control_change channel=0 control=64 value=0 time=6
control_change channel=0 control=64 value=127 time=28
note_on channel=0 note=58 velocity=0 time=0
note_on channel=0 note=55 velocity=0 time=0
note_on channel=0 note=67 velocity=0 time=0
note_on channel=0 note=93 velocity=0 time=0
note_on channel=0 note=61 velocity=0 time=0
note_on channel=0 note=64 velocity=0 time=0
note_on channel=0 note=91 velocity=67 time=0
note_on channel=0 note=91 velocity=0 time=120
note_on channel=0 note=91 velocity=72 time=0
note_on channel=0 note=55 velocity=21 time=0
note_on channel=0 note=67 velocity=26 time=0
note_on channel=0 note=64 velocity=21 time=0
note_on channel=0 note=61 velocity=21 time=0
note_on channel=0 note=58 velocity=21 time=0
note_on channel=0 note=58 velocity=0 time=120
note_on channel=0 note=55 velocity=0 time=0
note_on channel=0 note=67 velocity=0 time=0
note_on channel=0 note=64 velocity=0 time=0
note_on channel=0 note=61 velocity=0 time=0
note_on channel=0 note=34 velocity=25 time=0
note_on channel=0 note=46 velocity=29 time=0
control_change channel=0 control=64 value=0 time=13
control_change channel=0 control=64 value=127 time=31
note_on channel=0 note=91 velocity=0 time=36
note_on channel=0 note=87 velocity=69 time=0
note_on channel=0 note=46 velocity=0 time=40
note_on channel=0 note=34 velocity=0 time=0
note_on channel=0 note=87 velocity=0 time=40
note_on channel=0 note=88 velocity=72 time=0
note_on channel=0 note=88 velocity=0 time=80
note_on channel=0 note=91 velocity=72 time=0
note_on channel=0 note=55 velocity=21 time=0
note_on channel=0 note=67 velocity=26 time=0
note_on channel=0 note=64 velocity=21 time=0
note_on channel=0 note=61 velocity=21 time=0
note_on channel=0 note=58 velocity=21 time=0
note_on channel=0 note=91 velocity=0 time=80
note_on channel=0 note=90 velocity=67 time=0
note_on channel=0 note=67 velocity=0 time=40
note_on channel=0 note=61 velocity=0 time=0
note_on channel=0 note=64 velocity=0 time=0
note_on channel=0 note=55 velocity=0 time=0
note_on channel=0 note=58 velocity=0 time=0
note_on channel=0 note=90 velocity=0 time=40
note_on channel=0 note=88 velocity=64 time=0
note_on channel=0 note=88 velocity=0 time=58
note_on channel=0 note=88 velocity=77 time=0
note_on channel=0 note=61 velocity=21 time=0
note_on channel=0 note=67 velocity=26 time=0
note_on channel=0 note=64 velocity=21 time=0
note_on channel=0 note=58 velocity=21 time=0
note_on channel=0 note=55 velocity=21 time=0
control_change channel=0 control=64 value=0 time=3
control_change channel=0 control=64 value=127 time=37
note_on channel=0 note=55 velocity=0 time=80
note_on channel=0 note=61 velocity=0 time=0
note_on channel=0 note=67 velocity=0 time=0
note_on channel=0 note=64 velocity=0 time=0
note_on channel=0 note=58 velocity=0 time=0
note_on channel=0 note=34 velocity=25 time=120
note_on channel=0 note=46 velocity=31 time=0
note_on channel=0 note=88 velocity=0 time=80
note_on channel=0 note=84 velocity=67 time=0
note_on channel=0 note=46 velocity=0 time=40
note_on channel=0 note=34 velocity=0 time=0
note_on channel=0 note=84 velocity=0 time=40
note_on channel=0 note=85 velocity=64 time=0
note_on channel=0 note=85 velocity=0 time=0
note_on channel=0 note=88 velocity=76 time=0
note_on channel=0 note=55 velocity=21 time=0
note_on channel=0 note=67 velocity=26 time=0
note_on channel=0 note=64 velocity=21 time=0
note_on channel=0 note=61 velocity=21 time=0
note_on channel=0 note=58 velocity=21 time=0
note_on channel=0 note=88 velocity=0 time=80
note_on channel=0 note=86 velocity=67 time=0
note_on channel=0 note=67 velocity=0 time=40
note_on channel=0 note=61 velocity=0 time=0
note_on channel=0 note=64 velocity=0 time=0
note_on channel=0 note=55 velocity=0 time=0
note_on channel=0 note=58 velocity=0 time=0
note_on channel=0 note=86 velocity=0 time=40
note_on channel=0 note=85 velocity=65 time=0
note_on channel=0 note=85 velocity=0 time=0
note_on channel=0 note=83 velocity=72 time=0
note_on channel=0 note=54 velocity=21 time=0
note_on channel=0 note=66 velocity=26 time=0
note_on channel=0 note=64 velocity=21 time=0
note_on channel=0 note=61 velocity=21 time=0
note_on channel=0 note=58 velocity=21 time=0
control_change channel=0 control=64 value=0 time=11
control_change channel=0 control=64 value=127 time=44
note_on channel=0 note=83 velocity=0 time=5
note_on channel=0 note=82 velocity=62 time=0
note_on channel=0 note=82 velocity=0 time=60
note_on channel=0 note=58 velocity=0 time=0
note_on channel=0 note=64 velocity=0 time=0
note_on channel=0 note=54 velocity=0 time=0
note_on channel=0 note=66 velocity=0 time=0
note_on channel=0 note=61 velocity=0 time=0
note_on channel=0 note=86 velocity=66 time=0
note_on channel=0 note=86 velocity=0 time=60
note_on channel=0 note=85 velocity=63 time=0
note_on channel=0 note=85 velocity=0 time=0
note_on channel=0 note=84 velocity=72 time=0
note_on channel=0 note=34 velocity=25 time=0
note_on channel=0 note=46 velocity=29 time=0
note_on channel=0 note=84 velocity=0 time=60
note_on channel=0 note=85 velocity=63 time=0
note_on channel=0 note=85 velocity=0 time=60
note_on channel=0 note=46 velocity=0 time=0
note_on channel=0 note=34 velocity=0 time=0
note_on channel=0 note=76 velocity=66 time=0
note_on channel=0 note=76 velocity=0 time=60
note_on channel=0 note=79 velocity=60 time=0
note_on channel=0 note=79 velocity=0 time=0
note_on channel=0 note=77 velocity=72 time=0
note_on channel=0 note=66 velocity=26 time=0
note_on channel=0 note=54 velocity=21 time=0
note_on channel=0 note=64 velocity=21 time=0
note_on channel=0 note=61 velocity=21 time=0
note_on channel=0 note=58 velocity=21 time=0
control_change channel=0 control=64 value=0 time=13
control_change channel=0 control=64 value=127 time=39
note_on channel=0 note=77 velocity=0 time=8
note_on channel=0 note=78 velocity=62 time=0
note_on channel=0 note=78 velocity=0 time=60
note_on channel=0 note=58 velocity=0 time=0
note_on channel=0 note=64 velocity=0 time=0
note_on channel=0 note=66 velocity=0 time=0
note_on channel=0 note=54 velocity=0 time=0
note_on channel=0 note=61 velocity=0 time=0
note_on channel=0 note=73 velocity=66 time=0
note_on channel=0 note=73 velocity=0 time=60
note_on channel=0 note=76 velocity=61 time=0
note_on channel=0 note=76 velocity=0 time=0
note_on channel=0 note=74 velocity=66 time=0
note_on channel=0 note=59 velocity=21 time=0
note_on channel=0 note=66 velocity=26 time=0
note_on channel=0 note=62 velocity=21 time=0
note_on channel=0 note=54 velocity=21 time=0
control_change channel=0 control=64 value=0 time=0
control_change channel=0 control=64 value=127 time=75
note_on channel=0 note=54 velocity=0 time=45
note_on channel=0 note=66 velocity=0 time=0
note_on channel=0 note=62 velocity=0 time=0
note_on channel=0 note=59 velocity=0 time=0
note_on channel=0 note=74 velocity=0 time=0
note_on channel=0 note=83 velocity=70 time=0
note_on channel=0 note=35 velocity=25 time=0
note_on channel=0 note=47 velocity=31 time=0
note_on channel=0 note=47 velocity=0 time=120
note_on channel=0 note=35 velocity=0 time=0
note_on channel=0 note=66 velocity=26 time=120
note_on channel=0 note=62 velocity=21 time=0
note_on channel=0 note=59 velocity=21 time=0
note_on channel=0 note=54 velocity=21 time=0
note_on channel=0 note=54 velocity=0 time=120
note_on channel=0 note=62 velocity=0 time=0
note_on channel=0 note=83 velocity=0 time=0
note_on channel=0 note=66 velocity=0 time=0
note_on channel=0 note=59 velocity=0 time=0
note_on channel=0 note=78 velocity=59 time=0
note_on channel=0 note=78 velocity=0 time=0
note_on channel=0 note=79 velocity=66 time=0
note_on channel=0 note=66 velocity=26 time=0
note_on channel=0 note=64 velocity=21 time=0
note_on channel=0 note=54 velocity=21 time=0
note_on channel=0 note=58 velocity=21 time=0
control_change channel=0 control=64 value=0 time=6
control_change channel=0 control=64 value=127 time=110
note_on channel=0 note=58 velocity=0 time=0
note_on channel=0 note=64 velocity=0 time=0
note_on channel=0 note=54 velocity=0 time=0
note_on channel=0 note=66 velocity=0 time=0
note_on channel=0 note=70 velocity=39 time=0
note_on channel=0 note=76 velocity=46 time=0
note_on channel=0 note=37 velocity=25 time=120
note_on channel=0 note=49 velocity=29 time=0
note_on channel=0 note=76 velocity=0 time=118
note_on channel=0 note=70 velocity=0 time=0
note_on channel=0 note=49 velocity=0 time=2
note_on channel=0 note=37 velocity=0 time=0
note_on channel=0 note=70 velocity=37 time=0
note_on channel=0 note=76 velocity=44 time=0
note_on channel=0 note=79 velocity=0 time=120
note_on channel=0 note=78 velocity=64 time=0
note_on channel=0 note=66 velocity=26 time=0
note_on channel=0 note=64 velocity=21 time=0
note_on channel=0 note=54 velocity=21 time=0
note_on channel=0 note=58 velocity=21 time=0
note_on channel=0 note=76 velocity=0 time=118
note_on channel=0 note=70 velocity=0 time=0
note_on channel=0 note=54 velocity=0 time=0
note_on channel=0 note=64 velocity=0 time=0
note_on channel=0 note=66 velocity=0 time=0
note_on channel=0 note=58 velocity=0 time=0
note_on channel=0 note=70 velocity=39 time=0
note_on channel=0 note=76 velocity=46 time=0
note_on channel=0 note=76 velocity=0 time=0
note_on channel=0 note=70 velocity=0 time=0
note_on channel=0 note=78 velocity=0 time=0
note_on channel=0 note=71 velocity=43 time=0
note_on channel=0 note=74 velocity=43 time=0
note_on channel=0 note=78 velocity=66 time=0
note_on channel=0 note=59 velocity=23 time=0
note_on channel=0 note=66 velocity=28 time=0
note_on channel=0 note=62 velocity=23 time=0
note_on channel=0 note=54 velocity=23 time=0
control_change channel=0 control=64 value=0 time=0
control_change channel=0 control=64 value=127 time=46
note_on channel=0 note=78 velocity=0 time=14
note_on channel=0 note=90 velocity=56 time=0
note_on channel=0 note=90 velocity=0 time=0
note_on channel=0 note=54 velocity=0 time=0
note_on channel=0 note=66 velocity=0 time=0
note_on channel=0 note=59 velocity=0 time=0
note_on channel=0 note=62 velocity=0 time=0
note_on channel=0 note=85 velocity=59 time=0
note_on channel=0 note=85 velocity=0 time=60
note_on channel=0 note=86 velocity=55 time=0
note_on channel=0 note=86 velocity=0 time=60
note_on channel=0 note=71 velocity=0 time=0
note_on channel=0 note=74 velocity=0 time=0
note_on channel=0 note=88 velocity=66 time=0
note_on channel=0 note=35 velocity=27 time=0
note_on channel=0 note=47 velocity=34 time=0
note_on channel=0 note=88 velocity=0 time=60
note_on channel=0 note=86 velocity=57 time=0
note_on channel=0 note=86 velocity=0 time=60
note_on channel=0 note=47 velocity=0 time=0
note_on channel=0 note=35 velocity=0 time=0
note_on channel=0 note=82 velocity=59 time=0
note_on channel=0 note=82 velocity=0 time=60
note_on channel=0 note=83 velocity=55 time=0
note_on channel=0 note=83 velocity=0 time=60
note_on channel=0 note=85 velocity=66 time=0
note_on channel=0 note=66 velocity=29 time=0
note_on channel=0 note=62 velocity=23 time=0
note_on channel=0 note=59 velocity=23 time=0
note_on channel=0 note=54 velocity=23 time=0
note_on channel=0 note=85 velocity=0 time=60
note_on channel=0 note=83 velocity=60 time=0
note_on channel=0 note=83 velocity=0 time=60
note_on channel=0 note=54 velocity=0 time=0
note_on channel=0 note=66 velocity=0 time=0
note_on channel=0 note=62 velocity=0 time=0
note_on channel=0 note=59 velocity=0 time=0
note_on channel=0 note=86 velocity=66 time=0
note_on channel=0 note=86 velocity=0 time=40
note_on channel=0 note=83 velocity=57 time=0
note_on channel=0 note=83 velocity=0 time=20
note_on channel=0 note=78 velocity=50 time=1
note_on channel=0 note=81 velocity=66 time=0
note_on channel=0 note=66 velocity=29 time=0
note_on channel=0 note=64 velocity=24 time=0
note_on channel=0 note=54 velocity=24 time=0
note_on channel=0 note=58 velocity=24 time=0
note_on channel=0 note=78 velocity=0 time=1
control_change channel=0 control=64 value=0 time=6
control_change channel=0 control=64 value=127 time=36
note_on channel=0 note=66 velocity=0 time=0
note_on channel=0 note=64 velocity=0 time=0
note_on channel=0 note=81 velocity=0 time=0
note_on channel=0 note=58 velocity=0 time=0
note_on channel=0 note=54 velocity=0 time=0
note_on channel=0 note=79 velocity=60 time=0
note_on channel=0 note=70 velocity=31 time=0
note_on channel=0 note=76 velocity=31 time=0
note_on channel=0 note=37 velocity=29 time=120
note_on channel=0 note=49 velocity=33 time=0
note_on channel=0 note=76 velocity=0 time=118
note_on channel=0 note=79 velocity=0 time=0
note_on channel=0 note=70 velocity=0 time=0
note_on channel=0 note=37 velocity=0 time=2
note_on channel=0 note=49 velocity=0 time=0
note_on channel=0 note=76 velocity=31 time=0
note_on channel=0 note=70 velocity=31 time=0
note_on channel=0 note=79 velocity=60 time=0
note_on channel=0 note=66 velocity=30 time=120
note_on channel=0 note=64 velocity=24 time=0
note_on channel=0 note=54 velocity=24 time=0
note_on channel=0 note=58 velocity=24 time=0
note_on channel=0 note=79 velocity=0 time=118
note_on channel=0 note=76 velocity=0 time=0
note_on channel=0 note=70 velocity=0 time=0
note_on channel=0 note=64 velocity=0 time=0
note_on channel=0 note=66 velocity=0 time=0
note_on channel=0 note=54 velocity=0 time=0
note_on channel=0 note=58 velocity=0 time=0
note_on channel=0 note=78 velocity=64 time=0
note_on channel=0 note=70 velocity=31 time=0
note_on channel=0 note=76 velocity=37 time=0
note_on channel=0 note=76 velocity=0 time=0
note_on channel=0 note=70 velocity=0 time=0
note_on channel=0 note=78 velocity=0 time=0
note_on channel=0 note=78 velocity=72 time=0
note_on channel=0 note=74 velocity=61 time=0
note_on channel=0 note=71 velocity=61 time=0
note_on channel=0 note=59 velocity=29 time=0
note_on channel=0 note=66 velocity=36 time=0
note_on channel=0 note=62 velocity=29 time=0
note_on channel=0 note=54 velocity=29 time=0
control_change channel=0 control=64 value=0 time=0
control_change channel=0 control=64 value=127 time=75
note_on channel=0 note=71 velocity=0 time=44
note_on channel=0 note=74 velocity=0 time=0
note_on channel=0 note=62 velocity=0 time=0
note_on channel=0 note=59 velocity=0 time=0
note_on channel=0 note=66 velocity=0 time=0
note_on channel=0 note=54 velocity=0 time=0
note_on channel=0 note=66 velocity=53 time=0
note_on channel=0 note=38 velocity=46 time=0
note_on channel=0 note=50 velocity=58 time=0
note_on channel=0 note=78 velocity=0 time=117
note_on channel=0 note=66 velocity=0 time=1
note_on channel=0 note=38 velocity=0 time=2
note_on channel=0 note=50 velocity=0 time=0
note_on channel=0 note=66 velocity=59 time=0
note_on channel=0 note=74 velocity=48 time=0
note_on channel=0 note=71 velocity=46 time=0
note_on channel=0 note=78 velocity=71 time=0
note_on channel=0 note=71 velocity=0 time=119
note_on channel=0 note=74 velocity=0 time=0
note_on channel=0 note=70 velocity=58 time=1
note_on channel=0 note=76 velocity=49 time=0
note_on channel=0 note=61 velocity=39 time=0
note_on channel=0 note=54 velocity=31 time=0
note_on channel=0 note=49 velocity=31 time=0
control_change channel=0 control=64 value=0 time=8
control_change channel=0 control=64 value=127 time=63
note_on channel=0 note=66 velocity=0 time=47
note_on channel=0 note=78 velocity=0 time=0
note_on channel=0 note=76 velocity=0 time=1
note_on channel=0 note=70 velocity=0 time=0
note_on channel=0 note=49 velocity=0 time=0
note_on channel=0 note=61 velocity=0 time=0
note_on channel=0 note=54 velocity=0 time=0
note_on channel=0 note=70 velocity=54 time=0
note_on channel=0 note=78 velocity=70 time=0
note_on channel=0 note=66 velocity=59 time=0
note_on channel=0 note=76 velocity=49 time=0
note_on channel=0 note=76 velocity=0 time=119
note_on channel=0 note=70 velocity=0 time=0
note_on channel=0 note=78 velocity=0 time=0
note_on channel=0 note=66 velocity=0 time=0
note_on channel=0 note=71 velocity=65 time=0
note_on channel=0 note=66 velocity=65 time=0
note_on channel=0 note=74 velocity=65 time=0
note_on channel=0 note=78 velocity=77 time=0
note_on channel=0 note=59 velocity=39 time=0
note_on channel=0 note=54 velocity=31 time=0
note_on channel=0 note=47 velocity=31 time=0
control_change channel=0 control=64 value=0 time=8
control_change channel=0 control=64 value=127 time=54
note_on channel=0 note=74 velocity=0 time=57
note_on channel=0 note=71 velocity=0 time=0
note_on channel=0 note=66 velocity=0 time=0
note_on channel=0 note=59 velocity=0 time=0
note_on channel=0 note=47 velocity=0 time=0
note_on channel=0 note=54 velocity=0 time=0
note_on channel=0 note=71 velocity=56 time=0
note_on channel=0 note=35 velocity=50 time=0
note_on channel=0 note=47 velocity=62 time=0
note_on channel=0 note=78 velocity=0 time=117
note_on channel=0 note=71 velocity=0 time=1
note_on channel=0 note=35 velocity=0 time=2
note_on channel=0 note=47 velocity=0 time=0
note_on channel=0 note=74 velocity=61 time=0
note_on channel=0 note=71 velocity=63 time=0
note_on channel=0 note=83 velocity=75 time=0
note_on channel=0 note=78 velocity=51 time=0
note_on channel=0 note=78 velocity=0 time=119
note_on channel=0 note=74 velocity=0 time=0
note_on channel=0 note=75 velocity=62 time=1
note_on channel=0 note=78 velocity=52 time=0
note_on channel=0 note=57 velocity=41 time=0
note_on channel=0 note=45 velocity=33 time=0
control_change channel=0 control=64 value=0 time=13
control_change channel=0 control=64 value=127 time=66
note_on channel=0 note=83 velocity=0 time=39
note_on channel=0 note=71 velocity=0 time=0
note_on channel=0 note=78 velocity=0 time=1
note_on channel=0 note=75 velocity=0 time=0
note_on channel=0 note=45 velocity=0 time=0
note_on channel=0 note=57 velocity=0 time=0
note_on channel=0 note=75 velocity=62 time=0
note_on channel=0 note=71 velocity=62 time=0
note_on channel=0 note=78 velocity=52 time=0
note_on channel=0 note=83 velocity=75 time=0
note_on channel=0 note=83 velocity=0 time=119
note_on channel=0 note=75 velocity=0 time=0
note_on channel=0 note=71 velocity=0 time=0
note_on channel=0 note=78 velocity=0 time=0
note_on channel=0 note=72 velocity=63 time=0
note_on channel=0 note=78 velocity=63 time=0
note_on channel=0 note=75 velocity=63 time=0
note_on channel=0 note=84 velocity=75 time=0
note_on channel=0 note=56 velocity=42 time=0
note_on channel=0 note=44 velocity=33 time=0
control_change channel=0 control=64 value=0 time=29
control_change channel=0 control=64 value=127 time=51
note_on channel=0 note=84 velocity=0 time=39
note_on channel=0 note=75 velocity=0 time=0
note_on channel=0 note=72 velocity=0 time=0
note_on channel=0 note=78 velocity=0 time=0
note_on channel=0 note=44 velocity=0 time=1
note_on channel=0 note=56 velocity=0 time=0
note_on channel=0 note=72 velocity=63 time=0
note_on channel=0 note=78 velocity=63 time=0
note_on channel=0 note=75 velocity=63 time=0
note_on channel=0 note=84 velocity=76 time=0
note_on channel=0 note=32 velocity=53 time=120
note_on channel=0 note=44 velocity=67 time=0
note_on channel=0 note=84 velocity=0 time=118
note_on channel=0 note=75 velocity=0 time=0
note_on channel=0 note=72 velocity=0 time=0
note_on channel=0 note=78 velocity=0 time=0
note_on channel=0 note=44 velocity=0 time=2
note_on channel=0 note=32 velocity=0 time=0
note_on channel=0 note=72 velocity=65 time=0
note_on channel=0 note=78 velocity=78 time=0
note_on channel=0 note=75 velocity=65 time=0
note_on channel=0 note=84 velocity=78 time=0
note_on channel=0 note=75 velocity=0 time=119
note_on channel=0 note=78 velocity=0 time=0
note_on channel=0 note=75 velocity=65 time=1
note_on channel=0 note=81 velocity=78 time=0
note_on channel=0 note=54 velocity=44 time=0
note_on channel=0 note=42 velocity=36 time=0
note_on channel=0 note=72 velocity=0 time=118
note_on channel=0 note=84 velocity=0 time=0
note_on channel=0 note=81 velocity=0 time=1
note_on channel=0 note=75 velocity=0 time=0
note_on channel=0 note=42 velocity=0 time=0
note_on channel=0 note=54 velocity=0 time=0
note_on channel=0 note=72 velocity=66 time=0
note_on channel=0 note=81 velocity=66 time=0
note_on channel=0 note=84 velocity=79 time=0
note_on channel=0 note=75 velocity=66 time=0
note_on channel=0 note=75 velocity=0 time=119
note_on channel=0 note=72 velocity=0 time=0
note_on channel=0 note=81 velocity=0 time=0
note_on channel=0 note=84 velocity=0 time=0
note_on channel=0 note=73 velocity=66 time=0
note_on channel=0 note=85 velocity=79 time=0
note_on channel=0 note=80 velocity=66 time=0
note_on channel=0 note=53 velocity=54 time=0
note_on channel=0 note=41 velocity=43 time=0
control_change channel=0 control=64 value=0 time=12
control_change channel=0 control=64 value=127 time=49
note_on channel=0 note=80 velocity=0 time=10
note_on channel=0 note=73 velocity=0 time=0
note_on channel=0 note=85 velocity=0 time=0
note_on channel=0 note=53 velocity=0 time=1
note_on channel=0 note=41 velocity=0 time=0
note_on channel=0 note=80 velocity=67 time=0
note_on channel=0 note=73 velocity=67 time=0
note_on channel=0 note=85 velocity=80 time=0
note_on channel=0 note=53 velocity=44 time=0
note_on channel=0 note=65 velocity=55 time=0
note_on channel=0 note=65 velocity=0 time=120
note_on channel=0 note=53 velocity=0 time=0
note_on channel=0 note=41 velocity=54 time=0
note_on channel=0 note=53 velocity=66 time=0
note_on channel=0 note=80 velocity=0 time=118
note_on channel=0 note=85 velocity=0 time=0
note_on channel=0 note=73 velocity=0 time=0
note_on channel=0 note=41 velocity=0 time=2
note_on channel=0 note=53 velocity=0 time=0
note_on channel=0 note=73 velocity=68 time=0
note_on channel=0 note=85 velocity=82 time=0
note_on channel=0 note=80 velocity=82 time=0
note_on channel=0 note=53 velocity=54 time=0
note_on channel=0 note=65 velocity=68 time=0
note_on channel=0 note=80 velocity=0 time=119
note_on channel=0 note=73 velocity=0 time=0
note_on channel=0 note=65 velocity=0 time=1
note_on channel=0 note=53 velocity=0 time=0
note_on channel=0 note=78 velocity=82 time=0
note_on channel=0 note=73 velocity=69 time=0
note_on channel=0 note=51 velocity=57 time=0
note_on channel=0 note=39 velocity=46 time=0
control_change channel=0 control=64 value=0 time=8
control_change channel=0 control=64 value=127 time=84
note_on channel=0 note=85 velocity=0 time=26
note_on channel=0 note=78 velocity=0 time=1
note_on channel=0 note=73 velocity=0 time=0
note_on channel=0 note=51 velocity=0 time=0
note_on channel=0 note=39 velocity=0 time=0
note_on channel=0 note=78 velocity=69 time=0
note_on channel=0 note=73 velocity=69 time=0
note_on channel=0 note=85 velocity=83 time=0
note_on channel=0 note=51 velocity=46 time=0
note_on channel=0 note=63 velocity=57 time=0
note_on channel=0 note=78 velocity=0 time=119
note_on channel=0 note=51 velocity=0 time=0
note_on channel=0 note=63 velocity=0 time=0
note_on channel=0 note=77 velocity=67 time=0
note_on channel=0 note=37 velocity=44 time=0
note_on channel=0 note=49 velocity=44 time=0
control_change channel=0 control=64 value=0 time=0
control_change channel=0 control=64 value=127 time=97
note_on channel=0 note=85 velocity=0 time=21
note_on channel=0 note=73 velocity=0 time=0
note_on channel=0 note=77 velocity=0 time=2
note_on channel=0 note=84 velocity=65 time=0
note_on channel=0 note=72 velocity=60 time=0
note_on channel=0 note=72 velocity=0 time=120
note_on channel=0 note=49 velocity=0 time=0
note_on channel=0 note=37 velocity=0 time=0
note_on channel=0 note=84 velocity=0 time=0
note_on channel=0 note=87 velocity=59 time=0
note_on channel=0 note=75 velocity=59 time=0
note_on channel=0 note=61 velocity=25 time=0
note_on channel=0 note=65 velocity=25 time=0
note_on channel=0 note=68 velocity=30 time=0
control_change channel=0 control=64 value=0 time=13
control_change channel=0 control=64 value=127 time=73
note_on channel=0 note=75 velocity=0 time=34
note_on channel=0 note=87 velocity=0 time=0
note_on channel=0 note=85 velocity=59 time=0
note_on channel=0 note=73 velocity=59 time=0
note_on channel=0 note=73 velocity=0 time=120
note_on channel=0 note=65 velocity=0 time=0
note_on channel=0 note=68 velocity=0 time=0
note_on channel=0 note=85 velocity=0 time=0
note_on channel=0 note=84 velocity=58 time=0
note_on channel=0 note=72 velocity=58 time=0
note_on channel=0 note=66 velocity=24 time=0
note_on channel=0 note=70 velocity=29 time=0
control_change channel=0 control=64 value=0 time=13
control_change channel=0 control=64 value=127 time=56
note_on channel=0 note=72 velocity=0 time=0
note_on channel=0 note=84 velocity=0 time=0
note_on channel=0 note=73 velocity=57 time=0
note_on channel=0 note=85 velocity=57 time=0
note_on channel=0 note=85 velocity=0 time=0
note_on channel=0 note=61 velocity=0 time=0
note_on channel=0 note=66 velocity=0 time=0
note_on channel=0 note=73 velocity=0 time=0
note_on channel=0 note=76 velocity=56 time=0
note_on channel=0 note=88 velocity=56 time=0
note_on channel=0 note=67 velocity=25 time=0
note_on channel=0 note=61 velocity=25 time=0
control_change channel=0 control=64 value=0 time=13
control_change channel=0 control=64 value=127 time=67
note_on channel=0 note=67 velocity=0 time=40
note_on channel=0 note=70 velocity=0 time=0
note_on channel=0 note=70 velocity=30 time=0
note_on channel=0 note=67 velocity=25 time=0
note_on channel=0 note=67 velocity=0 time=0
note_on channel=0 note=76 velocity=0 time=0
note_on channel=0 note=70 velocity=0 time=0
note_on channel=0 note=88 velocity=0 time=0
note_on channel=0 note=75 velocity=55 time=0
note_on channel=0 note=87 velocity=55 time=0
note_on channel=0 note=70 velocity=25 time=0
note_on channel=0 note=73 velocity=30 time=0
control_change channel=0 control=64 value=0 time=12
control_change channel=0 control=64 value=127 time=63
note_on channel=0 note=73 velocity=0 time=45
note_on channel=0 note=70 velocity=0 time=0
note_on channel=0 note=68 velocity=24 time=0
note_on channel=0 note=71 velocity=29 time=0
note_on channel=0 note=71 velocity=0 time=0
note_on channel=0 note=68 velocity=0 time=0
note_on channel=0 note=67 velocity=24 time=0
note_on channel=0 note=70 velocity=29 time=0
control_change channel=0 control=64 value=0 time=12
control_change channel=0 control=64 value=127 time=68
note_on channel=0 note=70 velocity=0 time=40
note_on channel=0 note=67 velocity=0 time=0
note_on channel=0 note=68 velocity=24 time=0
note_on channel=0 note=71 velocity=29 time=0
note_on channel=0 note=71 velocity=0 time=0
note_on channel=0 note=61 velocity=0 time=0
note_on channel=0 note=68 velocity=0 time=0
note_on channel=0 note=66 velocity=27 time=0
note_on channel=0 note=70 velocity=33 time=0
note_on channel=0 note=61 velocity=27 time=0
control_change channel=0 control=64 value=0 time=0
control_change channel=0 control=64 value=127 time=97
note_on channel=0 note=70 velocity=0 time=23
note_on channel=0 note=66 velocity=0 time=0
note_on channel=0 note=75 velocity=0 time=0
note_on channel=0 note=87 velocity=0 time=0
note_on channel=0 note=84 velocity=55 time=0
note_on channel=0 note=72 velocity=46 time=0
note_on channel=0 note=66 velocity=27 time=0
note_on channel=0 note=69 velocity=33 time=0
note_on channel=0 note=69 velocity=0 time=120
note_on channel=0 note=72 velocity=0 time=0
note_on channel=0 note=66 velocity=0 time=0
note_on channel=0 note=84 velocity=0 time=0
note_on channel=0 note=87 velocity=63 time=0
note_on channel=0 note=75 velocity=53 time=0
note_on channel=0 note=65 velocity=27 time=0
note_on channel=0 note=68 velocity=33 time=0
control_change channel=0 control=64 value=0 time=13
control_change channel=0 control=64 value=127 time=73
note_on channel=0 note=75 velocity=0 time=34
note_on channel=0 note=87 velocity=0 time=0
note_on channel=0 note=85 velocity=55 time=0
note_on channel=0 note=73 velocity=46 time=0
note_on channel=0 note=73 velocity=0 time=120
note_on channel=0 note=85 velocity=0 time=0
note_on channel=0 note=84 velocity=60 time=0
note_on channel=0 note=72 velocity=51 time=0
control_change channel=0 control=64 value=0 time=13
control_change channel=0 control=64 value=127 time=56
note_on channel=0 note=72 velocity=0 time=0
note_on channel=0 note=84 velocity=0 time=0
note_on channel=0 note=73 velocity=45 time=0
note_on channel=0 note=85 velocity=53 time=0
note_on channel=0 note=85 velocity=0 time=0
note_on channel=0 note=61 velocity=0 time=0
note_on channel=0 note=73 velocity=0 time=0
note_on channel=0 note=75 velocity=50 time=0
note_on channel=0 note=87 velocity=59 time=0
note_on channel=0 note=61 velocity=25 time=0
control_change channel=0 control=64 value=0 time=13
control_change channel=0 control=64 value=127 time=67
note_on channel=0 note=68 velocity=0 time=40
note_on channel=0 note=65 velocity=0 time=0
note_on channel=0 note=68 velocity=30 time=0
note_on channel=0 note=65 velocity=25 time=0
note_on channel=0 note=65 velocity=0 time=0
note_on channel=0 note=87 velocity=0 time=0
note_on channel=0 note=68 velocity=0 time=0
note_on channel=0 note=75 velocity=0 time=0
note_on channel=0 note=85 velocity=55 time=0
note_on channel=0 note=73 velocity=46 time=0
note_on channel=0 note=68 velocity=25 time=0
note_on channel=0 note=71 velocity=30 time=0
control_change channel=0 control=64 value=0 time=12
control_change channel=0 control=64 value=127 time=63
note_on channel=0 note=71 velocity=0 time=45
note_on channel=0 note=68 velocity=0 time=0
note_on channel=0 note=66 velocity=24 time=0
note_on channel=0 note=70 velocity=29 time=0
note_on channel=0 note=70 velocity=0 time=0
note_on channel=0 note=66 velocity=0 time=0
note_on channel=0 note=65 velocity=24 time=0
note_on channel=0 note=68 velocity=29 time=0
control_change channel=0 control=64 value=0 time=12
control_change channel=0 control=64 value=127 time=68
note_on channel=0 note=68 velocity=0 time=40
note_on channel=0 note=65 velocity=0 time=0
note_on channel=0 note=66 velocity=24 time=0
note_on channel=0 note=70 velocity=29 time=0
note_on channel=0 note=70 velocity=0 time=0
note_on channel=0 note=61 velocity=0 time=0
note_on channel=0 note=66 velocity=0 time=0
note_on channel=0 note=64 velocity=28 time=0
note_on channel=0 note=67 velocity=34 time=0
note_on channel=0 note=61 velocity=28 time=0
control_change channel=0 control=64 value=0 time=0
control_change channel=0 control=64 value=127 time=97
note_on channel=0 note=73 velocity=0 time=23
note_on channel=0 note=85 velocity=0 time=0
note_on channel=0 note=70 velocity=47 time=0
note_on channel=0 note=82 velocity=56 time=0
note_on channel=0 note=82 velocity=0 time=120
note_on channel=0 note=67 velocity=0 time=0
note_on channel=0 note=70 velocity=0 time=0
note_on channel=0 note=64 velocity=0 time=0
note_on channel=0 note=73 velocity=56 time=0
note_on channel=0 note=85 velocity=66 time=0
note_on channel=0 note=65 velocity=24 time=0
note_on channel=0 note=68 velocity=29 time=0
control_change channel=0 control=64 value=0 time=13
control_change channel=0 control=64 value=127 time=73
note_on channel=0 note=85 velocity=0 time=34
note_on channel=0 note=73 velocity=0 time=0
note_on channel=0 note=71 velocity=50 time=0
note_on channel=0 note=83 velocity=59 time=0
note_on channel=0 note=83 velocity=0 time=120
note_on channel=0 note=61 velocity=0 time=0
note_on channel=0 note=68 velocity=0 time=0
note_on channel=0 note=65 velocity=0 time=0
note_on channel=0 note=71 velocity=0 time=0
note_on channel=0 note=70 velocity=56 time=0
note_on channel=0 note=82 velocity=67 time=0
note_on channel=0 note=62 velocity=33 time=0
note_on channel=0 note=65 velocity=33 time=0
note_on channel=0 note=68 velocity=39 time=0
control_change channel=0 control=64 value=0 time=13
control_change channel=0 control=64 value=127 time=56
note_on channel=0 note=82 velocity=0 time=0
note_on channel=0 note=70 velocity=0 time=0
note_on channel=0 note=83 velocity=60 time=0
note_on channel=0 note=71 velocity=51 time=0
note_on channel=0 note=71 velocity=0 time=119
note_on channel=0 note=83 velocity=0 time=0
note_on channel=0 note=68 velocity=0 time=0
note_on channel=0 note=62 velocity=0 time=0
note_on channel=0 note=65 velocity=0 time=0
note_on channel=0 note=71 velocity=56 time=0
note_on channel=0 note=83 velocity=67 time=0
note_on channel=0 note=68 velocity=35 time=0
note_on channel=0 note=62 velocity=29 time=0
control_change channel=0 control=64 value=0 time=13
control_change channel=0 control=64 value=127 time=67
note_on channel=0 note=68 velocity=0 time=40
note_on channel=0 note=71 velocity=0 time=0
note_on channel=0 note=83 velocity=0 time=0
note_on channel=0 note=68 velocity=51 time=0
note_on channel=0 note=80 velocity=61 time=0
note_on channel=0 note=65 velocity=31 time=0
note_on channel=0 note=65 velocity=0 time=0
note_on channel=0 note=62 velocity=0 time=0
note_on channel=0 note=68 velocity=0 time=0
note_on channel=0 note=80 velocity=0 time=0
note_on channel=0 note=71 velocity=57 time=0
note_on channel=0 note=83 velocity=68 time=0
note_on channel=0 note=63 velocity=33 time=0
note_on channel=0 note=68 velocity=39 time=0
control_change channel=0 control=64 value=0 time=12
control_change channel=0 control=64 value=127 time=63
note_on channel=0 note=68 velocity=0 time=45
note_on channel=0 note=71 velocity=0 time=0
note_on channel=0 note=83 velocity=0 time=0
note_on channel=0 note=70 velocity=52 time=0
note_on channel=0 note=82 velocity=62 time=0
note_on channel=0 note=66 velocity=34 time=0
note_on channel=0 note=66 velocity=0 time=0
note_on channel=0 note=63 velocity=0 time=0
note_on channel=0 note=70 velocity=0 time=0
note_on channel=0 note=82 velocity=0 time=0
note_on channel=0 note=68 velocity=56 time=0
note_on channel=0 note=80 velocity=67 time=0
note_on channel=0 note=60 velocity=34 time=0
note_on channel=0 note=65 velocity=40 time=0
control_change channel=0 control=64 value=0 time=12
control_change channel=0 control=64 value=127 time=68
note_on channel=0 note=65 velocity=0 time=40
note_on channel=0 note=68 velocity=0 time=0
note_on channel=0 note=80 velocity=0 time=0
note_on channel=0 note=69 velocity=52 time=0
note_on channel=0 note=81 velocity=62 time=0
note_on channel=0 note=66 velocity=35 time=0
note_on channel=0 note=81 velocity=0 time=117
note_on channel=0 note=69 velocity=0 time=0
note_on channel=0 note=60 velocity=0 time=3
note_on channel=0 note=66 velocity=0 time=0
note_on channel=0 note=69 velocity=62 time=0
note_on channel=0 note=81 velocity=74 time=0
note_on channel=0 note=60 velocity=39 time=0
note_on channel=0 note=66 velocity=46 time=0
control_change channel=0 control=64 value=0 time=0
control_change channel=0 control=64 value=127 time=97
note_on channel=0 note=66 velocity=0 time=23
note_on channel=0 note=63 velocity=40 time=0
note_on channel=0 note=63 velocity=0 time=120
note_on channel=0 note=60 velocity=0 time=0
note_on channel=0 note=81 velocity=0 time=0
note_on channel=0 note=69 velocity=0 time=0
note_on channel=0 note=80 velocity=69 time=0
note_on channel=0 note=73 velocity=58 time=0
note_on channel=0 note=68 velocity=58 time=0
note_on channel=0 note=59 velocity=38 time=0
note_on channel=0 note=66 velocity=45 time=0
control_change channel=0 control=64 value=0 time=13
control_change channel=0 control=64 value=127 time=73
note_on channel=0 note=66 velocity=0 time=34
note_on channel=0 note=65 velocity=40 time=0
note_on channel=0 note=65 velocity=0 time=120
note_on channel=0 note=59 velocity=0 time=0
note_on channel=0 note=80 velocity=0 time=0
note_on channel=0 note=73 velocity=0 time=0
note_on channel=0 note=68 velocity=0 time=0
note_on channel=0 note=73 velocity=63 time=0
note_on channel=0 note=78 velocity=75 time=0
note_on channel=0 note=58 velocity=42 time=0
note_on channel=0 note=66 velocity=50 time=0
control_change channel=0 control=64 value=0 time=13
control_change channel=0 control=64 value=127 time=56
note_on channel=0 note=66 velocity=0 time=0
note_on channel=0 note=61 velocity=40 time=0
note_on channel=0 note=61 velocity=0 time=0
note_on channel=0 note=58 velocity=0 time=0
note_on channel=0 note=78 velocity=0 time=0
note_on channel=0 note=83 velocity=78 time=0
note_on channel=0 note=56 velocity=42 time=0
note_on channel=0 note=61 velocity=42 time=0
note_on channel=0 note=66 velocity=50 time=0
control_change channel=0 control=64 value=0 time=13
control_change channel=0 control=64 value=127 time=67
note_on channel=0 note=66 velocity=0 time=40
note_on channel=0 note=73 velocity=0 time=0
note_on channel=0 note=73 velocity=67 time=0
note_on channel=0 note=65 velocity=40 time=0
note_on channel=0 note=65 velocity=0 time=120
note_on channel=0 note=83 velocity=0 time=0
note_on channel=0 note=61 velocity=0 time=0
note_on channel=0 note=56 velocity=0 time=0
note_on channel=0 note=73 velocity=0 time=0
note_on channel=0 note=80 velocity=67 time=0
note_on channel=0 note=82 velocity=79 time=0
note_on channel=0 note=54 velocity=44 time=0
note_on channel=0 note=61 velocity=44 time=0
note_on channel=0 note=66 velocity=52 time=0
control_change channel=0 control=64 value=0 time=12
control_change channel=0 control=64 value=127 time=63
note_on channel=0 note=80 velocity=0 time=45
note_on channel=0 note=78 velocity=67 time=0
note_on channel=0 note=78 velocity=0 time=120
note_on channel=0 note=66 velocity=0 time=0
note_on channel=0 note=82 velocity=0 time=0
note_on channel=0 note=54 velocity=0 time=0
note_on channel=0 note=61 velocity=0 time=0
note_on channel=0 note=77 velocity=69 time=0
note_on channel=0 note=87 velocity=82 time=0
note_on channel=0 note=47 velocity=39 time=0
note_on channel=0 note=59 velocity=47 time=0
control_change channel=0 control=64 value=0 time=12
control_change channel=0 control=64 value=127 time=68
note_on channel=0 note=77 velocity=0 time=0
note_on channel=0 note=78 velocity=70 time=0
note_on channel=0 note=78 velocity=0 time=0
note_on channel=0 note=59 velocity=0 time=0
note_on channel=0 note=47 velocity=0 time=0
note_on channel=0 note=75 velocity=73 time=0
note_on channel=0 note=78 velocity=87 time=0
note_on channel=0 note=47 velocity=46 time=0
note_on channel=0 note=59 velocity=55 time=0
control_change channel=0 control=64 value=0 time=0
control_change channel=0 control=64 value=127 time=97
note_on channel=0 note=59 velocity=0 time=23
note_on channel=0 note=53 velocity=47 time=0
note_on channel=0 note=53 velocity=0 time=120
note_on channel=0 note=47 velocity=0 time=0
note_on channel=0 note=87 velocity=0 time=0
note_on channel=0 note=75 velocity=0 time=0
note_on channel=0 note=78 velocity=0 time=0
note_on channel=0 note=78 velocity=68 time=0
note_on channel=0 note=85 velocity=80 time=0
note_on channel=0 note=73 velocity=68 time=0
note_on channel=0 note=46 velocity=45 time=0
note_on channel=0 note=56 velocity=54 time=0
control_change channel=0 control=64 value=0 time=13
control_change channel=0 control=64 value=127 time=73
note_on channel=0 note=56 velocity=0 time=0
note_on channel=0 note=54 velocity=49 time=0
note_on channel=0 note=54 velocity=0 time=0
note_on channel=0 note=46 velocity=0 time=0
note_on channel=0 note=78 velocity=0 time=0
note_on channel=0 note=85 velocity=0 time=0
note_on channel=0 note=73 velocity=0 time=0
note_on channel=0 note=90 velocity=94 time=0
note_on channel=0 note=78 velocity=79 time=0
note_on channel=0 note=45 velocity=46 time=0
note_on channel=0 note=53 velocity=55 time=0
control_change channel=0 control=64 value=0 time=13
control_change channel=0 control=64 value=127 time=56
note_on channel=0 note=53 velocity=0 time=51
note_on channel=0 note=51 velocity=50 time=0
note_on channel=0 note=51 velocity=0 time=37
note_on channel=0 note=45 velocity=0 time=0
note_on channel=0 note=48 velocity=57 time=0
note_on channel=0 note=44 velocity=48 time=0
control_change channel=0 control=64 value=0 time=13
control_change channel=0 control=64 value=127 time=42
note_on channel=0 note=48 velocity=0 time=7
note_on channel=0 note=49 velocity=52 time=0
note_on channel=0 note=49 velocity=0 time=52
note_on channel=0 note=44 velocity=0 time=0
note_on channel=0 note=78 velocity=0 time=0
note_on channel=0 note=90 velocity=0 time=0
note_on channel=0 note=89 velocity=90 time=0
note_on channel=0 note=77 velocity=76 time=0
note_on channel=0 note=39 velocity=61 time=0
control_change channel=0 control=64 value=0 time=12
control_change channel=0 control=64 value=127 time=52
note_on channel=0 note=39 velocity=0 time=0
note_on channel=0 note=37 velocity=51 time=0
note_on channel=0 note=37 velocity=0 time=0
note_on channel=0 note=77 velocity=0 time=0
note_on channel=0 note=89 velocity=0 time=0
note_on channel=0 note=95 velocity=93 time=0
note_on channel=0 note=83 velocity=83 time=0
note_on channel=0 note=89 velocity=83 time=0
note_on channel=0 note=92 velocity=83 time=0
note_on channel=0 note=36 velocity=64 time=0
control_change channel=0 control=64 value=0 time=12
control_change channel=0 control=64 value=127 time=68
note_on channel=0 note=36 velocity=0 time=0
note_on channel=0 note=37 velocity=58 time=0
note_on channel=0 note=37 velocity=0 time=0
note_on channel=0 note=37 velocity=72 time=0
control_change channel=0 control=64 value=0 time=0
note_on channel=0 note=37 velocity=0 time=120
note_on channel=0 note=56 velocity=32 time=0
note_on channel=0 note=56 velocity=0 time=120
note_on channel=0 note=53 velocity=36 time=0
note_on channel=0 note=53 velocity=0 time=120
note_on channel=0 note=89 velocity=0 time=0
note_on channel=0 note=95 velocity=0 time=0
note_on channel=0 note=83 velocity=0 time=0
note_on channel=0 note=92 velocity=0 time=0
note_on channel=0 note=71 velocity=36 time=0
note_on channel=0 note=59 velocity=31 time=0
note_on channel=0 note=59 velocity=0 time=120
note_on channel=0 note=71 velocity=0 time=0
note_on channel=0 note=68 velocity=40 time=0
note_on channel=0 note=56 velocity=36 time=0
note_on channel=0 note=56 velocity=0 time=37
note_on channel=0 note=68 velocity=0 time=0
note_on channel=0 note=74 velocity=36 time=0
note_on channel=0 note=62 velocity=28 time=0
note_on channel=0 note=62 velocity=0 time=7
note_on channel=0 note=74 velocity=0 time=0
note_on channel=0 note=72 velocity=40 time=0
note_on channel=0 note=60 velocity=34 time=0
note_on channel=0 note=60 velocity=0 time=37
note_on channel=0 note=72 velocity=0 time=0
note_on channel=0 note=73 velocity=36 time=0
note_on channel=0 note=61 velocity=30 time=0
note_on channel=0 note=61 velocity=0 time=7
note_on channel=0 note=73 velocity=0 time=0
note_on channel=0 note=68 velocity=40 time=0
note_on channel=0 note=56 velocity=34 time=0
note_on channel=0 note=56 velocity=0 time=22
note_on channel=0 note=68 velocity=0 time=0
note_on channel=0 note=75 velocity=36 time=0
note_on channel=0 note=63 velocity=29 time=0
note_on channel=0 note=63 velocity=0 time=37
note_on channel=0 note=75 velocity=0 time=0
note_on channel=0 note=73 velocity=40 time=0
note_on channel=0 note=61 velocity=34 time=0
note_on channel=0 note=61 velocity=0 time=7
note_on channel=0 note=73 velocity=0 time=0
note_on channel=0 note=71 velocity=35 time=0
note_on channel=0 note=59 velocity=30 time=0
note_on channel=0 note=59 velocity=0 time=0
note_on channel=0 note=71 velocity=0 time=0
note_on channel=0 note=70 velocity=49 time=0
note_on channel=0 note=54 velocity=32 time=0
note_on channel=0 note=58 velocity=38 time=0
control_change channel=0 control=64 value=0 time=0
control_change channel=0 control=64 value=127 time=74
note_on channel=0 note=58 velocity=0 time=46
note_on channel=0 note=63 velocity=33 time=0
note_on channel=0 note=63 velocity=0 time=120
note_on channel=0 note=70 velocity=0 time=0
note_on channel=0 note=60 velocity=38 time=0
control_change channel=0 control=64 value=0 time=8
control_change channel=0 control=64 value=127 time=38
note_on channel=0 note=60 velocity=0 time=74
note_on channel=0 note=61 velocity=34 time=0
note_on channel=0 note=61 velocity=0 time=120
note_on channel=0 note=42 velocity=58 time=0
note_on channel=0 note=58 velocity=38 time=0
control_change channel=0 control=64 value=0 time=4
control_change channel=0 control=64 value=127 time=56
note_on channel=0 note=58 velocity=0 time=60
note_on channel=0 note=63 velocity=33 time=0
note_on channel=0 note=63 velocity=0 time=120
note_on channel=0 note=60 velocity=38 time=0
control_change channel=0 control=64 value=0 time=3
control_change channel=0 control=64 value=127 time=54
note_on channel=0 note=60 velocity=0 time=63
note_on channel=0 note=61 velocity=33 time=0
note_on channel=0 note=61 velocity=0 time=120
note_on channel=0 note=58 velocity=38 time=0
control_change channel=0 control=64 value=0 time=10
control_change channel=0 control=64 value=127 time=50
note_on channel=0 note=58 velocity=0 time=60
note_on channel=0 note=63 velocity=34 time=0
note_on channel=0 note=63 velocity=0 time=0
note_on channel=0 note=42 velocity=0 time=0
note_on channel=0 note=54 velocity=0 time=0
note_on channel=0 note=42 velocity=52 time=0
note_on channel=0 note=54 velocity=32 time=0
note_on channel=0 note=58 velocity=38 time=0
control_change channel=0 control=64 value=0 time=9
control_change channel=0 control=64 value=127 time=65
note_on channel=0 note=58 velocity=0 time=0
note_on channel=0 note=42 velocity=0 time=0
note_on channel=0 note=37 velocity=46 time=0
note_on channel=0 note=61 velocity=34 time=0
note_on channel=0 note=37 velocity=0 time=118
note_on channel=0 note=61 velocity=0 time=0
note_on channel=0 note=54 velocity=0 time=0
note_on channel=0 note=37 velocity=52 time=0
note_on channel=0 note=53 velocity=32 time=0
note_on channel=0 note=56 velocity=38 time=0
control_change channel=0 control=64 value=0 time=0
control_change channel=0 control=64 value=127 time=74
note_on channel=0 note=56 velocity=0 time=46
note_on channel=0 note=61 velocity=33 time=0
note_on channel=0 note=61 velocity=0 time=0
note_on channel=0 note=53 velocity=0 time=0
note_on channel=0 note=54 velocity=32 time=0
note_on channel=0 note=58 velocity=38 time=0
control_change channel=0 control=64 value=0 time=8
control_change channel=0 control=64 value=127 time=38
note_on channel=0 note=58 velocity=0 time=74
note_on channel=0 note=61 velocity=34 time=0
note_on channel=0 note=61 velocity=0 time=0
note_on channel=0 note=54 velocity=0 time=0
note_on channel=0 note=56 velocity=34 time=0
note_on channel=0 note=59 velocity=41 time=0
control_change channel=0 control=64 value=0 time=4
control_change channel=0 control=64 value=127 time=56
note_on channel=0 note=59 velocity=0 time=0
note_on channel=0 note=61 velocity=36 time=0
note_on channel=0 note=37 velocity=0 time=118
note_on channel=0 note=61 velocity=0 time=0
note_on channel=0 note=56 velocity=0 time=0
note_on channel=0 note=37 velocity=52 time=0
note_on channel=0 note=56 velocity=34 time=0
note_on channel=0 note=59 velocity=40 time=0
control_change channel=0 control=64 value=0 time=3
control_change channel=0 control=64 value=127 time=54
note_on channel=0 note=59 velocity=0 time=0
note_on channel=0 note=61 velocity=34 time=0
note_on channel=0 note=61 velocity=0 time=0
note_on channel=0 note=56 velocity=0 time=0
note_on channel=0 note=54 velocity=32 time=0
note_on channel=0 note=58 velocity=38 time=0
control_change channel=0 control=64 value=0 time=10
control_change channel=0 control=64 value=127 time=50
note_on channel=0 note=58 velocity=0 time=60
note_on channel=0 note=61 velocity=32 time=0
note_on channel=0 note=37 velocity=0 time=118
note_on channel=0 note=61 velocity=0 time=2
note_on channel=0 note=54 velocity=0 time=0
note_on channel=0 note=37 velocity=52 time=0
note_on channel=0 note=53 velocity=31 time=0
note_on channel=0 note=56 velocity=37 time=0
control_change channel=0 control=64 value=0 time=9
control_change channel=0 control=64 value=127 time=65
note_on channel=0 note=56 velocity=0 time=0
note_on channel=0 note=61 velocity=34 time=0
note_on channel=0 note=37 velocity=0 time=118
note_on channel=0 note=61 velocity=0 time=0
note_on channel=0 note=53 velocity=0 time=0
note_on channel=0 note=34 velocity=52 time=0
note_on channel=0 note=54 velocity=32 time=0
note_on channel=0 note=58 velocity=38 time=0
control_change channel=0 control=64 value=0 time=0
control_change channel=0 control=64 value=127 time=74
note_on channel=0 note=58 velocity=0 time=46
note_on channel=0 note=63 velocity=33 time=0
note_on channel=0 note=63 velocity=0 time=0
note_on channel=0 note=34 velocity=0 time=0
note_on channel=0 note=60 velocity=38 time=0
control_change channel=0 control=64 value=0 time=8
control_change channel=0 control=64 value=127 time=38
note_on channel=0 note=60 velocity=0 time=74
note_on channel=0 note=61 velocity=34 time=0
note_on channel=0 note=61 velocity=0 time=0
note_on channel=0 note=90 velocity=61 time=0
note_on channel=0 note=78 velocity=53 time=0
note_on channel=0 note=58 velocity=38 time=0
control_change channel=0 control=64 value=0 time=4
control_change channel=0 control=64 value=127 time=56
note_on channel=0 note=58 velocity=0 time=60
note_on channel=0 note=63 velocity=33 time=0
note_on channel=0 note=63 velocity=0 time=0
note_on channel=0 note=60 velocity=38 time=0
control_change channel=0 control=64 value=0 time=3
control_change channel=0 control=64 value=127 time=54
note_on channel=0 note=60 velocity=0 time=63
note_on channel=0 note=61 velocity=33 time=0
note_on channel=0 note=61 velocity=0 time=0
note_on channel=0 note=58 velocity=38 time=0
control_change channel=0 control=64 value=0 time=10
control_change channel=0 control=64 value=127 time=50
note_on channel=0 note=58 velocity=0 time=60
note_on channel=0 note=63 velocity=28 time=0
note_on channel=0 note=78 velocity=0 time=117
note_on channel=0 note=90 velocity=0 time=0
note_on channel=0 note=54 velocity=0 time=0
note_on channel=0 note=63 velocity=0 time=0
note_on channel=0 note=90 velocity=55 time=0
note_on channel=0 note=78 velocity=48 time=0
note_on channel=0 note=54 velocity=27 time=0
note_on channel=0 note=58 velocity=32 time=0
control_change channel=0 control=64 value=0 time=9
control_change channel=0 control=64 value=127 time=65
note_on channel=0 note=78 velocity=0 time=45
note_on channel=0 note=90 velocity=0 time=0
note_on channel=0 note=58 velocity=0 time=0
note_on channel=0 note=85 velocity=48 time=0
note_on channel=0 note=73 velocity=42 time=0
note_on channel=0 note=61 velocity=28 time=0
note_on channel=0 note=73 velocity=0 time=119
note_on channel=0 note=85 velocity=0 time=0
note_on channel=0 note=54 velocity=0 time=0
note_on channel=0 note=61 velocity=0 time=0
note_on channel=0 note=85 velocity=55 time=0
note_on channel=0 note=73 velocity=48 time=0
note_on channel=0 note=53 velocity=32 time=0
note_on channel=0 note=56 velocity=38 time=0
control_change channel=0 control=64 value=0 time=0
control_change channel=0 control=64 value=127 time=74
note_on channel=0 note=56 velocity=0 time=46
note_on channel=0 note=61 velocity=33 time=0
note_on channel=0 note=61 velocity=0 time=0
note_on channel=0 note=53 velocity=0 time=0
note_on channel=0 note=54 velocity=32 time=0
note_on channel=0 note=58 velocity=38 time=0
control_change channel=0 control=64 value=0 time=8
control_change channel=0 control=64 value=127 time=38
note_on channel=0 note=58 velocity=0 time=74
note_on channel=0 note=61 velocity=34 time=0
note_on channel=0 note=61 velocity=0 time=0
note_on channel=0 note=54 velocity=0 time=0
note_on channel=0 note=56 velocity=34 time=0
note_on channel=0 note=59 velocity=41 time=0
control_change channel=0 control=64 value=0 time=4
control_change channel=0 control=64 value=127 time=56
note_on channel=0 note=59 velocity=0 time=0
note_on channel=0 note=61 velocity=36 time=0
note_on channel=0 note=85 velocity=0 time=113
note_on channel=0 note=73 velocity=0 time=0
note_on channel=0 note=56 velocity=0 time=0
note_on channel=0 note=61 velocity=0 time=0
note_on channel=0 note=85 velocity=55 time=0
note_on channel=0 note=73 velocity=48 time=0
note_on channel=0 note=56 velocity=34 time=0
note_on channel=0 note=59 velocity=40 time=0
control_change channel=0 control=64 value=0 time=3
control_change channel=0 control=64 value=127 time=54
note_on channel=0 note=59 velocity=0 time=0
note_on channel=0 note=61 velocity=34 time=0
note_on channel=0 note=61 velocity=0 time=0
note_on channel=0 note=56 velocity=0 time=0
note_on channel=0 note=54 velocity=32 time=0
note_on channel=0 note=58 velocity=38 time=0
control_change channel=0 control=64 value=0 time=10
control_change channel=0 control=64 value=127 time=50
note_on channel=0 note=58 velocity=0 time=60
note_on channel=0 note=61 velocity=32 time=0
note_on channel=0 note=85 velocity=0 time=115
note_on channel=0 note=73 velocity=0 time=0
note_on channel=0 note=54 velocity=0 time=5
note_on channel=0 note=61 velocity=0 time=0
note_on channel=0 note=85 velocity=55 time=0
note_on channel=0 note=73 velocity=48 time=0
note_on channel=0 note=53 velocity=26 time=0
note_on channel=0 note=56 velocity=31 time=0
control_change channel=0 control=64 value=0 time=9
control_change channel=0 control=64 value=127 time=65
note_on channel=0 note=56 velocity=0 time=0
note_on channel=0 note=61 velocity=28 time=0
note_on channel=0 note=85 velocity=0 time=118
note_on channel=0 note=73 velocity=0 time=0
note_on channel=0 note=53 velocity=0 time=0
note_on channel=0 note=61 velocity=0 time=0
note_on channel=0 note=82 velocity=53 time=0
note_on channel=0 note=70 velocity=45 time=0
note_on channel=0 note=54 velocity=32 time=0
note_on channel=0 note=58 velocity=38 time=0
control_change channel=0 control=64 value=0 time=0
control_change channel=0 control=64 value=127 time=74
note_on channel=0 note=58 velocity=0 time=7
note_on channel=0 note=63 velocity=33 time=0
note_on channel=0 note=61 velocity=33 time=79
note_on channel=0 note=63 velocity=0 time=1
note_on channel=0 note=82 velocity=0 time=0
note_on channel=0 note=70 velocity=0 time=0
note_on channel=0 note=61 velocity=0 time=0
note_on channel=0 note=60 velocity=38 time=0
control_change channel=0 control=64 value=0 time=8
control_change channel=0 control=64 value=127 time=38
note_on channel=0 note=63 velocity=34 time=34
note_on channel=0 note=60 velocity=0 time=1
note_on channel=0 note=63 velocity=0 time=79
note_on channel=0 note=61 velocity=34 time=0
note_on channel=0 note=61 velocity=0 time=60
note_on channel=0 note=42 velocity=58 time=20
note_on channel=0 note=58 velocity=38 time=0
control_change channel=0 control=64 value=0 time=4
control_change channel=0 control=64 value=127 time=56
note_on channel=0 note=58 velocity=0 time=21
note_on channel=0 note=63 velocity=33 time=0
note_on channel=0 note=61 velocity=33 time=40
note_on channel=0 note=63 velocity=0 time=1
note_on channel=0 note=61 velocity=0 time=59
note_on channel=0 note=60 velocity=38 time=0
control_change channel=0 control=64 value=0 time=3
control_change channel=0 control=64 value=127 time=54
note_on channel=0 note=63 velocity=33 time=23
note_on channel=0 note=60 velocity=0 time=1
note_on channel=0 note=63 velocity=0 time=79
note_on channel=0 note=61 velocity=33 time=0
note_on channel=0 note=61 velocity=0 time=60
note_on channel=0 note=42 velocity=0 time=15
note_on channel=0 note=42 velocity=58 time=5
note_on channel=0 note=58 velocity=38 time=0
control_change channel=0 control=64 value=0 time=10
control_change channel=0 control=64 value=127 time=50
note_on channel=0 note=58 velocity=0 time=21
note_on channel=0 note=63 velocity=34 time=0
note_on channel=0 note=61 velocity=34 time=79
note_on channel=0 note=63 velocity=0 time=1
note_on channel=0 note=61 velocity=0 time=59
note_on channel=0 note=42 velocity=0 time=18
note_on channel=0 note=54 velocity=0 time=0
note_on channel=0 note=42 velocity=56 time=0
note_on channel=0 note=54 velocity=32 time=0
note_on channel=0 note=58 velocity=38 time=0
control_change channel=0 control=64 value=0 time=9
control_change channel=0 control=64 value=127 time=65
note_on channel=0 note=42 velocity=0 time=6
note_on channel=0 note=41 velocity=50 time=0
note_on channel=0 note=62 velocity=34 time=0
note_on channel=0 note=58 velocity=0 time=1
note_on channel=0 note=62 velocity=0 time=40
note_on channel=0 note=41 velocity=0 time=0
note_on channel=0 note=42 velocity=50 time=0
note_on channel=0 note=61 velocity=34 time=0
note_on channel=0 note=61 velocity=0 time=60
note_on channel=0 note=42 velocity=0 time=0
note_on channel=0 note=54 velocity=0 time=0
note_on channel=0 note=37 velocity=52 time=0
note_on channel=0 note=53 velocity=32 time=0
note_on channel=0 note=56 velocity=38 time=0
control_change channel=0 control=64 value=0 time=0
control_change channel=0 control=64 value=127 time=74
note_on channel=0 note=63 velocity=33 time=6
note_on channel=0 note=56 velocity=0 time=1
note_on channel=0 note=63 velocity=0 time=79
note_on channel=0 note=61 velocity=33 time=0
note_on channel=0 note=61 velocity=0 time=60
note_on channel=0 note=53 velocity=0 time=0
note_on channel=0 note=54 velocity=32 time=0
note_on channel=0 note=58 velocity=38 time=0
control_change channel=0 control=64 value=0 time=8
control_change channel=0 control=64 value=127 time=38
note_on channel=0 note=63 velocity=34 time=34
note_on channel=0 note=58 velocity=0 time=1
note_on channel=0 note=63 velocity=0 time=79
note_on channel=0 note=61 velocity=34 time=0
note_on channel=0 note=61 velocity=0 time=60
note_on channel=0 note=37 velocity=0 time=15
note_on channel=0 note=54 velocity=0 time=0
note_on channel=0 note=37 velocity=52 time=0
note_on channel=0 note=56 velocity=34 time=0
note_on channel=0 note=59 velocity=41 time=0
control_change channel=0 control=64 value=0 time=4
control_change channel=0 control=64 value=127 time=56
note_on channel=0 note=63 velocity=36 time=20
note_on channel=0 note=59 velocity=0 time=1
note_on channel=0 note=63 velocity=0 time=40
note_on channel=0 note=61 velocity=36 time=0
note_on channel=0 note=61 velocity=0 time=60
note_on channel=0 note=56 velocity=0 time=0
note_on channel=0 note=56 velocity=34 time=0
note_on channel=0 note=59 velocity=40 time=0
control_change channel=0 control=64 value=0 time=3
control_change channel=0 control=64 value=127 time=54
note_on channel=0 note=63 velocity=34 time=23
note_on channel=0 note=59 velocity=0 time=1
note_on channel=0 note=63 velocity=0 time=40
note_on channel=0 note=61 velocity=34 time=0
note_on channel=0 note=61 velocity=0 time=60
note_on channel=0 note=37 velocity=0 time=15
note_on channel=0 note=56 velocity=0 time=0
note_on channel=0 note=37 velocity=52 time=0
note_on channel=0 note=54 velocity=32 time=0
note_on channel=0 note=58 velocity=38 time=0
control_change channel=0 control=64 value=0 time=10
control_change channel=0 control=64 value=127 time=50
note_on channel=0 note=63 velocity=32 time=20
note_on channel=0 note=58 velocity=0 time=1
note_on channel=0 note=63 velocity=0 time=79
note_on channel=0 note=61 velocity=32 time=0
note_on channel=0 note=61 velocity=0 time=60
note_on channel=0 note=54 velocity=0 time=20
note_on channel=0 note=53 velocity=31 time=0
note_on channel=0 note=56 velocity=37 time=0
control_change channel=0 control=64 value=0 time=9
control_change channel=0 control=64 value=127 time=65
note_on channel=0 note=63 velocity=34 time=6
note_on channel=0 note=56 velocity=0 time=1
note_on channel=0 note=63 velocity=0 time=40
note_on channel=0 note=61 velocity=34 time=0
note_on channel=0 note=61 velocity=0 time=60
note_on channel=0 note=37 velocity=0 time=15
note_on channel=0 note=53 velocity=0 time=0
note_on channel=0 note=34 velocity=52 time=0
note_on channel=0 note=54 velocity=32 time=0
note_on channel=0 note=58 velocity=38 time=0
control_change channel=0 control=64 value=0 time=0
control_change channel=0 control=64 value=127 time=49
note_on channel=0 note=58 velocity=0 time=32
note_on channel=0 note=63 velocity=33 time=0
note_on channel=0 note=61 velocity=33 time=79
note_on channel=0 note=63 velocity=0 time=1
note_on channel=0 note=61 velocity=0 time=0
note_on channel=0 note=34 velocity=0 time=0
note_on channel=0 note=60 velocity=39 time=0
control_change channel=0 control=64 value=0 time=8
control_change channel=0 control=64 value=127 time=38
note_on channel=0 note=63 velocity=34 time=34
note_on channel=0 note=60 velocity=0 time=1
note_on channel=0 note=63 velocity=0 time=40
note_on channel=0 note=61 velocity=35 time=0
note_on channel=0 note=61 velocity=0 time=60
note_on channel=0 note=90 velocity=67 time=0
note_on channel=0 note=78 velocity=59 time=0
note_on channel=0 note=58 velocity=39 time=0
control_change channel=0 control=64 value=0 time=4
control_change channel=0 control=64 value=127 time=56
note_on channel=0 note=58 velocity=0 time=21
note_on channel=0 note=63 velocity=34 time=0
note_on channel=0 note=61 velocity=35 time=79
note_on channel=0 note=63 velocity=0 time=1
note_on channel=0 note=61 velocity=0 time=59
note_on channel=0 note=60 velocity=41 time=0
control_change channel=0 control=64 value=0 time=3
control_change channel=0 control=64 value=127 time=54
note_on channel=0 note=63 velocity=35 time=23
note_on channel=0 note=60 velocity=0 time=1
note_on channel=0 note=63 velocity=0 time=79
note_on channel=0 note=61 velocity=36 time=0
note_on channel=0 note=61 velocity=0 time=60
note_on channel=0 note=58 velocity=42 time=20
control_change channel=0 control=64 value=0 time=10
control_change channel=0 control=64 value=127 time=50
note_on channel=0 note=58 velocity=0 time=21
note_on channel=0 note=63 velocity=38 time=0
note_on channel=0 note=61 velocity=34 time=79
note_on channel=0 note=63 velocity=0 time=1
note_on channel=0 note=61 velocity=0 time=59
note_on channel=0 note=78 velocity=0 time=13
note_on channel=0 note=90 velocity=0 time=0
note_on channel=0 note=54 velocity=0 time=0
note_on channel=0 note=90 velocity=65 time=0
note_on channel=0 note=78 velocity=57 time=0
note_on channel=0 note=54 velocity=32 time=0
note_on channel=0 note=58 velocity=38 time=0
control_change channel=0 control=64 value=0 time=9
control_change channel=0 control=64 value=127 time=65
note_on channel=0 note=77 velocity=51 time=6
note_on channel=0 note=89 velocity=58 time=0
note_on channel=0 note=62 velocity=34 time=0
note_on channel=0 note=58 velocity=0 time=1
note_on channel=0 note=78 velocity=0 time=0
note_on channel=0 note=90 velocity=0 time=0
note_on channel=0 note=77 velocity=0 time=40
note_on channel=0 note=89 velocity=0 time=0
note_on channel=0 note=62 velocity=0 time=0
note_on channel=0 note=78 velocity=51 time=0
note_on channel=0 note=90 velocity=58 time=0
note_on channel=0 note=61 velocity=34 time=0
note_on channel=0 note=61 velocity=0 time=60
note_on channel=0 note=90 velocity=0 time=0
note_on channel=0 note=78 velocity=0 time=0
note_on channel=0 note=54 velocity=0 time=0
note_on channel=0 note=85 velocity=67 time=0
note_on channel=0 note=73 velocity=59 time=0
note_on channel=0 note=53 velocity=39 time=0
note_on channel=0 note=56 velocity=47 time=0
control_change channel=0 control=64 value=0 time=0
control_change channel=0 control=64 value=127 time=46
note_on channel=0 note=63 velocity=41 time=34
note_on channel=0 note=56 velocity=0 time=1
note_on channel=0 note=63 velocity=0 time=79
note_on channel=0 note=61 velocity=41 time=0
note_on channel=0 note=61 velocity=0 time=60
note_on channel=0 note=53 velocity=0 time=0
note_on channel=0 note=54 velocity=40 time=0
note_on channel=0 note=58 velocity=49 time=0
control_change channel=0 control=64 value=0 time=8
control_change channel=0 control=64 value=127 time=38
note_on channel=0 note=63 velocity=44 time=34
note_on channel=0 note=58 velocity=0 time=1
note_on channel=0 note=63 velocity=0 time=79
note_on channel=0 note=61 velocity=46 time=0
note_on channel=0 note=61 velocity=0 time=60
note_on channel=0 note=73 velocity=0 time=15
note_on channel=0 note=85 velocity=0 time=0
note_on channel=0 note=54 velocity=0 time=0
note_on channel=0 note=73 velocity=62 time=0
note_on channel=0 note=85 velocity=70 time=0
note_on channel=0 note=56 velocity=47 time=0
note_on channel=0 note=59 velocity=57 time=0
control_change channel=0 control=64 value=0 time=4
control_change channel=0 control=64 value=127 time=56
note_on channel=0 note=63 velocity=51 time=20
note_on channel=0 note=59 velocity=0 time=1
note_on channel=0 note=63 velocity=0 time=40
note_on channel=0 note=61 velocity=53 time=0
note_on channel=0 note=61 velocity=0 time=60
note_on channel=0 note=56 velocity=0 time=0
note_on channel=0 note=56 velocity=50 time=0
note_on channel=0 note=59 velocity=60 time=0
control_change channel=0 control=64 value=0 time=3
control_change channel=0 control=64 value=127 time=54
note_on channel=0 note=63 velocity=51 time=23
note_on channel=0 note=59 velocity=0 time=1
note_on channel=0 note=63 velocity=0 time=40
note_on channel=0 note=61 velocity=51 time=0
note_on channel=0 note=61 velocity=0 time=60
note_on channel=0 note=85 velocity=0 time=15
note_on channel=0 note=73 velocity=0 time=0
note_on channel=0 note=56 velocity=0 time=0
note_on channel=0 note=73 velocity=63 time=0
note_on channel=0 note=85 velocity=72 time=0
note_on channel=0 note=54 velocity=49 time=0
note_on channel=0 note=58 velocity=58 time=0
control_change channel=0 control=64 value=0 time=10
control_change channel=0 control=64 value=127 time=50
note_on channel=0 note=63 velocity=49 time=20
note_on channel=0 note=58 velocity=0 time=1
note_on channel=0 note=63 velocity=0 time=79
note_on channel=0 note=61 velocity=50 time=0
note_on channel=0 note=61 velocity=0 time=60
note_on channel=0 note=54 velocity=0 time=0
note_on channel=0 note=53 velocity=49 time=0
note_on channel=0 note=56 velocity=58 time=0
control_change channel=0 control=64 value=0 time=9
control_change channel=0 control=64 value=127 time=65
note_on channel=0 note=61 velocity=53 time=6
note_on channel=0 note=56 velocity=0 time=1
note_on channel=0 note=85 velocity=0 time=40
note_on channel=0 note=73 velocity=0 time=0
note_on channel=0 note=61 velocity=0 time=0
note_on channel=0 note=71 velocity=45 time=0
note_on channel=0 note=83 velocity=50 time=0
note_on channel=0 note=59 velocity=40 time=0
note_on channel=0 note=59 velocity=0 time=60
note_on channel=0 note=53 velocity=0 time=0
note_on channel=0 note=71 velocity=0 time=0
note_on channel=0 note=83 velocity=0 time=0
note_on channel=0 note=70 velocity=50 time=0
note_on channel=0 note=82 velocity=50 time=0
note_on channel=0 note=58 velocity=40 time=0
note_on channel=0 note=54 velocity=50 time=0
control_change channel=0 control=64 value=0 time=11
control_change channel=0 control=64 value=127 time=41
note_on channel=0 note=58 velocity=0 time=28
note_on channel=0 note=61 velocity=36 time=0
note_on channel=0 note=61 velocity=0 time=80
note_on channel=0 note=59 velocity=36 time=0
note_on channel=0 note=59 velocity=0 time=0
note_on channel=0 note=70 velocity=0 time=0
note_on channel=0 note=82 velocity=0 time=0
note_on channel=0 note=70 velocity=40 time=0
note_on channel=0 note=82 velocity=55 time=0
note_on channel=0 note=58 velocity=40 time=0
control_change channel=0 control=64 value=0 time=7
control_change channel=0 control=64 value=127 time=45
note_on channel=0 note=58 velocity=0 time=28
note_on channel=0 note=70 velocity=0 time=0
note_on channel=0 note=80 velocity=40 time=0
note_on channel=0 note=59 velocity=38 time=0
note_on channel=0 note=59 velocity=0 time=80
note_on channel=0 note=80 velocity=0 time=0
note_on channel=0 note=78 velocity=40 time=0
note_on channel=0 note=61 velocity=38 time=0
note_on channel=0 note=61 velocity=0 time=80
note_on channel=0 note=78 velocity=0 time=0
note_on channel=0 note=77 velocity=50 time=0
note_on channel=0 note=63 velocity=40 time=0
control_change channel=0 control=64 value=0 time=4
control_change channel=0 control=64 value=127 time=39
note_on channel=0 note=63 velocity=0 time=37
note_on channel=0 note=77 velocity=0 time=0
note_on channel=0 note=75 velocity=41 time=0
note_on channel=0 note=65 velocity=37 time=0
note_on channel=0 note=65 velocity=0 time=0
note_on channel=0 note=75 velocity=0 time=0
note_on channel=0 note=73 velocity=43 time=0
note_on channel=0 note=66 velocity=37 time=0
note_on channel=0 note=66 velocity=0 time=0
note_on channel=0 note=54 velocity=0 time=0
note_on channel=0 note=82 velocity=0 time=0
note_on channel=0 note=73 velocity=0 time=0
note_on channel=0 note=71 velocity=50 time=0
note_on channel=0 note=83 velocity=55 time=0
note_on channel=0 note=68 velocity=40 time=0
note_on channel=0 note=56 velocity=50 time=0
control_change channel=0 control=64 value=0 time=7
control_change channel=0 control=64 value=127 time=42
note_on channel=0 note=71 velocity=0 time=31
note_on channel=0 note=73 velocity=42 time=0
note_on channel=0 note=73 velocity=0 time=80
note_on channel=0 note=70 velocity=42 time=0
note_on channel=0 note=70 velocity=0 time=0
note_on channel=0 note=71 velocity=50 time=0
control_change channel=0 control=64 value=0 time=6
control_change channel=0 control=64 value=127 time=40
note_on channel=0 note=71 velocity=0 time=0
note_on channel=0 note=68 velocity=0 time=0
note_on channel=0 note=73 velocity=40 time=0
note_on channel=0 note=66 velocity=36 time=0
note_on channel=0 note=66 velocity=0 time=80
note_on channel=0 note=73 velocity=0 time=0
note_on channel=0 note=75 velocity=40 time=0
note_on channel=0 note=65 velocity=36 time=0
note_on channel=0 note=65 velocity=0 time=80
note_on channel=0 note=75 velocity=0 time=0
note_on channel=0 note=77 velocity=50 time=0
note_on channel=0 note=63 velocity=40 time=0
control_change channel=0 control=64 value=0 time=7
control_change channel=0 control=64 value=127 time=48
note_on channel=0 note=63 velocity=0 time=25
note_on channel=0 note=77 velocity=0 time=0
note_on channel=0 note=78 velocity=41 time=0
note_on channel=0 note=61 velocity=35 time=0
note_on channel=0 note=61 velocity=0 time=0
note_on channel=0 note=78 velocity=0 time=0
note_on channel=0 note=80 velocity=41 time=0
note_on channel=0 note=59 velocity=35 time=0
note_on channel=0 note=59 velocity=0 time=0
note_on channel=0 note=56 velocity=0 time=0
note_on channel=0 note=83 velocity=0 time=0
note_on channel=0 note=80 velocity=0 time=0
note_on channel=0 note=73 velocity=50 time=0
note_on channel=0 note=85 velocity=55 time=0
note_on channel=0 note=65 velocity=40 time=0
note_on channel=0 note=58 velocity=50 time=0
control_change channel=0 control=64 value=0 time=11
control_change channel=0 control=64 value=127 time=41
note_on channel=0 note=65 velocity=0 time=28
note_on channel=0 note=66 velocity=36 time=0
note_on channel=0 note=66 velocity=0 time=80
note_on channel=0 note=65 velocity=37 time=0
note_on channel=0 note=65 velocity=0 time=0
note_on channel=0 note=73 velocity=0 time=0
note_on channel=0 note=85 velocity=0 time=0
note_on channel=0 note=82 velocity=42 time=0
note_on channel=0 note=85 velocity=57 time=0
note_on channel=0 note=61 velocity=42 time=0
control_change channel=0 control=64 value=0 time=7
control_change channel=0 control=64 value=127 time=45
note_on channel=0 note=61 velocity=0 time=28
note_on channel=0 note=82 velocity=0 time=0
note_on channel=0 note=80 velocity=42 time=0
note_on channel=0 note=63 velocity=40 time=0
note_on channel=0 note=63 velocity=0 time=80
note_on channel=0 note=80 velocity=0 time=0
note_on channel=0 note=78 velocity=43 time=0
note_on channel=0 note=64 velocity=41 time=0
note_on channel=0 note=64 velocity=0 time=80
note_on channel=0 note=78 velocity=0 time=0
note_on channel=0 note=76 velocity=55 time=0
note_on channel=0 note=66 velocity=44 time=0
control_change channel=0 control=64 value=0 time=4
control_change channel=0 control=64 value=127 time=39
note_on channel=0 note=66 velocity=0 time=37
note_on channel=0 note=76 velocity=0 time=0
note_on channel=0 note=75 velocity=45 time=0
note_on channel=0 note=68 velocity=41 time=0
note_on channel=0 note=68 velocity=0 time=0
note_on channel=0 note=75 velocity=0 time=0
note_on channel=0 note=73 velocity=48 time=0
note_on channel=0 note=70 velocity=41 time=0
note_on channel=0 note=70 velocity=0 time=0
note_on channel=0 note=58 velocity=0 time=0
note_on channel=0 note=85 velocity=0 time=0
note_on channel=0 note=87 velocity=67 time=0
note_on channel=0 note=71 velocity=46 time=0
note_on channel=0 note=59 velocity=57 time=0
control_change channel=0 control=64 value=0 time=7
control_change channel=0 control=64 value=127 time=42
note_on channel=0 note=73 velocity=0 time=31
note_on channel=0 note=75 velocity=48 time=0
note_on channel=0 note=75 velocity=0 time=80
note_on channel=0 note=76 velocity=49 time=0
note_on channel=0 note=76 velocity=0 time=0
note_on channel=0 note=71 velocity=0 time=0
note_on channel=0 note=75 velocity=60 time=0
note_on channel=0 note=71 velocity=48 time=0
control_change channel=0 control=64 value=0 time=6
control_change channel=0 control=64 value=127 time=40
note_on channel=0 note=71 velocity=0 time=0
note_on channel=0 note=75 velocity=0 time=0
note_on channel=0 note=77 velocity=48 time=0
note_on channel=0 note=70 velocity=43 time=0
note_on channel=0 note=70 velocity=0 time=80
note_on channel=0 note=77 velocity=0 time=0
note_on channel=0 note=78 velocity=49 time=0
note_on channel=0 note=68 velocity=44 time=0
note_on channel=0 note=68 velocity=0 time=80
note_on channel=0 note=78 velocity=0 time=0
note_on channel=0 note=80 velocity=62 time=0
note_on channel=0 note=66 velocity=50 time=0
control_change channel=0 control=64 value=0 time=7
control_change channel=0 control=64 value=127 time=48
note_on channel=0 note=66 velocity=0 time=25
note_on channel=0 note=80 velocity=0 time=0
note_on channel=0 note=82 velocity=51 time=0
note_on channel=0 note=65 velocity=44 time=0
note_on channel=0 note=65 velocity=0 time=0
note_on channel=0 note=82 velocity=0 time=0
note_on channel=0 note=83 velocity=52 time=0
note_on channel=0 note=63 velocity=44 time=0
note_on channel=0 note=63 velocity=0 time=0
note_on channel=0 note=59 velocity=0 time=0
note_on channel=0 note=87 velocity=0 time=0
note_on channel=0 note=89 velocity=71 time=0
note_on channel=0 note=61 velocity=65 time=0
control_change channel=0 control=64 value=0 time=11
control_change channel=0 control=64 value=127 time=41
note_on channel=0 note=83 velocity=0 time=28
note_on channel=0 note=83 velocity=53 time=0
note_on channel=0 note=65 velocity=47 time=0
note_on channel=0 note=65 velocity=0 time=80
note_on channel=0 note=83 velocity=0 time=0
note_on channel=0 note=82 velocity=54 time=0
note_on channel=0 note=66 velocity=47 time=0
note_on channel=0 note=66 velocity=0 time=0
note_on channel=0 note=82 velocity=0 time=0
note_on channel=0 note=89 velocity=0 time=0
note_on channel=0 note=80 velocity=54 time=0
note_on channel=0 note=68 velocity=54 time=0
control_change channel=0 control=64 value=0 time=7
control_change channel=0 control=64 value=127 time=45
note_on channel=0 note=68 velocity=0 time=28
note_on channel=0 note=80 velocity=0 time=0
note_on channel=0 note=78 velocity=54 time=0
note_on channel=0 note=70 velocity=51 time=0
note_on channel=0 note=70 velocity=0 time=80
note_on channel=0 note=78 velocity=0 time=0
note_on channel=0 note=77 velocity=55 time=0
note_on channel=0 note=71 velocity=52 time=0
note_on channel=0 note=71 velocity=0 time=80
note_on channel=0 note=77 velocity=0 time=0
note_on channel=0 note=61 velocity=0 time=0
note_on channel=0 note=90 velocity=77 time=0
note_on channel=0 note=78 velocity=70 time=0
note_on channel=0 note=63 velocity=70 time=0
note_on channel=0 note=70 velocity=56 time=0
control_change channel=0 control=64 value=0 time=4
control_change channel=0 control=64 value=127 time=39
note_on channel=0 note=70 velocity=0 time=37
note_on channel=0 note=78 velocity=0 time=0
note_on channel=0 note=80 velocity=57 time=0
note_on channel=0 note=68 velocity=52 time=0
note_on channel=0 note=68 velocity=0 time=0
note_on channel=0 note=80 velocity=0 time=0
note_on channel=0 note=82 velocity=61 time=0
note_on channel=0 note=66 velocity=52 time=0
note_on channel=0 note=66 velocity=0 time=0
note_on channel=0 note=90 velocity=0 time=0
note_on channel=0 note=63 velocity=0 time=0
note_on channel=0 note=82 velocity=0 time=0
note_on channel=0 note=80 velocity=72 time=0
note_on channel=0 note=92 velocity=84 time=0
note_on channel=0 note=65 velocity=72 time=0
control_change channel=0 control=64 value=0 time=7
control_change channel=0 control=64 value=127 time=42
note_on channel=0 note=80 velocity=0 time=31
note_on channel=0 note=83 velocity=61 time=0
note_on channel=0 note=68 velocity=52 time=0
note_on channel=0 note=68 velocity=0 time=80
note_on channel=0 note=83 velocity=0 time=0
note_on channel=0 note=82 velocity=62 time=0
note_on channel=0 note=70 velocity=53 time=0
note_on channel=0 note=70 velocity=0 time=0
note_on channel=0 note=82 velocity=0 time=0
note_on channel=0 note=80 velocity=75 time=0
note_on channel=0 note=71 velocity=60 time=0
control_change channel=0 control=64 value=0 time=6
control_change channel=0 control=64 value=127 time=40
note_on channel=0 note=71 velocity=0 time=0
note_on channel=0 note=80 velocity=0 time=0
note_on channel=0 note=82 velocity=60 time=0
note_on channel=0 note=73 velocity=57 time=0
note_on channel=0 note=73 velocity=0 time=80
note_on channel=0 note=82 velocity=0 time=0
note_on channel=0 note=83 velocity=61 time=0
note_on channel=0 note=75 velocity=58 time=0
note_on channel=0 note=75 velocity=0 time=80
note_on channel=0 note=92 velocity=0 time=0
note_on channel=0 note=65 velocity=0 time=0
note_on channel=0 note=83 velocity=0 time=0
note_on channel=0 note=94 velocity=91 time=0
note_on channel=0 note=82 velocity=77 time=0
note_on channel=0 note=66 velocity=77 time=0
note_on channel=0 note=73 velocity=62 time=0
control_change channel=0 control=64 value=0 time=7
control_change channel=0 control=64 value=127 time=48
note_on channel=0 note=73 velocity=0 time=25
note_on channel=0 note=82 velocity=0 time=0
note_on channel=0 note=83 velocity=63 time=0
note_on channel=0 note=71 velocity=57 time=0
note_on channel=0 note=71 velocity=0 time=0
note_on channel=0 note=83 velocity=0 time=0
note_on channel=0 note=85 velocity=64 time=0
note_on channel=0 note=70 velocity=58 time=0
note_on channel=0 note=70 velocity=0 time=0
note_on channel=0 note=94 velocity=0 time=0
note_on channel=0 note=66 velocity=0 time=0
note_on channel=0 note=95 velocity=96 time=0
note_on channel=0 note=76 velocity=58 time=0
note_on channel=0 note=68 velocity=72 time=0
control_change channel=0 control=64 value=0 time=7
control_change channel=0 control=64 value=127 time=42
note_on channel=0 note=76 velocity=0 time=31
note_on channel=0 note=85 velocity=0 time=0
note_on channel=0 note=82 velocity=61 time=0
note_on channel=0 note=73 velocity=52 time=0
note_on channel=0 note=73 velocity=0 time=80
note_on channel=0 note=82 velocity=0 time=0
note_on channel=0 note=83 velocity=62 time=0
note_on channel=0 note=75 velocity=53 time=0
note_on channel=0 note=75 velocity=0 time=0
note_on channel=0 note=68 velocity=0 time=0
note_on channel=0 note=95 velocity=0 time=0
note_on channel=0 note=83 velocity=0 time=0
note_on channel=0 note=85 velocity=74 time=0
note_on channel=0 note=79 velocity=63 time=0
note_on channel=0 note=70 velocity=61 time=0
note_on channel=0 note=76 velocity=51 time=0
control_change channel=0 control=64 value=0 time=6
control_change channel=0 control=64 value=127 time=40
note_on channel=0 note=76 velocity=0 time=0
note_on channel=0 note=79 velocity=0 time=0
note_on channel=0 note=78 velocity=51 time=0
note_on channel=0 note=58 velocity=48 time=0
note_on channel=0 note=66 velocity=48 time=0
note_on channel=0 note=66 velocity=0 time=80
note_on channel=0 note=78 velocity=0 time=0
note_on channel=0 note=76 velocity=51 time=0
note_on channel=0 note=67 velocity=49 time=0
note_on channel=0 note=67 velocity=0 time=80
note_on channel=0 note=85 velocity=0 time=0
note_on channel=0 note=58 velocity=0 time=0
note_on channel=0 note=70 velocity=0 time=0
note_on channel=0 note=76 velocity=0 time=0
note_on channel=0 note=87 velocity=70 time=0
note_on channel=0 note=75 velocity=65 time=0
note_on channel=0 note=59 velocity=65 time=0
note_on channel=0 note=66 velocity=52 time=0
control_change channel=0 control=64 value=0 time=7
control_change channel=0 control=64 value=127 time=48
note_on channel=0 note=66 velocity=0 time=25
note_on channel=0 note=75 velocity=0 time=0
note_on channel=0 note=76 velocity=53 time=0
note_on channel=0 note=64 velocity=48 time=0
note_on channel=0 note=64 velocity=0 time=0
note_on channel=0 note=76 velocity=0 time=0
note_on channel=0 note=78 velocity=54 time=0
note_on channel=0 note=63 velocity=52 time=0
note_on channel=0 note=63 velocity=0 time=0
note_on channel=0 note=87 velocity=0 time=0
note_on channel=0 note=59 velocity=0 time=0
note_on channel=0 note=81 velocity=70 time=0
note_on channel=0 note=63 velocity=48 time=0
note_on channel=0 note=60 velocity=52 time=0
control_change channel=0 control=64 value=0 time=5
control_change channel=0 control=64 value=127 time=35
note_on channel=0 note=63 velocity=0 time=40
note_on channel=0 note=78 velocity=0 time=0
note_on channel=0 note=77 velocity=48 time=0
note_on channel=0 note=65 velocity=47 time=0
note_on channel=0 note=65 velocity=0 time=80
note_on channel=0 note=77 velocity=0 time=0
note_on channel=0 note=75 velocity=47 time=0
note_on channel=0 note=66 velocity=39 time=0
note_on channel=0 note=66 velocity=0 time=0
note_on channel=0 note=75 velocity=0 time=0
note_on channel=0 note=72 velocity=52 time=0
note_on channel=0 note=69 velocity=45 time=0
control_change channel=0 control=64 value=0 time=8
control_change channel=0 control=64 value=127 time=29
note_on channel=0 note=69 velocity=0 time=43
note_on channel=0 note=72 velocity=0 time=0
note_on channel=0 note=73 velocity=46 time=0
note_on channel=0 note=68 velocity=38 time=0
note_on channel=0 note=68 velocity=0 time=80
note_on channel=0 note=73 velocity=0 time=0
note_on channel=0 note=75 velocity=45 time=0
note_on channel=0 note=66 velocity=37 time=0
note_on channel=0 note=66 velocity=0 time=0
note_on channel=0 note=60 velocity=0 time=0
note_on channel=0 note=81 velocity=0 time=0
note_on channel=0 note=75 velocity=0 time=0
note_on channel=0 note=77 velocity=47 time=0
note_on channel=0 note=80 velocity=58 time=0
note_on channel=0 note=61 velocity=43 time=0
note_on channel=0 note=59 velocity=38 time=0
control_change channel=0 control=64 value=0 time=7
control_change channel=0 control=64 value=127 time=29
note_on channel=0 note=61 velocity=0 time=34
note_on channel=0 note=77 velocity=0 time=0
note_on channel=0 note=74 velocity=44 time=0
note_on channel=0 note=65 velocity=36 time=0
note_on channel=0 note=65 velocity=0 time=18
note_on channel=0 note=74 velocity=0 time=0
note_on channel=0 note=73 velocity=43 time=0
note_on channel=0 note=68 velocity=35 time=0
note_on channel=0 note=68 velocity=0 time=21
note_on channel=0 note=59 velocity=0 time=0
note_on channel=0 note=80 velocity=0 time=0
note_on channel=0 note=73 velocity=0 time=0
note_on channel=0 note=76 velocity=51 time=0
note_on channel=0 note=79 velocity=51 time=0
note_on channel=0 note=85 velocity=61 time=0
note_on channel=0 note=70 velocity=39 time=0
note_on channel=0 note=73 velocity=46 time=0
control_change channel=0 control=64 value=0 time=3
control_change channel=0 control=64 value=127 time=131
note_on channel=0 note=76 velocity=0 time=346
note_on channel=0 note=75 velocity=51 time=0
note_on channel=0 note=75 velocity=0 time=240
note_on channel=0 note=73 velocity=0 time=0
note_on channel=0 note=79 velocity=0 time=0
note_on channel=0 note=85 velocity=0 time=0
note_on channel=0 note=70 velocity=0 time=0
note_on channel=0 note=87 velocity=52 time=0
note_on channel=0 note=82 velocity=44 time=0
note_on channel=0 note=75 velocity=44 time=0
note_on channel=0 note=67 velocity=32 time=0
note_on channel=0 note=70 velocity=38 time=0
control_change channel=0 control=64 value=0 time=14
control_change channel=0 control=64 value=127 time=160
note_on channel=0 note=70 velocity=0 time=306
note_on channel=0 note=75 velocity=0 time=0
note_on channel=0 note=87 velocity=0 time=0
note_on channel=0 note=82 velocity=0 time=0
note_on channel=0 note=67 velocity=0 time=0
note_on channel=0 note=73 velocity=43 time=0
note_on channel=0 note=75 velocity=43 time=0
note_on channel=0 note=82 velocity=51 time=0
note_on channel=0 note=63 velocity=26 time=0
note_on channel=0 note=67 velocity=31 time=0
note_on channel=0 note=67 velocity=0 time=0
note_on channel=0 note=82 velocity=0 time=0
note_on channel=0 note=73 velocity=0 time=0
note_on channel=0 note=75 velocity=0 time=0
note_on channel=0 note=63 velocity=0 time=0
note_on channel=0 note=73 velocity=51 time=0
note_on channel=0 note=85 velocity=61 time=0
note_on channel=0 note=70 velocity=41 time=0
control_change channel=0 control=64 value=0 time=27
control_change channel=0 control=64 value=127 time=33
note_on channel=0 note=70 velocity=0 time=60
note_on channel=0 note=85 velocity=0 time=0
note_on channel=0 note=73 velocity=0 time=0
note_on channel=0 note=70 velocity=48 time=0
note_on channel=0 note=82 velocity=57 time=0
note_on channel=0 note=67 velocity=37 time=0
note_on channel=0 note=67 velocity=0 time=0
note_on channel=0 note=82 velocity=0 time=0
note_on channel=0 note=70 velocity=0 time=0
note_on channel=0 note=83 velocity=74 time=0
note_on channel=0 note=71 velocity=62 time=0
note_on channel=0 note=56 velocity=36 time=0
note_on channel=0 note=68 velocity=46 time=0
note_on channel=0 note=68 velocity=0 time=0
note_on channel=0 note=83 velocity=0 time=0
note_on channel=0 note=71 velocity=0 time=0
note_on channel=0 note=75 velocity=60 time=0
note_on channel=0 note=87 velocity=71 time=0
note_on channel=0 note=63 velocity=37 time=0
note_on channel=0 note=63 velocity=0 time=0
note_on channel=0 note=56 velocity=0 time=0
note_on channel=0 note=75 velocity=0 time=0
note_on channel=0 note=87 velocity=0 time=0
note_on channel=0 note=94 velocity=79 time=0
note_on channel=0 note=82 velocity=67 time=0
note_on channel=0 note=47 velocity=49 time=0
note_on channel=0 note=61 velocity=49 time=0
control_change channel=0 control=64 value=0 time=14
control_change channel=0 control=64 value=127 time=50
note_on channel=0 note=61 velocity=0 time=0
note_on channel=0 note=94 velocity=0 time=0
note_on channel=0 note=82 velocity=0 time=0
note_on channel=0 note=92 velocity=73 time=0
note_on channel=0 note=80 velocity=62 time=0
note_on channel=0 note=59 velocity=47 time=0
note_on channel=0 note=59 velocity=0 time=0
note_on channel=0 note=47 velocity=0 time=0
note_on channel=0 note=49 velocity=45 time=0
note_on channel=0 note=58 velocity=54 time=0
control_change channel=0 control=64 value=0 time=9
control_change channel=0 control=64 value=127 time=65
note_on channel=0 note=80 velocity=0 time=46
note_on channel=0 note=92 velocity=0 time=0
note_on channel=0 note=90 velocity=72 time=0
note_on channel=0 note=78 velocity=61 time=0
note_on channel=0 note=49 velocity=0 time=0
note_on channel=0 note=58 velocity=0 time=0
note_on channel=0 note=37 velocity=36 time=0
note_on channel=0 note=46 velocity=43 time=0
control_change channel=0 control=64 value=0 time=6
control_change channel=0 control=64 value=127 time=44
note_on channel=0 note=46 velocity=0 time=70
note_on channel=0 note=78 velocity=0 time=0
note_on channel=0 note=90 velocity=0 time=0
note_on channel=0 note=37 velocity=0 time=0
note_on channel=0 note=66 velocity=56 time=0
note_on channel=0 note=70 velocity=56 time=0
note_on channel=0 note=78 velocity=67 time=0
note_on channel=0 note=37 velocity=33 time=0
note_on channel=0 note=49 velocity=46 time=0
note_on channel=0 note=78 velocity=0 time=0
note_on channel=0 note=66 velocity=0 time=0
note_on channel=0 note=70 velocity=0 time=0
note_on channel=0 note=65 velocity=58 time=0
note_on channel=0 note=77 velocity=69 time=0
note_on channel=0 note=68 velocity=58 time=0
control_change channel=0 control=64 value=0 time=5
note_on channel=0 note=37 velocity=0 time=55
note_on channel=0 note=49 velocity=0 time=0
note_on channel=0 note=35 velocity=45 time=0
note_on channel=0 note=47 velocity=53 time=0
note_on channel=0 note=47 velocity=0 time=0
note_on channel=0 note=77 velocity=0 time=0
note_on channel=0 note=68 velocity=0 time=0
note_on channel=0 note=65 velocity=0 time=0
note_on channel=0 note=35 velocity=0 time=0
note_on channel=0 note=73 velocity=64 time=0
note_on channel=0 note=64 velocity=64 time=0
note_on channel=0 note=76 velocity=76 time=0
note_on channel=0 note=67 velocity=64 time=0
note_on channel=0 note=34 velocity=46 time=0
note_on channel=0 note=46 velocity=55 time=0
control_change channel=0 control=64 value=127 time=0
note_on channel=0 note=46 velocity=0 time=60
note_on channel=0 note=34 velocity=0 time=0
note_on channel=0 note=35 velocity=48 time=0
note_on channel=0 note=47 velocity=57 time=0
note_on channel=0 note=47 velocity=0 time=0
note_on channel=0 note=64 velocity=0 time=0
note_on channel=0 note=67 velocity=0 time=0
note_on channel=0 note=73 velocity=0 time=0
note_on channel=0 note=35 velocity=0 time=0
note_on channel=0 note=76 velocity=0 time=0
note_on channel=0 note=64 velocity=46 time=0
note_on channel=0 note=67 velocity=46 time=0
note_on channel=0 note=73 velocity=46 time=0
note_on channel=0 note=76 velocity=55 time=0
note_on channel=0 note=34 velocity=52 time=0
control_change channel=0 control=64 value=0 time=0
control_change channel=0 control=64 value=127 time=35
note_on channel=0 note=34 velocity=0 time=25
note_on channel=0 note=37 velocity=44 time=0
note_on channel=0 note=37 velocity=0 time=60
note_on channel=0 note=40 velocity=43 time=0
note_on channel=0 note=40 velocity=0 time=60
note_on channel=0 note=43 velocity=42 time=0
note_on channel=0 note=43 velocity=0 time=60
note_on channel=0 note=46 velocity=41 time=0
note_on channel=0 note=46 velocity=0 time=50
note_on channel=0 note=49 velocity=40 time=0
note_on channel=0 note=49 velocity=0 time=60
note_on channel=0 note=52 velocity=39 time=0
note_on channel=0 note=52 velocity=0 time=55
note_on channel=0 note=55 velocity=38 time=0
note_on channel=0 note=55 velocity=0 time=19
note_on channel=0 note=76 velocity=0 time=0
note_on channel=0 note=64 velocity=0 time=0
note_on channel=0 note=67 velocity=0 time=0
note_on channel=0 note=73 velocity=0 time=0
note_on channel=0 note=73 velocity=40 time=0
note_on channel=0 note=76 velocity=51 time=0
note_on channel=0 note=58 velocity=36 time=0
note_on channel=0 note=61 velocity=36 time=0
control_change channel=0 control=64 value=0 time=11
control_change channel=0 control=64 value=127 time=32
note_on channel=0 note=61 velocity=0 time=17
note_on channel=0 note=58 velocity=0 time=0
note_on channel=0 note=73 velocity=0 time=0
note_on channel=0 note=67 velocity=40 time=0
note_on channel=0 note=64 velocity=27 time=0
note_on channel=0 note=64 velocity=0 time=43
note_on channel=0 note=67 velocity=0 time=0
note_on channel=0 note=76 velocity=0 time=0
note_on channel=0 note=75 velocity=40 time=0
note_on channel=0 note=71 velocity=40 time=0
note_on channel=0 note=59 velocity=27 time=0
control_change channel=0 control=64 value=0 time=5
control_change channel=0 control=64 value=127 time=24
note_on channel=0 note=59 velocity=0 time=0
note_on channel=0 note=71 velocity=0 time=0
note_on channel=0 note=66 velocity=40 time=0
note_on channel=0 note=63 velocity=27 time=0
note_on channel=0 note=63 velocity=0 time=0
note_on channel=0 note=66 velocity=0 time=0
note_on channel=0 note=75 velocity=0 time=0
note_on channel=0 note=62 velocity=29 time=0
note_on channel=0 note=66 velocity=29 time=0
note_on channel=0 note=70 velocity=29 time=0
note_on channel=0 note=74 velocity=34 time=0
note_on channel=0 note=47 velocity=22 time=0
note_on channel=0 note=59 velocity=26 time=0
control_change channel=0 control=64 value=0 time=6
control_change channel=0 control=64 value=127 time=26
note_on channel=0 note=59 velocity=0 time=425
note_on channel=0 note=66 velocity=0 time=0
note_on channel=0 note=70 velocity=0 time=0
note_on channel=0 note=62 velocity=0 time=0
note_on channel=0 note=47 velocity=0 time=0
note_on channel=0 note=74 velocity=0 time=0
control_change channel=0 control=64 value=0 time=60
note_on channel=0 note=66 velocity=51 time=0
note_on channel=0 note=70 velocity=51 time=0
note_on channel=0 note=73 velocity=61 time=0
note_on channel=0 note=61 velocity=51 time=0
note_on channel=0 note=37 velocity=39 time=0
control_change channel=0 control=64 value=127 time=23
note_on channel=0 note=37 velocity=0 time=57
note_on channel=0 note=42 velocity=34 time=0
note_on channel=0 note=42 velocity=0 time=80
note_on channel=0 note=46 velocity=34 time=0
note_on channel=0 note=46 velocity=0 time=80
note_on channel=0 note=49 velocity=31 time=0
note_on channel=0 note=49 velocity=0 time=80
note_on channel=0 note=54 velocity=31 time=0
note_on channel=0 note=54 velocity=0 time=80
note_on channel=0 note=58 velocity=31 time=0
note_on channel=0 note=58 velocity=0 time=0
note_on channel=0 note=61 velocity=0 time=0
note_on channel=0 note=66 velocity=0 time=0
note_on channel=0 note=70 velocity=0 time=0
note_on channel=0 note=70 velocity=40 time=0
note_on channel=0 note=49 velocity=39 time=0
note_on channel=0 note=54 velocity=38 time=0
control_change channel=0 control=64 value=0 time=6
control_change channel=0 control=64 value=127 time=23
note_on channel=0 note=54 velocity=0 time=31
note_on channel=0 note=70 velocity=0 time=0
note_on channel=0 note=66 velocity=40 time=0
note_on channel=0 note=58 velocity=34 time=0
note_on channel=0 note=58 velocity=0 time=0
note_on channel=0 note=73 velocity=0 time=0
note_on channel=0 note=49 velocity=0 time=0
note_on channel=0 note=66 velocity=0 time=0
note_on channel=0 note=69 velocity=40 time=0
note_on channel=0 note=72 velocity=40 time=0
note_on channel=0 note=51 velocity=28 time=0
note_on channel=0 note=54 velocity=34 time=0
control_change channel=0 control=64 value=0 time=5
control_change channel=0 control=64 value=127 time=32
note_on channel=0 note=54 velocity=0 time=0
note_on channel=0 note=69 velocity=0 time=0
note_on channel=0 note=66 velocity=40 time=0
note_on channel=0 note=57 velocity=34 time=0
note_on channel=0 note=57 velocity=0 time=0
note_on channel=0 note=72 velocity=0 time=0
note_on channel=0 note=51 velocity=0 time=0
note_on channel=0 note=66 velocity=0 time=0
note_on channel=0 note=65 velocity=40 time=0
note_on channel=0 note=71 velocity=48 time=0
note_on channel=0 note=68 velocity=40 time=0
note_on channel=0 note=62 velocity=40 time=0
note_on channel=0 note=50 velocity=32 time=0
note_on channel=0 note=53 velocity=32 time=0
note_on channel=0 note=56 velocity=32 time=0
note_on channel=0 note=59 velocity=38 time=0
control_change channel=0 control=64 value=0 time=7
control_change channel=0 control=64 value=127 time=96
note_on channel=0 note=59 velocity=0 time=0
note_on channel=0 note=65 velocity=0 time=0
note_on channel=0 note=50 velocity=0 time=0
note_on channel=0 note=71 velocity=0 time=0
note_on channel=0 note=68 velocity=0 time=0
note_on channel=0 note=62 velocity=0 time=0
note_on channel=0 note=53 velocity=0 time=0
note_on channel=0 note=56 velocity=0 time=0
note_on channel=0 note=50 velocity=25 time=0
note_on channel=0 note=53 velocity=25 time=0
note_on channel=0 note=56 velocity=25 time=0
note_on channel=0 note=59 velocity=30 time=0
note_on channel=0 note=59 velocity=0 time=360
note_on channel=0 note=50 velocity=0 time=0
note_on channel=0 note=53 velocity=0 time=0
note_on channel=0 note=56 velocity=0 time=0
note_on channel=0 note=51 velocity=22 time=0
note_on channel=0 note=55 velocity=22 time=0
note_on channel=0 note=58 velocity=27 time=0
control_change channel=0 control=64 value=0 time=3
note_on channel=0 note=58 velocity=0 time=117
note_on channel=0 note=55 velocity=0 time=0
note_on channel=0 note=51 velocity=0 time=0
note_on channel=0 note=51 velocity=25 time=0
note_on channel=0 note=55 velocity=25 time=0
note_on channel=0 note=58 velocity=30 time=0
control_change channel=0 control=64 value=127 time=80
note_on channel=0 note=58 velocity=0 time=395
note_on channel=0 note=55 velocity=0 time=0
note_on channel=0 note=51 velocity=0 time=0
note_on channel=0 note=51 velocity=22 time=0
note_on channel=0 note=55 velocity=22 time=0
note_on channel=0 note=58 velocity=22 time=0
note_on channel=0 note=63 velocity=27 time=0
note_on channel=0 note=63 velocity=0 time=238
note_on channel=0 note=51 velocity=0 time=0
note_on channel=0 note=55 velocity=0 time=0
note_on channel=0 note=58 velocity=0 time=0
note_on channel=0 note=67 velocity=38 time=0
note_on channel=0 note=70 velocity=45 time=0
note_on channel=0 note=51 velocity=25 time=0
note_on channel=0 note=55 velocity=25 time=0
note_on channel=0 note=58 velocity=25 time=0
note_on channel=0 note=63 velocity=30 time=0
note_on channel=0 note=63 velocity=0 time=475
note_on channel=0 note=70 velocity=0 time=0
note_on channel=0 note=51 velocity=0 time=0
note_on channel=0 note=67 velocity=0 time=0
note_on channel=0 note=58 velocity=0 time=0
note_on channel=0 note=55 velocity=0 time=0
note_on channel=0 note=67 velocity=36 time=0
note_on channel=0 note=70 velocity=36 time=0
note_on channel=0 note=75 velocity=42 time=0
note_on channel=0 note=51 velocity=22 time=0
note_on channel=0 note=55 velocity=22 time=0
note_on channel=0 note=58 velocity=22 time=0
note_on channel=0 note=63 velocity=27 time=0
note_on channel=0 note=63 velocity=0 time=238
note_on channel=0 note=55 velocity=0 time=0
note_on channel=0 note=51 velocity=0 time=0
note_on channel=0 note=58 velocity=0 time=0
note_on channel=0 note=67 velocity=0 time=0
note_on channel=0 note=75 velocity=0 time=0
note_on channel=0 note=70 velocity=0 time=0
note_on channel=0 note=67 velocity=38 time=0
note_on channel=0 note=63 velocity=38 time=0
note_on channel=0 note=70 velocity=38 time=0
note_on channel=0 note=75 velocity=45 time=0
note_on channel=0 note=39 velocity=25 time=0
note_on channel=0 note=51 velocity=30 time=0
note_on channel=0 note=51 velocity=0 time=0
note_on channel=0 note=39 velocity=0 time=0
note_on channel=0 note=34 velocity=25 time=0
note_on channel=0 note=46 velocity=30 time=0
note_on channel=0 note=70 velocity=0 time=0
note_on channel=0 note=75 velocity=0 time=0
note_on channel=0 note=67 velocity=0 time=0
note_on channel=0 note=63 velocity=0 time=0
note_on channel=0 note=63 velocity=36 time=0
note_on channel=0 note=75 velocity=44 time=0
note_on channel=0 note=67 velocity=36 time=0
note_on channel=0 note=67 velocity=0 time=0
note_on channel=0 note=63 velocity=0 time=0
note_on channel=0 note=34 velocity=0 time=0
note_on channel=0 note=46 velocity=0 time=0
note_on channel=0 note=75 velocity=0 time=0
note_on channel=0 note=63 velocity=38 time=0
note_on channel=0 note=66 velocity=38 time=0
note_on channel=0 note=75 velocity=45 time=0
note_on channel=0 note=35 velocity=25 time=0
note_on channel=0 note=47 velocity=30 time=0
control_change channel=0 control=64 value=0 time=13
note_on channel=0 note=47 velocity=0 time=0
note_on channel=0 note=75 velocity=0 time=0
note_on channel=0 note=63 velocity=0 time=0
note_on channel=0 note=66 velocity=0 time=0
note_on channel=0 note=35 velocity=0 time=0
note_on channel=0 note=61 velocity=35 time=0
note_on channel=0 note=73 velocity=41 time=0
note_on channel=0 note=65 velocity=35 time=0
note_on channel=0 note=37 velocity=21 time=0
note_on channel=0 note=49 velocity=25 time=0
note_on channel=0 note=49 velocity=0 time=0
note_on channel=0 note=65 velocity=0 time=0
note_on channel=0 note=61 velocity=0 time=0
note_on channel=0 note=73 velocity=0 time=0
note_on channel=0 note=37 velocity=0 time=0
note_on channel=0 note=61 velocity=35 time=0
note_on channel=0 note=66 velocity=35 time=0
note_on channel=0 note=70 velocity=35 time=0
note_on channel=0 note=73 velocity=41 time=0
note_on channel=0 note=30 velocity=20 time=0
note_on channel=0 note=42 velocity=24 time=0
control_change channel=0 control=64 value=127 time=94
note_on channel=0 note=42 velocity=0 time=386
note_on channel=0 note=66 velocity=0 time=0
note_on channel=0 note=70 velocity=0 time=0
note_on channel=0 note=61 velocity=0 time=0
note_on channel=0 note=30 velocity=0 time=0
note_on channel=0 note=73 velocity=0 time=0
note_on channel=0 note=70 velocity=33 time=0
note_on channel=0 note=58 velocity=22 time=0
note_on channel=0 note=58 velocity=0 time=240
note_on channel=0 note=70 velocity=0 time=0
note_on channel=0 note=61 velocity=42 time=0
note_on channel=0 note=49 velocity=24 time=0
note_on channel=0 note=49 velocity=0 time=0
note_on channel=0 note=61 velocity=0 time=0
note_on channel=0 note=73 velocity=36 time=0
note_on channel=0 note=61 velocity=21 time=0
note_on channel=0 note=61 velocity=0 time=0
note_on channel=0 note=73 velocity=0 time=0
note_on channel=0 note=70 velocity=40 time=0
note_on channel=0 note=58 velocity=24 time=0
note_on channel=0 note=58 velocity=0 time=480
note_on channel=0 note=70 velocity=0 time=0
note_on channel=0 note=82 velocity=59 time=0
note_on channel=0 note=73 velocity=49 time=0
note_on channel=0 note=70 velocity=49 time=0
note_on channel=0 note=37 velocity=28 time=0
note_on channel=0 note=49 velocity=34 time=0
control_change channel=0 control=64 value=0 time=12
note_on channel=0 note=70 velocity=0 time=228
note_on channel=0 note=82 velocity=0 time=0
note_on channel=0 note=73 velocity=0 time=0
note_on channel=0 note=68 velocity=53 time=0
note_on channel=0 note=80 velocity=63 time=0
note_on channel=0 note=71 velocity=53 time=0
note_on channel=0 note=37 velocity=0 time=240
note_on channel=0 note=49 velocity=0 time=0
note_on channel=0 note=39 velocity=27 time=0
note_on channel=0 note=51 velocity=40 time=0
control_change channel=0 control=64 value=127 time=0
note_on channel=0 note=51 velocity=0 time=120
note_on channel=0 note=39 velocity=0 time=0
note_on channel=0 note=37 velocity=27 time=0
note_on channel=0 note=49 velocity=40 time=0
note_on channel=0 note=49 velocity=0 time=120
note_on channel=0 note=71 velocity=0 time=0
note_on channel=0 note=80 velocity=0 time=0
note_on channel=0 note=68 velocity=0 time=0
note_on channel=0 note=37 velocity=0 time=0
note_on channel=0 note=73 velocity=51 time=0
note_on channel=0 note=71 velocity=43 time=0
note_on channel=0 note=68 velocity=43 time=0
note_on channel=0 note=61 velocity=43 time=0
note_on channel=0 note=51 velocity=29 time=0
note_on channel=0 note=49 velocity=29 time=0
note_on channel=0 note=39 velocity=29 time=0
control_change channel=0 control=64 value=0 time=13
note_on channel=0 note=39 velocity=0 time=107
note_on channel=0 note=51 velocity=0 time=0
note_on channel=0 note=49 velocity=0 time=0
note_on channel=0 note=41 velocity=29 time=0
note_on channel=0 note=49 velocity=29 time=0
note_on channel=0 note=53 velocity=29 time=0
note_on channel=0 note=53 velocity=0 time=0
note_on channel=0 note=41 velocity=0 time=0
note_on channel=0 note=71 velocity=0 time=0
note_on channel=0 note=61 velocity=0 time=0
note_on channel=0 note=73 velocity=0 time=0
note_on channel=0 note=49 velocity=0 time=0
note_on channel=0 note=68 velocity=0 time=0
note_on channel=0 note=73 velocity=54 time=0
note_on channel=0 note=61 velocity=45 time=0
note_on channel=0 note=70 velocity=45 time=0
note_on channel=0 note=49 velocity=30 time=0
note_on channel=0 note=42 velocity=30 time=0
note_on channel=0 note=54 velocity=36 time=0
control_change channel=0 control=64 value=127 time=94
note_on channel=0 note=54 velocity=0 time=386
note_on channel=0 note=61 velocity=0 time=0
note_on channel=0 note=70 velocity=0 time=0
note_on channel=0 note=73 velocity=0 time=0
note_on channel=0 note=42 velocity=0 time=0
note_on channel=0 note=49 velocity=0 time=0
note_on channel=0 note=82 velocity=51 time=0
note_on channel=0 note=70 velocity=33 time=0
note_on channel=0 note=70 velocity=0 time=240
note_on channel=0 note=82 velocity=0 time=0
note_on channel=0 note=73 velocity=50 time=0
note_on channel=0 note=61 velocity=37 time=0
note_on channel=0 note=61 velocity=0 time=0
note_on channel=0 note=73 velocity=0 time=0
note_on channel=0 note=85 velocity=58 time=0
note_on channel=0 note=73 velocity=49 time=0
note_on channel=0 note=34 velocity=28 time=0
note_on channel=0 note=46 velocity=34 time=0
note_on channel=0 note=46 velocity=0 time=0
note_on channel=0 note=85 velocity=0 time=0
note_on channel=0 note=73 velocity=0 time=0
note_on channel=0 note=34 velocity=0 time=0
note_on channel=0 note=70 velocity=54 time=0
note_on channel=0 note=82 velocity=64 time=0
note_on channel=0 note=37 velocity=34 time=0
note_on channel=0 note=49 velocity=40 time=0
control_change channel=0 control=64 value=0 time=14
control_change channel=0 control=64 value=127 time=64
note_on channel=0 note=49 velocity=0 time=0
note_on channel=0 note=37 velocity=0 time=0
note_on channel=0 note=49 velocity=28 time=0
note_on channel=0 note=61 velocity=34 time=0
note_on channel=0 note=61 velocity=0 time=240
note_on channel=0 note=70 velocity=0 time=0
note_on channel=0 note=82 velocity=0 time=0
note_on channel=0 note=49 velocity=0 time=0
note_on channel=0 note=73 velocity=52 time=0
note_on channel=0 note=85 velocity=62 time=0
note_on channel=0 note=46 velocity=30 time=0
note_on channel=0 note=49 velocity=30 time=0
note_on channel=0 note=58 velocity=36 time=0
note_on channel=0 note=58 velocity=0 time=240
note_on channel=0 note=46 velocity=0 time=0
note_on channel=0 note=49 velocity=0 time=0
note_on channel=0 note=44 velocity=36 time=0
note_on channel=0 note=49 velocity=36 time=0
note_on channel=0 note=56 velocity=43 time=0
control_change channel=0 control=64 value=0 time=28
control_change channel=0 control=64 value=127 time=92
note_on channel=0 note=85 velocity=0 time=0
note_on channel=0 note=73 velocity=0 time=0
note_on channel=0 note=85 velocity=56 time=0
note_on channel=0 note=75 velocity=56 time=0
note_on channel=0 note=87 velocity=67 time=0
control_change channel=0 control=64 value=0 time=12
control_change channel=0 control=64 value=127 time=73
note_on channel=0 note=85 velocity=0 time=35
note_on channel=0 note=83 velocity=61 time=0
note_on channel=0 note=83 velocity=0 time=0
note_on channel=0 note=87 velocity=0 time=0
note_on channel=0 note=49 velocity=0 time=0
note_on channel=0 note=56 velocity=0 time=0
note_on channel=0 note=44 velocity=0 time=0
note_on channel=0 note=75 velocity=0 time=0
note_on channel=0 note=82 velocity=67 time=0
note_on channel=0 note=89 velocity=67 time=0
note_on channel=0 note=77 velocity=56 time=0
note_on channel=0 note=37 velocity=34 time=0
note_on channel=0 note=49 velocity=40 time=0
control_change channel=0 control=64 value=0 time=12
control_change channel=0 control=64 value=127 time=73
note_on channel=0 note=82 velocity=0 time=0
note_on channel=0 note=83 velocity=60 time=0
note_on channel=0 note=83 velocity=0 time=0
note_on channel=0 note=49 velocity=0 time=0
note_on channel=0 note=89 velocity=0 time=0
note_on channel=0 note=77 velocity=0 time=0
note_on channel=0 note=37 velocity=0 time=0
note_on channel=0 note=82 velocity=56 time=0
note_on channel=0 note=90 velocity=67 time=0
note_on channel=0 note=78 velocity=56 time=0
note_on channel=0 note=42 velocity=36 time=0
note_on channel=0 note=49 velocity=36 time=0
note_on channel=0 note=54 velocity=43 time=0
control_change channel=0 control=64 value=0 time=0
control_change channel=0 control=64 value=127 time=240
note_on channel=0 note=54 velocity=0 time=480
note_on channel=0 note=90 velocity=0 time=0
note_on channel=0 note=78 velocity=0 time=0
note_on channel=0 note=82 velocity=0 time=0
note_on channel=0 note=49 velocity=0 time=0
note_on channel=0 note=42 velocity=0 time=0
note_on channel=0 note=80 velocity=48 time=0
note_on channel=0 note=89 velocity=48 time=0
note_on channel=0 note=92 velocity=57 time=0
note_on channel=0 note=37 velocity=28 time=0
note_on channel=0 note=49 velocity=33 time=0
note_on channel=0 note=85 velocity=52 time=0
note_on channel=0 note=85 velocity=0 time=0
note_on channel=0 note=89 velocity=0 time=0
note_on channel=0 note=92 velocity=0 time=0
note_on channel=0 note=80 velocity=0 time=0
note_on channel=0 note=49 velocity=0 time=0
note_on channel=0 note=37 velocity=0 time=0
note_on channel=0 note=94 velocity=43 time=0
note_on channel=0 note=90 velocity=36 time=0
note_on channel=0 note=85 velocity=36 time=0
note_on channel=0 note=82 velocity=36 time=0
note_on channel=0 note=30 velocity=22 time=0
note_on channel=0 note=42 velocity=26 time=0
note_on channel=0 note=42 velocity=0 time=0
note_on channel=0 note=90 velocity=0 time=0
note_on channel=0 note=85 velocity=0 time=0
note_on channel=0 note=94 velocity=0 time=0
note_on channel=0 note=30 velocity=0 time=0
note_on channel=0 note=82 velocity=0 time=0
note_on channel=0 note=70 velocity=36 time=0
note_on channel=0 note=73 velocity=36 time=0
note_on channel=0 note=82 velocity=43 time=0
note_on channel=0 note=42 velocity=22 time=0
note_on channel=0 note=54 velocity=26 time=0
control_change channel=0 control=64 value=0 time=0
control_change channel=0 control=64 value=127 time=52
note_on channel=0 note=54 velocity=0 time=186
note_on channel=0 note=82 velocity=0 time=0
note_on channel=0 note=70 velocity=0 time=0
note_on channel=0 note=73 velocity=0 time=0
note_on channel=0 note=42 velocity=0 time=0
note_on channel=0 note=85 velocity=60 time=2
note_on channel=0 note=82 velocity=51 time=0
note_on channel=0 note=73 velocity=51 time=0
note_on channel=0 note=42 velocity=25 time=0
note_on channel=0 note=54 velocity=29 time=0
note_on channel=0 note=73 velocity=0 time=360
note_on channel=0 note=85 velocity=0 time=0
note_on channel=0 note=82 velocity=0 time=0
note_on channel=0 note=86 velocity=67 time=0
note_on channel=0 note=83 velocity=57 time=0
note_on channel=0 note=74 velocity=57 time=0
control_change channel=0 control=64 value=0 time=8
control_change channel=0 control=64 value=127 time=35
note_on channel=0 note=74 velocity=0 time=0
note_on channel=0 note=86 velocity=0 time=0
note_on channel=0 note=54 velocity=0 time=0
note_on channel=0 note=42 velocity=0 time=0
note_on channel=0 note=83 velocity=0 time=0
note_on channel=0 note=88 velocity=72 time=0
note_on channel=0 note=85 velocity=60 time=0
note_on channel=0 note=76 velocity=60 time=0
note_on channel=0 note=42 velocity=36 time=0
note_on channel=0 note=54 velocity=43 time=0
control_change channel=0 control=64 value=0 time=14
control_change channel=0 control=64 value=127 time=26
note_on channel=0 note=76 velocity=0 time=80
note_on channel=0 note=88 velocity=0 time=0
note_on channel=0 note=85 velocity=0 time=0
note_on channel=0 note=90 velocity=56 time=0
note_on channel=0 note=86 velocity=47 time=0
note_on channel=0 note=78 velocity=47 time=0
note_on channel=0 note=42 velocity=0 time=0
note_on channel=0 note=54 velocity=0 time=0
note_on channel=0 note=40 velocity=31 time=0
note_on channel=0 note=52 velocity=36 time=0
note_on channel=0 note=86 velocity=0 time=59
note_on channel=0 note=78 velocity=0 time=0
note_on channel=0 note=90 velocity=0 time=0
note_on channel=0 note=40 velocity=0 time=0
note_on channel=0 note=52 velocity=0 time=0
note_on channel=0 note=90 velocity=51 time=0
note_on channel=0 note=78 velocity=43 time=0
note_on channel=0 note=38 velocity=28 time=0
note_on channel=0 note=50 velocity=33 time=0
control_change channel=0 control=64 value=0 time=0
control_change channel=0 control=64 value=127 time=115
note_on channel=0 note=78 velocity=0 time=0
note_on channel=0 note=90 velocity=0 time=0
note_on channel=0 note=86 velocity=40 time=0
note_on channel=0 note=74 velocity=34 time=0
note_on channel=0 note=74 velocity=0 time=236
note_on channel=0 note=86 velocity=0 time=0
note_on channel=0 note=38 velocity=0 time=0
note_on channel=0 note=50 velocity=0 time=0
note_on channel=0 note=86 velocity=46 time=0
note_on channel=0 note=74 velocity=39 time=0
note_on channel=0 note=42 velocity=25 time=0
note_on channel=0 note=54 velocity=30 time=0
control_change channel=0 control=64 value=0 time=12
control_change channel=0 control=64 value=127 time=160
note_on channel=0 note=74 velocity=0 time=68
note_on channel=0 note=86 velocity=0 time=0
note_on channel=0 note=83 velocity=43 time=0
note_on channel=0 note=71 velocity=36 time=0
note_on channel=0 note=71 velocity=0 time=0
note_on channel=0 note=83 velocity=0 time=0
note_on channel=0 note=73 velocity=36 time=0
note_on channel=0 note=85 velocity=43 time=0
control_change channel=0 control=64 value=0 time=12
control_change channel=0 control=64 value=127 time=125
note_on channel=0 note=85 velocity=0 time=0
note_on channel=0 note=54 velocity=0 time=0
note_on channel=0 note=42 velocity=0 time=0
note_on channel=0 note=73 velocity=0 time=0
note_on channel=0 note=74 velocity=39 time=0
note_on channel=0 note=86 velocity=47 time=0
note_on channel=0 note=47 velocity=26 time=0
note_on channel=0 note=59 velocity=31 time=0
control_change channel=0 control=64 value=0 time=27
control_change channel=0 control=64 value=127 time=65
note_on channel=0 note=59 velocity=0 time=388
note_on channel=0 note=74 velocity=0 time=0
note_on channel=0 note=86 velocity=0 time=0
note_on channel=0 note=47 velocity=0 time=0
control_change channel=0 control=64 value=0 time=40
note_on channel=0 note=47 velocity=26 time=440
note_on channel=0 note=59 velocity=31 time=0
control_change channel=0 control=64 value=127 time=29
note_on channel=0 note=59 velocity=0 time=211
note_on channel=0 note=47 velocity=0 time=0
note_on channel=0 note=43 velocity=22 time=0
note_on channel=0 note=55 velocity=26 time=0
note_on channel=0 note=55 velocity=0 time=120
note_on channel=0 note=43 velocity=0 time=0
note_on channel=0 note=38 velocity=22 time=0
note_on channel=0 note=50 velocity=26 time=0
note_on channel=0 note=50 velocity=0 time=117
note_on channel=0 note=38 velocity=0 time=0
note_on channel=0 note=71 velocity=39 time=3
note_on channel=0 note=83 velocity=47 time=0
note_on channel=0 note=38 velocity=26 time=0
note_on channel=0 note=50 velocity=31 time=0
control_change channel=0 control=64 value=0 time=3
control_change channel=0 control=64 value=127 time=146
note_on channel=0 note=50 velocity=0 time=0
note_on channel=0 note=38 velocity=0 time=0
note_on channel=0 note=35 velocity=22 time=0
note_on channel=0 note=47 velocity=26 time=0
control_change channel=0 control=64 value=0 time=206
note_on channel=0 note=47 velocity=0 time=32
note_on channel=0 note=35 velocity=0 time=0
note_on channel=0 note=83 velocity=0 time=2
note_on channel=0 note=71 velocity=0 time=0
note_on channel=0 note=74 velocity=39 time=0
note_on channel=0 note=86 velocity=47 time=0
note_on channel=0 note=35 velocity=26 time=0
note_on channel=0 note=47 velocity=31 time=0
control_change channel=0 control=64 value=127 time=80
note_on channel=0 note=47 velocity=0 time=160
note_on channel=0 note=35 velocity=0 time=0
note_on channel=0 note=31 velocity=22 time=0
note_on channel=0 note=43 velocity=27 time=0
note_on channel=0 note=43 velocity=0 time=240
note_on channel=0 note=31 velocity=0 time=0
note_on channel=0 note=33 velocity=22 time=0
note_on channel=0 note=45 velocity=27 time=0
control_change channel=0 control=64 value=0 time=3
control_change channel=0 control=64 value=127 time=89
note_on channel=0 note=45 velocity=0 time=0
note_on channel=0 note=74 velocity=0 time=0
note_on channel=0 note=86 velocity=0 time=0
note_on channel=0 note=33 velocity=0 time=0
note_on channel=0 note=91 velocity=80 time=0
note_on channel=0 note=79 velocity=67 time=0
note_on channel=0 note=35 velocity=46 time=0
note_on channel=0 note=47 velocity=55 time=0
control_change channel=0 control=64 value=0 time=14
control_change channel=0 control=64 value=127 time=113
note_on channel=0 note=47 velocity=0 time=113
note_on channel=0 note=35 velocity=0 time=0
note_on channel=0 note=47 velocity=49 time=0
note_on channel=0 note=55 velocity=58 time=0
note_on channel=0 note=55 velocity=0 time=240
note_on channel=0 note=47 velocity=0 time=0
note_on channel=0 note=48 velocity=52 time=0
note_on channel=0 note=57 velocity=62 time=0
note_on channel=0 note=57 velocity=0 time=0
note_on channel=0 note=48 velocity=0 time=0
note_on channel=0 note=50 velocity=54 time=0
note_on channel=0 note=59 velocity=65 time=0
control_change channel=0 control=64 value=0 time=5
control_change channel=0 control=64 value=127 time=73
note_on channel=0 note=59 velocity=0 time=0
note_on channel=0 note=91 velocity=0 time=0
note_on channel=0 note=79 velocity=0 time=0
note_on channel=0 note=50 velocity=0 time=0
note_on channel=0 note=71 velocity=45 time=0
note_on channel=0 note=74 velocity=54 time=0
note_on channel=0 note=59 velocity=45 time=0
note_on channel=0 note=55 velocity=38 time=0
control_change channel=0 control=64 value=0 time=12
control_change channel=0 control=64 value=127 time=66
note_on channel=0 note=55 velocity=0 time=0
note_on channel=0 note=71 velocity=0 time=0
note_on channel=0 note=74 velocity=0 time=0
note_on channel=0 note=59 velocity=0 time=0
note_on channel=0 note=66 velocity=44 time=0
note_on channel=0 note=72 velocity=52 time=0
note_on channel=0 note=50 velocity=33 time=0
note_on channel=0 note=60 velocity=39 time=0
note_on channel=0 note=57 velocity=33 time=0
control_change channel=0 control=64 value=0 time=3
control_change channel=0 control=64 value=127 time=68
note_on channel=0 note=57 velocity=0 time=0
note_on channel=0 note=50 velocity=0 time=0
note_on channel=0 note=66 velocity=0 time=0
note_on channel=0 note=72 velocity=0 time=0
note_on channel=0 note=60 velocity=0 time=0
note_on channel=0 note=67 velocity=40 time=0
note_on channel=0 note=71 velocity=47 time=0
note_on channel=0 note=59 velocity=34 time=0
note_on channel=0 note=55 velocity=28 time=0
note_on channel=0 note=55 velocity=0 time=0
note_on channel=0 note=67 velocity=0 time=0
note_on channel=0 note=71 velocity=0 time=0
note_on channel=0 note=59 velocity=0 time=0
note_on channel=0 note=67 velocity=43 time=0
note_on channel=0 note=71 velocity=51 time=0
note_on channel=0 note=55 velocity=36 time=0
note_on channel=0 note=59 velocity=42 time=0
control_change channel=0 control=64 value=0 time=0
control_change channel=0 control=64 value=127 time=74
note_on channel=0 note=59 velocity=0 time=7
note_on channel=0 note=64 velocity=37 time=0
note_on channel=0 note=62 velocity=37 time=79
note_on channel=0 note=64 velocity=0 time=1
note_on channel=0 note=67 velocity=0 time=0
note_on channel=0 note=71 velocity=0 time=0
note_on channel=0 note=62 velocity=0 time=0
note_on channel=0 note=61 velocity=42 time=0
control_change channel=0 control=64 value=0 time=8
control_change channel=0 control=64 value=127 time=38
note_on channel=0 note=64 velocity=38 time=34
note_on channel=0 note=61 velocity=0 time=1
note_on channel=0 note=64 velocity=0 time=79
note_on channel=0 note=62 velocity=38 time=0
note_on channel=0 note=62 velocity=0 time=60
note_on channel=0 note=43 velocity=58 time=20
note_on channel=0 note=59 velocity=42 time=0
control_change channel=0 control=64 value=0 time=4
control_change channel=0 control=64 value=127 time=56
note_on channel=0 note=59 velocity=0 time=21
note_on channel=0 note=64 velocity=37 time=0
note_on channel=0 note=62 velocity=37 time=40
note_on channel=0 note=64 velocity=0 time=1
note_on channel=0 note=62 velocity=0 time=59
note_on channel=0 note=61 velocity=42 time=0
control_change channel=0 control=64 value=0 time=3
control_change channel=0 control=64 value=127 time=54
note_on channel=0 note=64 velocity=37 time=23
note_on channel=0 note=61 velocity=0 time=1
note_on channel=0 note=64 velocity=0 time=79
note_on channel=0 note=62 velocity=37 time=0
note_on channel=0 note=62 velocity=0 time=60
note_on channel=0 note=43 velocity=0 time=15
note_on channel=0 note=43 velocity=58 time=5
note_on channel=0 note=59 velocity=42 time=0
control_change channel=0 control=64 value=0 time=10
control_change channel=0 control=64 value=127 time=50
note_on channel=0 note=59 velocity=0 time=21
note_on channel=0 note=64 velocity=38 time=0
note_on channel=0 note=62 velocity=38 time=79
note_on channel=0 note=64 velocity=0 time=1
note_on channel=0 note=62 velocity=0 time=59
note_on channel=0 note=43 velocity=0 time=18
note_on channel=0 note=55 velocity=0 time=0
note_on channel=0 note=43 velocity=56 time=0
note_on channel=0 note=55 velocity=36 time=0
note_on channel=0 note=59 velocity=42 time=0
control_change channel=0 control=64 value=0 time=9
control_change channel=0 control=64 value=127 time=65
note_on channel=0 note=43 velocity=0 time=6
note_on channel=0 note=42 velocity=50 time=0
note_on channel=0 note=63 velocity=38 time=0
note_on channel=0 note=59 velocity=0 time=1
note_on channel=0 note=63 velocity=0 time=40
note_on channel=0 note=42 velocity=0 time=0
note_on channel=0 note=43 velocity=50 time=0
note_on channel=0 note=62 velocity=38 time=0
note_on channel=0 note=62 velocity=0 time=60
note_on channel=0 note=43 velocity=0 time=0
note_on channel=0 note=55 velocity=0 time=0
note_on channel=0 note=38 velocity=52 time=0
note_on channel=0 note=54 velocity=36 time=0
note_on channel=0 note=57 velocity=42 time=0
control_change channel=0 control=64 value=0 time=0
control_change channel=0 control=64 value=127 time=74
note_on channel=0 note=64 velocity=37 time=6
note_on channel=0 note=57 velocity=0 time=1
note_on channel=0 note=64 velocity=0 time=79
note_on channel=0 note=62 velocity=37 time=0
note_on channel=0 note=62 velocity=0 time=60
note_on channel=0 note=54 velocity=0 time=0
note_on channel=0 note=55 velocity=36 time=0
note_on channel=0 note=59 velocity=42 time=0
control_change channel=0 control=64 value=0 time=8
control_change channel=0 control=64 value=127 time=38
note_on channel=0 note=64 velocity=38 time=34
note_on channel=0 note=59 velocity=0 time=1
note_on channel=0 note=64 velocity=0 time=79
note_on channel=0 note=62 velocity=38 time=0
note_on channel=0 note=62 velocity=0 time=60
note_on channel=0 note=38 velocity=0 time=15
note_on channel=0 note=55 velocity=0 time=0
note_on channel=0 note=38 velocity=52 time=0
note_on channel=0 note=57 velocity=38 time=0
note_on channel=0 note=60 velocity=46 time=0
control_change channel=0 control=64 value=0 time=4
control_change channel=0 control=64 value=127 time=56
note_on channel=0 note=64 velocity=40 time=20
note_on channel=0 note=60 velocity=0 time=1
note_on channel=0 note=64 velocity=0 time=40
note_on channel=0 note=62 velocity=40 time=0
note_on channel=0 note=62 velocity=0 time=60
note_on channel=0 note=57 velocity=0 time=0
note_on channel=0 note=57 velocity=38 time=0
note_on channel=0 note=60 velocity=45 time=0
control_change channel=0 control=64 value=0 time=3
control_change channel=0 control=64 value=127 time=54
note_on channel=0 note=64 velocity=38 time=23
note_on channel=0 note=60 velocity=0 time=1
note_on channel=0 note=64 velocity=0 time=40
note_on channel=0 note=62 velocity=38 time=0
note_on channel=0 note=62 velocity=0 time=60
note_on channel=0 note=38 velocity=0 time=15
note_on channel=0 note=57 velocity=0 time=0
note_on channel=0 note=38 velocity=52 time=0
note_on channel=0 note=55 velocity=36 time=0
note_on channel=0 note=59 velocity=42 time=0
control_change channel=0 control=64 value=0 time=10
control_change channel=0 control=64 value=127 time=50
note_on channel=0 note=64 velocity=36 time=20
note_on channel=0 note=59 velocity=0 time=1
note_on channel=0 note=64 velocity=0 time=79
note_on channel=0 note=62 velocity=36 time=0
note_on channel=0 note=62 velocity=0 time=60
note_on channel=0 note=55 velocity=0 time=20
note_on channel=0 note=54 velocity=35 time=0
note_on channel=0 note=58 velocity=41 time=0
control_change channel=0 control=64 value=0 time=9
control_change channel=0 control=64 value=127 time=65
note_on channel=0 note=58 velocity=0 time=6
note_on channel=0 note=64 velocity=38 time=0
note_on channel=0 note=64 velocity=0 time=40
note_on channel=0 note=62 velocity=38 time=0
note_on channel=0 note=62 velocity=0 time=60
note_on channel=0 note=54 velocity=0 time=0
note_on channel=0 note=38 velocity=0 time=0
note_on channel=0 note=35 velocity=48 time=0
note_on channel=0 note=55 velocity=36 time=0
note_on channel=0 note=59 velocity=42 time=0
control_change channel=0 control=64 value=0 time=0
control_change channel=0 control=64 value=127 time=49
note_on channel=0 note=59 velocity=0 time=32
note_on channel=0 note=64 velocity=37 time=0
note_on channel=0 note=62 velocity=37 time=79
note_on channel=0 note=64 velocity=0 time=1
note_on channel=0 note=62 velocity=0 time=0
note_on channel=0 note=35 velocity=0 time=0
note_on channel=0 note=61 velocity=43 time=0
control_change channel=0 control=64 value=0 time=8
control_change channel=0 control=64 value=127 time=38
note_on channel=0 note=64 velocity=38 time=34
note_on channel=0 note=61 velocity=0 time=1
note_on channel=0 note=64 velocity=0 time=40
note_on channel=0 note=62 velocity=39 time=0
note_on channel=0 note=62 velocity=0 time=60
note_on channel=0 note=91 velocity=67 time=0
note_on channel=0 note=79 velocity=59 time=0
note_on channel=0 note=59 velocity=44 time=0
control_change channel=0 control=64 value=0 time=4
control_change channel=0 control=64 value=127 time=56
note_on channel=0 note=59 velocity=0 time=21
note_on channel=0 note=64 velocity=38 time=0
note_on channel=0 note=62 velocity=39 time=79
note_on channel=0 note=64 velocity=0 time=1
note_on channel=0 note=62 velocity=0 time=59
note_on channel=0 note=61 velocity=46 time=0
control_change channel=0 control=64 value=0 time=3
control_change channel=0 control=64 value=127 time=54
note_on channel=0 note=64 velocity=39 time=23
note_on channel=0 note=61 velocity=0 time=1
note_on channel=0 note=64 velocity=0 time=79
note_on channel=0 note=62 velocity=40 time=0
note_on channel=0 note=62 velocity=0 time=60
note_on channel=0 note=79 velocity=0 time=15
note_on channel=0 note=91 velocity=0 time=0
note_on channel=0 note=79 velocity=59 time=5
note_on channel=0 note=91 velocity=67 time=0
note_on channel=0 note=59 velocity=47 time=0
control_change channel=0 control=64 value=0 time=10
control_change channel=0 control=64 value=127 time=50
note_on channel=0 note=59 velocity=0 time=21
note_on channel=0 note=64 velocity=42 time=0
note_on channel=0 note=62 velocity=42 time=79
note_on channel=0 note=64 velocity=0 time=1
note_on channel=0 note=62 velocity=0 time=59
note_on channel=0 note=91 velocity=0 time=18
note_on channel=0 note=79 velocity=0 time=0
note_on channel=0 note=55 velocity=0 time=0
note_on channel=0 note=91 velocity=65 time=0
note_on channel=0 note=79 velocity=57 time=0
note_on channel=0 note=55 velocity=40 time=0
note_on channel=0 note=59 velocity=48 time=0
control_change channel=0 control=64 value=0 time=9
control_change channel=0 control=64 value=127 time=65
note_on channel=0 note=78 velocity=51 time=6
note_on channel=0 note=90 velocity=58 time=0
note_on channel=0 note=63 velocity=43 time=0
note_on channel=0 note=59 velocity=0 time=1
note_on channel=0 note=79 velocity=0 time=0
note_on channel=0 note=91 velocity=0 time=0
note_on channel=0 note=78 velocity=0 time=40
note_on channel=0 note=90 velocity=0 time=0
note_on channel=0 note=63 velocity=0 time=0
note_on channel=0 note=79 velocity=46 time=0
note_on channel=0 note=91 velocity=55 time=0
note_on channel=0 note=62 velocity=43 time=0
note_on channel=0 note=62 velocity=0 time=60
note_on channel=0 note=91 velocity=0 time=0
note_on channel=0 note=79 velocity=0 time=0
note_on channel=0 note=55 velocity=0 time=0
note_on channel=0 note=86 velocity=67 time=0
note_on channel=0 note=74 velocity=59 time=0
note_on channel=0 note=54 velocity=41 time=0
note_on channel=0 note=57 velocity=50 time=0
control_change channel=0 control=64 value=0 time=0
control_change channel=0 control=64 value=127 time=46
note_on channel=0 note=64 velocity=43 time=34
note_on channel=0 note=57 velocity=0 time=1
note_on channel=0 note=64 velocity=0 time=79
note_on channel=0 note=62 velocity=43 time=0
note_on channel=0 note=62 velocity=0 time=60
note_on channel=0 note=54 velocity=0 time=0
note_on channel=0 note=55 velocity=42 time=0
note_on channel=0 note=59 velocity=51 time=0
control_change channel=0 control=64 value=0 time=8
control_change channel=0 control=64 value=127 time=38
note_on channel=0 note=64 velocity=45 time=34
note_on channel=0 note=59 velocity=0 time=1
note_on channel=0 note=64 velocity=0 time=79
note_on channel=0 note=62 velocity=46 time=0
note_on channel=0 note=62 velocity=0 time=60
note_on channel=0 note=74 velocity=0 time=15
note_on channel=0 note=86 velocity=0 time=0
note_on channel=0 note=55 velocity=0 time=0
note_on channel=0 note=74 velocity=62 time=0
note_on channel=0 note=86 velocity=70 time=0
note_on channel=0 note=57 velocity=47 time=0
note_on channel=0 note=60 velocity=57 time=0
control_change channel=0 control=64 value=0 time=4
control_change channel=0 control=64 value=127 time=56
note_on channel=0 note=64 velocity=50 time=20
note_on channel=0 note=60 velocity=0 time=1
note_on channel=0 note=64 velocity=0 time=40
note_on channel=0 note=62 velocity=51 time=0
note_on channel=0 note=62 velocity=0 time=60
note_on channel=0 note=57 velocity=0 time=0
note_on channel=0 note=57 velocity=47 time=0
note_on channel=0 note=60 velocity=57 time=0
control_change channel=0 control=64 value=0 time=3
control_change channel=0 control=64 value=127 time=54
note_on channel=0 note=64 velocity=48 time=23
note_on channel=0 note=60 velocity=0 time=1
note_on channel=0 note=64 velocity=0 time=40
note_on channel=0 note=62 velocity=48 time=0
note_on channel=0 note=62 velocity=0 time=60
note_on channel=0 note=86 velocity=0 time=15
note_on channel=0 note=74 velocity=0 time=0
note_on channel=0 note=57 velocity=0 time=0
note_on channel=0 note=74 velocity=63 time=0
note_on channel=0 note=86 velocity=72 time=0
note_on channel=0 note=55 velocity=46 time=0
note_on channel=0 note=59 velocity=55 time=0
control_change channel=0 control=64 value=0 time=10
control_change channel=0 control=64 value=127 time=50
note_on channel=0 note=64 velocity=46 time=20
note_on channel=0 note=59 velocity=0 time=1
note_on channel=0 note=64 velocity=0 time=79
note_on channel=0 note=62 velocity=47 time=0
note_on channel=0 note=62 velocity=0 time=60
note_on channel=0 note=55 velocity=0 time=0
note_on channel=0 note=54 velocity=46 time=0
note_on channel=0 note=58 velocity=55 time=0
control_change channel=0 control=64 value=0 time=9
control_change channel=0 control=64 value=127 time=65
note_on channel=0 note=58 velocity=0 time=6
note_on channel=0 note=64 velocity=50 time=0
note_on channel=0 note=64 velocity=0 time=40
note_on channel=0 note=62 velocity=38 time=0
note_on channel=0 note=62 velocity=0 time=60
note_on channel=0 note=74 velocity=0 time=15
note_on channel=0 note=86 velocity=0 time=0
note_on channel=0 note=54 velocity=0 time=0
note_on channel=0 note=86 velocity=73 time=0
note_on channel=0 note=74 velocity=64 time=0
note_on channel=0 note=54 velocity=45 time=0
note_on channel=0 note=58 velocity=55 time=0
control_change channel=0 control=64 value=0 time=0
control_change channel=0 control=64 value=127 time=46
note_on channel=0 note=58 velocity=0 time=34
note_on channel=0 note=64 velocity=50 time=0
note_on channel=0 note=64 velocity=0 time=80
note_on channel=0 note=62 velocity=51 time=0
note_on channel=0 note=62 velocity=0 time=60
note_on channel=0 note=54 velocity=0 time=0
note_on channel=0 note=55 velocity=50 time=0
note_on channel=0 note=59 velocity=60 time=0
control_change channel=0 control=64 value=0 time=8
control_change channel=0 control=64 value=127 time=38
note_on channel=0 note=64 velocity=54 time=34
note_on channel=0 note=59 velocity=0 time=1
note_on channel=0 note=64 velocity=0 time=79
note_on channel=0 note=62 velocity=55 time=0
note_on channel=0 note=62 velocity=0 time=60
note_on channel=0 note=74 velocity=0 time=15
note_on channel=0 note=86 velocity=0 time=0
note_on channel=0 note=55 velocity=0 time=0
note_on channel=0 note=74 velocity=71 time=0
note_on channel=0 note=86 velocity=80 time=0
note_on channel=0 note=56 velocity=57 time=0
note_on channel=0 note=59 velocity=69 time=0
control_change channel=0 control=64 value=0 time=4
control_change channel=0 control=64 value=127 time=56
note_on channel=0 note=64 velocity=61 time=20
note_on channel=0 note=59 velocity=0 time=1
note_on channel=0 note=64 velocity=0 time=40
note_on channel=0 note=62 velocity=63 time=0
note_on channel=0 note=62 velocity=0 time=60
note_on channel=0 note=56 velocity=0 time=0
note_on channel=0 note=56 velocity=59 time=0
note_on channel=0 note=59 velocity=70 time=0
control_change channel=0 control=64 value=0 time=3
control_change channel=0 control=64 value=127 time=54
note_on channel=0 note=59 velocity=0 time=23
note_on channel=0 note=64 velocity=60 time=0
note_on channel=0 note=64 velocity=0 time=40
note_on channel=0 note=62 velocity=61 time=0
note_on channel=0 note=62 velocity=0 time=60
note_on channel=0 note=74 velocity=0 time=15
note_on channel=0 note=86 velocity=0 time=0
note_on channel=0 note=56 velocity=0 time=0
note_on channel=0 note=74 velocity=75 time=0
note_on channel=0 note=86 velocity=84 time=0
note_on channel=0 note=56 velocity=54 time=0
note_on channel=0 note=59 velocity=60 time=0
control_change channel=0 control=64 value=0 time=10
control_change channel=0 control=64 value=127 time=50
note_on channel=0 note=65 velocity=54 time=20
note_on channel=0 note=59 velocity=0 time=1
note_on channel=0 note=65 velocity=0 time=79
note_on channel=0 note=62 velocity=55 time=0
note_on channel=0 note=62 velocity=0 time=60
note_on channel=0 note=56 velocity=0 time=0
note_on channel=0 note=56 velocity=53 time=0
note_on channel=0 note=59 velocity=63 time=0
control_change channel=0 control=64 value=0 time=9
control_change channel=0 control=64 value=127 time=65
note_on channel=0 note=86 velocity=0 time=6
note_on channel=0 note=74 velocity=0 time=0
note_on channel=0 note=73 velocity=63 time=0
note_on channel=0 note=85 velocity=72 time=0
note_on channel=0 note=65 velocity=57 time=0
note_on channel=0 note=59 velocity=0 time=1
note_on channel=0 note=85 velocity=0 time=40
note_on channel=0 note=65 velocity=0 time=0
note_on channel=0 note=73 velocity=0 time=0
note_on channel=0 note=74 velocity=64 time=0
note_on channel=0 note=86 velocity=73 time=0
note_on channel=0 note=62 velocity=57 time=0
note_on channel=0 note=62 velocity=0 time=40
note_on channel=0 note=86 velocity=0 time=18
note_on channel=0 note=74 velocity=0 time=0
note_on channel=0 note=56 velocity=0 time=0
note_on channel=0 note=78 velocity=74 time=0
note_on channel=0 note=86 velocity=85 time=0
note_on channel=0 note=74 velocity=74 time=0
note_on channel=0 note=57 velocity=55 time=0
note_on channel=0 note=62 velocity=67 time=0
control_change channel=0 control=64 value=0 time=0
control_change channel=0 control=64 value=127 time=46
note_on channel=0 note=62 velocity=0 time=34
note_on channel=0 note=66 velocity=58 time=0
note_on channel=0 note=66 velocity=0 time=80
note_on channel=0 note=64 velocity=59 time=0
note_on channel=0 note=64 velocity=0 time=60
note_on channel=0 note=57 velocity=0 time=0
note_on channel=0 note=58 velocity=58 time=0
note_on channel=0 note=62 velocity=70 time=0
control_change channel=0 control=64 value=0 time=8
control_change channel=0 control=64 value=127 time=38
note_on channel=0 note=66 velocity=62 time=34
note_on channel=0 note=62 velocity=0 time=1
note_on channel=0 note=66 velocity=0 time=79
note_on channel=0 note=64 velocity=64 time=0
note_on channel=0 note=64 velocity=0 time=60
note_on channel=0 note=78 velocity=0 time=15
note_on channel=0 note=74 velocity=0 time=0
note_on channel=0 note=86 velocity=0 time=0
note_on channel=0 note=58 velocity=0 time=0
note_on channel=0 note=78 velocity=82 time=0
note_on channel=0 note=74 velocity=82 time=0
note_on channel=0 note=86 velocity=93 time=0
note_on channel=0 note=59 velocity=66 time=0
note_on channel=0 note=62 velocity=79 time=0
control_change channel=0 control=64 value=0 time=4
control_change channel=0 control=64 value=127 time=56
note_on channel=0 note=66 velocity=71 time=20
note_on channel=0 note=62 velocity=0 time=1
note_on channel=0 note=66 velocity=0 time=40
note_on channel=0 note=64 velocity=72 time=0
note_on channel=0 note=64 velocity=0 time=60
note_on channel=0 note=59 velocity=0 time=0
note_on channel=0 note=59 velocity=68 time=0
note_on channel=0 note=62 velocity=81 time=0
control_change channel=0 control=64 value=0 time=3
control_change channel=0 control=64 value=127 time=54
note_on channel=0 note=62 velocity=0 time=23
note_on channel=0 note=66 velocity=69 time=0
note_on channel=0 note=66 velocity=0 time=40
note_on channel=0 note=64 velocity=70 time=0
note_on channel=0 note=64 velocity=0 time=60
note_on channel=0 note=86 velocity=0 time=15
note_on channel=0 note=78 velocity=0 time=0
note_on channel=0 note=74 velocity=0 time=0
note_on channel=0 note=59 velocity=0 time=0
note_on channel=0 note=78 velocity=86 time=0
note_on channel=0 note=90 velocity=97 time=0
note_on channel=0 note=59 velocity=62 time=0
note_on channel=0 note=62 velocity=69 time=0
control_change channel=0 control=64 value=0 time=10
control_change channel=0 control=64 value=127 time=50
note_on channel=0 note=66 velocity=63 time=20
note_on channel=0 note=62 velocity=0 time=1
note_on channel=0 note=66 velocity=0 time=79
note_on channel=0 note=64 velocity=63 time=0
note_on channel=0 note=64 velocity=0 time=60
note_on channel=0 note=59 velocity=0 time=0
note_on channel=0 note=59 velocity=61 time=0
note_on channel=0 note=62 velocity=72 time=0
control_change channel=0 control=64 value=0 time=9
control_change channel=0 control=64 value=127 time=65
note_on channel=0 note=90 velocity=0 time=6
note_on channel=0 note=78 velocity=0 time=0
note_on channel=0 note=77 velocity=72 time=0
note_on channel=0 note=89 velocity=82 time=0
note_on channel=0 note=65 velocity=65 time=0
note_on channel=0 note=62 velocity=0 time=1
note_on channel=0 note=89 velocity=0 time=40
note_on channel=0 note=65 velocity=0 time=0
note_on channel=0 note=77 velocity=0 time=0
note_on channel=0 note=78 velocity=73 time=0
note_on channel=0 note=90 velocity=83 time=0
note_on channel=0 note=66 velocity=66 time=0
note_on channel=0 note=66 velocity=0 time=40
note_on channel=0 note=90 velocity=0 time=18
note_on channel=0 note=78 velocity=0 time=0
note_on channel=0 note=59 velocity=0 time=0
note_on channel=0 note=78 velocity=85 time=0
note_on channel=0 note=90 velocity=97 time=0
note_on channel=0 note=59 velocity=63 time=0
note_on channel=0 note=62 velocity=76 time=0
control_change channel=0 control=64 value=0 time=0
control_change channel=0 control=64 value=127 time=46
note_on channel=0 note=62 velocity=0 time=34
note_on channel=0 note=67 velocity=66 time=0
note_on channel=0 note=67 velocity=0 time=80
note_on channel=0 note=66 velocity=67 time=0
note_on channel=0 note=66 velocity=0 time=60
note_on channel=0 note=59 velocity=0 time=0
note_on channel=0 note=60 velocity=66 time=0
note_on channel=0 note=63 velocity=79 time=0
control_change channel=0 control=64 value=0 time=8
control_change channel=0 control=64 value=127 time=38
note_on channel=0 note=63 velocity=0 time=34
note_on channel=0 note=68 velocity=71 time=0
note_on channel=0 note=68 velocity=0 time=80
note_on channel=0 note=66 velocity=73 time=0
note_on channel=0 note=66 velocity=0 time=60
note_on channel=0 note=78 velocity=0 time=15
note_on channel=0 note=90 velocity=0 time=0
note_on channel=0 note=60 velocity=0 time=0
note_on channel=0 note=78 velocity=103 time=0
note_on channel=0 note=90 velocity=103 time=0
note_on channel=0 note=60 velocity=71 time=0
note_on channel=0 note=63 velocity=84 time=0
control_change channel=0 control=64 value=0 time=4
control_change channel=0 control=64 value=127 time=56
note_on channel=0 note=63 velocity=0 time=20
note_on channel=0 note=69 velocity=72 time=0
note_on channel=0 note=69 velocity=0 time=40
note_on channel=0 note=66 velocity=72 time=0
note_on channel=0 note=66 velocity=0 time=60
note_on channel=0 note=60 velocity=0 time=0
note_on channel=0 note=48 velocity=73 time=0
note_on channel=0 note=51 velocity=86 time=0
control_change channel=0 control=64 value=0 time=3
control_change channel=0 control=64 value=127 time=54
note_on channel=0 note=51 velocity=0 time=23
note_on channel=0 note=57 velocity=74 time=0
note_on channel=0 note=78 velocity=0 time=0
note_on channel=0 note=90 velocity=0 time=0
note_on channel=0 note=57 velocity=0 time=40
note_on channel=0 note=54 velocity=74 time=0
note_on channel=0 note=54 velocity=0 time=60
note_on channel=0 note=48 velocity=0 time=0
note_on channel=0 note=78 velocity=103 time=0
note_on channel=0 note=90 velocity=103 time=0
note_on channel=0 note=60 velocity=69 time=0
note_on channel=0 note=63 velocity=82 time=0
control_change channel=0 control=64 value=0 time=10
control_change channel=0 control=64 value=127 time=50
note_on channel=0 note=63 velocity=0 time=20
note_on channel=0 note=69 velocity=73 time=0
note_on channel=0 note=69 velocity=0 time=80
note_on channel=0 note=66 velocity=73 time=0
note_on channel=0 note=66 velocity=0 time=60
note_on channel=0 note=60 velocity=0 time=0
note_on channel=0 note=48 velocity=71 time=0
note_on channel=0 note=51 velocity=84 time=0
control_change channel=0 control=64 value=0 time=9
control_change channel=0 control=64 value=127 time=65
note_on channel=0 note=51 velocity=0 time=6
note_on channel=0 note=57 velocity=76 time=0
note_on channel=0 note=78 velocity=0 time=0
note_on channel=0 note=90 velocity=0 time=0
note_on channel=0 note=57 velocity=0 time=40
note_on channel=0 note=54 velocity=76 time=0
note_on channel=0 note=54 velocity=0 time=40
note_on channel=0 note=48 velocity=0 time=0
note_on channel=0 note=90 velocity=102 time=0
note_on channel=0 note=78 velocity=102 time=0
note_on channel=0 note=60 velocity=81 time=0
note_on channel=0 note=60 velocity=0 time=36
note_on channel=0 note=69 velocity=74 time=24
note_on channel=0 note=78 velocity=0 time=59
note_on channel=0 note=90 velocity=0 time=0
note_on channel=0 note=69 velocity=0 time=1
note_on channel=0 note=90 velocity=102 time=0
note_on channel=0 note=66 velocity=74 time=0
note_on channel=0 note=63 velocity=62 time=0
note_on channel=0 note=63 velocity=0 time=60
note_on channel=0 note=66 velocity=0 time=0
note_on channel=0 note=69 velocity=74 time=0
note_on channel=0 note=69 velocity=0 time=60
note_on channel=0 note=48 velocity=81 time=0
note_on channel=0 note=48 velocity=0 time=36
note_on channel=0 note=57 velocity=75 time=24
note_on channel=0 note=90 velocity=0 time=58
note_on channel=0 note=57 velocity=0 time=2
note_on channel=0 note=90 velocity=103 time=0
note_on channel=0 note=51 velocity=63 time=0
note_on channel=0 note=54 velocity=75 time=0
note_on channel=0 note=54 velocity=0 time=60
note_on channel=0 note=51 velocity=0 time=0
note_on channel=0 note=57 velocity=75 time=0
note_on channel=0 note=57 velocity=0 time=0
note_on channel=0 note=60 velocity=81 time=0
note_on channel=0 note=60 velocity=0 time=36
note_on channel=0 note=69 velocity=74 time=24
note_on channel=0 note=90 velocity=0 time=58
note_on channel=0 note=69 velocity=0 time=2
note_on channel=0 note=90 velocity=104 time=0
note_on channel=0 note=66 velocity=74 time=0
note_on channel=0 note=63 velocity=62 time=0
note_on channel=0 note=63 velocity=0 time=60
note_on channel=0 note=66 velocity=0 time=0
note_on channel=0 note=69 velocity=74 time=0
note_on channel=0 note=69 velocity=0 time=0
note_on channel=0 note=48 velocity=81 time=0
note_on channel=0 note=48 velocity=0 time=24
note_on channel=0 note=57 velocity=73 time=16
note_on channel=0 note=57 velocity=0 time=40
note_on channel=0 note=51 velocity=73 time=0
note_on channel=0 note=54 velocity=73 time=1
note_on channel=0 note=90 velocity=0 time=37
note_on channel=0 note=51 velocity=0 time=2
note_on channel=0 note=90 velocity=106 time=0
note_on channel=0 note=54 velocity=0 time=1
note_on channel=0 note=57 velocity=73 time=0
note_on channel=0 note=51 velocity=62 time=39
note_on channel=0 note=54 velocity=73 time=0
note_on channel=0 note=57 velocity=0 time=1
note_on channel=0 note=54 velocity=0 time=39
note_on channel=0 note=51 velocity=0 time=0
note_on channel=0 note=57 velocity=73 time=0
note_on channel=0 note=57 velocity=0 time=0
note_on channel=0 note=60 velocity=81 time=0
note_on channel=0 note=60 velocity=0 time=24
note_on channel=0 note=69 velocity=73 time=16
note_on channel=0 note=69 velocity=0 time=40
note_on channel=0 note=63 velocity=73 time=0
note_on channel=0 note=66 velocity=73 time=1
note_on channel=0 note=90 velocity=0 time=37
note_on channel=0 note=63 velocity=0 time=2
note_on channel=0 note=90 velocity=107 time=0
note_on channel=0 note=66 velocity=0 time=1
note_on channel=0 note=69 velocity=73 time=0
note_on channel=0 note=63 velocity=62 time=39
note_on channel=0 note=66 velocity=73 time=0
note_on channel=0 note=69 velocity=0 time=1
note_on channel=0 note=66 velocity=0 time=39
note_on channel=0 note=63 velocity=0 time=0
note_on channel=0 note=69 velocity=73 time=0
note_on channel=0 note=69 velocity=0 time=0
note_on channel=0 note=48 velocity=81 time=0
note_on channel=0 note=48 velocity=0 time=24
note_on channel=0 note=57 velocity=74 time=16
note_on channel=0 note=57 velocity=0 time=40
note_on channel=0 note=51 velocity=74 time=0
note_on channel=0 note=54 velocity=74 time=1
note_on channel=0 note=90 velocity=0 time=37
note_on channel=0 note=51 velocity=0 time=2
note_on channel=0 note=90 velocity=108 time=0
note_on channel=0 note=54 velocity=0 time=1
note_on channel=0 note=57 velocity=74 time=0
note_on channel=0 note=51 velocity=62 time=39
note_on channel=0 note=54 velocity=74 time=0
note_on channel=0 note=57 velocity=0 time=1
note_on channel=0 note=54 velocity=0 time=20
note_on channel=0 note=51 velocity=0 time=0
note_on channel=0 note=57 velocity=74 time=0
note_on channel=0 note=57 velocity=0 time=0
note_on channel=0 note=90 velocity=0 time=0
note_on channel=0 note=73 velocity=48 time=0
note_on channel=0 note=61 velocity=38 time=0
control_change channel=0 control=64 value=0 time=0
control_change channel=0 control=64 value=0 time=0
control_change channel=0 control=64 value=127 time=108
note_on channel=0 note=61 velocity=0 time=0
note_on channel=0 note=73 velocity=0 time=0
note_on channel=0 note=69 velocity=42 time=0
note_on channel=0 note=57 velocity=33 time=0
control_change channel=0 control=64 value=0 time=182
note_on channel=0 note=57 velocity=0 time=56
note_on channel=0 note=69 velocity=0 time=0
note_on channel=0 note=69 velocity=47 time=0
note_on channel=0 note=57 velocity=35 time=0
control_change channel=0 control=64 value=127 time=33
note_on channel=0 note=57 velocity=0 time=0
note_on channel=0 note=69 velocity=0 time=0
note_on channel=0 note=66 velocity=41 time=0
note_on channel=0 note=54 velocity=31 time=0
control_change channel=0 control=64 value=0 time=191
note_on channel=0 note=54 velocity=0 time=0
note_on channel=0 note=66 velocity=0 time=0
note_on channel=0 note=65 velocity=34 time=0
note_on channel=0 note=68 velocity=41 time=0
note_on channel=0 note=61 velocity=34 time=0
note_on channel=0 note=49 velocity=26 time=0
note_on channel=0 note=56 velocity=31 time=0
control_change channel=0 control=64 value=127 time=58
note_on channel=0 note=56 velocity=0 time=0
note_on channel=0 note=61 velocity=0 time=0
note_on channel=0 note=65 velocity=0 time=0
note_on channel=0 note=68 velocity=0 time=0
note_on channel=0 note=49 velocity=0 time=0
note_on channel=0 note=57 velocity=42 time=0
note_on channel=0 note=66 velocity=42 time=0
note_on channel=0 note=69 velocity=50 time=0
note_on channel=0 note=61 velocity=42 time=0
note_on channel=0 note=42 velocity=28 time=0
note_on channel=0 note=54 velocity=34 time=0
control_change channel=0 control=64 value=0 time=6
control_change channel=0 control=64 value=127 time=181
note_on channel=0 note=54 velocity=0 time=293
note_on channel=0 note=66 velocity=0 time=0
note_on channel=0 note=69 velocity=0 time=0
note_on channel=0 note=57 velocity=0 time=0
note_on channel=0 note=42 velocity=0 time=0
note_on channel=0 note=61 velocity=0 time=0
note_on channel=0 note=58 velocity=47 time=0
note_on channel=0 note=61 velocity=47 time=0
note_on channel=0 note=66 velocity=47 time=0
note_on channel=0 note=70 velocity=56 time=0
note_on channel=0 note=42 velocity=35 time=0
note_on channel=0 note=54 velocity=41 time=0
control_change channel=0 control=64 value=0 time=12
control_change channel=0 control=64 value=127 time=114
note_on channel=0 note=54 velocity=0 time=114
note_on channel=0 note=61 velocity=0 time=0
note_on channel=0 note=66 velocity=0 time=0
note_on channel=0 note=58 velocity=0 time=0
note_on channel=0 note=42 velocity=0 time=0
note_on channel=0 note=70 velocity=0 time=0
note_on channel=0 note=62 velocity=51 time=0
note_on channel=0 note=59 velocity=51 time=0
note_on channel=0 note=71 velocity=61 time=0
note_on channel=0 note=66 velocity=51 time=0
note_on channel=0 note=35 velocity=36 time=0
note_on channel=0 note=47 velocity=43 time=0
control_change channel=0 control=64 value=0 time=12
control_change channel=0 control=64 value=127 time=188
note_on channel=0 note=47 velocity=0 time=0
note_on channel=0 note=59 velocity=0 time=0
note_on channel=0 note=71 velocity=0 time=0
note_on channel=0 note=62 velocity=0 time=0
note_on channel=0 note=35 velocity=0 time=0
note_on channel=0 note=66 velocity=0 time=0
note_on channel=0 note=71 velocity=55 time=0
note_on channel=0 note=66 velocity=55 time=0
note_on channel=0 note=62 velocity=55 time=0
note_on channel=0 note=74 velocity=66 time=0
note_on channel=0 note=35 velocity=41 time=0
note_on channel=0 note=47 velocity=49 time=0
note_on channel=0 note=47 velocity=0 time=0
note_on channel=0 note=66 velocity=0 time=0
note_on channel=0 note=62 velocity=0 time=0
note_on channel=0 note=71 velocity=0 time=0
note_on channel=0 note=35 velocity=0 time=0
note_on channel=0 note=74 velocity=0 time=0
note_on channel=0 note=71 velocity=67 time=0
note_on channel=0 note=62 velocity=67 time=0
note_on channel=0 note=74 velocity=79 time=0
note_on channel=0 note=65 velocity=67 time=0
note_on channel=0 note=32 velocity=47 time=0
note_on channel=0 note=44 velocity=58 time=0
control_change channel=0 control=64 value=0 time=0
control_change channel=0 control=64 value=127 time=133
note_on channel=0 note=44 velocity=0 time=0
note_on channel=0 note=62 velocity=0 time=0
note_on channel=0 note=74 velocity=0 time=0
note_on channel=0 note=71 velocity=0 time=0
note_on channel=0 note=32 velocity=0 time=0
note_on channel=0 note=65 velocity=0 time=0
note_on channel=0 note=69 velocity=55 time=0
note_on channel=0 note=66 velocity=55 time=0
note_on channel=0 note=73 velocity=65 time=0
note_on channel=0 note=61 velocity=55 time=0
note_on channel=0 note=33 velocity=40 time=0
note_on channel=0 note=45 velocity=47 time=0
control_change channel=0 control=64 value=0 time=12
control_change channel=0 control=64 value=127 time=88
note_on channel=0 note=45 velocity=0 time=138
note_on channel=0 note=66 velocity=0 time=0
note_on channel=0 note=73 velocity=0 time=0
note_on channel=0 note=69 velocity=0 time=0
note_on channel=0 note=33 velocity=0 time=0
note_on channel=0 note=61 velocity=0 time=0
note_on channel=0 note=69 velocity=63 time=2
note_on channel=0 note=66 velocity=63 time=0
note_on channel=0 note=73 velocity=76 time=0
note_on channel=0 note=61 velocity=63 time=0
note_on channel=0 note=33 velocity=46 time=0
note_on channel=0 note=45 velocity=57 time=0
control_change channel=0 control=64 value=0 time=14
control_change channel=0 control=64 value=127 time=86
note_on channel=0 note=45 velocity=0 time=0
note_on channel=0 note=66 velocity=0 time=0
note_on channel=0 note=73 velocity=0 time=0
note_on channel=0 note=69 velocity=0 time=0
note_on channel=0 note=33 velocity=0 time=0
note_on channel=0 note=61 velocity=0 time=0
note_on channel=0 note=59 velocity=55 time=0
note_on channel=0 note=62 velocity=55 time=0
note_on channel=0 note=68 velocity=55 time=0
note_on channel=0 note=71 velocity=68 time=0
note_on channel=0 note=35 velocity=43 time=0
note_on channel=0 note=47 velocity=51 time=0
control_change channel=0 control=64 value=0 time=12
control_change channel=0 control=64 value=127 time=79
note_on channel=0 note=47 velocity=0 time=0
note_on channel=0 note=62 velocity=0 time=0
note_on channel=0 note=68 velocity=0 time=0
note_on channel=0 note=59 velocity=0 time=0
note_on channel=0 note=35 velocity=0 time=0
note_on channel=0 note=71 velocity=0 time=0
note_on channel=0 note=66 velocity=55 time=0
note_on channel=0 note=63 velocity=55 time=0
note_on channel=0 note=57 velocity=55 time=0
note_on channel=0 note=69 velocity=67 time=0
note_on channel=0 note=48 velocity=51 time=0
note_on channel=0 note=36 velocity=42 time=0
control_change channel=0 control=64 value=0 time=12
control_change channel=0 control=64 value=127 time=63
note_on channel=0 note=36 velocity=0 time=0
note_on channel=0 note=63 velocity=0 time=0
note_on channel=0 note=57 velocity=0 time=0
note_on channel=0 note=66 velocity=0 time=0
note_on channel=0 note=48 velocity=0 time=0
note_on channel=0 note=69 velocity=0 time=0
note_on channel=0 note=66 velocity=48 time=0
note_on channel=0 note=57 velocity=48 time=0
note_on channel=0 note=69 velocity=57 time=0
note_on channel=0 note=63 velocity=48 time=0
note_on channel=0 note=36 velocity=34 time=0
note_on channel=0 note=48 velocity=42 time=0
control_change channel=0 control=64 value=0 time=0
control_change channel=0 control=64 value=127 time=133
note_on channel=0 note=48 velocity=0 time=107
note_on channel=0 note=36 velocity=0 time=0
note_on channel=0 note=61 velocity=46 time=0
note_on channel=0 note=37 velocity=38 time=0
note_on channel=0 note=49 velocity=45 time=0
note_on channel=0 note=69 velocity=0 time=0
note_on channel=0 note=63 velocity=0 time=0
note_on channel=0 note=66 velocity=0 time=0
note_on channel=0 note=57 velocity=0 time=0
note_on channel=0 note=65 velocity=46 time=0
note_on channel=0 note=56 velocity=46 time=0
note_on channel=0 note=68 velocity=55 time=0
control_change channel=0 control=64 value=0 time=12
control_change channel=0 control=64 value=127 time=88
note_on channel=0 note=49 velocity=0 time=20
note_on channel=0 note=37 velocity=0 time=0
note_on channel=0 note=36 velocity=34 time=0
note_on channel=0 note=48 velocity=40 time=0
note_on channel=0 note=48 velocity=0 time=120
note_on channel=0 note=68 velocity=0 time=0
note_on channel=0 note=61 velocity=0 time=0
note_on channel=0 note=65 velocity=0 time=0
note_on channel=0 note=36 velocity=0 time=0
note_on channel=0 note=56 velocity=0 time=0
note_on channel=0 note=65 velocity=53 time=0
note_on channel=0 note=61 velocity=53 time=0
note_on channel=0 note=68 velocity=64 time=0
note_on channel=0 note=56 velocity=53 time=0
note_on channel=0 note=37 velocity=39 time=0
note_on channel=0 note=49 velocity=48 time=0
control_change channel=0 control=64 value=0 time=14
control_change channel=0 control=64 value=127 time=86
note_on channel=0 note=49 velocity=0 time=0
note_on channel=0 note=61 velocity=0 time=0
note_on channel=0 note=68 velocity=0 time=0
note_on channel=0 note=65 velocity=0 time=0
note_on channel=0 note=37 velocity=0 time=0
note_on channel=0 note=56 velocity=0 time=0
note_on channel=0 note=55 velocity=49 time=0
note_on channel=0 note=58 velocity=49 time=0
note_on channel=0 note=64 velocity=49 time=0
note_on channel=0 note=67 velocity=60 time=0
note_on channel=0 note=37 velocity=38 time=0
note_on channel=0 note=49 velocity=45 time=0
control_change channel=0 control=64 value=0 time=12
control_change channel=0 control=64 value=127 time=79
note_on channel=0 note=49 velocity=0 time=0
note_on channel=0 note=58 velocity=0 time=0
note_on channel=0 note=55 velocity=0 time=0
note_on channel=0 note=64 velocity=0 time=0
note_on channel=0 note=37 velocity=0 time=0
note_on channel=0 note=62 velocity=52 time=0
note_on channel=0 note=59 velocity=52 time=0
note_on channel=0 note=55 velocity=52 time=0
note_on channel=0 note=50 velocity=48 time=0
note_on channel=0 note=38 velocity=40 time=0
control_change channel=0 control=64 value=0 time=12
control_change channel=0 control=64 value=127 time=63
note_on channel=0 note=55 velocity=0 time=0
note_on channel=0 note=59 velocity=0 time=0
note_on channel=0 note=62 velocity=0 time=0
note_on channel=0 note=67 velocity=53 time=0
control_change channel=0 control=64 value=0 time=11
control_change channel=0 control=64 value=127 time=29
note_on channel=0 note=67 velocity=0 time=0
note_on channel=0 note=38 velocity=0 time=0
note_on channel=0 note=50 velocity=0 time=0
note_on channel=0 note=67 velocity=0 time=0
note_on channel=0 note=83 velocity=65 time=0
note_on channel=0 note=43 velocity=43 time=0
note_on channel=0 note=31 velocity=32 time=0
note_on channel=0 note=38 velocity=32 time=0
note_on channel=0 note=71 velocity=55 time=240
note_on channel=0 note=71 velocity=0 time=0
note_on channel=0 note=83 velocity=0 time=0
note_on channel=0 note=69 velocity=52 time=0
note_on channel=0 note=81 velocity=62 time=0
note_on channel=0 note=81 velocity=0 time=238
note_on channel=0 note=69 velocity=0 time=0
note_on channel=0 note=38 velocity=0 time=0
note_on channel=0 note=31 velocity=0 time=0
note_on channel=0 note=43 velocity=0 time=0
note_on channel=0 note=69 velocity=55 time=0
note_on channel=0 note=81 velocity=65 time=0
note_on channel=0 note=43 velocity=30 time=0
note_on channel=0 note=35 velocity=30 time=0
note_on channel=0 note=50 velocity=36 time=0
control_change channel=0 control=64 value=0 time=12
control_change channel=0 control=64 value=127 time=162
note_on channel=0 note=81 velocity=0 time=66
note_on channel=0 note=69 velocity=0 time=0
note_on channel=0 note=67 velocity=51 time=0
note_on channel=0 note=79 velocity=57 time=0
note_on channel=0 note=79 velocity=0 time=0
note_on channel=0 note=67 velocity=0 time=0
note_on channel=0 note=66 velocity=50 time=0
note_on channel=0 note=78 velocity=57 time=0
note_on channel=0 note=78 velocity=0 time=238
note_on channel=0 note=66 velocity=0 time=0
note_on channel=0 note=35 velocity=0 time=0
note_on channel=0 note=43 velocity=0 time=0
note_on channel=0 note=50 velocity=0 time=0
note_on channel=0 note=66 velocity=55 time=0
note_on channel=0 note=78 velocity=65 time=0
note_on channel=0 note=36 velocity=33 time=0
note_on channel=0 note=52 velocity=39 time=0
note_on channel=0 note=43 velocity=33 time=0
control_change channel=0 control=64 value=0 time=2
control_change channel=0 control=64 value=127 time=178
note_on channel=0 note=78 velocity=0 time=60
note_on channel=0 note=66 velocity=0 time=0
note_on channel=0 note=64 velocity=52 time=0
note_on channel=0 note=76 velocity=56 time=0
note_on channel=0 note=76 velocity=0 time=0
note_on channel=0 note=64 velocity=0 time=0
note_on channel=0 note=66 velocity=52 time=0
note_on channel=0 note=78 velocity=56 time=0
note_on channel=0 note=78 velocity=0 time=238
note_on channel=0 note=66 velocity=0 time=0
note_on channel=0 note=52 velocity=0 time=0
note_on channel=0 note=36 velocity=0 time=0
note_on channel=0 note=43 velocity=0 time=0
note_on channel=0 note=66 velocity=52 time=0
note_on channel=0 note=78 velocity=61 time=0
note_on channel=0 note=35 velocity=29 time=0
note_on channel=0 note=43 velocity=29 time=0
note_on channel=0 note=50 velocity=35 time=0
control_change channel=0 control=64 value=0 time=12
control_change channel=0 control=64 value=127 time=162
note_on channel=0 note=50 velocity=0 time=66
note_on channel=0 note=35 velocity=0 time=0
note_on channel=0 note=66 velocity=0 time=0
note_on channel=0 note=78 velocity=0 time=0
note_on channel=0 note=43 velocity=0 time=0
note_on channel=0 note=67 velocity=55 time=0
note_on channel=0 note=79 velocity=59 time=0
note_on channel=0 note=43 velocity=46 time=0
note_on channel=0 note=38 velocity=32 time=0
control_change channel=0 control=64 value=0 time=12
note_on channel=0 note=43 velocity=0 time=108
note_on channel=0 note=67 velocity=0 time=0
note_on channel=0 note=79 velocity=0 time=0
note_on channel=0 note=54 velocity=43 time=0
note_on channel=0 note=66 velocity=46 time=0
note_on channel=0 note=42 velocity=38 time=0
control_change channel=0 control=64 value=127 time=14
note_on channel=0 note=42 velocity=0 time=105
note_on channel=0 note=66 velocity=0 time=0
note_on channel=0 note=54 velocity=0 time=0
note_on channel=0 note=38 velocity=0 time=0
note_on channel=0 note=54 velocity=45 time=0
note_on channel=0 note=66 velocity=60 time=0
note_on channel=0 note=38 velocity=29 time=0
note_on channel=0 note=42 velocity=35 time=0
control_change channel=0 control=64 value=0 time=12
control_change channel=0 control=64 value=127 time=127
note_on channel=0 note=42 velocity=0 time=0
note_on channel=0 note=54 velocity=0 time=0
note_on channel=0 note=66 velocity=0 time=0
note_on channel=0 note=38 velocity=0 time=0
note_on channel=0 note=57 velocity=45 time=0
note_on channel=0 note=69 velocity=53 time=0
note_on channel=0 note=37 velocity=29 time=0
note_on channel=0 note=45 velocity=31 time=0
control_change channel=0 control=64 value=0 time=12
control_change channel=0 control=64 value=127 time=115
note_on channel=0 note=45 velocity=0 time=0
note_on channel=0 note=57 velocity=0 time=0
note_on channel=0 note=69 velocity=0 time=0
note_on channel=0 note=37 velocity=0 time=0
note_on channel=0 note=61 velocity=43 time=0
note_on channel=0 note=66 velocity=43 time=0
note_on channel=0 note=69 velocity=43 time=0
note_on channel=0 note=73 velocity=51 time=0
note_on channel=0 note=37 velocity=26 time=0
note_on channel=0 note=49 velocity=31 time=0
note_on channel=0 note=49 velocity=0 time=238
note_on channel=0 note=66 velocity=0 time=0
note_on channel=0 note=69 velocity=0 time=0
note_on channel=0 note=61 velocity=0 time=0
note_on channel=0 note=37 velocity=0 time=0
note_on channel=0 note=73 velocity=0 time=0
note_on channel=0 note=61 velocity=45 time=0
note_on channel=0 note=73 velocity=54 time=0
note_on channel=0 note=65 velocity=45 time=0
note_on channel=0 note=68 velocity=45 time=0
note_on channel=0 note=37 velocity=29 time=0
note_on channel=0 note=49 velocity=35 time=0
control_change channel=0 control=64 value=0 time=2
control_change channel=0 control=64 value=127 time=137
note_on channel=0 note=49 velocity=0 time=0
note_on channel=0 note=73 velocity=0 time=0
note_on channel=0 note=65 velocity=0 time=0
note_on channel=0 note=61 velocity=0 time=0
note_on channel=0 note=37 velocity=0 time=0
note_on channel=0 note=68 velocity=0 time=0
note_on channel=0 note=61 velocity=36 time=0
note_on channel=0 note=73 velocity=43 time=0
note_on channel=0 note=69 velocity=36 time=0
note_on channel=0 note=66 velocity=36 time=0
note_on channel=0 note=42 velocity=27 time=0
note_on channel=0 note=49 velocity=32 time=0
control_change channel=0 control=64 value=0 time=14
control_change channel=0 control=64 value=127 time=78
note_on channel=0 note=49 velocity=0 time=146
note_on channel=0 note=73 velocity=0 time=0
note_on channel=0 note=69 velocity=0 time=0
note_on channel=0 note=61 velocity=0 time=0
note_on channel=0 note=42 velocity=0 time=0
note_on channel=0 note=66 velocity=0 time=0
note_on channel=0 note=69 velocity=40 time=0
note_on channel=0 note=61 velocity=40 time=0
note_on channel=0 note=73 velocity=48 time=0
note_on channel=0 note=42 velocity=29 time=0
note_on channel=0 note=49 velocity=35 time=0
control_change channel=0 control=64 value=0 time=3
control_change channel=0 control=64 value=127 time=75
note_on channel=0 note=42 velocity=0 time=162
note_on channel=0 note=73 velocity=0 time=0
note_on channel=0 note=69 velocity=0 time=0
note_on channel=0 note=61 velocity=0 time=0
note_on channel=0 note=62 velocity=36 time=0
note_on channel=0 note=74 velocity=43 time=0
note_on channel=0 note=67 velocity=36 time=0
note_on channel=0 note=35 velocity=27 time=0
note_on channel=0 note=50 velocity=32 time=0
note_on channel=0 note=49 velocity=0 time=9
control_change channel=0 control=64 value=0 time=5
control_change channel=0 control=64 value=127 time=66
note_on channel=0 note=74 velocity=0 time=0
note_on channel=0 note=67 velocity=0 time=0
note_on channel=0 note=62 velocity=0 time=0
note_on channel=0 note=50 velocity=0 time=0
note_on channel=0 note=55 velocity=36 time=0
note_on channel=0 note=67 velocity=43 time=0
note_on channel=0 note=43 velocity=32 time=0
note_on channel=0 note=43 velocity=0 time=0
note_on channel=0 note=67 velocity=0 time=0
note_on channel=0 note=55 velocity=0 time=0
note_on channel=0 note=59 velocity=37 time=0
note_on channel=0 note=71 velocity=47 time=0
note_on channel=0 note=47 velocity=35 time=0
note_on channel=0 note=47 velocity=0 time=0
note_on channel=0 note=35 velocity=0 time=0
note_on channel=0 note=59 velocity=0 time=0
note_on channel=0 note=71 velocity=0 time=0
note_on channel=0 note=49 velocity=37 time=0
note_on channel=0 note=61 velocity=45 time=0
note_on channel=0 note=37 velocity=35 time=0
control_change channel=0 control=64 value=0 time=14
control_change channel=0 control=64 value=127 time=95
note_on channel=0 note=37 velocity=0 time=0
note_on channel=0 note=61 velocity=0 time=0
note_on channel=0 note=49 velocity=0 time=0
note_on channel=0 note=65 velocity=44 time=0
note_on channel=0 note=53 velocity=37 time=0
note_on channel=0 note=37 velocity=33 time=0
note_on channel=0 note=41 velocity=33 time=0
control_change channel=0 control=64 value=0 time=5
note_on channel=0 note=41 velocity=0 time=115
note_on channel=0 note=65 velocity=0 time=0
note_on channel=0 note=53 velocity=0 time=0
note_on channel=0 note=54 velocity=32 time=0
note_on channel=0 note=66 velocity=38 time=0
note_on channel=0 note=42 velocity=30 time=0
note_on channel=0 note=42 velocity=0 time=0
note_on channel=0 note=37 velocity=0 time=0
note_on channel=0 note=54 velocity=0 time=0
note_on channel=0 note=66 velocity=0 time=0
note_on channel=0 note=54 velocity=25 time=0
note_on channel=0 note=58 velocity=25 time=0
note_on channel=0 note=64 velocity=25 time=0
note_on channel=0 note=66 velocity=52 time=0
note_on channel=0 note=37 velocity=29 time=0
note_on channel=0 note=42 velocity=35 time=0
control_change channel=0 control=64 value=127 time=0
note_on channel=0 note=42 velocity=0 time=240
note_on channel=0 note=37 velocity=0 time=0
note_on channel=0 note=30 velocity=23 time=0
note_on channel=0 note=42 velocity=28 time=0
note_on channel=0 note=54 velocity=0 time=0
note_on channel=0 note=64 velocity=0 time=0
note_on channel=0 note=58 velocity=0 time=0
note_on channel=0 note=66 velocity=25 time=0
note_on channel=0 note=66 velocity=0 time=0
note_on channel=0 note=42 velocity=0 time=0
note_on channel=0 note=30 velocity=0 time=0
note_on channel=0 note=78 velocity=57 time=0
note_on channel=0 note=34 velocity=23 time=0
note_on channel=0 note=46 velocity=28 time=0
note_on channel=0 note=66 velocity=0 time=118
note_on channel=0 note=66 velocity=25 time=2
note_on channel=0 note=78 velocity=0 time=120
note_on channel=0 note=46 velocity=0 time=0
note_on channel=0 note=34 velocity=0 time=0
note_on channel=0 note=78 velocity=57 time=0
note_on channel=0 note=37 velocity=29 time=0
note_on channel=0 note=49 velocity=35 time=0
control_change channel=0 control=64 value=0 time=5
control_change channel=0 control=64 value=127 time=101
note_on channel=0 note=66 velocity=0 time=12
note_on channel=0 note=66 velocity=25 time=2
note_on channel=0 note=49 velocity=0 time=0
note_on channel=0 note=37 velocity=0 time=0
note_on channel=0 note=30 velocity=23 time=0
note_on channel=0 note=42 velocity=28 time=0
note_on channel=0 note=66 velocity=0 time=118
note_on channel=0 note=66 velocity=25 time=2
note_on channel=0 note=78 velocity=0 time=0
note_on channel=0 note=42 velocity=0 time=0
note_on channel=0 note=30 velocity=0 time=0
note_on channel=0 note=73 velocity=50 time=0
note_on channel=0 note=34 velocity=23 time=0
note_on channel=0 note=46 velocity=28 time=0
note_on channel=0 note=66 velocity=0 time=118
note_on channel=0 note=66 velocity=25 time=0
note_on channel=0 note=73 velocity=0 time=0
note_on channel=0 note=46 velocity=0 time=0
note_on channel=0 note=34 velocity=0 time=0
note_on channel=0 note=76 velocity=57 time=0
note_on channel=0 note=35 velocity=26 time=0
note_on channel=0 note=47 velocity=31 time=0
control_change channel=0 control=64 value=0 time=4
control_change channel=0 control=64 value=127 time=79
note_on channel=0 note=66 velocity=0 time=35
note_on channel=0 note=66 velocity=25 time=2
note_on channel=0 note=76 velocity=0 time=120
note_on channel=0 note=47 velocity=0 time=0
note_on channel=0 note=35 velocity=0 time=0
note_on channel=0 note=74 velocity=51 time=0
note_on channel=0 note=30 velocity=22 time=0
note_on channel=0 note=42 velocity=27 time=0
control_change channel=0 control=64 value=0 time=12
control_change channel=0 control=64 value=127 time=63
note_on channel=0 note=66 velocity=0 time=43
note_on channel=0 note=62 velocity=25 time=2
note_on channel=0 note=68 velocity=25 time=0
note_on channel=0 note=65 velocity=25 time=0
note_on channel=0 note=74 velocity=0 time=120
note_on channel=0 note=42 velocity=0 time=0
note_on channel=0 note=30 velocity=0 time=0
note_on channel=0 note=71 velocity=51 time=0
note_on channel=0 note=35 velocity=22 time=0
note_on channel=0 note=47 velocity=27 time=0
note_on channel=0 note=62 velocity=0 time=118
note_on channel=0 note=65 velocity=0 time=0
note_on channel=0 note=68 velocity=0 time=0
note_on channel=0 note=62 velocity=25 time=2
note_on channel=0 note=65 velocity=25 time=0
note_on channel=0 note=68 velocity=25 time=0
note_on channel=0 note=47 velocity=0 time=120
note_on channel=0 note=35 velocity=0 time=0
note_on channel=0 note=38 velocity=26 time=0
note_on channel=0 note=50 velocity=31 time=0
note_on channel=0 note=62 velocity=0 time=118
note_on channel=0 note=65 velocity=0 time=0
note_on channel=0 note=68 velocity=0 time=0
note_on channel=0 note=62 velocity=25 time=2
note_on channel=0 note=65 velocity=25 time=0
note_on channel=0 note=68 velocity=25 time=0
note_on channel=0 note=71 velocity=0 time=0
note_on channel=0 note=50 velocity=0 time=0
note_on channel=0 note=38 velocity=0 time=0
note_on channel=0 note=74 velocity=56 time=0
note_on channel=0 note=30 velocity=21 time=0
note_on channel=0 note=42 velocity=25 time=0
note_on channel=0 note=62 velocity=0 time=118
note_on channel=0 note=68 velocity=0 time=0
note_on channel=0 note=65 velocity=0 time=0
note_on channel=0 note=62 velocity=25 time=2
note_on channel=0 note=65 velocity=25 time=0
note_on channel=0 note=68 velocity=25 time=0
note_on channel=0 note=74 velocity=0 time=0
note_on channel=0 note=42 velocity=0 time=0
note_on channel=0 note=30 velocity=0 time=0
note_on channel=0 note=71 velocity=53 time=0
note_on channel=0 note=35 velocity=21 time=0
note_on channel=0 note=47 velocity=25 time=0
note_on channel=0 note=62 velocity=0 time=118
note_on channel=0 note=68 velocity=0 time=0
note_on channel=0 note=65 velocity=0 time=0
note_on channel=0 note=62 velocity=25 time=2
note_on channel=0 note=65 velocity=25 time=0
note_on channel=0 note=68 velocity=25 time=0
note_on channel=0 note=68 velocity=0 time=119
note_on channel=0 note=62 velocity=0 time=0
note_on channel=0 note=65 velocity=0 time=0
note_on channel=0 note=47 velocity=0 time=0
note_on channel=0 note=71 velocity=0 time=0
note_on channel=0 note=35 velocity=0 time=0
note_on channel=0 note=61 velocity=34 time=0
note_on channel=0 note=66 velocity=34 time=0
note_on channel=0 note=70 velocity=48 time=0
note_on channel=0 note=37 velocity=24 time=0
note_on channel=0 note=49 velocity=29 time=0
control_change channel=0 control=64 value=0 time=0
control_change channel=0 control=64 value=127 time=32
note_on channel=0 note=70 velocity=0 time=48
note_on channel=0 note=78 velocity=45 time=0
note_on channel=0 note=78 velocity=0 time=80
note_on channel=0 note=73 velocity=48 time=0
note_on channel=0 note=73 velocity=0 time=80
note_on channel=0 note=37 velocity=0 time=0
note_on channel=0 note=61 velocity=0 time=0
note_on channel=0 note=66 velocity=0 time=0
note_on channel=0 note=49 velocity=0 time=0
note_on channel=0 note=82 velocity=54 time=0
note_on channel=0 note=30 velocity=19 time=0
note_on channel=0 note=42 velocity=23 time=0
note_on channel=0 note=82 velocity=0 time=80
note_on channel=0 note=78 velocity=51 time=0
note_on channel=0 note=78 velocity=0 time=80
note_on channel=0 note=85 velocity=51 time=0
note_on channel=0 note=85 velocity=0 time=80
note_on channel=0 note=42 velocity=0 time=0
note_on channel=0 note=30 velocity=0 time=0
note_on channel=0 note=78 velocity=57 time=0
note_on channel=0 note=34 velocity=20 time=0
note_on channel=0 note=46 velocity=24 time=0
note_on channel=0 note=78 velocity=0 time=80
note_on channel=0 note=91 velocity=63 time=0
note_on channel=0 note=91 velocity=0 time=0
note_on channel=0 note=90 velocity=59 time=0
note_on channel=0 note=90 velocity=0 time=0
note_on channel=0 note=46 velocity=0 time=0
note_on channel=0 note=34 velocity=0 time=0
note_on channel=0 note=89 velocity=64 time=0
note_on channel=0 note=37 velocity=26 time=0
note_on channel=0 note=49 velocity=32 time=0
control_change channel=0 control=64 value=0 time=8
control_change channel=0 control=64 value=127 time=47
note_on channel=0 note=89 velocity=0 time=25
note_on channel=0 note=90 velocity=59 time=0
note_on channel=0 note=90 velocity=0 time=80
note_on channel=0 note=88 velocity=59 time=0
note_on channel=0 note=49 velocity=0 time=80
note_on channel=0 note=37 velocity=0 time=0
note_on channel=0 note=30 velocity=22 time=0
note_on channel=0 note=42 velocity=26 time=0
note_on channel=0 note=88 velocity=0 time=80
note_on channel=0 note=85 velocity=57 time=0
note_on channel=0 note=85 velocity=0 time=80
note_on channel=0 note=82 velocity=57 time=0
note_on channel=0 note=82 velocity=0 time=0
note_on channel=0 note=42 velocity=0 time=0
note_on channel=0 note=30 velocity=0 time=0
note_on channel=0 note=73 velocity=34 time=0
note_on channel=0 note=79 velocity=62 time=0
note_on channel=0 note=34 velocity=22 time=0
note_on channel=0 note=46 velocity=27 time=0
note_on channel=0 note=79 velocity=0 time=80
note_on channel=0 note=78 velocity=60 time=0
note_on channel=0 note=78 velocity=0 time=0
note_on channel=0 note=76 velocity=60 time=0
note_on channel=0 note=46 velocity=0 time=0
note_on channel=0 note=73 velocity=0 time=0
note_on channel=0 note=34 velocity=0 time=0
note_on channel=0 note=35 velocity=30 time=0
note_on channel=0 note=47 velocity=36 time=0
control_change channel=0 control=64 value=0 time=0
control_change channel=0 control=64 value=127 time=46
note_on channel=0 note=76 velocity=0 time=34
note_on channel=0 note=73 velocity=59 time=0
note_on channel=0 note=73 velocity=0 time=80
note_on channel=0 note=74 velocity=59 time=0
note_on channel=0 note=74 velocity=0 time=80
note_on channel=0 note=47 velocity=0 time=0
note_on channel=0 note=35 velocity=0 time=0
note_on channel=0 note=83 velocity=63 time=0
note_on channel=0 note=30 velocity=24 time=0
note_on channel=0 note=42 velocity=29 time=0
note_on channel=0 note=83 velocity=0 time=0
note_on channel=0 note=80 velocity=53 time=0
note_on channel=0 note=80 velocity=0 time=0
note_on channel=0 note=86 velocity=58 time=0
note_on channel=0 note=42 velocity=0 time=80
note_on channel=0 note=30 velocity=0 time=0
note_on channel=0 note=35 velocity=22 time=0
note_on channel=0 note=47 velocity=27 time=0
note_on channel=0 note=86 velocity=0 time=80
note_on channel=0 note=85 velocity=53 time=0
note_on channel=0 note=85 velocity=0 time=80
note_on channel=0 note=83 velocity=50 time=0
note_on channel=0 note=83 velocity=0 time=78
note_on channel=0 note=47 velocity=0 time=2
note_on channel=0 note=35 velocity=0 time=0
note_on channel=0 note=71 velocity=42 time=0
note_on channel=0 note=74 velocity=42 time=0
note_on channel=0 note=77 velocity=42 time=0
note_on channel=0 note=80 velocity=42 time=0
note_on channel=0 note=83 velocity=52 time=0
note_on channel=0 note=38 velocity=29 time=0
note_on channel=0 note=50 velocity=35 time=0
control_change channel=0 control=64 value=0 time=14
control_change channel=0 control=64 value=127 time=57
note_on channel=0 note=50 velocity=0 time=9
note_on channel=0 note=38 velocity=0 time=0
note_on channel=0 note=30 velocity=33 time=0
note_on channel=0 note=30 velocity=0 time=80
note_on channel=0 note=35 velocity=35 time=0
note_on channel=0 note=35 velocity=0 time=0
note_on channel=0 note=38 velocity=42 time=0
note_on channel=0 note=38 velocity=0 time=80
note_on channel=0 note=42 velocity=40 time=0
note_on channel=0 note=42 velocity=0 time=80
note_on channel=0 note=47 velocity=38 time=0
note_on channel=0 note=74 velocity=0 time=75
note_on channel=0 note=80 velocity=0 time=0
note_on channel=0 note=77 velocity=0 time=0
note_on channel=0 note=71 velocity=0 time=0
note_on channel=0 note=83 velocity=0 time=0
note_on channel=0 note=47 velocity=0 time=0
note_on channel=0 note=71 velocity=44 time=0
note_on channel=0 note=74 velocity=44 time=0
note_on channel=0 note=77 velocity=44 time=0
note_on channel=0 note=80 velocity=44 time=0
note_on channel=0 note=83 velocity=56 time=0
note_on channel=0 note=50 velocity=35 time=0
control_change channel=0 control=64 value=0 time=7
control_change channel=0 control=64 value=127 time=60
note_on channel=0 note=50 velocity=0 time=13
note_on channel=0 note=42 velocity=33 time=0
note_on channel=0 note=42 velocity=0 time=0
note_on channel=0 note=50 velocity=31 time=0
note_on channel=0 note=50 velocity=0 time=0
note_on channel=0 note=74 velocity=0 time=0
note_on channel=0 note=77 velocity=0 time=0
note_on channel=0 note=71 velocity=0 time=0
note_on channel=0 note=83 velocity=0 time=0
note_on channel=0 note=80 velocity=0 time=0
note_on channel=0 note=70 velocity=43 time=0
note_on channel=0 note=73 velocity=43 time=0
note_on channel=0 note=78 velocity=43 time=0
note_on channel=0 note=82 velocity=54 time=0
note_on channel=0 note=42 velocity=27 time=0
control_change channel=0 control=64 value=0 time=6
control_change channel=0 control=64 value=127 time=58
note_on channel=0 note=42 velocity=0 time=16
note_on channel=0 note=49 velocity=20 time=0
note_on channel=0 note=49 velocity=0 time=80
note_on channel=0 note=42 velocity=20 time=0
note_on channel=0 note=42 velocity=0 time=80
note_on channel=0 note=54 velocity=27 time=0
note_on channel=0 note=54 velocity=0 time=80
note_on channel=0 note=49 velocity=22 time=0
note_on channel=0 note=49 velocity=0 time=80
note_on channel=0 note=54 velocity=22 time=0
note_on channel=0 note=54 velocity=0 time=80
note_on channel=0 note=42 velocity=27 time=0
note_on channel=0 note=42 velocity=0 time=80
note_on channel=0 note=49 velocity=23 time=0
note_on channel=0 note=49 velocity=0 time=80
note_on channel=0 note=42 velocity=23 time=0
note_on channel=0 note=42 velocity=0 time=80
note_on channel=0 note=54 velocity=27 time=0
note_on channel=0 note=54 velocity=0 time=80
note_on channel=0 note=49 velocity=23 time=0
note_on channel=0 note=49 velocity=0 time=80
note_on channel=0 note=54 velocity=23 time=0
note_on channel=0 note=54 velocity=0 time=80
note_on channel=0 note=49 velocity=27 time=0
note_on channel=0 note=49 velocity=0 time=80
note_on channel=0 note=42 velocity=21 time=0
note_on channel=0 note=42 velocity=0 time=0
note_on channel=0 note=49 velocity=21 time=0
note_on channel=0 note=82 velocity=0 time=78
note_on channel=0 note=78 velocity=0 time=0
note_on channel=0 note=70 velocity=0 time=0
note_on channel=0 note=73 velocity=0 time=0
note_on channel=0 note=49 velocity=0 time=0
note_on channel=0 note=70 velocity=42 time=0
note_on channel=0 note=73 velocity=42 time=0
note_on channel=0 note=78 velocity=42 time=0
note_on channel=0 note=82 velocity=53 time=0
note_on channel=0 note=54 velocity=27 time=0
note_on channel=0 note=54 velocity=0 time=80
note_on channel=0 note=49 velocity=22 time=0
note_on channel=0 note=49 velocity=0 time=80
note_on channel=0 note=54 velocity=22 time=0
note_on channel=0 note=54 velocity=0 time=80
note_on channel=0 note=37 velocity=27 time=0
note_on channel=0 note=37 velocity=0 time=80
note_on channel=0 note=42 velocity=23 time=0
note_on channel=0 note=42 velocity=0 time=80
note_on channel=0 note=37 velocity=23 time=0
note_on channel=0 note=37 velocity=0 time=80
note_on channel=0 note=49 velocity=27 time=0
note_on channel=0 note=49 velocity=0 time=80
note_on channel=0 note=42 velocity=23 time=0
note_on channel=0 note=42 velocity=0 time=0
note_on channel=0 note=49 velocity=23 time=0
note_on channel=0 note=82 velocity=0 time=78
note_on channel=0 note=78 velocity=0 time=0
note_on channel=0 note=70 velocity=0 time=0
note_on channel=0 note=73 velocity=0 time=0
note_on channel=0 note=49 velocity=0 time=0
note_on channel=0 note=90 velocity=50 time=0
note_on channel=0 note=82 velocity=40 time=0
note_on channel=0 note=78 velocity=40 time=0
note_on channel=0 note=37 velocity=26 time=0
note_on channel=0 note=37 velocity=0 time=80
note_on channel=0 note=42 velocity=22 time=0
note_on channel=0 note=42 velocity=0 time=80
note_on channel=0 note=37 velocity=22 time=0
note_on channel=0 note=37 velocity=0 time=80
note_on channel=0 note=49 velocity=27 time=0
note_on channel=0 note=49 velocity=0 time=80
note_on channel=0 note=42 velocity=23 time=0
note_on channel=0 note=42 velocity=0 time=80
note_on channel=0 note=49 velocity=23 time=0
note_on channel=0 note=49 velocity=0 time=80
note_on channel=0 note=37 velocity=27 time=0
note_on channel=0 note=37 velocity=0 time=80
note_on channel=0 note=42 velocity=23 time=0
note_on channel=0 note=42 velocity=0 time=80
note_on channel=0 note=37 velocity=23 time=0
note_on channel=0 note=78 velocity=0 time=78
note_on channel=0 note=90 velocity=0 time=0
note_on channel=0 note=82 velocity=0 time=0
note_on channel=0 note=37 velocity=0 time=2
note_on channel=0 note=78 velocity=36 time=0
note_on channel=0 note=82 velocity=36 time=0
note_on channel=0 note=90 velocity=46 time=0
note_on channel=0 note=49 velocity=27 time=0
note_on channel=0 note=49 velocity=0 time=80
note_on channel=0 note=42 velocity=24 time=0
note_on channel=0 note=42 velocity=0 time=80
note_on channel=0 note=49 velocity=24 time=0
note_on channel=0 note=49 velocity=0 time=0
note_on channel=0 note=42 velocity=27 time=0
note_on channel=0 note=42 velocity=0 time=80
note_on channel=0 note=37 velocity=23 time=0
note_on channel=0 note=37 velocity=0 time=80
note_on channel=0 note=42 velocity=23 time=0
note_on channel=0 note=78 velocity=0 time=75
note_on channel=0 note=90 velocity=0 time=0
note_on channel=0 note=82 velocity=0 time=0
note_on channel=0 note=42 velocity=0 time=0
note_on channel=0 note=94 velocity=44 time=0
note_on channel=0 note=85 velocity=35 time=0
note_on channel=0 note=82 velocity=35 time=0
note_on channel=0 note=30 velocity=27 time=0
note_on channel=0 note=30 velocity=0 time=80
note_on channel=0 note=37 velocity=23 time=0
note_on channel=0 note=37 velocity=0 time=80
note_on channel=0 note=30 velocity=23 time=0
note_on channel=0 note=30 velocity=0 time=80
note_on channel=0 note=42 velocity=27 time=0
note_on channel=0 note=42 velocity=0 time=80
note_on channel=0 note=37 velocity=24 time=0
note_on channel=0 note=37 velocity=0 time=80
note_on channel=0 note=42 velocity=24 time=0
note_on channel=0 note=42 velocity=0 time=80
note_on channel=0 note=30 velocity=27 time=0
note_on channel=0 note=30 velocity=0 time=80
note_on channel=0 note=37 velocity=24 time=0
note_on channel=0 note=37 velocity=0 time=80
note_on channel=0 note=30 velocity=24 time=0
note_on channel=0 note=30 velocity=0 time=80
note_on channel=0 note=42 velocity=27 time=0
note_on channel=0 note=42 velocity=0 time=80
note_on channel=0 note=37 velocity=23 time=0
note_on channel=0 note=37 velocity=0 time=80
note_on channel=0 note=42 velocity=23 time=0
note_on channel=0 note=94 velocity=0 time=71
note_on channel=0 note=82 velocity=0 time=0
note_on channel=0 note=85 velocity=0 time=0
note_on channel=0 note=42 velocity=0 time=9
note_on channel=0 note=73 velocity=35 time=0
note_on channel=0 note=37 velocity=27 time=0
note_on channel=0 note=37 velocity=0 time=80
note_on channel=0 note=42 velocity=24 time=0
note_on channel=0 note=42 velocity=0 time=80
note_on channel=0 note=37 velocity=24 time=0
note_on channel=0 note=37 velocity=0 time=0
note_on channel=0 note=73 velocity=0 time=0
note_on channel=0 note=73 velocity=38 time=0
note_on channel=0 note=49 velocity=30 time=0
control_change channel=0 control=64 value=0 time=67
control_change channel=0 control=64 value=127 time=128
note_on channel=0 note=49 velocity=0 time=45
note_on channel=0 note=61 velocity=26 time=0
note_on channel=0 note=61 velocity=0 time=0
note_on channel=0 note=73 velocity=0 time=0
note_on channel=0 note=69 velocity=33 time=0
note_on channel=0 note=57 velocity=26 time=0
control_change channel=0 control=64 value=0 time=182
note_on channel=0 note=57 velocity=0 time=56
note_on channel=0 note=69 velocity=0 time=0
note_on channel=0 note=69 velocity=37 time=0
note_on channel=0 note=57 velocity=28 time=0
control_change channel=0 control=64 value=127 time=33
note_on channel=0 note=57 velocity=0 time=0
note_on channel=0 note=69 velocity=0 time=0
note_on channel=0 note=66 velocity=32 time=0
note_on channel=0 note=54 velocity=24 time=0
control_change channel=0 control=64 value=0 time=191
note_on channel=0 note=54 velocity=0 time=0
note_on channel=0 note=66 velocity=0 time=0
note_on channel=0 note=65 velocity=27 time=0
note_on channel=0 note=68 velocity=32 time=0
note_on channel=0 note=61 velocity=27 time=0
note_on channel=0 note=53 velocity=20 time=0
note_on channel=0 note=49 velocity=20 time=0
note_on channel=0 note=56 velocity=24 time=0
control_change channel=0 control=64 value=127 time=58
note_on channel=0 note=56 velocity=0 time=0
note_on channel=0 note=68 velocity=0 time=0
note_on channel=0 note=61 velocity=0 time=0
note_on channel=0 note=65 velocity=0 time=0
note_on channel=0 note=49 velocity=0 time=0
note_on channel=0 note=53 velocity=0 time=0
note_on channel=0 note=66 velocity=33 time=0
note_on channel=0 note=69 velocity=40 time=0
note_on channel=0 note=61 velocity=33 time=0
note_on channel=0 note=57 velocity=33 time=0
note_on channel=0 note=54 velocity=27 time=0
control_change channel=0 control=64 value=0 time=6
control_change channel=0 control=64 value=127 time=181
note_on channel=0 note=54 velocity=0 time=53
note_on channel=0 note=57 velocity=0 time=0
note_on channel=0 note=42 velocity=28 time=0
note_on channel=0 note=54 velocity=32 time=0
note_on channel=0 note=66 velocity=0 time=240
note_on channel=0 note=61 velocity=0 time=0
note_on channel=0 note=69 velocity=0 time=0
note_on channel=0 note=58 velocity=29 time=0
note_on channel=0 note=61 velocity=29 time=0
note_on channel=0 note=66 velocity=29 time=0
note_on channel=0 note=70 velocity=37 time=0
control_change channel=0 control=64 value=0 time=12
control_change channel=0 control=64 value=127 time=114
note_on channel=0 note=70 velocity=0 time=114
note_on channel=0 note=61 velocity=0 time=0
note_on channel=0 note=58 velocity=0 time=0
note_on channel=0 note=66 velocity=0 time=0
note_on channel=0 note=62 velocity=36 time=0
note_on channel=0 note=59 velocity=36 time=0
note_on channel=0 note=71 velocity=46 time=0
note_on channel=0 note=66 velocity=36 time=0
control_change channel=0 control=64 value=0 time=12
control_change channel=0 control=64 value=127 time=188
note_on channel=0 note=54 velocity=0 time=0
note_on channel=0 note=42 velocity=0 time=0
note_on channel=0 note=35 velocity=28 time=0
note_on channel=0 note=47 velocity=34 time=0
note_on channel=0 note=47 velocity=0 time=0
note_on channel=0 note=66 velocity=0 time=0
note_on channel=0 note=62 velocity=0 time=0
note_on channel=0 note=59 velocity=0 time=0
note_on channel=0 note=35 velocity=0 time=0
note_on channel=0 note=71 velocity=0 time=0
note_on channel=0 note=70 velocity=39 time=0
note_on channel=0 note=66 velocity=39 time=0
note_on channel=0 note=61 velocity=39 time=0
note_on channel=0 note=73 velocity=49 time=0
note_on channel=0 note=30 velocity=32 time=0
note_on channel=0 note=42 velocity=39 time=0
control_change channel=0 control=64 value=0 time=11
control_change channel=0 control=64 value=127 time=92
note_on channel=0 note=42 velocity=0 time=0
note_on channel=0 note=66 velocity=0 time=0
note_on channel=0 note=61 velocity=0 time=0
note_on channel=0 note=70 velocity=0 time=0
note_on channel=0 note=30 velocity=0 time=0
note_on channel=0 note=73 velocity=0 time=0
note_on channel=0 note=71 velocity=44 time=0
note_on channel=0 note=62 velocity=44 time=0
note_on channel=0 note=74 velocity=56 time=0
note_on channel=0 note=66 velocity=44 time=0
note_on channel=0 note=35 velocity=42 time=0
control_change channel=0 control=64 value=0 time=0
control_change channel=0 control=64 value=127 time=52
note_on channel=0 note=66 velocity=0 time=186
note_on channel=0 note=74 velocity=0 time=0
note_on channel=0 note=71 velocity=0 time=0
note_on channel=0 note=62 velocity=0 time=0
note_on channel=0 note=35 velocity=0 time=0
note_on channel=0 note=71 velocity=28 time=0
note_on channel=0 note=68 velocity=28 time=0
note_on channel=0 note=74 velocity=35 time=0
note_on channel=0 note=62 velocity=28 time=0
note_on channel=0 note=29 velocity=28 time=0
note_on channel=0 note=41 velocity=34 time=0
control_change channel=0 control=64 value=0 time=12
control_change channel=0 control=64 value=127 time=85
note_on channel=0 note=41 velocity=0 time=235
note_on channel=0 note=68 velocity=0 time=0
note_on channel=0 note=74 velocity=0 time=0
note_on channel=0 note=71 velocity=0 time=0
note_on channel=0 note=29 velocity=0 time=0
note_on channel=0 note=62 velocity=0 time=0
note_on channel=0 note=71 velocity=33 time=5
note_on channel=0 note=68 velocity=33 time=0
note_on channel=0 note=74 velocity=42 time=0
note_on channel=0 note=62 velocity=33 time=0
note_on channel=0 note=29 velocity=28 time=0
note_on channel=0 note=41 velocity=34 time=0
note_on channel=0 note=41 velocity=0 time=235
note_on channel=0 note=68 velocity=0 time=0
note_on channel=0 note=74 velocity=0 time=0
note_on channel=0 note=71 velocity=0 time=0
note_on channel=0 note=29 velocity=0 time=0
note_on channel=0 note=62 velocity=0 time=0
note_on channel=0 note=62 velocity=25 time=0
note_on channel=0 note=68 velocity=25 time=0
note_on channel=0 note=71 velocity=25 time=0
note_on channel=0 note=74 velocity=32 time=0
note_on channel=0 note=41 velocity=30 time=0
note_on channel=0 note=29 velocity=25 time=0
control_change channel=0 control=64 value=0 time=12
note_on channel=0 note=29 velocity=0 time=108
note_on channel=0 note=68 velocity=0 time=0
note_on channel=0 note=71 velocity=0 time=0
note_on channel=0 note=62 velocity=0 time=0
note_on channel=0 note=41 velocity=0 time=0
note_on channel=0 note=74 velocity=0 time=0
note_on channel=0 note=70 velocity=25 time=0
note_on channel=0 note=61 velocity=25 time=0
note_on channel=0 note=73 velocity=32 time=0
note_on channel=0 note=30 velocity=26 time=0
note_on channel=0 note=42 velocity=31 time=0
note_on channel=0 note=42 velocity=0 time=117
note_on channel=0 note=73 velocity=0 time=0
note_on channel=0 note=70 velocity=0 time=0
note_on channel=0 note=61 velocity=0 time=0
note_on channel=0 note=30 velocity=0 time=0
note_on channel=0 note=61 velocity=33 time=3
note_on channel=0 note=70 velocity=33 time=0
note_on channel=0 note=73 velocity=39 time=0
note_on channel=0 note=30 velocity=28 time=0
note_on channel=0 note=42 velocity=34 time=0
control_change channel=0 control=64 value=127 time=187
note_on channel=0 note=42 velocity=0 time=533
note_on channel=0 note=30 velocity=0 time=0
note_on channel=0 note=42 velocity=24 time=0
note_on channel=0 note=49 velocity=24 time=0
note_on channel=0 note=58 velocity=29 time=0
note_on channel=0 note=61 velocity=0 time=720
note_on channel=0 note=73 velocity=0 time=0
note_on channel=0 note=70 velocity=0 time=0
note_on channel=0 note=70 velocity=28 time=0
note_on channel=0 note=78 velocity=28 time=0
note_on channel=0 note=85 velocity=33 time=0
note_on channel=0 note=42 velocity=0 time=720
note_on channel=0 note=58 velocity=0 time=0
note_on channel=0 note=49 velocity=0 time=0
note_on channel=0 note=30 velocity=19 time=0
note_on channel=0 note=37 velocity=19 time=0
note_on channel=0 note=46 velocity=23 time=0
note_on channel=0 note=70 velocity=0 time=718
note_on channel=0 note=85 velocity=0 time=0
note_on channel=0 note=78 velocity=0 time=0
note_on channel=0 note=70 velocity=28 time=2
note_on channel=0 note=78 velocity=28 time=0
note_on channel=0 note=85 velocity=33 time=0
note_on channel=0 note=85 velocity=0 time=720
note_on channel=0 note=37 velocity=0 time=0
note_on channel=0 note=30 velocity=0 time=0
note_on channel=0 note=46 velocity=0 time=0
note_on channel=0 note=78 velocity=0 time=0
note_on channel=0 note=70 velocity=0 time=0
note_on channel=0 note=58 velocity=28 time=0
note_on channel=0 note=66 velocity=28 time=0
note_on channel=0 note=73 velocity=33 time=0
note_on channel=0 note=30 velocity=19 time=0
note_on channel=0 note=37 velocity=19 time=0
note_on channel=0 note=46 velocity=23 time=0
note_on channel=0 note=46 velocity=0 time=28
note_on channel=0 note=66 velocity=0 time=0
note_on channel=0 note=73 velocity=0 time=0
note_on channel=0 note=58 velocity=0 time=0
note_on channel=0 note=37 velocity=0 time=0
note_on channel=0 note=30 velocity=0 time=0
note_on channel=0 note=30 velocity=16 time=0
note_on channel=0 note=37 velocity=18 time=13
note_on channel=0 note=46 velocity=20 time=13
note_on channel=0 note=58 velocity=24 time=13
note_on channel=0 note=66 velocity=24 time=13
note_on channel=0 note=73 velocity=33 time=13
note_on channel=0 note=73 velocity=0 time=163
note_on channel=0 note=37 velocity=0 time=0
note_on channel=0 note=46 velocity=0 time=0
note_on channel=0 note=30 velocity=0 time=0
note_on channel=0 note=66 velocity=0 time=0
note_on channel=0 note=58 velocity=0 time=0
control_change channel=0 control=64 value=0 time=320
