note_on channel=0 note=60 velocity=40 time=720
note_on channel=0 note=48 velocity=36 time=0
note_on channel=0 note=48 velocity=0 time=240
note_on channel=0 note=60 velocity=0 time=0
note_on channel=0 note=59 velocity=45 time=0
note_on channel=0 note=47 velocity=38 time=0
control_change channel=0 control=64 value=127 time=78
note_on channel=0 note=47 velocity=0 time=162
note_on channel=0 note=59 velocity=0 time=0
note_on channel=0 note=60 velocity=40 time=0
note_on channel=0 note=48 velocity=35 time=0
control_change channel=0 control=64 value=0 time=12
note_on channel=0 note=48 velocity=0 time=0
note_on channel=0 note=60 velocity=0 time=0
note_on channel=0 note=65 velocity=45 time=0
note_on channel=0 note=53 velocity=38 time=0
note_on channel=0 note=53 velocity=0 time=120
note_on channel=0 note=65 velocity=0 time=0
note_on channel=0 note=65 velocity=38 time=0
note_on channel=0 note=53 velocity=34 time=0
note_on channel=0 note=53 velocity=0 time=120
note_on channel=0 note=65 velocity=0 time=0
note_on channel=0 note=63 velocity=45 time=0
note_on channel=0 note=51 velocity=38 time=0
note_on channel=0 note=51 velocity=0 time=480
note_on channel=0 note=63 velocity=0 time=0
note_on channel=0 note=60 velocity=40 time=0
note_on channel=0 note=48 velocity=36 time=0
note_on channel=0 note=48 velocity=0 time=240
note_on channel=0 note=60 velocity=0 time=0
note_on channel=0 note=59 velocity=45 time=0
note_on channel=0 note=47 velocity=38 time=0
control_change channel=0 control=64 value=127 time=78
note_on channel=0 note=47 velocity=0 time=162
note_on channel=0 note=59 velocity=0 time=0
note_on channel=0 note=60 velocity=40 time=0
note_on channel=0 note=48 velocity=35 time=0
control_change channel=0 control=64 value=0 time=17
note_on channel=0 note=48 velocity=0 time=0
note_on channel=0 note=60 velocity=0 time=0
note_on channel=0 note=68 velocity=45 time=0
note_on channel=0 note=56 velocity=38 time=0
note_on channel=0 note=56 velocity=0 time=120
note_on channel=0 note=68 velocity=0 time=0
note_on channel=0 note=68 velocity=38 time=0
note_on channel=0 note=56 velocity=34 time=0
note_on channel=0 note=56 velocity=0 time=120
note_on channel=0 note=68 velocity=0 time=0
note_on channel=0 note=67 velocity=45 time=0
note_on channel=0 note=55 velocity=38 time=0
note_on channel=0 note=55 velocity=0 time=480
note_on channel=0 note=67 velocity=0 time=0
note_on channel=0 note=60 velocity=40 time=0
note_on channel=0 note=60 velocity=0 time=240
note_on channel=0 note=59 velocity=45 time=0
control_change channel=0 control=64 value=127 time=85
note_on channel=0 note=59 velocity=0 time=155
note_on channel=0 note=60 velocity=40 time=0
control_change channel=0 control=64 value=0 time=21
note_on channel=0 note=60 velocity=0 time=0
note_on channel=0 note=72 velocity=45 time=0
note_on channel=0 note=72 velocity=0 time=120
note_on channel=0 note=72 velocity=38 time=0
note_on channel=0 note=72 velocity=0 time=120
note_on channel=0 note=72 velocity=45 time=0
note_on channel=0 note=56 velocity=38 time=0
note_on channel=0 note=60 velocity=38 time=0
note_on channel=0 note=66 velocity=38 time=0
control_change channel=0 control=64 value=127 time=3
note_on channel=0 note=72 velocity=0 time=237
note_on channel=0 note=74 velocity=45 time=0
note_on channel=0 note=74 velocity=0 time=60
note_on channel=0 note=72 velocity=45 time=0
note_on channel=0 note=72 velocity=0 time=60
note_on channel=0 note=71 velocity=40 time=0
note_on channel=0 note=71 velocity=0 time=60
note_on channel=0 note=72 velocity=45 time=0
note_on channel=0 note=72 velocity=0 time=60
note_on channel=0 note=75 velocity=50 time=0
control_change channel=0 control=64 value=0 time=11
control_change channel=0 control=64 value=127 time=55
note_on channel=0 note=75 velocity=0 time=174
note_on channel=0 note=74 velocity=45 time=0
note_on channel=0 note=74 velocity=0 time=0
note_on channel=0 note=77 velocity=56 time=0
control_change channel=0 control=64 value=0 time=23
control_change channel=0 control=64 value=127 time=63
note_on channel=0 note=77 velocity=0 time=154
note_on channel=0 note=75 velocity=53 time=0
note_on channel=0 note=75 velocity=0 time=240
note_on channel=0 note=74 velocity=50 time=0
control_change channel=0 control=64 value=0 time=11
control_change channel=0 control=64 value=127 time=29
note_on channel=0 note=74 velocity=0 time=0
note_on channel=0 note=72 velocity=47 time=0
note_on channel=0 note=72 velocity=0 time=0
note_on channel=0 note=56 velocity=0 time=0
note_on channel=0 note=60 velocity=0 time=0
note_on channel=0 note=66 velocity=0 time=0
note_on channel=0 note=71 velocity=51 time=0
note_on channel=0 note=67 velocity=38 time=0
note_on channel=0 note=62 velocity=32 time=0
note_on channel=0 note=55 velocity=32 time=0
control_change channel=0 control=64 value=0 time=0
note_on channel=0 note=55 velocity=0 time=480
note_on channel=0 note=71 velocity=0 time=0
note_on channel=0 note=67 velocity=0 time=0
note_on channel=0 note=62 velocity=0 time=0
note_on channel=0 note=55 velocity=40 time=240
note_on channel=0 note=43 velocity=36 time=0
note_on channel=0 note=43 velocity=0 time=0
note_on channel=0 note=55 velocity=0 time=0
note_on channel=0 note=54 velocity=45 time=0
note_on channel=0 note=42 velocity=38 time=0
control_change channel=0 control=64 value=127 time=113
note_on channel=0 note=42 velocity=0 time=127
note_on channel=0 note=54 velocity=0 time=0
note_on channel=0 note=55 velocity=40 time=0
note_on channel=0 note=43 velocity=35 time=0
control_change channel=0 control=64 value=0 time=15
note_on channel=0 note=43 velocity=0 time=0
note_on channel=0 note=55 velocity=0 time=0
note_on channel=0 note=60 velocity=45 time=0
note_on channel=0 note=48 velocity=38 time=0
note_on channel=0 note=48 velocity=0 time=120
note_on channel=0 note=60 velocity=0 time=0
note_on channel=0 note=60 velocity=38 time=0
note_on channel=0 note=48 velocity=34 time=0
note_on channel=0 note=48 velocity=0 time=120
note_on channel=0 note=60 velocity=0 time=0
note_on channel=0 note=59 velocity=45 time=0
note_on channel=0 note=47 velocity=38 time=0
note_on channel=0 note=47 velocity=0 time=480
note_on channel=0 note=59 velocity=0 time=0
note_on channel=0 note=55 velocity=40 time=240
note_on channel=0 note=43 velocity=36 time=0
note_on channel=0 note=43 velocity=0 time=0
note_on channel=0 note=55 velocity=0 time=0
note_on channel=0 note=54 velocity=45 time=0
note_on channel=0 note=42 velocity=38 time=0
control_change channel=0 control=64 value=127 time=50
note_on channel=0 note=42 velocity=0 time=190
note_on channel=0 note=54 velocity=0 time=0
note_on channel=0 note=55 velocity=40 time=0
note_on channel=0 note=43 velocity=35 time=0
control_change channel=0 control=64 value=0 time=16
note_on channel=0 note=43 velocity=0 time=0
note_on channel=0 note=55 velocity=0 time=0
note_on channel=0 note=63 velocity=45 time=0
note_on channel=0 note=51 velocity=38 time=0
note_on channel=0 note=51 velocity=0 time=120
note_on channel=0 note=63 velocity=0 time=0
note_on channel=0 note=63 velocity=38 time=0
note_on channel=0 note=51 velocity=34 time=0
note_on channel=0 note=51 velocity=0 time=120
note_on channel=0 note=63 velocity=0 time=0
note_on channel=0 note=62 velocity=45 time=0
note_on channel=0 note=50 velocity=38 time=0
note_on channel=0 note=50 velocity=0 time=480
note_on channel=0 note=62 velocity=0 time=0
note_on channel=0 note=55 velocity=45 time=240
note_on channel=0 note=43 velocity=37 time=0
note_on channel=0 note=43 velocity=0 time=120
note_on channel=0 note=55 velocity=0 time=0
note_on channel=0 note=59 velocity=51 time=0
note_on channel=0 note=47 velocity=43 time=0
note_on channel=0 note=47 velocity=0 time=120
note_on channel=0 note=59 velocity=0 time=0
note_on channel=0 note=62 velocity=45 time=120
note_on channel=0 note=50 velocity=37 time=0
note_on channel=0 note=50 velocity=0 time=120
note_on channel=0 note=62 velocity=0 time=0
note_on channel=0 note=65 velocity=45 time=120
note_on channel=0 note=53 velocity=37 time=0
note_on channel=0 note=53 velocity=0 time=120
note_on channel=0 note=65 velocity=0 time=0
note_on channel=0 note=68 velocity=45 time=120
note_on channel=0 note=56 velocity=37 time=0
note_on channel=0 note=56 velocity=0 time=120
note_on channel=0 note=68 velocity=0 time=0
note_on channel=0 note=71 velocity=55 time=120
note_on channel=0 note=59 velocity=46 time=0
note_on channel=0 note=59 velocity=0 time=120
note_on channel=0 note=71 velocity=0 time=0
note_on channel=0 note=74 velocity=53 time=120
note_on channel=0 note=62 velocity=45 time=0
note_on channel=0 note=62 velocity=0 time=120
note_on channel=0 note=74 velocity=0 time=0
note_on channel=0 note=77 velocity=56 time=120
note_on channel=0 note=65 velocity=47 time=0
note_on channel=0 note=65 velocity=0 time=120
note_on channel=0 note=77 velocity=0 time=0
note_on channel=0 note=80 velocity=60 time=0
note_on channel=0 note=68 velocity=50 time=0
note_on channel=0 note=68 velocity=0 time=120
note_on channel=0 note=80 velocity=0 time=0
note_on channel=0 note=79 velocity=63 time=0
note_on channel=0 note=67 velocity=53 time=0
note_on channel=0 note=67 velocity=0 time=120
note_on channel=0 note=79 velocity=0 time=0
note_on channel=0 note=77 velocity=59 time=120
note_on channel=0 note=65 velocity=50 time=0
note_on channel=0 note=65 velocity=0 time=120
note_on channel=0 note=77 velocity=0 time=0
note_on channel=0 note=75 velocity=55 time=120
note_on channel=0 note=63 velocity=46 time=0
note_on channel=0 note=63 velocity=0 time=120
note_on channel=0 note=75 velocity=0 time=0
note_on channel=0 note=74 velocity=54 time=0
note_on channel=0 note=62 velocity=45 time=0
note_on channel=0 note=62 velocity=0 time=120
note_on channel=0 note=74 velocity=0 time=0
note_on channel=0 note=72 velocity=62 time=0
note_on channel=0 note=60 velocity=42 time=0
control_change channel=0 control=64 value=127 time=0
note_on channel=0 note=60 velocity=0 time=120
note_on channel=0 note=63 velocity=32 time=120
note_on channel=0 note=67 velocity=38 time=0
note_on channel=0 note=67 velocity=0 time=120
note_on channel=0 note=63 velocity=0 time=0
note_on channel=0 note=72 velocity=0 time=120
note_on channel=0 note=63 velocity=32 time=0
note_on channel=0 note=67 velocity=38 time=0
note_on channel=0 note=67 velocity=0 time=120
note_on channel=0 note=63 velocity=0 time=0
note_on channel=0 note=72 velocity=50 time=120
note_on channel=0 note=63 velocity=32 time=0
note_on channel=0 note=67 velocity=38 time=0
note_on channel=0 note=67 velocity=0 time=120
note_on channel=0 note=63 velocity=0 time=0
note_on channel=0 note=72 velocity=0 time=0
note_on channel=0 note=71 velocity=57 time=0
note_on channel=0 note=60 velocity=42 time=0
control_change channel=0 control=64 value=0 time=7
control_change channel=0 control=64 value=127 time=68
note_on channel=0 note=60 velocity=0 time=45
note_on channel=0 note=71 velocity=0 time=120
note_on channel=0 note=72 velocity=53 time=0
note_on channel=0 note=64 velocity=31 time=0
note_on channel=0 note=67 velocity=31 time=0
note_on channel=0 note=70 velocity=37 time=0
control_change channel=0 control=64 value=0 time=13
note_on channel=0 note=70 velocity=0 time=107
note_on channel=0 note=67 velocity=0 time=0
note_on channel=0 note=64 velocity=0 time=0
note_on channel=0 note=72 velocity=0 time=0
note_on channel=0 note=84 velocity=60 time=0
note_on channel=0 note=64 velocity=31 time=0
note_on channel=0 note=67 velocity=31 time=0
note_on channel=0 note=70 velocity=37 time=0
note_on channel=0 note=70 velocity=0 time=120
note_on channel=0 note=84 velocity=0 time=0
note_on channel=0 note=64 velocity=0 time=0
note_on channel=0 note=67 velocity=0 time=0
note_on channel=0 note=84 velocity=52 time=0
note_on channel=0 note=64 velocity=31 time=0
note_on channel=0 note=67 velocity=31 time=0
note_on channel=0 note=70 velocity=37 time=0
note_on channel=0 note=70 velocity=0 time=120
note_on channel=0 note=84 velocity=0 time=0
note_on channel=0 note=64 velocity=0 time=0
note_on channel=0 note=67 velocity=0 time=0
note_on channel=0 note=84 velocity=60 time=0
note_on channel=0 note=60 velocity=42 time=0
control_change channel=0 control=64 value=127 time=21
note_on channel=0 note=60 velocity=0 time=0
note_on channel=0 note=65 velocity=32 time=120
note_on channel=0 note=68 velocity=38 time=0
note_on channel=0 note=68 velocity=0 time=120
note_on channel=0 note=65 velocity=0 time=0
note_on channel=0 note=84 velocity=0 time=120
note_on channel=0 note=65 velocity=32 time=0
note_on channel=0 note=68 velocity=38 time=0
note_on channel=0 note=68 velocity=0 time=120
note_on channel=0 note=65 velocity=0 time=0
note_on channel=0 note=89 velocity=59 time=120
note_on channel=0 note=65 velocity=32 time=0
note_on channel=0 note=68 velocity=38 time=0
note_on channel=0 note=68 velocity=0 time=120
note_on channel=0 note=65 velocity=0 time=0
note_on channel=0 note=89 velocity=0 time=120
note_on channel=0 note=87 velocity=65 time=0
note_on channel=0 note=60 velocity=42 time=0
control_change channel=0 control=64 value=0 time=17
control_change channel=0 control=64 value=127 time=74
note_on channel=0 note=60 velocity=0 time=29
note_on channel=0 note=87 velocity=0 time=120
note_on channel=0 note=86 velocity=60 time=0
note_on channel=0 note=65 velocity=31 time=0
note_on channel=0 note=68 velocity=31 time=0
note_on channel=0 note=71 velocity=37 time=0
note_on channel=0 note=71 velocity=0 time=120
note_on channel=0 note=68 velocity=0 time=0
note_on channel=0 note=65 velocity=0 time=0
note_on channel=0 note=86 velocity=0 time=120
note_on channel=0 note=84 velocity=66 time=0
note_on channel=0 note=65 velocity=31 time=0
note_on channel=0 note=68 velocity=31 time=0
note_on channel=0 note=71 velocity=37 time=0
control_change channel=0 control=64 value=0 time=10
control_change channel=0 control=64 value=127 time=61
note_on channel=0 note=71 velocity=0 time=49
note_on channel=0 note=68 velocity=0 time=0
note_on channel=0 note=65 velocity=0 time=0
note_on channel=0 note=84 velocity=0 time=0
note_on channel=0 note=83 velocity=60 time=0
note_on channel=0 note=65 velocity=31 time=0
note_on channel=0 note=68 velocity=31 time=0
note_on channel=0 note=71 velocity=37 time=0
note_on channel=0 note=71 velocity=0 time=120
note_on channel=0 note=68 velocity=0 time=0
note_on channel=0 note=65 velocity=0 time=0
note_on channel=0 note=83 velocity=0 time=0
note_on channel=0 note=86 velocity=69 time=0
note_on channel=0 note=60 velocity=42 time=0
control_change channel=0 control=64 value=0 time=17
control_change channel=0 control=64 value=127 time=46
note_on channel=0 note=60 velocity=0 time=57
note_on channel=0 note=86 velocity=0 time=120
note_on channel=0 note=84 velocity=60 time=0
note_on channel=0 note=63 velocity=32 time=0
note_on channel=0 note=67 velocity=38 time=0
control_change channel=0 control=64 value=0 time=10
note_on channel=0 note=67 velocity=0 time=110
note_on channel=0 note=63 velocity=0 time=0
note_on channel=0 note=84 velocity=0 time=120
note_on channel=0 note=63 velocity=32 time=0
note_on channel=0 note=67 velocity=38 time=0
note_on channel=0 note=67 velocity=0 time=120
note_on channel=0 note=63 velocity=0 time=0
note_on channel=0 note=72 velocity=50 time=120
note_on channel=0 note=63 velocity=32 time=0
note_on channel=0 note=67 velocity=38 time=0
note_on channel=0 note=67 velocity=0 time=120
note_on channel=0 note=63 velocity=0 time=0
note_on channel=0 note=72 velocity=0 time=0
note_on channel=0 note=71 velocity=57 time=0
note_on channel=0 note=60 velocity=42 time=0
control_change channel=0 control=64 value=127 time=52
note_on channel=0 note=60 velocity=0 time=68
note_on channel=0 note=71 velocity=0 time=120
note_on channel=0 note=72 velocity=53 time=0
note_on channel=0 note=64 velocity=31 time=0
note_on channel=0 note=67 velocity=31 time=0
note_on channel=0 note=70 velocity=37 time=0
control_change channel=0 control=64 value=0 time=10
note_on channel=0 note=70 velocity=0 time=110
note_on channel=0 note=67 velocity=0 time=0
note_on channel=0 note=64 velocity=0 time=0
note_on channel=0 note=72 velocity=0 time=0
note_on channel=0 note=84 velocity=60 time=0
note_on channel=0 note=64 velocity=31 time=0
note_on channel=0 note=67 velocity=31 time=0
note_on channel=0 note=70 velocity=37 time=0
note_on channel=0 note=70 velocity=0 time=120
note_on channel=0 note=84 velocity=0 time=0
note_on channel=0 note=64 velocity=0 time=0
note_on channel=0 note=67 velocity=0 time=0
note_on channel=0 note=84 velocity=52 time=0
note_on channel=0 note=64 velocity=31 time=0
note_on channel=0 note=67 velocity=31 time=0
note_on channel=0 note=70 velocity=37 time=0
note_on channel=0 note=70 velocity=0 time=120
note_on channel=0 note=84 velocity=0 time=0
note_on channel=0 note=64 velocity=0 time=0
note_on channel=0 note=67 velocity=0 time=0
note_on channel=0 note=84 velocity=60 time=0
note_on channel=0 note=60 velocity=42 time=0
control_change channel=0 control=64 value=127 time=20
note_on channel=0 note=60 velocity=0 time=100
note_on channel=0 note=65 velocity=32 time=120
note_on channel=0 note=68 velocity=38 time=0
note_on channel=0 note=68 velocity=0 time=120
note_on channel=0 note=65 velocity=0 time=0
note_on channel=0 note=84 velocity=0 time=0
note_on channel=0 note=86 velocity=60 time=0
note_on channel=0 note=65 velocity=32 time=0
note_on channel=0 note=68 velocity=38 time=0
control_change channel=0 control=64 value=0 time=15
control_change channel=0 control=64 value=127 time=34
note_on channel=0 note=86 velocity=0 time=11
note_on channel=0 note=84 velocity=60 time=0
note_on channel=0 note=84 velocity=0 time=60
note_on channel=0 note=68 velocity=0 time=0
note_on channel=0 note=65 velocity=0 time=0
note_on channel=0 note=83 velocity=60 time=0
note_on channel=0 note=83 velocity=0 time=60
note_on channel=0 note=84 velocity=60 time=0
note_on channel=0 note=84 velocity=0 time=0
note_on channel=0 note=89 velocity=59 time=0
note_on channel=0 note=65 velocity=32 time=0
note_on channel=0 note=68 velocity=38 time=0
note_on channel=0 note=68 velocity=0 time=120
note_on channel=0 note=65 velocity=0 time=0
note_on channel=0 note=89 velocity=0 time=0
note_on channel=0 note=87 velocity=65 time=0
note_on channel=0 note=60 velocity=42 time=0
control_change channel=0 control=64 value=0 time=20
control_change channel=0 control=64 value=127 time=52
note_on channel=0 note=60 velocity=0 time=48
note_on channel=0 note=87 velocity=0 time=120
note_on channel=0 note=86 velocity=60 time=0
note_on channel=0 note=65 velocity=31 time=0
note_on channel=0 note=68 velocity=31 time=0
note_on channel=0 note=71 velocity=37 time=0
note_on channel=0 note=71 velocity=0 time=120
note_on channel=0 note=68 velocity=0 time=0
note_on channel=0 note=65 velocity=0 time=0
note_on channel=0 note=86 velocity=0 time=120
note_on channel=0 note=84 velocity=66 time=0
note_on channel=0 note=65 velocity=31 time=0
note_on channel=0 note=68 velocity=31 time=0
note_on channel=0 note=71 velocity=37 time=0
control_change channel=0 control=64 value=0 time=8
control_change channel=0 control=64 value=127 time=49
note_on channel=0 note=71 velocity=0 time=63
note_on channel=0 note=68 velocity=0 time=0
note_on channel=0 note=65 velocity=0 time=0
note_on channel=0 note=84 velocity=0 time=0
note_on channel=0 note=83 velocity=60 time=0
note_on channel=0 note=65 velocity=31 time=0
note_on channel=0 note=68 velocity=31 time=0
note_on channel=0 note=71 velocity=37 time=0
note_on channel=0 note=71 velocity=0 time=120
note_on channel=0 note=68 velocity=0 time=0
note_on channel=0 note=65 velocity=0 time=0
note_on channel=0 note=83 velocity=0 time=0
note_on channel=0 note=84 velocity=69 time=0
note_on channel=0 note=60 velocity=36 time=0
note_on channel=0 note=63 velocity=36 time=0
note_on channel=0 note=67 velocity=36 time=0
control_change channel=0 control=64 value=0 time=0
note_on channel=0 note=72 velocity=44 time=7
control_change channel=0 control=64 value=127 time=85
note_on channel=0 note=84 velocity=0 time=28
note_on channel=0 note=86 velocity=63 time=0
note_on channel=0 note=86 velocity=0 time=120
note_on channel=0 note=84 velocity=63 time=0
note_on channel=0 note=84 velocity=0 time=120
note_on channel=0 note=83 velocity=63 time=0
note_on channel=0 note=83 velocity=0 time=120
note_on channel=0 note=60 velocity=0 time=0
note_on channel=0 note=67 velocity=0 time=0
note_on channel=0 note=63 velocity=0 time=0
note_on channel=0 note=84 velocity=69 time=0
control_change channel=0 control=64 value=0 time=0
note_on channel=0 note=72 velocity=0 time=7
note_on channel=0 note=84 velocity=0 time=113
note_on channel=0 note=87 velocity=73 time=0
note_on channel=0 note=87 velocity=0 time=120
note_on channel=0 note=86 velocity=72 time=0
note_on channel=0 note=66 velocity=42 time=0
control_change channel=0 control=64 value=127 time=63
note_on channel=0 note=86 velocity=0 time=0
note_on channel=0 note=84 velocity=71 time=0
note_on channel=0 note=84 velocity=0 time=0
note_on channel=0 note=66 velocity=0 time=0
note_on channel=0 note=83 velocity=72 time=0
note_on channel=0 note=67 velocity=52 time=0
control_change channel=0 control=64 value=0 time=9
control_change channel=0 control=64 value=127 time=77
note_on channel=0 note=83 velocity=0 time=34
note_on channel=0 note=84 velocity=65 time=0
note_on channel=0 note=84 velocity=0 time=120
note_on channel=0 note=83 velocity=65 time=0
note_on channel=0 note=83 velocity=0 time=120
note_on channel=0 note=80 velocity=65 time=0
control_change channel=0 control=64 value=0 time=69
note_on channel=0 note=80 velocity=0 time=51
note_on channel=0 note=67 velocity=0 time=0
note_on channel=0 note=79 velocity=69 time=0
note_on channel=0 note=79 velocity=0 time=120
note_on channel=0 note=77 velocity=63 time=0
note_on channel=0 note=77 velocity=0 time=120
note_on channel=0 note=75 velocity=63 time=0
note_on channel=0 note=59 velocity=48 time=0
control_change channel=0 control=64 value=127 time=57
note_on channel=0 note=75 velocity=0 time=0
note_on channel=0 note=74 velocity=63 time=0
note_on channel=0 note=74 velocity=0 time=0
note_on channel=0 note=59 velocity=0 time=0
note_on channel=0 note=72 velocity=69 time=0
note_on channel=0 note=60 velocity=57 time=0
control_change channel=0 control=64 value=0 time=0
control_change channel=0 control=64 value=127 time=80
note_on channel=0 note=72 velocity=0 time=40
note_on channel=0 note=74 velocity=63 time=0
note_on channel=0 note=74 velocity=0 time=120
note_on channel=0 note=72 velocity=63 time=0
control_change channel=0 control=64 value=0 time=10
note_on channel=0 note=72 velocity=0 time=110
note_on channel=0 note=71 velocity=61 time=0
note_on channel=0 note=71 velocity=0 time=120
note_on channel=0 note=60 velocity=0 time=0
note_on channel=0 note=72 velocity=66 time=0
note_on channel=0 note=72 velocity=0 time=120
note_on channel=0 note=75 velocity=72 time=0
note_on channel=0 note=75 velocity=0 time=120
note_on channel=0 note=74 velocity=70 time=0
note_on channel=0 note=54 velocity=54 time=0
control_change channel=0 control=64 value=127 time=34
note_on channel=0 note=74 velocity=0 time=0
note_on channel=0 note=72 velocity=67 time=0
note_on channel=0 note=72 velocity=0 time=0
note_on channel=0 note=54 velocity=0 time=0
note_on channel=0 note=71 velocity=69 time=0
note_on channel=0 note=55 velocity=63 time=0
control_change channel=0 control=64 value=0 time=9
note_on channel=0 note=71 velocity=0 time=111
note_on channel=0 note=72 velocity=63 time=0
control_change channel=0 control=64 value=127 time=17
note_on channel=0 note=72 velocity=0 time=103
note_on channel=0 note=71 velocity=63 time=0
control_change channel=0 control=64 value=0 time=10
note_on channel=0 note=71 velocity=0 time=110
note_on channel=0 note=68 velocity=63 time=0
note_on channel=0 note=68 velocity=0 time=120
note_on channel=0 note=55 velocity=0 time=0
note_on channel=0 note=67 velocity=69 time=0
note_on channel=0 note=67 velocity=0 time=120
note_on channel=0 note=65 velocity=63 time=0
note_on channel=0 note=65 velocity=0 time=120
note_on channel=0 note=63 velocity=63 time=0
note_on channel=0 note=47 velocity=57 time=0
control_change channel=0 control=64 value=127 time=69
note_on channel=0 note=63 velocity=0 time=0
note_on channel=0 note=62 velocity=63 time=0
note_on channel=0 note=62 velocity=0 time=0
note_on channel=0 note=47 velocity=0 time=0
note_on channel=0 note=60 velocity=77 time=0
note_on channel=0 note=48 velocity=66 time=0
control_change channel=0 control=64 value=0 time=15
control_change channel=0 control=64 value=127 time=82
note_on channel=0 note=60 velocity=0 time=23
note_on channel=0 note=62 velocity=69 time=0
note_on channel=0 note=62 velocity=0 time=120
note_on channel=0 note=60 velocity=69 time=0
control_change channel=0 control=64 value=0 time=11
note_on channel=0 note=60 velocity=0 time=109
note_on channel=0 note=59 velocity=69 time=0
note_on channel=0 note=59 velocity=0 time=120
note_on channel=0 note=48 velocity=0 time=0
note_on channel=0 note=60 velocity=77 time=0
note_on channel=0 note=60 velocity=0 time=120
note_on channel=0 note=63 velocity=69 time=0
note_on channel=0 note=63 velocity=0 time=120
note_on channel=0 note=62 velocity=69 time=0
note_on channel=0 note=42 velocity=58 time=0
control_change channel=0 control=64 value=127 time=46
note_on channel=0 note=62 velocity=0 time=0
note_on channel=0 note=60 velocity=69 time=0
note_on channel=0 note=60 velocity=0 time=0
note_on channel=0 note=42 velocity=0 time=0
note_on channel=0 note=59 velocity=77 time=0
note_on channel=0 note=43 velocity=67 time=0
control_change channel=0 control=64 value=0 time=23
control_change channel=0 control=64 value=127 time=92
note_on channel=0 note=59 velocity=0 time=5
note_on channel=0 note=67 velocity=69 time=0
note_on channel=0 note=67 velocity=0 time=120
note_on channel=0 note=62 velocity=69 time=0
note_on channel=0 note=62 velocity=0 time=120
note_on channel=0 note=59 velocity=69 time=0
note_on channel=0 note=59 velocity=0 time=120
note_on channel=0 note=43 velocity=0 time=0
note_on channel=0 note=55 velocity=79 time=0
note_on channel=0 note=36 velocity=82 time=0
note_on channel=0 note=48 velocity=96 time=0
control_change channel=0 control=64 value=0 time=6
control_change channel=0 control=64 value=127 time=74
note_on channel=0 note=55 velocity=0 time=40
note_on channel=0 note=67 velocity=69 time=0
note_on channel=0 note=67 velocity=0 time=120
note_on channel=0 note=48 velocity=0 time=0
note_on channel=0 note=36 velocity=0 time=0
note_on channel=0 note=63 velocity=69 time=0
note_on channel=0 note=63 velocity=0 time=120
note_on channel=0 note=60 velocity=69 time=0
note_on channel=0 note=60 velocity=0 time=120
note_on channel=0 note=55 velocity=81 time=0
note_on channel=0 note=31 velocity=55 time=0
note_on channel=0 note=43 velocity=66 time=0
control_change channel=0 control=64 value=0 time=0
control_change channel=0 control=64 value=127 time=69
note_on channel=0 note=55 velocity=0 time=51
note_on channel=0 note=67 velocity=69 time=0
note_on channel=0 note=67 velocity=0 time=120
note_on channel=0 note=43 velocity=0 time=0
note_on channel=0 note=31 velocity=0 time=0
note_on channel=0 note=62 velocity=69 time=0
control_change channel=0 control=64 value=0 time=14
control_change channel=0 control=64 value=127 time=43
note_on channel=0 note=62 velocity=0 time=63
note_on channel=0 note=59 velocity=69 time=0
note_on channel=0 note=59 velocity=0 time=120
note_on channel=0 note=55 velocity=80 time=0
note_on channel=0 note=36 velocity=82 time=0
note_on channel=0 note=48 velocity=97 time=0
control_change channel=0 control=64 value=0 time=19
control_change channel=0 control=64 value=127 time=67
note_on channel=0 note=55 velocity=0 time=34
note_on channel=0 note=67 velocity=69 time=0
note_on channel=0 note=67 velocity=0 time=120
note_on channel=0 note=48 velocity=0 time=0
note_on channel=0 note=36 velocity=0 time=0
note_on channel=0 note=63 velocity=69 time=0
control_change channel=0 control=64 value=0 time=13
control_change channel=0 control=64 value=127 time=67
note_on channel=0 note=63 velocity=0 time=40
note_on channel=0 note=60 velocity=69 time=0
note_on channel=0 note=60 velocity=0 time=120
note_on channel=0 note=55 velocity=80 time=0
note_on channel=0 note=31 velocity=57 time=0
note_on channel=0 note=43 velocity=68 time=0
control_change channel=0 control=64 value=0 time=20
control_change channel=0 control=64 value=127 time=60
note_on channel=0 note=55 velocity=0 time=40
note_on channel=0 note=67 velocity=69 time=0
note_on channel=0 note=67 velocity=0 time=120
note_on channel=0 note=43 velocity=0 time=0
note_on channel=0 note=31 velocity=0 time=0
note_on channel=0 note=62 velocity=69 time=0
control_change channel=0 control=64 value=0 time=17
control_change channel=0 control=64 value=127 time=80
note_on channel=0 note=62 velocity=0 time=23
note_on channel=0 note=59 velocity=69 time=0
note_on channel=0 note=59 velocity=0 time=120
note_on channel=0 note=55 velocity=80 time=0
note_on channel=0 note=36 velocity=82 time=0
note_on channel=0 note=48 velocity=97 time=0
control_change channel=0 control=64 value=0 time=17
control_change channel=0 control=64 value=127 time=75
note_on channel=0 note=55 velocity=0 time=28
note_on channel=0 note=67 velocity=69 time=0
note_on channel=0 note=67 velocity=0 time=120
note_on channel=0 note=48 velocity=0 time=0
note_on channel=0 note=36 velocity=0 time=0
note_on channel=0 note=63 velocity=69 time=0
control_change channel=0 control=64 value=0 time=15
control_change channel=0 control=64 value=127 time=100
note_on channel=0 note=63 velocity=0 time=0
note_on channel=0 note=60 velocity=69 time=0
note_on channel=0 note=60 velocity=0 time=0
note_on channel=0 note=55 velocity=74 time=0
note_on channel=0 note=59 velocity=74 time=0
note_on channel=0 note=62 velocity=74 time=0
note_on channel=0 note=67 velocity=89 time=0
note_on channel=0 note=31 velocity=66 time=0
note_on channel=0 note=35 velocity=66 time=0
note_on channel=0 note=38 velocity=66 time=0
note_on channel=0 note=43 velocity=78 time=0
control_change channel=0 control=64 value=0 time=0
note_on channel=0 note=43 velocity=0 time=0
note_on channel=0 note=55 velocity=0 time=0
note_on channel=0 note=31 velocity=0 time=0
note_on channel=0 note=59 velocity=0 time=0
note_on channel=0 note=62 velocity=0 time=0
note_on channel=0 note=67 velocity=0 time=0
note_on channel=0 note=35 velocity=0 time=0
note_on channel=0 note=38 velocity=0 time=0
note_on channel=0 note=58 velocity=40 time=240
note_on channel=0 note=58 velocity=0 time=120
note_on channel=0 note=60 velocity=37 time=120
note_on channel=0 note=60 velocity=0 time=120
note_on channel=0 note=62 velocity=37 time=120
note_on channel=0 note=62 velocity=0 time=120
note_on channel=0 note=55 velocity=39 time=120
note_on channel=0 note=58 velocity=39 time=0
note_on channel=0 note=63 velocity=46 time=0
note_on channel=0 note=39 velocity=26 time=0
note_on channel=0 note=51 velocity=31 time=0
note_on channel=0 note=63 velocity=0 time=120
note_on channel=0 note=65 velocity=40 time=120
note_on channel=0 note=65 velocity=0 time=120
note_on channel=0 note=67 velocity=40 time=0
note_on channel=0 note=67 velocity=0 time=120
note_on channel=0 note=39 velocity=0 time=0
note_on channel=0 note=55 velocity=0 time=0
note_on channel=0 note=58 velocity=0 time=0
note_on channel=0 note=51 velocity=0 time=0
note_on channel=0 note=58 velocity=38 time=0
note_on channel=0 note=62 velocity=38 time=0
note_on channel=0 note=65 velocity=45 time=0
note_on channel=0 note=44 velocity=25 time=0
note_on channel=0 note=56 velocity=30 time=0
note_on channel=0 note=56 velocity=0 time=120
note_on channel=0 note=65 velocity=0 time=0
note_on channel=0 note=58 velocity=0 time=0
note_on channel=0 note=62 velocity=0 time=0
note_on channel=0 note=44 velocity=0 time=0
note_on channel=0 note=58 velocity=33 time=360
note_on channel=0 note=63 velocity=39 time=0
note_on channel=0 note=43 velocity=23 time=0
note_on channel=0 note=55 velocity=27 time=0
note_on channel=0 note=55 velocity=0 time=120
note_on channel=0 note=58 velocity=0 time=0
note_on channel=0 note=63 velocity=0 time=0
note_on channel=0 note=43 velocity=0 time=0
note_on channel=0 note=56 velocity=37 time=0
note_on channel=0 note=58 velocity=37 time=0
note_on channel=0 note=62 velocity=37 time=0
note_on channel=0 note=68 velocity=45 time=0
note_on channel=0 note=46 velocity=27 time=0
note_on channel=0 note=41 velocity=27 time=0
note_on channel=0 note=53 velocity=32 time=0
note_on channel=0 note=53 velocity=0 time=960
note_on channel=0 note=46 velocity=0 time=0
note_on channel=0 note=58 velocity=0 time=0
note_on channel=0 note=62 velocity=0 time=0
note_on channel=0 note=56 velocity=0 time=0
note_on channel=0 note=41 velocity=0 time=0
note_on channel=0 note=68 velocity=0 time=0
note_on channel=0 note=58 velocity=40 time=0
note_on channel=0 note=58 velocity=0 time=120
note_on channel=0 note=60 velocity=37 time=120
note_on channel=0 note=60 velocity=0 time=120
note_on channel=0 note=62 velocity=37 time=120
note_on channel=0 note=62 velocity=0 time=120
note_on channel=0 note=55 velocity=39 time=120
note_on channel=0 note=58 velocity=39 time=0
note_on channel=0 note=63 velocity=46 time=0
note_on channel=0 note=39 velocity=26 time=0
note_on channel=0 note=51 velocity=31 time=0
note_on channel=0 note=63 velocity=0 time=120
note_on channel=0 note=65 velocity=40 time=120
note_on channel=0 note=65 velocity=0 time=120
note_on channel=0 note=67 velocity=40 time=0
note_on channel=0 note=67 velocity=0 time=120
note_on channel=0 note=39 velocity=0 time=0
note_on channel=0 note=55 velocity=0 time=0
note_on channel=0 note=58 velocity=0 time=0
note_on channel=0 note=51 velocity=0 time=0
note_on channel=0 note=53 velocity=38 time=0
note_on channel=0 note=60 velocity=38 time=0
note_on channel=0 note=65 velocity=45 time=0
note_on channel=0 note=32 velocity=25 time=0
note_on channel=0 note=44 velocity=30 time=0
note_on channel=0 note=44 velocity=0 time=120
note_on channel=0 note=65 velocity=0 time=0
note_on channel=0 note=53 velocity=0 time=0
note_on channel=0 note=60 velocity=0 time=0
note_on channel=0 note=32 velocity=0 time=0
note_on channel=0 note=60 velocity=33 time=360
note_on channel=0 note=53 velocity=33 time=0
note_on channel=0 note=63 velocity=39 time=0
note_on channel=0 note=33 velocity=23 time=0
note_on channel=0 note=45 velocity=27 time=0
note_on channel=0 note=45 velocity=0 time=120
note_on channel=0 note=63 velocity=0 time=0
note_on channel=0 note=60 velocity=0 time=0
note_on channel=0 note=53 velocity=0 time=0
note_on channel=0 note=33 velocity=0 time=0
note_on channel=0 note=50 velocity=31 time=0
note_on channel=0 note=53 velocity=31 time=0
note_on channel=0 note=58 velocity=37 time=0
note_on channel=0 note=34 velocity=22 time=0
note_on channel=0 note=46 velocity=27 time=0
note_on channel=0 note=46 velocity=0 time=960
note_on channel=0 note=58 velocity=0 time=0
note_on channel=0 note=50 velocity=0 time=0
note_on channel=0 note=53 velocity=0 time=0
note_on channel=0 note=34 velocity=0 time=0
note_on channel=0 note=58 velocity=40 time=0
note_on channel=0 note=58 velocity=0 time=120
note_on channel=0 note=60 velocity=37 time=120
note_on channel=0 note=60 velocity=0 time=120
note_on channel=0 note=62 velocity=37 time=120
note_on channel=0 note=62 velocity=0 time=120
note_on channel=0 note=55 velocity=39 time=120
note_on channel=0 note=58 velocity=39 time=0
note_on channel=0 note=63 velocity=46 time=0
note_on channel=0 note=39 velocity=26 time=0
note_on channel=0 note=51 velocity=31 time=0
note_on channel=0 note=63 velocity=0 time=120
note_on channel=0 note=65 velocity=40 time=120
note_on channel=0 note=65 velocity=0 time=120
note_on channel=0 note=67 velocity=40 time=0
note_on channel=0 note=67 velocity=0 time=120
note_on channel=0 note=39 velocity=0 time=0
note_on channel=0 note=55 velocity=0 time=0
note_on channel=0 note=58 velocity=0 time=0
note_on channel=0 note=51 velocity=0 time=0
note_on channel=0 note=58 velocity=38 time=0
note_on channel=0 note=62 velocity=38 time=0
note_on channel=0 note=65 velocity=45 time=0
note_on channel=0 note=44 velocity=25 time=0
note_on channel=0 note=56 velocity=30 time=0
note_on channel=0 note=56 velocity=0 time=120
note_on channel=0 note=65 velocity=0 time=0
note_on channel=0 note=58 velocity=0 time=0
note_on channel=0 note=62 velocity=0 time=0
note_on channel=0 note=44 velocity=0 time=0
note_on channel=0 note=58 velocity=33 time=360
note_on channel=0 note=63 velocity=39 time=0
note_on channel=0 note=43 velocity=23 time=0
note_on channel=0 note=55 velocity=27 time=0
note_on channel=0 note=55 velocity=0 time=120
note_on channel=0 note=58 velocity=0 time=0
note_on channel=0 note=63 velocity=0 time=0
note_on channel=0 note=43 velocity=0 time=0
note_on channel=0 note=44 velocity=28 time=15
note_on channel=0 note=48 velocity=32 time=15
note_on channel=0 note=51 velocity=36 time=15
note_on channel=0 note=56 velocity=40 time=15
note_on channel=0 note=60 velocity=45 time=15
note_on channel=0 note=63 velocity=50 time=15
note_on channel=0 note=68 velocity=63 time=15
note_on channel=0 note=72 velocity=72 time=0
note_on channel=0 note=56 velocity=0 time=480
note_on channel=0 note=51 velocity=0 time=0
note_on channel=0 note=44 velocity=0 time=0
note_on channel=0 note=48 velocity=0 time=0
note_on channel=0 note=60 velocity=0 time=480
note_on channel=0 note=68 velocity=0 time=0
note_on channel=0 note=63 velocity=0 time=0
note_on channel=0 note=72 velocity=0 time=240
note_on channel=0 note=72 velocity=48 time=0
note_on channel=0 note=72 velocity=0 time=120
note_on channel=0 note=70 velocity=53 time=120
note_on channel=0 note=70 velocity=0 time=120
note_on channel=0 note=68 velocity=50 time=0
note_on channel=0 note=68 velocity=0 time=120
note_on channel=0 note=67 velocity=53 time=0
note_on channel=0 note=46 velocity=80 time=0
note_on channel=0 note=67 velocity=0 time=240
note_on channel=0 note=65 velocity=48 time=0
note_on channel=0 note=65 velocity=0 time=240
note_on channel=0 note=63 velocity=48 time=0
note_on channel=0 note=63 velocity=0 time=120
note_on channel=0 note=62 velocity=48 time=120
note_on channel=0 note=62 velocity=0 time=120
note_on channel=0 note=53 velocity=45 time=120
note_on channel=0 note=56 velocity=45 time=0
note_on channel=0 note=60 velocity=53 time=0
note_on channel=0 note=34 velocity=49 time=240
note_on channel=0 note=34 velocity=0 time=120
note_on channel=0 note=60 velocity=0 time=120
note_on channel=0 note=58 velocity=49 time=0
note_on channel=0 note=36 velocity=53 time=0
note_on channel=0 note=36 velocity=0 time=120
note_on channel=0 note=38 velocity=45 time=0
note_on channel=0 note=38 velocity=0 time=120
note_on channel=0 note=58 velocity=0 time=0
note_on channel=0 note=56 velocity=0 time=0
note_on channel=0 note=53 velocity=0 time=0
note_on channel=0 note=51 velocity=41 time=0
note_on channel=0 note=55 velocity=41 time=0
note_on channel=0 note=58 velocity=49 time=0
note_on channel=0 note=39 velocity=53 time=0
note_on channel=0 note=39 velocity=0 time=120
note_on channel=0 note=41 velocity=49 time=120
note_on channel=0 note=41 velocity=0 time=120
note_on channel=0 note=43 velocity=51 time=120
note_on channel=0 note=43 velocity=0 time=120
note_on channel=0 note=55 velocity=0 time=0
note_on channel=0 note=58 velocity=0 time=0
note_on channel=0 note=51 velocity=0 time=0
note_on channel=0 note=41 velocity=53 time=0
note_on channel=0 note=70 velocity=48 time=240
note_on channel=0 note=70 velocity=0 time=120
note_on channel=0 note=41 velocity=0 time=120
note_on channel=0 note=68 velocity=53 time=0
note_on channel=0 note=39 velocity=50 time=0
note_on channel=0 note=68 velocity=0 time=120
note_on channel=0 note=67 velocity=50 time=0
note_on channel=0 note=67 velocity=0 time=120
note_on channel=0 note=39 velocity=0 time=0
note_on channel=0 note=46 velocity=0 time=0
note_on channel=0 note=67 velocity=53 time=0
note_on channel=0 note=46 velocity=80 time=0
note_on channel=0 note=67 velocity=0 time=240
note_on channel=0 note=65 velocity=48 time=0
note_on channel=0 note=65 velocity=0 time=240
note_on channel=0 note=63 velocity=48 time=0
note_on channel=0 note=63 velocity=0 time=120
note_on channel=0 note=62 velocity=48 time=120
note_on channel=0 note=62 velocity=0 time=120
note_on channel=0 note=53 velocity=45 time=120
note_on channel=0 note=56 velocity=45 time=0
note_on channel=0 note=60 velocity=53 time=0
note_on channel=0 note=34 velocity=49 time=240
note_on channel=0 note=34 velocity=0 time=120
note_on channel=0 note=60 velocity=0 time=120
note_on channel=0 note=58 velocity=49 time=0
note_on channel=0 note=36 velocity=53 time=0
note_on channel=0 note=36 velocity=0 time=120
note_on channel=0 note=38 velocity=45 time=0
note_on channel=0 note=38 velocity=0 time=120
note_on channel=0 note=58 velocity=0 time=0
note_on channel=0 note=56 velocity=0 time=0
note_on channel=0 note=53 velocity=0 time=0
note_on channel=0 note=51 velocity=54 time=0
note_on channel=0 note=55 velocity=54 time=0
note_on channel=0 note=58 velocity=54 time=0
note_on channel=0 note=39 velocity=53 time=0
note_on channel=0 note=39 velocity=0 time=0
note_on channel=0 note=41 velocity=49 time=120
note_on channel=0 note=41 velocity=0 time=120
note_on channel=0 note=43 velocity=51 time=120
note_on channel=0 note=43 velocity=0 time=120
note_on channel=0 note=55 velocity=0 time=0
note_on channel=0 note=58 velocity=0 time=0
note_on channel=0 note=51 velocity=0 time=0
note_on channel=0 note=41 velocity=53 time=0
note_on channel=0 note=82 velocity=48 time=240
note_on channel=0 note=70 velocity=48 time=0
note_on channel=0 note=70 velocity=0 time=120
note_on channel=0 note=82 velocity=0 time=0
note_on channel=0 note=41 velocity=0 time=120
note_on channel=0 note=80 velocity=53 time=0
note_on channel=0 note=68 velocity=53 time=0
note_on channel=0 note=39 velocity=50 time=0
note_on channel=0 note=68 velocity=0 time=120
note_on channel=0 note=80 velocity=0 time=0
note_on channel=0 note=79 velocity=50 time=0
note_on channel=0 note=67 velocity=50 time=0
note_on channel=0 note=67 velocity=0 time=120
note_on channel=0 note=79 velocity=0 time=0
note_on channel=0 note=46 velocity=0 time=0
note_on channel=0 note=39 velocity=0 time=0
note_on channel=0 note=79 velocity=55 time=0
note_on channel=0 note=67 velocity=55 time=0
note_on channel=0 note=44 velocity=45 time=0
note_on channel=0 note=48 velocity=45 time=0
note_on channel=0 note=53 velocity=53 time=0
note_on channel=0 note=67 velocity=0 time=240
note_on channel=0 note=79 velocity=0 time=0
note_on channel=0 note=77 velocity=48 time=0
note_on channel=0 note=65 velocity=48 time=0
note_on channel=0 note=65 velocity=0 time=240
note_on channel=0 note=48 velocity=0 time=0
note_on channel=0 note=53 velocity=0 time=0
note_on channel=0 note=44 velocity=0 time=0
note_on channel=0 note=77 velocity=0 time=0
note_on channel=0 note=75 velocity=48 time=0
note_on channel=0 note=63 velocity=48 time=0
note_on channel=0 note=63 velocity=0 time=120
note_on channel=0 note=75 velocity=0 time=0
note_on channel=0 note=74 velocity=48 time=120
note_on channel=0 note=62 velocity=48 time=0
note_on channel=0 note=62 velocity=0 time=120
note_on channel=0 note=74 velocity=0 time=0
note_on channel=0 note=60 velocity=55 time=0
note_on channel=0 note=72 velocity=55 time=0
note_on channel=0 note=46 velocity=42 time=0
note_on channel=0 note=53 velocity=42 time=0
note_on channel=0 note=56 velocity=50 time=0
note_on channel=0 note=72 velocity=0 time=120
note_on channel=0 note=60 velocity=0 time=0
note_on channel=0 note=58 velocity=48 time=120
note_on channel=0 note=70 velocity=48 time=0
note_on channel=0 note=70 velocity=0 time=120
note_on channel=0 note=58 velocity=0 time=0
note_on channel=0 note=56 velocity=0 time=120
note_on channel=0 note=46 velocity=0 time=0
note_on channel=0 note=53 velocity=0 time=0
note_on channel=0 note=60 velocity=48 time=0
note_on channel=0 note=72 velocity=48 time=0
note_on channel=0 note=72 velocity=0 time=120
note_on channel=0 note=60 velocity=0 time=0
note_on channel=0 note=62 velocity=48 time=0
note_on channel=0 note=74 velocity=48 time=0
note_on channel=0 note=74 velocity=0 time=120
note_on channel=0 note=62 velocity=0 time=0
note_on channel=0 note=63 velocity=48 time=10
note_on channel=0 note=55 velocity=58 time=0
note_on channel=0 note=51 velocity=49 time=0
control_change channel=0 control=64 value=127 time=14
note_on channel=0 note=63 velocity=0 time=10
note_on channel=0 note=75 velocity=43 time=0
note_on channel=0 note=75 velocity=0 time=10
note_on channel=0 note=63 velocity=48 time=0
note_on channel=0 note=63 velocity=0 time=10
note_on channel=0 note=75 velocity=42 time=0
note_on channel=0 note=75 velocity=0 time=70
note_on channel=0 note=51 velocity=0 time=0
note_on channel=0 note=55 velocity=0 time=0
note_on channel=0 note=63 velocity=49 time=0
note_on channel=0 note=63 velocity=0 time=10
note_on channel=0 note=75 velocity=43 time=0
note_on channel=0 note=75 velocity=0 time=10
note_on channel=0 note=63 velocity=50 time=0
note_on channel=0 note=51 velocity=54 time=0
note_on channel=0 note=63 velocity=0 time=10
note_on channel=0 note=75 velocity=45 time=0
note_on channel=0 note=75 velocity=0 time=10
note_on channel=0 note=51 velocity=0 time=0
note_on channel=0 note=63 velocity=51 time=0
note_on channel=0 note=50 velocity=60 time=0
control_change channel=0 control=64 value=0 time=6
control_change channel=0 control=64 value=127 time=12
note_on channel=0 note=63 velocity=0 time=25
note_on channel=0 note=75 velocity=44 time=0
note_on channel=0 note=75 velocity=0 time=40
note_on channel=0 note=50 velocity=0 time=0
note_on channel=0 note=63 velocity=52 time=0
note_on channel=0 note=51 velocity=55 time=0
note_on channel=0 note=63 velocity=0 time=10
note_on channel=0 note=75 velocity=47 time=0
note_on channel=0 note=75 velocity=0 time=10
note_on channel=0 note=51 velocity=0 time=0
note_on channel=0 note=63 velocity=53 time=0
note_on channel=0 note=48 velocity=52 time=0
note_on channel=0 note=56 velocity=62 time=0
control_change channel=0 control=64 value=0 time=10
control_change channel=0 control=64 value=127 time=61
note_on channel=0 note=56 velocity=0 time=49
note_on channel=0 note=48 velocity=0 time=0
note_on channel=0 note=63 velocity=0 time=0
note_on channel=0 note=75 velocity=47 time=0
note_on channel=0 note=75 velocity=0 time=0
note_on channel=0 note=63 velocity=53 time=0
note_on channel=0 note=48 velocity=48 time=0
note_on channel=0 note=56 velocity=57 time=0
note_on channel=0 note=56 velocity=0 time=120
note_on channel=0 note=48 velocity=0 time=0
note_on channel=0 note=63 velocity=0 time=0
note_on channel=0 note=75 velocity=47 time=0
note_on channel=0 note=75 velocity=0 time=0
note_on channel=0 note=63 velocity=54 time=0
note_on channel=0 note=55 velocity=65 time=0
note_on channel=0 note=46 velocity=55 time=0
control_change channel=0 control=64 value=0 time=0
note_on channel=0 note=63 velocity=0 time=10
note_on channel=0 note=75 velocity=48 time=0
control_change channel=0 control=64 value=127 time=60
note_on channel=0 note=75 velocity=0 time=10
note_on channel=0 note=63 velocity=55 time=0
note_on channel=0 note=63 velocity=0 time=10
note_on channel=0 note=75 velocity=48 time=0
note_on channel=0 note=75 velocity=0 time=70
note_on channel=0 note=46 velocity=0 time=0
note_on channel=0 note=55 velocity=0 time=0
note_on channel=0 note=63 velocity=55 time=0
note_on channel=0 note=63 velocity=0 time=10
note_on channel=0 note=75 velocity=48 time=0
note_on channel=0 note=75 velocity=0 time=10
note_on channel=0 note=63 velocity=56 time=0
note_on channel=0 note=51 velocity=61 time=0
note_on channel=0 note=63 velocity=0 time=10
note_on channel=0 note=75 velocity=51 time=0
note_on channel=0 note=75 velocity=0 time=10
note_on channel=0 note=51 velocity=0 time=0
note_on channel=0 note=63 velocity=57 time=0
note_on channel=0 note=50 velocity=68 time=0
control_change channel=0 control=64 value=0 time=6
control_change channel=0 control=64 value=127 time=12
note_on channel=0 note=63 velocity=0 time=25
note_on channel=0 note=75 velocity=49 time=0
note_on channel=0 note=75 velocity=0 time=40
note_on channel=0 note=50 velocity=0 time=0
note_on channel=0 note=63 velocity=58 time=0
note_on channel=0 note=51 velocity=63 time=0
note_on channel=0 note=63 velocity=0 time=10
note_on channel=0 note=75 velocity=53 time=0
note_on channel=0 note=75 velocity=0 time=10
note_on channel=0 note=51 velocity=0 time=0
note_on channel=0 note=63 velocity=59 time=0
note_on channel=0 note=56 velocity=58 time=0
note_on channel=0 note=60 velocity=69 time=0
control_change channel=0 control=64 value=0 time=10
control_change channel=0 control=64 value=127 time=61
note_on channel=0 note=60 velocity=0 time=49
note_on channel=0 note=56 velocity=0 time=0
note_on channel=0 note=63 velocity=0 time=0
note_on channel=0 note=75 velocity=54 time=0
note_on channel=0 note=75 velocity=0 time=0
note_on channel=0 note=63 velocity=60 time=0
note_on channel=0 note=56 velocity=54 time=0
note_on channel=0 note=60 velocity=64 time=0
note_on channel=0 note=60 velocity=0 time=120
note_on channel=0 note=56 velocity=0 time=0
note_on channel=0 note=63 velocity=0 time=0
note_on channel=0 note=75 velocity=54 time=0
note_on channel=0 note=75 velocity=0 time=120
note_on channel=0 note=63 velocity=70 time=0
note_on channel=0 note=75 velocity=70 time=0
note_on channel=0 note=58 velocity=71 time=0
note_on channel=0 note=55 velocity=71 time=0
control_change channel=0 control=64 value=0 time=0
control_change channel=0 control=64 value=127 time=6
note_on channel=0 note=55 velocity=0 time=27
note_on channel=0 note=58 velocity=0 time=0
note_on channel=0 note=51 velocity=62 time=0
note_on channel=0 note=51 velocity=0 time=57
note_on channel=0 note=63 velocity=54 time=0
note_on channel=0 note=63 velocity=0 time=27
note_on channel=0 note=75 velocity=0 time=0
note_on channel=0 note=63 velocity=0 time=0
note_on channel=0 note=51 velocity=63 time=0
note_on channel=0 note=51 velocity=0 time=27
note_on channel=0 note=63 velocity=56 time=0
note_on channel=0 note=63 velocity=0 time=57
note_on channel=0 note=75 velocity=74 time=0
note_on channel=0 note=51 velocity=63 time=0
note_on channel=0 note=51 velocity=0 time=57
note_on channel=0 note=63 velocity=57 time=0
note_on channel=0 note=63 velocity=0 time=87
note_on channel=0 note=75 velocity=0 time=0
note_on channel=0 note=74 velocity=84 time=0
note_on channel=0 note=51 velocity=63 time=0
control_change channel=0 control=64 value=0 time=14
control_change channel=0 control=64 value=127 time=78
note_on channel=0 note=51 velocity=0 time=27
note_on channel=0 note=63 velocity=55 time=0
note_on channel=0 note=63 velocity=0 time=87
note_on channel=0 note=74 velocity=0 time=0
note_on channel=0 note=75 velocity=77 time=0
note_on channel=0 note=51 velocity=64 time=0
note_on channel=0 note=51 velocity=0 time=27
note_on channel=0 note=63 velocity=59 time=0
note_on channel=0 note=63 velocity=0 time=0
note_on channel=0 note=75 velocity=0 time=0
note_on channel=0 note=84 velocity=86 time=0
note_on channel=0 note=80 velocity=86 time=0
note_on channel=0 note=51 velocity=65 time=0
control_change channel=0 control=64 value=0 time=6
control_change channel=0 control=64 value=127 time=72
note_on channel=0 note=51 velocity=0 time=42
note_on channel=0 note=80 velocity=0 time=0
note_on channel=0 note=84 velocity=0 time=0
note_on channel=0 note=63 velocity=58 time=0
note_on channel=0 note=63 velocity=0 time=0
note_on channel=0 note=80 velocity=79 time=0
note_on channel=0 note=84 velocity=79 time=0
note_on channel=0 note=51 velocity=66 time=0
note_on channel=0 note=51 velocity=0 time=120
note_on channel=0 note=84 velocity=0 time=0
note_on channel=0 note=80 velocity=0 time=0
note_on channel=0 note=63 velocity=61 time=0
note_on channel=0 note=63 velocity=0 time=27
note_on channel=0 note=80 velocity=92 time=0
note_on channel=0 note=84 velocity=92 time=0
note_on channel=0 note=50 velocity=49 time=0
note_on channel=0 note=53 velocity=49 time=0
note_on channel=0 note=56 velocity=49 time=0
note_on channel=0 note=58 velocity=49 time=0
control_change channel=0 control=64 value=0 time=0
note_on channel=0 note=62 velocity=66 time=27
control_change channel=0 control=64 value=127 time=173
note_on channel=0 note=80 velocity=0 time=280
note_on channel=0 note=84 velocity=0 time=120
note_on channel=0 note=82 velocity=74 time=0
note_on channel=0 note=82 velocity=0 time=120
note_on channel=0 note=80 velocity=73 time=0
note_on channel=0 note=80 velocity=0 time=107
note_on channel=0 note=79 velocity=72 time=0
note_on channel=0 note=79 velocity=0 time=120
note_on channel=0 note=77 velocity=72 time=0
note_on channel=0 note=77 velocity=0 time=47
note_on channel=0 note=75 velocity=72 time=0
note_on channel=0 note=75 velocity=0 time=120
note_on channel=0 note=74 velocity=71 time=0
note_on channel=0 note=74 velocity=0 time=120
note_on channel=0 note=72 velocity=70 time=0
note_on channel=0 note=72 velocity=0 time=107
note_on channel=0 note=71 velocity=69 time=0
note_on channel=0 note=71 velocity=0 time=120
note_on channel=0 note=70 velocity=68 time=0
note_on channel=0 note=70 velocity=0 time=47
note_on channel=0 note=69 velocity=67 time=0
note_on channel=0 note=69 velocity=0 time=120
note_on channel=0 note=68 velocity=66 time=0
note_on channel=0 note=68 velocity=0 time=120
note_on channel=0 note=58 velocity=0 time=0
note_on channel=0 note=56 velocity=0 time=0
note_on channel=0 note=53 velocity=0 time=0
note_on channel=0 note=50 velocity=0 time=0
note_on channel=0 note=67 velocity=66 time=0
note_on channel=0 note=51 velocity=49 time=0
note_on channel=0 note=55 velocity=49 time=0
note_on channel=0 note=58 velocity=49 time=0
note_on channel=0 note=63 velocity=66 time=0
control_change channel=0 control=64 value=0 time=0
note_on channel=0 note=62 velocity=0 time=14
note_on channel=0 note=67 velocity=0 time=133
note_on channel=0 note=68 velocity=62 time=0
control_change channel=0 control=64 value=127 time=24
note_on channel=0 note=68 velocity=0 time=136
note_on channel=0 note=70 velocity=62 time=0
note_on channel=0 note=70 velocity=0 time=160
note_on channel=0 note=58 velocity=0 time=0
note_on channel=0 note=55 velocity=0 time=0
note_on channel=0 note=63 velocity=0 time=0
note_on channel=0 note=51 velocity=0 time=0
note_on channel=0 note=68 velocity=66 time=0
note_on channel=0 note=68 velocity=0 time=27
note_on channel=0 note=67 velocity=62 time=0
note_on channel=0 note=67 velocity=0 time=67
note_on channel=0 note=65 velocity=62 time=0
note_on channel=0 note=65 velocity=0 time=107
note_on channel=0 note=63 velocity=66 time=0
control_change channel=0 control=64 value=0 time=5
control_change channel=0 control=64 value=127 time=65
note_on channel=0 note=63 velocity=0 time=27
note_on channel=0 note=62 velocity=62 time=0
note_on channel=0 note=62 velocity=0 time=160
note_on channel=0 note=60 velocity=62 time=0
note_on channel=0 note=60 velocity=0 time=160
note_on channel=0 note=58 velocity=66 time=0
note_on channel=0 note=58 velocity=0 time=160
note_on channel=0 note=56 velocity=60 time=0
note_on channel=0 note=56 velocity=0 time=80
note_on channel=0 note=55 velocity=63 time=0
note_on channel=0 note=55 velocity=0 time=0
note_on channel=0 note=32 velocity=73 time=0
note_on channel=0 note=44 velocity=73 time=0
control_change channel=0 control=64 value=0 time=0
control_change channel=0 control=64 value=127 time=92
note_on channel=0 note=53 velocity=59 time=28
note_on channel=0 note=53 velocity=0 time=0
note_on channel=0 note=44 velocity=0 time=0
note_on channel=0 note=32 velocity=0 time=0
note_on channel=0 note=56 velocity=63 time=0
note_on channel=0 note=56 velocity=0 time=120
note_on channel=0 note=60 velocity=67 time=0
note_on channel=0 note=60 velocity=0 time=120
note_on channel=0 note=65 velocity=72 time=0
control_change channel=0 control=64 value=0 time=16
note_on channel=0 note=65 velocity=0 time=224
note_on channel=0 note=32 velocity=63 time=0
note_on channel=0 note=44 velocity=63 time=0
note_on channel=0 note=44 velocity=0 time=120
note_on channel=0 note=32 velocity=0 time=0
note_on channel=0 note=34 velocity=70 time=0
note_on channel=0 note=46 velocity=70 time=0
control_change channel=0 control=64 value=127 time=78
note_on channel=0 note=53 velocity=63 time=42
note_on channel=0 note=53 velocity=0 time=0
note_on channel=0 note=46 velocity=0 time=0
note_on channel=0 note=34 velocity=0 time=0
note_on channel=0 note=56 velocity=66 time=0
note_on channel=0 note=56 velocity=0 time=120
note_on channel=0 note=58 velocity=69 time=0
note_on channel=0 note=58 velocity=0 time=120
note_on channel=0 note=62 velocity=72 time=0
control_change channel=0 control=64 value=0 time=14
note_on channel=0 note=62 velocity=0 time=0
note_on channel=0 note=34 velocity=63 time=0
note_on channel=0 note=46 velocity=63 time=0
note_on channel=0 note=46 velocity=0 time=120
note_on channel=0 note=34 velocity=0 time=0
note_on channel=0 note=74 velocity=67 time=22
control_change channel=0 control=64 value=127 time=0
note_on channel=0 note=74 velocity=0 time=120
note_on channel=0 note=86 velocity=60 time=0
note_on channel=0 note=86 velocity=0 time=82
note_on channel=0 note=74 velocity=67 time=0
note_on channel=0 note=68 velocity=63 time=0
note_on channel=0 note=68 velocity=0 time=52
note_on channel=0 note=74 velocity=0 time=0
note_on channel=0 note=86 velocity=60 time=0
note_on channel=0 note=70 velocity=65 time=0
note_on channel=0 note=70 velocity=0 time=120
note_on channel=0 note=86 velocity=0 time=0
note_on channel=0 note=74 velocity=67 time=0
note_on channel=0 note=72 velocity=69 time=0
note_on channel=0 note=72 velocity=0 time=112
note_on channel=0 note=74 velocity=0 time=0
note_on channel=0 note=86 velocity=59 time=0
note_on channel=0 note=70 velocity=67 time=0
note_on channel=0 note=70 velocity=0 time=82
note_on channel=0 note=86 velocity=0 time=0
note_on channel=0 note=74 velocity=67 time=0
note_on channel=0 note=68 velocity=65 time=0
note_on channel=0 note=68 velocity=0 time=82
note_on channel=0 note=74 velocity=0 time=0
note_on channel=0 note=86 velocity=61 time=0
note_on channel=0 note=67 velocity=64 time=0
note_on channel=0 note=67 velocity=0 time=120
note_on channel=0 note=86 velocity=0 time=0
note_on channel=0 note=74 velocity=67 time=0
note_on channel=0 note=65 velocity=67 time=0
note_on channel=0 note=74 velocity=0 time=120
note_on channel=0 note=86 velocity=59 time=0
note_on channel=0 note=65 velocity=0 time=32
note_on channel=0 note=63 velocity=61 time=0
note_on channel=0 note=86 velocity=0 time=80
note_on channel=0 note=74 velocity=67 time=0
note_on channel=0 note=63 velocity=0 time=80
note_on channel=0 note=62 velocity=61 time=0
note_on channel=0 note=74 velocity=0 time=40
note_on channel=0 note=86 velocity=59 time=0
note_on channel=0 note=86 velocity=0 time=22
note_on channel=0 note=62 velocity=0 time=0
note_on channel=0 note=74 velocity=67 time=0
note_on channel=0 note=60 velocity=67 time=0
note_on channel=0 note=74 velocity=0 time=120
note_on channel=0 note=86 velocity=59 time=0
note_on channel=0 note=60 velocity=0 time=40
note_on channel=0 note=58 velocity=62 time=0
note_on channel=0 note=86 velocity=0 time=80
note_on channel=0 note=74 velocity=67 time=0
note_on channel=0 note=58 velocity=0 time=12
note_on channel=0 note=56 velocity=62 time=0
note_on channel=0 note=74 velocity=0 time=40
note_on channel=0 note=86 velocity=60 time=0
note_on channel=0 note=86 velocity=0 time=0
note_on channel=0 note=56 velocity=0 time=0
note_on channel=0 note=75 velocity=67 time=0
note_on channel=0 note=55 velocity=67 time=0
control_change channel=0 control=64 value=0 time=12
control_change channel=0 control=64 value=127 time=80
note_on channel=0 note=75 velocity=0 time=28
note_on channel=0 note=87 velocity=60 time=0
note_on channel=0 note=55 velocity=0 time=2
note_on channel=0 note=56 velocity=63 time=0
note_on channel=0 note=87 velocity=0 time=80
note_on channel=0 note=75 velocity=69 time=0
note_on channel=0 note=56 velocity=0 time=12
note_on channel=0 note=58 velocity=63 time=0
note_on channel=0 note=75 velocity=0 time=40
note_on channel=0 note=87 velocity=62 time=0
note_on channel=0 note=87 velocity=0 time=120
note_on channel=0 note=58 velocity=0 time=0
note_on channel=0 note=75 velocity=71 time=0
note_on channel=0 note=56 velocity=67 time=0
note_on channel=0 note=75 velocity=0 time=112
note_on channel=0 note=87 velocity=63 time=0
note_on channel=0 note=56 velocity=0 time=2
note_on channel=0 note=55 velocity=60 time=0
note_on channel=0 note=87 velocity=0 time=80
note_on channel=0 note=75 velocity=72 time=0
note_on channel=0 note=55 velocity=0 time=42
note_on channel=0 note=53 velocity=60 time=0
note_on channel=0 note=75 velocity=0 time=40
note_on channel=0 note=87 velocity=67 time=0
note_on channel=0 note=87 velocity=0 time=120
note_on channel=0 note=53 velocity=0 time=0
note_on channel=0 note=75 velocity=75 time=0
note_on channel=0 note=51 velocity=70 time=0
control_change channel=0 control=64 value=0 time=19
control_change channel=0 control=64 value=127 time=90
note_on channel=0 note=75 velocity=0 time=11
note_on channel=0 note=87 velocity=67 time=0
note_on channel=0 note=51 velocity=0 time=32
note_on channel=0 note=50 velocity=63 time=0
note_on channel=0 note=87 velocity=0 time=80
note_on channel=0 note=75 velocity=77 time=0
note_on channel=0 note=50 velocity=0 time=80
note_on channel=0 note=48 velocity=66 time=0
note_on channel=0 note=75 velocity=0 time=40
note_on channel=0 note=87 velocity=69 time=0
note_on channel=0 note=87 velocity=0 time=22
note_on channel=0 note=48 velocity=0 time=0
note_on channel=0 note=76 velocity=80 time=0
note_on channel=0 note=46 velocity=74 time=0
control_change channel=0 control=64 value=0 time=20
note_on channel=0 note=76 velocity=0 time=100
note_on channel=0 note=88 velocity=71 time=0
control_change channel=0 control=64 value=127 time=0
note_on channel=0 note=46 velocity=0 time=40
note_on channel=0 note=44 velocity=67 time=0
note_on channel=0 note=88 velocity=0 time=80
note_on channel=0 note=76 velocity=81 time=0
note_on channel=0 note=44 velocity=0 time=12
note_on channel=0 note=43 velocity=67 time=0
note_on channel=0 note=76 velocity=0 time=40
note_on channel=0 note=88 velocity=73 time=0
note_on channel=0 note=88 velocity=0 time=0
note_on channel=0 note=43 velocity=0 time=0
note_on channel=0 note=32 velocity=73 time=0
note_on channel=0 note=44 velocity=73 time=0
control_change channel=0 control=64 value=0 time=0
control_change channel=0 control=64 value=127 time=92
note_on channel=0 note=77 velocity=71 time=28
note_on channel=0 note=77 velocity=0 time=0
note_on channel=0 note=44 velocity=0 time=0
note_on channel=0 note=32 velocity=0 time=0
note_on channel=0 note=80 velocity=76 time=0
note_on channel=0 note=80 velocity=0 time=120
note_on channel=0 note=84 velocity=81 time=0
note_on channel=0 note=84 velocity=0 time=120
note_on channel=0 note=89 velocity=86 time=0
control_change channel=0 control=64 value=0 time=16
note_on channel=0 note=89 velocity=0 time=224
note_on channel=0 note=32 velocity=63 time=0
note_on channel=0 note=44 velocity=63 time=0
note_on channel=0 note=44 velocity=0 time=120
note_on channel=0 note=32 velocity=0 time=0
note_on channel=0 note=34 velocity=70 time=0
note_on channel=0 note=46 velocity=70 time=0
control_change channel=0 control=64 value=127 time=78
note_on channel=0 note=74 velocity=75 time=42
note_on channel=0 note=74 velocity=0 time=0
note_on channel=0 note=46 velocity=0 time=0
note_on channel=0 note=34 velocity=0 time=0
note_on channel=0 note=77 velocity=79 time=0
note_on channel=0 note=77 velocity=0 time=120
note_on channel=0 note=80 velocity=82 time=0
note_on channel=0 note=80 velocity=0 time=120
note_on channel=0 note=86 velocity=86 time=0
control_change channel=0 control=64 value=0 time=14
note_on channel=0 note=86 velocity=0 time=0
note_on channel=0 note=34 velocity=63 time=0
note_on channel=0 note=46 velocity=63 time=0
note_on channel=0 note=46 velocity=0 time=120
note_on channel=0 note=34 velocity=0 time=0
note_on channel=0 note=75 velocity=80 time=0
note_on channel=0 note=82 velocity=80 time=0
note_on channel=0 note=79 velocity=80 time=0
note_on channel=0 note=87 velocity=94 time=0
note_on channel=0 note=39 velocity=59 time=0
note_on channel=0 note=43 velocity=59 time=0
note_on channel=0 note=46 velocity=59 time=0
note_on channel=0 note=51 velocity=70 time=0
note_on channel=0 note=51 velocity=0 time=0
note_on channel=0 note=75 velocity=0 time=0
note_on channel=0 note=39 velocity=0 time=0
note_on channel=0 note=82 velocity=0 time=0
note_on channel=0 note=79 velocity=0 time=0
note_on channel=0 note=87 velocity=0 time=0
note_on channel=0 note=43 velocity=0 time=0
note_on channel=0 note=46 velocity=0 time=0
note_on channel=0 note=82 velocity=63 time=0
note_on channel=0 note=64 velocity=53 time=0
note_on channel=0 note=67 velocity=63 time=0
note_on channel=0 note=67 velocity=0 time=120
note_on channel=0 note=64 velocity=0 time=0
note_on channel=0 note=82 velocity=0 time=0
note_on channel=0 note=82 velocity=63 time=0
note_on channel=0 note=64 velocity=53 time=0
note_on channel=0 note=67 velocity=63 time=0
note_on channel=0 note=67 velocity=0 time=120
note_on channel=0 note=64 velocity=0 time=0
note_on channel=0 note=82 velocity=0 time=0
note_on channel=0 note=82 velocity=70 time=0
note_on channel=0 note=65 velocity=59 time=0
note_on channel=0 note=68 velocity=70 time=0
note_on channel=0 note=68 velocity=0 time=240
note_on channel=0 note=65 velocity=0 time=0
note_on channel=0 note=82 velocity=0 time=0
note_on channel=0 note=82 velocity=63 time=0
note_on channel=0 note=64 velocity=53 time=0
note_on channel=0 note=67 velocity=63 time=0
note_on channel=0 note=67 velocity=0 time=120
note_on channel=0 note=64 velocity=0 time=0
note_on channel=0 note=82 velocity=0 time=0
note_on channel=0 note=82 velocity=63 time=0
note_on channel=0 note=64 velocity=53 time=0
note_on channel=0 note=67 velocity=63 time=0
note_on channel=0 note=67 velocity=0 time=120
note_on channel=0 note=64 velocity=0 time=0
note_on channel=0 note=82 velocity=0 time=0
note_on channel=0 note=82 velocity=69 time=0
note_on channel=0 note=65 velocity=59 time=0
note_on channel=0 note=68 velocity=70 time=0
note_on channel=0 note=68 velocity=0 time=240
note_on channel=0 note=65 velocity=0 time=0
note_on channel=0 note=82 velocity=0 time=0
note_on channel=0 note=53 velocity=60 time=0
note_on channel=0 note=56 velocity=60 time=0
note_on channel=0 note=62 velocity=72 time=0
note_on channel=0 note=34 velocity=63 time=0
note_on channel=0 note=46 velocity=74 time=0
note_on channel=0 note=46 velocity=0 time=240
note_on channel=0 note=62 velocity=0 time=0
note_on channel=0 note=53 velocity=0 time=0
note_on channel=0 note=56 velocity=0 time=0
note_on channel=0 note=34 velocity=0 time=0
note_on channel=0 note=53 velocity=33 time=0
note_on channel=0 note=56 velocity=33 time=0
note_on channel=0 note=62 velocity=39 time=0
note_on channel=0 note=35 velocity=30 time=0
note_on channel=0 note=47 velocity=36 time=0
note_on channel=0 note=47 velocity=0 time=120
note_on channel=0 note=62 velocity=0 time=0
note_on channel=0 note=53 velocity=0 time=0
note_on channel=0 note=56 velocity=0 time=0
note_on channel=0 note=35 velocity=0 time=0
note_on channel=0 note=55 velocity=37 time=0
note_on channel=0 note=63 velocity=45 time=0
note_on channel=0 note=36 velocity=32 time=0
note_on channel=0 note=48 velocity=38 time=0
note_on channel=0 note=48 velocity=0 time=120
note_on channel=0 note=55 velocity=0 time=0
note_on channel=0 note=63 velocity=0 time=0
note_on channel=0 note=36 velocity=0 time=0
note_on channel=0 note=60 velocity=35 time=0
note_on channel=0 note=63 velocity=35 time=0
note_on channel=0 note=65 velocity=41 time=0
note_on channel=0 note=33 velocity=30 time=0
note_on channel=0 note=45 velocity=36 time=0
note_on channel=0 note=45 velocity=0 time=120
note_on channel=0 note=65 velocity=0 time=0
note_on channel=0 note=60 velocity=0 time=0
note_on channel=0 note=63 velocity=0 time=0
note_on channel=0 note=33 velocity=0 time=0
note_on channel=0 note=58 velocity=37 time=360
note_on channel=0 note=63 velocity=37 time=0
note_on channel=0 note=67 velocity=45 time=0
note_on channel=0 note=34 velocity=32 time=0
note_on channel=0 note=46 velocity=38 time=0
note_on channel=0 note=46 velocity=0 time=120
note_on channel=0 note=67 velocity=0 time=0
note_on channel=0 note=58 velocity=0 time=0
note_on channel=0 note=63 velocity=0 time=0
note_on channel=0 note=34 velocity=0 time=0
note_on channel=0 note=56 velocity=33 time=0
note_on channel=0 note=62 velocity=33 time=0
note_on channel=0 note=65 velocity=39 time=0
note_on channel=0 note=34 velocity=27 time=0
note_on channel=0 note=46 velocity=33 time=0
note_on channel=0 note=46 velocity=0 time=120
note_on channel=0 note=65 velocity=0 time=0
note_on channel=0 note=56 velocity=0 time=0
note_on channel=0 note=62 velocity=0 time=0
note_on channel=0 note=34 velocity=0 time=0
note_on channel=0 note=55 velocity=37 time=0
note_on channel=0 note=63 velocity=45 time=0
note_on channel=0 note=39 velocity=32 time=0
note_on channel=0 note=51 velocity=38 time=0
note_on channel=0 note=51 velocity=0 time=120
note_on channel=0 note=55 velocity=0 time=0
note_on channel=0 note=63 velocity=0 time=0
note_on channel=0 note=39 velocity=0 time=0
note_on channel=0 note=82 velocity=63 time=0
note_on channel=0 note=64 velocity=53 time=0
note_on channel=0 note=67 velocity=63 time=0
note_on channel=0 note=67 velocity=0 time=120
note_on channel=0 note=64 velocity=0 time=0
note_on channel=0 note=82 velocity=0 time=0
note_on channel=0 note=84 velocity=59 time=0
note_on channel=0 note=84 velocity=0 time=0
note_on channel=0 note=82 velocity=63 time=0
note_on channel=0 note=64 velocity=53 time=0
note_on channel=0 note=67 velocity=63 time=0
note_on channel=0 note=67 velocity=0 time=120
note_on channel=0 note=64 velocity=0 time=0
note_on channel=0 note=82 velocity=0 time=0
note_on channel=0 note=81 velocity=59 time=0
note_on channel=0 note=81 velocity=0 time=0
note_on channel=0 note=82 velocity=70 time=0
note_on channel=0 note=65 velocity=59 time=0
note_on channel=0 note=68 velocity=70 time=0
note_on channel=0 note=68 velocity=0 time=240
note_on channel=0 note=65 velocity=0 time=0
note_on channel=0 note=82 velocity=0 time=0
note_on channel=0 note=82 velocity=63 time=0
note_on channel=0 note=64 velocity=53 time=0
note_on channel=0 note=67 velocity=63 time=0
note_on channel=0 note=67 velocity=0 time=120
note_on channel=0 note=64 velocity=0 time=0
note_on channel=0 note=82 velocity=0 time=0
note_on channel=0 note=84 velocity=58 time=0
note_on channel=0 note=84 velocity=0 time=0
note_on channel=0 note=82 velocity=63 time=0
note_on channel=0 note=64 velocity=53 time=0
note_on channel=0 note=67 velocity=63 time=0
note_on channel=0 note=67 velocity=0 time=120
note_on channel=0 note=64 velocity=0 time=0
note_on channel=0 note=82 velocity=0 time=0
note_on channel=0 note=81 velocity=57 time=0
note_on channel=0 note=81 velocity=0 time=0
note_on channel=0 note=82 velocity=69 time=0
note_on channel=0 note=65 velocity=59 time=0
note_on channel=0 note=68 velocity=70 time=0
note_on channel=0 note=68 velocity=0 time=240
note_on channel=0 note=65 velocity=0 time=0
note_on channel=0 note=82 velocity=0 time=0
note_on channel=0 note=53 velocity=60 time=0
note_on channel=0 note=56 velocity=60 time=0
note_on channel=0 note=62 velocity=72 time=0
note_on channel=0 note=34 velocity=63 time=0
note_on channel=0 note=46 velocity=74 time=0
note_on channel=0 note=46 velocity=0 time=240
note_on channel=0 note=62 velocity=0 time=0
note_on channel=0 note=53 velocity=0 time=0
note_on channel=0 note=56 velocity=0 time=0
note_on channel=0 note=34 velocity=0 time=0
note_on channel=0 note=51 velocity=55 time=0
note_on channel=0 note=54 velocity=55 time=0
note_on channel=0 note=57 velocity=55 time=0
note_on channel=0 note=63 velocity=66 time=0
note_on channel=0 note=35 velocity=55 time=0
note_on channel=0 note=39 velocity=55 time=0
note_on channel=0 note=42 velocity=55 time=0
note_on channel=0 note=47 velocity=65 time=0
note_on channel=0 note=47 velocity=0 time=0
note_on channel=0 note=51 velocity=0 time=0
note_on channel=0 note=35 velocity=0 time=0
note_on channel=0 note=54 velocity=0 time=0
note_on channel=0 note=57 velocity=0 time=0
note_on channel=0 note=63 velocity=0 time=0
note_on channel=0 note=39 velocity=0 time=0
note_on channel=0 note=42 velocity=0 time=0
note_on channel=0 note=60 velocity=35 time=0
note_on channel=0 note=63 velocity=35 time=0
note_on channel=0 note=65 velocity=41 time=0
note_on channel=0 note=33 velocity=30 time=0
note_on channel=0 note=45 velocity=36 time=0
note_on channel=0 note=45 velocity=0 time=120
note_on channel=0 note=65 velocity=0 time=0
note_on channel=0 note=60 velocity=0 time=0
note_on channel=0 note=63 velocity=0 time=0
note_on channel=0 note=33 velocity=0 time=0
note_on channel=0 note=58 velocity=37 time=360
note_on channel=0 note=63 velocity=37 time=0
note_on channel=0 note=67 velocity=45 time=0
note_on channel=0 note=34 velocity=32 time=0
note_on channel=0 note=46 velocity=38 time=0
note_on channel=0 note=46 velocity=0 time=120
note_on channel=0 note=67 velocity=0 time=0
note_on channel=0 note=58 velocity=0 time=0
note_on channel=0 note=63 velocity=0 time=0
note_on channel=0 note=34 velocity=0 time=0
note_on channel=0 note=56 velocity=33 time=0
note_on channel=0 note=62 velocity=33 time=0
note_on channel=0 note=65 velocity=39 time=0
note_on channel=0 note=34 velocity=27 time=0
note_on channel=0 note=46 velocity=33 time=0
note_on channel=0 note=46 velocity=0 time=120
note_on channel=0 note=65 velocity=0 time=0
note_on channel=0 note=56 velocity=0 time=0
note_on channel=0 note=62 velocity=0 time=0
note_on channel=0 note=34 velocity=0 time=0
note_on channel=0 note=55 velocity=37 time=0
note_on channel=0 note=63 velocity=45 time=0
note_on channel=0 note=39 velocity=32 time=0
control_change channel=0 control=64 value=127 time=28
note_on channel=0 note=39 velocity=0 time=212
note_on channel=0 note=63 velocity=0 time=0
note_on channel=0 note=55 velocity=0 time=0
note_on channel=0 note=51 velocity=27 time=0
note_on channel=0 note=51 velocity=0 time=0
note_on channel=0 note=62 velocity=30 time=0
note_on channel=0 note=68 velocity=36 time=0
control_change channel=0 control=64 value=0 time=14
control_change channel=0 control=64 value=127 time=170
note_on channel=0 note=68 velocity=0 time=0
note_on channel=0 note=62 velocity=0 time=0
note_on channel=0 note=63 velocity=27 time=0
note_on channel=0 note=67 velocity=32 time=0
note_on channel=0 note=67 velocity=0 time=0
note_on channel=0 note=63 velocity=0 time=0
note_on channel=0 note=39 velocity=32 time=0
control_change channel=0 control=64 value=0 time=12
control_change channel=0 control=64 value=127 time=144
note_on channel=0 note=39 velocity=0 time=84
note_on channel=0 note=51 velocity=28 time=0
note_on channel=0 note=51 velocity=0 time=0
note_on channel=0 note=68 velocity=31 time=0
note_on channel=0 note=74 velocity=37 time=0
control_change channel=0 control=64 value=0 time=12
control_change channel=0 control=64 value=127 time=129
note_on channel=0 note=74 velocity=0 time=0
note_on channel=0 note=68 velocity=0 time=0
note_on channel=0 note=67 velocity=27 time=0
note_on channel=0 note=75 velocity=32 time=0
note_on channel=0 note=75 velocity=0 time=0
note_on channel=0 note=67 velocity=0 time=0
note_on channel=0 note=39 velocity=32 time=0
control_change channel=0 control=64 value=0 time=4
control_change channel=0 control=64 value=127 time=123
note_on channel=0 note=39 velocity=0 time=113
note_on channel=0 note=51 velocity=28 time=0
note_on channel=0 note=51 velocity=0 time=0
note_on channel=0 note=80 velocity=37 time=0
note_on channel=0 note=74 velocity=31 time=0
control_change channel=0 control=64 value=0 time=14
control_change channel=0 control=64 value=127 time=113
note_on channel=0 note=74 velocity=0 time=0
note_on channel=0 note=80 velocity=0 time=0
note_on channel=0 note=75 velocity=27 time=0
note_on channel=0 note=79 velocity=32 time=0
note_on channel=0 note=79 velocity=0 time=0
note_on channel=0 note=75 velocity=0 time=0
note_on channel=0 note=39 velocity=32 time=0
control_change channel=0 control=64 value=0 time=12
control_change channel=0 control=64 value=127 time=129
note_on channel=0 note=39 velocity=0 time=99
note_on channel=0 note=51 velocity=27 time=0
note_on channel=0 note=51 velocity=0 time=0
note_on channel=0 note=86 velocity=43 time=0
note_on channel=0 note=80 velocity=36 time=0
control_change channel=0 control=64 value=0 time=7
control_change channel=0 control=64 value=127 time=149
note_on channel=0 note=80 velocity=0 time=0
note_on channel=0 note=86 velocity=0 time=0
note_on channel=0 note=79 velocity=30 time=0
note_on channel=0 note=87 velocity=36 time=0
note_on channel=0 note=87 velocity=0 time=0
note_on channel=0 note=79 velocity=0 time=0
note_on channel=0 note=39 velocity=32 time=0
control_change channel=0 control=64 value=0 time=0
control_change channel=0 control=64 value=127 time=240
note_on channel=0 note=39 velocity=0 time=0
note_on channel=0 note=55 velocity=48 time=0
note_on channel=0 note=58 velocity=48 time=0
note_on channel=0 note=63 velocity=57 time=0
note_on channel=0 note=63 velocity=0 time=480
note_on channel=0 note=58 velocity=0 time=0
note_on channel=0 note=55 velocity=0 time=0
control_change channel=0 control=64 value=0 time=134
note_on channel=0 note=60 velocity=40 time=0
note_on channel=0 note=48 velocity=36 time=0
note_on channel=0 note=48 velocity=0 time=240
note_on channel=0 note=60 velocity=0 time=0
note_on channel=0 note=59 velocity=45 time=0
note_on channel=0 note=47 velocity=38 time=0
control_change channel=0 control=64 value=127 time=78
note_on channel=0 note=47 velocity=0 time=162
note_on channel=0 note=59 velocity=0 time=0
note_on channel=0 note=60 velocity=40 time=0
note_on channel=0 note=48 velocity=35 time=0
control_change channel=0 control=64 value=0 time=12
note_on channel=0 note=48 velocity=0 time=0
note_on channel=0 note=60 velocity=0 time=0
note_on channel=0 note=65 velocity=45 time=0
note_on channel=0 note=53 velocity=38 time=0
note_on channel=0 note=53 velocity=0 time=120
note_on channel=0 note=65 velocity=0 time=0
note_on channel=0 note=65 velocity=38 time=0
note_on channel=0 note=53 velocity=34 time=0
note_on channel=0 note=53 velocity=0 time=120
note_on channel=0 note=65 velocity=0 time=0
note_on channel=0 note=63 velocity=45 time=0
note_on channel=0 note=51 velocity=38 time=0
note_on channel=0 note=51 velocity=0 time=480
note_on channel=0 note=63 velocity=0 time=0
note_on channel=0 note=60 velocity=40 time=0
note_on channel=0 note=48 velocity=36 time=0
note_on channel=0 note=48 velocity=0 time=240
note_on channel=0 note=60 velocity=0 time=0
note_on channel=0 note=59 velocity=45 time=0
note_on channel=0 note=47 velocity=38 time=0
control_change channel=0 control=64 value=127 time=78
note_on channel=0 note=47 velocity=0 time=162
note_on channel=0 note=59 velocity=0 time=0
note_on channel=0 note=60 velocity=40 time=0
note_on channel=0 note=48 velocity=35 time=0
control_change channel=0 control=64 value=0 time=17
note_on channel=0 note=48 velocity=0 time=0
note_on channel=0 note=60 velocity=0 time=0
note_on channel=0 note=68 velocity=45 time=0
note_on channel=0 note=56 velocity=38 time=0
note_on channel=0 note=56 velocity=0 time=120
note_on channel=0 note=68 velocity=0 time=0
note_on channel=0 note=68 velocity=38 time=0
note_on channel=0 note=56 velocity=34 time=0
note_on channel=0 note=56 velocity=0 time=120
note_on channel=0 note=68 velocity=0 time=0
note_on channel=0 note=67 velocity=45 time=0
note_on channel=0 note=55 velocity=38 time=0
note_on channel=0 note=55 velocity=0 time=480
note_on channel=0 note=67 velocity=0 time=0
note_on channel=0 note=60 velocity=40 time=0
note_on channel=0 note=60 velocity=0 time=240
note_on channel=0 note=59 velocity=45 time=0
control_change channel=0 control=64 value=127 time=85
note_on channel=0 note=59 velocity=0 time=155
note_on channel=0 note=60 velocity=40 time=0
control_change channel=0 control=64 value=0 time=21
note_on channel=0 note=60 velocity=0 time=0
note_on channel=0 note=72 velocity=45 time=0
note_on channel=0 note=72 velocity=0 time=120
note_on channel=0 note=72 velocity=38 time=0
note_on channel=0 note=72 velocity=0 time=120
note_on channel=0 note=72 velocity=45 time=0
note_on channel=0 note=56 velocity=38 time=0
note_on channel=0 note=60 velocity=38 time=0
note_on channel=0 note=66 velocity=38 time=0
control_change channel=0 control=64 value=127 time=3
note_on channel=0 note=72 velocity=0 time=237
note_on channel=0 note=74 velocity=45 time=0
note_on channel=0 note=74 velocity=0 time=60
note_on channel=0 note=72 velocity=45 time=0
note_on channel=0 note=72 velocity=0 time=60
note_on channel=0 note=71 velocity=40 time=0
note_on channel=0 note=71 velocity=0 time=60
note_on channel=0 note=72 velocity=45 time=0
note_on channel=0 note=72 velocity=0 time=60
note_on channel=0 note=75 velocity=50 time=0
control_change channel=0 control=64 value=0 time=11
control_change channel=0 control=64 value=127 time=55
note_on channel=0 note=75 velocity=0 time=174
note_on channel=0 note=74 velocity=45 time=0
note_on channel=0 note=74 velocity=0 time=0
note_on channel=0 note=77 velocity=56 time=0
control_change channel=0 control=64 value=0 time=23
control_change channel=0 control=64 value=127 time=63
note_on channel=0 note=77 velocity=0 time=154
note_on channel=0 note=75 velocity=53 time=0
note_on channel=0 note=75 velocity=0 time=240
note_on channel=0 note=74 velocity=50 time=0
control_change channel=0 control=64 value=0 time=11
control_change channel=0 control=64 value=127 time=29
note_on channel=0 note=74 velocity=0 time=0
note_on channel=0 note=72 velocity=47 time=0
note_on channel=0 note=72 velocity=0 time=0
note_on channel=0 note=56 velocity=0 time=0
note_on channel=0 note=60 velocity=0 time=0
note_on channel=0 note=66 velocity=0 time=0
note_on channel=0 note=71 velocity=51 time=0
note_on channel=0 note=67 velocity=38 time=0
note_on channel=0 note=62 velocity=32 time=0
note_on channel=0 note=55 velocity=32 time=0
control_change channel=0 control=64 value=0 time=0
note_on channel=0 note=55 velocity=0 time=480
note_on channel=0 note=71 velocity=0 time=0
note_on channel=0 note=67 velocity=0 time=0
note_on channel=0 note=62 velocity=0 time=0
note_on channel=0 note=55 velocity=40 time=240
note_on channel=0 note=43 velocity=36 time=0
note_on channel=0 note=43 velocity=0 time=0
note_on channel=0 note=55 velocity=0 time=0
note_on channel=0 note=54 velocity=45 time=0
note_on channel=0 note=42 velocity=38 time=0
control_change channel=0 control=64 value=127 time=113
note_on channel=0 note=42 velocity=0 time=127
note_on channel=0 note=54 velocity=0 time=0
note_on channel=0 note=55 velocity=40 time=0
note_on channel=0 note=43 velocity=35 time=0
control_change channel=0 control=64 value=0 time=15
note_on channel=0 note=43 velocity=0 time=0
note_on channel=0 note=55 velocity=0 time=0
note_on channel=0 note=60 velocity=45 time=0
note_on channel=0 note=48 velocity=38 time=0
note_on channel=0 note=48 velocity=0 time=120
note_on channel=0 note=60 velocity=0 time=0
note_on channel=0 note=60 velocity=38 time=0
note_on channel=0 note=48 velocity=34 time=0
note_on channel=0 note=48 velocity=0 time=120
note_on channel=0 note=60 velocity=0 time=0
note_on channel=0 note=59 velocity=45 time=0
note_on channel=0 note=47 velocity=38 time=0
note_on channel=0 note=47 velocity=0 time=480
note_on channel=0 note=59 velocity=0 time=0
note_on channel=0 note=55 velocity=40 time=240
note_on channel=0 note=43 velocity=36 time=0
note_on channel=0 note=43 velocity=0 time=0
note_on channel=0 note=55 velocity=0 time=0
note_on channel=0 note=54 velocity=45 time=0
note_on channel=0 note=42 velocity=38 time=0
control_change channel=0 control=64 value=127 time=50
note_on channel=0 note=42 velocity=0 time=190
note_on channel=0 note=54 velocity=0 time=0
note_on channel=0 note=55 velocity=40 time=0
note_on channel=0 note=43 velocity=35 time=0
control_change channel=0 control=64 value=0 time=16
note_on channel=0 note=43 velocity=0 time=0
note_on channel=0 note=55 velocity=0 time=0
note_on channel=0 note=63 velocity=45 time=0
note_on channel=0 note=51 velocity=38 time=0
note_on channel=0 note=51 velocity=0 time=120
note_on channel=0 note=63 velocity=0 time=0
note_on channel=0 note=63 velocity=38 time=0
note_on channel=0 note=51 velocity=34 time=0
note_on channel=0 note=51 velocity=0 time=120
note_on channel=0 note=63 velocity=0 time=0
note_on channel=0 note=62 velocity=45 time=0
note_on channel=0 note=50 velocity=38 time=0
note_on channel=0 note=50 velocity=0 time=480
note_on channel=0 note=62 velocity=0 time=0
note_on channel=0 note=55 velocity=45 time=240
note_on channel=0 note=43 velocity=37 time=0
note_on channel=0 note=43 velocity=0 time=120
note_on channel=0 note=55 velocity=0 time=0
note_on channel=0 note=59 velocity=51 time=0
note_on channel=0 note=47 velocity=43 time=0
note_on channel=0 note=47 velocity=0 time=120
note_on channel=0 note=59 velocity=0 time=0
note_on channel=0 note=62 velocity=45 time=120
note_on channel=0 note=50 velocity=37 time=0
note_on channel=0 note=50 velocity=0 time=120
note_on channel=0 note=62 velocity=0 time=0
note_on channel=0 note=65 velocity=45 time=120
note_on channel=0 note=53 velocity=37 time=0
note_on channel=0 note=53 velocity=0 time=120
note_on channel=0 note=65 velocity=0 time=0
note_on channel=0 note=68 velocity=45 time=120
note_on channel=0 note=56 velocity=37 time=0
note_on channel=0 note=56 velocity=0 time=120
note_on channel=0 note=68 velocity=0 time=0
note_on channel=0 note=71 velocity=55 time=120
note_on channel=0 note=59 velocity=46 time=0
note_on channel=0 note=59 velocity=0 time=120
note_on channel=0 note=71 velocity=0 time=0
note_on channel=0 note=74 velocity=53 time=120
note_on channel=0 note=62 velocity=45 time=0
note_on channel=0 note=62 velocity=0 time=120
note_on channel=0 note=74 velocity=0 time=0
note_on channel=0 note=77 velocity=56 time=120
note_on channel=0 note=65 velocity=47 time=0
note_on channel=0 note=65 velocity=0 time=120
note_on channel=0 note=77 velocity=0 time=0
note_on channel=0 note=80 velocity=60 time=0
note_on channel=0 note=68 velocity=50 time=0
note_on channel=0 note=68 velocity=0 time=120
note_on channel=0 note=80 velocity=0 time=0
note_on channel=0 note=79 velocity=63 time=0
note_on channel=0 note=67 velocity=53 time=0
note_on channel=0 note=67 velocity=0 time=120
note_on channel=0 note=79 velocity=0 time=0
note_on channel=0 note=77 velocity=59 time=120
note_on channel=0 note=65 velocity=50 time=0
note_on channel=0 note=65 velocity=0 time=120
note_on channel=0 note=77 velocity=0 time=0
note_on channel=0 note=75 velocity=55 time=120
note_on channel=0 note=63 velocity=46 time=0
note_on channel=0 note=63 velocity=0 time=120
note_on channel=0 note=75 velocity=0 time=0
note_on channel=0 note=74 velocity=54 time=0
note_on channel=0 note=62 velocity=45 time=0
note_on channel=0 note=62 velocity=0 time=120
note_on channel=0 note=74 velocity=0 time=0
note_on channel=0 note=72 velocity=62 time=0
note_on channel=0 note=60 velocity=42 time=0
control_change channel=0 control=64 value=127 time=0
note_on channel=0 note=60 velocity=0 time=120
note_on channel=0 note=63 velocity=32 time=120
note_on channel=0 note=67 velocity=38 time=0
note_on channel=0 note=67 velocity=0 time=120
note_on channel=0 note=63 velocity=0 time=0
note_on channel=0 note=72 velocity=0 time=120
note_on channel=0 note=63 velocity=32 time=0
note_on channel=0 note=67 velocity=38 time=0
note_on channel=0 note=67 velocity=0 time=120
note_on channel=0 note=63 velocity=0 time=0
note_on channel=0 note=72 velocity=50 time=120
note_on channel=0 note=63 velocity=32 time=0
note_on channel=0 note=67 velocity=38 time=0
note_on channel=0 note=67 velocity=0 time=120
note_on channel=0 note=63 velocity=0 time=0
note_on channel=0 note=72 velocity=0 time=0
note_on channel=0 note=71 velocity=57 time=0
note_on channel=0 note=60 velocity=42 time=0
control_change channel=0 control=64 value=0 time=7
control_change channel=0 control=64 value=127 time=68
note_on channel=0 note=60 velocity=0 time=45
note_on channel=0 note=71 velocity=0 time=120
note_on channel=0 note=72 velocity=53 time=0
note_on channel=0 note=64 velocity=31 time=0
note_on channel=0 note=67 velocity=31 time=0
note_on channel=0 note=70 velocity=37 time=0
control_change channel=0 control=64 value=0 time=13
note_on channel=0 note=70 velocity=0 time=107
note_on channel=0 note=67 velocity=0 time=0
note_on channel=0 note=64 velocity=0 time=0
note_on channel=0 note=72 velocity=0 time=0
note_on channel=0 note=84 velocity=60 time=0
note_on channel=0 note=64 velocity=31 time=0
note_on channel=0 note=67 velocity=31 time=0
note_on channel=0 note=70 velocity=37 time=0
note_on channel=0 note=70 velocity=0 time=120
note_on channel=0 note=84 velocity=0 time=0
note_on channel=0 note=64 velocity=0 time=0
note_on channel=0 note=67 velocity=0 time=0
note_on channel=0 note=84 velocity=52 time=0
note_on channel=0 note=64 velocity=31 time=0
note_on channel=0 note=67 velocity=31 time=0
note_on channel=0 note=70 velocity=37 time=0
note_on channel=0 note=70 velocity=0 time=120
note_on channel=0 note=84 velocity=0 time=0
note_on channel=0 note=64 velocity=0 time=0
note_on channel=0 note=67 velocity=0 time=0
note_on channel=0 note=84 velocity=60 time=0
note_on channel=0 note=60 velocity=42 time=0
control_change channel=0 control=64 value=127 time=21
note_on channel=0 note=60 velocity=0 time=0
note_on channel=0 note=65 velocity=32 time=120
note_on channel=0 note=68 velocity=38 time=0
note_on channel=0 note=68 velocity=0 time=120
note_on channel=0 note=65 velocity=0 time=0
note_on channel=0 note=84 velocity=0 time=120
note_on channel=0 note=65 velocity=32 time=0
note_on channel=0 note=68 velocity=38 time=0
note_on channel=0 note=68 velocity=0 time=120
note_on channel=0 note=65 velocity=0 time=0
note_on channel=0 note=89 velocity=59 time=120
note_on channel=0 note=65 velocity=32 time=0
note_on channel=0 note=68 velocity=38 time=0
note_on channel=0 note=68 velocity=0 time=120
note_on channel=0 note=65 velocity=0 time=0
note_on channel=0 note=89 velocity=0 time=120
note_on channel=0 note=87 velocity=65 time=0
note_on channel=0 note=60 velocity=42 time=0
control_change channel=0 control=64 value=0 time=17
control_change channel=0 control=64 value=127 time=74
note_on channel=0 note=60 velocity=0 time=29
note_on channel=0 note=87 velocity=0 time=120
note_on channel=0 note=86 velocity=60 time=0
note_on channel=0 note=65 velocity=31 time=0
note_on channel=0 note=68 velocity=31 time=0
note_on channel=0 note=71 velocity=37 time=0
note_on channel=0 note=71 velocity=0 time=120
note_on channel=0 note=68 velocity=0 time=0
note_on channel=0 note=65 velocity=0 time=0
note_on channel=0 note=86 velocity=0 time=120
note_on channel=0 note=84 velocity=66 time=0
note_on channel=0 note=65 velocity=31 time=0
note_on channel=0 note=68 velocity=31 time=0
note_on channel=0 note=71 velocity=37 time=0
control_change channel=0 control=64 value=0 time=10
control_change channel=0 control=64 value=127 time=61
note_on channel=0 note=71 velocity=0 time=49
note_on channel=0 note=68 velocity=0 time=0
note_on channel=0 note=65 velocity=0 time=0
note_on channel=0 note=84 velocity=0 time=0
note_on channel=0 note=83 velocity=60 time=0
note_on channel=0 note=65 velocity=31 time=0
note_on channel=0 note=68 velocity=31 time=0
note_on channel=0 note=71 velocity=37 time=0
note_on channel=0 note=71 velocity=0 time=120
note_on channel=0 note=68 velocity=0 time=0
note_on channel=0 note=65 velocity=0 time=0
note_on channel=0 note=83 velocity=0 time=0
note_on channel=0 note=86 velocity=69 time=0
note_on channel=0 note=60 velocity=42 time=0
control_change channel=0 control=64 value=0 time=17
control_change channel=0 control=64 value=127 time=46
note_on channel=0 note=60 velocity=0 time=57
note_on channel=0 note=86 velocity=0 time=120
note_on channel=0 note=84 velocity=60 time=0
note_on channel=0 note=63 velocity=32 time=0
note_on channel=0 note=67 velocity=38 time=0
control_change channel=0 control=64 value=0 time=10
note_on channel=0 note=67 velocity=0 time=110
note_on channel=0 note=63 velocity=0 time=0
note_on channel=0 note=84 velocity=0 time=120
note_on channel=0 note=63 velocity=32 time=0
note_on channel=0 note=67 velocity=38 time=0
note_on channel=0 note=67 velocity=0 time=120
note_on channel=0 note=63 velocity=0 time=0
note_on channel=0 note=72 velocity=50 time=120
note_on channel=0 note=63 velocity=32 time=0
note_on channel=0 note=67 velocity=38 time=0
note_on channel=0 note=67 velocity=0 time=120
note_on channel=0 note=63 velocity=0 time=0
note_on channel=0 note=72 velocity=0 time=0
note_on channel=0 note=71 velocity=57 time=0
note_on channel=0 note=60 velocity=42 time=0
control_change channel=0 control=64 value=127 time=52
note_on channel=0 note=60 velocity=0 time=68
note_on channel=0 note=71 velocity=0 time=120
note_on channel=0 note=72 velocity=53 time=0
note_on channel=0 note=64 velocity=31 time=0
note_on channel=0 note=67 velocity=31 time=0
note_on channel=0 note=70 velocity=37 time=0
control_change channel=0 control=64 value=0 time=10
note_on channel=0 note=70 velocity=0 time=110
note_on channel=0 note=67 velocity=0 time=0
note_on channel=0 note=64 velocity=0 time=0
note_on channel=0 note=72 velocity=0 time=0
note_on channel=0 note=84 velocity=60 time=0
note_on channel=0 note=64 velocity=31 time=0
note_on channel=0 note=67 velocity=31 time=0
note_on channel=0 note=70 velocity=37 time=0
note_on channel=0 note=70 velocity=0 time=120
note_on channel=0 note=84 velocity=0 time=0
note_on channel=0 note=64 velocity=0 time=0
note_on channel=0 note=67 velocity=0 time=0
note_on channel=0 note=84 velocity=52 time=0
note_on channel=0 note=64 velocity=31 time=0
note_on channel=0 note=67 velocity=31 time=0
note_on channel=0 note=70 velocity=37 time=0
note_on channel=0 note=70 velocity=0 time=120
note_on channel=0 note=84 velocity=0 time=0
note_on channel=0 note=64 velocity=0 time=0
note_on channel=0 note=67 velocity=0 time=0
note_on channel=0 note=84 velocity=60 time=0
note_on channel=0 note=60 velocity=42 time=0
control_change channel=0 control=64 value=127 time=20
note_on channel=0 note=60 velocity=0 time=100
note_on channel=0 note=65 velocity=32 time=120
note_on channel=0 note=68 velocity=38 time=0
note_on channel=0 note=68 velocity=0 time=120
note_on channel=0 note=65 velocity=0 time=0
note_on channel=0 note=84 velocity=0 time=0
note_on channel=0 note=86 velocity=60 time=0
note_on channel=0 note=65 velocity=32 time=0
note_on channel=0 note=68 velocity=38 time=0
control_change channel=0 control=64 value=0 time=15
control_change channel=0 control=64 value=127 time=34
note_on channel=0 note=86 velocity=0 time=11
note_on channel=0 note=84 velocity=60 time=0
note_on channel=0 note=84 velocity=0 time=60
note_on channel=0 note=68 velocity=0 time=0
note_on channel=0 note=65 velocity=0 time=0
note_on channel=0 note=83 velocity=60 time=0
note_on channel=0 note=83 velocity=0 time=60
note_on channel=0 note=84 velocity=60 time=0
note_on channel=0 note=84 velocity=0 time=0
note_on channel=0 note=89 velocity=59 time=0
note_on channel=0 note=65 velocity=32 time=0
note_on channel=0 note=68 velocity=38 time=0
note_on channel=0 note=68 velocity=0 time=120
note_on channel=0 note=65 velocity=0 time=0
note_on channel=0 note=89 velocity=0 time=0
note_on channel=0 note=87 velocity=65 time=0
note_on channel=0 note=60 velocity=42 time=0
control_change channel=0 control=64 value=0 time=20
control_change channel=0 control=64 value=127 time=52
note_on channel=0 note=60 velocity=0 time=48
note_on channel=0 note=87 velocity=0 time=120
note_on channel=0 note=86 velocity=60 time=0
note_on channel=0 note=65 velocity=31 time=0
note_on channel=0 note=68 velocity=31 time=0
note_on channel=0 note=71 velocity=37 time=0
note_on channel=0 note=71 velocity=0 time=120
note_on channel=0 note=68 velocity=0 time=0
note_on channel=0 note=65 velocity=0 time=0
note_on channel=0 note=86 velocity=0 time=120
note_on channel=0 note=84 velocity=66 time=0
note_on channel=0 note=65 velocity=31 time=0
note_on channel=0 note=68 velocity=31 time=0
note_on channel=0 note=71 velocity=37 time=0
control_change channel=0 control=64 value=0 time=8
control_change channel=0 control=64 value=127 time=49
note_on channel=0 note=71 velocity=0 time=63
note_on channel=0 note=68 velocity=0 time=0
note_on channel=0 note=65 velocity=0 time=0
note_on channel=0 note=84 velocity=0 time=0
note_on channel=0 note=83 velocity=60 time=0
note_on channel=0 note=65 velocity=31 time=0
note_on channel=0 note=68 velocity=31 time=0
note_on channel=0 note=71 velocity=37 time=0
note_on channel=0 note=71 velocity=0 time=120
note_on channel=0 note=68 velocity=0 time=0
note_on channel=0 note=65 velocity=0 time=0
note_on channel=0 note=83 velocity=0 time=0
note_on channel=0 note=84 velocity=69 time=0
note_on channel=0 note=60 velocity=36 time=0
note_on channel=0 note=63 velocity=36 time=0
note_on channel=0 note=67 velocity=36 time=0
control_change channel=0 control=64 value=0 time=0
note_on channel=0 note=72 velocity=44 time=7
control_change channel=0 control=64 value=127 time=85
note_on channel=0 note=84 velocity=0 time=28
note_on channel=0 note=86 velocity=63 time=0
note_on channel=0 note=86 velocity=0 time=120
note_on channel=0 note=84 velocity=63 time=0
note_on channel=0 note=84 velocity=0 time=120
note_on channel=0 note=83 velocity=63 time=0
note_on channel=0 note=83 velocity=0 time=120
note_on channel=0 note=60 velocity=0 time=0
note_on channel=0 note=67 velocity=0 time=0
note_on channel=0 note=63 velocity=0 time=0
note_on channel=0 note=84 velocity=69 time=0
control_change channel=0 control=64 value=0 time=0
note_on channel=0 note=72 velocity=0 time=7
note_on channel=0 note=84 velocity=0 time=113
note_on channel=0 note=87 velocity=73 time=0
note_on channel=0 note=87 velocity=0 time=120
note_on channel=0 note=86 velocity=72 time=0
note_on channel=0 note=66 velocity=42 time=0
control_change channel=0 control=64 value=127 time=63
note_on channel=0 note=86 velocity=0 time=0
note_on channel=0 note=84 velocity=71 time=0
note_on channel=0 note=84 velocity=0 time=0
note_on channel=0 note=66 velocity=0 time=0
note_on channel=0 note=83 velocity=72 time=0
note_on channel=0 note=67 velocity=52 time=0
control_change channel=0 control=64 value=0 time=9
control_change channel=0 control=64 value=127 time=77
note_on channel=0 note=83 velocity=0 time=34
note_on channel=0 note=84 velocity=65 time=0
note_on channel=0 note=84 velocity=0 time=120
note_on channel=0 note=83 velocity=65 time=0
note_on channel=0 note=83 velocity=0 time=120
note_on channel=0 note=80 velocity=65 time=0
control_change channel=0 control=64 value=0 time=69
note_on channel=0 note=80 velocity=0 time=51
note_on channel=0 note=67 velocity=0 time=0
note_on channel=0 note=79 velocity=69 time=0
note_on channel=0 note=79 velocity=0 time=120
note_on channel=0 note=77 velocity=63 time=0
note_on channel=0 note=77 velocity=0 time=120
note_on channel=0 note=75 velocity=63 time=0
note_on channel=0 note=59 velocity=48 time=0
control_change channel=0 control=64 value=127 time=57
note_on channel=0 note=75 velocity=0 time=0
note_on channel=0 note=74 velocity=63 time=0
note_on channel=0 note=74 velocity=0 time=0
note_on channel=0 note=59 velocity=0 time=0
note_on channel=0 note=72 velocity=69 time=0
note_on channel=0 note=60 velocity=57 time=0
control_change channel=0 control=64 value=0 time=0
control_change channel=0 control=64 value=127 time=80
note_on channel=0 note=72 velocity=0 time=40
note_on channel=0 note=74 velocity=63 time=0
note_on channel=0 note=74 velocity=0 time=120
note_on channel=0 note=72 velocity=63 time=0
control_change channel=0 control=64 value=0 time=10
note_on channel=0 note=72 velocity=0 time=110
note_on channel=0 note=71 velocity=61 time=0
note_on channel=0 note=71 velocity=0 time=120
note_on channel=0 note=60 velocity=0 time=0
note_on channel=0 note=72 velocity=66 time=0
note_on channel=0 note=72 velocity=0 time=120
note_on channel=0 note=75 velocity=72 time=0
note_on channel=0 note=75 velocity=0 time=120
note_on channel=0 note=74 velocity=70 time=0
note_on channel=0 note=54 velocity=54 time=0
control_change channel=0 control=64 value=127 time=34
note_on channel=0 note=74 velocity=0 time=0
note_on channel=0 note=72 velocity=67 time=0
note_on channel=0 note=72 velocity=0 time=0
note_on channel=0 note=54 velocity=0 time=0
note_on channel=0 note=71 velocity=69 time=0
note_on channel=0 note=55 velocity=63 time=0
control_change channel=0 control=64 value=0 time=9
note_on channel=0 note=71 velocity=0 time=111
note_on channel=0 note=72 velocity=63 time=0
control_change channel=0 control=64 value=127 time=17
note_on channel=0 note=72 velocity=0 time=103
note_on channel=0 note=71 velocity=63 time=0
control_change channel=0 control=64 value=0 time=10
note_on channel=0 note=71 velocity=0 time=110
note_on channel=0 note=68 velocity=63 time=0
note_on channel=0 note=68 velocity=0 time=120
note_on channel=0 note=55 velocity=0 time=0
note_on channel=0 note=67 velocity=69 time=0
note_on channel=0 note=67 velocity=0 time=120
note_on channel=0 note=65 velocity=63 time=0
note_on channel=0 note=65 velocity=0 time=120
note_on channel=0 note=63 velocity=63 time=0
note_on channel=0 note=47 velocity=57 time=0
control_change channel=0 control=64 value=127 time=69
note_on channel=0 note=63 velocity=0 time=0
note_on channel=0 note=62 velocity=63 time=0
note_on channel=0 note=62 velocity=0 time=0
note_on channel=0 note=47 velocity=0 time=0
note_on channel=0 note=60 velocity=77 time=0
note_on channel=0 note=48 velocity=66 time=0
control_change channel=0 control=64 value=0 time=15
control_change channel=0 control=64 value=127 time=82
note_on channel=0 note=60 velocity=0 time=23
note_on channel=0 note=62 velocity=69 time=0
note_on channel=0 note=62 velocity=0 time=120
note_on channel=0 note=60 velocity=69 time=0
control_change channel=0 control=64 value=0 time=11
note_on channel=0 note=60 velocity=0 time=109
note_on channel=0 note=59 velocity=69 time=0
note_on channel=0 note=59 velocity=0 time=120
note_on channel=0 note=48 velocity=0 time=0
note_on channel=0 note=60 velocity=77 time=0
note_on channel=0 note=60 velocity=0 time=120
note_on channel=0 note=63 velocity=69 time=0
note_on channel=0 note=63 velocity=0 time=120
note_on channel=0 note=62 velocity=69 time=0
note_on channel=0 note=42 velocity=58 time=0
control_change channel=0 control=64 value=127 time=46
note_on channel=0 note=62 velocity=0 time=0
note_on channel=0 note=60 velocity=69 time=0
note_on channel=0 note=60 velocity=0 time=0
note_on channel=0 note=42 velocity=0 time=0
note_on channel=0 note=59 velocity=77 time=0
note_on channel=0 note=43 velocity=67 time=0
control_change channel=0 control=64 value=0 time=23
control_change channel=0 control=64 value=127 time=92
note_on channel=0 note=59 velocity=0 time=5
note_on channel=0 note=67 velocity=69 time=0
note_on channel=0 note=67 velocity=0 time=120
note_on channel=0 note=62 velocity=69 time=0
note_on channel=0 note=62 velocity=0 time=120
note_on channel=0 note=59 velocity=69 time=0
note_on channel=0 note=59 velocity=0 time=120
note_on channel=0 note=43 velocity=0 time=0
note_on channel=0 note=55 velocity=79 time=0
note_on channel=0 note=36 velocity=82 time=0
note_on channel=0 note=48 velocity=96 time=0
control_change channel=0 control=64 value=0 time=6
control_change channel=0 control=64 value=127 time=74
note_on channel=0 note=55 velocity=0 time=40
note_on channel=0 note=67 velocity=69 time=0
note_on channel=0 note=67 velocity=0 time=120
note_on channel=0 note=48 velocity=0 time=0
note_on channel=0 note=36 velocity=0 time=0
note_on channel=0 note=63 velocity=69 time=0
note_on channel=0 note=63 velocity=0 time=120
note_on channel=0 note=60 velocity=69 time=0
note_on channel=0 note=60 velocity=0 time=120
note_on channel=0 note=55 velocity=81 time=0
note_on channel=0 note=31 velocity=55 time=0
note_on channel=0 note=43 velocity=66 time=0
control_change channel=0 control=64 value=0 time=0
control_change channel=0 control=64 value=127 time=69
note_on channel=0 note=55 velocity=0 time=51
note_on channel=0 note=67 velocity=69 time=0
note_on channel=0 note=67 velocity=0 time=120
note_on channel=0 note=43 velocity=0 time=0
note_on channel=0 note=31 velocity=0 time=0
note_on channel=0 note=62 velocity=69 time=0
control_change channel=0 control=64 value=0 time=14
control_change channel=0 control=64 value=127 time=43
note_on channel=0 note=62 velocity=0 time=63
note_on channel=0 note=59 velocity=69 time=0
note_on channel=0 note=59 velocity=0 time=120
note_on channel=0 note=55 velocity=80 time=0
note_on channel=0 note=36 velocity=82 time=0
note_on channel=0 note=48 velocity=97 time=0
control_change channel=0 control=64 value=0 time=19
control_change channel=0 control=64 value=127 time=67
note_on channel=0 note=55 velocity=0 time=34
note_on channel=0 note=67 velocity=69 time=0
note_on channel=0 note=67 velocity=0 time=120
note_on channel=0 note=48 velocity=0 time=0
note_on channel=0 note=36 velocity=0 time=0
note_on channel=0 note=63 velocity=69 time=0
control_change channel=0 control=64 value=0 time=13
control_change channel=0 control=64 value=127 time=67
note_on channel=0 note=63 velocity=0 time=40
note_on channel=0 note=60 velocity=69 time=0
note_on channel=0 note=60 velocity=0 time=120
note_on channel=0 note=55 velocity=80 time=0
note_on channel=0 note=31 velocity=57 time=0
note_on channel=0 note=43 velocity=68 time=0
control_change channel=0 control=64 value=0 time=20
control_change channel=0 control=64 value=127 time=60
note_on channel=0 note=55 velocity=0 time=40
note_on channel=0 note=67 velocity=69 time=0
note_on channel=0 note=67 velocity=0 time=120
note_on channel=0 note=43 velocity=0 time=0
note_on channel=0 note=31 velocity=0 time=0
note_on channel=0 note=62 velocity=69 time=0
control_change channel=0 control=64 value=0 time=17
control_change channel=0 control=64 value=127 time=80
note_on channel=0 note=62 velocity=0 time=23
note_on channel=0 note=59 velocity=69 time=0
note_on channel=0 note=59 velocity=0 time=120
note_on channel=0 note=55 velocity=80 time=0
note_on channel=0 note=36 velocity=82 time=0
note_on channel=0 note=48 velocity=97 time=0
control_change channel=0 control=64 value=0 time=17
control_change channel=0 control=64 value=127 time=75
note_on channel=0 note=55 velocity=0 time=28
note_on channel=0 note=67 velocity=69 time=0
note_on channel=0 note=67 velocity=0 time=120
note_on channel=0 note=48 velocity=0 time=0
note_on channel=0 note=36 velocity=0 time=0
note_on channel=0 note=63 velocity=69 time=0
control_change channel=0 control=64 value=0 time=15
control_change channel=0 control=64 value=127 time=100
note_on channel=0 note=63 velocity=0 time=0
note_on channel=0 note=60 velocity=69 time=0
note_on channel=0 note=60 velocity=0 time=0
note_on channel=0 note=55 velocity=74 time=0
note_on channel=0 note=59 velocity=74 time=0
note_on channel=0 note=62 velocity=74 time=0
note_on channel=0 note=67 velocity=89 time=0
note_on channel=0 note=31 velocity=66 time=0
note_on channel=0 note=35 velocity=66 time=0
note_on channel=0 note=38 velocity=66 time=0
note_on channel=0 note=43 velocity=78 time=0
control_change channel=0 control=64 value=0 time=0
note_on channel=0 note=43 velocity=0 time=0
note_on channel=0 note=55 velocity=0 time=0
note_on channel=0 note=31 velocity=0 time=0
note_on channel=0 note=59 velocity=0 time=0
note_on channel=0 note=62 velocity=0 time=0
note_on channel=0 note=67 velocity=0 time=0
note_on channel=0 note=35 velocity=0 time=0
note_on channel=0 note=38 velocity=0 time=0
note_on channel=0 note=58 velocity=40 time=240
note_on channel=0 note=58 velocity=0 time=120
note_on channel=0 note=60 velocity=37 time=120
note_on channel=0 note=60 velocity=0 time=120
note_on channel=0 note=62 velocity=37 time=120
note_on channel=0 note=62 velocity=0 time=120
note_on channel=0 note=55 velocity=39 time=120
note_on channel=0 note=58 velocity=39 time=0
note_on channel=0 note=63 velocity=46 time=0
note_on channel=0 note=39 velocity=26 time=0
note_on channel=0 note=51 velocity=31 time=0
note_on channel=0 note=63 velocity=0 time=120
note_on channel=0 note=65 velocity=40 time=120
note_on channel=0 note=65 velocity=0 time=120
note_on channel=0 note=67 velocity=40 time=0
note_on channel=0 note=67 velocity=0 time=120
note_on channel=0 note=39 velocity=0 time=0
note_on channel=0 note=55 velocity=0 time=0
note_on channel=0 note=58 velocity=0 time=0
note_on channel=0 note=51 velocity=0 time=0
note_on channel=0 note=58 velocity=38 time=0
note_on channel=0 note=62 velocity=38 time=0
note_on channel=0 note=65 velocity=45 time=0
note_on channel=0 note=44 velocity=25 time=0
note_on channel=0 note=56 velocity=30 time=0
note_on channel=0 note=56 velocity=0 time=120
note_on channel=0 note=65 velocity=0 time=0
note_on channel=0 note=58 velocity=0 time=0
note_on channel=0 note=62 velocity=0 time=0
note_on channel=0 note=44 velocity=0 time=0
note_on channel=0 note=58 velocity=33 time=360
note_on channel=0 note=63 velocity=39 time=0
note_on channel=0 note=43 velocity=23 time=0
note_on channel=0 note=55 velocity=27 time=0
note_on channel=0 note=55 velocity=0 time=120
note_on channel=0 note=58 velocity=0 time=0
note_on channel=0 note=63 velocity=0 time=0
note_on channel=0 note=43 velocity=0 time=0
note_on channel=0 note=56 velocity=37 time=0
note_on channel=0 note=58 velocity=37 time=0
note_on channel=0 note=62 velocity=37 time=0
note_on channel=0 note=68 velocity=45 time=0
note_on channel=0 note=46 velocity=27 time=0
note_on channel=0 note=41 velocity=27 time=0
note_on channel=0 note=53 velocity=32 time=0
note_on channel=0 note=53 velocity=0 time=960
note_on channel=0 note=46 velocity=0 time=0
note_on channel=0 note=58 velocity=0 time=0
note_on channel=0 note=62 velocity=0 time=0
note_on channel=0 note=56 velocity=0 time=0
note_on channel=0 note=41 velocity=0 time=0
note_on channel=0 note=68 velocity=0 time=0
note_on channel=0 note=58 velocity=40 time=0
note_on channel=0 note=58 velocity=0 time=120
note_on channel=0 note=60 velocity=37 time=120
note_on channel=0 note=60 velocity=0 time=120
note_on channel=0 note=62 velocity=37 time=120
note_on channel=0 note=62 velocity=0 time=120
note_on channel=0 note=55 velocity=39 time=120
note_on channel=0 note=58 velocity=39 time=0
note_on channel=0 note=63 velocity=46 time=0
note_on channel=0 note=39 velocity=26 time=0
note_on channel=0 note=51 velocity=31 time=0
note_on channel=0 note=63 velocity=0 time=120
note_on channel=0 note=65 velocity=40 time=120
note_on channel=0 note=65 velocity=0 time=120
note_on channel=0 note=67 velocity=40 time=0
note_on channel=0 note=67 velocity=0 time=120
note_on channel=0 note=39 velocity=0 time=0
note_on channel=0 note=55 velocity=0 time=0
note_on channel=0 note=58 velocity=0 time=0
note_on channel=0 note=51 velocity=0 time=0
note_on channel=0 note=53 velocity=38 time=0
note_on channel=0 note=60 velocity=38 time=0
note_on channel=0 note=65 velocity=45 time=0
note_on channel=0 note=32 velocity=25 time=0
note_on channel=0 note=44 velocity=30 time=0
note_on channel=0 note=44 velocity=0 time=120
note_on channel=0 note=65 velocity=0 time=0
note_on channel=0 note=53 velocity=0 time=0
note_on channel=0 note=60 velocity=0 time=0
note_on channel=0 note=32 velocity=0 time=0
note_on channel=0 note=60 velocity=33 time=360
note_on channel=0 note=53 velocity=33 time=0
note_on channel=0 note=63 velocity=39 time=0
note_on channel=0 note=33 velocity=23 time=0
note_on channel=0 note=45 velocity=27 time=0
note_on channel=0 note=45 velocity=0 time=120
note_on channel=0 note=63 velocity=0 time=0
note_on channel=0 note=60 velocity=0 time=0
note_on channel=0 note=53 velocity=0 time=0
note_on channel=0 note=33 velocity=0 time=0
note_on channel=0 note=50 velocity=31 time=0
note_on channel=0 note=53 velocity=31 time=0
note_on channel=0 note=58 velocity=37 time=0
note_on channel=0 note=34 velocity=22 time=0
note_on channel=0 note=46 velocity=27 time=0
note_on channel=0 note=46 velocity=0 time=960
note_on channel=0 note=58 velocity=0 time=0
note_on channel=0 note=50 velocity=0 time=0
note_on channel=0 note=53 velocity=0 time=0
note_on channel=0 note=34 velocity=0 time=0
note_on channel=0 note=58 velocity=40 time=0
note_on channel=0 note=58 velocity=0 time=120
note_on channel=0 note=60 velocity=37 time=120
note_on channel=0 note=60 velocity=0 time=120
note_on channel=0 note=62 velocity=37 time=120
note_on channel=0 note=62 velocity=0 time=120
note_on channel=0 note=55 velocity=39 time=120
note_on channel=0 note=58 velocity=39 time=0
note_on channel=0 note=63 velocity=46 time=0
note_on channel=0 note=39 velocity=26 time=0
note_on channel=0 note=51 velocity=31 time=0
note_on channel=0 note=63 velocity=0 time=120
note_on channel=0 note=65 velocity=40 time=120
note_on channel=0 note=65 velocity=0 time=120
note_on channel=0 note=67 velocity=40 time=0
note_on channel=0 note=67 velocity=0 time=120
note_on channel=0 note=39 velocity=0 time=0
note_on channel=0 note=55 velocity=0 time=0
note_on channel=0 note=58 velocity=0 time=0
note_on channel=0 note=51 velocity=0 time=0
note_on channel=0 note=58 velocity=38 time=0
note_on channel=0 note=62 velocity=38 time=0
note_on channel=0 note=65 velocity=45 time=0
note_on channel=0 note=44 velocity=25 time=0
note_on channel=0 note=56 velocity=30 time=0
note_on channel=0 note=56 velocity=0 time=120
note_on channel=0 note=65 velocity=0 time=0
note_on channel=0 note=58 velocity=0 time=0
note_on channel=0 note=62 velocity=0 time=0
note_on channel=0 note=44 velocity=0 time=0
note_on channel=0 note=58 velocity=33 time=360
note_on channel=0 note=63 velocity=39 time=0
note_on channel=0 note=43 velocity=23 time=0
note_on channel=0 note=55 velocity=27 time=0
note_on channel=0 note=55 velocity=0 time=120
note_on channel=0 note=58 velocity=0 time=0
note_on channel=0 note=63 velocity=0 time=0
note_on channel=0 note=43 velocity=0 time=0
note_on channel=0 note=44 velocity=28 time=15
note_on channel=0 note=48 velocity=32 time=15
note_on channel=0 note=51 velocity=36 time=15
note_on channel=0 note=56 velocity=40 time=15
note_on channel=0 note=60 velocity=45 time=15
note_on channel=0 note=63 velocity=50 time=15
note_on channel=0 note=68 velocity=63 time=15
note_on channel=0 note=72 velocity=72 time=0
note_on channel=0 note=56 velocity=0 time=480
note_on channel=0 note=51 velocity=0 time=0
note_on channel=0 note=44 velocity=0 time=0
note_on channel=0 note=48 velocity=0 time=0
note_on channel=0 note=60 velocity=0 time=480
note_on channel=0 note=68 velocity=0 time=0
note_on channel=0 note=63 velocity=0 time=0
note_on channel=0 note=72 velocity=0 time=240
note_on channel=0 note=72 velocity=48 time=0
note_on channel=0 note=72 velocity=0 time=120
note_on channel=0 note=70 velocity=53 time=120
note_on channel=0 note=70 velocity=0 time=120
note_on channel=0 note=68 velocity=50 time=0
note_on channel=0 note=68 velocity=0 time=120
note_on channel=0 note=67 velocity=53 time=0
note_on channel=0 note=46 velocity=80 time=0
note_on channel=0 note=67 velocity=0 time=240
note_on channel=0 note=65 velocity=48 time=0
note_on channel=0 note=65 velocity=0 time=240
note_on channel=0 note=63 velocity=48 time=0
note_on channel=0 note=63 velocity=0 time=120
note_on channel=0 note=62 velocity=48 time=120
note_on channel=0 note=62 velocity=0 time=120
note_on channel=0 note=53 velocity=45 time=120
note_on channel=0 note=56 velocity=45 time=0
note_on channel=0 note=60 velocity=53 time=0
note_on channel=0 note=34 velocity=49 time=240
note_on channel=0 note=34 velocity=0 time=120
note_on channel=0 note=60 velocity=0 time=120
note_on channel=0 note=58 velocity=49 time=0
note_on channel=0 note=36 velocity=53 time=0
note_on channel=0 note=36 velocity=0 time=120
note_on channel=0 note=38 velocity=45 time=0
note_on channel=0 note=38 velocity=0 time=120
note_on channel=0 note=58 velocity=0 time=0
note_on channel=0 note=56 velocity=0 time=0
note_on channel=0 note=53 velocity=0 time=0
note_on channel=0 note=51 velocity=41 time=0
note_on channel=0 note=55 velocity=41 time=0
note_on channel=0 note=58 velocity=49 time=0
note_on channel=0 note=39 velocity=53 time=0
note_on channel=0 note=39 velocity=0 time=120
note_on channel=0 note=41 velocity=49 time=120
note_on channel=0 note=41 velocity=0 time=120
note_on channel=0 note=43 velocity=51 time=120
note_on channel=0 note=43 velocity=0 time=120
note_on channel=0 note=55 velocity=0 time=0
note_on channel=0 note=58 velocity=0 time=0
note_on channel=0 note=51 velocity=0 time=0
note_on channel=0 note=41 velocity=53 time=0
note_on channel=0 note=70 velocity=48 time=240
note_on channel=0 note=70 velocity=0 time=120
note_on channel=0 note=41 velocity=0 time=120
note_on channel=0 note=68 velocity=53 time=0
note_on channel=0 note=39 velocity=50 time=0
note_on channel=0 note=68 velocity=0 time=120
note_on channel=0 note=67 velocity=50 time=0
note_on channel=0 note=67 velocity=0 time=120
note_on channel=0 note=39 velocity=0 time=0
note_on channel=0 note=46 velocity=0 time=0
note_on channel=0 note=67 velocity=53 time=0
note_on channel=0 note=46 velocity=80 time=0
note_on channel=0 note=67 velocity=0 time=240
note_on channel=0 note=65 velocity=48 time=0
note_on channel=0 note=65 velocity=0 time=240
note_on channel=0 note=63 velocity=48 time=0
note_on channel=0 note=63 velocity=0 time=120
note_on channel=0 note=62 velocity=48 time=120
note_on channel=0 note=62 velocity=0 time=120
note_on channel=0 note=53 velocity=45 time=120
note_on channel=0 note=56 velocity=45 time=0
note_on channel=0 note=60 velocity=53 time=0
note_on channel=0 note=34 velocity=49 time=240
note_on channel=0 note=34 velocity=0 time=120
note_on channel=0 note=60 velocity=0 time=120
note_on channel=0 note=58 velocity=49 time=0
note_on channel=0 note=36 velocity=53 time=0
note_on channel=0 note=36 velocity=0 time=120
note_on channel=0 note=38 velocity=45 time=0
note_on channel=0 note=38 velocity=0 time=120
note_on channel=0 note=58 velocity=0 time=0
note_on channel=0 note=56 velocity=0 time=0
note_on channel=0 note=53 velocity=0 time=0
note_on channel=0 note=51 velocity=54 time=0
note_on channel=0 note=55 velocity=54 time=0
note_on channel=0 note=58 velocity=54 time=0
note_on channel=0 note=39 velocity=53 time=0
note_on channel=0 note=39 velocity=0 time=0
note_on channel=0 note=41 velocity=49 time=120
note_on channel=0 note=41 velocity=0 time=120
note_on channel=0 note=43 velocity=51 time=120
note_on channel=0 note=43 velocity=0 time=120
note_on channel=0 note=55 velocity=0 time=0
note_on channel=0 note=58 velocity=0 time=0
note_on channel=0 note=51 velocity=0 time=0
note_on channel=0 note=41 velocity=53 time=0
note_on channel=0 note=82 velocity=48 time=240
note_on channel=0 note=70 velocity=48 time=0
note_on channel=0 note=70 velocity=0 time=120
note_on channel=0 note=82 velocity=0 time=0
note_on channel=0 note=41 velocity=0 time=120
note_on channel=0 note=80 velocity=53 time=0
note_on channel=0 note=68 velocity=53 time=0
note_on channel=0 note=39 velocity=50 time=0
note_on channel=0 note=68 velocity=0 time=120
note_on channel=0 note=80 velocity=0 time=0
note_on channel=0 note=79 velocity=50 time=0
note_on channel=0 note=67 velocity=50 time=0
note_on channel=0 note=67 velocity=0 time=120
note_on channel=0 note=79 velocity=0 time=0
note_on channel=0 note=46 velocity=0 time=0
note_on channel=0 note=39 velocity=0 time=0
note_on channel=0 note=79 velocity=55 time=0
note_on channel=0 note=67 velocity=55 time=0
note_on channel=0 note=44 velocity=45 time=0
note_on channel=0 note=48 velocity=45 time=0
note_on channel=0 note=53 velocity=53 time=0
note_on channel=0 note=67 velocity=0 time=240
note_on channel=0 note=79 velocity=0 time=0
note_on channel=0 note=77 velocity=48 time=0
note_on channel=0 note=65 velocity=48 time=0
note_on channel=0 note=65 velocity=0 time=240
note_on channel=0 note=48 velocity=0 time=0
note_on channel=0 note=53 velocity=0 time=0
note_on channel=0 note=44 velocity=0 time=0
note_on channel=0 note=77 velocity=0 time=0
note_on channel=0 note=75 velocity=48 time=0
note_on channel=0 note=63 velocity=48 time=0
note_on channel=0 note=63 velocity=0 time=120
note_on channel=0 note=75 velocity=0 time=0
note_on channel=0 note=74 velocity=48 time=120
note_on channel=0 note=62 velocity=48 time=0
note_on channel=0 note=62 velocity=0 time=120
note_on channel=0 note=74 velocity=0 time=0
note_on channel=0 note=60 velocity=55 time=0
note_on channel=0 note=72 velocity=55 time=0
note_on channel=0 note=53 velocity=42 time=0
note_on channel=0 note=46 velocity=42 time=0
note_on channel=0 note=56 velocity=50 time=0
note_on channel=0 note=72 velocity=0 time=120
note_on channel=0 note=60 velocity=0 time=0
note_on channel=0 note=58 velocity=48 time=120
note_on channel=0 note=70 velocity=48 time=0
note_on channel=0 note=70 velocity=0 time=120
note_on channel=0 note=58 velocity=0 time=0
note_on channel=0 note=56 velocity=0 time=120
note_on channel=0 note=53 velocity=0 time=0
note_on channel=0 note=46 velocity=0 time=0
note_on channel=0 note=60 velocity=48 time=0
note_on channel=0 note=72 velocity=48 time=0
note_on channel=0 note=72 velocity=0 time=120
note_on channel=0 note=60 velocity=0 time=0
note_on channel=0 note=62 velocity=48 time=0
note_on channel=0 note=74 velocity=48 time=0
note_on channel=0 note=74 velocity=0 time=120
note_on channel=0 note=62 velocity=0 time=0
note_on channel=0 note=63 velocity=48 time=10
note_on channel=0 note=51 velocity=49 time=0
note_on channel=0 note=55 velocity=58 time=0
control_change channel=0 control=64 value=127 time=14
note_on channel=0 note=63 velocity=0 time=10
note_on channel=0 note=75 velocity=43 time=0
note_on channel=0 note=75 velocity=0 time=10
note_on channel=0 note=63 velocity=48 time=0
note_on channel=0 note=63 velocity=0 time=10
note_on channel=0 note=75 velocity=42 time=0
note_on channel=0 note=75 velocity=0 time=70
note_on channel=0 note=55 velocity=0 time=0
note_on channel=0 note=51 velocity=0 time=0
note_on channel=0 note=63 velocity=49 time=0
note_on channel=0 note=63 velocity=0 time=10
note_on channel=0 note=75 velocity=43 time=0
note_on channel=0 note=75 velocity=0 time=10
note_on channel=0 note=63 velocity=50 time=0
note_on channel=0 note=51 velocity=54 time=0
note_on channel=0 note=63 velocity=0 time=10
note_on channel=0 note=75 velocity=45 time=0
note_on channel=0 note=75 velocity=0 time=10
note_on channel=0 note=51 velocity=0 time=0
note_on channel=0 note=63 velocity=51 time=0
note_on channel=0 note=50 velocity=60 time=0
control_change channel=0 control=64 value=0 time=6
control_change channel=0 control=64 value=127 time=12
note_on channel=0 note=63 velocity=0 time=25
note_on channel=0 note=75 velocity=44 time=0
note_on channel=0 note=75 velocity=0 time=40
note_on channel=0 note=50 velocity=0 time=0
note_on channel=0 note=63 velocity=52 time=0
note_on channel=0 note=51 velocity=55 time=0
note_on channel=0 note=63 velocity=0 time=10
note_on channel=0 note=75 velocity=47 time=0
note_on channel=0 note=75 velocity=0 time=10
note_on channel=0 note=51 velocity=0 time=0
note_on channel=0 note=63 velocity=53 time=0
note_on channel=0 note=48 velocity=52 time=0
note_on channel=0 note=56 velocity=62 time=0
control_change channel=0 control=64 value=0 time=10
control_change channel=0 control=64 value=127 time=61
note_on channel=0 note=56 velocity=0 time=49
note_on channel=0 note=48 velocity=0 time=0
note_on channel=0 note=63 velocity=0 time=0
note_on channel=0 note=75 velocity=47 time=0
note_on channel=0 note=75 velocity=0 time=0
note_on channel=0 note=63 velocity=53 time=0
note_on channel=0 note=56 velocity=57 time=0
note_on channel=0 note=48 velocity=48 time=0
note_on channel=0 note=48 velocity=0 time=120
note_on channel=0 note=56 velocity=0 time=0
note_on channel=0 note=63 velocity=0 time=0
note_on channel=0 note=75 velocity=47 time=0
note_on channel=0 note=75 velocity=0 time=0
note_on channel=0 note=63 velocity=54 time=0
note_on channel=0 note=55 velocity=65 time=0
note_on channel=0 note=46 velocity=55 time=0
control_change channel=0 control=64 value=0 time=0
note_on channel=0 note=63 velocity=0 time=10
note_on channel=0 note=75 velocity=48 time=0
control_change channel=0 control=64 value=127 time=60
note_on channel=0 note=75 velocity=0 time=10
note_on channel=0 note=63 velocity=55 time=0
note_on channel=0 note=63 velocity=0 time=10
note_on channel=0 note=75 velocity=48 time=0
note_on channel=0 note=75 velocity=0 time=70
note_on channel=0 note=46 velocity=0 time=0
note_on channel=0 note=55 velocity=0 time=0
note_on channel=0 note=63 velocity=55 time=0
note_on channel=0 note=63 velocity=0 time=10
note_on channel=0 note=75 velocity=48 time=0
note_on channel=0 note=75 velocity=0 time=10
note_on channel=0 note=63 velocity=56 time=0
note_on channel=0 note=51 velocity=61 time=0
note_on channel=0 note=63 velocity=0 time=10
note_on channel=0 note=75 velocity=51 time=0
note_on channel=0 note=75 velocity=0 time=10
note_on channel=0 note=51 velocity=0 time=0
note_on channel=0 note=63 velocity=57 time=0
note_on channel=0 note=50 velocity=68 time=0
control_change channel=0 control=64 value=0 time=6
control_change channel=0 control=64 value=127 time=12
note_on channel=0 note=63 velocity=0 time=25
note_on channel=0 note=75 velocity=49 time=0
note_on channel=0 note=75 velocity=0 time=40
note_on channel=0 note=50 velocity=0 time=0
note_on channel=0 note=63 velocity=58 time=0
note_on channel=0 note=51 velocity=63 time=0
note_on channel=0 note=63 velocity=0 time=10
note_on channel=0 note=75 velocity=53 time=0
note_on channel=0 note=75 velocity=0 time=10
note_on channel=0 note=51 velocity=0 time=0
note_on channel=0 note=63 velocity=59 time=0
note_on channel=0 note=56 velocity=58 time=0
note_on channel=0 note=60 velocity=69 time=0
control_change channel=0 control=64 value=0 time=10
control_change channel=0 control=64 value=127 time=61
note_on channel=0 note=60 velocity=0 time=49
note_on channel=0 note=56 velocity=0 time=0
note_on channel=0 note=63 velocity=0 time=0
note_on channel=0 note=75 velocity=54 time=0
note_on channel=0 note=75 velocity=0 time=0
note_on channel=0 note=63 velocity=60 time=0
note_on channel=0 note=56 velocity=54 time=0
note_on channel=0 note=60 velocity=64 time=0
note_on channel=0 note=60 velocity=0 time=120
note_on channel=0 note=56 velocity=0 time=0
note_on channel=0 note=63 velocity=0 time=0
note_on channel=0 note=75 velocity=54 time=0
note_on channel=0 note=75 velocity=0 time=120
note_on channel=0 note=63 velocity=70 time=0
note_on channel=0 note=75 velocity=70 time=0
note_on channel=0 note=55 velocity=71 time=0
note_on channel=0 note=58 velocity=71 time=0
control_change channel=0 control=64 value=0 time=0
control_change channel=0 control=64 value=127 time=6
note_on channel=0 note=58 velocity=0 time=27
note_on channel=0 note=55 velocity=0 time=0
note_on channel=0 note=51 velocity=62 time=0
note_on channel=0 note=51 velocity=0 time=57
note_on channel=0 note=63 velocity=54 time=0
note_on channel=0 note=63 velocity=0 time=27
note_on channel=0 note=75 velocity=0 time=0
note_on channel=0 note=63 velocity=0 time=0
note_on channel=0 note=51 velocity=63 time=0
note_on channel=0 note=51 velocity=0 time=27
note_on channel=0 note=63 velocity=56 time=0
note_on channel=0 note=63 velocity=0 time=57
note_on channel=0 note=75 velocity=74 time=0
note_on channel=0 note=51 velocity=63 time=0
note_on channel=0 note=51 velocity=0 time=57
note_on channel=0 note=63 velocity=57 time=0
note_on channel=0 note=63 velocity=0 time=87
note_on channel=0 note=75 velocity=0 time=0
note_on channel=0 note=74 velocity=84 time=0
note_on channel=0 note=51 velocity=63 time=0
control_change channel=0 control=64 value=0 time=14
control_change channel=0 control=64 value=127 time=78
note_on channel=0 note=51 velocity=0 time=27
note_on channel=0 note=63 velocity=55 time=0
note_on channel=0 note=63 velocity=0 time=87
note_on channel=0 note=74 velocity=0 time=0
note_on channel=0 note=75 velocity=77 time=0
note_on channel=0 note=51 velocity=64 time=0
note_on channel=0 note=51 velocity=0 time=27
note_on channel=0 note=63 velocity=59 time=0
note_on channel=0 note=63 velocity=0 time=0
note_on channel=0 note=75 velocity=0 time=0
note_on channel=0 note=84 velocity=86 time=0
note_on channel=0 note=80 velocity=86 time=0
note_on channel=0 note=51 velocity=65 time=0
control_change channel=0 control=64 value=0 time=6
control_change channel=0 control=64 value=127 time=72
note_on channel=0 note=51 velocity=0 time=42
note_on channel=0 note=80 velocity=0 time=0
note_on channel=0 note=84 velocity=0 time=0
note_on channel=0 note=63 velocity=58 time=0
note_on channel=0 note=63 velocity=0 time=0
note_on channel=0 note=80 velocity=79 time=0
note_on channel=0 note=84 velocity=79 time=0
note_on channel=0 note=51 velocity=66 time=0
note_on channel=0 note=51 velocity=0 time=120
note_on channel=0 note=84 velocity=0 time=0
note_on channel=0 note=80 velocity=0 time=0
note_on channel=0 note=63 velocity=61 time=0
note_on channel=0 note=63 velocity=0 time=27
note_on channel=0 note=80 velocity=92 time=0
note_on channel=0 note=84 velocity=92 time=0
note_on channel=0 note=53 velocity=49 time=0
note_on channel=0 note=50 velocity=49 time=0
note_on channel=0 note=56 velocity=49 time=0
note_on channel=0 note=58 velocity=49 time=0
control_change channel=0 control=64 value=0 time=0
note_on channel=0 note=62 velocity=66 time=27
control_change channel=0 control=64 value=127 time=179
note_on channel=0 note=80 velocity=0 time=274
note_on channel=0 note=84 velocity=0 time=120
note_on channel=0 note=82 velocity=74 time=0
note_on channel=0 note=82 velocity=0 time=120
note_on channel=0 note=80 velocity=73 time=0
note_on channel=0 note=80 velocity=0 time=107
note_on channel=0 note=79 velocity=72 time=0
note_on channel=0 note=79 velocity=0 time=120
note_on channel=0 note=77 velocity=72 time=0
note_on channel=0 note=77 velocity=0 time=47
note_on channel=0 note=75 velocity=72 time=0
note_on channel=0 note=75 velocity=0 time=120
note_on channel=0 note=74 velocity=71 time=0
note_on channel=0 note=74 velocity=0 time=120
note_on channel=0 note=72 velocity=70 time=0
note_on channel=0 note=72 velocity=0 time=107
note_on channel=0 note=71 velocity=69 time=0
note_on channel=0 note=71 velocity=0 time=120
note_on channel=0 note=70 velocity=68 time=0
note_on channel=0 note=70 velocity=0 time=47
note_on channel=0 note=69 velocity=67 time=0
note_on channel=0 note=69 velocity=0 time=120
note_on channel=0 note=68 velocity=66 time=0
note_on channel=0 note=68 velocity=0 time=120
note_on channel=0 note=58 velocity=0 time=0
note_on channel=0 note=56 velocity=0 time=0
note_on channel=0 note=50 velocity=0 time=0
note_on channel=0 note=53 velocity=0 time=0
note_on channel=0 note=67 velocity=66 time=0
note_on channel=0 note=55 velocity=49 time=0
note_on channel=0 note=51 velocity=49 time=0
note_on channel=0 note=63 velocity=66 time=0
note_on channel=0 note=58 velocity=49 time=0
control_change channel=0 control=64 value=0 time=0
note_on channel=0 note=62 velocity=0 time=14
note_on channel=0 note=67 velocity=0 time=133
note_on channel=0 note=68 velocity=62 time=0
control_change channel=0 control=64 value=127 time=24
note_on channel=0 note=68 velocity=0 time=136
note_on channel=0 note=70 velocity=62 time=0
note_on channel=0 note=70 velocity=0 time=160
note_on channel=0 note=63 velocity=0 time=0
note_on channel=0 note=51 velocity=0 time=0
note_on channel=0 note=58 velocity=0 time=0
note_on channel=0 note=55 velocity=0 time=0
note_on channel=0 note=68 velocity=66 time=0
note_on channel=0 note=68 velocity=0 time=27
note_on channel=0 note=67 velocity=62 time=0
note_on channel=0 note=67 velocity=0 time=67
note_on channel=0 note=65 velocity=62 time=0
note_on channel=0 note=65 velocity=0 time=107
note_on channel=0 note=63 velocity=66 time=0
control_change channel=0 control=64 value=0 time=5
control_change channel=0 control=64 value=127 time=65
note_on channel=0 note=63 velocity=0 time=27
note_on channel=0 note=62 velocity=62 time=0
note_on channel=0 note=62 velocity=0 time=160
note_on channel=0 note=60 velocity=62 time=0
note_on channel=0 note=60 velocity=0 time=160
note_on channel=0 note=58 velocity=66 time=0
note_on channel=0 note=58 velocity=0 time=160
note_on channel=0 note=56 velocity=60 time=0
note_on channel=0 note=56 velocity=0 time=80
note_on channel=0 note=55 velocity=63 time=0
note_on channel=0 note=55 velocity=0 time=0
note_on channel=0 note=44 velocity=73 time=0
note_on channel=0 note=32 velocity=73 time=0
control_change channel=0 control=64 value=0 time=0
control_change channel=0 control=64 value=127 time=92
note_on channel=0 note=53 velocity=59 time=28
note_on channel=0 note=53 velocity=0 time=0
note_on channel=0 note=32 velocity=0 time=0
note_on channel=0 note=44 velocity=0 time=0
note_on channel=0 note=56 velocity=63 time=0
note_on channel=0 note=56 velocity=0 time=120
note_on channel=0 note=60 velocity=67 time=0
note_on channel=0 note=60 velocity=0 time=120
note_on channel=0 note=65 velocity=72 time=0
control_change channel=0 control=64 value=0 time=16
note_on channel=0 note=65 velocity=0 time=224
note_on channel=0 note=44 velocity=63 time=0
note_on channel=0 note=32 velocity=63 time=0
note_on channel=0 note=32 velocity=0 time=120
note_on channel=0 note=44 velocity=0 time=0
note_on channel=0 note=34 velocity=70 time=0
note_on channel=0 note=46 velocity=70 time=0
control_change channel=0 control=64 value=127 time=78
note_on channel=0 note=53 velocity=63 time=42
note_on channel=0 note=53 velocity=0 time=0
note_on channel=0 note=46 velocity=0 time=0
note_on channel=0 note=34 velocity=0 time=0
note_on channel=0 note=56 velocity=66 time=0
note_on channel=0 note=56 velocity=0 time=120
note_on channel=0 note=58 velocity=69 time=0
note_on channel=0 note=58 velocity=0 time=120
note_on channel=0 note=62 velocity=72 time=0
control_change channel=0 control=64 value=0 time=14
note_on channel=0 note=62 velocity=0 time=0
note_on channel=0 note=46 velocity=63 time=0
note_on channel=0 note=34 velocity=63 time=0
note_on channel=0 note=34 velocity=0 time=120
note_on channel=0 note=46 velocity=0 time=0
note_on channel=0 note=74 velocity=67 time=22
control_change channel=0 control=64 value=127 time=0
note_on channel=0 note=74 velocity=0 time=120
note_on channel=0 note=86 velocity=60 time=0
note_on channel=0 note=86 velocity=0 time=82
note_on channel=0 note=74 velocity=67 time=0
note_on channel=0 note=68 velocity=63 time=0
note_on channel=0 note=68 velocity=0 time=52
note_on channel=0 note=74 velocity=0 time=0
note_on channel=0 note=86 velocity=60 time=0
note_on channel=0 note=70 velocity=65 time=0
note_on channel=0 note=70 velocity=0 time=120
note_on channel=0 note=86 velocity=0 time=0
note_on channel=0 note=74 velocity=67 time=0
note_on channel=0 note=72 velocity=69 time=0
note_on channel=0 note=72 velocity=0 time=112
note_on channel=0 note=74 velocity=0 time=0
note_on channel=0 note=86 velocity=59 time=0
note_on channel=0 note=70 velocity=67 time=0
note_on channel=0 note=70 velocity=0 time=82
note_on channel=0 note=86 velocity=0 time=0
note_on channel=0 note=74 velocity=67 time=0
note_on channel=0 note=68 velocity=65 time=0
note_on channel=0 note=68 velocity=0 time=82
note_on channel=0 note=74 velocity=0 time=0
note_on channel=0 note=86 velocity=61 time=0
note_on channel=0 note=67 velocity=64 time=0
note_on channel=0 note=67 velocity=0 time=120
note_on channel=0 note=86 velocity=0 time=0
note_on channel=0 note=74 velocity=67 time=0
note_on channel=0 note=65 velocity=67 time=0
note_on channel=0 note=74 velocity=0 time=120
note_on channel=0 note=86 velocity=59 time=0
note_on channel=0 note=65 velocity=0 time=32
note_on channel=0 note=63 velocity=61 time=0
note_on channel=0 note=86 velocity=0 time=80
note_on channel=0 note=74 velocity=67 time=0
note_on channel=0 note=63 velocity=0 time=80
note_on channel=0 note=62 velocity=61 time=0
note_on channel=0 note=74 velocity=0 time=40
note_on channel=0 note=86 velocity=59 time=0
note_on channel=0 note=86 velocity=0 time=22
note_on channel=0 note=62 velocity=0 time=0
note_on channel=0 note=74 velocity=67 time=0
note_on channel=0 note=60 velocity=67 time=0
note_on channel=0 note=74 velocity=0 time=120
note_on channel=0 note=86 velocity=59 time=0
note_on channel=0 note=60 velocity=0 time=40
note_on channel=0 note=58 velocity=62 time=0
note_on channel=0 note=86 velocity=0 time=80
note_on channel=0 note=74 velocity=67 time=0
note_on channel=0 note=58 velocity=0 time=12
note_on channel=0 note=56 velocity=62 time=0
note_on channel=0 note=74 velocity=0 time=40
note_on channel=0 note=86 velocity=60 time=0
note_on channel=0 note=86 velocity=0 time=0
note_on channel=0 note=56 velocity=0 time=0
note_on channel=0 note=75 velocity=67 time=0
note_on channel=0 note=55 velocity=67 time=0
control_change channel=0 control=64 value=0 time=12
control_change channel=0 control=64 value=127 time=80
note_on channel=0 note=75 velocity=0 time=28
note_on channel=0 note=87 velocity=60 time=0
note_on channel=0 note=55 velocity=0 time=2
note_on channel=0 note=56 velocity=63 time=0
note_on channel=0 note=87 velocity=0 time=80
note_on channel=0 note=75 velocity=69 time=0
note_on channel=0 note=56 velocity=0 time=12
note_on channel=0 note=58 velocity=63 time=0
note_on channel=0 note=75 velocity=0 time=40
note_on channel=0 note=87 velocity=62 time=0
note_on channel=0 note=87 velocity=0 time=120
note_on channel=0 note=58 velocity=0 time=0
note_on channel=0 note=75 velocity=71 time=0
note_on channel=0 note=56 velocity=67 time=0
note_on channel=0 note=75 velocity=0 time=112
note_on channel=0 note=87 velocity=63 time=0
note_on channel=0 note=56 velocity=0 time=2
note_on channel=0 note=55 velocity=60 time=0
note_on channel=0 note=87 velocity=0 time=80
note_on channel=0 note=75 velocity=72 time=0
note_on channel=0 note=55 velocity=0 time=42
note_on channel=0 note=53 velocity=60 time=0
note_on channel=0 note=75 velocity=0 time=40
note_on channel=0 note=87 velocity=67 time=0
note_on channel=0 note=87 velocity=0 time=120
note_on channel=0 note=53 velocity=0 time=0
note_on channel=0 note=75 velocity=75 time=0
note_on channel=0 note=51 velocity=70 time=0
control_change channel=0 control=64 value=0 time=19
control_change channel=0 control=64 value=127 time=90
note_on channel=0 note=75 velocity=0 time=11
note_on channel=0 note=87 velocity=67 time=0
note_on channel=0 note=51 velocity=0 time=32
note_on channel=0 note=50 velocity=63 time=0
note_on channel=0 note=87 velocity=0 time=80
note_on channel=0 note=75 velocity=77 time=0
note_on channel=0 note=50 velocity=0 time=80
note_on channel=0 note=48 velocity=66 time=0
note_on channel=0 note=75 velocity=0 time=40
note_on channel=0 note=87 velocity=69 time=0
note_on channel=0 note=87 velocity=0 time=22
note_on channel=0 note=48 velocity=0 time=0
note_on channel=0 note=76 velocity=80 time=0
note_on channel=0 note=46 velocity=74 time=0
control_change channel=0 control=64 value=0 time=20
note_on channel=0 note=76 velocity=0 time=100
note_on channel=0 note=88 velocity=71 time=0
control_change channel=0 control=64 value=127 time=0
note_on channel=0 note=46 velocity=0 time=40
note_on channel=0 note=44 velocity=67 time=0
note_on channel=0 note=88 velocity=0 time=80
note_on channel=0 note=76 velocity=81 time=0
note_on channel=0 note=44 velocity=0 time=12
note_on channel=0 note=43 velocity=67 time=0
note_on channel=0 note=76 velocity=0 time=40
note_on channel=0 note=88 velocity=73 time=0
note_on channel=0 note=88 velocity=0 time=0
note_on channel=0 note=43 velocity=0 time=0
note_on channel=0 note=44 velocity=73 time=0
note_on channel=0 note=32 velocity=73 time=0
control_change channel=0 control=64 value=0 time=0
control_change channel=0 control=64 value=127 time=92
note_on channel=0 note=77 velocity=71 time=28
note_on channel=0 note=77 velocity=0 time=0
note_on channel=0 note=32 velocity=0 time=0
note_on channel=0 note=44 velocity=0 time=0
note_on channel=0 note=80 velocity=76 time=0
note_on channel=0 note=80 velocity=0 time=120
note_on channel=0 note=84 velocity=81 time=0
note_on channel=0 note=84 velocity=0 time=120
note_on channel=0 note=89 velocity=86 time=0
control_change channel=0 control=64 value=0 time=16
note_on channel=0 note=89 velocity=0 time=224
note_on channel=0 note=32 velocity=63 time=0
note_on channel=0 note=44 velocity=63 time=0
note_on channel=0 note=44 velocity=0 time=120
note_on channel=0 note=32 velocity=0 time=0
note_on channel=0 note=34 velocity=70 time=0
note_on channel=0 note=46 velocity=70 time=0
control_change channel=0 control=64 value=127 time=78
note_on channel=0 note=74 velocity=75 time=42
note_on channel=0 note=74 velocity=0 time=0
note_on channel=0 note=46 velocity=0 time=0
note_on channel=0 note=34 velocity=0 time=0
note_on channel=0 note=77 velocity=79 time=0
note_on channel=0 note=77 velocity=0 time=120
note_on channel=0 note=80 velocity=82 time=0
note_on channel=0 note=80 velocity=0 time=120
note_on channel=0 note=86 velocity=86 time=0
control_change channel=0 control=64 value=0 time=14
note_on channel=0 note=86 velocity=0 time=0
note_on channel=0 note=46 velocity=63 time=0
note_on channel=0 note=34 velocity=63 time=0
note_on channel=0 note=34 velocity=0 time=120
note_on channel=0 note=46 velocity=0 time=0
note_on channel=0 note=75 velocity=80 time=0
note_on channel=0 note=82 velocity=80 time=0
note_on channel=0 note=79 velocity=80 time=0
note_on channel=0 note=87 velocity=94 time=0
note_on channel=0 note=51 velocity=70 time=0
note_on channel=0 note=39 velocity=59 time=0
note_on channel=0 note=43 velocity=59 time=0
note_on channel=0 note=46 velocity=59 time=0
note_on channel=0 note=46 velocity=0 time=0
note_on channel=0 note=75 velocity=0 time=0
note_on channel=0 note=51 velocity=0 time=0
note_on channel=0 note=82 velocity=0 time=0
note_on channel=0 note=79 velocity=0 time=0
note_on channel=0 note=87 velocity=0 time=0
note_on channel=0 note=39 velocity=0 time=0
note_on channel=0 note=43 velocity=0 time=0
note_on channel=0 note=82 velocity=63 time=0
note_on channel=0 note=67 velocity=63 time=0
note_on channel=0 note=64 velocity=53 time=0
note_on channel=0 note=64 velocity=0 time=120
note_on channel=0 note=67 velocity=0 time=0
note_on channel=0 note=82 velocity=0 time=0
note_on channel=0 note=82 velocity=63 time=0
note_on channel=0 note=64 velocity=53 time=0
note_on channel=0 note=67 velocity=63 time=0
note_on channel=0 note=67 velocity=0 time=120
note_on channel=0 note=64 velocity=0 time=0
note_on channel=0 note=82 velocity=0 time=0
note_on channel=0 note=82 velocity=70 time=0
note_on channel=0 note=68 velocity=70 time=0
note_on channel=0 note=65 velocity=59 time=0
note_on channel=0 note=65 velocity=0 time=240
note_on channel=0 note=68 velocity=0 time=0
note_on channel=0 note=82 velocity=0 time=0
note_on channel=0 note=82 velocity=63 time=0
note_on channel=0 note=64 velocity=53 time=0
note_on channel=0 note=67 velocity=63 time=0
note_on channel=0 note=67 velocity=0 time=120
note_on channel=0 note=64 velocity=0 time=0
note_on channel=0 note=82 velocity=0 time=0
note_on channel=0 note=82 velocity=63 time=0
note_on channel=0 note=64 velocity=53 time=0
note_on channel=0 note=67 velocity=63 time=0
note_on channel=0 note=67 velocity=0 time=120
note_on channel=0 note=64 velocity=0 time=0
note_on channel=0 note=82 velocity=0 time=0
note_on channel=0 note=82 velocity=69 time=0
note_on channel=0 note=68 velocity=70 time=0
note_on channel=0 note=65 velocity=59 time=0
note_on channel=0 note=65 velocity=0 time=240
note_on channel=0 note=68 velocity=0 time=0
note_on channel=0 note=82 velocity=0 time=0
note_on channel=0 note=53 velocity=60 time=0
note_on channel=0 note=56 velocity=60 time=0
note_on channel=0 note=62 velocity=72 time=0
note_on channel=0 note=34 velocity=63 time=0
note_on channel=0 note=46 velocity=74 time=0
note_on channel=0 note=46 velocity=0 time=240
note_on channel=0 note=62 velocity=0 time=0
note_on channel=0 note=53 velocity=0 time=0
note_on channel=0 note=56 velocity=0 time=0
note_on channel=0 note=34 velocity=0 time=0
note_on channel=0 note=53 velocity=33 time=0
note_on channel=0 note=56 velocity=33 time=0
note_on channel=0 note=62 velocity=39 time=0
note_on channel=0 note=47 velocity=36 time=0
note_on channel=0 note=35 velocity=30 time=0
note_on channel=0 note=35 velocity=0 time=120
note_on channel=0 note=62 velocity=0 time=0
note_on channel=0 note=53 velocity=0 time=0
note_on channel=0 note=56 velocity=0 time=0
note_on channel=0 note=47 velocity=0 time=0
note_on channel=0 note=55 velocity=37 time=0
note_on channel=0 note=63 velocity=45 time=0
note_on channel=0 note=36 velocity=32 time=0
note_on channel=0 note=48 velocity=38 time=0
note_on channel=0 note=48 velocity=0 time=120
note_on channel=0 note=55 velocity=0 time=0
note_on channel=0 note=63 velocity=0 time=0
note_on channel=0 note=36 velocity=0 time=0
note_on channel=0 note=60 velocity=35 time=0
note_on channel=0 note=63 velocity=35 time=0
note_on channel=0 note=65 velocity=41 time=0
note_on channel=0 note=45 velocity=36 time=0
note_on channel=0 note=33 velocity=30 time=0
note_on channel=0 note=33 velocity=0 time=120
note_on channel=0 note=65 velocity=0 time=0
note_on channel=0 note=60 velocity=0 time=0
note_on channel=0 note=63 velocity=0 time=0
note_on channel=0 note=45 velocity=0 time=0
note_on channel=0 note=58 velocity=37 time=360
note_on channel=0 note=63 velocity=37 time=0
note_on channel=0 note=67 velocity=45 time=0
note_on channel=0 note=46 velocity=38 time=0
note_on channel=0 note=34 velocity=32 time=0
note_on channel=0 note=34 velocity=0 time=120
note_on channel=0 note=67 velocity=0 time=0
note_on channel=0 note=58 velocity=0 time=0
note_on channel=0 note=63 velocity=0 time=0
note_on channel=0 note=46 velocity=0 time=0
note_on channel=0 note=56 velocity=33 time=0
note_on channel=0 note=62 velocity=33 time=0
note_on channel=0 note=65 velocity=39 time=0
note_on channel=0 note=34 velocity=27 time=0
note_on channel=0 note=46 velocity=33 time=0
note_on channel=0 note=46 velocity=0 time=120
note_on channel=0 note=65 velocity=0 time=0
note_on channel=0 note=56 velocity=0 time=0
note_on channel=0 note=62 velocity=0 time=0
note_on channel=0 note=34 velocity=0 time=0
note_on channel=0 note=55 velocity=37 time=0
note_on channel=0 note=63 velocity=45 time=0
note_on channel=0 note=39 velocity=32 time=0
note_on channel=0 note=51 velocity=38 time=0
note_on channel=0 note=51 velocity=0 time=120
note_on channel=0 note=55 velocity=0 time=0
note_on channel=0 note=63 velocity=0 time=0
note_on channel=0 note=39 velocity=0 time=0
note_on channel=0 note=82 velocity=63 time=0
note_on channel=0 note=67 velocity=63 time=0
note_on channel=0 note=64 velocity=53 time=0
note_on channel=0 note=64 velocity=0 time=120
note_on channel=0 note=67 velocity=0 time=0
note_on channel=0 note=82 velocity=0 time=0
note_on channel=0 note=84 velocity=59 time=0
note_on channel=0 note=84 velocity=0 time=0
note_on channel=0 note=82 velocity=63 time=0
note_on channel=0 note=64 velocity=53 time=0
note_on channel=0 note=67 velocity=63 time=0
note_on channel=0 note=67 velocity=0 time=120
note_on channel=0 note=64 velocity=0 time=0
note_on channel=0 note=82 velocity=0 time=0
note_on channel=0 note=81 velocity=59 time=0
note_on channel=0 note=81 velocity=0 time=0
note_on channel=0 note=82 velocity=70 time=0
note_on channel=0 note=68 velocity=70 time=0
note_on channel=0 note=65 velocity=59 time=0
note_on channel=0 note=65 velocity=0 time=240
note_on channel=0 note=68 velocity=0 time=0
note_on channel=0 note=82 velocity=0 time=0
note_on channel=0 note=82 velocity=63 time=0
note_on channel=0 note=64 velocity=53 time=0
note_on channel=0 note=67 velocity=63 time=0
note_on channel=0 note=67 velocity=0 time=120
note_on channel=0 note=64 velocity=0 time=0
note_on channel=0 note=82 velocity=0 time=0
note_on channel=0 note=84 velocity=58 time=0
note_on channel=0 note=84 velocity=0 time=0
note_on channel=0 note=82 velocity=63 time=0
note_on channel=0 note=64 velocity=53 time=0
note_on channel=0 note=67 velocity=63 time=0
note_on channel=0 note=67 velocity=0 time=120
note_on channel=0 note=64 velocity=0 time=0
note_on channel=0 note=82 velocity=0 time=0
note_on channel=0 note=81 velocity=57 time=0
note_on channel=0 note=81 velocity=0 time=0
note_on channel=0 note=82 velocity=69 time=0
note_on channel=0 note=68 velocity=70 time=0
note_on channel=0 note=65 velocity=59 time=0
note_on channel=0 note=65 velocity=0 time=240
note_on channel=0 note=68 velocity=0 time=0
note_on channel=0 note=82 velocity=0 time=0
note_on channel=0 note=53 velocity=60 time=0
note_on channel=0 note=56 velocity=60 time=0
note_on channel=0 note=62 velocity=72 time=0
note_on channel=0 note=46 velocity=74 time=0
note_on channel=0 note=34 velocity=63 time=0
note_on channel=0 note=34 velocity=0 time=240
note_on channel=0 note=62 velocity=0 time=0
note_on channel=0 note=53 velocity=0 time=0
note_on channel=0 note=56 velocity=0 time=0
note_on channel=0 note=46 velocity=0 time=0
note_on channel=0 note=51 velocity=55 time=0
note_on channel=0 note=54 velocity=55 time=0
note_on channel=0 note=57 velocity=55 time=0
note_on channel=0 note=63 velocity=66 time=0
note_on channel=0 note=39 velocity=55 time=0
note_on channel=0 note=42 velocity=55 time=0
note_on channel=0 note=47 velocity=65 time=0
note_on channel=0 note=35 velocity=55 time=0
note_on channel=0 note=35 velocity=0 time=0
note_on channel=0 note=51 velocity=0 time=0
note_on channel=0 note=39 velocity=0 time=0
note_on channel=0 note=54 velocity=0 time=0
note_on channel=0 note=57 velocity=0 time=0
note_on channel=0 note=63 velocity=0 time=0
note_on channel=0 note=42 velocity=0 time=0
note_on channel=0 note=47 velocity=0 time=0
note_on channel=0 note=60 velocity=35 time=0
note_on channel=0 note=63 velocity=35 time=0
note_on channel=0 note=65 velocity=41 time=0
note_on channel=0 note=33 velocity=30 time=0
note_on channel=0 note=45 velocity=36 time=0
note_on channel=0 note=45 velocity=0 time=120
note_on channel=0 note=65 velocity=0 time=0
note_on channel=0 note=60 velocity=0 time=0
note_on channel=0 note=63 velocity=0 time=0
note_on channel=0 note=33 velocity=0 time=0
note_on channel=0 note=58 velocity=37 time=360
note_on channel=0 note=63 velocity=37 time=0
note_on channel=0 note=67 velocity=45 time=0
note_on channel=0 note=46 velocity=38 time=0
note_on channel=0 note=34 velocity=32 time=0
note_on channel=0 note=34 velocity=0 time=120
note_on channel=0 note=67 velocity=0 time=0
note_on channel=0 note=58 velocity=0 time=0
note_on channel=0 note=63 velocity=0 time=0
note_on channel=0 note=46 velocity=0 time=0
note_on channel=0 note=56 velocity=33 time=0
note_on channel=0 note=62 velocity=33 time=0
note_on channel=0 note=65 velocity=39 time=0
note_on channel=0 note=34 velocity=27 time=0
note_on channel=0 note=46 velocity=33 time=0
note_on channel=0 note=46 velocity=0 time=120
note_on channel=0 note=65 velocity=0 time=0
note_on channel=0 note=56 velocity=0 time=0
note_on channel=0 note=62 velocity=0 time=0
note_on channel=0 note=34 velocity=0 time=0
note_on channel=0 note=55 velocity=37 time=0
note_on channel=0 note=63 velocity=45 time=0
note_on channel=0 note=39 velocity=32 time=0
control_change channel=0 control=64 value=127 time=28
note_on channel=0 note=39 velocity=0 time=212
note_on channel=0 note=63 velocity=0 time=0
note_on channel=0 note=55 velocity=0 time=0
note_on channel=0 note=51 velocity=27 time=0
note_on channel=0 note=51 velocity=0 time=0
note_on channel=0 note=62 velocity=30 time=0
note_on channel=0 note=68 velocity=36 time=0
control_change channel=0 control=64 value=0 time=14
control_change channel=0 control=64 value=127 time=170
note_on channel=0 note=68 velocity=0 time=0
note_on channel=0 note=62 velocity=0 time=0
note_on channel=0 note=63 velocity=27 time=0
note_on channel=0 note=67 velocity=32 time=0
note_on channel=0 note=67 velocity=0 time=0
note_on channel=0 note=63 velocity=0 time=0
note_on channel=0 note=39 velocity=32 time=0
control_change channel=0 control=64 value=0 time=12
control_change channel=0 control=64 value=127 time=144
note_on channel=0 note=39 velocity=0 time=84
note_on channel=0 note=51 velocity=28 time=0
note_on channel=0 note=51 velocity=0 time=0
note_on channel=0 note=68 velocity=31 time=0
note_on channel=0 note=74 velocity=37 time=0
control_change channel=0 control=64 value=0 time=12
control_change channel=0 control=64 value=127 time=129
note_on channel=0 note=74 velocity=0 time=0
note_on channel=0 note=68 velocity=0 time=0
note_on channel=0 note=67 velocity=27 time=0
note_on channel=0 note=75 velocity=32 time=0
note_on channel=0 note=75 velocity=0 time=0
note_on channel=0 note=67 velocity=0 time=0
note_on channel=0 note=39 velocity=32 time=0
control_change channel=0 control=64 value=0 time=4
control_change channel=0 control=64 value=127 time=123
note_on channel=0 note=39 velocity=0 time=113
note_on channel=0 note=51 velocity=28 time=0
note_on channel=0 note=51 velocity=0 time=0
note_on channel=0 note=80 velocity=37 time=0
note_on channel=0 note=74 velocity=31 time=0
control_change channel=0 control=64 value=0 time=14
control_change channel=0 control=64 value=127 time=113
note_on channel=0 note=74 velocity=0 time=0
note_on channel=0 note=80 velocity=0 time=0
note_on channel=0 note=75 velocity=27 time=0
note_on channel=0 note=79 velocity=32 time=0
note_on channel=0 note=79 velocity=0 time=0
note_on channel=0 note=75 velocity=0 time=0
note_on channel=0 note=39 velocity=32 time=0
control_change channel=0 control=64 value=0 time=12
control_change channel=0 control=64 value=127 time=129
note_on channel=0 note=39 velocity=0 time=99
note_on channel=0 note=51 velocity=27 time=0
note_on channel=0 note=51 velocity=0 time=0
note_on channel=0 note=86 velocity=43 time=0
note_on channel=0 note=80 velocity=36 time=0
control_change channel=0 control=64 value=0 time=7
control_change channel=0 control=64 value=127 time=149
note_on channel=0 note=80 velocity=0 time=0
note_on channel=0 note=86 velocity=0 time=0
note_on channel=0 note=79 velocity=30 time=0
note_on channel=0 note=87 velocity=36 time=0
note_on channel=0 note=87 velocity=0 time=0
note_on channel=0 note=79 velocity=0 time=0
note_on channel=0 note=39 velocity=32 time=0
control_change channel=0 control=64 value=0 time=0
control_change channel=0 control=64 value=127 time=240
note_on channel=0 note=39 velocity=0 time=0
note_on channel=0 note=55 velocity=48 time=0
note_on channel=0 note=58 velocity=48 time=0
note_on channel=0 note=63 velocity=57 time=0
note_on channel=0 note=63 velocity=0 time=480
note_on channel=0 note=58 velocity=0 time=0
note_on channel=0 note=55 velocity=0 time=0
control_change channel=0 control=64 value=0 time=134
note_on channel=0 note=48 velocity=36 time=0
note_on channel=0 note=48 velocity=0 time=240
note_on channel=0 note=47 velocity=42 time=0
control_change channel=0 control=64 value=127 time=78
note_on channel=0 note=47 velocity=0 time=162
note_on channel=0 note=48 velocity=35 time=0
control_change channel=0 control=64 value=0 time=12
note_on channel=0 note=48 velocity=0 time=0
note_on channel=0 note=58 velocity=45 time=0
note_on channel=0 note=55 velocity=37 time=0
note_on channel=0 note=55 velocity=0 time=120
note_on channel=0 note=58 velocity=0 time=0
note_on channel=0 note=58 velocity=42 time=0
note_on channel=0 note=55 velocity=35 time=0
note_on channel=0 note=55 velocity=0 time=120
note_on channel=0 note=58 velocity=0 time=0
note_on channel=0 note=58 velocity=77 time=0
note_on channel=0 note=55 velocity=64 time=0
note_on channel=0 note=63 velocity=40 time=0
note_on channel=0 note=63 velocity=0 time=240
note_on channel=0 note=62 velocity=45 time=0
control_change channel=0 control=64 value=127 time=78
note_on channel=0 note=62 velocity=0 time=162
note_on channel=0 note=63 velocity=40 time=0
control_change channel=0 control=64 value=0 time=17
note_on channel=0 note=63 velocity=0 time=0
note_on channel=0 note=70 velocity=45 time=0
note_on channel=0 note=70 velocity=0 time=120
note_on channel=0 note=70 velocity=38 time=0
note_on channel=0 note=70 velocity=0 time=120
note_on channel=0 note=55 velocity=0 time=0
note_on channel=0 note=58 velocity=0 time=0
note_on channel=0 note=61 velocity=45 time=0
note_on channel=0 note=58 velocity=38 time=0
note_on channel=0 note=56 velocity=32 time=0
note_on channel=0 note=61 velocity=0 time=240
note_on channel=0 note=62 velocity=40 time=0
note_on channel=0 note=62 velocity=0 time=0
note_on channel=0 note=56 velocity=0 time=0
note_on channel=0 note=58 velocity=0 time=0
note_on channel=0 note=70 velocity=45 time=0
note_on channel=0 note=70 velocity=0 time=120
note_on channel=0 note=70 velocity=38 time=0
note_on channel=0 note=46 velocity=36 time=0
note_on channel=0 note=70 velocity=0 time=120
note_on channel=0 note=46 velocity=0 time=120
note_on channel=0 note=45 velocity=42 time=0
control_change channel=0 control=64 value=127 time=78
note_on channel=0 note=45 velocity=0 time=162
note_on channel=0 note=46 velocity=35 time=0
control_change channel=0 control=64 value=0 time=12
note_on channel=0 note=46 velocity=0 time=0
note_on channel=0 note=58 velocity=45 time=0
note_on channel=0 note=56 velocity=37 time=0
note_on channel=0 note=56 velocity=0 time=120
note_on channel=0 note=58 velocity=0 time=0
note_on channel=0 note=58 velocity=42 time=0
note_on channel=0 note=56 velocity=35 time=0
note_on channel=0 note=56 velocity=0 time=120
note_on channel=0 note=58 velocity=0 time=0
note_on channel=0 note=58 velocity=77 time=0
note_on channel=0 note=56 velocity=64 time=0
note_on channel=0 note=65 velocity=40 time=0
note_on channel=0 note=65 velocity=0 time=240
note_on channel=0 note=64 velocity=45 time=0
control_change channel=0 control=64 value=127 time=78
note_on channel=0 note=64 velocity=0 time=162
note_on channel=0 note=65 velocity=40 time=0
control_change channel=0 control=64 value=0 time=17
note_on channel=0 note=65 velocity=0 time=0
note_on channel=0 note=70 velocity=45 time=0
note_on channel=0 note=70 velocity=0 time=120
note_on channel=0 note=70 velocity=38 time=0
note_on channel=0 note=70 velocity=0 time=120
note_on channel=0 note=56 velocity=0 time=0
note_on channel=0 note=58 velocity=0 time=0
note_on channel=0 note=63 velocity=45 time=0
note_on channel=0 note=58 velocity=38 time=0
note_on channel=0 note=55 velocity=32 time=0
control_change channel=0 control=64 value=127 time=36
note_on channel=0 note=63 velocity=0 time=204
note_on channel=0 note=64 velocity=40 time=0
control_change channel=0 control=64 value=0 time=18
note_on channel=0 note=64 velocity=0 time=0
note_on channel=0 note=55 velocity=0 time=0
note_on channel=0 note=58 velocity=0 time=0
note_on channel=0 note=70 velocity=45 time=0
note_on channel=0 note=70 velocity=0 time=120
note_on channel=0 note=70 velocity=38 time=0
note_on channel=0 note=70 velocity=0 time=120
note_on channel=0 note=64 velocity=45 time=0
note_on channel=0 note=58 velocity=33 time=0
note_on channel=0 note=61 velocity=39 time=0
note_on channel=0 note=53 velocity=33 time=0
control_change channel=0 control=64 value=127 time=36
note_on channel=0 note=64 velocity=0 time=204
note_on channel=0 note=65 velocity=41 time=0
control_change channel=0 control=64 value=0 time=18
note_on channel=0 note=65 velocity=0 time=0
note_on channel=0 note=53 velocity=0 time=0
note_on channel=0 note=61 velocity=0 time=0
note_on channel=0 note=58 velocity=0 time=0
note_on channel=0 note=73 velocity=46 time=0
note_on channel=0 note=73 velocity=0 time=120
note_on channel=0 note=73 velocity=40 time=0
note_on channel=0 note=73 velocity=0 time=120
note_on channel=0 note=66 velocity=47 time=0
note_on channel=0 note=55 velocity=34 time=0
note_on channel=0 note=58 velocity=34 time=0
note_on channel=0 note=60 velocity=40 time=0
note_on channel=0 note=52 velocity=34 time=0
control_change channel=0 control=64 value=127 time=36
note_on channel=0 note=66 velocity=0 time=204
note_on channel=0 note=67 velocity=43 time=0
control_change channel=0 control=64 value=0 time=18
note_on channel=0 note=67 velocity=0 time=0
note_on channel=0 note=52 velocity=0 time=0
note_on channel=0 note=55 velocity=0 time=0
note_on channel=0 note=58 velocity=0 time=0
note_on channel=0 note=60 velocity=0 time=0
note_on channel=0 note=73 velocity=48 time=0
note_on channel=0 note=73 velocity=0 time=120
note_on channel=0 note=73 velocity=41 time=0
note_on channel=0 note=73 velocity=0 time=120
note_on channel=0 note=72 velocity=49 time=0
note_on channel=0 note=72 velocity=0 time=240
note_on channel=0 note=70 velocity=42 time=0
note_on channel=0 note=70 velocity=0 time=240
note_on channel=0 note=69 velocity=47 time=0
note_on channel=0 note=69 velocity=0 time=240
note_on channel=0 note=70 velocity=42 time=0
note_on channel=0 note=70 velocity=0 time=0
note_on channel=0 note=67 velocity=49 time=0
note_on channel=0 note=53 velocity=43 time=0
note_on channel=0 note=56 velocity=43 time=0
note_on channel=0 note=60 velocity=53 time=0
control_change channel=0 control=64 value=127 time=36
note_on channel=0 note=67 velocity=0 time=204
note_on channel=0 note=68 velocity=44 time=0
control_change channel=0 control=64 value=0 time=18
note_on channel=0 note=68 velocity=0 time=0
note_on channel=0 note=60 velocity=0 time=0
note_on channel=0 note=56 velocity=0 time=0
note_on channel=0 note=53 velocity=0 time=0
note_on channel=0 note=77 velocity=50 time=0
note_on channel=0 note=77 velocity=0 time=120
note_on channel=0 note=77 velocity=44 time=0
note_on channel=0 note=77 velocity=0 time=120
note_on channel=0 note=71 velocity=52 time=0
note_on channel=0 note=51 velocity=45 time=0
note_on channel=0 note=53 velocity=45 time=0
note_on channel=0 note=56 velocity=45 time=0
note_on channel=0 note=60 velocity=55 time=0
control_change channel=0 control=64 value=127 time=36
note_on channel=0 note=71 velocity=0 time=204
note_on channel=0 note=72 velocity=47 time=0
control_change channel=0 control=64 value=0 time=18
note_on channel=0 note=72 velocity=0 time=0
note_on channel=0 note=60 velocity=0 time=0
note_on channel=0 note=51 velocity=0 time=0
note_on channel=0 note=53 velocity=0 time=0
note_on channel=0 note=56 velocity=0 time=0
note_on channel=0 note=80 velocity=54 time=0
note_on channel=0 note=80 velocity=0 time=120
note_on channel=0 note=80 velocity=47 time=0
note_on channel=0 note=80 velocity=0 time=120
note_on channel=0 note=76 velocity=56 time=0
note_on channel=0 note=50 velocity=49 time=0
note_on channel=0 note=53 velocity=49 time=0
note_on channel=0 note=56 velocity=49 time=0
note_on channel=0 note=59 velocity=58 time=0
control_change channel=0 control=64 value=127 time=36
note_on channel=0 note=76 velocity=0 time=204
note_on channel=0 note=77 velocity=50 time=0
control_change channel=0 control=64 value=0 time=18
note_on channel=0 note=77 velocity=0 time=0
note_on channel=0 note=59 velocity=0 time=0
note_on channel=0 note=50 velocity=0 time=0
note_on channel=0 note=53 velocity=0 time=0
note_on channel=0 note=56 velocity=0 time=0
note_on channel=0 note=83 velocity=57 time=0
note_on channel=0 note=83 velocity=0 time=120
note_on channel=0 note=83 velocity=50 time=0
note_on channel=0 note=83 velocity=0 time=120
note_on channel=0 note=79 velocity=63 time=0
note_on channel=0 note=48 velocity=52 time=0
note_on channel=0 note=50 velocity=52 time=0
note_on channel=0 note=53 velocity=52 time=0
note_on channel=0 note=56 velocity=63 time=0
control_change channel=0 control=64 value=127 time=36
note_on channel=0 note=79 velocity=0 time=204
note_on channel=0 note=80 velocity=56 time=0
control_change channel=0 control=64 value=0 time=18
note_on channel=0 note=80 velocity=0 time=0
note_on channel=0 note=56 velocity=0 time=0
note_on channel=0 note=48 velocity=0 time=0
note_on channel=0 note=50 velocity=0 time=0
note_on channel=0 note=53 velocity=0 time=0
note_on channel=0 note=86 velocity=66 time=0
note_on channel=0 note=86 velocity=0 time=120
note_on channel=0 note=86 velocity=60 time=0
note_on channel=0 note=86 velocity=0 time=120
note_on channel=0 note=85 velocity=79 time=0
note_on channel=0 note=47 velocity=58 time=0
note_on channel=0 note=50 velocity=58 time=0
note_on channel=0 note=53 velocity=58 time=0
note_on channel=0 note=56 velocity=70 time=0
control_change channel=0 control=64 value=127 time=36
note_on channel=0 note=85 velocity=0 time=204
note_on channel=0 note=86 velocity=72 time=0
control_change channel=0 control=64 value=0 time=18
note_on channel=0 note=86 velocity=0 time=0
note_on channel=0 note=56 velocity=0 time=0
note_on channel=0 note=47 velocity=0 time=0
note_on channel=0 note=50 velocity=0 time=0
note_on channel=0 note=53 velocity=0 time=0
note_on channel=0 note=89 velocity=69 time=0
note_on channel=0 note=89 velocity=0 time=120
note_on channel=0 note=89 velocity=64 time=0
note_on channel=0 note=89 velocity=0 time=120
note_on channel=0 note=89 velocity=76 time=0
control_change channel=0 control=64 value=127 time=170
note_on channel=0 note=80 velocity=65 time=0
note_on channel=0 note=80 velocity=0 time=216
note_on channel=0 note=80 velocity=65 time=24
note_on channel=0 note=80 velocity=0 time=216
note_on channel=0 note=80 velocity=65 time=0
note_on channel=0 note=80 velocity=0 time=216
note_on channel=0 note=89 velocity=0 time=0
note_on channel=0 note=71 velocity=69 time=0
control_change channel=0 control=64 value=0 time=0
note_on channel=0 note=68 velocity=65 time=240
control_change channel=0 control=64 value=127 time=0
note_on channel=0 note=68 velocity=0 time=216
note_on channel=0 note=68 velocity=65 time=24
note_on channel=0 note=68 velocity=0 time=216
note_on channel=0 note=68 velocity=65 time=0
note_on channel=0 note=68 velocity=0 time=216
note_on channel=0 note=71 velocity=0 time=0
note_on channel=0 note=59 velocity=74 time=0
note_on channel=0 note=56 velocity=65 time=240
note_on channel=0 note=56 velocity=0 time=216
note_on channel=0 note=56 velocity=65 time=24
note_on channel=0 note=56 velocity=0 time=216
note_on channel=0 note=56 velocity=65 time=0
note_on channel=0 note=56 velocity=0 time=216
note_on channel=0 note=59 velocity=0 time=0
note_on channel=0 note=47 velocity=69 time=0
control_change channel=0 control=64 value=0 time=0
control_change channel=0 control=64 value=127 time=126
note_on channel=0 note=47 velocity=0 time=114
note_on channel=0 note=44 velocity=64 time=0
note_on channel=0 note=56 velocity=64 time=0
note_on channel=0 note=56 velocity=0 time=216
note_on channel=0 note=44 velocity=0 time=0
note_on channel=0 note=44 velocity=64 time=24
note_on channel=0 note=56 velocity=64 time=0
note_on channel=0 note=56 velocity=0 time=216
note_on channel=0 note=44 velocity=0 time=0
note_on channel=0 note=44 velocity=64 time=0
note_on channel=0 note=56 velocity=64 time=0
note_on channel=0 note=44 velocity=0 time=216
note_on channel=0 note=56 velocity=0 time=0
note_on channel=0 note=35 velocity=78 time=0
note_on channel=0 note=47 velocity=75 time=0
control_change channel=0 control=64 value=0 time=11
control_change channel=0 control=64 value=127 time=184
note_on channel=0 note=47 velocity=0 time=0
note_on channel=0 note=35 velocity=0 time=0
note_on channel=0 note=44 velocity=70 time=0
note_on channel=0 note=56 velocity=69 time=0
note_on channel=0 note=56 velocity=0 time=216
note_on channel=0 note=44 velocity=0 time=0
note_on channel=0 note=44 velocity=70 time=24
note_on channel=0 note=56 velocity=69 time=0
note_on channel=0 note=56 velocity=0 time=216
note_on channel=0 note=44 velocity=0 time=0
note_on channel=0 note=44 velocity=70 time=0
note_on channel=0 note=56 velocity=69 time=0
note_on channel=0 note=56 velocity=0 time=216
note_on channel=0 note=44 velocity=0 time=0
note_on channel=0 note=35 velocity=86 time=0
note_on channel=0 note=47 velocity=88 time=0
control_change channel=0 control=64 value=0 time=0
note_on channel=0 note=47 velocity=0 time=700
note_on channel=0 note=35 velocity=0 time=0
note_on channel=0 note=60 velocity=40 time=0
note_on channel=0 note=48 velocity=36 time=0
note_on channel=0 note=48 velocity=0 time=0
note_on channel=0 note=60 velocity=0 time=0
note_on channel=0 note=59 velocity=45 time=0
note_on channel=0 note=47 velocity=38 time=0
control_change channel=0 control=64 value=127 time=78
note_on channel=0 note=47 velocity=0 time=162
note_on channel=0 note=59 velocity=0 time=0
note_on channel=0 note=60 velocity=40 time=0
note_on channel=0 note=48 velocity=35 time=0
control_change channel=0 control=64 value=0 time=12
note_on channel=0 note=48 velocity=0 time=0
note_on channel=0 note=60 velocity=0 time=0
note_on channel=0 note=65 velocity=45 time=0
note_on channel=0 note=53 velocity=38 time=0
note_on channel=0 note=53 velocity=0 time=120
note_on channel=0 note=65 velocity=0 time=0
note_on channel=0 note=65 velocity=38 time=0
note_on channel=0 note=53 velocity=34 time=0
note_on channel=0 note=53 velocity=0 time=120
note_on channel=0 note=65 velocity=0 time=0
note_on channel=0 note=63 velocity=45 time=0
note_on channel=0 note=51 velocity=38 time=0
note_on channel=0 note=51 velocity=0 time=480
note_on channel=0 note=63 velocity=0 time=0
note_on channel=0 note=60 velocity=40 time=0
note_on channel=0 note=48 velocity=36 time=0
note_on channel=0 note=48 velocity=0 time=240
note_on channel=0 note=60 velocity=0 time=0
note_on channel=0 note=59 velocity=45 time=0
note_on channel=0 note=47 velocity=38 time=0
control_change channel=0 control=64 value=127 time=78
note_on channel=0 note=47 velocity=0 time=162
note_on channel=0 note=59 velocity=0 time=0
note_on channel=0 note=60 velocity=40 time=0
note_on channel=0 note=48 velocity=35 time=0
control_change channel=0 control=64 value=0 time=17
note_on channel=0 note=48 velocity=0 time=0
note_on channel=0 note=60 velocity=0 time=0
note_on channel=0 note=68 velocity=45 time=0
note_on channel=0 note=56 velocity=38 time=0
note_on channel=0 note=56 velocity=0 time=120
note_on channel=0 note=68 velocity=0 time=0
note_on channel=0 note=68 velocity=38 time=0
note_on channel=0 note=56 velocity=34 time=0
note_on channel=0 note=56 velocity=0 time=120
note_on channel=0 note=68 velocity=0 time=0
note_on channel=0 note=67 velocity=45 time=0
note_on channel=0 note=55 velocity=38 time=0
note_on channel=0 note=55 velocity=0 time=480
note_on channel=0 note=67 velocity=0 time=0
note_on channel=0 note=60 velocity=40 time=0
note_on channel=0 note=60 velocity=0 time=240
note_on channel=0 note=59 velocity=45 time=0
control_change channel=0 control=64 value=127 time=85
note_on channel=0 note=59 velocity=0 time=155
note_on channel=0 note=60 velocity=40 time=0
control_change channel=0 control=64 value=0 time=21
note_on channel=0 note=60 velocity=0 time=0
note_on channel=0 note=72 velocity=45 time=0
note_on channel=0 note=72 velocity=0 time=120
note_on channel=0 note=72 velocity=38 time=0
note_on channel=0 note=72 velocity=0 time=120
note_on channel=0 note=72 velocity=45 time=0
note_on channel=0 note=56 velocity=38 time=0
note_on channel=0 note=60 velocity=38 time=0
note_on channel=0 note=66 velocity=38 time=0
control_change channel=0 control=64 value=127 time=3
note_on channel=0 note=72 velocity=0 time=237
note_on channel=0 note=74 velocity=45 time=0
note_on channel=0 note=74 velocity=0 time=60
note_on channel=0 note=72 velocity=45 time=0
note_on channel=0 note=72 velocity=0 time=60
note_on channel=0 note=71 velocity=40 time=0
note_on channel=0 note=71 velocity=0 time=60
note_on channel=0 note=72 velocity=45 time=0
note_on channel=0 note=72 velocity=0 time=60
note_on channel=0 note=75 velocity=50 time=0
control_change channel=0 control=64 value=0 time=11
control_change channel=0 control=64 value=127 time=55
note_on channel=0 note=75 velocity=0 time=174
note_on channel=0 note=74 velocity=45 time=0
note_on channel=0 note=74 velocity=0 time=0
note_on channel=0 note=77 velocity=56 time=0
control_change channel=0 control=64 value=0 time=23
control_change channel=0 control=64 value=127 time=63
note_on channel=0 note=77 velocity=0 time=154
note_on channel=0 note=75 velocity=53 time=0
note_on channel=0 note=75 velocity=0 time=240
note_on channel=0 note=74 velocity=50 time=0
control_change channel=0 control=64 value=0 time=11
control_change channel=0 control=64 value=127 time=29
note_on channel=0 note=74 velocity=0 time=0
note_on channel=0 note=72 velocity=47 time=0
note_on channel=0 note=72 velocity=0 time=0
note_on channel=0 note=56 velocity=0 time=0
note_on channel=0 note=60 velocity=0 time=0
note_on channel=0 note=66 velocity=0 time=0
note_on channel=0 note=71 velocity=51 time=0
note_on channel=0 note=67 velocity=38 time=0
note_on channel=0 note=62 velocity=32 time=0
note_on channel=0 note=55 velocity=32 time=0
control_change channel=0 control=64 value=0 time=0
note_on channel=0 note=55 velocity=0 time=480
note_on channel=0 note=71 velocity=0 time=0
note_on channel=0 note=67 velocity=0 time=0
note_on channel=0 note=62 velocity=0 time=0
note_on channel=0 note=55 velocity=40 time=240
note_on channel=0 note=43 velocity=36 time=0
note_on channel=0 note=43 velocity=0 time=0
note_on channel=0 note=55 velocity=0 time=0
note_on channel=0 note=54 velocity=45 time=0
note_on channel=0 note=42 velocity=38 time=0
control_change channel=0 control=64 value=127 time=113
note_on channel=0 note=42 velocity=0 time=127
note_on channel=0 note=54 velocity=0 time=0
note_on channel=0 note=55 velocity=40 time=0
note_on channel=0 note=43 velocity=35 time=0
control_change channel=0 control=64 value=0 time=15
note_on channel=0 note=43 velocity=0 time=0
note_on channel=0 note=55 velocity=0 time=0
note_on channel=0 note=60 velocity=45 time=0
note_on channel=0 note=48 velocity=38 time=0
note_on channel=0 note=48 velocity=0 time=120
note_on channel=0 note=60 velocity=0 time=0
note_on channel=0 note=60 velocity=38 time=0
note_on channel=0 note=48 velocity=34 time=0
note_on channel=0 note=48 velocity=0 time=120
note_on channel=0 note=60 velocity=0 time=0
note_on channel=0 note=59 velocity=45 time=0
note_on channel=0 note=47 velocity=38 time=0
note_on channel=0 note=47 velocity=0 time=480
note_on channel=0 note=59 velocity=0 time=0
note_on channel=0 note=55 velocity=40 time=240
note_on channel=0 note=43 velocity=36 time=0
note_on channel=0 note=43 velocity=0 time=0
note_on channel=0 note=55 velocity=0 time=0
note_on channel=0 note=54 velocity=45 time=0
note_on channel=0 note=42 velocity=38 time=0
control_change channel=0 control=64 value=127 time=50
note_on channel=0 note=42 velocity=0 time=190
note_on channel=0 note=54 velocity=0 time=0
note_on channel=0 note=55 velocity=40 time=0
note_on channel=0 note=43 velocity=35 time=0
control_change channel=0 control=64 value=0 time=16
note_on channel=0 note=43 velocity=0 time=0
note_on channel=0 note=55 velocity=0 time=0
note_on channel=0 note=63 velocity=45 time=0
note_on channel=0 note=51 velocity=38 time=0
note_on channel=0 note=51 velocity=0 time=120
note_on channel=0 note=63 velocity=0 time=0
note_on channel=0 note=63 velocity=38 time=0
note_on channel=0 note=51 velocity=34 time=0
note_on channel=0 note=51 velocity=0 time=120
note_on channel=0 note=63 velocity=0 time=0
note_on channel=0 note=62 velocity=45 time=0
note_on channel=0 note=50 velocity=38 time=0
note_on channel=0 note=50 velocity=0 time=480
note_on channel=0 note=62 velocity=0 time=0
note_on channel=0 note=55 velocity=45 time=240
note_on channel=0 note=43 velocity=37 time=0
note_on channel=0 note=43 velocity=0 time=120
note_on channel=0 note=55 velocity=0 time=0
note_on channel=0 note=59 velocity=51 time=0
note_on channel=0 note=47 velocity=43 time=0
note_on channel=0 note=47 velocity=0 time=120
note_on channel=0 note=59 velocity=0 time=0
note_on channel=0 note=62 velocity=45 time=120
note_on channel=0 note=50 velocity=37 time=0
note_on channel=0 note=50 velocity=0 time=120
note_on channel=0 note=62 velocity=0 time=0
note_on channel=0 note=65 velocity=45 time=120
note_on channel=0 note=53 velocity=37 time=0
note_on channel=0 note=53 velocity=0 time=120
note_on channel=0 note=65 velocity=0 time=0
note_on channel=0 note=68 velocity=45 time=120
note_on channel=0 note=56 velocity=37 time=0
note_on channel=0 note=56 velocity=0 time=120
note_on channel=0 note=68 velocity=0 time=0
note_on channel=0 note=71 velocity=55 time=120
note_on channel=0 note=59 velocity=46 time=0
note_on channel=0 note=59 velocity=0 time=120
note_on channel=0 note=71 velocity=0 time=0
note_on channel=0 note=74 velocity=53 time=120
note_on channel=0 note=62 velocity=45 time=0
note_on channel=0 note=62 velocity=0 time=120
note_on channel=0 note=74 velocity=0 time=0
note_on channel=0 note=77 velocity=56 time=120
note_on channel=0 note=65 velocity=47 time=0
note_on channel=0 note=65 velocity=0 time=120
note_on channel=0 note=77 velocity=0 time=0
note_on channel=0 note=80 velocity=60 time=0
note_on channel=0 note=68 velocity=50 time=0
note_on channel=0 note=68 velocity=0 time=120
note_on channel=0 note=80 velocity=0 time=0
note_on channel=0 note=79 velocity=63 time=0
note_on channel=0 note=67 velocity=53 time=0
note_on channel=0 note=67 velocity=0 time=120
note_on channel=0 note=79 velocity=0 time=0
note_on channel=0 note=77 velocity=59 time=120
note_on channel=0 note=65 velocity=50 time=0
note_on channel=0 note=65 velocity=0 time=120
note_on channel=0 note=77 velocity=0 time=0
note_on channel=0 note=75 velocity=55 time=120
note_on channel=0 note=63 velocity=46 time=0
note_on channel=0 note=63 velocity=0 time=120
note_on channel=0 note=75 velocity=0 time=0
note_on channel=0 note=74 velocity=54 time=0
note_on channel=0 note=62 velocity=45 time=0
note_on channel=0 note=62 velocity=0 time=120
note_on channel=0 note=74 velocity=0 time=0
note_on channel=0 note=72 velocity=62 time=0
note_on channel=0 note=60 velocity=42 time=0
control_change channel=0 control=64 value=127 time=0
note_on channel=0 note=60 velocity=0 time=120
note_on channel=0 note=63 velocity=32 time=120
note_on channel=0 note=67 velocity=38 time=0
note_on channel=0 note=67 velocity=0 time=120
note_on channel=0 note=63 velocity=0 time=0
note_on channel=0 note=72 velocity=0 time=120
note_on channel=0 note=63 velocity=32 time=0
note_on channel=0 note=67 velocity=38 time=0
note_on channel=0 note=67 velocity=0 time=120
note_on channel=0 note=63 velocity=0 time=0
note_on channel=0 note=72 velocity=50 time=120
note_on channel=0 note=63 velocity=32 time=0
note_on channel=0 note=67 velocity=38 time=0
note_on channel=0 note=67 velocity=0 time=120
note_on channel=0 note=63 velocity=0 time=0
note_on channel=0 note=72 velocity=0 time=0
note_on channel=0 note=71 velocity=57 time=0
note_on channel=0 note=60 velocity=42 time=0
control_change channel=0 control=64 value=0 time=7
control_change channel=0 control=64 value=127 time=68
note_on channel=0 note=60 velocity=0 time=45
note_on channel=0 note=71 velocity=0 time=120
note_on channel=0 note=72 velocity=53 time=0
note_on channel=0 note=64 velocity=31 time=0
note_on channel=0 note=67 velocity=31 time=0
note_on channel=0 note=70 velocity=37 time=0
control_change channel=0 control=64 value=0 time=13
note_on channel=0 note=70 velocity=0 time=107
note_on channel=0 note=67 velocity=0 time=0
note_on channel=0 note=64 velocity=0 time=0
note_on channel=0 note=72 velocity=0 time=0
note_on channel=0 note=84 velocity=60 time=0
note_on channel=0 note=64 velocity=31 time=0
note_on channel=0 note=67 velocity=31 time=0
note_on channel=0 note=70 velocity=37 time=0
note_on channel=0 note=70 velocity=0 time=120
note_on channel=0 note=84 velocity=0 time=0
note_on channel=0 note=64 velocity=0 time=0
note_on channel=0 note=67 velocity=0 time=0
note_on channel=0 note=84 velocity=52 time=0
note_on channel=0 note=64 velocity=31 time=0
note_on channel=0 note=67 velocity=31 time=0
note_on channel=0 note=70 velocity=37 time=0
note_on channel=0 note=70 velocity=0 time=120
note_on channel=0 note=84 velocity=0 time=0
note_on channel=0 note=64 velocity=0 time=0
note_on channel=0 note=67 velocity=0 time=0
note_on channel=0 note=84 velocity=60 time=0
note_on channel=0 note=60 velocity=42 time=0
control_change channel=0 control=64 value=127 time=21
note_on channel=0 note=60 velocity=0 time=0
note_on channel=0 note=65 velocity=32 time=120
note_on channel=0 note=68 velocity=38 time=0
note_on channel=0 note=68 velocity=0 time=120
note_on channel=0 note=65 velocity=0 time=0
note_on channel=0 note=84 velocity=0 time=120
note_on channel=0 note=65 velocity=32 time=0
note_on channel=0 note=68 velocity=38 time=0
note_on channel=0 note=68 velocity=0 time=120
note_on channel=0 note=65 velocity=0 time=0
note_on channel=0 note=89 velocity=59 time=120
note_on channel=0 note=65 velocity=32 time=0
note_on channel=0 note=68 velocity=38 time=0
note_on channel=0 note=68 velocity=0 time=120
note_on channel=0 note=65 velocity=0 time=0
note_on channel=0 note=89 velocity=0 time=120
note_on channel=0 note=87 velocity=65 time=0
note_on channel=0 note=60 velocity=42 time=0
control_change channel=0 control=64 value=0 time=17
control_change channel=0 control=64 value=127 time=74
note_on channel=0 note=60 velocity=0 time=29
note_on channel=0 note=87 velocity=0 time=120
note_on channel=0 note=86 velocity=60 time=0
note_on channel=0 note=65 velocity=31 time=0
note_on channel=0 note=68 velocity=31 time=0
note_on channel=0 note=71 velocity=37 time=0
note_on channel=0 note=71 velocity=0 time=120
note_on channel=0 note=68 velocity=0 time=0
note_on channel=0 note=65 velocity=0 time=0
note_on channel=0 note=86 velocity=0 time=120
note_on channel=0 note=84 velocity=66 time=0
note_on channel=0 note=65 velocity=31 time=0
note_on channel=0 note=68 velocity=31 time=0
note_on channel=0 note=71 velocity=37 time=0
control_change channel=0 control=64 value=0 time=10
control_change channel=0 control=64 value=127 time=61
note_on channel=0 note=71 velocity=0 time=49
note_on channel=0 note=68 velocity=0 time=0
note_on channel=0 note=65 velocity=0 time=0
note_on channel=0 note=84 velocity=0 time=0
note_on channel=0 note=83 velocity=60 time=0
note_on channel=0 note=65 velocity=31 time=0
note_on channel=0 note=68 velocity=31 time=0
note_on channel=0 note=71 velocity=37 time=0
note_on channel=0 note=71 velocity=0 time=120
note_on channel=0 note=68 velocity=0 time=0
note_on channel=0 note=65 velocity=0 time=0
note_on channel=0 note=83 velocity=0 time=0
note_on channel=0 note=86 velocity=69 time=0
note_on channel=0 note=60 velocity=42 time=0
control_change channel=0 control=64 value=0 time=17
control_change channel=0 control=64 value=127 time=46
note_on channel=0 note=60 velocity=0 time=57
note_on channel=0 note=86 velocity=0 time=120
note_on channel=0 note=84 velocity=60 time=0
note_on channel=0 note=63 velocity=32 time=0
note_on channel=0 note=67 velocity=38 time=0
control_change channel=0 control=64 value=0 time=10
note_on channel=0 note=67 velocity=0 time=110
note_on channel=0 note=63 velocity=0 time=0
note_on channel=0 note=84 velocity=0 time=120
note_on channel=0 note=63 velocity=32 time=0
note_on channel=0 note=67 velocity=38 time=0
note_on channel=0 note=67 velocity=0 time=120
note_on channel=0 note=63 velocity=0 time=0
note_on channel=0 note=72 velocity=50 time=120
note_on channel=0 note=63 velocity=32 time=0
note_on channel=0 note=67 velocity=38 time=0
note_on channel=0 note=67 velocity=0 time=120
note_on channel=0 note=63 velocity=0 time=0
note_on channel=0 note=72 velocity=0 time=0
note_on channel=0 note=71 velocity=54 time=0
note_on channel=0 note=60 velocity=42 time=0
control_change channel=0 control=64 value=127 time=52
note_on channel=0 note=71 velocity=0 time=44
note_on channel=0 note=72 velocity=54 time=0
note_on channel=0 note=60 velocity=0 time=24
note_on channel=0 note=72 velocity=0 time=72
note_on channel=0 note=73 velocity=55 time=0
note_on channel=0 note=64 velocity=31 time=48
note_on channel=0 note=67 velocity=31 time=0
note_on channel=0 note=70 velocity=37 time=0
note_on channel=0 note=73 velocity=0 time=48
note_on channel=0 note=74 velocity=56 time=0
note_on channel=0 note=64 velocity=0 time=72
note_on channel=0 note=70 velocity=0 time=0
note_on channel=0 note=67 velocity=0 time=0
note_on channel=0 note=74 velocity=0 time=24
note_on channel=0 note=75 velocity=56 time=0
note_on channel=0 note=75 velocity=0 time=0
note_on channel=0 note=76 velocity=57 time=0
note_on channel=0 note=64 velocity=31 time=0
note_on channel=0 note=67 velocity=31 time=0
note_on channel=0 note=70 velocity=37 time=0
control_change channel=0 control=64 value=0 time=18
control_change channel=0 control=64 value=127 time=53
note_on channel=0 note=70 velocity=0 time=49
note_on channel=0 note=76 velocity=0 time=0
note_on channel=0 note=64 velocity=0 time=0
note_on channel=0 note=67 velocity=0 time=0
note_on channel=0 note=77 velocity=58 time=0
note_on channel=0 note=77 velocity=0 time=0
note_on channel=0 note=78 velocity=59 time=0
note_on channel=0 note=64 velocity=31 time=0
note_on channel=0 note=67 velocity=31 time=0
note_on channel=0 note=70 velocity=37 time=0
note_on channel=0 note=70 velocity=0 time=120
note_on channel=0 note=78 velocity=0 time=0
note_on channel=0 note=64 velocity=0 time=0
note_on channel=0 note=67 velocity=0 time=0
note_on channel=0 note=79 velocity=59 time=0
note_on channel=0 note=79 velocity=0 time=0
note_on channel=0 note=80 velocity=60 time=0
note_on channel=0 note=60 velocity=42 time=0
control_change channel=0 control=64 value=0 time=0
control_change channel=0 control=64 value=127 time=54
note_on channel=0 note=60 velocity=0 time=66
note_on channel=0 note=80 velocity=0 time=0
note_on channel=0 note=81 velocity=61 time=0
note_on channel=0 note=81 velocity=0 time=120
note_on channel=0 note=82 velocity=62 time=0
note_on channel=0 note=65 velocity=32 time=0
note_on channel=0 note=68 velocity=38 time=0
note_on channel=0 note=68 velocity=0 time=120
note_on channel=0 note=65 velocity=0 time=0
note_on channel=0 note=82 velocity=0 time=0
note_on channel=0 note=83 velocity=62 time=0
note_on channel=0 note=83 velocity=0 time=0
note_on channel=0 note=84 velocity=68 time=0
note_on channel=0 note=65 velocity=32 time=0
note_on channel=0 note=68 velocity=38 time=0
control_change channel=0 control=64 value=0 time=15
control_change channel=0 control=64 value=127 time=34
note_on channel=0 note=68 velocity=0 time=71
note_on channel=0 note=65 velocity=0 time=0
note_on channel=0 note=84 velocity=0 time=0
note_on channel=0 note=89 velocity=63 time=0
note_on channel=0 note=65 velocity=32 time=0
note_on channel=0 note=68 velocity=38 time=0
note_on channel=0 note=68 velocity=0 time=120
note_on channel=0 note=65 velocity=0 time=0
note_on channel=0 note=89 velocity=0 time=0
note_on channel=0 note=87 velocity=65 time=0
note_on channel=0 note=60 velocity=42 time=0
control_change channel=0 control=64 value=0 time=20
control_change channel=0 control=64 value=127 time=52
note_on channel=0 note=60 velocity=0 time=48
note_on channel=0 note=87 velocity=0 time=120
note_on channel=0 note=86 velocity=60 time=0
note_on channel=0 note=65 velocity=31 time=0
note_on channel=0 note=68 velocity=31 time=0
note_on channel=0 note=71 velocity=37 time=0
note_on channel=0 note=71 velocity=0 time=120
note_on channel=0 note=68 velocity=0 time=0
note_on channel=0 note=65 velocity=0 time=0
note_on channel=0 note=86 velocity=0 time=120
note_on channel=0 note=84 velocity=66 time=0
note_on channel=0 note=65 velocity=31 time=0
note_on channel=0 note=68 velocity=31 time=0
note_on channel=0 note=71 velocity=37 time=0
control_change channel=0 control=64 value=0 time=8
control_change channel=0 control=64 value=127 time=49
note_on channel=0 note=71 velocity=0 time=63
note_on channel=0 note=68 velocity=0 time=0
note_on channel=0 note=65 velocity=0 time=0
note_on channel=0 note=84 velocity=0 time=0
note_on channel=0 note=83 velocity=60 time=0
note_on channel=0 note=65 velocity=31 time=0
note_on channel=0 note=68 velocity=31 time=0
note_on channel=0 note=71 velocity=37 time=0
note_on channel=0 note=71 velocity=0 time=120
note_on channel=0 note=68 velocity=0 time=0
note_on channel=0 note=65 velocity=0 time=0
note_on channel=0 note=83 velocity=0 time=0
note_on channel=0 note=84 velocity=69 time=0
note_on channel=0 note=60 velocity=36 time=0
note_on channel=0 note=63 velocity=36 time=0
note_on channel=0 note=67 velocity=36 time=0
control_change channel=0 control=64 value=0 time=0
note_on channel=0 note=72 velocity=44 time=7
control_change channel=0 control=64 value=127 time=85
note_on channel=0 note=84 velocity=0 time=28
note_on channel=0 note=86 velocity=63 time=0
note_on channel=0 note=86 velocity=0 time=120
note_on channel=0 note=84 velocity=63 time=0
note_on channel=0 note=84 velocity=0 time=120
note_on channel=0 note=83 velocity=63 time=0
note_on channel=0 note=83 velocity=0 time=120
note_on channel=0 note=60 velocity=0 time=0
note_on channel=0 note=67 velocity=0 time=0
note_on channel=0 note=63 velocity=0 time=0
note_on channel=0 note=84 velocity=69 time=0
control_change channel=0 control=64 value=0 time=0
note_on channel=0 note=72 velocity=0 time=7
note_on channel=0 note=84 velocity=0 time=113
note_on channel=0 note=87 velocity=73 time=0
note_on channel=0 note=87 velocity=0 time=120
note_on channel=0 note=86 velocity=72 time=0
note_on channel=0 note=66 velocity=42 time=0
control_change channel=0 control=64 value=127 time=63
note_on channel=0 note=86 velocity=0 time=0
note_on channel=0 note=84 velocity=71 time=0
note_on channel=0 note=84 velocity=0 time=0
note_on channel=0 note=66 velocity=0 time=0
note_on channel=0 note=83 velocity=72 time=0
note_on channel=0 note=67 velocity=52 time=0
control_change channel=0 control=64 value=0 time=9
control_change channel=0 control=64 value=127 time=77
note_on channel=0 note=83 velocity=0 time=34
note_on channel=0 note=84 velocity=65 time=0
note_on channel=0 note=84 velocity=0 time=120
note_on channel=0 note=83 velocity=65 time=0
note_on channel=0 note=83 velocity=0 time=120
note_on channel=0 note=80 velocity=65 time=0
control_change channel=0 control=64 value=0 time=69
note_on channel=0 note=80 velocity=0 time=51
note_on channel=0 note=67 velocity=0 time=0
note_on channel=0 note=79 velocity=69 time=0
note_on channel=0 note=79 velocity=0 time=120
note_on channel=0 note=77 velocity=63 time=0
note_on channel=0 note=77 velocity=0 time=120
note_on channel=0 note=75 velocity=63 time=0
note_on channel=0 note=59 velocity=48 time=0
control_change channel=0 control=64 value=127 time=57
note_on channel=0 note=75 velocity=0 time=0
note_on channel=0 note=74 velocity=63 time=0
note_on channel=0 note=74 velocity=0 time=0
note_on channel=0 note=59 velocity=0 time=0
note_on channel=0 note=72 velocity=69 time=0
note_on channel=0 note=60 velocity=57 time=0
control_change channel=0 control=64 value=0 time=0
control_change channel=0 control=64 value=127 time=80
note_on channel=0 note=72 velocity=0 time=40
note_on channel=0 note=74 velocity=63 time=0
note_on channel=0 note=74 velocity=0 time=120
note_on channel=0 note=72 velocity=63 time=0
control_change channel=0 control=64 value=0 time=10
note_on channel=0 note=72 velocity=0 time=110
note_on channel=0 note=71 velocity=61 time=0
note_on channel=0 note=71 velocity=0 time=120
note_on channel=0 note=60 velocity=0 time=0
note_on channel=0 note=72 velocity=66 time=0
note_on channel=0 note=72 velocity=0 time=120
note_on channel=0 note=75 velocity=72 time=0
note_on channel=0 note=75 velocity=0 time=120
note_on channel=0 note=74 velocity=70 time=0
note_on channel=0 note=54 velocity=54 time=0
control_change channel=0 control=64 value=127 time=34
note_on channel=0 note=74 velocity=0 time=0
note_on channel=0 note=72 velocity=67 time=0
note_on channel=0 note=72 velocity=0 time=0
note_on channel=0 note=54 velocity=0 time=0
note_on channel=0 note=71 velocity=69 time=0
note_on channel=0 note=55 velocity=63 time=0
control_change channel=0 control=64 value=0 time=9
note_on channel=0 note=71 velocity=0 time=111
note_on channel=0 note=72 velocity=63 time=0
control_change channel=0 control=64 value=127 time=17
note_on channel=0 note=72 velocity=0 time=103
note_on channel=0 note=71 velocity=63 time=0
control_change channel=0 control=64 value=0 time=10
note_on channel=0 note=71 velocity=0 time=110
note_on channel=0 note=68 velocity=63 time=0
note_on channel=0 note=68 velocity=0 time=120
note_on channel=0 note=55 velocity=0 time=0
note_on channel=0 note=67 velocity=69 time=0
note_on channel=0 note=67 velocity=0 time=120
note_on channel=0 note=65 velocity=63 time=0
note_on channel=0 note=65 velocity=0 time=120
note_on channel=0 note=63 velocity=63 time=0
note_on channel=0 note=47 velocity=57 time=0
control_change channel=0 control=64 value=127 time=69
note_on channel=0 note=63 velocity=0 time=0
note_on channel=0 note=62 velocity=63 time=0
note_on channel=0 note=62 velocity=0 time=0
note_on channel=0 note=47 velocity=0 time=0
note_on channel=0 note=60 velocity=77 time=0
note_on channel=0 note=48 velocity=66 time=0
control_change channel=0 control=64 value=0 time=15
control_change channel=0 control=64 value=127 time=82
note_on channel=0 note=60 velocity=0 time=23
note_on channel=0 note=62 velocity=69 time=0
note_on channel=0 note=62 velocity=0 time=120
note_on channel=0 note=60 velocity=69 time=0
control_change channel=0 control=64 value=0 time=11
note_on channel=0 note=60 velocity=0 time=109
note_on channel=0 note=59 velocity=69 time=0
note_on channel=0 note=59 velocity=0 time=120
note_on channel=0 note=48 velocity=0 time=0
note_on channel=0 note=60 velocity=77 time=0
note_on channel=0 note=60 velocity=0 time=120
note_on channel=0 note=63 velocity=69 time=0
note_on channel=0 note=63 velocity=0 time=120
note_on channel=0 note=62 velocity=69 time=0
note_on channel=0 note=42 velocity=58 time=0
control_change channel=0 control=64 value=127 time=46
note_on channel=0 note=62 velocity=0 time=0
note_on channel=0 note=60 velocity=69 time=0
note_on channel=0 note=60 velocity=0 time=0
note_on channel=0 note=42 velocity=0 time=0
note_on channel=0 note=59 velocity=77 time=0
note_on channel=0 note=43 velocity=67 time=0
control_change channel=0 control=64 value=0 time=23
control_change channel=0 control=64 value=127 time=92
note_on channel=0 note=59 velocity=0 time=5
note_on channel=0 note=67 velocity=69 time=0
note_on channel=0 note=67 velocity=0 time=120
note_on channel=0 note=62 velocity=69 time=0
note_on channel=0 note=62 velocity=0 time=120
note_on channel=0 note=59 velocity=69 time=0
note_on channel=0 note=59 velocity=0 time=120
note_on channel=0 note=43 velocity=0 time=0
note_on channel=0 note=55 velocity=79 time=0
note_on channel=0 note=36 velocity=82 time=0
note_on channel=0 note=48 velocity=96 time=0
control_change channel=0 control=64 value=0 time=6
control_change channel=0 control=64 value=127 time=74
note_on channel=0 note=55 velocity=0 time=40
note_on channel=0 note=67 velocity=69 time=0
note_on channel=0 note=67 velocity=0 time=120
note_on channel=0 note=48 velocity=0 time=0
note_on channel=0 note=36 velocity=0 time=0
note_on channel=0 note=63 velocity=69 time=0
note_on channel=0 note=63 velocity=0 time=120
note_on channel=0 note=60 velocity=69 time=0
note_on channel=0 note=60 velocity=0 time=120
note_on channel=0 note=55 velocity=81 time=0
note_on channel=0 note=31 velocity=55 time=0
note_on channel=0 note=43 velocity=66 time=0
control_change channel=0 control=64 value=0 time=0
control_change channel=0 control=64 value=127 time=69
note_on channel=0 note=55 velocity=0 time=51
note_on channel=0 note=67 velocity=69 time=0
note_on channel=0 note=67 velocity=0 time=120
note_on channel=0 note=43 velocity=0 time=0
note_on channel=0 note=31 velocity=0 time=0
note_on channel=0 note=62 velocity=69 time=0
control_change channel=0 control=64 value=0 time=14
control_change channel=0 control=64 value=127 time=43
note_on channel=0 note=62 velocity=0 time=63
note_on channel=0 note=59 velocity=69 time=0
note_on channel=0 note=59 velocity=0 time=120
note_on channel=0 note=55 velocity=80 time=0
note_on channel=0 note=36 velocity=82 time=0
note_on channel=0 note=48 velocity=97 time=0
control_change channel=0 control=64 value=0 time=19
control_change channel=0 control=64 value=127 time=67
note_on channel=0 note=55 velocity=0 time=34
note_on channel=0 note=67 velocity=69 time=0
note_on channel=0 note=67 velocity=0 time=120
note_on channel=0 note=48 velocity=0 time=0
note_on channel=0 note=36 velocity=0 time=0
note_on channel=0 note=63 velocity=69 time=0
control_change channel=0 control=64 value=0 time=13
control_change channel=0 control=64 value=127 time=67
note_on channel=0 note=63 velocity=0 time=40
note_on channel=0 note=60 velocity=69 time=0
note_on channel=0 note=60 velocity=0 time=120
note_on channel=0 note=55 velocity=80 time=0
note_on channel=0 note=31 velocity=57 time=0
note_on channel=0 note=43 velocity=68 time=0
control_change channel=0 control=64 value=0 time=20
control_change channel=0 control=64 value=127 time=60
note_on channel=0 note=55 velocity=0 time=40
note_on channel=0 note=67 velocity=69 time=0
note_on channel=0 note=67 velocity=0 time=120
note_on channel=0 note=43 velocity=0 time=0
note_on channel=0 note=31 velocity=0 time=0
note_on channel=0 note=62 velocity=69 time=0
control_change channel=0 control=64 value=0 time=17
control_change channel=0 control=64 value=127 time=80
note_on channel=0 note=62 velocity=0 time=23
note_on channel=0 note=59 velocity=69 time=0
note_on channel=0 note=59 velocity=0 time=120
note_on channel=0 note=55 velocity=80 time=0
note_on channel=0 note=36 velocity=82 time=0
note_on channel=0 note=48 velocity=97 time=0
control_change channel=0 control=64 value=0 time=17
control_change channel=0 control=64 value=127 time=75
note_on channel=0 note=55 velocity=0 time=28
note_on channel=0 note=67 velocity=69 time=0
note_on channel=0 note=67 velocity=0 time=120
note_on channel=0 note=48 velocity=0 time=0
note_on channel=0 note=36 velocity=0 time=0
note_on channel=0 note=63 velocity=69 time=0
control_change channel=0 control=64 value=0 time=15
control_change channel=0 control=64 value=127 time=100
note_on channel=0 note=63 velocity=0 time=0
note_on channel=0 note=60 velocity=69 time=0
note_on channel=0 note=60 velocity=0 time=0
note_on channel=0 note=55 velocity=74 time=0
note_on channel=0 note=59 velocity=74 time=0
note_on channel=0 note=62 velocity=74 time=0
note_on channel=0 note=67 velocity=89 time=0
note_on channel=0 note=31 velocity=66 time=0
note_on channel=0 note=35 velocity=66 time=0
note_on channel=0 note=38 velocity=66 time=0
note_on channel=0 note=43 velocity=78 time=0
control_change channel=0 control=64 value=0 time=0
note_on channel=0 note=43 velocity=0 time=960
note_on channel=0 note=55 velocity=0 time=0
note_on channel=0 note=31 velocity=0 time=0
note_on channel=0 note=59 velocity=0 time=0
note_on channel=0 note=62 velocity=0 time=0
note_on channel=0 note=67 velocity=0 time=0
note_on channel=0 note=35 velocity=0 time=0
note_on channel=0 note=38 velocity=0 time=0
note_on channel=0 note=67 velocity=40 time=0
note_on channel=0 note=67 velocity=0 time=120
note_on channel=0 note=69 velocity=37 time=120
note_on channel=0 note=69 velocity=0 time=120
note_on channel=0 note=71 velocity=37 time=120
note_on channel=0 note=71 velocity=0 time=120
note_on channel=0 note=64 velocity=39 time=120
note_on channel=0 note=67 velocity=39 time=0
note_on channel=0 note=72 velocity=46 time=0
note_on channel=0 note=55 velocity=26 time=0
note_on channel=0 note=48 velocity=26 time=0
note_on channel=0 note=60 velocity=31 time=0
note_on channel=0 note=72 velocity=0 time=120
note_on channel=0 note=74 velocity=40 time=120
note_on channel=0 note=74 velocity=0 time=120
note_on channel=0 note=76 velocity=40 time=0
note_on channel=0 note=76 velocity=0 time=120
note_on channel=0 note=67 velocity=0 time=0
note_on channel=0 note=55 velocity=0 time=0
note_on channel=0 note=64 velocity=0 time=0
note_on channel=0 note=60 velocity=0 time=0
note_on channel=0 note=48 velocity=0 time=0
note_on channel=0 note=62 velocity=38 time=0
note_on channel=0 note=67 velocity=38 time=0
note_on channel=0 note=74 velocity=45 time=0
note_on channel=0 note=55 velocity=25 time=0
note_on channel=0 note=53 velocity=25 time=0
note_on channel=0 note=59 velocity=30 time=0
note_on channel=0 note=59 velocity=0 time=120
note_on channel=0 note=67 velocity=0 time=0
note_on channel=0 note=74 velocity=0 time=0
note_on channel=0 note=62 velocity=0 time=0
note_on channel=0 note=53 velocity=0 time=0
note_on channel=0 note=55 velocity=0 time=0
note_on channel=0 note=64 velocity=33 time=360
note_on channel=0 note=67 velocity=33 time=0
note_on channel=0 note=72 velocity=39 time=0
note_on channel=0 note=52 velocity=23 time=0
note_on channel=0 note=55 velocity=23 time=0
note_on channel=0 note=60 velocity=27 time=0
note_on channel=0 note=60 velocity=0 time=120
note_on channel=0 note=67 velocity=0 time=0
note_on channel=0 note=72 velocity=0 time=0
note_on channel=0 note=64 velocity=0 time=0
note_on channel=0 note=55 velocity=0 time=0
note_on channel=0 note=52 velocity=0 time=0
note_on channel=0 note=65 velocity=37 time=0
note_on channel=0 note=67 velocity=37 time=0
note_on channel=0 note=71 velocity=37 time=0
note_on channel=0 note=77 velocity=45 time=0
note_on channel=0 note=55 velocity=27 time=0
note_on channel=0 note=50 velocity=27 time=0
note_on channel=0 note=62 velocity=32 time=0
note_on channel=0 note=62 velocity=0 time=960
note_on channel=0 note=55 velocity=0 time=0
note_on channel=0 note=67 velocity=0 time=0
note_on channel=0 note=71 velocity=0 time=0
note_on channel=0 note=65 velocity=0 time=0
note_on channel=0 note=50 velocity=0 time=0
note_on channel=0 note=77 velocity=0 time=0
note_on channel=0 note=67 velocity=40 time=0
note_on channel=0 note=67 velocity=0 time=120
note_on channel=0 note=69 velocity=37 time=120
note_on channel=0 note=69 velocity=0 time=120
note_on channel=0 note=71 velocity=37 time=120
note_on channel=0 note=71 velocity=0 time=120
note_on channel=0 note=64 velocity=39 time=120
note_on channel=0 note=67 velocity=39 time=0
note_on channel=0 note=72 velocity=46 time=0
note_on channel=0 note=55 velocity=26 time=0
note_on channel=0 note=48 velocity=26 time=0
note_on channel=0 note=60 velocity=31 time=0
note_on channel=0 note=72 velocity=0 time=120
note_on channel=0 note=74 velocity=40 time=120
note_on channel=0 note=74 velocity=0 time=120
note_on channel=0 note=76 velocity=40 time=0
note_on channel=0 note=76 velocity=0 time=120
note_on channel=0 note=67 velocity=0 time=0
note_on channel=0 note=55 velocity=0 time=0
note_on channel=0 note=64 velocity=0 time=0
note_on channel=0 note=60 velocity=0 time=0
note_on channel=0 note=48 velocity=0 time=0
note_on channel=0 note=62 velocity=38 time=0
note_on channel=0 note=69 velocity=38 time=0
note_on channel=0 note=74 velocity=45 time=0
note_on channel=0 note=53 velocity=25 time=0
note_on channel=0 note=57 velocity=30 time=0
note_on channel=0 note=57 velocity=0 time=120
note_on channel=0 note=74 velocity=0 time=0
note_on channel=0 note=62 velocity=0 time=0
note_on channel=0 note=69 velocity=0 time=0
note_on channel=0 note=53 velocity=0 time=0
note_on channel=0 note=69 velocity=33 time=360
note_on channel=0 note=62 velocity=33 time=0
note_on channel=0 note=72 velocity=39 time=0
note_on channel=0 note=54 velocity=23 time=0
note_on channel=0 note=57 velocity=27 time=0
note_on channel=0 note=57 velocity=0 time=120
note_on channel=0 note=72 velocity=0 time=0
note_on channel=0 note=69 velocity=0 time=0
note_on channel=0 note=62 velocity=0 time=0
note_on channel=0 note=54 velocity=0 time=0
note_on channel=0 note=59 velocity=31 time=0
note_on channel=0 note=62 velocity=31 time=0
note_on channel=0 note=67 velocity=37 time=0
note_on channel=0 note=43 velocity=22 time=0
note_on channel=0 note=55 velocity=27 time=0
note_on channel=0 note=55 velocity=0 time=960
note_on channel=0 note=67 velocity=0 time=0
note_on channel=0 note=59 velocity=0 time=0
note_on channel=0 note=62 velocity=0 time=0
note_on channel=0 note=43 velocity=0 time=0
note_on channel=0 note=67 velocity=40 time=0
note_on channel=0 note=67 velocity=0 time=120
note_on channel=0 note=69 velocity=37 time=120
note_on channel=0 note=69 velocity=0 time=120
note_on channel=0 note=71 velocity=37 time=120
note_on channel=0 note=71 velocity=0 time=120
note_on channel=0 note=64 velocity=39 time=120
note_on channel=0 note=67 velocity=39 time=0
note_on channel=0 note=72 velocity=46 time=0
note_on channel=0 note=55 velocity=26 time=0
note_on channel=0 note=48 velocity=26 time=0
note_on channel=0 note=60 velocity=31 time=0
note_on channel=0 note=72 velocity=0 time=120
note_on channel=0 note=74 velocity=40 time=120
note_on channel=0 note=74 velocity=0 time=120
note_on channel=0 note=76 velocity=40 time=0
note_on channel=0 note=76 velocity=0 time=120
note_on channel=0 note=67 velocity=0 time=0
note_on channel=0 note=55 velocity=0 time=0
note_on channel=0 note=64 velocity=0 time=0
note_on channel=0 note=60 velocity=0 time=0
note_on channel=0 note=48 velocity=0 time=0
note_on channel=0 note=62 velocity=38 time=0
note_on channel=0 note=67 velocity=38 time=0
note_on channel=0 note=74 velocity=45 time=0
note_on channel=0 note=55 velocity=25 time=0
note_on channel=0 note=53 velocity=25 time=0
note_on channel=0 note=59 velocity=30 time=0
note_on channel=0 note=59 velocity=0 time=120
note_on channel=0 note=67 velocity=0 time=0
note_on channel=0 note=74 velocity=0 time=0
note_on channel=0 note=62 velocity=0 time=0
note_on channel=0 note=53 velocity=0 time=0
note_on channel=0 note=55 velocity=0 time=0
note_on channel=0 note=64 velocity=33 time=360
note_on channel=0 note=67 velocity=33 time=0
note_on channel=0 note=72 velocity=39 time=0
note_on channel=0 note=55 velocity=23 time=0
note_on channel=0 note=52 velocity=23 time=0
note_on channel=0 note=60 velocity=27 time=0
note_on channel=0 note=60 velocity=0 time=120
note_on channel=0 note=67 velocity=0 time=0
note_on channel=0 note=72 velocity=0 time=0
note_on channel=0 note=64 velocity=0 time=0
note_on channel=0 note=52 velocity=0 time=0
note_on channel=0 note=55 velocity=0 time=0
note_on channel=0 note=53 velocity=28 time=15
note_on channel=0 note=57 velocity=32 time=15
note_on channel=0 note=60 velocity=36 time=15
note_on channel=0 note=65 velocity=40 time=15
note_on channel=0 note=69 velocity=45 time=15
note_on channel=0 note=72 velocity=50 time=15
note_on channel=0 note=77 velocity=71 time=15
note_on channel=0 note=81 velocity=80 time=0
note_on channel=0 note=65 velocity=0 time=480
note_on channel=0 note=60 velocity=0 time=0
note_on channel=0 note=53 velocity=0 time=0
note_on channel=0 note=57 velocity=0 time=0
note_on channel=0 note=69 velocity=0 time=480
note_on channel=0 note=77 velocity=0 time=0
note_on channel=0 note=72 velocity=0 time=0
note_on channel=0 note=81 velocity=0 time=240
note_on channel=0 note=81 velocity=48 time=0
note_on channel=0 note=81 velocity=0 time=120
note_on channel=0 note=79 velocity=53 time=120
note_on channel=0 note=79 velocity=0 time=120
note_on channel=0 note=77 velocity=50 time=0
note_on channel=0 note=77 velocity=0 time=120
note_on channel=0 note=76 velocity=53 time=0
note_on channel=0 note=55 velocity=80 time=0
note_on channel=0 note=76 velocity=0 time=240
note_on channel=0 note=74 velocity=48 time=0
note_on channel=0 note=74 velocity=0 time=240
note_on channel=0 note=72 velocity=48 time=0
note_on channel=0 note=72 velocity=0 time=120
note_on channel=0 note=71 velocity=48 time=120
note_on channel=0 note=71 velocity=0 time=120
note_on channel=0 note=62 velocity=45 time=120
note_on channel=0 note=65 velocity=45 time=0
note_on channel=0 note=69 velocity=53 time=0
note_on channel=0 note=43 velocity=49 time=240
note_on channel=0 note=43 velocity=0 time=120
note_on channel=0 note=69 velocity=0 time=120
note_on channel=0 note=67 velocity=49 time=0
note_on channel=0 note=45 velocity=53 time=0
note_on channel=0 note=45 velocity=0 time=120
note_on channel=0 note=47 velocity=45 time=0
note_on channel=0 note=47 velocity=0 time=120
note_on channel=0 note=67 velocity=0 time=0
note_on channel=0 note=65 velocity=0 time=0
note_on channel=0 note=62 velocity=0 time=0
note_on channel=0 note=60 velocity=41 time=0
note_on channel=0 note=64 velocity=41 time=0
note_on channel=0 note=67 velocity=49 time=0
note_on channel=0 note=48 velocity=53 time=0
note_on channel=0 note=48 velocity=0 time=120
note_on channel=0 note=50 velocity=49 time=120
note_on channel=0 note=50 velocity=0 time=120
note_on channel=0 note=52 velocity=51 time=120
note_on channel=0 note=52 velocity=0 time=120
note_on channel=0 note=64 velocity=0 time=0
note_on channel=0 note=67 velocity=0 time=0
note_on channel=0 note=60 velocity=0 time=0
note_on channel=0 note=50 velocity=53 time=0
note_on channel=0 note=79 velocity=48 time=240
note_on channel=0 note=79 velocity=0 time=120
note_on channel=0 note=50 velocity=0 time=120
note_on channel=0 note=77 velocity=53 time=0
note_on channel=0 note=48 velocity=50 time=0
note_on channel=0 note=77 velocity=0 time=120
note_on channel=0 note=76 velocity=50 time=0
note_on channel=0 note=76 velocity=0 time=120
note_on channel=0 note=48 velocity=0 time=0
note_on channel=0 note=55 velocity=0 time=0
note_on channel=0 note=76 velocity=53 time=0
note_on channel=0 note=55 velocity=80 time=0
note_on channel=0 note=76 velocity=0 time=240
note_on channel=0 note=74 velocity=48 time=0
note_on channel=0 note=74 velocity=0 time=240
note_on channel=0 note=72 velocity=48 time=0
note_on channel=0 note=72 velocity=0 time=120
note_on channel=0 note=71 velocity=48 time=120
note_on channel=0 note=71 velocity=0 time=120
note_on channel=0 note=62 velocity=45 time=120
note_on channel=0 note=65 velocity=45 time=0
note_on channel=0 note=68 velocity=53 time=0
note_on channel=0 note=43 velocity=49 time=240
note_on channel=0 note=43 velocity=0 time=120
note_on channel=0 note=68 velocity=0 time=120
note_on channel=0 note=67 velocity=49 time=0
note_on channel=0 note=45 velocity=53 time=0
note_on channel=0 note=45 velocity=0 time=120
note_on channel=0 note=47 velocity=45 time=0
note_on channel=0 note=47 velocity=0 time=120
note_on channel=0 note=67 velocity=0 time=0
note_on channel=0 note=65 velocity=0 time=0
note_on channel=0 note=62 velocity=0 time=0
note_on channel=0 note=60 velocity=54 time=0
note_on channel=0 note=63 velocity=54 time=0
note_on channel=0 note=67 velocity=54 time=0
note_on channel=0 note=48 velocity=53 time=0
note_on channel=0 note=48 velocity=0 time=0
note_on channel=0 note=50 velocity=49 time=120
note_on channel=0 note=50 velocity=0 time=120
note_on channel=0 note=51 velocity=51 time=120
note_on channel=0 note=51 velocity=0 time=120
note_on channel=0 note=63 velocity=0 time=0
note_on channel=0 note=67 velocity=0 time=0
note_on channel=0 note=60 velocity=0 time=0
note_on channel=0 note=50 velocity=53 time=0
note_on channel=0 note=79 velocity=48 time=240
note_on channel=0 note=67 velocity=48 time=0
note_on channel=0 note=67 velocity=0 time=120
note_on channel=0 note=79 velocity=0 time=0
note_on channel=0 note=50 velocity=0 time=120
note_on channel=0 note=77 velocity=53 time=0
note_on channel=0 note=65 velocity=53 time=0
note_on channel=0 note=48 velocity=50 time=0
note_on channel=0 note=65 velocity=0 time=120
note_on channel=0 note=77 velocity=0 time=0
note_on channel=0 note=75 velocity=50 time=0
note_on channel=0 note=63 velocity=50 time=0
note_on channel=0 note=63 velocity=0 time=120
note_on channel=0 note=75 velocity=0 time=0
note_on channel=0 note=55 velocity=0 time=0
note_on channel=0 note=48 velocity=0 time=0
note_on channel=0 note=75 velocity=55 time=0
note_on channel=0 note=63 velocity=55 time=0
note_on channel=0 note=50 velocity=45 time=0
note_on channel=0 note=53 velocity=53 time=0
note_on channel=0 note=41 velocity=45 time=0
note_on channel=0 note=44 velocity=45 time=0
note_on channel=0 note=63 velocity=0 time=240
note_on channel=0 note=75 velocity=0 time=0
note_on channel=0 note=74 velocity=48 time=0
note_on channel=0 note=62 velocity=48 time=0
note_on channel=0 note=62 velocity=0 time=240
note_on channel=0 note=44 velocity=0 time=0
note_on channel=0 note=50 velocity=0 time=0
note_on channel=0 note=53 velocity=0 time=0
note_on channel=0 note=74 velocity=0 time=0
note_on channel=0 note=41 velocity=0 time=0
note_on channel=0 note=72 velocity=48 time=0
note_on channel=0 note=60 velocity=48 time=0
note_on channel=0 note=60 velocity=0 time=120
note_on channel=0 note=72 velocity=0 time=0
note_on channel=0 note=71 velocity=48 time=120
note_on channel=0 note=59 velocity=48 time=0
note_on channel=0 note=59 velocity=0 time=120
note_on channel=0 note=71 velocity=0 time=0
note_on channel=0 note=56 velocity=55 time=0
note_on channel=0 note=68 velocity=55 time=0
note_on channel=0 note=47 velocity=42 time=0
note_on channel=0 note=43 velocity=42 time=0
note_on channel=0 note=50 velocity=42 time=0
note_on channel=0 note=53 velocity=50 time=0
note_on channel=0 note=68 velocity=0 time=120
note_on channel=0 note=56 velocity=0 time=0
note_on channel=0 note=55 velocity=48 time=120
note_on channel=0 note=67 velocity=48 time=0
note_on channel=0 note=67 velocity=0 time=120
note_on channel=0 note=55 velocity=0 time=0
note_on channel=0 note=47 velocity=0 time=120
note_on channel=0 note=43 velocity=0 time=0
note_on channel=0 note=53 velocity=0 time=0
note_on channel=0 note=50 velocity=0 time=0
note_on channel=0 note=57 velocity=48 time=0
note_on channel=0 note=69 velocity=48 time=0
note_on channel=0 note=69 velocity=0 time=120
note_on channel=0 note=57 velocity=0 time=0
note_on channel=0 note=59 velocity=48 time=0
note_on channel=0 note=71 velocity=48 time=0
note_on channel=0 note=71 velocity=0 time=120
note_on channel=0 note=59 velocity=0 time=0
note_on channel=0 note=60 velocity=49 time=0
note_on channel=0 note=72 velocity=58 time=0
note_on channel=0 note=51 velocity=58 time=0
note_on channel=0 note=48 velocity=49 time=0
control_change channel=0 control=64 value=127 time=10
note_on channel=0 note=48 velocity=0 time=10
note_on channel=0 note=51 velocity=0 time=0
note_on channel=0 note=55 velocity=48 time=0
note_on channel=0 note=55 velocity=0 time=10
note_on channel=0 note=72 velocity=0 time=70
note_on channel=0 note=60 velocity=0 time=0
note_on channel=0 note=55 velocity=48 time=0
note_on channel=0 note=55 velocity=0 time=10
note_on channel=0 note=72 velocity=54 time=10
note_on channel=0 note=55 velocity=48 time=0
note_on channel=0 note=55 velocity=0 time=10
note_on channel=0 note=72 velocity=0 time=10
note_on channel=0 note=71 velocity=60 time=0
note_on channel=0 note=55 velocity=54 time=0
control_change channel=0 control=64 value=0 time=12
control_change channel=0 control=64 value=127 time=0
note_on channel=0 note=55 velocity=0 time=40
note_on channel=0 note=71 velocity=0 time=0
note_on channel=0 note=72 velocity=55 time=0
note_on channel=0 note=55 velocity=47 time=0
note_on channel=0 note=55 velocity=0 time=10
note_on channel=0 note=72 velocity=0 time=10
note_on channel=0 note=74 velocity=52 time=0
note_on channel=0 note=77 velocity=62 time=0
note_on channel=0 note=47 velocity=47 time=0
control_change channel=0 control=64 value=0 time=3
control_change channel=0 control=64 value=127 time=89
note_on channel=0 note=47 velocity=0 time=28
note_on channel=0 note=77 velocity=0 time=0
note_on channel=0 note=74 velocity=0 time=0
note_on channel=0 note=74 velocity=48 time=0
note_on channel=0 note=77 velocity=57 time=0
note_on channel=0 note=55 velocity=47 time=0
note_on channel=0 note=55 velocity=0 time=120
note_on channel=0 note=77 velocity=0 time=0
note_on channel=0 note=74 velocity=0 time=0
note_on channel=0 note=72 velocity=55 time=0
note_on channel=0 note=75 velocity=65 time=0
note_on channel=0 note=48 velocity=63 time=0
control_change channel=0 control=64 value=0 time=0
control_change channel=0 control=64 value=127 time=10
note_on channel=0 note=48 velocity=0 time=10
note_on channel=0 note=55 velocity=52 time=0
note_on channel=0 note=55 velocity=0 time=10
note_on channel=0 note=75 velocity=0 time=70
note_on channel=0 note=72 velocity=0 time=0
note_on channel=0 note=55 velocity=52 time=0
note_on channel=0 note=55 velocity=0 time=10
note_on channel=0 note=72 velocity=61 time=10
note_on channel=0 note=55 velocity=52 time=0
note_on channel=0 note=55 velocity=0 time=10
note_on channel=0 note=72 velocity=0 time=10
note_on channel=0 note=71 velocity=68 time=0
note_on channel=0 note=55 velocity=59 time=0
control_change channel=0 control=64 value=0 time=2
control_change channel=0 control=64 value=127 time=11
note_on channel=0 note=55 velocity=0 time=40
note_on channel=0 note=71 velocity=0 time=0
note_on channel=0 note=72 velocity=63 time=0
note_on channel=0 note=55 velocity=52 time=0
note_on channel=0 note=55 velocity=0 time=10
note_on channel=0 note=72 velocity=0 time=10
note_on channel=0 note=77 velocity=58 time=0
note_on channel=0 note=80 velocity=69 time=0
note_on channel=0 note=47 velocity=52 time=0
control_change channel=0 control=64 value=0 time=13
control_change channel=0 control=64 value=127 time=84
note_on channel=0 note=47 velocity=0 time=23
note_on channel=0 note=80 velocity=0 time=0
note_on channel=0 note=77 velocity=0 time=0
note_on channel=0 note=77 velocity=54 time=0
note_on channel=0 note=80 velocity=64 time=0
note_on channel=0 note=55 velocity=52 time=0
note_on channel=0 note=55 velocity=0 time=120
note_on channel=0 note=80 velocity=0 time=0
note_on channel=0 note=77 velocity=0 time=0
note_on channel=0 note=75 velocity=70 time=120
note_on channel=0 note=79 velocity=70 time=0
note_on channel=0 note=48 velocity=69 time=0
control_change channel=0 control=64 value=0 time=0
control_change channel=0 control=64 value=127 time=21
note_on channel=0 note=48 velocity=0 time=27
note_on channel=0 note=55 velocity=55 time=0
note_on channel=0 note=55 velocity=0 time=57
note_on channel=0 note=79 velocity=0 time=27
note_on channel=0 note=75 velocity=0 time=0
note_on channel=0 note=55 velocity=55 time=0
note_on channel=0 note=55 velocity=0 time=27
note_on channel=0 note=84 velocity=74 time=57
note_on channel=0 note=55 velocity=55 time=0
note_on channel=0 note=55 velocity=0 time=57
note_on channel=0 note=84 velocity=0 time=87
note_on channel=0 note=83 velocity=84 time=0
note_on channel=0 note=55 velocity=71 time=0
control_change channel=0 control=64 value=0 time=18
control_change channel=0 control=64 value=127 time=44
note_on channel=0 note=55 velocity=0 time=87
note_on channel=0 note=83 velocity=0 time=0
note_on channel=0 note=84 velocity=77 time=0
note_on channel=0 note=55 velocity=62 time=0
note_on channel=0 note=55 velocity=0 time=0
note_on channel=0 note=84 velocity=0 time=0
note_on channel=0 note=89 velocity=94 time=0
note_on channel=0 note=86 velocity=94 time=0
note_on channel=0 note=47 velocity=57 time=0
note_on channel=0 note=50 velocity=57 time=0
note_on channel=0 note=53 velocity=57 time=0
note_on channel=0 note=55 velocity=68 time=0
control_change channel=0 control=64 value=0 time=8
control_change channel=0 control=64 value=127 time=54
note_on channel=0 note=55 velocity=0 time=58
note_on channel=0 note=86 velocity=0 time=0
note_on channel=0 note=47 velocity=0 time=0
note_on channel=0 note=89 velocity=0 time=0
note_on channel=0 note=53 velocity=0 time=0
note_on channel=0 note=50 velocity=0 time=0
note_on channel=0 note=86 velocity=86 time=0
note_on channel=0 note=89 velocity=86 time=0
note_on channel=0 note=47 velocity=58 time=0
note_on channel=0 note=50 velocity=58 time=0
note_on channel=0 note=53 velocity=58 time=0
note_on channel=0 note=55 velocity=69 time=0
note_on channel=0 note=55 velocity=0 time=120
note_on channel=0 note=89 velocity=0 time=0
note_on channel=0 note=47 velocity=0 time=0
note_on channel=0 note=86 velocity=0 time=0
note_on channel=0 note=53 velocity=0 time=0
note_on channel=0 note=50 velocity=0 time=0
note_on channel=0 note=86 velocity=101 time=0
note_on channel=0 note=89 velocity=101 time=0
note_on channel=0 note=55 velocity=72 time=0
note_on channel=0 note=47 velocity=53 time=0
note_on channel=0 note=50 velocity=53 time=0
note_on channel=0 note=53 velocity=53 time=0
control_change channel=0 control=64 value=0 time=0
control_change channel=0 control=64 value=0 time=0
control_change channel=0 control=64 value=127 time=149
note_on channel=0 note=86 velocity=0 time=331
note_on channel=0 note=89 velocity=0 time=120
note_on channel=0 note=87 velocity=74 time=0
note_on channel=0 note=87 velocity=0 time=120
note_on channel=0 note=86 velocity=73 time=0
note_on channel=0 note=86 velocity=0 time=107
note_on channel=0 note=84 velocity=72 time=0
note_on channel=0 note=84 velocity=0 time=120
note_on channel=0 note=83 velocity=72 time=0
note_on channel=0 note=83 velocity=0 time=47
note_on channel=0 note=84 velocity=72 time=0
note_on channel=0 note=84 velocity=0 time=120
note_on channel=0 note=86 velocity=71 time=0
note_on channel=0 note=86 velocity=0 time=120
note_on channel=0 note=84 velocity=70 time=0
note_on channel=0 note=84 velocity=0 time=107
note_on channel=0 note=83 velocity=69 time=0
note_on channel=0 note=83 velocity=0 time=120
note_on channel=0 note=80 velocity=68 time=0
note_on channel=0 note=80 velocity=0 time=47
note_on channel=0 note=79 velocity=67 time=0
note_on channel=0 note=79 velocity=0 time=120
note_on channel=0 note=77 velocity=66 time=0
note_on channel=0 note=77 velocity=0 time=120
note_on channel=0 note=55 velocity=0 time=0
note_on channel=0 note=47 velocity=0 time=0
note_on channel=0 note=53 velocity=0 time=0
note_on channel=0 note=50 velocity=0 time=0
note_on channel=0 note=75 velocity=66 time=0
note_on channel=0 note=48 velocity=49 time=0
note_on channel=0 note=51 velocity=49 time=0
note_on channel=0 note=55 velocity=66 time=0
control_change channel=0 control=64 value=0 time=0
note_on channel=0 note=75 velocity=0 time=147
note_on channel=0 note=77 velocity=62 time=0
control_change channel=0 control=64 value=127 time=24
note_on channel=0 note=77 velocity=0 time=136
note_on channel=0 note=79 velocity=62 time=0
note_on channel=0 note=79 velocity=0 time=160
note_on channel=0 note=48 velocity=0 time=0
note_on channel=0 note=51 velocity=0 time=0
note_on channel=0 note=55 velocity=0 time=0
note_on channel=0 note=77 velocity=66 time=0
note_on channel=0 note=77 velocity=0 time=27
note_on channel=0 note=75 velocity=62 time=0
note_on channel=0 note=75 velocity=0 time=67
note_on channel=0 note=74 velocity=62 time=0
note_on channel=0 note=74 velocity=0 time=107
note_on channel=0 note=72 velocity=66 time=0
control_change channel=0 control=64 value=0 time=5
control_change channel=0 control=64 value=127 time=65
note_on channel=0 note=72 velocity=0 time=27
note_on channel=0 note=70 velocity=62 time=0
note_on channel=0 note=70 velocity=0 time=160
note_on channel=0 note=68 velocity=62 time=0
note_on channel=0 note=68 velocity=0 time=160
note_on channel=0 note=67 velocity=66 time=0
note_on channel=0 note=67 velocity=0 time=160
note_on channel=0 note=65 velocity=60 time=0
note_on channel=0 note=65 velocity=0 time=80
note_on channel=0 note=63 velocity=63 time=0
note_on channel=0 note=63 velocity=0 time=0
note_on channel=0 note=41 velocity=73 time=0
control_change channel=0 control=64 value=0 time=0
control_change channel=0 control=64 value=127 time=92
note_on channel=0 note=62 velocity=59 time=28
note_on channel=0 note=62 velocity=0 time=0
note_on channel=0 note=41 velocity=0 time=0
note_on channel=0 note=65 velocity=63 time=0
note_on channel=0 note=65 velocity=0 time=120
note_on channel=0 note=68 velocity=67 time=0
note_on channel=0 note=68 velocity=0 time=120
note_on channel=0 note=74 velocity=72 time=0
control_change channel=0 control=64 value=0 time=16
note_on channel=0 note=74 velocity=0 time=224
note_on channel=0 note=53 velocity=63 time=0
note_on channel=0 note=53 velocity=0 time=120
note_on channel=0 note=43 velocity=70 time=0
control_change channel=0 control=64 value=127 time=78
note_on channel=0 note=59 velocity=63 time=42
note_on channel=0 note=59 velocity=0 time=0
note_on channel=0 note=43 velocity=0 time=0
note_on channel=0 note=62 velocity=66 time=0
note_on channel=0 note=62 velocity=0 time=120
note_on channel=0 note=65 velocity=69 time=0
note_on channel=0 note=65 velocity=0 time=120
note_on channel=0 note=71 velocity=72 time=0
control_change channel=0 control=64 value=0 time=14
note_on channel=0 note=71 velocity=0 time=0
note_on channel=0 note=55 velocity=63 time=0
note_on channel=0 note=55 velocity=0 time=120
note_on channel=0 note=71 velocity=67 time=22
control_change channel=0 control=64 value=127 time=0
note_on channel=0 note=71 velocity=0 time=120
note_on channel=0 note=83 velocity=60 time=0
note_on channel=0 note=83 velocity=0 time=82
note_on channel=0 note=71 velocity=67 time=0
note_on channel=0 note=65 velocity=63 time=0
note_on channel=0 note=65 velocity=0 time=52
note_on channel=0 note=71 velocity=0 time=0
note_on channel=0 note=83 velocity=60 time=0
note_on channel=0 note=67 velocity=65 time=0
note_on channel=0 note=67 velocity=0 time=120
note_on channel=0 note=83 velocity=0 time=0
note_on channel=0 note=71 velocity=67 time=0
note_on channel=0 note=68 velocity=69 time=0
note_on channel=0 note=68 velocity=0 time=112
note_on channel=0 note=71 velocity=0 time=0
note_on channel=0 note=83 velocity=59 time=0
note_on channel=0 note=67 velocity=67 time=0
note_on channel=0 note=67 velocity=0 time=82
note_on channel=0 note=83 velocity=0 time=0
note_on channel=0 note=71 velocity=67 time=0
note_on channel=0 note=65 velocity=65 time=0
note_on channel=0 note=65 velocity=0 time=82
note_on channel=0 note=71 velocity=0 time=0
note_on channel=0 note=83 velocity=61 time=0
note_on channel=0 note=63 velocity=64 time=0
note_on channel=0 note=63 velocity=0 time=120
note_on channel=0 note=83 velocity=0 time=0
note_on channel=0 note=71 velocity=67 time=0
note_on channel=0 note=62 velocity=67 time=0
note_on channel=0 note=71 velocity=0 time=120
note_on channel=0 note=83 velocity=59 time=0
note_on channel=0 note=62 velocity=0 time=32
note_on channel=0 note=60 velocity=61 time=0
note_on channel=0 note=83 velocity=0 time=80
note_on channel=0 note=71 velocity=67 time=0
note_on channel=0 note=60 velocity=0 time=80
note_on channel=0 note=59 velocity=61 time=0
note_on channel=0 note=71 velocity=0 time=40
note_on channel=0 note=83 velocity=59 time=0
note_on channel=0 note=83 velocity=0 time=22
note_on channel=0 note=59 velocity=0 time=0
note_on channel=0 note=71 velocity=67 time=0
note_on channel=0 note=56 velocity=67 time=0
note_on channel=0 note=71 velocity=0 time=120
note_on channel=0 note=83 velocity=59 time=0
note_on channel=0 note=56 velocity=0 time=40
note_on channel=0 note=55 velocity=62 time=0
note_on channel=0 note=83 velocity=0 time=80
note_on channel=0 note=71 velocity=67 time=0
note_on channel=0 note=55 velocity=0 time=12
note_on channel=0 note=53 velocity=62 time=0
note_on channel=0 note=71 velocity=0 time=40
note_on channel=0 note=83 velocity=60 time=0
note_on channel=0 note=83 velocity=0 time=0
note_on channel=0 note=53 velocity=0 time=0
note_on channel=0 note=72 velocity=67 time=0
note_on channel=0 note=51 velocity=67 time=0
control_change channel=0 control=64 value=0 time=12
control_change channel=0 control=64 value=127 time=80
note_on channel=0 note=72 velocity=0 time=28
note_on channel=0 note=84 velocity=60 time=0
note_on channel=0 note=51 velocity=0 time=2
note_on channel=0 note=53 velocity=63 time=0
note_on channel=0 note=84 velocity=0 time=80
note_on channel=0 note=72 velocity=69 time=0
note_on channel=0 note=53 velocity=0 time=12
note_on channel=0 note=55 velocity=63 time=0
note_on channel=0 note=72 velocity=0 time=40
note_on channel=0 note=84 velocity=62 time=0
note_on channel=0 note=84 velocity=0 time=120
note_on channel=0 note=55 velocity=0 time=0
note_on channel=0 note=72 velocity=71 time=0
note_on channel=0 note=53 velocity=67 time=0
note_on channel=0 note=72 velocity=0 time=112
note_on channel=0 note=84 velocity=63 time=0
note_on channel=0 note=53 velocity=0 time=2
note_on channel=0 note=51 velocity=60 time=0
note_on channel=0 note=84 velocity=0 time=80
note_on channel=0 note=72 velocity=72 time=0
note_on channel=0 note=51 velocity=0 time=42
note_on channel=0 note=50 velocity=60 time=0
note_on channel=0 note=72 velocity=0 time=40
note_on channel=0 note=84 velocity=67 time=0
note_on channel=0 note=84 velocity=0 time=120
note_on channel=0 note=50 velocity=0 time=0
note_on channel=0 note=72 velocity=75 time=0
note_on channel=0 note=48 velocity=70 time=0
control_change channel=0 control=64 value=0 time=19
control_change channel=0 control=64 value=127 time=90
note_on channel=0 note=72 velocity=0 time=11
note_on channel=0 note=84 velocity=67 time=0
note_on channel=0 note=48 velocity=0 time=32
note_on channel=0 note=46 velocity=63 time=0
note_on channel=0 note=84 velocity=0 time=80
note_on channel=0 note=72 velocity=77 time=0
note_on channel=0 note=46 velocity=0 time=80
note_on channel=0 note=44 velocity=66 time=0
note_on channel=0 note=72 velocity=0 time=40
note_on channel=0 note=84 velocity=69 time=0
note_on channel=0 note=84 velocity=0 time=22
note_on channel=0 note=44 velocity=0 time=0
note_on channel=0 note=72 velocity=80 time=0
note_on channel=0 note=43 velocity=74 time=0
control_change channel=0 control=64 value=0 time=20
note_on channel=0 note=72 velocity=0 time=100
note_on channel=0 note=84 velocity=71 time=0
control_change channel=0 control=64 value=127 time=0
note_on channel=0 note=43 velocity=0 time=40
note_on channel=0 note=41 velocity=67 time=0
note_on channel=0 note=84 velocity=0 time=80
note_on channel=0 note=72 velocity=81 time=0
note_on channel=0 note=41 velocity=0 time=12
note_on channel=0 note=39 velocity=67 time=0
note_on channel=0 note=72 velocity=0 time=40
note_on channel=0 note=84 velocity=73 time=0
note_on channel=0 note=84 velocity=0 time=0
note_on channel=0 note=39 velocity=0 time=0
note_on channel=0 note=29 velocity=73 time=0
note_on channel=0 note=41 velocity=73 time=0
control_change channel=0 control=64 value=0 time=0
control_change channel=0 control=64 value=127 time=92
note_on channel=0 note=77 velocity=71 time=28
note_on channel=0 note=77 velocity=0 time=0
note_on channel=0 note=41 velocity=0 time=0
note_on channel=0 note=29 velocity=0 time=0
note_on channel=0 note=80 velocity=76 time=0
note_on channel=0 note=80 velocity=0 time=120
note_on channel=0 note=86 velocity=81 time=0
note_on channel=0 note=86 velocity=0 time=120
note_on channel=0 note=89 velocity=86 time=0
control_change channel=0 control=64 value=0 time=16
note_on channel=0 note=89 velocity=0 time=224
note_on channel=0 note=29 velocity=63 time=0
note_on channel=0 note=41 velocity=63 time=0
note_on channel=0 note=41 velocity=0 time=120
note_on channel=0 note=29 velocity=0 time=0
note_on channel=0 note=31 velocity=70 time=0
note_on channel=0 note=43 velocity=70 time=0
control_change channel=0 control=64 value=127 time=78
note_on channel=0 note=74 velocity=75 time=42
note_on channel=0 note=74 velocity=0 time=0
note_on channel=0 note=43 velocity=0 time=0
note_on channel=0 note=31 velocity=0 time=0
note_on channel=0 note=77 velocity=79 time=0
note_on channel=0 note=77 velocity=0 time=120
note_on channel=0 note=83 velocity=82 time=0
note_on channel=0 note=83 velocity=0 time=120
note_on channel=0 note=86 velocity=86 time=0
control_change channel=0 control=64 value=0 time=14
note_on channel=0 note=86 velocity=0 time=0
note_on channel=0 note=31 velocity=63 time=0
note_on channel=0 note=43 velocity=63 time=0
note_on channel=0 note=43 velocity=0 time=120
note_on channel=0 note=31 velocity=0 time=0
note_on channel=0 note=72 velocity=80 time=0
note_on channel=0 note=79 velocity=80 time=0
note_on channel=0 note=75 velocity=80 time=0
note_on channel=0 note=84 velocity=94 time=0
note_on channel=0 note=36 velocity=59 time=0
note_on channel=0 note=39 velocity=59 time=0
note_on channel=0 note=43 velocity=59 time=0
note_on channel=0 note=48 velocity=70 time=0
note_on channel=0 note=48 velocity=0 time=0
note_on channel=0 note=72 velocity=0 time=0
note_on channel=0 note=36 velocity=0 time=0
note_on channel=0 note=79 velocity=0 time=0
note_on channel=0 note=75 velocity=0 time=0
note_on channel=0 note=84 velocity=0 time=0
note_on channel=0 note=39 velocity=0 time=0
note_on channel=0 note=43 velocity=0 time=0
note_on channel=0 note=79 velocity=63 time=0
note_on channel=0 note=61 velocity=53 time=0
note_on channel=0 note=64 velocity=63 time=0
note_on channel=0 note=64 velocity=0 time=120
note_on channel=0 note=61 velocity=0 time=0
note_on channel=0 note=79 velocity=0 time=0
note_on channel=0 note=79 velocity=63 time=0
note_on channel=0 note=61 velocity=53 time=0
note_on channel=0 note=64 velocity=63 time=0
note_on channel=0 note=64 velocity=0 time=120
note_on channel=0 note=61 velocity=0 time=0
note_on channel=0 note=79 velocity=0 time=0
note_on channel=0 note=79 velocity=70 time=0
note_on channel=0 note=62 velocity=59 time=0
note_on channel=0 note=65 velocity=70 time=0
note_on channel=0 note=65 velocity=0 time=240
note_on channel=0 note=62 velocity=0 time=0
note_on channel=0 note=79 velocity=0 time=0
note_on channel=0 note=79 velocity=63 time=0
note_on channel=0 note=61 velocity=53 time=0
note_on channel=0 note=64 velocity=63 time=0
note_on channel=0 note=64 velocity=0 time=120
note_on channel=0 note=61 velocity=0 time=0
note_on channel=0 note=79 velocity=0 time=0
note_on channel=0 note=79 velocity=63 time=0
note_on channel=0 note=61 velocity=53 time=0
note_on channel=0 note=64 velocity=63 time=0
note_on channel=0 note=64 velocity=0 time=120
note_on channel=0 note=61 velocity=0 time=0
note_on channel=0 note=79 velocity=0 time=0
note_on channel=0 note=79 velocity=69 time=0
note_on channel=0 note=62 velocity=59 time=0
note_on channel=0 note=65 velocity=70 time=0
note_on channel=0 note=65 velocity=0 time=240
note_on channel=0 note=62 velocity=0 time=0
note_on channel=0 note=79 velocity=0 time=0
note_on channel=0 note=50 velocity=60 time=0
note_on channel=0 note=53 velocity=60 time=0
note_on channel=0 note=59 velocity=72 time=0
note_on channel=0 note=31 velocity=63 time=0
note_on channel=0 note=43 velocity=74 time=0
note_on channel=0 note=43 velocity=0 time=240
note_on channel=0 note=59 velocity=0 time=0
note_on channel=0 note=50 velocity=0 time=0
note_on channel=0 note=53 velocity=0 time=0
note_on channel=0 note=31 velocity=0 time=0
note_on channel=0 note=50 velocity=33 time=0
note_on channel=0 note=53 velocity=33 time=0
note_on channel=0 note=59 velocity=39 time=0
note_on channel=0 note=31 velocity=30 time=0
note_on channel=0 note=43 velocity=36 time=0
note_on channel=0 note=43 velocity=0 time=120
note_on channel=0 note=59 velocity=0 time=0
note_on channel=0 note=50 velocity=0 time=0
note_on channel=0 note=53 velocity=0 time=0
note_on channel=0 note=31 velocity=0 time=0
note_on channel=0 note=48 velocity=37 time=0
note_on channel=0 note=51 velocity=37 time=0
note_on channel=0 note=60 velocity=45 time=0
note_on channel=0 note=32 velocity=32 time=0
note_on channel=0 note=44 velocity=38 time=0
note_on channel=0 note=44 velocity=0 time=120
note_on channel=0 note=60 velocity=0 time=0
note_on channel=0 note=48 velocity=0 time=0
note_on channel=0 note=51 velocity=0 time=0
note_on channel=0 note=32 velocity=0 time=0
note_on channel=0 note=57 velocity=35 time=0
note_on channel=0 note=60 velocity=35 time=0
note_on channel=0 note=62 velocity=41 time=0
note_on channel=0 note=30 velocity=30 time=0
note_on channel=0 note=42 velocity=36 time=0
note_on channel=0 note=42 velocity=0 time=120
note_on channel=0 note=62 velocity=0 time=0
note_on channel=0 note=57 velocity=0 time=0
note_on channel=0 note=60 velocity=0 time=0
note_on channel=0 note=30 velocity=0 time=0
note_on channel=0 note=55 velocity=37 time=360
note_on channel=0 note=60 velocity=37 time=0
note_on channel=0 note=63 velocity=45 time=0
note_on channel=0 note=31 velocity=32 time=0
note_on channel=0 note=43 velocity=38 time=0
note_on channel=0 note=43 velocity=0 time=120
note_on channel=0 note=63 velocity=0 time=0
note_on channel=0 note=55 velocity=0 time=0
note_on channel=0 note=60 velocity=0 time=0
note_on channel=0 note=31 velocity=0 time=0
note_on channel=0 note=53 velocity=33 time=0
note_on channel=0 note=59 velocity=33 time=0
note_on channel=0 note=62 velocity=39 time=0
note_on channel=0 note=31 velocity=27 time=0
note_on channel=0 note=43 velocity=33 time=0
note_on channel=0 note=43 velocity=0 time=120
note_on channel=0 note=62 velocity=0 time=0
note_on channel=0 note=53 velocity=0 time=0
note_on channel=0 note=59 velocity=0 time=0
note_on channel=0 note=31 velocity=0 time=0
note_on channel=0 note=51 velocity=37 time=0
note_on channel=0 note=55 velocity=37 time=0
note_on channel=0 note=60 velocity=45 time=0
note_on channel=0 note=36 velocity=32 time=0
note_on channel=0 note=48 velocity=38 time=0
note_on channel=0 note=48 velocity=0 time=120
note_on channel=0 note=60 velocity=0 time=0
note_on channel=0 note=51 velocity=0 time=0
note_on channel=0 note=55 velocity=0 time=0
note_on channel=0 note=36 velocity=0 time=0
note_on channel=0 note=79 velocity=63 time=0
note_on channel=0 note=61 velocity=53 time=0
note_on channel=0 note=64 velocity=63 time=0
note_on channel=0 note=64 velocity=0 time=120
note_on channel=0 note=61 velocity=0 time=0
note_on channel=0 note=79 velocity=0 time=0
note_on channel=0 note=80 velocity=59 time=0
note_on channel=0 note=80 velocity=0 time=0
note_on channel=0 note=79 velocity=63 time=0
note_on channel=0 note=61 velocity=53 time=0
note_on channel=0 note=64 velocity=63 time=0
note_on channel=0 note=64 velocity=0 time=120
note_on channel=0 note=61 velocity=0 time=0
note_on channel=0 note=79 velocity=0 time=0
note_on channel=0 note=78 velocity=59 time=0
note_on channel=0 note=78 velocity=0 time=0
note_on channel=0 note=79 velocity=70 time=0
note_on channel=0 note=62 velocity=59 time=0
note_on channel=0 note=65 velocity=70 time=0
note_on channel=0 note=65 velocity=0 time=240
note_on channel=0 note=62 velocity=0 time=0
note_on channel=0 note=79 velocity=0 time=0
note_on channel=0 note=79 velocity=63 time=0
note_on channel=0 note=61 velocity=53 time=0
note_on channel=0 note=64 velocity=63 time=0
note_on channel=0 note=64 velocity=0 time=120
note_on channel=0 note=61 velocity=0 time=0
note_on channel=0 note=79 velocity=0 time=0
note_on channel=0 note=80 velocity=58 time=0
note_on channel=0 note=80 velocity=0 time=0
note_on channel=0 note=79 velocity=63 time=0
note_on channel=0 note=64 velocity=53 time=0
note_on channel=0 note=61 velocity=63 time=0
note_on channel=0 note=61 velocity=0 time=120
note_on channel=0 note=64 velocity=0 time=0
note_on channel=0 note=79 velocity=0 time=0
note_on channel=0 note=78 velocity=57 time=0
note_on channel=0 note=78 velocity=0 time=0
note_on channel=0 note=79 velocity=69 time=0
note_on channel=0 note=62 velocity=59 time=0
note_on channel=0 note=65 velocity=70 time=0
note_on channel=0 note=65 velocity=0 time=240
note_on channel=0 note=62 velocity=0 time=0
note_on channel=0 note=79 velocity=0 time=0
note_on channel=0 note=50 velocity=60 time=0
note_on channel=0 note=53 velocity=60 time=0
note_on channel=0 note=59 velocity=72 time=0
note_on channel=0 note=31 velocity=63 time=0
note_on channel=0 note=43 velocity=74 time=0
note_on channel=0 note=43 velocity=0 time=240
note_on channel=0 note=59 velocity=0 time=0
note_on channel=0 note=50 velocity=0 time=0
note_on channel=0 note=53 velocity=0 time=0
note_on channel=0 note=31 velocity=0 time=0
note_on channel=0 note=48 velocity=55 time=0
note_on channel=0 note=51 velocity=55 time=0
note_on channel=0 note=54 velocity=55 time=0
note_on channel=0 note=60 velocity=66 time=0
note_on channel=0 note=32 velocity=55 time=0
note_on channel=0 note=36 velocity=55 time=0
note_on channel=0 note=39 velocity=55 time=0
note_on channel=0 note=44 velocity=65 time=0
note_on channel=0 note=44 velocity=0 time=0
note_on channel=0 note=48 velocity=0 time=0
note_on channel=0 note=32 velocity=0 time=0
note_on channel=0 note=51 velocity=0 time=0
note_on channel=0 note=54 velocity=0 time=0
note_on channel=0 note=60 velocity=0 time=0
note_on channel=0 note=36 velocity=0 time=0
note_on channel=0 note=39 velocity=0 time=0
note_on channel=0 note=57 velocity=35 time=0
note_on channel=0 note=60 velocity=35 time=0
note_on channel=0 note=62 velocity=41 time=0
note_on channel=0 note=30 velocity=30 time=0
note_on channel=0 note=42 velocity=36 time=0
note_on channel=0 note=42 velocity=0 time=120
note_on channel=0 note=62 velocity=0 time=0
note_on channel=0 note=57 velocity=0 time=0
note_on channel=0 note=60 velocity=0 time=0
note_on channel=0 note=30 velocity=0 time=0
note_on channel=0 note=55 velocity=37 time=360
note_on channel=0 note=60 velocity=37 time=0
note_on channel=0 note=63 velocity=45 time=0
note_on channel=0 note=31 velocity=32 time=0
note_on channel=0 note=43 velocity=38 time=0
note_on channel=0 note=43 velocity=0 time=120
note_on channel=0 note=63 velocity=0 time=0
note_on channel=0 note=55 velocity=0 time=0
note_on channel=0 note=60 velocity=0 time=0
note_on channel=0 note=31 velocity=0 time=0
note_on channel=0 note=53 velocity=33 time=0
note_on channel=0 note=59 velocity=33 time=0
note_on channel=0 note=62 velocity=39 time=0
note_on channel=0 note=31 velocity=27 time=0
note_on channel=0 note=43 velocity=33 time=0
note_on channel=0 note=43 velocity=0 time=120
note_on channel=0 note=62 velocity=0 time=0
note_on channel=0 note=53 velocity=0 time=0
note_on channel=0 note=59 velocity=0 time=0
note_on channel=0 note=31 velocity=0 time=0
note_on channel=0 note=51 velocity=37 time=0
note_on channel=0 note=55 velocity=37 time=0
note_on channel=0 note=60 velocity=45 time=0
note_on channel=0 note=36 velocity=32 time=0
control_change channel=0 control=64 value=127 time=28
note_on channel=0 note=36 velocity=0 time=212
note_on channel=0 note=51 velocity=0 time=0
note_on channel=0 note=55 velocity=0 time=0
note_on channel=0 note=60 velocity=0 time=0
note_on channel=0 note=48 velocity=27 time=0
note_on channel=0 note=48 velocity=0 time=0
note_on channel=0 note=59 velocity=30 time=0
note_on channel=0 note=65 velocity=36 time=0
control_change channel=0 control=64 value=0 time=14
control_change channel=0 control=64 value=127 time=170
note_on channel=0 note=65 velocity=0 time=0
note_on channel=0 note=59 velocity=0 time=0
note_on channel=0 note=60 velocity=27 time=0
note_on channel=0 note=63 velocity=32 time=0
note_on channel=0 note=63 velocity=0 time=0
note_on channel=0 note=60 velocity=0 time=0
note_on channel=0 note=36 velocity=32 time=0
control_change channel=0 control=64 value=0 time=12
control_change channel=0 control=64 value=127 time=144
note_on channel=0 note=36 velocity=0 time=84
note_on channel=0 note=48 velocity=28 time=0
note_on channel=0 note=48 velocity=0 time=0
note_on channel=0 note=65 velocity=31 time=0
note_on channel=0 note=71 velocity=37 time=0
control_change channel=0 control=64 value=0 time=12
control_change channel=0 control=64 value=127 time=129
note_on channel=0 note=71 velocity=0 time=0
note_on channel=0 note=65 velocity=0 time=0
note_on channel=0 note=63 velocity=27 time=0
note_on channel=0 note=72 velocity=32 time=0
note_on channel=0 note=72 velocity=0 time=0
note_on channel=0 note=63 velocity=0 time=0
note_on channel=0 note=36 velocity=32 time=0
control_change channel=0 control=64 value=0 time=4
control_change channel=0 control=64 value=127 time=123
note_on channel=0 note=36 velocity=0 time=113
note_on channel=0 note=48 velocity=28 time=0
note_on channel=0 note=48 velocity=0 time=0
note_on channel=0 note=77 velocity=37 time=0
note_on channel=0 note=71 velocity=31 time=0
control_change channel=0 control=64 value=0 time=14
control_change channel=0 control=64 value=127 time=113
note_on channel=0 note=71 velocity=0 time=0
note_on channel=0 note=77 velocity=0 time=0
note_on channel=0 note=72 velocity=27 time=0
note_on channel=0 note=75 velocity=32 time=0
note_on channel=0 note=75 velocity=0 time=0
note_on channel=0 note=72 velocity=0 time=0
note_on channel=0 note=36 velocity=32 time=0
control_change channel=0 control=64 value=0 time=12
control_change channel=0 control=64 value=127 time=129
note_on channel=0 note=36 velocity=0 time=99
note_on channel=0 note=48 velocity=27 time=0
note_on channel=0 note=48 velocity=0 time=0
note_on channel=0 note=83 velocity=43 time=0
note_on channel=0 note=77 velocity=36 time=0
control_change channel=0 control=64 value=0 time=7
control_change channel=0 control=64 value=127 time=149
note_on channel=0 note=77 velocity=0 time=0
note_on channel=0 note=83 velocity=0 time=0
note_on channel=0 note=75 velocity=30 time=0
note_on channel=0 note=84 velocity=36 time=0
note_on channel=0 note=84 velocity=0 time=0
note_on channel=0 note=75 velocity=0 time=0
note_on channel=0 note=32 velocity=36 time=0
control_change channel=0 control=64 value=0 time=0
control_change channel=0 control=64 value=127 time=28
note_on channel=0 note=32 velocity=0 time=212
note_on channel=0 note=44 velocity=32 time=0
note_on channel=0 note=44 velocity=0 time=0
note_on channel=0 note=60 velocity=36 time=0
note_on channel=0 note=66 velocity=44 time=0
control_change channel=0 control=64 value=0 time=14
control_change channel=0 control=64 value=127 time=170
note_on channel=0 note=66 velocity=0 time=0
note_on channel=0 note=60 velocity=0 time=0
note_on channel=0 note=61 velocity=33 time=0
note_on channel=0 note=65 velocity=40 time=0
note_on channel=0 note=65 velocity=0 time=0
note_on channel=0 note=61 velocity=0 time=0
note_on channel=0 note=32 velocity=42 time=0
control_change channel=0 control=64 value=0 time=12
control_change channel=0 control=64 value=127 time=144
note_on channel=0 note=32 velocity=0 time=84
note_on channel=0 note=44 velocity=38 time=0
note_on channel=0 note=44 velocity=0 time=0
note_on channel=0 note=65 velocity=43 time=0
note_on channel=0 note=73 velocity=52 time=0
control_change channel=0 control=64 value=0 time=12
control_change channel=0 control=64 value=127 time=129
note_on channel=0 note=73 velocity=0 time=0
note_on channel=0 note=65 velocity=0 time=0
note_on channel=0 note=66 velocity=38 time=0
note_on channel=0 note=72 velocity=45 time=0
note_on channel=0 note=72 velocity=0 time=0
note_on channel=0 note=66 velocity=0 time=0
note_on channel=0 note=32 velocity=55 time=0
control_change channel=0 control=64 value=0 time=4
control_change channel=0 control=64 value=127 time=123
note_on channel=0 note=32 velocity=0 time=113
note_on channel=0 note=44 velocity=51 time=0
note_on channel=0 note=44 velocity=0 time=0
note_on channel=0 note=77 velocity=65 time=0
note_on channel=0 note=73 velocity=54 time=0
control_change channel=0 control=64 value=0 time=14
control_change channel=0 control=64 value=127 time=113
note_on channel=0 note=73 velocity=0 time=0
note_on channel=0 note=77 velocity=0 time=0
note_on channel=0 note=72 velocity=47 time=0
note_on channel=0 note=78 velocity=57 time=0
note_on channel=0 note=78 velocity=0 time=0
note_on channel=0 note=72 velocity=0 time=0
note_on channel=0 note=32 velocity=64 time=0
control_change channel=0 control=64 value=0 time=12
control_change channel=0 control=64 value=127 time=129
note_on channel=0 note=32 velocity=0 time=0
note_on channel=0 note=44 velocity=56 time=0
note_on channel=0 note=44 velocity=0 time=0
note_on channel=0 note=85 velocity=76 time=0
note_on channel=0 note=77 velocity=63 time=0
control_change channel=0 control=64 value=0 time=7
control_change channel=0 control=64 value=127 time=149
note_on channel=0 note=77 velocity=0 time=0
note_on channel=0 note=85 velocity=0 time=0
note_on channel=0 note=78 velocity=55 time=0
note_on channel=0 note=84 velocity=65 time=0
note_on channel=0 note=84 velocity=0 time=0
note_on channel=0 note=78 velocity=0 time=0
note_on channel=0 note=87 velocity=84 time=0
note_on channel=0 note=78 velocity=78 time=0
note_on channel=0 note=32 velocity=65 time=0
note_on channel=0 note=44 velocity=70 time=0
control_change channel=0 control=64 value=0 time=0
control_change channel=0 control=64 value=127 time=400
note_on channel=0 note=78 velocity=0 time=0
note_on channel=0 note=87 velocity=0 time=0
note_on channel=0 note=85 velocity=59 time=0
note_on channel=0 note=75 velocity=40 time=0
control_change channel=0 control=64 value=0 time=0
control_change channel=0 control=64 value=127 time=52
note_on channel=0 note=85 velocity=0 time=428
note_on channel=0 note=84 velocity=54 time=0
note_on channel=0 note=84 velocity=0 time=0
note_on channel=0 note=75 velocity=0 time=0
note_on channel=0 note=82 velocity=57 time=0
note_on channel=0 note=72 velocity=40 time=0
control_change channel=0 control=64 value=0 time=13
control_change channel=0 control=64 value=127 time=47
note_on channel=0 note=82 velocity=0 time=0
note_on channel=0 note=80 velocity=50 time=0
note_on channel=0 note=80 velocity=0 time=0
note_on channel=0 note=77 velocity=41 time=0
note_on channel=0 note=77 velocity=0 time=80
note_on channel=0 note=78 velocity=36 time=0
note_on channel=0 note=78 velocity=0 time=80
note_on channel=0 note=80 velocity=36 time=0
note_on channel=0 note=80 velocity=0 time=0
note_on channel=0 note=78 velocity=50 time=0
control_change channel=0 control=64 value=0 time=0
control_change channel=0 control=64 value=127 time=267
note_on channel=0 note=78 velocity=0 time=693
note_on channel=0 note=72 velocity=0 time=0
note_on channel=0 note=32 velocity=0 time=0
note_on channel=0 note=44 velocity=0 time=0
control_change channel=0 control=64 value=0 time=0
note_on channel=0 note=56 velocity=34 time=0
note_on channel=0 note=56 velocity=0 time=120
note_on channel=0 note=58 velocity=31 time=120
note_on channel=0 note=58 velocity=0 time=120
note_on channel=0 note=60 velocity=31 time=120
note_on channel=0 note=60 velocity=0 time=120
note_on channel=0 note=53 velocity=33 time=120
note_on channel=0 note=56 velocity=33 time=0
note_on channel=0 note=61 velocity=39 time=0
note_on channel=0 note=37 velocity=21 time=0
note_on channel=0 note=49 velocity=26 time=0
note_on channel=0 note=61 velocity=0 time=120
note_on channel=0 note=63 velocity=34 time=120
note_on channel=0 note=63 velocity=0 time=120
note_on channel=0 note=65 velocity=34 time=0
note_on channel=0 note=65 velocity=0 time=120
note_on channel=0 note=37 velocity=0 time=0
note_on channel=0 note=53 velocity=0 time=0
note_on channel=0 note=56 velocity=0 time=0
note_on channel=0 note=49 velocity=0 time=0
note_on channel=0 note=56 velocity=32 time=0
note_on channel=0 note=63 velocity=38 time=0
note_on channel=0 note=42 velocity=20 time=0
note_on channel=0 note=48 velocity=25 time=0
note_on channel=0 note=48 velocity=0 time=120
note_on channel=0 note=56 velocity=0 time=0
note_on channel=0 note=63 velocity=0 time=0
note_on channel=0 note=42 velocity=0 time=0
note_on channel=0 note=56 velocity=27 time=360
note_on channel=0 note=61 velocity=33 time=0
note_on channel=0 note=41 velocity=19 time=0
note_on channel=0 note=49 velocity=23 time=0
note_on channel=0 note=49 velocity=0 time=120
note_on channel=0 note=56 velocity=0 time=0
note_on channel=0 note=61 velocity=0 time=0
note_on channel=0 note=41 velocity=0 time=0
note_on channel=0 note=54 velocity=31 time=0
note_on channel=0 note=56 velocity=31 time=0
note_on channel=0 note=60 velocity=31 time=0
note_on channel=0 note=66 velocity=37 time=0
note_on channel=0 note=44 velocity=22 time=0
note_on channel=0 note=51 velocity=27 time=0
note_on channel=0 note=51 velocity=0 time=0
note_on channel=0 note=56 velocity=0 time=0
note_on channel=0 note=60 velocity=0 time=0
note_on channel=0 note=54 velocity=0 time=0
note_on channel=0 note=44 velocity=0 time=0
note_on channel=0 note=66 velocity=0 time=0
note_on channel=0 note=56 velocity=34 time=0
note_on channel=0 note=56 velocity=0 time=120
note_on channel=0 note=58 velocity=31 time=120
note_on channel=0 note=58 velocity=0 time=120
note_on channel=0 note=60 velocity=31 time=120
note_on channel=0 note=60 velocity=0 time=120
note_on channel=0 note=53 velocity=33 time=0
note_on channel=0 note=56 velocity=33 time=0
note_on channel=0 note=61 velocity=39 time=0
note_on channel=0 note=37 velocity=21 time=0
note_on channel=0 note=49 velocity=26 time=0
note_on channel=0 note=61 velocity=0 time=120
note_on channel=0 note=63 velocity=34 time=120
note_on channel=0 note=63 velocity=0 time=120
note_on channel=0 note=65 velocity=34 time=0
note_on channel=0 note=65 velocity=0 time=0
note_on channel=0 note=37 velocity=0 time=0
note_on channel=0 note=53 velocity=0 time=0
note_on channel=0 note=56 velocity=0 time=0
note_on channel=0 note=49 velocity=0 time=0
note_on channel=0 note=51 velocity=32 time=0
note_on channel=0 note=58 velocity=32 time=0
note_on channel=0 note=63 velocity=38 time=0
note_on channel=0 note=30 velocity=20 time=0
note_on channel=0 note=42 velocity=25 time=0
note_on channel=0 note=42 velocity=0 time=120
note_on channel=0 note=63 velocity=0 time=0
note_on channel=0 note=51 velocity=0 time=0
note_on channel=0 note=58 velocity=0 time=0
note_on channel=0 note=30 velocity=0 time=0
note_on channel=0 note=58 velocity=27 time=360
note_on channel=0 note=51 velocity=27 time=0
note_on channel=0 note=61 velocity=33 time=0
note_on channel=0 note=31 velocity=19 time=0
note_on channel=0 note=43 velocity=23 time=0
note_on channel=0 note=43 velocity=0 time=120
note_on channel=0 note=61 velocity=0 time=0
note_on channel=0 note=58 velocity=0 time=0
note_on channel=0 note=51 velocity=0 time=0
note_on channel=0 note=31 velocity=0 time=0
note_on channel=0 note=48 velocity=26 time=0
note_on channel=0 note=51 velocity=26 time=0
note_on channel=0 note=56 velocity=31 time=0
note_on channel=0 note=32 velocity=18 time=0
note_on channel=0 note=44 velocity=22 time=0
note_on channel=0 note=44 velocity=0 time=960
note_on channel=0 note=56 velocity=0 time=0
note_on channel=0 note=48 velocity=0 time=0
note_on channel=0 note=51 velocity=0 time=0
note_on channel=0 note=32 velocity=0 time=0
note_on channel=0 note=56 velocity=34 time=0
note_on channel=0 note=56 velocity=0 time=120
note_on channel=0 note=58 velocity=31 time=120
note_on channel=0 note=58 velocity=0 time=120
note_on channel=0 note=60 velocity=31 time=120
note_on channel=0 note=60 velocity=0 time=120
note_on channel=0 note=53 velocity=33 time=120
note_on channel=0 note=56 velocity=33 time=0
note_on channel=0 note=61 velocity=39 time=0
note_on channel=0 note=37 velocity=21 time=0
note_on channel=0 note=49 velocity=26 time=0
note_on channel=0 note=61 velocity=0 time=120
note_on channel=0 note=63 velocity=34 time=120
note_on channel=0 note=63 velocity=0 time=120
note_on channel=0 note=65 velocity=34 time=0
note_on channel=0 note=65 velocity=0 time=120
note_on channel=0 note=37 velocity=0 time=0
note_on channel=0 note=53 velocity=0 time=0
note_on channel=0 note=56 velocity=0 time=0
note_on channel=0 note=49 velocity=0 time=0
note_on channel=0 note=56 velocity=32 time=0
note_on channel=0 note=63 velocity=38 time=0
note_on channel=0 note=42 velocity=20 time=0
note_on channel=0 note=48 velocity=25 time=0
note_on channel=0 note=48 velocity=0 time=120
note_on channel=0 note=56 velocity=0 time=0
note_on channel=0 note=63 velocity=0 time=0
note_on channel=0 note=42 velocity=0 time=0
note_on channel=0 note=56 velocity=27 time=360
note_on channel=0 note=61 velocity=33 time=0
note_on channel=0 note=41 velocity=19 time=0
note_on channel=0 note=49 velocity=23 time=0
note_on channel=0 note=49 velocity=0 time=120
note_on channel=0 note=56 velocity=0 time=0
note_on channel=0 note=61 velocity=0 time=0
note_on channel=0 note=41 velocity=0 time=0
note_on channel=0 note=54 velocity=28 time=0
note_on channel=0 note=56 velocity=28 time=0
note_on channel=0 note=60 velocity=28 time=0
note_on channel=0 note=66 velocity=35 time=0
note_on channel=0 note=44 velocity=24 time=0
note_on channel=0 note=48 velocity=24 time=0
note_on channel=0 note=51 velocity=28 time=0
control_change channel=0 control=64 value=127 time=0
note_on channel=0 note=66 velocity=0 time=0
note_on channel=0 note=63 velocity=30 time=0
note_on channel=0 note=60 velocity=0 time=238
note_on channel=0 note=63 velocity=0 time=0
note_on channel=0 note=60 velocity=34 time=0
note_on channel=0 note=60 velocity=0 time=0
note_on channel=0 note=51 velocity=0 time=0
note_on channel=0 note=44 velocity=0 time=0
note_on channel=0 note=54 velocity=0 time=0
note_on channel=0 note=56 velocity=0 time=0
note_on channel=0 note=48 velocity=0 time=0
note_on channel=0 note=33 velocity=30 time=0
control_change channel=0 control=64 value=0 time=0
control_change channel=0 control=64 value=127 time=4
note_on channel=0 note=33 velocity=0 time=37
note_on channel=0 note=36 velocity=32 time=0
note_on channel=0 note=39 velocity=33 time=1
note_on channel=0 note=36 velocity=0 time=0
note_on channel=0 note=39 velocity=0 time=51
note_on channel=0 note=42 velocity=34 time=0
note_on channel=0 note=45 velocity=36 time=10
note_on channel=0 note=42 velocity=0 time=1
note_on channel=0 note=48 velocity=37 time=26
note_on channel=0 note=51 velocity=39 time=43
note_on channel=0 note=54 velocity=40 time=29
note_on channel=0 note=57 velocity=43 time=46
note_on channel=0 note=60 velocity=46 time=2
note_on channel=0 note=66 velocity=49 time=0
note_on channel=0 note=66 velocity=0 time=0
note_on channel=0 note=63 velocity=30 time=0
note_on channel=0 note=60 velocity=0 time=237
note_on channel=0 note=63 velocity=0 time=0
note_on channel=0 note=60 velocity=34 time=0
note_on channel=0 note=45 velocity=0 time=954
note_on channel=0 note=51 velocity=0 time=0
note_on channel=0 note=54 velocity=0 time=0
note_on channel=0 note=48 velocity=0 time=0
note_on channel=0 note=60 velocity=0 time=0
note_on channel=0 note=57 velocity=0 time=0
note_on channel=0 note=31 velocity=60 time=0
control_change channel=0 control=64 value=0 time=0
control_change channel=0 control=64 value=127 time=64
note_on channel=0 note=31 velocity=0 time=43
note_on channel=0 note=36 velocity=61 time=0
note_on channel=0 note=36 velocity=0 time=106
note_on channel=0 note=39 velocity=62 time=0
note_on channel=0 note=43 velocity=63 time=106
note_on channel=0 note=39 velocity=0 time=1
note_on channel=0 note=43 velocity=0 time=106
note_on channel=0 note=48 velocity=63 time=0
note_on channel=0 note=48 velocity=0 time=106
note_on channel=0 note=51 velocity=64 time=0
note_on channel=0 note=51 velocity=0 time=107
note_on channel=0 note=55 velocity=63 time=0
note_on channel=0 note=55 velocity=0 time=106
note_on channel=0 note=60 velocity=65 time=0
note_on channel=0 note=63 velocity=67 time=106
note_on channel=0 note=60 velocity=0 time=1
note_on channel=0 note=63 velocity=0 time=108
note_on channel=0 note=67 velocity=70 time=0
control_change channel=0 control=64 value=0 time=12
note_on channel=0 note=67 velocity=0 time=108
note_on channel=0 note=63 velocity=63 time=120
note_on channel=0 note=63 velocity=0 time=120
note_on channel=0 note=60 velocity=67 time=120
note_on channel=0 note=60 velocity=0 time=120
note_on channel=0 note=55 velocity=63 time=120
note_on channel=0 note=55 velocity=0 time=120
note_on channel=0 note=51 velocity=70 time=120
note_on channel=0 note=51 velocity=0 time=120
note_on channel=0 note=48 velocity=57 time=120
note_on channel=0 note=48 velocity=0 time=120
note_on channel=0 note=31 velocity=42 time=120
note_on channel=0 note=43 velocity=42 time=0
note_on channel=0 note=47 velocity=63 time=0
note_on channel=0 note=47 velocity=0 time=120
note_on channel=0 note=50 velocity=53 time=0
note_on channel=0 note=50 velocity=0 time=120
note_on channel=0 note=43 velocity=0 time=0
note_on channel=0 note=31 velocity=0 time=0
note_on channel=0 note=48 velocity=43 time=0
note_on channel=0 note=36 velocity=64 time=0
note_on channel=0 note=36 velocity=0 time=120
note_on channel=0 note=48 velocity=0 time=0
note_on channel=0 note=48 velocity=38 time=0
note_on channel=0 note=48 velocity=0 time=120
note_on channel=0 note=48 velocity=38 time=120
note_on channel=0 note=48 velocity=0 time=120
note_on channel=0 note=48 velocity=38 time=120
note_on channel=0 note=48 velocity=0 time=120
note_on channel=0 note=48 velocity=41 time=0
note_on channel=0 note=48 velocity=0 time=120
note_on channel=0 note=60 velocity=44 time=0
note_on channel=0 note=58 velocity=37 time=0
note_on channel=0 note=55 velocity=31 time=0
note_on channel=0 note=55 velocity=0 time=120
note_on channel=0 note=58 velocity=0 time=0
note_on channel=0 note=60 velocity=0 time=0
note_on channel=0 note=62 velocity=47 time=120
note_on channel=0 note=58 velocity=37 time=0
note_on channel=0 note=55 velocity=31 time=0
note_on channel=0 note=55 velocity=0 time=120
note_on channel=0 note=58 velocity=0 time=0
note_on channel=0 note=62 velocity=0 time=0
note_on channel=0 note=64 velocity=51 time=120
note_on channel=0 note=58 velocity=37 time=0
note_on channel=0 note=55 velocity=31 time=0
note_on channel=0 note=55 velocity=0 time=120
note_on channel=0 note=58 velocity=0 time=0
note_on channel=0 note=64 velocity=0 time=0
note_on channel=0 note=65 velocity=54 time=0
note_on channel=0 note=48 velocity=43 time=0
note_on channel=0 note=48 velocity=0 time=120
note_on channel=0 note=65 velocity=0 time=0
note_on channel=0 note=67 velocity=46 time=120
note_on channel=0 note=53 velocity=31 time=0
note_on channel=0 note=56 velocity=36 time=0
note_on channel=0 note=56 velocity=0 time=120
note_on channel=0 note=53 velocity=0 time=0
note_on channel=0 note=67 velocity=0 time=0
note_on channel=0 note=68 velocity=47 time=120
note_on channel=0 note=53 velocity=31 time=0
note_on channel=0 note=56 velocity=36 time=0
note_on channel=0 note=56 velocity=0 time=120
note_on channel=0 note=53 velocity=0 time=0
note_on channel=0 note=68 velocity=0 time=0
note_on channel=0 note=84 velocity=56 time=120
note_on channel=0 note=53 velocity=31 time=0
note_on channel=0 note=56 velocity=36 time=0
note_on channel=0 note=56 velocity=0 time=120
note_on channel=0 note=53 velocity=0 time=0
note_on channel=0 note=84 velocity=0 time=0
note_on channel=0 note=83 velocity=65 time=0
note_on channel=0 note=48 velocity=41 time=0
control_change channel=0 control=64 value=127 time=46
note_on channel=0 note=48 velocity=0 time=74
note_on channel=0 note=83 velocity=0 time=120
note_on channel=0 note=84 velocity=55 time=0
note_on channel=0 note=59 velocity=36 time=0
note_on channel=0 note=56 velocity=31 time=0
note_on channel=0 note=53 velocity=31 time=0
control_change channel=0 control=64 value=0 time=12
note_on channel=0 note=53 velocity=0 time=108
note_on channel=0 note=56 velocity=0 time=0
note_on channel=0 note=59 velocity=0 time=0
note_on channel=0 note=84 velocity=0 time=0
note_on channel=0 note=89 velocity=66 time=0
note_on channel=0 note=59 velocity=36 time=0
note_on channel=0 note=56 velocity=31 time=0
note_on channel=0 note=53 velocity=31 time=0
note_on channel=0 note=53 velocity=0 time=120
note_on channel=0 note=89 velocity=0 time=0
note_on channel=0 note=59 velocity=0 time=0
note_on channel=0 note=56 velocity=0 time=0
note_on channel=0 note=89 velocity=54 time=0
note_on channel=0 note=59 velocity=36 time=0
note_on channel=0 note=56 velocity=31 time=0
note_on channel=0 note=53 velocity=31 time=0
note_on channel=0 note=53 velocity=0 time=120
note_on channel=0 note=89 velocity=0 time=0
note_on channel=0 note=59 velocity=0 time=0
note_on channel=0 note=56 velocity=0 time=0
note_on channel=0 note=88 velocity=66 time=0
note_on channel=0 note=48 velocity=43 time=0
note_on channel=0 note=48 velocity=0 time=0
note_on channel=0 note=52 velocity=32 time=0
note_on channel=0 note=55 velocity=32 time=0
note_on channel=0 note=60 velocity=38 time=0
note_on channel=0 note=60 velocity=0 time=120
note_on channel=0 note=55 velocity=0 time=0
note_on channel=0 note=52 velocity=0 time=0
note_on channel=0 note=88 velocity=0 time=120
note_on channel=0 note=52 velocity=32 time=0
note_on channel=0 note=55 velocity=32 time=0
note_on channel=0 note=60 velocity=38 time=0
note_on channel=0 note=60 velocity=0 time=120
note_on channel=0 note=55 velocity=0 time=0
note_on channel=0 note=52 velocity=0 time=0
note_on channel=0 note=52 velocity=32 time=120
note_on channel=0 note=55 velocity=32 time=0
note_on channel=0 note=60 velocity=38 time=0
note_on channel=0 note=60 velocity=0 time=120
note_on channel=0 note=55 velocity=0 time=0
note_on channel=0 note=52 velocity=0 time=0
note_on channel=0 note=48 velocity=41 time=0
note_on channel=0 note=48 velocity=0 time=120
note_on channel=0 note=60 velocity=44 time=0
note_on channel=0 note=58 velocity=37 time=0
note_on channel=0 note=55 velocity=31 time=0
note_on channel=0 note=55 velocity=0 time=120
note_on channel=0 note=58 velocity=0 time=0
note_on channel=0 note=60 velocity=0 time=0
note_on channel=0 note=62 velocity=47 time=120
note_on channel=0 note=58 velocity=37 time=0
note_on channel=0 note=55 velocity=31 time=0
note_on channel=0 note=55 velocity=0 time=120
note_on channel=0 note=58 velocity=0 time=0
note_on channel=0 note=62 velocity=0 time=0
note_on channel=0 note=64 velocity=51 time=120
note_on channel=0 note=58 velocity=37 time=0
note_on channel=0 note=55 velocity=31 time=0
note_on channel=0 note=55 velocity=0 time=120
note_on channel=0 note=58 velocity=0 time=0
note_on channel=0 note=64 velocity=0 time=0
note_on channel=0 note=65 velocity=54 time=0
note_on channel=0 note=48 velocity=43 time=0
note_on channel=0 note=48 velocity=0 time=120
note_on channel=0 note=65 velocity=0 time=0
note_on channel=0 note=67 velocity=46 time=120
note_on channel=0 note=53 velocity=31 time=0
note_on channel=0 note=56 velocity=36 time=0
note_on channel=0 note=56 velocity=0 time=120
note_on channel=0 note=53 velocity=0 time=0
note_on channel=0 note=67 velocity=0 time=0
note_on channel=0 note=68 velocity=47 time=120
note_on channel=0 note=53 velocity=31 time=0
note_on channel=0 note=56 velocity=36 time=0
note_on channel=0 note=56 velocity=0 time=120
note_on channel=0 note=53 velocity=0 time=0
note_on channel=0 note=68 velocity=0 time=0
note_on channel=0 note=84 velocity=56 time=120
note_on channel=0 note=53 velocity=31 time=0
note_on channel=0 note=56 velocity=36 time=0
note_on channel=0 note=56 velocity=0 time=120
note_on channel=0 note=53 velocity=0 time=0
note_on channel=0 note=84 velocity=0 time=0
note_on channel=0 note=83 velocity=65 time=0
note_on channel=0 note=48 velocity=41 time=0
control_change channel=0 control=64 value=127 time=46
note_on channel=0 note=48 velocity=0 time=74
note_on channel=0 note=83 velocity=0 time=120
note_on channel=0 note=84 velocity=55 time=0
note_on channel=0 note=59 velocity=36 time=0
note_on channel=0 note=56 velocity=31 time=0
note_on channel=0 note=53 velocity=31 time=0
control_change channel=0 control=64 value=0 time=12
note_on channel=0 note=53 velocity=0 time=108
note_on channel=0 note=56 velocity=0 time=0
note_on channel=0 note=59 velocity=0 time=0
note_on channel=0 note=84 velocity=0 time=0
note_on channel=0 note=89 velocity=66 time=0
note_on channel=0 note=59 velocity=36 time=0
note_on channel=0 note=56 velocity=31 time=0
note_on channel=0 note=53 velocity=31 time=0
note_on channel=0 note=53 velocity=0 time=120
note_on channel=0 note=89 velocity=0 time=0
note_on channel=0 note=59 velocity=0 time=0
note_on channel=0 note=56 velocity=0 time=0
note_on channel=0 note=89 velocity=54 time=0
note_on channel=0 note=59 velocity=36 time=0
note_on channel=0 note=56 velocity=31 time=0
note_on channel=0 note=53 velocity=31 time=0
note_on channel=0 note=53 velocity=0 time=120
note_on channel=0 note=89 velocity=0 time=0
note_on channel=0 note=59 velocity=0 time=0
note_on channel=0 note=56 velocity=0 time=0
note_on channel=0 note=88 velocity=66 time=0
note_on channel=0 note=48 velocity=43 time=0
note_on channel=0 note=48 velocity=0 time=0
note_on channel=0 note=52 velocity=32 time=0
note_on channel=0 note=55 velocity=32 time=0
note_on channel=0 note=60 velocity=38 time=0
note_on channel=0 note=60 velocity=0 time=120
note_on channel=0 note=55 velocity=0 time=0
note_on channel=0 note=52 velocity=0 time=0
note_on channel=0 note=88 velocity=0 time=120
note_on channel=0 note=52 velocity=32 time=0
note_on channel=0 note=55 velocity=32 time=0
note_on channel=0 note=60 velocity=38 time=0
note_on channel=0 note=60 velocity=0 time=120
note_on channel=0 note=55 velocity=0 time=0
note_on channel=0 note=52 velocity=0 time=0
note_on channel=0 note=72 velocity=50 time=0
note_on channel=0 note=52 velocity=32 time=0
note_on channel=0 note=55 velocity=32 time=0
note_on channel=0 note=60 velocity=38 time=0
note_on channel=0 note=60 velocity=0 time=120
note_on channel=0 note=55 velocity=0 time=0
note_on channel=0 note=52 velocity=0 time=0
note_on channel=0 note=72 velocity=0 time=0
note_on channel=0 note=71 velocity=57 time=0
note_on channel=0 note=48 velocity=40 time=0
control_change channel=0 control=64 value=127 time=46
note_on channel=0 note=48 velocity=0 time=74
note_on channel=0 note=71 velocity=0 time=120
note_on channel=0 note=72 velocity=47 time=0
note_on channel=0 note=59 velocity=36 time=0
note_on channel=0 note=56 velocity=30 time=0
note_on channel=0 note=53 velocity=30 time=0
control_change channel=0 control=64 value=0 time=12
note_on channel=0 note=53 velocity=0 time=108
note_on channel=0 note=56 velocity=0 time=0
note_on channel=0 note=59 velocity=0 time=0
note_on channel=0 note=72 velocity=0 time=0
note_on channel=0 note=77 velocity=57 time=0
note_on channel=0 note=59 velocity=35 time=0
note_on channel=0 note=56 velocity=29 time=0
note_on channel=0 note=53 velocity=29 time=0
note_on channel=0 note=53 velocity=0 time=120
note_on channel=0 note=77 velocity=0 time=0
note_on channel=0 note=59 velocity=0 time=0
note_on channel=0 note=56 velocity=0 time=0
note_on channel=0 note=77 velocity=45 time=0
note_on channel=0 note=59 velocity=34 time=0
note_on channel=0 note=56 velocity=29 time=0
note_on channel=0 note=53 velocity=29 time=0
note_on channel=0 note=53 velocity=0 time=120
note_on channel=0 note=77 velocity=0 time=0
note_on channel=0 note=59 velocity=0 time=0
note_on channel=0 note=56 velocity=0 time=0
note_on channel=0 note=76 velocity=55 time=0
note_on channel=0 note=48 velocity=40 time=0
note_on channel=0 note=48 velocity=0 time=0
note_on channel=0 note=52 velocity=29 time=0
note_on channel=0 note=55 velocity=29 time=0
note_on channel=0 note=60 velocity=35 time=0
note_on channel=0 note=60 velocity=0 time=120
note_on channel=0 note=55 velocity=0 time=0
note_on channel=0 note=52 velocity=0 time=0
note_on channel=0 note=76 velocity=0 time=120
note_on channel=0 note=52 velocity=29 time=0
note_on channel=0 note=55 velocity=29 time=0
note_on channel=0 note=60 velocity=35 time=0
note_on channel=0 note=60 velocity=0 time=120
note_on channel=0 note=55 velocity=0 time=0
note_on channel=0 note=52 velocity=0 time=0
note_on channel=0 note=60 velocity=45 time=0
note_on channel=0 note=52 velocity=28 time=0
note_on channel=0 note=55 velocity=28 time=0
note_on channel=0 note=60 velocity=34 time=0
note_on channel=0 note=60 velocity=0 time=120
note_on channel=0 note=55 velocity=0 time=0
note_on channel=0 note=52 velocity=0 time=0
note_on channel=0 note=60 velocity=0 time=0
note_on channel=0 note=59 velocity=51 time=0
note_on channel=0 note=48 velocity=36 time=0
control_change channel=0 control=64 value=127 time=46
note_on channel=0 note=48 velocity=0 time=74
note_on channel=0 note=59 velocity=0 time=118
note_on channel=0 note=60 velocity=43 time=2
note_on channel=0 note=59 velocity=32 time=0
note_on channel=0 note=56 velocity=27 time=0
note_on channel=0 note=53 velocity=27 time=0
control_change channel=0 control=64 value=0 time=12
note_on channel=0 note=53 velocity=0 time=108
note_on channel=0 note=56 velocity=0 time=0
note_on channel=0 note=59 velocity=0 time=0
note_on channel=0 note=60 velocity=0 time=0
note_on channel=0 note=65 velocity=51 time=0
note_on channel=0 note=59 velocity=31 time=0
note_on channel=0 note=56 velocity=27 time=0
note_on channel=0 note=53 velocity=27 time=0
note_on channel=0 note=53 velocity=0 time=120
note_on channel=0 note=65 velocity=0 time=0
note_on channel=0 note=59 velocity=0 time=0
note_on channel=0 note=56 velocity=0 time=0
note_on channel=0 note=65 velocity=40 time=0
note_on channel=0 note=59 velocity=30 time=0
note_on channel=0 note=56 velocity=26 time=0
note_on channel=0 note=53 velocity=26 time=0
note_on channel=0 note=53 velocity=0 time=120
note_on channel=0 note=65 velocity=0 time=0
note_on channel=0 note=59 velocity=0 time=0
note_on channel=0 note=56 velocity=0 time=0
note_on channel=0 note=64 velocity=49 time=0
note_on channel=0 note=48 velocity=32 time=0
control_change channel=0 control=64 value=127 time=0
note_on channel=0 note=48 velocity=0 time=0
note_on channel=0 note=52 velocity=23 time=0
note_on channel=0 note=55 velocity=23 time=0
note_on channel=0 note=60 velocity=27 time=0
note_on channel=0 note=60 velocity=0 time=120
note_on channel=0 note=55 velocity=0 time=0
note_on channel=0 note=52 velocity=0 time=0
note_on channel=0 note=64 velocity=0 time=120
note_on channel=0 note=52 velocity=23 time=0
note_on channel=0 note=55 velocity=23 time=0
note_on channel=0 note=60 velocity=27 time=0
note_on channel=0 note=60 velocity=0 time=120
note_on channel=0 note=55 velocity=0 time=0
note_on channel=0 note=52 velocity=0 time=0
note_on channel=0 note=36 velocity=30 time=0
note_on channel=0 note=52 velocity=22 time=0
note_on channel=0 note=55 velocity=22 time=0
note_on channel=0 note=60 velocity=27 time=0
note_on channel=0 note=60 velocity=0 time=120
note_on channel=0 note=55 velocity=0 time=0
note_on channel=0 note=52 velocity=0 time=0
note_on channel=0 note=36 velocity=0 time=118
note_on channel=0 note=36 velocity=40 time=0
note_on channel=0 note=48 velocity=32 time=0
control_change channel=0 control=64 value=0 time=15
control_change channel=0 control=64 value=127 time=214
note_on channel=0 note=48 velocity=0 time=0
note_on channel=0 note=52 velocity=22 time=0
note_on channel=0 note=55 velocity=22 time=0
note_on channel=0 note=60 velocity=26 time=0
note_on channel=0 note=60 velocity=0 time=120
note_on channel=0 note=55 velocity=0 time=0
note_on channel=0 note=52 velocity=0 time=0
note_on channel=0 note=36 velocity=0 time=120
note_on channel=0 note=52 velocity=21 time=0
note_on channel=0 note=55 velocity=21 time=0
note_on channel=0 note=60 velocity=26 time=0
note_on channel=0 note=60 velocity=0 time=120
note_on channel=0 note=55 velocity=0 time=0
note_on channel=0 note=52 velocity=0 time=0
note_on channel=0 note=36 velocity=26 time=0
note_on channel=0 note=52 velocity=21 time=0
note_on channel=0 note=55 velocity=21 time=0
note_on channel=0 note=60 velocity=25 time=0
note_on channel=0 note=60 velocity=0 time=120
note_on channel=0 note=55 velocity=0 time=0
note_on channel=0 note=52 velocity=0 time=0
note_on channel=0 note=36 velocity=0 time=0
note_on channel=0 note=36 velocity=33 time=0
note_on channel=0 note=48 velocity=20 time=0
note_on channel=0 note=52 velocity=20 time=0
note_on channel=0 note=55 velocity=24 time=0
note_on channel=0 note=55 velocity=0 time=480
note_on channel=0 note=36 velocity=0 time=0
note_on channel=0 note=48 velocity=0 time=0
note_on channel=0 note=52 velocity=0 time=0
control_change channel=0 control=64 value=0 time=343
