note_on channel=0 note=41 velocity=50 time=0
note_on channel=0 note=41 velocity=0 time=80
note_on channel=0 note=53 velocity=46 time=0
note_on channel=0 note=53 velocity=0 time=60
note_on channel=0 note=53 velocity=54 time=20
note_on channel=0 note=53 velocity=0 time=80
note_on channel=0 note=65 velocity=46 time=0
note_on channel=0 note=65 velocity=0 time=60
note_on channel=0 note=65 velocity=50 time=20
note_on channel=0 note=65 velocity=0 time=80
note_on channel=0 note=77 velocity=46 time=0
note_on channel=0 note=77 velocity=0 time=60
note_on channel=0 note=77 velocity=59 time=0
note_on channel=0 note=77 velocity=0 time=80
note_on channel=0 note=89 velocity=66 time=0
note_on channel=0 note=29 velocity=30 time=40
note_on channel=0 note=41 velocity=36 time=0
note_on channel=0 note=77 velocity=51 time=0
note_on channel=0 note=77 velocity=0 time=0
note_on channel=0 note=89 velocity=0 time=0
note_on channel=0 note=29 velocity=0 time=0
note_on channel=0 note=41 velocity=0 time=0
note_on channel=0 note=89 velocity=50 time=0
note_on channel=0 note=77 velocity=42 time=0
note_on channel=0 note=77 velocity=0 time=360
note_on channel=0 note=89 velocity=0 time=0
note_on channel=0 note=41 velocity=27 time=0
note_on channel=0 note=53 velocity=32 time=0
note_on channel=0 note=53 velocity=0 time=240
note_on channel=0 note=41 velocity=0 time=0
note_on channel=0 note=85 velocity=39 time=335
note_on channel=0 note=89 velocity=47 time=0
note_on channel=0 note=80 velocity=39 time=0
note_on channel=0 note=77 velocity=39 time=0
note_on channel=0 note=77 velocity=0 time=324
note_on channel=0 note=85 velocity=0 time=0
note_on channel=0 note=89 velocity=0 time=0
note_on channel=0 note=80 velocity=0 time=0
note_on channel=0 note=37 velocity=28 time=0
note_on channel=0 note=49 velocity=34 time=0
note_on channel=0 note=49 velocity=0 time=240
note_on channel=0 note=37 velocity=0 time=0
note_on channel=0 note=89 velocity=40 time=226
note_on channel=0 note=82 velocity=34 time=0
note_on channel=0 note=77 velocity=34 time=0
note_on channel=0 note=85 velocity=34 time=0
note_on channel=0 note=85 velocity=0 time=169
note_on channel=0 note=89 velocity=0 time=0
note_on channel=0 note=82 velocity=0 time=0
note_on channel=0 note=77 velocity=0 time=0
note_on channel=0 note=34 velocity=26 time=0
note_on channel=0 note=46 velocity=31 time=0
note_on channel=0 note=46 velocity=0 time=240
note_on channel=0 note=34 velocity=0 time=0
note_on channel=0 note=82 velocity=32 time=120
note_on channel=0 note=78 velocity=32 time=0
note_on channel=0 note=90 velocity=38 time=0
note_on channel=0 note=85 velocity=32 time=0
note_on channel=0 note=30 velocity=20 time=0
note_on channel=0 note=42 velocity=24 time=0
note_on channel=0 note=42 velocity=0 time=0
note_on channel=0 note=78 velocity=0 time=0
note_on channel=0 note=90 velocity=0 time=0
note_on channel=0 note=82 velocity=0 time=0
note_on channel=0 note=30 velocity=0 time=0
note_on channel=0 note=85 velocity=0 time=0
note_on channel=0 note=73 velocity=37 time=0
note_on channel=0 note=73 velocity=0 time=0
note_on channel=0 note=78 velocity=41 time=0
note_on channel=0 note=78 velocity=0 time=120
note_on channel=0 note=73 velocity=36 time=0
note_on channel=0 note=73 velocity=0 time=120
note_on channel=0 note=78 velocity=42 time=0
note_on channel=0 note=78 velocity=0 time=120
note_on channel=0 note=73 velocity=35 time=0
note_on channel=0 note=73 velocity=0 time=120
note_on channel=0 note=78 velocity=42 time=0
note_on channel=0 note=78 velocity=0 time=0
note_on channel=0 note=70 velocity=38 time=0
note_on channel=0 note=70 velocity=0 time=0
note_on channel=0 note=75 velocity=48 time=0
note_on channel=0 note=66 velocity=35 time=14
note_on channel=0 note=66 velocity=0 time=120
note_on channel=0 note=71 velocity=41 time=0
note_on channel=0 note=71 velocity=0 time=120
note_on channel=0 note=66 velocity=35 time=0
note_on channel=0 note=66 velocity=0 time=120
note_on channel=0 note=71 velocity=43 time=0
note_on channel=0 note=71 velocity=0 time=120
note_on channel=0 note=66 velocity=37 time=0
note_on channel=0 note=66 velocity=0 time=120
note_on channel=0 note=71 velocity=42 time=0
note_on channel=0 note=71 velocity=0 time=0
note_on channel=0 note=63 velocity=39 time=0
note_on channel=0 note=63 velocity=0 time=0
note_on channel=0 note=75 velocity=0 time=0
note_on channel=0 note=75 velocity=47 time=0
note_on channel=0 note=65 velocity=33 time=0
note_on channel=0 note=65 velocity=0 time=48
note_on channel=0 note=68 velocity=32 time=0
note_on channel=0 note=53 velocity=29 time=0
note_on channel=0 note=53 velocity=0 time=120
note_on channel=0 note=68 velocity=0 time=0
note_on channel=0 note=75 velocity=0 time=0
note_on channel=0 note=73 velocity=43 time=0
note_on channel=0 note=65 velocity=30 time=0
note_on channel=0 note=56 velocity=32 time=0
note_on channel=0 note=56 velocity=0 time=54
note_on channel=0 note=65 velocity=0 time=0
note_on channel=0 note=68 velocity=37 time=0
note_on channel=0 note=53 velocity=27 time=0
note_on channel=0 note=53 velocity=0 time=120
note_on channel=0 note=68 velocity=0 time=0
note_on channel=0 note=65 velocity=35 time=0
note_on channel=0 note=56 velocity=32 time=0
note_on channel=0 note=56 velocity=0 time=77
note_on channel=0 note=65 velocity=0 time=0
note_on channel=0 note=68 velocity=38 time=0
note_on channel=0 note=53 velocity=26 time=0
note_on channel=0 note=53 velocity=0 time=120
note_on channel=0 note=68 velocity=0 time=0
note_on channel=0 note=73 velocity=0 time=0
note_on channel=0 note=65 velocity=28 time=0
note_on channel=0 note=71 velocity=39 time=0
note_on channel=0 note=56 velocity=31 time=0
note_on channel=0 note=56 velocity=0 time=77
note_on channel=0 note=65 velocity=0 time=0
note_on channel=0 note=68 velocity=27 time=0
note_on channel=0 note=49 velocity=25 time=0
note_on channel=0 note=49 velocity=0 time=0
note_on channel=0 note=68 velocity=0 time=0
note_on channel=0 note=71 velocity=0 time=0
note_on channel=0 note=66 velocity=38 time=0
note_on channel=0 note=70 velocity=45 time=0
note_on channel=0 note=54 velocity=38 time=0
note_on channel=0 note=54 velocity=0 time=0
note_on channel=0 note=70 velocity=0 time=0
note_on channel=0 note=66 velocity=0 time=0
note_on channel=0 note=69 velocity=38 time=0
note_on channel=0 note=66 velocity=38 time=0
note_on channel=0 note=75 velocity=45 time=0
note_on channel=0 note=48 velocity=30 time=0
note_on channel=0 note=48 velocity=0 time=0
note_on channel=0 note=69 velocity=0 time=0
note_on channel=0 note=66 velocity=0 time=0
note_on channel=0 note=75 velocity=0 time=0
note_on channel=0 note=65 velocity=34 time=0
note_on channel=0 note=68 velocity=40 time=0
note_on channel=0 note=49 velocity=28 time=0
note_on channel=0 note=49 velocity=0 time=0
note_on channel=0 note=42 velocity=28 time=0
note_on channel=0 note=68 velocity=0 time=0
note_on channel=0 note=65 velocity=0 time=0
note_on channel=0 note=66 velocity=29 time=0
note_on channel=0 note=70 velocity=35 time=0
note_on channel=0 note=70 velocity=0 time=0
note_on channel=0 note=66 velocity=0 time=0
note_on channel=0 note=42 velocity=0 time=0
note_on channel=0 note=78 velocity=39 time=0
note_on channel=0 note=82 velocity=47 time=0
note_on channel=0 note=70 velocity=39 time=0
note_on channel=0 note=73 velocity=39 time=0
note_on channel=0 note=73 velocity=0 time=154
note_on channel=0 note=78 velocity=0 time=0
note_on channel=0 note=82 velocity=0 time=0
note_on channel=0 note=70 velocity=0 time=0
note_on channel=0 note=54 velocity=31 time=0
note_on channel=0 note=42 velocity=26 time=0
note_on channel=0 note=42 velocity=0 time=85
note_on channel=0 note=54 velocity=0 time=0
note_on channel=0 note=78 velocity=34 time=120
note_on channel=0 note=70 velocity=34 time=0
note_on channel=0 note=75 velocity=34 time=0
note_on channel=0 note=82 velocity=41 time=0
note_on channel=0 note=82 velocity=0 time=0
note_on channel=0 note=78 velocity=0 time=0
note_on channel=0 note=70 velocity=0 time=0
note_on channel=0 note=75 velocity=0 time=0
note_on channel=0 note=51 velocity=32 time=0
note_on channel=0 note=39 velocity=27 time=0
note_on channel=0 note=39 velocity=0 time=131
note_on channel=0 note=51 velocity=0 time=0
note_on channel=0 note=78 velocity=32 time=0
note_on channel=0 note=87 velocity=39 time=0
note_on channel=0 note=75 velocity=32 time=0
note_on channel=0 note=35 velocity=27 time=0
note_on channel=0 note=47 velocity=32 time=0
note_on channel=0 note=47 velocity=0 time=0
note_on channel=0 note=75 velocity=0 time=0
note_on channel=0 note=78 velocity=0 time=0
note_on channel=0 note=87 velocity=0 time=0
note_on channel=0 note=35 velocity=0 time=0
note_on channel=0 note=54 velocity=30 time=0
note_on channel=0 note=54 velocity=0 time=120
note_on channel=0 note=56 velocity=31 time=0
note_on channel=0 note=56 velocity=0 time=120
note_on channel=0 note=58 velocity=31 time=0
note_on channel=0 note=58 velocity=0 time=0
note_on channel=0 note=59 velocity=32 time=0
note_on channel=0 note=59 velocity=0 time=120
note_on channel=0 note=61 velocity=33 time=0
note_on channel=0 note=61 velocity=0 time=48
note_on channel=0 note=63 velocity=34 time=0
note_on channel=0 note=63 velocity=0 time=120
note_on channel=0 note=64 velocity=35 time=0
note_on channel=0 note=64 velocity=0 time=115
note_on channel=0 note=63 velocity=36 time=0
note_on channel=0 note=63 velocity=0 time=43
note_on channel=0 note=66 velocity=35 time=0
note_on channel=0 note=59 velocity=33 time=0
note_on channel=0 note=66 velocity=0 time=118
note_on channel=0 note=68 velocity=38 time=2
note_on channel=0 note=66 velocity=39 time=0
note_on channel=0 note=59 velocity=0 time=2
note_on channel=0 note=70 velocity=41 time=108
note_on channel=0 note=64 velocity=39 time=0
note_on channel=0 note=66 velocity=0 time=12
note_on channel=0 note=68 velocity=0 time=0
note_on channel=0 note=71 velocity=45 time=58
note_on channel=0 note=63 velocity=40 time=0
note_on channel=0 note=70 velocity=0 time=12
note_on channel=0 note=64 velocity=0 time=0
note_on channel=0 note=73 velocity=48 time=108
note_on channel=0 note=61 velocity=41 time=0
note_on channel=0 note=71 velocity=0 time=12
note_on channel=0 note=63 velocity=0 time=0
note_on channel=0 note=75 velocity=52 time=108
note_on channel=0 note=59 velocity=42 time=0
note_on channel=0 note=73 velocity=0 time=12
note_on channel=0 note=61 velocity=0 time=0
note_on channel=0 note=76 velocity=52 time=108
note_on channel=0 note=58 velocity=43 time=0
note_on channel=0 note=75 velocity=0 time=12
note_on channel=0 note=59 velocity=0 time=0
note_on channel=0 note=75 velocity=55 time=108
note_on channel=0 note=59 velocity=43 time=0
note_on channel=0 note=76 velocity=0 time=12
note_on channel=0 note=58 velocity=0 time=0
note_on channel=0 note=71 velocity=52 time=108
note_on channel=0 note=54 velocity=38 time=0
note_on channel=0 note=75 velocity=0 time=12
note_on channel=0 note=59 velocity=0 time=0
note_on channel=0 note=71 velocity=0 time=108
note_on channel=0 note=54 velocity=0 time=0
note_on channel=0 note=78 velocity=57 time=0
note_on channel=0 note=56 velocity=44 time=0
note_on channel=0 note=76 velocity=55 time=120
note_on channel=0 note=58 velocity=44 time=0
note_on channel=0 note=56 velocity=0 time=12
note_on channel=0 note=78 velocity=0 time=0
note_on channel=0 note=75 velocity=53 time=108
note_on channel=0 note=59 velocity=43 time=0
note_on channel=0 note=76 velocity=0 time=12
note_on channel=0 note=58 velocity=0 time=0
note_on channel=0 note=73 velocity=51 time=108
note_on channel=0 note=61 velocity=43 time=0
note_on channel=0 note=75 velocity=0 time=12
note_on channel=0 note=59 velocity=0 time=0
note_on channel=0 note=71 velocity=49 time=108
note_on channel=0 note=63 velocity=42 time=0
note_on channel=0 note=73 velocity=0 time=12
note_on channel=0 note=61 velocity=0 time=0
note_on channel=0 note=70 velocity=47 time=0
note_on channel=0 note=64 velocity=42 time=0
note_on channel=0 note=71 velocity=0 time=12
note_on channel=0 note=63 velocity=0 time=0
note_on channel=0 note=71 velocity=47 time=0
note_on channel=0 note=63 velocity=42 time=0
note_on channel=0 note=70 velocity=0 time=12
note_on channel=0 note=64 velocity=0 time=0
note_on channel=0 note=71 velocity=0 time=0
note_on channel=0 note=63 velocity=0 time=0
note_on channel=0 note=78 velocity=47 time=0
note_on channel=0 note=75 velocity=42 time=0
note_on channel=0 note=78 velocity=0 time=118
note_on channel=0 note=80 velocity=47 time=2
note_on channel=0 note=78 velocity=39 time=0
note_on channel=0 note=75 velocity=0 time=12
note_on channel=0 note=82 velocity=49 time=108
note_on channel=0 note=76 velocity=40 time=0
note_on channel=0 note=78 velocity=0 time=12
note_on channel=0 note=80 velocity=0 time=0
note_on channel=0 note=83 velocity=50 time=108
note_on channel=0 note=75 velocity=42 time=0
note_on channel=0 note=82 velocity=0 time=12
note_on channel=0 note=76 velocity=0 time=0
note_on channel=0 note=85 velocity=52 time=108
note_on channel=0 note=73 velocity=44 time=0
note_on channel=0 note=83 velocity=0 time=12
note_on channel=0 note=75 velocity=0 time=0
note_on channel=0 note=87 velocity=53 time=108
note_on channel=0 note=71 velocity=45 time=0
note_on channel=0 note=85 velocity=0 time=12
note_on channel=0 note=73 velocity=0 time=0
note_on channel=0 note=88 velocity=52 time=0
note_on channel=0 note=70 velocity=47 time=0
note_on channel=0 note=87 velocity=0 time=12
note_on channel=0 note=71 velocity=0 time=0
note_on channel=0 note=87 velocity=59 time=0
note_on channel=0 note=71 velocity=50 time=0
note_on channel=0 note=88 velocity=0 time=12
note_on channel=0 note=70 velocity=0 time=0
note_on channel=0 note=85 velocity=47 time=108
note_on channel=0 note=70 velocity=42 time=0
note_on channel=0 note=87 velocity=0 time=12
note_on channel=0 note=71 velocity=0 time=0
note_on channel=0 note=83 velocity=47 time=108
note_on channel=0 note=75 velocity=42 time=0
note_on channel=0 note=85 velocity=0 time=12
note_on channel=0 note=70 velocity=0 time=0
note_on channel=0 note=82 velocity=47 time=108
note_on channel=0 note=73 velocity=42 time=0
note_on channel=0 note=83 velocity=0 time=12
note_on channel=0 note=75 velocity=0 time=0
note_on channel=0 note=80 velocity=54 time=108
note_on channel=0 note=71 velocity=49 time=0
note_on channel=0 note=82 velocity=0 time=12
note_on channel=0 note=73 velocity=0 time=0
note_on channel=0 note=78 velocity=47 time=108
note_on channel=0 note=70 velocity=37 time=0
note_on channel=0 note=80 velocity=0 time=12
note_on channel=0 note=71 velocity=0 time=0
note_on channel=0 note=76 velocity=47 time=108
note_on channel=0 note=68 velocity=37 time=0
note_on channel=0 note=78 velocity=0 time=12
note_on channel=0 note=70 velocity=0 time=0
note_on channel=0 note=75 velocity=47 time=0
note_on channel=0 note=66 velocity=37 time=0
note_on channel=0 note=76 velocity=0 time=12
note_on channel=0 note=68 velocity=0 time=0
note_on channel=0 note=73 velocity=51 time=0
note_on channel=0 note=64 velocity=46 time=0
note_on channel=0 note=75 velocity=0 time=12
note_on channel=0 note=66 velocity=0 time=0
note_on channel=0 note=71 velocity=47 time=108
note_on channel=0 note=63 velocity=42 time=0
note_on channel=0 note=73 velocity=0 time=12
note_on channel=0 note=64 velocity=0 time=0
note_on channel=0 note=70 velocity=47 time=108
note_on channel=0 note=61 velocity=42 time=0
note_on channel=0 note=71 velocity=0 time=12
note_on channel=0 note=63 velocity=0 time=0
note_on channel=0 note=68 velocity=47 time=0
note_on channel=0 note=59 velocity=42 time=0
note_on channel=0 note=70 velocity=0 time=12
note_on channel=0 note=61 velocity=0 time=0
note_on channel=0 note=66 velocity=51 time=0
note_on channel=0 note=58 velocity=42 time=0
note_on channel=0 note=68 velocity=0 time=12
note_on channel=0 note=59 velocity=0 time=0
note_on channel=0 note=66 velocity=0 time=35
note_on channel=0 note=58 velocity=0 time=0
note_on channel=0 note=76 velocity=54 time=0
note_on channel=0 note=61 velocity=45 time=0
note_on channel=0 note=61 velocity=0 time=120
note_on channel=0 note=76 velocity=0 time=0
note_on channel=0 note=75 velocity=57 time=0
note_on channel=0 note=59 velocity=47 time=0
note_on channel=0 note=59 velocity=0 time=14
note_on channel=0 note=75 velocity=0 time=0
note_on channel=0 note=80 velocity=60 time=0
note_on channel=0 note=64 velocity=50 time=0
note_on channel=0 note=64 velocity=0 time=0
note_on channel=0 note=80 velocity=0 time=0
note_on channel=0 note=78 velocity=60 time=0
note_on channel=0 note=63 velocity=50 time=0
note_on channel=0 note=63 velocity=0 time=5
note_on channel=0 note=78 velocity=0 time=0
note_on channel=0 note=83 velocity=45 time=0
note_on channel=0 note=62 velocity=39 time=0
note_on channel=0 note=62 velocity=0 time=10
note_on channel=0 note=83 velocity=0 time=0
note_on channel=0 note=82 velocity=52 time=0
note_on channel=0 note=61 velocity=47 time=0
note_on channel=0 note=61 velocity=0 time=14
note_on channel=0 note=82 velocity=0 time=0
note_on channel=0 note=88 velocity=49 time=0
note_on channel=0 note=54 velocity=40 time=0
note_on channel=0 note=54 velocity=0 time=0
note_on channel=0 note=88 velocity=0 time=0
note_on channel=0 note=76 velocity=41 time=0
note_on channel=0 note=82 velocity=41 time=0
note_on channel=0 note=88 velocity=49 time=0
note_on channel=0 note=61 velocity=34 time=0
note_on channel=0 note=66 velocity=40 time=0
note_on channel=0 note=54 velocity=34 time=0
note_on channel=0 note=54 velocity=0 time=0
note_on channel=0 note=82 velocity=0 time=0
note_on channel=0 note=88 velocity=0 time=0
note_on channel=0 note=76 velocity=0 time=0
note_on channel=0 note=66 velocity=0 time=0
note_on channel=0 note=61 velocity=0 time=0
note_on channel=0 note=83 velocity=41 time=0
note_on channel=0 note=87 velocity=49 time=0
note_on channel=0 note=78 velocity=41 time=0
note_on channel=0 note=75 velocity=41 time=0
note_on channel=0 note=75 velocity=0 time=257
note_on channel=0 note=83 velocity=0 time=0
note_on channel=0 note=87 velocity=0 time=0
note_on channel=0 note=78 velocity=0 time=0
note_on channel=0 note=47 velocity=32 time=0
note_on channel=0 note=35 velocity=32 time=0
note_on channel=0 note=35 velocity=0 time=80
note_on channel=0 note=47 velocity=0 time=0
note_on channel=0 note=75 velocity=49 time=0
note_on channel=0 note=83 velocity=49 time=0
note_on channel=0 note=87 velocity=49 time=0
note_on channel=0 note=80 velocity=49 time=0
note_on channel=0 note=32 velocity=82 time=0
note_on channel=0 note=44 velocity=82 time=0
note_on channel=0 note=80 velocity=0 time=0
note_on channel=0 note=87 velocity=0 time=0
note_on channel=0 note=75 velocity=0 time=0
note_on channel=0 note=83 velocity=0 time=0
note_on channel=0 note=75 velocity=37 time=0
note_on channel=0 note=75 velocity=0 time=0
note_on channel=0 note=44 velocity=0 time=0
note_on channel=0 note=32 velocity=0 time=0
note_on channel=0 note=68 velocity=37 time=0
note_on channel=0 note=68 velocity=0 time=120
note_on channel=0 note=75 velocity=37 time=0
note_on channel=0 note=75 velocity=0 time=0
note_on channel=0 note=76 velocity=46 time=0
note_on channel=0 note=76 velocity=0 time=120
note_on channel=0 note=75 velocity=40 time=0
note_on channel=0 note=75 velocity=0 time=120
note_on channel=0 note=68 velocity=42 time=0
note_on channel=0 note=68 velocity=0 time=0
note_on channel=0 note=75 velocity=45 time=0
note_on channel=0 note=75 velocity=0 time=0
note_on channel=0 note=76 velocity=49 time=0
note_on channel=0 note=68 velocity=39 time=120
note_on channel=0 note=68 velocity=0 time=28
note_on channel=0 note=61 velocity=41 time=0
note_on channel=0 note=61 velocity=0 time=120
note_on channel=0 note=68 velocity=37 time=0
note_on channel=0 note=68 velocity=0 time=120
note_on channel=0 note=70 velocity=42 time=0
note_on channel=0 note=70 velocity=0 time=108
note_on channel=0 note=68 velocity=34 time=0
note_on channel=0 note=68 velocity=0 time=120
note_on channel=0 note=61 velocity=41 time=0
note_on channel=0 note=61 velocity=0 time=63
note_on channel=0 note=68 velocity=34 time=0
note_on channel=0 note=68 velocity=0 time=120
note_on channel=0 note=67 velocity=45 time=0
note_on channel=0 note=76 velocity=0 time=34
note_on channel=0 note=70 velocity=41 time=0
note_on channel=0 note=70 velocity=0 time=120
note_on channel=0 note=75 velocity=46 time=0
note_on channel=0 note=75 velocity=0 time=116
note_on channel=0 note=74 velocity=42 time=0
note_on channel=0 note=74 velocity=0 time=120
note_on channel=0 note=75 velocity=44 time=0
note_on channel=0 note=75 velocity=0 time=28
note_on channel=0 note=70 velocity=37 time=0
note_on channel=0 note=70 velocity=0 time=120
note_on channel=0 note=67 velocity=0 time=0
note_on channel=0 note=75 velocity=43 time=0
note_on channel=0 note=67 velocity=52 time=0
note_on channel=0 note=75 velocity=0 time=117
note_on channel=0 note=73 velocity=37 time=0
note_on channel=0 note=73 velocity=0 time=120
note_on channel=0 note=72 velocity=52 time=0
note_on channel=0 note=72 velocity=0 time=40
note_on channel=0 note=75 velocity=46 time=0
note_on channel=0 note=75 velocity=0 time=120
note_on channel=0 note=67 velocity=0 time=0
note_on channel=0 note=72 velocity=55 time=0
note_on channel=0 note=67 velocity=49 time=0
note_on channel=0 note=72 velocity=0 time=40
note_on channel=0 note=80 velocity=47 time=0
note_on channel=0 note=80 velocity=0 time=120
note_on channel=0 note=67 velocity=0 time=0
note_on channel=0 note=73 velocity=60 time=0
note_on channel=0 note=64 velocity=57 time=0
note_on channel=0 note=73 velocity=0 time=28
note_on channel=0 note=80 velocity=54 time=0
note_on channel=0 note=80 velocity=0 time=120
note_on channel=0 note=64 velocity=0 time=0
note_on channel=0 note=75 velocity=63 time=0
note_on channel=0 note=63 velocity=52 time=0
note_on channel=0 note=75 velocity=0 time=0
note_on channel=0 note=80 velocity=58 time=0
note_on channel=0 note=80 velocity=0 time=0
note_on channel=0 note=63 velocity=0 time=0
note_on channel=0 note=76 velocity=70 time=0
note_on channel=0 note=61 velocity=60 time=0
note_on channel=0 note=61 velocity=0 time=40
note_on channel=0 note=56 velocity=37 time=0
note_on channel=0 note=56 velocity=0 time=120
note_on channel=0 note=49 velocity=42 time=0
note_on channel=0 note=49 velocity=0 time=120
note_on channel=0 note=56 velocity=37 time=0
note_on channel=0 note=56 velocity=0 time=120
note_on channel=0 note=76 velocity=0 time=0
note_on channel=0 note=64 velocity=53 time=0
note_on channel=0 note=57 velocity=44 time=0
note_on channel=0 note=57 velocity=0 time=111
note_on channel=0 note=56 velocity=37 time=0
note_on channel=0 note=56 velocity=0 time=120
note_on channel=0 note=49 velocity=37 time=0
note_on channel=0 note=49 velocity=0 time=97
note_on channel=0 note=56 velocity=37 time=0
note_on channel=0 note=56 velocity=0 time=120
note_on channel=0 note=57 velocity=46 time=0
note_on channel=0 note=64 velocity=0 time=40
note_on channel=0 note=61 velocity=42 time=0
note_on channel=0 note=61 velocity=0 time=120
note_on channel=0 note=66 velocity=50 time=0
note_on channel=0 note=66 velocity=0 time=114
note_on channel=0 note=65 velocity=37 time=0
note_on channel=0 note=65 velocity=0 time=120
note_on channel=0 note=66 velocity=51 time=0
note_on channel=0 note=66 velocity=0 time=63
note_on channel=0 note=61 velocity=43 time=0
note_on channel=0 note=61 velocity=0 time=120
note_on channel=0 note=57 velocity=0 time=0
note_on channel=0 note=66 velocity=51 time=0
note_on channel=0 note=56 velocity=40 time=0
note_on channel=0 note=66 velocity=0 time=0
note_on channel=0 note=64 velocity=44 time=0
note_on channel=0 note=64 velocity=0 time=0
note_on channel=0 note=56 velocity=0 time=0
note_on channel=0 note=63 velocity=54 time=0
note_on channel=0 note=58 velocity=57 time=0
note_on channel=0 note=55 velocity=57 time=0
note_on channel=0 note=58 velocity=0 time=92
note_on channel=0 note=61 velocity=44 time=0
note_on channel=0 note=61 velocity=0 time=0
note_on channel=0 note=63 velocity=0 time=0
note_on channel=0 note=75 velocity=60 time=0
note_on channel=0 note=58 velocity=52 time=0
note_on channel=0 note=58 velocity=0 time=21
note_on channel=0 note=63 velocity=44 time=0
note_on channel=0 note=63 velocity=0 time=120
note_on channel=0 note=64 velocity=54 time=0
note_on channel=0 note=64 velocity=0 time=108
note_on channel=0 note=63 velocity=42 time=0
note_on channel=0 note=63 velocity=0 time=120
note_on channel=0 note=75 velocity=0 time=0
note_on channel=0 note=73 velocity=52 time=0
note_on channel=0 note=58 velocity=46 time=0
note_on channel=0 note=58 velocity=0 time=70
note_on channel=0 note=63 velocity=39 time=0
note_on channel=0 note=63 velocity=0 time=120
note_on channel=0 note=73 velocity=0 time=0
note_on channel=0 note=55 velocity=0 time=0
note_on channel=0 note=71 velocity=63 time=0
note_on channel=0 note=56 velocity=55 time=0
note_on channel=0 note=71 velocity=0 time=21
note_on channel=0 note=75 velocity=53 time=0
note_on channel=0 note=59 velocity=41 time=0
note_on channel=0 note=59 velocity=0 time=120
note_on channel=0 note=75 velocity=0 time=0
note_on channel=0 note=56 velocity=0 time=0
note_on channel=0 note=71 velocity=62 time=0
note_on channel=0 note=56 velocity=42 time=0
note_on channel=0 note=56 velocity=0 time=0
note_on channel=0 note=71 velocity=0 time=0
note_on channel=0 note=75 velocity=53 time=0
note_on channel=0 note=59 velocity=42 time=0
note_on channel=0 note=59 velocity=0 time=0
note_on channel=0 note=75 velocity=0 time=0
note_on channel=0 note=76 velocity=63 time=0
note_on channel=0 note=83 velocity=63 time=0
note_on channel=0 note=61 velocity=53 time=0
note_on channel=0 note=61 velocity=0 time=114
note_on channel=0 note=76 velocity=0 time=0
note_on channel=0 note=75 velocity=60 time=0
note_on channel=0 note=59 velocity=37 time=0
note_on channel=0 note=59 velocity=0 time=120
note_on channel=0 note=75 velocity=0 time=0
note_on channel=0 note=68 velocity=65 time=0
note_on channel=0 note=56 velocity=45 time=0
note_on channel=0 note=47 velocity=38 time=0
note_on channel=0 note=56 velocity=0 time=70
note_on channel=0 note=68 velocity=0 time=0
note_on channel=0 note=71 velocity=60 time=0
note_on channel=0 note=59 velocity=37 time=0
note_on channel=0 note=59 velocity=0 time=0
note_on channel=0 note=71 velocity=0 time=0
note_on channel=0 note=47 velocity=0 time=0
note_on channel=0 note=76 velocity=58 time=0
note_on channel=0 note=52 velocity=49 time=0
note_on channel=0 note=49 velocity=41 time=0
note_on channel=0 note=83 velocity=0 time=57
note_on channel=0 note=80 velocity=59 time=0
note_on channel=0 note=80 velocity=0 time=120
note_on channel=0 note=52 velocity=0 time=0
note_on channel=0 note=81 velocity=65 time=0
note_on channel=0 note=61 velocity=57 time=0
note_on channel=0 note=81 velocity=0 time=0
note_on channel=0 note=85 velocity=59 time=0
note_on channel=0 note=85 velocity=0 time=0
note_on channel=0 note=76 velocity=0 time=0
note_on channel=0 note=69 velocity=58 time=0
note_on channel=0 note=76 velocity=70 time=0
note_on channel=0 note=76 velocity=0 time=23
note_on channel=0 note=81 velocity=59 time=0
note_on channel=0 note=81 velocity=0 time=120
note_on channel=0 note=69 velocity=0 time=0
note_on channel=0 note=49 velocity=0 time=0
note_on channel=0 note=61 velocity=0 time=0
note_on channel=0 note=71 velocity=62 time=0
note_on channel=0 note=75 velocity=73 time=0
note_on channel=0 note=59 velocity=46 time=0
note_on channel=0 note=51 velocity=39 time=0
note_on channel=0 note=75 velocity=0 time=0
note_on channel=0 note=80 velocity=71 time=0
note_on channel=0 note=80 velocity=0 time=0
note_on channel=0 note=51 velocity=0 time=0
note_on channel=0 note=59 velocity=0 time=0
note_on channel=0 note=71 velocity=0 time=0
note_on channel=0 note=75 velocity=81 time=0
note_on channel=0 note=71 velocity=69 time=0
note_on channel=0 note=59 velocity=57 time=0
note_on channel=0 note=51 velocity=48 time=0
note_on channel=0 note=75 velocity=0 time=40
note_on channel=0 note=80 velocity=73 time=0
note_on channel=0 note=80 velocity=0 time=120
note_on channel=0 note=71 velocity=0 time=0
note_on channel=0 note=59 velocity=0 time=0
note_on channel=0 note=75 velocity=81 time=0
note_on channel=0 note=73 velocity=69 time=0
note_on channel=0 note=58 velocity=48 time=0
note_on channel=0 note=75 velocity=0 time=0
note_on channel=0 note=79 velocity=77 time=0
note_on channel=0 note=79 velocity=0 time=17
note_on channel=0 note=58 velocity=0 time=0
note_on channel=0 note=73 velocity=0 time=0
note_on channel=0 note=75 velocity=81 time=0
note_on channel=0 note=71 velocity=69 time=0
note_on channel=0 note=56 velocity=55 time=0
note_on channel=0 note=75 velocity=0 time=17
note_on channel=0 note=80 velocity=74 time=0
note_on channel=0 note=80 velocity=0 time=17
note_on channel=0 note=56 velocity=0 time=0
note_on channel=0 note=71 velocity=0 time=0
note_on channel=0 note=51 velocity=0 time=0
note_on channel=0 note=70 velocity=69 time=0
note_on channel=0 note=75 velocity=81 time=0
note_on channel=0 note=51 velocity=41 time=0
note_on channel=0 note=55 velocity=49 time=0
note_on channel=0 note=75 velocity=0 time=17
note_on channel=0 note=82 velocity=72 time=0
note_on channel=0 note=82 velocity=0 time=0
note_on channel=0 note=55 velocity=0 time=0
note_on channel=0 note=51 velocity=0 time=0
note_on channel=0 note=70 velocity=0 time=0
note_on channel=0 note=80 velocity=32 time=0
note_on channel=0 note=75 velocity=32 time=0
note_on channel=0 note=83 velocity=38 time=0
note_on channel=0 note=71 velocity=32 time=0
note_on channel=0 note=71 velocity=0 time=0
note_on channel=0 note=80 velocity=0 time=0
note_on channel=0 note=75 velocity=0 time=0
note_on channel=0 note=83 velocity=0 time=0
note_on channel=0 note=44 velocity=20 time=0
note_on channel=0 note=56 velocity=24 time=0
note_on channel=0 note=56 velocity=0 time=0
note_on channel=0 note=44 velocity=0 time=0
note_on channel=0 note=80 velocity=32 time=0
note_on channel=0 note=83 velocity=38 time=0
note_on channel=0 note=76 velocity=32 time=0
note_on channel=0 note=71 velocity=32 time=0
note_on channel=0 note=71 velocity=0 time=60
note_on channel=0 note=80 velocity=0 time=0
note_on channel=0 note=83 velocity=0 time=0
note_on channel=0 note=76 velocity=0 time=0
note_on channel=0 note=40 velocity=20 time=0
note_on channel=0 note=52 velocity=24 time=0
note_on channel=0 note=52 velocity=0 time=0
note_on channel=0 note=40 velocity=0 time=0
note_on channel=0 note=85 velocity=38 time=0
note_on channel=0 note=76 velocity=32 time=0
note_on channel=0 note=73 velocity=32 time=0
note_on channel=0 note=80 velocity=32 time=0
note_on channel=0 note=80 velocity=0 time=0
note_on channel=0 note=85 velocity=0 time=0
note_on channel=0 note=76 velocity=0 time=0
note_on channel=0 note=73 velocity=0 time=0
note_on channel=0 note=49 velocity=24 time=0
note_on channel=0 note=37 velocity=20 time=0
note_on channel=0 note=37 velocity=0 time=0
note_on channel=0 note=49 velocity=0 time=0
note_on channel=0 note=76 velocity=32 time=0
note_on channel=0 note=73 velocity=32 time=0
note_on channel=0 note=85 velocity=38 time=0
note_on channel=0 note=81 velocity=32 time=0
note_on channel=0 note=33 velocity=38 time=80
note_on channel=0 note=33 velocity=0 time=80
note_on channel=0 note=45 velocity=32 time=0
note_on channel=0 note=45 velocity=0 time=60
note_on channel=0 note=81 velocity=0 time=20
note_on channel=0 note=76 velocity=0 time=0
note_on channel=0 note=73 velocity=0 time=0
note_on channel=0 note=85 velocity=0 time=0
note_on channel=0 note=45 velocity=41 time=0
note_on channel=0 note=45 velocity=0 time=80
note_on channel=0 note=57 velocity=32 time=0
note_on channel=0 note=57 velocity=0 time=60
note_on channel=0 note=57 velocity=32 time=20
note_on channel=0 note=57 velocity=0 time=80
note_on channel=0 note=69 velocity=37 time=0
note_on channel=0 note=69 velocity=0 time=60
note_on channel=0 note=69 velocity=32 time=20
note_on channel=0 note=69 velocity=0 time=80
note_on channel=0 note=81 velocity=41 time=0
note_on channel=0 note=81 velocity=0 time=80
note_on channel=0 note=81 velocity=46 time=0
note_on channel=0 note=93 velocity=45 time=80
note_on channel=0 note=45 velocity=32 time=80
note_on channel=0 note=33 velocity=27 time=0
note_on channel=0 note=33 velocity=0 time=80
note_on channel=0 note=45 velocity=0 time=0
note_on channel=0 note=47 velocity=39 time=0
note_on channel=0 note=33 velocity=33 time=0
note_on channel=0 note=38 velocity=33 time=0
note_on channel=0 note=40 velocity=33 time=0
note_on channel=0 note=93 velocity=0 time=305
note_on channel=0 note=81 velocity=0 time=0
note_on channel=0 note=92 velocity=61 time=0
note_on channel=0 note=80 velocity=51 time=0
note_on channel=0 note=80 velocity=0 time=160
note_on channel=0 note=92 velocity=0 time=0
note_on channel=0 note=88 velocity=58 time=0
note_on channel=0 note=76 velocity=49 time=0
note_on channel=0 note=76 velocity=0 time=320
note_on channel=0 note=88 velocity=0 time=0
note_on channel=0 note=75 velocity=46 time=0
note_on channel=0 note=87 velocity=55 time=0
note_on channel=0 note=87 velocity=0 time=320
note_on channel=0 note=75 velocity=0 time=0
note_on channel=0 note=74 velocity=45 time=0
note_on channel=0 note=86 velocity=53 time=0
note_on channel=0 note=86 velocity=0 time=320
note_on channel=0 note=74 velocity=0 time=0
note_on channel=0 note=83 velocity=50 time=0
note_on channel=0 note=71 velocity=42 time=0
note_on channel=0 note=71 velocity=0 time=9
note_on channel=0 note=83 velocity=0 time=0
note_on channel=0 note=80 velocity=51 time=0
note_on channel=0 note=80 velocity=0 time=1
note_on channel=0 note=76 velocity=45 time=0
note_on channel=0 note=76 velocity=0 time=17
note_on channel=0 note=75 velocity=45 time=0
note_on channel=0 note=75 velocity=0 time=33
note_on channel=0 note=74 velocity=45 time=0
note_on channel=0 note=74 velocity=0 time=49
note_on channel=0 note=71 velocity=45 time=0
note_on channel=0 note=71 velocity=0 time=65
note_on channel=0 note=68 velocity=45 time=0
note_on channel=0 note=68 velocity=0 time=57
note_on channel=0 note=64 velocity=48 time=0
note_on channel=0 note=64 velocity=0 time=1
note_on channel=0 note=63 velocity=42 time=0
note_on channel=0 note=63 velocity=0 time=17
note_on channel=0 note=62 velocity=42 time=0
note_on channel=0 note=62 velocity=0 time=33
note_on channel=0 note=59 velocity=42 time=0
note_on channel=0 note=59 velocity=0 time=120
note_on channel=0 note=56 velocity=36 time=0
note_on channel=0 note=56 velocity=0 time=120
note_on channel=0 note=52 velocity=37 time=0
note_on channel=0 note=52 velocity=0 time=120
note_on channel=0 note=51 velocity=37 time=0
note_on channel=0 note=51 velocity=0 time=0
note_on channel=0 note=50 velocity=48 time=0
note_on channel=0 note=52 velocity=39 time=57
note_on channel=0 note=50 velocity=0 time=12
note_on channel=0 note=50 velocity=48 time=45
note_on channel=0 note=52 velocity=0 time=12
note_on channel=0 note=52 velocity=41 time=33
note_on channel=0 note=50 velocity=0 time=12
note_on channel=0 note=50 velocity=40 time=21
note_on channel=0 note=52 velocity=0 time=12
note_on channel=0 note=52 velocity=34 time=9
note_on channel=0 note=50 velocity=0 time=12
note_on channel=0 note=50 velocity=40 time=21
note_on channel=0 note=52 velocity=0 time=12
note_on channel=0 note=52 velocity=35 time=9
note_on channel=0 note=50 velocity=0 time=12
note_on channel=0 note=50 velocity=40 time=48
note_on channel=0 note=52 velocity=0 time=9
note_on channel=0 note=52 velocity=34 time=48
note_on channel=0 note=50 velocity=0 time=12
note_on channel=0 note=50 velocity=40 time=45
note_on channel=0 note=52 velocity=0 time=9
note_on channel=0 note=52 velocity=35 time=48
note_on channel=0 note=50 velocity=0 time=12
note_on channel=0 note=50 velocity=40 time=45
note_on channel=0 note=52 velocity=0 time=12
note_on channel=0 note=52 velocity=34 time=33
note_on channel=0 note=50 velocity=0 time=12
note_on channel=0 note=50 velocity=40 time=21
note_on channel=0 note=52 velocity=0 time=12
note_on channel=0 note=52 velocity=35 time=33
note_on channel=0 note=50 velocity=0 time=12
note_on channel=0 note=50 velocity=40 time=21
note_on channel=0 note=52 velocity=0 time=12
note_on channel=0 note=52 velocity=34 time=33
note_on channel=0 note=50 velocity=0 time=12
note_on channel=0 note=50 velocity=40 time=21
note_on channel=0 note=52 velocity=0 time=12
note_on channel=0 note=52 velocity=34 time=33
note_on channel=0 note=50 velocity=0 time=12
note_on channel=0 note=50 velocity=40 time=45
note_on channel=0 note=52 velocity=0 time=12
note_on channel=0 note=52 velocity=34 time=33
note_on channel=0 note=50 velocity=0 time=12
note_on channel=0 note=50 velocity=40 time=45
note_on channel=0 note=52 velocity=0 time=9
note_on channel=0 note=52 velocity=34 time=9
note_on channel=0 note=50 velocity=0 time=12
note_on channel=0 note=52 velocity=0 time=48
note_on channel=0 note=51 velocity=45 time=0
note_on channel=0 note=52 velocity=38 time=9
note_on channel=0 note=51 velocity=0 time=12
note_on channel=0 note=51 velocity=45 time=21
note_on channel=0 note=52 velocity=0 time=12
note_on channel=0 note=52 velocity=41 time=33
note_on channel=0 note=51 velocity=0 time=12
note_on channel=0 note=51 velocity=40 time=45
note_on channel=0 note=52 velocity=0 time=9
note_on channel=0 note=52 velocity=34 time=9
note_on channel=0 note=51 velocity=0 time=12
note_on channel=0 note=51 velocity=40 time=21
note_on channel=0 note=52 velocity=0 time=12
note_on channel=0 note=52 velocity=35 time=33
note_on channel=0 note=51 velocity=0 time=12
note_on channel=0 note=51 velocity=40 time=45
note_on channel=0 note=52 velocity=0 time=12
note_on channel=0 note=52 velocity=35 time=9
note_on channel=0 note=51 velocity=0 time=12
note_on channel=0 note=51 velocity=40 time=48
note_on channel=0 note=52 velocity=0 time=9
note_on channel=0 note=52 velocity=35 time=48
note_on channel=0 note=51 velocity=0 time=12
note_on channel=0 note=51 velocity=40 time=14
note_on channel=0 note=52 velocity=0 time=5
note_on channel=0 note=51 velocity=0 time=27
note_on channel=0 note=52 velocity=35 time=8
note_on channel=0 note=51 velocity=40 time=0
note_on channel=0 note=52 velocity=0 time=16
note_on channel=0 note=52 velocity=42 time=3
note_on channel=0 note=51 velocity=0 time=13
note_on channel=0 note=52 velocity=0 time=44
note_on channel=0 note=54 velocity=35 time=0
note_on channel=0 note=52 velocity=44 time=60
note_on channel=0 note=54 velocity=0 time=9
note_on channel=0 note=54 velocity=38 time=48
note_on channel=0 note=52 velocity=0 time=12
note_on channel=0 note=52 velocity=40 time=48
note_on channel=0 note=54 velocity=0 time=9
note_on channel=0 note=54 velocity=35 time=48
note_on channel=0 note=52 velocity=0 time=12
note_on channel=0 note=52 velocity=40 time=48
note_on channel=0 note=54 velocity=0 time=9
note_on channel=0 note=54 velocity=35 time=48
note_on channel=0 note=52 velocity=0 time=12
note_on channel=0 note=52 velocity=40 time=48
note_on channel=0 note=54 velocity=0 time=9
note_on channel=0 note=54 velocity=35 time=48
note_on channel=0 note=52 velocity=0 time=12
note_on channel=0 note=52 velocity=40 time=48
note_on channel=0 note=54 velocity=0 time=9
note_on channel=0 note=54 velocity=35 time=48
note_on channel=0 note=52 velocity=0 time=12
note_on channel=0 note=52 velocity=40 time=48
note_on channel=0 note=54 velocity=0 time=9
note_on channel=0 note=54 velocity=35 time=48
note_on channel=0 note=52 velocity=0 time=12
note_on channel=0 note=52 velocity=40 time=48
note_on channel=0 note=54 velocity=0 time=9
note_on channel=0 note=54 velocity=36 time=48
note_on channel=0 note=52 velocity=0 time=12
note_on channel=0 note=52 velocity=40 time=48
note_on channel=0 note=54 velocity=0 time=9
note_on channel=0 note=54 velocity=35 time=48
note_on channel=0 note=52 velocity=0 time=12
note_on channel=0 note=52 velocity=40 time=48
note_on channel=0 note=54 velocity=0 time=9
note_on channel=0 note=54 velocity=36 time=48
note_on channel=0 note=52 velocity=0 time=12
note_on channel=0 note=52 velocity=40 time=21
note_on channel=0 note=54 velocity=0 time=12
note_on channel=0 note=51 velocity=37 time=20
note_on channel=0 note=52 velocity=0 time=16
note_on channel=0 note=52 velocity=37 time=64
note_on channel=0 note=51 velocity=0 time=16
note_on channel=0 note=40 velocity=0 time=0
note_on channel=0 note=38 velocity=0 time=0
note_on channel=0 note=33 velocity=0 time=0
note_on channel=0 note=52 velocity=0 time=0
note_on channel=0 note=47 velocity=0 time=0
note_on channel=0 note=52 velocity=41 time=0
note_on channel=0 note=49 velocity=34 time=0
note_on channel=0 note=45 velocity=26 time=240
note_on channel=0 note=33 velocity=22 time=0
note_on channel=0 note=33 velocity=0 time=0
note_on channel=0 note=52 velocity=0 time=0
note_on channel=0 note=49 velocity=0 time=0
note_on channel=0 note=45 velocity=0 time=0
note_on channel=0 note=52 velocity=41 time=0
note_on channel=0 note=49 velocity=34 time=0
note_on channel=0 note=49 velocity=0 time=30
note_on channel=0 note=52 velocity=0 time=0
note_on channel=0 note=45 velocity=28 time=0
note_on channel=0 note=33 velocity=23 time=0
note_on channel=0 note=33 velocity=0 time=60
note_on channel=0 note=45 velocity=0 time=0
note_on channel=0 note=49 velocity=34 time=0
note_on channel=0 note=52 velocity=41 time=0
note_on channel=0 note=52 velocity=0 time=0
note_on channel=0 note=49 velocity=0 time=0
note_on channel=0 note=52 velocity=41 time=0
note_on channel=0 note=49 velocity=34 time=0
note_on channel=0 note=33 velocity=22 time=240
note_on channel=0 note=45 velocity=26 time=0
note_on channel=0 note=45 velocity=0 time=0
note_on channel=0 note=52 velocity=0 time=0
note_on channel=0 note=49 velocity=0 time=0
note_on channel=0 note=33 velocity=0 time=0
note_on channel=0 note=49 velocity=34 time=0
note_on channel=0 note=57 velocity=41 time=0
note_on channel=0 note=57 velocity=0 time=30
note_on channel=0 note=49 velocity=0 time=0
note_on channel=0 note=42 velocity=28 time=0
note_on channel=0 note=30 velocity=23 time=0
note_on channel=0 note=30 velocity=0 time=60
note_on channel=0 note=42 velocity=0 time=0
note_on channel=0 note=54 velocity=34 time=0
note_on channel=0 note=49 velocity=34 time=0
note_on channel=0 note=57 velocity=41 time=0
note_on channel=0 note=57 velocity=0 time=0
note_on channel=0 note=49 velocity=0 time=0
note_on channel=0 note=54 velocity=0 time=0
note_on channel=0 note=57 velocity=41 time=0
note_on channel=0 note=54 velocity=34 time=0
note_on channel=0 note=38 velocity=22 time=240
note_on channel=0 note=50 velocity=26 time=0
note_on channel=0 note=50 velocity=0 time=0
note_on channel=0 note=57 velocity=0 time=0
note_on channel=0 note=54 velocity=0 time=0
note_on channel=0 note=38 velocity=0 time=0
note_on channel=0 note=57 velocity=41 time=0
note_on channel=0 note=54 velocity=34 time=0
note_on channel=0 note=54 velocity=0 time=30
note_on channel=0 note=57 velocity=0 time=0
note_on channel=0 note=38 velocity=23 time=0
note_on channel=0 note=50 velocity=28 time=0
note_on channel=0 note=50 velocity=0 time=60
note_on channel=0 note=38 velocity=0 time=0
note_on channel=0 note=57 velocity=41 time=0
note_on channel=0 note=54 velocity=34 time=0
note_on channel=0 note=54 velocity=0 time=0
note_on channel=0 note=57 velocity=0 time=0
note_on channel=0 note=57 velocity=41 time=0
note_on channel=0 note=54 velocity=34 time=0
note_on channel=0 note=50 velocity=26 time=240
note_on channel=0 note=38 velocity=22 time=0
note_on channel=0 note=38 velocity=0 time=0
note_on channel=0 note=57 velocity=0 time=0
note_on channel=0 note=54 velocity=0 time=0
note_on channel=0 note=50 velocity=0 time=0
note_on channel=0 note=54 velocity=34 time=0
note_on channel=0 note=62 velocity=41 time=0
note_on channel=0 note=62 velocity=0 time=30
note_on channel=0 note=54 velocity=0 time=0
note_on channel=0 note=35 velocity=23 time=0
note_on channel=0 note=47 velocity=28 time=0
note_on channel=0 note=47 velocity=0 time=60
note_on channel=0 note=35 velocity=0 time=0
note_on channel=0 note=54 velocity=34 time=0
note_on channel=0 note=59 velocity=34 time=0
note_on channel=0 note=62 velocity=41 time=0
note_on channel=0 note=62 velocity=0 time=238
note_on channel=0 note=59 velocity=0 time=0
note_on channel=0 note=54 velocity=0 time=0
note_on channel=0 note=62 velocity=41 time=0
note_on channel=0 note=59 velocity=34 time=0
note_on channel=0 note=43 velocity=22 time=0
note_on channel=0 note=55 velocity=26 time=0
note_on channel=0 note=55 velocity=0 time=0
note_on channel=0 note=62 velocity=0 time=0
note_on channel=0 note=59 velocity=0 time=0
note_on channel=0 note=43 velocity=0 time=0
note_on channel=0 note=59 velocity=35 time=0
note_on channel=0 note=62 velocity=42 time=0
note_on channel=0 note=62 velocity=0 time=45
note_on channel=0 note=59 velocity=0 time=0
note_on channel=0 note=43 velocity=23 time=0
note_on channel=0 note=55 velocity=28 time=0
note_on channel=0 note=55 velocity=0 time=60
note_on channel=0 note=43 velocity=0 time=0
note_on channel=0 note=59 velocity=35 time=0
note_on channel=0 note=62 velocity=42 time=0
note_on channel=0 note=62 velocity=0 time=0
note_on channel=0 note=59 velocity=0 time=0
note_on channel=0 note=62 velocity=43 time=0
note_on channel=0 note=59 velocity=36 time=0
note_on channel=0 note=43 velocity=23 time=240
note_on channel=0 note=55 velocity=27 time=0
note_on channel=0 note=55 velocity=0 time=0
note_on channel=0 note=62 velocity=0 time=0
note_on channel=0 note=59 velocity=0 time=0
note_on channel=0 note=43 velocity=0 time=0
note_on channel=0 note=67 velocity=45 time=0
note_on channel=0 note=59 velocity=38 time=0
note_on channel=0 note=59 velocity=0 time=45
note_on channel=0 note=67 velocity=0 time=0
note_on channel=0 note=40 velocity=26 time=0
note_on channel=0 note=52 velocity=31 time=0
note_on channel=0 note=52 velocity=0 time=60
note_on channel=0 note=40 velocity=0 time=0
note_on channel=0 note=59 velocity=38 time=0
note_on channel=0 note=67 velocity=47 time=0
note_on channel=0 note=67 velocity=0 time=0
note_on channel=0 note=59 velocity=0 time=0
note_on channel=0 note=67 velocity=47 time=0
note_on channel=0 note=64 velocity=40 time=0
note_on channel=0 note=60 velocity=31 time=120
note_on channel=0 note=48 velocity=27 time=0
note_on channel=0 note=48 velocity=0 time=0
note_on channel=0 note=67 velocity=0 time=0
note_on channel=0 note=64 velocity=0 time=0
note_on channel=0 note=60 velocity=0 time=0
note_on channel=0 note=64 velocity=42 time=0
note_on channel=0 note=67 velocity=51 time=0
note_on channel=0 note=67 velocity=0 time=45
note_on channel=0 note=64 velocity=0 time=0
note_on channel=0 note=48 velocity=28 time=0
note_on channel=0 note=60 velocity=34 time=0
note_on channel=0 note=60 velocity=0 time=60
note_on channel=0 note=48 velocity=0 time=0
note_on channel=0 note=67 velocity=51 time=0
note_on channel=0 note=64 velocity=42 time=0
note_on channel=0 note=64 velocity=0 time=0
note_on channel=0 note=67 velocity=0 time=0
note_on channel=0 note=64 velocity=44 time=0
note_on channel=0 note=72 velocity=53 time=0
note_on channel=0 note=57 velocity=34 time=240
note_on channel=0 note=45 velocity=29 time=0
note_on channel=0 note=45 velocity=0 time=0
note_on channel=0 note=64 velocity=0 time=0
note_on channel=0 note=72 velocity=0 time=0
note_on channel=0 note=57 velocity=0 time=0
note_on channel=0 note=64 velocity=46 time=0
note_on channel=0 note=72 velocity=55 time=0
note_on channel=0 note=72 velocity=0 time=45
note_on channel=0 note=64 velocity=0 time=0
note_on channel=0 note=45 velocity=31 time=0
note_on channel=0 note=57 velocity=38 time=0
note_on channel=0 note=57 velocity=0 time=60
note_on channel=0 note=45 velocity=0 time=0
note_on channel=0 note=64 velocity=52 time=0
note_on channel=0 note=72 velocity=52 time=0
note_on channel=0 note=72 velocity=0 time=0
note_on channel=0 note=64 velocity=0 time=0
note_on channel=0 note=72 velocity=58 time=0
note_on channel=0 note=69 velocity=48 time=0
note_on channel=0 note=41 velocity=32 time=180
note_on channel=0 note=53 velocity=38 time=0
note_on channel=0 note=53 velocity=0 time=0
note_on channel=0 note=72 velocity=0 time=0
note_on channel=0 note=69 velocity=0 time=0
note_on channel=0 note=41 velocity=0 time=0
note_on channel=0 note=72 velocity=65 time=0
note_on channel=0 note=69 velocity=54 time=0
note_on channel=0 note=69 velocity=0 time=60
note_on channel=0 note=72 velocity=0 time=0
note_on channel=0 note=53 velocity=45 time=60
note_on channel=0 note=41 velocity=37 time=0
note_on channel=0 note=41 velocity=0 time=60
note_on channel=0 note=53 velocity=0 time=0
note_on channel=0 note=69 velocity=57 time=0
note_on channel=0 note=72 velocity=69 time=0
note_on channel=0 note=72 velocity=0 time=0
note_on channel=0 note=69 velocity=0 time=0
note_on channel=0 note=69 velocity=60 time=0
note_on channel=0 note=77 velocity=73 time=0
note_on channel=0 note=38 velocity=41 time=240
note_on channel=0 note=50 velocity=48 time=0
note_on channel=0 note=50 velocity=0 time=0
note_on channel=0 note=69 velocity=0 time=0
note_on channel=0 note=77 velocity=0 time=0
note_on channel=0 note=38 velocity=0 time=0
note_on channel=0 note=69 velocity=67 time=0
note_on channel=0 note=74 velocity=67 time=0
note_on channel=0 note=77 velocity=82 time=0
note_on channel=0 note=77 velocity=0 time=60
note_on channel=0 note=74 velocity=0 time=0
note_on channel=0 note=69 velocity=0 time=0
note_on channel=0 note=50 velocity=57 time=60
note_on channel=0 note=38 velocity=47 time=0
note_on channel=0 note=38 velocity=0 time=60
note_on channel=0 note=50 velocity=0 time=0
note_on channel=0 note=74 velocity=71 time=0
note_on channel=0 note=69 velocity=71 time=0
note_on channel=0 note=77 velocity=86 time=0
note_on channel=0 note=77 velocity=0 time=0
note_on channel=0 note=69 velocity=0 time=0
note_on channel=0 note=74 velocity=0 time=0
note_on channel=0 note=76 velocity=76 time=0
note_on channel=0 note=69 velocity=76 time=0
note_on channel=0 note=73 velocity=76 time=0
note_on channel=0 note=81 velocity=91 time=0
note_on channel=0 note=33 velocity=48 time=123
note_on channel=0 note=37 velocity=48 time=0
note_on channel=0 note=40 velocity=48 time=0
note_on channel=0 note=45 velocity=57 time=0
note_on channel=0 note=45 velocity=0 time=240
note_on channel=0 note=76 velocity=0 time=0
note_on channel=0 note=33 velocity=0 time=0
note_on channel=0 note=69 velocity=0 time=0
note_on channel=0 note=73 velocity=0 time=0
note_on channel=0 note=81 velocity=0 time=0
note_on channel=0 note=37 velocity=0 time=0
note_on channel=0 note=40 velocity=0 time=0
note_on channel=0 note=76 velocity=75 time=0
note_on channel=0 note=73 velocity=75 time=0
note_on channel=0 note=69 velocity=75 time=0
note_on channel=0 note=81 velocity=89 time=0
note_on channel=0 note=81 velocity=0 time=60
note_on channel=0 note=76 velocity=0 time=0
note_on channel=0 note=73 velocity=0 time=0
note_on channel=0 note=69 velocity=0 time=0
note_on channel=0 note=37 velocity=50 time=60
note_on channel=0 note=33 velocity=50 time=0
note_on channel=0 note=45 velocity=61 time=0
note_on channel=0 note=40 velocity=50 time=0
note_on channel=0 note=40 velocity=0 time=60
note_on channel=0 note=37 velocity=0 time=0
note_on channel=0 note=33 velocity=0 time=0
note_on channel=0 note=45 velocity=0 time=0
note_on channel=0 note=73 velocity=74 time=60
note_on channel=0 note=69 velocity=74 time=0
note_on channel=0 note=81 velocity=89 time=0
note_on channel=0 note=76 velocity=74 time=0
note_on channel=0 note=76 velocity=0 time=240
note_on channel=0 note=73 velocity=0 time=0
note_on channel=0 note=69 velocity=0 time=0
note_on channel=0 note=81 velocity=0 time=0
note_on channel=0 note=69 velocity=73 time=0
note_on channel=0 note=81 velocity=87 time=0
note_on channel=0 note=73 velocity=73 time=0
note_on channel=0 note=76 velocity=73 time=0
note_on channel=0 note=37 velocity=46 time=240
note_on channel=0 note=40 velocity=46 time=0
note_on channel=0 note=45 velocity=54 time=0
note_on channel=0 note=33 velocity=46 time=0
note_on channel=0 note=33 velocity=0 time=240
note_on channel=0 note=69 velocity=0 time=0
note_on channel=0 note=37 velocity=0 time=0
note_on channel=0 note=81 velocity=0 time=0
note_on channel=0 note=73 velocity=0 time=0
note_on channel=0 note=76 velocity=0 time=0
note_on channel=0 note=40 velocity=0 time=0
note_on channel=0 note=45 velocity=0 time=0
note_on channel=0 note=69 velocity=71 time=0
note_on channel=0 note=73 velocity=71 time=0
note_on channel=0 note=76 velocity=71 time=0
note_on channel=0 note=81 velocity=86 time=0
note_on channel=0 note=81 velocity=0 time=60
note_on channel=0 note=69 velocity=0 time=0
note_on channel=0 note=73 velocity=0 time=0
note_on channel=0 note=76 velocity=0 time=0
note_on channel=0 note=33 velocity=47 time=60
note_on channel=0 note=40 velocity=47 time=0
note_on channel=0 note=45 velocity=58 time=0
note_on channel=0 note=37 velocity=47 time=0
note_on channel=0 note=37 velocity=0 time=60
note_on channel=0 note=33 velocity=0 time=0
note_on channel=0 note=40 velocity=0 time=0
note_on channel=0 note=45 velocity=0 time=0
note_on channel=0 note=76 velocity=71 time=60
note_on channel=0 note=73 velocity=71 time=0
note_on channel=0 note=81 velocity=85 time=0
note_on channel=0 note=69 velocity=71 time=0
note_on channel=0 note=69 velocity=0 time=240
note_on channel=0 note=76 velocity=0 time=0
note_on channel=0 note=73 velocity=0 time=0
note_on channel=0 note=81 velocity=0 time=0
note_on channel=0 note=73 velocity=70 time=0
note_on channel=0 note=81 velocity=83 time=0
note_on channel=0 note=76 velocity=70 time=0
note_on channel=0 note=69 velocity=70 time=0
note_on channel=0 note=37 velocity=44 time=240
note_on channel=0 note=33 velocity=44 time=0
note_on channel=0 note=45 velocity=52 time=0
note_on channel=0 note=40 velocity=44 time=0
note_on channel=0 note=40 velocity=0 time=240
note_on channel=0 note=73 velocity=0 time=0
note_on channel=0 note=37 velocity=0 time=0
note_on channel=0 note=81 velocity=0 time=0
note_on channel=0 note=76 velocity=0 time=0
note_on channel=0 note=69 velocity=0 time=0
note_on channel=0 note=33 velocity=0 time=0
note_on channel=0 note=45 velocity=0 time=0
note_on channel=0 note=69 velocity=68 time=0
note_on channel=0 note=81 velocity=82 time=0
note_on channel=0 note=81 velocity=0 time=60
note_on channel=0 note=69 velocity=0 time=0
note_on channel=0 note=33 velocity=45 time=60
note_on channel=0 note=45 velocity=56 time=0
note_on channel=0 note=45 velocity=0 time=60
note_on channel=0 note=33 velocity=0 time=0
note_on channel=0 note=81 velocity=81 time=60
note_on channel=0 note=69 velocity=68 time=0
note_on channel=0 note=69 velocity=0 time=240
note_on channel=0 note=81 velocity=0 time=0
note_on channel=0 note=69 velocity=61 time=0
note_on channel=0 note=81 velocity=73 time=0
note_on channel=0 note=45 velocity=44 time=217
note_on channel=0 note=33 velocity=37 time=0
note_on channel=0 note=33 velocity=0 time=240
note_on channel=0 note=69 velocity=0 time=0
note_on channel=0 note=81 velocity=0 time=0
note_on channel=0 note=45 velocity=0 time=0
note_on channel=0 note=69 velocity=54 time=0
note_on channel=0 note=81 velocity=65 time=0
note_on channel=0 note=81 velocity=0 time=60
note_on channel=0 note=69 velocity=0 time=0
note_on channel=0 note=33 velocity=35 time=60
note_on channel=0 note=45 velocity=43 time=0
note_on channel=0 note=45 velocity=0 time=60
note_on channel=0 note=33 velocity=0 time=0
note_on channel=0 note=69 velocity=51 time=60
note_on channel=0 note=81 velocity=61 time=0
note_on channel=0 note=81 velocity=0 time=240
note_on channel=0 note=69 velocity=0 time=0
note_on channel=0 note=81 velocity=57 time=0
note_on channel=0 note=69 velocity=47 time=0
note_on channel=0 note=33 velocity=28 time=25
note_on channel=0 note=45 velocity=33 time=0
note_on channel=0 note=45 velocity=0 time=1
note_on channel=0 note=81 velocity=0 time=0
note_on channel=0 note=69 velocity=0 time=0
note_on channel=0 note=33 velocity=0 time=0
note_on channel=0 note=81 velocity=49 time=0
note_on channel=0 note=69 velocity=40 time=0
note_on channel=0 note=69 velocity=0 time=13
note_on channel=0 note=81 velocity=0 time=0
note_on channel=0 note=45 velocity=32 time=1
note_on channel=0 note=33 velocity=26 time=0
note_on channel=0 note=33 velocity=0 time=13
note_on channel=0 note=45 velocity=0 time=0
note_on channel=0 note=69 velocity=37 time=1
note_on channel=0 note=81 velocity=45 time=0
note_on channel=0 note=81 velocity=0 time=25
note_on channel=0 note=69 velocity=0 time=0
note_on channel=0 note=69 velocity=27 time=0
note_on channel=0 note=81 velocity=32 time=0
note_on channel=0 note=29 velocity=17 time=1
note_on channel=0 note=41 velocity=20 time=0
note_on channel=0 note=41 velocity=0 time=25
note_on channel=0 note=69 velocity=0 time=0
note_on channel=0 note=81 velocity=0 time=0
note_on channel=0 note=29 velocity=0 time=0
note_on channel=0 note=81 velocity=32 time=0
note_on channel=0 note=69 velocity=27 time=0
note_on channel=0 note=69 velocity=0 time=5
note_on channel=0 note=81 velocity=0 time=0
note_on channel=0 note=41 velocity=22 time=17
note_on channel=0 note=29 velocity=18 time=0
note_on channel=0 note=29 velocity=0 time=5
note_on channel=0 note=41 velocity=0 time=0
note_on channel=0 note=81 velocity=32 time=17
note_on channel=0 note=69 velocity=27 time=0
note_on channel=0 note=69 velocity=0 time=0
note_on channel=0 note=81 velocity=0 time=0
note_on channel=0 note=81 velocity=40 time=0
note_on channel=0 note=29 velocity=25 time=0
note_on channel=0 note=41 velocity=30 time=0
note_on channel=0 note=81 velocity=0 time=37
note_on channel=0 note=82 velocity=36 time=0
note_on channel=0 note=82 velocity=0 time=9
note_on channel=0 note=81 velocity=40 time=0
note_on channel=0 note=81 velocity=0 time=17
note_on channel=0 note=41 velocity=0 time=0
note_on channel=0 note=29 velocity=0 time=0
note_on channel=0 note=82 velocity=35 time=0
note_on channel=0 note=82 velocity=0 time=25
note_on channel=0 note=81 velocity=40 time=0
note_on channel=0 note=81 velocity=0 time=57
note_on channel=0 note=82 velocity=36 time=0
note_on channel=0 note=82 velocity=0 time=65
note_on channel=0 note=81 velocity=40 time=0
note_on channel=0 note=53 velocity=25 time=0
note_on channel=0 note=57 velocity=30 time=0
note_on channel=0 note=81 velocity=0 time=25
note_on channel=0 note=82 velocity=36 time=0
note_on channel=0 note=82 velocity=0 time=33
note_on channel=0 note=81 velocity=40 time=0
note_on channel=0 note=81 velocity=0 time=41
note_on channel=0 note=57 velocity=0 time=0
note_on channel=0 note=53 velocity=0 time=0
note_on channel=0 note=82 velocity=36 time=0
note_on channel=0 note=82 velocity=0 time=73
note_on channel=0 note=81 velocity=40 time=0
note_on channel=0 note=81 velocity=0 time=80
note_on channel=0 note=82 velocity=35 time=0
note_on channel=0 note=82 velocity=0 time=80
note_on channel=0 note=81 velocity=40 time=0
note_on channel=0 note=81 velocity=0 time=80
note_on channel=0 note=82 velocity=36 time=0
note_on channel=0 note=82 velocity=0 time=80
note_on channel=0 note=81 velocity=40 time=0
note_on channel=0 note=81 velocity=0 time=80
note_on channel=0 note=82 velocity=35 time=0
note_on channel=0 note=82 velocity=0 time=80
note_on channel=0 note=81 velocity=40 time=0
note_on channel=0 note=81 velocity=0 time=80
note_on channel=0 note=82 velocity=34 time=0
note_on channel=0 note=82 velocity=0 time=0
note_on channel=0 note=81 velocity=48 time=0
note_on channel=0 note=41 velocity=46 time=0
note_on channel=0 note=29 velocity=39 time=0
note_on channel=0 note=81 velocity=0 time=49
note_on channel=0 note=82 velocity=43 time=0
note_on channel=0 note=82 velocity=0 time=80
note_on channel=0 note=81 velocity=49 time=0
note_on channel=0 note=81 velocity=0 time=65
note_on channel=0 note=29 velocity=0 time=0
note_on channel=0 note=41 velocity=0 time=0
note_on channel=0 note=82 velocity=43 time=0
note_on channel=0 note=82 velocity=0 time=1
note_on channel=0 note=81 velocity=50 time=0
note_on channel=0 note=81 velocity=0 time=80
note_on channel=0 note=82 velocity=43 time=0
note_on channel=0 note=82 velocity=0 time=41
note_on channel=0 note=84 velocity=52 time=0
note_on channel=0 note=57 velocity=33 time=0
note_on channel=0 note=60 velocity=39 time=0
note_on channel=0 note=84 velocity=0 time=27
note_on channel=0 note=86 velocity=47 time=0
note_on channel=0 note=86 velocity=0 time=57
note_on channel=0 note=84 velocity=53 time=0
note_on channel=0 note=84 velocity=0 time=41
note_on channel=0 note=60 velocity=0 time=0
note_on channel=0 note=57 velocity=0 time=0
note_on channel=0 note=86 velocity=47 time=0
note_on channel=0 note=86 velocity=0 time=80
note_on channel=0 note=84 velocity=54 time=0
note_on channel=0 note=84 velocity=0 time=33
note_on channel=0 note=86 velocity=49 time=0
note_on channel=0 note=86 velocity=0 time=80
note_on channel=0 note=84 velocity=56 time=0
note_on channel=0 note=84 velocity=0 time=25
note_on channel=0 note=86 velocity=50 time=0
note_on channel=0 note=86 velocity=0 time=80
note_on channel=0 note=84 velocity=57 time=0
note_on channel=0 note=84 velocity=0 time=17
note_on channel=0 note=86 velocity=52 time=0
note_on channel=0 note=86 velocity=0 time=80
note_on channel=0 note=84 velocity=58 time=0
note_on channel=0 note=84 velocity=0 time=9
note_on channel=0 note=86 velocity=51 time=0
note_on channel=0 note=86 velocity=0 time=17
note_on channel=0 note=84 velocity=60 time=0
note_on channel=0 note=41 velocity=55 time=0
note_on channel=0 note=29 velocity=46 time=0
note_on channel=0 note=84 velocity=0 time=25
note_on channel=0 note=86 velocity=54 time=0
note_on channel=0 note=86 velocity=0 time=33
note_on channel=0 note=84 velocity=61 time=0
note_on channel=0 note=84 velocity=0 time=41
note_on channel=0 note=29 velocity=0 time=0
note_on channel=0 note=41 velocity=0 time=0
note_on channel=0 note=86 velocity=54 time=0
note_on channel=0 note=86 velocity=0 time=49
note_on channel=0 note=84 velocity=62 time=0
note_on channel=0 note=84 velocity=0 time=57
note_on channel=0 note=86 velocity=53 time=0
note_on channel=0 note=86 velocity=0 time=17
note_on channel=0 note=89 velocity=64 time=0
note_on channel=0 note=65 velocity=54 time=0
note_on channel=0 note=60 velocity=45 time=0
note_on channel=0 note=57 velocity=45 time=0
note_on channel=0 note=53 velocity=45 time=0
note_on channel=0 note=89 velocity=0 time=13
note_on channel=0 note=91 velocity=57 time=0
note_on channel=0 note=91 velocity=0 time=80
note_on channel=0 note=89 velocity=65 time=0
note_on channel=0 note=89 velocity=0 time=80
note_on channel=0 note=57 velocity=0 time=0
note_on channel=0 note=65 velocity=0 time=0
note_on channel=0 note=60 velocity=0 time=0
note_on channel=0 note=53 velocity=0 time=0
note_on channel=0 note=91 velocity=57 time=0
note_on channel=0 note=91 velocity=0 time=80
note_on channel=0 note=89 velocity=66 time=0
note_on channel=0 note=89 velocity=0 time=80
note_on channel=0 note=91 velocity=60 time=0
note_on channel=0 note=91 velocity=0 time=80
note_on channel=0 note=89 velocity=68 time=0
note_on channel=0 note=29 velocity=48 time=0
note_on channel=0 note=41 velocity=57 time=0
note_on channel=0 note=89 velocity=0 time=49
note_on channel=0 note=91 velocity=61 time=0
note_on channel=0 note=91 velocity=0 time=33
note_on channel=0 note=89 velocity=69 time=0
note_on channel=0 note=89 velocity=0 time=17
note_on channel=0 note=41 velocity=0 time=0
note_on channel=0 note=29 velocity=0 time=0
note_on channel=0 note=91 velocity=63 time=0
note_on channel=0 note=91 velocity=0 time=25
note_on channel=0 note=89 velocity=70 time=0
note_on channel=0 note=89 velocity=0 time=9
note_on channel=0 note=91 velocity=62 time=0
note_on channel=0 note=91 velocity=0 time=17
note_on channel=0 note=89 velocity=78 time=0
note_on channel=0 note=65 velocity=66 time=0
note_on channel=0 note=60 velocity=56 time=0
note_on channel=0 note=57 velocity=56 time=0
note_on channel=0 note=53 velocity=56 time=0
note_on channel=0 note=89 velocity=0 time=14
note_on channel=0 note=87 velocity=77 time=0
note_on channel=0 note=87 velocity=0 time=120
note_on channel=0 note=53 velocity=0 time=0
note_on channel=0 note=65 velocity=0 time=0
note_on channel=0 note=60 velocity=0 time=0
note_on channel=0 note=57 velocity=0 time=0
note_on channel=0 note=86 velocity=76 time=0
note_on channel=0 note=86 velocity=0 time=120
note_on channel=0 note=84 velocity=75 time=0
note_on channel=0 note=84 velocity=0 time=120
note_on channel=0 note=82 velocity=73 time=0
note_on channel=0 note=29 velocity=63 time=0
note_on channel=0 note=41 velocity=75 time=0
note_on channel=0 note=82 velocity=0 time=120
note_on channel=0 note=81 velocity=72 time=0
note_on channel=0 note=81 velocity=0 time=120
note_on channel=0 note=79 velocity=71 time=0
note_on channel=0 note=79 velocity=0 time=120
note_on channel=0 note=77 velocity=73 time=0
note_on channel=0 note=77 velocity=0 time=17
note_on channel=0 note=75 velocity=75 time=0
note_on channel=0 note=75 velocity=0 time=65
note_on channel=0 note=74 velocity=76 time=0
note_on channel=0 note=74 velocity=0 time=17
note_on channel=0 note=41 velocity=0 time=0
note_on channel=0 note=29 velocity=0 time=0
note_on channel=0 note=72 velocity=78 time=0
note_on channel=0 note=43 velocity=54 time=0
note_on channel=0 note=43 velocity=0 time=17
note_on channel=0 note=72 velocity=0 time=0
note_on channel=0 note=77 velocity=79 time=0
note_on channel=0 note=45 velocity=55 time=0
note_on channel=0 note=45 velocity=0 time=0
note_on channel=0 note=77 velocity=0 time=0
note_on channel=0 note=65 velocity=75 time=0
note_on channel=0 note=70 velocity=89 time=0
note_on channel=0 note=58 velocity=75 time=0
note_on channel=0 note=62 velocity=75 time=0
note_on channel=0 note=34 velocity=55 time=0
note_on channel=0 note=38 velocity=55 time=0
note_on channel=0 note=46 velocity=65 time=0
note_on channel=0 note=41 velocity=55 time=0
note_on channel=0 note=41 velocity=0 time=70
note_on channel=0 note=65 velocity=0 time=0
note_on channel=0 note=34 velocity=0 time=0
note_on channel=0 note=70 velocity=0 time=0
note_on channel=0 note=58 velocity=0 time=0
note_on channel=0 note=62 velocity=0 time=0
note_on channel=0 note=38 velocity=0 time=0
note_on channel=0 note=46 velocity=0 time=0
note_on channel=0 note=67 velocity=50 time=310
note_on channel=0 note=65 velocity=43 time=120
note_on channel=0 note=67 velocity=0 time=24
note_on channel=0 note=63 velocity=50 time=96
note_on channel=0 note=65 velocity=0 time=24
note_on channel=0 note=62 velocity=47 time=96
note_on channel=0 note=63 velocity=0 time=24
note_on channel=0 note=60 velocity=47 time=96
note_on channel=0 note=62 velocity=0 time=24
note_on channel=0 note=58 velocity=47 time=96
note_on channel=0 note=60 velocity=0 time=24
note_on channel=0 note=57 velocity=50 time=33
note_on channel=0 note=53 velocity=40 time=0
note_on channel=0 note=58 velocity=0 time=24
note_on channel=0 note=58 velocity=44 time=96
note_on channel=0 note=57 velocity=0 time=24
note_on channel=0 note=53 velocity=0 time=9
note_on channel=0 note=57 velocity=44 time=0
note_on channel=0 note=58 velocity=0 time=24
note_on channel=0 note=55 velocity=44 time=96
note_on channel=0 note=57 velocity=0 time=24
note_on channel=0 note=53 velocity=50 time=96
note_on channel=0 note=69 velocity=46 time=0
note_on channel=0 note=55 velocity=0 time=9
note_on channel=0 note=69 velocity=0 time=52
note_on channel=0 note=70 velocity=40 time=0
note_on channel=0 note=53 velocity=0 time=40
note_on channel=0 note=55 velocity=44 time=0
note_on channel=0 note=70 velocity=0 time=40
note_on channel=0 note=69 velocity=46 time=0
note_on channel=0 note=69 velocity=0 time=80
note_on channel=0 note=55 velocity=0 time=0
note_on channel=0 note=53 velocity=44 time=0
note_on channel=0 note=70 velocity=40 time=0
note_on channel=0 note=70 velocity=0 time=65
note_on channel=0 note=69 velocity=44 time=0
note_on channel=0 note=53 velocity=0 time=33
note_on channel=0 note=51 velocity=44 time=0
note_on channel=0 note=69 velocity=0 time=1
note_on channel=0 note=70 velocity=40 time=0
note_on channel=0 note=70 velocity=0 time=33
note_on channel=0 note=51 velocity=0 time=0
note_on channel=0 note=50 velocity=50 time=0
note_on channel=0 note=69 velocity=45 time=0
note_on channel=0 note=69 velocity=0 time=9
note_on channel=0 note=70 velocity=40 time=0
note_on channel=0 note=50 velocity=0 time=33
note_on channel=0 note=51 velocity=44 time=0
note_on channel=0 note=70 velocity=0 time=1
note_on channel=0 note=69 velocity=44 time=0
note_on channel=0 note=69 velocity=0 time=33
note_on channel=0 note=51 velocity=0 time=0
note_on channel=0 note=50 velocity=44 time=0
note_on channel=0 note=70 velocity=40 time=0
note_on channel=0 note=70 velocity=0 time=21
note_on channel=0 note=69 velocity=44 time=0
note_on channel=0 note=69 velocity=0 time=33
note_on channel=0 note=50 velocity=0 time=0
note_on channel=0 note=48 velocity=44 time=0
note_on channel=0 note=67 velocity=40 time=0
note_on channel=0 note=67 velocity=0 time=21
note_on channel=0 note=69 velocity=40 time=0
note_on channel=0 note=69 velocity=0 time=0
note_on channel=0 note=48 velocity=0 time=0
note_on channel=0 note=46 velocity=50 time=0
note_on channel=0 note=70 velocity=52 time=0
note_on channel=0 note=70 velocity=0 time=452
note_on channel=0 note=46 velocity=0 time=0
note_on channel=0 note=70 velocity=52 time=240
note_on channel=0 note=69 velocity=46 time=120
note_on channel=0 note=70 velocity=0 time=24
note_on channel=0 note=67 velocity=46 time=96
note_on channel=0 note=69 velocity=0 time=24
note_on channel=0 note=65 velocity=46 time=96
note_on channel=0 note=67 velocity=0 time=24
note_on channel=0 note=63 velocity=48 time=96
note_on channel=0 note=65 velocity=0 time=24
note_on channel=0 note=62 velocity=43 time=0
note_on channel=0 note=63 velocity=0 time=24
note_on channel=0 note=67 velocity=52 time=0
note_on channel=0 note=62 velocity=0 time=24
note_on channel=0 note=67 velocity=0 time=216
note_on channel=0 note=67 velocity=52 time=480
note_on channel=0 note=65 velocity=46 time=120
note_on channel=0 note=67 velocity=0 time=24
note_on channel=0 note=63 velocity=46 time=96
note_on channel=0 note=65 velocity=0 time=24
note_on channel=0 note=62 velocity=46 time=96
note_on channel=0 note=63 velocity=0 time=24
note_on channel=0 note=60 velocity=49 time=96
note_on channel=0 note=62 velocity=0 time=24
note_on channel=0 note=58 velocity=45 time=0
note_on channel=0 note=60 velocity=0 time=24
note_on channel=0 note=63 velocity=52 time=0
note_on channel=0 note=58 velocity=0 time=24
note_on channel=0 note=63 velocity=0 time=216
note_on channel=0 note=63 velocity=52 time=480
note_on channel=0 note=62 velocity=46 time=120
note_on channel=0 note=63 velocity=0 time=24
note_on channel=0 note=60 velocity=52 time=96
note_on channel=0 note=62 velocity=0 time=24
note_on channel=0 note=62 velocity=46 time=96
note_on channel=0 note=60 velocity=0 time=24
note_on channel=0 note=60 velocity=46 time=96
note_on channel=0 note=62 velocity=0 time=24
note_on channel=0 note=58 velocity=46 time=0
note_on channel=0 note=60 velocity=0 time=24
note_on channel=0 note=58 velocity=0 time=0
note_on channel=0 note=57 velocity=53 time=0
note_on channel=0 note=58 velocity=47 time=120
note_on channel=0 note=57 velocity=0 time=24
note_on channel=0 note=57 velocity=47 time=96
note_on channel=0 note=58 velocity=0 time=24
note_on channel=0 note=55 velocity=47 time=0
note_on channel=0 note=57 velocity=0 time=24
note_on channel=0 note=53 velocity=52 time=0
note_on channel=0 note=55 velocity=0 time=24
note_on channel=0 note=55 velocity=47 time=96
note_on channel=0 note=53 velocity=0 time=24
note_on channel=0 note=57 velocity=48 time=96
note_on channel=0 note=55 velocity=0 time=24
note_on channel=0 note=58 velocity=48 time=96
note_on channel=0 note=57 velocity=0 time=24
note_on channel=0 note=59 velocity=52 time=96
note_on channel=0 note=58 velocity=0 time=24
note_on channel=0 note=60 velocity=49 time=96
note_on channel=0 note=59 velocity=0 time=24
note_on channel=0 note=62 velocity=49 time=96
note_on channel=0 note=60 velocity=0 time=24
note_on channel=0 note=60 velocity=49 time=0
note_on channel=0 note=62 velocity=0 time=24
note_on channel=0 note=60 velocity=0 time=0
note_on channel=0 note=58 velocity=52 time=0
note_on channel=0 note=60 velocity=47 time=120
note_on channel=0 note=58 velocity=0 time=24
note_on channel=0 note=62 velocity=47 time=96
note_on channel=0 note=60 velocity=0 time=24
note_on channel=0 note=63 velocity=47 time=0
note_on channel=0 note=62 velocity=0 time=24
note_on channel=0 note=64 velocity=52 time=0
note_on channel=0 note=63 velocity=0 time=24
note_on channel=0 note=65 velocity=45 time=96
note_on channel=0 note=64 velocity=0 time=24
note_on channel=0 note=67 velocity=45 time=96
note_on channel=0 note=65 velocity=0 time=24
note_on channel=0 note=65 velocity=45 time=96
note_on channel=0 note=67 velocity=0 time=24
note_on channel=0 note=63 velocity=52 time=96
note_on channel=0 note=65 velocity=0 time=24
note_on channel=0 note=62 velocity=48 time=96
note_on channel=0 note=63 velocity=0 time=24
note_on channel=0 note=60 velocity=48 time=96
note_on channel=0 note=62 velocity=0 time=24
note_on channel=0 note=58 velocity=48 time=0
note_on channel=0 note=60 velocity=0 time=24
note_on channel=0 note=58 velocity=0 time=0
note_on channel=0 note=57 velocity=52 time=0
note_on channel=0 note=58 velocity=47 time=120
note_on channel=0 note=57 velocity=0 time=24
note_on channel=0 note=57 velocity=47 time=96
note_on channel=0 note=58 velocity=0 time=24
note_on channel=0 note=55 velocity=47 time=96
note_on channel=0 note=57 velocity=0 time=24
note_on channel=0 note=53 velocity=53 time=96
note_on channel=0 note=55 velocity=0 time=24
note_on channel=0 note=55 velocity=47 time=96
note_on channel=0 note=53 velocity=0 time=24
note_on channel=0 note=57 velocity=48 time=96
note_on channel=0 note=55 velocity=0 time=24
note_on channel=0 note=58 velocity=48 time=96
note_on channel=0 note=57 velocity=0 time=24
note_on channel=0 note=58 velocity=0 time=96
note_on channel=0 note=59 velocity=54 time=0
note_on channel=0 note=60 velocity=47 time=120
note_on channel=0 note=59 velocity=0 time=24
note_on channel=0 note=62 velocity=48 time=96
note_on channel=0 note=60 velocity=0 time=24
note_on channel=0 note=60 velocity=48 time=0
note_on channel=0 note=62 velocity=0 time=24
note_on channel=0 note=60 velocity=0 time=0
note_on channel=0 note=58 velocity=55 time=0
note_on channel=0 note=60 velocity=48 time=120
note_on channel=0 note=58 velocity=0 time=24
note_on channel=0 note=62 velocity=49 time=96
note_on channel=0 note=60 velocity=0 time=24
note_on channel=0 note=63 velocity=49 time=0
note_on channel=0 note=62 velocity=0 time=24
note_on channel=0 note=64 velocity=56 time=0
note_on channel=0 note=63 velocity=0 time=24
note_on channel=0 note=65 velocity=51 time=96
note_on channel=0 note=64 velocity=0 time=24
note_on channel=0 note=67 velocity=52 time=96
note_on channel=0 note=65 velocity=0 time=24
note_on channel=0 note=65 velocity=52 time=96
note_on channel=0 note=67 velocity=0 time=24
note_on channel=0 note=65 velocity=0 time=96
note_on channel=0 note=58 velocity=57 time=0
note_on channel=0 note=58 velocity=0 time=120
note_on channel=0 note=66 velocity=52 time=0
note_on channel=0 note=67 velocity=53 time=120
note_on channel=0 note=66 velocity=0 time=24
note_on channel=0 note=66 velocity=53 time=0
note_on channel=0 note=67 velocity=0 time=24
note_on channel=0 note=66 velocity=0 time=0
note_on channel=0 note=58 velocity=61 time=0
note_on channel=0 note=58 velocity=0 time=120
note_on channel=0 note=67 velocity=53 time=0
note_on channel=0 note=69 velocity=53 time=120
note_on channel=0 note=67 velocity=0 time=24
note_on channel=0 note=67 velocity=53 time=96
note_on channel=0 note=69 velocity=0 time=24
note_on channel=0 note=67 velocity=0 time=96
note_on channel=0 note=66 velocity=59 time=0
note_on channel=0 note=66 velocity=0 time=120
note_on channel=0 note=67 velocity=55 time=0
note_on channel=0 note=69 velocity=55 time=120
note_on channel=0 note=67 velocity=0 time=24
note_on channel=0 note=67 velocity=55 time=96
note_on channel=0 note=69 velocity=0 time=24
note_on channel=0 note=67 velocity=0 time=96
note_on channel=0 note=64 velocity=60 time=0
note_on channel=0 note=64 velocity=0 time=120
note_on channel=0 note=65 velocity=54 time=0
note_on channel=0 note=67 velocity=54 time=120
note_on channel=0 note=65 velocity=0 time=24
note_on channel=0 note=65 velocity=55 time=0
note_on channel=0 note=67 velocity=0 time=24
note_on channel=0 note=65 velocity=0 time=0
note_on channel=0 note=64 velocity=61 time=0
note_on channel=0 note=64 velocity=0 time=120
note_on channel=0 note=65 velocity=57 time=0
note_on channel=0 note=67 velocity=57 time=120
note_on channel=0 note=65 velocity=0 time=24
note_on channel=0 note=65 velocity=57 time=0
note_on channel=0 note=67 velocity=0 time=24
note_on channel=0 note=65 velocity=0 time=0
note_on channel=0 note=62 velocity=62 time=0
note_on channel=0 note=62 velocity=0 time=120
note_on channel=0 note=63 velocity=58 time=0
note_on channel=0 note=65 velocity=59 time=120
note_on channel=0 note=63 velocity=0 time=24
note_on channel=0 note=63 velocity=59 time=0
note_on channel=0 note=65 velocity=0 time=24
note_on channel=0 note=63 velocity=0 time=0
note_on channel=0 note=61 velocity=63 time=0
note_on channel=0 note=61 velocity=0 time=120
note_on channel=0 note=62 velocity=59 time=0
note_on channel=0 note=63 velocity=59 time=120
note_on channel=0 note=62 velocity=0 time=24
note_on channel=0 note=62 velocity=59 time=0
note_on channel=0 note=63 velocity=0 time=24
note_on channel=0 note=62 velocity=0 time=0
note_on channel=0 note=58 velocity=65 time=0
note_on channel=0 note=61 velocity=65 time=0
note_on channel=0 note=61 velocity=0 time=120
note_on channel=0 note=58 velocity=0 time=0
note_on channel=0 note=62 velocity=58 time=0
note_on channel=0 note=63 velocity=58 time=120
note_on channel=0 note=62 velocity=0 time=24
note_on channel=0 note=62 velocity=58 time=96
note_on channel=0 note=63 velocity=0 time=24
note_on channel=0 note=62 velocity=0 time=4
note_on channel=0 note=76 velocity=65 time=0
note_on channel=0 note=59 velocity=65 time=0
note_on channel=0 note=76 velocity=0 time=12
note_on channel=0 note=77 velocity=59 time=0
note_on channel=0 note=59 velocity=0 time=40
note_on channel=0 note=60 velocity=60 time=0
note_on channel=0 note=77 velocity=0 time=20
note_on channel=0 note=76 velocity=65 time=0
note_on channel=0 note=76 velocity=0 time=28
note_on channel=0 note=60 velocity=0 time=0
note_on channel=0 note=77 velocity=60 time=0
note_on channel=0 note=62 velocity=60 time=0
note_on channel=0 note=77 velocity=0 time=36
note_on channel=0 note=76 velocity=65 time=0
note_on channel=0 note=62 velocity=0 time=4
note_on channel=0 note=60 velocity=60 time=0
note_on channel=0 note=76 velocity=0 time=40
note_on channel=0 note=77 velocity=61 time=0
note_on channel=0 note=77 velocity=0 time=4
note_on channel=0 note=60 velocity=0 time=0
note_on channel=0 note=76 velocity=65 time=0
note_on channel=0 note=57 velocity=65 time=0
note_on channel=0 note=76 velocity=0 time=12
note_on channel=0 note=77 velocity=65 time=0
note_on channel=0 note=57 velocity=0 time=4
note_on channel=0 note=58 velocity=58 time=0
note_on channel=0 note=77 velocity=0 time=40
note_on channel=0 note=76 velocity=65 time=0
note_on channel=0 note=76 velocity=0 time=4
note_on channel=0 note=58 velocity=0 time=0
note_on channel=0 note=77 velocity=61 time=0
note_on channel=0 note=60 velocity=58 time=0
note_on channel=0 note=77 velocity=0 time=8
note_on channel=0 note=76 velocity=65 time=0
note_on channel=0 note=76 velocity=0 time=0
note_on channel=0 note=60 velocity=0 time=0
note_on channel=0 note=74 velocity=61 time=0
note_on channel=0 note=58 velocity=58 time=0
note_on channel=0 note=74 velocity=0 time=60
note_on channel=0 note=76 velocity=61 time=0
note_on channel=0 note=76 velocity=0 time=0
note_on channel=0 note=58 velocity=0 time=0
note_on channel=0 note=77 velocity=69 time=0
note_on channel=0 note=57 velocity=65 time=0
note_on channel=0 note=57 velocity=0 time=120
note_on channel=0 note=77 velocity=0 time=0
note_on channel=0 note=69 velocity=76 time=0
note_on channel=0 note=77 velocity=62 time=0
note_on channel=0 note=76 velocity=52 time=120
note_on channel=0 note=77 velocity=0 time=24
note_on channel=0 note=74 velocity=52 time=96
note_on channel=0 note=76 velocity=0 time=24
note_on channel=0 note=72 velocity=52 time=96
note_on channel=0 note=74 velocity=0 time=24
note_on channel=0 note=69 velocity=0 time=96
note_on channel=0 note=70 velocity=58 time=0
note_on channel=0 note=72 velocity=0 time=24
note_on channel=0 note=69 velocity=51 time=0
note_on channel=0 note=70 velocity=0 time=24
note_on channel=0 note=74 velocity=69 time=0
note_on channel=0 note=69 velocity=0 time=24
note_on channel=0 note=53 velocity=65 time=0
note_on channel=0 note=53 velocity=0 time=120
note_on channel=0 note=74 velocity=0 time=0
note_on channel=0 note=65 velocity=76 time=0
note_on channel=0 note=74 velocity=62 time=0
note_on channel=0 note=72 velocity=52 time=120
note_on channel=0 note=74 velocity=0 time=24
note_on channel=0 note=70 velocity=52 time=96
note_on channel=0 note=72 velocity=0 time=24
note_on channel=0 note=69 velocity=52 time=96
note_on channel=0 note=70 velocity=0 time=24
note_on channel=0 note=65 velocity=0 time=96
note_on channel=0 note=67 velocity=58 time=0
note_on channel=0 note=69 velocity=0 time=24
note_on channel=0 note=65 velocity=51 time=0
note_on channel=0 note=67 velocity=0 time=24
note_on channel=0 note=70 velocity=69 time=0
note_on channel=0 note=65 velocity=0 time=24
note_on channel=0 note=50 velocity=61 time=0
note_on channel=0 note=50 velocity=0 time=120
note_on channel=0 note=70 velocity=0 time=0
note_on channel=0 note=62 velocity=68 time=0
note_on channel=0 note=70 velocity=66 time=0
note_on channel=0 note=60 velocity=61 time=0
note_on channel=0 note=62 velocity=0 time=24
note_on channel=0 note=69 velocity=65 time=96
note_on channel=0 note=70 velocity=0 time=24
note_on channel=0 note=67 velocity=64 time=96
note_on channel=0 note=58 velocity=60 time=0
note_on channel=0 note=69 velocity=0 time=24
note_on channel=0 note=60 velocity=0 time=0
note_on channel=0 note=69 velocity=63 time=96
note_on channel=0 note=67 velocity=0 time=24
note_on channel=0 note=67 velocity=61 time=96
note_on channel=0 note=59 velocity=60 time=0
note_on channel=0 note=69 velocity=0 time=24
note_on channel=0 note=58 velocity=0 time=0
note_on channel=0 note=65 velocity=62 time=96
note_on channel=0 note=67 velocity=0 time=24
note_on channel=0 note=64 velocity=66 time=96
note_on channel=0 note=60 velocity=70 time=0
note_on channel=0 note=65 velocity=0 time=24
note_on channel=0 note=59 velocity=0 time=0
note_on channel=0 note=60 velocity=0 time=96
note_on channel=0 note=65 velocity=59 time=0
note_on channel=0 note=64 velocity=0 time=24
note_on channel=0 note=64 velocity=59 time=96
note_on channel=0 note=65 velocity=0 time=24
note_on channel=0 note=62 velocity=59 time=96
note_on channel=0 note=64 velocity=0 time=24
note_on channel=0 note=62 velocity=0 time=96
note_on channel=0 note=60 velocity=59 time=0
note_on channel=0 note=58 velocity=71 time=0
note_on channel=0 note=60 velocity=0 time=120
note_on channel=0 note=62 velocity=62 time=0
note_on channel=0 note=64 velocity=57 time=120
note_on channel=0 note=62 velocity=0 time=24
note_on channel=0 note=65 velocity=57 time=96
note_on channel=0 note=64 velocity=0 time=24
note_on channel=0 note=66 velocity=57 time=96
note_on channel=0 note=65 velocity=0 time=24
note_on channel=0 note=67 velocity=57 time=96
note_on channel=0 note=66 velocity=0 time=24
note_on channel=0 note=58 velocity=0 time=96
note_on channel=0 note=69 velocity=57 time=0
note_on channel=0 note=58 velocity=59 time=0
note_on channel=0 note=67 velocity=0 time=24
note_on channel=0 note=67 velocity=57 time=0
note_on channel=0 note=69 velocity=0 time=24
note_on channel=0 note=67 velocity=0 time=0
note_on channel=0 note=58 velocity=0 time=0
note_on channel=0 note=65 velocity=60 time=0
note_on channel=0 note=58 velocity=65 time=0
note_on channel=0 note=67 velocity=61 time=120
note_on channel=0 note=65 velocity=0 time=24
note_on channel=0 note=69 velocity=61 time=96
note_on channel=0 note=57 velocity=59 time=0
note_on channel=0 note=67 velocity=0 time=24
note_on channel=0 note=58 velocity=0 time=0
note_on channel=0 note=70 velocity=62 time=96
note_on channel=0 note=69 velocity=0 time=24
note_on channel=0 note=71 velocity=63 time=96
note_on channel=0 note=55 velocity=59 time=0
note_on channel=0 note=70 velocity=0 time=24
note_on channel=0 note=57 velocity=0 time=0
note_on channel=0 note=72 velocity=63 time=96
note_on channel=0 note=71 velocity=0 time=24
note_on channel=0 note=74 velocity=64 time=96
note_on channel=0 note=53 velocity=59 time=0
note_on channel=0 note=72 velocity=0 time=24
note_on channel=0 note=55 velocity=0 time=0
note_on channel=0 note=72 velocity=60 time=96
note_on channel=0 note=74 velocity=0 time=24
note_on channel=0 note=70 velocity=64 time=96
note_on channel=0 note=52 velocity=59 time=0
note_on channel=0 note=72 velocity=0 time=24
note_on channel=0 note=53 velocity=0 time=0
note_on channel=0 note=69 velocity=63 time=96
note_on channel=0 note=70 velocity=0 time=24
note_on channel=0 note=67 velocity=62 time=96
note_on channel=0 note=53 velocity=59 time=0
note_on channel=0 note=69 velocity=0 time=24
note_on channel=0 note=52 velocity=0 time=0
note_on channel=0 note=65 velocity=60 time=96
note_on channel=0 note=67 velocity=0 time=24
note_on channel=0 note=53 velocity=0 time=0
note_on channel=0 note=64 velocity=65 time=0
note_on channel=0 note=60 velocity=69 time=0
note_on channel=0 note=65 velocity=0 time=24
note_on channel=0 note=60 velocity=0 time=96
note_on channel=0 note=65 velocity=56 time=0
note_on channel=0 note=64 velocity=0 time=24
note_on channel=0 note=64 velocity=58 time=0
note_on channel=0 note=65 velocity=0 time=24
note_on channel=0 note=62 velocity=58 time=96
note_on channel=0 note=64 velocity=0 time=24
note_on channel=0 note=62 velocity=0 time=0
note_on channel=0 note=60 velocity=62 time=0
note_on channel=0 note=58 velocity=68 time=0
note_on channel=0 note=62 velocity=62 time=120
note_on channel=0 note=60 velocity=0 time=24
note_on channel=0 note=64 velocity=58 time=96
note_on channel=0 note=62 velocity=0 time=24
note_on channel=0 note=65 velocity=58 time=96
note_on channel=0 note=64 velocity=0 time=24
note_on channel=0 note=66 velocity=58 time=96
note_on channel=0 note=65 velocity=0 time=24
note_on channel=0 note=67 velocity=58 time=96
note_on channel=0 note=66 velocity=0 time=24
note_on channel=0 note=58 velocity=0 time=96
note_on channel=0 note=69 velocity=58 time=0
note_on channel=0 note=57 velocity=65 time=0
note_on channel=0 note=67 velocity=0 time=24
note_on channel=0 note=65 velocity=58 time=96
note_on channel=0 note=69 velocity=0 time=24
note_on channel=0 note=65 velocity=0 time=0
note_on channel=0 note=57 velocity=0 time=0
note_on channel=0 note=64 velocity=66 time=0
note_on channel=0 note=62 velocity=71 time=0
note_on channel=0 note=62 velocity=0 time=120
note_on channel=0 note=65 velocity=62 time=0
note_on channel=0 note=64 velocity=0 time=24
note_on channel=0 note=72 velocity=59 time=0
note_on channel=0 note=65 velocity=0 time=24
note_on channel=0 note=70 velocity=59 time=96
note_on channel=0 note=72 velocity=0 time=24
note_on channel=0 note=70 velocity=0 time=0
note_on channel=0 note=69 velocity=62 time=0
note_on channel=0 note=61 velocity=70 time=0
note_on channel=0 note=70 velocity=56 time=120
note_on channel=0 note=69 velocity=0 time=24
note_on channel=0 note=72 velocity=56 time=96
note_on channel=0 note=70 velocity=0 time=24
note_on channel=0 note=70 velocity=56 time=96
note_on channel=0 note=72 velocity=0 time=24
note_on channel=0 note=70 velocity=0 time=96
note_on channel=0 note=68 velocity=58 time=0
note_on channel=0 note=69 velocity=57 time=120
note_on channel=0 note=68 velocity=0 time=24
note_on channel=0 note=61 velocity=0 time=96
note_on channel=0 note=70 velocity=57 time=0
note_on channel=0 note=60 velocity=62 time=0
note_on channel=0 note=69 velocity=0 time=24
note_on channel=0 note=69 velocity=57 time=0
note_on channel=0 note=70 velocity=0 time=24
note_on channel=0 note=69 velocity=0 time=0
note_on channel=0 note=60 velocity=0 time=0
note_on channel=0 note=67 velocity=68 time=0
note_on channel=0 note=65 velocity=71 time=0
note_on channel=0 note=65 velocity=0 time=120
note_on channel=0 note=68 velocity=62 time=0
note_on channel=0 note=67 velocity=0 time=24
note_on channel=0 note=75 velocity=68 time=0
note_on channel=0 note=68 velocity=0 time=24
note_on channel=0 note=74 velocity=62 time=96
note_on channel=0 note=75 velocity=0 time=24
note_on channel=0 note=74 velocity=0 time=0
note_on channel=0 note=72 velocity=64 time=0
note_on channel=0 note=64 velocity=70 time=0
note_on channel=0 note=73 velocity=59 time=120
note_on channel=0 note=72 velocity=0 time=24
note_on channel=0 note=74 velocity=59 time=96
note_on channel=0 note=73 velocity=0 time=24
note_on channel=0 note=73 velocity=59 time=96
note_on channel=0 note=74 velocity=0 time=24
note_on channel=0 note=73 velocity=0 time=96
note_on channel=0 note=71 velocity=62 time=0
note_on channel=0 note=72 velocity=58 time=120
note_on channel=0 note=71 velocity=0 time=24
note_on channel=0 note=64 velocity=0 time=96
note_on channel=0 note=74 velocity=58 time=0
note_on channel=0 note=63 velocity=61 time=0
note_on channel=0 note=72 velocity=0 time=24
note_on channel=0 note=72 velocity=58 time=96
note_on channel=0 note=74 velocity=0 time=24
note_on channel=0 note=72 velocity=0 time=0
note_on channel=0 note=63 velocity=0 time=0
note_on channel=0 note=63 velocity=79 time=0
note_on channel=0 note=68 velocity=79 time=0
note_on channel=0 note=41 velocity=73 time=0
note_on channel=0 note=69 velocity=68 time=120
note_on channel=0 note=68 velocity=0 time=24
note_on channel=0 note=41 velocity=0 time=0
note_on channel=0 note=70 velocity=68 time=0
note_on channel=0 note=69 velocity=0 time=24
note_on channel=0 note=69 velocity=68 time=96
note_on channel=0 note=70 velocity=0 time=24
note_on channel=0 note=69 velocity=0 time=0
note_on channel=0 note=64 velocity=68 time=0
note_on channel=0 note=57 velocity=70 time=0
note_on channel=0 note=57 velocity=0 time=23
note_on channel=0 note=58 velocity=62 time=0
note_on channel=0 note=64 velocity=0 time=40
note_on channel=0 note=65 velocity=64 time=0
note_on channel=0 note=58 velocity=0 time=40
note_on channel=0 note=57 velocity=70 time=0
note_on channel=0 note=57 velocity=0 time=80
note_on channel=0 note=65 velocity=0 time=0
note_on channel=0 note=67 velocity=64 time=0
note_on channel=0 note=58 velocity=63 time=0
note_on channel=0 note=58 velocity=0 time=80
note_on channel=0 note=57 velocity=70 time=0
note_on channel=0 note=67 velocity=0 time=40
note_on channel=0 note=65 velocity=64 time=0
note_on channel=0 note=57 velocity=0 time=40
note_on channel=0 note=58 velocity=63 time=0
note_on channel=0 note=58 velocity=0 time=0
note_on channel=0 note=65 velocity=0 time=0
note_on channel=0 note=63 velocity=0 time=0
note_on channel=0 note=65 velocity=71 time=0
note_on channel=0 note=71 velocity=68 time=0
note_on channel=0 note=57 velocity=70 time=0
note_on channel=0 note=57 velocity=0 time=68
note_on channel=0 note=58 velocity=64 time=0
note_on channel=0 note=71 velocity=0 time=21
note_on channel=0 note=72 velocity=63 time=0
note_on channel=0 note=58 velocity=0 time=40
note_on channel=0 note=57 velocity=70 time=0
note_on channel=0 note=57 velocity=0 time=80
note_on channel=0 note=72 velocity=0 time=0
note_on channel=0 note=74 velocity=63 time=0
note_on channel=0 note=58 velocity=63 time=0
note_on channel=0 note=58 velocity=0 time=11
note_on channel=0 note=57 velocity=70 time=0
note_on channel=0 note=57 velocity=0 time=23
note_on channel=0 note=74 velocity=0 time=0
note_on channel=0 note=72 velocity=63 time=0
note_on channel=0 note=55 velocity=65 time=0
note_on channel=0 note=55 velocity=0 time=11
note_on channel=0 note=57 velocity=65 time=0
note_on channel=0 note=57 velocity=0 time=0
note_on channel=0 note=72 velocity=0 time=0
note_on channel=0 note=58 velocity=72 time=0
note_on channel=0 note=65 velocity=0 time=237
note_on channel=0 note=62 velocity=65 time=0
note_on channel=0 note=62 velocity=0 time=120
note_on channel=0 note=58 velocity=0 time=120
note_on channel=0 note=74 velocity=76 time=0
note_on channel=0 note=69 velocity=45 time=0
note_on channel=0 note=58 velocity=62 time=0
note_on channel=0 note=57 velocity=52 time=120
note_on channel=0 note=58 velocity=0 time=24
note_on channel=0 note=69 velocity=0 time=96
note_on channel=0 note=70 velocity=50 time=0
note_on channel=0 note=55 velocity=52 time=0
note_on channel=0 note=57 velocity=0 time=24
note_on channel=0 note=53 velocity=52 time=96
note_on channel=0 note=55 velocity=0 time=24
note_on channel=0 note=74 velocity=0 time=96
note_on channel=0 note=51 velocity=58 time=0
note_on channel=0 note=53 velocity=0 time=24
note_on channel=0 note=50 velocity=51 time=0
note_on channel=0 note=51 velocity=0 time=24
note_on channel=0 note=70 velocity=0 time=0
note_on channel=0 note=55 velocity=69 time=0
note_on channel=0 note=50 velocity=0 time=24
note_on channel=0 note=58 velocity=65 time=0
note_on channel=0 note=58 velocity=0 time=120
note_on channel=0 note=55 velocity=0 time=0
note_on channel=0 note=70 velocity=76 time=0
note_on channel=0 note=66 velocity=45 time=0
note_on channel=0 note=55 velocity=62 time=0
note_on channel=0 note=53 velocity=52 time=120
note_on channel=0 note=55 velocity=0 time=24
note_on channel=0 note=66 velocity=0 time=96
note_on channel=0 note=67 velocity=50 time=0
note_on channel=0 note=51 velocity=52 time=0
note_on channel=0 note=53 velocity=0 time=24
note_on channel=0 note=50 velocity=52 time=96
note_on channel=0 note=51 velocity=0 time=24
note_on channel=0 note=70 velocity=0 time=96
note_on channel=0 note=48 velocity=58 time=0
note_on channel=0 note=50 velocity=0 time=24
note_on channel=0 note=46 velocity=51 time=0
note_on channel=0 note=48 velocity=0 time=24
note_on channel=0 note=67 velocity=0 time=0
note_on channel=0 note=51 velocity=69 time=0
note_on channel=0 note=46 velocity=0 time=24
note_on channel=0 note=67 velocity=61 time=0
note_on channel=0 note=67 velocity=0 time=120
note_on channel=0 note=51 velocity=0 time=0
note_on channel=0 note=79 velocity=68 time=0
note_on channel=0 note=71 velocity=51 time=0
note_on channel=0 note=77 velocity=61 time=0
note_on channel=0 note=51 velocity=56 time=0
note_on channel=0 note=79 velocity=0 time=24
note_on channel=0 note=50 velocity=55 time=96
note_on channel=0 note=51 velocity=0 time=24
note_on channel=0 note=71 velocity=0 time=96
note_on channel=0 note=72 velocity=51 time=0
note_on channel=0 note=75 velocity=60 time=0
note_on channel=0 note=48 velocity=54 time=0
note_on channel=0 note=77 velocity=0 time=24
note_on channel=0 note=50 velocity=0 time=0
note_on channel=0 note=50 velocity=53 time=96
note_on channel=0 note=48 velocity=0 time=24
note_on channel=0 note=72 velocity=0 time=0
note_on channel=0 note=67 velocity=51 time=0
note_on channel=0 note=76 velocity=60 time=0
note_on channel=0 note=48 velocity=51 time=0
note_on channel=0 note=75 velocity=0 time=24
note_on channel=0 note=50 velocity=0 time=0
note_on channel=0 note=46 velocity=52 time=96
note_on channel=0 note=48 velocity=0 time=24
note_on channel=0 note=67 velocity=0 time=0
note_on channel=0 note=72 velocity=59 time=0
note_on channel=0 note=77 velocity=70 time=0
note_on channel=0 note=45 velocity=56 time=0
note_on channel=0 note=76 velocity=0 time=24
note_on channel=0 note=46 velocity=0 time=0
note_on channel=0 note=77 velocity=0 time=96
note_on channel=0 note=72 velocity=0 time=0
note_on channel=0 note=46 velocity=50 time=0
note_on channel=0 note=45 velocity=0 time=24
note_on channel=0 note=65 velocity=59 time=0
note_on channel=0 note=45 velocity=50 time=0
note_on channel=0 note=46 velocity=0 time=24
note_on channel=0 note=43 velocity=50 time=96
note_on channel=0 note=45 velocity=0 time=24
note_on channel=0 note=43 velocity=0 time=0
note_on channel=0 note=65 velocity=0 time=0
note_on channel=0 note=72 velocity=59 time=0
note_on channel=0 note=75 velocity=78 time=0
note_on channel=0 note=41 velocity=50 time=0
note_on channel=0 note=41 velocity=0 time=120
note_on channel=0 note=43 velocity=52 time=0
note_on channel=0 note=72 velocity=0 time=120
note_on channel=0 note=66 velocity=59 time=0
note_on channel=0 note=45 velocity=48 time=0
note_on channel=0 note=43 velocity=0 time=24
note_on channel=0 note=46 velocity=48 time=96
note_on channel=0 note=45 velocity=0 time=24
note_on channel=0 note=66 velocity=0 time=96
note_on channel=0 note=65 velocity=59 time=0
note_on channel=0 note=47 velocity=48 time=0
note_on channel=0 note=46 velocity=0 time=24
note_on channel=0 note=48 velocity=48 time=96
note_on channel=0 note=47 velocity=0 time=24
note_on channel=0 note=75 velocity=0 time=96
note_on channel=0 note=75 velocity=59 time=0
note_on channel=0 note=50 velocity=48 time=0
note_on channel=0 note=48 velocity=0 time=24
note_on channel=0 note=48 velocity=48 time=0
note_on channel=0 note=50 velocity=0 time=24
note_on channel=0 note=48 velocity=0 time=0
note_on channel=0 note=75 velocity=0 time=0
note_on channel=0 note=75 velocity=65 time=0
note_on channel=0 note=46 velocity=51 time=0
note_on channel=0 note=48 velocity=51 time=120
note_on channel=0 note=46 velocity=0 time=24
note_on channel=0 note=65 velocity=0 time=96
note_on channel=0 note=65 velocity=50 time=0
note_on channel=0 note=74 velocity=59 time=0
note_on channel=0 note=50 velocity=51 time=0
note_on channel=0 note=75 velocity=0 time=24
note_on channel=0 note=48 velocity=0 time=0
note_on channel=0 note=51 velocity=52 time=96
note_on channel=0 note=50 velocity=0 time=24
note_on channel=0 note=65 velocity=0 time=96
note_on channel=0 note=63 velocity=50 time=0
note_on channel=0 note=72 velocity=59 time=0
note_on channel=0 note=52 velocity=53 time=0
note_on channel=0 note=74 velocity=0 time=24
note_on channel=0 note=51 velocity=0 time=0
note_on channel=0 note=53 velocity=53 time=96
note_on channel=0 note=52 velocity=0 time=24
note_on channel=0 note=63 velocity=0 time=96
note_on channel=0 note=62 velocity=50 time=0
note_on channel=0 note=70 velocity=59 time=0
note_on channel=0 note=55 velocity=54 time=0
note_on channel=0 note=72 velocity=0 time=24
note_on channel=0 note=53 velocity=0 time=0
note_on channel=0 note=53 velocity=51 time=96
note_on channel=0 note=55 velocity=0 time=24
note_on channel=0 note=62 velocity=0 time=96
note_on channel=0 note=60 velocity=50 time=0
note_on channel=0 note=69 velocity=59 time=0
note_on channel=0 note=51 velocity=54 time=0
note_on channel=0 note=70 velocity=0 time=24
note_on channel=0 note=53 velocity=0 time=0
note_on channel=0 note=50 velocity=53 time=96
note_on channel=0 note=51 velocity=0 time=24
note_on channel=0 note=60 velocity=0 time=96
note_on channel=0 note=62 velocity=50 time=0
note_on channel=0 note=70 velocity=59 time=0
note_on channel=0 note=48 velocity=52 time=0
note_on channel=0 note=69 velocity=0 time=24
note_on channel=0 note=50 velocity=0 time=0
note_on channel=0 note=46 velocity=51 time=96
note_on channel=0 note=48 velocity=0 time=24
note_on channel=0 note=70 velocity=0 time=0
note_on channel=0 note=62 velocity=0 time=0
note_on channel=0 note=65 velocity=70 time=0
note_on channel=0 note=45 velocity=56 time=0
note_on channel=0 note=46 velocity=0 time=24
note_on channel=0 note=65 velocity=0 time=96
note_on channel=0 note=46 velocity=50 time=0
note_on channel=0 note=45 velocity=0 time=24
note_on channel=0 note=71 velocity=59 time=0
note_on channel=0 note=45 velocity=50 time=0
note_on channel=0 note=46 velocity=0 time=24
note_on channel=0 note=43 velocity=50 time=96
note_on channel=0 note=45 velocity=0 time=24
note_on channel=0 note=43 velocity=0 time=0
note_on channel=0 note=71 velocity=0 time=0
note_on channel=0 note=72 velocity=59 time=0
note_on channel=0 note=63 velocity=78 time=0
note_on channel=0 note=41 velocity=50 time=0
note_on channel=0 note=41 velocity=0 time=120
note_on channel=0 note=43 velocity=52 time=0
note_on channel=0 note=72 velocity=0 time=120
note_on channel=0 note=66 velocity=59 time=0
note_on channel=0 note=45 velocity=48 time=0
note_on channel=0 note=43 velocity=0 time=24
note_on channel=0 note=46 velocity=48 time=96
note_on channel=0 note=45 velocity=0 time=24
note_on channel=0 note=66 velocity=0 time=96
note_on channel=0 note=65 velocity=59 time=0
note_on channel=0 note=45 velocity=48 time=0
note_on channel=0 note=46 velocity=0 time=24
note_on channel=0 note=46 velocity=48 time=96
note_on channel=0 note=45 velocity=0 time=24
note_on channel=0 note=63 velocity=0 time=96
note_on channel=0 note=62 velocity=59 time=0
note_on channel=0 note=48 velocity=48 time=0
note_on channel=0 note=46 velocity=0 time=24
note_on channel=0 note=50 velocity=48 time=0
note_on channel=0 note=48 velocity=0 time=24
note_on channel=0 note=65 velocity=0 time=0
note_on channel=0 note=62 velocity=0 time=0
note_on channel=0 note=50 velocity=0 time=0
note_on channel=0 note=80 velocity=77 time=0
note_on channel=0 note=51 velocity=51 time=0
note_on channel=0 note=80 velocity=0 time=120
note_on channel=0 note=53 velocity=51 time=0
note_on channel=0 note=51 velocity=0 time=24
note_on channel=0 note=70 velocity=59 time=0
note_on channel=0 note=55 velocity=51 time=0
note_on channel=0 note=53 velocity=0 time=24
note_on channel=0 note=51 velocity=52 time=0
note_on channel=0 note=55 velocity=0 time=24
note_on channel=0 note=70 velocity=0 time=96
note_on channel=0 note=76 velocity=59 time=0
note_on channel=0 note=79 velocity=85 time=0
note_on channel=0 note=49 velocity=53 time=0
note_on channel=0 note=51 velocity=0 time=24
note_on channel=0 note=50 velocity=53 time=96
note_on channel=0 note=49 velocity=0 time=24
note_on channel=0 note=76 velocity=0 time=96
note_on channel=0 note=70 velocity=59 time=0
note_on channel=0 note=52 velocity=54 time=0
note_on channel=0 note=50 velocity=0 time=24
note_on channel=0 note=49 velocity=51 time=96
note_on channel=0 note=52 velocity=0 time=24
note_on channel=0 note=50 velocity=54 time=96
note_on channel=0 note=49 velocity=0 time=24
note_on channel=0 note=50 velocity=0 time=28
note_on channel=0 note=53 velocity=53 time=0
note_on channel=0 note=53 velocity=0 time=120
note_on channel=0 note=79 velocity=0 time=0
note_on channel=0 note=77 velocity=59 time=0
note_on channel=0 note=58 velocity=52 time=0
note_on channel=0 note=58 velocity=0 time=120
note_on channel=0 note=62 velocity=51 time=0
note_on channel=0 note=62 velocity=0 time=0
note_on channel=0 note=77 velocity=0 time=0
note_on channel=0 note=70 velocity=0 time=0
note_on channel=0 note=72 velocity=77 time=0
note_on channel=0 note=54 velocity=56 time=0
note_on channel=0 note=72 velocity=0 time=120
note_on channel=0 note=55 velocity=50 time=0
note_on channel=0 note=54 velocity=0 time=24
note_on channel=0 note=75 velocity=59 time=0
note_on channel=0 note=57 velocity=50 time=0
note_on channel=0 note=55 velocity=0 time=24
note_on channel=0 note=55 velocity=50 time=96
note_on channel=0 note=57 velocity=0 time=24
note_on channel=0 note=55 velocity=0 time=0
note_on channel=0 note=75 velocity=0 time=0
note_on channel=0 note=79 velocity=59 time=0
note_on channel=0 note=70 velocity=85 time=0
note_on channel=0 note=51 velocity=50 time=0
note_on channel=0 note=51 velocity=0 time=120
note_on channel=0 note=52 velocity=52 time=0
note_on channel=0 note=79 velocity=0 time=120
note_on channel=0 note=73 velocity=59 time=0
note_on channel=0 note=53 velocity=48 time=0
note_on channel=0 note=52 velocity=0 time=24
note_on channel=0 note=52 velocity=48 time=96
note_on channel=0 note=53 velocity=0 time=24
note_on channel=0 note=73 velocity=0 time=96
note_on channel=0 note=72 velocity=59 time=0
note_on channel=0 note=53 velocity=48 time=0
note_on channel=0 note=52 velocity=0 time=24
note_on channel=0 note=53 velocity=0 time=34
note_on channel=0 note=57 velocity=48 time=0
note_on channel=0 note=57 velocity=0 time=120
note_on channel=0 note=70 velocity=0 time=0
note_on channel=0 note=69 velocity=59 time=0
note_on channel=0 note=60 velocity=48 time=0
note_on channel=0 note=60 velocity=0 time=0
note_on channel=0 note=65 velocity=48 time=0
note_on channel=0 note=65 velocity=0 time=0
note_on channel=0 note=69 velocity=0 time=0
note_on channel=0 note=72 velocity=0 time=0
note_on channel=0 note=89 velocity=83 time=0
note_on channel=0 note=59 velocity=51 time=0
note_on channel=0 note=89 velocity=0 time=120
note_on channel=0 note=60 velocity=51 time=0
note_on channel=0 note=59 velocity=0 time=24
note_on channel=0 note=81 velocity=67 time=0
note_on channel=0 note=62 velocity=51 time=0
note_on channel=0 note=60 velocity=0 time=24
note_on channel=0 note=60 velocity=52 time=0
note_on channel=0 note=62 velocity=0 time=24
note_on channel=0 note=81 velocity=0 time=96
note_on channel=0 note=84 velocity=67 time=0
note_on channel=0 note=87 velocity=89 time=0
note_on channel=0 note=56 velocity=53 time=0
note_on channel=0 note=60 velocity=0 time=24
note_on channel=0 note=57 velocity=53 time=96
note_on channel=0 note=56 velocity=0 time=24
note_on channel=0 note=84 velocity=0 time=96
note_on channel=0 note=78 velocity=67 time=0
note_on channel=0 note=58 velocity=54 time=0
note_on channel=0 note=57 velocity=0 time=24
note_on channel=0 note=57 velocity=51 time=96
note_on channel=0 note=58 velocity=0 time=24
note_on channel=0 note=78 velocity=0 time=96
note_on channel=0 note=77 velocity=67 time=0
note_on channel=0 note=58 velocity=54 time=0
note_on channel=0 note=57 velocity=0 time=24
note_on channel=0 note=57 velocity=53 time=96
note_on channel=0 note=58 velocity=0 time=24
note_on channel=0 note=87 velocity=0 time=96
note_on channel=0 note=86 velocity=71 time=0
note_on channel=0 note=55 velocity=52 time=0
note_on channel=0 note=57 velocity=0 time=24
note_on channel=0 note=53 velocity=51 time=96
note_on channel=0 note=55 velocity=0 time=24
note_on channel=0 note=77 velocity=0 time=0
note_on channel=0 note=86 velocity=0 time=0
note_on channel=0 note=92 velocity=92 time=0
note_on channel=0 note=51 velocity=51 time=0
note_on channel=0 note=53 velocity=0 time=24
note_on channel=0 note=92 velocity=0 time=96
note_on channel=0 note=53 velocity=51 time=0
note_on channel=0 note=51 velocity=0 time=24
note_on channel=0 note=82 velocity=67 time=0
note_on channel=0 note=55 velocity=51 time=0
note_on channel=0 note=53 velocity=0 time=24
note_on channel=0 note=51 velocity=52 time=0
note_on channel=0 note=55 velocity=0 time=24
note_on channel=0 note=82 velocity=0 time=96
note_on channel=0 note=88 velocity=67 time=0
note_on channel=0 note=91 velocity=102 time=0
note_on channel=0 note=50 velocity=53 time=0
note_on channel=0 note=51 velocity=0 time=24
note_on channel=0 note=49 velocity=53 time=96
note_on channel=0 note=50 velocity=0 time=24
note_on channel=0 note=88 velocity=0 time=96
note_on channel=0 note=82 velocity=67 time=0
note_on channel=0 note=48 velocity=54 time=0
note_on channel=0 note=49 velocity=0 time=24
note_on channel=0 note=49 velocity=51 time=96
note_on channel=0 note=48 velocity=0 time=24
note_on channel=0 note=50 velocity=54 time=96
note_on channel=0 note=49 velocity=0 time=24
note_on channel=0 note=52 velocity=53 time=96
note_on channel=0 note=50 velocity=0 time=24
note_on channel=0 note=91 velocity=0 time=96
note_on channel=0 note=82 velocity=0 time=0
note_on channel=0 note=86 velocity=67 time=0
note_on channel=0 note=89 velocity=77 time=0
note_on channel=0 note=53 velocity=52 time=0
note_on channel=0 note=52 velocity=0 time=24
note_on channel=0 note=54 velocity=51 time=96
note_on channel=0 note=53 velocity=0 time=24
note_on channel=0 note=86 velocity=0 time=0
note_on channel=0 note=83 velocity=67 time=0
note_on channel=0 note=55 velocity=51 time=0
note_on channel=0 note=54 velocity=0 time=24
note_on channel=0 note=57 velocity=51 time=96
note_on channel=0 note=55 velocity=0 time=24
note_on channel=0 note=89 velocity=0 time=0
note_on channel=0 note=83 velocity=0 time=0
note_on channel=0 note=79 velocity=67 time=0
note_on channel=0 note=89 velocity=77 time=0
note_on channel=0 note=58 velocity=51 time=0
note_on channel=0 note=57 velocity=0 time=24
note_on channel=0 note=59 velocity=52 time=0
note_on channel=0 note=58 velocity=0 time=24
note_on channel=0 note=79 velocity=0 time=96
note_on channel=0 note=84 velocity=67 time=0
note_on channel=0 note=48 velocity=53 time=0
note_on channel=0 note=59 velocity=0 time=24
note_on channel=0 note=48 velocity=0 time=85
note_on channel=0 note=52 velocity=53 time=0
note_on channel=0 note=52 velocity=0 time=120
note_on channel=0 note=84 velocity=0 time=0
note_on channel=0 note=89 velocity=0 time=0
note_on channel=0 note=79 velocity=67 time=0
note_on channel=0 note=88 velocity=72 time=0
note_on channel=0 note=55 velocity=54 time=0
note_on channel=0 note=55 velocity=0 time=120
note_on channel=0 note=60 velocity=51 time=0
note_on channel=0 note=60 velocity=0 time=23
note_on channel=0 note=88 velocity=0 time=0
note_on channel=0 note=79 velocity=0 time=0
note_on channel=0 note=84 velocity=67 time=0
note_on channel=0 note=87 velocity=77 time=0
note_on channel=0 note=53 velocity=54 time=0
note_on channel=0 note=55 velocity=53 time=120
note_on channel=0 note=53 velocity=0 time=24
note_on channel=0 note=84 velocity=0 time=96
note_on channel=0 note=77 velocity=67 time=0
note_on channel=0 note=56 velocity=52 time=0
note_on channel=0 note=55 velocity=0 time=24
note_on channel=0 note=57 velocity=51 time=96
note_on channel=0 note=56 velocity=0 time=24
note_on channel=0 note=46 velocity=51 time=0
note_on channel=0 note=57 velocity=0 time=1
note_on channel=0 note=46 velocity=0 time=96
note_on channel=0 note=50 velocity=51 time=0
note_on channel=0 note=50 velocity=0 time=0
note_on channel=0 note=77 velocity=0 time=0
note_on channel=0 note=87 velocity=0 time=0
note_on channel=0 note=82 velocity=67 time=0
note_on channel=0 note=86 velocity=77 time=0
note_on channel=0 note=53 velocity=51 time=0
note_on channel=0 note=53 velocity=0 time=0
note_on channel=0 note=58 velocity=52 time=0
note_on channel=0 note=58 velocity=0 time=120
note_on channel=0 note=86 velocity=0 time=0
note_on channel=0 note=82 velocity=0 time=0
note_on channel=0 note=82 velocity=67 time=0
note_on channel=0 note=85 velocity=77 time=0
note_on channel=0 note=52 velocity=53 time=0
note_on channel=0 note=52 velocity=0 time=28
note_on channel=0 note=55 velocity=53 time=0
note_on channel=0 note=55 velocity=0 time=120
note_on channel=0 note=85 velocity=0 time=0
note_on channel=0 note=82 velocity=0 time=0
note_on channel=0 note=70 velocity=67 time=0
note_on channel=0 note=73 velocity=77 time=0
note_on channel=0 note=58 velocity=54 time=0
note_on channel=0 note=58 velocity=0 time=120
note_on channel=0 note=64 velocity=51 time=0
note_on channel=0 note=64 velocity=0 time=120
note_on channel=0 note=70 velocity=0 time=0
note_on channel=0 note=58 velocity=67 time=0
note_on channel=0 note=55 velocity=54 time=0
note_on channel=0 note=55 velocity=0 time=34
note_on channel=0 note=73 velocity=0 time=0
note_on channel=0 note=79 velocity=68 time=0
note_on channel=0 note=52 velocity=53 time=0
note_on channel=0 note=52 velocity=0 time=120
note_on channel=0 note=79 velocity=0 time=0
note_on channel=0 note=58 velocity=0 time=0
note_on channel=0 note=82 velocity=71 time=0
note_on channel=0 note=55 velocity=52 time=0
note_on channel=0 note=55 velocity=0 time=120
note_on channel=0 note=82 velocity=0 time=0
note_on channel=0 note=85 velocity=73 time=0
note_on channel=0 note=52 velocity=51 time=0
note_on channel=0 note=52 velocity=0 time=120
note_on channel=0 note=85 velocity=0 time=0
note_on channel=0 note=76 velocity=76 time=0
note_on channel=0 note=85 velocity=76 time=0
note_on channel=0 note=76 velocity=0 time=34
note_on channel=0 note=77 velocity=64 time=0
note_on channel=0 note=77 velocity=0 time=33
note_on channel=0 note=76 velocity=76 time=0
note_on channel=0 note=76 velocity=0 time=17
note_on channel=0 note=85 velocity=0 time=0
note_on channel=0 note=77 velocity=64 time=0
note_on channel=0 note=84 velocity=69 time=0
note_on channel=0 note=77 velocity=0 time=80
note_on channel=0 note=76 velocity=76 time=0
note_on channel=0 note=84 velocity=0 time=17
note_on channel=0 note=82 velocity=69 time=0
note_on channel=0 note=76 velocity=0 time=40
note_on channel=0 note=77 velocity=64 time=0
note_on channel=0 note=77 velocity=0 time=65
note_on channel=0 note=82 velocity=0 time=0
note_on channel=0 note=76 velocity=76 time=0
note_on channel=0 note=81 velocity=72 time=0
note_on channel=0 note=76 velocity=0 time=25
note_on channel=0 note=77 velocity=64 time=0
note_on channel=0 note=81 velocity=0 time=40
note_on channel=0 note=82 velocity=67 time=0
note_on channel=0 note=77 velocity=0 time=40
note_on channel=0 note=76 velocity=76 time=0
note_on channel=0 note=76 velocity=0 time=65
note_on channel=0 note=82 velocity=0 time=0
note_on channel=0 note=77 velocity=64 time=0
note_on channel=0 note=84 velocity=67 time=0
note_on channel=0 note=77 velocity=0 time=29
note_on channel=0 note=76 velocity=57 time=0
note_on channel=0 note=76 velocity=0 time=60
note_on channel=0 note=84 velocity=0 time=0
note_on channel=0 note=74 velocity=57 time=0
note_on channel=0 note=82 velocity=67 time=0
note_on channel=0 note=74 velocity=0 time=29
note_on channel=0 note=76 velocity=57 time=0
note_on channel=0 note=76 velocity=0 time=0
note_on channel=0 note=82 velocity=0 time=0
note_on channel=0 note=77 velocity=73 time=0
note_on channel=0 note=81 velocity=73 time=0
note_on channel=0 note=41 velocity=67 time=0
note_on channel=0 note=81 velocity=0 time=113
note_on channel=0 note=79 velocity=67 time=0
note_on channel=0 note=79 velocity=0 time=120
note_on channel=0 note=41 velocity=0 time=0
note_on channel=0 note=81 velocity=67 time=0
note_on channel=0 note=81 velocity=0 time=120
note_on channel=0 note=82 velocity=67 time=0
note_on channel=0 note=82 velocity=0 time=17
note_on channel=0 note=77 velocity=0 time=0
note_on channel=0 note=84 velocity=77 time=0
note_on channel=0 note=57 velocity=70 time=0
note_on channel=0 note=57 velocity=0 time=80
note_on channel=0 note=58 velocity=64 time=0
note_on channel=0 note=84 velocity=0 time=17
note_on channel=0 note=82 velocity=71 time=0
note_on channel=0 note=58 velocity=0 time=40
note_on channel=0 note=57 velocity=70 time=0
note_on channel=0 note=57 velocity=0 time=41
note_on channel=0 note=82 velocity=0 time=0
note_on channel=0 note=81 velocity=70 time=0
note_on channel=0 note=58 velocity=62 time=0
note_on channel=0 note=58 velocity=0 time=25
note_on channel=0 note=57 velocity=70 time=0
note_on channel=0 note=81 velocity=0 time=40
note_on channel=0 note=79 velocity=69 time=0
note_on channel=0 note=57 velocity=0 time=9
note_on channel=0 note=58 velocity=62 time=0
note_on channel=0 note=58 velocity=0 time=17
note_on channel=0 note=79 velocity=0 time=0
note_on channel=0 note=77 velocity=68 time=0
note_on channel=0 note=57 velocity=68 time=0
note_on channel=0 note=57 velocity=0 time=20
note_on channel=0 note=58 velocity=59 time=0
note_on channel=0 note=77 velocity=0 time=17
note_on channel=0 note=79 velocity=69 time=0
note_on channel=0 note=58 velocity=0 time=9
note_on channel=0 note=57 velocity=68 time=0
note_on channel=0 note=57 velocity=0 time=41
note_on channel=0 note=79 velocity=0 time=0
note_on channel=0 note=77 velocity=69 time=0
note_on channel=0 note=58 velocity=61 time=0
note_on channel=0 note=58 velocity=0 time=5
note_on channel=0 note=57 velocity=68 time=0
note_on channel=0 note=57 velocity=0 time=17
note_on channel=0 note=77 velocity=0 time=0
note_on channel=0 note=75 velocity=69 time=0
note_on channel=0 note=55 velocity=63 time=0
note_on channel=0 note=55 velocity=0 time=29
note_on channel=0 note=57 velocity=63 time=0
note_on channel=0 note=57 velocity=0 time=0
note_on channel=0 note=75 velocity=0 time=0
note_on channel=0 note=62 velocity=67 time=0
note_on channel=0 note=74 velocity=73 time=0
note_on channel=0 note=58 velocity=63 time=0
note_on channel=0 note=74 velocity=0 time=106
note_on channel=0 note=85 velocity=82 time=0
note_on channel=0 note=85 velocity=0 time=120
note_on channel=0 note=62 velocity=0 time=0
note_on channel=0 note=86 velocity=85 time=0
note_on channel=0 note=86 velocity=0 time=120
note_on channel=0 note=85 velocity=81 time=0
note_on channel=0 note=85 velocity=0 time=17
note_on channel=0 note=58 velocity=0 time=0
note_on channel=0 note=78 velocity=76 time=0
note_on channel=0 note=87 velocity=76 time=0
note_on channel=0 note=78 velocity=0 time=25
note_on channel=0 note=79 velocity=64 time=0
note_on channel=0 note=79 velocity=0 time=33
note_on channel=0 note=78 velocity=76 time=0
note_on channel=0 note=78 velocity=0 time=65
note_on channel=0 note=87 velocity=0 time=0
note_on channel=0 note=79 velocity=64 time=0
note_on channel=0 note=86 velocity=69 time=0
note_on channel=0 note=79 velocity=0 time=25
note_on channel=0 note=78 velocity=76 time=0
note_on channel=0 note=86 velocity=0 time=40
note_on channel=0 note=84 velocity=69 time=0
note_on channel=0 note=78 velocity=0 time=33
note_on channel=0 note=79 velocity=64 time=0
note_on channel=0 note=79 velocity=0 time=17
note_on channel=0 note=84 velocity=0 time=0
note_on channel=0 note=78 velocity=76 time=0
note_on channel=0 note=83 velocity=72 time=0
note_on channel=0 note=78 velocity=0 time=25
note_on channel=0 note=79 velocity=64 time=0
note_on channel=0 note=83 velocity=0 time=40
note_on channel=0 note=84 velocity=67 time=0
note_on channel=0 note=79 velocity=0 time=9
note_on channel=0 note=78 velocity=76 time=0
note_on channel=0 note=78 velocity=0 time=17
note_on channel=0 note=84 velocity=0 time=0
note_on channel=0 note=79 velocity=64 time=0
note_on channel=0 note=86 velocity=67 time=0
note_on channel=0 note=79 velocity=0 time=60
note_on channel=0 note=78 velocity=57 time=0
note_on channel=0 note=78 velocity=0 time=41
note_on channel=0 note=86 velocity=0 time=0
note_on channel=0 note=75 velocity=57 time=0
note_on channel=0 note=84 velocity=67 time=0
note_on channel=0 note=75 velocity=0 time=29
note_on channel=0 note=78 velocity=57 time=0
note_on channel=0 note=78 velocity=0 time=17
note_on channel=0 note=84 velocity=0 time=0
note_on channel=0 note=79 velocity=73 time=0
note_on channel=0 note=83 velocity=73 time=0
note_on channel=0 note=43 velocity=67 time=0
note_on channel=0 note=83 velocity=0 time=103
note_on channel=0 note=81 velocity=67 time=0
note_on channel=0 note=81 velocity=0 time=120
note_on channel=0 note=43 velocity=0 time=0
note_on channel=0 note=83 velocity=67 time=0
note_on channel=0 note=83 velocity=0 time=120
note_on channel=0 note=84 velocity=67 time=0
note_on channel=0 note=84 velocity=0 time=41
note_on channel=0 note=79 velocity=0 time=0
note_on channel=0 note=86 velocity=77 time=0
note_on channel=0 note=59 velocity=70 time=0
note_on channel=0 note=59 velocity=0 time=65
note_on channel=0 note=60 velocity=64 time=0
note_on channel=0 note=86 velocity=0 time=40
note_on channel=0 note=84 velocity=71 time=0
note_on channel=0 note=60 velocity=0 time=9
note_on channel=0 note=59 velocity=70 time=0
note_on channel=0 note=59 velocity=0 time=80
note_on channel=0 note=84 velocity=0 time=0
note_on channel=0 note=83 velocity=70 time=0
note_on channel=0 note=60 velocity=62 time=0
note_on channel=0 note=60 velocity=0 time=1
note_on channel=0 note=59 velocity=70 time=0
note_on channel=0 note=83 velocity=0 time=40
note_on channel=0 note=80 velocity=69 time=0
note_on channel=0 note=59 velocity=0 time=40
note_on channel=0 note=60 velocity=62 time=0
note_on channel=0 note=60 velocity=0 time=17
note_on channel=0 note=80 velocity=0 time=0
note_on channel=0 note=79 velocity=68 time=0
note_on channel=0 note=59 velocity=68 time=0
note_on channel=0 note=59 velocity=0 time=1
note_on channel=0 note=60 velocity=59 time=0
note_on channel=0 note=79 velocity=0 time=40
note_on channel=0 note=80 velocity=69 time=0
note_on channel=0 note=60 velocity=0 time=40
note_on channel=0 note=59 velocity=68 time=0
note_on channel=0 note=59 velocity=0 time=65
note_on channel=0 note=80 velocity=0 time=0
note_on channel=0 note=79 velocity=69 time=0
note_on channel=0 note=60 velocity=61 time=0
note_on channel=0 note=60 velocity=0 time=29
note_on channel=0 note=59 velocity=68 time=0
note_on channel=0 note=59 velocity=0 time=60
note_on channel=0 note=79 velocity=0 time=0
note_on channel=0 note=77 velocity=69 time=0
note_on channel=0 note=57 velocity=63 time=0
note_on channel=0 note=57 velocity=0 time=53
note_on channel=0 note=59 velocity=63 time=0
note_on channel=0 note=59 velocity=0 time=17
note_on channel=0 note=77 velocity=0 time=0
note_on channel=0 note=75 velocity=65 time=0
note_on channel=0 note=67 velocity=65 time=0
note_on channel=0 note=60 velocity=63 time=0
note_on channel=0 note=67 velocity=0 time=109
note_on channel=0 note=71 velocity=66 time=0
note_on channel=0 note=71 velocity=0 time=120
note_on channel=0 note=60 velocity=0 time=0
note_on channel=0 note=75 velocity=0 time=0
note_on channel=0 note=72 velocity=68 time=0
note_on channel=0 note=44 velocity=63 time=0
note_on channel=0 note=72 velocity=0 time=120
note_on channel=0 note=73 velocity=71 time=0
note_on channel=0 note=73 velocity=0 time=41
note_on channel=0 note=44 velocity=0 time=0
note_on channel=0 note=75 velocity=74 time=0
note_on channel=0 note=60 velocity=70 time=0
note_on channel=0 note=60 velocity=0 time=1
note_on channel=0 note=61 velocity=64 time=0
note_on channel=0 note=75 velocity=0 time=40
note_on channel=0 note=73 velocity=74 time=0
note_on channel=0 note=61 velocity=0 time=40
note_on channel=0 note=60 velocity=70 time=0
note_on channel=0 note=60 velocity=0 time=65
note_on channel=0 note=73 velocity=0 time=0
note_on channel=0 note=72 velocity=72 time=0
note_on channel=0 note=61 velocity=62 time=0
note_on channel=0 note=61 velocity=0 time=49
note_on channel=0 note=60 velocity=70 time=0
note_on channel=0 note=72 velocity=0 time=40
note_on channel=0 note=70 velocity=70 time=0
note_on channel=0 note=60 velocity=0 time=9
note_on channel=0 note=61 velocity=62 time=0
note_on channel=0 note=61 velocity=0 time=80
note_on channel=0 note=70 velocity=0 time=0
note_on channel=0 note=68 velocity=78 time=0
note_on channel=0 note=60 velocity=68 time=0
note_on channel=0 note=60 velocity=0 time=37
note_on channel=0 note=61 velocity=59 time=0
note_on channel=0 note=68 velocity=0 time=40
note_on channel=0 note=70 velocity=75 time=0
note_on channel=0 note=61 velocity=0 time=40
note_on channel=0 note=60 velocity=68 time=0
note_on channel=0 note=60 velocity=0 time=17
note_on channel=0 note=70 velocity=0 time=0
note_on channel=0 note=68 velocity=73 time=0
note_on channel=0 note=61 velocity=61 time=0
note_on channel=0 note=61 velocity=0 time=60
note_on channel=0 note=60 velocity=68 time=0
note_on channel=0 note=60 velocity=0 time=60
note_on channel=0 note=68 velocity=0 time=0
note_on channel=0 note=66 velocity=70 time=0
note_on channel=0 note=58 velocity=63 time=0
note_on channel=0 note=58 velocity=0 time=5
note_on channel=0 note=60 velocity=63 time=0
note_on channel=0 note=60 velocity=0 time=60
note_on channel=0 note=66 velocity=0 time=0
note_on channel=0 note=65 velocity=76 time=0
note_on channel=0 note=61 velocity=63 time=0
note_on channel=0 note=73 velocity=70 time=227
note_on channel=0 note=73 velocity=0 time=120
note_on channel=0 note=75 velocity=70 time=0
note_on channel=0 note=75 velocity=0 time=0
note_on channel=0 note=61 velocity=0 time=0
note_on channel=0 note=65 velocity=0 time=0
note_on channel=0 note=77 velocity=76 time=0
note_on channel=0 note=77 velocity=0 time=85
note_on channel=0 note=78 velocity=74 time=0
note_on channel=0 note=78 velocity=0 time=120
note_on channel=0 note=77 velocity=71 time=0
note_on channel=0 note=61 velocity=61 time=0
note_on channel=0 note=61 velocity=0 time=120
note_on channel=0 note=77 velocity=0 time=0
note_on channel=0 note=75 velocity=71 time=0
note_on channel=0 note=60 velocity=61 time=0
note_on channel=0 note=60 velocity=0 time=120
note_on channel=0 note=75 velocity=0 time=0
note_on channel=0 note=73 velocity=72 time=0
note_on channel=0 note=58 velocity=67 time=0
note_on channel=0 note=58 velocity=0 time=5
note_on channel=0 note=73 velocity=0 time=0
note_on channel=0 note=72 velocity=71 time=0
note_on channel=0 note=56 velocity=61 time=0
note_on channel=0 note=56 velocity=0 time=120
note_on channel=0 note=72 velocity=0 time=0
note_on channel=0 note=70 velocity=69 time=0
note_on channel=0 note=54 velocity=61 time=0
note_on channel=0 note=54 velocity=0 time=120
note_on channel=0 note=70 velocity=0 time=0
note_on channel=0 note=68 velocity=68 time=0
note_on channel=0 note=53 velocity=61 time=0
note_on channel=0 note=53 velocity=0 time=120
note_on channel=0 note=68 velocity=0 time=0
note_on channel=0 note=73 velocity=79 time=0
note_on channel=0 note=61 velocity=79 time=0
note_on channel=0 note=58 velocity=69 time=0
note_on channel=0 note=61 velocity=0 time=110
note_on channel=0 note=63 velocity=69 time=0
note_on channel=0 note=63 velocity=0 time=120
note_on channel=0 note=64 velocity=69 time=0
note_on channel=0 note=64 velocity=0 time=0
note_on channel=0 note=65 velocity=69 time=0
note_on channel=0 note=65 velocity=0 time=0
note_on channel=0 note=58 velocity=0 time=0
note_on channel=0 note=66 velocity=74 time=0
note_on channel=0 note=73 velocity=0 time=34
note_on channel=0 note=75 velocity=74 time=0
note_on channel=0 note=75 velocity=0 time=120
note_on channel=0 note=73 velocity=69 time=0
note_on channel=0 note=58 velocity=63 time=0
note_on channel=0 note=58 velocity=0 time=120
note_on channel=0 note=73 velocity=0 time=0
note_on channel=0 note=72 velocity=69 time=0
note_on channel=0 note=56 velocity=61 time=0
note_on channel=0 note=56 velocity=0 time=120
note_on channel=0 note=72 velocity=0 time=0
note_on channel=0 note=66 velocity=0 time=0
note_on channel=0 note=70 velocity=68 time=0
note_on channel=0 note=54 velocity=57 time=0
note_on channel=0 note=54 velocity=0 time=28
note_on channel=0 note=70 velocity=0 time=0
note_on channel=0 note=68 velocity=67 time=0
note_on channel=0 note=53 velocity=58 time=0
note_on channel=0 note=53 velocity=0 time=120
note_on channel=0 note=68 velocity=0 time=0
note_on channel=0 note=66 velocity=66 time=0
note_on channel=0 note=51 velocity=58 time=0
note_on channel=0 note=51 velocity=0 time=0
note_on channel=0 note=66 velocity=0 time=0
note_on channel=0 note=65 velocity=66 time=0
note_on channel=0 note=49 velocity=58 time=0
note_on channel=0 note=49 velocity=0 time=0
note_on channel=0 note=65 velocity=0 time=0
note_on channel=0 note=70 velocity=74 time=0
note_on channel=0 note=58 velocity=74 time=0
note_on channel=0 note=54 velocity=64 time=0
note_on channel=0 note=58 velocity=0 time=111
note_on channel=0 note=60 velocity=68 time=0
note_on channel=0 note=60 velocity=0 time=120
note_on channel=0 note=61 velocity=69 time=0
note_on channel=0 note=61 velocity=0 time=120
note_on channel=0 note=62 velocity=70 time=0
note_on channel=0 note=62 velocity=0 time=120
note_on channel=0 note=54 velocity=0 time=0
note_on channel=0 note=63 velocity=71 time=0
note_on channel=0 note=63 velocity=0 time=120
note_on channel=0 note=62 velocity=67 time=0
note_on channel=0 note=62 velocity=0 time=120
note_on channel=0 note=63 velocity=67 time=0
note_on channel=0 note=54 velocity=61 time=0
note_on channel=0 note=54 velocity=0 time=80
note_on channel=0 note=63 velocity=0 time=0
note_on channel=0 note=70 velocity=0 time=0
note_on channel=0 note=65 velocity=67 time=0
note_on channel=0 note=53 velocity=56 time=0
note_on channel=0 note=53 velocity=0 time=0
note_on channel=0 note=65 velocity=0 time=0
note_on channel=0 note=66 velocity=74 time=0
note_on channel=0 note=51 velocity=61 time=0
note_on channel=0 note=51 velocity=0 time=40
note_on channel=0 note=53 velocity=57 time=0
note_on channel=0 note=53 velocity=0 time=0
note_on channel=0 note=66 velocity=0 time=0
note_on channel=0 note=67 velocity=70 time=0
note_on channel=0 note=70 velocity=80 time=0
note_on channel=0 note=51 velocity=57 time=0
note_on channel=0 note=51 velocity=0 time=51
note_on channel=0 note=49 velocity=57 time=0
note_on channel=0 note=49 velocity=0 time=0
note_on channel=0 note=70 velocity=0 time=0
note_on channel=0 note=67 velocity=0 time=0
note_on channel=0 note=68 velocity=72 time=0
note_on channel=0 note=72 velocity=82 time=0
note_on channel=0 note=48 velocity=61 time=0
note_on channel=0 note=48 velocity=0 time=40
note_on channel=0 note=49 velocity=55 time=0
note_on channel=0 note=49 velocity=0 time=0
note_on channel=0 note=72 velocity=0 time=0
note_on channel=0 note=68 velocity=0 time=0
note_on channel=0 note=73 velocity=83 time=0
note_on channel=0 note=48 velocity=55 time=0
note_on channel=0 note=48 velocity=0 time=45
note_on channel=0 note=46 velocity=55 time=0
note_on channel=0 note=46 velocity=0 time=0
note_on channel=0 note=73 velocity=0 time=0
note_on channel=0 note=66 velocity=79 time=0
note_on channel=0 note=75 velocity=90 time=0
note_on channel=0 note=44 velocity=61 time=0
note_on channel=0 note=44 velocity=0 time=45
note_on channel=0 note=46 velocity=55 time=0
note_on channel=0 note=46 velocity=0 time=120
note_on channel=0 note=48 velocity=56 time=0
note_on channel=0 note=48 velocity=0 time=120
note_on channel=0 note=49 velocity=57 time=0
note_on channel=0 note=49 velocity=0 time=120
note_on channel=0 note=50 velocity=62 time=0
note_on channel=0 note=50 velocity=0 time=11
note_on channel=0 note=51 velocity=57 time=0
note_on channel=0 note=51 velocity=0 time=120
note_on channel=0 note=75 velocity=0 time=0
note_on channel=0 note=66 velocity=0 time=0
note_on channel=0 note=66 velocity=70 time=0
note_on channel=0 note=75 velocity=80 time=0
note_on channel=0 note=53 velocity=57 time=0
note_on channel=0 note=53 velocity=0 time=120
note_on channel=0 note=51 velocity=57 time=0
note_on channel=0 note=51 velocity=0 time=120
note_on channel=0 note=75 velocity=0 time=0
note_on channel=0 note=66 velocity=0 time=0
note_on channel=0 note=66 velocity=74 time=0
note_on channel=0 note=75 velocity=85 time=0
note_on channel=0 note=49 velocity=57 time=0
note_on channel=0 note=49 velocity=0 time=23
note_on channel=0 note=51 velocity=57 time=0
note_on channel=0 note=51 velocity=0 time=120
note_on channel=0 note=75 velocity=0 time=0
note_on channel=0 note=66 velocity=0 time=0
note_on channel=0 note=65 velocity=70 time=0
note_on channel=0 note=73 velocity=80 time=0
note_on channel=0 note=53 velocity=59 time=0
note_on channel=0 note=53 velocity=0 time=63
note_on channel=0 note=54 velocity=59 time=0
note_on channel=0 note=54 velocity=0 time=120
note_on channel=0 note=73 velocity=0 time=0
note_on channel=0 note=65 velocity=0 time=0
note_on channel=0 note=63 velocity=73 time=0
note_on channel=0 note=72 velocity=83 time=0
note_on channel=0 note=55 velocity=61 time=0
note_on channel=0 note=55 velocity=0 time=34
note_on channel=0 note=56 velocity=62 time=0
note_on channel=0 note=56 velocity=0 time=0
note_on channel=0 note=72 velocity=0 time=0
note_on channel=0 note=63 velocity=0 time=0
note_on channel=0 note=61 velocity=70 time=0
note_on channel=0 note=73 velocity=80 time=0
note_on channel=0 note=58 velocity=66 time=0
note_on channel=0 note=58 velocity=0 time=45
note_on channel=0 note=56 velocity=62 time=0
note_on channel=0 note=56 velocity=0 time=0
note_on channel=0 note=73 velocity=0 time=0
note_on channel=0 note=61 velocity=0 time=0
note_on channel=0 note=60 velocity=70 time=0
note_on channel=0 note=63 velocity=70 time=0
note_on channel=0 note=54 velocity=61 time=0
note_on channel=0 note=54 velocity=0 time=34
note_on channel=0 note=53 velocity=62 time=0
note_on channel=0 note=53 velocity=0 time=0
note_on channel=0 note=63 velocity=0 time=0
note_on channel=0 note=60 velocity=0 time=0
note_on channel=0 note=65 velocity=67 time=0
note_on channel=0 note=61 velocity=67 time=0
note_on channel=0 note=51 velocity=60 time=0
note_on channel=0 note=51 velocity=0 time=51
note_on channel=0 note=65 velocity=0 time=0
note_on channel=0 note=66 velocity=68 time=0
note_on channel=0 note=49 velocity=58 time=0
note_on channel=0 note=49 velocity=0 time=120
note_on channel=0 note=66 velocity=0 time=0
note_on channel=0 note=61 velocity=0 time=0
note_on channel=0 note=68 velocity=70 time=0
note_on channel=0 note=60 velocity=70 time=0
note_on channel=0 note=44 velocity=70 time=0
note_on channel=0 note=68 velocity=0 time=45
note_on channel=0 note=70 velocity=71 time=0
note_on channel=0 note=70 velocity=0 time=120
note_on channel=0 note=44 velocity=0 time=0
note_on channel=0 note=60 velocity=0 time=0
note_on channel=0 note=72 velocity=72 time=0
note_on channel=0 note=63 velocity=72 time=0
note_on channel=0 note=72 velocity=0 time=120
note_on channel=0 note=73 velocity=74 time=0
note_on channel=0 note=73 velocity=0 time=120
note_on channel=0 note=63 velocity=0 time=0
note_on channel=0 note=74 velocity=75 time=0
note_on channel=0 note=51 velocity=86 time=0
note_on channel=0 note=42 velocity=75 time=0
note_on channel=0 note=74 velocity=0 time=17
note_on channel=0 note=75 velocity=77 time=0
note_on channel=0 note=75 velocity=0 time=120
note_on channel=0 note=77 velocity=79 time=0
note_on channel=0 note=77 velocity=0 time=120
note_on channel=0 note=75 velocity=76 time=0
note_on channel=0 note=75 velocity=0 time=0
note_on channel=0 note=73 velocity=74 time=0
note_on channel=0 note=73 velocity=0 time=45
note_on channel=0 note=72 velocity=73 time=0
note_on channel=0 note=72 velocity=0 time=0
note_on channel=0 note=42 velocity=0 time=0
note_on channel=0 note=51 velocity=0 time=0
note_on channel=0 note=70 velocity=72 time=0
note_on channel=0 note=42 velocity=65 time=0
note_on channel=0 note=51 velocity=74 time=0
note_on channel=0 note=70 velocity=0 time=120
note_on channel=0 note=68 velocity=71 time=0
note_on channel=0 note=68 velocity=0 time=0
note_on channel=0 note=51 velocity=0 time=0
note_on channel=0 note=42 velocity=0 time=0
note_on channel=0 note=73 velocity=72 time=0
note_on channel=0 note=51 velocity=80 time=0
note_on channel=0 note=42 velocity=70 time=0
note_on channel=0 note=73 velocity=0 time=23
note_on channel=0 note=75 velocity=73 time=0
note_on channel=0 note=75 velocity=0 time=120
note_on channel=0 note=42 velocity=0 time=0
note_on channel=0 note=51 velocity=0 time=0
note_on channel=0 note=77 velocity=75 time=0
note_on channel=0 note=41 velocity=65 time=0
note_on channel=0 note=49 velocity=74 time=0
note_on channel=0 note=77 velocity=0 time=40
note_on channel=0 note=78 velocity=77 time=0
note_on channel=0 note=78 velocity=0 time=120
note_on channel=0 note=49 velocity=0 time=0
note_on channel=0 note=41 velocity=0 time=0
note_on channel=0 note=79 velocity=78 time=0
note_on channel=0 note=39 velocity=70 time=0
note_on channel=0 note=48 velocity=80 time=0
note_on channel=0 note=79 velocity=0 time=23
note_on channel=0 note=80 velocity=76 time=0
note_on channel=0 note=80 velocity=0 time=120
note_on channel=0 note=48 velocity=0 time=0
note_on channel=0 note=39 velocity=0 time=0
note_on channel=0 note=82 velocity=81 time=0
note_on channel=0 note=49 velocity=77 time=0
note_on channel=0 note=37 velocity=67 time=0
note_on channel=0 note=82 velocity=0 time=0
note_on channel=0 note=80 velocity=73 time=0
note_on channel=0 note=80 velocity=0 time=0
note_on channel=0 note=37 velocity=0 time=0
note_on channel=0 note=49 velocity=0 time=0
note_on channel=0 note=78 velocity=79 time=0
note_on channel=0 note=48 velocity=70 time=0
note_on channel=0 note=51 velocity=80 time=0
note_on channel=0 note=78 velocity=0 time=34
note_on channel=0 note=77 velocity=78 time=0
note_on channel=0 note=77 velocity=0 time=0
note_on channel=0 note=51 velocity=0 time=0
note_on channel=0 note=48 velocity=0 time=0
note_on channel=0 note=75 velocity=76 time=0
note_on channel=0 note=53 velocity=72 time=0
note_on channel=0 note=49 velocity=63 time=0
note_on channel=0 note=75 velocity=0 time=40
note_on channel=0 note=73 velocity=75 time=0
note_on channel=0 note=73 velocity=0 time=0
note_on channel=0 note=49 velocity=0 time=0
note_on channel=0 note=53 velocity=0 time=0
note_on channel=0 note=60 velocity=70 time=0
note_on channel=0 note=68 velocity=80 time=0
note_on channel=0 note=60 velocity=0 time=34
note_on channel=0 note=61 velocity=63 time=0
note_on channel=0 note=61 velocity=0 time=0
note_on channel=0 note=68 velocity=0 time=0
note_on channel=0 note=60 velocity=63 time=0
note_on channel=0 note=60 velocity=0 time=120
note_on channel=0 note=58 velocity=65 time=0
note_on channel=0 note=58 velocity=0 time=0
note_on channel=0 note=66 velocity=80 time=0
note_on channel=0 note=56 velocity=68 time=0
note_on channel=0 note=56 velocity=0 time=45
note_on channel=0 note=58 velocity=58 time=0
note_on channel=0 note=58 velocity=0 time=120
note_on channel=0 note=60 velocity=58 time=0
note_on channel=0 note=60 velocity=0 time=120
note_on channel=0 note=61 velocity=58 time=0
note_on channel=0 note=61 velocity=0 time=120
note_on channel=0 note=62 velocity=64 time=0
note_on channel=0 note=62 velocity=0 time=34
note_on channel=0 note=63 velocity=58 time=0
note_on channel=0 note=63 velocity=0 time=120
note_on channel=0 note=66 velocity=0 time=0
note_on channel=0 note=65 velocity=80 time=0
note_on channel=0 note=60 velocity=58 time=0
note_on channel=0 note=60 velocity=0 time=63
note_on channel=0 note=61 velocity=58 time=0
note_on channel=0 note=61 velocity=0 time=0
note_on channel=0 note=65 velocity=0 time=0
note_on channel=0 note=70 velocity=80 time=0
note_on channel=0 note=64 velocity=64 time=0
note_on channel=0 note=37 velocity=63 time=0
note_on channel=0 note=49 velocity=72 time=0
note_on channel=0 note=64 velocity=0 time=34
note_on channel=0 note=65 velocity=58 time=0
note_on channel=0 note=65 velocity=0 time=0
note_on channel=0 note=49 velocity=0 time=0
note_on channel=0 note=37 velocity=0 time=0
note_on channel=0 note=66 velocity=58 time=0
note_on channel=0 note=66 velocity=0 time=120
note_on channel=0 note=65 velocity=58 time=0
note_on channel=0 note=65 velocity=0 time=120
note_on channel=0 note=70 velocity=0 time=0
note_on channel=0 note=62 velocity=68 time=0
note_on channel=0 note=36 velocity=70 time=0
note_on channel=0 note=48 velocity=80 time=0
note_on channel=0 note=62 velocity=0 time=17
note_on channel=0 note=63 velocity=57 time=0
note_on channel=0 note=63 velocity=0 time=120
note_on channel=0 note=67 velocity=57 time=0
note_on channel=0 note=67 velocity=0 time=120
note_on channel=0 note=68 velocity=57 time=0
note_on channel=0 note=68 velocity=0 time=120
note_on channel=0 note=66 velocity=65 time=0
note_on channel=0 note=66 velocity=0 time=34
note_on channel=0 note=67 velocity=58 time=0
note_on channel=0 note=67 velocity=0 time=0
note_on channel=0 note=48 velocity=0 time=0
note_on channel=0 note=36 velocity=0 time=0
note_on channel=0 note=68 velocity=58 time=0
note_on channel=0 note=46 velocity=73 time=0
note_on channel=0 note=34 velocity=64 time=0
note_on channel=0 note=68 velocity=0 time=34
note_on channel=0 note=67 velocity=58 time=0
note_on channel=0 note=67 velocity=0 time=0
note_on channel=0 note=34 velocity=0 time=0
note_on channel=0 note=46 velocity=0 time=0
note_on channel=0 note=73 velocity=70 time=0
note_on channel=0 note=69 velocity=66 time=0
note_on channel=0 note=51 velocity=81 time=0
note_on channel=0 note=39 velocity=71 time=0
note_on channel=0 note=69 velocity=0 time=11
note_on channel=0 note=70 velocity=61 time=0
note_on channel=0 note=70 velocity=0 time=120
note_on channel=0 note=73 velocity=0 time=0
note_on channel=0 note=72 velocity=70 time=0
note_on channel=0 note=72 velocity=0 time=120
note_on channel=0 note=70 velocity=61 time=0
note_on channel=0 note=70 velocity=0 time=120
note_on channel=0 note=51 velocity=0 time=0
note_on channel=0 note=39 velocity=0 time=0
note_on channel=0 note=72 velocity=80 time=0
note_on channel=0 note=67 velocity=68 time=0
note_on channel=0 note=67 velocity=0 time=34
note_on channel=0 note=68 velocity=60 time=0
note_on channel=0 note=68 velocity=0 time=120
note_on channel=0 note=70 velocity=60 time=0
note_on channel=0 note=70 velocity=0 time=120
note_on channel=0 note=68 velocity=60 time=0
note_on channel=0 note=68 velocity=0 time=120
note_on channel=0 note=66 velocity=66 time=0
note_on channel=0 note=66 velocity=0 time=45
note_on channel=0 note=67 velocity=61 time=0
note_on channel=0 note=67 velocity=0 time=0
note_on channel=0 note=72 velocity=0 time=0
note_on channel=0 note=70 velocity=80 time=0
note_on channel=0 note=68 velocity=61 time=0
note_on channel=0 note=68 velocity=0 time=120
note_on channel=0 note=67 velocity=61 time=0
note_on channel=0 note=67 velocity=0 time=0
note_on channel=0 note=70 velocity=0 time=0
note_on channel=0 note=75 velocity=80 time=0
note_on channel=0 note=69 velocity=68 time=0
note_on channel=0 note=43 velocity=63 time=0
note_on channel=0 note=55 velocity=72 time=0
note_on channel=0 note=69 velocity=0 time=28
note_on channel=0 note=70 velocity=62 time=0
note_on channel=0 note=70 velocity=0 time=0
note_on channel=0 note=55 velocity=0 time=0
note_on channel=0 note=43 velocity=0 time=0
note_on channel=0 note=72 velocity=62 time=0
note_on channel=0 note=72 velocity=0 time=120
note_on channel=0 note=70 velocity=62 time=0
note_on channel=0 note=70 velocity=0 time=0
note_on channel=0 note=75 velocity=0 time=0
note_on channel=0 note=68 velocity=68 time=0
note_on channel=0 note=41 velocity=70 time=0
note_on channel=0 note=53 velocity=80 time=0
note_on channel=0 note=68 velocity=0 time=17
note_on channel=0 note=70 velocity=61 time=0
note_on channel=0 note=70 velocity=0 time=120
note_on channel=0 note=72 velocity=61 time=0
note_on channel=0 note=72 velocity=0 time=120
note_on channel=0 note=73 velocity=61 time=0
note_on channel=0 note=73 velocity=0 time=120
note_on channel=0 note=72 velocity=68 time=0
note_on channel=0 note=72 velocity=0 time=17
note_on channel=0 note=73 velocity=63 time=0
note_on channel=0 note=73 velocity=0 time=120
note_on channel=0 note=53 velocity=0 time=0
note_on channel=0 note=41 velocity=0 time=0
note_on channel=0 note=71 velocity=63 time=0
note_on channel=0 note=51 velocity=72 time=0
note_on channel=0 note=39 velocity=63 time=0
note_on channel=0 note=71 velocity=0 time=120
note_on channel=0 note=72 velocity=63 time=0
note_on channel=0 note=72 velocity=0 time=120
note_on channel=0 note=39 velocity=0 time=0
note_on channel=0 note=51 velocity=0 time=0
note_on channel=0 note=77 velocity=80 time=0
note_on channel=0 note=71 velocity=68 time=0
note_on channel=0 note=56 velocity=80 time=0
note_on channel=0 note=44 velocity=70 time=0
note_on channel=0 note=71 velocity=0 time=28
note_on channel=0 note=72 velocity=62 time=0
note_on channel=0 note=72 velocity=0 time=0
note_on channel=0 note=77 velocity=0 time=0
note_on channel=0 note=73 velocity=62 time=0
note_on channel=0 note=73 velocity=0 time=120
note_on channel=0 note=72 velocity=62 time=0
note_on channel=0 note=72 velocity=0 time=0
note_on channel=0 note=56 velocity=0 time=0
note_on channel=0 note=44 velocity=0 time=0
note_on channel=0 note=77 velocity=80 time=0
note_on channel=0 note=69 velocity=68 time=0
note_on channel=0 note=69 velocity=0 time=74
note_on channel=0 note=77 velocity=0 time=0
note_on channel=0 note=70 velocity=63 time=0
note_on channel=0 note=70 velocity=0 time=0
note_on channel=0 note=75 velocity=80 time=0
note_on channel=0 note=72 velocity=63 time=0
note_on channel=0 note=72 velocity=0 time=120
note_on channel=0 note=75 velocity=0 time=0
note_on channel=0 note=70 velocity=63 time=0
note_on channel=0 note=70 velocity=0 time=0
note_on channel=0 note=62 velocity=68 time=0
note_on channel=0 note=55 velocity=72 time=0
note_on channel=0 note=43 velocity=63 time=0
note_on channel=0 note=62 velocity=0 time=11
note_on channel=0 note=63 velocity=63 time=0
note_on channel=0 note=63 velocity=0 time=120
note_on channel=0 note=43 velocity=0 time=0
note_on channel=0 note=55 velocity=0 time=0
note_on channel=0 note=65 velocity=63 time=0
note_on channel=0 note=65 velocity=0 time=120
note_on channel=0 note=63 velocity=63 time=0
note_on channel=0 note=63 velocity=0 time=120
note_on channel=0 note=73 velocity=80 time=0
note_on channel=0 note=67 velocity=68 time=0
note_on channel=0 note=43 velocity=69 time=0
note_on channel=0 note=55 velocity=79 time=0
note_on channel=0 note=67 velocity=0 time=5
note_on channel=0 note=68 velocity=61 time=0
note_on channel=0 note=68 velocity=0 time=0
note_on channel=0 note=55 velocity=0 time=0
note_on channel=0 note=43 velocity=0 time=0
note_on channel=0 note=73 velocity=0 time=0
note_on channel=0 note=70 velocity=61 time=0
note_on channel=0 note=41 velocity=67 time=0
note_on channel=0 note=53 velocity=77 time=0
note_on channel=0 note=70 velocity=0 time=120
note_on channel=0 note=68 velocity=61 time=0
note_on channel=0 note=68 velocity=0 time=0
note_on channel=0 note=53 velocity=0 time=0
note_on channel=0 note=41 velocity=0 time=0
note_on channel=0 note=73 velocity=80 time=0
note_on channel=0 note=67 velocity=68 time=0
note_on channel=0 note=67 velocity=0 time=51
note_on channel=0 note=68 velocity=63 time=0
note_on channel=0 note=68 velocity=0 time=120
note_on channel=0 note=73 velocity=0 time=0
note_on channel=0 note=72 velocity=80 time=0
note_on channel=0 note=70 velocity=63 time=0
note_on channel=0 note=70 velocity=0 time=120
note_on channel=0 note=68 velocity=63 time=0
note_on channel=0 note=68 velocity=0 time=120
note_on channel=0 note=72 velocity=0 time=0
note_on channel=0 note=67 velocity=68 time=0
note_on channel=0 note=63 velocity=68 time=0
note_on channel=0 note=51 velocity=68 time=0
note_on channel=0 note=67 velocity=0 time=34
note_on channel=0 note=68 velocity=62 time=0
note_on channel=0 note=68 velocity=0 time=120
note_on channel=0 note=51 velocity=0 time=0
note_on channel=0 note=63 velocity=0 time=0
note_on channel=0 note=73 velocity=80 time=0
note_on channel=0 note=70 velocity=62 time=0
note_on channel=0 note=70 velocity=0 time=120
note_on channel=0 note=73 velocity=0 time=0
note_on channel=0 note=71 velocity=62 time=0
note_on channel=0 note=71 velocity=0 time=20
note_on channel=0 note=91 velocity=75 time=0
note_on channel=0 note=72 velocity=68 time=0
note_on channel=0 note=63 velocity=68 time=0
note_on channel=0 note=91 velocity=0 time=4
note_on channel=0 note=92 velocity=60 time=0
note_on channel=0 note=72 velocity=0 time=40
note_on channel=0 note=70 velocity=68 time=0
note_on channel=0 note=92 velocity=0 time=36
note_on channel=0 note=91 velocity=68 time=0
note_on channel=0 note=91 velocity=0 time=15
note_on channel=0 note=70 velocity=0 time=5
note_on channel=0 note=63 velocity=0 time=0
note_on channel=0 note=92 velocity=60 time=0
note_on channel=0 note=69 velocity=61 time=0
note_on channel=0 note=61 velocity=60 time=0
note_on channel=0 note=92 velocity=0 time=4
note_on channel=0 note=91 velocity=75 time=0
note_on channel=0 note=69 velocity=0 time=40
note_on channel=0 note=70 velocity=61 time=0
note_on channel=0 note=91 velocity=0 time=36
note_on channel=0 note=92 velocity=60 time=0
note_on channel=0 note=70 velocity=0 time=10
note_on channel=0 note=61 velocity=0 time=0
note_on channel=0 note=92 velocity=0 time=10
note_on channel=0 note=91 velocity=75 time=0
note_on channel=0 note=70 velocity=68 time=0
note_on channel=0 note=61 velocity=68 time=0
note_on channel=0 note=91 velocity=0 time=30
note_on channel=0 note=92 velocity=60 time=0
note_on channel=0 note=70 velocity=0 time=20
note_on channel=0 note=68 velocity=58 time=0
note_on channel=0 note=92 velocity=0 time=40
note_on channel=0 note=91 velocity=75 time=0
note_on channel=0 note=91 velocity=0 time=68
note_on channel=0 note=68 velocity=0 time=0
note_on channel=0 note=61 velocity=0 time=0
note_on channel=0 note=92 velocity=60 time=0
note_on channel=0 note=63 velocity=65 time=0
note_on channel=0 note=60 velocity=59 time=0
note_on channel=0 note=92 velocity=0 time=56
note_on channel=0 note=91 velocity=75 time=0
note_on channel=0 note=91 velocity=0 time=44
note_on channel=0 note=63 velocity=0 time=0
note_on channel=0 note=89 velocity=60 time=0
note_on channel=0 note=68 velocity=60 time=0
note_on channel=0 note=89 velocity=0 time=32
note_on channel=0 note=91 velocity=60 time=0
note_on channel=0 note=91 velocity=0 time=0
note_on channel=0 note=68 velocity=0 time=0
note_on channel=0 note=60 velocity=0 time=0
note_on channel=0 note=92 velocity=75 time=0
note_on channel=0 note=48 velocity=66 time=0
note_on channel=0 note=48 velocity=0 time=120
note_on channel=0 note=92 velocity=0 time=0
note_on channel=0 note=60 velocity=74 time=0
note_on channel=0 note=67 velocity=66 time=240
note_on channel=0 note=92 velocity=67 time=0
note_on channel=0 note=92 velocity=0 time=56
note_on channel=0 note=67 velocity=0 time=0
note_on channel=0 note=91 velocity=62 time=0
note_on channel=0 note=91 velocity=0 time=120
note_on channel=0 note=60 velocity=0 time=0
note_on channel=0 note=68 velocity=74 time=0
note_on channel=0 note=89 velocity=69 time=0
note_on channel=0 note=89 velocity=0 time=17
note_on channel=0 note=87 velocity=60 time=0
note_on channel=0 note=87 velocity=0 time=0
note_on channel=0 note=85 velocity=60 time=0
note_on channel=0 note=85 velocity=0 time=120
note_on channel=0 note=84 velocity=60 time=0
note_on channel=0 note=84 velocity=0 time=0
note_on channel=0 note=68 velocity=0 time=0
note_on channel=0 note=89 velocity=68 time=0
note_on channel=0 note=44 velocity=66 time=0
note_on channel=0 note=44 velocity=0 time=120
note_on channel=0 note=89 velocity=0 time=0
note_on channel=0 note=56 velocity=74 time=0
note_on channel=0 note=64 velocity=66 time=240
note_on channel=0 note=89 velocity=67 time=0
note_on channel=0 note=89 velocity=0 time=45
note_on channel=0 note=64 velocity=0 time=0
note_on channel=0 note=87 velocity=62 time=0
note_on channel=0 note=87 velocity=0 time=120
note_on channel=0 note=56 velocity=0 time=0
note_on channel=0 note=65 velocity=74 time=0
note_on channel=0 note=85 velocity=69 time=0
note_on channel=0 note=85 velocity=0 time=45
note_on channel=0 note=84 velocity=60 time=0
note_on channel=0 note=84 velocity=0 time=120
note_on channel=0 note=82 velocity=60 time=0
note_on channel=0 note=82 velocity=0 time=120
note_on channel=0 note=80 velocity=60 time=0
note_on channel=0 note=80 velocity=0 time=0
note_on channel=0 note=65 velocity=0 time=0
note_on channel=0 note=85 velocity=68 time=0
note_on channel=0 note=41 velocity=59 time=0
note_on channel=0 note=41 velocity=0 time=120
note_on channel=0 note=85 velocity=0 time=0
note_on channel=0 note=53 velocity=66 time=0
note_on channel=0 note=53 velocity=0 time=120
note_on channel=0 note=75 velocity=72 time=0
note_on channel=0 note=85 velocity=67 time=0
note_on channel=0 note=57 velocity=58 time=0
note_on channel=0 note=57 velocity=0 time=120
note_on channel=0 note=85 velocity=0 time=0
note_on channel=0 note=84 velocity=60 time=0
note_on channel=0 note=84 velocity=0 time=120
note_on channel=0 note=75 velocity=0 time=0
note_on channel=0 note=73 velocity=80 time=0
note_on channel=0 note=82 velocity=67 time=0
note_on channel=0 note=58 velocity=68 time=0
note_on channel=0 note=82 velocity=0 time=120
note_on channel=0 note=84 velocity=61 time=0
note_on channel=0 note=84 velocity=0 time=120
note_on channel=0 note=58 velocity=0 time=0
note_on channel=0 note=73 velocity=0 time=0
note_on channel=0 note=70 velocity=68 time=0
note_on channel=0 note=82 velocity=61 time=0
note_on channel=0 note=62 velocity=57 time=0
note_on channel=0 note=82 velocity=0 time=49
note_on channel=0 note=80 velocity=61 time=0
note_on channel=0 note=80 velocity=0 time=120
note_on channel=0 note=62 velocity=0 time=0
note_on channel=0 note=70 velocity=0 time=0
note_on channel=0 note=70 velocity=68 time=0
note_on channel=0 note=79 velocity=67 time=0
note_on channel=0 note=63 velocity=62 time=0
note_on channel=0 note=79 velocity=0 time=35
note_on channel=0 note=80 velocity=62 time=0
note_on channel=0 note=80 velocity=0 time=120
note_on channel=0 note=63 velocity=0 time=0
note_on channel=0 note=70 velocity=0 time=0
note_on channel=0 note=79 velocity=62 time=0
note_on channel=0 note=79 velocity=0 time=120
note_on channel=0 note=77 velocity=62 time=0
note_on channel=0 note=77 velocity=0 time=120
note_on channel=0 note=75 velocity=62 time=0
note_on channel=0 note=58 velocity=67 time=0
note_on channel=0 note=61 velocity=73 time=0
note_on channel=0 note=75 velocity=0 time=14
note_on channel=0 note=77 velocity=61 time=0
note_on channel=0 note=77 velocity=0 time=0
note_on channel=0 note=79 velocity=63 time=0
note_on channel=0 note=79 velocity=0 time=120
note_on channel=0 note=80 velocity=64 time=0
note_on channel=0 note=80 velocity=0 time=0
note_on channel=0 note=81 velocity=66 time=0
note_on channel=0 note=81 velocity=0 time=57
note_on channel=0 note=82 velocity=68 time=0
note_on channel=0 note=61 velocity=0 time=118
note_on channel=0 note=58 velocity=0 time=0
note_on channel=0 note=82 velocity=0 time=0
note_on channel=0 note=84 velocity=69 time=0
note_on channel=0 note=61 velocity=69 time=0
note_on channel=0 note=58 velocity=63 time=0
note_on channel=0 note=84 velocity=0 time=63
note_on channel=0 note=82 velocity=67 time=0
note_on channel=0 note=58 velocity=0 time=118
note_on channel=0 note=61 velocity=0 time=0
note_on channel=0 note=82 velocity=0 time=0
note_on channel=0 note=80 velocity=69 time=0
note_on channel=0 note=58 velocity=65 time=0
note_on channel=0 note=61 velocity=71 time=0
note_on channel=0 note=80 velocity=0 time=17
note_on channel=0 note=82 velocity=64 time=0
note_on channel=0 note=82 velocity=0 time=0
note_on channel=0 note=61 velocity=0 time=0
note_on channel=0 note=58 velocity=0 time=0
note_on channel=0 note=84 velocity=68 time=0
note_on channel=0 note=60 velocity=68 time=0
note_on channel=0 note=56 velocity=62 time=0
note_on channel=0 note=84 velocity=0 time=40
note_on channel=0 note=85 velocity=69 time=0
note_on channel=0 note=85 velocity=0 time=0
note_on channel=0 note=56 velocity=0 time=0
note_on channel=0 note=60 velocity=0 time=0
note_on channel=0 note=86 velocity=72 time=0
note_on channel=0 note=49 velocity=64 time=0
note_on channel=0 note=58 velocity=70 time=0
note_on channel=0 note=86 velocity=0 time=28
note_on channel=0 note=87 velocity=73 time=0
note_on channel=0 note=87 velocity=0 time=120
note_on channel=0 note=58 velocity=0 time=0
note_on channel=0 note=49 velocity=0 time=0
note_on channel=0 note=89 velocity=75 time=0
note_on channel=0 note=56 velocity=62 time=0
note_on channel=0 note=48 velocity=57 time=0
note_on channel=0 note=89 velocity=0 time=51
note_on channel=0 note=87 velocity=71 time=0
note_on channel=0 note=87 velocity=0 time=0
note_on channel=0 note=48 velocity=0 time=0
note_on channel=0 note=56 velocity=0 time=0
note_on channel=0 note=85 velocity=74 time=0
note_on channel=0 note=55 velocity=72 time=0
note_on channel=0 note=46 velocity=66 time=0
note_on channel=0 note=85 velocity=0 time=28
note_on channel=0 note=84 velocity=73 time=0
note_on channel=0 note=84 velocity=0 time=120
note_on channel=0 note=46 velocity=0 time=0
note_on channel=0 note=55 velocity=0 time=0
note_on channel=0 note=82 velocity=71 time=0
note_on channel=0 note=56 velocity=68 time=0
note_on channel=0 note=48 velocity=62 time=0
note_on channel=0 note=82 velocity=0 time=35
note_on channel=0 note=80 velocity=70 time=0
note_on channel=0 note=80 velocity=0 time=0
note_on channel=0 note=48 velocity=0 time=0
note_on channel=0 note=56 velocity=0 time=0
note_on channel=0 note=73 velocity=78 time=0
note_on channel=0 note=82 velocity=78 time=0
note_on channel=0 note=43 velocity=60 time=0
note_on channel=0 note=44 velocity=55 time=102
note_on channel=0 note=43 velocity=0 time=24
note_on channel=0 note=73 velocity=0 time=96
note_on channel=0 note=82 velocity=0 time=0
note_on channel=0 note=43 velocity=55 time=0
note_on channel=0 note=44 velocity=0 time=24
note_on channel=0 note=41 velocity=55 time=96
note_on channel=0 note=43 velocity=0 time=24
note_on channel=0 note=73 velocity=80 time=0
note_on channel=0 note=70 velocity=73 time=0
note_on channel=0 note=39 velocity=55 time=0
note_on channel=0 note=41 velocity=0 time=24
note_on channel=0 note=41 velocity=54 time=96
note_on channel=0 note=39 velocity=0 time=24
note_on channel=0 note=43 velocity=56 time=0
note_on channel=0 note=41 velocity=0 time=24
note_on channel=0 note=44 velocity=57 time=96
note_on channel=0 note=43 velocity=0 time=24
note_on channel=0 note=44 velocity=0 time=0
note_on channel=0 note=45 velocity=59 time=0
note_on channel=0 note=45 velocity=0 time=120
note_on channel=0 note=46 velocity=61 time=0
note_on channel=0 note=70 velocity=0 time=0
note_on channel=0 note=73 velocity=0 time=0
note_on channel=0 note=73 velocity=75 time=0
note_on channel=0 note=65 velocity=69 time=0
note_on channel=0 note=48 velocity=62 time=0
note_on channel=0 note=46 velocity=0 time=24
note_on channel=0 note=46 velocity=60 time=96
note_on channel=0 note=48 velocity=0 time=24
note_on channel=0 note=73 velocity=0 time=94
note_on channel=0 note=65 velocity=0 time=0
note_on channel=0 note=73 velocity=78 time=0
note_on channel=0 note=65 velocity=71 time=0
note_on channel=0 note=43 velocity=62 time=0
note_on channel=0 note=46 velocity=0 time=24
note_on channel=0 note=44 velocity=57 time=96
note_on channel=0 note=43 velocity=0 time=24
note_on channel=0 note=72 velocity=74 time=0
note_on channel=0 note=63 velocity=68 time=0
note_on channel=0 note=46 velocity=61 time=0
note_on channel=0 note=73 velocity=0 time=24
note_on channel=0 note=44 velocity=0 time=0
note_on channel=0 note=65 velocity=0 time=0
note_on channel=0 note=48 velocity=62 time=96
note_on channel=0 note=46 velocity=0 time=24
note_on channel=0 note=61 velocity=70 time=0
note_on channel=0 note=70 velocity=77 time=0
note_on channel=0 note=49 velocity=64 time=0
note_on channel=0 note=72 velocity=0 time=24
note_on channel=0 note=48 velocity=0 time=0
note_on channel=0 note=63 velocity=0 time=0
note_on channel=0 note=51 velocity=65 time=96
note_on channel=0 note=49 velocity=0 time=24
note_on channel=0 note=60 velocity=62 time=96
note_on channel=0 note=68 velocity=68 time=0
note_on channel=0 note=53 velocity=67 time=0
note_on channel=0 note=61 velocity=0 time=24
note_on channel=0 note=51 velocity=0 time=0
note_on channel=0 note=70 velocity=0 time=0
note_on channel=0 note=51 velocity=63 time=96
note_on channel=0 note=53 velocity=0 time=24
note_on channel=0 note=60 velocity=0 time=0
note_on channel=0 note=68 velocity=0 time=0
note_on channel=0 note=51 velocity=0 time=0
note_on channel=0 note=58 velocity=72 time=0
note_on channel=0 note=67 velocity=79 time=0
note_on channel=0 note=49 velocity=72 time=0
note_on channel=0 note=49 velocity=0 time=120
note_on channel=0 note=48 velocity=71 time=0
note_on channel=0 note=48 velocity=0 time=120
note_on channel=0 note=60 velocity=68 time=0
note_on channel=0 note=68 velocity=74 time=0
note_on channel=0 note=46 velocity=69 time=0
note_on channel=0 note=67 velocity=0 time=24
note_on channel=0 note=58 velocity=0 time=0
note_on channel=0 note=46 velocity=0 time=96
note_on channel=0 note=44 velocity=63 time=0
note_on channel=0 note=44 velocity=0 time=14
note_on channel=0 note=60 velocity=0 time=0
note_on channel=0 note=68 velocity=0 time=0
note_on channel=0 note=69 velocity=62 time=0
note_on channel=0 note=63 velocity=71 time=0
note_on channel=0 note=54 velocity=65 time=0
note_on channel=0 note=69 velocity=0 time=8
note_on channel=0 note=70 velocity=57 time=0
note_on channel=0 note=70 velocity=0 time=120
note_on channel=0 note=54 velocity=0 time=0
note_on channel=0 note=63 velocity=0 time=0
note_on channel=0 note=72 velocity=61 time=0
note_on channel=0 note=61 velocity=68 time=0
note_on channel=0 note=53 velocity=62 time=0
note_on channel=0 note=72 velocity=0 time=31
note_on channel=0 note=73 velocity=62 time=0
note_on channel=0 note=73 velocity=0 time=120
note_on channel=0 note=53 velocity=0 time=0
note_on channel=0 note=61 velocity=0 time=0
note_on channel=0 note=75 velocity=64 time=0
note_on channel=0 note=51 velocity=64 time=0
note_on channel=0 note=60 velocity=70 time=0
note_on channel=0 note=75 velocity=0 time=19
note_on channel=0 note=77 velocity=65 time=0
note_on channel=0 note=77 velocity=0 time=120
note_on channel=0 note=60 velocity=0 time=0
note_on channel=0 note=51 velocity=0 time=0
note_on channel=0 note=78 velocity=67 time=0
note_on channel=0 note=49 velocity=57 time=0
note_on channel=0 note=58 velocity=62 time=0
note_on channel=0 note=78 velocity=0 time=42
note_on channel=0 note=77 velocity=63 time=0
note_on channel=0 note=77 velocity=0 time=120
note_on channel=0 note=58 velocity=0 time=0
note_on channel=0 note=49 velocity=0 time=0
note_on channel=0 note=75 velocity=66 time=0
note_on channel=0 note=57 velocity=72 time=0
note_on channel=0 note=48 velocity=66 time=0
note_on channel=0 note=75 velocity=0 time=19
note_on channel=0 note=73 velocity=65 time=0
note_on channel=0 note=73 velocity=0 time=120
note_on channel=0 note=48 velocity=0 time=0
note_on channel=0 note=57 velocity=0 time=0
note_on channel=0 note=72 velocity=63 time=0
note_on channel=0 note=49 velocity=62 time=0
note_on channel=0 note=58 velocity=68 time=0
note_on channel=0 note=72 velocity=0 time=26
note_on channel=0 note=70 velocity=63 time=0
note_on channel=0 note=70 velocity=0 time=0
note_on channel=0 note=58 velocity=0 time=0
note_on channel=0 note=49 velocity=0 time=0
note_on channel=0 note=75 velocity=78 time=0
note_on channel=0 note=66 velocity=71 time=0
note_on channel=0 note=45 velocity=62 time=0
note_on channel=0 note=46 velocity=57 time=108
note_on channel=0 note=45 velocity=0 time=24
note_on channel=0 note=73 velocity=74 time=0
note_on channel=0 note=65 velocity=68 time=0
note_on channel=0 note=48 velocity=61 time=0
note_on channel=0 note=75 velocity=0 time=24
note_on channel=0 note=46 velocity=0 time=0
note_on channel=0 note=66 velocity=0 time=0
note_on channel=0 note=49 velocity=62 time=96
note_on channel=0 note=48 velocity=0 time=24
note_on channel=0 note=63 velocity=70 time=0
note_on channel=0 note=72 velocity=77 time=0
note_on channel=0 note=51 velocity=64 time=0
note_on channel=0 note=73 velocity=0 time=24
note_on channel=0 note=49 velocity=0 time=0
note_on channel=0 note=65 velocity=0 time=0
note_on channel=0 note=53 velocity=65 time=96
note_on channel=0 note=51 velocity=0 time=24
note_on channel=0 note=61 velocity=62 time=96
note_on channel=0 note=70 velocity=68 time=0
note_on channel=0 note=54 velocity=67 time=0
note_on channel=0 note=63 velocity=0 time=24
note_on channel=0 note=53 velocity=0 time=0
note_on channel=0 note=72 velocity=0 time=0
note_on channel=0 note=53 velocity=63 time=96
note_on channel=0 note=54 velocity=0 time=24
note_on channel=0 note=61 velocity=0 time=0
note_on channel=0 note=70 velocity=0 time=0
note_on channel=0 note=53 velocity=0 time=0
note_on channel=0 note=60 velocity=72 time=0
note_on channel=0 note=69 velocity=79 time=0
note_on channel=0 note=51 velocity=72 time=0
note_on channel=0 note=51 velocity=0 time=120
note_on channel=0 note=49 velocity=71 time=0
note_on channel=0 note=49 velocity=0 time=120
note_on channel=0 note=61 velocity=68 time=0
note_on channel=0 note=70 velocity=74 time=0
note_on channel=0 note=48 velocity=69 time=0
note_on channel=0 note=69 velocity=0 time=24
note_on channel=0 note=60 velocity=0 time=0
note_on channel=0 note=48 velocity=0 time=96
note_on channel=0 note=46 velocity=63 time=0
note_on channel=0 note=46 velocity=0 time=57
note_on channel=0 note=61 velocity=0 time=0
note_on channel=0 note=70 velocity=0 time=0
note_on channel=0 note=50 velocity=62 time=0
note_on channel=0 note=44 velocity=71 time=0
note_on channel=0 note=51 velocity=57 time=9
note_on channel=0 note=50 velocity=0 time=24
note_on channel=0 note=53 velocity=61 time=9
note_on channel=0 note=43 velocity=68 time=0
note_on channel=0 note=51 velocity=0 time=24
note_on channel=0 note=44 velocity=0 time=0
note_on channel=0 note=55 velocity=62 time=33
note_on channel=0 note=53 velocity=0 time=9
note_on channel=0 note=56 velocity=64 time=57
note_on channel=0 note=41 velocity=70 time=0
note_on channel=0 note=55 velocity=0 time=9
note_on channel=0 note=43 velocity=0 time=0
note_on channel=0 note=58 velocity=65 time=9
note_on channel=0 note=56 velocity=0 time=24
note_on channel=0 note=59 velocity=67 time=57
note_on channel=0 note=39 velocity=62 time=0
note_on channel=0 note=58 velocity=0 time=9
note_on channel=0 note=41 velocity=0 time=0
note_on channel=0 note=58 velocity=63 time=9
note_on channel=0 note=59 velocity=0 time=24
note_on channel=0 note=56 velocity=66 time=33
note_on channel=0 note=38 velocity=72 time=0
note_on channel=0 note=58 velocity=0 time=9
note_on channel=0 note=39 velocity=0 time=0
note_on channel=0 note=55 velocity=65 time=9
note_on channel=0 note=56 velocity=0 time=24
note_on channel=0 note=53 velocity=63 time=33
note_on channel=0 note=39 velocity=68 time=0
note_on channel=0 note=55 velocity=0 time=24
note_on channel=0 note=38 velocity=0 time=0
note_on channel=0 note=51 velocity=63 time=0
note_on channel=0 note=53 velocity=0 time=24
note_on channel=0 note=51 velocity=0 time=0
note_on channel=0 note=39 velocity=0 time=0
note_on channel=0 note=52 velocity=62 time=0
note_on channel=0 note=46 velocity=71 time=0
note_on channel=0 note=53 velocity=57 time=120
note_on channel=0 note=52 velocity=0 time=9
note_on channel=0 note=55 velocity=61 time=33
note_on channel=0 note=44 velocity=68 time=0
note_on channel=0 note=53 velocity=0 time=24
note_on channel=0 note=46 velocity=0 time=0
note_on channel=0 note=56 velocity=62 time=81
note_on channel=0 note=55 velocity=0 time=9
note_on channel=0 note=58 velocity=64 time=33
note_on channel=0 note=43 velocity=70 time=0
note_on channel=0 note=56 velocity=0 time=24
note_on channel=0 note=44 velocity=0 time=0
note_on channel=0 note=60 velocity=65 time=57
note_on channel=0 note=58 velocity=0 time=9
note_on channel=0 note=61 velocity=67 time=57
note_on channel=0 note=41 velocity=62 time=0
note_on channel=0 note=60 velocity=0 time=9
note_on channel=0 note=43 velocity=0 time=0
note_on channel=0 note=60 velocity=63 time=9
note_on channel=0 note=61 velocity=0 time=24
note_on channel=0 note=58 velocity=66 time=9
note_on channel=0 note=40 velocity=72 time=0
note_on channel=0 note=60 velocity=0 time=24
note_on channel=0 note=41 velocity=0 time=0
note_on channel=0 note=56 velocity=65 time=9
note_on channel=0 note=58 velocity=0 time=24
note_on channel=0 note=55 velocity=63 time=33
note_on channel=0 note=41 velocity=68 time=0
note_on channel=0 note=56 velocity=0 time=24
note_on channel=0 note=40 velocity=0 time=0
note_on channel=0 note=53 velocity=63 time=0
note_on channel=0 note=55 velocity=0 time=24
note_on channel=0 note=53 velocity=0 time=0
note_on channel=0 note=41 velocity=0 time=0
note_on channel=0 note=75 velocity=78 time=0
note_on channel=0 note=71 velocity=71 time=0
note_on channel=0 note=53 velocity=62 time=0
note_on channel=0 note=54 velocity=57 time=120
note_on channel=0 note=53 velocity=0 time=24
note_on channel=0 note=73 velocity=74 time=0
note_on channel=0 note=70 velocity=68 time=0
note_on channel=0 note=56 velocity=61 time=0
note_on channel=0 note=75 velocity=0 time=24
note_on channel=0 note=54 velocity=0 time=0
note_on channel=0 note=71 velocity=0 time=0
note_on channel=0 note=58 velocity=62 time=96
note_on channel=0 note=56 velocity=0 time=24
note_on channel=0 note=68 velocity=70 time=0
note_on channel=0 note=71 velocity=77 time=0
note_on channel=0 note=59 velocity=64 time=0
note_on channel=0 note=73 velocity=0 time=24
note_on channel=0 note=58 velocity=0 time=0
note_on channel=0 note=70 velocity=0 time=0
note_on channel=0 note=61 velocity=65 time=96
note_on channel=0 note=59 velocity=0 time=24
note_on channel=0 note=66 velocity=62 time=96
note_on channel=0 note=70 velocity=68 time=0
note_on channel=0 note=63 velocity=67 time=0
note_on channel=0 note=68 velocity=0 time=24
note_on channel=0 note=61 velocity=0 time=0
note_on channel=0 note=71 velocity=0 time=0
note_on channel=0 note=61 velocity=63 time=96
note_on channel=0 note=63 velocity=0 time=24
note_on channel=0 note=66 velocity=0 time=0
note_on channel=0 note=70 velocity=0 time=0
note_on channel=0 note=65 velocity=72 time=0
note_on channel=0 note=68 velocity=79 time=0
note_on channel=0 note=59 velocity=72 time=0
note_on channel=0 note=61 velocity=0 time=24
note_on channel=0 note=58 velocity=71 time=96
note_on channel=0 note=59 velocity=0 time=24
note_on channel=0 note=66 velocity=68 time=96
note_on channel=0 note=70 velocity=74 time=0
note_on channel=0 note=56 velocity=69 time=0
note_on channel=0 note=65 velocity=0 time=24
note_on channel=0 note=58 velocity=0 time=0
note_on channel=0 note=68 velocity=0 time=0
note_on channel=0 note=54 velocity=63 time=0
note_on channel=0 note=56 velocity=0 time=24
note_on channel=0 note=66 velocity=0 time=0
note_on channel=0 note=70 velocity=0 time=0
note_on channel=0 note=54 velocity=0 time=0
note_on channel=0 note=85 velocity=78 time=0
note_on channel=0 note=76 velocity=71 time=0
note_on channel=0 note=43 velocity=62 time=0
note_on channel=0 note=44 velocity=57 time=120
note_on channel=0 note=43 velocity=0 time=24
note_on channel=0 note=83 velocity=74 time=0
note_on channel=0 note=75 velocity=68 time=0
note_on channel=0 note=46 velocity=61 time=0
note_on channel=0 note=85 velocity=0 time=24
note_on channel=0 note=44 velocity=0 time=0
note_on channel=0 note=76 velocity=0 time=0
note_on channel=0 note=47 velocity=62 time=96
note_on channel=0 note=46 velocity=0 time=24
note_on channel=0 note=73 velocity=70 time=0
note_on channel=0 note=82 velocity=77 time=0
note_on channel=0 note=49 velocity=64 time=0
note_on channel=0 note=83 velocity=0 time=24
note_on channel=0 note=47 velocity=0 time=0
note_on channel=0 note=75 velocity=0 time=0
note_on channel=0 note=51 velocity=65 time=96
note_on channel=0 note=49 velocity=0 time=24
note_on channel=0 note=71 velocity=62 time=96
note_on channel=0 note=80 velocity=68 time=0
note_on channel=0 note=52 velocity=67 time=0
note_on channel=0 note=73 velocity=0 time=24
note_on channel=0 note=51 velocity=0 time=0
note_on channel=0 note=82 velocity=0 time=0
note_on channel=0 note=51 velocity=63 time=96
note_on channel=0 note=52 velocity=0 time=24
note_on channel=0 note=71 velocity=0 time=0
note_on channel=0 note=80 velocity=0 time=0
note_on channel=0 note=70 velocity=72 time=0
note_on channel=0 note=79 velocity=79 time=0
note_on channel=0 note=49 velocity=72 time=0
note_on channel=0 note=51 velocity=0 time=24
note_on channel=0 note=47 velocity=71 time=96
note_on channel=0 note=49 velocity=0 time=24
note_on channel=0 note=71 velocity=68 time=0
note_on channel=0 note=80 velocity=74 time=0
note_on channel=0 note=46 velocity=69 time=0
note_on channel=0 note=70 velocity=0 time=24
note_on channel=0 note=47 velocity=0 time=0
note_on channel=0 note=79 velocity=0 time=0
note_on channel=0 note=44 velocity=63 time=96
note_on channel=0 note=46 velocity=0 time=24
note_on channel=0 note=42 velocity=63 time=0
note_on channel=0 note=44 velocity=0 time=24
note_on channel=0 note=40 velocity=63 time=96
note_on channel=0 note=42 velocity=0 time=24
note_on channel=0 note=71 velocity=0 time=0
note_on channel=0 note=80 velocity=0 time=0
note_on channel=0 note=80 velocity=78 time=0
note_on channel=0 note=83 velocity=85 time=0
note_on channel=0 note=39 velocity=63 time=0
note_on channel=0 note=40 velocity=0 time=24
note_on channel=0 note=38 velocity=63 time=96
note_on channel=0 note=39 velocity=0 time=24
note_on channel=0 note=38 velocity=0 time=96
note_on channel=0 note=39 velocity=63 time=0
note_on channel=0 note=39 velocity=0 time=120
note_on channel=0 note=43 velocity=63 time=0
note_on channel=0 note=43 velocity=0 time=17
note_on channel=0 note=83 velocity=0 time=0
note_on channel=0 note=80 velocity=0 time=0
note_on channel=0 note=79 velocity=82 time=0
note_on channel=0 note=82 velocity=90 time=0
note_on channel=0 note=46 velocity=63 time=0
note_on channel=0 note=46 velocity=0 time=3
note_on channel=0 note=51 velocity=63 time=0
note_on channel=0 note=51 velocity=0 time=27
note_on channel=0 note=82 velocity=0 time=0
note_on channel=0 note=79 velocity=0 time=0
note_on channel=0 note=73 velocity=66 time=0
note_on channel=0 note=76 velocity=78 time=0
note_on channel=0 note=43 velocity=60 time=0
note_on channel=0 note=55 velocity=84 time=0
note_on channel=0 note=55 velocity=0 time=11
note_on channel=0 note=56 velocity=70 time=0
note_on channel=0 note=56 velocity=0 time=14
note_on channel=0 note=55 velocity=74 time=0
note_on channel=0 note=55 velocity=0 time=17
note_on channel=0 note=56 velocity=67 time=0
note_on channel=0 note=56 velocity=0 time=20
note_on channel=0 note=55 velocity=73 time=0
note_on channel=0 note=55 velocity=0 time=23
note_on channel=0 note=56 velocity=64 time=0
note_on channel=0 note=56 velocity=0 time=7
note_on channel=0 note=55 velocity=72 time=0
note_on channel=0 note=55 velocity=0 time=11
note_on channel=0 note=56 velocity=64 time=0
note_on channel=0 note=56 velocity=0 time=33
note_on channel=0 note=55 velocity=70 time=0
note_on channel=0 note=55 velocity=0 time=55
note_on channel=0 note=73 velocity=0 time=0
note_on channel=0 note=76 velocity=0 time=0
note_on channel=0 note=73 velocity=64 time=0
note_on channel=0 note=76 velocity=76 time=0
note_on channel=0 note=56 velocity=64 time=0
note_on channel=0 note=56 velocity=0 time=0
note_on channel=0 note=55 velocity=75 time=0
note_on channel=0 note=55 velocity=0 time=0
note_on channel=0 note=53 velocity=65 time=0
note_on channel=0 note=53 velocity=0 time=60
note_on channel=0 note=55 velocity=70 time=0
note_on channel=0 note=55 velocity=0 time=0
note_on channel=0 note=43 velocity=0 time=0
note_on channel=0 note=44 velocity=75 time=0
note_on channel=0 note=56 velocity=83 time=0
note_on channel=0 note=76 velocity=0 time=0
note_on channel=0 note=73 velocity=0 time=0
note_on channel=0 note=71 velocity=52 time=0
note_on channel=0 note=75 velocity=62 time=0
note_on channel=0 note=75 velocity=0 time=0
note_on channel=0 note=71 velocity=0 time=0
note_on channel=0 note=70 velocity=57 time=0
note_on channel=0 note=73 velocity=68 time=0
note_on channel=0 note=73 velocity=0 time=0
note_on channel=0 note=70 velocity=0 time=0
note_on channel=0 note=68 velocity=56 time=0
note_on channel=0 note=71 velocity=66 time=0
note_on channel=0 note=71 velocity=0 time=0
note_on channel=0 note=56 velocity=0 time=0
note_on channel=0 note=44 velocity=0 time=0
note_on channel=0 note=68 velocity=0 time=0
note_on channel=0 note=67 velocity=59 time=0
note_on channel=0 note=70 velocity=70 time=0
note_on channel=0 note=51 velocity=70 time=0
note_on channel=0 note=39 velocity=59 time=0
note_on channel=0 note=70 velocity=0 time=103
note_on channel=0 note=67 velocity=0 time=0
note_on channel=0 note=68 velocity=56 time=0
note_on channel=0 note=71 velocity=66 time=0
note_on channel=0 note=71 velocity=0 time=0
note_on channel=0 note=39 velocity=0 time=0
note_on channel=0 note=51 velocity=0 time=0
note_on channel=0 note=68 velocity=0 time=0
note_on channel=0 note=70 velocity=57 time=0
note_on channel=0 note=73 velocity=68 time=0
note_on channel=0 note=37 velocity=59 time=0
note_on channel=0 note=49 velocity=70 time=0
note_on channel=0 note=73 velocity=0 time=0
note_on channel=0 note=70 velocity=0 time=0
note_on channel=0 note=71 velocity=60 time=0
note_on channel=0 note=75 velocity=71 time=0
note_on channel=0 note=37 velocity=0 time=0
note_on channel=0 note=49 velocity=0 time=0
note_on channel=0 note=41 velocity=60 time=0
note_on channel=0 note=53 velocity=84 time=0
note_on channel=0 note=53 velocity=0 time=5
note_on channel=0 note=54 velocity=70 time=0
note_on channel=0 note=54 velocity=0 time=14
note_on channel=0 note=53 velocity=74 time=0
note_on channel=0 note=71 velocity=0 time=15
note_on channel=0 note=75 velocity=0 time=0
note_on channel=0 note=53 velocity=0 time=2
note_on channel=0 note=71 velocity=59 time=0
note_on channel=0 note=75 velocity=70 time=0
note_on channel=0 note=54 velocity=67 time=0
note_on channel=0 note=54 velocity=0 time=20
note_on channel=0 note=53 velocity=73 time=0
note_on channel=0 note=53 velocity=0 time=23
note_on channel=0 note=54 velocity=64 time=0
note_on channel=0 note=75 velocity=0 time=5
note_on channel=0 note=71 velocity=0 time=0
note_on channel=0 note=54 velocity=0 time=2
note_on channel=0 note=75 velocity=85 time=0
note_on channel=0 note=71 velocity=72 time=0
note_on channel=0 note=53 velocity=72 time=0
note_on channel=0 note=53 velocity=0 time=11
note_on channel=0 note=54 velocity=64 time=0
note_on channel=0 note=54 velocity=0 time=33
note_on channel=0 note=53 velocity=70 time=0
note_on channel=0 note=53 velocity=0 time=55
note_on channel=0 note=54 velocity=64 time=0
note_on channel=0 note=54 velocity=0 time=0
note_on channel=0 note=53 velocity=75 time=0
note_on channel=0 note=53 velocity=0 time=0
note_on channel=0 note=51 velocity=65 time=0
note_on channel=0 note=51 velocity=0 time=60
note_on channel=0 note=53 velocity=70 time=0
note_on channel=0 note=53 velocity=0 time=0
note_on channel=0 note=41 velocity=0 time=0
note_on channel=0 note=54 velocity=83 time=0
note_on channel=0 note=42 velocity=75 time=0
note_on channel=0 note=71 velocity=0 time=0
note_on channel=0 note=75 velocity=0 time=0
note_on channel=0 note=73 velocity=76 time=0
note_on channel=0 note=70 velocity=52 time=0
note_on channel=0 note=54 velocity=0 time=0
note_on channel=0 note=42 velocity=0 time=0
note_on channel=0 note=37 velocity=59 time=0
note_on channel=0 note=49 velocity=70 time=0
note_on channel=0 note=73 velocity=0 time=0
note_on channel=0 note=70 velocity=0 time=0
note_on channel=0 note=68 velocity=56 time=0
note_on channel=0 note=71 velocity=66 time=0
note_on channel=0 note=71 velocity=0 time=0
note_on channel=0 note=49 velocity=0 time=0
note_on channel=0 note=37 velocity=0 time=0
note_on channel=0 note=68 velocity=0 time=0
note_on channel=0 note=66 velocity=47 time=0
note_on channel=0 note=70 velocity=56 time=0
note_on channel=0 note=39 velocity=47 time=0
note_on channel=0 note=51 velocity=56 time=0
note_on channel=0 note=70 velocity=0 time=114
note_on channel=0 note=66 velocity=0 time=0
note_on channel=0 note=68 velocity=52 time=0
note_on channel=0 note=65 velocity=44 time=0
note_on channel=0 note=65 velocity=0 time=0
note_on channel=0 note=51 velocity=0 time=0
note_on channel=0 note=39 velocity=0 time=0
note_on channel=0 note=68 velocity=0 time=0
note_on channel=0 note=70 velocity=54 time=0
note_on channel=0 note=66 velocity=45 time=0
note_on channel=0 note=47 velocity=56 time=0
note_on channel=0 note=35 velocity=47 time=0
note_on channel=0 note=66 velocity=0 time=0
note_on channel=0 note=70 velocity=0 time=0
note_on channel=0 note=68 velocity=48 time=0
note_on channel=0 note=71 velocity=56 time=0
note_on channel=0 note=71 velocity=0 time=240
note_on channel=0 note=68 velocity=0 time=0
note_on channel=0 note=66 velocity=56 time=0
note_on channel=0 note=73 velocity=56 time=0
note_on channel=0 note=73 velocity=0 time=113
note_on channel=0 note=35 velocity=0 time=0
note_on channel=0 note=47 velocity=0 time=0
note_on channel=0 note=66 velocity=0 time=0
note_on channel=0 note=66 velocity=51 time=0
note_on channel=0 note=75 velocity=60 time=0
note_on channel=0 note=46 velocity=45 time=0
note_on channel=0 note=34 velocity=38 time=0
note_on channel=0 note=34 velocity=0 time=0
note_on channel=0 note=46 velocity=0 time=0
note_on channel=0 note=66 velocity=0 time=0
note_on channel=0 note=65 velocity=54 time=0
note_on channel=0 note=44 velocity=45 time=0
note_on channel=0 note=32 velocity=38 time=0
note_on channel=0 note=32 velocity=0 time=162
note_on channel=0 note=75 velocity=0 time=0
note_on channel=0 note=65 velocity=0 time=0
note_on channel=0 note=44 velocity=0 time=0
note_on channel=0 note=66 velocity=45 time=0
note_on channel=0 note=73 velocity=54 time=0
note_on channel=0 note=46 velocity=45 time=0
note_on channel=0 note=34 velocity=38 time=0
note_on channel=0 note=34 velocity=0 time=0
note_on channel=0 note=46 velocity=0 time=0
note_on channel=0 note=66 velocity=0 time=0
note_on channel=0 note=68 velocity=40 time=0
note_on channel=0 note=35 velocity=38 time=0
note_on channel=0 note=47 velocity=45 time=0
note_on channel=0 note=68 velocity=0 time=35
note_on channel=0 note=66 velocity=53 time=0
note_on channel=0 note=66 velocity=0 time=80
note_on channel=0 note=47 velocity=0 time=0
note_on channel=0 note=35 velocity=0 time=0
note_on channel=0 note=73 velocity=0 time=0
note_on channel=0 note=65 velocity=40 time=0
note_on channel=0 note=73 velocity=48 time=0
note_on channel=0 note=49 velocity=45 time=0
note_on channel=0 note=37 velocity=38 time=0
note_on channel=0 note=65 velocity=0 time=56
note_on channel=0 note=68 velocity=48 time=0
note_on channel=0 note=68 velocity=0 time=0
note_on channel=0 note=37 velocity=0 time=0
note_on channel=0 note=49 velocity=0 time=0
note_on channel=0 note=73 velocity=0 time=0
note_on channel=0 note=66 velocity=46 time=0
note_on channel=0 note=70 velocity=39 time=0
note_on channel=0 note=30 velocity=39 time=0
note_on channel=0 note=42 velocity=39 time=0
note_on channel=0 note=70 velocity=0 time=21
note_on channel=0 note=58 velocity=46 time=0
note_on channel=0 note=58 velocity=0 time=120
note_on channel=0 note=66 velocity=0 time=0
note_on channel=0 note=61 velocity=40 time=0
note_on channel=0 note=61 velocity=0 time=120
note_on channel=0 note=66 velocity=40 time=0
note_on channel=0 note=66 velocity=0 time=0
note_on channel=0 note=30 velocity=0 time=0
note_on channel=0 note=42 velocity=0 time=0
note_on channel=0 note=70 velocity=52 time=0
note_on channel=0 note=70 velocity=0 time=92
note_on channel=0 note=66 velocity=40 time=0
note_on channel=0 note=66 velocity=0 time=80
note_on channel=0 note=65 velocity=40 time=0
note_on channel=0 note=71 velocity=54 time=0
note_on channel=0 note=71 velocity=0 time=0
note_on channel=0 note=65 velocity=0 time=0
note_on channel=0 note=63 velocity=40 time=0
note_on channel=0 note=63 velocity=0 time=0
note_on channel=0 note=65 velocity=41 time=0
note_on channel=0 note=73 velocity=57 time=0
note_on channel=0 note=49 velocity=35 time=120
note_on channel=0 note=49 velocity=0 time=120
note_on channel=0 note=73 velocity=0 time=0
note_on channel=0 note=65 velocity=0 time=0
note_on channel=0 note=66 velocity=40 time=0
note_on channel=0 note=51 velocity=35 time=0
note_on channel=0 note=51 velocity=0 time=120
note_on channel=0 note=66 velocity=0 time=0
note_on channel=0 note=68 velocity=40 time=0
note_on channel=0 note=53 velocity=35 time=0
note_on channel=0 note=53 velocity=0 time=120
note_on channel=0 note=68 velocity=0 time=0
note_on channel=0 note=70 velocity=50 time=0
note_on channel=0 note=54 velocity=40 time=0
note_on channel=0 note=54 velocity=0 time=7
note_on channel=0 note=46 velocity=35 time=0
note_on channel=0 note=46 velocity=0 time=120
note_on channel=0 note=49 velocity=35 time=0
note_on channel=0 note=49 velocity=0 time=120
note_on channel=0 note=54 velocity=35 time=0
note_on channel=0 note=54 velocity=0 time=0
note_on channel=0 note=70 velocity=0 time=0
note_on channel=0 note=58 velocity=51 time=0
note_on channel=0 note=58 velocity=0 time=77
note_on channel=0 note=78 velocity=58 time=0
note_on channel=0 note=78 velocity=0 time=120
note_on channel=0 note=77 velocity=54 time=0
note_on channel=0 note=59 velocity=54 time=0
note_on channel=0 note=59 velocity=0 time=0
note_on channel=0 note=77 velocity=0 time=0
note_on channel=0 note=75 velocity=58 time=0
note_on channel=0 note=75 velocity=0 time=0
note_on channel=0 note=77 velocity=65 time=0
note_on channel=0 note=61 velocity=56 time=0
note_on channel=0 note=77 velocity=0 time=106
note_on channel=0 note=78 velocity=62 time=0
note_on channel=0 note=78 velocity=0 time=120
note_on channel=0 note=80 velocity=68 time=0
note_on channel=0 note=61 velocity=0 time=120
note_on channel=0 note=77 velocity=67 time=0
note_on channel=0 note=77 velocity=0 time=23
note_on channel=0 note=65 velocity=56 time=0
note_on channel=0 note=65 velocity=0 time=120
note_on channel=0 note=68 velocity=60 time=0
note_on channel=0 note=68 velocity=0 time=120
note_on channel=0 note=73 velocity=64 time=0
note_on channel=0 note=73 velocity=0 time=120
note_on channel=0 note=77 velocity=70 time=0
note_on channel=0 note=80 velocity=0 time=120
note_on channel=0 note=89 velocity=72 time=0
note_on channel=0 note=89 velocity=0 time=80
note_on channel=0 note=77 velocity=0 time=0
note_on channel=0 note=78 velocity=75 time=0
note_on channel=0 note=87 velocity=75 time=0
note_on channel=0 note=87 velocity=0 time=120
note_on channel=0 note=85 velocity=71 time=0
note_on channel=0 note=85 velocity=0 time=120
note_on channel=0 note=78 velocity=0 time=0
note_on channel=0 note=80 velocity=59 time=0
note_on channel=0 note=84 velocity=75 time=0
note_on channel=0 note=56 velocity=44 time=11
note_on channel=0 note=56 velocity=0 time=80
note_on channel=0 note=84 velocity=0 time=0
note_on channel=0 note=85 velocity=70 time=0
note_on channel=0 note=58 velocity=46 time=0
note_on channel=0 note=58 velocity=0 time=0
note_on channel=0 note=85 velocity=0 time=0
note_on channel=0 note=87 velocity=70 time=0
note_on channel=0 note=60 velocity=48 time=0
note_on channel=0 note=60 velocity=0 time=0
note_on channel=0 note=87 velocity=0 time=0
note_on channel=0 note=80 velocity=0 time=0
note_on channel=0 note=80 velocity=66 time=0
note_on channel=0 note=77 velocity=57 time=0
note_on channel=0 note=61 velocity=50 time=0
note_on channel=0 note=61 velocity=0 time=40
note_on channel=0 note=53 velocity=43 time=0
note_on channel=0 note=53 velocity=0 time=120
note_on channel=0 note=56 velocity=45 time=0
note_on channel=0 note=56 velocity=0 time=120
note_on channel=0 note=61 velocity=45 time=0
note_on channel=0 note=61 velocity=0 time=120
note_on channel=0 note=80 velocity=0 time=0
note_on channel=0 note=53 velocity=73 time=0
note_on channel=0 note=53 velocity=0 time=107
note_on channel=0 note=77 velocity=0 time=0
note_on channel=0 note=77 velocity=66 time=0
note_on channel=0 note=77 velocity=0 time=120
note_on channel=0 note=75 velocity=65 time=0
note_on channel=0 note=54 velocity=75 time=0
note_on channel=0 note=54 velocity=0 time=0
note_on channel=0 note=75 velocity=0 time=0
note_on channel=0 note=73 velocity=63 time=0
note_on channel=0 note=73 velocity=0 time=0
note_on channel=0 note=72 velocity=62 time=0
note_on channel=0 note=56 velocity=78 time=0
note_on channel=0 note=72 velocity=0 time=40
note_on channel=0 note=70 velocity=61 time=0
note_on channel=0 note=70 velocity=0 time=120
note_on channel=0 note=68 velocity=59 time=0
note_on channel=0 note=68 velocity=0 time=120
note_on channel=0 note=66 velocity=58 time=0
note_on channel=0 note=66 velocity=0 time=120
note_on channel=0 note=65 velocity=69 time=0
note_on channel=0 note=77 velocity=75 time=0
note_on channel=0 note=65 velocity=0 time=118
note_on channel=0 note=77 velocity=0 time=2
note_on channel=0 note=56 velocity=0 time=0
note_on channel=0 note=65 velocity=56 time=0
note_on channel=0 note=65 velocity=0 time=120
note_on channel=0 note=78 velocity=80 time=0
note_on channel=0 note=63 velocity=56 time=0
note_on channel=0 note=63 velocity=0 time=0
note_on channel=0 note=78 velocity=0 time=0
note_on channel=0 note=61 velocity=56 time=0
note_on channel=0 note=61 velocity=0 time=0
note_on channel=0 note=80 velocity=83 time=0
note_on channel=0 note=60 velocity=56 time=0
note_on channel=0 note=60 velocity=0 time=51
note_on channel=0 note=68 velocity=62 time=0
note_on channel=0 note=58 velocity=56 time=0
note_on channel=0 note=58 velocity=0 time=120
note_on channel=0 note=68 velocity=0 time=0
note_on channel=0 note=70 velocity=62 time=0
note_on channel=0 note=56 velocity=56 time=0
note_on channel=0 note=56 velocity=0 time=120
note_on channel=0 note=70 velocity=0 time=0
note_on channel=0 note=72 velocity=62 time=0
note_on channel=0 note=54 velocity=56 time=0
note_on channel=0 note=54 velocity=0 time=120
note_on channel=0 note=72 velocity=0 time=0
note_on channel=0 note=74 velocity=62 time=0
note_on channel=0 note=53 velocity=56 time=0
note_on channel=0 note=80 velocity=0 time=34
note_on channel=0 note=77 velocity=62 time=0
note_on channel=0 note=77 velocity=0 time=120
note_on channel=0 note=53 velocity=0 time=0
note_on channel=0 note=74 velocity=0 time=0
note_on channel=0 note=75 velocity=62 time=0
note_on channel=0 note=70 velocity=62 time=0
note_on channel=0 note=56 velocity=56 time=0
note_on channel=0 note=75 velocity=0 time=0
note_on channel=0 note=74 velocity=62 time=0
note_on channel=0 note=74 velocity=0 time=0
note_on channel=0 note=56 velocity=0 time=0
note_on channel=0 note=70 velocity=0 time=0
note_on channel=0 note=70 velocity=56 time=0
note_on channel=0 note=75 velocity=62 time=0
note_on channel=0 note=54 velocity=56 time=0
note_on channel=0 note=54 velocity=0 time=18
note_on channel=0 note=70 velocity=0 time=5
note_on channel=0 note=54 velocity=56 time=0
note_on channel=0 note=54 velocity=0 time=120
note_on channel=0 note=58 velocity=56 time=0
note_on channel=0 note=58 velocity=0 time=120
note_on channel=0 note=63 velocity=56 time=0
note_on channel=0 note=63 velocity=0 time=0
note_on channel=0 note=75 velocity=0 time=0
note_on channel=0 note=66 velocity=66 time=0
note_on channel=0 note=66 velocity=0 time=108
note_on channel=0 note=90 velocity=78 time=0
note_on channel=0 note=90 velocity=0 time=80
note_on channel=0 note=89 velocity=78 time=0
note_on channel=0 note=68 velocity=78 time=0
note_on channel=0 note=68 velocity=0 time=120
note_on channel=0 note=89 velocity=0 time=0
note_on channel=0 note=87 velocity=76 time=0
note_on channel=0 note=87 velocity=0 time=0
note_on channel=0 note=86 velocity=74 time=0
note_on channel=0 note=70 velocity=74 time=0
note_on channel=0 note=86 velocity=0 time=120
note_on channel=0 note=83 velocity=72 time=0
note_on channel=0 note=62 velocity=56 time=0
note_on channel=0 note=62 velocity=0 time=120
note_on channel=0 note=83 velocity=0 time=0
note_on channel=0 note=82 velocity=70 time=0
note_on channel=0 note=63 velocity=56 time=0
note_on channel=0 note=63 velocity=0 time=40
note_on channel=0 note=82 velocity=0 time=0
note_on channel=0 note=80 velocity=68 time=0
note_on channel=0 note=65 velocity=56 time=0
note_on channel=0 note=65 velocity=0 time=0
note_on channel=0 note=80 velocity=0 time=0
note_on channel=0 note=70 velocity=0 time=0
note_on channel=0 note=70 velocity=66 time=0
note_on channel=0 note=78 velocity=74 time=0
note_on channel=0 note=63 velocity=56 time=0
note_on channel=0 note=63 velocity=0 time=11
note_on channel=0 note=54 velocity=56 time=0
note_on channel=0 note=54 velocity=0 time=120
note_on channel=0 note=70 velocity=0 time=0
note_on channel=0 note=66 velocity=66 time=0
note_on channel=0 note=58 velocity=56 time=0
note_on channel=0 note=58 velocity=0 time=120
note_on channel=0 note=51 velocity=56 time=0
note_on channel=0 note=51 velocity=0 time=120
note_on channel=0 note=78 velocity=0 time=0
note_on channel=0 note=54 velocity=64 time=0
note_on channel=0 note=54 velocity=0 time=109
note_on channel=0 note=66 velocity=0 time=0
note_on channel=0 note=78 velocity=74 time=0
note_on channel=0 note=78 velocity=0 time=120
note_on channel=0 note=77 velocity=72 time=0
note_on channel=0 note=56 velocity=64 time=0
note_on channel=0 note=56 velocity=0 time=0
note_on channel=0 note=77 velocity=0 time=0
note_on channel=0 note=75 velocity=71 time=0
note_on channel=0 note=75 velocity=0 time=0
note_on channel=0 note=74 velocity=70 time=0
note_on channel=0 note=58 velocity=64 time=0
note_on channel=0 note=74 velocity=0 time=45
note_on channel=0 note=71 velocity=68 time=0
note_on channel=0 note=71 velocity=0 time=120
note_on channel=0 note=70 velocity=67 time=0
note_on channel=0 note=70 velocity=0 time=120
note_on channel=0 note=68 velocity=65 time=0
note_on channel=0 note=68 velocity=0 time=120
note_on channel=0 note=66 velocity=69 time=0
note_on channel=0 note=78 velocity=78 time=0
note_on channel=0 note=78 velocity=0 time=120
note_on channel=0 note=66 velocity=0 time=0
note_on channel=0 note=58 velocity=0 time=0
note_on channel=0 note=54 velocity=56 time=0
note_on channel=0 note=54 velocity=0 time=120
note_on channel=0 note=80 velocity=83 time=0
note_on channel=0 note=53 velocity=56 time=0
note_on channel=0 note=53 velocity=0 time=0
note_on channel=0 note=80 velocity=0 time=0
note_on channel=0 note=51 velocity=56 time=0
note_on channel=0 note=51 velocity=0 time=0
note_on channel=0 note=82 velocity=88 time=0
note_on channel=0 note=50 velocity=56 time=0
note_on channel=0 note=50 velocity=0 time=74
note_on channel=0 note=47 velocity=56 time=0
note_on channel=0 note=47 velocity=0 time=120
note_on channel=0 note=46 velocity=56 time=0
note_on channel=0 note=46 velocity=0 time=120
note_on channel=0 note=44 velocity=56 time=0
note_on channel=0 note=44 velocity=0 time=0
note_on channel=0 note=43 velocity=64 time=0
note_on channel=0 note=43 velocity=0 time=108
note_on channel=0 note=82 velocity=0 time=0
note_on channel=0 note=79 velocity=66 time=0
note_on channel=0 note=79 velocity=0 time=120
note_on channel=0 note=77 velocity=65 time=0
note_on channel=0 note=44 velocity=64 time=0
note_on channel=0 note=44 velocity=0 time=120
note_on channel=0 note=77 velocity=0 time=0
note_on channel=0 note=75 velocity=65 time=0
note_on channel=0 note=75 velocity=0 time=0
note_on channel=0 note=87 velocity=76 time=0
note_on channel=0 note=46 velocity=69 time=0
note_on channel=0 note=46 velocity=0 time=120
note_on channel=0 note=87 velocity=0 time=0
note_on channel=0 note=83 velocity=65 time=0
note_on channel=0 note=83 velocity=0 time=120
note_on channel=0 note=82 velocity=65 time=0
note_on channel=0 note=47 velocity=74 time=0
note_on channel=0 note=47 velocity=0 time=0
note_on channel=0 note=82 velocity=0 time=0
note_on channel=0 note=80 velocity=65 time=0
note_on channel=0 note=80 velocity=0 time=0
note_on channel=0 note=92 velocity=80 time=0
note_on channel=0 note=59 velocity=77 time=0
note_on channel=0 note=92 velocity=0 time=91
note_on channel=0 note=89 velocity=67 time=0
note_on channel=0 note=89 velocity=0 time=120
note_on channel=0 note=87 velocity=68 time=0
note_on channel=0 note=87 velocity=0 time=0
note_on channel=0 note=86 velocity=68 time=0
note_on channel=0 note=86 velocity=0 time=0
note_on channel=0 note=92 velocity=87 time=0
note_on channel=0 note=59 velocity=0 time=40
note_on channel=0 note=56 velocity=56 time=0
note_on channel=0 note=56 velocity=0 time=120
note_on channel=0 note=54 velocity=56 time=0
note_on channel=0 note=54 velocity=0 time=120
note_on channel=0 note=53 velocity=56 time=0
note_on channel=0 note=53 velocity=0 time=120
note_on channel=0 note=51 velocity=56 time=0
note_on channel=0 note=58 velocity=56 time=0
note_on channel=0 note=92 velocity=0 time=56
note_on channel=0 note=80 velocity=70 time=0
note_on channel=0 note=80 velocity=0 time=120
note_on channel=0 note=78 velocity=70 time=0
note_on channel=0 note=78 velocity=0 time=120
note_on channel=0 note=77 velocity=70 time=0
note_on channel=0 note=77 velocity=0 time=0
note_on channel=0 note=51 velocity=0 time=0
note_on channel=0 note=80 velocity=82 time=0
note_on channel=0 note=50 velocity=56 time=0
note_on channel=0 note=80 velocity=0 time=24
note_on channel=0 note=77 velocity=69 time=0
note_on channel=0 note=77 velocity=0 time=0
note_on channel=0 note=75 velocity=69 time=0
note_on channel=0 note=75 velocity=0 time=120
note_on channel=0 note=74 velocity=69 time=0
note_on channel=0 note=74 velocity=0 time=0
note_on channel=0 note=50 velocity=0 time=0
note_on channel=0 note=58 velocity=0 time=0
note_on channel=0 note=77 velocity=81 time=0
note_on channel=0 note=73 velocity=50 time=0
note_on channel=0 note=73 velocity=0 time=13
note_on channel=0 note=75 velocity=44 time=0
note_on channel=0 note=77 velocity=0 time=23
note_on channel=0 note=70 velocity=70 time=0
note_on channel=0 note=75 velocity=0 time=40
note_on channel=0 note=73 velocity=50 time=0
note_on channel=0 note=73 velocity=0 time=47
note_on channel=0 note=70 velocity=0 time=0
note_on channel=0 note=69 velocity=70 time=0
note_on channel=0 note=75 velocity=46 time=0
note_on channel=0 note=75 velocity=0 time=31
note_on channel=0 note=73 velocity=52 time=0
note_on channel=0 note=69 velocity=0 time=40
note_on channel=0 note=70 velocity=70 time=0
note_on channel=0 note=73 velocity=0 time=15
note_on channel=0 note=75 velocity=47 time=0
note_on channel=0 note=75 velocity=0 time=0
note_on channel=0 note=70 velocity=0 time=0
note_on channel=0 note=82 velocity=85 time=0
note_on channel=0 note=73 velocity=53 time=0
note_on channel=0 note=73 velocity=0 time=16
note_on channel=0 note=75 velocity=45 time=0
note_on channel=0 note=82 velocity=0 time=40
note_on channel=0 note=77 velocity=72 time=0
note_on channel=0 note=75 velocity=0 time=0
note_on channel=0 note=73 velocity=53 time=0
note_on channel=0 note=73 velocity=0 time=80
note_on channel=0 note=77 velocity=0 time=0
note_on channel=0 note=76 velocity=72 time=0
note_on channel=0 note=75 velocity=47 time=0
note_on channel=0 note=75 velocity=0 time=0
note_on channel=0 note=73 velocity=54 time=0
note_on channel=0 note=76 velocity=0 time=40
note_on channel=0 note=77 velocity=72 time=0
note_on channel=0 note=73 velocity=0 time=40
note_on channel=0 note=75 velocity=49 time=0
note_on channel=0 note=75 velocity=0 time=0
note_on channel=0 note=77 velocity=0 time=0
note_on channel=0 note=89 velocity=85 time=0
note_on channel=0 note=73 velocity=56 time=0
note_on channel=0 note=73 velocity=0 time=20
note_on channel=0 note=75 velocity=49 time=0
note_on channel=0 note=89 velocity=0 time=0
note_on channel=0 note=82 velocity=73 time=0
note_on channel=0 note=75 velocity=0 time=40
note_on channel=0 note=73 velocity=56 time=0
note_on channel=0 note=73 velocity=0 time=0
note_on channel=0 note=82 velocity=0 time=0
note_on channel=0 note=81 velocity=73 time=0
note_on channel=0 note=75 velocity=51 time=0
note_on channel=0 note=75 velocity=0 time=80
note_on channel=0 note=73 velocity=56 time=0
note_on channel=0 note=81 velocity=0 time=40
note_on channel=0 note=82 velocity=73 time=0
note_on channel=0 note=73 velocity=0 time=40
note_on channel=0 note=75 velocity=50 time=0
note_on channel=0 note=75 velocity=0 time=60
note_on channel=0 note=82 velocity=0 time=0
note_on channel=0 note=94 velocity=87 time=0
note_on channel=0 note=73 velocity=56 time=0
note_on channel=0 note=73 velocity=0 time=2
note_on channel=0 note=75 velocity=50 time=0
note_on channel=0 note=94 velocity=0 time=4
note_on channel=0 note=92 velocity=76 time=0
note_on channel=0 note=75 velocity=0 time=6
note_on channel=0 note=73 velocity=56 time=0
note_on channel=0 note=73 velocity=0 time=9
note_on channel=0 note=92 velocity=0 time=0
note_on channel=0 note=90 velocity=76 time=0
note_on channel=0 note=75 velocity=51 time=0
note_on channel=0 note=75 velocity=0 time=11
note_on channel=0 note=73 velocity=56 time=0
note_on channel=0 note=73 velocity=0 time=0
note_on channel=0 note=90 velocity=0 time=0
note_on channel=0 note=89 velocity=76 time=0
note_on channel=0 note=71 velocity=48 time=0
note_on channel=0 note=71 velocity=0 time=60
note_on channel=0 note=73 velocity=48 time=0
note_on channel=0 note=73 velocity=0 time=0
note_on channel=0 note=89 velocity=0 time=0
note_on channel=0 note=90 velocity=87 time=0
note_on channel=0 note=75 velocity=61 time=0
note_on channel=0 note=90 velocity=0 time=0
note_on channel=0 note=47 velocity=87 time=0
note_on channel=0 note=47 velocity=0 time=120
note_on channel=0 note=75 velocity=0 time=0
note_on channel=0 note=59 velocity=96 time=0
note_on channel=0 note=75 velocity=87 time=0
note_on channel=0 note=75 velocity=0 time=120
note_on channel=0 note=65 velocity=67 time=120
note_on channel=0 note=73 velocity=80 time=0
note_on channel=0 note=73 velocity=0 time=120
note_on channel=0 note=65 velocity=0 time=0
note_on channel=0 note=59 velocity=0 time=0
note_on channel=0 note=63 velocity=66 time=0
note_on channel=0 note=71 velocity=78 time=0
note_on channel=0 note=86 velocity=91 time=0
note_on channel=0 note=86 velocity=0 time=120
note_on channel=0 note=71 velocity=0 time=0
note_on channel=0 note=63 velocity=0 time=0
note_on channel=0 note=61 velocity=62 time=120
note_on channel=0 note=70 velocity=74 time=0
note_on channel=0 note=70 velocity=0 time=120
note_on channel=0 note=61 velocity=0 time=0
note_on channel=0 note=59 velocity=60 time=120
note_on channel=0 note=68 velocity=71 time=0
note_on channel=0 note=87 velocity=96 time=0
note_on channel=0 note=68 velocity=0 time=120
note_on channel=0 note=59 velocity=0 time=0
note_on channel=0 note=58 velocity=57 time=120
note_on channel=0 note=66 velocity=68 time=0
note_on channel=0 note=66 velocity=0 time=0
note_on channel=0 note=58 velocity=0 time=0
note_on channel=0 note=63 velocity=72 time=0
note_on channel=0 note=71 velocity=85 time=0
note_on channel=0 note=87 velocity=0 time=0
note_on channel=0 note=44 velocity=87 time=0
note_on channel=0 note=44 velocity=0 time=120
note_on channel=0 note=71 velocity=0 time=0
note_on channel=0 note=63 velocity=0 time=0
note_on channel=0 note=56 velocity=96 time=0
note_on channel=0 note=63 velocity=70 time=0
note_on channel=0 note=71 velocity=87 time=0
note_on channel=0 note=71 velocity=0 time=120
note_on channel=0 note=63 velocity=0 time=0
note_on channel=0 note=61 velocity=67 time=120
note_on channel=0 note=70 velocity=80 time=0
note_on channel=0 note=70 velocity=0 time=120
note_on channel=0 note=61 velocity=0 time=0
note_on channel=0 note=56 velocity=0 time=0
note_on channel=0 note=59 velocity=66 time=0
note_on channel=0 note=68 velocity=78 time=0
note_on channel=0 note=82 velocity=91 time=0
note_on channel=0 note=82 velocity=0 time=120
note_on channel=0 note=68 velocity=0 time=0
note_on channel=0 note=59 velocity=0 time=0
note_on channel=0 note=58 velocity=62 time=120
note_on channel=0 note=66 velocity=74 time=0
note_on channel=0 note=66 velocity=0 time=120
note_on channel=0 note=58 velocity=0 time=0
note_on channel=0 note=56 velocity=60 time=120
note_on channel=0 note=65 velocity=71 time=0
note_on channel=0 note=83 velocity=96 time=0
note_on channel=0 note=65 velocity=0 time=120
note_on channel=0 note=56 velocity=0 time=0
note_on channel=0 note=54 velocity=57 time=120
note_on channel=0 note=63 velocity=68 time=0
note_on channel=0 note=63 velocity=0 time=0
note_on channel=0 note=54 velocity=0 time=0
note_on channel=0 note=59 velocity=72 time=0
note_on channel=0 note=68 velocity=85 time=0
note_on channel=0 note=83 velocity=0 time=0
note_on channel=0 note=41 velocity=87 time=0
note_on channel=0 note=41 velocity=0 time=120
note_on channel=0 note=68 velocity=0 time=0
note_on channel=0 note=59 velocity=0 time=0
note_on channel=0 note=53 velocity=96 time=0
note_on channel=0 note=59 velocity=70 time=0
note_on channel=0 note=68 velocity=87 time=0
note_on channel=0 note=68 velocity=0 time=120
note_on channel=0 note=59 velocity=0 time=0
note_on channel=0 note=58 velocity=67 time=120
note_on channel=0 note=66 velocity=80 time=0
note_on channel=0 note=66 velocity=0 time=120
note_on channel=0 note=58 velocity=0 time=0
note_on channel=0 note=53 velocity=0 time=0
note_on channel=0 note=56 velocity=66 time=0
note_on channel=0 note=65 velocity=78 time=0
note_on channel=0 note=82 velocity=91 time=0
note_on channel=0 note=82 velocity=0 time=120
note_on channel=0 note=65 velocity=0 time=0
note_on channel=0 note=56 velocity=0 time=0
note_on channel=0 note=58 velocity=62 time=120
note_on channel=0 note=66 velocity=74 time=0
note_on channel=0 note=66 velocity=0 time=120
note_on channel=0 note=58 velocity=0 time=0
note_on channel=0 note=56 velocity=60 time=120
note_on channel=0 note=65 velocity=71 time=0
note_on channel=0 note=83 velocity=96 time=0
note_on channel=0 note=65 velocity=0 time=120
note_on channel=0 note=56 velocity=0 time=0
note_on channel=0 note=54 velocity=57 time=120
note_on channel=0 note=63 velocity=68 time=0
note_on channel=0 note=63 velocity=0 time=0
note_on channel=0 note=54 velocity=0 time=0
note_on channel=0 note=53 velocity=67 time=0
note_on channel=0 note=62 velocity=79 time=0
note_on channel=0 note=62 velocity=0 time=120
note_on channel=0 note=53 velocity=0 time=0
note_on channel=0 note=63 velocity=71 time=120
note_on channel=0 note=54 velocity=60 time=0
note_on channel=0 note=54 velocity=0 time=120
note_on channel=0 note=63 velocity=0 time=0
note_on channel=0 note=83 velocity=0 time=120
note_on channel=0 note=82 velocity=96 time=0
note_on channel=0 note=53 velocity=66 time=0
note_on channel=0 note=62 velocity=78 time=0
note_on channel=0 note=62 velocity=0 time=120
note_on channel=0 note=53 velocity=0 time=0
note_on channel=0 note=51 velocity=60 time=120
note_on channel=0 note=60 velocity=71 time=0
note_on channel=0 note=60 velocity=0 time=120
note_on channel=0 note=51 velocity=0 time=0
note_on channel=0 note=82 velocity=0 time=120
note_on channel=0 note=80 velocity=96 time=0
note_on channel=0 note=50 velocity=67 time=0
note_on channel=0 note=58 velocity=79 time=0
note_on channel=0 note=58 velocity=0 time=120
note_on channel=0 note=50 velocity=0 time=0
note_on channel=0 note=51 velocity=60 time=120
note_on channel=0 note=60 velocity=71 time=0
note_on channel=0 note=60 velocity=0 time=120
note_on channel=0 note=51 velocity=0 time=0
note_on channel=0 note=53 velocity=67 time=120
note_on channel=0 note=62 velocity=79 time=0
note_on channel=0 note=62 velocity=0 time=120
note_on channel=0 note=53 velocity=0 time=0
note_on channel=0 note=63 velocity=71 time=120
note_on channel=0 note=54 velocity=60 time=0
note_on channel=0 note=54 velocity=0 time=120
note_on channel=0 note=63 velocity=0 time=0
note_on channel=0 note=55 velocity=67 time=120
note_on channel=0 note=64 velocity=79 time=0
note_on channel=0 note=64 velocity=0 time=120
note_on channel=0 note=55 velocity=0 time=0
note_on channel=0 note=65 velocity=71 time=0
note_on channel=0 note=56 velocity=60 time=0
note_on channel=0 note=56 velocity=0 time=120
note_on channel=0 note=65 velocity=0 time=0
note_on channel=0 note=80 velocity=0 time=0
note_on channel=0 note=92 velocity=109 time=0
note_on channel=0 note=58 velocity=65 time=0
note_on channel=0 note=66 velocity=77 time=0
note_on channel=0 note=66 velocity=0 time=120
note_on channel=0 note=58 velocity=0 time=0
note_on channel=0 note=56 velocity=60 time=120
note_on channel=0 note=65 velocity=71 time=0
note_on channel=0 note=65 velocity=0 time=120
note_on channel=0 note=56 velocity=0 time=0
note_on channel=0 note=54 velocity=65 time=0
note_on channel=0 note=63 velocity=77 time=0
note_on channel=0 note=63 velocity=0 time=120
note_on channel=0 note=54 velocity=0 time=0
note_on channel=0 note=92 velocity=0 time=120
note_on channel=0 note=65 velocity=71 time=0
note_on channel=0 note=56 velocity=60 time=0
note_on channel=0 note=56 velocity=0 time=120
note_on channel=0 note=65 velocity=0 time=0
note_on channel=0 note=90 velocity=99 time=120
note_on channel=0 note=58 velocity=66 time=0
note_on channel=0 note=66 velocity=78 time=0
note_on channel=0 note=66 velocity=0 time=120
note_on channel=0 note=58 velocity=0 time=0
note_on channel=0 note=90 velocity=0 time=0
note_on channel=0 note=59 velocity=60 time=120
note_on channel=0 note=68 velocity=71 time=0
note_on channel=0 note=68 velocity=0 time=120
note_on channel=0 note=59 velocity=0 time=0
note_on channel=0 note=89 velocity=99 time=120
note_on channel=0 note=69 velocity=78 time=0
note_on channel=0 note=65 velocity=66 time=0
note_on channel=0 note=65 velocity=0 time=120
note_on channel=0 note=69 velocity=0 time=0
note_on channel=0 note=89 velocity=0 time=0
note_on channel=0 note=66 velocity=60 time=120
note_on channel=0 note=70 velocity=71 time=0
note_on channel=0 note=70 velocity=0 time=120
note_on channel=0 note=66 velocity=0 time=0
note_on channel=0 note=87 velocity=107 time=0
note_on channel=0 note=71 velocity=79 time=0
note_on channel=0 note=68 velocity=67 time=0
note_on channel=0 note=68 velocity=0 time=120
note_on channel=0 note=71 velocity=0 time=0
note_on channel=0 note=87 velocity=0 time=0
note_on channel=0 note=66 velocity=60 time=120
note_on channel=0 note=70 velocity=71 time=0
note_on channel=0 note=70 velocity=0 time=120
note_on channel=0 note=66 velocity=0 time=0
note_on channel=0 note=86 velocity=99 time=0
note_on channel=0 note=59 velocity=67 time=0
note_on channel=0 note=68 velocity=79 time=0
note_on channel=0 note=68 velocity=0 time=120
note_on channel=0 note=59 velocity=0 time=0
note_on channel=0 note=86 velocity=0 time=0
note_on channel=0 note=66 velocity=71 time=0
note_on channel=0 note=58 velocity=60 time=0
note_on channel=0 note=58 velocity=0 time=120
note_on channel=0 note=66 velocity=0 time=0
note_on channel=0 note=65 velocity=69 time=0
note_on channel=0 note=68 velocity=82 time=0
note_on channel=0 note=34 velocity=84 time=0
note_on channel=0 note=46 velocity=99 time=0
note_on channel=0 note=68 velocity=0 time=120
note_on channel=0 note=65 velocity=0 time=0
note_on channel=0 note=63 velocity=60 time=120
note_on channel=0 note=66 velocity=71 time=0
note_on channel=0 note=66 velocity=0 time=120
note_on channel=0 note=63 velocity=0 time=0
note_on channel=0 note=56 velocity=68 time=120
note_on channel=0 note=65 velocity=81 time=0
note_on channel=0 note=65 velocity=0 time=120
note_on channel=0 note=56 velocity=0 time=0
note_on channel=0 note=58 velocity=60 time=120
note_on channel=0 note=66 velocity=71 time=0
note_on channel=0 note=66 velocity=0 time=120
note_on channel=0 note=58 velocity=0 time=0
note_on channel=0 note=56 velocity=68 time=120
note_on channel=0 note=65 velocity=80 time=0
note_on channel=0 note=65 velocity=0 time=120
note_on channel=0 note=56 velocity=0 time=0
note_on channel=0 note=54 velocity=60 time=0
note_on channel=0 note=63 velocity=71 time=0
note_on channel=0 note=63 velocity=0 time=120
note_on channel=0 note=54 velocity=0 time=0
note_on channel=0 note=34 velocity=0 time=0
note_on channel=0 note=46 velocity=0 time=0
note_on channel=0 note=53 velocity=66 time=0
note_on channel=0 note=62 velocity=78 time=0
note_on channel=0 note=44 velocity=99 time=0
note_on channel=0 note=32 velocity=84 time=0
note_on channel=0 note=62 velocity=0 time=120
note_on channel=0 note=53 velocity=0 time=0
note_on channel=0 note=54 velocity=60 time=120
note_on channel=0 note=63 velocity=71 time=0
note_on channel=0 note=63 velocity=0 time=120
note_on channel=0 note=54 velocity=0 time=0
note_on channel=0 note=62 velocity=68 time=120
note_on channel=0 note=65 velocity=81 time=0
note_on channel=0 note=65 velocity=0 time=120
note_on channel=0 note=62 velocity=0 time=0
note_on channel=0 note=63 velocity=60 time=120
note_on channel=0 note=66 velocity=71 time=0
note_on channel=0 note=66 velocity=0 time=120
note_on channel=0 note=63 velocity=0 time=0
note_on channel=0 note=65 velocity=68 time=120
note_on channel=0 note=68 velocity=80 time=0
note_on channel=0 note=68 velocity=0 time=120
note_on channel=0 note=65 velocity=0 time=0
note_on channel=0 note=66 velocity=71 time=0
note_on channel=0 note=70 velocity=60 time=0
note_on channel=0 note=70 velocity=0 time=120
note_on channel=0 note=66 velocity=0 time=0
note_on channel=0 note=44 velocity=0 time=0
note_on channel=0 note=32 velocity=0 time=0
note_on channel=0 note=63 velocity=67 time=0
note_on channel=0 note=72 velocity=79 time=0
note_on channel=0 note=32 velocity=84 time=0
note_on channel=0 note=44 velocity=99 time=0
note_on channel=0 note=72 velocity=0 time=120
note_on channel=0 note=63 velocity=0 time=0
note_on channel=0 note=65 velocity=60 time=120
note_on channel=0 note=74 velocity=71 time=0
note_on channel=0 note=74 velocity=0 time=120
note_on channel=0 note=65 velocity=0 time=0
note_on channel=0 note=66 velocity=67 time=0
note_on channel=0 note=75 velocity=79 time=0
note_on channel=0 note=75 velocity=0 time=120
note_on channel=0 note=66 velocity=0 time=0
note_on channel=0 note=32 velocity=0 time=120
note_on channel=0 note=44 velocity=0 time=0
note_on channel=0 note=68 velocity=60 time=0
note_on channel=0 note=77 velocity=71 time=0
note_on channel=0 note=77 velocity=0 time=120
note_on channel=0 note=68 velocity=0 time=0
note_on channel=0 note=70 velocity=66 time=0
note_on channel=0 note=78 velocity=78 time=0
note_on channel=0 note=42 velocity=99 time=0
note_on channel=0 note=30 velocity=84 time=0
note_on channel=0 note=30 velocity=0 time=120
note_on channel=0 note=70 velocity=0 time=0
note_on channel=0 note=78 velocity=0 time=0
note_on channel=0 note=42 velocity=0 time=0
note_on channel=0 note=71 velocity=60 time=120
note_on channel=0 note=79 velocity=71 time=0
note_on channel=0 note=79 velocity=0 time=120
note_on channel=0 note=71 velocity=0 time=0
note_on channel=0 note=77 velocity=66 time=0
note_on channel=0 note=80 velocity=78 time=0
note_on channel=0 note=41 velocity=99 time=0
note_on channel=0 note=29 velocity=84 time=0
note_on channel=0 note=29 velocity=0 time=120
note_on channel=0 note=77 velocity=0 time=0
note_on channel=0 note=80 velocity=0 time=0
note_on channel=0 note=41 velocity=0 time=0
note_on channel=0 note=82 velocity=71 time=120
note_on channel=0 note=78 velocity=60 time=0
note_on channel=0 note=78 velocity=0 time=120
note_on channel=0 note=82 velocity=0 time=0
note_on channel=0 note=83 velocity=80 time=0
note_on channel=0 note=80 velocity=68 time=0
note_on channel=0 note=39 velocity=99 time=0
note_on channel=0 note=27 velocity=84 time=0
note_on channel=0 note=27 velocity=0 time=120
note_on channel=0 note=83 velocity=0 time=0
note_on channel=0 note=80 velocity=0 time=0
note_on channel=0 note=39 velocity=0 time=0
note_on channel=0 note=82 velocity=71 time=120
note_on channel=0 note=78 velocity=60 time=0
note_on channel=0 note=78 velocity=0 time=120
note_on channel=0 note=82 velocity=0 time=0
note_on channel=0 note=71 velocity=68 time=0
note_on channel=0 note=80 velocity=81 time=0
note_on channel=0 note=26 velocity=84 time=0
note_on channel=0 note=38 velocity=99 time=0
note_on channel=0 note=38 velocity=0 time=120
note_on channel=0 note=71 velocity=0 time=0
note_on channel=0 note=80 velocity=0 time=0
note_on channel=0 note=26 velocity=0 time=0
note_on channel=0 note=70 velocity=60 time=120
note_on channel=0 note=78 velocity=71 time=0
note_on channel=0 note=78 velocity=0 time=120
note_on channel=0 note=70 velocity=0 time=0
note_on channel=0 note=68 velocity=68 time=0
note_on channel=0 note=75 velocity=80 time=0
note_on channel=0 note=27 velocity=84 time=0
note_on channel=0 note=39 velocity=99 time=0
note_on channel=0 note=39 velocity=0 time=120
note_on channel=0 note=68 velocity=0 time=0
note_on channel=0 note=75 velocity=0 time=0
note_on channel=0 note=27 velocity=0 time=0
note_on channel=0 note=66 velocity=71 time=120
note_on channel=0 note=58 velocity=60 time=0
note_on channel=0 note=58 velocity=0 time=120
note_on channel=0 note=66 velocity=0 time=0
note_on channel=0 note=73 velocity=66 time=0
note_on channel=0 note=65 velocity=78 time=0
note_on channel=0 note=56 velocity=68 time=0
note_on channel=0 note=56 velocity=0 time=120
note_on channel=0 note=65 velocity=0 time=0
note_on channel=0 note=73 velocity=0 time=0
note_on channel=0 note=63 velocity=71 time=120
note_on channel=0 note=54 velocity=60 time=0
note_on channel=0 note=54 velocity=0 time=120
note_on channel=0 note=63 velocity=0 time=0
note_on channel=0 note=72 velocity=66 time=120
note_on channel=0 note=61 velocity=78 time=0
note_on channel=0 note=53 velocity=68 time=0
note_on channel=0 note=53 velocity=0 time=120
note_on channel=0 note=61 velocity=0 time=0
note_on channel=0 note=72 velocity=0 time=0
note_on channel=0 note=60 velocity=71 time=120
note_on channel=0 note=51 velocity=60 time=0
note_on channel=0 note=51 velocity=0 time=120
note_on channel=0 note=60 velocity=0 time=0
note_on channel=0 note=63 velocity=78 time=120
note_on channel=0 note=49 velocity=66 time=0
note_on channel=0 note=58 velocity=78 time=0
note_on channel=0 note=58 velocity=0 time=120
note_on channel=0 note=49 velocity=0 time=0
note_on channel=0 note=57 velocity=71 time=1
note_on channel=0 note=48 velocity=60 time=0
note_on channel=0 note=48 velocity=0 time=120
note_on channel=0 note=57 velocity=0 time=0
note_on channel=0 note=46 velocity=60 time=0
note_on channel=0 note=54 velocity=71 time=0
note_on channel=0 note=54 velocity=0 time=120
note_on channel=0 note=46 velocity=0 time=0
note_on channel=0 note=44 velocity=60 time=25
note_on channel=0 note=53 velocity=71 time=0
note_on channel=0 note=53 velocity=0 time=120
note_on channel=0 note=44 velocity=0 time=0
note_on channel=0 note=42 velocity=60 time=120
note_on channel=0 note=51 velocity=71 time=0
note_on channel=0 note=51 velocity=0 time=120
note_on channel=0 note=42 velocity=0 time=0
note_on channel=0 note=41 velocity=60 time=0
note_on channel=0 note=49 velocity=71 time=0
note_on channel=0 note=49 velocity=0 time=120
note_on channel=0 note=41 velocity=0 time=0
note_on channel=0 note=63 velocity=0 time=49
note_on channel=0 note=81 velocity=71 time=0
note_on channel=0 note=73 velocity=71 time=0
note_on channel=0 note=51 velocity=71 time=0
note_on channel=0 note=39 velocity=60 time=0
note_on channel=0 note=81 velocity=0 time=20
note_on channel=0 note=82 velocity=65 time=0
note_on channel=0 note=73 velocity=0 time=1
note_on channel=0 note=82 velocity=0 time=40
note_on channel=0 note=81 velocity=71 time=0
note_on channel=0 note=81 velocity=0 time=80
note_on channel=0 note=82 velocity=66 time=0
note_on channel=0 note=72 velocity=66 time=0
note_on channel=0 note=82 velocity=0 time=33
note_on channel=0 note=81 velocity=71 time=0
note_on channel=0 note=72 velocity=0 time=40
note_on channel=0 note=81 velocity=0 time=40
note_on channel=0 note=82 velocity=66 time=0
note_on channel=0 note=82 velocity=0 time=49
note_on channel=0 note=81 velocity=71 time=0
note_on channel=0 note=77 velocity=71 time=0
note_on channel=0 note=81 velocity=0 time=43
note_on channel=0 note=82 velocity=66 time=0
note_on channel=0 note=77 velocity=0 time=1
note_on channel=0 note=82 velocity=0 time=40
note_on channel=0 note=81 velocity=71 time=0
note_on channel=0 note=81 velocity=0 time=80
note_on channel=0 note=82 velocity=65 time=0
note_on channel=0 note=75 velocity=65 time=0
note_on channel=0 note=82 velocity=0 time=33
note_on channel=0 note=81 velocity=71 time=0
note_on channel=0 note=75 velocity=0 time=40
note_on channel=0 note=81 velocity=0 time=40
note_on channel=0 note=82 velocity=65 time=0
note_on channel=0 note=82 velocity=0 time=49
note_on channel=0 note=81 velocity=71 time=0
note_on channel=0 note=73 velocity=71 time=0
note_on channel=0 note=81 velocity=0 time=9
note_on channel=0 note=82 velocity=64 time=0
note_on channel=0 note=73 velocity=0 time=40
note_on channel=0 note=82 velocity=0 time=40
note_on channel=0 note=81 velocity=71 time=0
note_on channel=0 note=81 velocity=0 time=1
note_on channel=0 note=82 velocity=67 time=0
note_on channel=0 note=72 velocity=67 time=0
note_on channel=0 note=82 velocity=0 time=9
note_on channel=0 note=81 velocity=71 time=0
note_on channel=0 note=72 velocity=0 time=40
note_on channel=0 note=81 velocity=0 time=17
note_on channel=0 note=82 velocity=67 time=0
note_on channel=0 note=82 velocity=0 time=25
note_on channel=0 note=51 velocity=0 time=0
note_on channel=0 note=39 velocity=0 time=0
note_on channel=0 note=81 velocity=71 time=0
note_on channel=0 note=78 velocity=71 time=0
note_on channel=0 note=24 velocity=64 time=0
note_on channel=0 note=36 velocity=71 time=0
note_on channel=0 note=36 velocity=0 time=9
note_on channel=0 note=81 velocity=0 time=0
note_on channel=0 note=82 velocity=66 time=0
note_on channel=0 note=37 velocity=65 time=0
note_on channel=0 note=78 velocity=0 time=40
note_on channel=0 note=37 velocity=0 time=40
note_on channel=0 note=82 velocity=0 time=0
note_on channel=0 note=81 velocity=71 time=0
note_on channel=0 note=36 velocity=71 time=0
note_on channel=0 note=36 velocity=0 time=1
note_on channel=0 note=81 velocity=0 time=0
note_on channel=0 note=79 velocity=67 time=0
note_on channel=0 note=72 velocity=67 time=0
note_on channel=0 note=37 velocity=66 time=0
note_on channel=0 note=37 velocity=0 time=80
note_on channel=0 note=36 velocity=71 time=0
note_on channel=0 note=72 velocity=0 time=40
note_on channel=0 note=79 velocity=0 time=0
note_on channel=0 note=81 velocity=67 time=0
note_on channel=0 note=36 velocity=0 time=17
note_on channel=0 note=37 velocity=66 time=0
note_on channel=0 note=37 velocity=0 time=80
note_on channel=0 note=81 velocity=0 time=0
note_on channel=0 note=75 velocity=74 time=0
note_on channel=0 note=82 velocity=74 time=0
note_on channel=0 note=36 velocity=71 time=0
note_on channel=0 note=36 velocity=0 time=13
note_on channel=0 note=75 velocity=0 time=0
note_on channel=0 note=77 velocity=69 time=0
note_on channel=0 note=37 velocity=66 time=0
note_on channel=0 note=37 velocity=0 time=80
note_on channel=0 note=77 velocity=0 time=0
note_on channel=0 note=75 velocity=74 time=0
note_on channel=0 note=36 velocity=71 time=0
note_on channel=0 note=36 velocity=0 time=25
note_on channel=0 note=75 velocity=0 time=0
note_on channel=0 note=77 velocity=69 time=0
note_on channel=0 note=37 velocity=67 time=0
note_on channel=0 note=37 velocity=0 time=80
note_on channel=0 note=77 velocity=0 time=0
note_on channel=0 note=75 velocity=74 time=0
note_on channel=0 note=36 velocity=71 time=0
note_on channel=0 note=36 velocity=0 time=41
note_on channel=0 note=75 velocity=0 time=0
note_on channel=0 note=77 velocity=70 time=0
note_on channel=0 note=37 velocity=66 time=0
note_on channel=0 note=37 velocity=0 time=80
note_on channel=0 note=77 velocity=0 time=0
note_on channel=0 note=75 velocity=74 time=0
note_on channel=0 note=36 velocity=71 time=0
note_on channel=0 note=36 velocity=0 time=6
note_on channel=0 note=75 velocity=0 time=0
note_on channel=0 note=77 velocity=70 time=0
note_on channel=0 note=37 velocity=67 time=0
note_on channel=0 note=37 velocity=0 time=80
note_on channel=0 note=77 velocity=0 time=0
note_on channel=0 note=75 velocity=74 time=0
note_on channel=0 note=36 velocity=71 time=0
note_on channel=0 note=36 velocity=0 time=80
note_on channel=0 note=75 velocity=0 time=0
note_on channel=0 note=77 velocity=67 time=0
note_on channel=0 note=37 velocity=66 time=0
note_on channel=0 note=37 velocity=0 time=80
note_on channel=0 note=77 velocity=0 time=0
note_on channel=0 note=75 velocity=74 time=0
note_on channel=0 note=36 velocity=71 time=0
note_on channel=0 note=36 velocity=0 time=80
note_on channel=0 note=75 velocity=0 time=0
note_on channel=0 note=77 velocity=69 time=0
note_on channel=0 note=37 velocity=66 time=0
note_on channel=0 note=37 velocity=0 time=80
note_on channel=0 note=77 velocity=0 time=0
note_on channel=0 note=24 velocity=0 time=0
note_on channel=0 note=75 velocity=74 time=0
note_on channel=0 note=36 velocity=71 time=0
note_on channel=0 note=36 velocity=0 time=23
note_on channel=0 note=75 velocity=0 time=0
note_on channel=0 note=77 velocity=69 time=0
note_on channel=0 note=37 velocity=68 time=0
note_on channel=0 note=37 velocity=0 time=41
note_on channel=0 note=77 velocity=0 time=0
note_on channel=0 note=75 velocity=74 time=0
note_on channel=0 note=36 velocity=71 time=0
note_on channel=0 note=36 velocity=0 time=25
note_on channel=0 note=75 velocity=0 time=0
note_on channel=0 note=73 velocity=70 time=0
note_on channel=0 note=34 velocity=68 time=0
note_on channel=0 note=34 velocity=0 time=1
note_on channel=0 note=73 velocity=0 time=0
note_on channel=0 note=75 velocity=68 time=0
note_on channel=0 note=36 velocity=68 time=0
note_on channel=0 note=36 velocity=0 time=1
note_on channel=0 note=75 velocity=0 time=0
note_on channel=0 note=82 velocity=0 time=0
note_on channel=0 note=73 velocity=70 time=0
note_on channel=0 note=82 velocity=83 time=0
note_on channel=0 note=34 velocity=86 time=0
note_on channel=0 note=82 velocity=0 time=73
note_on channel=0 note=73 velocity=0 time=0
note_on channel=0 note=72 velocity=62 time=120
note_on channel=0 note=80 velocity=74 time=0
note_on channel=0 note=80 velocity=0 time=120
note_on channel=0 note=72 velocity=0 time=0
note_on channel=0 note=70 velocity=62 time=0
note_on channel=0 note=78 velocity=74 time=0
note_on channel=0 note=78 velocity=0 time=120
note_on channel=0 note=70 velocity=0 time=0
note_on channel=0 note=68 velocity=62 time=120
note_on channel=0 note=77 velocity=74 time=0
note_on channel=0 note=77 velocity=0 time=120
note_on channel=0 note=68 velocity=0 time=0
note_on channel=0 note=34 velocity=0 time=120
note_on channel=0 note=66 velocity=62 time=0
note_on channel=0 note=75 velocity=74 time=0
note_on channel=0 note=75 velocity=0 time=120
note_on channel=0 note=66 velocity=0 time=0
note_on channel=0 note=65 velocity=62 time=120
note_on channel=0 note=73 velocity=74 time=0
note_on channel=0 note=73 velocity=0 time=0
note_on channel=0 note=65 velocity=0 time=0
note_on channel=0 note=75 velocity=73 time=0
note_on channel=0 note=78 velocity=87 time=0
note_on channel=0 note=34 velocity=84 time=0
note_on channel=0 note=34 velocity=0 time=120
note_on channel=0 note=75 velocity=0 time=0
note_on channel=0 note=63 velocity=71 time=0
note_on channel=0 note=24 velocity=55 time=0
note_on channel=0 note=36 velocity=65 time=0
note_on channel=0 note=36 velocity=0 time=120
note_on channel=0 note=24 velocity=0 time=0
note_on channel=0 note=63 velocity=0 time=0
note_on channel=0 note=65 velocity=74 time=120
note_on channel=0 note=37 velocity=66 time=0
note_on channel=0 note=25 velocity=56 time=0
note_on channel=0 note=25 velocity=0 time=120
note_on channel=0 note=37 velocity=0 time=0
note_on channel=0 note=65 velocity=0 time=0
note_on channel=0 note=66 velocity=77 time=120
note_on channel=0 note=27 velocity=56 time=0
note_on channel=0 note=39 velocity=67 time=0
note_on channel=0 note=39 velocity=0 time=120
note_on channel=0 note=27 velocity=0 time=0
note_on channel=0 note=66 velocity=0 time=0
note_on channel=0 note=78 velocity=0 time=120
note_on channel=0 note=68 velocity=79 time=0
note_on channel=0 note=41 velocity=68 time=0
note_on channel=0 note=29 velocity=57 time=0
note_on channel=0 note=29 velocity=0 time=120
note_on channel=0 note=41 velocity=0 time=0
note_on channel=0 note=68 velocity=0 time=0
note_on channel=0 note=70 velocity=82 time=120
note_on channel=0 note=30 velocity=58 time=0
note_on channel=0 note=42 velocity=69 time=0
note_on channel=0 note=42 velocity=0 time=0
note_on channel=0 note=30 velocity=0 time=0
note_on channel=0 note=78 velocity=85 time=0
note_on channel=0 note=25 velocity=59 time=0
note_on channel=0 note=37 velocity=70 time=0
note_on channel=0 note=78 velocity=0 time=120
note_on channel=0 note=70 velocity=0 time=0
note_on channel=0 note=68 velocity=66 time=120
note_on channel=0 note=77 velocity=78 time=0
note_on channel=0 note=77 velocity=0 time=0
note_on channel=0 note=68 velocity=0 time=0
note_on channel=0 note=66 velocity=64 time=120
note_on channel=0 note=75 velocity=76 time=0
note_on channel=0 note=75 velocity=0 time=120
note_on channel=0 note=66 velocity=0 time=0
note_on channel=0 note=65 velocity=62 time=120
note_on channel=0 note=73 velocity=74 time=0
note_on channel=0 note=73 velocity=0 time=120
note_on channel=0 note=65 velocity=0 time=0
note_on channel=0 note=25 velocity=0 time=120
note_on channel=0 note=37 velocity=0 time=0
note_on channel=0 note=76 velocity=80 time=0
note_on channel=0 note=79 velocity=80 time=0
note_on channel=0 note=36 velocity=79 time=0
note_on channel=0 note=24 velocity=62 time=0
note_on channel=0 note=79 velocity=0 time=28
note_on channel=0 note=85 velocity=70 time=0
note_on channel=0 note=85 velocity=0 time=120
note_on channel=0 note=82 velocity=71 time=0
note_on channel=0 note=82 velocity=0 time=120
note_on channel=0 note=79 velocity=71 time=0
note_on channel=0 note=79 velocity=0 time=120
note_on channel=0 note=76 velocity=0 time=0
note_on channel=0 note=76 velocity=74 time=0
note_on channel=0 note=76 velocity=0 time=120
note_on channel=0 note=82 velocity=69 time=0
note_on channel=0 note=82 velocity=0 time=120
note_on channel=0 note=79 velocity=70 time=0
note_on channel=0 note=79 velocity=0 time=120
note_on channel=0 note=76 velocity=70 time=0
note_on channel=0 note=76 velocity=0 time=120
note_on channel=0 note=36 velocity=0 time=0
note_on channel=0 note=24 velocity=0 time=0
note_on channel=0 note=73 velocity=76 time=0
note_on channel=0 note=73 velocity=0 time=120
note_on channel=0 note=79 velocity=69 time=0
note_on channel=0 note=79 velocity=0 time=120
note_on channel=0 note=76 velocity=69 time=0
note_on channel=0 note=76 velocity=0 time=120
note_on channel=0 note=73 velocity=69 time=0
note_on channel=0 note=73 velocity=0 time=0
note_on channel=0 note=70 velocity=66 time=0
note_on channel=0 note=72 velocity=78 time=0
note_on channel=0 note=52 velocity=71 time=0
note_on channel=0 note=40 velocity=71 time=0
note_on channel=0 note=52 velocity=0 time=8
note_on channel=0 note=53 velocity=65 time=0
note_on channel=0 note=72 velocity=0 time=40
note_on channel=0 note=79 velocity=69 time=0
note_on channel=0 note=53 velocity=0 time=40
note_on channel=0 note=52 velocity=63 time=0
note_on channel=0 note=52 velocity=0 time=1
note_on channel=0 note=79 velocity=0 time=0
note_on channel=0 note=76 velocity=69 time=0
note_on channel=0 note=53 velocity=59 time=0
note_on channel=0 note=53 velocity=0 time=80
note_on channel=0 note=52 velocity=63 time=0
note_on channel=0 note=76 velocity=0 time=40
note_on channel=0 note=72 velocity=69 time=0
note_on channel=0 note=52 velocity=0 time=17
note_on channel=0 note=53 velocity=59 time=0
note_on channel=0 note=53 velocity=0 time=80
note_on channel=0 note=72 velocity=0 time=0
note_on channel=0 note=73 velocity=77 time=0
note_on channel=0 note=52 velocity=63 time=0
note_on channel=0 note=52 velocity=0 time=33
note_on channel=0 note=53 velocity=59 time=0
note_on channel=0 note=73 velocity=0 time=40
note_on channel=0 note=82 velocity=69 time=0
note_on channel=0 note=53 velocity=0 time=40
note_on channel=0 note=52 velocity=63 time=0
note_on channel=0 note=52 velocity=0 time=25
note_on channel=0 note=82 velocity=0 time=0
note_on channel=0 note=79 velocity=69 time=0
note_on channel=0 note=53 velocity=60 time=0
note_on channel=0 note=53 velocity=0 time=80
note_on channel=0 note=52 velocity=63 time=0
note_on channel=0 note=79 velocity=0 time=1
note_on channel=0 note=76 velocity=69 time=0
note_on channel=0 note=52 velocity=0 time=40
note_on channel=0 note=53 velocity=59 time=0
note_on channel=0 note=53 velocity=0 time=1
note_on channel=0 note=76 velocity=0 time=0
note_on channel=0 note=72 velocity=85 time=0
note_on channel=0 note=52 velocity=63 time=0
note_on channel=0 note=52 velocity=0 time=80
note_on channel=0 note=53 velocity=60 time=0
note_on channel=0 note=53 velocity=0 time=41
note_on channel=0 note=52 velocity=63 time=0
note_on channel=0 note=52 velocity=0 time=1
note_on channel=0 note=53 velocity=59 time=0
note_on channel=0 note=53 velocity=0 time=80
note_on channel=0 note=52 velocity=63 time=0
note_on channel=0 note=52 velocity=0 time=41
note_on channel=0 note=53 velocity=59 time=0
note_on channel=0 note=53 velocity=0 time=0
note_on channel=0 note=72 velocity=0 time=0
note_on channel=0 note=70 velocity=0 time=0
note_on channel=0 note=40 velocity=0 time=0
note_on channel=0 note=55 velocity=71 time=0
note_on channel=0 note=55 velocity=0 time=20
note_on channel=0 note=56 velocity=66 time=0
note_on channel=0 note=56 velocity=0 time=80
note_on channel=0 note=55 velocity=63 time=0
note_on channel=0 note=55 velocity=0 time=25
note_on channel=0 note=56 velocity=60 time=0
note_on channel=0 note=56 velocity=0 time=80
note_on channel=0 note=55 velocity=63 time=0
note_on channel=0 note=55 velocity=0 time=41
note_on channel=0 note=56 velocity=59 time=0
note_on channel=0 note=56 velocity=0 time=80
note_on channel=0 note=82 velocity=87 time=0
note_on channel=0 note=55 velocity=63 time=0
note_on channel=0 note=55 velocity=0 time=33
note_on channel=0 note=56 velocity=60 time=0
note_on channel=0 note=56 velocity=0 time=80
note_on channel=0 note=55 velocity=63 time=0
note_on channel=0 note=55 velocity=0 time=80
note_on channel=0 note=56 velocity=59 time=0
note_on channel=0 note=56 velocity=0 time=80
note_on channel=0 note=55 velocity=63 time=0
note_on channel=0 note=55 velocity=0 time=80
note_on channel=0 note=56 velocity=59 time=0
note_on channel=0 note=56 velocity=0 time=1
note_on channel=0 note=55 velocity=63 time=0
note_on channel=0 note=55 velocity=0 time=80
note_on channel=0 note=56 velocity=60 time=0
note_on channel=0 note=56 velocity=0 time=65
note_on channel=0 note=55 velocity=63 time=0
note_on channel=0 note=55 velocity=0 time=73
note_on channel=0 note=56 velocity=59 time=0
note_on channel=0 note=56 velocity=0 time=57
note_on channel=0 note=55 velocity=63 time=0
note_on channel=0 note=55 velocity=0 time=65
note_on channel=0 note=56 velocity=59 time=0
note_on channel=0 note=56 velocity=0 time=49
note_on channel=0 note=82 velocity=0 time=0
note_on channel=0 note=58 velocity=70 time=0
note_on channel=0 note=67 velocity=71 time=0
note_on channel=0 note=29 velocity=89 time=0
note_on channel=0 note=67 velocity=0 time=57
note_on channel=0 note=68 velocity=66 time=0
note_on channel=0 note=68 velocity=0 time=57
note_on channel=0 note=67 velocity=63 time=0
note_on channel=0 note=67 velocity=0 time=49
note_on channel=0 note=68 velocity=60 time=0
note_on channel=0 note=68 velocity=0 time=33
note_on channel=0 note=67 velocity=63 time=0
note_on channel=0 note=67 velocity=0 time=17
note_on channel=0 note=68 velocity=59 time=0
note_on channel=0 note=68 velocity=0 time=1
note_on channel=0 note=67 velocity=63 time=0
note_on channel=0 note=67 velocity=0 time=80
note_on channel=0 note=68 velocity=60 time=0
note_on channel=0 note=68 velocity=0 time=65
note_on channel=0 note=67 velocity=63 time=0
note_on channel=0 note=67 velocity=0 time=1
note_on channel=0 note=68 velocity=59 time=0
note_on channel=0 note=68 velocity=0 time=80
note_on channel=0 note=67 velocity=63 time=0
note_on channel=0 note=67 velocity=0 time=41
note_on channel=0 note=68 velocity=59 time=0
note_on channel=0 note=68 velocity=0 time=80
note_on channel=0 note=29 velocity=0 time=0
note_on channel=0 note=67 velocity=63 time=0
note_on channel=0 note=67 velocity=0 time=57
note_on channel=0 note=68 velocity=60 time=0
note_on channel=0 note=68 velocity=0 time=17
note_on channel=0 note=67 velocity=63 time=0
note_on channel=0 note=67 velocity=0 time=80
note_on channel=0 note=68 velocity=59 time=0
note_on channel=0 note=68 velocity=0 time=33
note_on channel=0 note=67 velocity=63 time=0
note_on channel=0 note=67 velocity=0 time=80
note_on channel=0 note=68 velocity=59 time=0
note_on channel=0 note=68 velocity=0 time=0
note_on channel=0 note=58 velocity=0 time=0
note_on channel=0 note=60 velocity=70 time=0
note_on channel=0 note=65 velocity=70 time=0
note_on channel=0 note=45 velocity=60 time=0
note_on channel=0 note=45 velocity=0 time=33
note_on channel=0 note=46 velocity=56 time=0
note_on channel=0 note=46 velocity=0 time=80
note_on channel=0 note=45 velocity=60 time=0
note_on channel=0 note=45 velocity=0 time=25
note_on channel=0 note=60 velocity=0 time=0
note_on channel=0 note=75 velocity=70 time=0
note_on channel=0 note=46 velocity=56 time=0
note_on channel=0 note=46 velocity=0 time=80
note_on channel=0 note=45 velocity=60 time=0
note_on channel=0 note=45 velocity=0 time=41
note_on channel=0 note=46 velocity=56 time=0
note_on channel=0 note=46 velocity=0 time=80
note_on channel=0 note=65 velocity=0 time=0
note_on channel=0 note=45 velocity=60 time=0
note_on channel=0 note=45 velocity=0 time=33
note_on channel=0 note=46 velocity=56 time=0
note_on channel=0 note=46 velocity=0 time=80
note_on channel=0 note=45 velocity=60 time=0
note_on channel=0 note=45 velocity=0 time=80
note_on channel=0 note=46 velocity=56 time=0
note_on channel=0 note=46 velocity=0 time=80
note_on channel=0 note=45 velocity=60 time=0
note_on channel=0 note=45 velocity=0 time=80
note_on channel=0 note=46 velocity=56 time=0
note_on channel=0 note=46 velocity=0 time=0
note_on channel=0 note=45 velocity=60 time=0
note_on channel=0 note=45 velocity=0 time=33
note_on channel=0 note=46 velocity=56 time=0
note_on channel=0 note=46 velocity=0 time=80
note_on channel=0 note=45 velocity=60 time=0
note_on channel=0 note=45 velocity=0 time=80
note_on channel=0 note=46 velocity=56 time=0
note_on channel=0 note=46 velocity=0 time=80
note_on channel=0 note=45 velocity=60 time=0
note_on channel=0 note=45 velocity=0 time=80
note_on channel=0 note=46 velocity=56 time=0
note_on channel=0 note=46 velocity=0 time=73
note_on channel=0 note=75 velocity=0 time=0
note_on channel=0 note=60 velocity=60 time=0
note_on channel=0 note=60 velocity=0 time=25
note_on channel=0 note=61 velocity=56 time=0
note_on channel=0 note=61 velocity=0 time=80
note_on channel=0 note=60 velocity=60 time=0
note_on channel=0 note=60 velocity=0 time=73
note_on channel=0 note=61 velocity=56 time=0
note_on channel=0 note=61 velocity=0 time=33
note_on channel=0 note=60 velocity=60 time=0
note_on channel=0 note=60 velocity=0 time=17
note_on channel=0 note=61 velocity=56 time=0
note_on channel=0 note=61 velocity=0 time=80
note_on channel=0 note=87 velocity=116 time=0
note_on channel=0 note=60 velocity=60 time=0
note_on channel=0 note=60 velocity=0 time=80
note_on channel=0 note=61 velocity=56 time=0
note_on channel=0 note=61 velocity=0 time=80
note_on channel=0 note=60 velocity=60 time=0
note_on channel=0 note=60 velocity=0 time=80
note_on channel=0 note=61 velocity=56 time=0
note_on channel=0 note=61 velocity=0 time=80
note_on channel=0 note=60 velocity=60 time=0
note_on channel=0 note=60 velocity=0 time=80
note_on channel=0 note=61 velocity=56 time=0
note_on channel=0 note=61 velocity=0 time=80
note_on channel=0 note=60 velocity=60 time=0
note_on channel=0 note=60 velocity=0 time=33
note_on channel=0 note=61 velocity=56 time=0
note_on channel=0 note=61 velocity=0 time=80
note_on channel=0 note=60 velocity=60 time=0
note_on channel=0 note=60 velocity=0 time=73
note_on channel=0 note=61 velocity=56 time=0
note_on channel=0 note=61 velocity=0 time=57
note_on channel=0 note=60 velocity=60 time=0
note_on channel=0 note=60 velocity=0 time=41
note_on channel=0 note=61 velocity=56 time=0
note_on channel=0 note=61 velocity=0 time=25
note_on channel=0 note=87 velocity=0 time=0
note_on channel=0 note=63 velocity=79 time=0
note_on channel=0 note=72 velocity=60 time=0
note_on channel=0 note=34 velocity=71 time=0
note_on channel=0 note=72 velocity=0 time=6
note_on channel=0 note=73 velocity=56 time=0
note_on channel=0 note=73 velocity=0 time=41
note_on channel=0 note=72 velocity=60 time=0
note_on channel=0 note=72 velocity=0 time=25
note_on channel=0 note=73 velocity=56 time=0
note_on channel=0 note=73 velocity=0 time=33
note_on channel=0 note=72 velocity=60 time=0
note_on channel=0 note=72 velocity=0 time=17
note_on channel=0 note=73 velocity=56 time=0
note_on channel=0 note=73 velocity=0 time=1
note_on channel=0 note=72 velocity=60 time=0
note_on channel=0 note=72 velocity=0 time=9
note_on channel=0 note=73 velocity=56 time=0
note_on channel=0 note=73 velocity=0 time=80
note_on channel=0 note=72 velocity=60 time=0
note_on channel=0 note=72 velocity=0 time=49
note_on channel=0 note=73 velocity=56 time=0
note_on channel=0 note=73 velocity=0 time=33
note_on channel=0 note=72 velocity=60 time=0
note_on channel=0 note=72 velocity=0 time=80
note_on channel=0 note=73 velocity=56 time=0
note_on channel=0 note=73 velocity=0 time=73
note_on channel=0 note=63 velocity=0 time=0
note_on channel=0 note=64 velocity=79 time=0
note_on channel=0 note=72 velocity=60 time=0
note_on channel=0 note=72 velocity=0 time=13
note_on channel=0 note=73 velocity=56 time=0
note_on channel=0 note=73 velocity=0 time=80
note_on channel=0 note=72 velocity=60 time=0
note_on channel=0 note=72 velocity=0 time=80
note_on channel=0 note=73 velocity=56 time=0
note_on channel=0 note=73 velocity=0 time=80
note_on channel=0 note=72 velocity=60 time=0
note_on channel=0 note=72 velocity=0 time=80
note_on channel=0 note=73 velocity=56 time=0
note_on channel=0 note=73 velocity=0 time=0
note_on channel=0 note=64 velocity=0 time=0
note_on channel=0 note=34 velocity=0 time=0
note_on channel=0 note=70 velocity=59 time=0
note_on channel=0 note=65 velocity=59 time=0
note_on channel=0 note=49 velocity=51 time=0
note_on channel=0 note=49 velocity=0 time=33
note_on channel=0 note=51 velocity=47 time=0
note_on channel=0 note=51 velocity=0 time=63
note_on channel=0 note=49 velocity=51 time=0
note_on channel=0 note=49 velocity=0 time=25
note_on channel=0 note=65 velocity=0 time=0
note_on channel=0 note=73 velocity=59 time=0
note_on channel=0 note=51 velocity=47 time=0
note_on channel=0 note=51 velocity=0 time=80
note_on channel=0 note=49 velocity=51 time=0
note_on channel=0 note=49 velocity=0 time=41
note_on channel=0 note=51 velocity=47 time=0
note_on channel=0 note=51 velocity=0 time=0
note_on channel=0 note=70 velocity=0 time=0
note_on channel=0 note=49 velocity=51 time=0
note_on channel=0 note=49 velocity=0 time=33
note_on channel=0 note=51 velocity=47 time=0
note_on channel=0 note=51 velocity=0 time=80
note_on channel=0 note=49 velocity=51 time=0
note_on channel=0 note=49 velocity=0 time=80
note_on channel=0 note=51 velocity=47 time=0
note_on channel=0 note=51 velocity=0 time=80
note_on channel=0 note=49 velocity=51 time=0
note_on channel=0 note=49 velocity=0 time=80
note_on channel=0 note=51 velocity=47 time=0
note_on channel=0 note=51 velocity=0 time=0
note_on channel=0 note=49 velocity=51 time=0
note_on channel=0 note=49 velocity=0 time=33
note_on channel=0 note=51 velocity=47 time=0
note_on channel=0 note=51 velocity=0 time=80
note_on channel=0 note=49 velocity=51 time=0
note_on channel=0 note=49 velocity=0 time=80
note_on channel=0 note=51 velocity=51 time=0
note_on channel=0 note=51 velocity=0 time=60
note_on channel=0 note=49 velocity=45 time=0
note_on channel=0 note=49 velocity=0 time=60
note_on channel=0 note=48 velocity=45 time=0
note_on channel=0 note=48 velocity=0 time=13
note_on channel=0 note=49 velocity=45 time=0
note_on channel=0 note=49 velocity=0 time=60
note_on channel=0 note=73 velocity=0 time=0
note_on channel=0 note=85 velocity=110 time=0
note_on channel=0 note=58 velocity=51 time=0
note_on channel=0 note=51 velocity=50 time=0
note_on channel=0 note=58 velocity=0 time=25
note_on channel=0 note=60 velocity=47 time=0
note_on channel=0 note=60 velocity=0 time=80
note_on channel=0 note=58 velocity=51 time=0
note_on channel=0 note=58 velocity=0 time=73
note_on channel=0 note=60 velocity=47 time=0
note_on channel=0 note=60 velocity=0 time=33
note_on channel=0 note=58 velocity=51 time=0
note_on channel=0 note=58 velocity=0 time=17
note_on channel=0 note=60 velocity=47 time=0
note_on channel=0 note=60 velocity=0 time=80
note_on channel=0 note=58 velocity=60 time=0
note_on channel=0 note=58 velocity=0 time=80
note_on channel=0 note=60 velocity=56 time=0
note_on channel=0 note=60 velocity=0 time=80
note_on channel=0 note=58 velocity=60 time=0
note_on channel=0 note=58 velocity=0 time=80
note_on channel=0 note=60 velocity=56 time=0
note_on channel=0 note=60 velocity=0 time=80
note_on channel=0 note=58 velocity=60 time=0
note_on channel=0 note=58 velocity=0 time=80
note_on channel=0 note=60 velocity=56 time=0
note_on channel=0 note=60 velocity=0 time=80
note_on channel=0 note=58 velocity=60 time=0
note_on channel=0 note=58 velocity=0 time=33
note_on channel=0 note=60 velocity=56 time=0
note_on channel=0 note=60 velocity=0 time=80
note_on channel=0 note=58 velocity=60 time=0
note_on channel=0 note=58 velocity=0 time=73
note_on channel=0 note=60 velocity=60 time=0
note_on channel=0 note=60 velocity=0 time=37
note_on channel=0 note=58 velocity=56 time=0
note_on channel=0 note=58 velocity=0 time=1
note_on channel=0 note=57 velocity=56 time=0
note_on channel=0 note=57 velocity=0 time=60
note_on channel=0 note=58 velocity=56 time=0
note_on channel=0 note=58 velocity=0 time=25
note_on channel=0 note=51 velocity=0 time=0
note_on channel=0 note=85 velocity=0 time=0
note_on channel=0 note=61 velocity=79 time=0
note_on channel=0 note=70 velocity=60 time=0
note_on channel=0 note=56 velocity=66 time=0
note_on channel=0 note=70 velocity=0 time=6
note_on channel=0 note=72 velocity=56 time=0
note_on channel=0 note=72 velocity=0 time=41
note_on channel=0 note=70 velocity=60 time=0
note_on channel=0 note=70 velocity=0 time=25
note_on channel=0 note=72 velocity=56 time=0
note_on channel=0 note=72 velocity=0 time=33
note_on channel=0 note=70 velocity=60 time=0
note_on channel=0 note=70 velocity=0 time=17
note_on channel=0 note=72 velocity=56 time=0
note_on channel=0 note=72 velocity=0 time=1
note_on channel=0 note=70 velocity=60 time=0
note_on channel=0 note=70 velocity=0 time=9
note_on channel=0 note=72 velocity=56 time=0
note_on channel=0 note=72 velocity=0 time=80
note_on channel=0 note=70 velocity=60 time=0
note_on channel=0 note=70 velocity=0 time=49
note_on channel=0 note=56 velocity=0 time=0
note_on channel=0 note=72 velocity=56 time=0
note_on channel=0 note=55 velocity=60 time=0
note_on channel=0 note=72 velocity=0 time=33
note_on channel=0 note=70 velocity=60 time=0
note_on channel=0 note=70 velocity=0 time=80
note_on channel=0 note=72 velocity=56 time=0
note_on channel=0 note=72 velocity=0 time=73
note_on channel=0 note=55 velocity=0 time=0
note_on channel=0 note=70 velocity=60 time=0
note_on channel=0 note=53 velocity=66 time=0
note_on channel=0 note=70 velocity=0 time=13
note_on channel=0 note=72 velocity=56 time=0
note_on channel=0 note=72 velocity=0 time=80
note_on channel=0 note=70 velocity=60 time=0
note_on channel=0 note=70 velocity=0 time=80
note_on channel=0 note=53 velocity=0 time=0
note_on channel=0 note=72 velocity=56 time=0
note_on channel=0 note=51 velocity=53 time=0
note_on channel=0 note=72 velocity=0 time=80
note_on channel=0 note=70 velocity=60 time=0
note_on channel=0 note=70 velocity=0 time=80
note_on channel=0 note=72 velocity=56 time=0
note_on channel=0 note=72 velocity=0 time=0
note_on channel=0 note=51 velocity=0 time=0
note_on channel=0 note=61 velocity=0 time=0
note_on channel=0 note=67 velocity=69 time=0
note_on channel=0 note=70 velocity=60 time=0
note_on channel=0 note=50 velocity=66 time=0
note_on channel=0 note=70 velocity=0 time=57
note_on channel=0 note=72 velocity=56 time=0
note_on channel=0 note=72 velocity=0 time=41
note_on channel=0 note=70 velocity=60 time=0
note_on channel=0 note=70 velocity=0 time=25
note_on channel=0 note=50 velocity=0 time=0
note_on channel=0 note=72 velocity=56 time=0
note_on channel=0 note=51 velocity=55 time=0
note_on channel=0 note=72 velocity=0 time=33
note_on channel=0 note=70 velocity=60 time=0
note_on channel=0 note=70 velocity=0 time=17
note_on channel=0 note=72 velocity=56 time=0
note_on channel=0 note=72 velocity=0 time=1
note_on channel=0 note=51 velocity=0 time=0
note_on channel=0 note=70 velocity=60 time=0
note_on channel=0 note=51 velocity=66 time=0
note_on channel=0 note=70 velocity=0 time=9
note_on channel=0 note=72 velocity=56 time=0
note_on channel=0 note=72 velocity=0 time=80
note_on channel=0 note=70 velocity=60 time=0
note_on channel=0 note=70 velocity=0 time=49
note_on channel=0 note=67 velocity=0 time=0
note_on channel=0 note=65 velocity=59 time=0
note_on channel=0 note=72 velocity=56 time=0
note_on channel=0 note=72 velocity=0 time=33
note_on channel=0 note=70 velocity=60 time=0
note_on channel=0 note=70 velocity=0 time=80
note_on channel=0 note=72 velocity=56 time=0
note_on channel=0 note=72 velocity=0 time=73
note_on channel=0 note=65 velocity=0 time=0
note_on channel=0 note=63 velocity=59 time=0
note_on channel=0 note=70 velocity=60 time=0
note_on channel=0 note=70 velocity=0 time=57
note_on channel=0 note=72 velocity=56 time=0
note_on channel=0 note=72 velocity=0 time=80
note_on channel=0 note=70 velocity=60 time=0
note_on channel=0 note=70 velocity=0 time=80
note_on channel=0 note=63 velocity=0 time=0
note_on channel=0 note=72 velocity=56 time=0
note_on channel=0 note=61 velocity=59 time=0
note_on channel=0 note=72 velocity=0 time=60
note_on channel=0 note=70 velocity=56 time=0
note_on channel=0 note=70 velocity=0 time=60
note_on channel=0 note=69 velocity=53 time=0
note_on channel=0 note=69 velocity=0 time=60
note_on channel=0 note=70 velocity=54 time=0
note_on channel=0 note=70 velocity=0 time=60
note_on channel=0 note=61 velocity=0 time=0
note_on channel=0 note=77 velocity=69 time=0
note_on channel=0 note=60 velocity=55 time=0
note_on channel=0 note=60 velocity=0 time=236
note_on channel=0 note=61 velocity=59 time=0
note_on channel=0 note=61 velocity=0 time=240
note_on channel=0 note=51 velocity=0 time=0
note_on channel=0 note=51 velocity=57 time=0
note_on channel=0 note=59 velocity=59 time=0
note_on channel=0 note=59 velocity=0 time=240
note_on channel=0 note=77 velocity=0 time=0
note_on channel=0 note=75 velocity=47 time=0
note_on channel=0 note=60 velocity=53 time=0
note_on channel=0 note=60 velocity=0 time=240
note_on channel=0 note=75 velocity=0 time=0
note_on channel=0 note=73 velocity=51 time=0
note_on channel=0 note=58 velocity=59 time=0
note_on channel=0 note=58 velocity=0 time=240
note_on channel=0 note=73 velocity=0 time=0
note_on channel=0 note=72 velocity=48 time=0
note_on channel=0 note=56 velocity=53 time=0
note_on channel=0 note=56 velocity=0 time=0
note_on channel=0 note=72 velocity=0 time=0
note_on channel=0 note=51 velocity=0 time=0
note_on channel=0 note=67 velocity=51 time=0
note_on channel=0 note=71 velocity=51 time=0
note_on channel=0 note=51 velocity=45 time=0
note_on channel=0 note=51 velocity=0 time=33
note_on channel=0 note=53 velocity=42 time=0
note_on channel=0 note=53 velocity=0 time=80
note_on channel=0 note=51 velocity=45 time=0
note_on channel=0 note=51 velocity=0 time=25
note_on channel=0 note=71 velocity=0 time=0
note_on channel=0 note=67 velocity=0 time=0
note_on channel=0 note=68 velocity=46 time=0
note_on channel=0 note=72 velocity=46 time=0
note_on channel=0 note=53 velocity=42 time=0
note_on channel=0 note=53 velocity=0 time=80
note_on channel=0 note=51 velocity=45 time=0
note_on channel=0 note=51 velocity=0 time=41
note_on channel=0 note=53 velocity=42 time=0
note_on channel=0 note=53 velocity=0 time=80
note_on channel=0 note=72 velocity=0 time=0
note_on channel=0 note=68 velocity=0 time=0
note_on channel=0 note=69 velocity=51 time=0
note_on channel=0 note=75 velocity=51 time=0
note_on channel=0 note=51 velocity=45 time=0
note_on channel=0 note=51 velocity=0 time=23
note_on channel=0 note=53 velocity=42 time=0
note_on channel=0 note=53 velocity=0 time=80
note_on channel=0 note=51 velocity=45 time=0
note_on channel=0 note=51 velocity=0 time=80
note_on channel=0 note=75 velocity=0 time=0
note_on channel=0 note=69 velocity=0 time=0
note_on channel=0 note=70 velocity=48 time=0
note_on channel=0 note=73 velocity=48 time=0
note_on channel=0 note=53 velocity=42 time=0
note_on channel=0 note=53 velocity=0 time=80
note_on channel=0 note=51 velocity=45 time=0
note_on channel=0 note=51 velocity=0 time=80
note_on channel=0 note=53 velocity=42 time=0
note_on channel=0 note=53 velocity=0 time=0
note_on channel=0 note=73 velocity=0 time=0
note_on channel=0 note=70 velocity=0 time=0
note_on channel=0 note=63 velocity=51 time=0
note_on channel=0 note=72 velocity=51 time=0
note_on channel=0 note=51 velocity=45 time=0
note_on channel=0 note=51 velocity=0 time=33
note_on channel=0 note=53 velocity=42 time=0
note_on channel=0 note=53 velocity=0 time=75
note_on channel=0 note=51 velocity=45 time=0
note_on channel=0 note=51 velocity=0 time=80
note_on channel=0 note=72 velocity=0 time=0
note_on channel=0 note=63 velocity=0 time=0
note_on channel=0 note=61 velocity=49 time=0
note_on channel=0 note=70 velocity=49 time=0
note_on channel=0 note=53 velocity=45 time=0
note_on channel=0 note=53 velocity=0 time=120
note_on channel=0 note=51 velocity=40 time=0
note_on channel=0 note=51 velocity=0 time=73
note_on channel=0 note=70 velocity=0 time=0
note_on channel=0 note=69 velocity=51 time=0
note_on channel=0 note=53 velocity=52 time=0
note_on channel=0 note=53 velocity=0 time=173
note_on channel=0 note=69 velocity=0 time=0
note_on channel=0 note=61 velocity=0 time=0
note_on channel=0 note=61 velocity=45 time=0
note_on channel=0 note=70 velocity=45 time=0
note_on channel=0 note=55 velocity=47 time=0
note_on channel=0 note=55 velocity=0 time=240
note_on channel=0 note=70 velocity=0 time=0
note_on channel=0 note=63 velocity=51 time=0
note_on channel=0 note=56 velocity=40 time=0
note_on channel=0 note=56 velocity=0 time=7
note_on channel=0 note=48 velocity=40 time=0
note_on channel=0 note=48 velocity=0 time=120
note_on channel=0 note=61 velocity=0 time=0
note_on channel=0 note=60 velocity=45 time=0
note_on channel=0 note=51 velocity=40 time=0
note_on channel=0 note=51 velocity=0 time=120
note_on channel=0 note=56 velocity=40 time=0
note_on channel=0 note=60 velocity=0 time=115
note_on channel=0 note=56 velocity=0 time=5
note_on channel=0 note=63 velocity=0 time=0
note_on channel=0 note=60 velocity=52 time=0
note_on channel=0 note=60 velocity=0 time=108
note_on channel=0 note=80 velocity=52 time=0
note_on channel=0 note=79 velocity=51 time=0
note_on channel=0 note=61 velocity=54 time=0
note_on channel=0 note=80 velocity=0 time=24
note_on channel=0 note=61 velocity=0 time=96
note_on channel=0 note=77 velocity=50 time=0
note_on channel=0 note=79 velocity=0 time=24
note_on channel=0 note=75 velocity=60 time=96
note_on channel=0 note=63 velocity=61 time=0
note_on channel=0 note=77 velocity=0 time=24
note_on channel=0 note=75 velocity=0 time=96
note_on channel=0 note=70 velocity=48 time=0
note_on channel=0 note=70 velocity=0 time=120
note_on channel=0 note=72 velocity=40 time=0
note_on channel=0 note=79 velocity=64 time=0
note_on channel=0 note=79 velocity=0 time=0
note_on channel=0 note=72 velocity=0 time=0
note_on channel=0 note=73 velocity=53 time=0
note_on channel=0 note=73 velocity=0 time=0
note_on channel=0 note=63 velocity=0 time=0
note_on channel=0 note=72 velocity=48 time=0
note_on channel=0 note=80 velocity=68 time=0
note_on channel=0 note=72 velocity=0 time=106
note_on channel=0 note=60 velocity=48 time=0
note_on channel=0 note=60 velocity=0 time=120
note_on channel=0 note=80 velocity=0 time=0
note_on channel=0 note=63 velocity=48 time=0
note_on channel=0 note=63 velocity=0 time=120
note_on channel=0 note=68 velocity=48 time=0
note_on channel=0 note=68 velocity=0 time=120
note_on channel=0 note=72 velocity=59 time=0
note_on channel=0 note=72 velocity=0 time=109
note_on channel=0 note=84 velocity=52 time=0
note_on channel=0 note=84 velocity=0 time=120
note_on channel=0 note=82 velocity=51 time=0
note_on channel=0 note=73 velocity=62 time=0
note_on channel=0 note=73 velocity=0 time=0
note_on channel=0 note=82 velocity=0 time=0
note_on channel=0 note=80 velocity=50 time=0
note_on channel=0 note=80 velocity=0 time=0
note_on channel=0 note=79 velocity=50 time=0
note_on channel=0 note=75 velocity=65 time=0
note_on channel=0 note=58 velocity=40 time=120
note_on channel=0 note=58 velocity=0 time=120
note_on channel=0 note=60 velocity=43 time=0
note_on channel=0 note=60 velocity=0 time=120
note_on channel=0 note=61 velocity=45 time=0
note_on channel=0 note=61 velocity=0 time=120
note_on channel=0 note=79 velocity=0 time=0
note_on channel=0 note=80 velocity=51 time=0
note_on channel=0 note=60 velocity=49 time=0
note_on channel=0 note=80 velocity=0 time=35
note_on channel=0 note=72 velocity=50 time=0
note_on channel=0 note=72 velocity=0 time=120
note_on channel=0 note=75 velocity=0 time=0
note_on channel=0 note=75 velocity=48 time=0
note_on channel=0 note=75 velocity=0 time=120
note_on channel=0 note=80 velocity=57 time=0
note_on channel=0 note=80 velocity=0 time=120
note_on channel=0 note=60 velocity=0 time=0
note_on channel=0 note=84 velocity=74 time=0
note_on channel=0 note=84 velocity=0 time=117
note_on channel=0 note=56 velocity=40 time=0
note_on channel=0 note=85 velocity=77 time=120
note_on channel=0 note=55 velocity=44 time=0
note_on channel=0 note=56 velocity=0 time=24
note_on channel=0 note=85 velocity=0 time=0
note_on channel=0 note=53 velocity=40 time=0
note_on channel=0 note=55 velocity=0 time=24
note_on channel=0 note=87 velocity=80 time=0
note_on channel=0 note=51 velocity=49 time=0
note_on channel=0 note=53 velocity=0 time=24
note_on channel=0 note=55 velocity=42 time=42
note_on channel=0 note=55 velocity=0 time=120
note_on channel=0 note=56 velocity=44 time=0
note_on channel=0 note=56 velocity=0 time=0
note_on channel=0 note=58 velocity=47 time=0
note_on channel=0 note=58 velocity=0 time=0
note_on channel=0 note=51 velocity=0 time=0
note_on channel=0 note=87 velocity=0 time=0
note_on channel=0 note=60 velocity=63 time=0
note_on channel=0 note=60 velocity=0 time=120
note_on channel=0 note=72 velocity=52 time=0
note_on channel=0 note=72 velocity=0 time=120
note_on channel=0 note=70 velocity=50 time=0
note_on channel=0 note=61 velocity=65 time=0
note_on channel=0 note=61 velocity=0 time=120
note_on channel=0 note=70 velocity=0 time=0
note_on channel=0 note=68 velocity=49 time=0
note_on channel=0 note=68 velocity=0 time=120
note_on channel=0 note=67 velocity=50 time=0
note_on channel=0 note=63 velocity=68 time=0
note_on channel=0 note=53 velocity=44 time=63
note_on channel=0 note=53 velocity=0 time=120
note_on channel=0 note=51 velocity=52 time=0
note_on channel=0 note=51 velocity=0 time=120
note_on channel=0 note=49 velocity=46 time=0
note_on channel=0 note=49 velocity=0 time=0
note_on channel=0 note=67 velocity=0 time=0
note_on channel=0 note=68 velocity=50 time=0
note_on channel=0 note=48 velocity=53 time=0
note_on channel=0 note=63 velocity=0 time=34
note_on channel=0 note=60 velocity=62 time=0
note_on channel=0 note=60 velocity=0 time=120
note_on channel=0 note=48 velocity=0 time=0
note_on channel=0 note=58 velocity=65 time=0
note_on channel=0 note=50 velocity=55 time=0
note_on channel=0 note=50 velocity=0 time=120
note_on channel=0 note=58 velocity=0 time=0
note_on channel=0 note=56 velocity=68 time=0
note_on channel=0 note=52 velocity=58 time=0
note_on channel=0 note=52 velocity=0 time=0
note_on channel=0 note=56 velocity=0 time=0
note_on channel=0 note=60 velocity=71 time=0
note_on channel=0 note=53 velocity=61 time=0
note_on channel=0 note=68 velocity=0 time=23
note_on channel=0 note=68 velocity=62 time=0
note_on channel=0 note=68 velocity=0 time=120
note_on channel=0 note=60 velocity=0 time=0
note_on channel=0 note=72 velocity=65 time=0
note_on channel=0 note=72 velocity=0 time=120
note_on channel=0 note=77 velocity=67 time=0
note_on channel=0 note=77 velocity=0 time=120
note_on channel=0 note=53 velocity=0 time=0
note_on channel=0 note=80 velocity=72 time=0
note_on channel=0 note=80 velocity=0 time=108
note_on channel=0 note=77 velocity=65 time=0
note_on channel=0 note=77 velocity=0 time=120
note_on channel=0 note=75 velocity=65 time=0
note_on channel=0 note=82 velocity=75 time=0
note_on channel=0 note=82 velocity=0 time=0
note_on channel=0 note=75 velocity=0 time=0
note_on channel=0 note=73 velocity=62 time=0
note_on channel=0 note=73 velocity=0 time=0
note_on channel=0 note=72 velocity=66 time=0
note_on channel=0 note=84 velocity=79 time=0
note_on channel=0 note=52 velocity=55 time=5
note_on channel=0 note=52 velocity=0 time=120
note_on channel=0 note=53 velocity=56 time=0
note_on channel=0 note=53 velocity=0 time=120
note_on channel=0 note=55 velocity=58 time=0
note_on channel=0 note=55 velocity=0 time=120
note_on channel=0 note=56 velocity=64 time=0
note_on channel=0 note=56 velocity=0 time=120
note_on channel=0 note=72 velocity=0 time=0
note_on channel=0 note=68 velocity=65 time=0
note_on channel=0 note=67 velocity=63 time=120
note_on channel=0 note=58 velocity=68 time=0
note_on channel=0 note=68 velocity=0 time=24
note_on channel=0 note=58 velocity=0 time=96
note_on channel=0 note=65 velocity=61 time=0
note_on channel=0 note=67 velocity=0 time=24
note_on channel=0 note=84 velocity=0 time=0
note_on channel=0 note=68 velocity=71 time=0
note_on channel=0 note=60 velocity=73 time=0
note_on channel=0 note=65 velocity=0 time=24
note_on channel=0 note=80 velocity=65 time=45
note_on channel=0 note=80 velocity=0 time=120
note_on channel=0 note=79 velocity=69 time=0
note_on channel=0 note=79 velocity=0 time=120
note_on channel=0 note=77 velocity=63 time=0
note_on channel=0 note=77 velocity=0 time=0
note_on channel=0 note=76 velocity=71 time=0
note_on channel=0 note=76 velocity=0 time=11
note_on channel=0 note=60 velocity=0 time=0
note_on channel=0 note=68 velocity=0 time=0
note_on channel=0 note=72 velocity=61 time=0
note_on channel=0 note=56 velocity=59 time=0
note_on channel=0 note=56 velocity=0 time=120
note_on channel=0 note=72 velocity=0 time=0
note_on channel=0 note=70 velocity=65 time=0
note_on channel=0 note=77 velocity=65 time=0
note_on channel=0 note=55 velocity=59 time=0
note_on channel=0 note=55 velocity=0 time=120
note_on channel=0 note=77 velocity=0 time=0
note_on channel=0 note=70 velocity=0 time=0
note_on channel=0 note=68 velocity=60 time=0
note_on channel=0 note=53 velocity=59 time=0
note_on channel=0 note=53 velocity=0 time=120
note_on channel=0 note=68 velocity=0 time=0
note_on channel=0 note=80 velocity=66 time=0
note_on channel=0 note=60 velocity=64 time=0
note_on channel=0 note=60 velocity=0 time=120
note_on channel=0 note=80 velocity=0 time=0
note_on channel=0 note=65 velocity=69 time=0
note_on channel=0 note=82 velocity=68 time=0
note_on channel=0 note=64 velocity=67 time=0
note_on channel=0 note=65 velocity=0 time=24
note_on channel=0 note=82 velocity=0 time=0
note_on channel=0 note=62 velocity=65 time=0
note_on channel=0 note=64 velocity=0 time=24
note_on channel=0 note=84 velocity=69 time=0
note_on channel=0 note=60 velocity=62 time=0
note_on channel=0 note=62 velocity=0 time=24
note_on channel=0 note=60 velocity=0 time=80
note_on channel=0 note=72 velocity=62 time=0
note_on channel=0 note=58 velocity=60 time=0
note_on channel=0 note=58 velocity=0 time=120
note_on channel=0 note=72 velocity=0 time=0
note_on channel=0 note=74 velocity=64 time=0
note_on channel=0 note=56 velocity=57 time=0
note_on channel=0 note=56 velocity=0 time=120
note_on channel=0 note=74 velocity=0 time=0
note_on channel=0 note=76 velocity=66 time=0
note_on channel=0 note=55 velocity=55 time=0
note_on channel=0 note=55 velocity=0 time=120
note_on channel=0 note=76 velocity=0 time=0
note_on channel=0 note=77 velocity=68 time=0
note_on channel=0 note=53 velocity=68 time=0
note_on channel=0 note=84 velocity=0 time=11
note_on channel=0 note=80 velocity=62 time=0
note_on channel=0 note=80 velocity=0 time=120
note_on channel=0 note=53 velocity=0 time=0
note_on channel=0 note=79 velocity=65 time=0
note_on channel=0 note=79 velocity=0 time=120
note_on channel=0 note=77 velocity=60 time=0
note_on channel=0 note=77 velocity=0 time=120
note_on channel=0 note=77 velocity=0 time=0
note_on channel=0 note=81 velocity=66 time=0
note_on channel=0 note=60 velocity=64 time=0
note_on channel=0 note=60 velocity=0 time=91
note_on channel=0 note=81 velocity=0 time=0
note_on channel=0 note=63 velocity=69 time=0
note_on channel=0 note=82 velocity=69 time=0
note_on channel=0 note=61 velocity=67 time=0
note_on channel=0 note=63 velocity=0 time=24
note_on channel=0 note=82 velocity=0 time=0
note_on channel=0 note=60 velocity=65 time=0
note_on channel=0 note=61 velocity=0 time=24
note_on channel=0 note=84 velocity=72 time=0
note_on channel=0 note=58 velocity=62 time=0
note_on channel=0 note=60 velocity=0 time=24
note_on channel=0 note=58 velocity=0 time=34
note_on channel=0 note=72 velocity=58 time=0
note_on channel=0 note=57 velocity=60 time=0
note_on channel=0 note=57 velocity=0 time=120
note_on channel=0 note=72 velocity=0 time=0
note_on channel=0 note=74 velocity=61 time=0
note_on channel=0 note=55 velocity=57 time=0
note_on channel=0 note=55 velocity=0 time=120
note_on channel=0 note=74 velocity=0 time=0
note_on channel=0 note=76 velocity=64 time=0
note_on channel=0 note=53 velocity=55 time=0
note_on channel=0 note=53 velocity=0 time=120
note_on channel=0 note=76 velocity=0 time=0
note_on channel=0 note=77 velocity=68 time=0
note_on channel=0 note=51 velocity=68 time=0
note_on channel=0 note=84 velocity=0 time=34
note_on channel=0 note=81 velocity=63 time=0
note_on channel=0 note=81 velocity=0 time=0
note_on channel=0 note=79 velocity=65 time=0
note_on channel=0 note=77 velocity=0 time=118
note_on channel=0 note=79 velocity=0 time=2
note_on channel=0 note=77 velocity=62 time=0
note_on channel=0 note=77 velocity=0 time=0
note_on channel=0 note=51 velocity=0 time=0
note_on channel=0 note=82 velocity=68 time=0
note_on channel=0 note=49 velocity=64 time=0
note_on channel=0 note=49 velocity=0 time=120
note_on channel=0 note=82 velocity=0 time=0
note_on channel=0 note=61 velocity=69 time=0
note_on channel=0 note=84 velocity=71 time=0
note_on channel=0 note=60 velocity=67 time=0
note_on channel=0 note=61 velocity=0 time=24
note_on channel=0 note=84 velocity=0 time=0
note_on channel=0 note=58 velocity=65 time=0
note_on channel=0 note=60 velocity=0 time=24
note_on channel=0 note=85 velocity=74 time=0
note_on channel=0 note=57 velocity=62 time=0
note_on channel=0 note=58 velocity=0 time=24
note_on channel=0 note=57 velocity=0 time=63
note_on channel=0 note=77 velocity=59 time=0
note_on channel=0 note=55 velocity=60 time=0
note_on channel=0 note=55 velocity=0 time=120
note_on channel=0 note=77 velocity=0 time=0
note_on channel=0 note=79 velocity=61 time=0
note_on channel=0 note=53 velocity=57 time=0
note_on channel=0 note=53 velocity=0 time=0
note_on channel=0 note=79 velocity=0 time=0
note_on channel=0 note=81 velocity=63 time=0
note_on channel=0 note=51 velocity=55 time=0
note_on channel=0 note=51 velocity=0 time=0
note_on channel=0 note=81 velocity=0 time=0
note_on channel=0 note=82 velocity=65 time=0
note_on channel=0 note=49 velocity=68 time=0
note_on channel=0 note=82 velocity=0 time=13
note_on channel=0 note=85 velocity=0 time=10
note_on channel=0 note=82 velocity=58 time=0
note_on channel=0 note=78 velocity=58 time=120
note_on channel=0 note=78 velocity=0 time=120
note_on channel=0 note=77 velocity=56 time=0
note_on channel=0 note=77 velocity=0 time=120
note_on channel=0 note=82 velocity=0 time=0
note_on channel=0 note=49 velocity=0 time=0
note_on channel=0 note=81 velocity=63 time=0
note_on channel=0 note=75 velocity=63 time=0
note_on channel=0 note=48 velocity=64 time=0
note_on channel=0 note=48 velocity=0 time=120
note_on channel=0 note=75 velocity=0 time=0
note_on channel=0 note=60 velocity=69 time=0
note_on channel=0 note=77 velocity=65 time=120
note_on channel=0 note=58 velocity=67 time=0
note_on channel=0 note=60 velocity=0 time=24
note_on channel=0 note=77 velocity=0 time=0
note_on channel=0 note=57 velocity=65 time=0
note_on channel=0 note=58 velocity=0 time=24
note_on channel=0 note=81 velocity=0 time=0
note_on channel=0 note=78 velocity=70 time=0
note_on channel=0 note=54 velocity=62 time=0
note_on channel=0 note=57 velocity=0 time=24
note_on channel=0 note=54 velocity=0 time=5
note_on channel=0 note=81 velocity=60 time=0
note_on channel=0 note=53 velocity=60 time=0
note_on channel=0 note=53 velocity=0 time=120
note_on channel=0 note=81 velocity=0 time=0
note_on channel=0 note=84 velocity=62 time=0
note_on channel=0 note=51 velocity=57 time=0
note_on channel=0 note=51 velocity=0 time=120
note_on channel=0 note=84 velocity=0 time=0
note_on channel=0 note=85 velocity=65 time=0
note_on channel=0 note=49 velocity=55 time=0
note_on channel=0 note=49 velocity=0 time=0
note_on channel=0 note=85 velocity=0 time=0
note_on channel=0 note=87 velocity=67 time=0
note_on channel=0 note=48 velocity=68 time=0
note_on channel=0 note=78 velocity=0 time=5
note_on channel=0 note=75 velocity=60 time=0
note_on channel=0 note=75 velocity=0 time=120
note_on channel=0 note=73 velocity=63 time=0
note_on channel=0 note=73 velocity=0 time=0
note_on channel=0 note=72 velocity=55 time=0
note_on channel=0 note=72 velocity=0 time=0
note_on channel=0 note=48 velocity=0 time=0
note_on channel=0 note=87 velocity=0 time=0
note_on channel=0 note=77 velocity=65 time=0
note_on channel=0 note=50 velocity=68 time=0
note_on channel=0 note=38 velocity=57 time=0
note_on channel=0 note=38 velocity=0 time=120
note_on channel=0 note=50 velocity=0 time=0
note_on channel=0 note=82 velocity=69 time=0
note_on channel=0 note=77 velocity=0 time=24
note_on channel=0 note=81 velocity=65 time=96
note_on channel=0 note=51 velocity=71 time=0
note_on channel=0 note=39 velocity=60 time=0
note_on channel=0 note=82 velocity=0 time=24
note_on channel=0 note=39 velocity=0 time=0
note_on channel=0 note=51 velocity=0 time=0
note_on channel=0 note=79 velocity=64 time=0
note_on channel=0 note=81 velocity=0 time=24
note_on channel=0 note=77 velocity=60 time=0
note_on channel=0 note=41 velocity=64 time=0
note_on channel=0 note=53 velocity=76 time=0
note_on channel=0 note=79 velocity=0 time=24
note_on channel=0 note=77 velocity=0 time=28
note_on channel=0 note=75 velocity=60 time=0
note_on channel=0 note=75 velocity=0 time=120
note_on channel=0 note=74 velocity=60 time=0
note_on channel=0 note=74 velocity=0 time=120
note_on channel=0 note=72 velocity=60 time=0
note_on channel=0 note=72 velocity=0 time=0
note_on channel=0 note=70 velocity=67 time=0
note_on channel=0 note=74 velocity=67 time=0
note_on channel=0 note=74 velocity=0 time=17
note_on channel=0 note=53 velocity=0 time=0
note_on channel=0 note=41 velocity=0 time=0
note_on channel=0 note=77 velocity=60 time=0
note_on channel=0 note=50 velocity=63 time=0
note_on channel=0 note=50 velocity=0 time=120
note_on channel=0 note=77 velocity=0 time=0
note_on channel=0 note=78 velocity=60 time=0
note_on channel=0 note=48 velocity=63 time=0
note_on channel=0 note=48 velocity=0 time=120
note_on channel=0 note=78 velocity=0 time=0
note_on channel=0 note=80 velocity=60 time=0
note_on channel=0 note=46 velocity=63 time=0
note_on channel=0 note=46 velocity=0 time=0
note_on channel=0 note=80 velocity=0 time=0
note_on channel=0 note=79 velocity=66 time=0
note_on channel=0 note=39 velocity=57 time=0
note_on channel=0 note=51 velocity=68 time=0
note_on channel=0 note=51 velocity=0 time=117
note_on channel=0 note=39 velocity=0 time=0
note_on channel=0 note=82 velocity=67 time=0
note_on channel=0 note=79 velocity=0 time=24
note_on channel=0 note=70 velocity=0 time=96
note_on channel=0 note=80 velocity=70 time=0
note_on channel=0 note=41 velocity=57 time=0
note_on channel=0 note=53 velocity=68 time=0
note_on channel=0 note=82 velocity=0 time=24
note_on channel=0 note=53 velocity=0 time=0
note_on channel=0 note=41 velocity=0 time=0
note_on channel=0 note=79 velocity=69 time=0
note_on channel=0 note=80 velocity=0 time=24
note_on channel=0 note=77 velocity=68 time=0
note_on channel=0 note=43 velocity=59 time=0
note_on channel=0 note=55 velocity=70 time=0
note_on channel=0 note=79 velocity=0 time=24
note_on channel=0 note=77 velocity=0 time=40
note_on channel=0 note=75 velocity=66 time=0
note_on channel=0 note=75 velocity=0 time=120
note_on channel=0 note=63 velocity=65 time=0
note_on channel=0 note=74 velocity=65 time=0
note_on channel=0 note=74 velocity=0 time=120
note_on channel=0 note=72 velocity=64 time=0
note_on channel=0 note=72 velocity=0 time=120
note_on channel=0 note=70 velocity=69 time=0
note_on channel=0 note=63 velocity=0 time=34
note_on channel=0 note=55 velocity=0 time=0
note_on channel=0 note=43 velocity=0 time=0
note_on channel=0 note=67 velocity=60 time=0
note_on channel=0 note=51 velocity=64 time=0
note_on channel=0 note=51 velocity=0 time=0
note_on channel=0 note=67 velocity=0 time=0
note_on channel=0 note=68 velocity=60 time=0
note_on channel=0 note=47 velocity=64 time=0
note_on channel=0 note=47 velocity=0 time=120
note_on channel=0 note=68 velocity=0 time=0
note_on channel=0 note=70 velocity=60 time=0
note_on channel=0 note=46 velocity=64 time=0
note_on channel=0 note=46 velocity=0 time=0
note_on channel=0 note=70 velocity=0 time=0
note_on channel=0 note=70 velocity=0 time=0
note_on channel=0 note=63 velocity=65 time=0
note_on channel=0 note=43 velocity=57 time=0
note_on channel=0 note=55 velocity=68 time=0
note_on channel=0 note=55 velocity=0 time=120
note_on channel=0 note=43 velocity=0 time=0
note_on channel=0 note=63 velocity=0 time=0
note_on channel=0 note=75 velocity=69 time=0
note_on channel=0 note=73 velocity=68 time=120
note_on channel=0 note=44 velocity=60 time=0
note_on channel=0 note=56 velocity=71 time=0
note_on channel=0 note=75 velocity=0 time=24
note_on channel=0 note=56 velocity=0 time=0
note_on channel=0 note=44 velocity=0 time=0
note_on channel=0 note=72 velocity=67 time=0
note_on channel=0 note=73 velocity=0 time=24
note_on channel=0 note=70 velocity=65 time=0
note_on channel=0 note=46 velocity=61 time=0
note_on channel=0 note=58 velocity=72 time=0
note_on channel=0 note=72 velocity=0 time=24
note_on channel=0 note=70 velocity=0 time=35
note_on channel=0 note=68 velocity=64 time=0
note_on channel=0 note=68 velocity=0 time=120
note_on channel=0 note=67 velocity=60 time=0
note_on channel=0 note=67 velocity=0 time=120
note_on channel=0 note=65 velocity=60 time=0
note_on channel=0 note=65 velocity=0 time=120
note_on channel=0 note=67 velocity=66 time=0
note_on channel=0 note=63 velocity=66 time=0
note_on channel=0 note=67 velocity=0 time=108
note_on channel=0 note=58 velocity=0 time=0
note_on channel=0 note=46 velocity=0 time=0
note_on channel=0 note=70 velocity=61 time=0
note_on channel=0 note=55 velocity=64 time=0
note_on channel=0 note=55 velocity=0 time=0
note_on channel=0 note=70 velocity=0 time=0
note_on channel=0 note=72 velocity=62 time=0
note_on channel=0 note=53 velocity=64 time=0
note_on channel=0 note=53 velocity=0 time=120
note_on channel=0 note=72 velocity=0 time=0
note_on channel=0 note=73 velocity=63 time=0
note_on channel=0 note=51 velocity=64 time=0
note_on channel=0 note=51 velocity=0 time=0
note_on channel=0 note=73 velocity=0 time=0
note_on channel=0 note=72 velocity=64 time=0
note_on channel=0 note=44 velocity=61 time=0
note_on channel=0 note=56 velocity=72 time=0
note_on channel=0 note=56 velocity=0 time=107
note_on channel=0 note=44 velocity=0 time=0
note_on channel=0 note=84 velocity=70 time=0
note_on channel=0 note=72 velocity=0 time=24
note_on channel=0 note=63 velocity=0 time=96
note_on channel=0 note=82 velocity=69 time=0
note_on channel=0 note=46 velocity=61 time=0
note_on channel=0 note=58 velocity=72 time=0
note_on channel=0 note=84 velocity=0 time=24
note_on channel=0 note=58 velocity=0 time=0
note_on channel=0 note=46 velocity=0 time=0
note_on channel=0 note=80 velocity=68 time=0
note_on channel=0 note=82 velocity=0 time=24
note_on channel=0 note=79 velocity=66 time=0
note_on channel=0 note=48 velocity=63 time=0
note_on channel=0 note=60 velocity=75 time=0
note_on channel=0 note=80 velocity=0 time=24
note_on channel=0 note=79 velocity=0 time=42
note_on channel=0 note=77 velocity=66 time=0
note_on channel=0 note=77 velocity=0 time=120
note_on channel=0 note=75 velocity=63 time=0
note_on channel=0 note=75 velocity=0 time=120
note_on channel=0 note=73 velocity=61 time=0
note_on channel=0 note=73 velocity=0 time=0
note_on channel=0 note=63 velocity=72 time=0
note_on channel=0 note=72 velocity=65 time=0
note_on channel=0 note=63 velocity=0 time=112
note_on channel=0 note=60 velocity=0 time=0
note_on channel=0 note=48 velocity=0 time=0
note_on channel=0 note=56 velocity=60 time=0
note_on channel=0 note=67 velocity=74 time=120
note_on channel=0 note=51 velocity=59 time=0
note_on channel=0 note=56 velocity=0 time=24
note_on channel=0 note=67 velocity=0 time=0
note_on channel=0 note=48 velocity=59 time=0
note_on channel=0 note=51 velocity=0 time=24
note_on channel=0 note=48 velocity=0 time=0
note_on channel=0 note=68 velocity=79 time=0
note_on channel=0 note=56 velocity=69 time=0
note_on channel=0 note=56 velocity=0 time=120
note_on channel=0 note=51 velocity=60 time=0
note_on channel=0 note=51 velocity=0 time=120
note_on channel=0 note=68 velocity=0 time=0
note_on channel=0 note=72 velocity=0 time=0
note_on channel=0 note=79 velocity=65 time=0
note_on channel=0 note=70 velocity=78 time=0
note_on channel=0 note=48 velocity=60 time=0
note_on channel=0 note=48 velocity=0 time=120
note_on channel=0 note=44 velocity=60 time=0
note_on channel=0 note=44 velocity=0 time=120
note_on channel=0 note=70 velocity=0 time=0
note_on channel=0 note=79 velocity=0 time=0
note_on channel=0 note=80 velocity=65 time=0
note_on channel=0 note=72 velocity=79 time=0
note_on channel=0 note=51 velocity=63 time=0
note_on channel=0 note=51 velocity=0 time=34
note_on channel=0 note=48 velocity=58 time=0
note_on channel=0 note=48 velocity=0 time=120
note_on channel=0 note=72 velocity=0 time=0
note_on channel=0 note=73 velocity=80 time=0
note_on channel=0 note=44 velocity=58 time=0
note_on channel=0 note=44 velocity=0 time=120
note_on channel=0 note=39 velocity=58 time=0
note_on channel=0 note=39 velocity=0 time=120
note_on channel=0 note=73 velocity=0 time=0
note_on channel=0 note=75 velocity=82 time=0
note_on channel=0 note=42 velocity=63 time=0
note_on channel=0 note=42 velocity=0 time=28
note_on channel=0 note=51 velocity=58 time=0
note_on channel=0 note=51 velocity=0 time=120
note_on channel=0 note=80 velocity=0 time=0
note_on channel=0 note=84 velocity=87 time=0
note_on channel=0 note=48 velocity=58 time=0
note_on channel=0 note=48 velocity=0 time=0
note_on channel=0 note=42 velocity=58 time=0
note_on channel=0 note=42 velocity=0 time=0
note_on channel=0 note=84 velocity=0 time=0
note_on channel=0 note=75 velocity=0 time=0
note_on channel=0 note=73 velocity=66 time=0
note_on channel=0 note=85 velocity=92 time=0
note_on channel=0 note=53 velocity=72 time=0
note_on channel=0 note=41 velocity=61 time=0
note_on channel=0 note=41 velocity=0 time=115
note_on channel=0 note=53 velocity=0 time=0
note_on channel=0 note=77 velocity=73 time=0
note_on channel=0 note=73 velocity=0 time=24
note_on channel=0 note=75 velocity=71 time=96
note_on channel=0 note=42 velocity=61 time=0
note_on channel=0 note=54 velocity=72 time=0
note_on channel=0 note=77 velocity=0 time=24
note_on channel=0 note=42 velocity=0 time=0
note_on channel=0 note=54 velocity=0 time=0
note_on channel=0 note=73 velocity=69 time=0
note_on channel=0 note=75 velocity=0 time=24
note_on channel=0 note=85 velocity=0 time=0
note_on channel=0 note=72 velocity=71 time=0
note_on channel=0 note=44 velocity=63 time=0
note_on channel=0 note=56 velocity=75 time=0
note_on channel=0 note=73 velocity=0 time=24
note_on channel=0 note=72 velocity=0 time=51
note_on channel=0 note=70 velocity=66 time=0
note_on channel=0 note=70 velocity=0 time=120
note_on channel=0 note=68 velocity=66 time=0
note_on channel=0 note=68 velocity=0 time=120
note_on channel=0 note=66 velocity=66 time=0
note_on channel=0 note=66 velocity=0 time=120
note_on channel=0 note=65 velocity=66 time=0
note_on channel=0 note=68 velocity=79 time=0
note_on channel=0 note=68 velocity=0 time=115
note_on channel=0 note=56 velocity=0 time=0
note_on channel=0 note=44 velocity=0 time=0
note_on channel=0 note=53 velocity=60 time=0
note_on channel=0 note=72 velocity=81 time=120
note_on channel=0 note=49 velocity=59 time=0
note_on channel=0 note=53 velocity=0 time=24
note_on channel=0 note=72 velocity=0 time=0
note_on channel=0 note=44 velocity=59 time=0
note_on channel=0 note=49 velocity=0 time=24
note_on channel=0 note=44 velocity=0 time=0
note_on channel=0 note=73 velocity=85 time=0
note_on channel=0 note=53 velocity=69 time=0
note_on channel=0 note=53 velocity=0 time=108
note_on channel=0 note=48 velocity=60 time=0
note_on channel=0 note=48 velocity=0 time=120
note_on channel=0 note=65 velocity=0 time=0
note_on channel=0 note=66 velocity=72 time=0
note_on channel=0 note=44 velocity=60 time=0
note_on channel=0 note=44 velocity=0 time=0
note_on channel=0 note=66 velocity=0 time=0
note_on channel=0 note=41 velocity=60 time=0
note_on channel=0 note=41 velocity=0 time=0
note_on channel=0 note=68 velocity=79 time=0
note_on channel=0 note=49 velocity=63 time=0
note_on channel=0 note=49 velocity=0 time=23
note_on channel=0 note=44 velocity=58 time=0
note_on channel=0 note=44 velocity=0 time=120
note_on channel=0 note=73 velocity=0 time=0
note_on channel=0 note=76 velocity=79 time=0
note_on channel=0 note=41 velocity=58 time=0
note_on channel=0 note=41 velocity=0 time=120
note_on channel=0 note=37 velocity=58 time=0
note_on channel=0 note=37 velocity=0 time=120
note_on channel=0 note=76 velocity=0 time=0
note_on channel=0 note=77 velocity=84 time=0
note_on channel=0 note=44 velocity=63 time=0
note_on channel=0 note=44 velocity=0 time=23
note_on channel=0 note=41 velocity=58 time=0
note_on channel=0 note=41 velocity=0 time=120
note_on channel=0 note=77 velocity=0 time=0
note_on channel=0 note=68 velocity=0 time=0
note_on channel=0 note=70 velocity=74 time=0
note_on channel=0 note=78 velocity=86 time=0
note_on channel=0 note=39 velocity=58 time=0
note_on channel=0 note=39 velocity=0 time=120
note_on channel=0 note=37 velocity=58 time=0
note_on channel=0 note=37 velocity=0 time=0
note_on channel=0 note=58 velocity=72 time=0
note_on channel=0 note=46 velocity=61 time=0
note_on channel=0 note=46 velocity=0 time=117
note_on channel=0 note=58 velocity=0 time=0
note_on channel=0 note=78 velocity=0 time=0
note_on channel=0 note=82 velocity=83 time=0
note_on channel=0 note=80 velocity=80 time=120
note_on channel=0 note=59 velocity=72 time=0
note_on channel=0 note=47 velocity=61 time=0
note_on channel=0 note=82 velocity=0 time=24
note_on channel=0 note=59 velocity=0 time=0
note_on channel=0 note=47 velocity=0 time=0
note_on channel=0 note=78 velocity=77 time=0
note_on channel=0 note=80 velocity=0 time=24
note_on channel=0 note=70 velocity=0 time=0
note_on channel=0 note=77 velocity=81 time=0
note_on channel=0 note=61 velocity=75 time=0
note_on channel=0 note=49 velocity=63 time=0
note_on channel=0 note=78 velocity=0 time=24
note_on channel=0 note=77 velocity=0 time=45
note_on channel=0 note=75 velocity=72 time=0
note_on channel=0 note=75 velocity=0 time=120
note_on channel=0 note=73 velocity=72 time=0
note_on channel=0 note=73 velocity=0 time=120
note_on channel=0 note=71 velocity=72 time=0
note_on channel=0 note=71 velocity=0 time=120
note_on channel=0 note=61 velocity=72 time=0
note_on channel=0 note=70 velocity=72 time=0
note_on channel=0 note=61 velocity=0 time=116
note_on channel=0 note=49 velocity=0 time=0
note_on channel=0 note=61 velocity=0 time=0
note_on channel=0 note=58 velocity=60 time=0
note_on channel=0 note=65 velocity=75 time=120
note_on channel=0 note=54 velocity=59 time=0
note_on channel=0 note=58 velocity=0 time=24
note_on channel=0 note=65 velocity=0 time=0
note_on channel=0 note=49 velocity=59 time=0
note_on channel=0 note=54 velocity=0 time=24
note_on channel=0 note=49 velocity=0 time=0
note_on channel=0 note=66 velocity=78 time=0
note_on channel=0 note=58 velocity=69 time=0
note_on channel=0 note=58 velocity=0 time=120
note_on channel=0 note=54 velocity=60 time=0
note_on channel=0 note=54 velocity=0 time=120
note_on channel=0 note=70 velocity=0 time=0
note_on channel=0 note=71 velocity=72 time=0
note_on channel=0 note=49 velocity=60 time=0
note_on channel=0 note=49 velocity=0 time=120
note_on channel=0 note=46 velocity=60 time=0
note_on channel=0 note=46 velocity=0 time=0
note_on channel=0 note=71 velocity=0 time=0
note_on channel=0 note=73 velocity=76 time=0
note_on channel=0 note=54 velocity=63 time=0
note_on channel=0 note=54 velocity=0 time=23
note_on channel=0 note=49 velocity=58 time=0
note_on channel=0 note=49 velocity=0 time=120
note_on channel=0 note=66 velocity=0 time=0
note_on channel=0 note=68 velocity=66 time=0
note_on channel=0 note=46 velocity=58 time=0
note_on channel=0 note=46 velocity=0 time=120
note_on channel=0 note=42 velocity=58 time=0
note_on channel=0 note=42 velocity=0 time=120
note_on channel=0 note=68 velocity=0 time=0
note_on channel=0 note=70 velocity=73 time=0
note_on channel=0 note=49 velocity=63 time=0
note_on channel=0 note=49 velocity=0 time=34
note_on channel=0 note=46 velocity=58 time=0
note_on channel=0 note=46 velocity=0 time=120
note_on channel=0 note=70 velocity=0 time=0
note_on channel=0 note=73 velocity=0 time=0
note_on channel=0 note=82 velocity=66 time=0
note_on channel=0 note=78 velocity=66 time=0
note_on channel=0 note=44 velocity=58 time=0
note_on channel=0 note=44 velocity=0 time=120
note_on channel=0 note=42 velocity=58 time=0
note_on channel=0 note=42 velocity=0 time=0
note_on channel=0 note=82 velocity=0 time=0
note_on channel=0 note=83 velocity=72 time=0
note_on channel=0 note=50 velocity=72 time=0
note_on channel=0 note=38 velocity=61 time=0
note_on channel=0 note=38 velocity=0 time=117
note_on channel=0 note=50 velocity=0 time=0
note_on channel=0 note=78 velocity=0 time=0
note_on channel=0 note=74 velocity=66 time=0
note_on channel=0 note=83 velocity=0 time=120
note_on channel=0 note=73 velocity=66 time=0
note_on channel=0 note=52 velocity=72 time=0
note_on channel=0 note=40 velocity=61 time=0
note_on channel=0 note=74 velocity=0 time=24
note_on channel=0 note=40 velocity=0 time=0
note_on channel=0 note=52 velocity=0 time=0
note_on channel=0 note=71 velocity=66 time=0
note_on channel=0 note=73 velocity=0 time=24
note_on channel=0 note=70 velocity=70 time=0
note_on channel=0 note=54 velocity=75 time=0
note_on channel=0 note=42 velocity=63 time=0
note_on channel=0 note=71 velocity=0 time=24
note_on channel=0 note=70 velocity=0 time=40
note_on channel=0 note=67 velocity=68 time=0
note_on channel=0 note=67 velocity=0 time=120
note_on channel=0 note=66 velocity=67 time=0
note_on channel=0 note=66 velocity=0 time=120
note_on channel=0 note=64 velocity=66 time=0
note_on channel=0 note=64 velocity=0 time=120
note_on channel=0 note=62 velocity=71 time=0
note_on channel=0 note=66 velocity=71 time=0
note_on channel=0 note=66 velocity=0 time=115
note_on channel=0 note=42 velocity=0 time=0
note_on channel=0 note=54 velocity=0 time=0
note_on channel=0 note=50 velocity=60 time=0
note_on channel=0 note=70 velocity=74 time=120
note_on channel=0 note=47 velocity=59 time=0
note_on channel=0 note=50 velocity=0 time=24
note_on channel=0 note=70 velocity=0 time=0
note_on channel=0 note=42 velocity=59 time=0
note_on channel=0 note=47 velocity=0 time=24
note_on channel=0 note=42 velocity=0 time=0
note_on channel=0 note=71 velocity=79 time=0
note_on channel=0 note=50 velocity=69 time=0
note_on channel=0 note=50 velocity=0 time=120
note_on channel=0 note=47 velocity=60 time=0
note_on channel=0 note=47 velocity=0 time=120
note_on channel=0 note=62 velocity=0 time=0
note_on channel=0 note=64 velocity=73 time=0
note_on channel=0 note=42 velocity=60 time=0
note_on channel=0 note=42 velocity=0 time=120
note_on channel=0 note=38 velocity=60 time=0
note_on channel=0 note=38 velocity=0 time=120
note_on channel=0 note=64 velocity=0 time=0
note_on channel=0 note=66 velocity=76 time=0
note_on channel=0 note=47 velocity=63 time=0
note_on channel=0 note=47 velocity=0 time=107
note_on channel=0 note=42 velocity=58 time=0
note_on channel=0 note=42 velocity=0 time=113
note_on channel=0 note=71 velocity=0 time=0
note_on channel=0 note=73 velocity=71 time=0
note_on channel=0 note=38 velocity=58 time=0
note_on channel=0 note=38 velocity=0 time=120
note_on channel=0 note=35 velocity=58 time=0
note_on channel=0 note=35 velocity=0 time=120
note_on channel=0 note=73 velocity=0 time=0
note_on channel=0 note=74 velocity=75 time=0
note_on channel=0 note=42 velocity=65 time=0
note_on channel=0 note=42 velocity=0 time=21
note_on channel=0 note=38 velocity=58 time=0
note_on channel=0 note=38 velocity=0 time=120
note_on channel=0 note=74 velocity=0 time=0
note_on channel=0 note=66 velocity=0 time=0
note_on channel=0 note=73 velocity=78 time=0
note_on channel=0 note=76 velocity=78 time=0
note_on channel=0 note=37 velocity=63 time=0
note_on channel=0 note=37 velocity=0 time=0
note_on channel=0 note=35 velocity=66 time=0
note_on channel=0 note=35 velocity=0 time=0
note_on channel=0 note=76 velocity=0 time=0
note_on channel=0 note=73 velocity=0 time=0
note_on channel=0 note=78 velocity=86 time=0
note_on channel=0 note=74 velocity=65 time=0
note_on channel=0 note=30 velocity=74 time=0
note_on channel=0 note=78 velocity=0 time=120
note_on channel=0 note=30 velocity=0 time=120
note_on channel=0 note=74 velocity=0 time=0
note_on channel=0 note=82 velocity=90 time=0
note_on channel=0 note=73 velocity=65 time=0
note_on channel=0 note=82 velocity=0 time=0
note_on channel=0 note=71 velocity=65 time=0
note_on channel=0 note=73 velocity=0 time=24
note_on channel=0 note=71 velocity=0 time=0
note_on channel=0 note=83 velocity=90 time=0
note_on channel=0 note=74 velocity=65 time=0
note_on channel=0 note=71 velocity=60 time=120
note_on channel=0 note=74 velocity=0 time=24
note_on channel=0 note=67 velocity=61 time=96
note_on channel=0 note=71 velocity=0 time=24
note_on channel=0 note=66 velocity=61 time=96
note_on channel=0 note=67 velocity=0 time=24
note_on channel=0 note=66 velocity=0 time=0
note_on channel=0 note=71 velocity=65 time=0
note_on channel=0 note=66 velocity=58 time=120
note_on channel=0 note=71 velocity=0 time=24
note_on channel=0 note=83 velocity=0 time=96
note_on channel=0 note=85 velocity=90 time=0
note_on channel=0 note=64 velocity=58 time=0
note_on channel=0 note=66 velocity=0 time=24
note_on channel=0 note=85 velocity=0 time=96
note_on channel=0 note=62 velocity=58 time=0
note_on channel=0 note=64 velocity=0 time=24
note_on channel=0 note=62 velocity=0 time=0
note_on channel=0 note=86 velocity=94 time=0
note_on channel=0 note=66 velocity=63 time=0
note_on channel=0 note=86 velocity=0 time=120
note_on channel=0 note=62 velocity=54 time=0
note_on channel=0 note=66 velocity=0 time=24
note_on channel=0 note=88 velocity=97 time=0
note_on channel=0 note=61 velocity=54 time=0
note_on channel=0 note=62 velocity=0 time=24
note_on channel=0 note=88 velocity=0 time=0
note_on channel=0 note=59 velocity=54 time=0
note_on channel=0 note=61 velocity=0 time=24
note_on channel=0 note=59 velocity=0 time=0
note_on channel=0 note=90 velocity=99 time=0
note_on channel=0 note=62 velocity=59 time=0
note_on channel=0 note=59 velocity=49 time=120
note_on channel=0 note=62 velocity=0 time=24
note_on channel=0 note=90 velocity=0 time=96
note_on channel=0 note=55 velocity=50 time=0
note_on channel=0 note=59 velocity=0 time=24
note_on channel=0 note=54 velocity=50 time=96
note_on channel=0 note=55 velocity=0 time=24
note_on channel=0 note=54 velocity=0 time=0
note_on channel=0 note=78 velocity=71 time=0
note_on channel=0 note=55 velocity=59 time=0
note_on channel=0 note=55 velocity=0 time=120
note_on channel=0 note=54 velocity=41 time=0
note_on channel=0 note=78 velocity=0 time=120
note_on channel=0 note=56 velocity=41 time=0
note_on channel=0 note=54 velocity=0 time=24
note_on channel=0 note=58 velocity=41 time=96
note_on channel=0 note=56 velocity=0 time=24
note_on channel=0 note=58 velocity=0 time=17
note_on channel=0 note=59 velocity=40 time=0
note_on channel=0 note=61 velocity=36 time=17
note_on channel=0 note=59 velocity=0 time=24
note_on channel=0 note=62 velocity=37 time=17
note_on channel=0 note=61 velocity=0 time=24
note_on channel=0 note=64 velocity=39 time=17
note_on channel=0 note=62 velocity=0 time=24
note_on channel=0 note=66 velocity=40 time=17
note_on channel=0 note=64 velocity=0 time=24
note_on channel=0 note=67 velocity=41 time=17
note_on channel=0 note=66 velocity=0 time=24
note_on channel=0 note=66 velocity=41 time=41
note_on channel=0 note=67 velocity=0 time=24
note_on channel=0 note=65 velocity=40 time=17
note_on channel=0 note=66 velocity=0 time=24
note_on channel=0 note=78 velocity=57 time=96
note_on channel=0 note=64 velocity=38 time=0
note_on channel=0 note=65 velocity=0 time=17
note_on channel=0 note=62 velocity=37 time=96
note_on channel=0 note=64 velocity=0 time=17
note_on channel=0 note=61 velocity=36 time=96
note_on channel=0 note=62 velocity=0 time=24
note_on channel=0 note=59 velocity=35 time=89
note_on channel=0 note=61 velocity=0 time=24
note_on channel=0 note=59 velocity=0 time=0
note_on channel=0 note=78 velocity=0 time=0
note_on channel=0 note=76 velocity=56 time=0
note_on channel=0 note=61 velocity=35 time=0
note_on channel=0 note=62 velocity=37 time=65
note_on channel=0 note=61 velocity=0 time=24
note_on channel=0 note=61 velocity=36 time=17
note_on channel=0 note=62 velocity=0 time=24
note_on channel=0 note=60 velocity=36 time=96
note_on channel=0 note=61 velocity=0 time=24
note_on channel=0 note=59 velocity=35 time=89
note_on channel=0 note=60 velocity=0 time=24
note_on channel=0 note=58 velocity=34 time=89
note_on channel=0 note=59 velocity=0 time=17
note_on channel=0 note=56 velocity=33 time=41
note_on channel=0 note=58 velocity=0 time=24
note_on channel=0 note=54 velocity=32 time=65
note_on channel=0 note=56 velocity=0 time=17
note_on channel=0 note=76 velocity=0 time=0
note_on channel=0 note=73 velocity=50 time=0
note_on channel=0 note=56 velocity=36 time=0
note_on channel=0 note=54 velocity=0 time=24
note_on channel=0 note=58 velocity=35 time=96
note_on channel=0 note=56 velocity=0 time=24
note_on channel=0 note=59 velocity=39 time=96
note_on channel=0 note=58 velocity=0 time=24
note_on channel=0 note=58 velocity=34 time=96
note_on channel=0 note=59 velocity=0 time=24
note_on channel=0 note=73 velocity=0 time=96
note_on channel=0 note=74 velocity=56 time=0
note_on channel=0 note=59 velocity=36 time=0
note_on channel=0 note=58 velocity=0 time=24
note_on channel=0 note=61 velocity=34 time=96
note_on channel=0 note=59 velocity=0 time=24
note_on channel=0 note=62 velocity=41 time=96
note_on channel=0 note=61 velocity=0 time=24
note_on channel=0 note=61 velocity=35 time=96
note_on channel=0 note=62 velocity=0 time=24
note_on channel=0 note=62 velocity=39 time=96
note_on channel=0 note=61 velocity=0 time=24
note_on channel=0 note=64 velocity=36 time=96
note_on channel=0 note=62 velocity=0 time=24
note_on channel=0 note=64 velocity=0 time=0
note_on channel=0 note=74 velocity=0 time=0
note_on channel=0 note=73 velocity=50 time=0
note_on channel=0 note=64 velocity=36 time=0
note_on channel=0 note=64 velocity=0 time=41
note_on channel=0 note=59 velocity=39 time=0
note_on channel=0 note=61 velocity=39 time=17
note_on channel=0 note=59 velocity=0 time=24
note_on channel=0 note=62 velocity=34 time=17
note_on channel=0 note=61 velocity=0 time=24
note_on channel=0 note=64 velocity=34 time=41
note_on channel=0 note=62 velocity=0 time=24
note_on channel=0 note=73 velocity=0 time=65
note_on channel=0 note=71 velocity=50 time=0
note_on channel=0 note=66 velocity=39 time=0
note_on channel=0 note=64 velocity=0 time=17
note_on channel=0 note=67 velocity=34 time=41
note_on channel=0 note=66 velocity=0 time=24
note_on channel=0 note=67 velocity=0 time=0
note_on channel=0 note=71 velocity=0 time=0
note_on channel=0 note=71 velocity=50 time=0
note_on channel=0 note=67 velocity=36 time=0
note_on channel=0 note=67 velocity=0 time=480
note_on channel=0 note=71 velocity=0 time=0
note_on channel=0 note=71 velocity=56 time=0
note_on channel=0 note=62 velocity=39 time=0
note_on channel=0 note=64 velocity=36 time=120
note_on channel=0 note=62 velocity=0 time=24
note_on channel=0 note=66 velocity=36 time=0
note_on channel=0 note=64 velocity=0 time=24
note_on channel=0 note=68 velocity=36 time=96
note_on channel=0 note=66 velocity=0 time=24
note_on channel=0 note=71 velocity=0 time=0
note_on channel=0 note=66 velocity=50 time=0
note_on channel=0 note=70 velocity=39 time=0
note_on channel=0 note=68 velocity=0 time=24
note_on channel=0 note=71 velocity=35 time=96
note_on channel=0 note=70 velocity=0 time=24
note_on channel=0 note=71 velocity=0 time=0
note_on channel=0 note=66 velocity=0 time=0
note_on channel=0 note=74 velocity=56 time=0
note_on channel=0 note=71 velocity=36 time=0
note_on channel=0 note=71 velocity=0 time=41
note_on channel=0 note=74 velocity=0 time=0
note_on channel=0 note=73 velocity=56 time=0
note_on channel=0 note=70 velocity=33 time=0
note_on channel=0 note=70 velocity=0 time=40
note_on channel=0 note=71 velocity=27 time=0
note_on channel=0 note=71 velocity=0 time=33
note_on channel=0 note=70 velocity=32 time=0
note_on channel=0 note=70 velocity=0 time=80
note_on channel=0 note=71 velocity=28 time=0
note_on channel=0 note=71 velocity=0 time=49
note_on channel=0 note=70 velocity=32 time=0
note_on channel=0 note=70 velocity=0 time=80
note_on channel=0 note=71 velocity=32 time=0
note_on channel=0 note=71 velocity=0 time=65
note_on channel=0 note=73 velocity=0 time=0
note_on channel=0 note=66 velocity=56 time=0
note_on channel=0 note=70 velocity=33 time=0
note_on channel=0 note=70 velocity=0 time=80
note_on channel=0 note=71 velocity=33 time=0
note_on channel=0 note=71 velocity=0 time=33
note_on channel=0 note=70 velocity=28 time=0
note_on channel=0 note=70 velocity=0 time=80
note_on channel=0 note=66 velocity=0 time=0
note_on channel=0 note=71 velocity=33 time=0
note_on channel=0 note=71 velocity=0 time=5
note_on channel=0 note=70 velocity=29 time=0
note_on channel=0 note=70 velocity=0 time=60
note_on channel=0 note=68 velocity=29 time=0
note_on channel=0 note=68 velocity=0 time=60
note_on channel=0 note=70 velocity=30 time=0
note_on channel=0 note=70 velocity=0 time=17
note_on channel=0 note=82 velocity=46 time=0
note_on channel=0 note=54 velocity=50 time=0
note_on channel=0 note=82 velocity=0 time=75
note_on channel=0 note=83 velocity=37 time=0
note_on channel=0 note=83 velocity=0 time=80
note_on channel=0 note=82 velocity=45 time=0
note_on channel=0 note=82 velocity=0 time=65
note_on channel=0 note=54 velocity=0 time=0
note_on channel=0 note=83 velocity=40 time=0
note_on channel=0 note=83 velocity=0 time=17
note_on channel=0 note=82 velocity=45 time=0
note_on channel=0 note=82 velocity=0 time=33
note_on channel=0 note=83 velocity=45 time=0
note_on channel=0 note=83 velocity=0 time=80
note_on channel=0 note=82 velocity=46 time=0
note_on channel=0 note=82 velocity=0 time=25
note_on channel=0 note=83 velocity=46 time=0
note_on channel=0 note=83 velocity=0 time=9
note_on channel=0 note=82 velocity=40 time=0
note_on channel=0 note=82 velocity=0 time=17
note_on channel=0 note=83 velocity=46 time=0
note_on channel=0 note=83 velocity=0 time=29
note_on channel=0 note=82 velocity=41 time=0
note_on channel=0 note=82 velocity=0 time=17
note_on channel=0 note=80 velocity=41 time=0
note_on channel=0 note=80 velocity=0 time=5
note_on channel=0 note=82 velocity=42 time=0
note_on channel=0 note=82 velocity=0 time=0
note_on channel=0 note=83 velocity=54 time=0
note_on channel=0 note=59 velocity=50 time=0
note_on channel=0 note=59 velocity=0 time=0
note_on channel=0 note=83 velocity=0 time=240
note_on channel=0 note=74 velocity=36 time=0
note_on channel=0 note=74 velocity=0 time=57
note_on channel=0 note=76 velocity=34 time=0
note_on channel=0 note=76 velocity=0 time=1
note_on channel=0 note=74 velocity=37 time=0
note_on channel=0 note=74 velocity=0 time=9
note_on channel=0 note=83 velocity=46 time=0
note_on channel=0 note=76 velocity=35 time=0
note_on channel=0 note=76 velocity=0 time=41
note_on channel=0 note=74 velocity=39 time=0
note_on channel=0 note=83 velocity=0 time=9
note_on channel=0 note=81 velocity=40 time=0
note_on channel=0 note=74 velocity=0 time=40
note_on channel=0 note=76 velocity=36 time=0
note_on channel=0 note=76 velocity=0 time=57
note_on channel=0 note=81 velocity=0 time=0
note_on channel=0 note=79 velocity=47 time=0
note_on channel=0 note=74 velocity=40 time=0
note_on channel=0 note=74 velocity=0 time=41
note_on channel=0 note=76 velocity=37 time=0
note_on channel=0 note=79 velocity=0 time=40
note_on channel=0 note=78 velocity=40 time=0
note_on channel=0 note=76 velocity=0 time=1
note_on channel=0 note=74 velocity=41 time=0
note_on channel=0 note=74 velocity=0 time=80
note_on channel=0 note=78 velocity=0 time=0
note_on channel=0 note=76 velocity=43 time=0
note_on channel=0 note=74 velocity=42 time=45
note_on channel=0 note=74 velocity=0 time=9
note_on channel=0 note=76 velocity=0 time=0
note_on channel=0 note=78 velocity=40 time=0
note_on channel=0 note=73 velocity=43 time=0
note_on channel=0 note=73 velocity=0 time=60
note_on channel=0 note=74 velocity=48 time=0
note_on channel=0 note=74 velocity=0 time=33
note_on channel=0 note=78 velocity=0 time=0
note_on channel=0 note=79 velocity=45 time=0
note_on channel=0 note=76 velocity=54 time=0
note_on channel=0 note=79 velocity=0 time=39
note_on channel=0 note=81 velocity=40 time=0
note_on channel=0 note=81 velocity=0 time=120
note_on channel=0 note=79 velocity=44 time=0
note_on channel=0 note=79 velocity=0 time=120
note_on channel=0 note=78 velocity=40 time=0
note_on channel=0 note=78 velocity=0 time=120
note_on channel=0 note=76 velocity=0 time=0
note_on channel=0 note=76 velocity=42 time=0
note_on channel=0 note=45 velocity=50 time=0
note_on channel=0 note=67 velocity=41 time=0
note_on channel=0 note=76 velocity=0 time=46
note_on channel=0 note=74 velocity=40 time=0
note_on channel=0 note=74 velocity=0 time=120
note_on channel=0 note=45 velocity=0 time=0
note_on channel=0 note=73 velocity=37 time=0
note_on channel=0 note=73 velocity=0 time=120
note_on channel=0 note=74 velocity=40 time=0
note_on channel=0 note=74 velocity=0 time=9
note_on channel=0 note=67 velocity=0 time=0
note_on channel=0 note=76 velocity=44 time=0
note_on channel=0 note=61 velocity=36 time=0
note_on channel=0 note=61 velocity=0 time=30
note_on channel=0 note=62 velocity=34 time=0
note_on channel=0 note=76 velocity=0 time=9
note_on channel=0 note=74 velocity=40 time=0
note_on channel=0 note=62 velocity=0 time=1
note_on channel=0 note=61 velocity=37 time=0
note_on channel=0 note=61 velocity=0 time=9
note_on channel=0 note=74 velocity=0 time=0
note_on channel=0 note=73 velocity=40 time=0
note_on channel=0 note=62 velocity=35 time=0
note_on channel=0 note=62 velocity=0 time=41
note_on channel=0 note=61 velocity=39 time=0
note_on channel=0 note=73 velocity=0 time=9
note_on channel=0 note=71 velocity=40 time=0
note_on channel=0 note=61 velocity=0 time=1
note_on channel=0 note=62 velocity=36 time=0
note_on channel=0 note=62 velocity=0 time=9
note_on channel=0 note=71 velocity=0 time=0
note_on channel=0 note=69 velocity=44 time=0
note_on channel=0 note=61 velocity=40 time=0
note_on channel=0 note=61 velocity=0 time=23
note_on channel=0 note=62 velocity=37 time=0
note_on channel=0 note=69 velocity=0 time=33
note_on channel=0 note=68 velocity=36 time=0
note_on channel=0 note=62 velocity=0 time=25
note_on channel=0 note=61 velocity=41 time=0
note_on channel=0 note=61 velocity=0 time=33
note_on channel=0 note=68 velocity=0 time=0
note_on channel=0 note=69 velocity=40 time=0
note_on channel=0 note=62 velocity=37 time=0
note_on channel=0 note=62 velocity=0 time=45
note_on channel=0 note=61 velocity=43 time=0
note_on channel=0 note=61 velocity=0 time=9
note_on channel=0 note=69 velocity=0 time=0
note_on channel=0 note=67 velocity=38 time=0
note_on channel=0 note=59 velocity=43 time=0
note_on channel=0 note=59 velocity=0 time=21
note_on channel=0 note=61 velocity=48 time=0
note_on channel=0 note=61 velocity=0 time=33
note_on channel=0 note=67 velocity=0 time=0
note_on channel=0 note=66 velocity=38 time=0
note_on channel=0 note=62 velocity=54 time=0
note_on channel=0 note=66 velocity=0 time=49
note_on channel=0 note=69 velocity=39 time=0
note_on channel=0 note=69 velocity=0 time=118
note_on channel=0 note=71 velocity=40 time=2
note_on channel=0 note=69 velocity=44 time=0
note_on channel=0 note=71 velocity=0 time=120
note_on channel=0 note=73 velocity=41 time=0
note_on channel=0 note=73 velocity=0 time=0
note_on channel=0 note=69 velocity=0 time=0
note_on channel=0 note=62 velocity=0 time=0
note_on channel=0 note=74 velocity=41 time=0
note_on channel=0 note=71 velocity=50 time=0
note_on channel=0 note=74 velocity=0 time=117
note_on channel=0 note=76 velocity=44 time=0
note_on channel=0 note=76 velocity=0 time=120
note_on channel=0 note=71 velocity=0 time=0
note_on channel=0 note=78 velocity=46 time=0
note_on channel=0 note=67 velocity=49 time=0
note_on channel=0 note=78 velocity=0 time=120
note_on channel=0 note=79 velocity=48 time=0
note_on channel=0 note=79 velocity=0 time=0
note_on channel=0 note=67 velocity=0 time=0
note_on channel=0 note=81 velocity=50 time=0
note_on channel=0 note=66 velocity=47 time=0
note_on channel=0 note=81 velocity=0 time=107
note_on channel=0 note=83 velocity=47 time=0
note_on channel=0 note=83 velocity=0 time=120
note_on channel=0 note=66 velocity=0 time=0
note_on channel=0 note=81 velocity=49 time=0
note_on channel=0 note=65 velocity=45 time=0
note_on channel=0 note=81 velocity=0 time=0
note_on channel=0 note=80 velocity=49 time=0
note_on channel=0 note=80 velocity=0 time=0
note_on channel=0 note=65 velocity=0 time=0
note_on channel=0 note=79 velocity=48 time=0
note_on channel=0 note=66 velocity=47 time=0
note_on channel=0 note=57 velocity=47 time=0
note_on channel=0 note=79 velocity=0 time=34
note_on channel=0 note=78 velocity=42 time=0
note_on channel=0 note=78 velocity=0 time=120
note_on channel=0 note=76 velocity=42 time=0
note_on channel=0 note=76 velocity=0 time=120
note_on channel=0 note=75 velocity=44 time=0
note_on channel=0 note=75 velocity=0 time=120
note_on channel=0 note=57 velocity=0 time=0
note_on channel=0 note=76 velocity=50 time=0
note_on channel=0 note=55 velocity=47 time=0
note_on channel=0 note=76 velocity=0 time=34
note_on channel=0 note=78 velocity=40 time=0
note_on channel=0 note=78 velocity=0 time=0
note_on channel=0 note=76 velocity=40 time=0
note_on channel=0 note=76 velocity=0 time=120
note_on channel=0 note=75 velocity=40 time=0
note_on channel=0 note=75 velocity=0 time=0
note_on channel=0 note=66 velocity=0 time=0
note_on channel=0 note=74 velocity=47 time=0
note_on channel=0 note=64 velocity=51 time=0
note_on channel=0 note=74 velocity=0 time=11
note_on channel=0 note=73 velocity=40 time=0
note_on channel=0 note=73 velocity=0 time=120
note_on channel=0 note=71 velocity=40 time=0
note_on channel=0 note=71 velocity=0 time=120
note_on channel=0 note=69 velocity=40 time=0
note_on channel=0 note=69 velocity=0 time=120
note_on channel=0 note=64 velocity=0 time=0
note_on channel=0 note=55 velocity=0 time=0
note_on channel=0 note=71 velocity=44 time=0
note_on channel=0 note=55 velocity=47 time=0
note_on channel=0 note=52 velocity=47 time=0
note_on channel=0 note=71 velocity=0 time=28
note_on channel=0 note=73 velocity=37 time=0
note_on channel=0 note=73 velocity=0 time=0
note_on channel=0 note=74 velocity=40 time=0
note_on channel=0 note=74 velocity=0 time=120
note_on channel=0 note=73 velocity=36 time=0
note_on channel=0 note=73 velocity=0 time=0
note_on channel=0 note=52 velocity=0 time=0
note_on channel=0 note=55 velocity=0 time=0
note_on channel=0 note=74 velocity=41 time=0
note_on channel=0 note=59 velocity=47 time=0
note_on channel=0 note=54 velocity=47 time=0
note_on channel=0 note=74 velocity=0 time=7
note_on channel=0 note=76 velocity=42 time=0
note_on channel=0 note=76 velocity=0 time=0
note_on channel=0 note=78 velocity=44 time=0
note_on channel=0 note=78 velocity=0 time=120
note_on channel=0 note=76 velocity=45 time=0
note_on channel=0 note=76 velocity=0 time=120
note_on channel=0 note=59 velocity=0 time=0
note_on channel=0 note=78 velocity=51 time=0
note_on channel=0 note=57 velocity=45 time=0
note_on channel=0 note=78 velocity=0 time=102
note_on channel=0 note=79 velocity=46 time=0
note_on channel=0 note=79 velocity=0 time=0
note_on channel=0 note=57 velocity=0 time=0
note_on channel=0 note=54 velocity=0 time=0
note_on channel=0 note=79 velocity=44 time=0
note_on channel=0 note=52 velocity=44 time=0
note_on channel=0 note=55 velocity=44 time=0
note_on channel=0 note=79 velocity=0 time=353
note_on channel=0 note=74 velocity=46 time=0
note_on channel=0 note=74 velocity=0 time=35
note_on channel=0 note=76 velocity=47 time=0
note_on channel=0 note=76 velocity=0 time=0
note_on channel=0 note=78 velocity=48 time=0
note_on channel=0 note=78 velocity=0 time=120
note_on channel=0 note=79 velocity=49 time=0
note_on channel=0 note=79 velocity=0 time=120
note_on channel=0 note=55 velocity=0 time=0
note_on channel=0 note=52 velocity=0 time=0
note_on channel=0 note=81 velocity=55 time=0
note_on channel=0 note=50 velocity=47 time=0
note_on channel=0 note=54 velocity=47 time=0
note_on channel=0 note=81 velocity=0 time=105
note_on channel=0 note=83 velocity=50 time=0
note_on channel=0 note=83 velocity=0 time=0
note_on channel=0 note=54 velocity=0 time=0
note_on channel=0 note=50 velocity=0 time=0
note_on channel=0 note=83 velocity=55 time=0
note_on channel=0 note=50 velocity=45 time=0
note_on channel=0 note=55 velocity=45 time=0
note_on channel=0 note=55 velocity=0 time=360
note_on channel=0 note=50 velocity=0 time=0
note_on channel=0 note=83 velocity=0 time=0
note_on channel=0 note=78 velocity=59 time=0
note_on channel=0 note=50 velocity=47 time=0
note_on channel=0 note=55 velocity=47 time=0
note_on channel=0 note=78 velocity=0 time=14
note_on channel=0 note=79 velocity=60 time=0
note_on channel=0 note=79 velocity=0 time=0
note_on channel=0 note=55 velocity=0 time=0
note_on channel=0 note=81 velocity=61 time=0
note_on channel=0 note=54 velocity=43 time=0
note_on channel=0 note=81 velocity=0 time=120
note_on channel=0 note=83 velocity=62 time=0
note_on channel=0 note=83 velocity=0 time=120
note_on channel=0 note=54 velocity=0 time=0
note_on channel=0 note=50 velocity=0 time=0
note_on channel=0 note=85 velocity=63 time=0
note_on channel=0 note=52 velocity=47 time=0
note_on channel=0 note=45 velocity=47 time=0
note_on channel=0 note=85 velocity=0 time=108
note_on channel=0 note=86 velocity=59 time=0
note_on channel=0 note=86 velocity=0 time=0
note_on channel=0 note=52 velocity=0 time=0
note_on channel=0 note=54 velocity=42 time=0
note_on channel=0 note=54 velocity=0 time=0
note_on channel=0 note=45 velocity=0 time=0
note_on channel=0 note=86 velocity=67 time=0
note_on channel=0 note=54 velocity=47 time=0
note_on channel=0 note=56 velocity=47 time=0
note_on channel=0 note=56 velocity=0 time=155
note_on channel=0 note=57 velocity=42 time=0
note_on channel=0 note=57 velocity=0 time=0
note_on channel=0 note=54 velocity=0 time=0
note_on channel=0 note=86 velocity=0 time=0
note_on channel=0 note=85 velocity=61 time=0
note_on channel=0 note=55 velocity=52 time=0
note_on channel=0 note=52 velocity=52 time=0
note_on channel=0 note=85 velocity=0 time=23
note_on channel=0 note=86 velocity=51 time=0
note_on channel=0 note=86 velocity=0 time=80
note_on channel=0 note=85 velocity=63 time=0
note_on channel=0 note=85 velocity=0 time=80
note_on channel=0 note=86 velocity=52 time=0
note_on channel=0 note=86 velocity=0 time=80
note_on channel=0 note=85 velocity=65 time=0
note_on channel=0 note=85 velocity=0 time=80
note_on channel=0 note=86 velocity=54 time=0
note_on channel=0 note=86 velocity=0 time=0
note_on channel=0 note=52 velocity=0 time=0
note_on channel=0 note=85 velocity=68 time=0
note_on channel=0 note=46 velocity=46 time=0
note_on channel=0 note=85 velocity=0 time=80
note_on channel=0 note=86 velocity=56 time=0
note_on channel=0 note=86 velocity=0 time=80
note_on channel=0 note=85 velocity=68 time=0
note_on channel=0 note=85 velocity=0 time=80
note_on channel=0 note=86 velocity=53 time=0
note_on channel=0 note=86 velocity=0 time=80
note_on channel=0 note=85 velocity=63 time=0
note_on channel=0 note=85 velocity=0 time=80
note_on channel=0 note=86 velocity=51 time=0
note_on channel=0 note=86 velocity=0 time=0
note_on channel=0 note=46 velocity=0 time=0
note_on channel=0 note=55 velocity=0 time=0
note_on channel=0 note=70 velocity=48 time=0
note_on channel=0 note=54 velocity=46 time=0
note_on channel=0 note=54 velocity=0 time=0
note_on channel=0 note=70 velocity=0 time=0
note_on channel=0 note=70 velocity=48 time=41
note_on channel=0 note=78 velocity=60 time=0
note_on channel=0 note=70 velocity=0 time=25
note_on channel=0 note=71 velocity=43 time=0
note_on channel=0 note=71 velocity=0 time=33
note_on channel=0 note=70 velocity=48 time=0
note_on channel=0 note=70 velocity=0 time=41
note_on channel=0 note=71 velocity=44 time=0
note_on channel=0 note=71 velocity=0 time=49
note_on channel=0 note=70 velocity=48 time=0
note_on channel=0 note=70 velocity=0 time=57
note_on channel=0 note=71 velocity=44 time=0
note_on channel=0 note=71 velocity=0 time=65
note_on channel=0 note=78 velocity=0 time=0
note_on channel=0 note=70 velocity=48 time=0
note_on channel=0 note=76 velocity=56 time=0
note_on channel=0 note=70 velocity=0 time=73
note_on channel=0 note=71 velocity=45 time=0
note_on channel=0 note=71 velocity=0 time=33
note_on channel=0 note=70 velocity=48 time=0
note_on channel=0 note=70 velocity=0 time=17
note_on channel=0 note=71 velocity=45 time=0
note_on channel=0 note=71 velocity=0 time=80
note_on channel=0 note=70 velocity=48 time=0
note_on channel=0 note=70 velocity=0 time=57
note_on channel=0 note=71 velocity=44 time=0
note_on channel=0 note=71 velocity=0 time=41
note_on channel=0 note=76 velocity=0 time=0
note_on channel=0 note=70 velocity=48 time=0
note_on channel=0 note=73 velocity=56 time=0
note_on channel=0 note=54 velocity=41 time=0
note_on channel=0 note=70 velocity=0 time=54
note_on channel=0 note=71 velocity=48 time=0
note_on channel=0 note=54 velocity=0 time=40
note_on channel=0 note=52 velocity=39 time=0
note_on channel=0 note=71 velocity=0 time=40
note_on channel=0 note=70 velocity=44 time=0
note_on channel=0 note=70 velocity=0 time=80
note_on channel=0 note=52 velocity=0 time=0
note_on channel=0 note=71 velocity=48 time=0
note_on channel=0 note=50 velocity=39 time=0
note_on channel=0 note=50 velocity=0 time=0
note_on channel=0 note=71 velocity=0 time=0
note_on channel=0 note=70 velocity=48 time=0
note_on channel=0 note=49 velocity=39 time=0
note_on channel=0 note=49 velocity=0 time=0
note_on channel=0 note=70 velocity=0 time=0
note_on channel=0 note=73 velocity=0 time=0
note_on channel=0 note=71 velocity=54 time=0
note_on channel=0 note=76 velocity=64 time=0
note_on channel=0 note=47 velocity=39 time=0
note_on channel=0 note=49 velocity=38 time=120
note_on channel=0 note=47 velocity=0 time=24
note_on channel=0 note=50 velocity=38 time=0
note_on channel=0 note=49 velocity=0 time=24
note_on channel=0 note=52 velocity=38 time=96
note_on channel=0 note=50 velocity=0 time=24
note_on channel=0 note=76 velocity=0 time=0
note_on channel=0 note=74 velocity=57 time=0
note_on channel=0 note=54 velocity=41 time=0
note_on channel=0 note=52 velocity=0 time=24
note_on channel=0 note=55 velocity=38 time=96
note_on channel=0 note=54 velocity=0 time=24
note_on channel=0 note=54 velocity=38 time=96
note_on channel=0 note=55 velocity=0 time=24
note_on channel=0 note=53 velocity=38 time=96
note_on channel=0 note=54 velocity=0 time=24
note_on channel=0 note=71 velocity=0 time=96
note_on channel=0 note=66 velocity=57 time=0
note_on channel=0 note=52 velocity=41 time=0
note_on channel=0 note=53 velocity=0 time=24
note_on channel=0 note=50 velocity=37 time=96
note_on channel=0 note=52 velocity=0 time=24
note_on channel=0 note=49 velocity=37 time=96
note_on channel=0 note=50 velocity=0 time=24
note_on channel=0 note=47 velocity=37 time=0
note_on channel=0 note=49 velocity=0 time=24
note_on channel=0 note=66 velocity=0 time=0
note_on channel=0 note=64 velocity=59 time=0
note_on channel=0 note=49 velocity=37 time=0
note_on channel=0 note=47 velocity=0 time=24
note_on channel=0 note=50 velocity=36 time=96
note_on channel=0 note=49 velocity=0 time=24
note_on channel=0 note=49 velocity=36 time=0
note_on channel=0 note=50 velocity=0 time=24
note_on channel=0 note=48 velocity=36 time=0
note_on channel=0 note=49 velocity=0 time=24
note_on channel=0 note=74 velocity=0 time=96
note_on channel=0 note=73 velocity=63 time=0
note_on channel=0 note=47 velocity=41 time=0
note_on channel=0 note=48 velocity=0 time=24
note_on channel=0 note=46 velocity=34 time=96
note_on channel=0 note=47 velocity=0 time=24
note_on channel=0 note=44 velocity=34 time=96
note_on channel=0 note=46 velocity=0 time=24
note_on channel=0 note=42 velocity=34 time=96
note_on channel=0 note=44 velocity=0 time=24
note_on channel=0 note=64 velocity=0 time=96
note_on channel=0 note=61 velocity=56 time=0
note_on channel=0 note=44 velocity=40 time=0
note_on channel=0 note=42 velocity=0 time=24
note_on channel=0 note=46 velocity=36 time=96
note_on channel=0 note=44 velocity=0 time=24
note_on channel=0 note=47 velocity=36 time=96
note_on channel=0 note=46 velocity=0 time=24
note_on channel=0 note=46 velocity=36 time=0
note_on channel=0 note=47 velocity=0 time=24
note_on channel=0 note=61 velocity=0 time=0
note_on channel=0 note=64 velocity=57 time=0
note_on channel=0 note=47 velocity=36 time=0
note_on channel=0 note=46 velocity=0 time=24
note_on channel=0 note=49 velocity=38 time=96
note_on channel=0 note=47 velocity=0 time=24
note_on channel=0 note=50 velocity=41 time=0
note_on channel=0 note=49 velocity=0 time=24
note_on channel=0 note=49 velocity=43 time=96
note_on channel=0 note=50 velocity=0 time=24
note_on channel=0 note=73 velocity=0 time=0
note_on channel=0 note=64 velocity=0 time=0
note_on channel=0 note=71 velocity=63 time=0
note_on channel=0 note=62 velocity=48 time=0
note_on channel=0 note=50 velocity=45 time=0
note_on channel=0 note=49 velocity=0 time=24
note_on channel=0 note=52 velocity=41 time=96
note_on channel=0 note=50 velocity=0 time=24
note_on channel=0 note=52 velocity=0 time=96
note_on channel=0 note=62 velocity=0 time=240
note_on channel=0 note=61 velocity=48 time=0
note_on channel=0 note=52 velocity=44 time=0
note_on channel=0 note=52 velocity=0 time=0
note_on channel=0 note=47 velocity=36 time=0
note_on channel=0 note=49 velocity=38 time=120
note_on channel=0 note=47 velocity=0 time=24
note_on channel=0 note=50 velocity=41 time=96
note_on channel=0 note=49 velocity=0 time=24
note_on channel=0 note=52 velocity=43 time=96
note_on channel=0 note=50 velocity=0 time=24
note_on channel=0 note=61 velocity=0 time=96
note_on channel=0 note=59 velocity=48 time=0
note_on channel=0 note=54 velocity=45 time=0
note_on channel=0 note=52 velocity=0 time=24
note_on channel=0 note=55 velocity=41 time=96
note_on channel=0 note=54 velocity=0 time=24
note_on channel=0 note=55 velocity=0 time=96
note_on channel=0 note=59 velocity=0 time=0
note_on channel=0 note=71 velocity=0 time=0
note_on channel=0 note=64 velocity=48 time=0
note_on channel=0 note=59 velocity=40 time=0
note_on channel=0 note=55 velocity=44 time=0
note_on channel=0 note=64 velocity=0 time=240
note_on channel=0 note=62 velocity=43 time=0
note_on channel=0 note=62 velocity=0 time=240
note_on channel=0 note=55 velocity=0 time=0
note_on channel=0 note=59 velocity=0 time=0
note_on channel=0 note=61 velocity=48 time=0
note_on channel=0 note=59 velocity=40 time=0
note_on channel=0 note=50 velocity=36 time=0
note_on channel=0 note=52 velocity=38 time=120
note_on channel=0 note=50 velocity=0 time=24
note_on channel=0 note=61 velocity=0 time=96
note_on channel=0 note=62 velocity=42 time=0
note_on channel=0 note=54 velocity=41 time=0
note_on channel=0 note=52 velocity=0 time=24
note_on channel=0 note=56 velocity=43 time=96
note_on channel=0 note=54 velocity=0 time=24
note_on channel=0 note=59 velocity=0 time=96
note_on channel=0 note=62 velocity=0 time=0
note_on channel=0 note=61 velocity=48 time=0
note_on channel=0 note=54 velocity=40 time=0
note_on channel=0 note=58 velocity=45 time=0
note_on channel=0 note=56 velocity=0 time=24
note_on channel=0 note=59 velocity=41 time=96
note_on channel=0 note=58 velocity=0 time=24
note_on channel=0 note=61 velocity=0 time=96
note_on channel=0 note=59 velocity=0 time=0
note_on channel=0 note=62 velocity=43 time=0
note_on channel=0 note=62 velocity=0 time=0
note_on channel=0 note=54 velocity=0 time=0
note_on channel=0 note=64 velocity=48 time=0
note_on channel=0 note=62 velocity=40 time=0
note_on channel=0 note=59 velocity=44 time=0
note_on channel=0 note=64 velocity=0 time=240
note_on channel=0 note=65 velocity=43 time=0
note_on channel=0 note=65 velocity=0 time=41
note_on channel=0 note=59 velocity=0 time=0
note_on channel=0 note=62 velocity=0 time=0
note_on channel=0 note=61 velocity=48 time=0
note_on channel=0 note=66 velocity=51 time=0
note_on channel=0 note=58 velocity=40 time=0
note_on channel=0 note=58 velocity=0 time=45
note_on channel=0 note=59 velocity=37 time=0
note_on channel=0 note=59 velocity=0 time=57
note_on channel=0 note=58 velocity=40 time=0
note_on channel=0 note=58 velocity=0 time=65
note_on channel=0 note=59 velocity=36 time=0
note_on channel=0 note=59 velocity=0 time=1
note_on channel=0 note=58 velocity=40 time=0
note_on channel=0 note=58 velocity=0 time=9
note_on channel=0 note=59 velocity=34 time=0
note_on channel=0 note=59 velocity=0 time=41
note_on channel=0 note=61 velocity=0 time=0
note_on channel=0 note=54 velocity=48 time=0
note_on channel=0 note=58 velocity=40 time=0
note_on channel=0 note=58 velocity=0 time=49
note_on channel=0 note=59 velocity=37 time=0
note_on channel=0 note=59 velocity=0 time=9
note_on channel=0 note=58 velocity=40 time=0
note_on channel=0 note=58 velocity=0 time=17
note_on channel=0 note=59 velocity=36 time=0
note_on channel=0 note=59 velocity=0 time=49
note_on channel=0 note=58 velocity=40 time=0
note_on channel=0 note=58 velocity=0 time=9
note_on channel=0 note=59 velocity=36 time=0
note_on channel=0 note=59 velocity=0 time=80
note_on channel=0 note=54 velocity=0 time=0
note_on channel=0 note=66 velocity=0 time=0
note_on channel=0 note=78 velocity=55 time=0
note_on channel=0 note=42 velocity=36 time=0
note_on channel=0 note=42 velocity=0 time=230
note_on channel=0 note=44 velocity=39 time=0
note_on channel=0 note=44 velocity=0 time=0
note_on channel=0 note=46 velocity=42 time=0
note_on channel=0 note=46 velocity=0 time=0
note_on channel=0 note=78 velocity=0 time=0
note_on channel=0 note=74 velocity=50 time=0
note_on channel=0 note=47 velocity=45 time=0
note_on channel=0 note=74 velocity=0 time=25
note_on channel=0 note=76 velocity=47 time=0
note_on channel=0 note=47 velocity=0 time=17
note_on channel=0 note=49 velocity=45 time=0
note_on channel=0 note=76 velocity=0 time=9
note_on channel=0 note=74 velocity=52 time=0
note_on channel=0 note=74 velocity=0 time=41
note_on channel=0 note=49 velocity=0 time=0
note_on channel=0 note=76 velocity=50 time=0
note_on channel=0 note=50 velocity=44 time=0
note_on channel=0 note=76 velocity=0 time=25
note_on channel=0 note=74 velocity=55 time=0
note_on channel=0 note=50 velocity=0 time=17
note_on channel=0 note=52 velocity=42 time=0
note_on channel=0 note=74 velocity=0 time=9
note_on channel=0 note=76 velocity=52 time=0
note_on channel=0 note=76 velocity=0 time=17
note_on channel=0 note=52 velocity=0 time=0
note_on channel=0 note=74 velocity=56 time=0
note_on channel=0 note=54 velocity=50 time=0
note_on channel=0 note=74 velocity=0 time=1
note_on channel=0 note=76 velocity=50 time=0
note_on channel=0 note=76 velocity=0 time=9
note_on channel=0 note=74 velocity=53 time=0
note_on channel=0 note=74 velocity=0 time=17
note_on channel=0 note=54 velocity=0 time=0
note_on channel=0 note=76 velocity=45 time=0
note_on channel=0 note=76 velocity=0 time=25
note_on channel=0 note=74 velocity=50 time=0
note_on channel=0 note=74 velocity=0 time=33
note_on channel=0 note=76 velocity=44 time=0
note_on channel=0 note=76 velocity=0 time=41
note_on channel=0 note=62 velocity=55 time=0
note_on channel=0 note=71 velocity=55 time=0
note_on channel=0 note=59 velocity=44 time=0
note_on channel=0 note=71 velocity=0 time=222
note_on channel=0 note=65 velocity=47 time=0
note_on channel=0 note=65 velocity=0 time=41
note_on channel=0 note=59 velocity=0 time=0
note_on channel=0 note=62 velocity=0 time=0
note_on channel=0 note=61 velocity=51 time=0
note_on channel=0 note=66 velocity=51 time=0
note_on channel=0 note=58 velocity=40 time=0
note_on channel=0 note=58 velocity=0 time=25
note_on channel=0 note=59 velocity=37 time=0
note_on channel=0 note=59 velocity=0 time=33
note_on channel=0 note=58 velocity=40 time=0
note_on channel=0 note=58 velocity=0 time=17
note_on channel=0 note=59 velocity=36 time=0
note_on channel=0 note=59 velocity=0 time=25
note_on channel=0 note=58 velocity=40 time=0
note_on channel=0 note=58 velocity=0 time=9
note_on channel=0 note=59 velocity=34 time=0
note_on channel=0 note=59 velocity=0 time=65
note_on channel=0 note=61 velocity=0 time=0
note_on channel=0 note=54 velocity=43 time=0
note_on channel=0 note=58 velocity=40 time=0
note_on channel=0 note=58 velocity=0 time=25
note_on channel=0 note=59 velocity=37 time=0
note_on channel=0 note=59 velocity=0 time=9
note_on channel=0 note=58 velocity=40 time=0
note_on channel=0 note=58 velocity=0 time=41
note_on channel=0 note=59 velocity=36 time=0
note_on channel=0 note=59 velocity=0 time=25
note_on channel=0 note=58 velocity=40 time=0
note_on channel=0 note=58 velocity=0 time=40
note_on channel=0 note=59 velocity=36 time=0
note_on channel=0 note=59 velocity=0 time=0
note_on channel=0 note=54 velocity=0 time=0
note_on channel=0 note=66 velocity=0 time=0
note_on channel=0 note=66 velocity=51 time=0
note_on channel=0 note=42 velocity=44 time=0
note_on channel=0 note=54 velocity=44 time=0
note_on channel=0 note=66 velocity=0 time=230
note_on channel=0 note=68 velocity=51 time=0
note_on channel=0 note=68 velocity=0 time=120
note_on channel=0 note=70 velocity=56 time=0
note_on channel=0 note=70 velocity=0 time=120
note_on channel=0 note=54 velocity=0 time=0
note_on channel=0 note=42 velocity=0 time=0
note_on channel=0 note=71 velocity=58 time=0
note_on channel=0 note=50 velocity=40 time=0
note_on channel=0 note=50 velocity=0 time=34
note_on channel=0 note=52 velocity=37 time=0
note_on channel=0 note=71 velocity=0 time=0
note_on channel=0 note=73 velocity=60 time=0
note_on channel=0 note=52 velocity=0 time=40
note_on channel=0 note=50 velocity=40 time=0
note_on channel=0 note=50 velocity=0 time=80
note_on channel=0 note=73 velocity=0 time=0
note_on channel=0 note=74 velocity=62 time=0
note_on channel=0 note=52 velocity=36 time=0
note_on channel=0 note=52 velocity=0 time=80
note_on channel=0 note=50 velocity=40 time=0
note_on channel=0 note=74 velocity=0 time=0
note_on channel=0 note=76 velocity=64 time=0
note_on channel=0 note=50 velocity=0 time=40
note_on channel=0 note=52 velocity=34 time=0
note_on channel=0 note=52 velocity=0 time=0
note_on channel=0 note=76 velocity=0 time=0
note_on channel=0 note=78 velocity=66 time=0
note_on channel=0 note=50 velocity=40 time=0
note_on channel=0 note=50 velocity=0 time=80
note_on channel=0 note=52 velocity=37 time=0
note_on channel=0 note=78 velocity=0 time=40
note_on channel=0 note=79 velocity=69 time=0
note_on channel=0 note=52 velocity=0 time=34
note_on channel=0 note=50 velocity=40 time=0
note_on channel=0 note=50 velocity=0 time=80
note_on channel=0 note=79 velocity=0 time=0
note_on channel=0 note=52 velocity=36 time=0
note_on channel=0 note=52 velocity=0 time=80
note_on channel=0 note=50 velocity=40 time=0
note_on channel=0 note=50 velocity=0 time=40
note_on channel=0 note=52 velocity=36 time=0
note_on channel=0 note=52 velocity=0 time=0
note_on channel=0 note=79 velocity=60 time=0
note_on channel=0 note=47 velocity=33 time=0
note_on channel=0 note=47 velocity=0 time=208
note_on channel=0 note=37 velocity=28 time=0
note_on channel=0 note=46 velocity=34 time=0
note_on channel=0 note=46 velocity=0 time=41
note_on channel=0 note=37 velocity=0 time=0
note_on channel=0 note=79 velocity=0 time=0
note_on channel=0 note=78 velocity=50 time=0
note_on channel=0 note=38 velocity=32 time=0
note_on channel=0 note=45 velocity=32 time=0
note_on channel=0 note=78 velocity=0 time=49
note_on channel=0 note=79 velocity=47 time=0
note_on channel=0 note=38 velocity=0 time=17
note_on channel=0 note=40 velocity=33 time=0
note_on channel=0 note=79 velocity=0 time=9
note_on channel=0 note=78 velocity=52 time=0
note_on channel=0 note=78 velocity=0 time=17
note_on channel=0 note=40 velocity=0 time=0
note_on channel=0 note=79 velocity=50 time=0
note_on channel=0 note=42 velocity=35 time=0
note_on channel=0 note=79 velocity=0 time=25
note_on channel=0 note=78 velocity=55 time=0
note_on channel=0 note=42 velocity=0 time=17
note_on channel=0 note=43 velocity=36 time=0
note_on channel=0 note=78 velocity=0 time=40
note_on channel=0 note=79 velocity=52 time=0
note_on channel=0 note=79 velocity=0 time=17
note_on channel=0 note=43 velocity=0 time=0
note_on channel=0 note=45 velocity=0 time=0
note_on channel=0 note=78 velocity=56 time=0
note_on channel=0 note=45 velocity=38 time=0
note_on channel=0 note=78 velocity=0 time=80
note_on channel=0 note=79 velocity=50 time=0
note_on channel=0 note=45 velocity=0 time=40
note_on channel=0 note=47 velocity=37 time=0
note_on channel=0 note=79 velocity=0 time=22
note_on channel=0 note=78 velocity=53 time=0
note_on channel=0 note=78 velocity=0 time=80
note_on channel=0 note=47 velocity=0 time=0
note_on channel=0 note=79 velocity=45 time=0
note_on channel=0 note=79 velocity=0 time=20
note_on channel=0 note=78 velocity=50 time=0
note_on channel=0 note=78 velocity=0 time=33
note_on channel=0 note=79 velocity=44 time=0
note_on channel=0 note=79 velocity=0 time=80
note_on channel=0 note=74 velocity=60 time=0
note_on channel=0 note=54 velocity=38 time=0
note_on channel=0 note=47 velocity=33 time=0
note_on channel=0 note=47 velocity=0 time=0
note_on channel=0 note=54 velocity=0 time=0
note_on channel=0 note=74 velocity=0 time=0
note_on channel=0 note=71 velocity=60 time=0
note_on channel=0 note=62 velocity=45 time=0
note_on channel=0 note=43 velocity=32 time=0
note_on channel=0 note=62 velocity=0 time=30
note_on channel=0 note=64 velocity=42 time=0
note_on channel=0 note=43 velocity=0 time=17
note_on channel=0 note=45 velocity=33 time=0
note_on channel=0 note=64 velocity=0 time=40
note_on channel=0 note=62 velocity=46 time=0
note_on channel=0 note=62 velocity=0 time=65
note_on channel=0 note=45 velocity=0 time=0
note_on channel=0 note=64 velocity=45 time=0
note_on channel=0 note=47 velocity=35 time=0
note_on channel=0 note=64 velocity=0 time=73
note_on channel=0 note=62 velocity=49 time=0
note_on channel=0 note=47 velocity=0 time=17
note_on channel=0 note=49 velocity=36 time=0
note_on channel=0 note=62 velocity=0 time=40
note_on channel=0 note=64 velocity=46 time=0
note_on channel=0 note=64 velocity=0 time=65
note_on channel=0 note=49 velocity=0 time=0
note_on channel=0 note=62 velocity=50 time=0
note_on channel=0 note=50 velocity=38 time=0
note_on channel=0 note=62 velocity=0 time=1
note_on channel=0 note=64 velocity=45 time=0
note_on channel=0 note=50 velocity=0 time=40
note_on channel=0 note=52 velocity=37 time=0
note_on channel=0 note=64 velocity=0 time=9
note_on channel=0 note=62 velocity=47 time=0
note_on channel=0 note=62 velocity=0 time=17
note_on channel=0 note=52 velocity=0 time=0
note_on channel=0 note=64 velocity=40 time=0
note_on channel=0 note=64 velocity=0 time=25
note_on channel=0 note=62 velocity=45 time=0
note_on channel=0 note=62 velocity=0 time=40
note_on channel=0 note=64 velocity=39 time=0
note_on channel=0 note=64 velocity=0 time=0
note_on channel=0 note=71 velocity=0 time=0
note_on channel=0 note=61 velocity=50 time=0
note_on channel=0 note=67 velocity=60 time=0
note_on channel=0 note=52 velocity=38 time=0
note_on channel=0 note=52 velocity=0 time=17
note_on channel=0 note=67 velocity=0 time=0
note_on channel=0 note=61 velocity=0 time=0
note_on channel=0 note=64 velocity=62 time=0
note_on channel=0 note=49 velocity=45 time=0
note_on channel=0 note=49 velocity=0 time=65
note_on channel=0 note=64 velocity=0 time=0
note_on channel=0 note=66 velocity=63 time=0
note_on channel=0 note=50 velocity=48 time=0
note_on channel=0 note=50 velocity=0 time=65
note_on channel=0 note=66 velocity=0 time=0
note_on channel=0 note=67 velocity=64 time=0
note_on channel=0 note=52 velocity=50 time=0
note_on channel=0 note=52 velocity=0 time=41
note_on channel=0 note=67 velocity=0 time=0
note_on channel=0 note=69 velocity=65 time=0
note_on channel=0 note=54 velocity=53 time=0
note_on channel=0 note=54 velocity=0 time=41
note_on channel=0 note=69 velocity=0 time=0
note_on channel=0 note=71 velocity=67 time=0
note_on channel=0 note=55 velocity=55 time=0
note_on channel=0 note=55 velocity=0 time=35
note_on channel=0 note=71 velocity=0 time=0
note_on channel=0 note=73 velocity=66 time=0
note_on channel=0 note=57 velocity=48 time=0
note_on channel=0 note=57 velocity=0 time=0
note_on channel=0 note=73 velocity=0 time=0
note_on channel=0 note=61 velocity=55 time=0
note_on channel=0 note=61 velocity=0 time=0
note_on channel=0 note=62 velocity=57 time=0
note_on channel=0 note=62 velocity=0 time=0
note_on channel=0 note=73 velocity=69 time=0
note_on channel=0 note=64 velocity=57 time=0
note_on channel=0 note=57 velocity=59 time=0
note_on channel=0 note=64 velocity=0 time=84
note_on channel=0 note=66 velocity=55 time=0
note_on channel=0 note=66 velocity=0 time=120
note_on channel=0 note=67 velocity=57 time=0
note_on channel=0 note=67 velocity=0 time=42
note_on channel=0 note=69 velocity=60 time=0
note_on channel=0 note=69 velocity=0 time=0
note_on channel=0 note=57 velocity=0 time=0
note_on channel=0 note=73 velocity=0 time=0
note_on channel=0 note=67 velocity=62 time=0
note_on channel=0 note=52 velocity=45 time=0
note_on channel=0 note=52 velocity=0 time=42
note_on channel=0 note=67 velocity=0 time=0
note_on channel=0 note=69 velocity=63 time=0
note_on channel=0 note=54 velocity=48 time=0
note_on channel=0 note=54 velocity=0 time=65
note_on channel=0 note=69 velocity=0 time=0
note_on channel=0 note=71 velocity=64 time=0
note_on channel=0 note=55 velocity=50 time=0
note_on channel=0 note=55 velocity=0 time=41
note_on channel=0 note=71 velocity=0 time=0
note_on channel=0 note=73 velocity=65 time=0
note_on channel=0 note=57 velocity=53 time=0
note_on channel=0 note=57 velocity=0 time=41
note_on channel=0 note=73 velocity=0 time=0
note_on channel=0 note=74 velocity=67 time=0
note_on channel=0 note=59 velocity=55 time=0
note_on channel=0 note=59 velocity=0 time=35
note_on channel=0 note=74 velocity=0 time=0
note_on channel=0 note=76 velocity=66 time=0
note_on channel=0 note=61 velocity=48 time=0
note_on channel=0 note=61 velocity=0 time=0
note_on channel=0 note=76 velocity=0 time=0
note_on channel=0 note=64 velocity=55 time=0
note_on channel=0 note=64 velocity=0 time=0
note_on channel=0 note=66 velocity=57 time=0
note_on channel=0 note=66 velocity=0 time=0
note_on channel=0 note=76 velocity=69 time=0
note_on channel=0 note=67 velocity=57 time=0
note_on channel=0 note=61 velocity=59 time=0
note_on channel=0 note=67 velocity=0 time=84
note_on channel=0 note=69 velocity=55 time=0
note_on channel=0 note=69 velocity=0 time=120
note_on channel=0 note=71 velocity=57 time=0
note_on channel=0 note=71 velocity=0 time=42
note_on channel=0 note=73 velocity=60 time=0
note_on channel=0 note=73 velocity=0 time=0
note_on channel=0 note=61 velocity=0 time=0
note_on channel=0 note=76 velocity=0 time=0
note_on channel=0 note=79 velocity=74 time=0
note_on channel=0 note=64 velocity=58 time=0
note_on channel=0 note=64 velocity=0 time=42
note_on channel=0 note=79 velocity=0 time=0
note_on channel=0 note=78 velocity=72 time=0
note_on channel=0 note=62 velocity=56 time=0
note_on channel=0 note=62 velocity=0 time=65
note_on channel=0 note=78 velocity=0 time=0
note_on channel=0 note=76 velocity=71 time=0
note_on channel=0 note=61 velocity=53 time=0
note_on channel=0 note=61 velocity=0 time=41
note_on channel=0 note=76 velocity=0 time=0
note_on channel=0 note=74 velocity=69 time=0
note_on channel=0 note=59 velocity=51 time=0
note_on channel=0 note=59 velocity=0 time=41
note_on channel=0 note=74 velocity=0 time=0
note_on channel=0 note=73 velocity=67 time=0
note_on channel=0 note=57 velocity=49 time=0
note_on channel=0 note=57 velocity=0 time=35
note_on channel=0 note=73 velocity=0 time=0
note_on channel=0 note=71 velocity=68 time=0
note_on channel=0 note=55 velocity=44 time=0
note_on channel=0 note=55 velocity=0 time=0
note_on channel=0 note=71 velocity=0 time=0
note_on channel=0 note=67 velocity=64 time=0
note_on channel=0 note=67 velocity=0 time=0
note_on channel=0 note=66 velocity=61 time=0
note_on channel=0 note=66 velocity=0 time=0
note_on channel=0 note=71 velocity=75 time=0
note_on channel=0 note=64 velocity=62 time=0
note_on channel=0 note=55 velocity=64 time=0
note_on channel=0 note=64 velocity=0 time=84
note_on channel=0 note=62 velocity=60 time=0
note_on channel=0 note=62 velocity=0 time=120
note_on channel=0 note=61 velocity=57 time=0
note_on channel=0 note=61 velocity=0 time=42
note_on channel=0 note=59 velocity=55 time=0
note_on channel=0 note=59 velocity=0 time=0
note_on channel=0 note=55 velocity=0 time=0
note_on channel=0 note=71 velocity=0 time=0
note_on channel=0 note=76 velocity=74 time=0
note_on channel=0 note=61 velocity=58 time=0
note_on channel=0 note=61 velocity=0 time=42
note_on channel=0 note=76 velocity=0 time=0
note_on channel=0 note=74 velocity=72 time=0
note_on channel=0 note=59 velocity=56 time=0
note_on channel=0 note=59 velocity=0 time=65
note_on channel=0 note=74 velocity=0 time=0
note_on channel=0 note=73 velocity=71 time=0
note_on channel=0 note=57 velocity=53 time=0
note_on channel=0 note=57 velocity=0 time=41
note_on channel=0 note=73 velocity=0 time=0
note_on channel=0 note=71 velocity=69 time=0
note_on channel=0 note=55 velocity=51 time=0
note_on channel=0 note=55 velocity=0 time=41
note_on channel=0 note=71 velocity=0 time=0
note_on channel=0 note=69 velocity=67 time=0
note_on channel=0 note=54 velocity=49 time=0
note_on channel=0 note=54 velocity=0 time=35
note_on channel=0 note=69 velocity=0 time=0
note_on channel=0 note=67 velocity=72 time=0
note_on channel=0 note=52 velocity=44 time=0
note_on channel=0 note=52 velocity=0 time=0
note_on channel=0 note=67 velocity=0 time=0
note_on channel=0 note=64 velocity=64 time=0
note_on channel=0 note=64 velocity=0 time=0
note_on channel=0 note=62 velocity=61 time=0
note_on channel=0 note=62 velocity=0 time=0
note_on channel=0 note=67 velocity=75 time=0
note_on channel=0 note=61 velocity=62 time=0
note_on channel=0 note=52 velocity=64 time=0
note_on channel=0 note=61 velocity=0 time=84
note_on channel=0 note=59 velocity=60 time=0
note_on channel=0 note=59 velocity=0 time=120
note_on channel=0 note=57 velocity=57 time=0
note_on channel=0 note=57 velocity=0 time=42
note_on channel=0 note=55 velocity=55 time=0
note_on channel=0 note=55 velocity=0 time=9
note_on channel=0 note=52 velocity=0 time=0
note_on channel=0 note=67 velocity=0 time=0
note_on channel=0 note=62 velocity=73 time=0
note_on channel=0 note=66 velocity=73 time=0
note_on channel=0 note=38 velocity=57 time=0
note_on channel=0 note=38 velocity=0 time=9
note_on channel=0 note=62 velocity=0 time=0
note_on channel=0 note=61 velocity=68 time=0
note_on channel=0 note=40 velocity=47 time=0
note_on channel=0 note=40 velocity=0 time=33
note_on channel=0 note=61 velocity=0 time=0
note_on channel=0 note=59 velocity=63 time=0
note_on channel=0 note=42 velocity=50 time=0
note_on channel=0 note=42 velocity=0 time=57
note_on channel=0 note=59 velocity=0 time=0
note_on channel=0 note=57 velocity=62 time=0
note_on channel=0 note=43 velocity=53 time=0
note_on channel=0 note=43 velocity=0 time=81
note_on channel=0 note=57 velocity=0 time=0
note_on channel=0 note=66 velocity=0 time=0
note_on channel=0 note=55 velocity=62 time=0
note_on channel=0 note=44 velocity=56 time=0
note_on channel=0 note=44 velocity=0 time=57
note_on channel=0 note=55 velocity=0 time=0
note_on channel=0 note=54 velocity=61 time=0
note_on channel=0 note=45 velocity=50 time=0
note_on channel=0 note=45 velocity=0 time=0
note_on channel=0 note=54 velocity=0 time=0
note_on channel=0 note=66 velocity=63 time=0
note_on channel=0 note=66 velocity=0 time=0
note_on channel=0 note=67 velocity=65 time=0
note_on channel=0 note=67 velocity=0 time=9
note_on channel=0 note=69 velocity=67 time=0
note_on channel=0 note=54 velocity=65 time=0
note_on channel=0 note=45 velocity=65 time=0
note_on channel=0 note=69 velocity=0 time=17
note_on channel=0 note=71 velocity=69 time=0
note_on channel=0 note=71 velocity=0 time=81
note_on channel=0 note=73 velocity=72 time=0
note_on channel=0 note=73 velocity=0 time=33
note_on channel=0 note=74 velocity=74 time=0
note_on channel=0 note=74 velocity=0 time=0
note_on channel=0 note=45 velocity=0 time=0
note_on channel=0 note=54 velocity=0 time=0
note_on channel=0 note=66 velocity=73 time=0
note_on channel=0 note=69 velocity=73 time=0
note_on channel=0 note=42 velocity=57 time=0
note_on channel=0 note=42 velocity=0 time=9
note_on channel=0 note=66 velocity=0 time=0
note_on channel=0 note=64 velocity=68 time=0
note_on channel=0 note=43 velocity=47 time=0
note_on channel=0 note=43 velocity=0 time=33
note_on channel=0 note=64 velocity=0 time=0
note_on channel=0 note=62 velocity=63 time=0
note_on channel=0 note=45 velocity=50 time=0
note_on channel=0 note=45 velocity=0 time=57
note_on channel=0 note=62 velocity=0 time=0
note_on channel=0 note=61 velocity=62 time=0
note_on channel=0 note=47 velocity=53 time=0
note_on channel=0 note=47 velocity=0 time=81
note_on channel=0 note=61 velocity=0 time=0
note_on channel=0 note=69 velocity=0 time=0
note_on channel=0 note=59 velocity=62 time=0
note_on channel=0 note=49 velocity=56 time=0
note_on channel=0 note=49 velocity=0 time=57
note_on channel=0 note=59 velocity=0 time=0
note_on channel=0 note=57 velocity=61 time=0
note_on channel=0 note=50 velocity=50 time=0
note_on channel=0 note=50 velocity=0 time=0
note_on channel=0 note=57 velocity=0 time=0
note_on channel=0 note=69 velocity=63 time=0
note_on channel=0 note=69 velocity=0 time=0
note_on channel=0 note=71 velocity=65 time=0
note_on channel=0 note=71 velocity=0 time=9
note_on channel=0 note=73 velocity=67 time=0
note_on channel=0 note=50 velocity=65 time=0
note_on channel=0 note=57 velocity=65 time=0
note_on channel=0 note=73 velocity=0 time=17
note_on channel=0 note=74 velocity=69 time=0
note_on channel=0 note=74 velocity=0 time=81
note_on channel=0 note=76 velocity=72 time=0
note_on channel=0 note=76 velocity=0 time=33
note_on channel=0 note=78 velocity=74 time=0
note_on channel=0 note=78 velocity=0 time=0
note_on channel=0 note=57 velocity=0 time=0
note_on channel=0 note=50 velocity=0 time=0
note_on channel=0 note=67 velocity=73 time=0
note_on channel=0 note=71 velocity=73 time=0
note_on channel=0 note=43 velocity=57 time=0
note_on channel=0 note=43 velocity=0 time=9
note_on channel=0 note=67 velocity=0 time=0
note_on channel=0 note=66 velocity=68 time=0
note_on channel=0 note=45 velocity=47 time=0
note_on channel=0 note=45 velocity=0 time=33
note_on channel=0 note=66 velocity=0 time=0
note_on channel=0 note=64 velocity=63 time=0
note_on channel=0 note=47 velocity=50 time=0
note_on channel=0 note=47 velocity=0 time=57
note_on channel=0 note=64 velocity=0 time=0
note_on channel=0 note=62 velocity=62 time=0
note_on channel=0 note=49 velocity=53 time=0
note_on channel=0 note=49 velocity=0 time=81
note_on channel=0 note=62 velocity=0 time=0
note_on channel=0 note=71 velocity=0 time=0
note_on channel=0 note=61 velocity=62 time=0
note_on channel=0 note=50 velocity=56 time=0
note_on channel=0 note=50 velocity=0 time=57
note_on channel=0 note=61 velocity=0 time=0
note_on channel=0 note=59 velocity=61 time=0
note_on channel=0 note=52 velocity=50 time=0
note_on channel=0 note=52 velocity=0 time=0
note_on channel=0 note=59 velocity=0 time=0
note_on channel=0 note=71 velocity=63 time=0
note_on channel=0 note=71 velocity=0 time=0
note_on channel=0 note=73 velocity=65 time=0
note_on channel=0 note=73 velocity=0 time=9
note_on channel=0 note=67 velocity=65 time=0
note_on channel=0 note=74 velocity=67 time=0
note_on channel=0 note=52 velocity=65 time=0
note_on channel=0 note=74 velocity=0 time=17
note_on channel=0 note=76 velocity=69 time=0
note_on channel=0 note=76 velocity=0 time=81
note_on channel=0 note=78 velocity=72 time=0
note_on channel=0 note=78 velocity=0 time=33
note_on channel=0 note=79 velocity=74 time=0
note_on channel=0 note=79 velocity=0 time=0
note_on channel=0 note=52 velocity=0 time=0
note_on channel=0 note=67 velocity=0 time=0
note_on channel=0 note=76 velocity=80 time=0
note_on channel=0 note=79 velocity=80 time=0
note_on channel=0 note=49 velocity=62 time=0
note_on channel=0 note=49 velocity=0 time=9
note_on channel=0 note=76 velocity=0 time=0
note_on channel=0 note=74 velocity=74 time=0
note_on channel=0 note=50 velocity=51 time=0
note_on channel=0 note=50 velocity=0 time=33
note_on channel=0 note=74 velocity=0 time=0
note_on channel=0 note=73 velocity=69 time=0
note_on channel=0 note=52 velocity=55 time=0
note_on channel=0 note=52 velocity=0 time=57
note_on channel=0 note=73 velocity=0 time=0
note_on channel=0 note=71 velocity=68 time=0
note_on channel=0 note=54 velocity=58 time=0
note_on channel=0 note=54 velocity=0 time=81
note_on channel=0 note=71 velocity=0 time=0
note_on channel=0 note=79 velocity=0 time=0
note_on channel=0 note=69 velocity=68 time=0
note_on channel=0 note=55 velocity=61 time=0
note_on channel=0 note=55 velocity=0 time=57
note_on channel=0 note=69 velocity=0 time=0
note_on channel=0 note=67 velocity=67 time=0
note_on channel=0 note=57 velocity=55 time=0
note_on channel=0 note=57 velocity=0 time=0
note_on channel=0 note=67 velocity=0 time=0
note_on channel=0 note=79 velocity=69 time=0
note_on channel=0 note=79 velocity=0 time=0
note_on channel=0 note=81 velocity=68 time=0
note_on channel=0 note=81 velocity=0 time=9
note_on channel=0 note=79 velocity=71 time=0
note_on channel=0 note=83 velocity=73 time=0
note_on channel=0 note=57 velocity=71 time=0
note_on channel=0 note=83 velocity=0 time=17
note_on channel=0 note=85 velocity=75 time=0
note_on channel=0 note=85 velocity=0 time=81
note_on channel=0 note=86 velocity=79 time=0
note_on channel=0 note=86 velocity=0 time=33
note_on channel=0 note=88 velocity=81 time=0
note_on channel=0 note=88 velocity=0 time=17
note_on channel=0 note=57 velocity=0 time=0
note_on channel=0 note=79 velocity=0 time=0
note_on channel=0 note=78 velocity=71 time=0
note_on channel=0 note=90 velocity=85 time=0
note_on channel=0 note=50 velocity=67 time=0
note_on channel=0 note=50 velocity=0 time=17
note_on channel=0 note=90 velocity=0 time=0
note_on channel=0 note=88 velocity=83 time=0
note_on channel=0 note=49 velocity=64 time=0
note_on channel=0 note=49 velocity=0 time=41
note_on channel=0 note=88 velocity=0 time=0
note_on channel=0 note=86 velocity=80 time=0
note_on channel=0 note=47 velocity=62 time=0
note_on channel=0 note=47 velocity=0 time=41
note_on channel=0 note=86 velocity=0 time=0
note_on channel=0 note=85 velocity=78 time=0
note_on channel=0 note=45 velocity=60 time=0
note_on channel=0 note=45 velocity=0 time=17
note_on channel=0 note=85 velocity=0 time=0
note_on channel=0 note=78 velocity=0 time=0
note_on channel=0 note=83 velocity=76 time=0
note_on channel=0 note=43 velocity=57 time=0
note_on channel=0 note=43 velocity=0 time=35
note_on channel=0 note=83 velocity=0 time=0
note_on channel=0 note=81 velocity=73 time=0
note_on channel=0 note=42 velocity=55 time=0
note_on channel=0 note=42 velocity=0 time=0
note_on channel=0 note=81 velocity=0 time=0
note_on channel=0 note=54 velocity=55 time=0
note_on channel=0 note=54 velocity=0 time=0
note_on channel=0 note=55 velocity=58 time=0
note_on channel=0 note=55 velocity=0 time=0
note_on channel=0 note=81 velocity=71 time=0
note_on channel=0 note=57 velocity=62 time=0
note_on channel=0 note=57 velocity=0 time=63
note_on channel=0 note=59 velocity=65 time=0
note_on channel=0 note=59 velocity=0 time=120
note_on channel=0 note=61 velocity=69 time=0
note_on channel=0 note=61 velocity=0 time=35
note_on channel=0 note=62 velocity=72 time=0
note_on channel=0 note=62 velocity=0 time=0
note_on channel=0 note=81 velocity=0 time=0
note_on channel=0 note=74 velocity=71 time=0
note_on channel=0 note=86 velocity=85 time=0
note_on channel=0 note=47 velocity=67 time=0
note_on channel=0 note=47 velocity=0 time=17
note_on channel=0 note=86 velocity=0 time=0
note_on channel=0 note=85 velocity=83 time=0
note_on channel=0 note=45 velocity=64 time=0
note_on channel=0 note=45 velocity=0 time=41
note_on channel=0 note=85 velocity=0 time=0
note_on channel=0 note=83 velocity=80 time=0
note_on channel=0 note=43 velocity=62 time=0
note_on channel=0 note=43 velocity=0 time=41
note_on channel=0 note=83 velocity=0 time=0
note_on channel=0 note=81 velocity=78 time=0
note_on channel=0 note=42 velocity=60 time=0
note_on channel=0 note=42 velocity=0 time=17
note_on channel=0 note=81 velocity=0 time=0
note_on channel=0 note=74 velocity=0 time=0
note_on channel=0 note=79 velocity=76 time=0
note_on channel=0 note=40 velocity=57 time=0
note_on channel=0 note=40 velocity=0 time=35
note_on channel=0 note=79 velocity=0 time=0
note_on channel=0 note=78 velocity=73 time=0
note_on channel=0 note=38 velocity=55 time=0
note_on channel=0 note=38 velocity=0 time=0
note_on channel=0 note=78 velocity=0 time=0
note_on channel=0 note=50 velocity=55 time=0
note_on channel=0 note=50 velocity=0 time=0
note_on channel=0 note=52 velocity=58 time=0
note_on channel=0 note=52 velocity=0 time=0
note_on channel=0 note=78 velocity=71 time=0
note_on channel=0 note=54 velocity=62 time=0
note_on channel=0 note=54 velocity=0 time=63
note_on channel=0 note=55 velocity=65 time=0
note_on channel=0 note=55 velocity=0 time=120
note_on channel=0 note=57 velocity=69 time=0
note_on channel=0 note=57 velocity=0 time=35
note_on channel=0 note=59 velocity=72 time=0
note_on channel=0 note=59 velocity=0 time=35
note_on channel=0 note=78 velocity=0 time=2
note_on channel=0 note=55 velocity=61 time=0
note_on channel=0 note=59 velocity=72 time=0
note_on channel=0 note=59 velocity=0 time=13
note_on channel=0 note=55 velocity=0 time=0
note_on channel=0 note=57 velocity=69 time=0
note_on channel=0 note=54 velocity=58 time=0
note_on channel=0 note=54 velocity=0 time=61
note_on channel=0 note=57 velocity=0 time=0
note_on channel=0 note=52 velocity=56 time=0
note_on channel=0 note=55 velocity=67 time=0
note_on channel=0 note=55 velocity=0 time=37
note_on channel=0 note=52 velocity=0 time=0
note_on channel=0 note=50 velocity=54 time=0
note_on channel=0 note=54 velocity=64 time=0
note_on channel=0 note=54 velocity=0 time=13
note_on channel=0 note=50 velocity=0 time=0
note_on channel=0 note=49 velocity=52 time=0
note_on channel=0 note=52 velocity=62 time=0
note_on channel=0 note=52 velocity=0 time=0
note_on channel=0 note=49 velocity=0 time=0
note_on channel=0 note=47 velocity=51 time=0
note_on channel=0 note=50 velocity=60 time=0
note_on channel=0 note=50 velocity=0 time=0
note_on channel=0 note=47 velocity=0 time=0
note_on channel=0 note=74 velocity=69 time=0
note_on channel=0 note=74 velocity=0 time=45
note_on channel=0 note=76 velocity=70 time=0
note_on channel=0 note=76 velocity=0 time=85
note_on channel=0 note=78 velocity=72 time=0
note_on channel=0 note=47 velocity=52 time=0
note_on channel=0 note=50 velocity=60 time=0
note_on channel=0 note=78 velocity=0 time=40
note_on channel=0 note=79 velocity=73 time=0
note_on channel=0 note=79 velocity=0 time=61
note_on channel=0 note=81 velocity=74 time=0
note_on channel=0 note=81 velocity=0 time=0
note_on channel=0 note=82 velocity=75 time=0
note_on channel=0 note=82 velocity=0 time=0
note_on channel=0 note=50 velocity=0 time=0
note_on channel=0 note=47 velocity=0 time=0
note_on channel=0 note=83 velocity=76 time=0
note_on channel=0 note=43 velocity=65 time=0
note_on channel=0 note=43 velocity=0 time=13
note_on channel=0 note=83 velocity=0 time=0
note_on channel=0 note=81 velocity=71 time=0
note_on channel=0 note=45 velocity=59 time=0
note_on channel=0 note=45 velocity=0 time=37
note_on channel=0 note=81 velocity=0 time=0
note_on channel=0 note=79 velocity=71 time=0
note_on channel=0 note=47 velocity=59 time=0
note_on channel=0 note=47 velocity=0 time=85
note_on channel=0 note=79 velocity=0 time=0
note_on channel=0 note=78 velocity=70 time=0
note_on channel=0 note=48 velocity=58 time=0
note_on channel=0 note=48 velocity=0 time=37
note_on channel=0 note=78 velocity=0 time=0
note_on channel=0 note=76 velocity=69 time=0
note_on channel=0 note=50 velocity=57 time=0
note_on channel=0 note=50 velocity=0 time=61
note_on channel=0 note=76 velocity=0 time=0
note_on channel=0 note=74 velocity=68 time=0
note_on channel=0 note=52 velocity=56 time=0
note_on channel=0 note=52 velocity=0 time=109
note_on channel=0 note=74 velocity=0 time=0
note_on channel=0 note=79 velocity=77 time=0
note_on channel=0 note=47 velocity=64 time=0
note_on channel=0 note=47 velocity=0 time=85
note_on channel=0 note=79 velocity=0 time=0
note_on channel=0 note=78 velocity=71 time=0
note_on channel=0 note=48 velocity=59 time=0
note_on channel=0 note=48 velocity=0 time=13
note_on channel=0 note=78 velocity=0 time=0
note_on channel=0 note=76 velocity=70 time=0
note_on channel=0 note=50 velocity=58 time=0
note_on channel=0 note=50 velocity=0 time=61
note_on channel=0 note=76 velocity=0 time=0
note_on channel=0 note=74 velocity=69 time=0
note_on channel=0 note=52 velocity=57 time=0
note_on channel=0 note=52 velocity=0 time=85
note_on channel=0 note=74 velocity=0 time=0
note_on channel=0 note=72 velocity=68 time=0
note_on channel=0 note=54 velocity=55 time=0
note_on channel=0 note=54 velocity=0 time=37
note_on channel=0 note=72 velocity=0 time=0
note_on channel=0 note=71 velocity=66 time=0
note_on channel=0 note=55 velocity=54 time=0
note_on channel=0 note=55 velocity=0 time=13
note_on channel=0 note=71 velocity=0 time=0
note_on channel=0 note=76 velocity=78 time=0
note_on channel=0 note=45 velocity=64 time=0
note_on channel=0 note=45 velocity=0 time=28
note_on channel=0 note=76 velocity=0 time=0
note_on channel=0 note=74 velocity=69 time=0
note_on channel=0 note=47 velocity=58 time=0
note_on channel=0 note=47 velocity=0 time=37
note_on channel=0 note=74 velocity=0 time=0
note_on channel=0 note=73 velocity=67 time=0
note_on channel=0 note=49 velocity=57 time=0
note_on channel=0 note=49 velocity=0 time=13
note_on channel=0 note=73 velocity=0 time=0
note_on channel=0 note=71 velocity=66 time=0
note_on channel=0 note=50 velocity=55 time=0
note_on channel=0 note=50 velocity=0 time=61
note_on channel=0 note=71 velocity=0 time=0
note_on channel=0 note=69 velocity=67 time=0
note_on channel=0 note=52 velocity=54 time=0
note_on channel=0 note=52 velocity=0 time=37
note_on channel=0 note=69 velocity=0 time=0
note_on channel=0 note=68 velocity=63 time=0
note_on channel=0 note=53 velocity=58 time=0
note_on channel=0 note=53 velocity=0 time=17
note_on channel=0 note=68 velocity=0 time=0
note_on channel=0 note=67 velocity=63 time=0
note_on channel=0 note=64 velocity=63 time=0
note_on channel=0 note=45 velocity=54 time=0
note_on channel=0 note=45 velocity=0 time=91
note_on channel=0 note=64 velocity=0 time=0
note_on channel=0 note=62 velocity=59 time=0
note_on channel=0 note=47 velocity=51 time=0
note_on channel=0 note=47 velocity=0 time=120
note_on channel=0 note=62 velocity=0 time=0
note_on channel=0 note=61 velocity=63 time=0
note_on channel=0 note=49 velocity=54 time=0
note_on channel=0 note=49 velocity=0 time=40
note_on channel=0 note=61 velocity=0 time=0
note_on channel=0 note=59 velocity=59 time=0
note_on channel=0 note=50 velocity=52 time=0
note_on channel=0 note=50 velocity=0 time=120
note_on channel=0 note=59 velocity=0 time=0
note_on channel=0 note=57 velocity=58 time=0
note_on channel=0 note=49 velocity=52 time=0
note_on channel=0 note=49 velocity=0 time=63
note_on channel=0 note=57 velocity=0 time=0
note_on channel=0 note=56 velocity=57 time=0
note_on channel=0 note=47 velocity=52 time=0
note_on channel=0 note=47 velocity=0 time=0
note_on channel=0 note=56 velocity=0 time=0
note_on channel=0 note=64 velocity=62 time=0
note_on channel=0 note=46 velocity=60 time=0
note_on channel=0 note=64 velocity=0 time=17
note_on channel=0 note=62 velocity=57 time=0
note_on channel=0 note=62 velocity=0 time=120
note_on channel=0 note=61 velocity=57 time=0
note_on channel=0 note=61 velocity=0 time=0
note_on channel=0 note=62 velocity=57 time=0
note_on channel=0 note=62 velocity=0 time=0
note_on channel=0 note=67 velocity=0 time=0
note_on channel=0 note=66 velocity=70 time=0
note_on channel=0 note=64 velocity=70 time=0
note_on channel=0 note=46 velocity=0 time=28
note_on channel=0 note=44 velocity=50 time=0
note_on channel=0 note=44 velocity=0 time=120
note_on channel=0 note=42 velocity=50 time=0
note_on channel=0 note=42 velocity=0 time=120
note_on channel=0 note=44 velocity=50 time=0
note_on channel=0 note=44 velocity=0 time=120
note_on channel=0 note=46 velocity=60 time=0
note_on channel=0 note=64 velocity=0 time=11
note_on channel=0 note=61 velocity=58 time=0
note_on channel=0 note=61 velocity=0 time=120
note_on channel=0 note=62 velocity=58 time=0
note_on channel=0 note=62 velocity=0 time=0
note_on channel=0 note=64 velocity=58 time=0
note_on channel=0 note=64 velocity=0 time=0
note_on channel=0 note=46 velocity=0 time=0
note_on channel=0 note=66 velocity=0 time=0
note_on channel=0 note=62 velocity=65 time=0
note_on channel=0 note=66 velocity=65 time=0
note_on channel=0 note=47 velocity=50 time=0
note_on channel=0 note=47 velocity=0 time=40
note_on channel=0 note=49 velocity=46 time=0
note_on channel=0 note=49 velocity=0 time=120
note_on channel=0 note=47 velocity=46 time=0
note_on channel=0 note=47 velocity=0 time=0
note_on channel=0 note=45 velocity=46 time=0
note_on channel=0 note=45 velocity=0 time=0
note_on channel=0 note=66 velocity=0 time=0
note_on channel=0 note=71 velocity=68 time=0
note_on channel=0 note=44 velocity=50 time=0
note_on channel=0 note=44 velocity=0 time=34
note_on channel=0 note=50 velocity=48 time=0
note_on channel=0 note=50 velocity=0 time=120
note_on channel=0 note=47 velocity=48 time=0
note_on channel=0 note=47 velocity=0 time=120
note_on channel=0 note=53 velocity=48 time=0
note_on channel=0 note=53 velocity=0 time=120
note_on channel=0 note=62 velocity=0 time=0
note_on channel=0 note=56 velocity=56 time=0
note_on channel=0 note=56 velocity=0 time=11
note_on channel=0 note=62 velocity=52 time=0
note_on channel=0 note=62 velocity=0 time=0
note_on channel=0 note=59 velocity=57 time=0
note_on channel=0 note=59 velocity=0 time=120
note_on channel=0 note=65 velocity=52 time=0
note_on channel=0 note=65 velocity=0 time=0
note_on channel=0 note=66 velocity=57 time=0
note_on channel=0 note=45 velocity=57 time=0
note_on channel=0 note=45 velocity=0 time=23
note_on channel=0 note=54 velocity=52 time=0
note_on channel=0 note=54 velocity=0 time=120
note_on channel=0 note=71 velocity=0 time=0
note_on channel=0 note=50 velocity=57 time=0
note_on channel=0 note=50 velocity=0 time=120
note_on channel=0 note=57 velocity=52 time=0
note_on channel=0 note=57 velocity=0 time=0
note_on channel=0 note=66 velocity=0 time=0
note_on channel=0 note=62 velocity=57 time=0
note_on channel=0 note=54 velocity=57 time=0
note_on channel=0 note=54 velocity=0 time=45
note_on channel=0 note=62 velocity=0 time=0
note_on channel=0 note=66 velocity=52 time=0
note_on channel=0 note=62 velocity=49 time=0
note_on channel=0 note=62 velocity=0 time=120
note_on channel=0 note=66 velocity=0 time=0
note_on channel=0 note=68 velocity=57 time=0
note_on channel=0 note=65 velocity=48 time=0
note_on channel=0 note=47 velocity=57 time=0
note_on channel=0 note=65 velocity=0 time=34
note_on channel=0 note=64 velocity=52 time=0
note_on channel=0 note=64 velocity=0 time=0
note_on channel=0 note=47 velocity=0 time=0
note_on channel=0 note=68 velocity=0 time=0
note_on channel=0 note=67 velocity=63 time=0
note_on channel=0 note=58 velocity=57 time=0
note_on channel=0 note=49 velocity=59 time=0
note_on channel=0 note=58 velocity=0 time=45
note_on channel=0 note=64 velocity=50 time=0
note_on channel=0 note=64 velocity=0 time=120
note_on channel=0 note=49 velocity=0 time=0
note_on channel=0 note=67 velocity=0 time=0
note_on channel=0 note=66 velocity=58 time=0
note_on channel=0 note=62 velocity=48 time=0
note_on channel=0 note=50 velocity=65 time=0
note_on channel=0 note=62 velocity=0 time=0
note_on channel=0 note=57 velocity=51 time=0
note_on channel=0 note=57 velocity=0 time=0
note_on channel=0 note=50 velocity=0 time=0
note_on channel=0 note=58 velocity=68 time=0
note_on channel=0 note=31 velocity=80 time=0
note_on channel=0 note=31 velocity=0 time=180
note_on channel=0 note=66 velocity=0 time=0
note_on channel=0 note=64 velocity=57 time=0
note_on channel=0 note=64 velocity=0 time=41
note_on channel=0 note=58 velocity=0 time=0
note_on channel=0 note=58 velocity=65 time=0
note_on channel=0 note=49 velocity=71 time=0
note_on channel=0 note=49 velocity=0 time=1
note_on channel=0 note=50 velocity=63 time=0
note_on channel=0 note=50 velocity=0 time=33
note_on channel=0 note=49 velocity=71 time=0
note_on channel=0 note=49 velocity=0 time=65
note_on channel=0 note=55 velocity=65 time=0
note_on channel=0 note=50 velocity=62 time=0
note_on channel=0 note=50 velocity=0 time=25
note_on channel=0 note=49 velocity=71 time=0
note_on channel=0 note=49 velocity=0 time=9
note_on channel=0 note=50 velocity=63 time=0
note_on channel=0 note=50 velocity=0 time=41
note_on channel=0 note=55 velocity=0 time=0
note_on channel=0 note=52 velocity=65 time=0
note_on channel=0 note=49 velocity=71 time=0
note_on channel=0 note=49 velocity=0 time=25
note_on channel=0 note=50 velocity=65 time=0
note_on channel=0 note=50 velocity=0 time=9
note_on channel=0 note=49 velocity=71 time=0
note_on channel=0 note=49 velocity=0 time=41
note_on channel=0 note=58 velocity=0 time=0
note_on channel=0 note=58 velocity=65 time=0
note_on channel=0 note=50 velocity=65 time=0
note_on channel=0 note=50 velocity=0 time=5
note_on channel=0 note=49 velocity=65 time=0
note_on channel=0 note=49 velocity=0 time=17
note_on channel=0 note=47 velocity=65 time=0
note_on channel=0 note=47 velocity=0 time=29
note_on channel=0 note=49 velocity=65 time=0
note_on channel=0 note=49 velocity=0 time=0
note_on channel=0 note=52 velocity=0 time=0
note_on channel=0 note=54 velocity=65 time=0
note_on channel=0 note=50 velocity=73 time=0
note_on channel=0 note=58 velocity=0 time=114
note_on channel=0 note=56 velocity=57 time=0
note_on channel=0 note=56 velocity=0 time=120
note_on channel=0 note=57 velocity=65 time=0
note_on channel=0 note=54 velocity=0 time=120
note_on channel=0 note=53 velocity=60 time=0
note_on channel=0 note=53 velocity=0 time=120
note_on channel=0 note=50 velocity=0 time=0
note_on channel=0 note=54 velocity=65 time=0
note_on channel=0 note=57 velocity=0 time=120
note_on channel=0 note=61 velocity=58 time=0
note_on channel=0 note=61 velocity=0 time=120
note_on channel=0 note=62 velocity=65 time=0
note_on channel=0 note=50 velocity=69 time=0
note_on channel=0 note=54 velocity=0 time=120
note_on channel=0 note=55 velocity=60 time=0
note_on channel=0 note=49 velocity=68 time=0
note_on channel=0 note=50 velocity=0 time=24
note_on channel=0 note=55 velocity=0 time=0
note_on channel=0 note=57 velocity=65 time=0
note_on channel=0 note=47 velocity=66 time=0
note_on channel=0 note=49 velocity=0 time=24
note_on channel=0 note=62 velocity=0 time=96
note_on channel=0 note=61 velocity=58 time=0
note_on channel=0 note=45 velocity=65 time=0
note_on channel=0 note=47 velocity=0 time=24
note_on channel=0 note=61 velocity=0 time=0
note_on channel=0 note=62 velocity=65 time=0
note_on channel=0 note=43 velocity=64 time=0
note_on channel=0 note=45 velocity=0 time=24
note_on channel=0 note=57 velocity=0 time=96
note_on channel=0 note=58 velocity=60 time=0
note_on channel=0 note=42 velocity=62 time=0
note_on channel=0 note=43 velocity=0 time=24
note_on channel=0 note=42 velocity=0 time=0
note_on channel=0 note=58 velocity=0 time=0
note_on channel=0 note=59 velocity=65 time=0
note_on channel=0 note=47 velocity=73 time=0
note_on channel=0 note=62 velocity=0 time=120
note_on channel=0 note=53 velocity=58 time=0
note_on channel=0 note=53 velocity=0 time=120
note_on channel=0 note=54 velocity=65 time=0
note_on channel=0 note=59 velocity=0 time=120
note_on channel=0 note=49 velocity=60 time=0
note_on channel=0 note=49 velocity=0 time=0
note_on channel=0 note=47 velocity=0 time=0
note_on channel=0 note=50 velocity=65 time=0
note_on channel=0 note=54 velocity=0 time=120
note_on channel=0 note=54 velocity=59 time=0
note_on channel=0 note=54 velocity=0 time=0
note_on channel=0 note=55 velocity=65 time=0
note_on channel=0 note=47 velocity=69 time=0
note_on channel=0 note=50 velocity=0 time=120
note_on channel=0 note=51 velocity=60 time=0
note_on channel=0 note=45 velocity=68 time=0
note_on channel=0 note=47 velocity=0 time=24
note_on channel=0 note=51 velocity=0 time=0
note_on channel=0 note=52 velocity=65 time=0
note_on channel=0 note=43 velocity=66 time=0
note_on channel=0 note=45 velocity=0 time=24
note_on channel=0 note=55 velocity=0 time=96
note_on channel=0 note=57 velocity=57 time=0
note_on channel=0 note=42 velocity=65 time=0
note_on channel=0 note=43 velocity=0 time=24
note_on channel=0 note=57 velocity=0 time=0
note_on channel=0 note=59 velocity=65 time=0
note_on channel=0 note=40 velocity=64 time=0
note_on channel=0 note=42 velocity=0 time=24
note_on channel=0 note=52 velocity=0 time=96
note_on channel=0 note=54 velocity=60 time=0
note_on channel=0 note=38 velocity=62 time=0
note_on channel=0 note=40 velocity=0 time=24
note_on channel=0 note=38 velocity=0 time=0
note_on channel=0 note=54 velocity=0 time=0
note_on channel=0 note=55 velocity=65 time=0
note_on channel=0 note=43 velocity=73 time=0
note_on channel=0 note=59 velocity=0 time=120
note_on channel=0 note=58 velocity=59 time=0
note_on channel=0 note=58 velocity=0 time=120
note_on channel=0 note=59 velocity=65 time=0
note_on channel=0 note=55 velocity=0 time=120
note_on channel=0 note=54 velocity=60 time=0
note_on channel=0 note=54 velocity=0 time=0
note_on channel=0 note=43 velocity=0 time=0
note_on channel=0 note=55 velocity=65 time=0
note_on channel=0 note=59 velocity=0 time=120
note_on channel=0 note=63 velocity=56 time=0
note_on channel=0 note=63 velocity=0 time=120
note_on channel=0 note=64 velocity=65 time=0
note_on channel=0 note=43 velocity=66 time=0
note_on channel=0 note=55 velocity=0 time=120
note_on channel=0 note=57 velocity=60 time=0
note_on channel=0 note=42 velocity=60 time=0
note_on channel=0 note=43 velocity=0 time=24
note_on channel=0 note=57 velocity=0 time=0
note_on channel=0 note=59 velocity=65 time=0
note_on channel=0 note=40 velocity=66 time=0
note_on channel=0 note=42 velocity=0 time=24
note_on channel=0 note=64 velocity=0 time=96
note_on channel=0 note=66 velocity=59 time=0
note_on channel=0 note=39 velocity=57 time=0
note_on channel=0 note=40 velocity=0 time=24
note_on channel=0 note=66 velocity=0 time=96
note_on channel=0 note=67 velocity=65 time=0
note_on channel=0 note=40 velocity=57 time=0
note_on channel=0 note=39 velocity=0 time=24
note_on channel=0 note=59 velocity=0 time=0
note_on channel=0 note=58 velocity=60 time=0
note_on channel=0 note=38 velocity=57 time=0
note_on channel=0 note=40 velocity=0 time=24
note_on channel=0 note=58 velocity=0 time=0
note_on channel=0 note=57 velocity=60 time=0
note_on channel=0 note=37 velocity=66 time=0
note_on channel=0 note=38 velocity=0 time=24
note_on channel=0 note=38 velocity=58 time=96
note_on channel=0 note=37 velocity=0 time=24
note_on channel=0 note=67 velocity=0 time=0
note_on channel=0 note=68 velocity=72 time=0
note_on channel=0 note=37 velocity=58 time=0
note_on channel=0 note=38 velocity=0 time=24
note_on channel=0 note=35 velocity=58 time=96
note_on channel=0 note=37 velocity=0 time=24
note_on channel=0 note=57 velocity=0 time=0
note_on channel=0 note=68 velocity=0 time=0
note_on channel=0 note=69 velocity=78 time=0
note_on channel=0 note=33 velocity=66 time=0
note_on channel=0 note=35 velocity=0 time=24
note_on channel=0 note=35 velocity=61 time=96
note_on channel=0 note=33 velocity=0 time=24
note_on channel=0 note=64 velocity=67 time=96
note_on channel=0 note=37 velocity=61 time=0
note_on channel=0 note=35 velocity=0 time=24
note_on channel=0 note=38 velocity=61 time=96
note_on channel=0 note=37 velocity=0 time=24
note_on channel=0 note=64 velocity=0 time=0
note_on channel=0 note=61 velocity=73 time=0
note_on channel=0 note=39 velocity=66 time=0
note_on channel=0 note=38 velocity=0 time=24
note_on channel=0 note=40 velocity=58 time=0
note_on channel=0 note=39 velocity=0 time=24
note_on channel=0 note=69 velocity=0 time=96
note_on channel=0 note=61 velocity=0 time=0
note_on channel=0 note=57 velocity=65 time=0
note_on channel=0 note=67 velocity=65 time=0
note_on channel=0 note=42 velocity=58 time=0
note_on channel=0 note=40 velocity=0 time=24
note_on channel=0 note=40 velocity=58 time=96
note_on channel=0 note=42 velocity=0 time=24
note_on channel=0 note=67 velocity=0 time=0
note_on channel=0 note=66 velocity=73 time=0
note_on channel=0 note=38 velocity=66 time=0
note_on channel=0 note=40 velocity=0 time=24
note_on channel=0 note=40 velocity=58 time=96
note_on channel=0 note=38 velocity=0 time=24
note_on channel=0 note=57 velocity=0 time=96
note_on channel=0 note=58 velocity=65 time=0
note_on channel=0 note=38 velocity=58 time=0
note_on channel=0 note=40 velocity=0 time=24
note_on channel=0 note=37 velocity=58 time=96
note_on channel=0 note=38 velocity=0 time=24
note_on channel=0 note=66 velocity=0 time=96
note_on channel=0 note=58 velocity=0 time=0
note_on channel=0 note=59 velocity=65 time=0
note_on channel=0 note=35 velocity=66 time=0
note_on channel=0 note=37 velocity=0 time=24
note_on channel=0 note=37 velocity=61 time=96
note_on channel=0 note=35 velocity=0 time=24
note_on channel=0 note=66 velocity=66 time=96
note_on channel=0 note=38 velocity=61 time=0
note_on channel=0 note=37 velocity=0 time=24
note_on channel=0 note=40 velocity=61 time=96
note_on channel=0 note=38 velocity=0 time=24
note_on channel=0 note=66 velocity=0 time=96
note_on channel=0 note=63 velocity=71 time=0
note_on channel=0 note=41 velocity=66 time=0
note_on channel=0 note=40 velocity=0 time=24
note_on channel=0 note=42 velocity=58 time=96
note_on channel=0 note=41 velocity=0 time=24
note_on channel=0 note=59 velocity=0 time=96
note_on channel=0 note=63 velocity=0 time=0
note_on channel=0 note=57 velocity=65 time=0
note_on channel=0 note=59 velocity=67 time=0
note_on channel=0 note=43 velocity=58 time=0
note_on channel=0 note=42 velocity=0 time=24
note_on channel=0 note=42 velocity=58 time=96
note_on channel=0 note=43 velocity=0 time=24
note_on channel=0 note=57 velocity=0 time=0
note_on channel=0 note=55 velocity=65 time=0
note_on channel=0 note=40 velocity=66 time=0
note_on channel=0 note=42 velocity=0 time=24
note_on channel=0 note=41 velocity=58 time=96
note_on channel=0 note=40 velocity=0 time=24
note_on channel=0 note=59 velocity=0 time=0
note_on channel=0 note=55 velocity=0 time=0
note_on channel=0 note=71 velocity=82 time=0
note_on channel=0 note=40 velocity=58 time=0
note_on channel=0 note=41 velocity=0 time=24
note_on channel=0 note=38 velocity=58 time=96
note_on channel=0 note=40 velocity=0 time=24
note_on channel=0 note=71 velocity=0 time=0
note_on channel=0 note=72 velocity=86 time=0
note_on channel=0 note=36 velocity=66 time=0
note_on channel=0 note=38 velocity=0 time=24
note_on channel=0 note=38 velocity=61 time=96
note_on channel=0 note=36 velocity=0 time=24
note_on channel=0 note=67 velocity=69 time=96
note_on channel=0 note=40 velocity=61 time=0
note_on channel=0 note=38 velocity=0 time=24
note_on channel=0 note=41 velocity=61 time=96
note_on channel=0 note=40 velocity=0 time=24
note_on channel=0 note=67 velocity=0 time=96
note_on channel=0 note=64 velocity=75 time=0
note_on channel=0 note=42 velocity=66 time=0
note_on channel=0 note=41 velocity=0 time=24
note_on channel=0 note=43 velocity=58 time=96
note_on channel=0 note=42 velocity=0 time=24
note_on channel=0 note=72 velocity=0 time=96
note_on channel=0 note=64 velocity=0 time=0
note_on channel=0 note=60 velocity=65 time=0
note_on channel=0 note=71 velocity=70 time=0
note_on channel=0 note=45 velocity=58 time=0
note_on channel=0 note=43 velocity=0 time=24
note_on channel=0 note=43 velocity=58 time=96
note_on channel=0 note=45 velocity=0 time=24
note_on channel=0 note=71 velocity=0 time=96
note_on channel=0 note=69 velocity=76 time=0
note_on channel=0 note=42 velocity=66 time=0
note_on channel=0 note=43 velocity=0 time=24
note_on channel=0 note=43 velocity=58 time=96
note_on channel=0 note=42 velocity=0 time=24
note_on channel=0 note=60 velocity=0 time=96
note_on channel=0 note=69 velocity=0 time=0
note_on channel=0 note=61 velocity=75 time=0
note_on channel=0 note=42 velocity=58 time=0
note_on channel=0 note=43 velocity=0 time=24
note_on channel=0 note=40 velocity=58 time=0
note_on channel=0 note=42 velocity=0 time=24
note_on channel=0 note=61 velocity=0 time=96
note_on channel=0 note=62 velocity=75 time=0
note_on channel=0 note=38 velocity=66 time=0
note_on channel=0 note=40 velocity=0 time=24
note_on channel=0 note=40 velocity=61 time=96
note_on channel=0 note=38 velocity=0 time=24
note_on channel=0 note=69 velocity=69 time=0
note_on channel=0 note=42 velocity=61 time=0
note_on channel=0 note=40 velocity=0 time=24
note_on channel=0 note=43 velocity=61 time=96
note_on channel=0 note=42 velocity=0 time=24
note_on channel=0 note=69 velocity=0 time=0
note_on channel=0 note=66 velocity=74 time=0
note_on channel=0 note=44 velocity=66 time=0
note_on channel=0 note=43 velocity=0 time=24
note_on channel=0 note=45 velocity=58 time=96
note_on channel=0 note=44 velocity=0 time=24
note_on channel=0 note=62 velocity=0 time=96
note_on channel=0 note=66 velocity=0 time=0
note_on channel=0 note=60 velocity=69 time=0
note_on channel=0 note=62 velocity=69 time=0
note_on channel=0 note=47 velocity=58 time=0
note_on channel=0 note=45 velocity=0 time=24
note_on channel=0 note=45 velocity=58 time=96
note_on channel=0 note=47 velocity=0 time=24
note_on channel=0 note=60 velocity=0 time=0
note_on channel=0 note=45 velocity=0 time=0
note_on channel=0 note=59 velocity=63 time=0
note_on channel=0 note=43 velocity=58 time=0
note_on channel=0 note=59 velocity=0 time=120
note_on channel=0 note=60 velocity=62 time=0
note_on channel=0 note=43 velocity=0 time=0
note_on channel=0 note=62 velocity=0 time=0
note_on channel=0 note=74 velocity=72 time=0
note_on channel=0 note=59 velocity=54 time=0
note_on channel=0 note=60 velocity=0 time=24
note_on channel=0 note=72 velocity=69 time=96
note_on channel=0 note=57 velocity=54 time=0
note_on channel=0 note=59 velocity=0 time=24
note_on channel=0 note=74 velocity=0 time=0
note_on channel=0 note=71 velocity=72 time=96
note_on channel=0 note=55 velocity=64 time=0
note_on channel=0 note=72 velocity=0 time=24
note_on channel=0 note=57 velocity=0 time=0
note_on channel=0 note=57 velocity=57 time=96
note_on channel=0 note=55 velocity=0 time=120
note_on channel=0 note=53 velocity=57 time=0
note_on channel=0 note=59 velocity=57 time=0
note_on channel=0 note=57 velocity=0 time=24
note_on channel=0 note=60 velocity=57 time=96
note_on channel=0 note=59 velocity=0 time=24
note_on channel=0 note=53 velocity=0 time=0
note_on channel=0 note=61 velocity=64 time=0
note_on channel=0 note=52 velocity=64 time=0
note_on channel=0 note=60 velocity=0 time=24
note_on channel=0 note=62 velocity=57 time=96
note_on channel=0 note=61 velocity=0 time=24
note_on channel=0 note=52 velocity=0 time=0
note_on channel=0 note=71 velocity=0 time=0
note_on channel=0 note=76 velocity=69 time=0
note_on channel=0 note=56 velocity=57 time=0
note_on channel=0 note=62 velocity=0 time=24
note_on channel=0 note=62 velocity=57 time=96
note_on channel=0 note=56 velocity=0 time=24
note_on channel=0 note=62 velocity=0 time=0
note_on channel=0 note=56 velocity=53 time=0
note_on channel=0 note=60 velocity=49 time=0
note_on channel=0 note=60 velocity=0 time=120
note_on channel=0 note=62 velocity=44 time=0
note_on channel=0 note=62 velocity=0 time=0
note_on channel=0 note=76 velocity=0 time=0
note_on channel=0 note=76 velocity=69 time=0
note_on channel=0 note=60 velocity=49 time=0
note_on channel=0 note=60 velocity=0 time=63
note_on channel=0 note=76 velocity=0 time=0
note_on channel=0 note=74 velocity=65 time=0
note_on channel=0 note=59 velocity=44 time=0
note_on channel=0 note=59 velocity=0 time=120
note_on channel=0 note=74 velocity=0 time=0
note_on channel=0 note=56 velocity=0 time=0
note_on channel=0 note=72 velocity=74 time=0
note_on channel=0 note=57 velocity=48 time=0
note_on channel=0 note=59 velocity=44 time=34
note_on channel=0 note=59 velocity=0 time=120
note_on channel=0 note=57 velocity=0 time=0
note_on channel=0 note=60 velocity=49 time=0
note_on channel=0 note=55 velocity=48 time=0
note_on channel=0 note=60 velocity=0 time=34
note_on channel=0 note=62 velocity=44 time=0
note_on channel=0 note=62 velocity=0 time=0
note_on channel=0 note=55 velocity=0 time=0
note_on channel=0 note=72 velocity=0 time=0
note_on channel=0 note=73 velocity=69 time=0
note_on channel=0 note=63 velocity=49 time=0
note_on channel=0 note=54 velocity=55 time=0
note_on channel=0 note=63 velocity=0 time=40
note_on channel=0 note=64 velocity=45 time=0
note_on channel=0 note=64 velocity=0 time=0
note_on channel=0 note=54 velocity=0 time=0
note_on channel=0 note=73 velocity=0 time=0
note_on channel=0 note=78 velocity=75 time=0
note_on channel=0 note=58 velocity=49 time=0
note_on channel=0 note=58 velocity=0 time=120
note_on channel=0 note=64 velocity=46 time=0
note_on channel=0 note=64 velocity=0 time=120
note_on channel=0 note=62 velocity=49 time=0
note_on channel=0 note=58 velocity=51 time=0
note_on channel=0 note=62 velocity=0 time=28
note_on channel=0 note=64 velocity=45 time=0
note_on channel=0 note=64 velocity=0 time=120
note_on channel=0 note=78 velocity=0 time=0
note_on channel=0 note=78 velocity=70 time=0
note_on channel=0 note=62 velocity=49 time=0
note_on channel=0 note=62 velocity=0 time=40
note_on channel=0 note=78 velocity=0 time=0
note_on channel=0 note=76 velocity=65 time=0
note_on channel=0 note=61 velocity=43 time=0
note_on channel=0 note=61 velocity=0 time=120
note_on channel=0 note=76 velocity=0 time=0
note_on channel=0 note=58 velocity=0 time=0
note_on channel=0 note=74 velocity=76 time=0
note_on channel=0 note=59 velocity=48 time=0
note_on channel=0 note=61 velocity=42 time=17
note_on channel=0 note=61 velocity=0 time=120
note_on channel=0 note=59 velocity=0 time=0
note_on channel=0 note=57 velocity=48 time=0
note_on channel=0 note=62 velocity=49 time=0
note_on channel=0 note=62 velocity=0 time=40
note_on channel=0 note=64 velocity=45 time=0
note_on channel=0 note=64 velocity=0 time=120
note_on channel=0 note=57 velocity=0 time=0
note_on channel=0 note=65 velocity=49 time=0
note_on channel=0 note=55 velocity=55 time=0
note_on channel=0 note=65 velocity=0 time=11
note_on channel=0 note=66 velocity=45 time=0
note_on channel=0 note=66 velocity=0 time=0
note_on channel=0 note=55 velocity=0 time=0
note_on channel=0 note=74 velocity=0 time=0
note_on channel=0 note=71 velocity=69 time=0
note_on channel=0 note=67 velocity=49 time=0
note_on channel=0 note=67 velocity=0 time=57
note_on channel=0 note=71 velocity=0 time=0
note_on channel=0 note=79 velocity=75 time=0
note_on channel=0 note=65 velocity=45 time=0
note_on channel=0 note=65 velocity=0 time=0
note_on channel=0 note=64 velocity=49 time=0
note_on channel=0 note=59 velocity=53 time=0
note_on channel=0 note=64 velocity=0 time=28
note_on channel=0 note=65 velocity=45 time=0
note_on channel=0 note=65 velocity=0 time=120
note_on channel=0 note=79 velocity=0 time=0
note_on channel=0 note=79 velocity=69 time=0
note_on channel=0 note=64 velocity=49 time=0
note_on channel=0 note=64 velocity=0 time=45
note_on channel=0 note=79 velocity=0 time=0
note_on channel=0 note=77 velocity=69 time=0
note_on channel=0 note=62 velocity=45 time=0
note_on channel=0 note=62 velocity=0 time=120
note_on channel=0 note=77 velocity=0 time=0
note_on channel=0 note=59 velocity=0 time=0
note_on channel=0 note=76 velocity=76 time=0
note_on channel=0 note=60 velocity=48 time=0
note_on channel=0 note=62 velocity=49 time=34
note_on channel=0 note=62 velocity=0 time=120
note_on channel=0 note=60 velocity=0 time=0
note_on channel=0 note=76 velocity=0 time=0
note_on channel=0 note=79 velocity=78 time=0
note_on channel=0 note=64 velocity=49 time=0
note_on channel=0 note=59 velocity=50 time=0
note_on channel=0 note=64 velocity=0 time=51
note_on channel=0 note=62 velocity=47 time=0
note_on channel=0 note=62 velocity=0 time=120
note_on channel=0 note=59 velocity=0 time=0
note_on channel=0 note=79 velocity=0 time=0
note_on channel=0 note=78 velocity=81 time=0
note_on channel=0 note=57 velocity=51 time=0
note_on channel=0 note=60 velocity=49 time=0
note_on channel=0 note=60 velocity=0 time=23
note_on channel=0 note=62 velocity=47 time=0
note_on channel=0 note=62 velocity=0 time=0
note_on channel=0 note=57 velocity=0 time=0
note_on channel=0 note=78 velocity=0 time=0
note_on channel=0 note=79 velocity=84 time=0
note_on channel=0 note=60 velocity=49 time=0
note_on channel=0 note=55 velocity=52 time=0
note_on channel=0 note=60 velocity=0 time=23
note_on channel=0 note=59 velocity=48 time=0
note_on channel=0 note=59 velocity=0 time=0
note_on channel=0 note=55 velocity=0 time=0
note_on channel=0 note=79 velocity=0 time=0
note_on channel=0 note=84 velocity=86 time=0
note_on channel=0 note=57 velocity=49 time=0
note_on channel=0 note=54 velocity=54 time=0
note_on channel=0 note=57 velocity=0 time=70
note_on channel=0 note=59 velocity=49 time=0
note_on channel=0 note=59 velocity=0 time=120
note_on channel=0 note=54 velocity=0 time=0
note_on channel=0 note=84 velocity=0 time=0
note_on channel=0 note=52 velocity=56 time=0
note_on channel=0 note=57 velocity=49 time=0
note_on channel=0 note=57 velocity=0 time=32
note_on channel=0 note=55 velocity=50 time=0
note_on channel=0 note=55 velocity=0 time=17
note_on channel=0 note=52 velocity=0 time=0
note_on channel=0 note=69 velocity=69 time=0
note_on channel=0 note=54 velocity=57 time=0
note_on channel=0 note=51 velocity=49 time=0
note_on channel=0 note=69 velocity=0 time=16
note_on channel=0 note=71 velocity=63 time=0
note_on channel=0 note=51 velocity=0 time=17
note_on channel=0 note=50 velocity=49 time=0
note_on channel=0 note=71 velocity=0 time=9
note_on channel=0 note=69 velocity=69 time=0
note_on channel=0 note=69 velocity=0 time=17
note_on channel=0 note=50 velocity=0 time=0
note_on channel=0 note=71 velocity=64 time=0
note_on channel=0 note=48 velocity=54 time=0
note_on channel=0 note=71 velocity=0 time=1
note_on channel=0 note=69 velocity=69 time=0
note_on channel=0 note=48 velocity=0 time=40
note_on channel=0 note=50 velocity=49 time=0
note_on channel=0 note=69 velocity=0 time=33
note_on channel=0 note=71 velocity=63 time=0
note_on channel=0 note=71 velocity=0 time=65
note_on channel=0 note=50 velocity=0 time=0
note_on channel=0 note=54 velocity=0 time=0
note_on channel=0 note=69 velocity=69 time=0
note_on channel=0 note=66 velocity=69 time=0
note_on channel=0 note=51 velocity=53 time=0
note_on channel=0 note=69 velocity=0 time=23
note_on channel=0 note=71 velocity=64 time=0
note_on channel=0 note=51 velocity=0 time=17
note_on channel=0 note=50 velocity=49 time=0
note_on channel=0 note=71 velocity=0 time=9
note_on channel=0 note=69 velocity=69 time=0
note_on channel=0 note=69 velocity=0 time=17
note_on channel=0 note=50 velocity=0 time=0
note_on channel=0 note=71 velocity=64 time=0
note_on channel=0 note=51 velocity=53 time=0
note_on channel=0 note=71 velocity=0 time=25
note_on channel=0 note=69 velocity=69 time=0
note_on channel=0 note=51 velocity=0 time=40
note_on channel=0 note=48 velocity=49 time=0
note_on channel=0 note=69 velocity=0 time=40
note_on channel=0 note=71 velocity=63 time=0
note_on channel=0 note=71 velocity=0 time=0
note_on channel=0 note=48 velocity=0 time=0
note_on channel=0 note=66 velocity=0 time=0
note_on channel=0 note=67 velocity=69 time=0
note_on channel=0 note=59 velocity=65 time=240
note_on channel=0 note=59 velocity=0 time=120
note_on channel=0 note=67 velocity=0 time=0
note_on channel=0 note=47 velocity=73 time=0
note_on channel=0 note=67 velocity=69 time=240
note_on channel=0 note=57 velocity=57 time=0
note_on channel=0 note=67 velocity=0 time=56
note_on channel=0 note=69 velocity=62 time=0
note_on channel=0 note=69 velocity=0 time=120
note_on channel=0 note=57 velocity=0 time=0
note_on channel=0 note=71 velocity=69 time=0
note_on channel=0 note=55 velocity=63 time=0
note_on channel=0 note=71 velocity=0 time=7
note_on channel=0 note=72 velocity=65 time=0
note_on channel=0 note=72 velocity=0 time=120
note_on channel=0 note=47 velocity=0 time=0
note_on channel=0 note=74 velocity=65 time=0
note_on channel=0 note=74 velocity=0 time=120
note_on channel=0 note=76 velocity=65 time=0
note_on channel=0 note=76 velocity=0 time=0
note_on channel=0 note=55 velocity=0 time=0
note_on channel=0 note=71 velocity=75 time=0
note_on channel=0 note=55 velocity=64 time=240
note_on channel=0 note=55 velocity=0 time=120
note_on channel=0 note=71 velocity=0 time=0
note_on channel=0 note=43 velocity=69 time=0
note_on channel=0 note=71 velocity=69 time=240
note_on channel=0 note=54 velocity=53 time=0
note_on channel=0 note=71 velocity=0 time=21
note_on channel=0 note=72 velocity=63 time=0
note_on channel=0 note=72 velocity=0 time=120
note_on channel=0 note=54 velocity=0 time=0
note_on channel=0 note=74 velocity=69 time=0
note_on channel=0 note=52 velocity=61 time=0
note_on channel=0 note=74 velocity=0 time=28
note_on channel=0 note=76 velocity=69 time=0
note_on channel=0 note=76 velocity=0 time=120
note_on channel=0 note=52 velocity=0 time=0
note_on channel=0 note=43 velocity=0 time=0
note_on channel=0 note=78 velocity=63 time=0
note_on channel=0 note=50 velocity=53 time=0
note_on channel=0 note=47 velocity=53 time=0
note_on channel=0 note=78 velocity=0 time=120
note_on channel=0 note=79 velocity=63 time=0
note_on channel=0 note=79 velocity=0 time=0
note_on channel=0 note=47 velocity=0 time=0
note_on channel=0 note=50 velocity=0 time=0
note_on channel=0 note=74 velocity=75 time=0
note_on channel=0 note=45 velocity=53 time=0
note_on channel=0 note=48 velocity=53 time=0
note_on channel=0 note=48 velocity=0 time=197
note_on channel=0 note=45 velocity=0 time=0
note_on channel=0 note=60 velocity=65 time=0
note_on channel=0 note=60 velocity=0 time=0
note_on channel=0 note=74 velocity=0 time=0
note_on channel=0 note=48 velocity=53 time=0
note_on channel=0 note=52 velocity=53 time=0
note_on channel=0 note=52 velocity=0 time=240
note_on channel=0 note=48 velocity=0 time=0
note_on channel=0 note=74 velocity=69 time=0
note_on channel=0 note=50 velocity=50 time=0
note_on channel=0 note=47 velocity=50 time=0
note_on channel=0 note=74 velocity=0 time=35
note_on channel=0 note=76 velocity=63 time=0
note_on channel=0 note=76 velocity=0 time=120
note_on channel=0 note=47 velocity=0 time=0
note_on channel=0 note=50 velocity=0 time=0
note_on channel=0 note=78 velocity=69 time=0
note_on channel=0 note=45 velocity=53 time=0
note_on channel=0 note=48 velocity=53 time=0
note_on channel=0 note=78 velocity=0 time=108
note_on channel=0 note=76 velocity=65 time=0
note_on channel=0 note=76 velocity=0 time=113
note_on channel=0 note=48 velocity=0 time=0
note_on channel=0 note=45 velocity=0 time=0
note_on channel=0 note=78 velocity=65 time=0
note_on channel=0 note=43 velocity=50 time=0
note_on channel=0 note=47 velocity=50 time=0
note_on channel=0 note=78 velocity=0 time=0
note_on channel=0 note=79 velocity=65 time=0
note_on channel=0 note=79 velocity=0 time=0
note_on channel=0 note=47 velocity=0 time=0
note_on channel=0 note=43 velocity=0 time=0
note_on channel=0 note=81 velocity=69 time=0
note_on channel=0 note=42 velocity=59 time=0
note_on channel=0 note=45 velocity=59 time=0
note_on channel=0 note=81 velocity=0 time=68
note_on channel=0 note=80 velocity=65 time=0
note_on channel=0 note=80 velocity=0 time=120
note_on channel=0 note=42 velocity=0 time=0
note_on channel=0 note=81 velocity=69 time=0
note_on channel=0 note=51 velocity=53 time=0
note_on channel=0 note=81 velocity=0 time=0
note_on channel=0 note=83 velocity=69 time=0
note_on channel=0 note=83 velocity=0 time=0
note_on channel=0 note=51 velocity=0 time=0
note_on channel=0 note=45 velocity=0 time=0
note_on channel=0 note=84 velocity=79 time=0
note_on channel=0 note=50 velocity=63 time=0
note_on channel=0 note=84 velocity=0 time=40
note_on channel=0 note=83 velocity=71 time=0
note_on channel=0 note=83 velocity=0 time=120
note_on channel=0 note=81 velocity=70 time=0
note_on channel=0 note=52 velocity=53 time=0
note_on channel=0 note=81 velocity=0 time=57
note_on channel=0 note=79 velocity=67 time=0
note_on channel=0 note=79 velocity=0 time=120
note_on channel=0 note=52 velocity=0 time=0
note_on channel=0 note=78 velocity=70 time=0
note_on channel=0 note=54 velocity=53 time=0
note_on channel=0 note=78 velocity=0 time=45
note_on channel=0 note=75 velocity=67 time=0
note_on channel=0 note=75 velocity=0 time=120
note_on channel=0 note=54 velocity=0 time=0
note_on channel=0 note=74 velocity=67 time=0
note_on channel=0 note=55 velocity=53 time=0
note_on channel=0 note=74 velocity=0 time=0
note_on channel=0 note=76 velocity=67 time=0
note_on channel=0 note=76 velocity=0 time=0
note_on channel=0 note=55 velocity=0 time=0
note_on channel=0 note=78 velocity=75 time=0
note_on channel=0 note=57 velocity=53 time=0
note_on channel=0 note=78 velocity=0 time=63
note_on channel=0 note=76 velocity=73 time=0
note_on channel=0 note=76 velocity=0 time=120
note_on channel=0 note=57 velocity=0 time=0
note_on channel=0 note=74 velocity=71 time=0
note_on channel=0 note=59 velocity=56 time=0
note_on channel=0 note=74 velocity=0 time=40
note_on channel=0 note=72 velocity=69 time=0
note_on channel=0 note=72 velocity=0 time=120
note_on channel=0 note=59 velocity=0 time=0
note_on channel=0 note=71 velocity=69 time=0
note_on channel=0 note=60 velocity=60 time=0
note_on channel=0 note=71 velocity=0 time=45
note_on channel=0 note=69 velocity=64 time=0
note_on channel=0 note=69 velocity=0 time=120
note_on channel=0 note=60 velocity=0 time=0
note_on channel=0 note=50 velocity=0 time=0
note_on channel=0 note=67 velocity=64 time=0
note_on channel=0 note=50 velocity=53 time=0
note_on channel=0 note=59 velocity=53 time=0
note_on channel=0 note=67 velocity=0 time=45
note_on channel=0 note=69 velocity=64 time=0
note_on channel=0 note=69 velocity=0 time=120
note_on channel=0 note=59 velocity=0 time=0
note_on channel=0 note=50 velocity=0 time=0
note_on channel=0 note=71 velocity=64 time=0
note_on channel=0 note=57 velocity=53 time=0
note_on channel=0 note=48 velocity=53 time=0
note_on channel=0 note=71 velocity=0 time=45
note_on channel=0 note=72 velocity=66 time=0
note_on channel=0 note=72 velocity=0 time=0
note_on channel=0 note=48 velocity=0 time=0
note_on channel=0 note=57 velocity=0 time=0
note_on channel=0 note=74 velocity=68 time=0
note_on channel=0 note=55 velocity=49 time=0
note_on channel=0 note=47 velocity=49 time=0
note_on channel=0 note=74 velocity=0 time=0
note_on channel=0 note=75 velocity=70 time=0
note_on channel=0 note=75 velocity=0 time=0
note_on channel=0 note=47 velocity=0 time=0
note_on channel=0 note=76 velocity=72 time=0
note_on channel=0 note=48 velocity=53 time=0
note_on channel=0 note=76 velocity=0 time=0
note_on channel=0 note=79 velocity=66 time=0
note_on channel=0 note=79 velocity=0 time=120
note_on channel=0 note=55 velocity=0 time=0
note_on channel=0 note=78 velocity=69 time=0
note_on channel=0 note=60 velocity=53 time=0
note_on channel=0 note=78 velocity=0 time=21
note_on channel=0 note=76 velocity=66 time=0
note_on channel=0 note=76 velocity=0 time=0
note_on channel=0 note=48 velocity=0 time=0
note_on channel=0 note=74 velocity=69 time=0
note_on channel=0 note=50 velocity=58 time=0
note_on channel=0 note=74 velocity=0 time=42
note_on channel=0 note=79 velocity=64 time=0
note_on channel=0 note=79 velocity=0 time=120
note_on channel=0 note=60 velocity=0 time=0
note_on channel=0 note=78 velocity=67 time=0
note_on channel=0 note=59 velocity=53 time=0
note_on channel=0 note=78 velocity=0 time=0
note_on channel=0 note=79 velocity=63 time=0
note_on channel=0 note=79 velocity=0 time=0
note_on channel=0 note=59 velocity=0 time=0
note_on channel=0 note=50 velocity=0 time=0
note_on channel=0 note=73 velocity=69 time=0
note_on channel=0 note=58 velocity=64 time=0
note_on channel=0 note=52 velocity=64 time=0
note_on channel=0 note=58 velocity=0 time=107
note_on channel=0 note=67 velocity=55 time=0
note_on channel=0 note=67 velocity=0 time=120
note_on channel=0 note=66 velocity=56 time=0
note_on channel=0 note=66 velocity=0 time=120
note_on channel=0 note=67 velocity=56 time=0
note_on channel=0 note=67 velocity=0 time=0
note_on channel=0 note=52 velocity=0 time=0
note_on channel=0 note=73 velocity=0 time=0
note_on channel=0 note=69 velocity=63 time=0
note_on channel=0 note=72 velocity=75 time=0
note_on channel=0 note=54 velocity=61 time=0
note_on channel=0 note=57 velocity=56 time=93
note_on channel=0 note=54 velocity=0 time=24
note_on channel=0 note=69 velocity=0 time=0
note_on channel=0 note=63 velocity=68 time=0
note_on channel=0 note=55 velocity=56 time=0
note_on channel=0 note=57 velocity=0 time=24
note_on channel=0 note=54 velocity=56 time=96
note_on channel=0 note=55 velocity=0 time=24
note_on channel=0 note=63 velocity=0 time=96
note_on channel=0 note=66 velocity=68 time=0
note_on channel=0 note=52 velocity=60 time=0
note_on channel=0 note=54 velocity=0 time=24
note_on channel=0 note=50 velocity=55 time=96
note_on channel=0 note=52 velocity=0 time=24
note_on channel=0 note=66 velocity=0 time=96
note_on channel=0 note=69 velocity=68 time=0
note_on channel=0 note=52 velocity=55 time=0
note_on channel=0 note=50 velocity=0 time=24
note_on channel=0 note=54 velocity=55 time=96
note_on channel=0 note=52 velocity=0 time=24
note_on channel=0 note=72 velocity=0 time=0
note_on channel=0 note=71 velocity=75 time=0
note_on channel=0 note=55 velocity=61 time=0
note_on channel=0 note=54 velocity=0 time=24
note_on channel=0 note=50 velocity=55 time=96
note_on channel=0 note=55 velocity=0 time=24
note_on channel=0 note=69 velocity=0 time=0
note_on channel=0 note=67 velocity=69 time=0
note_on channel=0 note=55 velocity=55 time=0
note_on channel=0 note=50 velocity=0 time=24
note_on channel=0 note=54 velocity=55 time=96
note_on channel=0 note=55 velocity=0 time=24
note_on channel=0 note=71 velocity=0 time=0
note_on channel=0 note=67 velocity=0 time=0
note_on channel=0 note=73 velocity=73 time=0
note_on channel=0 note=52 velocity=60 time=0
note_on channel=0 note=54 velocity=0 time=24
note_on channel=0 note=54 velocity=53 time=96
note_on channel=0 note=52 velocity=0 time=24
note_on channel=0 note=73 velocity=0 time=96
note_on channel=0 note=74 velocity=76 time=0
note_on channel=0 note=52 velocity=53 time=0
note_on channel=0 note=54 velocity=0 time=24
note_on channel=0 note=50 velocity=53 time=96
note_on channel=0 note=52 velocity=0 time=24
note_on channel=0 note=74 velocity=0 time=0
note_on channel=0 note=67 velocity=66 time=0
note_on channel=0 note=76 velocity=78 time=0
note_on channel=0 note=49 velocity=60 time=0
note_on channel=0 note=50 velocity=0 time=24
note_on channel=0 note=50 velocity=54 time=96
note_on channel=0 note=49 velocity=0 time=24
note_on channel=0 note=67 velocity=0 time=96
note_on channel=0 note=76 velocity=0 time=0
note_on channel=0 note=78 velocity=81 time=0
note_on channel=0 note=49 velocity=55 time=0
note_on channel=0 note=50 velocity=0 time=24
note_on channel=0 note=47 velocity=55 time=0
note_on channel=0 note=49 velocity=0 time=24
note_on channel=0 note=47 velocity=0 time=41
note_on channel=0 note=78 velocity=0 time=0
note_on channel=0 note=79 velocity=90 time=0
note_on channel=0 note=50 velocity=60 time=0
note_on channel=0 note=45 velocity=60 time=0
note_on channel=0 note=50 velocity=0 time=1
note_on channel=0 note=52 velocity=55 time=0
note_on channel=0 note=52 velocity=0 time=33
note_on channel=0 note=50 velocity=60 time=0
note_on channel=0 note=50 velocity=0 time=65
note_on channel=0 note=45 velocity=0 time=0
note_on channel=0 note=52 velocity=55 time=0
note_on channel=0 note=44 velocity=55 time=0
note_on channel=0 note=52 velocity=0 time=25
note_on channel=0 note=50 velocity=60 time=0
note_on channel=0 note=50 velocity=0 time=9
note_on channel=0 note=52 velocity=54 time=0
note_on channel=0 note=52 velocity=0 time=41
note_on channel=0 note=44 velocity=0 time=0
note_on channel=0 note=50 velocity=60 time=0
note_on channel=0 note=45 velocity=63 time=0
note_on channel=0 note=50 velocity=0 time=25
note_on channel=0 note=52 velocity=56 time=0
note_on channel=0 note=52 velocity=0 time=33
note_on channel=0 note=50 velocity=60 time=0
note_on channel=0 note=50 velocity=0 time=41
note_on channel=0 note=79 velocity=0 time=0
note_on channel=0 note=78 velocity=80 time=0
note_on channel=0 note=52 velocity=60 time=0
note_on channel=0 note=52 velocity=0 time=17
note_on channel=0 note=50 velocity=55 time=0
note_on channel=0 note=50 velocity=0 time=17
note_on channel=0 note=49 velocity=55 time=0
note_on channel=0 note=49 velocity=0 time=5
note_on channel=0 note=50 velocity=55 time=0
note_on channel=0 note=50 velocity=0 time=0
note_on channel=0 note=78 velocity=0 time=0
note_on channel=0 note=76 velocity=85 time=0
note_on channel=0 note=49 velocity=60 time=0
note_on channel=0 note=76 velocity=0 time=0
note_on channel=0 note=79 velocity=80 time=0
note_on channel=0 note=79 velocity=0 time=0
note_on channel=0 note=78 velocity=69 time=0
note_on channel=0 note=78 velocity=0 time=0
note_on channel=0 note=49 velocity=0 time=0
note_on channel=0 note=45 velocity=0 time=0
note_on channel=0 note=66 velocity=79 time=0
note_on channel=0 note=50 velocity=61 time=226
note_on channel=0 note=47 velocity=61 time=0
note_on channel=0 note=50 velocity=0 time=103
note_on channel=0 note=52 velocity=56 time=0
note_on channel=0 note=52 velocity=0 time=120
note_on channel=0 note=47 velocity=0 time=0
note_on channel=0 note=66 velocity=0 time=0
note_on channel=0 note=45 velocity=60 time=0
note_on channel=0 note=54 velocity=60 time=0
note_on channel=0 note=54 velocity=0 time=41
note_on channel=0 note=55 velocity=62 time=0
note_on channel=0 note=55 velocity=0 time=17
note_on channel=0 note=57 velocity=64 time=0
note_on channel=0 note=57 velocity=0 time=17
note_on channel=0 note=59 velocity=66 time=0
note_on channel=0 note=59 velocity=0 time=0
note_on channel=0 note=45 velocity=0 time=0
note_on channel=0 note=54 velocity=66 time=0
note_on channel=0 note=76 velocity=80 time=0
note_on channel=0 note=76 velocity=0 time=0
note_on channel=0 note=74 velocity=69 time=0
note_on channel=0 note=74 velocity=0 time=0
note_on channel=0 note=54 velocity=0 time=0
note_on channel=0 note=62 velocity=79 time=0
note_on channel=0 note=43 velocity=61 time=0
note_on channel=0 note=54 velocity=61 time=0
note_on channel=0 note=54 velocity=0 time=103
note_on channel=0 note=55 velocity=56 time=0
note_on channel=0 note=55 velocity=0 time=120
note_on channel=0 note=43 velocity=0 time=0
note_on channel=0 note=62 velocity=0 time=0
note_on channel=0 note=54 velocity=60 time=0
note_on channel=0 note=57 velocity=60 time=0
note_on channel=0 note=57 velocity=0 time=41
note_on channel=0 note=59 velocity=62 time=0
note_on channel=0 note=59 velocity=0 time=17
note_on channel=0 note=61 velocity=64 time=0
note_on channel=0 note=61 velocity=0 time=17
note_on channel=0 note=62 velocity=66 time=0
note_on channel=0 note=62 velocity=0 time=0
note_on channel=0 note=54 velocity=0 time=0
note_on channel=0 note=57 velocity=66 time=0
note_on channel=0 note=83 velocity=80 time=0
note_on channel=0 note=83 velocity=0 time=0
note_on channel=0 note=81 velocity=69 time=0
note_on channel=0 note=81 velocity=0 time=0
note_on channel=0 note=57 velocity=0 time=0
note_on channel=0 note=78 velocity=70 time=0
note_on channel=0 note=78 velocity=0 time=113
note_on channel=0 note=74 velocity=64 time=0
note_on channel=0 note=74 velocity=0 time=120
note_on channel=0 note=73 velocity=64 time=0
note_on channel=0 note=50 velocity=53 time=0
note_on channel=0 note=57 velocity=53 time=0
note_on channel=0 note=57 velocity=0 time=120
note_on channel=0 note=73 velocity=0 time=0
note_on channel=0 note=71 velocity=64 time=0
note_on channel=0 note=59 velocity=47 time=0
note_on channel=0 note=59 velocity=0 time=120
note_on channel=0 note=71 velocity=0 time=0
note_on channel=0 note=50 velocity=0 time=0
note_on channel=0 note=70 velocity=73 time=0
note_on channel=0 note=61 velocity=62 time=0
note_on channel=0 note=52 velocity=53 time=0
note_on channel=0 note=52 velocity=0 time=120
note_on channel=0 note=61 velocity=0 time=0
note_on channel=0 note=60 velocity=62 time=0
note_on channel=0 note=51 velocity=47 time=0
note_on channel=0 note=51 velocity=0 time=120
note_on channel=0 note=60 velocity=0 time=0
note_on channel=0 note=61 velocity=62 time=0
note_on channel=0 note=52 velocity=47 time=0
note_on channel=0 note=52 velocity=0 time=0
note_on channel=0 note=61 velocity=0 time=0
note_on channel=0 note=63 velocity=62 time=0
note_on channel=0 note=54 velocity=47 time=0
note_on channel=0 note=54 velocity=0 time=0
note_on channel=0 note=63 velocity=0 time=0
note_on channel=0 note=70 velocity=0 time=0
note_on channel=0 note=69 velocity=69 time=0
note_on channel=0 note=64 velocity=58 time=0
note_on channel=0 note=55 velocity=53 time=0
note_on channel=0 note=55 velocity=0 time=45
note_on channel=0 note=64 velocity=0 time=0
note_on channel=0 note=63 velocity=60 time=0
note_on channel=0 note=54 velocity=47 time=0
note_on channel=0 note=54 velocity=0 time=120
note_on channel=0 note=63 velocity=0 time=0
note_on channel=0 note=64 velocity=60 time=0
note_on channel=0 note=55 velocity=47 time=0
note_on channel=0 note=55 velocity=0 time=51
note_on channel=0 note=64 velocity=0 time=0
note_on channel=0 note=66 velocity=60 time=0
note_on channel=0 note=57 velocity=47 time=0
note_on channel=0 note=57 velocity=0 time=120
note_on channel=0 note=66 velocity=0 time=0
note_on channel=0 note=67 velocity=68 time=0
note_on channel=0 note=59 velocity=53 time=0
note_on channel=0 note=59 velocity=0 time=57
note_on channel=0 note=67 velocity=0 time=0
note_on channel=0 note=66 velocity=61 time=0
note_on channel=0 note=57 velocity=47 time=0
note_on channel=0 note=57 velocity=0 time=120
note_on channel=0 note=66 velocity=0 time=0
note_on channel=0 note=69 velocity=0 time=0
note_on channel=0 note=71 velocity=69 time=0
note_on channel=0 note=64 velocity=58 time=0
note_on channel=0 note=55 velocity=47 time=0
note_on channel=0 note=55 velocity=0 time=0
note_on channel=0 note=64 velocity=0 time=0
note_on channel=0 note=71 velocity=0 time=0
note_on channel=0 note=62 velocity=62 time=0
note_on channel=0 note=56 velocity=47 time=0
note_on channel=0 note=56 velocity=0 time=0
note_on channel=0 note=62 velocity=0 time=0
note_on channel=0 note=73 velocity=74 time=0
note_on channel=0 note=45 velocity=47 time=0
note_on channel=0 note=57 velocity=47 time=0
note_on channel=0 note=57 velocity=0 time=57
note_on channel=0 note=73 velocity=0 time=0
note_on channel=0 note=72 velocity=63 time=0
note_on channel=0 note=56 velocity=42 time=0
note_on channel=0 note=56 velocity=0 time=120
note_on channel=0 note=72 velocity=0 time=0
note_on channel=0 note=45 velocity=0 time=0
note_on channel=0 note=73 velocity=63 time=0
note_on channel=0 note=57 velocity=46 time=0
note_on channel=0 note=57 velocity=0 time=120
note_on channel=0 note=73 velocity=0 time=0
note_on channel=0 note=74 velocity=63 time=0
note_on channel=0 note=59 velocity=49 time=0
note_on channel=0 note=59 velocity=0 time=120
note_on channel=0 note=74 velocity=0 time=0
note_on channel=0 note=76 velocity=68 time=0
note_on channel=0 note=61 velocity=53 time=0
note_on channel=0 note=76 velocity=0 time=51
note_on channel=0 note=75 velocity=67 time=0
note_on channel=0 note=75 velocity=0 time=0
note_on channel=0 note=61 velocity=0 time=0
note_on channel=0 note=76 velocity=68 time=0
note_on channel=0 note=49 velocity=47 time=0
note_on channel=0 note=45 velocity=47 time=0
note_on channel=0 note=49 velocity=0 time=0
note_on channel=0 note=76 velocity=0 time=0
note_on channel=0 note=78 velocity=70 time=0
note_on channel=0 note=50 velocity=41 time=0
note_on channel=0 note=50 velocity=0 time=0
note_on channel=0 note=78 velocity=0 time=0
note_on channel=0 note=79 velocity=71 time=0
note_on channel=0 note=52 velocity=52 time=0
note_on channel=0 note=79 velocity=0 time=40
note_on channel=0 note=78 velocity=68 time=0
note_on channel=0 note=78 velocity=0 time=120
note_on channel=0 note=45 velocity=0 time=0
note_on channel=0 note=76 velocity=64 time=0
note_on channel=0 note=47 velocity=40 time=0
note_on channel=0 note=76 velocity=0 time=11
note_on channel=0 note=74 velocity=64 time=0
note_on channel=0 note=74 velocity=0 time=120
note_on channel=0 note=47 velocity=0 time=0
note_on channel=0 note=73 velocity=68 time=0
note_on channel=0 note=49 velocity=53 time=0
note_on channel=0 note=73 velocity=0 time=40
note_on channel=0 note=70 velocity=60 time=0
note_on channel=0 note=70 velocity=0 time=0
note_on channel=0 note=49 velocity=0 time=0
note_on channel=0 note=52 velocity=0 time=0
note_on channel=0 note=69 velocity=60 time=0
note_on channel=0 note=54 velocity=47 time=0
note_on channel=0 note=50 velocity=47 time=0
note_on channel=0 note=54 velocity=0 time=0
note_on channel=0 note=69 velocity=0 time=0
note_on channel=0 note=71 velocity=60 time=0
note_on channel=0 note=55 velocity=42 time=0
note_on channel=0 note=55 velocity=0 time=0
note_on channel=0 note=71 velocity=0 time=0
note_on channel=0 note=72 velocity=68 time=0
note_on channel=0 note=57 velocity=47 time=0
note_on channel=0 note=57 velocity=0 time=40
note_on channel=0 note=72 velocity=0 time=0
note_on channel=0 note=71 velocity=62 time=0
note_on channel=0 note=55 velocity=41 time=0
note_on channel=0 note=55 velocity=0 time=120
note_on channel=0 note=71 velocity=0 time=0
note_on channel=0 note=69 velocity=62 time=0
note_on channel=0 note=54 velocity=41 time=0
note_on channel=0 note=54 velocity=0 time=120
note_on channel=0 note=69 velocity=0 time=0
note_on channel=0 note=67 velocity=62 time=0
note_on channel=0 note=52 velocity=41 time=0
note_on channel=0 note=52 velocity=0 time=17
note_on channel=0 note=67 velocity=0 time=0
note_on channel=0 note=50 velocity=0 time=0
note_on channel=0 note=66 velocity=68 time=0
note_on channel=0 note=50 velocity=47 time=0
note_on channel=0 note=50 velocity=0 time=17
note_on channel=0 note=66 velocity=0 time=0
note_on channel=0 note=67 velocity=64 time=0
note_on channel=0 note=52 velocity=43 time=0
note_on channel=0 note=52 velocity=0 time=17
note_on channel=0 note=67 velocity=0 time=0
note_on channel=0 note=69 velocity=64 time=0
note_on channel=0 note=54 velocity=43 time=0
note_on channel=0 note=54 velocity=0 time=17
note_on channel=0 note=69 velocity=0 time=0
note_on channel=0 note=71 velocity=64 time=0
note_on channel=0 note=55 velocity=43 time=0
note_on channel=0 note=55 velocity=0 time=41
note_on channel=0 note=71 velocity=0 time=0
note_on channel=0 note=72 velocity=77 time=0
note_on channel=0 note=57 velocity=43 time=0
note_on channel=0 note=72 velocity=0 time=25
note_on channel=0 note=74 velocity=69 time=0
note_on channel=0 note=57 velocity=0 time=17
note_on channel=0 note=59 velocity=39 time=0
note_on channel=0 note=74 velocity=0 time=9
note_on channel=0 note=72 velocity=74 time=0
note_on channel=0 note=72 velocity=0 time=17
note_on channel=0 note=59 velocity=0 time=0
note_on channel=0 note=74 velocity=68 time=0
note_on channel=0 note=60 velocity=43 time=0
note_on channel=0 note=74 velocity=0 time=25
note_on channel=0 note=72 velocity=71 time=0
note_on channel=0 note=60 velocity=0 time=17
note_on channel=0 note=62 velocity=39 time=0
note_on channel=0 note=72 velocity=0 time=9
note_on channel=0 note=74 velocity=66 time=0
note_on channel=0 note=74 velocity=0 time=17
note_on channel=0 note=62 velocity=0 time=0
note_on channel=0 note=72 velocity=70 time=0
note_on channel=0 note=64 velocity=49 time=0
note_on channel=0 note=72 velocity=0 time=1
note_on channel=0 note=74 velocity=62 time=0
note_on channel=0 note=64 velocity=0 time=17
note_on channel=0 note=62 velocity=43 time=0
note_on channel=0 note=74 velocity=0 time=33
note_on channel=0 note=72 velocity=69 time=0
note_on channel=0 note=72 velocity=0 time=41
note_on channel=0 note=62 velocity=0 time=0
note_on channel=0 note=74 velocity=63 time=0
note_on channel=0 note=64 velocity=57 time=0
note_on channel=0 note=50 velocity=43 time=0
note_on channel=0 note=74 velocity=0 time=1
note_on channel=0 note=72 velocity=68 time=0
note_on channel=0 note=64 velocity=0 time=17
note_on channel=0 note=66 velocity=43 time=0
note_on channel=0 note=72 velocity=0 time=9
note_on channel=0 note=74 velocity=67 time=0
note_on channel=0 note=74 velocity=0 time=65
note_on channel=0 note=66 velocity=0 time=0
note_on channel=0 note=50 velocity=0 time=0
note_on channel=0 note=67 velocity=64 time=0
note_on channel=0 note=71 velocity=64 time=0
note_on channel=0 note=55 velocity=46 time=0
note_on channel=0 note=55 velocity=0 time=35
note_on channel=0 note=59 velocity=40 time=0
note_on channel=0 note=59 velocity=0 time=120
note_on channel=0 note=55 velocity=46 time=0
note_on channel=0 note=55 velocity=0 time=0
note_on channel=0 note=52 velocity=43 time=0
note_on channel=0 note=52 velocity=0 time=0
note_on channel=0 note=71 velocity=0 time=0
note_on channel=0 note=67 velocity=0 time=0
note_on channel=0 note=69 velocity=77 time=0
note_on channel=0 note=54 velocity=43 time=0
note_on channel=0 note=69 velocity=0 time=25
note_on channel=0 note=71 velocity=69 time=0
note_on channel=0 note=54 velocity=0 time=17
note_on channel=0 note=52 velocity=39 time=0
note_on channel=0 note=71 velocity=0 time=9
note_on channel=0 note=69 velocity=74 time=0
note_on channel=0 note=69 velocity=0 time=17
note_on channel=0 note=52 velocity=0 time=0
note_on channel=0 note=71 velocity=68 time=0
note_on channel=0 note=54 velocity=43 time=0
note_on channel=0 note=71 velocity=0 time=25
note_on channel=0 note=69 velocity=71 time=0
note_on channel=0 note=54 velocity=0 time=17
note_on channel=0 note=55 velocity=39 time=0
note_on channel=0 note=69 velocity=0 time=9
note_on channel=0 note=71 velocity=66 time=0
note_on channel=0 note=71 velocity=0 time=17
note_on channel=0 note=55 velocity=0 time=0
note_on channel=0 note=69 velocity=70 time=0
note_on channel=0 note=57 velocity=49 time=0
note_on channel=0 note=69 velocity=0 time=1
note_on channel=0 note=71 velocity=62 time=0
note_on channel=0 note=57 velocity=0 time=17
note_on channel=0 note=59 velocity=43 time=0
note_on channel=0 note=71 velocity=0 time=33
note_on channel=0 note=69 velocity=69 time=0
note_on channel=0 note=69 velocity=0 time=41
note_on channel=0 note=59 velocity=0 time=0
note_on channel=0 note=71 velocity=63 time=0
note_on channel=0 note=61 velocity=57 time=0
note_on channel=0 note=47 velocity=43 time=0
note_on channel=0 note=71 velocity=0 time=49
note_on channel=0 note=69 velocity=68 time=0
note_on channel=0 note=61 velocity=0 time=0
note_on channel=0 note=63 velocity=43 time=0
note_on channel=0 note=69 velocity=0 time=40
note_on channel=0 note=71 velocity=67 time=0
note_on channel=0 note=71 velocity=0 time=0
note_on channel=0 note=63 velocity=0 time=0
note_on channel=0 note=47 velocity=0 time=0
note_on channel=0 note=68 velocity=46 time=0
note_on channel=0 note=64 velocity=64 time=0
note_on channel=0 note=52 velocity=52 time=0
note_on channel=0 note=68 velocity=0 time=35
note_on channel=0 note=71 velocity=40 time=0
note_on channel=0 note=71 velocity=0 time=120
note_on channel=0 note=68 velocity=46 time=0
note_on channel=0 note=68 velocity=0 time=120
note_on channel=0 note=64 velocity=43 time=0
note_on channel=0 note=64 velocity=0 time=0
note_on channel=0 note=52 velocity=0 time=0
note_on channel=0 note=64 velocity=0 time=0
note_on channel=0 note=67 velocity=73 time=0
note_on channel=0 note=52 velocity=43 time=0
note_on channel=0 note=67 velocity=0 time=25
note_on channel=0 note=69 velocity=66 time=0
note_on channel=0 note=52 velocity=0 time=17
note_on channel=0 note=50 velocity=39 time=0
note_on channel=0 note=69 velocity=0 time=9
note_on channel=0 note=67 velocity=70 time=0
note_on channel=0 note=67 velocity=0 time=17
note_on channel=0 note=50 velocity=0 time=0
note_on channel=0 note=69 velocity=65 time=0
note_on channel=0 note=52 velocity=43 time=0
note_on channel=0 note=69 velocity=0 time=25
note_on channel=0 note=67 velocity=68 time=0
note_on channel=0 note=52 velocity=0 time=17
note_on channel=0 note=54 velocity=39 time=0
note_on channel=0 note=67 velocity=0 time=9
note_on channel=0 note=69 velocity=63 time=0
note_on channel=0 note=69 velocity=0 time=17
note_on channel=0 note=54 velocity=0 time=0
note_on channel=0 note=67 velocity=67 time=0
note_on channel=0 note=55 velocity=49 time=0
note_on channel=0 note=67 velocity=0 time=1
note_on channel=0 note=69 velocity=59 time=0
note_on channel=0 note=55 velocity=0 time=17
note_on channel=0 note=57 velocity=43 time=0
note_on channel=0 note=69 velocity=0 time=33
note_on channel=0 note=67 velocity=66 time=0
note_on channel=0 note=67 velocity=0 time=41
note_on channel=0 note=57 velocity=0 time=0
note_on channel=0 note=69 velocity=60 time=0
note_on channel=0 note=59 velocity=57 time=0
note_on channel=0 note=45 velocity=43 time=0
note_on channel=0 note=69 velocity=0 time=49
note_on channel=0 note=67 velocity=65 time=0
note_on channel=0 note=59 velocity=0 time=0
note_on channel=0 note=61 velocity=43 time=0
note_on channel=0 note=67 velocity=0 time=40
note_on channel=0 note=69 velocity=64 time=0
note_on channel=0 note=69 velocity=0 time=0
note_on channel=0 note=61 velocity=0 time=0
note_on channel=0 note=45 velocity=0 time=0
note_on channel=0 note=66 velocity=52 time=0
note_on channel=0 note=62 velocity=64 time=0
note_on channel=0 note=50 velocity=52 time=0
note_on channel=0 note=66 velocity=0 time=35
note_on channel=0 note=69 velocity=46 time=0
note_on channel=0 note=69 velocity=0 time=120
note_on channel=0 note=66 velocity=52 time=0
note_on channel=0 note=66 velocity=0 time=120
note_on channel=0 note=62 velocity=49 time=0
note_on channel=0 note=62 velocity=0 time=0
note_on channel=0 note=50 velocity=0 time=0
note_on channel=0 note=62 velocity=0 time=0
note_on channel=0 note=66 velocity=50 time=0
note_on channel=0 note=57 velocity=66 time=0
note_on channel=0 note=57 velocity=0 time=13
note_on channel=0 note=59 velocity=59 time=0
note_on channel=0 note=66 velocity=0 time=17
note_on channel=0 note=64 velocity=46 time=0
note_on channel=0 note=59 velocity=0 time=9
note_on channel=0 note=57 velocity=63 time=0
note_on channel=0 note=57 velocity=0 time=17
note_on channel=0 note=64 velocity=0 time=0
note_on channel=0 note=66 velocity=48 time=0
note_on channel=0 note=59 velocity=58 time=0
note_on channel=0 note=59 velocity=0 time=25
note_on channel=0 note=57 velocity=60 time=0
note_on channel=0 note=66 velocity=0 time=17
note_on channel=0 note=67 velocity=40 time=0
note_on channel=0 note=57 velocity=0 time=11
note_on channel=0 note=59 velocity=57 time=0
note_on channel=0 note=59 velocity=0 time=19
note_on channel=0 note=67 velocity=0 time=0
note_on channel=0 note=69 velocity=48 time=0
note_on channel=0 note=57 velocity=59 time=0
note_on channel=0 note=57 velocity=0 time=27
note_on channel=0 note=59 velocity=53 time=0
note_on channel=0 note=69 velocity=0 time=19
note_on channel=0 note=71 velocity=50 time=0
note_on channel=0 note=59 velocity=0 time=40
note_on channel=0 note=57 velocity=59 time=0
note_on channel=0 note=57 velocity=0 time=19
note_on channel=0 note=71 velocity=0 time=0
note_on channel=0 note=83 velocity=73 time=0
note_on channel=0 note=73 velocity=60 time=0
note_on channel=0 note=59 velocity=54 time=0
note_on channel=0 note=59 velocity=0 time=49
note_on channel=0 note=57 velocity=58 time=0
note_on channel=0 note=73 velocity=0 time=0
note_on channel=0 note=75 velocity=55 time=0
note_on channel=0 note=57 velocity=0 time=40
note_on channel=0 note=59 velocity=57 time=0
note_on channel=0 note=59 velocity=0 time=0
note_on channel=0 note=75 velocity=0 time=0
note_on channel=0 note=83 velocity=0 time=0
note_on channel=0 note=76 velocity=83 time=0
note_on channel=0 note=56 velocity=54 time=0
note_on channel=0 note=56 velocity=0 time=42
note_on channel=0 note=59 velocity=42 time=0
note_on channel=0 note=59 velocity=0 time=0
note_on channel=0 note=76 velocity=0 time=0
note_on channel=0 note=88 velocity=84 time=0
note_on channel=0 note=56 velocity=50 time=0
note_on channel=0 note=56 velocity=0 time=0
note_on channel=0 note=52 velocity=40 time=0
note_on channel=0 note=52 velocity=0 time=0
note_on channel=0 note=88 velocity=0 time=0
note_on channel=0 note=64 velocity=50 time=0
note_on channel=0 note=55 velocity=66 time=0
note_on channel=0 note=55 velocity=0 time=13
note_on channel=0 note=57 velocity=59 time=0
note_on channel=0 note=64 velocity=0 time=17
note_on channel=0 note=62 velocity=46 time=0
note_on channel=0 note=57 velocity=0 time=9
note_on channel=0 note=55 velocity=63 time=0
note_on channel=0 note=55 velocity=0 time=17
note_on channel=0 note=62 velocity=0 time=0
note_on channel=0 note=64 velocity=48 time=0
note_on channel=0 note=57 velocity=58 time=0
note_on channel=0 note=57 velocity=0 time=25
note_on channel=0 note=55 velocity=60 time=0
note_on channel=0 note=64 velocity=0 time=17
note_on channel=0 note=66 velocity=40 time=0
note_on channel=0 note=55 velocity=0 time=11
note_on channel=0 note=57 velocity=57 time=0
note_on channel=0 note=57 velocity=0 time=19
note_on channel=0 note=66 velocity=0 time=0
note_on channel=0 note=67 velocity=48 time=0
note_on channel=0 note=55 velocity=59 time=0
note_on channel=0 note=55 velocity=0 time=27
note_on channel=0 note=57 velocity=53 time=0
note_on channel=0 note=67 velocity=0 time=19
note_on channel=0 note=69 velocity=50 time=0
note_on channel=0 note=57 velocity=0 time=40
note_on channel=0 note=55 velocity=59 time=0
note_on channel=0 note=55 velocity=0 time=19
note_on channel=0 note=69 velocity=0 time=0
note_on channel=0 note=81 velocity=73 time=0
note_on channel=0 note=71 velocity=61 time=0
note_on channel=0 note=57 velocity=54 time=0
note_on channel=0 note=57 velocity=0 time=49
note_on channel=0 note=55 velocity=58 time=0
note_on channel=0 note=71 velocity=0 time=0
note_on channel=0 note=73 velocity=55 time=0
note_on channel=0 note=55 velocity=0 time=40
note_on channel=0 note=57 velocity=57 time=0
note_on channel=0 note=57 velocity=0 time=0
note_on channel=0 note=73 velocity=0 time=0
note_on channel=0 note=81 velocity=0 time=0
note_on channel=0 note=74 velocity=83 time=0
note_on channel=0 note=54 velocity=54 time=0
note_on channel=0 note=54 velocity=0 time=42
note_on channel=0 note=57 velocity=42 time=0
note_on channel=0 note=57 velocity=0 time=0
note_on channel=0 note=74 velocity=0 time=0
note_on channel=0 note=86 velocity=84 time=0
note_on channel=0 note=54 velocity=50 time=0
note_on channel=0 note=54 velocity=0 time=0
note_on channel=0 note=50 velocity=40 time=0
note_on channel=0 note=50 velocity=0 time=0
note_on channel=0 note=86 velocity=0 time=0
note_on channel=0 note=62 velocity=50 time=0
note_on channel=0 note=53 velocity=66 time=0
note_on channel=0 note=53 velocity=0 time=13
note_on channel=0 note=55 velocity=59 time=0
note_on channel=0 note=62 velocity=0 time=17
note_on channel=0 note=60 velocity=46 time=0
note_on channel=0 note=55 velocity=0 time=9
note_on channel=0 note=53 velocity=63 time=0
note_on channel=0 note=53 velocity=0 time=17
note_on channel=0 note=60 velocity=0 time=0
note_on channel=0 note=62 velocity=48 time=0
note_on channel=0 note=55 velocity=58 time=0
note_on channel=0 note=55 velocity=0 time=25
note_on channel=0 note=53 velocity=60 time=0
note_on channel=0 note=62 velocity=0 time=17
note_on channel=0 note=63 velocity=40 time=0
note_on channel=0 note=53 velocity=0 time=11
note_on channel=0 note=55 velocity=57 time=0
note_on channel=0 note=55 velocity=0 time=19
note_on channel=0 note=63 velocity=0 time=0
note_on channel=0 note=65 velocity=48 time=0
note_on channel=0 note=53 velocity=59 time=0
note_on channel=0 note=53 velocity=0 time=27
note_on channel=0 note=55 velocity=53 time=0
note_on channel=0 note=65 velocity=0 time=19
note_on channel=0 note=67 velocity=50 time=0
note_on channel=0 note=55 velocity=0 time=40
note_on channel=0 note=53 velocity=59 time=0
note_on channel=0 note=53 velocity=0 time=19
note_on channel=0 note=67 velocity=0 time=0
note_on channel=0 note=79 velocity=73 time=0
note_on channel=0 note=69 velocity=61 time=0
note_on channel=0 note=55 velocity=54 time=0
note_on channel=0 note=55 velocity=0 time=49
note_on channel=0 note=53 velocity=58 time=0
note_on channel=0 note=69 velocity=0 time=0
note_on channel=0 note=71 velocity=55 time=0
note_on channel=0 note=53 velocity=0 time=40
note_on channel=0 note=55 velocity=57 time=0
note_on channel=0 note=55 velocity=0 time=0
note_on channel=0 note=71 velocity=0 time=0
note_on channel=0 note=79 velocity=0 time=0
note_on channel=0 note=72 velocity=83 time=0
note_on channel=0 note=51 velocity=54 time=0
note_on channel=0 note=51 velocity=0 time=42
note_on channel=0 note=55 velocity=49 time=0
note_on channel=0 note=55 velocity=0 time=0
note_on channel=0 note=72 velocity=0 time=0
note_on channel=0 note=84 velocity=84 time=0
note_on channel=0 note=51 velocity=59 time=0
note_on channel=0 note=51 velocity=0 time=0
note_on channel=0 note=48 velocity=54 time=0
note_on channel=0 note=48 velocity=0 time=0
note_on channel=0 note=56 velocity=73 time=0
note_on channel=0 note=84 velocity=0 time=120
note_on channel=0 note=76 velocity=78 time=0
note_on channel=0 note=76 velocity=0 time=83
note_on channel=0 note=56 velocity=0 time=0
note_on channel=0 note=77 velocity=84 time=0
note_on channel=0 note=77 velocity=0 time=120
note_on channel=0 note=79 velocity=89 time=0
note_on channel=0 note=79 velocity=0 time=0
note_on channel=0 note=80 velocity=94 time=0
note_on channel=0 note=41 velocity=66 time=0
note_on channel=0 note=41 velocity=0 time=32
note_on channel=0 note=43 velocity=59 time=0
note_on channel=0 note=64 velocity=55 time=24
note_on channel=0 note=43 velocity=0 time=16
note_on channel=0 note=41 velocity=63 time=0
note_on channel=0 note=41 velocity=0 time=24
note_on channel=0 note=64 velocity=0 time=0
note_on channel=0 note=80 velocity=0 time=0
note_on channel=0 note=65 velocity=57 time=0
note_on channel=0 note=43 velocity=58 time=0
note_on channel=0 note=43 velocity=0 time=32
note_on channel=0 note=41 velocity=60 time=0
note_on channel=0 note=65 velocity=0 time=24
note_on channel=0 note=67 velocity=58 time=0
note_on channel=0 note=41 velocity=0 time=18
note_on channel=0 note=43 velocity=57 time=0
note_on channel=0 note=43 velocity=0 time=26
note_on channel=0 note=67 velocity=0 time=0
note_on channel=0 note=68 velocity=59 time=0
note_on channel=0 note=41 velocity=59 time=0
note_on channel=0 note=41 velocity=0 time=34
note_on channel=0 note=43 velocity=53 time=0
note_on channel=0 note=70 velocity=61 time=26
note_on channel=0 note=43 velocity=0 time=40
note_on channel=0 note=41 velocity=59 time=0
note_on channel=0 note=41 velocity=0 time=0
note_on channel=0 note=70 velocity=0 time=0
note_on channel=0 note=72 velocity=62 time=0
note_on channel=0 note=43 velocity=54 time=0
note_on channel=0 note=43 velocity=0 time=56
note_on channel=0 note=41 velocity=58 time=0
note_on channel=0 note=72 velocity=0 time=7
note_on channel=0 note=74 velocity=65 time=0
note_on channel=0 note=41 velocity=0 time=40
note_on channel=0 note=43 velocity=57 time=0
note_on channel=0 note=43 velocity=0 time=0
note_on channel=0 note=74 velocity=0 time=0
note_on channel=0 note=75 velocity=70 time=0
note_on channel=0 note=39 velocity=63 time=0
note_on channel=0 note=68 velocity=0 time=91
note_on channel=0 note=67 velocity=58 time=0
note_on channel=0 note=67 velocity=0 time=0
note_on channel=0 note=70 velocity=62 time=0
note_on channel=0 note=68 velocity=58 time=120
note_on channel=0 note=70 velocity=0 time=24
note_on channel=0 note=75 velocity=0 time=96
note_on channel=0 note=39 velocity=0 time=0
note_on channel=0 note=67 velocity=62 time=0
note_on channel=0 note=68 velocity=0 time=24
note_on channel=0 note=65 velocity=55 time=96
note_on channel=0 note=67 velocity=0 time=24
note_on channel=0 note=63 velocity=55 time=96
note_on channel=0 note=39 velocity=53 time=0
note_on channel=0 note=65 velocity=0 time=24
note_on channel=0 note=62 velocity=55 time=96
note_on channel=0 note=41 velocity=54 time=0
note_on channel=0 note=39 velocity=0 time=24
note_on channel=0 note=63 velocity=0 time=0
note_on channel=0 note=75 velocity=62 time=0
note_on channel=0 note=63 velocity=62 time=0
note_on channel=0 note=43 velocity=56 time=0
note_on channel=0 note=62 velocity=0 time=24
note_on channel=0 note=41 velocity=0 time=0
note_on channel=0 note=74 velocity=58 time=96
note_on channel=0 note=44 velocity=57 time=0
note_on channel=0 note=43 velocity=0 time=24
note_on channel=0 note=75 velocity=0 time=0
note_on channel=0 note=72 velocity=58 time=96
note_on channel=0 note=46 velocity=59 time=0
note_on channel=0 note=44 velocity=0 time=24
note_on channel=0 note=74 velocity=0 time=0
note_on channel=0 note=70 velocity=58 time=0
note_on channel=0 note=48 velocity=60 time=0
note_on channel=0 note=46 velocity=0 time=24
note_on channel=0 note=72 velocity=0 time=0
note_on channel=0 note=48 velocity=0 time=0
note_on channel=0 note=70 velocity=0 time=0
note_on channel=0 note=75 velocity=62 time=0
note_on channel=0 note=43 velocity=67 time=0
note_on channel=0 note=75 velocity=0 time=120
note_on channel=0 note=70 velocity=55 time=0
note_on channel=0 note=43 velocity=0 time=0
note_on channel=0 note=75 velocity=62 time=0
note_on channel=0 note=70 velocity=0 time=24
note_on channel=0 note=74 velocity=55 time=96
note_on channel=0 note=75 velocity=0 time=24
note_on channel=0 note=63 velocity=0 time=96
note_on channel=0 note=72 velocity=62 time=0
note_on channel=0 note=74 velocity=0 time=24
note_on channel=0 note=70 velocity=61 time=96
note_on channel=0 note=72 velocity=0 time=24
note_on channel=0 note=68 velocity=60 time=96
note_on channel=0 note=43 velocity=53 time=0
note_on channel=0 note=70 velocity=0 time=24
note_on channel=0 note=67 velocity=59 time=0
note_on channel=0 note=44 velocity=54 time=0
note_on channel=0 note=43 velocity=0 time=24
note_on channel=0 note=68 velocity=0 time=0
note_on channel=0 note=67 velocity=0 time=0
note_on channel=0 note=79 velocity=73 time=0
note_on channel=0 note=75 velocity=73 time=0
note_on channel=0 note=46 velocity=56 time=0
note_on channel=0 note=44 velocity=0 time=24
note_on channel=0 note=74 velocity=60 time=96
note_on channel=0 note=48 velocity=57 time=0
note_on channel=0 note=46 velocity=0 time=24
note_on channel=0 note=75 velocity=0 time=0
note_on channel=0 note=72 velocity=66 time=96
note_on channel=0 note=50 velocity=59 time=0
note_on channel=0 note=48 velocity=0 time=24
note_on channel=0 note=74 velocity=0 time=0
note_on channel=0 note=70 velocity=60 time=0
note_on channel=0 note=51 velocity=60 time=0
note_on channel=0 note=50 velocity=0 time=24
note_on channel=0 note=72 velocity=0 time=0
note_on channel=0 note=51 velocity=0 time=0
note_on channel=0 note=74 velocity=73 time=0
note_on channel=0 note=46 velocity=67 time=0
note_on channel=0 note=70 velocity=0 time=24
note_on channel=0 note=79 velocity=0 time=96
note_on channel=0 note=77 velocity=66 time=0
note_on channel=0 note=46 velocity=0 time=0
note_on channel=0 note=80 velocity=69 time=0
note_on channel=0 note=77 velocity=0 time=24
note_on channel=0 note=79 velocity=62 time=96
note_on channel=0 note=80 velocity=0 time=24
note_on channel=0 note=74 velocity=0 time=96
note_on channel=0 note=77 velocity=69 time=0
note_on channel=0 note=79 velocity=0 time=24
note_on channel=0 note=75 velocity=68 time=96
note_on channel=0 note=77 velocity=0 time=24
note_on channel=0 note=74 velocity=66 time=96
note_on channel=0 note=46 velocity=53 time=0
note_on channel=0 note=75 velocity=0 time=24
note_on channel=0 note=72 velocity=64 time=96
note_on channel=0 note=48 velocity=54 time=0
note_on channel=0 note=46 velocity=0 time=24
note_on channel=0 note=74 velocity=0 time=0
note_on channel=0 note=72 velocity=0 time=0
note_on channel=0 note=70 velocity=69 time=0
note_on channel=0 note=65 velocity=69 time=0
note_on channel=0 note=50 velocity=56 time=0
note_on channel=0 note=48 velocity=0 time=24
note_on channel=0 note=67 velocity=55 time=96
note_on channel=0 note=48 velocity=57 time=0
note_on channel=0 note=50 velocity=0 time=24
note_on channel=0 note=65 velocity=0 time=0
note_on channel=0 note=65 velocity=62 time=96
note_on channel=0 note=50 velocity=59 time=0
note_on channel=0 note=48 velocity=0 time=24
note_on channel=0 note=67 velocity=0 time=0
note_on channel=0 note=63 velocity=58 time=0
note_on channel=0 note=51 velocity=60 time=0
note_on channel=0 note=50 velocity=0 time=24
note_on channel=0 note=65 velocity=0 time=0
note_on channel=0 note=62 velocity=68 time=0
note_on channel=0 note=53 velocity=62 time=0
note_on channel=0 note=51 velocity=0 time=24
note_on channel=0 note=63 velocity=0 time=0
note_on channel=0 note=60 velocity=59 time=96
note_on channel=0 note=52 velocity=56 time=0
note_on channel=0 note=53 velocity=0 time=24
note_on channel=0 note=62 velocity=0 time=0
note_on channel=0 note=62 velocity=59 time=0
note_on channel=0 note=53 velocity=56 time=0
note_on channel=0 note=52 velocity=0 time=24
note_on channel=0 note=60 velocity=0 time=0
note_on channel=0 note=63 velocity=59 time=96
note_on channel=0 note=55 velocity=56 time=0
note_on channel=0 note=53 velocity=0 time=24
note_on channel=0 note=62 velocity=0 time=0
note_on channel=0 note=65 velocity=62 time=96
note_on channel=0 note=56 velocity=63 time=0
note_on channel=0 note=55 velocity=0 time=24
note_on channel=0 note=63 velocity=0 time=0
note_on channel=0 note=70 velocity=0 time=96
note_on channel=0 note=72 velocity=59 time=0
note_on channel=0 note=55 velocity=54 time=0
note_on channel=0 note=56 velocity=0 time=24
note_on channel=0 note=74 velocity=61 time=96
note_on channel=0 note=53 velocity=54 time=0
note_on channel=0 note=55 velocity=0 time=24
note_on channel=0 note=72 velocity=0 time=0
note_on channel=0 note=75 velocity=64 time=96
note_on channel=0 note=51 velocity=54 time=0
note_on channel=0 note=53 velocity=0 time=24
note_on channel=0 note=74 velocity=0 time=0
note_on channel=0 note=77 velocity=70 time=0
note_on channel=0 note=50 velocity=61 time=0
note_on channel=0 note=51 velocity=0 time=24
note_on channel=0 note=75 velocity=0 time=0
note_on channel=0 note=65 velocity=0 time=96
note_on channel=0 note=67 velocity=60 time=0
note_on channel=0 note=51 velocity=54 time=0
note_on channel=0 note=50 velocity=0 time=24
note_on channel=0 note=68 velocity=63 time=96
note_on channel=0 note=50 velocity=54 time=0
note_on channel=0 note=51 velocity=0 time=24
note_on channel=0 note=67 velocity=0 time=0
note_on channel=0 note=69 velocity=65 time=0
note_on channel=0 note=48 velocity=54 time=0
note_on channel=0 note=50 velocity=0 time=24
note_on channel=0 note=68 velocity=0 time=0
note_on channel=0 note=70 velocity=68 time=0
note_on channel=0 note=46 velocity=56 time=0
note_on channel=0 note=48 velocity=0 time=24
note_on channel=0 note=69 velocity=0 time=0
note_on channel=0 note=77 velocity=0 time=96
note_on channel=0 note=79 velocity=62 time=0
note_on channel=0 note=48 velocity=51 time=0
note_on channel=0 note=46 velocity=0 time=24
note_on channel=0 note=80 velocity=67 time=96
note_on channel=0 note=46 velocity=51 time=0
note_on channel=0 note=48 velocity=0 time=24
note_on channel=0 note=79 velocity=0 time=0
note_on channel=0 note=81 velocity=70 time=96
note_on channel=0 note=44 velocity=51 time=0
note_on channel=0 note=46 velocity=0 time=24
note_on channel=0 note=80 velocity=0 time=0
note_on channel=0 note=82 velocity=72 time=96
note_on channel=0 note=43 velocity=56 time=0
note_on channel=0 note=44 velocity=0 time=24
note_on channel=0 note=81 velocity=0 time=0
note_on channel=0 note=70 velocity=0 time=96
note_on channel=0 note=72 velocity=62 time=0
note_on channel=0 note=44 velocity=50 time=0
note_on channel=0 note=43 velocity=0 time=24
note_on channel=0 note=74 velocity=65 time=96
note_on channel=0 note=46 velocity=50 time=0
note_on channel=0 note=44 velocity=0 time=24
note_on channel=0 note=72 velocity=0 time=0
note_on channel=0 note=75 velocity=69 time=0
note_on channel=0 note=48 velocity=50 time=0
note_on channel=0 note=46 velocity=0 time=24
note_on channel=0 note=74 velocity=0 time=0
note_on channel=0 note=82 velocity=0 time=0
note_on channel=0 note=77 velocity=61 time=0
note_on channel=0 note=80 velocity=72 time=0
note_on channel=0 note=50 velocity=59 time=0
note_on channel=0 note=48 velocity=0 time=24
note_on channel=0 note=75 velocity=0 time=0
note_on channel=0 note=75 velocity=57 time=96
note_on channel=0 note=79 velocity=68 time=0
note_on channel=0 note=51 velocity=52 time=0
note_on channel=0 note=80 velocity=0 time=24
note_on channel=0 note=50 velocity=0 time=0
note_on channel=0 note=77 velocity=0 time=0
note_on channel=0 note=74 velocity=54 time=0
note_on channel=0 note=77 velocity=75 time=0
note_on channel=0 note=53 velocity=57 time=0
note_on channel=0 note=75 velocity=0 time=24
note_on channel=0 note=51 velocity=0 time=0
note_on channel=0 note=79 velocity=0 time=0
note_on channel=0 note=74 velocity=0 time=0
note_on channel=0 note=75 velocity=70 time=0
note_on channel=0 note=55 velocity=62 time=0
note_on channel=0 note=77 velocity=0 time=24
note_on channel=0 note=53 velocity=0 time=0
note_on channel=0 note=75 velocity=0 time=0
note_on channel=0 note=55 velocity=0 time=0
note_on channel=0 note=84 velocity=87 time=0
note_on channel=0 note=44 velocity=60 time=0
note_on channel=0 note=46 velocity=61 time=120
note_on channel=0 note=44 velocity=0 time=24
note_on channel=0 note=84 velocity=0 time=96
note_on channel=0 note=48 velocity=62 time=0
note_on channel=0 note=46 velocity=0 time=24
note_on channel=0 note=49 velocity=63 time=17
note_on channel=0 note=48 velocity=0 time=17
note_on channel=0 note=68 velocity=75 time=17
note_on channel=0 note=51 velocity=64 time=0
note_on channel=0 note=49 velocity=0 time=24
note_on channel=0 note=68 velocity=0 time=25
note_on channel=0 note=70 velocity=67 time=0
note_on channel=0 note=51 velocity=0 time=40
note_on channel=0 note=53 velocity=65 time=0
note_on channel=0 note=70 velocity=0 time=33
note_on channel=0 note=68 velocity=72 time=0
note_on channel=0 note=68 velocity=0 time=41
note_on channel=0 note=53 velocity=0 time=0
note_on channel=0 note=70 velocity=62 time=0
note_on channel=0 note=55 velocity=66 time=0
note_on channel=0 note=70 velocity=0 time=1
note_on channel=0 note=68 velocity=67 time=0
note_on channel=0 note=55 velocity=0 time=40
note_on channel=0 note=56 velocity=67 time=0
note_on channel=0 note=68 velocity=0 time=40
note_on channel=0 note=70 velocity=61 time=0
note_on channel=0 note=70 velocity=0 time=65
note_on channel=0 note=56 velocity=0 time=0
note_on channel=0 note=68 velocity=67 time=0
note_on channel=0 note=58 velocity=69 time=0
note_on channel=0 note=68 velocity=0 time=55
note_on channel=0 note=70 velocity=62 time=0
note_on channel=0 note=58 velocity=0 time=17
note_on channel=0 note=59 velocity=70 time=0
note_on channel=0 note=70 velocity=0 time=40
note_on channel=0 note=68 velocity=67 time=0
note_on channel=0 note=68 velocity=0 time=65
note_on channel=0 note=59 velocity=0 time=0
note_on channel=0 note=70 velocity=61 time=0
note_on channel=0 note=60 velocity=71 time=0
note_on channel=0 note=70 velocity=0 time=49
note_on channel=0 note=68 velocity=67 time=0
note_on channel=0 note=68 velocity=0 time=57
note_on channel=0 note=70 velocity=62 time=0
note_on channel=0 note=70 velocity=0 time=0
note_on channel=0 note=60 velocity=0 time=0
note_on channel=0 note=77 velocity=70 time=0
note_on channel=0 note=80 velocity=82 time=0
note_on channel=0 note=79 velocity=72 time=120
note_on channel=0 note=77 velocity=0 time=24
note_on channel=0 note=80 velocity=0 time=15
note_on channel=0 note=80 velocity=73 time=2
note_on channel=0 note=79 velocity=0 time=24
note_on channel=0 note=82 velocity=75 time=65
note_on channel=0 note=80 velocity=0 time=17
note_on channel=0 note=84 velocity=76 time=41
note_on channel=0 note=65 velocity=75 time=0
note_on channel=0 note=82 velocity=0 time=24
note_on channel=0 note=65 velocity=0 time=1
note_on channel=0 note=67 velocity=67 time=0
note_on channel=0 note=84 velocity=0 time=40
note_on channel=0 note=86 velocity=78 time=0
note_on channel=0 note=67 velocity=0 time=9
note_on channel=0 note=65 velocity=72 time=0
note_on channel=0 note=65 velocity=0 time=17
note_on channel=0 note=86 velocity=0 time=0
note_on channel=0 note=87 velocity=80 time=0
note_on channel=0 note=67 velocity=62 time=0
note_on channel=0 note=67 velocity=0 time=25
note_on channel=0 note=65 velocity=67 time=0
note_on channel=0 note=87 velocity=0 time=40
note_on channel=0 note=88 velocity=81 time=0
note_on channel=0 note=65 velocity=0 time=33
note_on channel=0 note=67 velocity=61 time=0
note_on channel=0 note=67 velocity=0 time=17
note_on channel=0 note=88 velocity=0 time=0
note_on channel=0 note=89 velocity=83 time=0
note_on channel=0 note=65 velocity=67 time=0
note_on channel=0 note=65 velocity=0 time=9
note_on channel=0 note=67 velocity=62 time=0
note_on channel=0 note=89 velocity=0 time=17
note_on channel=0 note=91 velocity=84 time=0
note_on channel=0 note=67 velocity=0 time=40
note_on channel=0 note=65 velocity=67 time=0
note_on channel=0 note=65 velocity=0 time=17
note_on channel=0 note=91 velocity=0 time=0
note_on channel=0 note=92 velocity=86 time=0
note_on channel=0 note=67 velocity=61 time=0
note_on channel=0 note=67 velocity=0 time=49
note_on channel=0 note=65 velocity=67 time=0
note_on channel=0 note=65 velocity=0 time=9
note_on channel=0 note=67 velocity=62 time=0
note_on channel=0 note=67 velocity=0 time=0
note_on channel=0 note=92 velocity=0 time=0
note_on channel=0 note=94 velocity=100 time=0
note_on channel=0 note=55 velocity=60 time=0
note_on channel=0 note=56 velocity=61 time=120
note_on channel=0 note=55 velocity=0 time=24
note_on channel=0 note=94 velocity=0 time=96
note_on channel=0 note=58 velocity=62 time=0
note_on channel=0 note=56 velocity=0 time=24
note_on channel=0 note=60 velocity=63 time=17
note_on channel=0 note=58 velocity=0 time=17
note_on channel=0 note=79 velocity=75 time=17
note_on channel=0 note=62 velocity=64 time=0
note_on channel=0 note=60 velocity=0 time=24
note_on channel=0 note=79 velocity=0 time=25
note_on channel=0 note=80 velocity=67 time=0
note_on channel=0 note=62 velocity=0 time=40
note_on channel=0 note=63 velocity=65 time=0
note_on channel=0 note=80 velocity=0 time=33
note_on channel=0 note=79 velocity=72 time=0
note_on channel=0 note=79 velocity=0 time=41
note_on channel=0 note=63 velocity=0 time=0
note_on channel=0 note=80 velocity=62 time=0
note_on channel=0 note=65 velocity=66 time=0
note_on channel=0 note=80 velocity=0 time=1
note_on channel=0 note=79 velocity=67 time=0
note_on channel=0 note=65 velocity=0 time=40
note_on channel=0 note=67 velocity=67 time=0
note_on channel=0 note=79 velocity=0 time=40
note_on channel=0 note=80 velocity=61 time=0
note_on channel=0 note=80 velocity=0 time=65
note_on channel=0 note=67 velocity=0 time=0
note_on channel=0 note=79 velocity=67 time=0
note_on channel=0 note=68 velocity=69 time=0
note_on channel=0 note=79 velocity=0 time=55
note_on channel=0 note=80 velocity=62 time=0
note_on channel=0 note=68 velocity=0 time=17
note_on channel=0 note=69 velocity=70 time=0
note_on channel=0 note=80 velocity=0 time=40
note_on channel=0 note=79 velocity=67 time=0
note_on channel=0 note=79 velocity=0 time=65
note_on channel=0 note=69 velocity=0 time=0
note_on channel=0 note=80 velocity=61 time=0
note_on channel=0 note=70 velocity=71 time=0
note_on channel=0 note=80 velocity=0 time=49
note_on channel=0 note=79 velocity=67 time=0
note_on channel=0 note=79 velocity=0 time=57
note_on channel=0 note=80 velocity=62 time=0
note_on channel=0 note=80 velocity=0 time=0
note_on channel=0 note=70 velocity=0 time=0
note_on channel=0 note=75 velocity=70 time=0
note_on channel=0 note=55 velocity=93 time=0
note_on channel=0 note=77 velocity=72 time=120
note_on channel=0 note=75 velocity=0 time=24
note_on channel=0 note=55 velocity=0 time=17
note_on channel=0 note=79 velocity=73 time=0
note_on channel=0 note=77 velocity=0 time=24
note_on channel=0 note=80 velocity=75 time=65
note_on channel=0 note=79 velocity=0 time=17
note_on channel=0 note=82 velocity=76 time=41
note_on channel=0 note=39 velocity=75 time=0
note_on channel=0 note=80 velocity=0 time=24
note_on channel=0 note=39 velocity=0 time=1
note_on channel=0 note=41 velocity=67 time=0
note_on channel=0 note=82 velocity=0 time=40
note_on channel=0 note=84 velocity=78 time=0
note_on channel=0 note=41 velocity=0 time=9
note_on channel=0 note=39 velocity=72 time=0
note_on channel=0 note=39 velocity=0 time=17
note_on channel=0 note=84 velocity=0 time=0
note_on channel=0 note=85 velocity=80 time=0
note_on channel=0 note=41 velocity=62 time=0
note_on channel=0 note=41 velocity=0 time=25
note_on channel=0 note=39 velocity=67 time=0
note_on channel=0 note=85 velocity=0 time=40
note_on channel=0 note=86 velocity=81 time=0
note_on channel=0 note=39 velocity=0 time=33
note_on channel=0 note=41 velocity=61 time=0
note_on channel=0 note=41 velocity=0 time=17
note_on channel=0 note=86 velocity=0 time=0
note_on channel=0 note=87 velocity=83 time=0
note_on channel=0 note=39 velocity=67 time=0
note_on channel=0 note=39 velocity=0 time=9
note_on channel=0 note=41 velocity=62 time=0
note_on channel=0 note=87 velocity=0 time=17
note_on channel=0 note=89 velocity=84 time=0
note_on channel=0 note=41 velocity=0 time=40
note_on channel=0 note=39 velocity=67 time=0
note_on channel=0 note=39 velocity=0 time=17
note_on channel=0 note=89 velocity=0 time=0
note_on channel=0 note=90 velocity=86 time=0
note_on channel=0 note=41 velocity=61 time=0
note_on channel=0 note=41 velocity=0 time=49
note_on channel=0 note=39 velocity=67 time=0
note_on channel=0 note=90 velocity=0 time=17
note_on channel=0 note=91 velocity=88 time=0
note_on channel=0 note=39 velocity=0 time=9
note_on channel=0 note=41 velocity=62 time=0
note_on channel=0 note=41 velocity=0 time=0
note_on channel=0 note=91 velocity=0 time=0
note_on channel=0 note=92 velocity=90 time=0
note_on channel=0 note=82 velocity=70 time=0
note_on channel=0 note=34 velocity=97 time=0
note_on channel=0 note=92 velocity=0 time=120
note_on channel=0 note=80 velocity=76 time=0
note_on channel=0 note=82 velocity=0 time=24
note_on channel=0 note=34 velocity=0 time=17
note_on channel=0 note=79 velocity=73 time=0
note_on channel=0 note=80 velocity=0 time=24
note_on channel=0 note=77 velocity=73 time=65
note_on channel=0 note=79 velocity=0 time=17
note_on channel=0 note=77 velocity=0 time=39
note_on channel=0 note=77 velocity=72 time=2
note_on channel=0 note=75 velocity=72 time=0
note_on channel=0 note=50 velocity=75 time=0
note_on channel=0 note=50 velocity=0 time=1
note_on channel=0 note=51 velocity=67 time=0
note_on channel=0 note=75 velocity=0 time=40
note_on channel=0 note=74 velocity=72 time=0
note_on channel=0 note=51 velocity=0 time=9
note_on channel=0 note=50 velocity=72 time=0
note_on channel=0 note=50 velocity=0 time=17
note_on channel=0 note=74 velocity=0 time=0
note_on channel=0 note=72 velocity=71 time=0
note_on channel=0 note=51 velocity=62 time=0
note_on channel=0 note=51 velocity=0 time=25
note_on channel=0 note=50 velocity=67 time=0
note_on channel=0 note=72 velocity=0 time=40
note_on channel=0 note=70 velocity=70 time=0
note_on channel=0 note=50 velocity=0 time=33
note_on channel=0 note=51 velocity=61 time=0
note_on channel=0 note=51 velocity=0 time=17
note_on channel=0 note=70 velocity=0 time=0
note_on channel=0 note=69 velocity=70 time=0
note_on channel=0 note=50 velocity=67 time=0
note_on channel=0 note=50 velocity=0 time=9
note_on channel=0 note=51 velocity=62 time=0
note_on channel=0 note=69 velocity=0 time=17
note_on channel=0 note=70 velocity=65 time=0
note_on channel=0 note=51 velocity=0 time=40
note_on channel=0 note=50 velocity=67 time=0
note_on channel=0 note=50 velocity=0 time=17
note_on channel=0 note=70 velocity=0 time=0
note_on channel=0 note=65 velocity=68 time=0
note_on channel=0 note=51 velocity=61 time=0
note_on channel=0 note=51 velocity=0 time=49
note_on channel=0 note=50 velocity=67 time=0
note_on channel=0 note=65 velocity=0 time=17
note_on channel=0 note=68 velocity=63 time=0
note_on channel=0 note=50 velocity=0 time=9
note_on channel=0 note=51 velocity=62 time=0
note_on channel=0 note=51 velocity=0 time=0
note_on channel=0 note=68 velocity=0 time=0
note_on channel=0 note=77 velocity=0 time=0
note_on channel=0 note=67 velocity=90 time=0
note_on channel=0 note=39 velocity=94 time=0
note_on channel=0 note=67 velocity=0 time=120
note_on channel=0 note=82 velocity=73 time=0
note_on channel=0 note=39 velocity=0 time=17
note_on channel=0 note=84 velocity=74 time=0
note_on channel=0 note=82 velocity=0 time=24
note_on channel=0 note=86 velocity=75 time=65
note_on channel=0 note=84 velocity=0 time=17
note_on channel=0 note=82 velocity=77 time=41
note_on channel=0 note=87 velocity=77 time=0
note_on channel=0 note=55 velocity=75 time=0
note_on channel=0 note=86 velocity=0 time=24
note_on channel=0 note=55 velocity=0 time=1
note_on channel=0 note=56 velocity=67 time=0
note_on channel=0 note=87 velocity=0 time=40
note_on channel=0 note=86 velocity=78 time=0
note_on channel=0 note=56 velocity=0 time=9
note_on channel=0 note=55 velocity=72 time=0
note_on channel=0 note=55 velocity=0 time=17
note_on channel=0 note=86 velocity=0 time=0
note_on channel=0 note=87 velocity=79 time=0
note_on channel=0 note=56 velocity=62 time=0
note_on channel=0 note=56 velocity=0 time=25
note_on channel=0 note=55 velocity=67 time=0
note_on channel=0 note=87 velocity=0 time=40
note_on channel=0 note=89 velocity=81 time=0
note_on channel=0 note=55 velocity=0 time=33
note_on channel=0 note=56 velocity=61 time=0
note_on channel=0 note=56 velocity=0 time=17
note_on channel=0 note=89 velocity=0 time=0
note_on channel=0 note=91 velocity=82 time=0
note_on channel=0 note=55 velocity=67 time=0
note_on channel=0 note=55 velocity=0 time=9
note_on channel=0 note=56 velocity=62 time=0
note_on channel=0 note=91 velocity=0 time=17
note_on channel=0 note=89 velocity=83 time=0
note_on channel=0 note=56 velocity=0 time=40
note_on channel=0 note=55 velocity=67 time=0
note_on channel=0 note=55 velocity=0 time=17
note_on channel=0 note=89 velocity=0 time=0
note_on channel=0 note=91 velocity=85 time=0
note_on channel=0 note=56 velocity=61 time=0
note_on channel=0 note=56 velocity=0 time=49
note_on channel=0 note=55 velocity=67 time=0
note_on channel=0 note=91 velocity=0 time=17
note_on channel=0 note=92 velocity=86 time=0
note_on channel=0 note=55 velocity=0 time=9
note_on channel=0 note=56 velocity=62 time=0
note_on channel=0 note=56 velocity=0 time=0
note_on channel=0 note=92 velocity=0 time=0
note_on channel=0 note=82 velocity=0 time=0
note_on channel=0 note=94 velocity=90 time=0
note_on channel=0 note=36 velocity=98 time=0
note_on channel=0 note=94 velocity=0 time=120
note_on channel=0 note=36 velocity=0 time=17
note_on channel=0 note=80 velocity=73 time=0
note_on channel=0 note=79 velocity=73 time=65
note_on channel=0 note=80 velocity=0 time=17
note_on channel=0 note=79 velocity=0 time=39
note_on channel=0 note=79 velocity=72 time=2
note_on channel=0 note=77 velocity=72 time=0
note_on channel=0 note=52 velocity=75 time=0
note_on channel=0 note=52 velocity=0 time=1
note_on channel=0 note=53 velocity=67 time=0
note_on channel=0 note=77 velocity=0 time=40
note_on channel=0 note=76 velocity=72 time=0
note_on channel=0 note=53 velocity=0 time=9
note_on channel=0 note=52 velocity=72 time=0
note_on channel=0 note=52 velocity=0 time=17
note_on channel=0 note=76 velocity=0 time=0
note_on channel=0 note=73 velocity=71 time=0
note_on channel=0 note=53 velocity=62 time=0
note_on channel=0 note=53 velocity=0 time=25
note_on channel=0 note=52 velocity=67 time=0
note_on channel=0 note=73 velocity=0 time=40
note_on channel=0 note=72 velocity=70 time=0
note_on channel=0 note=52 velocity=0 time=33
note_on channel=0 note=53 velocity=61 time=0
note_on channel=0 note=53 velocity=0 time=17
note_on channel=0 note=72 velocity=0 time=0
note_on channel=0 note=71 velocity=70 time=0
note_on channel=0 note=52 velocity=67 time=0
note_on channel=0 note=52 velocity=0 time=9
note_on channel=0 note=53 velocity=62 time=0
note_on channel=0 note=71 velocity=0 time=17
note_on channel=0 note=72 velocity=65 time=0
note_on channel=0 note=53 velocity=0 time=40
note_on channel=0 note=52 velocity=67 time=0
note_on channel=0 note=52 velocity=0 time=17
note_on channel=0 note=72 velocity=0 time=0
note_on channel=0 note=67 velocity=68 time=0
note_on channel=0 note=53 velocity=61 time=0
note_on channel=0 note=53 velocity=0 time=49
note_on channel=0 note=52 velocity=67 time=0
note_on channel=0 note=67 velocity=0 time=17
note_on channel=0 note=70 velocity=63 time=0
note_on channel=0 note=52 velocity=0 time=9
note_on channel=0 note=53 velocity=62 time=0
note_on channel=0 note=53 velocity=0 time=0
note_on channel=0 note=70 velocity=0 time=0
note_on channel=0 note=79 velocity=0 time=0
note_on channel=0 note=68 velocity=90 time=0
note_on channel=0 note=41 velocity=95 time=0
note_on channel=0 note=68 velocity=0 time=120
note_on channel=0 note=41 velocity=0 time=17
note_on channel=0 note=84 velocity=74 time=0
note_on channel=0 note=88 velocity=75 time=65
note_on channel=0 note=84 velocity=0 time=17
note_on channel=0 note=84 velocity=77 time=41
note_on channel=0 note=89 velocity=77 time=0
note_on channel=0 note=56 velocity=75 time=0
note_on channel=0 note=88 velocity=0 time=24
note_on channel=0 note=56 velocity=0 time=1
note_on channel=0 note=58 velocity=67 time=0
note_on channel=0 note=89 velocity=0 time=40
note_on channel=0 note=91 velocity=78 time=0
note_on channel=0 note=58 velocity=0 time=9
note_on channel=0 note=56 velocity=72 time=0
note_on channel=0 note=56 velocity=0 time=17
note_on channel=0 note=91 velocity=0 time=0
note_on channel=0 note=92 velocity=79 time=0
note_on channel=0 note=58 velocity=62 time=0
note_on channel=0 note=58 velocity=0 time=25
note_on channel=0 note=56 velocity=67 time=0
note_on channel=0 note=92 velocity=0 time=40
note_on channel=0 note=91 velocity=81 time=0
note_on channel=0 note=56 velocity=0 time=33
note_on channel=0 note=58 velocity=61 time=0
note_on channel=0 note=58 velocity=0 time=17
note_on channel=0 note=91 velocity=0 time=0
note_on channel=0 note=89 velocity=79 time=0
note_on channel=0 note=56 velocity=67 time=0
note_on channel=0 note=56 velocity=0 time=9
note_on channel=0 note=58 velocity=62 time=0
note_on channel=0 note=89 velocity=0 time=17
note_on channel=0 note=87 velocity=77 time=0
note_on channel=0 note=58 velocity=0 time=40
note_on channel=0 note=56 velocity=67 time=0
note_on channel=0 note=56 velocity=0 time=17
note_on channel=0 note=87 velocity=0 time=0
note_on channel=0 note=84 velocity=0 time=0
note_on channel=0 note=78 velocity=75 time=0
note_on channel=0 note=86 velocity=75 time=0
note_on channel=0 note=58 velocity=61 time=0
note_on channel=0 note=58 velocity=0 time=49
note_on channel=0 note=56 velocity=67 time=0
note_on channel=0 note=86 velocity=0 time=17
note_on channel=0 note=84 velocity=73 time=0
note_on channel=0 note=56 velocity=0 time=9
note_on channel=0 note=58 velocity=62 time=0
note_on channel=0 note=58 velocity=0 time=41
note_on channel=0 note=84 velocity=0 time=0
note_on channel=0 note=78 velocity=0 time=0
note_on channel=0 note=83 velocity=79 time=0
note_on channel=0 note=79 velocity=73 time=0
note_on channel=0 note=55 velocity=73 time=0
note_on channel=0 note=55 velocity=0 time=0
note_on channel=0 note=79 velocity=0 time=0
note_on channel=0 note=83 velocity=0 time=0
note_on channel=0 note=74 velocity=73 time=0
note_on channel=0 note=59 velocity=65 time=0
note_on channel=0 note=59 velocity=0 time=120
note_on channel=0 note=74 velocity=0 time=0
note_on channel=0 note=59 velocity=73 time=0
note_on channel=0 note=43 velocity=62 time=0
note_on channel=0 note=43 velocity=0 time=34
note_on channel=0 note=59 velocity=0 time=0
note_on channel=0 note=60 velocity=68 time=0
note_on channel=0 note=44 velocity=54 time=0
note_on channel=0 note=44 velocity=0 time=60
note_on channel=0 note=60 velocity=0 time=0
note_on channel=0 note=59 velocity=73 time=0
note_on channel=0 note=43 velocity=61 time=0
note_on channel=0 note=43 velocity=0 time=60
note_on channel=0 note=59 velocity=0 time=0
note_on channel=0 note=60 velocity=66 time=0
note_on channel=0 note=44 velocity=54 time=0
note_on channel=0 note=44 velocity=0 time=60
note_on channel=0 note=60 velocity=0 time=0
note_on channel=0 note=55 velocity=73 time=0
note_on channel=0 note=55 velocity=0 time=74
note_on channel=0 note=71 velocity=73 time=120
note_on channel=0 note=71 velocity=0 time=14
note_on channel=0 note=72 velocity=68 time=0
note_on channel=0 note=72 velocity=0 time=60
note_on channel=0 note=71 velocity=73 time=0
note_on channel=0 note=71 velocity=0 time=60
note_on channel=0 note=72 velocity=66 time=0
note_on channel=0 note=72 velocity=0 time=0
note_on channel=0 note=79 velocity=73 time=0
note_on channel=0 note=63 velocity=64 time=0
note_on channel=0 note=63 velocity=0 time=80
note_on channel=0 note=79 velocity=0 time=0
note_on channel=0 note=63 velocity=73 time=0
note_on channel=0 note=48 velocity=62 time=0
note_on channel=0 note=48 velocity=0 time=14
note_on channel=0 note=63 velocity=0 time=0
note_on channel=0 note=65 velocity=68 time=0
note_on channel=0 note=50 velocity=54 time=0
note_on channel=0 note=50 velocity=0 time=60
note_on channel=0 note=65 velocity=0 time=0
note_on channel=0 note=63 velocity=73 time=0
note_on channel=0 note=48 velocity=61 time=0
note_on channel=0 note=48 velocity=0 time=60
note_on channel=0 note=63 velocity=0 time=0
note_on channel=0 note=65 velocity=66 time=0
note_on channel=0 note=50 velocity=54 time=0
note_on channel=0 note=50 velocity=0 time=60
note_on channel=0 note=65 velocity=0 time=0
note_on channel=0 note=60 velocity=73 time=0
note_on channel=0 note=60 velocity=0 time=88
note_on channel=0 note=75 velocity=75 time=120
note_on channel=0 note=75 velocity=0 time=20
note_on channel=0 note=77 velocity=70 time=0
note_on channel=0 note=77 velocity=0 time=60
note_on channel=0 note=75 velocity=75 time=0
note_on channel=0 note=75 velocity=0 time=60
note_on channel=0 note=77 velocity=68 time=0
note_on channel=0 note=77 velocity=0 time=0
note_on channel=0 note=84 velocity=75 time=0
note_on channel=0 note=57 velocity=66 time=0
note_on channel=0 note=57 velocity=0 time=54
note_on channel=0 note=84 velocity=0 time=0
note_on channel=0 note=69 velocity=77 time=0
note_on channel=0 note=42 velocity=65 time=0
note_on channel=0 note=42 velocity=0 time=11
note_on channel=0 note=69 velocity=0 time=0
note_on channel=0 note=70 velocity=72 time=0
note_on channel=0 note=43 velocity=57 time=0
note_on channel=0 note=43 velocity=0 time=60
note_on channel=0 note=70 velocity=0 time=0
note_on channel=0 note=69 velocity=78 time=0
note_on channel=0 note=42 velocity=65 time=0
note_on channel=0 note=42 velocity=0 time=60
note_on channel=0 note=69 velocity=0 time=0
note_on channel=0 note=70 velocity=70 time=0
note_on channel=0 note=43 velocity=57 time=0
note_on channel=0 note=43 velocity=0 time=60
note_on channel=0 note=70 velocity=0 time=0
note_on channel=0 note=62 velocity=78 time=0
note_on channel=0 note=62 velocity=0 time=11
note_on channel=0 note=78 velocity=79 time=120
note_on channel=0 note=78 velocity=0 time=25
note_on channel=0 note=79 velocity=74 time=0
note_on channel=0 note=79 velocity=0 time=60
note_on channel=0 note=78 velocity=80 time=0
note_on channel=0 note=78 velocity=0 time=60
note_on channel=0 note=79 velocity=72 time=0
note_on channel=0 note=79 velocity=0 time=0
note_on channel=0 note=86 velocity=81 time=0
note_on channel=0 note=58 velocity=68 time=0
note_on channel=0 note=58 velocity=0 time=54
note_on channel=0 note=86 velocity=0 time=0
note_on channel=0 note=70 velocity=81 time=0
note_on channel=0 note=43 velocity=69 time=0
note_on channel=0 note=43 velocity=0 time=14
note_on channel=0 note=44 velocity=61 time=0
note_on channel=0 note=44 velocity=0 time=60
note_on channel=0 note=43 velocity=68 time=0
note_on channel=0 note=43 velocity=0 time=60
note_on channel=0 note=44 velocity=61 time=0
note_on channel=0 note=44 velocity=0 time=60
note_on channel=0 note=70 velocity=0 time=0
note_on channel=0 note=67 velocity=83 time=0
note_on channel=0 note=67 velocity=0 time=108
note_on channel=0 note=82 velocity=83 time=0
note_on channel=0 note=82 velocity=0 time=14
note_on channel=0 note=84 velocity=78 time=0
note_on channel=0 note=84 velocity=0 time=60
note_on channel=0 note=82 velocity=84 time=0
note_on channel=0 note=82 velocity=0 time=60
note_on channel=0 note=84 velocity=77 time=0
note_on channel=0 note=84 velocity=0 time=0
note_on channel=0 note=91 velocity=86 time=0
note_on channel=0 note=64 velocity=75 time=0
note_on channel=0 note=64 velocity=0 time=71
note_on channel=0 note=91 velocity=0 time=0
note_on channel=0 note=76 velocity=88 time=0
note_on channel=0 note=49 velocity=75 time=0
note_on channel=0 note=49 velocity=0 time=14
note_on channel=0 note=76 velocity=0 time=0
note_on channel=0 note=77 velocity=82 time=0
note_on channel=0 note=50 velocity=65 time=0
note_on channel=0 note=50 velocity=0 time=60
note_on channel=0 note=77 velocity=0 time=0
note_on channel=0 note=76 velocity=89 time=0
note_on channel=0 note=49 velocity=74 time=0
note_on channel=0 note=49 velocity=0 time=60
note_on channel=0 note=76 velocity=0 time=0
note_on channel=0 note=77 velocity=81 time=0
note_on channel=0 note=50 velocity=66 time=0
note_on channel=0 note=50 velocity=0 time=60
note_on channel=0 note=77 velocity=0 time=0
note_on channel=0 note=73 velocity=90 time=0
note_on channel=0 note=73 velocity=0 time=20
note_on channel=0 note=88 velocity=92 time=120
note_on channel=0 note=88 velocity=0 time=5
note_on channel=0 note=89 velocity=86 time=0
note_on channel=0 note=89 velocity=0 time=60
note_on channel=0 note=88 velocity=93 time=0
note_on channel=0 note=88 velocity=0 time=60
note_on channel=0 note=89 velocity=85 time=0
note_on channel=0 note=89 velocity=0 time=0
note_on channel=0 note=81 velocity=93 time=0
note_on channel=0 note=93 velocity=93 time=0
note_on channel=0 note=57 velocity=82 time=0
note_on channel=0 note=57 velocity=0 time=68
note_on channel=0 note=93 velocity=0 time=0
note_on channel=0 note=81 velocity=0 time=0
note_on channel=0 note=89 velocity=94 time=0
note_on channel=0 note=77 velocity=79 time=0
note_on channel=0 note=53 velocity=67 time=0
note_on channel=0 note=53 velocity=0 time=60
note_on channel=0 note=77 velocity=0 time=0
note_on channel=0 note=89 velocity=0 time=0
note_on channel=0 note=86 velocity=95 time=120
note_on channel=0 note=74 velocity=80 time=0
note_on channel=0 note=50 velocity=69 time=0
note_on channel=0 note=50 velocity=0 time=120
note_on channel=0 note=74 velocity=0 time=0
note_on channel=0 note=86 velocity=0 time=0
note_on channel=0 note=81 velocity=97 time=120
note_on channel=0 note=69 velocity=82 time=0
note_on channel=0 note=45 velocity=70 time=0
note_on channel=0 note=45 velocity=0 time=120
note_on channel=0 note=69 velocity=0 time=0
note_on channel=0 note=81 velocity=0 time=0
note_on channel=0 note=77 velocity=98 time=120
note_on channel=0 note=65 velocity=83 time=0
note_on channel=0 note=41 velocity=72 time=0
note_on channel=0 note=41 velocity=0 time=120
note_on channel=0 note=65 velocity=0 time=0
note_on channel=0 note=77 velocity=0 time=0
note_on channel=0 note=74 velocity=101 time=120
note_on channel=0 note=62 velocity=85 time=0
note_on channel=0 note=38 velocity=73 time=0
note_on channel=0 note=38 velocity=0 time=120
note_on channel=0 note=62 velocity=0 time=0
note_on channel=0 note=74 velocity=0 time=0
note_on channel=0 note=69 velocity=93 time=114
note_on channel=0 note=57 velocity=78 time=0
note_on channel=0 note=33 velocity=57 time=0
note_on channel=0 note=45 velocity=68 time=0
note_on channel=0 note=45 velocity=0 time=120
note_on channel=0 note=69 velocity=0 time=0
note_on channel=0 note=57 velocity=0 time=0
note_on channel=0 note=33 velocity=0 time=0
note_on channel=0 note=56 velocity=80 time=0
note_on channel=0 note=62 velocity=80 time=0
note_on channel=0 note=68 velocity=95 time=0
note_on channel=0 note=46 velocity=70 time=0
note_on channel=0 note=34 velocity=58 time=0
note_on channel=0 note=34 velocity=0 time=120
note_on channel=0 note=68 velocity=0 time=0
note_on channel=0 note=56 velocity=0 time=0
note_on channel=0 note=62 velocity=0 time=0
note_on channel=0 note=46 velocity=0 time=0
note_on channel=0 note=80 velocity=96 time=120
note_on channel=0 note=74 velocity=81 time=0
note_on channel=0 note=68 velocity=81 time=0
note_on channel=0 note=34 velocity=59 time=0
note_on channel=0 note=46 velocity=71 time=0
note_on channel=0 note=46 velocity=0 time=120
note_on channel=0 note=68 velocity=0 time=0
note_on channel=0 note=80 velocity=0 time=0
note_on channel=0 note=74 velocity=0 time=0
note_on channel=0 note=34 velocity=0 time=0
note_on channel=0 note=81 velocity=98 time=0
note_on channel=0 note=73 velocity=82 time=0
note_on channel=0 note=69 velocity=82 time=0
note_on channel=0 note=33 velocity=60 time=0
note_on channel=0 note=37 velocity=60 time=0
note_on channel=0 note=45 velocity=72 time=0
note_on channel=0 note=40 velocity=60 time=0
note_on channel=0 note=40 velocity=0 time=57
note_on channel=0 note=37 velocity=0 time=0
note_on channel=0 note=73 velocity=0 time=0
note_on channel=0 note=69 velocity=0 time=0
note_on channel=0 note=81 velocity=0 time=0
note_on channel=0 note=45 velocity=0 time=0
note_on channel=0 note=33 velocity=0 time=0
note_on channel=0 note=93 velocity=110 time=177
note_on channel=0 note=88 velocity=93 time=0
note_on channel=0 note=85 velocity=93 time=0
note_on channel=0 note=81 velocity=93 time=0
note_on channel=0 note=33 velocity=65 time=0
note_on channel=0 note=45 velocity=76 time=0
note_on channel=0 note=37 velocity=65 time=0
note_on channel=0 note=40 velocity=65 time=0
note_on channel=0 note=40 velocity=0 time=17
note_on channel=0 note=93 velocity=0 time=0
note_on channel=0 note=33 velocity=0 time=0
note_on channel=0 note=88 velocity=0 time=0
note_on channel=0 note=85 velocity=0 time=0
note_on channel=0 note=81 velocity=0 time=0
note_on channel=0 note=45 velocity=0 time=0
note_on channel=0 note=37 velocity=0 time=0
note_on channel=0 note=69 velocity=50 time=0
note_on channel=0 note=67 velocity=45 time=0
note_on channel=0 note=69 velocity=0 time=24
note_on channel=0 note=66 velocity=50 time=456
note_on channel=0 note=67 velocity=0 time=24
note_on channel=0 note=67 velocity=46 time=456
note_on channel=0 note=66 velocity=0 time=24
note_on channel=0 note=69 velocity=46 time=456
note_on channel=0 note=67 velocity=0 time=24
note_on channel=0 note=69 velocity=0 time=456
note_on channel=0 note=62 velocity=50 time=0
note_on channel=0 note=62 velocity=0 time=0
note_on channel=0 note=62 velocity=44 time=0
note_on channel=0 note=64 velocity=44 time=0
note_on channel=0 note=60 velocity=44 time=480
note_on channel=0 note=66 velocity=44 time=0
note_on channel=0 note=64 velocity=0 time=24
note_on channel=0 note=62 velocity=0 time=0
note_on channel=0 note=60 velocity=0 time=456
note_on channel=0 note=66 velocity=0 time=0
note_on channel=0 note=67 velocity=50 time=0
note_on channel=0 note=59 velocity=50 time=0
note_on channel=0 note=61 velocity=41 time=0
note_on channel=0 note=59 velocity=0 time=24
note_on channel=0 note=67 velocity=0 time=456
note_on channel=0 note=66 velocity=44 time=0
note_on channel=0 note=62 velocity=44 time=0
note_on channel=0 note=61 velocity=0 time=24
note_on channel=0 note=66 velocity=0 time=0
note_on channel=0 note=64 velocity=50 time=0
note_on channel=0 note=62 velocity=0 time=0
note_on channel=0 note=61 velocity=42 time=0
note_on channel=0 note=57 velocity=44 time=0
note_on channel=0 note=64 velocity=0 time=0
note_on channel=0 note=69 velocity=47 time=0
note_on channel=0 note=55 velocity=42 time=0
note_on channel=0 note=57 velocity=0 time=24
note_on channel=0 note=61 velocity=0 time=360
note_on channel=0 note=63 velocity=48 time=0
note_on channel=0 note=54 velocity=42 time=0
note_on channel=0 note=55 velocity=0 time=24
note_on channel=0 note=64 velocity=47 time=456
note_on channel=0 note=55 velocity=44 time=0
note_on channel=0 note=54 velocity=0 time=24
note_on channel=0 note=63 velocity=0 time=0
note_on channel=0 note=66 velocity=48 time=0
note_on channel=0 note=57 velocity=44 time=0
note_on channel=0 note=55 velocity=0 time=24
note_on channel=0 note=64 velocity=0 time=0
note_on channel=0 note=69 velocity=0 time=0
note_on channel=0 note=71 velocity=52 time=0
note_on channel=0 note=57 velocity=0 time=480
note_on channel=0 note=66 velocity=0 time=0
note_on channel=0 note=73 velocity=54 time=0
note_on channel=0 note=64 velocity=45 time=0
note_on channel=0 note=55 velocity=44 time=0
note_on channel=0 note=71 velocity=0 time=24
note_on channel=0 note=64 velocity=0 time=456
note_on channel=0 note=74 velocity=54 time=0
note_on channel=0 note=62 velocity=45 time=0
note_on channel=0 note=54 velocity=40 time=0
note_on channel=0 note=73 velocity=0 time=24
note_on channel=0 note=55 velocity=0 time=0
note_on channel=0 note=54 velocity=0 time=0
note_on channel=0 note=74 velocity=0 time=0
note_on channel=0 note=69 velocity=50 time=0
note_on channel=0 note=59 velocity=47 time=0
note_on channel=0 note=59 velocity=0 time=0
note_on channel=0 note=69 velocity=0 time=0
note_on channel=0 note=62 velocity=0 time=0
note_on channel=0 note=67 velocity=47 time=0
note_on channel=0 note=64 velocity=47 time=0
note_on channel=0 note=49 velocity=40 time=0
note_on channel=0 note=49 velocity=0 time=0
note_on channel=0 note=64 velocity=0 time=0
note_on channel=0 note=67 velocity=0 time=0
note_on channel=0 note=66 velocity=47 time=0
note_on channel=0 note=57 velocity=39 time=0
note_on channel=0 note=50 velocity=40 time=0
note_on channel=0 note=50 velocity=0 time=0
note_on channel=0 note=57 velocity=0 time=0
note_on channel=0 note=58 velocity=50 time=0
note_on channel=0 note=43 velocity=43 time=0
note_on channel=0 note=43 velocity=0 time=480
note_on channel=0 note=58 velocity=0 time=0
note_on channel=0 note=66 velocity=0 time=0
note_on channel=0 note=64 velocity=46 time=0
note_on channel=0 note=59 velocity=46 time=0
note_on channel=0 note=44 velocity=41 time=0
note_on channel=0 note=44 velocity=0 time=480
note_on channel=0 note=59 velocity=0 time=0
note_on channel=0 note=61 velocity=46 time=0
note_on channel=0 note=45 velocity=41 time=0
note_on channel=0 note=45 velocity=0 time=0
note_on channel=0 note=61 velocity=0 time=0
note_on channel=0 note=62 velocity=50 time=0
note_on channel=0 note=47 velocity=37 time=0
note_on channel=0 note=47 velocity=0 time=480
note_on channel=0 note=62 velocity=0 time=0
note_on channel=0 note=64 velocity=0 time=0
note_on channel=0 note=69 velocity=51 time=0
note_on channel=0 note=76 velocity=60 time=0
note_on channel=0 note=42 velocity=47 time=0
note_on channel=0 note=71 velocity=45 time=360
note_on channel=0 note=74 velocity=54 time=0
note_on channel=0 note=44 velocity=47 time=0
note_on channel=0 note=42 velocity=0 time=24
note_on channel=0 note=69 velocity=0 time=0
note_on channel=0 note=76 velocity=0 time=0
note_on channel=0 note=73 velocity=58 time=0
note_on channel=0 note=45 velocity=47 time=0
note_on channel=0 note=44 velocity=0 time=24
note_on channel=0 note=74 velocity=0 time=0
note_on channel=0 note=71 velocity=0 time=0
note_on channel=0 note=69 velocity=42 time=0
note_on channel=0 note=74 velocity=53 time=0
note_on channel=0 note=47 velocity=46 time=0
note_on channel=0 note=45 velocity=0 time=24
note_on channel=0 note=73 velocity=0 time=0
note_on channel=0 note=67 velocity=42 time=456
note_on channel=0 note=76 velocity=53 time=0
note_on channel=0 note=49 velocity=47 time=0
note_on channel=0 note=74 velocity=0 time=24
note_on channel=0 note=47 velocity=0 time=0
note_on channel=0 note=69 velocity=0 time=0
note_on channel=0 note=67 velocity=0 time=0
note_on channel=0 note=76 velocity=0 time=0
note_on channel=0 note=49 velocity=0 time=0
note_on channel=0 note=66 velocity=42 time=0
note_on channel=0 note=69 velocity=50 time=0
note_on channel=0 note=50 velocity=47 time=0
note_on channel=0 note=67 velocity=39 time=480
note_on channel=0 note=71 velocity=46 time=0
note_on channel=0 note=62 velocity=44 time=0
note_on channel=0 note=50 velocity=0 time=24
note_on channel=0 note=66 velocity=0 time=0
note_on channel=0 note=69 velocity=0 time=0
note_on channel=0 note=69 velocity=39 time=360
note_on channel=0 note=72 velocity=46 time=0
note_on channel=0 note=60 velocity=44 time=0
note_on channel=0 note=67 velocity=0 time=24
note_on channel=0 note=62 velocity=0 time=0
note_on channel=0 note=71 velocity=0 time=0
note_on channel=0 note=74 velocity=52 time=456
note_on channel=0 note=62 velocity=42 time=0
note_on channel=0 note=59 velocity=47 time=0
note_on channel=0 note=69 velocity=0 time=24
note_on channel=0 note=60 velocity=0 time=0
note_on channel=0 note=72 velocity=0 time=0
note_on channel=0 note=64 velocity=44 time=456
note_on channel=0 note=61 velocity=39 time=0
note_on channel=0 note=59 velocity=0 time=24
note_on channel=0 note=62 velocity=0 time=0
note_on channel=0 note=74 velocity=0 time=0
note_on channel=0 note=73 velocity=52 time=0
note_on channel=0 note=66 velocity=44 time=0
note_on channel=0 note=62 velocity=40 time=0
note_on channel=0 note=61 velocity=0 time=24
note_on channel=0 note=64 velocity=0 time=0
note_on channel=0 note=66 velocity=0 time=0
note_on channel=0 note=62 velocity=0 time=0
note_on channel=0 note=67 velocity=50 time=0
note_on channel=0 note=55 velocity=42 time=0
note_on channel=0 note=73 velocity=0 time=480
note_on channel=0 note=71 velocity=46 time=0
note_on channel=0 note=57 velocity=44 time=0
note_on channel=0 note=55 velocity=0 time=24
note_on channel=0 note=67 velocity=0 time=456
note_on channel=0 note=71 velocity=0 time=0
note_on channel=0 note=66 velocity=39 time=0
note_on channel=0 note=69 velocity=46 time=0
note_on channel=0 note=59 velocity=47 time=0
note_on channel=0 note=57 velocity=0 time=24
note_on channel=0 note=59 velocity=0 time=0
note_on channel=0 note=52 velocity=47 time=0
note_on channel=0 note=64 velocity=39 time=0
note_on channel=0 note=67 velocity=46 time=0
note_on channel=0 note=54 velocity=41 time=0
note_on channel=0 note=52 velocity=0 time=24
note_on channel=0 note=66 velocity=0 time=0
note_on channel=0 note=69 velocity=0 time=0
note_on channel=0 note=62 velocity=39 time=0
note_on channel=0 note=66 velocity=46 time=0
note_on channel=0 note=55 velocity=41 time=0
note_on channel=0 note=64 velocity=0 time=24
note_on channel=0 note=54 velocity=0 time=0
note_on channel=0 note=67 velocity=0 time=0
note_on channel=0 note=64 velocity=50 time=0
note_on channel=0 note=56 velocity=47 time=0
note_on channel=0 note=55 velocity=0 time=24
note_on channel=0 note=66 velocity=0 time=0
note_on channel=0 note=62 velocity=0 time=0
note_on channel=0 note=61 velocity=44 time=0
note_on channel=0 note=57 velocity=45 time=0
note_on channel=0 note=56 velocity=0 time=24
note_on channel=0 note=64 velocity=0 time=0
note_on channel=0 note=69 velocity=54 time=0
note_on channel=0 note=55 velocity=45 time=0
note_on channel=0 note=57 velocity=0 time=24
note_on channel=0 note=61 velocity=0 time=0
note_on channel=0 note=55 velocity=0 time=0
note_on channel=0 note=63 velocity=48 time=0
note_on channel=0 note=54 velocity=44 time=0
note_on channel=0 note=54 velocity=0 time=360
note_on channel=0 note=69 velocity=0 time=0
note_on channel=0 note=66 velocity=48 time=0
note_on channel=0 note=59 velocity=45 time=0
note_on channel=0 note=59 velocity=0 time=480
note_on channel=0 note=66 velocity=0 time=0
note_on channel=0 note=71 velocity=54 time=0
note_on channel=0 note=57 velocity=45 time=0
note_on channel=0 note=57 velocity=0 time=0
note_on channel=0 note=63 velocity=0 time=0
note_on channel=0 note=64 velocity=54 time=0
note_on channel=0 note=55 velocity=44 time=0
note_on channel=0 note=64 velocity=0 time=0
note_on channel=0 note=71 velocity=0 time=0
note_on channel=0 note=76 velocity=67 time=0
note_on channel=0 note=61 velocity=51 time=0
note_on channel=0 note=55 velocity=0 time=480
note_on channel=0 note=74 velocity=63 time=0
note_on channel=0 note=59 velocity=47 time=0
note_on channel=0 note=53 velocity=39 time=0
note_on channel=0 note=61 velocity=0 time=24
note_on channel=0 note=76 velocity=0 time=0
note_on channel=0 note=73 velocity=59 time=0
note_on channel=0 note=54 velocity=44 time=0
note_on channel=0 note=58 velocity=51 time=0
note_on channel=0 note=59 velocity=0 time=24
note_on channel=0 note=53 velocity=0 time=0
note_on channel=0 note=74 velocity=0 time=0
note_on channel=0 note=73 velocity=0 time=456
note_on channel=0 note=58 velocity=0 time=0
note_on channel=0 note=78 velocity=64 time=0
note_on channel=0 note=62 velocity=54 time=0
note_on channel=0 note=54 velocity=0 time=360
note_on channel=0 note=76 velocity=57 time=0
note_on channel=0 note=61 velocity=54 time=0
note_on channel=0 note=56 velocity=54 time=0
note_on channel=0 note=62 velocity=0 time=24
note_on channel=0 note=78 velocity=0 time=0
note_on channel=0 note=58 velocity=48 time=216
note_on channel=0 note=56 velocity=0 time=24
note_on channel=0 note=74 velocity=57 time=0
note_on channel=0 note=59 velocity=44 time=0
note_on channel=0 note=62 velocity=54 time=0
note_on channel=0 note=61 velocity=0 time=24
note_on channel=0 note=58 velocity=0 time=0
note_on channel=0 note=76 velocity=0 time=0
note_on channel=0 note=74 velocity=0 time=0
note_on channel=0 note=59 velocity=0 time=0
note_on channel=0 note=62 velocity=0 time=0
note_on channel=0 note=81 velocity=71 time=0
note_on channel=0 note=57 velocity=46 time=0
note_on channel=0 note=61 velocity=55 time=0
note_on channel=0 note=61 velocity=0 time=480
note_on channel=0 note=79 velocity=68 time=0
note_on channel=0 note=61 velocity=45 time=0
note_on channel=0 note=64 velocity=54 time=0
note_on channel=0 note=57 velocity=0 time=24
note_on channel=0 note=81 velocity=0 time=0
note_on channel=0 note=78 velocity=67 time=0
note_on channel=0 note=62 velocity=47 time=0
note_on channel=0 note=66 velocity=56 time=0
note_on channel=0 note=61 velocity=0 time=24
note_on channel=0 note=64 velocity=0 time=0
note_on channel=0 note=79 velocity=0 time=0
note_on channel=0 note=78 velocity=0 time=0
note_on channel=0 note=62 velocity=0 time=0
note_on channel=0 note=66 velocity=0 time=0
note_on channel=0 note=71 velocity=53 time=0
note_on channel=0 note=75 velocity=63 time=0
note_on channel=0 note=54 velocity=52 time=0
note_on channel=0 note=54 velocity=0 time=0
note_on channel=0 note=75 velocity=0 time=0
note_on channel=0 note=71 velocity=0 time=0
note_on channel=0 note=69 velocity=46 time=0
note_on channel=0 note=78 velocity=56 time=0
note_on channel=0 note=51 velocity=51 time=0
note_on channel=0 note=51 velocity=0 time=0
note_on channel=0 note=78 velocity=0 time=0
note_on channel=0 note=69 velocity=0 time=0
note_on channel=0 note=67 velocity=51 time=0
note_on channel=0 note=71 velocity=62 time=0
note_on channel=0 note=52 velocity=54 time=0
note_on channel=0 note=52 velocity=0 time=480
note_on channel=0 note=71 velocity=0 time=0
note_on channel=0 note=67 velocity=0 time=0
note_on channel=0 note=66 velocity=42 time=0
note_on channel=0 note=69 velocity=50 time=0
note_on channel=0 note=64 velocity=53 time=0
note_on channel=0 note=68 velocity=42 time=480
note_on channel=0 note=71 velocity=49 time=0
note_on channel=0 note=62 velocity=52 time=0
note_on channel=0 note=64 velocity=0 time=24
note_on channel=0 note=66 velocity=0 time=0
note_on channel=0 note=69 velocity=0 time=0
note_on channel=0 note=69 velocity=50 time=456
note_on channel=0 note=73 velocity=57 time=0
note_on channel=0 note=61 velocity=59 time=0
note_on channel=0 note=68 velocity=0 time=24
note_on channel=0 note=62 velocity=0 time=0
note_on channel=0 note=71 velocity=0 time=0
note_on channel=0 note=69 velocity=0 time=0
note_on channel=0 note=73 velocity=0 time=0
note_on channel=0 note=61 velocity=0 time=0
note_on channel=0 note=71 velocity=44 time=0
note_on channel=0 note=74 velocity=61 time=0
note_on channel=0 note=45 velocity=50 time=0
note_on channel=0 note=76 velocity=62 time=0
note_on channel=0 note=73 velocity=44 time=0
note_on channel=0 note=43 velocity=47 time=0
note_on channel=0 note=45 velocity=0 time=24
note_on channel=0 note=71 velocity=0 time=0
note_on channel=0 note=74 velocity=0 time=0
note_on channel=0 note=69 velocity=55 time=0
note_on channel=0 note=42 velocity=48 time=0
note_on channel=0 note=43 velocity=0 time=24
note_on channel=0 note=73 velocity=0 time=0
note_on channel=0 note=76 velocity=0 time=0
note_on channel=0 note=69 velocity=0 time=0
note_on channel=0 note=42 velocity=0 time=0
note_on channel=0 note=65 velocity=49 time=0
note_on channel=0 note=74 velocity=58 time=0
note_on channel=0 note=44 velocity=47 time=0
note_on channel=0 note=64 velocity=46 time=0
note_on channel=0 note=73 velocity=54 time=0
note_on channel=0 note=45 velocity=47 time=0
note_on channel=0 note=44 velocity=0 time=24
note_on channel=0 note=65 velocity=0 time=0
note_on channel=0 note=74 velocity=0 time=0
note_on channel=0 note=62 velocity=44 time=456
note_on channel=0 note=71 velocity=52 time=0
note_on channel=0 note=64 velocity=0 time=24
note_on channel=0 note=73 velocity=0 time=0
note_on channel=0 note=45 velocity=0 time=411
note_on channel=0 note=44 velocity=43 time=0
note_on channel=0 note=44 velocity=0 time=480
note_on channel=0 note=40 velocity=43 time=0
note_on channel=0 note=40 velocity=0 time=0
note_on channel=0 note=45 velocity=47 time=0
note_on channel=0 note=45 velocity=0 time=0
note_on channel=0 note=71 velocity=0 time=0
note_on channel=0 note=62 velocity=0 time=0
note_on channel=0 note=61 velocity=45 time=0
note_on channel=0 note=69 velocity=53 time=0
note_on channel=0 note=57 velocity=43 time=0
note_on channel=0 note=57 velocity=0 time=0
note_on channel=0 note=69 velocity=0 time=0
note_on channel=0 note=61 velocity=0 time=0
note_on channel=0 note=63 velocity=46 time=0
note_on channel=0 note=72 velocity=55 time=0
note_on channel=0 note=54 velocity=43 time=0
note_on channel=0 note=54 velocity=0 time=480
note_on channel=0 note=55 velocity=47 time=0
note_on channel=0 note=72 velocity=0 time=0
note_on channel=0 note=63 velocity=0 time=0
note_on channel=0 note=64 velocity=45 time=0
note_on channel=0 note=71 velocity=54 time=0
note_on channel=0 note=71 velocity=0 time=0
note_on channel=0 note=64 velocity=0 time=0
note_on channel=0 note=55 velocity=0 time=0
note_on channel=0 note=67 velocity=42 time=0
note_on channel=0 note=73 velocity=53 time=0
note_on channel=0 note=52 velocity=47 time=0
note_on channel=0 note=52 velocity=0 time=0
note_on channel=0 note=51 velocity=42 time=0
note_on channel=0 note=51 velocity=0 time=0
note_on channel=0 note=73 velocity=0 time=0
note_on channel=0 note=67 velocity=0 time=0
note_on channel=0 note=66 velocity=45 time=0
note_on channel=0 note=74 velocity=57 time=0
note_on channel=0 note=50 velocity=46 time=0
note_on channel=0 note=50 velocity=0 time=160
note_on channel=0 note=74 velocity=0 time=0
note_on channel=0 note=66 velocity=0 time=0
note_on channel=0 note=75 velocity=54 time=0
note_on channel=0 note=67 velocity=45 time=0
note_on channel=0 note=48 velocity=46 time=0
note_on channel=0 note=48 velocity=0 time=0
note_on channel=0 note=67 velocity=0 time=0
note_on channel=0 note=57 velocity=44 time=0
note_on channel=0 note=53 velocity=30 time=0
note_on channel=0 note=53 velocity=0 time=0
note_on channel=0 note=57 velocity=0 time=0
note_on channel=0 note=75 velocity=0 time=0
note_on channel=0 note=74 velocity=58 time=0
note_on channel=0 note=58 velocity=46 time=0
note_on channel=0 note=46 velocity=39 time=0
note_on channel=0 note=46 velocity=0 time=0
note_on channel=0 note=58 velocity=0 time=0
note_on channel=0 note=74 velocity=0 time=0
note_on channel=0 note=73 velocity=55 time=0
note_on channel=0 note=46 velocity=39 time=0
note_on channel=0 note=52 velocity=46 time=0
note_on channel=0 note=52 velocity=0 time=0
note_on channel=0 note=46 velocity=0 time=0
note_on channel=0 note=73 velocity=0 time=0
note_on channel=0 note=72 velocity=55 time=0
note_on channel=0 note=53 velocity=46 time=0
note_on channel=0 note=45 velocity=46 time=0
note_on channel=0 note=72 velocity=0 time=240
note_on channel=0 note=45 velocity=0 time=24
note_on channel=0 note=53 velocity=0 time=0
note_on channel=0 note=69 velocity=50 time=0
note_on channel=0 note=77 velocity=50 time=0
note_on channel=0 note=48 velocity=46 time=0
note_on channel=0 note=69 velocity=0 time=34
note_on channel=0 note=70 velocity=44 time=0
note_on channel=0 note=70 velocity=0 time=24
note_on channel=0 note=69 velocity=50 time=0
note_on channel=0 note=69 velocity=0 time=40
note_on channel=0 note=70 velocity=44 time=0
note_on channel=0 note=70 velocity=0 time=24
note_on channel=0 note=69 velocity=50 time=0
note_on channel=0 note=69 velocity=0 time=8
note_on channel=0 note=70 velocity=44 time=0
note_on channel=0 note=70 velocity=0 time=80
note_on channel=0 note=48 velocity=0 time=0
note_on channel=0 note=77 velocity=0 time=0
note_on channel=0 note=69 velocity=50 time=0
note_on channel=0 note=75 velocity=45 time=0
note_on channel=0 note=41 velocity=46 time=0
note_on channel=0 note=69 velocity=0 time=8
note_on channel=0 note=70 velocity=45 time=0
note_on channel=0 note=70 velocity=0 time=24
note_on channel=0 note=69 velocity=50 time=0
note_on channel=0 note=69 velocity=0 time=8
note_on channel=0 note=70 velocity=49 time=0
note_on channel=0 note=70 velocity=0 time=4
note_on channel=0 note=69 velocity=46 time=0
note_on channel=0 note=69 velocity=0 time=32
note_on channel=0 note=67 velocity=46 time=0
note_on channel=0 note=67 velocity=0 time=60
note_on channel=0 note=69 velocity=46 time=0
note_on channel=0 note=69 velocity=0 time=0
note_on channel=0 note=41 velocity=0 time=0
note_on channel=0 note=75 velocity=0 time=0
note_on channel=0 note=74 velocity=50 time=0
note_on channel=0 note=46 velocity=46 time=0
note_on channel=0 note=46 velocity=0 time=0
note_on channel=0 note=75 velocity=46 time=0
note_on channel=0 note=74 velocity=0 time=24
note_on channel=0 note=70 velocity=43 time=216
note_on channel=0 note=69 velocity=39 time=120
note_on channel=0 note=70 velocity=0 time=24
note_on channel=0 note=67 velocity=42 time=0
note_on channel=0 note=77 velocity=46 time=0
note_on channel=0 note=69 velocity=0 time=24
note_on channel=0 note=75 velocity=0 time=0
note_on channel=0 note=65 velocity=41 time=96
note_on channel=0 note=67 velocity=0 time=24
note_on channel=0 note=63 velocity=39 time=96
note_on channel=0 note=65 velocity=0 time=24
note_on channel=0 note=62 velocity=37 time=96
note_on channel=0 note=63 velocity=0 time=24
note_on channel=0 note=62 velocity=0 time=0
note_on channel=0 note=77 velocity=0 time=0
note_on channel=0 note=67 velocity=50 time=0
note_on channel=0 note=71 velocity=50 time=0
note_on channel=0 note=71 velocity=0 time=0
note_on channel=0 note=67 velocity=0 time=0
note_on channel=0 note=72 velocity=44 time=0
note_on channel=0 note=67 velocity=40 time=240
note_on channel=0 note=65 velocity=38 time=120
note_on channel=0 note=67 velocity=0 time=24
note_on channel=0 note=63 velocity=40 time=0
note_on channel=0 note=74 velocity=44 time=0
note_on channel=0 note=65 velocity=0 time=24
note_on channel=0 note=72 velocity=0 time=0
note_on channel=0 note=62 velocity=40 time=96
note_on channel=0 note=63 velocity=0 time=24
note_on channel=0 note=60 velocity=39 time=96
note_on channel=0 note=62 velocity=0 time=24
note_on channel=0 note=59 velocity=38 time=96
note_on channel=0 note=60 velocity=0 time=24
note_on channel=0 note=59 velocity=0 time=0
note_on channel=0 note=74 velocity=0 time=0
note_on channel=0 note=62 velocity=46 time=0
note_on channel=0 note=71 velocity=55 time=0
note_on channel=0 note=43 velocity=46 time=0
note_on channel=0 note=71 velocity=0 time=120
note_on channel=0 note=43 velocity=0 time=24
note_on channel=0 note=62 velocity=0 time=0
note_on channel=0 note=67 velocity=50 time=0
note_on channel=0 note=59 velocity=50 time=0
note_on channel=0 note=59 velocity=0 time=34
note_on channel=0 note=60 velocity=44 time=0
note_on channel=0 note=60 velocity=0 time=24
note_on channel=0 note=59 velocity=50 time=0
note_on channel=0 note=59 velocity=0 time=40
note_on channel=0 note=60 velocity=44 time=0
note_on channel=0 note=60 velocity=0 time=24
note_on channel=0 note=59 velocity=51 time=0
note_on channel=0 note=59 velocity=0 time=8
note_on channel=0 note=60 velocity=44 time=0
note_on channel=0 note=60 velocity=0 time=80
note_on channel=0 note=67 velocity=0 time=0
note_on channel=0 note=65 velocity=46 time=0
note_on channel=0 note=59 velocity=51 time=0
note_on channel=0 note=59 velocity=0 time=8
note_on channel=0 note=60 velocity=46 time=0
note_on channel=0 note=60 velocity=0 time=24
note_on channel=0 note=59 velocity=52 time=0
note_on channel=0 note=59 velocity=0 time=8
note_on channel=0 note=60 velocity=51 time=0
note_on channel=0 note=60 velocity=0 time=4
note_on channel=0 note=59 velocity=48 time=0
note_on channel=0 note=59 velocity=0 time=32
note_on channel=0 note=57 velocity=48 time=0
note_on channel=0 note=57 velocity=0 time=60
note_on channel=0 note=59 velocity=48 time=0
note_on channel=0 note=59 velocity=0 time=0
note_on channel=0 note=65 velocity=0 time=0
note_on channel=0 note=64 velocity=53 time=0
note_on channel=0 note=60 velocity=48 time=0
note_on channel=0 note=60 velocity=0 time=0
note_on channel=0 note=65 velocity=50 time=0
note_on channel=0 note=64 velocity=0 time=24
note_on channel=0 note=60 velocity=47 time=216
note_on channel=0 note=58 velocity=43 time=120
note_on channel=0 note=60 velocity=0 time=24
note_on channel=0 note=67 velocity=51 time=0
note_on channel=0 note=57 velocity=47 time=0
note_on channel=0 note=58 velocity=0 time=24
note_on channel=0 note=65 velocity=0 time=0
note_on channel=0 note=55 velocity=46 time=96
note_on channel=0 note=57 velocity=0 time=24
note_on channel=0 note=53 velocity=44 time=96
note_on channel=0 note=55 velocity=0 time=24
note_on channel=0 note=52 velocity=42 time=96
note_on channel=0 note=53 velocity=0 time=24
note_on channel=0 note=52 velocity=0 time=0
note_on channel=0 note=67 velocity=0 time=0
note_on channel=0 note=60 velocity=58 time=0
note_on channel=0 note=57 velocity=53 time=0
note_on channel=0 note=57 velocity=0 time=0
note_on channel=0 note=60 velocity=0 time=0
note_on channel=0 note=62 velocity=52 time=0
note_on channel=0 note=72 velocity=52 time=0
note_on channel=0 note=57 velocity=52 time=240
note_on channel=0 note=55 velocity=47 time=120
note_on channel=0 note=57 velocity=0 time=24
note_on channel=0 note=64 velocity=54 time=0
note_on channel=0 note=70 velocity=54 time=0
note_on channel=0 note=53 velocity=51 time=0
note_on channel=0 note=62 velocity=0 time=24
note_on channel=0 note=55 velocity=0 time=0
note_on channel=0 note=72 velocity=0 time=0
note_on channel=0 note=52 velocity=50 time=96
note_on channel=0 note=53 velocity=0 time=24
note_on channel=0 note=50 velocity=48 time=96
note_on channel=0 note=52 velocity=0 time=24
note_on channel=0 note=48 velocity=46 time=96
note_on channel=0 note=50 velocity=0 time=24
note_on channel=0 note=48 velocity=0 time=0
note_on channel=0 note=70 velocity=0 time=0
note_on channel=0 note=65 velocity=57 time=0
note_on channel=0 note=69 velocity=63 time=0
note_on channel=0 note=53 velocity=57 time=0
note_on channel=0 note=64 velocity=0 time=24
note_on channel=0 note=65 velocity=0 time=0
note_on channel=0 note=69 velocity=0 time=0
note_on channel=0 note=53 velocity=0 time=0
note_on channel=0 note=67 velocity=57 time=0
note_on channel=0 note=70 velocity=57 time=0
note_on channel=0 note=53 velocity=56 time=240
note_on channel=0 note=52 velocity=51 time=120
note_on channel=0 note=53 velocity=0 time=24
note_on channel=0 note=69 velocity=58 time=0
note_on channel=0 note=72 velocity=58 time=0
note_on channel=0 note=50 velocity=55 time=0
note_on channel=0 note=67 velocity=0 time=24
note_on channel=0 note=52 velocity=0 time=0
note_on channel=0 note=70 velocity=0 time=0
note_on channel=0 note=48 velocity=54 time=96
note_on channel=0 note=50 velocity=0 time=24
note_on channel=0 note=46 velocity=52 time=96
note_on channel=0 note=48 velocity=0 time=24
note_on channel=0 note=45 velocity=49 time=96
note_on channel=0 note=46 velocity=0 time=24
note_on channel=0 note=45 velocity=0 time=96
note_on channel=0 note=72 velocity=0 time=0
note_on channel=0 note=63 velocity=70 time=0
note_on channel=0 note=65 velocity=70 time=0
note_on channel=0 note=48 velocity=57 time=0
note_on channel=0 note=69 velocity=0 time=24
note_on channel=0 note=46 velocity=57 time=96
note_on channel=0 note=48 velocity=0 time=24
note_on channel=0 note=63 velocity=0 time=96
note_on channel=0 note=65 velocity=0 time=0
note_on channel=0 note=72 velocity=64 time=0
note_on channel=0 note=45 velocity=57 time=0
note_on channel=0 note=46 velocity=0 time=24
note_on channel=0 note=43 velocity=58 time=96
note_on channel=0 note=45 velocity=0 time=24
note_on channel=0 note=43 velocity=0 time=96
note_on channel=0 note=81 velocity=72 time=0
note_on channel=0 note=41 velocity=81 time=0
note_on channel=0 note=29 velocity=71 time=0
note_on channel=0 note=81 velocity=0 time=30
note_on channel=0 note=82 velocity=57 time=0
note_on channel=0 note=82 velocity=0 time=45
note_on channel=0 note=81 velocity=72 time=0
note_on channel=0 note=81 velocity=0 time=61
note_on channel=0 note=72 velocity=0 time=0
note_on channel=0 note=82 velocity=57 time=0
note_on channel=0 note=77 velocity=72 time=0
note_on channel=0 note=82 velocity=0 time=45
note_on channel=0 note=81 velocity=72 time=0
note_on channel=0 note=81 velocity=0 time=61
note_on channel=0 note=82 velocity=57 time=0
note_on channel=0 note=82 velocity=0 time=77
note_on channel=0 note=29 velocity=0 time=0
note_on channel=0 note=41 velocity=0 time=0
note_on channel=0 note=81 velocity=72 time=0
note_on channel=0 note=39 velocity=72 time=0
note_on channel=0 note=27 velocity=63 time=0
note_on channel=0 note=81 velocity=0 time=13
note_on channel=0 note=82 velocity=57 time=0
note_on channel=0 note=82 velocity=0 time=45
note_on channel=0 note=81 velocity=72 time=0
note_on channel=0 note=81 velocity=0 time=61
note_on channel=0 note=77 velocity=0 time=0
note_on channel=0 note=82 velocity=57 time=0
note_on channel=0 note=78 velocity=81 time=0
note_on channel=0 note=82 velocity=0 time=45
note_on channel=0 note=81 velocity=72 time=0
note_on channel=0 note=81 velocity=0 time=61
note_on channel=0 note=82 velocity=57 time=0
note_on channel=0 note=82 velocity=0 time=45
note_on channel=0 note=27 velocity=0 time=0
note_on channel=0 note=39 velocity=0 time=0
note_on channel=0 note=78 velocity=0 time=0
note_on channel=0 note=26 velocity=71 time=0
note_on channel=0 note=38 velocity=81 time=0
note_on channel=0 note=82 velocity=90 time=240
note_on channel=0 note=82 velocity=0 time=97
note_on channel=0 note=81 velocity=82 time=0
note_on channel=0 note=81 velocity=0 time=109
note_on channel=0 note=38 velocity=0 time=0
note_on channel=0 note=26 velocity=0 time=0
note_on channel=0 note=79 velocity=81 time=0
note_on channel=0 note=39 velocity=73 time=0
note_on channel=0 note=27 velocity=64 time=0
note_on channel=0 note=79 velocity=0 time=5
note_on channel=0 note=77 velocity=80 time=0
note_on channel=0 note=77 velocity=0 time=108
note_on channel=0 note=75 velocity=79 time=0
note_on channel=0 note=75 velocity=0 time=21
note_on channel=0 note=74 velocity=78 time=0
note_on channel=0 note=74 velocity=0 time=13
note_on channel=0 note=27 velocity=0 time=0
note_on channel=0 note=39 velocity=0 time=0
note_on channel=0 note=29 velocity=63 time=0
note_on channel=0 note=41 velocity=72 time=0
note_on channel=0 note=58 velocity=82 time=148
note_on channel=0 note=58 velocity=0 time=40
note_on channel=0 note=56 velocity=73 time=0
note_on channel=0 note=56 velocity=0 time=77
note_on channel=0 note=41 velocity=0 time=0
note_on channel=0 note=29 velocity=0 time=0
note_on channel=0 note=55 velocity=72 time=0
note_on channel=0 note=39 velocity=81 time=0
note_on channel=0 note=27 velocity=71 time=0
note_on channel=0 note=55 velocity=0 time=14
note_on channel=0 note=53 velocity=72 time=0
note_on channel=0 note=53 velocity=0 time=61
note_on channel=0 note=51 velocity=71 time=0
note_on channel=0 note=51 velocity=0 time=21
note_on channel=0 note=50 velocity=70 time=0
note_on channel=0 note=50 velocity=0 time=45
note_on channel=0 note=27 velocity=0 time=0
note_on channel=0 note=39 velocity=0 time=0
note_on channel=0 note=41 velocity=71 time=0
note_on channel=0 note=29 velocity=62 time=0
note_on channel=0 note=79 velocity=95 time=61
note_on channel=0 note=79 velocity=0 time=35
note_on channel=0 note=77 velocity=82 time=0
note_on channel=0 note=77 velocity=0 time=45
note_on channel=0 note=29 velocity=0 time=0
note_on channel=0 note=41 velocity=0 time=0
note_on channel=0 note=75 velocity=81 time=0
note_on channel=0 note=31 velocity=62 time=0
note_on channel=0 note=43 velocity=71 time=0
note_on channel=0 note=75 velocity=0 time=7
note_on channel=0 note=74 velocity=80 time=0
note_on channel=0 note=74 velocity=0 time=29
note_on channel=0 note=72 velocity=79 time=0
note_on channel=0 note=72 velocity=0 time=21
note_on channel=0 note=70 velocity=78 time=0
note_on channel=0 note=70 velocity=0 time=13
note_on channel=0 note=43 velocity=0 time=0
note_on channel=0 note=31 velocity=0 time=0
note_on channel=0 note=40 velocity=80 time=0
note_on channel=0 note=28 velocity=70 time=0
note_on channel=0 note=60 velocity=82 time=143
note_on channel=0 note=60 velocity=0 time=34
note_on channel=0 note=58 velocity=73 time=0
note_on channel=0 note=58 velocity=0 time=13
note_on channel=0 note=28 velocity=0 time=0
note_on channel=0 note=40 velocity=0 time=0
note_on channel=0 note=56 velocity=72 time=0
note_on channel=0 note=29 velocity=60 time=0
note_on channel=0 note=41 velocity=69 time=0
note_on channel=0 note=56 velocity=0 time=34
note_on channel=0 note=55 velocity=72 time=0
note_on channel=0 note=55 velocity=0 time=29
note_on channel=0 note=53 velocity=71 time=0
note_on channel=0 note=53 velocity=0 time=53
note_on channel=0 note=52 velocity=70 time=0
note_on channel=0 note=52 velocity=0 time=45
note_on channel=0 note=41 velocity=0 time=0
note_on channel=0 note=29 velocity=0 time=0
note_on channel=0 note=31 velocity=60 time=0
note_on channel=0 note=43 velocity=69 time=0
note_on channel=0 note=77 velocity=92 time=137
note_on channel=0 note=77 velocity=0 time=21
note_on channel=0 note=76 velocity=82 time=0
note_on channel=0 note=76 velocity=0 time=13
note_on channel=0 note=43 velocity=0 time=0
note_on channel=0 note=31 velocity=0 time=0
note_on channel=0 note=73 velocity=81 time=0
note_on channel=0 note=29 velocity=67 time=0
note_on channel=0 note=41 velocity=77 time=0
note_on channel=0 note=73 velocity=0 time=37
note_on channel=0 note=72 velocity=80 time=0
note_on channel=0 note=72 velocity=0 time=29
note_on channel=0 note=70 velocity=79 time=0
note_on channel=0 note=70 velocity=0 time=53
note_on channel=0 note=69 velocity=78 time=0
note_on channel=0 note=69 velocity=0 time=45
note_on channel=0 note=41 velocity=0 time=0
note_on channel=0 note=29 velocity=0 time=0
note_on channel=0 note=31 velocity=59 time=0
note_on channel=0 note=43 velocity=67 time=0
note_on channel=0 note=57 velocity=82 time=29
note_on channel=0 note=57 velocity=0 time=40
note_on channel=0 note=55 velocity=73 time=0
note_on channel=0 note=55 velocity=0 time=45
note_on channel=0 note=43 velocity=0 time=0
note_on channel=0 note=31 velocity=0 time=0
note_on channel=0 note=54 velocity=72 time=0
note_on channel=0 note=45 velocity=67 time=0
note_on channel=0 note=33 velocity=59 time=0
note_on channel=0 note=54 velocity=0 time=37
note_on channel=0 note=51 velocity=72 time=0
note_on channel=0 note=51 velocity=0 time=61
note_on channel=0 note=50 velocity=71 time=0
note_on channel=0 note=50 velocity=0 time=53
note_on channel=0 note=48 velocity=70 time=0
note_on channel=0 note=48 velocity=0 time=45
note_on channel=0 note=33 velocity=0 time=0
note_on channel=0 note=45 velocity=0 time=0
note_on channel=0 note=30 velocity=64 time=0
note_on channel=0 note=42 velocity=73 time=0
note_on channel=0 note=86 velocity=90 time=148
note_on channel=0 note=86 velocity=0 time=40
note_on channel=0 note=84 velocity=82 time=0
note_on channel=0 note=84 velocity=0 time=45
note_on channel=0 note=42 velocity=0 time=0
note_on channel=0 note=30 velocity=0 time=0
note_on channel=0 note=82 velocity=81 time=0
note_on channel=0 note=43 velocity=65 time=0
note_on channel=0 note=31 velocity=57 time=0
note_on channel=0 note=82 velocity=0 time=34
note_on channel=0 note=81 velocity=80 time=0
note_on channel=0 note=81 velocity=0 time=29
note_on channel=0 note=79 velocity=79 time=0
note_on channel=0 note=79 velocity=0 time=21
note_on channel=0 note=78 velocity=78 time=0
note_on channel=0 note=78 velocity=0 time=45
note_on channel=0 note=31 velocity=0 time=0
note_on channel=0 note=43 velocity=0 time=0
note_on channel=0 note=45 velocity=65 time=0
note_on channel=0 note=33 velocity=57 time=0
note_on channel=0 note=62 velocity=82 time=108
note_on channel=0 note=62 velocity=0 time=48
note_on channel=0 note=61 velocity=73 time=0
note_on channel=0 note=61 velocity=0 time=40
note_on channel=0 note=33 velocity=0 time=0
note_on channel=0 note=45 velocity=0 time=0
note_on channel=0 note=60 velocity=72 time=0
note_on channel=0 note=43 velocity=72 time=0
note_on channel=0 note=31 velocity=63 time=0
note_on channel=0 note=60 velocity=0 time=21
note_on channel=0 note=58 velocity=72 time=0
note_on channel=0 note=58 velocity=0 time=24
note_on channel=0 note=57 velocity=71 time=0
note_on channel=0 note=57 velocity=0 time=16
note_on channel=0 note=55 velocity=70 time=0
note_on channel=0 note=55 velocity=0 time=13
note_on channel=0 note=31 velocity=0 time=0
note_on channel=0 note=43 velocity=0 time=0
note_on channel=0 note=33 velocity=57 time=0
note_on channel=0 note=45 velocity=65 time=0
note_on channel=0 note=75 velocity=92 time=0
note_on channel=0 note=75 velocity=0 time=21
note_on channel=0 note=74 velocity=82 time=0
note_on channel=0 note=74 velocity=0 time=13
note_on channel=0 note=45 velocity=0 time=0
note_on channel=0 note=33 velocity=0 time=0
note_on channel=0 note=72 velocity=81 time=0
note_on channel=0 note=34 velocity=69 time=0
note_on channel=0 note=34 velocity=0 time=14
note_on channel=0 note=72 velocity=0 time=0
note_on channel=0 note=70 velocity=80 time=0
note_on channel=0 note=46 velocity=65 time=0
note_on channel=0 note=46 velocity=0 time=29
note_on channel=0 note=70 velocity=0 time=0
note_on channel=0 note=69 velocity=79 time=0
note_on channel=0 note=48 velocity=65 time=0
note_on channel=0 note=48 velocity=0 time=53
note_on channel=0 note=69 velocity=0 time=0
note_on channel=0 note=67 velocity=78 time=0
note_on channel=0 note=46 velocity=61 time=0
note_on channel=0 note=46 velocity=0 time=45
note_on channel=0 note=67 velocity=0 time=0
note_on channel=0 note=65 velocity=78 time=0
note_on channel=0 note=45 velocity=65 time=0
note_on channel=0 note=45 velocity=0 time=0
note_on channel=0 note=65 velocity=0 time=0
note_on channel=0 note=64 velocity=78 time=0
note_on channel=0 note=43 velocity=69 time=0
note_on channel=0 note=43 velocity=0 time=0
note_on channel=0 note=64 velocity=0 time=0
note_on channel=0 note=70 velocity=88 time=0
note_on channel=0 note=62 velocity=88 time=0
note_on channel=0 note=41 velocity=69 time=0
note_on channel=0 note=41 velocity=0 time=51
note_on channel=0 note=62 velocity=0 time=0
note_on channel=0 note=60 velocity=81 time=0
note_on channel=0 note=40 velocity=69 time=0
note_on channel=0 note=40 velocity=0 time=120
note_on channel=0 note=60 velocity=0 time=0
note_on channel=0 note=70 velocity=0 time=0
note_on channel=0 note=58 velocity=80 time=0
note_on channel=0 note=43 velocity=69 time=0
note_on channel=0 note=43 velocity=0 time=45
note_on channel=0 note=58 velocity=0 time=0
note_on channel=0 note=57 velocity=80 time=0
note_on channel=0 note=41 velocity=65 time=0
note_on channel=0 note=41 velocity=0 time=120
note_on channel=0 note=57 velocity=0 time=0
note_on channel=0 note=55 velocity=79 time=0
note_on channel=0 note=52 velocity=65 time=0
note_on channel=0 note=52 velocity=0 time=51
note_on channel=0 note=55 velocity=0 time=0
note_on channel=0 note=53 velocity=78 time=0
note_on channel=0 note=50 velocity=65 time=0
note_on channel=0 note=50 velocity=0 time=120
note_on channel=0 note=53 velocity=0 time=0
note_on channel=0 note=52 velocity=77 time=0
note_on channel=0 note=48 velocity=65 time=0
note_on channel=0 note=48 velocity=0 time=0
note_on channel=0 note=52 velocity=0 time=0
note_on channel=0 note=50 velocity=75 time=0
note_on channel=0 note=46 velocity=63 time=0
note_on channel=0 note=46 velocity=0 time=0
note_on channel=0 note=50 velocity=0 time=0
note_on channel=0 note=60 velocity=78 time=0
note_on channel=0 note=45 velocity=65 time=0
note_on channel=0 note=45 velocity=0 time=40
note_on channel=0 note=60 velocity=0 time=0
note_on channel=0 note=58 velocity=74 time=0
note_on channel=0 note=43 velocity=60 time=0
note_on channel=0 note=43 velocity=0 time=120
note_on channel=0 note=58 velocity=0 time=0
note_on channel=0 note=57 velocity=80 time=0
note_on channel=0 note=41 velocity=69 time=0
note_on channel=0 note=41 velocity=0 time=74
note_on channel=0 note=57 velocity=0 time=0
note_on channel=0 note=55 velocity=82 time=0
note_on channel=0 note=40 velocity=71 time=0
note_on channel=0 note=40 velocity=0 time=120
note_on channel=0 note=55 velocity=0 time=0
note_on channel=0 note=53 velocity=86 time=0
note_on channel=0 note=38 velocity=73 time=0
note_on channel=0 note=38 velocity=0 time=0
note_on channel=0 note=53 velocity=0 time=0
note_on channel=0 note=52 velocity=89 time=0
note_on channel=0 note=36 velocity=75 time=0
note_on channel=0 note=36 velocity=0 time=0
note_on channel=0 note=52 velocity=0 time=0
note_on channel=0 note=58 velocity=95 time=0
note_on channel=0 note=50 velocity=95 time=0
note_on channel=0 note=50 velocity=0 time=56
note_on channel=0 note=48 velocity=87 time=0
note_on channel=0 note=48 velocity=0 time=120
note_on channel=0 note=58 velocity=0 time=0
note_on channel=0 note=52 velocity=81 time=0
note_on channel=0 note=52 velocity=0 time=67
note_on channel=0 note=55 velocity=85 time=0
note_on channel=0 note=55 velocity=0 time=26
note_on channel=0 note=46 velocity=80 time=0
note_on channel=0 note=43 velocity=71 time=0
note_on channel=0 note=43 velocity=0 time=2
note_on channel=0 note=45 velocity=65 time=0
note_on channel=0 note=45 velocity=0 time=58
note_on channel=0 note=43 velocity=71 time=0
note_on channel=0 note=43 velocity=0 time=10
note_on channel=0 note=46 velocity=0 time=0
note_on channel=0 note=45 velocity=65 time=0
note_on channel=0 note=45 velocity=0 time=58
note_on channel=0 note=43 velocity=71 time=0
note_on channel=0 note=43 velocity=0 time=42
note_on channel=0 note=45 velocity=66 time=0
note_on channel=0 note=45 velocity=0 time=26
note_on channel=0 note=64 velocity=80 time=0
note_on channel=0 note=43 velocity=71 time=0
note_on channel=0 note=43 velocity=0 time=28
note_on channel=0 note=64 velocity=0 time=0
note_on channel=0 note=65 velocity=74 time=0
note_on channel=0 note=45 velocity=65 time=0
note_on channel=0 note=45 velocity=0 time=58
note_on channel=0 note=65 velocity=0 time=0
note_on channel=0 note=64 velocity=80 time=0
note_on channel=0 note=43 velocity=71 time=0
note_on channel=0 note=43 velocity=0 time=10
note_on channel=0 note=64 velocity=0 time=0
note_on channel=0 note=65 velocity=74 time=0
note_on channel=0 note=45 velocity=66 time=0
note_on channel=0 note=45 velocity=0 time=80
note_on channel=0 note=65 velocity=0 time=0
note_on channel=0 note=64 velocity=80 time=0
note_on channel=0 note=43 velocity=71 time=0
note_on channel=0 note=43 velocity=0 time=10
note_on channel=0 note=64 velocity=0 time=0
note_on channel=0 note=65 velocity=75 time=0
note_on channel=0 note=45 velocity=66 time=0
note_on channel=0 note=45 velocity=0 time=58
note_on channel=0 note=65 velocity=0 time=0
note_on channel=0 note=64 velocity=80 time=0
note_on channel=0 note=41 velocity=88 time=0
note_on channel=0 note=64 velocity=0 time=37
note_on channel=0 note=65 velocity=73 time=0
note_on channel=0 note=65 velocity=0 time=26
note_on channel=0 note=64 velocity=82 time=0
note_on channel=0 note=64 velocity=0 time=10
note_on channel=0 note=65 velocity=74 time=0
note_on channel=0 note=65 velocity=0 time=6
note_on channel=0 note=64 velocity=80 time=0
note_on channel=0 note=64 velocity=0 time=2
note_on channel=0 note=62 velocity=73 time=0
note_on channel=0 note=62 velocity=0 time=30
note_on channel=0 note=64 velocity=73 time=0
note_on channel=0 note=64 velocity=0 time=0
note_on channel=0 note=41 velocity=0 time=0
note_on channel=0 note=65 velocity=86 time=0
note_on channel=0 note=41 velocity=75 time=232
note_on channel=0 note=41 velocity=0 time=88
note_on channel=0 note=43 velocity=68 time=0
note_on channel=0 note=43 velocity=0 time=120
note_on channel=0 note=65 velocity=0 time=0
note_on channel=0 note=45 velocity=75 time=0
note_on channel=0 note=45 velocity=0 time=51
note_on channel=0 note=46 velocity=74 time=0
note_on channel=0 note=46 velocity=0 time=120
note_on channel=0 note=65 velocity=78 time=0
note_on channel=0 note=48 velocity=74 time=0
note_on channel=0 note=48 velocity=0 time=120
note_on channel=0 note=65 velocity=0 time=0
note_on channel=0 note=64 velocity=74 time=0
note_on channel=0 note=50 velocity=74 time=0
note_on channel=0 note=50 velocity=0 time=120
note_on channel=0 note=64 velocity=0 time=0
note_on channel=0 note=62 velocity=80 time=0
note_on channel=0 note=45 velocity=87 time=0
note_on channel=0 note=62 velocity=0 time=40
note_on channel=0 note=60 velocity=74 time=0
note_on channel=0 note=60 velocity=0 time=120
note_on channel=0 note=58 velocity=74 time=0
note_on channel=0 note=58 velocity=0 time=0
note_on channel=0 note=57 velocity=74 time=0
note_on channel=0 note=57 velocity=0 time=0
note_on channel=0 note=45 velocity=0 time=0
note_on channel=0 note=62 velocity=88 time=0
note_on channel=0 note=45 velocity=75 time=240
note_on channel=0 note=45 velocity=0 time=74
note_on channel=0 note=46 velocity=68 time=0
note_on channel=0 note=46 velocity=0 time=120
note_on channel=0 note=62 velocity=0 time=0
note_on channel=0 note=48 velocity=75 time=0
note_on channel=0 note=48 velocity=0 time=45
note_on channel=0 note=50 velocity=74 time=0
note_on channel=0 note=50 velocity=0 time=120
note_on channel=0 note=62 velocity=78 time=0
note_on channel=0 note=52 velocity=74 time=0
note_on channel=0 note=52 velocity=0 time=120
note_on channel=0 note=62 velocity=0 time=0
note_on channel=0 note=60 velocity=74 time=0
note_on channel=0 note=53 velocity=74 time=0
note_on channel=0 note=53 velocity=0 time=120
note_on channel=0 note=60 velocity=0 time=0
note_on channel=0 note=58 velocity=80 time=0
note_on channel=0 note=48 velocity=87 time=0
note_on channel=0 note=58 velocity=0 time=17
note_on channel=0 note=57 velocity=74 time=0
note_on channel=0 note=57 velocity=0 time=120
note_on channel=0 note=55 velocity=74 time=0
note_on channel=0 note=55 velocity=0 time=0
note_on channel=0 note=53 velocity=74 time=0
note_on channel=0 note=53 velocity=0 time=0
note_on channel=0 note=48 velocity=0 time=0
note_on channel=0 note=58 velocity=88 time=0
note_on channel=0 note=48 velocity=67 time=232
note_on channel=0 note=48 velocity=0 time=63
note_on channel=0 note=50 velocity=63 time=0
note_on channel=0 note=50 velocity=0 time=120
note_on channel=0 note=58 velocity=0 time=0
note_on channel=0 note=52 velocity=73 time=0
note_on channel=0 note=52 velocity=0 time=34
note_on channel=0 note=50 velocity=63 time=0
note_on channel=0 note=50 velocity=0 time=120
note_on channel=0 note=70 velocity=78 time=0
note_on channel=0 note=52 velocity=63 time=0
note_on channel=0 note=52 velocity=0 time=0
note_on channel=0 note=70 velocity=0 time=0
note_on channel=0 note=69 velocity=72 time=0
note_on channel=0 note=53 velocity=63 time=0
note_on channel=0 note=53 velocity=0 time=0
note_on channel=0 note=69 velocity=0 time=0
note_on channel=0 note=67 velocity=90 time=0
note_on channel=0 note=55 velocity=74 time=0
note_on channel=0 note=55 velocity=0 time=34
note_on channel=0 note=67 velocity=0 time=0
note_on channel=0 note=69 velocity=73 time=0
note_on channel=0 note=53 velocity=63 time=0
note_on channel=0 note=53 velocity=0 time=120
note_on channel=0 note=69 velocity=0 time=0
note_on channel=0 note=67 velocity=73 time=0
note_on channel=0 note=55 velocity=63 time=0
note_on channel=0 note=55 velocity=0 time=0
note_on channel=0 note=67 velocity=0 time=0
note_on channel=0 note=65 velocity=73 time=0
note_on channel=0 note=57 velocity=63 time=0
note_on channel=0 note=57 velocity=0 time=0
note_on channel=0 note=65 velocity=0 time=0
note_on channel=0 note=64 velocity=89 time=0
note_on channel=0 note=58 velocity=74 time=0
note_on channel=0 note=58 velocity=0 time=28
note_on channel=0 note=64 velocity=0 time=0
note_on channel=0 note=65 velocity=74 time=0
note_on channel=0 note=57 velocity=62 time=0
note_on channel=0 note=57 velocity=0 time=120
note_on channel=0 note=65 velocity=0 time=0
note_on channel=0 note=64 velocity=74 time=0
note_on channel=0 note=55 velocity=62 time=0
note_on channel=0 note=55 velocity=0 time=0
note_on channel=0 note=64 velocity=0 time=0
note_on channel=0 note=62 velocity=74 time=0
note_on channel=0 note=57 velocity=62 time=0
note_on channel=0 note=57 velocity=0 time=0
note_on channel=0 note=62 velocity=0 time=0
note_on channel=0 note=60 velocity=90 time=0
note_on channel=0 note=58 velocity=73 time=0
note_on channel=0 note=58 velocity=0 time=51
note_on channel=0 note=60 velocity=0 time=0
note_on channel=0 note=62 velocity=73 time=0
note_on channel=0 note=57 velocity=61 time=0
note_on channel=0 note=57 velocity=0 time=120
note_on channel=0 note=62 velocity=0 time=0
note_on channel=0 note=64 velocity=73 time=0
note_on channel=0 note=55 velocity=62 time=0
note_on channel=0 note=55 velocity=0 time=0
note_on channel=0 note=64 velocity=0 time=0
note_on channel=0 note=65 velocity=73 time=0
note_on channel=0 note=53 velocity=62 time=0
note_on channel=0 note=53 velocity=0 time=0
note_on channel=0 note=65 velocity=0 time=0
note_on channel=0 note=66 velocity=88 time=0
note_on channel=0 note=52 velocity=74 time=0
note_on channel=0 note=52 velocity=0 time=28
note_on channel=0 note=66 velocity=0 time=0
note_on channel=0 note=67 velocity=73 time=0
note_on channel=0 note=50 velocity=62 time=0
note_on channel=0 note=50 velocity=0 time=120
note_on channel=0 note=67 velocity=0 time=0
note_on channel=0 note=69 velocity=73 time=0
note_on channel=0 note=48 velocity=62 time=0
note_on channel=0 note=48 velocity=0 time=0
note_on channel=0 note=69 velocity=0 time=0
note_on channel=0 note=67 velocity=73 time=0
note_on channel=0 note=50 velocity=62 time=0
note_on channel=0 note=50 velocity=0 time=0
note_on channel=0 note=67 velocity=0 time=0
note_on channel=0 note=65 velocity=87 time=0
note_on channel=0 note=51 velocity=73 time=0
note_on channel=0 note=51 velocity=0 time=40
note_on channel=0 note=65 velocity=0 time=0
note_on channel=0 note=67 velocity=75 time=0
note_on channel=0 note=50 velocity=62 time=0
note_on channel=0 note=50 velocity=0 time=120
note_on channel=0 note=67 velocity=0 time=0
note_on channel=0 note=69 velocity=75 time=0
note_on channel=0 note=48 velocity=62 time=0
note_on channel=0 note=48 velocity=0 time=0
note_on channel=0 note=69 velocity=0 time=0
note_on channel=0 note=70 velocity=75 time=0
note_on channel=0 note=46 velocity=62 time=0
note_on channel=0 note=46 velocity=0 time=0
note_on channel=0 note=70 velocity=0 time=0
note_on channel=0 note=71 velocity=89 time=0
note_on channel=0 note=50 velocity=76 time=0
note_on channel=0 note=50 velocity=0 time=84
note_on channel=0 note=71 velocity=0 time=0
note_on channel=0 note=72 velocity=73 time=0
note_on channel=0 note=48 velocity=62 time=0
note_on channel=0 note=48 velocity=0 time=120
note_on channel=0 note=72 velocity=0 time=0
note_on channel=0 note=74 velocity=73 time=0
note_on channel=0 note=46 velocity=62 time=0
note_on channel=0 note=46 velocity=0 time=0
note_on channel=0 note=74 velocity=0 time=0
note_on channel=0 note=72 velocity=73 time=0
note_on channel=0 note=45 velocity=62 time=0
note_on channel=0 note=45 velocity=0 time=0
note_on channel=0 note=72 velocity=0 time=0
note_on channel=0 note=74 velocity=94 time=0
note_on channel=0 note=75 velocity=94 time=0
note_on channel=0 note=46 velocity=73 time=0
note_on channel=0 note=46 velocity=0 time=74
note_on channel=0 note=74 velocity=0 time=0
note_on channel=0 note=72 velocity=73 time=0
note_on channel=0 note=45 velocity=63 time=0
note_on channel=0 note=45 velocity=0 time=120
note_on channel=0 note=72 velocity=0 time=0
note_on channel=0 note=75 velocity=0 time=0
note_on channel=0 note=70 velocity=73 time=0
note_on channel=0 note=43 velocity=63 time=0
note_on channel=0 note=43 velocity=0 time=120
note_on channel=0 note=70 velocity=0 time=0
note_on channel=0 note=69 velocity=73 time=0
note_on channel=0 note=41 velocity=63 time=0
note_on channel=0 note=41 velocity=0 time=18
note_on channel=0 note=69 velocity=0 time=0
note_on channel=0 note=60 velocity=85 time=0
note_on channel=0 note=51 velocity=78 time=0
note_on channel=0 note=60 velocity=0 time=47
note_on channel=0 note=62 velocity=78 time=0
note_on channel=0 note=62 velocity=0 time=1
note_on channel=0 note=60 velocity=85 time=0
note_on channel=0 note=60 velocity=0 time=5
note_on channel=0 note=62 velocity=80 time=0
note_on channel=0 note=29 velocity=98 time=0
note_on channel=0 note=62 velocity=0 time=9
note_on channel=0 note=60 velocity=85 time=0
note_on channel=0 note=60 velocity=0 time=14
note_on channel=0 note=62 velocity=78 time=0
note_on channel=0 note=62 velocity=0 time=43
note_on channel=0 note=29 velocity=0 time=0
note_on channel=0 note=60 velocity=85 time=0
note_on channel=0 note=45 velocity=72 time=0
note_on channel=0 note=45 velocity=0 time=34
note_on channel=0 note=60 velocity=0 time=0
note_on channel=0 note=62 velocity=80 time=0
note_on channel=0 note=46 velocity=65 time=0
note_on channel=0 note=46 velocity=0 time=47
note_on channel=0 note=62 velocity=0 time=0
note_on channel=0 note=60 velocity=85 time=0
note_on channel=0 note=45 velocity=72 time=0
note_on channel=0 note=45 velocity=0 time=56
note_on channel=0 note=60 velocity=0 time=0
note_on channel=0 note=62 velocity=73 time=0
note_on channel=0 note=46 velocity=64 time=0
note_on channel=0 note=46 velocity=0 time=60
note_on channel=0 note=62 velocity=0 time=0
note_on channel=0 note=60 velocity=82 time=0
note_on channel=0 note=45 velocity=72 time=0
note_on channel=0 note=45 velocity=0 time=64
note_on channel=0 note=60 velocity=0 time=0
note_on channel=0 note=62 velocity=73 time=0
note_on channel=0 note=46 velocity=64 time=0
note_on channel=0 note=46 velocity=0 time=68
note_on channel=0 note=62 velocity=0 time=0
note_on channel=0 note=51 velocity=0 time=0
note_on channel=0 note=58 velocity=78 time=0
note_on channel=0 note=45 velocity=72 time=0
note_on channel=0 note=50 velocity=72 time=0
note_on channel=0 note=45 velocity=0 time=13
note_on channel=0 note=46 velocity=65 time=0
note_on channel=0 note=46 velocity=0 time=1
note_on channel=0 note=45 velocity=72 time=0
note_on channel=0 note=45 velocity=0 time=30
note_on channel=0 note=46 velocity=70 time=0
note_on channel=0 note=46 velocity=0 time=15
note_on channel=0 note=45 velocity=63 time=0
note_on channel=0 note=45 velocity=0 time=24
note_on channel=0 note=43 velocity=63 time=0
note_on channel=0 note=43 velocity=0 time=8
note_on channel=0 note=45 velocity=63 time=0
note_on channel=0 note=45 velocity=0 time=0
note_on channel=0 note=50 velocity=0 time=0
note_on channel=0 note=58 velocity=0 time=0
note_on channel=0 note=46 velocity=84 time=0
note_on channel=0 note=58 velocity=65 time=0
note_on channel=0 note=58 velocity=0 time=53
note_on channel=0 note=60 velocity=60 time=0
note_on channel=0 note=60 velocity=0 time=0
note_on channel=0 note=46 velocity=0 time=0
note_on channel=0 note=62 velocity=68 time=0
note_on channel=0 note=62 velocity=0 time=35
note_on channel=0 note=63 velocity=60 time=0
note_on channel=0 note=63 velocity=0 time=120
note_on channel=0 note=62 velocity=60 time=0
note_on channel=0 note=65 velocity=60 time=0
note_on channel=0 note=46 velocity=60 time=0
note_on channel=0 note=46 velocity=0 time=0
note_on channel=0 note=65 velocity=0 time=0
note_on channel=0 note=62 velocity=0 time=0
note_on channel=0 note=60 velocity=60 time=0
note_on channel=0 note=67 velocity=60 time=0
note_on channel=0 note=45 velocity=54 time=0
note_on channel=0 note=45 velocity=0 time=0
note_on channel=0 note=67 velocity=0 time=0
note_on channel=0 note=60 velocity=0 time=0
note_on channel=0 note=58 velocity=60 time=0
note_on channel=0 note=63 velocity=72 time=0
note_on channel=0 note=43 velocity=60 time=0
note_on channel=0 note=43 velocity=0 time=14
note_on channel=0 note=58 velocity=0 time=0
note_on channel=0 note=57 velocity=60 time=0
note_on channel=0 note=41 velocity=53 time=0
note_on channel=0 note=41 velocity=0 time=0
note_on channel=0 note=57 velocity=0 time=0
note_on channel=0 note=55 velocity=60 time=0
note_on channel=0 note=39 velocity=53 time=0
note_on channel=0 note=39 velocity=0 time=35
note_on channel=0 note=55 velocity=0 time=0
note_on channel=0 note=53 velocity=60 time=0
note_on channel=0 note=38 velocity=53 time=0
note_on channel=0 note=38 velocity=0 time=120
note_on channel=0 note=53 velocity=0 time=0
note_on channel=0 note=63 velocity=0 time=0
note_on channel=0 note=58 velocity=72 time=0
note_on channel=0 note=43 velocity=65 time=0
note_on channel=0 note=62 velocity=65 time=0
note_on channel=0 note=62 velocity=0 time=49
note_on channel=0 note=63 velocity=56 time=0
note_on channel=0 note=63 velocity=0 time=0
note_on channel=0 note=43 velocity=0 time=0
note_on channel=0 note=58 velocity=0 time=0
note_on channel=0 note=65 velocity=66 time=0
note_on channel=0 note=65 velocity=0 time=35
note_on channel=0 note=67 velocity=60 time=0
note_on channel=0 note=67 velocity=0 time=120
note_on channel=0 note=58 velocity=60 time=0
note_on channel=0 note=69 velocity=60 time=0
note_on channel=0 note=43 velocity=60 time=0
note_on channel=0 note=43 velocity=0 time=0
note_on channel=0 note=69 velocity=0 time=0
note_on channel=0 note=70 velocity=60 time=0
note_on channel=0 note=41 velocity=54 time=0
note_on channel=0 note=41 velocity=0 time=0
note_on channel=0 note=70 velocity=0 time=0
note_on channel=0 note=67 velocity=74 time=0
note_on channel=0 note=39 velocity=60 time=0
note_on channel=0 note=39 velocity=0 time=14
note_on channel=0 note=58 velocity=0 time=0
note_on channel=0 note=59 velocity=60 time=0
note_on channel=0 note=38 velocity=53 time=0
note_on channel=0 note=38 velocity=0 time=0
note_on channel=0 note=59 velocity=0 time=0
note_on channel=0 note=60 velocity=60 time=0
note_on channel=0 note=36 velocity=53 time=0
note_on channel=0 note=36 velocity=0 time=35
note_on channel=0 note=60 velocity=0 time=0
note_on channel=0 note=62 velocity=60 time=0
note_on channel=0 note=35 velocity=53 time=0
note_on channel=0 note=35 velocity=0 time=0
note_on channel=0 note=62 velocity=0 time=0
note_on channel=0 note=67 velocity=0 time=0
note_on channel=0 note=63 velocity=72 time=0
note_on channel=0 note=36 velocity=65 time=0
note_on channel=0 note=65 velocity=66 time=0
note_on channel=0 note=65 velocity=0 time=49
note_on channel=0 note=67 velocity=60 time=0
note_on channel=0 note=67 velocity=0 time=0
note_on channel=0 note=36 velocity=0 time=0
note_on channel=0 note=63 velocity=0 time=0
note_on channel=0 note=69 velocity=71 time=0
note_on channel=0 note=69 velocity=0 time=35
note_on channel=0 note=67 velocity=62 time=0
note_on channel=0 note=67 velocity=0 time=120
note_on channel=0 note=63 velocity=55 time=0
note_on channel=0 note=69 velocity=62 time=0
note_on channel=0 note=51 velocity=60 time=0
note_on channel=0 note=51 velocity=0 time=35
note_on channel=0 note=69 velocity=0 time=0
note_on channel=0 note=70 velocity=62 time=0
note_on channel=0 note=50 velocity=53 time=0
note_on channel=0 note=50 velocity=0 time=120
note_on channel=0 note=70 velocity=0 time=0
note_on channel=0 note=72 velocity=72 time=0
note_on channel=0 note=48 velocity=60 time=0
note_on channel=0 note=48 velocity=0 time=14
note_on channel=0 note=72 velocity=0 time=0
note_on channel=0 note=70 velocity=65 time=0
note_on channel=0 note=50 velocity=53 time=0
note_on channel=0 note=50 velocity=0 time=120
note_on channel=0 note=70 velocity=0 time=0
note_on channel=0 note=63 velocity=0 time=0
note_on channel=0 note=64 velocity=59 time=0
note_on channel=0 note=72 velocity=65 time=0
note_on channel=0 note=48 velocity=53 time=0
note_on channel=0 note=48 velocity=0 time=0
note_on channel=0 note=72 velocity=0 time=0
note_on channel=0 note=74 velocity=65 time=0
note_on channel=0 note=46 velocity=53 time=0
note_on channel=0 note=46 velocity=0 time=0
note_on channel=0 note=74 velocity=0 time=0
note_on channel=0 note=75 velocity=78 time=0
note_on channel=0 note=45 velocity=64 time=0
note_on channel=0 note=45 velocity=0 time=14
note_on channel=0 note=75 velocity=0 time=0
note_on channel=0 note=74 velocity=69 time=0
note_on channel=0 note=46 velocity=58 time=0
note_on channel=0 note=46 velocity=0 time=120
note_on channel=0 note=74 velocity=0 time=0
note_on channel=0 note=64 velocity=0 time=0
note_on channel=0 note=65 velocity=60 time=0
note_on channel=0 note=72 velocity=72 time=0
note_on channel=0 note=45 velocity=61 time=0
note_on channel=0 note=45 velocity=0 time=0
note_on channel=0 note=72 velocity=0 time=0
note_on channel=0 note=74 velocity=75 time=0
note_on channel=0 note=43 velocity=64 time=0
note_on channel=0 note=43 velocity=0 time=0
note_on channel=0 note=74 velocity=0 time=0
note_on channel=0 note=75 velocity=86 time=0
note_on channel=0 note=41 velocity=72 time=0
note_on channel=0 note=41 velocity=0 time=35
note_on channel=0 note=75 velocity=0 time=0
note_on channel=0 note=74 velocity=76 time=0
note_on channel=0 note=43 velocity=60 time=0
note_on channel=0 note=43 velocity=0 time=120
note_on channel=0 note=74 velocity=0 time=0
note_on channel=0 note=73 velocity=73 time=0
note_on channel=0 note=45 velocity=60 time=0
note_on channel=0 note=45 velocity=0 time=35
note_on channel=0 note=73 velocity=0 time=0
note_on channel=0 note=72 velocity=72 time=0
note_on channel=0 note=46 velocity=60 time=0
note_on channel=0 note=46 velocity=0 time=120
note_on channel=0 note=72 velocity=0 time=0
note_on channel=0 note=70 velocity=77 time=0
note_on channel=0 note=48 velocity=68 time=0
note_on channel=0 note=48 velocity=0 time=14
note_on channel=0 note=70 velocity=0 time=0
note_on channel=0 note=69 velocity=64 time=0
note_on channel=0 note=49 velocity=56 time=0
note_on channel=0 note=49 velocity=0 time=0
note_on channel=0 note=69 velocity=0 time=0
note_on channel=0 note=65 velocity=0 time=0
note_on channel=0 note=63 velocity=54 time=0
note_on channel=0 note=67 velocity=63 time=0
note_on channel=0 note=50 velocity=56 time=0
note_on channel=0 note=50 velocity=0 time=35
note_on channel=0 note=67 velocity=0 time=0
note_on channel=0 note=69 velocity=64 time=0
note_on channel=0 note=48 velocity=56 time=0
note_on channel=0 note=48 velocity=0 time=120
note_on channel=0 note=69 velocity=0 time=0
note_on channel=0 note=63 velocity=0 time=0
note_on channel=0 note=62 velocity=63 time=0
note_on channel=0 note=70 velocity=74 time=0
note_on channel=0 note=46 velocity=66 time=0
note_on channel=0 note=46 velocity=0 time=0
note_on channel=0 note=70 velocity=0 time=0
note_on channel=0 note=69 velocity=63 time=0
note_on channel=0 note=48 velocity=57 time=0
note_on channel=0 note=48 velocity=0 time=120
note_on channel=0 note=69 velocity=0 time=0
note_on channel=0 note=67 velocity=62 time=0
note_on channel=0 note=50 velocity=57 time=0
note_on channel=0 note=50 velocity=0 time=49
note_on channel=0 note=67 velocity=0 time=0
note_on channel=0 note=65 velocity=62 time=0
note_on channel=0 note=51 velocity=57 time=0
note_on channel=0 note=51 velocity=0 time=0
note_on channel=0 note=62 velocity=0 time=0
note_on channel=0 note=60 velocity=65 time=0
note_on channel=0 note=52 velocity=60 time=0
note_on channel=0 note=52 velocity=0 time=0
note_on channel=0 note=65 velocity=0 time=0
note_on channel=0 note=78 velocity=68 time=0
note_on channel=0 note=51 velocity=55 time=0
note_on channel=0 note=51 velocity=0 time=120
note_on channel=0 note=78 velocity=0 time=0
note_on channel=0 note=60 velocity=0 time=0
note_on channel=0 note=79 velocity=74 time=0
note_on channel=0 note=50 velocity=60 time=0
note_on channel=0 note=50 velocity=0 time=35
note_on channel=0 note=79 velocity=0 time=0
note_on channel=0 note=77 velocity=69 time=0
note_on channel=0 note=51 velocity=54 time=0
note_on channel=0 note=51 velocity=0 time=120
note_on channel=0 note=77 velocity=0 time=0
note_on channel=0 note=75 velocity=71 time=0
note_on channel=0 note=53 velocity=59 time=0
note_on channel=0 note=53 velocity=0 time=14
note_on channel=0 note=75 velocity=0 time=0
note_on channel=0 note=74 velocity=64 time=0
note_on channel=0 note=55 velocity=56 time=0
note_on channel=0 note=55 velocity=0 time=120
note_on channel=0 note=74 velocity=0 time=0
note_on channel=0 note=72 velocity=67 time=0
note_on channel=0 note=57 velocity=61 time=0
note_on channel=0 note=57 velocity=0 time=0
note_on channel=0 note=72 velocity=0 time=0
note_on channel=0 note=70 velocity=69 time=0
note_on channel=0 note=58 velocity=57 time=0
note_on channel=0 note=58 velocity=0 time=0
note_on channel=0 note=70 velocity=0 time=0
note_on channel=0 note=69 velocity=74 time=0
note_on channel=0 note=60 velocity=63 time=0
note_on channel=0 note=60 velocity=0 time=14
note_on channel=0 note=69 velocity=0 time=0
note_on channel=0 note=70 velocity=65 time=0
note_on channel=0 note=58 velocity=60 time=0
note_on channel=0 note=58 velocity=0 time=120
note_on channel=0 note=70 velocity=0 time=0
note_on channel=0 note=69 velocity=67 time=0
note_on channel=0 note=60 velocity=66 time=0
note_on channel=0 note=60 velocity=0 time=0
note_on channel=0 note=69 velocity=0 time=0
note_on channel=0 note=67 velocity=68 time=0
note_on channel=0 note=62 velocity=62 time=0
note_on channel=0 note=62 velocity=0 time=0
note_on channel=0 note=67 velocity=0 time=0
note_on channel=0 note=65 velocity=81 time=0
note_on channel=0 note=63 velocity=68 time=0
note_on channel=0 note=63 velocity=0 time=35
note_on channel=0 note=65 velocity=0 time=0
note_on channel=0 note=67 velocity=71 time=0
note_on channel=0 note=62 velocity=63 time=0
note_on channel=0 note=62 velocity=0 time=120
note_on channel=0 note=67 velocity=0 time=0
note_on channel=0 note=69 velocity=71 time=0
note_on channel=0 note=61 velocity=62 time=0
note_on channel=0 note=61 velocity=0 time=35
note_on channel=0 note=69 velocity=0 time=0
note_on channel=0 note=70 velocity=71 time=0
note_on channel=0 note=60 velocity=60 time=0
note_on channel=0 note=60 velocity=0 time=120
note_on channel=0 note=70 velocity=0 time=0
note_on channel=0 note=72 velocity=80 time=0
note_on channel=0 note=58 velocity=65 time=0
note_on channel=0 note=58 velocity=0 time=14
note_on channel=0 note=72 velocity=0 time=0
note_on channel=0 note=73 velocity=70 time=0
note_on channel=0 note=57 velocity=60 time=0
note_on channel=0 note=57 velocity=0 time=120
note_on channel=0 note=73 velocity=0 time=0
note_on channel=0 note=74 velocity=70 time=0
note_on channel=0 note=55 velocity=57 time=0
note_on channel=0 note=55 velocity=0 time=35
note_on channel=0 note=74 velocity=0 time=0
note_on channel=0 note=72 velocity=70 time=0
note_on channel=0 note=57 velocity=55 time=0
note_on channel=0 note=57 velocity=0 time=0
note_on channel=0 note=72 velocity=0 time=0
note_on channel=0 note=70 velocity=65 time=0
note_on channel=0 note=74 velocity=81 time=0
note_on channel=0 note=58 velocity=63 time=0
note_on channel=0 note=58 velocity=0 time=14
note_on channel=0 note=74 velocity=0 time=0
note_on channel=0 note=76 velocity=70 time=0
note_on channel=0 note=57 velocity=57 time=0
note_on channel=0 note=57 velocity=0 time=0
note_on channel=0 note=76 velocity=0 time=0
note_on channel=0 note=70 velocity=0 time=0
note_on channel=0 note=77 velocity=70 time=0
note_on channel=0 note=55 velocity=58 time=0
note_on channel=0 note=55 velocity=0 time=0
note_on channel=0 note=77 velocity=0 time=0
note_on channel=0 note=79 velocity=81 time=0
note_on channel=0 note=53 velocity=58 time=0
note_on channel=0 note=53 velocity=0 time=120
note_on channel=0 note=55 velocity=58 time=0
note_on channel=0 note=52 velocity=50 time=0
note_on channel=0 note=55 velocity=0 time=70
note_on channel=0 note=57 velocity=52 time=0
note_on channel=0 note=79 velocity=0 time=35
note_on channel=0 note=72 velocity=70 time=0
note_on channel=0 note=57 velocity=0 time=40
note_on channel=0 note=55 velocity=58 time=0
note_on channel=0 note=55 velocity=0 time=80
note_on channel=0 note=72 velocity=0 time=0
note_on channel=0 note=74 velocity=71 time=0
note_on channel=0 note=57 velocity=52 time=0
note_on channel=0 note=57 velocity=0 time=80
note_on channel=0 note=55 velocity=58 time=0
note_on channel=0 note=74 velocity=0 time=40
note_on channel=0 note=76 velocity=72 time=0
note_on channel=0 note=55 velocity=0 time=40
note_on channel=0 note=57 velocity=53 time=0
note_on channel=0 note=57 velocity=0 time=80
note_on channel=0 note=76 velocity=0 time=0
note_on channel=0 note=52 velocity=0 time=0
note_on channel=0 note=77 velocity=73 time=0
note_on channel=0 note=55 velocity=58 time=0
note_on channel=0 note=46 velocity=58 time=0
note_on channel=0 note=55 velocity=0 time=73
note_on channel=0 note=57 velocity=53 time=0
note_on channel=0 note=77 velocity=0 time=14
note_on channel=0 note=79 velocity=74 time=0
note_on channel=0 note=57 velocity=0 time=40
note_on channel=0 note=55 velocity=58 time=0
note_on channel=0 note=55 velocity=0 time=0
note_on channel=0 note=79 velocity=0 time=0
note_on channel=0 note=81 velocity=75 time=0
note_on channel=0 note=57 velocity=54 time=0
note_on channel=0 note=57 velocity=0 time=80
note_on channel=0 note=55 velocity=58 time=0
note_on channel=0 note=81 velocity=0 time=0
note_on channel=0 note=82 velocity=76 time=0
note_on channel=0 note=55 velocity=0 time=40
note_on channel=0 note=57 velocity=54 time=0
note_on channel=0 note=57 velocity=0 time=0
note_on channel=0 note=82 velocity=0 time=0
note_on channel=0 note=46 velocity=0 time=0
note_on channel=0 note=84 velocity=77 time=0
note_on channel=0 note=53 velocity=58 time=0
note_on channel=0 note=45 velocity=51 time=0
note_on channel=0 note=84 velocity=0 time=14
note_on channel=0 note=81 velocity=68 time=0
note_on channel=0 note=81 velocity=0 time=120
note_on channel=0 note=79 velocity=73 time=0
note_on channel=0 note=79 velocity=0 time=49
note_on channel=0 note=77 velocity=72 time=0
note_on channel=0 note=77 velocity=0 time=120
note_on channel=0 note=45 velocity=0 time=0
note_on channel=0 note=53 velocity=0 time=0
note_on channel=0 note=75 velocity=81 time=0
note_on channel=0 note=57 velocity=58 time=0
note_on channel=0 note=54 velocity=50 time=0
note_on channel=0 note=57 velocity=0 time=71
note_on channel=0 note=58 velocity=52 time=0
note_on channel=0 note=75 velocity=0 time=35
note_on channel=0 note=74 velocity=71 time=0
note_on channel=0 note=58 velocity=0 time=40
note_on channel=0 note=57 velocity=58 time=0
note_on channel=0 note=57 velocity=0 time=80
note_on channel=0 note=74 velocity=0 time=0
note_on channel=0 note=76 velocity=71 time=0
note_on channel=0 note=58 velocity=52 time=0
note_on channel=0 note=58 velocity=0 time=80
note_on channel=0 note=57 velocity=58 time=0
note_on channel=0 note=76 velocity=0 time=40
note_on channel=0 note=78 velocity=71 time=0
note_on channel=0 note=57 velocity=0 time=40
note_on channel=0 note=58 velocity=53 time=0
note_on channel=0 note=58 velocity=0 time=80
note_on channel=0 note=78 velocity=0 time=0
note_on channel=0 note=54 velocity=0 time=0
note_on channel=0 note=79 velocity=79 time=0
note_on channel=0 note=48 velocity=58 time=0
note_on channel=0 note=57 velocity=58 time=0
note_on channel=0 note=57 velocity=0 time=73
note_on channel=0 note=58 velocity=53 time=0
note_on channel=0 note=79 velocity=0 time=14
note_on channel=0 note=81 velocity=72 time=0
note_on channel=0 note=58 velocity=0 time=40
note_on channel=0 note=57 velocity=58 time=0
note_on channel=0 note=57 velocity=0 time=0
note_on channel=0 note=81 velocity=0 time=0
note_on channel=0 note=82 velocity=81 time=0
note_on channel=0 note=58 velocity=54 time=0
note_on channel=0 note=58 velocity=0 time=80
note_on channel=0 note=57 velocity=58 time=0
note_on channel=0 note=82 velocity=0 time=0
note_on channel=0 note=84 velocity=71 time=0
note_on channel=0 note=57 velocity=0 time=40
note_on channel=0 note=58 velocity=54 time=0
note_on channel=0 note=58 velocity=0 time=0
note_on channel=0 note=84 velocity=0 time=0
note_on channel=0 note=48 velocity=0 time=0
note_on channel=0 note=86 velocity=85 time=0
note_on channel=0 note=55 velocity=58 time=0
note_on channel=0 note=46 velocity=51 time=0
note_on channel=0 note=86 velocity=0 time=14
note_on channel=0 note=82 velocity=76 time=0
note_on channel=0 note=82 velocity=0 time=120
note_on channel=0 note=81 velocity=76 time=0
note_on channel=0 note=81 velocity=0 time=49
note_on channel=0 note=79 velocity=76 time=0
note_on channel=0 note=79 velocity=0 time=120
note_on channel=0 note=46 velocity=0 time=0
note_on channel=0 note=55 velocity=0 time=0
note_on channel=0 note=77 velocity=82 time=0
note_on channel=0 note=55 velocity=50 time=0
note_on channel=0 note=58 velocity=58 time=0
note_on channel=0 note=58 velocity=0 time=71
note_on channel=0 note=60 velocity=52 time=0
note_on channel=0 note=77 velocity=0 time=35
note_on channel=0 note=75 velocity=73 time=0
note_on channel=0 note=60 velocity=0 time=40
note_on channel=0 note=58 velocity=58 time=0
note_on channel=0 note=58 velocity=0 time=80
note_on channel=0 note=75 velocity=0 time=0
note_on channel=0 note=77 velocity=76 time=0
note_on channel=0 note=60 velocity=52 time=0
note_on channel=0 note=60 velocity=0 time=75
note_on channel=0 note=58 velocity=58 time=0
note_on channel=0 note=77 velocity=0 time=35
note_on channel=0 note=79 velocity=79 time=0
note_on channel=0 note=58 velocity=0 time=40
note_on channel=0 note=60 velocity=53 time=0
note_on channel=0 note=60 velocity=0 time=80
note_on channel=0 note=79 velocity=0 time=0
note_on channel=0 note=55 velocity=0 time=0
note_on channel=0 note=81 velocity=82 time=0
note_on channel=0 note=58 velocity=58 time=0
note_on channel=0 note=50 velocity=58 time=0
note_on channel=0 note=58 velocity=0 time=11
note_on channel=0 note=60 velocity=53 time=0
note_on channel=0 note=81 velocity=0 time=1
note_on channel=0 note=82 velocity=84 time=0
note_on channel=0 note=60 velocity=0 time=15
note_on channel=0 note=58 velocity=58 time=0
note_on channel=0 note=58 velocity=0 time=19
note_on channel=0 note=82 velocity=0 time=0
note_on channel=0 note=84 velocity=87 time=0
note_on channel=0 note=60 velocity=54 time=0
note_on channel=0 note=60 velocity=0 time=49
note_on channel=0 note=58 velocity=58 time=0
note_on channel=0 note=84 velocity=0 time=13
note_on channel=0 note=86 velocity=90 time=0
note_on channel=0 note=58 velocity=0 time=3
note_on channel=0 note=60 velocity=54 time=0
note_on channel=0 note=60 velocity=0 time=57
note_on channel=0 note=86 velocity=0 time=0
note_on channel=0 note=50 velocity=0 time=0
note_on channel=0 note=87 velocity=93 time=0
note_on channel=0 note=57 velocity=58 time=0
note_on channel=0 note=48 velocity=51 time=0
note_on channel=0 note=48 velocity=0 time=134
note_on channel=0 note=87 velocity=0 time=0
note_on channel=0 note=42 velocity=52 time=0
note_on channel=0 note=57 velocity=0 time=169
note_on channel=0 note=69 velocity=69 time=0
note_on channel=0 note=72 velocity=74 time=0
note_on channel=0 note=72 velocity=0 time=9
note_on channel=0 note=74 velocity=70 time=0
note_on channel=0 note=42 velocity=0 time=40
note_on channel=0 note=43 velocity=48 time=0
note_on channel=0 note=74 velocity=0 time=13
note_on channel=0 note=72 velocity=74 time=0
note_on channel=0 note=72 velocity=0 time=43
note_on channel=0 note=43 velocity=0 time=0
note_on channel=0 note=74 velocity=70 time=0
note_on channel=0 note=45 velocity=50 time=0
note_on channel=0 note=74 velocity=0 time=47
note_on channel=0 note=72 velocity=74 time=0
note_on channel=0 note=45 velocity=0 time=37
note_on channel=0 note=46 velocity=53 time=0
note_on channel=0 note=72 velocity=0 time=1
note_on channel=0 note=74 velocity=70 time=0
note_on channel=0 note=74 velocity=0 time=30
note_on channel=0 note=46 velocity=0 time=0
note_on channel=0 note=69 velocity=0 time=0
note_on channel=0 note=63 velocity=69 time=0
note_on channel=0 note=72 velocity=74 time=0
note_on channel=0 note=48 velocity=55 time=0
note_on channel=0 note=72 velocity=0 time=2
note_on channel=0 note=74 velocity=69 time=0
note_on channel=0 note=48 velocity=0 time=40
note_on channel=0 note=50 velocity=58 time=0
note_on channel=0 note=74 velocity=0 time=39
note_on channel=0 note=72 velocity=74 time=0
note_on channel=0 note=72 velocity=0 time=18
note_on channel=0 note=50 velocity=0 time=0
note_on channel=0 note=74 velocity=70 time=0
note_on channel=0 note=52 velocity=60 time=0
note_on channel=0 note=74 velocity=0 time=2
note_on channel=0 note=72 velocity=74 time=0
note_on channel=0 note=72 velocity=0 time=11
note_on channel=0 note=52 velocity=0 time=0
note_on channel=0 note=70 velocity=68 time=0
note_on channel=0 note=54 velocity=63 time=0
note_on channel=0 note=70 velocity=0 time=21
note_on channel=0 note=72 velocity=68 time=0
note_on channel=0 note=72 velocity=0 time=0
note_on channel=0 note=54 velocity=0 time=0
note_on channel=0 note=63 velocity=0 time=0
note_on channel=0 note=62 velocity=69 time=0
note_on channel=0 note=70 velocity=81 time=0
note_on channel=0 note=43 velocity=65 time=0
note_on channel=0 note=43 velocity=0 time=46
note_on channel=0 note=55 velocity=55 time=0
note_on channel=0 note=55 velocity=0 time=120
note_on channel=0 note=62 velocity=0 time=0
note_on channel=0 note=61 velocity=69 time=0
note_on channel=0 note=41 velocity=62 time=0
note_on channel=0 note=41 velocity=0 time=63
note_on channel=0 note=53 velocity=51 time=0
note_on channel=0 note=53 velocity=0 time=0
note_on channel=0 note=61 velocity=0 time=0
note_on channel=0 note=70 velocity=0 time=0
note_on channel=0 note=67 velocity=69 time=0
note_on channel=0 note=70 velocity=74 time=0
note_on channel=0 note=40 velocity=53 time=0
note_on channel=0 note=70 velocity=0 time=9
note_on channel=0 note=72 velocity=70 time=0
note_on channel=0 note=40 velocity=0 time=40
note_on channel=0 note=41 velocity=48 time=0
note_on channel=0 note=72 velocity=0 time=13
note_on channel=0 note=70 velocity=74 time=0
note_on channel=0 note=70 velocity=0 time=43
note_on channel=0 note=41 velocity=0 time=0
note_on channel=0 note=72 velocity=70 time=0
note_on channel=0 note=43 velocity=50 time=0
note_on channel=0 note=72 velocity=0 time=47
note_on channel=0 note=70 velocity=74 time=0
note_on channel=0 note=43 velocity=0 time=37
note_on channel=0 note=45 velocity=53 time=0
note_on channel=0 note=70 velocity=0 time=1
note_on channel=0 note=72 velocity=70 time=0
note_on channel=0 note=72 velocity=0 time=30
note_on channel=0 note=45 velocity=0 time=0
note_on channel=0 note=67 velocity=0 time=0
note_on channel=0 note=61 velocity=69 time=0
note_on channel=0 note=70 velocity=74 time=0
note_on channel=0 note=46 velocity=55 time=0
note_on channel=0 note=70 velocity=0 time=2
note_on channel=0 note=72 velocity=69 time=0
note_on channel=0 note=46 velocity=0 time=40
note_on channel=0 note=48 velocity=58 time=0
note_on channel=0 note=72 velocity=0 time=39
note_on channel=0 note=70 velocity=74 time=0
note_on channel=0 note=70 velocity=0 time=18
note_on channel=0 note=48 velocity=0 time=0
note_on channel=0 note=72 velocity=70 time=0
note_on channel=0 note=50 velocity=60 time=0
note_on channel=0 note=72 velocity=0 time=2
note_on channel=0 note=70 velocity=74 time=0
note_on channel=0 note=70 velocity=0 time=11
note_on channel=0 note=50 velocity=0 time=0
note_on channel=0 note=69 velocity=68 time=0
note_on channel=0 note=52 velocity=63 time=0
note_on channel=0 note=69 velocity=0 time=21
note_on channel=0 note=70 velocity=68 time=0
note_on channel=0 note=70 velocity=0 time=0
note_on channel=0 note=52 velocity=0 time=0
note_on channel=0 note=61 velocity=0 time=0
note_on channel=0 note=60 velocity=69 time=0
note_on channel=0 note=69 velocity=81 time=0
note_on channel=0 note=41 velocity=65 time=0
note_on channel=0 note=41 velocity=0 time=42
note_on channel=0 note=53 velocity=55 time=0
note_on channel=0 note=53 velocity=0 time=120
note_on channel=0 note=69 velocity=0 time=0
note_on channel=0 note=60 velocity=0 time=0
note_on channel=0 note=68 velocity=67 time=0
note_on channel=0 note=59 velocity=62 time=0
note_on channel=0 note=39 velocity=62 time=0
note_on channel=0 note=39 velocity=0 time=60
note_on channel=0 note=51 velocity=51 time=0
note_on channel=0 note=51 velocity=0 time=0
note_on channel=0 note=59 velocity=0 time=0
note_on channel=0 note=68 velocity=0 time=0
note_on channel=0 note=65 velocity=69 time=0
note_on channel=0 note=68 velocity=74 time=0
note_on channel=0 note=38 velocity=53 time=0
note_on channel=0 note=68 velocity=0 time=9
note_on channel=0 note=70 velocity=70 time=0
note_on channel=0 note=38 velocity=0 time=40
note_on channel=0 note=39 velocity=48 time=0
note_on channel=0 note=70 velocity=0 time=13
note_on channel=0 note=68 velocity=74 time=0
note_on channel=0 note=68 velocity=0 time=43
note_on channel=0 note=39 velocity=0 time=0
note_on channel=0 note=70 velocity=70 time=0
note_on channel=0 note=41 velocity=50 time=0
note_on channel=0 note=70 velocity=0 time=47
note_on channel=0 note=68 velocity=74 time=0
note_on channel=0 note=41 velocity=0 time=37
note_on channel=0 note=43 velocity=53 time=0
note_on channel=0 note=68 velocity=0 time=1
note_on channel=0 note=70 velocity=70 time=0
note_on channel=0 note=70 velocity=0 time=30
note_on channel=0 note=43 velocity=0 time=0
note_on channel=0 note=65 velocity=0 time=0
note_on channel=0 note=59 velocity=69 time=0
note_on channel=0 note=68 velocity=74 time=0
note_on channel=0 note=44 velocity=55 time=0
note_on channel=0 note=68 velocity=0 time=2
note_on channel=0 note=70 velocity=69 time=0
note_on channel=0 note=44 velocity=0 time=40
note_on channel=0 note=46 velocity=58 time=0
note_on channel=0 note=70 velocity=0 time=39
note_on channel=0 note=68 velocity=74 time=0
note_on channel=0 note=68 velocity=0 time=18
note_on channel=0 note=46 velocity=0 time=0
note_on channel=0 note=70 velocity=70 time=0
note_on channel=0 note=48 velocity=60 time=0
note_on channel=0 note=70 velocity=0 time=2
note_on channel=0 note=68 velocity=74 time=0
note_on channel=0 note=68 velocity=0 time=11
note_on channel=0 note=48 velocity=0 time=0
note_on channel=0 note=67 velocity=68 time=0
note_on channel=0 note=50 velocity=63 time=0
note_on channel=0 note=67 velocity=0 time=21
note_on channel=0 note=68 velocity=68 time=0
note_on channel=0 note=68 velocity=0 time=0
note_on channel=0 note=50 velocity=0 time=0
note_on channel=0 note=59 velocity=0 time=0
note_on channel=0 note=58 velocity=69 time=0
note_on channel=0 note=67 velocity=81 time=0
note_on channel=0 note=39 velocity=74 time=0
note_on channel=0 note=39 velocity=0 time=42
note_on channel=0 note=51 velocity=63 time=0
note_on channel=0 note=51 velocity=0 time=120
note_on channel=0 note=58 velocity=0 time=0
note_on channel=0 note=64 velocity=62 time=0
note_on channel=0 note=49 velocity=71 time=0
note_on channel=0 note=37 velocity=58 time=0
note_on channel=0 note=37 velocity=0 time=180
note_on channel=0 note=67 velocity=0 time=0
note_on channel=0 note=64 velocity=0 time=0
note_on channel=0 note=49 velocity=0 time=0
note_on channel=0 note=34 velocity=66 time=0
note_on channel=0 note=49 velocity=66 time=0
note_on channel=0 note=34 velocity=0 time=9
note_on channel=0 note=36 velocity=52 time=0
note_on channel=0 note=49 velocity=0 time=40
note_on channel=0 note=48 velocity=53 time=0
note_on channel=0 note=36 velocity=0 time=39
note_on channel=0 note=34 velocity=66 time=0
note_on channel=0 note=34 velocity=0 time=18
note_on channel=0 note=48 velocity=0 time=0
note_on channel=0 note=50 velocity=53 time=0
note_on channel=0 note=36 velocity=52 time=0
note_on channel=0 note=36 velocity=0 time=34
note_on channel=0 note=34 velocity=66 time=0
note_on channel=0 note=50 velocity=0 time=37
note_on channel=0 note=52 velocity=53 time=0
note_on channel=0 note=34 velocity=0 time=26
note_on channel=0 note=36 velocity=52 time=0
note_on channel=0 note=36 velocity=0 time=5
note_on channel=0 note=52 velocity=0 time=0
note_on channel=0 note=34 velocity=66 time=0
note_on channel=0 note=53 velocity=57 time=0
note_on channel=0 note=34 velocity=0 time=34
note_on channel=0 note=36 velocity=52 time=0
note_on channel=0 note=53 velocity=0 time=24
note_on channel=0 note=55 velocity=59 time=0
note_on channel=0 note=36 velocity=0 time=13
note_on channel=0 note=34 velocity=66 time=0
note_on channel=0 note=34 velocity=0 time=43
note_on channel=0 note=55 velocity=0 time=0
note_on channel=0 note=67 velocity=62 time=0
note_on channel=0 note=36 velocity=52 time=0
note_on channel=0 note=57 velocity=61 time=0
note_on channel=0 note=36 velocity=0 time=22
note_on channel=0 note=34 velocity=66 time=0
note_on channel=0 note=57 velocity=0 time=11
note_on channel=0 note=58 velocity=63 time=0
note_on channel=0 note=34 velocity=0 time=40
note_on channel=0 note=36 velocity=52 time=0
note_on channel=0 note=36 velocity=0 time=0
note_on channel=0 note=58 velocity=0 time=0
note_on channel=0 note=67 velocity=0 time=0
note_on channel=0 note=64 velocity=69 time=0
note_on channel=0 note=33 velocity=66 time=0
note_on channel=0 note=60 velocity=65 time=0
note_on channel=0 note=60 velocity=0 time=35
note_on channel=0 note=57 velocity=64 time=0
note_on channel=0 note=57 velocity=0 time=120
note_on channel=0 note=64 velocity=0 time=0
note_on channel=0 note=65 velocity=61 time=0
note_on channel=0 note=55 velocity=62 time=0
note_on channel=0 note=55 velocity=0 time=63
note_on channel=0 note=53 velocity=60 time=0
note_on channel=0 note=53 velocity=0 time=0
note_on channel=0 note=65 velocity=0 time=0
note_on channel=0 note=33 velocity=0 time=0
note_on channel=0 note=51 velocity=66 time=0
note_on channel=0 note=36 velocity=66 time=0
note_on channel=0 note=36 velocity=0 time=9
note_on channel=0 note=38 velocity=52 time=0
note_on channel=0 note=51 velocity=0 time=40
note_on channel=0 note=50 velocity=53 time=0
note_on channel=0 note=38 velocity=0 time=39
note_on channel=0 note=36 velocity=66 time=0
note_on channel=0 note=36 velocity=0 time=18
note_on channel=0 note=50 velocity=0 time=0
note_on channel=0 note=38 velocity=52 time=0
note_on channel=0 note=52 velocity=53 time=0
note_on channel=0 note=38 velocity=0 time=34
note_on channel=0 note=36 velocity=66 time=0
note_on channel=0 note=52 velocity=0 time=37
note_on channel=0 note=54 velocity=53 time=0
note_on channel=0 note=36 velocity=0 time=26
note_on channel=0 note=38 velocity=52 time=0
note_on channel=0 note=38 velocity=0 time=5
note_on channel=0 note=54 velocity=0 time=0
note_on channel=0 note=36 velocity=66 time=0
note_on channel=0 note=55 velocity=57 time=0
note_on channel=0 note=36 velocity=0 time=34
note_on channel=0 note=38 velocity=52 time=0
note_on channel=0 note=55 velocity=0 time=24
note_on channel=0 note=57 velocity=59 time=0
note_on channel=0 note=36 velocity=66 time=12
note_on channel=0 note=38 velocity=0 time=1
note_on channel=0 note=36 velocity=0 time=42
note_on channel=0 note=57 velocity=0 time=1
note_on channel=0 note=69 velocity=62 time=0
note_on channel=0 note=38 velocity=52 time=0
note_on channel=0 note=58 velocity=61 time=0
note_on channel=0 note=38 velocity=0 time=22
note_on channel=0 note=36 velocity=66 time=0
note_on channel=0 note=58 velocity=0 time=11
note_on channel=0 note=60 velocity=63 time=0
note_on channel=0 note=36 velocity=0 time=40
note_on channel=0 note=38 velocity=52 time=0
note_on channel=0 note=38 velocity=0 time=0
note_on channel=0 note=60 velocity=0 time=0
note_on channel=0 note=69 velocity=0 time=0
note_on channel=0 note=66 velocity=69 time=0
note_on channel=0 note=34 velocity=66 time=0
note_on channel=0 note=62 velocity=65 time=0
note_on channel=0 note=62 velocity=0 time=35
note_on channel=0 note=58 velocity=64 time=0
note_on channel=0 note=58 velocity=0 time=120
note_on channel=0 note=66 velocity=0 time=0
note_on channel=0 note=67 velocity=61 time=0
note_on channel=0 note=57 velocity=62 time=0
note_on channel=0 note=57 velocity=0 time=63
note_on channel=0 note=55 velocity=60 time=0
note_on channel=0 note=55 velocity=0 time=0
note_on channel=0 note=67 velocity=0 time=0
note_on channel=0 note=34 velocity=0 time=0
note_on channel=0 note=53 velocity=66 time=0
note_on channel=0 note=38 velocity=66 time=0
note_on channel=0 note=38 velocity=0 time=9
note_on channel=0 note=39 velocity=52 time=0
note_on channel=0 note=53 velocity=0 time=40
note_on channel=0 note=51 velocity=53 time=0
note_on channel=0 note=39 velocity=0 time=39
note_on channel=0 note=38 velocity=66 time=0
note_on channel=0 note=38 velocity=0 time=18
note_on channel=0 note=51 velocity=0 time=0
note_on channel=0 note=53 velocity=53 time=0
note_on channel=0 note=39 velocity=52 time=0
note_on channel=0 note=39 velocity=0 time=34
note_on channel=0 note=38 velocity=66 time=0
note_on channel=0 note=53 velocity=0 time=37
note_on channel=0 note=55 velocity=53 time=0
note_on channel=0 note=38 velocity=0 time=26
note_on channel=0 note=39 velocity=52 time=0
note_on channel=0 note=39 velocity=0 time=5
note_on channel=0 note=55 velocity=0 time=0
note_on channel=0 note=57 velocity=57 time=0
note_on channel=0 note=38 velocity=66 time=0
note_on channel=0 note=38 velocity=0 time=34
note_on channel=0 note=39 velocity=52 time=0
note_on channel=0 note=57 velocity=0 time=24
note_on channel=0 note=58 velocity=59 time=0
note_on channel=0 note=39 velocity=0 time=13
note_on channel=0 note=38 velocity=66 time=0
note_on channel=0 note=38 velocity=0 time=43
note_on channel=0 note=58 velocity=0 time=0
note_on channel=0 note=70 velocity=62 time=0
note_on channel=0 note=60 velocity=61 time=0
note_on channel=0 note=39 velocity=52 time=0
note_on channel=0 note=39 velocity=0 time=22
note_on channel=0 note=38 velocity=66 time=0
note_on channel=0 note=60 velocity=0 time=11
note_on channel=0 note=62 velocity=63 time=0
note_on channel=0 note=38 velocity=0 time=40
note_on channel=0 note=39 velocity=52 time=0
note_on channel=0 note=39 velocity=0 time=0
note_on channel=0 note=62 velocity=0 time=0
note_on channel=0 note=70 velocity=0 time=0
note_on channel=0 note=67 velocity=69 time=0
note_on channel=0 note=36 velocity=66 time=0
note_on channel=0 note=63 velocity=65 time=0
note_on channel=0 note=63 velocity=0 time=35
note_on channel=0 note=60 velocity=64 time=0
note_on channel=0 note=60 velocity=0 time=120
note_on channel=0 note=67 velocity=0 time=0
note_on channel=0 note=69 velocity=61 time=0
note_on channel=0 note=58 velocity=62 time=0
note_on channel=0 note=58 velocity=0 time=63
note_on channel=0 note=57 velocity=60 time=0
note_on channel=0 note=57 velocity=0 time=0
note_on channel=0 note=69 velocity=0 time=0
note_on channel=0 note=36 velocity=0 time=0
note_on channel=0 note=69 velocity=55 time=0
note_on channel=0 note=72 velocity=61 time=0
note_on channel=0 note=39 velocity=66 time=0
note_on channel=0 note=39 velocity=0 time=9
note_on channel=0 note=41 velocity=60 time=0
note_on channel=0 note=69 velocity=0 time=40
note_on channel=0 note=65 velocity=49 time=0
note_on channel=0 note=41 velocity=0 time=40
note_on channel=0 note=39 velocity=66 time=0
note_on channel=0 note=39 velocity=0 time=0
note_on channel=0 note=65 velocity=0 time=0
note_on channel=0 note=72 velocity=0 time=0
note_on channel=0 note=67 velocity=55 time=0
note_on channel=0 note=77 velocity=66 time=0
note_on channel=0 note=41 velocity=62 time=0
note_on channel=0 note=41 velocity=0 time=14
note_on channel=0 note=39 velocity=55 time=0
note_on channel=0 note=39 velocity=0 time=60
note_on channel=0 note=67 velocity=0 time=0
note_on channel=0 note=69 velocity=50 time=0
note_on channel=0 note=38 velocity=55 time=0
note_on channel=0 note=38 velocity=0 time=60
note_on channel=0 note=39 velocity=55 time=0
note_on channel=0 note=39 velocity=0 time=60
note_on channel=0 note=69 velocity=0 time=0
note_on channel=0 note=70 velocity=55 time=0
note_on channel=0 note=38 velocity=63 time=0
note_on channel=0 note=70 velocity=0 time=49
note_on channel=0 note=69 velocity=48 time=0
note_on channel=0 note=69 velocity=0 time=0
note_on channel=0 note=77 velocity=0 time=0
note_on channel=0 note=70 velocity=55 time=0
note_on channel=0 note=74 velocity=61 time=0
note_on channel=0 note=70 velocity=0 time=120
note_on channel=0 note=65 velocity=43 time=0
note_on channel=0 note=65 velocity=0 time=0
note_on channel=0 note=74 velocity=0 time=0
note_on channel=0 note=38 velocity=0 time=0
note_on channel=0 note=67 velocity=55 time=0
note_on channel=0 note=72 velocity=61 time=0
note_on channel=0 note=40 velocity=63 time=0
note_on channel=0 note=67 velocity=0 time=0
note_on channel=0 note=66 velocity=48 time=0
note_on channel=0 note=66 velocity=0 time=0
note_on channel=0 note=40 velocity=0 time=0
note_on channel=0 note=72 velocity=0 time=0
note_on channel=0 note=67 velocity=55 time=0
note_on channel=0 note=70 velocity=57 time=0
note_on channel=0 note=52 velocity=57 time=0
note_on channel=0 note=67 velocity=0 time=0
note_on channel=0 note=60 velocity=49 time=0
note_on channel=0 note=52 velocity=0 time=120
note_on channel=0 note=70 velocity=0 time=0
note_on channel=0 note=69 velocity=61 time=0
note_on channel=0 note=53 velocity=37 time=0
note_on channel=0 note=60 velocity=0 time=40
note_on channel=0 note=63 velocity=49 time=0
note_on channel=0 note=63 velocity=0 time=120
note_on channel=0 note=69 velocity=0 time=0
note_on channel=0 note=68 velocity=58 time=0
note_on channel=0 note=62 velocity=48 time=0
note_on channel=0 note=62 velocity=0 time=0
note_on channel=0 note=60 velocity=48 time=0
note_on channel=0 note=60 velocity=0 time=0
note_on channel=0 note=68 velocity=0 time=0
note_on channel=0 note=67 velocity=49 time=0
note_on channel=0 note=79 velocity=73 time=0
note_on channel=0 note=59 velocity=48 time=0
note_on channel=0 note=59 velocity=0 time=5
note_on channel=0 note=67 velocity=0 time=0
note_on channel=0 note=69 velocity=59 time=0
note_on channel=0 note=60 velocity=52 time=0
note_on channel=0 note=60 velocity=0 time=62
note_on channel=0 note=69 velocity=0 time=0
note_on channel=0 note=71 velocity=57 time=0
note_on channel=0 note=62 velocity=49 time=0
note_on channel=0 note=62 velocity=0 time=31
note_on channel=0 note=71 velocity=0 time=0
note_on channel=0 note=72 velocity=55 time=0
note_on channel=0 note=63 velocity=46 time=0
note_on channel=0 note=63 velocity=0 time=75
note_on channel=0 note=72 velocity=0 time=0
note_on channel=0 note=73 velocity=53 time=0
note_on channel=0 note=64 velocity=53 time=0
note_on channel=0 note=64 velocity=0 time=23
note_on channel=0 note=73 velocity=0 time=0
note_on channel=0 note=74 velocity=51 time=0
note_on channel=0 note=65 velocity=43 time=0
note_on channel=0 note=65 velocity=0 time=37
note_on channel=0 note=74 velocity=0 time=0
note_on channel=0 note=79 velocity=0 time=0
note_on channel=0 note=75 velocity=59 time=0
note_on channel=0 note=77 velocity=59 time=0
note_on channel=0 note=67 velocity=49 time=0
note_on channel=0 note=67 velocity=0 time=28
note_on channel=0 note=75 velocity=0 time=0
note_on channel=0 note=74 velocity=41 time=0
note_on channel=0 note=65 velocity=40 time=0
note_on channel=0 note=65 velocity=0 time=75
note_on channel=0 note=53 velocity=0 time=0
note_on channel=0 note=77 velocity=0 time=0
note_on channel=0 note=74 velocity=0 time=0
note_on channel=0 note=77 velocity=52 time=0
note_on channel=0 note=60 velocity=45 time=0
note_on channel=0 note=53 velocity=37 time=0
note_on channel=0 note=60 velocity=0 time=17
note_on channel=0 note=62 velocity=41 time=0
note_on channel=0 note=62 velocity=0 time=0
note_on channel=0 note=77 velocity=0 time=0
note_on channel=0 note=75 velocity=47 time=0
note_on channel=0 note=63 velocity=45 time=0
note_on channel=0 note=63 velocity=0 time=120
note_on channel=0 note=62 velocity=39 time=0
note_on channel=0 note=62 velocity=0 time=0
note_on channel=0 note=75 velocity=0 time=0
note_on channel=0 note=66 velocity=45 time=0
note_on channel=0 note=74 velocity=52 time=0
note_on channel=0 note=66 velocity=0 time=40
note_on channel=0 note=67 velocity=41 time=0
note_on channel=0 note=67 velocity=0 time=0
note_on channel=0 note=74 velocity=0 time=0
note_on channel=0 note=68 velocity=45 time=0
note_on channel=0 note=72 velocity=47 time=0
note_on channel=0 note=68 velocity=0 time=120
note_on channel=0 note=67 velocity=41 time=0
note_on channel=0 note=67 velocity=0 time=0
note_on channel=0 note=72 velocity=0 time=0
note_on channel=0 note=71 velocity=52 time=0
note_on channel=0 note=65 velocity=45 time=0
note_on channel=0 note=65 velocity=0 time=34
note_on channel=0 note=63 velocity=41 time=0
note_on channel=0 note=63 velocity=0 time=0
note_on channel=0 note=71 velocity=0 time=0
note_on channel=0 note=72 velocity=46 time=0
note_on channel=0 note=62 velocity=45 time=0
note_on channel=0 note=62 velocity=0 time=120
note_on channel=0 note=63 velocity=41 time=0
note_on channel=0 note=63 velocity=0 time=0
note_on channel=0 note=72 velocity=0 time=0
note_on channel=0 note=53 velocity=0 time=0
note_on channel=0 note=69 velocity=57 time=0
note_on channel=0 note=77 velocity=57 time=0
note_on channel=0 note=60 velocity=48 time=0
note_on channel=0 note=53 velocity=37 time=0
note_on channel=0 note=60 velocity=0 time=40
note_on channel=0 note=69 velocity=0 time=0
note_on channel=0 note=70 velocity=50 time=0
note_on channel=0 note=62 velocity=41 time=0
note_on channel=0 note=62 velocity=0 time=120
note_on channel=0 note=70 velocity=0 time=0
note_on channel=0 note=77 velocity=0 time=0
note_on channel=0 note=69 velocity=55 time=0
note_on channel=0 note=60 velocity=48 time=0
note_on channel=0 note=60 velocity=0 time=0
note_on channel=0 note=69 velocity=0 time=0
note_on channel=0 note=67 velocity=49 time=0
note_on channel=0 note=58 velocity=41 time=0
note_on channel=0 note=58 velocity=0 time=0
note_on channel=0 note=67 velocity=0 time=0
note_on channel=0 note=65 velocity=58 time=0
note_on channel=0 note=75 velocity=68 time=0
note_on channel=0 note=57 velocity=48 time=0
note_on channel=0 note=57 velocity=0 time=5
note_on channel=0 note=65 velocity=0 time=0
note_on channel=0 note=67 velocity=55 time=0
note_on channel=0 note=58 velocity=52 time=0
note_on channel=0 note=58 velocity=0 time=62
note_on channel=0 note=67 velocity=0 time=0
note_on channel=0 note=69 velocity=54 time=0
note_on channel=0 note=60 velocity=49 time=0
note_on channel=0 note=60 velocity=0 time=31
note_on channel=0 note=69 velocity=0 time=0
note_on channel=0 note=70 velocity=52 time=0
note_on channel=0 note=62 velocity=46 time=0
note_on channel=0 note=62 velocity=0 time=75
note_on channel=0 note=70 velocity=0 time=0
note_on channel=0 note=71 velocity=50 time=0
note_on channel=0 note=63 velocity=53 time=0
note_on channel=0 note=63 velocity=0 time=23
note_on channel=0 note=71 velocity=0 time=0
note_on channel=0 note=72 velocity=49 time=0
note_on channel=0 note=64 velocity=43 time=0
note_on channel=0 note=64 velocity=0 time=37
note_on channel=0 note=72 velocity=0 time=0
note_on channel=0 note=75 velocity=0 time=0
note_on channel=0 note=74 velocity=59 time=0
note_on channel=0 note=75 velocity=59 time=0
note_on channel=0 note=65 velocity=49 time=0
note_on channel=0 note=65 velocity=0 time=34
note_on channel=0 note=74 velocity=0 time=0
note_on channel=0 note=72 velocity=41 time=0
note_on channel=0 note=63 velocity=40 time=0
note_on channel=0 note=63 velocity=0 time=75
note_on channel=0 note=53 velocity=0 time=0
note_on channel=0 note=75 velocity=0 time=0
note_on channel=0 note=72 velocity=0 time=0
note_on channel=0 note=75 velocity=52 time=0
note_on channel=0 note=53 velocity=37 time=0
note_on channel=0 note=58 velocity=45 time=0
note_on channel=0 note=58 velocity=0 time=17
note_on channel=0 note=60 velocity=41 time=0
note_on channel=0 note=60 velocity=0 time=0
note_on channel=0 note=75 velocity=0 time=0
note_on channel=0 note=74 velocity=47 time=0
note_on channel=0 note=62 velocity=45 time=0
note_on channel=0 note=62 velocity=0 time=120
note_on channel=0 note=63 velocity=39 time=0
note_on channel=0 note=63 velocity=0 time=0
note_on channel=0 note=74 velocity=0 time=0
note_on channel=0 note=64 velocity=45 time=0
note_on channel=0 note=72 velocity=52 time=0
note_on channel=0 note=64 velocity=0 time=40
note_on channel=0 note=65 velocity=41 time=0
note_on channel=0 note=65 velocity=0 time=0
note_on channel=0 note=72 velocity=0 time=0
note_on channel=0 note=67 velocity=45 time=0
note_on channel=0 note=70 velocity=47 time=0
note_on channel=0 note=67 velocity=0 time=120
note_on channel=0 note=65 velocity=41 time=0
note_on channel=0 note=65 velocity=0 time=0
note_on channel=0 note=70 velocity=0 time=0
note_on channel=0 note=69 velocity=52 time=0
note_on channel=0 note=63 velocity=45 time=0
note_on channel=0 note=63 velocity=0 time=34
note_on channel=0 note=62 velocity=41 time=0
note_on channel=0 note=62 velocity=0 time=0
note_on channel=0 note=69 velocity=0 time=0
note_on channel=0 note=53 velocity=0 time=0
note_on channel=0 note=70 velocity=46 time=0
note_on channel=0 note=60 velocity=45 time=0
note_on channel=0 note=54 velocity=37 time=0
note_on channel=0 note=60 velocity=0 time=28
note_on channel=0 note=58 velocity=41 time=0
note_on channel=0 note=58 velocity=0 time=0
note_on channel=0 note=54 velocity=0 time=0
note_on channel=0 note=70 velocity=0 time=0
note_on channel=0 note=59 velocity=64 time=0
note_on channel=0 note=55 velocity=77 time=0
note_on channel=0 note=43 velocity=65 time=0
note_on channel=0 note=43 velocity=0 time=40
note_on channel=0 note=55 velocity=0 time=0
note_on channel=0 note=59 velocity=0 time=0
note_on channel=0 note=60 velocity=57 time=0
note_on channel=0 note=60 velocity=0 time=68
note_on channel=0 note=59 velocity=57 time=0
note_on channel=0 note=59 velocity=0 time=0
note_on channel=0 note=57 velocity=57 time=0
note_on channel=0 note=57 velocity=0 time=0
note_on channel=0 note=55 velocity=65 time=0
note_on channel=0 note=41 velocity=72 time=0
note_on channel=0 note=53 velocity=85 time=0
note_on channel=0 note=55 velocity=0 time=18
note_on channel=0 note=57 velocity=58 time=0
note_on channel=0 note=57 velocity=0 time=62
note_on channel=0 note=59 velocity=59 time=0
note_on channel=0 note=59 velocity=0 time=31
note_on channel=0 note=60 velocity=59 time=0
note_on channel=0 note=60 velocity=0 time=75
note_on channel=0 note=61 velocity=65 time=0
note_on channel=0 note=61 velocity=0 time=17
note_on channel=0 note=62 velocity=58 time=0
note_on channel=0 note=62 velocity=0 time=37
note_on channel=0 note=53 velocity=0 time=0
note_on channel=0 note=41 velocity=0 time=0
note_on channel=0 note=63 velocity=58 time=0
note_on channel=0 note=53 velocity=72 time=0
note_on channel=0 note=41 velocity=61 time=0
note_on channel=0 note=63 velocity=0 time=120
note_on channel=0 note=62 velocity=58 time=0
note_on channel=0 note=62 velocity=0 time=75
note_on channel=0 note=41 velocity=0 time=0
note_on channel=0 note=53 velocity=0 time=0
note_on channel=0 note=72 velocity=57 time=0
note_on channel=0 note=60 velocity=64 time=0
note_on channel=0 note=53 velocity=74 time=0
note_on channel=0 note=41 velocity=62 time=0
note_on channel=0 note=60 velocity=0 time=45
note_on channel=0 note=62 velocity=57 time=0
note_on channel=0 note=62 velocity=0 time=0
note_on channel=0 note=41 velocity=0 time=0
note_on channel=0 note=53 velocity=0 time=0
note_on channel=0 note=72 velocity=0 time=0
note_on channel=0 note=64 velocity=57 time=0
note_on channel=0 note=40 velocity=54 time=0
note_on channel=0 note=52 velocity=64 time=0
note_on channel=0 note=64 velocity=0 time=40
note_on channel=0 note=65 velocity=57 time=0
note_on channel=0 note=52 velocity=0 time=60
note_on channel=0 note=40 velocity=0 time=0
note_on channel=0 note=65 velocity=0 time=0
note_on channel=0 note=70 velocity=68 time=0
note_on channel=0 note=66 velocity=64 time=0
note_on channel=0 note=49 velocity=66 time=0
note_on channel=0 note=37 velocity=56 time=0
note_on channel=0 note=66 velocity=0 time=45
note_on channel=0 note=67 velocity=57 time=0
note_on channel=0 note=67 velocity=0 time=0
note_on channel=0 note=37 velocity=0 time=0
note_on channel=0 note=49 velocity=0 time=0
note_on channel=0 note=68 velocity=57 time=0
note_on channel=0 note=36 velocity=50 time=0
note_on channel=0 note=48 velocity=59 time=0
note_on channel=0 note=68 velocity=0 time=23
note_on channel=0 note=67 velocity=57 time=0
note_on channel=0 note=48 velocity=0 time=60
note_on channel=0 note=36 velocity=0 time=0
note_on channel=0 note=67 velocity=0 time=0
note_on channel=0 note=65 velocity=63 time=0
note_on channel=0 note=35 velocity=56 time=0
note_on channel=0 note=47 velocity=66 time=0
note_on channel=0 note=65 velocity=0 time=23
note_on channel=0 note=64 velocity=56 time=0
note_on channel=0 note=64 velocity=0 time=0
note_on channel=0 note=47 velocity=0 time=0
note_on channel=0 note=35 velocity=0 time=0
note_on channel=0 note=70 velocity=0 time=0
note_on channel=0 note=70 velocity=59 time=0
note_on channel=0 note=61 velocity=56 time=0
note_on channel=0 note=36 velocity=47 time=0
note_on channel=0 note=48 velocity=56 time=0
note_on channel=0 note=61 velocity=0 time=45
note_on channel=0 note=60 velocity=56 time=0
note_on channel=0 note=48 velocity=0 time=60
note_on channel=0 note=36 velocity=0 time=0
note_on channel=0 note=70 velocity=0 time=0
note_on channel=0 note=60 velocity=0 time=0
note_on channel=0 note=69 velocity=64 time=0
note_on channel=0 note=53 velocity=77 time=0
note_on channel=0 note=41 velocity=65 time=0
note_on channel=0 note=41 velocity=0 time=40
note_on channel=0 note=53 velocity=0 time=0
note_on channel=0 note=69 velocity=0 time=0
note_on channel=0 note=70 velocity=57 time=0
note_on channel=0 note=70 velocity=0 time=68
note_on channel=0 note=69 velocity=57 time=0
note_on channel=0 note=69 velocity=0 time=0
note_on channel=0 note=67 velocity=57 time=0
note_on channel=0 note=67 velocity=0 time=0
note_on channel=0 note=65 velocity=65 time=0
note_on channel=0 note=39 velocity=72 time=0
note_on channel=0 note=51 velocity=85 time=0
note_on channel=0 note=65 velocity=0 time=18
note_on channel=0 note=67 velocity=58 time=0
note_on channel=0 note=67 velocity=0 time=62
note_on channel=0 note=69 velocity=59 time=0
note_on channel=0 note=69 velocity=0 time=31
note_on channel=0 note=70 velocity=59 time=0
note_on channel=0 note=70 velocity=0 time=75
note_on channel=0 note=71 velocity=65 time=0
note_on channel=0 note=71 velocity=0 time=17
note_on channel=0 note=72 velocity=58 time=0
note_on channel=0 note=72 velocity=0 time=37
note_on channel=0 note=51 velocity=0 time=0
note_on channel=0 note=39 velocity=0 time=0
note_on channel=0 note=74 velocity=58 time=0
note_on channel=0 note=51 velocity=72 time=0
note_on channel=0 note=39 velocity=61 time=0
note_on channel=0 note=74 velocity=0 time=120
note_on channel=0 note=72 velocity=58 time=0
note_on channel=0 note=72 velocity=0 time=75
note_on channel=0 note=39 velocity=0 time=0
note_on channel=0 note=51 velocity=0 time=0
note_on channel=0 note=70 velocity=64 time=0
note_on channel=0 note=51 velocity=74 time=0
note_on channel=0 note=39 velocity=62 time=0
note_on channel=0 note=70 velocity=0 time=45
note_on channel=0 note=72 velocity=57 time=0
note_on channel=0 note=72 velocity=0 time=0
note_on channel=0 note=39 velocity=0 time=0
note_on channel=0 note=51 velocity=0 time=0
note_on channel=0 note=74 velocity=57 time=0
note_on channel=0 note=50 velocity=64 time=0
note_on channel=0 note=38 velocity=54 time=0
note_on channel=0 note=74 velocity=0 time=40
note_on channel=0 note=75 velocity=57 time=0
note_on channel=0 note=38 velocity=0 time=60
note_on channel=0 note=50 velocity=0 time=0
note_on channel=0 note=75 velocity=0 time=0
note_on channel=0 note=76 velocity=64 time=0
note_on channel=0 note=48 velocity=66 time=0
note_on channel=0 note=36 velocity=56 time=0
note_on channel=0 note=76 velocity=0 time=45
note_on channel=0 note=77 velocity=57 time=0
note_on channel=0 note=77 velocity=0 time=0
note_on channel=0 note=36 velocity=0 time=0
note_on channel=0 note=48 velocity=0 time=0
note_on channel=0 note=79 velocity=57 time=0
note_on channel=0 note=47 velocity=59 time=0
note_on channel=0 note=35 velocity=50 time=0
note_on channel=0 note=79 velocity=0 time=23
note_on channel=0 note=77 velocity=57 time=0
note_on channel=0 note=35 velocity=0 time=60
note_on channel=0 note=47 velocity=0 time=0
note_on channel=0 note=77 velocity=0 time=0
note_on channel=0 note=67 velocity=66 time=0
note_on channel=0 note=71 velocity=63 time=0
note_on channel=0 note=71 velocity=0 time=23
note_on channel=0 note=74 velocity=56 time=0
note_on channel=0 note=74 velocity=0 time=0
note_on channel=0 note=67 velocity=0 time=0
note_on channel=0 note=65 velocity=56 time=0
note_on channel=0 note=75 velocity=56 time=0
note_on channel=0 note=75 velocity=0 time=45
note_on channel=0 note=77 velocity=56 time=0
note_on channel=0 note=65 velocity=0 time=60
note_on channel=0 note=77 velocity=0 time=0
note_on channel=0 note=65 velocity=68 time=0
note_on channel=0 note=71 velocity=64 time=0
note_on channel=0 note=71 velocity=0 time=45
note_on channel=0 note=72 velocity=57 time=0
note_on channel=0 note=72 velocity=0 time=0
note_on channel=0 note=65 velocity=0 time=0
note_on channel=0 note=63 velocity=62 time=0
note_on channel=0 note=74 velocity=57 time=0
note_on channel=0 note=74 velocity=0 time=40
note_on channel=0 note=72 velocity=57 time=0
note_on channel=0 note=63 velocity=0 time=60
note_on channel=0 note=72 velocity=0 time=0
note_on channel=0 note=62 velocity=66 time=0
note_on channel=0 note=74 velocity=64 time=0
note_on channel=0 note=74 velocity=0 time=68
note_on channel=0 note=75 velocity=57 time=0
note_on channel=0 note=75 velocity=0 time=0
note_on channel=0 note=62 velocity=0 time=0
note_on channel=0 note=60 velocity=61 time=0
note_on channel=0 note=77 velocity=57 time=0
note_on channel=0 note=77 velocity=0 time=40
note_on channel=0 note=75 velocity=57 time=0
note_on channel=0 note=60 velocity=0 time=60
note_on channel=0 note=75 velocity=0 time=0
note_on channel=0 note=69 velocity=63 time=0
note_on channel=0 note=53 velocity=66 time=0
note_on channel=0 note=41 velocity=56 time=0
note_on channel=0 note=69 velocity=0 time=28
note_on channel=0 note=72 velocity=56 time=0
note_on channel=0 note=72 velocity=0 time=0
note_on channel=0 note=41 velocity=0 time=0
note_on channel=0 note=53 velocity=0 time=0
note_on channel=0 note=74 velocity=56 time=0
note_on channel=0 note=39 velocity=51 time=0
note_on channel=0 note=51 velocity=60 time=0
note_on channel=0 note=74 velocity=0 time=40
note_on channel=0 note=75 velocity=56 time=0
note_on channel=0 note=51 velocity=0 time=60
note_on channel=0 note=39 velocity=0 time=0
note_on channel=0 note=75 velocity=0 time=0
note_on channel=0 note=76 velocity=64 time=0
note_on channel=0 note=51 velocity=66 time=0
note_on channel=0 note=39 velocity=56 time=0
note_on channel=0 note=76 velocity=0 time=40
note_on channel=0 note=77 velocity=57 time=0
note_on channel=0 note=77 velocity=0 time=0
note_on channel=0 note=39 velocity=0 time=0
note_on channel=0 note=51 velocity=0 time=0
note_on channel=0 note=79 velocity=57 time=0
note_on channel=0 note=38 velocity=51 time=0
note_on channel=0 note=50 velocity=60 time=0
note_on channel=0 note=79 velocity=0 time=23
note_on channel=0 note=77 velocity=57 time=0
note_on channel=0 note=50 velocity=0 time=60
note_on channel=0 note=38 velocity=0 time=0
note_on channel=0 note=77 velocity=0 time=0
note_on channel=0 note=81 velocity=64 time=0
note_on channel=0 note=36 velocity=56 time=0
note_on channel=0 note=48 velocity=66 time=0
note_on channel=0 note=81 velocity=0 time=34
note_on channel=0 note=82 velocity=57 time=0
note_on channel=0 note=82 velocity=0 time=0
note_on channel=0 note=48 velocity=0 time=0
note_on channel=0 note=36 velocity=0 time=0
note_on channel=0 note=84 velocity=57 time=0
note_on channel=0 note=34 velocity=51 time=0
note_on channel=0 note=46 velocity=61 time=0
note_on channel=0 note=84 velocity=0 time=40
note_on channel=0 note=82 velocity=57 time=0
note_on channel=0 note=46 velocity=0 time=60
note_on channel=0 note=34 velocity=0 time=0
note_on channel=0 note=82 velocity=0 time=0
note_on channel=0 note=75 velocity=66 time=0
note_on channel=0 note=78 velocity=63 time=0
note_on channel=0 note=78 velocity=0 time=23
note_on channel=0 note=79 velocity=56 time=0
note_on channel=0 note=79 velocity=0 time=0
note_on channel=0 note=75 velocity=0 time=0
note_on channel=0 note=74 velocity=56 time=0
note_on channel=0 note=81 velocity=56 time=0
note_on channel=0 note=81 velocity=0 time=45
note_on channel=0 note=79 velocity=56 time=0
note_on channel=0 note=74 velocity=0 time=60
note_on channel=0 note=79 velocity=0 time=0
note_on channel=0 note=74 velocity=68 time=0
note_on channel=0 note=80 velocity=64 time=0
note_on channel=0 note=80 velocity=0 time=45
note_on channel=0 note=81 velocity=57 time=0
note_on channel=0 note=81 velocity=0 time=0
note_on channel=0 note=74 velocity=0 time=0
note_on channel=0 note=72 velocity=62 time=0
note_on channel=0 note=82 velocity=57 time=0
note_on channel=0 note=82 velocity=0 time=40
note_on channel=0 note=81 velocity=57 time=0
note_on channel=0 note=72 velocity=0 time=60
note_on channel=0 note=81 velocity=0 time=0
note_on channel=0 note=70 velocity=66 time=0
note_on channel=0 note=83 velocity=64 time=0
note_on channel=0 note=83 velocity=0 time=68
note_on channel=0 note=84 velocity=57 time=0
note_on channel=0 note=84 velocity=0 time=0
note_on channel=0 note=70 velocity=0 time=0
note_on channel=0 note=69 velocity=61 time=0
note_on channel=0 note=86 velocity=57 time=0
note_on channel=0 note=86 velocity=0 time=40
note_on channel=0 note=84 velocity=57 time=0
note_on channel=0 note=69 velocity=0 time=60
note_on channel=0 note=84 velocity=0 time=0
note_on channel=0 note=74 velocity=66 time=0
note_on channel=0 note=76 velocity=63 time=0
note_on channel=0 note=76 velocity=0 time=23
note_on channel=0 note=78 velocity=56 time=0
note_on channel=0 note=78 velocity=0 time=0
note_on channel=0 note=74 velocity=0 time=0
note_on channel=0 note=72 velocity=56 time=0
note_on channel=0 note=79 velocity=56 time=0
note_on channel=0 note=79 velocity=0 time=45
note_on channel=0 note=78 velocity=56 time=0
note_on channel=0 note=72 velocity=0 time=60
note_on channel=0 note=78 velocity=0 time=0
note_on channel=0 note=72 velocity=68 time=0
note_on channel=0 note=79 velocity=64 time=0
note_on channel=0 note=79 velocity=0 time=45
note_on channel=0 note=80 velocity=57 time=0
note_on channel=0 note=80 velocity=0 time=0
note_on channel=0 note=72 velocity=0 time=0
note_on channel=0 note=70 velocity=62 time=0
note_on channel=0 note=81 velocity=57 time=0
note_on channel=0 note=81 velocity=0 time=40
note_on channel=0 note=79 velocity=57 time=0
note_on channel=0 note=70 velocity=0 time=60
note_on channel=0 note=79 velocity=0 time=0
note_on channel=0 note=74 velocity=66 time=0
note_on channel=0 note=82 velocity=64 time=0
note_on channel=0 note=82 velocity=0 time=68
note_on channel=0 note=83 velocity=57 time=0
note_on channel=0 note=83 velocity=0 time=0
note_on channel=0 note=74 velocity=0 time=0
note_on channel=0 note=75 velocity=61 time=0
note_on channel=0 note=84 velocity=57 time=0
note_on channel=0 note=84 velocity=0 time=40
note_on channel=0 note=82 velocity=57 time=0
note_on channel=0 note=75 velocity=0 time=60
note_on channel=0 note=82 velocity=0 time=0
note_on channel=0 note=74 velocity=66 time=0
note_on channel=0 note=80 velocity=63 time=0
note_on channel=0 note=80 velocity=0 time=23
note_on channel=0 note=81 velocity=56 time=0
note_on channel=0 note=81 velocity=0 time=0
note_on channel=0 note=74 velocity=0 time=0
note_on channel=0 note=72 velocity=56 time=0
note_on channel=0 note=82 velocity=56 time=0
note_on channel=0 note=82 velocity=0 time=45
note_on channel=0 note=81 velocity=56 time=0
note_on channel=0 note=72 velocity=0 time=60
note_on channel=0 note=81 velocity=0 time=0
note_on channel=0 note=76 velocity=68 time=0
note_on channel=0 note=85 velocity=64 time=0
note_on channel=0 note=85 velocity=0 time=45
note_on channel=0 note=86 velocity=57 time=0
note_on channel=0 note=86 velocity=0 time=0
note_on channel=0 note=76 velocity=0 time=0
note_on channel=0 note=77 velocity=62 time=0
note_on channel=0 note=87 velocity=57 time=0
note_on channel=0 note=87 velocity=0 time=40
note_on channel=0 note=86 velocity=57 time=0
note_on channel=0 note=77 velocity=0 time=60
note_on channel=0 note=86 velocity=0 time=0
note_on channel=0 note=75 velocity=66 time=0
note_on channel=0 note=83 velocity=64 time=0
note_on channel=0 note=83 velocity=0 time=68
note_on channel=0 note=84 velocity=57 time=0
note_on channel=0 note=84 velocity=0 time=0
note_on channel=0 note=75 velocity=0 time=0
note_on channel=0 note=74 velocity=61 time=0
note_on channel=0 note=86 velocity=57 time=0
note_on channel=0 note=86 velocity=0 time=40
note_on channel=0 note=82 velocity=57 time=0
note_on channel=0 note=74 velocity=0 time=60
note_on channel=0 note=82 velocity=0 time=0
note_on channel=0 note=73 velocity=70 time=0
note_on channel=0 note=42 velocity=64 time=0
note_on channel=0 note=54 velocity=76 time=0
note_on channel=0 note=73 velocity=0 time=45
note_on channel=0 note=74 velocity=65 time=0
note_on channel=0 note=74 velocity=0 time=0
note_on channel=0 note=54 velocity=0 time=0
note_on channel=0 note=42 velocity=0 time=0
note_on channel=0 note=72 velocity=71 time=0
note_on channel=0 note=55 velocity=66 time=0
note_on channel=0 note=43 velocity=56 time=0
note_on channel=0 note=43 velocity=0 time=113
note_on channel=0 note=55 velocity=0 time=0
note_on channel=0 note=70 velocity=67 time=0
note_on channel=0 note=72 velocity=0 time=24
note_on channel=0 note=70 velocity=0 time=0
note_on channel=0 note=68 velocity=64 time=0
note_on channel=0 note=71 velocity=83 time=0
note_on channel=0 note=41 velocity=61 time=0
note_on channel=0 note=53 velocity=72 time=0
note_on channel=0 note=68 velocity=0 time=103
note_on channel=0 note=62 velocity=61 time=0
note_on channel=0 note=62 velocity=0 time=0
note_on channel=0 note=53 velocity=0 time=0
note_on channel=0 note=41 velocity=0 time=0
note_on channel=0 note=71 velocity=0 time=0
note_on channel=0 note=67 velocity=64 time=0
note_on channel=0 note=72 velocity=76 time=0
note_on channel=0 note=52 velocity=66 time=0
note_on channel=0 note=40 velocity=56 time=0
note_on channel=0 note=40 velocity=0 time=107
note_on channel=0 note=52 velocity=0 time=0
note_on channel=0 note=64 velocity=61 time=0
note_on channel=0 note=72 velocity=0 time=24
note_on channel=0 note=67 velocity=0 time=0
note_on channel=0 note=64 velocity=0 time=0
note_on channel=0 note=62 velocity=64 time=0
note_on channel=0 note=70 velocity=82 time=0
note_on channel=0 note=55 velocity=72 time=0
note_on channel=0 note=43 velocity=61 time=0
note_on channel=0 note=62 velocity=0 time=63
note_on channel=0 note=64 velocity=62 time=0
note_on channel=0 note=64 velocity=0 time=0
note_on channel=0 note=43 velocity=0 time=0
note_on channel=0 note=55 velocity=0 time=0
note_on channel=0 note=70 velocity=0 time=0
note_on channel=0 note=61 velocity=64 time=0
note_on channel=0 note=69 velocity=76 time=0
note_on channel=0 note=57 velocity=66 time=0
note_on channel=0 note=45 velocity=56 time=0
note_on channel=0 note=45 velocity=0 time=112
note_on channel=0 note=57 velocity=0 time=0
note_on channel=0 note=64 velocity=61 time=0
note_on channel=0 note=69 velocity=0 time=24
note_on channel=0 note=61 velocity=0 time=0
note_on channel=0 note=64 velocity=0 time=0
note_on channel=0 note=70 velocity=64 time=0
note_on channel=0 note=73 velocity=83 time=0
note_on channel=0 note=43 velocity=62 time=0
note_on channel=0 note=55 velocity=74 time=0
note_on channel=0 note=70 velocity=0 time=68
note_on channel=0 note=64 velocity=61 time=0
note_on channel=0 note=64 velocity=0 time=0
note_on channel=0 note=55 velocity=0 time=0
note_on channel=0 note=43 velocity=0 time=0
note_on channel=0 note=73 velocity=0 time=0
note_on channel=0 note=69 velocity=64 time=0
note_on channel=0 note=74 velocity=76 time=0
note_on channel=0 note=42 velocity=56 time=0
note_on channel=0 note=54 velocity=66 time=0
note_on channel=0 note=54 velocity=0 time=110
note_on channel=0 note=42 velocity=0 time=0
note_on channel=0 note=66 velocity=64 time=0
note_on channel=0 note=74 velocity=0 time=24
note_on channel=0 note=69 velocity=0 time=0
note_on channel=0 note=66 velocity=0 time=0
note_on channel=0 note=63 velocity=64 time=0
note_on channel=0 note=72 velocity=83 time=0
note_on channel=0 note=45 velocity=64 time=0
note_on channel=0 note=57 velocity=76 time=0
note_on channel=0 note=63 velocity=0 time=97
note_on channel=0 note=66 velocity=61 time=0
note_on channel=0 note=66 velocity=0 time=0
note_on channel=0 note=57 velocity=0 time=0
note_on channel=0 note=45 velocity=0 time=0
note_on channel=0 note=72 velocity=0 time=0
note_on channel=0 note=62 velocity=64 time=0
note_on channel=0 note=70 velocity=76 time=0
note_on channel=0 note=58 velocity=66 time=0
note_on channel=0 note=46 velocity=56 time=0
note_on channel=0 note=46 velocity=0 time=107
note_on channel=0 note=58 velocity=0 time=0
note_on channel=0 note=67 velocity=62 time=0
note_on channel=0 note=70 velocity=0 time=24
note_on channel=0 note=62 velocity=0 time=0
note_on channel=0 note=67 velocity=0 time=0
note_on channel=0 note=70 velocity=64 time=0
note_on channel=0 note=75 velocity=83 time=0
note_on channel=0 note=42 velocity=62 time=0
note_on channel=0 note=54 velocity=74 time=0
note_on channel=0 note=70 velocity=0 time=80
note_on channel=0 note=69 velocity=63 time=0
note_on channel=0 note=69 velocity=0 time=0
note_on channel=0 note=54 velocity=0 time=0
note_on channel=0 note=42 velocity=0 time=0
note_on channel=0 note=75 velocity=0 time=0
note_on channel=0 note=70 velocity=64 time=0
note_on channel=0 note=76 velocity=76 time=0
note_on channel=0 note=43 velocity=56 time=0
note_on channel=0 note=55 velocity=66 time=0
note_on channel=0 note=55 velocity=0 time=108
note_on channel=0 note=43 velocity=0 time=0
note_on channel=0 note=67 velocity=62 time=0
note_on channel=0 note=76 velocity=0 time=24
note_on channel=0 note=70 velocity=0 time=0
note_on channel=0 note=67 velocity=0 time=0
note_on channel=0 note=73 velocity=64 time=0
note_on channel=0 note=78 velocity=82 time=0
note_on channel=0 note=39 velocity=65 time=0
note_on channel=0 note=51 velocity=77 time=0
note_on channel=0 note=73 velocity=0 time=51
note_on channel=0 note=72 velocity=63 time=0
note_on channel=0 note=72 velocity=0 time=0
note_on channel=0 note=51 velocity=0 time=0
note_on channel=0 note=39 velocity=0 time=0
note_on channel=0 note=78 velocity=0 time=0
note_on channel=0 note=73 velocity=64 time=0
note_on channel=0 note=79 velocity=76 time=0
note_on channel=0 note=40 velocity=56 time=0
note_on channel=0 note=52 velocity=66 time=0
note_on channel=0 note=52 velocity=0 time=107
note_on channel=0 note=40 velocity=0 time=0
note_on channel=0 note=70 velocity=62 time=0
note_on channel=0 note=79 velocity=0 time=24
note_on channel=0 note=73 velocity=0 time=0
note_on channel=0 note=70 velocity=0 time=0
note_on channel=0 note=64 velocity=78 time=0
note_on channel=0 note=67 velocity=78 time=0
note_on channel=0 note=70 velocity=92 time=0
note_on channel=0 note=58 velocity=56 time=0
note_on channel=0 note=61 velocity=66 time=0
note_on channel=0 note=61 velocity=0 time=240
note_on channel=0 note=70 velocity=0 time=0
note_on channel=0 note=64 velocity=0 time=0
note_on channel=0 note=67 velocity=0 time=0
note_on channel=0 note=58 velocity=0 time=0
note_on channel=0 note=85 velocity=74 time=0
note_on channel=0 note=82 velocity=74 time=0
note_on channel=0 note=88 velocity=88 time=0
note_on channel=0 note=46 velocity=69 time=0
note_on channel=0 note=43 velocity=65 time=0
note_on channel=0 note=43 velocity=0 time=10
note_on channel=0 note=88 velocity=0 time=0
note_on channel=0 note=89 velocity=80 time=0
note_on channel=0 note=45 velocity=57 time=0
note_on channel=0 note=45 velocity=0 time=40
note_on channel=0 note=89 velocity=0 time=0
note_on channel=0 note=88 velocity=88 time=0
note_on channel=0 note=43 velocity=65 time=0
note_on channel=0 note=43 velocity=0 time=19
note_on channel=0 note=88 velocity=0 time=0
note_on channel=0 note=89 velocity=79 time=0
note_on channel=0 note=45 velocity=58 time=0
note_on channel=0 note=45 velocity=0 time=23
note_on channel=0 note=89 velocity=0 time=0
note_on channel=0 note=88 velocity=89 time=0
note_on channel=0 note=43 velocity=66 time=0
note_on channel=0 note=43 velocity=0 time=2
note_on channel=0 note=88 velocity=0 time=0
note_on channel=0 note=89 velocity=82 time=0
note_on channel=0 note=45 velocity=58 time=0
note_on channel=0 note=45 velocity=0 time=31
note_on channel=0 note=89 velocity=0 time=0
note_on channel=0 note=88 velocity=90 time=0
note_on channel=0 note=43 velocity=66 time=0
note_on channel=0 note=43 velocity=0 time=10
note_on channel=0 note=88 velocity=0 time=0
note_on channel=0 note=89 velocity=82 time=0
note_on channel=0 note=45 velocity=61 time=0
note_on channel=0 note=45 velocity=0 time=40
note_on channel=0 note=89 velocity=0 time=0
note_on channel=0 note=88 velocity=91 time=0
note_on channel=0 note=43 velocity=67 time=0
note_on channel=0 note=43 velocity=0 time=19
note_on channel=0 note=88 velocity=0 time=0
note_on channel=0 note=89 velocity=81 time=0
note_on channel=0 note=45 velocity=58 time=0
note_on channel=0 note=45 velocity=0 time=3
note_on channel=0 note=89 velocity=0 time=0
note_on channel=0 note=88 velocity=88 time=0
note_on channel=0 note=43 velocity=69 time=0
note_on channel=0 note=43 velocity=0 time=12
note_on channel=0 note=88 velocity=0 time=0
note_on channel=0 note=86 velocity=84 time=0
note_on channel=0 note=41 velocity=62 time=0
note_on channel=0 note=41 velocity=0 time=22
note_on channel=0 note=86 velocity=0 time=0
note_on channel=0 note=88 velocity=89 time=0
note_on channel=0 note=43 velocity=66 time=0
note_on channel=0 note=43 velocity=0 time=57
note_on channel=0 note=46 velocity=0 time=0
note_on channel=0 note=85 velocity=0 time=0
note_on channel=0 note=82 velocity=0 time=0
note_on channel=0 note=88 velocity=0 time=0
note_on channel=0 note=91 velocity=98 time=0
note_on channel=0 note=58 velocity=92 time=221
note_on channel=0 note=58 velocity=0 time=60
note_on channel=0 note=91 velocity=0 time=0
note_on channel=0 note=76 velocity=88 time=0
note_on channel=0 note=76 velocity=0 time=10
note_on channel=0 note=77 velocity=80 time=0
note_on channel=0 note=77 velocity=0 time=40
note_on channel=0 note=76 velocity=88 time=0
note_on channel=0 note=76 velocity=0 time=19
note_on channel=0 note=77 velocity=79 time=0
note_on channel=0 note=91 velocity=88 time=0
note_on channel=0 note=77 velocity=0 time=23
note_on channel=0 note=76 velocity=89 time=0
note_on channel=0 note=91 velocity=0 time=12
note_on channel=0 note=89 velocity=79 time=0
note_on channel=0 note=76 velocity=0 time=2
note_on channel=0 note=77 velocity=82 time=0
note_on channel=0 note=77 velocity=0 time=31
note_on channel=0 note=89 velocity=0 time=0
note_on channel=0 note=76 velocity=90 time=0
note_on channel=0 note=88 velocity=88 time=0
note_on channel=0 note=76 velocity=0 time=10
note_on channel=0 note=77 velocity=82 time=0
note_on channel=0 note=88 velocity=0 time=0
note_on channel=0 note=85 velocity=79 time=0
note_on channel=0 note=77 velocity=0 time=40
note_on channel=0 note=76 velocity=91 time=0
note_on channel=0 note=76 velocity=0 time=19
note_on channel=0 note=85 velocity=0 time=0
note_on channel=0 note=84 velocity=88 time=0
note_on channel=0 note=77 velocity=81 time=0
note_on channel=0 note=77 velocity=0 time=3
note_on channel=0 note=76 velocity=88 time=0
note_on channel=0 note=76 velocity=0 time=12
note_on channel=0 note=84 velocity=0 time=0
note_on channel=0 note=82 velocity=79 time=0
note_on channel=0 note=74 velocity=84 time=0
note_on channel=0 note=74 velocity=0 time=22
note_on channel=0 note=76 velocity=89 time=0
note_on channel=0 note=76 velocity=0 time=0
note_on channel=0 note=82 velocity=0 time=0
note_on channel=0 note=77 velocity=98 time=0
note_on channel=0 note=81 velocity=92 time=0
note_on channel=0 note=81 velocity=0 time=60
note_on channel=0 note=77 velocity=0 time=180
note_on channel=0 note=93 velocity=98 time=0
note_on channel=0 note=93 velocity=0 time=0
note_on channel=0 note=77 velocity=86 time=0
note_on channel=0 note=64 velocity=62 time=0
note_on channel=0 note=77 velocity=0 time=95
note_on channel=0 note=76 velocity=85 time=0
note_on channel=0 note=76 velocity=0 time=120
note_on channel=0 note=64 velocity=0 time=0
note_on channel=0 note=74 velocity=83 time=0
note_on channel=0 note=65 velocity=73 time=0
note_on channel=0 note=74 velocity=0 time=56
note_on channel=0 note=72 velocity=82 time=0
note_on channel=0 note=72 velocity=0 time=19
note_on channel=0 note=65 velocity=0 time=0
note_on channel=0 note=70 velocity=81 time=0
note_on channel=0 note=70 velocity=0 time=12
note_on channel=0 note=69 velocity=80 time=0
note_on channel=0 note=69 velocity=0 time=0
note_on channel=0 note=74 velocity=98 time=0
note_on channel=0 note=77 velocity=92 time=0
note_on channel=0 note=77 velocity=0 time=60
note_on channel=0 note=74 velocity=0 time=0
note_on channel=0 note=89 velocity=98 time=0
note_on channel=0 note=89 velocity=0 time=0
note_on channel=0 note=74 velocity=86 time=0
note_on channel=0 note=61 velocity=62 time=0
note_on channel=0 note=74 velocity=0 time=95
note_on channel=0 note=72 velocity=85 time=0
note_on channel=0 note=72 velocity=0 time=120
note_on channel=0 note=61 velocity=0 time=0
note_on channel=0 note=70 velocity=83 time=0
note_on channel=0 note=62 velocity=73 time=0
note_on channel=0 note=70 velocity=0 time=56
note_on channel=0 note=69 velocity=82 time=0
note_on channel=0 note=69 velocity=0 time=19
note_on channel=0 note=62 velocity=0 time=0
note_on channel=0 note=67 velocity=81 time=0
note_on channel=0 note=67 velocity=0 time=12
note_on channel=0 note=65 velocity=80 time=0
note_on channel=0 note=65 velocity=0 time=82
note_on channel=0 note=70 velocity=98 time=0
note_on channel=0 note=74 velocity=85 time=240
note_on channel=0 note=74 velocity=0 time=0
note_on channel=0 note=70 velocity=0 time=0
note_on channel=0 note=86 velocity=97 time=0
note_on channel=0 note=86 velocity=0 time=240
note_on channel=0 note=84 velocity=95 time=0
note_on channel=0 note=70 velocity=70 time=0
note_on channel=0 note=69 velocity=65 time=97
note_on channel=0 note=70 velocity=0 time=24
note_on channel=0 note=84 velocity=0 time=96
note_on channel=0 note=82 velocity=92 time=0
note_on channel=0 note=67 velocity=70 time=0
note_on channel=0 note=69 velocity=0 time=24
note_on channel=0 note=69 velocity=61 time=96
note_on channel=0 note=67 velocity=0 time=24
note_on channel=0 note=82 velocity=0 time=21
note_on channel=0 note=83 velocity=90 time=0
note_on channel=0 note=67 velocity=67 time=0
note_on channel=0 note=69 velocity=0 time=20
note_on channel=0 note=65 velocity=61 time=15
note_on channel=0 note=67 velocity=0 time=13
note_on channel=0 note=83 velocity=0 time=0
note_on channel=0 note=84 velocity=90 time=0
note_on channel=0 note=64 velocity=68 time=0
note_on channel=0 note=65 velocity=0 time=24
note_on channel=0 note=65 velocity=62 time=96
note_on channel=0 note=64 velocity=0 time=24
note_on channel=0 note=84 velocity=0 time=96
note_on channel=0 note=64 velocity=62 time=0
note_on channel=0 note=65 velocity=0 time=24
note_on channel=0 note=62 velocity=62 time=96
note_on channel=0 note=64 velocity=0 time=24
note_on channel=0 note=82 velocity=94 time=0
note_on channel=0 note=60 velocity=66 time=0
note_on channel=0 note=62 velocity=0 time=24
note_on channel=0 note=62 velocity=59 time=96
note_on channel=0 note=60 velocity=0 time=24
note_on channel=0 note=64 velocity=63 time=96
note_on channel=0 note=62 velocity=0 time=24
note_on channel=0 note=65 velocity=59 time=96
note_on channel=0 note=64 velocity=0 time=24
note_on channel=0 note=66 velocity=66 time=96
note_on channel=0 note=65 velocity=0 time=24
note_on channel=0 note=67 velocity=59 time=96
note_on channel=0 note=66 velocity=0 time=24
note_on channel=0 note=82 velocity=0 time=0
note_on channel=0 note=82 velocity=87 time=0
note_on channel=0 note=69 velocity=65 time=0
note_on channel=0 note=67 velocity=0 time=24
note_on channel=0 note=67 velocity=60 time=96
note_on channel=0 note=69 velocity=0 time=24
note_on channel=0 note=67 velocity=0 time=0
note_on channel=0 note=82 velocity=0 time=0
note_on channel=0 note=77 velocity=74 time=0
note_on channel=0 note=70 velocity=85 time=0
note_on channel=0 note=79 velocity=68 time=120
note_on channel=0 note=77 velocity=0 time=24
note_on channel=0 note=70 velocity=0 time=96
note_on channel=0 note=81 velocity=68 time=0
note_on channel=0 note=79 velocity=0 time=24
note_on channel=0 note=82 velocity=68 time=96
note_on channel=0 note=81 velocity=0 time=24
note_on channel=0 note=83 velocity=72 time=0
note_on channel=0 note=69 velocity=89 time=0
note_on channel=0 note=82 velocity=0 time=24
note_on channel=0 note=84 velocity=64 time=96
note_on channel=0 note=83 velocity=0 time=24
note_on channel=0 note=86 velocity=69 time=96
note_on channel=0 note=84 velocity=0 time=24
note_on channel=0 note=84 velocity=64 time=96
note_on channel=0 note=86 velocity=0 time=24
note_on channel=0 note=82 velocity=72 time=96
note_on channel=0 note=84 velocity=0 time=24
note_on channel=0 note=81 velocity=64 time=96
note_on channel=0 note=82 velocity=0 time=24
note_on channel=0 note=69 velocity=0 time=0
note_on channel=0 note=79 velocity=71 time=0
note_on channel=0 note=69 velocity=82 time=0
note_on channel=0 note=81 velocity=0 time=24
note_on channel=0 note=77 velocity=66 time=96
note_on channel=0 note=79 velocity=0 time=24
note_on channel=0 note=77 velocity=0 time=0
note_on channel=0 note=69 velocity=0 time=0
note_on channel=0 note=86 velocity=90 time=0
note_on channel=0 note=66 velocity=68 time=0
note_on channel=0 note=67 velocity=62 time=120
note_on channel=0 note=66 velocity=0 time=24
note_on channel=0 note=86 velocity=0 time=96
note_on channel=0 note=66 velocity=62 time=0
note_on channel=0 note=67 velocity=0 time=24
note_on channel=0 note=64 velocity=62 time=96
note_on channel=0 note=66 velocity=0 time=24
note_on channel=0 note=84 velocity=94 time=0
note_on channel=0 note=62 velocity=66 time=0
note_on channel=0 note=64 velocity=0 time=24
note_on channel=0 note=64 velocity=59 time=96
note_on channel=0 note=62 velocity=0 time=24
note_on channel=0 note=66 velocity=63 time=96
note_on channel=0 note=64 velocity=0 time=24
note_on channel=0 note=67 velocity=59 time=96
note_on channel=0 note=66 velocity=0 time=24
note_on channel=0 note=68 velocity=66 time=96
note_on channel=0 note=67 velocity=0 time=24
note_on channel=0 note=69 velocity=59 time=96
note_on channel=0 note=68 velocity=0 time=24
note_on channel=0 note=84 velocity=0 time=0
note_on channel=0 note=84 velocity=87 time=0
note_on channel=0 note=70 velocity=65 time=0
note_on channel=0 note=69 velocity=0 time=24
note_on channel=0 note=69 velocity=60 time=96
note_on channel=0 note=70 velocity=0 time=24
note_on channel=0 note=69 velocity=0 time=0
note_on channel=0 note=84 velocity=0 time=0
note_on channel=0 note=79 velocity=74 time=0
note_on channel=0 note=72 velocity=85 time=0
note_on channel=0 note=81 velocity=68 time=120
note_on channel=0 note=79 velocity=0 time=24
note_on channel=0 note=72 velocity=0 time=96
note_on channel=0 note=82 velocity=68 time=0
note_on channel=0 note=81 velocity=0 time=24
note_on channel=0 note=84 velocity=68 time=96
note_on channel=0 note=82 velocity=0 time=24
note_on channel=0 note=85 velocity=72 time=0
note_on channel=0 note=70 velocity=89 time=0
note_on channel=0 note=84 velocity=0 time=24
note_on channel=0 note=86 velocity=64 time=96
note_on channel=0 note=85 velocity=0 time=24
note_on channel=0 note=87 velocity=69 time=96
note_on channel=0 note=86 velocity=0 time=24
note_on channel=0 note=86 velocity=64 time=96
note_on channel=0 note=87 velocity=0 time=24
note_on channel=0 note=84 velocity=72 time=96
note_on channel=0 note=86 velocity=0 time=24
note_on channel=0 note=82 velocity=64 time=96
note_on channel=0 note=84 velocity=0 time=24
note_on channel=0 note=70 velocity=0 time=0
note_on channel=0 note=81 velocity=71 time=0
note_on channel=0 note=70 velocity=82 time=0
note_on channel=0 note=82 velocity=0 time=24
note_on channel=0 note=79 velocity=66 time=96
note_on channel=0 note=81 velocity=0 time=24
note_on channel=0 note=79 velocity=0 time=0
note_on channel=0 note=70 velocity=0 time=0
note_on channel=0 note=89 velocity=90 time=0
note_on channel=0 note=69 velocity=68 time=0
note_on channel=0 note=70 velocity=62 time=120
note_on channel=0 note=69 velocity=0 time=24
note_on channel=0 note=89 velocity=0 time=96
note_on channel=0 note=69 velocity=62 time=0
note_on channel=0 note=70 velocity=0 time=24
note_on channel=0 note=67 velocity=62 time=96
note_on channel=0 note=69 velocity=0 time=24
note_on channel=0 note=87 velocity=94 time=0
note_on channel=0 note=65 velocity=66 time=0
note_on channel=0 note=67 velocity=0 time=24
note_on channel=0 note=67 velocity=59 time=96
note_on channel=0 note=65 velocity=0 time=24
note_on channel=0 note=69 velocity=63 time=96
note_on channel=0 note=67 velocity=0 time=24
note_on channel=0 note=70 velocity=59 time=96
note_on channel=0 note=69 velocity=0 time=24
note_on channel=0 note=71 velocity=66 time=96
note_on channel=0 note=70 velocity=0 time=24
note_on channel=0 note=72 velocity=59 time=96
note_on channel=0 note=71 velocity=0 time=24
note_on channel=0 note=87 velocity=0 time=0
note_on channel=0 note=87 velocity=87 time=0
note_on channel=0 note=74 velocity=65 time=0
note_on channel=0 note=72 velocity=0 time=24
note_on channel=0 note=72 velocity=60 time=96
note_on channel=0 note=74 velocity=0 time=24
note_on channel=0 note=72 velocity=0 time=0
note_on channel=0 note=87 velocity=0 time=0
note_on channel=0 note=82 velocity=74 time=0
note_on channel=0 note=75 velocity=85 time=0
note_on channel=0 note=84 velocity=68 time=120
note_on channel=0 note=82 velocity=0 time=24
note_on channel=0 note=75 velocity=0 time=96
note_on channel=0 note=86 velocity=68 time=0
note_on channel=0 note=84 velocity=0 time=24
note_on channel=0 note=87 velocity=68 time=96
note_on channel=0 note=86 velocity=0 time=24
note_on channel=0 note=88 velocity=72 time=0
note_on channel=0 note=74 velocity=89 time=0
note_on channel=0 note=87 velocity=0 time=24
note_on channel=0 note=89 velocity=65 time=96
note_on channel=0 note=88 velocity=0 time=24
note_on channel=0 note=91 velocity=70 time=96
note_on channel=0 note=89 velocity=0 time=24
note_on channel=0 note=89 velocity=65 time=96
note_on channel=0 note=91 velocity=0 time=24
note_on channel=0 note=88 velocity=74 time=96
note_on channel=0 note=89 velocity=0 time=24
note_on channel=0 note=89 velocity=65 time=96
note_on channel=0 note=88 velocity=0 time=24
note_on channel=0 note=74 velocity=0 time=0
note_on channel=0 note=90 velocity=73 time=0
note_on channel=0 note=75 velocity=85 time=0
note_on channel=0 note=89 velocity=0 time=24
note_on channel=0 note=75 velocity=0 time=96
note_on channel=0 note=89 velocity=68 time=0
note_on channel=0 note=73 velocity=76 time=0
note_on channel=0 note=90 velocity=0 time=24
note_on channel=0 note=73 velocity=0 time=0
note_on channel=0 note=89 velocity=0 time=0
note_on channel=0 note=86 velocity=75 time=0
note_on channel=0 note=71 velocity=86 time=0
note_on channel=0 note=87 velocity=70 time=120
note_on channel=0 note=72 velocity=79 time=0
note_on channel=0 note=71 velocity=0 time=24
note_on channel=0 note=86 velocity=0 time=0
note_on channel=0 note=89 velocity=70 time=96
note_on channel=0 note=73 velocity=79 time=0
note_on channel=0 note=87 velocity=0 time=24
note_on channel=0 note=72 velocity=0 time=0
note_on channel=0 note=87 velocity=71 time=0
note_on channel=0 note=72 velocity=80 time=0
note_on channel=0 note=89 velocity=0 time=24
note_on channel=0 note=73 velocity=0 time=0
note_on channel=0 note=87 velocity=0 time=0
note_on channel=0 note=72 velocity=0 time=0
note_on channel=0 note=84 velocity=76 time=0
note_on channel=0 note=69 velocity=86 time=0
note_on channel=0 note=85 velocity=71 time=120
note_on channel=0 note=70 velocity=83 time=0
note_on channel=0 note=69 velocity=0 time=24
note_on channel=0 note=84 velocity=0 time=0
note_on channel=0 note=87 velocity=71 time=96
note_on channel=0 note=72 velocity=83 time=0
note_on channel=0 note=85 velocity=0 time=24
note_on channel=0 note=70 velocity=0 time=0
note_on channel=0 note=85 velocity=71 time=0
note_on channel=0 note=70 velocity=83 time=0
note_on channel=0 note=87 velocity=0 time=24
note_on channel=0 note=72 velocity=0 time=0
note_on channel=0 note=85 velocity=0 time=0
note_on channel=0 note=70 velocity=0 time=0
note_on channel=0 note=83 velocity=77 time=0
note_on channel=0 note=68 velocity=88 time=0
note_on channel=0 note=84 velocity=72 time=120
note_on channel=0 note=69 velocity=84 time=0
note_on channel=0 note=68 velocity=0 time=24
note_on channel=0 note=83 velocity=0 time=0
note_on channel=0 note=85 velocity=73 time=96
note_on channel=0 note=70 velocity=85 time=0
note_on channel=0 note=84 velocity=0 time=24
note_on channel=0 note=69 velocity=0 time=0
note_on channel=0 note=84 velocity=73 time=0
note_on channel=0 note=69 velocity=85 time=0
note_on channel=0 note=85 velocity=0 time=24
note_on channel=0 note=70 velocity=0 time=0
note_on channel=0 note=84 velocity=0 time=0
note_on channel=0 note=69 velocity=0 time=0
note_on channel=0 note=75 velocity=89 time=0
note_on channel=0 note=29 velocity=84 time=0
note_on channel=0 note=29 velocity=0 time=120
note_on channel=0 note=75 velocity=0 time=0
note_on channel=0 note=90 velocity=95 time=0
note_on channel=0 note=90 velocity=0 time=37
note_on channel=0 note=66 velocity=66 time=0
note_on channel=0 note=72 velocity=66 time=0
note_on channel=0 note=77 velocity=72 time=0
note_on channel=0 note=45 velocity=66 time=0
note_on channel=0 note=45 velocity=0 time=27
note_on channel=0 note=46 velocity=58 time=0
note_on channel=0 note=77 velocity=0 time=5
note_on channel=0 note=75 velocity=65 time=0
note_on channel=0 note=46 velocity=0 time=40
note_on channel=0 note=45 velocity=66 time=0
note_on channel=0 note=45 velocity=0 time=49
note_on channel=0 note=75 velocity=0 time=0
note_on channel=0 note=77 velocity=72 time=0
note_on channel=0 note=46 velocity=59 time=0
note_on channel=0 note=46 velocity=0 time=54
note_on channel=0 note=45 velocity=66 time=0
note_on channel=0 note=77 velocity=0 time=18
note_on channel=0 note=75 velocity=67 time=0
note_on channel=0 note=45 velocity=0 time=7
note_on channel=0 note=46 velocity=60 time=0
note_on channel=0 note=46 velocity=0 time=11
note_on channel=0 note=75 velocity=0 time=0
note_on channel=0 note=77 velocity=72 time=0
note_on channel=0 note=45 velocity=66 time=0
note_on channel=0 note=45 velocity=0 time=16
note_on channel=0 note=46 velocity=66 time=0
note_on channel=0 note=77 velocity=0 time=40
note_on channel=0 note=75 velocity=67 time=0
note_on channel=0 note=46 velocity=0 time=20
note_on channel=0 note=45 velocity=66 time=0
note_on channel=0 note=45 velocity=0 time=24
note_on channel=0 note=75 velocity=0 time=0
note_on channel=0 note=74 velocity=72 time=0
note_on channel=0 note=46 velocity=60 time=0
note_on channel=0 note=46 velocity=0 time=8
note_on channel=0 note=45 velocity=66 time=0
note_on channel=0 note=45 velocity=0 time=60
note_on channel=0 note=74 velocity=0 time=0
note_on channel=0 note=75 velocity=66 time=0
note_on channel=0 note=43 velocity=60 time=0
note_on channel=0 note=43 velocity=0 time=52
note_on channel=0 note=45 velocity=60 time=0
note_on channel=0 note=45 velocity=0 time=0
note_on channel=0 note=75 velocity=0 time=0
note_on channel=0 note=72 velocity=0 time=0
note_on channel=0 note=74 velocity=74 time=0
note_on channel=0 note=46 velocity=71 time=0
note_on channel=0 note=66 velocity=0 time=0
note_on channel=0 note=58 velocity=73 time=0
note_on channel=0 note=65 velocity=73 time=0
note_on channel=0 note=65 velocity=0 time=0
note_on channel=0 note=74 velocity=0 time=0
note_on channel=0 note=46 velocity=0 time=0
note_on channel=0 note=58 velocity=0 time=0
note_on channel=0 note=70 velocity=75 time=0
note_on channel=0 note=70 velocity=0 time=0
note_on channel=0 note=74 velocity=69 time=0
note_on channel=0 note=46 velocity=60 time=0
note_on channel=0 note=46 velocity=0 time=35
note_on channel=0 note=74 velocity=0 time=0
note_on channel=0 note=75 velocity=61 time=0
note_on channel=0 note=45 velocity=52 time=0
note_on channel=0 note=45 velocity=0 time=120
note_on channel=0 note=75 velocity=0 time=0
note_on channel=0 note=77 velocity=66 time=0
note_on channel=0 note=43 velocity=59 time=0
note_on channel=0 note=43 velocity=0 time=57
note_on channel=0 note=77 velocity=0 time=0
note_on channel=0 note=79 velocity=67 time=0
note_on channel=0 note=41 velocity=59 time=0
note_on channel=0 note=41 velocity=0 time=84
note_on channel=0 note=79 velocity=0 time=0
note_on channel=0 note=81 velocity=68 time=0
note_on channel=0 note=39 velocity=63 time=0
note_on channel=0 note=39 velocity=0 time=0
note_on channel=0 note=81 velocity=0 time=0
note_on channel=0 note=82 velocity=69 time=0
note_on channel=0 note=38 velocity=64 time=0
note_on channel=0 note=38 velocity=0 time=0
note_on channel=0 note=82 velocity=0 time=0
note_on channel=0 note=77 velocity=78 time=0
note_on channel=0 note=41 velocity=69 time=0
note_on channel=0 note=62 velocity=73 time=0
note_on channel=0 note=62 velocity=0 time=0
note_on channel=0 note=41 velocity=0 time=0
note_on channel=0 note=77 velocity=0 time=0
note_on channel=0 note=74 velocity=75 time=0
note_on channel=0 note=74 velocity=0 time=0
note_on channel=0 note=77 velocity=69 time=0
note_on channel=0 note=43 velocity=60 time=0
note_on channel=0 note=43 velocity=0 time=35
note_on channel=0 note=77 velocity=0 time=0
note_on channel=0 note=79 velocity=61 time=0
note_on channel=0 note=41 velocity=52 time=0
note_on channel=0 note=41 velocity=0 time=120
note_on channel=0 note=79 velocity=0 time=0
note_on channel=0 note=81 velocity=66 time=0
note_on channel=0 note=39 velocity=59 time=0
note_on channel=0 note=39 velocity=0 time=57
note_on channel=0 note=81 velocity=0 time=0
note_on channel=0 note=82 velocity=67 time=0
note_on channel=0 note=38 velocity=59 time=0
note_on channel=0 note=38 velocity=0 time=84
note_on channel=0 note=82 velocity=0 time=0
note_on channel=0 note=84 velocity=68 time=0
note_on channel=0 note=36 velocity=63 time=0
note_on channel=0 note=36 velocity=0 time=0
note_on channel=0 note=84 velocity=0 time=0
note_on channel=0 note=86 velocity=69 time=0
note_on channel=0 note=34 velocity=64 time=0
note_on channel=0 note=34 velocity=0 time=0
note_on channel=0 note=86 velocity=0 time=0
note_on channel=0 note=79 velocity=78 time=0
note_on channel=0 note=39 velocity=69 time=0
note_on channel=0 note=63 velocity=73 time=0
note_on channel=0 note=63 velocity=0 time=0
note_on channel=0 note=39 velocity=0 time=0
note_on channel=0 note=79 velocity=0 time=0
note_on channel=0 note=75 velocity=75 time=0
note_on channel=0 note=75 velocity=0 time=0
note_on channel=0 note=79 velocity=69 time=0
note_on channel=0 note=39 velocity=60 time=0
note_on channel=0 note=39 velocity=0 time=35
note_on channel=0 note=79 velocity=0 time=0
note_on channel=0 note=81 velocity=61 time=0
note_on channel=0 note=38 velocity=52 time=0
note_on channel=0 note=38 velocity=0 time=120
note_on channel=0 note=81 velocity=0 time=0
note_on channel=0 note=82 velocity=66 time=0
note_on channel=0 note=36 velocity=59 time=0
note_on channel=0 note=36 velocity=0 time=57
note_on channel=0 note=82 velocity=0 time=0
note_on channel=0 note=83 velocity=67 time=0
note_on channel=0 note=38 velocity=59 time=0
note_on channel=0 note=38 velocity=0 time=84
note_on channel=0 note=83 velocity=0 time=0
note_on channel=0 note=84 velocity=68 time=0
note_on channel=0 note=36 velocity=63 time=0
note_on channel=0 note=36 velocity=0 time=0
note_on channel=0 note=84 velocity=0 time=0
note_on channel=0 note=86 velocity=69 time=0
note_on channel=0 note=34 velocity=64 time=0
note_on channel=0 note=34 velocity=0 time=0
note_on channel=0 note=86 velocity=0 time=0
note_on channel=0 note=87 velocity=78 time=0
note_on channel=0 note=33 velocity=59 time=0
note_on channel=0 note=33 velocity=0 time=208
note_on channel=0 note=87 velocity=0 time=0
note_on channel=0 note=88 velocity=83 time=0
note_on channel=0 note=45 velocity=60 time=0
note_on channel=0 note=45 velocity=0 time=109
note_on channel=0 note=43 velocity=52 time=0
note_on channel=0 note=43 velocity=0 time=120
note_on channel=0 note=53 velocity=59 time=0
note_on channel=0 note=41 velocity=59 time=0
note_on channel=0 note=88 velocity=0 time=60
note_on channel=0 note=89 velocity=73 time=0
note_on channel=0 note=89 velocity=0 time=0
note_on channel=0 note=41 velocity=0 time=0
note_on channel=0 note=53 velocity=0 time=0
note_on channel=0 note=87 velocity=81 time=0
note_on channel=0 note=87 velocity=0 time=71
note_on channel=0 note=86 velocity=78 time=0
note_on channel=0 note=86 velocity=0 time=40
note_on channel=0 note=84 velocity=79 time=0
note_on channel=0 note=69 velocity=59 time=0
note_on channel=0 note=69 velocity=0 time=44
note_on channel=0 note=70 velocity=54 time=0
note_on channel=0 note=84 velocity=0 time=28
note_on channel=0 note=82 velocity=75 time=0
note_on channel=0 note=70 velocity=0 time=40
note_on channel=0 note=69 velocity=59 time=0
note_on channel=0 note=69 velocity=0 time=2
note_on channel=0 note=82 velocity=0 time=0
note_on channel=0 note=81 velocity=75 time=0
note_on channel=0 note=70 velocity=54 time=0
note_on channel=0 note=70 velocity=0 time=6
note_on channel=0 note=69 velocity=59 time=0
note_on channel=0 note=81 velocity=0 time=40
note_on channel=0 note=79 velocity=75 time=0
note_on channel=0 note=69 velocity=0 time=35
note_on channel=0 note=70 velocity=53 time=0
note_on channel=0 note=70 velocity=0 time=14
note_on channel=0 note=79 velocity=0 time=0
note_on channel=0 note=77 velocity=80 time=0
note_on channel=0 note=69 velocity=59 time=0
note_on channel=0 note=69 velocity=0 time=44
note_on channel=0 note=70 velocity=54 time=0
note_on channel=0 note=77 velocity=0 time=33
note_on channel=0 note=79 velocity=70 time=0
note_on channel=0 note=70 velocity=0 time=23
note_on channel=0 note=69 velocity=59 time=0
note_on channel=0 note=69 velocity=0 time=2
note_on channel=0 note=79 velocity=0 time=0
note_on channel=0 note=77 velocity=76 time=0
note_on channel=0 note=70 velocity=53 time=0
note_on channel=0 note=70 velocity=0 time=11
note_on channel=0 note=69 velocity=56 time=0
note_on channel=0 note=69 velocity=0 time=21
note_on channel=0 note=77 velocity=0 time=0
note_on channel=0 note=75 velocity=68 time=0
note_on channel=0 note=67 velocity=53 time=0
note_on channel=0 note=67 velocity=0 time=30
note_on channel=0 note=69 velocity=53 time=0
note_on channel=0 note=69 velocity=0 time=0
note_on channel=0 note=75 velocity=0 time=0
note_on channel=0 note=74 velocity=74 time=0
note_on channel=0 note=70 velocity=59 time=0
note_on channel=0 note=74 velocity=0 time=53
note_on channel=0 note=75 velocity=68 time=0
note_on channel=0 note=75 velocity=0 time=0
note_on channel=0 note=77 velocity=73 time=0
note_on channel=0 note=46 velocity=73 time=0
note_on channel=0 note=46 velocity=0 time=120
note_on channel=0 note=77 velocity=0 time=0
note_on channel=0 note=76 velocity=66 time=0
note_on channel=0 note=76 velocity=0 time=120
note_on channel=0 note=70 velocity=0 time=0
note_on channel=0 note=77 velocity=78 time=0
note_on channel=0 note=62 velocity=73 time=0
note_on channel=0 note=62 velocity=0 time=24
note_on channel=0 note=63 velocity=68 time=0
note_on channel=0 note=63 velocity=0 time=8
note_on channel=0 note=62 velocity=73 time=0
note_on channel=0 note=62 velocity=0 time=17
note_on channel=0 note=63 velocity=68 time=0
note_on channel=0 note=63 velocity=0 time=27
note_on channel=0 note=77 velocity=0 time=0
note_on channel=0 note=70 velocity=73 time=0
note_on channel=0 note=70 velocity=0 time=70
note_on channel=0 note=69 velocity=74 time=0
note_on channel=0 note=69 velocity=0 time=14
note_on channel=0 note=67 velocity=72 time=0
note_on channel=0 note=67 velocity=0 time=33
note_on channel=0 note=65 velocity=69 time=0
note_on channel=0 note=65 velocity=0 time=52
note_on channel=0 note=63 velocity=67 time=0
note_on channel=0 note=63 velocity=0 time=71
note_on channel=0 note=62 velocity=64 time=0
note_on channel=0 note=62 velocity=0 time=0
note_on channel=0 note=59 velocity=78 time=0
note_on channel=0 note=67 velocity=73 time=0
note_on channel=0 note=59 velocity=0 time=228
note_on channel=0 note=67 velocity=0 time=0
note_on channel=0 note=75 velocity=64 time=0
note_on channel=0 note=75 velocity=0 time=13
note_on channel=0 note=77 velocity=59 time=0
note_on channel=0 note=77 velocity=0 time=73
note_on channel=0 note=75 velocity=64 time=0
note_on channel=0 note=75 velocity=0 time=0
note_on channel=0 note=77 velocity=59 time=0
note_on channel=0 note=67 velocity=73 time=0
note_on channel=0 note=77 velocity=0 time=56
note_on channel=0 note=75 velocity=64 time=0
note_on channel=0 note=67 velocity=0 time=40
note_on channel=0 note=65 velocity=74 time=0
note_on channel=0 note=75 velocity=0 time=35
note_on channel=0 note=77 velocity=58 time=0
note_on channel=0 note=77 velocity=0 time=0
note_on channel=0 note=65 velocity=0 time=0
note_on channel=0 note=75 velocity=64 time=0
note_on channel=0 note=63 velocity=72 time=0
note_on channel=0 note=75 velocity=0 time=27
note_on channel=0 note=77 velocity=59 time=0
note_on channel=0 note=63 velocity=0 time=33
note_on channel=0 note=62 velocity=69 time=0
note_on channel=0 note=77 velocity=0 time=40
note_on channel=0 note=75 velocity=64 time=0
note_on channel=0 note=75 velocity=0 time=52
note_on channel=0 note=62 velocity=0 time=0
note_on channel=0 note=77 velocity=58 time=0
note_on channel=0 note=60 velocity=67 time=0
note_on channel=0 note=77 velocity=0 time=11
note_on channel=0 note=75 velocity=61 time=0
note_on channel=0 note=75 velocity=0 time=60
note_on channel=0 note=60 velocity=0 time=0
note_on channel=0 note=74 velocity=58 time=0
note_on channel=0 note=59 velocity=64 time=0
note_on channel=0 note=74 velocity=0 time=30
note_on channel=0 note=75 velocity=58 time=0
note_on channel=0 note=75 velocity=0 time=0
note_on channel=0 note=59 velocity=0 time=0
note_on channel=0 note=79 velocity=64 time=0
note_on channel=0 note=63 velocity=73 time=0
note_on channel=0 note=51 velocity=73 time=0
note_on channel=0 note=51 velocity=0 time=120
note_on channel=0 note=63 velocity=0 time=120
note_on channel=0 note=79 velocity=0 time=0
note_on channel=0 note=60 velocity=73 time=0
note_on channel=0 note=60 velocity=0 time=21
note_on channel=0 note=62 velocity=68 time=0
note_on channel=0 note=62 velocity=0 time=8
note_on channel=0 note=60 velocity=73 time=0
note_on channel=0 note=60 velocity=0 time=17
note_on channel=0 note=62 velocity=68 time=0
note_on channel=0 note=62 velocity=0 time=27
note_on channel=0 note=79 velocity=73 time=0
note_on channel=0 note=63 velocity=62 time=0
note_on channel=0 note=63 velocity=0 time=60
note_on channel=0 note=79 velocity=0 time=0
note_on channel=0 note=77 velocity=74 time=0
note_on channel=0 note=62 velocity=62 time=0
note_on channel=0 note=62 velocity=0 time=14
note_on channel=0 note=77 velocity=0 time=0
note_on channel=0 note=75 velocity=72 time=0
note_on channel=0 note=60 velocity=61 time=0
note_on channel=0 note=60 velocity=0 time=33
note_on channel=0 note=75 velocity=0 time=0
note_on channel=0 note=74 velocity=69 time=0
note_on channel=0 note=59 velocity=58 time=0
note_on channel=0 note=59 velocity=0 time=52
note_on channel=0 note=74 velocity=0 time=0
note_on channel=0 note=72 velocity=67 time=0
note_on channel=0 note=57 velocity=56 time=0
note_on channel=0 note=57 velocity=0 time=71
note_on channel=0 note=72 velocity=0 time=0
note_on channel=0 note=71 velocity=64 time=0
note_on channel=0 note=55 velocity=54 time=0
note_on channel=0 note=55 velocity=0 time=0
note_on channel=0 note=71 velocity=0 time=0
note_on channel=0 note=72 velocity=73 time=0
note_on channel=0 note=36 velocity=73 time=0
note_on channel=0 note=63 velocity=62 time=0
note_on channel=0 note=36 velocity=0 time=232
note_on channel=0 note=63 velocity=0 time=0
note_on channel=0 note=72 velocity=0 time=0
note_on channel=0 note=67 velocity=73 time=0
note_on channel=0 note=52 velocity=59 time=0
note_on channel=0 note=52 velocity=0 time=44
note_on channel=0 note=53 velocity=54 time=0
note_on channel=0 note=53 velocity=0 time=73
note_on channel=0 note=52 velocity=59 time=0
note_on channel=0 note=52 velocity=0 time=0
note_on channel=0 note=72 velocity=73 time=0
note_on channel=0 note=53 velocity=54 time=0
note_on channel=0 note=53 velocity=0 time=56
note_on channel=0 note=52 velocity=59 time=0
note_on channel=0 note=72 velocity=0 time=40
note_on channel=0 note=70 velocity=70 time=0
note_on channel=0 note=52 velocity=0 time=35
note_on channel=0 note=53 velocity=53 time=0
note_on channel=0 note=53 velocity=0 time=14
note_on channel=0 note=70 velocity=0 time=0
note_on channel=0 note=67 velocity=0 time=0
note_on channel=0 note=60 velocity=73 time=0
note_on channel=0 note=69 velocity=72 time=0
note_on channel=0 note=52 velocity=59 time=0
note_on channel=0 note=52 velocity=0 time=3
note_on channel=0 note=53 velocity=54 time=0
note_on channel=0 note=69 velocity=0 time=33
note_on channel=0 note=67 velocity=69 time=0
note_on channel=0 note=53 velocity=0 time=40
note_on channel=0 note=52 velocity=59 time=0
note_on channel=0 note=52 velocity=0 time=52
note_on channel=0 note=67 velocity=0 time=0
note_on channel=0 note=65 velocity=67 time=0
note_on channel=0 note=53 velocity=53 time=0
note_on channel=0 note=53 velocity=0 time=11
note_on channel=0 note=52 velocity=56 time=0
note_on channel=0 note=52 velocity=0 time=60
note_on channel=0 note=65 velocity=0 time=0
note_on channel=0 note=64 velocity=64 time=0
note_on channel=0 note=50 velocity=53 time=0
note_on channel=0 note=50 velocity=0 time=30
note_on channel=0 note=52 velocity=53 time=0
note_on channel=0 note=52 velocity=0 time=60
note_on channel=0 note=64 velocity=0 time=0
note_on channel=0 note=60 velocity=0 time=0
note_on channel=0 note=62 velocity=64 time=0
note_on channel=0 note=53 velocity=59 time=0
note_on channel=0 note=62 velocity=0 time=63
note_on channel=0 note=60 velocity=61 time=0
note_on channel=0 note=60 velocity=0 time=0
note_on channel=0 note=58 velocity=59 time=0
note_on channel=0 note=58 velocity=0 time=120
note_on channel=0 note=57 velocity=58 time=0
note_on channel=0 note=57 velocity=0 time=120
note_on channel=0 note=53 velocity=0 time=0
note_on channel=0 note=69 velocity=73 time=0
note_on channel=0 note=69 velocity=0 time=0
note_on channel=0 note=62 velocity=68 time=0
note_on channel=0 note=53 velocity=64 time=0
note_on channel=0 note=53 velocity=0 time=83
note_on channel=0 note=62 velocity=0 time=0
note_on channel=0 note=60 velocity=64 time=0
note_on channel=0 note=52 velocity=59 time=0
note_on channel=0 note=52 velocity=0 time=120
note_on channel=0 note=60 velocity=0 time=0
note_on channel=0 note=58 velocity=68 time=0
note_on channel=0 note=50 velocity=65 time=0
note_on channel=0 note=50 velocity=0 time=57
note_on channel=0 note=58 velocity=0 time=0
note_on channel=0 note=57 velocity=65 time=0
note_on channel=0 note=48 velocity=62 time=0
note_on channel=0 note=48 velocity=0 time=43
note_on channel=0 note=57 velocity=0 time=0
note_on channel=0 note=55 velocity=63 time=0
note_on channel=0 note=46 velocity=59 time=0
note_on channel=0 note=46 velocity=0 time=37
note_on channel=0 note=55 velocity=0 time=0
note_on channel=0 note=53 velocity=60 time=0
note_on channel=0 note=45 velocity=56 time=0
note_on channel=0 note=45 velocity=0 time=56
note_on channel=0 note=53 velocity=0 time=0
note_on channel=0 note=52 velocity=64 time=0
note_on channel=0 note=55 velocity=86 time=0
note_on channel=0 note=52 velocity=0 time=23
note_on channel=0 note=50 velocity=64 time=0
note_on channel=0 note=50 velocity=0 time=94
note_on channel=0 note=48 velocity=62 time=0
note_on channel=0 note=48 velocity=0 time=11
note_on channel=0 note=46 velocity=61 time=0
note_on channel=0 note=46 velocity=0 time=0
note_on channel=0 note=55 velocity=0 time=0
note_on channel=0 note=58 velocity=76 time=0
note_on channel=0 note=58 velocity=0 time=229
note_on channel=0 note=75 velocity=76 time=0
note_on channel=0 note=55 velocity=64 time=0
note_on channel=0 note=55 velocity=0 time=68
note_on channel=0 note=75 velocity=0 time=0
note_on channel=0 note=74 velocity=71 time=0
note_on channel=0 note=53 velocity=60 time=0
note_on channel=0 note=53 velocity=0 time=120
note_on channel=0 note=74 velocity=0 time=0
note_on channel=0 note=72 velocity=77 time=0
note_on channel=0 note=51 velocity=64 time=0
note_on channel=0 note=51 velocity=0 time=75
note_on channel=0 note=72 velocity=0 time=0
note_on channel=0 note=70 velocity=74 time=0
note_on channel=0 note=50 velocity=61 time=0
note_on channel=0 note=50 velocity=0 time=18
note_on channel=0 note=70 velocity=0 time=0
note_on channel=0 note=69 velocity=71 time=0
note_on channel=0 note=48 velocity=60 time=0
note_on channel=0 note=48 velocity=0 time=62
note_on channel=0 note=69 velocity=0 time=0
note_on channel=0 note=67 velocity=68 time=0
note_on channel=0 note=46 velocity=59 time=0
note_on channel=0 note=46 velocity=0 time=30
note_on channel=0 note=67 velocity=0 time=0
note_on channel=0 note=65 velocity=74 time=0
note_on channel=0 note=57 velocity=64 time=0
note_on channel=0 note=65 velocity=0 time=21
note_on channel=0 note=63 velocity=73 time=0
note_on channel=0 note=63 velocity=0 time=43
note_on channel=0 note=62 velocity=71 time=0
note_on channel=0 note=62 velocity=0 time=87
note_on channel=0 note=60 velocity=69 time=0
note_on channel=0 note=60 velocity=0 time=0
note_on channel=0 note=57 velocity=0 time=0
note_on channel=0 note=72 velocity=77 time=0
note_on channel=0 note=72 velocity=0 time=224
note_on channel=0 note=60 velocity=74 time=0
note_on channel=0 note=57 velocity=62 time=0
note_on channel=0 note=57 velocity=0 time=92
note_on channel=0 note=60 velocity=0 time=0
note_on channel=0 note=58 velocity=70 time=0
note_on channel=0 note=55 velocity=59 time=0
note_on channel=0 note=55 velocity=0 time=120
note_on channel=0 note=58 velocity=0 time=0
note_on channel=0 note=57 velocity=76 time=0
note_on channel=0 note=53 velocity=64 time=0
note_on channel=0 note=53 velocity=0 time=35
note_on channel=0 note=57 velocity=0 time=0
note_on channel=0 note=55 velocity=72 time=0
note_on channel=0 note=51 velocity=61 time=0
note_on channel=0 note=51 velocity=0 time=120
note_on channel=0 note=55 velocity=0 time=0
note_on channel=0 note=53 velocity=70 time=0
note_on channel=0 note=50 velocity=59 time=0
note_on channel=0 note=50 velocity=0 time=120
note_on channel=0 note=53 velocity=0 time=0
note_on channel=0 note=51 velocity=68 time=0
note_on channel=0 note=48 velocity=57 time=0
note_on channel=0 note=48 velocity=0 time=0
note_on channel=0 note=51 velocity=0 time=0
note_on channel=0 note=50 velocity=72 time=0
note_on channel=0 note=46 velocity=61 time=0
note_on channel=0 note=46 velocity=0 time=0
note_on channel=0 note=50 velocity=0 time=0
note_on channel=0 note=60 velocity=79 time=0
note_on channel=0 note=57 velocity=67 time=0
note_on channel=0 note=57 velocity=0 time=63
note_on channel=0 note=60 velocity=0 time=0
note_on channel=0 note=58 velocity=69 time=0
note_on channel=0 note=55 velocity=58 time=0
note_on channel=0 note=55 velocity=0 time=120
note_on channel=0 note=58 velocity=0 time=0
note_on channel=0 note=57 velocity=66 time=0
note_on channel=0 note=53 velocity=56 time=0
note_on channel=0 note=53 velocity=0 time=120
note_on channel=0 note=57 velocity=0 time=0
note_on channel=0 note=62 velocity=61 time=0
note_on channel=0 note=74 velocity=76 time=0
note_on channel=0 note=58 velocity=64 time=0
note_on channel=0 note=58 velocity=0 time=35
note_on channel=0 note=74 velocity=0 time=0
note_on channel=0 note=72 velocity=72 time=0
note_on channel=0 note=57 velocity=61 time=0
note_on channel=0 note=57 velocity=0 time=120
note_on channel=0 note=72 velocity=0 time=0
note_on channel=0 note=62 velocity=0 time=0
note_on channel=0 note=77 velocity=76 time=0
note_on channel=0 note=62 velocity=64 time=0
note_on channel=0 note=62 velocity=0 time=0
note_on channel=0 note=77 velocity=0 time=0
note_on channel=0 note=75 velocity=71 time=0
note_on channel=0 note=60 velocity=60 time=0
note_on channel=0 note=60 velocity=0 time=0
note_on channel=0 note=75 velocity=0 time=0
note_on channel=0 note=74 velocity=79 time=0
note_on channel=0 note=58 velocity=67 time=0
note_on channel=0 note=58 velocity=0 time=34
note_on channel=0 note=74 velocity=0 time=0
note_on channel=0 note=72 velocity=76 time=0
note_on channel=0 note=57 velocity=64 time=0
note_on channel=0 note=57 velocity=0 time=120
note_on channel=0 note=72 velocity=0 time=0
note_on channel=0 note=70 velocity=74 time=0
note_on channel=0 note=55 velocity=62 time=0
note_on channel=0 note=55 velocity=0 time=0
note_on channel=0 note=70 velocity=0 time=0
note_on channel=0 note=69 velocity=71 time=0
note_on channel=0 note=53 velocity=60 time=0
note_on channel=0 note=53 velocity=0 time=0
note_on channel=0 note=69 velocity=0 time=0
note_on channel=0 note=79 velocity=78 time=0
note_on channel=0 note=51 velocity=66 time=0
note_on channel=0 note=51 velocity=0 time=34
note_on channel=0 note=79 velocity=0 time=0
note_on channel=0 note=77 velocity=76 time=0
note_on channel=0 note=50 velocity=64 time=0
note_on channel=0 note=50 velocity=0 time=120
note_on channel=0 note=77 velocity=0 time=0
note_on channel=0 note=75 velocity=73 time=0
note_on channel=0 note=48 velocity=62 time=0
note_on channel=0 note=48 velocity=0 time=0
note_on channel=0 note=75 velocity=0 time=0
note_on channel=0 note=74 velocity=71 time=0
note_on channel=0 note=46 velocity=60 time=0
note_on channel=0 note=46 velocity=0 time=0
note_on channel=0 note=74 velocity=0 time=0
note_on channel=0 note=74 velocity=61 time=0
note_on channel=0 note=82 velocity=81 time=0
note_on channel=0 note=43 velocity=68 time=0
note_on channel=0 note=43 velocity=0 time=45
note_on channel=0 note=82 velocity=0 time=0
note_on channel=0 note=81 velocity=78 time=0
note_on channel=0 note=45 velocity=66 time=0
note_on channel=0 note=45 velocity=0 time=120
note_on channel=0 note=81 velocity=0 time=0
note_on channel=0 note=79 velocity=75 time=0
note_on channel=0 note=46 velocity=63 time=0
note_on channel=0 note=46 velocity=0 time=0
note_on channel=0 note=79 velocity=0 time=0
note_on channel=0 note=77 velocity=72 time=0
note_on channel=0 note=47 velocity=61 time=0
note_on channel=0 note=47 velocity=0 time=0
note_on channel=0 note=77 velocity=0 time=0
note_on channel=0 note=74 velocity=0 time=0
note_on channel=0 note=67 velocity=86 time=0
note_on channel=0 note=75 velocity=86 time=0
note_on channel=0 note=48 velocity=61 time=0
note_on channel=0 note=48 velocity=0 time=70
note_on channel=0 note=50 velocity=62 time=0
note_on channel=0 note=50 velocity=0 time=120
note_on channel=0 note=75 velocity=0 time=0
note_on channel=0 note=67 velocity=0 time=0
note_on channel=0 note=72 velocity=86 time=0
note_on channel=0 note=51 velocity=64 time=0
note_on channel=0 note=51 velocity=0 time=120
note_on channel=0 note=50 velocity=62 time=0
note_on channel=0 note=50 velocity=0 time=120
note_on channel=0 note=72 velocity=0 time=0
note_on channel=0 note=93 velocity=86 time=0
note_on channel=0 note=48 velocity=61 time=0
note_on channel=0 note=93 velocity=0 time=27
note_on channel=0 note=94 velocity=82 time=0
note_on channel=0 note=48 velocity=0 time=40
note_on channel=0 note=46 velocity=58 time=0
note_on channel=0 note=94 velocity=0 time=40
note_on channel=0 note=93 velocity=86 time=0
note_on channel=0 note=93 velocity=0 time=43
note_on channel=0 note=46 velocity=0 time=0
note_on channel=0 note=84 velocity=86 time=0
note_on channel=0 note=94 velocity=81 time=0
note_on channel=0 note=45 velocity=58 time=0
note_on channel=0 note=94 velocity=0 time=13
note_on channel=0 note=93 velocity=86 time=0
note_on channel=0 note=45 velocity=0 time=11
note_on channel=0 note=43 velocity=57 time=0
note_on channel=0 note=93 velocity=0 time=40
note_on channel=0 note=94 velocity=81 time=0
note_on channel=0 note=94 velocity=0 time=55
note_on channel=0 note=43 velocity=0 time=0
note_on channel=0 note=84 velocity=0 time=0
note_on channel=0 note=93 velocity=86 time=0
note_on channel=0 note=41 velocity=61 time=0
note_on channel=0 note=93 velocity=0 time=13
note_on channel=0 note=94 velocity=80 time=0
note_on channel=0 note=41 velocity=0 time=24
note_on channel=0 note=39 velocity=61 time=0
note_on channel=0 note=94 velocity=0 time=13
note_on channel=0 note=93 velocity=86 time=0
note_on channel=0 note=93 velocity=0 time=17
note_on channel=0 note=39 velocity=0 time=0
note_on channel=0 note=94 velocity=86 time=0
note_on channel=0 note=89 velocity=82 time=0
note_on channel=0 note=38 velocity=64 time=0
note_on channel=0 note=94 velocity=0 time=27
note_on channel=0 note=93 velocity=81 time=0
note_on channel=0 note=93 velocity=0 time=36
note_on channel=0 note=38 velocity=0 time=0
note_on channel=0 note=91 velocity=80 time=0
note_on channel=0 note=36 velocity=66 time=0
note_on channel=0 note=91 velocity=0 time=46
note_on channel=0 note=93 velocity=80 time=0
note_on channel=0 note=93 velocity=0 time=5
note_on channel=0 note=36 velocity=0 time=0
note_on channel=0 note=89 velocity=0 time=0
note_on channel=0 note=94 velocity=90 time=0
note_on channel=0 note=34 velocity=76 time=0
note_on channel=0 note=34 velocity=0 time=180
note_on channel=0 note=86 velocity=88 time=0
note_on channel=0 note=86 velocity=0 time=49
note_on channel=0 note=94 velocity=0 time=0
note_on channel=0 note=50 velocity=64 time=0
note_on channel=0 note=50 velocity=0 time=48
note_on channel=0 note=51 velocity=59 time=0
note_on channel=0 note=51 velocity=0 time=38
note_on channel=0 note=50 velocity=65 time=0
note_on channel=0 note=50 velocity=0 time=43
note_on channel=0 note=94 velocity=88 time=0
note_on channel=0 note=51 velocity=60 time=0
note_on channel=0 note=51 velocity=0 time=47
note_on channel=0 note=50 velocity=66 time=0
note_on channel=0 note=94 velocity=0 time=11
note_on channel=0 note=93 velocity=86 time=0
note_on channel=0 note=50 velocity=0 time=40
note_on channel=0 note=51 velocity=61 time=0
note_on channel=0 note=51 velocity=0 time=5
note_on channel=0 note=93 velocity=0 time=0
note_on channel=0 note=91 velocity=83 time=0
note_on channel=0 note=50 velocity=67 time=0
note_on channel=0 note=50 velocity=0 time=16
note_on channel=0 note=51 velocity=62 time=0
note_on channel=0 note=91 velocity=0 time=24
note_on channel=0 note=89 velocity=81 time=0
note_on channel=0 note=51 velocity=0 time=13
note_on channel=0 note=50 velocity=68 time=0
note_on channel=0 note=50 velocity=0 time=43
note_on channel=0 note=89 velocity=0 time=0
note_on channel=0 note=87 velocity=78 time=0
note_on channel=0 note=51 velocity=65 time=0
note_on channel=0 note=51 velocity=0 time=2
note_on channel=0 note=50 velocity=69 time=0
note_on channel=0 note=50 velocity=0 time=11
note_on channel=0 note=87 velocity=0 time=0
note_on channel=0 note=86 velocity=76 time=0
note_on channel=0 note=48 velocity=65 time=0
note_on channel=0 note=48 velocity=0 time=20
note_on channel=0 note=50 velocity=65 time=0
note_on channel=0 note=50 velocity=0 time=0
note_on channel=0 note=86 velocity=0 time=0
note_on channel=0 note=63 velocity=77 time=0
note_on channel=0 note=91 velocity=88 time=0
note_on channel=0 note=51 velocity=72 time=0
note_on channel=0 note=51 velocity=0 time=155
note_on channel=0 note=91 velocity=0 time=0
note_on channel=0 note=63 velocity=0 time=0
note_on channel=0 note=79 velocity=81 time=0
note_on channel=0 note=79 velocity=0 time=240
note_on channel=0 note=79 velocity=69 time=0
note_on channel=0 note=79 velocity=0 time=2
note_on channel=0 note=81 velocity=64 time=0
note_on channel=0 note=81 velocity=0 time=80
note_on channel=0 note=79 velocity=68 time=0
note_on channel=0 note=79 velocity=0 time=0
note_on channel=0 note=81 velocity=66 time=0
note_on channel=0 note=91 velocity=88 time=0
note_on channel=0 note=81 velocity=0 time=47
note_on channel=0 note=79 velocity=69 time=0
note_on channel=0 note=91 velocity=0 time=11
note_on channel=0 note=89 velocity=86 time=0
note_on channel=0 note=79 velocity=0 time=40
note_on channel=0 note=81 velocity=66 time=0
note_on channel=0 note=81 velocity=0 time=5
note_on channel=0 note=89 velocity=0 time=0
note_on channel=0 note=79 velocity=71 time=0
note_on channel=0 note=87 velocity=83 time=0
note_on channel=0 note=79 velocity=0 time=34
note_on channel=0 note=81 velocity=65 time=0
note_on channel=0 note=87 velocity=0 time=24
note_on channel=0 note=86 velocity=81 time=0
note_on channel=0 note=81 velocity=0 time=13
note_on channel=0 note=79 velocity=71 time=0
note_on channel=0 note=79 velocity=0 time=43
note_on channel=0 note=86 velocity=0 time=0
note_on channel=0 note=81 velocity=69 time=0
note_on channel=0 note=84 velocity=78 time=0
note_on channel=0 note=81 velocity=0 time=22
note_on channel=0 note=79 velocity=73 time=0
note_on channel=0 note=84 velocity=0 time=11
note_on channel=0 note=82 velocity=76 time=0
note_on channel=0 note=79 velocity=0 time=0
note_on channel=0 note=81 velocity=67 time=0
note_on channel=0 note=81 velocity=0 time=0
note_on channel=0 note=82 velocity=0 time=0
note_on channel=0 note=87 velocity=88 time=0
note_on channel=0 note=79 velocity=75 time=0
note_on channel=0 note=79 velocity=0 time=80
note_on channel=0 note=81 velocity=70 time=0
note_on channel=0 note=81 velocity=0 time=80
note_on channel=0 note=79 velocity=74 time=0
note_on channel=0 note=79 velocity=0 time=0
note_on channel=0 note=80 velocity=72 time=0
note_on channel=0 note=80 velocity=0 time=0
note_on channel=0 note=87 velocity=0 time=0
note_on channel=0 note=81 velocity=78 time=0
note_on channel=0 note=81 velocity=0 time=228
note_on channel=0 note=87 velocity=88 time=0
note_on channel=0 note=52 velocity=67 time=0
note_on channel=0 note=87 velocity=0 time=0
note_on channel=0 note=86 velocity=82 time=0
note_on channel=0 note=86 velocity=0 time=0
note_on channel=0 note=52 velocity=0 time=0
note_on channel=0 note=84 velocity=88 time=0
note_on channel=0 note=53 velocity=72 time=0
note_on channel=0 note=84 velocity=0 time=60
note_on channel=0 note=86 velocity=82 time=0
note_on channel=0 note=86 velocity=0 time=120
note_on channel=0 note=64 velocity=67 time=0
note_on channel=0 note=84 velocity=83 time=0
note_on channel=0 note=84 velocity=0 time=0
note_on channel=0 note=82 velocity=83 time=0
note_on channel=0 note=82 velocity=0 time=0
note_on channel=0 note=64 velocity=0 time=0
note_on channel=0 note=53 velocity=0 time=0
note_on channel=0 note=65 velocity=72 time=0
note_on channel=0 note=81 velocity=88 time=0
note_on channel=0 note=81 velocity=0 time=51
note_on channel=0 note=82 velocity=83 time=0
note_on channel=0 note=82 velocity=0 time=120
note_on channel=0 note=65 velocity=0 time=0
note_on channel=0 note=81 velocity=83 time=0
note_on channel=0 note=53 velocity=72 time=0
note_on channel=0 note=81 velocity=0 time=0
note_on channel=0 note=79 velocity=83 time=0
note_on channel=0 note=79 velocity=0 time=0
note_on channel=0 note=53 velocity=0 time=0
note_on channel=0 note=77 velocity=88 time=0
note_on channel=0 note=63 velocity=61 time=0
note_on channel=0 note=66 velocity=72 time=0
note_on channel=0 note=77 velocity=0 time=23
note_on channel=0 note=79 velocity=82 time=0
note_on channel=0 note=79 velocity=0 time=120
note_on channel=0 note=81 velocity=82 time=0
note_on channel=0 note=81 velocity=0 time=0
note_on channel=0 note=82 velocity=82 time=0
note_on channel=0 note=82 velocity=0 time=0
note_on channel=0 note=83 velocity=84 time=0
note_on channel=0 note=83 velocity=0 time=120
note_on channel=0 note=84 velocity=85 time=0
note_on channel=0 note=84 velocity=0 time=120
note_on channel=0 note=66 velocity=0 time=0
note_on channel=0 note=63 velocity=0 time=0
note_on channel=0 note=86 velocity=86 time=0
note_on channel=0 note=66 velocity=66 time=0
note_on channel=0 note=63 velocity=56 time=0
note_on channel=0 note=86 velocity=0 time=120
note_on channel=0 note=84 velocity=84 time=0
note_on channel=0 note=84 velocity=0 time=120
note_on channel=0 note=63 velocity=0 time=0
note_on channel=0 note=66 velocity=0 time=0
note_on channel=0 note=82 velocity=89 time=0
note_on channel=0 note=63 velocity=59 time=0
note_on channel=0 note=66 velocity=70 time=0
note_on channel=0 note=82 velocity=0 time=11
note_on channel=0 note=84 velocity=90 time=0
note_on channel=0 note=84 velocity=0 time=120
note_on channel=0 note=66 velocity=0 time=0
note_on channel=0 note=63 velocity=0 time=0
note_on channel=0 note=86 velocity=92 time=0
note_on channel=0 note=65 velocity=67 time=0
note_on channel=0 note=62 velocity=56 time=0
note_on channel=0 note=86 velocity=0 time=0
note_on channel=0 note=87 velocity=94 time=0
note_on channel=0 note=87 velocity=0 time=0
note_on channel=0 note=62 velocity=0 time=0
note_on channel=0 note=65 velocity=0 time=0
note_on channel=0 note=89 velocity=96 time=0
note_on channel=0 note=60 velocity=55 time=0
note_on channel=0 note=63 velocity=65 time=0
note_on channel=0 note=89 velocity=0 time=28
note_on channel=0 note=80 velocity=82 time=0
note_on channel=0 note=80 velocity=0 time=120
note_on channel=0 note=63 velocity=0 time=0
note_on channel=0 note=60 velocity=0 time=0
note_on channel=0 note=81 velocity=83 time=0
note_on channel=0 note=62 velocity=63 time=0
note_on channel=0 note=58 velocity=53 time=0
note_on channel=0 note=81 velocity=0 time=0
note_on channel=0 note=82 velocity=87 time=0
note_on channel=0 note=82 velocity=0 time=0
note_on channel=0 note=58 velocity=0 time=0
note_on channel=0 note=62 velocity=0 time=0
note_on channel=0 note=84 velocity=95 time=0
note_on channel=0 note=50 velocity=63 time=0
note_on channel=0 note=50 velocity=0 time=45
note_on channel=0 note=51 velocity=56 time=0
note_on channel=0 note=51 velocity=0 time=0
note_on channel=0 note=84 velocity=0 time=0
note_on channel=0 note=82 velocity=88 time=0
note_on channel=0 note=50 velocity=57 time=0
note_on channel=0 note=50 velocity=0 time=120
note_on channel=0 note=48 velocity=57 time=0
note_on channel=0 note=48 velocity=0 time=0
note_on channel=0 note=82 velocity=0 time=0
note_on channel=0 note=79 velocity=80 time=0
note_on channel=0 note=82 velocity=95 time=0
note_on channel=0 note=46 velocity=63 time=0
note_on channel=0 note=46 velocity=0 time=34
note_on channel=0 note=48 velocity=58 time=0
note_on channel=0 note=48 velocity=0 time=76
note_on channel=0 note=82 velocity=0 time=0
note_on channel=0 note=79 velocity=0 time=0
note_on channel=0 note=77 velocity=75 time=0
note_on channel=0 note=80 velocity=89 time=0
note_on channel=0 note=50 velocity=58 time=0
note_on channel=0 note=50 velocity=0 time=70
note_on channel=0 note=51 velocity=58 time=0
note_on channel=0 note=51 velocity=0 time=89
note_on channel=0 note=80 velocity=0 time=0
note_on channel=0 note=77 velocity=0 time=0
note_on channel=0 note=70 velocity=75 time=0
note_on channel=0 note=79 velocity=89 time=0
note_on channel=0 note=52 velocity=61 time=0
note_on channel=0 note=52 velocity=0 time=40
note_on channel=0 note=53 velocity=62 time=0
note_on channel=0 note=53 velocity=0 time=102
note_on channel=0 note=79 velocity=0 time=0
note_on channel=0 note=70 velocity=0 time=0
note_on channel=0 note=68 velocity=71 time=0
note_on channel=0 note=77 velocity=84 time=0
note_on channel=0 note=55 velocity=64 time=0
note_on channel=0 note=55 velocity=0 time=95
note_on channel=0 note=53 velocity=62 time=0
note_on channel=0 note=53 velocity=0 time=0
note_on channel=0 note=77 velocity=0 time=0
note_on channel=0 note=68 velocity=0 time=0
note_on channel=0 note=92 velocity=100 time=0
note_on channel=0 note=89 velocity=85 time=0
note_on channel=0 note=50 velocity=61 time=0
note_on channel=0 note=50 velocity=0 time=40
note_on channel=0 note=51 velocity=63 time=0
note_on channel=0 note=51 velocity=0 time=120
note_on channel=0 note=89 velocity=0 time=0
note_on channel=0 note=92 velocity=0 time=0
note_on channel=0 note=87 velocity=80 time=0
note_on channel=0 note=91 velocity=95 time=0
note_on channel=0 note=53 velocity=65 time=0
note_on channel=0 note=53 velocity=0 time=0
note_on channel=0 note=51 velocity=63 time=0
note_on channel=0 note=91 velocity=0 time=60
note_on channel=0 note=87 velocity=0 time=0
note_on channel=0 note=51 velocity=0 time=0
note_on channel=0 note=91 velocity=101 time=0
note_on channel=0 note=87 velocity=85 time=0
note_on channel=0 note=47 velocity=63 time=0
note_on channel=0 note=47 velocity=0 time=5
note_on channel=0 note=48 velocity=63 time=0
note_on channel=0 note=48 velocity=0 time=120
note_on channel=0 note=87 velocity=0 time=0
note_on channel=0 note=91 velocity=0 time=0
note_on channel=0 note=84 velocity=80 time=0
note_on channel=0 note=87 velocity=95 time=0
note_on channel=0 note=50 velocity=65 time=0
note_on channel=0 note=50 velocity=0 time=0
note_on channel=0 note=51 velocity=66 time=0
note_on channel=0 note=51 velocity=0 time=0
note_on channel=0 note=87 velocity=0 time=0
note_on channel=0 note=84 velocity=0 time=0
note_on channel=0 note=86 velocity=99 time=0
note_on channel=0 note=82 velocity=84 time=0
note_on channel=0 note=52 velocity=68 time=0
note_on channel=0 note=52 velocity=0 time=34
note_on channel=0 note=53 velocity=70 time=0
note_on channel=0 note=53 velocity=0 time=120
note_on channel=0 note=82 velocity=0 time=0
note_on channel=0 note=86 velocity=0 time=0
note_on channel=0 note=89 velocity=90 time=0
note_on channel=0 note=86 velocity=76 time=0
note_on channel=0 note=55 velocity=73 time=0
note_on channel=0 note=55 velocity=0 time=0
note_on channel=0 note=53 velocity=69 time=0
note_on channel=0 note=86 velocity=0 time=60
note_on channel=0 note=89 velocity=0 time=0
note_on channel=0 note=53 velocity=0 time=0
note_on channel=0 note=72 velocity=83 time=0
note_on channel=0 note=75 velocity=83 time=0
note_on channel=0 note=81 velocity=98 time=0
note_on channel=0 note=53 velocity=71 time=0
note_on channel=0 note=41 velocity=60 time=0
note_on channel=0 note=41 velocity=0 time=177
note_on channel=0 note=81 velocity=0 time=0
note_on channel=0 note=72 velocity=0 time=0
note_on channel=0 note=75 velocity=0 time=0
note_on channel=0 note=53 velocity=0 time=0
note_on channel=0 note=70 velocity=84 time=0
note_on channel=0 note=74 velocity=84 time=0
note_on channel=0 note=82 velocity=99 time=0
note_on channel=0 note=34 velocity=56 time=0
note_on channel=0 note=46 velocity=67 time=0
note_on channel=0 note=46 velocity=0 time=171
note_on channel=0 note=82 velocity=0 time=0
note_on channel=0 note=70 velocity=0 time=0
note_on channel=0 note=74 velocity=0 time=0
note_on channel=0 note=34 velocity=0 time=0
note_on channel=0 note=80 velocity=62 time=448
note_on channel=0 note=80 velocity=0 time=240
note_on channel=0 note=66 velocity=45 time=26
note_on channel=0 note=34 velocity=45 time=0
note_on channel=0 note=66 velocity=0 time=30
note_on channel=0 note=67 velocity=42 time=0
note_on channel=0 note=67 velocity=0 time=34
note_on channel=0 note=66 velocity=48 time=0
note_on channel=0 note=66 velocity=0 time=38
note_on channel=0 note=34 velocity=0 time=0
note_on channel=0 note=67 velocity=46 time=0
note_on channel=0 note=67 velocity=0 time=68
note_on channel=0 note=66 velocity=52 time=0
note_on channel=0 note=66 velocity=0 time=72
note_on channel=0 note=67 velocity=48 time=0
note_on channel=0 note=67 velocity=0 time=26
note_on channel=0 note=66 velocity=56 time=0
note_on channel=0 note=50 velocity=56 time=0
note_on channel=0 note=50 velocity=0 time=30
note_on channel=0 note=66 velocity=0 time=0
note_on channel=0 note=67 velocity=51 time=0
note_on channel=0 note=51 velocity=51 time=0
note_on channel=0 note=51 velocity=0 time=59
note_on channel=0 note=67 velocity=0 time=0
note_on channel=0 note=66 velocity=58 time=0
note_on channel=0 note=50 velocity=59 time=0
note_on channel=0 note=50 velocity=0 time=13
note_on channel=0 note=66 velocity=0 time=0
note_on channel=0 note=67 velocity=55 time=0
note_on channel=0 note=51 velocity=55 time=0
note_on channel=0 note=51 velocity=0 time=23
note_on channel=0 note=67 velocity=0 time=0
note_on channel=0 note=66 velocity=63 time=0
note_on channel=0 note=50 velocity=63 time=0
note_on channel=0 note=50 velocity=0 time=7
note_on channel=0 note=66 velocity=0 time=0
note_on channel=0 note=67 velocity=58 time=0
note_on channel=0 note=51 velocity=56 time=0
note_on channel=0 note=51 velocity=0 time=16
note_on channel=0 note=67 velocity=0 time=0
note_on channel=0 note=66 velocity=60 time=0
note_on channel=0 note=50 velocity=58 time=0
note_on channel=0 note=50 velocity=0 time=0
note_on channel=0 note=66 velocity=0 time=0
note_on channel=0 note=78 velocity=93 time=0
note_on channel=0 note=51 velocity=67 time=0
note_on channel=0 note=63 velocity=67 time=0
note_on channel=0 note=63 velocity=0 time=227
note_on channel=0 note=51 velocity=0 time=0
note_on channel=0 note=78 velocity=0 time=0
note_on channel=0 note=63 velocity=63 time=0
note_on channel=0 note=78 velocity=57 time=0
note_on channel=0 note=63 velocity=0 time=40
note_on channel=0 note=65 velocity=57 time=0
note_on channel=0 note=65 velocity=0 time=59
note_on channel=0 note=63 velocity=66 time=0
note_on channel=0 note=63 velocity=0 time=38
note_on channel=0 note=65 velocity=60 time=0
note_on channel=0 note=65 velocity=0 time=17
note_on channel=0 note=63 velocity=69 time=0
note_on channel=0 note=63 velocity=0 time=80
note_on channel=0 note=65 velocity=64 time=0
note_on channel=0 note=65 velocity=0 time=76
note_on channel=0 note=78 velocity=0 time=0
note_on channel=0 note=63 velocity=73 time=0
note_on channel=0 note=42 velocity=77 time=0
note_on channel=0 note=54 velocity=84 time=0
note_on channel=0 note=63 velocity=0 time=55
note_on channel=0 note=65 velocity=67 time=0
note_on channel=0 note=65 velocity=0 time=59
note_on channel=0 note=63 velocity=76 time=0
note_on channel=0 note=63 velocity=0 time=64
note_on channel=0 note=54 velocity=0 time=0
note_on channel=0 note=42 velocity=0 time=0
note_on channel=0 note=65 velocity=71 time=0
note_on channel=0 note=65 velocity=0 time=48
note_on channel=0 note=63 velocity=80 time=0
note_on channel=0 note=63 velocity=0 time=57
note_on channel=0 note=62 velocity=74 time=0
note_on channel=0 note=62 velocity=0 time=42
note_on channel=0 note=63 velocity=75 time=0
note_on channel=0 note=63 velocity=0 time=26
note_on channel=0 note=66 velocity=83 time=0
note_on channel=0 note=27 velocity=100 time=0
note_on channel=0 note=27 velocity=0 time=23
note_on channel=0 note=29 velocity=56 time=0
note_on channel=0 note=66 velocity=0 time=40
note_on channel=0 note=45 velocity=63 time=0
note_on channel=0 note=29 velocity=0 time=40
note_on channel=0 note=27 velocity=66 time=0
note_on channel=0 note=27 velocity=0 time=80
note_on channel=0 note=45 velocity=0 time=0
note_on channel=0 note=48 velocity=65 time=0
note_on channel=0 note=29 velocity=55 time=0
note_on channel=0 note=29 velocity=0 time=17
note_on channel=0 note=27 velocity=66 time=0
note_on channel=0 note=48 velocity=0 time=40
note_on channel=0 note=51 velocity=66 time=0
note_on channel=0 note=27 velocity=0 time=40
note_on channel=0 note=29 velocity=54 time=0
note_on channel=0 note=29 velocity=0 time=76
note_on channel=0 note=51 velocity=0 time=0
note_on channel=0 note=54 velocity=68 time=0
note_on channel=0 note=27 velocity=64 time=0
note_on channel=0 note=27 velocity=0 time=55
note_on channel=0 note=29 velocity=57 time=0
note_on channel=0 note=54 velocity=0 time=19
note_on channel=0 note=57 velocity=70 time=0
note_on channel=0 note=29 velocity=0 time=40
note_on channel=0 note=27 velocity=63 time=0
note_on channel=0 note=27 velocity=0 time=38
note_on channel=0 note=57 velocity=0 time=0
note_on channel=0 note=60 velocity=71 time=0
note_on channel=0 note=29 velocity=53 time=0
note_on channel=0 note=29 velocity=0 time=43
note_on channel=0 note=27 velocity=62 time=0
note_on channel=0 note=60 velocity=0 time=40
note_on channel=0 note=63 velocity=73 time=0
note_on channel=0 note=27 velocity=0 time=22
note_on channel=0 note=29 velocity=55 time=0
note_on channel=0 note=29 velocity=0 time=0
note_on channel=0 note=63 velocity=0 time=0
note_on channel=0 note=66 velocity=78 time=0
note_on channel=0 note=27 velocity=62 time=0
note_on channel=0 note=27 velocity=0 time=80
note_on channel=0 note=29 velocity=52 time=0
note_on channel=0 note=66 velocity=0 time=0
note_on channel=0 note=57 velocity=64 time=0
note_on channel=0 note=29 velocity=0 time=9
note_on channel=0 note=27 velocity=61 time=0
note_on channel=0 note=27 velocity=0 time=80
note_on channel=0 note=57 velocity=0 time=0
note_on channel=0 note=60 velocity=66 time=0
note_on channel=0 note=29 velocity=51 time=0
note_on channel=0 note=29 velocity=0 time=80
note_on channel=0 note=27 velocity=59 time=0
note_on channel=0 note=60 velocity=0 time=7
note_on channel=0 note=63 velocity=68 time=0
note_on channel=0 note=27 velocity=0 time=40
note_on channel=0 note=29 velocity=50 time=0
note_on channel=0 note=29 velocity=0 time=80
note_on channel=0 note=63 velocity=0 time=0
note_on channel=0 note=66 velocity=69 time=0
note_on channel=0 note=27 velocity=58 time=0
note_on channel=0 note=27 velocity=0 time=30
note_on channel=0 note=29 velocity=50 time=0
note_on channel=0 note=66 velocity=0 time=40
note_on channel=0 note=69 velocity=71 time=0
note_on channel=0 note=29 velocity=0 time=40
note_on channel=0 note=27 velocity=57 time=0
note_on channel=0 note=27 velocity=0 time=80
note_on channel=0 note=69 velocity=0 time=0
note_on channel=0 note=72 velocity=73 time=0
note_on channel=0 note=29 velocity=51 time=0
note_on channel=0 note=29 velocity=0 time=68
note_on channel=0 note=27 velocity=57 time=0
note_on channel=0 note=72 velocity=0 time=40
note_on channel=0 note=75 velocity=75 time=0
note_on channel=0 note=27 velocity=0 time=40
note_on channel=0 note=29 velocity=49 time=0
note_on channel=0 note=29 velocity=0 time=0
note_on channel=0 note=75 velocity=0 time=0
note_on channel=0 note=78 velocity=81 time=0
note_on channel=0 note=27 velocity=56 time=0
note_on channel=0 note=27 velocity=0 time=80
note_on channel=0 note=29 velocity=49 time=0
note_on channel=0 note=78 velocity=0 time=0
note_on channel=0 note=69 velocity=66 time=0
note_on channel=0 note=29 velocity=0 time=9
note_on channel=0 note=27 velocity=56 time=0
note_on channel=0 note=27 velocity=0 time=80
note_on channel=0 note=69 velocity=0 time=0
note_on channel=0 note=72 velocity=67 time=0
note_on channel=0 note=29 velocity=49 time=0
note_on channel=0 note=29 velocity=0 time=80
note_on channel=0 note=27 velocity=56 time=0
note_on channel=0 note=72 velocity=0 time=32
note_on channel=0 note=75 velocity=69 time=0
note_on channel=0 note=27 velocity=0 time=40
note_on channel=0 note=29 velocity=48 time=0
note_on channel=0 note=29 velocity=0 time=80
note_on channel=0 note=75 velocity=0 time=0
note_on channel=0 note=78 velocity=71 time=0
note_on channel=0 note=27 velocity=56 time=0
note_on channel=0 note=27 velocity=0 time=55
note_on channel=0 note=29 velocity=48 time=0
note_on channel=0 note=78 velocity=0 time=40
note_on channel=0 note=81 velocity=72 time=0
note_on channel=0 note=29 velocity=0 time=40
note_on channel=0 note=27 velocity=56 time=0
note_on channel=0 note=27 velocity=0 time=38
note_on channel=0 note=81 velocity=0 time=0
note_on channel=0 note=84 velocity=74 time=0
note_on channel=0 note=29 velocity=48 time=0
note_on channel=0 note=29 velocity=0 time=80
note_on channel=0 note=27 velocity=56 time=0
note_on channel=0 note=84 velocity=0 time=40
note_on channel=0 note=87 velocity=76 time=0
note_on channel=0 note=27 velocity=0 time=22
note_on channel=0 note=29 velocity=48 time=0
note_on channel=0 note=29 velocity=0 time=0
note_on channel=0 note=87 velocity=0 time=0
note_on channel=0 note=90 velocity=86 time=0
note_on channel=0 note=27 velocity=56 time=0
note_on channel=0 note=27 velocity=0 time=80
note_on channel=0 note=29 velocity=49 time=0
note_on channel=0 note=90 velocity=0 time=0
note_on channel=0 note=69 velocity=67 time=0
note_on channel=0 note=29 velocity=0 time=34
note_on channel=0 note=27 velocity=56 time=0
note_on channel=0 note=27 velocity=0 time=38
note_on channel=0 note=69 velocity=0 time=0
note_on channel=0 note=72 velocity=70 time=0
note_on channel=0 note=29 velocity=50 time=0
note_on channel=0 note=29 velocity=0 time=43
note_on channel=0 note=27 velocity=56 time=0
note_on channel=0 note=72 velocity=0 time=7
note_on channel=0 note=75 velocity=74 time=0
note_on channel=0 note=27 velocity=0 time=40
note_on channel=0 note=29 velocity=49 time=0
note_on channel=0 note=29 velocity=0 time=0
note_on channel=0 note=75 velocity=0 time=0
note_on channel=0 note=78 velocity=77 time=0
note_on channel=0 note=27 velocity=56 time=0
note_on channel=0 note=27 velocity=0 time=5
note_on channel=0 note=29 velocity=49 time=0
note_on channel=0 note=78 velocity=0 time=40
note_on channel=0 note=57 velocity=63 time=0
note_on channel=0 note=29 velocity=0 time=9
note_on channel=0 note=27 velocity=56 time=0
note_on channel=0 note=27 velocity=0 time=13
note_on channel=0 note=57 velocity=0 time=0
note_on channel=0 note=60 velocity=68 time=0
note_on channel=0 note=29 velocity=49 time=0
note_on channel=0 note=29 velocity=0 time=17
note_on channel=0 note=27 velocity=56 time=0
note_on channel=0 note=60 velocity=0 time=40
note_on channel=0 note=63 velocity=72 time=0
note_on channel=0 note=27 velocity=0 time=22
note_on channel=0 note=29 velocity=48 time=0
note_on channel=0 note=29 velocity=0 time=0
note_on channel=0 note=63 velocity=0 time=0
note_on channel=0 note=66 velocity=76 time=0
note_on channel=0 note=27 velocity=56 time=0
note_on channel=0 note=27 velocity=0 time=80
note_on channel=0 note=29 velocity=48 time=0
note_on channel=0 note=66 velocity=0 time=0
note_on channel=0 note=45 velocity=64 time=0
note_on channel=0 note=29 velocity=0 time=40
note_on channel=0 note=27 velocity=56 time=0
note_on channel=0 note=27 velocity=0 time=80
note_on channel=0 note=45 velocity=0 time=0
note_on channel=0 note=48 velocity=69 time=0
note_on channel=0 note=29 velocity=48 time=0
note_on channel=0 note=29 velocity=0 time=80
note_on channel=0 note=27 velocity=56 time=0
note_on channel=0 note=48 velocity=0 time=40
note_on channel=0 note=51 velocity=74 time=0
note_on channel=0 note=27 velocity=0 time=40
note_on channel=0 note=29 velocity=48 time=0
note_on channel=0 note=29 velocity=0 time=19
note_on channel=0 note=51 velocity=0 time=0
note_on channel=0 note=54 velocity=79 time=0
note_on channel=0 note=27 velocity=56 time=0
note_on channel=0 note=27 velocity=0 time=48
note_on channel=0 note=29 velocity=49 time=0
note_on channel=0 note=29 velocity=0 time=27
note_on channel=0 note=27 velocity=56 time=0
note_on channel=0 note=27 velocity=0 time=6
note_on channel=0 note=29 velocity=50 time=0
note_on channel=0 note=29 velocity=0 time=35
note_on channel=0 note=27 velocity=56 time=0
note_on channel=0 note=27 velocity=0 time=14
note_on channel=0 note=29 velocity=41 time=0
note_on channel=0 note=29 velocity=0 time=44
note_on channel=0 note=54 velocity=0 time=0
note_on channel=0 note=45 velocity=79 time=0
note_on channel=0 note=42 velocity=79 time=0
note_on channel=0 note=51 velocity=79 time=0
note_on channel=0 note=29 velocity=30 time=0
note_on channel=0 note=34 velocity=54 time=0
note_on channel=0 note=34 velocity=0 time=13
note_on channel=0 note=36 velocity=44 time=0
note_on channel=0 note=36 velocity=0 time=80
note_on channel=0 note=34 velocity=52 time=0
note_on channel=0 note=34 velocity=0 time=80
note_on channel=0 note=36 velocity=39 time=0
note_on channel=0 note=36 velocity=0 time=80
note_on channel=0 note=34 velocity=49 time=0
note_on channel=0 note=34 velocity=0 time=80
note_on channel=0 note=36 velocity=38 time=0
note_on channel=0 note=36 velocity=0 time=80
note_on channel=0 note=29 velocity=0 time=0
note_on channel=0 note=29 velocity=30 time=0
note_on channel=0 note=34 velocity=46 time=0
note_on channel=0 note=34 velocity=0 time=80
note_on channel=0 note=36 velocity=36 time=0
note_on channel=0 note=36 velocity=0 time=80
note_on channel=0 note=34 velocity=44 time=0
note_on channel=0 note=34 velocity=0 time=80
note_on channel=0 note=51 velocity=0 time=0
note_on channel=0 note=45 velocity=0 time=0
note_on channel=0 note=42 velocity=0 time=0
note_on channel=0 note=41 velocity=70 time=0
note_on channel=0 note=44 velocity=70 time=0
note_on channel=0 note=50 velocity=70 time=0
note_on channel=0 note=36 velocity=33 time=0
note_on channel=0 note=36 velocity=0 time=34
note_on channel=0 note=34 velocity=41 time=0
note_on channel=0 note=34 velocity=0 time=80
note_on channel=0 note=36 velocity=30 time=0
note_on channel=0 note=36 velocity=0 time=0
note_on channel=0 note=44 velocity=0 time=0
note_on channel=0 note=50 velocity=0 time=0
note_on channel=0 note=41 velocity=0 time=0
note_on channel=0 note=70 velocity=50 time=0
note_on channel=0 note=34 velocity=37 time=0
note_on channel=0 note=34 velocity=0 time=23
note_on channel=0 note=36 velocity=31 time=0
note_on channel=0 note=70 velocity=0 time=40
note_on channel=0 note=68 velocity=45 time=0
note_on channel=0 note=36 velocity=0 time=40
note_on channel=0 note=34 velocity=37 time=0
note_on channel=0 note=34 velocity=0 time=80
note_on channel=0 note=68 velocity=0 time=0
note_on channel=0 note=70 velocity=50 time=0
note_on channel=0 note=36 velocity=32 time=0
note_on channel=0 note=36 velocity=0 time=80
note_on channel=0 note=34 velocity=37 time=0
note_on channel=0 note=70 velocity=0 time=40
note_on channel=0 note=68 velocity=45 time=0
note_on channel=0 note=34 velocity=0 time=40
note_on channel=0 note=36 velocity=32 time=0
note_on channel=0 note=36 velocity=0 time=80
note_on channel=0 note=68 velocity=0 time=0
note_on channel=0 note=70 velocity=50 time=0
note_on channel=0 note=34 velocity=37 time=0
note_on channel=0 note=34 velocity=0 time=80
note_on channel=0 note=36 velocity=31 time=0
note_on channel=0 note=70 velocity=0 time=40
note_on channel=0 note=68 velocity=45 time=0
note_on channel=0 note=36 velocity=0 time=40
note_on channel=0 note=34 velocity=37 time=0
note_on channel=0 note=34 velocity=0 time=80
note_on channel=0 note=68 velocity=0 time=0
note_on channel=0 note=67 velocity=50 time=0
note_on channel=0 note=36 velocity=30 time=0
note_on channel=0 note=36 velocity=0 time=80
note_on channel=0 note=34 velocity=37 time=0
note_on channel=0 note=67 velocity=0 time=0
note_on channel=0 note=68 velocity=45 time=0
note_on channel=0 note=34 velocity=0 time=40
note_on channel=0 note=36 velocity=31 time=0
note_on channel=0 note=36 velocity=0 time=0
note_on channel=0 note=68 velocity=0 time=0
note_on channel=0 note=29 velocity=0 time=0
note_on channel=0 note=71 velocity=58 time=0
note_on channel=0 note=34 velocity=37 time=0
note_on channel=0 note=29 velocity=30 time=0
note_on channel=0 note=34 velocity=0 time=20
note_on channel=0 note=36 velocity=31 time=0
note_on channel=0 note=36 velocity=0 time=80
note_on channel=0 note=34 velocity=37 time=0
note_on channel=0 note=34 velocity=0 time=80
note_on channel=0 note=56 velocity=53 time=0
note_on channel=0 note=36 velocity=30 time=0
note_on channel=0 note=36 velocity=0 time=80
note_on channel=0 note=34 velocity=37 time=0
note_on channel=0 note=34 velocity=0 time=80
note_on channel=0 note=36 velocity=31 time=0
note_on channel=0 note=36 velocity=0 time=80
note_on channel=0 note=56 velocity=0 time=0
note_on channel=0 note=71 velocity=0 time=0
note_on channel=0 note=68 velocity=50 time=0
note_on channel=0 note=34 velocity=37 time=0
note_on channel=0 note=34 velocity=0 time=80
note_on channel=0 note=36 velocity=31 time=0
note_on channel=0 note=36 velocity=0 time=80
note_on channel=0 note=34 velocity=37 time=0
note_on channel=0 note=34 velocity=0 time=0
note_on channel=0 note=68 velocity=0 time=0
note_on channel=0 note=71 velocity=46 time=0
note_on channel=0 note=79 velocity=55 time=0
note_on channel=0 note=36 velocity=30 time=0
note_on channel=0 note=36 velocity=0 time=9
note_on channel=0 note=34 velocity=37 time=0
note_on channel=0 note=71 velocity=0 time=40
note_on channel=0 note=70 velocity=50 time=0
note_on channel=0 note=34 velocity=0 time=40
note_on channel=0 note=36 velocity=31 time=0
note_on channel=0 note=36 velocity=0 time=80
note_on channel=0 note=70 velocity=0 time=0
note_on channel=0 note=79 velocity=0 time=0
note_on channel=0 note=68 velocity=47 time=0
note_on channel=0 note=80 velocity=56 time=0
note_on channel=0 note=34 velocity=37 time=0
note_on channel=0 note=34 velocity=0 time=80
note_on channel=0 note=36 velocity=31 time=0
note_on channel=0 note=68 velocity=0 time=40
note_on channel=0 note=66 velocity=48 time=0
note_on channel=0 note=36 velocity=0 time=40
note_on channel=0 note=34 velocity=37 time=0
note_on channel=0 note=34 velocity=0 time=80
note_on channel=0 note=66 velocity=0 time=0
note_on channel=0 note=80 velocity=0 time=0
note_on channel=0 note=65 velocity=52 time=0
note_on channel=0 note=36 velocity=30 time=0
note_on channel=0 note=36 velocity=0 time=80
note_on channel=0 note=34 velocity=37 time=0
note_on channel=0 note=65 velocity=0 time=0
note_on channel=0 note=63 velocity=48 time=0
note_on channel=0 note=34 velocity=0 time=40
note_on channel=0 note=36 velocity=31 time=0
note_on channel=0 note=36 velocity=0 time=0
note_on channel=0 note=63 velocity=0 time=0
note_on channel=0 note=29 velocity=0 time=0
note_on channel=0 note=68 velocity=58 time=0
note_on channel=0 note=34 velocity=37 time=0
note_on channel=0 note=29 velocity=30 time=0
note_on channel=0 note=34 velocity=0 time=34
note_on channel=0 note=36 velocity=31 time=0
note_on channel=0 note=36 velocity=0 time=80
note_on channel=0 note=34 velocity=37 time=0
note_on channel=0 note=34 velocity=0 time=80
note_on channel=0 note=53 velocity=53 time=0
note_on channel=0 note=36 velocity=30 time=0
note_on channel=0 note=36 velocity=0 time=80
note_on channel=0 note=34 velocity=37 time=0
note_on channel=0 note=34 velocity=0 time=80
note_on channel=0 note=36 velocity=31 time=0
note_on channel=0 note=36 velocity=0 time=80
note_on channel=0 note=53 velocity=0 time=0
note_on channel=0 note=68 velocity=0 time=0
note_on channel=0 note=65 velocity=50 time=0
note_on channel=0 note=34 velocity=37 time=0
note_on channel=0 note=34 velocity=0 time=80
note_on channel=0 note=36 velocity=31 time=0
note_on channel=0 note=36 velocity=0 time=80
note_on channel=0 note=34 velocity=37 time=0
note_on channel=0 note=34 velocity=0 time=0
note_on channel=0 note=65 velocity=0 time=0
note_on channel=0 note=68 velocity=46 time=0
note_on channel=0 note=76 velocity=55 time=0
note_on channel=0 note=36 velocity=30 time=0
note_on channel=0 note=36 velocity=0 time=27
note_on channel=0 note=34 velocity=37 time=0
note_on channel=0 note=68 velocity=0 time=40
note_on channel=0 note=66 velocity=50 time=0
note_on channel=0 note=34 velocity=0 time=40
note_on channel=0 note=36 velocity=31 time=0
note_on channel=0 note=36 velocity=0 time=80
note_on channel=0 note=66 velocity=0 time=0
note_on channel=0 note=76 velocity=0 time=0
note_on channel=0 note=65 velocity=47 time=0
note_on channel=0 note=77 velocity=56 time=0
note_on channel=0 note=34 velocity=37 time=0
note_on channel=0 note=34 velocity=0 time=80
note_on channel=0 note=36 velocity=31 time=0
note_on channel=0 note=65 velocity=0 time=40
note_on channel=0 note=63 velocity=48 time=0
note_on channel=0 note=36 velocity=0 time=40
note_on channel=0 note=34 velocity=37 time=0
note_on channel=0 note=34 velocity=0 time=80
note_on channel=0 note=63 velocity=0 time=0
note_on channel=0 note=77 velocity=0 time=0
note_on channel=0 note=62 velocity=52 time=0
note_on channel=0 note=36 velocity=30 time=0
note_on channel=0 note=36 velocity=0 time=80
note_on channel=0 note=34 velocity=37 time=0
note_on channel=0 note=62 velocity=0 time=0
note_on channel=0 note=59 velocity=48 time=0
note_on channel=0 note=34 velocity=0 time=40
note_on channel=0 note=36 velocity=31 time=0
note_on channel=0 note=36 velocity=0 time=0
note_on channel=0 note=59 velocity=0 time=0
note_on channel=0 note=29 velocity=0 time=0
note_on channel=0 note=66 velocity=58 time=0
note_on channel=0 note=29 velocity=30 time=0
note_on channel=0 note=34 velocity=37 time=0
note_on channel=0 note=34 velocity=0 time=23
note_on channel=0 note=36 velocity=31 time=0
note_on channel=0 note=36 velocity=0 time=80
note_on channel=0 note=34 velocity=37 time=0
note_on channel=0 note=34 velocity=0 time=80
note_on channel=0 note=51 velocity=53 time=0
note_on channel=0 note=36 velocity=30 time=0
note_on channel=0 note=36 velocity=0 time=80
note_on channel=0 note=34 velocity=37 time=0
note_on channel=0 note=34 velocity=0 time=80
note_on channel=0 note=36 velocity=31 time=0
note_on channel=0 note=36 velocity=0 time=80
note_on channel=0 note=51 velocity=0 time=0
note_on channel=0 note=66 velocity=0 time=0
note_on channel=0 note=63 velocity=50 time=0
note_on channel=0 note=34 velocity=37 time=0
note_on channel=0 note=34 velocity=0 time=80
note_on channel=0 note=36 velocity=31 time=0
note_on channel=0 note=36 velocity=0 time=80
note_on channel=0 note=34 velocity=37 time=0
note_on channel=0 note=34 velocity=0 time=0
note_on channel=0 note=63 velocity=0 time=0
note_on channel=0 note=66 velocity=46 time=0
note_on channel=0 note=74 velocity=55 time=0
note_on channel=0 note=36 velocity=30 time=0
note_on channel=0 note=36 velocity=0 time=13
note_on channel=0 note=34 velocity=37 time=0
note_on channel=0 note=66 velocity=0 time=40
note_on channel=0 note=65 velocity=50 time=0
note_on channel=0 note=34 velocity=0 time=40
note_on channel=0 note=36 velocity=31 time=0
note_on channel=0 note=36 velocity=0 time=80
note_on channel=0 note=65 velocity=0 time=0
note_on channel=0 note=74 velocity=0 time=0
note_on channel=0 note=63 velocity=47 time=0
note_on channel=0 note=75 velocity=56 time=0
note_on channel=0 note=34 velocity=37 time=0
note_on channel=0 note=34 velocity=0 time=80
note_on channel=0 note=36 velocity=31 time=0
note_on channel=0 note=63 velocity=0 time=40
note_on channel=0 note=61 velocity=48 time=0
note_on channel=0 note=36 velocity=0 time=40
note_on channel=0 note=34 velocity=37 time=0
note_on channel=0 note=34 velocity=0 time=80
note_on channel=0 note=61 velocity=0 time=0
note_on channel=0 note=75 velocity=0 time=0
note_on channel=0 note=63 velocity=56 time=0
note_on channel=0 note=59 velocity=52 time=0
note_on channel=0 note=36 velocity=30 time=0
note_on channel=0 note=36 velocity=0 time=80
note_on channel=0 note=34 velocity=37 time=0
note_on channel=0 note=59 velocity=0 time=0
note_on channel=0 note=58 velocity=48 time=0
note_on channel=0 note=34 velocity=0 time=40
note_on channel=0 note=36 velocity=31 time=0
note_on channel=0 note=36 velocity=0 time=0
note_on channel=0 note=58 velocity=0 time=0
note_on channel=0 note=29 velocity=0 time=0
note_on channel=0 note=57 velocity=50 time=0
note_on channel=0 note=29 velocity=30 time=0
note_on channel=0 note=34 velocity=37 time=0
note_on channel=0 note=34 velocity=0 time=13
note_on channel=0 note=36 velocity=31 time=0
note_on channel=0 note=63 velocity=0 time=40
note_on channel=0 note=65 velocity=46 time=0
note_on channel=0 note=36 velocity=0 time=40
note_on channel=0 note=34 velocity=37 time=0
note_on channel=0 note=34 velocity=0 time=0
note_on channel=0 note=65 velocity=0 time=0
note_on channel=0 note=57 velocity=0 time=0
note_on channel=0 note=63 velocity=46 time=0
note_on channel=0 note=36 velocity=30 time=0
note_on channel=0 note=36 velocity=0 time=80
note_on channel=0 note=34 velocity=37 time=0
note_on channel=0 note=63 velocity=0 time=40
note_on channel=0 note=62 velocity=46 time=0
note_on channel=0 note=34 velocity=0 time=40
note_on channel=0 note=36 velocity=31 time=0
note_on channel=0 note=36 velocity=0 time=0
note_on channel=0 note=62 velocity=0 time=0
note_on channel=0 note=54 velocity=52 time=0
note_on channel=0 note=63 velocity=52 time=0
note_on channel=0 note=34 velocity=37 time=0
note_on channel=0 note=34 velocity=0 time=13
note_on channel=0 note=36 velocity=31 time=0
note_on channel=0 note=63 velocity=0 time=40
note_on channel=0 note=61 velocity=48 time=0
note_on channel=0 note=36 velocity=0 time=40
note_on channel=0 note=34 velocity=37 time=0
note_on channel=0 note=34 velocity=0 time=80
note_on channel=0 note=61 velocity=0 time=0
note_on channel=0 note=60 velocity=48 time=0
note_on channel=0 note=36 velocity=30 time=0
note_on channel=0 note=36 velocity=0 time=80
note_on channel=0 note=34 velocity=37 time=0
note_on channel=0 note=60 velocity=0 time=40
note_on channel=0 note=59 velocity=48 time=0
note_on channel=0 note=34 velocity=0 time=40
note_on channel=0 note=36 velocity=31 time=0
note_on channel=0 note=36 velocity=0 time=80
note_on channel=0 note=59 velocity=0 time=0
note_on channel=0 note=60 velocity=54 time=0
note_on channel=0 note=34 velocity=37 time=0
note_on channel=0 note=34 velocity=0 time=80
note_on channel=0 note=36 velocity=31 time=0
note_on channel=0 note=60 velocity=0 time=40
note_on channel=0 note=59 velocity=48 time=0
note_on channel=0 note=36 velocity=0 time=40
note_on channel=0 note=34 velocity=37 time=0
note_on channel=0 note=34 velocity=0 time=80
note_on channel=0 note=59 velocity=0 time=0
note_on channel=0 note=54 velocity=0 time=0
note_on channel=0 note=54 velocity=48 time=0
note_on channel=0 note=60 velocity=48 time=0
note_on channel=0 note=36 velocity=30 time=0
note_on channel=0 note=36 velocity=0 time=80
note_on channel=0 note=34 velocity=37 time=0
note_on channel=0 note=60 velocity=0 time=40
note_on channel=0 note=61 velocity=48 time=0
note_on channel=0 note=34 velocity=0 time=40
note_on channel=0 note=36 velocity=31 time=0
note_on channel=0 note=36 velocity=0 time=80
note_on channel=0 note=61 velocity=0 time=0
note_on channel=0 note=54 velocity=0 time=0
note_on channel=0 note=29 velocity=0 time=0
note_on channel=0 note=54 velocity=48 time=0
note_on channel=0 note=63 velocity=56 time=0
note_on channel=0 note=34 velocity=37 time=0
note_on channel=0 note=29 velocity=30 time=0
note_on channel=0 note=34 velocity=0 time=16
note_on channel=0 note=36 velocity=31 time=0
note_on channel=0 note=36 velocity=0 time=80
note_on channel=0 note=34 velocity=37 time=0
note_on channel=0 note=34 velocity=0 time=80
note_on channel=0 note=54 velocity=0 time=0
note_on channel=0 note=63 velocity=0 time=0
note_on channel=0 note=53 velocity=48 time=0
note_on channel=0 note=36 velocity=30 time=0
note_on channel=0 note=36 velocity=0 time=80
note_on channel=0 note=34 velocity=37 time=0
note_on channel=0 note=34 velocity=0 time=80
note_on channel=0 note=36 velocity=31 time=0
note_on channel=0 note=36 velocity=0 time=80
note_on channel=0 note=53 velocity=0 time=0
note_on channel=0 note=60 velocity=56 time=0
note_on channel=0 note=53 velocity=48 time=0
note_on channel=0 note=34 velocity=37 time=0
note_on channel=0 note=34 velocity=0 time=66
note_on channel=0 note=36 velocity=31 time=0
note_on channel=0 note=36 velocity=0 time=68
note_on channel=0 note=34 velocity=37 time=0
note_on channel=0 note=34 velocity=0 time=80
note_on channel=0 note=53 velocity=0 time=0
note_on channel=0 note=51 velocity=45 time=0
note_on channel=0 note=36 velocity=30 time=0
note_on channel=0 note=36 velocity=0 time=80
note_on channel=0 note=34 velocity=37 time=0
note_on channel=0 note=34 velocity=0 time=80
note_on channel=0 note=36 velocity=31 time=0
note_on channel=0 note=36 velocity=0 time=80
note_on channel=0 note=51 velocity=0 time=0
note_on channel=0 note=50 velocity=55 time=0
note_on channel=0 note=34 velocity=37 time=0
note_on channel=0 note=34 velocity=0 time=80
note_on channel=0 note=36 velocity=31 time=0
note_on channel=0 note=36 velocity=0 time=80
note_on channel=0 note=34 velocity=37 time=0
note_on channel=0 note=34 velocity=0 time=80
note_on channel=0 note=50 velocity=0 time=0
note_on channel=0 note=60 velocity=0 time=0
note_on channel=0 note=60 velocity=45 time=0
note_on channel=0 note=51 velocity=45 time=0
note_on channel=0 note=36 velocity=30 time=0
note_on channel=0 note=36 velocity=0 time=80
note_on channel=0 note=34 velocity=37 time=0
note_on channel=0 note=34 velocity=0 time=40
note_on channel=0 note=36 velocity=31 time=0
note_on channel=0 note=36 velocity=0 time=0
note_on channel=0 note=29 velocity=0 time=0
note_on channel=0 note=60 velocity=0 time=0
note_on channel=0 note=51 velocity=0 time=0
note_on channel=0 note=51 velocity=52 time=0
note_on channel=0 note=60 velocity=52 time=0
note_on channel=0 note=29 velocity=30 time=0
note_on channel=0 note=34 velocity=37 time=0
note_on channel=0 note=34 velocity=0 time=28
note_on channel=0 note=36 velocity=31 time=0
note_on channel=0 note=36 velocity=0 time=42
note_on channel=0 note=34 velocity=37 time=0
note_on channel=0 note=34 velocity=0 time=60
note_on channel=0 note=36 velocity=30 time=0
note_on channel=0 note=36 velocity=0 time=60
note_on channel=0 note=60 velocity=0 time=0
note_on channel=0 note=51 velocity=0 time=0
note_on channel=0 note=50 velocity=38 time=0
note_on channel=0 note=58 velocity=45 time=0
note_on channel=0 note=34 velocity=37 time=0
note_on channel=0 note=34 velocity=0 time=60
note_on channel=0 note=36 velocity=31 time=0
note_on channel=0 note=36 velocity=0 time=60
note_on channel=0 note=34 velocity=37 time=0
note_on channel=0 note=34 velocity=0 time=60
note_on channel=0 note=36 velocity=31 time=0
note_on channel=0 note=36 velocity=0 time=60
note_on channel=0 note=58 velocity=0 time=0
note_on channel=0 note=50 velocity=0 time=0
note_on channel=0 note=29 velocity=0 time=0
note_on channel=0 note=51 velocity=43 time=0
note_on channel=0 note=57 velocity=51 time=0
note_on channel=0 note=29 velocity=30 time=0
note_on channel=0 note=34 velocity=37 time=0
note_on channel=0 note=34 velocity=0 time=10
note_on channel=0 note=36 velocity=30 time=0
note_on channel=0 note=36 velocity=0 time=60
note_on channel=0 note=34 velocity=37 time=0
note_on channel=0 note=34 velocity=0 time=60
note_on channel=0 note=36 velocity=31 time=0
note_on channel=0 note=36 velocity=0 time=60
note_on channel=0 note=57 velocity=0 time=0
note_on channel=0 note=51 velocity=0 time=0
note_on channel=0 note=50 velocity=36 time=0
note_on channel=0 note=58 velocity=43 time=0
note_on channel=0 note=34 velocity=37 time=0
note_on channel=0 note=34 velocity=0 time=60
note_on channel=0 note=36 velocity=31 time=0
note_on channel=0 note=36 velocity=0 time=60
note_on channel=0 note=34 velocity=37 time=0
note_on channel=0 note=34 velocity=0 time=60
note_on channel=0 note=36 velocity=30 time=0
note_on channel=0 note=36 velocity=0 time=60
note_on channel=0 note=58 velocity=0 time=0
note_on channel=0 note=50 velocity=0 time=0
note_on channel=0 note=29 velocity=0 time=0
note_on channel=0 note=45 velocity=41 time=0
note_on channel=0 note=51 velocity=41 time=0
note_on channel=0 note=54 velocity=49 time=0
note_on channel=0 note=29 velocity=30 time=0
note_on channel=0 note=34 velocity=37 time=0
note_on channel=0 note=34 velocity=0 time=3
note_on channel=0 note=36 velocity=31 time=0
note_on channel=0 note=36 velocity=0 time=60
note_on channel=0 note=34 velocity=37 time=0
note_on channel=0 note=34 velocity=0 time=60
note_on channel=0 note=36 velocity=31 time=0
note_on channel=0 note=36 velocity=0 time=0
note_on channel=0 note=54 velocity=0 time=0
note_on channel=0 note=45 velocity=0 time=0
note_on channel=0 note=51 velocity=0 time=0
note_on channel=0 note=46 velocity=33 time=0
note_on channel=0 note=50 velocity=33 time=0
note_on channel=0 note=53 velocity=39 time=0
note_on channel=0 note=34 velocity=37 time=0
note_on channel=0 note=34 velocity=0 time=60
note_on channel=0 note=36 velocity=30 time=0
note_on channel=0 note=36 velocity=0 time=60
note_on channel=0 note=34 velocity=37 time=0
note_on channel=0 note=34 velocity=0 time=60
note_on channel=0 note=36 velocity=31 time=0
note_on channel=0 note=36 velocity=0 time=0
note_on channel=0 note=53 velocity=0 time=0
note_on channel=0 note=29 velocity=0 time=0
note_on channel=0 note=46 velocity=0 time=0
note_on channel=0 note=50 velocity=0 time=0
note_on channel=0 note=54 velocity=45 time=0
note_on channel=0 note=57 velocity=45 time=0
note_on channel=0 note=63 velocity=53 time=0
note_on channel=0 note=29 velocity=30 time=0
note_on channel=0 note=34 velocity=37 time=0
note_on channel=0 note=34 velocity=0 time=60
note_on channel=0 note=36 velocity=31 time=0
note_on channel=0 note=36 velocity=0 time=56
note_on channel=0 note=34 velocity=37 time=0
note_on channel=0 note=34 velocity=0 time=60
note_on channel=0 note=36 velocity=31 time=0
note_on channel=0 note=36 velocity=0 time=60
note_on channel=0 note=63 velocity=0 time=0
note_on channel=0 note=54 velocity=0 time=0
note_on channel=0 note=57 velocity=0 time=0
note_on channel=0 note=53 velocity=35 time=0
note_on channel=0 note=58 velocity=35 time=0
note_on channel=0 note=62 velocity=42 time=0
note_on channel=0 note=34 velocity=37 time=0
note_on channel=0 note=34 velocity=0 time=60
note_on channel=0 note=36 velocity=30 time=0
note_on channel=0 note=36 velocity=0 time=60
note_on channel=0 note=34 velocity=37 time=0
note_on channel=0 note=34 velocity=0 time=60
note_on channel=0 note=36 velocity=31 time=0
note_on channel=0 note=36 velocity=0 time=0
note_on channel=0 note=62 velocity=0 time=0
note_on channel=0 note=29 velocity=0 time=0
note_on channel=0 note=53 velocity=0 time=0
note_on channel=0 note=58 velocity=0 time=0
note_on channel=0 note=63 velocity=43 time=0
note_on channel=0 note=66 velocity=43 time=0
note_on channel=0 note=69 velocity=51 time=0
note_on channel=0 note=29 velocity=30 time=0
note_on channel=0 note=34 velocity=37 time=0
note_on channel=0 note=34 velocity=0 time=45
note_on channel=0 note=36 velocity=31 time=0
note_on channel=0 note=36 velocity=0 time=46
note_on channel=0 note=34 velocity=37 time=0
note_on channel=0 note=34 velocity=0 time=60
note_on channel=0 note=36 velocity=31 time=0
note_on channel=0 note=36 velocity=0 time=60
note_on channel=0 note=69 velocity=0 time=0
note_on channel=0 note=63 velocity=0 time=0
note_on channel=0 note=66 velocity=0 time=0
note_on channel=0 note=62 velocity=35 time=0
note_on channel=0 note=65 velocity=35 time=0
note_on channel=0 note=70 velocity=42 time=0
note_on channel=0 note=34 velocity=37 time=0
note_on channel=0 note=34 velocity=0 time=60
note_on channel=0 note=36 velocity=30 time=0
note_on channel=0 note=36 velocity=0 time=60
note_on channel=0 note=34 velocity=37 time=0
note_on channel=0 note=34 velocity=0 time=60
note_on channel=0 note=36 velocity=31 time=0
note_on channel=0 note=36 velocity=0 time=0
note_on channel=0 note=70 velocity=0 time=0
note_on channel=0 note=29 velocity=0 time=0
note_on channel=0 note=62 velocity=0 time=0
note_on channel=0 note=65 velocity=0 time=0
note_on channel=0 note=69 velocity=44 time=0
note_on channel=0 note=75 velocity=44 time=0
note_on channel=0 note=78 velocity=52 time=0
note_on channel=0 note=29 velocity=30 time=0
note_on channel=0 note=34 velocity=37 time=0
note_on channel=0 note=34 velocity=0 time=53
note_on channel=0 note=36 velocity=31 time=0
note_on channel=0 note=36 velocity=0 time=56
note_on channel=0 note=34 velocity=37 time=0
note_on channel=0 note=34 velocity=0 time=60
note_on channel=0 note=36 velocity=37 time=0
note_on channel=0 note=69 velocity=0 time=0
note_on channel=0 note=78 velocity=0 time=0
note_on channel=0 note=75 velocity=0 time=0
note_on channel=0 note=70 velocity=38 time=0
note_on channel=0 note=74 velocity=38 time=0
note_on channel=0 note=77 velocity=45 time=0
note_on channel=0 note=34 velocity=37 time=0
note_on channel=0 note=36 velocity=0 time=20
note_on channel=0 note=34 velocity=0 time=60
note_on channel=0 note=33 velocity=35 time=0
note_on channel=0 note=33 velocity=0 time=80
note_on channel=0 note=34 velocity=35 time=0
note_on channel=0 note=34 velocity=0 time=18
note_on channel=0 note=74 velocity=0 time=0
note_on channel=0 note=29 velocity=0 time=0
note_on channel=0 note=70 velocity=0 time=0
note_on channel=0 note=77 velocity=0 time=0
note_on channel=0 note=81 velocity=52 time=0
note_on channel=0 note=72 velocity=44 time=0
note_on channel=0 note=75 velocity=44 time=0
note_on channel=0 note=30 velocity=35 time=0
note_on channel=0 note=34 velocity=35 time=0
note_on channel=0 note=42 velocity=42 time=0
note_on channel=0 note=81 velocity=0 time=2
note_on channel=0 note=82 velocity=47 time=0
note_on channel=0 note=82 velocity=0 time=11
note_on channel=0 note=81 velocity=52 time=0
note_on channel=0 note=81 velocity=0 time=21
note_on channel=0 note=82 velocity=47 time=0
note_on channel=0 note=82 velocity=0 time=5
note_on channel=0 note=81 velocity=52 time=0
note_on channel=0 note=81 velocity=0 time=15
note_on channel=0 note=82 velocity=46 time=0
note_on channel=0 note=82 velocity=0 time=24
note_on channel=0 note=81 velocity=52 time=0
note_on channel=0 note=81 velocity=0 time=8
note_on channel=0 note=82 velocity=47 time=0
note_on channel=0 note=82 velocity=0 time=18
note_on channel=0 note=42 velocity=0 time=0
note_on channel=0 note=30 velocity=0 time=0
note_on channel=0 note=34 velocity=0 time=0
note_on channel=0 note=81 velocity=52 time=0
note_on channel=0 note=31 velocity=35 time=0
note_on channel=0 note=34 velocity=35 time=0
note_on channel=0 note=43 velocity=42 time=0
note_on channel=0 note=81 velocity=0 time=50
note_on channel=0 note=82 velocity=47 time=0
note_on channel=0 note=82 velocity=0 time=39
note_on channel=0 note=81 velocity=52 time=0
note_on channel=0 note=81 velocity=0 time=60
note_on channel=0 note=82 velocity=48 time=0
note_on channel=0 note=82 velocity=0 time=5
note_on channel=0 note=81 velocity=52 time=0
note_on channel=0 note=81 velocity=0 time=2
note_on channel=0 note=79 velocity=47 time=0
note_on channel=0 note=79 velocity=0 time=6
note_on channel=0 note=81 velocity=47 time=0
note_on channel=0 note=81 velocity=0 time=0
note_on channel=0 note=75 velocity=0 time=0
note_on channel=0 note=72 velocity=0 time=0
note_on channel=0 note=70 velocity=39 time=0
note_on channel=0 note=73 velocity=39 time=0
note_on channel=0 note=82 velocity=47 time=0
note_on channel=0 note=82 velocity=0 time=0
note_on channel=0 note=34 velocity=0 time=0
note_on channel=0 note=31 velocity=0 time=0
note_on channel=0 note=43 velocity=0 time=0
note_on channel=0 note=73 velocity=0 time=0
note_on channel=0 note=70 velocity=0 time=0
note_on channel=0 note=64 velocity=44 time=0
note_on channel=0 note=55 velocity=37 time=0
note_on channel=0 note=55 velocity=0 time=2
note_on channel=0 note=64 velocity=0 time=0
note_on channel=0 note=65 velocity=39 time=0
note_on channel=0 note=57 velocity=33 time=0
note_on channel=0 note=57 velocity=0 time=11
note_on channel=0 note=65 velocity=0 time=0
note_on channel=0 note=64 velocity=44 time=0
note_on channel=0 note=55 velocity=37 time=0
note_on channel=0 note=55 velocity=0 time=21
note_on channel=0 note=64 velocity=0 time=0
note_on channel=0 note=65 velocity=39 time=0
note_on channel=0 note=57 velocity=33 time=0
note_on channel=0 note=57 velocity=0 time=5
note_on channel=0 note=65 velocity=0 time=0
note_on channel=0 note=64 velocity=44 time=0
note_on channel=0 note=55 velocity=37 time=0
note_on channel=0 note=55 velocity=0 time=15
note_on channel=0 note=64 velocity=0 time=0
note_on channel=0 note=65 velocity=39 time=0
note_on channel=0 note=57 velocity=33 time=0
note_on channel=0 note=57 velocity=0 time=24
note_on channel=0 note=65 velocity=0 time=0
note_on channel=0 note=64 velocity=44 time=0
note_on channel=0 note=55 velocity=37 time=0
note_on channel=0 note=55 velocity=0 time=8
note_on channel=0 note=64 velocity=0 time=0
note_on channel=0 note=65 velocity=39 time=0
note_on channel=0 note=57 velocity=33 time=0
note_on channel=0 note=57 velocity=0 time=18
note_on channel=0 note=65 velocity=0 time=0
note_on channel=0 note=70 velocity=40 time=0
note_on channel=0 note=73 velocity=48 time=0
note_on channel=0 note=64 velocity=44 time=0
note_on channel=0 note=55 velocity=37 time=0
note_on channel=0 note=55 velocity=0 time=60
note_on channel=0 note=64 velocity=0 time=0
note_on channel=0 note=65 velocity=39 time=0
note_on channel=0 note=57 velocity=33 time=0
note_on channel=0 note=57 velocity=0 time=60
note_on channel=0 note=65 velocity=0 time=0
note_on channel=0 note=64 velocity=44 time=0
note_on channel=0 note=55 velocity=37 time=0
note_on channel=0 note=55 velocity=0 time=60
note_on channel=0 note=64 velocity=0 time=0
note_on channel=0 note=65 velocity=40 time=0
note_on channel=0 note=57 velocity=34 time=0
note_on channel=0 note=57 velocity=0 time=5
note_on channel=0 note=65 velocity=0 time=0
note_on channel=0 note=64 velocity=44 time=0
note_on channel=0 note=55 velocity=37 time=0
note_on channel=0 note=55 velocity=0 time=2
note_on channel=0 note=64 velocity=0 time=0
note_on channel=0 note=62 velocity=39 time=0
note_on channel=0 note=53 velocity=33 time=0
note_on channel=0 note=53 velocity=0 time=6
note_on channel=0 note=62 velocity=0 time=0
note_on channel=0 note=64 velocity=39 time=0
note_on channel=0 note=55 velocity=33 time=0
note_on channel=0 note=55 velocity=0 time=0
note_on channel=0 note=70 velocity=0 time=0
note_on channel=0 note=73 velocity=0 time=0
note_on channel=0 note=64 velocity=0 time=0
note_on channel=0 note=65 velocity=46 time=0
note_on channel=0 note=72 velocity=46 time=0
note_on channel=0 note=57 velocity=42 time=0
note_on channel=0 note=57 velocity=0 time=10
note_on channel=0 note=72 velocity=0 time=0
note_on channel=0 note=65 velocity=0 time=0
note_on channel=0 note=69 velocity=46 time=0
note_on channel=0 note=60 velocity=39 time=0
note_on channel=0 note=60 velocity=0 time=20
note_on channel=0 note=69 velocity=0 time=0
note_on channel=0 note=70 velocity=42 time=0
note_on channel=0 note=62 velocity=35 time=0
note_on channel=0 note=62 velocity=0 time=4
note_on channel=0 note=70 velocity=0 time=0
note_on channel=0 note=69 velocity=46 time=0
note_on channel=0 note=60 velocity=39 time=0
note_on channel=0 note=60 velocity=0 time=13
note_on channel=0 note=69 velocity=0 time=0
note_on channel=0 note=70 velocity=42 time=0
note_on channel=0 note=62 velocity=35 time=0
note_on channel=0 note=62 velocity=0 time=23
note_on channel=0 note=70 velocity=0 time=0
note_on channel=0 note=69 velocity=46 time=0
note_on channel=0 note=60 velocity=39 time=0
note_on channel=0 note=60 velocity=0 time=15
note_on channel=0 note=69 velocity=0 time=0
note_on channel=0 note=70 velocity=41 time=0
note_on channel=0 note=62 velocity=35 time=0
note_on channel=0 note=62 velocity=0 time=24
note_on channel=0 note=70 velocity=0 time=0
note_on channel=0 note=69 velocity=46 time=0
note_on channel=0 note=60 velocity=39 time=0
note_on channel=0 note=60 velocity=0 time=8
note_on channel=0 note=69 velocity=0 time=0
note_on channel=0 note=70 velocity=42 time=0
note_on channel=0 note=62 velocity=35 time=0
note_on channel=0 note=62 velocity=0 time=18
note_on channel=0 note=70 velocity=0 time=0
note_on channel=0 note=69 velocity=46 time=0
note_on channel=0 note=75 velocity=52 time=0
note_on channel=0 note=60 velocity=39 time=0
note_on channel=0 note=53 velocity=52 time=0
note_on channel=0 note=60 velocity=0 time=60
note_on channel=0 note=69 velocity=0 time=0
note_on channel=0 note=70 velocity=42 time=0
note_on channel=0 note=62 velocity=35 time=0
note_on channel=0 note=62 velocity=0 time=60
note_on channel=0 note=70 velocity=0 time=0
note_on channel=0 note=69 velocity=46 time=0
note_on channel=0 note=60 velocity=39 time=0
note_on channel=0 note=60 velocity=0 time=60
note_on channel=0 note=69 velocity=0 time=0
note_on channel=0 note=70 velocity=43 time=0
note_on channel=0 note=62 velocity=36 time=0
note_on channel=0 note=62 velocity=0 time=5
note_on channel=0 note=70 velocity=0 time=0
note_on channel=0 note=69 velocity=46 time=0
note_on channel=0 note=60 velocity=39 time=0
note_on channel=0 note=60 velocity=0 time=2
note_on channel=0 note=69 velocity=0 time=0
note_on channel=0 note=67 velocity=42 time=0
note_on channel=0 note=58 velocity=35 time=0
note_on channel=0 note=58 velocity=0 time=6
note_on channel=0 note=67 velocity=0 time=0
note_on channel=0 note=69 velocity=42 time=0
note_on channel=0 note=60 velocity=35 time=0
note_on channel=0 note=60 velocity=0 time=0
note_on channel=0 note=53 velocity=0 time=0
note_on channel=0 note=75 velocity=0 time=0
note_on channel=0 note=69 velocity=0 time=0
note_on channel=0 note=65 velocity=37 time=0
note_on channel=0 note=72 velocity=37 time=0
note_on channel=0 note=75 velocity=44 time=0
note_on channel=0 note=53 velocity=34 time=0
note_on channel=0 note=57 velocity=34 time=0
note_on channel=0 note=60 velocity=40 time=0
note_on channel=0 note=60 velocity=0 time=0
note_on channel=0 note=72 velocity=0 time=0
note_on channel=0 note=75 velocity=0 time=0
note_on channel=0 note=65 velocity=0 time=0
note_on channel=0 note=57 velocity=0 time=0
note_on channel=0 note=53 velocity=0 time=0
note_on channel=0 note=65 velocity=37 time=0
note_on channel=0 note=72 velocity=37 time=0
note_on channel=0 note=75 velocity=44 time=0
note_on channel=0 note=53 velocity=39 time=0
note_on channel=0 note=60 velocity=47 time=0
note_on channel=0 note=57 velocity=39 time=0
note_on channel=0 note=57 velocity=0 time=0
note_on channel=0 note=72 velocity=0 time=0
note_on channel=0 note=75 velocity=0 time=0
note_on channel=0 note=65 velocity=0 time=0
note_on channel=0 note=60 velocity=0 time=0
note_on channel=0 note=53 velocity=0 time=0
note_on channel=0 note=79 velocity=44 time=0
note_on channel=0 note=77 velocity=39 time=120
note_on channel=0 note=79 velocity=0 time=24
note_on channel=0 note=75 velocity=44 time=96
note_on channel=0 note=77 velocity=0 time=24
note_on channel=0 note=74 velocity=39 time=96
note_on channel=0 note=75 velocity=0 time=24
note_on channel=0 note=72 velocity=39 time=96
note_on channel=0 note=74 velocity=0 time=24
note_on channel=0 note=71 velocity=39 time=0
note_on channel=0 note=72 velocity=0 time=24
note_on channel=0 note=71 velocity=0 time=0
note_on channel=0 note=75 velocity=46 time=0
note_on channel=0 note=75 velocity=0 time=480
note_on channel=0 note=67 velocity=44 time=0
note_on channel=0 note=55 velocity=37 time=0
note_on channel=0 note=65 velocity=39 time=120
note_on channel=0 note=53 velocity=33 time=0
note_on channel=0 note=55 velocity=0 time=24
note_on channel=0 note=67 velocity=0 time=0
note_on channel=0 note=63 velocity=44 time=96
note_on channel=0 note=51 velocity=37 time=0
note_on channel=0 note=65 velocity=0 time=24
note_on channel=0 note=53 velocity=0 time=0
note_on channel=0 note=62 velocity=39 time=96
note_on channel=0 note=50 velocity=33 time=0
note_on channel=0 note=63 velocity=0 time=24
note_on channel=0 note=51 velocity=0 time=0
note_on channel=0 note=60 velocity=39 time=96
note_on channel=0 note=48 velocity=33 time=0
note_on channel=0 note=62 velocity=0 time=24
note_on channel=0 note=50 velocity=0 time=0
note_on channel=0 note=59 velocity=39 time=0
note_on channel=0 note=47 velocity=33 time=0
note_on channel=0 note=60 velocity=0 time=24
note_on channel=0 note=48 velocity=0 time=0
note_on channel=0 note=59 velocity=0 time=0
note_on channel=0 note=47 velocity=0 time=0
note_on channel=0 note=63 velocity=46 time=0
note_on channel=0 note=51 velocity=39 time=0
note_on channel=0 note=51 velocity=0 time=480
note_on channel=0 note=63 velocity=0 time=0
note_on channel=0 note=79 velocity=44 time=30
note_on channel=0 note=67 velocity=37 time=0
note_on channel=0 note=77 velocity=39 time=49
note_on channel=0 note=65 velocity=33 time=0
note_on channel=0 note=67 velocity=0 time=24
note_on channel=0 note=79 velocity=0 time=0
note_on channel=0 note=75 velocity=44 time=94
note_on channel=0 note=63 velocity=37 time=0
note_on channel=0 note=77 velocity=0 time=16
note_on channel=0 note=65 velocity=0 time=0
note_on channel=0 note=74 velocity=39 time=11
note_on channel=0 note=62 velocity=33 time=0
note_on channel=0 note=75 velocity=0 time=24
note_on channel=0 note=63 velocity=0 time=0
note_on channel=0 note=72 velocity=39 time=30
note_on channel=0 note=60 velocity=33 time=0
note_on channel=0 note=74 velocity=0 time=24
note_on channel=0 note=62 velocity=0 time=0
note_on channel=0 note=71 velocity=39 time=0
note_on channel=0 note=59 velocity=33 time=0
note_on channel=0 note=72 velocity=0 time=24
note_on channel=0 note=60 velocity=0 time=0
note_on channel=0 note=79 velocity=46 time=0
note_on channel=0 note=67 velocity=39 time=0
note_on channel=0 note=71 velocity=0 time=24
note_on channel=0 note=59 velocity=0 time=0
note_on channel=0 note=77 velocity=47 time=87
note_on channel=0 note=65 velocity=39 time=0
note_on channel=0 note=79 velocity=0 time=24
note_on channel=0 note=67 velocity=0 time=0
note_on channel=0 note=75 velocity=48 time=5
note_on channel=0 note=63 velocity=40 time=0
note_on channel=0 note=77 velocity=0 time=24
note_on channel=0 note=65 velocity=0 time=0
note_on channel=0 note=74 velocity=48 time=96
note_on channel=0 note=62 velocity=40 time=0
note_on channel=0 note=75 velocity=0 time=24
note_on channel=0 note=63 velocity=0 time=0
note_on channel=0 note=72 velocity=49 time=68
note_on channel=0 note=60 velocity=41 time=0
note_on channel=0 note=74 velocity=0 time=24
note_on channel=0 note=62 velocity=0 time=0
note_on channel=0 note=70 velocity=51 time=11
note_on channel=0 note=58 velocity=42 time=0
note_on channel=0 note=72 velocity=0 time=24
note_on channel=0 note=60 velocity=0 time=0
note_on channel=0 note=69 velocity=52 time=96
note_on channel=0 note=57 velocity=44 time=0
note_on channel=0 note=70 velocity=0 time=24
note_on channel=0 note=58 velocity=0 time=0
note_on channel=0 note=67 velocity=53 time=75
note_on channel=0 note=55 velocity=45 time=0
note_on channel=0 note=69 velocity=0 time=24
note_on channel=0 note=57 velocity=0 time=0
note_on channel=0 note=65 velocity=55 time=18
note_on channel=0 note=53 velocity=46 time=0
note_on channel=0 note=67 velocity=0 time=24
note_on channel=0 note=55 velocity=0 time=0
note_on channel=0 note=63 velocity=56 time=96
note_on channel=0 note=51 velocity=47 time=0
note_on channel=0 note=65 velocity=0 time=24
note_on channel=0 note=53 velocity=0 time=0
note_on channel=0 note=62 velocity=57 time=49
note_on channel=0 note=50 velocity=48 time=0
note_on channel=0 note=63 velocity=0 time=24
note_on channel=0 note=51 velocity=0 time=0
note_on channel=0 note=60 velocity=59 time=96
note_on channel=0 note=48 velocity=49 time=0
note_on channel=0 note=62 velocity=0 time=24
note_on channel=0 note=50 velocity=0 time=0
note_on channel=0 note=58 velocity=60 time=36
note_on channel=0 note=46 velocity=50 time=0
note_on channel=0 note=60 velocity=0 time=10
note_on channel=0 note=48 velocity=0 time=0
note_on channel=0 note=58 velocity=0 time=5
note_on channel=0 note=46 velocity=0 time=0
note_on channel=0 note=57 velocity=62 time=0
note_on channel=0 note=45 velocity=52 time=0
note_on channel=0 note=45 velocity=0 time=49
note_on channel=0 note=57 velocity=0 time=0
note_on channel=0 note=55 velocity=63 time=0
note_on channel=0 note=43 velocity=53 time=0
note_on channel=0 note=43 velocity=0 time=68
note_on channel=0 note=55 velocity=0 time=0
note_on channel=0 note=53 velocity=64 time=0
note_on channel=0 note=41 velocity=55 time=0
note_on channel=0 note=41 velocity=0 time=36
note_on channel=0 note=53 velocity=0 time=0
note_on channel=0 note=51 velocity=67 time=0
note_on channel=0 note=39 velocity=56 time=0
note_on channel=0 note=39 velocity=0 time=55
note_on channel=0 note=51 velocity=0 time=0
note_on channel=0 note=50 velocity=68 time=0
note_on channel=0 note=38 velocity=57 time=0
note_on channel=0 note=38 velocity=0 time=49
note_on channel=0 note=50 velocity=0 time=0
note_on channel=0 note=48 velocity=71 time=0
note_on channel=0 note=36 velocity=60 time=0
note_on channel=0 note=36 velocity=0 time=18
note_on channel=0 note=48 velocity=0 time=0
note_on channel=0 note=46 velocity=72 time=0
note_on channel=0 note=34 velocity=61 time=0
note_on channel=0 note=34 velocity=0 time=36
note_on channel=0 note=46 velocity=0 time=0
note_on channel=0 note=45 velocity=76 time=0
note_on channel=0 note=33 velocity=64 time=0
note_on channel=0 note=33 velocity=0 time=5
note_on channel=0 note=45 velocity=0 time=0
note_on channel=0 note=43 velocity=79 time=0
note_on channel=0 note=31 velocity=67 time=0
note_on channel=0 note=31 velocity=0 time=24
note_on channel=0 note=43 velocity=0 time=0
note_on channel=0 note=41 velocity=85 time=0
note_on channel=0 note=29 velocity=71 time=0
note_on channel=0 note=29 velocity=0 time=43
note_on channel=0 note=41 velocity=0 time=0
note_on channel=0 note=40 velocity=89 time=0
note_on channel=0 note=28 velocity=75 time=0
note_on channel=0 note=28 velocity=0 time=36
note_on channel=0 note=40 velocity=0 time=0
note_on channel=0 note=41 velocity=99 time=0
note_on channel=0 note=53 velocity=99 time=0
note_on channel=0 note=29 velocity=83 time=0
note_on channel=0 note=29 velocity=0 time=226
note_on channel=0 note=53 velocity=0 time=0
note_on channel=0 note=41 velocity=0 time=0
note_on channel=0 note=69 velocity=95 time=240
note_on channel=0 note=81 velocity=95 time=0
note_on channel=0 note=45 velocity=79 time=0
note_on channel=0 note=45 velocity=0 time=16
note_on channel=0 note=81 velocity=0 time=0
note_on channel=0 note=82 velocity=75 time=0
note_on channel=0 note=46 velocity=56 time=0
note_on channel=0 note=46 velocity=0 time=20
note_on channel=0 note=82 velocity=0 time=0
note_on channel=0 note=81 velocity=82 time=0
note_on channel=0 note=45 velocity=61 time=0
note_on channel=0 note=45 velocity=0 time=24
note_on channel=0 note=81 velocity=0 time=0
note_on channel=0 note=82 velocity=72 time=0
note_on channel=0 note=46 velocity=53 time=0
note_on channel=0 note=46 velocity=0 time=3
note_on channel=0 note=82 velocity=0 time=0
note_on channel=0 note=81 velocity=79 time=0
note_on channel=0 note=45 velocity=59 time=0
note_on channel=0 note=45 velocity=0 time=7
note_on channel=0 note=81 velocity=0 time=0
note_on channel=0 note=82 velocity=71 time=0
note_on channel=0 note=46 velocity=52 time=0
note_on channel=0 note=46 velocity=0 time=80
note_on channel=0 note=82 velocity=0 time=0
note_on channel=0 note=81 velocity=76 time=0
note_on channel=0 note=45 velocity=57 time=0
note_on channel=0 note=45 velocity=0 time=80
note_on channel=0 note=81 velocity=0 time=0
note_on channel=0 note=82 velocity=69 time=0
note_on channel=0 note=46 velocity=52 time=0
note_on channel=0 note=46 velocity=0 time=80
note_on channel=0 note=82 velocity=0 time=0
note_on channel=0 note=81 velocity=73 time=0
note_on channel=0 note=45 velocity=55 time=0
note_on channel=0 note=45 velocity=0 time=24
note_on channel=0 note=81 velocity=0 time=0
note_on channel=0 note=82 velocity=67 time=0
note_on channel=0 note=46 velocity=50 time=0
note_on channel=0 note=46 velocity=0 time=8
note_on channel=0 note=82 velocity=0 time=0
note_on channel=0 note=81 velocity=76 time=0
note_on channel=0 note=45 velocity=58 time=0
note_on channel=0 note=45 velocity=0 time=18
note_on channel=0 note=81 velocity=0 time=0
note_on channel=0 note=79 velocity=73 time=0
note_on channel=0 note=43 velocity=56 time=0
note_on channel=0 note=43 velocity=0 time=2
note_on channel=0 note=79 velocity=0 time=0
note_on channel=0 note=81 velocity=80 time=0
note_on channel=0 note=45 velocity=63 time=0
note_on channel=0 note=45 velocity=0 time=0
note_on channel=0 note=81 velocity=0 time=0
note_on channel=0 note=69 velocity=0 time=0
note_on channel=0 note=70 velocity=78 time=0
note_on channel=0 note=82 velocity=92 time=0
note_on channel=0 note=46 velocity=68 time=0
note_on channel=0 note=46 velocity=0 time=240
note_on channel=0 note=82 velocity=0 time=0
note_on channel=0 note=70 velocity=0 time=0
note_on channel=0 note=55 velocity=75 time=240
note_on channel=0 note=67 velocity=89 time=0
note_on channel=0 note=31 velocity=69 time=0
note_on channel=0 note=31 velocity=0 time=240
note_on channel=0 note=67 velocity=0 time=0
note_on channel=0 note=55 velocity=0 time=0
note_on channel=0 note=71 velocity=95 time=0
note_on channel=0 note=83 velocity=95 time=0
note_on channel=0 note=47 velocity=79 time=0
note_on channel=0 note=47 velocity=0 time=16
note_on channel=0 note=83 velocity=0 time=0
note_on channel=0 note=84 velocity=75 time=0
note_on channel=0 note=48 velocity=56 time=0
note_on channel=0 note=48 velocity=0 time=20
note_on channel=0 note=84 velocity=0 time=0
note_on channel=0 note=83 velocity=82 time=0
note_on channel=0 note=47 velocity=61 time=0
note_on channel=0 note=47 velocity=0 time=24
note_on channel=0 note=83 velocity=0 time=0
note_on channel=0 note=84 velocity=72 time=0
note_on channel=0 note=48 velocity=53 time=0
note_on channel=0 note=48 velocity=0 time=3
note_on channel=0 note=84 velocity=0 time=0
note_on channel=0 note=83 velocity=79 time=0
note_on channel=0 note=47 velocity=59 time=0
note_on channel=0 note=47 velocity=0 time=7
note_on channel=0 note=83 velocity=0 time=0
note_on channel=0 note=84 velocity=71 time=0
note_on channel=0 note=48 velocity=52 time=0
note_on channel=0 note=48 velocity=0 time=80
note_on channel=0 note=84 velocity=0 time=0
note_on channel=0 note=83 velocity=76 time=0
note_on channel=0 note=47 velocity=57 time=0
note_on channel=0 note=47 velocity=0 time=80
note_on channel=0 note=83 velocity=0 time=0
note_on channel=0 note=84 velocity=69 time=0
note_on channel=0 note=48 velocity=52 time=0
note_on channel=0 note=48 velocity=0 time=80
note_on channel=0 note=84 velocity=0 time=0
note_on channel=0 note=83 velocity=73 time=0
note_on channel=0 note=47 velocity=55 time=0
note_on channel=0 note=47 velocity=0 time=24
note_on channel=0 note=83 velocity=0 time=0
note_on channel=0 note=84 velocity=67 time=0
note_on channel=0 note=48 velocity=50 time=0
note_on channel=0 note=48 velocity=0 time=8
note_on channel=0 note=84 velocity=0 time=0
note_on channel=0 note=83 velocity=74 time=0
note_on channel=0 note=47 velocity=58 time=0
note_on channel=0 note=47 velocity=0 time=18
note_on channel=0 note=83 velocity=0 time=0
note_on channel=0 note=81 velocity=70 time=0
note_on channel=0 note=45 velocity=52 time=0
note_on channel=0 note=45 velocity=0 time=2
note_on channel=0 note=81 velocity=0 time=0
note_on channel=0 note=83 velocity=79 time=0
note_on channel=0 note=47 velocity=61 time=0
note_on channel=0 note=47 velocity=0 time=0
note_on channel=0 note=83 velocity=0 time=0
note_on channel=0 note=71 velocity=0 time=0
note_on channel=0 note=72 velocity=78 time=0
note_on channel=0 note=84 velocity=92 time=0
note_on channel=0 note=48 velocity=68 time=0
note_on channel=0 note=48 velocity=0 time=240
note_on channel=0 note=84 velocity=0 time=0
note_on channel=0 note=72 velocity=0 time=0
note_on channel=0 note=57 velocity=75 time=240
note_on channel=0 note=69 velocity=89 time=0
note_on channel=0 note=33 velocity=69 time=0
note_on channel=0 note=33 velocity=0 time=240
note_on channel=0 note=69 velocity=0 time=0
note_on channel=0 note=57 velocity=0 time=0
note_on channel=0 note=73 velocity=95 time=0
note_on channel=0 note=85 velocity=95 time=0
note_on channel=0 note=49 velocity=79 time=0
note_on channel=0 note=49 velocity=0 time=16
note_on channel=0 note=85 velocity=0 time=0
note_on channel=0 note=86 velocity=75 time=0
note_on channel=0 note=50 velocity=56 time=0
note_on channel=0 note=50 velocity=0 time=20
note_on channel=0 note=86 velocity=0 time=0
note_on channel=0 note=85 velocity=82 time=0
note_on channel=0 note=49 velocity=61 time=0
note_on channel=0 note=49 velocity=0 time=24
note_on channel=0 note=85 velocity=0 time=0
note_on channel=0 note=86 velocity=72 time=0
note_on channel=0 note=50 velocity=53 time=0
note_on channel=0 note=50 velocity=0 time=3
note_on channel=0 note=86 velocity=0 time=0
note_on channel=0 note=85 velocity=79 time=0
note_on channel=0 note=49 velocity=59 time=0
note_on channel=0 note=49 velocity=0 time=7
note_on channel=0 note=85 velocity=0 time=0
note_on channel=0 note=86 velocity=71 time=0
note_on channel=0 note=50 velocity=52 time=0
note_on channel=0 note=50 velocity=0 time=80
note_on channel=0 note=86 velocity=0 time=0
note_on channel=0 note=85 velocity=76 time=0
note_on channel=0 note=49 velocity=57 time=0
note_on channel=0 note=49 velocity=0 time=80
note_on channel=0 note=85 velocity=0 time=0
note_on channel=0 note=86 velocity=69 time=0
note_on channel=0 note=50 velocity=52 time=0
note_on channel=0 note=50 velocity=0 time=80
note_on channel=0 note=86 velocity=0 time=0
note_on channel=0 note=85 velocity=73 time=0
note_on channel=0 note=49 velocity=55 time=0
note_on channel=0 note=49 velocity=0 time=24
note_on channel=0 note=85 velocity=0 time=0
note_on channel=0 note=86 velocity=67 time=0
note_on channel=0 note=50 velocity=50 time=0
note_on channel=0 note=50 velocity=0 time=8
note_on channel=0 note=86 velocity=0 time=0
note_on channel=0 note=85 velocity=74 time=0
note_on channel=0 note=49 velocity=58 time=0
note_on channel=0 note=49 velocity=0 time=18
note_on channel=0 note=85 velocity=0 time=0
note_on channel=0 note=83 velocity=66 time=0
note_on channel=0 note=47 velocity=54 time=0
note_on channel=0 note=47 velocity=0 time=2
note_on channel=0 note=83 velocity=0 time=0
note_on channel=0 note=85 velocity=79 time=0
note_on channel=0 note=49 velocity=61 time=0
note_on channel=0 note=49 velocity=0 time=0
note_on channel=0 note=85 velocity=0 time=0
note_on channel=0 note=73 velocity=0 time=0
note_on channel=0 note=74 velocity=78 time=0
note_on channel=0 note=86 velocity=92 time=0
note_on channel=0 note=50 velocity=68 time=0
note_on channel=0 note=50 velocity=0 time=240
note_on channel=0 note=86 velocity=0 time=0
note_on channel=0 note=74 velocity=0 time=0
note_on channel=0 note=58 velocity=75 time=240
note_on channel=0 note=70 velocity=89 time=0
note_on channel=0 note=34 velocity=69 time=0
note_on channel=0 note=34 velocity=0 time=240
note_on channel=0 note=70 velocity=0 time=0
note_on channel=0 note=58 velocity=0 time=0
note_on channel=0 note=74 velocity=95 time=0
note_on channel=0 note=86 velocity=95 time=0
note_on channel=0 note=50 velocity=79 time=0
note_on channel=0 note=50 velocity=0 time=16
note_on channel=0 note=86 velocity=0 time=0
note_on channel=0 note=87 velocity=75 time=0
note_on channel=0 note=51 velocity=56 time=0
note_on channel=0 note=51 velocity=0 time=20
note_on channel=0 note=87 velocity=0 time=0
note_on channel=0 note=86 velocity=82 time=0
note_on channel=0 note=50 velocity=61 time=0
note_on channel=0 note=50 velocity=0 time=24
note_on channel=0 note=86 velocity=0 time=0
note_on channel=0 note=87 velocity=72 time=0
note_on channel=0 note=51 velocity=53 time=0
note_on channel=0 note=51 velocity=0 time=3
note_on channel=0 note=87 velocity=0 time=0
note_on channel=0 note=86 velocity=79 time=0
note_on channel=0 note=50 velocity=59 time=0
note_on channel=0 note=50 velocity=0 time=7
note_on channel=0 note=86 velocity=0 time=0
note_on channel=0 note=87 velocity=71 time=0
note_on channel=0 note=51 velocity=52 time=0
note_on channel=0 note=51 velocity=0 time=80
note_on channel=0 note=87 velocity=0 time=0
note_on channel=0 note=86 velocity=76 time=0
note_on channel=0 note=50 velocity=57 time=0
note_on channel=0 note=50 velocity=0 time=80
note_on channel=0 note=86 velocity=0 time=0
note_on channel=0 note=87 velocity=69 time=0
note_on channel=0 note=51 velocity=52 time=0
note_on channel=0 note=51 velocity=0 time=80
note_on channel=0 note=87 velocity=0 time=0
note_on channel=0 note=86 velocity=73 time=0
note_on channel=0 note=50 velocity=55 time=0
note_on channel=0 note=50 velocity=0 time=24
note_on channel=0 note=86 velocity=0 time=0
note_on channel=0 note=87 velocity=70 time=0
note_on channel=0 note=51 velocity=50 time=0
note_on channel=0 note=51 velocity=0 time=8
note_on channel=0 note=87 velocity=0 time=0
note_on channel=0 note=86 velocity=78 time=0
note_on channel=0 note=50 velocity=58 time=0
note_on channel=0 note=50 velocity=0 time=18
note_on channel=0 note=86 velocity=0 time=0
note_on channel=0 note=84 velocity=73 time=0
note_on channel=0 note=48 velocity=53 time=0
note_on channel=0 note=48 velocity=0 time=2
note_on channel=0 note=84 velocity=0 time=0
note_on channel=0 note=86 velocity=81 time=0
note_on channel=0 note=50 velocity=54 time=0
note_on channel=0 note=50 velocity=0 time=0
note_on channel=0 note=86 velocity=0 time=0
note_on channel=0 note=74 velocity=0 time=0
note_on channel=0 note=75 velocity=78 time=0
note_on channel=0 note=87 velocity=92 time=0
note_on channel=0 note=51 velocity=68 time=0
note_on channel=0 note=51 velocity=0 time=240
note_on channel=0 note=87 velocity=0 time=0
note_on channel=0 note=75 velocity=0 time=0
note_on channel=0 note=60 velocity=75 time=240
note_on channel=0 note=72 velocity=89 time=0
note_on channel=0 note=36 velocity=69 time=0
note_on channel=0 note=36 velocity=0 time=240
note_on channel=0 note=72 velocity=0 time=0
note_on channel=0 note=60 velocity=0 time=0
note_on channel=0 note=76 velocity=95 time=0
note_on channel=0 note=88 velocity=95 time=0
note_on channel=0 note=52 velocity=79 time=0
note_on channel=0 note=52 velocity=0 time=16
note_on channel=0 note=88 velocity=0 time=0
note_on channel=0 note=89 velocity=75 time=0
note_on channel=0 note=53 velocity=56 time=0
note_on channel=0 note=53 velocity=0 time=20
note_on channel=0 note=89 velocity=0 time=0
note_on channel=0 note=88 velocity=82 time=0
note_on channel=0 note=52 velocity=61 time=0
note_on channel=0 note=52 velocity=0 time=24
note_on channel=0 note=88 velocity=0 time=0
note_on channel=0 note=89 velocity=72 time=0
note_on channel=0 note=53 velocity=53 time=0
note_on channel=0 note=53 velocity=0 time=3
note_on channel=0 note=89 velocity=0 time=0
note_on channel=0 note=88 velocity=79 time=0
note_on channel=0 note=52 velocity=59 time=0
note_on channel=0 note=52 velocity=0 time=7
note_on channel=0 note=88 velocity=0 time=0
note_on channel=0 note=89 velocity=71 time=0
note_on channel=0 note=53 velocity=52 time=0
note_on channel=0 note=53 velocity=0 time=80
note_on channel=0 note=89 velocity=0 time=0
note_on channel=0 note=88 velocity=76 time=0
note_on channel=0 note=52 velocity=57 time=0
note_on channel=0 note=52 velocity=0 time=80
note_on channel=0 note=88 velocity=0 time=0
note_on channel=0 note=89 velocity=69 time=0
note_on channel=0 note=53 velocity=52 time=0
note_on channel=0 note=53 velocity=0 time=80
note_on channel=0 note=89 velocity=0 time=0
note_on channel=0 note=88 velocity=73 time=0
note_on channel=0 note=52 velocity=55 time=0
note_on channel=0 note=52 velocity=0 time=24
note_on channel=0 note=88 velocity=0 time=0
note_on channel=0 note=89 velocity=67 time=0
note_on channel=0 note=53 velocity=50 time=0
note_on channel=0 note=53 velocity=0 time=8
note_on channel=0 note=89 velocity=0 time=0
note_on channel=0 note=88 velocity=76 time=0
note_on channel=0 note=52 velocity=56 time=0
note_on channel=0 note=52 velocity=0 time=18
note_on channel=0 note=88 velocity=0 time=0
note_on channel=0 note=86 velocity=70 time=0
note_on channel=0 note=50 velocity=54 time=0
note_on channel=0 note=50 velocity=0 time=2
note_on channel=0 note=86 velocity=0 time=0
note_on channel=0 note=88 velocity=79 time=0
note_on channel=0 note=52 velocity=59 time=0
note_on channel=0 note=52 velocity=0 time=0
note_on channel=0 note=88 velocity=0 time=0
note_on channel=0 note=76 velocity=0 time=0
note_on channel=0 note=77 velocity=78 time=0
note_on channel=0 note=89 velocity=92 time=0
note_on channel=0 note=53 velocity=68 time=0
note_on channel=0 note=53 velocity=0 time=240
note_on channel=0 note=89 velocity=0 time=0
note_on channel=0 note=77 velocity=0 time=0
note_on channel=0 note=62 velocity=75 time=240
note_on channel=0 note=74 velocity=89 time=0
note_on channel=0 note=38 velocity=69 time=0
note_on channel=0 note=38 velocity=0 time=240
note_on channel=0 note=74 velocity=0 time=0
note_on channel=0 note=62 velocity=0 time=0
note_on channel=0 note=78 velocity=95 time=0
note_on channel=0 note=90 velocity=95 time=0
note_on channel=0 note=54 velocity=79 time=0
note_on channel=0 note=54 velocity=0 time=16
note_on channel=0 note=90 velocity=0 time=0
note_on channel=0 note=91 velocity=75 time=0
note_on channel=0 note=55 velocity=56 time=0
note_on channel=0 note=55 velocity=0 time=20
note_on channel=0 note=91 velocity=0 time=0
note_on channel=0 note=90 velocity=82 time=0
note_on channel=0 note=54 velocity=61 time=0
note_on channel=0 note=54 velocity=0 time=24
note_on channel=0 note=90 velocity=0 time=0
note_on channel=0 note=91 velocity=72 time=0
note_on channel=0 note=55 velocity=53 time=0
note_on channel=0 note=55 velocity=0 time=3
note_on channel=0 note=91 velocity=0 time=0
note_on channel=0 note=90 velocity=79 time=0
note_on channel=0 note=54 velocity=59 time=0
note_on channel=0 note=54 velocity=0 time=7
note_on channel=0 note=90 velocity=0 time=0
note_on channel=0 note=91 velocity=71 time=0
note_on channel=0 note=55 velocity=52 time=0
note_on channel=0 note=55 velocity=0 time=80
note_on channel=0 note=91 velocity=0 time=0
note_on channel=0 note=90 velocity=76 time=0
note_on channel=0 note=54 velocity=57 time=0
note_on channel=0 note=54 velocity=0 time=80
note_on channel=0 note=90 velocity=0 time=0
note_on channel=0 note=91 velocity=69 time=0
note_on channel=0 note=55 velocity=52 time=0
note_on channel=0 note=55 velocity=0 time=80
note_on channel=0 note=91 velocity=0 time=0
note_on channel=0 note=90 velocity=73 time=0
note_on channel=0 note=54 velocity=55 time=0
note_on channel=0 note=54 velocity=0 time=24
note_on channel=0 note=90 velocity=0 time=0
note_on channel=0 note=91 velocity=67 time=0
note_on channel=0 note=55 velocity=50 time=0
note_on channel=0 note=55 velocity=0 time=8
note_on channel=0 note=91 velocity=0 time=0
note_on channel=0 note=90 velocity=77 time=0
note_on channel=0 note=54 velocity=54 time=0
note_on channel=0 note=54 velocity=0 time=18
note_on channel=0 note=90 velocity=0 time=0
note_on channel=0 note=88 velocity=74 time=0
note_on channel=0 note=52 velocity=49 time=0
note_on channel=0 note=52 velocity=0 time=2
note_on channel=0 note=88 velocity=0 time=0
note_on channel=0 note=90 velocity=83 time=0
note_on channel=0 note=54 velocity=54 time=0
note_on channel=0 note=54 velocity=0 time=0
note_on channel=0 note=90 velocity=0 time=0
note_on channel=0 note=78 velocity=0 time=0
note_on channel=0 note=79 velocity=78 time=0
note_on channel=0 note=91 velocity=92 time=0
note_on channel=0 note=55 velocity=68 time=0
note_on channel=0 note=55 velocity=0 time=240
note_on channel=0 note=91 velocity=0 time=0
note_on channel=0 note=79 velocity=0 time=0
note_on channel=0 note=63 velocity=75 time=240
note_on channel=0 note=75 velocity=89 time=0
note_on channel=0 note=39 velocity=69 time=0
note_on channel=0 note=39 velocity=0 time=240
note_on channel=0 note=75 velocity=0 time=0
note_on channel=0 note=63 velocity=0 time=0
note_on channel=0 note=93 velocity=89 time=240
note_on channel=0 note=89 velocity=75 time=0
note_on channel=0 note=87 velocity=75 time=0
note_on channel=0 note=84 velocity=75 time=0
note_on channel=0 note=81 velocity=75 time=0
note_on channel=0 note=65 velocity=84 time=0
note_on channel=0 note=63 velocity=71 time=0
note_on channel=0 note=60 velocity=71 time=0
note_on channel=0 note=53 velocity=71 time=0
note_on channel=0 note=53 velocity=0 time=564
note_on channel=0 note=84 velocity=0 time=0
note_on channel=0 note=93 velocity=0 time=0
note_on channel=0 note=81 velocity=0 time=0
note_on channel=0 note=89 velocity=0 time=0
note_on channel=0 note=87 velocity=0 time=0
note_on channel=0 note=63 velocity=0 time=0
note_on channel=0 note=65 velocity=0 time=0
note_on channel=0 note=60 velocity=0 time=0
note_on channel=0 note=94 velocity=93 time=226
note_on channel=0 note=89 velocity=78 time=0
note_on channel=0 note=86 velocity=78 time=0
note_on channel=0 note=82 velocity=78 time=0
note_on channel=0 note=46 velocity=73 time=0
note_on channel=0 note=50 velocity=73 time=0
note_on channel=0 note=53 velocity=73 time=0
note_on channel=0 note=58 velocity=87 time=0
note_on channel=0 note=58 velocity=0 time=607
note_on channel=0 note=94 velocity=0 time=0
note_on channel=0 note=46 velocity=0 time=0
note_on channel=0 note=89 velocity=0 time=0
note_on channel=0 note=86 velocity=0 time=0
note_on channel=0 note=82 velocity=0 time=0
note_on channel=0 note=50 velocity=0 time=0
note_on channel=0 note=53 velocity=0 time=0
note_on channel=0 note=81 velocity=89 time=226
note_on channel=0 note=77 velocity=75 time=0
note_on channel=0 note=75 velocity=75 time=0
note_on channel=0 note=72 velocity=75 time=0
note_on channel=0 note=69 velocity=75 time=0
note_on channel=0 note=53 velocity=79 time=0
note_on channel=0 note=51 velocity=67 time=0
note_on channel=0 note=48 velocity=67 time=0
note_on channel=0 note=41 velocity=67 time=0
note_on channel=0 note=41 velocity=0 time=593
note_on channel=0 note=72 velocity=0 time=0
note_on channel=0 note=81 velocity=0 time=0
note_on channel=0 note=69 velocity=0 time=0
note_on channel=0 note=77 velocity=0 time=0
note_on channel=0 note=75 velocity=0 time=0
note_on channel=0 note=51 velocity=0 time=0
note_on channel=0 note=53 velocity=0 time=0
note_on channel=0 note=48 velocity=0 time=0
note_on channel=0 note=82 velocity=94 time=353
note_on channel=0 note=77 velocity=79 time=0
note_on channel=0 note=74 velocity=79 time=0
note_on channel=0 note=70 velocity=79 time=0
note_on channel=0 note=34 velocity=73 time=0
note_on channel=0 note=38 velocity=73 time=0
note_on channel=0 note=41 velocity=73 time=0
note_on channel=0 note=46 velocity=87 time=0
note_on channel=0 note=46 velocity=0 time=1743
note_on channel=0 note=82 velocity=0 time=0
note_on channel=0 note=34 velocity=0 time=0
note_on channel=0 note=77 velocity=0 time=0
note_on channel=0 note=74 velocity=0 time=0
note_on channel=0 note=70 velocity=0 time=0
note_on channel=0 note=38 velocity=0 time=0
note_on channel=0 note=41 velocity=0 time=0
