note_on channel=0 note=34 velocity=96 time=0
note_on channel=0 note=34 velocity=0 time=0
note_on channel=0 note=62 velocity=93 time=0
note_on channel=0 note=53 velocity=78 time=0
note_on channel=0 note=58 velocity=78 time=0
note_on channel=0 note=58 velocity=0 time=360
note_on channel=0 note=53 velocity=0 time=0
note_on channel=0 note=62 velocity=0 time=0
note_on channel=0 note=74 velocity=88 time=0
note_on channel=0 note=77 velocity=88 time=0
note_on channel=0 note=82 velocity=88 time=0
note_on channel=0 note=86 velocity=105 time=0
note_on channel=0 note=53 velocity=69 time=0
note_on channel=0 note=62 velocity=84 time=0
note_on channel=0 note=58 velocity=69 time=0
note_on channel=0 note=58 velocity=0 time=120
note_on channel=0 note=53 velocity=0 time=0
note_on channel=0 note=77 velocity=0 time=0
note_on channel=0 note=82 velocity=0 time=0
note_on channel=0 note=74 velocity=0 time=0
note_on channel=0 note=62 velocity=0 time=0
note_on channel=0 note=86 velocity=0 time=0
note_on channel=0 note=77 velocity=79 time=0
note_on channel=0 note=82 velocity=79 time=0
note_on channel=0 note=74 velocity=79 time=0
note_on channel=0 note=86 velocity=94 time=0
note_on channel=0 note=62 velocity=93 time=0
note_on channel=0 note=58 velocity=78 time=0
note_on channel=0 note=53 velocity=78 time=0
note_on channel=0 note=53 velocity=0 time=180
note_on channel=0 note=62 velocity=0 time=0
note_on channel=0 note=82 velocity=0 time=0
note_on channel=0 note=74 velocity=0 time=0
note_on channel=0 note=77 velocity=0 time=0
note_on channel=0 note=58 velocity=0 time=0
note_on channel=0 note=86 velocity=0 time=0
note_on channel=0 note=74 velocity=80 time=60
note_on channel=0 note=87 velocity=100 time=0
note_on channel=0 note=77 velocity=80 time=0
note_on channel=0 note=82 velocity=80 time=0
note_on channel=0 note=62 velocity=88 time=0
note_on channel=0 note=58 velocity=75 time=0
note_on channel=0 note=53 velocity=75 time=0
note_on channel=0 note=53 velocity=0 time=45
note_on channel=0 note=62 velocity=0 time=0
note_on channel=0 note=87 velocity=0 time=0
note_on channel=0 note=77 velocity=0 time=0
note_on channel=0 note=74 velocity=0 time=0
note_on channel=0 note=58 velocity=0 time=0
note_on channel=0 note=82 velocity=0 time=0
note_on channel=0 note=86 velocity=97 time=0
note_on channel=0 note=74 velocity=82 time=0
note_on channel=0 note=82 velocity=82 time=0
note_on channel=0 note=77 velocity=82 time=0
note_on channel=0 note=58 velocity=78 time=0
note_on channel=0 note=62 velocity=93 time=0
note_on channel=0 note=53 velocity=78 time=0
note_on channel=0 note=53 velocity=0 time=45
note_on channel=0 note=58 velocity=0 time=0
note_on channel=0 note=74 velocity=0 time=0
note_on channel=0 note=82 velocity=0 time=0
note_on channel=0 note=86 velocity=0 time=0
note_on channel=0 note=62 velocity=0 time=0
note_on channel=0 note=77 velocity=0 time=0
note_on channel=0 note=77 velocity=88 time=0
note_on channel=0 note=74 velocity=88 time=0
note_on channel=0 note=82 velocity=88 time=0
note_on channel=0 note=86 velocity=105 time=0
note_on channel=0 note=62 velocity=93 time=0
note_on channel=0 note=53 velocity=78 time=0
note_on channel=0 note=58 velocity=78 time=0
note_on channel=0 note=58 velocity=0 time=14
note_on channel=0 note=62 velocity=0 time=0
note_on channel=0 note=74 velocity=0 time=0
note_on channel=0 note=82 velocity=0 time=0
note_on channel=0 note=77 velocity=0 time=0
note_on channel=0 note=53 velocity=0 time=0
note_on channel=0 note=86 velocity=0 time=0
note_on channel=0 note=74 velocity=80 time=120
note_on channel=0 note=70 velocity=80 time=0
note_on channel=0 note=77 velocity=80 time=0
note_on channel=0 note=82 velocity=96 time=0
note_on channel=0 note=53 velocity=78 time=0
note_on channel=0 note=50 velocity=78 time=0
note_on channel=0 note=58 velocity=93 time=0
note_on channel=0 note=58 velocity=0 time=120
note_on channel=0 note=53 velocity=0 time=0
note_on channel=0 note=70 velocity=0 time=0
note_on channel=0 note=77 velocity=0 time=0
note_on channel=0 note=74 velocity=0 time=0
note_on channel=0 note=50 velocity=0 time=0
note_on channel=0 note=82 velocity=0 time=0
note_on channel=0 note=34 velocity=96 time=0
note_on channel=0 note=34 velocity=0 time=0
note_on channel=0 note=58 velocity=78 time=0
note_on channel=0 note=53 velocity=78 time=0
note_on channel=0 note=62 velocity=78 time=0
note_on channel=0 note=65 velocity=93 time=0
note_on channel=0 note=65 velocity=0 time=360
note_on channel=0 note=58 velocity=0 time=0
note_on channel=0 note=53 velocity=0 time=0
note_on channel=0 note=62 velocity=0 time=0
note_on channel=0 note=82 velocity=88 time=0
note_on channel=0 note=86 velocity=88 time=0
note_on channel=0 note=77 velocity=88 time=0
note_on channel=0 note=89 velocity=105 time=0
note_on channel=0 note=58 velocity=69 time=0
note_on channel=0 note=53 velocity=69 time=0
note_on channel=0 note=62 velocity=69 time=0
note_on channel=0 note=65 velocity=84 time=0
note_on channel=0 note=65 velocity=0 time=120
note_on channel=0 note=82 velocity=0 time=0
note_on channel=0 note=58 velocity=0 time=0
note_on channel=0 note=86 velocity=0 time=0
note_on channel=0 note=77 velocity=0 time=0
note_on channel=0 note=89 velocity=0 time=0
note_on channel=0 note=53 velocity=0 time=0
note_on channel=0 note=62 velocity=0 time=0
note_on channel=0 note=77 velocity=79 time=0
note_on channel=0 note=82 velocity=79 time=0
note_on channel=0 note=86 velocity=79 time=0
note_on channel=0 note=89 velocity=94 time=0
note_on channel=0 note=58 velocity=78 time=0
note_on channel=0 note=65 velocity=93 time=0
note_on channel=0 note=62 velocity=78 time=0
note_on channel=0 note=53 velocity=78 time=0
note_on channel=0 note=53 velocity=0 time=180
note_on channel=0 note=77 velocity=0 time=0
note_on channel=0 note=58 velocity=0 time=0
note_on channel=0 note=82 velocity=0 time=0
note_on channel=0 note=86 velocity=0 time=0
note_on channel=0 note=89 velocity=0 time=0
note_on channel=0 note=65 velocity=0 time=0
note_on channel=0 note=62 velocity=0 time=0
note_on channel=0 note=82 velocity=80 time=60
note_on channel=0 note=86 velocity=80 time=0
note_on channel=0 note=91 velocity=100 time=0
note_on channel=0 note=77 velocity=80 time=0
note_on channel=0 note=62 velocity=75 time=0
note_on channel=0 note=58 velocity=75 time=0
note_on channel=0 note=65 velocity=88 time=0
note_on channel=0 note=53 velocity=75 time=0
note_on channel=0 note=53 velocity=0 time=45
note_on channel=0 note=82 velocity=0 time=0
note_on channel=0 note=62 velocity=0 time=0
note_on channel=0 note=86 velocity=0 time=0
note_on channel=0 note=91 velocity=0 time=0
note_on channel=0 note=77 velocity=0 time=0
note_on channel=0 note=58 velocity=0 time=0
note_on channel=0 note=65 velocity=0 time=0
note_on channel=0 note=77 velocity=82 time=0
note_on channel=0 note=82 velocity=82 time=0
note_on channel=0 note=89 velocity=97 time=0
note_on channel=0 note=86 velocity=82 time=0
note_on channel=0 note=62 velocity=78 time=0
note_on channel=0 note=58 velocity=78 time=0
note_on channel=0 note=65 velocity=93 time=0
note_on channel=0 note=53 velocity=78 time=0
note_on channel=0 note=53 velocity=0 time=45
note_on channel=0 note=77 velocity=0 time=0
note_on channel=0 note=62 velocity=0 time=0
note_on channel=0 note=82 velocity=0 time=0
note_on channel=0 note=89 velocity=0 time=0
note_on channel=0 note=86 velocity=0 time=0
note_on channel=0 note=58 velocity=0 time=0
note_on channel=0 note=65 velocity=0 time=0
note_on channel=0 note=89 velocity=105 time=0
note_on channel=0 note=77 velocity=88 time=0
note_on channel=0 note=82 velocity=88 time=0
note_on channel=0 note=86 velocity=88 time=0
note_on channel=0 note=58 velocity=78 time=0
note_on channel=0 note=65 velocity=93 time=0
note_on channel=0 note=53 velocity=78 time=0
note_on channel=0 note=62 velocity=78 time=0
note_on channel=0 note=62 velocity=0 time=14
note_on channel=0 note=89 velocity=0 time=0
note_on channel=0 note=58 velocity=0 time=0
note_on channel=0 note=77 velocity=0 time=0
note_on channel=0 note=82 velocity=0 time=0
note_on channel=0 note=86 velocity=0 time=0
note_on channel=0 note=65 velocity=0 time=0
note_on channel=0 note=53 velocity=0 time=0
note_on channel=0 note=74 velocity=80 time=120
note_on channel=0 note=77 velocity=80 time=0
note_on channel=0 note=82 velocity=80 time=0
note_on channel=0 note=86 velocity=96 time=0
note_on channel=0 note=58 velocity=78 time=0
note_on channel=0 note=62 velocity=93 time=0
note_on channel=0 note=53 velocity=78 time=0
note_on channel=0 note=53 velocity=0 time=120
note_on channel=0 note=58 velocity=0 time=0
note_on channel=0 note=77 velocity=0 time=0
note_on channel=0 note=82 velocity=0 time=0
note_on channel=0 note=74 velocity=0 time=0
note_on channel=0 note=62 velocity=0 time=0
note_on channel=0 note=86 velocity=0 time=0
note_on channel=0 note=70 velocity=50 time=247
note_on channel=0 note=70 velocity=0 time=120
note_on channel=0 note=72 velocity=45 time=0
note_on channel=0 note=72 velocity=0 time=0
note_on channel=0 note=74 velocity=50 time=0
note_on channel=0 note=67 velocity=39 time=0
note_on channel=0 note=64 velocity=29 time=0
note_on channel=0 note=64 velocity=0 time=42
note_on channel=0 note=67 velocity=0 time=0
note_on channel=0 note=74 velocity=0 time=0
note_on channel=0 note=69 velocity=33 time=0
note_on channel=0 note=72 velocity=39 time=0
note_on channel=0 note=65 velocity=29 time=0
note_on channel=0 note=65 velocity=0 time=176
note_on channel=0 note=72 velocity=0 time=0
note_on channel=0 note=69 velocity=0 time=0
note_on channel=0 note=68 velocity=42 time=0
note_on channel=0 note=72 velocity=50 time=0
note_on channel=0 note=59 velocity=40 time=0
note_on channel=0 note=72 velocity=0 time=113
note_on channel=0 note=74 velocity=46 time=0
note_on channel=0 note=74 velocity=0 time=0
note_on channel=0 note=59 velocity=0 time=0
note_on channel=0 note=68 velocity=0 time=0
note_on channel=0 note=75 velocity=55 time=0
note_on channel=0 note=67 velocity=46 time=0
note_on channel=0 note=60 velocity=40 time=0
note_on channel=0 note=60 velocity=0 time=0
note_on channel=0 note=67 velocity=0 time=0
note_on channel=0 note=69 velocity=45 time=0
note_on channel=0 note=54 velocity=36 time=0
note_on channel=0 note=54 velocity=0 time=0
note_on channel=0 note=69 velocity=0 time=0
note_on channel=0 note=75 velocity=0 time=0
note_on channel=0 note=70 velocity=38 time=0
note_on channel=0 note=74 velocity=45 time=0
note_on channel=0 note=55 velocity=36 time=0
note_on channel=0 note=55 velocity=0 time=0
note_on channel=0 note=74 velocity=0 time=0
note_on channel=0 note=70 velocity=0 time=0
note_on channel=0 note=67 velocity=39 time=0
note_on channel=0 note=74 velocity=47 time=0
note_on channel=0 note=51 velocity=40 time=0
note_on channel=0 note=74 velocity=0 time=120
note_on channel=0 note=75 velocity=50 time=0
note_on channel=0 note=75 velocity=0 time=0
note_on channel=0 note=51 velocity=0 time=0
note_on channel=0 note=67 velocity=0 time=0
note_on channel=0 note=65 velocity=45 time=0
note_on channel=0 note=77 velocity=54 time=0
note_on channel=0 note=50 velocity=40 time=0
note_on channel=0 note=50 velocity=0 time=0
note_on channel=0 note=65 velocity=0 time=0
note_on channel=0 note=70 velocity=45 time=0
note_on channel=0 note=49 velocity=35 time=0
note_on channel=0 note=77 velocity=0 time=111
note_on channel=0 note=79 velocity=52 time=0
note_on channel=0 note=79 velocity=0 time=120
note_on channel=0 note=49 velocity=0 time=0
note_on channel=0 note=70 velocity=0 time=0
note_on channel=0 note=67 velocity=42 time=0
note_on channel=0 note=77 velocity=50 time=0
note_on channel=0 note=48 velocity=35 time=0
note_on channel=0 note=77 velocity=0 time=0
note_on channel=0 note=75 velocity=43 time=0
note_on channel=0 note=48 velocity=0 time=0
note_on channel=0 note=67 velocity=0 time=0
note_on channel=0 note=69 velocity=43 time=0
note_on channel=0 note=41 velocity=40 time=0
note_on channel=0 note=75 velocity=0 time=120
note_on channel=0 note=77 velocity=45 time=0
note_on channel=0 note=77 velocity=0 time=0
note_on channel=0 note=41 velocity=0 time=0
note_on channel=0 note=69 velocity=0 time=0
note_on channel=0 note=70 velocity=35 time=0
note_on channel=0 note=65 velocity=35 time=0
note_on channel=0 note=75 velocity=49 time=0
note_on channel=0 note=46 velocity=38 time=0
note_on channel=0 note=75 velocity=0 time=0
note_on channel=0 note=74 velocity=41 time=0
note_on channel=0 note=74 velocity=0 time=0
note_on channel=0 note=46 velocity=0 time=0
note_on channel=0 note=65 velocity=0 time=0
note_on channel=0 note=70 velocity=0 time=0
note_on channel=0 note=72 velocity=30 time=0
note_on channel=0 note=77 velocity=43 time=0
note_on channel=0 note=67 velocity=30 time=0
note_on channel=0 note=39 velocity=30 time=0
note_on channel=0 note=77 velocity=0 time=0
note_on channel=0 note=75 velocity=37 time=0
note_on channel=0 note=75 velocity=0 time=120
note_on channel=0 note=39 velocity=0 time=0
note_on channel=0 note=67 velocity=0 time=0
note_on channel=0 note=72 velocity=0 time=0
note_on channel=0 note=69 velocity=30 time=0
note_on channel=0 note=72 velocity=35 time=0
note_on channel=0 note=41 velocity=27 time=0
note_on channel=0 note=41 velocity=0 time=0
note_on channel=0 note=72 velocity=0 time=0
note_on channel=0 note=69 velocity=0 time=0
note_on channel=0 note=82 velocity=50 time=0
note_on channel=0 note=82 velocity=0 time=120
note_on channel=0 note=84 velocity=45 time=0
note_on channel=0 note=84 velocity=0 time=0
note_on channel=0 note=86 velocity=50 time=0
note_on channel=0 note=79 velocity=39 time=0
note_on channel=0 note=76 velocity=29 time=0
note_on channel=0 note=76 velocity=0 time=42
note_on channel=0 note=79 velocity=0 time=0
note_on channel=0 note=86 velocity=0 time=0
note_on channel=0 note=81 velocity=33 time=0
note_on channel=0 note=84 velocity=39 time=0
note_on channel=0 note=77 velocity=29 time=0
note_on channel=0 note=77 velocity=0 time=176
note_on channel=0 note=84 velocity=0 time=0
note_on channel=0 note=81 velocity=0 time=0
note_on channel=0 note=84 velocity=50 time=0
note_on channel=0 note=80 velocity=42 time=0
note_on channel=0 note=71 velocity=40 time=0
note_on channel=0 note=84 velocity=0 time=113
note_on channel=0 note=86 velocity=46 time=0
note_on channel=0 note=86 velocity=0 time=0
note_on channel=0 note=71 velocity=0 time=0
note_on channel=0 note=80 velocity=0 time=0
note_on channel=0 note=79 velocity=46 time=0
note_on channel=0 note=87 velocity=55 time=0
note_on channel=0 note=72 velocity=40 time=0
note_on channel=0 note=72 velocity=0 time=0
note_on channel=0 note=79 velocity=0 time=0
note_on channel=0 note=81 velocity=45 time=0
note_on channel=0 note=66 velocity=36 time=0
note_on channel=0 note=66 velocity=0 time=0
note_on channel=0 note=81 velocity=0 time=0
note_on channel=0 note=87 velocity=0 time=0
note_on channel=0 note=86 velocity=45 time=0
note_on channel=0 note=82 velocity=38 time=0
note_on channel=0 note=67 velocity=36 time=0
note_on channel=0 note=67 velocity=0 time=0
note_on channel=0 note=82 velocity=0 time=0
note_on channel=0 note=86 velocity=0 time=0
note_on channel=0 note=79 velocity=39 time=0
note_on channel=0 note=86 velocity=51 time=0
note_on channel=0 note=63 velocity=40 time=0
note_on channel=0 note=86 velocity=0 time=120
note_on channel=0 note=87 velocity=55 time=0
note_on channel=0 note=87 velocity=0 time=0
note_on channel=0 note=63 velocity=0 time=0
note_on channel=0 note=79 velocity=0 time=0
note_on channel=0 note=89 velocity=59 time=0
note_on channel=0 note=77 velocity=45 time=0
note_on channel=0 note=62 velocity=40 time=0
note_on channel=0 note=62 velocity=0 time=0
note_on channel=0 note=77 velocity=0 time=0
note_on channel=0 note=82 velocity=45 time=0
note_on channel=0 note=61 velocity=35 time=0
note_on channel=0 note=89 velocity=0 time=111
note_on channel=0 note=91 velocity=57 time=0
note_on channel=0 note=91 velocity=0 time=120
note_on channel=0 note=61 velocity=0 time=0
note_on channel=0 note=82 velocity=0 time=0
note_on channel=0 note=89 velocity=55 time=0
note_on channel=0 note=79 velocity=42 time=0
note_on channel=0 note=60 velocity=35 time=0
note_on channel=0 note=89 velocity=0 time=0
note_on channel=0 note=87 velocity=47 time=0
note_on channel=0 note=60 velocity=0 time=0
note_on channel=0 note=79 velocity=0 time=0
note_on channel=0 note=81 velocity=43 time=0
note_on channel=0 note=53 velocity=40 time=0
note_on channel=0 note=87 velocity=0 time=120
note_on channel=0 note=89 velocity=50 time=0
note_on channel=0 note=89 velocity=0 time=0
note_on channel=0 note=53 velocity=0 time=0
note_on channel=0 note=81 velocity=0 time=0
note_on channel=0 note=87 velocity=57 time=0
note_on channel=0 note=77 velocity=44 time=0
note_on channel=0 note=58 velocity=36 time=0
note_on channel=0 note=87 velocity=0 time=0
note_on channel=0 note=86 velocity=49 time=0
note_on channel=0 note=58 velocity=0 time=0
note_on channel=0 note=77 velocity=0 time=0
note_on channel=0 note=82 velocity=46 time=0
note_on channel=0 note=54 velocity=43 time=0
note_on channel=0 note=86 velocity=0 time=120
note_on channel=0 note=87 velocity=53 time=0
note_on channel=0 note=87 velocity=0 time=0
note_on channel=0 note=54 velocity=0 time=0
note_on channel=0 note=86 velocity=60 time=0
note_on channel=0 note=53 velocity=44 time=0
note_on channel=0 note=86 velocity=0 time=42
note_on channel=0 note=84 velocity=49 time=0
note_on channel=0 note=84 velocity=0 time=120
note_on channel=0 note=53 velocity=0 time=0
note_on channel=0 note=82 velocity=0 time=0
note_on channel=0 note=86 velocity=55 time=0
note_on channel=0 note=81 velocity=47 time=0
note_on channel=0 note=77 velocity=47 time=0
note_on channel=0 note=51 velocity=45 time=0
note_on channel=0 note=86 velocity=0 time=120
note_on channel=0 note=87 velocity=51 time=0
note_on channel=0 note=87 velocity=0 time=0
note_on channel=0 note=51 velocity=0 time=0
note_on channel=0 note=77 velocity=0 time=0
note_on channel=0 note=81 velocity=0 time=0
note_on channel=0 note=77 velocity=52 time=0
note_on channel=0 note=91 velocity=67 time=0
note_on channel=0 note=82 velocity=52 time=0
note_on channel=0 note=50 velocity=46 time=0
note_on channel=0 note=91 velocity=0 time=120
note_on channel=0 note=89 velocity=53 time=0
note_on channel=0 note=89 velocity=0 time=120
note_on channel=0 note=50 velocity=0 time=0
note_on channel=0 note=82 velocity=0 time=0
note_on channel=0 note=77 velocity=0 time=0
note_on channel=0 note=91 velocity=58 time=0
note_on channel=0 note=82 velocity=41 time=0
note_on channel=0 note=49 velocity=47 time=0
note_on channel=0 note=91 velocity=0 time=0
note_on channel=0 note=89 velocity=59 time=0
note_on channel=0 note=89 velocity=0 time=0
note_on channel=0 note=49 velocity=0 time=0
note_on channel=0 note=82 velocity=0 time=0
note_on channel=0 note=89 velocity=69 time=0
note_on channel=0 note=79 velocity=53 time=0
note_on channel=0 note=48 velocity=48 time=0
note_on channel=0 note=89 velocity=0 time=14
note_on channel=0 note=87 velocity=55 time=0
note_on channel=0 note=87 velocity=0 time=120
note_on channel=0 note=48 velocity=0 time=0
note_on channel=0 note=79 velocity=0 time=0
note_on channel=0 note=81 velocity=43 time=0
note_on channel=0 note=89 velocity=61 time=0
note_on channel=0 note=41 velocity=50 time=0
note_on channel=0 note=89 velocity=0 time=0
note_on channel=0 note=87 velocity=56 time=0
note_on channel=0 note=87 velocity=0 time=0
note_on channel=0 note=41 velocity=0 time=0
note_on channel=0 note=81 velocity=0 time=0
note_on channel=0 note=87 velocity=74 time=0
note_on channel=0 note=77 velocity=57 time=0
note_on channel=0 note=46 velocity=50 time=0
note_on channel=0 note=87 velocity=0 time=21
note_on channel=0 note=86 velocity=57 time=0
note_on channel=0 note=86 velocity=0 time=120
note_on channel=0 note=46 velocity=0 time=0
note_on channel=0 note=77 velocity=0 time=0
note_on channel=0 note=87 velocity=63 time=0
note_on channel=0 note=82 velocity=45 time=0
note_on channel=0 note=42 velocity=52 time=0
note_on channel=0 note=87 velocity=0 time=0
note_on channel=0 note=86 velocity=58 time=0
note_on channel=0 note=86 velocity=0 time=117
note_on channel=0 note=42 velocity=0 time=0
note_on channel=0 note=86 velocity=75 time=0
note_on channel=0 note=41 velocity=53 time=0
note_on channel=0 note=86 velocity=0 time=28
note_on channel=0 note=84 velocity=61 time=0
note_on channel=0 note=84 velocity=0 time=120
note_on channel=0 note=41 velocity=0 time=0
note_on channel=0 note=82 velocity=0 time=0
note_on channel=0 note=86 velocity=67 time=0
note_on channel=0 note=77 velocity=47 time=0
note_on channel=0 note=81 velocity=47 time=0
note_on channel=0 note=39 velocity=54 time=0
note_on channel=0 note=86 velocity=0 time=0
note_on channel=0 note=87 velocity=70 time=0
note_on channel=0 note=87 velocity=0 time=0
note_on channel=0 note=39 velocity=0 time=0
note_on channel=0 note=81 velocity=0 time=0
note_on channel=0 note=77 velocity=0 time=0
note_on channel=0 note=91 velocity=69 time=0
note_on channel=0 note=77 velocity=58 time=0
note_on channel=0 note=82 velocity=58 time=0
note_on channel=0 note=38 velocity=55 time=0
note_on channel=0 note=91 velocity=0 time=28
note_on channel=0 note=89 velocity=70 time=0
note_on channel=0 note=89 velocity=0 time=120
note_on channel=0 note=38 velocity=0 time=0
note_on channel=0 note=82 velocity=0 time=0
note_on channel=0 note=77 velocity=0 time=0
note_on channel=0 note=82 velocity=60 time=0
note_on channel=0 note=88 velocity=76 time=0
note_on channel=0 note=37 velocity=56 time=0
note_on channel=0 note=91 velocity=72 time=0
note_on channel=0 note=37 velocity=0 time=0
note_on channel=0 note=82 velocity=0 time=0
note_on channel=0 note=88 velocity=0 time=0
note_on channel=0 note=87 velocity=67 time=0
note_on channel=0 note=36 velocity=57 time=0
note_on channel=0 note=91 velocity=0 time=23
note_on channel=0 note=92 velocity=74 time=0
note_on channel=0 note=36 velocity=0 time=120
note_on channel=0 note=87 velocity=0 time=0
note_on channel=0 note=84 velocity=64 time=0
note_on channel=0 note=87 velocity=76 time=0
note_on channel=0 note=30 velocity=58 time=0
note_on channel=0 note=92 velocity=0 time=0
note_on channel=0 note=93 velocity=77 time=0
note_on channel=0 note=93 velocity=0 time=0
note_on channel=0 note=30 velocity=0 time=0
note_on channel=0 note=87 velocity=0 time=0
note_on channel=0 note=84 velocity=0 time=0
note_on channel=0 note=82 velocity=73 time=0
note_on channel=0 note=96 velocity=86 time=0
note_on channel=0 note=86 velocity=73 time=0
note_on channel=0 note=31 velocity=67 time=0
note_on channel=0 note=96 velocity=0 time=14
note_on channel=0 note=94 velocity=72 time=0
note_on channel=0 note=94 velocity=0 time=120
note_on channel=0 note=31 velocity=0 time=0
note_on channel=0 note=86 velocity=0 time=0
note_on channel=0 note=82 velocity=0 time=0
note_on channel=0 note=82 velocity=71 time=0
note_on channel=0 note=93 velocity=84 time=0
note_on channel=0 note=87 velocity=71 time=0
note_on channel=0 note=39 velocity=61 time=0
note_on channel=0 note=93 velocity=0 time=0
note_on channel=0 note=91 velocity=74 time=0
note_on channel=0 note=91 velocity=0 time=0
note_on channel=0 note=39 velocity=0 time=0
note_on channel=0 note=87 velocity=0 time=0
note_on channel=0 note=82 velocity=0 time=0
note_on channel=0 note=89 velocity=86 time=0
note_on channel=0 note=86 velocity=72 time=0
note_on channel=0 note=82 velocity=72 time=0
note_on channel=0 note=41 velocity=70 time=0
note_on channel=0 note=41 velocity=0 time=108
note_on channel=0 note=89 velocity=0 time=0
note_on channel=0 note=86 velocity=0 time=0
note_on channel=0 note=82 velocity=0 time=0
note_on channel=0 note=89 velocity=80 time=120
note_on channel=0 note=93 velocity=80 time=0
note_on channel=0 note=84 velocity=67 time=0
note_on channel=0 note=81 velocity=67 time=0
note_on channel=0 note=29 velocity=66 time=0
note_on channel=0 note=41 velocity=66 time=0
note_on channel=0 note=41 velocity=0 time=120
note_on channel=0 note=93 velocity=0 time=0
note_on channel=0 note=84 velocity=0 time=0
note_on channel=0 note=89 velocity=0 time=0
note_on channel=0 note=29 velocity=0 time=0
note_on channel=0 note=81 velocity=0 time=0
note_on channel=0 note=82 velocity=85 time=0
note_on channel=0 note=89 velocity=85 time=0
note_on channel=0 note=86 velocity=85 time=0
note_on channel=0 note=94 velocity=101 time=0
note_on channel=0 note=46 velocity=68 time=0
note_on channel=0 note=34 velocity=57 time=0
note_on channel=0 note=34 velocity=0 time=35
note_on channel=0 note=46 velocity=0 time=0
note_on channel=0 note=53 velocity=47 time=0
note_on channel=0 note=58 velocity=47 time=0
note_on channel=0 note=62 velocity=56 time=0
note_on channel=0 note=62 velocity=0 time=120
note_on channel=0 note=53 velocity=0 time=0
note_on channel=0 note=58 velocity=0 time=0
note_on channel=0 note=62 velocity=56 time=0
note_on channel=0 note=58 velocity=47 time=0
note_on channel=0 note=53 velocity=47 time=0
note_on channel=0 note=53 velocity=0 time=120
note_on channel=0 note=62 velocity=0 time=0
note_on channel=0 note=58 velocity=0 time=0
note_on channel=0 note=53 velocity=47 time=0
note_on channel=0 note=62 velocity=56 time=0
note_on channel=0 note=58 velocity=47 time=0
note_on channel=0 note=58 velocity=0 time=120
note_on channel=0 note=53 velocity=0 time=0
note_on channel=0 note=89 velocity=0 time=0
note_on channel=0 note=94 velocity=0 time=0
note_on channel=0 note=82 velocity=0 time=0
note_on channel=0 note=62 velocity=0 time=0
note_on channel=0 note=86 velocity=0 time=0
note_on channel=0 note=70 velocity=63 time=0
note_on channel=0 note=82 velocity=75 time=0
note_on channel=0 note=74 velocity=63 time=0
note_on channel=0 note=62 velocity=53 time=120
note_on channel=0 note=53 velocity=45 time=0
note_on channel=0 note=58 velocity=45 time=0
note_on channel=0 note=58 velocity=0 time=120
note_on channel=0 note=62 velocity=0 time=0
note_on channel=0 note=53 velocity=0 time=0
note_on channel=0 note=58 velocity=45 time=0
note_on channel=0 note=53 velocity=45 time=0
note_on channel=0 note=62 velocity=54 time=0
note_on channel=0 note=62 velocity=0 time=0
note_on channel=0 note=58 velocity=0 time=0
note_on channel=0 note=53 velocity=0 time=0
note_on channel=0 note=58 velocity=45 time=0
note_on channel=0 note=53 velocity=45 time=0
note_on channel=0 note=62 velocity=54 time=0
note_on channel=0 note=62 velocity=0 time=0
note_on channel=0 note=70 velocity=0 time=0
note_on channel=0 note=82 velocity=0 time=0
note_on channel=0 note=74 velocity=0 time=0
note_on channel=0 note=53 velocity=0 time=0
note_on channel=0 note=58 velocity=0 time=0
note_on channel=0 note=77 velocity=50 time=0
note_on channel=0 note=86 velocity=59 time=0
note_on channel=0 note=74 velocity=50 time=0
note_on channel=0 note=74 velocity=0 time=32
note_on channel=0 note=86 velocity=0 time=0
note_on channel=0 note=77 velocity=0 time=0
note_on channel=0 note=53 velocity=37 time=60
note_on channel=0 note=58 velocity=37 time=0
note_on channel=0 note=62 velocity=44 time=0
note_on channel=0 note=62 velocity=0 time=60
note_on channel=0 note=58 velocity=0 time=0
note_on channel=0 note=53 velocity=0 time=0
note_on channel=0 note=82 velocity=61 time=60
note_on channel=0 note=74 velocity=51 time=0
note_on channel=0 note=70 velocity=51 time=0
note_on channel=0 note=70 velocity=0 time=60
note_on channel=0 note=74 velocity=0 time=0
note_on channel=0 note=82 velocity=0 time=0
note_on channel=0 note=58 velocity=44 time=60
note_on channel=0 note=50 velocity=37 time=0
note_on channel=0 note=50 velocity=0 time=60
note_on channel=0 note=58 velocity=0 time=0
note_on channel=0 note=74 velocity=51 time=0
note_on channel=0 note=77 velocity=51 time=0
note_on channel=0 note=86 velocity=61 time=0
note_on channel=0 note=86 velocity=0 time=60
note_on channel=0 note=77 velocity=0 time=0
note_on channel=0 note=74 velocity=0 time=0
note_on channel=0 note=53 velocity=37 time=60
note_on channel=0 note=58 velocity=37 time=0
note_on channel=0 note=62 velocity=44 time=0
note_on channel=0 note=62 velocity=0 time=60
note_on channel=0 note=58 velocity=0 time=0
note_on channel=0 note=53 velocity=0 time=0
note_on channel=0 note=72 velocity=51 time=60
note_on channel=0 note=75 velocity=51 time=0
note_on channel=0 note=84 velocity=61 time=0
note_on channel=0 note=84 velocity=0 time=60
note_on channel=0 note=75 velocity=0 time=0
note_on channel=0 note=72 velocity=0 time=0
note_on channel=0 note=60 velocity=44 time=0
note_on channel=0 note=51 velocity=37 time=0
note_on channel=0 note=58 velocity=37 time=0
note_on channel=0 note=58 velocity=0 time=60
note_on channel=0 note=51 velocity=0 time=0
note_on channel=0 note=60 velocity=0 time=0
note_on channel=0 note=87 velocity=116 time=0
note_on channel=0 note=79 velocity=97 time=0
note_on channel=0 note=75 velocity=97 time=0
note_on channel=0 note=46 velocity=78 time=0
note_on channel=0 note=34 velocity=65 time=0
note_on channel=0 note=34 velocity=0 time=35
note_on channel=0 note=46 velocity=0 time=0
note_on channel=0 note=58 velocity=54 time=0
note_on channel=0 note=63 velocity=64 time=0
note_on channel=0 note=55 velocity=54 time=0
note_on channel=0 note=55 velocity=0 time=120
note_on channel=0 note=58 velocity=0 time=0
note_on channel=0 note=63 velocity=0 time=0
note_on channel=0 note=63 velocity=64 time=0
note_on channel=0 note=55 velocity=54 time=0
note_on channel=0 note=58 velocity=54 time=0
note_on channel=0 note=58 velocity=0 time=120
note_on channel=0 note=63 velocity=0 time=0
note_on channel=0 note=55 velocity=0 time=0
note_on channel=0 note=63 velocity=64 time=0
note_on channel=0 note=58 velocity=54 time=0
note_on channel=0 note=55 velocity=54 time=0
note_on channel=0 note=55 velocity=0 time=120
note_on channel=0 note=75 velocity=0 time=0
note_on channel=0 note=79 velocity=0 time=0
note_on channel=0 note=87 velocity=0 time=0
note_on channel=0 note=58 velocity=0 time=0
note_on channel=0 note=63 velocity=0 time=0
note_on channel=0 note=84 velocity=75 time=0
note_on channel=0 note=75 velocity=63 time=0
note_on channel=0 note=72 velocity=63 time=0
note_on channel=0 note=58 velocity=45 time=120
note_on channel=0 note=60 velocity=53 time=0
note_on channel=0 note=51 velocity=45 time=0
note_on channel=0 note=51 velocity=0 time=120
note_on channel=0 note=58 velocity=0 time=0
note_on channel=0 note=60 velocity=0 time=0
note_on channel=0 note=58 velocity=45 time=0
note_on channel=0 note=60 velocity=54 time=0
note_on channel=0 note=51 velocity=45 time=0
note_on channel=0 note=51 velocity=0 time=0
note_on channel=0 note=58 velocity=0 time=0
note_on channel=0 note=60 velocity=0 time=0
note_on channel=0 note=60 velocity=54 time=0
note_on channel=0 note=58 velocity=45 time=0
note_on channel=0 note=51 velocity=45 time=0
note_on channel=0 note=51 velocity=0 time=0
note_on channel=0 note=84 velocity=0 time=0
note_on channel=0 note=75 velocity=0 time=0
note_on channel=0 note=72 velocity=0 time=0
note_on channel=0 note=58 velocity=0 time=0
note_on channel=0 note=60 velocity=0 time=0
note_on channel=0 note=87 velocity=59 time=0
note_on channel=0 note=75 velocity=50 time=0
note_on channel=0 note=79 velocity=50 time=0
note_on channel=0 note=79 velocity=0 time=32
note_on channel=0 note=75 velocity=0 time=0
note_on channel=0 note=87 velocity=0 time=0
note_on channel=0 note=58 velocity=37 time=60
note_on channel=0 note=63 velocity=44 time=0
note_on channel=0 note=55 velocity=37 time=0
note_on channel=0 note=55 velocity=0 time=60
note_on channel=0 note=63 velocity=0 time=0
note_on channel=0 note=58 velocity=0 time=0
note_on channel=0 note=73 velocity=51 time=60
note_on channel=0 note=76 velocity=51 time=0
note_on channel=0 note=85 velocity=61 time=0
note_on channel=0 note=85 velocity=0 time=60
note_on channel=0 note=76 velocity=0 time=0
note_on channel=0 note=73 velocity=0 time=0
note_on channel=0 note=52 velocity=37 time=60
note_on channel=0 note=58 velocity=37 time=0
note_on channel=0 note=61 velocity=44 time=0
note_on channel=0 note=61 velocity=0 time=60
note_on channel=0 note=58 velocity=0 time=0
note_on channel=0 note=52 velocity=0 time=0
note_on channel=0 note=78 velocity=51 time=0
note_on channel=0 note=87 velocity=61 time=0
note_on channel=0 note=75 velocity=51 time=0
note_on channel=0 note=75 velocity=0 time=60
note_on channel=0 note=87 velocity=0 time=0
note_on channel=0 note=78 velocity=0 time=0
note_on channel=0 note=54 velocity=37 time=60
note_on channel=0 note=63 velocity=44 time=0
note_on channel=0 note=58 velocity=37 time=0
note_on channel=0 note=58 velocity=0 time=60
note_on channel=0 note=63 velocity=0 time=0
note_on channel=0 note=54 velocity=0 time=0
note_on channel=0 note=77 velocity=51 time=60
note_on channel=0 note=74 velocity=51 time=0
note_on channel=0 note=86 velocity=61 time=0
note_on channel=0 note=86 velocity=0 time=60
note_on channel=0 note=74 velocity=0 time=0
note_on channel=0 note=77 velocity=0 time=0
note_on channel=0 note=62 velocity=44 time=0
note_on channel=0 note=53 velocity=37 time=0
note_on channel=0 note=58 velocity=37 time=0
note_on channel=0 note=58 velocity=0 time=60
note_on channel=0 note=53 velocity=0 time=0
note_on channel=0 note=62 velocity=0 time=0
note_on channel=0 note=89 velocity=111 time=0
note_on channel=0 note=80 velocity=93 time=0
note_on channel=0 note=77 velocity=93 time=0
note_on channel=0 note=46 velocity=74 time=0
note_on channel=0 note=34 velocity=62 time=0
note_on channel=0 note=34 velocity=0 time=35
note_on channel=0 note=46 velocity=0 time=0
note_on channel=0 note=58 velocity=51 time=0
note_on channel=0 note=56 velocity=51 time=0
note_on channel=0 note=65 velocity=61 time=0
note_on channel=0 note=65 velocity=0 time=120
note_on channel=0 note=58 velocity=0 time=0
note_on channel=0 note=56 velocity=0 time=0
note_on channel=0 note=65 velocity=61 time=0
note_on channel=0 note=56 velocity=51 time=0
note_on channel=0 note=58 velocity=51 time=0
note_on channel=0 note=58 velocity=0 time=120
note_on channel=0 note=65 velocity=0 time=0
note_on channel=0 note=56 velocity=0 time=0
note_on channel=0 note=65 velocity=61 time=0
note_on channel=0 note=56 velocity=51 time=0
note_on channel=0 note=58 velocity=51 time=0
note_on channel=0 note=58 velocity=0 time=120
note_on channel=0 note=77 velocity=0 time=0
note_on channel=0 note=80 velocity=0 time=0
note_on channel=0 note=89 velocity=0 time=0
note_on channel=0 note=56 velocity=0 time=0
note_on channel=0 note=65 velocity=0 time=0
note_on channel=0 note=86 velocity=75 time=0
note_on channel=0 note=74 velocity=63 time=0
note_on channel=0 note=77 velocity=63 time=0
note_on channel=0 note=58 velocity=45 time=120
note_on channel=0 note=53 velocity=45 time=0
note_on channel=0 note=62 velocity=53 time=0
note_on channel=0 note=62 velocity=0 time=120
note_on channel=0 note=58 velocity=0 time=0
note_on channel=0 note=53 velocity=0 time=0
note_on channel=0 note=62 velocity=54 time=0
note_on channel=0 note=58 velocity=45 time=0
note_on channel=0 note=53 velocity=45 time=0
note_on channel=0 note=53 velocity=0 time=0
note_on channel=0 note=62 velocity=0 time=0
note_on channel=0 note=58 velocity=0 time=0
note_on channel=0 note=58 velocity=45 time=0
note_on channel=0 note=62 velocity=54 time=0
note_on channel=0 note=53 velocity=45 time=0
note_on channel=0 note=53 velocity=0 time=0
note_on channel=0 note=86 velocity=0 time=0
note_on channel=0 note=74 velocity=0 time=0
note_on channel=0 note=77 velocity=0 time=0
note_on channel=0 note=62 velocity=0 time=0
note_on channel=0 note=58 velocity=0 time=0
note_on channel=0 note=80 velocity=50 time=0
note_on channel=0 note=77 velocity=50 time=0
note_on channel=0 note=89 velocity=59 time=0
note_on channel=0 note=89 velocity=0 time=32
note_on channel=0 note=77 velocity=0 time=0
note_on channel=0 note=80 velocity=0 time=0
note_on channel=0 note=58 velocity=37 time=60
note_on channel=0 note=65 velocity=44 time=0
note_on channel=0 note=56 velocity=37 time=0
note_on channel=0 note=56 velocity=0 time=60
note_on channel=0 note=65 velocity=0 time=0
note_on channel=0 note=58 velocity=0 time=0
note_on channel=0 note=74 velocity=51 time=60
note_on channel=0 note=78 velocity=51 time=0
note_on channel=0 note=86 velocity=61 time=0
note_on channel=0 note=86 velocity=0 time=60
note_on channel=0 note=78 velocity=0 time=0
note_on channel=0 note=74 velocity=0 time=0
note_on channel=0 note=58 velocity=37 time=60
note_on channel=0 note=54 velocity=37 time=0
note_on channel=0 note=62 velocity=44 time=0
note_on channel=0 note=62 velocity=0 time=60
note_on channel=0 note=54 velocity=0 time=0
note_on channel=0 note=58 velocity=0 time=0
note_on channel=0 note=80 velocity=51 time=0
note_on channel=0 note=89 velocity=61 time=0
note_on channel=0 note=77 velocity=51 time=0
note_on channel=0 note=77 velocity=0 time=60
note_on channel=0 note=89 velocity=0 time=0
note_on channel=0 note=80 velocity=0 time=0
note_on channel=0 note=58 velocity=37 time=60
note_on channel=0 note=65 velocity=44 time=0
note_on channel=0 note=56 velocity=37 time=0
note_on channel=0 note=56 velocity=0 time=60
note_on channel=0 note=65 velocity=0 time=0
note_on channel=0 note=58 velocity=0 time=0
note_on channel=0 note=79 velocity=51 time=60
note_on channel=0 note=75 velocity=51 time=0
note_on channel=0 note=87 velocity=61 time=0
note_on channel=0 note=87 velocity=0 time=60
note_on channel=0 note=75 velocity=0 time=0
note_on channel=0 note=79 velocity=0 time=0
note_on channel=0 note=58 velocity=37 time=0
note_on channel=0 note=63 velocity=44 time=0
note_on channel=0 note=55 velocity=37 time=0
note_on channel=0 note=55 velocity=0 time=60
note_on channel=0 note=63 velocity=0 time=0
note_on channel=0 note=58 velocity=0 time=0
note_on channel=0 note=91 velocity=111 time=0
note_on channel=0 note=79 velocity=93 time=0
note_on channel=0 note=82 velocity=93 time=0
note_on channel=0 note=46 velocity=74 time=0
note_on channel=0 note=34 velocity=62 time=0
note_on channel=0 note=34 velocity=0 time=35
note_on channel=0 note=46 velocity=0 time=0
note_on channel=0 note=63 velocity=51 time=0
note_on channel=0 note=67 velocity=61 time=0
note_on channel=0 note=58 velocity=51 time=0
note_on channel=0 note=58 velocity=0 time=120
note_on channel=0 note=63 velocity=0 time=0
note_on channel=0 note=67 velocity=0 time=0
note_on channel=0 note=67 velocity=61 time=0
note_on channel=0 note=58 velocity=51 time=0
note_on channel=0 note=63 velocity=51 time=0
note_on channel=0 note=63 velocity=0 time=120
note_on channel=0 note=67 velocity=0 time=0
note_on channel=0 note=58 velocity=0 time=0
note_on channel=0 note=67 velocity=61 time=0
note_on channel=0 note=58 velocity=51 time=0
note_on channel=0 note=63 velocity=51 time=0
note_on channel=0 note=63 velocity=0 time=120
note_on channel=0 note=82 velocity=0 time=0
note_on channel=0 note=79 velocity=0 time=0
note_on channel=0 note=91 velocity=0 time=0
note_on channel=0 note=58 velocity=0 time=0
note_on channel=0 note=67 velocity=0 time=0
note_on channel=0 note=87 velocity=75 time=0
note_on channel=0 note=79 velocity=63 time=0
note_on channel=0 note=75 velocity=63 time=0
note_on channel=0 note=82 velocity=63 time=0
note_on channel=0 note=58 velocity=45 time=120
note_on channel=0 note=63 velocity=53 time=0
note_on channel=0 note=55 velocity=45 time=0
note_on channel=0 note=55 velocity=0 time=120
note_on channel=0 note=58 velocity=0 time=0
note_on channel=0 note=63 velocity=0 time=0
note_on channel=0 note=63 velocity=54 time=0
note_on channel=0 note=58 velocity=45 time=0
note_on channel=0 note=55 velocity=45 time=0
note_on channel=0 note=55 velocity=0 time=0
note_on channel=0 note=63 velocity=0 time=0
note_on channel=0 note=58 velocity=0 time=0
note_on channel=0 note=58 velocity=45 time=0
note_on channel=0 note=63 velocity=54 time=0
note_on channel=0 note=55 velocity=45 time=0
note_on channel=0 note=55 velocity=0 time=0
note_on channel=0 note=58 velocity=0 time=0
note_on channel=0 note=79 velocity=0 time=0
note_on channel=0 note=75 velocity=0 time=0
note_on channel=0 note=87 velocity=0 time=0
note_on channel=0 note=63 velocity=0 time=0
note_on channel=0 note=82 velocity=0 time=0
note_on channel=0 note=79 velocity=50 time=0
note_on channel=0 note=91 velocity=59 time=0
note_on channel=0 note=82 velocity=50 time=0
note_on channel=0 note=82 velocity=0 time=32
note_on channel=0 note=91 velocity=0 time=0
note_on channel=0 note=79 velocity=0 time=0
note_on channel=0 note=58 velocity=33 time=60
note_on channel=0 note=67 velocity=39 time=0
note_on channel=0 note=63 velocity=33 time=0
note_on channel=0 note=63 velocity=0 time=60
note_on channel=0 note=67 velocity=0 time=0
note_on channel=0 note=58 velocity=0 time=0
note_on channel=0 note=76 velocity=51 time=60
note_on channel=0 note=82 velocity=51 time=0
note_on channel=0 note=88 velocity=61 time=0
note_on channel=0 note=88 velocity=0 time=60
note_on channel=0 note=82 velocity=0 time=0
note_on channel=0 note=76 velocity=0 time=0
note_on channel=0 note=64 velocity=39 time=60
note_on channel=0 note=58 velocity=33 time=0
note_on channel=0 note=61 velocity=33 time=0
note_on channel=0 note=61 velocity=0 time=60
note_on channel=0 note=58 velocity=0 time=0
note_on channel=0 note=64 velocity=0 time=0
note_on channel=0 note=82 velocity=56 time=0
note_on channel=0 note=78 velocity=56 time=0
note_on channel=0 note=90 velocity=67 time=0
note_on channel=0 note=90 velocity=0 time=60
note_on channel=0 note=78 velocity=0 time=0
note_on channel=0 note=82 velocity=0 time=0
note_on channel=0 note=63 velocity=36 time=60
note_on channel=0 note=58 velocity=36 time=0
note_on channel=0 note=66 velocity=44 time=0
note_on channel=0 note=66 velocity=0 time=60
note_on channel=0 note=58 velocity=0 time=0
note_on channel=0 note=63 velocity=0 time=0
note_on channel=0 note=89 velocity=69 time=60
note_on channel=0 note=82 velocity=58 time=0
note_on channel=0 note=77 velocity=58 time=0
note_on channel=0 note=77 velocity=0 time=60
note_on channel=0 note=82 velocity=0 time=0
note_on channel=0 note=89 velocity=0 time=0
note_on channel=0 note=62 velocity=37 time=0
note_on channel=0 note=58 velocity=37 time=0
note_on channel=0 note=65 velocity=45 time=0
note_on channel=0 note=65 velocity=0 time=60
note_on channel=0 note=58 velocity=0 time=0
note_on channel=0 note=62 velocity=0 time=0
note_on channel=0 note=92 velocity=69 time=0
note_on channel=0 note=82 velocity=59 time=0
note_on channel=0 note=80 velocity=59 time=0
note_on channel=0 note=80 velocity=0 time=60
note_on channel=0 note=82 velocity=0 time=0
note_on channel=0 note=92 velocity=0 time=0
note_on channel=0 note=58 velocity=39 time=60
note_on channel=0 note=65 velocity=39 time=0
note_on channel=0 note=68 velocity=46 time=0
note_on channel=0 note=68 velocity=0 time=60
note_on channel=0 note=65 velocity=0 time=0
note_on channel=0 note=58 velocity=0 time=0
note_on channel=0 note=78 velocity=62 time=60
note_on channel=0 note=90 velocity=74 time=0
note_on channel=0 note=82 velocity=62 time=0
note_on channel=0 note=82 velocity=0 time=60
note_on channel=0 note=90 velocity=0 time=0
note_on channel=0 note=78 velocity=0 time=0
note_on channel=0 note=58 velocity=40 time=60
note_on channel=0 note=66 velocity=48 time=0
note_on channel=0 note=62 velocity=40 time=0
note_on channel=0 note=62 velocity=0 time=60
note_on channel=0 note=66 velocity=0 time=0
note_on channel=0 note=58 velocity=0 time=0
note_on channel=0 note=92 velocity=76 time=0
note_on channel=0 note=82 velocity=64 time=0
note_on channel=0 note=80 velocity=64 time=0
note_on channel=0 note=80 velocity=0 time=60
note_on channel=0 note=82 velocity=0 time=0
note_on channel=0 note=92 velocity=0 time=0
note_on channel=0 note=68 velocity=50 time=60
note_on channel=0 note=65 velocity=42 time=0
note_on channel=0 note=58 velocity=42 time=0
note_on channel=0 note=58 velocity=0 time=60
note_on channel=0 note=65 velocity=0 time=0
note_on channel=0 note=68 velocity=0 time=0
note_on channel=0 note=82 velocity=66 time=60
note_on channel=0 note=91 velocity=79 time=0
note_on channel=0 note=79 velocity=66 time=0
note_on channel=0 note=79 velocity=0 time=60
note_on channel=0 note=91 velocity=0 time=0
note_on channel=0 note=82 velocity=0 time=0
note_on channel=0 note=58 velocity=43 time=0
note_on channel=0 note=67 velocity=52 time=0
note_on channel=0 note=63 velocity=43 time=0
note_on channel=0 note=63 velocity=0 time=60
note_on channel=0 note=67 velocity=0 time=0
note_on channel=0 note=58 velocity=0 time=0
note_on channel=0 note=82 velocity=67 time=0
note_on channel=0 note=87 velocity=67 time=0
note_on channel=0 note=94 velocity=79 time=0
note_on channel=0 note=91 velocity=67 time=0
note_on channel=0 note=91 velocity=0 time=60
note_on channel=0 note=82 velocity=0 time=0
note_on channel=0 note=87 velocity=0 time=0
note_on channel=0 note=94 velocity=0 time=0
note_on channel=0 note=60 velocity=45 time=60
note_on channel=0 note=67 velocity=53 time=0
note_on channel=0 note=63 velocity=45 time=0
note_on channel=0 note=58 velocity=45 time=0
note_on channel=0 note=58 velocity=0 time=60
note_on channel=0 note=60 velocity=0 time=0
note_on channel=0 note=67 velocity=0 time=0
note_on channel=0 note=63 velocity=0 time=0
note_on channel=0 note=80 velocity=70 time=60
note_on channel=0 note=92 velocity=84 time=0
note_on channel=0 note=92 velocity=0 time=60
note_on channel=0 note=80 velocity=0 time=0
note_on channel=0 note=68 velocity=54 time=60
note_on channel=0 note=58 velocity=45 time=0
note_on channel=0 note=63 velocity=45 time=0
note_on channel=0 note=60 velocity=45 time=0
note_on channel=0 note=60 velocity=0 time=60
note_on channel=0 note=68 velocity=0 time=0
note_on channel=0 note=58 velocity=0 time=0
note_on channel=0 note=63 velocity=0 time=0
note_on channel=0 note=82 velocity=72 time=60
note_on channel=0 note=94 velocity=86 time=0
note_on channel=0 note=94 velocity=0 time=60
note_on channel=0 note=82 velocity=0 time=0
note_on channel=0 note=70 velocity=56 time=60
note_on channel=0 note=58 velocity=47 time=0
note_on channel=0 note=60 velocity=47 time=0
note_on channel=0 note=63 velocity=47 time=0
note_on channel=0 note=63 velocity=0 time=60
note_on channel=0 note=70 velocity=0 time=0
note_on channel=0 note=58 velocity=0 time=0
note_on channel=0 note=60 velocity=0 time=0
note_on channel=0 note=93 velocity=89 time=60
note_on channel=0 note=81 velocity=74 time=0
note_on channel=0 note=81 velocity=0 time=60
note_on channel=0 note=93 velocity=0 time=0
note_on channel=0 note=60 velocity=48 time=0
note_on channel=0 note=63 velocity=48 time=0
note_on channel=0 note=58 velocity=48 time=0
note_on channel=0 note=69 velocity=58 time=0
note_on channel=0 note=69 velocity=0 time=60
note_on channel=0 note=60 velocity=0 time=0
note_on channel=0 note=63 velocity=0 time=0
note_on channel=0 note=58 velocity=0 time=0
note_on channel=0 note=84 velocity=84 time=0
note_on channel=0 note=96 velocity=99 time=0
note_on channel=0 note=96 velocity=0 time=120
note_on channel=0 note=84 velocity=0 time=0
note_on channel=0 note=72 velocity=66 time=0
note_on channel=0 note=60 velocity=56 time=0
note_on channel=0 note=60 velocity=0 time=60
note_on channel=0 note=72 velocity=0 time=0
note_on channel=0 note=82 velocity=74 time=21
note_on channel=0 note=94 velocity=88 time=0
note_on channel=0 note=94 velocity=0 time=84
note_on channel=0 note=82 velocity=0 time=0
note_on channel=0 note=70 velocity=66 time=0
note_on channel=0 note=58 velocity=56 time=0
note_on channel=0 note=58 velocity=0 time=60
note_on channel=0 note=70 velocity=0 time=0
note_on channel=0 note=79 velocity=82 time=60
note_on channel=0 note=91 velocity=97 time=0
note_on channel=0 note=91 velocity=0 time=53
note_on channel=0 note=79 velocity=0 time=0
note_on channel=0 note=55 velocity=56 time=0
note_on channel=0 note=67 velocity=66 time=0
note_on channel=0 note=67 velocity=0 time=60
note_on channel=0 note=55 velocity=0 time=0
note_on channel=0 note=89 velocity=90 time=3
note_on channel=0 note=77 velocity=76 time=0
note_on channel=0 note=77 velocity=0 time=0
note_on channel=0 note=89 velocity=0 time=0
note_on channel=0 note=65 velocity=66 time=0
note_on channel=0 note=53 velocity=56 time=0
note_on channel=0 note=53 velocity=0 time=60
note_on channel=0 note=65 velocity=0 time=0
note_on channel=0 note=87 velocity=97 time=0
note_on channel=0 note=75 velocity=85 time=0
note_on channel=0 note=75 velocity=0 time=81
note_on channel=0 note=87 velocity=0 time=0
note_on channel=0 note=51 velocity=50 time=0
note_on channel=0 note=63 velocity=59 time=0
note_on channel=0 note=63 velocity=0 time=60
note_on channel=0 note=51 velocity=0 time=0
note_on channel=0 note=86 velocity=82 time=60
note_on channel=0 note=74 velocity=69 time=0
note_on channel=0 note=74 velocity=0 time=53
note_on channel=0 note=86 velocity=0 time=0
note_on channel=0 note=62 velocity=59 time=0
note_on channel=0 note=50 velocity=50 time=0
note_on channel=0 note=50 velocity=0 time=60
note_on channel=0 note=62 velocity=0 time=0
note_on channel=0 note=84 velocity=87 time=60
note_on channel=0 note=72 velocity=73 time=0
note_on channel=0 note=72 velocity=0 time=60
note_on channel=0 note=84 velocity=0 time=0
note_on channel=0 note=48 velocity=50 time=0
note_on channel=0 note=60 velocity=59 time=0
note_on channel=0 note=60 velocity=0 time=60
note_on channel=0 note=48 velocity=0 time=0
note_on channel=0 note=70 velocity=68 time=42
note_on channel=0 note=82 velocity=81 time=0
note_on channel=0 note=82 velocity=0 time=0
note_on channel=0 note=70 velocity=0 time=0
note_on channel=0 note=58 velocity=59 time=0
note_on channel=0 note=46 velocity=50 time=0
note_on channel=0 note=46 velocity=0 time=60
note_on channel=0 note=58 velocity=0 time=0
note_on channel=0 note=67 velocity=75 time=0
note_on channel=0 note=79 velocity=89 time=0
note_on channel=0 note=79 velocity=0 time=92
note_on channel=0 note=67 velocity=0 time=0
note_on channel=0 note=55 velocity=59 time=0
note_on channel=0 note=43 velocity=50 time=0
note_on channel=0 note=43 velocity=0 time=60
note_on channel=0 note=55 velocity=0 time=0
note_on channel=0 note=65 velocity=66 time=3
note_on channel=0 note=77 velocity=79 time=0
note_on channel=0 note=77 velocity=0 time=67
note_on channel=0 note=65 velocity=0 time=0
note_on channel=0 note=41 velocity=50 time=0
note_on channel=0 note=53 velocity=59 time=0
note_on channel=0 note=53 velocity=0 time=60
note_on channel=0 note=41 velocity=0 time=0
note_on channel=0 note=75 velocity=82 time=60
note_on channel=0 note=63 velocity=69 time=0
note_on channel=0 note=63 velocity=0 time=56
note_on channel=0 note=75 velocity=0 time=0
note_on channel=0 note=39 velocity=47 time=0
note_on channel=0 note=51 velocity=56 time=0
note_on channel=0 note=51 velocity=0 time=60
note_on channel=0 note=39 velocity=0 time=0
note_on channel=0 note=62 velocity=64 time=14
note_on channel=0 note=74 velocity=76 time=0
note_on channel=0 note=74 velocity=0 time=0
note_on channel=0 note=62 velocity=0 time=0
note_on channel=0 note=50 velocity=56 time=0
note_on channel=0 note=38 velocity=47 time=0
note_on channel=0 note=38 velocity=0 time=60
note_on channel=0 note=50 velocity=0 time=0
note_on channel=0 note=72 velocity=80 time=0
note_on channel=0 note=60 velocity=67 time=0
note_on channel=0 note=60 velocity=0 time=77
note_on channel=0 note=72 velocity=0 time=0
note_on channel=0 note=48 velocity=53 time=0
note_on channel=0 note=36 velocity=45 time=0
note_on channel=0 note=36 velocity=0 time=60
note_on channel=0 note=48 velocity=0 time=0
note_on channel=0 note=70 velocity=71 time=35
note_on channel=0 note=58 velocity=59 time=0
note_on channel=0 note=58 velocity=0 time=74
note_on channel=0 note=70 velocity=0 time=0
note_on channel=0 note=34 velocity=45 time=0
note_on channel=0 note=46 velocity=53 time=0
note_on channel=0 note=46 velocity=0 time=60
note_on channel=0 note=34 velocity=0 time=0
note_on channel=0 note=67 velocity=78 time=39
note_on channel=0 note=55 velocity=65 time=0
note_on channel=0 note=55 velocity=0 time=70
note_on channel=0 note=67 velocity=0 time=0
note_on channel=0 note=31 velocity=45 time=0
note_on channel=0 note=43 velocity=53 time=0
note_on channel=0 note=43 velocity=0 time=60
note_on channel=0 note=31 velocity=0 time=0
note_on channel=0 note=65 velocity=72 time=60
note_on channel=0 note=53 velocity=61 time=0
note_on channel=0 note=53 velocity=0 time=0
note_on channel=0 note=65 velocity=0 time=0
note_on channel=0 note=29 velocity=45 time=0
note_on channel=0 note=41 velocity=53 time=0
note_on channel=0 note=41 velocity=0 time=60
note_on channel=0 note=29 velocity=0 time=0
note_on channel=0 note=69 velocity=77 time=0
note_on channel=0 note=33 velocity=42 time=120
note_on channel=0 note=33 velocity=0 time=120
note_on channel=0 note=69 velocity=0 time=0
note_on channel=0 note=65 velocity=67 time=0
note_on channel=0 note=29 velocity=28 time=0
note_on channel=0 note=29 velocity=0 time=0
note_on channel=0 note=65 velocity=0 time=0
note_on channel=0 note=72 velocity=73 time=0
note_on channel=0 note=36 velocity=39 time=120
note_on channel=0 note=36 velocity=0 time=120
note_on channel=0 note=72 velocity=0 time=0
note_on channel=0 note=65 velocity=67 time=0
note_on channel=0 note=29 velocity=27 time=0
note_on channel=0 note=29 velocity=0 time=0
note_on channel=0 note=65 velocity=0 time=0
note_on channel=0 note=77 velocity=71 time=0
note_on channel=0 note=41 velocity=37 time=120
note_on channel=0 note=41 velocity=0 time=120
note_on channel=0 note=77 velocity=0 time=0
note_on channel=0 note=65 velocity=59 time=0
note_on channel=0 note=29 velocity=26 time=0
note_on channel=0 note=29 velocity=0 time=0
note_on channel=0 note=65 velocity=0 time=0
note_on channel=0 note=81 velocity=68 time=0
note_on channel=0 note=45 velocity=34 time=120
note_on channel=0 note=45 velocity=0 time=120
note_on channel=0 note=81 velocity=0 time=0
note_on channel=0 note=65 velocity=56 time=0
note_on channel=0 note=29 velocity=24 time=0
note_on channel=0 note=29 velocity=0 time=0
note_on channel=0 note=65 velocity=0 time=0
note_on channel=0 note=84 velocity=62 time=0
note_on channel=0 note=48 velocity=32 time=120
note_on channel=0 note=48 velocity=0 time=120
note_on channel=0 note=84 velocity=0 time=0
note_on channel=0 note=65 velocity=49 time=0
note_on channel=0 note=29 velocity=23 time=0
note_on channel=0 note=29 velocity=0 time=0
note_on channel=0 note=65 velocity=0 time=0
note_on channel=0 note=89 velocity=54 time=0
note_on channel=0 note=53 velocity=29 time=120
note_on channel=0 note=53 velocity=0 time=120
note_on channel=0 note=89 velocity=0 time=0
note_on channel=0 note=65 velocity=45 time=0
note_on channel=0 note=29 velocity=24 time=0
note_on channel=0 note=29 velocity=0 time=0
note_on channel=0 note=65 velocity=0 time=0
note_on channel=0 note=89 velocity=52 time=0
note_on channel=0 note=53 velocity=28 time=120
note_on channel=0 note=53 velocity=0 time=0
note_on channel=0 note=89 velocity=0 time=0
note_on channel=0 note=65 velocity=41 time=0
note_on channel=0 note=29 velocity=21 time=0
note_on channel=0 note=29 velocity=0 time=0
note_on channel=0 note=65 velocity=0 time=0
note_on channel=0 note=89 velocity=48 time=0
note_on channel=0 note=53 velocity=21 time=120
note_on channel=0 note=53 velocity=0 time=0
note_on channel=0 note=89 velocity=0 time=0
note_on channel=0 note=34 velocity=77 time=0
note_on channel=0 note=34 velocity=0 time=0
note_on channel=0 note=62 velocity=81 time=0
note_on channel=0 note=53 velocity=68 time=0
note_on channel=0 note=58 velocity=68 time=0
note_on channel=0 note=58 velocity=0 time=360
note_on channel=0 note=53 velocity=0 time=0
note_on channel=0 note=62 velocity=0 time=0
note_on channel=0 note=82 velocity=77 time=0
note_on channel=0 note=86 velocity=92 time=0
note_on channel=0 note=74 velocity=77 time=0
note_on channel=0 note=77 velocity=77 time=0
note_on channel=0 note=62 velocity=73 time=0
note_on channel=0 note=58 velocity=61 time=0
note_on channel=0 note=53 velocity=61 time=0
note_on channel=0 note=53 velocity=0 time=120
note_on channel=0 note=62 velocity=0 time=0
note_on channel=0 note=86 velocity=0 time=0
note_on channel=0 note=74 velocity=0 time=0
note_on channel=0 note=82 velocity=0 time=0
note_on channel=0 note=58 velocity=0 time=0
note_on channel=0 note=77 velocity=0 time=0
note_on channel=0 note=74 velocity=69 time=0
note_on channel=0 note=77 velocity=69 time=0
note_on channel=0 note=86 velocity=82 time=0
note_on channel=0 note=82 velocity=69 time=0
note_on channel=0 note=53 velocity=68 time=0
note_on channel=0 note=58 velocity=68 time=0
note_on channel=0 note=62 velocity=81 time=0
note_on channel=0 note=62 velocity=0 time=240
note_on channel=0 note=53 velocity=0 time=0
note_on channel=0 note=77 velocity=0 time=0
note_on channel=0 note=86 velocity=0 time=0
note_on channel=0 note=74 velocity=0 time=0
note_on channel=0 note=58 velocity=0 time=0
note_on channel=0 note=82 velocity=0 time=0
note_on channel=0 note=74 velocity=70 time=0
note_on channel=0 note=82 velocity=70 time=0
note_on channel=0 note=77 velocity=70 time=0
note_on channel=0 note=87 velocity=89 time=0
note_on channel=0 note=53 velocity=66 time=0
note_on channel=0 note=62 velocity=77 time=0
note_on channel=0 note=58 velocity=66 time=0
note_on channel=0 note=58 velocity=0 time=45
note_on channel=0 note=53 velocity=0 time=0
note_on channel=0 note=82 velocity=0 time=0
note_on channel=0 note=77 velocity=0 time=0
note_on channel=0 note=74 velocity=0 time=0
note_on channel=0 note=62 velocity=0 time=0
note_on channel=0 note=87 velocity=0 time=0
note_on channel=0 note=77 velocity=72 time=0
note_on channel=0 note=74 velocity=72 time=0
note_on channel=0 note=86 velocity=85 time=0
note_on channel=0 note=82 velocity=72 time=0
note_on channel=0 note=53 velocity=68 time=0
note_on channel=0 note=62 velocity=81 time=0
note_on channel=0 note=58 velocity=68 time=0
note_on channel=0 note=58 velocity=0 time=45
note_on channel=0 note=53 velocity=0 time=0
note_on channel=0 note=74 velocity=0 time=0
note_on channel=0 note=86 velocity=0 time=0
note_on channel=0 note=77 velocity=0 time=0
note_on channel=0 note=62 velocity=0 time=0
note_on channel=0 note=82 velocity=0 time=0
note_on channel=0 note=86 velocity=92 time=0
note_on channel=0 note=82 velocity=77 time=0
note_on channel=0 note=77 velocity=77 time=0
note_on channel=0 note=74 velocity=77 time=0
note_on channel=0 note=53 velocity=68 time=0
note_on channel=0 note=62 velocity=81 time=0
note_on channel=0 note=58 velocity=68 time=0
note_on channel=0 note=58 velocity=0 time=14
note_on channel=0 note=53 velocity=0 time=0
note_on channel=0 note=82 velocity=0 time=0
note_on channel=0 note=77 velocity=0 time=0
note_on channel=0 note=86 velocity=0 time=0
note_on channel=0 note=62 velocity=0 time=0
note_on channel=0 note=74 velocity=0 time=0
note_on channel=0 note=70 velocity=70 time=120
note_on channel=0 note=82 velocity=84 time=0
note_on channel=0 note=77 velocity=70 time=0
note_on channel=0 note=74 velocity=70 time=0
note_on channel=0 note=50 velocity=68 time=0
note_on channel=0 note=58 velocity=81 time=0
note_on channel=0 note=53 velocity=68 time=0
note_on channel=0 note=53 velocity=0 time=120
note_on channel=0 note=50 velocity=0 time=0
note_on channel=0 note=82 velocity=0 time=0
note_on channel=0 note=77 velocity=0 time=0
note_on channel=0 note=70 velocity=0 time=0
note_on channel=0 note=58 velocity=0 time=0
note_on channel=0 note=74 velocity=0 time=0
note_on channel=0 note=34 velocity=84 time=0
note_on channel=0 note=34 velocity=0 time=0
note_on channel=0 note=62 velocity=81 time=0
note_on channel=0 note=50 velocity=68 time=0
note_on channel=0 note=58 velocity=68 time=0
note_on channel=0 note=53 velocity=68 time=0
note_on channel=0 note=53 velocity=0 time=360
note_on channel=0 note=62 velocity=0 time=0
note_on channel=0 note=50 velocity=0 time=0
note_on channel=0 note=58 velocity=0 time=0
note_on channel=0 note=82 velocity=77 time=0
note_on channel=0 note=77 velocity=77 time=0
note_on channel=0 note=86 velocity=92 time=0
note_on channel=0 note=58 velocity=61 time=0
note_on channel=0 note=50 velocity=61 time=0
note_on channel=0 note=53 velocity=61 time=0
note_on channel=0 note=62 velocity=73 time=0
note_on channel=0 note=74 velocity=77 time=7
note_on channel=0 note=62 velocity=0 time=113
note_on channel=0 note=58 velocity=0 time=0
note_on channel=0 note=50 velocity=0 time=0
note_on channel=0 note=77 velocity=0 time=0
note_on channel=0 note=86 velocity=0 time=0
note_on channel=0 note=82 velocity=0 time=0
note_on channel=0 note=53 velocity=0 time=0
note_on channel=0 note=74 velocity=82 time=0
note_on channel=0 note=86 velocity=99 time=0
note_on channel=0 note=62 velocity=97 time=0
note_on channel=0 note=50 velocity=81 time=0
note_on channel=0 note=74 velocity=0 time=4
note_on channel=0 note=62 velocity=0 time=114
note_on channel=0 note=74 velocity=0 time=0
note_on channel=0 note=86 velocity=0 time=0
note_on channel=0 note=50 velocity=0 time=0
note_on channel=0 note=78 velocity=70 time=0
note_on channel=0 note=74 velocity=70 time=0
note_on channel=0 note=81 velocity=70 time=0
note_on channel=0 note=86 velocity=84 time=0
note_on channel=0 note=57 velocity=66 time=0
note_on channel=0 note=62 velocity=77 time=0
note_on channel=0 note=50 velocity=66 time=0
note_on channel=0 note=54 velocity=66 time=0
note_on channel=0 note=54 velocity=0 time=45
note_on channel=0 note=78 velocity=0 time=0
note_on channel=0 note=57 velocity=0 time=0
note_on channel=0 note=74 velocity=0 time=0
note_on channel=0 note=81 velocity=0 time=0
note_on channel=0 note=86 velocity=0 time=0
note_on channel=0 note=62 velocity=0 time=0
note_on channel=0 note=50 velocity=0 time=0
note_on channel=0 note=86 velocity=85 time=0
note_on channel=0 note=78 velocity=70 time=0
note_on channel=0 note=74 velocity=72 time=0
note_on channel=0 note=81 velocity=72 time=0
note_on channel=0 note=62 velocity=81 time=0
note_on channel=0 note=54 velocity=68 time=0
note_on channel=0 note=57 velocity=68 time=0
note_on channel=0 note=50 velocity=68 time=0
note_on channel=0 note=50 velocity=0 time=45
note_on channel=0 note=86 velocity=0 time=0
note_on channel=0 note=62 velocity=0 time=0
note_on channel=0 note=78 velocity=0 time=0
note_on channel=0 note=74 velocity=0 time=0
note_on channel=0 note=81 velocity=0 time=0
note_on channel=0 note=54 velocity=0 time=0
note_on channel=0 note=57 velocity=0 time=0
note_on channel=0 note=81 velocity=77 time=0
note_on channel=0 note=74 velocity=77 time=0
note_on channel=0 note=86 velocity=92 time=0
note_on channel=0 note=78 velocity=77 time=0
note_on channel=0 note=57 velocity=68 time=0
note_on channel=0 note=54 velocity=68 time=0
note_on channel=0 note=62 velocity=81 time=0
note_on channel=0 note=50 velocity=68 time=0
note_on channel=0 note=50 velocity=0 time=14
note_on channel=0 note=81 velocity=0 time=0
note_on channel=0 note=57 velocity=0 time=0
note_on channel=0 note=74 velocity=0 time=0
note_on channel=0 note=86 velocity=0 time=0
note_on channel=0 note=78 velocity=0 time=0
note_on channel=0 note=54 velocity=0 time=0
note_on channel=0 note=62 velocity=0 time=0
note_on channel=0 note=81 velocity=70 time=120
note_on channel=0 note=78 velocity=70 time=0
note_on channel=0 note=74 velocity=70 time=0
note_on channel=0 note=86 velocity=84 time=0
note_on channel=0 note=57 velocity=68 time=0
note_on channel=0 note=50 velocity=68 time=0
note_on channel=0 note=54 velocity=68 time=0
note_on channel=0 note=62 velocity=81 time=0
note_on channel=0 note=62 velocity=0 time=120
note_on channel=0 note=81 velocity=0 time=0
note_on channel=0 note=57 velocity=0 time=0
note_on channel=0 note=78 velocity=0 time=0
note_on channel=0 note=74 velocity=0 time=0
note_on channel=0 note=86 velocity=0 time=0
note_on channel=0 note=50 velocity=0 time=0
note_on channel=0 note=54 velocity=0 time=0
note_on channel=0 note=50 velocity=39 time=367
note_on channel=0 note=50 velocity=0 time=0
note_on channel=0 note=62 velocity=45 time=0
note_on channel=0 note=66 velocity=33 time=0
note_on channel=0 note=74 velocity=39 time=0
note_on channel=0 note=69 velocity=33 time=0
note_on channel=0 note=69 velocity=0 time=0
note_on channel=0 note=62 velocity=0 time=0
note_on channel=0 note=66 velocity=0 time=0
note_on channel=0 note=74 velocity=0 time=0
note_on channel=0 note=50 velocity=40 time=0
note_on channel=0 note=50 velocity=0 time=0
note_on channel=0 note=62 velocity=47 time=0
note_on channel=0 note=74 velocity=42 time=0
note_on channel=0 note=69 velocity=35 time=0
note_on channel=0 note=66 velocity=35 time=0
note_on channel=0 note=66 velocity=0 time=0
note_on channel=0 note=62 velocity=0 time=0
note_on channel=0 note=74 velocity=0 time=0
note_on channel=0 note=69 velocity=0 time=0
note_on channel=0 note=50 velocity=42 time=0
note_on channel=0 note=50 velocity=0 time=0
note_on channel=0 note=62 velocity=49 time=0
note_on channel=0 note=69 velocity=37 time=0
note_on channel=0 note=74 velocity=44 time=0
note_on channel=0 note=66 velocity=37 time=0
note_on channel=0 note=66 velocity=0 time=0
note_on channel=0 note=62 velocity=0 time=0
note_on channel=0 note=69 velocity=0 time=0
note_on channel=0 note=74 velocity=0 time=0
note_on channel=0 note=50 velocity=41 time=0
note_on channel=0 note=50 velocity=0 time=0
note_on channel=0 note=62 velocity=52 time=0
note_on channel=0 note=66 velocity=39 time=0
note_on channel=0 note=69 velocity=39 time=0
note_on channel=0 note=74 velocity=46 time=0
note_on channel=0 note=74 velocity=0 time=0
note_on channel=0 note=62 velocity=0 time=0
note_on channel=0 note=66 velocity=0 time=0
note_on channel=0 note=69 velocity=0 time=0
note_on channel=0 note=50 velocity=44 time=0
note_on channel=0 note=50 velocity=0 time=0
note_on channel=0 note=57 velocity=55 time=0
note_on channel=0 note=60 velocity=55 time=0
note_on channel=0 note=74 velocity=41 time=0
note_on channel=0 note=72 velocity=41 time=0
note_on channel=0 note=78 velocity=49 time=0
note_on channel=0 note=69 velocity=41 time=0
note_on channel=0 note=69 velocity=0 time=0
note_on channel=0 note=60 velocity=0 time=0
note_on channel=0 note=74 velocity=0 time=0
note_on channel=0 note=57 velocity=0 time=0
note_on channel=0 note=78 velocity=0 time=0
note_on channel=0 note=72 velocity=0 time=0
note_on channel=0 note=50 velocity=46 time=0
note_on channel=0 note=50 velocity=0 time=0
note_on channel=0 note=60 velocity=58 time=0
note_on channel=0 note=57 velocity=58 time=0
note_on channel=0 note=69 velocity=43 time=0
note_on channel=0 note=74 velocity=43 time=0
note_on channel=0 note=78 velocity=51 time=0
note_on channel=0 note=72 velocity=43 time=0
note_on channel=0 note=72 velocity=0 time=0
note_on channel=0 note=57 velocity=0 time=0
note_on channel=0 note=69 velocity=0 time=0
note_on channel=0 note=60 velocity=0 time=0
note_on channel=0 note=78 velocity=0 time=0
note_on channel=0 note=74 velocity=0 time=0
note_on channel=0 note=50 velocity=50 time=0
note_on channel=0 note=50 velocity=0 time=0
note_on channel=0 note=57 velocity=60 time=0
note_on channel=0 note=54 velocity=60 time=0
note_on channel=0 note=81 velocity=60 time=0
note_on channel=0 note=78 velocity=50 time=0
note_on channel=0 note=72 velocity=50 time=0
note_on channel=0 note=69 velocity=50 time=0
note_on channel=0 note=69 velocity=0 time=0
note_on channel=0 note=54 velocity=0 time=0
note_on channel=0 note=81 velocity=0 time=0
note_on channel=0 note=57 velocity=0 time=0
note_on channel=0 note=72 velocity=0 time=0
note_on channel=0 note=78 velocity=0 time=0
note_on channel=0 note=50 velocity=52 time=0
note_on channel=0 note=50 velocity=0 time=0
note_on channel=0 note=45 velocity=63 time=0
note_on channel=0 note=84 velocity=68 time=0
note_on channel=0 note=78 velocity=57 time=0
note_on channel=0 note=72 velocity=57 time=0
note_on channel=0 note=81 velocity=57 time=0
note_on channel=0 note=81 velocity=0 time=0
note_on channel=0 note=78 velocity=0 time=0
note_on channel=0 note=45 velocity=0 time=0
note_on channel=0 note=84 velocity=0 time=0
note_on channel=0 note=72 velocity=0 time=0
note_on channel=0 note=50 velocity=52 time=0
note_on channel=0 note=50 velocity=0 time=0
note_on channel=0 note=45 velocity=65 time=0
note_on channel=0 note=78 velocity=64 time=0
note_on channel=0 note=84 velocity=64 time=0
note_on channel=0 note=90 velocity=75 time=0
note_on channel=0 note=81 velocity=64 time=0
note_on channel=0 note=81 velocity=0 time=0
note_on channel=0 note=84 velocity=0 time=0
note_on channel=0 note=45 velocity=0 time=0
note_on channel=0 note=78 velocity=0 time=0
note_on channel=0 note=90 velocity=0 time=0
note_on channel=0 note=50 velocity=57 time=0
note_on channel=0 note=50 velocity=0 time=0
note_on channel=0 note=43 velocity=68 time=0
note_on channel=0 note=93 velocity=79 time=0
note_on channel=0 note=84 velocity=66 time=0
note_on channel=0 note=81 velocity=66 time=0
note_on channel=0 note=81 velocity=0 time=0
note_on channel=0 note=43 velocity=0 time=0
note_on channel=0 note=93 velocity=0 time=0
note_on channel=0 note=84 velocity=0 time=0
note_on channel=0 note=50 velocity=57 time=0
note_on channel=0 note=50 velocity=0 time=0
note_on channel=0 note=42 velocity=71 time=0
note_on channel=0 note=84 velocity=69 time=0
note_on channel=0 note=93 velocity=69 time=0
note_on channel=0 note=96 velocity=82 time=0
note_on channel=0 note=96 velocity=0 time=0
note_on channel=0 note=42 velocity=0 time=0
note_on channel=0 note=84 velocity=0 time=0
note_on channel=0 note=93 velocity=0 time=0
note_on channel=0 note=50 velocity=59 time=0
note_on channel=0 note=50 velocity=0 time=0
note_on channel=0 note=39 velocity=73 time=0
note_on channel=0 note=96 velocity=85 time=0
note_on channel=0 note=90 velocity=71 time=0
note_on channel=0 note=84 velocity=71 time=0
note_on channel=0 note=93 velocity=71 time=0
note_on channel=0 note=93 velocity=0 time=120
note_on channel=0 note=90 velocity=0 time=0
note_on channel=0 note=39 velocity=0 time=0
note_on channel=0 note=96 velocity=0 time=0
note_on channel=0 note=84 velocity=0 time=0
note_on channel=0 note=50 velocity=67 time=0
note_on channel=0 note=50 velocity=0 time=0
note_on channel=0 note=93 velocity=71 time=0
note_on channel=0 note=96 velocity=85 time=0
note_on channel=0 note=84 velocity=71 time=0
note_on channel=0 note=90 velocity=71 time=0
note_on channel=0 note=38 velocity=67 time=0
note_on channel=0 note=50 velocity=73 time=0
note_on channel=0 note=90 velocity=0 time=40
note_on channel=0 note=84 velocity=0 time=0
note_on channel=0 note=93 velocity=0 time=0
note_on channel=0 note=96 velocity=0 time=0
note_on channel=0 note=50 velocity=0 time=0
note_on channel=0 note=38 velocity=0 time=0
note_on channel=0 note=84 velocity=57 time=0
note_on channel=0 note=81 velocity=57 time=0
note_on channel=0 note=75 velocity=48 time=0
note_on channel=0 note=75 velocity=0 time=0
note_on channel=0 note=81 velocity=0 time=0
note_on channel=0 note=84 velocity=0 time=0
note_on channel=0 note=83 velocity=57 time=0
note_on channel=0 note=80 velocity=57 time=0
note_on channel=0 note=74 velocity=48 time=0
note_on channel=0 note=74 velocity=0 time=0
note_on channel=0 note=80 velocity=0 time=0
note_on channel=0 note=83 velocity=0 time=0
note_on channel=0 note=84 velocity=63 time=0
note_on channel=0 note=81 velocity=63 time=0
note_on channel=0 note=75 velocity=54 time=0
note_on channel=0 note=75 velocity=0 time=0
note_on channel=0 note=81 velocity=0 time=0
note_on channel=0 note=84 velocity=0 time=0
note_on channel=0 note=66 velocity=52 time=0
note_on channel=0 note=69 velocity=52 time=0
note_on channel=0 note=74 velocity=44 time=0
note_on channel=0 note=74 velocity=0 time=0
note_on channel=0 note=69 velocity=0 time=0
note_on channel=0 note=66 velocity=0 time=0
note_on channel=0 note=70 velocity=52 time=0
note_on channel=0 note=67 velocity=52 time=0
note_on channel=0 note=73 velocity=44 time=0
note_on channel=0 note=73 velocity=0 time=0
note_on channel=0 note=67 velocity=0 time=0
note_on channel=0 note=70 velocity=0 time=0
note_on channel=0 note=69 velocity=58 time=0
note_on channel=0 note=66 velocity=58 time=0
note_on channel=0 note=74 velocity=44 time=0
note_on channel=0 note=74 velocity=0 time=0
note_on channel=0 note=66 velocity=0 time=0
note_on channel=0 note=69 velocity=0 time=0
note_on channel=0 note=81 velocity=47 time=0
note_on channel=0 note=84 velocity=47 time=0
note_on channel=0 note=63 velocity=43 time=0
note_on channel=0 note=63 velocity=0 time=0
note_on channel=0 note=84 velocity=0 time=0
note_on channel=0 note=81 velocity=0 time=0
note_on channel=0 note=83 velocity=47 time=0
note_on channel=0 note=80 velocity=47 time=0
note_on channel=0 note=62 velocity=43 time=0
note_on channel=0 note=62 velocity=0 time=0
note_on channel=0 note=80 velocity=0 time=0
note_on channel=0 note=83 velocity=0 time=0
note_on channel=0 note=84 velocity=56 time=0
note_on channel=0 note=81 velocity=56 time=0
note_on channel=0 note=63 velocity=51 time=0
note_on channel=0 note=63 velocity=0 time=0
note_on channel=0 note=81 velocity=0 time=0
note_on channel=0 note=84 velocity=0 time=0
note_on channel=0 note=90 velocity=47 time=0
note_on channel=0 note=62 velocity=43 time=0
note_on channel=0 note=62 velocity=0 time=85
note_on channel=0 note=90 velocity=0 time=0
note_on channel=0 note=93 velocity=47 time=0
note_on channel=0 note=61 velocity=43 time=0
note_on channel=0 note=61 velocity=0 time=0
note_on channel=0 note=93 velocity=0 time=0
note_on channel=0 note=96 velocity=57 time=0
note_on channel=0 note=62 velocity=51 time=0
note_on channel=0 note=96 velocity=0 time=28
note_on channel=0 note=98 velocity=48 time=0
note_on channel=0 note=98 velocity=0 time=120
note_on channel=0 note=62 velocity=0 time=0
note_on channel=0 note=96 velocity=49 time=0
note_on channel=0 note=96 velocity=0 time=0
note_on channel=0 note=95 velocity=50 time=0
note_on channel=0 note=50 velocity=42 time=0
note_on channel=0 note=50 velocity=0 time=0
note_on channel=0 note=95 velocity=0 time=0
note_on channel=0 note=96 velocity=65 time=0
note_on channel=0 note=54 velocity=51 time=0
note_on channel=0 note=96 velocity=0 time=21
note_on channel=0 note=98 velocity=57 time=0
note_on channel=0 note=98 velocity=0 time=120
note_on channel=0 note=54 velocity=0 time=0
note_on channel=0 note=100 velocity=66 time=0
note_on channel=0 note=100 velocity=0 time=0
note_on channel=0 note=96 velocity=58 time=0
note_on channel=0 note=57 velocity=40 time=0
note_on channel=0 note=57 velocity=0 time=0
note_on channel=0 note=96 velocity=0 time=0
note_on channel=0 note=93 velocity=69 time=0
note_on channel=0 note=60 velocity=51 time=0
note_on channel=0 note=93 velocity=0 time=14
note_on channel=0 note=95 velocity=56 time=0
note_on channel=0 note=95 velocity=0 time=120
note_on channel=0 note=60 velocity=0 time=0
note_on channel=0 note=96 velocity=66 time=0
note_on channel=0 note=96 velocity=0 time=0
note_on channel=0 note=93 velocity=54 time=0
note_on channel=0 note=66 velocity=43 time=0
note_on channel=0 note=66 velocity=0 time=0
note_on channel=0 note=93 velocity=0 time=0
note_on channel=0 note=90 velocity=66 time=0
note_on channel=0 note=69 velocity=51 time=0
note_on channel=0 note=90 velocity=0 time=7
note_on channel=0 note=91 velocity=53 time=0
note_on channel=0 note=91 velocity=0 time=120
note_on channel=0 note=69 velocity=0 time=0
note_on channel=0 note=93 velocity=61 time=0
note_on channel=0 note=72 velocity=45 time=0
note_on channel=0 note=72 velocity=0 time=0
note_on channel=0 note=93 velocity=0 time=0
note_on channel=0 note=90 velocity=53 time=0
note_on channel=0 note=69 velocity=45 time=0
note_on channel=0 note=69 velocity=0 time=0
note_on channel=0 note=90 velocity=0 time=0
note_on channel=0 note=84 velocity=47 time=0
note_on channel=0 note=81 velocity=40 time=0
note_on channel=0 note=81 velocity=0 time=28
note_on channel=0 note=84 velocity=0 time=0
note_on channel=0 note=86 velocity=47 time=0
note_on channel=0 note=83 velocity=40 time=0
note_on channel=0 note=83 velocity=0 time=120
note_on channel=0 note=86 velocity=0 time=0
note_on channel=0 note=88 velocity=58 time=0
note_on channel=0 note=84 velocity=44 time=0
note_on channel=0 note=84 velocity=0 time=0
note_on channel=0 note=88 velocity=0 time=0
note_on channel=0 note=84 velocity=47 time=0
note_on channel=0 note=81 velocity=40 time=0
note_on channel=0 note=81 velocity=0 time=0
note_on channel=0 note=84 velocity=0 time=0
note_on channel=0 note=81 velocity=47 time=0
note_on channel=0 note=72 velocity=40 time=0
note_on channel=0 note=72 velocity=0 time=14
note_on channel=0 note=81 velocity=0 time=0
note_on channel=0 note=83 velocity=47 time=0
note_on channel=0 note=74 velocity=40 time=0
note_on channel=0 note=74 velocity=0 time=120
note_on channel=0 note=83 velocity=0 time=0
note_on channel=0 note=84 velocity=53 time=0
note_on channel=0 note=76 velocity=45 time=0
note_on channel=0 note=76 velocity=0 time=0
note_on channel=0 note=84 velocity=0 time=0
note_on channel=0 note=81 velocity=47 time=0
note_on channel=0 note=72 velocity=40 time=0
note_on channel=0 note=72 velocity=0 time=0
note_on channel=0 note=81 velocity=0 time=0
note_on channel=0 note=78 velocity=47 time=0
note_on channel=0 note=69 velocity=40 time=0
note_on channel=0 note=69 velocity=0 time=14
note_on channel=0 note=78 velocity=0 time=0
note_on channel=0 note=79 velocity=47 time=0
note_on channel=0 note=71 velocity=40 time=0
note_on channel=0 note=71 velocity=0 time=120
note_on channel=0 note=79 velocity=0 time=0
note_on channel=0 note=81 velocity=52 time=0
note_on channel=0 note=72 velocity=45 time=0
note_on channel=0 note=72 velocity=0 time=0
note_on channel=0 note=81 velocity=0 time=0
note_on channel=0 note=78 velocity=47 time=0
note_on channel=0 note=69 velocity=40 time=0
note_on channel=0 note=69 velocity=0 time=118
note_on channel=0 note=78 velocity=0 time=0
note_on channel=0 note=74 velocity=47 time=0
note_on channel=0 note=72 velocity=47 time=0
note_on channel=0 note=69 velocity=47 time=0
note_on channel=0 note=66 velocity=40 time=0
note_on channel=0 note=66 velocity=0 time=7
note_on channel=0 note=67 velocity=40 time=0
note_on channel=0 note=67 velocity=0 time=120
note_on channel=0 note=69 velocity=0 time=0
note_on channel=0 note=72 velocity=0 time=0
note_on channel=0 note=74 velocity=0 time=0
note_on channel=0 note=69 velocity=45 time=0
note_on channel=0 note=69 velocity=0 time=0
note_on channel=0 note=66 velocity=40 time=0
note_on channel=0 note=66 velocity=0 time=0
note_on channel=0 note=95 velocity=57 time=0
note_on channel=0 note=71 velocity=51 time=0
note_on channel=0 note=62 velocity=48 time=0
note_on channel=0 note=67 velocity=48 time=0
note_on channel=0 note=95 velocity=0 time=28
note_on channel=0 note=96 velocity=48 time=0
note_on channel=0 note=96 velocity=0 time=120
note_on channel=0 note=67 velocity=0 time=0
note_on channel=0 note=62 velocity=0 time=0
note_on channel=0 note=71 velocity=0 time=0
note_on channel=0 note=95 velocity=49 time=0
note_on channel=0 note=95 velocity=0 time=0
note_on channel=0 note=93 velocity=50 time=0
note_on channel=0 note=50 velocity=42 time=0
note_on channel=0 note=50 velocity=0 time=0
note_on channel=0 note=93 velocity=0 time=0
note_on channel=0 note=95 velocity=65 time=0
note_on channel=0 note=55 velocity=51 time=0
note_on channel=0 note=95 velocity=0 time=21
note_on channel=0 note=96 velocity=57 time=0
note_on channel=0 note=96 velocity=0 time=120
note_on channel=0 note=55 velocity=0 time=0
note_on channel=0 note=98 velocity=66 time=0
note_on channel=0 note=98 velocity=0 time=0
note_on channel=0 note=95 velocity=58 time=0
note_on channel=0 note=59 velocity=40 time=0
note_on channel=0 note=59 velocity=0 time=0
note_on channel=0 note=95 velocity=0 time=0
note_on channel=0 note=91 velocity=69 time=0
note_on channel=0 note=62 velocity=51 time=0
note_on channel=0 note=91 velocity=0 time=14
note_on channel=0 note=93 velocity=56 time=0
note_on channel=0 note=93 velocity=0 time=120
note_on channel=0 note=62 velocity=0 time=0
note_on channel=0 note=95 velocity=66 time=0
note_on channel=0 note=95 velocity=0 time=0
note_on channel=0 note=91 velocity=54 time=0
note_on channel=0 note=67 velocity=43 time=0
note_on channel=0 note=67 velocity=0 time=0
note_on channel=0 note=91 velocity=0 time=0
note_on channel=0 note=86 velocity=66 time=0
note_on channel=0 note=71 velocity=51 time=0
note_on channel=0 note=86 velocity=0 time=7
note_on channel=0 note=90 velocity=53 time=0
note_on channel=0 note=90 velocity=0 time=120
note_on channel=0 note=71 velocity=0 time=0
note_on channel=0 note=91 velocity=61 time=0
note_on channel=0 note=91 velocity=0 time=0
note_on channel=0 note=86 velocity=53 time=0
note_on channel=0 note=74 velocity=45 time=0
note_on channel=0 note=74 velocity=0 time=0
note_on channel=0 note=86 velocity=0 time=0
note_on channel=0 note=83 velocity=47 time=0
note_on channel=0 note=79 velocity=40 time=0
note_on channel=0 note=79 velocity=0 time=28
note_on channel=0 note=83 velocity=0 time=0
note_on channel=0 note=84 velocity=47 time=0
note_on channel=0 note=81 velocity=40 time=0
note_on channel=0 note=81 velocity=0 time=120
note_on channel=0 note=84 velocity=0 time=0
note_on channel=0 note=86 velocity=58 time=0
note_on channel=0 note=83 velocity=44 time=0
note_on channel=0 note=83 velocity=0 time=0
note_on channel=0 note=86 velocity=0 time=0
note_on channel=0 note=83 velocity=47 time=0
note_on channel=0 note=79 velocity=40 time=0
note_on channel=0 note=79 velocity=0 time=118
note_on channel=0 note=83 velocity=0 time=0
note_on channel=0 note=79 velocity=47 time=0
note_on channel=0 note=71 velocity=40 time=0
note_on channel=0 note=71 velocity=0 time=14
note_on channel=0 note=79 velocity=0 time=0
note_on channel=0 note=81 velocity=47 time=0
note_on channel=0 note=72 velocity=40 time=0
note_on channel=0 note=72 velocity=0 time=120
note_on channel=0 note=81 velocity=0 time=0
note_on channel=0 note=83 velocity=53 time=0
note_on channel=0 note=74 velocity=45 time=0
note_on channel=0 note=74 velocity=0 time=0
note_on channel=0 note=83 velocity=0 time=0
note_on channel=0 note=79 velocity=47 time=0
note_on channel=0 note=71 velocity=40 time=0
note_on channel=0 note=71 velocity=0 time=0
note_on channel=0 note=79 velocity=0 time=0
note_on channel=0 note=74 velocity=47 time=0
note_on channel=0 note=67 velocity=40 time=0
note_on channel=0 note=67 velocity=0 time=14
note_on channel=0 note=74 velocity=0 time=0
note_on channel=0 note=78 velocity=47 time=0
note_on channel=0 note=69 velocity=40 time=0
note_on channel=0 note=69 velocity=0 time=120
note_on channel=0 note=78 velocity=0 time=0
note_on channel=0 note=79 velocity=52 time=0
note_on channel=0 note=71 velocity=45 time=0
note_on channel=0 note=71 velocity=0 time=118
note_on channel=0 note=79 velocity=0 time=0
note_on channel=0 note=71 velocity=47 time=0
note_on channel=0 note=67 velocity=40 time=0
note_on channel=0 note=67 velocity=0 time=118
note_on channel=0 note=71 velocity=0 time=0
note_on channel=0 note=67 velocity=40 time=0
note_on channel=0 note=71 velocity=40 time=0
note_on channel=0 note=71 velocity=0 time=7
note_on channel=0 note=67 velocity=0 time=0
note_on channel=0 note=69 velocity=40 time=0
note_on channel=0 note=72 velocity=40 time=0
note_on channel=0 note=72 velocity=0 time=120
note_on channel=0 note=69 velocity=0 time=0
note_on channel=0 note=71 velocity=45 time=0
note_on channel=0 note=74 velocity=45 time=0
note_on channel=0 note=71 velocity=0 time=118
note_on channel=0 note=74 velocity=0 time=0
note_on channel=0 note=67 velocity=40 time=0
note_on channel=0 note=71 velocity=40 time=0
note_on channel=0 note=71 velocity=0 time=120
note_on channel=0 note=67 velocity=0 time=0
note_on channel=0 note=62 velocity=40 time=0
note_on channel=0 note=69 velocity=46 time=0
note_on channel=0 note=66 velocity=40 time=0
note_on channel=0 note=72 velocity=40 time=0
note_on channel=0 note=72 velocity=0 time=7
note_on channel=0 note=74 velocity=40 time=0
note_on channel=0 note=74 velocity=0 time=0
note_on channel=0 note=66 velocity=0 time=0
note_on channel=0 note=69 velocity=0 time=0
note_on channel=0 note=62 velocity=0 time=0
note_on channel=0 note=88 velocity=52 time=0
note_on channel=0 note=72 velocity=45 time=0
note_on channel=0 note=72 velocity=0 time=0
note_on channel=0 note=88 velocity=0 time=0
note_on channel=0 note=86 velocity=47 time=0
note_on channel=0 note=71 velocity=40 time=0
note_on channel=0 note=71 velocity=0 time=0
note_on channel=0 note=86 velocity=0 time=0
note_on channel=0 note=88 velocity=40 time=0
note_on channel=0 note=72 velocity=40 time=0
note_on channel=0 note=72 velocity=0 time=7
note_on channel=0 note=88 velocity=0 time=0
note_on channel=0 note=86 velocity=40 time=0
note_on channel=0 note=74 velocity=40 time=0
note_on channel=0 note=74 velocity=0 time=120
note_on channel=0 note=86 velocity=0 time=0
note_on channel=0 note=84 velocity=45 time=0
note_on channel=0 note=76 velocity=45 time=0
note_on channel=0 note=76 velocity=0 time=0
note_on channel=0 note=84 velocity=0 time=0
note_on channel=0 note=88 velocity=40 time=0
note_on channel=0 note=72 velocity=40 time=0
note_on channel=0 note=72 velocity=0 time=0
note_on channel=0 note=88 velocity=0 time=0
note_on channel=0 note=84 velocity=52 time=0
note_on channel=0 note=69 velocity=46 time=0
note_on channel=0 note=69 velocity=0 time=7
note_on channel=0 note=84 velocity=0 time=0
note_on channel=0 note=83 velocity=42 time=0
note_on channel=0 note=71 velocity=38 time=0
note_on channel=0 note=71 velocity=0 time=0
note_on channel=0 note=83 velocity=0 time=0
note_on channel=0 note=81 velocity=49 time=0
note_on channel=0 note=72 velocity=45 time=0
note_on channel=0 note=72 velocity=0 time=0
note_on channel=0 note=81 velocity=0 time=0
note_on channel=0 note=84 velocity=43 time=0
note_on channel=0 note=69 velocity=40 time=0
note_on channel=0 note=69 velocity=0 time=0
note_on channel=0 note=84 velocity=0 time=0
note_on channel=0 note=81 velocity=48 time=0
note_on channel=0 note=66 velocity=45 time=0
note_on channel=0 note=66 velocity=0 time=7
note_on channel=0 note=81 velocity=0 time=0
note_on channel=0 note=79 velocity=40 time=0
note_on channel=0 note=67 velocity=36 time=0
note_on channel=0 note=67 velocity=0 time=120
note_on channel=0 note=79 velocity=0 time=0
note_on channel=0 note=78 velocity=45 time=0
note_on channel=0 note=69 velocity=41 time=0
note_on channel=0 note=69 velocity=0 time=0
note_on channel=0 note=78 velocity=0 time=0
note_on channel=0 note=81 velocity=40 time=0
note_on channel=0 note=66 velocity=36 time=0
note_on channel=0 note=66 velocity=0 time=0
note_on channel=0 note=81 velocity=0 time=0
note_on channel=0 note=76 velocity=52 time=0
note_on channel=0 note=60 velocity=46 time=0
note_on channel=0 note=60 velocity=0 time=7
note_on channel=0 note=76 velocity=0 time=0
note_on channel=0 note=74 velocity=42 time=0
note_on channel=0 note=62 velocity=38 time=0
note_on channel=0 note=62 velocity=0 time=0
note_on channel=0 note=74 velocity=0 time=0
note_on channel=0 note=72 velocity=49 time=0
note_on channel=0 note=64 velocity=45 time=0
note_on channel=0 note=64 velocity=0 time=0
note_on channel=0 note=72 velocity=0 time=0
note_on channel=0 note=76 velocity=43 time=0
note_on channel=0 note=60 velocity=40 time=0
note_on channel=0 note=60 velocity=0 time=0
note_on channel=0 note=76 velocity=0 time=0
note_on channel=0 note=72 velocity=48 time=0
note_on channel=0 note=57 velocity=45 time=0
note_on channel=0 note=57 velocity=0 time=7
note_on channel=0 note=72 velocity=0 time=0
note_on channel=0 note=71 velocity=40 time=0
note_on channel=0 note=59 velocity=36 time=0
note_on channel=0 note=59 velocity=0 time=120
note_on channel=0 note=71 velocity=0 time=0
note_on channel=0 note=69 velocity=45 time=0
note_on channel=0 note=60 velocity=41 time=0
note_on channel=0 note=60 velocity=0 time=0
note_on channel=0 note=69 velocity=0 time=0
note_on channel=0 note=72 velocity=40 time=0
note_on channel=0 note=57 velocity=36 time=0
note_on channel=0 note=57 velocity=0 time=0
note_on channel=0 note=72 velocity=0 time=0
note_on channel=0 note=69 velocity=52 time=0
note_on channel=0 note=54 velocity=46 time=0
note_on channel=0 note=54 velocity=0 time=7
note_on channel=0 note=69 velocity=0 time=0
note_on channel=0 note=67 velocity=42 time=0
note_on channel=0 note=55 velocity=38 time=0
note_on channel=0 note=55 velocity=0 time=0
note_on channel=0 note=67 velocity=0 time=0
note_on channel=0 note=66 velocity=49 time=0
note_on channel=0 note=57 velocity=45 time=0
note_on channel=0 note=57 velocity=0 time=0
note_on channel=0 note=66 velocity=0 time=0
note_on channel=0 note=69 velocity=43 time=0
note_on channel=0 note=54 velocity=40 time=0
note_on channel=0 note=54 velocity=0 time=0
note_on channel=0 note=69 velocity=0 time=0
note_on channel=0 note=72 velocity=48 time=0
note_on channel=0 note=69 velocity=45 time=0
note_on channel=0 note=69 velocity=0 time=7
note_on channel=0 note=72 velocity=0 time=0
note_on channel=0 note=71 velocity=40 time=0
note_on channel=0 note=67 velocity=36 time=0
note_on channel=0 note=67 velocity=0 time=120
note_on channel=0 note=71 velocity=0 time=0
note_on channel=0 note=69 velocity=45 time=0
note_on channel=0 note=66 velocity=41 time=0
note_on channel=0 note=66 velocity=0 time=0
note_on channel=0 note=69 velocity=0 time=0
note_on channel=0 note=72 velocity=40 time=0
note_on channel=0 note=69 velocity=36 time=0
note_on channel=0 note=69 velocity=0 time=0
note_on channel=0 note=72 velocity=0 time=0
note_on channel=0 note=62 velocity=40 time=0
note_on channel=0 note=67 velocity=46 time=0
note_on channel=0 note=71 velocity=40 time=0
note_on channel=0 note=71 velocity=0 time=7
note_on channel=0 note=72 velocity=40 time=0
note_on channel=0 note=72 velocity=0 time=0
note_on channel=0 note=67 velocity=0 time=0
note_on channel=0 note=62 velocity=0 time=0
note_on channel=0 note=98 velocity=52 time=0
note_on channel=0 note=71 velocity=45 time=0
note_on channel=0 note=71 velocity=0 time=0
note_on channel=0 note=98 velocity=0 time=0
note_on channel=0 note=96 velocity=47 time=0
note_on channel=0 note=69 velocity=40 time=0
note_on channel=0 note=69 velocity=0 time=0
note_on channel=0 note=96 velocity=0 time=0
note_on channel=0 note=98 velocity=40 time=0
note_on channel=0 note=71 velocity=40 time=0
note_on channel=0 note=71 velocity=0 time=7
note_on channel=0 note=98 velocity=0 time=0
note_on channel=0 note=96 velocity=40 time=0
note_on channel=0 note=72 velocity=40 time=0
note_on channel=0 note=72 velocity=0 time=120
note_on channel=0 note=96 velocity=0 time=0
note_on channel=0 note=95 velocity=45 time=0
note_on channel=0 note=74 velocity=45 time=0
note_on channel=0 note=74 velocity=0 time=0
note_on channel=0 note=95 velocity=0 time=0
note_on channel=0 note=98 velocity=40 time=0
note_on channel=0 note=71 velocity=40 time=0
note_on channel=0 note=71 velocity=0 time=0
note_on channel=0 note=98 velocity=0 time=0
note_on channel=0 note=95 velocity=52 time=0
note_on channel=0 note=67 velocity=46 time=0
note_on channel=0 note=67 velocity=0 time=7
note_on channel=0 note=95 velocity=0 time=0
note_on channel=0 note=93 velocity=42 time=0
note_on channel=0 note=69 velocity=38 time=0
note_on channel=0 note=69 velocity=0 time=0
note_on channel=0 note=93 velocity=0 time=0
note_on channel=0 note=91 velocity=49 time=0
note_on channel=0 note=71 velocity=45 time=0
note_on channel=0 note=71 velocity=0 time=0
note_on channel=0 note=91 velocity=0 time=0
note_on channel=0 note=95 velocity=43 time=0
note_on channel=0 note=67 velocity=40 time=0
note_on channel=0 note=67 velocity=0 time=0
note_on channel=0 note=95 velocity=0 time=0
note_on channel=0 note=83 velocity=48 time=0
note_on channel=0 note=62 velocity=45 time=0
note_on channel=0 note=62 velocity=0 time=7
note_on channel=0 note=83 velocity=0 time=0
note_on channel=0 note=81 velocity=40 time=0
note_on channel=0 note=66 velocity=36 time=0
note_on channel=0 note=66 velocity=0 time=120
note_on channel=0 note=81 velocity=0 time=0
note_on channel=0 note=79 velocity=45 time=0
note_on channel=0 note=67 velocity=41 time=0
note_on channel=0 note=67 velocity=0 time=0
note_on channel=0 note=79 velocity=0 time=0
note_on channel=0 note=83 velocity=40 time=0
note_on channel=0 note=62 velocity=36 time=0
note_on channel=0 note=62 velocity=0 time=0
note_on channel=0 note=83 velocity=0 time=0
note_on channel=0 note=74 velocity=52 time=0
note_on channel=0 note=59 velocity=46 time=0
note_on channel=0 note=59 velocity=0 time=7
note_on channel=0 note=74 velocity=0 time=0
note_on channel=0 note=72 velocity=42 time=0
note_on channel=0 note=60 velocity=38 time=0
note_on channel=0 note=60 velocity=0 time=0
note_on channel=0 note=72 velocity=0 time=0
note_on channel=0 note=71 velocity=49 time=0
note_on channel=0 note=62 velocity=45 time=0
note_on channel=0 note=62 velocity=0 time=0
note_on channel=0 note=71 velocity=0 time=0
note_on channel=0 note=74 velocity=43 time=0
note_on channel=0 note=59 velocity=40 time=0
note_on channel=0 note=59 velocity=0 time=0
note_on channel=0 note=74 velocity=0 time=0
note_on channel=0 note=83 velocity=48 time=0
note_on channel=0 note=55 velocity=45 time=0
note_on channel=0 note=55 velocity=0 time=7
note_on channel=0 note=83 velocity=0 time=0
note_on channel=0 note=81 velocity=40 time=0
note_on channel=0 note=57 velocity=36 time=0
note_on channel=0 note=57 velocity=0 time=120
note_on channel=0 note=81 velocity=0 time=0
note_on channel=0 note=79 velocity=45 time=0
note_on channel=0 note=59 velocity=41 time=0
note_on channel=0 note=59 velocity=0 time=0
note_on channel=0 note=79 velocity=0 time=0
note_on channel=0 note=83 velocity=40 time=0
note_on channel=0 note=55 velocity=36 time=0
note_on channel=0 note=55 velocity=0 time=0
note_on channel=0 note=83 velocity=0 time=0
note_on channel=0 note=86 velocity=62 time=0
note_on channel=0 note=50 velocity=46 time=0
note_on channel=0 note=50 velocity=0 time=7
note_on channel=0 note=86 velocity=0 time=0
note_on channel=0 note=84 velocity=51 time=0
note_on channel=0 note=54 velocity=38 time=0
note_on channel=0 note=54 velocity=0 time=0
note_on channel=0 note=84 velocity=0 time=0
note_on channel=0 note=83 velocity=61 time=0
note_on channel=0 note=55 velocity=45 time=0
note_on channel=0 note=55 velocity=0 time=0
note_on channel=0 note=83 velocity=0 time=0
note_on channel=0 note=84 velocity=52 time=0
note_on channel=0 note=50 velocity=40 time=0
note_on channel=0 note=50 velocity=0 time=0
note_on channel=0 note=84 velocity=0 time=0
note_on channel=0 note=88 velocity=62 time=0
note_on channel=0 note=48 velocity=45 time=0
note_on channel=0 note=48 velocity=0 time=7
note_on channel=0 note=55 velocity=36 time=0
note_on channel=0 note=55 velocity=0 time=0
note_on channel=0 note=88 velocity=0 time=0
note_on channel=0 note=90 velocity=51 time=0
note_on channel=0 note=81 velocity=51 time=0
note_on channel=0 note=86 velocity=51 time=0
note_on channel=0 note=50 velocity=41 time=0
note_on channel=0 note=50 velocity=0 time=120
note_on channel=0 note=48 velocity=36 time=0
note_on channel=0 note=48 velocity=0 time=120
note_on channel=0 note=86 velocity=0 time=0
note_on channel=0 note=81 velocity=0 time=0
note_on channel=0 note=90 velocity=0 time=0
note_on channel=0 note=91 velocity=51 time=0
note_on channel=0 note=79 velocity=51 time=0
note_on channel=0 note=86 velocity=51 time=0
note_on channel=0 note=47 velocity=36 time=0
note_on channel=0 note=47 velocity=0 time=0
note_on channel=0 note=91 velocity=0 time=0
note_on channel=0 note=79 velocity=0 time=0
note_on channel=0 note=86 velocity=0 time=0
note_on channel=0 note=43 velocity=34 time=0
note_on channel=0 note=55 velocity=40 time=0
note_on channel=0 note=55 velocity=0 time=219
note_on channel=0 note=43 velocity=0 time=0
note_on channel=0 note=52 velocity=36 time=0
note_on channel=0 note=48 velocity=30 time=0
note_on channel=0 note=48 velocity=0 time=92
note_on channel=0 note=52 velocity=0 time=0
note_on channel=0 note=60 velocity=40 time=0
note_on channel=0 note=60 velocity=0 time=113
note_on channel=0 note=57 velocity=36 time=0
note_on channel=0 note=57 velocity=0 time=0
note_on channel=0 note=54 velocity=36 time=0
note_on channel=0 note=54 velocity=0 time=0
note_on channel=0 note=69 velocity=40 time=0
note_on channel=0 note=66 velocity=34 time=0
note_on channel=0 note=50 velocity=31 time=0
note_on channel=0 note=62 velocity=36 time=0
note_on channel=0 note=62 velocity=0 time=0
note_on channel=0 note=69 velocity=0 time=0
note_on channel=0 note=66 velocity=0 time=0
note_on channel=0 note=50 velocity=0 time=0
note_on channel=0 note=67 velocity=32 time=0
note_on channel=0 note=71 velocity=38 time=0
note_on channel=0 note=59 velocity=36 time=0
note_on channel=0 note=55 velocity=30 time=0
note_on channel=0 note=55 velocity=0 time=120
note_on channel=0 note=67 velocity=0 time=0
note_on channel=0 note=71 velocity=0 time=0
note_on channel=0 note=59 velocity=0 time=0
note_on channel=0 note=91 velocity=47 time=0
note_on channel=0 note=83 velocity=39 time=0
note_on channel=0 note=64 velocity=36 time=0
note_on channel=0 note=55 velocity=30 time=0
note_on channel=0 note=83 velocity=0 time=113
note_on channel=0 note=91 velocity=0 time=0
note_on channel=0 note=90 velocity=44 time=0
note_on channel=0 note=81 velocity=37 time=0
note_on channel=0 note=81 velocity=0 time=0
note_on channel=0 note=90 velocity=0 time=0
note_on channel=0 note=91 velocity=47 time=0
note_on channel=0 note=83 velocity=39 time=0
note_on channel=0 note=83 velocity=0 time=0
note_on channel=0 note=55 velocity=0 time=0
note_on channel=0 note=64 velocity=0 time=0
note_on channel=0 note=91 velocity=0 time=0
note_on channel=0 note=83 velocity=33 time=0
note_on channel=0 note=79 velocity=33 time=0
note_on channel=0 note=88 velocity=39 time=0
note_on channel=0 note=55 velocity=30 time=0
note_on channel=0 note=64 velocity=36 time=0
note_on channel=0 note=64 velocity=0 time=0
note_on channel=0 note=88 velocity=0 time=0
note_on channel=0 note=83 velocity=0 time=0
note_on channel=0 note=79 velocity=0 time=0
note_on channel=0 note=55 velocity=0 time=0
note_on channel=0 note=86 velocity=42 time=0
note_on channel=0 note=81 velocity=35 time=0
note_on channel=0 note=78 velocity=35 time=0
note_on channel=0 note=66 velocity=40 time=0
note_on channel=0 note=57 velocity=34 time=0
note_on channel=0 note=57 velocity=0 time=0
note_on channel=0 note=78 velocity=0 time=0
note_on channel=0 note=86 velocity=0 time=0
note_on channel=0 note=81 velocity=0 time=0
note_on channel=0 note=66 velocity=0 time=0
note_on channel=0 note=85 velocity=40 time=0
note_on channel=0 note=79 velocity=30 time=0
note_on channel=0 note=76 velocity=30 time=0
note_on channel=0 note=57 velocity=25 time=0
note_on channel=0 note=67 velocity=30 time=0
note_on channel=0 note=67 velocity=0 time=14
note_on channel=0 note=69 velocity=36 time=0
note_on channel=0 note=69 velocity=0 time=0
note_on channel=0 note=57 velocity=0 time=0
note_on channel=0 note=85 velocity=0 time=0
note_on channel=0 note=79 velocity=0 time=0
note_on channel=0 note=76 velocity=0 time=0
note_on channel=0 note=79 velocity=38 time=0
note_on channel=0 note=88 velocity=45 time=0
note_on channel=0 note=69 velocity=36 time=0
note_on channel=0 note=62 velocity=30 time=0
note_on channel=0 note=69 velocity=0 time=0
note_on channel=0 note=79 velocity=0 time=0
note_on channel=0 note=88 velocity=0 time=0
note_on channel=0 note=78 velocity=30 time=0
note_on channel=0 note=86 velocity=36 time=0
note_on channel=0 note=71 velocity=36 time=0
note_on channel=0 note=71 velocity=0 time=137
note_on channel=0 note=73 velocity=31 time=0
note_on channel=0 note=78 velocity=0 time=58
note_on channel=0 note=86 velocity=0 time=0
note_on channel=0 note=73 velocity=0 time=2
note_on channel=0 note=86 velocity=36 time=0
note_on channel=0 note=78 velocity=30 time=0
note_on channel=0 note=74 velocity=36 time=0
note_on channel=0 note=74 velocity=0 time=0
note_on channel=0 note=62 velocity=0 time=0
note_on channel=0 note=86 velocity=0 time=0
note_on channel=0 note=78 velocity=0 time=0
note_on channel=0 note=79 velocity=38 time=0
note_on channel=0 note=86 velocity=45 time=0
note_on channel=0 note=76 velocity=37 time=0
note_on channel=0 note=76 velocity=0 time=51
note_on channel=0 note=86 velocity=0 time=0
note_on channel=0 note=79 velocity=0 time=0
note_on channel=0 note=84 velocity=40 time=0
note_on channel=0 note=81 velocity=34 time=0
note_on channel=0 note=78 velocity=36 time=0
note_on channel=0 note=78 velocity=0 time=0
note_on channel=0 note=81 velocity=0 time=0
note_on channel=0 note=84 velocity=0 time=0
note_on channel=0 note=83 velocity=46 time=0
note_on channel=0 note=79 velocity=36 time=0
note_on channel=0 note=79 velocity=0 time=0
note_on channel=0 note=83 velocity=0 time=0
note_on channel=0 note=79 velocity=43 time=0
note_on channel=0 note=91 velocity=51 time=0
note_on channel=0 note=74 velocity=36 time=0
note_on channel=0 note=71 velocity=30 time=0
note_on channel=0 note=91 velocity=0 time=28
note_on channel=0 note=71 velocity=0 time=0
note_on channel=0 note=74 velocity=0 time=0
note_on channel=0 note=88 velocity=46 time=0
note_on channel=0 note=72 velocity=30 time=0
note_on channel=0 note=76 velocity=36 time=0
note_on channel=0 note=76 velocity=0 time=114
note_on channel=0 note=79 velocity=0 time=0
note_on channel=0 note=88 velocity=0 time=0
note_on channel=0 note=72 velocity=0 time=0
note_on channel=0 note=96 velocity=51 time=0
note_on channel=0 note=84 velocity=43 time=0
note_on channel=0 note=69 velocity=36 time=0
note_on channel=0 note=69 velocity=0 time=113
note_on channel=0 note=84 velocity=0 time=0
note_on channel=0 note=96 velocity=0 time=0
note_on channel=0 note=93 velocity=44 time=0
note_on channel=0 note=88 velocity=37 time=0
note_on channel=0 note=72 velocity=32 time=0
note_on channel=0 note=72 velocity=0 time=0
note_on channel=0 note=88 velocity=0 time=0
note_on channel=0 note=93 velocity=0 time=0
note_on channel=0 note=90 velocity=51 time=0
note_on channel=0 note=74 velocity=36 time=0
note_on channel=0 note=74 velocity=0 time=0
note_on channel=0 note=90 velocity=0 time=0
note_on channel=0 note=86 velocity=47 time=0
note_on channel=0 note=98 velocity=56 time=0
note_on channel=0 note=66 velocity=30 time=0
note_on channel=0 note=69 velocity=36 time=0
note_on channel=0 note=69 velocity=0 time=0
note_on channel=0 note=66 velocity=0 time=0
note_on channel=0 note=98 velocity=0 time=0
note_on channel=0 note=95 velocity=53 time=0
note_on channel=0 note=67 velocity=33 time=0
note_on channel=0 note=71 velocity=36 time=0
note_on channel=0 note=71 velocity=0 time=107
note_on channel=0 note=86 velocity=0 time=0
note_on channel=0 note=95 velocity=0 time=0
note_on channel=0 note=67 velocity=0 time=0
note_on channel=0 note=91 velocity=52 time=0
note_on channel=0 note=91 velocity=0 time=70
note_on channel=0 note=90 velocity=45 time=0
note_on channel=0 note=90 velocity=0 time=0
note_on channel=0 note=91 velocity=52 time=0
note_on channel=0 note=67 velocity=30 time=0
note_on channel=0 note=64 velocity=30 time=0
note_on channel=0 note=71 velocity=36 time=0
note_on channel=0 note=71 velocity=0 time=0
note_on channel=0 note=91 velocity=0 time=0
note_on channel=0 note=67 velocity=0 time=0
note_on channel=0 note=64 velocity=0 time=0
note_on channel=0 note=88 velocity=47 time=0
note_on channel=0 note=72 velocity=36 time=0
note_on channel=0 note=67 velocity=30 time=0
note_on channel=0 note=64 velocity=30 time=0
note_on channel=0 note=64 velocity=0 time=141
note_on channel=0 note=88 velocity=0 time=0
note_on channel=0 note=72 velocity=0 time=0
note_on channel=0 note=67 velocity=0 time=0
note_on channel=0 note=84 velocity=51 time=0
note_on channel=0 note=64 velocity=30 time=0
note_on channel=0 note=67 velocity=36 time=0
note_on channel=0 note=72 velocity=36 time=0
note_on channel=0 note=67 velocity=0 time=49
note_on channel=0 note=69 velocity=30 time=0
note_on channel=0 note=69 velocity=0 time=120
note_on channel=0 note=72 velocity=0 time=0
note_on channel=0 note=64 velocity=0 time=0
note_on channel=0 note=84 velocity=0 time=0
note_on channel=0 note=78 velocity=37 time=0
note_on channel=0 note=83 velocity=44 time=0
note_on channel=0 note=66 velocity=30 time=0
note_on channel=0 note=63 velocity=30 time=0
note_on channel=0 note=71 velocity=36 time=0
note_on channel=0 note=71 velocity=0 time=0
note_on channel=0 note=66 velocity=0 time=0
note_on channel=0 note=78 velocity=0 time=0
note_on channel=0 note=83 velocity=0 time=0
note_on channel=0 note=63 velocity=0 time=0
note_on channel=0 note=83 velocity=44 time=0
note_on channel=0 note=78 velocity=44 time=0
note_on channel=0 note=71 velocity=36 time=0
note_on channel=0 note=66 velocity=30 time=0
note_on channel=0 note=63 velocity=30 time=0
note_on channel=0 note=63 velocity=0 time=0
note_on channel=0 note=71 velocity=0 time=0
note_on channel=0 note=66 velocity=0 time=0
note_on channel=0 note=78 velocity=0 time=0
note_on channel=0 note=81 velocity=50 time=0
note_on channel=0 note=63 velocity=31 time=0
note_on channel=0 note=59 velocity=26 time=0
note_on channel=0 note=81 velocity=0 time=51
note_on channel=0 note=79 velocity=44 time=0
note_on channel=0 note=79 velocity=0 time=118
note_on channel=0 note=59 velocity=0 time=2
note_on channel=0 note=63 velocity=0 time=0
note_on channel=0 note=79 velocity=49 time=0
note_on channel=0 note=64 velocity=30 time=0
note_on channel=0 note=67 velocity=36 time=0
note_on channel=0 note=67 velocity=0 time=0
note_on channel=0 note=83 velocity=0 time=0
note_on channel=0 note=79 velocity=0 time=0
note_on channel=0 note=64 velocity=0 time=0
note_on channel=0 note=88 velocity=55 time=0
note_on channel=0 note=79 velocity=46 time=0
note_on channel=0 note=82 velocity=46 time=0
note_on channel=0 note=62 velocity=34 time=0
note_on channel=0 note=65 velocity=40 time=0
note_on channel=0 note=65 velocity=0 time=0
note_on channel=0 note=62 velocity=0 time=0
note_on channel=0 note=64 velocity=36 time=0
note_on channel=0 note=61 velocity=30 time=0
note_on channel=0 note=61 velocity=0 time=0
note_on channel=0 note=82 velocity=0 time=0
note_on channel=0 note=64 velocity=0 time=0
note_on channel=0 note=88 velocity=0 time=0
note_on channel=0 note=81 velocity=44 time=0
note_on channel=0 note=61 velocity=30 time=0
note_on channel=0 note=64 velocity=36 time=0
note_on channel=0 note=64 velocity=0 time=0
note_on channel=0 note=61 velocity=0 time=0
note_on channel=0 note=79 velocity=0 time=0
note_on channel=0 note=79 velocity=50 time=0
note_on channel=0 note=57 velocity=26 time=0
note_on channel=0 note=61 velocity=31 time=0
note_on channel=0 note=79 velocity=0 time=51
note_on channel=0 note=77 velocity=44 time=0
note_on channel=0 note=77 velocity=0 time=120
note_on channel=0 note=61 velocity=0 time=0
note_on channel=0 note=57 velocity=0 time=0
note_on channel=0 note=77 velocity=49 time=0
note_on channel=0 note=62 velocity=30 time=0
note_on channel=0 note=65 velocity=36 time=0
note_on channel=0 note=65 velocity=0 time=0
note_on channel=0 note=81 velocity=0 time=0
note_on channel=0 note=77 velocity=0 time=0
note_on channel=0 note=62 velocity=0 time=0
note_on channel=0 note=77 velocity=55 time=0
note_on channel=0 note=80 velocity=55 time=0
note_on channel=0 note=86 velocity=55 time=0
note_on channel=0 note=63 velocity=40 time=0
note_on channel=0 note=60 velocity=34 time=0
note_on channel=0 note=60 velocity=0 time=0
note_on channel=0 note=63 velocity=0 time=0
note_on channel=0 note=62 velocity=36 time=0
note_on channel=0 note=59 velocity=30 time=0
note_on channel=0 note=59 velocity=0 time=119
note_on channel=0 note=62 velocity=0 time=0
note_on channel=0 note=86 velocity=0 time=0
note_on channel=0 note=80 velocity=0 time=0
note_on channel=0 note=79 velocity=44 time=0
note_on channel=0 note=59 velocity=30 time=0
note_on channel=0 note=62 velocity=36 time=0
note_on channel=0 note=62 velocity=0 time=0
note_on channel=0 note=59 velocity=0 time=0
note_on channel=0 note=77 velocity=0 time=0
note_on channel=0 note=77 velocity=50 time=0
note_on channel=0 note=59 velocity=31 time=0
note_on channel=0 note=55 velocity=26 time=0
note_on channel=0 note=77 velocity=0 time=51
note_on channel=0 note=76 velocity=44 time=0
note_on channel=0 note=76 velocity=0 time=118
note_on channel=0 note=55 velocity=0 time=2
note_on channel=0 note=59 velocity=0 time=0
note_on channel=0 note=76 velocity=49 time=0
note_on channel=0 note=60 velocity=30 time=0
note_on channel=0 note=64 velocity=36 time=0
note_on channel=0 note=64 velocity=0 time=0
note_on channel=0 note=79 velocity=0 time=0
note_on channel=0 note=76 velocity=0 time=0
note_on channel=0 note=60 velocity=0 time=0
note_on channel=0 note=85 velocity=55 time=0
note_on channel=0 note=76 velocity=46 time=0
note_on channel=0 note=79 velocity=46 time=0
note_on channel=0 note=63 velocity=40 time=0
note_on channel=0 note=59 velocity=34 time=0
note_on channel=0 note=59 velocity=0 time=0
note_on channel=0 note=63 velocity=0 time=0
note_on channel=0 note=58 velocity=30 time=0
note_on channel=0 note=61 velocity=36 time=0
note_on channel=0 note=61 velocity=0 time=119
note_on channel=0 note=58 velocity=0 time=0
note_on channel=0 note=79 velocity=0 time=0
note_on channel=0 note=85 velocity=0 time=0
note_on channel=0 note=78 velocity=44 time=0
note_on channel=0 note=58 velocity=30 time=0
note_on channel=0 note=61 velocity=36 time=0
note_on channel=0 note=61 velocity=0 time=0
note_on channel=0 note=58 velocity=0 time=0
note_on channel=0 note=76 velocity=0 time=0
note_on channel=0 note=76 velocity=50 time=0
note_on channel=0 note=58 velocity=31 time=0
note_on channel=0 note=54 velocity=26 time=0
note_on channel=0 note=76 velocity=0 time=51
note_on channel=0 note=75 velocity=44 time=0
note_on channel=0 note=75 velocity=0 time=120
note_on channel=0 note=54 velocity=0 time=0
note_on channel=0 note=58 velocity=0 time=0
note_on channel=0 note=74 velocity=49 time=0
note_on channel=0 note=62 velocity=36 time=0
note_on channel=0 note=59 velocity=30 time=0
note_on channel=0 note=59 velocity=0 time=0
note_on channel=0 note=78 velocity=0 time=0
note_on channel=0 note=74 velocity=0 time=0
note_on channel=0 note=62 velocity=0 time=0
note_on channel=0 note=77 velocity=46 time=0
note_on channel=0 note=74 velocity=46 time=0
note_on channel=0 note=83 velocity=55 time=0
note_on channel=0 note=61 velocity=40 time=0
note_on channel=0 note=57 velocity=34 time=0
note_on channel=0 note=57 velocity=0 time=0
note_on channel=0 note=61 velocity=0 time=0
note_on channel=0 note=59 velocity=36 time=0
note_on channel=0 note=56 velocity=30 time=0
note_on channel=0 note=56 velocity=0 time=0
note_on channel=0 note=77 velocity=0 time=0
note_on channel=0 note=83 velocity=0 time=0
note_on channel=0 note=74 velocity=0 time=0
note_on channel=0 note=59 velocity=0 time=0
note_on channel=0 note=74 velocity=46 time=0
note_on channel=0 note=77 velocity=55 time=0
note_on channel=0 note=59 velocity=36 time=0
note_on channel=0 note=56 velocity=30 time=0
note_on channel=0 note=77 velocity=0 time=0
note_on channel=0 note=76 velocity=46 time=0
note_on channel=0 note=74 velocity=0 time=120
note_on channel=0 note=56 velocity=0 time=0
note_on channel=0 note=59 velocity=0 time=0
note_on channel=0 note=73 velocity=46 time=0
note_on channel=0 note=57 velocity=36 time=0
note_on channel=0 note=64 velocity=30 time=0
note_on channel=0 note=57 velocity=0 time=0
note_on channel=0 note=76 velocity=0 time=0
note_on channel=0 note=81 velocity=48 time=0
note_on channel=0 note=55 velocity=30 time=0
note_on channel=0 note=55 velocity=0 time=0
note_on channel=0 note=64 velocity=0 time=0
note_on channel=0 note=73 velocity=0 time=0
note_on channel=0 note=81 velocity=0 time=0
note_on channel=0 note=72 velocity=46 time=0
note_on channel=0 note=75 velocity=55 time=0
note_on channel=0 note=54 velocity=30 time=0
note_on channel=0 note=57 velocity=36 time=0
note_on channel=0 note=75 velocity=0 time=0
note_on channel=0 note=74 velocity=47 time=0
note_on channel=0 note=72 velocity=0 time=120
note_on channel=0 note=57 velocity=0 time=0
note_on channel=0 note=54 velocity=0 time=0
note_on channel=0 note=71 velocity=46 time=0
note_on channel=0 note=55 velocity=36 time=0
note_on channel=0 note=59 velocity=30 time=0
note_on channel=0 note=55 velocity=0 time=0
note_on channel=0 note=74 velocity=0 time=0
note_on channel=0 note=79 velocity=49 time=0
note_on channel=0 note=47 velocity=32 time=0
note_on channel=0 note=47 velocity=0 time=0
note_on channel=0 note=59 velocity=0 time=0
note_on channel=0 note=71 velocity=0 time=0
note_on channel=0 note=79 velocity=0 time=0
note_on channel=0 note=74 velocity=56 time=0
note_on channel=0 note=50 velocity=25 time=0
note_on channel=0 note=60 velocity=30 time=0
note_on channel=0 note=45 velocity=25 time=0
note_on channel=0 note=74 velocity=0 time=0
note_on channel=0 note=86 velocity=44 time=0
note_on channel=0 note=86 velocity=0 time=120
note_on channel=0 note=85 velocity=45 time=0
note_on channel=0 note=85 velocity=0 time=120
note_on channel=0 note=84 velocity=46 time=0
note_on channel=0 note=84 velocity=0 time=120
note_on channel=0 note=81 velocity=47 time=0
note_on channel=0 note=81 velocity=0 time=11
note_on channel=0 note=78 velocity=47 time=0
note_on channel=0 note=78 velocity=0 time=120
note_on channel=0 note=75 velocity=48 time=0
note_on channel=0 note=75 velocity=0 time=120
note_on channel=0 note=74 velocity=49 time=0
note_on channel=0 note=74 velocity=0 time=120
note_on channel=0 note=73 velocity=50 time=0
note_on channel=0 note=73 velocity=0 time=28
note_on channel=0 note=72 velocity=51 time=0
note_on channel=0 note=72 velocity=0 time=0
note_on channel=0 note=69 velocity=52 time=0
note_on channel=0 note=69 velocity=0 time=120
note_on channel=0 note=66 velocity=53 time=0
note_on channel=0 note=66 velocity=0 time=0
note_on channel=0 note=45 velocity=0 time=0
note_on channel=0 note=60 velocity=0 time=0
note_on channel=0 note=50 velocity=0 time=0
note_on channel=0 note=63 velocity=61 time=0
note_on channel=0 note=67 velocity=51 time=0
note_on channel=0 note=59 velocity=30 time=0
note_on channel=0 note=47 velocity=25 time=0
note_on channel=0 note=50 velocity=25 time=0
note_on channel=0 note=63 velocity=0 time=17
note_on channel=0 note=62 velocity=47 time=0
note_on channel=0 note=62 velocity=0 time=120
note_on channel=0 note=67 velocity=0 time=0
note_on channel=0 note=76 velocity=58 time=0
note_on channel=0 note=67 velocity=49 time=0
note_on channel=0 note=76 velocity=0 time=0
note_on channel=0 note=74 velocity=47 time=0
note_on channel=0 note=74 velocity=0 time=0
note_on channel=0 note=67 velocity=0 time=0
note_on channel=0 note=50 velocity=0 time=0
note_on channel=0 note=59 velocity=0 time=0
note_on channel=0 note=47 velocity=0 time=0
note_on channel=0 note=74 velocity=56 time=0
note_on channel=0 note=45 velocity=25 time=0
note_on channel=0 note=60 velocity=30 time=0
note_on channel=0 note=50 velocity=25 time=0
note_on channel=0 note=74 velocity=0 time=0
note_on channel=0 note=86 velocity=44 time=0
note_on channel=0 note=86 velocity=0 time=120
note_on channel=0 note=85 velocity=45 time=0
note_on channel=0 note=85 velocity=0 time=120
note_on channel=0 note=84 velocity=46 time=0
note_on channel=0 note=84 velocity=0 time=120
note_on channel=0 note=81 velocity=47 time=0
note_on channel=0 note=81 velocity=0 time=11
note_on channel=0 note=78 velocity=47 time=0
note_on channel=0 note=78 velocity=0 time=120
note_on channel=0 note=75 velocity=48 time=0
note_on channel=0 note=75 velocity=0 time=120
note_on channel=0 note=74 velocity=49 time=0
note_on channel=0 note=74 velocity=0 time=0
note_on channel=0 note=73 velocity=50 time=0
note_on channel=0 note=73 velocity=0 time=28
note_on channel=0 note=72 velocity=51 time=0
note_on channel=0 note=72 velocity=0 time=120
note_on channel=0 note=69 velocity=52 time=0
note_on channel=0 note=69 velocity=0 time=120
note_on channel=0 note=66 velocity=53 time=0
note_on channel=0 note=66 velocity=0 time=120
note_on channel=0 note=50 velocity=0 time=0
note_on channel=0 note=60 velocity=0 time=0
note_on channel=0 note=45 velocity=0 time=0
note_on channel=0 note=67 velocity=51 time=0
note_on channel=0 note=63 velocity=61 time=0
note_on channel=0 note=47 velocity=25 time=0
note_on channel=0 note=50 velocity=25 time=0
note_on channel=0 note=59 velocity=30 time=0
note_on channel=0 note=63 velocity=0 time=17
note_on channel=0 note=62 velocity=47 time=0
note_on channel=0 note=62 velocity=0 time=0
note_on channel=0 note=67 velocity=0 time=0
note_on channel=0 note=76 velocity=58 time=0
note_on channel=0 note=67 velocity=49 time=0
note_on channel=0 note=76 velocity=0 time=51
note_on channel=0 note=74 velocity=47 time=0
note_on channel=0 note=74 velocity=0 time=0
note_on channel=0 note=67 velocity=0 time=0
note_on channel=0 note=59 velocity=0 time=0
note_on channel=0 note=47 velocity=0 time=0
note_on channel=0 note=50 velocity=0 time=0
note_on channel=0 note=74 velocity=52 time=0
note_on channel=0 note=47 velocity=30 time=0
note_on channel=0 note=35 velocity=25 time=0
note_on channel=0 note=74 velocity=0 time=0
note_on channel=0 note=71 velocity=45 time=0
note_on channel=0 note=79 velocity=54 time=0
note_on channel=0 note=79 velocity=0 time=120
note_on channel=0 note=71 velocity=0 time=0
note_on channel=0 note=83 velocity=58 time=0
note_on channel=0 note=74 velocity=49 time=0
note_on channel=0 note=74 velocity=0 time=120
note_on channel=0 note=83 velocity=0 time=0
note_on channel=0 note=72 velocity=44 time=0
note_on channel=0 note=81 velocity=52 time=0
note_on channel=0 note=81 velocity=0 time=120
note_on channel=0 note=47 velocity=0 time=0
note_on channel=0 note=35 velocity=0 time=0
note_on channel=0 note=72 velocity=0 time=0
note_on channel=0 note=71 velocity=58 time=0
note_on channel=0 note=79 velocity=58 time=0
note_on channel=0 note=40 velocity=23 time=0
note_on channel=0 note=52 velocity=28 time=0
note_on channel=0 note=71 velocity=0 time=40
note_on channel=0 note=75 velocity=50 time=0
note_on channel=0 note=75 velocity=0 time=120
note_on channel=0 note=76 velocity=55 time=0
note_on channel=0 note=76 velocity=0 time=0
note_on channel=0 note=71 velocity=50 time=0
note_on channel=0 note=71 velocity=0 time=0
note_on channel=0 note=52 velocity=0 time=0
note_on channel=0 note=40 velocity=0 time=0
note_on channel=0 note=70 velocity=54 time=0
note_on channel=0 note=49 velocity=30 time=0
note_on channel=0 note=37 velocity=25 time=0
note_on channel=0 note=70 velocity=0 time=17
note_on channel=0 note=75 velocity=58 time=0
note_on channel=0 note=75 velocity=0 time=120
note_on channel=0 note=76 velocity=58 time=0
note_on channel=0 note=76 velocity=0 time=0
note_on channel=0 note=70 velocity=53 time=0
note_on channel=0 note=70 velocity=0 time=0
note_on channel=0 note=37 velocity=0 time=0
note_on channel=0 note=49 velocity=0 time=0
note_on channel=0 note=79 velocity=0 time=0
note_on channel=0 note=69 velocity=56 time=0
note_on channel=0 note=50 velocity=29 time=0
note_on channel=0 note=38 velocity=24 time=0
note_on channel=0 note=69 velocity=0 time=51
note_on channel=0 note=73 velocity=50 time=0
note_on channel=0 note=73 velocity=0 time=120
note_on channel=0 note=38 velocity=0 time=0
note_on channel=0 note=50 velocity=0 time=0
note_on channel=0 note=74 velocity=60 time=0
note_on channel=0 note=74 velocity=0 time=0
note_on channel=0 note=86 velocity=54 time=0
note_on channel=0 note=86 velocity=0 time=0
note_on channel=0 note=86 velocity=61 time=0
note_on channel=0 note=57 velocity=25 time=0
note_on channel=0 note=72 velocity=30 time=0
note_on channel=0 note=62 velocity=25 time=0
note_on channel=0 note=86 velocity=0 time=0
note_on channel=0 note=98 velocity=48 time=0
note_on channel=0 note=98 velocity=0 time=120
note_on channel=0 note=97 velocity=49 time=0
note_on channel=0 note=97 velocity=0 time=120
note_on channel=0 note=96 velocity=50 time=0
note_on channel=0 note=96 velocity=0 time=120
note_on channel=0 note=93 velocity=51 time=0
note_on channel=0 note=93 velocity=0 time=11
note_on channel=0 note=90 velocity=51 time=0
note_on channel=0 note=90 velocity=0 time=120
note_on channel=0 note=87 velocity=52 time=0
note_on channel=0 note=87 velocity=0 time=120
note_on channel=0 note=86 velocity=53 time=0
note_on channel=0 note=86 velocity=0 time=120
note_on channel=0 note=85 velocity=55 time=0
note_on channel=0 note=85 velocity=0 time=28
note_on channel=0 note=84 velocity=60 time=0
note_on channel=0 note=84 velocity=0 time=0
note_on channel=0 note=81 velocity=64 time=0
note_on channel=0 note=81 velocity=0 time=120
note_on channel=0 note=78 velocity=67 time=0
note_on channel=0 note=78 velocity=0 time=0
note_on channel=0 note=62 velocity=0 time=0
note_on channel=0 note=72 velocity=0 time=0
note_on channel=0 note=57 velocity=0 time=0
note_on channel=0 note=75 velocity=72 time=0
note_on channel=0 note=79 velocity=60 time=0
note_on channel=0 note=71 velocity=30 time=0
note_on channel=0 note=59 velocity=25 time=0
note_on channel=0 note=62 velocity=25 time=0
note_on channel=0 note=75 velocity=0 time=17
note_on channel=0 note=74 velocity=51 time=0
note_on channel=0 note=74 velocity=0 time=120
note_on channel=0 note=79 velocity=0 time=0
note_on channel=0 note=79 velocity=53 time=0
note_on channel=0 note=88 velocity=63 time=0
note_on channel=0 note=88 velocity=0 time=0
note_on channel=0 note=86 velocity=51 time=0
note_on channel=0 note=86 velocity=0 time=0
note_on channel=0 note=79 velocity=0 time=0
note_on channel=0 note=62 velocity=0 time=0
note_on channel=0 note=71 velocity=0 time=0
note_on channel=0 note=59 velocity=0 time=0
note_on channel=0 note=86 velocity=61 time=0
note_on channel=0 note=60 velocity=30 time=0
note_on channel=0 note=45 velocity=25 time=0
note_on channel=0 note=50 velocity=25 time=0
note_on channel=0 note=86 velocity=0 time=0
note_on channel=0 note=98 velocity=48 time=0
note_on channel=0 note=98 velocity=0 time=120
note_on channel=0 note=97 velocity=49 time=0
note_on channel=0 note=97 velocity=0 time=120
note_on channel=0 note=96 velocity=50 time=0
note_on channel=0 note=96 velocity=0 time=120
note_on channel=0 note=93 velocity=51 time=0
note_on channel=0 note=93 velocity=0 time=11
note_on channel=0 note=90 velocity=51 time=0
note_on channel=0 note=90 velocity=0 time=120
note_on channel=0 note=87 velocity=52 time=0
note_on channel=0 note=87 velocity=0 time=120
note_on channel=0 note=86 velocity=53 time=0
note_on channel=0 note=86 velocity=0 time=0
note_on channel=0 note=85 velocity=57 time=0
note_on channel=0 note=85 velocity=0 time=28
note_on channel=0 note=84 velocity=59 time=0
note_on channel=0 note=84 velocity=0 time=120
note_on channel=0 note=81 velocity=61 time=0
note_on channel=0 note=81 velocity=0 time=120
note_on channel=0 note=78 velocity=63 time=0
note_on channel=0 note=78 velocity=0 time=120
note_on channel=0 note=50 velocity=0 time=0
note_on channel=0 note=45 velocity=0 time=0
note_on channel=0 note=60 velocity=0 time=0
note_on channel=0 note=79 velocity=54 time=0
note_on channel=0 note=75 velocity=67 time=0
note_on channel=0 note=47 velocity=25 time=0
note_on channel=0 note=59 velocity=30 time=0
note_on channel=0 note=50 velocity=25 time=0
note_on channel=0 note=75 velocity=0 time=17
note_on channel=0 note=74 velocity=51 time=0
note_on channel=0 note=74 velocity=0 time=0
note_on channel=0 note=50 velocity=0 time=0
note_on channel=0 note=79 velocity=0 time=0
note_on channel=0 note=47 velocity=0 time=0
note_on channel=0 note=59 velocity=0 time=0
note_on channel=0 note=79 velocity=53 time=0
note_on channel=0 note=88 velocity=63 time=0
note_on channel=0 note=59 velocity=30 time=0
note_on channel=0 note=88 velocity=0 time=51
note_on channel=0 note=86 velocity=51 time=0
note_on channel=0 note=86 velocity=0 time=0
note_on channel=0 note=59 velocity=0 time=0
note_on channel=0 note=79 velocity=0 time=0
note_on channel=0 note=86 velocity=56 time=0
note_on channel=0 note=59 velocity=30 time=0
note_on channel=0 note=86 velocity=0 time=0
note_on channel=0 note=79 velocity=54 time=0
note_on channel=0 note=71 velocity=45 time=0
note_on channel=0 note=71 velocity=0 time=120
note_on channel=0 note=79 velocity=0 time=0
note_on channel=0 note=74 velocity=49 time=0
note_on channel=0 note=83 velocity=58 time=0
note_on channel=0 note=83 velocity=0 time=120
note_on channel=0 note=74 velocity=0 time=0
note_on channel=0 note=81 velocity=52 time=0
note_on channel=0 note=72 velocity=44 time=0
note_on channel=0 note=72 velocity=0 time=120
note_on channel=0 note=81 velocity=0 time=0
note_on channel=0 note=59 velocity=0 time=0
note_on channel=0 note=71 velocity=58 time=0
note_on channel=0 note=79 velocity=58 time=0
note_on channel=0 note=64 velocity=28 time=0
note_on channel=0 note=71 velocity=0 time=40
note_on channel=0 note=75 velocity=50 time=0
note_on channel=0 note=75 velocity=0 time=120
note_on channel=0 note=76 velocity=55 time=0
note_on channel=0 note=76 velocity=0 time=0
note_on channel=0 note=71 velocity=50 time=0
note_on channel=0 note=71 velocity=0 time=0
note_on channel=0 note=64 velocity=0 time=0
note_on channel=0 note=70 velocity=54 time=0
note_on channel=0 note=61 velocity=30 time=0
note_on channel=0 note=70 velocity=0 time=17
note_on channel=0 note=75 velocity=58 time=0
note_on channel=0 note=75 velocity=0 time=120
note_on channel=0 note=76 velocity=58 time=0
note_on channel=0 note=76 velocity=0 time=0
note_on channel=0 note=70 velocity=53 time=0
note_on channel=0 note=70 velocity=0 time=0
note_on channel=0 note=61 velocity=0 time=0
note_on channel=0 note=79 velocity=0 time=0
note_on channel=0 note=69 velocity=56 time=0
note_on channel=0 note=78 velocity=54 time=0
note_on channel=0 note=62 velocity=29 time=0
note_on channel=0 note=69 velocity=0 time=51
note_on channel=0 note=74 velocity=50 time=0
note_on channel=0 note=74 velocity=0 time=120
note_on channel=0 note=62 velocity=0 time=0
note_on channel=0 note=78 velocity=0 time=0
note_on channel=0 note=79 velocity=54 time=0
note_on channel=0 note=67 velocity=60 time=0
note_on channel=0 note=63 velocity=29 time=0
note_on channel=0 note=67 velocity=0 time=0
note_on channel=0 note=72 velocity=50 time=0
note_on channel=0 note=72 velocity=0 time=0
note_on channel=0 note=63 velocity=0 time=0
note_on channel=0 note=79 velocity=0 time=0
note_on channel=0 note=79 velocity=54 time=0
note_on channel=0 note=64 velocity=31 time=0
note_on channel=0 note=79 velocity=0 time=0
note_on channel=0 note=76 velocity=47 time=0
note_on channel=0 note=84 velocity=57 time=0
note_on channel=0 note=84 velocity=0 time=120
note_on channel=0 note=76 velocity=0 time=0
note_on channel=0 note=88 velocity=62 time=0
note_on channel=0 note=79 velocity=52 time=0
note_on channel=0 note=79 velocity=0 time=120
note_on channel=0 note=88 velocity=0 time=0
note_on channel=0 note=77 velocity=47 time=0
note_on channel=0 note=86 velocity=56 time=0
note_on channel=0 note=86 velocity=0 time=0
note_on channel=0 note=77 velocity=0 time=0
note_on channel=0 note=64 velocity=0 time=0
note_on channel=0 note=76 velocity=63 time=0
note_on channel=0 note=84 velocity=63 time=0
note_on channel=0 note=69 velocity=30 time=0
note_on channel=0 note=76 velocity=0 time=40
note_on channel=0 note=80 velocity=55 time=0
note_on channel=0 note=80 velocity=0 time=120
note_on channel=0 note=81 velocity=61 time=0
note_on channel=0 note=81 velocity=0 time=0
note_on channel=0 note=75 velocity=56 time=0
note_on channel=0 note=75 velocity=0 time=0
note_on channel=0 note=69 velocity=0 time=0
note_on channel=0 note=75 velocity=61 time=0
note_on channel=0 note=66 velocity=33 time=0
note_on channel=0 note=75 velocity=0 time=17
note_on channel=0 note=80 velocity=66 time=0
note_on channel=0 note=80 velocity=0 time=120
note_on channel=0 note=81 velocity=66 time=0
note_on channel=0 note=81 velocity=0 time=0
note_on channel=0 note=75 velocity=62 time=0
note_on channel=0 note=75 velocity=0 time=0
note_on channel=0 note=66 velocity=0 time=0
note_on channel=0 note=84 velocity=0 time=0
note_on channel=0 note=74 velocity=66 time=0
note_on channel=0 note=83 velocity=63 time=0
note_on channel=0 note=67 velocity=34 time=0
note_on channel=0 note=74 velocity=0 time=51
note_on channel=0 note=79 velocity=59 time=0
note_on channel=0 note=79 velocity=0 time=120
note_on channel=0 note=67 velocity=0 time=0
note_on channel=0 note=83 velocity=0 time=0
note_on channel=0 note=84 velocity=64 time=0
note_on channel=0 note=72 velocity=72 time=0
note_on channel=0 note=68 velocity=34 time=0
note_on channel=0 note=72 velocity=0 time=0
note_on channel=0 note=77 velocity=60 time=0
note_on channel=0 note=77 velocity=0 time=0
note_on channel=0 note=68 velocity=0 time=0
note_on channel=0 note=84 velocity=0 time=0
note_on channel=0 note=84 velocity=63 time=0
note_on channel=0 note=69 velocity=36 time=0
note_on channel=0 note=84 velocity=0 time=0
note_on channel=0 note=81 velocity=55 time=0
note_on channel=0 note=89 velocity=66 time=0
note_on channel=0 note=89 velocity=0 time=120
note_on channel=0 note=81 velocity=0 time=0
note_on channel=0 note=84 velocity=60 time=0
note_on channel=0 note=93 velocity=71 time=0
note_on channel=0 note=93 velocity=0 time=120
note_on channel=0 note=84 velocity=0 time=0
note_on channel=0 note=82 velocity=55 time=0
note_on channel=0 note=91 velocity=65 time=0
note_on channel=0 note=91 velocity=0 time=0
note_on channel=0 note=82 velocity=0 time=0
note_on channel=0 note=69 velocity=0 time=0
note_on channel=0 note=89 velocity=73 time=0
note_on channel=0 note=80 velocity=73 time=0
note_on channel=0 note=73 velocity=35 time=0
note_on channel=0 note=80 velocity=0 time=40
note_on channel=0 note=77 velocity=63 time=0
note_on channel=0 note=77 velocity=0 time=120
note_on channel=0 note=80 velocity=70 time=0
note_on channel=0 note=80 velocity=0 time=0
note_on channel=0 note=79 velocity=65 time=0
note_on channel=0 note=79 velocity=0 time=0
note_on channel=0 note=73 velocity=0 time=0
note_on channel=0 note=80 velocity=70 time=0
note_on channel=0 note=71 velocity=39 time=0
note_on channel=0 note=80 velocity=0 time=17
note_on channel=0 note=85 velocity=71 time=0
note_on channel=0 note=85 velocity=0 time=120
note_on channel=0 note=86 velocity=77 time=0
note_on channel=0 note=86 velocity=0 time=0
note_on channel=0 note=80 velocity=71 time=0
note_on channel=0 note=80 velocity=0 time=0
note_on channel=0 note=71 velocity=0 time=0
note_on channel=0 note=89 velocity=0 time=0
note_on channel=0 note=79 velocity=75 time=0
note_on channel=0 note=88 velocity=78 time=0
note_on channel=0 note=60 velocity=39 time=0
note_on channel=0 note=72 velocity=39 time=0
note_on channel=0 note=79 velocity=0 time=51
note_on channel=0 note=83 velocity=68 time=0
note_on channel=0 note=83 velocity=0 time=120
note_on channel=0 note=84 velocity=82 time=0
note_on channel=0 note=84 velocity=0 time=0
note_on channel=0 note=79 velocity=69 time=0
note_on channel=0 note=79 velocity=0 time=120
note_on channel=0 note=84 velocity=74 time=0
note_on channel=0 note=84 velocity=0 time=0
note_on channel=0 note=88 velocity=0 time=0
note_on channel=0 note=60 velocity=0 time=0
note_on channel=0 note=72 velocity=0 time=0
note_on channel=0 note=76 velocity=79 time=0
note_on channel=0 note=88 velocity=93 time=0
note_on channel=0 note=84 velocity=79 time=0
note_on channel=0 note=79 velocity=79 time=0
note_on channel=0 note=36 velocity=56 time=0
note_on channel=0 note=48 velocity=66 time=0
note_on channel=0 note=48 velocity=0 time=0
note_on channel=0 note=88 velocity=0 time=0
note_on channel=0 note=84 velocity=0 time=0
note_on channel=0 note=76 velocity=0 time=0
note_on channel=0 note=36 velocity=0 time=0
note_on channel=0 note=79 velocity=0 time=0
note_on channel=0 note=83 velocity=74 time=0
note_on channel=0 note=86 velocity=88 time=0
note_on channel=0 note=86 velocity=0 time=0
note_on channel=0 note=83 velocity=0 time=0
note_on channel=0 note=84 velocity=74 time=0
note_on channel=0 note=88 velocity=86 time=0
note_on channel=0 note=88 velocity=0 time=46
note_on channel=0 note=84 velocity=0 time=0
note_on channel=0 note=89 velocity=92 time=0
note_on channel=0 note=86 velocity=78 time=0
note_on channel=0 note=86 velocity=0 time=120
note_on channel=0 note=89 velocity=0 time=0
note_on channel=0 note=88 velocity=81 time=0
note_on channel=0 note=91 velocity=96 time=0
note_on channel=0 note=91 velocity=0 time=120
note_on channel=0 note=88 velocity=0 time=0
note_on channel=0 note=84 velocity=77 time=120
note_on channel=0 note=88 velocity=91 time=0
note_on channel=0 note=64 velocity=82 time=0
note_on channel=0 note=60 velocity=69 time=0
note_on channel=0 note=60 velocity=0 time=120
note_on channel=0 note=84 velocity=0 time=0
note_on channel=0 note=88 velocity=0 time=0
note_on channel=0 note=64 velocity=0 time=0
note_on channel=0 note=59 velocity=67 time=120
note_on channel=0 note=62 velocity=79 time=0
note_on channel=0 note=62 velocity=0 time=240
note_on channel=0 note=59 velocity=0 time=0
note_on channel=0 note=60 velocity=68 time=0
note_on channel=0 note=64 velocity=81 time=0
note_on channel=0 note=64 velocity=0 time=57
note_on channel=0 note=60 velocity=0 time=0
note_on channel=0 note=65 velocity=84 time=0
note_on channel=0 note=62 velocity=71 time=0
note_on channel=0 note=62 velocity=0 time=120
note_on channel=0 note=65 velocity=0 time=0
note_on channel=0 note=67 velocity=88 time=0
note_on channel=0 note=64 velocity=74 time=0
note_on channel=0 note=64 velocity=0 time=120
note_on channel=0 note=67 velocity=0 time=0
note_on channel=0 note=79 velocity=79 time=0
note_on channel=0 note=76 velocity=79 time=0
note_on channel=0 note=88 velocity=93 time=0
note_on channel=0 note=84 velocity=79 time=0
note_on channel=0 note=48 velocity=66 time=0
note_on channel=0 note=36 velocity=56 time=0
note_on channel=0 note=36 velocity=0 time=0
note_on channel=0 note=76 velocity=0 time=0
note_on channel=0 note=88 velocity=0 time=0
note_on channel=0 note=79 velocity=0 time=0
note_on channel=0 note=48 velocity=0 time=0
note_on channel=0 note=84 velocity=0 time=0
note_on channel=0 note=86 velocity=88 time=0
note_on channel=0 note=83 velocity=74 time=0
note_on channel=0 note=83 velocity=0 time=0
note_on channel=0 note=86 velocity=0 time=0
note_on channel=0 note=88 velocity=86 time=0
note_on channel=0 note=84 velocity=74 time=0
note_on channel=0 note=84 velocity=0 time=46
note_on channel=0 note=88 velocity=0 time=0
note_on channel=0 note=86 velocity=78 time=0
note_on channel=0 note=89 velocity=92 time=0
note_on channel=0 note=89 velocity=0 time=120
note_on channel=0 note=86 velocity=0 time=0
note_on channel=0 note=88 velocity=81 time=0
note_on channel=0 note=91 velocity=96 time=0
note_on channel=0 note=91 velocity=0 time=120
note_on channel=0 note=88 velocity=0 time=0
note_on channel=0 note=88 velocity=86 time=120
note_on channel=0 note=79 velocity=86 time=0
note_on channel=0 note=81 velocity=86 time=0
note_on channel=0 note=91 velocity=103 time=0
note_on channel=0 note=37 velocity=62 time=0
note_on channel=0 note=49 velocity=74 time=0
note_on channel=0 note=49 velocity=0 time=240
note_on channel=0 note=79 velocity=0 time=0
note_on channel=0 note=81 velocity=0 time=0
note_on channel=0 note=88 velocity=0 time=0
note_on channel=0 note=37 velocity=0 time=0
note_on channel=0 note=91 velocity=0 time=0
note_on channel=0 note=88 velocity=86 time=240
note_on channel=0 note=85 velocity=86 time=0
note_on channel=0 note=91 velocity=103 time=0
note_on channel=0 note=79 velocity=86 time=0
note_on channel=0 note=45 velocity=79 time=0
note_on channel=0 note=33 velocity=67 time=0
note_on channel=0 note=33 velocity=0 time=240
note_on channel=0 note=85 velocity=0 time=0
note_on channel=0 note=91 velocity=0 time=0
note_on channel=0 note=88 velocity=0 time=0
note_on channel=0 note=45 velocity=0 time=0
note_on channel=0 note=79 velocity=0 time=0
note_on channel=0 note=91 velocity=103 time=240
note_on channel=0 note=86 velocity=86 time=0
note_on channel=0 note=83 velocity=86 time=0
note_on channel=0 note=79 velocity=86 time=0
note_on channel=0 note=50 velocity=74 time=0
note_on channel=0 note=38 velocity=62 time=0
note_on channel=0 note=38 velocity=0 time=240
note_on channel=0 note=86 velocity=0 time=0
note_on channel=0 note=83 velocity=0 time=0
note_on channel=0 note=91 velocity=0 time=0
note_on channel=0 note=50 velocity=0 time=0
note_on channel=0 note=79 velocity=0 time=0
note_on channel=0 note=79 velocity=86 time=240
note_on channel=0 note=91 velocity=103 time=0
note_on channel=0 note=85 velocity=86 time=0
note_on channel=0 note=81 velocity=86 time=0
note_on channel=0 note=52 velocity=79 time=0
note_on channel=0 note=40 velocity=67 time=0
note_on channel=0 note=40 velocity=0 time=0
note_on channel=0 note=91 velocity=0 time=0
note_on channel=0 note=85 velocity=0 time=0
note_on channel=0 note=79 velocity=0 time=0
note_on channel=0 note=52 velocity=0 time=0
note_on channel=0 note=81 velocity=0 time=0
note_on channel=0 note=91 velocity=77 time=0
note_on channel=0 note=83 velocity=65 time=0
note_on channel=0 note=86 velocity=65 time=0
note_on channel=0 note=79 velocity=65 time=0
note_on channel=0 note=38 velocity=50 time=0
note_on channel=0 note=38 velocity=0 time=0
note_on channel=0 note=42 velocity=50 time=0
note_on channel=0 note=42 velocity=0 time=120
note_on channel=0 note=43 velocity=50 time=0
note_on channel=0 note=43 velocity=0 time=49
note_on channel=0 note=47 velocity=50 time=0
note_on channel=0 note=47 velocity=0 time=120
note_on channel=0 note=79 velocity=0 time=0
note_on channel=0 note=91 velocity=0 time=0
note_on channel=0 note=83 velocity=0 time=0
note_on channel=0 note=86 velocity=0 time=0
note_on channel=0 note=79 velocity=54 time=0
note_on channel=0 note=86 velocity=64 time=0
note_on channel=0 note=83 velocity=54 time=0
note_on channel=0 note=50 velocity=50 time=0
note_on channel=0 note=50 velocity=0 time=14
note_on channel=0 note=54 velocity=50 time=0
note_on channel=0 note=54 velocity=0 time=120
note_on channel=0 note=55 velocity=50 time=0
note_on channel=0 note=55 velocity=0 time=120
note_on channel=0 note=59 velocity=50 time=0
note_on channel=0 note=59 velocity=0 time=120
note_on channel=0 note=62 velocity=50 time=0
note_on channel=0 note=62 velocity=0 time=7
note_on channel=0 note=66 velocity=50 time=0
note_on channel=0 note=66 velocity=0 time=120
note_on channel=0 note=83 velocity=0 time=0
note_on channel=0 note=86 velocity=0 time=0
note_on channel=0 note=79 velocity=0 time=0
note_on channel=0 note=74 velocity=53 time=0
note_on channel=0 note=83 velocity=63 time=0
note_on channel=0 note=79 velocity=53 time=0
note_on channel=0 note=67 velocity=50 time=0
note_on channel=0 note=67 velocity=0 time=120
note_on channel=0 note=71 velocity=50 time=0
note_on channel=0 note=71 velocity=0 time=120
note_on channel=0 note=79 velocity=0 time=0
note_on channel=0 note=83 velocity=0 time=0
note_on channel=0 note=74 velocity=0 time=0
note_on channel=0 note=74 velocity=56 time=0
note_on channel=0 note=74 velocity=0 time=21
note_on channel=0 note=78 velocity=57 time=0
note_on channel=0 note=78 velocity=0 time=120
note_on channel=0 note=79 velocity=58 time=0
note_on channel=0 note=67 velocity=43 time=0
note_on channel=0 note=67 velocity=0 time=120
note_on channel=0 note=79 velocity=0 time=0
note_on channel=0 note=83 velocity=59 time=0
note_on channel=0 note=71 velocity=44 time=0
note_on channel=0 note=71 velocity=0 time=120
note_on channel=0 note=83 velocity=0 time=0
note_on channel=0 note=85 velocity=60 time=0
note_on channel=0 note=73 velocity=45 time=0
note_on channel=0 note=73 velocity=0 time=40
note_on channel=0 note=85 velocity=0 time=0
note_on channel=0 note=86 velocity=61 time=0
note_on channel=0 note=74 velocity=46 time=0
note_on channel=0 note=74 velocity=0 time=120
note_on channel=0 note=86 velocity=0 time=0
note_on channel=0 note=88 velocity=62 time=0
note_on channel=0 note=76 velocity=47 time=0
note_on channel=0 note=76 velocity=0 time=120
note_on channel=0 note=88 velocity=0 time=0
note_on channel=0 note=86 velocity=62 time=0
note_on channel=0 note=74 velocity=48 time=0
note_on channel=0 note=74 velocity=0 time=120
note_on channel=0 note=86 velocity=0 time=0
note_on channel=0 note=90 velocity=63 time=0
note_on channel=0 note=78 velocity=50 time=0
note_on channel=0 note=78 velocity=0 time=45
note_on channel=0 note=90 velocity=0 time=0
note_on channel=0 note=91 velocity=64 time=0
note_on channel=0 note=79 velocity=51 time=0
note_on channel=0 note=79 velocity=0 time=120
note_on channel=0 note=91 velocity=0 time=0
note_on channel=0 note=93 velocity=65 time=0
note_on channel=0 note=81 velocity=52 time=0
note_on channel=0 note=81 velocity=0 time=120
note_on channel=0 note=93 velocity=0 time=0
note_on channel=0 note=91 velocity=66 time=0
note_on channel=0 note=79 velocity=53 time=0
note_on channel=0 note=79 velocity=0 time=0
note_on channel=0 note=91 velocity=0 time=0
note_on channel=0 note=94 velocity=67 time=0
note_on channel=0 note=82 velocity=54 time=0
note_on channel=0 note=82 velocity=0 time=5
note_on channel=0 note=94 velocity=0 time=0
note_on channel=0 note=95 velocity=68 time=0
note_on channel=0 note=83 velocity=55 time=0
note_on channel=0 note=83 velocity=0 time=29
note_on channel=0 note=95 velocity=0 time=0
note_on channel=0 note=96 velocity=69 time=0
note_on channel=0 note=84 velocity=56 time=0
note_on channel=0 note=84 velocity=0 time=34
note_on channel=0 note=96 velocity=0 time=0
note_on channel=0 note=95 velocity=70 time=0
note_on channel=0 note=83 velocity=58 time=0
note_on channel=0 note=83 velocity=0 time=58
note_on channel=0 note=95 velocity=0 time=0
note_on channel=0 note=98 velocity=71 time=0
note_on channel=0 note=86 velocity=59 time=0
note_on channel=0 note=86 velocity=0 time=0
note_on channel=0 note=98 velocity=0 time=0
note_on channel=0 note=84 velocity=70 time=0
note_on channel=0 note=81 velocity=59 time=0
note_on channel=0 note=74 velocity=59 time=0
note_on channel=0 note=62 velocity=60 time=0
note_on channel=0 note=62 velocity=0 time=20
note_on channel=0 note=64 velocity=63 time=0
note_on channel=0 note=64 velocity=0 time=0
note_on channel=0 note=66 velocity=66 time=0
note_on channel=0 note=66 velocity=0 time=0
note_on channel=0 note=84 velocity=0 time=0
note_on channel=0 note=81 velocity=0 time=0
note_on channel=0 note=74 velocity=0 time=0
note_on channel=0 note=74 velocity=49 time=0
note_on channel=0 note=83 velocity=58 time=0
note_on channel=0 note=79 velocity=49 time=0
note_on channel=0 note=55 velocity=40 time=0
note_on channel=0 note=55 velocity=0 time=40
note_on channel=0 note=71 velocity=32 time=0
note_on channel=0 note=71 velocity=0 time=80
note_on channel=0 note=67 velocity=32 time=0
note_on channel=0 note=67 velocity=0 time=160
note_on channel=0 note=66 velocity=40 time=0
note_on channel=0 note=66 velocity=0 time=160
note_on channel=0 note=71 velocity=33 time=0
note_on channel=0 note=71 velocity=0 time=160
note_on channel=0 note=67 velocity=33 time=0
note_on channel=0 note=67 velocity=0 time=0
note_on channel=0 note=79 velocity=0 time=0
note_on channel=0 note=83 velocity=0 time=0
note_on channel=0 note=74 velocity=0 time=0
note_on channel=0 note=84 velocity=57 time=0
note_on channel=0 note=79 velocity=48 time=0
note_on channel=0 note=63 velocity=40 time=0
note_on channel=0 note=63 velocity=0 time=74
note_on channel=0 note=72 velocity=31 time=0
note_on channel=0 note=72 velocity=0 time=160
note_on channel=0 note=67 velocity=31 time=0
note_on channel=0 note=67 velocity=0 time=0
note_on channel=0 note=79 velocity=0 time=0
note_on channel=0 note=84 velocity=0 time=0
note_on channel=0 note=84 velocity=51 time=0
note_on channel=0 note=87 velocity=61 time=0
note_on channel=0 note=79 velocity=51 time=0
note_on channel=0 note=60 velocity=40 time=0
note_on channel=0 note=60 velocity=0 time=63
note_on channel=0 note=72 velocity=33 time=0
note_on channel=0 note=72 velocity=0 time=0
note_on channel=0 note=67 velocity=33 time=0
note_on channel=0 note=67 velocity=0 time=0
note_on channel=0 note=84 velocity=0 time=0
note_on channel=0 note=87 velocity=0 time=0
note_on channel=0 note=79 velocity=0 time=0
note_on channel=0 note=91 velocity=56 time=0
note_on channel=0 note=79 velocity=56 time=0
note_on channel=0 note=86 velocity=67 time=0
note_on channel=0 note=59 velocity=40 time=0
note_on channel=0 note=59 velocity=0 time=26
note_on channel=0 note=71 velocity=31 time=0
note_on channel=0 note=71 velocity=0 time=160
note_on channel=0 note=67 velocity=31 time=0
note_on channel=0 note=67 velocity=0 time=160
note_on channel=0 note=86 velocity=0 time=0
note_on channel=0 note=83 velocity=61 time=0
note_on channel=0 note=55 velocity=40 time=0
note_on channel=0 note=55 velocity=0 time=75
note_on channel=0 note=71 velocity=32 time=0
note_on channel=0 note=71 velocity=0 time=0
note_on channel=0 note=67 velocity=32 time=0
note_on channel=0 note=67 velocity=0 time=0
note_on channel=0 note=91 velocity=0 time=0
note_on channel=0 note=79 velocity=0 time=0
note_on channel=0 note=83 velocity=0 time=0
note_on channel=0 note=84 velocity=51 time=0
note_on channel=0 note=79 velocity=51 time=0
note_on channel=0 note=87 velocity=60 time=0
note_on channel=0 note=60 velocity=40 time=0
note_on channel=0 note=60 velocity=0 time=74
note_on channel=0 note=72 velocity=33 time=0
note_on channel=0 note=72 velocity=0 time=160
note_on channel=0 note=67 velocity=33 time=0
note_on channel=0 note=67 velocity=0 time=160
note_on channel=0 note=84 velocity=0 time=0
note_on channel=0 note=79 velocity=0 time=0
note_on channel=0 note=87 velocity=0 time=0
note_on channel=0 note=84 velocity=63 time=0
note_on channel=0 note=79 velocity=53 time=0
note_on channel=0 note=63 velocity=40 time=0
note_on channel=0 note=63 velocity=0 time=68
note_on channel=0 note=72 velocity=32 time=0
note_on channel=0 note=72 velocity=0 time=0
note_on channel=0 note=67 velocity=32 time=0
note_on channel=0 note=67 velocity=0 time=0
note_on channel=0 note=79 velocity=0 time=0
note_on channel=0 note=84 velocity=0 time=0
note_on channel=0 note=79 velocity=56 time=0
note_on channel=0 note=82 velocity=66 time=0
note_on channel=0 note=62 velocity=40 time=0
note_on channel=0 note=62 velocity=0 time=68
note_on channel=0 note=70 velocity=32 time=0
note_on channel=0 note=70 velocity=0 time=160
note_on channel=0 note=67 velocity=32 time=0
note_on channel=0 note=67 velocity=0 time=160
note_on channel=0 note=82 velocity=0 time=0
note_on channel=0 note=83 velocity=59 time=0
note_on channel=0 note=62 velocity=40 time=0
note_on channel=0 note=62 velocity=0 time=68
note_on channel=0 note=71 velocity=36 time=0
note_on channel=0 note=71 velocity=0 time=0
note_on channel=0 note=67 velocity=36 time=0
note_on channel=0 note=67 velocity=0 time=0
note_on channel=0 note=83 velocity=0 time=0
note_on channel=0 note=79 velocity=0 time=0
note_on channel=0 note=86 velocity=64 time=0
note_on channel=0 note=78 velocity=54 time=0
note_on channel=0 note=62 velocity=40 time=0
note_on channel=0 note=62 velocity=0 time=54
note_on channel=0 note=72 velocity=33 time=0
note_on channel=0 note=72 velocity=0 time=160
note_on channel=0 note=69 velocity=33 time=0
note_on channel=0 note=69 velocity=0 time=160
note_on channel=0 note=78 velocity=0 time=0
note_on channel=0 note=86 velocity=0 time=0
note_on channel=0 note=81 velocity=53 time=0
note_on channel=0 note=84 velocity=63 time=0
note_on channel=0 note=50 velocity=40 time=0
note_on channel=0 note=50 velocity=0 time=0
note_on channel=0 note=62 velocity=34 time=0
note_on channel=0 note=74 velocity=52 time=80
note_on channel=0 note=62 velocity=0 time=80
note_on channel=0 note=60 velocity=34 time=0
note_on channel=0 note=81 velocity=0 time=40
note_on channel=0 note=84 velocity=0 time=0
note_on channel=0 note=81 velocity=57 time=0
note_on channel=0 note=78 velocity=48 time=0
note_on channel=0 note=78 velocity=0 time=3
note_on channel=0 note=60 velocity=0 time=0
note_on channel=0 note=74 velocity=0 time=0
note_on channel=0 note=81 velocity=0 time=0
note_on channel=0 note=83 velocity=58 time=0
note_on channel=0 note=74 velocity=49 time=0
note_on channel=0 note=79 velocity=49 time=0
note_on channel=0 note=43 velocity=40 time=0
note_on channel=0 note=79 velocity=0 time=7
note_on channel=0 note=81 velocity=42 time=0
note_on channel=0 note=43 velocity=0 time=8
note_on channel=0 note=55 velocity=33 time=0
note_on channel=0 note=81 velocity=0 time=10
note_on channel=0 note=79 velocity=49 time=0
note_on channel=0 note=55 velocity=0 time=12
note_on channel=0 note=74 velocity=0 time=0
note_on channel=0 note=59 velocity=33 time=0
note_on channel=0 note=81 velocity=44 time=1
note_on channel=0 note=79 velocity=0 time=1
note_on channel=0 note=81 velocity=0 time=18
note_on channel=0 note=79 velocity=49 time=0
note_on channel=0 note=59 velocity=0 time=17
note_on channel=0 note=55 velocity=33 time=0
note_on channel=0 note=79 velocity=0 time=2
note_on channel=0 note=81 velocity=44 time=0
note_on channel=0 note=55 velocity=0 time=3
note_on channel=0 note=79 velocity=50 time=0
note_on channel=0 note=54 velocity=41 time=0
note_on channel=0 note=81 velocity=0 time=3
note_on channel=0 note=79 velocity=0 time=26
note_on channel=0 note=81 velocity=44 time=0
note_on channel=0 note=54 velocity=0 time=39
note_on channel=0 note=55 velocity=35 time=0
note_on channel=0 note=81 velocity=0 time=41
note_on channel=0 note=79 velocity=50 time=0
note_on channel=0 note=55 velocity=0 time=79
note_on channel=0 note=67 velocity=35 time=0
note_on channel=0 note=81 velocity=46 time=1
note_on channel=0 note=79 velocity=0 time=1
note_on channel=0 note=81 velocity=0 time=80
note_on channel=0 note=79 velocity=51 time=0
note_on channel=0 note=67 velocity=0 time=38
note_on channel=0 note=55 velocity=35 time=0
note_on channel=0 note=79 velocity=0 time=42
note_on channel=0 note=81 velocity=45 time=0
note_on channel=0 note=55 velocity=0 time=22
note_on channel=0 note=83 velocity=0 time=0
note_on channel=0 note=84 velocity=67 time=0
note_on channel=0 note=79 velocity=51 time=0
note_on channel=0 note=52 velocity=42 time=0
note_on channel=0 note=81 velocity=0 time=3
note_on channel=0 note=79 velocity=0 time=28
note_on channel=0 note=81 velocity=44 time=0
note_on channel=0 note=52 velocity=0 time=39
note_on channel=0 note=55 velocity=36 time=0
note_on channel=0 note=81 velocity=0 time=41
note_on channel=0 note=79 velocity=52 time=0
note_on channel=0 note=55 velocity=0 time=70
note_on channel=0 note=67 velocity=36 time=0
note_on channel=0 note=81 velocity=47 time=1
note_on channel=0 note=79 velocity=0 time=1
note_on channel=0 note=81 velocity=0 time=80
note_on channel=0 note=79 velocity=52 time=0
note_on channel=0 note=67 velocity=0 time=17
note_on channel=0 note=55 velocity=37 time=0
note_on channel=0 note=79 velocity=0 time=2
note_on channel=0 note=81 velocity=47 time=0
note_on channel=0 note=55 velocity=0 time=22
note_on channel=0 note=84 velocity=0 time=0
note_on channel=0 note=79 velocity=53 time=0
note_on channel=0 note=88 velocity=73 time=0
note_on channel=0 note=48 velocity=44 time=0
note_on channel=0 note=81 velocity=0 time=3
note_on channel=0 note=79 velocity=0 time=45
note_on channel=0 note=81 velocity=47 time=0
note_on channel=0 note=48 velocity=0 time=8
note_on channel=0 note=55 velocity=37 time=0
note_on channel=0 note=81 velocity=0 time=41
note_on channel=0 note=79 velocity=54 time=0
note_on channel=0 note=55 velocity=0 time=12
note_on channel=0 note=64 velocity=37 time=0
note_on channel=0 note=81 velocity=48 time=1
note_on channel=0 note=79 velocity=0 time=1
note_on channel=0 note=81 velocity=0 time=2
note_on channel=0 note=79 velocity=54 time=0
note_on channel=0 note=64 velocity=0 time=38
note_on channel=0 note=55 velocity=38 time=0
note_on channel=0 note=79 velocity=0 time=42
note_on channel=0 note=81 velocity=48 time=0
note_on channel=0 note=55 velocity=0 time=3
note_on channel=0 note=88 velocity=0 time=0
note_on channel=0 note=79 velocity=55 time=0
note_on channel=0 note=91 velocity=67 time=0
note_on channel=0 note=47 velocity=45 time=0
note_on channel=0 note=81 velocity=0 time=3
note_on channel=0 note=79 velocity=0 time=24
note_on channel=0 note=81 velocity=47 time=0
note_on channel=0 note=47 velocity=0 time=8
note_on channel=0 note=55 velocity=37 time=0
note_on channel=0 note=81 velocity=0 time=41
note_on channel=0 note=79 velocity=55 time=0
note_on channel=0 note=55 velocity=0 time=32
note_on channel=0 note=62 velocity=37 time=0
note_on channel=0 note=81 velocity=50 time=1
note_on channel=0 note=79 velocity=0 time=1
note_on channel=0 note=81 velocity=0 time=18
note_on channel=0 note=79 velocity=56 time=0
note_on channel=0 note=62 velocity=0 time=38
note_on channel=0 note=55 velocity=37 time=0
note_on channel=0 note=79 velocity=0 time=2
note_on channel=0 note=81 velocity=51 time=0
note_on channel=0 note=55 velocity=0 time=78
note_on channel=0 note=79 velocity=56 time=0
note_on channel=0 note=43 velocity=46 time=0
note_on channel=0 note=81 velocity=0 time=3
note_on channel=0 note=79 velocity=0 time=26
note_on channel=0 note=81 velocity=50 time=0
note_on channel=0 note=43 velocity=0 time=39
note_on channel=0 note=55 velocity=39 time=0
note_on channel=0 note=81 velocity=0 time=29
note_on channel=0 note=79 velocity=57 time=0
note_on channel=0 note=55 velocity=0 time=32
note_on channel=0 note=59 velocity=40 time=0
note_on channel=0 note=81 velocity=51 time=1
note_on channel=0 note=79 velocity=0 time=1
note_on channel=0 note=81 velocity=0 time=2
note_on channel=0 note=79 velocity=57 time=0
note_on channel=0 note=59 velocity=0 time=38
note_on channel=0 note=55 velocity=40 time=0
note_on channel=0 note=79 velocity=0 time=42
note_on channel=0 note=81 velocity=51 time=0
note_on channel=0 note=55 velocity=0 time=22
note_on channel=0 note=91 velocity=0 time=0
note_on channel=0 note=88 velocity=72 time=0
note_on channel=0 note=79 velocity=58 time=0
note_on channel=0 note=48 velocity=48 time=0
note_on channel=0 note=81 velocity=0 time=3
note_on channel=0 note=79 velocity=0 time=35
note_on channel=0 note=81 velocity=50 time=0
note_on channel=0 note=48 velocity=0 time=27
note_on channel=0 note=55 velocity=42 time=0
note_on channel=0 note=81 velocity=0 time=41
note_on channel=0 note=79 velocity=59 time=0
note_on channel=0 note=55 velocity=0 time=51
note_on channel=0 note=64 velocity=42 time=0
note_on channel=0 note=81 velocity=53 time=1
note_on channel=0 note=79 velocity=0 time=1
note_on channel=0 note=81 velocity=0 time=37
note_on channel=0 note=79 velocity=59 time=0
note_on channel=0 note=64 velocity=0 time=17
note_on channel=0 note=55 velocity=42 time=0
note_on channel=0 note=79 velocity=0 time=42
note_on channel=0 note=81 velocity=53 time=0
note_on channel=0 note=55 velocity=0 time=41
note_on channel=0 note=88 velocity=0 time=0
note_on channel=0 note=84 velocity=77 time=0
note_on channel=0 note=79 velocity=60 time=0
note_on channel=0 note=52 velocity=51 time=0
note_on channel=0 note=81 velocity=0 time=3
note_on channel=0 note=79 velocity=0 time=45
note_on channel=0 note=81 velocity=52 time=0
note_on channel=0 note=52 velocity=0 time=39
note_on channel=0 note=55 velocity=43 time=0
note_on channel=0 note=81 velocity=0 time=29
note_on channel=0 note=79 velocity=60 time=0
note_on channel=0 note=55 velocity=0 time=32
note_on channel=0 note=67 velocity=43 time=0
note_on channel=0 note=81 velocity=55 time=1
note_on channel=0 note=79 velocity=0 time=1
note_on channel=0 note=81 velocity=0 time=2
note_on channel=0 note=79 velocity=61 time=0
note_on channel=0 note=67 velocity=0 time=38
note_on channel=0 note=55 velocity=43 time=0
note_on channel=0 note=79 velocity=0 time=42
note_on channel=0 note=81 velocity=54 time=0
note_on channel=0 note=55 velocity=0 time=0
note_on channel=0 note=84 velocity=0 time=0
note_on channel=0 note=79 velocity=61 time=0
note_on channel=0 note=82 velocity=83 time=0
note_on channel=0 note=50 velocity=50 time=0
note_on channel=0 note=81 velocity=0 time=3
note_on channel=0 note=79 velocity=0 time=17
note_on channel=0 note=81 velocity=53 time=0
note_on channel=0 note=50 velocity=0 time=39
note_on channel=0 note=52 velocity=44 time=0
note_on channel=0 note=81 velocity=0 time=41
note_on channel=0 note=79 velocity=62 time=0
note_on channel=0 note=52 velocity=0 time=12
note_on channel=0 note=82 velocity=0 time=0
note_on channel=0 note=83 velocity=75 time=0
note_on channel=0 note=54 velocity=48 time=0
note_on channel=0 note=81 velocity=56 time=1
note_on channel=0 note=79 velocity=0 time=1
note_on channel=0 note=81 velocity=0 time=4
note_on channel=0 note=79 velocity=62 time=0
note_on channel=0 note=54 velocity=0 time=38
note_on channel=0 note=55 velocity=51 time=0
note_on channel=0 note=79 velocity=0 time=42
note_on channel=0 note=81 velocity=56 time=0
note_on channel=0 note=55 velocity=0 time=60
note_on channel=0 note=79 velocity=63 time=0
note_on channel=0 note=57 velocity=54 time=0
note_on channel=0 note=81 velocity=0 time=3
note_on channel=0 note=79 velocity=0 time=78
note_on channel=0 note=81 velocity=55 time=0
note_on channel=0 note=57 velocity=0 time=27
note_on channel=0 note=59 velocity=55 time=0
note_on channel=0 note=81 velocity=0 time=41
note_on channel=0 note=79 velocity=64 time=0
note_on channel=0 note=59 velocity=0 time=12
note_on channel=0 note=83 velocity=0 time=0
note_on channel=0 note=86 velocity=86 time=0
note_on channel=0 note=57 velocity=55 time=0
note_on channel=0 note=81 velocity=57 time=1
note_on channel=0 note=79 velocity=0 time=1
note_on channel=0 note=81 velocity=0 time=2
note_on channel=0 note=79 velocity=64 time=0
note_on channel=0 note=57 velocity=0 time=38
note_on channel=0 note=55 velocity=54 time=0
note_on channel=0 note=79 velocity=0 time=42
note_on channel=0 note=81 velocity=56 time=0
note_on channel=0 note=55 velocity=0 time=22
note_on channel=0 note=86 velocity=0 time=0
note_on channel=0 note=86 velocity=75 time=0
note_on channel=0 note=54 velocity=54 time=0
note_on channel=0 note=81 velocity=0 time=3
note_on channel=0 note=86 velocity=0 time=17
note_on channel=0 note=88 velocity=66 time=0
note_on channel=0 note=54 velocity=0 time=27
note_on channel=0 note=55 velocity=49 time=0
note_on channel=0 note=88 velocity=0 time=41
note_on channel=0 note=86 velocity=75 time=0
note_on channel=0 note=55 velocity=0 time=51
note_on channel=0 note=74 velocity=60 time=0
note_on channel=0 note=54 velocity=49 time=0
note_on channel=0 note=88 velocity=64 time=1
note_on channel=0 note=86 velocity=0 time=1
note_on channel=0 note=88 velocity=0 time=18
note_on channel=0 note=86 velocity=75 time=0
note_on channel=0 note=54 velocity=0 time=38
note_on channel=0 note=52 velocity=49 time=0
note_on channel=0 note=86 velocity=0 time=21
note_on channel=0 note=88 velocity=68 time=0
note_on channel=0 note=52 velocity=0 time=3
note_on channel=0 note=74 velocity=0 time=0
note_on channel=0 note=86 velocity=78 time=0
note_on channel=0 note=50 velocity=54 time=0
note_on channel=0 note=88 velocity=0 time=3
note_on channel=0 note=86 velocity=0 time=7
note_on channel=0 note=88 velocity=69 time=0
note_on channel=0 note=50 velocity=0 time=39
note_on channel=0 note=48 velocity=50 time=0
note_on channel=0 note=88 velocity=0 time=10
note_on channel=0 note=86 velocity=75 time=0
note_on channel=0 note=48 velocity=0 time=79
note_on channel=0 note=85 velocity=75 time=0
note_on channel=0 note=47 velocity=59 time=0
note_on channel=0 note=86 velocity=0 time=2
note_on channel=0 note=47 velocity=0 time=36
note_on channel=0 note=85 velocity=0 time=0
note_on channel=0 note=86 velocity=79 time=0
note_on channel=0 note=45 velocity=66 time=0
note_on channel=0 note=45 velocity=0 time=0
note_on channel=0 note=86 velocity=0 time=0
note_on channel=0 note=89 velocity=73 time=0
note_on channel=0 note=86 velocity=73 time=0
note_on channel=0 note=95 velocity=73 time=0
note_on channel=0 note=98 velocity=86 time=0
note_on channel=0 note=31 velocity=66 time=0
note_on channel=0 note=31 velocity=0 time=17
note_on channel=0 note=95 velocity=0 time=0
note_on channel=0 note=89 velocity=0 time=0
note_on channel=0 note=86 velocity=0 time=0
note_on channel=0 note=98 velocity=0 time=0
note_on channel=0 note=43 velocity=56 time=0
note_on channel=0 note=43 velocity=0 time=120
note_on channel=0 note=86 velocity=66 time=0
note_on channel=0 note=89 velocity=66 time=0
note_on channel=0 note=95 velocity=66 time=0
note_on channel=0 note=98 velocity=78 time=0
note_on channel=0 note=31 velocity=66 time=0
note_on channel=0 note=31 velocity=0 time=120
note_on channel=0 note=43 velocity=56 time=0
note_on channel=0 note=43 velocity=0 time=0
note_on channel=0 note=31 velocity=66 time=0
note_on channel=0 note=31 velocity=0 time=120
note_on channel=0 note=43 velocity=57 time=0
note_on channel=0 note=43 velocity=0 time=0
note_on channel=0 note=98 velocity=0 time=0
note_on channel=0 note=86 velocity=0 time=0
note_on channel=0 note=89 velocity=0 time=0
note_on channel=0 note=95 velocity=0 time=0
note_on channel=0 note=86 velocity=66 time=0
note_on channel=0 note=84 velocity=66 time=0
note_on channel=0 note=89 velocity=66 time=0
note_on channel=0 note=96 velocity=78 time=0
note_on channel=0 note=31 velocity=66 time=0
note_on channel=0 note=31 velocity=0 time=28
note_on channel=0 note=89 velocity=0 time=0
note_on channel=0 note=86 velocity=0 time=0
note_on channel=0 note=84 velocity=0 time=0
note_on channel=0 note=96 velocity=0 time=0
note_on channel=0 note=43 velocity=57 time=0
note_on channel=0 note=43 velocity=0 time=0
note_on channel=0 note=89 velocity=67 time=0
note_on channel=0 note=95 velocity=79 time=0
note_on channel=0 note=83 velocity=67 time=0
note_on channel=0 note=86 velocity=67 time=0
note_on channel=0 note=31 velocity=66 time=0
note_on channel=0 note=31 velocity=0 time=120
note_on channel=0 note=83 velocity=0 time=0
note_on channel=0 note=89 velocity=0 time=0
note_on channel=0 note=95 velocity=0 time=0
note_on channel=0 note=86 velocity=0 time=0
note_on channel=0 note=43 velocity=57 time=0
note_on channel=0 note=43 velocity=0 time=103
note_on channel=0 note=86 velocity=70 time=0
note_on channel=0 note=96 velocity=83 time=0
note_on channel=0 note=89 velocity=70 time=0
note_on channel=0 note=84 velocity=70 time=0
note_on channel=0 note=31 velocity=66 time=0
note_on channel=0 note=31 velocity=0 time=57
note_on channel=0 note=89 velocity=0 time=0
note_on channel=0 note=86 velocity=0 time=0
note_on channel=0 note=96 velocity=0 time=0
note_on channel=0 note=84 velocity=0 time=0
note_on channel=0 note=43 velocity=58 time=0
note_on channel=0 note=43 velocity=0 time=80
note_on channel=0 note=98 velocity=82 time=0
note_on channel=0 note=86 velocity=69 time=0
note_on channel=0 note=89 velocity=69 time=0
note_on channel=0 note=31 velocity=66 time=0
note_on channel=0 note=31 velocity=0 time=57
note_on channel=0 note=98 velocity=0 time=0
note_on channel=0 note=86 velocity=0 time=0
note_on channel=0 note=89 velocity=0 time=0
note_on channel=0 note=43 velocity=59 time=0
note_on channel=0 note=43 velocity=0 time=0
note_on channel=0 note=95 velocity=69 time=0
note_on channel=0 note=83 velocity=58 time=0
note_on channel=0 note=86 velocity=58 time=0
note_on channel=0 note=88 velocity=58 time=0
note_on channel=0 note=32 velocity=45 time=0
note_on channel=0 note=32 velocity=0 time=45
note_on channel=0 note=86 velocity=0 time=0
note_on channel=0 note=95 velocity=0 time=0
note_on channel=0 note=83 velocity=0 time=0
note_on channel=0 note=88 velocity=0 time=0
note_on channel=0 note=44 velocity=34 time=0
note_on channel=0 note=44 velocity=0 time=0
note_on channel=0 note=88 velocity=50 time=0
note_on channel=0 note=96 velocity=59 time=0
note_on channel=0 note=84 velocity=50 time=0
note_on channel=0 note=33 velocity=43 time=0
note_on channel=0 note=33 velocity=0 time=120
note_on channel=0 note=88 velocity=0 time=0
note_on channel=0 note=96 velocity=0 time=0
note_on channel=0 note=84 velocity=0 time=0
note_on channel=0 note=45 velocity=33 time=0
note_on channel=0 note=45 velocity=0 time=97
note_on channel=0 note=83 velocity=45 time=0
note_on channel=0 note=86 velocity=45 time=0
note_on channel=0 note=88 velocity=45 time=0
note_on channel=0 note=95 velocity=53 time=0
note_on channel=0 note=32 velocity=43 time=0
note_on channel=0 note=32 velocity=0 time=80
note_on channel=0 note=88 velocity=0 time=0
note_on channel=0 note=83 velocity=0 time=0
note_on channel=0 note=86 velocity=0 time=0
note_on channel=0 note=95 velocity=0 time=0
note_on channel=0 note=44 velocity=33 time=0
note_on channel=0 note=44 velocity=0 time=91
note_on channel=0 note=96 velocity=59 time=0
note_on channel=0 note=88 velocity=50 time=0
note_on channel=0 note=84 velocity=50 time=0
note_on channel=0 note=33 velocity=43 time=0
note_on channel=0 note=33 velocity=0 time=68
note_on channel=0 note=96 velocity=0 time=0
note_on channel=0 note=88 velocity=0 time=0
note_on channel=0 note=84 velocity=0 time=0
note_on channel=0 note=45 velocity=34 time=0
note_on channel=0 note=45 velocity=0 time=0
note_on channel=0 note=84 velocity=45 time=0
note_on channel=0 note=93 velocity=53 time=0
note_on channel=0 note=88 velocity=45 time=0
note_on channel=0 note=81 velocity=45 time=0
note_on channel=0 note=36 velocity=43 time=0
note_on channel=0 note=36 velocity=0 time=63
note_on channel=0 note=88 velocity=0 time=0
note_on channel=0 note=84 velocity=0 time=0
note_on channel=0 note=93 velocity=0 time=0
note_on channel=0 note=81 velocity=0 time=0
note_on channel=0 note=48 velocity=35 time=0
note_on channel=0 note=48 velocity=0 time=0
note_on channel=0 note=81 velocity=50 time=0
note_on channel=0 note=88 velocity=50 time=0
note_on channel=0 note=91 velocity=59 time=0
note_on channel=0 note=37 velocity=43 time=0
note_on channel=0 note=37 velocity=0 time=120
note_on channel=0 note=81 velocity=0 time=0
note_on channel=0 note=88 velocity=0 time=0
note_on channel=0 note=91 velocity=0 time=0
note_on channel=0 note=49 velocity=33 time=0
note_on channel=0 note=49 velocity=0 time=97
note_on channel=0 note=91 velocity=53 time=0
note_on channel=0 note=81 velocity=45 time=0
note_on channel=0 note=85 velocity=45 time=0
note_on channel=0 note=40 velocity=43 time=0
note_on channel=0 note=40 velocity=0 time=80
note_on channel=0 note=91 velocity=0 time=0
note_on channel=0 note=81 velocity=0 time=0
note_on channel=0 note=85 velocity=0 time=0
note_on channel=0 note=52 velocity=33 time=0
note_on channel=0 note=52 velocity=0 time=85
note_on channel=0 note=90 velocity=59 time=0
note_on channel=0 note=81 velocity=50 time=0
note_on channel=0 note=84 velocity=50 time=0
note_on channel=0 note=38 velocity=43 time=0
note_on channel=0 note=38 velocity=0 time=63
note_on channel=0 note=90 velocity=0 time=0
note_on channel=0 note=81 velocity=0 time=0
note_on channel=0 note=84 velocity=0 time=0
note_on channel=0 note=50 velocity=34 time=0
note_on channel=0 note=50 velocity=0 time=0
note_on channel=0 note=84 velocity=45 time=0
note_on channel=0 note=93 velocity=53 time=0
note_on channel=0 note=81 velocity=45 time=0
note_on channel=0 note=38 velocity=43 time=0
note_on channel=0 note=38 velocity=0 time=51
note_on channel=0 note=84 velocity=0 time=0
note_on channel=0 note=93 velocity=0 time=0
note_on channel=0 note=81 velocity=0 time=0
note_on channel=0 note=50 velocity=35 time=0
note_on channel=0 note=50 velocity=0 time=0
note_on channel=0 note=91 velocity=64 time=0
note_on channel=0 note=83 velocity=55 time=0
note_on channel=0 note=79 velocity=55 time=0
note_on channel=0 note=38 velocity=47 time=0
note_on channel=0 note=38 velocity=0 time=70
note_on channel=0 note=91 velocity=0 time=0
note_on channel=0 note=83 velocity=0 time=0
note_on channel=0 note=79 velocity=0 time=0
note_on channel=0 note=50 velocity=36 time=0
note_on channel=0 note=50 velocity=0 time=120
note_on channel=0 note=83 velocity=50 time=0
note_on channel=0 note=86 velocity=59 time=0
note_on channel=0 note=74 velocity=50 time=0
note_on channel=0 note=43 velocity=48 time=0
note_on channel=0 note=43 velocity=0 time=120
note_on channel=0 note=83 velocity=0 time=0
note_on channel=0 note=86 velocity=0 time=0
note_on channel=0 note=74 velocity=0 time=0
note_on channel=0 note=55 velocity=37 time=0
note_on channel=0 note=55 velocity=0 time=120
note_on channel=0 note=84 velocity=58 time=0
note_on channel=0 note=78 velocity=58 time=0
note_on channel=0 note=90 velocity=69 time=0
note_on channel=0 note=38 velocity=50 time=0
note_on channel=0 note=38 velocity=0 time=120
note_on channel=0 note=84 velocity=0 time=0
note_on channel=0 note=78 velocity=0 time=0
note_on channel=0 note=90 velocity=0 time=0
note_on channel=0 note=50 velocity=40 time=0
note_on channel=0 note=50 velocity=0 time=118
note_on channel=0 note=90 velocity=55 time=0
note_on channel=0 note=84 velocity=55 time=0
note_on channel=0 note=93 velocity=65 time=0
note_on channel=0 note=81 velocity=55 time=0
note_on channel=0 note=50 velocity=53 time=0
note_on channel=0 note=50 velocity=0 time=106
note_on channel=0 note=93 velocity=0 time=0
note_on channel=0 note=90 velocity=0 time=0
note_on channel=0 note=84 velocity=0 time=0
note_on channel=0 note=81 velocity=0 time=0
note_on channel=0 note=62 velocity=44 time=0
note_on channel=0 note=62 velocity=0 time=0
note_on channel=0 note=83 velocity=63 time=0
note_on channel=0 note=79 velocity=63 time=0
note_on channel=0 note=91 velocity=75 time=0
note_on channel=0 note=38 velocity=54 time=0
note_on channel=0 note=38 velocity=0 time=14
note_on channel=0 note=83 velocity=0 time=0
note_on channel=0 note=79 velocity=0 time=0
note_on channel=0 note=91 velocity=0 time=0
note_on channel=0 note=50 velocity=42 time=0
note_on channel=0 note=50 velocity=0 time=120
note_on channel=0 note=83 velocity=59 time=0
note_on channel=0 note=74 velocity=59 time=0
note_on channel=0 note=86 velocity=69 time=0
note_on channel=0 note=43 velocity=57 time=0
note_on channel=0 note=43 velocity=0 time=120
note_on channel=0 note=83 velocity=0 time=0
note_on channel=0 note=74 velocity=0 time=0
note_on channel=0 note=86 velocity=0 time=0
note_on channel=0 note=55 velocity=44 time=0
note_on channel=0 note=55 velocity=0 time=120
note_on channel=0 note=84 velocity=69 time=0
note_on channel=0 note=90 velocity=80 time=0
note_on channel=0 note=78 velocity=69 time=0
note_on channel=0 note=38 velocity=58 time=0
note_on channel=0 note=38 velocity=0 time=120
note_on channel=0 note=84 velocity=0 time=0
note_on channel=0 note=90 velocity=0 time=0
note_on channel=0 note=78 velocity=0 time=0
note_on channel=0 note=50 velocity=47 time=0
note_on channel=0 note=50 velocity=0 time=118
note_on channel=0 note=90 velocity=64 time=0
note_on channel=0 note=84 velocity=64 time=0
note_on channel=0 note=81 velocity=64 time=0
note_on channel=0 note=93 velocity=76 time=0
note_on channel=0 note=50 velocity=61 time=0
note_on channel=0 note=50 velocity=0 time=21
note_on channel=0 note=81 velocity=0 time=0
note_on channel=0 note=90 velocity=0 time=0
note_on channel=0 note=84 velocity=0 time=0
note_on channel=0 note=93 velocity=0 time=0
note_on channel=0 note=62 velocity=51 time=0
note_on channel=0 note=62 velocity=0 time=0
note_on channel=0 note=79 velocity=77 time=0
note_on channel=0 note=43 velocity=59 time=0
note_on channel=0 note=43 velocity=0 time=93
note_on channel=0 note=79 velocity=0 time=0
note_on channel=0 note=91 velocity=70 time=0
note_on channel=0 note=55 velocity=50 time=0
note_on channel=0 note=55 velocity=0 time=99
note_on channel=0 note=91 velocity=0 time=0
note_on channel=0 note=74 velocity=79 time=0
note_on channel=0 note=38 velocity=61 time=0
note_on channel=0 note=38 velocity=0 time=120
note_on channel=0 note=74 velocity=0 time=0
note_on channel=0 note=86 velocity=73 time=0
note_on channel=0 note=50 velocity=51 time=0
note_on channel=0 note=50 velocity=0 time=120
note_on channel=0 note=86 velocity=0 time=0
note_on channel=0 note=78 velocity=82 time=0
note_on channel=0 note=42 velocity=64 time=0
note_on channel=0 note=42 velocity=0 time=42
note_on channel=0 note=78 velocity=0 time=0
note_on channel=0 note=90 velocity=76 time=0
note_on channel=0 note=54 velocity=55 time=0
note_on channel=0 note=54 velocity=0 time=120
note_on channel=0 note=90 velocity=0 time=0
note_on channel=0 note=81 velocity=85 time=0
note_on channel=0 note=45 velocity=67 time=0
note_on channel=0 note=45 velocity=0 time=0
note_on channel=0 note=81 velocity=0 time=0
note_on channel=0 note=93 velocity=79 time=0
note_on channel=0 note=57 velocity=58 time=0
note_on channel=0 note=57 velocity=0 time=0
note_on channel=0 note=93 velocity=0 time=0
note_on channel=0 note=79 velocity=88 time=0
note_on channel=0 note=43 velocity=68 time=0
note_on channel=0 note=43 velocity=0 time=35
note_on channel=0 note=79 velocity=0 time=0
note_on channel=0 note=91 velocity=82 time=0
note_on channel=0 note=55 velocity=63 time=0
note_on channel=0 note=55 velocity=0 time=120
note_on channel=0 note=91 velocity=0 time=0
note_on channel=0 note=74 velocity=91 time=0
note_on channel=0 note=38 velocity=71 time=0
note_on channel=0 note=38 velocity=0 time=120
note_on channel=0 note=74 velocity=0 time=0
note_on channel=0 note=86 velocity=86 time=0
note_on channel=0 note=50 velocity=63 time=0
note_on channel=0 note=50 velocity=0 time=120
note_on channel=0 note=86 velocity=0 time=0
note_on channel=0 note=78 velocity=94 time=0
note_on channel=0 note=30 velocity=74 time=0
note_on channel=0 note=30 velocity=0 time=111
note_on channel=0 note=78 velocity=0 time=0
note_on channel=0 note=90 velocity=90 time=0
note_on channel=0 note=42 velocity=64 time=0
note_on channel=0 note=42 velocity=0 time=120
note_on channel=0 note=90 velocity=0 time=0
note_on channel=0 note=81 velocity=99 time=0
note_on channel=0 note=33 velocity=76 time=0
note_on channel=0 note=33 velocity=0 time=0
note_on channel=0 note=81 velocity=0 time=0
note_on channel=0 note=93 velocity=92 time=0
note_on channel=0 note=45 velocity=67 time=0
note_on channel=0 note=45 velocity=0 time=0
note_on channel=0 note=93 velocity=0 time=0
note_on channel=0 note=91 velocity=110 time=0
note_on channel=0 note=79 velocity=91 time=0
note_on channel=0 note=31 velocity=69 time=0
note_on channel=0 note=43 velocity=81 time=0
note_on channel=0 note=43 velocity=0 time=180
note_on channel=0 note=91 velocity=0 time=0
note_on channel=0 note=79 velocity=0 time=0
note_on channel=0 note=31 velocity=0 time=0
note_on channel=0 note=93 velocity=112 time=0
note_on channel=0 note=81 velocity=94 time=0
note_on channel=0 note=33 velocity=69 time=0
note_on channel=0 note=45 velocity=81 time=0
note_on channel=0 note=45 velocity=0 time=180
note_on channel=0 note=93 velocity=0 time=0
note_on channel=0 note=81 velocity=0 time=0
note_on channel=0 note=33 velocity=0 time=0
note_on channel=0 note=82 velocity=99 time=300
note_on channel=0 note=94 velocity=118 time=0
note_on channel=0 note=34 velocity=72 time=0
note_on channel=0 note=46 velocity=86 time=0
note_on channel=0 note=46 velocity=0 time=84
note_on channel=0 note=82 velocity=0 time=0
note_on channel=0 note=94 velocity=0 time=0
note_on channel=0 note=34 velocity=0 time=0
note_on channel=0 note=46 velocity=50 time=0
note_on channel=0 note=46 velocity=0 time=106
note_on channel=0 note=58 velocity=71 time=0
note_on channel=0 note=58 velocity=0 time=360
note_on channel=0 note=58 velocity=58 time=0
note_on channel=0 note=58 velocity=0 time=120
note_on channel=0 note=58 velocity=65 time=0
note_on channel=0 note=58 velocity=0 time=240
note_on channel=0 note=58 velocity=57 time=1080
note_on channel=0 note=50 velocity=50 time=0
note_on channel=0 note=50 velocity=0 time=120
note_on channel=0 note=58 velocity=0 time=0
note_on channel=0 note=70 velocity=81 time=0
note_on channel=0 note=62 velocity=71 time=0
note_on channel=0 note=62 velocity=0 time=360
note_on channel=0 note=70 velocity=0 time=0
note_on channel=0 note=70 velocity=71 time=0
note_on channel=0 note=62 velocity=58 time=0
note_on channel=0 note=62 velocity=0 time=120
note_on channel=0 note=70 velocity=0 time=0
note_on channel=0 note=70 velocity=78 time=0
note_on channel=0 note=62 velocity=64 time=0
note_on channel=0 note=62 velocity=0 time=240
note_on channel=0 note=70 velocity=0 time=0
note_on channel=0 note=34 velocity=96 time=0
note_on channel=0 note=34 velocity=0 time=0
note_on channel=0 note=53 velocity=78 time=0
note_on channel=0 note=62 velocity=93 time=0
note_on channel=0 note=58 velocity=78 time=0
note_on channel=0 note=58 velocity=0 time=360
note_on channel=0 note=62 velocity=0 time=0
note_on channel=0 note=53 velocity=0 time=0
note_on channel=0 note=77 velocity=88 time=0
note_on channel=0 note=86 velocity=105 time=0
note_on channel=0 note=82 velocity=88 time=0
note_on channel=0 note=74 velocity=88 time=0
note_on channel=0 note=58 velocity=69 time=0
note_on channel=0 note=62 velocity=84 time=0
note_on channel=0 note=53 velocity=69 time=0
note_on channel=0 note=53 velocity=0 time=120
note_on channel=0 note=58 velocity=0 time=0
note_on channel=0 note=86 velocity=0 time=0
note_on channel=0 note=82 velocity=0 time=0
note_on channel=0 note=77 velocity=0 time=0
note_on channel=0 note=62 velocity=0 time=0
note_on channel=0 note=74 velocity=0 time=0
note_on channel=0 note=86 velocity=94 time=0
note_on channel=0 note=74 velocity=79 time=0
note_on channel=0 note=82 velocity=79 time=0
note_on channel=0 note=77 velocity=79 time=0
note_on channel=0 note=58 velocity=78 time=0
note_on channel=0 note=53 velocity=78 time=0
note_on channel=0 note=62 velocity=93 time=0
note_on channel=0 note=62 velocity=0 time=180
note_on channel=0 note=58 velocity=0 time=0
note_on channel=0 note=74 velocity=0 time=0
note_on channel=0 note=82 velocity=0 time=0
note_on channel=0 note=86 velocity=0 time=0
note_on channel=0 note=53 velocity=0 time=0
note_on channel=0 note=77 velocity=0 time=0
note_on channel=0 note=74 velocity=80 time=60
note_on channel=0 note=77 velocity=80 time=0
note_on channel=0 note=87 velocity=100 time=0
note_on channel=0 note=82 velocity=80 time=0
note_on channel=0 note=58 velocity=75 time=0
note_on channel=0 note=62 velocity=88 time=0
note_on channel=0 note=53 velocity=75 time=0
note_on channel=0 note=53 velocity=0 time=45
note_on channel=0 note=58 velocity=0 time=0
note_on channel=0 note=77 velocity=0 time=0
note_on channel=0 note=87 velocity=0 time=0
note_on channel=0 note=74 velocity=0 time=0
note_on channel=0 note=62 velocity=0 time=0
note_on channel=0 note=82 velocity=0 time=0
note_on channel=0 note=74 velocity=82 time=0
note_on channel=0 note=77 velocity=82 time=0
note_on channel=0 note=82 velocity=82 time=0
note_on channel=0 note=86 velocity=97 time=0
note_on channel=0 note=58 velocity=78 time=0
note_on channel=0 note=53 velocity=78 time=0
note_on channel=0 note=62 velocity=93 time=0
note_on channel=0 note=62 velocity=0 time=45
note_on channel=0 note=58 velocity=0 time=0
note_on channel=0 note=77 velocity=0 time=0
note_on channel=0 note=82 velocity=0 time=0
note_on channel=0 note=74 velocity=0 time=0
note_on channel=0 note=53 velocity=0 time=0
note_on channel=0 note=86 velocity=0 time=0
note_on channel=0 note=77 velocity=88 time=0
note_on channel=0 note=86 velocity=105 time=0
note_on channel=0 note=82 velocity=88 time=0
note_on channel=0 note=74 velocity=88 time=0
note_on channel=0 note=62 velocity=93 time=0
note_on channel=0 note=53 velocity=78 time=0
note_on channel=0 note=58 velocity=78 time=0
note_on channel=0 note=58 velocity=0 time=14
note_on channel=0 note=62 velocity=0 time=0
note_on channel=0 note=86 velocity=0 time=0
note_on channel=0 note=82 velocity=0 time=0
note_on channel=0 note=77 velocity=0 time=0
note_on channel=0 note=53 velocity=0 time=0
note_on channel=0 note=74 velocity=0 time=0
note_on channel=0 note=70 velocity=80 time=120
note_on channel=0 note=82 velocity=96 time=0
note_on channel=0 note=77 velocity=80 time=0
note_on channel=0 note=74 velocity=80 time=0
note_on channel=0 note=50 velocity=78 time=0
note_on channel=0 note=58 velocity=93 time=0
note_on channel=0 note=53 velocity=78 time=0
note_on channel=0 note=53 velocity=0 time=120
note_on channel=0 note=50 velocity=0 time=0
note_on channel=0 note=82 velocity=0 time=0
note_on channel=0 note=77 velocity=0 time=0
note_on channel=0 note=70 velocity=0 time=0
note_on channel=0 note=58 velocity=0 time=0
note_on channel=0 note=74 velocity=0 time=0
note_on channel=0 note=34 velocity=96 time=0
note_on channel=0 note=34 velocity=0 time=0
note_on channel=0 note=62 velocity=78 time=0
note_on channel=0 note=58 velocity=78 time=0
note_on channel=0 note=65 velocity=93 time=0
note_on channel=0 note=53 velocity=78 time=0
note_on channel=0 note=53 velocity=0 time=360
note_on channel=0 note=62 velocity=0 time=0
note_on channel=0 note=58 velocity=0 time=0
note_on channel=0 note=65 velocity=0 time=0
note_on channel=0 note=77 velocity=88 time=0
note_on channel=0 note=82 velocity=88 time=0
note_on channel=0 note=86 velocity=88 time=0
note_on channel=0 note=89 velocity=105 time=0
note_on channel=0 note=53 velocity=69 time=0
note_on channel=0 note=65 velocity=84 time=0
note_on channel=0 note=62 velocity=69 time=0
note_on channel=0 note=58 velocity=69 time=0
note_on channel=0 note=58 velocity=0 time=120
note_on channel=0 note=77 velocity=0 time=0
note_on channel=0 note=53 velocity=0 time=0
note_on channel=0 note=82 velocity=0 time=0
note_on channel=0 note=86 velocity=0 time=0
note_on channel=0 note=89 velocity=0 time=0
note_on channel=0 note=65 velocity=0 time=0
note_on channel=0 note=62 velocity=0 time=0
note_on channel=0 note=89 velocity=94 time=0
note_on channel=0 note=86 velocity=79 time=0
note_on channel=0 note=82 velocity=79 time=0
note_on channel=0 note=77 velocity=79 time=0
note_on channel=0 note=58 velocity=78 time=0
note_on channel=0 note=65 velocity=93 time=0
note_on channel=0 note=62 velocity=78 time=0
note_on channel=0 note=53 velocity=78 time=0
note_on channel=0 note=53 velocity=0 time=180
note_on channel=0 note=89 velocity=0 time=0
note_on channel=0 note=58 velocity=0 time=0
note_on channel=0 note=86 velocity=0 time=0
note_on channel=0 note=82 velocity=0 time=0
note_on channel=0 note=77 velocity=0 time=0
note_on channel=0 note=65 velocity=0 time=0
note_on channel=0 note=62 velocity=0 time=0
note_on channel=0 note=82 velocity=80 time=60
note_on channel=0 note=91 velocity=100 time=0
note_on channel=0 note=77 velocity=80 time=0
note_on channel=0 note=86 velocity=80 time=0
note_on channel=0 note=53 velocity=75 time=0
note_on channel=0 note=58 velocity=75 time=0
note_on channel=0 note=65 velocity=88 time=0
note_on channel=0 note=62 velocity=75 time=0
note_on channel=0 note=62 velocity=0 time=45
note_on channel=0 note=82 velocity=0 time=0
note_on channel=0 note=53 velocity=0 time=0
note_on channel=0 note=91 velocity=0 time=0
note_on channel=0 note=77 velocity=0 time=0
note_on channel=0 note=86 velocity=0 time=0
note_on channel=0 note=58 velocity=0 time=0
note_on channel=0 note=65 velocity=0 time=0
note_on channel=0 note=82 velocity=82 time=0
note_on channel=0 note=86 velocity=82 time=0
note_on channel=0 note=89 velocity=97 time=0
note_on channel=0 note=77 velocity=82 time=0
note_on channel=0 note=58 velocity=78 time=0
note_on channel=0 note=65 velocity=93 time=0
note_on channel=0 note=53 velocity=78 time=0
note_on channel=0 note=62 velocity=78 time=0
note_on channel=0 note=62 velocity=0 time=45
note_on channel=0 note=82 velocity=0 time=0
note_on channel=0 note=58 velocity=0 time=0
note_on channel=0 note=86 velocity=0 time=0
note_on channel=0 note=89 velocity=0 time=0
note_on channel=0 note=77 velocity=0 time=0
note_on channel=0 note=65 velocity=0 time=0
note_on channel=0 note=53 velocity=0 time=0
note_on channel=0 note=89 velocity=105 time=0
note_on channel=0 note=77 velocity=88 time=0
note_on channel=0 note=82 velocity=88 time=0
note_on channel=0 note=86 velocity=88 time=0
note_on channel=0 note=53 velocity=78 time=0
note_on channel=0 note=62 velocity=78 time=0
note_on channel=0 note=65 velocity=93 time=0
note_on channel=0 note=58 velocity=78 time=0
note_on channel=0 note=58 velocity=0 time=14
note_on channel=0 note=89 velocity=0 time=0
note_on channel=0 note=53 velocity=0 time=0
note_on channel=0 note=77 velocity=0 time=0
note_on channel=0 note=82 velocity=0 time=0
note_on channel=0 note=86 velocity=0 time=0
note_on channel=0 note=62 velocity=0 time=0
note_on channel=0 note=65 velocity=0 time=0
note_on channel=0 note=86 velocity=96 time=120
note_on channel=0 note=82 velocity=80 time=0
note_on channel=0 note=74 velocity=80 time=0
note_on channel=0 note=77 velocity=80 time=0
note_on channel=0 note=58 velocity=78 time=0
note_on channel=0 note=62 velocity=93 time=0
note_on channel=0 note=53 velocity=78 time=0
note_on channel=0 note=53 velocity=0 time=120
note_on channel=0 note=58 velocity=0 time=0
note_on channel=0 note=82 velocity=0 time=0
note_on channel=0 note=74 velocity=0 time=0
note_on channel=0 note=86 velocity=0 time=0
note_on channel=0 note=62 velocity=0 time=0
note_on channel=0 note=77 velocity=0 time=0
note_on channel=0 note=70 velocity=50 time=247
note_on channel=0 note=70 velocity=0 time=120
note_on channel=0 note=72 velocity=45 time=0
note_on channel=0 note=72 velocity=0 time=0
note_on channel=0 note=74 velocity=50 time=0
note_on channel=0 note=67 velocity=39 time=0
note_on channel=0 note=64 velocity=29 time=0
note_on channel=0 note=64 velocity=0 time=42
note_on channel=0 note=67 velocity=0 time=0
note_on channel=0 note=74 velocity=0 time=0
note_on channel=0 note=72 velocity=39 time=0
note_on channel=0 note=69 velocity=33 time=0
note_on channel=0 note=65 velocity=29 time=0
note_on channel=0 note=65 velocity=0 time=176
note_on channel=0 note=69 velocity=0 time=0
note_on channel=0 note=72 velocity=0 time=0
note_on channel=0 note=72 velocity=50 time=0
note_on channel=0 note=68 velocity=42 time=0
note_on channel=0 note=59 velocity=40 time=0
note_on channel=0 note=72 velocity=0 time=113
note_on channel=0 note=74 velocity=46 time=0
note_on channel=0 note=74 velocity=0 time=0
note_on channel=0 note=59 velocity=0 time=0
note_on channel=0 note=68 velocity=0 time=0
note_on channel=0 note=67 velocity=46 time=0
note_on channel=0 note=75 velocity=55 time=0
note_on channel=0 note=60 velocity=40 time=0
note_on channel=0 note=60 velocity=0 time=0
note_on channel=0 note=67 velocity=0 time=0
note_on channel=0 note=69 velocity=45 time=0
note_on channel=0 note=54 velocity=36 time=0
note_on channel=0 note=54 velocity=0 time=0
note_on channel=0 note=69 velocity=0 time=0
note_on channel=0 note=75 velocity=0 time=0
note_on channel=0 note=70 velocity=38 time=0
note_on channel=0 note=74 velocity=45 time=0
note_on channel=0 note=55 velocity=36 time=0
note_on channel=0 note=55 velocity=0 time=0
note_on channel=0 note=74 velocity=0 time=0
note_on channel=0 note=70 velocity=0 time=0
note_on channel=0 note=67 velocity=39 time=0
note_on channel=0 note=74 velocity=47 time=0
note_on channel=0 note=51 velocity=40 time=0
note_on channel=0 note=74 velocity=0 time=120
note_on channel=0 note=75 velocity=50 time=0
note_on channel=0 note=75 velocity=0 time=0
note_on channel=0 note=51 velocity=0 time=0
note_on channel=0 note=67 velocity=0 time=0
note_on channel=0 note=77 velocity=54 time=0
note_on channel=0 note=65 velocity=45 time=0
note_on channel=0 note=50 velocity=40 time=0
note_on channel=0 note=50 velocity=0 time=0
note_on channel=0 note=65 velocity=0 time=0
note_on channel=0 note=70 velocity=45 time=0
note_on channel=0 note=49 velocity=35 time=0
note_on channel=0 note=77 velocity=0 time=111
note_on channel=0 note=79 velocity=52 time=0
note_on channel=0 note=79 velocity=0 time=120
note_on channel=0 note=49 velocity=0 time=0
note_on channel=0 note=70 velocity=0 time=0
note_on channel=0 note=67 velocity=42 time=0
note_on channel=0 note=77 velocity=50 time=0
note_on channel=0 note=48 velocity=35 time=0
note_on channel=0 note=77 velocity=0 time=0
note_on channel=0 note=75 velocity=43 time=0
note_on channel=0 note=48 velocity=0 time=0
note_on channel=0 note=67 velocity=0 time=0
note_on channel=0 note=69 velocity=43 time=0
note_on channel=0 note=41 velocity=40 time=0
note_on channel=0 note=75 velocity=0 time=120
note_on channel=0 note=77 velocity=45 time=0
note_on channel=0 note=77 velocity=0 time=0
note_on channel=0 note=41 velocity=0 time=0
note_on channel=0 note=69 velocity=0 time=0
note_on channel=0 note=75 velocity=49 time=0
note_on channel=0 note=65 velocity=35 time=0
note_on channel=0 note=70 velocity=35 time=0
note_on channel=0 note=46 velocity=38 time=0
note_on channel=0 note=75 velocity=0 time=0
note_on channel=0 note=74 velocity=41 time=0
note_on channel=0 note=74 velocity=0 time=0
note_on channel=0 note=46 velocity=0 time=0
note_on channel=0 note=70 velocity=0 time=0
note_on channel=0 note=65 velocity=0 time=0
note_on channel=0 note=72 velocity=30 time=0
note_on channel=0 note=67 velocity=30 time=0
note_on channel=0 note=77 velocity=43 time=0
note_on channel=0 note=39 velocity=30 time=0
note_on channel=0 note=77 velocity=0 time=0
note_on channel=0 note=75 velocity=37 time=0
note_on channel=0 note=75 velocity=0 time=120
note_on channel=0 note=39 velocity=0 time=0
note_on channel=0 note=67 velocity=0 time=0
note_on channel=0 note=72 velocity=0 time=0
note_on channel=0 note=69 velocity=30 time=0
note_on channel=0 note=72 velocity=35 time=0
note_on channel=0 note=41 velocity=27 time=0
note_on channel=0 note=41 velocity=0 time=0
note_on channel=0 note=72 velocity=0 time=0
note_on channel=0 note=69 velocity=0 time=0
note_on channel=0 note=82 velocity=50 time=0
note_on channel=0 note=82 velocity=0 time=120
note_on channel=0 note=84 velocity=45 time=0
note_on channel=0 note=84 velocity=0 time=0
note_on channel=0 note=86 velocity=50 time=0
note_on channel=0 note=79 velocity=39 time=0
note_on channel=0 note=76 velocity=29 time=0
note_on channel=0 note=76 velocity=0 time=42
note_on channel=0 note=79 velocity=0 time=0
note_on channel=0 note=86 velocity=0 time=0
note_on channel=0 note=81 velocity=33 time=0
note_on channel=0 note=84 velocity=39 time=0
note_on channel=0 note=77 velocity=29 time=0
note_on channel=0 note=77 velocity=0 time=176
note_on channel=0 note=84 velocity=0 time=0
note_on channel=0 note=81 velocity=0 time=0
note_on channel=0 note=80 velocity=42 time=0
note_on channel=0 note=84 velocity=50 time=0
note_on channel=0 note=71 velocity=40 time=0
note_on channel=0 note=84 velocity=0 time=113
note_on channel=0 note=86 velocity=46 time=0
note_on channel=0 note=86 velocity=0 time=0
note_on channel=0 note=71 velocity=0 time=0
note_on channel=0 note=80 velocity=0 time=0
note_on channel=0 note=79 velocity=46 time=0
note_on channel=0 note=87 velocity=55 time=0
note_on channel=0 note=72 velocity=40 time=0
note_on channel=0 note=72 velocity=0 time=0
note_on channel=0 note=79 velocity=0 time=0
note_on channel=0 note=81 velocity=45 time=0
note_on channel=0 note=66 velocity=36 time=0
note_on channel=0 note=66 velocity=0 time=0
note_on channel=0 note=81 velocity=0 time=0
note_on channel=0 note=87 velocity=0 time=0
note_on channel=0 note=82 velocity=38 time=0
note_on channel=0 note=86 velocity=45 time=0
note_on channel=0 note=67 velocity=36 time=0
note_on channel=0 note=67 velocity=0 time=0
note_on channel=0 note=86 velocity=0 time=0
note_on channel=0 note=82 velocity=0 time=0
note_on channel=0 note=86 velocity=51 time=0
note_on channel=0 note=79 velocity=39 time=0
note_on channel=0 note=63 velocity=40 time=0
note_on channel=0 note=86 velocity=0 time=120
note_on channel=0 note=87 velocity=55 time=0
note_on channel=0 note=87 velocity=0 time=0
note_on channel=0 note=63 velocity=0 time=0
note_on channel=0 note=79 velocity=0 time=0
note_on channel=0 note=77 velocity=45 time=0
note_on channel=0 note=89 velocity=59 time=0
note_on channel=0 note=62 velocity=40 time=0
note_on channel=0 note=62 velocity=0 time=0
note_on channel=0 note=77 velocity=0 time=0
note_on channel=0 note=82 velocity=45 time=0
note_on channel=0 note=61 velocity=35 time=0
note_on channel=0 note=89 velocity=0 time=111
note_on channel=0 note=91 velocity=57 time=0
note_on channel=0 note=91 velocity=0 time=120
note_on channel=0 note=61 velocity=0 time=0
note_on channel=0 note=82 velocity=0 time=0
note_on channel=0 note=79 velocity=42 time=0
note_on channel=0 note=89 velocity=55 time=0
note_on channel=0 note=60 velocity=35 time=0
note_on channel=0 note=89 velocity=0 time=0
note_on channel=0 note=87 velocity=47 time=0
note_on channel=0 note=60 velocity=0 time=0
note_on channel=0 note=79 velocity=0 time=0
note_on channel=0 note=81 velocity=43 time=0
note_on channel=0 note=53 velocity=40 time=0
note_on channel=0 note=87 velocity=0 time=120
note_on channel=0 note=89 velocity=50 time=0
note_on channel=0 note=89 velocity=0 time=0
note_on channel=0 note=53 velocity=0 time=0
note_on channel=0 note=81 velocity=0 time=0
note_on channel=0 note=87 velocity=57 time=0
note_on channel=0 note=77 velocity=44 time=0
note_on channel=0 note=58 velocity=36 time=0
note_on channel=0 note=87 velocity=0 time=0
note_on channel=0 note=86 velocity=49 time=0
note_on channel=0 note=58 velocity=0 time=0
note_on channel=0 note=77 velocity=0 time=0
note_on channel=0 note=82 velocity=46 time=0
note_on channel=0 note=54 velocity=43 time=0
note_on channel=0 note=86 velocity=0 time=120
note_on channel=0 note=87 velocity=53 time=0
note_on channel=0 note=87 velocity=0 time=0
note_on channel=0 note=54 velocity=0 time=0
note_on channel=0 note=86 velocity=60 time=0
note_on channel=0 note=53 velocity=44 time=0
note_on channel=0 note=86 velocity=0 time=42
note_on channel=0 note=84 velocity=49 time=0
note_on channel=0 note=84 velocity=0 time=120
note_on channel=0 note=53 velocity=0 time=0
note_on channel=0 note=82 velocity=0 time=0
note_on channel=0 note=77 velocity=47 time=0
note_on channel=0 note=86 velocity=55 time=0
note_on channel=0 note=81 velocity=47 time=0
note_on channel=0 note=51 velocity=45 time=0
note_on channel=0 note=86 velocity=0 time=120
note_on channel=0 note=87 velocity=51 time=0
note_on channel=0 note=87 velocity=0 time=0
note_on channel=0 note=51 velocity=0 time=0
note_on channel=0 note=81 velocity=0 time=0
note_on channel=0 note=77 velocity=0 time=0
note_on channel=0 note=91 velocity=67 time=0
note_on channel=0 note=77 velocity=52 time=0
note_on channel=0 note=82 velocity=52 time=0
note_on channel=0 note=50 velocity=46 time=0
note_on channel=0 note=91 velocity=0 time=120
note_on channel=0 note=89 velocity=53 time=0
note_on channel=0 note=89 velocity=0 time=120
note_on channel=0 note=50 velocity=0 time=0
note_on channel=0 note=82 velocity=0 time=0
note_on channel=0 note=77 velocity=0 time=0
note_on channel=0 note=82 velocity=41 time=0
note_on channel=0 note=91 velocity=58 time=0
note_on channel=0 note=49 velocity=47 time=0
note_on channel=0 note=91 velocity=0 time=0
note_on channel=0 note=89 velocity=59 time=0
note_on channel=0 note=89 velocity=0 time=118
note_on channel=0 note=49 velocity=0 time=0
note_on channel=0 note=82 velocity=0 time=0
note_on channel=0 note=79 velocity=53 time=0
note_on channel=0 note=89 velocity=69 time=0
note_on channel=0 note=48 velocity=48 time=0
note_on channel=0 note=89 velocity=0 time=14
note_on channel=0 note=87 velocity=55 time=0
note_on channel=0 note=87 velocity=0 time=120
note_on channel=0 note=48 velocity=0 time=0
note_on channel=0 note=79 velocity=0 time=0
note_on channel=0 note=89 velocity=61 time=0
note_on channel=0 note=81 velocity=43 time=0
note_on channel=0 note=41 velocity=50 time=0
note_on channel=0 note=89 velocity=0 time=0
note_on channel=0 note=87 velocity=56 time=0
note_on channel=0 note=87 velocity=0 time=0
note_on channel=0 note=41 velocity=0 time=0
note_on channel=0 note=81 velocity=0 time=0
note_on channel=0 note=77 velocity=57 time=0
note_on channel=0 note=87 velocity=74 time=0
note_on channel=0 note=46 velocity=50 time=0
note_on channel=0 note=87 velocity=0 time=21
note_on channel=0 note=86 velocity=57 time=0
note_on channel=0 note=86 velocity=0 time=120
note_on channel=0 note=46 velocity=0 time=0
note_on channel=0 note=77 velocity=0 time=0
note_on channel=0 note=82 velocity=45 time=0
note_on channel=0 note=87 velocity=63 time=0
note_on channel=0 note=42 velocity=52 time=0
note_on channel=0 note=87 velocity=0 time=0
note_on channel=0 note=86 velocity=58 time=0
note_on channel=0 note=86 velocity=0 time=118
note_on channel=0 note=42 velocity=0 time=0
note_on channel=0 note=86 velocity=75 time=0
note_on channel=0 note=41 velocity=53 time=0
note_on channel=0 note=86 velocity=0 time=28
note_on channel=0 note=84 velocity=61 time=0
note_on channel=0 note=84 velocity=0 time=120
note_on channel=0 note=41 velocity=0 time=0
note_on channel=0 note=82 velocity=0 time=0
note_on channel=0 note=86 velocity=67 time=0
note_on channel=0 note=81 velocity=47 time=0
note_on channel=0 note=77 velocity=47 time=0
note_on channel=0 note=39 velocity=54 time=0
note_on channel=0 note=86 velocity=0 time=0
note_on channel=0 note=87 velocity=70 time=0
note_on channel=0 note=87 velocity=0 time=0
note_on channel=0 note=39 velocity=0 time=0
note_on channel=0 note=77 velocity=0 time=0
note_on channel=0 note=81 velocity=0 time=0
note_on channel=0 note=82 velocity=58 time=0
note_on channel=0 note=91 velocity=69 time=0
note_on channel=0 note=77 velocity=58 time=0
note_on channel=0 note=38 velocity=55 time=0
note_on channel=0 note=91 velocity=0 time=28
note_on channel=0 note=89 velocity=70 time=0
note_on channel=0 note=89 velocity=0 time=120
note_on channel=0 note=38 velocity=0 time=0
note_on channel=0 note=77 velocity=0 time=0
note_on channel=0 note=82 velocity=0 time=0
note_on channel=0 note=82 velocity=60 time=0
note_on channel=0 note=88 velocity=76 time=0
note_on channel=0 note=37 velocity=56 time=0
note_on channel=0 note=91 velocity=72 time=0
note_on channel=0 note=37 velocity=0 time=0
note_on channel=0 note=82 velocity=0 time=0
note_on channel=0 note=88 velocity=0 time=0
note_on channel=0 note=87 velocity=67 time=0
note_on channel=0 note=36 velocity=57 time=0
note_on channel=0 note=91 velocity=0 time=23
note_on channel=0 note=92 velocity=74 time=0
note_on channel=0 note=36 velocity=0 time=120
note_on channel=0 note=87 velocity=0 time=0
note_on channel=0 note=87 velocity=76 time=0
note_on channel=0 note=84 velocity=64 time=0
note_on channel=0 note=30 velocity=58 time=0
note_on channel=0 note=92 velocity=0 time=0
note_on channel=0 note=93 velocity=77 time=0
note_on channel=0 note=93 velocity=0 time=0
note_on channel=0 note=30 velocity=0 time=0
note_on channel=0 note=84 velocity=0 time=0
note_on channel=0 note=87 velocity=0 time=0
note_on channel=0 note=86 velocity=73 time=0
note_on channel=0 note=82 velocity=73 time=0
note_on channel=0 note=96 velocity=86 time=0
note_on channel=0 note=31 velocity=67 time=0
note_on channel=0 note=96 velocity=0 time=14
note_on channel=0 note=94 velocity=72 time=0
note_on channel=0 note=94 velocity=0 time=120
note_on channel=0 note=31 velocity=0 time=0
note_on channel=0 note=82 velocity=0 time=0
note_on channel=0 note=86 velocity=0 time=0
note_on channel=0 note=93 velocity=84 time=0
note_on channel=0 note=82 velocity=71 time=0
note_on channel=0 note=87 velocity=71 time=0
note_on channel=0 note=39 velocity=61 time=0
note_on channel=0 note=93 velocity=0 time=0
note_on channel=0 note=91 velocity=74 time=0
note_on channel=0 note=91 velocity=0 time=0
note_on channel=0 note=39 velocity=0 time=0
note_on channel=0 note=87 velocity=0 time=0
note_on channel=0 note=82 velocity=0 time=0
note_on channel=0 note=89 velocity=86 time=0
note_on channel=0 note=86 velocity=72 time=0
note_on channel=0 note=82 velocity=72 time=0
note_on channel=0 note=41 velocity=70 time=0
note_on channel=0 note=41 velocity=0 time=108
note_on channel=0 note=89 velocity=0 time=0
note_on channel=0 note=86 velocity=0 time=0
note_on channel=0 note=82 velocity=0 time=0
note_on channel=0 note=93 velocity=80 time=120
note_on channel=0 note=84 velocity=67 time=0
note_on channel=0 note=89 velocity=80 time=0
note_on channel=0 note=81 velocity=67 time=0
note_on channel=0 note=29 velocity=66 time=0
note_on channel=0 note=41 velocity=66 time=0
note_on channel=0 note=41 velocity=0 time=120
note_on channel=0 note=84 velocity=0 time=0
note_on channel=0 note=89 velocity=0 time=0
note_on channel=0 note=93 velocity=0 time=0
note_on channel=0 note=29 velocity=0 time=0
note_on channel=0 note=81 velocity=0 time=0
note_on channel=0 note=94 velocity=101 time=0
note_on channel=0 note=86 velocity=85 time=0
note_on channel=0 note=89 velocity=85 time=0
note_on channel=0 note=82 velocity=85 time=0
note_on channel=0 note=34 velocity=57 time=0
note_on channel=0 note=46 velocity=68 time=0
note_on channel=0 note=46 velocity=0 time=35
note_on channel=0 note=34 velocity=0 time=0
note_on channel=0 note=62 velocity=56 time=0
note_on channel=0 note=53 velocity=47 time=0
note_on channel=0 note=58 velocity=47 time=0
note_on channel=0 note=58 velocity=0 time=120
note_on channel=0 note=62 velocity=0 time=0
note_on channel=0 note=53 velocity=0 time=0
note_on channel=0 note=53 velocity=47 time=0
note_on channel=0 note=62 velocity=56 time=0
note_on channel=0 note=58 velocity=47 time=0
note_on channel=0 note=58 velocity=0 time=120
note_on channel=0 note=53 velocity=0 time=0
note_on channel=0 note=62 velocity=0 time=0
note_on channel=0 note=62 velocity=56 time=0
note_on channel=0 note=53 velocity=47 time=0
note_on channel=0 note=58 velocity=47 time=0
note_on channel=0 note=58 velocity=0 time=120
note_on channel=0 note=62 velocity=0 time=0
note_on channel=0 note=86 velocity=0 time=0
note_on channel=0 note=82 velocity=0 time=0
note_on channel=0 note=94 velocity=0 time=0
note_on channel=0 note=53 velocity=0 time=0
note_on channel=0 note=89 velocity=0 time=0
note_on channel=0 note=74 velocity=63 time=0
note_on channel=0 note=70 velocity=63 time=0
note_on channel=0 note=82 velocity=75 time=0
note_on channel=0 note=53 velocity=45 time=120
note_on channel=0 note=58 velocity=45 time=0
note_on channel=0 note=62 velocity=53 time=0
note_on channel=0 note=62 velocity=0 time=120
note_on channel=0 note=53 velocity=0 time=0
note_on channel=0 note=58 velocity=0 time=0
note_on channel=0 note=58 velocity=45 time=0
note_on channel=0 note=53 velocity=45 time=0
note_on channel=0 note=62 velocity=54 time=0
note_on channel=0 note=62 velocity=0 time=0
note_on channel=0 note=58 velocity=0 time=0
note_on channel=0 note=53 velocity=0 time=0
note_on channel=0 note=62 velocity=54 time=0
note_on channel=0 note=53 velocity=45 time=0
note_on channel=0 note=58 velocity=45 time=0
note_on channel=0 note=58 velocity=0 time=0
note_on channel=0 note=74 velocity=0 time=0
note_on channel=0 note=70 velocity=0 time=0
note_on channel=0 note=82 velocity=0 time=0
note_on channel=0 note=53 velocity=0 time=0
note_on channel=0 note=62 velocity=0 time=0
note_on channel=0 note=74 velocity=50 time=0
note_on channel=0 note=77 velocity=50 time=0
note_on channel=0 note=86 velocity=59 time=0
note_on channel=0 note=86 velocity=0 time=32
note_on channel=0 note=77 velocity=0 time=0
note_on channel=0 note=74 velocity=0 time=0
note_on channel=0 note=53 velocity=37 time=60
note_on channel=0 note=62 velocity=44 time=0
note_on channel=0 note=58 velocity=37 time=0
note_on channel=0 note=58 velocity=0 time=60
note_on channel=0 note=62 velocity=0 time=0
note_on channel=0 note=53 velocity=0 time=0
note_on channel=0 note=82 velocity=61 time=60
note_on channel=0 note=74 velocity=51 time=0
note_on channel=0 note=70 velocity=51 time=0
note_on channel=0 note=70 velocity=0 time=60
note_on channel=0 note=74 velocity=0 time=0
note_on channel=0 note=82 velocity=0 time=0
note_on channel=0 note=58 velocity=44 time=60
note_on channel=0 note=50 velocity=37 time=0
note_on channel=0 note=50 velocity=0 time=60
note_on channel=0 note=58 velocity=0 time=0
note_on channel=0 note=77 velocity=51 time=60
note_on channel=0 note=74 velocity=51 time=0
note_on channel=0 note=86 velocity=61 time=0
note_on channel=0 note=86 velocity=0 time=60
note_on channel=0 note=74 velocity=0 time=0
note_on channel=0 note=77 velocity=0 time=0
note_on channel=0 note=62 velocity=44 time=60
note_on channel=0 note=58 velocity=37 time=0
note_on channel=0 note=53 velocity=37 time=0
note_on channel=0 note=53 velocity=0 time=60
note_on channel=0 note=58 velocity=0 time=0
note_on channel=0 note=62 velocity=0 time=0
note_on channel=0 note=72 velocity=51 time=60
note_on channel=0 note=84 velocity=61 time=0
note_on channel=0 note=75 velocity=51 time=0
note_on channel=0 note=75 velocity=0 time=60
note_on channel=0 note=84 velocity=0 time=0
note_on channel=0 note=72 velocity=0 time=0
note_on channel=0 note=58 velocity=37 time=0
note_on channel=0 note=60 velocity=44 time=0
note_on channel=0 note=51 velocity=37 time=0
note_on channel=0 note=51 velocity=0 time=60
note_on channel=0 note=60 velocity=0 time=0
note_on channel=0 note=58 velocity=0 time=0
note_on channel=0 note=75 velocity=97 time=0
note_on channel=0 note=79 velocity=97 time=0
note_on channel=0 note=87 velocity=116 time=0
note_on channel=0 note=34 velocity=65 time=0
note_on channel=0 note=46 velocity=78 time=0
note_on channel=0 note=46 velocity=0 time=35
note_on channel=0 note=34 velocity=0 time=0
note_on channel=0 note=55 velocity=54 time=0
note_on channel=0 note=63 velocity=64 time=0
note_on channel=0 note=58 velocity=54 time=0
note_on channel=0 note=58 velocity=0 time=120
note_on channel=0 note=55 velocity=0 time=0
note_on channel=0 note=63 velocity=0 time=0
note_on channel=0 note=55 velocity=54 time=0
note_on channel=0 note=58 velocity=54 time=0
note_on channel=0 note=63 velocity=64 time=0
note_on channel=0 note=63 velocity=0 time=120
note_on channel=0 note=55 velocity=0 time=0
note_on channel=0 note=58 velocity=0 time=0
note_on channel=0 note=58 velocity=54 time=0
note_on channel=0 note=63 velocity=64 time=0
note_on channel=0 note=55 velocity=54 time=0
note_on channel=0 note=55 velocity=0 time=120
note_on channel=0 note=87 velocity=0 time=0
note_on channel=0 note=79 velocity=0 time=0
note_on channel=0 note=75 velocity=0 time=0
note_on channel=0 note=63 velocity=0 time=0
note_on channel=0 note=58 velocity=0 time=0
note_on channel=0 note=84 velocity=75 time=0
note_on channel=0 note=75 velocity=63 time=0
note_on channel=0 note=72 velocity=63 time=0
note_on channel=0 note=60 velocity=53 time=120
note_on channel=0 note=51 velocity=45 time=0
note_on channel=0 note=58 velocity=45 time=0
note_on channel=0 note=58 velocity=0 time=120
note_on channel=0 note=60 velocity=0 time=0
note_on channel=0 note=51 velocity=0 time=0
note_on channel=0 note=51 velocity=45 time=0
note_on channel=0 note=58 velocity=45 time=0
note_on channel=0 note=60 velocity=54 time=0
note_on channel=0 note=60 velocity=0 time=0
note_on channel=0 note=51 velocity=0 time=0
note_on channel=0 note=58 velocity=0 time=0
note_on channel=0 note=60 velocity=54 time=0
note_on channel=0 note=51 velocity=45 time=0
note_on channel=0 note=58 velocity=45 time=0
note_on channel=0 note=58 velocity=0 time=0
note_on channel=0 note=84 velocity=0 time=0
note_on channel=0 note=75 velocity=0 time=0
note_on channel=0 note=72 velocity=0 time=0
note_on channel=0 note=51 velocity=0 time=0
note_on channel=0 note=60 velocity=0 time=0
note_on channel=0 note=87 velocity=59 time=0
note_on channel=0 note=75 velocity=50 time=0
note_on channel=0 note=79 velocity=50 time=0
note_on channel=0 note=79 velocity=0 time=32
note_on channel=0 note=75 velocity=0 time=0
note_on channel=0 note=87 velocity=0 time=0
note_on channel=0 note=55 velocity=37 time=60
note_on channel=0 note=63 velocity=44 time=0
note_on channel=0 note=58 velocity=37 time=0
note_on channel=0 note=58 velocity=0 time=60
note_on channel=0 note=63 velocity=0 time=0
note_on channel=0 note=55 velocity=0 time=0
note_on channel=0 note=73 velocity=51 time=60
note_on channel=0 note=76 velocity=51 time=0
note_on channel=0 note=85 velocity=61 time=0
note_on channel=0 note=85 velocity=0 time=60
note_on channel=0 note=76 velocity=0 time=0
note_on channel=0 note=73 velocity=0 time=0
note_on channel=0 note=58 velocity=37 time=60
note_on channel=0 note=61 velocity=44 time=0
note_on channel=0 note=52 velocity=37 time=0
note_on channel=0 note=52 velocity=0 time=60
note_on channel=0 note=61 velocity=0 time=0
note_on channel=0 note=58 velocity=0 time=0
note_on channel=0 note=87 velocity=61 time=0
note_on channel=0 note=75 velocity=51 time=0
note_on channel=0 note=78 velocity=51 time=0
note_on channel=0 note=78 velocity=0 time=60
note_on channel=0 note=75 velocity=0 time=0
note_on channel=0 note=87 velocity=0 time=0
note_on channel=0 note=58 velocity=37 time=60
note_on channel=0 note=63 velocity=44 time=0
note_on channel=0 note=54 velocity=37 time=0
note_on channel=0 note=54 velocity=0 time=60
note_on channel=0 note=63 velocity=0 time=0
note_on channel=0 note=58 velocity=0 time=0
note_on channel=0 note=86 velocity=61 time=60
note_on channel=0 note=77 velocity=51 time=0
note_on channel=0 note=74 velocity=51 time=0
note_on channel=0 note=74 velocity=0 time=60
note_on channel=0 note=77 velocity=0 time=0
note_on channel=0 note=86 velocity=0 time=0
note_on channel=0 note=58 velocity=37 time=0
note_on channel=0 note=53 velocity=37 time=0
note_on channel=0 note=62 velocity=44 time=0
note_on channel=0 note=62 velocity=0 time=60
note_on channel=0 note=53 velocity=0 time=0
note_on channel=0 note=58 velocity=0 time=0
note_on channel=0 note=89 velocity=111 time=0
note_on channel=0 note=80 velocity=93 time=0
note_on channel=0 note=77 velocity=93 time=0
note_on channel=0 note=34 velocity=62 time=0
note_on channel=0 note=46 velocity=74 time=0
note_on channel=0 note=46 velocity=0 time=35
note_on channel=0 note=34 velocity=0 time=0
note_on channel=0 note=58 velocity=51 time=0
note_on channel=0 note=56 velocity=51 time=0
note_on channel=0 note=65 velocity=61 time=0
note_on channel=0 note=65 velocity=0 time=120
note_on channel=0 note=58 velocity=0 time=0
note_on channel=0 note=56 velocity=0 time=0
note_on channel=0 note=56 velocity=51 time=0
note_on channel=0 note=58 velocity=51 time=0
note_on channel=0 note=65 velocity=61 time=0
note_on channel=0 note=65 velocity=0 time=120
note_on channel=0 note=56 velocity=0 time=0
note_on channel=0 note=58 velocity=0 time=0
note_on channel=0 note=65 velocity=61 time=0
note_on channel=0 note=58 velocity=51 time=0
note_on channel=0 note=56 velocity=51 time=0
note_on channel=0 note=56 velocity=0 time=120
note_on channel=0 note=77 velocity=0 time=0
note_on channel=0 note=80 velocity=0 time=0
note_on channel=0 note=89 velocity=0 time=0
note_on channel=0 note=58 velocity=0 time=0
note_on channel=0 note=65 velocity=0 time=0
note_on channel=0 note=74 velocity=63 time=0
note_on channel=0 note=86 velocity=75 time=0
note_on channel=0 note=77 velocity=63 time=0
note_on channel=0 note=58 velocity=45 time=120
note_on channel=0 note=62 velocity=53 time=0
note_on channel=0 note=53 velocity=45 time=0
note_on channel=0 note=53 velocity=0 time=120
note_on channel=0 note=58 velocity=0 time=0
note_on channel=0 note=62 velocity=0 time=0
note_on channel=0 note=58 velocity=45 time=0
note_on channel=0 note=62 velocity=54 time=0
note_on channel=0 note=53 velocity=45 time=0
note_on channel=0 note=53 velocity=0 time=0
note_on channel=0 note=58 velocity=0 time=0
note_on channel=0 note=62 velocity=0 time=0
note_on channel=0 note=53 velocity=45 time=0
note_on channel=0 note=62 velocity=54 time=0
note_on channel=0 note=58 velocity=45 time=0
note_on channel=0 note=58 velocity=0 time=0
note_on channel=0 note=74 velocity=0 time=0
note_on channel=0 note=86 velocity=0 time=0
note_on channel=0 note=77 velocity=0 time=0
note_on channel=0 note=62 velocity=0 time=0
note_on channel=0 note=53 velocity=0 time=0
note_on channel=0 note=80 velocity=50 time=0
note_on channel=0 note=77 velocity=50 time=0
note_on channel=0 note=89 velocity=59 time=0
note_on channel=0 note=89 velocity=0 time=32
note_on channel=0 note=77 velocity=0 time=0
note_on channel=0 note=80 velocity=0 time=0
note_on channel=0 note=58 velocity=37 time=60
note_on channel=0 note=65 velocity=44 time=0
note_on channel=0 note=56 velocity=37 time=0
note_on channel=0 note=56 velocity=0 time=60
note_on channel=0 note=65 velocity=0 time=0
note_on channel=0 note=58 velocity=0 time=0
note_on channel=0 note=86 velocity=61 time=60
note_on channel=0 note=74 velocity=51 time=0
note_on channel=0 note=78 velocity=51 time=0
note_on channel=0 note=78 velocity=0 time=60
note_on channel=0 note=74 velocity=0 time=0
note_on channel=0 note=86 velocity=0 time=0
note_on channel=0 note=62 velocity=44 time=60
note_on channel=0 note=54 velocity=37 time=0
note_on channel=0 note=58 velocity=37 time=0
note_on channel=0 note=58 velocity=0 time=60
note_on channel=0 note=54 velocity=0 time=0
note_on channel=0 note=62 velocity=0 time=0
note_on channel=0 note=89 velocity=61 time=0
note_on channel=0 note=80 velocity=51 time=0
note_on channel=0 note=77 velocity=51 time=0
note_on channel=0 note=77 velocity=0 time=60
note_on channel=0 note=80 velocity=0 time=0
note_on channel=0 note=89 velocity=0 time=0
note_on channel=0 note=56 velocity=37 time=60
note_on channel=0 note=58 velocity=37 time=0
note_on channel=0 note=65 velocity=44 time=0
note_on channel=0 note=65 velocity=0 time=60
note_on channel=0 note=58 velocity=0 time=0
note_on channel=0 note=56 velocity=0 time=0
note_on channel=0 note=87 velocity=61 time=60
note_on channel=0 note=75 velocity=51 time=0
note_on channel=0 note=79 velocity=51 time=0
note_on channel=0 note=79 velocity=0 time=60
note_on channel=0 note=75 velocity=0 time=0
note_on channel=0 note=87 velocity=0 time=0
note_on channel=0 note=63 velocity=44 time=0
note_on channel=0 note=58 velocity=37 time=0
note_on channel=0 note=55 velocity=37 time=0
note_on channel=0 note=55 velocity=0 time=60
note_on channel=0 note=58 velocity=0 time=0
note_on channel=0 note=63 velocity=0 time=0
note_on channel=0 note=79 velocity=93 time=0
note_on channel=0 note=82 velocity=93 time=0
note_on channel=0 note=91 velocity=111 time=0
note_on channel=0 note=46 velocity=74 time=0
note_on channel=0 note=34 velocity=62 time=0
note_on channel=0 note=34 velocity=0 time=35
note_on channel=0 note=46 velocity=0 time=0
note_on channel=0 note=67 velocity=61 time=0
note_on channel=0 note=58 velocity=51 time=0
note_on channel=0 note=63 velocity=51 time=0
note_on channel=0 note=63 velocity=0 time=120
note_on channel=0 note=67 velocity=0 time=0
note_on channel=0 note=58 velocity=0 time=0
note_on channel=0 note=58 velocity=51 time=0
note_on channel=0 note=67 velocity=61 time=0
note_on channel=0 note=63 velocity=51 time=0
note_on channel=0 note=63 velocity=0 time=120
note_on channel=0 note=58 velocity=0 time=0
note_on channel=0 note=67 velocity=0 time=0
note_on channel=0 note=67 velocity=61 time=0
note_on channel=0 note=63 velocity=51 time=0
note_on channel=0 note=58 velocity=51 time=0
note_on channel=0 note=58 velocity=0 time=120
note_on channel=0 note=91 velocity=0 time=0
note_on channel=0 note=82 velocity=0 time=0
note_on channel=0 note=79 velocity=0 time=0
note_on channel=0 note=63 velocity=0 time=0
note_on channel=0 note=67 velocity=0 time=0
note_on channel=0 note=75 velocity=63 time=0
note_on channel=0 note=79 velocity=63 time=0
note_on channel=0 note=82 velocity=63 time=0
note_on channel=0 note=87 velocity=75 time=0
note_on channel=0 note=55 velocity=45 time=120
note_on channel=0 note=58 velocity=45 time=0
note_on channel=0 note=63 velocity=53 time=0
note_on channel=0 note=63 velocity=0 time=120
note_on channel=0 note=55 velocity=0 time=0
note_on channel=0 note=58 velocity=0 time=0
note_on channel=0 note=55 velocity=45 time=0
note_on channel=0 note=58 velocity=45 time=0
note_on channel=0 note=63 velocity=54 time=0
note_on channel=0 note=63 velocity=0 time=0
note_on channel=0 note=55 velocity=0 time=0
note_on channel=0 note=58 velocity=0 time=0
note_on channel=0 note=55 velocity=45 time=0
note_on channel=0 note=63 velocity=54 time=0
note_on channel=0 note=58 velocity=45 time=0
note_on channel=0 note=58 velocity=0 time=0
note_on channel=0 note=55 velocity=0 time=0
note_on channel=0 note=79 velocity=0 time=0
note_on channel=0 note=82 velocity=0 time=0
note_on channel=0 note=75 velocity=0 time=0
note_on channel=0 note=63 velocity=0 time=0
note_on channel=0 note=87 velocity=0 time=0
note_on channel=0 note=82 velocity=50 time=0
note_on channel=0 note=79 velocity=50 time=0
note_on channel=0 note=91 velocity=59 time=0
note_on channel=0 note=91 velocity=0 time=32
note_on channel=0 note=79 velocity=0 time=0
note_on channel=0 note=82 velocity=0 time=0
note_on channel=0 note=63 velocity=33 time=60
note_on channel=0 note=67 velocity=39 time=0
note_on channel=0 note=58 velocity=33 time=0
note_on channel=0 note=58 velocity=0 time=60
note_on channel=0 note=67 velocity=0 time=0
note_on channel=0 note=63 velocity=0 time=0
note_on channel=0 note=82 velocity=51 time=60
note_on channel=0 note=88 velocity=61 time=0
note_on channel=0 note=76 velocity=51 time=0
note_on channel=0 note=76 velocity=0 time=60
note_on channel=0 note=88 velocity=0 time=0
note_on channel=0 note=82 velocity=0 time=0
note_on channel=0 note=64 velocity=39 time=60
note_on channel=0 note=61 velocity=33 time=0
note_on channel=0 note=58 velocity=33 time=0
note_on channel=0 note=58 velocity=0 time=60
note_on channel=0 note=61 velocity=0 time=0
note_on channel=0 note=64 velocity=0 time=0
note_on channel=0 note=78 velocity=56 time=60
note_on channel=0 note=82 velocity=56 time=0
note_on channel=0 note=90 velocity=67 time=0
note_on channel=0 note=90 velocity=0 time=60
note_on channel=0 note=82 velocity=0 time=0
note_on channel=0 note=78 velocity=0 time=0
note_on channel=0 note=63 velocity=36 time=60
note_on channel=0 note=66 velocity=44 time=0
note_on channel=0 note=58 velocity=36 time=0
note_on channel=0 note=58 velocity=0 time=60
note_on channel=0 note=66 velocity=0 time=0
note_on channel=0 note=63 velocity=0 time=0
note_on channel=0 note=82 velocity=58 time=60
note_on channel=0 note=89 velocity=69 time=0
note_on channel=0 note=77 velocity=58 time=0
note_on channel=0 note=77 velocity=0 time=60
note_on channel=0 note=89 velocity=0 time=0
note_on channel=0 note=82 velocity=0 time=0
note_on channel=0 note=58 velocity=37 time=0
note_on channel=0 note=65 velocity=45 time=0
note_on channel=0 note=62 velocity=37 time=0
note_on channel=0 note=62 velocity=0 time=60
note_on channel=0 note=65 velocity=0 time=0
note_on channel=0 note=58 velocity=0 time=0
note_on channel=0 note=80 velocity=59 time=0
note_on channel=0 note=82 velocity=59 time=0
note_on channel=0 note=92 velocity=69 time=0
note_on channel=0 note=92 velocity=0 time=60
note_on channel=0 note=82 velocity=0 time=0
note_on channel=0 note=80 velocity=0 time=0
note_on channel=0 note=58 velocity=39 time=60
note_on channel=0 note=68 velocity=46 time=0
note_on channel=0 note=65 velocity=39 time=0
note_on channel=0 note=65 velocity=0 time=60
note_on channel=0 note=68 velocity=0 time=0
note_on channel=0 note=58 velocity=0 time=0
note_on channel=0 note=78 velocity=62 time=60
note_on channel=0 note=82 velocity=62 time=0
note_on channel=0 note=90 velocity=74 time=0
note_on channel=0 note=90 velocity=0 time=60
note_on channel=0 note=82 velocity=0 time=0
note_on channel=0 note=78 velocity=0 time=0
note_on channel=0 note=58 velocity=40 time=60
note_on channel=0 note=62 velocity=40 time=0
note_on channel=0 note=66 velocity=48 time=0
note_on channel=0 note=66 velocity=0 time=60
note_on channel=0 note=62 velocity=0 time=0
note_on channel=0 note=58 velocity=0 time=0
note_on channel=0 note=80 velocity=64 time=60
note_on channel=0 note=82 velocity=64 time=0
note_on channel=0 note=92 velocity=76 time=0
note_on channel=0 note=92 velocity=0 time=60
note_on channel=0 note=82 velocity=0 time=0
note_on channel=0 note=80 velocity=0 time=0
note_on channel=0 note=65 velocity=42 time=60
note_on channel=0 note=58 velocity=42 time=0
note_on channel=0 note=68 velocity=50 time=0
note_on channel=0 note=68 velocity=0 time=60
note_on channel=0 note=58 velocity=0 time=0
note_on channel=0 note=65 velocity=0 time=0
note_on channel=0 note=91 velocity=79 time=60
note_on channel=0 note=82 velocity=66 time=0
note_on channel=0 note=79 velocity=66 time=0
note_on channel=0 note=79 velocity=0 time=60
note_on channel=0 note=82 velocity=0 time=0
note_on channel=0 note=91 velocity=0 time=0
note_on channel=0 note=58 velocity=43 time=0
note_on channel=0 note=63 velocity=43 time=0
note_on channel=0 note=67 velocity=52 time=0
note_on channel=0 note=67 velocity=0 time=60
note_on channel=0 note=63 velocity=0 time=0
note_on channel=0 note=58 velocity=0 time=0
note_on channel=0 note=91 velocity=67 time=0
note_on channel=0 note=82 velocity=67 time=0
note_on channel=0 note=94 velocity=79 time=0
note_on channel=0 note=87 velocity=67 time=0
note_on channel=0 note=87 velocity=0 time=60
note_on channel=0 note=91 velocity=0 time=0
note_on channel=0 note=82 velocity=0 time=0
note_on channel=0 note=94 velocity=0 time=0
note_on channel=0 note=67 velocity=53 time=60
note_on channel=0 note=58 velocity=45 time=0
note_on channel=0 note=63 velocity=45 time=0
note_on channel=0 note=60 velocity=45 time=0
note_on channel=0 note=60 velocity=0 time=60
note_on channel=0 note=67 velocity=0 time=0
note_on channel=0 note=58 velocity=0 time=0
note_on channel=0 note=63 velocity=0 time=0
note_on channel=0 note=92 velocity=84 time=60
note_on channel=0 note=80 velocity=70 time=0
note_on channel=0 note=80 velocity=0 time=60
note_on channel=0 note=92 velocity=0 time=0
note_on channel=0 note=63 velocity=45 time=60
note_on channel=0 note=60 velocity=45 time=0
note_on channel=0 note=68 velocity=54 time=0
note_on channel=0 note=58 velocity=45 time=0
note_on channel=0 note=58 velocity=0 time=60
note_on channel=0 note=63 velocity=0 time=0
note_on channel=0 note=60 velocity=0 time=0
note_on channel=0 note=68 velocity=0 time=0
note_on channel=0 note=82 velocity=72 time=60
note_on channel=0 note=94 velocity=86 time=0
note_on channel=0 note=94 velocity=0 time=60
note_on channel=0 note=82 velocity=0 time=0
note_on channel=0 note=58 velocity=47 time=60
note_on channel=0 note=60 velocity=47 time=0
note_on channel=0 note=63 velocity=47 time=0
note_on channel=0 note=70 velocity=56 time=0
note_on channel=0 note=70 velocity=0 time=60
note_on channel=0 note=58 velocity=0 time=0
note_on channel=0 note=60 velocity=0 time=0
note_on channel=0 note=63 velocity=0 time=0
note_on channel=0 note=93 velocity=89 time=60
note_on channel=0 note=81 velocity=74 time=0
note_on channel=0 note=81 velocity=0 time=60
note_on channel=0 note=93 velocity=0 time=0
note_on channel=0 note=60 velocity=48 time=0
note_on channel=0 note=58 velocity=48 time=0
note_on channel=0 note=69 velocity=58 time=0
note_on channel=0 note=63 velocity=48 time=0
note_on channel=0 note=63 velocity=0 time=60
note_on channel=0 note=60 velocity=0 time=0
note_on channel=0 note=58 velocity=0 time=0
note_on channel=0 note=69 velocity=0 time=0
note_on channel=0 note=84 velocity=84 time=0
note_on channel=0 note=96 velocity=99 time=0
note_on channel=0 note=96 velocity=0 time=117
note_on channel=0 note=84 velocity=0 time=0
note_on channel=0 note=60 velocity=56 time=0
note_on channel=0 note=72 velocity=66 time=0
note_on channel=0 note=72 velocity=0 time=60
note_on channel=0 note=60 velocity=0 time=0
note_on channel=0 note=94 velocity=88 time=17
note_on channel=0 note=82 velocity=74 time=0
note_on channel=0 note=82 velocity=0 time=81
note_on channel=0 note=94 velocity=0 time=0
note_on channel=0 note=58 velocity=56 time=0
note_on channel=0 note=70 velocity=66 time=0
note_on channel=0 note=70 velocity=0 time=60
note_on channel=0 note=58 velocity=0 time=0
note_on channel=0 note=91 velocity=97 time=60
note_on channel=0 note=79 velocity=82 time=0
note_on channel=0 note=79 velocity=0 time=50
note_on channel=0 note=91 velocity=0 time=0
note_on channel=0 note=67 velocity=66 time=0
note_on channel=0 note=55 velocity=56 time=0
note_on channel=0 note=55 velocity=0 time=60
note_on channel=0 note=67 velocity=0 time=0
note_on channel=0 note=77 velocity=76 time=7
note_on channel=0 note=89 velocity=90 time=0
note_on channel=0 note=89 velocity=0 time=0
note_on channel=0 note=77 velocity=0 time=0
note_on channel=0 note=53 velocity=56 time=0
note_on channel=0 note=65 velocity=66 time=0
note_on channel=0 note=65 velocity=0 time=60
note_on channel=0 note=53 velocity=0 time=0
note_on channel=0 note=75 velocity=85 time=0
note_on channel=0 note=87 velocity=97 time=0
note_on channel=0 note=87 velocity=0 time=78
note_on channel=0 note=75 velocity=0 time=0
note_on channel=0 note=63 velocity=59 time=0
note_on channel=0 note=51 velocity=50 time=0
note_on channel=0 note=51 velocity=0 time=60
note_on channel=0 note=63 velocity=0 time=0
note_on channel=0 note=86 velocity=82 time=60
note_on channel=0 note=74 velocity=69 time=0
note_on channel=0 note=74 velocity=0 time=50
note_on channel=0 note=86 velocity=0 time=0
note_on channel=0 note=62 velocity=59 time=0
note_on channel=0 note=50 velocity=50 time=0
note_on channel=0 note=50 velocity=0 time=60
note_on channel=0 note=62 velocity=0 time=0
note_on channel=0 note=72 velocity=73 time=3
note_on channel=0 note=84 velocity=87 time=0
note_on channel=0 note=84 velocity=0 time=57
note_on channel=0 note=72 velocity=0 time=0
note_on channel=0 note=60 velocity=59 time=0
note_on channel=0 note=48 velocity=50 time=0
note_on channel=0 note=48 velocity=0 time=60
note_on channel=0 note=60 velocity=0 time=0
note_on channel=0 note=82 velocity=81 time=60
note_on channel=0 note=70 velocity=68 time=0
note_on channel=0 note=70 velocity=0 time=0
note_on channel=0 note=82 velocity=0 time=0
note_on channel=0 note=46 velocity=50 time=0
note_on channel=0 note=58 velocity=59 time=0
note_on channel=0 note=58 velocity=0 time=7
note_on channel=0 note=46 velocity=0 time=0
note_on channel=0 note=79 velocity=89 time=0
note_on channel=0 note=67 velocity=75 time=0
note_on channel=0 note=67 velocity=0 time=89
note_on channel=0 note=79 velocity=0 time=0
note_on channel=0 note=43 velocity=50 time=0
note_on channel=0 note=55 velocity=59 time=0
note_on channel=0 note=55 velocity=0 time=60
note_on channel=0 note=43 velocity=0 time=0
note_on channel=0 note=77 velocity=79 time=10
note_on channel=0 note=65 velocity=66 time=0
note_on channel=0 note=65 velocity=0 time=64
note_on channel=0 note=77 velocity=0 time=0
note_on channel=0 note=53 velocity=59 time=0
note_on channel=0 note=41 velocity=50 time=0
note_on channel=0 note=41 velocity=0 time=60
note_on channel=0 note=53 velocity=0 time=0
note_on channel=0 note=63 velocity=69 time=3
note_on channel=0 note=75 velocity=82 time=0
note_on channel=0 note=75 velocity=0 time=53
note_on channel=0 note=63 velocity=0 time=0
note_on channel=0 note=51 velocity=56 time=0
note_on channel=0 note=39 velocity=47 time=0
note_on channel=0 note=39 velocity=0 time=60
note_on channel=0 note=51 velocity=0 time=0
note_on channel=0 note=62 velocity=64 time=14
note_on channel=0 note=74 velocity=76 time=0
note_on channel=0 note=74 velocity=0 time=0
note_on channel=0 note=62 velocity=0 time=0
note_on channel=0 note=38 velocity=47 time=0
note_on channel=0 note=50 velocity=56 time=0
note_on channel=0 note=50 velocity=0 time=60
note_on channel=0 note=38 velocity=0 time=0
note_on channel=0 note=60 velocity=67 time=0
note_on channel=0 note=72 velocity=80 time=0
note_on channel=0 note=72 velocity=0 time=74
note_on channel=0 note=60 velocity=0 time=0
note_on channel=0 note=36 velocity=45 time=0
note_on channel=0 note=48 velocity=53 time=0
note_on channel=0 note=48 velocity=0 time=60
note_on channel=0 note=36 velocity=0 time=0
note_on channel=0 note=70 velocity=71 time=35
note_on channel=0 note=58 velocity=59 time=0
note_on channel=0 note=58 velocity=0 time=71
note_on channel=0 note=70 velocity=0 time=0
note_on channel=0 note=46 velocity=53 time=0
note_on channel=0 note=34 velocity=45 time=0
note_on channel=0 note=34 velocity=0 time=60
note_on channel=0 note=46 velocity=0 time=0
note_on channel=0 note=67 velocity=78 time=21
note_on channel=0 note=55 velocity=65 time=0
note_on channel=0 note=55 velocity=0 time=67
note_on channel=0 note=67 velocity=0 time=0
note_on channel=0 note=31 velocity=45 time=0
note_on channel=0 note=43 velocity=53 time=0
note_on channel=0 note=43 velocity=0 time=60
note_on channel=0 note=31 velocity=0 time=0
note_on channel=0 note=65 velocity=72 time=60
note_on channel=0 note=53 velocity=61 time=0
note_on channel=0 note=53 velocity=0 time=0
note_on channel=0 note=65 velocity=0 time=0
note_on channel=0 note=41 velocity=53 time=0
note_on channel=0 note=29 velocity=45 time=0
note_on channel=0 note=29 velocity=0 time=60
note_on channel=0 note=41 velocity=0 time=0
note_on channel=0 note=69 velocity=77 time=0
note_on channel=0 note=33 velocity=42 time=117
note_on channel=0 note=33 velocity=0 time=120
note_on channel=0 note=69 velocity=0 time=0
note_on channel=0 note=65 velocity=67 time=0
note_on channel=0 note=29 velocity=28 time=0
note_on channel=0 note=29 velocity=0 time=0
note_on channel=0 note=65 velocity=0 time=0
note_on channel=0 note=72 velocity=73 time=0
note_on channel=0 note=36 velocity=39 time=120
note_on channel=0 note=36 velocity=0 time=120
note_on channel=0 note=72 velocity=0 time=0
note_on channel=0 note=65 velocity=67 time=0
note_on channel=0 note=29 velocity=27 time=0
note_on channel=0 note=29 velocity=0 time=0
note_on channel=0 note=65 velocity=0 time=0
note_on channel=0 note=77 velocity=71 time=0
note_on channel=0 note=41 velocity=37 time=120
note_on channel=0 note=41 velocity=0 time=120
note_on channel=0 note=77 velocity=0 time=0
note_on channel=0 note=65 velocity=59 time=0
note_on channel=0 note=29 velocity=26 time=0
note_on channel=0 note=29 velocity=0 time=0
note_on channel=0 note=65 velocity=0 time=0
note_on channel=0 note=81 velocity=68 time=0
note_on channel=0 note=45 velocity=34 time=120
note_on channel=0 note=45 velocity=0 time=120
note_on channel=0 note=81 velocity=0 time=0
note_on channel=0 note=65 velocity=56 time=0
note_on channel=0 note=29 velocity=24 time=0
note_on channel=0 note=29 velocity=0 time=0
note_on channel=0 note=65 velocity=0 time=0
note_on channel=0 note=84 velocity=62 time=0
note_on channel=0 note=48 velocity=32 time=120
note_on channel=0 note=48 velocity=0 time=120
note_on channel=0 note=84 velocity=0 time=0
note_on channel=0 note=65 velocity=49 time=0
note_on channel=0 note=29 velocity=23 time=0
note_on channel=0 note=29 velocity=0 time=0
note_on channel=0 note=65 velocity=0 time=0
note_on channel=0 note=89 velocity=54 time=0
note_on channel=0 note=53 velocity=29 time=120
note_on channel=0 note=53 velocity=0 time=120
note_on channel=0 note=89 velocity=0 time=0
note_on channel=0 note=65 velocity=45 time=0
note_on channel=0 note=29 velocity=24 time=0
note_on channel=0 note=29 velocity=0 time=0
note_on channel=0 note=65 velocity=0 time=0
note_on channel=0 note=89 velocity=52 time=0
note_on channel=0 note=53 velocity=28 time=120
note_on channel=0 note=53 velocity=0 time=0
note_on channel=0 note=89 velocity=0 time=0
note_on channel=0 note=65 velocity=41 time=0
note_on channel=0 note=29 velocity=21 time=0
note_on channel=0 note=29 velocity=0 time=0
note_on channel=0 note=65 velocity=0 time=0
note_on channel=0 note=89 velocity=48 time=0
note_on channel=0 note=53 velocity=21 time=120
note_on channel=0 note=53 velocity=0 time=0
note_on channel=0 note=89 velocity=0 time=0
note_on channel=0 note=34 velocity=84 time=0
note_on channel=0 note=34 velocity=0 time=0
note_on channel=0 note=53 velocity=68 time=0
note_on channel=0 note=58 velocity=68 time=0
note_on channel=0 note=62 velocity=81 time=0
note_on channel=0 note=62 velocity=0 time=360
note_on channel=0 note=58 velocity=0 time=0
note_on channel=0 note=53 velocity=0 time=0
note_on channel=0 note=82 velocity=77 time=0
note_on channel=0 note=86 velocity=92 time=0
note_on channel=0 note=77 velocity=77 time=0
note_on channel=0 note=74 velocity=77 time=0
note_on channel=0 note=53 velocity=61 time=0
note_on channel=0 note=58 velocity=61 time=0
note_on channel=0 note=62 velocity=73 time=0
note_on channel=0 note=62 velocity=0 time=120
note_on channel=0 note=53 velocity=0 time=0
note_on channel=0 note=86 velocity=0 time=0
note_on channel=0 note=77 velocity=0 time=0
note_on channel=0 note=82 velocity=0 time=0
note_on channel=0 note=58 velocity=0 time=0
note_on channel=0 note=74 velocity=0 time=0
note_on channel=0 note=82 velocity=69 time=0
note_on channel=0 note=77 velocity=69 time=0
note_on channel=0 note=86 velocity=82 time=0
note_on channel=0 note=74 velocity=69 time=0
note_on channel=0 note=62 velocity=81 time=0
note_on channel=0 note=58 velocity=68 time=0
note_on channel=0 note=53 velocity=68 time=0
note_on channel=0 note=53 velocity=0 time=240
note_on channel=0 note=62 velocity=0 time=0
note_on channel=0 note=77 velocity=0 time=0
note_on channel=0 note=86 velocity=0 time=0
note_on channel=0 note=82 velocity=0 time=0
note_on channel=0 note=58 velocity=0 time=0
note_on channel=0 note=74 velocity=0 time=0
note_on channel=0 note=82 velocity=70 time=0
note_on channel=0 note=77 velocity=70 time=0
note_on channel=0 note=87 velocity=89 time=0
note_on channel=0 note=74 velocity=70 time=0
note_on channel=0 note=62 velocity=77 time=0
note_on channel=0 note=58 velocity=66 time=0
note_on channel=0 note=53 velocity=66 time=0
note_on channel=0 note=53 velocity=0 time=45
note_on channel=0 note=62 velocity=0 time=0
note_on channel=0 note=77 velocity=0 time=0
note_on channel=0 note=87 velocity=0 time=0
note_on channel=0 note=82 velocity=0 time=0
note_on channel=0 note=58 velocity=0 time=0
note_on channel=0 note=74 velocity=0 time=0
note_on channel=0 note=82 velocity=72 time=0
note_on channel=0 note=74 velocity=72 time=0
note_on channel=0 note=77 velocity=72 time=0
note_on channel=0 note=86 velocity=85 time=0
note_on channel=0 note=53 velocity=68 time=0
note_on channel=0 note=62 velocity=81 time=0
note_on channel=0 note=58 velocity=68 time=0
note_on channel=0 note=58 velocity=0 time=45
note_on channel=0 note=53 velocity=0 time=0
note_on channel=0 note=74 velocity=0 time=0
note_on channel=0 note=77 velocity=0 time=0
note_on channel=0 note=82 velocity=0 time=0
note_on channel=0 note=62 velocity=0 time=0
note_on channel=0 note=86 velocity=0 time=0
note_on channel=0 note=82 velocity=77 time=0
note_on channel=0 note=74 velocity=77 time=0
note_on channel=0 note=77 velocity=77 time=0
note_on channel=0 note=86 velocity=92 time=0
note_on channel=0 note=58 velocity=68 time=0
note_on channel=0 note=62 velocity=81 time=0
note_on channel=0 note=53 velocity=68 time=0
note_on channel=0 note=53 velocity=0 time=14
note_on channel=0 note=58 velocity=0 time=0
note_on channel=0 note=74 velocity=0 time=0
note_on channel=0 note=77 velocity=0 time=0
note_on channel=0 note=82 velocity=0 time=0
note_on channel=0 note=62 velocity=0 time=0
note_on channel=0 note=86 velocity=0 time=0
note_on channel=0 note=82 velocity=84 time=120
note_on channel=0 note=74 velocity=70 time=0
note_on channel=0 note=77 velocity=70 time=0
note_on channel=0 note=70 velocity=70 time=0
note_on channel=0 note=50 velocity=68 time=0
note_on channel=0 note=53 velocity=68 time=0
note_on channel=0 note=58 velocity=81 time=0
note_on channel=0 note=58 velocity=0 time=120
note_on channel=0 note=50 velocity=0 time=0
note_on channel=0 note=74 velocity=0 time=0
note_on channel=0 note=77 velocity=0 time=0
note_on channel=0 note=82 velocity=0 time=0
note_on channel=0 note=53 velocity=0 time=0
note_on channel=0 note=70 velocity=0 time=0
note_on channel=0 note=34 velocity=84 time=0
note_on channel=0 note=34 velocity=0 time=0
note_on channel=0 note=53 velocity=68 time=0
note_on channel=0 note=50 velocity=68 time=0
note_on channel=0 note=58 velocity=68 time=0
note_on channel=0 note=62 velocity=81 time=0
note_on channel=0 note=62 velocity=0 time=360
note_on channel=0 note=53 velocity=0 time=0
note_on channel=0 note=50 velocity=0 time=0
note_on channel=0 note=58 velocity=0 time=0
note_on channel=0 note=77 velocity=77 time=0
note_on channel=0 note=86 velocity=92 time=0
note_on channel=0 note=82 velocity=77 time=0
note_on channel=0 note=53 velocity=61 time=0
note_on channel=0 note=62 velocity=73 time=0
note_on channel=0 note=50 velocity=61 time=0
note_on channel=0 note=58 velocity=61 time=0
note_on channel=0 note=74 velocity=77 time=7
note_on channel=0 note=58 velocity=0 time=113
note_on channel=0 note=53 velocity=0 time=0
note_on channel=0 note=62 velocity=0 time=0
note_on channel=0 note=86 velocity=0 time=0
note_on channel=0 note=82 velocity=0 time=0
note_on channel=0 note=77 velocity=0 time=0
note_on channel=0 note=50 velocity=0 time=0
note_on channel=0 note=86 velocity=99 time=0
note_on channel=0 note=74 velocity=82 time=0
note_on channel=0 note=50 velocity=81 time=0
note_on channel=0 note=62 velocity=97 time=0
note_on channel=0 note=74 velocity=0 time=4
note_on channel=0 note=50 velocity=0 time=114
note_on channel=0 note=86 velocity=0 time=0
note_on channel=0 note=74 velocity=0 time=0
note_on channel=0 note=62 velocity=0 time=0
note_on channel=0 note=81 velocity=70 time=0
note_on channel=0 note=74 velocity=70 time=0
note_on channel=0 note=78 velocity=70 time=0
note_on channel=0 note=86 velocity=84 time=0
note_on channel=0 note=50 velocity=66 time=0
note_on channel=0 note=62 velocity=77 time=0
note_on channel=0 note=54 velocity=66 time=0
note_on channel=0 note=57 velocity=66 time=0
note_on channel=0 note=57 velocity=0 time=45
note_on channel=0 note=81 velocity=0 time=0
note_on channel=0 note=50 velocity=0 time=0
note_on channel=0 note=74 velocity=0 time=0
note_on channel=0 note=78 velocity=0 time=0
note_on channel=0 note=86 velocity=0 time=0
note_on channel=0 note=62 velocity=0 time=0
note_on channel=0 note=54 velocity=0 time=0
note_on channel=0 note=86 velocity=85 time=0
note_on channel=0 note=78 velocity=70 time=0
note_on channel=0 note=74 velocity=72 time=0
note_on channel=0 note=81 velocity=72 time=0
note_on channel=0 note=50 velocity=68 time=0
note_on channel=0 note=57 velocity=68 time=0
note_on channel=0 note=54 velocity=68 time=0
note_on channel=0 note=62 velocity=81 time=0
note_on channel=0 note=62 velocity=0 time=45
note_on channel=0 note=86 velocity=0 time=0
note_on channel=0 note=50 velocity=0 time=0
note_on channel=0 note=78 velocity=0 time=0
note_on channel=0 note=74 velocity=0 time=0
note_on channel=0 note=81 velocity=0 time=0
note_on channel=0 note=57 velocity=0 time=0
note_on channel=0 note=54 velocity=0 time=0
note_on channel=0 note=81 velocity=77 time=0
note_on channel=0 note=86 velocity=92 time=0
note_on channel=0 note=74 velocity=77 time=0
note_on channel=0 note=78 velocity=77 time=0
note_on channel=0 note=54 velocity=68 time=0
note_on channel=0 note=57 velocity=68 time=0
note_on channel=0 note=50 velocity=68 time=0
note_on channel=0 note=62 velocity=81 time=0
note_on channel=0 note=62 velocity=0 time=14
note_on channel=0 note=81 velocity=0 time=0
note_on channel=0 note=54 velocity=0 time=0
note_on channel=0 note=86 velocity=0 time=0
note_on channel=0 note=74 velocity=0 time=0
note_on channel=0 note=78 velocity=0 time=0
note_on channel=0 note=57 velocity=0 time=0
note_on channel=0 note=50 velocity=0 time=0
note_on channel=0 note=86 velocity=84 time=120
note_on channel=0 note=81 velocity=70 time=0
note_on channel=0 note=74 velocity=70 time=0
note_on channel=0 note=78 velocity=70 time=0
note_on channel=0 note=50 velocity=68 time=0
note_on channel=0 note=62 velocity=81 time=0
note_on channel=0 note=54 velocity=68 time=0
note_on channel=0 note=57 velocity=68 time=0
note_on channel=0 note=57 velocity=0 time=120
note_on channel=0 note=86 velocity=0 time=0
note_on channel=0 note=50 velocity=0 time=0
note_on channel=0 note=81 velocity=0 time=0
note_on channel=0 note=74 velocity=0 time=0
note_on channel=0 note=78 velocity=0 time=0
note_on channel=0 note=62 velocity=0 time=0
note_on channel=0 note=54 velocity=0 time=0
note_on channel=0 note=50 velocity=39 time=367
note_on channel=0 note=50 velocity=0 time=0
note_on channel=0 note=62 velocity=45 time=0
note_on channel=0 note=66 velocity=33 time=0
note_on channel=0 note=74 velocity=39 time=0
note_on channel=0 note=69 velocity=33 time=0
note_on channel=0 note=69 velocity=0 time=0
note_on channel=0 note=62 velocity=0 time=0
note_on channel=0 note=66 velocity=0 time=0
note_on channel=0 note=74 velocity=0 time=0
note_on channel=0 note=50 velocity=40 time=0
note_on channel=0 note=50 velocity=0 time=0
note_on channel=0 note=62 velocity=47 time=0
note_on channel=0 note=66 velocity=35 time=0
note_on channel=0 note=69 velocity=35 time=0
note_on channel=0 note=74 velocity=42 time=0
note_on channel=0 note=74 velocity=0 time=0
note_on channel=0 note=62 velocity=0 time=0
note_on channel=0 note=66 velocity=0 time=0
note_on channel=0 note=69 velocity=0 time=0
note_on channel=0 note=50 velocity=42 time=0
note_on channel=0 note=50 velocity=0 time=0
note_on channel=0 note=62 velocity=49 time=0
note_on channel=0 note=69 velocity=37 time=0
note_on channel=0 note=66 velocity=37 time=0
note_on channel=0 note=74 velocity=44 time=0
note_on channel=0 note=74 velocity=0 time=0
note_on channel=0 note=62 velocity=0 time=0
note_on channel=0 note=69 velocity=0 time=0
note_on channel=0 note=66 velocity=0 time=0
note_on channel=0 note=50 velocity=41 time=0
note_on channel=0 note=50 velocity=0 time=0
note_on channel=0 note=62 velocity=52 time=0
note_on channel=0 note=66 velocity=39 time=0
note_on channel=0 note=69 velocity=39 time=0
note_on channel=0 note=74 velocity=46 time=0
note_on channel=0 note=74 velocity=0 time=0
note_on channel=0 note=62 velocity=0 time=0
note_on channel=0 note=66 velocity=0 time=0
note_on channel=0 note=69 velocity=0 time=0
note_on channel=0 note=50 velocity=44 time=0
note_on channel=0 note=50 velocity=0 time=0
note_on channel=0 note=60 velocity=55 time=0
note_on channel=0 note=57 velocity=55 time=0
note_on channel=0 note=74 velocity=41 time=0
note_on channel=0 note=72 velocity=41 time=0
note_on channel=0 note=78 velocity=49 time=0
note_on channel=0 note=69 velocity=41 time=0
note_on channel=0 note=69 velocity=0 time=0
note_on channel=0 note=57 velocity=0 time=0
note_on channel=0 note=74 velocity=0 time=0
note_on channel=0 note=60 velocity=0 time=0
note_on channel=0 note=78 velocity=0 time=0
note_on channel=0 note=72 velocity=0 time=0
note_on channel=0 note=50 velocity=46 time=0
note_on channel=0 note=50 velocity=0 time=0
note_on channel=0 note=60 velocity=58 time=0
note_on channel=0 note=57 velocity=58 time=0
note_on channel=0 note=69 velocity=43 time=0
note_on channel=0 note=78 velocity=51 time=0
note_on channel=0 note=72 velocity=43 time=0
note_on channel=0 note=74 velocity=43 time=0
note_on channel=0 note=74 velocity=0 time=0
note_on channel=0 note=57 velocity=0 time=0
note_on channel=0 note=69 velocity=0 time=0
note_on channel=0 note=60 velocity=0 time=0
note_on channel=0 note=72 velocity=0 time=0
note_on channel=0 note=78 velocity=0 time=0
note_on channel=0 note=50 velocity=50 time=0
note_on channel=0 note=50 velocity=0 time=0
note_on channel=0 note=57 velocity=60 time=0
note_on channel=0 note=54 velocity=60 time=0
note_on channel=0 note=69 velocity=50 time=0
note_on channel=0 note=72 velocity=50 time=0
note_on channel=0 note=81 velocity=60 time=0
note_on channel=0 note=78 velocity=50 time=0
note_on channel=0 note=78 velocity=0 time=0
note_on channel=0 note=54 velocity=0 time=0
note_on channel=0 note=69 velocity=0 time=0
note_on channel=0 note=57 velocity=0 time=0
note_on channel=0 note=81 velocity=0 time=0
note_on channel=0 note=72 velocity=0 time=0
note_on channel=0 note=50 velocity=52 time=0
note_on channel=0 note=50 velocity=0 time=0
note_on channel=0 note=45 velocity=63 time=0
note_on channel=0 note=78 velocity=57 time=0
note_on channel=0 note=84 velocity=68 time=0
note_on channel=0 note=72 velocity=57 time=0
note_on channel=0 note=81 velocity=57 time=0
note_on channel=0 note=81 velocity=0 time=0
note_on channel=0 note=84 velocity=0 time=0
note_on channel=0 note=45 velocity=0 time=0
note_on channel=0 note=78 velocity=0 time=0
note_on channel=0 note=72 velocity=0 time=0
note_on channel=0 note=50 velocity=52 time=0
note_on channel=0 note=50 velocity=0 time=0
note_on channel=0 note=45 velocity=65 time=0
note_on channel=0 note=84 velocity=64 time=0
note_on channel=0 note=78 velocity=64 time=0
note_on channel=0 note=90 velocity=75 time=0
note_on channel=0 note=81 velocity=64 time=0
note_on channel=0 note=81 velocity=0 time=0
note_on channel=0 note=78 velocity=0 time=0
note_on channel=0 note=45 velocity=0 time=0
note_on channel=0 note=84 velocity=0 time=0
note_on channel=0 note=90 velocity=0 time=0
note_on channel=0 note=50 velocity=57 time=0
note_on channel=0 note=50 velocity=0 time=0
note_on channel=0 note=43 velocity=68 time=0
note_on channel=0 note=84 velocity=66 time=0
note_on channel=0 note=81 velocity=66 time=0
note_on channel=0 note=93 velocity=79 time=0
note_on channel=0 note=93 velocity=0 time=0
note_on channel=0 note=43 velocity=0 time=0
note_on channel=0 note=84 velocity=0 time=0
note_on channel=0 note=81 velocity=0 time=0
note_on channel=0 note=50 velocity=57 time=0
note_on channel=0 note=50 velocity=0 time=0
note_on channel=0 note=42 velocity=71 time=0
note_on channel=0 note=93 velocity=69 time=0
note_on channel=0 note=84 velocity=69 time=0
note_on channel=0 note=96 velocity=82 time=0
note_on channel=0 note=96 velocity=0 time=0
note_on channel=0 note=42 velocity=0 time=0
note_on channel=0 note=93 velocity=0 time=0
note_on channel=0 note=84 velocity=0 time=0
note_on channel=0 note=50 velocity=59 time=0
note_on channel=0 note=50 velocity=0 time=0
note_on channel=0 note=39 velocity=73 time=0
note_on channel=0 note=84 velocity=71 time=0
note_on channel=0 note=96 velocity=85 time=0
note_on channel=0 note=90 velocity=71 time=0
note_on channel=0 note=93 velocity=71 time=0
note_on channel=0 note=93 velocity=0 time=120
note_on channel=0 note=96 velocity=0 time=0
note_on channel=0 note=39 velocity=0 time=0
note_on channel=0 note=84 velocity=0 time=0
note_on channel=0 note=90 velocity=0 time=0
note_on channel=0 note=50 velocity=67 time=0
note_on channel=0 note=50 velocity=0 time=0
note_on channel=0 note=93 velocity=71 time=0
note_on channel=0 note=96 velocity=85 time=0
note_on channel=0 note=84 velocity=71 time=0
note_on channel=0 note=90 velocity=71 time=0
note_on channel=0 note=50 velocity=73 time=0
note_on channel=0 note=38 velocity=67 time=0
note_on channel=0 note=90 velocity=0 time=40
note_on channel=0 note=84 velocity=0 time=0
note_on channel=0 note=93 velocity=0 time=0
note_on channel=0 note=96 velocity=0 time=0
note_on channel=0 note=38 velocity=0 time=0
note_on channel=0 note=50 velocity=0 time=0
note_on channel=0 note=84 velocity=57 time=0
note_on channel=0 note=81 velocity=57 time=0
note_on channel=0 note=75 velocity=48 time=0
note_on channel=0 note=75 velocity=0 time=0
note_on channel=0 note=81 velocity=0 time=0
note_on channel=0 note=84 velocity=0 time=0
note_on channel=0 note=80 velocity=57 time=0
note_on channel=0 note=83 velocity=57 time=0
note_on channel=0 note=74 velocity=48 time=0
note_on channel=0 note=74 velocity=0 time=0
note_on channel=0 note=83 velocity=0 time=0
note_on channel=0 note=80 velocity=0 time=0
note_on channel=0 note=81 velocity=63 time=0
note_on channel=0 note=84 velocity=63 time=0
note_on channel=0 note=75 velocity=54 time=0
note_on channel=0 note=75 velocity=0 time=0
note_on channel=0 note=84 velocity=0 time=0
note_on channel=0 note=81 velocity=0 time=0
note_on channel=0 note=66 velocity=52 time=0
note_on channel=0 note=69 velocity=52 time=0
note_on channel=0 note=74 velocity=44 time=0
note_on channel=0 note=74 velocity=0 time=0
note_on channel=0 note=69 velocity=0 time=0
note_on channel=0 note=66 velocity=0 time=0
note_on channel=0 note=70 velocity=52 time=0
note_on channel=0 note=67 velocity=52 time=0
note_on channel=0 note=73 velocity=44 time=0
note_on channel=0 note=73 velocity=0 time=0
note_on channel=0 note=67 velocity=0 time=0
note_on channel=0 note=70 velocity=0 time=0
note_on channel=0 note=69 velocity=58 time=0
note_on channel=0 note=66 velocity=58 time=0
note_on channel=0 note=74 velocity=44 time=0
note_on channel=0 note=74 velocity=0 time=0
note_on channel=0 note=66 velocity=0 time=0
note_on channel=0 note=69 velocity=0 time=0
note_on channel=0 note=84 velocity=47 time=0
note_on channel=0 note=81 velocity=47 time=0
note_on channel=0 note=63 velocity=43 time=0
note_on channel=0 note=63 velocity=0 time=0
note_on channel=0 note=81 velocity=0 time=0
note_on channel=0 note=84 velocity=0 time=0
note_on channel=0 note=80 velocity=47 time=0
note_on channel=0 note=83 velocity=47 time=0
note_on channel=0 note=62 velocity=43 time=0
note_on channel=0 note=62 velocity=0 time=0
note_on channel=0 note=83 velocity=0 time=0
note_on channel=0 note=80 velocity=0 time=0
note_on channel=0 note=81 velocity=56 time=0
note_on channel=0 note=84 velocity=56 time=0
note_on channel=0 note=63 velocity=51 time=0
note_on channel=0 note=63 velocity=0 time=0
note_on channel=0 note=84 velocity=0 time=0
note_on channel=0 note=81 velocity=0 time=0
note_on channel=0 note=90 velocity=47 time=0
note_on channel=0 note=62 velocity=43 time=0
note_on channel=0 note=62 velocity=0 time=85
note_on channel=0 note=90 velocity=0 time=0
note_on channel=0 note=93 velocity=47 time=0
note_on channel=0 note=61 velocity=43 time=0
note_on channel=0 note=61 velocity=0 time=0
note_on channel=0 note=93 velocity=0 time=0
note_on channel=0 note=96 velocity=57 time=0
note_on channel=0 note=62 velocity=51 time=0
note_on channel=0 note=96 velocity=0 time=28
note_on channel=0 note=98 velocity=48 time=0
note_on channel=0 note=98 velocity=0 time=120
note_on channel=0 note=62 velocity=0 time=0
note_on channel=0 note=96 velocity=49 time=0
note_on channel=0 note=96 velocity=0 time=0
note_on channel=0 note=95 velocity=50 time=0
note_on channel=0 note=50 velocity=42 time=0
note_on channel=0 note=50 velocity=0 time=0
note_on channel=0 note=95 velocity=0 time=0
note_on channel=0 note=96 velocity=65 time=0
note_on channel=0 note=54 velocity=51 time=0
note_on channel=0 note=96 velocity=0 time=21
note_on channel=0 note=98 velocity=57 time=0
note_on channel=0 note=98 velocity=0 time=120
note_on channel=0 note=54 velocity=0 time=0
note_on channel=0 note=100 velocity=66 time=0
note_on channel=0 note=100 velocity=0 time=0
note_on channel=0 note=96 velocity=58 time=0
note_on channel=0 note=57 velocity=40 time=0
note_on channel=0 note=57 velocity=0 time=0
note_on channel=0 note=96 velocity=0 time=0
note_on channel=0 note=93 velocity=69 time=0
note_on channel=0 note=60 velocity=51 time=0
note_on channel=0 note=93 velocity=0 time=14
note_on channel=0 note=95 velocity=56 time=0
note_on channel=0 note=95 velocity=0 time=120
note_on channel=0 note=60 velocity=0 time=0
note_on channel=0 note=96 velocity=66 time=0
note_on channel=0 note=96 velocity=0 time=0
note_on channel=0 note=93 velocity=54 time=0
note_on channel=0 note=66 velocity=43 time=0
note_on channel=0 note=66 velocity=0 time=0
note_on channel=0 note=93 velocity=0 time=0
note_on channel=0 note=90 velocity=66 time=0
note_on channel=0 note=69 velocity=51 time=0
note_on channel=0 note=90 velocity=0 time=7
note_on channel=0 note=91 velocity=53 time=0
note_on channel=0 note=91 velocity=0 time=120
note_on channel=0 note=69 velocity=0 time=0
note_on channel=0 note=93 velocity=61 time=0
note_on channel=0 note=72 velocity=45 time=0
note_on channel=0 note=72 velocity=0 time=0
note_on channel=0 note=93 velocity=0 time=0
note_on channel=0 note=90 velocity=53 time=0
note_on channel=0 note=69 velocity=45 time=0
note_on channel=0 note=69 velocity=0 time=0
note_on channel=0 note=90 velocity=0 time=0
note_on channel=0 note=84 velocity=47 time=0
note_on channel=0 note=81 velocity=40 time=0
note_on channel=0 note=81 velocity=0 time=28
note_on channel=0 note=84 velocity=0 time=0
note_on channel=0 note=86 velocity=47 time=0
note_on channel=0 note=83 velocity=40 time=0
note_on channel=0 note=83 velocity=0 time=120
note_on channel=0 note=86 velocity=0 time=0
note_on channel=0 note=88 velocity=58 time=0
note_on channel=0 note=84 velocity=44 time=0
note_on channel=0 note=84 velocity=0 time=0
note_on channel=0 note=88 velocity=0 time=0
note_on channel=0 note=84 velocity=47 time=0
note_on channel=0 note=81 velocity=40 time=0
note_on channel=0 note=81 velocity=0 time=0
note_on channel=0 note=84 velocity=0 time=0
note_on channel=0 note=81 velocity=47 time=0
note_on channel=0 note=72 velocity=40 time=0
note_on channel=0 note=72 velocity=0 time=14
note_on channel=0 note=81 velocity=0 time=0
note_on channel=0 note=83 velocity=47 time=0
note_on channel=0 note=74 velocity=40 time=0
note_on channel=0 note=74 velocity=0 time=120
note_on channel=0 note=83 velocity=0 time=0
note_on channel=0 note=84 velocity=53 time=0
note_on channel=0 note=76 velocity=45 time=0
note_on channel=0 note=76 velocity=0 time=0
note_on channel=0 note=84 velocity=0 time=0
note_on channel=0 note=81 velocity=47 time=0
note_on channel=0 note=72 velocity=40 time=0
note_on channel=0 note=72 velocity=0 time=0
note_on channel=0 note=81 velocity=0 time=0
note_on channel=0 note=78 velocity=47 time=0
note_on channel=0 note=69 velocity=40 time=0
note_on channel=0 note=69 velocity=0 time=14
note_on channel=0 note=78 velocity=0 time=0
note_on channel=0 note=79 velocity=47 time=0
note_on channel=0 note=71 velocity=40 time=0
note_on channel=0 note=71 velocity=0 time=120
note_on channel=0 note=79 velocity=0 time=0
note_on channel=0 note=81 velocity=52 time=0
note_on channel=0 note=72 velocity=45 time=0
note_on channel=0 note=72 velocity=0 time=0
note_on channel=0 note=81 velocity=0 time=0
note_on channel=0 note=78 velocity=47 time=0
note_on channel=0 note=69 velocity=40 time=0
note_on channel=0 note=69 velocity=0 time=118
note_on channel=0 note=78 velocity=0 time=0
note_on channel=0 note=72 velocity=47 time=0
note_on channel=0 note=69 velocity=47 time=0
note_on channel=0 note=74 velocity=47 time=0
note_on channel=0 note=66 velocity=40 time=0
note_on channel=0 note=66 velocity=0 time=7
note_on channel=0 note=67 velocity=40 time=0
note_on channel=0 note=67 velocity=0 time=120
note_on channel=0 note=74 velocity=0 time=0
note_on channel=0 note=69 velocity=0 time=0
note_on channel=0 note=72 velocity=0 time=0
note_on channel=0 note=69 velocity=45 time=0
note_on channel=0 note=69 velocity=0 time=0
note_on channel=0 note=66 velocity=40 time=0
note_on channel=0 note=66 velocity=0 time=0
note_on channel=0 note=95 velocity=57 time=0
note_on channel=0 note=67 velocity=48 time=0
note_on channel=0 note=71 velocity=51 time=0
note_on channel=0 note=62 velocity=48 time=0
note_on channel=0 note=95 velocity=0 time=28
note_on channel=0 note=96 velocity=48 time=0
note_on channel=0 note=96 velocity=0 time=120
note_on channel=0 note=62 velocity=0 time=0
note_on channel=0 note=71 velocity=0 time=0
note_on channel=0 note=67 velocity=0 time=0
note_on channel=0 note=95 velocity=49 time=0
note_on channel=0 note=95 velocity=0 time=0
note_on channel=0 note=93 velocity=50 time=0
note_on channel=0 note=50 velocity=42 time=0
note_on channel=0 note=50 velocity=0 time=0
note_on channel=0 note=93 velocity=0 time=0
note_on channel=0 note=95 velocity=65 time=0
note_on channel=0 note=55 velocity=51 time=0
note_on channel=0 note=95 velocity=0 time=21
note_on channel=0 note=96 velocity=57 time=0
note_on channel=0 note=96 velocity=0 time=120
note_on channel=0 note=55 velocity=0 time=0
note_on channel=0 note=98 velocity=66 time=0
note_on channel=0 note=98 velocity=0 time=0
note_on channel=0 note=95 velocity=58 time=0
note_on channel=0 note=59 velocity=40 time=0
note_on channel=0 note=59 velocity=0 time=0
note_on channel=0 note=95 velocity=0 time=0
note_on channel=0 note=91 velocity=69 time=0
note_on channel=0 note=62 velocity=51 time=0
note_on channel=0 note=91 velocity=0 time=14
note_on channel=0 note=93 velocity=56 time=0
note_on channel=0 note=93 velocity=0 time=120
note_on channel=0 note=62 velocity=0 time=0
note_on channel=0 note=95 velocity=66 time=0
note_on channel=0 note=95 velocity=0 time=0
note_on channel=0 note=91 velocity=54 time=0
note_on channel=0 note=67 velocity=43 time=0
note_on channel=0 note=67 velocity=0 time=0
note_on channel=0 note=91 velocity=0 time=0
note_on channel=0 note=86 velocity=66 time=0
note_on channel=0 note=71 velocity=51 time=0
note_on channel=0 note=86 velocity=0 time=7
note_on channel=0 note=90 velocity=53 time=0
note_on channel=0 note=90 velocity=0 time=120
note_on channel=0 note=71 velocity=0 time=0
note_on channel=0 note=91 velocity=61 time=0
note_on channel=0 note=91 velocity=0 time=0
note_on channel=0 note=86 velocity=53 time=0
note_on channel=0 note=74 velocity=45 time=0
note_on channel=0 note=74 velocity=0 time=0
note_on channel=0 note=86 velocity=0 time=0
note_on channel=0 note=83 velocity=47 time=0
note_on channel=0 note=79 velocity=40 time=0
note_on channel=0 note=79 velocity=0 time=28
note_on channel=0 note=83 velocity=0 time=0
note_on channel=0 note=84 velocity=47 time=0
note_on channel=0 note=81 velocity=40 time=0
note_on channel=0 note=81 velocity=0 time=120
note_on channel=0 note=84 velocity=0 time=0
note_on channel=0 note=86 velocity=58 time=0
note_on channel=0 note=83 velocity=44 time=0
note_on channel=0 note=83 velocity=0 time=0
note_on channel=0 note=86 velocity=0 time=0
note_on channel=0 note=83 velocity=47 time=0
note_on channel=0 note=79 velocity=40 time=0
note_on channel=0 note=79 velocity=0 time=118
note_on channel=0 note=83 velocity=0 time=0
note_on channel=0 note=79 velocity=47 time=0
note_on channel=0 note=71 velocity=40 time=0
note_on channel=0 note=71 velocity=0 time=14
note_on channel=0 note=79 velocity=0 time=0
note_on channel=0 note=81 velocity=47 time=0
note_on channel=0 note=72 velocity=40 time=0
note_on channel=0 note=72 velocity=0 time=120
note_on channel=0 note=81 velocity=0 time=0
note_on channel=0 note=83 velocity=53 time=0
note_on channel=0 note=74 velocity=45 time=0
note_on channel=0 note=74 velocity=0 time=0
note_on channel=0 note=83 velocity=0 time=0
note_on channel=0 note=79 velocity=47 time=0
note_on channel=0 note=71 velocity=40 time=0
note_on channel=0 note=71 velocity=0 time=0
note_on channel=0 note=79 velocity=0 time=0
note_on channel=0 note=74 velocity=47 time=0
note_on channel=0 note=67 velocity=40 time=0
note_on channel=0 note=67 velocity=0 time=14
note_on channel=0 note=74 velocity=0 time=0
note_on channel=0 note=78 velocity=47 time=0
note_on channel=0 note=69 velocity=40 time=0
note_on channel=0 note=69 velocity=0 time=120
note_on channel=0 note=78 velocity=0 time=0
note_on channel=0 note=79 velocity=52 time=0
note_on channel=0 note=71 velocity=45 time=0
note_on channel=0 note=71 velocity=0 time=118
note_on channel=0 note=79 velocity=0 time=0
note_on channel=0 note=71 velocity=47 time=0
note_on channel=0 note=67 velocity=40 time=0
note_on channel=0 note=67 velocity=0 time=118
note_on channel=0 note=71 velocity=0 time=0
note_on channel=0 note=67 velocity=40 time=0
note_on channel=0 note=71 velocity=40 time=0
note_on channel=0 note=71 velocity=0 time=7
note_on channel=0 note=67 velocity=0 time=0
note_on channel=0 note=69 velocity=40 time=0
note_on channel=0 note=72 velocity=40 time=0
note_on channel=0 note=72 velocity=0 time=120
note_on channel=0 note=69 velocity=0 time=0
note_on channel=0 note=71 velocity=45 time=0
note_on channel=0 note=74 velocity=45 time=0
note_on channel=0 note=71 velocity=0 time=118
note_on channel=0 note=74 velocity=0 time=0
note_on channel=0 note=67 velocity=40 time=0
note_on channel=0 note=71 velocity=40 time=0
note_on channel=0 note=71 velocity=0 time=120
note_on channel=0 note=67 velocity=0 time=0
note_on channel=0 note=66 velocity=40 time=0
note_on channel=0 note=69 velocity=46 time=0
note_on channel=0 note=62 velocity=40 time=0
note_on channel=0 note=72 velocity=40 time=0
note_on channel=0 note=72 velocity=0 time=7
note_on channel=0 note=74 velocity=40 time=0
note_on channel=0 note=74 velocity=0 time=0
note_on channel=0 note=62 velocity=0 time=0
note_on channel=0 note=69 velocity=0 time=0
note_on channel=0 note=66 velocity=0 time=0
note_on channel=0 note=88 velocity=52 time=0
note_on channel=0 note=72 velocity=45 time=0
note_on channel=0 note=72 velocity=0 time=0
note_on channel=0 note=88 velocity=0 time=0
note_on channel=0 note=86 velocity=47 time=0
note_on channel=0 note=71 velocity=40 time=0
note_on channel=0 note=71 velocity=0 time=0
note_on channel=0 note=86 velocity=0 time=0
note_on channel=0 note=88 velocity=40 time=0
note_on channel=0 note=72 velocity=40 time=0
note_on channel=0 note=72 velocity=0 time=7
note_on channel=0 note=88 velocity=0 time=0
note_on channel=0 note=86 velocity=40 time=0
note_on channel=0 note=74 velocity=40 time=0
note_on channel=0 note=74 velocity=0 time=120
note_on channel=0 note=86 velocity=0 time=0
note_on channel=0 note=84 velocity=45 time=0
note_on channel=0 note=76 velocity=45 time=0
note_on channel=0 note=76 velocity=0 time=0
note_on channel=0 note=84 velocity=0 time=0
note_on channel=0 note=88 velocity=40 time=0
note_on channel=0 note=72 velocity=40 time=0
note_on channel=0 note=72 velocity=0 time=0
note_on channel=0 note=88 velocity=0 time=0
note_on channel=0 note=84 velocity=52 time=0
note_on channel=0 note=69 velocity=46 time=0
note_on channel=0 note=69 velocity=0 time=7
note_on channel=0 note=84 velocity=0 time=0
note_on channel=0 note=83 velocity=42 time=0
note_on channel=0 note=71 velocity=38 time=0
note_on channel=0 note=71 velocity=0 time=0
note_on channel=0 note=83 velocity=0 time=0
note_on channel=0 note=81 velocity=49 time=0
note_on channel=0 note=72 velocity=45 time=0
note_on channel=0 note=72 velocity=0 time=0
note_on channel=0 note=81 velocity=0 time=0
note_on channel=0 note=84 velocity=43 time=0
note_on channel=0 note=69 velocity=40 time=0
note_on channel=0 note=69 velocity=0 time=0
note_on channel=0 note=84 velocity=0 time=0
note_on channel=0 note=81 velocity=48 time=0
note_on channel=0 note=66 velocity=45 time=0
note_on channel=0 note=66 velocity=0 time=7
note_on channel=0 note=81 velocity=0 time=0
note_on channel=0 note=79 velocity=40 time=0
note_on channel=0 note=67 velocity=36 time=0
note_on channel=0 note=67 velocity=0 time=120
note_on channel=0 note=79 velocity=0 time=0
note_on channel=0 note=78 velocity=45 time=0
note_on channel=0 note=69 velocity=41 time=0
note_on channel=0 note=69 velocity=0 time=0
note_on channel=0 note=78 velocity=0 time=0
note_on channel=0 note=81 velocity=40 time=0
note_on channel=0 note=66 velocity=36 time=0
note_on channel=0 note=66 velocity=0 time=0
note_on channel=0 note=81 velocity=0 time=0
note_on channel=0 note=76 velocity=52 time=0
note_on channel=0 note=60 velocity=46 time=0
note_on channel=0 note=60 velocity=0 time=7
note_on channel=0 note=76 velocity=0 time=0
note_on channel=0 note=74 velocity=42 time=0
note_on channel=0 note=62 velocity=38 time=0
note_on channel=0 note=62 velocity=0 time=0
note_on channel=0 note=74 velocity=0 time=0
note_on channel=0 note=72 velocity=49 time=0
note_on channel=0 note=64 velocity=45 time=0
note_on channel=0 note=64 velocity=0 time=0
note_on channel=0 note=72 velocity=0 time=0
note_on channel=0 note=76 velocity=43 time=0
note_on channel=0 note=60 velocity=40 time=0
note_on channel=0 note=60 velocity=0 time=0
note_on channel=0 note=76 velocity=0 time=0
note_on channel=0 note=72 velocity=48 time=0
note_on channel=0 note=57 velocity=45 time=0
note_on channel=0 note=57 velocity=0 time=7
note_on channel=0 note=72 velocity=0 time=0
note_on channel=0 note=71 velocity=40 time=0
note_on channel=0 note=59 velocity=36 time=0
note_on channel=0 note=59 velocity=0 time=120
note_on channel=0 note=71 velocity=0 time=0
note_on channel=0 note=69 velocity=45 time=0
note_on channel=0 note=60 velocity=41 time=0
note_on channel=0 note=60 velocity=0 time=0
note_on channel=0 note=69 velocity=0 time=0
note_on channel=0 note=72 velocity=40 time=0
note_on channel=0 note=57 velocity=36 time=0
note_on channel=0 note=57 velocity=0 time=0
note_on channel=0 note=72 velocity=0 time=0
note_on channel=0 note=69 velocity=52 time=0
note_on channel=0 note=54 velocity=46 time=0
note_on channel=0 note=54 velocity=0 time=7
note_on channel=0 note=69 velocity=0 time=0
note_on channel=0 note=67 velocity=42 time=0
note_on channel=0 note=55 velocity=38 time=0
note_on channel=0 note=55 velocity=0 time=0
note_on channel=0 note=67 velocity=0 time=0
note_on channel=0 note=66 velocity=49 time=0
note_on channel=0 note=57 velocity=45 time=0
note_on channel=0 note=57 velocity=0 time=0
note_on channel=0 note=66 velocity=0 time=0
note_on channel=0 note=69 velocity=43 time=0
note_on channel=0 note=54 velocity=40 time=0
note_on channel=0 note=54 velocity=0 time=0
note_on channel=0 note=69 velocity=0 time=0
note_on channel=0 note=72 velocity=48 time=0
note_on channel=0 note=69 velocity=45 time=0
note_on channel=0 note=69 velocity=0 time=7
note_on channel=0 note=72 velocity=0 time=0
note_on channel=0 note=71 velocity=40 time=0
note_on channel=0 note=67 velocity=36 time=0
note_on channel=0 note=67 velocity=0 time=120
note_on channel=0 note=71 velocity=0 time=0
note_on channel=0 note=69 velocity=45 time=0
note_on channel=0 note=66 velocity=41 time=0
note_on channel=0 note=66 velocity=0 time=0
note_on channel=0 note=69 velocity=0 time=0
note_on channel=0 note=72 velocity=40 time=0
note_on channel=0 note=69 velocity=36 time=0
note_on channel=0 note=69 velocity=0 time=0
note_on channel=0 note=72 velocity=0 time=0
note_on channel=0 note=62 velocity=40 time=0
note_on channel=0 note=67 velocity=46 time=0
note_on channel=0 note=71 velocity=40 time=0
note_on channel=0 note=71 velocity=0 time=0
note_on channel=0 note=72 velocity=40 time=0
note_on channel=0 note=72 velocity=0 time=0
note_on channel=0 note=67 velocity=0 time=0
note_on channel=0 note=62 velocity=0 time=0
note_on channel=0 note=98 velocity=52 time=0
note_on channel=0 note=71 velocity=45 time=0
note_on channel=0 note=71 velocity=0 time=0
note_on channel=0 note=98 velocity=0 time=0
note_on channel=0 note=96 velocity=47 time=0
note_on channel=0 note=69 velocity=40 time=0
note_on channel=0 note=69 velocity=0 time=0
note_on channel=0 note=96 velocity=0 time=0
note_on channel=0 note=98 velocity=40 time=0
note_on channel=0 note=71 velocity=40 time=0
note_on channel=0 note=71 velocity=0 time=7
note_on channel=0 note=98 velocity=0 time=0
note_on channel=0 note=96 velocity=40 time=0
note_on channel=0 note=72 velocity=40 time=0
note_on channel=0 note=72 velocity=0 time=120
note_on channel=0 note=96 velocity=0 time=0
note_on channel=0 note=95 velocity=45 time=0
note_on channel=0 note=74 velocity=45 time=0
note_on channel=0 note=74 velocity=0 time=0
note_on channel=0 note=95 velocity=0 time=0
note_on channel=0 note=98 velocity=40 time=0
note_on channel=0 note=71 velocity=40 time=0
note_on channel=0 note=71 velocity=0 time=0
note_on channel=0 note=98 velocity=0 time=0
note_on channel=0 note=95 velocity=52 time=0
note_on channel=0 note=67 velocity=46 time=0
note_on channel=0 note=67 velocity=0 time=7
note_on channel=0 note=95 velocity=0 time=0
note_on channel=0 note=93 velocity=42 time=0
note_on channel=0 note=69 velocity=38 time=0
note_on channel=0 note=69 velocity=0 time=0
note_on channel=0 note=93 velocity=0 time=0
note_on channel=0 note=91 velocity=49 time=0
note_on channel=0 note=71 velocity=45 time=0
note_on channel=0 note=71 velocity=0 time=0
note_on channel=0 note=91 velocity=0 time=0
note_on channel=0 note=95 velocity=43 time=0
note_on channel=0 note=67 velocity=40 time=0
note_on channel=0 note=67 velocity=0 time=0
note_on channel=0 note=95 velocity=0 time=0
note_on channel=0 note=83 velocity=48 time=0
note_on channel=0 note=62 velocity=45 time=0
note_on channel=0 note=62 velocity=0 time=7
note_on channel=0 note=83 velocity=0 time=0
note_on channel=0 note=81 velocity=40 time=0
note_on channel=0 note=66 velocity=36 time=0
note_on channel=0 note=66 velocity=0 time=120
note_on channel=0 note=81 velocity=0 time=0
note_on channel=0 note=79 velocity=45 time=0
note_on channel=0 note=67 velocity=41 time=0
note_on channel=0 note=67 velocity=0 time=0
note_on channel=0 note=79 velocity=0 time=0
note_on channel=0 note=83 velocity=40 time=0
note_on channel=0 note=62 velocity=36 time=0
note_on channel=0 note=62 velocity=0 time=0
note_on channel=0 note=83 velocity=0 time=0
note_on channel=0 note=74 velocity=52 time=0
note_on channel=0 note=59 velocity=46 time=0
note_on channel=0 note=59 velocity=0 time=7
note_on channel=0 note=74 velocity=0 time=0
note_on channel=0 note=72 velocity=42 time=0
note_on channel=0 note=60 velocity=38 time=0
note_on channel=0 note=60 velocity=0 time=0
note_on channel=0 note=72 velocity=0 time=0
note_on channel=0 note=71 velocity=49 time=0
note_on channel=0 note=62 velocity=45 time=0
note_on channel=0 note=62 velocity=0 time=0
note_on channel=0 note=71 velocity=0 time=0
note_on channel=0 note=74 velocity=43 time=0
note_on channel=0 note=59 velocity=40 time=0
note_on channel=0 note=59 velocity=0 time=0
note_on channel=0 note=74 velocity=0 time=0
note_on channel=0 note=83 velocity=48 time=0
note_on channel=0 note=55 velocity=45 time=0
note_on channel=0 note=55 velocity=0 time=7
note_on channel=0 note=83 velocity=0 time=0
note_on channel=0 note=81 velocity=40 time=0
note_on channel=0 note=57 velocity=36 time=0
note_on channel=0 note=57 velocity=0 time=120
note_on channel=0 note=81 velocity=0 time=0
note_on channel=0 note=79 velocity=45 time=0
note_on channel=0 note=59 velocity=41 time=0
note_on channel=0 note=59 velocity=0 time=0
note_on channel=0 note=79 velocity=0 time=0
note_on channel=0 note=83 velocity=40 time=0
note_on channel=0 note=55 velocity=36 time=0
note_on channel=0 note=55 velocity=0 time=0
note_on channel=0 note=83 velocity=0 time=0
note_on channel=0 note=86 velocity=62 time=0
note_on channel=0 note=50 velocity=46 time=0
note_on channel=0 note=50 velocity=0 time=7
note_on channel=0 note=86 velocity=0 time=0
note_on channel=0 note=84 velocity=51 time=0
note_on channel=0 note=54 velocity=38 time=0
note_on channel=0 note=54 velocity=0 time=0
note_on channel=0 note=84 velocity=0 time=0
note_on channel=0 note=83 velocity=61 time=0
note_on channel=0 note=55 velocity=45 time=0
note_on channel=0 note=55 velocity=0 time=0
note_on channel=0 note=83 velocity=0 time=0
note_on channel=0 note=84 velocity=52 time=0
note_on channel=0 note=50 velocity=40 time=0
note_on channel=0 note=50 velocity=0 time=0
note_on channel=0 note=84 velocity=0 time=0
note_on channel=0 note=88 velocity=62 time=0
note_on channel=0 note=48 velocity=45 time=0
note_on channel=0 note=48 velocity=0 time=7
note_on channel=0 note=55 velocity=36 time=0
note_on channel=0 note=55 velocity=0 time=0
note_on channel=0 note=88 velocity=0 time=0
note_on channel=0 note=86 velocity=51 time=0
note_on channel=0 note=81 velocity=51 time=0
note_on channel=0 note=90 velocity=51 time=0
note_on channel=0 note=50 velocity=41 time=0
note_on channel=0 note=50 velocity=0 time=120
note_on channel=0 note=48 velocity=36 time=0
note_on channel=0 note=48 velocity=0 time=120
note_on channel=0 note=90 velocity=0 time=0
note_on channel=0 note=81 velocity=0 time=0
note_on channel=0 note=86 velocity=0 time=0
note_on channel=0 note=79 velocity=51 time=0
note_on channel=0 note=91 velocity=51 time=0
note_on channel=0 note=86 velocity=51 time=0
note_on channel=0 note=47 velocity=36 time=0
note_on channel=0 note=47 velocity=0 time=0
note_on channel=0 note=79 velocity=0 time=0
note_on channel=0 note=91 velocity=0 time=0
note_on channel=0 note=86 velocity=0 time=0
note_on channel=0 note=43 velocity=34 time=0
note_on channel=0 note=55 velocity=40 time=0
note_on channel=0 note=55 velocity=0 time=219
note_on channel=0 note=43 velocity=0 time=0
note_on channel=0 note=52 velocity=36 time=0
note_on channel=0 note=48 velocity=30 time=0
note_on channel=0 note=48 velocity=0 time=92
note_on channel=0 note=52 velocity=0 time=0
note_on channel=0 note=60 velocity=40 time=0
note_on channel=0 note=60 velocity=0 time=113
note_on channel=0 note=57 velocity=36 time=0
note_on channel=0 note=57 velocity=0 time=0
note_on channel=0 note=54 velocity=36 time=0
note_on channel=0 note=54 velocity=0 time=0
note_on channel=0 note=69 velocity=40 time=0
note_on channel=0 note=66 velocity=34 time=0
note_on channel=0 note=50 velocity=31 time=0
note_on channel=0 note=62 velocity=36 time=0
note_on channel=0 note=62 velocity=0 time=0
note_on channel=0 note=69 velocity=0 time=0
note_on channel=0 note=66 velocity=0 time=0
note_on channel=0 note=50 velocity=0 time=0
note_on channel=0 note=67 velocity=32 time=0
note_on channel=0 note=71 velocity=38 time=0
note_on channel=0 note=55 velocity=30 time=0
note_on channel=0 note=59 velocity=36 time=0
note_on channel=0 note=59 velocity=0 time=120
note_on channel=0 note=67 velocity=0 time=0
note_on channel=0 note=71 velocity=0 time=0
note_on channel=0 note=55 velocity=0 time=0
note_on channel=0 note=91 velocity=47 time=0
note_on channel=0 note=83 velocity=39 time=0
note_on channel=0 note=64 velocity=36 time=0
note_on channel=0 note=55 velocity=30 time=0
note_on channel=0 note=83 velocity=0 time=113
note_on channel=0 note=91 velocity=0 time=0
note_on channel=0 note=90 velocity=44 time=0
note_on channel=0 note=81 velocity=37 time=0
note_on channel=0 note=81 velocity=0 time=0
note_on channel=0 note=90 velocity=0 time=0
note_on channel=0 note=83 velocity=39 time=0
note_on channel=0 note=91 velocity=47 time=0
note_on channel=0 note=91 velocity=0 time=0
note_on channel=0 note=55 velocity=0 time=0
note_on channel=0 note=64 velocity=0 time=0
note_on channel=0 note=83 velocity=0 time=0
note_on channel=0 note=79 velocity=33 time=0
note_on channel=0 note=83 velocity=33 time=0
note_on channel=0 note=88 velocity=39 time=0
note_on channel=0 note=55 velocity=30 time=0
note_on channel=0 note=64 velocity=36 time=0
note_on channel=0 note=64 velocity=0 time=0
note_on channel=0 note=88 velocity=0 time=0
note_on channel=0 note=79 velocity=0 time=0
note_on channel=0 note=83 velocity=0 time=0
note_on channel=0 note=55 velocity=0 time=0
note_on channel=0 note=81 velocity=35 time=0
note_on channel=0 note=86 velocity=42 time=0
note_on channel=0 note=78 velocity=35 time=0
note_on channel=0 note=66 velocity=40 time=0
note_on channel=0 note=57 velocity=34 time=0
note_on channel=0 note=57 velocity=0 time=0
note_on channel=0 note=78 velocity=0 time=0
note_on channel=0 note=81 velocity=0 time=0
note_on channel=0 note=86 velocity=0 time=0
note_on channel=0 note=66 velocity=0 time=0
note_on channel=0 note=79 velocity=30 time=0
note_on channel=0 note=76 velocity=30 time=0
note_on channel=0 note=85 velocity=40 time=0
note_on channel=0 note=67 velocity=30 time=0
note_on channel=0 note=57 velocity=25 time=0
note_on channel=0 note=67 velocity=0 time=14
note_on channel=0 note=69 velocity=36 time=0
note_on channel=0 note=69 velocity=0 time=0
note_on channel=0 note=57 velocity=0 time=0
note_on channel=0 note=79 velocity=0 time=0
note_on channel=0 note=76 velocity=0 time=0
note_on channel=0 note=85 velocity=0 time=0
note_on channel=0 note=88 velocity=45 time=0
note_on channel=0 note=79 velocity=38 time=0
note_on channel=0 note=62 velocity=30 time=0
note_on channel=0 note=69 velocity=36 time=0
note_on channel=0 note=69 velocity=0 time=0
note_on channel=0 note=88 velocity=0 time=0
note_on channel=0 note=79 velocity=0 time=0
note_on channel=0 note=86 velocity=36 time=0
note_on channel=0 note=78 velocity=30 time=0
note_on channel=0 note=71 velocity=36 time=0
note_on channel=0 note=71 velocity=0 time=137
note_on channel=0 note=73 velocity=31 time=0
note_on channel=0 note=78 velocity=0 time=58
note_on channel=0 note=86 velocity=0 time=0
note_on channel=0 note=73 velocity=0 time=2
note_on channel=0 note=78 velocity=30 time=0
note_on channel=0 note=86 velocity=36 time=0
note_on channel=0 note=74 velocity=36 time=0
note_on channel=0 note=74 velocity=0 time=0
note_on channel=0 note=62 velocity=0 time=0
note_on channel=0 note=78 velocity=0 time=0
note_on channel=0 note=86 velocity=0 time=0
note_on channel=0 note=79 velocity=38 time=0
note_on channel=0 note=86 velocity=45 time=0
note_on channel=0 note=76 velocity=37 time=0
note_on channel=0 note=76 velocity=0 time=51
note_on channel=0 note=86 velocity=0 time=0
note_on channel=0 note=79 velocity=0 time=0
note_on channel=0 note=81 velocity=34 time=0
note_on channel=0 note=84 velocity=40 time=0
note_on channel=0 note=78 velocity=36 time=0
note_on channel=0 note=78 velocity=0 time=0
note_on channel=0 note=84 velocity=0 time=0
note_on channel=0 note=81 velocity=0 time=0
note_on channel=0 note=83 velocity=46 time=0
note_on channel=0 note=79 velocity=36 time=0
note_on channel=0 note=79 velocity=0 time=0
note_on channel=0 note=83 velocity=0 time=0
note_on channel=0 note=91 velocity=51 time=0
note_on channel=0 note=79 velocity=43 time=0
note_on channel=0 note=71 velocity=30 time=0
note_on channel=0 note=74 velocity=36 time=0
note_on channel=0 note=91 velocity=0 time=28
note_on channel=0 note=74 velocity=0 time=0
note_on channel=0 note=71 velocity=0 time=0
note_on channel=0 note=88 velocity=46 time=0
note_on channel=0 note=76 velocity=36 time=0
note_on channel=0 note=72 velocity=30 time=0
note_on channel=0 note=72 velocity=0 time=114
note_on channel=0 note=79 velocity=0 time=0
note_on channel=0 note=88 velocity=0 time=0
note_on channel=0 note=76 velocity=0 time=0
note_on channel=0 note=96 velocity=51 time=0
note_on channel=0 note=84 velocity=43 time=0
note_on channel=0 note=69 velocity=36 time=0
note_on channel=0 note=69 velocity=0 time=113
note_on channel=0 note=84 velocity=0 time=0
note_on channel=0 note=96 velocity=0 time=0
note_on channel=0 note=88 velocity=37 time=0
note_on channel=0 note=93 velocity=44 time=0
note_on channel=0 note=72 velocity=32 time=0
note_on channel=0 note=72 velocity=0 time=0
note_on channel=0 note=93 velocity=0 time=0
note_on channel=0 note=88 velocity=0 time=0
note_on channel=0 note=90 velocity=51 time=0
note_on channel=0 note=74 velocity=36 time=0
note_on channel=0 note=74 velocity=0 time=0
note_on channel=0 note=90 velocity=0 time=0
note_on channel=0 note=86 velocity=47 time=0
note_on channel=0 note=98 velocity=56 time=0
note_on channel=0 note=69 velocity=36 time=0
note_on channel=0 note=66 velocity=30 time=0
note_on channel=0 note=66 velocity=0 time=0
note_on channel=0 note=69 velocity=0 time=0
note_on channel=0 note=98 velocity=0 time=0
note_on channel=0 note=95 velocity=53 time=0
note_on channel=0 note=67 velocity=33 time=0
note_on channel=0 note=71 velocity=36 time=0
note_on channel=0 note=71 velocity=0 time=107
note_on channel=0 note=86 velocity=0 time=0
note_on channel=0 note=95 velocity=0 time=0
note_on channel=0 note=67 velocity=0 time=0
note_on channel=0 note=91 velocity=52 time=0
note_on channel=0 note=91 velocity=0 time=70
note_on channel=0 note=90 velocity=45 time=0
note_on channel=0 note=90 velocity=0 time=0
note_on channel=0 note=91 velocity=52 time=0
note_on channel=0 note=64 velocity=30 time=0
note_on channel=0 note=67 velocity=30 time=0
note_on channel=0 note=71 velocity=36 time=0
note_on channel=0 note=71 velocity=0 time=0
note_on channel=0 note=91 velocity=0 time=0
note_on channel=0 note=64 velocity=0 time=0
note_on channel=0 note=67 velocity=0 time=0
note_on channel=0 note=88 velocity=47 time=0
note_on channel=0 note=64 velocity=30 time=0
note_on channel=0 note=72 velocity=36 time=0
note_on channel=0 note=67 velocity=30 time=0
note_on channel=0 note=67 velocity=0 time=141
note_on channel=0 note=88 velocity=0 time=0
note_on channel=0 note=64 velocity=0 time=0
note_on channel=0 note=72 velocity=0 time=0
note_on channel=0 note=84 velocity=51 time=0
note_on channel=0 note=67 velocity=36 time=0
note_on channel=0 note=64 velocity=30 time=0
note_on channel=0 note=72 velocity=36 time=0
note_on channel=0 note=67 velocity=0 time=49
note_on channel=0 note=69 velocity=30 time=0
note_on channel=0 note=69 velocity=0 time=120
note_on channel=0 note=72 velocity=0 time=0
note_on channel=0 note=64 velocity=0 time=0
note_on channel=0 note=84 velocity=0 time=0
note_on channel=0 note=78 velocity=37 time=0
note_on channel=0 note=83 velocity=44 time=0
note_on channel=0 note=63 velocity=30 time=0
note_on channel=0 note=66 velocity=30 time=0
note_on channel=0 note=71 velocity=36 time=0
note_on channel=0 note=71 velocity=0 time=0
note_on channel=0 note=63 velocity=0 time=0
note_on channel=0 note=78 velocity=0 time=0
note_on channel=0 note=83 velocity=0 time=0
note_on channel=0 note=66 velocity=0 time=0
note_on channel=0 note=78 velocity=44 time=0
note_on channel=0 note=83 velocity=44 time=0
note_on channel=0 note=66 velocity=30 time=0
note_on channel=0 note=71 velocity=36 time=0
note_on channel=0 note=63 velocity=30 time=0
note_on channel=0 note=63 velocity=0 time=0
note_on channel=0 note=66 velocity=0 time=0
note_on channel=0 note=71 velocity=0 time=0
note_on channel=0 note=78 velocity=0 time=0
note_on channel=0 note=81 velocity=50 time=0
note_on channel=0 note=63 velocity=31 time=0
note_on channel=0 note=59 velocity=26 time=0
note_on channel=0 note=81 velocity=0 time=51
note_on channel=0 note=79 velocity=44 time=0
note_on channel=0 note=79 velocity=0 time=118
note_on channel=0 note=59 velocity=0 time=2
note_on channel=0 note=63 velocity=0 time=0
note_on channel=0 note=79 velocity=49 time=0
note_on channel=0 note=67 velocity=36 time=0
note_on channel=0 note=64 velocity=30 time=0
note_on channel=0 note=64 velocity=0 time=0
note_on channel=0 note=83 velocity=0 time=0
note_on channel=0 note=79 velocity=0 time=0
note_on channel=0 note=67 velocity=0 time=0
note_on channel=0 note=82 velocity=46 time=0
note_on channel=0 note=88 velocity=55 time=0
note_on channel=0 note=79 velocity=46 time=0
note_on channel=0 note=65 velocity=40 time=0
note_on channel=0 note=62 velocity=34 time=0
note_on channel=0 note=62 velocity=0 time=0
note_on channel=0 note=65 velocity=0 time=0
note_on channel=0 note=64 velocity=36 time=0
note_on channel=0 note=61 velocity=30 time=0
note_on channel=0 note=61 velocity=0 time=119
note_on channel=0 note=64 velocity=0 time=0
note_on channel=0 note=88 velocity=0 time=0
note_on channel=0 note=82 velocity=0 time=0
note_on channel=0 note=81 velocity=44 time=0
note_on channel=0 note=64 velocity=36 time=0
note_on channel=0 note=61 velocity=30 time=0
note_on channel=0 note=61 velocity=0 time=0
note_on channel=0 note=64 velocity=0 time=0
note_on channel=0 note=79 velocity=0 time=0
note_on channel=0 note=79 velocity=50 time=0
note_on channel=0 note=61 velocity=31 time=0
note_on channel=0 note=57 velocity=26 time=0
note_on channel=0 note=79 velocity=0 time=51
note_on channel=0 note=77 velocity=44 time=0
note_on channel=0 note=77 velocity=0 time=120
note_on channel=0 note=57 velocity=0 time=0
note_on channel=0 note=61 velocity=0 time=0
note_on channel=0 note=77 velocity=49 time=0
note_on channel=0 note=65 velocity=36 time=0
note_on channel=0 note=62 velocity=30 time=0
note_on channel=0 note=62 velocity=0 time=0
note_on channel=0 note=81 velocity=0 time=0
note_on channel=0 note=77 velocity=0 time=0
note_on channel=0 note=65 velocity=0 time=0
note_on channel=0 note=77 velocity=55 time=0
note_on channel=0 note=86 velocity=55 time=0
note_on channel=0 note=80 velocity=55 time=0
note_on channel=0 note=63 velocity=40 time=0
note_on channel=0 note=60 velocity=34 time=0
note_on channel=0 note=60 velocity=0 time=0
note_on channel=0 note=63 velocity=0 time=0
note_on channel=0 note=62 velocity=36 time=0
note_on channel=0 note=59 velocity=30 time=0
note_on channel=0 note=59 velocity=0 time=0
note_on channel=0 note=80 velocity=0 time=0
note_on channel=0 note=62 velocity=0 time=0
note_on channel=0 note=86 velocity=0 time=0
note_on channel=0 note=79 velocity=44 time=0
note_on channel=0 note=59 velocity=30 time=0
note_on channel=0 note=62 velocity=36 time=0
note_on channel=0 note=62 velocity=0 time=0
note_on channel=0 note=59 velocity=0 time=0
note_on channel=0 note=77 velocity=0 time=0
note_on channel=0 note=77 velocity=50 time=0
note_on channel=0 note=55 velocity=26 time=0
note_on channel=0 note=59 velocity=31 time=0
note_on channel=0 note=77 velocity=0 time=51
note_on channel=0 note=76 velocity=44 time=0
note_on channel=0 note=76 velocity=0 time=118
note_on channel=0 note=59 velocity=0 time=2
note_on channel=0 note=55 velocity=0 time=0
note_on channel=0 note=76 velocity=49 time=0
note_on channel=0 note=60 velocity=30 time=0
note_on channel=0 note=64 velocity=36 time=0
note_on channel=0 note=64 velocity=0 time=0
note_on channel=0 note=79 velocity=0 time=0
note_on channel=0 note=76 velocity=0 time=0
note_on channel=0 note=60 velocity=0 time=0
note_on channel=0 note=79 velocity=46 time=0
note_on channel=0 note=76 velocity=46 time=0
note_on channel=0 note=85 velocity=55 time=0
note_on channel=0 note=59 velocity=34 time=0
note_on channel=0 note=63 velocity=40 time=0
note_on channel=0 note=63 velocity=0 time=0
note_on channel=0 note=59 velocity=0 time=0
note_on channel=0 note=58 velocity=30 time=0
note_on channel=0 note=61 velocity=36 time=0
note_on channel=0 note=61 velocity=0 time=119
note_on channel=0 note=58 velocity=0 time=0
note_on channel=0 note=85 velocity=0 time=0
note_on channel=0 note=79 velocity=0 time=0
note_on channel=0 note=78 velocity=44 time=0
note_on channel=0 note=58 velocity=30 time=0
note_on channel=0 note=61 velocity=36 time=0
note_on channel=0 note=61 velocity=0 time=0
note_on channel=0 note=58 velocity=0 time=0
note_on channel=0 note=76 velocity=0 time=0
note_on channel=0 note=76 velocity=50 time=0
note_on channel=0 note=54 velocity=26 time=0
note_on channel=0 note=58 velocity=31 time=0
note_on channel=0 note=76 velocity=0 time=51
note_on channel=0 note=75 velocity=44 time=0
note_on channel=0 note=75 velocity=0 time=120
note_on channel=0 note=58 velocity=0 time=0
note_on channel=0 note=54 velocity=0 time=0
note_on channel=0 note=74 velocity=49 time=0
note_on channel=0 note=59 velocity=30 time=0
note_on channel=0 note=62 velocity=36 time=0
note_on channel=0 note=62 velocity=0 time=0
note_on channel=0 note=78 velocity=0 time=0
note_on channel=0 note=74 velocity=0 time=0
note_on channel=0 note=59 velocity=0 time=0
note_on channel=0 note=77 velocity=46 time=0
note_on channel=0 note=83 velocity=55 time=0
note_on channel=0 note=74 velocity=46 time=0
note_on channel=0 note=57 velocity=34 time=0
note_on channel=0 note=61 velocity=40 time=0
note_on channel=0 note=61 velocity=0 time=0
note_on channel=0 note=57 velocity=0 time=0
note_on channel=0 note=59 velocity=36 time=0
note_on channel=0 note=56 velocity=30 time=0
note_on channel=0 note=56 velocity=0 time=119
note_on channel=0 note=59 velocity=0 time=0
note_on channel=0 note=74 velocity=0 time=0
note_on channel=0 note=83 velocity=0 time=0
note_on channel=0 note=77 velocity=0 time=0
note_on channel=0 note=77 velocity=55 time=0
note_on channel=0 note=74 velocity=46 time=0
note_on channel=0 note=59 velocity=36 time=0
note_on channel=0 note=56 velocity=30 time=0
note_on channel=0 note=77 velocity=0 time=0
note_on channel=0 note=76 velocity=46 time=0
note_on channel=0 note=74 velocity=0 time=120
note_on channel=0 note=56 velocity=0 time=0
note_on channel=0 note=59 velocity=0 time=0
note_on channel=0 note=73 velocity=46 time=0
note_on channel=0 note=57 velocity=36 time=0
note_on channel=0 note=64 velocity=30 time=0
note_on channel=0 note=57 velocity=0 time=0
note_on channel=0 note=76 velocity=0 time=0
note_on channel=0 note=81 velocity=48 time=0
note_on channel=0 note=55 velocity=30 time=0
note_on channel=0 note=55 velocity=0 time=0
note_on channel=0 note=64 velocity=0 time=0
note_on channel=0 note=73 velocity=0 time=0
note_on channel=0 note=81 velocity=0 time=0
note_on channel=0 note=75 velocity=55 time=0
note_on channel=0 note=72 velocity=46 time=0
note_on channel=0 note=57 velocity=36 time=0
note_on channel=0 note=54 velocity=30 time=0
note_on channel=0 note=75 velocity=0 time=0
note_on channel=0 note=74 velocity=47 time=0
note_on channel=0 note=72 velocity=0 time=120
note_on channel=0 note=54 velocity=0 time=0
note_on channel=0 note=57 velocity=0 time=0
note_on channel=0 note=71 velocity=46 time=0
note_on channel=0 note=55 velocity=36 time=0
note_on channel=0 note=59 velocity=30 time=0
note_on channel=0 note=55 velocity=0 time=0
note_on channel=0 note=74 velocity=0 time=0
note_on channel=0 note=79 velocity=49 time=0
note_on channel=0 note=47 velocity=32 time=0
note_on channel=0 note=47 velocity=0 time=0
note_on channel=0 note=59 velocity=0 time=0
note_on channel=0 note=71 velocity=0 time=0
note_on channel=0 note=79 velocity=0 time=0
note_on channel=0 note=74 velocity=56 time=0
note_on channel=0 note=45 velocity=25 time=0
note_on channel=0 note=50 velocity=25 time=0
note_on channel=0 note=60 velocity=30 time=0
note_on channel=0 note=74 velocity=0 time=0
note_on channel=0 note=86 velocity=44 time=0
note_on channel=0 note=86 velocity=0 time=120
note_on channel=0 note=85 velocity=45 time=0
note_on channel=0 note=85 velocity=0 time=120
note_on channel=0 note=84 velocity=46 time=0
note_on channel=0 note=84 velocity=0 time=120
note_on channel=0 note=81 velocity=47 time=0
note_on channel=0 note=81 velocity=0 time=11
note_on channel=0 note=78 velocity=47 time=0
note_on channel=0 note=78 velocity=0 time=120
note_on channel=0 note=75 velocity=48 time=0
note_on channel=0 note=75 velocity=0 time=120
note_on channel=0 note=74 velocity=49 time=0
note_on channel=0 note=74 velocity=0 time=120
note_on channel=0 note=73 velocity=50 time=0
note_on channel=0 note=73 velocity=0 time=28
note_on channel=0 note=72 velocity=51 time=0
note_on channel=0 note=72 velocity=0 time=0
note_on channel=0 note=69 velocity=52 time=0
note_on channel=0 note=69 velocity=0 time=120
note_on channel=0 note=66 velocity=53 time=0
note_on channel=0 note=66 velocity=0 time=0
note_on channel=0 note=60 velocity=0 time=0
note_on channel=0 note=50 velocity=0 time=0
note_on channel=0 note=45 velocity=0 time=0
note_on channel=0 note=67 velocity=51 time=0
note_on channel=0 note=63 velocity=61 time=0
note_on channel=0 note=59 velocity=30 time=0
note_on channel=0 note=47 velocity=25 time=0
note_on channel=0 note=50 velocity=25 time=0
note_on channel=0 note=63 velocity=0 time=17
note_on channel=0 note=62 velocity=47 time=0
note_on channel=0 note=62 velocity=0 time=120
note_on channel=0 note=67 velocity=0 time=0
note_on channel=0 note=67 velocity=49 time=0
note_on channel=0 note=76 velocity=58 time=0
note_on channel=0 note=76 velocity=0 time=0
note_on channel=0 note=74 velocity=47 time=0
note_on channel=0 note=74 velocity=0 time=0
note_on channel=0 note=67 velocity=0 time=0
note_on channel=0 note=50 velocity=0 time=0
note_on channel=0 note=59 velocity=0 time=0
note_on channel=0 note=47 velocity=0 time=0
note_on channel=0 note=74 velocity=56 time=0
note_on channel=0 note=45 velocity=25 time=0
note_on channel=0 note=60 velocity=30 time=0
note_on channel=0 note=50 velocity=25 time=0
note_on channel=0 note=74 velocity=0 time=0
note_on channel=0 note=86 velocity=44 time=0
note_on channel=0 note=86 velocity=0 time=120
note_on channel=0 note=85 velocity=45 time=0
note_on channel=0 note=85 velocity=0 time=120
note_on channel=0 note=84 velocity=46 time=0
note_on channel=0 note=84 velocity=0 time=120
note_on channel=0 note=81 velocity=47 time=0
note_on channel=0 note=81 velocity=0 time=11
note_on channel=0 note=78 velocity=47 time=0
note_on channel=0 note=78 velocity=0 time=120
note_on channel=0 note=75 velocity=48 time=0
note_on channel=0 note=75 velocity=0 time=120
note_on channel=0 note=74 velocity=49 time=0
note_on channel=0 note=74 velocity=0 time=0
note_on channel=0 note=73 velocity=50 time=0
note_on channel=0 note=73 velocity=0 time=28
note_on channel=0 note=72 velocity=51 time=0
note_on channel=0 note=72 velocity=0 time=120
note_on channel=0 note=69 velocity=52 time=0
note_on channel=0 note=69 velocity=0 time=120
note_on channel=0 note=66 velocity=53 time=0
note_on channel=0 note=66 velocity=0 time=120
note_on channel=0 note=50 velocity=0 time=0
note_on channel=0 note=60 velocity=0 time=0
note_on channel=0 note=45 velocity=0 time=0
note_on channel=0 note=67 velocity=51 time=0
note_on channel=0 note=63 velocity=61 time=0
note_on channel=0 note=47 velocity=25 time=0
note_on channel=0 note=59 velocity=30 time=0
note_on channel=0 note=50 velocity=25 time=0
note_on channel=0 note=63 velocity=0 time=17
note_on channel=0 note=62 velocity=47 time=0
note_on channel=0 note=62 velocity=0 time=0
note_on channel=0 note=67 velocity=0 time=0
note_on channel=0 note=67 velocity=49 time=0
note_on channel=0 note=76 velocity=58 time=0
note_on channel=0 note=76 velocity=0 time=51
note_on channel=0 note=74 velocity=47 time=0
note_on channel=0 note=74 velocity=0 time=0
note_on channel=0 note=67 velocity=0 time=0
note_on channel=0 note=50 velocity=0 time=0
note_on channel=0 note=47 velocity=0 time=0
note_on channel=0 note=59 velocity=0 time=0
note_on channel=0 note=74 velocity=52 time=0
note_on channel=0 note=35 velocity=25 time=0
note_on channel=0 note=47 velocity=30 time=0
note_on channel=0 note=74 velocity=0 time=0
note_on channel=0 note=71 velocity=45 time=0
note_on channel=0 note=79 velocity=54 time=0
note_on channel=0 note=79 velocity=0 time=120
note_on channel=0 note=71 velocity=0 time=0
note_on channel=0 note=83 velocity=58 time=0
note_on channel=0 note=74 velocity=49 time=0
note_on channel=0 note=74 velocity=0 time=120
note_on channel=0 note=83 velocity=0 time=0
note_on channel=0 note=72 velocity=44 time=0
note_on channel=0 note=81 velocity=52 time=0
note_on channel=0 note=81 velocity=0 time=0
note_on channel=0 note=35 velocity=0 time=0
note_on channel=0 note=47 velocity=0 time=0
note_on channel=0 note=72 velocity=0 time=0
note_on channel=0 note=71 velocity=58 time=0
note_on channel=0 note=79 velocity=58 time=0
note_on channel=0 note=52 velocity=28 time=0
note_on channel=0 note=40 velocity=23 time=0
note_on channel=0 note=71 velocity=0 time=40
note_on channel=0 note=75 velocity=50 time=0
note_on channel=0 note=75 velocity=0 time=120
note_on channel=0 note=76 velocity=55 time=0
note_on channel=0 note=76 velocity=0 time=0
note_on channel=0 note=71 velocity=50 time=0
note_on channel=0 note=71 velocity=0 time=0
note_on channel=0 note=40 velocity=0 time=0
note_on channel=0 note=52 velocity=0 time=0
note_on channel=0 note=70 velocity=54 time=0
note_on channel=0 note=37 velocity=25 time=0
note_on channel=0 note=49 velocity=30 time=0
note_on channel=0 note=70 velocity=0 time=17
note_on channel=0 note=75 velocity=58 time=0
note_on channel=0 note=75 velocity=0 time=120
note_on channel=0 note=76 velocity=58 time=0
note_on channel=0 note=76 velocity=0 time=0
note_on channel=0 note=70 velocity=53 time=0
note_on channel=0 note=70 velocity=0 time=0
note_on channel=0 note=49 velocity=0 time=0
note_on channel=0 note=37 velocity=0 time=0
note_on channel=0 note=79 velocity=0 time=0
note_on channel=0 note=69 velocity=56 time=0
note_on channel=0 note=50 velocity=29 time=0
note_on channel=0 note=38 velocity=24 time=0
note_on channel=0 note=69 velocity=0 time=51
note_on channel=0 note=73 velocity=50 time=0
note_on channel=0 note=73 velocity=0 time=120
note_on channel=0 note=38 velocity=0 time=0
note_on channel=0 note=50 velocity=0 time=0
note_on channel=0 note=74 velocity=60 time=0
note_on channel=0 note=74 velocity=0 time=0
note_on channel=0 note=86 velocity=54 time=0
note_on channel=0 note=86 velocity=0 time=0
note_on channel=0 note=86 velocity=61 time=0
note_on channel=0 note=62 velocity=25 time=0
note_on channel=0 note=72 velocity=30 time=0
note_on channel=0 note=57 velocity=25 time=0
note_on channel=0 note=86 velocity=0 time=0
note_on channel=0 note=98 velocity=48 time=0
note_on channel=0 note=98 velocity=0 time=120
note_on channel=0 note=97 velocity=49 time=0
note_on channel=0 note=97 velocity=0 time=120
note_on channel=0 note=96 velocity=50 time=0
note_on channel=0 note=96 velocity=0 time=120
note_on channel=0 note=93 velocity=51 time=0
note_on channel=0 note=93 velocity=0 time=11
note_on channel=0 note=90 velocity=51 time=0
note_on channel=0 note=90 velocity=0 time=120
note_on channel=0 note=87 velocity=52 time=0
note_on channel=0 note=87 velocity=0 time=120
note_on channel=0 note=86 velocity=53 time=0
note_on channel=0 note=86 velocity=0 time=120
note_on channel=0 note=85 velocity=55 time=0
note_on channel=0 note=85 velocity=0 time=28
note_on channel=0 note=84 velocity=56 time=0
note_on channel=0 note=84 velocity=0 time=0
note_on channel=0 note=81 velocity=64 time=0
note_on channel=0 note=81 velocity=0 time=120
note_on channel=0 note=78 velocity=67 time=0
note_on channel=0 note=78 velocity=0 time=0
note_on channel=0 note=57 velocity=0 time=0
note_on channel=0 note=72 velocity=0 time=0
note_on channel=0 note=62 velocity=0 time=0
note_on channel=0 note=75 velocity=72 time=0
note_on channel=0 note=79 velocity=60 time=0
note_on channel=0 note=71 velocity=30 time=0
note_on channel=0 note=59 velocity=25 time=0
note_on channel=0 note=62 velocity=25 time=0
note_on channel=0 note=75 velocity=0 time=17
note_on channel=0 note=74 velocity=51 time=0
note_on channel=0 note=74 velocity=0 time=120
note_on channel=0 note=79 velocity=0 time=0
note_on channel=0 note=79 velocity=53 time=0
note_on channel=0 note=88 velocity=63 time=0
note_on channel=0 note=88 velocity=0 time=0
note_on channel=0 note=86 velocity=51 time=0
note_on channel=0 note=86 velocity=0 time=0
note_on channel=0 note=79 velocity=0 time=0
note_on channel=0 note=62 velocity=0 time=0
note_on channel=0 note=71 velocity=0 time=0
note_on channel=0 note=59 velocity=0 time=0
note_on channel=0 note=86 velocity=61 time=0
note_on channel=0 note=45 velocity=25 time=0
note_on channel=0 note=50 velocity=25 time=0
note_on channel=0 note=60 velocity=30 time=0
note_on channel=0 note=86 velocity=0 time=0
note_on channel=0 note=98 velocity=48 time=0
note_on channel=0 note=98 velocity=0 time=120
note_on channel=0 note=97 velocity=49 time=0
note_on channel=0 note=97 velocity=0 time=120
note_on channel=0 note=96 velocity=50 time=0
note_on channel=0 note=96 velocity=0 time=120
note_on channel=0 note=93 velocity=51 time=0
note_on channel=0 note=93 velocity=0 time=11
note_on channel=0 note=90 velocity=51 time=0
note_on channel=0 note=90 velocity=0 time=120
note_on channel=0 note=87 velocity=52 time=0
note_on channel=0 note=87 velocity=0 time=120
note_on channel=0 note=86 velocity=53 time=0
note_on channel=0 note=86 velocity=0 time=0
note_on channel=0 note=85 velocity=57 time=0
note_on channel=0 note=85 velocity=0 time=28
note_on channel=0 note=84 velocity=53 time=0
note_on channel=0 note=84 velocity=0 time=120
note_on channel=0 note=81 velocity=61 time=0
note_on channel=0 note=81 velocity=0 time=120
note_on channel=0 note=78 velocity=63 time=0
note_on channel=0 note=78 velocity=0 time=120
note_on channel=0 note=60 velocity=0 time=0
note_on channel=0 note=50 velocity=0 time=0
note_on channel=0 note=45 velocity=0 time=0
note_on channel=0 note=75 velocity=67 time=0
note_on channel=0 note=79 velocity=54 time=0
note_on channel=0 note=50 velocity=25 time=0
note_on channel=0 note=47 velocity=25 time=0
note_on channel=0 note=59 velocity=30 time=0
note_on channel=0 note=75 velocity=0 time=17
note_on channel=0 note=74 velocity=51 time=0
note_on channel=0 note=74 velocity=0 time=0
note_on channel=0 note=59 velocity=0 time=0
note_on channel=0 note=79 velocity=0 time=0
note_on channel=0 note=50 velocity=0 time=0
note_on channel=0 note=47 velocity=0 time=0
note_on channel=0 note=88 velocity=63 time=0
note_on channel=0 note=79 velocity=53 time=0
note_on channel=0 note=59 velocity=30 time=0
note_on channel=0 note=88 velocity=0 time=51
note_on channel=0 note=86 velocity=51 time=0
note_on channel=0 note=59 velocity=0 time=118
note_on channel=0 note=86 velocity=0 time=0
note_on channel=0 note=79 velocity=0 time=0
note_on channel=0 note=86 velocity=56 time=0
note_on channel=0 note=59 velocity=30 time=0
note_on channel=0 note=86 velocity=0 time=0
note_on channel=0 note=79 velocity=54 time=0
note_on channel=0 note=71 velocity=45 time=0
note_on channel=0 note=71 velocity=0 time=120
note_on channel=0 note=79 velocity=0 time=0
note_on channel=0 note=74 velocity=49 time=0
note_on channel=0 note=83 velocity=58 time=0
note_on channel=0 note=83 velocity=0 time=120
note_on channel=0 note=74 velocity=0 time=0
note_on channel=0 note=72 velocity=44 time=0
note_on channel=0 note=81 velocity=52 time=0
note_on channel=0 note=81 velocity=0 time=120
note_on channel=0 note=72 velocity=0 time=0
note_on channel=0 note=59 velocity=0 time=0
note_on channel=0 note=79 velocity=58 time=0
note_on channel=0 note=71 velocity=58 time=0
note_on channel=0 note=64 velocity=28 time=0
note_on channel=0 note=71 velocity=0 time=40
note_on channel=0 note=75 velocity=50 time=0
note_on channel=0 note=75 velocity=0 time=120
note_on channel=0 note=76 velocity=55 time=0
note_on channel=0 note=76 velocity=0 time=0
note_on channel=0 note=71 velocity=50 time=0
note_on channel=0 note=71 velocity=0 time=0
note_on channel=0 note=64 velocity=0 time=0
note_on channel=0 note=70 velocity=54 time=0
note_on channel=0 note=61 velocity=30 time=0
note_on channel=0 note=70 velocity=0 time=17
note_on channel=0 note=75 velocity=58 time=0
note_on channel=0 note=75 velocity=0 time=120
note_on channel=0 note=76 velocity=58 time=0
note_on channel=0 note=76 velocity=0 time=0
note_on channel=0 note=70 velocity=53 time=0
note_on channel=0 note=70 velocity=0 time=0
note_on channel=0 note=61 velocity=0 time=0
note_on channel=0 note=79 velocity=0 time=0
note_on channel=0 note=78 velocity=54 time=0
note_on channel=0 note=69 velocity=56 time=0
note_on channel=0 note=62 velocity=29 time=0
note_on channel=0 note=69 velocity=0 time=51
note_on channel=0 note=74 velocity=50 time=0
note_on channel=0 note=74 velocity=0 time=120
note_on channel=0 note=62 velocity=0 time=0
note_on channel=0 note=78 velocity=0 time=0
note_on channel=0 note=79 velocity=54 time=0
note_on channel=0 note=67 velocity=60 time=0
note_on channel=0 note=63 velocity=29 time=0
note_on channel=0 note=67 velocity=0 time=0
note_on channel=0 note=72 velocity=50 time=0
note_on channel=0 note=72 velocity=0 time=0
note_on channel=0 note=63 velocity=0 time=0
note_on channel=0 note=79 velocity=0 time=0
note_on channel=0 note=79 velocity=54 time=0
note_on channel=0 note=64 velocity=31 time=0
note_on channel=0 note=79 velocity=0 time=0
note_on channel=0 note=76 velocity=47 time=0
note_on channel=0 note=84 velocity=57 time=0
note_on channel=0 note=84 velocity=0 time=120
note_on channel=0 note=76 velocity=0 time=0
note_on channel=0 note=79 velocity=52 time=0
note_on channel=0 note=88 velocity=62 time=0
note_on channel=0 note=88 velocity=0 time=120
note_on channel=0 note=79 velocity=0 time=0
note_on channel=0 note=86 velocity=56 time=0
note_on channel=0 note=77 velocity=47 time=0
note_on channel=0 note=77 velocity=0 time=0
note_on channel=0 note=86 velocity=0 time=0
note_on channel=0 note=64 velocity=0 time=0
note_on channel=0 note=84 velocity=63 time=0
note_on channel=0 note=76 velocity=63 time=0
note_on channel=0 note=69 velocity=30 time=0
note_on channel=0 note=76 velocity=0 time=40
note_on channel=0 note=80 velocity=55 time=0
note_on channel=0 note=80 velocity=0 time=120
note_on channel=0 note=81 velocity=61 time=0
note_on channel=0 note=81 velocity=0 time=0
note_on channel=0 note=75 velocity=56 time=0
note_on channel=0 note=75 velocity=0 time=0
note_on channel=0 note=69 velocity=0 time=0
note_on channel=0 note=75 velocity=61 time=0
note_on channel=0 note=66 velocity=33 time=0
note_on channel=0 note=75 velocity=0 time=17
note_on channel=0 note=80 velocity=66 time=0
note_on channel=0 note=80 velocity=0 time=120
note_on channel=0 note=81 velocity=66 time=0
note_on channel=0 note=81 velocity=0 time=0
note_on channel=0 note=75 velocity=62 time=0
note_on channel=0 note=75 velocity=0 time=0
note_on channel=0 note=66 velocity=0 time=0
note_on channel=0 note=84 velocity=0 time=0
note_on channel=0 note=83 velocity=63 time=0
note_on channel=0 note=74 velocity=66 time=0
note_on channel=0 note=67 velocity=34 time=0
note_on channel=0 note=74 velocity=0 time=51
note_on channel=0 note=79 velocity=59 time=0
note_on channel=0 note=79 velocity=0 time=120
note_on channel=0 note=67 velocity=0 time=0
note_on channel=0 note=83 velocity=0 time=0
note_on channel=0 note=72 velocity=72 time=0
note_on channel=0 note=84 velocity=64 time=0
note_on channel=0 note=68 velocity=34 time=0
note_on channel=0 note=72 velocity=0 time=0
note_on channel=0 note=77 velocity=60 time=0
note_on channel=0 note=77 velocity=0 time=0
note_on channel=0 note=68 velocity=0 time=0
note_on channel=0 note=84 velocity=0 time=0
note_on channel=0 note=84 velocity=63 time=0
note_on channel=0 note=69 velocity=36 time=0
note_on channel=0 note=84 velocity=0 time=0
note_on channel=0 note=81 velocity=55 time=0
note_on channel=0 note=89 velocity=66 time=0
note_on channel=0 note=89 velocity=0 time=120
note_on channel=0 note=81 velocity=0 time=0
note_on channel=0 note=93 velocity=71 time=0
note_on channel=0 note=84 velocity=60 time=0
note_on channel=0 note=84 velocity=0 time=120
note_on channel=0 note=93 velocity=0 time=0
note_on channel=0 note=91 velocity=65 time=0
note_on channel=0 note=82 velocity=55 time=0
note_on channel=0 note=82 velocity=0 time=0
note_on channel=0 note=91 velocity=0 time=0
note_on channel=0 note=69 velocity=0 time=0
note_on channel=0 note=89 velocity=73 time=0
note_on channel=0 note=80 velocity=73 time=0
note_on channel=0 note=73 velocity=35 time=0
note_on channel=0 note=80 velocity=0 time=40
note_on channel=0 note=77 velocity=63 time=0
note_on channel=0 note=77 velocity=0 time=120
note_on channel=0 note=80 velocity=70 time=0
note_on channel=0 note=80 velocity=0 time=0
note_on channel=0 note=79 velocity=65 time=0
note_on channel=0 note=79 velocity=0 time=0
note_on channel=0 note=73 velocity=0 time=0
note_on channel=0 note=80 velocity=70 time=0
note_on channel=0 note=71 velocity=39 time=0
note_on channel=0 note=80 velocity=0 time=17
note_on channel=0 note=85 velocity=73 time=0
note_on channel=0 note=85 velocity=0 time=120
note_on channel=0 note=86 velocity=77 time=0
note_on channel=0 note=86 velocity=0 time=0
note_on channel=0 note=80 velocity=71 time=0
note_on channel=0 note=80 velocity=0 time=0
note_on channel=0 note=71 velocity=0 time=0
note_on channel=0 note=89 velocity=0 time=0
note_on channel=0 note=79 velocity=75 time=0
note_on channel=0 note=88 velocity=78 time=0
note_on channel=0 note=60 velocity=39 time=0
note_on channel=0 note=72 velocity=39 time=0
note_on channel=0 note=79 velocity=0 time=51
note_on channel=0 note=83 velocity=68 time=0
note_on channel=0 note=83 velocity=0 time=120
note_on channel=0 note=84 velocity=82 time=0
note_on channel=0 note=84 velocity=0 time=0
note_on channel=0 note=79 velocity=69 time=0
note_on channel=0 note=79 velocity=0 time=120
note_on channel=0 note=84 velocity=74 time=0
note_on channel=0 note=84 velocity=0 time=0
note_on channel=0 note=88 velocity=0 time=0
note_on channel=0 note=60 velocity=0 time=0
note_on channel=0 note=72 velocity=0 time=0
note_on channel=0 note=76 velocity=79 time=0
note_on channel=0 note=84 velocity=79 time=0
note_on channel=0 note=79 velocity=79 time=0
note_on channel=0 note=88 velocity=93 time=0
note_on channel=0 note=48 velocity=66 time=0
note_on channel=0 note=36 velocity=56 time=0
note_on channel=0 note=36 velocity=0 time=0
note_on channel=0 note=84 velocity=0 time=0
note_on channel=0 note=79 velocity=0 time=0
note_on channel=0 note=76 velocity=0 time=0
note_on channel=0 note=48 velocity=0 time=0
note_on channel=0 note=88 velocity=0 time=0
note_on channel=0 note=83 velocity=74 time=0
note_on channel=0 note=86 velocity=88 time=0
note_on channel=0 note=86 velocity=0 time=0
note_on channel=0 note=83 velocity=0 time=0
note_on channel=0 note=84 velocity=74 time=0
note_on channel=0 note=88 velocity=86 time=0
note_on channel=0 note=88 velocity=0 time=46
note_on channel=0 note=84 velocity=0 time=0
note_on channel=0 note=89 velocity=92 time=0
note_on channel=0 note=86 velocity=78 time=0
note_on channel=0 note=86 velocity=0 time=120
note_on channel=0 note=89 velocity=0 time=0
note_on channel=0 note=91 velocity=96 time=0
note_on channel=0 note=88 velocity=81 time=0
note_on channel=0 note=88 velocity=0 time=120
note_on channel=0 note=91 velocity=0 time=0
note_on channel=0 note=84 velocity=77 time=120
note_on channel=0 note=88 velocity=91 time=0
note_on channel=0 note=60 velocity=69 time=0
note_on channel=0 note=64 velocity=82 time=0
note_on channel=0 note=64 velocity=0 time=120
note_on channel=0 note=84 velocity=0 time=0
note_on channel=0 note=88 velocity=0 time=0
note_on channel=0 note=60 velocity=0 time=0
note_on channel=0 note=59 velocity=67 time=120
note_on channel=0 note=62 velocity=79 time=0
note_on channel=0 note=62 velocity=0 time=240
note_on channel=0 note=59 velocity=0 time=0
note_on channel=0 note=60 velocity=68 time=0
note_on channel=0 note=64 velocity=81 time=0
note_on channel=0 note=64 velocity=0 time=57
note_on channel=0 note=60 velocity=0 time=0
note_on channel=0 note=62 velocity=71 time=0
note_on channel=0 note=65 velocity=84 time=0
note_on channel=0 note=65 velocity=0 time=120
note_on channel=0 note=62 velocity=0 time=0
note_on channel=0 note=64 velocity=74 time=0
note_on channel=0 note=67 velocity=88 time=0
note_on channel=0 note=67 velocity=0 time=120
note_on channel=0 note=64 velocity=0 time=0
note_on channel=0 note=88 velocity=93 time=0
note_on channel=0 note=79 velocity=79 time=0
note_on channel=0 note=84 velocity=79 time=0
note_on channel=0 note=76 velocity=79 time=0
note_on channel=0 note=36 velocity=56 time=0
note_on channel=0 note=48 velocity=66 time=0
note_on channel=0 note=48 velocity=0 time=0
note_on channel=0 note=79 velocity=0 time=0
note_on channel=0 note=84 velocity=0 time=0
note_on channel=0 note=88 velocity=0 time=0
note_on channel=0 note=36 velocity=0 time=0
note_on channel=0 note=76 velocity=0 time=0
note_on channel=0 note=83 velocity=74 time=0
note_on channel=0 note=86 velocity=88 time=0
note_on channel=0 note=86 velocity=0 time=0
note_on channel=0 note=83 velocity=0 time=0
note_on channel=0 note=88 velocity=86 time=0
note_on channel=0 note=84 velocity=74 time=0
note_on channel=0 note=84 velocity=0 time=46
note_on channel=0 note=88 velocity=0 time=0
note_on channel=0 note=86 velocity=78 time=0
note_on channel=0 note=89 velocity=92 time=0
note_on channel=0 note=89 velocity=0 time=120
note_on channel=0 note=86 velocity=0 time=0
note_on channel=0 note=91 velocity=96 time=0
note_on channel=0 note=88 velocity=81 time=0
note_on channel=0 note=88 velocity=0 time=120
note_on channel=0 note=91 velocity=0 time=0
note_on channel=0 note=91 velocity=103 time=120
note_on channel=0 note=88 velocity=86 time=0
note_on channel=0 note=81 velocity=86 time=0
note_on channel=0 note=79 velocity=86 time=0
note_on channel=0 note=37 velocity=62 time=0
note_on channel=0 note=49 velocity=74 time=0
note_on channel=0 note=49 velocity=0 time=240
note_on channel=0 note=88 velocity=0 time=0
note_on channel=0 note=81 velocity=0 time=0
note_on channel=0 note=91 velocity=0 time=0
note_on channel=0 note=37 velocity=0 time=0
note_on channel=0 note=79 velocity=0 time=0
note_on channel=0 note=85 velocity=86 time=240
note_on channel=0 note=88 velocity=86 time=0
note_on channel=0 note=91 velocity=103 time=0
note_on channel=0 note=79 velocity=86 time=0
note_on channel=0 note=45 velocity=79 time=0
note_on channel=0 note=33 velocity=67 time=0
note_on channel=0 note=33 velocity=0 time=240
note_on channel=0 note=88 velocity=0 time=0
note_on channel=0 note=91 velocity=0 time=0
note_on channel=0 note=85 velocity=0 time=0
note_on channel=0 note=45 velocity=0 time=0
note_on channel=0 note=79 velocity=0 time=0
note_on channel=0 note=91 velocity=103 time=240
note_on channel=0 note=83 velocity=86 time=0
note_on channel=0 note=86 velocity=86 time=0
note_on channel=0 note=79 velocity=86 time=0
note_on channel=0 note=38 velocity=62 time=0
note_on channel=0 note=50 velocity=74 time=0
note_on channel=0 note=50 velocity=0 time=240
note_on channel=0 note=83 velocity=0 time=0
note_on channel=0 note=86 velocity=0 time=0
note_on channel=0 note=91 velocity=0 time=0
note_on channel=0 note=38 velocity=0 time=0
note_on channel=0 note=79 velocity=0 time=0
note_on channel=0 note=79 velocity=86 time=240
note_on channel=0 note=85 velocity=86 time=0
note_on channel=0 note=81 velocity=86 time=0
note_on channel=0 note=91 velocity=103 time=0
note_on channel=0 note=40 velocity=67 time=0
note_on channel=0 note=52 velocity=79 time=0
note_on channel=0 note=52 velocity=0 time=0
note_on channel=0 note=85 velocity=0 time=0
note_on channel=0 note=81 velocity=0 time=0
note_on channel=0 note=79 velocity=0 time=0
note_on channel=0 note=40 velocity=0 time=0
note_on channel=0 note=91 velocity=0 time=0
note_on channel=0 note=91 velocity=77 time=0
note_on channel=0 note=79 velocity=65 time=0
note_on channel=0 note=83 velocity=65 time=0
note_on channel=0 note=86 velocity=65 time=0
note_on channel=0 note=38 velocity=50 time=0
note_on channel=0 note=38 velocity=0 time=0
note_on channel=0 note=42 velocity=50 time=0
note_on channel=0 note=42 velocity=0 time=120
note_on channel=0 note=43 velocity=50 time=0
note_on channel=0 note=43 velocity=0 time=49
note_on channel=0 note=47 velocity=50 time=0
note_on channel=0 note=47 velocity=0 time=120
note_on channel=0 note=86 velocity=0 time=0
note_on channel=0 note=91 velocity=0 time=0
note_on channel=0 note=79 velocity=0 time=0
note_on channel=0 note=83 velocity=0 time=0
note_on channel=0 note=86 velocity=64 time=0
note_on channel=0 note=79 velocity=54 time=0
note_on channel=0 note=83 velocity=54 time=0
note_on channel=0 note=50 velocity=50 time=0
note_on channel=0 note=50 velocity=0 time=14
note_on channel=0 note=54 velocity=50 time=0
note_on channel=0 note=54 velocity=0 time=120
note_on channel=0 note=55 velocity=50 time=0
note_on channel=0 note=55 velocity=0 time=120
note_on channel=0 note=59 velocity=50 time=0
note_on channel=0 note=59 velocity=0 time=120
note_on channel=0 note=62 velocity=50 time=0
note_on channel=0 note=62 velocity=0 time=7
note_on channel=0 note=66 velocity=50 time=0
note_on channel=0 note=66 velocity=0 time=120
note_on channel=0 note=83 velocity=0 time=0
note_on channel=0 note=79 velocity=0 time=0
note_on channel=0 note=86 velocity=0 time=0
note_on channel=0 note=74 velocity=53 time=0
note_on channel=0 note=79 velocity=53 time=0
note_on channel=0 note=83 velocity=63 time=0
note_on channel=0 note=67 velocity=50 time=0
note_on channel=0 note=67 velocity=0 time=120
note_on channel=0 note=71 velocity=50 time=0
note_on channel=0 note=71 velocity=0 time=120
note_on channel=0 note=83 velocity=0 time=0
note_on channel=0 note=79 velocity=0 time=0
note_on channel=0 note=74 velocity=0 time=0
note_on channel=0 note=74 velocity=56 time=0
note_on channel=0 note=74 velocity=0 time=21
note_on channel=0 note=78 velocity=57 time=0
note_on channel=0 note=78 velocity=0 time=120
note_on channel=0 note=79 velocity=58 time=0
note_on channel=0 note=67 velocity=43 time=0
note_on channel=0 note=67 velocity=0 time=120
note_on channel=0 note=79 velocity=0 time=0
note_on channel=0 note=83 velocity=59 time=0
note_on channel=0 note=71 velocity=44 time=0
note_on channel=0 note=71 velocity=0 time=120
note_on channel=0 note=83 velocity=0 time=0
note_on channel=0 note=85 velocity=60 time=0
note_on channel=0 note=73 velocity=45 time=0
note_on channel=0 note=73 velocity=0 time=40
note_on channel=0 note=85 velocity=0 time=0
note_on channel=0 note=86 velocity=61 time=0
note_on channel=0 note=74 velocity=46 time=0
note_on channel=0 note=74 velocity=0 time=120
note_on channel=0 note=86 velocity=0 time=0
note_on channel=0 note=88 velocity=62 time=0
note_on channel=0 note=76 velocity=47 time=0
note_on channel=0 note=76 velocity=0 time=120
note_on channel=0 note=88 velocity=0 time=0
note_on channel=0 note=86 velocity=62 time=0
note_on channel=0 note=74 velocity=48 time=0
note_on channel=0 note=74 velocity=0 time=120
note_on channel=0 note=86 velocity=0 time=0
note_on channel=0 note=90 velocity=63 time=0
note_on channel=0 note=78 velocity=50 time=0
note_on channel=0 note=78 velocity=0 time=45
note_on channel=0 note=90 velocity=0 time=0
note_on channel=0 note=91 velocity=64 time=0
note_on channel=0 note=79 velocity=51 time=0
note_on channel=0 note=79 velocity=0 time=120
note_on channel=0 note=91 velocity=0 time=0
note_on channel=0 note=93 velocity=65 time=0
note_on channel=0 note=81 velocity=52 time=0
note_on channel=0 note=81 velocity=0 time=120
note_on channel=0 note=93 velocity=0 time=0
note_on channel=0 note=91 velocity=66 time=0
note_on channel=0 note=79 velocity=53 time=0
note_on channel=0 note=79 velocity=0 time=0
note_on channel=0 note=91 velocity=0 time=0
note_on channel=0 note=94 velocity=67 time=0
note_on channel=0 note=82 velocity=54 time=0
note_on channel=0 note=82 velocity=0 time=5
note_on channel=0 note=94 velocity=0 time=0
note_on channel=0 note=95 velocity=68 time=0
note_on channel=0 note=83 velocity=55 time=0
note_on channel=0 note=83 velocity=0 time=29
note_on channel=0 note=95 velocity=0 time=0
note_on channel=0 note=96 velocity=69 time=0
note_on channel=0 note=84 velocity=56 time=0
note_on channel=0 note=84 velocity=0 time=34
note_on channel=0 note=96 velocity=0 time=0
note_on channel=0 note=95 velocity=70 time=0
note_on channel=0 note=83 velocity=58 time=0
note_on channel=0 note=83 velocity=0 time=58
note_on channel=0 note=95 velocity=0 time=0
note_on channel=0 note=98 velocity=71 time=0
note_on channel=0 note=86 velocity=59 time=0
note_on channel=0 note=86 velocity=0 time=0
note_on channel=0 note=98 velocity=0 time=0
note_on channel=0 note=81 velocity=59 time=0
note_on channel=0 note=74 velocity=59 time=0
note_on channel=0 note=84 velocity=70 time=0
note_on channel=0 note=62 velocity=60 time=0
note_on channel=0 note=62 velocity=0 time=20
note_on channel=0 note=64 velocity=63 time=0
note_on channel=0 note=64 velocity=0 time=0
note_on channel=0 note=66 velocity=66 time=0
note_on channel=0 note=66 velocity=0 time=0
note_on channel=0 note=81 velocity=0 time=0
note_on channel=0 note=74 velocity=0 time=0
note_on channel=0 note=84 velocity=0 time=0
note_on channel=0 note=83 velocity=58 time=0
note_on channel=0 note=79 velocity=49 time=0
note_on channel=0 note=74 velocity=49 time=0
note_on channel=0 note=55 velocity=40 time=0
note_on channel=0 note=55 velocity=0 time=40
note_on channel=0 note=71 velocity=32 time=0
note_on channel=0 note=71 velocity=0 time=80
note_on channel=0 note=67 velocity=32 time=0
note_on channel=0 note=67 velocity=0 time=160
note_on channel=0 note=66 velocity=40 time=0
note_on channel=0 note=66 velocity=0 time=160
note_on channel=0 note=71 velocity=33 time=0
note_on channel=0 note=71 velocity=0 time=160
note_on channel=0 note=67 velocity=33 time=0
note_on channel=0 note=67 velocity=0 time=0
note_on channel=0 note=74 velocity=0 time=0
note_on channel=0 note=79 velocity=0 time=0
note_on channel=0 note=83 velocity=0 time=0
note_on channel=0 note=84 velocity=57 time=0
note_on channel=0 note=79 velocity=48 time=0
note_on channel=0 note=63 velocity=40 time=0
note_on channel=0 note=63 velocity=0 time=74
note_on channel=0 note=72 velocity=31 time=0
note_on channel=0 note=72 velocity=0 time=160
note_on channel=0 note=67 velocity=31 time=0
note_on channel=0 note=67 velocity=0 time=0
note_on channel=0 note=79 velocity=0 time=0
note_on channel=0 note=84 velocity=0 time=0
note_on channel=0 note=84 velocity=51 time=0
note_on channel=0 note=79 velocity=51 time=0
note_on channel=0 note=87 velocity=61 time=0
note_on channel=0 note=60 velocity=40 time=0
note_on channel=0 note=60 velocity=0 time=63
note_on channel=0 note=72 velocity=33 time=0
note_on channel=0 note=72 velocity=0 time=0
note_on channel=0 note=67 velocity=33 time=0
note_on channel=0 note=67 velocity=0 time=0
note_on channel=0 note=84 velocity=0 time=0
note_on channel=0 note=79 velocity=0 time=0
note_on channel=0 note=87 velocity=0 time=0
note_on channel=0 note=91 velocity=56 time=0
note_on channel=0 note=86 velocity=67 time=0
note_on channel=0 note=79 velocity=56 time=0
note_on channel=0 note=59 velocity=40 time=0
note_on channel=0 note=59 velocity=0 time=26
note_on channel=0 note=71 velocity=31 time=0
note_on channel=0 note=71 velocity=0 time=160
note_on channel=0 note=67 velocity=31 time=0
note_on channel=0 note=67 velocity=0 time=160
note_on channel=0 note=86 velocity=0 time=0
note_on channel=0 note=83 velocity=61 time=0
note_on channel=0 note=55 velocity=40 time=0
note_on channel=0 note=55 velocity=0 time=75
note_on channel=0 note=71 velocity=32 time=0
note_on channel=0 note=71 velocity=0 time=0
note_on channel=0 note=67 velocity=32 time=0
note_on channel=0 note=67 velocity=0 time=0
note_on channel=0 note=91 velocity=0 time=0
note_on channel=0 note=79 velocity=0 time=0
note_on channel=0 note=83 velocity=0 time=0
note_on channel=0 note=84 velocity=51 time=0
note_on channel=0 note=79 velocity=51 time=0
note_on channel=0 note=87 velocity=60 time=0
note_on channel=0 note=60 velocity=40 time=0
note_on channel=0 note=60 velocity=0 time=74
note_on channel=0 note=72 velocity=33 time=0
note_on channel=0 note=72 velocity=0 time=160
note_on channel=0 note=67 velocity=33 time=0
note_on channel=0 note=67 velocity=0 time=160
note_on channel=0 note=84 velocity=0 time=0
note_on channel=0 note=79 velocity=0 time=0
note_on channel=0 note=87 velocity=0 time=0
note_on channel=0 note=79 velocity=53 time=0
note_on channel=0 note=84 velocity=63 time=0
note_on channel=0 note=63 velocity=40 time=0
note_on channel=0 note=63 velocity=0 time=68
note_on channel=0 note=72 velocity=32 time=0
note_on channel=0 note=72 velocity=0 time=0
note_on channel=0 note=67 velocity=32 time=0
note_on channel=0 note=67 velocity=0 time=0
note_on channel=0 note=84 velocity=0 time=0
note_on channel=0 note=79 velocity=0 time=0
note_on channel=0 note=82 velocity=66 time=0
note_on channel=0 note=79 velocity=56 time=0
note_on channel=0 note=62 velocity=40 time=0
note_on channel=0 note=62 velocity=0 time=68
note_on channel=0 note=70 velocity=32 time=0
note_on channel=0 note=70 velocity=0 time=160
note_on channel=0 note=67 velocity=32 time=0
note_on channel=0 note=67 velocity=0 time=160
note_on channel=0 note=82 velocity=0 time=0
note_on channel=0 note=83 velocity=59 time=0
note_on channel=0 note=62 velocity=40 time=0
note_on channel=0 note=62 velocity=0 time=68
note_on channel=0 note=71 velocity=36 time=0
note_on channel=0 note=71 velocity=0 time=0
note_on channel=0 note=67 velocity=36 time=0
note_on channel=0 note=67 velocity=0 time=0
note_on channel=0 note=83 velocity=0 time=0
note_on channel=0 note=79 velocity=0 time=0
note_on channel=0 note=78 velocity=54 time=0
note_on channel=0 note=86 velocity=64 time=0
note_on channel=0 note=62 velocity=40 time=0
note_on channel=0 note=62 velocity=0 time=54
note_on channel=0 note=72 velocity=33 time=0
note_on channel=0 note=72 velocity=0 time=160
note_on channel=0 note=69 velocity=33 time=0
note_on channel=0 note=69 velocity=0 time=160
note_on channel=0 note=86 velocity=0 time=0
note_on channel=0 note=78 velocity=0 time=0
note_on channel=0 note=84 velocity=63 time=0
note_on channel=0 note=81 velocity=53 time=0
note_on channel=0 note=50 velocity=40 time=0
note_on channel=0 note=50 velocity=0 time=0
note_on channel=0 note=62 velocity=34 time=0
note_on channel=0 note=74 velocity=52 time=80
note_on channel=0 note=62 velocity=0 time=80
note_on channel=0 note=60 velocity=34 time=0
note_on channel=0 note=84 velocity=0 time=40
note_on channel=0 note=81 velocity=0 time=0
note_on channel=0 note=78 velocity=48 time=0
note_on channel=0 note=81 velocity=57 time=0
note_on channel=0 note=81 velocity=0 time=7
note_on channel=0 note=60 velocity=0 time=0
note_on channel=0 note=74 velocity=0 time=0
note_on channel=0 note=78 velocity=0 time=0
note_on channel=0 note=79 velocity=49 time=0
note_on channel=0 note=74 velocity=49 time=0
note_on channel=0 note=83 velocity=58 time=0
note_on channel=0 note=43 velocity=40 time=0
note_on channel=0 note=79 velocity=0 time=10
note_on channel=0 note=81 velocity=42 time=0
note_on channel=0 note=43 velocity=0 time=12
note_on channel=0 note=55 velocity=33 time=0
note_on channel=0 note=81 velocity=0 time=10
note_on channel=0 note=79 velocity=49 time=0
note_on channel=0 note=74 velocity=0 time=17
note_on channel=0 note=55 velocity=0 time=0
note_on channel=0 note=59 velocity=33 time=0
note_on channel=0 note=81 velocity=44 time=1
note_on channel=0 note=79 velocity=0 time=1
note_on channel=0 note=81 velocity=0 time=3
note_on channel=0 note=79 velocity=49 time=0
note_on channel=0 note=59 velocity=0 time=2
note_on channel=0 note=55 velocity=33 time=0
note_on channel=0 note=79 velocity=0 time=6
note_on channel=0 note=81 velocity=44 time=0
note_on channel=0 note=55 velocity=0 time=3
note_on channel=0 note=79 velocity=50 time=0
note_on channel=0 note=54 velocity=41 time=0
note_on channel=0 note=81 velocity=0 time=3
note_on channel=0 note=79 velocity=0 time=26
note_on channel=0 note=81 velocity=44 time=0
note_on channel=0 note=54 velocity=0 time=39
note_on channel=0 note=55 velocity=35 time=0
note_on channel=0 note=81 velocity=0 time=41
note_on channel=0 note=79 velocity=50 time=0
note_on channel=0 note=55 velocity=0 time=79
note_on channel=0 note=67 velocity=35 time=0
note_on channel=0 note=81 velocity=46 time=1
note_on channel=0 note=79 velocity=0 time=1
note_on channel=0 note=81 velocity=0 time=80
note_on channel=0 note=79 velocity=51 time=0
note_on channel=0 note=67 velocity=0 time=38
note_on channel=0 note=55 velocity=35 time=0
note_on channel=0 note=79 velocity=0 time=42
note_on channel=0 note=81 velocity=45 time=0
note_on channel=0 note=55 velocity=0 time=22
note_on channel=0 note=83 velocity=0 time=0
note_on channel=0 note=84 velocity=67 time=0
note_on channel=0 note=79 velocity=51 time=0
note_on channel=0 note=52 velocity=42 time=0
note_on channel=0 note=81 velocity=0 time=3
note_on channel=0 note=79 velocity=0 time=28
note_on channel=0 note=81 velocity=44 time=0
note_on channel=0 note=52 velocity=0 time=39
note_on channel=0 note=55 velocity=36 time=0
note_on channel=0 note=81 velocity=0 time=41
note_on channel=0 note=79 velocity=52 time=0
note_on channel=0 note=55 velocity=0 time=70
note_on channel=0 note=67 velocity=36 time=0
note_on channel=0 note=81 velocity=47 time=1
note_on channel=0 note=79 velocity=0 time=1
note_on channel=0 note=81 velocity=0 time=80
note_on channel=0 note=79 velocity=52 time=0
note_on channel=0 note=67 velocity=0 time=17
note_on channel=0 note=55 velocity=37 time=0
note_on channel=0 note=79 velocity=0 time=2
note_on channel=0 note=81 velocity=47 time=0
note_on channel=0 note=55 velocity=0 time=22
note_on channel=0 note=84 velocity=0 time=0
note_on channel=0 note=79 velocity=53 time=0
note_on channel=0 note=88 velocity=73 time=0
note_on channel=0 note=48 velocity=44 time=0
note_on channel=0 note=81 velocity=0 time=3
note_on channel=0 note=79 velocity=0 time=45
note_on channel=0 note=81 velocity=47 time=0
note_on channel=0 note=48 velocity=0 time=8
note_on channel=0 note=55 velocity=37 time=0
note_on channel=0 note=81 velocity=0 time=41
note_on channel=0 note=79 velocity=54 time=0
note_on channel=0 note=55 velocity=0 time=12
note_on channel=0 note=64 velocity=37 time=0
note_on channel=0 note=81 velocity=48 time=1
note_on channel=0 note=79 velocity=0 time=1
note_on channel=0 note=81 velocity=0 time=2
note_on channel=0 note=79 velocity=54 time=0
note_on channel=0 note=64 velocity=0 time=38
note_on channel=0 note=55 velocity=38 time=0
note_on channel=0 note=79 velocity=0 time=42
note_on channel=0 note=81 velocity=48 time=0
note_on channel=0 note=55 velocity=0 time=3
note_on channel=0 note=88 velocity=0 time=0
note_on channel=0 note=91 velocity=67 time=0
note_on channel=0 note=79 velocity=55 time=0
note_on channel=0 note=47 velocity=45 time=0
note_on channel=0 note=81 velocity=0 time=3
note_on channel=0 note=79 velocity=0 time=24
note_on channel=0 note=81 velocity=47 time=0
note_on channel=0 note=47 velocity=0 time=8
note_on channel=0 note=55 velocity=37 time=0
note_on channel=0 note=81 velocity=0 time=41
note_on channel=0 note=79 velocity=55 time=0
note_on channel=0 note=55 velocity=0 time=32
note_on channel=0 note=62 velocity=37 time=0
note_on channel=0 note=81 velocity=50 time=1
note_on channel=0 note=79 velocity=0 time=1
note_on channel=0 note=81 velocity=0 time=18
note_on channel=0 note=79 velocity=56 time=0
note_on channel=0 note=62 velocity=0 time=38
note_on channel=0 note=55 velocity=37 time=0
note_on channel=0 note=79 velocity=0 time=2
note_on channel=0 note=81 velocity=51 time=0
note_on channel=0 note=55 velocity=0 time=78
note_on channel=0 note=79 velocity=56 time=0
note_on channel=0 note=43 velocity=46 time=0
note_on channel=0 note=81 velocity=0 time=3
note_on channel=0 note=79 velocity=0 time=26
note_on channel=0 note=81 velocity=50 time=0
note_on channel=0 note=43 velocity=0 time=39
note_on channel=0 note=55 velocity=39 time=0
note_on channel=0 note=81 velocity=0 time=29
note_on channel=0 note=79 velocity=57 time=0
note_on channel=0 note=55 velocity=0 time=32
note_on channel=0 note=59 velocity=40 time=0
note_on channel=0 note=81 velocity=51 time=1
note_on channel=0 note=79 velocity=0 time=1
note_on channel=0 note=81 velocity=0 time=2
note_on channel=0 note=79 velocity=57 time=0
note_on channel=0 note=59 velocity=0 time=38
note_on channel=0 note=55 velocity=40 time=0
note_on channel=0 note=79 velocity=0 time=42
note_on channel=0 note=81 velocity=51 time=0
note_on channel=0 note=55 velocity=0 time=22
note_on channel=0 note=91 velocity=0 time=0
note_on channel=0 note=88 velocity=72 time=0
note_on channel=0 note=79 velocity=58 time=0
note_on channel=0 note=48 velocity=48 time=0
note_on channel=0 note=81 velocity=0 time=3
note_on channel=0 note=79 velocity=0 time=35
note_on channel=0 note=81 velocity=50 time=0
note_on channel=0 note=48 velocity=0 time=27
note_on channel=0 note=55 velocity=42 time=0
note_on channel=0 note=81 velocity=0 time=41
note_on channel=0 note=79 velocity=59 time=0
note_on channel=0 note=55 velocity=0 time=51
note_on channel=0 note=64 velocity=42 time=0
note_on channel=0 note=81 velocity=53 time=1
note_on channel=0 note=79 velocity=0 time=1
note_on channel=0 note=81 velocity=0 time=37
note_on channel=0 note=79 velocity=59 time=0
note_on channel=0 note=64 velocity=0 time=17
note_on channel=0 note=55 velocity=42 time=0
note_on channel=0 note=79 velocity=0 time=42
note_on channel=0 note=81 velocity=53 time=0
note_on channel=0 note=55 velocity=0 time=41
note_on channel=0 note=88 velocity=0 time=0
note_on channel=0 note=79 velocity=60 time=0
note_on channel=0 note=84 velocity=77 time=0
note_on channel=0 note=52 velocity=51 time=0
note_on channel=0 note=81 velocity=0 time=3
note_on channel=0 note=79 velocity=0 time=45
note_on channel=0 note=81 velocity=52 time=0
note_on channel=0 note=52 velocity=0 time=39
note_on channel=0 note=55 velocity=43 time=0
note_on channel=0 note=81 velocity=0 time=29
note_on channel=0 note=79 velocity=60 time=0
note_on channel=0 note=55 velocity=0 time=32
note_on channel=0 note=67 velocity=43 time=0
note_on channel=0 note=81 velocity=55 time=1
note_on channel=0 note=79 velocity=0 time=1
note_on channel=0 note=81 velocity=0 time=2
note_on channel=0 note=79 velocity=61 time=0
note_on channel=0 note=67 velocity=0 time=38
note_on channel=0 note=55 velocity=43 time=0
note_on channel=0 note=79 velocity=0 time=42
note_on channel=0 note=81 velocity=54 time=0
note_on channel=0 note=55 velocity=0 time=0
note_on channel=0 note=84 velocity=0 time=0
note_on channel=0 note=82 velocity=83 time=0
note_on channel=0 note=79 velocity=61 time=0
note_on channel=0 note=50 velocity=50 time=0
note_on channel=0 note=81 velocity=0 time=3
note_on channel=0 note=79 velocity=0 time=17
note_on channel=0 note=81 velocity=53 time=0
note_on channel=0 note=50 velocity=0 time=39
note_on channel=0 note=52 velocity=44 time=0
note_on channel=0 note=81 velocity=0 time=41
note_on channel=0 note=79 velocity=62 time=0
note_on channel=0 note=52 velocity=0 time=12
note_on channel=0 note=82 velocity=0 time=0
note_on channel=0 note=83 velocity=75 time=0
note_on channel=0 note=54 velocity=48 time=0
note_on channel=0 note=81 velocity=56 time=1
note_on channel=0 note=79 velocity=0 time=1
note_on channel=0 note=81 velocity=0 time=29
note_on channel=0 note=79 velocity=62 time=0
note_on channel=0 note=54 velocity=0 time=38
note_on channel=0 note=55 velocity=51 time=0
note_on channel=0 note=79 velocity=0 time=42
note_on channel=0 note=81 velocity=56 time=0
note_on channel=0 note=55 velocity=0 time=60
note_on channel=0 note=79 velocity=63 time=0
note_on channel=0 note=57 velocity=54 time=0
note_on channel=0 note=81 velocity=0 time=3
note_on channel=0 note=79 velocity=0 time=78
note_on channel=0 note=81 velocity=55 time=0
note_on channel=0 note=57 velocity=0 time=27
note_on channel=0 note=59 velocity=55 time=0
note_on channel=0 note=81 velocity=0 time=41
note_on channel=0 note=79 velocity=64 time=0
note_on channel=0 note=59 velocity=0 time=12
note_on channel=0 note=83 velocity=0 time=0
note_on channel=0 note=86 velocity=86 time=0
note_on channel=0 note=57 velocity=55 time=0
note_on channel=0 note=81 velocity=57 time=1
note_on channel=0 note=79 velocity=0 time=1
note_on channel=0 note=81 velocity=0 time=2
note_on channel=0 note=79 velocity=64 time=0
note_on channel=0 note=57 velocity=0 time=38
note_on channel=0 note=55 velocity=54 time=0
note_on channel=0 note=79 velocity=0 time=42
note_on channel=0 note=81 velocity=56 time=0
note_on channel=0 note=55 velocity=0 time=22
note_on channel=0 note=86 velocity=0 time=0
note_on channel=0 note=86 velocity=75 time=0
note_on channel=0 note=54 velocity=54 time=0
note_on channel=0 note=81 velocity=0 time=3
note_on channel=0 note=86 velocity=0 time=17
note_on channel=0 note=88 velocity=66 time=0
note_on channel=0 note=54 velocity=0 time=27
note_on channel=0 note=55 velocity=49 time=0
note_on channel=0 note=88 velocity=0 time=41
note_on channel=0 note=86 velocity=75 time=0
note_on channel=0 note=55 velocity=0 time=51
note_on channel=0 note=74 velocity=60 time=0
note_on channel=0 note=54 velocity=49 time=0
note_on channel=0 note=88 velocity=64 time=1
note_on channel=0 note=86 velocity=0 time=1
note_on channel=0 note=88 velocity=0 time=18
note_on channel=0 note=86 velocity=75 time=0
note_on channel=0 note=54 velocity=0 time=38
note_on channel=0 note=52 velocity=49 time=0
note_on channel=0 note=86 velocity=0 time=21
note_on channel=0 note=88 velocity=68 time=0
note_on channel=0 note=52 velocity=0 time=3
note_on channel=0 note=74 velocity=0 time=0
note_on channel=0 note=86 velocity=78 time=0
note_on channel=0 note=50 velocity=54 time=0
note_on channel=0 note=88 velocity=0 time=3
note_on channel=0 note=86 velocity=0 time=7
note_on channel=0 note=88 velocity=69 time=0
note_on channel=0 note=50 velocity=0 time=39
note_on channel=0 note=48 velocity=50 time=0
note_on channel=0 note=88 velocity=0 time=10
note_on channel=0 note=86 velocity=75 time=0
note_on channel=0 note=48 velocity=0 time=79
note_on channel=0 note=85 velocity=75 time=0
note_on channel=0 note=47 velocity=59 time=0
note_on channel=0 note=86 velocity=0 time=2
note_on channel=0 note=47 velocity=0 time=36
note_on channel=0 note=85 velocity=0 time=0
note_on channel=0 note=86 velocity=79 time=0
note_on channel=0 note=45 velocity=66 time=0
note_on channel=0 note=45 velocity=0 time=0
note_on channel=0 note=86 velocity=0 time=0
note_on channel=0 note=86 velocity=73 time=0
note_on channel=0 note=95 velocity=73 time=0
note_on channel=0 note=98 velocity=86 time=0
note_on channel=0 note=89 velocity=73 time=0
note_on channel=0 note=31 velocity=66 time=0
note_on channel=0 note=31 velocity=0 time=17
note_on channel=0 note=98 velocity=0 time=0
note_on channel=0 note=86 velocity=0 time=0
note_on channel=0 note=95 velocity=0 time=0
note_on channel=0 note=89 velocity=0 time=0
note_on channel=0 note=43 velocity=56 time=0
note_on channel=0 note=43 velocity=0 time=120
note_on channel=0 note=89 velocity=66 time=0
note_on channel=0 note=95 velocity=66 time=0
note_on channel=0 note=86 velocity=66 time=0
note_on channel=0 note=98 velocity=78 time=0
note_on channel=0 note=31 velocity=66 time=0
note_on channel=0 note=31 velocity=0 time=120
note_on channel=0 note=43 velocity=56 time=0
note_on channel=0 note=43 velocity=0 time=0
note_on channel=0 note=31 velocity=66 time=0
note_on channel=0 note=31 velocity=0 time=120
note_on channel=0 note=43 velocity=57 time=0
note_on channel=0 note=43 velocity=0 time=0
note_on channel=0 note=98 velocity=0 time=0
note_on channel=0 note=89 velocity=0 time=0
note_on channel=0 note=95 velocity=0 time=0
note_on channel=0 note=86 velocity=0 time=0
note_on channel=0 note=86 velocity=66 time=0
note_on channel=0 note=84 velocity=66 time=0
note_on channel=0 note=96 velocity=78 time=0
note_on channel=0 note=89 velocity=66 time=0
note_on channel=0 note=31 velocity=66 time=0
note_on channel=0 note=31 velocity=0 time=28
note_on channel=0 note=96 velocity=0 time=0
note_on channel=0 note=86 velocity=0 time=0
note_on channel=0 note=84 velocity=0 time=0
note_on channel=0 note=89 velocity=0 time=0
note_on channel=0 note=43 velocity=57 time=0
note_on channel=0 note=43 velocity=0 time=0
note_on channel=0 note=86 velocity=67 time=0
note_on channel=0 note=95 velocity=79 time=0
note_on channel=0 note=83 velocity=67 time=0
note_on channel=0 note=89 velocity=67 time=0
note_on channel=0 note=31 velocity=66 time=0
note_on channel=0 note=31 velocity=0 time=120
note_on channel=0 note=83 velocity=0 time=0
note_on channel=0 note=86 velocity=0 time=0
note_on channel=0 note=95 velocity=0 time=0
note_on channel=0 note=89 velocity=0 time=0
note_on channel=0 note=43 velocity=57 time=0
note_on channel=0 note=43 velocity=0 time=103
note_on channel=0 note=96 velocity=83 time=0
note_on channel=0 note=89 velocity=70 time=0
note_on channel=0 note=84 velocity=70 time=0
note_on channel=0 note=86 velocity=70 time=0
note_on channel=0 note=31 velocity=66 time=0
note_on channel=0 note=31 velocity=0 time=57
note_on channel=0 note=84 velocity=0 time=0
note_on channel=0 note=96 velocity=0 time=0
note_on channel=0 note=89 velocity=0 time=0
note_on channel=0 note=86 velocity=0 time=0
note_on channel=0 note=43 velocity=58 time=0
note_on channel=0 note=43 velocity=0 time=80
note_on channel=0 note=89 velocity=69 time=0
note_on channel=0 note=86 velocity=69 time=0
note_on channel=0 note=98 velocity=82 time=0
note_on channel=0 note=31 velocity=66 time=0
note_on channel=0 note=31 velocity=0 time=57
note_on channel=0 note=89 velocity=0 time=0
note_on channel=0 note=86 velocity=0 time=0
note_on channel=0 note=98 velocity=0 time=0
note_on channel=0 note=43 velocity=59 time=0
note_on channel=0 note=43 velocity=0 time=0
note_on channel=0 note=88 velocity=58 time=0
note_on channel=0 note=95 velocity=69 time=0
note_on channel=0 note=83 velocity=58 time=0
note_on channel=0 note=86 velocity=58 time=0
note_on channel=0 note=32 velocity=45 time=0
note_on channel=0 note=32 velocity=0 time=45
note_on channel=0 note=83 velocity=0 time=0
note_on channel=0 note=88 velocity=0 time=0
note_on channel=0 note=95 velocity=0 time=0
note_on channel=0 note=86 velocity=0 time=0
note_on channel=0 note=44 velocity=34 time=0
note_on channel=0 note=44 velocity=0 time=0
note_on channel=0 note=84 velocity=50 time=0
note_on channel=0 note=88 velocity=50 time=0
note_on channel=0 note=96 velocity=59 time=0
note_on channel=0 note=33 velocity=43 time=0
note_on channel=0 note=33 velocity=0 time=120
note_on channel=0 note=84 velocity=0 time=0
note_on channel=0 note=88 velocity=0 time=0
note_on channel=0 note=96 velocity=0 time=0
note_on channel=0 note=45 velocity=33 time=0
note_on channel=0 note=45 velocity=0 time=97
note_on channel=0 note=88 velocity=45 time=0
note_on channel=0 note=86 velocity=45 time=0
note_on channel=0 note=83 velocity=45 time=0
note_on channel=0 note=95 velocity=53 time=0
note_on channel=0 note=32 velocity=43 time=0
note_on channel=0 note=32 velocity=0 time=80
note_on channel=0 note=83 velocity=0 time=0
note_on channel=0 note=88 velocity=0 time=0
note_on channel=0 note=86 velocity=0 time=0
note_on channel=0 note=95 velocity=0 time=0
note_on channel=0 note=44 velocity=33 time=0
note_on channel=0 note=44 velocity=0 time=91
note_on channel=0 note=84 velocity=50 time=0
note_on channel=0 note=88 velocity=50 time=0
note_on channel=0 note=96 velocity=59 time=0
note_on channel=0 note=33 velocity=43 time=0
note_on channel=0 note=33 velocity=0 time=68
note_on channel=0 note=84 velocity=0 time=0
note_on channel=0 note=88 velocity=0 time=0
note_on channel=0 note=96 velocity=0 time=0
note_on channel=0 note=45 velocity=34 time=0
note_on channel=0 note=45 velocity=0 time=0
note_on channel=0 note=84 velocity=45 time=0
note_on channel=0 note=81 velocity=45 time=0
note_on channel=0 note=93 velocity=53 time=0
note_on channel=0 note=88 velocity=45 time=0
note_on channel=0 note=36 velocity=43 time=0
note_on channel=0 note=36 velocity=0 time=63
note_on channel=0 note=93 velocity=0 time=0
note_on channel=0 note=84 velocity=0 time=0
note_on channel=0 note=81 velocity=0 time=0
note_on channel=0 note=88 velocity=0 time=0
note_on channel=0 note=48 velocity=35 time=0
note_on channel=0 note=48 velocity=0 time=0
note_on channel=0 note=91 velocity=59 time=0
note_on channel=0 note=88 velocity=50 time=0
note_on channel=0 note=81 velocity=50 time=0
note_on channel=0 note=37 velocity=43 time=0
note_on channel=0 note=37 velocity=0 time=120
note_on channel=0 note=91 velocity=0 time=0
note_on channel=0 note=88 velocity=0 time=0
note_on channel=0 note=81 velocity=0 time=0
note_on channel=0 note=49 velocity=33 time=0
note_on channel=0 note=49 velocity=0 time=97
note_on channel=0 note=85 velocity=45 time=0
note_on channel=0 note=91 velocity=53 time=0
note_on channel=0 note=81 velocity=45 time=0
note_on channel=0 note=40 velocity=43 time=0
note_on channel=0 note=40 velocity=0 time=80
note_on channel=0 note=85 velocity=0 time=0
note_on channel=0 note=91 velocity=0 time=0
note_on channel=0 note=81 velocity=0 time=0
note_on channel=0 note=52 velocity=33 time=0
note_on channel=0 note=52 velocity=0 time=85
note_on channel=0 note=81 velocity=50 time=0
note_on channel=0 note=84 velocity=50 time=0
note_on channel=0 note=90 velocity=59 time=0
note_on channel=0 note=38 velocity=43 time=0
note_on channel=0 note=38 velocity=0 time=63
note_on channel=0 note=81 velocity=0 time=0
note_on channel=0 note=84 velocity=0 time=0
note_on channel=0 note=90 velocity=0 time=0
note_on channel=0 note=50 velocity=34 time=0
note_on channel=0 note=50 velocity=0 time=0
note_on channel=0 note=81 velocity=45 time=0
note_on channel=0 note=93 velocity=53 time=0
note_on channel=0 note=84 velocity=45 time=0
note_on channel=0 note=38 velocity=43 time=0
note_on channel=0 note=38 velocity=0 time=51
note_on channel=0 note=81 velocity=0 time=0
note_on channel=0 note=93 velocity=0 time=0
note_on channel=0 note=84 velocity=0 time=0
note_on channel=0 note=50 velocity=35 time=0
note_on channel=0 note=50 velocity=0 time=0
note_on channel=0 note=79 velocity=55 time=0
note_on channel=0 note=83 velocity=55 time=0
note_on channel=0 note=91 velocity=64 time=0
note_on channel=0 note=38 velocity=47 time=0
note_on channel=0 note=38 velocity=0 time=70
note_on channel=0 note=79 velocity=0 time=0
note_on channel=0 note=83 velocity=0 time=0
note_on channel=0 note=91 velocity=0 time=0
note_on channel=0 note=50 velocity=36 time=0
note_on channel=0 note=50 velocity=0 time=120
note_on channel=0 note=86 velocity=59 time=0
note_on channel=0 note=74 velocity=50 time=0
note_on channel=0 note=83 velocity=50 time=0
note_on channel=0 note=43 velocity=48 time=0
note_on channel=0 note=43 velocity=0 time=120
note_on channel=0 note=86 velocity=0 time=0
note_on channel=0 note=74 velocity=0 time=0
note_on channel=0 note=83 velocity=0 time=0
note_on channel=0 note=55 velocity=37 time=0
note_on channel=0 note=55 velocity=0 time=120
note_on channel=0 note=90 velocity=69 time=0
note_on channel=0 note=84 velocity=58 time=0
note_on channel=0 note=78 velocity=58 time=0
note_on channel=0 note=38 velocity=50 time=0
note_on channel=0 note=38 velocity=0 time=120
note_on channel=0 note=90 velocity=0 time=0
note_on channel=0 note=84 velocity=0 time=0
note_on channel=0 note=78 velocity=0 time=0
note_on channel=0 note=50 velocity=40 time=0
note_on channel=0 note=50 velocity=0 time=0
note_on channel=0 note=84 velocity=55 time=0
note_on channel=0 note=93 velocity=65 time=0
note_on channel=0 note=90 velocity=55 time=0
note_on channel=0 note=81 velocity=55 time=0
note_on channel=0 note=50 velocity=53 time=0
note_on channel=0 note=50 velocity=0 time=106
note_on channel=0 note=90 velocity=0 time=0
note_on channel=0 note=84 velocity=0 time=0
note_on channel=0 note=93 velocity=0 time=0
note_on channel=0 note=81 velocity=0 time=0
note_on channel=0 note=62 velocity=44 time=0
note_on channel=0 note=62 velocity=0 time=0
note_on channel=0 note=79 velocity=63 time=0
note_on channel=0 note=91 velocity=75 time=0
note_on channel=0 note=83 velocity=63 time=0
note_on channel=0 note=38 velocity=54 time=0
note_on channel=0 note=38 velocity=0 time=14
note_on channel=0 note=79 velocity=0 time=0
note_on channel=0 note=91 velocity=0 time=0
note_on channel=0 note=83 velocity=0 time=0
note_on channel=0 note=50 velocity=42 time=0
note_on channel=0 note=50 velocity=0 time=120
note_on channel=0 note=74 velocity=59 time=0
note_on channel=0 note=83 velocity=59 time=0
note_on channel=0 note=86 velocity=69 time=0
note_on channel=0 note=43 velocity=57 time=0
note_on channel=0 note=43 velocity=0 time=120
note_on channel=0 note=74 velocity=0 time=0
note_on channel=0 note=83 velocity=0 time=0
note_on channel=0 note=86 velocity=0 time=0
note_on channel=0 note=55 velocity=44 time=0
note_on channel=0 note=55 velocity=0 time=120
note_on channel=0 note=84 velocity=69 time=0
note_on channel=0 note=78 velocity=69 time=0
note_on channel=0 note=90 velocity=80 time=0
note_on channel=0 note=38 velocity=58 time=0
note_on channel=0 note=38 velocity=0 time=120
note_on channel=0 note=84 velocity=0 time=0
note_on channel=0 note=78 velocity=0 time=0
note_on channel=0 note=90 velocity=0 time=0
note_on channel=0 note=50 velocity=47 time=0
note_on channel=0 note=50 velocity=0 time=0
note_on channel=0 note=90 velocity=64 time=0
note_on channel=0 note=93 velocity=76 time=0
note_on channel=0 note=84 velocity=64 time=0
note_on channel=0 note=81 velocity=64 time=0
note_on channel=0 note=50 velocity=61 time=0
note_on channel=0 note=50 velocity=0 time=21
note_on channel=0 note=84 velocity=0 time=0
note_on channel=0 note=90 velocity=0 time=0
note_on channel=0 note=93 velocity=0 time=0
note_on channel=0 note=81 velocity=0 time=0
note_on channel=0 note=62 velocity=51 time=0
note_on channel=0 note=62 velocity=0 time=0
note_on channel=0 note=79 velocity=77 time=0
note_on channel=0 note=43 velocity=59 time=0
note_on channel=0 note=43 velocity=0 time=93
note_on channel=0 note=79 velocity=0 time=0
note_on channel=0 note=91 velocity=70 time=0
note_on channel=0 note=55 velocity=50 time=0
note_on channel=0 note=55 velocity=0 time=99
note_on channel=0 note=91 velocity=0 time=0
note_on channel=0 note=74 velocity=79 time=0
note_on channel=0 note=38 velocity=61 time=0
note_on channel=0 note=38 velocity=0 time=120
note_on channel=0 note=74 velocity=0 time=0
note_on channel=0 note=86 velocity=73 time=0
note_on channel=0 note=50 velocity=51 time=0
note_on channel=0 note=50 velocity=0 time=120
note_on channel=0 note=86 velocity=0 time=0
note_on channel=0 note=78 velocity=82 time=0
note_on channel=0 note=42 velocity=64 time=0
note_on channel=0 note=42 velocity=0 time=42
note_on channel=0 note=78 velocity=0 time=0
note_on channel=0 note=90 velocity=76 time=0
note_on channel=0 note=54 velocity=55 time=0
note_on channel=0 note=54 velocity=0 time=120
note_on channel=0 note=90 velocity=0 time=0
note_on channel=0 note=81 velocity=85 time=0
note_on channel=0 note=45 velocity=67 time=0
note_on channel=0 note=45 velocity=0 time=0
note_on channel=0 note=81 velocity=0 time=0
note_on channel=0 note=93 velocity=79 time=0
note_on channel=0 note=57 velocity=58 time=0
note_on channel=0 note=57 velocity=0 time=0
note_on channel=0 note=93 velocity=0 time=0
note_on channel=0 note=79 velocity=88 time=0
note_on channel=0 note=43 velocity=68 time=0
note_on channel=0 note=43 velocity=0 time=35
note_on channel=0 note=79 velocity=0 time=0
note_on channel=0 note=91 velocity=82 time=0
note_on channel=0 note=55 velocity=63 time=0
note_on channel=0 note=55 velocity=0 time=120
note_on channel=0 note=91 velocity=0 time=0
note_on channel=0 note=74 velocity=91 time=0
note_on channel=0 note=38 velocity=71 time=0
note_on channel=0 note=38 velocity=0 time=120
note_on channel=0 note=74 velocity=0 time=0
note_on channel=0 note=86 velocity=86 time=0
note_on channel=0 note=50 velocity=63 time=0
note_on channel=0 note=50 velocity=0 time=120
note_on channel=0 note=86 velocity=0 time=0
note_on channel=0 note=78 velocity=94 time=0
note_on channel=0 note=30 velocity=74 time=0
note_on channel=0 note=30 velocity=0 time=111
note_on channel=0 note=78 velocity=0 time=0
note_on channel=0 note=90 velocity=90 time=0
note_on channel=0 note=42 velocity=64 time=0
note_on channel=0 note=42 velocity=0 time=120
note_on channel=0 note=90 velocity=0 time=0
note_on channel=0 note=81 velocity=99 time=0
note_on channel=0 note=33 velocity=76 time=0
note_on channel=0 note=33 velocity=0 time=0
note_on channel=0 note=81 velocity=0 time=0
note_on channel=0 note=93 velocity=92 time=0
note_on channel=0 note=45 velocity=67 time=0
note_on channel=0 note=45 velocity=0 time=0
note_on channel=0 note=93 velocity=0 time=0
note_on channel=0 note=79 velocity=91 time=0
note_on channel=0 note=91 velocity=110 time=0
note_on channel=0 note=43 velocity=81 time=0
note_on channel=0 note=31 velocity=69 time=0
note_on channel=0 note=31 velocity=0 time=180
note_on channel=0 note=79 velocity=0 time=0
note_on channel=0 note=91 velocity=0 time=0
note_on channel=0 note=43 velocity=0 time=0
note_on channel=0 note=81 velocity=94 time=0
note_on channel=0 note=93 velocity=112 time=0
note_on channel=0 note=33 velocity=69 time=0
note_on channel=0 note=45 velocity=81 time=0
note_on channel=0 note=45 velocity=0 time=180
note_on channel=0 note=81 velocity=0 time=0
note_on channel=0 note=93 velocity=0 time=0
note_on channel=0 note=33 velocity=0 time=0
note_on channel=0 note=83 velocity=99 time=0
note_on channel=0 note=95 velocity=118 time=0
note_on channel=0 note=35 velocity=72 time=0
note_on channel=0 note=47 velocity=86 time=0
note_on channel=0 note=47 velocity=0 time=0
note_on channel=0 note=83 velocity=0 time=0
note_on channel=0 note=95 velocity=0 time=0
note_on channel=0 note=35 velocity=0 time=0
note_on channel=0 note=83 velocity=91 time=0
note_on channel=0 note=95 velocity=110 time=0
note_on channel=0 note=47 velocity=81 time=0
note_on channel=0 note=35 velocity=69 time=0
note_on channel=0 note=35 velocity=0 time=180
note_on channel=0 note=83 velocity=0 time=0
note_on channel=0 note=95 velocity=0 time=0
note_on channel=0 note=47 velocity=0 time=0
note_on channel=0 note=84 velocity=94 time=0
note_on channel=0 note=96 velocity=112 time=0
note_on channel=0 note=48 velocity=81 time=0
note_on channel=0 note=36 velocity=69 time=0
note_on channel=0 note=36 velocity=0 time=180
note_on channel=0 note=84 velocity=0 time=0
note_on channel=0 note=96 velocity=0 time=0
note_on channel=0 note=48 velocity=0 time=0
note_on channel=0 note=86 velocity=99 time=300
note_on channel=0 note=98 velocity=118 time=0
note_on channel=0 note=50 velocity=86 time=0
note_on channel=0 note=38 velocity=72 time=0
note_on channel=0 note=38 velocity=0 time=0
note_on channel=0 note=86 velocity=0 time=0
note_on channel=0 note=98 velocity=0 time=0
note_on channel=0 note=50 velocity=0 time=0
note_on channel=0 note=74 velocity=43 time=0
note_on channel=0 note=79 velocity=43 time=0
note_on channel=0 note=86 velocity=51 time=0
note_on channel=0 note=71 velocity=39 time=0
note_on channel=0 note=86 velocity=0 time=53
note_on channel=0 note=74 velocity=0 time=0
note_on channel=0 note=79 velocity=0 time=0
note_on channel=0 note=71 velocity=0 time=60
note_on channel=0 note=67 velocity=33 time=0
note_on channel=0 note=67 velocity=0 time=120
note_on channel=0 note=86 velocity=46 time=0
note_on channel=0 note=79 velocity=39 time=0
note_on channel=0 note=74 velocity=39 time=0
note_on channel=0 note=71 velocity=39 time=0
note_on channel=0 note=71 velocity=0 time=97
note_on channel=0 note=67 velocity=33 time=0
note_on channel=0 note=67 velocity=0 time=0
note_on channel=0 note=71 velocity=39 time=0
note_on channel=0 note=71 velocity=0 time=120
note_on channel=0 note=67 velocity=34 time=0
note_on channel=0 note=67 velocity=0 time=0
note_on channel=0 note=74 velocity=0 time=0
note_on channel=0 note=79 velocity=0 time=0
note_on channel=0 note=86 velocity=0 time=0
note_on channel=0 note=79 velocity=39 time=0
note_on channel=0 note=75 velocity=39 time=0
note_on channel=0 note=84 velocity=46 time=0
note_on channel=0 note=72 velocity=39 time=0
note_on channel=0 note=72 velocity=0 time=28
note_on channel=0 note=79 velocity=0 time=0
note_on channel=0 note=75 velocity=0 time=0
note_on channel=0 note=84 velocity=0 time=0
note_on channel=0 note=67 velocity=34 time=0
note_on channel=0 note=67 velocity=0 time=0
note_on channel=0 note=83 velocity=47 time=0
note_on channel=0 note=77 velocity=40 time=0
note_on channel=0 note=79 velocity=40 time=0
note_on channel=0 note=74 velocity=39 time=0
note_on channel=0 note=74 velocity=0 time=12
note_on channel=0 note=83 velocity=0 time=0
note_on channel=0 note=77 velocity=0 time=0
note_on channel=0 note=79 velocity=0 time=0
note_on channel=0 note=67 velocity=34 time=0
note_on channel=0 note=67 velocity=0 time=0
note_on channel=0 note=84 velocity=49 time=0
note_on channel=0 note=79 velocity=42 time=0
note_on channel=0 note=75 velocity=42 time=0
note_on channel=0 note=72 velocity=39 time=0
note_on channel=0 note=72 velocity=0 time=57
note_on channel=0 note=84 velocity=0 time=0
note_on channel=0 note=79 velocity=0 time=0
note_on channel=0 note=75 velocity=0 time=0
note_on channel=0 note=67 velocity=34 time=0
note_on channel=0 note=67 velocity=0 time=110
note_on channel=0 note=74 velocity=41 time=0
note_on channel=0 note=86 velocity=49 time=0
note_on channel=0 note=79 velocity=41 time=0
note_on channel=0 note=71 velocity=39 time=0
note_on channel=0 note=71 velocity=0 time=57
note_on channel=0 note=74 velocity=0 time=0
note_on channel=0 note=86 velocity=0 time=0
note_on channel=0 note=79 velocity=0 time=0
note_on channel=0 note=67 velocity=35 time=0
note_on channel=0 note=67 velocity=0 time=0
note_on channel=0 note=79 velocity=34 time=0
note_on channel=0 note=77 velocity=34 time=0
note_on channel=0 note=83 velocity=41 time=0
note_on channel=0 note=74 velocity=27 time=0
note_on channel=0 note=74 velocity=0 time=45
note_on channel=0 note=79 velocity=0 time=0
note_on channel=0 note=77 velocity=0 time=0
note_on channel=0 note=83 velocity=0 time=0
note_on channel=0 note=67 velocity=20 time=0
note_on channel=0 note=67 velocity=0 time=0
note_on channel=0 note=79 velocity=43 time=0
note_on channel=0 note=75 velocity=43 time=0
note_on channel=0 note=87 velocity=51 time=0
note_on channel=0 note=72 velocity=39 time=0
note_on channel=0 note=87 velocity=0 time=53
note_on channel=0 note=79 velocity=0 time=0
note_on channel=0 note=75 velocity=0 time=0
note_on channel=0 note=72 velocity=0 time=60
note_on channel=0 note=67 velocity=33 time=0
note_on channel=0 note=67 velocity=0 time=120
note_on channel=0 note=79 velocity=39 time=0
note_on channel=0 note=75 velocity=39 time=0
note_on channel=0 note=87 velocity=46 time=0
note_on channel=0 note=72 velocity=39 time=0
note_on channel=0 note=72 velocity=0 time=97
note_on channel=0 note=67 velocity=33 time=0
note_on channel=0 note=67 velocity=0 time=0
note_on channel=0 note=72 velocity=39 time=0
note_on channel=0 note=72 velocity=0 time=120
note_on channel=0 note=67 velocity=34 time=0
note_on channel=0 note=67 velocity=0 time=0
note_on channel=0 note=87 velocity=0 time=0
note_on channel=0 note=75 velocity=0 time=0
note_on channel=0 note=79 velocity=0 time=0
note_on channel=0 note=77 velocity=39 time=0
note_on channel=0 note=79 velocity=39 time=0
note_on channel=0 note=86 velocity=46 time=0
note_on channel=0 note=74 velocity=39 time=0
note_on channel=0 note=71 velocity=39 time=0
note_on channel=0 note=71 velocity=0 time=28
note_on channel=0 note=86 velocity=0 time=0
note_on channel=0 note=77 velocity=0 time=0
note_on channel=0 note=79 velocity=0 time=0
note_on channel=0 note=74 velocity=0 time=0
note_on channel=0 note=67 velocity=34 time=0
note_on channel=0 note=67 velocity=0 time=0
note_on channel=0 note=75 velocity=40 time=0
note_on channel=0 note=79 velocity=40 time=0
note_on channel=0 note=84 velocity=47 time=0
note_on channel=0 note=72 velocity=39 time=0
note_on channel=0 note=72 velocity=0 time=12
note_on channel=0 note=75 velocity=0 time=0
note_on channel=0 note=79 velocity=0 time=0
note_on channel=0 note=84 velocity=0 time=0
note_on channel=0 note=67 velocity=34 time=0
note_on channel=0 note=67 velocity=0 time=120
note_on channel=0 note=77 velocity=42 time=0
note_on channel=0 note=74 velocity=42 time=0
note_on channel=0 note=79 velocity=42 time=0
note_on channel=0 note=86 velocity=49 time=0
note_on channel=0 note=71 velocity=39 time=0
note_on channel=0 note=71 velocity=0 time=57
note_on channel=0 note=79 velocity=0 time=0
note_on channel=0 note=77 velocity=0 time=0
note_on channel=0 note=74 velocity=0 time=0
note_on channel=0 note=86 velocity=0 time=0
note_on channel=0 note=67 velocity=34 time=0
note_on channel=0 note=67 velocity=0 time=110
note_on channel=0 note=87 velocity=49 time=0
note_on channel=0 note=75 velocity=41 time=0
note_on channel=0 note=79 velocity=41 time=0
note_on channel=0 note=72 velocity=39 time=0
note_on channel=0 note=72 velocity=0 time=57
note_on channel=0 note=87 velocity=0 time=0
note_on channel=0 note=75 velocity=0 time=0
note_on channel=0 note=79 velocity=0 time=0
note_on channel=0 note=67 velocity=35 time=0
note_on channel=0 note=67 velocity=0 time=0
note_on channel=0 note=84 velocity=41 time=0
note_on channel=0 note=79 velocity=34 time=0
note_on channel=0 note=75 velocity=34 time=0
note_on channel=0 note=72 velocity=27 time=0
note_on channel=0 note=72 velocity=0 time=45
note_on channel=0 note=84 velocity=0 time=0
note_on channel=0 note=79 velocity=0 time=0
note_on channel=0 note=75 velocity=0 time=0
note_on channel=0 note=60 velocity=20 time=0
note_on channel=0 note=60 velocity=0 time=0
note_on channel=0 note=80 velocity=47 time=0
note_on channel=0 note=89 velocity=56 time=0
note_on channel=0 note=77 velocity=47 time=0
note_on channel=0 note=70 velocity=42 time=0
note_on channel=0 note=77 velocity=0 time=53
note_on channel=0 note=80 velocity=0 time=0
note_on channel=0 note=89 velocity=0 time=0
note_on channel=0 note=70 velocity=0 time=60
note_on channel=0 note=58 velocity=36 time=0
note_on channel=0 note=58 velocity=0 time=120
note_on channel=0 note=80 velocity=44 time=0
note_on channel=0 note=77 velocity=44 time=0
note_on channel=0 note=89 velocity=52 time=0
note_on channel=0 note=62 velocity=44 time=0
note_on channel=0 note=70 velocity=44 time=0
note_on channel=0 note=70 velocity=0 time=97
note_on channel=0 note=62 velocity=0 time=0
note_on channel=0 note=58 velocity=38 time=0
note_on channel=0 note=58 velocity=0 time=0
note_on channel=0 note=70 velocity=46 time=0
note_on channel=0 note=62 velocity=46 time=0
note_on channel=0 note=62 velocity=0 time=120
note_on channel=0 note=70 velocity=0 time=0
note_on channel=0 note=58 velocity=41 time=0
note_on channel=0 note=58 velocity=0 time=0
note_on channel=0 note=89 velocity=0 time=0
note_on channel=0 note=77 velocity=0 time=0
note_on channel=0 note=80 velocity=0 time=0
note_on channel=0 note=79 velocity=48 time=0
note_on channel=0 note=75 velocity=48 time=0
note_on channel=0 note=87 velocity=57 time=0
note_on channel=0 note=70 velocity=48 time=0
note_on channel=0 note=63 velocity=48 time=0
note_on channel=0 note=63 velocity=0 time=28
note_on channel=0 note=87 velocity=0 time=0
note_on channel=0 note=79 velocity=0 time=0
note_on channel=0 note=75 velocity=0 time=0
note_on channel=0 note=70 velocity=0 time=0
note_on channel=0 note=58 velocity=43 time=0
note_on channel=0 note=58 velocity=0 time=0
note_on channel=0 note=86 velocity=61 time=0
note_on channel=0 note=77 velocity=52 time=0
note_on channel=0 note=74 velocity=52 time=0
note_on channel=0 note=65 velocity=50 time=0
note_on channel=0 note=70 velocity=50 time=0
note_on channel=0 note=70 velocity=0 time=12
note_on channel=0 note=74 velocity=0 time=0
note_on channel=0 note=86 velocity=0 time=0
note_on channel=0 note=77 velocity=0 time=0
note_on channel=0 note=65 velocity=0 time=0
note_on channel=0 note=58 velocity=44 time=0
note_on channel=0 note=58 velocity=0 time=120
note_on channel=0 note=87 velocity=66 time=0
note_on channel=0 note=79 velocity=56 time=0
note_on channel=0 note=75 velocity=56 time=0
note_on channel=0 note=70 velocity=52 time=0
note_on channel=0 note=63 velocity=52 time=0
note_on channel=0 note=63 velocity=0 time=57
note_on channel=0 note=75 velocity=0 time=0
note_on channel=0 note=87 velocity=0 time=0
note_on channel=0 note=79 velocity=0 time=0
note_on channel=0 note=70 velocity=0 time=0
note_on channel=0 note=58 velocity=46 time=0
note_on channel=0 note=58 velocity=0 time=110
note_on channel=0 note=80 velocity=57 time=0
note_on channel=0 note=77 velocity=57 time=0
note_on channel=0 note=89 velocity=68 time=0
note_on channel=0 note=70 velocity=54 time=0
note_on channel=0 note=62 velocity=54 time=0
note_on channel=0 note=62 velocity=0 time=57
note_on channel=0 note=89 velocity=0 time=0
note_on channel=0 note=80 velocity=0 time=0
note_on channel=0 note=77 velocity=0 time=0
note_on channel=0 note=70 velocity=0 time=0
note_on channel=0 note=58 velocity=49 time=0
note_on channel=0 note=58 velocity=0 time=0
note_on channel=0 note=86 velocity=67 time=0
note_on channel=0 note=82 velocity=56 time=0
note_on channel=0 note=74 velocity=56 time=0
note_on channel=0 note=77 velocity=56 time=0
note_on channel=0 note=44 velocity=44 time=0
note_on channel=0 note=44 velocity=0 time=45
note_on channel=0 note=74 velocity=0 time=0
note_on channel=0 note=86 velocity=0 time=0
note_on channel=0 note=82 velocity=0 time=0
note_on channel=0 note=77 velocity=0 time=0
note_on channel=0 note=56 velocity=33 time=0
note_on channel=0 note=56 velocity=0 time=0
note_on channel=0 note=91 velocity=105 time=0
note_on channel=0 note=79 velocity=87 time=0
note_on channel=0 note=87 velocity=87 time=0
note_on channel=0 note=43 velocity=77 time=0
note_on channel=0 note=43 velocity=0 time=60
note_on channel=0 note=55 velocity=70 time=0
note_on channel=0 note=91 velocity=0 time=60
note_on channel=0 note=87 velocity=0 time=0
note_on channel=0 note=79 velocity=0 time=0
note_on channel=0 note=55 velocity=0 time=54
note_on channel=0 note=55 velocity=70 time=6
note_on channel=0 note=55 velocity=0 time=120
note_on channel=0 note=67 velocity=70 time=0
note_on channel=0 note=67 velocity=0 time=0
note_on channel=0 note=92 velocity=107 time=0
note_on channel=0 note=80 velocity=90 time=0
note_on channel=0 note=89 velocity=90 time=0
note_on channel=0 note=41 velocity=77 time=0
note_on channel=0 note=41 velocity=0 time=46
note_on channel=0 note=53 velocity=69 time=0
note_on channel=0 note=92 velocity=0 time=60
note_on channel=0 note=89 velocity=0 time=0
note_on channel=0 note=80 velocity=0 time=0
note_on channel=0 note=53 velocity=0 time=54
note_on channel=0 note=53 velocity=69 time=6
note_on channel=0 note=53 velocity=0 time=0
note_on channel=0 note=65 velocity=69 time=0
note_on channel=0 note=65 velocity=0 time=0
note_on channel=0 note=94 velocity=113 time=0
note_on channel=0 note=82 velocity=94 time=0
note_on channel=0 note=91 velocity=94 time=0
note_on channel=0 note=39 velocity=85 time=0
note_on channel=0 note=39 velocity=0 time=116
note_on channel=0 note=51 velocity=67 time=0
note_on channel=0 note=51 velocity=0 time=93
note_on channel=0 note=63 velocity=82 time=6
note_on channel=0 note=51 velocity=69 time=0
note_on channel=0 note=51 velocity=0 time=0
note_on channel=0 note=91 velocity=0 time=0
note_on channel=0 note=94 velocity=0 time=0
note_on channel=0 note=82 velocity=0 time=0
note_on channel=0 note=63 velocity=0 time=0
note_on channel=0 note=67 velocity=50 time=0
note_on channel=0 note=63 velocity=42 time=0
note_on channel=0 note=63 velocity=0 time=60
note_on channel=0 note=67 velocity=0 time=0
note_on channel=0 note=55 velocity=40 time=60
note_on channel=0 note=55 velocity=0 time=0
note_on channel=0 note=58 velocity=35 time=0
note_on channel=0 note=58 velocity=0 time=0
note_on channel=0 note=68 velocity=52 time=0
note_on channel=0 note=65 velocity=44 time=0
note_on channel=0 note=65 velocity=0 time=60
note_on channel=0 note=68 velocity=0 time=0
note_on channel=0 note=53 velocity=40 time=60
note_on channel=0 note=53 velocity=0 time=0
note_on channel=0 note=56 velocity=34 time=0
note_on channel=0 note=56 velocity=0 time=0
note_on channel=0 note=70 velocity=53 time=0
note_on channel=0 note=67 velocity=45 time=0
note_on channel=0 note=55 velocity=40 time=0
note_on channel=0 note=55 velocity=0 time=600
note_on channel=0 note=67 velocity=0 time=0
note_on channel=0 note=70 velocity=0 time=0
note_on channel=0 note=51 velocity=93 time=0
note_on channel=0 note=51 velocity=0 time=0
note_on channel=0 note=63 velocity=90 time=0
note_on channel=0 note=63 velocity=0 time=357
note_on channel=0 note=63 velocity=61 time=3
note_on channel=0 note=63 velocity=0 time=117
note_on channel=0 note=63 velocity=66 time=3
note_on channel=0 note=63 velocity=0 time=240
note_on channel=0 note=51 velocity=57 time=1080
note_on channel=0 note=55 velocity=91 time=0
note_on channel=0 note=55 velocity=0 time=120
note_on channel=0 note=51 velocity=0 time=0
note_on channel=0 note=63 velocity=77 time=0
note_on channel=0 note=67 velocity=80 time=0
note_on channel=0 note=67 velocity=0 time=357
note_on channel=0 note=63 velocity=0 time=0
note_on channel=0 note=63 velocity=56 time=3
note_on channel=0 note=67 velocity=63 time=0
note_on channel=0 note=67 velocity=0 time=117
note_on channel=0 note=63 velocity=0 time=1
note_on channel=0 note=63 velocity=63 time=2
note_on channel=0 note=67 velocity=69 time=0
note_on channel=0 note=67 velocity=0 time=240
note_on channel=0 note=63 velocity=0 time=0
note_on channel=0 note=46 velocity=40 time=106
note_on channel=0 note=46 velocity=0 time=120
note_on channel=0 note=51 velocity=44 time=0
note_on channel=0 note=51 velocity=0 time=358
note_on channel=0 note=51 velocity=40 time=2
note_on channel=0 note=51 velocity=0 time=118
note_on channel=0 note=51 velocity=43 time=2
note_on channel=0 note=51 velocity=0 time=0
note_on channel=0 note=53 velocity=44 time=0
note_on channel=0 note=53 velocity=0 time=90
note_on channel=0 note=51 velocity=40 time=0
note_on channel=0 note=39 velocity=40 time=0
note_on channel=0 note=51 velocity=0 time=90
note_on channel=0 note=39 velocity=0 time=0
note_on channel=0 note=51 velocity=44 time=0
note_on channel=0 note=44 velocity=44 time=0
note_on channel=0 note=51 velocity=0 time=90
note_on channel=0 note=48 velocity=39 time=150
note_on channel=0 note=48 velocity=0 time=90
note_on channel=0 note=44 velocity=0 time=28
note_on channel=0 note=44 velocity=40 time=2
note_on channel=0 note=44 velocity=0 time=118
note_on channel=0 note=48 velocity=39 time=2
note_on channel=0 note=44 velocity=43 time=0
note_on channel=0 note=44 velocity=0 time=0
note_on channel=0 note=46 velocity=44 time=0
note_on channel=0 note=46 velocity=0 time=90
note_on channel=0 note=44 velocity=40 time=0
note_on channel=0 note=44 velocity=0 time=90
note_on channel=0 note=48 velocity=0 time=0
note_on channel=0 note=56 velocity=47 time=0
note_on channel=0 note=44 velocity=44 time=0
note_on channel=0 note=44 velocity=0 time=68
note_on channel=0 note=56 velocity=0 time=22
note_on channel=0 note=56 velocity=42 time=0
note_on channel=0 note=41 velocity=39 time=0
note_on channel=0 note=41 velocity=0 time=90
note_on channel=0 note=56 velocity=0 time=0
note_on channel=0 note=55 velocity=42 time=0
note_on channel=0 note=55 velocity=0 time=90
note_on channel=0 note=53 velocity=47 time=0
note_on channel=0 note=41 velocity=39 time=0
note_on channel=0 note=53 velocity=0 time=120
note_on channel=0 note=53 velocity=44 time=0
note_on channel=0 note=53 velocity=0 time=90
note_on channel=0 note=51 velocity=44 time=0
note_on channel=0 note=51 velocity=0 time=90
note_on channel=0 note=41 velocity=0 time=0
note_on channel=0 note=50 velocity=47 time=0
note_on channel=0 note=46 velocity=44 time=0
note_on channel=0 note=46 velocity=0 time=90
note_on channel=0 note=50 velocity=0 time=0
note_on channel=0 note=46 velocity=44 time=0
note_on channel=0 note=46 velocity=0 time=90
note_on channel=0 note=44 velocity=44 time=0
note_on channel=0 note=44 velocity=0 time=90
note_on channel=0 note=50 velocity=39 time=0
note_on channel=0 note=43 velocity=44 time=0
note_on channel=0 note=43 velocity=0 time=120
note_on channel=0 note=43 velocity=44 time=0
note_on channel=0 note=43 velocity=0 time=90
note_on channel=0 note=41 velocity=44 time=0
note_on channel=0 note=41 velocity=0 time=90
note_on channel=0 note=50 velocity=0 time=0
note_on channel=0 note=58 velocity=50 time=0
note_on channel=0 note=40 velocity=44 time=0
note_on channel=0 note=58 velocity=0 time=90
note_on channel=0 note=40 velocity=0 time=0
note_on channel=0 note=58 velocity=44 time=0
note_on channel=0 note=58 velocity=0 time=90
note_on channel=0 note=56 velocity=44 time=0
note_on channel=0 note=56 velocity=0 time=90
note_on channel=0 note=55 velocity=48 time=0
note_on channel=0 note=40 velocity=39 time=0
note_on channel=0 note=55 velocity=0 time=0
note_on channel=0 note=55 velocity=44 time=0
note_on channel=0 note=55 velocity=0 time=90
note_on channel=0 note=53 velocity=44 time=30
note_on channel=0 note=53 velocity=0 time=90
note_on channel=0 note=40 velocity=0 time=30
note_on channel=0 note=52 velocity=48 time=0
note_on channel=0 note=48 velocity=44 time=0
note_on channel=0 note=48 velocity=0 time=90
note_on channel=0 note=52 velocity=0 time=0
note_on channel=0 note=48 velocity=44 time=0
note_on channel=0 note=48 velocity=0 time=90
note_on channel=0 note=46 velocity=44 time=0
note_on channel=0 note=46 velocity=0 time=90
note_on channel=0 note=52 velocity=39 time=0
note_on channel=0 note=44 velocity=44 time=0
note_on channel=0 note=44 velocity=0 time=0
note_on channel=0 note=44 velocity=44 time=0
note_on channel=0 note=44 velocity=0 time=90
note_on channel=0 note=43 velocity=44 time=30
note_on channel=0 note=43 velocity=0 time=90
note_on channel=0 note=52 velocity=0 time=30
note_on channel=0 note=60 velocity=48 time=0
note_on channel=0 note=41 velocity=44 time=0
note_on channel=0 note=60 velocity=0 time=90
note_on channel=0 note=41 velocity=0 time=0
note_on channel=0 note=60 velocity=44 time=0
note_on channel=0 note=60 velocity=0 time=90
note_on channel=0 note=58 velocity=44 time=0
note_on channel=0 note=48 velocity=37 time=0
note_on channel=0 note=48 velocity=0 time=90
note_on channel=0 note=58 velocity=0 time=0
note_on channel=0 note=56 velocity=49 time=0
note_on channel=0 note=53 velocity=37 time=0
note_on channel=0 note=53 velocity=0 time=0
note_on channel=0 note=56 velocity=0 time=0
note_on channel=0 note=56 velocity=45 time=0
note_on channel=0 note=53 velocity=38 time=0
note_on channel=0 note=53 velocity=0 time=90
note_on channel=0 note=56 velocity=0 time=0
note_on channel=0 note=55 velocity=46 time=30
note_on channel=0 note=51 velocity=38 time=0
note_on channel=0 note=51 velocity=0 time=90
note_on channel=0 note=55 velocity=0 time=0
note_on channel=0 note=53 velocity=50 time=30
note_on channel=0 note=50 velocity=46 time=0
note_on channel=0 note=50 velocity=0 time=90
note_on channel=0 note=53 velocity=0 time=0
note_on channel=0 note=53 velocity=47 time=0
note_on channel=0 note=50 velocity=39 time=0
note_on channel=0 note=50 velocity=0 time=90
note_on channel=0 note=53 velocity=0 time=0
note_on channel=0 note=55 velocity=47 time=0
note_on channel=0 note=48 velocity=39 time=0
note_on channel=0 note=48 velocity=0 time=90
note_on channel=0 note=55 velocity=0 time=0
note_on channel=0 note=56 velocity=51 time=0
note_on channel=0 note=46 velocity=39 time=0
note_on channel=0 note=46 velocity=0 time=0
note_on channel=0 note=56 velocity=0 time=0
note_on channel=0 note=56 velocity=48 time=0
note_on channel=0 note=48 velocity=40 time=0
note_on channel=0 note=48 velocity=0 time=90
note_on channel=0 note=56 velocity=0 time=0
note_on channel=0 note=58 velocity=48 time=30
note_on channel=0 note=50 velocity=40 time=0
note_on channel=0 note=50 velocity=0 time=90
note_on channel=0 note=58 velocity=0 time=0
note_on channel=0 note=55 velocity=51 time=0
note_on channel=0 note=51 velocity=48 time=0
note_on channel=0 note=51 velocity=0 time=120
note_on channel=0 note=55 velocity=0 time=0
note_on channel=0 note=55 velocity=49 time=0
note_on channel=0 note=43 velocity=41 time=0
note_on channel=0 note=55 velocity=0 time=90
note_on channel=0 note=53 velocity=49 time=0
note_on channel=0 note=53 velocity=0 time=90
note_on channel=0 note=43 velocity=0 time=0
note_on channel=0 note=51 velocity=55 time=0
note_on channel=0 note=45 velocity=42 time=0
note_on channel=0 note=45 velocity=0 time=240
note_on channel=0 note=51 velocity=0 time=0
note_on channel=0 note=48 velocity=42 time=0
note_on channel=0 note=53 velocity=47 time=0
note_on channel=0 note=53 velocity=0 time=0
note_on channel=0 note=65 velocity=46 time=0
note_on channel=0 note=51 velocity=47 time=0
note_on channel=0 note=51 velocity=0 time=120
note_on channel=0 note=65 velocity=0 time=0
note_on channel=0 note=48 velocity=0 time=0
note_on channel=0 note=70 velocity=56 time=0
note_on channel=0 note=46 velocity=51 time=0
note_on channel=0 note=50 velocity=43 time=0
note_on channel=0 note=46 velocity=0 time=90
note_on channel=0 note=50 velocity=0 time=99
note_on channel=0 note=46 velocity=43 time=0
note_on channel=0 note=46 velocity=0 time=90
note_on channel=0 note=70 velocity=0 time=28
note_on channel=0 note=70 velocity=47 time=2
note_on channel=0 note=48 velocity=44 time=0
note_on channel=0 note=48 velocity=0 time=90
note_on channel=0 note=70 velocity=0 time=12
note_on channel=0 note=70 velocity=55 time=2
note_on channel=0 note=50 velocity=44 time=0
note_on channel=0 note=50 velocity=0 time=120
note_on channel=0 note=70 velocity=0 time=0
note_on channel=0 note=72 velocity=53 time=0
note_on channel=0 note=51 velocity=44 time=0
note_on channel=0 note=51 velocity=0 time=19
note_on channel=0 note=72 velocity=0 time=0
note_on channel=0 note=70 velocity=48 time=0
note_on channel=0 note=58 velocity=48 time=0
note_on channel=0 note=53 velocity=45 time=0
note_on channel=0 note=53 velocity=0 time=90
note_on channel=0 note=70 velocity=0 time=0
note_on channel=0 note=58 velocity=0 time=0
note_on channel=0 note=70 velocity=57 time=0
note_on channel=0 note=51 velocity=54 time=0
note_on channel=0 note=63 velocity=54 time=0
note_on channel=0 note=70 velocity=0 time=90
note_on channel=0 note=51 velocity=0 time=30
note_on channel=0 note=67 velocity=48 time=120
note_on channel=0 note=67 velocity=0 time=90
note_on channel=0 note=63 velocity=0 time=28
note_on channel=0 note=63 velocity=50 time=2
note_on channel=0 note=63 velocity=0 time=118
note_on channel=0 note=67 velocity=49 time=2
note_on channel=0 note=63 velocity=54 time=0
note_on channel=0 note=63 velocity=0 time=0
note_on channel=0 note=65 velocity=55 time=0
note_on channel=0 note=65 velocity=0 time=47
note_on channel=0 note=63 velocity=51 time=0
note_on channel=0 note=63 velocity=0 time=90
note_on channel=0 note=67 velocity=0 time=0
note_on channel=0 note=75 velocity=61 time=0
note_on channel=0 note=48 velocity=56 time=0
note_on channel=0 note=63 velocity=56 time=0
note_on channel=0 note=63 velocity=0 time=68
note_on channel=0 note=48 velocity=0 time=22
note_on channel=0 note=75 velocity=0 time=0
note_on channel=0 note=75 velocity=57 time=0
note_on channel=0 note=60 velocity=50 time=0
note_on channel=0 note=48 velocity=48 time=0
note_on channel=0 note=48 velocity=0 time=40
note_on channel=0 note=60 velocity=0 time=0
note_on channel=0 note=75 velocity=0 time=0
note_on channel=0 note=74 velocity=57 time=0
note_on channel=0 note=50 velocity=48 time=0
note_on channel=0 note=50 velocity=0 time=90
note_on channel=0 note=74 velocity=0 time=0
note_on channel=0 note=72 velocity=62 time=0
note_on channel=0 note=52 velocity=48 time=0
note_on channel=0 note=60 velocity=51 time=0
note_on channel=0 note=52 velocity=0 time=113
note_on channel=0 note=72 velocity=0 time=0
note_on channel=0 note=72 velocity=58 time=0
note_on channel=0 note=53 velocity=49 time=0
note_on channel=0 note=53 velocity=0 time=44
note_on channel=0 note=72 velocity=0 time=0
note_on channel=0 note=70 velocity=58 time=0
note_on channel=0 note=55 velocity=49 time=0
note_on channel=0 note=55 velocity=0 time=90
note_on channel=0 note=70 velocity=0 time=0
note_on channel=0 note=60 velocity=0 time=0
note_on channel=0 note=69 velocity=64 time=0
note_on channel=0 note=65 velocity=59 time=0
note_on channel=0 note=53 velocity=59 time=0
note_on channel=0 note=65 velocity=0 time=74
note_on channel=0 note=53 velocity=0 time=30
note_on channel=0 note=69 velocity=0 time=0
note_on channel=0 note=65 velocity=59 time=0
note_on channel=0 note=65 velocity=0 time=5
note_on channel=0 note=63 velocity=60 time=0
note_on channel=0 note=63 velocity=0 time=90
note_on channel=0 note=69 velocity=53 time=0
note_on channel=0 note=53 velocity=50 time=0
note_on channel=0 note=62 velocity=60 time=0
note_on channel=0 note=62 velocity=0 time=108
note_on channel=0 note=53 velocity=0 time=0
note_on channel=0 note=53 velocity=51 time=0
note_on channel=0 note=62 velocity=61 time=0
note_on channel=0 note=62 velocity=0 time=69
note_on channel=0 note=53 velocity=0 time=0
note_on channel=0 note=51 velocity=51 time=0
note_on channel=0 note=60 velocity=61 time=0
note_on channel=0 note=60 velocity=0 time=90
note_on channel=0 note=51 velocity=0 time=0
note_on channel=0 note=69 velocity=0 time=0
note_on channel=0 note=77 velocity=65 time=0
note_on channel=0 note=50 velocity=61 time=0
note_on channel=0 note=59 velocity=61 time=0
note_on channel=0 note=50 velocity=0 time=86
note_on channel=0 note=77 velocity=0 time=0
note_on channel=0 note=59 velocity=0 time=0
note_on channel=0 note=77 velocity=62 time=0
note_on channel=0 note=50 velocity=52 time=0
note_on channel=0 note=50 velocity=0 time=90
note_on channel=0 note=77 velocity=0 time=0
note_on channel=0 note=75 velocity=62 time=0
note_on channel=0 note=51 velocity=52 time=0
note_on channel=0 note=51 velocity=0 time=90
note_on channel=0 note=75 velocity=0 time=0
note_on channel=0 note=74 velocity=66 time=0
note_on channel=0 note=59 velocity=55 time=0
note_on channel=0 note=53 velocity=52 time=0
note_on channel=0 note=53 velocity=0 time=0
note_on channel=0 note=74 velocity=0 time=0
note_on channel=0 note=74 velocity=63 time=0
note_on channel=0 note=55 velocity=53 time=0
note_on channel=0 note=55 velocity=0 time=33
note_on channel=0 note=74 velocity=0 time=0
note_on channel=0 note=72 velocity=63 time=30
note_on channel=0 note=56 velocity=53 time=0
note_on channel=0 note=56 velocity=0 time=90
note_on channel=0 note=72 velocity=0 time=0
note_on channel=0 note=59 velocity=0 time=30
note_on channel=0 note=71 velocity=67 time=0
note_on channel=0 note=67 velocity=64 time=0
note_on channel=0 note=55 velocity=64 time=0
note_on channel=0 note=67 velocity=0 time=87
note_on channel=0 note=55 velocity=0 time=30
note_on channel=0 note=71 velocity=0 time=0
note_on channel=0 note=67 velocity=65 time=0
note_on channel=0 note=67 velocity=0 time=90
note_on channel=0 note=65 velocity=65 time=0
note_on channel=0 note=65 velocity=0 time=90
note_on channel=0 note=71 velocity=53 time=0
note_on channel=0 note=63 velocity=65 time=0
note_on channel=0 note=55 velocity=55 time=0
note_on channel=0 note=55 velocity=0 time=0
note_on channel=0 note=63 velocity=0 time=0
note_on channel=0 note=63 velocity=66 time=0
note_on channel=0 note=55 velocity=55 time=0
note_on channel=0 note=55 velocity=0 time=33
note_on channel=0 note=63 velocity=0 time=0
note_on channel=0 note=62 velocity=66 time=30
note_on channel=0 note=53 velocity=55 time=0
note_on channel=0 note=53 velocity=0 time=90
note_on channel=0 note=62 velocity=0 time=0
note_on channel=0 note=71 velocity=0 time=30
note_on channel=0 note=79 velocity=71 time=0
note_on channel=0 note=51 velocity=66 time=0
note_on channel=0 note=60 velocity=66 time=0
note_on channel=0 note=60 velocity=0 time=77
note_on channel=0 note=51 velocity=0 time=0
note_on channel=0 note=79 velocity=0 time=0
note_on channel=0 note=79 velocity=67 time=0
note_on channel=0 note=51 velocity=56 time=0
note_on channel=0 note=60 velocity=59 time=0
note_on channel=0 note=51 velocity=0 time=15
note_on channel=0 note=79 velocity=0 time=0
note_on channel=0 note=77 velocity=67 time=0
note_on channel=0 note=53 velocity=56 time=0
note_on channel=0 note=53 velocity=0 time=90
note_on channel=0 note=77 velocity=0 time=0
note_on channel=0 note=75 velocity=68 time=0
note_on channel=0 note=55 velocity=57 time=0
note_on channel=0 note=55 velocity=0 time=0
note_on channel=0 note=75 velocity=0 time=0
note_on channel=0 note=60 velocity=0 time=0
note_on channel=0 note=75 velocity=68 time=0
note_on channel=0 note=57 velocity=57 time=0
note_on channel=0 note=67 velocity=57 time=0
note_on channel=0 note=67 velocity=0 time=50
note_on channel=0 note=57 velocity=0 time=0
note_on channel=0 note=75 velocity=0 time=0
note_on channel=0 note=74 velocity=69 time=30
note_on channel=0 note=65 velocity=58 time=0
note_on channel=0 note=59 velocity=58 time=0
note_on channel=0 note=59 velocity=0 time=90
note_on channel=0 note=65 velocity=0 time=0
note_on channel=0 note=74 velocity=0 time=0
note_on channel=0 note=72 velocity=71 time=30
note_on channel=0 note=60 velocity=69 time=0
note_on channel=0 note=63 velocity=69 time=0
note_on channel=0 note=63 velocity=0 time=83
note_on channel=0 note=60 velocity=0 time=0
note_on channel=0 note=72 velocity=0 time=0
note_on channel=0 note=72 velocity=69 time=0
note_on channel=0 note=65 velocity=58 time=0
note_on channel=0 note=50 velocity=58 time=0
note_on channel=0 note=50 velocity=0 time=10
note_on channel=0 note=65 velocity=0 time=0
note_on channel=0 note=72 velocity=0 time=0
note_on channel=0 note=70 velocity=70 time=0
note_on channel=0 note=67 velocity=59 time=0
note_on channel=0 note=52 velocity=59 time=0
note_on channel=0 note=52 velocity=0 time=90
note_on channel=0 note=67 velocity=0 time=0
note_on channel=0 note=70 velocity=0 time=0
note_on channel=0 note=68 velocity=74 time=0
note_on channel=0 note=53 velocity=59 time=0
note_on channel=0 note=60 velocity=59 time=0
note_on channel=0 note=60 velocity=0 time=0
note_on channel=0 note=53 velocity=0 time=0
note_on channel=0 note=68 velocity=0 time=0
note_on channel=0 note=68 velocity=71 time=0
note_on channel=0 note=60 velocity=59 time=0
note_on channel=0 note=41 velocity=59 time=0
note_on channel=0 note=41 velocity=0 time=27
note_on channel=0 note=60 velocity=0 time=0
note_on channel=0 note=68 velocity=0 time=0
note_on channel=0 note=67 velocity=71 time=30
note_on channel=0 note=43 velocity=55 time=0
note_on channel=0 note=58 velocity=60 time=0
note_on channel=0 note=58 velocity=0 time=90
note_on channel=0 note=43 velocity=0 time=0
note_on channel=0 note=67 velocity=0 time=0
note_on channel=0 note=65 velocity=76 time=0
note_on channel=0 note=60 velocity=72 time=0
note_on channel=0 note=44 velocity=72 time=0
note_on channel=0 note=44 velocity=0 time=116
note_on channel=0 note=60 velocity=0 time=0
note_on channel=0 note=65 velocity=0 time=0
note_on channel=0 note=65 velocity=72 time=0
note_on channel=0 note=46 velocity=51 time=0
note_on channel=0 note=62 velocity=61 time=0
note_on channel=0 note=65 velocity=0 time=26
note_on channel=0 note=67 velocity=73 time=0
note_on channel=0 note=67 velocity=0 time=90
note_on channel=0 note=62 velocity=0 time=0
note_on channel=0 note=46 velocity=0 time=0
note_on channel=0 note=68 velocity=76 time=0
note_on channel=0 note=47 velocity=51 time=0
note_on channel=0 note=63 velocity=61 time=0
note_on channel=0 note=63 velocity=0 time=219
note_on channel=0 note=47 velocity=0 time=0
note_on channel=0 note=68 velocity=0 time=0
note_on channel=0 note=70 velocity=73 time=0
note_on channel=0 note=62 velocity=62 time=0
note_on channel=0 note=46 velocity=62 time=0
note_on channel=0 note=46 velocity=0 time=54
note_on channel=0 note=62 velocity=0 time=0
note_on channel=0 note=62 velocity=62 time=30
note_on channel=0 note=34 velocity=62 time=0
note_on channel=0 note=65 velocity=62 time=0
note_on channel=0 note=65 velocity=0 time=90
note_on channel=0 note=34 velocity=0 time=0
note_on channel=0 note=62 velocity=0 time=0
note_on channel=0 note=70 velocity=0 time=0
note_on channel=0 note=63 velocity=62 time=0
note_on channel=0 note=70 velocity=62 time=0
note_on channel=0 note=67 velocity=74 time=0
note_on channel=0 note=39 velocity=61 time=0
note_on channel=0 note=70 velocity=0 time=99
note_on channel=0 note=63 velocity=0 time=0
note_on channel=0 note=67 velocity=0 time=118
note_on channel=0 note=39 velocity=0 time=0
note_on channel=0 note=67 velocity=64 time=2
note_on channel=0 note=39 velocity=54 time=0
note_on channel=0 note=39 velocity=0 time=90
note_on channel=0 note=67 velocity=0 time=28
note_on channel=0 note=67 velocity=76 time=2
note_on channel=0 note=39 velocity=54 time=0
note_on channel=0 note=39 velocity=0 time=0
note_on channel=0 note=67 velocity=0 time=0
note_on channel=0 note=68 velocity=74 time=0
note_on channel=0 note=41 velocity=61 time=0
note_on channel=0 note=41 velocity=0 time=90
note_on channel=0 note=68 velocity=0 time=0
note_on channel=0 note=70 velocity=70 time=0
note_on channel=0 note=67 velocity=70 time=0
note_on channel=0 note=39 velocity=54 time=0
note_on channel=0 note=39 velocity=0 time=90
note_on channel=0 note=67 velocity=0 time=0
note_on channel=0 note=70 velocity=0 time=0
note_on channel=0 note=75 velocity=74 time=30
note_on channel=0 note=67 velocity=62 time=0
note_on channel=0 note=48 velocity=61 time=0
note_on channel=0 note=39 velocity=51 time=0
note_on channel=0 note=39 velocity=0 time=99
note_on channel=0 note=67 velocity=0 time=0
note_on channel=0 note=63 velocity=53 time=0
note_on channel=0 note=36 velocity=43 time=0
note_on channel=0 note=48 velocity=0 time=118
note_on channel=0 note=75 velocity=0 time=0
note_on channel=0 note=75 velocity=64 time=2
note_on channel=0 note=48 velocity=54 time=0
note_on channel=0 note=48 velocity=0 time=90
note_on channel=0 note=36 velocity=0 time=14
note_on channel=0 note=63 velocity=0 time=0
note_on channel=0 note=75 velocity=0 time=0
note_on channel=0 note=63 velocity=64 time=0
note_on channel=0 note=75 velocity=76 time=0
note_on channel=0 note=48 velocity=62 time=0
note_on channel=0 note=36 velocity=52 time=0
note_on channel=0 note=48 velocity=0 time=0
note_on channel=0 note=75 velocity=0 time=0
note_on channel=0 note=77 velocity=74 time=0
note_on channel=0 note=50 velocity=61 time=0
note_on channel=0 note=50 velocity=0 time=90
note_on channel=0 note=77 velocity=0 time=0
note_on channel=0 note=75 velocity=70 time=0
note_on channel=0 note=48 velocity=54 time=0
note_on channel=0 note=48 velocity=0 time=90
note_on channel=0 note=75 velocity=0 time=0
note_on channel=0 note=63 velocity=0 time=0
note_on channel=0 note=36 velocity=0 time=0
note_on channel=0 note=63 velocity=62 time=0
note_on channel=0 note=75 velocity=74 time=0
note_on channel=0 note=48 velocity=61 time=0
note_on channel=0 note=44 velocity=51 time=0
note_on channel=0 note=44 velocity=0 time=90
note_on channel=0 note=63 velocity=0 time=0
note_on channel=0 note=75 velocity=0 time=0
note_on channel=0 note=48 velocity=0 time=30
note_on channel=0 note=72 velocity=68 time=120
note_on channel=0 note=44 velocity=62 time=0
note_on channel=0 note=70 velocity=57 time=99
note_on channel=0 note=43 velocity=57 time=0
note_on channel=0 note=43 velocity=0 time=90
note_on channel=0 note=72 velocity=0 time=0
note_on channel=0 note=44 velocity=0 time=0
note_on channel=0 note=70 velocity=0 time=0
note_on channel=0 note=68 velocity=62 time=30
note_on channel=0 note=72 velocity=74 time=0
note_on channel=0 note=41 velocity=53 time=0
note_on channel=0 note=44 velocity=63 time=0
note_on channel=0 note=41 velocity=0 time=82
note_on channel=0 note=68 velocity=0 time=0
note_on channel=0 note=68 velocity=73 time=0
note_on channel=0 note=41 velocity=54 time=0
note_on channel=0 note=41 velocity=0 time=90
note_on channel=0 note=68 velocity=0 time=0
note_on channel=0 note=67 velocity=64 time=0
note_on channel=0 note=39 velocity=54 time=0
note_on channel=0 note=39 velocity=0 time=90
note_on channel=0 note=67 velocity=0 time=0
note_on channel=0 note=72 velocity=0 time=0
note_on channel=0 note=44 velocity=0 time=0
note_on channel=0 note=65 velocity=62 time=0
note_on channel=0 note=80 velocity=81 time=0
note_on channel=0 note=38 velocity=51 time=0
note_on channel=0 note=53 velocity=56 time=0
note_on channel=0 note=53 velocity=0 time=90
note_on channel=0 note=80 velocity=0 time=0
note_on channel=0 note=38 velocity=0 time=0
note_on channel=0 note=65 velocity=0 time=0
note_on channel=0 note=80 velocity=71 time=0
note_on channel=0 note=53 velocity=56 time=0
note_on channel=0 note=53 velocity=0 time=40
note_on channel=0 note=80 velocity=0 time=0
note_on channel=0 note=79 velocity=67 time=0
note_on channel=0 note=51 velocity=59 time=0
note_on channel=0 note=51 velocity=0 time=90
note_on channel=0 note=79 velocity=0 time=0
note_on channel=0 note=77 velocity=78 time=0
note_on channel=0 note=65 velocity=64 time=0
note_on channel=0 note=50 velocity=59 time=0
note_on channel=0 note=38 velocity=52 time=0
note_on channel=0 note=50 velocity=0 time=113
note_on channel=0 note=77 velocity=0 time=0
note_on channel=0 note=77 velocity=74 time=0
note_on channel=0 note=50 velocity=56 time=0
note_on channel=0 note=50 velocity=0 time=44
note_on channel=0 note=77 velocity=0 time=0
note_on channel=0 note=75 velocity=68 time=0
note_on channel=0 note=48 velocity=52 time=0
note_on channel=0 note=48 velocity=0 time=90
note_on channel=0 note=75 velocity=0 time=0
note_on channel=0 note=65 velocity=0 time=0
note_on channel=0 note=38 velocity=0 time=0
note_on channel=0 note=74 velocity=74 time=0
note_on channel=0 note=46 velocity=61 time=0
note_on channel=0 note=74 velocity=0 time=90
note_on channel=0 note=46 velocity=0 time=30
note_on channel=0 note=74 velocity=68 time=120
note_on channel=0 note=46 velocity=62 time=0
note_on channel=0 note=46 velocity=0 time=69
note_on channel=0 note=74 velocity=0 time=0
note_on channel=0 note=72 velocity=57 time=30
note_on channel=0 note=44 velocity=57 time=0
note_on channel=0 note=44 velocity=0 time=90
note_on channel=0 note=72 velocity=0 time=0
note_on channel=0 note=70 velocity=62 time=30
note_on channel=0 note=74 velocity=74 time=0
note_on channel=0 note=46 velocity=63 time=0
note_on channel=0 note=43 velocity=53 time=0
note_on channel=0 note=43 velocity=0 time=82
note_on channel=0 note=70 velocity=0 time=0
note_on channel=0 note=70 velocity=73 time=0
note_on channel=0 note=43 velocity=54 time=0
note_on channel=0 note=43 velocity=0 time=90
note_on channel=0 note=70 velocity=0 time=0
note_on channel=0 note=68 velocity=64 time=0
note_on channel=0 note=41 velocity=54 time=0
note_on channel=0 note=41 velocity=0 time=90
note_on channel=0 note=68 velocity=0 time=0
note_on channel=0 note=46 velocity=0 time=0
note_on channel=0 note=74 velocity=0 time=0
note_on channel=0 note=82 velocity=79 time=0
note_on channel=0 note=67 velocity=62 time=0
note_on channel=0 note=40 velocity=51 time=0
note_on channel=0 note=55 velocity=56 time=0
note_on channel=0 note=55 velocity=0 time=90
note_on channel=0 note=82 velocity=0 time=0
note_on channel=0 note=40 velocity=0 time=0
note_on channel=0 note=67 velocity=0 time=0
note_on channel=0 note=82 velocity=71 time=0
note_on channel=0 note=55 velocity=56 time=0
note_on channel=0 note=55 velocity=0 time=40
note_on channel=0 note=82 velocity=0 time=0
note_on channel=0 note=80 velocity=67 time=0
note_on channel=0 note=53 velocity=59 time=0
note_on channel=0 note=53 velocity=0 time=90
note_on channel=0 note=80 velocity=0 time=0
note_on channel=0 note=79 velocity=78 time=0
note_on channel=0 note=67 velocity=64 time=0
note_on channel=0 note=40 velocity=52 time=0
note_on channel=0 note=52 velocity=59 time=0
note_on channel=0 note=52 velocity=0 time=113
note_on channel=0 note=79 velocity=0 time=0
note_on channel=0 note=79 velocity=74 time=0
note_on channel=0 note=52 velocity=56 time=0
note_on channel=0 note=52 velocity=0 time=44
note_on channel=0 note=79 velocity=0 time=0
note_on channel=0 note=77 velocity=68 time=0
note_on channel=0 note=50 velocity=52 time=0
note_on channel=0 note=50 velocity=0 time=90
note_on channel=0 note=77 velocity=0 time=0
note_on channel=0 note=40 velocity=0 time=0
note_on channel=0 note=76 velocity=74 time=0
note_on channel=0 note=48 velocity=61 time=0
note_on channel=0 note=48 velocity=0 time=120
note_on channel=0 note=76 velocity=0 time=120
note_on channel=0 note=67 velocity=0 time=0
note_on channel=0 note=64 velocity=56 time=0
note_on channel=0 note=55 velocity=51 time=0
note_on channel=0 note=48 velocity=43 time=0
note_on channel=0 note=48 velocity=0 time=78
note_on channel=0 note=55 velocity=0 time=0
note_on channel=0 note=61 velocity=41 time=30
note_on channel=0 note=46 velocity=34 time=0
note_on channel=0 note=46 velocity=0 time=90
note_on channel=0 note=61 velocity=0 time=0
note_on channel=0 note=64 velocity=0 time=30
note_on channel=0 note=65 velocity=59 time=0
note_on channel=0 note=48 velocity=51 time=0
note_on channel=0 note=60 velocity=51 time=0
note_on channel=0 note=44 velocity=43 time=0
note_on channel=0 note=44 velocity=0 time=82
note_on channel=0 note=60 velocity=0 time=0
note_on channel=0 note=48 velocity=0 time=0
note_on channel=0 note=65 velocity=0 time=0
note_on channel=0 note=67 velocity=62 time=0
note_on channel=0 note=60 velocity=51 time=0
note_on channel=0 note=43 velocity=45 time=0
note_on channel=0 note=52 velocity=54 time=0
note_on channel=0 note=52 velocity=0 time=50
note_on channel=0 note=43 velocity=0 time=0
note_on channel=0 note=60 velocity=0 time=0
note_on channel=0 note=58 velocity=49 time=0
note_on channel=0 note=58 velocity=0 time=90
note_on channel=0 note=67 velocity=0 time=0
note_on channel=0 note=56 velocity=58 time=0
note_on channel=0 note=68 velocity=58 time=0
note_on channel=0 note=41 velocity=50 time=0
note_on channel=0 note=53 velocity=50 time=0
note_on channel=0 note=56 velocity=0 time=117
note_on channel=0 note=53 velocity=0 time=120
note_on channel=0 note=65 velocity=51 time=0
note_on channel=0 note=48 velocity=42 time=0
note_on channel=0 note=65 velocity=0 time=28
note_on channel=0 note=63 velocity=44 time=0
note_on channel=0 note=63 velocity=0 time=120
note_on channel=0 note=48 velocity=0 time=0
note_on channel=0 note=62 velocity=51 time=0
note_on channel=0 note=53 velocity=52 time=0
note_on channel=0 note=62 velocity=0 time=108
note_on channel=0 note=68 velocity=0 time=120
note_on channel=0 note=41 velocity=0 time=0
note_on channel=0 note=53 velocity=0 time=0
note_on channel=0 note=62 velocity=52 time=0
note_on channel=0 note=69 velocity=52 time=0
note_on channel=0 note=51 velocity=42 time=0
note_on channel=0 note=42 velocity=42 time=0
note_on channel=0 note=62 velocity=0 time=108
note_on channel=0 note=60 velocity=45 time=0
note_on channel=0 note=60 velocity=0 time=0
note_on channel=0 note=42 velocity=0 time=0
note_on channel=0 note=51 velocity=0 time=0
note_on channel=0 note=69 velocity=0 time=0
note_on channel=0 note=70 velocity=63 time=0
note_on channel=0 note=58 velocity=63 time=0
note_on channel=0 note=50 velocity=56 time=0
note_on channel=0 note=43 velocity=51 time=0
note_on channel=0 note=50 velocity=0 time=90
note_on channel=0 note=70 velocity=0 time=0
note_on channel=0 note=58 velocity=0 time=0
note_on channel=0 note=79 velocity=62 time=0
note_on channel=0 note=50 velocity=54 time=0
note_on channel=0 note=79 velocity=0 time=40
note_on channel=0 note=77 velocity=57 time=0
note_on channel=0 note=77 velocity=0 time=90
note_on channel=0 note=50 velocity=0 time=0
note_on channel=0 note=75 velocity=67 time=0
note_on channel=0 note=55 velocity=59 time=0
note_on channel=0 note=75 velocity=0 time=113
note_on channel=0 note=55 velocity=0 time=0
note_on channel=0 note=43 velocity=0 time=0
note_on channel=0 note=75 velocity=63 time=0
note_on channel=0 note=43 velocity=47 time=0
note_on channel=0 note=53 velocity=56 time=0
note_on channel=0 note=75 velocity=0 time=44
note_on channel=0 note=74 velocity=57 time=0
note_on channel=0 note=74 velocity=0 time=90
note_on channel=0 note=53 velocity=0 time=0
note_on channel=0 note=43 velocity=0 time=0
note_on channel=0 note=72 velocity=68 time=0
note_on channel=0 note=44 velocity=46 time=0
note_on channel=0 note=51 velocity=55 time=0
note_on channel=0 note=51 velocity=0 time=237
note_on channel=0 note=60 velocity=47 time=0
note_on channel=0 note=56 velocity=58 time=0
note_on channel=0 note=56 velocity=0 time=28
note_on channel=0 note=55 velocity=50 time=0
note_on channel=0 note=55 velocity=0 time=120
note_on channel=0 note=60 velocity=0 time=0
note_on channel=0 note=65 velocity=60 time=0
note_on channel=0 note=53 velocity=59 time=0
note_on channel=0 note=53 velocity=0 time=108
note_on channel=0 note=72 velocity=0 time=120
note_on channel=0 note=44 velocity=0 time=0
note_on channel=0 note=73 velocity=61 time=0
note_on channel=0 note=53 velocity=61 time=0
note_on channel=0 note=45 velocity=41 time=0
note_on channel=0 note=53 velocity=0 time=108
note_on channel=0 note=51 velocity=53 time=0
note_on channel=0 note=51 velocity=0 time=0
note_on channel=0 note=45 velocity=0 time=0
note_on channel=0 note=73 velocity=0 time=0
note_on channel=0 note=65 velocity=0 time=0
note_on channel=0 note=65 velocity=72 time=0
note_on channel=0 note=74 velocity=72 time=0
note_on channel=0 note=50 velocity=67 time=0
note_on channel=0 note=46 velocity=51 time=0
note_on channel=0 note=46 velocity=0 time=90
note_on channel=0 note=65 velocity=0 time=0
note_on channel=0 note=74 velocity=0 time=0
note_on channel=0 note=50 velocity=0 time=0
note_on channel=0 note=67 velocity=66 time=0
note_on channel=0 note=75 velocity=66 time=0
note_on channel=0 note=47 velocity=53 time=0
note_on channel=0 note=58 velocity=52 time=0
note_on channel=0 note=58 velocity=0 time=40
note_on channel=0 note=67 velocity=0 time=0
note_on channel=0 note=75 velocity=0 time=0
note_on channel=0 note=74 velocity=59 time=0
note_on channel=0 note=65 velocity=59 time=0
note_on channel=0 note=56 velocity=47 time=0
note_on channel=0 note=56 velocity=0 time=90
note_on channel=0 note=65 velocity=0 time=0
note_on channel=0 note=74 velocity=0 time=0
note_on channel=0 note=47 velocity=0 time=0
note_on channel=0 note=72 velocity=76 time=0
note_on channel=0 note=63 velocity=76 time=0
note_on channel=0 note=55 velocity=60 time=0
note_on channel=0 note=48 velocity=59 time=0
note_on channel=0 note=48 velocity=0 time=113
note_on channel=0 note=72 velocity=0 time=0
note_on channel=0 note=63 velocity=0 time=0
note_on channel=0 note=55 velocity=0 time=0
note_on channel=0 note=71 velocity=73 time=0
note_on channel=0 note=62 velocity=76 time=0
note_on channel=0 note=53 velocity=66 time=0
note_on channel=0 note=50 velocity=56 time=0
note_on channel=0 note=71 velocity=0 time=44
note_on channel=0 note=62 velocity=0 time=0
note_on channel=0 note=67 velocity=66 time=0
note_on channel=0 note=67 velocity=0 time=90
note_on channel=0 note=53 velocity=0 time=0
note_on channel=0 note=50 velocity=0 time=0
note_on channel=0 note=72 velocity=67 time=0
note_on channel=0 note=75 velocity=79 time=0
note_on channel=0 note=51 velocity=66 time=0
note_on channel=0 note=48 velocity=47 time=0
note_on channel=0 note=48 velocity=0 time=148
note_on channel=0 note=51 velocity=0 time=0
note_on channel=0 note=75 velocity=0 time=117
note_on channel=0 note=72 velocity=0 time=0
note_on channel=0 note=75 velocity=72 time=3
note_on channel=0 note=72 velocity=61 time=0
note_on channel=0 note=72 velocity=0 time=119
note_on channel=0 note=75 velocity=0 time=0
note_on channel=0 note=72 velocity=64 time=1
note_on channel=0 note=75 velocity=76 time=0
note_on channel=0 note=75 velocity=0 time=0
note_on channel=0 note=72 velocity=0 time=0
note_on channel=0 note=74 velocity=67 time=0
note_on channel=0 note=77 velocity=79 time=0
note_on channel=0 note=77 velocity=0 time=26
note_on channel=0 note=74 velocity=0 time=0
note_on channel=0 note=75 velocity=68 time=0
note_on channel=0 note=72 velocity=57 time=0
note_on channel=0 note=51 velocity=61 time=0
note_on channel=0 note=48 velocity=51 time=0
note_on channel=0 note=48 velocity=0 time=90
note_on channel=0 note=75 velocity=0 time=0
note_on channel=0 note=72 velocity=0 time=0
note_on channel=0 note=51 velocity=0 time=0
note_on channel=0 note=72 velocity=67 time=0
note_on channel=0 note=75 velocity=79 time=0
note_on channel=0 note=56 velocity=67 time=0
note_on channel=0 note=53 velocity=56 time=0
note_on channel=0 note=75 velocity=0 time=83
note_on channel=0 note=72 velocity=0 time=0
note_on channel=0 note=72 velocity=69 time=120
note_on channel=0 note=68 velocity=58 time=0
note_on channel=0 note=68 velocity=0 time=78
note_on channel=0 note=72 velocity=0 time=0
note_on channel=0 note=56 velocity=0 time=27
note_on channel=0 note=53 velocity=0 time=0
note_on channel=0 note=53 velocity=51 time=3
note_on channel=0 note=56 velocity=61 time=0
note_on channel=0 note=56 velocity=0 time=119
note_on channel=0 note=53 velocity=0 time=0
note_on channel=0 note=68 velocity=58 time=1
note_on channel=0 note=72 velocity=69 time=0
note_on channel=0 note=53 velocity=54 time=0
note_on channel=0 note=56 velocity=64 time=0
note_on channel=0 note=56 velocity=0 time=0
note_on channel=0 note=53 velocity=0 time=0
note_on channel=0 note=55 velocity=56 time=0
note_on channel=0 note=58 velocity=67 time=0
note_on channel=0 note=58 velocity=0 time=47
note_on channel=0 note=55 velocity=0 time=0
note_on channel=0 note=53 velocity=48 time=0
note_on channel=0 note=56 velocity=57 time=0
note_on channel=0 note=56 velocity=0 time=90
note_on channel=0 note=53 velocity=0 time=0
note_on channel=0 note=72 velocity=0 time=0
note_on channel=0 note=68 velocity=0 time=0
note_on channel=0 note=80 velocity=79 time=0
note_on channel=0 note=77 velocity=67 time=0
note_on channel=0 note=56 velocity=67 time=0
note_on channel=0 note=53 velocity=56 time=0
note_on channel=0 note=53 velocity=0 time=87
note_on channel=0 note=80 velocity=0 time=0
note_on channel=0 note=77 velocity=0 time=0
note_on channel=0 note=56 velocity=0 time=0
note_on channel=0 note=80 velocity=79 time=0
note_on channel=0 note=77 velocity=67 time=0
note_on channel=0 note=53 velocity=58 time=0
note_on channel=0 note=49 velocity=49 time=0
note_on channel=0 note=49 velocity=0 time=15
note_on channel=0 note=80 velocity=0 time=0
note_on channel=0 note=77 velocity=0 time=0
note_on channel=0 note=53 velocity=0 time=0
note_on channel=0 note=79 velocity=75 time=0
note_on channel=0 note=75 velocity=63 time=0
note_on channel=0 note=75 velocity=0 time=90
note_on channel=0 note=79 velocity=0 time=0
note_on channel=0 note=77 velocity=79 time=0
note_on channel=0 note=73 velocity=67 time=0
note_on channel=0 note=49 velocity=49 time=0
note_on channel=0 note=53 velocity=58 time=0
note_on channel=0 note=73 velocity=0 time=115
note_on channel=0 note=77 velocity=0 time=0
note_on channel=0 note=73 velocity=67 time=0
note_on channel=0 note=77 velocity=79 time=0
note_on channel=0 note=77 velocity=0 time=27
note_on channel=0 note=73 velocity=0 time=0
note_on channel=0 note=75 velocity=75 time=0
note_on channel=0 note=72 velocity=63 time=0
note_on channel=0 note=72 velocity=0 time=90
note_on channel=0 note=75 velocity=0 time=0
note_on channel=0 note=49 velocity=0 time=0
note_on channel=0 note=53 velocity=0 time=0
note_on channel=0 note=73 velocity=79 time=0
note_on channel=0 note=70 velocity=67 time=0
note_on channel=0 note=61 velocity=67 time=0
note_on channel=0 note=58 velocity=56 time=0
note_on channel=0 note=58 velocity=0 time=86
note_on channel=0 note=61 velocity=0 time=0
note_on channel=0 note=70 velocity=0 time=0
note_on channel=0 note=73 velocity=0 time=0
note_on channel=0 note=61 velocity=67 time=0
note_on channel=0 note=58 velocity=56 time=0
note_on channel=0 note=58 velocity=0 time=61
note_on channel=0 note=61 velocity=0 time=0
note_on channel=0 note=60 velocity=63 time=0
note_on channel=0 note=56 velocity=53 time=0
note_on channel=0 note=56 velocity=0 time=90
note_on channel=0 note=60 velocity=0 time=0
note_on channel=0 note=70 velocity=58 time=0
note_on channel=0 note=73 velocity=69 time=0
note_on channel=0 note=55 velocity=56 time=0
note_on channel=0 note=58 velocity=67 time=0
note_on channel=0 note=58 velocity=0 time=109
note_on channel=0 note=55 velocity=0 time=0
note_on channel=0 note=58 velocity=67 time=0
note_on channel=0 note=55 velocity=56 time=0
note_on channel=0 note=55 velocity=0 time=27
note_on channel=0 note=58 velocity=0 time=0
note_on channel=0 note=56 velocity=63 time=0
note_on channel=0 note=53 velocity=53 time=0
note_on channel=0 note=53 velocity=0 time=90
note_on channel=0 note=56 velocity=0 time=0
note_on channel=0 note=73 velocity=0 time=0
note_on channel=0 note=70 velocity=0 time=0
note_on channel=0 note=79 velocity=67 time=0
note_on channel=0 note=82 velocity=79 time=0
note_on channel=0 note=55 velocity=67 time=0
note_on channel=0 note=52 velocity=56 time=0
note_on channel=0 note=82 velocity=0 time=79
note_on channel=0 note=79 velocity=0 time=0
note_on channel=0 note=55 velocity=0 time=0
note_on channel=0 note=52 velocity=0 time=0
note_on channel=0 note=79 velocity=67 time=0
note_on channel=0 note=82 velocity=79 time=0
note_on channel=0 note=82 velocity=0 time=50
note_on channel=0 note=79 velocity=0 time=0
note_on channel=0 note=77 velocity=63 time=0
note_on channel=0 note=80 velocity=75 time=0
note_on channel=0 note=80 velocity=0 time=90
note_on channel=0 note=77 velocity=0 time=0
note_on channel=0 note=76 velocity=67 time=0
note_on channel=0 note=79 velocity=79 time=0
note_on channel=0 note=55 velocity=58 time=0
note_on channel=0 note=52 velocity=49 time=0
note_on channel=0 note=79 velocity=0 time=0
note_on channel=0 note=76 velocity=0 time=0
note_on channel=0 note=79 velocity=79 time=0
note_on channel=0 note=76 velocity=67 time=0
note_on channel=0 note=76 velocity=0 time=10
note_on channel=0 note=79 velocity=0 time=0
note_on channel=0 note=74 velocity=63 time=30
note_on channel=0 note=77 velocity=75 time=0
note_on channel=0 note=77 velocity=0 time=90
note_on channel=0 note=74 velocity=0 time=0
note_on channel=0 note=55 velocity=0 time=30
note_on channel=0 note=52 velocity=0 time=0
note_on channel=0 note=76 velocity=79 time=0
note_on channel=0 note=72 velocity=67 time=0
note_on channel=0 note=60 velocity=56 time=0
note_on channel=0 note=64 velocity=67 time=0
note_on channel=0 note=64 velocity=0 time=83
note_on channel=0 note=60 velocity=0 time=0
note_on channel=0 note=72 velocity=0 time=0
note_on channel=0 note=76 velocity=0 time=0
note_on channel=0 note=60 velocity=56 time=0
note_on channel=0 note=63 velocity=67 time=0
note_on channel=0 note=63 velocity=0 time=61
note_on channel=0 note=60 velocity=0 time=0
note_on channel=0 note=61 velocity=63 time=0
note_on channel=0 note=58 velocity=53 time=0
note_on channel=0 note=58 velocity=0 time=90
note_on channel=0 note=61 velocity=0 time=0
note_on channel=0 note=72 velocity=58 time=0
note_on channel=0 note=77 velocity=69 time=0
note_on channel=0 note=60 velocity=67 time=0
note_on channel=0 note=56 velocity=56 time=0
note_on channel=0 note=56 velocity=0 time=0
note_on channel=0 note=60 velocity=0 time=0
note_on channel=0 note=56 velocity=56 time=0
note_on channel=0 note=60 velocity=67 time=0
note_on channel=0 note=60 velocity=0 time=33
note_on channel=0 note=56 velocity=0 time=0
note_on channel=0 note=55 velocity=53 time=30
note_on channel=0 note=58 velocity=63 time=0
note_on channel=0 note=58 velocity=0 time=90
note_on channel=0 note=55 velocity=0 time=0
note_on channel=0 note=77 velocity=0 time=30
note_on channel=0 note=72 velocity=0 time=0
note_on channel=0 note=84 velocity=79 time=0
note_on channel=0 note=80 velocity=67 time=0
note_on channel=0 note=56 velocity=67 time=0
note_on channel=0 note=53 velocity=56 time=0
note_on channel=0 note=53 velocity=0 time=79
note_on channel=0 note=84 velocity=0 time=0
note_on channel=0 note=80 velocity=0 time=0
note_on channel=0 note=56 velocity=0 time=0
note_on channel=0 note=80 velocity=67 time=0
note_on channel=0 note=84 velocity=79 time=0
note_on channel=0 note=50 velocity=56 time=0
note_on channel=0 note=53 velocity=67 time=0
note_on channel=0 note=53 velocity=0 time=5
note_on channel=0 note=80 velocity=0 time=0
note_on channel=0 note=84 velocity=0 time=0
note_on channel=0 note=50 velocity=0 time=0
note_on channel=0 note=79 velocity=63 time=0
note_on channel=0 note=82 velocity=75 time=0
note_on channel=0 note=51 velocity=53 time=0
note_on channel=0 note=55 velocity=63 time=0
note_on channel=0 note=55 velocity=0 time=90
note_on channel=0 note=79 velocity=0 time=0
note_on channel=0 note=82 velocity=0 time=0
note_on channel=0 note=51 velocity=0 time=0
note_on channel=0 note=80 velocity=79 time=0
note_on channel=0 note=77 velocity=67 time=0
note_on channel=0 note=56 velocity=67 time=0
note_on channel=0 note=53 velocity=56 time=0
note_on channel=0 note=53 velocity=0 time=0
note_on channel=0 note=80 velocity=0 time=0
note_on channel=0 note=77 velocity=0 time=0
note_on channel=0 note=56 velocity=0 time=0
note_on channel=0 note=79 velocity=68 time=0
note_on channel=0 note=82 velocity=80 time=0
note_on channel=0 note=48 velocity=56 time=0
note_on channel=0 note=51 velocity=67 time=0
note_on channel=0 note=51 velocity=0 time=47
note_on channel=0 note=79 velocity=0 time=0
note_on channel=0 note=82 velocity=0 time=0
note_on channel=0 note=48 velocity=0 time=0
note_on channel=0 note=77 velocity=65 time=30
note_on channel=0 note=80 velocity=77 time=0
note_on channel=0 note=50 velocity=53 time=0
note_on channel=0 note=53 velocity=63 time=0
note_on channel=0 note=53 velocity=0 time=90
note_on channel=0 note=77 velocity=0 time=0
note_on channel=0 note=80 velocity=0 time=0
note_on channel=0 note=50 velocity=0 time=0
note_on channel=0 note=79 velocity=79 time=30
note_on channel=0 note=75 velocity=67 time=0
note_on channel=0 note=55 velocity=67 time=0
note_on channel=0 note=51 velocity=56 time=0
note_on channel=0 note=51 velocity=0 time=87
note_on channel=0 note=79 velocity=0 time=0
note_on channel=0 note=75 velocity=0 time=0
note_on channel=0 note=55 velocity=0 time=0
note_on channel=0 note=80 velocity=79 time=0
note_on channel=0 note=89 velocity=79 time=0
note_on channel=0 note=47 velocity=56 time=0
note_on channel=0 note=50 velocity=67 time=0
note_on channel=0 note=50 velocity=0 time=15
note_on channel=0 note=80 velocity=0 time=0
note_on channel=0 note=89 velocity=0 time=0
note_on channel=0 note=47 velocity=0 time=0
note_on channel=0 note=87 velocity=75 time=0
note_on channel=0 note=79 velocity=63 time=0
note_on channel=0 note=51 velocity=63 time=0
note_on channel=0 note=48 velocity=53 time=0
note_on channel=0 note=48 velocity=0 time=90
note_on channel=0 note=87 velocity=0 time=0
note_on channel=0 note=79 velocity=0 time=0
note_on channel=0 note=51 velocity=0 time=0
note_on channel=0 note=77 velocity=67 time=0
note_on channel=0 note=86 velocity=79 time=0
note_on channel=0 note=50 velocity=56 time=0
note_on channel=0 note=53 velocity=67 time=0
note_on channel=0 note=53 velocity=0 time=0
note_on channel=0 note=77 velocity=0 time=0
note_on channel=0 note=86 velocity=0 time=0
note_on channel=0 note=50 velocity=0 time=0
note_on channel=0 note=87 velocity=80 time=0
note_on channel=0 note=79 velocity=68 time=0
note_on channel=0 note=48 velocity=67 time=0
note_on channel=0 note=45 velocity=56 time=0
note_on channel=0 note=45 velocity=0 time=50
note_on channel=0 note=87 velocity=0 time=0
note_on channel=0 note=79 velocity=0 time=0
note_on channel=0 note=48 velocity=0 time=0
note_on channel=0 note=77 velocity=65 time=30
note_on channel=0 note=86 velocity=77 time=0
note_on channel=0 note=47 velocity=53 time=0
note_on channel=0 note=50 velocity=63 time=0
note_on channel=0 note=50 velocity=0 time=90
note_on channel=0 note=77 velocity=0 time=0
note_on channel=0 note=86 velocity=0 time=0
note_on channel=0 note=47 velocity=0 time=0
note_on channel=0 note=75 velocity=67 time=0
note_on channel=0 note=84 velocity=79 time=0
note_on channel=0 note=51 velocity=67 time=0
note_on channel=0 note=48 velocity=56 time=0
note_on channel=0 note=48 velocity=0 time=85
note_on channel=0 note=75 velocity=0 time=0
note_on channel=0 note=84 velocity=0 time=0
note_on channel=0 note=51 velocity=0 time=0
note_on channel=0 note=79 velocity=67 time=0
note_on channel=0 note=82 velocity=79 time=0
note_on channel=0 note=61 velocity=56 time=0
note_on channel=0 note=65 velocity=67 time=0
note_on channel=0 note=65 velocity=0 time=38
note_on channel=0 note=79 velocity=0 time=0
note_on channel=0 note=82 velocity=0 time=0
note_on channel=0 note=61 velocity=0 time=0
note_on channel=0 note=80 velocity=63 time=0
note_on channel=0 note=84 velocity=75 time=0
note_on channel=0 note=63 velocity=63 time=0
note_on channel=0 note=60 velocity=53 time=0
note_on channel=0 note=60 velocity=0 time=90
note_on channel=0 note=80 velocity=0 time=0
note_on channel=0 note=84 velocity=0 time=0
note_on channel=0 note=63 velocity=0 time=0
note_on channel=0 note=85 velocity=80 time=0
note_on channel=0 note=82 velocity=68 time=0
note_on channel=0 note=61 velocity=68 time=0
note_on channel=0 note=58 velocity=57 time=0
note_on channel=0 note=58 velocity=0 time=0
note_on channel=0 note=85 velocity=0 time=0
note_on channel=0 note=82 velocity=0 time=0
note_on channel=0 note=61 velocity=0 time=0
note_on channel=0 note=77 velocity=70 time=0
note_on channel=0 note=80 velocity=82 time=0
note_on channel=0 note=60 velocity=57 time=0
note_on channel=0 note=63 velocity=69 time=0
note_on channel=0 note=63 velocity=0 time=38
note_on channel=0 note=77 velocity=0 time=0
note_on channel=0 note=80 velocity=0 time=0
note_on channel=0 note=60 velocity=0 time=0
note_on channel=0 note=79 velocity=67 time=30
note_on channel=0 note=82 velocity=80 time=0
note_on channel=0 note=61 velocity=65 time=0
note_on channel=0 note=58 velocity=55 time=0
note_on channel=0 note=58 velocity=0 time=90
note_on channel=0 note=79 velocity=0 time=0
note_on channel=0 note=82 velocity=0 time=0
note_on channel=0 note=61 velocity=0 time=0
note_on channel=0 note=80 velocity=70 time=0
note_on channel=0 note=84 velocity=82 time=0
note_on channel=0 note=60 velocity=70 time=0
note_on channel=0 note=56 velocity=58 time=0
note_on channel=0 note=56 velocity=0 time=87
note_on channel=0 note=80 velocity=0 time=0
note_on channel=0 note=84 velocity=0 time=0
note_on channel=0 note=60 velocity=0 time=0
note_on channel=0 note=72 velocity=71 time=0
note_on channel=0 note=75 velocity=83 time=0
note_on channel=0 note=56 velocity=59 time=0
note_on channel=0 note=60 velocity=71 time=0
note_on channel=0 note=60 velocity=0 time=33
note_on channel=0 note=56 velocity=0 time=0
note_on channel=0 note=75 velocity=0 time=0
note_on channel=0 note=77 velocity=80 time=0
note_on channel=0 note=77 velocity=0 time=90
note_on channel=0 note=72 velocity=0 time=0
note_on channel=0 note=79 velocity=84 time=0
note_on channel=0 note=71 velocity=71 time=0
note_on channel=0 note=55 velocity=59 time=0
note_on channel=0 note=62 velocity=71 time=0
note_on channel=0 note=62 velocity=0 time=227
note_on channel=0 note=79 velocity=0 time=0
note_on channel=0 note=71 velocity=0 time=0
note_on channel=0 note=55 velocity=0 time=0
note_on channel=0 note=71 velocity=79 time=0
note_on channel=0 note=74 velocity=94 time=0
note_on channel=0 note=74 velocity=0 time=0
note_on channel=0 note=71 velocity=0 time=0
note_on channel=0 note=79 velocity=86 time=0
note_on channel=0 note=83 velocity=102 time=0
note_on channel=0 note=67 velocity=64 time=360
note_on channel=0 note=71 velocity=76 time=0
note_on channel=0 note=71 velocity=0 time=119
note_on channel=0 note=67 velocity=0 time=0
note_on channel=0 note=67 velocity=71 time=0
note_on channel=0 note=71 velocity=84 time=0
note_on channel=0 note=71 velocity=0 time=120
note_on channel=0 note=79 velocity=0 time=0
note_on channel=0 note=83 velocity=0 time=0
note_on channel=0 note=67 velocity=0 time=0
note_on channel=0 note=71 velocity=73 time=0
note_on channel=0 note=74 velocity=87 time=0
note_on channel=0 note=59 velocity=68 time=0
note_on channel=0 note=55 velocity=57 time=0
note_on channel=0 note=55 velocity=0 time=119
note_on channel=0 note=59 velocity=0 time=0
note_on channel=0 note=74 velocity=0 time=1
note_on channel=0 note=71 velocity=0 time=0
note_on channel=0 note=79 velocity=86 time=0
note_on channel=0 note=83 velocity=102 time=0
note_on channel=0 note=55 velocity=63 time=0
note_on channel=0 note=59 velocity=75 time=0
note_on channel=0 note=59 velocity=0 time=360
note_on channel=0 note=55 velocity=0 time=0
note_on channel=0 note=43 velocity=51 time=0
note_on channel=0 note=47 velocity=60 time=0
note_on channel=0 note=47 velocity=0 time=119
note_on channel=0 note=43 velocity=0 time=0
note_on channel=0 note=43 velocity=56 time=0
note_on channel=0 note=47 velocity=67 time=0
note_on channel=0 note=47 velocity=0 time=0
note_on channel=0 note=79 velocity=0 time=0
note_on channel=0 note=83 velocity=0 time=0
note_on channel=0 note=43 velocity=0 time=0
note_on channel=0 note=83 velocity=53 time=0
note_on channel=0 note=79 velocity=45 time=0
note_on channel=0 note=87 velocity=53 time=0
note_on channel=0 note=87 velocity=0 time=108
note_on channel=0 note=86 velocity=45 time=0
note_on channel=0 note=86 velocity=0 time=120
note_on channel=0 note=79 velocity=0 time=0
note_on channel=0 note=83 velocity=0 time=0
note_on channel=0 note=86 velocity=45 time=0
note_on channel=0 note=83 velocity=45 time=0
note_on channel=0 note=91 velocity=53 time=0
note_on channel=0 note=91 velocity=0 time=120
note_on channel=0 note=89 velocity=45 time=0
note_on channel=0 note=89 velocity=0 time=120
note_on channel=0 note=83 velocity=0 time=0
note_on channel=0 note=86 velocity=0 time=0
note_on channel=0 note=87 velocity=53 time=0
note_on channel=0 note=87 velocity=0 time=0
note_on channel=0 note=86 velocity=47 time=0
note_on channel=0 note=86 velocity=0 time=0
note_on channel=0 note=71 velocity=45 time=0
note_on channel=0 note=79 velocity=53 time=0
note_on channel=0 note=74 velocity=45 time=0
note_on channel=0 note=79 velocity=0 time=120
note_on channel=0 note=77 velocity=45 time=0
note_on channel=0 note=77 velocity=0 time=120
note_on channel=0 note=74 velocity=0 time=0
note_on channel=0 note=71 velocity=0 time=0
note_on channel=0 note=75 velocity=53 time=0
note_on channel=0 note=75 velocity=0 time=0
note_on channel=0 note=74 velocity=47 time=0
note_on channel=0 note=74 velocity=0 time=0
note_on channel=0 note=67 velocity=53 time=0
note_on channel=0 note=59 velocity=45 time=0
note_on channel=0 note=62 velocity=45 time=0
note_on channel=0 note=67 velocity=0 time=120
note_on channel=0 note=65 velocity=45 time=0
note_on channel=0 note=65 velocity=0 time=120
note_on channel=0 note=62 velocity=0 time=0
note_on channel=0 note=59 velocity=0 time=0
note_on channel=0 note=63 velocity=53 time=0
note_on channel=0 note=63 velocity=0 time=0
note_on channel=0 note=62 velocity=47 time=0
note_on channel=0 note=62 velocity=0 time=0
note_on channel=0 note=74 velocity=45 time=0
note_on channel=0 note=71 velocity=45 time=0
note_on channel=0 note=79 velocity=53 time=0
note_on channel=0 note=79 velocity=0 time=120
note_on channel=0 note=77 velocity=45 time=0
note_on channel=0 note=77 velocity=0 time=120
note_on channel=0 note=71 velocity=0 time=0
note_on channel=0 note=74 velocity=0 time=0
note_on channel=0 note=75 velocity=53 time=0
note_on channel=0 note=75 velocity=0 time=0
note_on channel=0 note=74 velocity=47 time=0
note_on channel=0 note=74 velocity=0 time=0
note_on channel=0 note=79 velocity=86 time=0
note_on channel=0 note=87 velocity=102 time=0
note_on channel=0 note=84 velocity=86 time=0
note_on channel=0 note=60 velocity=75 time=0
note_on channel=0 note=60 velocity=0 time=280
note_on channel=0 note=75 velocity=76 time=0
note_on channel=0 note=72 velocity=64 time=0
note_on channel=0 note=72 velocity=0 time=119
note_on channel=0 note=75 velocity=0 time=0
note_on channel=0 note=72 velocity=71 time=0
note_on channel=0 note=75 velocity=84 time=0
note_on channel=0 note=75 velocity=0 time=120
note_on channel=0 note=84 velocity=0 time=0
note_on channel=0 note=79 velocity=0 time=0
note_on channel=0 note=87 velocity=0 time=0
note_on channel=0 note=72 velocity=0 time=0
note_on channel=0 note=79 velocity=73 time=0
note_on channel=0 note=75 velocity=87 time=0
note_on channel=0 note=60 velocity=57 time=0
note_on channel=0 note=63 velocity=68 time=0
note_on channel=0 note=63 velocity=0 time=119
note_on channel=0 note=60 velocity=0 time=0
note_on channel=0 note=84 velocity=86 time=1
note_on channel=0 note=87 velocity=102 time=0
note_on channel=0 note=60 velocity=63 time=0
note_on channel=0 note=63 velocity=75 time=0
note_on channel=0 note=63 velocity=0 time=360
note_on channel=0 note=60 velocity=0 time=0
note_on channel=0 note=48 velocity=51 time=0
note_on channel=0 note=51 velocity=60 time=0
note_on channel=0 note=51 velocity=0 time=119
note_on channel=0 note=48 velocity=0 time=0
note_on channel=0 note=51 velocity=67 time=0
note_on channel=0 note=48 velocity=56 time=0
note_on channel=0 note=48 velocity=0 time=0
note_on channel=0 note=75 velocity=0 time=0
note_on channel=0 note=84 velocity=0 time=0
note_on channel=0 note=79 velocity=0 time=0
note_on channel=0 note=51 velocity=0 time=0
note_on channel=0 note=87 velocity=0 time=0
note_on channel=0 note=84 velocity=53 time=0
note_on channel=0 note=79 velocity=45 time=0
note_on channel=0 note=89 velocity=53 time=0
note_on channel=0 note=89 velocity=0 time=108
note_on channel=0 note=87 velocity=45 time=0
note_on channel=0 note=87 velocity=0 time=120
note_on channel=0 note=79 velocity=0 time=0
note_on channel=0 note=84 velocity=0 time=0
note_on channel=0 note=87 velocity=45 time=0
note_on channel=0 note=84 velocity=45 time=0
note_on channel=0 note=92 velocity=53 time=0
note_on channel=0 note=92 velocity=0 time=120
note_on channel=0 note=91 velocity=45 time=0
note_on channel=0 note=91 velocity=0 time=120
note_on channel=0 note=84 velocity=0 time=0
note_on channel=0 note=87 velocity=0 time=0
note_on channel=0 note=89 velocity=53 time=0
note_on channel=0 note=89 velocity=0 time=0
note_on channel=0 note=87 velocity=47 time=0
note_on channel=0 note=87 velocity=0 time=0
note_on channel=0 note=72 velocity=45 time=0
note_on channel=0 note=75 velocity=45 time=0
note_on channel=0 note=80 velocity=53 time=0
note_on channel=0 note=79 velocity=45 time=113
note_on channel=0 note=80 velocity=0 time=7
note_on channel=0 note=79 velocity=0 time=113
note_on channel=0 note=75 velocity=0 time=7
note_on channel=0 note=72 velocity=0 time=0
note_on channel=0 note=77 velocity=53 time=0
note_on channel=0 note=77 velocity=0 time=0
note_on channel=0 note=75 velocity=47 time=0
note_on channel=0 note=75 velocity=0 time=0
note_on channel=0 note=63 velocity=45 time=0
note_on channel=0 note=60 velocity=45 time=0
note_on channel=0 note=68 velocity=53 time=0
note_on channel=0 note=68 velocity=0 time=120
note_on channel=0 note=67 velocity=45 time=0
note_on channel=0 note=67 velocity=0 time=120
note_on channel=0 note=60 velocity=0 time=0
note_on channel=0 note=63 velocity=0 time=0
note_on channel=0 note=65 velocity=53 time=0
note_on channel=0 note=65 velocity=0 time=0
note_on channel=0 note=63 velocity=47 time=0
note_on channel=0 note=63 velocity=0 time=0
note_on channel=0 note=75 velocity=45 time=0
note_on channel=0 note=80 velocity=53 time=0
note_on channel=0 note=72 velocity=45 time=0
note_on channel=0 note=80 velocity=0 time=120
note_on channel=0 note=79 velocity=45 time=0
note_on channel=0 note=79 velocity=0 time=120
note_on channel=0 note=72 velocity=0 time=0
note_on channel=0 note=75 velocity=0 time=0
note_on channel=0 note=77 velocity=53 time=0
note_on channel=0 note=77 velocity=0 time=0
note_on channel=0 note=75 velocity=47 time=0
note_on channel=0 note=75 velocity=0 time=0
note_on channel=0 note=77 velocity=86 time=0
note_on channel=0 note=86 velocity=86 time=0
note_on channel=0 note=89 velocity=102 time=0
note_on channel=0 note=58 velocity=75 time=0
note_on channel=0 note=58 velocity=0 time=280
note_on channel=0 note=74 velocity=76 time=0
note_on channel=0 note=70 velocity=64 time=0
note_on channel=0 note=70 velocity=0 time=119
note_on channel=0 note=74 velocity=0 time=0
note_on channel=0 note=74 velocity=84 time=0
note_on channel=0 note=70 velocity=71 time=0
note_on channel=0 note=70 velocity=0 time=120
note_on channel=0 note=89 velocity=0 time=0
note_on channel=0 note=77 velocity=0 time=0
note_on channel=0 note=86 velocity=0 time=0
note_on channel=0 note=74 velocity=0 time=0
note_on channel=0 note=74 velocity=87 time=0
note_on channel=0 note=77 velocity=73 time=0
note_on channel=0 note=62 velocity=68 time=0
note_on channel=0 note=58 velocity=57 time=0
note_on channel=0 note=58 velocity=0 time=119
note_on channel=0 note=62 velocity=0 time=0
note_on channel=0 note=77 velocity=0 time=1
note_on channel=0 note=74 velocity=0 time=0
note_on channel=0 note=89 velocity=102 time=0
note_on channel=0 note=86 velocity=86 time=0
note_on channel=0 note=58 velocity=63 time=0
note_on channel=0 note=62 velocity=75 time=0
note_on channel=0 note=62 velocity=0 time=360
note_on channel=0 note=58 velocity=0 time=0
note_on channel=0 note=77 velocity=73 time=0
note_on channel=0 note=46 velocity=51 time=0
note_on channel=0 note=50 velocity=60 time=0
note_on channel=0 note=50 velocity=0 time=119
note_on channel=0 note=46 velocity=0 time=0
note_on channel=0 note=77 velocity=0 time=0
note_on channel=0 note=82 velocity=67 time=0
note_on channel=0 note=46 velocity=56 time=0
note_on channel=0 note=50 velocity=67 time=0
note_on channel=0 note=50 velocity=0 time=0
note_on channel=0 note=82 velocity=0 time=0
note_on channel=0 note=89 velocity=0 time=0
note_on channel=0 note=86 velocity=0 time=0
note_on channel=0 note=46 velocity=0 time=0
note_on channel=0 note=86 velocity=53 time=0
note_on channel=0 note=82 velocity=45 time=0
note_on channel=0 note=91 velocity=53 time=0
note_on channel=0 note=91 velocity=0 time=108
note_on channel=0 note=89 velocity=45 time=0
note_on channel=0 note=89 velocity=0 time=120
note_on channel=0 note=82 velocity=0 time=0
note_on channel=0 note=86 velocity=0 time=0
note_on channel=0 note=86 velocity=49 time=0
note_on channel=0 note=89 velocity=49 time=0
note_on channel=0 note=94 velocity=58 time=0
note_on channel=0 note=94 velocity=0 time=120
note_on channel=0 note=92 velocity=50 time=0
note_on channel=0 note=92 velocity=0 time=120
note_on channel=0 note=89 velocity=0 time=0
note_on channel=0 note=86 velocity=0 time=0
note_on channel=0 note=91 velocity=60 time=0
note_on channel=0 note=91 velocity=0 time=0
note_on channel=0 note=89 velocity=54 time=0
note_on channel=0 note=89 velocity=0 time=0
note_on channel=0 note=82 velocity=63 time=0
note_on channel=0 note=77 velocity=54 time=0
note_on channel=0 note=74 velocity=54 time=0
note_on channel=0 note=80 velocity=54 time=113
note_on channel=0 note=82 velocity=0 time=7
note_on channel=0 note=80 velocity=0 time=113
note_on channel=0 note=74 velocity=0 time=7
note_on channel=0 note=77 velocity=0 time=0
note_on channel=0 note=79 velocity=66 time=0
note_on channel=0 note=79 velocity=0 time=0
note_on channel=0 note=77 velocity=59 time=0
note_on channel=0 note=77 velocity=0 time=0
note_on channel=0 note=65 velocity=58 time=0
note_on channel=0 note=62 velocity=58 time=0
note_on channel=0 note=70 velocity=68 time=0
note_on channel=0 note=70 velocity=0 time=120
note_on channel=0 note=68 velocity=59 time=0
note_on channel=0 note=68 velocity=0 time=120
note_on channel=0 note=62 velocity=0 time=0
note_on channel=0 note=65 velocity=0 time=0
note_on channel=0 note=67 velocity=71 time=0
note_on channel=0 note=67 velocity=0 time=0
note_on channel=0 note=65 velocity=64 time=0
note_on channel=0 note=65 velocity=0 time=0
note_on channel=0 note=77 velocity=63 time=0
note_on channel=0 note=74 velocity=63 time=0
note_on channel=0 note=82 velocity=74 time=0
note_on channel=0 note=82 velocity=0 time=120
note_on channel=0 note=80 velocity=63 time=0
note_on channel=0 note=80 velocity=0 time=120
note_on channel=0 note=74 velocity=0 time=0
note_on channel=0 note=77 velocity=0 time=0
note_on channel=0 note=79 velocity=76 time=0
note_on channel=0 note=79 velocity=0 time=0
note_on channel=0 note=77 velocity=69 time=0
note_on channel=0 note=77 velocity=0 time=0
note_on channel=0 note=87 velocity=86 time=0
note_on channel=0 note=91 velocity=102 time=0
note_on channel=0 note=63 velocity=75 time=0
note_on channel=0 note=75 velocity=75 time=0
note_on channel=0 note=75 velocity=0 time=280
note_on channel=0 note=63 velocity=0 time=0
note_on channel=0 note=79 velocity=76 time=0
note_on channel=0 note=75 velocity=64 time=0
note_on channel=0 note=75 velocity=0 time=119
note_on channel=0 note=79 velocity=0 time=0
note_on channel=0 note=75 velocity=71 time=0
note_on channel=0 note=79 velocity=84 time=0
note_on channel=0 note=79 velocity=0 time=120
note_on channel=0 note=87 velocity=0 time=0
note_on channel=0 note=91 velocity=0 time=0
note_on channel=0 note=75 velocity=0 time=0
note_on channel=0 note=79 velocity=73 time=0
note_on channel=0 note=82 velocity=73 time=0
note_on channel=0 note=67 velocity=68 time=0
note_on channel=0 note=63 velocity=57 time=0
note_on channel=0 note=63 velocity=0 time=119
note_on channel=0 note=67 velocity=0 time=0
note_on channel=0 note=82 velocity=0 time=1
note_on channel=0 note=79 velocity=0 time=0
note_on channel=0 note=91 velocity=102 time=0
note_on channel=0 note=87 velocity=86 time=0
note_on channel=0 note=63 velocity=63 time=0
note_on channel=0 note=67 velocity=75 time=0
note_on channel=0 note=67 velocity=0 time=360
note_on channel=0 note=63 velocity=0 time=0
note_on channel=0 note=79 velocity=87 time=0
note_on channel=0 note=51 velocity=58 time=0
note_on channel=0 note=63 velocity=69 time=0
note_on channel=0 note=63 velocity=0 time=119
note_on channel=0 note=51 velocity=0 time=0
note_on channel=0 note=79 velocity=0 time=0
note_on channel=0 note=84 velocity=80 time=0
note_on channel=0 note=63 velocity=77 time=0
note_on channel=0 note=51 velocity=64 time=0
note_on channel=0 note=51 velocity=0 time=240
note_on channel=0 note=84 velocity=0 time=0
note_on channel=0 note=91 velocity=0 time=0
note_on channel=0 note=87 velocity=0 time=0
note_on channel=0 note=63 velocity=0 time=0
note_on channel=0 note=78 velocity=73 time=56
note_on channel=0 note=81 velocity=87 time=0
note_on channel=0 note=81 velocity=0 time=0
note_on channel=0 note=78 velocity=0 time=0
note_on channel=0 note=93 velocity=106 time=0
note_on channel=0 note=90 velocity=90 time=0
note_on channel=0 note=74 velocity=79 time=360
note_on channel=0 note=62 velocity=67 time=0
note_on channel=0 note=62 velocity=0 time=119
note_on channel=0 note=74 velocity=0 time=0
note_on channel=0 note=74 velocity=88 time=0
note_on channel=0 note=62 velocity=74 time=0
note_on channel=0 note=62 velocity=0 time=120
note_on channel=0 note=93 velocity=0 time=0
note_on channel=0 note=90 velocity=0 time=0
note_on channel=0 note=74 velocity=0 time=0
note_on channel=0 note=81 velocity=76 time=0
note_on channel=0 note=78 velocity=76 time=0
note_on channel=0 note=50 velocity=59 time=0
note_on channel=0 note=62 velocity=71 time=0
note_on channel=0 note=62 velocity=0 time=119
note_on channel=0 note=50 velocity=0 time=0
note_on channel=0 note=78 velocity=0 time=1
note_on channel=0 note=81 velocity=0 time=0
note_on channel=0 note=93 velocity=106 time=0
note_on channel=0 note=90 velocity=90 time=0
note_on channel=0 note=62 velocity=78 time=0
note_on channel=0 note=50 velocity=66 time=0
note_on channel=0 note=50 velocity=0 time=360
note_on channel=0 note=62 velocity=0 time=0
note_on channel=0 note=81 velocity=91 time=0
note_on channel=0 note=50 velocity=72 time=0
note_on channel=0 note=38 velocity=60 time=0
note_on channel=0 note=38 velocity=0 time=119
note_on channel=0 note=50 velocity=0 time=0
note_on channel=0 note=81 velocity=0 time=0
note_on channel=0 note=86 velocity=84 time=0
note_on channel=0 note=90 velocity=90 time=0
note_on channel=0 note=50 velocity=80 time=0
note_on channel=0 note=38 velocity=67 time=0
note_on channel=0 note=38 velocity=0 time=0
note_on channel=0 note=90 velocity=0 time=0
note_on channel=0 note=86 velocity=0 time=0
note_on channel=0 note=93 velocity=0 time=0
note_on channel=0 note=50 velocity=0 time=0
note_on channel=0 note=90 velocity=0 time=0
note_on channel=0 note=80 velocity=76 time=56
note_on channel=0 note=83 velocity=91 time=0
note_on channel=0 note=83 velocity=0 time=0
note_on channel=0 note=80 velocity=0 time=0
note_on channel=0 note=95 velocity=97 time=0
note_on channel=0 note=86 velocity=82 time=0
note_on channel=0 note=89 velocity=82 time=0
note_on channel=0 note=92 velocity=82 time=0
note_on channel=0 note=83 velocity=82 time=0
note_on channel=0 note=62 velocity=59 time=360
note_on channel=0 note=65 velocity=59 time=0
note_on channel=0 note=68 velocity=59 time=0
note_on channel=0 note=74 velocity=71 time=0
note_on channel=0 note=71 velocity=59 time=0
note_on channel=0 note=71 velocity=0 time=119
note_on channel=0 note=74 velocity=0 time=0
note_on channel=0 note=65 velocity=0 time=0
note_on channel=0 note=68 velocity=0 time=0
note_on channel=0 note=62 velocity=0 time=0
note_on channel=0 note=68 velocity=66 time=0
note_on channel=0 note=71 velocity=66 time=0
note_on channel=0 note=62 velocity=66 time=0
note_on channel=0 note=74 velocity=78 time=0
note_on channel=0 note=65 velocity=66 time=0
note_on channel=0 note=65 velocity=0 time=120
note_on channel=0 note=92 velocity=0 time=0
note_on channel=0 note=95 velocity=0 time=0
note_on channel=0 note=89 velocity=0 time=0
note_on channel=0 note=86 velocity=0 time=0
note_on channel=0 note=83 velocity=0 time=0
note_on channel=0 note=62 velocity=0 time=0
note_on channel=0 note=71 velocity=0 time=0
note_on channel=0 note=68 velocity=0 time=0
note_on channel=0 note=74 velocity=0 time=0
note_on channel=0 note=80 velocity=76 time=0
note_on channel=0 note=83 velocity=76 time=0
note_on channel=0 note=56 velocity=53 time=0
note_on channel=0 note=53 velocity=53 time=0
note_on channel=0 note=50 velocity=53 time=0
note_on channel=0 note=59 velocity=53 time=0
note_on channel=0 note=62 velocity=64 time=0
note_on channel=0 note=62 velocity=0 time=119
note_on channel=0 note=50 velocity=0 time=0
note_on channel=0 note=53 velocity=0 time=0
note_on channel=0 note=56 velocity=0 time=0
note_on channel=0 note=59 velocity=0 time=0
note_on channel=0 note=80 velocity=0 time=0
note_on channel=0 note=83 velocity=0 time=0
note_on channel=0 note=89 velocity=82 time=0
note_on channel=0 note=83 velocity=82 time=0
note_on channel=0 note=86 velocity=82 time=0
note_on channel=0 note=92 velocity=82 time=0
note_on channel=0 note=95 velocity=97 time=0
note_on channel=0 note=62 velocity=78 time=0
note_on channel=0 note=50 velocity=66 time=0
note_on channel=0 note=59 velocity=66 time=0
note_on channel=0 note=56 velocity=66 time=0
note_on channel=0 note=53 velocity=66 time=0
note_on channel=0 note=53 velocity=0 time=360
note_on channel=0 note=56 velocity=0 time=0
note_on channel=0 note=50 velocity=0 time=0
note_on channel=0 note=59 velocity=0 time=0
note_on channel=0 note=62 velocity=0 time=0
note_on channel=0 note=44 velocity=53 time=0
note_on channel=0 note=38 velocity=53 time=0
note_on channel=0 note=41 velocity=53 time=0
note_on channel=0 note=47 velocity=53 time=0
note_on channel=0 note=50 velocity=64 time=0
note_on channel=0 note=50 velocity=0 time=119
note_on channel=0 note=47 velocity=0 time=0
note_on channel=0 note=38 velocity=0 time=0
note_on channel=0 note=41 velocity=0 time=0
note_on channel=0 note=44 velocity=0 time=0
note_on channel=0 note=47 velocity=66 time=0
note_on channel=0 note=50 velocity=78 time=0
note_on channel=0 note=38 velocity=66 time=0
note_on channel=0 note=41 velocity=66 time=0
note_on channel=0 note=44 velocity=66 time=0
note_on channel=0 note=44 velocity=0 time=70
note_on channel=0 note=89 velocity=0 time=0
note_on channel=0 note=86 velocity=0 time=0
note_on channel=0 note=92 velocity=0 time=0
note_on channel=0 note=95 velocity=0 time=0
note_on channel=0 note=83 velocity=0 time=0
note_on channel=0 note=38 velocity=0 time=0
note_on channel=0 note=50 velocity=0 time=0
note_on channel=0 note=47 velocity=0 time=0
note_on channel=0 note=41 velocity=0 time=0
note_on channel=0 note=82 velocity=76 time=0
note_on channel=0 note=76 velocity=76 time=0
note_on channel=0 note=79 velocity=76 time=0
note_on channel=0 note=85 velocity=76 time=0
note_on channel=0 note=85 velocity=0 time=0
note_on channel=0 note=82 velocity=0 time=0
note_on channel=0 note=76 velocity=0 time=0
note_on channel=0 note=79 velocity=0 time=0
note_on channel=0 note=94 velocity=82 time=0
note_on channel=0 note=91 velocity=82 time=0
note_on channel=0 note=97 velocity=97 time=0
note_on channel=0 note=88 velocity=82 time=0
note_on channel=0 note=67 velocity=59 time=360
note_on channel=0 note=62 velocity=59 time=0
note_on channel=0 note=70 velocity=59 time=0
note_on channel=0 note=76 velocity=71 time=0
note_on channel=0 note=76 velocity=0 time=119
note_on channel=0 note=70 velocity=0 time=0
note_on channel=0 note=67 velocity=0 time=0
note_on channel=0 note=62 velocity=0 time=0
note_on channel=0 note=76 velocity=78 time=0
note_on channel=0 note=62 velocity=66 time=0
note_on channel=0 note=70 velocity=66 time=0
note_on channel=0 note=67 velocity=66 time=0
note_on channel=0 note=67 velocity=0 time=120
note_on channel=0 note=88 velocity=0 time=0
note_on channel=0 note=76 velocity=0 time=0
note_on channel=0 note=91 velocity=0 time=0
note_on channel=0 note=94 velocity=0 time=0
note_on channel=0 note=97 velocity=0 time=0
note_on channel=0 note=62 velocity=0 time=0
note_on channel=0 note=70 velocity=0 time=0
note_on channel=0 note=82 velocity=76 time=0
note_on channel=0 note=85 velocity=76 time=0
note_on channel=0 note=79 velocity=76 time=0
note_on channel=0 note=76 velocity=76 time=0
note_on channel=0 note=58 velocity=53 time=0
note_on channel=0 note=50 velocity=53 time=0
note_on channel=0 note=64 velocity=64 time=0
note_on channel=0 note=55 velocity=53 time=0
note_on channel=0 note=55 velocity=0 time=119
note_on channel=0 note=64 velocity=0 time=0
note_on channel=0 note=58 velocity=0 time=0
note_on channel=0 note=50 velocity=0 time=0
note_on channel=0 note=79 velocity=0 time=0
note_on channel=0 note=76 velocity=0 time=0
note_on channel=0 note=85 velocity=0 time=0
note_on channel=0 note=82 velocity=0 time=0
note_on channel=0 note=91 velocity=82 time=0
note_on channel=0 note=88 velocity=82 time=0
note_on channel=0 note=94 velocity=82 time=0
note_on channel=0 note=97 velocity=97 time=0
note_on channel=0 note=58 velocity=66 time=0
note_on channel=0 note=50 velocity=66 time=0
note_on channel=0 note=64 velocity=78 time=0
note_on channel=0 note=55 velocity=66 time=0
note_on channel=0 note=55 velocity=0 time=120
note_on channel=0 note=64 velocity=0 time=0
note_on channel=0 note=58 velocity=0 time=0
note_on channel=0 note=50 velocity=0 time=0
note_on channel=0 note=46 velocity=53 time=0
note_on channel=0 note=43 velocity=53 time=0
note_on channel=0 note=52 velocity=64 time=0
note_on channel=0 note=38 velocity=53 time=0
note_on channel=0 note=38 velocity=0 time=119
note_on channel=0 note=52 velocity=0 time=0
note_on channel=0 note=46 velocity=0 time=0
note_on channel=0 note=43 velocity=0 time=0
note_on channel=0 note=43 velocity=66 time=0
note_on channel=0 note=38 velocity=66 time=0
note_on channel=0 note=52 velocity=78 time=0
note_on channel=0 note=46 velocity=66 time=0
note_on channel=0 note=46 velocity=0 time=70
note_on channel=0 note=94 velocity=0 time=0
note_on channel=0 note=43 velocity=0 time=0
note_on channel=0 note=88 velocity=0 time=0
note_on channel=0 note=97 velocity=0 time=0
note_on channel=0 note=91 velocity=0 time=0
note_on channel=0 note=38 velocity=0 time=0
note_on channel=0 note=52 velocity=0 time=0
note_on channel=0 note=86 velocity=83 time=0
note_on channel=0 note=81 velocity=83 time=0
note_on channel=0 note=78 velocity=83 time=0
note_on channel=0 note=78 velocity=0 time=0
note_on channel=0 note=81 velocity=0 time=0
note_on channel=0 note=86 velocity=0 time=0
note_on channel=0 note=86 velocity=90 time=0
note_on channel=0 note=90 velocity=90 time=0
note_on channel=0 note=93 velocity=90 time=0
note_on channel=0 note=98 velocity=106 time=0
note_on channel=0 note=98 velocity=0 time=360
note_on channel=0 note=86 velocity=0 time=0
note_on channel=0 note=90 velocity=0 time=0
note_on channel=0 note=93 velocity=0 time=0
note_on channel=0 note=86 velocity=80 time=0
note_on channel=0 note=74 velocity=67 time=0
note_on channel=0 note=62 velocity=56 time=0
note_on channel=0 note=66 velocity=56 time=0
note_on channel=0 note=69 velocity=56 time=0
note_on channel=0 note=69 velocity=0 time=119
note_on channel=0 note=62 velocity=0 time=0
note_on channel=0 note=66 velocity=0 time=0
note_on channel=0 note=74 velocity=0 time=0
note_on channel=0 note=86 velocity=0 time=0
note_on channel=0 note=98 velocity=100 time=0
note_on channel=0 note=74 velocity=81 time=0
note_on channel=0 note=69 velocity=68 time=0
note_on channel=0 note=66 velocity=68 time=0
note_on channel=0 note=62 velocity=68 time=0
note_on channel=0 note=62 velocity=0 time=117
note_on channel=0 note=69 velocity=0 time=0
note_on channel=0 note=66 velocity=0 time=0
note_on channel=0 note=74 velocity=0 time=0
note_on channel=0 note=98 velocity=0 time=3
note_on channel=0 note=74 velocity=74 time=0
note_on channel=0 note=50 velocity=52 time=0
note_on channel=0 note=62 velocity=62 time=0
note_on channel=0 note=62 velocity=0 time=119
note_on channel=0 note=50 velocity=0 time=0
note_on channel=0 note=74 velocity=0 time=1
note_on channel=0 note=86 velocity=93 time=0
note_on channel=0 note=62 velocity=69 time=0
note_on channel=0 note=50 velocity=58 time=0
note_on channel=0 note=50 velocity=0 time=360
note_on channel=0 note=62 velocity=0 time=0
note_on channel=0 note=86 velocity=0 time=0
note_on channel=0 note=74 velocity=68 time=0
note_on channel=0 note=50 velocity=57 time=0
note_on channel=0 note=38 velocity=47 time=0
note_on channel=0 note=38 velocity=0 time=119
note_on channel=0 note=50 velocity=0 time=0
note_on channel=0 note=74 velocity=0 time=1
note_on channel=0 note=86 velocity=85 time=0
note_on channel=0 note=38 velocity=54 time=0
note_on channel=0 note=50 velocity=64 time=0
note_on channel=0 note=50 velocity=0 time=120
note_on channel=0 note=38 velocity=0 time=0
note_on channel=0 note=86 velocity=0 time=0
note_on channel=0 note=74 velocity=62 time=0
note_on channel=0 note=50 velocity=52 time=0
note_on channel=0 note=50 velocity=0 time=0
note_on channel=0 note=74 velocity=0 time=0
note_on channel=0 note=86 velocity=78 time=0
note_on channel=0 note=38 velocity=59 time=0
note_on channel=0 note=38 velocity=0 time=360
note_on channel=0 note=86 velocity=0 time=0
note_on channel=0 note=74 velocity=56 time=0
note_on channel=0 note=62 velocity=47 time=0
note_on channel=0 note=62 velocity=0 time=0
note_on channel=0 note=74 velocity=0 time=0
note_on channel=0 note=86 velocity=70 time=0
note_on channel=0 note=50 velocity=53 time=0
note_on channel=0 note=50 velocity=0 time=360
note_on channel=0 note=86 velocity=0 time=0
note_on channel=0 note=74 velocity=51 time=0
note_on channel=0 note=62 velocity=42 time=0
note_on channel=0 note=62 velocity=0 time=0
note_on channel=0 note=74 velocity=0 time=0
note_on channel=0 note=86 velocity=63 time=0
note_on channel=0 note=50 velocity=46 time=0
note_on channel=0 note=50 velocity=0 time=360
note_on channel=0 note=86 velocity=0 time=0
note_on channel=0 note=74 velocity=45 time=0
note_on channel=0 note=62 velocity=37 time=0
note_on channel=0 note=62 velocity=0 time=0
note_on channel=0 note=74 velocity=0 time=0
note_on channel=0 note=86 velocity=55 time=0
note_on channel=0 note=50 velocity=42 time=0
note_on channel=0 note=50 velocity=0 time=0
note_on channel=0 note=86 velocity=0 time=0
note_on channel=0 note=75 velocity=39 time=0
note_on channel=0 note=71 velocity=32 time=0
note_on channel=0 note=71 velocity=0 time=0
note_on channel=0 note=75 velocity=0 time=0
note_on channel=0 note=87 velocity=58 time=0
note_on channel=0 note=59 velocity=40 time=0
note_on channel=0 note=59 velocity=0 time=40
note_on channel=0 note=71 velocity=32 time=0
note_on channel=0 note=71 velocity=0 time=80
note_on channel=0 note=70 velocity=32 time=0
note_on channel=0 note=70 velocity=0 time=0
note_on channel=0 note=75 velocity=49 time=0
note_on channel=0 note=71 velocity=40 time=0
note_on channel=0 note=71 velocity=0 time=160
note_on channel=0 note=66 velocity=33 time=0
note_on channel=0 note=66 velocity=0 time=160
note_on channel=0 note=71 velocity=33 time=0
note_on channel=0 note=71 velocity=0 time=0
note_on channel=0 note=75 velocity=0 time=0
note_on channel=0 note=87 velocity=0 time=0
note_on channel=0 note=88 velocity=57 time=0
note_on channel=0 note=76 velocity=48 time=0
note_on channel=0 note=67 velocity=40 time=0
note_on channel=0 note=67 velocity=0 time=74
note_on channel=0 note=71 velocity=31 time=0
note_on channel=0 note=71 velocity=0 time=160
note_on channel=0 note=67 velocity=31 time=0
note_on channel=0 note=67 velocity=0 time=0
note_on channel=0 note=88 velocity=0 time=0
note_on channel=0 note=79 velocity=61 time=0
note_on channel=0 note=71 velocity=40 time=0
note_on channel=0 note=71 velocity=0 time=160
note_on channel=0 note=64 velocity=33 time=0
note_on channel=0 note=64 velocity=0 time=0
note_on channel=0 note=71 velocity=33 time=0
note_on channel=0 note=71 velocity=0 time=0
note_on channel=0 note=79 velocity=0 time=0
note_on channel=0 note=76 velocity=0 time=0
note_on channel=0 note=78 velocity=67 time=0
note_on channel=0 note=83 velocity=56 time=0
note_on channel=0 note=63 velocity=40 time=0
note_on channel=0 note=63 velocity=0 time=26
note_on channel=0 note=71 velocity=31 time=0
note_on channel=0 note=71 velocity=0 time=160
note_on channel=0 note=63 velocity=31 time=0
note_on channel=0 note=63 velocity=0 time=0
note_on channel=0 note=78 velocity=0 time=0
note_on channel=0 note=75 velocity=61 time=0
note_on channel=0 note=71 velocity=40 time=0
note_on channel=0 note=71 velocity=0 time=160
note_on channel=0 note=59 velocity=32 time=0
note_on channel=0 note=59 velocity=0 time=0
note_on channel=0 note=71 velocity=32 time=0
note_on channel=0 note=71 velocity=0 time=0
note_on channel=0 note=75 velocity=0 time=0
note_on channel=0 note=83 velocity=0 time=0
note_on channel=0 note=76 velocity=51 time=0
note_on channel=0 note=71 velocity=51 time=0
note_on channel=0 note=79 velocity=60 time=0
note_on channel=0 note=59 velocity=40 time=0
note_on channel=0 note=59 velocity=0 time=74
note_on channel=0 note=64 velocity=33 time=0
note_on channel=0 note=64 velocity=0 time=160
note_on channel=0 note=59 velocity=33 time=0
note_on channel=0 note=59 velocity=0 time=160
note_on channel=0 note=76 velocity=0 time=0
note_on channel=0 note=71 velocity=0 time=0
note_on channel=0 note=79 velocity=0 time=0
note_on channel=0 note=71 velocity=53 time=0
note_on channel=0 note=76 velocity=63 time=0
note_on channel=0 note=67 velocity=40 time=0
note_on channel=0 note=67 velocity=0 time=160
note_on channel=0 note=64 velocity=32 time=0
note_on channel=0 note=64 velocity=0 time=0
note_on channel=0 note=67 velocity=32 time=0
note_on channel=0 note=67 velocity=0 time=0
note_on channel=0 note=76 velocity=0 time=0
note_on channel=0 note=71 velocity=0 time=0
note_on channel=0 note=74 velocity=66 time=0
note_on channel=0 note=66 velocity=40 time=0
note_on channel=0 note=66 velocity=0 time=68
note_on channel=0 note=71 velocity=32 time=0
note_on channel=0 note=71 velocity=0 time=160
note_on channel=0 note=66 velocity=32 time=0
note_on channel=0 note=66 velocity=0 time=0
note_on channel=0 note=74 velocity=0 time=0
note_on channel=0 note=75 velocity=59 time=0
note_on channel=0 note=71 velocity=40 time=0
note_on channel=0 note=71 velocity=0 time=68
note_on channel=0 note=66 velocity=36 time=0
note_on channel=0 note=66 velocity=0 time=0
note_on channel=0 note=71 velocity=36 time=0
note_on channel=0 note=71 velocity=0 time=0
note_on channel=0 note=75 velocity=0 time=0
note_on channel=0 note=78 velocity=64 time=0
note_on channel=0 note=66 velocity=40 time=0
note_on channel=0 note=66 velocity=0 time=54
note_on channel=0 note=70 velocity=33 time=0
note_on channel=0 note=70 velocity=0 time=160
note_on channel=0 note=66 velocity=33 time=0
note_on channel=0 note=66 velocity=0 time=160
note_on channel=0 note=78 velocity=0 time=0
note_on channel=0 note=76 velocity=63 time=0
note_on channel=0 note=70 velocity=40 time=0
note_on channel=0 note=70 velocity=0 time=47
note_on channel=0 note=66 velocity=34 time=0
note_on channel=0 note=76 velocity=0 time=80
note_on channel=0 note=73 velocity=57 time=0
note_on channel=0 note=66 velocity=0 time=80
note_on channel=0 note=70 velocity=34 time=0
note_on channel=0 note=70 velocity=0 time=0
note_on channel=0 note=73 velocity=0 time=0
note_on channel=0 note=75 velocity=66 time=0
note_on channel=0 note=66 velocity=40 time=0
note_on channel=0 note=66 velocity=0 time=68
note_on channel=0 note=71 velocity=32 time=0
note_on channel=0 note=75 velocity=0 time=80
note_on channel=0 note=62 velocity=48 time=0
note_on channel=0 note=71 velocity=0 time=80
note_on channel=0 note=66 velocity=32 time=0
note_on channel=0 note=66 velocity=0 time=0
note_on channel=0 note=62 velocity=0 time=0
note_on channel=0 note=63 velocity=56 time=0
note_on channel=0 note=71 velocity=40 time=0
note_on channel=0 note=71 velocity=0 time=68
note_on channel=0 note=66 velocity=36 time=0
note_on channel=0 note=66 velocity=0 time=0
note_on channel=0 note=71 velocity=36 time=0
note_on channel=0 note=71 velocity=0 time=0
note_on channel=0 note=63 velocity=0 time=0
note_on channel=0 note=66 velocity=64 time=0
note_on channel=0 note=70 velocity=40 time=0
note_on channel=0 note=70 velocity=0 time=54
note_on channel=0 note=73 velocity=33 time=0
note_on channel=0 note=73 velocity=0 time=160
note_on channel=0 note=70 velocity=33 time=0
note_on channel=0 note=70 velocity=0 time=160
note_on channel=0 note=66 velocity=0 time=0
note_on channel=0 note=64 velocity=52 time=0
note_on channel=0 note=73 velocity=40 time=0
note_on channel=0 note=73 velocity=0 time=0
note_on channel=0 note=70 velocity=34 time=0
note_on channel=0 note=64 velocity=0 time=80
note_on channel=0 note=61 velocity=48 time=0
note_on channel=0 note=70 velocity=0 time=80
note_on channel=0 note=73 velocity=34 time=0
note_on channel=0 note=73 velocity=0 time=0
note_on channel=0 note=61 velocity=0 time=0
note_on channel=0 note=71 velocity=59 time=0
note_on channel=0 note=75 velocity=59 time=0
note_on channel=0 note=66 velocity=40 time=0
note_on channel=0 note=75 velocity=0 time=28
note_on channel=0 note=71 velocity=0 time=0
note_on channel=0 note=76 velocity=48 time=0
note_on channel=0 note=66 velocity=0 time=40
note_on channel=0 note=71 velocity=32 time=0
note_on channel=0 note=76 velocity=0 time=0
note_on channel=0 note=75 velocity=48 time=0
note_on channel=0 note=71 velocity=0 time=80
note_on channel=0 note=66 velocity=32 time=0
note_on channel=0 note=75 velocity=0 time=40
note_on channel=0 note=74 velocity=48 time=0
note_on channel=0 note=74 velocity=0 time=120
note_on channel=0 note=66 velocity=0 time=0
note_on channel=0 note=75 velocity=55 time=0
note_on channel=0 note=71 velocity=40 time=0
note_on channel=0 note=75 velocity=0 time=28
note_on channel=0 note=76 velocity=48 time=0
note_on channel=0 note=71 velocity=0 time=40
note_on channel=0 note=66 velocity=36 time=0
note_on channel=0 note=76 velocity=0 time=80
note_on channel=0 note=78 velocity=48 time=0
note_on channel=0 note=66 velocity=0 time=0
note_on channel=0 note=71 velocity=36 time=0
note_on channel=0 note=78 velocity=0 time=40
note_on channel=0 note=77 velocity=48 time=0
note_on channel=0 note=77 velocity=0 time=0
note_on channel=0 note=71 velocity=0 time=0
note_on channel=0 note=80 velocity=57 time=0
note_on channel=0 note=66 velocity=40 time=0
note_on channel=0 note=80 velocity=0 time=14
note_on channel=0 note=78 velocity=54 time=0
note_on channel=0 note=66 velocity=0 time=40
note_on channel=0 note=70 velocity=33 time=0
note_on channel=0 note=78 velocity=0 time=80
note_on channel=0 note=77 velocity=54 time=0
note_on channel=0 note=70 velocity=0 time=80
note_on channel=0 note=66 velocity=33 time=0
note_on channel=0 note=77 velocity=0 time=40
note_on channel=0 note=78 velocity=54 time=0
note_on channel=0 note=78 velocity=0 time=120
note_on channel=0 note=66 velocity=0 time=0
note_on channel=0 note=76 velocity=56 time=0
note_on channel=0 note=70 velocity=40 time=0
note_on channel=0 note=76 velocity=0 time=7
note_on channel=0 note=75 velocity=53 time=0
note_on channel=0 note=70 velocity=0 time=40
note_on channel=0 note=66 velocity=34 time=0
note_on channel=0 note=75 velocity=0 time=80
note_on channel=0 note=76 velocity=51 time=0
note_on channel=0 note=66 velocity=0 time=80
note_on channel=0 note=70 velocity=34 time=0
note_on channel=0 note=76 velocity=0 time=0
note_on channel=0 note=73 velocity=45 time=0
note_on channel=0 note=73 velocity=0 time=0
note_on channel=0 note=70 velocity=0 time=0
note_on channel=0 note=63 velocity=59 time=0
note_on channel=0 note=75 velocity=59 time=0
note_on channel=0 note=66 velocity=40 time=0
note_on channel=0 note=63 velocity=0 time=28
note_on channel=0 note=64 velocity=48 time=0
note_on channel=0 note=66 velocity=0 time=40
note_on channel=0 note=71 velocity=32 time=0
note_on channel=0 note=64 velocity=0 time=0
note_on channel=0 note=75 velocity=0 time=0
note_on channel=0 note=63 velocity=48 time=0
note_on channel=0 note=71 velocity=0 time=80
note_on channel=0 note=66 velocity=32 time=0
note_on channel=0 note=63 velocity=0 time=40
note_on channel=0 note=62 velocity=48 time=0
note_on channel=0 note=62 velocity=0 time=120
note_on channel=0 note=66 velocity=0 time=0
note_on channel=0 note=63 velocity=55 time=0
note_on channel=0 note=71 velocity=40 time=0
note_on channel=0 note=63 velocity=0 time=28
note_on channel=0 note=64 velocity=48 time=0
note_on channel=0 note=71 velocity=0 time=40
note_on channel=0 note=66 velocity=36 time=0
note_on channel=0 note=64 velocity=0 time=80
note_on channel=0 note=66 velocity=48 time=0
note_on channel=0 note=66 velocity=0 time=0
note_on channel=0 note=71 velocity=36 time=0
note_on channel=0 note=66 velocity=0 time=0
note_on channel=0 note=65 velocity=48 time=0
note_on channel=0 note=65 velocity=0 time=0
note_on channel=0 note=71 velocity=0 time=0
note_on channel=0 note=68 velocity=57 time=0
note_on channel=0 note=70 velocity=40 time=0
note_on channel=0 note=68 velocity=0 time=14
note_on channel=0 note=66 velocity=54 time=0
note_on channel=0 note=70 velocity=0 time=40
note_on channel=0 note=73 velocity=33 time=0
note_on channel=0 note=66 velocity=0 time=80
note_on channel=0 note=65 velocity=54 time=0
note_on channel=0 note=73 velocity=0 time=80
note_on channel=0 note=70 velocity=33 time=0
note_on channel=0 note=65 velocity=0 time=40
note_on channel=0 note=66 velocity=54 time=0
note_on channel=0 note=66 velocity=0 time=120
note_on channel=0 note=70 velocity=0 time=0
note_on channel=0 note=64 velocity=56 time=0
note_on channel=0 note=73 velocity=40 time=0
note_on channel=0 note=64 velocity=0 time=7
note_on channel=0 note=63 velocity=53 time=0
note_on channel=0 note=73 velocity=0 time=40
note_on channel=0 note=63 velocity=0 time=0
note_on channel=0 note=64 velocity=51 time=0
note_on channel=0 note=64 velocity=0 time=0
note_on channel=0 note=66 velocity=45 time=0
note_on channel=0 note=30 velocity=70 time=0
note_on channel=0 note=30 velocity=0 time=0
note_on channel=0 note=66 velocity=0 time=0
note_on channel=0 note=61 velocity=51 time=0
note_on channel=0 note=54 velocity=51 time=0
note_on channel=0 note=64 velocity=61 time=0
note_on channel=0 note=34 velocity=68 time=0
note_on channel=0 note=64 velocity=0 time=174
note_on channel=0 note=61 velocity=0 time=0
note_on channel=0 note=54 velocity=0 time=0
note_on channel=0 note=34 velocity=0 time=118
note_on channel=0 note=34 velocity=61 time=2
note_on channel=0 note=34 velocity=0 time=93
note_on channel=0 note=34 velocity=68 time=2
note_on channel=0 note=34 velocity=0 time=117
note_on channel=0 note=35 velocity=64 time=5
note_on channel=0 note=35 velocity=0 time=90
note_on channel=0 note=54 velocity=63 time=0
note_on channel=0 note=34 velocity=61 time=0
note_on channel=0 note=34 velocity=0 time=90
note_on channel=0 note=54 velocity=0 time=0
note_on channel=0 note=34 velocity=61 time=0
note_on channel=0 note=58 velocity=61 time=0
note_on channel=0 note=34 velocity=0 time=120
note_on channel=0 note=30 velocity=61 time=60
note_on channel=0 note=58 velocity=0 time=118
note_on channel=0 note=58 velocity=54 time=2
note_on channel=0 note=30 velocity=0 time=60
note_on channel=0 note=58 velocity=0 time=58
note_on channel=0 note=58 velocity=61 time=2
note_on channel=0 note=58 velocity=0 time=180
note_on channel=0 note=59 velocity=48 time=60
note_on channel=0 note=59 velocity=0 time=45
note_on channel=0 note=66 velocity=63 time=0
note_on channel=0 note=58 velocity=51 time=0
note_on channel=0 note=58 velocity=0 time=90
note_on channel=0 note=66 velocity=0 time=0
note_on channel=0 note=73 velocity=61 time=0
note_on channel=0 note=58 velocity=51 time=0
note_on channel=0 note=58 velocity=0 time=60
note_on channel=0 note=54 velocity=51 time=120
note_on channel=0 note=73 velocity=0 time=118
note_on channel=0 note=54 velocity=0 time=2
note_on channel=0 note=73 velocity=54 time=0
note_on channel=0 note=73 velocity=0 time=118
note_on channel=0 note=73 velocity=61 time=2
note_on channel=0 note=73 velocity=0 time=180
note_on channel=0 note=75 velocity=48 time=60
note_on channel=0 note=75 velocity=0 time=90
note_on channel=0 note=61 velocity=63 time=0
note_on channel=0 note=73 velocity=51 time=0
note_on channel=0 note=73 velocity=0 time=90
note_on channel=0 note=61 velocity=0 time=0
note_on channel=0 note=73 velocity=51 time=0
note_on channel=0 note=64 velocity=61 time=0
note_on channel=0 note=73 velocity=0 time=84
note_on channel=0 note=70 velocity=51 time=120
note_on channel=0 note=64 velocity=0 time=118
note_on channel=0 note=70 velocity=0 time=2
note_on channel=0 note=64 velocity=54 time=0
note_on channel=0 note=64 velocity=0 time=12
note_on channel=0 note=64 velocity=61 time=2
note_on channel=0 note=64 velocity=0 time=180
note_on channel=0 note=66 velocity=48 time=60
note_on channel=0 note=66 velocity=0 time=90
note_on channel=0 note=64 velocity=51 time=0
note_on channel=0 note=30 velocity=63 time=0
note_on channel=0 note=64 velocity=0 time=90
note_on channel=0 note=30 velocity=0 time=0
note_on channel=0 note=64 velocity=51 time=0
note_on channel=0 note=40 velocity=61 time=0
note_on channel=0 note=64 velocity=0 time=67
note_on channel=0 note=61 velocity=51 time=120
note_on channel=0 note=40 velocity=0 time=118
note_on channel=0 note=61 velocity=0 time=2
note_on channel=0 note=42 velocity=63 time=0
note_on channel=0 note=40 velocity=54 time=0
note_on channel=0 note=40 velocity=0 time=118
note_on channel=0 note=42 velocity=0 time=2
note_on channel=0 note=52 velocity=61 time=0
note_on channel=0 note=40 velocity=61 time=0
note_on channel=0 note=40 velocity=0 time=56
note_on channel=0 note=52 velocity=0 time=0
note_on channel=0 note=66 velocity=63 time=0
note_on channel=0 note=52 velocity=54 time=0
note_on channel=0 note=66 velocity=0 time=90
note_on channel=0 note=52 velocity=0 time=0
note_on channel=0 note=76 velocity=67 time=0
note_on channel=0 note=52 velocity=61 time=0
note_on channel=0 note=52 velocity=0 time=102
note_on channel=0 note=76 velocity=0 time=178
note_on channel=0 note=64 velocity=63 time=2
note_on channel=0 note=76 velocity=54 time=0
note_on channel=0 note=64 velocity=0 time=90
note_on channel=0 note=76 velocity=0 time=28
note_on channel=0 note=73 velocity=61 time=2
note_on channel=0 note=76 velocity=61 time=0
note_on channel=0 note=76 velocity=0 time=113
note_on channel=0 note=73 velocity=0 time=0
note_on channel=0 note=73 velocity=54 time=0
note_on channel=0 note=37 velocity=63 time=0
note_on channel=0 note=37 velocity=0 time=0
note_on channel=0 note=73 velocity=0 time=0
note_on channel=0 note=73 velocity=61 time=0
note_on channel=0 note=46 velocity=61 time=0
note_on channel=0 note=73 velocity=0 time=120
note_on channel=0 note=46 velocity=0 time=178
note_on channel=0 note=49 velocity=63 time=2
note_on channel=0 note=46 velocity=54 time=0
note_on channel=0 note=46 velocity=0 time=118
note_on channel=0 note=49 velocity=0 time=2
note_on channel=0 note=58 velocity=61 time=0
note_on channel=0 note=46 velocity=61 time=0
note_on channel=0 note=46 velocity=0 time=56
note_on channel=0 note=58 velocity=0 time=0
note_on channel=0 note=73 velocity=63 time=0
note_on channel=0 note=58 velocity=54 time=0
note_on channel=0 note=73 velocity=0 time=90
note_on channel=0 note=58 velocity=0 time=28
note_on channel=0 note=82 velocity=67 time=0
note_on channel=0 note=58 velocity=61 time=0
note_on channel=0 note=58 velocity=0 time=102
note_on channel=0 note=82 velocity=0 time=178
note_on channel=0 note=61 velocity=63 time=2
note_on channel=0 note=82 velocity=54 time=0
note_on channel=0 note=61 velocity=0 time=90
note_on channel=0 note=82 velocity=0 time=28
note_on channel=0 note=70 velocity=61 time=2
note_on channel=0 note=82 velocity=61 time=0
note_on channel=0 note=82 velocity=0 time=113
note_on channel=0 note=70 velocity=0 time=0
note_on channel=0 note=70 velocity=54 time=0
note_on channel=0 note=40 velocity=63 time=0
note_on channel=0 note=40 velocity=0 time=90
note_on channel=0 note=70 velocity=0 time=28
note_on channel=0 note=70 velocity=61 time=0
note_on channel=0 note=49 velocity=72 time=0
note_on channel=0 note=70 velocity=0 time=102
note_on channel=0 note=52 velocity=64 time=180
note_on channel=0 note=52 velocity=0 time=90
note_on channel=0 note=61 velocity=62 time=30
note_on channel=0 note=49 velocity=0 time=0
note_on channel=0 note=43 velocity=66 time=0
note_on channel=0 note=43 velocity=0 time=26
note_on channel=0 note=52 velocity=75 time=0
note_on channel=0 note=61 velocity=0 time=360
note_on channel=0 note=55 velocity=68 time=0
note_on channel=0 note=55 velocity=0 time=90
note_on channel=0 note=64 velocity=71 time=30
note_on channel=0 note=52 velocity=0 time=0
note_on channel=0 note=43 velocity=69 time=0
note_on channel=0 note=43 velocity=0 time=90
note_on channel=0 note=52 velocity=77 time=0
note_on channel=0 note=64 velocity=0 time=120
note_on channel=0 note=55 velocity=70 time=0
note_on channel=0 note=55 velocity=0 time=90
note_on channel=0 note=64 velocity=76 time=30
note_on channel=0 note=52 velocity=0 time=120
note_on channel=0 note=67 velocity=71 time=0
note_on channel=0 note=67 velocity=0 time=90
note_on channel=0 note=76 velocity=77 time=0
note_on channel=0 note=64 velocity=0 time=120
note_on channel=0 note=79 velocity=72 time=0
note_on channel=0 note=79 velocity=0 time=90
note_on channel=0 note=88 velocity=78 time=0
note_on channel=0 note=76 velocity=0 time=120
note_on channel=0 note=44 velocity=73 time=0
note_on channel=0 note=44 velocity=0 time=21
note_on channel=0 note=52 velocity=71 time=0
note_on channel=0 note=88 velocity=0 time=120
note_on channel=0 note=56 velocity=74 time=0
note_on channel=0 note=56 velocity=0 time=90
note_on channel=0 note=64 velocity=79 time=30
note_on channel=0 note=52 velocity=0 time=120
note_on channel=0 note=68 velocity=74 time=0
note_on channel=0 note=68 velocity=0 time=90
note_on channel=0 note=76 velocity=79 time=0
note_on channel=0 note=64 velocity=0 time=120
note_on channel=0 note=80 velocity=76 time=0
note_on channel=0 note=80 velocity=0 time=90
note_on channel=0 note=88 velocity=83 time=0
note_on channel=0 note=76 velocity=0 time=120
note_on channel=0 note=45 velocity=76 time=0
note_on channel=0 note=45 velocity=0 time=33
note_on channel=0 note=52 velocity=75 time=0
note_on channel=0 note=88 velocity=0 time=120
note_on channel=0 note=57 velocity=78 time=0
note_on channel=0 note=57 velocity=0 time=90
note_on channel=0 note=64 velocity=84 time=30
note_on channel=0 note=52 velocity=0 time=120
note_on channel=0 note=69 velocity=78 time=0
note_on channel=0 note=69 velocity=0 time=90
note_on channel=0 note=76 velocity=86 time=0
note_on channel=0 note=64 velocity=0 time=120
note_on channel=0 note=81 velocity=81 time=0
note_on channel=0 note=81 velocity=0 time=90
note_on channel=0 note=88 velocity=88 time=0
note_on channel=0 note=76 velocity=0 time=120
note_on channel=0 note=45 velocity=83 time=0
note_on channel=0 note=45 velocity=0 time=33
note_on channel=0 note=53 velocity=93 time=0
note_on channel=0 note=88 velocity=0 time=120
note_on channel=0 note=57 velocity=85 time=0
note_on channel=0 note=57 velocity=0 time=90
note_on channel=0 note=65 velocity=93 time=30
note_on channel=0 note=53 velocity=0 time=120
note_on channel=0 note=69 velocity=86 time=0
note_on channel=0 note=69 velocity=0 time=90
note_on channel=0 note=77 velocity=97 time=0
note_on channel=0 note=65 velocity=0 time=120
note_on channel=0 note=81 velocity=89 time=0
note_on channel=0 note=81 velocity=0 time=90
note_on channel=0 note=89 velocity=101 time=0
note_on channel=0 note=77 velocity=0 time=0
note_on channel=0 note=46 velocity=100 time=0
note_on channel=0 note=34 velocity=88 time=0
note_on channel=0 note=34 velocity=0 time=0
note_on channel=0 note=46 velocity=0 time=0
note_on channel=0 note=89 velocity=0 time=0
note_on channel=0 note=74 velocity=82 time=0
note_on channel=0 note=82 velocity=82 time=0
note_on channel=0 note=77 velocity=82 time=0
note_on channel=0 note=46 velocity=110 time=0
note_on channel=0 note=58 velocity=110 time=0
note_on channel=0 note=86 velocity=99 time=11
note_on channel=0 note=77 velocity=0 time=169
note_on channel=0 note=74 velocity=0 time=0
note_on channel=0 note=82 velocity=0 time=0
note_on channel=0 note=86 velocity=0 time=11
note_on channel=0 note=58 velocity=0 time=49
note_on channel=0 note=46 velocity=0 time=0
note_on channel=0 note=60 velocity=97 time=0
note_on channel=0 note=60 velocity=0 time=120
note_on channel=0 note=74 velocity=91 time=0
note_on channel=0 note=82 velocity=91 time=0
note_on channel=0 note=86 velocity=111 time=0
note_on channel=0 note=77 velocity=91 time=0
note_on channel=0 note=58 velocity=88 time=0
note_on channel=0 note=58 velocity=0 time=120
note_on channel=0 note=86 velocity=0 time=0
note_on channel=0 note=74 velocity=0 time=0
note_on channel=0 note=82 velocity=0 time=0
note_on channel=0 note=77 velocity=0 time=0
note_on channel=0 note=77 velocity=82 time=0
note_on channel=0 note=86 velocity=99 time=0
note_on channel=0 note=82 velocity=82 time=0
note_on channel=0 note=74 velocity=82 time=0
note_on channel=0 note=53 velocity=97 time=0
note_on channel=0 note=74 velocity=0 time=127
note_on channel=0 note=82 velocity=0 time=0
note_on channel=0 note=77 velocity=0 time=0
note_on channel=0 note=86 velocity=0 time=0
note_on channel=0 note=53 velocity=0 time=60
note_on channel=0 note=74 velocity=84 time=0
note_on channel=0 note=87 velocity=104 time=0
note_on channel=0 note=82 velocity=84 time=0
note_on channel=0 note=77 velocity=84 time=0
note_on channel=0 note=55 velocity=97 time=0
note_on channel=0 note=77 velocity=0 time=45
note_on channel=0 note=82 velocity=0 time=0
note_on channel=0 note=74 velocity=0 time=0
note_on channel=0 note=87 velocity=0 time=0
note_on channel=0 note=55 velocity=0 time=0
note_on channel=0 note=74 velocity=86 time=0
note_on channel=0 note=86 velocity=102 time=0
note_on channel=0 note=77 velocity=86 time=0
note_on channel=0 note=82 velocity=86 time=0
note_on channel=0 note=53 velocity=90 time=0
note_on channel=0 note=82 velocity=0 time=45
note_on channel=0 note=77 velocity=0 time=0
note_on channel=0 note=74 velocity=0 time=0
note_on channel=0 note=86 velocity=0 time=0
note_on channel=0 note=53 velocity=0 time=0
note_on channel=0 note=77 velocity=91 time=0
note_on channel=0 note=74 velocity=91 time=0
note_on channel=0 note=82 velocity=91 time=0
note_on channel=0 note=86 velocity=111 time=0
note_on channel=0 note=50 velocity=97 time=0
note_on channel=0 note=86 velocity=0 time=14
note_on channel=0 note=82 velocity=0 time=0
note_on channel=0 note=77 velocity=0 time=0
note_on channel=0 note=74 velocity=0 time=0
note_on channel=0 note=50 velocity=0 time=120
note_on channel=0 note=74 velocity=84 time=0
note_on channel=0 note=70 velocity=84 time=0
note_on channel=0 note=77 velocity=84 time=0
note_on channel=0 note=82 velocity=101 time=0
note_on channel=0 note=51 velocity=97 time=0
note_on channel=0 note=51 velocity=0 time=120
note_on channel=0 note=77 velocity=0 time=0
note_on channel=0 note=74 velocity=0 time=0
note_on channel=0 note=70 velocity=0 time=0
note_on channel=0 note=82 velocity=0 time=0
note_on channel=0 note=50 velocity=91 time=0
note_on channel=0 note=50 velocity=0 time=7
note_on channel=0 note=46 velocity=97 time=0
note_on channel=0 note=46 velocity=0 time=240
note_on channel=0 note=48 velocity=97 time=0
note_on channel=0 note=48 velocity=0 time=0
note_on channel=0 note=77 velocity=101 time=0
note_on channel=0 note=74 velocity=93 time=0
note_on channel=0 note=46 velocity=97 time=0
note_on channel=0 note=46 velocity=0 time=60
note_on channel=0 note=38 velocity=88 time=0
note_on channel=0 note=38 velocity=0 time=30
note_on channel=0 note=50 velocity=89 time=0
note_on channel=0 note=50 velocity=0 time=0
note_on channel=0 note=74 velocity=0 time=0
note_on channel=0 note=77 velocity=0 time=0
note_on channel=0 note=82 velocity=82 time=0
note_on channel=0 note=77 velocity=82 time=0
note_on channel=0 note=89 velocity=99 time=0
note_on channel=0 note=62 velocity=110 time=0
note_on channel=0 note=89 velocity=0 time=180
note_on channel=0 note=82 velocity=0 time=0
note_on channel=0 note=77 velocity=0 time=0
note_on channel=0 note=62 velocity=0 time=60
note_on channel=0 note=63 velocity=97 time=0
note_on channel=0 note=63 velocity=0 time=120
note_on channel=0 note=82 velocity=91 time=0
note_on channel=0 note=77 velocity=91 time=0
note_on channel=0 note=89 velocity=111 time=0
note_on channel=0 note=86 velocity=91 time=0
note_on channel=0 note=62 velocity=88 time=0
note_on channel=0 note=62 velocity=0 time=120
note_on channel=0 note=89 velocity=0 time=0
note_on channel=0 note=82 velocity=0 time=0
note_on channel=0 note=77 velocity=0 time=0
note_on channel=0 note=86 velocity=0 time=0
note_on channel=0 note=86 velocity=82 time=0
note_on channel=0 note=82 velocity=82 time=0
note_on channel=0 note=77 velocity=82 time=0
note_on channel=0 note=89 velocity=99 time=0
note_on channel=0 note=58 velocity=97 time=0
note_on channel=0 note=89 velocity=0 time=120
note_on channel=0 note=77 velocity=0 time=0
note_on channel=0 note=86 velocity=0 time=0
note_on channel=0 note=82 velocity=0 time=0
note_on channel=0 note=58 velocity=0 time=60
note_on channel=0 note=91 velocity=104 time=0
note_on channel=0 note=86 velocity=84 time=0
note_on channel=0 note=82 velocity=84 time=0
note_on channel=0 note=77 velocity=84 time=0
note_on channel=0 note=62 velocity=97 time=0
note_on channel=0 note=77 velocity=0 time=45
note_on channel=0 note=82 velocity=0 time=0
note_on channel=0 note=91 velocity=0 time=0
note_on channel=0 note=86 velocity=0 time=0
note_on channel=0 note=62 velocity=0 time=0
note_on channel=0 note=89 velocity=102 time=0
note_on channel=0 note=86 velocity=86 time=0
note_on channel=0 note=77 velocity=86 time=0
note_on channel=0 note=82 velocity=86 time=0
note_on channel=0 note=58 velocity=90 time=0
note_on channel=0 note=82 velocity=0 time=45
note_on channel=0 note=77 velocity=0 time=0
note_on channel=0 note=89 velocity=0 time=0
note_on channel=0 note=86 velocity=0 time=0
note_on channel=0 note=58 velocity=0 time=0
note_on channel=0 note=89 velocity=111 time=0
note_on channel=0 note=86 velocity=91 time=0
note_on channel=0 note=82 velocity=91 time=0
note_on channel=0 note=77 velocity=91 time=0
note_on channel=0 note=53 velocity=97 time=0
note_on channel=0 note=77 velocity=0 time=14
note_on channel=0 note=82 velocity=0 time=0
note_on channel=0 note=89 velocity=0 time=0
note_on channel=0 note=86 velocity=0 time=0
note_on channel=0 note=53 velocity=0 time=120
note_on channel=0 note=86 velocity=101 time=0
note_on channel=0 note=74 velocity=84 time=0
note_on channel=0 note=77 velocity=84 time=0
note_on channel=0 note=82 velocity=84 time=0
note_on channel=0 note=58 velocity=93 time=0
note_on channel=0 note=58 velocity=0 time=120
note_on channel=0 note=77 velocity=0 time=0
note_on channel=0 note=86 velocity=0 time=0
note_on channel=0 note=74 velocity=0 time=0
note_on channel=0 note=82 velocity=0 time=0
note_on channel=0 note=53 velocity=88 time=0
note_on channel=0 note=53 velocity=0 time=7
note_on channel=0 note=50 velocity=78 time=0
note_on channel=0 note=50 velocity=0 time=120
note_on channel=0 note=46 velocity=73 time=0
note_on channel=0 note=46 velocity=0 time=120
note_on channel=0 note=79 velocity=45 time=0
note_on channel=0 note=82 velocity=54 time=0
note_on channel=0 note=51 velocity=40 time=0
note_on channel=0 note=51 velocity=0 time=106
note_on channel=0 note=82 velocity=0 time=0
note_on channel=0 note=79 velocity=0 time=0
note_on channel=0 note=81 velocity=43 time=0
note_on channel=0 note=84 velocity=51 time=0
note_on channel=0 note=48 velocity=35 time=0
note_on channel=0 note=48 velocity=0 time=0
note_on channel=0 note=84 velocity=0 time=0
note_on channel=0 note=81 velocity=0 time=0
note_on channel=0 note=77 velocity=51 time=0
note_on channel=0 note=86 velocity=61 time=0
note_on channel=0 note=82 velocity=51 time=0
note_on channel=0 note=46 velocity=29 time=0
note_on channel=0 note=46 velocity=0 time=0
note_on channel=0 note=48 velocity=34 time=0
note_on channel=0 note=48 velocity=0 time=28
note_on channel=0 note=46 velocity=31 time=0
note_on channel=0 note=46 velocity=0 time=120
note_on channel=0 note=77 velocity=0 time=0
note_on channel=0 note=86 velocity=0 time=0
note_on channel=0 note=82 velocity=0 time=0
note_on channel=0 note=77 velocity=47 time=0
note_on channel=0 note=84 velocity=56 time=0
note_on channel=0 note=81 velocity=47 time=0
note_on channel=0 note=41 velocity=30 time=0
note_on channel=0 note=53 velocity=36 time=0
note_on channel=0 note=53 velocity=0 time=228
note_on channel=0 note=81 velocity=0 time=0
note_on channel=0 note=77 velocity=0 time=0
note_on channel=0 note=84 velocity=0 time=0
note_on channel=0 note=41 velocity=0 time=0
note_on channel=0 note=69 velocity=47 time=0
note_on channel=0 note=72 velocity=56 time=0
note_on channel=0 note=65 velocity=41 time=0
note_on channel=0 note=51 velocity=33 time=0
note_on channel=0 note=51 velocity=0 time=34
note_on channel=0 note=69 velocity=0 time=0
note_on channel=0 note=72 velocity=0 time=0
note_on channel=0 note=71 velocity=35 time=0
note_on channel=0 note=74 velocity=46 time=0
note_on channel=0 note=50 velocity=30 time=0
note_on channel=0 note=50 velocity=0 time=0
note_on channel=0 note=65 velocity=0 time=0
note_on channel=0 note=71 velocity=0 time=0
note_on channel=0 note=74 velocity=0 time=0
note_on channel=0 note=67 velocity=49 time=0
note_on channel=0 note=72 velocity=49 time=0
note_on channel=0 note=75 velocity=58 time=0
note_on channel=0 note=48 velocity=35 time=0
note_on channel=0 note=48 velocity=0 time=0
note_on channel=0 note=50 velocity=33 time=0
note_on channel=0 note=50 velocity=0 time=49
note_on channel=0 note=48 velocity=29 time=0
note_on channel=0 note=48 velocity=0 time=0
note_on channel=0 note=67 velocity=0 time=0
note_on channel=0 note=72 velocity=0 time=0
note_on channel=0 note=75 velocity=0 time=0
note_on channel=0 note=67 velocity=43 time=0
note_on channel=0 note=74 velocity=51 time=0
note_on channel=0 note=70 velocity=43 time=0
note_on channel=0 note=43 velocity=28 time=0
note_on channel=0 note=55 velocity=34 time=0
note_on channel=0 note=55 velocity=0 time=0
note_on channel=0 note=70 velocity=0 time=0
note_on channel=0 note=67 velocity=0 time=0
note_on channel=0 note=74 velocity=0 time=0
note_on channel=0 note=43 velocity=0 time=0
note_on channel=0 note=74 velocity=58 time=0
note_on channel=0 note=70 velocity=49 time=0
note_on channel=0 note=53 velocity=28 time=0
note_on channel=0 note=56 velocity=33 time=0
note_on channel=0 note=56 velocity=0 time=68
note_on channel=0 note=53 velocity=0 time=0
note_on channel=0 note=74 velocity=0 time=0
note_on channel=0 note=75 velocity=60 time=0
note_on channel=0 note=51 velocity=28 time=0
note_on channel=0 note=55 velocity=33 time=0
note_on channel=0 note=55 velocity=0 time=0
note_on channel=0 note=51 velocity=0 time=0
note_on channel=0 note=75 velocity=0 time=0
note_on channel=0 note=77 velocity=63 time=0
note_on channel=0 note=50 velocity=31 time=0
note_on channel=0 note=53 velocity=37 time=0
note_on channel=0 note=53 velocity=0 time=0
note_on channel=0 note=50 velocity=0 time=0
note_on channel=0 note=70 velocity=0 time=0
note_on channel=0 note=67 velocity=45 time=0
note_on channel=0 note=70 velocity=54 time=0
note_on channel=0 note=49 velocity=27 time=0
note_on channel=0 note=52 velocity=32 time=0
note_on channel=0 note=77 velocity=0 time=111
note_on channel=0 note=79 velocity=60 time=0
note_on channel=0 note=79 velocity=0 time=120
note_on channel=0 note=52 velocity=0 time=0
note_on channel=0 note=67 velocity=0 time=0
note_on channel=0 note=70 velocity=0 time=0
note_on channel=0 note=49 velocity=0 time=0
note_on channel=0 note=67 velocity=62 time=0
note_on channel=0 note=77 velocity=62 time=0
note_on channel=0 note=48 velocity=32 time=0
note_on channel=0 note=51 velocity=38 time=0
note_on channel=0 note=77 velocity=0 time=0
note_on channel=0 note=75 velocity=51 time=0
note_on channel=0 note=67 velocity=0 time=0
note_on channel=0 note=51 velocity=0 time=0
note_on channel=0 note=48 velocity=0 time=0
note_on channel=0 note=69 velocity=57 time=0
note_on channel=0 note=41 velocity=25 time=0
note_on channel=0 note=48 velocity=30 time=0
note_on channel=0 note=75 velocity=0 time=120
note_on channel=0 note=77 velocity=50 time=0
note_on channel=0 note=77 velocity=0 time=0
note_on channel=0 note=48 velocity=0 time=0
note_on channel=0 note=41 velocity=0 time=0
note_on channel=0 note=69 velocity=0 time=0
note_on channel=0 note=70 velocity=51 time=0
note_on channel=0 note=75 velocity=60 time=0
note_on channel=0 note=43 velocity=28 time=0
note_on channel=0 note=46 velocity=33 time=0
note_on channel=0 note=75 velocity=0 time=0
note_on channel=0 note=74 velocity=46 time=0
note_on channel=0 note=74 velocity=0 time=0
note_on channel=0 note=46 velocity=0 time=0
note_on channel=0 note=43 velocity=0 time=0
note_on channel=0 note=70 velocity=0 time=0
note_on channel=0 note=65 velocity=41 time=0
note_on channel=0 note=68 velocity=41 time=0
note_on channel=0 note=74 velocity=49 time=0
note_on channel=0 note=77 velocity=49 time=0
note_on channel=0 note=38 velocity=28 time=0
note_on channel=0 note=47 velocity=33 time=0
note_on channel=0 note=47 velocity=0 time=0
note_on channel=0 note=68 velocity=0 time=0
note_on channel=0 note=74 velocity=0 time=0
note_on channel=0 note=65 velocity=0 time=0
note_on channel=0 note=38 velocity=0 time=0
note_on channel=0 note=77 velocity=0 time=0
note_on channel=0 note=67 velocity=37 time=0
note_on channel=0 note=72 velocity=44 time=0
note_on channel=0 note=75 velocity=44 time=0
note_on channel=0 note=63 velocity=37 time=0
note_on channel=0 note=39 velocity=24 time=0
note_on channel=0 note=48 velocity=29 time=0
note_on channel=0 note=48 velocity=0 time=0
note_on channel=0 note=72 velocity=0 time=0
note_on channel=0 note=75 velocity=0 time=0
note_on channel=0 note=67 velocity=0 time=0
note_on channel=0 note=39 velocity=0 time=0
note_on channel=0 note=63 velocity=0 time=0
note_on channel=0 note=60 velocity=34 time=0
note_on channel=0 note=72 velocity=40 time=0
note_on channel=0 note=69 velocity=40 time=0
note_on channel=0 note=41 velocity=24 time=0
note_on channel=0 note=48 velocity=29 time=0
note_on channel=0 note=48 velocity=0 time=0
note_on channel=0 note=69 velocity=0 time=0
note_on channel=0 note=60 velocity=0 time=0
note_on channel=0 note=72 velocity=0 time=0
note_on channel=0 note=41 velocity=0 time=0
note_on channel=0 note=74 velocity=58 time=0
note_on channel=0 note=53 velocity=28 time=0
note_on channel=0 note=58 velocity=33 time=0
note_on channel=0 note=58 velocity=0 time=68
note_on channel=0 note=74 velocity=0 time=0
note_on channel=0 note=75 velocity=60 time=0
note_on channel=0 note=60 velocity=33 time=0
note_on channel=0 note=60 velocity=0 time=0
note_on channel=0 note=75 velocity=0 time=0
note_on channel=0 note=53 velocity=0 time=0
note_on channel=0 note=77 velocity=63 time=0
note_on channel=0 note=53 velocity=31 time=0
note_on channel=0 note=62 velocity=37 time=0
note_on channel=0 note=69 velocity=45 time=0
note_on channel=0 note=69 velocity=0 time=120
note_on channel=0 note=70 velocity=54 time=0
note_on channel=0 note=62 velocity=0 time=120
note_on channel=0 note=77 velocity=0 time=0
note_on channel=0 note=79 velocity=60 time=0
note_on channel=0 note=63 velocity=32 time=0
note_on channel=0 note=63 velocity=0 time=0
note_on channel=0 note=79 velocity=0 time=0
note_on channel=0 note=75 velocity=64 time=0
note_on channel=0 note=60 velocity=38 time=0
note_on channel=0 note=70 velocity=0 time=0
note_on channel=0 note=66 velocity=47 time=0
note_on channel=0 note=66 velocity=0 time=120
note_on channel=0 note=69 velocity=53 time=0
note_on channel=0 note=60 velocity=0 time=0
note_on channel=0 note=75 velocity=0 time=0
note_on channel=0 note=77 velocity=50 time=0
note_on channel=0 note=62 velocity=30 time=0
note_on channel=0 note=62 velocity=0 time=0
note_on channel=0 note=77 velocity=0 time=0
note_on channel=0 note=75 velocity=60 time=0
note_on channel=0 note=60 velocity=36 time=0
note_on channel=0 note=60 velocity=0 time=0
note_on channel=0 note=75 velocity=0 time=0
note_on channel=0 note=69 velocity=0 time=0
note_on channel=0 note=70 velocity=50 time=0
note_on channel=0 note=74 velocity=50 time=0
note_on channel=0 note=58 velocity=30 time=0
note_on channel=0 note=58 velocity=0 time=0
note_on channel=0 note=74 velocity=0 time=0
note_on channel=0 note=70 velocity=0 time=0
note_on channel=0 note=77 velocity=57 time=0
note_on channel=0 note=65 velocity=35 time=0
note_on channel=0 note=62 velocity=35 time=0
note_on channel=0 note=62 velocity=0 time=14
note_on channel=0 note=77 velocity=0 time=0
note_on channel=0 note=75 velocity=55 time=0
note_on channel=0 note=60 velocity=30 time=0
note_on channel=0 note=60 velocity=0 time=120
note_on channel=0 note=75 velocity=0 time=0
note_on channel=0 note=72 velocity=50 time=0
note_on channel=0 note=57 velocity=36 time=0
note_on channel=0 note=57 velocity=0 time=0
note_on channel=0 note=53 velocity=0 time=0
note_on channel=0 note=65 velocity=0 time=0
note_on channel=0 note=72 velocity=0 time=0
note_on channel=0 note=75 velocity=58 time=0
note_on channel=0 note=63 velocity=49 time=0
note_on channel=0 note=58 velocity=28 time=0
note_on channel=0 note=60 velocity=33 time=0
note_on channel=0 note=60 velocity=0 time=68
note_on channel=0 note=75 velocity=0 time=0
note_on channel=0 note=63 velocity=0 time=0
note_on channel=0 note=77 velocity=60 time=0
note_on channel=0 note=65 velocity=51 time=0
note_on channel=0 note=62 velocity=33 time=0
note_on channel=0 note=62 velocity=0 time=0
note_on channel=0 note=58 velocity=0 time=0
note_on channel=0 note=77 velocity=0 time=0
note_on channel=0 note=65 velocity=0 time=0
note_on channel=0 note=79 velocity=63 time=0
note_on channel=0 note=67 velocity=45 time=0
note_on channel=0 note=58 velocity=31 time=0
note_on channel=0 note=63 velocity=37 time=0
note_on channel=0 note=67 velocity=0 time=0
note_on channel=0 note=69 velocity=45 time=0
note_on channel=0 note=69 velocity=0 time=120
note_on channel=0 note=70 velocity=54 time=0
note_on channel=0 note=63 velocity=0 time=120
note_on channel=0 note=79 velocity=0 time=0
note_on channel=0 note=80 velocity=60 time=0
note_on channel=0 note=65 velocity=32 time=0
note_on channel=0 note=65 velocity=0 time=0
note_on channel=0 note=80 velocity=0 time=0
note_on channel=0 note=77 velocity=64 time=0
note_on channel=0 note=62 velocity=38 time=0
note_on channel=0 note=70 velocity=0 time=0
note_on channel=0 note=69 velocity=47 time=0
note_on channel=0 note=69 velocity=0 time=120
note_on channel=0 note=70 velocity=53 time=0
note_on channel=0 note=62 velocity=0 time=0
note_on channel=0 note=77 velocity=0 time=0
note_on channel=0 note=79 velocity=50 time=0
note_on channel=0 note=63 velocity=30 time=0
note_on channel=0 note=63 velocity=0 time=0
note_on channel=0 note=79 velocity=0 time=0
note_on channel=0 note=77 velocity=60 time=0
note_on channel=0 note=62 velocity=36 time=0
note_on channel=0 note=62 velocity=0 time=0
note_on channel=0 note=77 velocity=0 time=0
note_on channel=0 note=75 velocity=50 time=0
note_on channel=0 note=60 velocity=30 time=0
note_on channel=0 note=60 velocity=0 time=0
note_on channel=0 note=70 velocity=0 time=0
note_on channel=0 note=58 velocity=0 time=0
note_on channel=0 note=75 velocity=0 time=0
note_on channel=0 note=70 velocity=35 time=0
note_on channel=0 note=79 velocity=57 time=0
note_on channel=0 note=58 velocity=31 time=0
note_on channel=0 note=63 velocity=35 time=0
note_on channel=0 note=63 velocity=0 time=14
note_on channel=0 note=79 velocity=0 time=0
note_on channel=0 note=77 velocity=55 time=0
note_on channel=0 note=62 velocity=30 time=0
note_on channel=0 note=62 velocity=0 time=120
note_on channel=0 note=77 velocity=0 time=0
note_on channel=0 note=74 velocity=50 time=0
note_on channel=0 note=74 velocity=0 time=0
note_on channel=0 note=58 velocity=0 time=0
note_on channel=0 note=70 velocity=0 time=0
note_on channel=0 note=77 velocity=58 time=0
note_on channel=0 note=58 velocity=28 time=0
note_on channel=0 note=62 velocity=33 time=0
note_on channel=0 note=62 velocity=0 time=68
note_on channel=0 note=77 velocity=0 time=0
note_on channel=0 note=78 velocity=60 time=0
note_on channel=0 note=63 velocity=33 time=0
note_on channel=0 note=63 velocity=0 time=0
note_on channel=0 note=78 velocity=0 time=0
note_on channel=0 note=58 velocity=0 time=0
note_on channel=0 note=80 velocity=63 time=0
note_on channel=0 note=58 velocity=31 time=0
note_on channel=0 note=65 velocity=37 time=0
note_on channel=0 note=69 velocity=45 time=0
note_on channel=0 note=69 velocity=0 time=120
note_on channel=0 note=70 velocity=54 time=0
note_on channel=0 note=65 velocity=0 time=120
note_on channel=0 note=80 velocity=0 time=0
note_on channel=0 note=82 velocity=60 time=0
note_on channel=0 note=66 velocity=32 time=0
note_on channel=0 note=66 velocity=0 time=0
note_on channel=0 note=82 velocity=0 time=0
note_on channel=0 note=58 velocity=0 time=0
note_on channel=0 note=78 velocity=64 time=0
note_on channel=0 note=63 velocity=38 time=0
note_on channel=0 note=63 velocity=0 time=0
note_on channel=0 note=78 velocity=0 time=0
note_on channel=0 note=70 velocity=0 time=0
note_on channel=0 note=66 velocity=49 time=0
note_on channel=0 note=78 velocity=58 time=0
note_on channel=0 note=61 velocity=28 time=0
note_on channel=0 note=63 velocity=33 time=0
note_on channel=0 note=63 velocity=0 time=68
note_on channel=0 note=66 velocity=0 time=0
note_on channel=0 note=78 velocity=0 time=0
note_on channel=0 note=68 velocity=51 time=0
note_on channel=0 note=80 velocity=60 time=0
note_on channel=0 note=65 velocity=33 time=0
note_on channel=0 note=65 velocity=0 time=0
note_on channel=0 note=61 velocity=0 time=0
note_on channel=0 note=68 velocity=0 time=0
note_on channel=0 note=80 velocity=0 time=0
note_on channel=0 note=82 velocity=63 time=0
note_on channel=0 note=70 velocity=38 time=0
note_on channel=0 note=61 velocity=31 time=0
note_on channel=0 note=66 velocity=37 time=0
note_on channel=0 note=70 velocity=0 time=0
note_on channel=0 note=72 velocity=45 time=0
note_on channel=0 note=72 velocity=0 time=120
note_on channel=0 note=73 velocity=54 time=0
note_on channel=0 note=66 velocity=0 time=120
note_on channel=0 note=82 velocity=0 time=0
note_on channel=0 note=83 velocity=60 time=0
note_on channel=0 note=68 velocity=32 time=0
note_on channel=0 note=68 velocity=0 time=0
note_on channel=0 note=83 velocity=0 time=0
note_on channel=0 note=80 velocity=64 time=0
note_on channel=0 note=65 velocity=38 time=0
note_on channel=0 note=65 velocity=0 time=0
note_on channel=0 note=73 velocity=0 time=0
note_on channel=0 note=77 velocity=45 time=0
note_on channel=0 note=71 velocity=38 time=0
note_on channel=0 note=71 velocity=0 time=0
note_on channel=0 note=77 velocity=0 time=0
note_on channel=0 note=80 velocity=0 time=0
note_on channel=0 note=78 velocity=47 time=0
note_on channel=0 note=82 velocity=56 time=0
note_on channel=0 note=70 velocity=40 time=0
note_on channel=0 note=70 velocity=0 time=120
note_on channel=0 note=82 velocity=0 time=0
note_on channel=0 note=78 velocity=0 time=0
note_on channel=0 note=83 velocity=60 time=0
note_on channel=0 note=80 velocity=51 time=0
note_on channel=0 note=68 velocity=40 time=0
note_on channel=0 note=68 velocity=0 time=0
note_on channel=0 note=61 velocity=0 time=0
note_on channel=0 note=83 velocity=0 time=0
note_on channel=0 note=80 velocity=0 time=0
note_on channel=0 note=82 velocity=65 time=0
note_on channel=0 note=85 velocity=65 time=0
note_on channel=0 note=61 velocity=31 time=0
note_on channel=0 note=66 velocity=40 time=0
note_on channel=0 note=66 velocity=0 time=0
note_on channel=0 note=82 velocity=0 time=0
note_on channel=0 note=78 velocity=54 time=0
note_on channel=0 note=70 velocity=35 time=0
note_on channel=0 note=85 velocity=0 time=120
note_on channel=0 note=87 velocity=64 time=0
note_on channel=0 note=87 velocity=0 time=120
note_on channel=0 note=85 velocity=60 time=0
note_on channel=0 note=85 velocity=0 time=0
note_on channel=0 note=83 velocity=43 time=0
note_on channel=0 note=70 velocity=0 time=0
note_on channel=0 note=78 velocity=0 time=0
note_on channel=0 note=77 velocity=53 time=0
note_on channel=0 note=68 velocity=41 time=0
note_on channel=0 note=83 velocity=0 time=120
note_on channel=0 note=85 velocity=63 time=0
note_on channel=0 note=85 velocity=0 time=0
note_on channel=0 note=61 velocity=0 time=0
note_on channel=0 note=83 velocity=60 time=0
note_on channel=0 note=61 velocity=45 time=0
note_on channel=0 note=83 velocity=0 time=0
note_on channel=0 note=82 velocity=46 time=0
note_on channel=0 note=68 velocity=0 time=0
note_on channel=0 note=77 velocity=0 time=0
note_on channel=0 note=78 velocity=53 time=0
note_on channel=0 note=66 velocity=39 time=0
note_on channel=0 note=82 velocity=0 time=120
note_on channel=0 note=83 velocity=62 time=0
note_on channel=0 note=83 velocity=0 time=0
note_on channel=0 note=66 velocity=0 time=0
note_on channel=0 note=82 velocity=58 time=0
note_on channel=0 note=73 velocity=46 time=0
note_on channel=0 note=82 velocity=0 time=28
note_on channel=0 note=78 velocity=0 time=0
note_on channel=0 note=77 velocity=41 time=0
note_on channel=0 note=80 velocity=48 time=0
note_on channel=0 note=80 velocity=0 time=120
note_on channel=0 note=77 velocity=0 time=0
note_on channel=0 note=73 velocity=0 time=0
note_on channel=0 note=78 velocity=48 time=0
note_on channel=0 note=82 velocity=56 time=0
note_on channel=0 note=71 velocity=43 time=0
note_on channel=0 note=82 velocity=0 time=120
note_on channel=0 note=78 velocity=0 time=0
note_on channel=0 note=83 velocity=60 time=0
note_on channel=0 note=80 velocity=50 time=0
note_on channel=0 note=80 velocity=0 time=0
note_on channel=0 note=71 velocity=0 time=0
note_on channel=0 note=61 velocity=0 time=0
note_on channel=0 note=83 velocity=0 time=0
note_on channel=0 note=87 velocity=64 time=0
note_on channel=0 note=80 velocity=51 time=0
note_on channel=0 note=61 velocity=47 time=0
note_on channel=0 note=71 velocity=55 time=0
note_on channel=0 note=71 velocity=0 time=45
note_on channel=0 note=87 velocity=0 time=0
note_on channel=0 note=80 velocity=0 time=0
note_on channel=0 note=85 velocity=58 time=0
note_on channel=0 note=77 velocity=46 time=0
note_on channel=0 note=70 velocity=49 time=0
note_on channel=0 note=70 velocity=0 time=120
note_on channel=0 note=77 velocity=0 time=0
note_on channel=0 note=85 velocity=0 time=0
note_on channel=0 note=87 velocity=65 time=0
note_on channel=0 note=78 velocity=52 time=0
note_on channel=0 note=71 velocity=54 time=0
note_on channel=0 note=71 velocity=0 time=0
note_on channel=0 note=87 velocity=0 time=0
note_on channel=0 note=85 velocity=58 time=0
note_on channel=0 note=70 velocity=50 time=0
note_on channel=0 note=70 velocity=0 time=0
note_on channel=0 note=85 velocity=0 time=0
note_on channel=0 note=85 velocity=66 time=0
note_on channel=0 note=70 velocity=55 time=0
note_on channel=0 note=70 velocity=0 time=34
note_on channel=0 note=85 velocity=0 time=0
note_on channel=0 note=78 velocity=0 time=0
note_on channel=0 note=83 velocity=58 time=0
note_on channel=0 note=76 velocity=46 time=0
note_on channel=0 note=68 velocity=47 time=0
note_on channel=0 note=68 velocity=0 time=120
note_on channel=0 note=76 velocity=0 time=0
note_on channel=0 note=83 velocity=0 time=0
note_on channel=0 note=85 velocity=67 time=0
note_on channel=0 note=77 velocity=53 time=0
note_on channel=0 note=70 velocity=56 time=0
note_on channel=0 note=70 velocity=0 time=0
note_on channel=0 note=85 velocity=0 time=0
note_on channel=0 note=83 velocity=60 time=0
note_on channel=0 note=68 velocity=49 time=0
note_on channel=0 note=68 velocity=0 time=0
note_on channel=0 note=83 velocity=0 time=0
note_on channel=0 note=61 velocity=0 time=0
note_on channel=0 note=83 velocity=67 time=0
note_on channel=0 note=61 velocity=49 time=0
note_on channel=0 note=68 velocity=56 time=0
note_on channel=0 note=68 velocity=0 time=45
note_on channel=0 note=77 velocity=0 time=0
note_on channel=0 note=83 velocity=0 time=0
note_on channel=0 note=82 velocity=61 time=0
note_on channel=0 note=73 velocity=48 time=0
note_on channel=0 note=67 velocity=49 time=0
note_on channel=0 note=67 velocity=0 time=120
note_on channel=0 note=73 velocity=0 time=0
note_on channel=0 note=82 velocity=0 time=0
note_on channel=0 note=83 velocity=68 time=0
note_on channel=0 note=78 velocity=54 time=0
note_on channel=0 note=75 velocity=57 time=0
note_on channel=0 note=75 velocity=0 time=0
note_on channel=0 note=83 velocity=0 time=0
note_on channel=0 note=82 velocity=61 time=0
note_on channel=0 note=73 velocity=50 time=0
note_on channel=0 note=73 velocity=0 time=0
note_on channel=0 note=82 velocity=0 time=0
note_on channel=0 note=82 velocity=69 time=0
note_on channel=0 note=73 velocity=57 time=0
note_on channel=0 note=82 velocity=0 time=34
note_on channel=0 note=78 velocity=0 time=0
note_on channel=0 note=80 velocity=62 time=0
note_on channel=0 note=77 velocity=49 time=0
note_on channel=0 note=77 velocity=0 time=120
note_on channel=0 note=80 velocity=0 time=0
note_on channel=0 note=73 velocity=0 time=0
note_on channel=0 note=82 velocity=69 time=0
note_on channel=0 note=78 velocity=55 time=0
note_on channel=0 note=71 velocity=51 time=0
note_on channel=0 note=78 velocity=0 time=0
note_on channel=0 note=82 velocity=0 time=0
note_on channel=0 note=80 velocity=51 time=0
note_on channel=0 note=83 velocity=63 time=0
note_on channel=0 note=83 velocity=0 time=0
note_on channel=0 note=71 velocity=0 time=0
note_on channel=0 note=61 velocity=0 time=0
note_on channel=0 note=80 velocity=0 time=0
note_on channel=0 note=77 velocity=56 time=0
note_on channel=0 note=87 velocity=70 time=0
note_on channel=0 note=61 velocity=51 time=0
note_on channel=0 note=69 velocity=58 time=0
note_on channel=0 note=69 velocity=0 time=0
note_on channel=0 note=77 velocity=0 time=0
note_on channel=0 note=87 velocity=0 time=0
note_on channel=0 note=78 velocity=48 time=0
note_on channel=0 note=85 velocity=61 time=0
note_on channel=0 note=70 velocity=54 time=0
note_on channel=0 note=70 velocity=0 time=0
note_on channel=0 note=85 velocity=0 time=0
note_on channel=0 note=78 velocity=0 time=0
note_on channel=0 note=78 velocity=48 time=0
note_on channel=0 note=73 velocity=61 time=0
note_on channel=0 note=71 velocity=54 time=0
note_on channel=0 note=71 velocity=0 time=0
note_on channel=0 note=73 velocity=0 time=0
note_on channel=0 note=85 velocity=63 time=0
note_on channel=0 note=70 velocity=54 time=0
note_on channel=0 note=85 velocity=0 time=118
note_on channel=0 note=61 velocity=0 time=0
note_on channel=0 note=78 velocity=0 time=0
note_on channel=0 note=70 velocity=0 time=0
note_on channel=0 note=85 velocity=71 time=0
note_on channel=0 note=76 velocity=57 time=0
note_on channel=0 note=61 velocity=52 time=0
note_on channel=0 note=67 velocity=59 time=0
note_on channel=0 note=67 velocity=0 time=0
note_on channel=0 note=85 velocity=0 time=0
note_on channel=0 note=76 velocity=0 time=0
note_on channel=0 note=83 velocity=62 time=0
note_on channel=0 note=77 velocity=49 time=0
note_on channel=0 note=68 velocity=52 time=0
note_on channel=0 note=68 velocity=0 time=0
note_on channel=0 note=77 velocity=0 time=0
note_on channel=0 note=83 velocity=0 time=0
note_on channel=0 note=71 velocity=62 time=0
note_on channel=0 note=77 velocity=49 time=0
note_on channel=0 note=70 velocity=52 time=0
note_on channel=0 note=70 velocity=0 time=0
note_on channel=0 note=71 velocity=0 time=0
note_on channel=0 note=83 velocity=62 time=0
note_on channel=0 note=68 velocity=53 time=0
note_on channel=0 note=68 velocity=0 time=0
note_on channel=0 note=61 velocity=0 time=0
note_on channel=0 note=77 velocity=0 time=0
note_on channel=0 note=83 velocity=0 time=0
note_on channel=0 note=83 velocity=72 time=0
note_on channel=0 note=77 velocity=58 time=0
note_on channel=0 note=61 velocity=53 time=0
note_on channel=0 note=65 velocity=60 time=0
note_on channel=0 note=65 velocity=0 time=0
note_on channel=0 note=83 velocity=0 time=0
note_on channel=0 note=77 velocity=0 time=0
note_on channel=0 note=82 velocity=65 time=0
note_on channel=0 note=78 velocity=52 time=0
note_on channel=0 note=66 velocity=57 time=0
note_on channel=0 note=66 velocity=0 time=0
note_on channel=0 note=78 velocity=0 time=0
note_on channel=0 note=82 velocity=0 time=0
note_on channel=0 note=78 velocity=52 time=0
note_on channel=0 note=70 velocity=65 time=0
note_on channel=0 note=68 velocity=56 time=0
note_on channel=0 note=68 velocity=0 time=0
note_on channel=0 note=70 velocity=0 time=0
note_on channel=0 note=82 velocity=67 time=0
note_on channel=0 note=66 velocity=56 time=0
note_on channel=0 note=82 velocity=0 time=118
note_on channel=0 note=61 velocity=0 time=0
note_on channel=0 note=78 velocity=0 time=0
note_on channel=0 note=66 velocity=0 time=0
note_on channel=0 note=82 velocity=75 time=0
note_on channel=0 note=61 velocity=54 time=0
note_on channel=0 note=66 velocity=62 time=0
note_on channel=0 note=66 velocity=0 time=34
note_on channel=0 note=82 velocity=0 time=0
note_on channel=0 note=80 velocity=69 time=0
note_on channel=0 note=65 velocity=57 time=0
note_on channel=0 note=65 velocity=0 time=120
note_on channel=0 note=80 velocity=0 time=0
note_on channel=0 note=61 velocity=0 time=0
note_on channel=0 note=82 velocity=70 time=0
note_on channel=0 note=73 velocity=53 time=0
note_on channel=0 note=59 velocity=55 time=0
note_on channel=0 note=66 velocity=57 time=0
note_on channel=0 note=66 velocity=0 time=0
note_on channel=0 note=82 velocity=0 time=0
note_on channel=0 note=83 velocity=70 time=0
note_on channel=0 note=68 velocity=57 time=0
note_on channel=0 note=68 velocity=0 time=0
note_on channel=0 note=73 velocity=0 time=0
note_on channel=0 note=59 velocity=0 time=0
note_on channel=0 note=83 velocity=0 time=0
note_on channel=0 note=73 velocity=65 time=0
note_on channel=0 note=87 velocity=81 time=0
note_on channel=0 note=58 velocity=46 time=0
note_on channel=0 note=70 velocity=59 time=0
note_on channel=0 note=87 velocity=0 time=45
note_on channel=0 note=73 velocity=0 time=0
note_on channel=0 note=78 velocity=60 time=0
note_on channel=0 note=85 velocity=75 time=0
note_on channel=0 note=78 velocity=0 time=120
note_on channel=0 note=70 velocity=0 time=0
note_on channel=0 note=58 velocity=0 time=0
note_on channel=0 note=83 velocity=76 time=0
note_on channel=0 note=77 velocity=60 time=0
note_on channel=0 note=56 velocity=44 time=0
note_on channel=0 note=68 velocity=55 time=0
note_on channel=0 note=85 velocity=0 time=0
note_on channel=0 note=86 velocity=81 time=0
note_on channel=0 note=56 velocity=0 time=0
note_on channel=0 note=68 velocity=0 time=0
note_on channel=0 note=83 velocity=0 time=0
note_on channel=0 note=77 velocity=0 time=0
note_on channel=0 note=82 velocity=61 time=0
note_on channel=0 note=78 velocity=61 time=0
note_on channel=0 note=63 velocity=61 time=0
note_on channel=0 note=51 velocity=48 time=0
note_on channel=0 note=86 velocity=0 time=34
note_on channel=0 note=87 velocity=80 time=0
note_on channel=0 note=87 velocity=0 time=120
note_on channel=0 note=51 velocity=0 time=0
note_on channel=0 note=82 velocity=0 time=0
note_on channel=0 note=78 velocity=0 time=0
note_on channel=0 note=63 velocity=0 time=0
note_on channel=0 note=88 velocity=83 time=0
note_on channel=0 note=82 velocity=61 time=0
note_on channel=0 note=77 velocity=61 time=0
note_on channel=0 note=62 velocity=56 time=0
note_on channel=0 note=50 velocity=45 time=0
note_on channel=0 note=88 velocity=0 time=0
note_on channel=0 note=89 velocity=87 time=0
note_on channel=0 note=89 velocity=0 time=0
note_on channel=0 note=50 velocity=0 time=0
note_on channel=0 note=82 velocity=0 time=0
note_on channel=0 note=77 velocity=0 time=0
note_on channel=0 note=62 velocity=0 time=0
note_on channel=0 note=78 velocity=71 time=0
note_on channel=0 note=92 velocity=89 time=0
note_on channel=0 note=82 velocity=71 time=0
note_on channel=0 note=49 velocity=49 time=0
note_on channel=0 note=61 velocity=62 time=0
note_on channel=0 note=92 velocity=0 time=45
note_on channel=0 note=90 velocity=85 time=0
note_on channel=0 note=90 velocity=0 time=120
note_on channel=0 note=61 velocity=0 time=0
note_on channel=0 note=78 velocity=0 time=0
note_on channel=0 note=82 velocity=0 time=0
note_on channel=0 note=49 velocity=0 time=0
note_on channel=0 note=78 velocity=74 time=0
note_on channel=0 note=89 velocity=91 time=0
note_on channel=0 note=82 velocity=74 time=0
note_on channel=0 note=37 velocity=48 time=0
note_on channel=0 note=49 velocity=61 time=0
note_on channel=0 note=89 velocity=0 time=0
note_on channel=0 note=87 velocity=82 time=0
note_on channel=0 note=87 velocity=0 time=0
note_on channel=0 note=78 velocity=0 time=0
note_on channel=0 note=82 velocity=0 time=0
note_on channel=0 note=85 velocity=98 time=0
note_on channel=0 note=80 velocity=77 time=0
note_on channel=0 note=77 velocity=77 time=0
note_on channel=0 note=77 velocity=0 time=34
note_on channel=0 note=85 velocity=0 time=0
note_on channel=0 note=80 velocity=0 time=0
note_on channel=0 note=49 velocity=0 time=0
note_on channel=0 note=47 velocity=71 time=0
note_on channel=0 note=47 velocity=0 time=0
note_on channel=0 note=37 velocity=0 time=0
note_on channel=0 note=77 velocity=81 time=0
note_on channel=0 note=85 velocity=81 time=0
note_on channel=0 note=80 velocity=81 time=0
note_on channel=0 note=89 velocity=103 time=0
note_on channel=0 note=46 velocity=73 time=0
note_on channel=0 note=37 velocity=58 time=0
note_on channel=0 note=46 velocity=0 time=0
note_on channel=0 note=89 velocity=0 time=0
note_on channel=0 note=80 velocity=0 time=0
note_on channel=0 note=77 velocity=0 time=0
note_on channel=0 note=85 velocity=0 time=0
note_on channel=0 note=44 velocity=78 time=0
note_on channel=0 note=44 velocity=0 time=0
note_on channel=0 note=37 velocity=0 time=0
note_on channel=0 note=78 velocity=97 time=0
note_on channel=0 note=85 velocity=97 time=0
note_on channel=0 note=82 velocity=97 time=0
note_on channel=0 note=90 velocity=115 time=0
note_on channel=0 note=42 velocity=78 time=0
note_on channel=0 note=30 velocity=64 time=0
note_on channel=0 note=30 velocity=0 time=35
note_on channel=0 note=42 velocity=0 time=0
note_on channel=0 note=49 velocity=51 time=0
note_on channel=0 note=54 velocity=51 time=0
note_on channel=0 note=58 velocity=61 time=0
note_on channel=0 note=58 velocity=0 time=119
note_on channel=0 note=49 velocity=0 time=0
note_on channel=0 note=54 velocity=0 time=0
note_on channel=0 note=58 velocity=61 time=1
note_on channel=0 note=54 velocity=51 time=0
note_on channel=0 note=49 velocity=51 time=0
note_on channel=0 note=49 velocity=0 time=119
note_on channel=0 note=58 velocity=0 time=0
note_on channel=0 note=54 velocity=0 time=0
note_on channel=0 note=49 velocity=51 time=1
note_on channel=0 note=58 velocity=61 time=0
note_on channel=0 note=54 velocity=51 time=0
note_on channel=0 note=58 velocity=0 time=118
note_on channel=0 note=49 velocity=0 time=2
note_on channel=0 note=85 velocity=0 time=0
note_on channel=0 note=90 velocity=0 time=0
note_on channel=0 note=78 velocity=0 time=0
note_on channel=0 note=54 velocity=0 time=0
note_on channel=0 note=82 velocity=0 time=0
note_on channel=0 note=58 velocity=63 time=0
note_on channel=0 note=66 velocity=75 time=0
note_on channel=0 note=61 velocity=63 time=0
note_on channel=0 note=54 velocity=53 time=120
note_on channel=0 note=46 velocity=45 time=0
note_on channel=0 note=49 velocity=45 time=0
note_on channel=0 note=49 velocity=0 time=119
note_on channel=0 note=54 velocity=0 time=0
note_on channel=0 note=46 velocity=0 time=0
note_on channel=0 note=49 velocity=45 time=1
note_on channel=0 note=46 velocity=45 time=0
note_on channel=0 note=54 velocity=54 time=0
note_on channel=0 note=54 velocity=0 time=119
note_on channel=0 note=49 velocity=0 time=0
note_on channel=0 note=46 velocity=0 time=0
note_on channel=0 note=49 velocity=45 time=0
note_on channel=0 note=46 velocity=45 time=0
note_on channel=0 note=54 velocity=54 time=0
note_on channel=0 note=54 velocity=0 time=0
note_on channel=0 note=58 velocity=0 time=0
note_on channel=0 note=66 velocity=0 time=0
note_on channel=0 note=61 velocity=0 time=0
note_on channel=0 note=46 velocity=0 time=0
note_on channel=0 note=49 velocity=0 time=0
note_on channel=0 note=66 velocity=50 time=0
note_on channel=0 note=70 velocity=59 time=0
note_on channel=0 note=61 velocity=50 time=0
note_on channel=0 note=61 velocity=0 time=32
note_on channel=0 note=70 velocity=0 time=0
note_on channel=0 note=66 velocity=0 time=0
note_on channel=0 note=49 velocity=37 time=60
note_on channel=0 note=54 velocity=37 time=0
note_on channel=0 note=58 velocity=44 time=0
note_on channel=0 note=58 velocity=0 time=60
note_on channel=0 note=54 velocity=0 time=0
note_on channel=0 note=49 velocity=0 time=0
note_on channel=0 note=66 velocity=61 time=60
note_on channel=0 note=61 velocity=51 time=0
note_on channel=0 note=58 velocity=51 time=0
note_on channel=0 note=58 velocity=0 time=60
note_on channel=0 note=61 velocity=0 time=0
note_on channel=0 note=66 velocity=0 time=0
note_on channel=0 note=49 velocity=37 time=60
note_on channel=0 note=54 velocity=44 time=0
note_on channel=0 note=46 velocity=37 time=0
note_on channel=0 note=46 velocity=0 time=60
note_on channel=0 note=54 velocity=0 time=0
note_on channel=0 note=49 velocity=0 time=0
note_on channel=0 note=61 velocity=51 time=60
note_on channel=0 note=66 velocity=51 time=0
note_on channel=0 note=70 velocity=61 time=0
note_on channel=0 note=70 velocity=0 time=60
note_on channel=0 note=66 velocity=0 time=0
note_on channel=0 note=61 velocity=0 time=0
note_on channel=0 note=49 velocity=37 time=60
note_on channel=0 note=54 velocity=37 time=0
note_on channel=0 note=58 velocity=44 time=0
note_on channel=0 note=58 velocity=0 time=60
note_on channel=0 note=54 velocity=0 time=0
note_on channel=0 note=49 velocity=0 time=0
note_on channel=0 note=65 velocity=51 time=60
note_on channel=0 note=59 velocity=51 time=0
note_on channel=0 note=62 velocity=51 time=0
note_on channel=0 note=68 velocity=61 time=0
note_on channel=0 note=68 velocity=0 time=60
note_on channel=0 note=65 velocity=0 time=0
note_on channel=0 note=59 velocity=0 time=0
note_on channel=0 note=62 velocity=0 time=0
note_on channel=0 note=50 velocity=37 time=0
note_on channel=0 note=56 velocity=44 time=0
note_on channel=0 note=47 velocity=37 time=0
note_on channel=0 note=53 velocity=37 time=0
note_on channel=0 note=53 velocity=0 time=60
note_on channel=0 note=50 velocity=0 time=0
note_on channel=0 note=56 velocity=0 time=0
note_on channel=0 note=47 velocity=0 time=0
note_on channel=0 note=83 velocity=89 time=0
note_on channel=0 note=92 velocity=105 time=0
note_on channel=0 note=86 velocity=89 time=0
note_on channel=0 note=89 velocity=89 time=0
note_on channel=0 note=80 velocity=89 time=0
note_on channel=0 note=42 velocity=71 time=0
note_on channel=0 note=30 velocity=59 time=0
note_on channel=0 note=30 velocity=0 time=35
note_on channel=0 note=42 velocity=0 time=0
note_on channel=0 note=56 velocity=51 time=0
note_on channel=0 note=53 velocity=51 time=0
note_on channel=0 note=59 velocity=61 time=0
note_on channel=0 note=50 velocity=51 time=0
note_on channel=0 note=50 velocity=0 time=119
note_on channel=0 note=59 velocity=0 time=0
note_on channel=0 note=53 velocity=0 time=0
note_on channel=0 note=56 velocity=0 time=0
note_on channel=0 note=56 velocity=51 time=1
note_on channel=0 note=59 velocity=61 time=0
note_on channel=0 note=50 velocity=51 time=0
note_on channel=0 note=53 velocity=51 time=0
note_on channel=0 note=53 velocity=0 time=119
note_on channel=0 note=50 velocity=0 time=0
note_on channel=0 note=59 velocity=0 time=0
note_on channel=0 note=56 velocity=0 time=0
note_on channel=0 note=56 velocity=51 time=1
note_on channel=0 note=59 velocity=61 time=0
note_on channel=0 note=53 velocity=51 time=0
note_on channel=0 note=50 velocity=51 time=0
note_on channel=0 note=50 velocity=0 time=120
note_on channel=0 note=89 velocity=0 time=0
note_on channel=0 note=83 velocity=0 time=0
note_on channel=0 note=92 velocity=0 time=0
note_on channel=0 note=80 velocity=0 time=0
note_on channel=0 note=86 velocity=0 time=0
note_on channel=0 note=59 velocity=0 time=0
note_on channel=0 note=56 velocity=0 time=0
note_on channel=0 note=53 velocity=0 time=0
note_on channel=0 note=62 velocity=63 time=0
note_on channel=0 note=68 velocity=75 time=0
note_on channel=0 note=65 velocity=63 time=0
note_on channel=0 note=59 velocity=63 time=0
note_on channel=0 note=50 velocity=45 time=120
note_on channel=0 note=53 velocity=45 time=0
note_on channel=0 note=56 velocity=53 time=0
note_on channel=0 note=47 velocity=45 time=0
note_on channel=0 note=47 velocity=0 time=119
note_on channel=0 note=56 velocity=0 time=0
note_on channel=0 note=50 velocity=0 time=0
note_on channel=0 note=53 velocity=0 time=0
note_on channel=0 note=50 velocity=45 time=1
note_on channel=0 note=53 velocity=45 time=0
note_on channel=0 note=56 velocity=54 time=0
note_on channel=0 note=47 velocity=45 time=0
note_on channel=0 note=47 velocity=0 time=119
note_on channel=0 note=56 velocity=0 time=0
note_on channel=0 note=50 velocity=0 time=0
note_on channel=0 note=53 velocity=0 time=0
note_on channel=0 note=50 velocity=45 time=0
note_on channel=0 note=56 velocity=54 time=0
note_on channel=0 note=53 velocity=45 time=0
note_on channel=0 note=47 velocity=45 time=0
note_on channel=0 note=47 velocity=0 time=0
note_on channel=0 note=65 velocity=0 time=0
note_on channel=0 note=50 velocity=0 time=0
note_on channel=0 note=68 velocity=0 time=0
note_on channel=0 note=59 velocity=0 time=0
note_on channel=0 note=62 velocity=0 time=0
note_on channel=0 note=56 velocity=0 time=0
note_on channel=0 note=53 velocity=0 time=0
note_on channel=0 note=65 velocity=50 time=0
note_on channel=0 note=68 velocity=50 time=0
note_on channel=0 note=62 velocity=50 time=0
note_on channel=0 note=71 velocity=59 time=0
note_on channel=0 note=71 velocity=0 time=32
note_on channel=0 note=65 velocity=0 time=0
note_on channel=0 note=68 velocity=0 time=0
note_on channel=0 note=62 velocity=0 time=0
note_on channel=0 note=56 velocity=37 time=60
note_on channel=0 note=53 velocity=37 time=0
note_on channel=0 note=59 velocity=44 time=0
note_on channel=0 note=50 velocity=37 time=0
note_on channel=0 note=50 velocity=0 time=60
note_on channel=0 note=56 velocity=0 time=0
note_on channel=0 note=53 velocity=0 time=0
note_on channel=0 note=59 velocity=0 time=0
note_on channel=0 note=62 velocity=51 time=60
note_on channel=0 note=68 velocity=61 time=0
note_on channel=0 note=65 velocity=51 time=0
note_on channel=0 note=59 velocity=51 time=0
note_on channel=0 note=59 velocity=0 time=60
note_on channel=0 note=62 velocity=0 time=0
note_on channel=0 note=68 velocity=0 time=0
note_on channel=0 note=65 velocity=0 time=0
note_on channel=0 note=50 velocity=37 time=60
note_on channel=0 note=47 velocity=37 time=0
note_on channel=0 note=53 velocity=37 time=0
note_on channel=0 note=56 velocity=44 time=0
note_on channel=0 note=56 velocity=0 time=60
note_on channel=0 note=50 velocity=0 time=0
note_on channel=0 note=47 velocity=0 time=0
note_on channel=0 note=53 velocity=0 time=0
note_on channel=0 note=68 velocity=51 time=60
note_on channel=0 note=62 velocity=51 time=0
note_on channel=0 note=65 velocity=51 time=0
note_on channel=0 note=71 velocity=61 time=0
note_on channel=0 note=71 velocity=0 time=60
note_on channel=0 note=68 velocity=0 time=0
note_on channel=0 note=62 velocity=0 time=0
note_on channel=0 note=65 velocity=0 time=0
note_on channel=0 note=56 velocity=37 time=60
note_on channel=0 note=50 velocity=37 time=0
note_on channel=0 note=59 velocity=44 time=0
note_on channel=0 note=53 velocity=37 time=0
note_on channel=0 note=53 velocity=0 time=60
note_on channel=0 note=56 velocity=0 time=0
note_on channel=0 note=50 velocity=0 time=0
note_on channel=0 note=59 velocity=0 time=0
note_on channel=0 note=67 velocity=51 time=60
note_on channel=0 note=61 velocity=51 time=0
note_on channel=0 note=64 velocity=51 time=0
note_on channel=0 note=70 velocity=61 time=0
note_on channel=0 note=70 velocity=0 time=60
note_on channel=0 note=67 velocity=0 time=0
note_on channel=0 note=61 velocity=0 time=0
note_on channel=0 note=64 velocity=0 time=0
note_on channel=0 note=55 velocity=37 time=0
note_on channel=0 note=58 velocity=44 time=0
note_on channel=0 note=49 velocity=37 time=0
note_on channel=0 note=52 velocity=37 time=0
note_on channel=0 note=52 velocity=0 time=60
note_on channel=0 note=55 velocity=0 time=0
note_on channel=0 note=58 velocity=0 time=0
note_on channel=0 note=49 velocity=0 time=0
note_on channel=0 note=82 velocity=89 time=0
note_on channel=0 note=85 velocity=89 time=0
note_on channel=0 note=88 velocity=89 time=0
note_on channel=0 note=94 velocity=105 time=0
note_on channel=0 note=42 velocity=71 time=0
note_on channel=0 note=30 velocity=59 time=0
note_on channel=0 note=30 velocity=0 time=35
note_on channel=0 note=42 velocity=0 time=0
note_on channel=0 note=58 velocity=51 time=0
note_on channel=0 note=52 velocity=51 time=0
note_on channel=0 note=61 velocity=61 time=0
note_on channel=0 note=61 velocity=0 time=119
note_on channel=0 note=58 velocity=0 time=0
note_on channel=0 note=52 velocity=0 time=0
note_on channel=0 note=61 velocity=61 time=1
note_on channel=0 note=52 velocity=51 time=0
note_on channel=0 note=58 velocity=51 time=0
note_on channel=0 note=58 velocity=0 time=119
note_on channel=0 note=61 velocity=0 time=0
note_on channel=0 note=52 velocity=0 time=0
note_on channel=0 note=61 velocity=61 time=1
note_on channel=0 note=52 velocity=51 time=0
note_on channel=0 note=58 velocity=51 time=0
note_on channel=0 note=58 velocity=0 time=120
note_on channel=0 note=61 velocity=0 time=0
note_on channel=0 note=85 velocity=0 time=0
note_on channel=0 note=94 velocity=0 time=0
note_on channel=0 note=82 velocity=0 time=0
note_on channel=0 note=52 velocity=0 time=0
note_on channel=0 note=88 velocity=0 time=0
note_on channel=0 note=61 velocity=63 time=0
note_on channel=0 note=67 velocity=63 time=0
note_on channel=0 note=64 velocity=63 time=0
note_on channel=0 note=70 velocity=75 time=0
note_on channel=0 note=55 velocity=45 time=120
note_on channel=0 note=52 velocity=45 time=0
note_on channel=0 note=49 velocity=45 time=0
note_on channel=0 note=58 velocity=53 time=0
note_on channel=0 note=58 velocity=0 time=119
note_on channel=0 note=49 velocity=0 time=0
note_on channel=0 note=55 velocity=0 time=0
note_on channel=0 note=52 velocity=0 time=0
note_on channel=0 note=55 velocity=45 time=1
note_on channel=0 note=58 velocity=54 time=0
note_on channel=0 note=52 velocity=45 time=0
note_on channel=0 note=49 velocity=45 time=0
note_on channel=0 note=49 velocity=0 time=119
note_on channel=0 note=52 velocity=0 time=0
note_on channel=0 note=55 velocity=0 time=0
note_on channel=0 note=58 velocity=0 time=0
note_on channel=0 note=55 velocity=45 time=0
note_on channel=0 note=52 velocity=45 time=0
note_on channel=0 note=58 velocity=54 time=0
note_on channel=0 note=49 velocity=45 time=0
note_on channel=0 note=49 velocity=0 time=0
note_on channel=0 note=64 velocity=0 time=0
note_on channel=0 note=55 velocity=0 time=0
note_on channel=0 note=67 velocity=0 time=0
note_on channel=0 note=70 velocity=0 time=0
note_on channel=0 note=61 velocity=0 time=0
note_on channel=0 note=52 velocity=0 time=0
note_on channel=0 note=58 velocity=0 time=0
note_on channel=0 note=70 velocity=50 time=0
note_on channel=0 note=67 velocity=50 time=0
note_on channel=0 note=73 velocity=59 time=0
note_on channel=0 note=64 velocity=50 time=0
note_on channel=0 note=64 velocity=0 time=32
note_on channel=0 note=70 velocity=0 time=0
note_on channel=0 note=67 velocity=0 time=0
note_on channel=0 note=73 velocity=0 time=0
note_on channel=0 note=58 velocity=37 time=60
note_on channel=0 note=55 velocity=37 time=0
note_on channel=0 note=61 velocity=44 time=0
note_on channel=0 note=52 velocity=37 time=0
note_on channel=0 note=52 velocity=0 time=60
note_on channel=0 note=58 velocity=0 time=0
note_on channel=0 note=55 velocity=0 time=0
note_on channel=0 note=61 velocity=0 time=0
note_on channel=0 note=67 velocity=51 time=60
note_on channel=0 note=64 velocity=51 time=0
note_on channel=0 note=70 velocity=61 time=0
note_on channel=0 note=61 velocity=51 time=0
note_on channel=0 note=61 velocity=0 time=60
note_on channel=0 note=67 velocity=0 time=0
note_on channel=0 note=64 velocity=0 time=0
note_on channel=0 note=70 velocity=0 time=0
note_on channel=0 note=55 velocity=37 time=60
note_on channel=0 note=52 velocity=37 time=0
note_on channel=0 note=49 velocity=37 time=0
note_on channel=0 note=58 velocity=44 time=0
note_on channel=0 note=58 velocity=0 time=60
note_on channel=0 note=55 velocity=0 time=0
note_on channel=0 note=52 velocity=0 time=0
note_on channel=0 note=49 velocity=0 time=0
note_on channel=0 note=67 velocity=51 time=60
note_on channel=0 note=70 velocity=51 time=0
note_on channel=0 note=64 velocity=51 time=0
note_on channel=0 note=73 velocity=61 time=0
note_on channel=0 note=73 velocity=0 time=60
note_on channel=0 note=67 velocity=0 time=0
note_on channel=0 note=70 velocity=0 time=0
note_on channel=0 note=64 velocity=0 time=0
note_on channel=0 note=58 velocity=37 time=60
note_on channel=0 note=52 velocity=37 time=0
note_on channel=0 note=61 velocity=44 time=0
note_on channel=0 note=55 velocity=37 time=0
note_on channel=0 note=55 velocity=0 time=60
note_on channel=0 note=58 velocity=0 time=0
note_on channel=0 note=52 velocity=0 time=0
note_on channel=0 note=61 velocity=0 time=0
note_on channel=0 note=62 velocity=51 time=60
note_on channel=0 note=71 velocity=61 time=0
note_on channel=0 note=66 velocity=51 time=0
note_on channel=0 note=66 velocity=0 time=60
note_on channel=0 note=71 velocity=0 time=0
note_on channel=0 note=62 velocity=0 time=0
note_on channel=0 note=54 velocity=37 time=0
note_on channel=0 note=59 velocity=44 time=0
note_on channel=0 note=50 velocity=37 time=0
note_on channel=0 note=50 velocity=0 time=60
note_on channel=0 note=59 velocity=0 time=0
note_on channel=0 note=54 velocity=0 time=0
note_on channel=0 note=83 velocity=89 time=0
note_on channel=0 note=86 velocity=89 time=0
note_on channel=0 note=95 velocity=105 time=0
note_on channel=0 note=90 velocity=89 time=0
note_on channel=0 note=42 velocity=71 time=0
note_on channel=0 note=30 velocity=59 time=0
note_on channel=0 note=30 velocity=0 time=35
note_on channel=0 note=42 velocity=0 time=0
note_on channel=0 note=59 velocity=51 time=0
note_on channel=0 note=62 velocity=61 time=0
note_on channel=0 note=54 velocity=51 time=0
note_on channel=0 note=54 velocity=0 time=119
note_on channel=0 note=59 velocity=0 time=0
note_on channel=0 note=62 velocity=0 time=0
note_on channel=0 note=62 velocity=61 time=1
note_on channel=0 note=54 velocity=51 time=0
note_on channel=0 note=59 velocity=51 time=0
note_on channel=0 note=59 velocity=0 time=119
note_on channel=0 note=62 velocity=0 time=0
note_on channel=0 note=54 velocity=0 time=0
note_on channel=0 note=62 velocity=61 time=1
note_on channel=0 note=54 velocity=51 time=0
note_on channel=0 note=59 velocity=51 time=0
note_on channel=0 note=59 velocity=0 time=120
note_on channel=0 note=62 velocity=0 time=0
note_on channel=0 note=86 velocity=0 time=0
note_on channel=0 note=90 velocity=0 time=0
note_on channel=0 note=83 velocity=0 time=0
note_on channel=0 note=54 velocity=0 time=0
note_on channel=0 note=95 velocity=0 time=0
note_on channel=0 note=71 velocity=75 time=0
note_on channel=0 note=66 velocity=63 time=0
note_on channel=0 note=62 velocity=63 time=0
note_on channel=0 note=54 velocity=45 time=120
note_on channel=0 note=59 velocity=53 time=0
note_on channel=0 note=50 velocity=45 time=0
note_on channel=0 note=50 velocity=0 time=119
note_on channel=0 note=54 velocity=0 time=0
note_on channel=0 note=59 velocity=0 time=0
note_on channel=0 note=59 velocity=54 time=1
note_on channel=0 note=54 velocity=45 time=0
note_on channel=0 note=50 velocity=45 time=0
note_on channel=0 note=50 velocity=0 time=119
note_on channel=0 note=59 velocity=0 time=0
note_on channel=0 note=54 velocity=0 time=0
note_on channel=0 note=54 velocity=45 time=0
note_on channel=0 note=59 velocity=54 time=0
note_on channel=0 note=50 velocity=45 time=0
note_on channel=0 note=50 velocity=0 time=0
note_on channel=0 note=71 velocity=0 time=0
note_on channel=0 note=66 velocity=0 time=0
note_on channel=0 note=62 velocity=0 time=0
note_on channel=0 note=59 velocity=0 time=0
note_on channel=0 note=54 velocity=0 time=0
note_on channel=0 note=68 velocity=50 time=0
note_on channel=0 note=65 velocity=50 time=0
note_on channel=0 note=71 velocity=50 time=0
note_on channel=0 note=74 velocity=59 time=0
note_on channel=0 note=74 velocity=0 time=32
note_on channel=0 note=68 velocity=0 time=0
note_on channel=0 note=65 velocity=0 time=0
note_on channel=0 note=71 velocity=0 time=0
note_on channel=0 note=56 velocity=37 time=60
note_on channel=0 note=53 velocity=37 time=0
note_on channel=0 note=62 velocity=44 time=0
note_on channel=0 note=59 velocity=37 time=0
note_on channel=0 note=59 velocity=0 time=60
note_on channel=0 note=56 velocity=0 time=0
note_on channel=0 note=53 velocity=0 time=0
note_on channel=0 note=62 velocity=0 time=0
note_on channel=0 note=68 velocity=51 time=60
note_on channel=0 note=71 velocity=61 time=0
note_on channel=0 note=65 velocity=51 time=0
note_on channel=0 note=62 velocity=51 time=0
note_on channel=0 note=62 velocity=0 time=60
note_on channel=0 note=68 velocity=0 time=0
note_on channel=0 note=71 velocity=0 time=0
note_on channel=0 note=65 velocity=0 time=0
note_on channel=0 note=56 velocity=37 time=60
note_on channel=0 note=59 velocity=44 time=0
note_on channel=0 note=50 velocity=37 time=0
note_on channel=0 note=53 velocity=37 time=0
note_on channel=0 note=53 velocity=0 time=60
note_on channel=0 note=56 velocity=0 time=0
note_on channel=0 note=59 velocity=0 time=0
note_on channel=0 note=50 velocity=0 time=0
note_on channel=0 note=71 velocity=56 time=60
note_on channel=0 note=74 velocity=67 time=0
note_on channel=0 note=68 velocity=56 time=0
note_on channel=0 note=65 velocity=56 time=0
note_on channel=0 note=65 velocity=0 time=60
note_on channel=0 note=71 velocity=0 time=0
note_on channel=0 note=74 velocity=0 time=0
note_on channel=0 note=68 velocity=0 time=0
note_on channel=0 note=53 velocity=41 time=60
note_on channel=0 note=59 velocity=41 time=0
note_on channel=0 note=56 velocity=41 time=0
note_on channel=0 note=62 velocity=49 time=0
note_on channel=0 note=62 velocity=0 time=60
note_on channel=0 note=53 velocity=0 time=0
note_on channel=0 note=59 velocity=0 time=0
note_on channel=0 note=56 velocity=0 time=0
note_on channel=0 note=70 velocity=58 time=60
note_on channel=0 note=73 velocity=69 time=0
note_on channel=0 note=67 velocity=58 time=0
note_on channel=0 note=64 velocity=58 time=0
note_on channel=0 note=64 velocity=0 time=60
note_on channel=0 note=70 velocity=0 time=0
note_on channel=0 note=73 velocity=0 time=0
note_on channel=0 note=67 velocity=0 time=0
note_on channel=0 note=55 velocity=42 time=0
note_on channel=0 note=58 velocity=42 time=0
note_on channel=0 note=52 velocity=42 time=0
note_on channel=0 note=61 velocity=51 time=0
note_on channel=0 note=61 velocity=0 time=60
note_on channel=0 note=55 velocity=0 time=0
note_on channel=0 note=58 velocity=0 time=0
note_on channel=0 note=52 velocity=0 time=0
note_on channel=0 note=70 velocity=59 time=0
note_on channel=0 note=76 velocity=69 time=0
note_on channel=0 note=67 velocity=59 time=0
note_on channel=0 note=73 velocity=59 time=0
note_on channel=0 note=73 velocity=0 time=60
note_on channel=0 note=70 velocity=0 time=0
note_on channel=0 note=76 velocity=0 time=0
note_on channel=0 note=67 velocity=0 time=0
note_on channel=0 note=58 velocity=44 time=60
note_on channel=0 note=55 velocity=44 time=0
note_on channel=0 note=61 velocity=44 time=0
note_on channel=0 note=64 velocity=52 time=0
note_on channel=0 note=64 velocity=0 time=60
note_on channel=0 note=58 velocity=0 time=0
note_on channel=0 note=55 velocity=0 time=0
note_on channel=0 note=61 velocity=0 time=0
note_on channel=0 note=67 velocity=62 time=60
note_on channel=0 note=70 velocity=62 time=0
note_on channel=0 note=64 velocity=62 time=0
note_on channel=0 note=73 velocity=74 time=0
note_on channel=0 note=73 velocity=0 time=60
note_on channel=0 note=67 velocity=0 time=0
note_on channel=0 note=70 velocity=0 time=0
note_on channel=0 note=64 velocity=0 time=0
note_on channel=0 note=55 velocity=45 time=60
note_on channel=0 note=52 velocity=45 time=0
note_on channel=0 note=61 velocity=54 time=0
note_on channel=0 note=58 velocity=45 time=0
note_on channel=0 note=58 velocity=0 time=60
note_on channel=0 note=55 velocity=0 time=0
note_on channel=0 note=52 velocity=0 time=0
note_on channel=0 note=61 velocity=0 time=0
note_on channel=0 note=67 velocity=65 time=60
note_on channel=0 note=73 velocity=65 time=0
note_on channel=0 note=70 velocity=65 time=0
note_on channel=0 note=76 velocity=77 time=0
note_on channel=0 note=76 velocity=0 time=60
note_on channel=0 note=67 velocity=0 time=0
note_on channel=0 note=73 velocity=0 time=0
note_on channel=0 note=70 velocity=0 time=0
note_on channel=0 note=58 velocity=48 time=60
note_on channel=0 note=64 velocity=57 time=0
note_on channel=0 note=61 velocity=48 time=0
note_on channel=0 note=54 velocity=48 time=0
note_on channel=0 note=54 velocity=0 time=60
note_on channel=0 note=58 velocity=0 time=0
note_on channel=0 note=64 velocity=0 time=0
note_on channel=0 note=61 velocity=0 time=0
note_on channel=0 note=66 velocity=67 time=60
note_on channel=0 note=74 velocity=81 time=0
note_on channel=0 note=71 velocity=67 time=0
note_on channel=0 note=71 velocity=0 time=60
note_on channel=0 note=74 velocity=0 time=0
note_on channel=0 note=66 velocity=0 time=0
note_on channel=0 note=54 velocity=49 time=0
note_on channel=0 note=62 velocity=60 time=0
note_on channel=0 note=59 velocity=49 time=0
note_on channel=0 note=59 velocity=0 time=60
note_on channel=0 note=62 velocity=0 time=0
note_on channel=0 note=54 velocity=0 time=0
note_on channel=0 note=78 velocity=82 time=0
note_on channel=0 note=74 velocity=70 time=0
note_on channel=0 note=66 velocity=70 time=0
note_on channel=0 note=71 velocity=70 time=0
note_on channel=0 note=71 velocity=0 time=60
note_on channel=0 note=78 velocity=0 time=0
note_on channel=0 note=74 velocity=0 time=0
note_on channel=0 note=66 velocity=0 time=0
note_on channel=0 note=54 velocity=52 time=60
note_on channel=0 note=62 velocity=61 time=0
note_on channel=0 note=59 velocity=52 time=0
note_on channel=0 note=59 velocity=0 time=60
note_on channel=0 note=62 velocity=0 time=0
note_on channel=0 note=54 velocity=0 time=0
note_on channel=0 note=71 velocity=74 time=60
note_on channel=0 note=74 velocity=89 time=0
note_on channel=0 note=66 velocity=74 time=0
note_on channel=0 note=66 velocity=0 time=60
note_on channel=0 note=74 velocity=0 time=0
note_on channel=0 note=71 velocity=0 time=0
note_on channel=0 note=62 velocity=65 time=60
note_on channel=0 note=54 velocity=54 time=0
note_on channel=0 note=59 velocity=54 time=0
note_on channel=0 note=59 velocity=0 time=60
note_on channel=0 note=54 velocity=0 time=0
note_on channel=0 note=62 velocity=0 time=0
note_on channel=0 note=74 velocity=77 time=60
note_on channel=0 note=71 velocity=77 time=0
note_on channel=0 note=78 velocity=92 time=0
note_on channel=0 note=66 velocity=77 time=0
note_on channel=0 note=66 velocity=0 time=60
note_on channel=0 note=74 velocity=0 time=0
note_on channel=0 note=71 velocity=0 time=0
note_on channel=0 note=78 velocity=0 time=0
note_on channel=0 note=62 velocity=68 time=60
note_on channel=0 note=54 velocity=57 time=0
note_on channel=0 note=59 velocity=57 time=0
note_on channel=0 note=59 velocity=0 time=60
note_on channel=0 note=54 velocity=0 time=0
note_on channel=0 note=62 velocity=0 time=0
note_on channel=0 note=71 velocity=80 time=60
note_on channel=0 note=68 velocity=80 time=0
note_on channel=0 note=77 velocity=97 time=0
note_on channel=0 note=73 velocity=80 time=0
note_on channel=0 note=73 velocity=0 time=60
note_on channel=0 note=71 velocity=0 time=0
note_on channel=0 note=68 velocity=0 time=0
note_on channel=0 note=77 velocity=0 time=0
note_on channel=0 note=59 velocity=58 time=0
note_on channel=0 note=61 velocity=58 time=0
note_on channel=0 note=56 velocity=58 time=0
note_on channel=0 note=65 velocity=70 time=0
note_on channel=0 note=65 velocity=0 time=60
note_on channel=0 note=59 velocity=0 time=0
note_on channel=0 note=61 velocity=0 time=0
note_on channel=0 note=56 velocity=0 time=0
note_on channel=0 note=80 velocity=92 time=0
note_on channel=0 note=92 velocity=108 time=0
note_on channel=0 note=68 velocity=72 time=120
note_on channel=0 note=56 velocity=61 time=0
note_on channel=0 note=56 velocity=0 time=60
note_on channel=0 note=68 velocity=0 time=0
note_on channel=0 note=92 velocity=0 time=60
note_on channel=0 note=80 velocity=0 time=0
note_on channel=0 note=78 velocity=81 time=0
note_on channel=0 note=90 velocity=96 time=0
note_on channel=0 note=66 velocity=72 time=120
note_on channel=0 note=54 velocity=61 time=0
note_on channel=0 note=54 velocity=0 time=60
note_on channel=0 note=66 velocity=0 time=0
note_on channel=0 note=90 velocity=0 time=60
note_on channel=0 note=78 velocity=0 time=0
note_on channel=0 note=87 velocity=106 time=0
note_on channel=0 note=75 velocity=90 time=0
note_on channel=0 note=51 velocity=61 time=120
note_on channel=0 note=63 velocity=72 time=0
note_on channel=0 note=63 velocity=0 time=60
note_on channel=0 note=51 velocity=0 time=0
note_on channel=0 note=75 velocity=0 time=60
note_on channel=0 note=87 velocity=0 time=0
note_on channel=0 note=73 velocity=83 time=0
note_on channel=0 note=85 velocity=99 time=0
note_on channel=0 note=61 velocity=72 time=0
note_on channel=0 note=49 velocity=61 time=0
note_on channel=0 note=49 velocity=0 time=60
note_on channel=0 note=61 velocity=0 time=0
note_on channel=0 note=85 velocity=0 time=0
note_on channel=0 note=73 velocity=0 time=0
note_on channel=0 note=71 velocity=93 time=0
note_on channel=0 note=83 velocity=106 time=0
note_on channel=0 note=47 velocity=55 time=120
note_on channel=0 note=59 velocity=64 time=0
note_on channel=0 note=59 velocity=0 time=60
note_on channel=0 note=47 velocity=0 time=0
note_on channel=0 note=83 velocity=0 time=60
note_on channel=0 note=71 velocity=0 time=0
note_on channel=0 note=70 velocity=75 time=0
note_on channel=0 note=82 velocity=90 time=0
note_on channel=0 note=58 velocity=64 time=120
note_on channel=0 note=46 velocity=55 time=0
note_on channel=0 note=46 velocity=0 time=60
note_on channel=0 note=58 velocity=0 time=0
note_on channel=0 note=82 velocity=0 time=60
note_on channel=0 note=70 velocity=0 time=0
note_on channel=0 note=68 velocity=80 time=0
note_on channel=0 note=80 velocity=95 time=0
note_on channel=0 note=44 velocity=55 time=120
note_on channel=0 note=56 velocity=64 time=0
note_on channel=0 note=56 velocity=0 time=60
note_on channel=0 note=44 velocity=0 time=0
note_on channel=0 note=80 velocity=0 time=60
note_on channel=0 note=68 velocity=0 time=0
note_on channel=0 note=66 velocity=74 time=0
note_on channel=0 note=78 velocity=89 time=0
note_on channel=0 note=54 velocity=64 time=0
note_on channel=0 note=42 velocity=55 time=0
note_on channel=0 note=42 velocity=0 time=60
note_on channel=0 note=54 velocity=0 time=0
note_on channel=0 note=78 velocity=0 time=0
note_on channel=0 note=66 velocity=0 time=0
note_on channel=0 note=75 velocity=97 time=0
note_on channel=0 note=63 velocity=82 time=0
note_on channel=0 note=51 velocity=64 time=120
note_on channel=0 note=39 velocity=55 time=0
note_on channel=0 note=39 velocity=0 time=60
note_on channel=0 note=51 velocity=0 time=0
note_on channel=0 note=63 velocity=0 time=60
note_on channel=0 note=75 velocity=0 time=0
note_on channel=0 note=61 velocity=72 time=0
note_on channel=0 note=73 velocity=86 time=0
note_on channel=0 note=37 velocity=55 time=120
note_on channel=0 note=49 velocity=64 time=0
note_on channel=0 note=49 velocity=0 time=60
note_on channel=0 note=37 velocity=0 time=0
note_on channel=0 note=73 velocity=0 time=60
note_on channel=0 note=61 velocity=0 time=0
note_on channel=0 note=59 velocity=75 time=0
note_on channel=0 note=71 velocity=90 time=0
note_on channel=0 note=35 velocity=51 time=120
note_on channel=0 note=47 velocity=61 time=0
note_on channel=0 note=47 velocity=0 time=60
note_on channel=0 note=35 velocity=0 time=0
note_on channel=0 note=71 velocity=0 time=60
note_on channel=0 note=59 velocity=0 time=0
note_on channel=0 note=58 velocity=70 time=0
note_on channel=0 note=70 velocity=83 time=0
note_on channel=0 note=46 velocity=61 time=0
note_on channel=0 note=34 velocity=51 time=0
note_on channel=0 note=34 velocity=0 time=60
note_on channel=0 note=46 velocity=0 time=0
note_on channel=0 note=70 velocity=0 time=0
note_on channel=0 note=58 velocity=0 time=0
note_on channel=0 note=68 velocity=88 time=0
note_on channel=0 note=56 velocity=73 time=0
note_on channel=0 note=44 velocity=57 time=120
note_on channel=0 note=32 velocity=49 time=0
note_on channel=0 note=32 velocity=0 time=60
note_on channel=0 note=44 velocity=0 time=0
note_on channel=0 note=56 velocity=0 time=60
note_on channel=0 note=68 velocity=0 time=0
note_on channel=0 note=66 velocity=76 time=0
note_on channel=0 note=54 velocity=63 time=0
note_on channel=0 note=30 velocity=48 time=120
note_on channel=0 note=42 velocity=56 time=0
note_on channel=0 note=42 velocity=0 time=60
note_on channel=0 note=30 velocity=0 time=0
note_on channel=0 note=54 velocity=0 time=60
note_on channel=0 note=66 velocity=0 time=0
note_on channel=0 note=63 velocity=81 time=0
note_on channel=0 note=51 velocity=68 time=0
note_on channel=0 note=39 velocity=55 time=120
note_on channel=0 note=39 velocity=0 time=60
note_on channel=0 note=51 velocity=0 time=60
note_on channel=0 note=63 velocity=0 time=0
note_on channel=0 note=61 velocity=74 time=0
note_on channel=0 note=49 velocity=62 time=0
note_on channel=0 note=37 velocity=54 time=0
note_on channel=0 note=37 velocity=0 time=60
note_on channel=0 note=49 velocity=0 time=0
note_on channel=0 note=61 velocity=0 time=0
note_on channel=0 note=65 velocity=77 time=0
note_on channel=0 note=41 velocity=42 time=120
note_on channel=0 note=41 velocity=0 time=120
note_on channel=0 note=65 velocity=0 time=0
note_on channel=0 note=61 velocity=67 time=0
note_on channel=0 note=37 velocity=28 time=0
note_on channel=0 note=37 velocity=0 time=0
note_on channel=0 note=61 velocity=0 time=0
note_on channel=0 note=68 velocity=73 time=0
note_on channel=0 note=44 velocity=39 time=120
note_on channel=0 note=44 velocity=0 time=120
note_on channel=0 note=68 velocity=0 time=0
note_on channel=0 note=61 velocity=67 time=0
note_on channel=0 note=37 velocity=27 time=0
note_on channel=0 note=37 velocity=0 time=0
note_on channel=0 note=61 velocity=0 time=0
note_on channel=0 note=73 velocity=71 time=0
note_on channel=0 note=49 velocity=37 time=120
note_on channel=0 note=49 velocity=0 time=120
note_on channel=0 note=73 velocity=0 time=0
note_on channel=0 note=61 velocity=59 time=0
note_on channel=0 note=37 velocity=26 time=0
note_on channel=0 note=37 velocity=0 time=0
note_on channel=0 note=61 velocity=0 time=0
note_on channel=0 note=77 velocity=68 time=0
note_on channel=0 note=53 velocity=34 time=120
note_on channel=0 note=53 velocity=0 time=120
note_on channel=0 note=77 velocity=0 time=0
note_on channel=0 note=61 velocity=56 time=0
note_on channel=0 note=37 velocity=24 time=0
note_on channel=0 note=37 velocity=0 time=0
note_on channel=0 note=61 velocity=0 time=0
note_on channel=0 note=80 velocity=62 time=0
note_on channel=0 note=56 velocity=32 time=120
note_on channel=0 note=56 velocity=0 time=120
note_on channel=0 note=80 velocity=0 time=0
note_on channel=0 note=61 velocity=49 time=0
note_on channel=0 note=37 velocity=23 time=0
note_on channel=0 note=37 velocity=0 time=0
note_on channel=0 note=61 velocity=0 time=0
note_on channel=0 note=85 velocity=54 time=0
note_on channel=0 note=61 velocity=29 time=120
note_on channel=0 note=61 velocity=0 time=118
note_on channel=0 note=85 velocity=0 time=2
note_on channel=0 note=61 velocity=45 time=0
note_on channel=0 note=37 velocity=24 time=0
note_on channel=0 note=37 velocity=0 time=0
note_on channel=0 note=61 velocity=0 time=0
note_on channel=0 note=85 velocity=52 time=0
note_on channel=0 note=61 velocity=28 time=120
note_on channel=0 note=61 velocity=0 time=118
note_on channel=0 note=85 velocity=0 time=0
note_on channel=0 note=61 velocity=41 time=0
note_on channel=0 note=37 velocity=21 time=0
note_on channel=0 note=37 velocity=0 time=0
note_on channel=0 note=61 velocity=0 time=0
note_on channel=0 note=85 velocity=48 time=0
note_on channel=0 note=54 velocity=21 time=120
note_on channel=0 note=61 velocity=21 time=0
note_on channel=0 note=61 velocity=0 time=21
note_on channel=0 note=54 velocity=0 time=0
note_on channel=0 note=85 velocity=0 time=0
note_on channel=0 note=35 velocity=101 time=0
note_on channel=0 note=35 velocity=0 time=0
note_on channel=0 note=62 velocity=97 time=0
note_on channel=0 note=54 velocity=81 time=0
note_on channel=0 note=59 velocity=81 time=0
note_on channel=0 note=59 velocity=0 time=357
note_on channel=0 note=54 velocity=0 time=0
note_on channel=0 note=62 velocity=0 time=0
note_on channel=0 note=83 velocity=91 time=3
note_on channel=0 note=78 velocity=91 time=0
note_on channel=0 note=86 velocity=111 time=0
note_on channel=0 note=74 velocity=91 time=0
note_on channel=0 note=62 velocity=88 time=0
note_on channel=0 note=59 velocity=73 time=0
note_on channel=0 note=54 velocity=73 time=0
note_on channel=0 note=54 velocity=0 time=119
note_on channel=0 note=62 velocity=0 time=0
note_on channel=0 note=78 velocity=0 time=0
note_on channel=0 note=86 velocity=0 time=0
note_on channel=0 note=83 velocity=0 time=0
note_on channel=0 note=59 velocity=0 time=0
note_on channel=0 note=74 velocity=0 time=0
note_on channel=0 note=78 velocity=82 time=1
note_on channel=0 note=86 velocity=99 time=0
note_on channel=0 note=74 velocity=82 time=0
note_on channel=0 note=83 velocity=82 time=0
note_on channel=0 note=54 velocity=81 time=0
note_on channel=0 note=59 velocity=81 time=0
note_on channel=0 note=62 velocity=97 time=0
note_on channel=0 note=62 velocity=0 time=240
note_on channel=0 note=54 velocity=0 time=0
note_on channel=0 note=86 velocity=0 time=0
note_on channel=0 note=74 velocity=0 time=0
note_on channel=0 note=78 velocity=0 time=0
note_on channel=0 note=59 velocity=0 time=0
note_on channel=0 note=83 velocity=0 time=0
note_on channel=0 note=83 velocity=84 time=0
note_on channel=0 note=88 velocity=105 time=0
note_on channel=0 note=74 velocity=84 time=0
note_on channel=0 note=78 velocity=84 time=0
note_on channel=0 note=54 velocity=79 time=0
note_on channel=0 note=62 velocity=91 time=0
note_on channel=0 note=59 velocity=79 time=0
note_on channel=0 note=59 velocity=0 time=45
note_on channel=0 note=54 velocity=0 time=0
note_on channel=0 note=88 velocity=0 time=0
note_on channel=0 note=74 velocity=0 time=0
note_on channel=0 note=83 velocity=0 time=0
note_on channel=0 note=62 velocity=0 time=0
note_on channel=0 note=78 velocity=0 time=0
note_on channel=0 note=78 velocity=86 time=0
note_on channel=0 note=74 velocity=86 time=0
note_on channel=0 note=83 velocity=86 time=0
note_on channel=0 note=86 velocity=102 time=0
note_on channel=0 note=54 velocity=81 time=0
note_on channel=0 note=62 velocity=97 time=0
note_on channel=0 note=59 velocity=81 time=0
note_on channel=0 note=59 velocity=0 time=45
note_on channel=0 note=54 velocity=0 time=0
note_on channel=0 note=74 velocity=0 time=0
note_on channel=0 note=83 velocity=0 time=0
note_on channel=0 note=78 velocity=0 time=0
note_on channel=0 note=62 velocity=0 time=0
note_on channel=0 note=86 velocity=0 time=0
note_on channel=0 note=86 velocity=111 time=0
note_on channel=0 note=78 velocity=91 time=0
note_on channel=0 note=83 velocity=91 time=0
note_on channel=0 note=74 velocity=91 time=0
note_on channel=0 note=54 velocity=81 time=0
note_on channel=0 note=62 velocity=97 time=0
note_on channel=0 note=59 velocity=81 time=0
note_on channel=0 note=59 velocity=0 time=14
note_on channel=0 note=54 velocity=0 time=0
note_on channel=0 note=78 velocity=0 time=0
note_on channel=0 note=83 velocity=0 time=0
note_on channel=0 note=86 velocity=0 time=0
note_on channel=0 note=62 velocity=0 time=0
note_on channel=0 note=74 velocity=0 time=0
note_on channel=0 note=83 velocity=101 time=120
note_on channel=0 note=74 velocity=84 time=0
note_on channel=0 note=78 velocity=84 time=0
note_on channel=0 note=71 velocity=84 time=0
note_on channel=0 note=50 velocity=81 time=0
note_on channel=0 note=59 velocity=97 time=0
note_on channel=0 note=54 velocity=81 time=0
note_on channel=0 note=54 velocity=0 time=120
note_on channel=0 note=50 velocity=0 time=0
note_on channel=0 note=74 velocity=0 time=0
note_on channel=0 note=78 velocity=0 time=0
note_on channel=0 note=83 velocity=0 time=0
note_on channel=0 note=59 velocity=0 time=0
note_on channel=0 note=71 velocity=0 time=0
note_on channel=0 note=47 velocity=39 time=0
note_on channel=0 note=47 velocity=0 time=0
note_on channel=0 note=62 velocity=45 time=0
note_on channel=0 note=78 velocity=33 time=0
note_on channel=0 note=83 velocity=33 time=0
note_on channel=0 note=74 velocity=33 time=0
note_on channel=0 note=86 velocity=39 time=0
note_on channel=0 note=86 velocity=0 time=0
note_on channel=0 note=83 velocity=0 time=0
note_on channel=0 note=62 velocity=0 time=0
note_on channel=0 note=78 velocity=0 time=0
note_on channel=0 note=74 velocity=0 time=0
note_on channel=0 note=47 velocity=42 time=0
note_on channel=0 note=47 velocity=0 time=0
note_on channel=0 note=62 velocity=49 time=0
note_on channel=0 note=86 velocity=45 time=0
note_on channel=0 note=78 velocity=37 time=0
note_on channel=0 note=83 velocity=37 time=0
note_on channel=0 note=74 velocity=37 time=0
note_on channel=0 note=74 velocity=0 time=0
note_on channel=0 note=78 velocity=0 time=0
note_on channel=0 note=62 velocity=0 time=0
note_on channel=0 note=86 velocity=0 time=0
note_on channel=0 note=83 velocity=0 time=0
note_on channel=0 note=47 velocity=45 time=0
note_on channel=0 note=47 velocity=0 time=0
note_on channel=0 note=62 velocity=53 time=0
note_on channel=0 note=83 velocity=42 time=0
note_on channel=0 note=86 velocity=50 time=0
note_on channel=0 note=79 velocity=42 time=0
note_on channel=0 note=74 velocity=42 time=0
note_on channel=0 note=74 velocity=0 time=0
note_on channel=0 note=86 velocity=0 time=0
note_on channel=0 note=62 velocity=0 time=0
note_on channel=0 note=83 velocity=0 time=0
note_on channel=0 note=79 velocity=0 time=0
note_on channel=0 note=43 velocity=45 time=0
note_on channel=0 note=43 velocity=0 time=0
note_on channel=0 note=59 velocity=58 time=0
note_on channel=0 note=86 velocity=54 time=0
note_on channel=0 note=83 velocity=46 time=0
note_on channel=0 note=79 velocity=46 time=0
note_on channel=0 note=74 velocity=46 time=0
note_on channel=0 note=74 velocity=0 time=0
note_on channel=0 note=83 velocity=0 time=0
note_on channel=0 note=59 velocity=0 time=0
note_on channel=0 note=86 velocity=0 time=0
note_on channel=0 note=79 velocity=0 time=0
note_on channel=0 note=43 velocity=51 time=0
note_on channel=0 note=43 velocity=0 time=0
note_on channel=0 note=59 velocity=57 time=0
note_on channel=0 note=83 velocity=46 time=0
note_on channel=0 note=74 velocity=46 time=0
note_on channel=0 note=79 velocity=46 time=0
note_on channel=0 note=86 velocity=55 time=0
note_on channel=0 note=86 velocity=0 time=0
note_on channel=0 note=74 velocity=0 time=0
note_on channel=0 note=59 velocity=0 time=0
note_on channel=0 note=83 velocity=0 time=0
note_on channel=0 note=79 velocity=0 time=0
note_on channel=0 note=43 velocity=49 time=0
note_on channel=0 note=43 velocity=0 time=0
note_on channel=0 note=59 velocity=62 time=0
note_on channel=0 note=79 velocity=51 time=0
note_on channel=0 note=74 velocity=51 time=0
note_on channel=0 note=86 velocity=60 time=0
note_on channel=0 note=83 velocity=51 time=0
note_on channel=0 note=83 velocity=0 time=0
note_on channel=0 note=74 velocity=0 time=0
note_on channel=0 note=59 velocity=0 time=0
note_on channel=0 note=79 velocity=0 time=0
note_on channel=0 note=86 velocity=0 time=0
note_on channel=0 note=43 velocity=54 time=0
note_on channel=0 note=43 velocity=0 time=0
note_on channel=0 note=59 velocity=61 time=0
note_on channel=0 note=84 velocity=50 time=0
note_on channel=0 note=75 velocity=50 time=0
note_on channel=0 note=79 velocity=50 time=0
note_on channel=0 note=87 velocity=60 time=0
note_on channel=0 note=87 velocity=0 time=0
note_on channel=0 note=75 velocity=0 time=0
note_on channel=0 note=59 velocity=0 time=0
note_on channel=0 note=84 velocity=0 time=0
note_on channel=0 note=79 velocity=0 time=0
note_on channel=0 note=36 velocity=52 time=0
note_on channel=0 note=36 velocity=0 time=0
note_on channel=0 note=51 velocity=67 time=0
note_on channel=0 note=79 velocity=55 time=0
note_on channel=0 note=75 velocity=55 time=0
note_on channel=0 note=87 velocity=65 time=0
note_on channel=0 note=84 velocity=55 time=0
note_on channel=0 note=84 velocity=0 time=0
note_on channel=0 note=75 velocity=0 time=0
note_on channel=0 note=51 velocity=0 time=0
note_on channel=0 note=79 velocity=0 time=0
note_on channel=0 note=87 velocity=0 time=0
note_on channel=0 note=36 velocity=58 time=0
note_on channel=0 note=36 velocity=0 time=0
note_on channel=0 note=51 velocity=65 time=0
note_on channel=0 note=87 velocity=65 time=0
note_on channel=0 note=84 velocity=55 time=0
note_on channel=0 note=75 velocity=55 time=0
note_on channel=0 note=79 velocity=55 time=0
note_on channel=0 note=79 velocity=0 time=0
note_on channel=0 note=84 velocity=0 time=0
note_on channel=0 note=51 velocity=0 time=0
note_on channel=0 note=87 velocity=0 time=0
note_on channel=0 note=75 velocity=0 time=0
note_on channel=0 note=36 velocity=55 time=0
note_on channel=0 note=36 velocity=0 time=0
note_on channel=0 note=51 velocity=71 time=0
note_on channel=0 note=84 velocity=60 time=0
note_on channel=0 note=79 velocity=60 time=0
note_on channel=0 note=75 velocity=60 time=0
note_on channel=0 note=87 velocity=71 time=0
note_on channel=0 note=87 velocity=0 time=0
note_on channel=0 note=79 velocity=0 time=0
note_on channel=0 note=51 velocity=0 time=0
note_on channel=0 note=84 velocity=0 time=0
note_on channel=0 note=75 velocity=0 time=0
note_on channel=0 note=36 velocity=61 time=0
note_on channel=0 note=36 velocity=0 time=0
note_on channel=0 note=51 velocity=69 time=0
note_on channel=0 note=75 velocity=59 time=0
note_on channel=0 note=87 velocity=70 time=0
note_on channel=0 note=84 velocity=59 time=0
note_on channel=0 note=81 velocity=59 time=0
note_on channel=0 note=81 velocity=0 time=0
note_on channel=0 note=87 velocity=0 time=0
note_on channel=0 note=51 velocity=0 time=0
note_on channel=0 note=75 velocity=0 time=0
note_on channel=0 note=84 velocity=0 time=0
note_on channel=0 note=29 velocity=58 time=0
note_on channel=0 note=29 velocity=0 time=0
note_on channel=0 note=45 velocity=74 time=0
note_on channel=0 note=75 velocity=64 time=0
note_on channel=0 note=84 velocity=65 time=0
note_on channel=0 note=81 velocity=65 time=0
note_on channel=0 note=87 velocity=76 time=0
note_on channel=0 note=87 velocity=0 time=0
note_on channel=0 note=84 velocity=0 time=0
note_on channel=0 note=45 velocity=0 time=0
note_on channel=0 note=75 velocity=0 time=0
note_on channel=0 note=81 velocity=0 time=0
note_on channel=0 note=29 velocity=64 time=0
note_on channel=0 note=29 velocity=0 time=0
note_on channel=0 note=45 velocity=72 time=0
note_on channel=0 note=87 velocity=75 time=0
note_on channel=0 note=75 velocity=63 time=0
note_on channel=0 note=81 velocity=63 time=0
note_on channel=0 note=84 velocity=63 time=0
note_on channel=0 note=84 velocity=0 time=0
note_on channel=0 note=75 velocity=0 time=0
note_on channel=0 note=45 velocity=0 time=0
note_on channel=0 note=87 velocity=0 time=0
note_on channel=0 note=81 velocity=0 time=0
note_on channel=0 note=41 velocity=61 time=0
note_on channel=0 note=41 velocity=0 time=0
note_on channel=0 note=36 velocity=79 time=0
note_on channel=0 note=81 velocity=69 time=0
note_on channel=0 note=87 velocity=69 time=0
note_on channel=0 note=84 velocity=69 time=0
note_on channel=0 note=93 velocity=81 time=0
note_on channel=0 note=93 velocity=0 time=0
note_on channel=0 note=87 velocity=0 time=0
note_on channel=0 note=36 velocity=0 time=0
note_on channel=0 note=81 velocity=0 time=0
note_on channel=0 note=84 velocity=0 time=0
note_on channel=0 note=41 velocity=68 time=0
note_on channel=0 note=41 velocity=0 time=0
note_on channel=0 note=33 velocity=76 time=0
note_on channel=0 note=84 velocity=68 time=0
note_on channel=0 note=96 velocity=80 time=0
note_on channel=0 note=87 velocity=68 time=0
note_on channel=0 note=93 velocity=68 time=0
note_on channel=0 note=93 velocity=0 time=0
note_on channel=0 note=96 velocity=0 time=0
note_on channel=0 note=33 velocity=0 time=0
note_on channel=0 note=84 velocity=0 time=0
note_on channel=0 note=87 velocity=0 time=0
note_on channel=0 note=41 velocity=65 time=0
note_on channel=0 note=41 velocity=0 time=0
note_on channel=0 note=30 velocity=83 time=0
note_on channel=0 note=87 velocity=74 time=0
note_on channel=0 note=96 velocity=74 time=0
note_on channel=0 note=99 velocity=87 time=0
note_on channel=0 note=93 velocity=74 time=0
note_on channel=0 note=93 velocity=0 time=0
note_on channel=0 note=96 velocity=0 time=0
note_on channel=0 note=30 velocity=0 time=0
note_on channel=0 note=87 velocity=0 time=0
note_on channel=0 note=99 velocity=0 time=0
note_on channel=0 note=41 velocity=71 time=0
note_on channel=0 note=41 velocity=0 time=120
note_on channel=0 note=87 velocity=75 time=0
note_on channel=0 note=99 velocity=88 time=0
note_on channel=0 note=93 velocity=75 time=0
note_on channel=0 note=96 velocity=75 time=0
note_on channel=0 note=29 velocity=78 time=0
note_on channel=0 note=41 velocity=85 time=0
note_on channel=0 note=41 velocity=0 time=0
note_on channel=0 note=99 velocity=0 time=0
note_on channel=0 note=93 velocity=0 time=0
note_on channel=0 note=87 velocity=0 time=0
note_on channel=0 note=29 velocity=0 time=0
note_on channel=0 note=96 velocity=0 time=0
note_on channel=0 note=84 velocity=57 time=0
note_on channel=0 note=87 velocity=57 time=0
note_on channel=0 note=78 velocity=48 time=0
note_on channel=0 note=78 velocity=0 time=0
note_on channel=0 note=87 velocity=0 time=0
note_on channel=0 note=84 velocity=0 time=0
note_on channel=0 note=83 velocity=57 time=0
note_on channel=0 note=86 velocity=57 time=0
note_on channel=0 note=77 velocity=48 time=0
note_on channel=0 note=77 velocity=0 time=0
note_on channel=0 note=86 velocity=0 time=0
note_on channel=0 note=83 velocity=0 time=0
note_on channel=0 note=84 velocity=63 time=0
note_on channel=0 note=87 velocity=63 time=0
note_on channel=0 note=78 velocity=54 time=0
note_on channel=0 note=78 velocity=0 time=0
note_on channel=0 note=87 velocity=0 time=0
note_on channel=0 note=84 velocity=0 time=0
note_on channel=0 note=69 velocity=52 time=0
note_on channel=0 note=72 velocity=52 time=0
note_on channel=0 note=77 velocity=44 time=0
note_on channel=0 note=77 velocity=0 time=0
note_on channel=0 note=72 velocity=0 time=0
note_on channel=0 note=69 velocity=0 time=0
note_on channel=0 note=73 velocity=52 time=0
note_on channel=0 note=70 velocity=52 time=0
note_on channel=0 note=76 velocity=44 time=0
note_on channel=0 note=76 velocity=0 time=0
note_on channel=0 note=70 velocity=0 time=0
note_on channel=0 note=73 velocity=0 time=0
note_on channel=0 note=72 velocity=58 time=0
note_on channel=0 note=69 velocity=58 time=0
note_on channel=0 note=77 velocity=44 time=0
note_on channel=0 note=77 velocity=0 time=0
note_on channel=0 note=69 velocity=0 time=0
note_on channel=0 note=72 velocity=0 time=0
note_on channel=0 note=72 velocity=47 time=0
note_on channel=0 note=75 velocity=47 time=0
note_on channel=0 note=66 velocity=43 time=0
note_on channel=0 note=66 velocity=0 time=0
note_on channel=0 note=75 velocity=0 time=0
note_on channel=0 note=72 velocity=0 time=0
note_on channel=0 note=74 velocity=47 time=0
note_on channel=0 note=71 velocity=47 time=0
note_on channel=0 note=65 velocity=43 time=0
note_on channel=0 note=65 velocity=0 time=0
note_on channel=0 note=71 velocity=0 time=0
note_on channel=0 note=74 velocity=0 time=0
note_on channel=0 note=75 velocity=56 time=0
note_on channel=0 note=72 velocity=56 time=0
note_on channel=0 note=66 velocity=51 time=0
note_on channel=0 note=66 velocity=0 time=0
note_on channel=0 note=72 velocity=0 time=0
note_on channel=0 note=75 velocity=0 time=0
note_on channel=0 note=81 velocity=47 time=0
note_on channel=0 note=65 velocity=43 time=0
note_on channel=0 note=65 velocity=0 time=85
note_on channel=0 note=81 velocity=0 time=0
note_on channel=0 note=84 velocity=47 time=0
note_on channel=0 note=64 velocity=43 time=0
note_on channel=0 note=64 velocity=0 time=0
note_on channel=0 note=84 velocity=0 time=0
note_on channel=0 note=87 velocity=57 time=0
note_on channel=0 note=53 velocity=40 time=0
note_on channel=0 note=57 velocity=40 time=0
note_on channel=0 note=60 velocity=40 time=0
note_on channel=0 note=63 velocity=51 time=0
note_on channel=0 note=87 velocity=0 time=28
note_on channel=0 note=89 velocity=48 time=0
note_on channel=0 note=89 velocity=0 time=120
note_on channel=0 note=63 velocity=0 time=0
note_on channel=0 note=53 velocity=0 time=0
note_on channel=0 note=57 velocity=0 time=0
note_on channel=0 note=60 velocity=0 time=0
note_on channel=0 note=87 velocity=49 time=0
note_on channel=0 note=87 velocity=0 time=0
note_on channel=0 note=86 velocity=50 time=0
note_on channel=0 note=53 velocity=42 time=0
note_on channel=0 note=53 velocity=0 time=0
note_on channel=0 note=86 velocity=0 time=0
note_on channel=0 note=87 velocity=65 time=0
note_on channel=0 note=57 velocity=51 time=0
note_on channel=0 note=87 velocity=0 time=21
note_on channel=0 note=89 velocity=57 time=0
note_on channel=0 note=89 velocity=0 time=120
note_on channel=0 note=57 velocity=0 time=0
note_on channel=0 note=91 velocity=66 time=0
note_on channel=0 note=91 velocity=0 time=0
note_on channel=0 note=87 velocity=58 time=0
note_on channel=0 note=60 velocity=40 time=0
note_on channel=0 note=60 velocity=0 time=0
note_on channel=0 note=87 velocity=0 time=0
note_on channel=0 note=84 velocity=69 time=0
note_on channel=0 note=65 velocity=51 time=0
note_on channel=0 note=84 velocity=0 time=14
note_on channel=0 note=86 velocity=56 time=0
note_on channel=0 note=86 velocity=0 time=120
note_on channel=0 note=65 velocity=0 time=0
note_on channel=0 note=87 velocity=66 time=0
note_on channel=0 note=87 velocity=0 time=0
note_on channel=0 note=84 velocity=54 time=0
note_on channel=0 note=69 velocity=43 time=0
note_on channel=0 note=69 velocity=0 time=0
note_on channel=0 note=84 velocity=0 time=0
note_on channel=0 note=81 velocity=66 time=0
note_on channel=0 note=72 velocity=51 time=0
note_on channel=0 note=81 velocity=0 time=7
note_on channel=0 note=82 velocity=53 time=0
note_on channel=0 note=82 velocity=0 time=120
note_on channel=0 note=72 velocity=0 time=0
note_on channel=0 note=84 velocity=61 time=0
note_on channel=0 note=75 velocity=45 time=0
note_on channel=0 note=75 velocity=0 time=0
note_on channel=0 note=84 velocity=0 time=0
note_on channel=0 note=81 velocity=53 time=0
note_on channel=0 note=72 velocity=45 time=0
note_on channel=0 note=72 velocity=0 time=0
note_on channel=0 note=81 velocity=0 time=0
note_on channel=0 note=75 velocity=47 time=0
note_on channel=0 note=67 velocity=40 time=0
note_on channel=0 note=67 velocity=0 time=28
note_on channel=0 note=75 velocity=0 time=0
note_on channel=0 note=77 velocity=47 time=0
note_on channel=0 note=69 velocity=40 time=0
note_on channel=0 note=69 velocity=0 time=120
note_on channel=0 note=77 velocity=0 time=0
note_on channel=0 note=79 velocity=58 time=0
note_on channel=0 note=70 velocity=44 time=0
note_on channel=0 note=70 velocity=0 time=0
note_on channel=0 note=79 velocity=0 time=0
note_on channel=0 note=75 velocity=47 time=0
note_on channel=0 note=67 velocity=40 time=0
note_on channel=0 note=67 velocity=0 time=0
note_on channel=0 note=75 velocity=0 time=0
note_on channel=0 note=72 velocity=47 time=0
note_on channel=0 note=63 velocity=40 time=0
note_on channel=0 note=63 velocity=0 time=14
note_on channel=0 note=72 velocity=0 time=0
note_on channel=0 note=74 velocity=47 time=0
note_on channel=0 note=65 velocity=40 time=0
note_on channel=0 note=65 velocity=0 time=120
note_on channel=0 note=74 velocity=0 time=0
note_on channel=0 note=75 velocity=53 time=0
note_on channel=0 note=67 velocity=45 time=0
note_on channel=0 note=67 velocity=0 time=0
note_on channel=0 note=75 velocity=0 time=0
note_on channel=0 note=72 velocity=47 time=0
note_on channel=0 note=63 velocity=40 time=0
note_on channel=0 note=63 velocity=0 time=0
note_on channel=0 note=72 velocity=0 time=0
note_on channel=0 note=69 velocity=47 time=0
note_on channel=0 note=60 velocity=40 time=0
note_on channel=0 note=60 velocity=0 time=14
note_on channel=0 note=69 velocity=0 time=0
note_on channel=0 note=70 velocity=47 time=0
note_on channel=0 note=62 velocity=40 time=0
note_on channel=0 note=62 velocity=0 time=120
note_on channel=0 note=70 velocity=0 time=0
note_on channel=0 note=72 velocity=52 time=0
note_on channel=0 note=63 velocity=45 time=0
note_on channel=0 note=63 velocity=0 time=0
note_on channel=0 note=72 velocity=0 time=0
note_on channel=0 note=69 velocity=47 time=0
note_on channel=0 note=60 velocity=40 time=0
note_on channel=0 note=60 velocity=0 time=0
note_on channel=0 note=69 velocity=0 time=0
note_on channel=0 note=65 velocity=47 time=0
note_on channel=0 note=63 velocity=47 time=0
note_on channel=0 note=60 velocity=47 time=0
note_on channel=0 note=57 velocity=40 time=0
note_on channel=0 note=57 velocity=0 time=7
note_on channel=0 note=58 velocity=40 time=0
note_on channel=0 note=58 velocity=0 time=120
note_on channel=0 note=60 velocity=0 time=0
note_on channel=0 note=63 velocity=0 time=0
note_on channel=0 note=65 velocity=0 time=0
note_on channel=0 note=60 velocity=45 time=0
note_on channel=0 note=60 velocity=0 time=0
note_on channel=0 note=57 velocity=40 time=0
note_on channel=0 note=57 velocity=0 time=0
note_on channel=0 note=86 velocity=57 time=0
note_on channel=0 note=62 velocity=51 time=0
note_on channel=0 note=53 velocity=48 time=0
note_on channel=0 note=58 velocity=48 time=0
note_on channel=0 note=86 velocity=0 time=28
note_on channel=0 note=87 velocity=48 time=0
note_on channel=0 note=87 velocity=0 time=120
note_on channel=0 note=58 velocity=0 time=0
note_on channel=0 note=53 velocity=0 time=0
note_on channel=0 note=62 velocity=0 time=0
note_on channel=0 note=86 velocity=49 time=0
note_on channel=0 note=86 velocity=0 time=0
note_on channel=0 note=84 velocity=50 time=0
note_on channel=0 note=53 velocity=42 time=0
note_on channel=0 note=53 velocity=0 time=0
note_on channel=0 note=84 velocity=0 time=0
note_on channel=0 note=86 velocity=65 time=0
note_on channel=0 note=58 velocity=51 time=0
note_on channel=0 note=86 velocity=0 time=21
note_on channel=0 note=87 velocity=57 time=0
note_on channel=0 note=87 velocity=0 time=120
note_on channel=0 note=58 velocity=0 time=0
note_on channel=0 note=89 velocity=66 time=0
note_on channel=0 note=89 velocity=0 time=0
note_on channel=0 note=86 velocity=58 time=0
note_on channel=0 note=62 velocity=40 time=0
note_on channel=0 note=62 velocity=0 time=0
note_on channel=0 note=86 velocity=0 time=0
note_on channel=0 note=82 velocity=69 time=0
note_on channel=0 note=65 velocity=51 time=0
note_on channel=0 note=82 velocity=0 time=14
note_on channel=0 note=84 velocity=56 time=0
note_on channel=0 note=84 velocity=0 time=120
note_on channel=0 note=65 velocity=0 time=0
note_on channel=0 note=86 velocity=66 time=0
note_on channel=0 note=86 velocity=0 time=0
note_on channel=0 note=82 velocity=54 time=0
note_on channel=0 note=70 velocity=43 time=0
note_on channel=0 note=70 velocity=0 time=0
note_on channel=0 note=82 velocity=0 time=0
note_on channel=0 note=77 velocity=66 time=0
note_on channel=0 note=74 velocity=51 time=0
note_on channel=0 note=77 velocity=0 time=7
note_on channel=0 note=81 velocity=53 time=0
note_on channel=0 note=81 velocity=0 time=120
note_on channel=0 note=74 velocity=0 time=0
note_on channel=0 note=82 velocity=61 time=0
note_on channel=0 note=62 velocity=45 time=0
note_on channel=0 note=62 velocity=0 time=0
note_on channel=0 note=82 velocity=0 time=0
note_on channel=0 note=77 velocity=53 time=0
note_on channel=0 note=58 velocity=45 time=0
note_on channel=0 note=58 velocity=0 time=0
note_on channel=0 note=77 velocity=0 time=0
note_on channel=0 note=74 velocity=47 time=0
note_on channel=0 note=70 velocity=40 time=0
note_on channel=0 note=70 velocity=0 time=28
note_on channel=0 note=74 velocity=0 time=0
note_on channel=0 note=75 velocity=47 time=0
note_on channel=0 note=72 velocity=40 time=0
note_on channel=0 note=72 velocity=0 time=120
note_on channel=0 note=75 velocity=0 time=0
note_on channel=0 note=77 velocity=58 time=0
note_on channel=0 note=74 velocity=44 time=0
note_on channel=0 note=74 velocity=0 time=0
note_on channel=0 note=77 velocity=0 time=0
note_on channel=0 note=74 velocity=47 time=0
note_on channel=0 note=70 velocity=40 time=0
note_on channel=0 note=70 velocity=0 time=0
note_on channel=0 note=74 velocity=0 time=0
note_on channel=0 note=70 velocity=47 time=0
note_on channel=0 note=62 velocity=40 time=0
note_on channel=0 note=62 velocity=0 time=14
note_on channel=0 note=70 velocity=0 time=0
note_on channel=0 note=72 velocity=47 time=0
note_on channel=0 note=63 velocity=40 time=0
note_on channel=0 note=63 velocity=0 time=120
note_on channel=0 note=72 velocity=0 time=0
note_on channel=0 note=74 velocity=53 time=0
note_on channel=0 note=65 velocity=45 time=0
note_on channel=0 note=65 velocity=0 time=0
note_on channel=0 note=74 velocity=0 time=0
note_on channel=0 note=70 velocity=47 time=0
note_on channel=0 note=62 velocity=40 time=0
note_on channel=0 note=62 velocity=0 time=0
note_on channel=0 note=70 velocity=0 time=0
note_on channel=0 note=65 velocity=47 time=0
note_on channel=0 note=58 velocity=40 time=0
note_on channel=0 note=58 velocity=0 time=14
note_on channel=0 note=65 velocity=0 time=0
note_on channel=0 note=69 velocity=47 time=0
note_on channel=0 note=60 velocity=40 time=0
note_on channel=0 note=60 velocity=0 time=120
note_on channel=0 note=69 velocity=0 time=0
note_on channel=0 note=70 velocity=52 time=0
note_on channel=0 note=62 velocity=45 time=0
note_on channel=0 note=62 velocity=0 time=0
note_on channel=0 note=70 velocity=0 time=0
note_on channel=0 note=62 velocity=47 time=0
note_on channel=0 note=58 velocity=40 time=0
note_on channel=0 note=58 velocity=0 time=118
note_on channel=0 note=62 velocity=0 time=0
note_on channel=0 note=70 velocity=40 time=0
note_on channel=0 note=74 velocity=40 time=0
note_on channel=0 note=74 velocity=0 time=7
note_on channel=0 note=70 velocity=0 time=0
note_on channel=0 note=72 velocity=40 time=0
note_on channel=0 note=75 velocity=40 time=0
note_on channel=0 note=75 velocity=0 time=120
note_on channel=0 note=72 velocity=0 time=0
note_on channel=0 note=74 velocity=45 time=0
note_on channel=0 note=77 velocity=45 time=0
note_on channel=0 note=74 velocity=0 time=118
note_on channel=0 note=77 velocity=0 time=0
note_on channel=0 note=70 velocity=40 time=0
note_on channel=0 note=74 velocity=40 time=0
note_on channel=0 note=74 velocity=0 time=120
note_on channel=0 note=70 velocity=0 time=0
note_on channel=0 note=65 velocity=40 time=0
note_on channel=0 note=72 velocity=46 time=0
note_on channel=0 note=69 velocity=40 time=0
note_on channel=0 note=75 velocity=40 time=0
note_on channel=0 note=75 velocity=0 time=7
note_on channel=0 note=77 velocity=40 time=0
note_on channel=0 note=77 velocity=0 time=0
note_on channel=0 note=69 velocity=0 time=0
note_on channel=0 note=72 velocity=0 time=0
note_on channel=0 note=65 velocity=0 time=0
note_on channel=0 note=91 velocity=52 time=0
note_on channel=0 note=75 velocity=45 time=0
note_on channel=0 note=75 velocity=0 time=0
note_on channel=0 note=91 velocity=0 time=0
note_on channel=0 note=89 velocity=47 time=0
note_on channel=0 note=74 velocity=40 time=0
note_on channel=0 note=74 velocity=0 time=0
note_on channel=0 note=89 velocity=0 time=0
note_on channel=0 note=91 velocity=40 time=0
note_on channel=0 note=75 velocity=40 time=0
note_on channel=0 note=75 velocity=0 time=7
note_on channel=0 note=91 velocity=0 time=0
note_on channel=0 note=89 velocity=40 time=0
note_on channel=0 note=77 velocity=40 time=0
note_on channel=0 note=77 velocity=0 time=120
note_on channel=0 note=89 velocity=0 time=0
note_on channel=0 note=87 velocity=45 time=0
note_on channel=0 note=79 velocity=45 time=0
note_on channel=0 note=79 velocity=0 time=0
note_on channel=0 note=87 velocity=0 time=0
note_on channel=0 note=91 velocity=40 time=0
note_on channel=0 note=75 velocity=40 time=0
note_on channel=0 note=75 velocity=0 time=0
note_on channel=0 note=91 velocity=0 time=0
note_on channel=0 note=87 velocity=52 time=0
note_on channel=0 note=72 velocity=46 time=0
note_on channel=0 note=72 velocity=0 time=7
note_on channel=0 note=87 velocity=0 time=0
note_on channel=0 note=86 velocity=42 time=0
note_on channel=0 note=74 velocity=38 time=0
note_on channel=0 note=74 velocity=0 time=0
note_on channel=0 note=86 velocity=0 time=0
note_on channel=0 note=84 velocity=49 time=0
note_on channel=0 note=75 velocity=45 time=0
note_on channel=0 note=75 velocity=0 time=0
note_on channel=0 note=84 velocity=0 time=0
note_on channel=0 note=87 velocity=43 time=0
note_on channel=0 note=72 velocity=40 time=0
note_on channel=0 note=72 velocity=0 time=0
note_on channel=0 note=87 velocity=0 time=0
note_on channel=0 note=84 velocity=48 time=0
note_on channel=0 note=69 velocity=45 time=0
note_on channel=0 note=69 velocity=0 time=7
note_on channel=0 note=84 velocity=0 time=0
note_on channel=0 note=82 velocity=40 time=0
note_on channel=0 note=70 velocity=36 time=0
note_on channel=0 note=70 velocity=0 time=120
note_on channel=0 note=82 velocity=0 time=0
note_on channel=0 note=81 velocity=45 time=0
note_on channel=0 note=72 velocity=41 time=0
note_on channel=0 note=72 velocity=0 time=0
note_on channel=0 note=81 velocity=0 time=0
note_on channel=0 note=84 velocity=40 time=0
note_on channel=0 note=69 velocity=36 time=0
note_on channel=0 note=69 velocity=0 time=0
note_on channel=0 note=84 velocity=0 time=0
note_on channel=0 note=78 velocity=52 time=0
note_on channel=0 note=63 velocity=46 time=0
note_on channel=0 note=63 velocity=0 time=7
note_on channel=0 note=78 velocity=0 time=0
note_on channel=0 note=77 velocity=42 time=0
note_on channel=0 note=65 velocity=38 time=0
note_on channel=0 note=65 velocity=0 time=0
note_on channel=0 note=77 velocity=0 time=0
note_on channel=0 note=75 velocity=49 time=0
note_on channel=0 note=66 velocity=45 time=0
note_on channel=0 note=66 velocity=0 time=0
note_on channel=0 note=75 velocity=0 time=0
note_on channel=0 note=78 velocity=43 time=0
note_on channel=0 note=63 velocity=40 time=0
note_on channel=0 note=63 velocity=0 time=0
note_on channel=0 note=78 velocity=0 time=0
note_on channel=0 note=75 velocity=48 time=0
note_on channel=0 note=60 velocity=45 time=0
note_on channel=0 note=60 velocity=0 time=7
note_on channel=0 note=75 velocity=0 time=0
note_on channel=0 note=74 velocity=40 time=0
note_on channel=0 note=62 velocity=36 time=0
note_on channel=0 note=62 velocity=0 time=120
note_on channel=0 note=74 velocity=0 time=0
note_on channel=0 note=72 velocity=45 time=0
note_on channel=0 note=63 velocity=41 time=0
note_on channel=0 note=63 velocity=0 time=0
note_on channel=0 note=72 velocity=0 time=0
note_on channel=0 note=75 velocity=40 time=0
note_on channel=0 note=60 velocity=36 time=0
note_on channel=0 note=60 velocity=0 time=0
note_on channel=0 note=75 velocity=0 time=0
note_on channel=0 note=72 velocity=52 time=0
note_on channel=0 note=57 velocity=46 time=0
note_on channel=0 note=57 velocity=0 time=7
note_on channel=0 note=72 velocity=0 time=0
note_on channel=0 note=70 velocity=42 time=0
note_on channel=0 note=58 velocity=38 time=0
note_on channel=0 note=58 velocity=0 time=0
note_on channel=0 note=70 velocity=0 time=0
note_on channel=0 note=69 velocity=49 time=0
note_on channel=0 note=60 velocity=45 time=0
note_on channel=0 note=60 velocity=0 time=0
note_on channel=0 note=69 velocity=0 time=0
note_on channel=0 note=72 velocity=43 time=0
note_on channel=0 note=57 velocity=40 time=0
note_on channel=0 note=57 velocity=0 time=0
note_on channel=0 note=72 velocity=0 time=0
note_on channel=0 note=63 velocity=48 time=0
note_on channel=0 note=72 velocity=45 time=0
note_on channel=0 note=72 velocity=0 time=7
note_on channel=0 note=63 velocity=0 time=0
note_on channel=0 note=62 velocity=40 time=0
note_on channel=0 note=70 velocity=36 time=0
note_on channel=0 note=70 velocity=0 time=120
note_on channel=0 note=62 velocity=0 time=0
note_on channel=0 note=60 velocity=45 time=0
note_on channel=0 note=69 velocity=41 time=0
note_on channel=0 note=69 velocity=0 time=0
note_on channel=0 note=60 velocity=0 time=0
note_on channel=0 note=63 velocity=40 time=0
note_on channel=0 note=72 velocity=36 time=0
note_on channel=0 note=72 velocity=0 time=0
note_on channel=0 note=63 velocity=0 time=0
note_on channel=0 note=65 velocity=40 time=0
note_on channel=0 note=70 velocity=46 time=0
note_on channel=0 note=74 velocity=40 time=0
note_on channel=0 note=74 velocity=0 time=7
note_on channel=0 note=75 velocity=40 time=0
note_on channel=0 note=75 velocity=0 time=0
note_on channel=0 note=70 velocity=0 time=0
note_on channel=0 note=65 velocity=0 time=0
note_on channel=0 note=89 velocity=52 time=0
note_on channel=0 note=74 velocity=45 time=0
note_on channel=0 note=74 velocity=0 time=0
note_on channel=0 note=89 velocity=0 time=0
note_on channel=0 note=87 velocity=47 time=0
note_on channel=0 note=72 velocity=40 time=0
note_on channel=0 note=72 velocity=0 time=0
note_on channel=0 note=87 velocity=0 time=0
note_on channel=0 note=89 velocity=40 time=0
note_on channel=0 note=74 velocity=40 time=0
note_on channel=0 note=74 velocity=0 time=7
note_on channel=0 note=89 velocity=0 time=0
note_on channel=0 note=87 velocity=40 time=0
note_on channel=0 note=75 velocity=40 time=0
note_on channel=0 note=75 velocity=0 time=120
note_on channel=0 note=87 velocity=0 time=0
note_on channel=0 note=86 velocity=45 time=0
note_on channel=0 note=77 velocity=45 time=0
note_on channel=0 note=77 velocity=0 time=0
note_on channel=0 note=86 velocity=0 time=0
note_on channel=0 note=89 velocity=40 time=0
note_on channel=0 note=74 velocity=40 time=0
note_on channel=0 note=74 velocity=0 time=0
note_on channel=0 note=89 velocity=0 time=0
note_on channel=0 note=86 velocity=52 time=0
note_on channel=0 note=70 velocity=46 time=0
note_on channel=0 note=70 velocity=0 time=7
note_on channel=0 note=86 velocity=0 time=0
note_on channel=0 note=84 velocity=42 time=0
note_on channel=0 note=72 velocity=38 time=0
note_on channel=0 note=72 velocity=0 time=0
note_on channel=0 note=84 velocity=0 time=0
note_on channel=0 note=82 velocity=49 time=0
note_on channel=0 note=74 velocity=45 time=0
note_on channel=0 note=74 velocity=0 time=0
note_on channel=0 note=82 velocity=0 time=0
note_on channel=0 note=86 velocity=43 time=0
note_on channel=0 note=70 velocity=40 time=0
note_on channel=0 note=70 velocity=0 time=0
note_on channel=0 note=86 velocity=0 time=0
note_on channel=0 note=77 velocity=48 time=0
note_on channel=0 note=65 velocity=45 time=0
note_on channel=0 note=65 velocity=0 time=7
note_on channel=0 note=77 velocity=0 time=0
note_on channel=0 note=75 velocity=40 time=0
note_on channel=0 note=69 velocity=36 time=0
note_on channel=0 note=69 velocity=0 time=120
note_on channel=0 note=75 velocity=0 time=0
note_on channel=0 note=74 velocity=45 time=0
note_on channel=0 note=70 velocity=41 time=0
note_on channel=0 note=70 velocity=0 time=0
note_on channel=0 note=74 velocity=0 time=0
note_on channel=0 note=77 velocity=40 time=0
note_on channel=0 note=65 velocity=36 time=0
note_on channel=0 note=65 velocity=0 time=0
note_on channel=0 note=77 velocity=0 time=0
note_on channel=0 note=82 velocity=52 time=0
note_on channel=0 note=62 velocity=46 time=0
note_on channel=0 note=62 velocity=0 time=7
note_on channel=0 note=82 velocity=0 time=0
note_on channel=0 note=79 velocity=42 time=0
note_on channel=0 note=63 velocity=38 time=0
note_on channel=0 note=63 velocity=0 time=0
note_on channel=0 note=79 velocity=0 time=0
note_on channel=0 note=77 velocity=49 time=0
note_on channel=0 note=65 velocity=45 time=0
note_on channel=0 note=65 velocity=0 time=0
note_on channel=0 note=77 velocity=0 time=0
note_on channel=0 note=82 velocity=43 time=0
note_on channel=0 note=62 velocity=40 time=0
note_on channel=0 note=62 velocity=0 time=0
note_on channel=0 note=82 velocity=0 time=0
note_on channel=0 note=74 velocity=48 time=0
note_on channel=0 note=58 velocity=45 time=0
note_on channel=0 note=58 velocity=0 time=7
note_on channel=0 note=74 velocity=0 time=0
note_on channel=0 note=72 velocity=40 time=0
note_on channel=0 note=60 velocity=36 time=0
note_on channel=0 note=60 velocity=0 time=120
note_on channel=0 note=72 velocity=0 time=0
note_on channel=0 note=70 velocity=45 time=0
note_on channel=0 note=62 velocity=41 time=0
note_on channel=0 note=62 velocity=0 time=0
note_on channel=0 note=70 velocity=0 time=0
note_on channel=0 note=74 velocity=40 time=0
note_on channel=0 note=58 velocity=36 time=0
note_on channel=0 note=58 velocity=0 time=0
note_on channel=0 note=74 velocity=0 time=0
note_on channel=0 note=86 velocity=62 time=0
note_on channel=0 note=74 velocity=62 time=0
note_on channel=0 note=53 velocity=46 time=0
note_on channel=0 note=53 velocity=0 time=7
note_on channel=0 note=86 velocity=0 time=0
note_on channel=0 note=84 velocity=51 time=0
note_on channel=0 note=57 velocity=38 time=0
note_on channel=0 note=57 velocity=0 time=0
note_on channel=0 note=84 velocity=0 time=0
note_on channel=0 note=82 velocity=61 time=0
note_on channel=0 note=58 velocity=45 time=0
note_on channel=0 note=58 velocity=0 time=0
note_on channel=0 note=82 velocity=0 time=0
note_on channel=0 note=86 velocity=52 time=0
note_on channel=0 note=53 velocity=40 time=0
note_on channel=0 note=53 velocity=0 time=0
note_on channel=0 note=86 velocity=0 time=0
note_on channel=0 note=74 velocity=0 time=0
note_on channel=0 note=87 velocity=52 time=0
note_on channel=0 note=78 velocity=62 time=0
note_on channel=0 note=51 velocity=45 time=0
note_on channel=0 note=51 velocity=0 time=7
note_on channel=0 note=87 velocity=0 time=0
note_on channel=0 note=86 velocity=59 time=0
note_on channel=0 note=58 velocity=36 time=0
note_on channel=0 note=58 velocity=0 time=0
note_on channel=0 note=86 velocity=0 time=0
note_on channel=0 note=87 velocity=62 time=0
note_on channel=0 note=53 velocity=41 time=0
note_on channel=0 note=53 velocity=0 time=120
note_on channel=0 note=87 velocity=0 time=0
note_on channel=0 note=89 velocity=65 time=0
note_on channel=0 note=51 velocity=36 time=0
note_on channel=0 note=51 velocity=0 time=120
note_on channel=0 note=89 velocity=0 time=0
note_on channel=0 note=78 velocity=0 time=0
note_on channel=0 note=77 velocity=51 time=0
note_on channel=0 note=89 velocity=51 time=0
note_on channel=0 note=50 velocity=36 time=0
note_on channel=0 note=50 velocity=0 time=0
note_on channel=0 note=89 velocity=0 time=0
note_on channel=0 note=77 velocity=0 time=0
note_on channel=0 note=46 velocity=34 time=0
note_on channel=0 note=58 velocity=40 time=0
note_on channel=0 note=58 velocity=0 time=219
note_on channel=0 note=46 velocity=0 time=0
note_on channel=0 note=55 velocity=36 time=0
note_on channel=0 note=51 velocity=30 time=0
note_on channel=0 note=51 velocity=0 time=92
note_on channel=0 note=55 velocity=0 time=0
note_on channel=0 note=63 velocity=40 time=0
note_on channel=0 note=63 velocity=0 time=113
note_on channel=0 note=60 velocity=36 time=0
note_on channel=0 note=60 velocity=0 time=0
note_on channel=0 note=57 velocity=36 time=0
note_on channel=0 note=57 velocity=0 time=0
note_on channel=0 note=72 velocity=40 time=0
note_on channel=0 note=69 velocity=34 time=0
note_on channel=0 note=53 velocity=34 time=0
note_on channel=0 note=65 velocity=36 time=0
note_on channel=0 note=65 velocity=0 time=0
note_on channel=0 note=72 velocity=0 time=0
note_on channel=0 note=69 velocity=0 time=0
note_on channel=0 note=53 velocity=0 time=0
note_on channel=0 note=74 velocity=38 time=0
note_on channel=0 note=70 velocity=32 time=0
note_on channel=0 note=62 velocity=36 time=0
note_on channel=0 note=58 velocity=30 time=0
note_on channel=0 note=58 velocity=0 time=120
note_on channel=0 note=74 velocity=0 time=0
note_on channel=0 note=70 velocity=0 time=0
note_on channel=0 note=62 velocity=0 time=0
note_on channel=0 note=94 velocity=47 time=0
note_on channel=0 note=94 velocity=0 time=113
note_on channel=0 note=93 velocity=44 time=0
note_on channel=0 note=93 velocity=0 time=0
note_on channel=0 note=94 velocity=47 time=0
note_on channel=0 note=94 velocity=0 time=0
note_on channel=0 note=91 velocity=39 time=0
note_on channel=0 note=82 velocity=33 time=0
note_on channel=0 note=79 velocity=33 time=0
note_on channel=0 note=64 velocity=30 time=0
note_on channel=0 note=61 velocity=26 time=0
note_on channel=0 note=58 velocity=26 time=0
note_on channel=0 note=67 velocity=36 time=0
note_on channel=0 note=67 velocity=0 time=0
note_on channel=0 note=61 velocity=0 time=0
note_on channel=0 note=82 velocity=0 time=0
note_on channel=0 note=79 velocity=0 time=0
note_on channel=0 note=91 velocity=0 time=0
note_on channel=0 note=58 velocity=0 time=0
note_on channel=0 note=64 velocity=0 time=0
note_on channel=0 note=81 velocity=35 time=0
note_on channel=0 note=89 velocity=42 time=0
note_on channel=0 note=77 velocity=35 time=0
note_on channel=0 note=65 velocity=34 time=0
note_on channel=0 note=69 velocity=40 time=0
note_on channel=0 note=60 velocity=34 time=0
note_on channel=0 note=60 velocity=0 time=0
note_on channel=0 note=89 velocity=0 time=0
note_on channel=0 note=77 velocity=0 time=0
note_on channel=0 note=81 velocity=0 time=0
note_on channel=0 note=69 velocity=0 time=0
note_on channel=0 note=65 velocity=0 time=0
note_on channel=0 note=88 velocity=40 time=0
note_on channel=0 note=79 velocity=30 time=0
note_on channel=0 note=76 velocity=30 time=0
note_on channel=0 note=67 velocity=27 time=0
note_on channel=0 note=60 velocity=25 time=0
note_on channel=0 note=70 velocity=30 time=0
note_on channel=0 note=70 velocity=0 time=14
note_on channel=0 note=67 velocity=0 time=0
note_on channel=0 note=72 velocity=36 time=0
note_on channel=0 note=72 velocity=0 time=0
note_on channel=0 note=60 velocity=0 time=0
note_on channel=0 note=88 velocity=0 time=0
note_on channel=0 note=79 velocity=0 time=0
note_on channel=0 note=76 velocity=0 time=0
note_on channel=0 note=79 velocity=38 time=0
note_on channel=0 note=91 velocity=45 time=0
note_on channel=0 note=82 velocity=38 time=0
note_on channel=0 note=72 velocity=36 time=0
note_on channel=0 note=65 velocity=30 time=0
note_on channel=0 note=65 velocity=0 time=0
note_on channel=0 note=82 velocity=0 time=0
note_on channel=0 note=79 velocity=0 time=0
note_on channel=0 note=91 velocity=0 time=0
note_on channel=0 note=72 velocity=0 time=0
note_on channel=0 note=81 velocity=30 time=0
note_on channel=0 note=77 velocity=30 time=0
note_on channel=0 note=89 velocity=36 time=0
note_on channel=0 note=65 velocity=30 time=0
note_on channel=0 note=74 velocity=36 time=0
note_on channel=0 note=74 velocity=0 time=137
note_on channel=0 note=76 velocity=31 time=0
note_on channel=0 note=76 velocity=0 time=60
note_on channel=0 note=65 velocity=0 time=0
note_on channel=0 note=81 velocity=0 time=0
note_on channel=0 note=77 velocity=0 time=0
note_on channel=0 note=89 velocity=0 time=0
note_on channel=0 note=81 velocity=30 time=0
note_on channel=0 note=89 velocity=36 time=0
note_on channel=0 note=65 velocity=30 time=0
note_on channel=0 note=77 velocity=36 time=0
note_on channel=0 note=77 velocity=0 time=0
note_on channel=0 note=81 velocity=0 time=0
note_on channel=0 note=89 velocity=0 time=0
note_on channel=0 note=65 velocity=0 time=0
note_on channel=0 note=70 velocity=38 time=0
note_on channel=0 note=77 velocity=45 time=0
note_on channel=0 note=67 velocity=37 time=0
note_on channel=0 note=67 velocity=0 time=51
note_on channel=0 note=77 velocity=0 time=0
note_on channel=0 note=70 velocity=0 time=0
note_on channel=0 note=75 velocity=40 time=0
note_on channel=0 note=72 velocity=34 time=0
note_on channel=0 note=69 velocity=36 time=0
note_on channel=0 note=69 velocity=0 time=0
note_on channel=0 note=72 velocity=0 time=0
note_on channel=0 note=75 velocity=0 time=0
note_on channel=0 note=74 velocity=46 time=0
note_on channel=0 note=70 velocity=36 time=0
note_on channel=0 note=70 velocity=0 time=146
note_on channel=0 note=74 velocity=0 time=0
note_on channel=0 note=82 velocity=51 time=0
note_on channel=0 note=70 velocity=43 time=0
note_on channel=0 note=65 velocity=36 time=0
note_on channel=0 note=62 velocity=30 time=0
note_on channel=0 note=62 velocity=0 time=0
note_on channel=0 note=65 velocity=0 time=0
note_on channel=0 note=82 velocity=0 time=0
note_on channel=0 note=79 velocity=46 time=0
note_on channel=0 note=63 velocity=30 time=0
note_on channel=0 note=67 velocity=36 time=0
note_on channel=0 note=67 velocity=0 time=114
note_on channel=0 note=70 velocity=0 time=0
note_on channel=0 note=79 velocity=0 time=0
note_on channel=0 note=63 velocity=0 time=0
note_on channel=0 note=75 velocity=43 time=0
note_on channel=0 note=87 velocity=51 time=0
note_on channel=0 note=72 velocity=36 time=0
note_on channel=0 note=72 velocity=0 time=113
note_on channel=0 note=87 velocity=0 time=0
note_on channel=0 note=75 velocity=0 time=0
note_on channel=0 note=79 velocity=37 time=0
note_on channel=0 note=84 velocity=44 time=0
note_on channel=0 note=75 velocity=32 time=0
note_on channel=0 note=75 velocity=0 time=0
note_on channel=0 note=84 velocity=0 time=0
note_on channel=0 note=79 velocity=0 time=0
note_on channel=0 note=81 velocity=51 time=0
note_on channel=0 note=77 velocity=36 time=0
note_on channel=0 note=77 velocity=0 time=238
note_on channel=0 note=81 velocity=0 time=0
note_on channel=0 note=77 velocity=47 time=0
note_on channel=0 note=89 velocity=56 time=0
note_on channel=0 note=69 velocity=30 time=0
note_on channel=0 note=72 velocity=36 time=0
note_on channel=0 note=72 velocity=0 time=0
note_on channel=0 note=69 velocity=0 time=0
note_on channel=0 note=89 velocity=0 time=0
note_on channel=0 note=86 velocity=53 time=0
note_on channel=0 note=70 velocity=30 time=0
note_on channel=0 note=74 velocity=36 time=0
note_on channel=0 note=74 velocity=0 time=107
note_on channel=0 note=77 velocity=0 time=0
note_on channel=0 note=86 velocity=0 time=0
note_on channel=0 note=70 velocity=0 time=0
note_on channel=0 note=82 velocity=52 time=0
note_on channel=0 note=67 velocity=41 time=0
note_on channel=0 note=67 velocity=0 time=70
note_on channel=0 note=82 velocity=0 time=0
note_on channel=0 note=81 velocity=45 time=0
note_on channel=0 note=66 velocity=36 time=0
note_on channel=0 note=66 velocity=0 time=0
note_on channel=0 note=81 velocity=0 time=0
note_on channel=0 note=82 velocity=52 time=0
note_on channel=0 note=67 velocity=36 time=0
note_on channel=0 note=67 velocity=0 time=0
note_on channel=0 note=82 velocity=0 time=0
note_on channel=0 note=79 velocity=37 time=0
note_on channel=0 note=91 velocity=47 time=0
note_on channel=0 note=75 velocity=36 time=0
note_on channel=0 note=70 velocity=30 time=0
note_on channel=0 note=67 velocity=30 time=0
note_on channel=0 note=67 velocity=0 time=141
note_on channel=0 note=75 velocity=0 time=0
note_on channel=0 note=79 velocity=0 time=0
note_on channel=0 note=91 velocity=0 time=0
note_on channel=0 note=70 velocity=0 time=0
note_on channel=0 note=87 velocity=51 time=0
note_on channel=0 note=75 velocity=37 time=0
note_on channel=0 note=79 velocity=37 time=0
note_on channel=0 note=67 velocity=30 time=0
note_on channel=0 note=72 velocity=36 time=0
note_on channel=0 note=72 velocity=0 time=169
note_on channel=0 note=79 velocity=0 time=0
note_on channel=0 note=87 velocity=0 time=0
note_on channel=0 note=75 velocity=0 time=0
note_on channel=0 note=67 velocity=0 time=0
note_on channel=0 note=86 velocity=44 time=0
note_on channel=0 note=81 velocity=37 time=0
note_on channel=0 note=74 velocity=37 time=0
note_on channel=0 note=69 velocity=30 time=0
note_on channel=0 note=66 velocity=30 time=0
note_on channel=0 note=66 velocity=0 time=167
note_on channel=0 note=74 velocity=0 time=0
note_on channel=0 note=86 velocity=0 time=0
note_on channel=0 note=81 velocity=0 time=0
note_on channel=0 note=69 velocity=0 time=0
note_on channel=0 note=74 velocity=36 time=0
note_on channel=0 note=81 velocity=44 time=0
note_on channel=0 note=86 velocity=44 time=0
note_on channel=0 note=69 velocity=30 time=0
note_on channel=0 note=66 velocity=30 time=0
note_on channel=0 note=66 velocity=0 time=0
note_on channel=0 note=81 velocity=0 time=0
note_on channel=0 note=74 velocity=0 time=0
note_on channel=0 note=69 velocity=0 time=0
note_on channel=0 note=84 velocity=50 time=0
note_on channel=0 note=66 velocity=31 time=0
note_on channel=0 note=62 velocity=26 time=0
note_on channel=0 note=84 velocity=0 time=51
note_on channel=0 note=82 velocity=44 time=0
note_on channel=0 note=82 velocity=0 time=118
note_on channel=0 note=62 velocity=0 time=2
note_on channel=0 note=66 velocity=0 time=0
note_on channel=0 note=82 velocity=49 time=0
note_on channel=0 note=67 velocity=30 time=0
note_on channel=0 note=70 velocity=36 time=0
note_on channel=0 note=70 velocity=0 time=0
note_on channel=0 note=86 velocity=0 time=0
note_on channel=0 note=82 velocity=0 time=0
note_on channel=0 note=67 velocity=0 time=0
note_on channel=0 note=91 velocity=55 time=0
note_on channel=0 note=82 velocity=46 time=0
note_on channel=0 note=85 velocity=46 time=0
note_on channel=0 note=65 velocity=34 time=0
note_on channel=0 note=68 velocity=40 time=0
note_on channel=0 note=68 velocity=0 time=0
note_on channel=0 note=65 velocity=0 time=0
note_on channel=0 note=67 velocity=36 time=0
note_on channel=0 note=64 velocity=30 time=0
note_on channel=0 note=64 velocity=0 time=119
note_on channel=0 note=67 velocity=0 time=0
note_on channel=0 note=85 velocity=0 time=0
note_on channel=0 note=91 velocity=0 time=0
note_on channel=0 note=84 velocity=44 time=0
note_on channel=0 note=64 velocity=30 time=0
note_on channel=0 note=67 velocity=36 time=0
note_on channel=0 note=67 velocity=0 time=0
note_on channel=0 note=64 velocity=0 time=0
note_on channel=0 note=82 velocity=0 time=0
note_on channel=0 note=82 velocity=50 time=0
note_on channel=0 note=60 velocity=26 time=0
note_on channel=0 note=64 velocity=31 time=0
note_on channel=0 note=82 velocity=0 time=51
note_on channel=0 note=80 velocity=44 time=0
note_on channel=0 note=80 velocity=0 time=118
note_on channel=0 note=64 velocity=0 time=2
note_on channel=0 note=60 velocity=0 time=0
note_on channel=0 note=80 velocity=49 time=0
note_on channel=0 note=65 velocity=30 time=0
note_on channel=0 note=68 velocity=36 time=0
note_on channel=0 note=68 velocity=0 time=0
note_on channel=0 note=84 velocity=0 time=0
note_on channel=0 note=80 velocity=0 time=0
note_on channel=0 note=65 velocity=0 time=0
note_on channel=0 note=80 velocity=55 time=0
note_on channel=0 note=89 velocity=55 time=0
note_on channel=0 note=83 velocity=55 time=0
note_on channel=0 note=66 velocity=40 time=0
note_on channel=0 note=63 velocity=34 time=0
note_on channel=0 note=63 velocity=0 time=0
note_on channel=0 note=66 velocity=0 time=0
note_on channel=0 note=65 velocity=36 time=0
note_on channel=0 note=62 velocity=30 time=0
note_on channel=0 note=62 velocity=0 time=119
note_on channel=0 note=65 velocity=0 time=0
note_on channel=0 note=83 velocity=0 time=0
note_on channel=0 note=89 velocity=0 time=0
note_on channel=0 note=82 velocity=44 time=0
note_on channel=0 note=62 velocity=30 time=0
note_on channel=0 note=65 velocity=36 time=0
note_on channel=0 note=65 velocity=0 time=0
note_on channel=0 note=62 velocity=0 time=0
note_on channel=0 note=80 velocity=0 time=0
note_on channel=0 note=80 velocity=50 time=0
note_on channel=0 note=62 velocity=31 time=0
note_on channel=0 note=58 velocity=26 time=0
note_on channel=0 note=80 velocity=0 time=51
note_on channel=0 note=79 velocity=44 time=0
note_on channel=0 note=79 velocity=0 time=118
note_on channel=0 note=58 velocity=0 time=2
note_on channel=0 note=62 velocity=0 time=0
note_on channel=0 note=79 velocity=49 time=0
note_on channel=0 note=63 velocity=30 time=0
note_on channel=0 note=67 velocity=36 time=0
note_on channel=0 note=67 velocity=0 time=0
note_on channel=0 note=82 velocity=0 time=0
note_on channel=0 note=79 velocity=0 time=0
note_on channel=0 note=63 velocity=0 time=0
note_on channel=0 note=79 velocity=46 time=0
note_on channel=0 note=88 velocity=55 time=0
note_on channel=0 note=82 velocity=46 time=0
note_on channel=0 note=65 velocity=40 time=0
note_on channel=0 note=62 velocity=34 time=0
note_on channel=0 note=62 velocity=0 time=0
note_on channel=0 note=65 velocity=0 time=0
note_on channel=0 note=61 velocity=30 time=0
note_on channel=0 note=64 velocity=36 time=0
note_on channel=0 note=64 velocity=0 time=119
note_on channel=0 note=61 velocity=0 time=0
note_on channel=0 note=82 velocity=0 time=0
note_on channel=0 note=88 velocity=0 time=0
note_on channel=0 note=81 velocity=44 time=0
note_on channel=0 note=61 velocity=30 time=0
note_on channel=0 note=64 velocity=36 time=0
note_on channel=0 note=64 velocity=0 time=0
note_on channel=0 note=61 velocity=0 time=0
note_on channel=0 note=79 velocity=0 time=0
note_on channel=0 note=79 velocity=50 time=0
note_on channel=0 note=61 velocity=31 time=0
note_on channel=0 note=57 velocity=26 time=0
note_on channel=0 note=79 velocity=0 time=51
note_on channel=0 note=77 velocity=44 time=0
note_on channel=0 note=77 velocity=0 time=118
note_on channel=0 note=57 velocity=0 time=2
note_on channel=0 note=61 velocity=0 time=0
note_on channel=0 note=77 velocity=49 time=0
note_on channel=0 note=65 velocity=36 time=0
note_on channel=0 note=62 velocity=30 time=0
note_on channel=0 note=62 velocity=0 time=0
note_on channel=0 note=81 velocity=0 time=0
note_on channel=0 note=77 velocity=0 time=0
note_on channel=0 note=65 velocity=0 time=0
note_on channel=0 note=80 velocity=46 time=0
note_on channel=0 note=86 velocity=55 time=0
note_on channel=0 note=77 velocity=46 time=0
note_on channel=0 note=63 velocity=40 time=0
note_on channel=0 note=60 velocity=34 time=0
note_on channel=0 note=60 velocity=0 time=0
note_on channel=0 note=63 velocity=0 time=0
note_on channel=0 note=62 velocity=36 time=0
note_on channel=0 note=59 velocity=30 time=0
note_on channel=0 note=59 velocity=0 time=119
note_on channel=0 note=62 velocity=0 time=0
note_on channel=0 note=77 velocity=0 time=0
note_on channel=0 note=86 velocity=0 time=0
note_on channel=0 note=80 velocity=0 time=0
note_on channel=0 note=80 velocity=55 time=0
note_on channel=0 note=77 velocity=46 time=0
note_on channel=0 note=62 velocity=36 time=0
note_on channel=0 note=59 velocity=30 time=0
note_on channel=0 note=80 velocity=0 time=0
note_on channel=0 note=79 velocity=46 time=0
note_on channel=0 note=77 velocity=0 time=120
note_on channel=0 note=59 velocity=0 time=0
note_on channel=0 note=62 velocity=0 time=0
note_on channel=0 note=75 velocity=46 time=0
note_on channel=0 note=60 velocity=36 time=0
note_on channel=0 note=63 velocity=30 time=0
note_on channel=0 note=60 velocity=0 time=0
note_on channel=0 note=79 velocity=0 time=0
note_on channel=0 note=84 velocity=48 time=0
note_on channel=0 note=58 velocity=30 time=0
note_on channel=0 note=58 velocity=0 time=0
note_on channel=0 note=63 velocity=0 time=0
note_on channel=0 note=75 velocity=0 time=0
note_on channel=0 note=84 velocity=0 time=0
note_on channel=0 note=78 velocity=55 time=0
note_on channel=0 note=75 velocity=46 time=0
note_on channel=0 note=57 velocity=30 time=0
note_on channel=0 note=60 velocity=36 time=0
note_on channel=0 note=78 velocity=0 time=0
note_on channel=0 note=77 velocity=47 time=0
note_on channel=0 note=75 velocity=0 time=120
note_on channel=0 note=60 velocity=0 time=0
note_on channel=0 note=57 velocity=0 time=0
note_on channel=0 note=74 velocity=46 time=0
note_on channel=0 note=58 velocity=36 time=0
note_on channel=0 note=62 velocity=30 time=0
note_on channel=0 note=58 velocity=0 time=0
note_on channel=0 note=77 velocity=0 time=0
note_on channel=0 note=82 velocity=49 time=0
note_on channel=0 note=50 velocity=32 time=0
note_on channel=0 note=50 velocity=0 time=0
note_on channel=0 note=62 velocity=0 time=0
note_on channel=0 note=74 velocity=0 time=0
note_on channel=0 note=82 velocity=0 time=0
note_on channel=0 note=77 velocity=56 time=0
note_on channel=0 note=53 velocity=25 time=0
note_on channel=0 note=63 velocity=30 time=0
note_on channel=0 note=48 velocity=25 time=0
note_on channel=0 note=77 velocity=0 time=0
note_on channel=0 note=89 velocity=49 time=0
note_on channel=0 note=89 velocity=0 time=120
note_on channel=0 note=88 velocity=50 time=0
note_on channel=0 note=88 velocity=0 time=120
note_on channel=0 note=87 velocity=50 time=0
note_on channel=0 note=87 velocity=0 time=120
note_on channel=0 note=84 velocity=51 time=0
note_on channel=0 note=84 velocity=0 time=11
note_on channel=0 note=81 velocity=52 time=0
note_on channel=0 note=81 velocity=0 time=120
note_on channel=0 note=78 velocity=53 time=0
note_on channel=0 note=78 velocity=0 time=120
note_on channel=0 note=77 velocity=54 time=0
note_on channel=0 note=77 velocity=0 time=120
note_on channel=0 note=76 velocity=55 time=0
note_on channel=0 note=76 velocity=0 time=28
note_on channel=0 note=75 velocity=56 time=0
note_on channel=0 note=75 velocity=0 time=0
note_on channel=0 note=72 velocity=56 time=0
note_on channel=0 note=72 velocity=0 time=120
note_on channel=0 note=69 velocity=57 time=0
note_on channel=0 note=69 velocity=0 time=0
note_on channel=0 note=48 velocity=0 time=0
note_on channel=0 note=63 velocity=0 time=0
note_on channel=0 note=53 velocity=0 time=0
note_on channel=0 note=66 velocity=61 time=0
note_on channel=0 note=70 velocity=51 time=0
note_on channel=0 note=62 velocity=30 time=0
note_on channel=0 note=50 velocity=25 time=0
note_on channel=0 note=53 velocity=25 time=0
note_on channel=0 note=66 velocity=0 time=17
note_on channel=0 note=65 velocity=47 time=0
note_on channel=0 note=65 velocity=0 time=120
note_on channel=0 note=70 velocity=0 time=0
note_on channel=0 note=79 velocity=58 time=0
note_on channel=0 note=70 velocity=49 time=0
note_on channel=0 note=79 velocity=0 time=0
note_on channel=0 note=77 velocity=47 time=0
note_on channel=0 note=77 velocity=0 time=0
note_on channel=0 note=70 velocity=0 time=0
note_on channel=0 note=53 velocity=0 time=0
note_on channel=0 note=62 velocity=0 time=0
note_on channel=0 note=50 velocity=0 time=0
note_on channel=0 note=77 velocity=56 time=0
note_on channel=0 note=36 velocity=25 time=0
note_on channel=0 note=51 velocity=30 time=0
note_on channel=0 note=41 velocity=25 time=0
note_on channel=0 note=77 velocity=0 time=0
note_on channel=0 note=89 velocity=50 time=0
note_on channel=0 note=89 velocity=0 time=120
note_on channel=0 note=88 velocity=51 time=0
note_on channel=0 note=88 velocity=0 time=120
note_on channel=0 note=87 velocity=52 time=0
note_on channel=0 note=87 velocity=0 time=120
note_on channel=0 note=84 velocity=53 time=0
note_on channel=0 note=84 velocity=0 time=11
note_on channel=0 note=81 velocity=54 time=0
note_on channel=0 note=81 velocity=0 time=120
note_on channel=0 note=78 velocity=55 time=0
note_on channel=0 note=78 velocity=0 time=120
note_on channel=0 note=77 velocity=57 time=0
note_on channel=0 note=77 velocity=0 time=0
note_on channel=0 note=76 velocity=58 time=0
note_on channel=0 note=76 velocity=0 time=28
note_on channel=0 note=75 velocity=59 time=0
note_on channel=0 note=75 velocity=0 time=120
note_on channel=0 note=72 velocity=60 time=0
note_on channel=0 note=72 velocity=0 time=120
note_on channel=0 note=69 velocity=61 time=0
note_on channel=0 note=69 velocity=0 time=120
note_on channel=0 note=41 velocity=0 time=0
note_on channel=0 note=51 velocity=0 time=0
note_on channel=0 note=36 velocity=0 time=0
note_on channel=0 note=66 velocity=64 time=0
note_on channel=0 note=70 velocity=64 time=0
note_on channel=0 note=38 velocity=25 time=0
note_on channel=0 note=41 velocity=25 time=0
note_on channel=0 note=50 velocity=30 time=0
note_on channel=0 note=66 velocity=0 time=17
note_on channel=0 note=65 velocity=47 time=0
note_on channel=0 note=65 velocity=0 time=0
note_on channel=0 note=70 velocity=0 time=0
note_on channel=0 note=70 velocity=49 time=0
note_on channel=0 note=79 velocity=58 time=0
note_on channel=0 note=79 velocity=0 time=51
note_on channel=0 note=77 velocity=47 time=0
note_on channel=0 note=77 velocity=0 time=0
note_on channel=0 note=70 velocity=0 time=0
note_on channel=0 note=50 velocity=0 time=0
note_on channel=0 note=38 velocity=0 time=0
note_on channel=0 note=41 velocity=0 time=0
note_on channel=0 note=77 velocity=52 time=0
note_on channel=0 note=50 velocity=30 time=0
note_on channel=0 note=38 velocity=25 time=0
note_on channel=0 note=77 velocity=0 time=0
note_on channel=0 note=74 velocity=45 time=0
note_on channel=0 note=82 velocity=54 time=0
note_on channel=0 note=82 velocity=0 time=120
note_on channel=0 note=74 velocity=0 time=0
note_on channel=0 note=77 velocity=49 time=0
note_on channel=0 note=86 velocity=58 time=0
note_on channel=0 note=86 velocity=0 time=120
note_on channel=0 note=77 velocity=0 time=0
note_on channel=0 note=84 velocity=52 time=0
note_on channel=0 note=75 velocity=44 time=0
note_on channel=0 note=75 velocity=0 time=120
note_on channel=0 note=50 velocity=0 time=0
note_on channel=0 note=38 velocity=0 time=0
note_on channel=0 note=84 velocity=0 time=0
note_on channel=0 note=82 velocity=58 time=0
note_on channel=0 note=74 velocity=58 time=0
note_on channel=0 note=43 velocity=23 time=0
note_on channel=0 note=55 velocity=28 time=0
note_on channel=0 note=74 velocity=0 time=40
note_on channel=0 note=78 velocity=50 time=0
note_on channel=0 note=78 velocity=0 time=120
note_on channel=0 note=79 velocity=55 time=0
note_on channel=0 note=79 velocity=0 time=0
note_on channel=0 note=74 velocity=50 time=0
note_on channel=0 note=74 velocity=0 time=0
note_on channel=0 note=55 velocity=0 time=0
note_on channel=0 note=43 velocity=0 time=0
note_on channel=0 note=73 velocity=54 time=0
note_on channel=0 note=52 velocity=30 time=0
note_on channel=0 note=40 velocity=25 time=0
note_on channel=0 note=73 velocity=0 time=17
note_on channel=0 note=78 velocity=58 time=0
note_on channel=0 note=78 velocity=0 time=120
note_on channel=0 note=79 velocity=58 time=0
note_on channel=0 note=79 velocity=0 time=0
note_on channel=0 note=73 velocity=53 time=0
note_on channel=0 note=73 velocity=0 time=0
note_on channel=0 note=40 velocity=0 time=0
note_on channel=0 note=52 velocity=0 time=0
note_on channel=0 note=82 velocity=0 time=0
note_on channel=0 note=72 velocity=56 time=0
note_on channel=0 note=53 velocity=29 time=0
note_on channel=0 note=41 velocity=24 time=0
note_on channel=0 note=72 velocity=0 time=51
note_on channel=0 note=76 velocity=50 time=0
note_on channel=0 note=76 velocity=0 time=120
note_on channel=0 note=41 velocity=0 time=0
note_on channel=0 note=53 velocity=0 time=0
note_on channel=0 note=77 velocity=60 time=0
note_on channel=0 note=77 velocity=0 time=0
note_on channel=0 note=89 velocity=54 time=0
note_on channel=0 note=89 velocity=0 time=0
note_on channel=0 note=89 velocity=61 time=0
note_on channel=0 note=60 velocity=25 time=0
note_on channel=0 note=75 velocity=30 time=0
note_on channel=0 note=65 velocity=25 time=0
note_on channel=0 note=89 velocity=0 time=0
note_on channel=0 note=101 velocity=48 time=0
note_on channel=0 note=101 velocity=0 time=120
note_on channel=0 note=100 velocity=49 time=0
note_on channel=0 note=100 velocity=0 time=120
note_on channel=0 note=99 velocity=50 time=0
note_on channel=0 note=99 velocity=0 time=120
note_on channel=0 note=96 velocity=51 time=0
note_on channel=0 note=96 velocity=0 time=11
note_on channel=0 note=93 velocity=51 time=0
note_on channel=0 note=93 velocity=0 time=120
note_on channel=0 note=90 velocity=52 time=0
note_on channel=0 note=90 velocity=0 time=120
note_on channel=0 note=89 velocity=53 time=0
note_on channel=0 note=89 velocity=0 time=120
note_on channel=0 note=88 velocity=55 time=0
note_on channel=0 note=88 velocity=0 time=28
note_on channel=0 note=87 velocity=60 time=0
note_on channel=0 note=87 velocity=0 time=0
note_on channel=0 note=84 velocity=64 time=0
note_on channel=0 note=84 velocity=0 time=120
note_on channel=0 note=81 velocity=67 time=0
note_on channel=0 note=81 velocity=0 time=0
note_on channel=0 note=65 velocity=0 time=0
note_on channel=0 note=75 velocity=0 time=0
note_on channel=0 note=60 velocity=0 time=0
note_on channel=0 note=82 velocity=60 time=0
note_on channel=0 note=78 velocity=72 time=0
note_on channel=0 note=74 velocity=30 time=0
note_on channel=0 note=62 velocity=25 time=0
note_on channel=0 note=65 velocity=25 time=0
note_on channel=0 note=78 velocity=0 time=17
note_on channel=0 note=77 velocity=51 time=0
note_on channel=0 note=77 velocity=0 time=120
note_on channel=0 note=82 velocity=0 time=0
note_on channel=0 note=91 velocity=63 time=0
note_on channel=0 note=82 velocity=53 time=0
note_on channel=0 note=91 velocity=0 time=0
note_on channel=0 note=89 velocity=51 time=0
note_on channel=0 note=89 velocity=0 time=0
note_on channel=0 note=82 velocity=0 time=0
note_on channel=0 note=65 velocity=0 time=0
note_on channel=0 note=74 velocity=0 time=0
note_on channel=0 note=62 velocity=0 time=0
note_on channel=0 note=63 velocity=30 time=0
note_on channel=0 note=48 velocity=25 time=0
note_on channel=0 note=53 velocity=25 time=0
note_on channel=0 note=89 velocity=48 time=0
note_on channel=0 note=89 velocity=0 time=120
note_on channel=0 note=88 velocity=49 time=0
note_on channel=0 note=88 velocity=0 time=120
note_on channel=0 note=87 velocity=50 time=0
note_on channel=0 note=87 velocity=0 time=120
note_on channel=0 note=84 velocity=51 time=0
note_on channel=0 note=84 velocity=0 time=11
note_on channel=0 note=81 velocity=51 time=0
note_on channel=0 note=81 velocity=0 time=120
note_on channel=0 note=78 velocity=52 time=0
note_on channel=0 note=78 velocity=0 time=120
note_on channel=0 note=77 velocity=53 time=0
note_on channel=0 note=77 velocity=0 time=0
note_on channel=0 note=76 velocity=57 time=0
note_on channel=0 note=76 velocity=0 time=28
note_on channel=0 note=75 velocity=59 time=0
note_on channel=0 note=75 velocity=0 time=120
note_on channel=0 note=72 velocity=61 time=0
note_on channel=0 note=72 velocity=0 time=120
note_on channel=0 note=69 velocity=63 time=0
note_on channel=0 note=69 velocity=0 time=120
note_on channel=0 note=63 velocity=0 time=0
note_on channel=0 note=48 velocity=0 time=0
note_on channel=0 note=53 velocity=0 time=0
note_on channel=0 note=70 velocity=54 time=0
note_on channel=0 note=66 velocity=67 time=0
note_on channel=0 note=50 velocity=25 time=0
note_on channel=0 note=62 velocity=30 time=0
note_on channel=0 note=53 velocity=25 time=0
note_on channel=0 note=66 velocity=0 time=17
note_on channel=0 note=65 velocity=51 time=0
note_on channel=0 note=65 velocity=0 time=0
note_on channel=0 note=70 velocity=0 time=0
note_on channel=0 note=79 velocity=63 time=0
note_on channel=0 note=70 velocity=53 time=0
note_on channel=0 note=79 velocity=0 time=51
note_on channel=0 note=77 velocity=51 time=0
note_on channel=0 note=77 velocity=0 time=0
note_on channel=0 note=70 velocity=0 time=0
note_on channel=0 note=53 velocity=0 time=0
note_on channel=0 note=50 velocity=0 time=0
note_on channel=0 note=62 velocity=0 time=0
note_on channel=0 note=77 velocity=56 time=0
note_on channel=0 note=50 velocity=25 time=0
note_on channel=0 note=62 velocity=30 time=0
note_on channel=0 note=77 velocity=0 time=0
note_on channel=0 note=82 velocity=54 time=0
note_on channel=0 note=74 velocity=45 time=0
note_on channel=0 note=74 velocity=0 time=120
note_on channel=0 note=82 velocity=0 time=0
note_on channel=0 note=77 velocity=49 time=0
note_on channel=0 note=86 velocity=58 time=0
note_on channel=0 note=86 velocity=0 time=120
note_on channel=0 note=77 velocity=0 time=0
note_on channel=0 note=84 velocity=52 time=0
note_on channel=0 note=75 velocity=44 time=0
note_on channel=0 note=75 velocity=0 time=120
note_on channel=0 note=50 velocity=0 time=0
note_on channel=0 note=62 velocity=0 time=0
note_on channel=0 note=84 velocity=0 time=0
note_on channel=0 note=74 velocity=58 time=0
note_on channel=0 note=82 velocity=58 time=0
note_on channel=0 note=55 velocity=23 time=0
note_on channel=0 note=67 velocity=28 time=0
note_on channel=0 note=74 velocity=0 time=40
note_on channel=0 note=78 velocity=50 time=0
note_on channel=0 note=78 velocity=0 time=120
note_on channel=0 note=79 velocity=55 time=0
note_on channel=0 note=79 velocity=0 time=0
note_on channel=0 note=74 velocity=50 time=0
note_on channel=0 note=74 velocity=0 time=0
note_on channel=0 note=67 velocity=0 time=0
note_on channel=0 note=55 velocity=0 time=0
note_on channel=0 note=73 velocity=54 time=0
note_on channel=0 note=52 velocity=25 time=0
note_on channel=0 note=64 velocity=30 time=0
note_on channel=0 note=73 velocity=0 time=17
note_on channel=0 note=78 velocity=58 time=0
note_on channel=0 note=78 velocity=0 time=120
note_on channel=0 note=79 velocity=58 time=0
note_on channel=0 note=79 velocity=0 time=0
note_on channel=0 note=73 velocity=53 time=0
note_on channel=0 note=73 velocity=0 time=0
note_on channel=0 note=64 velocity=0 time=0
note_on channel=0 note=52 velocity=0 time=0
note_on channel=0 note=82 velocity=0 time=0
note_on channel=0 note=72 velocity=56 time=0
note_on channel=0 note=81 velocity=54 time=0
note_on channel=0 note=53 velocity=24 time=0
note_on channel=0 note=65 velocity=29 time=0
note_on channel=0 note=72 velocity=0 time=51
note_on channel=0 note=77 velocity=50 time=0
note_on channel=0 note=77 velocity=0 time=120
note_on channel=0 note=65 velocity=0 time=0
note_on channel=0 note=53 velocity=0 time=0
note_on channel=0 note=81 velocity=0 time=0
note_on channel=0 note=82 velocity=54 time=0
note_on channel=0 note=70 velocity=60 time=0
note_on channel=0 note=54 velocity=24 time=0
note_on channel=0 note=66 velocity=29 time=0
note_on channel=0 note=70 velocity=0 time=0
note_on channel=0 note=75 velocity=50 time=0
note_on channel=0 note=75 velocity=0 time=0
note_on channel=0 note=66 velocity=0 time=0
note_on channel=0 note=54 velocity=0 time=0
note_on channel=0 note=82 velocity=0 time=0
note_on channel=0 note=82 velocity=54 time=0
note_on channel=0 note=55 velocity=26 time=0
note_on channel=0 note=67 velocity=31 time=0
note_on channel=0 note=82 velocity=0 time=0
note_on channel=0 note=87 velocity=57 time=0
note_on channel=0 note=79 velocity=47 time=0
note_on channel=0 note=79 velocity=0 time=120
note_on channel=0 note=87 velocity=0 time=0
note_on channel=0 note=82 velocity=52 time=0
note_on channel=0 note=91 velocity=62 time=0
note_on channel=0 note=91 velocity=0 time=120
note_on channel=0 note=82 velocity=0 time=0
note_on channel=0 note=89 velocity=56 time=0
note_on channel=0 note=80 velocity=47 time=0
note_on channel=0 note=80 velocity=0 time=0
note_on channel=0 note=55 velocity=0 time=0
note_on channel=0 note=67 velocity=0 time=0
note_on channel=0 note=89 velocity=0 time=0
note_on channel=0 note=87 velocity=63 time=0
note_on channel=0 note=79 velocity=63 time=0
note_on channel=0 note=60 velocity=25 time=0
note_on channel=0 note=72 velocity=30 time=0
note_on channel=0 note=79 velocity=0 time=40
note_on channel=0 note=83 velocity=55 time=0
note_on channel=0 note=83 velocity=0 time=120
note_on channel=0 note=84 velocity=61 time=0
note_on channel=0 note=84 velocity=0 time=0
note_on channel=0 note=79 velocity=56 time=0
note_on channel=0 note=79 velocity=0 time=0
note_on channel=0 note=72 velocity=0 time=0
note_on channel=0 note=60 velocity=0 time=0
note_on channel=0 note=78 velocity=61 time=0
note_on channel=0 note=57 velocity=28 time=0
note_on channel=0 note=69 velocity=33 time=0
note_on channel=0 note=78 velocity=0 time=17
note_on channel=0 note=83 velocity=64 time=0
note_on channel=0 note=83 velocity=0 time=120
note_on channel=0 note=84 velocity=66 time=0
note_on channel=0 note=84 velocity=0 time=0
note_on channel=0 note=78 velocity=62 time=0
note_on channel=0 note=78 velocity=0 time=0
note_on channel=0 note=69 velocity=0 time=0
note_on channel=0 note=57 velocity=0 time=0
note_on channel=0 note=87 velocity=0 time=0
note_on channel=0 note=77 velocity=66 time=0
note_on channel=0 note=86 velocity=63 time=0
note_on channel=0 note=58 velocity=28 time=0
note_on channel=0 note=70 velocity=34 time=0
note_on channel=0 note=77 velocity=0 time=51
note_on channel=0 note=82 velocity=59 time=0
note_on channel=0 note=82 velocity=0 time=120
note_on channel=0 note=70 velocity=0 time=0
note_on channel=0 note=58 velocity=0 time=0
note_on channel=0 note=86 velocity=0 time=0
note_on channel=0 note=75 velocity=66 time=0
note_on channel=0 note=87 velocity=64 time=0
note_on channel=0 note=59 velocity=28 time=0
note_on channel=0 note=71 velocity=34 time=0
note_on channel=0 note=75 velocity=0 time=0
note_on channel=0 note=80 velocity=60 time=0
note_on channel=0 note=80 velocity=0 time=0
note_on channel=0 note=71 velocity=0 time=0
note_on channel=0 note=59 velocity=0 time=0
note_on channel=0 note=87 velocity=0 time=0
note_on channel=0 note=87 velocity=63 time=0
note_on channel=0 note=60 velocity=30 time=0
note_on channel=0 note=72 velocity=36 time=0
note_on channel=0 note=84 velocity=55 time=0
note_on channel=0 note=84 velocity=0 time=120
note_on channel=0 note=87 velocity=0 time=0
note_on channel=0 note=87 velocity=60 time=0
note_on channel=0 note=92 velocity=71 time=0
note_on channel=0 note=87 velocity=0 time=120
note_on channel=0 note=85 velocity=55 time=0
note_on channel=0 note=85 velocity=0 time=0
note_on channel=0 note=92 velocity=0 time=0
note_on channel=0 note=72 velocity=0 time=0
note_on channel=0 note=60 velocity=0 time=0
note_on channel=0 note=85 velocity=68 time=0
note_on channel=0 note=92 velocity=73 time=0
note_on channel=0 note=64 velocity=29 time=0
note_on channel=0 note=76 velocity=35 time=0
note_on channel=0 note=85 velocity=0 time=40
note_on channel=0 note=83 velocity=63 time=0
note_on channel=0 note=83 velocity=0 time=120
note_on channel=0 note=82 velocity=70 time=0
note_on channel=0 note=82 velocity=0 time=0
note_on channel=0 note=83 velocity=65 time=0
note_on channel=0 note=83 velocity=0 time=0
note_on channel=0 note=76 velocity=0 time=0
note_on channel=0 note=64 velocity=0 time=0
note_on channel=0 note=83 velocity=70 time=0
note_on channel=0 note=62 velocity=34 time=0
note_on channel=0 note=74 velocity=39 time=0
note_on channel=0 note=83 velocity=0 time=17
note_on channel=0 note=88 velocity=73 time=0
note_on channel=0 note=88 velocity=0 time=120
note_on channel=0 note=89 velocity=77 time=0
note_on channel=0 note=89 velocity=0 time=0
note_on channel=0 note=83 velocity=71 time=0
note_on channel=0 note=83 velocity=0 time=0
note_on channel=0 note=74 velocity=0 time=0
note_on channel=0 note=62 velocity=0 time=0
note_on channel=0 note=92 velocity=0 time=0
note_on channel=0 note=91 velocity=78 time=0
note_on channel=0 note=82 velocity=75 time=0
note_on channel=0 note=63 velocity=39 time=0
note_on channel=0 note=75 velocity=39 time=0
note_on channel=0 note=82 velocity=0 time=51
note_on channel=0 note=86 velocity=68 time=0
note_on channel=0 note=86 velocity=0 time=120
note_on channel=0 note=87 velocity=82 time=0
note_on channel=0 note=87 velocity=0 time=0
note_on channel=0 note=82 velocity=69 time=0
note_on channel=0 note=82 velocity=0 time=120
note_on channel=0 note=79 velocity=83 time=0
note_on channel=0 note=79 velocity=0 time=0
note_on channel=0 note=91 velocity=0 time=0
note_on channel=0 note=63 velocity=0 time=0
note_on channel=0 note=75 velocity=0 time=0
note_on channel=0 note=91 velocity=93 time=0
note_on channel=0 note=87 velocity=79 time=0
note_on channel=0 note=79 velocity=79 time=0
note_on channel=0 note=82 velocity=79 time=0
note_on channel=0 note=39 velocity=56 time=0
note_on channel=0 note=51 velocity=66 time=0
note_on channel=0 note=51 velocity=0 time=0
note_on channel=0 note=87 velocity=0 time=0
note_on channel=0 note=79 velocity=0 time=0
note_on channel=0 note=91 velocity=0 time=0
note_on channel=0 note=39 velocity=0 time=0
note_on channel=0 note=82 velocity=0 time=0
note_on channel=0 note=86 velocity=74 time=0
note_on channel=0 note=89 velocity=88 time=0
note_on channel=0 note=89 velocity=0 time=0
note_on channel=0 note=86 velocity=0 time=0
note_on channel=0 note=91 velocity=86 time=0
note_on channel=0 note=87 velocity=74 time=0
note_on channel=0 note=87 velocity=0 time=46
note_on channel=0 note=91 velocity=0 time=0
note_on channel=0 note=89 velocity=78 time=0
note_on channel=0 note=92 velocity=92 time=0
note_on channel=0 note=92 velocity=0 time=120
note_on channel=0 note=89 velocity=0 time=0
note_on channel=0 note=94 velocity=96 time=0
note_on channel=0 note=91 velocity=81 time=0
note_on channel=0 note=91 velocity=0 time=120
note_on channel=0 note=94 velocity=0 time=0
note_on channel=0 note=91 velocity=91 time=120
note_on channel=0 note=87 velocity=77 time=0
note_on channel=0 note=67 velocity=82 time=0
note_on channel=0 note=63 velocity=69 time=0
note_on channel=0 note=63 velocity=0 time=120
note_on channel=0 note=91 velocity=0 time=0
note_on channel=0 note=87 velocity=0 time=0
note_on channel=0 note=67 velocity=0 time=0
note_on channel=0 note=62 velocity=67 time=120
note_on channel=0 note=65 velocity=79 time=0
note_on channel=0 note=65 velocity=0 time=240
note_on channel=0 note=62 velocity=0 time=0
note_on channel=0 note=63 velocity=68 time=0
note_on channel=0 note=67 velocity=81 time=0
note_on channel=0 note=67 velocity=0 time=57
note_on channel=0 note=63 velocity=0 time=0
note_on channel=0 note=68 velocity=84 time=0
note_on channel=0 note=65 velocity=71 time=0
note_on channel=0 note=65 velocity=0 time=120
note_on channel=0 note=68 velocity=0 time=0
note_on channel=0 note=70 velocity=88 time=0
note_on channel=0 note=67 velocity=74 time=0
note_on channel=0 note=67 velocity=0 time=120
note_on channel=0 note=70 velocity=0 time=0
note_on channel=0 note=91 velocity=93 time=0
note_on channel=0 note=79 velocity=79 time=0
note_on channel=0 note=82 velocity=79 time=0
note_on channel=0 note=87 velocity=79 time=0
note_on channel=0 note=51 velocity=66 time=0
note_on channel=0 note=39 velocity=56 time=0
note_on channel=0 note=39 velocity=0 time=0
note_on channel=0 note=79 velocity=0 time=0
note_on channel=0 note=82 velocity=0 time=0
note_on channel=0 note=91 velocity=0 time=0
note_on channel=0 note=51 velocity=0 time=0
note_on channel=0 note=87 velocity=0 time=0
note_on channel=0 note=89 velocity=88 time=0
note_on channel=0 note=86 velocity=74 time=0
note_on channel=0 note=86 velocity=0 time=0
note_on channel=0 note=89 velocity=0 time=0
note_on channel=0 note=87 velocity=74 time=0
note_on channel=0 note=91 velocity=86 time=0
note_on channel=0 note=91 velocity=0 time=46
note_on channel=0 note=87 velocity=0 time=0
note_on channel=0 note=89 velocity=78 time=0
note_on channel=0 note=92 velocity=92 time=0
note_on channel=0 note=92 velocity=0 time=120
note_on channel=0 note=89 velocity=0 time=0
note_on channel=0 note=91 velocity=81 time=0
note_on channel=0 note=94 velocity=96 time=0
note_on channel=0 note=94 velocity=0 time=120
note_on channel=0 note=91 velocity=0 time=0
note_on channel=0 note=79 velocity=86 time=120
note_on channel=0 note=70 velocity=86 time=0
note_on channel=0 note=72 velocity=86 time=0
note_on channel=0 note=82 velocity=103 time=0
note_on channel=0 note=40 velocity=62 time=0
note_on channel=0 note=52 velocity=74 time=0
note_on channel=0 note=52 velocity=0 time=240
note_on channel=0 note=70 velocity=0 time=0
note_on channel=0 note=72 velocity=0 time=0
note_on channel=0 note=79 velocity=0 time=0
note_on channel=0 note=40 velocity=0 time=0
note_on channel=0 note=82 velocity=0 time=0
note_on channel=0 note=76 velocity=86 time=240
note_on channel=0 note=70 velocity=86 time=0
note_on channel=0 note=79 velocity=86 time=0
note_on channel=0 note=82 velocity=103 time=0
note_on channel=0 note=48 velocity=79 time=0
note_on channel=0 note=36 velocity=67 time=0
note_on channel=0 note=36 velocity=0 time=240
note_on channel=0 note=70 velocity=0 time=0
note_on channel=0 note=79 velocity=0 time=0
note_on channel=0 note=76 velocity=0 time=0
note_on channel=0 note=48 velocity=0 time=0
note_on channel=0 note=82 velocity=0 time=0
note_on channel=0 note=82 velocity=103 time=240
note_on channel=0 note=74 velocity=86 time=0
note_on channel=0 note=77 velocity=86 time=0
note_on channel=0 note=70 velocity=86 time=0
note_on channel=0 note=53 velocity=74 time=0
note_on channel=0 note=41 velocity=62 time=0
note_on channel=0 note=41 velocity=0 time=240
note_on channel=0 note=74 velocity=0 time=0
note_on channel=0 note=77 velocity=0 time=0
note_on channel=0 note=82 velocity=0 time=0
note_on channel=0 note=53 velocity=0 time=0
note_on channel=0 note=70 velocity=0 time=0
note_on channel=0 note=72 velocity=79 time=240
note_on channel=0 note=82 velocity=94 time=0
note_on channel=0 note=70 velocity=79 time=0
note_on channel=0 note=76 velocity=79 time=0
note_on channel=0 note=55 velocity=72 time=0
note_on channel=0 note=43 velocity=61 time=0
note_on channel=0 note=43 velocity=0 time=0
note_on channel=0 note=82 velocity=0 time=0
note_on channel=0 note=70 velocity=0 time=0
note_on channel=0 note=72 velocity=0 time=0
note_on channel=0 note=55 velocity=0 time=0
note_on channel=0 note=76 velocity=0 time=0
note_on channel=0 note=74 velocity=65 time=0
note_on channel=0 note=82 velocity=77 time=0
note_on channel=0 note=70 velocity=65 time=0
note_on channel=0 note=77 velocity=65 time=0
note_on channel=0 note=41 velocity=50 time=0
note_on channel=0 note=41 velocity=0 time=0
note_on channel=0 note=45 velocity=50 time=0
note_on channel=0 note=45 velocity=0 time=120
note_on channel=0 note=46 velocity=50 time=0
note_on channel=0 note=46 velocity=0 time=49
note_on channel=0 note=50 velocity=50 time=0
note_on channel=0 note=50 velocity=0 time=120
note_on channel=0 note=77 velocity=0 time=0
note_on channel=0 note=74 velocity=0 time=0
note_on channel=0 note=82 velocity=0 time=0
note_on channel=0 note=70 velocity=0 time=0
note_on channel=0 note=77 velocity=64 time=0
note_on channel=0 note=74 velocity=54 time=0
note_on channel=0 note=53 velocity=50 time=0
note_on channel=0 note=53 velocity=0 time=14
note_on channel=0 note=57 velocity=50 time=0
note_on channel=0 note=57 velocity=0 time=120
note_on channel=0 note=58 velocity=50 time=0
note_on channel=0 note=58 velocity=0 time=120
note_on channel=0 note=62 velocity=50 time=0
note_on channel=0 note=62 velocity=0 time=120
note_on channel=0 note=65 velocity=50 time=0
note_on channel=0 note=65 velocity=0 time=7
note_on channel=0 note=69 velocity=50 time=0
note_on channel=0 note=69 velocity=0 time=120
note_on channel=0 note=74 velocity=0 time=0
note_on channel=0 note=77 velocity=0 time=0
note_on channel=0 note=74 velocity=63 time=0
note_on channel=0 note=70 velocity=50 time=0
note_on channel=0 note=74 velocity=0 time=118
note_on channel=0 note=70 velocity=0 time=2
note_on channel=0 note=74 velocity=50 time=0
note_on channel=0 note=74 velocity=0 time=120
note_on channel=0 note=77 velocity=56 time=0
note_on channel=0 note=77 velocity=0 time=21
note_on channel=0 note=81 velocity=57 time=0
note_on channel=0 note=81 velocity=0 time=120
note_on channel=0 note=82 velocity=58 time=0
note_on channel=0 note=70 velocity=43 time=0
note_on channel=0 note=70 velocity=0 time=120
note_on channel=0 note=82 velocity=0 time=0
note_on channel=0 note=86 velocity=59 time=0
note_on channel=0 note=74 velocity=44 time=0
note_on channel=0 note=74 velocity=0 time=120
note_on channel=0 note=86 velocity=0 time=0
note_on channel=0 note=88 velocity=60 time=0
note_on channel=0 note=76 velocity=45 time=0
note_on channel=0 note=76 velocity=0 time=40
note_on channel=0 note=88 velocity=0 time=0
note_on channel=0 note=89 velocity=61 time=0
note_on channel=0 note=77 velocity=46 time=0
note_on channel=0 note=77 velocity=0 time=120
note_on channel=0 note=89 velocity=0 time=0
note_on channel=0 note=91 velocity=62 time=0
note_on channel=0 note=79 velocity=47 time=0
note_on channel=0 note=79 velocity=0 time=120
note_on channel=0 note=91 velocity=0 time=0
note_on channel=0 note=89 velocity=62 time=0
note_on channel=0 note=77 velocity=48 time=0
note_on channel=0 note=77 velocity=0 time=120
note_on channel=0 note=89 velocity=0 time=0
note_on channel=0 note=93 velocity=63 time=0
note_on channel=0 note=81 velocity=50 time=0
note_on channel=0 note=81 velocity=0 time=45
note_on channel=0 note=93 velocity=0 time=0
note_on channel=0 note=94 velocity=64 time=0
note_on channel=0 note=82 velocity=51 time=0
note_on channel=0 note=82 velocity=0 time=120
note_on channel=0 note=94 velocity=0 time=0
note_on channel=0 note=96 velocity=65 time=0
note_on channel=0 note=84 velocity=52 time=0
note_on channel=0 note=84 velocity=0 time=120
note_on channel=0 note=96 velocity=0 time=0
note_on channel=0 note=94 velocity=66 time=0
note_on channel=0 note=82 velocity=53 time=0
note_on channel=0 note=82 velocity=0 time=0
note_on channel=0 note=94 velocity=0 time=0
note_on channel=0 note=97 velocity=67 time=0
note_on channel=0 note=85 velocity=54 time=0
note_on channel=0 note=85 velocity=0 time=5
note_on channel=0 note=97 velocity=0 time=0
note_on channel=0 note=98 velocity=68 time=0
note_on channel=0 note=86 velocity=55 time=0
note_on channel=0 note=86 velocity=0 time=29
note_on channel=0 note=98 velocity=0 time=0
note_on channel=0 note=99 velocity=69 time=0
note_on channel=0 note=87 velocity=56 time=0
note_on channel=0 note=87 velocity=0 time=34
note_on channel=0 note=99 velocity=0 time=0
note_on channel=0 note=98 velocity=70 time=0
note_on channel=0 note=86 velocity=58 time=0
note_on channel=0 note=86 velocity=0 time=58
note_on channel=0 note=98 velocity=0 time=0
note_on channel=0 note=101 velocity=71 time=0
note_on channel=0 note=89 velocity=59 time=0
note_on channel=0 note=89 velocity=0 time=0
note_on channel=0 note=101 velocity=0 time=0
note_on channel=0 note=75 velocity=70 time=0
note_on channel=0 note=72 velocity=59 time=0
note_on channel=0 note=65 velocity=60 time=0
note_on channel=0 note=65 velocity=0 time=20
note_on channel=0 note=67 velocity=63 time=0
note_on channel=0 note=67 velocity=0 time=0
note_on channel=0 note=69 velocity=66 time=0
note_on channel=0 note=69 velocity=0 time=0
note_on channel=0 note=72 velocity=0 time=0
note_on channel=0 note=75 velocity=0 time=0
note_on channel=0 note=74 velocity=58 time=0
note_on channel=0 note=58 velocity=40 time=0
note_on channel=0 note=58 velocity=0 time=40
note_on channel=0 note=70 velocity=32 time=0
note_on channel=0 note=70 velocity=0 time=80
note_on channel=0 note=69 velocity=32 time=0
note_on channel=0 note=69 velocity=0 time=160
note_on channel=0 note=86 velocity=59 time=0
note_on channel=0 note=70 velocity=40 time=0
note_on channel=0 note=70 velocity=0 time=160
note_on channel=0 note=69 velocity=33 time=0
note_on channel=0 note=69 velocity=0 time=160
note_on channel=0 note=70 velocity=33 time=0
note_on channel=0 note=70 velocity=0 time=0
note_on channel=0 note=86 velocity=0 time=0
note_on channel=0 note=74 velocity=0 time=0
note_on channel=0 note=87 velocity=57 time=0
note_on channel=0 note=75 velocity=48 time=0
note_on channel=0 note=66 velocity=40 time=0
note_on channel=0 note=66 velocity=0 time=74
note_on channel=0 note=70 velocity=31 time=0
note_on channel=0 note=70 velocity=0 time=160
note_on channel=0 note=66 velocity=31 time=0
note_on channel=0 note=66 velocity=0 time=0
note_on channel=0 note=75 velocity=0 time=0
note_on channel=0 note=87 velocity=0 time=0
note_on channel=0 note=90 velocity=61 time=0
note_on channel=0 note=78 velocity=51 time=0
note_on channel=0 note=70 velocity=40 time=0
note_on channel=0 note=70 velocity=0 time=63
note_on channel=0 note=63 velocity=33 time=0
note_on channel=0 note=63 velocity=0 time=0
note_on channel=0 note=70 velocity=33 time=0
note_on channel=0 note=70 velocity=0 time=0
note_on channel=0 note=78 velocity=0 time=0
note_on channel=0 note=90 velocity=0 time=0
note_on channel=0 note=82 velocity=62 time=0
note_on channel=0 note=62 velocity=40 time=0
note_on channel=0 note=62 velocity=0 time=26
note_on channel=0 note=70 velocity=31 time=0
note_on channel=0 note=70 velocity=0 time=160
note_on channel=0 note=65 velocity=31 time=0
note_on channel=0 note=65 velocity=0 time=160
note_on channel=0 note=77 velocity=57 time=0
note_on channel=0 note=74 velocity=51 time=0
note_on channel=0 note=58 velocity=40 time=0
note_on channel=0 note=58 velocity=0 time=75
note_on channel=0 note=70 velocity=32 time=0
note_on channel=0 note=70 velocity=0 time=0
note_on channel=0 note=65 velocity=32 time=0
note_on channel=0 note=65 velocity=0 time=0
note_on channel=0 note=82 velocity=0 time=0
note_on channel=0 note=77 velocity=0 time=0
note_on channel=0 note=74 velocity=0 time=0
note_on channel=0 note=78 velocity=59 time=0
note_on channel=0 note=63 velocity=40 time=0
note_on channel=0 note=63 velocity=0 time=74
note_on channel=0 note=70 velocity=33 time=0
note_on channel=0 note=90 velocity=60 time=80
note_on channel=0 note=70 velocity=0 time=80
note_on channel=0 note=63 velocity=33 time=0
note_on channel=0 note=63 velocity=0 time=160
note_on channel=0 note=90 velocity=0 time=0
note_on channel=0 note=78 velocity=0 time=0
note_on channel=0 note=87 velocity=63 time=0
note_on channel=0 note=75 velocity=53 time=0
note_on channel=0 note=66 velocity=40 time=0
note_on channel=0 note=66 velocity=0 time=68
note_on channel=0 note=70 velocity=32 time=0
note_on channel=0 note=70 velocity=0 time=0
note_on channel=0 note=66 velocity=32 time=0
note_on channel=0 note=66 velocity=0 time=0
note_on channel=0 note=75 velocity=0 time=0
note_on channel=0 note=87 velocity=0 time=0
note_on channel=0 note=73 velocity=56 time=0
note_on channel=0 note=85 velocity=66 time=0
note_on channel=0 note=65 velocity=40 time=0
note_on channel=0 note=65 velocity=0 time=68
note_on channel=0 note=70 velocity=32 time=0
note_on channel=0 note=70 velocity=0 time=160
note_on channel=0 note=65 velocity=32 time=0
note_on channel=0 note=65 velocity=0 time=160
note_on channel=0 note=85 velocity=0 time=0
note_on channel=0 note=73 velocity=0 time=0
note_on channel=0 note=86 velocity=59 time=0
note_on channel=0 note=74 velocity=56 time=0
note_on channel=0 note=71 velocity=40 time=0
note_on channel=0 note=71 velocity=0 time=68
note_on channel=0 note=65 velocity=36 time=0
note_on channel=0 note=65 velocity=0 time=0
note_on channel=0 note=71 velocity=36 time=0
note_on channel=0 note=71 velocity=0 time=0
note_on channel=0 note=74 velocity=0 time=0
note_on channel=0 note=86 velocity=0 time=0
note_on channel=0 note=77 velocity=54 time=0
note_on channel=0 note=89 velocity=64 time=0
note_on channel=0 note=65 velocity=40 time=0
note_on channel=0 note=65 velocity=0 time=54
note_on channel=0 note=72 velocity=33 time=0
note_on channel=0 note=72 velocity=0 time=160
note_on channel=0 note=69 velocity=33 time=0
note_on channel=0 note=69 velocity=0 time=160
note_on channel=0 note=89 velocity=0 time=0
note_on channel=0 note=77 velocity=0 time=0
note_on channel=0 note=87 velocity=63 time=0
note_on channel=0 note=75 velocity=53 time=0
note_on channel=0 note=53 velocity=40 time=0
note_on channel=0 note=53 velocity=0 time=0
note_on channel=0 note=60 velocity=34 time=0
note_on channel=0 note=60 velocity=0 time=160
note_on channel=0 note=57 velocity=34 time=0
note_on channel=0 note=75 velocity=0 time=40
note_on channel=0 note=87 velocity=0 time=0
note_on channel=0 note=72 velocity=48 time=0
note_on channel=0 note=84 velocity=57 time=0
note_on channel=0 note=84 velocity=0 time=3
note_on channel=0 note=72 velocity=0 time=0
note_on channel=0 note=57 velocity=0 time=0
note_on channel=0 note=86 velocity=58 time=0
note_on channel=0 note=82 velocity=49 time=0
note_on channel=0 note=77 velocity=49 time=0
note_on channel=0 note=46 velocity=40 time=0
note_on channel=0 note=82 velocity=0 time=7
note_on channel=0 note=84 velocity=42 time=0
note_on channel=0 note=46 velocity=0 time=8
note_on channel=0 note=58 velocity=33 time=0
note_on channel=0 note=84 velocity=0 time=10
note_on channel=0 note=82 velocity=49 time=0
note_on channel=0 note=58 velocity=0 time=12
note_on channel=0 note=62 velocity=33 time=0
note_on channel=0 note=84 velocity=44 time=1
note_on channel=0 note=82 velocity=0 time=1
note_on channel=0 note=84 velocity=0 time=18
note_on channel=0 note=82 velocity=49 time=0
note_on channel=0 note=62 velocity=0 time=17
note_on channel=0 note=58 velocity=33 time=0
note_on channel=0 note=82 velocity=0 time=2
note_on channel=0 note=84 velocity=44 time=0
note_on channel=0 note=58 velocity=0 time=3
note_on channel=0 note=82 velocity=50 time=0
note_on channel=0 note=53 velocity=41 time=0
note_on channel=0 note=84 velocity=0 time=3
note_on channel=0 note=82 velocity=0 time=26
note_on channel=0 note=84 velocity=44 time=0
note_on channel=0 note=53 velocity=0 time=39
note_on channel=0 note=58 velocity=35 time=0
note_on channel=0 note=84 velocity=0 time=41
note_on channel=0 note=82 velocity=50 time=0
note_on channel=0 note=58 velocity=0 time=79
note_on channel=0 note=68 velocity=35 time=0
note_on channel=0 note=84 velocity=46 time=1
note_on channel=0 note=82 velocity=0 time=1
note_on channel=0 note=84 velocity=0 time=80
note_on channel=0 note=82 velocity=51 time=0
note_on channel=0 note=68 velocity=0 time=38
note_on channel=0 note=58 velocity=35 time=0
note_on channel=0 note=82 velocity=0 time=42
note_on channel=0 note=84 velocity=45 time=0
note_on channel=0 note=86 velocity=0 time=22
note_on channel=0 note=58 velocity=0 time=0
note_on channel=0 note=77 velocity=0 time=0
note_on channel=0 note=75 velocity=56 time=0
note_on channel=0 note=82 velocity=51 time=0
note_on channel=0 note=87 velocity=67 time=0
note_on channel=0 note=55 velocity=42 time=0
note_on channel=0 note=84 velocity=0 time=3
note_on channel=0 note=82 velocity=0 time=28
note_on channel=0 note=84 velocity=44 time=0
note_on channel=0 note=55 velocity=0 time=39
note_on channel=0 note=58 velocity=36 time=0
note_on channel=0 note=84 velocity=0 time=41
note_on channel=0 note=82 velocity=52 time=0
note_on channel=0 note=58 velocity=0 time=70
note_on channel=0 note=70 velocity=36 time=0
note_on channel=0 note=84 velocity=47 time=1
note_on channel=0 note=82 velocity=0 time=1
note_on channel=0 note=84 velocity=0 time=80
note_on channel=0 note=82 velocity=52 time=0
note_on channel=0 note=70 velocity=0 time=17
note_on channel=0 note=58 velocity=37 time=0
note_on channel=0 note=82 velocity=0 time=2
note_on channel=0 note=84 velocity=47 time=0
note_on channel=0 note=75 velocity=0 time=22
note_on channel=0 note=58 velocity=0 time=0
note_on channel=0 note=87 velocity=0 time=0
note_on channel=0 note=79 velocity=62 time=0
note_on channel=0 note=82 velocity=53 time=0
note_on channel=0 note=91 velocity=73 time=0
note_on channel=0 note=51 velocity=44 time=0
note_on channel=0 note=84 velocity=0 time=3
note_on channel=0 note=82 velocity=0 time=45
note_on channel=0 note=84 velocity=47 time=0
note_on channel=0 note=51 velocity=0 time=8
note_on channel=0 note=58 velocity=37 time=0
note_on channel=0 note=84 velocity=0 time=41
note_on channel=0 note=82 velocity=54 time=0
note_on channel=0 note=58 velocity=0 time=12
note_on channel=0 note=67 velocity=37 time=0
note_on channel=0 note=84 velocity=48 time=1
note_on channel=0 note=82 velocity=0 time=1
note_on channel=0 note=84 velocity=0 time=2
note_on channel=0 note=82 velocity=54 time=0
note_on channel=0 note=67 velocity=0 time=38
note_on channel=0 note=58 velocity=38 time=0
note_on channel=0 note=82 velocity=0 time=42
note_on channel=0 note=84 velocity=48 time=0
note_on channel=0 note=79 velocity=0 time=3
note_on channel=0 note=58 velocity=0 time=0
note_on channel=0 note=91 velocity=0 time=0
note_on channel=0 note=82 velocity=55 time=0
note_on channel=0 note=94 velocity=85 time=0
note_on channel=0 note=50 velocity=45 time=0
note_on channel=0 note=84 velocity=0 time=3
note_on channel=0 note=82 velocity=0 time=24
note_on channel=0 note=84 velocity=47 time=0
note_on channel=0 note=50 velocity=0 time=8
note_on channel=0 note=58 velocity=37 time=0
note_on channel=0 note=84 velocity=0 time=41
note_on channel=0 note=82 velocity=55 time=0
note_on channel=0 note=58 velocity=0 time=32
note_on channel=0 note=65 velocity=37 time=0
note_on channel=0 note=84 velocity=50 time=1
note_on channel=0 note=82 velocity=0 time=1
note_on channel=0 note=84 velocity=0 time=18
note_on channel=0 note=82 velocity=56 time=0
note_on channel=0 note=65 velocity=0 time=38
note_on channel=0 note=58 velocity=37 time=0
note_on channel=0 note=82 velocity=0 time=2
note_on channel=0 note=84 velocity=51 time=0
note_on channel=0 note=58 velocity=0 time=78
note_on channel=0 note=82 velocity=56 time=0
note_on channel=0 note=46 velocity=46 time=0
note_on channel=0 note=84 velocity=0 time=3
note_on channel=0 note=82 velocity=0 time=26
note_on channel=0 note=84 velocity=50 time=0
note_on channel=0 note=46 velocity=0 time=39
note_on channel=0 note=58 velocity=39 time=0
note_on channel=0 note=84 velocity=0 time=29
note_on channel=0 note=82 velocity=57 time=0
note_on channel=0 note=58 velocity=0 time=32
note_on channel=0 note=62 velocity=40 time=0
note_on channel=0 note=84 velocity=51 time=1
note_on channel=0 note=82 velocity=0 time=1
note_on channel=0 note=84 velocity=0 time=2
note_on channel=0 note=82 velocity=57 time=0
note_on channel=0 note=62 velocity=0 time=38
note_on channel=0 note=58 velocity=40 time=0
note_on channel=0 note=82 velocity=0 time=42
note_on channel=0 note=84 velocity=51 time=0
note_on channel=0 note=58 velocity=0 time=22
note_on channel=0 note=94 velocity=0 time=0
note_on channel=0 note=79 velocity=61 time=0
note_on channel=0 note=82 velocity=58 time=0
note_on channel=0 note=91 velocity=72 time=0
note_on channel=0 note=51 velocity=48 time=0
note_on channel=0 note=84 velocity=0 time=3
note_on channel=0 note=82 velocity=0 time=35
note_on channel=0 note=84 velocity=50 time=0
note_on channel=0 note=51 velocity=0 time=27
note_on channel=0 note=58 velocity=42 time=0
note_on channel=0 note=84 velocity=0 time=41
note_on channel=0 note=82 velocity=59 time=0
note_on channel=0 note=58 velocity=0 time=51
note_on channel=0 note=67 velocity=42 time=0
note_on channel=0 note=84 velocity=53 time=1
note_on channel=0 note=82 velocity=0 time=1
note_on channel=0 note=84 velocity=0 time=37
note_on channel=0 note=82 velocity=59 time=0
note_on channel=0 note=67 velocity=0 time=17
note_on channel=0 note=58 velocity=42 time=0
note_on channel=0 note=82 velocity=0 time=42
note_on channel=0 note=84 velocity=53 time=0
note_on channel=0 note=79 velocity=0 time=41
note_on channel=0 note=58 velocity=0 time=0
note_on channel=0 note=91 velocity=0 time=0
note_on channel=0 note=75 velocity=65 time=0
note_on channel=0 note=87 velocity=77 time=0
note_on channel=0 note=82 velocity=60 time=0
note_on channel=0 note=55 velocity=51 time=0
note_on channel=0 note=84 velocity=0 time=3
note_on channel=0 note=82 velocity=0 time=45
note_on channel=0 note=84 velocity=52 time=0
note_on channel=0 note=55 velocity=0 time=39
note_on channel=0 note=58 velocity=43 time=0
note_on channel=0 note=84 velocity=0 time=29
note_on channel=0 note=82 velocity=60 time=0
note_on channel=0 note=58 velocity=0 time=32
note_on channel=0 note=70 velocity=43 time=0
note_on channel=0 note=84 velocity=55 time=1
note_on channel=0 note=82 velocity=0 time=1
note_on channel=0 note=84 velocity=0 time=2
note_on channel=0 note=82 velocity=61 time=0
note_on channel=0 note=70 velocity=0 time=38
note_on channel=0 note=58 velocity=43 time=0
note_on channel=0 note=82 velocity=0 time=42
note_on channel=0 note=84 velocity=54 time=0
note_on channel=0 note=75 velocity=0 time=0
note_on channel=0 note=58 velocity=0 time=0
note_on channel=0 note=87 velocity=0 time=0
note_on channel=0 note=82 velocity=61 time=0
note_on channel=0 note=73 velocity=65 time=0
note_on channel=0 note=85 velocity=83 time=0
note_on channel=0 note=53 velocity=50 time=0
note_on channel=0 note=84 velocity=0 time=3
note_on channel=0 note=82 velocity=0 time=17
note_on channel=0 note=84 velocity=53 time=0
note_on channel=0 note=53 velocity=0 time=39
note_on channel=0 note=58 velocity=44 time=0
note_on channel=0 note=84 velocity=0 time=41
note_on channel=0 note=82 velocity=62 time=0
note_on channel=0 note=85 velocity=0 time=12
note_on channel=0 note=58 velocity=0 time=0
note_on channel=0 note=73 velocity=0 time=0
note_on channel=0 note=86 velocity=75 time=0
note_on channel=0 note=74 velocity=65 time=0
note_on channel=0 note=57 velocity=48 time=0
note_on channel=0 note=84 velocity=56 time=1
note_on channel=0 note=82 velocity=0 time=1
note_on channel=0 note=84 velocity=0 time=22
note_on channel=0 note=82 velocity=62 time=0
note_on channel=0 note=57 velocity=0 time=38
note_on channel=0 note=58 velocity=51 time=0
note_on channel=0 note=82 velocity=0 time=42
note_on channel=0 note=84 velocity=56 time=0
note_on channel=0 note=58 velocity=0 time=60
note_on channel=0 note=82 velocity=63 time=0
note_on channel=0 note=53 velocity=54 time=0
note_on channel=0 note=84 velocity=0 time=3
note_on channel=0 note=82 velocity=0 time=78
note_on channel=0 note=84 velocity=55 time=0
note_on channel=0 note=53 velocity=0 time=27
note_on channel=0 note=50 velocity=55 time=0
note_on channel=0 note=84 velocity=0 time=41
note_on channel=0 note=82 velocity=64 time=0
note_on channel=0 note=86 velocity=0 time=12
note_on channel=0 note=50 velocity=0 time=0
note_on channel=0 note=74 velocity=0 time=0
note_on channel=0 note=77 velocity=74 time=0
note_on channel=0 note=89 velocity=86 time=0
note_on channel=0 note=48 velocity=55 time=0
note_on channel=0 note=84 velocity=57 time=1
note_on channel=0 note=82 velocity=0 time=1
note_on channel=0 note=84 velocity=0 time=2
note_on channel=0 note=82 velocity=64 time=0
note_on channel=0 note=48 velocity=0 time=38
note_on channel=0 note=46 velocity=54 time=0
note_on channel=0 note=82 velocity=0 time=42
note_on channel=0 note=84 velocity=56 time=0
note_on channel=0 note=77 velocity=0 time=22
note_on channel=0 note=46 velocity=0 time=0
note_on channel=0 note=89 velocity=0 time=0
note_on channel=0 note=89 velocity=86 time=0
note_on channel=0 note=81 velocity=75 time=0
note_on channel=0 note=41 velocity=54 time=0
note_on channel=0 note=84 velocity=0 time=3
note_on channel=0 note=81 velocity=0 time=17
note_on channel=0 note=82 velocity=66 time=0
note_on channel=0 note=41 velocity=0 time=27
note_on channel=0 note=43 velocity=49 time=0
note_on channel=0 note=82 velocity=0 time=41
note_on channel=0 note=81 velocity=75 time=0
note_on channel=0 note=43 velocity=0 time=51
note_on channel=0 note=45 velocity=49 time=0
note_on channel=0 note=82 velocity=64 time=1
note_on channel=0 note=81 velocity=0 time=1
note_on channel=0 note=82 velocity=0 time=18
note_on channel=0 note=81 velocity=75 time=0
note_on channel=0 note=45 velocity=0 time=38
note_on channel=0 note=46 velocity=49 time=0
note_on channel=0 note=81 velocity=0 time=21
note_on channel=0 note=82 velocity=68 time=0
note_on channel=0 note=46 velocity=0 time=3
note_on channel=0 note=81 velocity=78 time=0
note_on channel=0 note=48 velocity=54 time=0
note_on channel=0 note=82 velocity=0 time=3
note_on channel=0 note=81 velocity=0 time=7
note_on channel=0 note=82 velocity=69 time=0
note_on channel=0 note=89 velocity=0 time=39
note_on channel=0 note=48 velocity=0 time=0
note_on channel=0 note=87 velocity=86 time=0
note_on channel=0 note=50 velocity=50 time=0
note_on channel=0 note=82 velocity=0 time=10
note_on channel=0 note=81 velocity=75 time=0
note_on channel=0 note=50 velocity=0 time=79
note_on channel=0 note=87 velocity=0 time=0
note_on channel=0 note=79 velocity=79 time=0
note_on channel=0 note=84 velocity=79 time=0
note_on channel=0 note=51 velocity=59 time=0
note_on channel=0 note=81 velocity=0 time=2
note_on channel=0 note=79 velocity=0 time=36
note_on channel=0 note=84 velocity=0 time=0
note_on channel=0 note=51 velocity=0 time=0
note_on channel=0 note=81 velocity=79 time=0
note_on channel=0 note=89 velocity=79 time=0
note_on channel=0 note=53 velocity=66 time=0
note_on channel=0 note=53 velocity=0 time=0
note_on channel=0 note=89 velocity=0 time=0
note_on channel=0 note=81 velocity=0 time=0
note_on channel=0 note=80 velocity=87 time=0
note_on channel=0 note=77 velocity=87 time=0
note_on channel=0 note=86 velocity=87 time=0
note_on channel=0 note=89 velocity=103 time=0
note_on channel=0 note=34 velocity=66 time=0
note_on channel=0 note=34 velocity=0 time=17
note_on channel=0 note=86 velocity=0 time=0
note_on channel=0 note=80 velocity=0 time=0
note_on channel=0 note=77 velocity=0 time=0
note_on channel=0 note=89 velocity=0 time=0
note_on channel=0 note=46 velocity=56 time=0
note_on channel=0 note=46 velocity=0 time=120
note_on channel=0 note=89 velocity=79 time=0
note_on channel=0 note=92 velocity=79 time=0
note_on channel=0 note=101 velocity=93 time=0
note_on channel=0 note=98 velocity=79 time=0
note_on channel=0 note=34 velocity=66 time=0
note_on channel=0 note=34 velocity=0 time=120
note_on channel=0 note=46 velocity=56 time=0
note_on channel=0 note=46 velocity=0 time=0
note_on channel=0 note=34 velocity=66 time=0
note_on channel=0 note=34 velocity=0 time=120
note_on channel=0 note=46 velocity=57 time=0
note_on channel=0 note=46 velocity=0 time=0
note_on channel=0 note=98 velocity=0 time=0
note_on channel=0 note=89 velocity=0 time=0
note_on channel=0 note=92 velocity=0 time=0
note_on channel=0 note=101 velocity=0 time=0
note_on channel=0 note=99 velocity=78 time=0
note_on channel=0 note=92 velocity=66 time=0
note_on channel=0 note=87 velocity=66 time=0
note_on channel=0 note=89 velocity=66 time=0
note_on channel=0 note=34 velocity=66 time=0
note_on channel=0 note=34 velocity=0 time=28
note_on channel=0 note=87 velocity=0 time=0
note_on channel=0 note=99 velocity=0 time=0
note_on channel=0 note=92 velocity=0 time=0
note_on channel=0 note=89 velocity=0 time=0
note_on channel=0 note=46 velocity=57 time=0
note_on channel=0 note=46 velocity=0 time=0
note_on channel=0 note=86 velocity=67 time=0
note_on channel=0 note=98 velocity=79 time=0
note_on channel=0 note=89 velocity=67 time=0
note_on channel=0 note=92 velocity=67 time=0
note_on channel=0 note=34 velocity=66 time=0
note_on channel=0 note=34 velocity=0 time=120
note_on channel=0 note=89 velocity=0 time=0
note_on channel=0 note=86 velocity=0 time=0
note_on channel=0 note=98 velocity=0 time=0
note_on channel=0 note=92 velocity=0 time=0
note_on channel=0 note=46 velocity=57 time=0
note_on channel=0 note=46 velocity=0 time=103
note_on channel=0 note=87 velocity=70 time=0
note_on channel=0 note=89 velocity=70 time=0
note_on channel=0 note=99 velocity=83 time=0
note_on channel=0 note=92 velocity=70 time=0
note_on channel=0 note=34 velocity=66 time=0
note_on channel=0 note=34 velocity=0 time=57
note_on channel=0 note=99 velocity=0 time=0
note_on channel=0 note=87 velocity=0 time=0
note_on channel=0 note=89 velocity=0 time=0
note_on channel=0 note=92 velocity=0 time=0
note_on channel=0 note=46 velocity=58 time=0
note_on channel=0 note=46 velocity=0 time=80
note_on channel=0 note=92 velocity=69 time=0
note_on channel=0 note=101 velocity=82 time=0
note_on channel=0 note=89 velocity=69 time=0
note_on channel=0 note=34 velocity=66 time=0
note_on channel=0 note=34 velocity=0 time=57
note_on channel=0 note=92 velocity=0 time=0
note_on channel=0 note=101 velocity=0 time=0
note_on channel=0 note=89 velocity=0 time=0
note_on channel=0 note=46 velocity=59 time=0
note_on channel=0 note=46 velocity=0 time=0
note_on channel=0 note=98 velocity=69 time=0
note_on channel=0 note=91 velocity=58 time=0
note_on channel=0 note=89 velocity=58 time=0
note_on channel=0 note=86 velocity=58 time=0
note_on channel=0 note=35 velocity=45 time=0
note_on channel=0 note=35 velocity=0 time=45
note_on channel=0 note=89 velocity=0 time=0
note_on channel=0 note=98 velocity=0 time=0
note_on channel=0 note=91 velocity=0 time=0
note_on channel=0 note=86 velocity=0 time=0
note_on channel=0 note=47 velocity=34 time=0
note_on channel=0 note=47 velocity=0 time=0
note_on channel=0 note=87 velocity=50 time=0
note_on channel=0 note=99 velocity=59 time=0
note_on channel=0 note=91 velocity=50 time=0
note_on channel=0 note=36 velocity=43 time=0
note_on channel=0 note=36 velocity=0 time=120
note_on channel=0 note=87 velocity=0 time=0
note_on channel=0 note=99 velocity=0 time=0
note_on channel=0 note=91 velocity=0 time=0
note_on channel=0 note=48 velocity=33 time=0
note_on channel=0 note=48 velocity=0 time=97
note_on channel=0 note=86 velocity=45 time=0
note_on channel=0 note=98 velocity=53 time=0
note_on channel=0 note=91 velocity=45 time=0
note_on channel=0 note=89 velocity=45 time=0
note_on channel=0 note=35 velocity=43 time=0
note_on channel=0 note=35 velocity=0 time=80
note_on channel=0 note=91 velocity=0 time=0
note_on channel=0 note=86 velocity=0 time=0
note_on channel=0 note=98 velocity=0 time=0
note_on channel=0 note=89 velocity=0 time=0
note_on channel=0 note=47 velocity=33 time=0
note_on channel=0 note=47 velocity=0 time=91
note_on channel=0 note=99 velocity=59 time=0
note_on channel=0 note=87 velocity=50 time=0
note_on channel=0 note=91 velocity=50 time=0
note_on channel=0 note=36 velocity=43 time=0
note_on channel=0 note=36 velocity=0 time=68
note_on channel=0 note=99 velocity=0 time=0
note_on channel=0 note=87 velocity=0 time=0
note_on channel=0 note=91 velocity=0 time=0
note_on channel=0 note=48 velocity=34 time=0
note_on channel=0 note=48 velocity=0 time=0
note_on channel=0 note=91 velocity=45 time=0
note_on channel=0 note=84 velocity=45 time=0
note_on channel=0 note=96 velocity=53 time=0
note_on channel=0 note=39 velocity=43 time=0
note_on channel=0 note=39 velocity=0 time=63
note_on channel=0 note=91 velocity=0 time=0
note_on channel=0 note=84 velocity=0 time=0
note_on channel=0 note=96 velocity=0 time=0
note_on channel=0 note=51 velocity=35 time=0
note_on channel=0 note=51 velocity=0 time=0
note_on channel=0 note=84 velocity=50 time=0
note_on channel=0 note=94 velocity=59 time=0
note_on channel=0 note=91 velocity=50 time=0
note_on channel=0 note=40 velocity=43 time=0
note_on channel=0 note=40 velocity=0 time=120
note_on channel=0 note=84 velocity=0 time=0
note_on channel=0 note=94 velocity=0 time=0
note_on channel=0 note=91 velocity=0 time=0
note_on channel=0 note=52 velocity=33 time=0
note_on channel=0 note=52 velocity=0 time=97
note_on channel=0 note=88 velocity=45 time=0
note_on channel=0 note=84 velocity=45 time=0
note_on channel=0 note=94 velocity=53 time=0
note_on channel=0 note=43 velocity=43 time=0
note_on channel=0 note=43 velocity=0 time=80
note_on channel=0 note=88 velocity=0 time=0
note_on channel=0 note=84 velocity=0 time=0
note_on channel=0 note=94 velocity=0 time=0
note_on channel=0 note=55 velocity=33 time=0
note_on channel=0 note=55 velocity=0 time=85
note_on channel=0 note=87 velocity=50 time=0
note_on channel=0 note=84 velocity=50 time=0
note_on channel=0 note=93 velocity=59 time=0
note_on channel=0 note=41 velocity=43 time=0
note_on channel=0 note=41 velocity=0 time=63
note_on channel=0 note=87 velocity=0 time=0
note_on channel=0 note=84 velocity=0 time=0
note_on channel=0 note=93 velocity=0 time=0
note_on channel=0 note=53 velocity=34 time=0
note_on channel=0 note=53 velocity=0 time=0
note_on channel=0 note=84 velocity=45 time=0
note_on channel=0 note=96 velocity=53 time=0
note_on channel=0 note=87 velocity=45 time=0
note_on channel=0 note=41 velocity=43 time=0
note_on channel=0 note=41 velocity=0 time=51
note_on channel=0 note=84 velocity=0 time=0
note_on channel=0 note=96 velocity=0 time=0
note_on channel=0 note=87 velocity=0 time=0
note_on channel=0 note=53 velocity=35 time=0
note_on channel=0 note=53 velocity=0 time=0
note_on channel=0 note=86 velocity=55 time=0
note_on channel=0 note=82 velocity=55 time=0
note_on channel=0 note=94 velocity=64 time=0
note_on channel=0 note=41 velocity=47 time=0
note_on channel=0 note=41 velocity=0 time=70
note_on channel=0 note=86 velocity=0 time=0
note_on channel=0 note=82 velocity=0 time=0
note_on channel=0 note=94 velocity=0 time=0
note_on channel=0 note=53 velocity=36 time=0
note_on channel=0 note=53 velocity=0 time=120
note_on channel=0 note=77 velocity=50 time=0
note_on channel=0 note=86 velocity=50 time=0
note_on channel=0 note=89 velocity=59 time=0
note_on channel=0 note=46 velocity=48 time=0
note_on channel=0 note=46 velocity=0 time=120
note_on channel=0 note=77 velocity=0 time=0
note_on channel=0 note=86 velocity=0 time=0
note_on channel=0 note=89 velocity=0 time=0
note_on channel=0 note=58 velocity=37 time=0
note_on channel=0 note=58 velocity=0 time=120
note_on channel=0 note=89 velocity=58 time=0
note_on channel=0 note=81 velocity=58 time=0
note_on channel=0 note=93 velocity=69 time=0
note_on channel=0 note=87 velocity=58 time=0
note_on channel=0 note=41 velocity=50 time=0
note_on channel=0 note=41 velocity=0 time=120
note_on channel=0 note=93 velocity=0 time=0
note_on channel=0 note=89 velocity=0 time=0
note_on channel=0 note=81 velocity=0 time=0
note_on channel=0 note=87 velocity=0 time=0
note_on channel=0 note=53 velocity=40 time=0
note_on channel=0 note=53 velocity=0 time=118
note_on channel=0 note=96 velocity=65 time=0
note_on channel=0 note=89 velocity=55 time=0
note_on channel=0 note=87 velocity=55 time=0
note_on channel=0 note=84 velocity=55 time=0
note_on channel=0 note=53 velocity=53 time=0
note_on channel=0 note=53 velocity=0 time=106
note_on channel=0 note=87 velocity=0 time=0
note_on channel=0 note=96 velocity=0 time=0
note_on channel=0 note=89 velocity=0 time=0
note_on channel=0 note=84 velocity=0 time=0
note_on channel=0 note=65 velocity=44 time=0
note_on channel=0 note=65 velocity=0 time=0
note_on channel=0 note=86 velocity=63 time=0
note_on channel=0 note=94 velocity=75 time=0
note_on channel=0 note=82 velocity=63 time=0
note_on channel=0 note=41 velocity=54 time=0
note_on channel=0 note=41 velocity=0 time=14
note_on channel=0 note=86 velocity=0 time=0
note_on channel=0 note=94 velocity=0 time=0
note_on channel=0 note=82 velocity=0 time=0
note_on channel=0 note=53 velocity=42 time=0
note_on channel=0 note=53 velocity=0 time=120
note_on channel=0 note=89 velocity=69 time=0
note_on channel=0 note=86 velocity=59 time=0
note_on channel=0 note=77 velocity=59 time=0
note_on channel=0 note=46 velocity=57 time=0
note_on channel=0 note=46 velocity=0 time=120
note_on channel=0 note=89 velocity=0 time=0
note_on channel=0 note=86 velocity=0 time=0
note_on channel=0 note=77 velocity=0 time=0
note_on channel=0 note=58 velocity=44 time=0
note_on channel=0 note=58 velocity=0 time=120
note_on channel=0 note=81 velocity=69 time=0
note_on channel=0 note=87 velocity=69 time=0
note_on channel=0 note=89 velocity=69 time=0
note_on channel=0 note=93 velocity=80 time=0
note_on channel=0 note=41 velocity=58 time=0
note_on channel=0 note=41 velocity=0 time=120
note_on channel=0 note=89 velocity=0 time=0
note_on channel=0 note=81 velocity=0 time=0
note_on channel=0 note=87 velocity=0 time=0
note_on channel=0 note=93 velocity=0 time=0
note_on channel=0 note=53 velocity=47 time=0
note_on channel=0 note=53 velocity=0 time=118
note_on channel=0 note=87 velocity=64 time=0
note_on channel=0 note=89 velocity=64 time=0
note_on channel=0 note=96 velocity=76 time=0
note_on channel=0 note=84 velocity=64 time=0
note_on channel=0 note=53 velocity=61 time=0
note_on channel=0 note=53 velocity=0 time=21
note_on channel=0 note=96 velocity=0 time=0
note_on channel=0 note=87 velocity=0 time=0
note_on channel=0 note=89 velocity=0 time=0
note_on channel=0 note=84 velocity=0 time=0
note_on channel=0 note=65 velocity=51 time=0
note_on channel=0 note=65 velocity=0 time=0
note_on channel=0 note=82 velocity=77 time=0
note_on channel=0 note=46 velocity=59 time=0
note_on channel=0 note=46 velocity=0 time=93
note_on channel=0 note=82 velocity=0 time=0
note_on channel=0 note=94 velocity=70 time=0
note_on channel=0 note=58 velocity=50 time=0
note_on channel=0 note=58 velocity=0 time=99
note_on channel=0 note=94 velocity=0 time=0
note_on channel=0 note=77 velocity=79 time=0
note_on channel=0 note=41 velocity=61 time=0
note_on channel=0 note=41 velocity=0 time=120
note_on channel=0 note=77 velocity=0 time=0
note_on channel=0 note=89 velocity=73 time=0
note_on channel=0 note=53 velocity=51 time=0
note_on channel=0 note=53 velocity=0 time=120
note_on channel=0 note=89 velocity=0 time=0
note_on channel=0 note=81 velocity=82 time=0
note_on channel=0 note=45 velocity=64 time=0
note_on channel=0 note=45 velocity=0 time=42
note_on channel=0 note=81 velocity=0 time=0
note_on channel=0 note=93 velocity=76 time=0
note_on channel=0 note=57 velocity=55 time=0
note_on channel=0 note=57 velocity=0 time=120
note_on channel=0 note=93 velocity=0 time=0
note_on channel=0 note=84 velocity=85 time=0
note_on channel=0 note=48 velocity=67 time=0
note_on channel=0 note=48 velocity=0 time=0
note_on channel=0 note=84 velocity=0 time=0
note_on channel=0 note=96 velocity=79 time=0
note_on channel=0 note=60 velocity=58 time=0
note_on channel=0 note=60 velocity=0 time=0
note_on channel=0 note=96 velocity=0 time=0
note_on channel=0 note=82 velocity=88 time=0
note_on channel=0 note=46 velocity=68 time=0
note_on channel=0 note=46 velocity=0 time=35
note_on channel=0 note=82 velocity=0 time=0
note_on channel=0 note=94 velocity=82 time=0
note_on channel=0 note=58 velocity=63 time=0
note_on channel=0 note=58 velocity=0 time=120
note_on channel=0 note=94 velocity=0 time=0
note_on channel=0 note=77 velocity=91 time=0
note_on channel=0 note=41 velocity=71 time=0
note_on channel=0 note=41 velocity=0 time=120
note_on channel=0 note=77 velocity=0 time=0
note_on channel=0 note=89 velocity=81 time=0
note_on channel=0 note=53 velocity=63 time=0
note_on channel=0 note=53 velocity=0 time=120
note_on channel=0 note=89 velocity=0 time=0
note_on channel=0 note=69 velocity=89 time=0
note_on channel=0 note=33 velocity=71 time=0
note_on channel=0 note=33 velocity=0 time=111
note_on channel=0 note=69 velocity=0 time=0
note_on channel=0 note=81 velocity=81 time=0
note_on channel=0 note=45 velocity=60 time=0
note_on channel=0 note=45 velocity=0 time=120
note_on channel=0 note=81 velocity=0 time=0
note_on channel=0 note=72 velocity=90 time=0
note_on channel=0 note=36 velocity=71 time=0
note_on channel=0 note=36 velocity=0 time=0
note_on channel=0 note=72 velocity=0 time=0
note_on channel=0 note=84 velocity=80 time=0
note_on channel=0 note=48 velocity=63 time=0
note_on channel=0 note=48 velocity=0 time=0
note_on channel=0 note=84 velocity=0 time=0
note_on channel=0 note=70 velocity=88 time=0
note_on channel=0 note=34 velocity=68 time=0
note_on channel=0 note=34 velocity=0 time=35
note_on channel=0 note=70 velocity=0 time=0
note_on channel=0 note=82 velocity=82 time=0
note_on channel=0 note=46 velocity=63 time=0
note_on channel=0 note=46 velocity=0 time=120
note_on channel=0 note=82 velocity=0 time=0
note_on channel=0 note=65 velocity=91 time=0
note_on channel=0 note=29 velocity=71 time=0
note_on channel=0 note=29 velocity=0 time=120
note_on channel=0 note=65 velocity=0 time=0
note_on channel=0 note=77 velocity=81 time=0
note_on channel=0 note=41 velocity=63 time=0
note_on channel=0 note=41 velocity=0 time=120
note_on channel=0 note=77 velocity=0 time=0
note_on channel=0 note=71 velocity=89 time=0
note_on channel=0 note=35 velocity=71 time=0
note_on channel=0 note=35 velocity=0 time=111
note_on channel=0 note=71 velocity=0 time=0
note_on channel=0 note=83 velocity=81 time=0
note_on channel=0 note=47 velocity=60 time=0
note_on channel=0 note=47 velocity=0 time=120
note_on channel=0 note=83 velocity=0 time=0
note_on channel=0 note=74 velocity=90 time=0
note_on channel=0 note=38 velocity=71 time=0
note_on channel=0 note=38 velocity=0 time=0
note_on channel=0 note=74 velocity=0 time=0
note_on channel=0 note=86 velocity=80 time=0
note_on channel=0 note=50 velocity=63 time=0
note_on channel=0 note=50 velocity=0 time=0
note_on channel=0 note=86 velocity=0 time=0
note_on channel=0 note=72 velocity=88 time=0
note_on channel=0 note=36 velocity=68 time=0
note_on channel=0 note=36 velocity=0 time=35
note_on channel=0 note=72 velocity=0 time=0
note_on channel=0 note=84 velocity=82 time=0
note_on channel=0 note=48 velocity=63 time=0
note_on channel=0 note=48 velocity=0 time=120
note_on channel=0 note=84 velocity=0 time=0
note_on channel=0 note=67 velocity=91 time=0
note_on channel=0 note=31 velocity=71 time=0
note_on channel=0 note=31 velocity=0 time=120
note_on channel=0 note=67 velocity=0 time=0
note_on channel=0 note=79 velocity=81 time=0
note_on channel=0 note=43 velocity=63 time=0
note_on channel=0 note=43 velocity=0 time=120
note_on channel=0 note=79 velocity=0 time=0
note_on channel=0 note=71 velocity=89 time=0
note_on channel=0 note=35 velocity=71 time=0
note_on channel=0 note=35 velocity=0 time=111
note_on channel=0 note=71 velocity=0 time=0
note_on channel=0 note=83 velocity=81 time=0
note_on channel=0 note=47 velocity=60 time=0
note_on channel=0 note=47 velocity=0 time=120
note_on channel=0 note=83 velocity=0 time=0
note_on channel=0 note=74 velocity=90 time=0
note_on channel=0 note=38 velocity=71 time=0
note_on channel=0 note=38 velocity=0 time=0
note_on channel=0 note=74 velocity=0 time=0
note_on channel=0 note=86 velocity=80 time=0
note_on channel=0 note=50 velocity=63 time=0
note_on channel=0 note=50 velocity=0 time=0
note_on channel=0 note=86 velocity=0 time=0
note_on channel=0 note=72 velocity=88 time=0
note_on channel=0 note=36 velocity=68 time=0
note_on channel=0 note=36 velocity=0 time=35
note_on channel=0 note=72 velocity=0 time=0
note_on channel=0 note=84 velocity=82 time=0
note_on channel=0 note=48 velocity=63 time=0
note_on channel=0 note=48 velocity=0 time=120
note_on channel=0 note=84 velocity=0 time=0
note_on channel=0 note=67 velocity=91 time=0
note_on channel=0 note=31 velocity=71 time=0
note_on channel=0 note=31 velocity=0 time=120
note_on channel=0 note=67 velocity=0 time=0
note_on channel=0 note=79 velocity=81 time=0
note_on channel=0 note=43 velocity=63 time=0
note_on channel=0 note=43 velocity=0 time=120
note_on channel=0 note=79 velocity=0 time=0
note_on channel=0 note=72 velocity=89 time=0
note_on channel=0 note=36 velocity=71 time=0
note_on channel=0 note=36 velocity=0 time=111
note_on channel=0 note=72 velocity=0 time=0
note_on channel=0 note=84 velocity=81 time=0
note_on channel=0 note=48 velocity=60 time=0
note_on channel=0 note=48 velocity=0 time=120
note_on channel=0 note=84 velocity=0 time=0
note_on channel=0 note=75 velocity=90 time=0
note_on channel=0 note=39 velocity=71 time=0
note_on channel=0 note=39 velocity=0 time=0
note_on channel=0 note=75 velocity=0 time=0
note_on channel=0 note=87 velocity=80 time=0
note_on channel=0 note=51 velocity=63 time=0
note_on channel=0 note=51 velocity=0 time=0
note_on channel=0 note=87 velocity=0 time=0
note_on channel=0 note=74 velocity=88 time=0
note_on channel=0 note=38 velocity=68 time=0
note_on channel=0 note=38 velocity=0 time=35
note_on channel=0 note=74 velocity=0 time=0
note_on channel=0 note=86 velocity=82 time=0
note_on channel=0 note=50 velocity=63 time=0
note_on channel=0 note=50 velocity=0 time=120
note_on channel=0 note=86 velocity=0 time=0
note_on channel=0 note=69 velocity=91 time=0
note_on channel=0 note=33 velocity=71 time=0
note_on channel=0 note=33 velocity=0 time=120
note_on channel=0 note=69 velocity=0 time=0
note_on channel=0 note=81 velocity=80 time=0
note_on channel=0 note=45 velocity=62 time=0
note_on channel=0 note=45 velocity=0 time=120
note_on channel=0 note=81 velocity=0 time=0
note_on channel=0 note=73 velocity=88 time=0
note_on channel=0 note=37 velocity=70 time=0
note_on channel=0 note=37 velocity=0 time=111
note_on channel=0 note=73 velocity=0 time=0
note_on channel=0 note=85 velocity=80 time=0
note_on channel=0 note=49 velocity=59 time=0
note_on channel=0 note=49 velocity=0 time=120
note_on channel=0 note=85 velocity=0 time=0
note_on channel=0 note=76 velocity=88 time=0
note_on channel=0 note=40 velocity=69 time=0
note_on channel=0 note=40 velocity=0 time=0
note_on channel=0 note=76 velocity=0 time=0
note_on channel=0 note=88 velocity=78 time=0
note_on channel=0 note=52 velocity=61 time=0
note_on channel=0 note=52 velocity=0 time=0
note_on channel=0 note=88 velocity=0 time=0
note_on channel=0 note=74 velocity=86 time=0
note_on channel=0 note=38 velocity=66 time=0
note_on channel=0 note=38 velocity=0 time=35
note_on channel=0 note=74 velocity=0 time=0
note_on channel=0 note=86 velocity=79 time=0
note_on channel=0 note=50 velocity=61 time=0
note_on channel=0 note=50 velocity=0 time=120
note_on channel=0 note=86 velocity=0 time=0
note_on channel=0 note=69 velocity=88 time=0
note_on channel=0 note=33 velocity=68 time=0
note_on channel=0 note=33 velocity=0 time=120
note_on channel=0 note=69 velocity=0 time=0
note_on channel=0 note=81 velocity=78 time=0
note_on channel=0 note=45 velocity=61 time=0
note_on channel=0 note=45 velocity=0 time=120
note_on channel=0 note=81 velocity=0 time=0
note_on channel=0 note=74 velocity=85 time=0
note_on channel=0 note=38 velocity=68 time=0
note_on channel=0 note=38 velocity=0 time=111
note_on channel=0 note=74 velocity=0 time=0
note_on channel=0 note=86 velocity=77 time=0
note_on channel=0 note=50 velocity=57 time=0
note_on channel=0 note=50 velocity=0 time=120
note_on channel=0 note=86 velocity=0 time=0
note_on channel=0 note=77 velocity=85 time=0
note_on channel=0 note=41 velocity=67 time=0
note_on channel=0 note=41 velocity=0 time=0
note_on channel=0 note=77 velocity=0 time=0
note_on channel=0 note=89 velocity=76 time=0
note_on channel=0 note=53 velocity=59 time=0
note_on channel=0 note=53 velocity=0 time=0
note_on channel=0 note=89 velocity=0 time=0
note_on channel=0 note=75 velocity=83 time=0
note_on channel=0 note=39 velocity=64 time=0
note_on channel=0 note=39 velocity=0 time=35
note_on channel=0 note=75 velocity=0 time=0
note_on channel=0 note=87 velocity=77 time=0
note_on channel=0 note=51 velocity=59 time=0
note_on channel=0 note=51 velocity=0 time=120
note_on channel=0 note=87 velocity=0 time=0
note_on channel=0 note=70 velocity=85 time=0
note_on channel=0 note=34 velocity=66 time=0
note_on channel=0 note=34 velocity=0 time=120
note_on channel=0 note=70 velocity=0 time=0
note_on channel=0 note=82 velocity=76 time=0
note_on channel=0 note=46 velocity=59 time=0
note_on channel=0 note=46 velocity=0 time=120
note_on channel=0 note=82 velocity=0 time=0
note_on channel=0 note=74 velocity=82 time=0
note_on channel=0 note=38 velocity=66 time=0
note_on channel=0 note=38 velocity=0 time=111
note_on channel=0 note=74 velocity=0 time=0
note_on channel=0 note=86 velocity=75 time=0
note_on channel=0 note=50 velocity=55 time=0
note_on channel=0 note=50 velocity=0 time=120
note_on channel=0 note=86 velocity=0 time=0
note_on channel=0 note=77 velocity=83 time=0
note_on channel=0 note=41 velocity=66 time=0
note_on channel=0 note=41 velocity=0 time=0
note_on channel=0 note=77 velocity=0 time=0
note_on channel=0 note=89 velocity=73 time=0
note_on channel=0 note=53 velocity=57 time=0
note_on channel=0 note=53 velocity=0 time=0
note_on channel=0 note=89 velocity=0 time=0
note_on channel=0 note=75 velocity=80 time=0
note_on channel=0 note=39 velocity=62 time=0
note_on channel=0 note=39 velocity=0 time=35
note_on channel=0 note=75 velocity=0 time=0
note_on channel=0 note=87 velocity=75 time=0
note_on channel=0 note=51 velocity=57 time=0
note_on channel=0 note=51 velocity=0 time=120
note_on channel=0 note=87 velocity=0 time=0
note_on channel=0 note=70 velocity=82 time=0
note_on channel=0 note=34 velocity=64 time=0
note_on channel=0 note=34 velocity=0 time=120
note_on channel=0 note=70 velocity=0 time=0
note_on channel=0 note=82 velocity=73 time=0
note_on channel=0 note=46 velocity=57 time=0
note_on channel=0 note=46 velocity=0 time=120
note_on channel=0 note=82 velocity=0 time=0
note_on channel=0 note=75 velocity=80 time=0
note_on channel=0 note=39 velocity=63 time=0
note_on channel=0 note=39 velocity=0 time=111
note_on channel=0 note=75 velocity=0 time=0
note_on channel=0 note=87 velocity=72 time=0
note_on channel=0 note=51 velocity=54 time=0
note_on channel=0 note=51 velocity=0 time=120
note_on channel=0 note=87 velocity=0 time=0
note_on channel=0 note=78 velocity=81 time=0
note_on channel=0 note=42 velocity=63 time=0
note_on channel=0 note=42 velocity=0 time=0
note_on channel=0 note=78 velocity=0 time=0
note_on channel=0 note=90 velocity=71 time=0
note_on channel=0 note=54 velocity=56 time=0
note_on channel=0 note=54 velocity=0 time=0
note_on channel=0 note=90 velocity=0 time=0
note_on channel=0 note=77 velocity=78 time=0
note_on channel=0 note=41 velocity=60 time=0
note_on channel=0 note=41 velocity=0 time=35
note_on channel=0 note=77 velocity=0 time=0
note_on channel=0 note=89 velocity=72 time=0
note_on channel=0 note=53 velocity=56 time=0
note_on channel=0 note=53 velocity=0 time=120
note_on channel=0 note=89 velocity=0 time=0
note_on channel=0 note=72 velocity=80 time=0
note_on channel=0 note=36 velocity=62 time=0
note_on channel=0 note=36 velocity=0 time=120
note_on channel=0 note=72 velocity=0 time=0
note_on channel=0 note=84 velocity=71 time=0
note_on channel=0 note=48 velocity=55 time=0
note_on channel=0 note=48 velocity=0 time=120
note_on channel=0 note=84 velocity=0 time=0
note_on channel=0 note=75 velocity=78 time=0
note_on channel=0 note=39 velocity=62 time=0
note_on channel=0 note=39 velocity=0 time=111
note_on channel=0 note=75 velocity=0 time=0
note_on channel=0 note=87 velocity=70 time=0
note_on channel=0 note=51 velocity=52 time=0
note_on channel=0 note=51 velocity=0 time=120
note_on channel=0 note=87 velocity=0 time=0
note_on channel=0 note=78 velocity=78 time=0
note_on channel=0 note=42 velocity=61 time=0
note_on channel=0 note=42 velocity=0 time=0
note_on channel=0 note=78 velocity=0 time=0
note_on channel=0 note=90 velocity=69 time=0
note_on channel=0 note=54 velocity=54 time=0
note_on channel=0 note=54 velocity=0 time=0
note_on channel=0 note=90 velocity=0 time=0
note_on channel=0 note=73 velocity=75 time=0
note_on channel=0 note=37 velocity=58 time=0
note_on channel=0 note=37 velocity=0 time=35
note_on channel=0 note=73 velocity=0 time=0
note_on channel=0 note=85 velocity=70 time=0
note_on channel=0 note=49 velocity=54 time=0
note_on channel=0 note=49 velocity=0 time=120
note_on channel=0 note=85 velocity=0 time=0
note_on channel=0 note=69 velocity=77 time=0
note_on channel=0 note=33 velocity=60 time=0
note_on channel=0 note=33 velocity=0 time=120
note_on channel=0 note=69 velocity=0 time=0
note_on channel=0 note=81 velocity=68 time=0
note_on channel=0 note=45 velocity=53 time=0
note_on channel=0 note=45 velocity=0 time=120
note_on channel=0 note=81 velocity=0 time=0
note_on channel=0 note=72 velocity=75 time=0
note_on channel=0 note=36 velocity=60 time=0
note_on channel=0 note=36 velocity=0 time=111
note_on channel=0 note=72 velocity=0 time=0
note_on channel=0 note=84 velocity=68 time=0
note_on channel=0 note=48 velocity=50 time=0
note_on channel=0 note=48 velocity=0 time=120
note_on channel=0 note=84 velocity=0 time=0
note_on channel=0 note=75 velocity=75 time=0
note_on channel=0 note=39 velocity=59 time=0
note_on channel=0 note=39 velocity=0 time=0
note_on channel=0 note=75 velocity=0 time=0
note_on channel=0 note=87 velocity=67 time=0
note_on channel=0 note=51 velocity=52 time=0
note_on channel=0 note=51 velocity=0 time=0
note_on channel=0 note=87 velocity=0 time=0
note_on channel=0 note=66 velocity=73 time=0
note_on channel=0 note=30 velocity=56 time=0
note_on channel=0 note=30 velocity=0 time=35
note_on channel=0 note=66 velocity=0 time=0
note_on channel=0 note=78 velocity=68 time=0
note_on channel=0 note=42 velocity=52 time=0
note_on channel=0 note=42 velocity=0 time=120
note_on channel=0 note=78 velocity=0 time=0
note_on channel=0 note=65 velocity=75 time=0
note_on channel=0 note=29 velocity=58 time=0
note_on channel=0 note=29 velocity=0 time=120
note_on channel=0 note=65 velocity=0 time=0
note_on channel=0 note=77 velocity=66 time=0
note_on channel=0 note=41 velocity=51 time=0
note_on channel=0 note=41 velocity=0 time=120
note_on channel=0 note=77 velocity=0 time=0
note_on channel=0 note=69 velocity=72 time=0
note_on channel=0 note=33 velocity=58 time=0
note_on channel=0 note=33 velocity=0 time=111
note_on channel=0 note=69 velocity=0 time=0
note_on channel=0 note=81 velocity=66 time=0
note_on channel=0 note=45 velocity=49 time=0
note_on channel=0 note=45 velocity=0 time=120
note_on channel=0 note=81 velocity=0 time=0
note_on channel=0 note=75 velocity=72 time=0
note_on channel=0 note=39 velocity=57 time=0
note_on channel=0 note=39 velocity=0 time=0
note_on channel=0 note=75 velocity=0 time=0
note_on channel=0 note=87 velocity=64 time=0
note_on channel=0 note=51 velocity=51 time=0
note_on channel=0 note=51 velocity=0 time=0
note_on channel=0 note=87 velocity=0 time=0
note_on channel=0 note=71 velocity=40 time=0
note_on channel=0 note=74 velocity=58 time=0
note_on channel=0 note=34 velocity=37 time=0
note_on channel=0 note=46 velocity=44 time=0
note_on channel=0 note=71 velocity=0 time=120
note_on channel=0 note=70 velocity=34 time=0
note_on channel=0 note=70 velocity=0 time=0
note_on channel=0 note=71 velocity=40 time=0
note_on channel=0 note=71 velocity=0 time=120
note_on channel=0 note=70 velocity=35 time=0
note_on channel=0 note=70 velocity=0 time=120
note_on channel=0 note=46 velocity=0 time=0
note_on channel=0 note=34 velocity=0 time=0
note_on channel=0 note=71 velocity=40 time=0
note_on channel=0 note=44 velocity=32 time=0
note_on channel=0 note=56 velocity=38 time=0
note_on channel=0 note=71 velocity=0 time=120
note_on channel=0 note=70 velocity=35 time=0
note_on channel=0 note=70 velocity=0 time=120
note_on channel=0 note=71 velocity=40 time=0
note_on channel=0 note=71 velocity=0 time=120
note_on channel=0 note=70 velocity=36 time=0
note_on channel=0 note=70 velocity=0 time=0
note_on channel=0 note=56 velocity=0 time=0
note_on channel=0 note=44 velocity=0 time=0
note_on channel=0 note=74 velocity=0 time=0
note_on channel=0 note=71 velocity=40 time=0
note_on channel=0 note=75 velocity=48 time=0
note_on channel=0 note=42 velocity=33 time=0
note_on channel=0 note=54 velocity=39 time=0
note_on channel=0 note=71 velocity=0 time=34
note_on channel=0 note=70 velocity=34 time=0
note_on channel=0 note=70 velocity=0 time=120
note_on channel=0 note=71 velocity=40 time=0
note_on channel=0 note=71 velocity=0 time=120
note_on channel=0 note=70 velocity=35 time=0
note_on channel=0 note=70 velocity=0 time=0
note_on channel=0 note=54 velocity=0 time=0
note_on channel=0 note=42 velocity=0 time=0
note_on channel=0 note=75 velocity=0 time=0
note_on channel=0 note=78 velocity=51 time=0
note_on channel=0 note=71 velocity=40 time=0
note_on channel=0 note=39 velocity=24 time=0
note_on channel=0 note=51 velocity=29 time=0
note_on channel=0 note=71 velocity=0 time=23
note_on channel=0 note=70 velocity=35 time=0
note_on channel=0 note=70 velocity=0 time=0
note_on channel=0 note=71 velocity=40 time=0
note_on channel=0 note=71 velocity=0 time=120
note_on channel=0 note=70 velocity=36 time=0
note_on channel=0 note=70 velocity=0 time=0
note_on channel=0 note=51 velocity=0 time=0
note_on channel=0 note=39 velocity=0 time=0
note_on channel=0 note=78 velocity=0 time=0
note_on channel=0 note=82 velocity=60 time=0
note_on channel=0 note=71 velocity=40 time=0
note_on channel=0 note=38 velocity=34 time=0
note_on channel=0 note=50 velocity=40 time=0
note_on channel=0 note=71 velocity=0 time=108
note_on channel=0 note=70 velocity=34 time=0
note_on channel=0 note=70 velocity=0 time=106
note_on channel=0 note=71 velocity=40 time=0
note_on channel=0 note=71 velocity=0 time=120
note_on channel=0 note=70 velocity=35 time=0
note_on channel=0 note=70 velocity=0 time=120
note_on channel=0 note=50 velocity=0 time=0
note_on channel=0 note=38 velocity=0 time=0
note_on channel=0 note=71 velocity=40 time=0
note_on channel=0 note=34 velocity=26 time=0
note_on channel=0 note=46 velocity=31 time=0
note_on channel=0 note=71 velocity=0 time=35
note_on channel=0 note=70 velocity=35 time=0
note_on channel=0 note=70 velocity=0 time=0
note_on channel=0 note=71 velocity=40 time=0
note_on channel=0 note=71 velocity=0 time=120
note_on channel=0 note=70 velocity=36 time=0
note_on channel=0 note=70 velocity=0 time=0
note_on channel=0 note=46 velocity=0 time=0
note_on channel=0 note=34 velocity=0 time=0
note_on channel=0 note=82 velocity=0 time=0
note_on channel=0 note=71 velocity=40 time=0
note_on channel=0 note=78 velocity=62 time=0
note_on channel=0 note=39 velocity=34 time=0
note_on channel=0 note=51 velocity=40 time=0
note_on channel=0 note=71 velocity=0 time=108
note_on channel=0 note=70 velocity=34 time=0
note_on channel=0 note=70 velocity=0 time=106
note_on channel=0 note=71 velocity=40 time=0
note_on channel=0 note=71 velocity=0 time=120
note_on channel=0 note=70 velocity=35 time=0
note_on channel=0 note=70 velocity=0 time=120
note_on channel=0 note=51 velocity=0 time=0
note_on channel=0 note=39 velocity=0 time=0
note_on channel=0 note=78 velocity=0 time=0
note_on channel=0 note=71 velocity=40 time=0
note_on channel=0 note=75 velocity=51 time=0
note_on channel=0 note=54 velocity=30 time=0
note_on channel=0 note=58 velocity=37 time=0
note_on channel=0 note=71 velocity=0 time=120
note_on channel=0 note=70 velocity=35 time=0
note_on channel=0 note=70 velocity=0 time=0
note_on channel=0 note=58 velocity=0 time=0
note_on channel=0 note=54 velocity=0 time=0
note_on channel=0 note=70 velocity=40 time=0
note_on channel=0 note=55 velocity=30 time=0
note_on channel=0 note=58 velocity=39 time=0
note_on channel=0 note=58 velocity=0 time=40
note_on channel=0 note=70 velocity=0 time=0
note_on channel=0 note=72 velocity=36 time=0
note_on channel=0 note=60 velocity=39 time=0
note_on channel=0 note=60 velocity=0 time=0
note_on channel=0 note=75 velocity=0 time=0
note_on channel=0 note=55 velocity=0 time=0
note_on channel=0 note=72 velocity=0 time=0
note_on channel=0 note=74 velocity=52 time=0
note_on channel=0 note=70 velocity=39 time=0
note_on channel=0 note=53 velocity=46 time=0
note_on channel=0 note=58 velocity=31 time=0
note_on channel=0 note=58 velocity=0 time=7
note_on channel=0 note=70 velocity=0 time=0
note_on channel=0 note=72 velocity=33 time=0
note_on channel=0 note=60 velocity=26 time=0
note_on channel=0 note=60 velocity=0 time=10
note_on channel=0 note=72 velocity=0 time=0
note_on channel=0 note=70 velocity=39 time=0
note_on channel=0 note=58 velocity=31 time=0
note_on channel=0 note=53 velocity=0 time=12
note_on channel=0 note=55 velocity=40 time=0
note_on channel=0 note=72 velocity=35 time=1
note_on channel=0 note=60 velocity=27 time=0
note_on channel=0 note=58 velocity=0 time=1
note_on channel=0 note=70 velocity=0 time=0
note_on channel=0 note=72 velocity=0 time=18
note_on channel=0 note=60 velocity=0 time=0
note_on channel=0 note=70 velocity=39 time=0
note_on channel=0 note=58 velocity=31 time=0
note_on channel=0 note=58 velocity=0 time=2
note_on channel=0 note=70 velocity=0 time=0
note_on channel=0 note=72 velocity=35 time=0
note_on channel=0 note=60 velocity=27 time=0
note_on channel=0 note=55 velocity=0 time=3
note_on channel=0 note=70 velocity=40 time=0
note_on channel=0 note=56 velocity=46 time=0
note_on channel=0 note=58 velocity=32 time=0
note_on channel=0 note=60 velocity=0 time=3
note_on channel=0 note=72 velocity=0 time=0
note_on channel=0 note=70 velocity=0 time=26
note_on channel=0 note=58 velocity=0 time=0
note_on channel=0 note=72 velocity=35 time=0
note_on channel=0 note=60 velocity=27 time=0
note_on channel=0 note=60 velocity=0 time=80
note_on channel=0 note=72 velocity=0 time=0
note_on channel=0 note=70 velocity=40 time=0
note_on channel=0 note=58 velocity=32 time=0
note_on channel=0 note=56 velocity=0 time=79
note_on channel=0 note=53 velocity=40 time=0
note_on channel=0 note=72 velocity=36 time=1
note_on channel=0 note=60 velocity=28 time=0
note_on channel=0 note=58 velocity=0 time=1
note_on channel=0 note=70 velocity=0 time=0
note_on channel=0 note=72 velocity=0 time=80
note_on channel=0 note=60 velocity=0 time=0
note_on channel=0 note=70 velocity=40 time=0
note_on channel=0 note=58 velocity=32 time=0
note_on channel=0 note=58 velocity=0 time=80
note_on channel=0 note=70 velocity=0 time=0
note_on channel=0 note=72 velocity=36 time=0
note_on channel=0 note=60 velocity=28 time=0
note_on channel=0 note=74 velocity=0 time=22
note_on channel=0 note=53 velocity=0 time=0
note_on channel=0 note=75 velocity=60 time=0
note_on channel=0 note=70 velocity=40 time=0
note_on channel=0 note=58 velocity=32 time=0
note_on channel=0 note=55 velocity=46 time=0
note_on channel=0 note=72 velocity=0 time=3
note_on channel=0 note=60 velocity=0 time=0
note_on channel=0 note=58 velocity=0 time=28
note_on channel=0 note=70 velocity=0 time=0
note_on channel=0 note=72 velocity=35 time=0
note_on channel=0 note=60 velocity=27 time=0
note_on channel=0 note=60 velocity=0 time=80
note_on channel=0 note=72 velocity=0 time=0
note_on channel=0 note=70 velocity=41 time=0
note_on channel=0 note=58 velocity=32 time=0
note_on channel=0 note=55 velocity=0 time=70
note_on channel=0 note=56 velocity=40 time=0
note_on channel=0 note=72 velocity=37 time=1
note_on channel=0 note=60 velocity=29 time=0
note_on channel=0 note=58 velocity=0 time=1
note_on channel=0 note=70 velocity=0 time=0
note_on channel=0 note=72 velocity=0 time=80
note_on channel=0 note=60 velocity=0 time=0
note_on channel=0 note=70 velocity=41 time=0
note_on channel=0 note=58 velocity=32 time=0
note_on channel=0 note=58 velocity=0 time=2
note_on channel=0 note=70 velocity=0 time=0
note_on channel=0 note=72 velocity=37 time=0
note_on channel=0 note=60 velocity=29 time=0
note_on channel=0 note=56 velocity=0 time=22
note_on channel=0 note=70 velocity=42 time=0
note_on channel=0 note=55 velocity=46 time=0
note_on channel=0 note=58 velocity=33 time=0
note_on channel=0 note=60 velocity=0 time=3
note_on channel=0 note=72 velocity=0 time=0
note_on channel=0 note=70 velocity=0 time=45
note_on channel=0 note=58 velocity=0 time=0
note_on channel=0 note=72 velocity=37 time=0
note_on channel=0 note=60 velocity=29 time=0
note_on channel=0 note=60 velocity=0 time=49
note_on channel=0 note=72 velocity=0 time=0
note_on channel=0 note=70 velocity=43 time=0
note_on channel=0 note=58 velocity=34 time=0
note_on channel=0 note=75 velocity=0 time=12
note_on channel=0 note=55 velocity=0 time=0
note_on channel=0 note=79 velocity=65 time=0
note_on channel=0 note=51 velocity=40 time=0
note_on channel=0 note=72 velocity=38 time=1
note_on channel=0 note=60 velocity=30 time=0
note_on channel=0 note=70 velocity=0 time=1
note_on channel=0 note=58 velocity=0 time=0
note_on channel=0 note=72 velocity=0 time=2
note_on channel=0 note=60 velocity=0 time=0
note_on channel=0 note=70 velocity=43 time=0
note_on channel=0 note=58 velocity=34 time=0
note_on channel=0 note=58 velocity=0 time=80
note_on channel=0 note=70 velocity=0 time=0
note_on channel=0 note=72 velocity=38 time=0
note_on channel=0 note=60 velocity=30 time=0
note_on channel=0 note=51 velocity=0 time=3
note_on channel=0 note=79 velocity=0 time=0
note_on channel=0 note=82 velocity=74 time=0
note_on channel=0 note=70 velocity=44 time=0
note_on channel=0 note=58 velocity=35 time=0
note_on channel=0 note=50 velocity=46 time=0
note_on channel=0 note=72 velocity=0 time=3
note_on channel=0 note=60 velocity=0 time=0
note_on channel=0 note=58 velocity=0 time=24
note_on channel=0 note=70 velocity=0 time=0
note_on channel=0 note=72 velocity=37 time=0
note_on channel=0 note=60 velocity=29 time=0
note_on channel=0 note=60 velocity=0 time=49
note_on channel=0 note=72 velocity=0 time=0
note_on channel=0 note=70 velocity=44 time=0
note_on channel=0 note=58 velocity=35 time=0
note_on channel=0 note=50 velocity=0 time=32
note_on channel=0 note=51 velocity=40 time=0
note_on channel=0 note=72 velocity=40 time=1
note_on channel=0 note=60 velocity=32 time=0
note_on channel=0 note=58 velocity=0 time=1
note_on channel=0 note=70 velocity=0 time=0
note_on channel=0 note=72 velocity=0 time=18
note_on channel=0 note=60 velocity=0 time=0
note_on channel=0 note=70 velocity=45 time=0
note_on channel=0 note=58 velocity=35 time=0
note_on channel=0 note=58 velocity=0 time=2
note_on channel=0 note=70 velocity=0 time=0
note_on channel=0 note=72 velocity=40 time=0
note_on channel=0 note=60 velocity=32 time=0
note_on channel=0 note=51 velocity=0 time=78
note_on channel=0 note=70 velocity=45 time=0
note_on channel=0 note=53 velocity=46 time=0
note_on channel=0 note=58 velocity=35 time=0
note_on channel=0 note=60 velocity=0 time=3
note_on channel=0 note=72 velocity=0 time=0
note_on channel=0 note=70 velocity=0 time=26
note_on channel=0 note=58 velocity=0 time=0
note_on channel=0 note=72 velocity=40 time=0
note_on channel=0 note=60 velocity=32 time=0
note_on channel=0 note=60 velocity=0 time=29
note_on channel=0 note=72 velocity=0 time=0
note_on channel=0 note=70 velocity=45 time=0
note_on channel=0 note=58 velocity=36 time=0
note_on channel=0 note=82 velocity=0 time=32
note_on channel=0 note=53 velocity=0 time=0
note_on channel=0 note=80 velocity=65 time=0
note_on channel=0 note=50 velocity=40 time=0
note_on channel=0 note=72 velocity=40 time=1
note_on channel=0 note=60 velocity=32 time=0
note_on channel=0 note=70 velocity=0 time=1
note_on channel=0 note=58 velocity=0 time=0
note_on channel=0 note=72 velocity=0 time=2
note_on channel=0 note=60 velocity=0 time=0
note_on channel=0 note=70 velocity=45 time=0
note_on channel=0 note=58 velocity=36 time=0
note_on channel=0 note=58 velocity=0 time=80
note_on channel=0 note=70 velocity=0 time=0
note_on channel=0 note=72 velocity=40 time=0
note_on channel=0 note=60 velocity=32 time=0
note_on channel=0 note=50 velocity=0 time=22
note_on channel=0 note=80 velocity=0 time=0
note_on channel=0 note=70 velocity=46 time=0
note_on channel=0 note=79 velocity=64 time=0
note_on channel=0 note=51 velocity=46 time=0
note_on channel=0 note=58 velocity=36 time=0
note_on channel=0 note=72 velocity=0 time=3
note_on channel=0 note=60 velocity=0 time=0
note_on channel=0 note=70 velocity=0 time=35
note_on channel=0 note=58 velocity=0 time=0
note_on channel=0 note=72 velocity=40 time=0
note_on channel=0 note=60 velocity=32 time=0
note_on channel=0 note=60 velocity=0 time=68
note_on channel=0 note=72 velocity=0 time=0
note_on channel=0 note=70 velocity=47 time=0
note_on channel=0 note=58 velocity=37 time=0
note_on channel=0 note=79 velocity=0 time=51
note_on channel=0 note=51 velocity=0 time=0
note_on channel=0 note=77 velocity=64 time=0
note_on channel=0 note=53 velocity=40 time=0
note_on channel=0 note=72 velocity=42 time=1
note_on channel=0 note=60 velocity=33 time=0
note_on channel=0 note=70 velocity=0 time=1
note_on channel=0 note=58 velocity=0 time=0
note_on channel=0 note=72 velocity=0 time=37
note_on channel=0 note=60 velocity=0 time=0
note_on channel=0 note=70 velocity=47 time=0
note_on channel=0 note=58 velocity=37 time=0
note_on channel=0 note=58 velocity=0 time=59
note_on channel=0 note=70 velocity=0 time=0
note_on channel=0 note=72 velocity=42 time=0
note_on channel=0 note=60 velocity=33 time=0
note_on channel=0 note=53 velocity=0 time=41
note_on channel=0 note=77 velocity=0 time=0
note_on channel=0 note=70 velocity=48 time=0
note_on channel=0 note=75 velocity=69 time=0
note_on channel=0 note=55 velocity=46 time=0
note_on channel=0 note=58 velocity=38 time=0
note_on channel=0 note=72 velocity=0 time=3
note_on channel=0 note=60 velocity=0 time=0
note_on channel=0 note=70 velocity=0 time=45
note_on channel=0 note=58 velocity=0 time=0
note_on channel=0 note=72 velocity=41 time=0
note_on channel=0 note=60 velocity=32 time=0
note_on channel=0 note=60 velocity=0 time=29
note_on channel=0 note=72 velocity=0 time=0
note_on channel=0 note=70 velocity=48 time=0
note_on channel=0 note=58 velocity=38 time=0
note_on channel=0 note=75 velocity=0 time=32
note_on channel=0 note=55 velocity=0 time=0
note_on channel=0 note=74 velocity=69 time=0
note_on channel=0 note=56 velocity=40 time=0
note_on channel=0 note=72 velocity=44 time=1
note_on channel=0 note=60 velocity=35 time=0
note_on channel=0 note=70 velocity=0 time=1
note_on channel=0 note=58 velocity=0 time=0
note_on channel=0 note=72 velocity=0 time=2
note_on channel=0 note=60 velocity=0 time=0
note_on channel=0 note=70 velocity=48 time=0
note_on channel=0 note=58 velocity=38 time=0
note_on channel=0 note=58 velocity=0 time=80
note_on channel=0 note=70 velocity=0 time=0
note_on channel=0 note=72 velocity=43 time=0
note_on channel=0 note=60 velocity=34 time=0
note_on channel=0 note=56 velocity=0 time=0
note_on channel=0 note=74 velocity=0 time=0
note_on channel=0 note=75 velocity=66 time=0
note_on channel=0 note=70 velocity=43 time=0
note_on channel=0 note=55 velocity=40 time=0
note_on channel=0 note=58 velocity=34 time=0
note_on channel=0 note=72 velocity=0 time=3
note_on channel=0 note=60 velocity=0 time=0
note_on channel=0 note=70 velocity=0 time=17
note_on channel=0 note=58 velocity=0 time=0
note_on channel=0 note=72 velocity=37 time=0
note_on channel=0 note=60 velocity=29 time=0
note_on channel=0 note=60 velocity=0 time=80
note_on channel=0 note=72 velocity=0 time=0
note_on channel=0 note=70 velocity=44 time=0
note_on channel=0 note=58 velocity=34 time=0
note_on channel=0 note=72 velocity=39 time=13
note_on channel=0 note=60 velocity=30 time=0
note_on channel=0 note=58 velocity=0 time=1
note_on channel=0 note=70 velocity=0 time=0
note_on channel=0 note=72 velocity=0 time=80
note_on channel=0 note=60 velocity=0 time=0
note_on channel=0 note=70 velocity=42 time=0
note_on channel=0 note=58 velocity=33 time=0
note_on channel=0 note=58 velocity=0 time=80
note_on channel=0 note=70 velocity=0 time=0
note_on channel=0 note=72 velocity=38 time=0
note_on channel=0 note=60 velocity=29 time=0
note_on channel=0 note=70 velocity=43 time=60
note_on channel=0 note=58 velocity=34 time=0
note_on channel=0 note=60 velocity=0 time=3
note_on channel=0 note=72 velocity=0 time=0
note_on channel=0 note=70 velocity=0 time=45
note_on channel=0 note=58 velocity=0 time=0
note_on channel=0 note=72 velocity=36 time=0
note_on channel=0 note=60 velocity=29 time=0
note_on channel=0 note=60 velocity=0 time=68
note_on channel=0 note=72 velocity=0 time=0
note_on channel=0 note=70 velocity=42 time=0
note_on channel=0 note=58 velocity=33 time=0
note_on channel=0 note=75 velocity=0 time=12
note_on channel=0 note=55 velocity=0 time=0
note_on channel=0 note=74 velocity=63 time=0
note_on channel=0 note=56 velocity=31 time=0
note_on channel=0 note=72 velocity=37 time=1
note_on channel=0 note=60 velocity=29 time=0
note_on channel=0 note=70 velocity=0 time=1
note_on channel=0 note=58 velocity=0 time=0
note_on channel=0 note=72 velocity=0 time=2
note_on channel=0 note=60 velocity=0 time=0
note_on channel=0 note=70 velocity=41 time=0
note_on channel=0 note=58 velocity=32 time=0
note_on channel=0 note=58 velocity=0 time=80
note_on channel=0 note=70 velocity=0 time=0
note_on channel=0 note=72 velocity=36 time=0
note_on channel=0 note=60 velocity=27 time=0
note_on channel=0 note=56 velocity=0 time=0
note_on channel=0 note=74 velocity=0 time=0
note_on channel=0 note=77 velocity=60 time=0
note_on channel=0 note=70 velocity=39 time=0
note_on channel=0 note=55 velocity=37 time=0
note_on channel=0 note=58 velocity=30 time=0
note_on channel=0 note=72 velocity=0 time=3
note_on channel=0 note=60 velocity=0 time=0
note_on channel=0 note=70 velocity=0 time=17
note_on channel=0 note=58 velocity=0 time=0
note_on channel=0 note=72 velocity=33 time=0
note_on channel=0 note=60 velocity=26 time=0
note_on channel=0 note=60 velocity=0 time=80
note_on channel=0 note=72 velocity=0 time=0
note_on channel=0 note=70 velocity=38 time=0
note_on channel=0 note=58 velocity=30 time=0
note_on channel=0 note=77 velocity=0 time=12
note_on channel=0 note=75 velocity=57 time=0
note_on channel=0 note=72 velocity=34 time=1
note_on channel=0 note=60 velocity=27 time=0
note_on channel=0 note=58 velocity=0 time=1
note_on channel=0 note=70 velocity=0 time=0
note_on channel=0 note=72 velocity=0 time=80
note_on channel=0 note=60 velocity=0 time=0
note_on channel=0 note=70 velocity=37 time=0
note_on channel=0 note=58 velocity=29 time=0
note_on channel=0 note=58 velocity=0 time=80
note_on channel=0 note=70 velocity=0 time=0
note_on channel=0 note=72 velocity=33 time=0
note_on channel=0 note=60 velocity=26 time=0
note_on channel=0 note=70 velocity=37 time=60
note_on channel=0 note=58 velocity=30 time=0
note_on channel=0 note=60 velocity=0 time=3
note_on channel=0 note=72 velocity=0 time=0
note_on channel=0 note=70 velocity=0 time=45
note_on channel=0 note=58 velocity=0 time=0
note_on channel=0 note=72 velocity=32 time=0
note_on channel=0 note=60 velocity=26 time=0
note_on channel=0 note=60 velocity=0 time=68
note_on channel=0 note=72 velocity=0 time=0
note_on channel=0 note=70 velocity=37 time=0
note_on channel=0 note=58 velocity=29 time=0
note_on channel=0 note=75 velocity=0 time=12
note_on channel=0 note=55 velocity=0 time=0
note_on channel=0 note=74 velocity=55 time=0
note_on channel=0 note=53 velocity=27 time=0
note_on channel=0 note=72 velocity=32 time=1
note_on channel=0 note=60 velocity=25 time=0
note_on channel=0 note=70 velocity=0 time=1
note_on channel=0 note=58 velocity=0 time=0
note_on channel=0 note=72 velocity=0 time=2
note_on channel=0 note=60 velocity=0 time=0
note_on channel=0 note=70 velocity=36 time=0
note_on channel=0 note=58 velocity=28 time=0
note_on channel=0 note=58 velocity=0 time=80
note_on channel=0 note=70 velocity=0 time=0
note_on channel=0 note=72 velocity=31 time=0
note_on channel=0 note=60 velocity=24 time=0
note_on channel=0 note=53 velocity=0 time=24
note_on channel=0 note=74 velocity=0 time=0
note_on channel=0 note=70 velocity=50 time=0
note_on channel=0 note=74 velocity=39 time=0
note_on channel=0 note=53 velocity=30 time=0
note_on channel=0 note=62 velocity=36 time=0
note_on channel=0 note=72 velocity=0 time=3
note_on channel=0 note=60 velocity=0 time=0
note_on channel=0 note=58 velocity=30 time=4
note_on channel=0 note=74 velocity=0 time=8
note_on channel=0 note=75 velocity=33 time=0
note_on channel=0 note=74 velocity=38 time=40
note_on channel=0 note=75 velocity=0 time=0
note_on channel=0 note=74 velocity=0 time=40
note_on channel=0 note=75 velocity=34 time=0
note_on channel=0 note=74 velocity=37 time=55
note_on channel=0 note=75 velocity=0 time=1
note_on channel=0 note=74 velocity=0 time=11
note_on channel=0 note=75 velocity=33 time=0
note_on channel=0 note=74 velocity=37 time=9
note_on channel=0 note=75 velocity=0 time=2
note_on channel=0 note=74 velocity=0 time=25
note_on channel=0 note=75 velocity=32 time=0
note_on channel=0 note=74 velocity=37 time=10
note_on channel=0 note=75 velocity=0 time=0
note_on channel=0 note=74 velocity=0 time=25
note_on channel=0 note=75 velocity=32 time=0
note_on channel=0 note=74 velocity=36 time=40
note_on channel=0 note=75 velocity=0 time=1
note_on channel=0 note=74 velocity=0 time=60
note_on channel=0 note=75 velocity=31 time=0
note_on channel=0 note=74 velocity=37 time=9
note_on channel=0 note=75 velocity=0 time=2
note_on channel=0 note=74 velocity=0 time=9
note_on channel=0 note=75 velocity=32 time=7
note_on channel=0 note=74 velocity=36 time=9
note_on channel=0 note=75 velocity=0 time=7
note_on channel=0 note=72 velocity=32 time=14
note_on channel=0 note=74 velocity=0 time=10
note_on channel=0 note=72 velocity=0 time=12
note_on channel=0 note=70 velocity=0 time=0
note_on channel=0 note=53 velocity=0 time=0
note_on channel=0 note=62 velocity=0 time=0
note_on channel=0 note=74 velocity=41 time=0
note_on channel=0 note=58 velocity=0 time=7
note_on channel=0 note=75 velocity=37 time=53
note_on channel=0 note=74 velocity=0 time=12
note_on channel=0 note=74 velocity=41 time=0
note_on channel=0 note=70 velocity=36 time=0
note_on channel=0 note=75 velocity=0 time=12
note_on channel=0 note=72 velocity=37 time=108
note_on channel=0 note=69 velocity=33 time=0
note_on channel=0 note=70 velocity=0 time=12
note_on channel=0 note=74 velocity=0 time=0
note_on channel=0 note=70 velocity=42 time=108
note_on channel=0 note=67 velocity=37 time=0
note_on channel=0 note=72 velocity=0 time=12
note_on channel=0 note=69 velocity=0 time=0
note_on channel=0 note=69 velocity=37 time=108
note_on channel=0 note=65 velocity=33 time=0
note_on channel=0 note=70 velocity=0 time=12
note_on channel=0 note=67 velocity=0 time=0
note_on channel=0 note=70 velocity=40 time=108
note_on channel=0 note=67 velocity=36 time=0
note_on channel=0 note=69 velocity=0 time=12
note_on channel=0 note=65 velocity=0 time=0
note_on channel=0 note=72 velocity=37 time=108
note_on channel=0 note=69 velocity=33 time=0
note_on channel=0 note=70 velocity=0 time=12
note_on channel=0 note=67 velocity=0 time=0
note_on channel=0 note=74 velocity=41 time=58
note_on channel=0 note=70 velocity=36 time=0
note_on channel=0 note=72 velocity=0 time=12
note_on channel=0 note=69 velocity=0 time=0
note_on channel=0 note=75 velocity=42 time=28
note_on channel=0 note=72 velocity=37 time=0
note_on channel=0 note=74 velocity=0 time=12
note_on channel=0 note=70 velocity=0 time=0
note_on channel=0 note=77 velocity=43 time=108
note_on channel=0 note=74 velocity=38 time=0
note_on channel=0 note=75 velocity=0 time=10
note_on channel=0 note=72 velocity=0 time=0
note_on channel=0 note=79 velocity=44 time=108
note_on channel=0 note=75 velocity=39 time=0
note_on channel=0 note=77 velocity=0 time=12
note_on channel=0 note=74 velocity=0 time=0
note_on channel=0 note=81 velocity=45 time=88
note_on channel=0 note=77 velocity=40 time=0
note_on channel=0 note=79 velocity=0 time=12
note_on channel=0 note=75 velocity=0 time=0
note_on channel=0 note=82 velocity=46 time=73
note_on channel=0 note=79 velocity=41 time=0
note_on channel=0 note=81 velocity=0 time=12
note_on channel=0 note=77 velocity=0 time=0
note_on channel=0 note=84 velocity=47 time=43
note_on channel=0 note=81 velocity=42 time=0
note_on channel=0 note=82 velocity=0 time=12
note_on channel=0 note=79 velocity=0 time=0
note_on channel=0 note=86 velocity=48 time=13
note_on channel=0 note=82 velocity=43 time=0
note_on channel=0 note=84 velocity=0 time=12
note_on channel=0 note=81 velocity=0 time=0
note_on channel=0 note=87 velocity=49 time=108
note_on channel=0 note=86 velocity=0 time=10
note_on channel=0 note=82 velocity=0 time=0
note_on channel=0 note=89 velocity=46 time=103
note_on channel=0 note=41 velocity=33 time=0
note_on channel=0 note=87 velocity=0 time=12
note_on channel=0 note=87 velocity=48 time=108
note_on channel=0 note=43 velocity=33 time=0
note_on channel=0 note=41 velocity=0 time=12
note_on channel=0 note=89 velocity=0 time=0
note_on channel=0 note=86 velocity=47 time=13
note_on channel=0 note=45 velocity=32 time=0
note_on channel=0 note=87 velocity=0 time=12
note_on channel=0 note=43 velocity=0 time=0
note_on channel=0 note=84 velocity=46 time=108
note_on channel=0 note=46 velocity=32 time=0
note_on channel=0 note=86 velocity=0 time=12
note_on channel=0 note=45 velocity=0 time=0
note_on channel=0 note=82 velocity=45 time=108
note_on channel=0 note=48 velocity=31 time=0
note_on channel=0 note=84 velocity=0 time=12
note_on channel=0 note=46 velocity=0 time=0
note_on channel=0 note=81 velocity=44 time=58
note_on channel=0 note=50 velocity=31 time=0
note_on channel=0 note=82 velocity=0 time=12
note_on channel=0 note=48 velocity=0 time=0
note_on channel=0 note=79 velocity=43 time=108
note_on channel=0 note=51 velocity=30 time=0
note_on channel=0 note=81 velocity=0 time=12
note_on channel=0 note=50 velocity=0 time=0
note_on channel=0 note=77 velocity=42 time=108
note_on channel=0 note=53 velocity=30 time=0
note_on channel=0 note=79 velocity=0 time=12
note_on channel=0 note=51 velocity=0 time=0
note_on channel=0 note=75 velocity=41 time=103
note_on channel=0 note=55 velocity=30 time=0
note_on channel=0 note=77 velocity=0 time=12
note_on channel=0 note=53 velocity=0 time=0
note_on channel=0 note=74 velocity=40 time=108
note_on channel=0 note=57 velocity=29 time=0
note_on channel=0 note=75 velocity=0 time=12
note_on channel=0 note=55 velocity=0 time=0
note_on channel=0 note=72 velocity=39 time=108
note_on channel=0 note=58 velocity=29 time=0
note_on channel=0 note=74 velocity=0 time=12
note_on channel=0 note=57 velocity=0 time=0
note_on channel=0 note=70 velocity=38 time=13
note_on channel=0 note=60 velocity=28 time=0
note_on channel=0 note=72 velocity=0 time=12
note_on channel=0 note=58 velocity=0 time=0
note_on channel=0 note=69 velocity=37 time=28
note_on channel=0 note=62 velocity=28 time=0
note_on channel=0 note=70 velocity=0 time=12
note_on channel=0 note=60 velocity=0 time=0
note_on channel=0 note=67 velocity=35 time=43
note_on channel=0 note=63 velocity=27 time=0
note_on channel=0 note=69 velocity=0 time=12
note_on channel=0 note=62 velocity=0 time=0
note_on channel=0 note=65 velocity=34 time=0
note_on channel=0 note=62 velocity=27 time=0
note_on channel=0 note=67 velocity=0 time=12
note_on channel=0 note=63 velocity=0 time=0
note_on channel=0 note=65 velocity=0 time=0
note_on channel=0 note=62 velocity=0 time=0
note_on channel=0 note=74 velocity=37 time=0
note_on channel=0 note=65 velocity=31 time=0
note_on channel=0 note=62 velocity=32 time=0
note_on channel=0 note=58 velocity=27 time=0
note_on channel=0 note=58 velocity=0 time=231
note_on channel=0 note=62 velocity=0 time=0
note_on channel=0 note=65 velocity=0 time=0
note_on channel=0 note=74 velocity=0 time=0
note_on channel=0 note=65 velocity=25 time=0
note_on channel=0 note=74 velocity=30 time=0
note_on channel=0 note=62 velocity=26 time=0
note_on channel=0 note=58 velocity=22 time=0
note_on channel=0 note=58 velocity=0 time=119
note_on channel=0 note=65 velocity=0 time=0
note_on channel=0 note=74 velocity=0 time=0
note_on channel=0 note=62 velocity=0 time=0
note_on channel=0 note=74 velocity=39 time=1
note_on channel=0 note=65 velocity=33 time=0
note_on channel=0 note=62 velocity=32 time=0
note_on channel=0 note=58 velocity=27 time=0
note_on channel=0 note=58 velocity=0 time=0
note_on channel=0 note=74 velocity=0 time=0
note_on channel=0 note=65 velocity=0 time=0
note_on channel=0 note=62 velocity=0 time=0
note_on channel=0 note=62 velocity=71 time=120
note_on channel=0 note=65 velocity=71 time=0
note_on channel=0 note=67 velocity=85 time=0
note_on channel=0 note=35 velocity=62 time=0
note_on channel=0 note=47 velocity=74 time=0
note_on channel=0 note=47 velocity=0 time=0
note_on channel=0 note=67 velocity=0 time=0
note_on channel=0 note=62 velocity=0 time=0
note_on channel=0 note=65 velocity=0 time=0
note_on channel=0 note=35 velocity=0 time=0
note_on channel=0 note=63 velocity=88 time=0
note_on channel=0 note=75 velocity=105 time=0
note_on channel=0 note=67 velocity=88 time=0
note_on channel=0 note=48 velocity=92 time=0
note_on channel=0 note=36 velocity=77 time=0
note_on channel=0 note=67 velocity=0 time=279
note_on channel=0 note=63 velocity=0 time=0
note_on channel=0 note=75 velocity=0 time=0
note_on channel=0 note=48 velocity=0 time=0
note_on channel=0 note=36 velocity=0 time=0
note_on channel=0 note=63 velocity=59 time=0
note_on channel=0 note=67 velocity=59 time=0
note_on channel=0 note=75 velocity=72 time=0
note_on channel=0 note=48 velocity=62 time=0
note_on channel=0 note=36 velocity=52 time=0
note_on channel=0 note=36 velocity=0 time=119
note_on channel=0 note=75 velocity=0 time=0
note_on channel=0 note=63 velocity=0 time=0
note_on channel=0 note=67 velocity=0 time=0
note_on channel=0 note=48 velocity=0 time=0
note_on channel=0 note=75 velocity=94 time=1
note_on channel=0 note=67 velocity=79 time=0
note_on channel=0 note=63 velocity=79 time=0
note_on channel=0 note=48 velocity=78 time=0
note_on channel=0 note=36 velocity=63 time=0
note_on channel=0 note=36 velocity=0 time=84
note_on channel=0 note=63 velocity=0 time=0
note_on channel=0 note=75 velocity=0 time=0
note_on channel=0 note=67 velocity=0 time=0
note_on channel=0 note=48 velocity=0 time=0
note_on channel=0 note=67 velocity=30 time=0
note_on channel=0 note=65 velocity=25 time=0
note_on channel=0 note=59 velocity=22 time=0
note_on channel=0 note=62 velocity=26 time=0
note_on channel=0 note=62 velocity=0 time=0
note_on channel=0 note=67 velocity=0 time=0
note_on channel=0 note=65 velocity=0 time=0
note_on channel=0 note=59 velocity=0 time=0
note_on channel=0 note=67 velocity=31 time=0
note_on channel=0 note=75 velocity=37 time=0
note_on channel=0 note=63 velocity=32 time=0
note_on channel=0 note=60 velocity=27 time=0
note_on channel=0 note=60 velocity=0 time=237
note_on channel=0 note=67 velocity=0 time=0
note_on channel=0 note=75 velocity=0 time=0
note_on channel=0 note=63 velocity=0 time=0
note_on channel=0 note=75 velocity=30 time=0
note_on channel=0 note=67 velocity=25 time=0
note_on channel=0 note=63 velocity=26 time=0
note_on channel=0 note=60 velocity=22 time=0
note_on channel=0 note=60 velocity=0 time=119
note_on channel=0 note=75 velocity=0 time=0
note_on channel=0 note=67 velocity=0 time=0
note_on channel=0 note=63 velocity=0 time=0
note_on channel=0 note=75 velocity=39 time=1
note_on channel=0 note=67 velocity=33 time=0
note_on channel=0 note=63 velocity=32 time=0
note_on channel=0 note=60 velocity=27 time=0
note_on channel=0 note=60 velocity=0 time=0
note_on channel=0 note=75 velocity=0 time=0
note_on channel=0 note=67 velocity=0 time=0
note_on channel=0 note=63 velocity=0 time=0
note_on channel=0 note=64 velocity=71 time=120
note_on channel=0 note=67 velocity=71 time=0
note_on channel=0 note=69 velocity=85 time=0
note_on channel=0 note=37 velocity=62 time=0
note_on channel=0 note=49 velocity=74 time=0
note_on channel=0 note=49 velocity=0 time=0
note_on channel=0 note=69 velocity=0 time=0
note_on channel=0 note=64 velocity=0 time=0
note_on channel=0 note=67 velocity=0 time=0
note_on channel=0 note=37 velocity=0 time=0
note_on channel=0 note=65 velocity=88 time=0
note_on channel=0 note=77 velocity=105 time=0
note_on channel=0 note=69 velocity=88 time=0
note_on channel=0 note=50 velocity=92 time=0
note_on channel=0 note=38 velocity=77 time=0
note_on channel=0 note=38 velocity=0 time=279
note_on channel=0 note=69 velocity=0 time=0
note_on channel=0 note=65 velocity=0 time=0
note_on channel=0 note=77 velocity=0 time=0
note_on channel=0 note=50 velocity=0 time=0
note_on channel=0 note=77 velocity=72 time=0
note_on channel=0 note=69 velocity=59 time=0
note_on channel=0 note=65 velocity=59 time=0
note_on channel=0 note=50 velocity=62 time=0
note_on channel=0 note=38 velocity=52 time=0
note_on channel=0 note=38 velocity=0 time=119
note_on channel=0 note=65 velocity=0 time=0
note_on channel=0 note=77 velocity=0 time=0
note_on channel=0 note=69 velocity=0 time=0
note_on channel=0 note=50 velocity=0 time=0
note_on channel=0 note=69 velocity=79 time=1
note_on channel=0 note=77 velocity=94 time=0
note_on channel=0 note=65 velocity=79 time=0
note_on channel=0 note=50 velocity=78 time=0
note_on channel=0 note=38 velocity=63 time=0
note_on channel=0 note=38 velocity=0 time=84
note_on channel=0 note=65 velocity=0 time=0
note_on channel=0 note=69 velocity=0 time=0
note_on channel=0 note=77 velocity=0 time=0
note_on channel=0 note=50 velocity=0 time=0
note_on channel=0 note=67 velocity=25 time=0
note_on channel=0 note=69 velocity=30 time=0
note_on channel=0 note=61 velocity=22 time=0
note_on channel=0 note=64 velocity=26 time=0
note_on channel=0 note=64 velocity=0 time=0
note_on channel=0 note=67 velocity=0 time=0
note_on channel=0 note=69 velocity=0 time=0
note_on channel=0 note=61 velocity=0 time=0
note_on channel=0 note=77 velocity=37 time=0
note_on channel=0 note=69 velocity=31 time=0
note_on channel=0 note=65 velocity=32 time=0
note_on channel=0 note=62 velocity=27 time=0
note_on channel=0 note=62 velocity=0 time=237
note_on channel=0 note=77 velocity=0 time=0
note_on channel=0 note=69 velocity=0 time=0
note_on channel=0 note=65 velocity=0 time=0
note_on channel=0 note=69 velocity=25 time=0
note_on channel=0 note=77 velocity=30 time=0
note_on channel=0 note=65 velocity=26 time=0
note_on channel=0 note=62 velocity=22 time=0
note_on channel=0 note=62 velocity=0 time=119
note_on channel=0 note=69 velocity=0 time=0
note_on channel=0 note=77 velocity=0 time=0
note_on channel=0 note=65 velocity=0 time=0
note_on channel=0 note=77 velocity=39 time=1
note_on channel=0 note=69 velocity=33 time=0
note_on channel=0 note=65 velocity=32 time=0
note_on channel=0 note=62 velocity=27 time=0
note_on channel=0 note=62 velocity=0 time=0
note_on channel=0 note=77 velocity=0 time=0
note_on channel=0 note=69 velocity=0 time=0
note_on channel=0 note=65 velocity=0 time=0
note_on channel=0 note=65 velocity=65 time=120
note_on channel=0 note=68 velocity=65 time=0
note_on channel=0 note=70 velocity=78 time=0
note_on channel=0 note=38 velocity=57 time=0
note_on channel=0 note=50 velocity=68 time=0
note_on channel=0 note=50 velocity=0 time=0
note_on channel=0 note=70 velocity=0 time=0
note_on channel=0 note=65 velocity=0 time=0
note_on channel=0 note=68 velocity=0 time=0
note_on channel=0 note=38 velocity=0 time=0
note_on channel=0 note=67 velocity=80 time=0
note_on channel=0 note=70 velocity=80 time=0
note_on channel=0 note=79 velocity=96 time=0
note_on channel=0 note=51 velocity=84 time=0
note_on channel=0 note=39 velocity=70 time=0
note_on channel=0 note=39 velocity=0 time=279
note_on channel=0 note=79 velocity=0 time=0
note_on channel=0 note=67 velocity=0 time=0
note_on channel=0 note=70 velocity=0 time=0
note_on channel=0 note=51 velocity=0 time=0
note_on channel=0 note=67 velocity=54 time=0
note_on channel=0 note=79 velocity=66 time=0
note_on channel=0 note=70 velocity=54 time=0
note_on channel=0 note=51 velocity=57 time=0
note_on channel=0 note=39 velocity=48 time=0
note_on channel=0 note=39 velocity=0 time=119
note_on channel=0 note=70 velocity=0 time=0
note_on channel=0 note=67 velocity=0 time=0
note_on channel=0 note=79 velocity=0 time=0
note_on channel=0 note=51 velocity=0 time=0
note_on channel=0 note=79 velocity=86 time=1
note_on channel=0 note=70 velocity=72 time=0
note_on channel=0 note=67 velocity=72 time=0
note_on channel=0 note=51 velocity=71 time=0
note_on channel=0 note=39 velocity=58 time=0
note_on channel=0 note=39 velocity=0 time=240
note_on channel=0 note=67 velocity=0 time=0
note_on channel=0 note=79 velocity=0 time=0
note_on channel=0 note=70 velocity=0 time=0
note_on channel=0 note=51 velocity=0 time=0
note_on channel=0 note=67 velocity=74 time=0
note_on channel=0 note=75 velocity=90 time=0
note_on channel=0 note=39 velocity=66 time=0
note_on channel=0 note=51 velocity=77 time=0
note_on channel=0 note=51 velocity=0 time=0
note_on channel=0 note=67 velocity=0 time=0
note_on channel=0 note=75 velocity=0 time=0
note_on channel=0 note=39 velocity=0 time=0
note_on channel=0 note=69 velocity=92 time=0
note_on channel=0 note=72 velocity=92 time=0
note_on channel=0 note=81 velocity=110 time=0
note_on channel=0 note=75 velocity=92 time=0
note_on channel=0 note=41 velocity=96 time=0
note_on channel=0 note=29 velocity=80 time=0
note_on channel=0 note=29 velocity=0 time=279
note_on channel=0 note=72 velocity=0 time=0
note_on channel=0 note=81 velocity=0 time=0
note_on channel=0 note=69 velocity=0 time=0
note_on channel=0 note=41 velocity=0 time=0
note_on channel=0 note=75 velocity=0 time=0
note_on channel=0 note=69 velocity=67 time=0
note_on channel=0 note=72 velocity=67 time=0
note_on channel=0 note=75 velocity=67 time=0
note_on channel=0 note=81 velocity=82 time=0
note_on channel=0 note=41 velocity=72 time=0
note_on channel=0 note=29 velocity=59 time=0
note_on channel=0 note=29 velocity=0 time=119
note_on channel=0 note=72 velocity=0 time=0
note_on channel=0 note=75 velocity=0 time=0
note_on channel=0 note=69 velocity=0 time=0
note_on channel=0 note=41 velocity=0 time=0
note_on channel=0 note=81 velocity=0 time=0
note_on channel=0 note=81 velocity=108 time=1
note_on channel=0 note=72 velocity=90 time=0
note_on channel=0 note=69 velocity=90 time=0
note_on channel=0 note=75 velocity=90 time=0
note_on channel=0 note=41 velocity=89 time=0
note_on channel=0 note=29 velocity=73 time=0
note_on channel=0 note=29 velocity=0 time=240
note_on channel=0 note=72 velocity=0 time=0
note_on channel=0 note=69 velocity=0 time=0
note_on channel=0 note=81 velocity=0 time=0
note_on channel=0 note=41 velocity=0 time=0
note_on channel=0 note=75 velocity=0 time=0
note_on channel=0 note=30 velocity=33 time=0
note_on channel=0 note=29 velocity=29 time=120
note_on channel=0 note=30 velocity=0 time=12
note_on channel=0 note=30 velocity=33 time=108
note_on channel=0 note=29 velocity=0 time=12
note_on channel=0 note=29 velocity=29 time=108
note_on channel=0 note=30 velocity=0 time=12
note_on channel=0 note=30 velocity=33 time=108
note_on channel=0 note=29 velocity=0 time=12
note_on channel=0 note=86 velocity=57 time=0
note_on channel=0 note=82 velocity=47 time=0
note_on channel=0 note=77 velocity=47 time=0
note_on channel=0 note=74 velocity=47 time=0
note_on channel=0 note=29 velocity=29 time=0
note_on channel=0 note=30 velocity=0 time=12
note_on channel=0 note=74 velocity=0 time=108
note_on channel=0 note=77 velocity=0 time=0
note_on channel=0 note=86 velocity=0 time=0
note_on channel=0 note=82 velocity=0 time=0
note_on channel=0 note=82 velocity=42 time=0
note_on channel=0 note=74 velocity=42 time=0
note_on channel=0 note=86 velocity=51 time=0
note_on channel=0 note=77 velocity=42 time=0
note_on channel=0 note=33 velocity=33 time=0
note_on channel=0 note=29 velocity=0 time=12
note_on channel=0 note=34 velocity=28 time=108
note_on channel=0 note=33 velocity=0 time=12
note_on channel=0 note=77 velocity=0 time=48
note_on channel=0 note=86 velocity=0 time=0
note_on channel=0 note=82 velocity=0 time=0
note_on channel=0 note=74 velocity=0 time=0
note_on channel=0 note=77 velocity=45 time=60
note_on channel=0 note=82 velocity=45 time=0
note_on channel=0 note=74 velocity=45 time=0
note_on channel=0 note=87 velocity=55 time=0
note_on channel=0 note=33 velocity=35 time=0
note_on channel=0 note=34 velocity=0 time=12
note_on channel=0 note=87 velocity=0 time=48
note_on channel=0 note=74 velocity=0 time=0
note_on channel=0 note=77 velocity=0 time=0
note_on channel=0 note=82 velocity=0 time=0
note_on channel=0 note=82 velocity=47 time=0
note_on channel=0 note=86 velocity=55 time=0
note_on channel=0 note=77 velocity=47 time=0
note_on channel=0 note=74 velocity=47 time=0
note_on channel=0 note=34 velocity=30 time=0
note_on channel=0 note=33 velocity=0 time=12
note_on channel=0 note=74 velocity=0 time=48
note_on channel=0 note=77 velocity=0 time=0
note_on channel=0 note=82 velocity=0 time=0
note_on channel=0 note=86 velocity=0 time=0
note_on channel=0 note=86 velocity=62 time=0
note_on channel=0 note=77 velocity=51 time=0
note_on channel=0 note=74 velocity=51 time=0
note_on channel=0 note=82 velocity=51 time=0
note_on channel=0 note=30 velocity=36 time=0
note_on channel=0 note=34 velocity=0 time=12
note_on channel=0 note=82 velocity=0 time=48
note_on channel=0 note=74 velocity=0 time=0
note_on channel=0 note=86 velocity=0 time=0
note_on channel=0 note=77 velocity=0 time=0
note_on channel=0 note=29 velocity=32 time=60
note_on channel=0 note=30 velocity=0 time=12
note_on channel=0 note=74 velocity=49 time=108
note_on channel=0 note=70 velocity=49 time=0
note_on channel=0 note=77 velocity=49 time=0
note_on channel=0 note=82 velocity=59 time=0
note_on channel=0 note=30 velocity=38 time=0
note_on channel=0 note=29 velocity=0 time=12
note_on channel=0 note=82 velocity=0 time=48
note_on channel=0 note=77 velocity=0 time=0
note_on channel=0 note=74 velocity=0 time=0
note_on channel=0 note=70 velocity=0 time=0
note_on channel=0 note=29 velocity=43 time=0
note_on channel=0 note=30 velocity=0 time=12
note_on channel=0 note=65 velocity=76 time=0
note_on channel=0 note=70 velocity=76 time=0
note_on channel=0 note=62 velocity=76 time=0
note_on channel=0 note=74 velocity=92 time=0
note_on channel=0 note=34 velocity=63 time=0
note_on channel=0 note=42 velocity=63 time=0
note_on channel=0 note=29 velocity=0 time=12
note_on channel=0 note=74 velocity=0 time=48
note_on channel=0 note=65 velocity=0 time=0
note_on channel=0 note=62 velocity=0 time=0
note_on channel=0 note=70 velocity=0 time=0
note_on channel=0 note=42 velocity=0 time=60
note_on channel=0 note=41 velocity=53 time=0
note_on channel=0 note=41 velocity=0 time=120
note_on channel=0 note=62 velocity=70 time=0
note_on channel=0 note=65 velocity=70 time=0
note_on channel=0 note=58 velocity=70 time=0
note_on channel=0 note=70 velocity=84 time=0
note_on channel=0 note=42 velocity=61 time=0
note_on channel=0 note=70 velocity=0 time=60
note_on channel=0 note=58 velocity=0 time=0
note_on channel=0 note=65 velocity=0 time=0
note_on channel=0 note=62 velocity=0 time=0
note_on channel=0 note=42 velocity=0 time=0
note_on channel=0 note=41 velocity=55 time=0
note_on channel=0 note=41 velocity=0 time=0
note_on channel=0 note=34 velocity=0 time=0
note_on channel=0 note=77 velocity=42 time=0
note_on channel=0 note=86 velocity=42 time=0
note_on channel=0 note=82 velocity=42 time=0
note_on channel=0 note=89 velocity=51 time=0
note_on channel=0 note=30 velocity=42 time=0
note_on channel=0 note=29 velocity=29 time=120
note_on channel=0 note=30 velocity=0 time=12
note_on channel=0 note=30 velocity=33 time=108
note_on channel=0 note=29 velocity=0 time=12
note_on channel=0 note=89 velocity=0 time=105
note_on channel=0 note=82 velocity=0 time=0
note_on channel=0 note=77 velocity=0 time=0
note_on channel=0 note=86 velocity=0 time=0
note_on channel=0 note=86 velocity=47 time=0
note_on channel=0 note=77 velocity=47 time=0
note_on channel=0 note=89 velocity=57 time=0
note_on channel=0 note=82 velocity=47 time=0
note_on channel=0 note=29 velocity=29 time=0
note_on channel=0 note=30 velocity=0 time=12
note_on channel=0 note=82 velocity=0 time=108
note_on channel=0 note=89 velocity=0 time=0
note_on channel=0 note=86 velocity=0 time=0
note_on channel=0 note=77 velocity=0 time=0
note_on channel=0 note=82 velocity=42 time=0
note_on channel=0 note=77 velocity=42 time=0
note_on channel=0 note=86 velocity=42 time=0
note_on channel=0 note=89 velocity=51 time=0
note_on channel=0 note=33 velocity=33 time=0
note_on channel=0 note=29 velocity=0 time=12
note_on channel=0 note=34 velocity=28 time=108
note_on channel=0 note=33 velocity=0 time=12
note_on channel=0 note=89 velocity=0 time=48
note_on channel=0 note=86 velocity=0 time=0
note_on channel=0 note=82 velocity=0 time=0
note_on channel=0 note=77 velocity=0 time=0
note_on channel=0 note=91 velocity=55 time=60
note_on channel=0 note=86 velocity=45 time=0
note_on channel=0 note=77 velocity=45 time=0
note_on channel=0 note=82 velocity=45 time=0
note_on channel=0 note=33 velocity=35 time=0
note_on channel=0 note=34 velocity=0 time=12
note_on channel=0 note=82 velocity=0 time=48
note_on channel=0 note=77 velocity=0 time=0
note_on channel=0 note=91 velocity=0 time=0
note_on channel=0 note=86 velocity=0 time=0
note_on channel=0 note=77 velocity=47 time=0
note_on channel=0 note=89 velocity=55 time=0
note_on channel=0 note=82 velocity=47 time=0
note_on channel=0 note=86 velocity=47 time=0
note_on channel=0 note=34 velocity=30 time=0
note_on channel=0 note=33 velocity=0 time=12
note_on channel=0 note=86 velocity=0 time=48
note_on channel=0 note=82 velocity=0 time=0
note_on channel=0 note=77 velocity=0 time=0
note_on channel=0 note=89 velocity=0 time=0
note_on channel=0 note=89 velocity=62 time=0
note_on channel=0 note=82 velocity=51 time=0
note_on channel=0 note=77 velocity=51 time=0
note_on channel=0 note=86 velocity=51 time=0
note_on channel=0 note=30 velocity=36 time=0
note_on channel=0 note=34 velocity=0 time=12
note_on channel=0 note=86 velocity=0 time=48
note_on channel=0 note=77 velocity=0 time=0
note_on channel=0 note=89 velocity=0 time=0
note_on channel=0 note=82 velocity=0 time=0
note_on channel=0 note=29 velocity=32 time=60
note_on channel=0 note=30 velocity=0 time=12
note_on channel=0 note=77 velocity=49 time=108
note_on channel=0 note=74 velocity=49 time=0
note_on channel=0 note=82 velocity=49 time=0
note_on channel=0 note=86 velocity=59 time=0
note_on channel=0 note=30 velocity=38 time=0
note_on channel=0 note=29 velocity=0 time=12
note_on channel=0 note=86 velocity=0 time=48
note_on channel=0 note=82 velocity=0 time=0
note_on channel=0 note=77 velocity=0 time=0
note_on channel=0 note=74 velocity=0 time=0
note_on channel=0 note=29 velocity=34 time=0
note_on channel=0 note=30 velocity=0 time=12
note_on channel=0 note=77 velocity=92 time=0
note_on channel=0 note=70 velocity=76 time=0
note_on channel=0 note=65 velocity=76 time=0
note_on channel=0 note=74 velocity=76 time=0
note_on channel=0 note=34 velocity=63 time=0
note_on channel=0 note=42 velocity=63 time=0
note_on channel=0 note=29 velocity=0 time=12
note_on channel=0 note=74 velocity=0 time=48
note_on channel=0 note=77 velocity=0 time=0
note_on channel=0 note=65 velocity=0 time=0
note_on channel=0 note=70 velocity=0 time=0
note_on channel=0 note=42 velocity=0 time=60
note_on channel=0 note=41 velocity=53 time=0
note_on channel=0 note=41 velocity=0 time=120
note_on channel=0 note=74 velocity=84 time=0
note_on channel=0 note=65 velocity=70 time=0
note_on channel=0 note=62 velocity=70 time=0
note_on channel=0 note=70 velocity=70 time=0
note_on channel=0 note=42 velocity=61 time=0
note_on channel=0 note=70 velocity=0 time=60
note_on channel=0 note=62 velocity=0 time=0
note_on channel=0 note=65 velocity=0 time=0
note_on channel=0 note=74 velocity=0 time=0
note_on channel=0 note=42 velocity=0 time=0
note_on channel=0 note=41 velocity=55 time=0
note_on channel=0 note=41 velocity=0 time=0
note_on channel=0 note=34 velocity=0 time=0
note_on channel=0 note=89 velocity=55 time=0
note_on channel=0 note=86 velocity=45 time=0
note_on channel=0 note=30 velocity=36 time=0
note_on channel=0 note=86 velocity=0 time=60
note_on channel=0 note=89 velocity=0 time=0
note_on channel=0 note=29 velocity=32 time=60
note_on channel=0 note=30 velocity=0 time=12
note_on channel=0 note=86 velocity=53 time=108
note_on channel=0 note=82 velocity=44 time=0
note_on channel=0 note=30 velocity=38 time=0
note_on channel=0 note=29 velocity=0 time=12
note_on channel=0 note=86 velocity=0 time=48
note_on channel=0 note=82 velocity=0 time=0
note_on channel=0 note=29 velocity=34 time=0
note_on channel=0 note=30 velocity=0 time=12
note_on channel=0 note=77 velocity=90 time=0
note_on channel=0 note=74 velocity=74 time=0
note_on channel=0 note=34 velocity=50 time=0
note_on channel=0 note=42 velocity=50 time=0
note_on channel=0 note=29 velocity=0 time=12
note_on channel=0 note=77 velocity=0 time=48
note_on channel=0 note=74 velocity=0 time=0
note_on channel=0 note=42 velocity=0 time=60
note_on channel=0 note=41 velocity=53 time=0
note_on channel=0 note=41 velocity=0 time=120
note_on channel=0 note=74 velocity=75 time=0
note_on channel=0 note=70 velocity=63 time=0
note_on channel=0 note=42 velocity=61 time=0
note_on channel=0 note=70 velocity=0 time=60
note_on channel=0 note=74 velocity=0 time=0
note_on channel=0 note=42 velocity=0 time=0
note_on channel=0 note=41 velocity=55 time=0
note_on channel=0 note=41 velocity=0 time=0
note_on channel=0 note=34 velocity=0 time=0
note_on channel=0 note=86 velocity=55 time=0
note_on channel=0 note=82 velocity=45 time=0
note_on channel=0 note=30 velocity=36 time=0
note_on channel=0 note=82 velocity=0 time=60
note_on channel=0 note=86 velocity=0 time=0
note_on channel=0 note=29 velocity=32 time=60
note_on channel=0 note=30 velocity=0 time=12
note_on channel=0 note=82 velocity=53 time=108
note_on channel=0 note=77 velocity=44 time=0
note_on channel=0 note=30 velocity=38 time=0
note_on channel=0 note=29 velocity=0 time=12
note_on channel=0 note=82 velocity=0 time=48
note_on channel=0 note=77 velocity=0 time=0
note_on channel=0 note=29 velocity=34 time=0
note_on channel=0 note=30 velocity=0 time=12
note_on channel=0 note=74 velocity=90 time=0
note_on channel=0 note=70 velocity=74 time=0
note_on channel=0 note=34 velocity=63 time=0
note_on channel=0 note=42 velocity=63 time=0
note_on channel=0 note=29 velocity=0 time=12
note_on channel=0 note=74 velocity=0 time=48
note_on channel=0 note=70 velocity=0 time=0
note_on channel=0 note=42 velocity=0 time=60
note_on channel=0 note=41 velocity=53 time=0
note_on channel=0 note=41 velocity=0 time=120
note_on channel=0 note=70 velocity=75 time=0
note_on channel=0 note=65 velocity=63 time=0
note_on channel=0 note=42 velocity=61 time=0
note_on channel=0 note=65 velocity=0 time=60
note_on channel=0 note=70 velocity=0 time=0
note_on channel=0 note=42 velocity=0 time=0
note_on channel=0 note=41 velocity=55 time=0
note_on channel=0 note=41 velocity=0 time=0
note_on channel=0 note=34 velocity=0 time=0
note_on channel=0 note=82 velocity=55 time=0
note_on channel=0 note=77 velocity=45 time=0
note_on channel=0 note=30 velocity=46 time=0
note_on channel=0 note=77 velocity=0 time=60
note_on channel=0 note=82 velocity=0 time=0
note_on channel=0 note=29 velocity=32 time=60
note_on channel=0 note=30 velocity=0 time=12
note_on channel=0 note=77 velocity=53 time=108
note_on channel=0 note=74 velocity=44 time=0
note_on channel=0 note=30 velocity=38 time=0
note_on channel=0 note=29 velocity=0 time=12
note_on channel=0 note=77 velocity=0 time=48
note_on channel=0 note=74 velocity=0 time=0
note_on channel=0 note=29 velocity=34 time=0
note_on channel=0 note=30 velocity=0 time=12
note_on channel=0 note=70 velocity=90 time=0
note_on channel=0 note=65 velocity=74 time=0
note_on channel=0 note=34 velocity=63 time=0
note_on channel=0 note=42 velocity=63 time=0
note_on channel=0 note=29 velocity=0 time=12
note_on channel=0 note=70 velocity=0 time=48
note_on channel=0 note=65 velocity=0 time=0
note_on channel=0 note=42 velocity=0 time=60
note_on channel=0 note=41 velocity=53 time=0
note_on channel=0 note=41 velocity=0 time=120
note_on channel=0 note=62 velocity=63 time=0
note_on channel=0 note=65 velocity=75 time=0
note_on channel=0 note=42 velocity=61 time=0
note_on channel=0 note=65 velocity=0 time=60
note_on channel=0 note=62 velocity=0 time=0
note_on channel=0 note=42 velocity=0 time=0
note_on channel=0 note=41 velocity=55 time=0
note_on channel=0 note=41 velocity=0 time=0
note_on channel=0 note=34 velocity=0 time=0
note_on channel=0 note=69 velocity=42 time=0
note_on channel=0 note=75 velocity=52 time=0
note_on channel=0 note=46 velocity=35 time=0
note_on channel=0 note=54 velocity=39 time=0
note_on channel=0 note=53 velocity=34 time=120
note_on channel=0 note=54 velocity=0 time=12
note_on channel=0 note=54 velocity=40 time=108
note_on channel=0 note=53 velocity=0 time=12
note_on channel=0 note=53 velocity=36 time=0
note_on channel=0 note=54 velocity=0 time=12
note_on channel=0 note=46 velocity=0 time=0
note_on channel=0 note=54 velocity=39 time=0
note_on channel=0 note=53 velocity=0 time=12
note_on channel=0 note=53 velocity=34 time=108
note_on channel=0 note=54 velocity=0 time=12
note_on channel=0 note=54 velocity=40 time=108
note_on channel=0 note=53 velocity=0 time=12
note_on channel=0 note=53 velocity=36 time=0
note_on channel=0 note=54 velocity=0 time=12
note_on channel=0 note=69 velocity=0 time=0
note_on channel=0 note=75 velocity=0 time=0
note_on channel=0 note=74 velocity=45 time=0
note_on channel=0 note=77 velocity=55 time=0
note_on channel=0 note=53 velocity=0 time=12
note_on channel=0 note=77 velocity=0 time=48
note_on channel=0 note=74 velocity=0 time=0
note_on channel=0 note=70 velocity=44 time=180
note_on channel=0 note=74 velocity=53 time=0
note_on channel=0 note=30 velocity=48 time=0
note_on channel=0 note=74 velocity=0 time=60
note_on channel=0 note=70 velocity=0 time=0
note_on channel=0 note=30 velocity=0 time=0
note_on channel=0 note=29 velocity=43 time=0
note_on channel=0 note=29 velocity=0 time=0
note_on channel=0 note=62 velocity=61 time=0
note_on channel=0 note=65 velocity=75 time=0
note_on channel=0 note=34 velocity=60 time=0
note_on channel=0 note=42 velocity=60 time=0
note_on channel=0 note=65 velocity=0 time=60
note_on channel=0 note=62 velocity=0 time=0
note_on channel=0 note=42 velocity=0 time=60
note_on channel=0 note=41 velocity=51 time=0
note_on channel=0 note=41 velocity=0 time=120
note_on channel=0 note=58 velocity=57 time=0
note_on channel=0 note=62 velocity=68 time=0
note_on channel=0 note=42 velocity=59 time=0
note_on channel=0 note=62 velocity=0 time=60
note_on channel=0 note=58 velocity=0 time=0
note_on channel=0 note=42 velocity=0 time=0
note_on channel=0 note=41 velocity=53 time=0
note_on channel=0 note=41 velocity=0 time=0
note_on channel=0 note=34 velocity=0 time=0
note_on channel=0 note=70 velocity=51 time=0
note_on channel=0 note=74 velocity=62 time=0
note_on channel=0 note=30 velocity=46 time=0
note_on channel=0 note=74 velocity=0 time=60
note_on channel=0 note=70 velocity=0 time=0
note_on channel=0 note=29 velocity=41 time=60
note_on channel=0 note=30 velocity=0 time=12
note_on channel=0 note=65 velocity=49 time=108
note_on channel=0 note=70 velocity=59 time=0
note_on channel=0 note=30 velocity=48 time=0
note_on channel=0 note=29 velocity=0 time=12
note_on channel=0 note=65 velocity=0 time=48
note_on channel=0 note=70 velocity=0 time=0
note_on channel=0 note=29 velocity=43 time=0
note_on channel=0 note=30 velocity=0 time=12
note_on channel=0 note=62 velocity=79 time=0
note_on channel=0 note=58 velocity=65 time=0
note_on channel=0 note=34 velocity=60 time=0
note_on channel=0 note=42 velocity=60 time=0
note_on channel=0 note=29 velocity=0 time=12
note_on channel=0 note=62 velocity=0 time=48
note_on channel=0 note=58 velocity=0 time=0
note_on channel=0 note=42 velocity=0 time=60
note_on channel=0 note=41 velocity=51 time=0
note_on channel=0 note=41 velocity=0 time=120
note_on channel=0 note=58 velocity=72 time=0
note_on channel=0 note=53 velocity=60 time=0
note_on channel=0 note=42 velocity=59 time=0
note_on channel=0 note=53 velocity=0 time=60
note_on channel=0 note=58 velocity=0 time=0
note_on channel=0 note=42 velocity=0 time=0
note_on channel=0 note=41 velocity=53 time=0
note_on channel=0 note=41 velocity=0 time=0
note_on channel=0 note=34 velocity=0 time=0
note_on channel=0 note=65 velocity=51 time=0
note_on channel=0 note=70 velocity=62 time=0
note_on channel=0 note=30 velocity=46 time=0
note_on channel=0 note=70 velocity=0 time=60
note_on channel=0 note=65 velocity=0 time=0
note_on channel=0 note=29 velocity=41 time=60
note_on channel=0 note=30 velocity=0 time=12
note_on channel=0 note=62 velocity=49 time=108
note_on channel=0 note=65 velocity=59 time=0
note_on channel=0 note=30 velocity=48 time=0
note_on channel=0 note=29 velocity=0 time=12
note_on channel=0 note=62 velocity=0 time=48
note_on channel=0 note=65 velocity=0 time=0
note_on channel=0 note=29 velocity=43 time=0
note_on channel=0 note=30 velocity=0 time=12
note_on channel=0 note=53 velocity=65 time=0
note_on channel=0 note=58 velocity=79 time=0
note_on channel=0 note=34 velocity=60 time=0
note_on channel=0 note=42 velocity=60 time=0
note_on channel=0 note=29 velocity=0 time=12
note_on channel=0 note=53 velocity=0 time=48
note_on channel=0 note=58 velocity=0 time=0
note_on channel=0 note=42 velocity=0 time=60
note_on channel=0 note=41 velocity=51 time=0
note_on channel=0 note=41 velocity=0 time=120
note_on channel=0 note=50 velocity=60 time=0
note_on channel=0 note=53 velocity=72 time=0
note_on channel=0 note=42 velocity=59 time=0
note_on channel=0 note=53 velocity=0 time=60
note_on channel=0 note=50 velocity=0 time=0
note_on channel=0 note=42 velocity=0 time=0
note_on channel=0 note=41 velocity=53 time=0
note_on channel=0 note=41 velocity=0 time=0
note_on channel=0 note=34 velocity=0 time=0
note_on channel=0 note=57 velocity=42 time=0
note_on channel=0 note=63 velocity=52 time=0
note_on channel=0 note=34 velocity=35 time=0
note_on channel=0 note=42 velocity=39 time=0
note_on channel=0 note=41 velocity=34 time=120
note_on channel=0 note=42 velocity=0 time=12
note_on channel=0 note=42 velocity=40 time=108
note_on channel=0 note=41 velocity=0 time=12
note_on channel=0 note=41 velocity=36 time=0
note_on channel=0 note=42 velocity=0 time=12
note_on channel=0 note=42 velocity=39 time=0
note_on channel=0 note=41 velocity=0 time=12
note_on channel=0 note=41 velocity=34 time=108
note_on channel=0 note=42 velocity=0 time=12
note_on channel=0 note=42 velocity=40 time=108
note_on channel=0 note=41 velocity=0 time=12
note_on channel=0 note=41 velocity=36 time=0
note_on channel=0 note=42 velocity=0 time=12
note_on channel=0 note=34 velocity=0 time=0
note_on channel=0 note=57 velocity=0 time=0
note_on channel=0 note=63 velocity=0 time=0
note_on channel=0 note=41 velocity=0 time=0
note_on channel=0 note=45 velocity=39 time=0
note_on channel=0 note=46 velocity=34 time=120
note_on channel=0 note=45 velocity=0 time=12
note_on channel=0 note=45 velocity=40 time=108
note_on channel=0 note=46 velocity=0 time=12
note_on channel=0 note=57 velocity=42 time=0
note_on channel=0 note=66 velocity=51 time=0
note_on channel=0 note=63 velocity=42 time=0
note_on channel=0 note=46 velocity=36 time=0
note_on channel=0 note=45 velocity=0 time=12
note_on channel=0 note=63 velocity=0 time=48
note_on channel=0 note=57 velocity=0 time=0
note_on channel=0 note=66 velocity=0 time=0
note_on channel=0 note=66 velocity=45 time=60
note_on channel=0 note=63 velocity=37 time=0
note_on channel=0 note=57 velocity=37 time=0
note_on channel=0 note=45 velocity=39 time=0
note_on channel=0 note=46 velocity=0 time=12
note_on channel=0 note=57 velocity=0 time=48
note_on channel=0 note=66 velocity=0 time=0
note_on channel=0 note=63 velocity=0 time=0
note_on channel=0 note=46 velocity=34 time=60
note_on channel=0 note=45 velocity=0 time=12
note_on channel=0 note=58 velocity=40 time=108
note_on channel=0 note=65 velocity=49 time=0
note_on channel=0 note=62 velocity=40 time=0
note_on channel=0 note=45 velocity=40 time=0
note_on channel=0 note=46 velocity=0 time=12
note_on channel=0 note=62 velocity=0 time=48
note_on channel=0 note=58 velocity=0 time=0
note_on channel=0 note=65 velocity=0 time=0
note_on channel=0 note=46 velocity=36 time=0
note_on channel=0 note=45 velocity=0 time=12
note_on channel=0 note=46 velocity=0 time=0
note_on channel=0 note=34 velocity=35 time=0
note_on channel=0 note=42 velocity=39 time=0
note_on channel=0 note=41 velocity=34 time=120
note_on channel=0 note=42 velocity=0 time=12
note_on channel=0 note=42 velocity=39 time=108
note_on channel=0 note=41 velocity=0 time=12
note_on channel=0 note=54 velocity=41 time=0
note_on channel=0 note=60 velocity=41 time=0
note_on channel=0 note=57 velocity=41 time=0
note_on channel=0 note=63 velocity=49 time=0
note_on channel=0 note=41 velocity=35 time=0
note_on channel=0 note=42 velocity=0 time=12
note_on channel=0 note=57 velocity=0 time=48
note_on channel=0 note=54 velocity=0 time=0
note_on channel=0 note=60 velocity=0 time=0
note_on channel=0 note=63 velocity=0 time=0
note_on channel=0 note=54 velocity=35 time=60
note_on channel=0 note=57 velocity=35 time=0
note_on channel=0 note=60 velocity=35 time=0
note_on channel=0 note=63 velocity=43 time=0
note_on channel=0 note=42 velocity=37 time=0
note_on channel=0 note=41 velocity=0 time=12
note_on channel=0 note=60 velocity=0 time=48
note_on channel=0 note=54 velocity=0 time=0
note_on channel=0 note=57 velocity=0 time=0
note_on channel=0 note=63 velocity=0 time=0
note_on channel=0 note=41 velocity=32 time=60
note_on channel=0 note=42 velocity=0 time=12
note_on channel=0 note=53 velocity=38 time=108
note_on channel=0 note=58 velocity=38 time=0
note_on channel=0 note=62 velocity=46 time=0
note_on channel=0 note=42 velocity=38 time=0
note_on channel=0 note=41 velocity=0 time=12
note_on channel=0 note=62 velocity=0 time=48
note_on channel=0 note=58 velocity=0 time=0
note_on channel=0 note=53 velocity=0 time=0
note_on channel=0 note=41 velocity=34 time=0
note_on channel=0 note=42 velocity=0 time=12
note_on channel=0 note=41 velocity=0 time=0
note_on channel=0 note=34 velocity=0 time=0
note_on channel=0 note=33 velocity=36 time=0
note_on channel=0 note=34 velocity=31 time=120
note_on channel=0 note=33 velocity=0 time=12
note_on channel=0 note=33 velocity=36 time=108
note_on channel=0 note=34 velocity=0 time=12
note_on channel=0 note=63 velocity=46 time=0
note_on channel=0 note=54 velocity=38 time=0
note_on channel=0 note=57 velocity=38 time=0
note_on channel=0 note=60 velocity=38 time=0
note_on channel=0 note=34 velocity=32 time=0
note_on channel=0 note=33 velocity=0 time=12
note_on channel=0 note=60 velocity=0 time=48
note_on channel=0 note=57 velocity=0 time=0
note_on channel=0 note=63 velocity=0 time=0
note_on channel=0 note=54 velocity=0 time=0
note_on channel=0 note=60 velocity=33 time=60
note_on channel=0 note=57 velocity=33 time=0
note_on channel=0 note=63 velocity=40 time=0
note_on channel=0 note=54 velocity=33 time=0
note_on channel=0 note=33 velocity=35 time=0
note_on channel=0 note=34 velocity=0 time=12
note_on channel=0 note=54 velocity=0 time=48
note_on channel=0 note=63 velocity=0 time=0
note_on channel=0 note=60 velocity=0 time=0
note_on channel=0 note=57 velocity=0 time=0
note_on channel=0 note=34 velocity=30 time=60
note_on channel=0 note=33 velocity=0 time=12
note_on channel=0 note=62 velocity=43 time=108
note_on channel=0 note=53 velocity=35 time=0
note_on channel=0 note=58 velocity=35 time=0
note_on channel=0 note=33 velocity=35 time=0
note_on channel=0 note=34 velocity=0 time=12
note_on channel=0 note=58 velocity=0 time=48
note_on channel=0 note=62 velocity=0 time=0
note_on channel=0 note=53 velocity=0 time=0
note_on channel=0 note=34 velocity=31 time=0
note_on channel=0 note=33 velocity=0 time=12
note_on channel=0 note=34 velocity=0 time=0
note_on channel=0 note=30 velocity=33 time=0
note_on channel=0 note=29 velocity=29 time=120
note_on channel=0 note=30 velocity=0 time=12
note_on channel=0 note=30 velocity=34 time=108
note_on channel=0 note=29 velocity=0 time=12
note_on channel=0 note=51 velocity=35 time=0
note_on channel=0 note=58 velocity=35 time=0
note_on channel=0 note=54 velocity=35 time=0
note_on channel=0 note=60 velocity=43 time=0
note_on channel=0 note=29 velocity=30 time=0
note_on channel=0 note=30 velocity=0 time=12
note_on channel=0 note=60 velocity=0 time=48
note_on channel=0 note=54 velocity=0 time=0
note_on channel=0 note=51 velocity=0 time=0
note_on channel=0 note=58 velocity=0 time=0
note_on channel=0 note=51 velocity=31 time=60
note_on channel=0 note=54 velocity=31 time=0
note_on channel=0 note=58 velocity=31 time=0
note_on channel=0 note=60 velocity=37 time=0
note_on channel=0 note=30 velocity=32 time=0
note_on channel=0 note=29 velocity=0 time=12
note_on channel=0 note=60 velocity=0 time=48
note_on channel=0 note=58 velocity=0 time=0
note_on channel=0 note=51 velocity=0 time=0
note_on channel=0 note=54 velocity=0 time=0
note_on channel=0 note=29 velocity=28 time=60
note_on channel=0 note=30 velocity=0 time=12
note_on channel=0 note=58 velocity=40 time=108
note_on channel=0 note=50 velocity=32 time=0
note_on channel=0 note=53 velocity=32 time=0
note_on channel=0 note=41 velocity=32 time=0
note_on channel=0 note=34 velocity=32 time=0
note_on channel=0 note=29 velocity=0 time=12
note_on channel=0 note=53 velocity=0 time=48
note_on channel=0 note=58 velocity=0 time=0
note_on channel=0 note=50 velocity=0 time=0
note_on channel=0 note=29 velocity=29 time=0
note_on channel=0 note=34 velocity=0 time=12
note_on channel=0 note=41 velocity=0 time=0
note_on channel=0 note=29 velocity=0 time=0
note_on channel=0 note=41 velocity=32 time=0
note_on channel=0 note=34 velocity=31 time=0
note_on channel=0 note=29 velocity=27 time=120
note_on channel=0 note=34 velocity=0 time=12
note_on channel=0 note=41 velocity=0 time=0
note_on channel=0 note=41 velocity=32 time=108
note_on channel=0 note=34 velocity=32 time=0
note_on channel=0 note=29 velocity=0 time=12
note_on channel=0 note=50 velocity=33 time=0
note_on channel=0 note=53 velocity=33 time=0
note_on channel=0 note=58 velocity=33 time=0
note_on channel=0 note=62 velocity=40 time=0
note_on channel=0 note=29 velocity=28 time=0
note_on channel=0 note=34 velocity=0 time=12
note_on channel=0 note=41 velocity=0 time=0
note_on channel=0 note=50 velocity=0 time=48
note_on channel=0 note=58 velocity=0 time=0
note_on channel=0 note=53 velocity=0 time=0
note_on channel=0 note=62 velocity=0 time=0
note_on channel=0 note=53 velocity=29 time=60
note_on channel=0 note=50 velocity=29 time=0
note_on channel=0 note=58 velocity=29 time=0
note_on channel=0 note=62 velocity=36 time=0
note_on channel=0 note=41 velocity=32 time=0
note_on channel=0 note=34 velocity=31 time=0
note_on channel=0 note=29 velocity=0 time=12
note_on channel=0 note=62 velocity=0 time=48
note_on channel=0 note=53 velocity=0 time=0
note_on channel=0 note=58 velocity=0 time=0
note_on channel=0 note=50 velocity=0 time=0
note_on channel=0 note=29 velocity=27 time=60
note_on channel=0 note=34 velocity=0 time=12
note_on channel=0 note=41 velocity=0 time=0
note_on channel=0 note=53 velocity=32 time=108
note_on channel=0 note=50 velocity=32 time=0
note_on channel=0 note=58 velocity=39 time=0
note_on channel=0 note=41 velocity=32 time=0
note_on channel=0 note=34 velocity=32 time=0
note_on channel=0 note=29 velocity=0 time=12
note_on channel=0 note=58 velocity=0 time=48
note_on channel=0 note=53 velocity=0 time=0
note_on channel=0 note=50 velocity=0 time=0
note_on channel=0 note=29 velocity=28 time=0
note_on channel=0 note=34 velocity=0 time=12
note_on channel=0 note=41 velocity=0 time=0
note_on channel=0 note=29 velocity=0 time=0
note_on channel=0 note=41 velocity=27 time=0
note_on channel=0 note=41 velocity=0 time=42
note_on channel=0 note=34 velocity=23 time=0
note_on channel=0 note=34 velocity=0 time=120
note_on channel=0 note=53 velocity=26 time=0
note_on channel=0 note=62 velocity=32 time=0
note_on channel=0 note=58 velocity=26 time=0
note_on channel=0 note=50 velocity=26 time=0
note_on channel=0 note=41 velocity=27 time=0
note_on channel=0 note=41 velocity=0 time=0
note_on channel=0 note=34 velocity=24 time=0
note_on channel=0 note=34 velocity=0 time=120
note_on channel=0 note=50 velocity=0 time=0
note_on channel=0 note=53 velocity=0 time=0
note_on channel=0 note=62 velocity=0 time=0
note_on channel=0 note=58 velocity=0 time=0
note_on channel=0 note=41 velocity=44 time=0
note_on channel=0 note=41 velocity=0 time=120
note_on channel=0 note=34 velocity=49 time=0
note_on channel=0 note=34 velocity=0 time=120
note_on channel=0 note=46 velocity=55 time=0
note_on channel=0 note=41 velocity=55 time=0
note_on channel=0 note=41 velocity=0 time=0
note_on channel=0 note=46 velocity=0 time=0
note_on channel=0 note=34 velocity=60 time=0
note_on channel=0 note=34 velocity=0 time=0
note_on channel=0 note=41 velocity=66 time=0
note_on channel=0 note=46 velocity=66 time=0
note_on channel=0 note=46 velocity=0 time=0
note_on channel=0 note=41 velocity=0 time=0
note_on channel=0 note=34 velocity=70 time=0
note_on channel=0 note=34 velocity=0 time=0
note_on channel=0 note=41 velocity=75 time=0
note_on channel=0 note=46 velocity=75 time=0
note_on channel=0 note=46 velocity=0 time=11
note_on channel=0 note=41 velocity=0 time=0
note_on channel=0 note=34 velocity=81 time=0
note_on channel=0 note=34 velocity=0 time=0
note_on channel=0 note=89 velocity=100 time=0
note_on channel=0 note=86 velocity=100 time=0
note_on channel=0 note=82 velocity=100 time=0
note_on channel=0 note=94 velocity=119 time=0
note_on channel=0 note=46 velocity=81 time=0
note_on channel=0 note=50 velocity=81 time=0
note_on channel=0 note=53 velocity=81 time=0
note_on channel=0 note=58 velocity=97 time=0
note_on channel=0 note=58 velocity=0 time=240
note_on channel=0 note=89 velocity=0 time=0
note_on channel=0 note=46 velocity=0 time=0
note_on channel=0 note=86 velocity=0 time=0
note_on channel=0 note=82 velocity=0 time=0
note_on channel=0 note=94 velocity=0 time=0
note_on channel=0 note=50 velocity=0 time=0
note_on channel=0 note=53 velocity=0 time=0
note_on channel=0 note=70 velocity=119 time=240
note_on channel=0 note=58 velocity=100 time=0
note_on channel=0 note=34 velocity=76 time=0
note_on channel=0 note=46 velocity=92 time=0
note_on channel=0 note=46 velocity=0 time=960
note_on channel=0 note=70 velocity=0 time=0
note_on channel=0 note=58 velocity=0 time=0
note_on channel=0 note=34 velocity=0 time=0
