note_on channel=0 note=58 velocity=42 time=0
note_on channel=0 note=62 velocity=50 time=0
note_on channel=0 note=58 velocity=0 time=120
note_on channel=0 note=57 velocity=40 time=0
note_on channel=0 note=57 velocity=0 time=120
note_on channel=0 note=58 velocity=45 time=0
note_on channel=0 note=58 velocity=0 time=0
note_on channel=0 note=53 velocity=39 time=0
note_on channel=0 note=53 velocity=0 time=0
note_on channel=0 note=62 velocity=0 time=0
note_on channel=0 note=62 velocity=35 time=0
note_on channel=0 note=65 velocity=42 time=0
note_on channel=0 note=34 velocity=30 time=0
note_on channel=0 note=46 velocity=36 time=0
note_on channel=0 note=46 velocity=0 time=90
note_on channel=0 note=62 velocity=0 time=0
note_on channel=0 note=65 velocity=0 time=0
note_on channel=0 note=34 velocity=0 time=0
note_on channel=0 note=58 velocity=32 time=390
note_on channel=0 note=62 velocity=38 time=0
note_on channel=0 note=34 velocity=27 time=0
note_on channel=0 note=46 velocity=32 time=0
note_on channel=0 note=46 velocity=0 time=90
note_on channel=0 note=58 velocity=0 time=0
note_on channel=0 note=62 velocity=0 time=0
note_on channel=0 note=34 velocity=0 time=0
note_on channel=0 note=58 velocity=42 time=0
note_on channel=0 note=62 velocity=50 time=0
note_on channel=0 note=58 velocity=0 time=120
note_on channel=0 note=57 velocity=40 time=0
note_on channel=0 note=57 velocity=0 time=120
note_on channel=0 note=58 velocity=45 time=0
note_on channel=0 note=58 velocity=0 time=0
note_on channel=0 note=53 velocity=39 time=0
note_on channel=0 note=53 velocity=0 time=0
note_on channel=0 note=62 velocity=0 time=0
note_on channel=0 note=62 velocity=35 time=0
note_on channel=0 note=65 velocity=42 time=0
note_on channel=0 note=34 velocity=30 time=0
note_on channel=0 note=46 velocity=36 time=0
note_on channel=0 note=46 velocity=0 time=90
note_on channel=0 note=62 velocity=0 time=0
note_on channel=0 note=65 velocity=0 time=0
note_on channel=0 note=34 velocity=0 time=0
note_on channel=0 note=58 velocity=32 time=390
note_on channel=0 note=62 velocity=38 time=0
note_on channel=0 note=34 velocity=27 time=0
note_on channel=0 note=46 velocity=32 time=0
note_on channel=0 note=46 velocity=0 time=90
note_on channel=0 note=58 velocity=0 time=0
note_on channel=0 note=62 velocity=0 time=0
note_on channel=0 note=34 velocity=0 time=0
note_on channel=0 note=62 velocity=50 time=0
note_on channel=0 note=58 velocity=42 time=0
note_on channel=0 note=57 velocity=40 time=120
note_on channel=0 note=58 velocity=0 time=12
note_on channel=0 note=62 velocity=0 time=108
note_on channel=0 note=58 velocity=46 time=0
note_on channel=0 note=57 velocity=0 time=12
note_on channel=0 note=53 velocity=40 time=108
note_on channel=0 note=58 velocity=0 time=12
note_on channel=0 note=53 velocity=0 time=0
note_on channel=0 note=65 velocity=53 time=0
note_on channel=0 note=62 velocity=44 time=0
note_on channel=0 note=61 velocity=42 time=120
note_on channel=0 note=62 velocity=0 time=12
note_on channel=0 note=65 velocity=0 time=108
note_on channel=0 note=62 velocity=49 time=0
note_on channel=0 note=61 velocity=0 time=12
note_on channel=0 note=58 velocity=42 time=108
note_on channel=0 note=62 velocity=0 time=12
note_on channel=0 note=58 velocity=0 time=0
note_on channel=0 note=65 velocity=47 time=0
note_on channel=0 note=70 velocity=56 time=0
note_on channel=0 note=64 velocity=45 time=120
note_on channel=0 note=65 velocity=0 time=12
note_on channel=0 note=70 velocity=0 time=108
note_on channel=0 note=65 velocity=51 time=0
note_on channel=0 note=64 velocity=0 time=12
note_on channel=0 note=62 velocity=45 time=108
note_on channel=0 note=65 velocity=0 time=12
note_on channel=0 note=62 velocity=0 time=0
note_on channel=0 note=70 velocity=49 time=0
note_on channel=0 note=74 velocity=59 time=0
note_on channel=0 note=69 velocity=47 time=120
note_on channel=0 note=70 velocity=0 time=12
note_on channel=0 note=74 velocity=0 time=108
note_on channel=0 note=70 velocity=54 time=0
note_on channel=0 note=69 velocity=0 time=12
note_on channel=0 note=65 velocity=47 time=108
note_on channel=0 note=70 velocity=0 time=12
note_on channel=0 note=65 velocity=0 time=0
note_on channel=0 note=74 velocity=52 time=0
note_on channel=0 note=77 velocity=62 time=0
note_on channel=0 note=73 velocity=50 time=120
note_on channel=0 note=74 velocity=0 time=12
note_on channel=0 note=77 velocity=0 time=108
note_on channel=0 note=74 velocity=57 time=0
note_on channel=0 note=73 velocity=0 time=12
note_on channel=0 note=70 velocity=49 time=0
note_on channel=0 note=74 velocity=0 time=12
note_on channel=0 note=70 velocity=0 time=0
note_on channel=0 note=82 velocity=72 time=0
note_on channel=0 note=46 velocity=44 time=0
control_change channel=0 control=64 value=127 time=71
note_on channel=0 note=46 velocity=0 time=49
note_on channel=0 note=50 velocity=31 time=0
note_on channel=0 note=50 velocity=0 time=120
note_on channel=0 note=53 velocity=31 time=0
note_on channel=0 note=53 velocity=0 time=120
note_on channel=0 note=58 velocity=31 time=0
note_on channel=0 note=58 velocity=0 time=120
note_on channel=0 note=46 velocity=44 time=0
note_on channel=0 note=46 velocity=0 time=120
note_on channel=0 note=50 velocity=32 time=0
note_on channel=0 note=50 velocity=0 time=120
note_on channel=0 note=53 velocity=32 time=0
note_on channel=0 note=53 velocity=0 time=120
note_on channel=0 note=58 velocity=32 time=0
note_on channel=0 note=58 velocity=0 time=120
note_on channel=0 note=46 velocity=44 time=0
note_on channel=0 note=46 velocity=0 time=120
note_on channel=0 note=50 velocity=33 time=0
note_on channel=0 note=50 velocity=0 time=120
note_on channel=0 note=53 velocity=33 time=0
note_on channel=0 note=53 velocity=0 time=120
note_on channel=0 note=58 velocity=33 time=0
note_on channel=0 note=58 velocity=0 time=120
note_on channel=0 note=82 velocity=0 time=0
note_on channel=0 note=81 velocity=60 time=0
note_on channel=0 note=46 velocity=44 time=0
note_on channel=0 note=46 velocity=0 time=120
note_on channel=0 note=81 velocity=0 time=0
note_on channel=0 note=82 velocity=57 time=0
note_on channel=0 note=50 velocity=33 time=0
note_on channel=0 note=50 velocity=0 time=120
note_on channel=0 note=82 velocity=0 time=0
note_on channel=0 note=84 velocity=60 time=0
note_on channel=0 note=53 velocity=33 time=0
note_on channel=0 note=53 velocity=0 time=0
note_on channel=0 note=84 velocity=0 time=0
note_on channel=0 note=82 velocity=54 time=0
note_on channel=0 note=58 velocity=33 time=0
note_on channel=0 note=58 velocity=0 time=0
note_on channel=0 note=82 velocity=0 time=0
note_on channel=0 note=81 velocity=60 time=0
note_on channel=0 note=46 velocity=44 time=0
control_change channel=0 control=64 value=0 time=37
control_change channel=0 control=64 value=127 time=76
note_on channel=0 note=46 velocity=0 time=7
note_on channel=0 note=51 velocity=31 time=0
note_on channel=0 note=51 velocity=0 time=120
note_on channel=0 note=81 velocity=0 time=0
note_on channel=0 note=79 velocity=51 time=0
note_on channel=0 note=55 velocity=31 time=0
note_on channel=0 note=55 velocity=0 time=120
note_on channel=0 note=58 velocity=31 time=0
note_on channel=0 note=58 velocity=0 time=120
note_on channel=0 note=79 velocity=0 time=0
note_on channel=0 note=77 velocity=54 time=0
note_on channel=0 note=46 velocity=42 time=0
note_on channel=0 note=46 velocity=0 time=120
note_on channel=0 note=51 velocity=28 time=0
note_on channel=0 note=51 velocity=0 time=120
note_on channel=0 note=77 velocity=0 time=0
note_on channel=0 note=75 velocity=50 time=0
note_on channel=0 note=55 velocity=28 time=0
note_on channel=0 note=55 velocity=0 time=120
note_on channel=0 note=58 velocity=28 time=0
note_on channel=0 note=58 velocity=0 time=120
note_on channel=0 note=75 velocity=0 time=0
note_on channel=0 note=74 velocity=59 time=0
note_on channel=0 note=46 velocity=41 time=0
control_change channel=0 control=64 value=0 time=14
note_on channel=0 note=46 velocity=0 time=106
note_on channel=0 note=51 velocity=29 time=0
control_change channel=0 control=64 value=127 time=21
note_on channel=0 note=51 velocity=0 time=99
note_on channel=0 note=74 velocity=0 time=0
note_on channel=0 note=72 velocity=48 time=0
note_on channel=0 note=53 velocity=29 time=0
note_on channel=0 note=53 velocity=0 time=120
note_on channel=0 note=57 velocity=29 time=0
note_on channel=0 note=57 velocity=0 time=120
note_on channel=0 note=72 velocity=0 time=0
note_on channel=0 note=79 velocity=56 time=0
note_on channel=0 note=46 velocity=41 time=0
note_on channel=0 note=46 velocity=0 time=120
note_on channel=0 note=51 velocity=31 time=0
note_on channel=0 note=51 velocity=0 time=120
note_on channel=0 note=79 velocity=0 time=0
note_on channel=0 note=77 velocity=47 time=0
note_on channel=0 note=53 velocity=31 time=0
note_on channel=0 note=53 velocity=0 time=0
note_on channel=0 note=57 velocity=31 time=0
note_on channel=0 note=57 velocity=0 time=0
note_on channel=0 note=77 velocity=0 time=0
note_on channel=0 note=75 velocity=54 time=0
note_on channel=0 note=46 velocity=44 time=0
control_change channel=0 control=64 value=0 time=9
control_change channel=0 control=64 value=127 time=83
note_on channel=0 note=46 velocity=0 time=28
note_on channel=0 note=50 velocity=31 time=0
note_on channel=0 note=50 velocity=0 time=120
note_on channel=0 note=53 velocity=31 time=0
note_on channel=0 note=53 velocity=0 time=120
note_on channel=0 note=58 velocity=31 time=0
note_on channel=0 note=58 velocity=0 time=120
note_on channel=0 note=75 velocity=0 time=0
note_on channel=0 note=74 velocity=47 time=0
note_on channel=0 note=46 velocity=44 time=0
control_change channel=0 control=64 value=0 time=17
control_change channel=0 control=64 value=127 time=96
note_on channel=0 note=46 velocity=0 time=7
note_on channel=0 note=50 velocity=32 time=0
note_on channel=0 note=50 velocity=0 time=120
note_on channel=0 note=53 velocity=32 time=0
note_on channel=0 note=53 velocity=0 time=120
note_on channel=0 note=58 velocity=32 time=0
control_change channel=0 control=64 value=0 time=99
note_on channel=0 note=58 velocity=0 time=0
note_on channel=0 note=74 velocity=0 time=0
note_on channel=0 note=46 velocity=44 time=0
control_change channel=0 control=64 value=127 time=46
note_on channel=0 note=46 velocity=0 time=74
note_on channel=0 note=50 velocity=32 time=0
note_on channel=0 note=50 velocity=0 time=120
note_on channel=0 note=53 velocity=32 time=0
note_on channel=0 note=53 velocity=0 time=120
note_on channel=0 note=56 velocity=32 time=0
note_on channel=0 note=56 velocity=0 time=120
note_on channel=0 note=69 velocity=58 time=0
note_on channel=0 note=46 velocity=44 time=0
note_on channel=0 note=46 velocity=0 time=120
note_on channel=0 note=69 velocity=0 time=0
note_on channel=0 note=70 velocity=54 time=0
note_on channel=0 note=50 velocity=32 time=0
note_on channel=0 note=50 velocity=0 time=120
note_on channel=0 note=70 velocity=0 time=0
note_on channel=0 note=72 velocity=58 time=0
note_on channel=0 note=53 velocity=32 time=0
note_on channel=0 note=53 velocity=0 time=120
note_on channel=0 note=72 velocity=0 time=0
note_on channel=0 note=70 velocity=54 time=0
note_on channel=0 note=56 velocity=32 time=0
note_on channel=0 note=56 velocity=0 time=0
note_on channel=0 note=70 velocity=0 time=0
note_on channel=0 note=68 velocity=60 time=0
note_on channel=0 note=46 velocity=44 time=0
control_change channel=0 control=64 value=0 time=0
control_change channel=0 control=64 value=127 time=85
note_on channel=0 note=46 velocity=0 time=35
note_on channel=0 note=51 velocity=32 time=0
note_on channel=0 note=51 velocity=0 time=120
note_on channel=0 note=68 velocity=0 time=0
note_on channel=0 note=67 velocity=54 time=0
note_on channel=0 note=55 velocity=32 time=0
note_on channel=0 note=55 velocity=0 time=120
note_on channel=0 note=51 velocity=32 time=0
note_on channel=0 note=51 velocity=0 time=120
note_on channel=0 note=67 velocity=0 time=0
note_on channel=0 note=65 velocity=66 time=0
note_on channel=0 note=46 velocity=44 time=0
control_change channel=0 control=64 value=0 time=9
control_change channel=0 control=64 value=127 time=104
note_on channel=0 note=46 velocity=0 time=7
note_on channel=0 note=51 velocity=36 time=0
note_on channel=0 note=51 velocity=0 time=120
note_on channel=0 note=65 velocity=0 time=0
note_on channel=0 note=63 velocity=61 time=0
note_on channel=0 note=55 velocity=36 time=0
note_on channel=0 note=55 velocity=0 time=0
note_on channel=0 note=51 velocity=36 time=0
note_on channel=0 note=51 velocity=0 time=0
note_on channel=0 note=63 velocity=0 time=0
note_on channel=0 note=62 velocity=69 time=0
note_on channel=0 note=46 velocity=48 time=0
control_change channel=0 control=64 value=0 time=13
control_change channel=0 control=64 value=127 time=79
note_on channel=0 note=46 velocity=0 time=28
note_on channel=0 note=48 velocity=37 time=0
note_on channel=0 note=48 velocity=0 time=120
note_on channel=0 note=62 velocity=0 time=0
note_on channel=0 note=60 velocity=62 time=0
note_on channel=0 note=51 velocity=38 time=0
note_on channel=0 note=51 velocity=0 time=120
note_on channel=0 note=53 velocity=40 time=0
note_on channel=0 note=53 velocity=0 time=120
note_on channel=0 note=60 velocity=0 time=0
note_on channel=0 note=63 velocity=73 time=0
note_on channel=0 note=46 velocity=50 time=0
control_change channel=0 control=64 value=0 time=14
control_change channel=0 control=64 value=127 time=78
note_on channel=0 note=46 velocity=0 time=28
note_on channel=0 note=48 velocity=40 time=0
note_on channel=0 note=48 velocity=0 time=120
note_on channel=0 note=63 velocity=0 time=0
note_on channel=0 note=57 velocity=63 time=0
note_on channel=0 note=51 velocity=39 time=0
note_on channel=0 note=51 velocity=0 time=0
note_on channel=0 note=53 velocity=43 time=0
note_on channel=0 note=53 velocity=0 time=0
note_on channel=0 note=57 velocity=0 time=0
note_on channel=0 note=58 velocity=79 time=0
note_on channel=0 note=46 velocity=60 time=0
control_change channel=0 control=64 value=0 time=0
note_on channel=0 note=46 velocity=0 time=120
note_on channel=0 note=58 velocity=0 time=0
note_on channel=0 note=62 velocity=68 time=0
note_on channel=0 note=62 velocity=0 time=120
note_on channel=0 note=60 velocity=65 time=0
note_on channel=0 note=60 velocity=0 time=120
note_on channel=0 note=58 velocity=71 time=0
note_on channel=0 note=46 velocity=53 time=0
note_on channel=0 note=46 velocity=0 time=120
note_on channel=0 note=58 velocity=0 time=0
note_on channel=0 note=57 velocity=65 time=0
note_on channel=0 note=45 velocity=46 time=0
note_on channel=0 note=45 velocity=0 time=120
note_on channel=0 note=57 velocity=0 time=0
note_on channel=0 note=58 velocity=71 time=0
note_on channel=0 note=46 velocity=53 time=0
note_on channel=0 note=46 velocity=0 time=120
note_on channel=0 note=58 velocity=0 time=0
note_on channel=0 note=55 velocity=65 time=0
note_on channel=0 note=43 velocity=46 time=0
note_on channel=0 note=43 velocity=0 time=0
note_on channel=0 note=55 velocity=0 time=0
note_on channel=0 note=53 velocity=79 time=0
note_on channel=0 note=41 velocity=60 time=0
note_on channel=0 note=41 velocity=0 time=0
note_on channel=0 note=53 velocity=0 time=0
note_on channel=0 note=67 velocity=68 time=0
note_on channel=0 note=67 velocity=0 time=120
note_on channel=0 note=65 velocity=65 time=0
note_on channel=0 note=65 velocity=0 time=120
note_on channel=0 note=63 velocity=71 time=0
note_on channel=0 note=51 velocity=53 time=0
control_change channel=0 control=64 value=127 time=71
note_on channel=0 note=51 velocity=0 time=49
note_on channel=0 note=63 velocity=0 time=0
note_on channel=0 note=62 velocity=65 time=0
note_on channel=0 note=50 velocity=46 time=0
note_on channel=0 note=50 velocity=0 time=120
note_on channel=0 note=62 velocity=0 time=0
note_on channel=0 note=63 velocity=71 time=0
note_on channel=0 note=51 velocity=53 time=0
note_on channel=0 note=51 velocity=0 time=120
note_on channel=0 note=63 velocity=0 time=0
note_on channel=0 note=60 velocity=65 time=0
note_on channel=0 note=48 velocity=46 time=0
note_on channel=0 note=48 velocity=0 time=0
note_on channel=0 note=60 velocity=0 time=0
note_on channel=0 note=58 velocity=79 time=0
note_on channel=0 note=46 velocity=60 time=0
control_change channel=0 control=64 value=0 time=0
note_on channel=0 note=46 velocity=0 time=0
note_on channel=0 note=58 velocity=0 time=0
note_on channel=0 note=74 velocity=68 time=0
note_on channel=0 note=74 velocity=0 time=120
note_on channel=0 note=72 velocity=65 time=0
note_on channel=0 note=72 velocity=0 time=120
note_on channel=0 note=70 velocity=71 time=0
note_on channel=0 note=58 velocity=53 time=0
control_change channel=0 control=64 value=127 time=43
note_on channel=0 note=58 velocity=0 time=77
note_on channel=0 note=70 velocity=0 time=0
note_on channel=0 note=69 velocity=65 time=0
note_on channel=0 note=57 velocity=46 time=0
note_on channel=0 note=57 velocity=0 time=120
note_on channel=0 note=69 velocity=0 time=0
note_on channel=0 note=70 velocity=71 time=0
note_on channel=0 note=58 velocity=53 time=0
note_on channel=0 note=58 velocity=0 time=120
note_on channel=0 note=70 velocity=0 time=0
note_on channel=0 note=67 velocity=65 time=0
note_on channel=0 note=55 velocity=46 time=0
note_on channel=0 note=55 velocity=0 time=0
note_on channel=0 note=67 velocity=0 time=0
note_on channel=0 note=65 velocity=79 time=0
note_on channel=0 note=53 velocity=60 time=0
control_change channel=0 control=64 value=0 time=50
note_on channel=0 note=53 velocity=0 time=0
note_on channel=0 note=65 velocity=0 time=0
note_on channel=0 note=79 velocity=78 time=0
note_on channel=0 note=79 velocity=0 time=120
note_on channel=0 note=77 velocity=74 time=0
note_on channel=0 note=77 velocity=0 time=120
note_on channel=0 note=75 velocity=81 time=0
note_on channel=0 note=63 velocity=60 time=0
note_on channel=0 note=63 velocity=0 time=120
note_on channel=0 note=75 velocity=0 time=0
note_on channel=0 note=74 velocity=74 time=0
note_on channel=0 note=62 velocity=52 time=0
control_change channel=0 control=64 value=127 time=0
note_on channel=0 note=62 velocity=0 time=120
note_on channel=0 note=74 velocity=0 time=0
note_on channel=0 note=75 velocity=81 time=0
note_on channel=0 note=63 velocity=60 time=0
note_on channel=0 note=63 velocity=0 time=120
note_on channel=0 note=75 velocity=0 time=0
note_on channel=0 note=72 velocity=74 time=0
note_on channel=0 note=60 velocity=52 time=0
note_on channel=0 note=60 velocity=0 time=0
note_on channel=0 note=72 velocity=0 time=0
note_on channel=0 note=70 velocity=90 time=0
note_on channel=0 note=58 velocity=69 time=0
control_change channel=0 control=64 value=0 time=0
note_on channel=0 note=58 velocity=0 time=120
note_on channel=0 note=70 velocity=0 time=0
note_on channel=0 note=72 velocity=68 time=0
note_on channel=0 note=60 velocity=53 time=0
control_change channel=0 control=64 value=127 time=13
note_on channel=0 note=60 velocity=0 time=107
note_on channel=0 note=72 velocity=0 time=0
note_on channel=0 note=74 velocity=68 time=0
note_on channel=0 note=62 velocity=48 time=0
note_on channel=0 note=62 velocity=0 time=120
note_on channel=0 note=74 velocity=0 time=0
note_on channel=0 note=75 velocity=77 time=0
note_on channel=0 note=63 velocity=54 time=0
note_on channel=0 note=63 velocity=0 time=120
note_on channel=0 note=75 velocity=0 time=0
note_on channel=0 note=77 velocity=70 time=0
note_on channel=0 note=65 velocity=48 time=0
note_on channel=0 note=65 velocity=0 time=120
note_on channel=0 note=77 velocity=0 time=0
note_on channel=0 note=79 velocity=70 time=0
note_on channel=0 note=67 velocity=48 time=0
note_on channel=0 note=67 velocity=0 time=120
note_on channel=0 note=79 velocity=0 time=0
note_on channel=0 note=81 velocity=71 time=0
note_on channel=0 note=69 velocity=49 time=0
note_on channel=0 note=69 velocity=0 time=9
note_on channel=0 note=81 velocity=0 time=0
note_on channel=0 note=82 velocity=73 time=0
note_on channel=0 note=70 velocity=56 time=0
control_change channel=0 control=64 value=0 time=22
note_on channel=0 note=82 velocity=0 time=8
note_on channel=0 note=84 velocity=65 time=0
note_on channel=0 note=84 velocity=0 time=11
note_on channel=0 note=82 velocity=81 time=0
control_change channel=0 control=64 value=127 time=0
note_on channel=0 note=82 velocity=0 time=14
note_on channel=0 note=70 velocity=0 time=0
note_on channel=0 note=81 velocity=72 time=0
note_on channel=0 note=69 velocity=50 time=0
note_on channel=0 note=69 velocity=0 time=18
note_on channel=0 note=81 velocity=0 time=0
note_on channel=0 note=82 velocity=73 time=0
note_on channel=0 note=70 velocity=50 time=0
note_on channel=0 note=70 velocity=0 time=42
note_on channel=0 note=82 velocity=0 time=0
note_on channel=0 note=84 velocity=74 time=0
note_on channel=0 note=72 velocity=51 time=0
note_on channel=0 note=72 velocity=0 time=9
note_on channel=0 note=84 velocity=0 time=0
note_on channel=0 note=86 velocity=74 time=0
note_on channel=0 note=74 velocity=58 time=0
control_change channel=0 control=64 value=0 time=10
note_on channel=0 note=86 velocity=0 time=0
note_on channel=0 note=87 velocity=66 time=0
control_change channel=0 control=64 value=127 time=24
note_on channel=0 note=87 velocity=0 time=6
note_on channel=0 note=86 velocity=83 time=0
note_on channel=0 note=74 velocity=0 time=33
note_on channel=0 note=84 velocity=75 time=0
note_on channel=0 note=72 velocity=52 time=0
note_on channel=0 note=86 velocity=0 time=16
note_on channel=0 note=72 velocity=0 time=18
note_on channel=0 note=84 velocity=0 time=0
note_on channel=0 note=86 velocity=76 time=0
note_on channel=0 note=74 velocity=52 time=0
note_on channel=0 note=74 velocity=0 time=0
note_on channel=0 note=86 velocity=0 time=0
note_on channel=0 note=88 velocity=76 time=0
note_on channel=0 note=76 velocity=53 time=0
note_on channel=0 note=76 velocity=0 time=0
note_on channel=0 note=88 velocity=0 time=0
note_on channel=0 note=89 velocity=92 time=0
note_on channel=0 note=77 velocity=73 time=0
control_change channel=0 control=64 value=0 time=7
note_on channel=0 note=77 velocity=0 time=113
note_on channel=0 note=89 velocity=0 time=0
note_on channel=0 note=65 velocity=79 time=360
note_on channel=0 note=53 velocity=60 time=0
note_on channel=0 note=53 velocity=0 time=120
note_on channel=0 note=65 velocity=0 time=0
note_on channel=0 note=46 velocity=65 time=0
note_on channel=0 note=46 velocity=0 time=120
note_on channel=0 note=45 velocity=57 time=0
note_on channel=0 note=45 velocity=0 time=120
note_on channel=0 note=46 velocity=62 time=0
note_on channel=0 note=46 velocity=0 time=0
note_on channel=0 note=41 velocity=55 time=0
note_on channel=0 note=41 velocity=0 time=0
note_on channel=0 note=50 velocity=65 time=0
note_on channel=0 note=50 velocity=0 time=120
note_on channel=0 note=49 velocity=58 time=0
note_on channel=0 note=49 velocity=0 time=120
note_on channel=0 note=50 velocity=63 time=0
note_on channel=0 note=50 velocity=0 time=0
note_on channel=0 note=46 velocity=57 time=0
note_on channel=0 note=46 velocity=0 time=0
note_on channel=0 note=53 velocity=65 time=0
note_on channel=0 note=53 velocity=0 time=120
note_on channel=0 note=52 velocity=58 time=0
note_on channel=0 note=52 velocity=0 time=120
note_on channel=0 note=53 velocity=63 time=0
note_on channel=0 note=53 velocity=0 time=0
note_on channel=0 note=50 velocity=57 time=0
note_on channel=0 note=50 velocity=0 time=0
note_on channel=0 note=58 velocity=65 time=0
note_on channel=0 note=58 velocity=0 time=120
note_on channel=0 note=57 velocity=58 time=0
note_on channel=0 note=57 velocity=0 time=120
note_on channel=0 note=58 velocity=63 time=0
note_on channel=0 note=58 velocity=0 time=0
note_on channel=0 note=53 velocity=57 time=0
note_on channel=0 note=53 velocity=0 time=0
note_on channel=0 note=62 velocity=63 time=0
note_on channel=0 note=62 velocity=0 time=120
note_on channel=0 note=61 velocity=58 time=0
note_on channel=0 note=61 velocity=0 time=120
note_on channel=0 note=62 velocity=62 time=0
note_on channel=0 note=62 velocity=0 time=0
note_on channel=0 note=58 velocity=57 time=0
note_on channel=0 note=58 velocity=0 time=0
note_on channel=0 note=65 velocity=72 time=0
note_on channel=0 note=65 velocity=0 time=360
note_on channel=0 note=63 velocity=63 time=0
note_on channel=0 note=63 velocity=0 time=0
note_on channel=0 note=77 velocity=75 time=0
note_on channel=0 note=62 velocity=71 time=0
note_on channel=0 note=62 velocity=0 time=360
note_on channel=0 note=60 velocity=63 time=0
note_on channel=0 note=60 velocity=0 time=120
note_on channel=0 note=58 velocity=72 time=0
note_on channel=0 note=58 velocity=0 time=0
note_on channel=0 note=56 velocity=63 time=0
note_on channel=0 note=56 velocity=0 time=0
note_on channel=0 note=55 velocity=72 time=0
control_change channel=0 control=64 value=127 time=183
note_on channel=0 note=71 velocity=56 time=0
note_on channel=0 note=71 velocity=0 time=0
note_on channel=0 note=55 velocity=0 time=0
note_on channel=0 note=77 velocity=0 time=0
note_on channel=0 note=72 velocity=44 time=0
note_on channel=0 note=75 velocity=53 time=0
note_on channel=0 note=56 velocity=48 time=0
control_change channel=0 control=64 value=0 time=27
control_change channel=0 control=64 value=127 time=202
note_on channel=0 note=56 velocity=0 time=0
note_on channel=0 note=75 velocity=0 time=0
note_on channel=0 note=72 velocity=0 time=0
note_on channel=0 note=69 velocity=41 time=0
note_on channel=0 note=74 velocity=49 time=0
note_on channel=0 note=54 velocity=42 time=0
control_change channel=0 control=64 value=0 time=15
control_change channel=0 control=64 value=127 time=214
note_on channel=0 note=54 velocity=0 time=0
note_on channel=0 note=69 velocity=0 time=0
note_on channel=0 note=70 velocity=55 time=0
note_on channel=0 note=55 velocity=51 time=0
control_change channel=0 control=64 value=0 time=8
control_change channel=0 control=64 value=127 time=221
note_on channel=0 note=55 velocity=0 time=251
note_on channel=0 note=70 velocity=0 time=0
note_on channel=0 note=74 velocity=0 time=0
note_on channel=0 note=67 velocity=41 time=0
note_on channel=0 note=72 velocity=49 time=0
note_on channel=0 note=52 velocity=44 time=0
control_change channel=0 control=64 value=0 time=15
control_change channel=0 control=64 value=127 time=191
note_on channel=0 note=52 velocity=0 time=274
note_on channel=0 note=67 velocity=0 time=0
note_on channel=0 note=69 velocity=55 time=0
note_on channel=0 note=53 velocity=52 time=0
control_change channel=0 control=64 value=0 time=16
control_change channel=0 control=64 value=127 time=236
note_on channel=0 note=53 velocity=0 time=0
note_on channel=0 note=69 velocity=0 time=0
note_on channel=0 note=72 velocity=0 time=0
note_on channel=0 note=65 velocity=42 time=0
note_on channel=0 note=71 velocity=50 time=0
note_on channel=0 note=50 velocity=34 time=0
control_change channel=0 control=64 value=0 time=15
control_change channel=0 control=64 value=127 time=214
note_on channel=0 note=50 velocity=0 time=0
note_on channel=0 note=71 velocity=0 time=0
note_on channel=0 note=65 velocity=0 time=0
note_on channel=0 note=72 velocity=68 time=0
note_on channel=0 note=36 velocity=51 time=0
note_on channel=0 note=48 velocity=51 time=0
control_change channel=0 control=64 value=0 time=0
control_change channel=0 control=64 value=127 time=97
note_on channel=0 note=72 velocity=0 time=23
note_on channel=0 note=64 velocity=34 time=0
note_on channel=0 note=67 velocity=40 time=0
note_on channel=0 note=67 velocity=0 time=120
note_on channel=0 note=36 velocity=0 time=0
note_on channel=0 note=48 velocity=0 time=0
note_on channel=0 note=64 velocity=0 time=0
note_on channel=0 note=72 velocity=62 time=0
note_on channel=0 note=60 velocity=42 time=0
note_on channel=0 note=72 velocity=0 time=120
note_on channel=0 note=64 velocity=33 time=0
note_on channel=0 note=67 velocity=39 time=0
note_on channel=0 note=60 velocity=0 time=17
note_on channel=0 note=67 velocity=0 time=103
note_on channel=0 note=64 velocity=0 time=0
note_on channel=0 note=72 velocity=64 time=0
note_on channel=0 note=60 velocity=42 time=0
note_on channel=0 note=72 velocity=0 time=120
note_on channel=0 note=64 velocity=34 time=0
note_on channel=0 note=67 velocity=41 time=0
note_on channel=0 note=60 velocity=0 time=17
note_on channel=0 note=67 velocity=0 time=103
note_on channel=0 note=64 velocity=0 time=0
note_on channel=0 note=74 velocity=68 time=0
note_on channel=0 note=60 velocity=42 time=0
note_on channel=0 note=74 velocity=0 time=0
note_on channel=0 note=64 velocity=34 time=0
note_on channel=0 note=67 velocity=40 time=0
note_on channel=0 note=60 velocity=0 time=17
note_on channel=0 note=67 velocity=0 time=0
note_on channel=0 note=64 velocity=0 time=0
note_on channel=0 note=76 velocity=62 time=0
note_on channel=0 note=60 velocity=51 time=0
control_change channel=0 control=64 value=0 time=15
control_change channel=0 control=64 value=127 time=77
note_on channel=0 note=76 velocity=0 time=28
note_on channel=0 note=67 velocity=38 time=0
note_on channel=0 note=70 velocity=45 time=0
note_on channel=0 note=60 velocity=0 time=17
note_on channel=0 note=70 velocity=0 time=103
note_on channel=0 note=67 velocity=0 time=0
note_on channel=0 note=72 velocity=68 time=0
note_on channel=0 note=60 velocity=43 time=0
control_change channel=0 control=64 value=0 time=12
control_change channel=0 control=64 value=127 time=97
note_on channel=0 note=72 velocity=0 time=11
note_on channel=0 note=67 velocity=38 time=0
note_on channel=0 note=70 velocity=45 time=0
note_on channel=0 note=60 velocity=0 time=17
note_on channel=0 note=70 velocity=0 time=103
note_on channel=0 note=67 velocity=0 time=0
note_on channel=0 note=74 velocity=68 time=0
note_on channel=0 note=60 velocity=43 time=0
control_change channel=0 control=64 value=0 time=11
control_change channel=0 control=64 value=127 time=58
note_on channel=0 note=74 velocity=0 time=51
note_on channel=0 note=67 velocity=38 time=0
note_on channel=0 note=70 velocity=45 time=0
note_on channel=0 note=60 velocity=0 time=17
note_on channel=0 note=70 velocity=0 time=103
note_on channel=0 note=67 velocity=0 time=0
note_on channel=0 note=76 velocity=70 time=0
note_on channel=0 note=60 velocity=43 time=0
control_change channel=0 control=64 value=0 time=13
control_change channel=0 control=64 value=127 time=96
note_on channel=0 note=76 velocity=0 time=0
note_on channel=0 note=67 velocity=38 time=0
note_on channel=0 note=70 velocity=45 time=0
note_on channel=0 note=60 velocity=0 time=17
note_on channel=0 note=70 velocity=0 time=0
note_on channel=0 note=67 velocity=0 time=0
note_on channel=0 note=77 velocity=68 time=0
note_on channel=0 note=60 velocity=51 time=0
control_change channel=0 control=64 value=0 time=0
control_change channel=0 control=64 value=127 time=97
note_on channel=0 note=77 velocity=0 time=23
note_on channel=0 note=65 velocity=34 time=0
note_on channel=0 note=69 velocity=40 time=0
note_on channel=0 note=60 velocity=0 time=17
note_on channel=0 note=69 velocity=0 time=103
note_on channel=0 note=65 velocity=0 time=0
note_on channel=0 note=77 velocity=62 time=0
note_on channel=0 note=60 velocity=42 time=0
note_on channel=0 note=77 velocity=0 time=120
note_on channel=0 note=65 velocity=33 time=0
note_on channel=0 note=69 velocity=39 time=0
note_on channel=0 note=60 velocity=0 time=17
note_on channel=0 note=69 velocity=0 time=103
note_on channel=0 note=65 velocity=0 time=0
note_on channel=0 note=77 velocity=64 time=0
note_on channel=0 note=60 velocity=42 time=0
note_on channel=0 note=77 velocity=0 time=120
note_on channel=0 note=65 velocity=34 time=0
note_on channel=0 note=69 velocity=41 time=0
note_on channel=0 note=60 velocity=0 time=17
note_on channel=0 note=69 velocity=0 time=103
note_on channel=0 note=65 velocity=0 time=0
note_on channel=0 note=76 velocity=68 time=0
note_on channel=0 note=60 velocity=42 time=0
note_on channel=0 note=76 velocity=0 time=0
note_on channel=0 note=65 velocity=34 time=0
note_on channel=0 note=69 velocity=40 time=0
note_on channel=0 note=60 velocity=0 time=17
note_on channel=0 note=69 velocity=0 time=0
note_on channel=0 note=65 velocity=0 time=0
note_on channel=0 note=74 velocity=62 time=0
note_on channel=0 note=60 velocity=51 time=0
control_change channel=0 control=64 value=0 time=15
control_change channel=0 control=64 value=127 time=77
note_on channel=0 note=74 velocity=0 time=28
note_on channel=0 note=65 velocity=38 time=0
note_on channel=0 note=68 velocity=45 time=0
note_on channel=0 note=60 velocity=0 time=17
note_on channel=0 note=68 velocity=0 time=103
note_on channel=0 note=65 velocity=0 time=0
note_on channel=0 note=72 velocity=68 time=0
note_on channel=0 note=60 velocity=43 time=0
control_change channel=0 control=64 value=0 time=12
control_change channel=0 control=64 value=127 time=97
note_on channel=0 note=72 velocity=0 time=11
note_on channel=0 note=65 velocity=38 time=0
note_on channel=0 note=68 velocity=45 time=0
note_on channel=0 note=60 velocity=0 time=17
note_on channel=0 note=68 velocity=0 time=103
note_on channel=0 note=65 velocity=0 time=0
note_on channel=0 note=71 velocity=68 time=0
note_on channel=0 note=60 velocity=43 time=0
control_change channel=0 control=64 value=0 time=11
control_change channel=0 control=64 value=127 time=58
note_on channel=0 note=71 velocity=0 time=51
note_on channel=0 note=65 velocity=38 time=0
note_on channel=0 note=68 velocity=45 time=0
note_on channel=0 note=60 velocity=0 time=17
note_on channel=0 note=68 velocity=0 time=103
note_on channel=0 note=65 velocity=0 time=0
note_on channel=0 note=74 velocity=70 time=0
note_on channel=0 note=60 velocity=43 time=0
control_change channel=0 control=64 value=0 time=13
control_change channel=0 control=64 value=127 time=96
note_on channel=0 note=74 velocity=0 time=0
note_on channel=0 note=65 velocity=38 time=0
note_on channel=0 note=68 velocity=45 time=0
note_on channel=0 note=60 velocity=0 time=24
note_on channel=0 note=68 velocity=0 time=0
note_on channel=0 note=65 velocity=0 time=0
note_on channel=0 note=72 velocity=68 time=0
note_on channel=0 note=36 velocity=51 time=0
note_on channel=0 note=48 velocity=51 time=0
control_change channel=0 control=64 value=0 time=0
control_change channel=0 control=64 value=127 time=97
note_on channel=0 note=72 velocity=0 time=23
note_on channel=0 note=64 velocity=34 time=0
note_on channel=0 note=67 velocity=40 time=0
note_on channel=0 note=67 velocity=0 time=120
note_on channel=0 note=36 velocity=0 time=0
note_on channel=0 note=48 velocity=0 time=0
note_on channel=0 note=64 velocity=0 time=0
note_on channel=0 note=71 velocity=62 time=0
note_on channel=0 note=60 velocity=42 time=0
note_on channel=0 note=71 velocity=0 time=120
note_on channel=0 note=64 velocity=33 time=0
note_on channel=0 note=67 velocity=39 time=0
note_on channel=0 note=60 velocity=0 time=17
note_on channel=0 note=67 velocity=0 time=103
note_on channel=0 note=64 velocity=0 time=0
note_on channel=0 note=72 velocity=64 time=0
note_on channel=0 note=60 velocity=42 time=0
note_on channel=0 note=72 velocity=0 time=120
note_on channel=0 note=64 velocity=34 time=0
note_on channel=0 note=67 velocity=41 time=0
note_on channel=0 note=60 velocity=0 time=17
note_on channel=0 note=67 velocity=0 time=103
note_on channel=0 note=64 velocity=0 time=0
note_on channel=0 note=74 velocity=68 time=0
note_on channel=0 note=60 velocity=42 time=0
note_on channel=0 note=74 velocity=0 time=0
note_on channel=0 note=64 velocity=34 time=0
note_on channel=0 note=67 velocity=40 time=0
note_on channel=0 note=60 velocity=0 time=17
note_on channel=0 note=67 velocity=0 time=0
note_on channel=0 note=64 velocity=0 time=0
note_on channel=0 note=76 velocity=62 time=0
note_on channel=0 note=60 velocity=51 time=0
control_change channel=0 control=64 value=0 time=15
control_change channel=0 control=64 value=127 time=77
note_on channel=0 note=76 velocity=0 time=28
note_on channel=0 note=67 velocity=38 time=0
note_on channel=0 note=70 velocity=45 time=0
note_on channel=0 note=60 velocity=0 time=17
note_on channel=0 note=70 velocity=0 time=103
note_on channel=0 note=67 velocity=0 time=0
note_on channel=0 note=72 velocity=68 time=0
note_on channel=0 note=60 velocity=43 time=0
control_change channel=0 control=64 value=0 time=12
control_change channel=0 control=64 value=127 time=97
note_on channel=0 note=72 velocity=0 time=11
note_on channel=0 note=67 velocity=38 time=0
note_on channel=0 note=70 velocity=45 time=0
note_on channel=0 note=60 velocity=0 time=17
note_on channel=0 note=70 velocity=0 time=103
note_on channel=0 note=67 velocity=0 time=0
note_on channel=0 note=74 velocity=68 time=0
note_on channel=0 note=60 velocity=43 time=0
control_change channel=0 control=64 value=0 time=11
control_change channel=0 control=64 value=127 time=58
note_on channel=0 note=74 velocity=0 time=51
note_on channel=0 note=67 velocity=38 time=0
note_on channel=0 note=70 velocity=45 time=0
note_on channel=0 note=60 velocity=0 time=17
note_on channel=0 note=70 velocity=0 time=103
note_on channel=0 note=67 velocity=0 time=0
note_on channel=0 note=76 velocity=70 time=0
note_on channel=0 note=60 velocity=43 time=0
control_change channel=0 control=64 value=0 time=13
control_change channel=0 control=64 value=127 time=96
note_on channel=0 note=76 velocity=0 time=0
note_on channel=0 note=67 velocity=38 time=0
note_on channel=0 note=70 velocity=45 time=0
note_on channel=0 note=60 velocity=0 time=17
note_on channel=0 note=70 velocity=0 time=0
note_on channel=0 note=67 velocity=0 time=0
note_on channel=0 note=77 velocity=68 time=0
note_on channel=0 note=60 velocity=51 time=0
control_change channel=0 control=64 value=0 time=0
control_change channel=0 control=64 value=127 time=97
note_on channel=0 note=77 velocity=0 time=23
note_on channel=0 note=65 velocity=34 time=0
note_on channel=0 note=69 velocity=40 time=0
note_on channel=0 note=60 velocity=0 time=17
note_on channel=0 note=69 velocity=0 time=103
note_on channel=0 note=65 velocity=0 time=0
note_on channel=0 note=77 velocity=62 time=0
note_on channel=0 note=60 velocity=42 time=0
note_on channel=0 note=77 velocity=0 time=120
note_on channel=0 note=65 velocity=33 time=0
note_on channel=0 note=69 velocity=39 time=0
note_on channel=0 note=60 velocity=0 time=17
note_on channel=0 note=69 velocity=0 time=103
note_on channel=0 note=65 velocity=0 time=0
note_on channel=0 note=77 velocity=64 time=0
note_on channel=0 note=60 velocity=42 time=0
note_on channel=0 note=77 velocity=0 time=120
note_on channel=0 note=65 velocity=34 time=0
note_on channel=0 note=69 velocity=41 time=0
note_on channel=0 note=60 velocity=0 time=17
note_on channel=0 note=69 velocity=0 time=103
note_on channel=0 note=65 velocity=0 time=0
note_on channel=0 note=76 velocity=68 time=0
note_on channel=0 note=60 velocity=42 time=0
note_on channel=0 note=76 velocity=0 time=0
note_on channel=0 note=65 velocity=34 time=0
note_on channel=0 note=69 velocity=40 time=0
note_on channel=0 note=60 velocity=0 time=17
note_on channel=0 note=69 velocity=0 time=0
note_on channel=0 note=65 velocity=0 time=0
note_on channel=0 note=74 velocity=62 time=0
note_on channel=0 note=60 velocity=51 time=0
control_change channel=0 control=64 value=0 time=15
control_change channel=0 control=64 value=127 time=77
note_on channel=0 note=74 velocity=0 time=28
note_on channel=0 note=65 velocity=38 time=0
note_on channel=0 note=68 velocity=45 time=0
note_on channel=0 note=60 velocity=0 time=17
note_on channel=0 note=68 velocity=0 time=103
note_on channel=0 note=65 velocity=0 time=0
note_on channel=0 note=72 velocity=68 time=0
note_on channel=0 note=60 velocity=43 time=0
control_change channel=0 control=64 value=0 time=12
control_change channel=0 control=64 value=127 time=97
note_on channel=0 note=72 velocity=0 time=11
note_on channel=0 note=65 velocity=38 time=0
note_on channel=0 note=68 velocity=45 time=0
note_on channel=0 note=60 velocity=0 time=17
note_on channel=0 note=68 velocity=0 time=103
note_on channel=0 note=65 velocity=0 time=0
note_on channel=0 note=71 velocity=68 time=0
note_on channel=0 note=60 velocity=43 time=0
control_change channel=0 control=64 value=0 time=11
control_change channel=0 control=64 value=127 time=58
note_on channel=0 note=71 velocity=0 time=51
note_on channel=0 note=65 velocity=38 time=0
note_on channel=0 note=68 velocity=45 time=0
note_on channel=0 note=60 velocity=0 time=17
note_on channel=0 note=68 velocity=0 time=103
note_on channel=0 note=65 velocity=0 time=0
note_on channel=0 note=74 velocity=70 time=0
note_on channel=0 note=60 velocity=43 time=0
control_change channel=0 control=64 value=0 time=13
control_change channel=0 control=64 value=127 time=96
note_on channel=0 note=74 velocity=0 time=0
note_on channel=0 note=65 velocity=38 time=0
note_on channel=0 note=68 velocity=45 time=0
note_on channel=0 note=60 velocity=0 time=24
note_on channel=0 note=68 velocity=0 time=0
note_on channel=0 note=65 velocity=0 time=0
note_on channel=0 note=72 velocity=78 time=0
note_on channel=0 note=48 velocity=51 time=0
control_change channel=0 control=64 value=0 time=15
control_change channel=0 control=64 value=127 time=77
note_on channel=0 note=72 velocity=0 time=28
note_on channel=0 note=64 velocity=38 time=0
note_on channel=0 note=67 velocity=45 time=0
note_on channel=0 note=48 velocity=0 time=108
note_on channel=0 note=67 velocity=0 time=12
note_on channel=0 note=64 velocity=0 time=0
note_on channel=0 note=72 velocity=68 time=0
note_on channel=0 note=60 velocity=43 time=0
note_on channel=0 note=72 velocity=0 time=120
note_on channel=0 note=64 velocity=38 time=0
note_on channel=0 note=67 velocity=45 time=0
note_on channel=0 note=60 velocity=0 time=17
note_on channel=0 note=67 velocity=0 time=103
note_on channel=0 note=64 velocity=0 time=0
note_on channel=0 note=71 velocity=68 time=0
note_on channel=0 note=60 velocity=43 time=0
control_change channel=0 control=64 value=0 time=11
control_change channel=0 control=64 value=127 time=58
note_on channel=0 note=71 velocity=0 time=51
note_on channel=0 note=65 velocity=38 time=0
note_on channel=0 note=68 velocity=45 time=0
note_on channel=0 note=60 velocity=0 time=17
note_on channel=0 note=68 velocity=0 time=103
note_on channel=0 note=65 velocity=0 time=0
note_on channel=0 note=74 velocity=70 time=0
note_on channel=0 note=60 velocity=43 time=0
note_on channel=0 note=74 velocity=0 time=0
note_on channel=0 note=65 velocity=38 time=0
note_on channel=0 note=68 velocity=45 time=0
note_on channel=0 note=60 velocity=0 time=24
note_on channel=0 note=68 velocity=0 time=0
note_on channel=0 note=65 velocity=0 time=0
note_on channel=0 note=72 velocity=76 time=0
note_on channel=0 note=48 velocity=51 time=0
control_change channel=0 control=64 value=0 time=15
control_change channel=0 control=64 value=127 time=77
note_on channel=0 note=72 velocity=0 time=28
note_on channel=0 note=64 velocity=38 time=0
note_on channel=0 note=67 velocity=45 time=0
note_on channel=0 note=48 velocity=0 time=108
note_on channel=0 note=67 velocity=0 time=12
note_on channel=0 note=64 velocity=0 time=0
note_on channel=0 note=72 velocity=68 time=0
note_on channel=0 note=60 velocity=43 time=0
note_on channel=0 note=72 velocity=0 time=120
note_on channel=0 note=64 velocity=38 time=0
note_on channel=0 note=67 velocity=45 time=0
note_on channel=0 note=60 velocity=0 time=17
note_on channel=0 note=67 velocity=0 time=103
note_on channel=0 note=64 velocity=0 time=0
note_on channel=0 note=71 velocity=68 time=0
note_on channel=0 note=60 velocity=43 time=0
control_change channel=0 control=64 value=0 time=11
control_change channel=0 control=64 value=127 time=58
note_on channel=0 note=71 velocity=0 time=51
note_on channel=0 note=65 velocity=38 time=0
note_on channel=0 note=68 velocity=45 time=0
note_on channel=0 note=60 velocity=0 time=17
note_on channel=0 note=68 velocity=0 time=103
note_on channel=0 note=65 velocity=0 time=0
note_on channel=0 note=74 velocity=70 time=0
note_on channel=0 note=60 velocity=43 time=0
note_on channel=0 note=74 velocity=0 time=0
note_on channel=0 note=65 velocity=38 time=0
note_on channel=0 note=68 velocity=45 time=0
note_on channel=0 note=60 velocity=0 time=24
note_on channel=0 note=68 velocity=0 time=0
note_on channel=0 note=65 velocity=0 time=0
note_on channel=0 note=64 velocity=59 time=0
note_on channel=0 note=67 velocity=59 time=0
note_on channel=0 note=72 velocity=70 time=0
note_on channel=0 note=48 velocity=51 time=0
control_change channel=0 control=64 value=0 time=0
note_on channel=0 note=72 velocity=0 time=120
note_on channel=0 note=64 velocity=0 time=0
note_on channel=0 note=67 velocity=0 time=0
note_on channel=0 note=60 velocity=35 time=0
note_on channel=0 note=62 velocity=40 time=0
note_on channel=0 note=60 velocity=0 time=12
note_on channel=0 note=64 velocity=35 time=91
note_on channel=0 note=62 velocity=0 time=12
note_on channel=0 note=48 velocity=0 time=96
note_on channel=0 note=65 velocity=40 time=0
note_on channel=0 note=64 velocity=0 time=12
note_on channel=0 note=67 velocity=35 time=4
note_on channel=0 note=65 velocity=0 time=12
note_on channel=0 note=69 velocity=40 time=9
note_on channel=0 note=67 velocity=0 time=12
note_on channel=0 note=71 velocity=33 time=33
note_on channel=0 note=69 velocity=0 time=12
note_on channel=0 note=72 velocity=40 time=0
note_on channel=0 note=71 velocity=0 time=12
note_on channel=0 note=71 velocity=33 time=108
note_on channel=0 note=72 velocity=0 time=12
note_on channel=0 note=72 velocity=40 time=86
note_on channel=0 note=71 velocity=0 time=12
note_on channel=0 note=71 velocity=33 time=108
note_on channel=0 note=72 velocity=0 time=12
note_on channel=0 note=72 velocity=40 time=108
note_on channel=0 note=71 velocity=0 time=12
note_on channel=0 note=71 velocity=34 time=108
note_on channel=0 note=72 velocity=0 time=12
note_on channel=0 note=72 velocity=40 time=108
note_on channel=0 note=71 velocity=0 time=12
note_on channel=0 note=71 velocity=33 time=0
note_on channel=0 note=72 velocity=0 time=12
note_on channel=0 note=71 velocity=0 time=0
note_on channel=0 note=69 velocity=38 time=0
note_on channel=0 note=72 velocity=43 time=0
note_on channel=0 note=53 velocity=31 time=24
note_on channel=0 note=55 velocity=36 time=67
note_on channel=0 note=53 velocity=0 time=12
note_on channel=0 note=57 velocity=31 time=14
note_on channel=0 note=55 velocity=0 time=12
note_on channel=0 note=58 velocity=36 time=38
note_on channel=0 note=57 velocity=0 time=12
note_on channel=0 note=60 velocity=31 time=81
note_on channel=0 note=58 velocity=0 time=12
note_on channel=0 note=62 velocity=36 time=28
note_on channel=0 note=60 velocity=0 time=12
note_on channel=0 note=64 velocity=29 time=0
note_on channel=0 note=62 velocity=0 time=12
note_on channel=0 note=69 velocity=0 time=4
note_on channel=0 note=72 velocity=0 time=0
note_on channel=0 note=69 velocity=49 time=0
note_on channel=0 note=65 velocity=36 time=0
note_on channel=0 note=64 velocity=0 time=12
note_on channel=0 note=64 velocity=29 time=64
note_on channel=0 note=65 velocity=0 time=12
note_on channel=0 note=65 velocity=36 time=4
note_on channel=0 note=64 velocity=0 time=12
note_on channel=0 note=64 velocity=29 time=16
note_on channel=0 note=65 velocity=0 time=12
note_on channel=0 note=69 velocity=0 time=4
note_on channel=0 note=77 velocity=47 time=0
note_on channel=0 note=65 velocity=36 time=0
note_on channel=0 note=64 velocity=0 time=4
note_on channel=0 note=64 velocity=27 time=40
note_on channel=0 note=65 velocity=0 time=4
note_on channel=0 note=65 velocity=34 time=4
note_on channel=0 note=64 velocity=0 time=4
note_on channel=0 note=64 velocity=26 time=52
note_on channel=0 note=65 velocity=0 time=12
note_on channel=0 note=64 velocity=0 time=16
note_on channel=0 note=77 velocity=0 time=0
note_on channel=0 note=69 velocity=41 time=0
note_on channel=0 note=72 velocity=49 time=0
note_on channel=0 note=65 velocity=30 time=0
note_on channel=0 note=64 velocity=25 time=28
note_on channel=0 note=65 velocity=0 time=4
note_on channel=0 note=65 velocity=30 time=4
note_on channel=0 note=64 velocity=0 time=12
note_on channel=0 note=64 velocity=25 time=28
note_on channel=0 note=65 velocity=0 time=4
note_on channel=0 note=69 velocity=0 time=28
note_on channel=0 note=72 velocity=0 time=0
note_on channel=0 note=81 velocity=43 time=0
note_on channel=0 note=77 velocity=36 time=0
note_on channel=0 note=65 velocity=30 time=0
note_on channel=0 note=64 velocity=0 time=12
note_on channel=0 note=64 velocity=25 time=16
note_on channel=0 note=65 velocity=0 time=4
note_on channel=0 note=65 velocity=30 time=16
note_on channel=0 note=64 velocity=0 time=12
note_on channel=0 note=64 velocity=25 time=0
note_on channel=0 note=65 velocity=0 time=12
note_on channel=0 note=81 velocity=0 time=0
note_on channel=0 note=77 velocity=0 time=0
note_on channel=0 note=69 velocity=42 time=0
note_on channel=0 note=72 velocity=50 time=0
note_on channel=0 note=65 velocity=30 time=0
note_on channel=0 note=64 velocity=0 time=4
note_on channel=0 note=64 velocity=25 time=4
note_on channel=0 note=65 velocity=0 time=4
note_on channel=0 note=65 velocity=30 time=64
note_on channel=0 note=64 velocity=0 time=4
note_on channel=0 note=64 velocity=25 time=4
note_on channel=0 note=65 velocity=0 time=12
note_on channel=0 note=69 velocity=0 time=4
note_on channel=0 note=72 velocity=0 time=0
note_on channel=0 note=84 velocity=43 time=0
note_on channel=0 note=81 velocity=36 time=0
note_on channel=0 note=65 velocity=30 time=0
note_on channel=0 note=64 velocity=0 time=4
note_on channel=0 note=64 velocity=25 time=16
note_on channel=0 note=65 velocity=0 time=12
note_on channel=0 note=65 velocity=30 time=28
note_on channel=0 note=64 velocity=0 time=12
note_on channel=0 note=64 velocity=25 time=0
note_on channel=0 note=65 velocity=0 time=12
note_on channel=0 note=84 velocity=0 time=0
note_on channel=0 note=81 velocity=0 time=0
note_on channel=0 note=64 velocity=0 time=0
note_on channel=0 note=69 velocity=38 time=0
note_on channel=0 note=72 velocity=43 time=0
note_on channel=0 note=65 velocity=30 time=0
note_on channel=0 note=65 velocity=0 time=24
note_on channel=0 note=53 velocity=31 time=0
note_on channel=0 note=55 velocity=36 time=67
note_on channel=0 note=53 velocity=0 time=12
note_on channel=0 note=57 velocity=31 time=14
note_on channel=0 note=55 velocity=0 time=12
note_on channel=0 note=58 velocity=36 time=38
note_on channel=0 note=57 velocity=0 time=12
note_on channel=0 note=60 velocity=31 time=81
note_on channel=0 note=58 velocity=0 time=12
note_on channel=0 note=62 velocity=36 time=28
note_on channel=0 note=60 velocity=0 time=12
note_on channel=0 note=64 velocity=29 time=0
note_on channel=0 note=62 velocity=0 time=12
note_on channel=0 note=69 velocity=0 time=4
note_on channel=0 note=72 velocity=0 time=0
note_on channel=0 note=69 velocity=49 time=0
note_on channel=0 note=65 velocity=36 time=0
note_on channel=0 note=64 velocity=0 time=12
note_on channel=0 note=64 velocity=29 time=64
note_on channel=0 note=65 velocity=0 time=12
note_on channel=0 note=65 velocity=36 time=4
note_on channel=0 note=64 velocity=0 time=12
note_on channel=0 note=64 velocity=29 time=16
note_on channel=0 note=65 velocity=0 time=12
note_on channel=0 note=69 velocity=0 time=4
note_on channel=0 note=77 velocity=46 time=0
note_on channel=0 note=65 velocity=36 time=0
note_on channel=0 note=64 velocity=0 time=4
note_on channel=0 note=64 velocity=27 time=40
note_on channel=0 note=65 velocity=0 time=4
note_on channel=0 note=65 velocity=34 time=4
note_on channel=0 note=64 velocity=0 time=4
note_on channel=0 note=64 velocity=26 time=52
note_on channel=0 note=65 velocity=0 time=12
note_on channel=0 note=64 velocity=0 time=16
note_on channel=0 note=77 velocity=0 time=0
note_on channel=0 note=69 velocity=41 time=0
note_on channel=0 note=72 velocity=49 time=0
note_on channel=0 note=65 velocity=30 time=0
note_on channel=0 note=64 velocity=25 time=28
note_on channel=0 note=65 velocity=0 time=4
note_on channel=0 note=65 velocity=30 time=4
note_on channel=0 note=64 velocity=0 time=12
note_on channel=0 note=64 velocity=25 time=28
note_on channel=0 note=65 velocity=0 time=4
note_on channel=0 note=69 velocity=0 time=28
note_on channel=0 note=72 velocity=0 time=0
note_on channel=0 note=81 velocity=43 time=0
note_on channel=0 note=77 velocity=36 time=0
note_on channel=0 note=65 velocity=30 time=0
note_on channel=0 note=64 velocity=0 time=12
note_on channel=0 note=64 velocity=25 time=16
note_on channel=0 note=65 velocity=0 time=4
note_on channel=0 note=65 velocity=30 time=16
note_on channel=0 note=64 velocity=0 time=12
note_on channel=0 note=64 velocity=25 time=0
note_on channel=0 note=65 velocity=0 time=12
note_on channel=0 note=81 velocity=0 time=0
note_on channel=0 note=77 velocity=0 time=0
note_on channel=0 note=69 velocity=42 time=0
note_on channel=0 note=72 velocity=50 time=0
note_on channel=0 note=65 velocity=30 time=0
note_on channel=0 note=64 velocity=0 time=4
note_on channel=0 note=64 velocity=25 time=4
note_on channel=0 note=65 velocity=0 time=4
note_on channel=0 note=65 velocity=30 time=64
note_on channel=0 note=64 velocity=0 time=4
note_on channel=0 note=64 velocity=25 time=4
note_on channel=0 note=65 velocity=0 time=12
note_on channel=0 note=69 velocity=0 time=4
note_on channel=0 note=72 velocity=0 time=0
note_on channel=0 note=84 velocity=43 time=0
note_on channel=0 note=81 velocity=36 time=0
note_on channel=0 note=65 velocity=30 time=0
note_on channel=0 note=64 velocity=0 time=4
note_on channel=0 note=63 velocity=25 time=16
note_on channel=0 note=65 velocity=0 time=12
note_on channel=0 note=65 velocity=30 time=28
note_on channel=0 note=63 velocity=0 time=12
note_on channel=0 note=63 velocity=25 time=0
note_on channel=0 note=65 velocity=0 time=12
note_on channel=0 note=84 velocity=0 time=0
note_on channel=0 note=81 velocity=0 time=0
note_on channel=0 note=63 velocity=0 time=0
note_on channel=0 note=69 velocity=41 time=0
note_on channel=0 note=72 velocity=41 time=0
note_on channel=0 note=74 velocity=49 time=0
note_on channel=0 note=78 velocity=49 time=0
note_on channel=0 note=61 velocity=39 time=0
note_on channel=0 note=62 velocity=34 time=120
note_on channel=0 note=61 velocity=0 time=60
note_on channel=0 note=62 velocity=0 time=60
note_on channel=0 note=61 velocity=39 time=0
note_on channel=0 note=62 velocity=35 time=0
note_on channel=0 note=61 velocity=0 time=60
note_on channel=0 note=62 velocity=0 time=60
note_on channel=0 note=59 velocity=41 time=0
note_on channel=0 note=60 velocity=35 time=120
note_on channel=0 note=59 velocity=0 time=60
note_on channel=0 note=60 velocity=0 time=60
note_on channel=0 note=59 velocity=42 time=0
note_on channel=0 note=60 velocity=36 time=120
note_on channel=0 note=59 velocity=0 time=60
note_on channel=0 note=72 velocity=0 time=0
note_on channel=0 note=78 velocity=0 time=0
note_on channel=0 note=69 velocity=0 time=0
note_on channel=0 note=60 velocity=0 time=0
note_on channel=0 note=74 velocity=0 time=0
note_on channel=0 note=56 velocity=44 time=0
note_on channel=0 note=57 velocity=37 time=120
note_on channel=0 note=56 velocity=0 time=60
note_on channel=0 note=57 velocity=0 time=60
note_on channel=0 note=56 velocity=45 time=0
note_on channel=0 note=57 velocity=37 time=120
note_on channel=0 note=56 velocity=0 time=60
note_on channel=0 note=57 velocity=0 time=60
note_on channel=0 note=53 velocity=44 time=0
note_on channel=0 note=54 velocity=38 time=120
note_on channel=0 note=53 velocity=0 time=60
note_on channel=0 note=54 velocity=0 time=60
note_on channel=0 note=53 velocity=44 time=0
note_on channel=0 note=54 velocity=39 time=120
note_on channel=0 note=53 velocity=0 time=60
note_on channel=0 note=54 velocity=0 time=0
note_on channel=0 note=49 velocity=45 time=0
note_on channel=0 note=50 velocity=39 time=120
note_on channel=0 note=49 velocity=0 time=60
note_on channel=0 note=50 velocity=0 time=60
note_on channel=0 note=49 velocity=46 time=0
note_on channel=0 note=50 velocity=40 time=120
note_on channel=0 note=49 velocity=0 time=60
note_on channel=0 note=50 velocity=0 time=0
note_on channel=0 note=78 velocity=70 time=0
note_on channel=0 note=47 velocity=48 time=0
note_on channel=0 note=48 velocity=41 time=120
note_on channel=0 note=47 velocity=0 time=60
note_on channel=0 note=48 velocity=0 time=60
note_on channel=0 note=47 velocity=48 time=0
note_on channel=0 note=48 velocity=41 time=120
note_on channel=0 note=47 velocity=0 time=60
note_on channel=0 note=48 velocity=0 time=0
note_on channel=0 note=78 velocity=0 time=0
note_on channel=0 note=81 velocity=68 time=0
note_on channel=0 note=44 velocity=54 time=0
note_on channel=0 note=45 velocity=42 time=0
note_on channel=0 note=44 velocity=0 time=60
note_on channel=0 note=45 velocity=0 time=60
note_on channel=0 note=44 velocity=52 time=0
note_on channel=0 note=45 velocity=43 time=120
note_on channel=0 note=44 velocity=0 time=60
note_on channel=0 note=45 velocity=0 time=0
note_on channel=0 note=81 velocity=0 time=0
note_on channel=0 note=84 velocity=66 time=0
note_on channel=0 note=41 velocity=55 time=0
note_on channel=0 note=42 velocity=44 time=120
note_on channel=0 note=41 velocity=0 time=60
note_on channel=0 note=42 velocity=0 time=60
note_on channel=0 note=41 velocity=51 time=0
note_on channel=0 note=42 velocity=44 time=120
note_on channel=0 note=41 velocity=0 time=60
note_on channel=0 note=42 velocity=0 time=0
note_on channel=0 note=78 velocity=72 time=0
note_on channel=0 note=37 velocity=57 time=0
note_on channel=0 note=38 velocity=44 time=120
note_on channel=0 note=37 velocity=0 time=60
note_on channel=0 note=38 velocity=0 time=60
note_on channel=0 note=37 velocity=51 time=0
note_on channel=0 note=38 velocity=44 time=120
note_on channel=0 note=37 velocity=0 time=60
note_on channel=0 note=38 velocity=0 time=0
note_on channel=0 note=84 velocity=0 time=0
note_on channel=0 note=82 velocity=73 time=0
note_on channel=0 note=37 velocity=56 time=0
note_on channel=0 note=38 velocity=50 time=120
note_on channel=0 note=37 velocity=0 time=60
note_on channel=0 note=38 velocity=0 time=60
note_on channel=0 note=37 velocity=57 time=0
note_on channel=0 note=38 velocity=44 time=120
note_on channel=0 note=37 velocity=0 time=60
note_on channel=0 note=38 velocity=0 time=50
note_on channel=0 note=78 velocity=0 time=0
note_on channel=0 note=79 velocity=75 time=0
note_on channel=0 note=38 velocity=61 time=0
note_on channel=0 note=39 velocity=52 time=120
note_on channel=0 note=38 velocity=0 time=60
note_on channel=0 note=39 velocity=0 time=60
note_on channel=0 note=38 velocity=58 time=0
note_on channel=0 note=39 velocity=52 time=120
note_on channel=0 note=38 velocity=0 time=60
note_on channel=0 note=39 velocity=0 time=0
note_on channel=0 note=73 velocity=66 time=0
note_on channel=0 note=39 velocity=58 time=0
note_on channel=0 note=40 velocity=44 time=120
note_on channel=0 note=39 velocity=0 time=60
note_on channel=0 note=40 velocity=0 time=60
note_on channel=0 note=39 velocity=54 time=0
note_on channel=0 note=40 velocity=44 time=120
note_on channel=0 note=39 velocity=0 time=60
note_on channel=0 note=73 velocity=0 time=0
note_on channel=0 note=40 velocity=0 time=0
note_on channel=0 note=72 velocity=74 time=0
note_on channel=0 note=40 velocity=56 time=0
note_on channel=0 note=41 velocity=48 time=120
note_on channel=0 note=40 velocity=0 time=60
note_on channel=0 note=41 velocity=0 time=60
note_on channel=0 note=40 velocity=51 time=0
note_on channel=0 note=41 velocity=44 time=120
note_on channel=0 note=40 velocity=0 time=60
note_on channel=0 note=82 velocity=0 time=0
note_on channel=0 note=79 velocity=0 time=0
note_on channel=0 note=41 velocity=0 time=0
note_on channel=0 note=81 velocity=67 time=0
note_on channel=0 note=77 velocity=57 time=0
note_on channel=0 note=40 velocity=51 time=0
note_on channel=0 note=41 velocity=44 time=120
note_on channel=0 note=40 velocity=0 time=60
note_on channel=0 note=41 velocity=0 time=60
note_on channel=0 note=40 velocity=51 time=0
note_on channel=0 note=41 velocity=44 time=120
note_on channel=0 note=40 velocity=0 time=60
note_on channel=0 note=41 velocity=0 time=50
note_on channel=0 note=77 velocity=0 time=0
note_on channel=0 note=81 velocity=0 time=0
note_on channel=0 note=72 velocity=0 time=0
note_on channel=0 note=70 velocity=61 time=0
note_on channel=0 note=74 velocity=61 time=0
note_on channel=0 note=79 velocity=72 time=0
note_on channel=0 note=33 velocity=51 time=0
note_on channel=0 note=34 velocity=44 time=120
note_on channel=0 note=33 velocity=0 time=60
note_on channel=0 note=34 velocity=0 time=60
note_on channel=0 note=33 velocity=51 time=0
note_on channel=0 note=34 velocity=44 time=120
note_on channel=0 note=33 velocity=0 time=60
note_on channel=0 note=34 velocity=0 time=50
note_on channel=0 note=79 velocity=0 time=0
note_on channel=0 note=74 velocity=0 time=0
note_on channel=0 note=70 velocity=0 time=0
note_on channel=0 note=67 velocity=53 time=0
note_on channel=0 note=70 velocity=53 time=0
note_on channel=0 note=76 velocity=64 time=0
note_on channel=0 note=35 velocity=51 time=0
note_on channel=0 note=36 velocity=44 time=120
note_on channel=0 note=35 velocity=0 time=60
note_on channel=0 note=36 velocity=0 time=60
note_on channel=0 note=35 velocity=51 time=0
note_on channel=0 note=36 velocity=44 time=0
note_on channel=0 note=35 velocity=0 time=60
note_on channel=0 note=36 velocity=0 time=50
note_on channel=0 note=76 velocity=0 time=0
note_on channel=0 note=70 velocity=0 time=0
note_on channel=0 note=67 velocity=0 time=0
note_on channel=0 note=65 velocity=64 time=0
note_on channel=0 note=69 velocity=64 time=0
note_on channel=0 note=77 velocity=77 time=0
note_on channel=0 note=29 velocity=48 time=0
note_on channel=0 note=29 velocity=0 time=240
note_on channel=0 note=65 velocity=0 time=0
note_on channel=0 note=69 velocity=0 time=0
note_on channel=0 note=77 velocity=0 time=0
note_on channel=0 note=65 velocity=73 time=0
note_on channel=0 note=69 velocity=88 time=0
note_on channel=0 note=53 velocity=54 time=0
note_on channel=0 note=57 velocity=64 time=0
control_change channel=0 control=64 value=127 time=311
note_on channel=0 note=53 velocity=0 time=470
note_on channel=0 note=65 velocity=0 time=0
note_on channel=0 note=69 velocity=0 time=0
note_on channel=0 note=57 velocity=0 time=0
note_on channel=0 note=62 velocity=57 time=0
note_on channel=0 note=65 velocity=68 time=0
note_on channel=0 note=50 velocity=41 time=0
note_on channel=0 note=53 velocity=49 time=0
control_change channel=0 control=64 value=0 time=6
control_change channel=0 control=64 value=127 time=206
note_on channel=0 note=50 velocity=0 time=258
note_on channel=0 note=62 velocity=0 time=0
note_on channel=0 note=65 velocity=0 time=0
note_on channel=0 note=53 velocity=0 time=0
note_on channel=0 note=58 velocity=59 time=0
note_on channel=0 note=62 velocity=70 time=0
note_on channel=0 note=46 velocity=41 time=0
note_on channel=0 note=50 velocity=49 time=0
control_change channel=0 control=64 value=0 time=141
note_on channel=0 note=50 velocity=0 time=99
note_on channel=0 note=58 velocity=0 time=0
note_on channel=0 note=62 velocity=0 time=0
note_on channel=0 note=46 velocity=0 time=0
note_on channel=0 note=67 velocity=73 time=0
note_on channel=0 note=70 velocity=88 time=0
note_on channel=0 note=55 velocity=54 time=0
note_on channel=0 note=58 velocity=64 time=0
control_change channel=0 control=64 value=127 time=156
note_on channel=0 note=58 velocity=0 time=564
note_on channel=0 note=67 velocity=0 time=0
note_on channel=0 note=70 velocity=0 time=0
note_on channel=0 note=55 velocity=0 time=0
note_on channel=0 note=65 velocity=57 time=0
note_on channel=0 note=69 velocity=68 time=0
note_on channel=0 note=53 velocity=41 time=0
note_on channel=0 note=57 velocity=49 time=0
note_on channel=0 note=57 velocity=0 time=0
note_on channel=0 note=65 velocity=0 time=0
note_on channel=0 note=69 velocity=0 time=0
note_on channel=0 note=53 velocity=0 time=0
note_on channel=0 note=67 velocity=77 time=0
note_on channel=0 note=64 velocity=64 time=0
note_on channel=0 note=52 velocity=49 time=0
note_on channel=0 note=55 velocity=58 time=0
control_change channel=0 control=64 value=0 time=6
control_change channel=0 control=64 value=127 time=178
note_on channel=0 note=52 velocity=0 time=286
note_on channel=0 note=64 velocity=0 time=0
note_on channel=0 note=67 velocity=0 time=10
note_on channel=0 note=55 velocity=0 time=0
note_on channel=0 note=60 velocity=57 time=0
note_on channel=0 note=64 velocity=68 time=0
note_on channel=0 note=48 velocity=44 time=0
note_on channel=0 note=52 velocity=52 time=0
control_change channel=0 control=64 value=0 time=156
note_on channel=0 note=52 velocity=0 time=84
note_on channel=0 note=60 velocity=0 time=0
note_on channel=0 note=64 velocity=0 time=0
note_on channel=0 note=48 velocity=0 time=0
note_on channel=0 note=69 velocity=73 time=0
note_on channel=0 note=72 velocity=88 time=0
note_on channel=0 note=57 velocity=54 time=0
note_on channel=0 note=60 velocity=64 time=0
control_change channel=0 control=64 value=127 time=311
note_on channel=0 note=57 velocity=0 time=470
note_on channel=0 note=69 velocity=0 time=0
note_on channel=0 note=72 velocity=0 time=0
note_on channel=0 note=60 velocity=0 time=0
note_on channel=0 note=65 velocity=57 time=0
note_on channel=0 note=69 velocity=68 time=0
note_on channel=0 note=53 velocity=41 time=0
note_on channel=0 note=57 velocity=49 time=0
control_change channel=0 control=64 value=0 time=6
control_change channel=0 control=64 value=127 time=206
note_on channel=0 note=53 velocity=0 time=258
note_on channel=0 note=65 velocity=0 time=0
note_on channel=0 note=69 velocity=0 time=0
note_on channel=0 note=57 velocity=0 time=0
note_on channel=0 note=62 velocity=59 time=0
note_on channel=0 note=65 velocity=70 time=0
note_on channel=0 note=50 velocity=41 time=0
note_on channel=0 note=53 velocity=49 time=0
control_change channel=0 control=64 value=0 time=141
note_on channel=0 note=53 velocity=0 time=99
note_on channel=0 note=62 velocity=0 time=0
note_on channel=0 note=65 velocity=0 time=0
note_on channel=0 note=50 velocity=0 time=0
note_on channel=0 note=70 velocity=73 time=0
note_on channel=0 note=74 velocity=88 time=0
note_on channel=0 note=58 velocity=54 time=0
note_on channel=0 note=62 velocity=64 time=0
control_change channel=0 control=64 value=127 time=156
note_on channel=0 note=62 velocity=0 time=564
note_on channel=0 note=70 velocity=0 time=0
note_on channel=0 note=74 velocity=0 time=0
note_on channel=0 note=58 velocity=0 time=0
note_on channel=0 note=69 velocity=57 time=0
note_on channel=0 note=72 velocity=68 time=0
note_on channel=0 note=57 velocity=41 time=0
note_on channel=0 note=60 velocity=49 time=0
note_on channel=0 note=60 velocity=0 time=0
note_on channel=0 note=69 velocity=0 time=0
note_on channel=0 note=72 velocity=0 time=0
note_on channel=0 note=57 velocity=0 time=0
note_on channel=0 note=70 velocity=77 time=0
note_on channel=0 note=67 velocity=64 time=0
note_on channel=0 note=55 velocity=49 time=0
note_on channel=0 note=58 velocity=58 time=0
control_change channel=0 control=64 value=0 time=6
control_change channel=0 control=64 value=127 time=178
note_on channel=0 note=55 velocity=0 time=286
note_on channel=0 note=67 velocity=0 time=0
note_on channel=0 note=70 velocity=0 time=10
note_on channel=0 note=58 velocity=0 time=0
note_on channel=0 note=64 velocity=57 time=0
note_on channel=0 note=67 velocity=68 time=0
note_on channel=0 note=52 velocity=44 time=0
note_on channel=0 note=55 velocity=52 time=0
control_change channel=0 control=64 value=0 time=156
note_on channel=0 note=55 velocity=0 time=84
note_on channel=0 note=64 velocity=0 time=0
note_on channel=0 note=67 velocity=0 time=0
note_on channel=0 note=52 velocity=0 time=0
note_on channel=0 note=70 velocity=73 time=0
note_on channel=0 note=79 velocity=88 time=0
note_on channel=0 note=58 velocity=54 time=0
note_on channel=0 note=67 velocity=64 time=0
control_change channel=0 control=64 value=127 time=156
note_on channel=0 note=67 velocity=0 time=0
note_on channel=0 note=70 velocity=0 time=0
note_on channel=0 note=79 velocity=0 time=0
note_on channel=0 note=58 velocity=0 time=0
note_on channel=0 note=69 velocity=57 time=0
note_on channel=0 note=77 velocity=68 time=0
note_on channel=0 note=57 velocity=41 time=0
note_on channel=0 note=65 velocity=49 time=0
note_on channel=0 note=65 velocity=0 time=0
note_on channel=0 note=69 velocity=0 time=0
note_on channel=0 note=77 velocity=0 time=0
note_on channel=0 note=57 velocity=0 time=0
note_on channel=0 note=67 velocity=73 time=0
note_on channel=0 note=76 velocity=88 time=0
note_on channel=0 note=55 velocity=54 time=0
note_on channel=0 note=64 velocity=64 time=0
control_change channel=0 control=64 value=0 time=0
control_change channel=0 control=64 value=127 time=156
note_on channel=0 note=64 velocity=0 time=0
note_on channel=0 note=67 velocity=0 time=0
note_on channel=0 note=76 velocity=0 time=0
note_on channel=0 note=55 velocity=0 time=0
note_on channel=0 note=65 velocity=57 time=0
note_on channel=0 note=74 velocity=68 time=0
note_on channel=0 note=53 velocity=41 time=0
note_on channel=0 note=62 velocity=41 time=0
note_on channel=0 note=62 velocity=0 time=0
note_on channel=0 note=65 velocity=0 time=0
note_on channel=0 note=74 velocity=0 time=0
note_on channel=0 note=53 velocity=0 time=0
note_on channel=0 note=64 velocity=51 time=0
note_on channel=0 note=72 velocity=60 time=0
note_on channel=0 note=52 velocity=41 time=0
note_on channel=0 note=60 velocity=49 time=0
control_change channel=0 control=64 value=0 time=8
control_change channel=0 control=64 value=127 time=204
note_on channel=0 note=60 velocity=0 time=268
note_on channel=0 note=64 velocity=0 time=0
note_on channel=0 note=72 velocity=0 time=0
note_on channel=0 note=52 velocity=0 time=0
note_on channel=0 note=58 velocity=44 time=0
note_on channel=0 note=70 velocity=52 time=0
note_on channel=0 note=50 velocity=34 time=0
note_on channel=0 note=53 velocity=41 time=0
control_change channel=0 control=64 value=0 time=14
control_change channel=0 control=64 value=127 time=99
note_on channel=0 note=53 velocity=0 time=0
note_on channel=0 note=58 velocity=0 time=0
note_on channel=0 note=70 velocity=0 time=0
note_on channel=0 note=50 velocity=0 time=0
note_on channel=0 note=57 velocity=49 time=0
note_on channel=0 note=69 velocity=58 time=0
note_on channel=0 note=49 velocity=36 time=0
note_on channel=0 note=52 velocity=43 time=0
control_change channel=0 control=64 value=0 time=0
control_change channel=0 control=64 value=127 time=229
note_on channel=0 note=52 velocity=0 time=251
note_on channel=0 note=57 velocity=0 time=0
note_on channel=0 note=69 velocity=0 time=0
note_on channel=0 note=49 velocity=0 time=0
note_on channel=0 note=61 velocity=39 time=0
note_on channel=0 note=67 velocity=46 time=0
note_on channel=0 note=45 velocity=27 time=0
note_on channel=0 note=52 velocity=32 time=0
note_on channel=0 note=52 velocity=0 time=480
note_on channel=0 note=61 velocity=0 time=0
note_on channel=0 note=67 velocity=0 time=0
note_on channel=0 note=45 velocity=0 time=0
note_on channel=0 note=62 velocity=45 time=0
note_on channel=0 note=65 velocity=53 time=0
note_on channel=0 note=46 velocity=33 time=0
note_on channel=0 note=50 velocity=39 time=0
control_change channel=0 control=64 value=0 time=15
control_change channel=0 control=64 value=127 time=145
note_on channel=0 note=50 velocity=0 time=0
note_on channel=0 note=62 velocity=0 time=0
note_on channel=0 note=65 velocity=0 time=0
note_on channel=0 note=46 velocity=0 time=0
note_on channel=0 note=53 velocity=40 time=0
note_on channel=0 note=55 velocity=40 time=0
note_on channel=0 note=62 velocity=48 time=0
note_on channel=0 note=47 velocity=31 time=0
control_change channel=0 control=64 value=0 time=13
control_change channel=0 control=64 value=127 time=147
note_on channel=0 note=47 velocity=0 time=0
note_on channel=0 note=53 velocity=0 time=0
note_on channel=0 note=55 velocity=0 time=0
note_on channel=0 note=62 velocity=0 time=0
note_on channel=0 note=48 velocity=38 time=0
control_change channel=0 control=64 value=0 time=0
control_change channel=0 control=64 value=127 time=92
note_on channel=0 note=53 velocity=32 time=0
note_on channel=0 note=57 velocity=32 time=0
note_on channel=0 note=60 velocity=38 time=0
note_on channel=0 note=60 velocity=0 time=240
note_on channel=0 note=57 velocity=0 time=0
note_on channel=0 note=53 velocity=0 time=0
control_change channel=0 control=64 value=0 time=11
note_on channel=0 note=48 velocity=0 time=0
note_on channel=0 note=36 velocity=32 time=0
control_change channel=0 control=64 value=127 time=297
note_on channel=0 note=48 velocity=31 time=0
note_on channel=0 note=52 velocity=31 time=0
note_on channel=0 note=55 velocity=31 time=0
note_on channel=0 note=60 velocity=37 time=0
note_on channel=0 note=60 velocity=0 time=240
note_on channel=0 note=52 velocity=0 time=0
note_on channel=0 note=55 velocity=0 time=0
note_on channel=0 note=48 velocity=0 time=0
control_change channel=0 control=64 value=0 time=17
note_on channel=0 note=36 velocity=0 time=0
note_on channel=0 note=29 velocity=35 time=0
control_change channel=0 control=64 value=127 time=320
note_on channel=0 note=57 velocity=35 time=160
note_on channel=0 note=53 velocity=29 time=0
note_on channel=0 note=48 velocity=29 time=0
control_change channel=0 control=64 value=0 time=247
note_on channel=0 note=48 velocity=0 time=203
note_on channel=0 note=53 velocity=0 time=0
note_on channel=0 note=57 velocity=0 time=0
note_on channel=0 note=29 velocity=0 time=0
note_on channel=0 note=57 velocity=66 time=0
note_on channel=0 note=53 velocity=55 time=0
control_change channel=0 control=64 value=127 time=141
note_on channel=0 note=65 velocity=55 time=0
note_on channel=0 note=69 velocity=66 time=0
note_on channel=0 note=69 velocity=0 time=0
note_on channel=0 note=57 velocity=0 time=0
note_on channel=0 note=53 velocity=0 time=0
note_on channel=0 note=65 velocity=0 time=0
note_on channel=0 note=65 velocity=43 time=0
note_on channel=0 note=69 velocity=51 time=0
note_on channel=0 note=53 velocity=37 time=0
note_on channel=0 note=57 velocity=44 time=0
note_on channel=0 note=57 velocity=0 time=120
note_on channel=0 note=65 velocity=0 time=0
note_on channel=0 note=69 velocity=0 time=0
note_on channel=0 note=53 velocity=0 time=0
note_on channel=0 note=50 velocity=45 time=0
note_on channel=0 note=53 velocity=53 time=0
control_change channel=0 control=64 value=0 time=0
note_on channel=0 note=53 velocity=0 time=120
note_on channel=0 note=50 velocity=0 time=0
note_on channel=0 note=62 velocity=41 time=120
note_on channel=0 note=65 velocity=49 time=0
note_on channel=0 note=65 velocity=0 time=120
note_on channel=0 note=62 velocity=0 time=0
note_on channel=0 note=46 velocity=39 time=0
note_on channel=0 note=50 velocity=47 time=0
note_on channel=0 note=50 velocity=0 time=120
note_on channel=0 note=46 velocity=0 time=0
note_on channel=0 note=58 velocity=38 time=0
note_on channel=0 note=62 velocity=45 time=0
note_on channel=0 note=62 velocity=0 time=120
note_on channel=0 note=58 velocity=0 time=0
note_on channel=0 note=58 velocity=66 time=0
note_on channel=0 note=55 velocity=55 time=0
control_change channel=0 control=64 value=127 time=141
note_on channel=0 note=67 velocity=60 time=0
note_on channel=0 note=70 velocity=73 time=0
note_on channel=0 note=70 velocity=0 time=0
note_on channel=0 note=58 velocity=0 time=0
note_on channel=0 note=55 velocity=0 time=0
note_on channel=0 note=67 velocity=0 time=0
note_on channel=0 note=65 velocity=43 time=0
note_on channel=0 note=69 velocity=51 time=0
note_on channel=0 note=53 velocity=37 time=0
note_on channel=0 note=57 velocity=44 time=0
control_change channel=0 control=64 value=0 time=8
note_on channel=0 note=57 velocity=0 time=112
note_on channel=0 note=65 velocity=0 time=0
note_on channel=0 note=69 velocity=0 time=0
note_on channel=0 note=53 velocity=0 time=0
note_on channel=0 note=52 velocity=45 time=0
note_on channel=0 note=55 velocity=53 time=0
note_on channel=0 note=55 velocity=0 time=120
note_on channel=0 note=52 velocity=0 time=0
note_on channel=0 note=64 velocity=41 time=120
note_on channel=0 note=67 velocity=49 time=0
note_on channel=0 note=67 velocity=0 time=120
note_on channel=0 note=64 velocity=0 time=0
note_on channel=0 note=48 velocity=39 time=0
note_on channel=0 note=52 velocity=47 time=0
note_on channel=0 note=52 velocity=0 time=120
note_on channel=0 note=48 velocity=0 time=0
note_on channel=0 note=60 velocity=38 time=0
note_on channel=0 note=64 velocity=45 time=0
note_on channel=0 note=64 velocity=0 time=120
note_on channel=0 note=60 velocity=0 time=0
note_on channel=0 note=60 velocity=72 time=0
note_on channel=0 note=57 velocity=60 time=0
control_change channel=0 control=64 value=127 time=141
note_on channel=0 note=69 velocity=60 time=0
note_on channel=0 note=72 velocity=72 time=0
note_on channel=0 note=72 velocity=0 time=0
note_on channel=0 note=60 velocity=0 time=0
note_on channel=0 note=57 velocity=0 time=0
note_on channel=0 note=69 velocity=0 time=0
note_on channel=0 note=69 velocity=47 time=0
note_on channel=0 note=72 velocity=56 time=0
note_on channel=0 note=57 velocity=40 time=0
note_on channel=0 note=60 velocity=48 time=0
note_on channel=0 note=60 velocity=0 time=120
note_on channel=0 note=69 velocity=0 time=0
note_on channel=0 note=72 velocity=0 time=0
note_on channel=0 note=57 velocity=0 time=0
note_on channel=0 note=53 velocity=49 time=0
note_on channel=0 note=57 velocity=58 time=0
control_change channel=0 control=64 value=0 time=0
note_on channel=0 note=57 velocity=0 time=120
note_on channel=0 note=53 velocity=0 time=0
note_on channel=0 note=65 velocity=45 time=120
note_on channel=0 note=69 velocity=53 time=0
note_on channel=0 note=69 velocity=0 time=120
note_on channel=0 note=65 velocity=0 time=0
note_on channel=0 note=50 velocity=42 time=0
note_on channel=0 note=53 velocity=51 time=0
note_on channel=0 note=53 velocity=0 time=120
note_on channel=0 note=50 velocity=0 time=0
note_on channel=0 note=62 velocity=41 time=0
note_on channel=0 note=65 velocity=49 time=0
note_on channel=0 note=65 velocity=0 time=120
note_on channel=0 note=62 velocity=0 time=0
note_on channel=0 note=62 velocity=75 time=0
note_on channel=0 note=58 velocity=62 time=0
control_change channel=0 control=64 value=127 time=141
note_on channel=0 note=70 velocity=68 time=0
note_on channel=0 note=74 velocity=84 time=0
note_on channel=0 note=74 velocity=0 time=0
note_on channel=0 note=62 velocity=0 time=0
note_on channel=0 note=58 velocity=0 time=0
note_on channel=0 note=70 velocity=0 time=0
note_on channel=0 note=69 velocity=49 time=0
note_on channel=0 note=72 velocity=58 time=0
note_on channel=0 note=57 velocity=42 time=0
note_on channel=0 note=60 velocity=50 time=0
control_change channel=0 control=64 value=0 time=8
note_on channel=0 note=60 velocity=0 time=112
note_on channel=0 note=69 velocity=0 time=0
note_on channel=0 note=72 velocity=0 time=0
note_on channel=0 note=57 velocity=0 time=0
note_on channel=0 note=55 velocity=51 time=0
note_on channel=0 note=58 velocity=60 time=0
note_on channel=0 note=58 velocity=0 time=120
note_on channel=0 note=55 velocity=0 time=0
note_on channel=0 note=67 velocity=47 time=120
note_on channel=0 note=70 velocity=55 time=0
note_on channel=0 note=70 velocity=0 time=120
note_on channel=0 note=67 velocity=0 time=0
note_on channel=0 note=52 velocity=44 time=0
note_on channel=0 note=55 velocity=53 time=0
note_on channel=0 note=55 velocity=0 time=120
note_on channel=0 note=52 velocity=0 time=0
note_on channel=0 note=64 velocity=43 time=0
note_on channel=0 note=67 velocity=51 time=0
note_on channel=0 note=67 velocity=0 time=120
note_on channel=0 note=64 velocity=0 time=0
note_on channel=0 note=67 velocity=79 time=0
note_on channel=0 note=58 velocity=66 time=0
control_change channel=0 control=64 value=127 time=141
note_on channel=0 note=70 velocity=79 time=0
note_on channel=0 note=79 velocity=96 time=0
note_on channel=0 note=79 velocity=0 time=0
note_on channel=0 note=67 velocity=0 time=0
note_on channel=0 note=58 velocity=0 time=0
note_on channel=0 note=70 velocity=0 time=0
note_on channel=0 note=69 velocity=56 time=0
note_on channel=0 note=77 velocity=67 time=0
note_on channel=0 note=57 velocity=44 time=0
note_on channel=0 note=65 velocity=52 time=0
control_change channel=0 control=64 value=0 time=8
note_on channel=0 note=65 velocity=0 time=112
note_on channel=0 note=69 velocity=0 time=0
note_on channel=0 note=77 velocity=0 time=0
note_on channel=0 note=57 velocity=0 time=0
note_on channel=0 note=64 velocity=79 time=0
note_on channel=0 note=55 velocity=66 time=0
note_on channel=0 note=67 velocity=79 time=0
note_on channel=0 note=76 velocity=96 time=0
control_change channel=0 control=64 value=127 time=0
note_on channel=0 note=76 velocity=0 time=0
note_on channel=0 note=64 velocity=0 time=0
note_on channel=0 note=55 velocity=0 time=0
note_on channel=0 note=67 velocity=0 time=0
note_on channel=0 note=65 velocity=56 time=0
note_on channel=0 note=74 velocity=67 time=0
note_on channel=0 note=53 velocity=44 time=0
note_on channel=0 note=62 velocity=52 time=0
control_change channel=0 control=64 value=0 time=8
note_on channel=0 note=62 velocity=0 time=112
note_on channel=0 note=65 velocity=0 time=0
note_on channel=0 note=74 velocity=0 time=0
note_on channel=0 note=53 velocity=0 time=0
note_on channel=0 note=52 velocity=49 time=0
note_on channel=0 note=60 velocity=58 time=0
note_on channel=0 note=60 velocity=0 time=120
note_on channel=0 note=52 velocity=0 time=0
note_on channel=0 note=64 velocity=44 time=120
note_on channel=0 note=72 velocity=52 time=0
note_on channel=0 note=72 velocity=0 time=120
note_on channel=0 note=64 velocity=0 time=0
note_on channel=0 note=50 velocity=40 time=0
note_on channel=0 note=53 velocity=49 time=0
note_on channel=0 note=53 velocity=0 time=120
note_on channel=0 note=50 velocity=0 time=0
note_on channel=0 note=58 velocity=39 time=0
note_on channel=0 note=70 velocity=46 time=0
note_on channel=0 note=70 velocity=0 time=120
note_on channel=0 note=58 velocity=0 time=0
note_on channel=0 note=69 velocity=54 time=0
note_on channel=0 note=49 velocity=34 time=0
note_on channel=0 note=52 velocity=34 time=0
note_on channel=0 note=55 velocity=40 time=0
control_change channel=0 control=64 value=127 time=86
note_on channel=0 note=69 velocity=0 time=34
note_on channel=0 note=57 velocity=46 time=0
note_on channel=0 note=57 velocity=0 time=120
note_on channel=0 note=61 velocity=43 time=0
note_on channel=0 note=61 velocity=0 time=120
note_on channel=0 note=64 velocity=43 time=0
note_on channel=0 note=64 velocity=0 time=39
note_on channel=0 note=69 velocity=53 time=0
note_on channel=0 note=69 velocity=0 time=39
note_on channel=0 note=73 velocity=42 time=0
note_on channel=0 note=73 velocity=0 time=39
note_on channel=0 note=76 velocity=42 time=0
note_on channel=0 note=76 velocity=0 time=39
note_on channel=0 note=80 velocity=42 time=0
note_on channel=0 note=80 velocity=0 time=39
note_on channel=0 note=81 velocity=49 time=0
note_on channel=0 note=81 velocity=0 time=39
note_on channel=0 note=80 velocity=39 time=0
note_on channel=0 note=80 velocity=0 time=63
note_on channel=0 note=81 velocity=42 time=0
note_on channel=0 note=81 velocity=0 time=15
note_on channel=0 note=80 velocity=38 time=0
note_on channel=0 note=80 velocity=0 time=39
note_on channel=0 note=81 velocity=48 time=0
note_on channel=0 note=81 velocity=0 time=87
note_on channel=0 note=76 velocity=38 time=0
note_on channel=0 note=76 velocity=0 time=39
note_on channel=0 note=73 velocity=38 time=0
note_on channel=0 note=73 velocity=0 time=0
note_on channel=0 note=69 velocity=38 time=0
note_on channel=0 note=69 velocity=0 time=0
note_on channel=0 note=55 velocity=0 time=0
note_on channel=0 note=52 velocity=0 time=0
note_on channel=0 note=49 velocity=0 time=0
note_on channel=0 note=50 velocity=34 time=0
note_on channel=0 note=53 velocity=40 time=0
control_change channel=0 control=64 value=0 time=0
note_on channel=0 note=57 velocity=46 time=63
control_change channel=0 control=64 value=127 time=0
note_on channel=0 note=57 velocity=0 time=15
note_on channel=0 note=62 velocity=43 time=0
note_on channel=0 note=62 velocity=0 time=120
note_on channel=0 note=65 velocity=43 time=0
note_on channel=0 note=65 velocity=0 time=87
note_on channel=0 note=69 velocity=53 time=0
note_on channel=0 note=69 velocity=0 time=39
note_on channel=0 note=74 velocity=42 time=0
note_on channel=0 note=74 velocity=0 time=120
note_on channel=0 note=77 velocity=42 time=0
note_on channel=0 note=77 velocity=0 time=111
note_on channel=0 note=80 velocity=42 time=0
note_on channel=0 note=80 velocity=0 time=63
note_on channel=0 note=81 velocity=49 time=0
note_on channel=0 note=81 velocity=0 time=120
note_on channel=0 note=80 velocity=39 time=0
note_on channel=0 note=80 velocity=0 time=87
note_on channel=0 note=81 velocity=42 time=0
note_on channel=0 note=81 velocity=0 time=120
note_on channel=0 note=80 velocity=38 time=0
note_on channel=0 note=80 velocity=0 time=111
note_on channel=0 note=81 velocity=48 time=0
note_on channel=0 note=81 velocity=0 time=15
note_on channel=0 note=77 velocity=38 time=0
note_on channel=0 note=77 velocity=0 time=120
note_on channel=0 note=74 velocity=38 time=0
note_on channel=0 note=74 velocity=0 time=0
note_on channel=0 note=69 velocity=38 time=0
note_on channel=0 note=69 velocity=0 time=0
note_on channel=0 note=53 velocity=0 time=0
note_on channel=0 note=50 velocity=0 time=0
note_on channel=0 note=47 velocity=34 time=0
note_on channel=0 note=50 velocity=34 time=0
note_on channel=0 note=53 velocity=40 time=0
control_change channel=0 control=64 value=0 time=8
control_change channel=0 control=64 value=127 time=101
note_on channel=0 note=56 velocity=46 time=11
note_on channel=0 note=56 velocity=0 time=120
note_on channel=0 note=59 velocity=43 time=0
note_on channel=0 note=59 velocity=0 time=120
note_on channel=0 note=62 velocity=43 time=0
note_on channel=0 note=62 velocity=0 time=87
note_on channel=0 note=65 velocity=50 time=0
note_on channel=0 note=65 velocity=0 time=120
note_on channel=0 note=68 velocity=42 time=0
note_on channel=0 note=68 velocity=0 time=15
note_on channel=0 note=71 velocity=42 time=0
note_on channel=0 note=71 velocity=0 time=120
note_on channel=0 note=74 velocity=42 time=0
note_on channel=0 note=74 velocity=0 time=120
note_on channel=0 note=77 velocity=49 time=0
note_on channel=0 note=77 velocity=0 time=63
note_on channel=0 note=74 velocity=41 time=0
note_on channel=0 note=74 velocity=0 time=63
note_on channel=0 note=80 velocity=48 time=0
note_on channel=0 note=80 velocity=0 time=63
note_on channel=0 note=77 velocity=41 time=0
note_on channel=0 note=77 velocity=0 time=63
note_on channel=0 note=74 velocity=48 time=0
note_on channel=0 note=74 velocity=0 time=63
note_on channel=0 note=71 velocity=45 time=0
note_on channel=0 note=71 velocity=0 time=87
note_on channel=0 note=68 velocity=42 time=0
note_on channel=0 note=68 velocity=0 time=0
note_on channel=0 note=65 velocity=39 time=0
note_on channel=0 note=65 velocity=0 time=0
note_on channel=0 note=47 velocity=0 time=0
note_on channel=0 note=50 velocity=0 time=0
note_on channel=0 note=53 velocity=0 time=0
note_on channel=0 note=46 velocity=57 time=0
note_on channel=0 note=49 velocity=57 time=0
note_on channel=0 note=52 velocity=57 time=0
note_on channel=0 note=55 velocity=68 time=0
control_change channel=0 control=64 value=0 time=0
control_change channel=0 control=64 value=127 time=32
note_on channel=0 note=64 velocity=48 time=23
note_on channel=0 note=64 velocity=0 time=31
note_on channel=0 note=67 velocity=50 time=0
note_on channel=0 note=67 velocity=0 time=7
note_on channel=0 note=70 velocity=51 time=0
note_on channel=0 note=70 velocity=0 time=120
note_on channel=0 note=73 velocity=53 time=0
note_on channel=0 note=73 velocity=0 time=103
note_on channel=0 note=76 velocity=55 time=0
note_on channel=0 note=76 velocity=0 time=103
note_on channel=0 note=79 velocity=57 time=0
note_on channel=0 note=79 velocity=0 time=120
note_on channel=0 note=82 velocity=59 time=0
note_on channel=0 note=82 velocity=0 time=120
note_on channel=0 note=85 velocity=65 time=0
control_change channel=0 control=64 value=0 time=11
note_on channel=0 note=85 velocity=0 time=109
note_on channel=0 note=88 velocity=57 time=0
note_on channel=0 note=88 velocity=0 time=0
note_on channel=0 note=52 velocity=0 time=0
note_on channel=0 note=46 velocity=0 time=0
note_on channel=0 note=49 velocity=0 time=0
note_on channel=0 note=55 velocity=0 time=0
note_on channel=0 note=76 velocity=64 time=0
note_on channel=0 note=46 velocity=50 time=0
note_on channel=0 note=48 velocity=50 time=0
note_on channel=0 note=55 velocity=60 time=0
note_on channel=0 note=55 velocity=0 time=120
note_on channel=0 note=76 velocity=0 time=0
note_on channel=0 note=46 velocity=0 time=0
note_on channel=0 note=48 velocity=0 time=0
note_on channel=0 note=88 velocity=56 time=0
note_on channel=0 note=88 velocity=0 time=120
note_on channel=0 note=76 velocity=64 time=0
note_on channel=0 note=46 velocity=61 time=0
note_on channel=0 note=48 velocity=61 time=0
note_on channel=0 note=55 velocity=72 time=0
note_on channel=0 note=55 velocity=0 time=120
note_on channel=0 note=76 velocity=0 time=0
note_on channel=0 note=46 velocity=0 time=0
note_on channel=0 note=48 velocity=0 time=0
note_on channel=0 note=88 velocity=58 time=0
note_on channel=0 note=88 velocity=0 time=120
note_on channel=0 note=76 velocity=64 time=0
note_on channel=0 note=46 velocity=51 time=0
note_on channel=0 note=48 velocity=51 time=0
note_on channel=0 note=55 velocity=61 time=0
note_on channel=0 note=55 velocity=0 time=0
note_on channel=0 note=76 velocity=0 time=0
note_on channel=0 note=46 velocity=0 time=0
note_on channel=0 note=48 velocity=0 time=0
note_on channel=0 note=88 velocity=59 time=0
note_on channel=0 note=88 velocity=0 time=0
note_on channel=0 note=77 velocity=74 time=0
note_on channel=0 note=45 velocity=73 time=0
note_on channel=0 note=48 velocity=73 time=0
note_on channel=0 note=53 velocity=73 time=0
control_change channel=0 control=64 value=127 time=63
note_on channel=0 note=77 velocity=0 time=57
note_on channel=0 note=89 velocity=59 time=0
note_on channel=0 note=89 velocity=0 time=120
note_on channel=0 note=76 velocity=67 time=0
note_on channel=0 note=76 velocity=0 time=120
note_on channel=0 note=88 velocity=54 time=0
note_on channel=0 note=88 velocity=0 time=120
note_on channel=0 note=53 velocity=0 time=0
note_on channel=0 note=48 velocity=0 time=0
note_on channel=0 note=45 velocity=0 time=0
note_on channel=0 note=77 velocity=66 time=0
note_on channel=0 note=77 velocity=0 time=120
note_on channel=0 note=89 velocity=57 time=0
note_on channel=0 note=89 velocity=0 time=120
note_on channel=0 note=70 velocity=59 time=0
note_on channel=0 note=40 velocity=57 time=0
note_on channel=0 note=48 velocity=68 time=0
control_change channel=0 control=64 value=0 time=10
control_change channel=0 control=64 value=127 time=59
note_on channel=0 note=48 velocity=0 time=0
note_on channel=0 note=40 velocity=0 time=0
note_on channel=0 note=70 velocity=0 time=0
note_on channel=0 note=82 velocity=50 time=0
control_change channel=0 control=64 value=0 time=57
note_on channel=0 note=82 velocity=0 time=0
note_on channel=0 note=69 velocity=79 time=0
note_on channel=0 note=41 velocity=63 time=0
note_on channel=0 note=48 velocity=75 time=0
control_change channel=0 control=64 value=127 time=75
note_on channel=0 note=48 velocity=0 time=45
note_on channel=0 note=41 velocity=0 time=0
note_on channel=0 note=69 velocity=0 time=0
note_on channel=0 note=81 velocity=54 time=0
control_change channel=0 control=64 value=0 time=57
note_on channel=0 note=81 velocity=0 time=63
note_on channel=0 note=76 velocity=65 time=0
note_on channel=0 note=46 velocity=56 time=0
note_on channel=0 note=48 velocity=67 time=0
control_change channel=0 control=64 value=127 time=69
note_on channel=0 note=48 velocity=0 time=51
note_on channel=0 note=46 velocity=0 time=0
note_on channel=0 note=76 velocity=0 time=0
note_on channel=0 note=88 velocity=57 time=0
control_change channel=0 control=64 value=0 time=57
note_on channel=0 note=88 velocity=0 time=63
note_on channel=0 note=77 velocity=68 time=0
note_on channel=0 note=45 velocity=63 time=0
note_on channel=0 note=48 velocity=75 time=0
control_change channel=0 control=64 value=127 time=80
note_on channel=0 note=48 velocity=0 time=40
note_on channel=0 note=45 velocity=0 time=0
note_on channel=0 note=77 velocity=0 time=0
note_on channel=0 note=89 velocity=60 time=0
control_change channel=0 control=64 value=0 time=69
note_on channel=0 note=89 velocity=0 time=51
note_on channel=0 note=70 velocity=67 time=0
note_on channel=0 note=40 velocity=56 time=0
note_on channel=0 note=48 velocity=67 time=0
control_change channel=0 control=64 value=127 time=52
note_on channel=0 note=48 velocity=0 time=0
note_on channel=0 note=40 velocity=0 time=0
note_on channel=0 note=70 velocity=0 time=0
note_on channel=0 note=82 velocity=58 time=0
control_change channel=0 control=64 value=0 time=52
note_on channel=0 note=82 velocity=0 time=0
note_on channel=0 note=69 velocity=81 time=0
note_on channel=0 note=41 velocity=63 time=0
note_on channel=0 note=48 velocity=75 time=0
control_change channel=0 control=64 value=127 time=12
note_on channel=0 note=48 velocity=0 time=108
note_on channel=0 note=41 velocity=0 time=0
note_on channel=0 note=69 velocity=0 time=0
note_on channel=0 note=81 velocity=58 time=0
control_change channel=0 control=64 value=0 time=35
note_on channel=0 note=81 velocity=0 time=85
note_on channel=0 note=76 velocity=64 time=0
note_on channel=0 note=46 velocity=56 time=0
note_on channel=0 note=48 velocity=67 time=0
control_change channel=0 control=64 value=127 time=75
note_on channel=0 note=48 velocity=0 time=45
note_on channel=0 note=46 velocity=0 time=0
note_on channel=0 note=76 velocity=0 time=0
note_on channel=0 note=88 velocity=59 time=0
control_change channel=0 control=64 value=0 time=52
note_on channel=0 note=88 velocity=0 time=68
note_on channel=0 note=77 velocity=67 time=0
note_on channel=0 note=45 velocity=63 time=0
note_on channel=0 note=48 velocity=75 time=0
control_change channel=0 control=64 value=127 time=75
note_on channel=0 note=48 velocity=0 time=45
note_on channel=0 note=45 velocity=0 time=0
note_on channel=0 note=77 velocity=0 time=0
note_on channel=0 note=89 velocity=55 time=0
control_change channel=0 control=64 value=0 time=40
note_on channel=0 note=89 velocity=0 time=80
note_on channel=0 note=70 velocity=62 time=0
note_on channel=0 note=40 velocity=56 time=0
note_on channel=0 note=48 velocity=67 time=0
control_change channel=0 control=64 value=127 time=75
note_on channel=0 note=48 velocity=0 time=0
note_on channel=0 note=40 velocity=0 time=0
note_on channel=0 note=70 velocity=0 time=0
note_on channel=0 note=82 velocity=51 time=0
control_change channel=0 control=64 value=0 time=57
note_on channel=0 note=82 velocity=0 time=0
note_on channel=0 note=69 velocity=72 time=0
note_on channel=0 note=41 velocity=63 time=0
note_on channel=0 note=48 velocity=75 time=0
note_on channel=0 note=48 velocity=0 time=120
note_on channel=0 note=41 velocity=0 time=0
note_on channel=0 note=69 velocity=0 time=0
note_on channel=0 note=81 velocity=52 time=0
control_change channel=0 control=64 value=127 time=0
control_change channel=0 control=64 value=0 time=92
note_on channel=0 note=81 velocity=0 time=28
note_on channel=0 note=76 velocity=64 time=0
note_on channel=0 note=46 velocity=56 time=0
note_on channel=0 note=48 velocity=67 time=0
control_change channel=0 control=64 value=127 time=69
note_on channel=0 note=48 velocity=0 time=51
note_on channel=0 note=46 velocity=0 time=0
note_on channel=0 note=76 velocity=0 time=0
note_on channel=0 note=88 velocity=54 time=0
control_change channel=0 control=64 value=0 time=52
note_on channel=0 note=88 velocity=0 time=68
note_on channel=0 note=77 velocity=64 time=0
note_on channel=0 note=45 velocity=63 time=0
note_on channel=0 note=48 velocity=75 time=0
control_change channel=0 control=64 value=127 time=75
note_on channel=0 note=48 velocity=0 time=45
note_on channel=0 note=45 velocity=0 time=0
note_on channel=0 note=77 velocity=0 time=0
note_on channel=0 note=89 velocity=51 time=0
control_change channel=0 control=64 value=0 time=46
note_on channel=0 note=89 velocity=0 time=74
note_on channel=0 note=70 velocity=60 time=0
note_on channel=0 note=40 velocity=57 time=0
note_on channel=0 note=48 velocity=68 time=0
control_change channel=0 control=64 value=127 time=97
note_on channel=0 note=48 velocity=0 time=0
note_on channel=0 note=40 velocity=0 time=0
note_on channel=0 note=70 velocity=0 time=0
note_on channel=0 note=82 velocity=51 time=0
control_change channel=0 control=64 value=0 time=52
note_on channel=0 note=82 velocity=0 time=0
note_on channel=0 note=69 velocity=83 time=0
note_on channel=0 note=41 velocity=89 time=0
control_change channel=0 control=64 value=127 time=52
note_on channel=0 note=69 velocity=0 time=68
note_on channel=0 note=81 velocity=53 time=0
note_on channel=0 note=81 velocity=0 time=120
note_on channel=0 note=67 velocity=62 time=0
note_on channel=0 note=67 velocity=0 time=120
note_on channel=0 note=79 velocity=54 time=0
note_on channel=0 note=79 velocity=0 time=120
note_on channel=0 note=65 velocity=62 time=0
control_change channel=0 control=64 value=0 time=18
note_on channel=0 note=65 velocity=0 time=102
note_on channel=0 note=77 velocity=54 time=0
control_change channel=0 control=64 value=127 time=0
note_on channel=0 note=77 velocity=0 time=120
note_on channel=0 note=64 velocity=62 time=0
note_on channel=0 note=64 velocity=0 time=0
note_on channel=0 note=76 velocity=53 time=0
note_on channel=0 note=76 velocity=0 time=0
note_on channel=0 note=41 velocity=0 time=0
note_on channel=0 note=62 velocity=81 time=0
note_on channel=0 note=38 velocity=80 time=0
control_change channel=0 control=64 value=0 time=15
control_change channel=0 control=64 value=127 time=88
note_on channel=0 note=62 velocity=0 time=17
note_on channel=0 note=74 velocity=53 time=0
note_on channel=0 note=74 velocity=0 time=120
note_on channel=0 note=60 velocity=60 time=0
note_on channel=0 note=60 velocity=0 time=120
note_on channel=0 note=72 velocity=52 time=0
note_on channel=0 note=72 velocity=0 time=120
note_on channel=0 note=58 velocity=59 time=0
control_change channel=0 control=64 value=0 time=16
control_change channel=0 control=64 value=127 time=81
note_on channel=0 note=58 velocity=0 time=23
note_on channel=0 note=70 velocity=52 time=0
note_on channel=0 note=70 velocity=0 time=120
note_on channel=0 note=57 velocity=59 time=0
note_on channel=0 note=57 velocity=0 time=0
note_on channel=0 note=69 velocity=50 time=0
note_on channel=0 note=69 velocity=0 time=0
note_on channel=0 note=38 velocity=0 time=0
note_on channel=0 note=55 velocity=79 time=0
note_on channel=0 note=34 velocity=88 time=0
control_change channel=0 control=64 value=0 time=0
control_change channel=0 control=64 value=127 time=80
note_on channel=0 note=55 velocity=0 time=40
note_on channel=0 note=67 velocity=50 time=0
note_on channel=0 note=67 velocity=0 time=120
note_on channel=0 note=53 velocity=59 time=0
control_change channel=0 control=64 value=0 time=17
control_change channel=0 control=64 value=127 time=46
note_on channel=0 note=53 velocity=0 time=57
note_on channel=0 note=65 velocity=49 time=0
note_on channel=0 note=65 velocity=0 time=120
note_on channel=0 note=52 velocity=59 time=0
control_change channel=0 control=64 value=0 time=9
control_change channel=0 control=64 value=127 time=100
note_on channel=0 note=52 velocity=0 time=11
note_on channel=0 note=64 velocity=49 time=0
note_on channel=0 note=64 velocity=0 time=120
note_on channel=0 note=50 velocity=59 time=0
control_change channel=0 control=64 value=0 time=15
control_change channel=0 control=64 value=127 time=77
note_on channel=0 note=50 velocity=0 time=0
note_on channel=0 note=62 velocity=51 time=0
note_on channel=0 note=62 velocity=0 time=0
note_on channel=0 note=34 velocity=0 time=0
note_on channel=0 note=48 velocity=79 time=0
note_on channel=0 note=36 velocity=84 time=0
control_change channel=0 control=64 value=0 time=12
control_change channel=0 control=64 value=127 time=91
note_on channel=0 note=48 velocity=0 time=17
note_on channel=0 note=60 velocity=49 time=0
note_on channel=0 note=60 velocity=0 time=120
note_on channel=0 note=46 velocity=59 time=0
control_change channel=0 control=64 value=0 time=14
control_change channel=0 control=64 value=127 time=66
note_on channel=0 note=46 velocity=0 time=40
note_on channel=0 note=58 velocity=50 time=0
note_on channel=0 note=58 velocity=0 time=120
note_on channel=0 note=45 velocity=59 time=0
control_change channel=0 control=64 value=0 time=15
control_change channel=0 control=64 value=127 time=77
note_on channel=0 note=45 velocity=0 time=28
note_on channel=0 note=57 velocity=48 time=0
note_on channel=0 note=57 velocity=0 time=120
note_on channel=0 note=43 velocity=58 time=0
control_change channel=0 control=64 value=0 time=10
control_change channel=0 control=64 value=127 time=47
note_on channel=0 note=43 velocity=0 time=0
note_on channel=0 note=55 velocity=49 time=0
note_on channel=0 note=55 velocity=0 time=0
note_on channel=0 note=36 velocity=0 time=0
note_on channel=0 note=53 velocity=76 time=0
note_on channel=0 note=41 velocity=64 time=0
note_on channel=0 note=29 velocity=81 time=0
control_change channel=0 control=64 value=0 time=0
control_change channel=0 control=64 value=127 time=46
note_on channel=0 note=29 velocity=0 time=74
note_on channel=0 note=41 velocity=0 time=0
note_on channel=0 note=53 velocity=0 time=0
control_change channel=0 control=64 value=0 time=23
note_on channel=0 note=52 velocity=49 time=97
note_on channel=0 note=46 velocity=54 time=0
control_change channel=0 control=64 value=127 time=69
note_on channel=0 note=46 velocity=0 time=51
note_on channel=0 note=52 velocity=0 time=0
note_on channel=0 note=60 velocity=42 time=0
control_change channel=0 control=64 value=0 time=46
note_on channel=0 note=60 velocity=0 time=0
note_on channel=0 note=53 velocity=49 time=0
note_on channel=0 note=45 velocity=60 time=0
control_change channel=0 control=64 value=127 time=69
note_on channel=0 note=45 velocity=0 time=51
note_on channel=0 note=53 velocity=0 time=0
note_on channel=0 note=60 velocity=41 time=0
control_change channel=0 control=64 value=0 time=35
note_on channel=0 note=60 velocity=0 time=85
note_on channel=0 note=58 velocity=49 time=0
note_on channel=0 note=40 velocity=54 time=0
control_change channel=0 control=64 value=127 time=75
note_on channel=0 note=40 velocity=0 time=45
note_on channel=0 note=58 velocity=0 time=0
note_on channel=0 note=60 velocity=42 time=0
control_change channel=0 control=64 value=0 time=52
note_on channel=0 note=60 velocity=0 time=68
note_on channel=0 note=57 velocity=49 time=0
note_on channel=0 note=41 velocity=60 time=0
control_change channel=0 control=64 value=127 time=63
note_on channel=0 note=41 velocity=0 time=57
note_on channel=0 note=57 velocity=0 time=0
note_on channel=0 note=60 velocity=41 time=0
control_change channel=0 control=64 value=0 time=40
note_on channel=0 note=60 velocity=0 time=80
note_on channel=0 note=52 velocity=49 time=0
note_on channel=0 note=46 velocity=52 time=0
control_change channel=0 control=64 value=127 time=86
note_on channel=0 note=46 velocity=0 time=34
note_on channel=0 note=52 velocity=0 time=0
note_on channel=0 note=60 velocity=42 time=0
control_change channel=0 control=64 value=0 time=75
note_on channel=0 note=60 velocity=0 time=45
note_on channel=0 note=53 velocity=49 time=0
note_on channel=0 note=45 velocity=60 time=0
control_change channel=0 control=64 value=127 time=69
note_on channel=0 note=45 velocity=0 time=51
note_on channel=0 note=53 velocity=0 time=0
note_on channel=0 note=60 velocity=43 time=0
control_change channel=0 control=64 value=0 time=40
note_on channel=0 note=60 velocity=0 time=80
note_on channel=0 note=58 velocity=49 time=0
note_on channel=0 note=40 velocity=58 time=0
control_change channel=0 control=64 value=127 time=69
note_on channel=0 note=40 velocity=0 time=51
note_on channel=0 note=58 velocity=0 time=0
note_on channel=0 note=60 velocity=40 time=0
control_change channel=0 control=64 value=0 time=35
note_on channel=0 note=60 velocity=0 time=0
note_on channel=0 note=57 velocity=49 time=0
note_on channel=0 note=41 velocity=60 time=0
control_change channel=0 control=64 value=127 time=69
note_on channel=0 note=41 velocity=0 time=51
note_on channel=0 note=57 velocity=0 time=0
note_on channel=0 note=60 velocity=41 time=0
control_change channel=0 control=64 value=0 time=46
note_on channel=0 note=60 velocity=0 time=74
note_on channel=0 note=52 velocity=49 time=0
note_on channel=0 note=46 velocity=52 time=0
control_change channel=0 control=64 value=127 time=103
note_on channel=0 note=46 velocity=0 time=17
note_on channel=0 note=52 velocity=0 time=0
note_on channel=0 note=60 velocity=42 time=0
control_change channel=0 control=64 value=0 time=63
note_on channel=0 note=60 velocity=0 time=57
note_on channel=0 note=53 velocity=49 time=0
note_on channel=0 note=45 velocity=60 time=0
control_change channel=0 control=64 value=127 time=75
note_on channel=0 note=45 velocity=0 time=45
note_on channel=0 note=53 velocity=0 time=0
note_on channel=0 note=60 velocity=43 time=0
control_change channel=0 control=64 value=0 time=46
note_on channel=0 note=60 velocity=0 time=74
note_on channel=0 note=58 velocity=49 time=0
note_on channel=0 note=40 velocity=58 time=0
control_change channel=0 control=64 value=127 time=80
note_on channel=0 note=40 velocity=0 time=40
note_on channel=0 note=58 velocity=0 time=0
note_on channel=0 note=60 velocity=40 time=0
control_change channel=0 control=64 value=0 time=46
note_on channel=0 note=60 velocity=0 time=0
note_on channel=0 note=57 velocity=56 time=0
note_on channel=0 note=41 velocity=67 time=0
control_change channel=0 control=64 value=127 time=92
note_on channel=0 note=41 velocity=0 time=28
note_on channel=0 note=57 velocity=0 time=0
note_on channel=0 note=60 velocity=45 time=0
control_change channel=0 control=64 value=0 time=63
note_on channel=0 note=60 velocity=0 time=57
note_on channel=0 note=49 velocity=60 time=0
note_on channel=0 note=43 velocity=59 time=0
control_change channel=0 control=64 value=127 time=86
note_on channel=0 note=43 velocity=0 time=34
note_on channel=0 note=49 velocity=0 time=0
note_on channel=0 note=61 velocity=52 time=0
control_change channel=0 control=64 value=0 time=57
note_on channel=0 note=61 velocity=0 time=63
note_on channel=0 note=50 velocity=61 time=0
note_on channel=0 note=41 velocity=72 time=0
control_change channel=0 control=64 value=127 time=69
note_on channel=0 note=41 velocity=0 time=51
note_on channel=0 note=50 velocity=0 time=0
note_on channel=0 note=62 velocity=49 time=0
control_change channel=0 control=64 value=0 time=35
note_on channel=0 note=62 velocity=0 time=85
note_on channel=0 note=52 velocity=67 time=0
note_on channel=0 note=40 velocity=67 time=0
control_change channel=0 control=64 value=127 time=63
note_on channel=0 note=40 velocity=0 time=0
note_on channel=0 note=52 velocity=0 time=0
note_on channel=0 note=64 velocity=60 time=0
control_change channel=0 control=64 value=0 time=40
note_on channel=0 note=64 velocity=0 time=80
note_on channel=0 note=53 velocity=71 time=0
note_on channel=0 note=38 velocity=75 time=0
control_change channel=0 control=64 value=127 time=40
note_on channel=0 note=38 velocity=0 time=80
note_on channel=0 note=53 velocity=0 time=0
note_on channel=0 note=65 velocity=62 time=0
note_on channel=0 note=65 velocity=0 time=120
note_on channel=0 note=54 velocity=70 time=0
note_on channel=0 note=36 velocity=77 time=0
control_change channel=0 control=64 value=0 time=8
control_change channel=0 control=64 value=127 time=61
note_on channel=0 note=36 velocity=0 time=51
note_on channel=0 note=54 velocity=0 time=0
note_on channel=0 note=66 velocity=64 time=0
note_on channel=0 note=66 velocity=0 time=120
note_on channel=0 note=55 velocity=70 time=0
note_on channel=0 note=34 velocity=80 time=0
control_change channel=0 control=64 value=0 time=12
control_change channel=0 control=64 value=127 time=57
note_on channel=0 note=34 velocity=0 time=51
note_on channel=0 note=55 velocity=0 time=0
note_on channel=0 note=67 velocity=64 time=0
note_on channel=0 note=67 velocity=0 time=120
note_on channel=0 note=57 velocity=74 time=0
note_on channel=0 note=33 velocity=82 time=0
control_change channel=0 control=64 value=0 time=8
control_change channel=0 control=64 value=127 time=44
note_on channel=0 note=33 velocity=0 time=68
note_on channel=0 note=57 velocity=0 time=0
note_on channel=0 note=69 velocity=65 time=0
note_on channel=0 note=69 velocity=0 time=120
note_on channel=0 note=58 velocity=82 time=0
note_on channel=0 note=31 velocity=94 time=0
control_change channel=0 control=64 value=0 time=7
control_change channel=0 control=64 value=127 time=62
note_on channel=0 note=58 velocity=0 time=51
note_on channel=0 note=70 velocity=71 time=0
note_on channel=0 note=70 velocity=0 time=120
note_on channel=0 note=60 velocity=79 time=0
control_change channel=0 control=64 value=0 time=15
control_change channel=0 control=64 value=127 time=77
note_on channel=0 note=60 velocity=0 time=28
note_on channel=0 note=72 velocity=70 time=0
note_on channel=0 note=72 velocity=0 time=120
note_on channel=0 note=62 velocity=83 time=0
control_change channel=0 control=64 value=0 time=17
control_change channel=0 control=64 value=127 time=92
note_on channel=0 note=62 velocity=0 time=11
note_on channel=0 note=74 velocity=72 time=0
note_on channel=0 note=74 velocity=0 time=120
note_on channel=0 note=60 velocity=81 time=0
control_change channel=0 control=64 value=0 time=18
control_change channel=0 control=64 value=127 time=57
note_on channel=0 note=60 velocity=0 time=0
note_on channel=0 note=72 velocity=69 time=0
note_on channel=0 note=72 velocity=0 time=0
note_on channel=0 note=58 velocity=84 time=0
control_change channel=0 control=64 value=0 time=0
control_change channel=0 control=64 value=127 time=52
note_on channel=0 note=58 velocity=0 time=68
note_on channel=0 note=70 velocity=69 time=0
note_on channel=0 note=70 velocity=0 time=120
note_on channel=0 note=57 velocity=81 time=0
control_change channel=0 control=64 value=0 time=11
control_change channel=0 control=64 value=127 time=41
note_on channel=0 note=57 velocity=0 time=68
note_on channel=0 note=69 velocity=69 time=0
note_on channel=0 note=69 velocity=0 time=120
note_on channel=0 note=55 velocity=79 time=0
control_change channel=0 control=64 value=0 time=11
control_change channel=0 control=64 value=127 time=58
note_on channel=0 note=55 velocity=0 time=51
note_on channel=0 note=67 velocity=69 time=0
note_on channel=0 note=67 velocity=0 time=120
note_on channel=0 note=53 velocity=78 time=0
control_change channel=0 control=64 value=0 time=11
control_change channel=0 control=64 value=127 time=64
note_on channel=0 note=53 velocity=0 time=45
note_on channel=0 note=65 velocity=65 time=0
note_on channel=0 note=65 velocity=0 time=0
note_on channel=0 note=31 velocity=0 time=0
note_on channel=0 note=52 velocity=79 time=0
note_on channel=0 note=36 velocity=87 time=0
control_change channel=0 control=64 value=0 time=15
control_change channel=0 control=64 value=127 time=71
note_on channel=0 note=52 velocity=0 time=34
note_on channel=0 note=64 velocity=69 time=0
note_on channel=0 note=64 velocity=0 time=120
note_on channel=0 note=50 velocity=77 time=0
control_change channel=0 control=64 value=0 time=10
control_change channel=0 control=64 value=127 time=65
note_on channel=0 note=50 velocity=0 time=0
note_on channel=0 note=62 velocity=65 time=0
note_on channel=0 note=62 velocity=0 time=0
note_on channel=0 note=48 velocity=77 time=0
control_change channel=0 control=64 value=0 time=14
control_change channel=0 control=64 value=127 time=49
note_on channel=0 note=48 velocity=0 time=57
note_on channel=0 note=60 velocity=67 time=0
note_on channel=0 note=60 velocity=0 time=120
note_on channel=0 note=52 velocity=75 time=0
control_change channel=0 control=64 value=0 time=11
control_change channel=0 control=64 value=127 time=41
note_on channel=0 note=52 velocity=0 time=68
note_on channel=0 note=64 velocity=66 time=0
note_on channel=0 note=64 velocity=0 time=120
note_on channel=0 note=36 velocity=0 time=0
note_on channel=0 note=65 velocity=79 time=0
note_on channel=0 note=53 velocity=79 time=0
note_on channel=0 note=29 velocity=30 time=0
control_change channel=0 control=64 value=0 time=0
note_on channel=0 note=29 velocity=0 time=120
note_on channel=0 note=41 velocity=26 time=0
control_change channel=0 control=64 value=127 time=78
note_on channel=0 note=41 velocity=0 time=42
note_on channel=0 note=29 velocity=30 time=0
note_on channel=0 note=29 velocity=0 time=120
note_on channel=0 note=41 velocity=25 time=0
note_on channel=0 note=41 velocity=0 time=120
note_on channel=0 note=53 velocity=0 time=0
note_on channel=0 note=65 velocity=0 time=0
note_on channel=0 note=29 velocity=30 time=0
note_on channel=0 note=29 velocity=0 time=120
note_on channel=0 note=41 velocity=26 time=0
note_on channel=0 note=41 velocity=0 time=120
note_on channel=0 note=29 velocity=30 time=0
note_on channel=0 note=29 velocity=0 time=120
note_on channel=0 note=41 velocity=27 time=0
note_on channel=0 note=41 velocity=0 time=120
note_on channel=0 note=60 velocity=40 time=0
note_on channel=0 note=57 velocity=34 time=0
note_on channel=0 note=29 velocity=30 time=0
control_change channel=0 control=64 value=0 time=21
control_change channel=0 control=64 value=127 time=92
note_on channel=0 note=29 velocity=0 time=7
note_on channel=0 note=41 velocity=27 time=0
note_on channel=0 note=41 velocity=0 time=120
note_on channel=0 note=29 velocity=30 time=0
note_on channel=0 note=29 velocity=0 time=120
note_on channel=0 note=41 velocity=25 time=0
control_change channel=0 control=64 value=0 time=106
note_on channel=0 note=41 velocity=0 time=14
note_on channel=0 note=29 velocity=30 time=0
control_change channel=0 control=64 value=127 time=113
note_on channel=0 note=29 velocity=0 time=7
note_on channel=0 note=41 velocity=26 time=0
note_on channel=0 note=41 velocity=0 time=120
note_on channel=0 note=53 velocity=39 time=0
note_on channel=0 note=29 velocity=30 time=0
note_on channel=0 note=29 velocity=0 time=120
note_on channel=0 note=41 velocity=26 time=0
note_on channel=0 note=41 velocity=0 time=120
note_on channel=0 note=53 velocity=0 time=0
note_on channel=0 note=57 velocity=0 time=0
note_on channel=0 note=60 velocity=0 time=0
note_on channel=0 note=61 velocity=46 time=0
note_on channel=0 note=58 velocity=39 time=0
note_on channel=0 note=29 velocity=30 time=0
control_change channel=0 control=64 value=0 time=0
control_change channel=0 control=64 value=127 time=92
note_on channel=0 note=29 velocity=0 time=28
note_on channel=0 note=41 velocity=26 time=0
note_on channel=0 note=41 velocity=0 time=120
note_on channel=0 note=29 velocity=30 time=0
note_on channel=0 note=29 velocity=0 time=120
note_on channel=0 note=41 velocity=25 time=0
note_on channel=0 note=41 velocity=0 time=120
note_on channel=0 note=29 velocity=30 time=0
control_change channel=0 control=64 value=0 time=6
control_change channel=0 control=64 value=127 time=93
note_on channel=0 note=29 velocity=0 time=21
note_on channel=0 note=41 velocity=26 time=0
note_on channel=0 note=41 velocity=0 time=120
note_on channel=0 note=56 velocity=40 time=0
note_on channel=0 note=29 velocity=30 time=0
note_on channel=0 note=29 velocity=0 time=120
note_on channel=0 note=41 velocity=27 time=0
note_on channel=0 note=41 velocity=0 time=120
note_on channel=0 note=56 velocity=0 time=0
note_on channel=0 note=58 velocity=0 time=0
note_on channel=0 note=61 velocity=0 time=0
note_on channel=0 note=60 velocity=32 time=0
note_on channel=0 note=58 velocity=32 time=0
note_on channel=0 note=54 velocity=45 time=0
note_on channel=0 note=29 velocity=30 time=0
control_change channel=0 control=64 value=0 time=6
control_change channel=0 control=64 value=127 time=51
note_on channel=0 note=29 velocity=0 time=63
note_on channel=0 note=41 velocity=27 time=0
note_on channel=0 note=41 velocity=0 time=120
note_on channel=0 note=54 velocity=0 time=0
note_on channel=0 note=53 velocity=40 time=0
note_on channel=0 note=29 velocity=30 time=0
note_on channel=0 note=29 velocity=0 time=120
note_on channel=0 note=41 velocity=25 time=0
note_on channel=0 note=41 velocity=0 time=120
note_on channel=0 note=53 velocity=0 time=0
note_on channel=0 note=58 velocity=0 time=0
note_on channel=0 note=60 velocity=0 time=0
note_on channel=0 note=60 velocity=33 time=0
note_on channel=0 note=58 velocity=33 time=0
note_on channel=0 note=54 velocity=46 time=0
note_on channel=0 note=29 velocity=30 time=0
control_change channel=0 control=64 value=0 time=14
note_on channel=0 note=29 velocity=0 time=106
note_on channel=0 note=41 velocity=26 time=0
control_change channel=0 control=64 value=127 time=43
note_on channel=0 note=41 velocity=0 time=77
note_on channel=0 note=54 velocity=0 time=0
note_on channel=0 note=52 velocity=40 time=0
note_on channel=0 note=29 velocity=30 time=0
note_on channel=0 note=29 velocity=0 time=120
note_on channel=0 note=41 velocity=26 time=0
note_on channel=0 note=41 velocity=0 time=120
note_on channel=0 note=52 velocity=0 time=0
note_on channel=0 note=58 velocity=0 time=0
note_on channel=0 note=60 velocity=0 time=0
note_on channel=0 note=60 velocity=46 time=0
note_on channel=0 note=57 velocity=39 time=0
note_on channel=0 note=53 velocity=39 time=0
note_on channel=0 note=29 velocity=30 time=0
control_change channel=0 control=64 value=0 time=14
control_change channel=0 control=64 value=127 time=85
note_on channel=0 note=29 velocity=0 time=21
note_on channel=0 note=41 velocity=26 time=0
note_on channel=0 note=41 velocity=0 time=120
note_on channel=0 note=29 velocity=30 time=0
note_on channel=0 note=29 velocity=0 time=120
note_on channel=0 note=41 velocity=25 time=0
note_on channel=0 note=41 velocity=0 time=120
note_on channel=0 note=29 velocity=30 time=0
control_change channel=0 control=64 value=0 time=21
control_change channel=0 control=64 value=127 time=71
note_on channel=0 note=29 velocity=0 time=28
note_on channel=0 note=41 velocity=26 time=0
note_on channel=0 note=41 velocity=0 time=120
note_on channel=0 note=53 velocity=0 time=0
note_on channel=0 note=57 velocity=0 time=0
note_on channel=0 note=60 velocity=0 time=0
note_on channel=0 note=29 velocity=30 time=0
note_on channel=0 note=29 velocity=0 time=120
note_on channel=0 note=41 velocity=27 time=0
note_on channel=0 note=41 velocity=0 time=120
note_on channel=0 note=69 velocity=52 time=0
note_on channel=0 note=60 velocity=52 time=0
note_on channel=0 note=57 velocity=44 time=0
note_on channel=0 note=29 velocity=30 time=0
control_change channel=0 control=64 value=0 time=21
control_change channel=0 control=64 value=127 time=85
note_on channel=0 note=29 velocity=0 time=14
note_on channel=0 note=41 velocity=27 time=0
note_on channel=0 note=41 velocity=0 time=120
note_on channel=0 note=29 velocity=35 time=0
note_on channel=0 note=29 velocity=0 time=120
note_on channel=0 note=41 velocity=29 time=0
note_on channel=0 note=41 velocity=0 time=120
note_on channel=0 note=29 velocity=34 time=0
control_change channel=0 control=64 value=0 time=14
control_change channel=0 control=64 value=127 time=78
note_on channel=0 note=29 velocity=0 time=28
note_on channel=0 note=41 velocity=26 time=0
note_on channel=0 note=41 velocity=0 time=120
note_on channel=0 note=69 velocity=0 time=0
note_on channel=0 note=65 velocity=50 time=0
note_on channel=0 note=29 velocity=35 time=0
note_on channel=0 note=29 velocity=0 time=120
note_on channel=0 note=41 velocity=31 time=0
note_on channel=0 note=41 velocity=0 time=120
note_on channel=0 note=65 velocity=0 time=0
note_on channel=0 note=57 velocity=0 time=0
note_on channel=0 note=60 velocity=0 time=0
note_on channel=0 note=70 velocity=52 time=0
note_on channel=0 note=61 velocity=59 time=0
note_on channel=0 note=58 velocity=50 time=0
note_on channel=0 note=29 velocity=38 time=0
control_change channel=0 control=64 value=0 time=0
control_change channel=0 control=64 value=127 time=78
note_on channel=0 note=29 velocity=0 time=42
note_on channel=0 note=41 velocity=30 time=0
note_on channel=0 note=41 velocity=0 time=120
note_on channel=0 note=29 velocity=34 time=0
note_on channel=0 note=29 velocity=0 time=120
note_on channel=0 note=41 velocity=25 time=0
note_on channel=0 note=41 velocity=0 time=120
note_on channel=0 note=29 velocity=33 time=0
control_change channel=0 control=64 value=0 time=5
control_change channel=0 control=64 value=127 time=73
note_on channel=0 note=29 velocity=0 time=42
note_on channel=0 note=41 velocity=26 time=0
note_on channel=0 note=41 velocity=0 time=120
note_on channel=0 note=70 velocity=0 time=0
note_on channel=0 note=68 velocity=52 time=0
note_on channel=0 note=29 velocity=30 time=0
note_on channel=0 note=29 velocity=0 time=120
note_on channel=0 note=41 velocity=27 time=0
note_on channel=0 note=41 velocity=0 time=120
note_on channel=0 note=68 velocity=0 time=0
note_on channel=0 note=58 velocity=0 time=0
note_on channel=0 note=61 velocity=0 time=0
note_on channel=0 note=61 velocity=41 time=0
note_on channel=0 note=58 velocity=41 time=0
note_on channel=0 note=66 velocity=58 time=0
note_on channel=0 note=29 velocity=30 time=0
control_change channel=0 control=64 value=0 time=16
control_change channel=0 control=64 value=127 time=62
note_on channel=0 note=29 velocity=0 time=42
note_on channel=0 note=41 velocity=27 time=0
note_on channel=0 note=41 velocity=0 time=120
note_on channel=0 note=66 velocity=0 time=0
note_on channel=0 note=65 velocity=52 time=0
note_on channel=0 note=29 velocity=30 time=0
note_on channel=0 note=29 velocity=0 time=120
note_on channel=0 note=41 velocity=25 time=0
note_on channel=0 note=41 velocity=0 time=120
note_on channel=0 note=65 velocity=0 time=0
note_on channel=0 note=58 velocity=0 time=0
note_on channel=0 note=61 velocity=0 time=0
note_on channel=0 note=61 velocity=42 time=0
note_on channel=0 note=58 velocity=42 time=0
note_on channel=0 note=66 velocity=59 time=0
note_on channel=0 note=29 velocity=30 time=0
control_change channel=0 control=64 value=0 time=12
control_change channel=0 control=64 value=127 time=80
note_on channel=0 note=29 velocity=0 time=28
note_on channel=0 note=41 velocity=26 time=0
note_on channel=0 note=41 velocity=0 time=120
note_on channel=0 note=66 velocity=0 time=0
note_on channel=0 note=64 velocity=52 time=0
note_on channel=0 note=29 velocity=30 time=0
note_on channel=0 note=29 velocity=0 time=120
note_on channel=0 note=41 velocity=26 time=0
note_on channel=0 note=41 velocity=0 time=120
note_on channel=0 note=64 velocity=0 time=0
note_on channel=0 note=58 velocity=0 time=0
note_on channel=0 note=61 velocity=0 time=0
note_on channel=0 note=65 velocity=59 time=0
note_on channel=0 note=60 velocity=50 time=0
note_on channel=0 note=57 velocity=50 time=0
note_on channel=0 note=29 velocity=30 time=0
control_change channel=0 control=64 value=0 time=0
note_on channel=0 note=29 velocity=0 time=120
note_on channel=0 note=41 velocity=25 time=0
control_change channel=0 control=64 value=127 time=7
note_on channel=0 note=41 velocity=0 time=113
note_on channel=0 note=29 velocity=29 time=0
note_on channel=0 note=29 velocity=0 time=120
note_on channel=0 note=41 velocity=24 time=0
note_on channel=0 note=41 velocity=0 time=120
note_on channel=0 note=29 velocity=28 time=0
control_change channel=0 control=64 value=0 time=7
control_change channel=0 control=64 value=127 time=78
note_on channel=0 note=29 velocity=0 time=35
note_on channel=0 note=41 velocity=24 time=0
note_on channel=0 note=41 velocity=0 time=120
note_on channel=0 note=57 velocity=0 time=0
note_on channel=0 note=60 velocity=0 time=0
note_on channel=0 note=65 velocity=0 time=0
note_on channel=0 note=29 velocity=28 time=0
note_on channel=0 note=29 velocity=0 time=120
note_on channel=0 note=41 velocity=25 time=0
note_on channel=0 note=41 velocity=0 time=7
note_on channel=0 note=61 velocity=37 time=0
note_on channel=0 note=58 velocity=37 time=0
note_on channel=0 note=67 velocity=53 time=0
note_on channel=0 note=29 velocity=27 time=0
control_change channel=0 control=64 value=0 time=28
control_change channel=0 control=64 value=127 time=78
note_on channel=0 note=29 velocity=0 time=14
note_on channel=0 note=41 velocity=24 time=0
note_on channel=0 note=41 velocity=0 time=120
note_on channel=0 note=67 velocity=0 time=0
note_on channel=0 note=65 velocity=46 time=0
note_on channel=0 note=29 velocity=27 time=0
note_on channel=0 note=29 velocity=0 time=120
note_on channel=0 note=41 velocity=22 time=0
note_on channel=0 note=41 velocity=0 time=120
note_on channel=0 note=65 velocity=0 time=0
note_on channel=0 note=58 velocity=0 time=0
note_on channel=0 note=61 velocity=0 time=0
note_on channel=0 note=61 velocity=36 time=0
note_on channel=0 note=58 velocity=36 time=0
note_on channel=0 note=67 velocity=51 time=0
note_on channel=0 note=29 velocity=26 time=0
control_change channel=0 control=64 value=0 time=14
control_change channel=0 control=64 value=127 time=92
note_on channel=0 note=29 velocity=0 time=14
note_on channel=0 note=41 velocity=22 time=0
note_on channel=0 note=41 velocity=0 time=7
note_on channel=0 note=67 velocity=0 time=0
note_on channel=0 note=64 velocity=44 time=0
note_on channel=0 note=29 velocity=25 time=0
note_on channel=0 note=29 velocity=0 time=120
note_on channel=0 note=41 velocity=22 time=0
note_on channel=0 note=41 velocity=0 time=7
note_on channel=0 note=64 velocity=0 time=0
note_on channel=0 note=58 velocity=0 time=0
note_on channel=0 note=61 velocity=0 time=0
note_on channel=0 note=65 velocity=49 time=0
note_on channel=0 note=60 velocity=42 time=0
note_on channel=0 note=57 velocity=42 time=0
note_on channel=0 note=29 velocity=25 time=0
control_change channel=0 control=64 value=0 time=0
control_change channel=0 control=64 value=127 time=106
note_on channel=0 note=29 velocity=0 time=14
note_on channel=0 note=41 velocity=21 time=0
note_on channel=0 note=41 velocity=0 time=120
note_on channel=0 note=29 velocity=24 time=0
note_on channel=0 note=29 velocity=0 time=120
note_on channel=0 note=41 velocity=20 time=0
note_on channel=0 note=41 velocity=0 time=120
note_on channel=0 note=29 velocity=24 time=0
control_change channel=0 control=64 value=0 time=21
control_change channel=0 control=64 value=127 time=92
note_on channel=0 note=29 velocity=0 time=7
note_on channel=0 note=41 velocity=20 time=0
note_on channel=0 note=41 velocity=0 time=120
note_on channel=0 note=57 velocity=0 time=0
note_on channel=0 note=60 velocity=0 time=0
note_on channel=0 note=65 velocity=0 time=0
note_on channel=0 note=29 velocity=23 time=0
note_on channel=0 note=29 velocity=0 time=120
note_on channel=0 note=41 velocity=20 time=0
note_on channel=0 note=41 velocity=0 time=120
note_on channel=0 note=61 velocity=30 time=0
note_on channel=0 note=58 velocity=30 time=0
note_on channel=0 note=66 velocity=43 time=0
note_on channel=0 note=29 velocity=22 time=0
control_change channel=0 control=64 value=0 time=10
note_on channel=0 note=29 velocity=0 time=106
note_on channel=0 note=41 velocity=20 time=0
control_change channel=0 control=64 value=127 time=0
note_on channel=0 note=41 velocity=0 time=120
note_on channel=0 note=66 velocity=0 time=0
note_on channel=0 note=65 velocity=39 time=0
note_on channel=0 note=29 velocity=22 time=0
note_on channel=0 note=29 velocity=0 time=120
note_on channel=0 note=41 velocity=18 time=0
note_on channel=0 note=41 velocity=0 time=120
note_on channel=0 note=65 velocity=0 time=0
note_on channel=0 note=58 velocity=0 time=0
note_on channel=0 note=61 velocity=0 time=0
note_on channel=0 note=61 velocity=31 time=0
note_on channel=0 note=58 velocity=31 time=0
note_on channel=0 note=66 velocity=44 time=0
note_on channel=0 note=29 velocity=22 time=0
control_change channel=0 control=64 value=0 time=15
note_on channel=0 note=29 velocity=0 time=105
note_on channel=0 note=41 velocity=19 time=0
control_change channel=0 control=64 value=127 time=36
note_on channel=0 note=41 velocity=0 time=84
note_on channel=0 note=66 velocity=0 time=0
note_on channel=0 note=64 velocity=39 time=0
note_on channel=0 note=29 velocity=22 time=0
note_on channel=0 note=29 velocity=0 time=106
note_on channel=0 note=41 velocity=19 time=0
note_on channel=0 note=41 velocity=0 time=120
note_on channel=0 note=64 velocity=0 time=0
note_on channel=0 note=58 velocity=0 time=0
note_on channel=0 note=61 velocity=0 time=0
note_on channel=0 note=53 velocity=74 time=0
note_on channel=0 note=65 velocity=88 time=0
note_on channel=0 note=29 velocity=56 time=0
note_on channel=0 note=41 velocity=66 time=0
control_change channel=0 control=64 value=0 time=0
control_change channel=0 control=64 value=127 time=106
note_on channel=0 note=41 velocity=0 time=0
note_on channel=0 note=53 velocity=0 time=0
note_on channel=0 note=65 velocity=0 time=0
note_on channel=0 note=29 velocity=0 time=0
note_on channel=0 note=55 velocity=67 time=0
note_on channel=0 note=67 velocity=79 time=0
note_on channel=0 note=31 velocity=49 time=0
note_on channel=0 note=43 velocity=59 time=0
control_change channel=0 control=64 value=0 time=14
note_on channel=0 note=43 velocity=0 time=106
note_on channel=0 note=55 velocity=0 time=0
note_on channel=0 note=67 velocity=0 time=0
note_on channel=0 note=31 velocity=0 time=0
note_on channel=0 note=57 velocity=74 time=0
note_on channel=0 note=69 velocity=89 time=0
note_on channel=0 note=33 velocity=56 time=0
note_on channel=0 note=45 velocity=66 time=0
control_change channel=0 control=64 value=127 time=106
note_on channel=0 note=45 velocity=0 time=0
note_on channel=0 note=57 velocity=0 time=0
note_on channel=0 note=69 velocity=0 time=0
note_on channel=0 note=33 velocity=0 time=0
note_on channel=0 note=58 velocity=68 time=0
note_on channel=0 note=70 velocity=81 time=0
note_on channel=0 note=34 velocity=50 time=0
note_on channel=0 note=46 velocity=60 time=0
control_change channel=0 control=64 value=0 time=12
note_on channel=0 note=46 velocity=0 time=108
note_on channel=0 note=58 velocity=0 time=0
note_on channel=0 note=70 velocity=0 time=0
note_on channel=0 note=34 velocity=0 time=0
note_on channel=0 note=60 velocity=77 time=0
note_on channel=0 note=72 velocity=91 time=0
note_on channel=0 note=36 velocity=57 time=0
note_on channel=0 note=48 velocity=68 time=0
control_change channel=0 control=64 value=127 time=80
note_on channel=0 note=48 velocity=0 time=0
note_on channel=0 note=60 velocity=0 time=0
note_on channel=0 note=72 velocity=0 time=0
note_on channel=0 note=36 velocity=0 time=0
note_on channel=0 note=62 velocity=62 time=0
note_on channel=0 note=74 velocity=74 time=0
note_on channel=0 note=38 velocity=47 time=0
note_on channel=0 note=50 velocity=56 time=0
control_change channel=0 control=64 value=0 time=17
note_on channel=0 note=50 velocity=0 time=103
note_on channel=0 note=62 velocity=0 time=0
note_on channel=0 note=74 velocity=0 time=0
note_on channel=0 note=38 velocity=0 time=0
note_on channel=0 note=64 velocity=71 time=0
note_on channel=0 note=76 velocity=84 time=0
note_on channel=0 note=40 velocity=53 time=0
note_on channel=0 note=52 velocity=63 time=0
note_on channel=0 note=52 velocity=0 time=120
note_on channel=0 note=64 velocity=0 time=0
note_on channel=0 note=76 velocity=0 time=0
note_on channel=0 note=40 velocity=0 time=0
note_on channel=0 note=65 velocity=68 time=120
note_on channel=0 note=77 velocity=81 time=0
note_on channel=0 note=41 velocity=50 time=0
note_on channel=0 note=53 velocity=60 time=0
note_on channel=0 note=53 velocity=0 time=120
note_on channel=0 note=65 velocity=0 time=0
note_on channel=0 note=77 velocity=0 time=0
note_on channel=0 note=41 velocity=0 time=0
note_on channel=0 note=67 velocity=74 time=120
note_on channel=0 note=79 velocity=87 time=0
note_on channel=0 note=43 velocity=55 time=0
note_on channel=0 note=55 velocity=65 time=0
note_on channel=0 note=55 velocity=0 time=120
note_on channel=0 note=67 velocity=0 time=0
note_on channel=0 note=79 velocity=0 time=0
note_on channel=0 note=43 velocity=0 time=0
note_on channel=0 note=69 velocity=69 time=0
note_on channel=0 note=81 velocity=83 time=0
note_on channel=0 note=45 velocity=51 time=0
note_on channel=0 note=57 velocity=61 time=0
note_on channel=0 note=57 velocity=0 time=120
note_on channel=0 note=69 velocity=0 time=0
note_on channel=0 note=81 velocity=0 time=0
note_on channel=0 note=45 velocity=0 time=0
note_on channel=0 note=70 velocity=81 time=0
note_on channel=0 note=82 velocity=96 time=0
note_on channel=0 note=46 velocity=61 time=0
note_on channel=0 note=58 velocity=72 time=0
control_change channel=0 control=64 value=127 time=50
note_on channel=0 note=58 velocity=0 time=0
note_on channel=0 note=70 velocity=0 time=0
note_on channel=0 note=82 velocity=0 time=0
note_on channel=0 note=46 velocity=0 time=0
note_on channel=0 note=69 velocity=71 time=0
note_on channel=0 note=81 velocity=84 time=0
note_on channel=0 note=45 velocity=52 time=0
note_on channel=0 note=57 velocity=63 time=0
control_change channel=0 control=64 value=0 time=10
note_on channel=0 note=57 velocity=0 time=110
note_on channel=0 note=69 velocity=0 time=0
note_on channel=0 note=81 velocity=0 time=0
note_on channel=0 note=45 velocity=0 time=0
note_on channel=0 note=67 velocity=78 time=0
note_on channel=0 note=79 velocity=94 time=0
note_on channel=0 note=43 velocity=59 time=0
note_on channel=0 note=55 velocity=69 time=0
control_change channel=0 control=64 value=127 time=134
note_on channel=0 note=55 velocity=0 time=0
note_on channel=0 note=67 velocity=0 time=0
note_on channel=0 note=79 velocity=0 time=0
note_on channel=0 note=43 velocity=0 time=0
note_on channel=0 note=65 velocity=70 time=0
note_on channel=0 note=77 velocity=83 time=0
note_on channel=0 note=41 velocity=51 time=0
note_on channel=0 note=53 velocity=61 time=0
control_change channel=0 control=64 value=0 time=12
note_on channel=0 note=53 velocity=0 time=108
note_on channel=0 note=65 velocity=0 time=0
note_on channel=0 note=77 velocity=0 time=0
note_on channel=0 note=41 velocity=0 time=0
note_on channel=0 note=64 velocity=78 time=0
note_on channel=0 note=76 velocity=92 time=0
note_on channel=0 note=40 velocity=58 time=0
note_on channel=0 note=52 velocity=69 time=0
control_change channel=0 control=64 value=127 time=113
note_on channel=0 note=52 velocity=0 time=0
note_on channel=0 note=64 velocity=0 time=0
note_on channel=0 note=76 velocity=0 time=0
note_on channel=0 note=40 velocity=0 time=0
note_on channel=0 note=62 velocity=62 time=0
note_on channel=0 note=74 velocity=74 time=0
note_on channel=0 note=38 velocity=47 time=0
note_on channel=0 note=50 velocity=56 time=0
control_change channel=0 control=64 value=0 time=14
note_on channel=0 note=50 velocity=0 time=106
note_on channel=0 note=62 velocity=0 time=0
note_on channel=0 note=74 velocity=0 time=0
note_on channel=0 note=38 velocity=0 time=0
note_on channel=0 note=60 velocity=70 time=0
note_on channel=0 note=72 velocity=83 time=0
note_on channel=0 note=36 velocity=52 time=0
note_on channel=0 note=48 velocity=62 time=0
note_on channel=0 note=48 velocity=0 time=120
note_on channel=0 note=60 velocity=0 time=0
note_on channel=0 note=72 velocity=0 time=0
note_on channel=0 note=36 velocity=0 time=0
note_on channel=0 note=58 velocity=66 time=120
note_on channel=0 note=70 velocity=78 time=0
note_on channel=0 note=34 velocity=49 time=0
note_on channel=0 note=46 velocity=58 time=0
note_on channel=0 note=46 velocity=0 time=120
note_on channel=0 note=58 velocity=0 time=0
note_on channel=0 note=70 velocity=0 time=0
note_on channel=0 note=34 velocity=0 time=0
note_on channel=0 note=57 velocity=70 time=120
note_on channel=0 note=69 velocity=83 time=0
note_on channel=0 note=33 velocity=52 time=0
note_on channel=0 note=45 velocity=62 time=0
note_on channel=0 note=45 velocity=0 time=120
note_on channel=0 note=57 velocity=0 time=0
note_on channel=0 note=69 velocity=0 time=0
note_on channel=0 note=33 velocity=0 time=0
note_on channel=0 note=55 velocity=64 time=0
note_on channel=0 note=67 velocity=77 time=0
note_on channel=0 note=31 velocity=48 time=0
note_on channel=0 note=43 velocity=57 time=0
note_on channel=0 note=43 velocity=0 time=120
note_on channel=0 note=55 velocity=0 time=0
note_on channel=0 note=67 velocity=0 time=0
note_on channel=0 note=31 velocity=0 time=0
note_on channel=0 note=53 velocity=78 time=120
note_on channel=0 note=65 velocity=90 time=0
note_on channel=0 note=29 velocity=58 time=0
note_on channel=0 note=41 velocity=69 time=0
note_on channel=0 note=41 velocity=0 time=120
note_on channel=0 note=53 velocity=0 time=0
note_on channel=0 note=65 velocity=0 time=0
note_on channel=0 note=29 velocity=0 time=0
note_on channel=0 note=64 velocity=53 time=0
note_on channel=0 note=48 velocity=34 time=0
note_on channel=0 note=55 velocity=34 time=0
note_on channel=0 note=58 velocity=41 time=0
control_change channel=0 control=64 value=127 time=46
note_on channel=0 note=58 velocity=0 time=74
note_on channel=0 note=64 velocity=0 time=0
note_on channel=0 note=48 velocity=0 time=0
note_on channel=0 note=55 velocity=0 time=0
note_on channel=0 note=63 velocity=45 time=0
note_on channel=0 note=63 velocity=0 time=120
note_on channel=0 note=64 velocity=53 time=0
control_change channel=0 control=64 value=0 time=29
note_on channel=0 note=64 velocity=0 time=0
note_on channel=0 note=60 velocity=43 time=0
note_on channel=0 note=60 velocity=0 time=0
note_on channel=0 note=65 velocity=57 time=0
note_on channel=0 note=53 velocity=41 time=0
note_on channel=0 note=57 velocity=49 time=0
note_on channel=0 note=57 velocity=0 time=120
note_on channel=0 note=53 velocity=0 time=0
note_on channel=0 note=65 velocity=0 time=0
note_on channel=0 note=76 velocity=53 time=0
note_on channel=0 note=60 velocity=34 time=0
note_on channel=0 note=67 velocity=34 time=0
note_on channel=0 note=70 velocity=41 time=0
control_change channel=0 control=64 value=127 time=46
note_on channel=0 note=70 velocity=0 time=74
note_on channel=0 note=76 velocity=0 time=0
note_on channel=0 note=60 velocity=0 time=0
note_on channel=0 note=67 velocity=0 time=0
note_on channel=0 note=75 velocity=45 time=0
note_on channel=0 note=75 velocity=0 time=120
note_on channel=0 note=76 velocity=53 time=0
control_change channel=0 control=64 value=0 time=29
note_on channel=0 note=76 velocity=0 time=0
note_on channel=0 note=72 velocity=43 time=0
note_on channel=0 note=72 velocity=0 time=0
note_on channel=0 note=77 velocity=57 time=0
note_on channel=0 note=65 velocity=41 time=0
note_on channel=0 note=69 velocity=49 time=0
note_on channel=0 note=69 velocity=0 time=120
note_on channel=0 note=65 velocity=0 time=0
note_on channel=0 note=77 velocity=0 time=0
note_on channel=0 note=88 velocity=91 time=0
note_on channel=0 note=84 velocity=77 time=0
note_on channel=0 note=82 velocity=77 time=0
note_on channel=0 note=79 velocity=77 time=0
note_on channel=0 note=76 velocity=77 time=0
note_on channel=0 note=48 velocity=56 time=0
note_on channel=0 note=60 velocity=67 time=0
control_change channel=0 control=64 value=127 time=0
note_on channel=0 note=60 velocity=0 time=480
note_on channel=0 note=76 velocity=0 time=0
note_on channel=0 note=84 velocity=0 time=0
note_on channel=0 note=82 velocity=0 time=0
note_on channel=0 note=88 velocity=0 time=0
note_on channel=0 note=48 velocity=0 time=0
note_on channel=0 note=79 velocity=0 time=0
control_change channel=0 control=64 value=0 time=120
note_on channel=0 note=89 velocity=97 time=360
note_on channel=0 note=84 velocity=82 time=0
note_on channel=0 note=81 velocity=82 time=0
note_on channel=0 note=77 velocity=82 time=0
note_on channel=0 note=41 velocity=64 time=0
note_on channel=0 note=53 velocity=76 time=0
control_change channel=0 control=64 value=127 time=360
note_on channel=0 note=53 velocity=0 time=120
note_on channel=0 note=84 velocity=0 time=0
note_on channel=0 note=81 velocity=0 time=0
note_on channel=0 note=89 velocity=0 time=0
note_on channel=0 note=41 velocity=0 time=0
note_on channel=0 note=77 velocity=0 time=0
control_change channel=0 control=64 value=0 time=360
note_on channel=0 note=58 velocity=42 time=0
note_on channel=0 note=62 velocity=50 time=0
note_on channel=0 note=58 velocity=0 time=120
note_on channel=0 note=57 velocity=40 time=0
note_on channel=0 note=57 velocity=0 time=120
note_on channel=0 note=58 velocity=45 time=0
note_on channel=0 note=58 velocity=0 time=0
note_on channel=0 note=53 velocity=39 time=0
note_on channel=0 note=53 velocity=0 time=0
note_on channel=0 note=62 velocity=0 time=0
note_on channel=0 note=62 velocity=35 time=0
note_on channel=0 note=65 velocity=42 time=0
note_on channel=0 note=34 velocity=30 time=0
note_on channel=0 note=46 velocity=36 time=0
note_on channel=0 note=46 velocity=0 time=90
note_on channel=0 note=62 velocity=0 time=0
note_on channel=0 note=65 velocity=0 time=0
note_on channel=0 note=34 velocity=0 time=0
note_on channel=0 note=58 velocity=32 time=390
note_on channel=0 note=62 velocity=38 time=0
note_on channel=0 note=34 velocity=27 time=0
note_on channel=0 note=46 velocity=32 time=0
note_on channel=0 note=46 velocity=0 time=90
note_on channel=0 note=58 velocity=0 time=0
note_on channel=0 note=62 velocity=0 time=0
note_on channel=0 note=34 velocity=0 time=0
note_on channel=0 note=58 velocity=42 time=0
note_on channel=0 note=62 velocity=50 time=0
note_on channel=0 note=58 velocity=0 time=120
note_on channel=0 note=57 velocity=40 time=0
note_on channel=0 note=57 velocity=0 time=120
note_on channel=0 note=58 velocity=45 time=0
note_on channel=0 note=58 velocity=0 time=0
note_on channel=0 note=53 velocity=39 time=0
note_on channel=0 note=53 velocity=0 time=0
note_on channel=0 note=62 velocity=0 time=0
note_on channel=0 note=62 velocity=35 time=0
note_on channel=0 note=65 velocity=42 time=0
note_on channel=0 note=34 velocity=30 time=0
note_on channel=0 note=46 velocity=36 time=0
note_on channel=0 note=46 velocity=0 time=90
note_on channel=0 note=62 velocity=0 time=0
note_on channel=0 note=65 velocity=0 time=0
note_on channel=0 note=34 velocity=0 time=0
note_on channel=0 note=58 velocity=32 time=390
note_on channel=0 note=62 velocity=38 time=0
note_on channel=0 note=34 velocity=27 time=0
note_on channel=0 note=46 velocity=32 time=0
note_on channel=0 note=46 velocity=0 time=90
note_on channel=0 note=58 velocity=0 time=0
note_on channel=0 note=62 velocity=0 time=0
note_on channel=0 note=34 velocity=0 time=0
note_on channel=0 note=62 velocity=50 time=0
note_on channel=0 note=58 velocity=42 time=0
note_on channel=0 note=57 velocity=40 time=120
note_on channel=0 note=58 velocity=0 time=12
note_on channel=0 note=62 velocity=0 time=108
note_on channel=0 note=58 velocity=46 time=0
note_on channel=0 note=57 velocity=0 time=12
note_on channel=0 note=53 velocity=40 time=108
note_on channel=0 note=58 velocity=0 time=12
note_on channel=0 note=53 velocity=0 time=0
note_on channel=0 note=65 velocity=53 time=0
note_on channel=0 note=62 velocity=44 time=0
note_on channel=0 note=61 velocity=42 time=120
note_on channel=0 note=62 velocity=0 time=12
note_on channel=0 note=65 velocity=0 time=108
note_on channel=0 note=62 velocity=49 time=0
note_on channel=0 note=61 velocity=0 time=12
note_on channel=0 note=58 velocity=42 time=108
note_on channel=0 note=62 velocity=0 time=12
note_on channel=0 note=58 velocity=0 time=0
note_on channel=0 note=65 velocity=47 time=0
note_on channel=0 note=70 velocity=56 time=0
note_on channel=0 note=64 velocity=45 time=120
note_on channel=0 note=65 velocity=0 time=12
note_on channel=0 note=70 velocity=0 time=108
note_on channel=0 note=65 velocity=51 time=0
note_on channel=0 note=64 velocity=0 time=12
note_on channel=0 note=62 velocity=45 time=108
note_on channel=0 note=65 velocity=0 time=12
note_on channel=0 note=62 velocity=0 time=0
note_on channel=0 note=70 velocity=49 time=0
note_on channel=0 note=74 velocity=59 time=0
note_on channel=0 note=69 velocity=47 time=120
note_on channel=0 note=70 velocity=0 time=12
note_on channel=0 note=74 velocity=0 time=108
note_on channel=0 note=70 velocity=54 time=0
note_on channel=0 note=69 velocity=0 time=12
note_on channel=0 note=65 velocity=47 time=108
note_on channel=0 note=70 velocity=0 time=12
note_on channel=0 note=65 velocity=0 time=0
note_on channel=0 note=74 velocity=52 time=0
note_on channel=0 note=77 velocity=62 time=0
note_on channel=0 note=73 velocity=50 time=120
note_on channel=0 note=74 velocity=0 time=12
note_on channel=0 note=77 velocity=0 time=108
note_on channel=0 note=74 velocity=57 time=0
note_on channel=0 note=73 velocity=0 time=12
note_on channel=0 note=70 velocity=49 time=0
note_on channel=0 note=74 velocity=0 time=12
note_on channel=0 note=70 velocity=0 time=0
note_on channel=0 note=82 velocity=72 time=0
note_on channel=0 note=46 velocity=44 time=0
control_change channel=0 control=64 value=127 time=71
note_on channel=0 note=46 velocity=0 time=49
note_on channel=0 note=50 velocity=31 time=0
note_on channel=0 note=50 velocity=0 time=120
note_on channel=0 note=53 velocity=31 time=0
note_on channel=0 note=53 velocity=0 time=120
note_on channel=0 note=58 velocity=31 time=0
note_on channel=0 note=58 velocity=0 time=120
note_on channel=0 note=46 velocity=44 time=0
note_on channel=0 note=46 velocity=0 time=120
note_on channel=0 note=50 velocity=32 time=0
note_on channel=0 note=50 velocity=0 time=120
note_on channel=0 note=53 velocity=32 time=0
note_on channel=0 note=53 velocity=0 time=120
note_on channel=0 note=58 velocity=32 time=0
note_on channel=0 note=58 velocity=0 time=120
note_on channel=0 note=46 velocity=44 time=0
note_on channel=0 note=46 velocity=0 time=120
note_on channel=0 note=50 velocity=33 time=0
note_on channel=0 note=50 velocity=0 time=120
note_on channel=0 note=53 velocity=33 time=0
note_on channel=0 note=53 velocity=0 time=120
note_on channel=0 note=58 velocity=33 time=0
note_on channel=0 note=58 velocity=0 time=120
note_on channel=0 note=82 velocity=0 time=0
note_on channel=0 note=81 velocity=60 time=0
note_on channel=0 note=46 velocity=44 time=0
note_on channel=0 note=46 velocity=0 time=120
note_on channel=0 note=81 velocity=0 time=0
note_on channel=0 note=82 velocity=57 time=0
note_on channel=0 note=50 velocity=33 time=0
note_on channel=0 note=50 velocity=0 time=120
note_on channel=0 note=82 velocity=0 time=0
note_on channel=0 note=84 velocity=60 time=0
note_on channel=0 note=53 velocity=33 time=0
note_on channel=0 note=53 velocity=0 time=0
note_on channel=0 note=84 velocity=0 time=0
note_on channel=0 note=82 velocity=54 time=0
note_on channel=0 note=58 velocity=33 time=0
note_on channel=0 note=58 velocity=0 time=0
note_on channel=0 note=82 velocity=0 time=0
note_on channel=0 note=81 velocity=60 time=0
note_on channel=0 note=46 velocity=44 time=0
control_change channel=0 control=64 value=0 time=37
control_change channel=0 control=64 value=127 time=76
note_on channel=0 note=46 velocity=0 time=7
note_on channel=0 note=51 velocity=31 time=0
note_on channel=0 note=51 velocity=0 time=120
note_on channel=0 note=81 velocity=0 time=0
note_on channel=0 note=79 velocity=51 time=0
note_on channel=0 note=55 velocity=31 time=0
note_on channel=0 note=55 velocity=0 time=120
note_on channel=0 note=58 velocity=31 time=0
note_on channel=0 note=58 velocity=0 time=120
note_on channel=0 note=79 velocity=0 time=0
note_on channel=0 note=77 velocity=54 time=0
note_on channel=0 note=46 velocity=42 time=0
note_on channel=0 note=46 velocity=0 time=120
note_on channel=0 note=51 velocity=28 time=0
note_on channel=0 note=51 velocity=0 time=120
note_on channel=0 note=77 velocity=0 time=0
note_on channel=0 note=75 velocity=50 time=0
note_on channel=0 note=55 velocity=28 time=0
note_on channel=0 note=55 velocity=0 time=120
note_on channel=0 note=58 velocity=28 time=0
note_on channel=0 note=58 velocity=0 time=120
note_on channel=0 note=75 velocity=0 time=0
note_on channel=0 note=74 velocity=59 time=0
note_on channel=0 note=46 velocity=41 time=0
control_change channel=0 control=64 value=0 time=14
note_on channel=0 note=46 velocity=0 time=106
note_on channel=0 note=51 velocity=29 time=0
control_change channel=0 control=64 value=127 time=21
note_on channel=0 note=51 velocity=0 time=99
note_on channel=0 note=74 velocity=0 time=0
note_on channel=0 note=72 velocity=48 time=0
note_on channel=0 note=53 velocity=29 time=0
note_on channel=0 note=53 velocity=0 time=120
note_on channel=0 note=57 velocity=29 time=0
note_on channel=0 note=57 velocity=0 time=120
note_on channel=0 note=72 velocity=0 time=0
note_on channel=0 note=79 velocity=56 time=0
note_on channel=0 note=46 velocity=41 time=0
note_on channel=0 note=46 velocity=0 time=120
note_on channel=0 note=51 velocity=31 time=0
note_on channel=0 note=51 velocity=0 time=120
note_on channel=0 note=79 velocity=0 time=0
note_on channel=0 note=77 velocity=47 time=0
note_on channel=0 note=53 velocity=31 time=0
note_on channel=0 note=53 velocity=0 time=0
note_on channel=0 note=57 velocity=31 time=0
note_on channel=0 note=57 velocity=0 time=0
note_on channel=0 note=77 velocity=0 time=0
note_on channel=0 note=75 velocity=54 time=0
note_on channel=0 note=46 velocity=44 time=0
control_change channel=0 control=64 value=0 time=9
control_change channel=0 control=64 value=127 time=83
note_on channel=0 note=46 velocity=0 time=28
note_on channel=0 note=50 velocity=31 time=0
note_on channel=0 note=50 velocity=0 time=120
note_on channel=0 note=53 velocity=31 time=0
note_on channel=0 note=53 velocity=0 time=120
note_on channel=0 note=58 velocity=31 time=0
note_on channel=0 note=58 velocity=0 time=120
note_on channel=0 note=75 velocity=0 time=0
note_on channel=0 note=74 velocity=47 time=0
note_on channel=0 note=46 velocity=44 time=0
control_change channel=0 control=64 value=0 time=17
control_change channel=0 control=64 value=127 time=96
note_on channel=0 note=46 velocity=0 time=7
note_on channel=0 note=50 velocity=32 time=0
note_on channel=0 note=50 velocity=0 time=120
note_on channel=0 note=53 velocity=32 time=0
note_on channel=0 note=53 velocity=0 time=120
note_on channel=0 note=58 velocity=32 time=0
control_change channel=0 control=64 value=0 time=99
note_on channel=0 note=58 velocity=0 time=0
note_on channel=0 note=74 velocity=0 time=0
note_on channel=0 note=46 velocity=44 time=0
control_change channel=0 control=64 value=127 time=46
note_on channel=0 note=46 velocity=0 time=74
note_on channel=0 note=50 velocity=32 time=0
note_on channel=0 note=50 velocity=0 time=120
note_on channel=0 note=53 velocity=32 time=0
note_on channel=0 note=53 velocity=0 time=120
note_on channel=0 note=56 velocity=32 time=0
note_on channel=0 note=56 velocity=0 time=120
note_on channel=0 note=69 velocity=58 time=0
note_on channel=0 note=46 velocity=44 time=0
note_on channel=0 note=46 velocity=0 time=120
note_on channel=0 note=69 velocity=0 time=0
note_on channel=0 note=70 velocity=54 time=0
note_on channel=0 note=50 velocity=32 time=0
note_on channel=0 note=50 velocity=0 time=120
note_on channel=0 note=70 velocity=0 time=0
note_on channel=0 note=72 velocity=58 time=0
note_on channel=0 note=53 velocity=32 time=0
note_on channel=0 note=53 velocity=0 time=120
note_on channel=0 note=72 velocity=0 time=0
note_on channel=0 note=70 velocity=54 time=0
note_on channel=0 note=56 velocity=32 time=0
note_on channel=0 note=56 velocity=0 time=0
note_on channel=0 note=70 velocity=0 time=0
note_on channel=0 note=68 velocity=60 time=0
note_on channel=0 note=46 velocity=44 time=0
control_change channel=0 control=64 value=0 time=0
control_change channel=0 control=64 value=127 time=85
note_on channel=0 note=46 velocity=0 time=35
note_on channel=0 note=51 velocity=32 time=0
note_on channel=0 note=51 velocity=0 time=120
note_on channel=0 note=68 velocity=0 time=0
note_on channel=0 note=67 velocity=54 time=0
note_on channel=0 note=55 velocity=32 time=0
note_on channel=0 note=55 velocity=0 time=120
note_on channel=0 note=51 velocity=32 time=0
note_on channel=0 note=51 velocity=0 time=120
note_on channel=0 note=67 velocity=0 time=0
note_on channel=0 note=65 velocity=66 time=0
note_on channel=0 note=46 velocity=44 time=0
control_change channel=0 control=64 value=0 time=9
control_change channel=0 control=64 value=127 time=104
note_on channel=0 note=46 velocity=0 time=7
note_on channel=0 note=51 velocity=36 time=0
note_on channel=0 note=51 velocity=0 time=120
note_on channel=0 note=65 velocity=0 time=0
note_on channel=0 note=63 velocity=61 time=0
note_on channel=0 note=55 velocity=36 time=0
note_on channel=0 note=55 velocity=0 time=0
note_on channel=0 note=51 velocity=36 time=0
note_on channel=0 note=51 velocity=0 time=0
note_on channel=0 note=63 velocity=0 time=0
note_on channel=0 note=62 velocity=69 time=0
note_on channel=0 note=46 velocity=48 time=0
control_change channel=0 control=64 value=0 time=13
control_change channel=0 control=64 value=127 time=79
note_on channel=0 note=46 velocity=0 time=28
note_on channel=0 note=48 velocity=37 time=0
note_on channel=0 note=48 velocity=0 time=120
note_on channel=0 note=62 velocity=0 time=0
note_on channel=0 note=60 velocity=62 time=0
note_on channel=0 note=51 velocity=38 time=0
note_on channel=0 note=51 velocity=0 time=120
note_on channel=0 note=53 velocity=40 time=0
note_on channel=0 note=53 velocity=0 time=0
note_on channel=0 note=60 velocity=0 time=0
note_on channel=0 note=63 velocity=73 time=0
note_on channel=0 note=46 velocity=50 time=0
control_change channel=0 control=64 value=0 time=14
control_change channel=0 control=64 value=127 time=78
note_on channel=0 note=46 velocity=0 time=28
note_on channel=0 note=48 velocity=40 time=0
note_on channel=0 note=48 velocity=0 time=120
note_on channel=0 note=63 velocity=0 time=0
note_on channel=0 note=57 velocity=63 time=0
note_on channel=0 note=51 velocity=39 time=0
note_on channel=0 note=51 velocity=0 time=0
note_on channel=0 note=53 velocity=43 time=0
note_on channel=0 note=53 velocity=0 time=0
note_on channel=0 note=57 velocity=0 time=0
note_on channel=0 note=58 velocity=79 time=0
note_on channel=0 note=46 velocity=60 time=0
control_change channel=0 control=64 value=0 time=0
note_on channel=0 note=46 velocity=0 time=120
note_on channel=0 note=58 velocity=0 time=0
note_on channel=0 note=62 velocity=68 time=0
note_on channel=0 note=62 velocity=0 time=120
note_on channel=0 note=60 velocity=65 time=0
note_on channel=0 note=60 velocity=0 time=120
note_on channel=0 note=58 velocity=71 time=0
note_on channel=0 note=46 velocity=53 time=0
note_on channel=0 note=46 velocity=0 time=120
note_on channel=0 note=58 velocity=0 time=0
note_on channel=0 note=57 velocity=65 time=0
note_on channel=0 note=45 velocity=46 time=0
note_on channel=0 note=45 velocity=0 time=120
note_on channel=0 note=57 velocity=0 time=0
note_on channel=0 note=58 velocity=71 time=0
note_on channel=0 note=46 velocity=53 time=0
note_on channel=0 note=46 velocity=0 time=120
note_on channel=0 note=58 velocity=0 time=0
note_on channel=0 note=55 velocity=65 time=0
note_on channel=0 note=43 velocity=46 time=0
note_on channel=0 note=43 velocity=0 time=0
note_on channel=0 note=55 velocity=0 time=0
note_on channel=0 note=53 velocity=79 time=0
note_on channel=0 note=41 velocity=60 time=0
note_on channel=0 note=41 velocity=0 time=0
note_on channel=0 note=53 velocity=0 time=0
note_on channel=0 note=67 velocity=68 time=0
note_on channel=0 note=67 velocity=0 time=120
note_on channel=0 note=65 velocity=65 time=0
note_on channel=0 note=65 velocity=0 time=120
note_on channel=0 note=63 velocity=71 time=0
note_on channel=0 note=51 velocity=53 time=0
control_change channel=0 control=64 value=127 time=71
note_on channel=0 note=51 velocity=0 time=49
note_on channel=0 note=63 velocity=0 time=0
note_on channel=0 note=62 velocity=65 time=0
note_on channel=0 note=50 velocity=46 time=0
note_on channel=0 note=50 velocity=0 time=120
note_on channel=0 note=62 velocity=0 time=0
note_on channel=0 note=63 velocity=71 time=0
note_on channel=0 note=51 velocity=53 time=0
note_on channel=0 note=51 velocity=0 time=120
note_on channel=0 note=63 velocity=0 time=0
note_on channel=0 note=60 velocity=65 time=0
note_on channel=0 note=48 velocity=46 time=0
note_on channel=0 note=48 velocity=0 time=0
note_on channel=0 note=60 velocity=0 time=0
note_on channel=0 note=58 velocity=79 time=0
note_on channel=0 note=46 velocity=60 time=0
control_change channel=0 control=64 value=0 time=0
note_on channel=0 note=46 velocity=0 time=0
note_on channel=0 note=58 velocity=0 time=0
note_on channel=0 note=74 velocity=68 time=0
note_on channel=0 note=74 velocity=0 time=120
note_on channel=0 note=72 velocity=65 time=0
note_on channel=0 note=72 velocity=0 time=0
note_on channel=0 note=70 velocity=71 time=0
note_on channel=0 note=58 velocity=53 time=0
control_change channel=0 control=64 value=127 time=43
note_on channel=0 note=58 velocity=0 time=77
note_on channel=0 note=70 velocity=0 time=0
note_on channel=0 note=69 velocity=65 time=0
note_on channel=0 note=57 velocity=46 time=0
note_on channel=0 note=57 velocity=0 time=120
note_on channel=0 note=69 velocity=0 time=0
note_on channel=0 note=70 velocity=71 time=0
note_on channel=0 note=58 velocity=53 time=0
note_on channel=0 note=58 velocity=0 time=120
note_on channel=0 note=70 velocity=0 time=0
note_on channel=0 note=67 velocity=65 time=0
note_on channel=0 note=55 velocity=46 time=0
note_on channel=0 note=55 velocity=0 time=0
note_on channel=0 note=67 velocity=0 time=0
note_on channel=0 note=65 velocity=79 time=0
note_on channel=0 note=53 velocity=60 time=0
control_change channel=0 control=64 value=0 time=50
note_on channel=0 note=53 velocity=0 time=0
note_on channel=0 note=65 velocity=0 time=0
note_on channel=0 note=79 velocity=78 time=0
note_on channel=0 note=79 velocity=0 time=120
note_on channel=0 note=77 velocity=74 time=0
note_on channel=0 note=77 velocity=0 time=0
note_on channel=0 note=75 velocity=81 time=0
note_on channel=0 note=63 velocity=60 time=0
note_on channel=0 note=63 velocity=0 time=120
note_on channel=0 note=75 velocity=0 time=0
note_on channel=0 note=74 velocity=74 time=0
note_on channel=0 note=62 velocity=52 time=0
control_change channel=0 control=64 value=127 time=0
note_on channel=0 note=62 velocity=0 time=120
note_on channel=0 note=74 velocity=0 time=0
note_on channel=0 note=75 velocity=81 time=0
note_on channel=0 note=63 velocity=60 time=0
note_on channel=0 note=63 velocity=0 time=120
note_on channel=0 note=75 velocity=0 time=0
note_on channel=0 note=72 velocity=74 time=0
note_on channel=0 note=60 velocity=52 time=0
note_on channel=0 note=60 velocity=0 time=0
note_on channel=0 note=72 velocity=0 time=0
note_on channel=0 note=70 velocity=90 time=0
note_on channel=0 note=58 velocity=69 time=0
control_change channel=0 control=64 value=0 time=0
note_on channel=0 note=58 velocity=0 time=120
note_on channel=0 note=70 velocity=0 time=0
note_on channel=0 note=72 velocity=68 time=0
note_on channel=0 note=60 velocity=53 time=0
control_change channel=0 control=64 value=127 time=13
note_on channel=0 note=60 velocity=0 time=107
note_on channel=0 note=72 velocity=0 time=0
note_on channel=0 note=74 velocity=68 time=0
note_on channel=0 note=62 velocity=48 time=0
note_on channel=0 note=62 velocity=0 time=120
note_on channel=0 note=74 velocity=0 time=0
note_on channel=0 note=75 velocity=77 time=0
note_on channel=0 note=63 velocity=54 time=0
note_on channel=0 note=63 velocity=0 time=120
note_on channel=0 note=75 velocity=0 time=0
note_on channel=0 note=77 velocity=70 time=0
note_on channel=0 note=65 velocity=48 time=0
note_on channel=0 note=65 velocity=0 time=120
note_on channel=0 note=77 velocity=0 time=0
note_on channel=0 note=79 velocity=70 time=0
note_on channel=0 note=67 velocity=48 time=0
note_on channel=0 note=67 velocity=0 time=120
note_on channel=0 note=79 velocity=0 time=0
note_on channel=0 note=81 velocity=71 time=0
note_on channel=0 note=69 velocity=49 time=0
note_on channel=0 note=69 velocity=0 time=9
note_on channel=0 note=81 velocity=0 time=0
note_on channel=0 note=82 velocity=73 time=0
note_on channel=0 note=70 velocity=56 time=0
control_change channel=0 control=64 value=0 time=22
note_on channel=0 note=82 velocity=0 time=8
note_on channel=0 note=84 velocity=65 time=0
note_on channel=0 note=84 velocity=0 time=11
note_on channel=0 note=82 velocity=81 time=0
control_change channel=0 control=64 value=127 time=0
note_on channel=0 note=82 velocity=0 time=14
note_on channel=0 note=70 velocity=0 time=0
note_on channel=0 note=81 velocity=72 time=0
note_on channel=0 note=69 velocity=50 time=0
note_on channel=0 note=69 velocity=0 time=18
note_on channel=0 note=81 velocity=0 time=0
note_on channel=0 note=82 velocity=73 time=0
note_on channel=0 note=70 velocity=50 time=0
note_on channel=0 note=70 velocity=0 time=42
note_on channel=0 note=82 velocity=0 time=0
note_on channel=0 note=84 velocity=74 time=0
note_on channel=0 note=72 velocity=51 time=0
note_on channel=0 note=72 velocity=0 time=9
note_on channel=0 note=84 velocity=0 time=0
note_on channel=0 note=86 velocity=74 time=0
note_on channel=0 note=74 velocity=58 time=0
control_change channel=0 control=64 value=0 time=10
note_on channel=0 note=86 velocity=0 time=0
note_on channel=0 note=87 velocity=66 time=0
control_change channel=0 control=64 value=127 time=24
note_on channel=0 note=87 velocity=0 time=6
note_on channel=0 note=86 velocity=83 time=0
note_on channel=0 note=74 velocity=0 time=33
note_on channel=0 note=84 velocity=75 time=0
note_on channel=0 note=72 velocity=52 time=0
note_on channel=0 note=86 velocity=0 time=16
note_on channel=0 note=72 velocity=0 time=18
note_on channel=0 note=84 velocity=0 time=0
note_on channel=0 note=86 velocity=76 time=0
note_on channel=0 note=74 velocity=52 time=0
note_on channel=0 note=74 velocity=0 time=0
note_on channel=0 note=86 velocity=0 time=0
note_on channel=0 note=88 velocity=76 time=0
note_on channel=0 note=76 velocity=53 time=0
note_on channel=0 note=76 velocity=0 time=0
note_on channel=0 note=88 velocity=0 time=0
note_on channel=0 note=89 velocity=97 time=0
note_on channel=0 note=77 velocity=73 time=0
control_change channel=0 control=64 value=0 time=7
note_on channel=0 note=77 velocity=0 time=113
note_on channel=0 note=89 velocity=0 time=0
note_on channel=0 note=65 velocity=79 time=360
note_on channel=0 note=53 velocity=60 time=0
note_on channel=0 note=53 velocity=0 time=120
note_on channel=0 note=65 velocity=0 time=0
note_on channel=0 note=46 velocity=65 time=0
note_on channel=0 note=46 velocity=0 time=120
note_on channel=0 note=45 velocity=57 time=0
note_on channel=0 note=45 velocity=0 time=120
note_on channel=0 note=46 velocity=62 time=0
note_on channel=0 note=46 velocity=0 time=0
note_on channel=0 note=41 velocity=55 time=0
note_on channel=0 note=41 velocity=0 time=0
note_on channel=0 note=50 velocity=65 time=0
note_on channel=0 note=50 velocity=0 time=120
note_on channel=0 note=49 velocity=58 time=0
note_on channel=0 note=49 velocity=0 time=120
note_on channel=0 note=50 velocity=63 time=0
note_on channel=0 note=50 velocity=0 time=0
note_on channel=0 note=46 velocity=57 time=0
note_on channel=0 note=46 velocity=0 time=0
note_on channel=0 note=53 velocity=65 time=0
note_on channel=0 note=53 velocity=0 time=120
note_on channel=0 note=52 velocity=58 time=0
note_on channel=0 note=52 velocity=0 time=120
note_on channel=0 note=53 velocity=63 time=0
note_on channel=0 note=53 velocity=0 time=0
note_on channel=0 note=50 velocity=57 time=0
note_on channel=0 note=50 velocity=0 time=0
note_on channel=0 note=58 velocity=65 time=0
note_on channel=0 note=58 velocity=0 time=120
note_on channel=0 note=57 velocity=58 time=0
note_on channel=0 note=57 velocity=0 time=120
note_on channel=0 note=58 velocity=63 time=0
note_on channel=0 note=58 velocity=0 time=0
note_on channel=0 note=53 velocity=57 time=0
note_on channel=0 note=53 velocity=0 time=0
note_on channel=0 note=62 velocity=63 time=0
note_on channel=0 note=62 velocity=0 time=120
note_on channel=0 note=61 velocity=58 time=0
note_on channel=0 note=61 velocity=0 time=120
note_on channel=0 note=62 velocity=62 time=0
note_on channel=0 note=62 velocity=0 time=0
note_on channel=0 note=58 velocity=57 time=0
note_on channel=0 note=58 velocity=0 time=0
note_on channel=0 note=65 velocity=72 time=0
note_on channel=0 note=65 velocity=0 time=360
note_on channel=0 note=63 velocity=63 time=0
note_on channel=0 note=63 velocity=0 time=0
note_on channel=0 note=77 velocity=75 time=0
note_on channel=0 note=62 velocity=71 time=0
note_on channel=0 note=62 velocity=0 time=360
note_on channel=0 note=60 velocity=63 time=0
note_on channel=0 note=60 velocity=0 time=120
note_on channel=0 note=58 velocity=72 time=0
note_on channel=0 note=58 velocity=0 time=0
note_on channel=0 note=56 velocity=63 time=0
note_on channel=0 note=56 velocity=0 time=0
note_on channel=0 note=55 velocity=72 time=0
control_change channel=0 control=64 value=127 time=183
note_on channel=0 note=71 velocity=56 time=0
note_on channel=0 note=71 velocity=0 time=0
note_on channel=0 note=55 velocity=0 time=0
note_on channel=0 note=77 velocity=0 time=0
note_on channel=0 note=72 velocity=44 time=0
note_on channel=0 note=75 velocity=53 time=0
note_on channel=0 note=56 velocity=48 time=0
control_change channel=0 control=64 value=0 time=26
control_change channel=0 control=64 value=127 time=203
note_on channel=0 note=56 velocity=0 time=0
note_on channel=0 note=75 velocity=0 time=0
note_on channel=0 note=72 velocity=0 time=0
note_on channel=0 note=69 velocity=41 time=0
note_on channel=0 note=74 velocity=49 time=0
note_on channel=0 note=54 velocity=42 time=0
control_change channel=0 control=64 value=0 time=15
control_change channel=0 control=64 value=127 time=214
note_on channel=0 note=54 velocity=0 time=0
note_on channel=0 note=69 velocity=0 time=0
note_on channel=0 note=70 velocity=55 time=0
note_on channel=0 note=55 velocity=51 time=0
control_change channel=0 control=64 value=0 time=8
control_change channel=0 control=64 value=127 time=175
note_on channel=0 note=55 velocity=0 time=297
note_on channel=0 note=70 velocity=0 time=0
note_on channel=0 note=74 velocity=0 time=0
note_on channel=0 note=67 velocity=41 time=0
note_on channel=0 note=72 velocity=49 time=0
note_on channel=0 note=52 velocity=44 time=0
control_change channel=0 control=64 value=0 time=15
control_change channel=0 control=64 value=127 time=237
note_on channel=0 note=52 velocity=0 time=228
note_on channel=0 note=67 velocity=0 time=0
note_on channel=0 note=69 velocity=55 time=0
note_on channel=0 note=53 velocity=52 time=0
control_change channel=0 control=64 value=0 time=16
control_change channel=0 control=64 value=127 time=236
note_on channel=0 note=53 velocity=0 time=0
note_on channel=0 note=69 velocity=0 time=0
note_on channel=0 note=72 velocity=0 time=0
note_on channel=0 note=65 velocity=42 time=0
note_on channel=0 note=71 velocity=50 time=0
note_on channel=0 note=50 velocity=34 time=0
control_change channel=0 control=64 value=0 time=15
control_change channel=0 control=64 value=127 time=214
note_on channel=0 note=50 velocity=0 time=0
note_on channel=0 note=71 velocity=0 time=0
note_on channel=0 note=65 velocity=0 time=0
note_on channel=0 note=72 velocity=68 time=0
note_on channel=0 note=36 velocity=51 time=0
note_on channel=0 note=48 velocity=51 time=0
control_change channel=0 control=64 value=0 time=0
control_change channel=0 control=64 value=127 time=97
note_on channel=0 note=72 velocity=0 time=23
note_on channel=0 note=64 velocity=34 time=0
note_on channel=0 note=67 velocity=40 time=0
note_on channel=0 note=67 velocity=0 time=120
note_on channel=0 note=36 velocity=0 time=0
note_on channel=0 note=48 velocity=0 time=0
note_on channel=0 note=64 velocity=0 time=0
note_on channel=0 note=72 velocity=62 time=0
note_on channel=0 note=60 velocity=42 time=0
note_on channel=0 note=72 velocity=0 time=120
note_on channel=0 note=64 velocity=33 time=0
note_on channel=0 note=67 velocity=39 time=0
note_on channel=0 note=60 velocity=0 time=17
note_on channel=0 note=67 velocity=0 time=103
note_on channel=0 note=64 velocity=0 time=0
note_on channel=0 note=72 velocity=64 time=0
note_on channel=0 note=60 velocity=42 time=0
note_on channel=0 note=72 velocity=0 time=120
note_on channel=0 note=64 velocity=34 time=0
note_on channel=0 note=67 velocity=41 time=0
note_on channel=0 note=60 velocity=0 time=17
note_on channel=0 note=67 velocity=0 time=103
note_on channel=0 note=64 velocity=0 time=0
note_on channel=0 note=74 velocity=68 time=0
note_on channel=0 note=60 velocity=42 time=0
note_on channel=0 note=74 velocity=0 time=0
note_on channel=0 note=64 velocity=34 time=0
note_on channel=0 note=67 velocity=40 time=0
note_on channel=0 note=60 velocity=0 time=17
note_on channel=0 note=67 velocity=0 time=0
note_on channel=0 note=64 velocity=0 time=0
note_on channel=0 note=76 velocity=62 time=0
note_on channel=0 note=60 velocity=51 time=0
control_change channel=0 control=64 value=0 time=15
control_change channel=0 control=64 value=127 time=77
note_on channel=0 note=76 velocity=0 time=28
note_on channel=0 note=67 velocity=38 time=0
note_on channel=0 note=70 velocity=45 time=0
note_on channel=0 note=60 velocity=0 time=17
note_on channel=0 note=70 velocity=0 time=103
note_on channel=0 note=67 velocity=0 time=0
note_on channel=0 note=72 velocity=68 time=0
note_on channel=0 note=60 velocity=43 time=0
control_change channel=0 control=64 value=0 time=12
control_change channel=0 control=64 value=127 time=97
note_on channel=0 note=72 velocity=0 time=11
note_on channel=0 note=67 velocity=38 time=0
note_on channel=0 note=70 velocity=45 time=0
note_on channel=0 note=60 velocity=0 time=17
note_on channel=0 note=70 velocity=0 time=0
note_on channel=0 note=67 velocity=0 time=0
note_on channel=0 note=74 velocity=68 time=0
note_on channel=0 note=60 velocity=43 time=0
control_change channel=0 control=64 value=0 time=11
control_change channel=0 control=64 value=127 time=58
note_on channel=0 note=74 velocity=0 time=51
note_on channel=0 note=67 velocity=38 time=0
note_on channel=0 note=70 velocity=45 time=0
note_on channel=0 note=60 velocity=0 time=17
note_on channel=0 note=70 velocity=0 time=103
note_on channel=0 note=67 velocity=0 time=0
note_on channel=0 note=76 velocity=70 time=0
note_on channel=0 note=60 velocity=43 time=0
control_change channel=0 control=64 value=0 time=13
control_change channel=0 control=64 value=127 time=96
note_on channel=0 note=76 velocity=0 time=0
note_on channel=0 note=67 velocity=38 time=0
note_on channel=0 note=70 velocity=45 time=0
note_on channel=0 note=60 velocity=0 time=17
note_on channel=0 note=70 velocity=0 time=0
note_on channel=0 note=67 velocity=0 time=0
note_on channel=0 note=77 velocity=68 time=0
note_on channel=0 note=60 velocity=51 time=0
control_change channel=0 control=64 value=0 time=0
control_change channel=0 control=64 value=127 time=97
note_on channel=0 note=77 velocity=0 time=23
note_on channel=0 note=65 velocity=34 time=0
note_on channel=0 note=69 velocity=40 time=0
note_on channel=0 note=60 velocity=0 time=17
note_on channel=0 note=69 velocity=0 time=103
note_on channel=0 note=65 velocity=0 time=0
note_on channel=0 note=77 velocity=62 time=0
note_on channel=0 note=60 velocity=42 time=0
note_on channel=0 note=77 velocity=0 time=120
note_on channel=0 note=65 velocity=33 time=0
note_on channel=0 note=69 velocity=39 time=0
note_on channel=0 note=60 velocity=0 time=17
note_on channel=0 note=69 velocity=0 time=103
note_on channel=0 note=65 velocity=0 time=0
note_on channel=0 note=77 velocity=64 time=0
note_on channel=0 note=60 velocity=42 time=0
note_on channel=0 note=77 velocity=0 time=120
note_on channel=0 note=65 velocity=34 time=0
note_on channel=0 note=69 velocity=41 time=0
note_on channel=0 note=60 velocity=0 time=17
note_on channel=0 note=69 velocity=0 time=103
note_on channel=0 note=65 velocity=0 time=0
note_on channel=0 note=76 velocity=68 time=0
note_on channel=0 note=60 velocity=42 time=0
note_on channel=0 note=76 velocity=0 time=0
note_on channel=0 note=65 velocity=34 time=0
note_on channel=0 note=69 velocity=40 time=0
note_on channel=0 note=60 velocity=0 time=17
note_on channel=0 note=69 velocity=0 time=0
note_on channel=0 note=65 velocity=0 time=0
note_on channel=0 note=74 velocity=62 time=0
note_on channel=0 note=60 velocity=51 time=0
control_change channel=0 control=64 value=0 time=15
control_change channel=0 control=64 value=127 time=77
note_on channel=0 note=74 velocity=0 time=28
note_on channel=0 note=65 velocity=38 time=0
note_on channel=0 note=68 velocity=45 time=0
note_on channel=0 note=60 velocity=0 time=17
note_on channel=0 note=68 velocity=0 time=103
note_on channel=0 note=65 velocity=0 time=0
note_on channel=0 note=72 velocity=68 time=0
note_on channel=0 note=60 velocity=43 time=0
control_change channel=0 control=64 value=0 time=12
control_change channel=0 control=64 value=127 time=97
note_on channel=0 note=72 velocity=0 time=11
note_on channel=0 note=65 velocity=38 time=0
note_on channel=0 note=68 velocity=45 time=0
note_on channel=0 note=60 velocity=0 time=17
note_on channel=0 note=68 velocity=0 time=103
note_on channel=0 note=65 velocity=0 time=0
note_on channel=0 note=71 velocity=68 time=0
note_on channel=0 note=60 velocity=43 time=0
control_change channel=0 control=64 value=0 time=11
control_change channel=0 control=64 value=127 time=58
note_on channel=0 note=71 velocity=0 time=51
note_on channel=0 note=65 velocity=38 time=0
note_on channel=0 note=68 velocity=45 time=0
note_on channel=0 note=60 velocity=0 time=17
note_on channel=0 note=68 velocity=0 time=103
note_on channel=0 note=65 velocity=0 time=0
note_on channel=0 note=74 velocity=70 time=0
note_on channel=0 note=60 velocity=43 time=0
control_change channel=0 control=64 value=0 time=13
control_change channel=0 control=64 value=127 time=96
note_on channel=0 note=74 velocity=0 time=0
note_on channel=0 note=65 velocity=38 time=0
note_on channel=0 note=68 velocity=45 time=0
note_on channel=0 note=60 velocity=0 time=24
note_on channel=0 note=68 velocity=0 time=0
note_on channel=0 note=65 velocity=0 time=0
note_on channel=0 note=72 velocity=68 time=0
note_on channel=0 note=36 velocity=51 time=0
note_on channel=0 note=48 velocity=51 time=0
control_change channel=0 control=64 value=0 time=0
control_change channel=0 control=64 value=127 time=97
note_on channel=0 note=72 velocity=0 time=23
note_on channel=0 note=64 velocity=34 time=0
note_on channel=0 note=67 velocity=40 time=0
note_on channel=0 note=67 velocity=0 time=120
note_on channel=0 note=36 velocity=0 time=0
note_on channel=0 note=48 velocity=0 time=0
note_on channel=0 note=64 velocity=0 time=0
note_on channel=0 note=71 velocity=62 time=0
note_on channel=0 note=60 velocity=42 time=0
note_on channel=0 note=71 velocity=0 time=120
note_on channel=0 note=64 velocity=33 time=0
note_on channel=0 note=67 velocity=39 time=0
note_on channel=0 note=60 velocity=0 time=17
note_on channel=0 note=67 velocity=0 time=0
note_on channel=0 note=64 velocity=0 time=0
note_on channel=0 note=72 velocity=64 time=0
note_on channel=0 note=60 velocity=42 time=0
note_on channel=0 note=72 velocity=0 time=120
note_on channel=0 note=64 velocity=34 time=0
note_on channel=0 note=67 velocity=41 time=0
note_on channel=0 note=60 velocity=0 time=17
note_on channel=0 note=67 velocity=0 time=103
note_on channel=0 note=64 velocity=0 time=0
note_on channel=0 note=74 velocity=68 time=0
note_on channel=0 note=60 velocity=42 time=0
note_on channel=0 note=74 velocity=0 time=0
note_on channel=0 note=64 velocity=34 time=0
note_on channel=0 note=67 velocity=40 time=0
note_on channel=0 note=60 velocity=0 time=17
note_on channel=0 note=67 velocity=0 time=0
note_on channel=0 note=64 velocity=0 time=0
note_on channel=0 note=76 velocity=62 time=0
note_on channel=0 note=60 velocity=51 time=0
control_change channel=0 control=64 value=0 time=15
control_change channel=0 control=64 value=127 time=77
note_on channel=0 note=76 velocity=0 time=28
note_on channel=0 note=67 velocity=38 time=0
note_on channel=0 note=70 velocity=45 time=0
note_on channel=0 note=60 velocity=0 time=17
note_on channel=0 note=70 velocity=0 time=103
note_on channel=0 note=67 velocity=0 time=0
note_on channel=0 note=72 velocity=68 time=0
note_on channel=0 note=60 velocity=43 time=0
control_change channel=0 control=64 value=0 time=12
control_change channel=0 control=64 value=127 time=97
note_on channel=0 note=72 velocity=0 time=11
note_on channel=0 note=67 velocity=38 time=0
note_on channel=0 note=70 velocity=45 time=0
note_on channel=0 note=60 velocity=0 time=17
note_on channel=0 note=70 velocity=0 time=0
note_on channel=0 note=67 velocity=0 time=0
note_on channel=0 note=74 velocity=68 time=0
note_on channel=0 note=60 velocity=43 time=0
control_change channel=0 control=64 value=0 time=11
control_change channel=0 control=64 value=127 time=58
note_on channel=0 note=74 velocity=0 time=51
note_on channel=0 note=67 velocity=38 time=0
note_on channel=0 note=70 velocity=45 time=0
note_on channel=0 note=60 velocity=0 time=17
note_on channel=0 note=70 velocity=0 time=103
note_on channel=0 note=67 velocity=0 time=0
note_on channel=0 note=76 velocity=70 time=0
note_on channel=0 note=60 velocity=43 time=0
control_change channel=0 control=64 value=0 time=13
control_change channel=0 control=64 value=127 time=96
note_on channel=0 note=76 velocity=0 time=0
note_on channel=0 note=67 velocity=38 time=0
note_on channel=0 note=70 velocity=45 time=0
note_on channel=0 note=60 velocity=0 time=17
note_on channel=0 note=70 velocity=0 time=0
note_on channel=0 note=67 velocity=0 time=0
note_on channel=0 note=77 velocity=68 time=0
note_on channel=0 note=60 velocity=51 time=0
control_change channel=0 control=64 value=0 time=0
control_change channel=0 control=64 value=127 time=97
note_on channel=0 note=77 velocity=0 time=23
note_on channel=0 note=65 velocity=34 time=0
note_on channel=0 note=69 velocity=40 time=0
note_on channel=0 note=60 velocity=0 time=17
note_on channel=0 note=69 velocity=0 time=103
note_on channel=0 note=65 velocity=0 time=0
note_on channel=0 note=77 velocity=62 time=0
note_on channel=0 note=60 velocity=42 time=0
note_on channel=0 note=77 velocity=0 time=120
note_on channel=0 note=65 velocity=33 time=0
note_on channel=0 note=69 velocity=39 time=0
note_on channel=0 note=60 velocity=0 time=17
note_on channel=0 note=69 velocity=0 time=0
note_on channel=0 note=65 velocity=0 time=0
note_on channel=0 note=77 velocity=64 time=0
note_on channel=0 note=60 velocity=42 time=0
note_on channel=0 note=77 velocity=0 time=120
note_on channel=0 note=65 velocity=34 time=0
note_on channel=0 note=69 velocity=41 time=0
note_on channel=0 note=60 velocity=0 time=17
note_on channel=0 note=69 velocity=0 time=103
note_on channel=0 note=65 velocity=0 time=0
note_on channel=0 note=76 velocity=68 time=0
note_on channel=0 note=60 velocity=42 time=0
note_on channel=0 note=76 velocity=0 time=0
note_on channel=0 note=65 velocity=34 time=0
note_on channel=0 note=69 velocity=40 time=0
note_on channel=0 note=60 velocity=0 time=17
note_on channel=0 note=69 velocity=0 time=0
note_on channel=0 note=65 velocity=0 time=0
note_on channel=0 note=74 velocity=62 time=0
note_on channel=0 note=60 velocity=51 time=0
control_change channel=0 control=64 value=0 time=15
control_change channel=0 control=64 value=127 time=77
note_on channel=0 note=74 velocity=0 time=28
note_on channel=0 note=65 velocity=38 time=0
note_on channel=0 note=68 velocity=45 time=0
note_on channel=0 note=60 velocity=0 time=17
note_on channel=0 note=68 velocity=0 time=103
note_on channel=0 note=65 velocity=0 time=0
note_on channel=0 note=72 velocity=68 time=0
note_on channel=0 note=60 velocity=43 time=0
control_change channel=0 control=64 value=0 time=12
control_change channel=0 control=64 value=127 time=97
note_on channel=0 note=72 velocity=0 time=11
note_on channel=0 note=65 velocity=38 time=0
note_on channel=0 note=68 velocity=45 time=0
note_on channel=0 note=60 velocity=0 time=17
note_on channel=0 note=68 velocity=0 time=103
note_on channel=0 note=65 velocity=0 time=0
note_on channel=0 note=71 velocity=68 time=0
note_on channel=0 note=60 velocity=43 time=0
control_change channel=0 control=64 value=0 time=11
control_change channel=0 control=64 value=127 time=58
note_on channel=0 note=71 velocity=0 time=51
note_on channel=0 note=65 velocity=38 time=0
note_on channel=0 note=68 velocity=45 time=0
note_on channel=0 note=60 velocity=0 time=17
note_on channel=0 note=68 velocity=0 time=103
note_on channel=0 note=65 velocity=0 time=0
note_on channel=0 note=74 velocity=70 time=0
note_on channel=0 note=60 velocity=43 time=0
control_change channel=0 control=64 value=0 time=13
control_change channel=0 control=64 value=127 time=96
note_on channel=0 note=74 velocity=0 time=0
note_on channel=0 note=65 velocity=38 time=0
note_on channel=0 note=68 velocity=45 time=0
note_on channel=0 note=60 velocity=0 time=24
note_on channel=0 note=68 velocity=0 time=0
note_on channel=0 note=65 velocity=0 time=0
note_on channel=0 note=72 velocity=78 time=0
note_on channel=0 note=48 velocity=51 time=0
control_change channel=0 control=64 value=0 time=15
control_change channel=0 control=64 value=127 time=77
note_on channel=0 note=72 velocity=0 time=28
note_on channel=0 note=64 velocity=38 time=0
note_on channel=0 note=67 velocity=45 time=0
note_on channel=0 note=48 velocity=0 time=108
note_on channel=0 note=67 velocity=0 time=12
note_on channel=0 note=64 velocity=0 time=0
note_on channel=0 note=72 velocity=68 time=0
note_on channel=0 note=60 velocity=43 time=0
note_on channel=0 note=72 velocity=0 time=120
note_on channel=0 note=64 velocity=38 time=0
note_on channel=0 note=67 velocity=45 time=0
note_on channel=0 note=60 velocity=0 time=17
note_on channel=0 note=67 velocity=0 time=0
note_on channel=0 note=64 velocity=0 time=0
note_on channel=0 note=71 velocity=68 time=0
note_on channel=0 note=60 velocity=43 time=0
control_change channel=0 control=64 value=0 time=11
control_change channel=0 control=64 value=127 time=58
note_on channel=0 note=71 velocity=0 time=51
note_on channel=0 note=65 velocity=38 time=0
note_on channel=0 note=68 velocity=45 time=0
note_on channel=0 note=60 velocity=0 time=17
note_on channel=0 note=68 velocity=0 time=103
note_on channel=0 note=65 velocity=0 time=0
note_on channel=0 note=74 velocity=70 time=0
note_on channel=0 note=60 velocity=43 time=0
note_on channel=0 note=74 velocity=0 time=0
note_on channel=0 note=65 velocity=38 time=0
note_on channel=0 note=68 velocity=45 time=0
note_on channel=0 note=60 velocity=0 time=24
note_on channel=0 note=68 velocity=0 time=0
note_on channel=0 note=65 velocity=0 time=0
note_on channel=0 note=72 velocity=76 time=0
note_on channel=0 note=48 velocity=51 time=0
control_change channel=0 control=64 value=0 time=15
control_change channel=0 control=64 value=127 time=77
note_on channel=0 note=72 velocity=0 time=28
note_on channel=0 note=64 velocity=38 time=0
note_on channel=0 note=67 velocity=45 time=0
note_on channel=0 note=48 velocity=0 time=108
note_on channel=0 note=67 velocity=0 time=12
note_on channel=0 note=64 velocity=0 time=0
note_on channel=0 note=72 velocity=68 time=0
note_on channel=0 note=60 velocity=43 time=0
note_on channel=0 note=72 velocity=0 time=120
note_on channel=0 note=64 velocity=38 time=0
note_on channel=0 note=67 velocity=45 time=0
note_on channel=0 note=60 velocity=0 time=17
note_on channel=0 note=67 velocity=0 time=0
note_on channel=0 note=64 velocity=0 time=0
note_on channel=0 note=71 velocity=68 time=0
note_on channel=0 note=60 velocity=43 time=0
control_change channel=0 control=64 value=0 time=11
control_change channel=0 control=64 value=127 time=58
note_on channel=0 note=71 velocity=0 time=51
note_on channel=0 note=65 velocity=38 time=0
note_on channel=0 note=68 velocity=45 time=0
note_on channel=0 note=60 velocity=0 time=17
note_on channel=0 note=68 velocity=0 time=103
note_on channel=0 note=65 velocity=0 time=0
note_on channel=0 note=74 velocity=70 time=0
note_on channel=0 note=60 velocity=43 time=0
note_on channel=0 note=74 velocity=0 time=0
note_on channel=0 note=65 velocity=38 time=0
note_on channel=0 note=68 velocity=45 time=0
note_on channel=0 note=60 velocity=0 time=24
note_on channel=0 note=68 velocity=0 time=0
note_on channel=0 note=65 velocity=0 time=0
note_on channel=0 note=64 velocity=59 time=0
note_on channel=0 note=67 velocity=59 time=0
note_on channel=0 note=72 velocity=70 time=0
note_on channel=0 note=48 velocity=51 time=0
control_change channel=0 control=64 value=0 time=0
note_on channel=0 note=72 velocity=0 time=120
note_on channel=0 note=64 velocity=0 time=0
note_on channel=0 note=67 velocity=0 time=0
note_on channel=0 note=60 velocity=35 time=0
note_on channel=0 note=62 velocity=40 time=0
note_on channel=0 note=60 velocity=0 time=12
note_on channel=0 note=64 velocity=35 time=91
note_on channel=0 note=62 velocity=0 time=12
note_on channel=0 note=48 velocity=0 time=96
note_on channel=0 note=65 velocity=40 time=0
note_on channel=0 note=64 velocity=0 time=12
note_on channel=0 note=67 velocity=35 time=4
note_on channel=0 note=65 velocity=0 time=12
note_on channel=0 note=69 velocity=40 time=9
note_on channel=0 note=67 velocity=0 time=12
note_on channel=0 note=71 velocity=33 time=33
note_on channel=0 note=69 velocity=0 time=12
note_on channel=0 note=72 velocity=40 time=0
note_on channel=0 note=71 velocity=0 time=12
note_on channel=0 note=71 velocity=33 time=108
note_on channel=0 note=72 velocity=0 time=12
note_on channel=0 note=72 velocity=40 time=86
note_on channel=0 note=71 velocity=0 time=12
note_on channel=0 note=71 velocity=33 time=108
note_on channel=0 note=72 velocity=0 time=12
note_on channel=0 note=72 velocity=40 time=108
note_on channel=0 note=71 velocity=0 time=12
note_on channel=0 note=71 velocity=34 time=108
note_on channel=0 note=72 velocity=0 time=12
note_on channel=0 note=72 velocity=40 time=108
note_on channel=0 note=71 velocity=0 time=12
note_on channel=0 note=71 velocity=33 time=0
note_on channel=0 note=72 velocity=0 time=12
note_on channel=0 note=71 velocity=0 time=0
note_on channel=0 note=69 velocity=38 time=0
note_on channel=0 note=72 velocity=43 time=0
note_on channel=0 note=53 velocity=31 time=24
note_on channel=0 note=55 velocity=36 time=67
note_on channel=0 note=53 velocity=0 time=12
note_on channel=0 note=57 velocity=31 time=14
note_on channel=0 note=55 velocity=0 time=12
note_on channel=0 note=58 velocity=36 time=38
note_on channel=0 note=57 velocity=0 time=12
note_on channel=0 note=60 velocity=31 time=81
note_on channel=0 note=58 velocity=0 time=12
note_on channel=0 note=62 velocity=36 time=28
note_on channel=0 note=60 velocity=0 time=12
note_on channel=0 note=64 velocity=29 time=0
note_on channel=0 note=62 velocity=0 time=12
note_on channel=0 note=69 velocity=0 time=4
note_on channel=0 note=72 velocity=0 time=0
note_on channel=0 note=69 velocity=49 time=0
note_on channel=0 note=65 velocity=36 time=0
note_on channel=0 note=64 velocity=0 time=12
note_on channel=0 note=64 velocity=29 time=40
note_on channel=0 note=65 velocity=0 time=12
note_on channel=0 note=65 velocity=36 time=76
note_on channel=0 note=64 velocity=0 time=12
note_on channel=0 note=64 velocity=29 time=4
note_on channel=0 note=65 velocity=0 time=4
note_on channel=0 note=69 velocity=0 time=64
note_on channel=0 note=77 velocity=47 time=0
note_on channel=0 note=65 velocity=36 time=0
note_on channel=0 note=64 velocity=0 time=4
note_on channel=0 note=64 velocity=27 time=40
note_on channel=0 note=65 velocity=0 time=12
note_on channel=0 note=65 velocity=34 time=4
note_on channel=0 note=64 velocity=0 time=4
note_on channel=0 note=64 velocity=26 time=28
note_on channel=0 note=65 velocity=0 time=12
note_on channel=0 note=64 velocity=0 time=16
note_on channel=0 note=77 velocity=0 time=0
note_on channel=0 note=69 velocity=41 time=0
note_on channel=0 note=72 velocity=49 time=0
note_on channel=0 note=65 velocity=30 time=0
note_on channel=0 note=64 velocity=25 time=120
note_on channel=0 note=65 velocity=0 time=4
note_on channel=0 note=65 velocity=30 time=16
note_on channel=0 note=64 velocity=0 time=12
note_on channel=0 note=64 velocity=25 time=4
note_on channel=0 note=65 velocity=0 time=12
note_on channel=0 note=69 velocity=0 time=28
note_on channel=0 note=72 velocity=0 time=0
note_on channel=0 note=81 velocity=43 time=0
note_on channel=0 note=77 velocity=36 time=0
note_on channel=0 note=65 velocity=30 time=0
note_on channel=0 note=64 velocity=0 time=12
note_on channel=0 note=64 velocity=25 time=16
note_on channel=0 note=65 velocity=0 time=4
note_on channel=0 note=65 velocity=30 time=16
note_on channel=0 note=64 velocity=0 time=12
note_on channel=0 note=64 velocity=25 time=0
note_on channel=0 note=65 velocity=0 time=12
note_on channel=0 note=81 velocity=0 time=0
note_on channel=0 note=77 velocity=0 time=0
note_on channel=0 note=69 velocity=42 time=0
note_on channel=0 note=72 velocity=50 time=0
note_on channel=0 note=65 velocity=30 time=0
note_on channel=0 note=64 velocity=0 time=4
note_on channel=0 note=64 velocity=25 time=4
note_on channel=0 note=65 velocity=0 time=4
note_on channel=0 note=65 velocity=30 time=4
note_on channel=0 note=64 velocity=0 time=12
note_on channel=0 note=64 velocity=25 time=4
note_on channel=0 note=65 velocity=0 time=4
note_on channel=0 note=69 velocity=0 time=16
note_on channel=0 note=72 velocity=0 time=0
note_on channel=0 note=84 velocity=43 time=0
note_on channel=0 note=81 velocity=36 time=0
note_on channel=0 note=65 velocity=30 time=0
note_on channel=0 note=64 velocity=0 time=4
note_on channel=0 note=64 velocity=25 time=4
note_on channel=0 note=65 velocity=0 time=4
note_on channel=0 note=65 velocity=30 time=4
note_on channel=0 note=64 velocity=0 time=4
note_on channel=0 note=64 velocity=25 time=0
note_on channel=0 note=65 velocity=0 time=12
note_on channel=0 note=84 velocity=0 time=0
note_on channel=0 note=81 velocity=0 time=0
note_on channel=0 note=64 velocity=0 time=0
note_on channel=0 note=69 velocity=38 time=0
note_on channel=0 note=72 velocity=43 time=0
note_on channel=0 note=65 velocity=30 time=0
note_on channel=0 note=65 velocity=0 time=24
note_on channel=0 note=53 velocity=31 time=0
note_on channel=0 note=55 velocity=36 time=67
note_on channel=0 note=53 velocity=0 time=12
note_on channel=0 note=57 velocity=31 time=14
note_on channel=0 note=55 velocity=0 time=12
note_on channel=0 note=58 velocity=36 time=38
note_on channel=0 note=57 velocity=0 time=12
note_on channel=0 note=60 velocity=31 time=81
note_on channel=0 note=58 velocity=0 time=12
note_on channel=0 note=62 velocity=36 time=28
note_on channel=0 note=60 velocity=0 time=12
note_on channel=0 note=64 velocity=29 time=0
note_on channel=0 note=62 velocity=0 time=12
note_on channel=0 note=69 velocity=0 time=4
note_on channel=0 note=72 velocity=0 time=0
note_on channel=0 note=69 velocity=49 time=0
note_on channel=0 note=65 velocity=36 time=0
note_on channel=0 note=64 velocity=0 time=4
note_on channel=0 note=64 velocity=29 time=52
note_on channel=0 note=65 velocity=0 time=4
note_on channel=0 note=65 velocity=36 time=4
note_on channel=0 note=64 velocity=0 time=4
note_on channel=0 note=64 velocity=29 time=4
note_on channel=0 note=65 velocity=0 time=12
note_on channel=0 note=69 velocity=0 time=16
note_on channel=0 note=77 velocity=46 time=0
note_on channel=0 note=65 velocity=36 time=0
note_on channel=0 note=64 velocity=0 time=12
note_on channel=0 note=64 velocity=27 time=100
note_on channel=0 note=65 velocity=0 time=12
note_on channel=0 note=65 velocity=34 time=4
note_on channel=0 note=64 velocity=0 time=12
note_on channel=0 note=64 velocity=26 time=40
note_on channel=0 note=65 velocity=0 time=12
note_on channel=0 note=64 velocity=0 time=28
note_on channel=0 note=77 velocity=0 time=0
note_on channel=0 note=69 velocity=41 time=0
note_on channel=0 note=72 velocity=49 time=0
note_on channel=0 note=65 velocity=30 time=0
note_on channel=0 note=64 velocity=25 time=16
note_on channel=0 note=65 velocity=0 time=12
note_on channel=0 note=65 velocity=30 time=16
note_on channel=0 note=64 velocity=0 time=4
note_on channel=0 note=64 velocity=25 time=64
note_on channel=0 note=65 velocity=0 time=12
note_on channel=0 note=69 velocity=0 time=16
note_on channel=0 note=72 velocity=0 time=0
note_on channel=0 note=81 velocity=43 time=0
note_on channel=0 note=77 velocity=36 time=0
note_on channel=0 note=65 velocity=30 time=0
note_on channel=0 note=64 velocity=0 time=12
note_on channel=0 note=64 velocity=25 time=16
note_on channel=0 note=65 velocity=0 time=4
note_on channel=0 note=65 velocity=30 time=16
note_on channel=0 note=64 velocity=0 time=12
note_on channel=0 note=64 velocity=25 time=0
note_on channel=0 note=65 velocity=0 time=12
note_on channel=0 note=81 velocity=0 time=0
note_on channel=0 note=77 velocity=0 time=0
note_on channel=0 note=69 velocity=42 time=0
note_on channel=0 note=72 velocity=50 time=0
note_on channel=0 note=65 velocity=30 time=0
note_on channel=0 note=64 velocity=0 time=4
note_on channel=0 note=64 velocity=25 time=4
note_on channel=0 note=65 velocity=0 time=4
note_on channel=0 note=65 velocity=30 time=28
note_on channel=0 note=64 velocity=0 time=4
note_on channel=0 note=64 velocity=25 time=4
note_on channel=0 note=65 velocity=0 time=12
note_on channel=0 note=69 velocity=0 time=52
note_on channel=0 note=72 velocity=0 time=0
note_on channel=0 note=84 velocity=43 time=0
note_on channel=0 note=81 velocity=36 time=0
note_on channel=0 note=65 velocity=30 time=0
note_on channel=0 note=64 velocity=0 time=12
note_on channel=0 note=63 velocity=25 time=4
note_on channel=0 note=65 velocity=0 time=4
note_on channel=0 note=65 velocity=30 time=28
note_on channel=0 note=63 velocity=0 time=12
note_on channel=0 note=63 velocity=25 time=0
note_on channel=0 note=65 velocity=0 time=12
note_on channel=0 note=84 velocity=0 time=0
note_on channel=0 note=81 velocity=0 time=0
note_on channel=0 note=63 velocity=0 time=0
note_on channel=0 note=69 velocity=41 time=0
note_on channel=0 note=72 velocity=41 time=0
note_on channel=0 note=74 velocity=49 time=0
note_on channel=0 note=78 velocity=49 time=0
note_on channel=0 note=61 velocity=39 time=0
note_on channel=0 note=62 velocity=34 time=120
note_on channel=0 note=61 velocity=0 time=60
note_on channel=0 note=62 velocity=0 time=60
note_on channel=0 note=61 velocity=39 time=0
note_on channel=0 note=62 velocity=35 time=0
note_on channel=0 note=61 velocity=0 time=60
note_on channel=0 note=62 velocity=0 time=60
note_on channel=0 note=59 velocity=41 time=0
note_on channel=0 note=60 velocity=35 time=120
note_on channel=0 note=59 velocity=0 time=60
note_on channel=0 note=60 velocity=0 time=60
note_on channel=0 note=59 velocity=42 time=0
note_on channel=0 note=60 velocity=36 time=120
note_on channel=0 note=59 velocity=0 time=60
note_on channel=0 note=72 velocity=0 time=0
note_on channel=0 note=78 velocity=0 time=0
note_on channel=0 note=69 velocity=0 time=0
note_on channel=0 note=60 velocity=0 time=0
note_on channel=0 note=74 velocity=0 time=0
note_on channel=0 note=56 velocity=44 time=0
note_on channel=0 note=57 velocity=37 time=120
note_on channel=0 note=56 velocity=0 time=60
note_on channel=0 note=57 velocity=0 time=60
note_on channel=0 note=56 velocity=45 time=0
note_on channel=0 note=57 velocity=37 time=120
note_on channel=0 note=56 velocity=0 time=60
note_on channel=0 note=57 velocity=0 time=60
note_on channel=0 note=53 velocity=44 time=0
note_on channel=0 note=54 velocity=38 time=120
note_on channel=0 note=53 velocity=0 time=60
note_on channel=0 note=54 velocity=0 time=60
note_on channel=0 note=53 velocity=44 time=0
note_on channel=0 note=54 velocity=39 time=120
note_on channel=0 note=53 velocity=0 time=60
note_on channel=0 note=54 velocity=0 time=0
note_on channel=0 note=49 velocity=45 time=0
note_on channel=0 note=50 velocity=39 time=120
note_on channel=0 note=49 velocity=0 time=60
note_on channel=0 note=50 velocity=0 time=60
note_on channel=0 note=49 velocity=46 time=0
note_on channel=0 note=50 velocity=40 time=120
note_on channel=0 note=49 velocity=0 time=60
note_on channel=0 note=50 velocity=0 time=0
note_on channel=0 note=78 velocity=70 time=0
note_on channel=0 note=47 velocity=48 time=0
note_on channel=0 note=48 velocity=41 time=120
note_on channel=0 note=47 velocity=0 time=60
note_on channel=0 note=48 velocity=0 time=60
note_on channel=0 note=47 velocity=48 time=0
note_on channel=0 note=48 velocity=41 time=120
note_on channel=0 note=47 velocity=0 time=60
note_on channel=0 note=48 velocity=0 time=0
note_on channel=0 note=78 velocity=0 time=0
note_on channel=0 note=81 velocity=68 time=0
note_on channel=0 note=44 velocity=54 time=0
note_on channel=0 note=45 velocity=42 time=0
note_on channel=0 note=44 velocity=0 time=60
note_on channel=0 note=45 velocity=0 time=60
note_on channel=0 note=44 velocity=52 time=0
note_on channel=0 note=45 velocity=43 time=120
note_on channel=0 note=44 velocity=0 time=60
note_on channel=0 note=45 velocity=0 time=0
note_on channel=0 note=81 velocity=0 time=0
note_on channel=0 note=84 velocity=66 time=0
note_on channel=0 note=41 velocity=55 time=0
note_on channel=0 note=42 velocity=44 time=120
note_on channel=0 note=41 velocity=0 time=60
note_on channel=0 note=42 velocity=0 time=60
note_on channel=0 note=41 velocity=51 time=0
note_on channel=0 note=42 velocity=44 time=120
note_on channel=0 note=41 velocity=0 time=60
note_on channel=0 note=42 velocity=0 time=0
note_on channel=0 note=78 velocity=72 time=0
note_on channel=0 note=37 velocity=57 time=0
note_on channel=0 note=38 velocity=44 time=120
note_on channel=0 note=37 velocity=0 time=60
note_on channel=0 note=38 velocity=0 time=60
note_on channel=0 note=37 velocity=51 time=0
note_on channel=0 note=38 velocity=44 time=120
note_on channel=0 note=37 velocity=0 time=60
note_on channel=0 note=38 velocity=0 time=0
note_on channel=0 note=84 velocity=0 time=0
note_on channel=0 note=82 velocity=73 time=0
note_on channel=0 note=37 velocity=56 time=0
note_on channel=0 note=38 velocity=50 time=120
note_on channel=0 note=37 velocity=0 time=60
note_on channel=0 note=38 velocity=0 time=60
note_on channel=0 note=37 velocity=57 time=0
note_on channel=0 note=38 velocity=44 time=120
note_on channel=0 note=37 velocity=0 time=60
note_on channel=0 note=38 velocity=0 time=50
note_on channel=0 note=78 velocity=0 time=0
note_on channel=0 note=79 velocity=75 time=0
note_on channel=0 note=38 velocity=61 time=0
note_on channel=0 note=39 velocity=52 time=120
note_on channel=0 note=38 velocity=0 time=60
note_on channel=0 note=39 velocity=0 time=60
note_on channel=0 note=38 velocity=58 time=0
note_on channel=0 note=39 velocity=52 time=120
note_on channel=0 note=38 velocity=0 time=60
note_on channel=0 note=39 velocity=0 time=0
note_on channel=0 note=73 velocity=66 time=0
note_on channel=0 note=39 velocity=58 time=0
note_on channel=0 note=40 velocity=44 time=120
note_on channel=0 note=39 velocity=0 time=60
note_on channel=0 note=40 velocity=0 time=60
note_on channel=0 note=39 velocity=54 time=0
note_on channel=0 note=40 velocity=44 time=120
note_on channel=0 note=39 velocity=0 time=60
note_on channel=0 note=73 velocity=0 time=0
note_on channel=0 note=40 velocity=0 time=0
note_on channel=0 note=72 velocity=74 time=0
note_on channel=0 note=40 velocity=56 time=0
note_on channel=0 note=41 velocity=48 time=60
note_on channel=0 note=40 velocity=0 time=60
note_on channel=0 note=41 velocity=0 time=60
note_on channel=0 note=40 velocity=51 time=0
note_on channel=0 note=41 velocity=44 time=120
note_on channel=0 note=40 velocity=0 time=60
note_on channel=0 note=82 velocity=0 time=0
note_on channel=0 note=79 velocity=0 time=0
note_on channel=0 note=41 velocity=0 time=0
note_on channel=0 note=81 velocity=67 time=0
note_on channel=0 note=77 velocity=57 time=0
note_on channel=0 note=40 velocity=51 time=0
note_on channel=0 note=41 velocity=44 time=120
note_on channel=0 note=40 velocity=0 time=60
note_on channel=0 note=41 velocity=0 time=60
note_on channel=0 note=40 velocity=51 time=0
note_on channel=0 note=41 velocity=44 time=120
note_on channel=0 note=40 velocity=0 time=60
note_on channel=0 note=41 velocity=0 time=50
note_on channel=0 note=77 velocity=0 time=0
note_on channel=0 note=81 velocity=0 time=0
note_on channel=0 note=72 velocity=0 time=0
note_on channel=0 note=70 velocity=61 time=0
note_on channel=0 note=74 velocity=61 time=0
note_on channel=0 note=79 velocity=72 time=0
note_on channel=0 note=33 velocity=51 time=0
note_on channel=0 note=34 velocity=44 time=120
note_on channel=0 note=33 velocity=0 time=60
note_on channel=0 note=34 velocity=0 time=60
note_on channel=0 note=33 velocity=51 time=0
note_on channel=0 note=34 velocity=44 time=120
note_on channel=0 note=33 velocity=0 time=60
note_on channel=0 note=34 velocity=0 time=50
note_on channel=0 note=79 velocity=0 time=0
note_on channel=0 note=74 velocity=0 time=0
note_on channel=0 note=70 velocity=0 time=0
note_on channel=0 note=67 velocity=53 time=0
note_on channel=0 note=70 velocity=53 time=0
note_on channel=0 note=76 velocity=64 time=0
note_on channel=0 note=35 velocity=51 time=0
note_on channel=0 note=36 velocity=44 time=120
note_on channel=0 note=35 velocity=0 time=60
note_on channel=0 note=36 velocity=0 time=60
note_on channel=0 note=35 velocity=51 time=0
note_on channel=0 note=36 velocity=44 time=0
note_on channel=0 note=35 velocity=0 time=60
note_on channel=0 note=36 velocity=0 time=50
note_on channel=0 note=76 velocity=0 time=0
note_on channel=0 note=70 velocity=0 time=0
note_on channel=0 note=67 velocity=0 time=0
note_on channel=0 note=65 velocity=64 time=0
note_on channel=0 note=69 velocity=64 time=0
note_on channel=0 note=77 velocity=77 time=0
note_on channel=0 note=29 velocity=48 time=0
note_on channel=0 note=29 velocity=0 time=240
note_on channel=0 note=65 velocity=0 time=0
note_on channel=0 note=69 velocity=0 time=0
note_on channel=0 note=77 velocity=0 time=0
note_on channel=0 note=65 velocity=73 time=0
note_on channel=0 note=69 velocity=88 time=0
note_on channel=0 note=53 velocity=54 time=0
note_on channel=0 note=57 velocity=64 time=0
control_change channel=0 control=64 value=127 time=311
note_on channel=0 note=53 velocity=0 time=470
note_on channel=0 note=65 velocity=0 time=0
note_on channel=0 note=69 velocity=0 time=0
note_on channel=0 note=57 velocity=0 time=0
note_on channel=0 note=62 velocity=57 time=0
note_on channel=0 note=65 velocity=68 time=0
note_on channel=0 note=50 velocity=41 time=0
note_on channel=0 note=53 velocity=49 time=0
control_change channel=0 control=64 value=0 time=6
control_change channel=0 control=64 value=127 time=206
note_on channel=0 note=50 velocity=0 time=258
note_on channel=0 note=62 velocity=0 time=0
note_on channel=0 note=65 velocity=0 time=0
note_on channel=0 note=53 velocity=0 time=0
note_on channel=0 note=58 velocity=59 time=0
note_on channel=0 note=62 velocity=70 time=0
note_on channel=0 note=46 velocity=41 time=0
note_on channel=0 note=50 velocity=49 time=0
control_change channel=0 control=64 value=0 time=141
note_on channel=0 note=50 velocity=0 time=99
note_on channel=0 note=58 velocity=0 time=0
note_on channel=0 note=62 velocity=0 time=0
note_on channel=0 note=46 velocity=0 time=0
note_on channel=0 note=67 velocity=73 time=0
note_on channel=0 note=70 velocity=88 time=0
note_on channel=0 note=55 velocity=54 time=0
note_on channel=0 note=58 velocity=64 time=0
control_change channel=0 control=64 value=127 time=156
note_on channel=0 note=58 velocity=0 time=564
note_on channel=0 note=67 velocity=0 time=0
note_on channel=0 note=70 velocity=0 time=0
note_on channel=0 note=55 velocity=0 time=0
note_on channel=0 note=65 velocity=57 time=0
note_on channel=0 note=69 velocity=68 time=0
note_on channel=0 note=53 velocity=41 time=0
note_on channel=0 note=57 velocity=49 time=0
note_on channel=0 note=57 velocity=0 time=0
note_on channel=0 note=65 velocity=0 time=0
note_on channel=0 note=69 velocity=0 time=0
note_on channel=0 note=53 velocity=0 time=0
note_on channel=0 note=67 velocity=77 time=0
note_on channel=0 note=64 velocity=64 time=0
note_on channel=0 note=52 velocity=49 time=0
note_on channel=0 note=55 velocity=58 time=0
control_change channel=0 control=64 value=0 time=6
control_change channel=0 control=64 value=127 time=178
note_on channel=0 note=52 velocity=0 time=286
note_on channel=0 note=64 velocity=0 time=0
note_on channel=0 note=67 velocity=0 time=10
note_on channel=0 note=55 velocity=0 time=0
note_on channel=0 note=60 velocity=57 time=0
note_on channel=0 note=64 velocity=68 time=0
note_on channel=0 note=48 velocity=44 time=0
note_on channel=0 note=52 velocity=52 time=0
control_change channel=0 control=64 value=0 time=156
note_on channel=0 note=52 velocity=0 time=84
note_on channel=0 note=60 velocity=0 time=0
note_on channel=0 note=64 velocity=0 time=0
note_on channel=0 note=48 velocity=0 time=0
note_on channel=0 note=69 velocity=73 time=0
note_on channel=0 note=72 velocity=88 time=0
note_on channel=0 note=57 velocity=54 time=0
note_on channel=0 note=60 velocity=64 time=0
control_change channel=0 control=64 value=127 time=311
note_on channel=0 note=57 velocity=0 time=470
note_on channel=0 note=69 velocity=0 time=0
note_on channel=0 note=72 velocity=0 time=0
note_on channel=0 note=60 velocity=0 time=0
note_on channel=0 note=65 velocity=57 time=0
note_on channel=0 note=69 velocity=68 time=0
note_on channel=0 note=53 velocity=41 time=0
note_on channel=0 note=57 velocity=49 time=0
control_change channel=0 control=64 value=0 time=6
control_change channel=0 control=64 value=127 time=206
note_on channel=0 note=53 velocity=0 time=258
note_on channel=0 note=65 velocity=0 time=0
note_on channel=0 note=69 velocity=0 time=0
note_on channel=0 note=57 velocity=0 time=0
note_on channel=0 note=62 velocity=59 time=0
note_on channel=0 note=65 velocity=70 time=0
note_on channel=0 note=50 velocity=41 time=0
note_on channel=0 note=53 velocity=49 time=0
control_change channel=0 control=64 value=0 time=141
note_on channel=0 note=53 velocity=0 time=99
note_on channel=0 note=62 velocity=0 time=0
note_on channel=0 note=65 velocity=0 time=0
note_on channel=0 note=50 velocity=0 time=0
note_on channel=0 note=70 velocity=73 time=0
note_on channel=0 note=74 velocity=88 time=0
note_on channel=0 note=58 velocity=54 time=0
note_on channel=0 note=62 velocity=64 time=0
control_change channel=0 control=64 value=127 time=156
note_on channel=0 note=62 velocity=0 time=564
note_on channel=0 note=70 velocity=0 time=0
note_on channel=0 note=74 velocity=0 time=0
note_on channel=0 note=58 velocity=0 time=0
note_on channel=0 note=69 velocity=57 time=0
note_on channel=0 note=72 velocity=68 time=0
note_on channel=0 note=57 velocity=41 time=0
note_on channel=0 note=60 velocity=49 time=0
note_on channel=0 note=60 velocity=0 time=0
note_on channel=0 note=69 velocity=0 time=0
note_on channel=0 note=72 velocity=0 time=0
note_on channel=0 note=57 velocity=0 time=0
note_on channel=0 note=70 velocity=77 time=0
note_on channel=0 note=67 velocity=64 time=0
note_on channel=0 note=55 velocity=49 time=0
note_on channel=0 note=58 velocity=58 time=0
control_change channel=0 control=64 value=0 time=6
control_change channel=0 control=64 value=127 time=178
note_on channel=0 note=55 velocity=0 time=286
note_on channel=0 note=67 velocity=0 time=0
note_on channel=0 note=70 velocity=0 time=10
note_on channel=0 note=58 velocity=0 time=0
note_on channel=0 note=64 velocity=57 time=0
note_on channel=0 note=67 velocity=68 time=0
note_on channel=0 note=52 velocity=44 time=0
note_on channel=0 note=55 velocity=52 time=0
control_change channel=0 control=64 value=0 time=156
note_on channel=0 note=55 velocity=0 time=84
note_on channel=0 note=64 velocity=0 time=0
note_on channel=0 note=67 velocity=0 time=0
note_on channel=0 note=52 velocity=0 time=0
note_on channel=0 note=70 velocity=73 time=0
note_on channel=0 note=79 velocity=88 time=0
note_on channel=0 note=58 velocity=54 time=0
note_on channel=0 note=67 velocity=64 time=0
control_change channel=0 control=64 value=127 time=156
note_on channel=0 note=67 velocity=0 time=0
note_on channel=0 note=70 velocity=0 time=0
note_on channel=0 note=79 velocity=0 time=0
note_on channel=0 note=58 velocity=0 time=0
note_on channel=0 note=69 velocity=57 time=0
note_on channel=0 note=77 velocity=68 time=0
note_on channel=0 note=57 velocity=41 time=0
note_on channel=0 note=65 velocity=49 time=0
note_on channel=0 note=65 velocity=0 time=0
note_on channel=0 note=69 velocity=0 time=0
note_on channel=0 note=77 velocity=0 time=0
note_on channel=0 note=57 velocity=0 time=0
note_on channel=0 note=67 velocity=73 time=0
note_on channel=0 note=76 velocity=88 time=0
note_on channel=0 note=55 velocity=54 time=0
note_on channel=0 note=64 velocity=64 time=0
control_change channel=0 control=64 value=0 time=0
control_change channel=0 control=64 value=127 time=156
note_on channel=0 note=64 velocity=0 time=0
note_on channel=0 note=67 velocity=0 time=0
note_on channel=0 note=76 velocity=0 time=0
note_on channel=0 note=55 velocity=0 time=0
note_on channel=0 note=65 velocity=57 time=0
note_on channel=0 note=74 velocity=68 time=0
note_on channel=0 note=53 velocity=41 time=0
note_on channel=0 note=62 velocity=41 time=0
note_on channel=0 note=62 velocity=0 time=0
note_on channel=0 note=65 velocity=0 time=0
note_on channel=0 note=74 velocity=0 time=0
note_on channel=0 note=53 velocity=0 time=0
note_on channel=0 note=64 velocity=51 time=0
note_on channel=0 note=72 velocity=60 time=0
note_on channel=0 note=52 velocity=41 time=0
note_on channel=0 note=60 velocity=49 time=0
control_change channel=0 control=64 value=0 time=8
control_change channel=0 control=64 value=127 time=204
note_on channel=0 note=60 velocity=0 time=268
note_on channel=0 note=64 velocity=0 time=0
note_on channel=0 note=72 velocity=0 time=0
note_on channel=0 note=52 velocity=0 time=0
note_on channel=0 note=58 velocity=44 time=0
note_on channel=0 note=70 velocity=52 time=0
note_on channel=0 note=50 velocity=34 time=0
note_on channel=0 note=53 velocity=41 time=0
control_change channel=0 control=64 value=0 time=14
control_change channel=0 control=64 value=127 time=99
note_on channel=0 note=53 velocity=0 time=0
note_on channel=0 note=58 velocity=0 time=0
note_on channel=0 note=70 velocity=0 time=0
note_on channel=0 note=50 velocity=0 time=0
note_on channel=0 note=57 velocity=49 time=0
note_on channel=0 note=69 velocity=58 time=0
note_on channel=0 note=49 velocity=36 time=0
note_on channel=0 note=52 velocity=43 time=0
control_change channel=0 control=64 value=0 time=0
control_change channel=0 control=64 value=127 time=229
note_on channel=0 note=52 velocity=0 time=251
note_on channel=0 note=57 velocity=0 time=0
note_on channel=0 note=69 velocity=0 time=0
note_on channel=0 note=49 velocity=0 time=0
note_on channel=0 note=61 velocity=39 time=0
note_on channel=0 note=67 velocity=46 time=0
note_on channel=0 note=45 velocity=27 time=0
note_on channel=0 note=52 velocity=32 time=0
note_on channel=0 note=52 velocity=0 time=480
note_on channel=0 note=61 velocity=0 time=0
note_on channel=0 note=67 velocity=0 time=0
note_on channel=0 note=45 velocity=0 time=0
note_on channel=0 note=62 velocity=45 time=0
note_on channel=0 note=65 velocity=53 time=0
note_on channel=0 note=46 velocity=33 time=0
note_on channel=0 note=50 velocity=39 time=0
control_change channel=0 control=64 value=0 time=15
control_change channel=0 control=64 value=127 time=145
note_on channel=0 note=50 velocity=0 time=0
note_on channel=0 note=62 velocity=0 time=0
note_on channel=0 note=65 velocity=0 time=0
note_on channel=0 note=46 velocity=0 time=0
note_on channel=0 note=53 velocity=40 time=0
note_on channel=0 note=55 velocity=40 time=0
note_on channel=0 note=62 velocity=48 time=0
note_on channel=0 note=47 velocity=31 time=0
control_change channel=0 control=64 value=0 time=13
control_change channel=0 control=64 value=127 time=147
note_on channel=0 note=47 velocity=0 time=0
note_on channel=0 note=53 velocity=0 time=0
note_on channel=0 note=55 velocity=0 time=0
note_on channel=0 note=62 velocity=0 time=0
note_on channel=0 note=48 velocity=38 time=0
control_change channel=0 control=64 value=0 time=0
control_change channel=0 control=64 value=127 time=92
note_on channel=0 note=53 velocity=32 time=0
note_on channel=0 note=57 velocity=32 time=0
note_on channel=0 note=60 velocity=38 time=0
note_on channel=0 note=60 velocity=0 time=240
note_on channel=0 note=57 velocity=0 time=0
note_on channel=0 note=53 velocity=0 time=0
control_change channel=0 control=64 value=0 time=11
note_on channel=0 note=48 velocity=0 time=0
note_on channel=0 note=36 velocity=32 time=0
control_change channel=0 control=64 value=127 time=297
note_on channel=0 note=48 velocity=31 time=0
note_on channel=0 note=52 velocity=31 time=0
note_on channel=0 note=55 velocity=31 time=0
note_on channel=0 note=60 velocity=37 time=0
note_on channel=0 note=60 velocity=0 time=240
note_on channel=0 note=52 velocity=0 time=0
note_on channel=0 note=55 velocity=0 time=0
note_on channel=0 note=48 velocity=0 time=0
control_change channel=0 control=64 value=0 time=17
note_on channel=0 note=36 velocity=0 time=0
note_on channel=0 note=29 velocity=35 time=0
control_change channel=0 control=64 value=127 time=320
note_on channel=0 note=57 velocity=35 time=160
note_on channel=0 note=53 velocity=29 time=0
note_on channel=0 note=48 velocity=29 time=0
control_change channel=0 control=64 value=0 time=247
note_on channel=0 note=48 velocity=0 time=203
note_on channel=0 note=53 velocity=0 time=0
note_on channel=0 note=57 velocity=0 time=0
note_on channel=0 note=29 velocity=0 time=0
note_on channel=0 note=57 velocity=66 time=0
note_on channel=0 note=53 velocity=55 time=0
control_change channel=0 control=64 value=127 time=141
note_on channel=0 note=65 velocity=55 time=0
note_on channel=0 note=69 velocity=66 time=0
note_on channel=0 note=69 velocity=0 time=0
note_on channel=0 note=57 velocity=0 time=0
note_on channel=0 note=53 velocity=0 time=0
note_on channel=0 note=65 velocity=0 time=0
note_on channel=0 note=65 velocity=43 time=0
note_on channel=0 note=69 velocity=51 time=0
note_on channel=0 note=53 velocity=37 time=0
note_on channel=0 note=57 velocity=44 time=0
note_on channel=0 note=57 velocity=0 time=120
note_on channel=0 note=65 velocity=0 time=0
note_on channel=0 note=69 velocity=0 time=0
note_on channel=0 note=53 velocity=0 time=0
note_on channel=0 note=50 velocity=45 time=0
note_on channel=0 note=53 velocity=53 time=0
control_change channel=0 control=64 value=0 time=0
note_on channel=0 note=53 velocity=0 time=120
note_on channel=0 note=50 velocity=0 time=0
note_on channel=0 note=62 velocity=41 time=120
note_on channel=0 note=65 velocity=49 time=0
note_on channel=0 note=65 velocity=0 time=120
note_on channel=0 note=62 velocity=0 time=0
note_on channel=0 note=46 velocity=39 time=0
note_on channel=0 note=50 velocity=47 time=0
note_on channel=0 note=50 velocity=0 time=120
note_on channel=0 note=46 velocity=0 time=0
note_on channel=0 note=58 velocity=38 time=0
note_on channel=0 note=62 velocity=45 time=0
note_on channel=0 note=62 velocity=0 time=120
note_on channel=0 note=58 velocity=0 time=0
note_on channel=0 note=58 velocity=66 time=0
note_on channel=0 note=55 velocity=55 time=0
control_change channel=0 control=64 value=127 time=141
note_on channel=0 note=67 velocity=60 time=0
note_on channel=0 note=70 velocity=73 time=0
note_on channel=0 note=70 velocity=0 time=0
note_on channel=0 note=58 velocity=0 time=0
note_on channel=0 note=55 velocity=0 time=0
note_on channel=0 note=67 velocity=0 time=0
note_on channel=0 note=65 velocity=43 time=0
note_on channel=0 note=69 velocity=51 time=0
note_on channel=0 note=53 velocity=37 time=0
note_on channel=0 note=57 velocity=44 time=0
control_change channel=0 control=64 value=0 time=8
note_on channel=0 note=57 velocity=0 time=112
note_on channel=0 note=65 velocity=0 time=0
note_on channel=0 note=69 velocity=0 time=0
note_on channel=0 note=53 velocity=0 time=0
note_on channel=0 note=52 velocity=45 time=0
note_on channel=0 note=55 velocity=53 time=0
note_on channel=0 note=55 velocity=0 time=120
note_on channel=0 note=52 velocity=0 time=0
note_on channel=0 note=64 velocity=41 time=120
note_on channel=0 note=67 velocity=49 time=0
note_on channel=0 note=67 velocity=0 time=120
note_on channel=0 note=64 velocity=0 time=0
note_on channel=0 note=48 velocity=39 time=0
note_on channel=0 note=52 velocity=47 time=0
note_on channel=0 note=52 velocity=0 time=120
note_on channel=0 note=48 velocity=0 time=0
note_on channel=0 note=60 velocity=38 time=0
note_on channel=0 note=64 velocity=45 time=0
note_on channel=0 note=64 velocity=0 time=120
note_on channel=0 note=60 velocity=0 time=0
note_on channel=0 note=60 velocity=72 time=0
note_on channel=0 note=57 velocity=60 time=0
control_change channel=0 control=64 value=127 time=141
note_on channel=0 note=69 velocity=60 time=0
note_on channel=0 note=72 velocity=72 time=0
note_on channel=0 note=72 velocity=0 time=0
note_on channel=0 note=60 velocity=0 time=0
note_on channel=0 note=57 velocity=0 time=0
note_on channel=0 note=69 velocity=0 time=0
note_on channel=0 note=69 velocity=47 time=0
note_on channel=0 note=72 velocity=56 time=0
note_on channel=0 note=57 velocity=40 time=0
note_on channel=0 note=60 velocity=48 time=0
note_on channel=0 note=60 velocity=0 time=120
note_on channel=0 note=69 velocity=0 time=0
note_on channel=0 note=72 velocity=0 time=0
note_on channel=0 note=57 velocity=0 time=0
note_on channel=0 note=53 velocity=49 time=0
note_on channel=0 note=57 velocity=58 time=0
control_change channel=0 control=64 value=0 time=0
note_on channel=0 note=57 velocity=0 time=120
note_on channel=0 note=53 velocity=0 time=0
note_on channel=0 note=65 velocity=45 time=120
note_on channel=0 note=69 velocity=53 time=0
note_on channel=0 note=69 velocity=0 time=120
note_on channel=0 note=65 velocity=0 time=0
note_on channel=0 note=50 velocity=42 time=0
note_on channel=0 note=53 velocity=51 time=0
note_on channel=0 note=53 velocity=0 time=120
note_on channel=0 note=50 velocity=0 time=0
note_on channel=0 note=62 velocity=41 time=0
note_on channel=0 note=65 velocity=49 time=0
note_on channel=0 note=65 velocity=0 time=120
note_on channel=0 note=62 velocity=0 time=0
note_on channel=0 note=62 velocity=75 time=0
note_on channel=0 note=58 velocity=62 time=0
control_change channel=0 control=64 value=127 time=141
note_on channel=0 note=70 velocity=68 time=0
note_on channel=0 note=74 velocity=84 time=0
note_on channel=0 note=74 velocity=0 time=0
note_on channel=0 note=62 velocity=0 time=0
note_on channel=0 note=58 velocity=0 time=0
note_on channel=0 note=70 velocity=0 time=0
note_on channel=0 note=69 velocity=49 time=0
note_on channel=0 note=72 velocity=58 time=0
note_on channel=0 note=57 velocity=42 time=0
note_on channel=0 note=60 velocity=50 time=0
control_change channel=0 control=64 value=0 time=8
note_on channel=0 note=60 velocity=0 time=112
note_on channel=0 note=69 velocity=0 time=0
note_on channel=0 note=72 velocity=0 time=0
note_on channel=0 note=57 velocity=0 time=0
note_on channel=0 note=55 velocity=51 time=0
note_on channel=0 note=58 velocity=60 time=0
note_on channel=0 note=58 velocity=0 time=120
note_on channel=0 note=55 velocity=0 time=0
note_on channel=0 note=67 velocity=47 time=120
note_on channel=0 note=70 velocity=55 time=0
note_on channel=0 note=70 velocity=0 time=120
note_on channel=0 note=67 velocity=0 time=0
note_on channel=0 note=52 velocity=44 time=0
note_on channel=0 note=55 velocity=53 time=0
note_on channel=0 note=55 velocity=0 time=120
note_on channel=0 note=52 velocity=0 time=0
note_on channel=0 note=64 velocity=43 time=0
note_on channel=0 note=67 velocity=51 time=0
note_on channel=0 note=67 velocity=0 time=120
note_on channel=0 note=64 velocity=0 time=0
note_on channel=0 note=67 velocity=79 time=0
note_on channel=0 note=58 velocity=66 time=0
control_change channel=0 control=64 value=127 time=141
note_on channel=0 note=70 velocity=79 time=0
note_on channel=0 note=79 velocity=96 time=0
note_on channel=0 note=79 velocity=0 time=0
note_on channel=0 note=67 velocity=0 time=0
note_on channel=0 note=58 velocity=0 time=0
note_on channel=0 note=70 velocity=0 time=0
note_on channel=0 note=69 velocity=56 time=0
note_on channel=0 note=77 velocity=67 time=0
note_on channel=0 note=57 velocity=44 time=0
note_on channel=0 note=65 velocity=52 time=0
control_change channel=0 control=64 value=0 time=8
note_on channel=0 note=65 velocity=0 time=112
note_on channel=0 note=69 velocity=0 time=0
note_on channel=0 note=77 velocity=0 time=0
note_on channel=0 note=57 velocity=0 time=0
note_on channel=0 note=64 velocity=79 time=0
note_on channel=0 note=55 velocity=66 time=0
note_on channel=0 note=67 velocity=79 time=0
note_on channel=0 note=76 velocity=96 time=0
control_change channel=0 control=64 value=127 time=0
note_on channel=0 note=76 velocity=0 time=0
note_on channel=0 note=64 velocity=0 time=0
note_on channel=0 note=55 velocity=0 time=0
note_on channel=0 note=67 velocity=0 time=0
note_on channel=0 note=65 velocity=56 time=0
note_on channel=0 note=74 velocity=67 time=0
note_on channel=0 note=53 velocity=44 time=0
note_on channel=0 note=62 velocity=52 time=0
control_change channel=0 control=64 value=0 time=8
note_on channel=0 note=62 velocity=0 time=112
note_on channel=0 note=65 velocity=0 time=0
note_on channel=0 note=74 velocity=0 time=0
note_on channel=0 note=53 velocity=0 time=0
note_on channel=0 note=52 velocity=49 time=0
note_on channel=0 note=60 velocity=58 time=0
note_on channel=0 note=60 velocity=0 time=120
note_on channel=0 note=52 velocity=0 time=0
note_on channel=0 note=64 velocity=44 time=120
note_on channel=0 note=72 velocity=52 time=0
note_on channel=0 note=72 velocity=0 time=120
note_on channel=0 note=64 velocity=0 time=0
note_on channel=0 note=50 velocity=40 time=0
note_on channel=0 note=53 velocity=49 time=0
note_on channel=0 note=53 velocity=0 time=106
note_on channel=0 note=50 velocity=0 time=0
note_on channel=0 note=58 velocity=39 time=0
note_on channel=0 note=70 velocity=46 time=0
note_on channel=0 note=70 velocity=0 time=106
note_on channel=0 note=58 velocity=0 time=0
note_on channel=0 note=69 velocity=54 time=0
note_on channel=0 note=49 velocity=34 time=0
note_on channel=0 note=52 velocity=34 time=0
note_on channel=0 note=55 velocity=40 time=0
control_change channel=0 control=64 value=127 time=86
note_on channel=0 note=69 velocity=0 time=34
note_on channel=0 note=57 velocity=46 time=0
note_on channel=0 note=57 velocity=0 time=120
note_on channel=0 note=61 velocity=43 time=0
note_on channel=0 note=61 velocity=0 time=120
note_on channel=0 note=64 velocity=43 time=0
note_on channel=0 note=64 velocity=0 time=39
note_on channel=0 note=69 velocity=53 time=0
note_on channel=0 note=69 velocity=0 time=39
note_on channel=0 note=73 velocity=42 time=0
note_on channel=0 note=73 velocity=0 time=39
note_on channel=0 note=76 velocity=42 time=0
note_on channel=0 note=76 velocity=0 time=39
note_on channel=0 note=80 velocity=42 time=0
note_on channel=0 note=80 velocity=0 time=39
note_on channel=0 note=81 velocity=49 time=0
note_on channel=0 note=81 velocity=0 time=39
note_on channel=0 note=80 velocity=39 time=0
note_on channel=0 note=80 velocity=0 time=63
note_on channel=0 note=81 velocity=42 time=0
note_on channel=0 note=81 velocity=0 time=15
note_on channel=0 note=80 velocity=38 time=0
note_on channel=0 note=80 velocity=0 time=39
note_on channel=0 note=81 velocity=48 time=0
note_on channel=0 note=81 velocity=0 time=87
note_on channel=0 note=76 velocity=38 time=0
note_on channel=0 note=76 velocity=0 time=39
note_on channel=0 note=73 velocity=38 time=0
note_on channel=0 note=73 velocity=0 time=0
note_on channel=0 note=69 velocity=38 time=0
note_on channel=0 note=69 velocity=0 time=0
note_on channel=0 note=55 velocity=0 time=0
note_on channel=0 note=52 velocity=0 time=0
note_on channel=0 note=49 velocity=0 time=0
note_on channel=0 note=50 velocity=34 time=0
note_on channel=0 note=53 velocity=40 time=0
control_change channel=0 control=64 value=0 time=0
note_on channel=0 note=57 velocity=46 time=63
control_change channel=0 control=64 value=127 time=0
note_on channel=0 note=57 velocity=0 time=15
note_on channel=0 note=62 velocity=43 time=0
note_on channel=0 note=62 velocity=0 time=120
note_on channel=0 note=65 velocity=43 time=0
note_on channel=0 note=65 velocity=0 time=46
note_on channel=0 note=69 velocity=53 time=0
note_on channel=0 note=69 velocity=0 time=46
note_on channel=0 note=74 velocity=42 time=0
note_on channel=0 note=74 velocity=0 time=46
note_on channel=0 note=77 velocity=42 time=0
note_on channel=0 note=77 velocity=0 time=46
note_on channel=0 note=80 velocity=42 time=0
note_on channel=0 note=80 velocity=0 time=46
note_on channel=0 note=81 velocity=49 time=0
note_on channel=0 note=81 velocity=0 time=46
note_on channel=0 note=80 velocity=39 time=0
note_on channel=0 note=80 velocity=0 time=46
note_on channel=0 note=81 velocity=42 time=0
note_on channel=0 note=81 velocity=0 time=46
note_on channel=0 note=80 velocity=38 time=0
note_on channel=0 note=80 velocity=0 time=106
note_on channel=0 note=81 velocity=48 time=0
note_on channel=0 note=81 velocity=0 time=15
note_on channel=0 note=77 velocity=38 time=0
note_on channel=0 note=77 velocity=0 time=120
note_on channel=0 note=74 velocity=38 time=0
note_on channel=0 note=74 velocity=0 time=0
note_on channel=0 note=69 velocity=38 time=0
note_on channel=0 note=69 velocity=0 time=0
note_on channel=0 note=53 velocity=0 time=0
note_on channel=0 note=50 velocity=0 time=0
note_on channel=0 note=47 velocity=34 time=0
note_on channel=0 note=50 velocity=34 time=0
note_on channel=0 note=53 velocity=40 time=0
control_change channel=0 control=64 value=0 time=8
control_change channel=0 control=64 value=127 time=101
note_on channel=0 note=56 velocity=46 time=11
note_on channel=0 note=56 velocity=0 time=120
note_on channel=0 note=59 velocity=43 time=0
note_on channel=0 note=59 velocity=0 time=120
note_on channel=0 note=62 velocity=43 time=0
note_on channel=0 note=62 velocity=0 time=87
note_on channel=0 note=65 velocity=50 time=0
note_on channel=0 note=65 velocity=0 time=120
note_on channel=0 note=68 velocity=42 time=0
note_on channel=0 note=68 velocity=0 time=15
note_on channel=0 note=71 velocity=42 time=0
note_on channel=0 note=71 velocity=0 time=120
note_on channel=0 note=74 velocity=42 time=0
note_on channel=0 note=74 velocity=0 time=120
note_on channel=0 note=77 velocity=49 time=0
note_on channel=0 note=77 velocity=0 time=63
note_on channel=0 note=74 velocity=41 time=0
note_on channel=0 note=74 velocity=0 time=63
note_on channel=0 note=80 velocity=48 time=0
note_on channel=0 note=80 velocity=0 time=63
note_on channel=0 note=77 velocity=41 time=0
note_on channel=0 note=77 velocity=0 time=63
note_on channel=0 note=74 velocity=48 time=0
note_on channel=0 note=74 velocity=0 time=63
note_on channel=0 note=71 velocity=45 time=0
note_on channel=0 note=71 velocity=0 time=87
note_on channel=0 note=68 velocity=42 time=0
note_on channel=0 note=68 velocity=0 time=0
note_on channel=0 note=65 velocity=39 time=0
note_on channel=0 note=65 velocity=0 time=0
note_on channel=0 note=47 velocity=0 time=0
note_on channel=0 note=50 velocity=0 time=0
note_on channel=0 note=53 velocity=0 time=0
note_on channel=0 note=46 velocity=57 time=0
note_on channel=0 note=49 velocity=57 time=0
note_on channel=0 note=52 velocity=57 time=0
note_on channel=0 note=55 velocity=68 time=0
control_change channel=0 control=64 value=0 time=0
control_change channel=0 control=64 value=127 time=32
note_on channel=0 note=64 velocity=48 time=23
note_on channel=0 note=64 velocity=0 time=31
note_on channel=0 note=67 velocity=50 time=0
note_on channel=0 note=67 velocity=0 time=7
note_on channel=0 note=70 velocity=51 time=0
note_on channel=0 note=70 velocity=0 time=120
note_on channel=0 note=73 velocity=53 time=0
note_on channel=0 note=73 velocity=0 time=103
note_on channel=0 note=76 velocity=55 time=0
note_on channel=0 note=76 velocity=0 time=103
note_on channel=0 note=79 velocity=57 time=0
note_on channel=0 note=79 velocity=0 time=120
note_on channel=0 note=82 velocity=59 time=0
note_on channel=0 note=82 velocity=0 time=120
note_on channel=0 note=85 velocity=65 time=0
control_change channel=0 control=64 value=0 time=11
note_on channel=0 note=85 velocity=0 time=109
note_on channel=0 note=88 velocity=57 time=0
note_on channel=0 note=88 velocity=0 time=0
note_on channel=0 note=52 velocity=0 time=0
note_on channel=0 note=46 velocity=0 time=0
note_on channel=0 note=49 velocity=0 time=0
note_on channel=0 note=55 velocity=0 time=0
note_on channel=0 note=76 velocity=64 time=0
note_on channel=0 note=46 velocity=50 time=0
note_on channel=0 note=48 velocity=50 time=0
note_on channel=0 note=55 velocity=60 time=0
note_on channel=0 note=55 velocity=0 time=120
note_on channel=0 note=76 velocity=0 time=0
note_on channel=0 note=46 velocity=0 time=0
note_on channel=0 note=48 velocity=0 time=0
note_on channel=0 note=88 velocity=56 time=0
note_on channel=0 note=88 velocity=0 time=120
note_on channel=0 note=76 velocity=64 time=0
note_on channel=0 note=46 velocity=61 time=0
note_on channel=0 note=48 velocity=61 time=0
note_on channel=0 note=55 velocity=72 time=0
note_on channel=0 note=55 velocity=0 time=120
note_on channel=0 note=76 velocity=0 time=0
note_on channel=0 note=46 velocity=0 time=0
note_on channel=0 note=48 velocity=0 time=0
note_on channel=0 note=88 velocity=58 time=0
note_on channel=0 note=88 velocity=0 time=120
note_on channel=0 note=76 velocity=64 time=0
note_on channel=0 note=46 velocity=51 time=0
note_on channel=0 note=48 velocity=51 time=0
note_on channel=0 note=55 velocity=61 time=0
note_on channel=0 note=55 velocity=0 time=0
note_on channel=0 note=76 velocity=0 time=0
note_on channel=0 note=46 velocity=0 time=0
note_on channel=0 note=48 velocity=0 time=0
note_on channel=0 note=88 velocity=59 time=0
note_on channel=0 note=88 velocity=0 time=0
note_on channel=0 note=77 velocity=74 time=0
note_on channel=0 note=45 velocity=73 time=0
note_on channel=0 note=48 velocity=73 time=0
note_on channel=0 note=53 velocity=73 time=0
control_change channel=0 control=64 value=127 time=63
note_on channel=0 note=77 velocity=0 time=57
note_on channel=0 note=89 velocity=59 time=0
note_on channel=0 note=89 velocity=0 time=120
note_on channel=0 note=76 velocity=67 time=0
note_on channel=0 note=76 velocity=0 time=120
note_on channel=0 note=88 velocity=54 time=0
note_on channel=0 note=88 velocity=0 time=120
note_on channel=0 note=53 velocity=0 time=0
note_on channel=0 note=48 velocity=0 time=0
note_on channel=0 note=45 velocity=0 time=0
note_on channel=0 note=77 velocity=66 time=0
note_on channel=0 note=77 velocity=0 time=120
note_on channel=0 note=89 velocity=57 time=0
note_on channel=0 note=89 velocity=0 time=120
note_on channel=0 note=70 velocity=59 time=0
note_on channel=0 note=40 velocity=57 time=0
note_on channel=0 note=48 velocity=68 time=0
control_change channel=0 control=64 value=0 time=10
control_change channel=0 control=64 value=127 time=59
note_on channel=0 note=48 velocity=0 time=0
note_on channel=0 note=40 velocity=0 time=0
note_on channel=0 note=70 velocity=0 time=0
note_on channel=0 note=82 velocity=50 time=0
control_change channel=0 control=64 value=0 time=57
note_on channel=0 note=82 velocity=0 time=0
note_on channel=0 note=69 velocity=79 time=0
note_on channel=0 note=41 velocity=63 time=0
note_on channel=0 note=48 velocity=75 time=0
control_change channel=0 control=64 value=127 time=75
note_on channel=0 note=48 velocity=0 time=45
note_on channel=0 note=41 velocity=0 time=0
note_on channel=0 note=69 velocity=0 time=0
note_on channel=0 note=81 velocity=54 time=0
control_change channel=0 control=64 value=0 time=57
note_on channel=0 note=81 velocity=0 time=63
note_on channel=0 note=76 velocity=65 time=0
note_on channel=0 note=46 velocity=56 time=0
note_on channel=0 note=48 velocity=67 time=0
control_change channel=0 control=64 value=127 time=69
note_on channel=0 note=48 velocity=0 time=51
note_on channel=0 note=46 velocity=0 time=0
note_on channel=0 note=76 velocity=0 time=0
note_on channel=0 note=88 velocity=57 time=0
control_change channel=0 control=64 value=0 time=57
note_on channel=0 note=88 velocity=0 time=46
note_on channel=0 note=77 velocity=68 time=0
note_on channel=0 note=45 velocity=63 time=0
note_on channel=0 note=48 velocity=75 time=0
control_change channel=0 control=64 value=127 time=80
note_on channel=0 note=48 velocity=0 time=40
note_on channel=0 note=45 velocity=0 time=0
note_on channel=0 note=77 velocity=0 time=0
note_on channel=0 note=89 velocity=60 time=0
control_change channel=0 control=64 value=0 time=69
note_on channel=0 note=89 velocity=0 time=51
note_on channel=0 note=70 velocity=67 time=0
note_on channel=0 note=40 velocity=56 time=0
note_on channel=0 note=48 velocity=67 time=0
control_change channel=0 control=64 value=127 time=52
note_on channel=0 note=48 velocity=0 time=0
note_on channel=0 note=40 velocity=0 time=0
note_on channel=0 note=70 velocity=0 time=0
note_on channel=0 note=82 velocity=58 time=0
control_change channel=0 control=64 value=0 time=52
note_on channel=0 note=82 velocity=0 time=0
note_on channel=0 note=69 velocity=81 time=0
note_on channel=0 note=41 velocity=63 time=0
note_on channel=0 note=48 velocity=75 time=0
control_change channel=0 control=64 value=127 time=12
note_on channel=0 note=48 velocity=0 time=108
note_on channel=0 note=41 velocity=0 time=0
note_on channel=0 note=69 velocity=0 time=0
note_on channel=0 note=81 velocity=58 time=0
control_change channel=0 control=64 value=0 time=35
note_on channel=0 note=81 velocity=0 time=85
note_on channel=0 note=76 velocity=64 time=0
note_on channel=0 note=46 velocity=56 time=0
note_on channel=0 note=48 velocity=67 time=0
control_change channel=0 control=64 value=127 time=75
note_on channel=0 note=48 velocity=0 time=45
note_on channel=0 note=46 velocity=0 time=0
note_on channel=0 note=76 velocity=0 time=0
note_on channel=0 note=88 velocity=59 time=0
control_change channel=0 control=64 value=0 time=52
note_on channel=0 note=88 velocity=0 time=68
note_on channel=0 note=77 velocity=67 time=0
note_on channel=0 note=45 velocity=63 time=0
note_on channel=0 note=48 velocity=75 time=0
control_change channel=0 control=64 value=127 time=1
note_on channel=0 note=48 velocity=0 time=45
note_on channel=0 note=45 velocity=0 time=0
note_on channel=0 note=77 velocity=0 time=0
note_on channel=0 note=89 velocity=55 time=0
control_change channel=0 control=64 value=0 time=40
note_on channel=0 note=89 velocity=0 time=80
note_on channel=0 note=70 velocity=62 time=0
note_on channel=0 note=40 velocity=56 time=0
note_on channel=0 note=48 velocity=67 time=0
control_change channel=0 control=64 value=127 time=75
note_on channel=0 note=48 velocity=0 time=0
note_on channel=0 note=40 velocity=0 time=0
note_on channel=0 note=70 velocity=0 time=0
note_on channel=0 note=82 velocity=51 time=0
control_change channel=0 control=64 value=0 time=57
note_on channel=0 note=82 velocity=0 time=0
note_on channel=0 note=69 velocity=72 time=0
note_on channel=0 note=41 velocity=63 time=0
note_on channel=0 note=48 velocity=75 time=0
note_on channel=0 note=48 velocity=0 time=120
note_on channel=0 note=41 velocity=0 time=0
note_on channel=0 note=69 velocity=0 time=0
note_on channel=0 note=81 velocity=52 time=0
control_change channel=0 control=64 value=127 time=0
control_change channel=0 control=64 value=0 time=92
note_on channel=0 note=81 velocity=0 time=28
note_on channel=0 note=76 velocity=64 time=0
note_on channel=0 note=46 velocity=56 time=0
note_on channel=0 note=48 velocity=67 time=0
control_change channel=0 control=64 value=127 time=69
note_on channel=0 note=48 velocity=0 time=51
note_on channel=0 note=46 velocity=0 time=0
note_on channel=0 note=76 velocity=0 time=0
note_on channel=0 note=88 velocity=54 time=0
control_change channel=0 control=64 value=0 time=52
note_on channel=0 note=88 velocity=0 time=16
note_on channel=0 note=77 velocity=64 time=0
note_on channel=0 note=45 velocity=63 time=0
note_on channel=0 note=48 velocity=75 time=0
control_change channel=0 control=64 value=127 time=61
note_on channel=0 note=48 velocity=0 time=45
note_on channel=0 note=45 velocity=0 time=0
note_on channel=0 note=77 velocity=0 time=0
note_on channel=0 note=89 velocity=51 time=0
control_change channel=0 control=64 value=0 time=46
note_on channel=0 note=89 velocity=0 time=74
note_on channel=0 note=70 velocity=60 time=0
note_on channel=0 note=40 velocity=57 time=0
note_on channel=0 note=48 velocity=68 time=0
control_change channel=0 control=64 value=127 time=97
note_on channel=0 note=48 velocity=0 time=0
note_on channel=0 note=40 velocity=0 time=0
note_on channel=0 note=70 velocity=0 time=0
note_on channel=0 note=82 velocity=51 time=0
control_change channel=0 control=64 value=0 time=52
note_on channel=0 note=82 velocity=0 time=0
note_on channel=0 note=69 velocity=83 time=0
note_on channel=0 note=41 velocity=89 time=0
control_change channel=0 control=64 value=127 time=52
note_on channel=0 note=69 velocity=0 time=68
note_on channel=0 note=81 velocity=53 time=0
note_on channel=0 note=81 velocity=0 time=120
note_on channel=0 note=67 velocity=62 time=0
note_on channel=0 note=67 velocity=0 time=120
note_on channel=0 note=79 velocity=54 time=0
note_on channel=0 note=79 velocity=0 time=120
note_on channel=0 note=65 velocity=62 time=0
control_change channel=0 control=64 value=0 time=18
note_on channel=0 note=65 velocity=0 time=76
note_on channel=0 note=77 velocity=54 time=0
control_change channel=0 control=64 value=127 time=0
note_on channel=0 note=77 velocity=0 time=120
note_on channel=0 note=64 velocity=62 time=0
note_on channel=0 note=64 velocity=0 time=0
note_on channel=0 note=76 velocity=53 time=0
note_on channel=0 note=76 velocity=0 time=0
note_on channel=0 note=41 velocity=0 time=0
note_on channel=0 note=62 velocity=81 time=0
note_on channel=0 note=38 velocity=80 time=0
control_change channel=0 control=64 value=0 time=15
control_change channel=0 control=64 value=127 time=88
note_on channel=0 note=62 velocity=0 time=17
note_on channel=0 note=74 velocity=53 time=0
note_on channel=0 note=74 velocity=0 time=120
note_on channel=0 note=60 velocity=60 time=0
note_on channel=0 note=60 velocity=0 time=120
note_on channel=0 note=72 velocity=52 time=0
note_on channel=0 note=72 velocity=0 time=120
note_on channel=0 note=58 velocity=59 time=0
control_change channel=0 control=64 value=0 time=16
control_change channel=0 control=64 value=127 time=81
note_on channel=0 note=58 velocity=0 time=23
note_on channel=0 note=70 velocity=52 time=0
note_on channel=0 note=70 velocity=0 time=120
note_on channel=0 note=57 velocity=59 time=0
note_on channel=0 note=57 velocity=0 time=0
note_on channel=0 note=69 velocity=50 time=0
note_on channel=0 note=69 velocity=0 time=0
note_on channel=0 note=38 velocity=0 time=0
note_on channel=0 note=55 velocity=79 time=0
note_on channel=0 note=34 velocity=88 time=0
control_change channel=0 control=64 value=0 time=0
control_change channel=0 control=64 value=127 time=80
note_on channel=0 note=55 velocity=0 time=40
note_on channel=0 note=67 velocity=50 time=0
note_on channel=0 note=67 velocity=0 time=120
note_on channel=0 note=53 velocity=59 time=0
control_change channel=0 control=64 value=0 time=17
control_change channel=0 control=64 value=127 time=46
note_on channel=0 note=53 velocity=0 time=57
note_on channel=0 note=65 velocity=49 time=0
note_on channel=0 note=65 velocity=0 time=120
note_on channel=0 note=52 velocity=59 time=0
control_change channel=0 control=64 value=0 time=9
control_change channel=0 control=64 value=127 time=100
note_on channel=0 note=52 velocity=0 time=11
note_on channel=0 note=64 velocity=49 time=0
note_on channel=0 note=64 velocity=0 time=120
note_on channel=0 note=50 velocity=59 time=0
control_change channel=0 control=64 value=0 time=15
control_change channel=0 control=64 value=127 time=48
note_on channel=0 note=50 velocity=0 time=0
note_on channel=0 note=62 velocity=51 time=0
note_on channel=0 note=62 velocity=0 time=0
note_on channel=0 note=34 velocity=0 time=0
note_on channel=0 note=48 velocity=79 time=0
note_on channel=0 note=36 velocity=84 time=0
control_change channel=0 control=64 value=0 time=6
control_change channel=0 control=64 value=127 time=74
note_on channel=0 note=48 velocity=0 time=40
note_on channel=0 note=60 velocity=49 time=0
note_on channel=0 note=60 velocity=0 time=120
note_on channel=0 note=46 velocity=59 time=0
control_change channel=0 control=64 value=0 time=14
control_change channel=0 control=64 value=127 time=66
note_on channel=0 note=46 velocity=0 time=40
note_on channel=0 note=58 velocity=50 time=0
note_on channel=0 note=58 velocity=0 time=120
note_on channel=0 note=45 velocity=59 time=0
control_change channel=0 control=64 value=0 time=15
control_change channel=0 control=64 value=127 time=77
note_on channel=0 note=45 velocity=0 time=28
note_on channel=0 note=57 velocity=48 time=0
note_on channel=0 note=57 velocity=0 time=120
note_on channel=0 note=43 velocity=58 time=0
control_change channel=0 control=64 value=0 time=10
control_change channel=0 control=64 value=127 time=47
note_on channel=0 note=43 velocity=0 time=0
note_on channel=0 note=55 velocity=49 time=0
note_on channel=0 note=55 velocity=0 time=0
note_on channel=0 note=36 velocity=0 time=0
note_on channel=0 note=53 velocity=76 time=0
note_on channel=0 note=41 velocity=64 time=0
note_on channel=0 note=29 velocity=81 time=0
control_change channel=0 control=64 value=0 time=0
control_change channel=0 control=64 value=127 time=46
note_on channel=0 note=29 velocity=0 time=74
note_on channel=0 note=41 velocity=0 time=0
note_on channel=0 note=53 velocity=0 time=0
control_change channel=0 control=64 value=0 time=23
note_on channel=0 note=52 velocity=49 time=97
note_on channel=0 note=46 velocity=54 time=0
control_change channel=0 control=64 value=127 time=69
note_on channel=0 note=46 velocity=0 time=51
note_on channel=0 note=52 velocity=0 time=0
note_on channel=0 note=60 velocity=42 time=0
control_change channel=0 control=64 value=0 time=46
note_on channel=0 note=60 velocity=0 time=0
note_on channel=0 note=53 velocity=49 time=0
note_on channel=0 note=45 velocity=60 time=0
control_change channel=0 control=64 value=127 time=69
note_on channel=0 note=45 velocity=0 time=51
note_on channel=0 note=53 velocity=0 time=0
note_on channel=0 note=60 velocity=41 time=0
control_change channel=0 control=64 value=0 time=35
note_on channel=0 note=60 velocity=0 time=85
note_on channel=0 note=58 velocity=49 time=0
note_on channel=0 note=40 velocity=54 time=0
control_change channel=0 control=64 value=127 time=75
note_on channel=0 note=40 velocity=0 time=45
note_on channel=0 note=58 velocity=0 time=0
note_on channel=0 note=60 velocity=42 time=0
control_change channel=0 control=64 value=0 time=52
note_on channel=0 note=60 velocity=0 time=68
note_on channel=0 note=57 velocity=49 time=0
note_on channel=0 note=41 velocity=60 time=0
control_change channel=0 control=64 value=127 time=63
note_on channel=0 note=41 velocity=0 time=57
note_on channel=0 note=57 velocity=0 time=0
note_on channel=0 note=60 velocity=41 time=0
control_change channel=0 control=64 value=0 time=40
note_on channel=0 note=60 velocity=0 time=80
note_on channel=0 note=52 velocity=49 time=0
note_on channel=0 note=46 velocity=52 time=0
control_change channel=0 control=64 value=127 time=86
note_on channel=0 note=46 velocity=0 time=34
note_on channel=0 note=52 velocity=0 time=0
note_on channel=0 note=60 velocity=42 time=0
control_change channel=0 control=64 value=0 time=75
note_on channel=0 note=60 velocity=0 time=45
note_on channel=0 note=53 velocity=49 time=0
note_on channel=0 note=45 velocity=60 time=0
control_change channel=0 control=64 value=127 time=69
note_on channel=0 note=45 velocity=0 time=51
note_on channel=0 note=53 velocity=0 time=0
note_on channel=0 note=60 velocity=43 time=0
control_change channel=0 control=64 value=0 time=40
note_on channel=0 note=60 velocity=0 time=80
note_on channel=0 note=58 velocity=49 time=0
note_on channel=0 note=40 velocity=58 time=0
control_change channel=0 control=64 value=127 time=69
note_on channel=0 note=40 velocity=0 time=51
note_on channel=0 note=58 velocity=0 time=0
note_on channel=0 note=60 velocity=40 time=0
control_change channel=0 control=64 value=0 time=35
note_on channel=0 note=60 velocity=0 time=0
note_on channel=0 note=57 velocity=49 time=0
note_on channel=0 note=41 velocity=60 time=0
control_change channel=0 control=64 value=127 time=69
note_on channel=0 note=41 velocity=0 time=51
note_on channel=0 note=57 velocity=0 time=0
note_on channel=0 note=60 velocity=41 time=0
control_change channel=0 control=64 value=0 time=46
note_on channel=0 note=60 velocity=0 time=74
note_on channel=0 note=52 velocity=49 time=0
note_on channel=0 note=46 velocity=52 time=0
control_change channel=0 control=64 value=127 time=103
note_on channel=0 note=46 velocity=0 time=17
note_on channel=0 note=52 velocity=0 time=0
note_on channel=0 note=60 velocity=42 time=0
control_change channel=0 control=64 value=0 time=63
note_on channel=0 note=60 velocity=0 time=57
note_on channel=0 note=53 velocity=49 time=0
note_on channel=0 note=45 velocity=60 time=0
control_change channel=0 control=64 value=127 time=75
note_on channel=0 note=45 velocity=0 time=45
note_on channel=0 note=53 velocity=0 time=0
note_on channel=0 note=60 velocity=43 time=0
control_change channel=0 control=64 value=0 time=46
note_on channel=0 note=60 velocity=0 time=74
note_on channel=0 note=58 velocity=49 time=0
note_on channel=0 note=40 velocity=58 time=0
control_change channel=0 control=64 value=127 time=80
note_on channel=0 note=40 velocity=0 time=40
note_on channel=0 note=58 velocity=0 time=0
note_on channel=0 note=60 velocity=40 time=0
control_change channel=0 control=64 value=0 time=46
note_on channel=0 note=60 velocity=0 time=0
note_on channel=0 note=57 velocity=56 time=0
note_on channel=0 note=41 velocity=67 time=0
control_change channel=0 control=64 value=127 time=92
note_on channel=0 note=41 velocity=0 time=28
note_on channel=0 note=57 velocity=0 time=0
note_on channel=0 note=60 velocity=45 time=0
control_change channel=0 control=64 value=0 time=63
note_on channel=0 note=60 velocity=0 time=57
note_on channel=0 note=49 velocity=60 time=0
note_on channel=0 note=43 velocity=59 time=0
control_change channel=0 control=64 value=127 time=86
note_on channel=0 note=43 velocity=0 time=34
note_on channel=0 note=49 velocity=0 time=0
note_on channel=0 note=61 velocity=52 time=0
control_change channel=0 control=64 value=0 time=57
note_on channel=0 note=61 velocity=0 time=63
note_on channel=0 note=50 velocity=61 time=0
note_on channel=0 note=41 velocity=72 time=0
control_change channel=0 control=64 value=127 time=69
note_on channel=0 note=41 velocity=0 time=51
note_on channel=0 note=50 velocity=0 time=0
note_on channel=0 note=62 velocity=49 time=0
control_change channel=0 control=64 value=0 time=35
note_on channel=0 note=62 velocity=0 time=85
note_on channel=0 note=52 velocity=67 time=0
note_on channel=0 note=40 velocity=67 time=0
control_change channel=0 control=64 value=127 time=63
note_on channel=0 note=40 velocity=0 time=0
note_on channel=0 note=52 velocity=0 time=0
note_on channel=0 note=64 velocity=60 time=0
control_change channel=0 control=64 value=0 time=40
note_on channel=0 note=64 velocity=0 time=80
note_on channel=0 note=53 velocity=71 time=0
note_on channel=0 note=38 velocity=75 time=0
control_change channel=0 control=64 value=127 time=40
note_on channel=0 note=38 velocity=0 time=80
note_on channel=0 note=53 velocity=0 time=0
note_on channel=0 note=65 velocity=62 time=0
note_on channel=0 note=65 velocity=0 time=120
note_on channel=0 note=54 velocity=70 time=0
note_on channel=0 note=36 velocity=77 time=0
control_change channel=0 control=64 value=0 time=8
control_change channel=0 control=64 value=127 time=61
note_on channel=0 note=36 velocity=0 time=51
note_on channel=0 note=54 velocity=0 time=0
note_on channel=0 note=66 velocity=64 time=0
note_on channel=0 note=66 velocity=0 time=120
note_on channel=0 note=55 velocity=70 time=0
note_on channel=0 note=34 velocity=80 time=0
control_change channel=0 control=64 value=0 time=12
control_change channel=0 control=64 value=127 time=57
note_on channel=0 note=34 velocity=0 time=51
note_on channel=0 note=55 velocity=0 time=0
note_on channel=0 note=67 velocity=64 time=0
note_on channel=0 note=67 velocity=0 time=120
note_on channel=0 note=57 velocity=74 time=0
note_on channel=0 note=33 velocity=82 time=0
control_change channel=0 control=64 value=0 time=6
control_change channel=0 control=64 value=127 time=46
note_on channel=0 note=33 velocity=0 time=68
note_on channel=0 note=57 velocity=0 time=0
note_on channel=0 note=69 velocity=65 time=0
note_on channel=0 note=69 velocity=0 time=120
note_on channel=0 note=58 velocity=82 time=0
note_on channel=0 note=31 velocity=94 time=0
control_change channel=0 control=64 value=0 time=2
control_change channel=0 control=64 value=127 time=67
note_on channel=0 note=58 velocity=0 time=51
note_on channel=0 note=70 velocity=71 time=0
note_on channel=0 note=70 velocity=0 time=120
note_on channel=0 note=60 velocity=79 time=0
control_change channel=0 control=64 value=0 time=15
control_change channel=0 control=64 value=127 time=77
note_on channel=0 note=60 velocity=0 time=28
note_on channel=0 note=72 velocity=70 time=0
note_on channel=0 note=72 velocity=0 time=120
note_on channel=0 note=62 velocity=83 time=0
control_change channel=0 control=64 value=0 time=17
control_change channel=0 control=64 value=127 time=92
note_on channel=0 note=62 velocity=0 time=11
note_on channel=0 note=74 velocity=72 time=0
note_on channel=0 note=74 velocity=0 time=120
note_on channel=0 note=60 velocity=81 time=0
control_change channel=0 control=64 value=0 time=18
control_change channel=0 control=64 value=127 time=57
note_on channel=0 note=60 velocity=0 time=0
note_on channel=0 note=72 velocity=69 time=0
note_on channel=0 note=72 velocity=0 time=0
note_on channel=0 note=58 velocity=84 time=0
control_change channel=0 control=64 value=0 time=0
control_change channel=0 control=64 value=127 time=52
note_on channel=0 note=58 velocity=0 time=68
note_on channel=0 note=70 velocity=69 time=0
note_on channel=0 note=70 velocity=0 time=120
note_on channel=0 note=57 velocity=81 time=0
control_change channel=0 control=64 value=0 time=11
control_change channel=0 control=64 value=127 time=41
note_on channel=0 note=57 velocity=0 time=68
note_on channel=0 note=69 velocity=69 time=0
note_on channel=0 note=69 velocity=0 time=120
note_on channel=0 note=55 velocity=79 time=0
control_change channel=0 control=64 value=0 time=11
control_change channel=0 control=64 value=127 time=58
note_on channel=0 note=55 velocity=0 time=51
note_on channel=0 note=67 velocity=69 time=0
note_on channel=0 note=67 velocity=0 time=120
note_on channel=0 note=53 velocity=78 time=0
control_change channel=0 control=64 value=0 time=11
control_change channel=0 control=64 value=127 time=64
note_on channel=0 note=53 velocity=0 time=45
note_on channel=0 note=65 velocity=65 time=0
note_on channel=0 note=65 velocity=0 time=0
note_on channel=0 note=31 velocity=0 time=0
note_on channel=0 note=52 velocity=79 time=0
note_on channel=0 note=36 velocity=87 time=0
control_change channel=0 control=64 value=0 time=15
control_change channel=0 control=64 value=127 time=71
note_on channel=0 note=52 velocity=0 time=34
note_on channel=0 note=64 velocity=69 time=0
note_on channel=0 note=64 velocity=0 time=120
note_on channel=0 note=50 velocity=77 time=0
control_change channel=0 control=64 value=0 time=10
control_change channel=0 control=64 value=127 time=65
note_on channel=0 note=50 velocity=0 time=0
note_on channel=0 note=62 velocity=65 time=0
note_on channel=0 note=62 velocity=0 time=0
note_on channel=0 note=48 velocity=77 time=0
control_change channel=0 control=64 value=0 time=14
control_change channel=0 control=64 value=127 time=49
note_on channel=0 note=48 velocity=0 time=57
note_on channel=0 note=60 velocity=67 time=0
note_on channel=0 note=60 velocity=0 time=120
note_on channel=0 note=52 velocity=75 time=0
control_change channel=0 control=64 value=0 time=11
control_change channel=0 control=64 value=127 time=41
note_on channel=0 note=52 velocity=0 time=68
note_on channel=0 note=64 velocity=66 time=0
note_on channel=0 note=64 velocity=0 time=120
note_on channel=0 note=36 velocity=0 time=0
note_on channel=0 note=65 velocity=79 time=0
note_on channel=0 note=53 velocity=79 time=0
note_on channel=0 note=29 velocity=30 time=0
control_change channel=0 control=64 value=0 time=0
note_on channel=0 note=29 velocity=0 time=120
note_on channel=0 note=41 velocity=26 time=0
control_change channel=0 control=64 value=127 time=7
note_on channel=0 note=41 velocity=0 time=113
note_on channel=0 note=29 velocity=30 time=0
note_on channel=0 note=29 velocity=0 time=120
note_on channel=0 note=41 velocity=25 time=0
note_on channel=0 note=41 velocity=0 time=120
note_on channel=0 note=53 velocity=0 time=0
note_on channel=0 note=65 velocity=0 time=0
note_on channel=0 note=29 velocity=30 time=0
note_on channel=0 note=29 velocity=0 time=120
note_on channel=0 note=41 velocity=26 time=0
note_on channel=0 note=41 velocity=0 time=120
note_on channel=0 note=29 velocity=30 time=0
note_on channel=0 note=29 velocity=0 time=120
note_on channel=0 note=41 velocity=27 time=0
note_on channel=0 note=41 velocity=0 time=120
note_on channel=0 note=60 velocity=40 time=0
note_on channel=0 note=57 velocity=34 time=0
note_on channel=0 note=29 velocity=30 time=0
control_change channel=0 control=64 value=0 time=9
control_change channel=0 control=64 value=127 time=104
note_on channel=0 note=29 velocity=0 time=7
note_on channel=0 note=41 velocity=27 time=0
note_on channel=0 note=41 velocity=0 time=120
note_on channel=0 note=29 velocity=30 time=0
note_on channel=0 note=29 velocity=0 time=120
note_on channel=0 note=41 velocity=25 time=0
note_on channel=0 note=41 velocity=0 time=120
note_on channel=0 note=29 velocity=30 time=0
control_change channel=0 control=64 value=0 time=14
control_change channel=0 control=64 value=127 time=99
note_on channel=0 note=29 velocity=0 time=7
note_on channel=0 note=41 velocity=26 time=0
note_on channel=0 note=41 velocity=0 time=120
note_on channel=0 note=53 velocity=39 time=0
note_on channel=0 note=29 velocity=30 time=0
note_on channel=0 note=29 velocity=0 time=120
note_on channel=0 note=41 velocity=26 time=0
note_on channel=0 note=41 velocity=0 time=120
note_on channel=0 note=53 velocity=0 time=0
note_on channel=0 note=57 velocity=0 time=0
note_on channel=0 note=60 velocity=0 time=0
note_on channel=0 note=61 velocity=46 time=0
note_on channel=0 note=58 velocity=39 time=0
note_on channel=0 note=29 velocity=30 time=0
control_change channel=0 control=64 value=0 time=6
control_change channel=0 control=64 value=127 time=86
note_on channel=0 note=29 velocity=0 time=28
note_on channel=0 note=41 velocity=26 time=0
note_on channel=0 note=41 velocity=0 time=120
note_on channel=0 note=29 velocity=30 time=0
note_on channel=0 note=29 velocity=0 time=120
note_on channel=0 note=41 velocity=25 time=0
note_on channel=0 note=41 velocity=0 time=120
note_on channel=0 note=29 velocity=30 time=0
control_change channel=0 control=64 value=0 time=7
control_change channel=0 control=64 value=127 time=92
note_on channel=0 note=29 velocity=0 time=21
note_on channel=0 note=41 velocity=26 time=0
note_on channel=0 note=41 velocity=0 time=120
note_on channel=0 note=56 velocity=40 time=0
note_on channel=0 note=29 velocity=30 time=0
note_on channel=0 note=29 velocity=0 time=120
note_on channel=0 note=41 velocity=27 time=0
note_on channel=0 note=41 velocity=0 time=120
note_on channel=0 note=56 velocity=0 time=0
note_on channel=0 note=58 velocity=0 time=0
note_on channel=0 note=61 velocity=0 time=0
note_on channel=0 note=60 velocity=32 time=0
note_on channel=0 note=58 velocity=32 time=0
note_on channel=0 note=54 velocity=45 time=0
note_on channel=0 note=29 velocity=30 time=0
control_change channel=0 control=64 value=0 time=7
control_change channel=0 control=64 value=127 time=85
note_on channel=0 note=29 velocity=0 time=28
note_on channel=0 note=41 velocity=27 time=0
note_on channel=0 note=41 velocity=0 time=120
note_on channel=0 note=54 velocity=0 time=0
note_on channel=0 note=53 velocity=40 time=0
note_on channel=0 note=29 velocity=30 time=0
note_on channel=0 note=29 velocity=0 time=120
note_on channel=0 note=41 velocity=25 time=0
note_on channel=0 note=41 velocity=0 time=120
note_on channel=0 note=53 velocity=0 time=0
note_on channel=0 note=58 velocity=0 time=0
note_on channel=0 note=60 velocity=0 time=0
note_on channel=0 note=60 velocity=33 time=0
note_on channel=0 note=58 velocity=33 time=0
note_on channel=0 note=54 velocity=46 time=0
note_on channel=0 note=29 velocity=30 time=0
control_change channel=0 control=64 value=0 time=24
note_on channel=0 note=29 velocity=0 time=96
note_on channel=0 note=41 velocity=26 time=0
control_change channel=0 control=64 value=127 time=43
note_on channel=0 note=41 velocity=0 time=77
note_on channel=0 note=54 velocity=0 time=0
note_on channel=0 note=52 velocity=40 time=0
note_on channel=0 note=29 velocity=30 time=0
note_on channel=0 note=29 velocity=0 time=120
note_on channel=0 note=41 velocity=26 time=0
note_on channel=0 note=41 velocity=0 time=120
note_on channel=0 note=52 velocity=0 time=0
note_on channel=0 note=58 velocity=0 time=0
note_on channel=0 note=60 velocity=0 time=0
note_on channel=0 note=60 velocity=46 time=0
note_on channel=0 note=57 velocity=39 time=0
note_on channel=0 note=53 velocity=39 time=0
note_on channel=0 note=29 velocity=30 time=0
control_change channel=0 control=64 value=0 time=14
control_change channel=0 control=64 value=127 time=85
note_on channel=0 note=29 velocity=0 time=21
note_on channel=0 note=41 velocity=26 time=0
note_on channel=0 note=41 velocity=0 time=120
note_on channel=0 note=29 velocity=30 time=0
note_on channel=0 note=29 velocity=0 time=120
note_on channel=0 note=41 velocity=25 time=0
note_on channel=0 note=41 velocity=0 time=120
note_on channel=0 note=29 velocity=30 time=0
control_change channel=0 control=64 value=0 time=14
control_change channel=0 control=64 value=127 time=78
note_on channel=0 note=29 velocity=0 time=28
note_on channel=0 note=41 velocity=26 time=0
note_on channel=0 note=41 velocity=0 time=120
note_on channel=0 note=53 velocity=0 time=0
note_on channel=0 note=57 velocity=0 time=0
note_on channel=0 note=60 velocity=0 time=0
note_on channel=0 note=29 velocity=30 time=0
note_on channel=0 note=29 velocity=0 time=120
note_on channel=0 note=41 velocity=27 time=0
note_on channel=0 note=41 velocity=0 time=120
note_on channel=0 note=69 velocity=52 time=0
note_on channel=0 note=60 velocity=52 time=0
note_on channel=0 note=57 velocity=44 time=0
note_on channel=0 note=29 velocity=30 time=0
control_change channel=0 control=64 value=0 time=21
control_change channel=0 control=64 value=127 time=85
note_on channel=0 note=29 velocity=0 time=14
note_on channel=0 note=41 velocity=27 time=0
note_on channel=0 note=41 velocity=0 time=120
note_on channel=0 note=29 velocity=35 time=0
note_on channel=0 note=29 velocity=0 time=120
note_on channel=0 note=41 velocity=29 time=0
note_on channel=0 note=41 velocity=0 time=120
note_on channel=0 note=29 velocity=34 time=0
control_change channel=0 control=64 value=0 time=14
control_change channel=0 control=64 value=127 time=85
note_on channel=0 note=29 velocity=0 time=21
note_on channel=0 note=41 velocity=26 time=0
note_on channel=0 note=41 velocity=0 time=12
note_on channel=0 note=69 velocity=0 time=0
note_on channel=0 note=65 velocity=50 time=0
note_on channel=0 note=29 velocity=35 time=0
note_on channel=0 note=29 velocity=0 time=120
note_on channel=0 note=41 velocity=31 time=0
note_on channel=0 note=41 velocity=0 time=120
note_on channel=0 note=65 velocity=0 time=0
note_on channel=0 note=57 velocity=0 time=0
note_on channel=0 note=60 velocity=0 time=0
note_on channel=0 note=70 velocity=52 time=0
note_on channel=0 note=61 velocity=59 time=0
note_on channel=0 note=58 velocity=50 time=0
note_on channel=0 note=29 velocity=38 time=0
control_change channel=0 control=64 value=0 time=0
control_change channel=0 control=64 value=127 time=78
note_on channel=0 note=29 velocity=0 time=42
note_on channel=0 note=41 velocity=30 time=0
note_on channel=0 note=41 velocity=0 time=120
note_on channel=0 note=29 velocity=34 time=0
note_on channel=0 note=29 velocity=0 time=120
note_on channel=0 note=41 velocity=25 time=0
note_on channel=0 note=41 velocity=0 time=120
note_on channel=0 note=29 velocity=33 time=0
control_change channel=0 control=64 value=0 time=15
note_on channel=0 note=29 velocity=0 time=105
note_on channel=0 note=41 velocity=26 time=0
control_change channel=0 control=64 value=127 time=0
note_on channel=0 note=41 velocity=0 time=120
note_on channel=0 note=70 velocity=0 time=0
note_on channel=0 note=68 velocity=52 time=0
note_on channel=0 note=29 velocity=30 time=0
note_on channel=0 note=29 velocity=0 time=120
note_on channel=0 note=41 velocity=27 time=0
note_on channel=0 note=41 velocity=0 time=120
note_on channel=0 note=68 velocity=0 time=0
note_on channel=0 note=58 velocity=0 time=0
note_on channel=0 note=61 velocity=0 time=0
note_on channel=0 note=61 velocity=41 time=0
note_on channel=0 note=58 velocity=41 time=0
note_on channel=0 note=66 velocity=58 time=0
note_on channel=0 note=29 velocity=30 time=0
control_change channel=0 control=64 value=0 time=16
control_change channel=0 control=64 value=127 time=62
note_on channel=0 note=29 velocity=0 time=42
note_on channel=0 note=41 velocity=27 time=0
note_on channel=0 note=41 velocity=0 time=120
note_on channel=0 note=66 velocity=0 time=0
note_on channel=0 note=65 velocity=52 time=0
note_on channel=0 note=29 velocity=30 time=0
note_on channel=0 note=29 velocity=0 time=120
note_on channel=0 note=41 velocity=25 time=0
note_on channel=0 note=41 velocity=0 time=120
note_on channel=0 note=65 velocity=0 time=0
note_on channel=0 note=58 velocity=0 time=0
note_on channel=0 note=61 velocity=0 time=0
note_on channel=0 note=61 velocity=42 time=0
note_on channel=0 note=58 velocity=42 time=0
note_on channel=0 note=66 velocity=59 time=0
note_on channel=0 note=29 velocity=30 time=0
control_change channel=0 control=64 value=0 time=12
control_change channel=0 control=64 value=127 time=80
note_on channel=0 note=29 velocity=0 time=28
note_on channel=0 note=41 velocity=26 time=0
note_on channel=0 note=41 velocity=0 time=120
note_on channel=0 note=66 velocity=0 time=0
note_on channel=0 note=64 velocity=52 time=0
note_on channel=0 note=29 velocity=30 time=0
note_on channel=0 note=29 velocity=0 time=120
note_on channel=0 note=41 velocity=26 time=0
note_on channel=0 note=41 velocity=0 time=120
note_on channel=0 note=64 velocity=0 time=0
note_on channel=0 note=58 velocity=0 time=0
note_on channel=0 note=61 velocity=0 time=0
note_on channel=0 note=65 velocity=59 time=0
note_on channel=0 note=60 velocity=50 time=0
note_on channel=0 note=57 velocity=50 time=0
note_on channel=0 note=29 velocity=30 time=0
control_change channel=0 control=64 value=0 time=0
note_on channel=0 note=29 velocity=0 time=120
note_on channel=0 note=41 velocity=25 time=0
control_change channel=0 control=64 value=127 time=7
note_on channel=0 note=41 velocity=0 time=113
note_on channel=0 note=29 velocity=29 time=0
note_on channel=0 note=29 velocity=0 time=120
note_on channel=0 note=41 velocity=24 time=0
note_on channel=0 note=41 velocity=0 time=120
note_on channel=0 note=29 velocity=28 time=0
control_change channel=0 control=64 value=0 time=19
control_change channel=0 control=64 value=127 time=66
note_on channel=0 note=29 velocity=0 time=35
note_on channel=0 note=41 velocity=24 time=0
note_on channel=0 note=41 velocity=0 time=120
note_on channel=0 note=57 velocity=0 time=0
note_on channel=0 note=60 velocity=0 time=0
note_on channel=0 note=65 velocity=0 time=0
note_on channel=0 note=29 velocity=28 time=0
note_on channel=0 note=29 velocity=0 time=120
note_on channel=0 note=41 velocity=25 time=0
note_on channel=0 note=41 velocity=0 time=7
note_on channel=0 note=61 velocity=37 time=0
note_on channel=0 note=58 velocity=37 time=0
note_on channel=0 note=67 velocity=53 time=0
note_on channel=0 note=29 velocity=27 time=0
control_change channel=0 control=64 value=0 time=10
control_change channel=0 control=64 value=127 time=78
note_on channel=0 note=29 velocity=0 time=14
note_on channel=0 note=41 velocity=24 time=0
note_on channel=0 note=41 velocity=0 time=120
note_on channel=0 note=67 velocity=0 time=0
note_on channel=0 note=65 velocity=46 time=0
note_on channel=0 note=29 velocity=27 time=0
note_on channel=0 note=29 velocity=0 time=120
note_on channel=0 note=41 velocity=22 time=0
note_on channel=0 note=41 velocity=0 time=120
note_on channel=0 note=65 velocity=0 time=0
note_on channel=0 note=58 velocity=0 time=0
note_on channel=0 note=61 velocity=0 time=0
note_on channel=0 note=61 velocity=36 time=0
note_on channel=0 note=58 velocity=36 time=0
note_on channel=0 note=67 velocity=51 time=0
note_on channel=0 note=29 velocity=26 time=0
control_change channel=0 control=64 value=0 time=1
control_change channel=0 control=64 value=127 time=87
note_on channel=0 note=29 velocity=0 time=14
note_on channel=0 note=41 velocity=22 time=0
note_on channel=0 note=41 velocity=0 time=7
note_on channel=0 note=67 velocity=0 time=0
note_on channel=0 note=64 velocity=44 time=0
note_on channel=0 note=29 velocity=25 time=0
note_on channel=0 note=29 velocity=0 time=120
note_on channel=0 note=41 velocity=22 time=0
note_on channel=0 note=41 velocity=0 time=7
note_on channel=0 note=64 velocity=0 time=0
note_on channel=0 note=58 velocity=0 time=0
note_on channel=0 note=61 velocity=0 time=0
note_on channel=0 note=65 velocity=49 time=0
note_on channel=0 note=60 velocity=42 time=0
note_on channel=0 note=57 velocity=42 time=0
note_on channel=0 note=29 velocity=25 time=0
control_change channel=0 control=64 value=0 time=0
control_change channel=0 control=64 value=127 time=106
note_on channel=0 note=29 velocity=0 time=14
note_on channel=0 note=41 velocity=21 time=0
note_on channel=0 note=41 velocity=0 time=120
note_on channel=0 note=29 velocity=24 time=0
note_on channel=0 note=29 velocity=0 time=120
note_on channel=0 note=41 velocity=20 time=0
note_on channel=0 note=41 velocity=0 time=120
note_on channel=0 note=29 velocity=24 time=0
control_change channel=0 control=64 value=0 time=14
note_on channel=0 note=29 velocity=0 time=106
note_on channel=0 note=41 velocity=20 time=0
control_change channel=0 control=64 value=127 time=0
note_on channel=0 note=41 velocity=0 time=120
note_on channel=0 note=57 velocity=0 time=0
note_on channel=0 note=60 velocity=0 time=0
note_on channel=0 note=65 velocity=0 time=0
note_on channel=0 note=29 velocity=23 time=0
note_on channel=0 note=29 velocity=0 time=120
note_on channel=0 note=41 velocity=20 time=0
note_on channel=0 note=41 velocity=0 time=120
note_on channel=0 note=61 velocity=30 time=0
note_on channel=0 note=58 velocity=30 time=0
note_on channel=0 note=66 velocity=43 time=0
note_on channel=0 note=29 velocity=22 time=0
control_change channel=0 control=64 value=0 time=7
note_on channel=0 note=29 velocity=0 time=99
note_on channel=0 note=41 velocity=20 time=0
control_change channel=0 control=64 value=127 time=0
note_on channel=0 note=41 velocity=0 time=120
note_on channel=0 note=66 velocity=0 time=0
note_on channel=0 note=65 velocity=39 time=0
note_on channel=0 note=29 velocity=22 time=0
note_on channel=0 note=29 velocity=0 time=120
note_on channel=0 note=41 velocity=18 time=0
note_on channel=0 note=41 velocity=0 time=120
note_on channel=0 note=65 velocity=0 time=0
note_on channel=0 note=58 velocity=0 time=0
note_on channel=0 note=61 velocity=0 time=0
note_on channel=0 note=61 velocity=31 time=0
note_on channel=0 note=58 velocity=31 time=0
note_on channel=0 note=66 velocity=44 time=0
note_on channel=0 note=29 velocity=22 time=0
control_change channel=0 control=64 value=0 time=17
note_on channel=0 note=29 velocity=0 time=103
note_on channel=0 note=41 velocity=19 time=0
control_change channel=0 control=64 value=127 time=36
note_on channel=0 note=41 velocity=0 time=84
note_on channel=0 note=66 velocity=0 time=0
note_on channel=0 note=64 velocity=39 time=0
note_on channel=0 note=29 velocity=22 time=0
note_on channel=0 note=29 velocity=0 time=106
note_on channel=0 note=41 velocity=19 time=0
note_on channel=0 note=41 velocity=0 time=120
note_on channel=0 note=64 velocity=0 time=0
note_on channel=0 note=58 velocity=0 time=0
note_on channel=0 note=61 velocity=0 time=0
note_on channel=0 note=53 velocity=74 time=0
note_on channel=0 note=65 velocity=88 time=0
note_on channel=0 note=29 velocity=56 time=0
note_on channel=0 note=41 velocity=66 time=0
control_change channel=0 control=64 value=0 time=0
control_change channel=0 control=64 value=127 time=106
note_on channel=0 note=41 velocity=0 time=0
note_on channel=0 note=53 velocity=0 time=0
note_on channel=0 note=65 velocity=0 time=0
note_on channel=0 note=29 velocity=0 time=0
note_on channel=0 note=55 velocity=67 time=0
note_on channel=0 note=67 velocity=79 time=0
note_on channel=0 note=31 velocity=49 time=0
note_on channel=0 note=43 velocity=59 time=0
control_change channel=0 control=64 value=0 time=14
note_on channel=0 note=43 velocity=0 time=106
note_on channel=0 note=55 velocity=0 time=0
note_on channel=0 note=67 velocity=0 time=0
note_on channel=0 note=31 velocity=0 time=0
note_on channel=0 note=57 velocity=74 time=0
note_on channel=0 note=69 velocity=89 time=0
note_on channel=0 note=33 velocity=56 time=0
note_on channel=0 note=45 velocity=66 time=0
control_change channel=0 control=64 value=127 time=106
note_on channel=0 note=45 velocity=0 time=0
note_on channel=0 note=57 velocity=0 time=0
note_on channel=0 note=69 velocity=0 time=0
note_on channel=0 note=33 velocity=0 time=0
note_on channel=0 note=58 velocity=68 time=0
note_on channel=0 note=70 velocity=81 time=0
note_on channel=0 note=34 velocity=50 time=0
note_on channel=0 note=46 velocity=60 time=0
control_change channel=0 control=64 value=0 time=12
note_on channel=0 note=46 velocity=0 time=108
note_on channel=0 note=58 velocity=0 time=0
note_on channel=0 note=70 velocity=0 time=0
note_on channel=0 note=34 velocity=0 time=0
note_on channel=0 note=60 velocity=77 time=0
note_on channel=0 note=72 velocity=91 time=0
note_on channel=0 note=36 velocity=57 time=0
note_on channel=0 note=48 velocity=68 time=0
control_change channel=0 control=64 value=127 time=62
note_on channel=0 note=48 velocity=0 time=0
note_on channel=0 note=60 velocity=0 time=0
note_on channel=0 note=72 velocity=0 time=0
note_on channel=0 note=36 velocity=0 time=0
note_on channel=0 note=62 velocity=62 time=0
note_on channel=0 note=74 velocity=74 time=0
note_on channel=0 note=38 velocity=47 time=0
note_on channel=0 note=50 velocity=56 time=0
control_change channel=0 control=64 value=0 time=17
note_on channel=0 note=50 velocity=0 time=103
note_on channel=0 note=62 velocity=0 time=0
note_on channel=0 note=74 velocity=0 time=0
note_on channel=0 note=38 velocity=0 time=0
note_on channel=0 note=64 velocity=71 time=0
note_on channel=0 note=76 velocity=84 time=0
note_on channel=0 note=40 velocity=53 time=0
note_on channel=0 note=52 velocity=63 time=0
note_on channel=0 note=52 velocity=0 time=120
note_on channel=0 note=64 velocity=0 time=0
note_on channel=0 note=76 velocity=0 time=0
note_on channel=0 note=40 velocity=0 time=0
note_on channel=0 note=65 velocity=68 time=120
note_on channel=0 note=77 velocity=81 time=0
note_on channel=0 note=41 velocity=50 time=0
note_on channel=0 note=53 velocity=60 time=0
note_on channel=0 note=53 velocity=0 time=120
note_on channel=0 note=65 velocity=0 time=0
note_on channel=0 note=77 velocity=0 time=0
note_on channel=0 note=41 velocity=0 time=0
note_on channel=0 note=67 velocity=74 time=120
note_on channel=0 note=79 velocity=87 time=0
note_on channel=0 note=43 velocity=55 time=0
note_on channel=0 note=55 velocity=65 time=0
note_on channel=0 note=55 velocity=0 time=120
note_on channel=0 note=67 velocity=0 time=0
note_on channel=0 note=79 velocity=0 time=0
note_on channel=0 note=43 velocity=0 time=0
note_on channel=0 note=69 velocity=69 time=0
note_on channel=0 note=81 velocity=83 time=0
note_on channel=0 note=45 velocity=51 time=0
note_on channel=0 note=57 velocity=61 time=0
note_on channel=0 note=57 velocity=0 time=120
note_on channel=0 note=69 velocity=0 time=0
note_on channel=0 note=81 velocity=0 time=0
note_on channel=0 note=45 velocity=0 time=0
note_on channel=0 note=70 velocity=81 time=12
note_on channel=0 note=82 velocity=96 time=0
note_on channel=0 note=46 velocity=61 time=0
note_on channel=0 note=58 velocity=72 time=0
control_change channel=0 control=64 value=127 time=64
note_on channel=0 note=58 velocity=0 time=0
note_on channel=0 note=70 velocity=0 time=0
note_on channel=0 note=82 velocity=0 time=0
note_on channel=0 note=46 velocity=0 time=0
note_on channel=0 note=69 velocity=71 time=0
note_on channel=0 note=81 velocity=84 time=0
note_on channel=0 note=45 velocity=52 time=0
note_on channel=0 note=57 velocity=63 time=0
control_change channel=0 control=64 value=0 time=10
note_on channel=0 note=57 velocity=0 time=110
note_on channel=0 note=69 velocity=0 time=0
note_on channel=0 note=81 velocity=0 time=0
note_on channel=0 note=45 velocity=0 time=0
note_on channel=0 note=67 velocity=78 time=0
note_on channel=0 note=79 velocity=94 time=0
note_on channel=0 note=43 velocity=59 time=0
note_on channel=0 note=55 velocity=69 time=0
control_change channel=0 control=64 value=127 time=134
note_on channel=0 note=55 velocity=0 time=0
note_on channel=0 note=67 velocity=0 time=0
note_on channel=0 note=79 velocity=0 time=0
note_on channel=0 note=43 velocity=0 time=0
note_on channel=0 note=65 velocity=70 time=0
note_on channel=0 note=77 velocity=83 time=0
note_on channel=0 note=41 velocity=51 time=0
note_on channel=0 note=53 velocity=61 time=0
control_change channel=0 control=64 value=0 time=12
note_on channel=0 note=53 velocity=0 time=108
note_on channel=0 note=65 velocity=0 time=0
note_on channel=0 note=77 velocity=0 time=0
note_on channel=0 note=41 velocity=0 time=0
note_on channel=0 note=64 velocity=78 time=0
note_on channel=0 note=76 velocity=92 time=0
note_on channel=0 note=40 velocity=58 time=0
note_on channel=0 note=52 velocity=69 time=0
control_change channel=0 control=64 value=127 time=113
note_on channel=0 note=52 velocity=0 time=0
note_on channel=0 note=64 velocity=0 time=0
note_on channel=0 note=76 velocity=0 time=0
note_on channel=0 note=40 velocity=0 time=0
note_on channel=0 note=62 velocity=62 time=0
note_on channel=0 note=74 velocity=74 time=0
note_on channel=0 note=38 velocity=47 time=0
note_on channel=0 note=50 velocity=56 time=0
control_change channel=0 control=64 value=0 time=14
note_on channel=0 note=50 velocity=0 time=106
note_on channel=0 note=62 velocity=0 time=0
note_on channel=0 note=74 velocity=0 time=0
note_on channel=0 note=38 velocity=0 time=0
note_on channel=0 note=60 velocity=70 time=0
note_on channel=0 note=72 velocity=83 time=0
note_on channel=0 note=36 velocity=52 time=0
note_on channel=0 note=48 velocity=62 time=0
note_on channel=0 note=48 velocity=0 time=120
note_on channel=0 note=60 velocity=0 time=0
note_on channel=0 note=72 velocity=0 time=0
note_on channel=0 note=36 velocity=0 time=0
note_on channel=0 note=58 velocity=66 time=120
note_on channel=0 note=70 velocity=78 time=0
note_on channel=0 note=34 velocity=49 time=0
note_on channel=0 note=46 velocity=58 time=0
note_on channel=0 note=46 velocity=0 time=120
note_on channel=0 note=58 velocity=0 time=0
note_on channel=0 note=70 velocity=0 time=0
note_on channel=0 note=34 velocity=0 time=0
note_on channel=0 note=57 velocity=70 time=120
note_on channel=0 note=69 velocity=83 time=0
note_on channel=0 note=33 velocity=52 time=0
note_on channel=0 note=45 velocity=62 time=0
note_on channel=0 note=45 velocity=0 time=120
note_on channel=0 note=57 velocity=0 time=0
note_on channel=0 note=69 velocity=0 time=0
note_on channel=0 note=33 velocity=0 time=0
note_on channel=0 note=55 velocity=64 time=0
note_on channel=0 note=67 velocity=77 time=0
note_on channel=0 note=31 velocity=48 time=0
note_on channel=0 note=43 velocity=57 time=0
note_on channel=0 note=43 velocity=0 time=120
note_on channel=0 note=55 velocity=0 time=0
note_on channel=0 note=67 velocity=0 time=0
note_on channel=0 note=31 velocity=0 time=0
note_on channel=0 note=53 velocity=78 time=120
note_on channel=0 note=65 velocity=90 time=0
note_on channel=0 note=29 velocity=58 time=0
note_on channel=0 note=41 velocity=69 time=0
note_on channel=0 note=41 velocity=0 time=120
note_on channel=0 note=53 velocity=0 time=0
note_on channel=0 note=65 velocity=0 time=0
note_on channel=0 note=29 velocity=0 time=0
note_on channel=0 note=64 velocity=53 time=0
note_on channel=0 note=48 velocity=34 time=0
note_on channel=0 note=55 velocity=34 time=0
note_on channel=0 note=58 velocity=41 time=0
control_change channel=0 control=64 value=127 time=46
note_on channel=0 note=58 velocity=0 time=74
note_on channel=0 note=64 velocity=0 time=0
note_on channel=0 note=48 velocity=0 time=0
note_on channel=0 note=55 velocity=0 time=0
note_on channel=0 note=63 velocity=45 time=0
note_on channel=0 note=63 velocity=0 time=120
note_on channel=0 note=64 velocity=53 time=0
control_change channel=0 control=64 value=0 time=29
note_on channel=0 note=64 velocity=0 time=0
note_on channel=0 note=60 velocity=43 time=0
note_on channel=0 note=60 velocity=0 time=0
note_on channel=0 note=65 velocity=57 time=0
note_on channel=0 note=53 velocity=41 time=0
note_on channel=0 note=57 velocity=49 time=0
note_on channel=0 note=57 velocity=0 time=120
note_on channel=0 note=53 velocity=0 time=0
note_on channel=0 note=65 velocity=0 time=0
note_on channel=0 note=76 velocity=53 time=0
note_on channel=0 note=60 velocity=34 time=0
note_on channel=0 note=67 velocity=34 time=0
note_on channel=0 note=70 velocity=41 time=0
control_change channel=0 control=64 value=127 time=46
note_on channel=0 note=70 velocity=0 time=74
note_on channel=0 note=76 velocity=0 time=0
note_on channel=0 note=60 velocity=0 time=0
note_on channel=0 note=67 velocity=0 time=0
note_on channel=0 note=75 velocity=45 time=0
note_on channel=0 note=75 velocity=0 time=120
note_on channel=0 note=76 velocity=53 time=0
control_change channel=0 control=64 value=0 time=29
note_on channel=0 note=76 velocity=0 time=0
note_on channel=0 note=72 velocity=43 time=0
note_on channel=0 note=72 velocity=0 time=0
note_on channel=0 note=77 velocity=57 time=0
note_on channel=0 note=65 velocity=41 time=0
note_on channel=0 note=69 velocity=49 time=0
note_on channel=0 note=69 velocity=0 time=120
note_on channel=0 note=65 velocity=0 time=0
note_on channel=0 note=77 velocity=0 time=0
note_on channel=0 note=88 velocity=91 time=0
note_on channel=0 note=84 velocity=77 time=0
note_on channel=0 note=82 velocity=77 time=0
note_on channel=0 note=79 velocity=77 time=0
note_on channel=0 note=76 velocity=77 time=0
note_on channel=0 note=48 velocity=56 time=0
note_on channel=0 note=60 velocity=67 time=0
control_change channel=0 control=64 value=127 time=0
note_on channel=0 note=60 velocity=0 time=480
note_on channel=0 note=76 velocity=0 time=0
note_on channel=0 note=84 velocity=0 time=0
note_on channel=0 note=82 velocity=0 time=0
note_on channel=0 note=88 velocity=0 time=0
note_on channel=0 note=48 velocity=0 time=0
note_on channel=0 note=79 velocity=0 time=0
control_change channel=0 control=64 value=0 time=120
note_on channel=0 note=89 velocity=97 time=360
note_on channel=0 note=84 velocity=82 time=0
note_on channel=0 note=81 velocity=82 time=0
note_on channel=0 note=77 velocity=82 time=0
note_on channel=0 note=41 velocity=64 time=0
note_on channel=0 note=53 velocity=76 time=0
control_change channel=0 control=64 value=127 time=342
note_on channel=0 note=53 velocity=0 time=120
note_on channel=0 note=84 velocity=0 time=0
note_on channel=0 note=81 velocity=0 time=0
note_on channel=0 note=89 velocity=0 time=0
note_on channel=0 note=41 velocity=0 time=0
note_on channel=0 note=77 velocity=0 time=0
control_change channel=0 control=64 value=0 time=360
note_on channel=0 note=60 velocity=42 time=0
note_on channel=0 note=60 velocity=0 time=120
note_on channel=0 note=59 velocity=40 time=0
note_on channel=0 note=59 velocity=0 time=120
note_on channel=0 note=60 velocity=45 time=0
note_on channel=0 note=60 velocity=0 time=0
note_on channel=0 note=57 velocity=39 time=0
note_on channel=0 note=57 velocity=0 time=0
note_on channel=0 note=65 velocity=50 time=0
note_on channel=0 note=65 velocity=0 time=120
note_on channel=0 note=48 velocity=42 time=0
note_on channel=0 note=48 velocity=0 time=120
note_on channel=0 note=47 velocity=40 time=0
note_on channel=0 note=47 velocity=0 time=120
note_on channel=0 note=48 velocity=45 time=0
note_on channel=0 note=48 velocity=0 time=0
note_on channel=0 note=45 velocity=39 time=0
note_on channel=0 note=45 velocity=0 time=0
note_on channel=0 note=53 velocity=50 time=0
note_on channel=0 note=53 velocity=0 time=120
note_on channel=0 note=60 velocity=42 time=0
note_on channel=0 note=60 velocity=0 time=120
note_on channel=0 note=59 velocity=40 time=0
note_on channel=0 note=59 velocity=0 time=120
note_on channel=0 note=60 velocity=45 time=0
note_on channel=0 note=60 velocity=0 time=0
note_on channel=0 note=57 velocity=39 time=0
note_on channel=0 note=57 velocity=0 time=0
note_on channel=0 note=65 velocity=50 time=0
note_on channel=0 note=65 velocity=0 time=120
note_on channel=0 note=48 velocity=42 time=0
note_on channel=0 note=48 velocity=0 time=120
note_on channel=0 note=47 velocity=40 time=0
note_on channel=0 note=47 velocity=0 time=120
note_on channel=0 note=48 velocity=45 time=0
note_on channel=0 note=48 velocity=0 time=0
note_on channel=0 note=45 velocity=39 time=0
note_on channel=0 note=45 velocity=0 time=0
note_on channel=0 note=53 velocity=50 time=0
note_on channel=0 note=53 velocity=0 time=120
note_on channel=0 note=60 velocity=70 time=0
note_on channel=0 note=60 velocity=0 time=120
note_on channel=0 note=59 velocity=66 time=0
note_on channel=0 note=59 velocity=0 time=120
note_on channel=0 note=60 velocity=77 time=0
note_on channel=0 note=60 velocity=0 time=0
note_on channel=0 note=57 velocity=71 time=0
note_on channel=0 note=57 velocity=0 time=0
note_on channel=0 note=65 velocity=92 time=0
note_on channel=0 note=41 velocity=56 time=0
note_on channel=0 note=53 velocity=66 time=0
control_change channel=0 control=64 value=0 time=0
control_change channel=0 control=64 value=127 time=106
note_on channel=0 note=53 velocity=0 time=0
note_on channel=0 note=41 velocity=0 time=0
note_on channel=0 note=65 velocity=0 time=0
note_on channel=0 note=67 velocity=82 time=0
note_on channel=0 note=43 velocity=49 time=0
note_on channel=0 note=55 velocity=59 time=0
control_change channel=0 control=64 value=0 time=14
note_on channel=0 note=55 velocity=0 time=106
note_on channel=0 note=43 velocity=0 time=0
note_on channel=0 note=67 velocity=0 time=0
note_on channel=0 note=69 velocity=93 time=0
note_on channel=0 note=45 velocity=56 time=0
note_on channel=0 note=57 velocity=66 time=0
control_change channel=0 control=64 value=127 time=106
note_on channel=0 note=57 velocity=0 time=0
note_on channel=0 note=45 velocity=0 time=0
note_on channel=0 note=69 velocity=0 time=0
note_on channel=0 note=70 velocity=86 time=0
note_on channel=0 note=46 velocity=50 time=0
note_on channel=0 note=58 velocity=60 time=0
control_change channel=0 control=64 value=0 time=12
note_on channel=0 note=58 velocity=0 time=108
note_on channel=0 note=46 velocity=0 time=0
note_on channel=0 note=70 velocity=0 time=0
note_on channel=0 note=72 velocity=97 time=0
note_on channel=0 note=48 velocity=57 time=0
note_on channel=0 note=60 velocity=68 time=0
control_change channel=0 control=64 value=127 time=80
note_on channel=0 note=60 velocity=0 time=0
note_on channel=0 note=48 velocity=0 time=0
note_on channel=0 note=72 velocity=0 time=0
note_on channel=0 note=74 velocity=82 time=0
note_on channel=0 note=50 velocity=47 time=0
note_on channel=0 note=62 velocity=56 time=0
control_change channel=0 control=64 value=0 time=17
note_on channel=0 note=62 velocity=0 time=103
note_on channel=0 note=50 velocity=0 time=0
note_on channel=0 note=74 velocity=0 time=0
note_on channel=0 note=75 velocity=90 time=0
note_on channel=0 note=51 velocity=53 time=0
note_on channel=0 note=63 velocity=63 time=0
note_on channel=0 note=63 velocity=0 time=120
note_on channel=0 note=51 velocity=0 time=0
note_on channel=0 note=75 velocity=0 time=0
note_on channel=0 note=74 velocity=85 time=120
note_on channel=0 note=50 velocity=50 time=0
note_on channel=0 note=62 velocity=60 time=0
note_on channel=0 note=62 velocity=0 time=120
note_on channel=0 note=50 velocity=0 time=0
note_on channel=0 note=74 velocity=0 time=0
note_on channel=0 note=72 velocity=93 time=120
note_on channel=0 note=48 velocity=55 time=0
note_on channel=0 note=60 velocity=65 time=0
note_on channel=0 note=60 velocity=0 time=120
note_on channel=0 note=48 velocity=0 time=0
note_on channel=0 note=72 velocity=0 time=0
note_on channel=0 note=74 velocity=86 time=0
note_on channel=0 note=50 velocity=51 time=0
note_on channel=0 note=62 velocity=61 time=0
note_on channel=0 note=62 velocity=0 time=102
note_on channel=0 note=50 velocity=0 time=0
note_on channel=0 note=74 velocity=0 time=0
note_on channel=0 note=75 velocity=97 time=0
note_on channel=0 note=51 velocity=57 time=0
note_on channel=0 note=63 velocity=68 time=0
control_change channel=0 control=64 value=127 time=80
note_on channel=0 note=63 velocity=0 time=0
note_on channel=0 note=51 velocity=0 time=0
note_on channel=0 note=75 velocity=0 time=0
note_on channel=0 note=74 velocity=77 time=0
note_on channel=0 note=50 velocity=44 time=0
note_on channel=0 note=62 velocity=53 time=0
control_change channel=0 control=64 value=0 time=17
note_on channel=0 note=62 velocity=0 time=103
note_on channel=0 note=50 velocity=0 time=0
note_on channel=0 note=74 velocity=0 time=0
note_on channel=0 note=72 velocity=85 time=0
note_on channel=0 note=48 velocity=50 time=0
note_on channel=0 note=60 velocity=59 time=0
note_on channel=0 note=60 velocity=0 time=120
note_on channel=0 note=48 velocity=0 time=0
note_on channel=0 note=72 velocity=0 time=0
note_on channel=0 note=70 velocity=80 time=120
note_on channel=0 note=46 velocity=47 time=0
note_on channel=0 note=58 velocity=57 time=0
note_on channel=0 note=58 velocity=0 time=120
note_on channel=0 note=46 velocity=0 time=0
note_on channel=0 note=70 velocity=0 time=0
note_on channel=0 note=69 velocity=88 time=120
note_on channel=0 note=45 velocity=52 time=0
note_on channel=0 note=57 velocity=61 time=0
note_on channel=0 note=57 velocity=0 time=120
note_on channel=0 note=45 velocity=0 time=0
note_on channel=0 note=69 velocity=0 time=0
note_on channel=0 note=70 velocity=81 time=0
note_on channel=0 note=46 velocity=48 time=0
note_on channel=0 note=58 velocity=57 time=0
note_on channel=0 note=58 velocity=0 time=120
note_on channel=0 note=46 velocity=0 time=0
note_on channel=0 note=70 velocity=0 time=0
note_on channel=0 note=72 velocity=92 time=0
note_on channel=0 note=48 velocity=54 time=0
note_on channel=0 note=60 velocity=64 time=0
control_change channel=0 control=64 value=127 time=80
note_on channel=0 note=60 velocity=0 time=0
note_on channel=0 note=48 velocity=0 time=0
note_on channel=0 note=72 velocity=0 time=0
note_on channel=0 note=70 velocity=76 time=0
note_on channel=0 note=46 velocity=43 time=0
note_on channel=0 note=58 velocity=52 time=0
control_change channel=0 control=64 value=0 time=17
note_on channel=0 note=58 velocity=0 time=103
note_on channel=0 note=46 velocity=0 time=0
note_on channel=0 note=70 velocity=0 time=0
note_on channel=0 note=69 velocity=81 time=0
note_on channel=0 note=45 velocity=47 time=0
note_on channel=0 note=57 velocity=56 time=0
note_on channel=0 note=57 velocity=0 time=120
note_on channel=0 note=45 velocity=0 time=0
note_on channel=0 note=69 velocity=0 time=0
note_on channel=0 note=67 velocity=74 time=120
note_on channel=0 note=43 velocity=44 time=0
note_on channel=0 note=55 velocity=52 time=0
note_on channel=0 note=55 velocity=0 time=120
note_on channel=0 note=43 velocity=0 time=0
note_on channel=0 note=67 velocity=0 time=0
note_on channel=0 note=66 velocity=79 time=120
note_on channel=0 note=42 velocity=46 time=0
note_on channel=0 note=54 velocity=55 time=0
note_on channel=0 note=54 velocity=0 time=120
note_on channel=0 note=42 velocity=0 time=0
note_on channel=0 note=66 velocity=0 time=0
note_on channel=0 note=64 velocity=71 time=0
note_on channel=0 note=40 velocity=42 time=0
note_on channel=0 note=52 velocity=50 time=0
note_on channel=0 note=52 velocity=0 time=120
note_on channel=0 note=40 velocity=0 time=0
note_on channel=0 note=64 velocity=0 time=0
note_on channel=0 note=62 velocity=75 time=0
note_on channel=0 note=38 velocity=30 time=0
control_change channel=0 control=64 value=0 time=0
note_on channel=0 note=38 velocity=0 time=120
note_on channel=0 note=50 velocity=26 time=0
control_change channel=0 control=64 value=127 time=78
note_on channel=0 note=50 velocity=0 time=42
note_on channel=0 note=38 velocity=30 time=0
note_on channel=0 note=38 velocity=0 time=120
note_on channel=0 note=50 velocity=25 time=0
note_on channel=0 note=50 velocity=0 time=120
note_on channel=0 note=38 velocity=30 time=0
note_on channel=0 note=38 velocity=0 time=120
note_on channel=0 note=50 velocity=26 time=0
note_on channel=0 note=50 velocity=0 time=120
note_on channel=0 note=38 velocity=30 time=0
note_on channel=0 note=38 velocity=0 time=120
note_on channel=0 note=50 velocity=27 time=0
note_on channel=0 note=50 velocity=0 time=120
note_on channel=0 note=62 velocity=0 time=0
note_on channel=0 note=57 velocity=40 time=0
note_on channel=0 note=60 velocity=40 time=0
note_on channel=0 note=66 velocity=34 time=0
note_on channel=0 note=38 velocity=30 time=0
control_change channel=0 control=64 value=0 time=10
control_change channel=0 control=64 value=127 time=103
note_on channel=0 note=38 velocity=0 time=7
note_on channel=0 note=50 velocity=27 time=0
note_on channel=0 note=50 velocity=0 time=120
note_on channel=0 note=38 velocity=30 time=0
note_on channel=0 note=38 velocity=0 time=120
note_on channel=0 note=50 velocity=25 time=0
note_on channel=0 note=50 velocity=0 time=120
note_on channel=0 note=38 velocity=30 time=0
note_on channel=0 note=38 velocity=0 time=120
note_on channel=0 note=50 velocity=26 time=0
note_on channel=0 note=50 velocity=0 time=120
note_on channel=0 note=66 velocity=0 time=0
note_on channel=0 note=62 velocity=39 time=0
note_on channel=0 note=38 velocity=30 time=0
note_on channel=0 note=38 velocity=0 time=120
note_on channel=0 note=50 velocity=26 time=0
note_on channel=0 note=50 velocity=0 time=120
note_on channel=0 note=62 velocity=0 time=0
note_on channel=0 note=60 velocity=0 time=0
note_on channel=0 note=57 velocity=0 time=0
note_on channel=0 note=55 velocity=39 time=0
note_on channel=0 note=67 velocity=46 time=0
note_on channel=0 note=58 velocity=39 time=0
note_on channel=0 note=38 velocity=30 time=0
control_change channel=0 control=64 value=0 time=0
control_change channel=0 control=64 value=127 time=92
note_on channel=0 note=38 velocity=0 time=28
note_on channel=0 note=50 velocity=26 time=0
note_on channel=0 note=50 velocity=0 time=120
note_on channel=0 note=38 velocity=30 time=0
note_on channel=0 note=38 velocity=0 time=120
note_on channel=0 note=50 velocity=25 time=0
note_on channel=0 note=50 velocity=0 time=120
note_on channel=0 note=38 velocity=30 time=0
note_on channel=0 note=38 velocity=0 time=120
note_on channel=0 note=50 velocity=26 time=0
note_on channel=0 note=50 velocity=0 time=120
note_on channel=0 note=67 velocity=0 time=0
note_on channel=0 note=65 velocity=40 time=0
note_on channel=0 note=38 velocity=30 time=0
note_on channel=0 note=38 velocity=0 time=120
note_on channel=0 note=50 velocity=27 time=0
note_on channel=0 note=50 velocity=0 time=120
note_on channel=0 note=65 velocity=0 time=0
note_on channel=0 note=58 velocity=0 time=0
note_on channel=0 note=55 velocity=0 time=0
note_on channel=0 note=58 velocity=32 time=0
note_on channel=0 note=55 velocity=32 time=0
note_on channel=0 note=63 velocity=45 time=0
note_on channel=0 note=38 velocity=30 time=0
control_change channel=0 control=64 value=0 time=6
control_change channel=0 control=64 value=127 time=107
note_on channel=0 note=38 velocity=0 time=7
note_on channel=0 note=50 velocity=27 time=0
note_on channel=0 note=50 velocity=0 time=120
note_on channel=0 note=63 velocity=0 time=0
note_on channel=0 note=62 velocity=40 time=0
note_on channel=0 note=38 velocity=30 time=0
note_on channel=0 note=38 velocity=0 time=120
note_on channel=0 note=50 velocity=25 time=0
note_on channel=0 note=50 velocity=0 time=120
note_on channel=0 note=62 velocity=0 time=0
note_on channel=0 note=55 velocity=0 time=0
note_on channel=0 note=58 velocity=0 time=0
note_on channel=0 note=58 velocity=33 time=0
note_on channel=0 note=55 velocity=33 time=0
note_on channel=0 note=63 velocity=46 time=0
note_on channel=0 note=38 velocity=30 time=0
control_change channel=0 control=64 value=0 time=14
note_on channel=0 note=38 velocity=0 time=106
note_on channel=0 note=50 velocity=26 time=0
control_change channel=0 control=64 value=127 time=43
note_on channel=0 note=50 velocity=0 time=77
note_on channel=0 note=63 velocity=0 time=0
note_on channel=0 note=61 velocity=40 time=0
note_on channel=0 note=38 velocity=30 time=0
note_on channel=0 note=38 velocity=0 time=120
note_on channel=0 note=50 velocity=26 time=0
note_on channel=0 note=50 velocity=0 time=120
note_on channel=0 note=61 velocity=0 time=0
note_on channel=0 note=55 velocity=0 time=0
note_on channel=0 note=58 velocity=0 time=0
note_on channel=0 note=62 velocity=46 time=0
note_on channel=0 note=57 velocity=39 time=0
note_on channel=0 note=54 velocity=39 time=0
note_on channel=0 note=38 velocity=30 time=0
control_change channel=0 control=64 value=0 time=14
control_change channel=0 control=64 value=127 time=85
note_on channel=0 note=38 velocity=0 time=21
note_on channel=0 note=50 velocity=26 time=0
note_on channel=0 note=50 velocity=0 time=120
note_on channel=0 note=38 velocity=30 time=0
note_on channel=0 note=38 velocity=0 time=120
note_on channel=0 note=50 velocity=25 time=0
note_on channel=0 note=50 velocity=0 time=120
note_on channel=0 note=38 velocity=30 time=0
note_on channel=0 note=38 velocity=0 time=120
note_on channel=0 note=50 velocity=26 time=0
note_on channel=0 note=50 velocity=0 time=120
note_on channel=0 note=54 velocity=0 time=0
note_on channel=0 note=57 velocity=0 time=0
note_on channel=0 note=62 velocity=0 time=0
note_on channel=0 note=38 velocity=30 time=0
note_on channel=0 note=38 velocity=0 time=120
note_on channel=0 note=50 velocity=27 time=0
note_on channel=0 note=50 velocity=0 time=120
note_on channel=0 note=78 velocity=41 time=0
note_on channel=0 note=69 velocity=40 time=0
note_on channel=0 note=72 velocity=40 time=0
note_on channel=0 note=38 velocity=30 time=0
control_change channel=0 control=64 value=0 time=14
control_change channel=0 control=64 value=127 time=99
note_on channel=0 note=38 velocity=0 time=7
note_on channel=0 note=50 velocity=27 time=0
note_on channel=0 note=50 velocity=0 time=120
note_on channel=0 note=38 velocity=30 time=0
note_on channel=0 note=38 velocity=0 time=120
note_on channel=0 note=50 velocity=25 time=0
note_on channel=0 note=50 velocity=0 time=120
note_on channel=0 note=38 velocity=30 time=0
note_on channel=0 note=38 velocity=0 time=120
note_on channel=0 note=50 velocity=26 time=0
note_on channel=0 note=50 velocity=0 time=120
note_on channel=0 note=78 velocity=0 time=0
note_on channel=0 note=74 velocity=42 time=0
note_on channel=0 note=38 velocity=30 time=0
note_on channel=0 note=38 velocity=0 time=120
note_on channel=0 note=50 velocity=26 time=0
note_on channel=0 note=50 velocity=0 time=120
note_on channel=0 note=74 velocity=0 time=0
note_on channel=0 note=72 velocity=0 time=0
note_on channel=0 note=69 velocity=0 time=0
note_on channel=0 note=79 velocity=53 time=0
note_on channel=0 note=67 velocity=39 time=0
note_on channel=0 note=70 velocity=39 time=0
note_on channel=0 note=38 velocity=30 time=0
control_change channel=0 control=64 value=0 time=0
control_change channel=0 control=64 value=127 time=92
note_on channel=0 note=38 velocity=0 time=28
note_on channel=0 note=50 velocity=26 time=0
note_on channel=0 note=50 velocity=0 time=120
note_on channel=0 note=38 velocity=30 time=0
note_on channel=0 note=38 velocity=0 time=120
note_on channel=0 note=50 velocity=25 time=0
note_on channel=0 note=50 velocity=0 time=120
note_on channel=0 note=38 velocity=30 time=0
note_on channel=0 note=38 velocity=0 time=120
note_on channel=0 note=50 velocity=26 time=0
note_on channel=0 note=50 velocity=0 time=120
note_on channel=0 note=79 velocity=0 time=0
note_on channel=0 note=77 velocity=44 time=0
note_on channel=0 note=38 velocity=30 time=0
note_on channel=0 note=38 velocity=0 time=120
note_on channel=0 note=50 velocity=27 time=0
note_on channel=0 note=50 velocity=0 time=120
note_on channel=0 note=77 velocity=0 time=0
note_on channel=0 note=70 velocity=0 time=0
note_on channel=0 note=67 velocity=0 time=0
note_on channel=0 note=70 velocity=32 time=0
note_on channel=0 note=67 velocity=32 time=0
note_on channel=0 note=75 velocity=49 time=0
note_on channel=0 note=38 velocity=30 time=0
control_change channel=0 control=64 value=0 time=18
note_on channel=0 note=38 velocity=0 time=102
note_on channel=0 note=50 velocity=27 time=0
control_change channel=0 control=64 value=127 time=7
note_on channel=0 note=50 velocity=0 time=113
note_on channel=0 note=75 velocity=0 time=0
note_on channel=0 note=74 velocity=44 time=0
note_on channel=0 note=38 velocity=30 time=0
note_on channel=0 note=38 velocity=0 time=120
note_on channel=0 note=50 velocity=25 time=0
note_on channel=0 note=50 velocity=0 time=42
note_on channel=0 note=74 velocity=0 time=0
note_on channel=0 note=67 velocity=0 time=0
note_on channel=0 note=70 velocity=0 time=0
note_on channel=0 note=70 velocity=33 time=0
note_on channel=0 note=67 velocity=33 time=0
note_on channel=0 note=75 velocity=50 time=0
note_on channel=0 note=38 velocity=30 time=0
control_change channel=0 control=64 value=0 time=14
note_on channel=0 note=38 velocity=0 time=106
note_on channel=0 note=50 velocity=26 time=0
control_change channel=0 control=64 value=127 time=43
note_on channel=0 note=50 velocity=0 time=77
note_on channel=0 note=75 velocity=0 time=0
note_on channel=0 note=73 velocity=44 time=0
note_on channel=0 note=38 velocity=30 time=0
note_on channel=0 note=38 velocity=0 time=120
note_on channel=0 note=50 velocity=26 time=0
note_on channel=0 note=50 velocity=0 time=120
note_on channel=0 note=73 velocity=0 time=0
note_on channel=0 note=67 velocity=0 time=0
note_on channel=0 note=70 velocity=0 time=0
note_on channel=0 note=74 velocity=50 time=0
note_on channel=0 note=69 velocity=39 time=0
note_on channel=0 note=66 velocity=39 time=0
note_on channel=0 note=38 velocity=30 time=0
control_change channel=0 control=64 value=0 time=14
control_change channel=0 control=64 value=127 time=85
note_on channel=0 note=38 velocity=0 time=21
note_on channel=0 note=50 velocity=26 time=0
note_on channel=0 note=50 velocity=0 time=120
note_on channel=0 note=38 velocity=30 time=0
note_on channel=0 note=38 velocity=0 time=120
note_on channel=0 note=50 velocity=25 time=0
note_on channel=0 note=50 velocity=0 time=120
note_on channel=0 note=38 velocity=30 time=0
note_on channel=0 note=38 velocity=0 time=120
note_on channel=0 note=50 velocity=26 time=0
note_on channel=0 note=50 velocity=0 time=120
note_on channel=0 note=66 velocity=0 time=0
note_on channel=0 note=69 velocity=0 time=0
note_on channel=0 note=74 velocity=0 time=0
note_on channel=0 note=38 velocity=30 time=0
note_on channel=0 note=38 velocity=0 time=120
note_on channel=0 note=50 velocity=27 time=0
note_on channel=0 note=50 velocity=0 time=120
note_on channel=0 note=70 velocity=32 time=0
note_on channel=0 note=67 velocity=32 time=0
note_on channel=0 note=76 velocity=49 time=0
note_on channel=0 note=38 velocity=30 time=0
control_change channel=0 control=64 value=0 time=24
control_change channel=0 control=64 value=127 time=89
note_on channel=0 note=38 velocity=0 time=7
note_on channel=0 note=50 velocity=27 time=0
note_on channel=0 note=50 velocity=0 time=120
note_on channel=0 note=76 velocity=0 time=0
note_on channel=0 note=74 velocity=44 time=0
note_on channel=0 note=38 velocity=30 time=0
note_on channel=0 note=38 velocity=0 time=120
note_on channel=0 note=50 velocity=25 time=0
note_on channel=0 note=50 velocity=0 time=120
note_on channel=0 note=74 velocity=0 time=0
note_on channel=0 note=67 velocity=0 time=0
note_on channel=0 note=70 velocity=0 time=0
note_on channel=0 note=70 velocity=33 time=0
note_on channel=0 note=67 velocity=33 time=0
note_on channel=0 note=76 velocity=50 time=0
note_on channel=0 note=38 velocity=30 time=0
control_change channel=0 control=64 value=0 time=14
note_on channel=0 note=38 velocity=0 time=106
note_on channel=0 note=50 velocity=26 time=0
control_change channel=0 control=64 value=127 time=43
note_on channel=0 note=50 velocity=0 time=77
note_on channel=0 note=76 velocity=0 time=0
note_on channel=0 note=73 velocity=44 time=0
note_on channel=0 note=38 velocity=30 time=0
note_on channel=0 note=38 velocity=0 time=120
note_on channel=0 note=50 velocity=26 time=0
note_on channel=0 note=50 velocity=0 time=120
note_on channel=0 note=73 velocity=0 time=0
note_on channel=0 note=67 velocity=0 time=0
note_on channel=0 note=70 velocity=0 time=0
note_on channel=0 note=74 velocity=50 time=0
note_on channel=0 note=69 velocity=39 time=0
note_on channel=0 note=66 velocity=39 time=0
note_on channel=0 note=38 velocity=30 time=0
control_change channel=0 control=64 value=0 time=14
control_change channel=0 control=64 value=127 time=85
note_on channel=0 note=38 velocity=0 time=21
note_on channel=0 note=50 velocity=26 time=0
note_on channel=0 note=50 velocity=0 time=120
note_on channel=0 note=38 velocity=30 time=0
note_on channel=0 note=38 velocity=0 time=120
note_on channel=0 note=50 velocity=25 time=0
note_on channel=0 note=50 velocity=0 time=120
note_on channel=0 note=38 velocity=30 time=0
note_on channel=0 note=38 velocity=0 time=120
note_on channel=0 note=50 velocity=26 time=0
note_on channel=0 note=50 velocity=0 time=120
note_on channel=0 note=66 velocity=0 time=0
note_on channel=0 note=69 velocity=0 time=0
note_on channel=0 note=74 velocity=0 time=0
note_on channel=0 note=38 velocity=30 time=0
note_on channel=0 note=38 velocity=0 time=120
note_on channel=0 note=50 velocity=27 time=0
note_on channel=0 note=50 velocity=0 time=120
note_on channel=0 note=70 velocity=25 time=0
note_on channel=0 note=67 velocity=25 time=0
note_on channel=0 note=75 velocity=39 time=0
note_on channel=0 note=38 velocity=24 time=0
control_change channel=0 control=64 value=0 time=14
control_change channel=0 control=64 value=127 time=92
note_on channel=0 note=38 velocity=0 time=14
note_on channel=0 note=50 velocity=21 time=0
note_on channel=0 note=50 velocity=0 time=120
note_on channel=0 note=75 velocity=0 time=0
note_on channel=0 note=74 velocity=35 time=0
note_on channel=0 note=38 velocity=24 time=0
note_on channel=0 note=38 velocity=0 time=120
note_on channel=0 note=50 velocity=20 time=0
note_on channel=0 note=50 velocity=0 time=120
note_on channel=0 note=74 velocity=0 time=0
note_on channel=0 note=67 velocity=0 time=0
note_on channel=0 note=70 velocity=0 time=0
note_on channel=0 note=70 velocity=26 time=0
note_on channel=0 note=67 velocity=26 time=0
note_on channel=0 note=75 velocity=40 time=0
note_on channel=0 note=38 velocity=24 time=0
control_change channel=0 control=64 value=0 time=14
note_on channel=0 note=38 velocity=0 time=106
note_on channel=0 note=50 velocity=20 time=0
control_change channel=0 control=64 value=127 time=43
note_on channel=0 note=50 velocity=0 time=77
note_on channel=0 note=75 velocity=0 time=0
note_on channel=0 note=73 velocity=35 time=0
note_on channel=0 note=38 velocity=24 time=0
note_on channel=0 note=38 velocity=0 time=120
note_on channel=0 note=50 velocity=20 time=0
note_on channel=0 note=50 velocity=0 time=21
note_on channel=0 note=73 velocity=0 time=0
note_on channel=0 note=67 velocity=0 time=0
note_on channel=0 note=70 velocity=0 time=0
note_on channel=0 note=74 velocity=50 time=0
note_on channel=0 note=69 velocity=39 time=0
note_on channel=0 note=66 velocity=39 time=0
note_on channel=0 note=38 velocity=97 time=0
control_change channel=0 control=64 value=0 time=0
control_change channel=0 control=64 value=127 time=111
note_on channel=0 note=38 velocity=0 time=0
note_on channel=0 note=74 velocity=0 time=0
note_on channel=0 note=69 velocity=0 time=0
note_on channel=0 note=66 velocity=0 time=0
note_on channel=0 note=40 velocity=70 time=0
control_change channel=0 control=64 value=0 time=14
note_on channel=0 note=40 velocity=0 time=106
note_on channel=0 note=42 velocity=68 time=0
note_on channel=0 note=50 velocity=81 time=0
control_change channel=0 control=64 value=127 time=106
note_on channel=0 note=50 velocity=0 time=0
note_on channel=0 note=42 velocity=0 time=0
note_on channel=0 note=43 velocity=57 time=0
note_on channel=0 note=52 velocity=68 time=0
control_change channel=0 control=64 value=0 time=12
note_on channel=0 note=52 velocity=0 time=108
note_on channel=0 note=43 velocity=0 time=0
note_on channel=0 note=48 velocity=64 time=0
note_on channel=0 note=45 velocity=64 time=0
note_on channel=0 note=54 velocity=76 time=0
control_change channel=0 control=64 value=127 time=71
note_on channel=0 note=75 velocity=86 time=400
note_on channel=0 note=75 velocity=0 time=120
note_on channel=0 note=48 velocity=0 time=0
note_on channel=0 note=45 velocity=0 time=0
note_on channel=0 note=54 velocity=0 time=0
note_on channel=0 note=74 velocity=75 time=0
note_on channel=0 note=50 velocity=54 time=0
note_on channel=0 note=46 velocity=54 time=0
note_on channel=0 note=55 velocity=64 time=0
control_change channel=0 control=64 value=0 time=17
note_on channel=0 note=55 velocity=0 time=103
note_on channel=0 note=74 velocity=0 time=0
note_on channel=0 note=50 velocity=0 time=0
note_on channel=0 note=46 velocity=0 time=0
note_on channel=0 note=72 velocity=84 time=0
note_on channel=0 note=54 velocity=61 time=0
note_on channel=0 note=57 velocity=72 time=0
note_on channel=0 note=57 velocity=0 time=120
note_on channel=0 note=54 velocity=0 time=0
note_on channel=0 note=72 velocity=0 time=0
note_on channel=0 note=70 velocity=74 time=120
note_on channel=0 note=55 velocity=56 time=0
note_on channel=0 note=58 velocity=66 time=0
note_on channel=0 note=58 velocity=0 time=120
note_on channel=0 note=55 velocity=0 time=0
note_on channel=0 note=70 velocity=0 time=0
note_on channel=0 note=69 velocity=84 time=120
note_on channel=0 note=57 velocity=62 time=0
note_on channel=0 note=60 velocity=73 time=0
note_on channel=0 note=60 velocity=0 time=120
note_on channel=0 note=57 velocity=0 time=0
note_on channel=0 note=69 velocity=0 time=0
note_on channel=0 note=67 velocity=75 time=0
note_on channel=0 note=58 velocity=56 time=0
note_on channel=0 note=62 velocity=66 time=0
note_on channel=0 note=62 velocity=0 time=120
note_on channel=0 note=58 velocity=0 time=0
note_on channel=0 note=67 velocity=0 time=0
note_on channel=0 note=66 velocity=84 time=0
note_on channel=0 note=60 velocity=64 time=0
note_on channel=0 note=63 velocity=76 time=0
note_on channel=0 note=63 velocity=0 time=120
note_on channel=0 note=60 velocity=0 time=0
note_on channel=0 note=66 velocity=0 time=0
note_on channel=0 note=81 velocity=61 time=360
control_change channel=0 control=64 value=127 time=97
note_on channel=0 note=81 velocity=0 time=23
note_on channel=0 note=80 velocity=50 time=0
note_on channel=0 note=80 velocity=0 time=120
note_on channel=0 note=81 velocity=54 time=0
note_on channel=0 note=81 velocity=0 time=0
note_on channel=0 note=78 velocity=50 time=0
note_on channel=0 note=78 velocity=0 time=0
note_on channel=0 note=84 velocity=61 time=0
control_change channel=0 control=64 value=0 time=15
control_change channel=0 control=64 value=127 time=88
note_on channel=0 note=84 velocity=0 time=17
note_on channel=0 note=83 velocity=50 time=0
note_on channel=0 note=83 velocity=0 time=120
note_on channel=0 note=84 velocity=54 time=0
note_on channel=0 note=84 velocity=0 time=0
note_on channel=0 note=81 velocity=50 time=0
note_on channel=0 note=81 velocity=0 time=0
note_on channel=0 note=87 velocity=63 time=0
control_change channel=0 control=64 value=0 time=12
control_change channel=0 control=64 value=127 time=91
note_on channel=0 note=87 velocity=0 time=17
note_on channel=0 note=86 velocity=50 time=0
note_on channel=0 note=86 velocity=0 time=120
note_on channel=0 note=84 velocity=57 time=0
note_on channel=0 note=84 velocity=0 time=120
note_on channel=0 note=82 velocity=50 time=0
note_on channel=0 note=82 velocity=0 time=0
note_on channel=0 note=81 velocity=58 time=0
control_change channel=0 control=64 value=0 time=17
control_change channel=0 control=64 value=127 time=58
note_on channel=0 note=81 velocity=0 time=45
note_on channel=0 note=82 velocity=50 time=0
note_on channel=0 note=82 velocity=0 time=120
note_on channel=0 note=84 velocity=59 time=0
note_on channel=0 note=84 velocity=0 time=120
note_on channel=0 note=82 velocity=49 time=0
note_on channel=0 note=82 velocity=0 time=120
note_on channel=0 note=81 velocity=58 time=0
control_change channel=0 control=64 value=0 time=13
control_change channel=0 control=64 value=127 time=67
note_on channel=0 note=81 velocity=0 time=40
note_on channel=0 note=79 velocity=50 time=0
note_on channel=0 note=79 velocity=0 time=120
note_on channel=0 note=78 velocity=55 time=0
note_on channel=0 note=78 velocity=0 time=0
note_on channel=0 note=79 velocity=50 time=0
note_on channel=0 note=79 velocity=0 time=0
note_on channel=0 note=81 velocity=60 time=0
control_change channel=0 control=64 value=0 time=8
control_change channel=0 control=64 value=127 time=44
note_on channel=0 note=81 velocity=0 time=31
note_on channel=0 note=79 velocity=47 time=0
note_on channel=0 note=79 velocity=0 time=7
note_on channel=0 note=78 velocity=53 time=0
note_on channel=0 note=78 velocity=0 time=120
note_on channel=0 note=75 velocity=46 time=0
note_on channel=0 note=75 velocity=0 time=103
note_on channel=0 note=74 velocity=64 time=0
control_change channel=0 control=64 value=0 time=4
control_change channel=0 control=64 value=127 time=34
note_on channel=0 note=74 velocity=0 time=45
note_on channel=0 note=72 velocity=51 time=0
note_on channel=0 note=72 velocity=0 time=55
note_on channel=0 note=71 velocity=57 time=0
note_on channel=0 note=71 velocity=0 time=31
note_on channel=0 note=72 velocity=52 time=0
note_on channel=0 note=72 velocity=0 time=0
note_on channel=0 note=71 velocity=72 time=0
note_on channel=0 note=43 velocity=97 time=0
control_change channel=0 control=64 value=0 time=0
control_change channel=0 control=64 value=0 time=0
control_change channel=0 control=64 value=127 time=81
note_on channel=0 note=71 velocity=0 time=360
note_on channel=0 note=43 velocity=0 time=0
note_on channel=0 note=45 velocity=70 time=0
control_change channel=0 control=64 value=0 time=14
note_on channel=0 note=45 velocity=0 time=106
note_on channel=0 note=47 velocity=68 time=0
note_on channel=0 note=55 velocity=81 time=0
control_change channel=0 control=64 value=127 time=106
note_on channel=0 note=55 velocity=0 time=0
note_on channel=0 note=47 velocity=0 time=0
note_on channel=0 note=48 velocity=57 time=0
note_on channel=0 note=57 velocity=68 time=0
control_change channel=0 control=64 value=0 time=12
note_on channel=0 note=57 velocity=0 time=108
note_on channel=0 note=48 velocity=0 time=0
note_on channel=0 note=53 velocity=64 time=0
note_on channel=0 note=50 velocity=64 time=0
note_on channel=0 note=59 velocity=76 time=0
control_change channel=0 control=64 value=127 time=80
note_on channel=0 note=80 velocity=81 time=400
note_on channel=0 note=80 velocity=0 time=120
note_on channel=0 note=53 velocity=0 time=0
note_on channel=0 note=50 velocity=0 time=0
note_on channel=0 note=59 velocity=0 time=0
note_on channel=0 note=79 velocity=75 time=0
note_on channel=0 note=55 velocity=54 time=0
note_on channel=0 note=51 velocity=54 time=0
note_on channel=0 note=60 velocity=64 time=0
control_change channel=0 control=64 value=0 time=17
note_on channel=0 note=60 velocity=0 time=103
note_on channel=0 note=79 velocity=0 time=0
note_on channel=0 note=55 velocity=0 time=0
note_on channel=0 note=51 velocity=0 time=0
note_on channel=0 note=77 velocity=84 time=0
note_on channel=0 note=59 velocity=61 time=0
note_on channel=0 note=62 velocity=72 time=0
note_on channel=0 note=62 velocity=0 time=120
note_on channel=0 note=59 velocity=0 time=0
note_on channel=0 note=77 velocity=0 time=0
note_on channel=0 note=75 velocity=74 time=120
note_on channel=0 note=60 velocity=56 time=0
note_on channel=0 note=63 velocity=66 time=0
note_on channel=0 note=63 velocity=0 time=120
note_on channel=0 note=60 velocity=0 time=0
note_on channel=0 note=75 velocity=0 time=0
note_on channel=0 note=74 velocity=84 time=120
note_on channel=0 note=62 velocity=62 time=0
note_on channel=0 note=65 velocity=73 time=0
note_on channel=0 note=65 velocity=0 time=120
note_on channel=0 note=62 velocity=0 time=0
note_on channel=0 note=74 velocity=0 time=0
note_on channel=0 note=72 velocity=75 time=0
note_on channel=0 note=63 velocity=56 time=0
note_on channel=0 note=67 velocity=66 time=0
note_on channel=0 note=67 velocity=0 time=120
note_on channel=0 note=63 velocity=0 time=0
note_on channel=0 note=72 velocity=0 time=0
note_on channel=0 note=71 velocity=84 time=0
note_on channel=0 note=65 velocity=64 time=0
note_on channel=0 note=68 velocity=76 time=0
note_on channel=0 note=68 velocity=0 time=120
note_on channel=0 note=65 velocity=0 time=0
note_on channel=0 note=71 velocity=0 time=0
note_on channel=0 note=74 velocity=61 time=360
control_change channel=0 control=64 value=127 time=97
note_on channel=0 note=74 velocity=0 time=23
note_on channel=0 note=73 velocity=50 time=0
note_on channel=0 note=73 velocity=0 time=120
note_on channel=0 note=74 velocity=54 time=0
note_on channel=0 note=74 velocity=0 time=0
note_on channel=0 note=71 velocity=50 time=0
note_on channel=0 note=71 velocity=0 time=0
note_on channel=0 note=77 velocity=61 time=0
control_change channel=0 control=64 value=0 time=15
control_change channel=0 control=64 value=127 time=88
note_on channel=0 note=77 velocity=0 time=17
note_on channel=0 note=76 velocity=50 time=0
note_on channel=0 note=76 velocity=0 time=120
note_on channel=0 note=77 velocity=54 time=0
note_on channel=0 note=77 velocity=0 time=0
note_on channel=0 note=74 velocity=50 time=0
note_on channel=0 note=74 velocity=0 time=0
note_on channel=0 note=80 velocity=63 time=0
control_change channel=0 control=64 value=0 time=12
control_change channel=0 control=64 value=127 time=91
note_on channel=0 note=80 velocity=0 time=17
note_on channel=0 note=79 velocity=50 time=0
note_on channel=0 note=79 velocity=0 time=120
note_on channel=0 note=77 velocity=57 time=0
note_on channel=0 note=77 velocity=0 time=120
note_on channel=0 note=75 velocity=50 time=0
note_on channel=0 note=75 velocity=0 time=0
note_on channel=0 note=74 velocity=58 time=0
control_change channel=0 control=64 value=0 time=17
control_change channel=0 control=64 value=127 time=58
note_on channel=0 note=74 velocity=0 time=45
note_on channel=0 note=75 velocity=50 time=0
note_on channel=0 note=75 velocity=0 time=120
note_on channel=0 note=77 velocity=59 time=0
note_on channel=0 note=77 velocity=0 time=120
note_on channel=0 note=75 velocity=49 time=0
note_on channel=0 note=75 velocity=0 time=120
note_on channel=0 note=74 velocity=62 time=0
control_change channel=0 control=64 value=0 time=13
control_change channel=0 control=64 value=127 time=67
note_on channel=0 note=74 velocity=0 time=40
note_on channel=0 note=72 velocity=50 time=0
note_on channel=0 note=72 velocity=0 time=120
note_on channel=0 note=71 velocity=55 time=0
note_on channel=0 note=71 velocity=0 time=0
note_on channel=0 note=72 velocity=50 time=0
note_on channel=0 note=72 velocity=0 time=0
note_on channel=0 note=74 velocity=62 time=0
control_change channel=0 control=64 value=0 time=8
control_change channel=0 control=64 value=127 time=44
note_on channel=0 note=74 velocity=0 time=31
note_on channel=0 note=72 velocity=51 time=0
note_on channel=0 note=72 velocity=0 time=7
note_on channel=0 note=71 velocity=55 time=0
note_on channel=0 note=71 velocity=0 time=120
note_on channel=0 note=68 velocity=46 time=0
note_on channel=0 note=68 velocity=0 time=103
note_on channel=0 note=67 velocity=65 time=0
control_change channel=0 control=64 value=0 time=4
control_change channel=0 control=64 value=127 time=34
note_on channel=0 note=67 velocity=0 time=45
note_on channel=0 note=65 velocity=47 time=0
note_on channel=0 note=65 velocity=0 time=55
note_on channel=0 note=64 velocity=55 time=0
note_on channel=0 note=64 velocity=0 time=31
note_on channel=0 note=65 velocity=50 time=0
note_on channel=0 note=65 velocity=0 time=103
note_on channel=0 note=64 velocity=71 time=0
note_on channel=0 note=36 velocity=97 time=0
control_change channel=0 control=64 value=0 time=0
control_change channel=0 control=64 value=0 time=0
control_change channel=0 control=64 value=127 time=111
note_on channel=0 note=64 velocity=0 time=360
note_on channel=0 note=36 velocity=0 time=0
note_on channel=0 note=38 velocity=70 time=0
control_change channel=0 control=64 value=0 time=14
note_on channel=0 note=38 velocity=0 time=106
note_on channel=0 note=40 velocity=68 time=0
note_on channel=0 note=48 velocity=81 time=0
control_change channel=0 control=64 value=127 time=106
note_on channel=0 note=48 velocity=0 time=0
note_on channel=0 note=40 velocity=0 time=0
note_on channel=0 note=41 velocity=57 time=0
note_on channel=0 note=50 velocity=68 time=0
control_change channel=0 control=64 value=0 time=12
note_on channel=0 note=50 velocity=0 time=108
note_on channel=0 note=41 velocity=0 time=0
note_on channel=0 note=46 velocity=64 time=0
note_on channel=0 note=43 velocity=64 time=0
note_on channel=0 note=52 velocity=76 time=0
control_change channel=0 control=64 value=127 time=80
note_on channel=0 note=73 velocity=86 time=400
note_on channel=0 note=73 velocity=0 time=120
note_on channel=0 note=46 velocity=0 time=0
note_on channel=0 note=43 velocity=0 time=0
note_on channel=0 note=52 velocity=0 time=0
note_on channel=0 note=72 velocity=75 time=0
note_on channel=0 note=48 velocity=54 time=0
note_on channel=0 note=44 velocity=54 time=0
note_on channel=0 note=53 velocity=64 time=0
control_change channel=0 control=64 value=0 time=17
note_on channel=0 note=53 velocity=0 time=103
note_on channel=0 note=72 velocity=0 time=0
note_on channel=0 note=48 velocity=0 time=0
note_on channel=0 note=44 velocity=0 time=0
note_on channel=0 note=70 velocity=84 time=0
note_on channel=0 note=52 velocity=61 time=0
note_on channel=0 note=55 velocity=72 time=0
note_on channel=0 note=55 velocity=0 time=120
note_on channel=0 note=52 velocity=0 time=0
note_on channel=0 note=70 velocity=0 time=0
note_on channel=0 note=68 velocity=74 time=120
note_on channel=0 note=53 velocity=56 time=0
note_on channel=0 note=56 velocity=66 time=0
note_on channel=0 note=56 velocity=0 time=120
note_on channel=0 note=53 velocity=0 time=0
note_on channel=0 note=68 velocity=0 time=0
note_on channel=0 note=67 velocity=84 time=120
note_on channel=0 note=55 velocity=62 time=0
note_on channel=0 note=58 velocity=73 time=0
note_on channel=0 note=58 velocity=0 time=120
note_on channel=0 note=55 velocity=0 time=0
note_on channel=0 note=67 velocity=0 time=0
note_on channel=0 note=65 velocity=75 time=0
note_on channel=0 note=56 velocity=56 time=0
note_on channel=0 note=60 velocity=66 time=0
note_on channel=0 note=60 velocity=0 time=120
note_on channel=0 note=56 velocity=0 time=0
note_on channel=0 note=65 velocity=0 time=0
note_on channel=0 note=64 velocity=84 time=0
note_on channel=0 note=58 velocity=64 time=0
note_on channel=0 note=61 velocity=76 time=0
note_on channel=0 note=61 velocity=0 time=120
note_on channel=0 note=58 velocity=0 time=0
note_on channel=0 note=64 velocity=0 time=0
note_on channel=0 note=79 velocity=67 time=360
control_change channel=0 control=64 value=127 time=97
note_on channel=0 note=79 velocity=0 time=23
note_on channel=0 note=78 velocity=55 time=0
note_on channel=0 note=78 velocity=0 time=120
note_on channel=0 note=79 velocity=59 time=0
note_on channel=0 note=79 velocity=0 time=0
note_on channel=0 note=76 velocity=55 time=0
note_on channel=0 note=76 velocity=0 time=0
note_on channel=0 note=82 velocity=67 time=0
control_change channel=0 control=64 value=0 time=15
control_change channel=0 control=64 value=127 time=88
note_on channel=0 note=82 velocity=0 time=17
note_on channel=0 note=81 velocity=55 time=0
note_on channel=0 note=81 velocity=0 time=120
note_on channel=0 note=82 velocity=59 time=0
note_on channel=0 note=82 velocity=0 time=0
note_on channel=0 note=79 velocity=55 time=0
note_on channel=0 note=79 velocity=0 time=0
note_on channel=0 note=85 velocity=69 time=0
control_change channel=0 control=64 value=0 time=12
control_change channel=0 control=64 value=127 time=91
note_on channel=0 note=85 velocity=0 time=17
note_on channel=0 note=84 velocity=55 time=0
note_on channel=0 note=84 velocity=0 time=120
note_on channel=0 note=85 velocity=62 time=0
note_on channel=0 note=85 velocity=0 time=120
note_on channel=0 note=84 velocity=55 time=0
note_on channel=0 note=84 velocity=0 time=0
note_on channel=0 note=85 velocity=73 time=0
note_on channel=0 note=46 velocity=76 time=0
control_change channel=0 control=64 value=0 time=17
control_change channel=0 control=64 value=127 time=58
note_on channel=0 note=85 velocity=0 time=45
note_on channel=0 note=82 velocity=55 time=0
note_on channel=0 note=82 velocity=0 time=120
note_on channel=0 note=79 velocity=64 time=0
note_on channel=0 note=79 velocity=0 time=120
note_on channel=0 note=76 velocity=53 time=0
note_on channel=0 note=76 velocity=0 time=120
note_on channel=0 note=82 velocity=71 time=0
note_on channel=0 note=49 velocity=67 time=0
note_on channel=0 note=82 velocity=0 time=120
note_on channel=0 note=79 velocity=55 time=0
note_on channel=0 note=79 velocity=0 time=120
note_on channel=0 note=76 velocity=64 time=0
note_on channel=0 note=76 velocity=0 time=0
note_on channel=0 note=73 velocity=55 time=0
note_on channel=0 note=73 velocity=0 time=0
note_on channel=0 note=79 velocity=71 time=0
note_on channel=0 note=52 velocity=67 time=0
note_on channel=0 note=79 velocity=0 time=31
note_on channel=0 note=76 velocity=51 time=0
note_on channel=0 note=76 velocity=0 time=120
note_on channel=0 note=73 velocity=63 time=0
note_on channel=0 note=73 velocity=0 time=120
note_on channel=0 note=70 velocity=50 time=0
note_on channel=0 note=70 velocity=0 time=120
note_on channel=0 note=76 velocity=69 time=0
note_on channel=0 note=55 velocity=67 time=0
note_on channel=0 note=76 velocity=0 time=120
note_on channel=0 note=73 velocity=51 time=0
note_on channel=0 note=73 velocity=0 time=120
note_on channel=0 note=70 velocity=60 time=0
note_on channel=0 note=70 velocity=0 time=0
note_on channel=0 note=67 velocity=50 time=0
note_on channel=0 note=67 velocity=0 time=0
note_on channel=0 note=55 velocity=0 time=0
note_on channel=0 note=46 velocity=0 time=0
note_on channel=0 note=49 velocity=0 time=0
note_on channel=0 note=52 velocity=0 time=0
note_on channel=0 note=44 velocity=76 time=0
control_change channel=0 control=64 value=0 time=0
control_change channel=0 control=64 value=127 time=166
note_on channel=0 note=77 velocity=67 time=0
note_on channel=0 note=48 velocity=67 time=0
note_on channel=0 note=77 velocity=0 time=120
note_on channel=0 note=76 velocity=55 time=0
note_on channel=0 note=76 velocity=0 time=120
note_on channel=0 note=77 velocity=59 time=0
note_on channel=0 note=77 velocity=0 time=0
note_on channel=0 note=72 velocity=55 time=0
note_on channel=0 note=72 velocity=0 time=0
note_on channel=0 note=80 velocity=67 time=0
note_on channel=0 note=53 velocity=67 time=0
control_change channel=0 control=64 value=0 time=15
control_change channel=0 control=64 value=127 time=88
note_on channel=0 note=80 velocity=0 time=17
note_on channel=0 note=79 velocity=55 time=0
note_on channel=0 note=79 velocity=0 time=120
note_on channel=0 note=80 velocity=59 time=0
note_on channel=0 note=80 velocity=0 time=0
note_on channel=0 note=77 velocity=55 time=0
note_on channel=0 note=77 velocity=0 time=0
note_on channel=0 note=84 velocity=69 time=0
note_on channel=0 note=56 velocity=67 time=0
control_change channel=0 control=64 value=0 time=12
control_change channel=0 control=64 value=127 time=91
note_on channel=0 note=84 velocity=0 time=17
note_on channel=0 note=83 velocity=55 time=0
note_on channel=0 note=83 velocity=0 time=120
note_on channel=0 note=84 velocity=62 time=0
note_on channel=0 note=84 velocity=0 time=120
note_on channel=0 note=80 velocity=55 time=0
note_on channel=0 note=80 velocity=0 time=0
note_on channel=0 note=56 velocity=0 time=0
note_on channel=0 note=44 velocity=0 time=0
note_on channel=0 note=48 velocity=0 time=0
note_on channel=0 note=53 velocity=0 time=0
note_on channel=0 note=89 velocity=73 time=0
note_on channel=0 note=44 velocity=76 time=0
control_change channel=0 control=64 value=0 time=17
control_change channel=0 control=64 value=127 time=58
note_on channel=0 note=89 velocity=0 time=45
note_on channel=0 note=84 velocity=55 time=0
note_on channel=0 note=84 velocity=0 time=120
note_on channel=0 note=80 velocity=64 time=0
note_on channel=0 note=80 velocity=0 time=120
note_on channel=0 note=77 velocity=53 time=0
note_on channel=0 note=77 velocity=0 time=120
note_on channel=0 note=84 velocity=71 time=0
note_on channel=0 note=48 velocity=67 time=0
note_on channel=0 note=84 velocity=0 time=120
note_on channel=0 note=80 velocity=55 time=0
note_on channel=0 note=80 velocity=0 time=120
note_on channel=0 note=77 velocity=64 time=0
note_on channel=0 note=77 velocity=0 time=0
note_on channel=0 note=72 velocity=55 time=0
note_on channel=0 note=72 velocity=0 time=0
note_on channel=0 note=80 velocity=71 time=0
note_on channel=0 note=53 velocity=67 time=0
note_on channel=0 note=80 velocity=0 time=31
note_on channel=0 note=77 velocity=51 time=0
note_on channel=0 note=77 velocity=0 time=120
note_on channel=0 note=72 velocity=63 time=0
note_on channel=0 note=72 velocity=0 time=120
note_on channel=0 note=68 velocity=50 time=0
note_on channel=0 note=68 velocity=0 time=120
note_on channel=0 note=77 velocity=69 time=0
note_on channel=0 note=56 velocity=67 time=0
note_on channel=0 note=77 velocity=0 time=120
note_on channel=0 note=72 velocity=51 time=0
note_on channel=0 note=72 velocity=0 time=120
note_on channel=0 note=68 velocity=60 time=0
note_on channel=0 note=68 velocity=0 time=0
note_on channel=0 note=65 velocity=50 time=0
note_on channel=0 note=65 velocity=0 time=0
note_on channel=0 note=56 velocity=0 time=0
note_on channel=0 note=44 velocity=0 time=0
note_on channel=0 note=48 velocity=0 time=0
note_on channel=0 note=53 velocity=0 time=0
note_on channel=0 note=43 velocity=76 time=0
control_change channel=0 control=64 value=0 time=0
control_change channel=0 control=64 value=127 time=195
note_on channel=0 note=77 velocity=67 time=0
note_on channel=0 note=50 velocity=67 time=0
note_on channel=0 note=77 velocity=0 time=120
note_on channel=0 note=76 velocity=55 time=0
note_on channel=0 note=76 velocity=0 time=120
note_on channel=0 note=77 velocity=59 time=0
note_on channel=0 note=77 velocity=0 time=0
note_on channel=0 note=74 velocity=55 time=0
note_on channel=0 note=74 velocity=0 time=0
note_on channel=0 note=83 velocity=67 time=0
note_on channel=0 note=53 velocity=67 time=0
control_change channel=0 control=64 value=0 time=15
control_change channel=0 control=64 value=127 time=88
note_on channel=0 note=83 velocity=0 time=17
note_on channel=0 note=82 velocity=55 time=0
note_on channel=0 note=82 velocity=0 time=120
note_on channel=0 note=83 velocity=59 time=0
note_on channel=0 note=83 velocity=0 time=0
note_on channel=0 note=77 velocity=55 time=0
note_on channel=0 note=77 velocity=0 time=0
note_on channel=0 note=86 velocity=69 time=0
note_on channel=0 note=55 velocity=67 time=0
control_change channel=0 control=64 value=0 time=12
control_change channel=0 control=64 value=127 time=91
note_on channel=0 note=86 velocity=0 time=17
note_on channel=0 note=85 velocity=55 time=0
note_on channel=0 note=85 velocity=0 time=120
note_on channel=0 note=86 velocity=62 time=0
note_on channel=0 note=86 velocity=0 time=120
note_on channel=0 note=83 velocity=55 time=0
note_on channel=0 note=83 velocity=0 time=0
note_on channel=0 note=55 velocity=0 time=0
note_on channel=0 note=43 velocity=0 time=0
note_on channel=0 note=50 velocity=0 time=0
note_on channel=0 note=53 velocity=0 time=0
note_on channel=0 note=89 velocity=73 time=0
note_on channel=0 note=43 velocity=76 time=0
control_change channel=0 control=64 value=0 time=17
control_change channel=0 control=64 value=127 time=75
note_on channel=0 note=89 velocity=0 time=28
note_on channel=0 note=86 velocity=55 time=0
note_on channel=0 note=86 velocity=0 time=120
note_on channel=0 note=83 velocity=64 time=0
note_on channel=0 note=83 velocity=0 time=120
note_on channel=0 note=77 velocity=53 time=0
note_on channel=0 note=77 velocity=0 time=120
note_on channel=0 note=86 velocity=71 time=0
note_on channel=0 note=47 velocity=67 time=0
note_on channel=0 note=86 velocity=0 time=120
note_on channel=0 note=83 velocity=55 time=0
note_on channel=0 note=83 velocity=0 time=120
note_on channel=0 note=77 velocity=64 time=0
note_on channel=0 note=77 velocity=0 time=0
note_on channel=0 note=74 velocity=55 time=0
note_on channel=0 note=74 velocity=0 time=0
note_on channel=0 note=83 velocity=71 time=0
note_on channel=0 note=50 velocity=67 time=0
note_on channel=0 note=83 velocity=0 time=31
note_on channel=0 note=77 velocity=51 time=0
note_on channel=0 note=77 velocity=0 time=120
note_on channel=0 note=74 velocity=63 time=0
note_on channel=0 note=74 velocity=0 time=120
note_on channel=0 note=71 velocity=50 time=0
note_on channel=0 note=71 velocity=0 time=120
note_on channel=0 note=77 velocity=69 time=0
note_on channel=0 note=55 velocity=67 time=0
note_on channel=0 note=77 velocity=0 time=120
note_on channel=0 note=74 velocity=51 time=0
note_on channel=0 note=74 velocity=0 time=120
note_on channel=0 note=71 velocity=60 time=0
note_on channel=0 note=71 velocity=0 time=0
note_on channel=0 note=65 velocity=50 time=0
note_on channel=0 note=65 velocity=0 time=0
note_on channel=0 note=55 velocity=0 time=0
note_on channel=0 note=43 velocity=0 time=0
note_on channel=0 note=47 velocity=0 time=0
note_on channel=0 note=50 velocity=0 time=0
note_on channel=0 note=43 velocity=76 time=0
control_change channel=0 control=64 value=0 time=0
control_change channel=0 control=64 value=127 time=172
note_on channel=0 note=75 velocity=67 time=0
note_on channel=0 note=48 velocity=67 time=0
note_on channel=0 note=75 velocity=0 time=120
note_on channel=0 note=74 velocity=54 time=0
note_on channel=0 note=74 velocity=0 time=120
note_on channel=0 note=75 velocity=58 time=0
note_on channel=0 note=75 velocity=0 time=0
note_on channel=0 note=72 velocity=54 time=0
note_on channel=0 note=72 velocity=0 time=0
note_on channel=0 note=79 velocity=66 time=0
note_on channel=0 note=51 velocity=66 time=0
control_change channel=0 control=64 value=0 time=15
control_change channel=0 control=64 value=127 time=88
note_on channel=0 note=79 velocity=0 time=17
note_on channel=0 note=78 velocity=53 time=0
note_on channel=0 note=78 velocity=0 time=120
note_on channel=0 note=79 velocity=57 time=0
note_on channel=0 note=79 velocity=0 time=0
note_on channel=0 note=75 velocity=53 time=0
note_on channel=0 note=75 velocity=0 time=0
note_on channel=0 note=84 velocity=67 time=0
note_on channel=0 note=55 velocity=65 time=0
control_change channel=0 control=64 value=0 time=12
control_change channel=0 control=64 value=127 time=91
note_on channel=0 note=84 velocity=0 time=17
note_on channel=0 note=83 velocity=53 time=0
note_on channel=0 note=83 velocity=0 time=120
note_on channel=0 note=84 velocity=60 time=0
note_on channel=0 note=84 velocity=0 time=120
note_on channel=0 note=79 velocity=53 time=0
note_on channel=0 note=79 velocity=0 time=0
note_on channel=0 note=55 velocity=0 time=0
note_on channel=0 note=43 velocity=0 time=0
note_on channel=0 note=48 velocity=0 time=0
note_on channel=0 note=51 velocity=0 time=0
note_on channel=0 note=87 velocity=70 time=0
note_on channel=0 note=42 velocity=73 time=0
control_change channel=0 control=64 value=0 time=17
control_change channel=0 control=64 value=127 time=58
note_on channel=0 note=87 velocity=0 time=45
note_on channel=0 note=84 velocity=53 time=0
note_on channel=0 note=84 velocity=0 time=120
note_on channel=0 note=81 velocity=61 time=0
note_on channel=0 note=81 velocity=0 time=120
note_on channel=0 note=75 velocity=50 time=0
note_on channel=0 note=75 velocity=0 time=120
note_on channel=0 note=84 velocity=68 time=0
note_on channel=0 note=48 velocity=64 time=0
note_on channel=0 note=84 velocity=0 time=120
note_on channel=0 note=81 velocity=52 time=0
note_on channel=0 note=81 velocity=0 time=120
note_on channel=0 note=75 velocity=60 time=0
note_on channel=0 note=75 velocity=0 time=0
note_on channel=0 note=72 velocity=52 time=0
note_on channel=0 note=72 velocity=0 time=0
note_on channel=0 note=81 velocity=67 time=0
note_on channel=0 note=51 velocity=63 time=0
note_on channel=0 note=81 velocity=0 time=31
note_on channel=0 note=75 velocity=48 time=0
note_on channel=0 note=75 velocity=0 time=120
note_on channel=0 note=72 velocity=59 time=0
note_on channel=0 note=72 velocity=0 time=120
note_on channel=0 note=69 velocity=47 time=0
note_on channel=0 note=69 velocity=0 time=120
note_on channel=0 note=75 velocity=64 time=0
note_on channel=0 note=54 velocity=62 time=0
note_on channel=0 note=75 velocity=0 time=120
note_on channel=0 note=72 velocity=47 time=0
note_on channel=0 note=72 velocity=0 time=120
note_on channel=0 note=69 velocity=55 time=0
note_on channel=0 note=69 velocity=0 time=0
note_on channel=0 note=63 velocity=46 time=0
note_on channel=0 note=63 velocity=0 time=0
note_on channel=0 note=54 velocity=0 time=0
note_on channel=0 note=42 velocity=0 time=0
note_on channel=0 note=48 velocity=0 time=0
note_on channel=0 note=51 velocity=0 time=0
note_on channel=0 note=41 velocity=70 time=0
control_change channel=0 control=64 value=0 time=0
control_change channel=0 control=64 value=127 time=172
note_on channel=0 note=75 velocity=61 time=0
note_on channel=0 note=48 velocity=61 time=0
note_on channel=0 note=75 velocity=0 time=120
note_on channel=0 note=74 velocity=50 time=0
note_on channel=0 note=74 velocity=0 time=120
note_on channel=0 note=75 velocity=54 time=0
note_on channel=0 note=75 velocity=0 time=0
note_on channel=0 note=72 velocity=50 time=0
note_on channel=0 note=72 velocity=0 time=0
note_on channel=0 note=81 velocity=60 time=0
note_on channel=0 note=51 velocity=60 time=0
control_change channel=0 control=64 value=0 time=15
control_change channel=0 control=64 value=127 time=88
note_on channel=0 note=81 velocity=0 time=17
note_on channel=0 note=80 velocity=50 time=0
note_on channel=0 note=80 velocity=0 time=120
note_on channel=0 note=81 velocity=53 time=0
note_on channel=0 note=81 velocity=0 time=0
note_on channel=0 note=75 velocity=49 time=0
note_on channel=0 note=75 velocity=0 time=0
note_on channel=0 note=84 velocity=62 time=0
note_on channel=0 note=53 velocity=60 time=0
control_change channel=0 control=64 value=0 time=12
control_change channel=0 control=64 value=127 time=91
note_on channel=0 note=84 velocity=0 time=17
note_on channel=0 note=83 velocity=49 time=0
note_on channel=0 note=83 velocity=0 time=120
note_on channel=0 note=84 velocity=55 time=0
note_on channel=0 note=84 velocity=0 time=21
note_on channel=0 note=81 velocity=48 time=0
note_on channel=0 note=81 velocity=0 time=0
note_on channel=0 note=53 velocity=0 time=0
note_on channel=0 note=41 velocity=0 time=0
note_on channel=0 note=48 velocity=0 time=0
note_on channel=0 note=51 velocity=0 time=0
note_on channel=0 note=87 velocity=64 time=0
note_on channel=0 note=41 velocity=67 time=0
control_change channel=0 control=64 value=0 time=17
control_change channel=0 control=64 value=127 time=58
note_on channel=0 note=87 velocity=0 time=45
note_on channel=0 note=84 velocity=48 time=0
note_on channel=0 note=84 velocity=0 time=120
note_on channel=0 note=81 velocity=56 time=0
note_on channel=0 note=81 velocity=0 time=120
note_on channel=0 note=75 velocity=47 time=0
note_on channel=0 note=75 velocity=0 time=120
note_on channel=0 note=84 velocity=62 time=0
note_on channel=0 note=45 velocity=58 time=0
note_on channel=0 note=84 velocity=0 time=120
note_on channel=0 note=81 velocity=48 time=0
note_on channel=0 note=81 velocity=0 time=120
note_on channel=0 note=75 velocity=56 time=0
note_on channel=0 note=75 velocity=0 time=0
note_on channel=0 note=72 velocity=48 time=0
note_on channel=0 note=72 velocity=0 time=0
note_on channel=0 note=81 velocity=61 time=0
note_on channel=0 note=48 velocity=58 time=0
note_on channel=0 note=81 velocity=0 time=31
note_on channel=0 note=75 velocity=44 time=0
note_on channel=0 note=75 velocity=0 time=120
note_on channel=0 note=72 velocity=54 time=0
note_on channel=0 note=72 velocity=0 time=120
note_on channel=0 note=69 velocity=43 time=0
note_on channel=0 note=69 velocity=0 time=120
note_on channel=0 note=75 velocity=59 time=0
note_on channel=0 note=53 velocity=57 time=0
note_on channel=0 note=75 velocity=0 time=120
note_on channel=0 note=72 velocity=43 time=0
note_on channel=0 note=72 velocity=0 time=120
note_on channel=0 note=69 velocity=51 time=0
note_on channel=0 note=69 velocity=0 time=0
note_on channel=0 note=63 velocity=43 time=0
note_on channel=0 note=63 velocity=0 time=0
note_on channel=0 note=53 velocity=0 time=0
note_on channel=0 note=41 velocity=0 time=0
note_on channel=0 note=45 velocity=0 time=0
note_on channel=0 note=48 velocity=0 time=0
note_on channel=0 note=41 velocity=64 time=0
control_change channel=0 control=64 value=0 time=0
control_change channel=0 control=64 value=127 time=172
note_on channel=0 note=73 velocity=56 time=0
note_on channel=0 note=46 velocity=56 time=0
note_on channel=0 note=73 velocity=0 time=120
note_on channel=0 note=72 velocity=46 time=0
note_on channel=0 note=72 velocity=0 time=120
note_on channel=0 note=73 velocity=49 time=0
note_on channel=0 note=73 velocity=0 time=0
note_on channel=0 note=70 velocity=46 time=0
note_on channel=0 note=70 velocity=0 time=0
note_on channel=0 note=77 velocity=56 time=0
note_on channel=0 note=49 velocity=56 time=0
control_change channel=0 control=64 value=0 time=15
control_change channel=0 control=64 value=127 time=88
note_on channel=0 note=77 velocity=0 time=17
note_on channel=0 note=76 velocity=45 time=0
note_on channel=0 note=76 velocity=0 time=120
note_on channel=0 note=77 velocity=48 time=0
note_on channel=0 note=77 velocity=0 time=0
note_on channel=0 note=73 velocity=45 time=0
note_on channel=0 note=73 velocity=0 time=0
note_on channel=0 note=82 velocity=57 time=0
note_on channel=0 note=53 velocity=55 time=0
control_change channel=0 control=64 value=0 time=12
control_change channel=0 control=64 value=127 time=91
note_on channel=0 note=82 velocity=0 time=17
note_on channel=0 note=81 velocity=45 time=0
note_on channel=0 note=81 velocity=0 time=120
note_on channel=0 note=82 velocity=50 time=0
note_on channel=0 note=82 velocity=0 time=21
note_on channel=0 note=77 velocity=45 time=0
note_on channel=0 note=77 velocity=0 time=0
note_on channel=0 note=53 velocity=0 time=0
note_on channel=0 note=41 velocity=0 time=0
note_on channel=0 note=46 velocity=0 time=0
note_on channel=0 note=49 velocity=0 time=0
note_on channel=0 note=85 velocity=59 time=0
note_on channel=0 note=40 velocity=62 time=0
control_change channel=0 control=64 value=0 time=8
control_change channel=0 control=64 value=127 time=58
note_on channel=0 note=85 velocity=0 time=45
note_on channel=0 note=82 velocity=44 time=0
note_on channel=0 note=82 velocity=0 time=120
note_on channel=0 note=79 velocity=51 time=0
note_on channel=0 note=79 velocity=0 time=120
note_on channel=0 note=73 velocity=42 time=0
note_on channel=0 note=73 velocity=0 time=120
note_on channel=0 note=82 velocity=57 time=0
note_on channel=0 note=46 velocity=54 time=0
note_on channel=0 note=82 velocity=0 time=120
note_on channel=0 note=79 velocity=44 time=0
note_on channel=0 note=79 velocity=0 time=120
note_on channel=0 note=73 velocity=51 time=0
note_on channel=0 note=73 velocity=0 time=0
note_on channel=0 note=70 velocity=44 time=0
note_on channel=0 note=70 velocity=0 time=0
note_on channel=0 note=79 velocity=56 time=0
note_on channel=0 note=49 velocity=53 time=0
note_on channel=0 note=79 velocity=0 time=31
note_on channel=0 note=73 velocity=40 time=0
note_on channel=0 note=73 velocity=0 time=120
note_on channel=0 note=70 velocity=49 time=0
note_on channel=0 note=70 velocity=0 time=120
note_on channel=0 note=67 velocity=39 time=0
note_on channel=0 note=67 velocity=0 time=120
note_on channel=0 note=73 velocity=54 time=0
note_on channel=0 note=52 velocity=52 time=0
note_on channel=0 note=73 velocity=0 time=120
note_on channel=0 note=70 velocity=40 time=0
note_on channel=0 note=70 velocity=0 time=120
note_on channel=0 note=67 velocity=46 time=0
note_on channel=0 note=67 velocity=0 time=0
note_on channel=0 note=61 velocity=39 time=0
note_on channel=0 note=61 velocity=0 time=0
note_on channel=0 note=52 velocity=0 time=0
note_on channel=0 note=40 velocity=0 time=0
note_on channel=0 note=46 velocity=0 time=0
note_on channel=0 note=49 velocity=0 time=0
note_on channel=0 note=39 velocity=59 time=0
control_change channel=0 control=64 value=0 time=0
control_change channel=0 control=64 value=127 time=172
note_on channel=0 note=73 velocity=51 time=0
note_on channel=0 note=46 velocity=51 time=0
note_on channel=0 note=73 velocity=0 time=120
note_on channel=0 note=72 velocity=42 time=0
note_on channel=0 note=72 velocity=0 time=120
note_on channel=0 note=73 velocity=45 time=0
note_on channel=0 note=73 velocity=0 time=0
note_on channel=0 note=70 velocity=41 time=0
note_on channel=0 note=70 velocity=0 time=0
note_on channel=0 note=79 velocity=50 time=0
note_on channel=0 note=49 velocity=50 time=0
control_change channel=0 control=64 value=0 time=15
control_change channel=0 control=64 value=127 time=88
note_on channel=0 note=79 velocity=0 time=17
note_on channel=0 note=78 velocity=41 time=0
note_on channel=0 note=78 velocity=0 time=120
note_on channel=0 note=79 velocity=44 time=0
note_on channel=0 note=79 velocity=0 time=0
note_on channel=0 note=73 velocity=41 time=0
note_on channel=0 note=73 velocity=0 time=0
note_on channel=0 note=82 velocity=51 time=0
note_on channel=0 note=51 velocity=50 time=0
control_change channel=0 control=64 value=0 time=12
control_change channel=0 control=64 value=127 time=91
note_on channel=0 note=82 velocity=0 time=17
note_on channel=0 note=81 velocity=41 time=0
note_on channel=0 note=81 velocity=0 time=120
note_on channel=0 note=82 velocity=46 time=0
note_on channel=0 note=82 velocity=0 time=120
note_on channel=0 note=79 velocity=40 time=0
note_on channel=0 note=79 velocity=0 time=7
note_on channel=0 note=51 velocity=0 time=0
note_on channel=0 note=39 velocity=0 time=0
note_on channel=0 note=46 velocity=0 time=0
note_on channel=0 note=49 velocity=0 time=0
note_on channel=0 note=85 velocity=54 time=0
note_on channel=0 note=39 velocity=56 time=0
control_change channel=0 control=64 value=0 time=17
control_change channel=0 control=64 value=127 time=58
note_on channel=0 note=85 velocity=0 time=45
note_on channel=0 note=82 velocity=40 time=0
note_on channel=0 note=82 velocity=0 time=120
note_on channel=0 note=79 velocity=47 time=0
note_on channel=0 note=79 velocity=0 time=120
note_on channel=0 note=73 velocity=38 time=0
note_on channel=0 note=73 velocity=0 time=120
note_on channel=0 note=82 velocity=51 time=0
note_on channel=0 note=46 velocity=48 time=0
note_on channel=0 note=82 velocity=0 time=120
note_on channel=0 note=79 velocity=40 time=0
note_on channel=0 note=79 velocity=0 time=120
note_on channel=0 note=73 velocity=46 time=0
note_on channel=0 note=73 velocity=0 time=0
note_on channel=0 note=70 velocity=40 time=0
note_on channel=0 note=70 velocity=0 time=0
note_on channel=0 note=79 velocity=51 time=0
note_on channel=0 note=49 velocity=48 time=0
note_on channel=0 note=79 velocity=0 time=103
note_on channel=0 note=73 velocity=36 time=0
note_on channel=0 note=73 velocity=0 time=7
note_on channel=0 note=70 velocity=45 time=0
note_on channel=0 note=70 velocity=0 time=31
note_on channel=0 note=67 velocity=36 time=0
note_on channel=0 note=67 velocity=0 time=55
note_on channel=0 note=73 velocity=48 time=0
note_on channel=0 note=51 velocity=47 time=0
note_on channel=0 note=73 velocity=0 time=79
note_on channel=0 note=70 velocity=36 time=0
note_on channel=0 note=70 velocity=0 time=7
note_on channel=0 note=67 velocity=42 time=0
note_on channel=0 note=67 velocity=0 time=0
note_on channel=0 note=61 velocity=35 time=0
note_on channel=0 note=61 velocity=0 time=0
note_on channel=0 note=51 velocity=0 time=0
note_on channel=0 note=39 velocity=0 time=0
note_on channel=0 note=46 velocity=0 time=0
note_on channel=0 note=49 velocity=0 time=0
note_on channel=0 note=70 velocity=37 time=0
note_on channel=0 note=39 velocity=49 time=0
control_change channel=0 control=64 value=0 time=0
control_change channel=0 control=64 value=127 time=72
note_on channel=0 note=70 velocity=0 time=34
note_on channel=0 note=67 velocity=28 time=0
note_on channel=0 note=67 velocity=0 time=120
note_on channel=0 note=61 velocity=28 time=0
note_on channel=0 note=61 velocity=0 time=120
note_on channel=0 note=58 velocity=28 time=0
note_on channel=0 note=58 velocity=0 time=120
note_on channel=0 note=67 velocity=35 time=0
note_on channel=0 note=67 velocity=0 time=120
note_on channel=0 note=61 velocity=28 time=0
note_on channel=0 note=61 velocity=0 time=0
note_on channel=0 note=39 velocity=0 time=0
note_on channel=0 note=58 velocity=28 time=0
note_on channel=0 note=41 velocity=44 time=0
note_on channel=0 note=58 velocity=0 time=120
note_on channel=0 note=55 velocity=28 time=0
note_on channel=0 note=55 velocity=0 time=0
note_on channel=0 note=41 velocity=0 time=0
note_on channel=0 note=63 velocity=34 time=0
note_on channel=0 note=43 velocity=49 time=0
control_change channel=0 control=64 value=0 time=12
note_on channel=0 note=63 velocity=0 time=108
note_on channel=0 note=61 velocity=29 time=0
control_change channel=0 control=64 value=127 time=23
note_on channel=0 note=61 velocity=0 time=97
note_on channel=0 note=58 velocity=29 time=0
note_on channel=0 note=58 velocity=0 time=120
note_on channel=0 note=55 velocity=28 time=0
note_on channel=0 note=55 velocity=0 time=120
note_on channel=0 note=63 velocity=34 time=0
note_on channel=0 note=63 velocity=0 time=120
note_on channel=0 note=61 velocity=28 time=0
note_on channel=0 note=61 velocity=0 time=0
note_on channel=0 note=43 velocity=0 time=0
note_on channel=0 note=58 velocity=28 time=0
note_on channel=0 note=44 velocity=44 time=0
note_on channel=0 note=58 velocity=0 time=120
note_on channel=0 note=55 velocity=28 time=0
note_on channel=0 note=55 velocity=0 time=0
note_on channel=0 note=44 velocity=0 time=0
note_on channel=0 note=63 velocity=37 time=0
note_on channel=0 note=46 velocity=47 time=0
control_change channel=0 control=64 value=0 time=7
note_on channel=0 note=63 velocity=0 time=106
note_on channel=0 note=61 velocity=28 time=0
control_change channel=0 control=64 value=127 time=6
note_on channel=0 note=61 velocity=0 time=114
note_on channel=0 note=58 velocity=28 time=0
note_on channel=0 note=58 velocity=0 time=120
note_on channel=0 note=55 velocity=28 time=0
note_on channel=0 note=55 velocity=0 time=120
note_on channel=0 note=63 velocity=35 time=0
note_on channel=0 note=63 velocity=0 time=120
note_on channel=0 note=61 velocity=28 time=0
note_on channel=0 note=61 velocity=0 time=0
note_on channel=0 note=46 velocity=0 time=0
note_on channel=0 note=58 velocity=28 time=0
note_on channel=0 note=48 velocity=44 time=0
note_on channel=0 note=58 velocity=0 time=120
note_on channel=0 note=55 velocity=28 time=0
note_on channel=0 note=55 velocity=0 time=0
note_on channel=0 note=48 velocity=0 time=0
note_on channel=0 note=63 velocity=34 time=0
note_on channel=0 note=49 velocity=46 time=0
control_change channel=0 control=64 value=0 time=11
control_change channel=0 control=64 value=127 time=104
note_on channel=0 note=63 velocity=0 time=5
note_on channel=0 note=61 velocity=29 time=0
note_on channel=0 note=61 velocity=0 time=120
note_on channel=0 note=49 velocity=0 time=0
note_on channel=0 note=58 velocity=29 time=0
note_on channel=0 note=48 velocity=44 time=0
note_on channel=0 note=58 velocity=0 time=120
note_on channel=0 note=55 velocity=28 time=0
note_on channel=0 note=55 velocity=0 time=120
note_on channel=0 note=48 velocity=0 time=0
note_on channel=0 note=63 velocity=34 time=0
note_on channel=0 note=46 velocity=46 time=0
note_on channel=0 note=63 velocity=0 time=120
note_on channel=0 note=61 velocity=28 time=0
note_on channel=0 note=61 velocity=0 time=0
note_on channel=0 note=46 velocity=0 time=0
note_on channel=0 note=58 velocity=28 time=0
note_on channel=0 note=44 velocity=38 time=0
note_on channel=0 note=58 velocity=0 time=120
note_on channel=0 note=55 velocity=28 time=0
note_on channel=0 note=55 velocity=0 time=0
note_on channel=0 note=44 velocity=0 time=0
note_on channel=0 note=63 velocity=37 time=0
note_on channel=0 note=43 velocity=47 time=0
control_change channel=0 control=64 value=0 time=7
note_on channel=0 note=63 velocity=0 time=106
note_on channel=0 note=61 velocity=28 time=0
control_change channel=0 control=64 value=127 time=6
note_on channel=0 note=61 velocity=0 time=114
note_on channel=0 note=58 velocity=28 time=0
note_on channel=0 note=58 velocity=0 time=120
note_on channel=0 note=55 velocity=28 time=0
note_on channel=0 note=55 velocity=0 time=120
note_on channel=0 note=63 velocity=35 time=0
note_on channel=0 note=63 velocity=0 time=120
note_on channel=0 note=61 velocity=28 time=0
note_on channel=0 note=61 velocity=0 time=0
note_on channel=0 note=43 velocity=0 time=0
note_on channel=0 note=58 velocity=28 time=0
note_on channel=0 note=44 velocity=44 time=0
note_on channel=0 note=58 velocity=0 time=120
note_on channel=0 note=55 velocity=28 time=0
note_on channel=0 note=55 velocity=0 time=0
note_on channel=0 note=44 velocity=0 time=0
note_on channel=0 note=63 velocity=34 time=0
note_on channel=0 note=46 velocity=46 time=0
control_change channel=0 control=64 value=0 time=11
control_change channel=0 control=64 value=127 time=104
note_on channel=0 note=63 velocity=0 time=5
note_on channel=0 note=61 velocity=29 time=0
note_on channel=0 note=61 velocity=0 time=120
note_on channel=0 note=46 velocity=0 time=0
note_on channel=0 note=58 velocity=29 time=0
note_on channel=0 note=44 velocity=44 time=0
note_on channel=0 note=58 velocity=0 time=120
note_on channel=0 note=55 velocity=28 time=0
note_on channel=0 note=55 velocity=0 time=120
note_on channel=0 note=44 velocity=0 time=0
note_on channel=0 note=63 velocity=34 time=0
note_on channel=0 note=43 velocity=46 time=0
note_on channel=0 note=63 velocity=0 time=120
note_on channel=0 note=61 velocity=28 time=0
note_on channel=0 note=61 velocity=0 time=0
note_on channel=0 note=43 velocity=0 time=0
note_on channel=0 note=58 velocity=28 time=0
note_on channel=0 note=41 velocity=38 time=0
note_on channel=0 note=58 velocity=0 time=120
note_on channel=0 note=55 velocity=28 time=0
note_on channel=0 note=55 velocity=0 time=0
note_on channel=0 note=41 velocity=0 time=0
note_on channel=0 note=63 velocity=37 time=0
note_on channel=0 note=39 velocity=47 time=5
control_change channel=0 control=64 value=0 time=2
note_on channel=0 note=63 velocity=0 time=106
note_on channel=0 note=61 velocity=27 time=0
control_change channel=0 control=64 value=127 time=6
note_on channel=0 note=61 velocity=0 time=114
note_on channel=0 note=58 velocity=27 time=0
note_on channel=0 note=58 velocity=0 time=120
note_on channel=0 note=55 velocity=27 time=0
note_on channel=0 note=55 velocity=0 time=120
note_on channel=0 note=63 velocity=32 time=0
note_on channel=0 note=63 velocity=0 time=120
note_on channel=0 note=61 velocity=25 time=0
note_on channel=0 note=61 velocity=0 time=0
note_on channel=0 note=58 velocity=24 time=0
note_on channel=0 note=39 velocity=0 time=5
note_on channel=0 note=58 velocity=0 time=115
note_on channel=0 note=55 velocity=24 time=0
note_on channel=0 note=55 velocity=0 time=0
note_on channel=0 note=63 velocity=32 time=0
note_on channel=0 note=63 velocity=0 time=120
note_on channel=0 note=61 velocity=23 time=0
note_on channel=0 note=61 velocity=0 time=120
note_on channel=0 note=58 velocity=23 time=0
note_on channel=0 note=58 velocity=0 time=120
note_on channel=0 note=55 velocity=21 time=0
note_on channel=0 note=55 velocity=0 time=120
note_on channel=0 note=63 velocity=27 time=0
note_on channel=0 note=63 velocity=0 time=120
note_on channel=0 note=61 velocity=20 time=0
note_on channel=0 note=61 velocity=0 time=0
note_on channel=0 note=58 velocity=20 time=0
note_on channel=0 note=58 velocity=0 time=120
note_on channel=0 note=55 velocity=19 time=0
note_on channel=0 note=55 velocity=0 time=120
note_on channel=0 note=64 velocity=29 time=0
note_on channel=0 note=36 velocity=39 time=0
control_change channel=0 control=64 value=0 time=0
control_change channel=0 control=64 value=127 time=77
note_on channel=0 note=64 velocity=0 time=34
note_on channel=0 note=61 velocity=22 time=0
note_on channel=0 note=61 velocity=0 time=120
note_on channel=0 note=58 velocity=22 time=0
note_on channel=0 note=58 velocity=0 time=120
note_on channel=0 note=55 velocity=22 time=0
note_on channel=0 note=55 velocity=0 time=120
note_on channel=0 note=64 velocity=27 time=0
note_on channel=0 note=64 velocity=0 time=120
note_on channel=0 note=61 velocity=22 time=0
note_on channel=0 note=61 velocity=0 time=0
note_on channel=0 note=36 velocity=0 time=0
note_on channel=0 note=58 velocity=22 time=0
note_on channel=0 note=38 velocity=35 time=0
note_on channel=0 note=58 velocity=0 time=120
note_on channel=0 note=55 velocity=22 time=0
note_on channel=0 note=55 velocity=0 time=0
note_on channel=0 note=38 velocity=0 time=0
note_on channel=0 note=64 velocity=27 time=0
note_on channel=0 note=40 velocity=39 time=0
control_change channel=0 control=64 value=0 time=12
note_on channel=0 note=64 velocity=0 time=108
note_on channel=0 note=61 velocity=23 time=0
control_change channel=0 control=64 value=127 time=23
note_on channel=0 note=61 velocity=0 time=97
note_on channel=0 note=58 velocity=23 time=0
note_on channel=0 note=58 velocity=0 time=120
note_on channel=0 note=55 velocity=22 time=0
note_on channel=0 note=55 velocity=0 time=120
note_on channel=0 note=64 velocity=27 time=0
note_on channel=0 note=64 velocity=0 time=120
note_on channel=0 note=61 velocity=22 time=0
note_on channel=0 note=61 velocity=0 time=0
note_on channel=0 note=40 velocity=0 time=0
note_on channel=0 note=58 velocity=22 time=0
note_on channel=0 note=41 velocity=35 time=0
note_on channel=0 note=58 velocity=0 time=120
note_on channel=0 note=55 velocity=22 time=0
note_on channel=0 note=55 velocity=0 time=0
note_on channel=0 note=41 velocity=0 time=0
note_on channel=0 note=64 velocity=29 time=0
note_on channel=0 note=43 velocity=37 time=0
control_change channel=0 control=64 value=0 time=7
note_on channel=0 note=64 velocity=0 time=106
note_on channel=0 note=61 velocity=22 time=0
control_change channel=0 control=64 value=127 time=6
note_on channel=0 note=61 velocity=0 time=114
note_on channel=0 note=58 velocity=22 time=0
note_on channel=0 note=58 velocity=0 time=120
note_on channel=0 note=55 velocity=22 time=0
note_on channel=0 note=55 velocity=0 time=120
note_on channel=0 note=64 velocity=27 time=0
note_on channel=0 note=64 velocity=0 time=120
note_on channel=0 note=61 velocity=22 time=0
note_on channel=0 note=61 velocity=0 time=0
note_on channel=0 note=43 velocity=0 time=0
note_on channel=0 note=58 velocity=22 time=0
note_on channel=0 note=44 velocity=35 time=0
note_on channel=0 note=58 velocity=0 time=120
note_on channel=0 note=55 velocity=22 time=0
note_on channel=0 note=55 velocity=0 time=0
note_on channel=0 note=44 velocity=0 time=0
note_on channel=0 note=64 velocity=27 time=0
note_on channel=0 note=46 velocity=36 time=0
control_change channel=0 control=64 value=0 time=11
control_change channel=0 control=64 value=127 time=104
note_on channel=0 note=64 velocity=0 time=5
note_on channel=0 note=61 velocity=23 time=0
note_on channel=0 note=61 velocity=0 time=120
note_on channel=0 note=46 velocity=0 time=0
note_on channel=0 note=58 velocity=23 time=0
note_on channel=0 note=44 velocity=35 time=0
note_on channel=0 note=58 velocity=0 time=120
note_on channel=0 note=55 velocity=22 time=0
note_on channel=0 note=55 velocity=0 time=120
note_on channel=0 note=44 velocity=0 time=0
note_on channel=0 note=64 velocity=27 time=0
note_on channel=0 note=43 velocity=36 time=0
note_on channel=0 note=64 velocity=0 time=120
note_on channel=0 note=61 velocity=22 time=0
note_on channel=0 note=61 velocity=0 time=0
note_on channel=0 note=43 velocity=0 time=0
note_on channel=0 note=58 velocity=22 time=0
note_on channel=0 note=41 velocity=30 time=0
note_on channel=0 note=58 velocity=0 time=120
note_on channel=0 note=55 velocity=22 time=0
note_on channel=0 note=55 velocity=0 time=0
note_on channel=0 note=41 velocity=0 time=0
note_on channel=0 note=64 velocity=29 time=0
note_on channel=0 note=40 velocity=37 time=0
control_change channel=0 control=64 value=0 time=7
note_on channel=0 note=64 velocity=0 time=106
note_on channel=0 note=61 velocity=22 time=0
control_change channel=0 control=64 value=127 time=6
note_on channel=0 note=61 velocity=0 time=114
note_on channel=0 note=58 velocity=22 time=0
note_on channel=0 note=58 velocity=0 time=120
note_on channel=0 note=55 velocity=22 time=0
note_on channel=0 note=55 velocity=0 time=120
note_on channel=0 note=64 velocity=27 time=0
note_on channel=0 note=64 velocity=0 time=120
note_on channel=0 note=61 velocity=22 time=0
note_on channel=0 note=61 velocity=0 time=0
note_on channel=0 note=40 velocity=0 time=0
note_on channel=0 note=58 velocity=22 time=0
note_on channel=0 note=41 velocity=35 time=0
note_on channel=0 note=58 velocity=0 time=120
note_on channel=0 note=55 velocity=22 time=0
note_on channel=0 note=55 velocity=0 time=0
note_on channel=0 note=41 velocity=0 time=0
note_on channel=0 note=64 velocity=27 time=0
note_on channel=0 note=43 velocity=36 time=0
control_change channel=0 control=64 value=0 time=11
control_change channel=0 control=64 value=127 time=104
note_on channel=0 note=64 velocity=0 time=5
note_on channel=0 note=61 velocity=23 time=0
note_on channel=0 note=61 velocity=0 time=120
note_on channel=0 note=43 velocity=0 time=0
note_on channel=0 note=58 velocity=23 time=0
note_on channel=0 note=41 velocity=35 time=0
note_on channel=0 note=58 velocity=0 time=120
note_on channel=0 note=55 velocity=22 time=0
note_on channel=0 note=55 velocity=0 time=120
note_on channel=0 note=41 velocity=0 time=0
note_on channel=0 note=64 velocity=27 time=0
note_on channel=0 note=40 velocity=36 time=0
note_on channel=0 note=64 velocity=0 time=120
note_on channel=0 note=61 velocity=22 time=0
note_on channel=0 note=61 velocity=0 time=0
note_on channel=0 note=40 velocity=0 time=0
note_on channel=0 note=58 velocity=22 time=0
note_on channel=0 note=38 velocity=30 time=0
note_on channel=0 note=58 velocity=0 time=120
note_on channel=0 note=55 velocity=22 time=0
note_on channel=0 note=55 velocity=0 time=0
note_on channel=0 note=38 velocity=0 time=0
note_on channel=0 note=64 velocity=29 time=0
note_on channel=0 note=36 velocity=37 time=0
control_change channel=0 control=64 value=0 time=7
note_on channel=0 note=64 velocity=0 time=106
note_on channel=0 note=61 velocity=22 time=0
control_change channel=0 control=64 value=127 time=6
note_on channel=0 note=61 velocity=0 time=114
note_on channel=0 note=58 velocity=22 time=0
note_on channel=0 note=58 velocity=0 time=120
note_on channel=0 note=55 velocity=22 time=0
note_on channel=0 note=55 velocity=0 time=120
note_on channel=0 note=64 velocity=27 time=0
note_on channel=0 note=64 velocity=0 time=120
note_on channel=0 note=61 velocity=22 time=0
note_on channel=0 note=61 velocity=0 time=0
note_on channel=0 note=36 velocity=0 time=0
note_on channel=0 note=58 velocity=22 time=0
note_on channel=0 note=58 velocity=0 time=120
note_on channel=0 note=55 velocity=22 time=0
note_on channel=0 note=55 velocity=0 time=0
note_on channel=0 note=64 velocity=27 time=0
note_on channel=0 note=64 velocity=0 time=111
note_on channel=0 note=61 velocity=23 time=0
note_on channel=0 note=61 velocity=0 time=120
note_on channel=0 note=58 velocity=23 time=0
note_on channel=0 note=58 velocity=0 time=120
note_on channel=0 note=55 velocity=22 time=0
note_on channel=0 note=55 velocity=0 time=120
note_on channel=0 note=64 velocity=27 time=0
note_on channel=0 note=64 velocity=0 time=120
note_on channel=0 note=61 velocity=22 time=0
note_on channel=0 note=61 velocity=0 time=0
note_on channel=0 note=58 velocity=22 time=0
note_on channel=0 note=58 velocity=0 time=120
note_on channel=0 note=55 velocity=22 time=0
note_on channel=0 note=55 velocity=0 time=0
note_on channel=0 note=63 velocity=29 time=0
note_on channel=0 note=29 velocity=39 time=0
control_change channel=0 control=64 value=0 time=0
control_change channel=0 control=64 value=127 time=72
note_on channel=0 note=63 velocity=0 time=34
note_on channel=0 note=60 velocity=22 time=0
note_on channel=0 note=60 velocity=0 time=120
note_on channel=0 note=57 velocity=22 time=0
note_on channel=0 note=57 velocity=0 time=120
note_on channel=0 note=54 velocity=22 time=0
note_on channel=0 note=54 velocity=0 time=120
note_on channel=0 note=63 velocity=27 time=0
note_on channel=0 note=63 velocity=0 time=120
note_on channel=0 note=60 velocity=22 time=0
note_on channel=0 note=60 velocity=0 time=0
note_on channel=0 note=29 velocity=0 time=0
note_on channel=0 note=57 velocity=22 time=0
note_on channel=0 note=31 velocity=35 time=0
note_on channel=0 note=57 velocity=0 time=120
note_on channel=0 note=54 velocity=22 time=0
note_on channel=0 note=54 velocity=0 time=0
note_on channel=0 note=31 velocity=0 time=0
note_on channel=0 note=63 velocity=27 time=0
note_on channel=0 note=33 velocity=39 time=0
control_change channel=0 control=64 value=0 time=12
note_on channel=0 note=63 velocity=0 time=108
note_on channel=0 note=60 velocity=23 time=0
control_change channel=0 control=64 value=127 time=23
note_on channel=0 note=60 velocity=0 time=97
note_on channel=0 note=57 velocity=23 time=0
note_on channel=0 note=57 velocity=0 time=120
note_on channel=0 note=54 velocity=22 time=0
note_on channel=0 note=54 velocity=0 time=120
note_on channel=0 note=63 velocity=27 time=0
note_on channel=0 note=63 velocity=0 time=120
note_on channel=0 note=60 velocity=22 time=0
note_on channel=0 note=60 velocity=0 time=0
note_on channel=0 note=33 velocity=0 time=0
note_on channel=0 note=57 velocity=22 time=0
note_on channel=0 note=34 velocity=35 time=0
note_on channel=0 note=57 velocity=0 time=120
note_on channel=0 note=54 velocity=22 time=0
note_on channel=0 note=54 velocity=0 time=0
note_on channel=0 note=34 velocity=0 time=0
note_on channel=0 note=63 velocity=29 time=0
note_on channel=0 note=36 velocity=37 time=0
control_change channel=0 control=64 value=0 time=7
note_on channel=0 note=63 velocity=0 time=106
note_on channel=0 note=60 velocity=22 time=0
control_change channel=0 control=64 value=127 time=6
note_on channel=0 note=60 velocity=0 time=114
note_on channel=0 note=57 velocity=22 time=0
note_on channel=0 note=57 velocity=0 time=120
note_on channel=0 note=54 velocity=22 time=0
note_on channel=0 note=54 velocity=0 time=120
note_on channel=0 note=63 velocity=27 time=0
note_on channel=0 note=63 velocity=0 time=120
note_on channel=0 note=60 velocity=22 time=0
note_on channel=0 note=60 velocity=0 time=0
note_on channel=0 note=36 velocity=0 time=0
note_on channel=0 note=57 velocity=22 time=0
note_on channel=0 note=37 velocity=35 time=0
note_on channel=0 note=57 velocity=0 time=120
note_on channel=0 note=54 velocity=22 time=0
note_on channel=0 note=54 velocity=0 time=0
note_on channel=0 note=37 velocity=0 time=0
note_on channel=0 note=63 velocity=27 time=0
note_on channel=0 note=39 velocity=36 time=0
control_change channel=0 control=64 value=0 time=11
control_change channel=0 control=64 value=127 time=104
note_on channel=0 note=63 velocity=0 time=5
note_on channel=0 note=60 velocity=23 time=0
note_on channel=0 note=60 velocity=0 time=120
note_on channel=0 note=39 velocity=0 time=0
note_on channel=0 note=57 velocity=23 time=0
note_on channel=0 note=37 velocity=35 time=0
note_on channel=0 note=57 velocity=0 time=120
note_on channel=0 note=54 velocity=22 time=0
note_on channel=0 note=54 velocity=0 time=120
note_on channel=0 note=37 velocity=0 time=0
note_on channel=0 note=63 velocity=27 time=0
note_on channel=0 note=36 velocity=36 time=0
note_on channel=0 note=63 velocity=0 time=120
note_on channel=0 note=60 velocity=22 time=0
note_on channel=0 note=60 velocity=0 time=0
note_on channel=0 note=36 velocity=0 time=0
note_on channel=0 note=57 velocity=22 time=0
note_on channel=0 note=34 velocity=30 time=0
note_on channel=0 note=57 velocity=0 time=120
note_on channel=0 note=54 velocity=22 time=0
note_on channel=0 note=54 velocity=0 time=0
note_on channel=0 note=34 velocity=0 time=0
note_on channel=0 note=63 velocity=29 time=0
note_on channel=0 note=33 velocity=37 time=0
control_change channel=0 control=64 value=0 time=7
note_on channel=0 note=63 velocity=0 time=106
note_on channel=0 note=60 velocity=22 time=0
control_change channel=0 control=64 value=127 time=6
note_on channel=0 note=60 velocity=0 time=114
note_on channel=0 note=57 velocity=22 time=0
note_on channel=0 note=57 velocity=0 time=120
note_on channel=0 note=54 velocity=22 time=0
note_on channel=0 note=54 velocity=0 time=120
note_on channel=0 note=63 velocity=27 time=0
note_on channel=0 note=63 velocity=0 time=120
note_on channel=0 note=60 velocity=22 time=0
note_on channel=0 note=60 velocity=0 time=0
note_on channel=0 note=33 velocity=0 time=0
note_on channel=0 note=57 velocity=22 time=0
note_on channel=0 note=34 velocity=35 time=0
note_on channel=0 note=57 velocity=0 time=120
note_on channel=0 note=54 velocity=22 time=0
note_on channel=0 note=54 velocity=0 time=0
note_on channel=0 note=34 velocity=0 time=0
note_on channel=0 note=63 velocity=27 time=0
note_on channel=0 note=36 velocity=36 time=0
control_change channel=0 control=64 value=0 time=11
control_change channel=0 control=64 value=127 time=104
note_on channel=0 note=63 velocity=0 time=5
note_on channel=0 note=60 velocity=23 time=0
note_on channel=0 note=60 velocity=0 time=120
note_on channel=0 note=36 velocity=0 time=0
note_on channel=0 note=57 velocity=23 time=0
note_on channel=0 note=34 velocity=35 time=0
note_on channel=0 note=57 velocity=0 time=120
note_on channel=0 note=54 velocity=22 time=0
note_on channel=0 note=54 velocity=0 time=120
note_on channel=0 note=34 velocity=0 time=0
note_on channel=0 note=63 velocity=27 time=0
note_on channel=0 note=33 velocity=36 time=0
note_on channel=0 note=63 velocity=0 time=120
note_on channel=0 note=60 velocity=22 time=0
note_on channel=0 note=60 velocity=0 time=0
note_on channel=0 note=33 velocity=0 time=0
note_on channel=0 note=57 velocity=22 time=0
note_on channel=0 note=31 velocity=30 time=0
note_on channel=0 note=57 velocity=0 time=120
note_on channel=0 note=54 velocity=22 time=0
note_on channel=0 note=54 velocity=0 time=0
note_on channel=0 note=31 velocity=0 time=0
note_on channel=0 note=63 velocity=29 time=0
note_on channel=0 note=29 velocity=37 time=0
control_change channel=0 control=64 value=0 time=7
note_on channel=0 note=63 velocity=0 time=106
note_on channel=0 note=60 velocity=22 time=0
control_change channel=0 control=64 value=127 time=6
note_on channel=0 note=60 velocity=0 time=114
note_on channel=0 note=57 velocity=22 time=0
note_on channel=0 note=57 velocity=0 time=120
note_on channel=0 note=54 velocity=22 time=0
note_on channel=0 note=54 velocity=0 time=120
note_on channel=0 note=63 velocity=27 time=0
note_on channel=0 note=63 velocity=0 time=120
note_on channel=0 note=60 velocity=22 time=0
note_on channel=0 note=60 velocity=0 time=0
note_on channel=0 note=57 velocity=22 time=0
note_on channel=0 note=57 velocity=0 time=120
note_on channel=0 note=54 velocity=22 time=0
note_on channel=0 note=54 velocity=0 time=0
note_on channel=0 note=63 velocity=27 time=0
control_change channel=0 control=64 value=0 time=8
control_change channel=0 control=64 value=127 time=78
note_on channel=0 note=63 velocity=0 time=34
note_on channel=0 note=60 velocity=23 time=0
note_on channel=0 note=60 velocity=0 time=120
note_on channel=0 note=57 velocity=23 time=0
note_on channel=0 note=57 velocity=0 time=120
note_on channel=0 note=53 velocity=22 time=0
note_on channel=0 note=53 velocity=0 time=120
note_on channel=0 note=63 velocity=27 time=0
note_on channel=0 note=63 velocity=0 time=120
note_on channel=0 note=60 velocity=22 time=0
note_on channel=0 note=60 velocity=0 time=0
note_on channel=0 note=57 velocity=22 time=0
note_on channel=0 note=57 velocity=0 time=120
note_on channel=0 note=53 velocity=22 time=0
note_on channel=0 note=53 velocity=0 time=0
note_on channel=0 note=63 velocity=29 time=0
note_on channel=0 note=63 velocity=0 time=106
note_on channel=0 note=60 velocity=22 time=0
note_on channel=0 note=60 velocity=0 time=120
note_on channel=0 note=57 velocity=22 time=0
note_on channel=0 note=57 velocity=0 time=120
note_on channel=0 note=53 velocity=22 time=0
note_on channel=0 note=53 velocity=0 time=120
note_on channel=0 note=63 velocity=27 time=0
note_on channel=0 note=63 velocity=0 time=120
note_on channel=0 note=60 velocity=22 time=0
note_on channel=0 note=60 velocity=0 time=0
note_on channel=0 note=57 velocity=22 time=0
note_on channel=0 note=57 velocity=0 time=120
note_on channel=0 note=53 velocity=22 time=0
note_on channel=0 note=53 velocity=0 time=0
note_on channel=0 note=29 velocity=0 time=0
note_on channel=0 note=63 velocity=27 time=0
note_on channel=0 note=36 velocity=36 time=0
control_change channel=0 control=64 value=0 time=11
control_change channel=0 control=64 value=127 time=104
note_on channel=0 note=63 velocity=0 time=5
note_on channel=0 note=60 velocity=23 time=0
note_on channel=0 note=60 velocity=0 time=120
note_on channel=0 note=36 velocity=0 time=0
note_on channel=0 note=57 velocity=23 time=0
note_on channel=0 note=34 velocity=35 time=0
note_on channel=0 note=57 velocity=0 time=120
note_on channel=0 note=53 velocity=22 time=0
note_on channel=0 note=53 velocity=0 time=120
note_on channel=0 note=34 velocity=0 time=0
note_on channel=0 note=63 velocity=27 time=0
note_on channel=0 note=33 velocity=36 time=0
note_on channel=0 note=63 velocity=0 time=120
note_on channel=0 note=60 velocity=22 time=0
note_on channel=0 note=60 velocity=0 time=0
note_on channel=0 note=33 velocity=0 time=0
note_on channel=0 note=57 velocity=22 time=0
note_on channel=0 note=31 velocity=30 time=0
note_on channel=0 note=57 velocity=0 time=120
note_on channel=0 note=53 velocity=22 time=0
note_on channel=0 note=53 velocity=0 time=0
note_on channel=0 note=31 velocity=0 time=0
note_on channel=0 note=63 velocity=29 time=0
note_on channel=0 note=29 velocity=37 time=0
control_change channel=0 control=64 value=0 time=7
note_on channel=0 note=63 velocity=0 time=106
note_on channel=0 note=60 velocity=22 time=0
control_change channel=0 control=64 value=127 time=6
note_on channel=0 note=60 velocity=0 time=114
note_on channel=0 note=57 velocity=22 time=0
note_on channel=0 note=57 velocity=0 time=120
note_on channel=0 note=53 velocity=22 time=0
note_on channel=0 note=53 velocity=0 time=120
note_on channel=0 note=63 velocity=27 time=0
note_on channel=0 note=63 velocity=0 time=120
note_on channel=0 note=60 velocity=22 time=0
note_on channel=0 note=60 velocity=0 time=0
note_on channel=0 note=57 velocity=22 time=0
note_on channel=0 note=57 velocity=0 time=120
note_on channel=0 note=53 velocity=22 time=0
note_on channel=0 note=53 velocity=0 time=0
note_on channel=0 note=63 velocity=27 time=0
note_on channel=0 note=63 velocity=0 time=120
note_on channel=0 note=60 velocity=23 time=0
note_on channel=0 note=60 velocity=0 time=120
note_on channel=0 note=57 velocity=23 time=0
note_on channel=0 note=57 velocity=0 time=120
note_on channel=0 note=53 velocity=22 time=0
note_on channel=0 note=53 velocity=0 time=120
note_on channel=0 note=63 velocity=27 time=0
note_on channel=0 note=63 velocity=0 time=120
note_on channel=0 note=60 velocity=22 time=0
note_on channel=0 note=60 velocity=0 time=0
note_on channel=0 note=57 velocity=22 time=0
note_on channel=0 note=57 velocity=0 time=120
note_on channel=0 note=53 velocity=22 time=0
note_on channel=0 note=53 velocity=0 time=0
note_on channel=0 note=63 velocity=29 time=0
note_on channel=0 note=63 velocity=0 time=106
note_on channel=0 note=60 velocity=22 time=0
note_on channel=0 note=60 velocity=0 time=120
note_on channel=0 note=57 velocity=22 time=0
note_on channel=0 note=57 velocity=0 time=120
note_on channel=0 note=53 velocity=22 time=0
note_on channel=0 note=53 velocity=0 time=120
note_on channel=0 note=63 velocity=28 time=0
note_on channel=0 note=63 velocity=0 time=120
note_on channel=0 note=60 velocity=23 time=0
note_on channel=0 note=60 velocity=0 time=0
note_on channel=0 note=57 velocity=23 time=0
note_on channel=0 note=57 velocity=0 time=120
note_on channel=0 note=53 velocity=23 time=0
note_on channel=0 note=53 velocity=0 time=0
note_on channel=0 note=29 velocity=0 time=0
note_on channel=0 note=63 velocity=28 time=0
note_on channel=0 note=36 velocity=41 time=0
control_change channel=0 control=64 value=0 time=11
control_change channel=0 control=64 value=127 time=104
note_on channel=0 note=63 velocity=0 time=5
note_on channel=0 note=60 velocity=24 time=0
note_on channel=0 note=60 velocity=0 time=120
note_on channel=0 note=36 velocity=0 time=0
note_on channel=0 note=57 velocity=24 time=0
note_on channel=0 note=34 velocity=40 time=0
note_on channel=0 note=57 velocity=0 time=120
note_on channel=0 note=53 velocity=24 time=0
note_on channel=0 note=53 velocity=0 time=120
note_on channel=0 note=34 velocity=0 time=0
note_on channel=0 note=63 velocity=29 time=0
note_on channel=0 note=33 velocity=41 time=0
note_on channel=0 note=63 velocity=0 time=120
note_on channel=0 note=60 velocity=24 time=0
note_on channel=0 note=60 velocity=0 time=0
note_on channel=0 note=33 velocity=0 time=0
note_on channel=0 note=57 velocity=24 time=0
note_on channel=0 note=31 velocity=34 time=0
note_on channel=0 note=57 velocity=0 time=120
note_on channel=0 note=53 velocity=24 time=0
note_on channel=0 note=53 velocity=0 time=0
note_on channel=0 note=31 velocity=0 time=0
note_on channel=0 note=63 velocity=33 time=0
note_on channel=0 note=29 velocity=42 time=0
control_change channel=0 control=64 value=0 time=7
note_on channel=0 note=63 velocity=0 time=106
note_on channel=0 note=60 velocity=25 time=0
control_change channel=0 control=64 value=127 time=6
note_on channel=0 note=60 velocity=0 time=114
note_on channel=0 note=57 velocity=25 time=0
note_on channel=0 note=57 velocity=0 time=120
note_on channel=0 note=53 velocity=25 time=0
note_on channel=0 note=53 velocity=0 time=120
note_on channel=0 note=63 velocity=32 time=0
note_on channel=0 note=63 velocity=0 time=120
note_on channel=0 note=60 velocity=26 time=0
note_on channel=0 note=60 velocity=0 time=0
note_on channel=0 note=57 velocity=26 time=0
note_on channel=0 note=57 velocity=0 time=120
note_on channel=0 note=53 velocity=26 time=0
note_on channel=0 note=53 velocity=0 time=0
note_on channel=0 note=29 velocity=0 time=0
note_on channel=0 note=63 velocity=32 time=0
note_on channel=0 note=36 velocity=43 time=0
control_change channel=0 control=64 value=0 time=11
control_change channel=0 control=64 value=127 time=104
note_on channel=0 note=63 velocity=0 time=5
note_on channel=0 note=60 velocity=28 time=0
note_on channel=0 note=60 velocity=0 time=120
note_on channel=0 note=36 velocity=0 time=0
note_on channel=0 note=57 velocity=28 time=0
note_on channel=0 note=34 velocity=43 time=0
note_on channel=0 note=57 velocity=0 time=120
note_on channel=0 note=53 velocity=27 time=0
note_on channel=0 note=53 velocity=0 time=120
note_on channel=0 note=34 velocity=0 time=0
note_on channel=0 note=63 velocity=33 time=0
note_on channel=0 note=33 velocity=46 time=0
note_on channel=0 note=63 velocity=0 time=120
note_on channel=0 note=60 velocity=28 time=0
note_on channel=0 note=60 velocity=0 time=0
note_on channel=0 note=33 velocity=0 time=0
note_on channel=0 note=57 velocity=28 time=0
note_on channel=0 note=31 velocity=39 time=0
note_on channel=0 note=57 velocity=0 time=120
note_on channel=0 note=53 velocity=28 time=0
note_on channel=0 note=53 velocity=0 time=0
note_on channel=0 note=31 velocity=0 time=0
note_on channel=0 note=63 velocity=38 time=0
note_on channel=0 note=29 velocity=48 time=0
control_change channel=0 control=64 value=0 time=7
note_on channel=0 note=63 velocity=0 time=106
note_on channel=0 note=60 velocity=29 time=0
control_change channel=0 control=64 value=127 time=6
note_on channel=0 note=60 velocity=0 time=114
note_on channel=0 note=57 velocity=29 time=0
note_on channel=0 note=57 velocity=0 time=120
note_on channel=0 note=53 velocity=29 time=0
note_on channel=0 note=53 velocity=0 time=120
note_on channel=0 note=63 velocity=37 time=0
note_on channel=0 note=63 velocity=0 time=120
note_on channel=0 note=60 velocity=30 time=0
note_on channel=0 note=60 velocity=0 time=0
note_on channel=0 note=57 velocity=30 time=0
note_on channel=0 note=57 velocity=0 time=120
note_on channel=0 note=53 velocity=30 time=0
note_on channel=0 note=53 velocity=0 time=0
note_on channel=0 note=29 velocity=0 time=0
note_on channel=0 note=63 velocity=37 time=0
note_on channel=0 note=36 velocity=51 time=0
control_change channel=0 control=64 value=0 time=11
control_change channel=0 control=64 value=127 time=104
note_on channel=0 note=63 velocity=0 time=5
note_on channel=0 note=60 velocity=32 time=0
note_on channel=0 note=60 velocity=0 time=120
note_on channel=0 note=36 velocity=0 time=0
note_on channel=0 note=57 velocity=33 time=0
note_on channel=0 note=34 velocity=50 time=0
note_on channel=0 note=57 velocity=0 time=120
note_on channel=0 note=53 velocity=32 time=0
note_on channel=0 note=53 velocity=0 time=120
note_on channel=0 note=34 velocity=0 time=0
note_on channel=0 note=63 velocity=38 time=0
note_on channel=0 note=33 velocity=52 time=0
note_on channel=0 note=63 velocity=0 time=120
note_on channel=0 note=60 velocity=32 time=0
note_on channel=0 note=60 velocity=0 time=0
note_on channel=0 note=33 velocity=0 time=0
note_on channel=0 note=57 velocity=33 time=0
note_on channel=0 note=31 velocity=44 time=0
note_on channel=0 note=57 velocity=0 time=120
note_on channel=0 note=53 velocity=33 time=0
note_on channel=0 note=53 velocity=0 time=0
note_on channel=0 note=31 velocity=0 time=0
note_on channel=0 note=63 velocity=44 time=0
note_on channel=0 note=29 velocity=56 time=0
control_change channel=0 control=64 value=0 time=7
control_change channel=0 control=64 value=127 time=71
note_on channel=0 note=63 velocity=0 time=35
note_on channel=0 note=60 velocity=33 time=0
note_on channel=0 note=60 velocity=0 time=120
note_on channel=0 note=57 velocity=34 time=0
note_on channel=0 note=57 velocity=0 time=120
note_on channel=0 note=53 velocity=34 time=0
note_on channel=0 note=53 velocity=0 time=120
note_on channel=0 note=63 velocity=43 time=0
note_on channel=0 note=63 velocity=0 time=120
note_on channel=0 note=60 velocity=36 time=0
note_on channel=0 note=60 velocity=0 time=0
note_on channel=0 note=29 velocity=0 time=0
note_on channel=0 note=57 velocity=39 time=0
note_on channel=0 note=31 velocity=54 time=0
note_on channel=0 note=57 velocity=0 time=120
note_on channel=0 note=53 velocity=41 time=0
note_on channel=0 note=53 velocity=0 time=0
note_on channel=0 note=31 velocity=0 time=0
note_on channel=0 note=63 velocity=53 time=0
note_on channel=0 note=33 velocity=59 time=0
control_change channel=0 control=64 value=0 time=0
control_change channel=0 control=64 value=127 time=85
note_on channel=0 note=63 velocity=0 time=35
note_on channel=0 note=60 velocity=43 time=0
note_on channel=0 note=60 velocity=0 time=0
note_on channel=0 note=33 velocity=0 time=0
note_on channel=0 note=57 velocity=44 time=0
note_on channel=0 note=34 velocity=54 time=0
note_on channel=0 note=57 velocity=0 time=120
note_on channel=0 note=53 velocity=44 time=0
note_on channel=0 note=53 velocity=0 time=0
note_on channel=0 note=34 velocity=0 time=0
note_on channel=0 note=63 velocity=55 time=0
note_on channel=0 note=36 velocity=62 time=0
note_on channel=0 note=63 velocity=0 time=120
note_on channel=0 note=60 velocity=45 time=0
note_on channel=0 note=60 velocity=0 time=0
note_on channel=0 note=36 velocity=0 time=0
note_on channel=0 note=57 velocity=45 time=0
note_on channel=0 note=38 velocity=54 time=0
note_on channel=0 note=57 velocity=0 time=120
note_on channel=0 note=53 velocity=45 time=0
note_on channel=0 note=53 velocity=0 time=0
note_on channel=0 note=38 velocity=0 time=0
note_on channel=0 note=63 velocity=56 time=0
note_on channel=0 note=39 velocity=59 time=0
control_change channel=0 control=64 value=0 time=7
control_change channel=0 control=64 value=127 time=64
note_on channel=0 note=63 velocity=0 time=49
note_on channel=0 note=60 velocity=46 time=0
note_on channel=0 note=60 velocity=0 time=0
note_on channel=0 note=39 velocity=0 time=0
note_on channel=0 note=57 velocity=46 time=0
note_on channel=0 note=40 velocity=54 time=0
note_on channel=0 note=57 velocity=0 time=120
note_on channel=0 note=53 velocity=46 time=0
note_on channel=0 note=53 velocity=0 time=0
note_on channel=0 note=40 velocity=0 time=0
note_on channel=0 note=63 velocity=57 time=0
note_on channel=0 note=41 velocity=64 time=0
note_on channel=0 note=63 velocity=0 time=120
note_on channel=0 note=60 velocity=47 time=0
note_on channel=0 note=60 velocity=0 time=0
note_on channel=0 note=41 velocity=0 time=0
note_on channel=0 note=57 velocity=47 time=0
note_on channel=0 note=43 velocity=57 time=0
note_on channel=0 note=57 velocity=0 time=120
note_on channel=0 note=53 velocity=47 time=0
note_on channel=0 note=53 velocity=0 time=0
note_on channel=0 note=43 velocity=0 time=0
note_on channel=0 note=63 velocity=59 time=0
note_on channel=0 note=45 velocity=59 time=0
control_change channel=0 control=64 value=0 time=14
control_change channel=0 control=64 value=127 time=99
note_on channel=0 note=63 velocity=0 time=7
note_on channel=0 note=60 velocity=48 time=0
note_on channel=0 note=60 velocity=0 time=0
note_on channel=0 note=45 velocity=0 time=0
note_on channel=0 note=57 velocity=48 time=0
note_on channel=0 note=46 velocity=55 time=0
note_on channel=0 note=57 velocity=0 time=120
note_on channel=0 note=53 velocity=49 time=0
note_on channel=0 note=53 velocity=0 time=0
note_on channel=0 note=46 velocity=0 time=0
note_on channel=0 note=63 velocity=60 time=0
note_on channel=0 note=48 velocity=66 time=0
note_on channel=0 note=63 velocity=0 time=120
note_on channel=0 note=60 velocity=49 time=0
note_on channel=0 note=60 velocity=0 time=0
note_on channel=0 note=48 velocity=0 time=0
note_on channel=0 note=57 velocity=49 time=0
note_on channel=0 note=50 velocity=60 time=0
note_on channel=0 note=57 velocity=0 time=0
note_on channel=0 note=53 velocity=50 time=0
note_on channel=0 note=53 velocity=0 time=0
note_on channel=0 note=50 velocity=0 time=0
note_on channel=0 note=51 velocity=63 time=0
note_on channel=0 note=41 velocity=63 time=0
control_change channel=0 control=64 value=0 time=0
note_on channel=0 note=52 velocity=54 time=240
note_on channel=0 note=53 velocity=44 time=240
note_on channel=0 note=52 velocity=0 time=12
note_on channel=0 note=55 velocity=44 time=228
note_on channel=0 note=53 velocity=0 time=12
note_on channel=0 note=57 velocity=53 time=228
note_on channel=0 note=55 velocity=0 time=12
note_on channel=0 note=58 velocity=40 time=228
note_on channel=0 note=57 velocity=0 time=12
note_on channel=0 note=60 velocity=40 time=228
note_on channel=0 note=58 velocity=0 time=12
note_on channel=0 note=62 velocity=40 time=228
note_on channel=0 note=60 velocity=0 time=12
note_on channel=0 note=51 velocity=0 time=51
note_on channel=0 note=41 velocity=0 time=0
note_on channel=0 note=63 velocity=52 time=0
note_on channel=0 note=41 velocity=50 time=0
note_on channel=0 note=48 velocity=50 time=0
note_on channel=0 note=62 velocity=0 time=12
note_on channel=0 note=64 velocity=45 time=123
note_on channel=0 note=63 velocity=0 time=12
note_on channel=0 note=65 velocity=43 time=75
note_on channel=0 note=64 velocity=0 time=12
note_on channel=0 note=67 velocity=41 time=27
note_on channel=0 note=65 velocity=0 time=12
note_on channel=0 note=48 velocity=0 time=37
note_on channel=0 note=41 velocity=0 time=0
note_on channel=0 note=69 velocity=45 time=0
note_on channel=0 note=41 velocity=42 time=0
note_on channel=0 note=46 velocity=42 time=0
note_on channel=0 note=67 velocity=0 time=1
note_on channel=0 note=70 velocity=41 time=13
note_on channel=0 note=69 velocity=0 time=1
note_on channel=0 note=72 velocity=38 time=13
note_on channel=0 note=70 velocity=0 time=1
note_on channel=0 note=74 velocity=38 time=0
note_on channel=0 note=72 velocity=0 time=12
note_on channel=0 note=46 velocity=0 time=0
note_on channel=0 note=41 velocity=0 time=0
note_on channel=0 note=63 velocity=38 time=0
note_on channel=0 note=72 velocity=38 time=0
note_on channel=0 note=75 velocity=45 time=0
note_on channel=0 note=41 velocity=20 time=0
note_on channel=0 note=45 velocity=20 time=0
note_on channel=0 note=53 velocity=25 time=0
note_on channel=0 note=74 velocity=0 time=12
control_change channel=0 control=64 value=127 time=655
control_change channel=0 control=64 value=0 time=2256
note_on channel=0 note=45 velocity=0 time=197
note_on channel=0 note=72 velocity=0 time=0
note_on channel=0 note=75 velocity=0 time=0
note_on channel=0 note=63 velocity=0 time=0
note_on channel=0 note=53 velocity=0 time=0
note_on channel=0 note=41 velocity=0 time=0
note_on channel=0 note=58 velocity=42 time=0
note_on channel=0 note=62 velocity=50 time=0
note_on channel=0 note=58 velocity=0 time=120
note_on channel=0 note=57 velocity=40 time=0
note_on channel=0 note=57 velocity=0 time=120
note_on channel=0 note=58 velocity=45 time=0
note_on channel=0 note=58 velocity=0 time=0
note_on channel=0 note=53 velocity=39 time=0
note_on channel=0 note=53 velocity=0 time=0
note_on channel=0 note=62 velocity=0 time=0
note_on channel=0 note=62 velocity=35 time=0
note_on channel=0 note=65 velocity=42 time=0
note_on channel=0 note=34 velocity=30 time=0
note_on channel=0 note=46 velocity=36 time=0
note_on channel=0 note=46 velocity=0 time=90
note_on channel=0 note=62 velocity=0 time=0
note_on channel=0 note=65 velocity=0 time=0
note_on channel=0 note=34 velocity=0 time=0
note_on channel=0 note=58 velocity=32 time=390
note_on channel=0 note=62 velocity=38 time=0
note_on channel=0 note=34 velocity=27 time=0
note_on channel=0 note=46 velocity=32 time=0
note_on channel=0 note=46 velocity=0 time=90
note_on channel=0 note=58 velocity=0 time=0
note_on channel=0 note=62 velocity=0 time=0
note_on channel=0 note=34 velocity=0 time=0
note_on channel=0 note=58 velocity=42 time=0
note_on channel=0 note=62 velocity=50 time=0
note_on channel=0 note=58 velocity=0 time=120
note_on channel=0 note=57 velocity=40 time=0
note_on channel=0 note=57 velocity=0 time=120
note_on channel=0 note=58 velocity=45 time=0
note_on channel=0 note=58 velocity=0 time=0
note_on channel=0 note=53 velocity=39 time=0
note_on channel=0 note=53 velocity=0 time=0
note_on channel=0 note=62 velocity=0 time=0
note_on channel=0 note=62 velocity=35 time=0
note_on channel=0 note=65 velocity=42 time=0
note_on channel=0 note=34 velocity=30 time=0
note_on channel=0 note=46 velocity=36 time=0
note_on channel=0 note=46 velocity=0 time=90
note_on channel=0 note=62 velocity=0 time=0
note_on channel=0 note=65 velocity=0 time=0
note_on channel=0 note=34 velocity=0 time=0
note_on channel=0 note=58 velocity=32 time=390
note_on channel=0 note=62 velocity=38 time=0
note_on channel=0 note=34 velocity=27 time=0
note_on channel=0 note=46 velocity=32 time=0
note_on channel=0 note=46 velocity=0 time=90
note_on channel=0 note=58 velocity=0 time=0
note_on channel=0 note=62 velocity=0 time=0
note_on channel=0 note=34 velocity=0 time=0
note_on channel=0 note=62 velocity=50 time=0
note_on channel=0 note=58 velocity=42 time=0
note_on channel=0 note=57 velocity=40 time=120
note_on channel=0 note=58 velocity=0 time=12
note_on channel=0 note=62 velocity=0 time=108
note_on channel=0 note=58 velocity=46 time=0
note_on channel=0 note=57 velocity=0 time=12
note_on channel=0 note=53 velocity=40 time=108
note_on channel=0 note=58 velocity=0 time=12
note_on channel=0 note=53 velocity=0 time=0
note_on channel=0 note=65 velocity=53 time=0
note_on channel=0 note=62 velocity=44 time=0
note_on channel=0 note=61 velocity=42 time=120
note_on channel=0 note=62 velocity=0 time=12
note_on channel=0 note=65 velocity=0 time=108
note_on channel=0 note=62 velocity=49 time=0
note_on channel=0 note=61 velocity=0 time=12
note_on channel=0 note=58 velocity=42 time=108
note_on channel=0 note=62 velocity=0 time=12
note_on channel=0 note=58 velocity=0 time=0
note_on channel=0 note=65 velocity=47 time=0
note_on channel=0 note=70 velocity=56 time=0
note_on channel=0 note=64 velocity=45 time=120
note_on channel=0 note=65 velocity=0 time=12
note_on channel=0 note=70 velocity=0 time=108
note_on channel=0 note=65 velocity=51 time=0
note_on channel=0 note=64 velocity=0 time=12
note_on channel=0 note=62 velocity=45 time=108
note_on channel=0 note=65 velocity=0 time=12
note_on channel=0 note=62 velocity=0 time=0
note_on channel=0 note=70 velocity=49 time=0
note_on channel=0 note=74 velocity=59 time=0
note_on channel=0 note=69 velocity=47 time=111
note_on channel=0 note=70 velocity=0 time=12
note_on channel=0 note=74 velocity=0 time=108
note_on channel=0 note=70 velocity=54 time=0
note_on channel=0 note=69 velocity=0 time=12
note_on channel=0 note=65 velocity=47 time=108
note_on channel=0 note=70 velocity=0 time=12
note_on channel=0 note=65 velocity=0 time=0
note_on channel=0 note=74 velocity=52 time=0
note_on channel=0 note=77 velocity=62 time=0
note_on channel=0 note=73 velocity=50 time=120
note_on channel=0 note=74 velocity=0 time=12
note_on channel=0 note=77 velocity=0 time=108
note_on channel=0 note=74 velocity=57 time=0
note_on channel=0 note=73 velocity=0 time=12
note_on channel=0 note=70 velocity=49 time=0
note_on channel=0 note=74 velocity=0 time=12
note_on channel=0 note=70 velocity=0 time=0
note_on channel=0 note=82 velocity=72 time=0
note_on channel=0 note=46 velocity=44 time=0
control_change channel=0 control=64 value=127 time=71
note_on channel=0 note=46 velocity=0 time=49
note_on channel=0 note=50 velocity=31 time=0
note_on channel=0 note=50 velocity=0 time=120
note_on channel=0 note=53 velocity=31 time=0
note_on channel=0 note=53 velocity=0 time=120
note_on channel=0 note=58 velocity=31 time=0
note_on channel=0 note=58 velocity=0 time=120
note_on channel=0 note=46 velocity=44 time=0
note_on channel=0 note=46 velocity=0 time=120
note_on channel=0 note=50 velocity=32 time=0
note_on channel=0 note=50 velocity=0 time=120
note_on channel=0 note=53 velocity=32 time=0
note_on channel=0 note=53 velocity=0 time=120
note_on channel=0 note=58 velocity=32 time=0
note_on channel=0 note=58 velocity=0 time=120
note_on channel=0 note=46 velocity=44 time=0
note_on channel=0 note=46 velocity=0 time=120
note_on channel=0 note=50 velocity=33 time=0
note_on channel=0 note=50 velocity=0 time=120
note_on channel=0 note=53 velocity=33 time=0
note_on channel=0 note=53 velocity=0 time=120
note_on channel=0 note=58 velocity=33 time=0
note_on channel=0 note=58 velocity=0 time=120
note_on channel=0 note=82 velocity=0 time=0
note_on channel=0 note=81 velocity=60 time=0
note_on channel=0 note=46 velocity=44 time=0
note_on channel=0 note=46 velocity=0 time=120
note_on channel=0 note=81 velocity=0 time=0
note_on channel=0 note=82 velocity=57 time=0
note_on channel=0 note=50 velocity=33 time=0
note_on channel=0 note=50 velocity=0 time=120
note_on channel=0 note=82 velocity=0 time=0
note_on channel=0 note=84 velocity=60 time=0
note_on channel=0 note=53 velocity=33 time=0
note_on channel=0 note=53 velocity=0 time=0
note_on channel=0 note=84 velocity=0 time=0
note_on channel=0 note=82 velocity=54 time=0
note_on channel=0 note=58 velocity=33 time=0
note_on channel=0 note=58 velocity=0 time=0
note_on channel=0 note=82 velocity=0 time=0
note_on channel=0 note=81 velocity=60 time=0
note_on channel=0 note=46 velocity=44 time=0
control_change channel=0 control=64 value=0 time=37
control_change channel=0 control=64 value=127 time=76
note_on channel=0 note=46 velocity=0 time=7
note_on channel=0 note=51 velocity=31 time=0
note_on channel=0 note=51 velocity=0 time=120
note_on channel=0 note=81 velocity=0 time=0
note_on channel=0 note=79 velocity=51 time=0
note_on channel=0 note=55 velocity=31 time=0
note_on channel=0 note=55 velocity=0 time=120
note_on channel=0 note=58 velocity=31 time=0
note_on channel=0 note=58 velocity=0 time=120
note_on channel=0 note=79 velocity=0 time=0
note_on channel=0 note=77 velocity=54 time=0
note_on channel=0 note=46 velocity=42 time=0
note_on channel=0 note=46 velocity=0 time=120
note_on channel=0 note=51 velocity=28 time=0
note_on channel=0 note=51 velocity=0 time=120
note_on channel=0 note=77 velocity=0 time=0
note_on channel=0 note=75 velocity=50 time=0
note_on channel=0 note=55 velocity=28 time=0
note_on channel=0 note=55 velocity=0 time=120
note_on channel=0 note=58 velocity=28 time=0
note_on channel=0 note=58 velocity=0 time=120
note_on channel=0 note=75 velocity=0 time=0
note_on channel=0 note=74 velocity=59 time=0
note_on channel=0 note=46 velocity=41 time=0
control_change channel=0 control=64 value=0 time=14
note_on channel=0 note=46 velocity=0 time=106
note_on channel=0 note=51 velocity=29 time=0
control_change channel=0 control=64 value=127 time=21
note_on channel=0 note=51 velocity=0 time=99
note_on channel=0 note=74 velocity=0 time=0
note_on channel=0 note=72 velocity=48 time=0
note_on channel=0 note=53 velocity=29 time=0
note_on channel=0 note=53 velocity=0 time=120
note_on channel=0 note=57 velocity=29 time=0
note_on channel=0 note=57 velocity=0 time=120
note_on channel=0 note=72 velocity=0 time=0
note_on channel=0 note=79 velocity=56 time=0
note_on channel=0 note=46 velocity=41 time=0
note_on channel=0 note=46 velocity=0 time=120
note_on channel=0 note=51 velocity=31 time=0
note_on channel=0 note=51 velocity=0 time=120
note_on channel=0 note=79 velocity=0 time=0
note_on channel=0 note=77 velocity=47 time=0
note_on channel=0 note=53 velocity=31 time=0
note_on channel=0 note=53 velocity=0 time=0
note_on channel=0 note=57 velocity=31 time=0
note_on channel=0 note=57 velocity=0 time=0
note_on channel=0 note=77 velocity=0 time=0
note_on channel=0 note=75 velocity=54 time=0
note_on channel=0 note=46 velocity=44 time=0
control_change channel=0 control=64 value=0 time=9
control_change channel=0 control=64 value=127 time=83
note_on channel=0 note=46 velocity=0 time=28
note_on channel=0 note=50 velocity=31 time=0
note_on channel=0 note=50 velocity=0 time=120
note_on channel=0 note=53 velocity=31 time=0
note_on channel=0 note=53 velocity=0 time=120
note_on channel=0 note=58 velocity=31 time=0
note_on channel=0 note=58 velocity=0 time=120
note_on channel=0 note=75 velocity=0 time=0
note_on channel=0 note=74 velocity=47 time=0
note_on channel=0 note=46 velocity=44 time=0
control_change channel=0 control=64 value=0 time=17
control_change channel=0 control=64 value=127 time=96
note_on channel=0 note=46 velocity=0 time=7
note_on channel=0 note=50 velocity=32 time=0
note_on channel=0 note=50 velocity=0 time=120
note_on channel=0 note=53 velocity=32 time=0
note_on channel=0 note=53 velocity=0 time=120
note_on channel=0 note=58 velocity=32 time=0
control_change channel=0 control=64 value=0 time=99
note_on channel=0 note=58 velocity=0 time=0
note_on channel=0 note=74 velocity=0 time=0
note_on channel=0 note=46 velocity=44 time=0
control_change channel=0 control=64 value=127 time=46
note_on channel=0 note=46 velocity=0 time=74
note_on channel=0 note=50 velocity=32 time=0
note_on channel=0 note=50 velocity=0 time=120
note_on channel=0 note=53 velocity=32 time=0
note_on channel=0 note=53 velocity=0 time=120
note_on channel=0 note=56 velocity=32 time=0
note_on channel=0 note=56 velocity=0 time=120
note_on channel=0 note=69 velocity=58 time=0
note_on channel=0 note=46 velocity=44 time=0
note_on channel=0 note=46 velocity=0 time=120
note_on channel=0 note=69 velocity=0 time=0
note_on channel=0 note=70 velocity=54 time=0
note_on channel=0 note=50 velocity=32 time=0
note_on channel=0 note=50 velocity=0 time=120
note_on channel=0 note=70 velocity=0 time=0
note_on channel=0 note=72 velocity=58 time=0
note_on channel=0 note=53 velocity=32 time=0
note_on channel=0 note=53 velocity=0 time=120
note_on channel=0 note=72 velocity=0 time=0
note_on channel=0 note=70 velocity=54 time=0
note_on channel=0 note=56 velocity=32 time=0
note_on channel=0 note=56 velocity=0 time=0
note_on channel=0 note=70 velocity=0 time=0
note_on channel=0 note=68 velocity=60 time=0
note_on channel=0 note=46 velocity=44 time=0
control_change channel=0 control=64 value=0 time=0
control_change channel=0 control=64 value=127 time=85
note_on channel=0 note=46 velocity=0 time=35
note_on channel=0 note=51 velocity=32 time=0
note_on channel=0 note=51 velocity=0 time=120
note_on channel=0 note=68 velocity=0 time=0
note_on channel=0 note=67 velocity=54 time=0
note_on channel=0 note=55 velocity=32 time=0
note_on channel=0 note=55 velocity=0 time=120
note_on channel=0 note=51 velocity=32 time=0
note_on channel=0 note=51 velocity=0 time=120
note_on channel=0 note=67 velocity=0 time=0
note_on channel=0 note=65 velocity=66 time=0
note_on channel=0 note=46 velocity=44 time=0
control_change channel=0 control=64 value=0 time=9
control_change channel=0 control=64 value=127 time=104
note_on channel=0 note=46 velocity=0 time=7
note_on channel=0 note=51 velocity=36 time=0
note_on channel=0 note=51 velocity=0 time=120
note_on channel=0 note=65 velocity=0 time=0
note_on channel=0 note=63 velocity=61 time=0
note_on channel=0 note=55 velocity=36 time=0
note_on channel=0 note=55 velocity=0 time=0
note_on channel=0 note=51 velocity=36 time=0
note_on channel=0 note=51 velocity=0 time=0
note_on channel=0 note=63 velocity=0 time=0
note_on channel=0 note=62 velocity=69 time=0
note_on channel=0 note=46 velocity=48 time=0
control_change channel=0 control=64 value=0 time=13
control_change channel=0 control=64 value=127 time=79
note_on channel=0 note=46 velocity=0 time=28
note_on channel=0 note=48 velocity=37 time=0
note_on channel=0 note=48 velocity=0 time=120
note_on channel=0 note=62 velocity=0 time=0
note_on channel=0 note=60 velocity=62 time=0
note_on channel=0 note=51 velocity=38 time=0
note_on channel=0 note=51 velocity=0 time=120
note_on channel=0 note=53 velocity=40 time=0
note_on channel=0 note=53 velocity=0 time=120
note_on channel=0 note=60 velocity=0 time=0
note_on channel=0 note=63 velocity=73 time=0
note_on channel=0 note=46 velocity=50 time=0
control_change channel=0 control=64 value=0 time=14
control_change channel=0 control=64 value=127 time=78
note_on channel=0 note=46 velocity=0 time=28
note_on channel=0 note=48 velocity=40 time=0
note_on channel=0 note=48 velocity=0 time=120
note_on channel=0 note=63 velocity=0 time=0
note_on channel=0 note=57 velocity=63 time=0
note_on channel=0 note=51 velocity=39 time=0
note_on channel=0 note=51 velocity=0 time=0
note_on channel=0 note=53 velocity=43 time=0
note_on channel=0 note=53 velocity=0 time=0
note_on channel=0 note=57 velocity=0 time=0
note_on channel=0 note=58 velocity=79 time=0
note_on channel=0 note=46 velocity=60 time=0
control_change channel=0 control=64 value=0 time=0
note_on channel=0 note=46 velocity=0 time=120
note_on channel=0 note=58 velocity=0 time=0
note_on channel=0 note=62 velocity=68 time=0
note_on channel=0 note=62 velocity=0 time=120
note_on channel=0 note=60 velocity=65 time=0
note_on channel=0 note=60 velocity=0 time=120
note_on channel=0 note=58 velocity=71 time=0
note_on channel=0 note=46 velocity=53 time=0
note_on channel=0 note=46 velocity=0 time=120
note_on channel=0 note=58 velocity=0 time=0
note_on channel=0 note=57 velocity=65 time=0
note_on channel=0 note=45 velocity=46 time=0
note_on channel=0 note=45 velocity=0 time=120
note_on channel=0 note=57 velocity=0 time=0
note_on channel=0 note=58 velocity=71 time=0
note_on channel=0 note=46 velocity=53 time=0
note_on channel=0 note=46 velocity=0 time=120
note_on channel=0 note=58 velocity=0 time=0
note_on channel=0 note=55 velocity=65 time=0
note_on channel=0 note=43 velocity=46 time=0
note_on channel=0 note=43 velocity=0 time=0
note_on channel=0 note=55 velocity=0 time=0
note_on channel=0 note=53 velocity=79 time=0
note_on channel=0 note=41 velocity=60 time=0
note_on channel=0 note=41 velocity=0 time=0
note_on channel=0 note=53 velocity=0 time=0
note_on channel=0 note=67 velocity=68 time=0
note_on channel=0 note=67 velocity=0 time=120
note_on channel=0 note=65 velocity=65 time=0
note_on channel=0 note=65 velocity=0 time=120
note_on channel=0 note=63 velocity=71 time=0
note_on channel=0 note=51 velocity=53 time=0
control_change channel=0 control=64 value=127 time=71
note_on channel=0 note=51 velocity=0 time=49
note_on channel=0 note=63 velocity=0 time=0
note_on channel=0 note=62 velocity=65 time=0
note_on channel=0 note=50 velocity=46 time=0
note_on channel=0 note=50 velocity=0 time=120
note_on channel=0 note=62 velocity=0 time=0
note_on channel=0 note=63 velocity=71 time=0
note_on channel=0 note=51 velocity=53 time=0
note_on channel=0 note=51 velocity=0 time=120
note_on channel=0 note=63 velocity=0 time=0
note_on channel=0 note=60 velocity=65 time=0
note_on channel=0 note=48 velocity=46 time=0
note_on channel=0 note=48 velocity=0 time=0
note_on channel=0 note=60 velocity=0 time=0
note_on channel=0 note=58 velocity=79 time=0
note_on channel=0 note=46 velocity=60 time=0
control_change channel=0 control=64 value=0 time=0
note_on channel=0 note=46 velocity=0 time=0
note_on channel=0 note=58 velocity=0 time=0
note_on channel=0 note=74 velocity=68 time=0
note_on channel=0 note=74 velocity=0 time=120
note_on channel=0 note=72 velocity=65 time=0
note_on channel=0 note=72 velocity=0 time=120
note_on channel=0 note=70 velocity=71 time=0
note_on channel=0 note=58 velocity=53 time=0
control_change channel=0 control=64 value=127 time=43
note_on channel=0 note=58 velocity=0 time=77
note_on channel=0 note=70 velocity=0 time=0
note_on channel=0 note=69 velocity=65 time=0
note_on channel=0 note=57 velocity=46 time=0
note_on channel=0 note=57 velocity=0 time=120
note_on channel=0 note=69 velocity=0 time=0
note_on channel=0 note=70 velocity=71 time=0
note_on channel=0 note=58 velocity=53 time=0
note_on channel=0 note=58 velocity=0 time=120
note_on channel=0 note=70 velocity=0 time=0
note_on channel=0 note=67 velocity=65 time=0
note_on channel=0 note=55 velocity=46 time=0
note_on channel=0 note=55 velocity=0 time=0
note_on channel=0 note=67 velocity=0 time=0
note_on channel=0 note=65 velocity=79 time=0
note_on channel=0 note=53 velocity=60 time=0
control_change channel=0 control=64 value=0 time=50
note_on channel=0 note=53 velocity=0 time=0
note_on channel=0 note=65 velocity=0 time=0
note_on channel=0 note=79 velocity=78 time=0
note_on channel=0 note=79 velocity=0 time=120
note_on channel=0 note=77 velocity=74 time=0
note_on channel=0 note=77 velocity=0 time=120
note_on channel=0 note=75 velocity=81 time=0
note_on channel=0 note=63 velocity=60 time=0
note_on channel=0 note=63 velocity=0 time=120
note_on channel=0 note=75 velocity=0 time=0
note_on channel=0 note=74 velocity=74 time=0
note_on channel=0 note=62 velocity=52 time=0
control_change channel=0 control=64 value=127 time=0
note_on channel=0 note=62 velocity=0 time=120
note_on channel=0 note=74 velocity=0 time=0
note_on channel=0 note=75 velocity=81 time=0
note_on channel=0 note=63 velocity=60 time=0
note_on channel=0 note=63 velocity=0 time=120
note_on channel=0 note=75 velocity=0 time=0
note_on channel=0 note=72 velocity=74 time=0
note_on channel=0 note=60 velocity=52 time=0
note_on channel=0 note=60 velocity=0 time=0
note_on channel=0 note=72 velocity=0 time=0
note_on channel=0 note=70 velocity=90 time=0
note_on channel=0 note=58 velocity=69 time=0
control_change channel=0 control=64 value=0 time=0
note_on channel=0 note=58 velocity=0 time=120
note_on channel=0 note=70 velocity=0 time=0
note_on channel=0 note=72 velocity=68 time=0
note_on channel=0 note=60 velocity=53 time=0
control_change channel=0 control=64 value=127 time=13
note_on channel=0 note=60 velocity=0 time=107
note_on channel=0 note=72 velocity=0 time=0
note_on channel=0 note=74 velocity=68 time=0
note_on channel=0 note=62 velocity=48 time=0
note_on channel=0 note=62 velocity=0 time=120
note_on channel=0 note=74 velocity=0 time=0
note_on channel=0 note=75 velocity=77 time=0
note_on channel=0 note=63 velocity=54 time=0
note_on channel=0 note=63 velocity=0 time=120
note_on channel=0 note=75 velocity=0 time=0
note_on channel=0 note=77 velocity=70 time=0
note_on channel=0 note=65 velocity=48 time=0
note_on channel=0 note=65 velocity=0 time=120
note_on channel=0 note=77 velocity=0 time=0
note_on channel=0 note=79 velocity=70 time=0
note_on channel=0 note=67 velocity=48 time=0
note_on channel=0 note=67 velocity=0 time=120
note_on channel=0 note=79 velocity=0 time=0
note_on channel=0 note=81 velocity=71 time=0
note_on channel=0 note=69 velocity=49 time=0
note_on channel=0 note=69 velocity=0 time=9
note_on channel=0 note=81 velocity=0 time=0
note_on channel=0 note=82 velocity=73 time=0
note_on channel=0 note=70 velocity=56 time=0
control_change channel=0 control=64 value=0 time=22
note_on channel=0 note=82 velocity=0 time=8
note_on channel=0 note=84 velocity=65 time=0
note_on channel=0 note=84 velocity=0 time=11
note_on channel=0 note=82 velocity=81 time=0
control_change channel=0 control=64 value=127 time=0
note_on channel=0 note=82 velocity=0 time=14
note_on channel=0 note=70 velocity=0 time=0
note_on channel=0 note=81 velocity=72 time=0
note_on channel=0 note=69 velocity=50 time=0
note_on channel=0 note=69 velocity=0 time=18
note_on channel=0 note=81 velocity=0 time=0
note_on channel=0 note=82 velocity=73 time=0
note_on channel=0 note=70 velocity=50 time=0
note_on channel=0 note=70 velocity=0 time=42
note_on channel=0 note=82 velocity=0 time=0
note_on channel=0 note=84 velocity=74 time=0
note_on channel=0 note=72 velocity=51 time=0
note_on channel=0 note=72 velocity=0 time=9
note_on channel=0 note=84 velocity=0 time=0
note_on channel=0 note=86 velocity=74 time=0
note_on channel=0 note=74 velocity=58 time=0
control_change channel=0 control=64 value=0 time=10
note_on channel=0 note=86 velocity=0 time=0
note_on channel=0 note=87 velocity=66 time=0
control_change channel=0 control=64 value=127 time=24
note_on channel=0 note=87 velocity=0 time=6
note_on channel=0 note=86 velocity=83 time=0
note_on channel=0 note=74 velocity=0 time=33
note_on channel=0 note=84 velocity=75 time=0
note_on channel=0 note=72 velocity=52 time=0
note_on channel=0 note=86 velocity=0 time=16
note_on channel=0 note=72 velocity=0 time=18
note_on channel=0 note=84 velocity=0 time=0
note_on channel=0 note=86 velocity=76 time=0
note_on channel=0 note=74 velocity=52 time=0
note_on channel=0 note=74 velocity=0 time=0
note_on channel=0 note=86 velocity=0 time=0
note_on channel=0 note=88 velocity=76 time=0
note_on channel=0 note=76 velocity=53 time=0
note_on channel=0 note=76 velocity=0 time=0
note_on channel=0 note=88 velocity=0 time=0
note_on channel=0 note=89 velocity=94 time=0
note_on channel=0 note=77 velocity=73 time=0
control_change channel=0 control=64 value=0 time=7
note_on channel=0 note=77 velocity=0 time=113
note_on channel=0 note=89 velocity=0 time=0
note_on channel=0 note=65 velocity=79 time=360
note_on channel=0 note=53 velocity=60 time=0
note_on channel=0 note=53 velocity=0 time=120
note_on channel=0 note=65 velocity=0 time=0
note_on channel=0 note=46 velocity=54 time=0
note_on channel=0 note=50 velocity=65 time=0
note_on channel=0 note=46 velocity=0 time=120
note_on channel=0 note=45 velocity=52 time=0
note_on channel=0 note=45 velocity=0 time=120
note_on channel=0 note=46 velocity=58 time=0
note_on channel=0 note=46 velocity=0 time=0
note_on channel=0 note=41 velocity=50 time=0
note_on channel=0 note=41 velocity=0 time=0
note_on channel=0 note=50 velocity=0 time=0
note_on channel=0 note=50 velocity=65 time=0
note_on channel=0 note=53 velocity=65 time=0
note_on channel=0 note=53 velocity=0 time=120
note_on channel=0 note=50 velocity=0 time=0
note_on channel=0 note=62 velocity=54 time=0
note_on channel=0 note=65 velocity=65 time=0
note_on channel=0 note=46 velocity=58 time=0
note_on channel=0 note=50 velocity=58 time=0
note_on channel=0 note=50 velocity=0 time=120
note_on channel=0 note=46 velocity=0 time=0
note_on channel=0 note=62 velocity=0 time=0
note_on channel=0 note=61 velocity=52 time=0
note_on channel=0 note=61 velocity=0 time=120
note_on channel=0 note=62 velocity=58 time=0
note_on channel=0 note=62 velocity=0 time=0
note_on channel=0 note=58 velocity=50 time=0
note_on channel=0 note=58 velocity=0 time=0
note_on channel=0 note=65 velocity=0 time=0
note_on channel=0 note=65 velocity=65 time=0
note_on channel=0 note=74 velocity=65 time=0
note_on channel=0 note=74 velocity=0 time=120
note_on channel=0 note=65 velocity=0 time=0
note_on channel=0 note=62 velocity=58 time=0
note_on channel=0 note=70 velocity=58 time=0
note_on channel=0 note=46 velocity=54 time=0
note_on channel=0 note=50 velocity=65 time=0
note_on channel=0 note=46 velocity=0 time=120
note_on channel=0 note=62 velocity=0 time=0
note_on channel=0 note=70 velocity=0 time=0
note_on channel=0 note=45 velocity=52 time=0
note_on channel=0 note=45 velocity=0 time=120
note_on channel=0 note=46 velocity=58 time=0
note_on channel=0 note=46 velocity=0 time=0
note_on channel=0 note=41 velocity=50 time=0
note_on channel=0 note=41 velocity=0 time=0
note_on channel=0 note=50 velocity=0 time=0
note_on channel=0 note=50 velocity=65 time=0
note_on channel=0 note=53 velocity=65 time=0
note_on channel=0 note=53 velocity=0 time=120
note_on channel=0 note=50 velocity=0 time=0
note_on channel=0 note=62 velocity=54 time=0
note_on channel=0 note=65 velocity=65 time=0
note_on channel=0 note=46 velocity=58 time=0
note_on channel=0 note=50 velocity=58 time=0
note_on channel=0 note=50 velocity=0 time=120
note_on channel=0 note=46 velocity=0 time=0
note_on channel=0 note=62 velocity=0 time=0
note_on channel=0 note=61 velocity=52 time=0
note_on channel=0 note=61 velocity=0 time=120
note_on channel=0 note=62 velocity=58 time=0
note_on channel=0 note=62 velocity=0 time=0
note_on channel=0 note=58 velocity=50 time=0
note_on channel=0 note=58 velocity=0 time=0
note_on channel=0 note=65 velocity=0 time=0
note_on channel=0 note=65 velocity=65 time=0
note_on channel=0 note=74 velocity=65 time=0
note_on channel=0 note=74 velocity=0 time=120
note_on channel=0 note=65 velocity=0 time=0
note_on channel=0 note=62 velocity=58 time=0
note_on channel=0 note=70 velocity=58 time=0
note_on channel=0 note=50 velocity=65 time=0
note_on channel=0 note=50 velocity=0 time=120
note_on channel=0 note=70 velocity=0 time=0
note_on channel=0 note=62 velocity=0 time=0
note_on channel=0 note=49 velocity=57 time=0
note_on channel=0 note=49 velocity=0 time=120
note_on channel=0 note=50 velocity=62 time=0
note_on channel=0 note=50 velocity=0 time=0
note_on channel=0 note=46 velocity=55 time=0
note_on channel=0 note=46 velocity=0 time=0
note_on channel=0 note=53 velocity=65 time=0
note_on channel=0 note=53 velocity=0 time=120
note_on channel=0 note=52 velocity=58 time=0
note_on channel=0 note=52 velocity=0 time=120
note_on channel=0 note=53 velocity=63 time=0
note_on channel=0 note=53 velocity=0 time=0
note_on channel=0 note=50 velocity=57 time=0
note_on channel=0 note=50 velocity=0 time=0
note_on channel=0 note=58 velocity=65 time=0
note_on channel=0 note=58 velocity=0 time=120
note_on channel=0 note=57 velocity=58 time=0
note_on channel=0 note=57 velocity=0 time=120
note_on channel=0 note=58 velocity=63 time=0
note_on channel=0 note=58 velocity=0 time=0
note_on channel=0 note=53 velocity=57 time=0
note_on channel=0 note=53 velocity=0 time=0
note_on channel=0 note=62 velocity=65 time=0
note_on channel=0 note=62 velocity=0 time=120
note_on channel=0 note=61 velocity=58 time=0
note_on channel=0 note=61 velocity=0 time=120
note_on channel=0 note=62 velocity=63 time=0
note_on channel=0 note=62 velocity=0 time=0
note_on channel=0 note=58 velocity=57 time=0
note_on channel=0 note=58 velocity=0 time=0
note_on channel=0 note=65 velocity=63 time=0
note_on channel=0 note=65 velocity=0 time=120
note_on channel=0 note=64 velocity=58 time=0
note_on channel=0 note=64 velocity=0 time=120
note_on channel=0 note=65 velocity=62 time=0
note_on channel=0 note=65 velocity=0 time=0
note_on channel=0 note=62 velocity=57 time=0
note_on channel=0 note=62 velocity=0 time=0
note_on channel=0 note=68 velocity=75 time=0
note_on channel=0 note=68 velocity=0 time=360
note_on channel=0 note=67 velocity=63 time=0
note_on channel=0 note=67 velocity=0 time=0
note_on channel=0 note=80 velocity=75 time=0
note_on channel=0 note=65 velocity=71 time=0
note_on channel=0 note=65 velocity=0 time=360
note_on channel=0 note=63 velocity=63 time=0
note_on channel=0 note=63 velocity=0 time=120
note_on channel=0 note=62 velocity=72 time=0
note_on channel=0 note=62 velocity=0 time=0
note_on channel=0 note=60 velocity=63 time=0
note_on channel=0 note=60 velocity=0 time=0
note_on channel=0 note=74 velocity=56 time=0
note_on channel=0 note=59 velocity=72 time=0
control_change channel=0 control=64 value=127 time=183
note_on channel=0 note=79 velocity=53 time=0
control_change channel=0 control=64 value=0 time=412
note_on channel=0 note=59 velocity=0 time=0
note_on channel=0 note=80 velocity=0 time=0
note_on channel=0 note=74 velocity=0 time=0
note_on channel=0 note=75 velocity=44 time=0
note_on channel=0 note=60 velocity=48 time=0
control_change channel=0 control=64 value=127 time=160
note_on channel=0 note=60 velocity=0 time=0
note_on channel=0 note=75 velocity=0 time=0
note_on channel=0 note=79 velocity=0 time=0
note_on channel=0 note=72 velocity=41 time=0
note_on channel=0 note=77 velocity=49 time=0
note_on channel=0 note=57 velocity=42 time=0
control_change channel=0 control=64 value=0 time=15
control_change channel=0 control=64 value=127 time=214
note_on channel=0 note=57 velocity=0 time=0
note_on channel=0 note=72 velocity=0 time=0
note_on channel=0 note=74 velocity=55 time=0
note_on channel=0 note=58 velocity=51 time=0
control_change channel=0 control=64 value=0 time=8
control_change channel=0 control=64 value=127 time=221
note_on channel=0 note=58 velocity=0 time=251
note_on channel=0 note=74 velocity=0 time=0
note_on channel=0 note=77 velocity=0 time=0
note_on channel=0 note=71 velocity=41 time=0
note_on channel=0 note=75 velocity=49 time=0
note_on channel=0 note=55 velocity=44 time=0
control_change channel=0 control=64 value=0 time=15
control_change channel=0 control=64 value=127 time=191
note_on channel=0 note=55 velocity=0 time=274
note_on channel=0 note=71 velocity=0 time=0
note_on channel=0 note=72 velocity=55 time=0
note_on channel=0 note=56 velocity=52 time=0
control_change channel=0 control=64 value=0 time=16
control_change channel=0 control=64 value=127 time=236
note_on channel=0 note=56 velocity=0 time=0
note_on channel=0 note=72 velocity=0 time=0
note_on channel=0 note=75 velocity=0 time=0
note_on channel=0 note=69 velocity=42 time=0
note_on channel=0 note=74 velocity=50 time=0
note_on channel=0 note=54 velocity=34 time=0
control_change channel=0 control=64 value=0 time=15
control_change channel=0 control=64 value=127 time=214
note_on channel=0 note=54 velocity=0 time=0
note_on channel=0 note=69 velocity=0 time=0
note_on channel=0 note=70 velocity=55 time=0
note_on channel=0 note=55 velocity=51 time=0
control_change channel=0 control=64 value=0 time=8
control_change channel=0 control=64 value=127 time=221
note_on channel=0 note=55 velocity=0 time=251
note_on channel=0 note=70 velocity=0 time=0
note_on channel=0 note=74 velocity=0 time=0
note_on channel=0 note=67 velocity=41 time=0
note_on channel=0 note=72 velocity=49 time=0
note_on channel=0 note=52 velocity=44 time=0
control_change channel=0 control=64 value=0 time=15
control_change channel=0 control=64 value=127 time=191
note_on channel=0 note=52 velocity=0 time=274
note_on channel=0 note=67 velocity=0 time=0
note_on channel=0 note=68 velocity=55 time=0
note_on channel=0 note=53 velocity=52 time=0
control_change channel=0 control=64 value=0 time=16
control_change channel=0 control=64 value=127 time=236
note_on channel=0 note=53 velocity=0 time=0
note_on channel=0 note=68 velocity=0 time=0
note_on channel=0 note=72 velocity=0 time=0
note_on channel=0 note=65 velocity=42 time=0
note_on channel=0 note=70 velocity=50 time=0
note_on channel=0 note=50 velocity=34 time=0
control_change channel=0 control=64 value=0 time=15
control_change channel=0 control=64 value=127 time=214
note_on channel=0 note=50 velocity=0 time=0
note_on channel=0 note=65 velocity=0 time=0
note_on channel=0 note=67 velocity=55 time=0
note_on channel=0 note=51 velocity=51 time=0
control_change channel=0 control=64 value=0 time=8
control_change channel=0 control=64 value=127 time=221
note_on channel=0 note=51 velocity=0 time=251
note_on channel=0 note=67 velocity=0 time=0
note_on channel=0 note=70 velocity=0 time=0
note_on channel=0 note=63 velocity=41 time=0
note_on channel=0 note=69 velocity=49 time=0
note_on channel=0 note=48 velocity=44 time=0
control_change channel=0 control=64 value=0 time=15
control_change channel=0 control=64 value=127 time=191
note_on channel=0 note=48 velocity=0 time=274
note_on channel=0 note=69 velocity=0 time=0
note_on channel=0 note=63 velocity=0 time=0
note_on channel=0 note=70 velocity=50 time=0
note_on channel=0 note=62 velocity=55 time=0
note_on channel=0 note=50 velocity=52 time=0
control_change channel=0 control=64 value=0 time=16
control_change channel=0 control=64 value=127 time=236
note_on channel=0 note=62 velocity=0 time=218
note_on channel=0 note=50 velocity=0 time=0
note_on channel=0 note=70 velocity=0 time=0
note_on channel=0 note=58 velocity=42 time=0
note_on channel=0 note=62 velocity=42 time=0
note_on channel=0 note=52 velocity=34 time=0
control_change channel=0 control=64 value=0 time=15
control_change channel=0 control=64 value=127 time=214
note_on channel=0 note=52 velocity=0 time=0
note_on channel=0 note=62 velocity=0 time=0
note_on channel=0 note=58 velocity=0 time=0
note_on channel=0 note=57 velocity=60 time=0
note_on channel=0 note=60 velocity=68 time=0
note_on channel=0 note=41 velocity=51 time=0
control_change channel=0 control=64 value=0 time=0
control_change channel=0 control=64 value=127 time=97
note_on channel=0 note=41 velocity=0 time=143
note_on channel=0 note=60 velocity=0 time=0
note_on channel=0 note=57 velocity=0 time=0
note_on channel=0 note=65 velocity=62 time=0
note_on channel=0 note=53 velocity=42 time=0
note_on channel=0 note=65 velocity=0 time=120
note_on channel=0 note=57 velocity=33 time=0
note_on channel=0 note=60 velocity=39 time=0
note_on channel=0 note=53 velocity=0 time=17
note_on channel=0 note=60 velocity=0 time=103
note_on channel=0 note=57 velocity=0 time=0
note_on channel=0 note=65 velocity=64 time=0
note_on channel=0 note=53 velocity=42 time=0
note_on channel=0 note=65 velocity=0 time=120
note_on channel=0 note=57 velocity=34 time=0
note_on channel=0 note=60 velocity=41 time=0
note_on channel=0 note=53 velocity=0 time=17
note_on channel=0 note=60 velocity=0 time=103
note_on channel=0 note=57 velocity=0 time=0
note_on channel=0 note=67 velocity=68 time=0
note_on channel=0 note=53 velocity=42 time=0
note_on channel=0 note=67 velocity=0 time=0
note_on channel=0 note=57 velocity=34 time=0
note_on channel=0 note=60 velocity=40 time=0
note_on channel=0 note=53 velocity=0 time=17
note_on channel=0 note=60 velocity=0 time=0
note_on channel=0 note=57 velocity=0 time=0
note_on channel=0 note=69 velocity=62 time=0
note_on channel=0 note=53 velocity=51 time=0
control_change channel=0 control=64 value=0 time=15
control_change channel=0 control=64 value=127 time=77
note_on channel=0 note=69 velocity=0 time=28
note_on channel=0 note=60 velocity=38 time=0
note_on channel=0 note=63 velocity=45 time=0
note_on channel=0 note=53 velocity=0 time=17
note_on channel=0 note=63 velocity=0 time=103
note_on channel=0 note=60 velocity=0 time=0
note_on channel=0 note=65 velocity=68 time=0
note_on channel=0 note=53 velocity=43 time=0
control_change channel=0 control=64 value=0 time=12
control_change channel=0 control=64 value=127 time=97
note_on channel=0 note=65 velocity=0 time=11
note_on channel=0 note=60 velocity=38 time=0
note_on channel=0 note=63 velocity=45 time=0
note_on channel=0 note=53 velocity=0 time=17
note_on channel=0 note=63 velocity=0 time=103
note_on channel=0 note=60 velocity=0 time=0
note_on channel=0 note=67 velocity=68 time=0
note_on channel=0 note=53 velocity=43 time=0
control_change channel=0 control=64 value=0 time=11
control_change channel=0 control=64 value=127 time=58
note_on channel=0 note=67 velocity=0 time=51
note_on channel=0 note=60 velocity=38 time=0
note_on channel=0 note=63 velocity=45 time=0
note_on channel=0 note=53 velocity=0 time=17
note_on channel=0 note=63 velocity=0 time=103
note_on channel=0 note=60 velocity=0 time=0
note_on channel=0 note=69 velocity=70 time=0
note_on channel=0 note=53 velocity=43 time=0
control_change channel=0 control=64 value=0 time=13
control_change channel=0 control=64 value=127 time=96
note_on channel=0 note=69 velocity=0 time=0
note_on channel=0 note=60 velocity=38 time=0
note_on channel=0 note=63 velocity=45 time=0
note_on channel=0 note=53 velocity=0 time=17
note_on channel=0 note=63 velocity=0 time=0
note_on channel=0 note=60 velocity=0 time=0
note_on channel=0 note=70 velocity=68 time=0
note_on channel=0 note=53 velocity=51 time=0
control_change channel=0 control=64 value=0 time=0
control_change channel=0 control=64 value=127 time=97
note_on channel=0 note=70 velocity=0 time=23
note_on channel=0 note=58 velocity=34 time=0
note_on channel=0 note=61 velocity=40 time=0
note_on channel=0 note=53 velocity=0 time=17
note_on channel=0 note=61 velocity=0 time=103
note_on channel=0 note=58 velocity=0 time=0
note_on channel=0 note=70 velocity=62 time=0
note_on channel=0 note=53 velocity=42 time=0
note_on channel=0 note=70 velocity=0 time=120
note_on channel=0 note=58 velocity=33 time=0
note_on channel=0 note=61 velocity=39 time=0
note_on channel=0 note=53 velocity=0 time=17
note_on channel=0 note=61 velocity=0 time=103
note_on channel=0 note=58 velocity=0 time=0
note_on channel=0 note=70 velocity=64 time=0
note_on channel=0 note=53 velocity=42 time=0
note_on channel=0 note=70 velocity=0 time=120
note_on channel=0 note=58 velocity=34 time=0
note_on channel=0 note=61 velocity=41 time=0
note_on channel=0 note=53 velocity=0 time=17
note_on channel=0 note=61 velocity=0 time=103
note_on channel=0 note=58 velocity=0 time=0
note_on channel=0 note=68 velocity=68 time=0
note_on channel=0 note=53 velocity=42 time=0
note_on channel=0 note=68 velocity=0 time=0
note_on channel=0 note=58 velocity=34 time=0
note_on channel=0 note=61 velocity=40 time=0
note_on channel=0 note=53 velocity=0 time=17
note_on channel=0 note=61 velocity=0 time=0
note_on channel=0 note=58 velocity=0 time=0
note_on channel=0 note=67 velocity=62 time=0
note_on channel=0 note=53 velocity=51 time=0
control_change channel=0 control=64 value=0 time=15
control_change channel=0 control=64 value=127 time=77
note_on channel=0 note=67 velocity=0 time=28
note_on channel=0 note=58 velocity=38 time=0
note_on channel=0 note=61 velocity=45 time=0
note_on channel=0 note=53 velocity=0 time=17
note_on channel=0 note=61 velocity=0 time=103
note_on channel=0 note=58 velocity=0 time=0
note_on channel=0 note=65 velocity=68 time=0
note_on channel=0 note=53 velocity=43 time=0
control_change channel=0 control=64 value=0 time=12
control_change channel=0 control=64 value=127 time=97
note_on channel=0 note=65 velocity=0 time=11
note_on channel=0 note=58 velocity=38 time=0
note_on channel=0 note=61 velocity=45 time=0
note_on channel=0 note=53 velocity=0 time=17
note_on channel=0 note=61 velocity=0 time=103
note_on channel=0 note=58 velocity=0 time=0
note_on channel=0 note=64 velocity=68 time=0
note_on channel=0 note=53 velocity=43 time=0
control_change channel=0 control=64 value=0 time=11
control_change channel=0 control=64 value=127 time=58
note_on channel=0 note=64 velocity=0 time=51
note_on channel=0 note=58 velocity=38 time=0
note_on channel=0 note=61 velocity=45 time=0
note_on channel=0 note=53 velocity=0 time=17
note_on channel=0 note=61 velocity=0 time=103
note_on channel=0 note=58 velocity=0 time=0
note_on channel=0 note=67 velocity=70 time=0
note_on channel=0 note=53 velocity=43 time=0
control_change channel=0 control=64 value=0 time=13
control_change channel=0 control=64 value=127 time=96
note_on channel=0 note=67 velocity=0 time=0
note_on channel=0 note=58 velocity=38 time=0
note_on channel=0 note=61 velocity=45 time=0
note_on channel=0 note=53 velocity=0 time=24
note_on channel=0 note=61 velocity=0 time=0
note_on channel=0 note=58 velocity=0 time=0
note_on channel=0 note=60 velocity=60 time=0
note_on channel=0 note=57 velocity=60 time=0
note_on channel=0 note=65 velocity=68 time=0
note_on channel=0 note=41 velocity=46 time=0
note_on channel=0 note=53 velocity=51 time=0
control_change channel=0 control=64 value=0 time=0
control_change channel=0 control=64 value=127 time=97
note_on channel=0 note=53 velocity=0 time=143
note_on channel=0 note=65 velocity=0 time=0
note_on channel=0 note=60 velocity=0 time=0
note_on channel=0 note=57 velocity=0 time=0
note_on channel=0 note=41 velocity=0 time=0
note_on channel=0 note=77 velocity=62 time=0
note_on channel=0 note=65 velocity=42 time=0
note_on channel=0 note=77 velocity=0 time=120
note_on channel=0 note=69 velocity=33 time=0
note_on channel=0 note=72 velocity=39 time=0
note_on channel=0 note=65 velocity=0 time=17
note_on channel=0 note=72 velocity=0 time=103
note_on channel=0 note=69 velocity=0 time=0
note_on channel=0 note=77 velocity=64 time=0
note_on channel=0 note=65 velocity=42 time=0
note_on channel=0 note=77 velocity=0 time=120
note_on channel=0 note=69 velocity=34 time=0
note_on channel=0 note=72 velocity=41 time=0
note_on channel=0 note=65 velocity=0 time=17
note_on channel=0 note=72 velocity=0 time=103
note_on channel=0 note=69 velocity=0 time=0
note_on channel=0 note=79 velocity=68 time=0
note_on channel=0 note=65 velocity=42 time=0
note_on channel=0 note=79 velocity=0 time=0
note_on channel=0 note=69 velocity=34 time=0
note_on channel=0 note=72 velocity=40 time=0
note_on channel=0 note=65 velocity=0 time=17
note_on channel=0 note=72 velocity=0 time=0
note_on channel=0 note=69 velocity=0 time=0
note_on channel=0 note=81 velocity=62 time=0
note_on channel=0 note=65 velocity=51 time=0
control_change channel=0 control=64 value=0 time=15
control_change channel=0 control=64 value=127 time=77
note_on channel=0 note=81 velocity=0 time=28
note_on channel=0 note=72 velocity=38 time=0
note_on channel=0 note=75 velocity=45 time=0
note_on channel=0 note=65 velocity=0 time=17
note_on channel=0 note=75 velocity=0 time=103
note_on channel=0 note=72 velocity=0 time=0
note_on channel=0 note=77 velocity=68 time=0
note_on channel=0 note=65 velocity=43 time=0
control_change channel=0 control=64 value=0 time=12
control_change channel=0 control=64 value=127 time=97
note_on channel=0 note=77 velocity=0 time=11
note_on channel=0 note=72 velocity=38 time=0
note_on channel=0 note=75 velocity=45 time=0
note_on channel=0 note=65 velocity=0 time=17
note_on channel=0 note=75 velocity=0 time=103
note_on channel=0 note=72 velocity=0 time=0
note_on channel=0 note=79 velocity=68 time=0
note_on channel=0 note=65 velocity=43 time=0
control_change channel=0 control=64 value=0 time=0
control_change channel=0 control=64 value=127 time=58
note_on channel=0 note=79 velocity=0 time=51
note_on channel=0 note=72 velocity=38 time=0
note_on channel=0 note=75 velocity=45 time=0
note_on channel=0 note=65 velocity=0 time=17
note_on channel=0 note=75 velocity=0 time=103
note_on channel=0 note=72 velocity=0 time=0
note_on channel=0 note=81 velocity=70 time=0
note_on channel=0 note=65 velocity=43 time=0
control_change channel=0 control=64 value=0 time=13
control_change channel=0 control=64 value=127 time=96
note_on channel=0 note=81 velocity=0 time=0
note_on channel=0 note=72 velocity=38 time=0
note_on channel=0 note=75 velocity=45 time=0
note_on channel=0 note=65 velocity=0 time=17
note_on channel=0 note=75 velocity=0 time=0
note_on channel=0 note=72 velocity=0 time=0
note_on channel=0 note=82 velocity=68 time=0
note_on channel=0 note=65 velocity=51 time=0
control_change channel=0 control=64 value=0 time=0
control_change channel=0 control=64 value=127 time=97
note_on channel=0 note=82 velocity=0 time=23
note_on channel=0 note=70 velocity=34 time=0
note_on channel=0 note=73 velocity=40 time=0
note_on channel=0 note=65 velocity=0 time=17
note_on channel=0 note=73 velocity=0 time=103
note_on channel=0 note=70 velocity=0 time=0
note_on channel=0 note=82 velocity=62 time=0
note_on channel=0 note=65 velocity=42 time=0
note_on channel=0 note=82 velocity=0 time=120
note_on channel=0 note=70 velocity=33 time=0
note_on channel=0 note=73 velocity=39 time=0
note_on channel=0 note=65 velocity=0 time=17
note_on channel=0 note=73 velocity=0 time=103
note_on channel=0 note=70 velocity=0 time=0
note_on channel=0 note=82 velocity=64 time=0
note_on channel=0 note=65 velocity=42 time=0
note_on channel=0 note=82 velocity=0 time=120
note_on channel=0 note=70 velocity=34 time=0
note_on channel=0 note=73 velocity=41 time=0
note_on channel=0 note=65 velocity=0 time=17
note_on channel=0 note=73 velocity=0 time=103
note_on channel=0 note=70 velocity=0 time=0
note_on channel=0 note=80 velocity=68 time=0
note_on channel=0 note=65 velocity=42 time=0
note_on channel=0 note=80 velocity=0 time=0
note_on channel=0 note=70 velocity=34 time=0
note_on channel=0 note=73 velocity=40 time=0
note_on channel=0 note=65 velocity=0 time=17
note_on channel=0 note=73 velocity=0 time=0
note_on channel=0 note=70 velocity=0 time=0
note_on channel=0 note=79 velocity=62 time=0
note_on channel=0 note=65 velocity=51 time=0
control_change channel=0 control=64 value=0 time=15
control_change channel=0 control=64 value=127 time=77
note_on channel=0 note=79 velocity=0 time=28
note_on channel=0 note=70 velocity=38 time=0
note_on channel=0 note=73 velocity=45 time=0
note_on channel=0 note=65 velocity=0 time=17
note_on channel=0 note=73 velocity=0 time=103
note_on channel=0 note=70 velocity=0 time=0
note_on channel=0 note=77 velocity=68 time=0
note_on channel=0 note=65 velocity=43 time=0
control_change channel=0 control=64 value=0 time=12
control_change channel=0 control=64 value=127 time=97
note_on channel=0 note=77 velocity=0 time=11
note_on channel=0 note=70 velocity=38 time=0
note_on channel=0 note=73 velocity=45 time=0
note_on channel=0 note=65 velocity=0 time=17
note_on channel=0 note=73 velocity=0 time=19
note_on channel=0 note=70 velocity=0 time=0
note_on channel=0 note=76 velocity=68 time=0
note_on channel=0 note=65 velocity=43 time=0
control_change channel=0 control=64 value=0 time=11
control_change channel=0 control=64 value=127 time=58
note_on channel=0 note=76 velocity=0 time=51
note_on channel=0 note=70 velocity=38 time=0
note_on channel=0 note=73 velocity=45 time=0
note_on channel=0 note=65 velocity=0 time=17
note_on channel=0 note=73 velocity=0 time=103
note_on channel=0 note=70 velocity=0 time=0
note_on channel=0 note=79 velocity=70 time=0
note_on channel=0 note=65 velocity=43 time=0
control_change channel=0 control=64 value=0 time=13
control_change channel=0 control=64 value=127 time=96
note_on channel=0 note=79 velocity=0 time=0
note_on channel=0 note=70 velocity=38 time=0
note_on channel=0 note=73 velocity=45 time=0
note_on channel=0 note=65 velocity=0 time=24
note_on channel=0 note=73 velocity=0 time=0
note_on channel=0 note=70 velocity=0 time=0
note_on channel=0 note=77 velocity=78 time=0
note_on channel=0 note=53 velocity=51 time=0
control_change channel=0 control=64 value=0 time=15
control_change channel=0 control=64 value=127 time=77
note_on channel=0 note=77 velocity=0 time=28
note_on channel=0 note=69 velocity=38 time=0
note_on channel=0 note=72 velocity=45 time=0
note_on channel=0 note=53 velocity=0 time=108
note_on channel=0 note=72 velocity=0 time=12
note_on channel=0 note=69 velocity=0 time=0
note_on channel=0 note=77 velocity=68 time=0
note_on channel=0 note=65 velocity=43 time=0
note_on channel=0 note=77 velocity=0 time=120
note_on channel=0 note=69 velocity=38 time=0
note_on channel=0 note=72 velocity=45 time=0
note_on channel=0 note=65 velocity=0 time=17
note_on channel=0 note=72 velocity=0 time=103
note_on channel=0 note=69 velocity=0 time=0
note_on channel=0 note=76 velocity=68 time=0
note_on channel=0 note=65 velocity=43 time=0
control_change channel=0 control=64 value=0 time=11
control_change channel=0 control=64 value=127 time=58
note_on channel=0 note=76 velocity=0 time=51
note_on channel=0 note=70 velocity=38 time=0
note_on channel=0 note=73 velocity=45 time=0
note_on channel=0 note=65 velocity=0 time=17
note_on channel=0 note=73 velocity=0 time=103
note_on channel=0 note=70 velocity=0 time=0
note_on channel=0 note=79 velocity=70 time=0
note_on channel=0 note=65 velocity=43 time=0
note_on channel=0 note=79 velocity=0 time=0
note_on channel=0 note=70 velocity=38 time=0
note_on channel=0 note=73 velocity=45 time=0
note_on channel=0 note=65 velocity=0 time=24
note_on channel=0 note=73 velocity=0 time=0
note_on channel=0 note=70 velocity=0 time=0
note_on channel=0 note=77 velocity=76 time=0
note_on channel=0 note=53 velocity=51 time=0
control_change channel=0 control=64 value=0 time=15
control_change channel=0 control=64 value=127 time=77
note_on channel=0 note=77 velocity=0 time=28
note_on channel=0 note=69 velocity=38 time=0
note_on channel=0 note=72 velocity=45 time=0
note_on channel=0 note=53 velocity=0 time=108
note_on channel=0 note=72 velocity=0 time=12
note_on channel=0 note=69 velocity=0 time=0
note_on channel=0 note=77 velocity=68 time=0
note_on channel=0 note=65 velocity=43 time=0
note_on channel=0 note=77 velocity=0 time=120
note_on channel=0 note=69 velocity=38 time=0
note_on channel=0 note=72 velocity=45 time=0
note_on channel=0 note=65 velocity=0 time=17
note_on channel=0 note=72 velocity=0 time=103
note_on channel=0 note=69 velocity=0 time=0
note_on channel=0 note=76 velocity=68 time=0
note_on channel=0 note=65 velocity=43 time=0
control_change channel=0 control=64 value=0 time=11
control_change channel=0 control=64 value=127 time=58
note_on channel=0 note=76 velocity=0 time=51
note_on channel=0 note=70 velocity=38 time=0
note_on channel=0 note=73 velocity=45 time=0
note_on channel=0 note=65 velocity=0 time=17
note_on channel=0 note=73 velocity=0 time=103
note_on channel=0 note=70 velocity=0 time=0
note_on channel=0 note=79 velocity=70 time=0
note_on channel=0 note=65 velocity=43 time=0
note_on channel=0 note=79 velocity=0 time=0
note_on channel=0 note=70 velocity=38 time=0
note_on channel=0 note=73 velocity=45 time=0
note_on channel=0 note=65 velocity=0 time=24
note_on channel=0 note=73 velocity=0 time=0
note_on channel=0 note=70 velocity=0 time=0
note_on channel=0 note=69 velocity=59 time=0
note_on channel=0 note=72 velocity=59 time=0
note_on channel=0 note=77 velocity=70 time=0
note_on channel=0 note=53 velocity=51 time=0
control_change channel=0 control=64 value=0 time=0
note_on channel=0 note=77 velocity=0 time=120
note_on channel=0 note=69 velocity=0 time=0
note_on channel=0 note=72 velocity=0 time=0
note_on channel=0 note=65 velocity=35 time=0
note_on channel=0 note=67 velocity=40 time=0
note_on channel=0 note=65 velocity=0 time=12
note_on channel=0 note=69 velocity=35 time=91
note_on channel=0 note=67 velocity=0 time=12
note_on channel=0 note=53 velocity=0 time=96
note_on channel=0 note=70 velocity=40 time=0
note_on channel=0 note=69 velocity=0 time=12
note_on channel=0 note=72 velocity=35 time=4
note_on channel=0 note=70 velocity=0 time=12
note_on channel=0 note=74 velocity=40 time=9
note_on channel=0 note=72 velocity=0 time=12
note_on channel=0 note=76 velocity=33 time=33
note_on channel=0 note=74 velocity=0 time=12
note_on channel=0 note=77 velocity=40 time=0
note_on channel=0 note=76 velocity=0 time=12
note_on channel=0 note=76 velocity=33 time=108
note_on channel=0 note=77 velocity=0 time=12
note_on channel=0 note=77 velocity=40 time=86
note_on channel=0 note=76 velocity=0 time=12
note_on channel=0 note=76 velocity=33 time=108
note_on channel=0 note=77 velocity=0 time=12
note_on channel=0 note=77 velocity=40 time=108
note_on channel=0 note=76 velocity=0 time=12
note_on channel=0 note=76 velocity=34 time=108
note_on channel=0 note=77 velocity=0 time=12
note_on channel=0 note=77 velocity=40 time=108
note_on channel=0 note=76 velocity=0 time=12
note_on channel=0 note=76 velocity=33 time=0
note_on channel=0 note=77 velocity=0 time=12
note_on channel=0 note=76 velocity=0 time=0
note_on channel=0 note=74 velocity=38 time=0
note_on channel=0 note=77 velocity=43 time=0
note_on channel=0 note=58 velocity=31 time=24
note_on channel=0 note=60 velocity=36 time=67
note_on channel=0 note=58 velocity=0 time=12
note_on channel=0 note=62 velocity=31 time=14
note_on channel=0 note=60 velocity=0 time=12
note_on channel=0 note=63 velocity=36 time=38
note_on channel=0 note=62 velocity=0 time=12
note_on channel=0 note=65 velocity=31 time=81
note_on channel=0 note=63 velocity=0 time=12
note_on channel=0 note=67 velocity=36 time=28
note_on channel=0 note=65 velocity=0 time=12
note_on channel=0 note=69 velocity=29 time=0
note_on channel=0 note=67 velocity=0 time=12
note_on channel=0 note=74 velocity=0 time=4
note_on channel=0 note=77 velocity=0 time=0
note_on channel=0 note=74 velocity=49 time=0
note_on channel=0 note=70 velocity=36 time=0
note_on channel=0 note=69 velocity=0 time=12
note_on channel=0 note=69 velocity=29 time=64
note_on channel=0 note=70 velocity=0 time=12
note_on channel=0 note=70 velocity=36 time=4
note_on channel=0 note=69 velocity=0 time=12
note_on channel=0 note=69 velocity=29 time=16
note_on channel=0 note=70 velocity=0 time=12
note_on channel=0 note=74 velocity=0 time=4
note_on channel=0 note=82 velocity=47 time=0
note_on channel=0 note=70 velocity=36 time=0
note_on channel=0 note=69 velocity=0 time=1
note_on channel=0 note=69 velocity=27 time=40
note_on channel=0 note=70 velocity=0 time=4
note_on channel=0 note=70 velocity=34 time=4
note_on channel=0 note=69 velocity=0 time=4
note_on channel=0 note=69 velocity=26 time=52
note_on channel=0 note=70 velocity=0 time=12
note_on channel=0 note=69 velocity=0 time=16
note_on channel=0 note=82 velocity=0 time=0
note_on channel=0 note=74 velocity=41 time=0
note_on channel=0 note=77 velocity=49 time=0
note_on channel=0 note=70 velocity=30 time=0
note_on channel=0 note=69 velocity=25 time=28
note_on channel=0 note=70 velocity=0 time=4
note_on channel=0 note=70 velocity=30 time=4
note_on channel=0 note=69 velocity=0 time=12
note_on channel=0 note=69 velocity=25 time=28
note_on channel=0 note=70 velocity=0 time=4
note_on channel=0 note=74 velocity=0 time=28
note_on channel=0 note=77 velocity=0 time=0
note_on channel=0 note=86 velocity=43 time=0
note_on channel=0 note=82 velocity=36 time=0
note_on channel=0 note=70 velocity=30 time=0
note_on channel=0 note=69 velocity=0 time=12
note_on channel=0 note=69 velocity=25 time=16
note_on channel=0 note=70 velocity=0 time=4
note_on channel=0 note=70 velocity=30 time=16
note_on channel=0 note=69 velocity=0 time=12
note_on channel=0 note=69 velocity=25 time=0
note_on channel=0 note=70 velocity=0 time=12
note_on channel=0 note=86 velocity=0 time=0
note_on channel=0 note=82 velocity=0 time=0
note_on channel=0 note=74 velocity=42 time=0
note_on channel=0 note=77 velocity=50 time=0
note_on channel=0 note=70 velocity=30 time=0
note_on channel=0 note=69 velocity=0 time=4
note_on channel=0 note=69 velocity=25 time=4
note_on channel=0 note=70 velocity=0 time=4
note_on channel=0 note=70 velocity=30 time=64
note_on channel=0 note=69 velocity=0 time=4
note_on channel=0 note=69 velocity=25 time=4
note_on channel=0 note=70 velocity=0 time=12
note_on channel=0 note=74 velocity=0 time=4
note_on channel=0 note=77 velocity=0 time=0
note_on channel=0 note=89 velocity=43 time=0
note_on channel=0 note=86 velocity=36 time=0
note_on channel=0 note=70 velocity=30 time=0
note_on channel=0 note=69 velocity=0 time=4
note_on channel=0 note=69 velocity=25 time=16
note_on channel=0 note=70 velocity=0 time=12
note_on channel=0 note=70 velocity=30 time=28
note_on channel=0 note=69 velocity=0 time=12
note_on channel=0 note=69 velocity=25 time=0
note_on channel=0 note=70 velocity=0 time=12
note_on channel=0 note=89 velocity=0 time=0
note_on channel=0 note=86 velocity=0 time=0
note_on channel=0 note=69 velocity=0 time=0
note_on channel=0 note=74 velocity=38 time=0
note_on channel=0 note=77 velocity=43 time=0
note_on channel=0 note=70 velocity=30 time=0
note_on channel=0 note=70 velocity=0 time=24
note_on channel=0 note=58 velocity=31 time=0
note_on channel=0 note=60 velocity=36 time=67
note_on channel=0 note=58 velocity=0 time=12
note_on channel=0 note=62 velocity=31 time=14
note_on channel=0 note=60 velocity=0 time=12
note_on channel=0 note=63 velocity=36 time=38
note_on channel=0 note=62 velocity=0 time=12
note_on channel=0 note=65 velocity=31 time=81
note_on channel=0 note=63 velocity=0 time=12
note_on channel=0 note=67 velocity=36 time=28
note_on channel=0 note=65 velocity=0 time=12
note_on channel=0 note=69 velocity=29 time=0
note_on channel=0 note=67 velocity=0 time=12
note_on channel=0 note=74 velocity=0 time=4
note_on channel=0 note=77 velocity=0 time=0
note_on channel=0 note=74 velocity=49 time=0
note_on channel=0 note=70 velocity=36 time=0
note_on channel=0 note=69 velocity=0 time=12
note_on channel=0 note=69 velocity=29 time=64
note_on channel=0 note=70 velocity=0 time=12
note_on channel=0 note=70 velocity=36 time=4
note_on channel=0 note=69 velocity=0 time=12
note_on channel=0 note=69 velocity=29 time=16
note_on channel=0 note=70 velocity=0 time=12
note_on channel=0 note=74 velocity=0 time=8
note_on channel=0 note=82 velocity=46 time=0
note_on channel=0 note=70 velocity=36 time=0
note_on channel=0 note=69 velocity=0 time=4
note_on channel=0 note=69 velocity=27 time=40
note_on channel=0 note=70 velocity=0 time=4
note_on channel=0 note=70 velocity=34 time=4
note_on channel=0 note=69 velocity=0 time=4
note_on channel=0 note=69 velocity=26 time=52
note_on channel=0 note=70 velocity=0 time=12
note_on channel=0 note=69 velocity=0 time=16
note_on channel=0 note=82 velocity=0 time=0
note_on channel=0 note=74 velocity=41 time=0
note_on channel=0 note=77 velocity=49 time=0
note_on channel=0 note=70 velocity=30 time=0
note_on channel=0 note=69 velocity=25 time=28
note_on channel=0 note=70 velocity=0 time=4
note_on channel=0 note=70 velocity=30 time=4
note_on channel=0 note=69 velocity=0 time=5
note_on channel=0 note=69 velocity=25 time=108
note_on channel=0 note=70 velocity=0 time=5
note_on channel=0 note=74 velocity=0 time=8
note_on channel=0 note=77 velocity=0 time=0
note_on channel=0 note=86 velocity=43 time=0
note_on channel=0 note=82 velocity=36 time=0
note_on channel=0 note=70 velocity=30 time=0
note_on channel=0 note=69 velocity=0 time=12
note_on channel=0 note=69 velocity=25 time=16
note_on channel=0 note=70 velocity=0 time=4
note_on channel=0 note=70 velocity=30 time=16
note_on channel=0 note=69 velocity=0 time=12
note_on channel=0 note=69 velocity=25 time=0
note_on channel=0 note=70 velocity=0 time=12
note_on channel=0 note=86 velocity=0 time=0
note_on channel=0 note=82 velocity=0 time=0
note_on channel=0 note=74 velocity=42 time=0
note_on channel=0 note=77 velocity=50 time=0
note_on channel=0 note=70 velocity=30 time=0
note_on channel=0 note=69 velocity=0 time=4
note_on channel=0 note=69 velocity=25 time=8
note_on channel=0 note=70 velocity=0 time=12
note_on channel=0 note=70 velocity=30 time=8
note_on channel=0 note=69 velocity=0 time=12
note_on channel=0 note=69 velocity=25 time=23
note_on channel=0 note=70 velocity=0 time=12
note_on channel=0 note=74 velocity=0 time=68
note_on channel=0 note=77 velocity=0 time=0
note_on channel=0 note=89 velocity=43 time=0
note_on channel=0 note=86 velocity=36 time=0
note_on channel=0 note=70 velocity=30 time=0
note_on channel=0 note=69 velocity=0 time=12
note_on channel=0 note=68 velocity=25 time=8
note_on channel=0 note=70 velocity=0 time=5
note_on channel=0 note=70 velocity=30 time=28
note_on channel=0 note=68 velocity=0 time=12
note_on channel=0 note=68 velocity=25 time=0
note_on channel=0 note=70 velocity=0 time=12
note_on channel=0 note=89 velocity=0 time=0
note_on channel=0 note=86 velocity=0 time=0
note_on channel=0 note=68 velocity=0 time=0
note_on channel=0 note=74 velocity=49 time=0
note_on channel=0 note=77 velocity=49 time=0
note_on channel=0 note=79 velocity=49 time=0
note_on channel=0 note=83 velocity=49 time=0
note_on channel=0 note=66 velocity=39 time=0
note_on channel=0 note=67 velocity=34 time=120
note_on channel=0 note=66 velocity=0 time=60
note_on channel=0 note=67 velocity=0 time=60
note_on channel=0 note=66 velocity=39 time=0
note_on channel=0 note=67 velocity=35 time=0
note_on channel=0 note=66 velocity=0 time=60
note_on channel=0 note=67 velocity=0 time=60
note_on channel=0 note=64 velocity=41 time=0
note_on channel=0 note=65 velocity=35 time=120
note_on channel=0 note=64 velocity=0 time=60
note_on channel=0 note=65 velocity=0 time=60
note_on channel=0 note=64 velocity=42 time=0
note_on channel=0 note=65 velocity=36 time=120
note_on channel=0 note=64 velocity=0 time=60
note_on channel=0 note=77 velocity=0 time=0
note_on channel=0 note=83 velocity=0 time=0
note_on channel=0 note=74 velocity=0 time=0
note_on channel=0 note=65 velocity=0 time=0
note_on channel=0 note=79 velocity=0 time=0
note_on channel=0 note=61 velocity=44 time=0
note_on channel=0 note=62 velocity=37 time=120
note_on channel=0 note=61 velocity=0 time=60
note_on channel=0 note=62 velocity=0 time=60
note_on channel=0 note=61 velocity=45 time=0
note_on channel=0 note=62 velocity=37 time=120
note_on channel=0 note=61 velocity=0 time=60
note_on channel=0 note=62 velocity=0 time=60
note_on channel=0 note=58 velocity=44 time=0
note_on channel=0 note=59 velocity=38 time=120
note_on channel=0 note=58 velocity=0 time=60
note_on channel=0 note=59 velocity=0 time=60
note_on channel=0 note=58 velocity=44 time=0
note_on channel=0 note=59 velocity=39 time=120
note_on channel=0 note=58 velocity=0 time=60
note_on channel=0 note=59 velocity=0 time=0
note_on channel=0 note=54 velocity=45 time=0
note_on channel=0 note=55 velocity=39 time=120
note_on channel=0 note=54 velocity=0 time=60
note_on channel=0 note=55 velocity=0 time=60
note_on channel=0 note=54 velocity=46 time=0
note_on channel=0 note=55 velocity=40 time=120
note_on channel=0 note=54 velocity=0 time=60
note_on channel=0 note=55 velocity=0 time=0
note_on channel=0 note=83 velocity=70 time=0
note_on channel=0 note=52 velocity=48 time=0
note_on channel=0 note=53 velocity=41 time=120
note_on channel=0 note=52 velocity=0 time=60
note_on channel=0 note=53 velocity=0 time=60
note_on channel=0 note=52 velocity=48 time=0
note_on channel=0 note=53 velocity=41 time=120
note_on channel=0 note=52 velocity=0 time=60
note_on channel=0 note=53 velocity=0 time=0
note_on channel=0 note=83 velocity=0 time=0
note_on channel=0 note=86 velocity=70 time=0
note_on channel=0 note=49 velocity=54 time=0
note_on channel=0 note=50 velocity=42 time=0
note_on channel=0 note=49 velocity=0 time=60
note_on channel=0 note=50 velocity=0 time=60
note_on channel=0 note=49 velocity=52 time=0
note_on channel=0 note=50 velocity=43 time=120
note_on channel=0 note=49 velocity=0 time=60
note_on channel=0 note=50 velocity=0 time=0
note_on channel=0 note=86 velocity=0 time=0
note_on channel=0 note=89 velocity=66 time=0
note_on channel=0 note=46 velocity=55 time=0
note_on channel=0 note=47 velocity=44 time=120
note_on channel=0 note=46 velocity=0 time=60
note_on channel=0 note=47 velocity=0 time=60
note_on channel=0 note=46 velocity=51 time=0
note_on channel=0 note=47 velocity=44 time=120
note_on channel=0 note=46 velocity=0 time=60
note_on channel=0 note=47 velocity=0 time=0
note_on channel=0 note=83 velocity=72 time=0
note_on channel=0 note=42 velocity=57 time=0
note_on channel=0 note=43 velocity=44 time=120
note_on channel=0 note=42 velocity=0 time=60
note_on channel=0 note=43 velocity=0 time=60
note_on channel=0 note=42 velocity=51 time=0
note_on channel=0 note=43 velocity=44 time=120
note_on channel=0 note=42 velocity=0 time=60
note_on channel=0 note=43 velocity=0 time=0
note_on channel=0 note=89 velocity=0 time=0
note_on channel=0 note=87 velocity=75 time=0
note_on channel=0 note=42 velocity=56 time=0
note_on channel=0 note=43 velocity=50 time=120
note_on channel=0 note=42 velocity=0 time=60
note_on channel=0 note=43 velocity=0 time=60
note_on channel=0 note=42 velocity=57 time=0
note_on channel=0 note=43 velocity=44 time=120
note_on channel=0 note=42 velocity=0 time=60
note_on channel=0 note=43 velocity=0 time=50
note_on channel=0 note=83 velocity=0 time=0
note_on channel=0 note=84 velocity=75 time=0
note_on channel=0 note=43 velocity=61 time=0
note_on channel=0 note=44 velocity=52 time=120
note_on channel=0 note=43 velocity=0 time=60
note_on channel=0 note=44 velocity=0 time=60
note_on channel=0 note=43 velocity=58 time=0
note_on channel=0 note=44 velocity=52 time=120
note_on channel=0 note=43 velocity=0 time=60
note_on channel=0 note=44 velocity=0 time=0
note_on channel=0 note=78 velocity=66 time=0
note_on channel=0 note=44 velocity=58 time=0
note_on channel=0 note=45 velocity=44 time=120
note_on channel=0 note=44 velocity=0 time=60
note_on channel=0 note=45 velocity=0 time=60
note_on channel=0 note=44 velocity=54 time=0
note_on channel=0 note=45 velocity=44 time=120
note_on channel=0 note=44 velocity=0 time=60
note_on channel=0 note=78 velocity=0 time=0
note_on channel=0 note=45 velocity=0 time=0
note_on channel=0 note=77 velocity=74 time=0
note_on channel=0 note=45 velocity=56 time=0
note_on channel=0 note=46 velocity=48 time=120
note_on channel=0 note=45 velocity=0 time=60
note_on channel=0 note=46 velocity=0 time=60
note_on channel=0 note=45 velocity=51 time=0
note_on channel=0 note=46 velocity=44 time=120
note_on channel=0 note=45 velocity=0 time=60
note_on channel=0 note=87 velocity=0 time=0
note_on channel=0 note=84 velocity=0 time=0
note_on channel=0 note=46 velocity=0 time=0
note_on channel=0 note=86 velocity=70 time=0
note_on channel=0 note=82 velocity=57 time=0
note_on channel=0 note=45 velocity=51 time=0
note_on channel=0 note=46 velocity=44 time=120
note_on channel=0 note=45 velocity=0 time=60
note_on channel=0 note=46 velocity=0 time=60
note_on channel=0 note=45 velocity=51 time=0
note_on channel=0 note=46 velocity=44 time=120
note_on channel=0 note=45 velocity=0 time=60
note_on channel=0 note=46 velocity=0 time=50
note_on channel=0 note=82 velocity=0 time=0
note_on channel=0 note=86 velocity=0 time=0
note_on channel=0 note=77 velocity=0 time=0
note_on channel=0 note=75 velocity=61 time=0
note_on channel=0 note=79 velocity=61 time=0
note_on channel=0 note=84 velocity=70 time=0
note_on channel=0 note=38 velocity=51 time=0
note_on channel=0 note=39 velocity=44 time=120
note_on channel=0 note=38 velocity=0 time=60
note_on channel=0 note=39 velocity=0 time=60
note_on channel=0 note=38 velocity=51 time=0
note_on channel=0 note=39 velocity=44 time=120
note_on channel=0 note=38 velocity=0 time=60
note_on channel=0 note=39 velocity=0 time=50
note_on channel=0 note=84 velocity=0 time=0
note_on channel=0 note=79 velocity=0 time=0
note_on channel=0 note=75 velocity=0 time=0
note_on channel=0 note=72 velocity=53 time=0
note_on channel=0 note=75 velocity=53 time=0
note_on channel=0 note=81 velocity=64 time=0
note_on channel=0 note=40 velocity=51 time=0
note_on channel=0 note=41 velocity=44 time=120
note_on channel=0 note=40 velocity=0 time=60
note_on channel=0 note=41 velocity=0 time=60
note_on channel=0 note=40 velocity=51 time=0
note_on channel=0 note=41 velocity=44 time=0
note_on channel=0 note=40 velocity=0 time=60
note_on channel=0 note=41 velocity=0 time=50
note_on channel=0 note=81 velocity=0 time=0
note_on channel=0 note=75 velocity=0 time=0
note_on channel=0 note=72 velocity=0 time=0
note_on channel=0 note=70 velocity=64 time=0
note_on channel=0 note=74 velocity=64 time=0
note_on channel=0 note=82 velocity=77 time=0
note_on channel=0 note=34 velocity=48 time=0
note_on channel=0 note=34 velocity=0 time=240
note_on channel=0 note=70 velocity=0 time=0
note_on channel=0 note=74 velocity=0 time=0
note_on channel=0 note=82 velocity=0 time=0
note_on channel=0 note=70 velocity=73 time=0
note_on channel=0 note=74 velocity=88 time=0
note_on channel=0 note=58 velocity=54 time=0
note_on channel=0 note=62 velocity=64 time=0
control_change channel=0 control=64 value=127 time=311
note_on channel=0 note=58 velocity=0 time=470
note_on channel=0 note=70 velocity=0 time=0
note_on channel=0 note=74 velocity=0 time=0
note_on channel=0 note=62 velocity=0 time=0
note_on channel=0 note=67 velocity=57 time=0
note_on channel=0 note=70 velocity=68 time=0
note_on channel=0 note=55 velocity=41 time=0
note_on channel=0 note=58 velocity=49 time=0
control_change channel=0 control=64 value=0 time=6
control_change channel=0 control=64 value=127 time=206
note_on channel=0 note=55 velocity=0 time=258
note_on channel=0 note=67 velocity=0 time=0
note_on channel=0 note=70 velocity=0 time=0
note_on channel=0 note=58 velocity=0 time=0
note_on channel=0 note=63 velocity=59 time=0
note_on channel=0 note=67 velocity=70 time=0
note_on channel=0 note=51 velocity=41 time=0
note_on channel=0 note=55 velocity=49 time=0
control_change channel=0 control=64 value=0 time=141
note_on channel=0 note=55 velocity=0 time=99
note_on channel=0 note=63 velocity=0 time=0
note_on channel=0 note=67 velocity=0 time=0
note_on channel=0 note=51 velocity=0 time=0
note_on channel=0 note=72 velocity=73 time=0
note_on channel=0 note=75 velocity=88 time=0
note_on channel=0 note=60 velocity=54 time=0
note_on channel=0 note=63 velocity=64 time=0
control_change channel=0 control=64 value=127 time=156
note_on channel=0 note=63 velocity=0 time=564
note_on channel=0 note=72 velocity=0 time=0
note_on channel=0 note=75 velocity=0 time=0
note_on channel=0 note=60 velocity=0 time=0
note_on channel=0 note=70 velocity=57 time=0
note_on channel=0 note=74 velocity=68 time=0
note_on channel=0 note=58 velocity=41 time=0
note_on channel=0 note=62 velocity=49 time=0
note_on channel=0 note=62 velocity=0 time=0
note_on channel=0 note=70 velocity=0 time=0
note_on channel=0 note=74 velocity=0 time=0
note_on channel=0 note=58 velocity=0 time=0
note_on channel=0 note=72 velocity=77 time=0
note_on channel=0 note=69 velocity=64 time=0
note_on channel=0 note=57 velocity=49 time=0
note_on channel=0 note=60 velocity=58 time=0
control_change channel=0 control=64 value=0 time=6
control_change channel=0 control=64 value=127 time=178
note_on channel=0 note=57 velocity=0 time=286
note_on channel=0 note=69 velocity=0 time=0
note_on channel=0 note=72 velocity=0 time=10
note_on channel=0 note=60 velocity=0 time=0
note_on channel=0 note=65 velocity=57 time=0
note_on channel=0 note=69 velocity=68 time=0
note_on channel=0 note=53 velocity=44 time=0
note_on channel=0 note=57 velocity=52 time=0
control_change channel=0 control=64 value=0 time=156
note_on channel=0 note=57 velocity=0 time=84
note_on channel=0 note=65 velocity=0 time=0
note_on channel=0 note=69 velocity=0 time=0
note_on channel=0 note=53 velocity=0 time=0
note_on channel=0 note=74 velocity=73 time=0
note_on channel=0 note=77 velocity=88 time=0
note_on channel=0 note=62 velocity=54 time=0
note_on channel=0 note=65 velocity=64 time=0
control_change channel=0 control=64 value=127 time=311
note_on channel=0 note=62 velocity=0 time=470
note_on channel=0 note=74 velocity=0 time=0
note_on channel=0 note=77 velocity=0 time=0
note_on channel=0 note=65 velocity=0 time=0
note_on channel=0 note=70 velocity=57 time=0
note_on channel=0 note=74 velocity=68 time=0
note_on channel=0 note=58 velocity=41 time=0
note_on channel=0 note=62 velocity=49 time=0
control_change channel=0 control=64 value=0 time=6
control_change channel=0 control=64 value=127 time=206
note_on channel=0 note=58 velocity=0 time=258
note_on channel=0 note=70 velocity=0 time=0
note_on channel=0 note=74 velocity=0 time=0
note_on channel=0 note=62 velocity=0 time=0
note_on channel=0 note=67 velocity=59 time=0
note_on channel=0 note=70 velocity=70 time=0
note_on channel=0 note=55 velocity=41 time=0
note_on channel=0 note=58 velocity=49 time=0
control_change channel=0 control=64 value=0 time=141
note_on channel=0 note=58 velocity=0 time=99
note_on channel=0 note=67 velocity=0 time=0
note_on channel=0 note=70 velocity=0 time=0
note_on channel=0 note=55 velocity=0 time=0
note_on channel=0 note=75 velocity=73 time=0
note_on channel=0 note=79 velocity=88 time=0
note_on channel=0 note=63 velocity=54 time=0
note_on channel=0 note=67 velocity=64 time=0
control_change channel=0 control=64 value=127 time=156
note_on channel=0 note=67 velocity=0 time=564
note_on channel=0 note=75 velocity=0 time=0
note_on channel=0 note=79 velocity=0 time=0
note_on channel=0 note=63 velocity=0 time=0
note_on channel=0 note=74 velocity=57 time=0
note_on channel=0 note=77 velocity=68 time=0
note_on channel=0 note=62 velocity=41 time=0
note_on channel=0 note=65 velocity=49 time=0
note_on channel=0 note=65 velocity=0 time=0
note_on channel=0 note=74 velocity=0 time=0
note_on channel=0 note=77 velocity=0 time=0
note_on channel=0 note=62 velocity=0 time=0
note_on channel=0 note=75 velocity=77 time=0
note_on channel=0 note=72 velocity=64 time=0
note_on channel=0 note=60 velocity=49 time=0
note_on channel=0 note=63 velocity=58 time=0
control_change channel=0 control=64 value=0 time=6
control_change channel=0 control=64 value=127 time=178
note_on channel=0 note=60 velocity=0 time=286
note_on channel=0 note=72 velocity=0 time=0
note_on channel=0 note=75 velocity=0 time=10
note_on channel=0 note=63 velocity=0 time=0
note_on channel=0 note=69 velocity=57 time=0
note_on channel=0 note=72 velocity=68 time=0
note_on channel=0 note=57 velocity=44 time=0
note_on channel=0 note=60 velocity=52 time=0
control_change channel=0 control=64 value=0 time=156
note_on channel=0 note=60 velocity=0 time=84
note_on channel=0 note=69 velocity=0 time=0
note_on channel=0 note=72 velocity=0 time=0
note_on channel=0 note=57 velocity=0 time=0
note_on channel=0 note=75 velocity=73 time=0
note_on channel=0 note=84 velocity=88 time=0
note_on channel=0 note=63 velocity=54 time=0
note_on channel=0 note=72 velocity=64 time=0
control_change channel=0 control=64 value=127 time=156
note_on channel=0 note=72 velocity=0 time=0
note_on channel=0 note=75 velocity=0 time=0
note_on channel=0 note=84 velocity=0 time=0
note_on channel=0 note=63 velocity=0 time=0
note_on channel=0 note=74 velocity=57 time=0
note_on channel=0 note=82 velocity=68 time=0
note_on channel=0 note=62 velocity=41 time=0
note_on channel=0 note=70 velocity=49 time=0
note_on channel=0 note=70 velocity=0 time=0
note_on channel=0 note=74 velocity=0 time=0
note_on channel=0 note=82 velocity=0 time=0
note_on channel=0 note=62 velocity=0 time=0
note_on channel=0 note=72 velocity=73 time=0
note_on channel=0 note=81 velocity=88 time=0
note_on channel=0 note=60 velocity=54 time=0
note_on channel=0 note=69 velocity=64 time=0
control_change channel=0 control=64 value=0 time=0
control_change channel=0 control=64 value=127 time=156
note_on channel=0 note=69 velocity=0 time=0
note_on channel=0 note=72 velocity=0 time=0
note_on channel=0 note=81 velocity=0 time=0
note_on channel=0 note=60 velocity=0 time=0
note_on channel=0 note=70 velocity=57 time=0
note_on channel=0 note=79 velocity=68 time=0
note_on channel=0 note=58 velocity=41 time=0
note_on channel=0 note=67 velocity=41 time=0
note_on channel=0 note=67 velocity=0 time=0
note_on channel=0 note=70 velocity=0 time=0
note_on channel=0 note=79 velocity=0 time=0
note_on channel=0 note=58 velocity=0 time=0
note_on channel=0 note=69 velocity=51 time=0
note_on channel=0 note=77 velocity=60 time=0
note_on channel=0 note=57 velocity=41 time=0
note_on channel=0 note=65 velocity=49 time=0
control_change channel=0 control=64 value=0 time=8
control_change channel=0 control=64 value=127 time=204
note_on channel=0 note=65 velocity=0 time=268
note_on channel=0 note=69 velocity=0 time=0
note_on channel=0 note=77 velocity=0 time=0
note_on channel=0 note=57 velocity=0 time=0
note_on channel=0 note=63 velocity=44 time=0
note_on channel=0 note=75 velocity=52 time=0
note_on channel=0 note=55 velocity=34 time=0
note_on channel=0 note=58 velocity=41 time=0
control_change channel=0 control=64 value=0 time=14
control_change channel=0 control=64 value=127 time=99
note_on channel=0 note=58 velocity=0 time=0
note_on channel=0 note=63 velocity=0 time=0
note_on channel=0 note=75 velocity=0 time=0
note_on channel=0 note=55 velocity=0 time=0
note_on channel=0 note=62 velocity=49 time=0
note_on channel=0 note=74 velocity=58 time=0
note_on channel=0 note=54 velocity=36 time=0
note_on channel=0 note=57 velocity=43 time=0
control_change channel=0 control=64 value=0 time=0
control_change channel=0 control=64 value=127 time=229
note_on channel=0 note=57 velocity=0 time=251
note_on channel=0 note=62 velocity=0 time=0
note_on channel=0 note=74 velocity=0 time=0
note_on channel=0 note=54 velocity=0 time=0
note_on channel=0 note=66 velocity=39 time=0
note_on channel=0 note=72 velocity=46 time=0
note_on channel=0 note=50 velocity=27 time=0
note_on channel=0 note=57 velocity=32 time=0
note_on channel=0 note=57 velocity=0 time=480
note_on channel=0 note=66 velocity=0 time=0
note_on channel=0 note=72 velocity=0 time=0
note_on channel=0 note=50 velocity=0 time=0
note_on channel=0 note=67 velocity=45 time=0
note_on channel=0 note=70 velocity=53 time=0
note_on channel=0 note=51 velocity=33 time=0
note_on channel=0 note=55 velocity=39 time=0
control_change channel=0 control=64 value=0 time=15
control_change channel=0 control=64 value=127 time=145
note_on channel=0 note=55 velocity=0 time=0
note_on channel=0 note=67 velocity=0 time=0
note_on channel=0 note=70 velocity=0 time=0
note_on channel=0 note=51 velocity=0 time=0
note_on channel=0 note=60 velocity=40 time=0
note_on channel=0 note=67 velocity=48 time=0
note_on channel=0 note=58 velocity=40 time=0
note_on channel=0 note=52 velocity=31 time=0
control_change channel=0 control=64 value=0 time=13
control_change channel=0 control=64 value=127 time=147
note_on channel=0 note=52 velocity=0 time=0
note_on channel=0 note=60 velocity=0 time=0
note_on channel=0 note=67 velocity=0 time=0
note_on channel=0 note=58 velocity=0 time=0
note_on channel=0 note=53 velocity=38 time=0
control_change channel=0 control=64 value=0 time=0
control_change channel=0 control=64 value=127 time=92
note_on channel=0 note=58 velocity=32 time=0
note_on channel=0 note=62 velocity=32 time=0
note_on channel=0 note=65 velocity=38 time=0
note_on channel=0 note=65 velocity=0 time=240
note_on channel=0 note=62 velocity=0 time=0
note_on channel=0 note=58 velocity=0 time=0
control_change channel=0 control=64 value=0 time=11
note_on channel=0 note=53 velocity=0 time=0
note_on channel=0 note=41 velocity=32 time=0
control_change channel=0 control=64 value=127 time=297
note_on channel=0 note=57 velocity=31 time=0
note_on channel=0 note=60 velocity=31 time=0
note_on channel=0 note=65 velocity=37 time=0
note_on channel=0 note=65 velocity=0 time=240
note_on channel=0 note=60 velocity=0 time=0
note_on channel=0 note=57 velocity=0 time=0
control_change channel=0 control=64 value=0 time=17
note_on channel=0 note=41 velocity=0 time=0
note_on channel=0 note=34 velocity=35 time=0
control_change channel=0 control=64 value=127 time=320
note_on channel=0 note=62 velocity=35 time=160
note_on channel=0 note=58 velocity=29 time=0
note_on channel=0 note=53 velocity=29 time=0
control_change channel=0 control=64 value=0 time=247
note_on channel=0 note=53 velocity=0 time=203
note_on channel=0 note=58 velocity=0 time=0
note_on channel=0 note=62 velocity=0 time=0
note_on channel=0 note=34 velocity=0 time=0
note_on channel=0 note=62 velocity=66 time=0
note_on channel=0 note=58 velocity=55 time=0
control_change channel=0 control=64 value=127 time=141
note_on channel=0 note=70 velocity=60 time=0
note_on channel=0 note=74 velocity=72 time=0
note_on channel=0 note=74 velocity=0 time=0
note_on channel=0 note=62 velocity=0 time=0
note_on channel=0 note=58 velocity=0 time=0
note_on channel=0 note=70 velocity=0 time=0
note_on channel=0 note=70 velocity=47 time=0
note_on channel=0 note=74 velocity=56 time=0
note_on channel=0 note=58 velocity=37 time=0
note_on channel=0 note=62 velocity=44 time=0
note_on channel=0 note=62 velocity=0 time=120
note_on channel=0 note=70 velocity=0 time=0
note_on channel=0 note=74 velocity=0 time=0
note_on channel=0 note=58 velocity=0 time=0
note_on channel=0 note=55 velocity=45 time=0
note_on channel=0 note=58 velocity=53 time=0
control_change channel=0 control=64 value=0 time=0
note_on channel=0 note=58 velocity=0 time=120
note_on channel=0 note=55 velocity=0 time=0
note_on channel=0 note=67 velocity=41 time=120
note_on channel=0 note=70 velocity=49 time=0
note_on channel=0 note=70 velocity=0 time=120
note_on channel=0 note=67 velocity=0 time=0
note_on channel=0 note=51 velocity=39 time=0
note_on channel=0 note=55 velocity=47 time=0
note_on channel=0 note=55 velocity=0 time=120
note_on channel=0 note=51 velocity=0 time=0
note_on channel=0 note=63 velocity=38 time=0
note_on channel=0 note=67 velocity=45 time=0
note_on channel=0 note=67 velocity=0 time=120
note_on channel=0 note=63 velocity=0 time=0
note_on channel=0 note=63 velocity=66 time=0
note_on channel=0 note=60 velocity=55 time=0
control_change channel=0 control=64 value=127 time=141
note_on channel=0 note=72 velocity=60 time=0
note_on channel=0 note=75 velocity=73 time=0
note_on channel=0 note=75 velocity=0 time=0
note_on channel=0 note=63 velocity=0 time=0
note_on channel=0 note=60 velocity=0 time=0
note_on channel=0 note=72 velocity=0 time=0
note_on channel=0 note=70 velocity=43 time=0
note_on channel=0 note=74 velocity=51 time=0
note_on channel=0 note=58 velocity=37 time=0
note_on channel=0 note=62 velocity=44 time=0
control_change channel=0 control=64 value=0 time=8
note_on channel=0 note=62 velocity=0 time=112
note_on channel=0 note=70 velocity=0 time=0
note_on channel=0 note=74 velocity=0 time=0
note_on channel=0 note=58 velocity=0 time=0
note_on channel=0 note=57 velocity=45 time=0
note_on channel=0 note=60 velocity=53 time=0
note_on channel=0 note=60 velocity=0 time=120
note_on channel=0 note=57 velocity=0 time=0
note_on channel=0 note=69 velocity=41 time=120
note_on channel=0 note=72 velocity=49 time=0
note_on channel=0 note=72 velocity=0 time=120
note_on channel=0 note=69 velocity=0 time=0
note_on channel=0 note=53 velocity=39 time=0
note_on channel=0 note=57 velocity=47 time=0
note_on channel=0 note=57 velocity=0 time=120
note_on channel=0 note=53 velocity=0 time=0
note_on channel=0 note=65 velocity=38 time=0
note_on channel=0 note=69 velocity=45 time=0
note_on channel=0 note=69 velocity=0 time=120
note_on channel=0 note=65 velocity=0 time=0
note_on channel=0 note=65 velocity=72 time=0
note_on channel=0 note=62 velocity=60 time=0
control_change channel=0 control=64 value=127 time=141
note_on channel=0 note=74 velocity=60 time=0
note_on channel=0 note=77 velocity=72 time=0
note_on channel=0 note=77 velocity=0 time=0
note_on channel=0 note=65 velocity=0 time=0
note_on channel=0 note=62 velocity=0 time=0
note_on channel=0 note=74 velocity=0 time=0
note_on channel=0 note=74 velocity=47 time=0
note_on channel=0 note=77 velocity=56 time=0
note_on channel=0 note=62 velocity=40 time=0
note_on channel=0 note=65 velocity=48 time=0
note_on channel=0 note=65 velocity=0 time=120
note_on channel=0 note=74 velocity=0 time=0
note_on channel=0 note=77 velocity=0 time=0
note_on channel=0 note=62 velocity=0 time=0
note_on channel=0 note=58 velocity=49 time=0
note_on channel=0 note=62 velocity=58 time=0
control_change channel=0 control=64 value=0 time=0
note_on channel=0 note=62 velocity=0 time=120
note_on channel=0 note=58 velocity=0 time=0
note_on channel=0 note=70 velocity=45 time=120
note_on channel=0 note=74 velocity=53 time=0
note_on channel=0 note=74 velocity=0 time=120
note_on channel=0 note=70 velocity=0 time=0
note_on channel=0 note=55 velocity=42 time=0
note_on channel=0 note=58 velocity=51 time=0
note_on channel=0 note=58 velocity=0 time=120
note_on channel=0 note=55 velocity=0 time=0
note_on channel=0 note=67 velocity=41 time=0
note_on channel=0 note=70 velocity=49 time=0
note_on channel=0 note=70 velocity=0 time=120
note_on channel=0 note=67 velocity=0 time=0
note_on channel=0 note=67 velocity=75 time=0
note_on channel=0 note=63 velocity=62 time=0
control_change channel=0 control=64 value=127 time=141
note_on channel=0 note=75 velocity=68 time=0
note_on channel=0 note=79 velocity=84 time=0
note_on channel=0 note=79 velocity=0 time=0
note_on channel=0 note=67 velocity=0 time=0
note_on channel=0 note=63 velocity=0 time=0
note_on channel=0 note=75 velocity=0 time=0
note_on channel=0 note=74 velocity=49 time=0
note_on channel=0 note=77 velocity=58 time=0
note_on channel=0 note=62 velocity=42 time=0
note_on channel=0 note=65 velocity=50 time=0
control_change channel=0 control=64 value=0 time=8
note_on channel=0 note=65 velocity=0 time=112
note_on channel=0 note=74 velocity=0 time=0
note_on channel=0 note=77 velocity=0 time=0
note_on channel=0 note=62 velocity=0 time=0
note_on channel=0 note=60 velocity=51 time=0
note_on channel=0 note=63 velocity=60 time=0
note_on channel=0 note=63 velocity=0 time=120
note_on channel=0 note=60 velocity=0 time=0
note_on channel=0 note=72 velocity=47 time=120
note_on channel=0 note=75 velocity=55 time=0
note_on channel=0 note=75 velocity=0 time=120
note_on channel=0 note=72 velocity=0 time=0
note_on channel=0 note=57 velocity=44 time=0
note_on channel=0 note=60 velocity=53 time=0
note_on channel=0 note=60 velocity=0 time=120
note_on channel=0 note=57 velocity=0 time=0
note_on channel=0 note=69 velocity=43 time=0
note_on channel=0 note=72 velocity=51 time=0
note_on channel=0 note=72 velocity=0 time=120
note_on channel=0 note=69 velocity=0 time=0
note_on channel=0 note=72 velocity=79 time=0
note_on channel=0 note=63 velocity=66 time=0
control_change channel=0 control=64 value=127 time=141
note_on channel=0 note=75 velocity=75 time=0
note_on channel=0 note=84 velocity=93 time=0
note_on channel=0 note=84 velocity=0 time=0
note_on channel=0 note=72 velocity=0 time=0
note_on channel=0 note=63 velocity=0 time=0
note_on channel=0 note=75 velocity=0 time=0
note_on channel=0 note=74 velocity=56 time=0
note_on channel=0 note=82 velocity=67 time=0
note_on channel=0 note=62 velocity=44 time=0
note_on channel=0 note=70 velocity=52 time=0
control_change channel=0 control=64 value=0 time=8
note_on channel=0 note=70 velocity=0 time=112
note_on channel=0 note=74 velocity=0 time=0
note_on channel=0 note=82 velocity=0 time=0
note_on channel=0 note=62 velocity=0 time=0
note_on channel=0 note=69 velocity=79 time=0
note_on channel=0 note=60 velocity=66 time=0
note_on channel=0 note=72 velocity=71 time=0
note_on channel=0 note=81 velocity=82 time=0
control_change channel=0 control=64 value=127 time=0
note_on channel=0 note=81 velocity=0 time=0
note_on channel=0 note=69 velocity=0 time=0
note_on channel=0 note=60 velocity=0 time=0
note_on channel=0 note=72 velocity=0 time=0
note_on channel=0 note=70 velocity=56 time=0
note_on channel=0 note=79 velocity=67 time=0
note_on channel=0 note=58 velocity=44 time=0
note_on channel=0 note=67 velocity=52 time=0
control_change channel=0 control=64 value=0 time=8
note_on channel=0 note=67 velocity=0 time=112
note_on channel=0 note=70 velocity=0 time=0
note_on channel=0 note=79 velocity=0 time=0
note_on channel=0 note=58 velocity=0 time=0
note_on channel=0 note=57 velocity=49 time=0
note_on channel=0 note=65 velocity=58 time=0
note_on channel=0 note=65 velocity=0 time=120
note_on channel=0 note=57 velocity=0 time=0
note_on channel=0 note=69 velocity=44 time=120
note_on channel=0 note=77 velocity=52 time=0
note_on channel=0 note=77 velocity=0 time=120
note_on channel=0 note=69 velocity=0 time=0
note_on channel=0 note=55 velocity=40 time=0
note_on channel=0 note=58 velocity=49 time=0
note_on channel=0 note=58 velocity=0 time=120
note_on channel=0 note=55 velocity=0 time=0
note_on channel=0 note=63 velocity=39 time=0
note_on channel=0 note=75 velocity=46 time=0
note_on channel=0 note=75 velocity=0 time=120
note_on channel=0 note=63 velocity=0 time=0
note_on channel=0 note=74 velocity=54 time=0
note_on channel=0 note=54 velocity=34 time=0
note_on channel=0 note=57 velocity=34 time=0
note_on channel=0 note=60 velocity=40 time=0
control_change channel=0 control=64 value=127 time=86
note_on channel=0 note=74 velocity=0 time=34
note_on channel=0 note=62 velocity=46 time=0
note_on channel=0 note=62 velocity=0 time=120
note_on channel=0 note=66 velocity=43 time=0
note_on channel=0 note=66 velocity=0 time=120
note_on channel=0 note=69 velocity=43 time=0
note_on channel=0 note=69 velocity=0 time=39
note_on channel=0 note=74 velocity=53 time=0
note_on channel=0 note=74 velocity=0 time=39
note_on channel=0 note=78 velocity=42 time=0
note_on channel=0 note=78 velocity=0 time=39
note_on channel=0 note=81 velocity=42 time=0
note_on channel=0 note=81 velocity=0 time=39
note_on channel=0 note=85 velocity=42 time=0
note_on channel=0 note=85 velocity=0 time=39
note_on channel=0 note=86 velocity=49 time=0
note_on channel=0 note=86 velocity=0 time=39
note_on channel=0 note=85 velocity=39 time=0
note_on channel=0 note=85 velocity=0 time=63
note_on channel=0 note=86 velocity=42 time=0
note_on channel=0 note=86 velocity=0 time=15
note_on channel=0 note=85 velocity=38 time=0
note_on channel=0 note=85 velocity=0 time=39
note_on channel=0 note=86 velocity=48 time=0
note_on channel=0 note=86 velocity=0 time=87
note_on channel=0 note=81 velocity=38 time=0
note_on channel=0 note=81 velocity=0 time=39
note_on channel=0 note=78 velocity=38 time=0
note_on channel=0 note=78 velocity=0 time=0
note_on channel=0 note=74 velocity=38 time=0
note_on channel=0 note=74 velocity=0 time=0
note_on channel=0 note=60 velocity=0 time=0
note_on channel=0 note=57 velocity=0 time=0
note_on channel=0 note=54 velocity=0 time=0
note_on channel=0 note=55 velocity=34 time=0
note_on channel=0 note=58 velocity=40 time=0
control_change channel=0 control=64 value=0 time=0
note_on channel=0 note=62 velocity=46 time=63
control_change channel=0 control=64 value=127 time=0
note_on channel=0 note=62 velocity=0 time=15
note_on channel=0 note=67 velocity=43 time=0
note_on channel=0 note=67 velocity=0 time=120
note_on channel=0 note=70 velocity=43 time=0
note_on channel=0 note=70 velocity=0 time=87
note_on channel=0 note=74 velocity=53 time=0
note_on channel=0 note=74 velocity=0 time=39
note_on channel=0 note=79 velocity=42 time=0
note_on channel=0 note=79 velocity=0 time=120
note_on channel=0 note=82 velocity=42 time=0
note_on channel=0 note=82 velocity=0 time=111
note_on channel=0 note=85 velocity=42 time=0
note_on channel=0 note=85 velocity=0 time=63
note_on channel=0 note=86 velocity=49 time=0
note_on channel=0 note=86 velocity=0 time=120
note_on channel=0 note=85 velocity=39 time=0
note_on channel=0 note=85 velocity=0 time=87
note_on channel=0 note=86 velocity=42 time=0
note_on channel=0 note=86 velocity=0 time=120
note_on channel=0 note=85 velocity=38 time=0
note_on channel=0 note=85 velocity=0 time=111
note_on channel=0 note=86 velocity=48 time=0
note_on channel=0 note=86 velocity=0 time=15
note_on channel=0 note=82 velocity=38 time=0
note_on channel=0 note=82 velocity=0 time=120
note_on channel=0 note=79 velocity=38 time=0
note_on channel=0 note=79 velocity=0 time=0
note_on channel=0 note=74 velocity=38 time=0
note_on channel=0 note=74 velocity=0 time=0
note_on channel=0 note=58 velocity=0 time=0
note_on channel=0 note=55 velocity=0 time=0
note_on channel=0 note=52 velocity=34 time=0
note_on channel=0 note=55 velocity=40 time=0
control_change channel=0 control=64 value=0 time=8
control_change channel=0 control=64 value=127 time=101
note_on channel=0 note=61 velocity=46 time=11
note_on channel=0 note=61 velocity=0 time=120
note_on channel=0 note=64 velocity=43 time=0
note_on channel=0 note=64 velocity=0 time=120
note_on channel=0 note=67 velocity=43 time=0
note_on channel=0 note=67 velocity=0 time=87
note_on channel=0 note=70 velocity=50 time=0
note_on channel=0 note=70 velocity=0 time=120
note_on channel=0 note=73 velocity=42 time=0
note_on channel=0 note=73 velocity=0 time=15
note_on channel=0 note=76 velocity=42 time=0
note_on channel=0 note=76 velocity=0 time=120
note_on channel=0 note=79 velocity=42 time=0
note_on channel=0 note=79 velocity=0 time=120
note_on channel=0 note=82 velocity=49 time=0
note_on channel=0 note=82 velocity=0 time=63
note_on channel=0 note=79 velocity=41 time=0
note_on channel=0 note=79 velocity=0 time=63
note_on channel=0 note=85 velocity=48 time=0
note_on channel=0 note=85 velocity=0 time=63
note_on channel=0 note=82 velocity=41 time=0
note_on channel=0 note=82 velocity=0 time=63
note_on channel=0 note=79 velocity=48 time=0
note_on channel=0 note=79 velocity=0 time=63
note_on channel=0 note=76 velocity=45 time=0
note_on channel=0 note=76 velocity=0 time=87
note_on channel=0 note=73 velocity=42 time=0
note_on channel=0 note=73 velocity=0 time=0
note_on channel=0 note=70 velocity=39 time=0
note_on channel=0 note=70 velocity=0 time=0
note_on channel=0 note=55 velocity=0 time=0
note_on channel=0 note=52 velocity=0 time=0
note_on channel=0 note=51 velocity=57 time=0
note_on channel=0 note=54 velocity=68 time=0
control_change channel=0 control=64 value=0 time=0
control_change channel=0 control=64 value=127 time=32
note_on channel=0 note=57 velocity=48 time=23
note_on channel=0 note=57 velocity=0 time=31
note_on channel=0 note=60 velocity=50 time=0
note_on channel=0 note=60 velocity=0 time=7
note_on channel=0 note=63 velocity=51 time=0
note_on channel=0 note=63 velocity=0 time=120
note_on channel=0 note=66 velocity=53 time=0
note_on channel=0 note=66 velocity=0 time=103
note_on channel=0 note=69 velocity=55 time=0
note_on channel=0 note=69 velocity=0 time=103
note_on channel=0 note=72 velocity=57 time=0
note_on channel=0 note=72 velocity=0 time=120
note_on channel=0 note=75 velocity=59 time=0
note_on channel=0 note=75 velocity=0 time=120
note_on channel=0 note=78 velocity=65 time=0
control_change channel=0 control=64 value=0 time=11
note_on channel=0 note=78 velocity=0 time=109
note_on channel=0 note=81 velocity=57 time=0
note_on channel=0 note=81 velocity=0 time=0
note_on channel=0 note=54 velocity=0 time=0
note_on channel=0 note=51 velocity=0 time=0
note_on channel=0 note=69 velocity=64 time=0
note_on channel=0 note=51 velocity=50 time=0
note_on channel=0 note=53 velocity=50 time=0
note_on channel=0 note=60 velocity=60 time=0
note_on channel=0 note=60 velocity=0 time=120
note_on channel=0 note=69 velocity=0 time=0
note_on channel=0 note=51 velocity=0 time=0
note_on channel=0 note=53 velocity=0 time=0
note_on channel=0 note=81 velocity=56 time=0
note_on channel=0 note=81 velocity=0 time=120
note_on channel=0 note=69 velocity=64 time=0
note_on channel=0 note=51 velocity=61 time=0
note_on channel=0 note=53 velocity=61 time=0
note_on channel=0 note=60 velocity=72 time=0
note_on channel=0 note=60 velocity=0 time=120
note_on channel=0 note=69 velocity=0 time=0
note_on channel=0 note=51 velocity=0 time=0
note_on channel=0 note=53 velocity=0 time=0
note_on channel=0 note=81 velocity=58 time=0
note_on channel=0 note=81 velocity=0 time=120
note_on channel=0 note=69 velocity=64 time=0
note_on channel=0 note=51 velocity=51 time=0
note_on channel=0 note=53 velocity=51 time=0
note_on channel=0 note=60 velocity=61 time=0
note_on channel=0 note=60 velocity=0 time=0
note_on channel=0 note=69 velocity=0 time=0
note_on channel=0 note=51 velocity=0 time=0
note_on channel=0 note=53 velocity=0 time=0
note_on channel=0 note=81 velocity=59 time=0
note_on channel=0 note=81 velocity=0 time=0
note_on channel=0 note=70 velocity=74 time=0
note_on channel=0 note=50 velocity=73 time=0
note_on channel=0 note=53 velocity=73 time=0
note_on channel=0 note=58 velocity=73 time=0
control_change channel=0 control=64 value=127 time=63
note_on channel=0 note=70 velocity=0 time=57
note_on channel=0 note=82 velocity=59 time=0
note_on channel=0 note=82 velocity=0 time=120
note_on channel=0 note=69 velocity=67 time=0
note_on channel=0 note=69 velocity=0 time=120
note_on channel=0 note=81 velocity=54 time=0
note_on channel=0 note=81 velocity=0 time=120
note_on channel=0 note=58 velocity=0 time=0
note_on channel=0 note=53 velocity=0 time=0
note_on channel=0 note=50 velocity=0 time=0
note_on channel=0 note=70 velocity=66 time=0
note_on channel=0 note=70 velocity=0 time=120
note_on channel=0 note=82 velocity=57 time=0
note_on channel=0 note=82 velocity=0 time=120
note_on channel=0 note=63 velocity=59 time=0
note_on channel=0 note=45 velocity=57 time=0
note_on channel=0 note=53 velocity=68 time=0
control_change channel=0 control=64 value=0 time=10
control_change channel=0 control=64 value=127 time=59
note_on channel=0 note=53 velocity=0 time=0
note_on channel=0 note=45 velocity=0 time=0
note_on channel=0 note=63 velocity=0 time=0
note_on channel=0 note=75 velocity=50 time=0
control_change channel=0 control=64 value=0 time=57
note_on channel=0 note=75 velocity=0 time=0
note_on channel=0 note=62 velocity=79 time=0
note_on channel=0 note=46 velocity=63 time=0
note_on channel=0 note=53 velocity=75 time=0
control_change channel=0 control=64 value=127 time=75
note_on channel=0 note=53 velocity=0 time=45
note_on channel=0 note=46 velocity=0 time=0
note_on channel=0 note=62 velocity=0 time=0
note_on channel=0 note=74 velocity=54 time=0
control_change channel=0 control=64 value=0 time=57
note_on channel=0 note=74 velocity=0 time=63
note_on channel=0 note=69 velocity=65 time=0
note_on channel=0 note=51 velocity=56 time=0
note_on channel=0 note=53 velocity=67 time=0
control_change channel=0 control=64 value=127 time=69
note_on channel=0 note=53 velocity=0 time=51
note_on channel=0 note=51 velocity=0 time=0
note_on channel=0 note=69 velocity=0 time=0
note_on channel=0 note=81 velocity=57 time=0
control_change channel=0 control=64 value=0 time=57
note_on channel=0 note=81 velocity=0 time=63
note_on channel=0 note=70 velocity=68 time=0
note_on channel=0 note=50 velocity=63 time=0
note_on channel=0 note=53 velocity=75 time=0
control_change channel=0 control=64 value=127 time=80
note_on channel=0 note=53 velocity=0 time=40
note_on channel=0 note=50 velocity=0 time=0
note_on channel=0 note=70 velocity=0 time=0
note_on channel=0 note=82 velocity=60 time=0
control_change channel=0 control=64 value=0 time=69
note_on channel=0 note=82 velocity=0 time=51
note_on channel=0 note=63 velocity=67 time=0
note_on channel=0 note=45 velocity=56 time=0
note_on channel=0 note=53 velocity=67 time=0
control_change channel=0 control=64 value=127 time=52
note_on channel=0 note=53 velocity=0 time=0
note_on channel=0 note=45 velocity=0 time=0
note_on channel=0 note=63 velocity=0 time=0
note_on channel=0 note=75 velocity=58 time=0
control_change channel=0 control=64 value=0 time=52
note_on channel=0 note=75 velocity=0 time=0
note_on channel=0 note=62 velocity=81 time=0
note_on channel=0 note=46 velocity=63 time=0
note_on channel=0 note=53 velocity=75 time=0
control_change channel=0 control=64 value=127 time=12
note_on channel=0 note=53 velocity=0 time=108
note_on channel=0 note=46 velocity=0 time=0
note_on channel=0 note=62 velocity=0 time=0
note_on channel=0 note=74 velocity=58 time=0
control_change channel=0 control=64 value=0 time=35
note_on channel=0 note=74 velocity=0 time=85
note_on channel=0 note=69 velocity=64 time=0
note_on channel=0 note=51 velocity=56 time=0
note_on channel=0 note=53 velocity=67 time=0
control_change channel=0 control=64 value=127 time=75
note_on channel=0 note=53 velocity=0 time=45
note_on channel=0 note=51 velocity=0 time=0
note_on channel=0 note=69 velocity=0 time=0
note_on channel=0 note=81 velocity=59 time=0
control_change channel=0 control=64 value=0 time=52
note_on channel=0 note=81 velocity=0 time=68
note_on channel=0 note=70 velocity=67 time=0
note_on channel=0 note=50 velocity=63 time=0
note_on channel=0 note=53 velocity=75 time=0
control_change channel=0 control=64 value=127 time=75
note_on channel=0 note=53 velocity=0 time=45
note_on channel=0 note=50 velocity=0 time=0
note_on channel=0 note=70 velocity=0 time=0
note_on channel=0 note=82 velocity=55 time=0
control_change channel=0 control=64 value=0 time=40
note_on channel=0 note=82 velocity=0 time=80
note_on channel=0 note=63 velocity=62 time=0
note_on channel=0 note=45 velocity=56 time=0
note_on channel=0 note=53 velocity=67 time=0
control_change channel=0 control=64 value=127 time=75
note_on channel=0 note=53 velocity=0 time=0
note_on channel=0 note=45 velocity=0 time=0
note_on channel=0 note=63 velocity=0 time=0
note_on channel=0 note=75 velocity=51 time=0
control_change channel=0 control=64 value=0 time=57
note_on channel=0 note=75 velocity=0 time=0
note_on channel=0 note=62 velocity=72 time=0
note_on channel=0 note=46 velocity=63 time=0
note_on channel=0 note=53 velocity=75 time=0
note_on channel=0 note=53 velocity=0 time=120
note_on channel=0 note=46 velocity=0 time=0
note_on channel=0 note=62 velocity=0 time=0
note_on channel=0 note=74 velocity=52 time=0
control_change channel=0 control=64 value=127 time=0
control_change channel=0 control=64 value=0 time=92
note_on channel=0 note=74 velocity=0 time=28
note_on channel=0 note=69 velocity=64 time=0
note_on channel=0 note=51 velocity=56 time=0
note_on channel=0 note=53 velocity=67 time=0
control_change channel=0 control=64 value=127 time=69
note_on channel=0 note=53 velocity=0 time=51
note_on channel=0 note=51 velocity=0 time=0
note_on channel=0 note=69 velocity=0 time=0
note_on channel=0 note=81 velocity=54 time=0
control_change channel=0 control=64 value=0 time=52
note_on channel=0 note=81 velocity=0 time=0
note_on channel=0 note=70 velocity=64 time=0
note_on channel=0 note=50 velocity=63 time=0
note_on channel=0 note=53 velocity=75 time=0
control_change channel=0 control=64 value=127 time=75
note_on channel=0 note=53 velocity=0 time=45
note_on channel=0 note=50 velocity=0 time=0
note_on channel=0 note=70 velocity=0 time=0
note_on channel=0 note=82 velocity=51 time=0
control_change channel=0 control=64 value=0 time=46
note_on channel=0 note=82 velocity=0 time=74
note_on channel=0 note=63 velocity=60 time=0
note_on channel=0 note=45 velocity=57 time=0
note_on channel=0 note=53 velocity=68 time=0
control_change channel=0 control=64 value=127 time=97
note_on channel=0 note=53 velocity=0 time=0
note_on channel=0 note=45 velocity=0 time=0
note_on channel=0 note=63 velocity=0 time=0
note_on channel=0 note=75 velocity=51 time=0
control_change channel=0 control=64 value=0 time=52
note_on channel=0 note=75 velocity=0 time=0
note_on channel=0 note=62 velocity=83 time=0
note_on channel=0 note=46 velocity=89 time=0
control_change channel=0 control=64 value=127 time=52
note_on channel=0 note=62 velocity=0 time=68
note_on channel=0 note=74 velocity=53 time=0
note_on channel=0 note=74 velocity=0 time=120
note_on channel=0 note=69 velocity=62 time=0
note_on channel=0 note=69 velocity=0 time=120
note_on channel=0 note=81 velocity=54 time=0
note_on channel=0 note=81 velocity=0 time=120
note_on channel=0 note=70 velocity=62 time=0
control_change channel=0 control=64 value=0 time=18
note_on channel=0 note=70 velocity=0 time=102
note_on channel=0 note=82 velocity=54 time=0
control_change channel=0 control=64 value=127 time=0
note_on channel=0 note=82 velocity=0 time=120
note_on channel=0 note=69 velocity=62 time=0
note_on channel=0 note=69 velocity=0 time=0
note_on channel=0 note=81 velocity=53 time=0
note_on channel=0 note=81 velocity=0 time=0
note_on channel=0 note=46 velocity=0 time=0
note_on channel=0 note=67 velocity=81 time=0
note_on channel=0 note=43 velocity=80 time=0
control_change channel=0 control=64 value=0 time=15
control_change channel=0 control=64 value=127 time=88
note_on channel=0 note=67 velocity=0 time=17
note_on channel=0 note=79 velocity=53 time=0
note_on channel=0 note=79 velocity=0 time=120
note_on channel=0 note=65 velocity=60 time=0
note_on channel=0 note=65 velocity=0 time=120
note_on channel=0 note=77 velocity=52 time=0
note_on channel=0 note=77 velocity=0 time=0
note_on channel=0 note=63 velocity=59 time=0
control_change channel=0 control=64 value=0 time=16
control_change channel=0 control=64 value=127 time=81
note_on channel=0 note=63 velocity=0 time=23
note_on channel=0 note=75 velocity=52 time=0
note_on channel=0 note=75 velocity=0 time=120
note_on channel=0 note=62 velocity=59 time=0
note_on channel=0 note=62 velocity=0 time=0
note_on channel=0 note=74 velocity=50 time=0
note_on channel=0 note=74 velocity=0 time=0
note_on channel=0 note=43 velocity=0 time=0
note_on channel=0 note=60 velocity=79 time=0
note_on channel=0 note=39 velocity=88 time=0
control_change channel=0 control=64 value=0 time=0
control_change channel=0 control=64 value=127 time=80
note_on channel=0 note=60 velocity=0 time=40
note_on channel=0 note=72 velocity=50 time=0
note_on channel=0 note=72 velocity=0 time=120
note_on channel=0 note=58 velocity=59 time=0
control_change channel=0 control=64 value=0 time=17
control_change channel=0 control=64 value=127 time=46
note_on channel=0 note=58 velocity=0 time=57
note_on channel=0 note=70 velocity=49 time=0
note_on channel=0 note=70 velocity=0 time=120
note_on channel=0 note=57 velocity=59 time=0
control_change channel=0 control=64 value=0 time=9
control_change channel=0 control=64 value=127 time=100
note_on channel=0 note=57 velocity=0 time=11
note_on channel=0 note=69 velocity=49 time=0
note_on channel=0 note=69 velocity=0 time=120
note_on channel=0 note=55 velocity=59 time=0
control_change channel=0 control=64 value=0 time=15
control_change channel=0 control=64 value=127 time=77
note_on channel=0 note=55 velocity=0 time=0
note_on channel=0 note=67 velocity=51 time=0
note_on channel=0 note=67 velocity=0 time=0
note_on channel=0 note=39 velocity=0 time=0
note_on channel=0 note=53 velocity=79 time=0
note_on channel=0 note=41 velocity=84 time=0
control_change channel=0 control=64 value=0 time=12
control_change channel=0 control=64 value=127 time=91
note_on channel=0 note=53 velocity=0 time=17
note_on channel=0 note=65 velocity=49 time=0
note_on channel=0 note=65 velocity=0 time=120
note_on channel=0 note=51 velocity=59 time=0
control_change channel=0 control=64 value=0 time=14
control_change channel=0 control=64 value=127 time=66
note_on channel=0 note=51 velocity=0 time=40
note_on channel=0 note=63 velocity=50 time=0
note_on channel=0 note=63 velocity=0 time=120
note_on channel=0 note=50 velocity=59 time=0
control_change channel=0 control=64 value=0 time=15
control_change channel=0 control=64 value=127 time=77
note_on channel=0 note=50 velocity=0 time=28
note_on channel=0 note=62 velocity=48 time=0
note_on channel=0 note=62 velocity=0 time=120
note_on channel=0 note=48 velocity=58 time=0
control_change channel=0 control=64 value=0 time=10
control_change channel=0 control=64 value=127 time=47
note_on channel=0 note=48 velocity=0 time=0
note_on channel=0 note=60 velocity=49 time=0
note_on channel=0 note=60 velocity=0 time=0
note_on channel=0 note=41 velocity=0 time=0
note_on channel=0 note=58 velocity=76 time=0
note_on channel=0 note=46 velocity=64 time=0
note_on channel=0 note=34 velocity=81 time=0
control_change channel=0 control=64 value=0 time=0
control_change channel=0 control=64 value=127 time=46
note_on channel=0 note=34 velocity=0 time=74
note_on channel=0 note=46 velocity=0 time=0
note_on channel=0 note=58 velocity=0 time=0
control_change channel=0 control=64 value=0 time=23
note_on channel=0 note=57 velocity=49 time=97
note_on channel=0 note=51 velocity=54 time=0
control_change channel=0 control=64 value=127 time=69
note_on channel=0 note=51 velocity=0 time=51
note_on channel=0 note=57 velocity=0 time=0
note_on channel=0 note=53 velocity=42 time=0
control_change channel=0 control=64 value=0 time=46
note_on channel=0 note=53 velocity=0 time=0
note_on channel=0 note=58 velocity=49 time=0
note_on channel=0 note=50 velocity=60 time=0
control_change channel=0 control=64 value=127 time=69
note_on channel=0 note=50 velocity=0 time=51
note_on channel=0 note=58 velocity=0 time=0
note_on channel=0 note=53 velocity=41 time=0
control_change channel=0 control=64 value=0 time=35
note_on channel=0 note=53 velocity=0 time=85
note_on channel=0 note=63 velocity=49 time=0
note_on channel=0 note=45 velocity=54 time=0
control_change channel=0 control=64 value=127 time=75
note_on channel=0 note=45 velocity=0 time=45
note_on channel=0 note=63 velocity=0 time=0
note_on channel=0 note=53 velocity=42 time=0
control_change channel=0 control=64 value=0 time=52
note_on channel=0 note=53 velocity=0 time=68
note_on channel=0 note=62 velocity=49 time=0
note_on channel=0 note=46 velocity=60 time=0
control_change channel=0 control=64 value=127 time=63
note_on channel=0 note=46 velocity=0 time=57
note_on channel=0 note=62 velocity=0 time=0
note_on channel=0 note=53 velocity=41 time=0
control_change channel=0 control=64 value=0 time=40
note_on channel=0 note=53 velocity=0 time=80
note_on channel=0 note=57 velocity=49 time=0
note_on channel=0 note=51 velocity=52 time=0
control_change channel=0 control=64 value=127 time=86
note_on channel=0 note=51 velocity=0 time=34
note_on channel=0 note=57 velocity=0 time=0
note_on channel=0 note=53 velocity=42 time=0
control_change channel=0 control=64 value=0 time=75
note_on channel=0 note=53 velocity=0 time=45
note_on channel=0 note=58 velocity=49 time=0
note_on channel=0 note=50 velocity=60 time=0
control_change channel=0 control=64 value=127 time=69
note_on channel=0 note=50 velocity=0 time=51
note_on channel=0 note=58 velocity=0 time=0
note_on channel=0 note=53 velocity=43 time=0
control_change channel=0 control=64 value=0 time=40
note_on channel=0 note=53 velocity=0 time=80
note_on channel=0 note=63 velocity=49 time=0
note_on channel=0 note=45 velocity=58 time=0
control_change channel=0 control=64 value=127 time=69
note_on channel=0 note=45 velocity=0 time=51
note_on channel=0 note=63 velocity=0 time=0
note_on channel=0 note=53 velocity=40 time=0
control_change channel=0 control=64 value=0 time=35
note_on channel=0 note=53 velocity=0 time=0
note_on channel=0 note=62 velocity=49 time=0
note_on channel=0 note=46 velocity=60 time=0
control_change channel=0 control=64 value=127 time=69
note_on channel=0 note=46 velocity=0 time=51
note_on channel=0 note=62 velocity=0 time=0
note_on channel=0 note=53 velocity=41 time=0
control_change channel=0 control=64 value=0 time=46
note_on channel=0 note=53 velocity=0 time=74
note_on channel=0 note=57 velocity=49 time=0
note_on channel=0 note=51 velocity=52 time=0
control_change channel=0 control=64 value=127 time=103
note_on channel=0 note=51 velocity=0 time=17
note_on channel=0 note=57 velocity=0 time=0
note_on channel=0 note=53 velocity=42 time=0
control_change channel=0 control=64 value=0 time=63
note_on channel=0 note=53 velocity=0 time=57
note_on channel=0 note=58 velocity=49 time=0
note_on channel=0 note=50 velocity=60 time=0
control_change channel=0 control=64 value=127 time=75
note_on channel=0 note=50 velocity=0 time=45
note_on channel=0 note=58 velocity=0 time=0
note_on channel=0 note=53 velocity=43 time=0
control_change channel=0 control=64 value=0 time=46
note_on channel=0 note=53 velocity=0 time=74
note_on channel=0 note=63 velocity=49 time=0
note_on channel=0 note=45 velocity=58 time=0
control_change channel=0 control=64 value=127 time=80
note_on channel=0 note=45 velocity=0 time=40
note_on channel=0 note=63 velocity=0 time=0
note_on channel=0 note=53 velocity=40 time=0
control_change channel=0 control=64 value=0 time=46
note_on channel=0 note=53 velocity=0 time=0
note_on channel=0 note=62 velocity=56 time=0
note_on channel=0 note=46 velocity=67 time=0
control_change channel=0 control=64 value=127 time=92
note_on channel=0 note=46 velocity=0 time=28
control_change channel=0 control=64 value=0 time=63
note_on channel=0 note=62 velocity=0 time=57
note_on channel=0 note=54 velocity=60 time=0
note_on channel=0 note=48 velocity=59 time=0
control_change channel=0 control=64 value=127 time=86
note_on channel=0 note=48 velocity=0 time=34
note_on channel=0 note=54 velocity=0 time=0
note_on channel=0 note=66 velocity=52 time=0
control_change channel=0 control=64 value=0 time=57
note_on channel=0 note=66 velocity=0 time=63
note_on channel=0 note=55 velocity=61 time=0
note_on channel=0 note=46 velocity=72 time=0
control_change channel=0 control=64 value=127 time=69
note_on channel=0 note=46 velocity=0 time=51
note_on channel=0 note=55 velocity=0 time=0
note_on channel=0 note=67 velocity=49 time=0
control_change channel=0 control=64 value=0 time=35
note_on channel=0 note=67 velocity=0 time=85
note_on channel=0 note=57 velocity=67 time=0
note_on channel=0 note=45 velocity=67 time=0
control_change channel=0 control=64 value=127 time=63
note_on channel=0 note=45 velocity=0 time=0
note_on channel=0 note=57 velocity=0 time=0
note_on channel=0 note=69 velocity=60 time=0
control_change channel=0 control=64 value=0 time=40
note_on channel=0 note=69 velocity=0 time=80
note_on channel=0 note=58 velocity=71 time=0
note_on channel=0 note=43 velocity=75 time=0
control_change channel=0 control=64 value=127 time=40
note_on channel=0 note=43 velocity=0 time=80
note_on channel=0 note=58 velocity=0 time=0
note_on channel=0 note=70 velocity=62 time=0
control_change channel=0 control=64 value=0 time=46
note_on channel=0 note=70 velocity=0 time=74
note_on channel=0 note=59 velocity=70 time=0
note_on channel=0 note=41 velocity=77 time=0
control_change channel=0 control=64 value=127 time=69
note_on channel=0 note=41 velocity=0 time=51
note_on channel=0 note=59 velocity=0 time=0
note_on channel=0 note=71 velocity=64 time=0
control_change channel=0 control=64 value=0 time=75
note_on channel=0 note=71 velocity=0 time=45
note_on channel=0 note=60 velocity=70 time=0
note_on channel=0 note=39 velocity=80 time=0
control_change channel=0 control=64 value=127 time=69
note_on channel=0 note=39 velocity=0 time=51
note_on channel=0 note=60 velocity=0 time=0
note_on channel=0 note=72 velocity=64 time=0
control_change channel=0 control=64 value=0 time=23
note_on channel=0 note=72 velocity=0 time=97
note_on channel=0 note=62 velocity=74 time=0
note_on channel=0 note=38 velocity=82 time=0
control_change channel=0 control=64 value=127 time=52
note_on channel=0 note=38 velocity=0 time=68
note_on channel=0 note=62 velocity=0 time=0
note_on channel=0 note=74 velocity=65 time=0
control_change channel=0 control=64 value=0 time=35
note_on channel=0 note=74 velocity=0 time=85
note_on channel=0 note=63 velocity=82 time=0
note_on channel=0 note=36 velocity=94 time=0
control_change channel=0 control=64 value=127 time=69
note_on channel=0 note=63 velocity=0 time=51
note_on channel=0 note=75 velocity=71 time=0
note_on channel=0 note=75 velocity=0 time=120
note_on channel=0 note=65 velocity=79 time=0
control_change channel=0 control=64 value=0 time=15
control_change channel=0 control=64 value=127 time=77
note_on channel=0 note=65 velocity=0 time=28
note_on channel=0 note=77 velocity=70 time=0
note_on channel=0 note=77 velocity=0 time=120
note_on channel=0 note=67 velocity=83 time=0
control_change channel=0 control=64 value=0 time=17
control_change channel=0 control=64 value=127 time=92
note_on channel=0 note=67 velocity=0 time=11
note_on channel=0 note=79 velocity=72 time=0
note_on channel=0 note=79 velocity=0 time=120
note_on channel=0 note=65 velocity=81 time=0
control_change channel=0 control=64 value=0 time=18
control_change channel=0 control=64 value=127 time=57
note_on channel=0 note=65 velocity=0 time=0
note_on channel=0 note=77 velocity=69 time=0
note_on channel=0 note=77 velocity=0 time=0
note_on channel=0 note=63 velocity=84 time=0
control_change channel=0 control=64 value=0 time=0
control_change channel=0 control=64 value=127 time=52
note_on channel=0 note=63 velocity=0 time=68
note_on channel=0 note=75 velocity=69 time=0
note_on channel=0 note=75 velocity=0 time=120
note_on channel=0 note=62 velocity=81 time=0
control_change channel=0 control=64 value=0 time=11
control_change channel=0 control=64 value=127 time=41
note_on channel=0 note=62 velocity=0 time=68
note_on channel=0 note=74 velocity=69 time=0
note_on channel=0 note=74 velocity=0 time=120
note_on channel=0 note=60 velocity=79 time=0
control_change channel=0 control=64 value=0 time=11
control_change channel=0 control=64 value=127 time=58
note_on channel=0 note=60 velocity=0 time=51
note_on channel=0 note=72 velocity=69 time=0
note_on channel=0 note=72 velocity=0 time=120
note_on channel=0 note=58 velocity=78 time=0
control_change channel=0 control=64 value=0 time=11
control_change channel=0 control=64 value=127 time=64
note_on channel=0 note=58 velocity=0 time=45
note_on channel=0 note=70 velocity=65 time=0
note_on channel=0 note=70 velocity=0 time=0
note_on channel=0 note=36 velocity=0 time=0
note_on channel=0 note=57 velocity=79 time=0
note_on channel=0 note=29 velocity=73 time=0
note_on channel=0 note=41 velocity=87 time=0
control_change channel=0 control=64 value=0 time=15
control_change channel=0 control=64 value=127 time=71
note_on channel=0 note=57 velocity=0 time=34
note_on channel=0 note=69 velocity=69 time=0
note_on channel=0 note=69 velocity=0 time=120
note_on channel=0 note=55 velocity=77 time=0
control_change channel=0 control=64 value=0 time=10
control_change channel=0 control=64 value=127 time=65
note_on channel=0 note=55 velocity=0 time=0
note_on channel=0 note=67 velocity=65 time=0
note_on channel=0 note=67 velocity=0 time=0
note_on channel=0 note=53 velocity=77 time=0
control_change channel=0 control=64 value=0 time=14
control_change channel=0 control=64 value=127 time=49
note_on channel=0 note=53 velocity=0 time=57
note_on channel=0 note=65 velocity=67 time=0
note_on channel=0 note=65 velocity=0 time=120
note_on channel=0 note=57 velocity=75 time=0
control_change channel=0 control=64 value=0 time=11
control_change channel=0 control=64 value=127 time=41
note_on channel=0 note=57 velocity=0 time=68
note_on channel=0 note=69 velocity=66 time=0
note_on channel=0 note=69 velocity=0 time=120
note_on channel=0 note=41 velocity=0 time=0
note_on channel=0 note=29 velocity=0 time=0
note_on channel=0 note=70 velocity=79 time=0
note_on channel=0 note=58 velocity=79 time=0
note_on channel=0 note=34 velocity=30 time=0
control_change channel=0 control=64 value=0 time=0
note_on channel=0 note=34 velocity=0 time=120
note_on channel=0 note=46 velocity=26 time=0
control_change channel=0 control=64 value=127 time=78
note_on channel=0 note=46 velocity=0 time=42
note_on channel=0 note=34 velocity=30 time=0
note_on channel=0 note=34 velocity=0 time=120
note_on channel=0 note=46 velocity=25 time=0
note_on channel=0 note=46 velocity=0 time=120
note_on channel=0 note=58 velocity=0 time=0
note_on channel=0 note=70 velocity=0 time=0
note_on channel=0 note=34 velocity=30 time=0
note_on channel=0 note=34 velocity=0 time=120
note_on channel=0 note=46 velocity=26 time=0
note_on channel=0 note=46 velocity=0 time=120
note_on channel=0 note=34 velocity=30 time=0
note_on channel=0 note=34 velocity=0 time=120
note_on channel=0 note=46 velocity=27 time=0
note_on channel=0 note=46 velocity=0 time=120
note_on channel=0 note=65 velocity=40 time=0
note_on channel=0 note=62 velocity=34 time=0
note_on channel=0 note=34 velocity=30 time=0
control_change channel=0 control=64 value=0 time=28
control_change channel=0 control=64 value=127 time=85
note_on channel=0 note=34 velocity=0 time=7
note_on channel=0 note=46 velocity=27 time=0
note_on channel=0 note=46 velocity=0 time=120
note_on channel=0 note=34 velocity=30 time=0
note_on channel=0 note=34 velocity=0 time=120
note_on channel=0 note=46 velocity=25 time=0
note_on channel=0 note=46 velocity=0 time=120
note_on channel=0 note=34 velocity=30 time=0
control_change channel=0 control=64 value=0 time=21
control_change channel=0 control=64 value=127 time=92
note_on channel=0 note=34 velocity=0 time=7
note_on channel=0 note=46 velocity=26 time=0
note_on channel=0 note=46 velocity=0 time=120
note_on channel=0 note=58 velocity=39 time=0
note_on channel=0 note=34 velocity=30 time=0
note_on channel=0 note=34 velocity=0 time=120
note_on channel=0 note=46 velocity=26 time=0
note_on channel=0 note=46 velocity=0 time=120
note_on channel=0 note=58 velocity=0 time=0
note_on channel=0 note=62 velocity=0 time=0
note_on channel=0 note=65 velocity=0 time=0
note_on channel=0 note=66 velocity=46 time=0
note_on channel=0 note=63 velocity=39 time=0
note_on channel=0 note=34 velocity=30 time=0
control_change channel=0 control=64 value=0 time=0
control_change channel=0 control=64 value=127 time=92
note_on channel=0 note=34 velocity=0 time=28
note_on channel=0 note=46 velocity=26 time=0
note_on channel=0 note=46 velocity=0 time=120
note_on channel=0 note=34 velocity=30 time=0
note_on channel=0 note=34 velocity=0 time=120
note_on channel=0 note=46 velocity=25 time=0
note_on channel=0 note=46 velocity=0 time=120
note_on channel=0 note=34 velocity=30 time=0
note_on channel=0 note=34 velocity=0 time=120
note_on channel=0 note=46 velocity=26 time=0
note_on channel=0 note=46 velocity=0 time=120
note_on channel=0 note=61 velocity=40 time=0
note_on channel=0 note=34 velocity=30 time=0
note_on channel=0 note=34 velocity=0 time=120
note_on channel=0 note=46 velocity=27 time=0
note_on channel=0 note=46 velocity=0 time=120
note_on channel=0 note=61 velocity=0 time=0
note_on channel=0 note=63 velocity=0 time=0
note_on channel=0 note=66 velocity=0 time=0
note_on channel=0 note=66 velocity=32 time=0
note_on channel=0 note=63 velocity=32 time=0
note_on channel=0 note=59 velocity=45 time=0
note_on channel=0 note=34 velocity=30 time=0
control_change channel=0 control=64 value=0 time=14
note_on channel=0 note=34 velocity=0 time=106
note_on channel=0 note=46 velocity=27 time=0
control_change channel=0 control=64 value=127 time=0
note_on channel=0 note=46 velocity=0 time=120
note_on channel=0 note=59 velocity=0 time=0
note_on channel=0 note=58 velocity=40 time=0
note_on channel=0 note=34 velocity=30 time=0
note_on channel=0 note=34 velocity=0 time=120
note_on channel=0 note=46 velocity=25 time=0
note_on channel=0 note=46 velocity=0 time=120
note_on channel=0 note=58 velocity=0 time=0
note_on channel=0 note=63 velocity=0 time=0
note_on channel=0 note=66 velocity=0 time=0
note_on channel=0 note=66 velocity=33 time=0
note_on channel=0 note=63 velocity=33 time=0
note_on channel=0 note=59 velocity=46 time=0
note_on channel=0 note=34 velocity=30 time=0
control_change channel=0 control=64 value=0 time=14
note_on channel=0 note=34 velocity=0 time=106
note_on channel=0 note=46 velocity=26 time=0
control_change channel=0 control=64 value=127 time=43
note_on channel=0 note=46 velocity=0 time=77
note_on channel=0 note=59 velocity=0 time=0
note_on channel=0 note=57 velocity=40 time=0
note_on channel=0 note=34 velocity=30 time=0
note_on channel=0 note=34 velocity=0 time=120
note_on channel=0 note=46 velocity=26 time=0
note_on channel=0 note=46 velocity=0 time=120
note_on channel=0 note=57 velocity=0 time=0
note_on channel=0 note=63 velocity=0 time=0
note_on channel=0 note=66 velocity=0 time=0
note_on channel=0 note=65 velocity=46 time=0
note_on channel=0 note=62 velocity=39 time=0
note_on channel=0 note=58 velocity=39 time=0
note_on channel=0 note=34 velocity=30 time=0
control_change channel=0 control=64 value=0 time=14
control_change channel=0 control=64 value=127 time=85
note_on channel=0 note=34 velocity=0 time=21
note_on channel=0 note=46 velocity=26 time=0
note_on channel=0 note=46 velocity=0 time=120
note_on channel=0 note=34 velocity=30 time=0
note_on channel=0 note=34 velocity=0 time=120
note_on channel=0 note=46 velocity=25 time=0
note_on channel=0 note=46 velocity=0 time=120
note_on channel=0 note=34 velocity=30 time=0
note_on channel=0 note=34 velocity=0 time=120
note_on channel=0 note=46 velocity=26 time=0
note_on channel=0 note=46 velocity=0 time=120
note_on channel=0 note=58 velocity=0 time=0
note_on channel=0 note=62 velocity=0 time=0
note_on channel=0 note=65 velocity=0 time=0
note_on channel=0 note=34 velocity=30 time=0
note_on channel=0 note=34 velocity=0 time=120
note_on channel=0 note=46 velocity=27 time=0
note_on channel=0 note=46 velocity=0 time=120
note_on channel=0 note=74 velocity=52 time=0
note_on channel=0 note=65 velocity=52 time=0
note_on channel=0 note=62 velocity=44 time=0
note_on channel=0 note=34 velocity=30 time=0
control_change channel=0 control=64 value=0 time=21
control_change channel=0 control=64 value=127 time=85
note_on channel=0 note=34 velocity=0 time=14
note_on channel=0 note=46 velocity=27 time=0
note_on channel=0 note=46 velocity=0 time=120
note_on channel=0 note=34 velocity=35 time=0
note_on channel=0 note=34 velocity=0 time=120
note_on channel=0 note=46 velocity=29 time=0
control_change channel=0 control=64 value=0 time=113
note_on channel=0 note=46 velocity=0 time=7
note_on channel=0 note=34 velocity=34 time=0
control_change channel=0 control=64 value=127 time=106
note_on channel=0 note=34 velocity=0 time=14
note_on channel=0 note=46 velocity=26 time=0
note_on channel=0 note=46 velocity=0 time=120
note_on channel=0 note=74 velocity=0 time=0
note_on channel=0 note=70 velocity=50 time=0
note_on channel=0 note=34 velocity=35 time=0
note_on channel=0 note=34 velocity=0 time=120
note_on channel=0 note=46 velocity=31 time=0
note_on channel=0 note=46 velocity=0 time=120
note_on channel=0 note=70 velocity=0 time=0
note_on channel=0 note=62 velocity=0 time=0
note_on channel=0 note=65 velocity=0 time=0
note_on channel=0 note=75 velocity=52 time=0
note_on channel=0 note=66 velocity=59 time=0
note_on channel=0 note=63 velocity=50 time=0
note_on channel=0 note=34 velocity=38 time=0
control_change channel=0 control=64 value=0 time=0
control_change channel=0 control=64 value=127 time=78
note_on channel=0 note=34 velocity=0 time=42
note_on channel=0 note=46 velocity=30 time=0
note_on channel=0 note=46 velocity=0 time=120
note_on channel=0 note=34 velocity=34 time=0
note_on channel=0 note=34 velocity=0 time=120
note_on channel=0 note=46 velocity=25 time=0
note_on channel=0 note=46 velocity=0 time=120
note_on channel=0 note=34 velocity=33 time=0
control_change channel=0 control=64 value=0 time=14
note_on channel=0 note=34 velocity=0 time=106
note_on channel=0 note=46 velocity=26 time=0
control_change channel=0 control=64 value=127 time=7
note_on channel=0 note=46 velocity=0 time=113
note_on channel=0 note=75 velocity=0 time=0
note_on channel=0 note=73 velocity=52 time=0
note_on channel=0 note=34 velocity=30 time=0
note_on channel=0 note=34 velocity=0 time=120
note_on channel=0 note=46 velocity=27 time=0
note_on channel=0 note=46 velocity=0 time=120
note_on channel=0 note=73 velocity=0 time=0
note_on channel=0 note=63 velocity=0 time=0
note_on channel=0 note=66 velocity=0 time=0
note_on channel=0 note=66 velocity=41 time=0
note_on channel=0 note=63 velocity=41 time=0
note_on channel=0 note=71 velocity=58 time=0
note_on channel=0 note=34 velocity=30 time=0
control_change channel=0 control=64 value=0 time=16
control_change channel=0 control=64 value=127 time=62
note_on channel=0 note=34 velocity=0 time=42
note_on channel=0 note=46 velocity=27 time=0
note_on channel=0 note=46 velocity=0 time=120
note_on channel=0 note=71 velocity=0 time=0
note_on channel=0 note=70 velocity=52 time=0
note_on channel=0 note=34 velocity=30 time=0
note_on channel=0 note=34 velocity=0 time=120
note_on channel=0 note=46 velocity=25 time=0
note_on channel=0 note=46 velocity=0 time=120
note_on channel=0 note=70 velocity=0 time=0
note_on channel=0 note=63 velocity=0 time=0
note_on channel=0 note=66 velocity=0 time=0
note_on channel=0 note=66 velocity=42 time=0
note_on channel=0 note=63 velocity=42 time=0
note_on channel=0 note=71 velocity=59 time=0
note_on channel=0 note=34 velocity=30 time=0
control_change channel=0 control=64 value=0 time=12
control_change channel=0 control=64 value=127 time=80
note_on channel=0 note=34 velocity=0 time=28
note_on channel=0 note=46 velocity=26 time=0
note_on channel=0 note=46 velocity=0 time=120
note_on channel=0 note=71 velocity=0 time=0
note_on channel=0 note=69 velocity=52 time=0
note_on channel=0 note=34 velocity=30 time=0
note_on channel=0 note=34 velocity=0 time=120
note_on channel=0 note=46 velocity=26 time=0
note_on channel=0 note=46 velocity=0 time=120
note_on channel=0 note=69 velocity=0 time=0
note_on channel=0 note=63 velocity=0 time=0
note_on channel=0 note=66 velocity=0 time=0
note_on channel=0 note=70 velocity=59 time=0
note_on channel=0 note=65 velocity=50 time=0
note_on channel=0 note=62 velocity=50 time=0
note_on channel=0 note=34 velocity=30 time=0
control_change channel=0 control=64 value=0 time=0
note_on channel=0 note=34 velocity=0 time=120
note_on channel=0 note=46 velocity=25 time=0
control_change channel=0 control=64 value=127 time=7
note_on channel=0 note=46 velocity=0 time=113
note_on channel=0 note=34 velocity=29 time=0
note_on channel=0 note=34 velocity=0 time=120
note_on channel=0 note=46 velocity=24 time=0
note_on channel=0 note=46 velocity=0 time=120
note_on channel=0 note=34 velocity=28 time=0
note_on channel=0 note=34 velocity=0 time=120
note_on channel=0 note=46 velocity=24 time=0
note_on channel=0 note=46 velocity=0 time=120
note_on channel=0 note=62 velocity=0 time=0
note_on channel=0 note=65 velocity=0 time=0
note_on channel=0 note=70 velocity=0 time=0
note_on channel=0 note=34 velocity=28 time=0
note_on channel=0 note=34 velocity=0 time=120
note_on channel=0 note=46 velocity=25 time=0
note_on channel=0 note=46 velocity=0 time=7
note_on channel=0 note=66 velocity=37 time=0
note_on channel=0 note=63 velocity=37 time=0
note_on channel=0 note=72 velocity=53 time=0
note_on channel=0 note=34 velocity=27 time=0
control_change channel=0 control=64 value=0 time=18
control_change channel=0 control=64 value=127 time=88
note_on channel=0 note=34 velocity=0 time=14
note_on channel=0 note=46 velocity=24 time=0
note_on channel=0 note=46 velocity=0 time=120
note_on channel=0 note=72 velocity=0 time=0
note_on channel=0 note=70 velocity=46 time=0
note_on channel=0 note=34 velocity=27 time=0
note_on channel=0 note=34 velocity=0 time=120
note_on channel=0 note=46 velocity=22 time=0
note_on channel=0 note=46 velocity=0 time=120
note_on channel=0 note=70 velocity=0 time=0
note_on channel=0 note=63 velocity=0 time=0
note_on channel=0 note=66 velocity=0 time=0
note_on channel=0 note=66 velocity=36 time=0
note_on channel=0 note=63 velocity=36 time=0
note_on channel=0 note=72 velocity=51 time=0
note_on channel=0 note=34 velocity=26 time=0
control_change channel=0 control=64 value=0 time=14
control_change channel=0 control=64 value=127 time=92
note_on channel=0 note=34 velocity=0 time=14
note_on channel=0 note=46 velocity=22 time=0
note_on channel=0 note=46 velocity=0 time=7
note_on channel=0 note=72 velocity=0 time=0
note_on channel=0 note=69 velocity=44 time=0
note_on channel=0 note=34 velocity=25 time=0
note_on channel=0 note=34 velocity=0 time=120
note_on channel=0 note=46 velocity=22 time=0
note_on channel=0 note=46 velocity=0 time=7
note_on channel=0 note=69 velocity=0 time=0
note_on channel=0 note=63 velocity=0 time=0
note_on channel=0 note=66 velocity=0 time=0
note_on channel=0 note=70 velocity=49 time=0
note_on channel=0 note=65 velocity=42 time=0
note_on channel=0 note=62 velocity=42 time=0
note_on channel=0 note=34 velocity=25 time=0
control_change channel=0 control=64 value=0 time=0
control_change channel=0 control=64 value=127 time=106
note_on channel=0 note=34 velocity=0 time=14
note_on channel=0 note=46 velocity=21 time=0
note_on channel=0 note=46 velocity=0 time=120
note_on channel=0 note=34 velocity=24 time=0
note_on channel=0 note=34 velocity=0 time=120
note_on channel=0 note=46 velocity=20 time=0
note_on channel=0 note=46 velocity=0 time=120
note_on channel=0 note=34 velocity=24 time=0
note_on channel=0 note=34 velocity=0 time=120
note_on channel=0 note=46 velocity=20 time=0
note_on channel=0 note=46 velocity=0 time=120
note_on channel=0 note=62 velocity=0 time=0
note_on channel=0 note=65 velocity=0 time=0
note_on channel=0 note=70 velocity=0 time=0
note_on channel=0 note=34 velocity=23 time=0
note_on channel=0 note=34 velocity=0 time=120
note_on channel=0 note=46 velocity=20 time=0
note_on channel=0 note=46 velocity=0 time=120
note_on channel=0 note=66 velocity=30 time=0
note_on channel=0 note=63 velocity=30 time=0
note_on channel=0 note=71 velocity=43 time=0
note_on channel=0 note=34 velocity=22 time=0
control_change channel=0 control=64 value=0 time=0
note_on channel=0 note=34 velocity=0 time=106
note_on channel=0 note=46 velocity=20 time=0
control_change channel=0 control=64 value=127 time=0
note_on channel=0 note=46 velocity=0 time=120
note_on channel=0 note=71 velocity=0 time=0
note_on channel=0 note=70 velocity=39 time=0
note_on channel=0 note=34 velocity=22 time=0
note_on channel=0 note=34 velocity=0 time=120
note_on channel=0 note=46 velocity=18 time=0
note_on channel=0 note=46 velocity=0 time=120
note_on channel=0 note=70 velocity=0 time=0
note_on channel=0 note=63 velocity=0 time=0
note_on channel=0 note=66 velocity=0 time=0
note_on channel=0 note=66 velocity=31 time=0
note_on channel=0 note=63 velocity=31 time=0
note_on channel=0 note=71 velocity=44 time=0
note_on channel=0 note=34 velocity=22 time=0
control_change channel=0 control=64 value=0 time=17
note_on channel=0 note=34 velocity=0 time=103
note_on channel=0 note=46 velocity=19 time=0
control_change channel=0 control=64 value=127 time=36
note_on channel=0 note=46 velocity=0 time=84
note_on channel=0 note=71 velocity=0 time=0
note_on channel=0 note=69 velocity=39 time=0
note_on channel=0 note=34 velocity=22 time=0
note_on channel=0 note=34 velocity=0 time=106
note_on channel=0 note=46 velocity=19 time=0
note_on channel=0 note=46 velocity=0 time=120
note_on channel=0 note=69 velocity=0 time=0
note_on channel=0 note=63 velocity=0 time=0
note_on channel=0 note=66 velocity=0 time=0
note_on channel=0 note=58 velocity=74 time=0
note_on channel=0 note=70 velocity=88 time=0
note_on channel=0 note=34 velocity=56 time=0
note_on channel=0 note=46 velocity=66 time=0
control_change channel=0 control=64 value=0 time=0
control_change channel=0 control=64 value=127 time=106
note_on channel=0 note=46 velocity=0 time=0
note_on channel=0 note=58 velocity=0 time=0
note_on channel=0 note=70 velocity=0 time=0
note_on channel=0 note=34 velocity=0 time=0
note_on channel=0 note=60 velocity=67 time=0
note_on channel=0 note=72 velocity=79 time=0
note_on channel=0 note=36 velocity=49 time=0
note_on channel=0 note=48 velocity=59 time=0
control_change channel=0 control=64 value=0 time=14
note_on channel=0 note=48 velocity=0 time=106
note_on channel=0 note=60 velocity=0 time=0
note_on channel=0 note=72 velocity=0 time=0
note_on channel=0 note=36 velocity=0 time=0
note_on channel=0 note=62 velocity=74 time=0
note_on channel=0 note=74 velocity=89 time=0
note_on channel=0 note=38 velocity=56 time=0
note_on channel=0 note=50 velocity=66 time=0
control_change channel=0 control=64 value=127 time=106
note_on channel=0 note=50 velocity=0 time=0
note_on channel=0 note=62 velocity=0 time=0
note_on channel=0 note=74 velocity=0 time=0
note_on channel=0 note=38 velocity=0 time=0
note_on channel=0 note=63 velocity=68 time=0
note_on channel=0 note=75 velocity=81 time=0
note_on channel=0 note=39 velocity=50 time=0
note_on channel=0 note=51 velocity=60 time=0
control_change channel=0 control=64 value=0 time=12
note_on channel=0 note=51 velocity=0 time=108
note_on channel=0 note=63 velocity=0 time=0
note_on channel=0 note=75 velocity=0 time=0
note_on channel=0 note=39 velocity=0 time=0
note_on channel=0 note=65 velocity=77 time=0
note_on channel=0 note=77 velocity=91 time=0
note_on channel=0 note=41 velocity=57 time=0
note_on channel=0 note=53 velocity=68 time=0
control_change channel=0 control=64 value=127 time=80
note_on channel=0 note=53 velocity=0 time=0
note_on channel=0 note=65 velocity=0 time=0
note_on channel=0 note=77 velocity=0 time=0
note_on channel=0 note=41 velocity=0 time=0
note_on channel=0 note=67 velocity=62 time=0
note_on channel=0 note=79 velocity=74 time=0
note_on channel=0 note=43 velocity=47 time=0
note_on channel=0 note=55 velocity=56 time=0
control_change channel=0 control=64 value=0 time=17
note_on channel=0 note=55 velocity=0 time=103
note_on channel=0 note=67 velocity=0 time=0
note_on channel=0 note=79 velocity=0 time=0
note_on channel=0 note=43 velocity=0 time=0
note_on channel=0 note=69 velocity=71 time=0
note_on channel=0 note=81 velocity=84 time=0
note_on channel=0 note=45 velocity=53 time=0
note_on channel=0 note=57 velocity=63 time=0
note_on channel=0 note=57 velocity=0 time=120
note_on channel=0 note=69 velocity=0 time=0
note_on channel=0 note=81 velocity=0 time=0
note_on channel=0 note=45 velocity=0 time=0
note_on channel=0 note=70 velocity=68 time=120
note_on channel=0 note=82 velocity=81 time=0
note_on channel=0 note=46 velocity=50 time=0
note_on channel=0 note=58 velocity=60 time=0
note_on channel=0 note=58 velocity=0 time=120
note_on channel=0 note=70 velocity=0 time=0
note_on channel=0 note=82 velocity=0 time=0
note_on channel=0 note=46 velocity=0 time=0
note_on channel=0 note=72 velocity=74 time=120
note_on channel=0 note=84 velocity=87 time=0
note_on channel=0 note=48 velocity=55 time=0
note_on channel=0 note=60 velocity=65 time=0
note_on channel=0 note=60 velocity=0 time=120
note_on channel=0 note=72 velocity=0 time=0
note_on channel=0 note=84 velocity=0 time=0
note_on channel=0 note=48 velocity=0 time=0
note_on channel=0 note=74 velocity=69 time=0
note_on channel=0 note=86 velocity=83 time=0
note_on channel=0 note=50 velocity=51 time=0
note_on channel=0 note=62 velocity=61 time=0
note_on channel=0 note=62 velocity=0 time=120
note_on channel=0 note=74 velocity=0 time=0
note_on channel=0 note=86 velocity=0 time=0
note_on channel=0 note=50 velocity=0 time=0
note_on channel=0 note=75 velocity=81 time=0
note_on channel=0 note=87 velocity=96 time=0
note_on channel=0 note=51 velocity=61 time=0
note_on channel=0 note=63 velocity=72 time=0
control_change channel=0 control=64 value=127 time=50
note_on channel=0 note=63 velocity=0 time=0
note_on channel=0 note=75 velocity=0 time=0
note_on channel=0 note=87 velocity=0 time=0
note_on channel=0 note=51 velocity=0 time=0
note_on channel=0 note=74 velocity=71 time=0
note_on channel=0 note=86 velocity=84 time=0
note_on channel=0 note=50 velocity=52 time=0
note_on channel=0 note=62 velocity=63 time=0
control_change channel=0 control=64 value=0 time=10
note_on channel=0 note=62 velocity=0 time=110
note_on channel=0 note=74 velocity=0 time=0
note_on channel=0 note=86 velocity=0 time=0
note_on channel=0 note=50 velocity=0 time=0
note_on channel=0 note=72 velocity=78 time=0
note_on channel=0 note=84 velocity=94 time=0
note_on channel=0 note=48 velocity=59 time=0
note_on channel=0 note=60 velocity=69 time=0
control_change channel=0 control=64 value=127 time=134
note_on channel=0 note=60 velocity=0 time=0
note_on channel=0 note=72 velocity=0 time=0
note_on channel=0 note=84 velocity=0 time=0
note_on channel=0 note=48 velocity=0 time=0
note_on channel=0 note=70 velocity=70 time=0
note_on channel=0 note=82 velocity=83 time=0
note_on channel=0 note=46 velocity=51 time=0
note_on channel=0 note=58 velocity=61 time=0
control_change channel=0 control=64 value=0 time=12
note_on channel=0 note=58 velocity=0 time=108
note_on channel=0 note=70 velocity=0 time=0
note_on channel=0 note=82 velocity=0 time=0
note_on channel=0 note=46 velocity=0 time=0
note_on channel=0 note=69 velocity=78 time=0
note_on channel=0 note=81 velocity=92 time=0
note_on channel=0 note=45 velocity=58 time=0
note_on channel=0 note=57 velocity=69 time=0
control_change channel=0 control=64 value=127 time=113
note_on channel=0 note=57 velocity=0 time=0
note_on channel=0 note=69 velocity=0 time=0
note_on channel=0 note=81 velocity=0 time=0
note_on channel=0 note=45 velocity=0 time=0
note_on channel=0 note=67 velocity=62 time=0
note_on channel=0 note=79 velocity=74 time=0
note_on channel=0 note=43 velocity=47 time=0
note_on channel=0 note=55 velocity=56 time=0
control_change channel=0 control=64 value=0 time=14
note_on channel=0 note=55 velocity=0 time=106
note_on channel=0 note=67 velocity=0 time=0
note_on channel=0 note=79 velocity=0 time=0
note_on channel=0 note=43 velocity=0 time=0
note_on channel=0 note=65 velocity=70 time=0
note_on channel=0 note=77 velocity=83 time=0
note_on channel=0 note=41 velocity=52 time=0
note_on channel=0 note=53 velocity=62 time=0
note_on channel=0 note=53 velocity=0 time=120
note_on channel=0 note=65 velocity=0 time=0
note_on channel=0 note=77 velocity=0 time=0
note_on channel=0 note=41 velocity=0 time=0
note_on channel=0 note=63 velocity=66 time=120
note_on channel=0 note=75 velocity=78 time=0
note_on channel=0 note=39 velocity=49 time=0
note_on channel=0 note=51 velocity=58 time=0
note_on channel=0 note=51 velocity=0 time=120
note_on channel=0 note=63 velocity=0 time=0
note_on channel=0 note=75 velocity=0 time=0
note_on channel=0 note=39 velocity=0 time=0
note_on channel=0 note=62 velocity=70 time=120
note_on channel=0 note=74 velocity=83 time=0
note_on channel=0 note=38 velocity=52 time=0
note_on channel=0 note=50 velocity=62 time=0
note_on channel=0 note=50 velocity=0 time=120
note_on channel=0 note=62 velocity=0 time=0
note_on channel=0 note=74 velocity=0 time=0
note_on channel=0 note=38 velocity=0 time=0
note_on channel=0 note=60 velocity=64 time=0
note_on channel=0 note=72 velocity=77 time=0
note_on channel=0 note=36 velocity=48 time=0
note_on channel=0 note=48 velocity=57 time=0
note_on channel=0 note=48 velocity=0 time=120
note_on channel=0 note=60 velocity=0 time=0
note_on channel=0 note=72 velocity=0 time=0
note_on channel=0 note=36 velocity=0 time=0
note_on channel=0 note=58 velocity=78 time=120
note_on channel=0 note=70 velocity=90 time=0
note_on channel=0 note=34 velocity=58 time=0
note_on channel=0 note=46 velocity=69 time=0
note_on channel=0 note=46 velocity=0 time=120
note_on channel=0 note=58 velocity=0 time=0
note_on channel=0 note=70 velocity=0 time=0
note_on channel=0 note=34 velocity=0 time=0
note_on channel=0 note=69 velocity=53 time=0
note_on channel=0 note=53 velocity=34 time=0
note_on channel=0 note=60 velocity=34 time=0
note_on channel=0 note=63 velocity=41 time=0
control_change channel=0 control=64 value=127 time=46
note_on channel=0 note=63 velocity=0 time=74
note_on channel=0 note=69 velocity=0 time=0
note_on channel=0 note=53 velocity=0 time=0
note_on channel=0 note=60 velocity=0 time=0
note_on channel=0 note=68 velocity=45 time=0
note_on channel=0 note=68 velocity=0 time=120
note_on channel=0 note=69 velocity=53 time=0
control_change channel=0 control=64 value=0 time=29
note_on channel=0 note=69 velocity=0 time=0
note_on channel=0 note=65 velocity=43 time=0
note_on channel=0 note=65 velocity=0 time=0
note_on channel=0 note=70 velocity=57 time=0
note_on channel=0 note=58 velocity=41 time=0
note_on channel=0 note=62 velocity=49 time=0
note_on channel=0 note=62 velocity=0 time=120
note_on channel=0 note=58 velocity=0 time=0
note_on channel=0 note=70 velocity=0 time=0
note_on channel=0 note=81 velocity=53 time=0
note_on channel=0 note=65 velocity=34 time=0
note_on channel=0 note=72 velocity=34 time=0
note_on channel=0 note=75 velocity=41 time=0
control_change channel=0 control=64 value=127 time=46
note_on channel=0 note=75 velocity=0 time=74
note_on channel=0 note=81 velocity=0 time=0
note_on channel=0 note=65 velocity=0 time=0
note_on channel=0 note=72 velocity=0 time=0
note_on channel=0 note=80 velocity=45 time=0
note_on channel=0 note=80 velocity=0 time=120
note_on channel=0 note=81 velocity=53 time=0
control_change channel=0 control=64 value=0 time=29
note_on channel=0 note=81 velocity=0 time=0
note_on channel=0 note=77 velocity=43 time=0
note_on channel=0 note=77 velocity=0 time=0
note_on channel=0 note=82 velocity=57 time=0
note_on channel=0 note=70 velocity=41 time=0
note_on channel=0 note=74 velocity=49 time=0
note_on channel=0 note=74 velocity=0 time=120
note_on channel=0 note=70 velocity=0 time=0
note_on channel=0 note=82 velocity=0 time=0
note_on channel=0 note=81 velocity=91 time=0
note_on channel=0 note=77 velocity=77 time=0
note_on channel=0 note=75 velocity=77 time=0
note_on channel=0 note=72 velocity=77 time=0
note_on channel=0 note=69 velocity=77 time=0
note_on channel=0 note=41 velocity=56 time=0
note_on channel=0 note=53 velocity=67 time=0
control_change channel=0 control=64 value=127 time=0
note_on channel=0 note=53 velocity=0 time=480
note_on channel=0 note=69 velocity=0 time=0
note_on channel=0 note=77 velocity=0 time=0
note_on channel=0 note=75 velocity=0 time=0
note_on channel=0 note=81 velocity=0 time=0
note_on channel=0 note=41 velocity=0 time=0
note_on channel=0 note=72 velocity=0 time=0
control_change channel=0 control=64 value=0 time=120
note_on channel=0 note=82 velocity=97 time=360
note_on channel=0 note=77 velocity=82 time=0
note_on channel=0 note=74 velocity=82 time=0
note_on channel=0 note=70 velocity=82 time=0
note_on channel=0 note=34 velocity=64 time=0
note_on channel=0 note=46 velocity=76 time=0
control_change channel=0 control=64 value=127 time=360
note_on channel=0 note=46 velocity=0 time=120
note_on channel=0 note=77 velocity=0 time=0
note_on channel=0 note=74 velocity=0 time=0
note_on channel=0 note=82 velocity=0 time=0
note_on channel=0 note=34 velocity=0 time=0
note_on channel=0 note=70 velocity=0 time=0
control_change channel=0 control=64 value=0 time=360
