note_on channel=0 note=60 velocity=42 time=0
note_on channel=0 note=68 velocity=50 time=0
note_on channel=0 note=44 velocity=27 time=0
note_on channel=0 note=51 velocity=27 time=0
note_on channel=0 note=56 velocity=32 time=0
control_change channel=0 control=64 value=127 time=57
note_on channel=0 note=68 velocity=0 time=0
note_on channel=0 note=70 velocity=50 time=0
note_on channel=0 note=70 velocity=0 time=60
note_on channel=0 note=68 velocity=46 time=0
note_on channel=0 note=68 velocity=0 time=60
note_on channel=0 note=67 velocity=46 time=0
note_on channel=0 note=67 velocity=0 time=60
note_on channel=0 note=68 velocity=46 time=0
note_on channel=0 note=68 velocity=0 time=0
note_on channel=0 note=51 velocity=0 time=0
note_on channel=0 note=60 velocity=0 time=0
note_on channel=0 note=44 velocity=0 time=0
note_on channel=0 note=56 velocity=0 time=0
note_on channel=0 note=72 velocity=54 time=0
note_on channel=0 note=61 velocity=45 time=0
note_on channel=0 note=43 velocity=24 time=0
note_on channel=0 note=51 velocity=24 time=0
note_on channel=0 note=55 velocity=29 time=0
control_change channel=0 control=64 value=0 time=14
control_change channel=0 control=64 value=127 time=64
note_on channel=0 note=72 velocity=0 time=0
note_on channel=0 note=70 velocity=45 time=0
note_on channel=0 note=70 velocity=0 time=0
note_on channel=0 note=55 velocity=0 time=0
note_on channel=0 note=61 velocity=0 time=0
note_on channel=0 note=43 velocity=0 time=0
note_on channel=0 note=51 velocity=0 time=0
note_on channel=0 note=60 velocity=42 time=0
note_on channel=0 note=68 velocity=50 time=0
note_on channel=0 note=44 velocity=30 time=0
note_on channel=0 note=51 velocity=30 time=0
note_on channel=0 note=56 velocity=36 time=0
control_change channel=0 control=64 value=0 time=0
control_change channel=0 control=64 value=127 time=503
note_on channel=0 note=56 velocity=0 time=480
note_on channel=0 note=44 velocity=0 time=0
note_on channel=0 note=60 velocity=0 time=0
note_on channel=0 note=68 velocity=0 time=0
note_on channel=0 note=51 velocity=0 time=0
note_on channel=0 note=69 velocity=50 time=0
control_change channel=0 control=64 value=0 time=20
note_on channel=0 note=69 velocity=0 time=0
note_on channel=0 note=63 velocity=42 time=0
note_on channel=0 note=70 velocity=50 time=0
note_on channel=0 note=55 velocity=27 time=0
note_on channel=0 note=61 velocity=32 time=0
control_change channel=0 control=64 value=127 time=72
note_on channel=0 note=61 velocity=0 time=408
note_on channel=0 note=70 velocity=0 time=0
note_on channel=0 note=58 velocity=32 time=0
note_on channel=0 note=72 velocity=50 time=0
note_on channel=0 note=72 velocity=0 time=60
note_on channel=0 note=70 velocity=46 time=0
note_on channel=0 note=70 velocity=0 time=60
note_on channel=0 note=69 velocity=46 time=0
note_on channel=0 note=69 velocity=0 time=60
note_on channel=0 note=70 velocity=46 time=0
control_change channel=0 control=64 value=0 time=55
note_on channel=0 note=70 velocity=0 time=0
note_on channel=0 note=58 velocity=0 time=0
note_on channel=0 note=55 velocity=0 time=0
note_on channel=0 note=63 velocity=0 time=0
note_on channel=0 note=73 velocity=54 time=0
note_on channel=0 note=63 velocity=45 time=0
note_on channel=0 note=56 velocity=29 time=0
control_change channel=0 control=64 value=127 time=37
note_on channel=0 note=63 velocity=0 time=443
note_on channel=0 note=68 velocity=42 time=0
note_on channel=0 note=60 velocity=32 time=0
note_on channel=0 note=73 velocity=0 time=240
note_on channel=0 note=72 velocity=45 time=0
note_on channel=0 note=72 velocity=0 time=0
note_on channel=0 note=60 velocity=0 time=0
note_on channel=0 note=68 velocity=0 time=0
note_on channel=0 note=56 velocity=0 time=0
note_on channel=0 note=67 velocity=42 time=0
note_on channel=0 note=70 velocity=50 time=0
note_on channel=0 note=51 velocity=30 time=0
note_on channel=0 note=63 velocity=36 time=0
control_change channel=0 control=64 value=0 time=0
control_change channel=0 control=64 value=127 time=412
note_on channel=0 note=63 velocity=0 time=1028
note_on channel=0 note=67 velocity=0 time=0
note_on channel=0 note=70 velocity=0 time=0
note_on channel=0 note=51 velocity=0 time=0
note_on channel=0 note=71 velocity=50 time=0
control_change channel=0 control=64 value=0 time=16
note_on channel=0 note=71 velocity=0 time=464
note_on channel=0 note=72 velocity=63 time=0
note_on channel=0 note=63 velocity=63 time=0
note_on channel=0 note=56 velocity=32 time=0
control_change channel=0 control=64 value=127 time=148
note_on channel=0 note=72 velocity=0 time=60
note_on channel=0 note=68 velocity=52 time=0
note_on channel=0 note=68 velocity=0 time=0
note_on channel=0 note=56 velocity=0 time=0
note_on channel=0 note=63 velocity=0 time=0
note_on channel=0 note=75 velocity=64 time=0
note_on channel=0 note=68 velocity=64 time=0
note_on channel=0 note=63 velocity=55 time=0
note_on channel=0 note=48 velocity=37 time=0
note_on channel=0 note=60 velocity=37 time=0
note_on channel=0 note=56 velocity=37 time=0
control_change channel=0 control=64 value=0 time=15
control_change channel=0 control=64 value=127 time=155
note_on channel=0 note=75 velocity=0 time=120
note_on channel=0 note=72 velocity=60 time=0
note_on channel=0 note=72 velocity=0 time=0
note_on channel=0 note=56 velocity=0 time=0
note_on channel=0 note=48 velocity=0 time=0
note_on channel=0 note=68 velocity=0 time=0
note_on channel=0 note=63 velocity=0 time=0
note_on channel=0 note=60 velocity=0 time=0
note_on channel=0 note=65 velocity=55 time=0
note_on channel=0 note=68 velocity=64 time=0
note_on channel=0 note=77 velocity=70 time=0
note_on channel=0 note=49 velocity=45 time=0
note_on channel=0 note=56 velocity=45 time=0
note_on channel=0 note=61 velocity=45 time=0
control_change channel=0 control=64 value=0 time=6
control_change channel=0 control=64 value=127 time=135
note_on channel=0 note=77 velocity=0 time=60
note_on channel=0 note=73 velocity=67 time=0
note_on channel=0 note=73 velocity=0 time=0
note_on channel=0 note=61 velocity=0 time=0
note_on channel=0 note=49 velocity=0 time=0
note_on channel=0 note=65 velocity=0 time=0
note_on channel=0 note=68 velocity=0 time=0
note_on channel=0 note=56 velocity=0 time=0
note_on channel=0 note=53 velocity=41 time=0
control_change channel=0 control=64 value=0 time=6
note_on channel=0 note=56 velocity=45 time=24
note_on channel=0 note=61 velocity=49 time=30
control_change channel=0 control=64 value=127 time=0
note_on channel=0 note=65 velocity=53 time=30
note_on channel=0 note=68 velocity=70 time=30
note_on channel=0 note=73 velocity=75 time=30
note_on channel=0 note=77 velocity=78 time=30
note_on channel=0 note=80 velocity=82 time=30
control_change channel=0 control=64 value=0 time=696
note_on channel=0 note=77 velocity=0 time=0
note_on channel=0 note=80 velocity=0 time=0
note_on channel=0 note=79 velocity=63 time=0
note_on channel=0 note=79 velocity=0 time=220
note_on channel=0 note=77 velocity=59 time=20
note_on channel=0 note=77 velocity=0 time=220
note_on channel=0 note=75 velocity=56 time=20
note_on channel=0 note=75 velocity=0 time=220
note_on channel=0 note=73 velocity=0 time=0
note_on channel=0 note=56 velocity=0 time=0
note_on channel=0 note=61 velocity=0 time=0
note_on channel=0 note=65 velocity=0 time=0
note_on channel=0 note=68 velocity=0 time=0
note_on channel=0 note=53 velocity=0 time=0
note_on channel=0 note=70 velocity=51 time=0
note_on channel=0 note=73 velocity=60 time=0
note_on channel=0 note=55 velocity=31 time=0
note_on channel=0 note=63 velocity=37 time=0
control_change channel=0 control=64 value=127 time=99
note_on channel=0 note=63 velocity=0 time=0
note_on channel=0 note=70 velocity=0 time=0
note_on channel=0 note=73 velocity=0 time=0
note_on channel=0 note=55 velocity=0 time=0
note_on channel=0 note=68 velocity=44 time=0
note_on channel=0 note=72 velocity=52 time=0
note_on channel=0 note=63 velocity=34 time=0
note_on channel=0 note=56 velocity=28 time=0
control_change channel=0 control=64 value=0 time=14
control_change channel=0 control=64 value=127 time=156
note_on channel=0 note=56 velocity=0 time=0
note_on channel=0 note=68 velocity=0 time=0
note_on channel=0 note=72 velocity=0 time=0
note_on channel=0 note=63 velocity=0 time=0
note_on channel=0 note=63 velocity=46 time=0
note_on channel=0 note=75 velocity=55 time=0
note_on channel=0 note=60 velocity=37 time=0
note_on channel=0 note=51 velocity=31 time=0
control_change channel=0 control=64 value=0 time=0
control_change channel=0 control=64 value=127 time=36
note_on channel=0 note=63 velocity=0 time=444
note_on channel=0 note=63 velocity=39 time=0
note_on channel=0 note=75 velocity=0 time=240
note_on channel=0 note=60 velocity=0 time=0
note_on channel=0 note=72 velocity=51 time=0
note_on channel=0 note=56 velocity=31 time=0
note_on channel=0 note=56 velocity=0 time=0
note_on channel=0 note=63 velocity=0 time=0
note_on channel=0 note=51 velocity=0 time=0
note_on channel=0 note=72 velocity=0 time=0
note_on channel=0 note=63 velocity=45 time=0
note_on channel=0 note=70 velocity=53 time=0
note_on channel=0 note=70 velocity=51 time=0
note_on channel=0 note=51 velocity=26 time=0
note_on channel=0 note=55 velocity=31 time=0
control_change channel=0 control=64 value=0 time=9
note_on channel=0 note=70 velocity=0 time=21
note_on channel=0 note=72 velocity=46 time=0
control_change channel=0 control=64 value=127 time=17
note_on channel=0 note=72 velocity=0 time=13
note_on channel=0 note=70 velocity=51 time=0
note_on channel=0 note=70 velocity=0 time=30
note_on channel=0 note=72 velocity=45 time=0
note_on channel=0 note=72 velocity=0 time=0
note_on channel=0 note=70 velocity=51 time=0
note_on channel=0 note=70 velocity=0 time=40
note_on channel=0 note=69 velocity=46 time=0
note_on channel=0 note=69 velocity=0 time=40
note_on channel=0 note=70 velocity=46 time=0
note_on channel=0 note=70 velocity=0 time=40
note_on channel=0 note=73 velocity=57 time=0
control_change channel=0 control=64 value=127 time=0
control_change channel=0 control=64 value=0 time=16
note_on channel=0 note=73 velocity=0 time=104
note_on channel=0 note=72 velocity=48 time=0
note_on channel=0 note=72 velocity=0 time=0
note_on channel=0 note=51 velocity=0 time=0
note_on channel=0 note=63 velocity=0 time=0
note_on channel=0 note=70 velocity=0 time=0
note_on channel=0 note=55 velocity=0 time=0
note_on channel=0 note=75 velocity=55 time=0
control_change channel=0 control=64 value=0 time=8
control_change channel=0 control=64 value=127 time=23
note_on channel=0 note=75 velocity=0 time=89
note_on channel=0 note=73 velocity=47 time=0
note_on channel=0 note=73 velocity=0 time=0
note_on channel=0 note=72 velocity=51 time=0
note_on channel=0 note=72 velocity=0 time=80
note_on channel=0 note=73 velocity=47 time=0
note_on channel=0 note=73 velocity=0 time=40
note_on channel=0 note=70 velocity=47 time=0
note_on channel=0 note=70 velocity=0 time=0
note_on channel=0 note=60 velocity=34 time=0
note_on channel=0 note=68 velocity=50 time=0
note_on channel=0 note=44 velocity=36 time=0
control_change channel=0 control=64 value=0 time=14
control_change channel=0 control=64 value=127 time=46
note_on channel=0 note=51 velocity=28 time=180
note_on channel=0 note=51 velocity=0 time=228
note_on channel=0 note=51 velocity=29 time=12
note_on channel=0 note=51 velocity=0 time=228
note_on channel=0 note=68 velocity=0 time=0
note_on channel=0 note=70 velocity=50 time=0
note_on channel=0 note=51 velocity=29 time=0
note_on channel=0 note=70 velocity=0 time=60
note_on channel=0 note=68 velocity=46 time=0
note_on channel=0 note=68 velocity=0 time=60
note_on channel=0 note=67 velocity=46 time=0
note_on channel=0 note=67 velocity=0 time=60
note_on channel=0 note=68 velocity=46 time=0
note_on channel=0 note=68 velocity=0 time=0
note_on channel=0 note=51 velocity=0 time=0
note_on channel=0 note=44 velocity=0 time=0
note_on channel=0 note=60 velocity=0 time=0
note_on channel=0 note=72 velocity=54 time=0
note_on channel=0 note=61 velocity=45 time=0
note_on channel=0 note=43 velocity=36 time=0
control_change channel=0 control=64 value=0 time=14
control_change channel=0 control=64 value=127 time=64
note_on channel=0 note=51 velocity=28 time=162
note_on channel=0 note=51 velocity=0 time=228
note_on channel=0 note=51 velocity=28 time=12
note_on channel=0 note=51 velocity=0 time=228
note_on channel=0 note=72 velocity=0 time=0
note_on channel=0 note=70 velocity=45 time=0
note_on channel=0 note=51 velocity=28 time=0
note_on channel=0 note=51 velocity=0 time=0
note_on channel=0 note=61 velocity=0 time=0
note_on channel=0 note=43 velocity=0 time=0
note_on channel=0 note=70 velocity=0 time=0
note_on channel=0 note=60 velocity=42 time=0
note_on channel=0 note=68 velocity=50 time=0
note_on channel=0 note=44 velocity=36 time=0
control_change channel=0 control=64 value=0 time=0
control_change channel=0 control=64 value=127 time=226
note_on channel=0 note=44 velocity=0 time=14
note_on channel=0 note=51 velocity=32 time=0
note_on channel=0 note=51 velocity=0 time=0
note_on channel=0 note=48 velocity=36 time=0
note_on channel=0 note=48 velocity=0 time=240
note_on channel=0 note=56 velocity=32 time=0
note_on channel=0 note=56 velocity=0 time=0
note_on channel=0 note=68 velocity=0 time=0
note_on channel=0 note=60 velocity=0 time=0
note_on channel=0 note=51 velocity=40 time=0
note_on channel=0 note=51 velocity=0 time=240
note_on channel=0 note=60 velocity=36 time=0
note_on channel=0 note=60 velocity=0 time=0
note_on channel=0 note=56 velocity=47 time=0
note_on channel=0 note=56 velocity=0 time=0
note_on channel=0 note=63 velocity=36 time=0
note_on channel=0 note=63 velocity=0 time=0
note_on channel=0 note=70 velocity=59 time=0
note_on channel=0 note=55 velocity=45 time=0
control_change channel=0 control=64 value=0 time=0
control_change channel=0 control=64 value=127 time=72
note_on channel=0 note=63 velocity=29 time=168
note_on channel=0 note=63 velocity=0 time=228
note_on channel=0 note=70 velocity=0 time=12
note_on channel=0 note=63 velocity=29 time=0
note_on channel=0 note=63 velocity=0 time=228
note_on channel=0 note=72 velocity=54 time=0
note_on channel=0 note=63 velocity=29 time=0
note_on channel=0 note=72 velocity=0 time=60
note_on channel=0 note=70 velocity=46 time=0
note_on channel=0 note=70 velocity=0 time=60
note_on channel=0 note=69 velocity=49 time=0
note_on channel=0 note=69 velocity=0 time=60
note_on channel=0 note=70 velocity=50 time=0
note_on channel=0 note=70 velocity=0 time=0
note_on channel=0 note=63 velocity=0 time=0
note_on channel=0 note=55 velocity=0 time=0
note_on channel=0 note=73 velocity=62 time=0
note_on channel=0 note=68 velocity=62 time=0
note_on channel=0 note=56 velocity=36 time=0
control_change channel=0 control=64 value=0 time=10
control_change channel=0 control=64 value=127 time=53
note_on channel=0 note=63 velocity=29 time=177
note_on channel=0 note=63 velocity=0 time=228
note_on channel=0 note=63 velocity=29 time=12
note_on channel=0 note=63 velocity=0 time=228
note_on channel=0 note=73 velocity=0 time=12
note_on channel=0 note=72 velocity=50 time=0
note_on channel=0 note=63 velocity=29 time=0
note_on channel=0 note=63 velocity=0 time=0
note_on channel=0 note=68 velocity=0 time=0
note_on channel=0 note=56 velocity=0 time=0
note_on channel=0 note=72 velocity=0 time=0
note_on channel=0 note=67 velocity=57 time=0
note_on channel=0 note=70 velocity=57 time=0
note_on channel=0 note=51 velocity=41 time=0
control_change channel=0 control=64 value=0 time=0
note_on channel=0 note=51 velocity=0 time=240
note_on channel=0 note=63 velocity=32 time=0
control_change channel=0 control=64 value=127 time=35
note_on channel=0 note=63 velocity=0 time=120
note_on channel=0 note=62 velocity=33 time=0
note_on channel=0 note=62 velocity=0 time=240
note_on channel=0 note=63 velocity=33 time=0
note_on channel=0 note=63 velocity=0 time=240
note_on channel=0 note=70 velocity=0 time=0
note_on channel=0 note=67 velocity=0 time=0
note_on channel=0 note=62 velocity=36 time=0
control_change channel=0 control=64 value=0 time=0
control_change channel=0 control=64 value=127 time=172
note_on channel=0 note=62 velocity=0 time=68
note_on channel=0 note=63 velocity=31 time=0
note_on channel=0 note=63 velocity=0 time=0
note_on channel=0 note=65 velocity=36 time=0
note_on channel=0 note=65 velocity=0 time=240
note_on channel=0 note=61 velocity=33 time=0
note_on channel=0 note=63 velocity=36 time=210
note_on channel=0 note=61 velocity=0 time=0
note_on channel=0 note=72 velocity=63 time=0
control_change channel=0 control=64 value=0 time=0
control_change channel=0 control=64 value=127 time=36
note_on channel=0 note=63 velocity=0 time=24
note_on channel=0 note=56 velocity=32 time=180
note_on channel=0 note=56 velocity=0 time=240
note_on channel=0 note=60 velocity=32 time=0
note_on channel=0 note=60 velocity=0 time=240
note_on channel=0 note=63 velocity=29 time=0
note_on channel=0 note=72 velocity=0 time=60
note_on channel=0 note=68 velocity=52 time=0
note_on channel=0 note=63 velocity=0 time=80
note_on channel=0 note=63 velocity=43 time=10
note_on channel=0 note=68 velocity=0 time=0
note_on channel=0 note=75 velocity=64 time=0
control_change channel=0 control=64 value=0 time=15
control_change channel=0 control=64 value=127 time=35
note_on channel=0 note=63 velocity=0 time=40
note_on channel=0 note=48 velocity=32 time=150
note_on channel=0 note=48 velocity=0 time=240
note_on channel=0 note=51 velocity=32 time=0
note_on channel=0 note=51 velocity=0 time=0
note_on channel=0 note=56 velocity=30 time=0
note_on channel=0 note=75 velocity=0 time=120
note_on channel=0 note=72 velocity=60 time=0
note_on channel=0 note=72 velocity=0 time=60
note_on channel=0 note=65 velocity=44 time=30
note_on channel=0 note=56 velocity=0 time=0
note_on channel=0 note=77 velocity=73 time=0
control_change channel=0 control=64 value=0 time=6
note_on channel=0 note=65 velocity=0 time=54
control_change channel=0 control=64 value=127 time=18
note_on channel=0 note=49 velocity=38 time=162
note_on channel=0 note=53 velocity=38 time=0
control_change channel=0 control=64 value=0 time=0
note_on channel=0 note=55 velocity=42 time=240
note_on channel=0 note=53 velocity=0 time=12
note_on channel=0 note=56 velocity=45 time=228
note_on channel=0 note=55 velocity=0 time=12
note_on channel=0 note=57 velocity=49 time=0
note_on channel=0 note=56 velocity=0 time=12
note_on channel=0 note=58 velocity=52 time=228
note_on channel=0 note=57 velocity=0 time=12
note_on channel=0 note=77 velocity=0 time=228
note_on channel=0 note=69 velocity=59 time=0
note_on channel=0 note=75 velocity=70 time=0
note_on channel=0 note=60 velocity=48 time=0
note_on channel=0 note=58 velocity=0 time=12
note_on channel=0 note=75 velocity=0 time=0
note_on channel=0 note=69 velocity=0 time=0
note_on channel=0 note=70 velocity=52 time=0
note_on channel=0 note=73 velocity=62 time=0
note_on channel=0 note=61 velocity=51 time=0
note_on channel=0 note=60 velocity=0 time=12
note_on channel=0 note=73 velocity=0 time=0
note_on channel=0 note=49 velocity=0 time=0
note_on channel=0 note=70 velocity=0 time=0
note_on channel=0 note=68 velocity=59 time=0
note_on channel=0 note=72 velocity=70 time=0
note_on channel=0 note=51 velocity=32 time=0
note_on channel=0 note=63 velocity=51 time=0
note_on channel=0 note=61 velocity=0 time=12
control_change channel=0 control=64 value=127 time=57
note_on channel=0 note=63 velocity=0 time=171
note_on channel=0 note=62 velocity=45 time=0
note_on channel=0 note=62 velocity=0 time=240
note_on channel=0 note=72 velocity=0 time=0
note_on channel=0 note=75 velocity=63 time=0
note_on channel=0 note=61 velocity=46 time=0
control_change channel=0 control=64 value=0 time=8
control_change channel=0 control=64 value=127 time=129
note_on channel=0 note=61 velocity=0 time=0
note_on channel=0 note=60 velocity=46 time=0
note_on channel=0 note=60 velocity=0 time=0
note_on channel=0 note=75 velocity=0 time=0
note_on channel=0 note=68 velocity=0 time=0
note_on channel=0 note=51 velocity=0 time=0
note_on channel=0 note=67 velocity=59 time=0
note_on channel=0 note=73 velocity=70 time=0
note_on channel=0 note=51 velocity=32 time=0
note_on channel=0 note=58 velocity=51 time=0
control_change channel=0 control=64 value=0 time=9
control_change channel=0 control=64 value=127 time=151
note_on channel=0 note=58 velocity=0 time=80
note_on channel=0 note=60 velocity=44 time=0
note_on channel=0 note=60 velocity=0 time=240
note_on channel=0 note=73 velocity=0 time=0
note_on channel=0 note=70 velocity=60 time=0
note_on channel=0 note=61 velocity=44 time=0
control_change channel=0 control=64 value=0 time=14
control_change channel=0 control=64 value=127 time=101
note_on channel=0 note=61 velocity=0 time=0
note_on channel=0 note=55 velocity=44 time=0
note_on channel=0 note=55 velocity=0 time=230
note_on channel=0 note=70 velocity=0 time=0
note_on channel=0 note=51 velocity=0 time=0
note_on channel=0 note=67 velocity=0 time=0
note_on channel=0 note=61 velocity=59 time=0
note_on channel=0 note=70 velocity=70 time=0
note_on channel=0 note=44 velocity=32 time=0
note_on channel=0 note=55 velocity=51 time=0
control_change channel=0 control=64 value=0 time=0
control_change channel=0 control=64 value=127 time=127
note_on channel=0 note=61 velocity=0 time=0
note_on channel=0 note=60 velocity=34 time=0
control_change channel=0 control=64 value=0 time=18
note_on channel=0 note=60 velocity=0 time=102
note_on channel=0 note=61 velocity=32 time=0
note_on channel=0 note=61 velocity=0 time=120
note_on channel=0 note=63 velocity=36 time=0
note_on channel=0 note=63 velocity=0 time=0
note_on channel=0 note=61 velocity=31 time=0
note_on channel=0 note=61 velocity=0 time=0
note_on channel=0 note=70 velocity=0 time=0
note_on channel=0 note=55 velocity=0 time=0
note_on channel=0 note=60 velocity=37 time=0
note_on channel=0 note=68 velocity=45 time=0
note_on channel=0 note=56 velocity=31 time=0
control_change channel=0 control=64 value=127 time=78
control_change channel=0 control=64 value=0 time=247
note_on channel=0 note=56 velocity=0 time=155
note_on channel=0 note=44 velocity=0 time=0
note_on channel=0 note=60 velocity=0 time=0
note_on channel=0 note=68 velocity=0 time=0
note_on channel=0 note=77 velocity=78 time=450
note_on channel=0 note=89 velocity=91 time=0
note_on channel=0 note=63 velocity=76 time=0
note_on channel=0 note=65 velocity=76 time=0
note_on channel=0 note=60 velocity=76 time=0
note_on channel=0 note=57 velocity=76 time=0
control_change channel=0 control=64 value=127 time=55
note_on channel=0 note=77 velocity=0 time=5
note_on channel=0 note=89 velocity=0 time=660
note_on channel=0 note=87 velocity=65 time=0
note_on channel=0 note=84 velocity=63 time=34
note_on channel=0 note=87 velocity=0 time=1
note_on channel=0 note=84 velocity=0 time=34
note_on channel=0 note=81 velocity=62 time=0
note_on channel=0 note=77 velocity=61 time=34
note_on channel=0 note=81 velocity=0 time=0
note_on channel=0 note=77 velocity=0 time=34
note_on channel=0 note=75 velocity=59 time=0
note_on channel=0 note=72 velocity=57 time=34
note_on channel=0 note=75 velocity=0 time=1
note_on channel=0 note=69 velocity=56 time=33
note_on channel=0 note=72 velocity=0 time=1
note_on channel=0 note=65 velocity=0 time=32
note_on channel=0 note=69 velocity=0 time=2
note_on channel=0 note=63 velocity=0 time=0
note_on channel=0 note=60 velocity=0 time=0
note_on channel=0 note=57 velocity=0 time=0
note_on channel=0 note=65 velocity=78 time=0
control_change channel=0 control=64 value=0 time=0
note_on channel=0 note=65 velocity=0 time=0
note_on channel=0 note=60 velocity=45 time=360
note_on channel=0 note=63 velocity=54 time=0
note_on channel=0 note=45 velocity=30 time=0
note_on channel=0 note=53 velocity=36 time=0
note_on channel=0 note=53 velocity=0 time=110
note_on channel=0 note=60 velocity=0 time=0
note_on channel=0 note=63 velocity=0 time=0
note_on channel=0 note=45 velocity=0 time=0
note_on channel=0 note=60 velocity=48 time=0
note_on channel=0 note=63 velocity=57 time=0
note_on channel=0 note=46 velocity=35 time=0
note_on channel=0 note=53 velocity=41 time=0
control_change channel=0 control=64 value=127 time=240
note_on channel=0 note=63 velocity=0 time=720
note_on channel=0 note=60 velocity=0 time=0
note_on channel=0 note=58 velocity=38 time=0
note_on channel=0 note=61 velocity=45 time=0
control_change channel=0 control=64 value=0 time=14
note_on channel=0 note=61 velocity=0 time=466
note_on channel=0 note=53 velocity=0 time=0
note_on channel=0 note=46 velocity=0 time=0
note_on channel=0 note=58 velocity=0 time=0
note_on channel=0 note=75 velocity=78 time=450
note_on channel=0 note=87 velocity=91 time=0
note_on channel=0 note=61 velocity=76 time=0
note_on channel=0 note=63 velocity=76 time=0
note_on channel=0 note=58 velocity=76 time=0
note_on channel=0 note=55 velocity=76 time=0
control_change channel=0 control=64 value=127 time=36
note_on channel=0 note=75 velocity=0 time=24
note_on channel=0 note=87 velocity=0 time=660
note_on channel=0 note=85 velocity=65 time=0
note_on channel=0 note=82 velocity=63 time=34
note_on channel=0 note=85 velocity=0 time=1
note_on channel=0 note=82 velocity=0 time=34
note_on channel=0 note=79 velocity=62 time=0
note_on channel=0 note=75 velocity=61 time=34
note_on channel=0 note=79 velocity=0 time=0
note_on channel=0 note=75 velocity=0 time=34
note_on channel=0 note=73 velocity=59 time=0
note_on channel=0 note=70 velocity=57 time=34
note_on channel=0 note=73 velocity=0 time=1
note_on channel=0 note=67 velocity=56 time=33
note_on channel=0 note=70 velocity=0 time=1
note_on channel=0 note=63 velocity=0 time=32
note_on channel=0 note=67 velocity=0 time=2
note_on channel=0 note=61 velocity=0 time=0
note_on channel=0 note=58 velocity=0 time=0
note_on channel=0 note=55 velocity=0 time=0
note_on channel=0 note=63 velocity=78 time=0
control_change channel=0 control=64 value=0 time=15
note_on channel=0 note=63 velocity=0 time=0
note_on channel=0 note=58 velocity=45 time=360
note_on channel=0 note=61 velocity=54 time=0
note_on channel=0 note=43 velocity=30 time=0
note_on channel=0 note=51 velocity=36 time=0
note_on channel=0 note=51 velocity=0 time=110
note_on channel=0 note=58 velocity=0 time=0
note_on channel=0 note=61 velocity=0 time=0
note_on channel=0 note=43 velocity=0 time=0
note_on channel=0 note=58 velocity=48 time=10
note_on channel=0 note=61 velocity=57 time=0
note_on channel=0 note=44 velocity=35 time=0
note_on channel=0 note=51 velocity=41 time=0
control_change channel=0 control=64 value=127 time=80
note_on channel=0 note=61 velocity=0 time=880
note_on channel=0 note=58 velocity=0 time=0
note_on channel=0 note=56 velocity=38 time=0
note_on channel=0 note=60 velocity=45 time=0
control_change channel=0 control=64 value=0 time=14
note_on channel=0 note=60 velocity=0 time=466
note_on channel=0 note=51 velocity=0 time=0
note_on channel=0 note=44 velocity=0 time=0
note_on channel=0 note=56 velocity=0 time=0
note_on channel=0 note=47 velocity=89 time=450
note_on channel=0 note=59 velocity=92 time=0
control_change channel=0 control=64 value=127 time=35
note_on channel=0 note=47 velocity=0 time=25
note_on channel=0 note=59 velocity=0 time=240
note_on channel=0 note=59 velocity=59 time=0
note_on channel=0 note=59 velocity=0 time=40
note_on channel=0 note=56 velocity=57 time=0
note_on channel=0 note=56 velocity=0 time=40
note_on channel=0 note=51 velocity=56 time=1
note_on channel=0 note=47 velocity=56 time=39
note_on channel=0 note=51 velocity=0 time=1
note_on channel=0 note=47 velocity=0 time=39
note_on channel=0 note=44 velocity=55 time=1
note_on channel=0 note=44 velocity=0 time=40
note_on channel=0 note=39 velocity=53 time=0
note_on channel=0 note=35 velocity=91 time=0
note_on channel=0 note=39 velocity=0 time=1
control_change channel=0 control=64 value=0 time=13
note_on channel=0 note=35 velocity=0 time=226
note_on channel=0 note=51 velocity=69 time=60
note_on channel=0 note=56 velocity=69 time=0
note_on channel=0 note=63 velocity=69 time=0
note_on channel=0 note=35 velocity=46 time=0
note_on channel=0 note=47 velocity=46 time=0
note_on channel=0 note=47 velocity=0 time=110
note_on channel=0 note=63 velocity=0 time=0
note_on channel=0 note=51 velocity=0 time=0
note_on channel=0 note=56 velocity=0 time=0
note_on channel=0 note=35 velocity=0 time=0
note_on channel=0 note=63 velocity=83 time=0
note_on channel=0 note=56 velocity=59 time=0
note_on channel=0 note=53 velocity=59 time=0
note_on channel=0 note=34 velocity=59 time=0
note_on channel=0 note=46 velocity=59 time=0
control_change channel=0 control=64 value=127 time=80
note_on channel=0 note=63 velocity=0 time=880
note_on channel=0 note=62 velocity=46 time=0
control_change channel=0 control=64 value=0 time=14
note_on channel=0 note=62 velocity=0 time=226
note_on channel=0 note=64 velocity=46 time=0
note_on channel=0 note=46 velocity=0 time=240
note_on channel=0 note=34 velocity=0 time=0
note_on channel=0 note=56 velocity=0 time=0
note_on channel=0 note=53 velocity=0 time=0
note_on channel=0 note=65 velocity=54 time=0
note_on channel=0 note=64 velocity=0 time=12
note_on channel=0 note=65 velocity=0 time=228
note_on channel=0 note=69 velocity=46 time=0
note_on channel=0 note=70 velocity=54 time=0
note_on channel=0 note=69 velocity=0 time=12
note_on channel=0 note=70 velocity=0 time=228
note_on channel=0 note=73 velocity=46 time=0
note_on channel=0 note=74 velocity=55 time=240
note_on channel=0 note=73 velocity=0 time=12
note_on channel=0 note=74 velocity=0 time=228
note_on channel=0 note=76 velocity=46 time=0
note_on channel=0 note=77 velocity=55 time=240
note_on channel=0 note=76 velocity=0 time=12
note_on channel=0 note=77 velocity=0 time=0
note_on channel=0 note=79 velocity=46 time=0
note_on channel=0 note=80 velocity=55 time=0
note_on channel=0 note=79 velocity=0 time=12
note_on channel=0 note=80 velocity=0 time=0
note_on channel=0 note=77 velocity=46 time=0
note_on channel=0 note=77 velocity=0 time=0
note_on channel=0 note=74 velocity=55 time=0
note_on channel=0 note=58 velocity=35 time=0
note_on channel=0 note=56 velocity=29 time=0
control_change channel=0 control=64 value=127 time=43
note_on channel=0 note=56 velocity=0 time=413
note_on channel=0 note=58 velocity=0 time=0
note_on channel=0 note=58 velocity=30 time=24
note_on channel=0 note=56 velocity=25 time=0
note_on channel=0 note=56 velocity=0 time=456
note_on channel=0 note=58 velocity=0 time=0
note_on channel=0 note=58 velocity=30 time=24
note_on channel=0 note=56 velocity=25 time=0
note_on channel=0 note=74 velocity=0 time=240
note_on channel=0 note=75 velocity=50 time=0
note_on channel=0 note=75 velocity=0 time=60
note_on channel=0 note=74 velocity=50 time=0
note_on channel=0 note=74 velocity=0 time=60
note_on channel=0 note=72 velocity=50 time=0
note_on channel=0 note=72 velocity=0 time=60
note_on channel=0 note=74 velocity=50 time=0
note_on channel=0 note=56 velocity=0 time=36
note_on channel=0 note=58 velocity=0 time=0
note_on channel=0 note=74 velocity=0 time=0
note_on channel=0 note=75 velocity=55 time=0
note_on channel=0 note=58 velocity=30 time=0
note_on channel=0 note=56 velocity=25 time=0
control_change channel=0 control=64 value=0 time=8
control_change channel=0 control=64 value=127 time=45
note_on channel=0 note=75 velocity=0 time=60
note_on channel=0 note=77 velocity=55 time=0
note_on channel=0 note=56 velocity=0 time=96
note_on channel=0 note=58 velocity=0 time=0
note_on channel=0 note=77 velocity=0 time=14
note_on channel=0 note=77 velocity=55 time=0
note_on channel=0 note=58 velocity=35 time=0
note_on channel=0 note=55 velocity=29 time=0
control_change channel=0 control=64 value=0 time=0
control_change channel=0 control=64 value=127 time=275
note_on channel=0 note=55 velocity=0 time=181
note_on channel=0 note=58 velocity=0 time=0
note_on channel=0 note=77 velocity=0 time=0
note_on channel=0 note=75 velocity=55 time=0
note_on channel=0 note=58 velocity=28 time=0
note_on channel=0 note=55 velocity=23 time=0
control_change channel=0 control=64 value=0 time=15
control_change channel=0 control=64 value=127 time=237
note_on channel=0 note=55 velocity=0 time=204
note_on channel=0 note=58 velocity=0 time=0
note_on channel=0 note=58 velocity=28 time=24
note_on channel=0 note=55 velocity=23 time=0
note_on channel=0 note=55 velocity=0 time=456
note_on channel=0 note=58 velocity=0 time=0
note_on channel=0 note=75 velocity=0 time=24
note_on channel=0 note=76 velocity=55 time=0
note_on channel=0 note=58 velocity=28 time=0
note_on channel=0 note=55 velocity=23 time=0
control_change channel=0 control=64 value=0 time=4
control_change channel=0 control=64 value=127 time=225
note_on channel=0 note=55 velocity=0 time=216
note_on channel=0 note=58 velocity=0 time=0
note_on channel=0 note=76 velocity=0 time=0
note_on channel=0 note=77 velocity=55 time=0
note_on channel=0 note=50 velocity=29 time=0
note_on channel=0 note=58 velocity=35 time=0
note_on channel=0 note=56 velocity=29 time=0
control_change channel=0 control=64 value=0 time=0
control_change channel=0 control=64 value=127 time=64
note_on channel=0 note=56 velocity=0 time=392
note_on channel=0 note=58 velocity=0 time=0
note_on channel=0 note=50 velocity=0 time=0
note_on channel=0 note=50 velocity=27 time=24
note_on channel=0 note=58 velocity=33 time=0
note_on channel=0 note=56 velocity=27 time=0
note_on channel=0 note=56 velocity=0 time=456
note_on channel=0 note=58 velocity=0 time=0
note_on channel=0 note=50 velocity=0 time=0
note_on channel=0 note=50 velocity=27 time=0
note_on channel=0 note=58 velocity=33 time=0
note_on channel=0 note=56 velocity=27 time=0
note_on channel=0 note=77 velocity=0 time=0
note_on channel=0 note=79 velocity=50 time=0
note_on channel=0 note=79 velocity=0 time=60
note_on channel=0 note=77 velocity=47 time=0
note_on channel=0 note=77 velocity=0 time=60
note_on channel=0 note=75 velocity=49 time=0
note_on channel=0 note=75 velocity=0 time=60
note_on channel=0 note=77 velocity=51 time=0
note_on channel=0 note=56 velocity=0 time=36
note_on channel=0 note=50 velocity=0 time=0
note_on channel=0 note=58 velocity=0 time=0
note_on channel=0 note=77 velocity=0 time=0
note_on channel=0 note=79 velocity=53 time=0
note_on channel=0 note=55 velocity=46 time=0
note_on channel=0 note=50 velocity=25 time=0
note_on channel=0 note=58 velocity=30 time=0
control_change channel=0 control=64 value=0 time=5
control_change channel=0 control=64 value=127 time=41
note_on channel=0 note=55 velocity=0 time=0
note_on channel=0 note=79 velocity=0 time=0
note_on channel=0 note=80 velocity=60 time=0
note_on channel=0 note=53 velocity=46 time=0
note_on channel=0 note=53 velocity=0 time=110
note_on channel=0 note=80 velocity=0 time=0
note_on channel=0 note=50 velocity=0 time=0
note_on channel=0 note=58 velocity=0 time=0
note_on channel=0 note=80 velocity=58 time=0
note_on channel=0 note=51 velocity=29 time=0
note_on channel=0 note=58 velocity=35 time=0
note_on channel=0 note=54 velocity=29 time=0
control_change channel=0 control=64 value=0 time=0
control_change channel=0 control=64 value=127 time=166
note_on channel=0 note=54 velocity=0 time=290
note_on channel=0 note=58 velocity=0 time=0
note_on channel=0 note=51 velocity=0 time=0
note_on channel=0 note=80 velocity=0 time=24
note_on channel=0 note=79 velocity=55 time=0
note_on channel=0 note=51 velocity=23 time=0
note_on channel=0 note=58 velocity=28 time=0
note_on channel=0 note=55 velocity=23 time=0
control_change channel=0 control=64 value=0 time=17
control_change channel=0 control=64 value=127 time=232
note_on channel=0 note=55 velocity=0 time=207
note_on channel=0 note=58 velocity=0 time=0
note_on channel=0 note=51 velocity=0 time=0
note_on channel=0 note=79 velocity=0 time=24
note_on channel=0 note=51 velocity=23 time=0
note_on channel=0 note=58 velocity=28 time=0
note_on channel=0 note=55 velocity=23 time=0
note_on channel=0 note=55 velocity=0 time=456
note_on channel=0 note=58 velocity=0 time=0
note_on channel=0 note=51 velocity=0 time=0
note_on channel=0 note=51 velocity=28 time=24
note_on channel=0 note=58 velocity=28 time=0
note_on channel=0 note=55 velocity=23 time=0
note_on channel=0 note=55 velocity=0 time=456
note_on channel=0 note=58 velocity=0 time=0
note_on channel=0 note=51 velocity=0 time=0
note_on channel=0 note=56 velocity=25 time=3
note_on channel=0 note=58 velocity=30 time=0
control_change channel=0 control=64 value=0 time=0
note_on channel=0 note=62 velocity=30 time=5
control_change channel=0 control=64 value=127 time=6
note_on channel=0 note=62 velocity=0 time=6
note_on channel=0 note=63 velocity=30 time=1
note_on channel=0 note=63 velocity=0 time=9
note_on channel=0 note=65 velocity=41 time=0
note_on channel=0 note=65 velocity=0 time=11
note_on channel=0 note=63 velocity=33 time=0
note_on channel=0 note=63 velocity=0 time=31
note_on channel=0 note=62 velocity=33 time=0
note_on channel=0 note=62 velocity=0 time=14
note_on channel=0 note=68 velocity=42 time=0
note_on channel=0 note=68 velocity=0 time=15
note_on channel=0 note=67 velocity=34 time=0
note_on channel=0 note=67 velocity=0 time=17
note_on channel=0 note=65 velocity=34 time=0
note_on channel=0 note=65 velocity=0 time=19
note_on channel=0 note=74 velocity=51 time=0
note_on channel=0 note=74 velocity=0 time=2
note_on channel=0 note=72 velocity=37 time=0
note_on channel=0 note=72 velocity=0 time=4
note_on channel=0 note=70 velocity=36 time=0
note_on channel=0 note=58 velocity=0 time=14
note_on channel=0 note=56 velocity=0 time=0
note_on channel=0 note=77 velocity=57 time=22
note_on channel=0 note=56 velocity=25 time=0
note_on channel=0 note=58 velocity=30 time=0
note_on channel=0 note=70 velocity=0 time=2
control_change channel=0 control=64 value=0 time=2
note_on channel=0 note=77 velocity=0 time=5
note_on channel=0 note=75 velocity=41 time=0
control_change channel=0 control=64 value=127 time=0
note_on channel=0 note=75 velocity=0 time=6
note_on channel=0 note=74 velocity=44 time=0
note_on channel=0 note=74 velocity=0 time=0
note_on channel=0 note=80 velocity=59 time=0
note_on channel=0 note=80 velocity=0 time=40
note_on channel=0 note=79 velocity=46 time=0
note_on channel=0 note=79 velocity=0 time=20
note_on channel=0 note=77 velocity=48 time=0
note_on channel=0 note=77 velocity=0 time=0
note_on channel=0 note=84 velocity=70 time=0
control_change channel=0 control=64 value=0 time=5
control_change channel=0 control=64 value=127 time=41
note_on channel=0 note=56 velocity=0 time=170
note_on channel=0 note=58 velocity=0 time=0
note_on channel=0 note=56 velocity=25 time=24
note_on channel=0 note=58 velocity=30 time=0
note_on channel=0 note=58 velocity=0 time=456
note_on channel=0 note=56 velocity=0 time=0
note_on channel=0 note=56 velocity=25 time=3
note_on channel=0 note=58 velocity=30 time=0
note_on channel=0 note=84 velocity=0 time=13
note_on channel=0 note=84 velocity=54 time=0
note_on channel=0 note=84 velocity=0 time=34
note_on channel=0 note=82 velocity=53 time=0
note_on channel=0 note=82 velocity=0 time=34
note_on channel=0 note=80 velocity=52 time=1
note_on channel=0 note=80 velocity=0 time=34
note_on channel=0 note=79 velocity=52 time=0
note_on channel=0 note=79 velocity=0 time=34
note_on channel=0 note=77 velocity=51 time=0
note_on channel=0 note=77 velocity=0 time=34
note_on channel=0 note=75 velocity=50 time=0
note_on channel=0 note=75 velocity=0 time=34
note_on channel=0 note=74 velocity=49 time=0
note_on channel=0 note=58 velocity=0 time=11
note_on channel=0 note=56 velocity=0 time=0
note_on channel=0 note=74 velocity=0 time=23
note_on channel=0 note=77 velocity=56 time=0
control_change channel=0 control=64 value=0 time=0
control_change channel=0 control=64 value=127 time=60
note_on channel=0 note=77 velocity=0 time=300
note_on channel=0 note=75 velocity=40 time=0
note_on channel=0 note=75 velocity=0 time=120
note_on channel=0 note=74 velocity=43 time=0
note_on channel=0 note=55 velocity=25 time=0
note_on channel=0 note=58 velocity=30 time=0
control_change channel=0 control=64 value=0 time=9
control_change channel=0 control=64 value=127 time=72
note_on channel=0 note=74 velocity=0 time=99
note_on channel=0 note=75 velocity=40 time=0
note_on channel=0 note=75 velocity=0 time=60
note_on channel=0 note=77 velocity=47 time=0
control_change channel=0 control=64 value=0 time=18
control_change channel=0 control=64 value=127 time=39
note_on channel=0 note=77 velocity=0 time=60
note_on channel=0 note=75 velocity=41 time=0
note_on channel=0 note=58 velocity=0 time=36
note_on channel=0 note=55 velocity=0 time=0
note_on channel=0 note=75 velocity=0 time=0
note_on channel=0 note=63 velocity=52 time=0
note_on channel=0 note=55 velocity=25 time=0
note_on channel=0 note=58 velocity=30 time=0
control_change channel=0 control=64 value=0 time=7
control_change channel=0 control=64 value=127 time=53
note_on channel=0 note=58 velocity=0 time=396
note_on channel=0 note=55 velocity=0 time=0
note_on channel=0 note=63 velocity=0 time=24
note_on channel=0 note=55 velocity=25 time=0
note_on channel=0 note=58 velocity=30 time=0
note_on channel=0 note=58 velocity=0 time=456
note_on channel=0 note=55 velocity=0 time=0
note_on channel=0 note=50 velocity=25 time=0
note_on channel=0 note=56 velocity=25 time=0
note_on channel=0 note=58 velocity=30 time=0
control_change channel=0 control=64 value=0 time=0
control_change channel=0 control=64 value=0 time=0
note_on channel=0 note=65 velocity=30 time=5
control_change channel=0 control=64 value=127 time=6
note_on channel=0 note=65 velocity=0 time=6
note_on channel=0 note=67 velocity=30 time=1
note_on channel=0 note=67 velocity=0 time=9
note_on channel=0 note=68 velocity=41 time=0
note_on channel=0 note=68 velocity=0 time=11
note_on channel=0 note=67 velocity=33 time=0
note_on channel=0 note=67 velocity=0 time=31
note_on channel=0 note=65 velocity=33 time=0
note_on channel=0 note=65 velocity=0 time=14
note_on channel=0 note=74 velocity=42 time=0
note_on channel=0 note=74 velocity=0 time=15
note_on channel=0 note=72 velocity=34 time=0
note_on channel=0 note=72 velocity=0 time=17
note_on channel=0 note=70 velocity=34 time=0
note_on channel=0 note=70 velocity=0 time=19
note_on channel=0 note=77 velocity=51 time=0
note_on channel=0 note=77 velocity=0 time=2
note_on channel=0 note=75 velocity=37 time=0
note_on channel=0 note=75 velocity=0 time=4
note_on channel=0 note=74 velocity=36 time=0
note_on channel=0 note=58 velocity=0 time=14
note_on channel=0 note=50 velocity=0 time=0
note_on channel=0 note=56 velocity=0 time=0
note_on channel=0 note=80 velocity=57 time=22
note_on channel=0 note=50 velocity=25 time=0
note_on channel=0 note=53 velocity=25 time=0
note_on channel=0 note=56 velocity=25 time=0
note_on channel=0 note=58 velocity=30 time=0
note_on channel=0 note=74 velocity=0 time=2
control_change channel=0 control=64 value=0 time=2
note_on channel=0 note=80 velocity=0 time=5
note_on channel=0 note=79 velocity=41 time=0
control_change channel=0 control=64 value=127 time=0
note_on channel=0 note=79 velocity=0 time=6
note_on channel=0 note=77 velocity=44 time=0
note_on channel=0 note=77 velocity=0 time=0
note_on channel=0 note=86 velocity=59 time=0
note_on channel=0 note=86 velocity=0 time=40
note_on channel=0 note=84 velocity=46 time=0
note_on channel=0 note=84 velocity=0 time=20
note_on channel=0 note=82 velocity=48 time=0
note_on channel=0 note=82 velocity=0 time=0
note_on channel=0 note=89 velocity=69 time=0
control_change channel=0 control=64 value=0 time=5
control_change channel=0 control=64 value=127 time=41
note_on channel=0 note=50 velocity=0 time=170
note_on channel=0 note=56 velocity=0 time=0
note_on channel=0 note=53 velocity=0 time=0
note_on channel=0 note=58 velocity=0 time=0
note_on channel=0 note=50 velocity=25 time=24
note_on channel=0 note=53 velocity=25 time=0
note_on channel=0 note=56 velocity=25 time=0
note_on channel=0 note=58 velocity=30 time=0
note_on channel=0 note=58 velocity=0 time=456
note_on channel=0 note=53 velocity=0 time=0
note_on channel=0 note=56 velocity=0 time=0
note_on channel=0 note=50 velocity=0 time=0
note_on channel=0 note=50 velocity=25 time=3
note_on channel=0 note=53 velocity=25 time=0
note_on channel=0 note=56 velocity=25 time=0
note_on channel=0 note=58 velocity=30 time=0
note_on channel=0 note=89 velocity=0 time=13
note_on channel=0 note=89 velocity=54 time=0
note_on channel=0 note=89 velocity=0 time=39
note_on channel=0 note=87 velocity=53 time=0
note_on channel=0 note=86 velocity=52 time=39
note_on channel=0 note=87 velocity=0 time=0
note_on channel=0 note=86 velocity=0 time=39
note_on channel=0 note=84 velocity=52 time=0
note_on channel=0 note=84 velocity=0 time=39
note_on channel=0 note=82 velocity=51 time=0
note_on channel=0 note=82 velocity=0 time=39
note_on channel=0 note=80 velocity=50 time=0
note_on channel=0 note=56 velocity=0 time=21
note_on channel=0 note=58 velocity=0 time=0
note_on channel=0 note=50 velocity=0 time=0
note_on channel=0 note=53 velocity=0 time=0
note_on channel=0 note=80 velocity=0 time=18
note_on channel=0 note=79 velocity=62 time=0
control_change channel=0 control=64 value=0 time=0
note_on channel=0 note=51 velocity=30 time=0
note_on channel=0 note=55 velocity=30 time=0
note_on channel=0 note=58 velocity=30 time=0
note_on channel=0 note=79 velocity=0 time=240
note_on channel=0 note=79 velocity=64 time=120
note_on channel=0 note=79 velocity=0 time=0
note_on channel=0 note=58 velocity=0 time=0
note_on channel=0 note=55 velocity=0 time=0
note_on channel=0 note=51 velocity=0 time=0
note_on channel=0 note=80 velocity=71 time=0
note_on channel=0 note=53 velocity=32 time=0
note_on channel=0 note=56 velocity=32 time=0
note_on channel=0 note=58 velocity=32 time=0
note_on channel=0 note=62 velocity=32 time=0
note_on channel=0 note=80 velocity=0 time=240
note_on channel=0 note=80 velocity=71 time=120
note_on channel=0 note=80 velocity=0 time=0
note_on channel=0 note=62 velocity=0 time=0
note_on channel=0 note=53 velocity=0 time=0
note_on channel=0 note=56 velocity=0 time=0
note_on channel=0 note=58 velocity=0 time=0
note_on channel=0 note=82 velocity=81 time=0
control_change channel=0 control=64 value=0 time=0
note_on channel=0 note=55 velocity=37 time=0
note_on channel=0 note=58 velocity=37 time=0
note_on channel=0 note=63 velocity=37 time=0
note_on channel=0 note=82 velocity=0 time=240
note_on channel=0 note=82 velocity=78 time=120
note_on channel=0 note=82 velocity=0 time=0
note_on channel=0 note=63 velocity=0 time=0
note_on channel=0 note=58 velocity=0 time=0
note_on channel=0 note=55 velocity=0 time=0
note_on channel=0 note=83 velocity=89 time=0
note_on channel=0 note=55 velocity=43 time=0
note_on channel=0 note=59 velocity=43 time=0
note_on channel=0 note=63 velocity=43 time=0
note_on channel=0 note=83 velocity=0 time=240
note_on channel=0 note=83 velocity=84 time=120
note_on channel=0 note=83 velocity=0 time=0
note_on channel=0 note=63 velocity=0 time=0
note_on channel=0 note=59 velocity=0 time=0
note_on channel=0 note=55 velocity=0 time=0
note_on channel=0 note=84 velocity=92 time=0
control_change channel=0 control=64 value=0 time=0
note_on channel=0 note=56 velocity=51 time=0
note_on channel=0 note=60 velocity=51 time=0
note_on channel=0 note=63 velocity=51 time=0
note_on channel=0 note=84 velocity=0 time=240
note_on channel=0 note=84 velocity=90 time=120
note_on channel=0 note=84 velocity=0 time=0
note_on channel=0 note=63 velocity=0 time=0
note_on channel=0 note=60 velocity=0 time=0
note_on channel=0 note=56 velocity=0 time=0
note_on channel=0 note=86 velocity=96 time=0
note_on channel=0 note=59 velocity=60 time=0
note_on channel=0 note=56 velocity=60 time=0
note_on channel=0 note=62 velocity=60 time=0
note_on channel=0 note=65 velocity=60 time=0
note_on channel=0 note=86 velocity=0 time=240
note_on channel=0 note=86 velocity=99 time=120
note_on channel=0 note=86 velocity=0 time=0
note_on channel=0 note=65 velocity=0 time=0
note_on channel=0 note=59 velocity=0 time=0
note_on channel=0 note=56 velocity=0 time=0
note_on channel=0 note=62 velocity=0 time=0
note_on channel=0 note=87 velocity=103 time=0
note_on channel=0 note=57 velocity=60 time=480
note_on channel=0 note=60 velocity=60 time=0
note_on channel=0 note=63 velocity=60 time=0
note_on channel=0 note=66 velocity=60 time=0
note_on channel=0 note=87 velocity=0 time=0
note_on channel=0 note=89 velocity=94 time=120
note_on channel=0 note=89 velocity=0 time=30
note_on channel=0 note=87 velocity=94 time=0
note_on channel=0 note=87 velocity=0 time=30
note_on channel=0 note=86 velocity=94 time=0
note_on channel=0 note=86 velocity=0 time=30
note_on channel=0 note=87 velocity=94 time=0
note_on channel=0 note=87 velocity=0 time=0
note_on channel=0 note=63 velocity=0 time=0
note_on channel=0 note=57 velocity=0 time=0
note_on channel=0 note=60 velocity=0 time=0
note_on channel=0 note=66 velocity=0 time=0
note_on channel=0 note=89 velocity=107 time=0
note_on channel=0 note=89 velocity=0 time=240
note_on channel=0 note=87 velocity=90 time=0
note_on channel=0 note=87 velocity=0 time=0
note_on channel=0 note=86 velocity=74 time=0
note_on channel=0 note=86 velocity=0 time=180
note_on channel=0 note=84 velocity=67 time=60
note_on channel=0 note=84 velocity=0 time=180
note_on channel=0 note=82 velocity=60 time=0
note_on channel=0 note=82 velocity=0 time=0
note_on channel=0 note=81 velocity=55 time=0
note_on channel=0 note=81 velocity=0 time=0
note_on channel=0 note=84 velocity=60 time=0
note_on channel=0 note=67 velocity=36 time=0
note_on channel=0 note=63 velocity=30 time=0
note_on channel=0 note=58 velocity=27 time=0
note_on channel=0 note=84 velocity=0 time=0
note_on channel=0 note=82 velocity=55 time=0
note_on channel=0 note=82 velocity=0 time=0
note_on channel=0 note=58 velocity=0 time=0
note_on channel=0 note=63 velocity=0 time=0
note_on channel=0 note=67 velocity=0 time=0
note_on channel=0 note=80 velocity=60 time=0
note_on channel=0 note=80 velocity=0 time=240
note_on channel=0 note=79 velocity=56 time=0
note_on channel=0 note=79 velocity=0 time=240
note_on channel=0 note=77 velocity=60 time=0
note_on channel=0 note=68 velocity=36 time=0
note_on channel=0 note=62 velocity=31 time=0
note_on channel=0 note=58 velocity=27 time=0
note_on channel=0 note=77 velocity=0 time=0
note_on channel=0 note=82 velocity=57 time=0
note_on channel=0 note=82 velocity=0 time=0
note_on channel=0 note=58 velocity=0 time=0
note_on channel=0 note=62 velocity=0 time=0
note_on channel=0 note=68 velocity=0 time=0
note_on channel=0 note=78 velocity=60 time=0
note_on channel=0 note=78 velocity=0 time=160
note_on channel=0 note=79 velocity=51 time=0
control_change channel=0 control=64 value=127 time=27
note_on channel=0 note=79 velocity=0 time=80
note_on channel=0 note=67 velocity=43 time=0
note_on channel=0 note=63 velocity=32 time=0
note_on channel=0 note=63 velocity=0 time=160
note_on channel=0 note=67 velocity=0 time=0
note_on channel=0 note=58 velocity=39 time=0
control_change channel=0 control=64 value=0 time=3
control_change channel=0 control=64 value=127 time=54
note_on channel=0 note=58 velocity=0 time=0
note_on channel=0 note=79 velocity=60 time=0
note_on channel=0 note=55 velocity=32 time=0
note_on channel=0 note=55 velocity=0 time=0
note_on channel=0 note=79 velocity=0 time=0
note_on channel=0 note=67 velocity=52 time=0
note_on channel=0 note=51 velocity=32 time=0
note_on channel=0 note=51 velocity=0 time=0
note_on channel=0 note=67 velocity=0 time=0
note_on channel=0 note=79 velocity=60 time=0
control_change channel=0 control=64 value=0 time=6
note_on channel=0 note=79 velocity=0 time=154
note_on channel=0 note=80 velocity=51 time=0
control_change channel=0 control=64 value=127 time=84
note_on channel=0 note=80 velocity=0 time=76
note_on channel=0 note=68 velocity=43 time=0
note_on channel=0 note=65 velocity=34 time=0
note_on channel=0 note=65 velocity=0 time=160
note_on channel=0 note=68 velocity=0 time=0
note_on channel=0 note=62 velocity=39 time=0
control_change channel=0 control=64 value=0 time=8
control_change channel=0 control=64 value=127 time=42
note_on channel=0 note=62 velocity=0 time=0
note_on channel=0 note=80 velocity=60 time=0
note_on channel=0 note=58 velocity=33 time=0
note_on channel=0 note=58 velocity=0 time=0
note_on channel=0 note=80 velocity=0 time=0
note_on channel=0 note=68 velocity=54 time=0
note_on channel=0 note=53 velocity=33 time=0
note_on channel=0 note=53 velocity=0 time=0
note_on channel=0 note=68 velocity=0 time=0
note_on channel=0 note=81 velocity=60 time=0
control_change channel=0 control=64 value=0 time=0
note_on channel=0 note=81 velocity=0 time=160
note_on channel=0 note=82 velocity=51 time=0
control_change channel=0 control=64 value=127 time=21
note_on channel=0 note=82 velocity=0 time=139
note_on channel=0 note=70 velocity=44 time=0
note_on channel=0 note=67 velocity=33 time=0
note_on channel=0 note=67 velocity=0 time=160
note_on channel=0 note=70 velocity=0 time=0
note_on channel=0 note=63 velocity=40 time=0
control_change channel=0 control=64 value=0 time=18
control_change channel=0 control=64 value=127 time=56
note_on channel=0 note=63 velocity=0 time=0
note_on channel=0 note=82 velocity=64 time=0
note_on channel=0 note=58 velocity=34 time=0
note_on channel=0 note=58 velocity=0 time=0
note_on channel=0 note=82 velocity=0 time=0
note_on channel=0 note=70 velocity=56 time=0
note_on channel=0 note=55 velocity=34 time=0
note_on channel=0 note=55 velocity=0 time=0
note_on channel=0 note=70 velocity=0 time=0
note_on channel=0 note=82 velocity=66 time=0
control_change channel=0 control=64 value=0 time=18
note_on channel=0 note=82 velocity=0 time=142
note_on channel=0 note=83 velocity=63 time=0
control_change channel=0 control=64 value=127 time=52
note_on channel=0 note=83 velocity=0 time=108
note_on channel=0 note=71 velocity=58 time=0
note_on channel=0 note=67 velocity=46 time=0
note_on channel=0 note=67 velocity=0 time=160
note_on channel=0 note=71 velocity=0 time=0
note_on channel=0 note=63 velocity=53 time=0
control_change channel=0 control=64 value=0 time=12
control_change channel=0 control=64 value=127 time=45
note_on channel=0 note=63 velocity=0 time=0
note_on channel=0 note=83 velocity=70 time=0
note_on channel=0 note=59 velocity=46 time=0
note_on channel=0 note=59 velocity=0 time=0
note_on channel=0 note=83 velocity=0 time=0
note_on channel=0 note=71 velocity=64 time=0
note_on channel=0 note=55 velocity=46 time=0
note_on channel=0 note=55 velocity=0 time=0
note_on channel=0 note=71 velocity=0 time=0
note_on channel=0 note=83 velocity=73 time=0
control_change channel=0 control=64 value=0 time=0
note_on channel=0 note=83 velocity=0 time=160
note_on channel=0 note=84 velocity=70 time=0
control_change channel=0 control=64 value=127 time=34
note_on channel=0 note=84 velocity=0 time=126
note_on channel=0 note=72 velocity=63 time=0
note_on channel=0 note=68 velocity=47 time=0
note_on channel=0 note=68 velocity=0 time=160
note_on channel=0 note=72 velocity=0 time=0
note_on channel=0 note=63 velocity=58 time=0
control_change channel=0 control=64 value=0 time=14
control_change channel=0 control=64 value=127 time=36
note_on channel=0 note=63 velocity=0 time=0
note_on channel=0 note=84 velocity=77 time=0
note_on channel=0 note=60 velocity=49 time=0
note_on channel=0 note=60 velocity=0 time=0
note_on channel=0 note=84 velocity=0 time=0
note_on channel=0 note=72 velocity=68 time=0
note_on channel=0 note=56 velocity=49 time=0
note_on channel=0 note=56 velocity=0 time=0
note_on channel=0 note=72 velocity=0 time=0
note_on channel=0 note=85 velocity=79 time=0
control_change channel=0 control=64 value=0 time=10
note_on channel=0 note=85 velocity=0 time=150
note_on channel=0 note=86 velocity=77 time=0
control_change channel=0 control=64 value=127 time=23
note_on channel=0 note=86 velocity=0 time=137
note_on channel=0 note=74 velocity=69 time=0
note_on channel=0 note=68 velocity=56 time=0
note_on channel=0 note=68 velocity=0 time=160
note_on channel=0 note=74 velocity=0 time=0
note_on channel=0 note=65 velocity=63 time=0
control_change channel=0 control=64 value=0 time=12
control_change channel=0 control=64 value=127 time=45
note_on channel=0 note=65 velocity=0 time=0
note_on channel=0 note=86 velocity=84 time=0
note_on channel=0 note=62 velocity=54 time=0
note_on channel=0 note=62 velocity=0 time=0
note_on channel=0 note=86 velocity=0 time=0
note_on channel=0 note=74 velocity=76 time=0
note_on channel=0 note=58 velocity=55 time=0
note_on channel=0 note=58 velocity=0 time=0
note_on channel=0 note=74 velocity=0 time=0
note_on channel=0 note=86 velocity=86 time=0
control_change channel=0 control=64 value=0 time=0
note_on channel=0 note=86 velocity=0 time=160
note_on channel=0 note=87 velocity=81 time=0
control_change channel=0 control=64 value=127 time=45
note_on channel=0 note=87 velocity=0 time=115
note_on channel=0 note=75 velocity=75 time=0
note_on channel=0 note=69 velocity=78 time=0
note_on channel=0 note=75 velocity=0 time=160
note_on channel=0 note=66 velocity=57 time=0
note_on channel=0 note=87 velocity=87 time=160
note_on channel=0 note=63 velocity=61 time=0
note_on channel=0 note=87 velocity=0 time=0
note_on channel=0 note=75 velocity=81 time=0
note_on channel=0 note=59 velocity=65 time=0
note_on channel=0 note=75 velocity=0 time=0
note_on channel=0 note=87 velocity=87 time=0
note_on channel=0 note=87 velocity=0 time=0
note_on channel=0 note=78 velocity=79 time=0
note_on channel=0 note=78 velocity=0 time=0
note_on channel=0 note=87 velocity=87 time=0
note_on channel=0 note=87 velocity=0 time=0
note_on channel=0 note=81 velocity=79 time=0
note_on channel=0 note=81 velocity=0 time=0
note_on channel=0 note=87 velocity=86 time=0
note_on channel=0 note=87 velocity=0 time=0
note_on channel=0 note=81 velocity=79 time=0
note_on channel=0 note=81 velocity=0 time=160
note_on channel=0 note=69 velocity=0 time=0
note_on channel=0 note=63 velocity=0 time=0
note_on channel=0 note=66 velocity=0 time=0
note_on channel=0 note=59 velocity=0 time=0
note_on channel=0 note=82 velocity=88 time=0
control_change channel=0 control=64 value=0 time=0
note_on channel=0 note=46 velocity=64 time=0
note_on channel=0 note=46 velocity=0 time=80
note_on channel=0 note=51 velocity=64 time=80
note_on channel=0 note=51 velocity=0 time=80
note_on channel=0 note=55 velocity=64 time=80
note_on channel=0 note=55 velocity=0 time=80
note_on channel=0 note=58 velocity=58 time=80
note_on channel=0 note=58 velocity=0 time=80
note_on channel=0 note=63 velocity=58 time=80
note_on channel=0 note=63 velocity=0 time=80
note_on channel=0 note=67 velocity=64 time=0
note_on channel=0 note=67 velocity=0 time=0
note_on channel=0 note=82 velocity=0 time=0
note_on channel=0 note=81 velocity=79 time=0
note_on channel=0 note=66 velocity=58 time=0
note_on channel=0 note=66 velocity=0 time=160
note_on channel=0 note=81 velocity=0 time=0
note_on channel=0 note=84 velocity=79 time=0
note_on channel=0 note=68 velocity=58 time=0
note_on channel=0 note=68 velocity=0 time=160
note_on channel=0 note=84 velocity=0 time=0
note_on channel=0 note=82 velocity=85 time=0
note_on channel=0 note=67 velocity=64 time=0
note_on channel=0 note=67 velocity=0 time=120
note_on channel=0 note=82 velocity=0 time=0
note_on channel=0 note=80 velocity=79 time=40
note_on channel=0 note=65 velocity=59 time=0
note_on channel=0 note=65 velocity=0 time=120
note_on channel=0 note=80 velocity=0 time=0
note_on channel=0 note=79 velocity=79 time=0
note_on channel=0 note=63 velocity=59 time=0
note_on channel=0 note=63 velocity=0 time=120
note_on channel=0 note=79 velocity=0 time=0
note_on channel=0 note=75 velocity=79 time=0
note_on channel=0 note=77 velocity=79 time=0
note_on channel=0 note=68 velocity=62 time=0
note_on channel=0 note=58 velocity=52 time=0
control_change channel=0 control=64 value=127 time=63
note_on channel=0 note=77 velocity=0 time=120
note_on channel=0 note=77 velocity=74 time=0
note_on channel=0 note=77 velocity=0 time=24
note_on channel=0 note=79 velocity=68 time=0
note_on channel=0 note=79 velocity=0 time=24
note_on channel=0 note=77 velocity=74 time=0
note_on channel=0 note=77 velocity=0 time=24
note_on channel=0 note=76 velocity=66 time=0
note_on channel=0 note=76 velocity=0 time=24
note_on channel=0 note=77 velocity=67 time=0
note_on channel=0 note=77 velocity=0 time=0
note_on channel=0 note=75 velocity=0 time=0
note_on channel=0 note=74 velocity=79 time=0
note_on channel=0 note=82 velocity=79 time=0
control_change channel=0 control=64 value=0 time=14
control_change channel=0 control=64 value=127 time=82
note_on channel=0 note=82 velocity=0 time=744
note_on channel=0 note=82 velocity=79 time=0
note_on channel=0 note=82 velocity=0 time=120
note_on channel=0 note=74 velocity=0 time=0
note_on channel=0 note=68 velocity=0 time=0
note_on channel=0 note=58 velocity=0 time=0
note_on channel=0 note=67 velocity=74 time=0
note_on channel=0 note=75 velocity=85 time=0
control_change channel=0 control=64 value=0 time=49
note_on channel=0 note=34 velocity=64 time=0
note_on channel=0 note=34 velocity=0 time=80
note_on channel=0 note=39 velocity=64 time=80
note_on channel=0 note=39 velocity=0 time=80
note_on channel=0 note=75 velocity=0 time=80
note_on channel=0 note=67 velocity=0 time=0
note_on channel=0 note=43 velocity=64 time=0
note_on channel=0 note=43 velocity=0 time=80
note_on channel=0 note=46 velocity=58 time=80
note_on channel=0 note=46 velocity=0 time=80
note_on channel=0 note=51 velocity=58 time=80
note_on channel=0 note=51 velocity=0 time=80
note_on channel=0 note=55 velocity=64 time=0
note_on channel=0 note=55 velocity=0 time=0
note_on channel=0 note=69 velocity=79 time=0
note_on channel=0 note=54 velocity=58 time=0
note_on channel=0 note=54 velocity=0 time=160
note_on channel=0 note=69 velocity=0 time=0
note_on channel=0 note=72 velocity=79 time=0
note_on channel=0 note=56 velocity=58 time=0
note_on channel=0 note=56 velocity=0 time=160
note_on channel=0 note=72 velocity=0 time=0
note_on channel=0 note=70 velocity=85 time=0
note_on channel=0 note=55 velocity=64 time=0
note_on channel=0 note=55 velocity=0 time=120
note_on channel=0 note=70 velocity=0 time=0
note_on channel=0 note=68 velocity=79 time=40
note_on channel=0 note=53 velocity=59 time=0
note_on channel=0 note=53 velocity=0 time=120
note_on channel=0 note=68 velocity=0 time=0
note_on channel=0 note=67 velocity=79 time=0
note_on channel=0 note=51 velocity=59 time=0
note_on channel=0 note=51 velocity=0 time=120
note_on channel=0 note=67 velocity=0 time=0
note_on channel=0 note=63 velocity=79 time=0
note_on channel=0 note=65 velocity=79 time=0
note_on channel=0 note=56 velocity=62 time=0
note_on channel=0 note=46 velocity=52 time=0
control_change channel=0 control=64 value=127 time=44
note_on channel=0 note=65 velocity=0 time=120
note_on channel=0 note=65 velocity=74 time=0
note_on channel=0 note=65 velocity=0 time=24
note_on channel=0 note=67 velocity=68 time=0
note_on channel=0 note=67 velocity=0 time=24
note_on channel=0 note=65 velocity=74 time=0
note_on channel=0 note=65 velocity=0 time=24
note_on channel=0 note=64 velocity=66 time=0
note_on channel=0 note=64 velocity=0 time=24
note_on channel=0 note=65 velocity=67 time=0
note_on channel=0 note=65 velocity=0 time=0
note_on channel=0 note=63 velocity=0 time=0
note_on channel=0 note=62 velocity=79 time=0
note_on channel=0 note=70 velocity=79 time=0
control_change channel=0 control=64 value=0 time=14
control_change channel=0 control=64 value=127 time=82
note_on channel=0 note=70 velocity=0 time=744
note_on channel=0 note=70 velocity=47 time=0
note_on channel=0 note=70 velocity=0 time=120
note_on channel=0 note=62 velocity=0 time=0
note_on channel=0 note=56 velocity=0 time=0
note_on channel=0 note=46 velocity=0 time=0
note_on channel=0 note=63 velocity=51 time=0
note_on channel=0 note=51 velocity=37 time=0
note_on channel=0 note=55 velocity=43 time=0
control_change channel=0 control=64 value=0 time=0
note_on channel=0 note=55 velocity=0 time=480
note_on channel=0 note=51 velocity=0 time=0
note_on channel=0 note=63 velocity=0 time=0
control_change channel=0 control=64 value=127 time=1301
note_on channel=0 note=39 velocity=64 time=19
note_on channel=0 note=46 velocity=67 time=25
note_on channel=0 note=49 velocity=67 time=5
note_on channel=0 note=51 velocity=69 time=15
note_on channel=0 note=55 velocity=74 time=15
note_on channel=0 note=58 velocity=77 time=15
note_on channel=0 note=61 velocity=81 time=15
note_on channel=0 note=63 velocity=86 time=15
note_on channel=0 note=67 velocity=90 time=15
note_on channel=0 note=67 velocity=0 time=480
note_on channel=0 note=51 velocity=0 time=0
note_on channel=0 note=63 velocity=0 time=0
note_on channel=0 note=55 velocity=0 time=0
note_on channel=0 note=39 velocity=0 time=0
note_on channel=0 note=49 velocity=0 time=0
note_on channel=0 note=61 velocity=0 time=0
note_on channel=0 note=58 velocity=0 time=0
note_on channel=0 note=46 velocity=0 time=10
control_change channel=0 control=64 value=0 time=396
note_on channel=0 note=60 velocity=42 time=0
note_on channel=0 note=68 velocity=50 time=0
note_on channel=0 note=44 velocity=39 time=0
control_change channel=0 control=64 value=127 time=57
note_on channel=0 note=44 velocity=0 time=423
note_on channel=0 note=51 velocity=32 time=0
note_on channel=0 note=68 velocity=0 time=0
note_on channel=0 note=70 velocity=50 time=0
note_on channel=0 note=70 velocity=0 time=60
note_on channel=0 note=68 velocity=46 time=0
note_on channel=0 note=68 velocity=0 time=60
note_on channel=0 note=67 velocity=46 time=0
note_on channel=0 note=67 velocity=0 time=60
note_on channel=0 note=68 velocity=46 time=0
note_on channel=0 note=68 velocity=0 time=0
note_on channel=0 note=51 velocity=0 time=0
note_on channel=0 note=60 velocity=0 time=0
note_on channel=0 note=72 velocity=54 time=0
note_on channel=0 note=61 velocity=45 time=0
note_on channel=0 note=43 velocity=39 time=0
control_change channel=0 control=64 value=0 time=14
control_change channel=0 control=64 value=127 time=64
note_on channel=0 note=43 velocity=0 time=402
note_on channel=0 note=51 velocity=29 time=0
note_on channel=0 note=72 velocity=0 time=0
note_on channel=0 note=70 velocity=45 time=0
note_on channel=0 note=70 velocity=0 time=0
note_on channel=0 note=51 velocity=0 time=0
note_on channel=0 note=61 velocity=0 time=0
note_on channel=0 note=60 velocity=42 time=0
note_on channel=0 note=68 velocity=50 time=0
note_on channel=0 note=44 velocity=42 time=0
control_change channel=0 control=64 value=0 time=0
note_on channel=0 note=44 velocity=0 time=480
note_on channel=0 note=51 velocity=36 time=0
control_change channel=0 control=64 value=127 time=23
note_on channel=0 note=51 velocity=0 time=0
note_on channel=0 note=60 velocity=0 time=0
note_on channel=0 note=56 velocity=38 time=0
note_on channel=0 note=68 velocity=0 time=240
note_on channel=0 note=67 velocity=46 time=0
note_on channel=0 note=67 velocity=0 time=240
note_on channel=0 note=56 velocity=0 time=0
note_on channel=0 note=68 velocity=44 time=0
note_on channel=0 note=60 velocity=40 time=0
control_change channel=0 control=64 value=0 time=20
note_on channel=0 note=68 velocity=0 time=0
note_on channel=0 note=69 velocity=48 time=0
note_on channel=0 note=69 velocity=0 time=0
note_on channel=0 note=60 velocity=0 time=0
note_on channel=0 note=63 velocity=52 time=0
note_on channel=0 note=70 velocity=52 time=0
note_on channel=0 note=55 velocity=46 time=0
note_on channel=0 note=61 velocity=46 time=0
control_change channel=0 control=64 value=127 time=72
note_on channel=0 note=61 velocity=0 time=408
note_on channel=0 note=70 velocity=0 time=0
note_on channel=0 note=58 velocity=32 time=0
note_on channel=0 note=72 velocity=50 time=0
note_on channel=0 note=72 velocity=0 time=60
note_on channel=0 note=70 velocity=46 time=0
note_on channel=0 note=70 velocity=0 time=60
note_on channel=0 note=69 velocity=46 time=0
note_on channel=0 note=69 velocity=0 time=60
note_on channel=0 note=70 velocity=46 time=0
control_change channel=0 control=64 value=0 time=55
note_on channel=0 note=70 velocity=0 time=0
note_on channel=0 note=58 velocity=0 time=0
note_on channel=0 note=55 velocity=0 time=0
note_on channel=0 note=63 velocity=0 time=0
note_on channel=0 note=73 velocity=54 time=0
note_on channel=0 note=63 velocity=45 time=0
note_on channel=0 note=56 velocity=29 time=0
control_change channel=0 control=64 value=127 time=37
note_on channel=0 note=63 velocity=0 time=443
note_on channel=0 note=68 velocity=45 time=0
note_on channel=0 note=60 velocity=32 time=0
note_on channel=0 note=73 velocity=0 time=240
note_on channel=0 note=72 velocity=45 time=0
note_on channel=0 note=72 velocity=0 time=0
note_on channel=0 note=60 velocity=0 time=0
note_on channel=0 note=68 velocity=0 time=0
note_on channel=0 note=56 velocity=0 time=0
note_on channel=0 note=67 velocity=42 time=0
note_on channel=0 note=70 velocity=50 time=0
note_on channel=0 note=51 velocity=30 time=0
note_on channel=0 note=63 velocity=36 time=0
control_change channel=0 control=64 value=0 time=0
control_change channel=0 control=64 value=127 time=412
note_on channel=0 note=61 velocity=32 time=68
note_on channel=0 note=61 velocity=0 time=0
note_on channel=0 note=67 velocity=0 time=0
note_on channel=0 note=58 velocity=32 time=0
note_on channel=0 note=70 velocity=0 time=160
note_on channel=0 note=77 velocity=61 time=0
note_on channel=0 note=77 velocity=0 time=160
note_on channel=0 note=75 velocity=55 time=0
note_on channel=0 note=75 velocity=0 time=160
note_on channel=0 note=58 velocity=0 time=0
note_on channel=0 note=73 velocity=62 time=0
note_on channel=0 note=55 velocity=32 time=0
control_change channel=0 control=64 value=0 time=16
note_on channel=0 note=73 velocity=0 time=104
note_on channel=0 note=72 velocity=60 time=40
note_on channel=0 note=72 velocity=0 time=40
note_on channel=0 note=71 velocity=57 time=40
note_on channel=0 note=71 velocity=0 time=120
note_on channel=0 note=63 velocity=0 time=0
note_on channel=0 note=51 velocity=0 time=0
note_on channel=0 note=55 velocity=0 time=0
note_on channel=0 note=72 velocity=63 time=0
control_change channel=0 control=64 value=127 time=36
note_on channel=0 note=56 velocity=37 time=324
note_on channel=0 note=56 velocity=0 time=120
note_on channel=0 note=63 velocity=46 time=0
note_on channel=0 note=72 velocity=0 time=60
note_on channel=0 note=68 velocity=52 time=0
note_on channel=0 note=68 velocity=0 time=0
note_on channel=0 note=63 velocity=0 time=0
note_on channel=0 note=75 velocity=64 time=0
note_on channel=0 note=48 velocity=39 time=360
note_on channel=0 note=48 velocity=0 time=120
note_on channel=0 note=56 velocity=48 time=0
note_on channel=0 note=75 velocity=0 time=120
note_on channel=0 note=72 velocity=60 time=0
note_on channel=0 note=72 velocity=0 time=0
note_on channel=0 note=56 velocity=0 time=0
note_on channel=0 note=77 velocity=70 time=0
control_change channel=0 control=64 value=0 time=6
control_change channel=0 control=64 value=127 time=72
note_on channel=0 note=49 velocity=51 time=282
note_on channel=0 note=49 velocity=0 time=120
note_on channel=0 note=61 velocity=56 time=0
note_on channel=0 note=61 velocity=0 time=60
note_on channel=0 note=77 velocity=0 time=0
note_on channel=0 note=73 velocity=67 time=0
note_on channel=0 note=53 velocity=56 time=0
note_on channel=0 note=73 velocity=0 time=0
note_on channel=0 note=80 velocity=87 time=0
note_on channel=0 note=61 velocity=62 time=0
note_on channel=0 note=61 velocity=0 time=120
note_on channel=0 note=56 velocity=56 time=0
note_on channel=0 note=56 velocity=0 time=120
note_on channel=0 note=65 velocity=65 time=0
note_on channel=0 note=65 velocity=0 time=360
note_on channel=0 note=61 velocity=65 time=0
control_change channel=0 control=64 value=0 time=96
note_on channel=0 note=61 velocity=0 time=0
note_on channel=0 note=68 velocity=84 time=0
note_on channel=0 note=56 velocity=72 time=0
note_on channel=0 note=80 velocity=0 time=0
note_on channel=0 note=79 velocity=63 time=0
note_on channel=0 note=79 velocity=0 time=120
note_on channel=0 note=56 velocity=0 time=0
note_on channel=0 note=53 velocity=0 time=0
note_on channel=0 note=77 velocity=59 time=0
note_on channel=0 note=53 velocity=40 time=0
note_on channel=0 note=56 velocity=48 time=0
note_on channel=0 note=77 velocity=0 time=240
note_on channel=0 note=75 velocity=56 time=0
note_on channel=0 note=75 velocity=0 time=220
note_on channel=0 note=56 velocity=0 time=0
note_on channel=0 note=53 velocity=0 time=0
note_on channel=0 note=68 velocity=0 time=0
note_on channel=0 note=63 velocity=37 time=0
note_on channel=0 note=75 velocity=59 time=0
note_on channel=0 note=55 velocity=48 time=0
note_on channel=0 note=58 velocity=57 time=0
control_change channel=0 control=64 value=127 time=99
note_on channel=0 note=75 velocity=0 time=141
note_on channel=0 note=73 velocity=56 time=0
note_on channel=0 note=73 velocity=0 time=220
note_on channel=0 note=58 velocity=0 time=0
note_on channel=0 note=55 velocity=0 time=0
note_on channel=0 note=63 velocity=0 time=0
note_on channel=0 note=63 velocity=37 time=0
note_on channel=0 note=73 velocity=59 time=0
note_on channel=0 note=60 velocity=48 time=0
note_on channel=0 note=56 velocity=40 time=0
control_change channel=0 control=64 value=0 time=14
control_change channel=0 control=64 value=127 time=156
note_on channel=0 note=73 velocity=0 time=70
note_on channel=0 note=72 velocity=56 time=0
note_on channel=0 note=72 velocity=0 time=220
note_on channel=0 note=56 velocity=0 time=0
note_on channel=0 note=60 velocity=0 time=0
note_on channel=0 note=63 velocity=0 time=0
note_on channel=0 note=63 velocity=46 time=0
note_on channel=0 note=75 velocity=55 time=0
note_on channel=0 note=60 velocity=43 time=0
note_on channel=0 note=51 velocity=43 time=0
control_change channel=0 control=64 value=0 time=0
control_change channel=0 control=64 value=127 time=36
note_on channel=0 note=63 velocity=0 time=444
note_on channel=0 note=63 velocity=39 time=0
note_on channel=0 note=75 velocity=0 time=240
note_on channel=0 note=60 velocity=0 time=0
note_on channel=0 note=72 velocity=51 time=0
note_on channel=0 note=56 velocity=31 time=0
note_on channel=0 note=56 velocity=0 time=0
note_on channel=0 note=63 velocity=0 time=0
note_on channel=0 note=51 velocity=0 time=0
note_on channel=0 note=72 velocity=0 time=0
note_on channel=0 note=63 velocity=45 time=0
note_on channel=0 note=70 velocity=53 time=0
note_on channel=0 note=70 velocity=51 time=0
note_on channel=0 note=51 velocity=26 time=0
note_on channel=0 note=55 velocity=31 time=0
control_change channel=0 control=64 value=0 time=9
note_on channel=0 note=70 velocity=0 time=21
note_on channel=0 note=72 velocity=46 time=0
control_change channel=0 control=64 value=127 time=17
note_on channel=0 note=72 velocity=0 time=13
note_on channel=0 note=70 velocity=51 time=0
note_on channel=0 note=70 velocity=0 time=30
note_on channel=0 note=72 velocity=45 time=0
note_on channel=0 note=72 velocity=0 time=0
note_on channel=0 note=70 velocity=51 time=0
note_on channel=0 note=70 velocity=0 time=40
note_on channel=0 note=69 velocity=46 time=0
note_on channel=0 note=69 velocity=0 time=40
note_on channel=0 note=70 velocity=46 time=0
note_on channel=0 note=70 velocity=0 time=40
note_on channel=0 note=73 velocity=57 time=0
control_change channel=0 control=64 value=127 time=0
control_change channel=0 control=64 value=0 time=16
note_on channel=0 note=73 velocity=0 time=104
note_on channel=0 note=72 velocity=48 time=0
note_on channel=0 note=72 velocity=0 time=0
note_on channel=0 note=51 velocity=0 time=0
note_on channel=0 note=63 velocity=0 time=0
note_on channel=0 note=70 velocity=0 time=0
note_on channel=0 note=55 velocity=0 time=0
note_on channel=0 note=75 velocity=55 time=0
control_change channel=0 control=64 value=0 time=8
control_change channel=0 control=64 value=127 time=23
note_on channel=0 note=75 velocity=0 time=89
note_on channel=0 note=73 velocity=47 time=0
note_on channel=0 note=73 velocity=0 time=0
note_on channel=0 note=72 velocity=51 time=0
note_on channel=0 note=72 velocity=0 time=60
note_on channel=0 note=75 velocity=47 time=0
note_on channel=0 note=75 velocity=0 time=0
note_on channel=0 note=73 velocity=47 time=0
note_on channel=0 note=73 velocity=0 time=60
note_on channel=0 note=70 velocity=47 time=0
note_on channel=0 note=70 velocity=0 time=0
note_on channel=0 note=60 velocity=42 time=0
note_on channel=0 note=68 velocity=50 time=0
note_on channel=0 note=44 velocity=36 time=0
control_change channel=0 control=64 value=0 time=14
control_change channel=0 control=64 value=127 time=46
note_on channel=0 note=51 velocity=28 time=180
note_on channel=0 note=51 velocity=0 time=228
note_on channel=0 note=51 velocity=29 time=12
note_on channel=0 note=51 velocity=0 time=228
note_on channel=0 note=68 velocity=0 time=0
note_on channel=0 note=70 velocity=50 time=0
note_on channel=0 note=51 velocity=29 time=0
note_on channel=0 note=70 velocity=0 time=60
note_on channel=0 note=68 velocity=46 time=0
note_on channel=0 note=68 velocity=0 time=60
note_on channel=0 note=67 velocity=46 time=0
note_on channel=0 note=67 velocity=0 time=60
note_on channel=0 note=68 velocity=46 time=0
note_on channel=0 note=51 velocity=0 time=48
note_on channel=0 note=60 velocity=0 time=0
note_on channel=0 note=44 velocity=0 time=0
note_on channel=0 note=68 velocity=0 time=0
note_on channel=0 note=72 velocity=54 time=0
note_on channel=0 note=61 velocity=45 time=0
note_on channel=0 note=43 velocity=36 time=0
control_change channel=0 control=64 value=0 time=14
control_change channel=0 control=64 value=127 time=64
note_on channel=0 note=51 velocity=28 time=162
note_on channel=0 note=51 velocity=0 time=228
note_on channel=0 note=51 velocity=28 time=12
note_on channel=0 note=51 velocity=0 time=228
note_on channel=0 note=72 velocity=0 time=0
note_on channel=0 note=70 velocity=45 time=0
note_on channel=0 note=51 velocity=28 time=0
note_on channel=0 note=51 velocity=0 time=228
note_on channel=0 note=61 velocity=0 time=0
note_on channel=0 note=43 velocity=0 time=0
note_on channel=0 note=70 velocity=0 time=0
note_on channel=0 note=60 velocity=42 time=0
note_on channel=0 note=68 velocity=50 time=0
note_on channel=0 note=44 velocity=43 time=0
control_change channel=0 control=64 value=0 time=0
note_on channel=0 note=44 velocity=0 time=120
note_on channel=0 note=51 velocity=36 time=40
note_on channel=0 note=51 velocity=0 time=40
note_on channel=0 note=48 velocity=36 time=40
note_on channel=0 note=48 velocity=0 time=120
note_on channel=0 note=56 velocity=40 time=40
note_on channel=0 note=56 velocity=0 time=120
note_on channel=0 note=51 velocity=36 time=40
note_on channel=0 note=51 velocity=0 time=120
note_on channel=0 note=60 velocity=36 time=40
note_on channel=0 note=60 velocity=0 time=120
note_on channel=0 note=68 velocity=0 time=0
note_on channel=0 note=60 velocity=0 time=0
note_on channel=0 note=56 velocity=43 time=0
note_on channel=0 note=56 velocity=0 time=120
note_on channel=0 note=63 velocity=36 time=40
note_on channel=0 note=63 velocity=0 time=120
note_on channel=0 note=61 velocity=36 time=40
note_on channel=0 note=61 velocity=0 time=120
note_on channel=0 note=60 velocity=47 time=40
note_on channel=0 note=60 velocity=0 time=120
note_on channel=0 note=58 velocity=36 time=40
note_on channel=0 note=58 velocity=0 time=40
note_on channel=0 note=56 velocity=36 time=40
note_on channel=0 note=56 velocity=0 time=120
note_on channel=0 note=63 velocity=42 time=0
note_on channel=0 note=70 velocity=50 time=0
note_on channel=0 note=55 velocity=45 time=0
control_change channel=0 control=64 value=0 time=0
control_change channel=0 control=64 value=127 time=72
note_on channel=0 note=51 velocity=29 time=168
note_on channel=0 note=51 velocity=0 time=228
note_on channel=0 note=70 velocity=0 time=12
note_on channel=0 note=51 velocity=29 time=0
note_on channel=0 note=51 velocity=0 time=228
note_on channel=0 note=72 velocity=50 time=0
note_on channel=0 note=51 velocity=29 time=0
note_on channel=0 note=72 velocity=0 time=60
note_on channel=0 note=70 velocity=46 time=0
note_on channel=0 note=70 velocity=0 time=60
note_on channel=0 note=69 velocity=46 time=0
note_on channel=0 note=69 velocity=0 time=60
note_on channel=0 note=70 velocity=46 time=0
note_on channel=0 note=51 velocity=0 time=48
note_on channel=0 note=63 velocity=0 time=0
note_on channel=0 note=55 velocity=0 time=0
note_on channel=0 note=70 velocity=0 time=0
note_on channel=0 note=63 velocity=45 time=0
note_on channel=0 note=73 velocity=54 time=0
note_on channel=0 note=68 velocity=45 time=0
note_on channel=0 note=56 velocity=36 time=0
control_change channel=0 control=64 value=0 time=10
control_change channel=0 control=64 value=127 time=53
note_on channel=0 note=51 velocity=29 time=177
note_on channel=0 note=51 velocity=0 time=228
note_on channel=0 note=51 velocity=29 time=12
note_on channel=0 note=51 velocity=0 time=228
note_on channel=0 note=73 velocity=0 time=12
note_on channel=0 note=72 velocity=45 time=0
note_on channel=0 note=51 velocity=29 time=0
note_on channel=0 note=51 velocity=0 time=168
note_on channel=0 note=63 velocity=0 time=0
note_on channel=0 note=56 velocity=0 time=0
note_on channel=0 note=68 velocity=0 time=0
note_on channel=0 note=72 velocity=0 time=0
note_on channel=0 note=67 velocity=42 time=0
note_on channel=0 note=70 velocity=50 time=0
note_on channel=0 note=39 velocity=41 time=0
control_change channel=0 control=64 value=0 time=0
note_on channel=0 note=39 velocity=0 time=120
note_on channel=0 note=43 velocity=38 time=40
note_on channel=0 note=43 velocity=0 time=40
note_on channel=0 note=46 velocity=38 time=40
note_on channel=0 note=46 velocity=0 time=120
note_on channel=0 note=51 velocity=48 time=40
note_on channel=0 note=51 velocity=0 time=120
note_on channel=0 note=55 velocity=48 time=40
note_on channel=0 note=55 velocity=0 time=120
note_on channel=0 note=58 velocity=51 time=40
note_on channel=0 note=58 velocity=0 time=120
note_on channel=0 note=70 velocity=0 time=40
note_on channel=0 note=67 velocity=0 time=0
note_on channel=0 note=61 velocity=55 time=0
note_on channel=0 note=61 velocity=0 time=120
note_on channel=0 note=65 velocity=49 time=40
note_on channel=0 note=65 velocity=0 time=120
note_on channel=0 note=63 velocity=49 time=40
note_on channel=0 note=63 velocity=0 time=120
note_on channel=0 note=61 velocity=53 time=40
note_on channel=0 note=61 velocity=0 time=120
note_on channel=0 note=60 velocity=44 time=40
note_on channel=0 note=60 velocity=0 time=40
note_on channel=0 note=58 velocity=44 time=40
note_on channel=0 note=58 velocity=0 time=120
note_on channel=0 note=63 velocity=36 time=10
note_on channel=0 note=72 velocity=63 time=0
note_on channel=0 note=56 velocity=39 time=0
control_change channel=0 control=64 value=0 time=0
control_change channel=0 control=64 value=127 time=36
note_on channel=0 note=63 velocity=0 time=24
note_on channel=0 note=56 velocity=0 time=60
note_on channel=0 note=63 velocity=42 time=40
note_on channel=0 note=63 velocity=0 time=120
note_on channel=0 note=60 velocity=37 time=40
note_on channel=0 note=60 velocity=0 time=120
note_on channel=0 note=56 velocity=42 time=40
note_on channel=0 note=56 velocity=0 time=120
note_on channel=0 note=51 velocity=32 time=40
note_on channel=0 note=51 velocity=0 time=120
note_on channel=0 note=48 velocity=32 time=20
note_on channel=0 note=72 velocity=0 time=40
note_on channel=0 note=68 velocity=52 time=0
note_on channel=0 note=48 velocity=0 time=80
note_on channel=0 note=63 velocity=43 time=10
note_on channel=0 note=68 velocity=0 time=0
note_on channel=0 note=75 velocity=64 time=0
control_change channel=0 control=64 value=0 time=15
control_change channel=0 control=64 value=127 time=35
note_on channel=0 note=63 velocity=0 time=10
note_on channel=0 note=60 velocity=36 time=100
note_on channel=0 note=60 velocity=0 time=120
note_on channel=0 note=56 velocity=36 time=40
note_on channel=0 note=56 velocity=0 time=120
note_on channel=0 note=51 velocity=47 time=40
note_on channel=0 note=51 velocity=0 time=120
note_on channel=0 note=48 velocity=38 time=40
note_on channel=0 note=48 velocity=0 time=40
note_on channel=0 note=44 velocity=40 time=40
note_on channel=0 note=75 velocity=0 time=40
note_on channel=0 note=72 velocity=60 time=0
note_on channel=0 note=44 velocity=0 time=80
note_on channel=0 note=72 velocity=0 time=10
note_on channel=0 note=65 velocity=44 time=0
note_on channel=0 note=77 velocity=70 time=0
control_change channel=0 control=64 value=0 time=6
control_change channel=0 control=64 value=127 time=72
note_on channel=0 note=49 velocity=32 time=82
control_change channel=0 control=64 value=0 time=80
note_on channel=0 note=51 velocity=36 time=80
note_on channel=0 note=53 velocity=36 time=160
note_on channel=0 note=51 velocity=0 time=8
note_on channel=0 note=54 velocity=41 time=152
note_on channel=0 note=53 velocity=0 time=8
note_on channel=0 note=55 velocity=43 time=20
note_on channel=0 note=54 velocity=0 time=8
note_on channel=0 note=56 velocity=46 time=0
note_on channel=0 note=55 velocity=0 time=8
note_on channel=0 note=57 velocity=48 time=152
note_on channel=0 note=56 velocity=0 time=8
note_on channel=0 note=58 velocity=49 time=152
note_on channel=0 note=57 velocity=0 time=8
note_on channel=0 note=59 velocity=52 time=152
note_on channel=0 note=58 velocity=0 time=8
note_on channel=0 note=77 velocity=0 time=152
note_on channel=0 note=65 velocity=0 time=0
note_on channel=0 note=69 velocity=59 time=0
note_on channel=0 note=75 velocity=70 time=0
note_on channel=0 note=60 velocity=54 time=0
note_on channel=0 note=59 velocity=0 time=8
note_on channel=0 note=75 velocity=0 time=80
note_on channel=0 note=69 velocity=0 time=0
note_on channel=0 note=70 velocity=52 time=0
note_on channel=0 note=73 velocity=62 time=0
note_on channel=0 note=61 velocity=57 time=0
note_on channel=0 note=60 velocity=0 time=8
note_on channel=0 note=73 velocity=0 time=0
note_on channel=0 note=49 velocity=0 time=0
note_on channel=0 note=70 velocity=0 time=0
note_on channel=0 note=61 velocity=0 time=0
note_on channel=0 note=68 velocity=59 time=0
note_on channel=0 note=72 velocity=70 time=0
note_on channel=0 note=51 velocity=56 time=0
control_change channel=0 control=64 value=127 time=0
note_on channel=0 note=63 velocity=56 time=160
note_on channel=0 note=63 velocity=0 time=160
note_on channel=0 note=62 velocity=45 time=0
note_on channel=0 note=62 velocity=0 time=160
note_on channel=0 note=72 velocity=0 time=0
note_on channel=0 note=75 velocity=63 time=0
control_change channel=0 control=64 value=0 time=8
control_change channel=0 control=64 value=127 time=129
note_on channel=0 note=61 velocity=46 time=23
note_on channel=0 note=61 velocity=0 time=80
note_on channel=0 note=60 velocity=46 time=0
note_on channel=0 note=60 velocity=0 time=0
note_on channel=0 note=75 velocity=0 time=0
note_on channel=0 note=51 velocity=0 time=0
note_on channel=0 note=68 velocity=0 time=0
note_on channel=0 note=67 velocity=59 time=0
note_on channel=0 note=73 velocity=70 time=0
note_on channel=0 note=51 velocity=32 time=0
control_change channel=0 control=64 value=0 time=9
note_on channel=0 note=58 velocity=51 time=151
control_change channel=0 control=64 value=127 time=0
note_on channel=0 note=58 velocity=0 time=160
note_on channel=0 note=60 velocity=44 time=0
note_on channel=0 note=60 velocity=0 time=160
note_on channel=0 note=73 velocity=0 time=0
note_on channel=0 note=70 velocity=60 time=0
control_change channel=0 control=64 value=0 time=14
control_change channel=0 control=64 value=127 time=101
note_on channel=0 note=61 velocity=44 time=45
note_on channel=0 note=61 velocity=0 time=80
note_on channel=0 note=55 velocity=44 time=0
note_on channel=0 note=55 velocity=0 time=0
note_on channel=0 note=70 velocity=0 time=0
note_on channel=0 note=51 velocity=0 time=0
note_on channel=0 note=67 velocity=0 time=0
note_on channel=0 note=61 velocity=59 time=0
note_on channel=0 note=70 velocity=70 time=0
note_on channel=0 note=44 velocity=32 time=0
note_on channel=0 note=55 velocity=51 time=0
control_change channel=0 control=64 value=0 time=0
control_change channel=0 control=64 value=127 time=127
control_change channel=0 control=64 value=0 time=18
note_on channel=0 note=61 velocity=0 time=102
note_on channel=0 note=60 velocity=37 time=0
note_on channel=0 note=60 velocity=0 time=60
note_on channel=0 note=61 velocity=34 time=0
note_on channel=0 note=61 velocity=0 time=60
note_on channel=0 note=63 velocity=38 time=0
note_on channel=0 note=63 velocity=0 time=60
note_on channel=0 note=61 velocity=34 time=0
note_on channel=0 note=61 velocity=0 time=0
note_on channel=0 note=60 velocity=34 time=0
note_on channel=0 note=60 velocity=0 time=60
note_on channel=0 note=61 velocity=34 time=0
note_on channel=0 note=61 velocity=0 time=0
note_on channel=0 note=70 velocity=0 time=0
note_on channel=0 note=55 velocity=0 time=0
note_on channel=0 note=60 velocity=42 time=0
note_on channel=0 note=68 velocity=51 time=0
note_on channel=0 note=56 velocity=35 time=0
control_change channel=0 control=64 value=127 time=78
control_change channel=0 control=64 value=0 time=247
note_on channel=0 note=56 velocity=0 time=155
note_on channel=0 note=44 velocity=0 time=0
note_on channel=0 note=60 velocity=0 time=0
note_on channel=0 note=68 velocity=0 time=0
note_on channel=0 note=77 velocity=78 time=450
note_on channel=0 note=89 velocity=91 time=0
note_on channel=0 note=63 velocity=76 time=0
note_on channel=0 note=65 velocity=76 time=0
note_on channel=0 note=60 velocity=76 time=0
note_on channel=0 note=57 velocity=76 time=0
control_change channel=0 control=64 value=127 time=55
note_on channel=0 note=77 velocity=0 time=5
note_on channel=0 note=89 velocity=0 time=660
note_on channel=0 note=87 velocity=65 time=0
note_on channel=0 note=84 velocity=63 time=34
note_on channel=0 note=87 velocity=0 time=1
note_on channel=0 note=84 velocity=0 time=34
note_on channel=0 note=81 velocity=62 time=0
note_on channel=0 note=77 velocity=61 time=34
note_on channel=0 note=81 velocity=0 time=0
note_on channel=0 note=77 velocity=0 time=34
note_on channel=0 note=75 velocity=59 time=0
note_on channel=0 note=72 velocity=57 time=34
note_on channel=0 note=75 velocity=0 time=1
note_on channel=0 note=69 velocity=56 time=33
note_on channel=0 note=72 velocity=0 time=1
note_on channel=0 note=65 velocity=0 time=32
note_on channel=0 note=69 velocity=0 time=2
note_on channel=0 note=63 velocity=0 time=0
note_on channel=0 note=60 velocity=0 time=0
note_on channel=0 note=57 velocity=0 time=0
note_on channel=0 note=65 velocity=78 time=0
control_change channel=0 control=64 value=0 time=0
note_on channel=0 note=65 velocity=0 time=0
note_on channel=0 note=60 velocity=45 time=360
note_on channel=0 note=63 velocity=54 time=0
note_on channel=0 note=45 velocity=30 time=0
note_on channel=0 note=53 velocity=36 time=0
note_on channel=0 note=53 velocity=0 time=110
note_on channel=0 note=60 velocity=0 time=0
note_on channel=0 note=63 velocity=0 time=0
note_on channel=0 note=45 velocity=0 time=0
note_on channel=0 note=60 velocity=48 time=0
note_on channel=0 note=63 velocity=57 time=0
note_on channel=0 note=46 velocity=35 time=0
note_on channel=0 note=53 velocity=41 time=0
control_change channel=0 control=64 value=127 time=240
note_on channel=0 note=63 velocity=0 time=720
note_on channel=0 note=60 velocity=0 time=0
note_on channel=0 note=58 velocity=38 time=0
note_on channel=0 note=61 velocity=45 time=0
control_change channel=0 control=64 value=0 time=14
note_on channel=0 note=61 velocity=0 time=466
note_on channel=0 note=53 velocity=0 time=0
note_on channel=0 note=46 velocity=0 time=0
note_on channel=0 note=58 velocity=0 time=0
note_on channel=0 note=75 velocity=78 time=450
note_on channel=0 note=87 velocity=91 time=0
note_on channel=0 note=61 velocity=76 time=0
note_on channel=0 note=63 velocity=76 time=0
note_on channel=0 note=58 velocity=76 time=0
note_on channel=0 note=55 velocity=76 time=0
control_change channel=0 control=64 value=127 time=36
note_on channel=0 note=75 velocity=0 time=24
note_on channel=0 note=87 velocity=0 time=660
note_on channel=0 note=85 velocity=65 time=0
note_on channel=0 note=82 velocity=63 time=34
note_on channel=0 note=85 velocity=0 time=1
note_on channel=0 note=82 velocity=0 time=34
note_on channel=0 note=79 velocity=62 time=0
note_on channel=0 note=75 velocity=61 time=34
note_on channel=0 note=79 velocity=0 time=0
note_on channel=0 note=75 velocity=0 time=34
note_on channel=0 note=73 velocity=59 time=0
note_on channel=0 note=70 velocity=57 time=34
note_on channel=0 note=73 velocity=0 time=1
note_on channel=0 note=67 velocity=56 time=33
note_on channel=0 note=70 velocity=0 time=1
note_on channel=0 note=63 velocity=0 time=32
note_on channel=0 note=67 velocity=0 time=2
note_on channel=0 note=61 velocity=0 time=0
note_on channel=0 note=58 velocity=0 time=0
note_on channel=0 note=55 velocity=0 time=0
note_on channel=0 note=63 velocity=78 time=0
control_change channel=0 control=64 value=0 time=15
note_on channel=0 note=63 velocity=0 time=0
note_on channel=0 note=58 velocity=45 time=360
note_on channel=0 note=61 velocity=54 time=0
note_on channel=0 note=43 velocity=30 time=0
note_on channel=0 note=51 velocity=36 time=0
note_on channel=0 note=51 velocity=0 time=110
note_on channel=0 note=58 velocity=0 time=0
note_on channel=0 note=61 velocity=0 time=0
note_on channel=0 note=43 velocity=0 time=0
note_on channel=0 note=58 velocity=48 time=10
note_on channel=0 note=61 velocity=57 time=0
note_on channel=0 note=44 velocity=35 time=0
note_on channel=0 note=51 velocity=41 time=0
control_change channel=0 control=64 value=127 time=80
note_on channel=0 note=61 velocity=0 time=880
note_on channel=0 note=58 velocity=0 time=0
note_on channel=0 note=56 velocity=38 time=0
note_on channel=0 note=59 velocity=45 time=0
control_change channel=0 control=64 value=0 time=14
note_on channel=0 note=59 velocity=0 time=466
note_on channel=0 note=51 velocity=0 time=0
note_on channel=0 note=44 velocity=0 time=0
note_on channel=0 note=56 velocity=0 time=0
note_on channel=0 note=47 velocity=89 time=450
note_on channel=0 note=59 velocity=92 time=0
control_change channel=0 control=64 value=127 time=35
note_on channel=0 note=47 velocity=0 time=25
note_on channel=0 note=59 velocity=0 time=240
note_on channel=0 note=59 velocity=59 time=0
note_on channel=0 note=59 velocity=0 time=40
note_on channel=0 note=56 velocity=57 time=0
note_on channel=0 note=56 velocity=0 time=40
note_on channel=0 note=52 velocity=56 time=0
note_on channel=0 note=52 velocity=0 time=40
note_on channel=0 note=47 velocity=56 time=0
note_on channel=0 note=47 velocity=0 time=40
note_on channel=0 note=44 velocity=55 time=1
note_on channel=0 note=40 velocity=53 time=39
note_on channel=0 note=44 velocity=0 time=1
note_on channel=0 note=40 velocity=0 time=0
note_on channel=0 note=35 velocity=91 time=0
control_change channel=0 control=64 value=0 time=14
note_on channel=0 note=35 velocity=0 time=226
note_on channel=0 note=56 velocity=69 time=120
note_on channel=0 note=52 velocity=69 time=0
note_on channel=0 note=64 velocity=69 time=0
note_on channel=0 note=35 velocity=46 time=0
note_on channel=0 note=47 velocity=46 time=0
note_on channel=0 note=47 velocity=0 time=110
note_on channel=0 note=64 velocity=0 time=0
note_on channel=0 note=56 velocity=0 time=0
note_on channel=0 note=52 velocity=0 time=0
note_on channel=0 note=35 velocity=0 time=0
note_on channel=0 note=54 velocity=73 time=0
note_on channel=0 note=57 velocity=73 time=0
note_on channel=0 note=64 velocity=73 time=0
note_on channel=0 note=35 velocity=70 time=0
note_on channel=0 note=47 velocity=52 time=0
control_change channel=0 control=64 value=127 time=80
note_on channel=0 note=64 velocity=0 time=880
note_on channel=0 note=63 velocity=61 time=0
control_change channel=0 control=64 value=0 time=14
note_on channel=0 note=63 velocity=0 time=466
note_on channel=0 note=47 velocity=0 time=0
note_on channel=0 note=54 velocity=0 time=0
note_on channel=0 note=57 velocity=0 time=0
note_on channel=0 note=35 velocity=0 time=0
note_on channel=0 note=56 velocity=69 time=120
note_on channel=0 note=53 velocity=69 time=0
note_on channel=0 note=63 velocity=69 time=0
note_on channel=0 note=35 velocity=46 time=0
note_on channel=0 note=47 velocity=46 time=0
note_on channel=0 note=47 velocity=0 time=110
note_on channel=0 note=63 velocity=0 time=0
note_on channel=0 note=56 velocity=0 time=0
note_on channel=0 note=53 velocity=0 time=0
note_on channel=0 note=35 velocity=0 time=0
note_on channel=0 note=53 velocity=73 time=0
note_on channel=0 note=56 velocity=73 time=0
note_on channel=0 note=63 velocity=73 time=0
note_on channel=0 note=35 velocity=70 time=0
note_on channel=0 note=47 velocity=52 time=0
control_change channel=0 control=64 value=127 time=80
note_on channel=0 note=47 velocity=0 time=880
note_on channel=0 note=63 velocity=0 time=0
note_on channel=0 note=35 velocity=0 time=0
note_on channel=0 note=62 velocity=61 time=0
note_on channel=0 note=34 velocity=43 time=0
note_on channel=0 note=46 velocity=46 time=0
control_change channel=0 control=64 value=0 time=14
note_on channel=0 note=46 velocity=0 time=466
note_on channel=0 note=62 velocity=0 time=0
note_on channel=0 note=53 velocity=0 time=0
note_on channel=0 note=56 velocity=0 time=0
note_on channel=0 note=34 velocity=0 time=0
note_on channel=0 note=56 velocity=69 time=120
note_on channel=0 note=53 velocity=69 time=0
note_on channel=0 note=62 velocity=69 time=0
note_on channel=0 note=34 velocity=46 time=0
note_on channel=0 note=46 velocity=46 time=0
note_on channel=0 note=46 velocity=0 time=110
note_on channel=0 note=62 velocity=0 time=0
note_on channel=0 note=56 velocity=0 time=0
note_on channel=0 note=53 velocity=0 time=0
note_on channel=0 note=34 velocity=0 time=0
note_on channel=0 note=53 velocity=73 time=0
note_on channel=0 note=56 velocity=73 time=0
note_on channel=0 note=62 velocity=73 time=0
note_on channel=0 note=34 velocity=70 time=0
note_on channel=0 note=46 velocity=52 time=0
control_change channel=0 control=64 value=127 time=80
note_on channel=0 note=46 velocity=0 time=880
note_on channel=0 note=62 velocity=0 time=0
note_on channel=0 note=34 velocity=0 time=0
note_on channel=0 note=56 velocity=0 time=0
note_on channel=0 note=58 velocity=54 time=0
note_on channel=0 note=61 velocity=61 time=0
note_on channel=0 note=39 velocity=43 time=0
note_on channel=0 note=51 velocity=46 time=0
control_change channel=0 control=64 value=0 time=14
note_on channel=0 note=51 velocity=0 time=0
note_on channel=0 note=61 velocity=0 time=0
note_on channel=0 note=39 velocity=0 time=0
note_on channel=0 note=58 velocity=0 time=0
note_on channel=0 note=69 velocity=46 time=0
note_on channel=0 note=53 velocity=0 time=240
note_on channel=0 note=70 velocity=54 time=0
note_on channel=0 note=69 velocity=0 time=12
note_on channel=0 note=70 velocity=0 time=204
note_on channel=0 note=72 velocity=46 time=24
note_on channel=0 note=73 velocity=54 time=240
note_on channel=0 note=72 velocity=0 time=12
note_on channel=0 note=73 velocity=0 time=204
note_on channel=0 note=78 velocity=50 time=24
note_on channel=0 note=78 velocity=0 time=240
note_on channel=0 note=79 velocity=60 time=0
note_on channel=0 note=79 velocity=0 time=216
note_on channel=0 note=81 velocity=50 time=24
note_on channel=0 note=82 velocity=60 time=240
note_on channel=0 note=81 velocity=0 time=12
note_on channel=0 note=82 velocity=0 time=204
note_on channel=0 note=84 velocity=50 time=24
note_on channel=0 note=85 velocity=60 time=240
note_on channel=0 note=84 velocity=0 time=12
note_on channel=0 note=85 velocity=0 time=0
note_on channel=0 note=82 velocity=50 time=0
note_on channel=0 note=82 velocity=0 time=0
note_on channel=0 note=79 velocity=60 time=0
note_on channel=0 note=63 velocity=35 time=0
note_on channel=0 note=61 velocity=29 time=0
control_change channel=0 control=64 value=127 time=11
note_on channel=0 note=61 velocity=0 time=445
note_on channel=0 note=63 velocity=0 time=0
note_on channel=0 note=63 velocity=30 time=24
note_on channel=0 note=61 velocity=25 time=0
note_on channel=0 note=61 velocity=0 time=456
note_on channel=0 note=63 velocity=0 time=0
note_on channel=0 note=63 velocity=30 time=24
note_on channel=0 note=61 velocity=25 time=0
note_on channel=0 note=79 velocity=0 time=240
note_on channel=0 note=80 velocity=55 time=0
note_on channel=0 note=80 velocity=0 time=60
note_on channel=0 note=79 velocity=55 time=0
note_on channel=0 note=79 velocity=0 time=60
note_on channel=0 note=77 velocity=55 time=0
note_on channel=0 note=77 velocity=0 time=60
note_on channel=0 note=79 velocity=55 time=0
note_on channel=0 note=61 velocity=0 time=36
note_on channel=0 note=63 velocity=0 time=0
note_on channel=0 note=79 velocity=0 time=0
note_on channel=0 note=80 velocity=60 time=0
note_on channel=0 note=63 velocity=30 time=0
note_on channel=0 note=61 velocity=25 time=0
control_change channel=0 control=64 value=0 time=8
control_change channel=0 control=64 value=127 time=45
note_on channel=0 note=80 velocity=0 time=60
note_on channel=0 note=82 velocity=60 time=0
note_on channel=0 note=61 velocity=0 time=96
note_on channel=0 note=63 velocity=0 time=0
note_on channel=0 note=82 velocity=0 time=0
note_on channel=0 note=82 velocity=60 time=0
note_on channel=0 note=63 velocity=35 time=0
note_on channel=0 note=60 velocity=29 time=0
control_change channel=0 control=64 value=0 time=0
control_change channel=0 control=64 value=127 time=275
note_on channel=0 note=60 velocity=0 time=181
note_on channel=0 note=63 velocity=0 time=0
note_on channel=0 note=82 velocity=0 time=24
note_on channel=0 note=80 velocity=60 time=0
note_on channel=0 note=63 velocity=28 time=0
note_on channel=0 note=60 velocity=23 time=0
control_change channel=0 control=64 value=0 time=15
control_change channel=0 control=64 value=127 time=237
note_on channel=0 note=60 velocity=0 time=204
note_on channel=0 note=63 velocity=0 time=0
note_on channel=0 note=63 velocity=28 time=24
note_on channel=0 note=60 velocity=23 time=0
note_on channel=0 note=60 velocity=0 time=456
note_on channel=0 note=63 velocity=0 time=0
note_on channel=0 note=80 velocity=0 time=24
note_on channel=0 note=81 velocity=60 time=0
note_on channel=0 note=63 velocity=28 time=0
note_on channel=0 note=60 velocity=23 time=0
control_change channel=0 control=64 value=0 time=4
control_change channel=0 control=64 value=127 time=225
note_on channel=0 note=60 velocity=0 time=227
note_on channel=0 note=63 velocity=0 time=0
note_on channel=0 note=81 velocity=0 time=24
note_on channel=0 note=82 velocity=60 time=0
note_on channel=0 note=55 velocity=29 time=0
note_on channel=0 note=63 velocity=35 time=0
note_on channel=0 note=61 velocity=29 time=0
control_change channel=0 control=64 value=0 time=0
control_change channel=0 control=64 value=127 time=64
note_on channel=0 note=61 velocity=0 time=392
note_on channel=0 note=63 velocity=0 time=0
note_on channel=0 note=55 velocity=0 time=0
note_on channel=0 note=55 velocity=25 time=24
note_on channel=0 note=63 velocity=30 time=0
note_on channel=0 note=61 velocity=25 time=0
note_on channel=0 note=61 velocity=0 time=456
note_on channel=0 note=63 velocity=0 time=0
note_on channel=0 note=55 velocity=0 time=0
note_on channel=0 note=55 velocity=25 time=24
note_on channel=0 note=63 velocity=30 time=0
note_on channel=0 note=61 velocity=25 time=0
note_on channel=0 note=82 velocity=0 time=240
note_on channel=0 note=84 velocity=55 time=0
note_on channel=0 note=84 velocity=0 time=60
note_on channel=0 note=82 velocity=55 time=0
note_on channel=0 note=82 velocity=0 time=60
note_on channel=0 note=81 velocity=55 time=0
note_on channel=0 note=81 velocity=0 time=60
note_on channel=0 note=82 velocity=55 time=0
note_on channel=0 note=61 velocity=0 time=36
note_on channel=0 note=55 velocity=0 time=0
note_on channel=0 note=63 velocity=0 time=0
note_on channel=0 note=82 velocity=0 time=0
note_on channel=0 note=84 velocity=60 time=0
note_on channel=0 note=55 velocity=25 time=0
note_on channel=0 note=63 velocity=30 time=0
note_on channel=0 note=60 velocity=25 time=0
control_change channel=0 control=64 value=0 time=5
control_change channel=0 control=64 value=127 time=41
note_on channel=0 note=60 velocity=0 time=0
note_on channel=0 note=84 velocity=0 time=0
note_on channel=0 note=85 velocity=60 time=0
note_on channel=0 note=58 velocity=25 time=0
note_on channel=0 note=58 velocity=0 time=0
note_on channel=0 note=55 velocity=0 time=0
note_on channel=0 note=63 velocity=0 time=0
note_on channel=0 note=85 velocity=0 time=0
note_on channel=0 note=85 velocity=60 time=0
note_on channel=0 note=56 velocity=29 time=0
note_on channel=0 note=63 velocity=35 time=0
note_on channel=0 note=59 velocity=29 time=0
control_change channel=0 control=64 value=0 time=0
control_change channel=0 control=64 value=127 time=166
note_on channel=0 note=59 velocity=0 time=290
note_on channel=0 note=63 velocity=0 time=0
note_on channel=0 note=56 velocity=0 time=0
note_on channel=0 note=85 velocity=0 time=24
note_on channel=0 note=84 velocity=60 time=0
note_on channel=0 note=56 velocity=23 time=0
note_on channel=0 note=63 velocity=28 time=0
note_on channel=0 note=60 velocity=23 time=0
control_change channel=0 control=64 value=0 time=17
control_change channel=0 control=64 value=127 time=232
note_on channel=0 note=60 velocity=0 time=207
note_on channel=0 note=63 velocity=0 time=0
note_on channel=0 note=56 velocity=0 time=0
note_on channel=0 note=84 velocity=0 time=0
note_on channel=0 note=56 velocity=23 time=0
note_on channel=0 note=63 velocity=28 time=0
note_on channel=0 note=60 velocity=23 time=0
note_on channel=0 note=60 velocity=0 time=456
note_on channel=0 note=63 velocity=0 time=0
note_on channel=0 note=56 velocity=0 time=0
note_on channel=0 note=56 velocity=28 time=24
note_on channel=0 note=63 velocity=28 time=0
note_on channel=0 note=60 velocity=23 time=0
note_on channel=0 note=60 velocity=0 time=216
note_on channel=0 note=63 velocity=0 time=0
note_on channel=0 note=56 velocity=0 time=0
note_on channel=0 note=61 velocity=25 time=3
note_on channel=0 note=63 velocity=30 time=0
control_change channel=0 control=64 value=0 time=0
note_on channel=0 note=67 velocity=30 time=5
control_change channel=0 control=64 value=127 time=6
note_on channel=0 note=67 velocity=0 time=6
note_on channel=0 note=68 velocity=30 time=1
note_on channel=0 note=68 velocity=0 time=9
note_on channel=0 note=70 velocity=41 time=0
note_on channel=0 note=70 velocity=0 time=11
note_on channel=0 note=68 velocity=33 time=0
note_on channel=0 note=68 velocity=0 time=31
note_on channel=0 note=67 velocity=33 time=0
note_on channel=0 note=67 velocity=0 time=14
note_on channel=0 note=73 velocity=42 time=0
note_on channel=0 note=73 velocity=0 time=15
note_on channel=0 note=72 velocity=36 time=0
note_on channel=0 note=72 velocity=0 time=17
note_on channel=0 note=70 velocity=39 time=0
note_on channel=0 note=70 velocity=0 time=19
note_on channel=0 note=79 velocity=51 time=0
note_on channel=0 note=79 velocity=0 time=2
note_on channel=0 note=77 velocity=39 time=0
note_on channel=0 note=77 velocity=0 time=4
note_on channel=0 note=75 velocity=42 time=0
note_on channel=0 note=63 velocity=0 time=14
note_on channel=0 note=61 velocity=0 time=0
note_on channel=0 note=82 velocity=57 time=22
note_on channel=0 note=61 velocity=25 time=0
note_on channel=0 note=63 velocity=30 time=0
note_on channel=0 note=75 velocity=0 time=2
control_change channel=0 control=64 value=0 time=2
note_on channel=0 note=82 velocity=0 time=5
note_on channel=0 note=80 velocity=46 time=0
control_change channel=0 control=64 value=127 time=0
note_on channel=0 note=80 velocity=0 time=6
note_on channel=0 note=79 velocity=49 time=0
note_on channel=0 note=79 velocity=0 time=0
note_on channel=0 note=85 velocity=59 time=0
note_on channel=0 note=85 velocity=0 time=40
note_on channel=0 note=84 velocity=50 time=0
note_on channel=0 note=84 velocity=0 time=20
note_on channel=0 note=82 velocity=55 time=0
note_on channel=0 note=82 velocity=0 time=0
note_on channel=0 note=89 velocity=69 time=0
control_change channel=0 control=64 value=0 time=5
control_change channel=0 control=64 value=127 time=41
note_on channel=0 note=61 velocity=0 time=170
note_on channel=0 note=63 velocity=0 time=0
note_on channel=0 note=61 velocity=25 time=24
note_on channel=0 note=63 velocity=30 time=0
note_on channel=0 note=63 velocity=0 time=456
note_on channel=0 note=61 velocity=0 time=0
note_on channel=0 note=61 velocity=25 time=3
note_on channel=0 note=63 velocity=30 time=0
note_on channel=0 note=89 velocity=0 time=13
note_on channel=0 note=89 velocity=54 time=0
note_on channel=0 note=89 velocity=0 time=34
note_on channel=0 note=87 velocity=53 time=0
note_on channel=0 note=87 velocity=0 time=34
note_on channel=0 note=85 velocity=52 time=1
note_on channel=0 note=85 velocity=0 time=34
note_on channel=0 note=84 velocity=52 time=0
note_on channel=0 note=84 velocity=0 time=34
note_on channel=0 note=82 velocity=51 time=0
note_on channel=0 note=82 velocity=0 time=34
note_on channel=0 note=80 velocity=50 time=0
note_on channel=0 note=80 velocity=0 time=34
note_on channel=0 note=79 velocity=49 time=0
note_on channel=0 note=63 velocity=0 time=11
note_on channel=0 note=61 velocity=0 time=0
note_on channel=0 note=79 velocity=0 time=23
note_on channel=0 note=82 velocity=56 time=0
control_change channel=0 control=64 value=0 time=0
control_change channel=0 control=64 value=127 time=60
note_on channel=0 note=82 velocity=0 time=300
note_on channel=0 note=80 velocity=44 time=0
note_on channel=0 note=80 velocity=0 time=120
note_on channel=0 note=79 velocity=47 time=0
note_on channel=0 note=60 velocity=25 time=0
note_on channel=0 note=63 velocity=30 time=0
control_change channel=0 control=64 value=0 time=9
control_change channel=0 control=64 value=127 time=72
note_on channel=0 note=79 velocity=0 time=99
note_on channel=0 note=80 velocity=44 time=0
note_on channel=0 note=80 velocity=0 time=60
note_on channel=0 note=82 velocity=51 time=0
control_change channel=0 control=64 value=0 time=18
control_change channel=0 control=64 value=127 time=39
note_on channel=0 note=82 velocity=0 time=60
note_on channel=0 note=80 velocity=45 time=0
note_on channel=0 note=63 velocity=0 time=36
note_on channel=0 note=60 velocity=0 time=0
note_on channel=0 note=80 velocity=0 time=0
note_on channel=0 note=68 velocity=57 time=0
note_on channel=0 note=60 velocity=25 time=0
note_on channel=0 note=63 velocity=30 time=0
control_change channel=0 control=64 value=0 time=7
control_change channel=0 control=64 value=127 time=53
note_on channel=0 note=63 velocity=0 time=396
note_on channel=0 note=60 velocity=0 time=0
note_on channel=0 note=68 velocity=0 time=24
note_on channel=0 note=60 velocity=25 time=0
note_on channel=0 note=63 velocity=30 time=0
note_on channel=0 note=63 velocity=0 time=456
note_on channel=0 note=60 velocity=0 time=0
note_on channel=0 note=55 velocity=25 time=0
note_on channel=0 note=61 velocity=25 time=0
note_on channel=0 note=63 velocity=30 time=0
control_change channel=0 control=64 value=0 time=0
control_change channel=0 control=64 value=0 time=0
note_on channel=0 note=70 velocity=30 time=5
control_change channel=0 control=64 value=127 time=6
note_on channel=0 note=70 velocity=0 time=6
note_on channel=0 note=72 velocity=30 time=1
note_on channel=0 note=72 velocity=0 time=9
note_on channel=0 note=73 velocity=41 time=0
note_on channel=0 note=73 velocity=0 time=11
note_on channel=0 note=72 velocity=33 time=0
note_on channel=0 note=72 velocity=0 time=31
note_on channel=0 note=70 velocity=33 time=0
note_on channel=0 note=70 velocity=0 time=14
note_on channel=0 note=79 velocity=47 time=0
note_on channel=0 note=79 velocity=0 time=15
note_on channel=0 note=77 velocity=38 time=0
note_on channel=0 note=77 velocity=0 time=17
note_on channel=0 note=75 velocity=39 time=0
note_on channel=0 note=75 velocity=0 time=19
note_on channel=0 note=82 velocity=51 time=0
note_on channel=0 note=82 velocity=0 time=40
note_on channel=0 note=80 velocity=46 time=0
note_on channel=0 note=80 velocity=0 time=22
note_on channel=0 note=79 velocity=48 time=0
note_on channel=0 note=63 velocity=0 time=14
note_on channel=0 note=55 velocity=0 time=0
note_on channel=0 note=61 velocity=0 time=0
note_on channel=0 note=85 velocity=69 time=24
note_on channel=0 note=55 velocity=25 time=0
note_on channel=0 note=58 velocity=25 time=0
note_on channel=0 note=61 velocity=25 time=0
note_on channel=0 note=63 velocity=30 time=0
note_on channel=0 note=79 velocity=0 time=2
control_change channel=0 control=64 value=0 time=2
control_change channel=0 control=64 value=127 time=0
control_change channel=0 control=64 value=0 time=5
control_change channel=0 control=64 value=127 time=41
note_on channel=0 note=55 velocity=0 time=170
note_on channel=0 note=58 velocity=0 time=0
note_on channel=0 note=61 velocity=0 time=0
note_on channel=0 note=63 velocity=0 time=0
note_on channel=0 note=55 velocity=25 time=24
note_on channel=0 note=58 velocity=25 time=0
note_on channel=0 note=61 velocity=25 time=0
note_on channel=0 note=63 velocity=30 time=0
note_on channel=0 note=63 velocity=0 time=456
note_on channel=0 note=58 velocity=0 time=0
note_on channel=0 note=61 velocity=0 time=0
note_on channel=0 note=55 velocity=0 time=0
note_on channel=0 note=55 velocity=25 time=0
note_on channel=0 note=58 velocity=25 time=0
note_on channel=0 note=61 velocity=25 time=0
note_on channel=0 note=63 velocity=30 time=0
note_on channel=0 note=85 velocity=0 time=0
note_on channel=0 note=84 velocity=50 time=0
note_on channel=0 note=84 velocity=0 time=22
note_on channel=0 note=85 velocity=52 time=0
note_on channel=0 note=85 velocity=0 time=22
note_on channel=0 note=87 velocity=55 time=0
note_on channel=0 note=85 velocity=58 time=22
note_on channel=0 note=87 velocity=0 time=0
note_on channel=0 note=85 velocity=0 time=22
note_on channel=0 note=84 velocity=58 time=0
note_on channel=0 note=84 velocity=0 time=22
note_on channel=0 note=82 velocity=57 time=0
note_on channel=0 note=82 velocity=0 time=22
note_on channel=0 note=80 velocity=56 time=0
note_on channel=0 note=80 velocity=0 time=22
note_on channel=0 note=79 velocity=55 time=0
note_on channel=0 note=77 velocity=54 time=21
note_on channel=0 note=79 velocity=0 time=1
note_on channel=0 note=77 velocity=0 time=21
note_on channel=0 note=75 velocity=53 time=0
note_on channel=0 note=63 velocity=0 time=19
note_on channel=0 note=61 velocity=0 time=0
note_on channel=0 note=55 velocity=0 time=0
note_on channel=0 note=58 velocity=0 time=0
note_on channel=0 note=75 velocity=0 time=3
note_on channel=0 note=73 velocity=52 time=0
note_on channel=0 note=72 velocity=62 time=0
control_change channel=0 control=64 value=0 time=0
note_on channel=0 note=73 velocity=0 time=1
note_on channel=0 note=56 velocity=30 time=0
note_on channel=0 note=60 velocity=30 time=0
note_on channel=0 note=63 velocity=30 time=0
note_on channel=0 note=72 velocity=0 time=240
note_on channel=0 note=72 velocity=64 time=120
note_on channel=0 note=72 velocity=0 time=0
note_on channel=0 note=63 velocity=0 time=0
note_on channel=0 note=60 velocity=0 time=0
note_on channel=0 note=56 velocity=0 time=0
note_on channel=0 note=73 velocity=71 time=0
note_on channel=0 note=58 velocity=32 time=0
note_on channel=0 note=61 velocity=32 time=0
note_on channel=0 note=63 velocity=32 time=0
note_on channel=0 note=67 velocity=32 time=0
note_on channel=0 note=73 velocity=0 time=240
note_on channel=0 note=73 velocity=71 time=120
note_on channel=0 note=73 velocity=0 time=0
note_on channel=0 note=67 velocity=0 time=0
note_on channel=0 note=58 velocity=0 time=0
note_on channel=0 note=61 velocity=0 time=0
note_on channel=0 note=63 velocity=0 time=0
note_on channel=0 note=75 velocity=81 time=0
control_change channel=0 control=64 value=0 time=0
note_on channel=0 note=60 velocity=37 time=0
note_on channel=0 note=63 velocity=37 time=0
note_on channel=0 note=68 velocity=37 time=0
note_on channel=0 note=75 velocity=0 time=240
note_on channel=0 note=75 velocity=78 time=120
note_on channel=0 note=75 velocity=0 time=0
note_on channel=0 note=68 velocity=0 time=0
note_on channel=0 note=63 velocity=0 time=0
note_on channel=0 note=60 velocity=0 time=0
note_on channel=0 note=76 velocity=89 time=0
note_on channel=0 note=60 velocity=43 time=0
note_on channel=0 note=64 velocity=43 time=0
note_on channel=0 note=68 velocity=43 time=0
note_on channel=0 note=76 velocity=0 time=240
note_on channel=0 note=76 velocity=84 time=120
note_on channel=0 note=76 velocity=0 time=0
note_on channel=0 note=68 velocity=0 time=0
note_on channel=0 note=64 velocity=0 time=0
note_on channel=0 note=60 velocity=0 time=0
note_on channel=0 note=77 velocity=92 time=0
control_change channel=0 control=64 value=0 time=0
note_on channel=0 note=61 velocity=51 time=0
note_on channel=0 note=65 velocity=51 time=0
note_on channel=0 note=68 velocity=51 time=0
note_on channel=0 note=77 velocity=0 time=240
note_on channel=0 note=77 velocity=88 time=120
note_on channel=0 note=77 velocity=0 time=0
note_on channel=0 note=68 velocity=0 time=0
note_on channel=0 note=65 velocity=0 time=0
note_on channel=0 note=61 velocity=0 time=0
note_on channel=0 note=79 velocity=94 time=0
note_on channel=0 note=64 velocity=60 time=0
note_on channel=0 note=61 velocity=60 time=0
note_on channel=0 note=67 velocity=60 time=0
note_on channel=0 note=70 velocity=60 time=0
note_on channel=0 note=79 velocity=0 time=240
note_on channel=0 note=79 velocity=93 time=120
note_on channel=0 note=79 velocity=0 time=0
note_on channel=0 note=70 velocity=0 time=0
note_on channel=0 note=64 velocity=0 time=0
note_on channel=0 note=61 velocity=0 time=0
note_on channel=0 note=67 velocity=0 time=0
note_on channel=0 note=80 velocity=100 time=0
note_on channel=0 note=62 velocity=60 time=480
note_on channel=0 note=65 velocity=60 time=0
note_on channel=0 note=68 velocity=60 time=0
note_on channel=0 note=71 velocity=60 time=0
note_on channel=0 note=80 velocity=0 time=0
note_on channel=0 note=82 velocity=86 time=120
note_on channel=0 note=82 velocity=0 time=30
note_on channel=0 note=80 velocity=89 time=0
note_on channel=0 note=80 velocity=0 time=30
note_on channel=0 note=79 velocity=91 time=0
note_on channel=0 note=79 velocity=0 time=30
note_on channel=0 note=80 velocity=93 time=0
note_on channel=0 note=80 velocity=0 time=0
note_on channel=0 note=68 velocity=0 time=0
note_on channel=0 note=62 velocity=0 time=0
note_on channel=0 note=65 velocity=0 time=0
note_on channel=0 note=71 velocity=0 time=0
note_on channel=0 note=82 velocity=95 time=0
note_on channel=0 note=82 velocity=0 time=240
note_on channel=0 note=80 velocity=87 time=0
note_on channel=0 note=80 velocity=0 time=0
note_on channel=0 note=79 velocity=77 time=0
note_on channel=0 note=79 velocity=0 time=180
note_on channel=0 note=77 velocity=67 time=60
note_on channel=0 note=77 velocity=0 time=180
note_on channel=0 note=75 velocity=60 time=0
note_on channel=0 note=74 velocity=55 time=0
note_on channel=0 note=75 velocity=0 time=12
note_on channel=0 note=77 velocity=60 time=0
note_on channel=0 note=60 velocity=40 time=0
note_on channel=0 note=56 velocity=34 time=0
note_on channel=0 note=51 velocity=34 time=0
note_on channel=0 note=74 velocity=0 time=12
note_on channel=0 note=75 velocity=55 time=0
note_on channel=0 note=77 velocity=0 time=12
note_on channel=0 note=51 velocity=0 time=0
note_on channel=0 note=56 velocity=0 time=0
note_on channel=0 note=60 velocity=0 time=0
note_on channel=0 note=73 velocity=60 time=0
note_on channel=0 note=75 velocity=0 time=12
note_on channel=0 note=72 velocity=56 time=228
note_on channel=0 note=73 velocity=0 time=12
note_on channel=0 note=70 velocity=60 time=228
note_on channel=0 note=61 velocity=40 time=0
note_on channel=0 note=55 velocity=34 time=0
note_on channel=0 note=51 velocity=34 time=0
note_on channel=0 note=72 velocity=0 time=12
note_on channel=0 note=75 velocity=57 time=0
note_on channel=0 note=70 velocity=0 time=12
note_on channel=0 note=51 velocity=0 time=0
note_on channel=0 note=55 velocity=0 time=0
note_on channel=0 note=61 velocity=0 time=0
note_on channel=0 note=75 velocity=0 time=0
note_on channel=0 note=71 velocity=60 time=0
note_on channel=0 note=71 velocity=0 time=160
note_on channel=0 note=72 velocity=51 time=0
control_change channel=0 control=64 value=127 time=27
note_on channel=0 note=72 velocity=0 time=80
note_on channel=0 note=60 velocity=43 time=0
note_on channel=0 note=56 velocity=32 time=0
note_on channel=0 note=56 velocity=0 time=160
note_on channel=0 note=60 velocity=0 time=0
note_on channel=0 note=51 velocity=39 time=0
control_change channel=0 control=64 value=0 time=3
control_change channel=0 control=64 value=127 time=54
note_on channel=0 note=51 velocity=0 time=0
note_on channel=0 note=72 velocity=60 time=0
note_on channel=0 note=48 velocity=32 time=0
note_on channel=0 note=48 velocity=0 time=0
note_on channel=0 note=72 velocity=0 time=0
note_on channel=0 note=60 velocity=52 time=0
note_on channel=0 note=44 velocity=32 time=0
note_on channel=0 note=44 velocity=0 time=0
note_on channel=0 note=60 velocity=0 time=0
note_on channel=0 note=72 velocity=60 time=0
control_change channel=0 control=64 value=0 time=6
note_on channel=0 note=72 velocity=0 time=154
note_on channel=0 note=73 velocity=51 time=0
control_change channel=0 control=64 value=127 time=84
note_on channel=0 note=73 velocity=0 time=76
note_on channel=0 note=61 velocity=43 time=0
note_on channel=0 note=58 velocity=34 time=0
note_on channel=0 note=58 velocity=0 time=160
note_on channel=0 note=61 velocity=0 time=0
note_on channel=0 note=55 velocity=39 time=0
control_change channel=0 control=64 value=0 time=8
control_change channel=0 control=64 value=127 time=42
note_on channel=0 note=55 velocity=0 time=0
note_on channel=0 note=73 velocity=60 time=0
note_on channel=0 note=51 velocity=33 time=0
note_on channel=0 note=51 velocity=0 time=0
note_on channel=0 note=73 velocity=0 time=0
note_on channel=0 note=61 velocity=54 time=0
note_on channel=0 note=46 velocity=33 time=0
note_on channel=0 note=46 velocity=0 time=0
note_on channel=0 note=61 velocity=0 time=0
note_on channel=0 note=74 velocity=60 time=0
control_change channel=0 control=64 value=0 time=0
note_on channel=0 note=74 velocity=0 time=160
note_on channel=0 note=75 velocity=51 time=0
control_change channel=0 control=64 value=127 time=21
note_on channel=0 note=75 velocity=0 time=139
note_on channel=0 note=63 velocity=44 time=0
note_on channel=0 note=60 velocity=33 time=0
note_on channel=0 note=60 velocity=0 time=160
note_on channel=0 note=63 velocity=0 time=0
note_on channel=0 note=56 velocity=40 time=0
control_change channel=0 control=64 value=0 time=18
control_change channel=0 control=64 value=127 time=56
note_on channel=0 note=56 velocity=0 time=0
note_on channel=0 note=75 velocity=64 time=0
note_on channel=0 note=51 velocity=34 time=0
note_on channel=0 note=51 velocity=0 time=0
note_on channel=0 note=75 velocity=0 time=0
note_on channel=0 note=63 velocity=56 time=0
note_on channel=0 note=48 velocity=34 time=0
note_on channel=0 note=48 velocity=0 time=0
note_on channel=0 note=63 velocity=0 time=0
note_on channel=0 note=75 velocity=66 time=0
control_change channel=0 control=64 value=0 time=18
note_on channel=0 note=75 velocity=0 time=142
note_on channel=0 note=76 velocity=63 time=0
control_change channel=0 control=64 value=127 time=52
note_on channel=0 note=76 velocity=0 time=108
note_on channel=0 note=64 velocity=58 time=0
note_on channel=0 note=60 velocity=46 time=0
note_on channel=0 note=60 velocity=0 time=160
note_on channel=0 note=64 velocity=0 time=0
note_on channel=0 note=56 velocity=53 time=0
control_change channel=0 control=64 value=0 time=12
control_change channel=0 control=64 value=127 time=45
note_on channel=0 note=56 velocity=0 time=0
note_on channel=0 note=76 velocity=70 time=0
note_on channel=0 note=52 velocity=46 time=0
note_on channel=0 note=52 velocity=0 time=0
note_on channel=0 note=76 velocity=0 time=0
note_on channel=0 note=64 velocity=64 time=0
note_on channel=0 note=48 velocity=46 time=0
note_on channel=0 note=48 velocity=0 time=0
note_on channel=0 note=64 velocity=0 time=0
note_on channel=0 note=76 velocity=73 time=0
control_change channel=0 control=64 value=0 time=0
note_on channel=0 note=76 velocity=0 time=160
note_on channel=0 note=77 velocity=70 time=0
control_change channel=0 control=64 value=127 time=34
note_on channel=0 note=77 velocity=0 time=80
note_on channel=0 note=65 velocity=63 time=0
note_on channel=0 note=61 velocity=47 time=0
note_on channel=0 note=61 velocity=0 time=160
note_on channel=0 note=65 velocity=0 time=0
note_on channel=0 note=56 velocity=58 time=0
control_change channel=0 control=64 value=0 time=14
control_change channel=0 control=64 value=127 time=36
note_on channel=0 note=56 velocity=0 time=0
note_on channel=0 note=77 velocity=77 time=0
note_on channel=0 note=53 velocity=49 time=0
note_on channel=0 note=53 velocity=0 time=0
note_on channel=0 note=77 velocity=0 time=0
note_on channel=0 note=65 velocity=68 time=0
note_on channel=0 note=49 velocity=49 time=0
note_on channel=0 note=49 velocity=0 time=0
note_on channel=0 note=65 velocity=0 time=0
note_on channel=0 note=78 velocity=79 time=0
control_change channel=0 control=64 value=0 time=10
note_on channel=0 note=78 velocity=0 time=150
note_on channel=0 note=79 velocity=77 time=0
control_change channel=0 control=64 value=127 time=23
note_on channel=0 note=79 velocity=0 time=80
note_on channel=0 note=67 velocity=69 time=0
note_on channel=0 note=61 velocity=56 time=0
note_on channel=0 note=61 velocity=0 time=160
note_on channel=0 note=67 velocity=0 time=0
note_on channel=0 note=58 velocity=63 time=0
control_change channel=0 control=64 value=0 time=12
control_change channel=0 control=64 value=127 time=45
note_on channel=0 note=58 velocity=0 time=0
note_on channel=0 note=79 velocity=84 time=0
note_on channel=0 note=55 velocity=54 time=0
note_on channel=0 note=55 velocity=0 time=0
note_on channel=0 note=79 velocity=0 time=0
note_on channel=0 note=67 velocity=76 time=0
note_on channel=0 note=51 velocity=55 time=0
note_on channel=0 note=51 velocity=0 time=0
note_on channel=0 note=67 velocity=0 time=0
note_on channel=0 note=79 velocity=86 time=0
control_change channel=0 control=64 value=0 time=0
note_on channel=0 note=79 velocity=0 time=160
note_on channel=0 note=80 velocity=81 time=0
control_change channel=0 control=64 value=127 time=45
note_on channel=0 note=80 velocity=0 time=80
note_on channel=0 note=68 velocity=75 time=0
note_on channel=0 note=62 velocity=78 time=0
note_on channel=0 note=68 velocity=0 time=160
note_on channel=0 note=59 velocity=57 time=0
note_on channel=0 note=80 velocity=87 time=160
note_on channel=0 note=56 velocity=61 time=0
note_on channel=0 note=80 velocity=0 time=0
note_on channel=0 note=68 velocity=81 time=0
note_on channel=0 note=52 velocity=65 time=0
note_on channel=0 note=68 velocity=0 time=0
note_on channel=0 note=83 velocity=87 time=0
note_on channel=0 note=83 velocity=0 time=0
note_on channel=0 note=71 velocity=79 time=0
note_on channel=0 note=71 velocity=0 time=0
note_on channel=0 note=83 velocity=87 time=0
note_on channel=0 note=83 velocity=0 time=0
note_on channel=0 note=68 velocity=79 time=0
note_on channel=0 note=68 velocity=0 time=0
note_on channel=0 note=80 velocity=86 time=0
note_on channel=0 note=80 velocity=0 time=0
note_on channel=0 note=68 velocity=79 time=0
note_on channel=0 note=68 velocity=0 time=160
note_on channel=0 note=62 velocity=0 time=0
note_on channel=0 note=56 velocity=0 time=0
note_on channel=0 note=59 velocity=0 time=0
note_on channel=0 note=52 velocity=0 time=0
note_on channel=0 note=75 velocity=88 time=0
control_change channel=0 control=64 value=0 time=0
note_on channel=0 note=51 velocity=64 time=0
note_on channel=0 note=51 velocity=0 time=80
note_on channel=0 note=56 velocity=64 time=80
note_on channel=0 note=56 velocity=0 time=40
note_on channel=0 note=60 velocity=64 time=80
note_on channel=0 note=60 velocity=0 time=80
note_on channel=0 note=63 velocity=58 time=80
note_on channel=0 note=63 velocity=0 time=80
note_on channel=0 note=68 velocity=58 time=80
note_on channel=0 note=68 velocity=0 time=80
note_on channel=0 note=72 velocity=64 time=0
note_on channel=0 note=72 velocity=0 time=0
note_on channel=0 note=75 velocity=0 time=0
note_on channel=0 note=86 velocity=79 time=0
note_on channel=0 note=71 velocity=58 time=0
note_on channel=0 note=71 velocity=0 time=80
note_on channel=0 note=86 velocity=0 time=0
note_on channel=0 note=89 velocity=79 time=0
note_on channel=0 note=73 velocity=58 time=0
note_on channel=0 note=73 velocity=0 time=160
note_on channel=0 note=89 velocity=0 time=0
note_on channel=0 note=87 velocity=85 time=0
note_on channel=0 note=72 velocity=64 time=0
note_on channel=0 note=72 velocity=0 time=120
note_on channel=0 note=87 velocity=0 time=0
note_on channel=0 note=85 velocity=79 time=40
note_on channel=0 note=70 velocity=59 time=0
note_on channel=0 note=70 velocity=0 time=120
note_on channel=0 note=85 velocity=0 time=0
note_on channel=0 note=84 velocity=79 time=0
note_on channel=0 note=68 velocity=59 time=0
note_on channel=0 note=68 velocity=0 time=120
note_on channel=0 note=84 velocity=0 time=0
note_on channel=0 note=80 velocity=79 time=0
note_on channel=0 note=82 velocity=79 time=0
note_on channel=0 note=73 velocity=62 time=0
note_on channel=0 note=63 velocity=52 time=0
control_change channel=0 control=64 value=127 time=63
note_on channel=0 note=82 velocity=0 time=120
note_on channel=0 note=82 velocity=74 time=0
note_on channel=0 note=82 velocity=0 time=24
note_on channel=0 note=84 velocity=68 time=0
note_on channel=0 note=84 velocity=0 time=24
note_on channel=0 note=82 velocity=74 time=0
note_on channel=0 note=82 velocity=0 time=24
note_on channel=0 note=81 velocity=66 time=0
note_on channel=0 note=81 velocity=0 time=24
note_on channel=0 note=82 velocity=67 time=0
note_on channel=0 note=82 velocity=0 time=0
note_on channel=0 note=80 velocity=0 time=0
note_on channel=0 note=79 velocity=79 time=0
note_on channel=0 note=87 velocity=79 time=0
control_change channel=0 control=64 value=0 time=14
control_change channel=0 control=64 value=127 time=82
note_on channel=0 note=87 velocity=0 time=744
note_on channel=0 note=87 velocity=79 time=0
note_on channel=0 note=87 velocity=0 time=120
note_on channel=0 note=79 velocity=0 time=0
note_on channel=0 note=73 velocity=0 time=0
note_on channel=0 note=63 velocity=0 time=0
note_on channel=0 note=72 velocity=74 time=0
note_on channel=0 note=80 velocity=85 time=0
control_change channel=0 control=64 value=0 time=49
note_on channel=0 note=39 velocity=64 time=0
note_on channel=0 note=39 velocity=0 time=80
note_on channel=0 note=44 velocity=64 time=80
note_on channel=0 note=44 velocity=0 time=80
note_on channel=0 note=80 velocity=0 time=0
note_on channel=0 note=72 velocity=0 time=0
note_on channel=0 note=48 velocity=64 time=0
note_on channel=0 note=48 velocity=0 time=80
note_on channel=0 note=51 velocity=58 time=80
note_on channel=0 note=51 velocity=0 time=80
note_on channel=0 note=56 velocity=58 time=80
note_on channel=0 note=56 velocity=0 time=80
note_on channel=0 note=60 velocity=64 time=0
note_on channel=0 note=60 velocity=0 time=0
note_on channel=0 note=74 velocity=79 time=0
note_on channel=0 note=59 velocity=58 time=0
note_on channel=0 note=59 velocity=0 time=160
note_on channel=0 note=74 velocity=0 time=0
note_on channel=0 note=77 velocity=79 time=0
note_on channel=0 note=61 velocity=58 time=0
note_on channel=0 note=61 velocity=0 time=160
note_on channel=0 note=77 velocity=0 time=0
note_on channel=0 note=75 velocity=85 time=0
note_on channel=0 note=60 velocity=64 time=0
note_on channel=0 note=60 velocity=0 time=120
note_on channel=0 note=75 velocity=0 time=0
note_on channel=0 note=73 velocity=79 time=40
note_on channel=0 note=58 velocity=59 time=0
note_on channel=0 note=58 velocity=0 time=120
note_on channel=0 note=73 velocity=0 time=0
note_on channel=0 note=72 velocity=79 time=0
note_on channel=0 note=56 velocity=59 time=0
note_on channel=0 note=56 velocity=0 time=120
note_on channel=0 note=72 velocity=0 time=0
note_on channel=0 note=68 velocity=79 time=0
note_on channel=0 note=70 velocity=79 time=0
note_on channel=0 note=61 velocity=62 time=0
note_on channel=0 note=51 velocity=52 time=0
control_change channel=0 control=64 value=127 time=44
note_on channel=0 note=70 velocity=0 time=120
note_on channel=0 note=70 velocity=74 time=0
note_on channel=0 note=70 velocity=0 time=24
note_on channel=0 note=72 velocity=68 time=0
note_on channel=0 note=72 velocity=0 time=24
note_on channel=0 note=70 velocity=74 time=0
note_on channel=0 note=70 velocity=0 time=24
note_on channel=0 note=69 velocity=66 time=0
note_on channel=0 note=69 velocity=0 time=24
note_on channel=0 note=70 velocity=67 time=0
note_on channel=0 note=70 velocity=0 time=0
note_on channel=0 note=68 velocity=0 time=0
note_on channel=0 note=67 velocity=79 time=0
note_on channel=0 note=75 velocity=79 time=0
control_change channel=0 control=64 value=0 time=14
control_change channel=0 control=64 value=127 time=82
note_on channel=0 note=75 velocity=0 time=0
note_on channel=0 note=75 velocity=61 time=0
note_on channel=0 note=75 velocity=0 time=0
note_on channel=0 note=67 velocity=0 time=0
note_on channel=0 note=61 velocity=0 time=0
note_on channel=0 note=51 velocity=0 time=0
note_on channel=0 note=60 velocity=30 time=0
note_on channel=0 note=63 velocity=30 time=0
note_on channel=0 note=68 velocity=50 time=0
note_on channel=0 note=56 velocity=39 time=0
control_change channel=0 control=64 value=0 time=0
control_change channel=0 control=64 value=127 time=57
note_on channel=0 note=63 velocity=0 time=171
note_on channel=0 note=60 velocity=0 time=0
note_on channel=0 note=60 velocity=30 time=0
note_on channel=0 note=63 velocity=30 time=0
note_on channel=0 note=56 velocity=0 time=240
note_on channel=0 note=51 velocity=32 time=0
note_on channel=0 note=63 velocity=0 time=216
note_on channel=0 note=60 velocity=0 time=0
note_on channel=0 note=60 velocity=30 time=0
note_on channel=0 note=63 velocity=30 time=0
note_on channel=0 note=63 velocity=0 time=228
note_on channel=0 note=60 velocity=0 time=0
note_on channel=0 note=68 velocity=0 time=0
note_on channel=0 note=51 velocity=0 time=0
note_on channel=0 note=61 velocity=30 time=0
note_on channel=0 note=63 velocity=30 time=0
note_on channel=0 note=72 velocity=54 time=0
note_on channel=0 note=55 velocity=39 time=0
control_change channel=0 control=64 value=0 time=14
control_change channel=0 control=64 value=127 time=64
note_on channel=0 note=63 velocity=0 time=150
note_on channel=0 note=61 velocity=0 time=0
note_on channel=0 note=61 velocity=30 time=12
note_on channel=0 note=63 velocity=30 time=0
note_on channel=0 note=55 velocity=0 time=240
note_on channel=0 note=51 velocity=29 time=0
note_on channel=0 note=63 velocity=0 time=216
note_on channel=0 note=61 velocity=0 time=0
note_on channel=0 note=72 velocity=0 time=0
note_on channel=0 note=63 velocity=30 time=0
note_on channel=0 note=61 velocity=30 time=0
note_on channel=0 note=70 velocity=45 time=0
note_on channel=0 note=61 velocity=0 time=228
note_on channel=0 note=63 velocity=0 time=0
note_on channel=0 note=51 velocity=0 time=0
note_on channel=0 note=70 velocity=0 time=0
note_on channel=0 note=60 velocity=30 time=0
note_on channel=0 note=63 velocity=30 time=0
note_on channel=0 note=68 velocity=50 time=0
note_on channel=0 note=56 velocity=42 time=0
control_change channel=0 control=64 value=0 time=0
control_change channel=0 control=64 value=127 time=206
note_on channel=0 note=63 velocity=0 time=22
note_on channel=0 note=60 velocity=0 time=0
note_on channel=0 note=60 velocity=30 time=12
note_on channel=0 note=63 velocity=30 time=0
note_on channel=0 note=56 velocity=0 time=0
note_on channel=0 note=51 velocity=36 time=0
note_on channel=0 note=63 velocity=0 time=216
note_on channel=0 note=60 velocity=0 time=0
note_on channel=0 note=63 velocity=30 time=24
note_on channel=0 note=60 velocity=30 time=0
note_on channel=0 note=51 velocity=0 time=0
note_on channel=0 note=48 velocity=38 time=0
note_on channel=0 note=60 velocity=0 time=216
note_on channel=0 note=63 velocity=0 time=0
note_on channel=0 note=60 velocity=30 time=24
note_on channel=0 note=63 velocity=30 time=0
note_on channel=0 note=48 velocity=0 time=0
note_on channel=0 note=44 velocity=40 time=0
note_on channel=0 note=63 velocity=0 time=216
note_on channel=0 note=60 velocity=0 time=0
note_on channel=0 note=68 velocity=0 time=0
note_on channel=0 note=69 velocity=44 time=0
note_on channel=0 note=60 velocity=30 time=0
note_on channel=0 note=63 velocity=30 time=0
control_change channel=0 control=64 value=0 time=5
note_on channel=0 note=63 velocity=0 time=223
note_on channel=0 note=60 velocity=0 time=0
note_on channel=0 note=69 velocity=0 time=0
note_on channel=0 note=44 velocity=0 time=0
note_on channel=0 note=61 velocity=30 time=0
note_on channel=0 note=63 velocity=30 time=0
note_on channel=0 note=70 velocity=52 time=0
note_on channel=0 note=43 velocity=46 time=0
control_change channel=0 control=64 value=127 time=72
note_on channel=0 note=63 velocity=0 time=156
note_on channel=0 note=61 velocity=0 time=0
note_on channel=0 note=63 velocity=35 time=0
note_on channel=0 note=43 velocity=0 time=240
note_on channel=0 note=39 velocity=32 time=0
note_on channel=0 note=63 velocity=0 time=216
note_on channel=0 note=70 velocity=0 time=0
note_on channel=0 note=63 velocity=30 time=0
note_on channel=0 note=72 velocity=50 time=0
note_on channel=0 note=72 velocity=0 time=60
note_on channel=0 note=70 velocity=46 time=0
note_on channel=0 note=70 velocity=0 time=60
note_on channel=0 note=69 velocity=46 time=0
note_on channel=0 note=69 velocity=0 time=60
note_on channel=0 note=70 velocity=46 time=0
control_change channel=0 control=64 value=0 time=55
note_on channel=0 note=70 velocity=0 time=0
note_on channel=0 note=39 velocity=0 time=0
note_on channel=0 note=73 velocity=54 time=0
note_on channel=0 note=68 velocity=45 time=0
note_on channel=0 note=44 velocity=29 time=0
control_change channel=0 control=64 value=127 time=37
note_on channel=0 note=63 velocity=0 time=179
note_on channel=0 note=63 velocity=30 time=0
note_on channel=0 note=44 velocity=0 time=240
note_on channel=0 note=48 velocity=32 time=0
note_on channel=0 note=63 velocity=0 time=216
note_on channel=0 note=73 velocity=0 time=24
note_on channel=0 note=68 velocity=0 time=0
note_on channel=0 note=63 velocity=30 time=0
note_on channel=0 note=68 velocity=45 time=0
note_on channel=0 note=72 velocity=45 time=0
note_on channel=0 note=72 velocity=0 time=0
note_on channel=0 note=68 velocity=0 time=0
note_on channel=0 note=48 velocity=0 time=0
note_on channel=0 note=67 velocity=42 time=0
note_on channel=0 note=70 velocity=50 time=0
note_on channel=0 note=51 velocity=36 time=0
control_change channel=0 control=64 value=0 time=0
note_on channel=0 note=63 velocity=0 time=216
note_on channel=0 note=63 velocity=37 time=0
control_change channel=0 control=64 value=127 time=172
note_on channel=0 note=51 velocity=0 time=68
note_on channel=0 note=53 velocity=42 time=0
note_on channel=0 note=63 velocity=0 time=216
note_on channel=0 note=63 velocity=41 time=24
note_on channel=0 note=53 velocity=0 time=0
note_on channel=0 note=51 velocity=36 time=0
control_change channel=0 control=64 value=0 time=9
control_change channel=0 control=64 value=127 time=161
note_on channel=0 note=63 velocity=0 time=46
note_on channel=0 note=63 velocity=39 time=24
note_on channel=0 note=49 velocity=33 time=0
note_on channel=0 note=63 velocity=0 time=216
note_on channel=0 note=63 velocity=34 time=0
note_on channel=0 note=67 velocity=0 time=0
note_on channel=0 note=49 velocity=0 time=0
note_on channel=0 note=70 velocity=0 time=0
note_on channel=0 note=75 velocity=66 time=0
note_on channel=0 note=48 velocity=43 time=0
control_change channel=0 control=64 value=0 time=0
control_change channel=0 control=64 value=127 time=156
note_on channel=0 note=63 velocity=0 time=60
note_on channel=0 note=63 velocity=53 time=24
note_on channel=0 note=51 velocity=0 time=0
note_on channel=0 note=56 velocity=43 time=0
note_on channel=0 note=63 velocity=0 time=216
note_on channel=0 note=63 velocity=52 time=24
note_on channel=0 note=48 velocity=0 time=0
note_on channel=0 note=75 velocity=0 time=0
note_on channel=0 note=73 velocity=63 time=0
note_on channel=0 note=46 velocity=36 time=0
control_change channel=0 control=64 value=0 time=8
note_on channel=0 note=63 velocity=0 time=208
control_change channel=0 control=64 value=127 time=10
note_on channel=0 note=63 velocity=51 time=14
note_on channel=0 note=56 velocity=0 time=240
note_on channel=0 note=55 velocity=43 time=0
note_on channel=0 note=63 velocity=0 time=216
note_on channel=0 note=63 velocity=52 time=0
note_on channel=0 note=46 velocity=0 time=0
note_on channel=0 note=73 velocity=0 time=0
note_on channel=0 note=72 velocity=66 time=0
note_on channel=0 note=44 velocity=46 time=0
control_change channel=0 control=64 value=0 time=0
control_change channel=0 control=64 value=127 time=106
note_on channel=0 note=63 velocity=0 time=110
note_on channel=0 note=63 velocity=49 time=24
note_on channel=0 note=55 velocity=0 time=0
note_on channel=0 note=56 velocity=43 time=0
note_on channel=0 note=63 velocity=0 time=216
note_on channel=0 note=64 velocity=46 time=0
note_on channel=0 note=44 velocity=0 time=0
note_on channel=0 note=72 velocity=0 time=0
note_on channel=0 note=70 velocity=58 time=0
note_on channel=0 note=49 velocity=45 time=0
control_change channel=0 control=64 value=0 time=15
control_change channel=0 control=64 value=127 time=141
note_on channel=0 note=64 velocity=0 time=60
note_on channel=0 note=65 velocity=54 time=24
note_on channel=0 note=56 velocity=0 time=240
note_on channel=0 note=70 velocity=0 time=0
note_on channel=0 note=73 velocity=64 time=0
note_on channel=0 note=58 velocity=43 time=0
note_on channel=0 note=65 velocity=0 time=216
note_on channel=0 note=58 velocity=0 time=0
note_on channel=0 note=65 velocity=50 time=0
note_on channel=0 note=61 velocity=41 time=0
note_on channel=0 note=73 velocity=0 time=120
note_on channel=0 note=70 velocity=55 time=0
note_on channel=0 note=70 velocity=0 time=0
note_on channel=0 note=61 velocity=0 time=0
note_on channel=0 note=49 velocity=0 time=0
note_on channel=0 note=68 velocity=66 time=0
note_on channel=0 note=51 velocity=53 time=0
control_change channel=0 control=64 value=0 time=0
control_change channel=0 control=64 value=127 time=198
note_on channel=0 note=65 velocity=0 time=42
note_on channel=0 note=63 velocity=47 time=0
note_on channel=0 note=60 velocity=53 time=0
note_on channel=0 note=63 velocity=0 time=216
note_on channel=0 note=63 velocity=43 time=24
note_on channel=0 note=68 velocity=0 time=0
note_on channel=0 note=51 velocity=0 time=0
note_on channel=0 note=69 velocity=58 time=0
note_on channel=0 note=51 velocity=36 time=0
control_change channel=0 control=64 value=0 time=18
control_change channel=0 control=64 value=127 time=166
note_on channel=0 note=63 velocity=0 time=32
note_on channel=0 note=63 velocity=45 time=24
note_on channel=0 note=60 velocity=0 time=240
note_on channel=0 note=69 velocity=0 time=0
note_on channel=0 note=70 velocity=59 time=0
note_on channel=0 note=55 velocity=53 time=0
note_on channel=0 note=63 velocity=0 time=216
note_on channel=0 note=63 velocity=49 time=0
note_on channel=0 note=51 velocity=0 time=0
note_on channel=0 note=70 velocity=0 time=0
note_on channel=0 note=71 velocity=64 time=0
note_on channel=0 note=44 velocity=49 time=0
note_on channel=0 note=51 velocity=49 time=0
control_change channel=0 control=64 value=0 time=4
note_on channel=0 note=63 velocity=0 time=212
note_on channel=0 note=63 velocity=55 time=24
control_change channel=0 control=64 value=127 time=0
note_on channel=0 note=55 velocity=0 time=0
note_on channel=0 note=71 velocity=0 time=0
note_on channel=0 note=60 velocity=56 time=0
note_on channel=0 note=72 velocity=67 time=0
note_on channel=0 note=56 velocity=53 time=0
note_on channel=0 note=63 velocity=0 time=216
note_on channel=0 note=63 velocity=55 time=24
note_on channel=0 note=51 velocity=0 time=0
note_on channel=0 note=72 velocity=0 time=0
note_on channel=0 note=60 velocity=0 time=0
note_on channel=0 note=44 velocity=0 time=0
note_on channel=0 note=56 velocity=0 time=0
note_on channel=0 note=61 velocity=59 time=0
note_on channel=0 note=73 velocity=70 time=0
note_on channel=0 note=46 velocity=46 time=0
note_on channel=0 note=51 velocity=46 time=0
note_on channel=0 note=58 velocity=55 time=0
control_change channel=0 control=64 value=0 time=13
control_change channel=0 control=64 value=127 time=171
note_on channel=0 note=63 velocity=0 time=32
note_on channel=0 note=63 velocity=58 time=0
note_on channel=0 note=73 velocity=0 time=0
note_on channel=0 note=51 velocity=0 time=0
note_on channel=0 note=46 velocity=0 time=0
note_on channel=0 note=61 velocity=0 time=0
note_on channel=0 note=58 velocity=0 time=0
note_on channel=0 note=62 velocity=62 time=0
note_on channel=0 note=74 velocity=73 time=0
note_on channel=0 note=47 velocity=50 time=0
note_on channel=0 note=51 velocity=50 time=0
note_on channel=0 note=59 velocity=59 time=0
note_on channel=0 note=63 velocity=0 time=216
note_on channel=0 note=63 velocity=62 time=0
note_on channel=0 note=63 velocity=0 time=228
note_on channel=0 note=59 velocity=0 time=0
note_on channel=0 note=47 velocity=0 time=0
note_on channel=0 note=62 velocity=0 time=0
note_on channel=0 note=74 velocity=0 time=0
note_on channel=0 note=51 velocity=0 time=0
note_on channel=0 note=63 velocity=30 time=0
note_on channel=0 note=75 velocity=77 time=0
note_on channel=0 note=60 velocity=53 time=0
note_on channel=0 note=48 velocity=64 time=0
note_on channel=0 note=51 velocity=64 time=0
control_change channel=0 control=64 value=0 time=0
note_on channel=0 note=56 velocity=53 time=0
control_change channel=0 control=64 value=127 time=113
note_on channel=0 note=63 velocity=0 time=103
note_on channel=0 note=60 velocity=0 time=24
note_on channel=0 note=63 velocity=58 time=0
note_on channel=0 note=56 velocity=0 time=0
note_on channel=0 note=56 velocity=53 time=0
note_on channel=0 note=63 velocity=0 time=216
note_on channel=0 note=51 velocity=0 time=0
note_on channel=0 note=75 velocity=0 time=0
note_on channel=0 note=48 velocity=0 time=0
note_on channel=0 note=61 velocity=30 time=0
note_on channel=0 note=63 velocity=30 time=0
note_on channel=0 note=73 velocity=69 time=0
note_on channel=0 note=46 velocity=52 time=0
note_on channel=0 note=51 velocity=52 time=0
control_change channel=0 control=64 value=0 time=14
control_change channel=0 control=64 value=127 time=170
note_on channel=0 note=56 velocity=0 time=0
note_on channel=0 note=55 velocity=53 time=0
note_on channel=0 note=61 velocity=0 time=216
note_on channel=0 note=63 velocity=0 time=0
note_on channel=0 note=61 velocity=58 time=24
note_on channel=0 note=63 velocity=58 time=0
note_on channel=0 note=55 velocity=0 time=0
note_on channel=0 note=55 velocity=53 time=0
note_on channel=0 note=61 velocity=0 time=216
note_on channel=0 note=63 velocity=0 time=0
note_on channel=0 note=51 velocity=0 time=0
note_on channel=0 note=73 velocity=0 time=0
note_on channel=0 note=46 velocity=0 time=0
note_on channel=0 note=60 velocity=30 time=0
note_on channel=0 note=63 velocity=30 time=0
note_on channel=0 note=72 velocity=65 time=0
note_on channel=0 note=44 velocity=55 time=0
control_change channel=0 control=64 value=0 time=0
control_change channel=0 control=64 value=127 time=113
note_on channel=0 note=55 velocity=0 time=127
note_on channel=0 note=56 velocity=53 time=0
note_on channel=0 note=60 velocity=0 time=216
note_on channel=0 note=63 velocity=0 time=0
note_on channel=0 note=60 velocity=52 time=0
note_on channel=0 note=64 velocity=52 time=0
control_change channel=0 control=64 value=0 time=11
control_change channel=0 control=64 value=127 time=60
note_on channel=0 note=56 velocity=0 time=169
note_on channel=0 note=56 velocity=53 time=0
note_on channel=0 note=60 velocity=0 time=216
note_on channel=0 note=64 velocity=0 time=0
note_on channel=0 note=72 velocity=0 time=0
note_on channel=0 note=44 velocity=0 time=0
note_on channel=0 note=65 velocity=30 time=0
note_on channel=0 note=70 velocity=62 time=0
note_on channel=0 note=49 velocity=48 time=0
control_change channel=0 control=64 value=0 time=14
control_change channel=0 control=64 value=127 time=113
note_on channel=0 note=70 velocity=0 time=113
note_on channel=0 note=72 velocity=64 time=0
note_on channel=0 note=57 velocity=53 time=0
note_on channel=0 note=57 velocity=0 time=240
note_on channel=0 note=56 velocity=0 time=0
note_on channel=0 note=72 velocity=0 time=0
note_on channel=0 note=73 velocity=67 time=0
note_on channel=0 note=58 velocity=53 time=0
control_change channel=0 control=64 value=0 time=14
control_change channel=0 control=64 value=127 time=170
note_on channel=0 note=58 velocity=0 time=0
note_on channel=0 note=65 velocity=0 time=0
note_on channel=0 note=65 velocity=49 time=0
note_on channel=0 note=61 velocity=53 time=0
note_on channel=0 note=73 velocity=0 time=120
note_on channel=0 note=70 velocity=69 time=0
note_on channel=0 note=70 velocity=0 time=0
note_on channel=0 note=49 velocity=0 time=0
note_on channel=0 note=65 velocity=0 time=0
note_on channel=0 note=63 velocity=30 time=0
note_on channel=0 note=68 velocity=70 time=0
note_on channel=0 note=51 velocity=58 time=0
control_change channel=0 control=64 value=0 time=14
control_change channel=0 control=64 value=127 time=198
note_on channel=0 note=75 velocity=58 time=0
note_on channel=0 note=68 velocity=0 time=0
note_on channel=0 note=61 velocity=0 time=0
note_on channel=0 note=69 velocity=71 time=0
note_on channel=0 note=60 velocity=53 time=0
note_on channel=0 note=75 velocity=0 time=216
note_on channel=0 note=75 velocity=58 time=0
note_on channel=0 note=69 velocity=0 time=0
note_on channel=0 note=60 velocity=0 time=0
note_on channel=0 note=51 velocity=0 time=0
note_on channel=0 note=70 velocity=73 time=0
note_on channel=0 note=61 velocity=53 time=0
note_on channel=0 note=51 velocity=52 time=0
control_change channel=0 control=64 value=0 time=7
control_change channel=0 control=64 value=127 time=191
note_on channel=0 note=75 velocity=0 time=18
note_on channel=0 note=75 velocity=43 time=0
note_on channel=0 note=61 velocity=0 time=0
note_on channel=0 note=63 velocity=0 time=0
note_on channel=0 note=70 velocity=0 time=0
note_on channel=0 note=67 velocity=51 time=0
note_on channel=0 note=58 velocity=46 time=0
note_on channel=0 note=61 velocity=46 time=0
note_on channel=0 note=75 velocity=0 time=216
note_on channel=0 note=75 velocity=43 time=0
note_on channel=0 note=75 velocity=0 time=0
note_on channel=0 note=61 velocity=0 time=0
note_on channel=0 note=51 velocity=0 time=0
note_on channel=0 note=67 velocity=0 time=0
note_on channel=0 note=58 velocity=0 time=0
note_on channel=0 note=60 velocity=30 time=0
note_on channel=0 note=63 velocity=30 time=0
note_on channel=0 note=68 velocity=57 time=0
note_on channel=0 note=44 velocity=40 time=0
note_on channel=0 note=56 velocity=40 time=0
control_change channel=0 control=64 value=0 time=0
control_change channel=0 control=64 value=127 time=170
note_on channel=0 note=63 velocity=0 time=58
note_on channel=0 note=60 velocity=0 time=0
note_on channel=0 note=63 velocity=30 time=0
note_on channel=0 note=44 velocity=0 time=240
note_on channel=0 note=56 velocity=0 time=0
note_on channel=0 note=68 velocity=0 time=0
note_on channel=0 note=48 velocity=36 time=0
note_on channel=0 note=63 velocity=0 time=216
note_on channel=0 note=63 velocity=30 time=0
note_on channel=0 note=48 velocity=0 time=240
note_on channel=0 note=51 velocity=36 time=0
note_on channel=0 note=63 velocity=0 time=216
note_on channel=0 note=63 velocity=30 time=24
note_on channel=0 note=51 velocity=0 time=240
note_on channel=0 note=56 velocity=36 time=0
note_on channel=0 note=63 velocity=0 time=216
note_on channel=0 note=63 velocity=30 time=24
note_on channel=0 note=56 velocity=0 time=0
note_on channel=0 note=70 velocity=57 time=0
note_on channel=0 note=73 velocity=57 time=0
note_on channel=0 note=55 velocity=40 time=0
control_change channel=0 control=64 value=0 time=0
note_on channel=0 note=63 velocity=0 time=216
note_on channel=0 note=63 velocity=30 time=0
control_change channel=0 control=64 value=127 time=57
note_on channel=0 note=55 velocity=0 time=183
note_on channel=0 note=53 velocity=36 time=0
note_on channel=0 note=63 velocity=0 time=216
note_on channel=0 note=63 velocity=30 time=24
note_on channel=0 note=70 velocity=0 time=0
note_on channel=0 note=53 velocity=0 time=0
note_on channel=0 note=73 velocity=0 time=0
note_on channel=0 note=70 velocity=57 time=0
note_on channel=0 note=73 velocity=57 time=0
note_on channel=0 note=51 velocity=36 time=0
control_change channel=0 control=64 value=0 time=8
control_change channel=0 control=64 value=127 time=176
note_on channel=0 note=63 velocity=0 time=32
note_on channel=0 note=63 velocity=30 time=24
note_on channel=0 note=51 velocity=0 time=240
note_on channel=0 note=55 velocity=39 time=0
note_on channel=0 note=63 velocity=0 time=216
note_on channel=0 note=63 velocity=30 time=0
note_on channel=0 note=70 velocity=0 time=0
note_on channel=0 note=55 velocity=0 time=0
note_on channel=0 note=73 velocity=0 time=0
note_on channel=0 note=68 velocity=61 time=0
note_on channel=0 note=72 velocity=61 time=0
note_on channel=0 note=56 velocity=40 time=0
control_change channel=0 control=64 value=0 time=0
control_change channel=0 control=64 value=127 time=170
note_on channel=0 note=63 velocity=0 time=46
note_on channel=0 note=63 velocity=30 time=0
note_on channel=0 note=68 velocity=0 time=240
note_on channel=0 note=56 velocity=0 time=0
note_on channel=0 note=72 velocity=0 time=0
note_on channel=0 note=51 velocity=36 time=0
note_on channel=0 note=63 velocity=0 time=216
note_on channel=0 note=63 velocity=30 time=24
note_on channel=0 note=51 velocity=0 time=0
note_on channel=0 note=48 velocity=36 time=0
note_on channel=0 note=63 velocity=0 time=216
note_on channel=0 note=63 velocity=30 time=24
note_on channel=0 note=48 velocity=0 time=240
note_on channel=0 note=44 velocity=33 time=0
note_on channel=0 note=63 velocity=0 time=216
note_on channel=0 note=63 velocity=30 time=24
note_on channel=0 note=44 velocity=0 time=0
note_on channel=0 note=61 velocity=57 time=0
note_on channel=0 note=70 velocity=57 time=0
note_on channel=0 note=43 velocity=40 time=0
control_change channel=0 control=64 value=0 time=0
control_change channel=0 control=64 value=127 time=184
note_on channel=0 note=63 velocity=0 time=32
note_on channel=0 note=63 velocity=30 time=0
note_on channel=0 note=43 velocity=0 time=240
note_on channel=0 note=41 velocity=37 time=0
note_on channel=0 note=63 velocity=0 time=216
note_on channel=0 note=63 velocity=30 time=24
note_on channel=0 note=61 velocity=0 time=240
note_on channel=0 note=41 velocity=0 time=0
note_on channel=0 note=70 velocity=0 time=0
note_on channel=0 note=61 velocity=57 time=0
note_on channel=0 note=70 velocity=57 time=0
note_on channel=0 note=39 velocity=40 time=0
control_change channel=0 control=64 value=0 time=13
control_change channel=0 control=64 value=127 time=185
note_on channel=0 note=63 velocity=0 time=18
note_on channel=0 note=63 velocity=30 time=24
note_on channel=0 note=39 velocity=0 time=240
note_on channel=0 note=43 velocity=38 time=0
note_on channel=0 note=63 velocity=0 time=216
note_on channel=0 note=63 velocity=30 time=24
note_on channel=0 note=63 velocity=0 time=0
note_on channel=0 note=43 velocity=0 time=0
note_on channel=0 note=70 velocity=0 time=0
note_on channel=0 note=61 velocity=0 time=0
note_on channel=0 note=60 velocity=25 time=0
note_on channel=0 note=68 velocity=57 time=0
note_on channel=0 note=44 velocity=40 time=0
control_change channel=0 control=64 value=0 time=0
control_change channel=0 control=64 value=127 time=170
note_on channel=0 note=68 velocity=0 time=0
note_on channel=0 note=60 velocity=0 time=0
note_on channel=0 note=63 velocity=30 time=0
note_on channel=0 note=51 velocity=25 time=0
note_on channel=0 note=44 velocity=0 time=240
note_on channel=0 note=39 velocity=36 time=0
note_on channel=0 note=51 velocity=0 time=216
note_on channel=0 note=63 velocity=0 time=0
note_on channel=0 note=63 velocity=30 time=0
note_on channel=0 note=51 velocity=25 time=0
note_on channel=0 note=39 velocity=0 time=240
note_on channel=0 note=36 velocity=36 time=0
note_on channel=0 note=51 velocity=0 time=216
note_on channel=0 note=63 velocity=0 time=0
note_on channel=0 note=63 velocity=30 time=24
note_on channel=0 note=51 velocity=25 time=0
note_on channel=0 note=36 velocity=0 time=240
note_on channel=0 note=56 velocity=42 time=0
note_on channel=0 note=60 velocity=50 time=0
note_on channel=0 note=32 velocity=30 time=0
note_on channel=0 note=44 velocity=36 time=0
note_on channel=0 note=51 velocity=0 time=216
note_on channel=0 note=63 velocity=0 time=0
note_on channel=0 note=63 velocity=30 time=24
note_on channel=0 note=51 velocity=25 time=0
note_on channel=0 note=32 velocity=0 time=0
note_on channel=0 note=56 velocity=0 time=0
note_on channel=0 note=60 velocity=0 time=0
note_on channel=0 note=44 velocity=0 time=0
note_on channel=0 note=58 velocity=48 time=0
note_on channel=0 note=61 velocity=57 time=0
note_on channel=0 note=31 velocity=34 time=0
note_on channel=0 note=43 velocity=40 time=0
control_change channel=0 control=64 value=0 time=0
note_on channel=0 note=51 velocity=0 time=216
note_on channel=0 note=63 velocity=0 time=0
note_on channel=0 note=63 velocity=30 time=0
note_on channel=0 note=51 velocity=25 time=0
control_change channel=0 control=64 value=127 time=57
note_on channel=0 note=31 velocity=0 time=183
note_on channel=0 note=58 velocity=0 time=0
note_on channel=0 note=61 velocity=0 time=0
note_on channel=0 note=43 velocity=0 time=0
note_on channel=0 note=29 velocity=30 time=0
note_on channel=0 note=41 velocity=36 time=0
note_on channel=0 note=51 velocity=0 time=240
note_on channel=0 note=63 velocity=0 time=0
note_on channel=0 note=63 velocity=30 time=0
note_on channel=0 note=51 velocity=25 time=0
note_on channel=0 note=29 velocity=0 time=0
note_on channel=0 note=41 velocity=0 time=0
note_on channel=0 note=58 velocity=48 time=0
note_on channel=0 note=61 velocity=48 time=0
note_on channel=0 note=31 velocity=30 time=0
note_on channel=0 note=43 velocity=36 time=0
control_change channel=0 control=64 value=0 time=8
control_change channel=0 control=64 value=127 time=176
note_on channel=0 note=63 velocity=0 time=32
note_on channel=0 note=51 velocity=0 time=0
note_on channel=0 note=63 velocity=30 time=24
note_on channel=0 note=51 velocity=25 time=0
note_on channel=0 note=31 velocity=0 time=240
note_on channel=0 note=58 velocity=0 time=0
note_on channel=0 note=61 velocity=0 time=0
note_on channel=0 note=43 velocity=0 time=0
note_on channel=0 note=39 velocity=39 time=0
note_on channel=0 note=51 velocity=0 time=0
note_on channel=0 note=63 velocity=0 time=0
note_on channel=0 note=63 velocity=30 time=0
note_on channel=0 note=51 velocity=25 time=0
note_on channel=0 note=39 velocity=0 time=0
note_on channel=0 note=56 velocity=51 time=0
note_on channel=0 note=60 velocity=51 time=0
note_on channel=0 note=32 velocity=40 time=0
control_change channel=0 control=64 value=0 time=0
control_change channel=0 control=64 value=127 time=170
note_on channel=0 note=51 velocity=0 time=46
note_on channel=0 note=63 velocity=0 time=0
note_on channel=0 note=60 velocity=0 time=12
note_on channel=0 note=56 velocity=0 time=0
note_on channel=0 note=63 velocity=30 time=0
note_on channel=0 note=60 velocity=25 time=0
note_on channel=0 note=56 velocity=25 time=0
note_on channel=0 note=51 velocity=25 time=0
note_on channel=0 note=32 velocity=0 time=240
note_on channel=0 note=44 velocity=35 time=0
note_on channel=0 note=56 velocity=0 time=216
note_on channel=0 note=51 velocity=0 time=0
note_on channel=0 note=63 velocity=0 time=0
note_on channel=0 note=60 velocity=0 time=0
note_on channel=0 note=63 velocity=29 time=24
note_on channel=0 note=60 velocity=24 time=0
note_on channel=0 note=56 velocity=24 time=0
note_on channel=0 note=51 velocity=24 time=0
note_on channel=0 note=39 velocity=34 time=0
note_on channel=0 note=51 velocity=0 time=216
note_on channel=0 note=56 velocity=0 time=0
note_on channel=0 note=60 velocity=0 time=0
note_on channel=0 note=63 velocity=0 time=0
note_on channel=0 note=63 velocity=28 time=0
note_on channel=0 note=60 velocity=24 time=0
note_on channel=0 note=56 velocity=24 time=0
note_on channel=0 note=51 velocity=24 time=0
note_on channel=0 note=39 velocity=0 time=0
note_on channel=0 note=36 velocity=31 time=0
note_on channel=0 note=63 velocity=0 time=216
note_on channel=0 note=56 velocity=0 time=0
note_on channel=0 note=60 velocity=0 time=0
note_on channel=0 note=51 velocity=0 time=0
note_on channel=0 note=63 velocity=28 time=0
note_on channel=0 note=56 velocity=23 time=0
note_on channel=0 note=51 velocity=23 time=0
note_on channel=0 note=60 velocity=23 time=0
note_on channel=0 note=36 velocity=0 time=0
note_on channel=0 note=32 velocity=31 time=0
control_change channel=0 control=64 value=0 time=0
control_change channel=0 control=64 value=127 time=184
note_on channel=0 note=63 velocity=0 time=32
note_on channel=0 note=51 velocity=0 time=0
note_on channel=0 note=56 velocity=0 time=0
note_on channel=0 note=60 velocity=0 time=0
note_on channel=0 note=60 velocity=27 time=0
note_on channel=0 note=56 velocity=23 time=0
note_on channel=0 note=51 velocity=23 time=0
note_on channel=0 note=44 velocity=0 time=0
note_on channel=0 note=32 velocity=0 time=0
note_on channel=0 note=44 velocity=33 time=0
note_on channel=0 note=56 velocity=0 time=216
note_on channel=0 note=51 velocity=0 time=0
note_on channel=0 note=60 velocity=0 time=0
note_on channel=0 note=60 velocity=27 time=0
note_on channel=0 note=56 velocity=22 time=0
note_on channel=0 note=51 velocity=22 time=0
note_on channel=0 note=39 velocity=35 time=0
control_change channel=0 control=64 value=0 time=13
control_change channel=0 control=64 value=127 time=185
note_on channel=0 note=51 velocity=0 time=18
note_on channel=0 note=56 velocity=0 time=0
note_on channel=0 note=60 velocity=0 time=0
note_on channel=0 note=60 velocity=26 time=0
note_on channel=0 note=56 velocity=22 time=0
note_on channel=0 note=51 velocity=22 time=0
note_on channel=0 note=39 velocity=0 time=0
note_on channel=0 note=36 velocity=33 time=0
note_on channel=0 note=56 velocity=0 time=216
note_on channel=0 note=51 velocity=0 time=0
note_on channel=0 note=60 velocity=0 time=0
note_on channel=0 note=60 velocity=26 time=0
note_on channel=0 note=56 velocity=21 time=0
note_on channel=0 note=51 velocity=21 time=0
note_on channel=0 note=36 velocity=0 time=0
note_on channel=0 note=32 velocity=29 time=0
control_change channel=0 control=64 value=0 time=0
control_change channel=0 control=64 value=127 time=184
note_on channel=0 note=56 velocity=0 time=32
note_on channel=0 note=51 velocity=0 time=0
note_on channel=0 note=60 velocity=0 time=0
note_on channel=0 note=56 velocity=25 time=0
note_on channel=0 note=51 velocity=21 time=0
note_on channel=0 note=48 velocity=21 time=0
note_on channel=0 note=44 velocity=0 time=0
note_on channel=0 note=32 velocity=0 time=0
note_on channel=0 note=44 velocity=31 time=0
note_on channel=0 note=51 velocity=0 time=216
note_on channel=0 note=48 velocity=0 time=0
note_on channel=0 note=56 velocity=0 time=0
note_on channel=0 note=56 velocity=24 time=0
note_on channel=0 note=51 velocity=20 time=0
note_on channel=0 note=48 velocity=20 time=0
note_on channel=0 note=39 velocity=32 time=0
control_change channel=0 control=64 value=0 time=13
control_change channel=0 control=64 value=127 time=185
note_on channel=0 note=48 velocity=0 time=18
note_on channel=0 note=51 velocity=0 time=0
note_on channel=0 note=56 velocity=0 time=0
note_on channel=0 note=56 velocity=24 time=0
note_on channel=0 note=51 velocity=20 time=0
note_on channel=0 note=48 velocity=20 time=0
note_on channel=0 note=39 velocity=0 time=0
note_on channel=0 note=36 velocity=30 time=0
note_on channel=0 note=51 velocity=0 time=216
note_on channel=0 note=48 velocity=0 time=0
note_on channel=0 note=56 velocity=0 time=0
note_on channel=0 note=56 velocity=23 time=0
note_on channel=0 note=51 velocity=19 time=0
note_on channel=0 note=48 velocity=19 time=0
note_on channel=0 note=36 velocity=0 time=0
note_on channel=0 note=32 velocity=26 time=0
note_on channel=0 note=51 velocity=0 time=240
note_on channel=0 note=48 velocity=0 time=0
note_on channel=0 note=56 velocity=0 time=0
note_on channel=0 note=44 velocity=0 time=240
note_on channel=0 note=32 velocity=0 time=0
note_on channel=0 note=48 velocity=22 time=0
note_on channel=0 note=51 velocity=27 time=0
note_on channel=0 note=32 velocity=24 time=0
note_on channel=0 note=32 velocity=0 time=480
note_on channel=0 note=51 velocity=0 time=0
note_on channel=0 note=48 velocity=0 time=0
note_on channel=0 note=44 velocity=19 time=0
note_on channel=0 note=48 velocity=23 time=0
note_on channel=0 note=32 velocity=25 time=0
note_on channel=0 note=32 velocity=0 time=1920
note_on channel=0 note=48 velocity=0 time=0
note_on channel=0 note=44 velocity=0 time=0
control_change channel=0 control=64 value=0 time=1387
