note_on channel=0 note=51 velocity=18 time=0
note_on channel=0 note=55 velocity=18 time=0
note_on channel=0 note=58 velocity=22 time=0
note_on channel=0 note=58 velocity=0 time=216
note_on channel=0 note=55 velocity=0 time=0
note_on channel=0 note=51 velocity=0 time=0
note_on channel=0 note=51 velocity=15 time=24
note_on channel=0 note=55 velocity=15 time=0
note_on channel=0 note=58 velocity=18 time=0
note_on channel=0 note=58 velocity=0 time=216
note_on channel=0 note=55 velocity=0 time=0
note_on channel=0 note=51 velocity=0 time=0
note_on channel=0 note=51 velocity=15 time=24
note_on channel=0 note=55 velocity=15 time=0
note_on channel=0 note=58 velocity=18 time=0
note_on channel=0 note=58 velocity=0 time=216
note_on channel=0 note=55 velocity=0 time=0
note_on channel=0 note=51 velocity=0 time=0
note_on channel=0 note=51 velocity=17 time=24
note_on channel=0 note=55 velocity=17 time=0
note_on channel=0 note=58 velocity=20 time=0
note_on channel=0 note=58 velocity=0 time=216
note_on channel=0 note=55 velocity=0 time=0
note_on channel=0 note=51 velocity=0 time=0
note_on channel=0 note=51 velocity=15 time=24
note_on channel=0 note=55 velocity=15 time=0
note_on channel=0 note=58 velocity=18 time=0
note_on channel=0 note=58 velocity=0 time=216
note_on channel=0 note=55 velocity=0 time=0
note_on channel=0 note=51 velocity=0 time=0
note_on channel=0 note=51 velocity=15 time=24
note_on channel=0 note=55 velocity=15 time=0
note_on channel=0 note=58 velocity=18 time=0
note_on channel=0 note=58 velocity=0 time=216
note_on channel=0 note=55 velocity=0 time=0
note_on channel=0 note=51 velocity=0 time=0
note_on channel=0 note=67 velocity=38 time=24
note_on channel=0 note=51 velocity=18 time=0
note_on channel=0 note=55 velocity=18 time=0
note_on channel=0 note=58 velocity=21 time=0
note_on channel=0 note=67 velocity=0 time=180
note_on channel=0 note=68 velocity=36 time=0
note_on channel=0 note=51 velocity=0 time=36
note_on channel=0 note=58 velocity=0 time=0
note_on channel=0 note=55 velocity=0 time=0
note_on channel=0 note=68 velocity=0 time=24
note_on channel=0 note=67 velocity=39 time=0
note_on channel=0 note=51 velocity=15 time=0
note_on channel=0 note=55 velocity=15 time=0
note_on channel=0 note=58 velocity=18 time=0
note_on channel=0 note=67 velocity=0 time=120
note_on channel=0 note=65 velocity=36 time=0
note_on channel=0 note=51 velocity=0 time=96
note_on channel=0 note=58 velocity=0 time=0
note_on channel=0 note=55 velocity=0 time=0
note_on channel=0 note=65 velocity=0 time=24
note_on channel=0 note=67 velocity=40 time=0
note_on channel=0 note=51 velocity=15 time=0
note_on channel=0 note=55 velocity=15 time=0
note_on channel=0 note=58 velocity=18 time=0
note_on channel=0 note=67 velocity=0 time=0
note_on channel=0 note=68 velocity=36 time=0
note_on channel=0 note=51 velocity=0 time=96
note_on channel=0 note=58 velocity=0 time=0
note_on channel=0 note=55 velocity=0 time=0
note_on channel=0 note=68 velocity=0 time=0
note_on channel=0 note=69 velocity=44 time=0
note_on channel=0 note=51 velocity=18 time=0
note_on channel=0 note=55 velocity=18 time=0
note_on channel=0 note=58 velocity=22 time=0
control_change channel=0 control=64 value=127 time=57
note_on channel=0 note=58 velocity=0 time=159
note_on channel=0 note=55 velocity=0 time=0
note_on channel=0 note=51 velocity=0 time=0
note_on channel=0 note=51 velocity=15 time=24
note_on channel=0 note=55 velocity=15 time=0
note_on channel=0 note=58 velocity=18 time=0
note_on channel=0 note=58 velocity=0 time=216
note_on channel=0 note=55 velocity=0 time=0
note_on channel=0 note=51 velocity=0 time=0
note_on channel=0 note=51 velocity=15 time=24
note_on channel=0 note=55 velocity=15 time=0
note_on channel=0 note=58 velocity=18 time=0
note_on channel=0 note=58 velocity=0 time=216
note_on channel=0 note=55 velocity=0 time=0
note_on channel=0 note=51 velocity=0 time=0
note_on channel=0 note=69 velocity=0 time=24
note_on channel=0 note=70 velocity=51 time=0
note_on channel=0 note=51 velocity=17 time=0
note_on channel=0 note=55 velocity=17 time=0
note_on channel=0 note=58 velocity=20 time=0
control_change channel=0 control=64 value=0 time=36
control_change channel=0 control=64 value=127 time=52
note_on channel=0 note=58 velocity=0 time=128
note_on channel=0 note=55 velocity=0 time=0
note_on channel=0 note=51 velocity=0 time=0
note_on channel=0 note=51 velocity=15 time=24
note_on channel=0 note=55 velocity=15 time=0
note_on channel=0 note=58 velocity=18 time=0
note_on channel=0 note=58 velocity=0 time=216
note_on channel=0 note=55 velocity=0 time=0
note_on channel=0 note=51 velocity=0 time=0
note_on channel=0 note=51 velocity=15 time=24
note_on channel=0 note=55 velocity=15 time=0
note_on channel=0 note=58 velocity=18 time=0
note_on channel=0 note=58 velocity=0 time=216
note_on channel=0 note=55 velocity=0 time=0
note_on channel=0 note=51 velocity=0 time=0
note_on channel=0 note=51 velocity=18 time=24
note_on channel=0 note=55 velocity=18 time=0
note_on channel=0 note=58 velocity=21 time=0
control_change channel=0 control=64 value=0 time=21
note_on channel=0 note=70 velocity=0 time=159
note_on channel=0 note=72 velocity=39 time=0
note_on channel=0 note=51 velocity=0 time=36
note_on channel=0 note=58 velocity=0 time=0
note_on channel=0 note=55 velocity=0 time=0
note_on channel=0 note=72 velocity=0 time=0
note_on channel=0 note=70 velocity=49 time=0
note_on channel=0 note=51 velocity=15 time=0
note_on channel=0 note=55 velocity=15 time=0
note_on channel=0 note=58 velocity=18 time=0
note_on channel=0 note=70 velocity=0 time=120
note_on channel=0 note=69 velocity=42 time=0
note_on channel=0 note=51 velocity=0 time=96
note_on channel=0 note=58 velocity=0 time=0
note_on channel=0 note=55 velocity=0 time=0
note_on channel=0 note=69 velocity=0 time=24
note_on channel=0 note=70 velocity=51 time=0
note_on channel=0 note=51 velocity=15 time=0
note_on channel=0 note=55 velocity=15 time=0
note_on channel=0 note=58 velocity=18 time=0
note_on channel=0 note=70 velocity=0 time=0
note_on channel=0 note=71 velocity=46 time=0
note_on channel=0 note=51 velocity=0 time=96
note_on channel=0 note=58 velocity=0 time=0
note_on channel=0 note=55 velocity=0 time=0
note_on channel=0 note=71 velocity=0 time=0
note_on channel=0 note=71 velocity=50 time=0
note_on channel=0 note=50 velocity=18 time=0
note_on channel=0 note=56 velocity=18 time=0
note_on channel=0 note=58 velocity=22 time=0
control_change channel=0 control=64 value=127 time=36
note_on channel=0 note=58 velocity=0 time=180
note_on channel=0 note=56 velocity=0 time=0
note_on channel=0 note=50 velocity=0 time=0
note_on channel=0 note=50 velocity=15 time=24
note_on channel=0 note=56 velocity=15 time=0
note_on channel=0 note=58 velocity=18 time=0
note_on channel=0 note=72 velocity=39 time=0
note_on channel=0 note=72 velocity=0 time=30
note_on channel=0 note=71 velocity=33 time=0
note_on channel=0 note=71 velocity=0 time=30
note_on channel=0 note=71 velocity=0 time=0
note_on channel=0 note=69 velocity=41 time=0
note_on channel=0 note=69 velocity=0 time=30
note_on channel=0 note=71 velocity=37 time=0
note_on channel=0 note=58 velocity=0 time=6
note_on channel=0 note=50 velocity=0 time=0
note_on channel=0 note=56 velocity=0 time=0
note_on channel=0 note=71 velocity=0 time=24
note_on channel=0 note=74 velocity=53 time=0
note_on channel=0 note=50 velocity=15 time=0
note_on channel=0 note=56 velocity=15 time=0
note_on channel=0 note=58 velocity=18 time=0
control_change channel=0 control=64 value=0 time=5
control_change channel=0 control=64 value=127 time=31
note_on channel=0 note=74 velocity=0 time=144
note_on channel=0 note=72 velocity=44 time=0
note_on channel=0 note=50 velocity=0 time=36
note_on channel=0 note=58 velocity=0 time=0
note_on channel=0 note=56 velocity=0 time=0
note_on channel=0 note=72 velocity=0 time=0
note_on channel=0 note=65 velocity=55 time=0
note_on channel=0 note=50 velocity=17 time=0
note_on channel=0 note=56 velocity=17 time=0
note_on channel=0 note=58 velocity=20 time=0
control_change channel=0 control=64 value=0 time=17
control_change channel=0 control=64 value=127 time=55
note_on channel=0 note=58 velocity=0 time=144
note_on channel=0 note=56 velocity=0 time=0
note_on channel=0 note=50 velocity=0 time=0
note_on channel=0 note=50 velocity=15 time=24
note_on channel=0 note=56 velocity=15 time=0
note_on channel=0 note=58 velocity=18 time=0
note_on channel=0 note=58 velocity=0 time=216
note_on channel=0 note=56 velocity=0 time=0
note_on channel=0 note=50 velocity=0 time=0
note_on channel=0 note=50 velocity=15 time=24
note_on channel=0 note=56 velocity=15 time=0
note_on channel=0 note=58 velocity=18 time=0
note_on channel=0 note=58 velocity=0 time=216
note_on channel=0 note=56 velocity=0 time=0
note_on channel=0 note=50 velocity=0 time=0
note_on channel=0 note=50 velocity=18 time=24
note_on channel=0 note=56 velocity=18 time=0
note_on channel=0 note=58 velocity=21 time=0
control_change channel=0 control=64 value=0 time=15
note_on channel=0 note=65 velocity=0 time=165
note_on channel=0 note=67 velocity=39 time=0
note_on channel=0 note=50 velocity=0 time=36
note_on channel=0 note=58 velocity=0 time=0
note_on channel=0 note=56 velocity=0 time=0
note_on channel=0 note=67 velocity=0 time=24
note_on channel=0 note=65 velocity=46 time=0
note_on channel=0 note=50 velocity=15 time=0
note_on channel=0 note=56 velocity=15 time=0
note_on channel=0 note=58 velocity=18 time=0
note_on channel=0 note=65 velocity=0 time=120
note_on channel=0 note=64 velocity=42 time=0
note_on channel=0 note=50 velocity=0 time=96
note_on channel=0 note=58 velocity=0 time=0
note_on channel=0 note=56 velocity=0 time=0
note_on channel=0 note=64 velocity=0 time=24
note_on channel=0 note=65 velocity=49 time=0
note_on channel=0 note=50 velocity=15 time=0
note_on channel=0 note=56 velocity=15 time=0
note_on channel=0 note=58 velocity=18 time=0
note_on channel=0 note=65 velocity=0 time=0
note_on channel=0 note=67 velocity=46 time=0
note_on channel=0 note=50 velocity=0 time=96
note_on channel=0 note=58 velocity=0 time=0
note_on channel=0 note=56 velocity=0 time=0
note_on channel=0 note=67 velocity=0 time=0
note_on channel=0 note=68 velocity=55 time=0
note_on channel=0 note=53 velocity=18 time=0
note_on channel=0 note=50 velocity=18 time=0
note_on channel=0 note=56 velocity=18 time=0
note_on channel=0 note=58 velocity=22 time=0
control_change channel=0 control=64 value=127 time=80
note_on channel=0 note=58 velocity=0 time=136
note_on channel=0 note=50 velocity=0 time=0
note_on channel=0 note=56 velocity=0 time=0
note_on channel=0 note=53 velocity=0 time=0
note_on channel=0 note=53 velocity=15 time=24
note_on channel=0 note=50 velocity=15 time=0
note_on channel=0 note=56 velocity=15 time=0
note_on channel=0 note=58 velocity=18 time=0
note_on channel=0 note=58 velocity=0 time=216
note_on channel=0 note=50 velocity=0 time=0
note_on channel=0 note=56 velocity=0 time=0
note_on channel=0 note=53 velocity=0 time=0
note_on channel=0 note=53 velocity=15 time=24
note_on channel=0 note=50 velocity=15 time=0
note_on channel=0 note=56 velocity=15 time=0
note_on channel=0 note=58 velocity=18 time=0
note_on channel=0 note=58 velocity=0 time=216
note_on channel=0 note=50 velocity=0 time=0
note_on channel=0 note=56 velocity=0 time=0
note_on channel=0 note=53 velocity=0 time=0
note_on channel=0 note=53 velocity=17 time=24
note_on channel=0 note=50 velocity=17 time=0
note_on channel=0 note=56 velocity=17 time=0
note_on channel=0 note=58 velocity=20 time=0
control_change channel=0 control=64 value=0 time=18
note_on channel=0 note=68 velocity=0 time=102
note_on channel=0 note=67 velocity=47 time=0
note_on channel=0 note=56 velocity=0 time=96
note_on channel=0 note=58 velocity=0 time=0
note_on channel=0 note=53 velocity=0 time=0
note_on channel=0 note=50 velocity=0 time=0
note_on channel=0 note=67 velocity=0 time=24
note_on channel=0 note=65 velocity=48 time=0
note_on channel=0 note=53 velocity=15 time=0
note_on channel=0 note=50 velocity=15 time=0
note_on channel=0 note=56 velocity=15 time=0
note_on channel=0 note=58 velocity=18 time=0
note_on channel=0 note=65 velocity=0 time=120
note_on channel=0 note=64 velocity=44 time=0
note_on channel=0 note=56 velocity=0 time=96
note_on channel=0 note=58 velocity=0 time=0
note_on channel=0 note=53 velocity=0 time=0
note_on channel=0 note=50 velocity=0 time=0
note_on channel=0 note=64 velocity=0 time=24
note_on channel=0 note=65 velocity=49 time=0
note_on channel=0 note=53 velocity=15 time=0
note_on channel=0 note=50 velocity=15 time=0
note_on channel=0 note=56 velocity=15 time=0
note_on channel=0 note=58 velocity=18 time=0
note_on channel=0 note=65 velocity=0 time=0
note_on channel=0 note=67 velocity=44 time=0
note_on channel=0 note=56 velocity=0 time=96
note_on channel=0 note=58 velocity=0 time=0
note_on channel=0 note=53 velocity=0 time=0
note_on channel=0 note=50 velocity=0 time=0
note_on channel=0 note=67 velocity=0 time=24
note_on channel=0 note=68 velocity=50 time=0
note_on channel=0 note=53 velocity=18 time=0
note_on channel=0 note=50 velocity=18 time=0
note_on channel=0 note=56 velocity=18 time=0
note_on channel=0 note=58 velocity=21 time=0
note_on channel=0 note=68 velocity=0 time=120
note_on channel=0 note=70 velocity=45 time=0
note_on channel=0 note=56 velocity=0 time=96
note_on channel=0 note=58 velocity=0 time=0
note_on channel=0 note=53 velocity=0 time=0
note_on channel=0 note=50 velocity=0 time=0
note_on channel=0 note=70 velocity=0 time=24
note_on channel=0 note=72 velocity=54 time=0
note_on channel=0 note=53 velocity=15 time=0
note_on channel=0 note=50 velocity=15 time=0
note_on channel=0 note=56 velocity=15 time=0
note_on channel=0 note=58 velocity=18 time=0
note_on channel=0 note=72 velocity=0 time=120
note_on channel=0 note=71 velocity=45 time=0
note_on channel=0 note=56 velocity=0 time=96
note_on channel=0 note=58 velocity=0 time=0
note_on channel=0 note=53 velocity=0 time=0
note_on channel=0 note=50 velocity=0 time=0
note_on channel=0 note=71 velocity=0 time=24
note_on channel=0 note=72 velocity=48 time=0
note_on channel=0 note=53 velocity=15 time=0
note_on channel=0 note=50 velocity=15 time=0
note_on channel=0 note=56 velocity=15 time=0
note_on channel=0 note=58 velocity=18 time=0
note_on channel=0 note=72 velocity=0 time=0
note_on channel=0 note=68 velocity=39 time=0
note_on channel=0 note=56 velocity=0 time=96
note_on channel=0 note=58 velocity=0 time=0
note_on channel=0 note=53 velocity=0 time=0
note_on channel=0 note=50 velocity=0 time=0
note_on channel=0 note=68 velocity=0 time=0
note_on channel=0 note=66 velocity=58 time=0
note_on channel=0 note=51 velocity=18 time=0
note_on channel=0 note=56 velocity=18 time=0
note_on channel=0 note=58 velocity=22 time=0
control_change channel=0 control=64 value=127 time=78
note_on channel=0 note=58 velocity=0 time=138
note_on channel=0 note=56 velocity=0 time=0
note_on channel=0 note=51 velocity=0 time=0
note_on channel=0 note=51 velocity=15 time=24
note_on channel=0 note=56 velocity=15 time=0
note_on channel=0 note=58 velocity=18 time=0
note_on channel=0 note=58 velocity=0 time=216
note_on channel=0 note=56 velocity=0 time=0
note_on channel=0 note=51 velocity=0 time=0
note_on channel=0 note=51 velocity=15 time=24
note_on channel=0 note=56 velocity=15 time=0
note_on channel=0 note=58 velocity=18 time=0
note_on channel=0 note=58 velocity=0 time=216
note_on channel=0 note=56 velocity=0 time=0
note_on channel=0 note=51 velocity=0 time=0
note_on channel=0 note=66 velocity=0 time=24
note_on channel=0 note=67 velocity=55 time=0
note_on channel=0 note=51 velocity=17 time=0
note_on channel=0 note=55 velocity=17 time=0
note_on channel=0 note=58 velocity=20 time=0
control_change channel=0 control=64 value=0 time=15
control_change channel=0 control=64 value=127 time=105
note_on channel=0 note=58 velocity=0 time=96
note_on channel=0 note=55 velocity=0 time=0
note_on channel=0 note=51 velocity=0 time=0
note_on channel=0 note=51 velocity=15 time=24
note_on channel=0 note=55 velocity=15 time=0
note_on channel=0 note=58 velocity=18 time=0
note_on channel=0 note=58 velocity=0 time=216
note_on channel=0 note=55 velocity=0 time=0
note_on channel=0 note=51 velocity=0 time=0
note_on channel=0 note=51 velocity=15 time=24
note_on channel=0 note=55 velocity=15 time=0
note_on channel=0 note=58 velocity=18 time=0
note_on channel=0 note=58 velocity=0 time=216
note_on channel=0 note=55 velocity=0 time=0
note_on channel=0 note=51 velocity=0 time=0
note_on channel=0 note=51 velocity=36 time=24
control_change channel=0 control=64 value=0 time=15
control_change channel=0 control=64 value=127 time=98
note_on channel=0 note=67 velocity=0 time=0
note_on channel=0 note=63 velocity=55 time=0
note_on channel=0 note=63 velocity=0 time=120
note_on channel=0 note=51 velocity=0 time=0
note_on channel=0 note=67 velocity=59 time=0
note_on channel=0 note=46 velocity=40 time=0
note_on channel=0 note=67 velocity=0 time=120
note_on channel=0 note=70 velocity=62 time=0
note_on channel=0 note=70 velocity=0 time=120
note_on channel=0 note=46 velocity=0 time=0
note_on channel=0 note=75 velocity=66 time=0
note_on channel=0 note=44 velocity=43 time=0
note_on channel=0 note=75 velocity=0 time=0
note_on channel=0 note=79 velocity=69 time=0
note_on channel=0 note=79 velocity=0 time=0
note_on channel=0 note=44 velocity=0 time=0
note_on channel=0 note=82 velocity=72 time=0
note_on channel=0 note=43 velocity=48 time=0
control_change channel=0 control=64 value=0 time=0
control_change channel=0 control=64 value=127 time=198
note_on channel=0 note=43 velocity=0 time=42
note_on channel=0 note=43 velocity=29 time=0
note_on channel=0 note=46 velocity=29 time=0
note_on channel=0 note=51 velocity=35 time=0
note_on channel=0 note=51 velocity=0 time=216
note_on channel=0 note=46 velocity=0 time=0
note_on channel=0 note=43 velocity=0 time=0
note_on channel=0 note=43 velocity=29 time=24
note_on channel=0 note=46 velocity=29 time=0
note_on channel=0 note=51 velocity=35 time=0
note_on channel=0 note=51 velocity=0 time=216
note_on channel=0 note=46 velocity=0 time=0
note_on channel=0 note=43 velocity=0 time=0
note_on channel=0 note=43 velocity=29 time=24
note_on channel=0 note=46 velocity=29 time=0
note_on channel=0 note=51 velocity=35 time=0
note_on channel=0 note=51 velocity=0 time=216
note_on channel=0 note=46 velocity=0 time=0
note_on channel=0 note=43 velocity=0 time=0
note_on channel=0 note=82 velocity=0 time=24
note_on channel=0 note=79 velocity=69 time=0
note_on channel=0 note=43 velocity=27 time=0
note_on channel=0 note=46 velocity=27 time=0
note_on channel=0 note=51 velocity=32 time=0
note_on channel=0 note=51 velocity=0 time=216
note_on channel=0 note=46 velocity=0 time=0
note_on channel=0 note=43 velocity=0 time=0
note_on channel=0 note=79 velocity=0 time=24
note_on channel=0 note=75 velocity=65 time=0
note_on channel=0 note=43 velocity=27 time=0
note_on channel=0 note=46 velocity=27 time=0
note_on channel=0 note=51 velocity=32 time=0
note_on channel=0 note=51 velocity=0 time=216
note_on channel=0 note=46 velocity=0 time=0
note_on channel=0 note=43 velocity=0 time=0
note_on channel=0 note=75 velocity=0 time=24
note_on channel=0 note=70 velocity=65 time=0
note_on channel=0 note=43 velocity=29 time=0
note_on channel=0 note=46 velocity=29 time=0
note_on channel=0 note=51 velocity=35 time=0
note_on channel=0 note=51 velocity=0 time=216
note_on channel=0 note=46 velocity=0 time=0
note_on channel=0 note=43 velocity=0 time=0
note_on channel=0 note=70 velocity=0 time=24
note_on channel=0 note=67 velocity=68 time=0
note_on channel=0 note=43 velocity=25 time=0
note_on channel=0 note=46 velocity=25 time=0
note_on channel=0 note=51 velocity=30 time=0
note_on channel=0 note=51 velocity=0 time=216
note_on channel=0 note=46 velocity=0 time=0
note_on channel=0 note=43 velocity=0 time=0
note_on channel=0 note=67 velocity=0 time=0
note_on channel=0 note=63 velocity=66 time=0
note_on channel=0 note=43 velocity=25 time=0
note_on channel=0 note=46 velocity=25 time=0
note_on channel=0 note=51 velocity=30 time=0
note_on channel=0 note=51 velocity=0 time=216
note_on channel=0 note=46 velocity=0 time=0
note_on channel=0 note=43 velocity=0 time=0
note_on channel=0 note=63 velocity=0 time=0
note_on channel=0 note=60 velocity=72 time=0
note_on channel=0 note=44 velocity=31 time=0
note_on channel=0 note=48 velocity=31 time=0
note_on channel=0 note=51 velocity=38 time=0
control_change channel=0 control=64 value=0 time=6
control_change channel=0 control=64 value=127 time=86
note_on channel=0 note=51 velocity=0 time=124
note_on channel=0 note=48 velocity=0 time=0
note_on channel=0 note=44 velocity=0 time=0
note_on channel=0 note=44 velocity=27 time=24
note_on channel=0 note=48 velocity=27 time=0
note_on channel=0 note=51 velocity=33 time=0
note_on channel=0 note=51 velocity=0 time=216
note_on channel=0 note=48 velocity=0 time=0
note_on channel=0 note=44 velocity=0 time=0
note_on channel=0 note=44 velocity=27 time=0
note_on channel=0 note=48 velocity=27 time=0
note_on channel=0 note=51 velocity=33 time=0
note_on channel=0 note=51 velocity=0 time=216
note_on channel=0 note=48 velocity=0 time=0
note_on channel=0 note=44 velocity=0 time=0
note_on channel=0 note=60 velocity=0 time=0
note_on channel=0 note=84 velocity=72 time=0
note_on channel=0 note=44 velocity=31 time=0
note_on channel=0 note=48 velocity=31 time=0
note_on channel=0 note=52 velocity=38 time=0
control_change channel=0 control=64 value=0 time=15
control_change channel=0 control=64 value=127 time=119
note_on channel=0 note=52 velocity=0 time=82
note_on channel=0 note=48 velocity=0 time=0
note_on channel=0 note=44 velocity=0 time=0
note_on channel=0 note=44 velocity=27 time=24
note_on channel=0 note=48 velocity=27 time=0
note_on channel=0 note=52 velocity=33 time=0
note_on channel=0 note=52 velocity=0 time=216
note_on channel=0 note=48 velocity=0 time=0
note_on channel=0 note=44 velocity=0 time=0
note_on channel=0 note=44 velocity=27 time=24
note_on channel=0 note=48 velocity=27 time=0
note_on channel=0 note=52 velocity=33 time=0
note_on channel=0 note=52 velocity=0 time=216
note_on channel=0 note=48 velocity=0 time=0
note_on channel=0 note=44 velocity=0 time=0
note_on channel=0 note=44 velocity=31 time=24
note_on channel=0 note=48 velocity=31 time=0
note_on channel=0 note=53 velocity=38 time=0
control_change channel=0 control=64 value=0 time=16
control_change channel=0 control=64 value=127 time=118
note_on channel=0 note=53 velocity=0 time=82
note_on channel=0 note=48 velocity=0 time=0
note_on channel=0 note=44 velocity=0 time=0
note_on channel=0 note=84 velocity=0 time=24
note_on channel=0 note=82 velocity=67 time=0
note_on channel=0 note=44 velocity=25 time=0
note_on channel=0 note=48 velocity=25 time=0
note_on channel=0 note=53 velocity=30 time=0
note_on channel=0 note=82 velocity=0 time=120
note_on channel=0 note=80 velocity=61 time=0
note_on channel=0 note=44 velocity=0 time=96
note_on channel=0 note=53 velocity=0 time=0
note_on channel=0 note=48 velocity=0 time=0
note_on channel=0 note=80 velocity=0 time=24
note_on channel=0 note=79 velocity=67 time=0
note_on channel=0 note=44 velocity=25 time=0
note_on channel=0 note=48 velocity=25 time=0
note_on channel=0 note=53 velocity=30 time=0
note_on channel=0 note=79 velocity=0 time=0
note_on channel=0 note=77 velocity=60 time=0
note_on channel=0 note=44 velocity=0 time=96
note_on channel=0 note=53 velocity=0 time=0
note_on channel=0 note=48 velocity=0 time=0
note_on channel=0 note=77 velocity=0 time=14
note_on channel=0 note=77 velocity=67 time=0
note_on channel=0 note=46 velocity=29 time=0
note_on channel=0 note=51 velocity=29 time=0
note_on channel=0 note=55 velocity=35 time=0
control_change channel=0 control=64 value=0 time=0
note_on channel=0 note=55 velocity=0 time=216
note_on channel=0 note=51 velocity=0 time=0
note_on channel=0 note=46 velocity=0 time=0
note_on channel=0 note=77 velocity=0 time=0
note_on channel=0 note=75 velocity=60 time=0
note_on channel=0 note=46 velocity=23 time=0
note_on channel=0 note=51 velocity=23 time=0
note_on channel=0 note=55 velocity=28 time=0
control_change channel=0 control=64 value=127 time=48
note_on channel=0 note=55 velocity=0 time=168
note_on channel=0 note=51 velocity=0 time=0
note_on channel=0 note=46 velocity=0 time=0
note_on channel=0 note=46 velocity=23 time=24
note_on channel=0 note=51 velocity=23 time=0
note_on channel=0 note=55 velocity=28 time=0
note_on channel=0 note=55 velocity=0 time=216
note_on channel=0 note=51 velocity=0 time=0
note_on channel=0 note=46 velocity=0 time=0
note_on channel=0 note=46 velocity=20 time=24
note_on channel=0 note=51 velocity=20 time=0
note_on channel=0 note=55 velocity=25 time=0
note_on channel=0 note=55 velocity=0 time=216
note_on channel=0 note=51 velocity=0 time=0
note_on channel=0 note=46 velocity=0 time=0
note_on channel=0 note=75 velocity=0 time=24
note_on channel=0 note=75 velocity=56 time=0
note_on channel=0 note=46 velocity=18 time=0
note_on channel=0 note=51 velocity=18 time=0
note_on channel=0 note=55 velocity=21 time=0
note_on channel=0 note=55 velocity=0 time=216
note_on channel=0 note=51 velocity=0 time=0
note_on channel=0 note=46 velocity=0 time=0
note_on channel=0 note=75 velocity=0 time=24
note_on channel=0 note=75 velocity=54 time=0
note_on channel=0 note=46 velocity=17 time=0
note_on channel=0 note=51 velocity=17 time=0
note_on channel=0 note=55 velocity=21 time=0
note_on channel=0 note=55 velocity=0 time=216
note_on channel=0 note=51 velocity=0 time=0
note_on channel=0 note=46 velocity=0 time=0
note_on channel=0 note=75 velocity=0 time=0
note_on channel=0 note=75 velocity=53 time=0
note_on channel=0 note=46 velocity=20 time=0
note_on channel=0 note=53 velocity=20 time=0
note_on channel=0 note=56 velocity=24 time=0
note_on channel=0 note=75 velocity=0 time=30
note_on channel=0 note=77 velocity=43 time=0
control_change channel=0 control=64 value=0 time=5
note_on channel=0 note=77 velocity=0 time=25
note_on channel=0 note=75 velocity=54 time=0
control_change channel=0 control=64 value=127 time=29
note_on channel=0 note=75 velocity=0 time=1
note_on channel=0 note=77 velocity=46 time=0
note_on channel=0 note=77 velocity=0 time=30
note_on channel=0 note=75 velocity=52 time=0
note_on channel=0 note=75 velocity=0 time=30
note_on channel=0 note=77 velocity=44 time=0
note_on channel=0 note=77 velocity=0 time=30
note_on channel=0 note=75 velocity=51 time=0
note_on channel=0 note=75 velocity=0 time=20
note_on channel=0 note=74 velocity=43 time=0
note_on channel=0 note=46 velocity=0 time=16
note_on channel=0 note=56 velocity=0 time=0
note_on channel=0 note=53 velocity=0 time=0
note_on channel=0 note=74 velocity=0 time=4
note_on channel=0 note=75 velocity=43 time=0
note_on channel=0 note=75 velocity=0 time=0
note_on channel=0 note=77 velocity=54 time=0
note_on channel=0 note=46 velocity=17 time=0
note_on channel=0 note=53 velocity=17 time=0
note_on channel=0 note=56 velocity=20 time=0
control_change channel=0 control=64 value=0 time=38
note_on channel=0 note=56 velocity=0 time=178
note_on channel=0 note=53 velocity=0 time=0
note_on channel=0 note=46 velocity=0 time=0
note_on channel=0 note=77 velocity=0 time=0
note_on channel=0 note=74 velocity=47 time=0
note_on channel=0 note=46 velocity=16 time=0
note_on channel=0 note=53 velocity=16 time=0
note_on channel=0 note=56 velocity=20 time=0
note_on channel=0 note=56 velocity=0 time=216
note_on channel=0 note=53 velocity=0 time=0
note_on channel=0 note=46 velocity=0 time=0
note_on channel=0 note=74 velocity=0 time=0
note_on channel=0 note=75 velocity=47 time=0
note_on channel=0 note=51 velocity=26 time=0
note_on channel=0 note=55 velocity=31 time=0
control_change channel=0 control=64 value=127 time=99
note_on channel=0 note=75 velocity=0 time=0
note_on channel=0 note=70 velocity=43 time=0
note_on channel=0 note=70 velocity=0 time=216
note_on channel=0 note=55 velocity=0 time=24
note_on channel=0 note=51 velocity=0 time=0
note_on channel=0 note=70 velocity=43 time=0
note_on channel=0 note=70 velocity=0 time=216
note_on channel=0 note=70 velocity=49 time=24
control_change channel=0 control=64 value=0 time=15
note_on channel=0 note=70 velocity=0 time=225
note_on channel=0 note=72 velocity=41 time=0
note_on channel=0 note=72 velocity=0 time=0
note_on channel=0 note=68 velocity=32 time=0
note_on channel=0 note=68 velocity=0 time=0
note_on channel=0 note=63 velocity=36 time=0
note_on channel=0 note=67 velocity=43 time=0
note_on channel=0 note=46 velocity=26 time=0
note_on channel=0 note=58 velocity=31 time=0
note_on channel=0 note=67 velocity=0 time=240
note_on channel=0 note=68 velocity=37 time=0
note_on channel=0 note=68 velocity=0 time=0
note_on channel=0 note=58 velocity=0 time=0
note_on channel=0 note=63 velocity=0 time=0
note_on channel=0 note=62 velocity=27 time=0
note_on channel=0 note=65 velocity=32 time=0
note_on channel=0 note=56 velocity=29 time=0
note_on channel=0 note=56 velocity=0 time=0
note_on channel=0 note=46 velocity=0 time=0
note_on channel=0 note=62 velocity=0 time=0
note_on channel=0 note=65 velocity=0 time=0
note_on channel=0 note=63 velocity=47 time=0
note_on channel=0 note=51 velocity=26 time=0
note_on channel=0 note=55 velocity=31 time=0
control_change channel=0 control=64 value=127 time=99
note_on channel=0 note=63 velocity=0 time=0
note_on channel=0 note=58 velocity=38 time=0
note_on channel=0 note=58 velocity=0 time=216
note_on channel=0 note=55 velocity=0 time=24
note_on channel=0 note=51 velocity=0 time=0
note_on channel=0 note=58 velocity=38 time=0
note_on channel=0 note=58 velocity=0 time=216
note_on channel=0 note=58 velocity=34 time=0
control_change channel=0 control=64 value=0 time=15
note_on channel=0 note=58 velocity=0 time=15
note_on channel=0 note=60 velocity=27 time=0
control_change channel=0 control=64 value=127 time=8
note_on channel=0 note=60 velocity=0 time=22
note_on channel=0 note=58 velocity=34 time=0
note_on channel=0 note=58 velocity=0 time=30
note_on channel=0 note=60 velocity=29 time=0
note_on channel=0 note=60 velocity=0 time=30
note_on channel=0 note=58 velocity=33 time=0
note_on channel=0 note=58 velocity=0 time=30
note_on channel=0 note=60 velocity=27 time=0
note_on channel=0 note=60 velocity=0 time=30
note_on channel=0 note=58 velocity=32 time=0
note_on channel=0 note=58 velocity=0 time=20
note_on channel=0 note=57 velocity=27 time=0
note_on channel=0 note=57 velocity=0 time=20
note_on channel=0 note=58 velocity=27 time=0
note_on channel=0 note=58 velocity=0 time=0
note_on channel=0 note=60 velocity=34 time=0
control_change channel=0 control=64 value=0 time=7
note_on channel=0 note=60 velocity=0 time=233
note_on channel=0 note=56 velocity=28 time=0
note_on channel=0 note=56 velocity=0 time=5
note_on channel=0 note=51 velocity=28 time=0
note_on channel=0 note=55 velocity=34 time=0
note_on channel=0 note=46 velocity=31 time=0
note_on channel=0 note=34 velocity=26 time=0
control_change channel=0 control=64 value=0 time=10
note_on channel=0 note=55 velocity=0 time=20
note_on channel=0 note=56 velocity=27 time=0
control_change channel=0 control=64 value=127 time=3
note_on channel=0 note=56 velocity=0 time=27
note_on channel=0 note=55 velocity=34 time=0
note_on channel=0 note=55 velocity=0 time=30
note_on channel=0 note=56 velocity=29 time=0
note_on channel=0 note=56 velocity=0 time=30
note_on channel=0 note=55 velocity=33 time=0
note_on channel=0 note=55 velocity=0 time=30
note_on channel=0 note=56 velocity=27 time=0
note_on channel=0 note=56 velocity=0 time=30
note_on channel=0 note=55 velocity=32 time=0
note_on channel=0 note=55 velocity=0 time=20
note_on channel=0 note=53 velocity=27 time=0
note_on channel=0 note=53 velocity=0 time=20
note_on channel=0 note=55 velocity=27 time=0
note_on channel=0 note=55 velocity=0 time=5
note_on channel=0 note=56 velocity=34 time=0
control_change channel=0 control=64 value=0 time=2
note_on channel=0 note=53 velocity=28 time=233
note_on channel=0 note=56 velocity=0 time=0
note_on channel=0 note=51 velocity=0 time=0
note_on channel=0 note=46 velocity=0 time=0
note_on channel=0 note=44 velocity=22 time=0
note_on channel=0 note=53 velocity=27 time=0
note_on channel=0 note=53 velocity=0 time=235
note_on channel=0 note=34 velocity=0 time=0
note_on channel=0 note=44 velocity=0 time=0
note_on channel=0 note=53 velocity=0 time=0
note_on channel=0 note=51 velocity=28 time=0
note_on channel=0 note=39 velocity=20 time=0
note_on channel=0 note=43 velocity=24 time=0
control_change channel=0 control=64 value=127 time=85
note_on channel=0 note=43 velocity=0 time=0
note_on channel=0 note=39 velocity=0 time=0
note_on channel=0 note=51 velocity=0 time=0
note_on channel=0 note=50 velocity=33 time=0
note_on channel=0 note=53 velocity=39 time=0
note_on channel=0 note=34 velocity=27 time=0
note_on channel=0 note=44 velocity=32 time=0
control_change channel=0 control=64 value=0 time=8
control_change channel=0 control=64 value=127 time=119
note_on channel=0 note=44 velocity=0 time=0
note_on channel=0 note=50 velocity=0 time=0
note_on channel=0 note=53 velocity=0 time=0
note_on channel=0 note=34 velocity=0 time=0
note_on channel=0 note=51 velocity=28 time=0
note_on channel=0 note=39 velocity=22 time=0
note_on channel=0 note=43 velocity=26 time=0
control_change channel=0 control=64 value=0 time=10
control_change channel=0 control=64 value=127 time=146
note_on channel=0 note=43 velocity=0 time=0
note_on channel=0 note=39 velocity=0 time=0
note_on channel=0 note=51 velocity=0 time=0
note_on channel=0 note=50 velocity=34 time=0
note_on channel=0 note=53 velocity=40 time=0
note_on channel=0 note=34 velocity=28 time=0
note_on channel=0 note=44 velocity=34 time=0
control_change channel=0 control=64 value=0 time=12
control_change channel=0 control=64 value=127 time=129
note_on channel=0 note=44 velocity=0 time=0
note_on channel=0 note=50 velocity=0 time=0
note_on channel=0 note=53 velocity=0 time=0
note_on channel=0 note=34 velocity=0 time=0
note_on channel=0 note=51 velocity=28 time=0
note_on channel=0 note=39 velocity=21 time=0
note_on channel=0 note=43 velocity=25 time=0
control_change channel=0 control=64 value=0 time=10
control_change channel=0 control=64 value=127 time=117
note_on channel=0 note=43 velocity=0 time=0
note_on channel=0 note=39 velocity=0 time=0
note_on channel=0 note=51 velocity=0 time=0
note_on channel=0 note=50 velocity=36 time=0
note_on channel=0 note=53 velocity=36 time=0
note_on channel=0 note=58 velocity=43 time=0
note_on channel=0 note=34 velocity=29 time=0
note_on channel=0 note=44 velocity=35 time=0
control_change channel=0 control=64 value=0 time=14
control_change channel=0 control=64 value=127 time=85
note_on channel=0 note=44 velocity=0 time=121
note_on channel=0 note=58 velocity=0 time=0
note_on channel=0 note=50 velocity=0 time=0
note_on channel=0 note=53 velocity=0 time=0
note_on channel=0 note=34 velocity=0 time=0
note_on channel=0 note=50 velocity=23 time=0
note_on channel=0 note=53 velocity=23 time=0
note_on channel=0 note=58 velocity=28 time=0
note_on channel=0 note=39 velocity=21 time=0
note_on channel=0 note=44 velocity=25 time=0
control_change channel=0 control=64 value=0 time=0
control_change channel=0 control=64 value=127 time=156
note_on channel=0 note=39 velocity=0 time=554
note_on channel=0 note=58 velocity=0 time=10
note_on channel=0 note=50 velocity=0 time=0
note_on channel=0 note=53 velocity=0 time=0
note_on channel=0 note=44 velocity=0 time=0
note_on channel=0 note=51 velocity=25 time=0
note_on channel=0 note=39 velocity=19 time=0
note_on channel=0 note=43 velocity=23 time=0
control_change channel=0 control=64 value=0 time=14
control_change channel=0 control=64 value=127 time=127
note_on channel=0 note=43 velocity=0 time=339
note_on channel=0 note=39 velocity=0 time=0
note_on channel=0 note=51 velocity=0 time=0
control_change channel=0 control=64 value=0 time=14
note_on channel=0 note=55 velocity=32 time=0
note_on channel=0 note=55 velocity=0 time=240
note_on channel=0 note=58 velocity=37 time=0
control_change channel=0 control=64 value=127 time=0
note_on channel=0 note=58 velocity=0 time=240
note_on channel=0 note=63 velocity=42 time=0
note_on channel=0 note=63 velocity=0 time=230
note_on channel=0 note=55 velocity=38 time=10
note_on channel=0 note=58 velocity=38 time=0
note_on channel=0 note=63 velocity=38 time=0
note_on channel=0 note=67 velocity=45 time=0
note_on channel=0 note=39 velocity=32 time=0
note_on channel=0 note=39 velocity=0 time=0
note_on channel=0 note=43 velocity=32 time=0
note_on channel=0 note=43 velocity=0 time=0
note_on channel=0 note=46 velocity=32 time=0
note_on channel=0 note=46 velocity=0 time=0
note_on channel=0 note=51 velocity=36 time=0
note_on channel=0 note=63 velocity=0 time=230
note_on channel=0 note=67 velocity=0 time=0
note_on channel=0 note=55 velocity=0 time=0
note_on channel=0 note=58 velocity=0 time=0
note_on channel=0 note=51 velocity=0 time=0
note_on channel=0 note=58 velocity=36 time=0
note_on channel=0 note=63 velocity=36 time=0
note_on channel=0 note=67 velocity=43 time=0
note_on channel=0 note=55 velocity=38 time=0
note_on channel=0 note=67 velocity=0 time=230
note_on channel=0 note=58 velocity=0 time=0
note_on channel=0 note=63 velocity=0 time=0
note_on channel=0 note=55 velocity=0 time=0
note_on channel=0 note=63 velocity=35 time=0
note_on channel=0 note=67 velocity=42 time=0
note_on channel=0 note=58 velocity=40 time=0
note_on channel=0 note=58 velocity=0 time=230
note_on channel=0 note=67 velocity=0 time=0
note_on channel=0 note=63 velocity=0 time=0
note_on channel=0 note=63 velocity=23 time=0
note_on channel=0 note=67 velocity=34 time=0
note_on channel=0 note=46 velocity=36 time=0
note_on channel=0 note=58 velocity=43 time=0
control_change channel=0 control=64 value=0 time=13
note_on channel=0 note=67 velocity=0 time=17
note_on channel=0 note=68 velocity=27 time=0
note_on channel=0 note=68 velocity=0 time=30
note_on channel=0 note=67 velocity=34 time=0
control_change channel=0 control=64 value=127 time=0
note_on channel=0 note=67 velocity=0 time=30
note_on channel=0 note=68 velocity=29 time=0
note_on channel=0 note=68 velocity=0 time=30
note_on channel=0 note=67 velocity=33 time=0
note_on channel=0 note=67 velocity=0 time=30
note_on channel=0 note=68 velocity=27 time=0
note_on channel=0 note=68 velocity=0 time=30
note_on channel=0 note=67 velocity=32 time=0
note_on channel=0 note=67 velocity=0 time=20
note_on channel=0 note=65 velocity=27 time=0
note_on channel=0 note=65 velocity=0 time=20
note_on channel=0 note=67 velocity=27 time=0
note_on channel=0 note=67 velocity=0 time=0
note_on channel=0 note=65 velocity=38 time=0
note_on channel=0 note=68 velocity=45 time=0
control_change channel=0 control=64 value=0 time=10
control_change channel=0 control=64 value=127 time=38
note_on channel=0 note=68 velocity=0 time=0
note_on channel=0 note=63 velocity=0 time=0
note_on channel=0 note=58 velocity=0 time=0
note_on channel=0 note=46 velocity=0 time=0
note_on channel=0 note=65 velocity=0 time=0
note_on channel=0 note=58 velocity=32 time=0
note_on channel=0 note=62 velocity=32 time=0
note_on channel=0 note=65 velocity=38 time=0
note_on channel=0 note=46 velocity=33 time=0
note_on channel=0 note=56 velocity=39 time=0
control_change channel=0 control=64 value=0 time=10
control_change channel=0 control=64 value=127 time=44
note_on channel=0 note=56 velocity=0 time=176
note_on channel=0 note=65 velocity=0 time=0
note_on channel=0 note=58 velocity=0 time=0
note_on channel=0 note=62 velocity=0 time=0
note_on channel=0 note=46 velocity=0 time=0
note_on channel=0 note=58 velocity=28 time=0
note_on channel=0 note=62 velocity=28 time=0
note_on channel=0 note=65 velocity=34 time=0
note_on channel=0 note=51 velocity=32 time=0
note_on channel=0 note=56 velocity=38 time=0
control_change channel=0 control=64 value=0 time=0
control_change channel=0 control=64 value=127 time=254
note_on channel=0 note=56 velocity=0 time=466
note_on channel=0 note=65 velocity=0 time=0
note_on channel=0 note=62 velocity=0 time=0
note_on channel=0 note=63 velocity=32 time=0
note_on channel=0 note=55 velocity=30 time=0
control_change channel=0 control=64 value=0 time=15
note_on channel=0 note=55 velocity=0 time=225
note_on channel=0 note=51 velocity=0 time=0
note_on channel=0 note=58 velocity=0 time=0
note_on channel=0 note=63 velocity=0 time=0
note_on channel=0 note=55 velocity=36 time=0
note_on channel=0 note=58 velocity=43 time=0
note_on channel=0 note=58 velocity=0 time=240
note_on channel=0 note=55 velocity=0 time=0
note_on channel=0 note=58 velocity=40 time=0
note_on channel=0 note=63 velocity=48 time=0
control_change channel=0 control=64 value=127 time=0
note_on channel=0 note=63 velocity=0 time=240
note_on channel=0 note=58 velocity=0 time=0
note_on channel=0 note=63 velocity=45 time=0
note_on channel=0 note=67 velocity=54 time=0
note_on channel=0 note=67 velocity=0 time=230
note_on channel=0 note=63 velocity=0 time=10
note_on channel=0 note=67 velocity=51 time=0
note_on channel=0 note=70 velocity=60 time=0
note_on channel=0 note=39 velocity=37 time=0
note_on channel=0 note=39 velocity=0 time=0
note_on channel=0 note=43 velocity=40 time=0
note_on channel=0 note=43 velocity=0 time=0
note_on channel=0 note=46 velocity=44 time=0
note_on channel=0 note=46 velocity=0 time=0
note_on channel=0 note=51 velocity=49 time=0
note_on channel=0 note=51 velocity=0 time=0
note_on channel=0 note=75 velocity=70 time=0
note_on channel=0 note=55 velocity=53 time=0
note_on channel=0 note=75 velocity=0 time=219
note_on channel=0 note=55 velocity=0 time=0
note_on channel=0 note=75 velocity=64 time=0
note_on channel=0 note=58 velocity=57 time=0
note_on channel=0 note=75 velocity=0 time=219
note_on channel=0 note=58 velocity=0 time=11
note_on channel=0 note=75 velocity=67 time=0
note_on channel=0 note=63 velocity=62 time=0
control_change channel=0 control=64 value=0 time=13
control_change channel=0 control=64 value=127 time=47
note_on channel=0 note=75 velocity=0 time=168
note_on channel=0 note=67 velocity=0 time=0
note_on channel=0 note=70 velocity=0 time=0
note_on channel=0 note=63 velocity=0 time=0
note_on channel=0 note=66 velocity=44 time=0
note_on channel=0 note=69 velocity=44 time=0
note_on channel=0 note=75 velocity=57 time=0
note_on channel=0 note=60 velocity=58 time=0
control_change channel=0 control=64 value=0 time=10
control_change channel=0 control=64 value=127 time=38
note_on channel=0 note=75 velocity=0 time=180
note_on channel=0 note=66 velocity=0 time=0
note_on channel=0 note=69 velocity=0 time=0
note_on channel=0 note=60 velocity=0 time=0
note_on channel=0 note=75 velocity=64 time=0
note_on channel=0 note=66 velocity=50 time=0
note_on channel=0 note=70 velocity=50 time=0
note_on channel=0 note=58 velocity=54 time=0
control_change channel=0 control=64 value=0 time=10
control_change channel=0 control=64 value=127 time=44
note_on channel=0 note=75 velocity=0 time=174
note_on channel=0 note=66 velocity=0 time=2
note_on channel=0 note=70 velocity=0 time=0
note_on channel=0 note=58 velocity=0 time=0
note_on channel=0 note=66 velocity=45 time=0
note_on channel=0 note=72 velocity=45 time=0
note_on channel=0 note=75 velocity=68 time=0
note_on channel=0 note=57 velocity=53 time=0
control_change channel=0 control=64 value=0 time=0
control_change channel=0 control=64 value=127 time=254
note_on channel=0 note=66 velocity=0 time=226
note_on channel=0 note=65 velocity=38 time=0
note_on channel=0 note=65 velocity=0 time=0
note_on channel=0 note=57 velocity=0 time=0
note_on channel=0 note=75 velocity=0 time=0
note_on channel=0 note=72 velocity=0 time=0
note_on channel=0 note=56 velocity=43 time=0
control_change channel=0 control=64 value=0 time=15
control_change channel=0 control=64 value=127 time=155
note_on channel=0 note=66 velocity=34 time=0
note_on channel=0 note=72 velocity=34 time=0
note_on channel=0 note=75 velocity=40 time=0
note_on channel=0 note=66 velocity=0 time=0
note_on channel=0 note=65 velocity=29 time=0
note_on channel=0 note=65 velocity=0 time=0
note_on channel=0 note=75 velocity=0 time=0
note_on channel=0 note=72 velocity=0 time=0
note_on channel=0 note=56 velocity=0 time=0
note_on channel=0 note=58 velocity=40 time=0
control_change channel=0 control=64 value=0 time=3
control_change channel=0 control=64 value=127 time=110
note_on channel=0 note=66 velocity=34 time=0
note_on channel=0 note=70 velocity=34 time=0
note_on channel=0 note=73 velocity=40 time=0
note_on channel=0 note=66 velocity=0 time=0
note_on channel=0 note=65 velocity=27 time=0
note_on channel=0 note=65 velocity=0 time=0
note_on channel=0 note=73 velocity=0 time=0
note_on channel=0 note=70 velocity=0 time=0
note_on channel=0 note=58 velocity=0 time=0
note_on channel=0 note=51 velocity=35 time=0
control_change channel=0 control=64 value=0 time=7
control_change channel=0 control=64 value=127 time=142
note_on channel=0 note=73 velocity=34 time=0
note_on channel=0 note=63 velocity=34 time=0
note_on channel=0 note=66 velocity=40 time=0
note_on channel=0 note=73 velocity=0 time=0
note_on channel=0 note=71 velocity=34 time=0
note_on channel=0 note=71 velocity=0 time=0
note_on channel=0 note=66 velocity=0 time=0
note_on channel=0 note=63 velocity=0 time=0
note_on channel=0 note=51 velocity=0 time=0
note_on channel=0 note=52 velocity=35 time=0
control_change channel=0 control=64 value=0 time=14
control_change channel=0 control=64 value=127 time=135
note_on channel=0 note=71 velocity=34 time=0
note_on channel=0 note=61 velocity=34 time=0
note_on channel=0 note=67 velocity=40 time=0
note_on channel=0 note=71 velocity=0 time=0
note_on channel=0 note=70 velocity=34 time=0
note_on channel=0 note=70 velocity=0 time=0
note_on channel=0 note=67 velocity=0 time=0
note_on channel=0 note=61 velocity=0 time=0
note_on channel=0 note=52 velocity=0 time=0
note_on channel=0 note=53 velocity=35 time=0
control_change channel=0 control=64 value=0 time=15
control_change channel=0 control=64 value=127 time=122
note_on channel=0 note=70 velocity=34 time=0
note_on channel=0 note=60 velocity=34 time=0
note_on channel=0 note=63 velocity=40 time=0
note_on channel=0 note=70 velocity=0 time=0
note_on channel=0 note=69 velocity=34 time=0
note_on channel=0 note=69 velocity=0 time=240
note_on channel=0 note=63 velocity=0 time=0
note_on channel=0 note=60 velocity=0 time=0
note_on channel=0 note=53 velocity=0 time=0
note_on channel=0 note=62 velocity=34 time=0
note_on channel=0 note=70 velocity=34 time=0
note_on channel=0 note=34 velocity=35 time=0
control_change channel=0 control=64 value=0 time=0
control_change channel=0 control=64 value=127 time=113
note_on channel=0 note=46 velocity=29 time=127
note_on channel=0 note=46 velocity=0 time=216
note_on channel=0 note=62 velocity=0 time=24
note_on channel=0 note=70 velocity=0 time=0
note_on channel=0 note=46 velocity=29 time=0
note_on channel=0 note=46 velocity=0 time=216
note_on channel=0 note=46 velocity=32 time=24
control_change channel=0 control=64 value=0 time=21
control_change channel=0 control=64 value=127 time=99
note_on channel=0 note=46 velocity=0 time=96
note_on channel=0 note=46 velocity=29 time=24
note_on channel=0 note=46 velocity=0 time=216
note_on channel=0 note=46 velocity=29 time=0
note_on channel=0 note=46 velocity=0 time=216
note_on channel=0 note=74 velocity=57 time=0
note_on channel=0 note=46 velocity=32 time=0
note_on channel=0 note=46 velocity=0 time=216
note_on channel=0 note=46 velocity=27 time=24
note_on channel=0 note=46 velocity=0 time=216
note_on channel=0 note=74 velocity=0 time=0
note_on channel=0 note=72 velocity=48 time=0
note_on channel=0 note=46 velocity=27 time=0
control_change channel=0 control=64 value=0 time=5
control_change channel=0 control=64 value=127 time=73
note_on channel=0 note=72 velocity=0 time=0
note_on channel=0 note=70 velocity=47 time=0
note_on channel=0 note=46 velocity=0 time=96
note_on channel=0 note=70 velocity=0 time=0
note_on channel=0 note=34 velocity=0 time=0
note_on channel=0 note=60 velocity=30 time=0
note_on channel=0 note=63 velocity=35 time=0
note_on channel=0 note=70 velocity=54 time=0
note_on channel=0 note=46 velocity=32 time=0
control_change channel=0 control=64 value=0 time=6
control_change channel=0 control=64 value=127 time=74
note_on channel=0 note=46 velocity=0 time=136
note_on channel=0 note=70 velocity=0 time=24
note_on channel=0 note=69 velocity=47 time=0
note_on channel=0 note=46 velocity=28 time=0
control_change channel=0 control=64 value=0 time=10
control_change channel=0 control=64 value=127 time=53
note_on channel=0 note=46 velocity=0 time=153
note_on channel=0 note=63 velocity=0 time=14
note_on channel=0 note=69 velocity=0 time=0
note_on channel=0 note=60 velocity=0 time=0
note_on channel=0 note=58 velocity=43 time=0
note_on channel=0 note=63 velocity=37 time=0
note_on channel=0 note=67 velocity=51 time=0
note_on channel=0 note=46 velocity=28 time=0
control_change channel=0 control=64 value=0 time=19
control_change channel=0 control=64 value=127 time=61
note_on channel=0 note=67 velocity=0 time=0
note_on channel=0 note=58 velocity=0 time=0
note_on channel=0 note=57 velocity=36 time=0
note_on channel=0 note=65 velocity=43 time=0
control_change channel=0 control=64 value=0 time=10
note_on channel=0 note=46 velocity=0 time=86
note_on channel=0 note=63 velocity=0 time=14
note_on channel=0 note=57 velocity=0 time=0
note_on channel=0 note=65 velocity=0 time=0
note_on channel=0 note=57 velocity=48 time=0
note_on channel=0 note=63 velocity=35 time=0
note_on channel=0 note=65 velocity=50 time=0
note_on channel=0 note=46 velocity=32 time=0
control_change channel=0 control=64 value=127 time=75
note_on channel=0 note=46 velocity=0 time=141
note_on channel=0 note=46 velocity=28 time=24
note_on channel=0 note=46 velocity=0 time=216
note_on channel=0 note=57 velocity=0 time=0
note_on channel=0 note=55 velocity=45 time=0
note_on channel=0 note=46 velocity=28 time=0
control_change channel=0 control=64 value=0 time=7
control_change channel=0 control=64 value=127 time=56
note_on channel=0 note=55 velocity=0 time=0
note_on channel=0 note=53 velocity=38 time=0
note_on channel=0 note=46 velocity=0 time=96
note_on channel=0 note=53 velocity=0 time=14
note_on channel=0 note=53 velocity=51 time=0
note_on channel=0 note=46 velocity=32 time=0
control_change channel=0 control=64 value=0 time=17
control_change channel=0 control=64 value=127 time=80
note_on channel=0 note=46 velocity=0 time=119
note_on channel=0 note=65 velocity=0 time=24
note_on channel=0 note=67 velocity=44 time=0
note_on channel=0 note=46 velocity=28 time=0
control_change channel=0 control=64 value=0 time=15
note_on channel=0 note=53 velocity=0 time=105
note_on channel=0 note=51 velocity=38 time=0
note_on channel=0 note=46 velocity=0 time=96
note_on channel=0 note=51 velocity=0 time=24
note_on channel=0 note=67 velocity=0 time=0
note_on channel=0 note=50 velocity=38 time=0
note_on channel=0 note=69 velocity=46 time=0
note_on channel=0 note=46 velocity=28 time=0
note_on channel=0 note=50 velocity=0 time=0
note_on channel=0 note=51 velocity=38 time=0
note_on channel=0 note=46 velocity=0 time=96
note_on channel=0 note=63 velocity=0 time=0
note_on channel=0 note=69 velocity=0 time=0
note_on channel=0 note=51 velocity=0 time=0
note_on channel=0 note=70 velocity=51 time=0
note_on channel=0 note=50 velocity=51 time=0
note_on channel=0 note=46 velocity=32 time=0
control_change channel=0 control=64 value=127 time=26
note_on channel=0 note=70 velocity=0 time=94
note_on channel=0 note=72 velocity=44 time=0
note_on channel=0 note=72 velocity=0 time=40
note_on channel=0 note=70 velocity=38 time=0
note_on channel=0 note=70 velocity=0 time=40
note_on channel=0 note=69 velocity=38 time=0
note_on channel=0 note=46 velocity=0 time=16
note_on channel=0 note=69 velocity=0 time=24
note_on channel=0 note=70 velocity=51 time=0
note_on channel=0 note=46 velocity=28 time=0
control_change channel=0 control=64 value=0 time=10
control_change channel=0 control=64 value=127 time=45
note_on channel=0 note=70 velocity=0 time=65
note_on channel=0 note=72 velocity=47 time=0
note_on channel=0 note=46 velocity=0 time=96
note_on channel=0 note=72 velocity=0 time=24
note_on channel=0 note=50 velocity=0 time=0
note_on channel=0 note=74 velocity=49 time=0
note_on channel=0 note=46 velocity=28 time=0
control_change channel=0 control=64 value=0 time=11
control_change channel=0 control=64 value=127 time=32
note_on channel=0 note=74 velocity=0 time=0
note_on channel=0 note=75 velocity=50 time=0
note_on channel=0 note=75 velocity=0 time=90
note_on channel=0 note=74 velocity=48 time=0
note_on channel=0 note=46 velocity=0 time=6
note_on channel=0 note=74 velocity=0 time=0
note_on channel=0 note=77 velocity=57 time=0
note_on channel=0 note=46 velocity=32 time=0
control_change channel=0 control=64 value=0 time=14
control_change channel=0 control=64 value=127 time=55
note_on channel=0 note=46 velocity=0 time=147
note_on channel=0 note=46 velocity=28 time=24
note_on channel=0 note=46 velocity=0 time=216
note_on channel=0 note=46 velocity=28 time=24
note_on channel=0 note=46 velocity=0 time=216
note_on channel=0 note=77 velocity=0 time=24
note_on channel=0 note=76 velocity=47 time=0
note_on channel=0 note=46 velocity=32 time=0
control_change channel=0 control=64 value=0 time=5
control_change channel=0 control=64 value=127 time=30
note_on channel=0 note=76 velocity=0 time=85
note_on channel=0 note=77 velocity=52 time=0
note_on channel=0 note=46 velocity=0 time=96
note_on channel=0 note=77 velocity=0 time=24
note_on channel=0 note=79 velocity=53 time=0
note_on channel=0 note=46 velocity=28 time=0
control_change channel=0 control=64 value=0 time=18
control_change channel=0 control=64 value=127 time=45
note_on channel=0 note=79 velocity=0 time=57
note_on channel=0 note=77 velocity=51 time=0
note_on channel=0 note=46 velocity=0 time=96
note_on channel=0 note=77 velocity=0 time=24
note_on channel=0 note=75 velocity=53 time=0
note_on channel=0 note=46 velocity=28 time=0
control_change channel=0 control=64 value=0 time=8
control_change channel=0 control=64 value=127 time=44
note_on channel=0 note=75 velocity=0 time=0
note_on channel=0 note=74 velocity=51 time=0
note_on channel=0 note=46 velocity=0 time=96
note_on channel=0 note=74 velocity=0 time=14
note_on channel=0 note=63 velocity=30 time=0
note_on channel=0 note=67 velocity=35 time=0
note_on channel=0 note=74 velocity=57 time=0
note_on channel=0 note=46 velocity=32 time=0
control_change channel=0 control=64 value=0 time=20
control_change channel=0 control=64 value=127 time=49
note_on channel=0 note=46 velocity=0 time=147
note_on channel=0 note=74 velocity=0 time=24
note_on channel=0 note=72 velocity=47 time=0
note_on channel=0 note=46 velocity=28 time=0
control_change channel=0 control=64 value=0 time=14
control_change channel=0 control=64 value=127 time=66
note_on channel=0 note=46 velocity=0 time=136
note_on channel=0 note=67 velocity=0 time=14
note_on channel=0 note=72 velocity=0 time=0
note_on channel=0 note=63 velocity=0 time=0
note_on channel=0 note=62 velocity=36 time=0
note_on channel=0 note=70 velocity=51 time=0
note_on channel=0 note=65 velocity=43 time=0
note_on channel=0 note=46 velocity=28 time=0
control_change channel=0 control=64 value=0 time=25
note_on channel=0 note=65 velocity=0 time=0
note_on channel=0 note=62 velocity=0 time=0
note_on channel=0 note=70 velocity=0 time=0
note_on channel=0 note=60 velocity=30 time=0
note_on channel=0 note=69 velocity=43 time=0
note_on channel=0 note=63 velocity=36 time=0
note_on channel=0 note=46 velocity=0 time=96
note_on channel=0 note=60 velocity=0 time=14
note_on channel=0 note=69 velocity=0 time=0
note_on channel=0 note=63 velocity=0 time=0
note_on channel=0 note=60 velocity=40 time=0
note_on channel=0 note=69 velocity=50 time=0
note_on channel=0 note=63 velocity=35 time=0
note_on channel=0 note=46 velocity=32 time=0
control_change channel=0 control=64 value=127 time=80
note_on channel=0 note=46 velocity=0 time=136
note_on channel=0 note=46 velocity=28 time=24
note_on channel=0 note=46 velocity=0 time=216
note_on channel=0 note=63 velocity=0 time=14
note_on channel=0 note=69 velocity=0 time=0
note_on channel=0 note=60 velocity=0 time=0
note_on channel=0 note=63 velocity=35 time=0
note_on channel=0 note=58 velocity=45 time=0
note_on channel=0 note=67 velocity=51 time=0
note_on channel=0 note=46 velocity=28 time=0
control_change channel=0 control=64 value=0 time=20
note_on channel=0 note=67 velocity=0 time=0
note_on channel=0 note=58 velocity=0 time=0
note_on channel=0 note=65 velocity=43 time=0
note_on channel=0 note=57 velocity=38 time=0
note_on channel=0 note=46 velocity=0 time=96
note_on channel=0 note=63 velocity=0 time=14
note_on channel=0 note=57 velocity=0 time=0
note_on channel=0 note=65 velocity=0 time=0
note_on channel=0 note=63 velocity=35 time=0
note_on channel=0 note=65 velocity=54 time=0
note_on channel=0 note=57 velocity=51 time=0
note_on channel=0 note=46 velocity=32 time=0
note_on channel=0 note=57 velocity=0 time=120
note_on channel=0 note=55 velocity=38 time=0
note_on channel=0 note=46 velocity=0 time=96
note_on channel=0 note=55 velocity=0 time=24
note_on channel=0 note=65 velocity=0 time=0
note_on channel=0 note=53 velocity=38 time=0
note_on channel=0 note=67 velocity=44 time=0
note_on channel=0 note=46 velocity=28 time=0
note_on channel=0 note=53 velocity=0 time=120
note_on channel=0 note=51 velocity=38 time=0
note_on channel=0 note=46 velocity=0 time=96
note_on channel=0 note=51 velocity=0 time=24
note_on channel=0 note=67 velocity=0 time=0
note_on channel=0 note=50 velocity=38 time=0
note_on channel=0 note=69 velocity=46 time=0
note_on channel=0 note=46 velocity=28 time=0
note_on channel=0 note=50 velocity=0 time=0
note_on channel=0 note=48 velocity=38 time=0
note_on channel=0 note=46 velocity=0 time=96
note_on channel=0 note=63 velocity=0 time=0
note_on channel=0 note=69 velocity=0 time=0
note_on channel=0 note=48 velocity=0 time=0
note_on channel=0 note=62 velocity=54 time=0
note_on channel=0 note=70 velocity=54 time=0
note_on channel=0 note=46 velocity=32 time=0
control_change channel=0 control=64 value=127 time=115
note_on channel=0 note=70 velocity=0 time=0
note_on channel=0 note=62 velocity=0 time=0
note_on channel=0 note=73 velocity=40 time=0
note_on channel=0 note=73 velocity=0 time=240
note_on channel=0 note=46 velocity=0 time=0
note_on channel=0 note=74 velocity=44 time=0
control_change channel=0 control=64 value=0 time=15
note_on channel=0 note=74 velocity=0 time=0
note_on channel=0 note=58 velocity=28 time=0
note_on channel=0 note=53 velocity=23 time=0
note_on channel=0 note=50 velocity=23 time=0
control_change channel=0 control=64 value=127 time=115
note_on channel=0 note=76 velocity=41 time=0
note_on channel=0 note=76 velocity=0 time=240
note_on channel=0 note=58 velocity=0 time=0
note_on channel=0 note=53 velocity=0 time=0
note_on channel=0 note=50 velocity=0 time=0
note_on channel=0 note=77 velocity=44 time=0
control_change channel=0 control=64 value=0 time=15
note_on channel=0 note=77 velocity=0 time=0
note_on channel=0 note=62 velocity=23 time=0
note_on channel=0 note=65 velocity=23 time=0
note_on channel=0 note=70 velocity=28 time=0
control_change channel=0 control=64 value=127 time=103
note_on channel=0 note=81 velocity=40 time=0
note_on channel=0 note=81 velocity=0 time=240
note_on channel=0 note=62 velocity=0 time=0
note_on channel=0 note=65 velocity=0 time=0
note_on channel=0 note=70 velocity=0 time=0
note_on channel=0 note=82 velocity=44 time=0
control_change channel=0 control=64 value=0 time=17
note_on channel=0 note=82 velocity=0 time=0
note_on channel=0 note=63 velocity=23 time=0
note_on channel=0 note=67 velocity=23 time=0
note_on channel=0 note=70 velocity=28 time=0
control_change channel=0 control=64 value=127 time=46
note_on channel=0 note=78 velocity=41 time=0
note_on channel=0 note=78 velocity=0 time=240
note_on channel=0 note=63 velocity=0 time=0
note_on channel=0 note=67 velocity=0 time=0
note_on channel=0 note=70 velocity=0 time=0
note_on channel=0 note=79 velocity=44 time=0
control_change channel=0 control=64 value=0 time=18
note_on channel=0 note=79 velocity=0 time=0
note_on channel=0 note=63 velocity=28 time=0
note_on channel=0 note=58 velocity=23 time=0
note_on channel=0 note=55 velocity=23 time=0
control_change channel=0 control=64 value=127 time=149
note_on channel=0 note=74 velocity=40 time=0
note_on channel=0 note=74 velocity=0 time=240
note_on channel=0 note=63 velocity=0 time=0
note_on channel=0 note=58 velocity=0 time=0
note_on channel=0 note=55 velocity=0 time=0
note_on channel=0 note=75 velocity=42 time=0
control_change channel=0 control=64 value=0 time=17
note_on channel=0 note=75 velocity=0 time=0
note_on channel=0 note=52 velocity=23 time=0
note_on channel=0 note=60 velocity=28 time=0
note_on channel=0 note=58 velocity=23 time=0
control_change channel=0 control=64 value=127 time=206
note_on channel=0 note=71 velocity=38 time=0
note_on channel=0 note=71 velocity=0 time=240
note_on channel=0 note=52 velocity=0 time=0
note_on channel=0 note=60 velocity=0 time=0
note_on channel=0 note=58 velocity=0 time=0
note_on channel=0 note=72 velocity=42 time=0
control_change channel=0 control=64 value=0 time=14
note_on channel=0 note=72 velocity=0 time=0
note_on channel=0 note=53 velocity=35 time=0
control_change channel=0 control=64 value=127 time=29
note_on channel=0 note=77 velocity=59 time=211
note_on channel=0 note=62 velocity=29 time=0
note_on channel=0 note=58 velocity=24 time=0
note_on channel=0 note=58 velocity=0 time=240
note_on channel=0 note=62 velocity=0 time=0
note_on channel=0 note=62 velocity=31 time=0
note_on channel=0 note=58 velocity=25 time=0
note_on channel=0 note=58 velocity=0 time=4
note_on channel=0 note=62 velocity=0 time=0
note_on channel=0 note=58 velocity=32 time=0
note_on channel=0 note=62 velocity=39 time=0
control_change channel=0 control=64 value=0 time=29
control_change channel=0 control=64 value=127 time=34
note_on channel=0 note=77 velocity=0 time=47
note_on channel=0 note=79 velocity=60 time=0
note_on channel=0 note=79 velocity=0 time=49
note_on channel=0 note=81 velocity=62 time=0
note_on channel=0 note=81 velocity=0 time=33
note_on channel=0 note=62 velocity=0 time=0
note_on channel=0 note=58 velocity=0 time=0
note_on channel=0 note=82 velocity=64 time=0
note_on channel=0 note=58 velocity=35 time=0
note_on channel=0 note=62 velocity=42 time=0
note_on channel=0 note=82 velocity=0 time=35
note_on channel=0 note=84 velocity=66 time=0
note_on channel=0 note=84 velocity=0 time=18
note_on channel=0 note=86 velocity=68 time=0
note_on channel=0 note=86 velocity=0 time=21
note_on channel=0 note=87 velocity=70 time=0
note_on channel=0 note=87 velocity=0 time=0
note_on channel=0 note=62 velocity=0 time=0
note_on channel=0 note=58 velocity=0 time=0
note_on channel=0 note=89 velocity=72 time=0
note_on channel=0 note=58 velocity=39 time=0
note_on channel=0 note=62 velocity=46 time=0
note_on channel=0 note=53 velocity=0 time=230
note_on channel=0 note=62 velocity=0 time=10
note_on channel=0 note=58 velocity=0 time=0
note_on channel=0 note=53 velocity=37 time=0
note_on channel=0 note=63 velocity=44 time=0
note_on channel=0 note=57 velocity=37 time=0
control_change channel=0 control=64 value=0 time=11
control_change channel=0 control=64 value=127 time=58
note_on channel=0 note=57 velocity=0 time=0
note_on channel=0 note=63 velocity=0 time=0
note_on channel=0 note=89 velocity=0 time=0
note_on channel=0 note=87 velocity=70 time=0
note_on channel=0 note=57 velocity=33 time=0
note_on channel=0 note=63 velocity=39 time=0
note_on channel=0 note=63 velocity=0 time=0
note_on channel=0 note=57 velocity=0 time=0
note_on channel=0 note=87 velocity=0 time=0
note_on channel=0 note=84 velocity=66 time=0
note_on channel=0 note=57 velocity=32 time=0
note_on channel=0 note=63 velocity=38 time=0
note_on channel=0 note=63 velocity=0 time=0
note_on channel=0 note=53 velocity=0 time=0
note_on channel=0 note=84 velocity=0 time=0
note_on channel=0 note=57 velocity=0 time=0
note_on channel=0 note=82 velocity=58 time=0
note_on channel=0 note=62 velocity=40 time=0
note_on channel=0 note=58 velocity=38 time=0
control_change channel=0 control=64 value=0 time=0
note_on channel=0 note=82 velocity=0 time=300
note_on channel=0 note=81 velocity=50 time=0
note_on channel=0 note=81 velocity=0 time=60
note_on channel=0 note=86 velocity=57 time=0
note_on channel=0 note=84 velocity=54 time=21
note_on channel=0 note=86 velocity=0 time=6
note_on channel=0 note=62 velocity=0 time=4
note_on channel=0 note=58 velocity=0 time=0
note_on channel=0 note=82 velocity=53 time=0
note_on channel=0 note=84 velocity=0 time=6
note_on channel=0 note=81 velocity=51 time=6
note_on channel=0 note=82 velocity=0 time=6
note_on channel=0 note=79 velocity=49 time=9
note_on channel=0 note=81 velocity=0 time=6
note_on channel=0 note=77 velocity=47 time=11
note_on channel=0 note=79 velocity=0 time=6
note_on channel=0 note=76 velocity=53 time=13
note_on channel=0 note=77 velocity=0 time=6
note_on channel=0 note=77 velocity=51 time=16
note_on channel=0 note=76 velocity=0 time=6
note_on channel=0 note=82 velocity=59 time=18
note_on channel=0 note=77 velocity=0 time=5
note_on channel=0 note=81 velocity=54 time=1
note_on channel=0 note=82 velocity=0 time=6
note_on channel=0 note=79 velocity=54 time=4
note_on channel=0 note=81 velocity=0 time=6
note_on channel=0 note=77 velocity=52 time=6
note_on channel=0 note=79 velocity=0 time=6
note_on channel=0 note=75 velocity=50 time=9
note_on channel=0 note=77 velocity=0 time=6
note_on channel=0 note=74 velocity=50 time=11
note_on channel=0 note=75 velocity=0 time=6
note_on channel=0 note=73 velocity=52 time=13
note_on channel=0 note=74 velocity=0 time=6
note_on channel=0 note=74 velocity=46 time=16
note_on channel=0 note=73 velocity=0 time=6
note_on channel=0 note=79 velocity=56 time=18
note_on channel=0 note=74 velocity=0 time=6
note_on channel=0 note=77 velocity=55 time=21
note_on channel=0 note=79 velocity=0 time=6
note_on channel=0 note=75 velocity=54 time=23
note_on channel=0 note=77 velocity=0 time=6
note_on channel=0 note=74 velocity=52 time=25
note_on channel=0 note=75 velocity=0 time=6
note_on channel=0 note=72 velocity=50 time=28
note_on channel=0 note=74 velocity=0 time=6
note_on channel=0 note=70 velocity=48 time=49
note_on channel=0 note=72 velocity=0 time=6
note_on channel=0 note=69 velocity=46 time=52
note_on channel=0 note=70 velocity=0 time=0
note_on channel=0 note=70 velocity=45 time=54
note_on channel=0 note=69 velocity=0 time=3
note_on channel=0 note=75 velocity=52 time=18
note_on channel=0 note=70 velocity=0 time=6
note_on channel=0 note=74 velocity=51 time=21
note_on channel=0 note=75 velocity=0 time=6
note_on channel=0 note=72 velocity=49 time=23
note_on channel=0 note=74 velocity=0 time=6
note_on channel=0 note=70 velocity=47 time=6
note_on channel=0 note=72 velocity=0 time=6
note_on channel=0 note=69 velocity=44 time=28
note_on channel=0 note=70 velocity=0 time=6
note_on channel=0 note=67 velocity=42 time=11
note_on channel=0 note=69 velocity=0 time=6
note_on channel=0 note=64 velocity=39 time=13
note_on channel=0 note=41 velocity=35 time=0
note_on channel=0 note=67 velocity=0 time=6
control_change channel=0 control=64 value=127 time=22
note_on channel=0 note=64 velocity=0 time=32
note_on channel=0 note=65 velocity=39 time=0
note_on channel=0 note=65 velocity=0 time=60
note_on channel=0 note=66 velocity=40 time=0
note_on channel=0 note=66 velocity=0 time=40
note_on channel=0 note=67 velocity=41 time=0
note_on channel=0 note=67 velocity=0 time=60
note_on channel=0 note=68 velocity=42 time=0
note_on channel=0 note=50 velocity=29 time=0
note_on channel=0 note=46 velocity=24 time=0
note_on channel=0 note=68 velocity=0 time=6
note_on channel=0 note=69 velocity=42 time=0
note_on channel=0 note=69 velocity=0 time=60
note_on channel=0 note=70 velocity=43 time=0
note_on channel=0 note=70 velocity=0 time=60
note_on channel=0 note=71 velocity=44 time=0
note_on channel=0 note=71 velocity=0 time=33
note_on channel=0 note=46 velocity=0 time=0
note_on channel=0 note=50 velocity=0 time=0
note_on channel=0 note=72 velocity=45 time=0
note_on channel=0 note=50 velocity=30 time=0
note_on channel=0 note=46 velocity=25 time=0
note_on channel=0 note=72 velocity=0 time=60
note_on channel=0 note=73 velocity=45 time=0
note_on channel=0 note=73 velocity=0 time=60
note_on channel=0 note=74 velocity=46 time=0
note_on channel=0 note=74 velocity=0 time=59
note_on channel=0 note=75 velocity=47 time=0
note_on channel=0 note=75 velocity=0 time=60
note_on channel=0 note=46 velocity=0 time=0
note_on channel=0 note=50 velocity=0 time=0
note_on channel=0 note=76 velocity=49 time=0
note_on channel=0 note=46 velocity=31 time=0
note_on channel=0 note=50 velocity=38 time=0
control_change channel=0 control=64 value=0 time=9
control_change channel=0 control=64 value=127 time=22
note_on channel=0 note=76 velocity=0 time=25
note_on channel=0 note=77 velocity=50 time=0
note_on channel=0 note=77 velocity=0 time=60
note_on channel=0 note=78 velocity=52 time=0
note_on channel=0 note=78 velocity=0 time=60
note_on channel=0 note=79 velocity=54 time=0
note_on channel=0 note=79 velocity=0 time=52
note_on channel=0 note=50 velocity=0 time=0
note_on channel=0 note=46 velocity=0 time=0
note_on channel=0 note=80 velocity=56 time=0
note_on channel=0 note=46 velocity=34 time=0
note_on channel=0 note=50 velocity=41 time=0
note_on channel=0 note=80 velocity=0 time=60
note_on channel=0 note=81 velocity=58 time=0
note_on channel=0 note=81 velocity=0 time=18
note_on channel=0 note=82 velocity=60 time=0
note_on channel=0 note=82 velocity=0 time=60
note_on channel=0 note=83 velocity=61 time=0
note_on channel=0 note=83 velocity=0 time=4
note_on channel=0 note=50 velocity=0 time=0
note_on channel=0 note=46 velocity=0 time=0
note_on channel=0 note=84 velocity=64 time=0
note_on channel=0 note=46 velocity=38 time=0
note_on channel=0 note=50 velocity=45 time=0
note_on channel=0 note=84 velocity=0 time=13
note_on channel=0 note=85 velocity=65 time=0
note_on channel=0 note=85 velocity=0 time=23
note_on channel=0 note=86 velocity=67 time=0
note_on channel=0 note=86 velocity=0 time=33
note_on channel=0 note=87 velocity=69 time=0
note_on channel=0 note=87 velocity=0 time=12
note_on channel=0 note=88 velocity=70 time=0
note_on channel=0 note=41 velocity=0 time=38
note_on channel=0 note=50 velocity=0 time=0
note_on channel=0 note=46 velocity=0 time=0
note_on channel=0 note=88 velocity=0 time=0
note_on channel=0 note=89 velocity=80 time=0
note_on channel=0 note=41 velocity=45 time=0
note_on channel=0 note=51 velocity=54 time=0
note_on channel=0 note=45 velocity=45 time=0
control_change channel=0 control=64 value=0 time=9
control_change channel=0 control=64 value=127 time=25
note_on channel=0 note=45 velocity=0 time=0
note_on channel=0 note=51 velocity=0 time=0
note_on channel=0 note=48 velocity=33 time=0
note_on channel=0 note=51 velocity=39 time=0
note_on channel=0 note=89 velocity=0 time=60
note_on channel=0 note=87 velocity=69 time=0
note_on channel=0 note=87 velocity=0 time=60
note_on channel=0 note=84 velocity=66 time=0
note_on channel=0 note=84 velocity=0 time=60
note_on channel=0 note=81 velocity=63 time=0
note_on channel=0 note=81 velocity=0 time=0
note_on channel=0 note=51 velocity=0 time=0
note_on channel=0 note=48 velocity=0 time=0
note_on channel=0 note=77 velocity=60 time=0
note_on channel=0 note=48 velocity=32 time=0
note_on channel=0 note=51 velocity=38 time=0
note_on channel=0 note=77 velocity=0 time=60
note_on channel=0 note=75 velocity=57 time=0
note_on channel=0 note=75 velocity=0 time=60
note_on channel=0 note=72 velocity=54 time=0
note_on channel=0 note=72 velocity=0 time=60
note_on channel=0 note=69 velocity=51 time=0
note_on channel=0 note=69 velocity=0 time=0
note_on channel=0 note=51 velocity=0 time=0
note_on channel=0 note=48 velocity=0 time=0
note_on channel=0 note=41 velocity=0 time=0
note_on channel=0 note=70 velocity=56 time=0
note_on channel=0 note=46 velocity=44 time=0
control_change channel=0 control=64 value=0 time=0
control_change channel=0 control=64 value=127 time=103
note_on channel=0 note=46 velocity=0 time=137
note_on channel=0 note=50 velocity=39 time=0
note_on channel=0 note=50 velocity=0 time=240
note_on channel=0 note=70 velocity=0 time=0
note_on channel=0 note=53 velocity=39 time=0
control_change channel=0 control=64 value=0 time=9
control_change channel=0 control=64 value=127 time=57
note_on channel=0 note=53 velocity=0 time=174
note_on channel=0 note=58 velocity=44 time=0
note_on channel=0 note=58 velocity=0 time=240
note_on channel=0 note=62 velocity=38 time=0
note_on channel=0 note=62 velocity=0 time=0
note_on channel=0 note=70 velocity=56 time=0
note_on channel=0 note=73 velocity=67 time=0
note_on channel=0 note=64 velocity=38 time=0
control_change channel=0 control=64 value=0 time=6
control_change channel=0 control=64 value=127 time=54
note_on channel=0 note=64 velocity=0 time=0
note_on channel=0 note=65 velocity=44 time=0
control_change channel=0 control=64 value=0 time=7
note_on channel=0 note=73 velocity=0 time=0
note_on channel=0 note=74 velocity=54 time=0
note_on channel=0 note=74 velocity=0 time=0
note_on channel=0 note=65 velocity=0 time=0
note_on channel=0 note=70 velocity=0 time=0
note_on channel=0 note=69 velocity=50 time=0
note_on channel=0 note=75 velocity=59 time=0
note_on channel=0 note=60 velocity=44 time=0
note_on channel=0 note=53 velocity=37 time=0
control_change channel=0 control=64 value=127 time=37
note_on channel=0 note=60 velocity=0 time=143
note_on channel=0 note=75 velocity=0 time=0
note_on channel=0 note=72 velocity=53 time=0
note_on channel=0 note=63 velocity=40 time=0
note_on channel=0 note=63 velocity=0 time=0
note_on channel=0 note=53 velocity=0 time=0
note_on channel=0 note=69 velocity=0 time=0
note_on channel=0 note=72 velocity=0 time=0
note_on channel=0 note=62 velocity=46 time=0
note_on channel=0 note=70 velocity=56 time=0
note_on channel=0 note=34 velocity=44 time=0
control_change channel=0 control=64 value=0 time=0
control_change channel=0 control=64 value=127 time=103
note_on channel=0 note=34 velocity=0 time=137
note_on channel=0 note=38 velocity=39 time=0
note_on channel=0 note=38 velocity=0 time=240
note_on channel=0 note=70 velocity=0 time=0
note_on channel=0 note=62 velocity=0 time=0
note_on channel=0 note=41 velocity=39 time=0
control_change channel=0 control=64 value=0 time=9
control_change channel=0 control=64 value=127 time=57
note_on channel=0 note=41 velocity=0 time=174
note_on channel=0 note=46 velocity=44 time=0
note_on channel=0 note=46 velocity=0 time=240
note_on channel=0 note=50 velocity=38 time=0
note_on channel=0 note=50 velocity=0 time=0
note_on channel=0 note=61 velocity=60 time=0
note_on channel=0 note=58 velocity=50 time=0
note_on channel=0 note=52 velocity=34 time=0
control_change channel=0 control=64 value=0 time=6
control_change channel=0 control=64 value=127 time=54
note_on channel=0 note=52 velocity=0 time=0
note_on channel=0 note=53 velocity=39 time=0
control_change channel=0 control=64 value=0 time=7
note_on channel=0 note=61 velocity=0 time=0
note_on channel=0 note=62 velocity=48 time=0
note_on channel=0 note=62 velocity=0 time=0
note_on channel=0 note=53 velocity=0 time=0
note_on channel=0 note=58 velocity=0 time=0
note_on channel=0 note=63 velocity=53 time=0
note_on channel=0 note=57 velocity=45 time=0
note_on channel=0 note=48 velocity=39 time=0
note_on channel=0 note=41 velocity=33 time=0
control_change channel=0 control=64 value=127 time=37
note_on channel=0 note=48 velocity=0 time=0
note_on channel=0 note=63 velocity=0 time=0
note_on channel=0 note=60 velocity=43 time=0
note_on channel=0 note=51 velocity=36 time=0
note_on channel=0 note=51 velocity=0 time=0
note_on channel=0 note=41 velocity=0 time=0
note_on channel=0 note=57 velocity=0 time=0
note_on channel=0 note=60 velocity=0 time=0
note_on channel=0 note=58 velocity=48 time=0
note_on channel=0 note=46 velocity=34 time=0
note_on channel=0 note=50 velocity=40 time=0
control_change channel=0 control=64 value=0 time=21
note_on channel=0 note=50 velocity=0 time=0
note_on channel=0 note=46 velocity=0 time=0
note_on channel=0 note=58 velocity=0 time=0
note_on channel=0 note=57 velocity=43 time=0
note_on channel=0 note=63 velocity=51 time=0
note_on channel=0 note=41 velocity=33 time=0
note_on channel=0 note=48 velocity=39 time=0
control_change channel=0 control=64 value=127 time=132
note_on channel=0 note=48 velocity=0 time=228
note_on channel=0 note=63 velocity=0 time=0
note_on channel=0 note=60 velocity=44 time=0
note_on channel=0 note=51 velocity=34 time=0
note_on channel=0 note=51 velocity=0 time=0
note_on channel=0 note=57 velocity=0 time=0
note_on channel=0 note=41 velocity=0 time=0
note_on channel=0 note=60 velocity=0 time=0
note_on channel=0 note=58 velocity=48 time=0
note_on channel=0 note=46 velocity=34 time=0
note_on channel=0 note=50 velocity=40 time=0
control_change channel=0 control=64 value=0 time=18
note_on channel=0 note=50 velocity=0 time=0
note_on channel=0 note=46 velocity=0 time=0
note_on channel=0 note=58 velocity=0 time=0
note_on channel=0 note=57 velocity=43 time=0
note_on channel=0 note=63 velocity=51 time=0
note_on channel=0 note=41 velocity=33 time=0
note_on channel=0 note=48 velocity=39 time=0
control_change channel=0 control=64 value=127 time=109
note_on channel=0 note=48 velocity=0 time=251
note_on channel=0 note=63 velocity=0 time=0
note_on channel=0 note=60 velocity=44 time=0
note_on channel=0 note=51 velocity=34 time=0
note_on channel=0 note=51 velocity=0 time=0
note_on channel=0 note=57 velocity=0 time=0
note_on channel=0 note=41 velocity=0 time=0
note_on channel=0 note=60 velocity=0 time=0
note_on channel=0 note=58 velocity=48 time=0
note_on channel=0 note=46 velocity=34 time=0
note_on channel=0 note=50 velocity=40 time=0
control_change channel=0 control=64 value=0 time=19
note_on channel=0 note=50 velocity=0 time=0
note_on channel=0 note=46 velocity=0 time=0
note_on channel=0 note=58 velocity=0 time=0
note_on channel=0 note=63 velocity=59 time=0
note_on channel=0 note=57 velocity=50 time=0
note_on channel=0 note=41 velocity=38 time=0
note_on channel=0 note=48 velocity=45 time=0
control_change channel=0 control=64 value=127 time=86
note_on channel=0 note=48 velocity=0 time=34
note_on channel=0 note=63 velocity=0 time=0
note_on channel=0 note=62 velocity=55 time=0
note_on channel=0 note=47 velocity=42 time=0
note_on channel=0 note=47 velocity=0 time=0
note_on channel=0 note=57 velocity=0 time=0
note_on channel=0 note=41 velocity=0 time=0
note_on channel=0 note=62 velocity=0 time=0
note_on channel=0 note=63 velocity=69 time=0
note_on channel=0 note=57 velocity=51 time=0
note_on channel=0 note=41 velocity=39 time=0
note_on channel=0 note=48 velocity=52 time=0
control_change channel=0 control=64 value=0 time=15
control_change channel=0 control=64 value=127 time=42
note_on channel=0 note=48 velocity=0 time=0
note_on channel=0 note=63 velocity=0 time=0
note_on channel=0 note=60 velocity=62 time=0
note_on channel=0 note=51 velocity=48 time=0
note_on channel=0 note=51 velocity=0 time=0
note_on channel=0 note=57 velocity=0 time=0
note_on channel=0 note=41 velocity=0 time=0
note_on channel=0 note=60 velocity=0 time=0
note_on channel=0 note=59 velocity=39 time=0
control_change channel=0 control=64 value=0 time=0
note_on channel=0 note=59 velocity=0 time=40
note_on channel=0 note=60 velocity=38 time=0
note_on channel=0 note=60 velocity=0 time=40
note_on channel=0 note=62 velocity=32 time=0
note_on channel=0 note=62 velocity=0 time=0
note_on channel=0 note=60 velocity=42 time=0
note_on channel=0 note=57 velocity=35 time=0
note_on channel=0 note=46 velocity=29 time=0
note_on channel=0 note=51 velocity=35 time=0
control_change channel=0 control=64 value=127 time=29
note_on channel=0 note=51 velocity=0 time=571
note_on channel=0 note=60 velocity=0 time=0
note_on channel=0 note=57 velocity=0 time=0
note_on channel=0 note=58 velocity=39 time=0
note_on channel=0 note=50 velocity=35 time=0
control_change channel=0 control=64 value=0 time=11
control_change channel=0 control=64 value=127 time=30
note_on channel=0 note=50 velocity=0 time=439
note_on channel=0 note=58 velocity=0 time=0
note_on channel=0 note=46 velocity=0 time=0
control_change channel=0 control=64 value=0 time=13
note_on channel=0 note=43 velocity=25 time=0
note_on channel=0 note=31 velocity=21 time=0
note_on channel=0 note=31 velocity=0 time=216
note_on channel=0 note=43 velocity=0 time=0
note_on channel=0 note=31 velocity=17 time=24
note_on channel=0 note=43 velocity=21 time=0
note_on channel=0 note=43 velocity=0 time=216
note_on channel=0 note=31 velocity=0 time=0
note_on channel=0 note=31 velocity=17 time=24
note_on channel=0 note=43 velocity=21 time=0
note_on channel=0 note=43 velocity=0 time=216
note_on channel=0 note=31 velocity=0 time=0
note_on channel=0 note=31 velocity=17 time=24
note_on channel=0 note=43 velocity=21 time=0
note_on channel=0 note=43 velocity=0 time=216
note_on channel=0 note=31 velocity=0 time=0
note_on channel=0 note=31 velocity=17 time=24
note_on channel=0 note=43 velocity=21 time=0
note_on channel=0 note=43 velocity=0 time=216
note_on channel=0 note=31 velocity=0 time=0
note_on channel=0 note=31 velocity=17 time=24
note_on channel=0 note=43 velocity=21 time=0
note_on channel=0 note=43 velocity=0 time=216
note_on channel=0 note=31 velocity=0 time=0
note_on channel=0 note=59 velocity=33 time=24
note_on channel=0 note=31 velocity=17 time=0
note_on channel=0 note=43 velocity=21 time=0
note_on channel=0 note=59 velocity=0 time=180
note_on channel=0 note=60 velocity=28 time=0
note_on channel=0 note=43 velocity=0 time=36
note_on channel=0 note=31 velocity=0 time=0
note_on channel=0 note=60 velocity=0 time=0
note_on channel=0 note=59 velocity=34 time=0
note_on channel=0 note=31 velocity=17 time=0
note_on channel=0 note=43 velocity=21 time=0
note_on channel=0 note=59 velocity=0 time=120
note_on channel=0 note=57 velocity=29 time=0
note_on channel=0 note=43 velocity=0 time=96
note_on channel=0 note=31 velocity=0 time=0
note_on channel=0 note=57 velocity=0 time=0
note_on channel=0 note=59 velocity=38 time=0
note_on channel=0 note=31 velocity=17 time=0
note_on channel=0 note=43 velocity=21 time=0
note_on channel=0 note=59 velocity=0 time=0
note_on channel=0 note=60 velocity=37 time=0
note_on channel=0 note=43 velocity=0 time=96
note_on channel=0 note=31 velocity=0 time=0
note_on channel=0 note=60 velocity=0 time=0
note_on channel=0 note=53 velocity=25 time=0
note_on channel=0 note=61 velocity=34 time=0
note_on channel=0 note=56 velocity=25 time=0
note_on channel=0 note=59 velocity=25 time=0
note_on channel=0 note=43 velocity=25 time=0
note_on channel=0 note=31 velocity=21 time=0
note_on channel=0 note=31 velocity=0 time=216
note_on channel=0 note=43 velocity=0 time=0
note_on channel=0 note=31 velocity=17 time=24
note_on channel=0 note=43 velocity=21 time=0
note_on channel=0 note=43 velocity=0 time=216
note_on channel=0 note=31 velocity=0 time=0
note_on channel=0 note=31 velocity=17 time=24
note_on channel=0 note=43 velocity=21 time=0
note_on channel=0 note=43 velocity=0 time=216
note_on channel=0 note=31 velocity=0 time=0
note_on channel=0 note=61 velocity=0 time=24
note_on channel=0 note=62 velocity=34 time=0
note_on channel=0 note=31 velocity=17 time=0
note_on channel=0 note=43 velocity=21 time=0
note_on channel=0 note=43 velocity=0 time=216
note_on channel=0 note=31 velocity=0 time=0
note_on channel=0 note=31 velocity=17 time=24
note_on channel=0 note=43 velocity=21 time=0
note_on channel=0 note=43 velocity=0 time=216
note_on channel=0 note=31 velocity=0 time=0
note_on channel=0 note=62 velocity=0 time=24
note_on channel=0 note=59 velocity=0 time=0
note_on channel=0 note=56 velocity=0 time=0
note_on channel=0 note=53 velocity=0 time=0
note_on channel=0 note=31 velocity=17 time=0
note_on channel=0 note=43 velocity=21 time=0
note_on channel=0 note=43 velocity=0 time=216
note_on channel=0 note=31 velocity=0 time=0
note_on channel=0 note=31 velocity=17 time=24
note_on channel=0 note=43 velocity=21 time=0
note_on channel=0 note=63 velocity=28 time=0
note_on channel=0 note=43 velocity=0 time=36
note_on channel=0 note=31 velocity=0 time=0
note_on channel=0 note=63 velocity=0 time=0
note_on channel=0 note=62 velocity=38 time=0
note_on channel=0 note=31 velocity=17 time=0
note_on channel=0 note=43 velocity=21 time=0
note_on channel=0 note=62 velocity=0 time=120
note_on channel=0 note=61 velocity=33 time=0
note_on channel=0 note=43 velocity=0 time=96
note_on channel=0 note=31 velocity=0 time=0
note_on channel=0 note=61 velocity=0 time=0
note_on channel=0 note=62 velocity=39 time=0
note_on channel=0 note=31 velocity=17 time=0
note_on channel=0 note=43 velocity=21 time=0
note_on channel=0 note=62 velocity=0 time=0
note_on channel=0 note=63 velocity=41 time=0
note_on channel=0 note=43 velocity=0 time=96
note_on channel=0 note=31 velocity=0 time=0
note_on channel=0 note=63 velocity=0 time=0
note_on channel=0 note=62 velocity=25 time=0
note_on channel=0 note=64 velocity=34 time=0
note_on channel=0 note=56 velocity=25 time=0
note_on channel=0 note=59 velocity=25 time=0
note_on channel=0 note=43 velocity=25 time=0
note_on channel=0 note=31 velocity=21 time=0
note_on channel=0 note=31 velocity=0 time=216
note_on channel=0 note=43 velocity=0 time=0
note_on channel=0 note=31 velocity=17 time=24
note_on channel=0 note=43 velocity=21 time=0
note_on channel=0 note=43 velocity=0 time=216
note_on channel=0 note=31 velocity=0 time=0
note_on channel=0 note=31 velocity=17 time=24
note_on channel=0 note=43 velocity=21 time=0
note_on channel=0 note=43 velocity=0 time=216
note_on channel=0 note=31 velocity=0 time=0
note_on channel=0 note=64 velocity=0 time=24
note_on channel=0 note=65 velocity=34 time=0
note_on channel=0 note=31 velocity=17 time=0
note_on channel=0 note=43 velocity=21 time=0
note_on channel=0 note=43 velocity=0 time=216
note_on channel=0 note=31 velocity=0 time=0
note_on channel=0 note=31 velocity=17 time=24
note_on channel=0 note=43 velocity=21 time=0
note_on channel=0 note=43 velocity=0 time=216
note_on channel=0 note=31 velocity=0 time=0
note_on channel=0 note=65 velocity=0 time=24
note_on channel=0 note=59 velocity=0 time=0
note_on channel=0 note=56 velocity=0 time=0
note_on channel=0 note=62 velocity=0 time=0
note_on channel=0 note=31 velocity=17 time=0
note_on channel=0 note=43 velocity=21 time=0
note_on channel=0 note=43 velocity=0 time=216
note_on channel=0 note=31 velocity=0 time=0
note_on channel=0 note=31 velocity=17 time=24
note_on channel=0 note=43 velocity=21 time=0
note_on channel=0 note=72 velocity=45 time=0
note_on channel=0 note=60 velocity=38 time=0
note_on channel=0 note=43 velocity=0 time=36
note_on channel=0 note=31 velocity=0 time=0
note_on channel=0 note=72 velocity=0 time=0
note_on channel=0 note=60 velocity=0 time=0
note_on channel=0 note=59 velocity=44 time=0
note_on channel=0 note=71 velocity=52 time=0
note_on channel=0 note=31 velocity=17 time=0
note_on channel=0 note=43 velocity=21 time=0
note_on channel=0 note=71 velocity=0 time=120
note_on channel=0 note=59 velocity=0 time=0
note_on channel=0 note=57 velocity=43 time=0
note_on channel=0 note=69 velocity=51 time=0
note_on channel=0 note=31 velocity=0 time=96
note_on channel=0 note=43 velocity=0 time=0
note_on channel=0 note=57 velocity=0 time=0
note_on channel=0 note=69 velocity=0 time=0
note_on channel=0 note=59 velocity=50 time=0
note_on channel=0 note=71 velocity=59 time=0
note_on channel=0 note=31 velocity=17 time=0
note_on channel=0 note=43 velocity=21 time=0
note_on channel=0 note=71 velocity=0 time=0
note_on channel=0 note=59 velocity=0 time=0
note_on channel=0 note=72 velocity=61 time=0
note_on channel=0 note=60 velocity=51 time=0
note_on channel=0 note=31 velocity=0 time=96
note_on channel=0 note=43 velocity=0 time=0
note_on channel=0 note=72 velocity=0 time=0
note_on channel=0 note=60 velocity=0 time=0
note_on channel=0 note=73 velocity=70 time=0
note_on channel=0 note=61 velocity=59 time=0
note_on channel=0 note=31 velocity=48 time=0
note_on channel=0 note=43 velocity=60 time=0
control_change channel=0 control=64 value=127 time=14
note_on channel=0 note=43 velocity=0 time=226
note_on channel=0 note=31 velocity=0 time=0
note_on channel=0 note=43 velocity=20 time=0
note_on channel=0 note=47 velocity=20 time=0
note_on channel=0 note=50 velocity=20 time=0
note_on channel=0 note=53 velocity=26 time=0
note_on channel=0 note=53 velocity=0 time=216
note_on channel=0 note=47 velocity=0 time=0
note_on channel=0 note=43 velocity=0 time=0
note_on channel=0 note=50 velocity=0 time=0
note_on channel=0 note=43 velocity=20 time=24
note_on channel=0 note=47 velocity=20 time=0
note_on channel=0 note=50 velocity=20 time=0
note_on channel=0 note=53 velocity=26 time=0
note_on channel=0 note=53 velocity=0 time=216
note_on channel=0 note=47 velocity=0 time=0
note_on channel=0 note=43 velocity=0 time=0
note_on channel=0 note=50 velocity=0 time=0
note_on channel=0 note=61 velocity=0 time=24
note_on channel=0 note=73 velocity=0 time=0
note_on channel=0 note=62 velocity=41 time=0
note_on channel=0 note=74 velocity=49 time=0
note_on channel=0 note=43 velocity=23 time=0
note_on channel=0 note=47 velocity=23 time=0
note_on channel=0 note=50 velocity=23 time=0
note_on channel=0 note=53 velocity=29 time=0
control_change channel=0 control=64 value=0 time=28
control_change channel=0 control=64 value=127 time=50
note_on channel=0 note=74 velocity=0 time=102
note_on channel=0 note=62 velocity=0 time=0
note_on channel=0 note=75 velocity=52 time=0
note_on channel=0 note=50 velocity=0 time=36
note_on channel=0 note=43 velocity=0 time=0
note_on channel=0 note=47 velocity=0 time=0
note_on channel=0 note=53 velocity=0 time=0
note_on channel=0 note=75 velocity=0 time=0
note_on channel=0 note=74 velocity=57 time=0
note_on channel=0 note=43 velocity=20 time=0
note_on channel=0 note=47 velocity=20 time=0
note_on channel=0 note=50 velocity=20 time=0
note_on channel=0 note=53 velocity=26 time=0
control_change channel=0 control=64 value=0 time=14
control_change channel=0 control=64 value=127 time=43
note_on channel=0 note=74 velocity=0 time=63
note_on channel=0 note=73 velocity=52 time=0
note_on channel=0 note=50 velocity=0 time=96
note_on channel=0 note=53 velocity=0 time=0
note_on channel=0 note=43 velocity=0 time=0
note_on channel=0 note=47 velocity=0 time=0
note_on channel=0 note=73 velocity=0 time=0
note_on channel=0 note=74 velocity=52 time=0
note_on channel=0 note=43 velocity=20 time=0
note_on channel=0 note=47 velocity=20 time=0
note_on channel=0 note=50 velocity=20 time=0
note_on channel=0 note=53 velocity=26 time=0
control_change channel=0 control=64 value=0 time=9
control_change channel=0 control=64 value=127 time=44
note_on channel=0 note=74 velocity=0 time=67
note_on channel=0 note=75 velocity=52 time=0
note_on channel=0 note=50 velocity=0 time=96
note_on channel=0 note=53 velocity=0 time=0
note_on channel=0 note=43 velocity=0 time=0
note_on channel=0 note=47 velocity=0 time=0
note_on channel=0 note=75 velocity=0 time=0
note_on channel=0 note=77 velocity=58 time=0
note_on channel=0 note=43 velocity=24 time=0
note_on channel=0 note=47 velocity=24 time=0
note_on channel=0 note=50 velocity=24 time=0
note_on channel=0 note=53 velocity=30 time=0
control_change channel=0 control=64 value=0 time=17
control_change channel=0 control=64 value=127 time=50
note_on channel=0 note=77 velocity=0 time=53
note_on channel=0 note=79 velocity=55 time=0
note_on channel=0 note=50 velocity=0 time=96
note_on channel=0 note=53 velocity=0 time=0
note_on channel=0 note=43 velocity=0 time=0
note_on channel=0 note=47 velocity=0 time=0
note_on channel=0 note=79 velocity=0 time=0
note_on channel=0 note=80 velocity=62 time=0
note_on channel=0 note=43 velocity=23 time=0
note_on channel=0 note=47 velocity=23 time=0
note_on channel=0 note=50 velocity=23 time=0
note_on channel=0 note=53 velocity=30 time=0
control_change channel=0 control=64 value=0 time=15
control_change channel=0 control=64 value=127 time=49
note_on channel=0 note=80 velocity=0 time=0
note_on channel=0 note=79 velocity=55 time=0
note_on channel=0 note=50 velocity=0 time=96
note_on channel=0 note=53 velocity=0 time=0
note_on channel=0 note=43 velocity=0 time=0
note_on channel=0 note=47 velocity=0 time=0
note_on channel=0 note=79 velocity=0 time=0
note_on channel=0 note=80 velocity=66 time=0
note_on channel=0 note=43 velocity=24 time=0
note_on channel=0 note=47 velocity=24 time=0
note_on channel=0 note=50 velocity=24 time=0
note_on channel=0 note=53 velocity=31 time=0
control_change channel=0 control=64 value=0 time=21
control_change channel=0 control=64 value=127 time=43
note_on channel=0 note=80 velocity=0 time=0
note_on channel=0 note=77 velocity=60 time=0
note_on channel=0 note=50 velocity=0 time=96
note_on channel=0 note=53 velocity=0 time=0
note_on channel=0 note=43 velocity=0 time=0
note_on channel=0 note=47 velocity=0 time=0
note_on channel=0 note=77 velocity=0 time=0
note_on channel=0 note=77 velocity=70 time=0
note_on channel=0 note=36 velocity=48 time=0
note_on channel=0 note=48 velocity=60 time=0
control_change channel=0 control=64 value=0 time=0
control_change channel=0 control=64 value=127 time=57
note_on channel=0 note=48 velocity=0 time=183
note_on channel=0 note=36 velocity=0 time=0
note_on channel=0 note=48 velocity=20 time=0
note_on channel=0 note=55 velocity=20 time=0
note_on channel=0 note=58 velocity=26 time=0
note_on channel=0 note=58 velocity=0 time=216
note_on channel=0 note=55 velocity=0 time=0
note_on channel=0 note=48 velocity=0 time=0
note_on channel=0 note=48 velocity=20 time=24
note_on channel=0 note=55 velocity=20 time=0
note_on channel=0 note=58 velocity=26 time=0
note_on channel=0 note=58 velocity=0 time=216
note_on channel=0 note=55 velocity=0 time=0
note_on channel=0 note=48 velocity=0 time=0
note_on channel=0 note=77 velocity=0 time=24
note_on channel=0 note=67 velocity=41 time=0
note_on channel=0 note=76 velocity=49 time=0
note_on channel=0 note=48 velocity=23 time=0
note_on channel=0 note=55 velocity=23 time=0
note_on channel=0 note=58 velocity=29 time=0
control_change channel=0 control=64 value=0 time=7
control_change channel=0 control=64 value=127 time=53
note_on channel=0 note=76 velocity=0 time=120
note_on channel=0 note=67 velocity=0 time=0
note_on channel=0 note=68 velocity=48 time=0
note_on channel=0 note=55 velocity=0 time=36
note_on channel=0 note=58 velocity=0 time=0
note_on channel=0 note=48 velocity=0 time=0
note_on channel=0 note=68 velocity=0 time=0
note_on channel=0 note=67 velocity=52 time=0
note_on channel=0 note=48 velocity=20 time=0
note_on channel=0 note=55 velocity=20 time=0
note_on channel=0 note=58 velocity=26 time=0
control_change channel=0 control=64 value=0 time=9
control_change channel=0 control=64 value=127 time=62
note_on channel=0 note=67 velocity=0 time=49
note_on channel=0 note=66 velocity=48 time=0
note_on channel=0 note=48 velocity=0 time=96
note_on channel=0 note=58 velocity=0 time=0
note_on channel=0 note=55 velocity=0 time=0
note_on channel=0 note=66 velocity=0 time=0
note_on channel=0 note=67 velocity=48 time=0
note_on channel=0 note=48 velocity=20 time=0
note_on channel=0 note=55 velocity=20 time=0
note_on channel=0 note=58 velocity=26 time=0
control_change channel=0 control=64 value=0 time=12
control_change channel=0 control=64 value=127 time=41
note_on channel=0 note=67 velocity=0 time=67
note_on channel=0 note=69 velocity=48 time=0
note_on channel=0 note=48 velocity=0 time=96
note_on channel=0 note=58 velocity=0 time=0
note_on channel=0 note=55 velocity=0 time=0
note_on channel=0 note=69 velocity=0 time=0
note_on channel=0 note=70 velocity=55 time=0
note_on channel=0 note=48 velocity=24 time=0
note_on channel=0 note=55 velocity=24 time=0
note_on channel=0 note=58 velocity=30 time=0
control_change channel=0 control=64 value=0 time=19
control_change channel=0 control=64 value=127 time=38
note_on channel=0 note=70 velocity=0 time=63
note_on channel=0 note=72 velocity=50 time=0
note_on channel=0 note=48 velocity=0 time=96
note_on channel=0 note=58 velocity=0 time=0
note_on channel=0 note=55 velocity=0 time=0
note_on channel=0 note=72 velocity=0 time=0
note_on channel=0 note=73 velocity=64 time=0
note_on channel=0 note=48 velocity=23 time=0
note_on channel=0 note=55 velocity=23 time=0
note_on channel=0 note=58 velocity=30 time=0
control_change channel=0 control=64 value=0 time=15
control_change channel=0 control=64 value=127 time=49
note_on channel=0 note=73 velocity=0 time=0
note_on channel=0 note=72 velocity=60 time=0
note_on channel=0 note=48 velocity=0 time=96
note_on channel=0 note=58 velocity=0 time=0
note_on channel=0 note=55 velocity=0 time=0
note_on channel=0 note=72 velocity=0 time=0
note_on channel=0 note=73 velocity=68 time=0
note_on channel=0 note=48 velocity=24 time=0
note_on channel=0 note=55 velocity=24 time=0
note_on channel=0 note=58 velocity=31 time=0
control_change channel=0 control=64 value=0 time=12
control_change channel=0 control=64 value=127 time=48
note_on channel=0 note=73 velocity=0 time=0
note_on channel=0 note=70 velocity=64 time=0
note_on channel=0 note=48 velocity=0 time=96
note_on channel=0 note=58 velocity=0 time=0
note_on channel=0 note=55 velocity=0 time=0
note_on channel=0 note=70 velocity=0 time=0
note_on channel=0 note=70 velocity=70 time=0
note_on channel=0 note=41 velocity=48 time=0
note_on channel=0 note=53 velocity=60 time=0
control_change channel=0 control=64 value=0 time=15
control_change channel=0 control=64 value=127 time=34
note_on channel=0 note=53 velocity=0 time=191
note_on channel=0 note=41 velocity=0 time=0
note_on channel=0 note=53 velocity=20 time=0
note_on channel=0 note=60 velocity=20 time=0
note_on channel=0 note=63 velocity=26 time=0
note_on channel=0 note=63 velocity=0 time=216
note_on channel=0 note=60 velocity=0 time=0
note_on channel=0 note=53 velocity=0 time=0
note_on channel=0 note=53 velocity=20 time=24
note_on channel=0 note=60 velocity=20 time=0
note_on channel=0 note=63 velocity=26 time=0
note_on channel=0 note=63 velocity=0 time=216
note_on channel=0 note=60 velocity=0 time=0
note_on channel=0 note=53 velocity=0 time=0
note_on channel=0 note=70 velocity=0 time=24
note_on channel=0 note=72 velocity=49 time=0
note_on channel=0 note=69 velocity=41 time=0
note_on channel=0 note=53 velocity=23 time=0
note_on channel=0 note=60 velocity=23 time=0
note_on channel=0 note=63 velocity=29 time=0
control_change channel=0 control=64 value=0 time=14
control_change channel=0 control=64 value=127 time=32
note_on channel=0 note=69 velocity=0 time=134
note_on channel=0 note=72 velocity=0 time=0
note_on channel=0 note=73 velocity=48 time=0
note_on channel=0 note=60 velocity=0 time=36
note_on channel=0 note=63 velocity=0 time=0
note_on channel=0 note=53 velocity=0 time=0
note_on channel=0 note=73 velocity=0 time=0
note_on channel=0 note=72 velocity=52 time=0
note_on channel=0 note=53 velocity=20 time=0
note_on channel=0 note=60 velocity=20 time=0
note_on channel=0 note=63 velocity=26 time=0
control_change channel=0 control=64 value=0 time=11
control_change channel=0 control=64 value=127 time=41
note_on channel=0 note=72 velocity=0 time=68
note_on channel=0 note=71 velocity=48 time=0
note_on channel=0 note=53 velocity=0 time=96
note_on channel=0 note=63 velocity=0 time=0
note_on channel=0 note=60 velocity=0 time=0
note_on channel=0 note=71 velocity=0 time=0
note_on channel=0 note=72 velocity=48 time=0
note_on channel=0 note=53 velocity=20 time=0
note_on channel=0 note=60 velocity=20 time=0
note_on channel=0 note=63 velocity=26 time=0
control_change channel=0 control=64 value=0 time=17
control_change channel=0 control=64 value=127 time=29
note_on channel=0 note=72 velocity=0 time=74
note_on channel=0 note=74 velocity=48 time=0
note_on channel=0 note=53 velocity=0 time=96
note_on channel=0 note=63 velocity=0 time=0
note_on channel=0 note=60 velocity=0 time=0
note_on channel=0 note=74 velocity=0 time=0
note_on channel=0 note=75 velocity=60 time=0
note_on channel=0 note=53 velocity=24 time=0
note_on channel=0 note=60 velocity=24 time=0
note_on channel=0 note=63 velocity=30 time=0
control_change channel=0 control=64 value=0 time=15
control_change channel=0 control=64 value=127 time=31
note_on channel=0 note=75 velocity=0 time=74
note_on channel=0 note=77 velocity=56 time=0
note_on channel=0 note=53 velocity=0 time=96
note_on channel=0 note=63 velocity=0 time=0
note_on channel=0 note=60 velocity=0 time=0
note_on channel=0 note=77 velocity=0 time=0
note_on channel=0 note=78 velocity=64 time=0
note_on channel=0 note=53 velocity=24 time=0
note_on channel=0 note=60 velocity=24 time=0
note_on channel=0 note=63 velocity=31 time=0
control_change channel=0 control=64 value=0 time=19
control_change channel=0 control=64 value=127 time=33
note_on channel=0 note=78 velocity=0 time=0
note_on channel=0 note=77 velocity=58 time=0
note_on channel=0 note=53 velocity=0 time=96
note_on channel=0 note=63 velocity=0 time=0
note_on channel=0 note=60 velocity=0 time=0
note_on channel=0 note=77 velocity=0 time=0
note_on channel=0 note=78 velocity=67 time=0
note_on channel=0 note=53 velocity=26 time=0
note_on channel=0 note=60 velocity=26 time=0
note_on channel=0 note=63 velocity=33 time=0
control_change channel=0 control=64 value=0 time=11
control_change channel=0 control=64 value=127 time=41
note_on channel=0 note=78 velocity=0 time=0
note_on channel=0 note=75 velocity=64 time=0
note_on channel=0 note=53 velocity=0 time=96
note_on channel=0 note=63 velocity=0 time=0
note_on channel=0 note=60 velocity=0 time=0
note_on channel=0 note=75 velocity=0 time=0
note_on channel=0 note=75 velocity=70 time=0
note_on channel=0 note=34 velocity=48 time=0
note_on channel=0 note=46 velocity=60 time=0
control_change channel=0 control=64 value=0 time=0
control_change channel=0 control=64 value=127 time=37
note_on channel=0 note=46 velocity=0 time=203
note_on channel=0 note=34 velocity=0 time=0
note_on channel=0 note=46 velocity=20 time=0
note_on channel=0 note=53 velocity=20 time=0
note_on channel=0 note=56 velocity=26 time=0
note_on channel=0 note=56 velocity=0 time=216
note_on channel=0 note=53 velocity=0 time=0
note_on channel=0 note=46 velocity=0 time=0
note_on channel=0 note=46 velocity=20 time=24
note_on channel=0 note=53 velocity=20 time=0
note_on channel=0 note=56 velocity=26 time=0
note_on channel=0 note=56 velocity=0 time=216
note_on channel=0 note=53 velocity=0 time=0
note_on channel=0 note=46 velocity=0 time=0
note_on channel=0 note=75 velocity=0 time=24
note_on channel=0 note=65 velocity=41 time=0
note_on channel=0 note=74 velocity=49 time=0
note_on channel=0 note=46 velocity=23 time=0
note_on channel=0 note=53 velocity=23 time=0
note_on channel=0 note=56 velocity=29 time=0
control_change channel=0 control=64 value=0 time=11
control_change channel=0 control=64 value=127 time=29
note_on channel=0 note=74 velocity=0 time=140
note_on channel=0 note=65 velocity=0 time=0
note_on channel=0 note=66 velocity=48 time=0
note_on channel=0 note=53 velocity=0 time=36
note_on channel=0 note=56 velocity=0 time=0
note_on channel=0 note=46 velocity=0 time=0
note_on channel=0 note=66 velocity=0 time=0
note_on channel=0 note=65 velocity=52 time=0
note_on channel=0 note=46 velocity=20 time=0
note_on channel=0 note=53 velocity=20 time=0
note_on channel=0 note=56 velocity=26 time=0
control_change channel=0 control=64 value=0 time=9
control_change channel=0 control=64 value=127 time=31
note_on channel=0 note=65 velocity=0 time=80
note_on channel=0 note=64 velocity=48 time=0
note_on channel=0 note=46 velocity=0 time=96
note_on channel=0 note=56 velocity=0 time=0
note_on channel=0 note=53 velocity=0 time=0
note_on channel=0 note=64 velocity=0 time=0
note_on channel=0 note=65 velocity=48 time=0
note_on channel=0 note=46 velocity=20 time=0
note_on channel=0 note=53 velocity=20 time=0
note_on channel=0 note=56 velocity=26 time=0
control_change channel=0 control=64 value=0 time=9
control_change channel=0 control=64 value=127 time=46
note_on channel=0 note=65 velocity=0 time=65
note_on channel=0 note=67 velocity=48 time=0
note_on channel=0 note=46 velocity=0 time=96
note_on channel=0 note=56 velocity=0 time=0
note_on channel=0 note=53 velocity=0 time=0
note_on channel=0 note=67 velocity=0 time=0
note_on channel=0 note=68 velocity=60 time=0
note_on channel=0 note=46 velocity=24 time=0
note_on channel=0 note=53 velocity=24 time=0
note_on channel=0 note=56 velocity=30 time=0
control_change channel=0 control=64 value=0 time=14
control_change channel=0 control=64 value=127 time=52
note_on channel=0 note=68 velocity=0 time=54
note_on channel=0 note=70 velocity=54 time=0
note_on channel=0 note=46 velocity=0 time=96
note_on channel=0 note=56 velocity=0 time=0
note_on channel=0 note=53 velocity=0 time=0
note_on channel=0 note=70 velocity=0 time=0
note_on channel=0 note=71 velocity=64 time=0
note_on channel=0 note=46 velocity=23 time=0
note_on channel=0 note=53 velocity=23 time=0
note_on channel=0 note=56 velocity=30 time=0
control_change channel=0 control=64 value=0 time=8
control_change channel=0 control=64 value=127 time=35
note_on channel=0 note=71 velocity=0 time=0
note_on channel=0 note=70 velocity=56 time=0
note_on channel=0 note=46 velocity=0 time=96
note_on channel=0 note=56 velocity=0 time=0
note_on channel=0 note=53 velocity=0 time=0
note_on channel=0 note=70 velocity=0 time=0
note_on channel=0 note=71 velocity=67 time=0
note_on channel=0 note=46 velocity=24 time=0
note_on channel=0 note=53 velocity=24 time=0
note_on channel=0 note=56 velocity=31 time=0
control_change channel=0 control=64 value=0 time=8
control_change channel=0 control=64 value=127 time=38
note_on channel=0 note=71 velocity=0 time=0
note_on channel=0 note=68 velocity=59 time=0
note_on channel=0 note=46 velocity=0 time=96
note_on channel=0 note=56 velocity=0 time=0
note_on channel=0 note=53 velocity=0 time=0
note_on channel=0 note=68 velocity=0 time=0
note_on channel=0 note=68 velocity=70 time=0
note_on channel=0 note=39 velocity=48 time=0
note_on channel=0 note=51 velocity=60 time=0
control_change channel=0 control=64 value=0 time=15
control_change channel=0 control=64 value=127 time=34
note_on channel=0 note=51 velocity=0 time=191
note_on channel=0 note=39 velocity=0 time=0
note_on channel=0 note=51 velocity=20 time=0
note_on channel=0 note=58 velocity=20 time=0
note_on channel=0 note=61 velocity=26 time=0
note_on channel=0 note=61 velocity=0 time=216
note_on channel=0 note=58 velocity=0 time=0
note_on channel=0 note=51 velocity=0 time=0
note_on channel=0 note=51 velocity=20 time=24
note_on channel=0 note=58 velocity=20 time=0
note_on channel=0 note=61 velocity=26 time=0
note_on channel=0 note=61 velocity=0 time=216
note_on channel=0 note=58 velocity=0 time=0
note_on channel=0 note=51 velocity=0 time=0
note_on channel=0 note=68 velocity=0 time=24
note_on channel=0 note=67 velocity=41 time=0
note_on channel=0 note=70 velocity=49 time=0
note_on channel=0 note=51 velocity=23 time=0
note_on channel=0 note=58 velocity=23 time=0
note_on channel=0 note=61 velocity=29 time=0
control_change channel=0 control=64 value=0 time=14
control_change channel=0 control=64 value=127 time=32
note_on channel=0 note=70 velocity=0 time=134
note_on channel=0 note=71 velocity=48 time=0
note_on channel=0 note=58 velocity=0 time=36
note_on channel=0 note=61 velocity=0 time=0
note_on channel=0 note=51 velocity=0 time=0
note_on channel=0 note=71 velocity=0 time=0
note_on channel=0 note=70 velocity=53 time=0
note_on channel=0 note=51 velocity=20 time=0
note_on channel=0 note=58 velocity=20 time=0
note_on channel=0 note=61 velocity=26 time=0
control_change channel=0 control=64 value=0 time=11
control_change channel=0 control=64 value=127 time=41
note_on channel=0 note=70 velocity=0 time=68
note_on channel=0 note=69 velocity=49 time=0
note_on channel=0 note=58 velocity=0 time=96
note_on channel=0 note=61 velocity=0 time=0
note_on channel=0 note=51 velocity=0 time=0
note_on channel=0 note=69 velocity=0 time=0
note_on channel=0 note=70 velocity=50 time=0
note_on channel=0 note=51 velocity=21 time=0
note_on channel=0 note=58 velocity=21 time=0
note_on channel=0 note=61 velocity=27 time=0
control_change channel=0 control=64 value=0 time=17
control_change channel=0 control=64 value=127 time=29
note_on channel=0 note=70 velocity=0 time=74
note_on channel=0 note=71 velocity=50 time=0
note_on channel=0 note=58 velocity=0 time=96
note_on channel=0 note=61 velocity=0 time=0
note_on channel=0 note=51 velocity=0 time=0
note_on channel=0 note=71 velocity=0 time=0
note_on channel=0 note=73 velocity=64 time=0
note_on channel=0 note=51 velocity=26 time=0
note_on channel=0 note=58 velocity=26 time=0
note_on channel=0 note=61 velocity=33 time=0
control_change channel=0 control=64 value=0 time=15
control_change channel=0 control=64 value=127 time=31
note_on channel=0 note=73 velocity=0 time=74
note_on channel=0 note=75 velocity=60 time=0
note_on channel=0 note=58 velocity=0 time=96
note_on channel=0 note=61 velocity=0 time=0
note_on channel=0 note=51 velocity=0 time=0
note_on channel=0 note=67 velocity=0 time=14
note_on channel=0 note=75 velocity=0 time=0
note_on channel=0 note=76 velocity=70 time=0
note_on channel=0 note=67 velocity=45 time=0
note_on channel=0 note=51 velocity=27 time=0
note_on channel=0 note=58 velocity=27 time=0
note_on channel=0 note=61 velocity=35 time=0
control_change channel=0 control=64 value=0 time=19
control_change channel=0 control=64 value=127 time=33
note_on channel=0 note=76 velocity=0 time=0
note_on channel=0 note=75 velocity=64 time=0
note_on channel=0 note=58 velocity=0 time=96
note_on channel=0 note=61 velocity=0 time=0
note_on channel=0 note=67 velocity=0 time=0
note_on channel=0 note=51 velocity=0 time=0
note_on channel=0 note=75 velocity=0 time=0
note_on channel=0 note=67 velocity=45 time=0
note_on channel=0 note=76 velocity=75 time=0
note_on channel=0 note=51 velocity=29 time=0
note_on channel=0 note=58 velocity=29 time=0
note_on channel=0 note=61 velocity=39 time=0
control_change channel=0 control=64 value=0 time=11
control_change channel=0 control=64 value=127 time=41
note_on channel=0 note=76 velocity=0 time=0
note_on channel=0 note=73 velocity=69 time=0
note_on channel=0 note=58 velocity=0 time=96
note_on channel=0 note=61 velocity=0 time=0
note_on channel=0 note=51 velocity=0 time=0
note_on channel=0 note=67 velocity=0 time=0
note_on channel=0 note=73 velocity=0 time=0
note_on channel=0 note=68 velocity=49 time=0
note_on channel=0 note=71 velocity=49 time=0
note_on channel=0 note=51 velocity=24 time=0
note_on channel=0 note=59 velocity=24 time=0
note_on channel=0 note=63 velocity=29 time=0
control_change channel=0 control=64 value=0 time=0
control_change channel=0 control=64 value=127 time=75
note_on channel=0 note=71 velocity=0 time=45
note_on channel=0 note=73 velocity=46 time=0
note_on channel=0 note=73 velocity=0 time=0
note_on channel=0 note=75 velocity=52 time=0
note_on channel=0 note=75 velocity=0 time=120
note_on channel=0 note=73 velocity=45 time=0
note_on channel=0 note=73 velocity=0 time=120
note_on channel=0 note=63 velocity=0 time=0
note_on channel=0 note=68 velocity=0 time=0
note_on channel=0 note=51 velocity=0 time=0
note_on channel=0 note=59 velocity=0 time=0
note_on channel=0 note=75 velocity=51 time=0
control_change channel=0 control=64 value=0 time=8
control_change channel=0 control=64 value=127 time=55
note_on channel=0 note=75 velocity=0 time=0
note_on channel=0 note=71 velocity=48 time=0
note_on channel=0 note=71 velocity=0 time=0
note_on channel=0 note=70 velocity=49 time=0
note_on channel=0 note=61 velocity=41 time=0
control_change channel=0 control=64 value=0 time=7
control_change channel=0 control=64 value=127 time=50
note_on channel=0 note=61 velocity=0 time=63
note_on channel=0 note=70 velocity=0 time=0
note_on channel=0 note=71 velocity=44 time=0
note_on channel=0 note=63 velocity=34 time=0
note_on channel=0 note=63 velocity=0 time=0
note_on channel=0 note=71 velocity=0 time=0
note_on channel=0 note=73 velocity=52 time=0
note_on channel=0 note=64 velocity=41 time=0
control_change channel=0 control=64 value=0 time=8
control_change channel=0 control=64 value=127 time=61
note_on channel=0 note=64 velocity=0 time=51
note_on channel=0 note=73 velocity=0 time=0
note_on channel=0 note=71 velocity=46 time=0
note_on channel=0 note=63 velocity=36 time=0
note_on channel=0 note=63 velocity=0 time=120
note_on channel=0 note=71 velocity=0 time=0
note_on channel=0 note=73 velocity=49 time=0
note_on channel=0 note=64 velocity=41 time=0
control_change channel=0 control=64 value=0 time=14
control_change channel=0 control=64 value=127 time=72
note_on channel=0 note=64 velocity=0 time=0
note_on channel=0 note=73 velocity=0 time=0
note_on channel=0 note=70 velocity=42 time=0
note_on channel=0 note=61 velocity=37 time=0
note_on channel=0 note=61 velocity=0 time=0
note_on channel=0 note=70 velocity=0 time=0
note_on channel=0 note=68 velocity=49 time=0
note_on channel=0 note=59 velocity=41 time=0
control_change channel=0 control=64 value=0 time=18
control_change channel=0 control=64 value=127 time=45
note_on channel=0 note=59 velocity=0 time=57
note_on channel=0 note=68 velocity=0 time=0
note_on channel=0 note=70 velocity=45 time=0
note_on channel=0 note=61 velocity=38 time=0
note_on channel=0 note=61 velocity=0 time=0
note_on channel=0 note=70 velocity=0 time=0
note_on channel=0 note=71 velocity=49 time=0
note_on channel=0 note=75 velocity=60 time=0
note_on channel=0 note=63 velocity=41 time=0
control_change channel=0 control=64 value=0 time=11
control_change channel=0 control=64 value=127 time=52
note_on channel=0 note=63 velocity=0 time=57
note_on channel=0 note=71 velocity=0 time=0
note_on channel=0 note=70 velocity=45 time=0
note_on channel=0 note=61 velocity=35 time=0
note_on channel=0 note=75 velocity=0 time=110
note_on channel=0 note=61 velocity=0 time=10
note_on channel=0 note=70 velocity=0 time=0
note_on channel=0 note=71 velocity=49 time=0
note_on channel=0 note=75 velocity=60 time=0
note_on channel=0 note=63 velocity=41 time=0
control_change channel=0 control=64 value=0 time=7
control_change channel=0 control=64 value=127 time=62
note_on channel=0 note=63 velocity=0 time=0
note_on channel=0 note=71 velocity=0 time=0
note_on channel=0 note=68 velocity=45 time=0
note_on channel=0 note=59 velocity=35 time=0
note_on channel=0 note=59 velocity=0 time=0
note_on channel=0 note=68 velocity=0 time=0
note_on channel=0 note=75 velocity=0 time=0
note_on channel=0 note=76 velocity=65 time=0
note_on channel=0 note=67 velocity=44 time=0
note_on channel=0 note=58 velocity=41 time=0
control_change channel=0 control=64 value=0 time=0
control_change channel=0 control=64 value=127 time=75
note_on channel=0 note=58 velocity=0 time=45
note_on channel=0 note=67 velocity=0 time=0
note_on channel=0 note=68 velocity=41 time=0
note_on channel=0 note=59 velocity=34 time=0
note_on channel=0 note=59 velocity=0 time=0
note_on channel=0 note=68 velocity=0 time=0
note_on channel=0 note=70 velocity=46 time=0
note_on channel=0 note=61 velocity=41 time=0
control_change channel=0 control=64 value=0 time=8
control_change channel=0 control=64 value=127 time=49
note_on channel=0 note=61 velocity=0 time=63
note_on channel=0 note=70 velocity=0 time=0
note_on channel=0 note=68 velocity=40 time=0
note_on channel=0 note=59 velocity=36 time=0
note_on channel=0 note=59 velocity=0 time=120
note_on channel=0 note=68 velocity=0 time=0
note_on channel=0 note=76 velocity=0 time=0
note_on channel=0 note=70 velocity=45 time=0
note_on channel=0 note=75 velocity=60 time=0
note_on channel=0 note=61 velocity=41 time=0
control_change channel=0 control=64 value=0 time=8
control_change channel=0 control=64 value=127 time=55
note_on channel=0 note=61 velocity=0 time=0
note_on channel=0 note=70 velocity=0 time=0
note_on channel=0 note=67 velocity=43 time=0
note_on channel=0 note=58 velocity=37 time=0
note_on channel=0 note=58 velocity=0 time=0
note_on channel=0 note=67 velocity=0 time=0
note_on channel=0 note=75 velocity=0 time=0
note_on channel=0 note=68 velocity=44 time=0
note_on channel=0 note=59 velocity=41 time=0
control_change channel=0 control=64 value=0 time=7
control_change channel=0 control=64 value=127 time=50
note_on channel=0 note=59 velocity=0 time=63
note_on channel=0 note=68 velocity=0 time=0
note_on channel=0 note=70 velocity=39 time=0
note_on channel=0 note=61 velocity=34 time=0
note_on channel=0 note=61 velocity=0 time=0
note_on channel=0 note=70 velocity=0 time=0
note_on channel=0 note=71 velocity=46 time=0
note_on channel=0 note=63 velocity=41 time=0
control_change channel=0 control=64 value=0 time=8
control_change channel=0 control=64 value=127 time=61
note_on channel=0 note=63 velocity=0 time=51
note_on channel=0 note=71 velocity=0 time=0
note_on channel=0 note=70 velocity=41 time=0
note_on channel=0 note=61 velocity=36 time=0
note_on channel=0 note=61 velocity=0 time=120
note_on channel=0 note=70 velocity=0 time=0
note_on channel=0 note=71 velocity=44 time=0
note_on channel=0 note=63 velocity=41 time=0
control_change channel=0 control=64 value=0 time=14
control_change channel=0 control=64 value=127 time=72
note_on channel=0 note=63 velocity=0 time=0
note_on channel=0 note=71 velocity=0 time=0
note_on channel=0 note=68 velocity=37 time=0
note_on channel=0 note=59 velocity=37 time=0
note_on channel=0 note=59 velocity=0 time=0
note_on channel=0 note=68 velocity=0 time=0
note_on channel=0 note=65 velocity=44 time=0
note_on channel=0 note=56 velocity=41 time=0
control_change channel=0 control=64 value=0 time=18
control_change channel=0 control=64 value=127 time=45
note_on channel=0 note=56 velocity=0 time=57
note_on channel=0 note=65 velocity=0 time=0
note_on channel=0 note=66 velocity=40 time=0
note_on channel=0 note=58 velocity=38 time=0
note_on channel=0 note=58 velocity=0 time=0
note_on channel=0 note=66 velocity=0 time=0
note_on channel=0 note=74 velocity=60 time=0
note_on channel=0 note=68 velocity=44 time=0
note_on channel=0 note=59 velocity=41 time=0
control_change channel=0 control=64 value=0 time=11
control_change channel=0 control=64 value=127 time=52
note_on channel=0 note=59 velocity=0 time=57
note_on channel=0 note=68 velocity=0 time=0
note_on channel=0 note=66 velocity=40 time=0
note_on channel=0 note=58 velocity=35 time=0
note_on channel=0 note=74 velocity=0 time=110
note_on channel=0 note=58 velocity=0 time=10
note_on channel=0 note=66 velocity=0 time=0
note_on channel=0 note=74 velocity=60 time=0
note_on channel=0 note=68 velocity=44 time=0
note_on channel=0 note=59 velocity=41 time=0
control_change channel=0 control=64 value=0 time=7
control_change channel=0 control=64 value=127 time=62
note_on channel=0 note=59 velocity=0 time=0
note_on channel=0 note=68 velocity=0 time=0
note_on channel=0 note=65 velocity=40 time=0
note_on channel=0 note=56 velocity=35 time=0
note_on channel=0 note=56 velocity=0 time=0
note_on channel=0 note=65 velocity=0 time=0
note_on channel=0 note=74 velocity=0 time=0
note_on channel=0 note=75 velocity=65 time=0
note_on channel=0 note=63 velocity=44 time=0
note_on channel=0 note=54 velocity=41 time=0
control_change channel=0 control=64 value=0 time=0
control_change channel=0 control=64 value=127 time=75
note_on channel=0 note=54 velocity=0 time=45
note_on channel=0 note=63 velocity=0 time=0
note_on channel=0 note=65 velocity=41 time=0
note_on channel=0 note=56 velocity=34 time=0
note_on channel=0 note=56 velocity=0 time=0
note_on channel=0 note=65 velocity=0 time=0
note_on channel=0 note=66 velocity=46 time=0
note_on channel=0 note=58 velocity=41 time=0
control_change channel=0 control=64 value=0 time=8
control_change channel=0 control=64 value=127 time=49
note_on channel=0 note=58 velocity=0 time=63
note_on channel=0 note=66 velocity=0 time=0
note_on channel=0 note=65 velocity=40 time=0
note_on channel=0 note=56 velocity=36 time=0
note_on channel=0 note=56 velocity=0 time=120
note_on channel=0 note=65 velocity=0 time=0
note_on channel=0 note=75 velocity=0 time=0
note_on channel=0 note=70 velocity=60 time=0
note_on channel=0 note=66 velocity=45 time=0
note_on channel=0 note=58 velocity=41 time=0
control_change channel=0 control=64 value=0 time=8
control_change channel=0 control=64 value=127 time=55
note_on channel=0 note=58 velocity=0 time=0
note_on channel=0 note=66 velocity=0 time=0
note_on channel=0 note=63 velocity=43 time=0
note_on channel=0 note=54 velocity=37 time=0
note_on channel=0 note=54 velocity=0 time=0
note_on channel=0 note=63 velocity=0 time=0
note_on channel=0 note=70 velocity=0 time=0
note_on channel=0 note=62 velocity=44 time=0
note_on channel=0 note=53 velocity=41 time=0
control_change channel=0 control=64 value=0 time=7
control_change channel=0 control=64 value=127 time=50
note_on channel=0 note=53 velocity=0 time=63
note_on channel=0 note=62 velocity=0 time=0
note_on channel=0 note=63 velocity=39 time=0
note_on channel=0 note=54 velocity=34 time=0
note_on channel=0 note=54 velocity=0 time=0
note_on channel=0 note=63 velocity=0 time=0
note_on channel=0 note=65 velocity=46 time=0
note_on channel=0 note=56 velocity=41 time=0
control_change channel=0 control=64 value=0 time=8
control_change channel=0 control=64 value=127 time=61
note_on channel=0 note=56 velocity=0 time=51
note_on channel=0 note=65 velocity=0 time=0
note_on channel=0 note=63 velocity=41 time=0
note_on channel=0 note=54 velocity=36 time=0
note_on channel=0 note=54 velocity=0 time=120
note_on channel=0 note=63 velocity=0 time=0
note_on channel=0 note=65 velocity=44 time=0
note_on channel=0 note=56 velocity=41 time=0
control_change channel=0 control=64 value=0 time=14
control_change channel=0 control=64 value=127 time=72
note_on channel=0 note=56 velocity=0 time=0
note_on channel=0 note=65 velocity=0 time=0
note_on channel=0 note=62 velocity=37 time=0
note_on channel=0 note=53 velocity=37 time=0
note_on channel=0 note=53 velocity=0 time=0
note_on channel=0 note=62 velocity=0 time=0
note_on channel=0 note=63 velocity=44 time=0
note_on channel=0 note=54 velocity=41 time=0
control_change channel=0 control=64 value=0 time=18
control_change channel=0 control=64 value=127 time=45
note_on channel=0 note=54 velocity=0 time=57
note_on channel=0 note=63 velocity=0 time=0
note_on channel=0 note=65 velocity=40 time=0
note_on channel=0 note=56 velocity=38 time=0
note_on channel=0 note=56 velocity=0 time=0
note_on channel=0 note=65 velocity=0 time=0
note_on channel=0 note=66 velocity=44 time=0
note_on channel=0 note=70 velocity=60 time=0
note_on channel=0 note=58 velocity=41 time=0
control_change channel=0 control=64 value=0 time=11
control_change channel=0 control=64 value=127 time=52
note_on channel=0 note=58 velocity=0 time=57
note_on channel=0 note=66 velocity=0 time=0
note_on channel=0 note=65 velocity=40 time=0
note_on channel=0 note=56 velocity=35 time=0
note_on channel=0 note=70 velocity=0 time=110
note_on channel=0 note=56 velocity=0 time=10
note_on channel=0 note=65 velocity=0 time=0
note_on channel=0 note=70 velocity=60 time=0
note_on channel=0 note=66 velocity=44 time=0
note_on channel=0 note=58 velocity=41 time=0
control_change channel=0 control=64 value=0 time=7
control_change channel=0 control=64 value=127 time=62
note_on channel=0 note=58 velocity=0 time=0
note_on channel=0 note=66 velocity=0 time=0
note_on channel=0 note=63 velocity=40 time=0
note_on channel=0 note=54 velocity=35 time=0
note_on channel=0 note=54 velocity=0 time=0
note_on channel=0 note=63 velocity=0 time=0
note_on channel=0 note=70 velocity=0 time=0
note_on channel=0 note=71 velocity=65 time=0
note_on channel=0 note=65 velocity=44 time=0
note_on channel=0 note=50 velocity=41 time=0
control_change channel=0 control=64 value=0 time=0
control_change channel=0 control=64 value=127 time=75
note_on channel=0 note=50 velocity=0 time=45
note_on channel=0 note=65 velocity=0 time=0
note_on channel=0 note=66 velocity=41 time=0
note_on channel=0 note=51 velocity=34 time=0
note_on channel=0 note=51 velocity=0 time=0
note_on channel=0 note=66 velocity=0 time=0
note_on channel=0 note=68 velocity=46 time=0
note_on channel=0 note=53 velocity=41 time=0
control_change channel=0 control=64 value=0 time=8
control_change channel=0 control=64 value=127 time=49
note_on channel=0 note=53 velocity=0 time=63
note_on channel=0 note=68 velocity=0 time=0
note_on channel=0 note=66 velocity=40 time=0
note_on channel=0 note=51 velocity=36 time=0
note_on channel=0 note=51 velocity=0 time=120
note_on channel=0 note=66 velocity=0 time=0
note_on channel=0 note=71 velocity=0 time=0
note_on channel=0 note=70 velocity=60 time=0
note_on channel=0 note=68 velocity=45 time=0
note_on channel=0 note=53 velocity=41 time=0
control_change channel=0 control=64 value=0 time=8
control_change channel=0 control=64 value=127 time=55
note_on channel=0 note=53 velocity=0 time=0
note_on channel=0 note=68 velocity=0 time=0
note_on channel=0 note=65 velocity=43 time=0
note_on channel=0 note=50 velocity=37 time=0
note_on channel=0 note=50 velocity=0 time=0
note_on channel=0 note=65 velocity=0 time=0
note_on channel=0 note=70 velocity=0 time=0
note_on channel=0 note=66 velocity=44 time=0
note_on channel=0 note=51 velocity=41 time=0
control_change channel=0 control=64 value=0 time=7
control_change channel=0 control=64 value=127 time=50
note_on channel=0 note=51 velocity=0 time=63
note_on channel=0 note=66 velocity=0 time=0
note_on channel=0 note=68 velocity=39 time=0
note_on channel=0 note=53 velocity=34 time=0
note_on channel=0 note=53 velocity=0 time=0
note_on channel=0 note=68 velocity=0 time=0
note_on channel=0 note=70 velocity=46 time=0
note_on channel=0 note=54 velocity=41 time=0
control_change channel=0 control=64 value=0 time=8
control_change channel=0 control=64 value=127 time=61
note_on channel=0 note=54 velocity=0 time=51
note_on channel=0 note=70 velocity=0 time=0
note_on channel=0 note=68 velocity=41 time=0
note_on channel=0 note=53 velocity=36 time=0
note_on channel=0 note=53 velocity=0 time=120
note_on channel=0 note=68 velocity=0 time=0
note_on channel=0 note=70 velocity=44 time=0
note_on channel=0 note=54 velocity=41 time=0
control_change channel=0 control=64 value=0 time=14
control_change channel=0 control=64 value=127 time=72
note_on channel=0 note=54 velocity=0 time=0
note_on channel=0 note=70 velocity=0 time=0
note_on channel=0 note=66 velocity=37 time=0
note_on channel=0 note=51 velocity=37 time=0
note_on channel=0 note=51 velocity=0 time=0
note_on channel=0 note=66 velocity=0 time=0
note_on channel=0 note=63 velocity=44 time=0
note_on channel=0 note=48 velocity=41 time=0
control_change channel=0 control=64 value=0 time=18
control_change channel=0 control=64 value=127 time=45
note_on channel=0 note=48 velocity=0 time=57
note_on channel=0 note=63 velocity=0 time=0
note_on channel=0 note=65 velocity=40 time=0
note_on channel=0 note=50 velocity=38 time=0
note_on channel=0 note=50 velocity=0 time=0
note_on channel=0 note=65 velocity=0 time=0
note_on channel=0 note=66 velocity=44 time=0
note_on channel=0 note=69 velocity=60 time=0
note_on channel=0 note=51 velocity=41 time=0
control_change channel=0 control=64 value=0 time=11
control_change channel=0 control=64 value=127 time=52
note_on channel=0 note=51 velocity=0 time=57
note_on channel=0 note=66 velocity=0 time=0
note_on channel=0 note=65 velocity=40 time=0
note_on channel=0 note=50 velocity=35 time=0
note_on channel=0 note=69 velocity=0 time=110
note_on channel=0 note=50 velocity=0 time=10
note_on channel=0 note=65 velocity=0 time=0
note_on channel=0 note=66 velocity=44 time=0
note_on channel=0 note=69 velocity=60 time=0
note_on channel=0 note=51 velocity=41 time=0
control_change channel=0 control=64 value=0 time=7
control_change channel=0 control=64 value=127 time=62
note_on channel=0 note=51 velocity=0 time=0
note_on channel=0 note=66 velocity=0 time=0
note_on channel=0 note=63 velocity=40 time=0
note_on channel=0 note=47 velocity=35 time=0
note_on channel=0 note=47 velocity=0 time=0
note_on channel=0 note=63 velocity=0 time=0
note_on channel=0 note=69 velocity=0 time=0
note_on channel=0 note=70 velocity=65 time=0
note_on channel=0 note=62 velocity=44 time=0
note_on channel=0 note=46 velocity=41 time=0
control_change channel=0 control=64 value=0 time=0
control_change channel=0 control=64 value=127 time=75
note_on channel=0 note=62 velocity=0 time=45
note_on channel=0 note=63 velocity=41 time=0
note_on channel=0 note=48 velocity=34 time=0
note_on channel=0 note=48 velocity=0 time=0
note_on channel=0 note=63 velocity=0 time=0
note_on channel=0 note=65 velocity=46 time=0
note_on channel=0 note=50 velocity=41 time=0
control_change channel=0 control=64 value=0 time=8
control_change channel=0 control=64 value=127 time=49
note_on channel=0 note=50 velocity=0 time=63
note_on channel=0 note=65 velocity=0 time=0
note_on channel=0 note=63 velocity=40 time=0
note_on channel=0 note=48 velocity=36 time=0
note_on channel=0 note=48 velocity=0 time=120
note_on channel=0 note=63 velocity=0 time=0
note_on channel=0 note=62 velocity=45 time=0
note_on channel=0 note=46 velocity=41 time=0
control_change channel=0 control=64 value=0 time=8
control_change channel=0 control=64 value=127 time=55
note_on channel=0 note=46 velocity=0 time=0
note_on channel=0 note=62 velocity=0 time=0
note_on channel=0 note=63 velocity=43 time=0
note_on channel=0 note=48 velocity=37 time=0
note_on channel=0 note=48 velocity=0 time=0
note_on channel=0 note=63 velocity=0 time=0
note_on channel=0 note=65 velocity=44 time=0
note_on channel=0 note=50 velocity=41 time=0
control_change channel=0 control=64 value=0 time=7
control_change channel=0 control=64 value=127 time=50
note_on channel=0 note=50 velocity=0 time=63
note_on channel=0 note=65 velocity=0 time=0
note_on channel=0 note=66 velocity=39 time=0
note_on channel=0 note=51 velocity=34 time=0
note_on channel=0 note=51 velocity=0 time=0
note_on channel=0 note=66 velocity=0 time=0
note_on channel=0 note=68 velocity=46 time=0
note_on channel=0 note=53 velocity=41 time=0
control_change channel=0 control=64 value=0 time=8
control_change channel=0 control=64 value=127 time=61
note_on channel=0 note=53 velocity=0 time=51
note_on channel=0 note=68 velocity=0 time=0
note_on channel=0 note=66 velocity=41 time=0
note_on channel=0 note=51 velocity=36 time=0
note_on channel=0 note=51 velocity=0 time=120
note_on channel=0 note=66 velocity=0 time=0
note_on channel=0 note=65 velocity=44 time=0
note_on channel=0 note=50 velocity=41 time=0
control_change channel=0 control=64 value=0 time=14
control_change channel=0 control=64 value=127 time=72
note_on channel=0 note=50 velocity=0 time=0
note_on channel=0 note=65 velocity=0 time=0
note_on channel=0 note=68 velocity=37 time=0
note_on channel=0 note=53 velocity=37 time=0
note_on channel=0 note=53 velocity=0 time=0
note_on channel=0 note=68 velocity=0 time=0
note_on channel=0 note=66 velocity=44 time=0
note_on channel=0 note=51 velocity=41 time=0
control_change channel=0 control=64 value=0 time=18
control_change channel=0 control=64 value=127 time=45
note_on channel=0 note=51 velocity=0 time=57
note_on channel=0 note=66 velocity=0 time=0
note_on channel=0 note=65 velocity=40 time=0
note_on channel=0 note=50 velocity=38 time=0
note_on channel=0 note=46 velocity=0 time=110
note_on channel=0 note=70 velocity=0 time=0
note_on channel=0 note=65 velocity=0 time=0
note_on channel=0 note=50 velocity=0 time=0
note_on channel=0 note=69 velocity=60 time=0
note_on channel=0 note=63 velocity=44 time=0
note_on channel=0 note=46 velocity=39 time=0
note_on channel=0 note=48 velocity=41 time=0
control_change channel=0 control=64 value=0 time=11
control_change channel=0 control=64 value=127 time=52
note_on channel=0 note=48 velocity=0 time=57
note_on channel=0 note=63 velocity=0 time=0
note_on channel=0 note=65 velocity=40 time=0
note_on channel=0 note=50 velocity=35 time=0
note_on channel=0 note=46 velocity=0 time=110
note_on channel=0 note=69 velocity=0 time=0
note_on channel=0 note=65 velocity=0 time=10
note_on channel=0 note=50 velocity=0 time=0
note_on channel=0 note=69 velocity=60 time=0
note_on channel=0 note=66 velocity=44 time=0
note_on channel=0 note=46 velocity=39 time=0
note_on channel=0 note=51 velocity=41 time=0
control_change channel=0 control=64 value=0 time=7
control_change channel=0 control=64 value=127 time=62
note_on channel=0 note=51 velocity=0 time=0
note_on channel=0 note=66 velocity=0 time=0
note_on channel=0 note=63 velocity=40 time=0
note_on channel=0 note=48 velocity=35 time=0
note_on channel=0 note=46 velocity=0 time=110
note_on channel=0 note=69 velocity=0 time=0
note_on channel=0 note=63 velocity=0 time=0
note_on channel=0 note=48 velocity=0 time=0
note_on channel=0 note=58 velocity=44 time=0
note_on channel=0 note=70 velocity=65 time=0
note_on channel=0 note=50 velocity=41 time=0
note_on channel=0 note=46 velocity=41 time=0
control_change channel=0 control=64 value=0 time=0
control_change channel=0 control=64 value=127 time=75
note_on channel=0 note=50 velocity=0 time=45
note_on channel=0 note=58 velocity=0 time=0
note_on channel=0 note=60 velocity=41 time=0
note_on channel=0 note=51 velocity=34 time=0
note_on channel=0 note=51 velocity=0 time=0
note_on channel=0 note=60 velocity=0 time=0
note_on channel=0 note=62 velocity=46 time=0
note_on channel=0 note=53 velocity=41 time=0
control_change channel=0 control=64 value=0 time=8
control_change channel=0 control=64 value=127 time=49
note_on channel=0 note=53 velocity=0 time=63
note_on channel=0 note=62 velocity=0 time=0
note_on channel=0 note=60 velocity=40 time=0
note_on channel=0 note=51 velocity=36 time=0
note_on channel=0 note=51 velocity=0 time=120
note_on channel=0 note=60 velocity=0 time=0
note_on channel=0 note=58 velocity=45 time=0
note_on channel=0 note=50 velocity=41 time=0
control_change channel=0 control=64 value=0 time=8
control_change channel=0 control=64 value=127 time=55
note_on channel=0 note=50 velocity=0 time=0
note_on channel=0 note=58 velocity=0 time=0
note_on channel=0 note=60 velocity=43 time=0
note_on channel=0 note=51 velocity=37 time=0
note_on channel=0 note=51 velocity=0 time=0
note_on channel=0 note=60 velocity=0 time=0
note_on channel=0 note=62 velocity=44 time=0
note_on channel=0 note=53 velocity=41 time=0
control_change channel=0 control=64 value=0 time=7
control_change channel=0 control=64 value=127 time=50
note_on channel=0 note=53 velocity=0 time=63
note_on channel=0 note=62 velocity=0 time=0
note_on channel=0 note=63 velocity=39 time=0
note_on channel=0 note=54 velocity=34 time=0
note_on channel=0 note=54 velocity=0 time=0
note_on channel=0 note=63 velocity=0 time=0
note_on channel=0 note=65 velocity=46 time=0
note_on channel=0 note=56 velocity=41 time=0
control_change channel=0 control=64 value=0 time=8
control_change channel=0 control=64 value=127 time=61
note_on channel=0 note=56 velocity=0 time=51
note_on channel=0 note=65 velocity=0 time=0
note_on channel=0 note=63 velocity=41 time=0
note_on channel=0 note=54 velocity=36 time=0
note_on channel=0 note=54 velocity=0 time=120
note_on channel=0 note=63 velocity=0 time=0
note_on channel=0 note=62 velocity=44 time=0
note_on channel=0 note=53 velocity=41 time=0
control_change channel=0 control=64 value=0 time=14
control_change channel=0 control=64 value=127 time=72
note_on channel=0 note=53 velocity=0 time=0
note_on channel=0 note=62 velocity=0 time=0
note_on channel=0 note=65 velocity=37 time=0
note_on channel=0 note=56 velocity=37 time=0
note_on channel=0 note=56 velocity=0 time=0
note_on channel=0 note=65 velocity=0 time=0
note_on channel=0 note=63 velocity=44 time=0
note_on channel=0 note=54 velocity=41 time=0
control_change channel=0 control=64 value=0 time=18
control_change channel=0 control=64 value=127 time=45
note_on channel=0 note=54 velocity=0 time=57
note_on channel=0 note=63 velocity=0 time=0
note_on channel=0 note=62 velocity=40 time=0
note_on channel=0 note=53 velocity=38 time=0
note_on channel=0 note=46 velocity=0 time=110
note_on channel=0 note=70 velocity=0 time=0
note_on channel=0 note=62 velocity=0 time=0
note_on channel=0 note=53 velocity=0 time=0
note_on channel=0 note=69 velocity=60 time=0
note_on channel=0 note=60 velocity=44 time=0
note_on channel=0 note=46 velocity=39 time=0
note_on channel=0 note=51 velocity=41 time=0
control_change channel=0 control=64 value=0 time=11
control_change channel=0 control=64 value=127 time=52
note_on channel=0 note=51 velocity=0 time=57
note_on channel=0 note=60 velocity=0 time=0
note_on channel=0 note=62 velocity=40 time=0
note_on channel=0 note=53 velocity=35 time=0
note_on channel=0 note=46 velocity=0 time=110
note_on channel=0 note=69 velocity=0 time=0
note_on channel=0 note=62 velocity=0 time=10
note_on channel=0 note=53 velocity=0 time=0
note_on channel=0 note=63 velocity=44 time=0
note_on channel=0 note=69 velocity=60 time=0
note_on channel=0 note=46 velocity=39 time=0
note_on channel=0 note=54 velocity=41 time=0
control_change channel=0 control=64 value=0 time=7
control_change channel=0 control=64 value=127 time=62
note_on channel=0 note=54 velocity=0 time=0
note_on channel=0 note=63 velocity=0 time=0
note_on channel=0 note=60 velocity=40 time=0
note_on channel=0 note=51 velocity=35 time=0
note_on channel=0 note=46 velocity=0 time=110
note_on channel=0 note=69 velocity=0 time=0
note_on channel=0 note=60 velocity=0 time=0
note_on channel=0 note=51 velocity=0 time=0
note_on channel=0 note=58 velocity=44 time=0
note_on channel=0 note=46 velocity=39 time=0
note_on channel=0 note=50 velocity=39 time=0
note_on channel=0 note=53 velocity=39 time=0
control_change channel=0 control=64 value=0 time=0
control_change channel=0 control=64 value=127 time=57
note_on channel=0 note=58 velocity=0 time=63
note_on channel=0 note=60 velocity=37 time=0
note_on channel=0 note=60 velocity=0 time=120
note_on channel=0 note=62 velocity=44 time=0
control_change channel=0 control=64 value=0 time=15
control_change channel=0 control=64 value=127 time=60
note_on channel=0 note=62 velocity=0 time=45
note_on channel=0 note=61 velocity=38 time=0
note_on channel=0 note=61 velocity=0 time=120
note_on channel=0 note=53 velocity=0 time=0
note_on channel=0 note=50 velocity=0 time=0
note_on channel=0 note=46 velocity=0 time=0
note_on channel=0 note=62 velocity=41 time=0
control_change channel=0 control=64 value=0 time=15
control_change channel=0 control=64 value=127 time=60
note_on channel=0 note=62 velocity=0 time=0
note_on channel=0 note=58 velocity=34 time=0
control_change channel=0 control=64 value=0 time=80
note_on channel=0 note=58 velocity=0 time=0
note_on channel=0 note=62 velocity=44 time=0
note_on channel=0 note=64 velocity=39 time=120
note_on channel=0 note=62 velocity=0 time=12
note_on channel=0 note=65 velocity=40 time=108
note_on channel=0 note=64 velocity=0 time=12
note_on channel=0 note=64 velocity=33 time=108
note_on channel=0 note=65 velocity=0 time=12
note_on channel=0 note=65 velocity=39 time=108
note_on channel=0 note=64 velocity=0 time=12
note_on channel=0 note=62 velocity=34 time=0
note_on channel=0 note=65 velocity=0 time=12
note_on channel=0 note=65 velocity=47 time=0
note_on channel=0 note=62 velocity=0 time=12
note_on channel=0 note=67 velocity=43 time=108
note_on channel=0 note=65 velocity=0 time=12
note_on channel=0 note=68 velocity=50 time=108
note_on channel=0 note=67 velocity=0 time=12
note_on channel=0 note=67 velocity=42 time=108
note_on channel=0 note=68 velocity=0 time=12
note_on channel=0 note=68 velocity=53 time=108
note_on channel=0 note=67 velocity=0 time=12
note_on channel=0 note=65 velocity=37 time=0
note_on channel=0 note=68 velocity=0 time=12
note_on channel=0 note=68 velocity=41 time=0
note_on channel=0 note=65 velocity=0 time=12
note_on channel=0 note=71 velocity=36 time=108
note_on channel=0 note=68 velocity=0 time=12
note_on channel=0 note=72 velocity=41 time=108
note_on channel=0 note=71 velocity=0 time=12
note_on channel=0 note=71 velocity=37 time=0
note_on channel=0 note=72 velocity=0 time=12
note_on channel=0 note=74 velocity=41 time=0
note_on channel=0 note=71 velocity=0 time=12
note_on channel=0 note=72 velocity=36 time=108
note_on channel=0 note=74 velocity=0 time=12
note_on channel=0 note=70 velocity=41 time=108
note_on channel=0 note=72 velocity=0 time=12
note_on channel=0 note=68 velocity=36 time=108
note_on channel=0 note=70 velocity=0 time=12
note_on channel=0 note=67 velocity=41 time=108
note_on channel=0 note=68 velocity=0 time=12
note_on channel=0 note=65 velocity=35 time=108
note_on channel=0 note=67 velocity=0 time=12
note_on channel=0 note=64 velocity=35 time=108
note_on channel=0 note=65 velocity=0 time=12
note_on channel=0 note=65 velocity=29 time=0
note_on channel=0 note=64 velocity=0 time=12
note_on channel=0 note=67 velocity=41 time=0
note_on channel=0 note=65 velocity=0 time=12
note_on channel=0 note=65 velocity=36 time=0
note_on channel=0 note=67 velocity=0 time=12
note_on channel=0 note=68 velocity=41 time=0
note_on channel=0 note=65 velocity=0 time=12
note_on channel=0 note=65 velocity=32 time=108
note_on channel=0 note=68 velocity=0 time=12
note_on channel=0 note=60 velocity=38 time=0
note_on channel=0 note=65 velocity=0 time=12
note_on channel=0 note=62 velocity=32 time=0
note_on channel=0 note=60 velocity=0 time=12
note_on channel=0 note=62 velocity=0 time=0
note_on channel=0 note=63 velocity=38 time=0
note_on channel=0 note=39 velocity=25 time=0
note_on channel=0 note=39 velocity=0 time=216
note_on channel=0 note=58 velocity=20 time=24
note_on channel=0 note=55 velocity=17 time=0
note_on channel=0 note=51 velocity=17 time=0
note_on channel=0 note=51 velocity=0 time=216
note_on channel=0 note=55 velocity=0 time=0
note_on channel=0 note=58 velocity=0 time=0
note_on channel=0 note=63 velocity=0 time=24
note_on channel=0 note=51 velocity=17 time=0
note_on channel=0 note=55 velocity=17 time=0
note_on channel=0 note=58 velocity=20 time=0
note_on channel=0 note=58 velocity=0 time=216
note_on channel=0 note=55 velocity=0 time=0
note_on channel=0 note=51 velocity=0 time=0
note_on channel=0 note=51 velocity=19 time=24
note_on channel=0 note=55 velocity=19 time=0
note_on channel=0 note=58 velocity=23 time=0
note_on channel=0 note=58 velocity=0 time=216
note_on channel=0 note=55 velocity=0 time=0
note_on channel=0 note=51 velocity=0 time=0
note_on channel=0 note=55 velocity=17 time=24
note_on channel=0 note=51 velocity=17 time=0
note_on channel=0 note=58 velocity=20 time=0
note_on channel=0 note=58 velocity=0 time=216
note_on channel=0 note=51 velocity=0 time=0
note_on channel=0 note=55 velocity=0 time=0
note_on channel=0 note=51 velocity=17 time=24
note_on channel=0 note=55 velocity=17 time=0
note_on channel=0 note=58 velocity=20 time=0
note_on channel=0 note=58 velocity=0 time=216
note_on channel=0 note=55 velocity=0 time=0
note_on channel=0 note=51 velocity=0 time=0
note_on channel=0 note=67 velocity=38 time=24
note_on channel=0 note=58 velocity=24 time=0
note_on channel=0 note=55 velocity=20 time=0
note_on channel=0 note=51 velocity=20 time=0
note_on channel=0 note=67 velocity=0 time=180
note_on channel=0 note=68 velocity=36 time=0
note_on channel=0 note=58 velocity=0 time=36
note_on channel=0 note=51 velocity=0 time=0
note_on channel=0 note=55 velocity=0 time=0
note_on channel=0 note=68 velocity=0 time=24
note_on channel=0 note=67 velocity=39 time=0
note_on channel=0 note=51 velocity=17 time=0
note_on channel=0 note=55 velocity=17 time=0
note_on channel=0 note=58 velocity=21 time=0
note_on channel=0 note=67 velocity=0 time=120
note_on channel=0 note=65 velocity=36 time=0
note_on channel=0 note=51 velocity=0 time=96
note_on channel=0 note=58 velocity=0 time=0
note_on channel=0 note=55 velocity=0 time=0
note_on channel=0 note=65 velocity=0 time=24
note_on channel=0 note=67 velocity=40 time=0
note_on channel=0 note=51 velocity=17 time=0
note_on channel=0 note=55 velocity=17 time=0
note_on channel=0 note=58 velocity=21 time=0
note_on channel=0 note=67 velocity=0 time=0
note_on channel=0 note=68 velocity=36 time=0
note_on channel=0 note=51 velocity=0 time=96
note_on channel=0 note=58 velocity=0 time=0
note_on channel=0 note=55 velocity=0 time=0
note_on channel=0 note=68 velocity=0 time=0
note_on channel=0 note=69 velocity=44 time=0
note_on channel=0 note=55 velocity=21 time=0
note_on channel=0 note=51 velocity=21 time=0
note_on channel=0 note=58 velocity=25 time=0
control_change channel=0 control=64 value=127 time=57
note_on channel=0 note=58 velocity=0 time=159
note_on channel=0 note=51 velocity=0 time=0
note_on channel=0 note=55 velocity=0 time=0
note_on channel=0 note=51 velocity=17 time=24
note_on channel=0 note=55 velocity=17 time=0
note_on channel=0 note=58 velocity=20 time=0
note_on channel=0 note=58 velocity=0 time=216
note_on channel=0 note=55 velocity=0 time=0
note_on channel=0 note=51 velocity=0 time=0
note_on channel=0 note=58 velocity=20 time=24
note_on channel=0 note=55 velocity=17 time=0
note_on channel=0 note=51 velocity=17 time=0
note_on channel=0 note=51 velocity=0 time=216
note_on channel=0 note=55 velocity=0 time=0
note_on channel=0 note=58 velocity=0 time=0
note_on channel=0 note=69 velocity=0 time=24
note_on channel=0 note=70 velocity=51 time=0
note_on channel=0 note=51 velocity=19 time=0
note_on channel=0 note=55 velocity=19 time=0
note_on channel=0 note=58 velocity=23 time=0
control_change channel=0 control=64 value=0 time=36
control_change channel=0 control=64 value=127 time=52
note_on channel=0 note=58 velocity=0 time=128
note_on channel=0 note=55 velocity=0 time=0
note_on channel=0 note=51 velocity=0 time=0
note_on channel=0 note=51 velocity=17 time=24
note_on channel=0 note=55 velocity=17 time=0
note_on channel=0 note=58 velocity=20 time=0
note_on channel=0 note=58 velocity=0 time=216
note_on channel=0 note=55 velocity=0 time=0
note_on channel=0 note=51 velocity=0 time=0
note_on channel=0 note=55 velocity=17 time=24
note_on channel=0 note=51 velocity=17 time=0
note_on channel=0 note=58 velocity=20 time=0
note_on channel=0 note=58 velocity=0 time=216
note_on channel=0 note=51 velocity=0 time=0
note_on channel=0 note=55 velocity=0 time=0
note_on channel=0 note=51 velocity=20 time=24
note_on channel=0 note=55 velocity=20 time=0
note_on channel=0 note=58 velocity=24 time=0
control_change channel=0 control=64 value=0 time=21
note_on channel=0 note=70 velocity=0 time=159
note_on channel=0 note=72 velocity=39 time=0
note_on channel=0 note=51 velocity=0 time=36
note_on channel=0 note=58 velocity=0 time=0
note_on channel=0 note=55 velocity=0 time=0
note_on channel=0 note=72 velocity=0 time=0
note_on channel=0 note=70 velocity=49 time=0
note_on channel=0 note=58 velocity=21 time=0
note_on channel=0 note=55 velocity=17 time=0
note_on channel=0 note=51 velocity=17 time=0
note_on channel=0 note=70 velocity=0 time=120
note_on channel=0 note=69 velocity=42 time=0
note_on channel=0 note=58 velocity=0 time=96
note_on channel=0 note=51 velocity=0 time=0
note_on channel=0 note=55 velocity=0 time=0
note_on channel=0 note=69 velocity=0 time=24
note_on channel=0 note=70 velocity=51 time=0
note_on channel=0 note=51 velocity=17 time=0
note_on channel=0 note=55 velocity=17 time=0
note_on channel=0 note=58 velocity=21 time=0
note_on channel=0 note=70 velocity=0 time=0
note_on channel=0 note=71 velocity=46 time=0
note_on channel=0 note=51 velocity=0 time=96
note_on channel=0 note=58 velocity=0 time=0
note_on channel=0 note=55 velocity=0 time=0
note_on channel=0 note=71 velocity=0 time=0
note_on channel=0 note=71 velocity=50 time=0
note_on channel=0 note=50 velocity=21 time=0
note_on channel=0 note=56 velocity=21 time=0
note_on channel=0 note=58 velocity=25 time=0
control_change channel=0 control=64 value=127 time=36
note_on channel=0 note=58 velocity=0 time=180
note_on channel=0 note=56 velocity=0 time=0
note_on channel=0 note=50 velocity=0 time=0
note_on channel=0 note=56 velocity=17 time=24
note_on channel=0 note=50 velocity=17 time=0
note_on channel=0 note=58 velocity=20 time=0
note_on channel=0 note=72 velocity=39 time=0
note_on channel=0 note=72 velocity=0 time=30
note_on channel=0 note=71 velocity=33 time=0
note_on channel=0 note=71 velocity=0 time=30
note_on channel=0 note=71 velocity=0 time=0
note_on channel=0 note=69 velocity=41 time=0
note_on channel=0 note=69 velocity=0 time=30
note_on channel=0 note=71 velocity=37 time=0
note_on channel=0 note=58 velocity=0 time=6
note_on channel=0 note=56 velocity=0 time=0
note_on channel=0 note=50 velocity=0 time=0
note_on channel=0 note=71 velocity=0 time=24
note_on channel=0 note=74 velocity=53 time=0
note_on channel=0 note=50 velocity=17 time=0
note_on channel=0 note=56 velocity=17 time=0
note_on channel=0 note=58 velocity=20 time=0
control_change channel=0 control=64 value=0 time=5
control_change channel=0 control=64 value=127 time=31
note_on channel=0 note=74 velocity=0 time=144
note_on channel=0 note=72 velocity=44 time=0
note_on channel=0 note=50 velocity=0 time=36
note_on channel=0 note=58 velocity=0 time=0
note_on channel=0 note=56 velocity=0 time=0
note_on channel=0 note=72 velocity=0 time=0
note_on channel=0 note=65 velocity=55 time=0
note_on channel=0 note=58 velocity=23 time=0
note_on channel=0 note=56 velocity=19 time=0
note_on channel=0 note=50 velocity=19 time=0
control_change channel=0 control=64 value=0 time=17
control_change channel=0 control=64 value=127 time=55
note_on channel=0 note=50 velocity=0 time=144
note_on channel=0 note=56 velocity=0 time=0
note_on channel=0 note=58 velocity=0 time=0
note_on channel=0 note=50 velocity=17 time=24
note_on channel=0 note=56 velocity=17 time=0
note_on channel=0 note=58 velocity=20 time=0
note_on channel=0 note=58 velocity=0 time=216
note_on channel=0 note=56 velocity=0 time=0
note_on channel=0 note=50 velocity=0 time=0
note_on channel=0 note=50 velocity=17 time=24
note_on channel=0 note=56 velocity=17 time=0
note_on channel=0 note=58 velocity=20 time=0
note_on channel=0 note=58 velocity=0 time=216
note_on channel=0 note=56 velocity=0 time=0
note_on channel=0 note=50 velocity=0 time=0
note_on channel=0 note=56 velocity=20 time=24
note_on channel=0 note=50 velocity=20 time=0
note_on channel=0 note=58 velocity=24 time=0
control_change channel=0 control=64 value=0 time=15
note_on channel=0 note=65 velocity=0 time=165
note_on channel=0 note=67 velocity=39 time=0
note_on channel=0 note=56 velocity=0 time=36
note_on channel=0 note=58 velocity=0 time=0
note_on channel=0 note=50 velocity=0 time=0
note_on channel=0 note=67 velocity=0 time=24
note_on channel=0 note=65 velocity=46 time=0
note_on channel=0 note=50 velocity=17 time=0
note_on channel=0 note=56 velocity=17 time=0
note_on channel=0 note=58 velocity=21 time=0
note_on channel=0 note=65 velocity=0 time=120
note_on channel=0 note=64 velocity=42 time=0
note_on channel=0 note=50 velocity=0 time=96
note_on channel=0 note=58 velocity=0 time=0
note_on channel=0 note=56 velocity=0 time=0
note_on channel=0 note=64 velocity=0 time=24
note_on channel=0 note=65 velocity=49 time=0
note_on channel=0 note=58 velocity=21 time=0
note_on channel=0 note=56 velocity=17 time=0
note_on channel=0 note=50 velocity=17 time=0
note_on channel=0 note=65 velocity=0 time=0
note_on channel=0 note=67 velocity=46 time=0
note_on channel=0 note=58 velocity=0 time=96
note_on channel=0 note=50 velocity=0 time=0
note_on channel=0 note=56 velocity=0 time=0
note_on channel=0 note=67 velocity=0 time=0
note_on channel=0 note=68 velocity=55 time=0
note_on channel=0 note=53 velocity=21 time=0
note_on channel=0 note=50 velocity=21 time=0
note_on channel=0 note=56 velocity=21 time=0
note_on channel=0 note=58 velocity=25 time=0
control_change channel=0 control=64 value=127 time=80
note_on channel=0 note=58 velocity=0 time=136
note_on channel=0 note=50 velocity=0 time=0
note_on channel=0 note=56 velocity=0 time=0
note_on channel=0 note=53 velocity=0 time=0
note_on channel=0 note=58 velocity=20 time=24
note_on channel=0 note=53 velocity=17 time=0
note_on channel=0 note=50 velocity=17 time=0
note_on channel=0 note=56 velocity=17 time=0
note_on channel=0 note=56 velocity=0 time=216
note_on channel=0 note=53 velocity=0 time=0
note_on channel=0 note=50 velocity=0 time=0
note_on channel=0 note=58 velocity=0 time=0
note_on channel=0 note=53 velocity=17 time=24
note_on channel=0 note=50 velocity=17 time=0
note_on channel=0 note=56 velocity=17 time=0
note_on channel=0 note=58 velocity=20 time=0
note_on channel=0 note=58 velocity=0 time=216
note_on channel=0 note=50 velocity=0 time=0
note_on channel=0 note=56 velocity=0 time=0
note_on channel=0 note=53 velocity=0 time=0
note_on channel=0 note=56 velocity=20 time=24
note_on channel=0 note=58 velocity=25 time=0
note_on channel=0 note=53 velocity=20 time=0
note_on channel=0 note=50 velocity=20 time=0
control_change channel=0 control=64 value=0 time=18
control_change channel=0 control=64 value=127 time=34
note_on channel=0 note=68 velocity=0 time=8
note_on channel=0 note=67 velocity=47 time=0
note_on channel=0 note=67 velocity=0 time=60
note_on channel=0 note=65 velocity=48 time=0
note_on channel=0 note=65 velocity=0 time=60
note_on channel=0 note=64 velocity=48 time=0
note_on channel=0 note=53 velocity=0 time=36
note_on channel=0 note=50 velocity=0 time=0
note_on channel=0 note=56 velocity=0 time=0
note_on channel=0 note=58 velocity=0 time=0
note_on channel=0 note=64 velocity=0 time=24
note_on channel=0 note=65 velocity=49 time=0
note_on channel=0 note=53 velocity=19 time=0
note_on channel=0 note=50 velocity=19 time=0
note_on channel=0 note=56 velocity=19 time=0
note_on channel=0 note=58 velocity=23 time=0
note_on channel=0 note=65 velocity=0 time=60
note_on channel=0 note=67 velocity=50 time=0
note_on channel=0 note=67 velocity=0 time=60
note_on channel=0 note=68 velocity=50 time=0
note_on channel=0 note=68 velocity=0 time=60
note_on channel=0 note=70 velocity=51 time=0
note_on channel=0 note=56 velocity=0 time=36
note_on channel=0 note=58 velocity=0 time=0
note_on channel=0 note=53 velocity=0 time=0
note_on channel=0 note=50 velocity=0 time=0
note_on channel=0 note=70 velocity=0 time=24
note_on channel=0 note=72 velocity=52 time=0
note_on channel=0 note=56 velocity=20 time=0
note_on channel=0 note=53 velocity=20 time=0
note_on channel=0 note=50 velocity=20 time=0
note_on channel=0 note=58 velocity=24 time=0
note_on channel=0 note=72 velocity=0 time=60
note_on channel=0 note=74 velocity=51 time=0
note_on channel=0 note=74 velocity=0 time=0
note_on channel=0 note=75 velocity=53 time=0
note_on channel=0 note=75 velocity=0 time=60
note_on channel=0 note=76 velocity=54 time=0
note_on channel=0 note=50 velocity=0 time=36
note_on channel=0 note=58 velocity=0 time=0
note_on channel=0 note=56 velocity=0 time=0
note_on channel=0 note=53 velocity=0 time=0
note_on channel=0 note=76 velocity=0 time=24
note_on channel=0 note=77 velocity=56 time=0
note_on channel=0 note=53 velocity=25 time=0
note_on channel=0 note=50 velocity=25 time=0
note_on channel=0 note=58 velocity=30 time=0
note_on channel=0 note=56 velocity=25 time=0
control_change channel=0 control=64 value=0 time=8
control_change channel=0 control=64 value=127 time=41
note_on channel=0 note=77 velocity=0 time=11
note_on channel=0 note=79 velocity=57 time=0
note_on channel=0 note=79 velocity=0 time=60
note_on channel=0 note=80 velocity=59 time=0
note_on channel=0 note=80 velocity=0 time=60
note_on channel=0 note=82 velocity=60 time=0
note_on channel=0 note=58 velocity=0 time=36
note_on channel=0 note=56 velocity=0 time=0
note_on channel=0 note=53 velocity=0 time=0
note_on channel=0 note=50 velocity=0 time=0
note_on channel=0 note=82 velocity=0 time=24
note_on channel=0 note=84 velocity=63 time=0
note_on channel=0 note=56 velocity=22 time=0
note_on channel=0 note=50 velocity=22 time=0
note_on channel=0 note=53 velocity=22 time=0
note_on channel=0 note=58 velocity=27 time=0
note_on channel=0 note=84 velocity=0 time=60
note_on channel=0 note=83 velocity=59 time=0
note_on channel=0 note=83 velocity=0 time=60
note_on channel=0 note=86 velocity=63 time=0
note_on channel=0 note=86 velocity=0 time=60
note_on channel=0 note=84 velocity=61 time=0
note_on channel=0 note=53 velocity=0 time=36
note_on channel=0 note=58 velocity=0 time=0
note_on channel=0 note=56 velocity=0 time=0
note_on channel=0 note=50 velocity=0 time=0
note_on channel=0 note=84 velocity=0 time=24
note_on channel=0 note=82 velocity=60 time=0
note_on channel=0 note=53 velocity=22 time=0
note_on channel=0 note=50 velocity=22 time=0
note_on channel=0 note=56 velocity=22 time=0
note_on channel=0 note=58 velocity=28 time=0
note_on channel=0 note=82 velocity=0 time=60
note_on channel=0 note=80 velocity=58 time=0
note_on channel=0 note=80 velocity=0 time=0
note_on channel=0 note=79 velocity=56 time=0
note_on channel=0 note=79 velocity=0 time=60
note_on channel=0 note=77 velocity=53 time=0
note_on channel=0 note=56 velocity=0 time=36
note_on channel=0 note=58 velocity=0 time=0
note_on channel=0 note=53 velocity=0 time=0
note_on channel=0 note=50 velocity=0 time=0
note_on channel=0 note=77 velocity=0 time=0
note_on channel=0 note=78 velocity=58 time=0
note_on channel=0 note=56 velocity=21 time=0
note_on channel=0 note=51 velocity=21 time=0
note_on channel=0 note=58 velocity=25 time=0
control_change channel=0 control=64 value=0 time=0
control_change channel=0 control=64 value=127 time=134
note_on channel=0 note=58 velocity=0 time=82
note_on channel=0 note=51 velocity=0 time=0
note_on channel=0 note=56 velocity=0 time=0
note_on channel=0 note=51 velocity=17 time=24
note_on channel=0 note=56 velocity=17 time=0
note_on channel=0 note=58 velocity=20 time=0
note_on channel=0 note=58 velocity=0 time=216
note_on channel=0 note=56 velocity=0 time=0
note_on channel=0 note=51 velocity=0 time=0
note_on channel=0 note=58 velocity=20 time=24
note_on channel=0 note=56 velocity=17 time=0
note_on channel=0 note=51 velocity=17 time=0
note_on channel=0 note=51 velocity=0 time=216
note_on channel=0 note=56 velocity=0 time=0
note_on channel=0 note=58 velocity=0 time=0
note_on channel=0 note=78 velocity=0 time=24
note_on channel=0 note=79 velocity=55 time=0
note_on channel=0 note=51 velocity=19 time=0
note_on channel=0 note=55 velocity=19 time=0
note_on channel=0 note=58 velocity=23 time=0
control_change channel=0 control=64 value=0 time=15
control_change channel=0 control=64 value=127 time=105
note_on channel=0 note=58 velocity=0 time=96
note_on channel=0 note=55 velocity=0 time=0
note_on channel=0 note=51 velocity=0 time=0
note_on channel=0 note=51 velocity=17 time=24
note_on channel=0 note=55 velocity=17 time=0
note_on channel=0 note=58 velocity=20 time=0
note_on channel=0 note=58 velocity=0 time=216
note_on channel=0 note=55 velocity=0 time=0
note_on channel=0 note=51 velocity=0 time=0
note_on channel=0 note=55 velocity=17 time=24
note_on channel=0 note=51 velocity=17 time=0
note_on channel=0 note=58 velocity=20 time=0
note_on channel=0 note=58 velocity=0 time=216
note_on channel=0 note=51 velocity=0 time=0
note_on channel=0 note=55 velocity=0 time=0
note_on channel=0 note=51 velocity=36 time=24
control_change channel=0 control=64 value=0 time=15
control_change channel=0 control=64 value=127 time=98
note_on channel=0 note=79 velocity=0 time=0
note_on channel=0 note=63 velocity=55 time=0
note_on channel=0 note=63 velocity=0 time=120
note_on channel=0 note=51 velocity=0 time=0
note_on channel=0 note=67 velocity=59 time=0
note_on channel=0 note=46 velocity=40 time=0
note_on channel=0 note=67 velocity=0 time=120
note_on channel=0 note=70 velocity=62 time=0
note_on channel=0 note=70 velocity=0 time=120
note_on channel=0 note=46 velocity=0 time=0
note_on channel=0 note=75 velocity=66 time=0
note_on channel=0 note=44 velocity=43 time=0
note_on channel=0 note=75 velocity=0 time=0
note_on channel=0 note=79 velocity=69 time=0
note_on channel=0 note=79 velocity=0 time=0
note_on channel=0 note=44 velocity=0 time=0
note_on channel=0 note=82 velocity=72 time=0
note_on channel=0 note=43 velocity=48 time=0
control_change channel=0 control=64 value=0 time=0
control_change channel=0 control=64 value=127 time=198
note_on channel=0 note=43 velocity=0 time=42
note_on channel=0 note=51 velocity=35 time=0
note_on channel=0 note=46 velocity=29 time=0
note_on channel=0 note=43 velocity=29 time=0
note_on channel=0 note=43 velocity=0 time=216
note_on channel=0 note=46 velocity=0 time=0
note_on channel=0 note=51 velocity=0 time=0
note_on channel=0 note=43 velocity=29 time=24
note_on channel=0 note=46 velocity=29 time=0
note_on channel=0 note=51 velocity=35 time=0
note_on channel=0 note=51 velocity=0 time=216
note_on channel=0 note=46 velocity=0 time=0
note_on channel=0 note=43 velocity=0 time=0
note_on channel=0 note=51 velocity=35 time=24
note_on channel=0 note=43 velocity=29 time=0
note_on channel=0 note=46 velocity=29 time=0
note_on channel=0 note=82 velocity=0 time=120
note_on channel=0 note=78 velocity=55 time=0
note_on channel=0 note=51 velocity=0 time=96
note_on channel=0 note=46 velocity=0 time=0
note_on channel=0 note=43 velocity=0 time=0
note_on channel=0 note=78 velocity=0 time=24
note_on channel=0 note=79 velocity=62 time=0
note_on channel=0 note=43 velocity=27 time=0
note_on channel=0 note=46 velocity=27 time=0
note_on channel=0 note=51 velocity=32 time=0
note_on channel=0 note=79 velocity=0 time=120
note_on channel=0 note=74 velocity=57 time=0
note_on channel=0 note=43 velocity=0 time=96
note_on channel=0 note=51 velocity=0 time=0
note_on channel=0 note=46 velocity=0 time=0
note_on channel=0 note=74 velocity=0 time=24
note_on channel=0 note=75 velocity=64 time=0
note_on channel=0 note=43 velocity=27 time=0
note_on channel=0 note=51 velocity=32 time=0
note_on channel=0 note=46 velocity=27 time=0
note_on channel=0 note=75 velocity=0 time=120
note_on channel=0 note=69 velocity=57 time=0
note_on channel=0 note=43 velocity=0 time=96
note_on channel=0 note=46 velocity=0 time=0
note_on channel=0 note=51 velocity=0 time=0
note_on channel=0 note=69 velocity=0 time=24
note_on channel=0 note=70 velocity=66 time=0
note_on channel=0 note=51 velocity=35 time=0
note_on channel=0 note=46 velocity=29 time=0
note_on channel=0 note=43 velocity=29 time=0
note_on channel=0 note=70 velocity=0 time=120
note_on channel=0 note=66 velocity=57 time=0
note_on channel=0 note=51 velocity=0 time=96
note_on channel=0 note=43 velocity=0 time=0
note_on channel=0 note=46 velocity=0 time=0
note_on channel=0 note=66 velocity=0 time=24
note_on channel=0 note=67 velocity=68 time=0
note_on channel=0 note=43 velocity=25 time=0
note_on channel=0 note=46 velocity=25 time=0
note_on channel=0 note=51 velocity=30 time=0
note_on channel=0 note=67 velocity=0 time=120
note_on channel=0 note=62 velocity=59 time=0
note_on channel=0 note=43 velocity=0 time=96
note_on channel=0 note=51 velocity=0 time=0
note_on channel=0 note=46 velocity=0 time=0
note_on channel=0 note=62 velocity=0 time=0
note_on channel=0 note=63 velocity=69 time=0
note_on channel=0 note=51 velocity=30 time=0
note_on channel=0 note=43 velocity=25 time=0
note_on channel=0 note=46 velocity=25 time=0
note_on channel=0 note=63 velocity=0 time=120
note_on channel=0 note=67 velocity=57 time=0
note_on channel=0 note=51 velocity=0 time=96
note_on channel=0 note=46 velocity=0 time=0
note_on channel=0 note=43 velocity=0 time=0
note_on channel=0 note=67 velocity=0 time=24
note_on channel=0 note=67 velocity=69 time=0
note_on channel=0 note=44 velocity=32 time=0
note_on channel=0 note=48 velocity=34 time=0
note_on channel=0 note=51 velocity=48 time=0
control_change channel=0 control=64 value=0 time=0
control_change channel=0 control=64 value=127 time=57
note_on channel=0 note=51 velocity=0 time=0
note_on channel=0 note=67 velocity=0 time=0
note_on channel=0 note=44 velocity=0 time=0
note_on channel=0 note=48 velocity=0 time=0
note_on channel=0 note=60 velocity=63 time=0
note_on channel=0 note=44 velocity=29 time=0
note_on channel=0 note=51 velocity=35 time=0
note_on channel=0 note=48 velocity=29 time=0
note_on channel=0 note=48 velocity=0 time=216
note_on channel=0 note=51 velocity=0 time=0
note_on channel=0 note=44 velocity=0 time=0
note_on channel=0 note=51 velocity=35 time=24
note_on channel=0 note=48 velocity=29 time=0
note_on channel=0 note=44 velocity=29 time=0
note_on channel=0 note=44 velocity=0 time=96
note_on channel=0 note=48 velocity=0 time=0
note_on channel=0 note=51 velocity=0 time=0
note_on channel=0 note=44 velocity=34 time=0
note_on channel=0 note=48 velocity=34 time=0
note_on channel=0 note=52 velocity=41 time=0
control_change channel=0 control=64 value=0 time=0
control_change channel=0 control=64 value=127 time=77
note_on channel=0 note=52 velocity=0 time=139
note_on channel=0 note=48 velocity=0 time=0
note_on channel=0 note=44 velocity=0 time=0
note_on channel=0 note=60 velocity=0 time=24
note_on channel=0 note=72 velocity=69 time=0
note_on channel=0 note=52 velocity=35 time=0
note_on channel=0 note=44 velocity=29 time=0
note_on channel=0 note=48 velocity=29 time=0
note_on channel=0 note=48 velocity=0 time=216
note_on channel=0 note=44 velocity=0 time=0
note_on channel=0 note=52 velocity=0 time=0
note_on channel=0 note=44 velocity=33 time=24
note_on channel=0 note=48 velocity=33 time=0
note_on channel=0 note=52 velocity=39 time=0
note_on channel=0 note=52 velocity=0 time=216
note_on channel=0 note=48 velocity=0 time=0
note_on channel=0 note=44 velocity=0 time=0
note_on channel=0 note=44 velocity=37 time=24
note_on channel=0 note=53 velocity=44 time=0
note_on channel=0 note=48 velocity=37 time=0
control_change channel=0 control=64 value=0 time=16
control_change channel=0 control=64 value=127 time=50
note_on channel=0 note=48 velocity=0 time=150
note_on channel=0 note=53 velocity=0 time=0
note_on channel=0 note=44 velocity=0 time=0
note_on channel=0 note=72 velocity=0 time=24
note_on channel=0 note=84 velocity=69 time=0
note_on channel=0 note=53 velocity=36 time=0
note_on channel=0 note=48 velocity=30 time=0
note_on channel=0 note=44 velocity=30 time=0
note_on channel=0 note=84 velocity=0 time=29
note_on channel=0 note=83 velocity=62 time=0
note_on channel=0 note=83 velocity=0 time=29
note_on channel=0 note=86 velocity=69 time=0
note_on channel=0 note=86 velocity=0 time=29
note_on channel=0 note=84 velocity=68 time=0
note_on channel=0 note=53 velocity=0 time=5
note_on channel=0 note=44 velocity=0 time=0
note_on channel=0 note=48 velocity=0 time=0
note_on channel=0 note=84 velocity=0 time=24
note_on channel=0 note=82 velocity=67 time=0
note_on channel=0 note=44 velocity=30 time=0
note_on channel=0 note=48 velocity=30 time=0
note_on channel=0 note=53 velocity=36 time=0
note_on channel=0 note=82 velocity=0 time=29
note_on channel=0 note=80 velocity=65 time=0
note_on channel=0 note=80 velocity=0 time=0
note_on channel=0 note=79 velocity=64 time=0
note_on channel=0 note=79 velocity=0 time=60
note_on channel=0 note=77 velocity=62 time=0
note_on channel=0 note=44 velocity=0 time=36
note_on channel=0 note=53 velocity=0 time=0
note_on channel=0 note=48 velocity=0 time=0
note_on channel=0 note=77 velocity=0 time=14
note_on channel=0 note=77 velocity=67 time=0
note_on channel=0 note=55 velocity=35 time=0
note_on channel=0 note=46 velocity=29 time=0
note_on channel=0 note=51 velocity=29 time=0
control_change channel=0 control=64 value=0 time=6
note_on channel=0 note=51 velocity=0 time=210
note_on channel=0 note=46 velocity=0 time=0
note_on channel=0 note=55 velocity=0 time=0
note_on channel=0 note=77 velocity=0 time=0
note_on channel=0 note=75 velocity=60 time=0
note_on channel=0 note=46 velocity=23 time=0
note_on channel=0 note=51 velocity=23 time=0
note_on channel=0 note=55 velocity=28 time=0
control_change channel=0 control=64 value=127 time=48
note_on channel=0 note=55 velocity=0 time=168
note_on channel=0 note=51 velocity=0 time=0
note_on channel=0 note=46 velocity=0 time=0
note_on channel=0 note=46 velocity=23 time=24
note_on channel=0 note=55 velocity=28 time=0
note_on channel=0 note=51 velocity=23 time=0
note_on channel=0 note=51 velocity=0 time=216
note_on channel=0 note=55 velocity=0 time=0
note_on channel=0 note=46 velocity=0 time=0
note_on channel=0 note=55 velocity=32 time=24
note_on channel=0 note=51 velocity=26 time=0
note_on channel=0 note=46 velocity=26 time=0
note_on channel=0 note=46 velocity=0 time=216
note_on channel=0 note=51 velocity=0 time=0
note_on channel=0 note=55 velocity=0 time=0
note_on channel=0 note=75 velocity=0 time=24
note_on channel=0 note=75 velocity=56 time=0
note_on channel=0 note=46 velocity=23 time=0
note_on channel=0 note=51 velocity=23 time=0
note_on channel=0 note=55 velocity=27 time=0
note_on channel=0 note=55 velocity=0 time=216
note_on channel=0 note=51 velocity=0 time=0
note_on channel=0 note=46 velocity=0 time=0
note_on channel=0 note=75 velocity=0 time=24
note_on channel=0 note=75 velocity=54 time=0
note_on channel=0 note=55 velocity=27 time=0
note_on channel=0 note=46 velocity=22 time=0
note_on channel=0 note=51 velocity=22 time=0
note_on channel=0 note=51 velocity=0 time=216
note_on channel=0 note=46 velocity=0 time=0
note_on channel=0 note=55 velocity=0 time=0
note_on channel=0 note=75 velocity=0 time=0
note_on channel=0 note=75 velocity=53 time=0
note_on channel=0 note=46 velocity=25 time=0
note_on channel=0 note=53 velocity=25 time=0
note_on channel=0 note=56 velocity=31 time=0
note_on channel=0 note=75 velocity=0 time=30
note_on channel=0 note=77 velocity=43 time=0
control_change channel=0 control=64 value=0 time=5
note_on channel=0 note=77 velocity=0 time=25
note_on channel=0 note=75 velocity=54 time=0
control_change channel=0 control=64 value=127 time=29
note_on channel=0 note=75 velocity=0 time=1
note_on channel=0 note=77 velocity=46 time=0
note_on channel=0 note=77 velocity=0 time=30
note_on channel=0 note=75 velocity=52 time=0
note_on channel=0 note=75 velocity=0 time=30
note_on channel=0 note=77 velocity=44 time=0
note_on channel=0 note=77 velocity=0 time=30
note_on channel=0 note=75 velocity=51 time=0
note_on channel=0 note=75 velocity=0 time=20
note_on channel=0 note=74 velocity=43 time=0
note_on channel=0 note=46 velocity=0 time=16
note_on channel=0 note=56 velocity=0 time=0
note_on channel=0 note=53 velocity=0 time=0
note_on channel=0 note=74 velocity=0 time=4
note_on channel=0 note=75 velocity=43 time=0
note_on channel=0 note=75 velocity=0 time=0
note_on channel=0 note=77 velocity=54 time=0
note_on channel=0 note=46 velocity=22 time=0
note_on channel=0 note=56 velocity=26 time=0
note_on channel=0 note=53 velocity=22 time=0
control_change channel=0 control=64 value=0 time=38
note_on channel=0 note=53 velocity=0 time=178
note_on channel=0 note=56 velocity=0 time=0
note_on channel=0 note=46 velocity=0 time=0
note_on channel=0 note=77 velocity=0 time=0
note_on channel=0 note=74 velocity=47 time=0
note_on channel=0 note=56 velocity=26 time=0
note_on channel=0 note=53 velocity=21 time=0
note_on channel=0 note=46 velocity=21 time=0
note_on channel=0 note=46 velocity=0 time=216
note_on channel=0 note=53 velocity=0 time=0
note_on channel=0 note=56 velocity=0 time=0
note_on channel=0 note=74 velocity=0 time=0
note_on channel=0 note=75 velocity=47 time=0
note_on channel=0 note=51 velocity=26 time=0
note_on channel=0 note=55 velocity=31 time=0
control_change channel=0 control=64 value=127 time=99
note_on channel=0 note=75 velocity=0 time=0
note_on channel=0 note=70 velocity=43 time=0
note_on channel=0 note=70 velocity=0 time=216
note_on channel=0 note=55 velocity=0 time=24
note_on channel=0 note=51 velocity=0 time=0
note_on channel=0 note=70 velocity=43 time=0
note_on channel=0 note=70 velocity=0 time=216
note_on channel=0 note=70 velocity=49 time=24
control_change channel=0 control=64 value=0 time=15
note_on channel=0 note=70 velocity=0 time=225
note_on channel=0 note=72 velocity=41 time=0
note_on channel=0 note=72 velocity=0 time=0
note_on channel=0 note=68 velocity=32 time=0
note_on channel=0 note=68 velocity=0 time=0
note_on channel=0 note=67 velocity=43 time=0
note_on channel=0 note=63 velocity=36 time=0
note_on channel=0 note=46 velocity=26 time=0
note_on channel=0 note=58 velocity=31 time=0
note_on channel=0 note=67 velocity=0 time=240
note_on channel=0 note=68 velocity=37 time=0
note_on channel=0 note=68 velocity=0 time=0
note_on channel=0 note=58 velocity=0 time=0
note_on channel=0 note=63 velocity=0 time=0
note_on channel=0 note=65 velocity=32 time=0
note_on channel=0 note=62 velocity=27 time=0
note_on channel=0 note=56 velocity=29 time=0
note_on channel=0 note=56 velocity=0 time=0
note_on channel=0 note=46 velocity=0 time=0
note_on channel=0 note=65 velocity=0 time=0
note_on channel=0 note=62 velocity=0 time=0
note_on channel=0 note=63 velocity=47 time=0
note_on channel=0 note=55 velocity=31 time=0
note_on channel=0 note=51 velocity=26 time=0
control_change channel=0 control=64 value=127 time=99
note_on channel=0 note=63 velocity=0 time=0
note_on channel=0 note=58 velocity=38 time=0
note_on channel=0 note=58 velocity=0 time=216
note_on channel=0 note=51 velocity=0 time=24
note_on channel=0 note=55 velocity=0 time=0
note_on channel=0 note=58 velocity=38 time=0
note_on channel=0 note=58 velocity=0 time=216
note_on channel=0 note=58 velocity=34 time=0
control_change channel=0 control=64 value=0 time=15
note_on channel=0 note=58 velocity=0 time=15
note_on channel=0 note=60 velocity=27 time=0
control_change channel=0 control=64 value=127 time=8
note_on channel=0 note=60 velocity=0 time=22
note_on channel=0 note=58 velocity=34 time=0
note_on channel=0 note=58 velocity=0 time=30
note_on channel=0 note=60 velocity=29 time=0
note_on channel=0 note=60 velocity=0 time=30
note_on channel=0 note=58 velocity=33 time=0
note_on channel=0 note=58 velocity=0 time=30
note_on channel=0 note=60 velocity=27 time=0
note_on channel=0 note=60 velocity=0 time=30
note_on channel=0 note=58 velocity=32 time=0
note_on channel=0 note=58 velocity=0 time=20
note_on channel=0 note=57 velocity=27 time=0
note_on channel=0 note=57 velocity=0 time=20
note_on channel=0 note=58 velocity=27 time=0
note_on channel=0 note=58 velocity=0 time=0
note_on channel=0 note=60 velocity=34 time=0
control_change channel=0 control=64 value=0 time=7
note_on channel=0 note=60 velocity=0 time=233
note_on channel=0 note=56 velocity=28 time=0
note_on channel=0 note=56 velocity=0 time=5
note_on channel=0 note=51 velocity=28 time=0
note_on channel=0 note=55 velocity=34 time=0
note_on channel=0 note=46 velocity=31 time=0
note_on channel=0 note=34 velocity=26 time=0
control_change channel=0 control=64 value=0 time=10
note_on channel=0 note=55 velocity=0 time=20
note_on channel=0 note=56 velocity=27 time=0
control_change channel=0 control=64 value=127 time=3
note_on channel=0 note=56 velocity=0 time=27
note_on channel=0 note=55 velocity=34 time=0
note_on channel=0 note=55 velocity=0 time=30
note_on channel=0 note=56 velocity=29 time=0
note_on channel=0 note=56 velocity=0 time=30
note_on channel=0 note=55 velocity=33 time=0
note_on channel=0 note=55 velocity=0 time=30
note_on channel=0 note=56 velocity=27 time=0
note_on channel=0 note=56 velocity=0 time=30
note_on channel=0 note=55 velocity=32 time=0
note_on channel=0 note=55 velocity=0 time=20
note_on channel=0 note=53 velocity=27 time=0
note_on channel=0 note=53 velocity=0 time=20
note_on channel=0 note=55 velocity=27 time=0
note_on channel=0 note=55 velocity=0 time=5
note_on channel=0 note=56 velocity=34 time=0
control_change channel=0 control=64 value=0 time=2
note_on channel=0 note=53 velocity=28 time=233
note_on channel=0 note=56 velocity=0 time=0
note_on channel=0 note=51 velocity=0 time=0
note_on channel=0 note=46 velocity=0 time=0
note_on channel=0 note=44 velocity=22 time=0
note_on channel=0 note=53 velocity=27 time=0
note_on channel=0 note=53 velocity=0 time=235
note_on channel=0 note=34 velocity=0 time=0
note_on channel=0 note=44 velocity=0 time=0
note_on channel=0 note=53 velocity=0 time=0
note_on channel=0 note=51 velocity=30 time=0
note_on channel=0 note=39 velocity=27 time=0
note_on channel=0 note=43 velocity=27 time=0
note_on channel=0 note=51 velocity=0 time=240
note_on channel=0 note=55 velocity=28 time=0
control_change channel=0 control=64 value=127 time=0
note_on channel=0 note=55 velocity=0 time=0
note_on channel=0 note=43 velocity=0 time=0
note_on channel=0 note=39 velocity=0 time=0
note_on channel=0 note=58 velocity=29 time=0
note_on channel=0 note=58 velocity=0 time=0
note_on channel=0 note=55 velocity=34 time=0
note_on channel=0 note=55 velocity=0 time=240
note_on channel=0 note=58 velocity=31 time=0
note_on channel=0 note=58 velocity=0 time=0
note_on channel=0 note=63 velocity=31 time=0
note_on channel=0 note=63 velocity=0 time=0
note_on channel=0 note=58 velocity=32 time=0
note_on channel=0 note=58 velocity=0 time=240
note_on channel=0 note=63 velocity=37 time=0
note_on channel=0 note=63 velocity=0 time=0
note_on channel=0 note=67 velocity=42 time=0
note_on channel=0 note=67 velocity=0 time=230
note_on channel=0 note=67 velocity=45 time=0
note_on channel=0 note=58 velocity=38 time=0
note_on channel=0 note=63 velocity=38 time=0
note_on channel=0 note=55 velocity=38 time=0
note_on channel=0 note=39 velocity=32 time=0
note_on channel=0 note=39 velocity=0 time=0
note_on channel=0 note=43 velocity=32 time=0
note_on channel=0 note=43 velocity=0 time=0
note_on channel=0 note=46 velocity=32 time=0
note_on channel=0 note=46 velocity=0 time=0
note_on channel=0 note=51 velocity=36 time=0
note_on channel=0 note=63 velocity=0 time=230
note_on channel=0 note=55 velocity=0 time=0
note_on channel=0 note=67 velocity=0 time=0
note_on channel=0 note=58 velocity=0 time=0
note_on channel=0 note=51 velocity=0 time=0
note_on channel=0 note=67 velocity=43 time=0
note_on channel=0 note=63 velocity=36 time=0
note_on channel=0 note=58 velocity=36 time=0
note_on channel=0 note=55 velocity=38 time=0
note_on channel=0 note=58 velocity=0 time=230
note_on channel=0 note=67 velocity=0 time=0
note_on channel=0 note=63 velocity=0 time=0
note_on channel=0 note=55 velocity=0 time=0
note_on channel=0 note=63 velocity=35 time=0
note_on channel=0 note=67 velocity=42 time=0
note_on channel=0 note=58 velocity=40 time=0
note_on channel=0 note=58 velocity=0 time=230
note_on channel=0 note=67 velocity=0 time=0
note_on channel=0 note=63 velocity=0 time=0
note_on channel=0 note=63 velocity=23 time=0
note_on channel=0 note=67 velocity=34 time=0
note_on channel=0 note=46 velocity=36 time=0
note_on channel=0 note=58 velocity=43 time=0
control_change channel=0 control=64 value=0 time=13
note_on channel=0 note=67 velocity=0 time=17
note_on channel=0 note=68 velocity=27 time=0
note_on channel=0 note=68 velocity=0 time=30
note_on channel=0 note=67 velocity=34 time=0
control_change channel=0 control=64 value=127 time=0
note_on channel=0 note=67 velocity=0 time=30
note_on channel=0 note=68 velocity=29 time=0
note_on channel=0 note=68 velocity=0 time=30
note_on channel=0 note=67 velocity=33 time=0
note_on channel=0 note=67 velocity=0 time=30
note_on channel=0 note=68 velocity=27 time=0
note_on channel=0 note=68 velocity=0 time=30
note_on channel=0 note=67 velocity=32 time=0
note_on channel=0 note=67 velocity=0 time=20
note_on channel=0 note=65 velocity=27 time=0
note_on channel=0 note=65 velocity=0 time=20
note_on channel=0 note=67 velocity=27 time=0
note_on channel=0 note=67 velocity=0 time=0
note_on channel=0 note=65 velocity=38 time=0
note_on channel=0 note=68 velocity=45 time=0
control_change channel=0 control=64 value=0 time=10
control_change channel=0 control=64 value=127 time=38
note_on channel=0 note=68 velocity=0 time=0
note_on channel=0 note=63 velocity=0 time=0
note_on channel=0 note=58 velocity=0 time=0
note_on channel=0 note=46 velocity=0 time=0
note_on channel=0 note=65 velocity=0 time=0
note_on channel=0 note=62 velocity=32 time=0
note_on channel=0 note=65 velocity=38 time=0
note_on channel=0 note=58 velocity=32 time=0
note_on channel=0 note=46 velocity=33 time=0
note_on channel=0 note=56 velocity=39 time=0
control_change channel=0 control=64 value=0 time=10
control_change channel=0 control=64 value=127 time=44
note_on channel=0 note=56 velocity=0 time=176
note_on channel=0 note=58 velocity=0 time=0
note_on channel=0 note=62 velocity=0 time=0
note_on channel=0 note=65 velocity=0 time=0
note_on channel=0 note=46 velocity=0 time=0
note_on channel=0 note=62 velocity=28 time=0
note_on channel=0 note=65 velocity=34 time=0
note_on channel=0 note=58 velocity=28 time=0
note_on channel=0 note=56 velocity=38 time=0
note_on channel=0 note=51 velocity=32 time=0
control_change channel=0 control=64 value=0 time=0
control_change channel=0 control=64 value=127 time=254
note_on channel=0 note=56 velocity=0 time=466
note_on channel=0 note=65 velocity=0 time=0
note_on channel=0 note=62 velocity=0 time=0
note_on channel=0 note=63 velocity=32 time=0
note_on channel=0 note=55 velocity=30 time=0
control_change channel=0 control=64 value=0 time=15
note_on channel=0 note=55 velocity=0 time=225
note_on channel=0 note=51 velocity=0 time=0
note_on channel=0 note=58 velocity=0 time=0
note_on channel=0 note=63 velocity=0 time=0
note_on channel=0 note=58 velocity=43 time=0
note_on channel=0 note=54 velocity=36 time=0
note_on channel=0 note=54 velocity=0 time=240
note_on channel=0 note=58 velocity=0 time=0
note_on channel=0 note=58 velocity=40 time=0
note_on channel=0 note=63 velocity=48 time=0
control_change channel=0 control=64 value=127 time=0
note_on channel=0 note=63 velocity=0 time=240
note_on channel=0 note=58 velocity=0 time=0
note_on channel=0 note=66 velocity=54 time=0
note_on channel=0 note=63 velocity=45 time=0
note_on channel=0 note=66 velocity=0 time=230
note_on channel=0 note=63 velocity=0 time=10
note_on channel=0 note=66 velocity=51 time=0
note_on channel=0 note=70 velocity=60 time=0
note_on channel=0 note=39 velocity=37 time=0
note_on channel=0 note=39 velocity=0 time=0
note_on channel=0 note=42 velocity=40 time=0
note_on channel=0 note=42 velocity=0 time=0
note_on channel=0 note=46 velocity=44 time=0
note_on channel=0 note=46 velocity=0 time=0
note_on channel=0 note=51 velocity=49 time=0
note_on channel=0 note=51 velocity=0 time=0
note_on channel=0 note=75 velocity=70 time=0
note_on channel=0 note=54 velocity=53 time=0
note_on channel=0 note=75 velocity=0 time=219
note_on channel=0 note=54 velocity=0 time=0
note_on channel=0 note=75 velocity=64 time=0
note_on channel=0 note=58 velocity=57 time=0
note_on channel=0 note=75 velocity=0 time=219
note_on channel=0 note=58 velocity=0 time=11
note_on channel=0 note=75 velocity=67 time=0
note_on channel=0 note=63 velocity=62 time=0
control_change channel=0 control=64 value=0 time=13
control_change channel=0 control=64 value=127 time=47
note_on channel=0 note=75 velocity=0 time=168
note_on channel=0 note=66 velocity=0 time=0
note_on channel=0 note=70 velocity=0 time=0
note_on channel=0 note=63 velocity=0 time=0
note_on channel=0 note=68 velocity=44 time=0
note_on channel=0 note=75 velocity=57 time=0
note_on channel=0 note=59 velocity=58 time=0
control_change channel=0 control=64 value=0 time=10
control_change channel=0 control=64 value=127 time=38
note_on channel=0 note=75 velocity=0 time=180
note_on channel=0 note=59 velocity=0 time=0
note_on channel=0 note=68 velocity=0 time=0
note_on channel=0 note=70 velocity=50 time=0
note_on channel=0 note=66 velocity=50 time=0
note_on channel=0 note=75 velocity=64 time=0
note_on channel=0 note=58 velocity=54 time=0
control_change channel=0 control=64 value=0 time=10
control_change channel=0 control=64 value=127 time=44
note_on channel=0 note=75 velocity=0 time=174
note_on channel=0 note=70 velocity=0 time=2
note_on channel=0 note=66 velocity=0 time=0
note_on channel=0 note=58 velocity=0 time=0
note_on channel=0 note=75 velocity=68 time=0
note_on channel=0 note=71 velocity=45 time=0
note_on channel=0 note=65 velocity=45 time=0
note_on channel=0 note=56 velocity=53 time=0
control_change channel=0 control=64 value=0 time=0
control_change channel=0 control=64 value=127 time=254
note_on channel=0 note=75 velocity=0 time=226
note_on channel=0 note=73 velocity=38 time=0
note_on channel=0 note=73 velocity=0 time=0
note_on channel=0 note=56 velocity=0 time=0
note_on channel=0 note=65 velocity=0 time=0
note_on channel=0 note=71 velocity=0 time=0
note_on channel=0 note=53 velocity=43 time=0
control_change channel=0 control=64 value=0 time=15
control_change channel=0 control=64 value=127 time=155
note_on channel=0 note=68 velocity=34 time=0
note_on channel=0 note=75 velocity=40 time=0
note_on channel=0 note=71 velocity=34 time=0
note_on channel=0 note=75 velocity=0 time=0
note_on channel=0 note=73 velocity=29 time=0
note_on channel=0 note=73 velocity=0 time=0
note_on channel=0 note=71 velocity=0 time=0
note_on channel=0 note=68 velocity=0 time=0
note_on channel=0 note=53 velocity=0 time=0
note_on channel=0 note=54 velocity=40 time=0
control_change channel=0 control=64 value=0 time=3
control_change channel=0 control=64 value=127 time=110
note_on channel=0 note=75 velocity=40 time=0
note_on channel=0 note=66 velocity=34 time=0
note_on channel=0 note=70 velocity=34 time=0
note_on channel=0 note=75 velocity=0 time=0
note_on channel=0 note=73 velocity=27 time=0
note_on channel=0 note=73 velocity=0 time=0
note_on channel=0 note=70 velocity=0 time=0
note_on channel=0 note=66 velocity=0 time=0
note_on channel=0 note=54 velocity=0 time=0
note_on channel=0 note=47 velocity=32 time=0
control_change channel=0 control=64 value=0 time=3
control_change channel=0 control=64 value=127 time=110
note_on channel=0 note=73 velocity=40 time=0
note_on channel=0 note=68 velocity=34 time=0
note_on channel=0 note=63 velocity=34 time=0
note_on channel=0 note=73 velocity=0 time=0
note_on channel=0 note=71 velocity=27 time=0
note_on channel=0 note=71 velocity=0 time=0
note_on channel=0 note=63 velocity=0 time=0
note_on channel=0 note=68 velocity=0 time=0
note_on channel=0 note=47 velocity=0 time=0
note_on channel=0 note=49 velocity=32 time=0
control_change channel=0 control=64 value=0 time=3
control_change channel=0 control=64 value=127 time=110
note_on channel=0 note=61 velocity=34 time=0
note_on channel=0 note=71 velocity=40 time=0
note_on channel=0 note=66 velocity=34 time=0
note_on channel=0 note=71 velocity=0 time=0
note_on channel=0 note=70 velocity=27 time=0
note_on channel=0 note=70 velocity=0 time=0
note_on channel=0 note=66 velocity=0 time=0
note_on channel=0 note=61 velocity=0 time=0
note_on channel=0 note=49 velocity=0 time=0
note_on channel=0 note=37 velocity=32 time=0
control_change channel=0 control=64 value=0 time=3
control_change channel=0 control=64 value=127 time=110
note_on channel=0 note=70 velocity=40 time=0
note_on channel=0 note=65 velocity=34 time=0
note_on channel=0 note=59 velocity=34 time=0
note_on channel=0 note=70 velocity=0 time=0
note_on channel=0 note=68 velocity=27 time=0
note_on channel=0 note=65 velocity=0 time=230
note_on channel=0 note=59 velocity=0 time=0
note_on channel=0 note=37 velocity=0 time=0
note_on channel=0 note=68 velocity=0 time=0
note_on channel=0 note=68 velocity=45 time=0
note_on channel=0 note=59 velocity=68 time=0
note_on channel=0 note=65 velocity=45 time=0
note_on channel=0 note=38 velocity=53 time=0
control_change channel=0 control=64 value=0 time=0
control_change channel=0 control=64 value=127 time=254
note_on channel=0 note=59 velocity=0 time=226
note_on channel=0 note=58 velocity=38 time=0
control_change channel=0 control=64 value=0 time=15
note_on channel=0 note=58 velocity=0 time=0
note_on channel=0 note=38 velocity=0 time=0
note_on channel=0 note=65 velocity=0 time=0
note_on channel=0 note=68 velocity=0 time=0
note_on channel=0 note=50 velocity=43 time=0
control_change channel=0 control=64 value=127 time=170
note_on channel=0 note=68 velocity=34 time=0
note_on channel=0 note=59 velocity=40 time=0
note_on channel=0 note=65 velocity=34 time=0
note_on channel=0 note=59 velocity=0 time=0
note_on channel=0 note=58 velocity=29 time=0
note_on channel=0 note=58 velocity=0 time=0
note_on channel=0 note=65 velocity=0 time=0
note_on channel=0 note=68 velocity=0 time=0
note_on channel=0 note=50 velocity=0 time=0
note_on channel=0 note=51 velocity=40 time=0
control_change channel=0 control=64 value=0 time=3
control_change channel=0 control=64 value=127 time=110
note_on channel=0 note=66 velocity=34 time=0
note_on channel=0 note=59 velocity=40 time=0
note_on channel=0 note=63 velocity=34 time=0
note_on channel=0 note=59 velocity=0 time=0
note_on channel=0 note=58 velocity=27 time=0
note_on channel=0 note=58 velocity=0 time=0
note_on channel=0 note=63 velocity=0 time=0
note_on channel=0 note=66 velocity=0 time=0
note_on channel=0 note=51 velocity=0 time=0
note_on channel=0 note=44 velocity=32 time=0
control_change channel=0 control=64 value=0 time=3
control_change channel=0 control=64 value=127 time=110
note_on channel=0 note=66 velocity=40 time=0
note_on channel=0 note=56 velocity=34 time=0
note_on channel=0 note=59 velocity=34 time=0
note_on channel=0 note=66 velocity=0 time=0
note_on channel=0 note=64 velocity=27 time=0
note_on channel=0 note=64 velocity=0 time=0
note_on channel=0 note=59 velocity=0 time=0
note_on channel=0 note=56 velocity=0 time=0
note_on channel=0 note=44 velocity=0 time=0
note_on channel=0 note=45 velocity=32 time=0
control_change channel=0 control=64 value=0 time=3
control_change channel=0 control=64 value=127 time=110
note_on channel=0 note=54 velocity=34 time=0
note_on channel=0 note=64 velocity=40 time=0
note_on channel=0 note=60 velocity=34 time=0
note_on channel=0 note=64 velocity=0 time=0
note_on channel=0 note=63 velocity=27 time=0
note_on channel=0 note=63 velocity=0 time=0
note_on channel=0 note=60 velocity=0 time=0
note_on channel=0 note=54 velocity=0 time=0
note_on channel=0 note=45 velocity=0 time=0
note_on channel=0 note=46 velocity=32 time=0
control_change channel=0 control=64 value=0 time=3
control_change channel=0 control=64 value=127 time=110
note_on channel=0 note=53 velocity=34 time=0
note_on channel=0 note=63 velocity=40 time=0
note_on channel=0 note=56 velocity=34 time=0
note_on channel=0 note=63 velocity=0 time=0
note_on channel=0 note=62 velocity=27 time=0
note_on channel=0 note=62 velocity=0 time=0
note_on channel=0 note=56 velocity=0 time=0
note_on channel=0 note=53 velocity=0 time=0
note_on channel=0 note=46 velocity=0 time=0
note_on channel=0 note=63 velocity=34 time=0
note_on channel=0 note=55 velocity=34 time=0
note_on channel=0 note=39 velocity=35 time=0
control_change channel=0 control=64 value=0 time=0
control_change channel=0 control=64 value=127 time=113
note_on channel=0 note=51 velocity=29 time=127
note_on channel=0 note=51 velocity=0 time=216
note_on channel=0 note=63 velocity=0 time=24
note_on channel=0 note=55 velocity=0 time=0
note_on channel=0 note=51 velocity=29 time=0
note_on channel=0 note=51 velocity=0 time=216
note_on channel=0 note=51 velocity=32 time=24
control_change channel=0 control=64 value=0 time=21
control_change channel=0 control=64 value=127 time=99
note_on channel=0 note=51 velocity=0 time=96
note_on channel=0 note=51 velocity=29 time=24
note_on channel=0 note=51 velocity=0 time=216
note_on channel=0 note=51 velocity=29 time=0
note_on channel=0 note=51 velocity=0 time=216
note_on channel=0 note=79 velocity=57 time=0
note_on channel=0 note=51 velocity=32 time=0
note_on channel=0 note=51 velocity=0 time=216
note_on channel=0 note=51 velocity=27 time=24
note_on channel=0 note=51 velocity=0 time=216
note_on channel=0 note=79 velocity=0 time=0
note_on channel=0 note=77 velocity=48 time=0
note_on channel=0 note=51 velocity=27 time=0
control_change channel=0 control=64 value=0 time=5
control_change channel=0 control=64 value=127 time=73
note_on channel=0 note=77 velocity=0 time=0
note_on channel=0 note=75 velocity=47 time=0
note_on channel=0 note=51 velocity=0 time=96
note_on channel=0 note=75 velocity=0 time=0
note_on channel=0 note=39 velocity=0 time=0
note_on channel=0 note=65 velocity=30 time=0
note_on channel=0 note=75 velocity=54 time=0
note_on channel=0 note=68 velocity=35 time=0
note_on channel=0 note=51 velocity=32 time=0
control_change channel=0 control=64 value=0 time=6
control_change channel=0 control=64 value=127 time=74
note_on channel=0 note=51 velocity=0 time=136
note_on channel=0 note=75 velocity=0 time=24
note_on channel=0 note=74 velocity=47 time=0
note_on channel=0 note=51 velocity=28 time=0
control_change channel=0 control=64 value=0 time=10
control_change channel=0 control=64 value=127 time=53
note_on channel=0 note=51 velocity=0 time=153
note_on channel=0 note=68 velocity=0 time=14
note_on channel=0 note=74 velocity=0 time=0
note_on channel=0 note=65 velocity=0 time=0
note_on channel=0 note=72 velocity=51 time=0
note_on channel=0 note=68 velocity=37 time=0
note_on channel=0 note=63 velocity=43 time=0
note_on channel=0 note=51 velocity=28 time=0
control_change channel=0 control=64 value=0 time=19
control_change channel=0 control=64 value=127 time=61
note_on channel=0 note=63 velocity=0 time=0
note_on channel=0 note=72 velocity=0 time=0
note_on channel=0 note=70 velocity=43 time=0
note_on channel=0 note=62 velocity=36 time=0
control_change channel=0 control=64 value=0 time=10
note_on channel=0 note=51 velocity=0 time=86
note_on channel=0 note=68 velocity=0 time=14
note_on channel=0 note=70 velocity=0 time=0
note_on channel=0 note=62 velocity=0 time=0
note_on channel=0 note=68 velocity=35 time=0
note_on channel=0 note=70 velocity=50 time=0
note_on channel=0 note=62 velocity=48 time=0
note_on channel=0 note=51 velocity=32 time=0
control_change channel=0 control=64 value=127 time=75
note_on channel=0 note=51 velocity=0 time=141
note_on channel=0 note=51 velocity=28 time=24
note_on channel=0 note=51 velocity=0 time=216
note_on channel=0 note=62 velocity=0 time=0
note_on channel=0 note=60 velocity=45 time=0
note_on channel=0 note=51 velocity=28 time=0
control_change channel=0 control=64 value=0 time=7
control_change channel=0 control=64 value=127 time=56
note_on channel=0 note=60 velocity=0 time=0
note_on channel=0 note=58 velocity=38 time=0
note_on channel=0 note=51 velocity=0 time=96
note_on channel=0 note=58 velocity=0 time=14
note_on channel=0 note=58 velocity=51 time=0
note_on channel=0 note=51 velocity=32 time=0
control_change channel=0 control=64 value=0 time=17
control_change channel=0 control=64 value=127 time=80
note_on channel=0 note=51 velocity=0 time=119
note_on channel=0 note=70 velocity=0 time=24
note_on channel=0 note=72 velocity=44 time=0
note_on channel=0 note=51 velocity=28 time=0
control_change channel=0 control=64 value=0 time=15
note_on channel=0 note=58 velocity=0 time=105
note_on channel=0 note=56 velocity=38 time=0
note_on channel=0 note=51 velocity=0 time=96
note_on channel=0 note=56 velocity=0 time=24
note_on channel=0 note=72 velocity=0 time=0
note_on channel=0 note=55 velocity=38 time=0
note_on channel=0 note=74 velocity=46 time=0
note_on channel=0 note=51 velocity=28 time=0
note_on channel=0 note=55 velocity=0 time=0
note_on channel=0 note=56 velocity=38 time=0
note_on channel=0 note=51 velocity=0 time=96
note_on channel=0 note=68 velocity=0 time=0
note_on channel=0 note=74 velocity=0 time=0
note_on channel=0 note=56 velocity=0 time=0
note_on channel=0 note=55 velocity=51 time=0
note_on channel=0 note=75 velocity=51 time=0
note_on channel=0 note=51 velocity=32 time=0
control_change channel=0 control=64 value=127 time=26
note_on channel=0 note=75 velocity=0 time=94
note_on channel=0 note=77 velocity=44 time=0
note_on channel=0 note=77 velocity=0 time=40
note_on channel=0 note=75 velocity=38 time=0
note_on channel=0 note=75 velocity=0 time=40
note_on channel=0 note=74 velocity=38 time=0
note_on channel=0 note=51 velocity=0 time=16
note_on channel=0 note=74 velocity=0 time=24
note_on channel=0 note=75 velocity=51 time=0
note_on channel=0 note=51 velocity=28 time=0
control_change channel=0 control=64 value=0 time=10
control_change channel=0 control=64 value=127 time=45
note_on channel=0 note=75 velocity=0 time=65
note_on channel=0 note=77 velocity=47 time=0
note_on channel=0 note=51 velocity=0 time=96
note_on channel=0 note=77 velocity=0 time=24
note_on channel=0 note=55 velocity=0 time=0
note_on channel=0 note=79 velocity=49 time=0
note_on channel=0 note=51 velocity=28 time=0
control_change channel=0 control=64 value=0 time=11
control_change channel=0 control=64 value=127 time=32
note_on channel=0 note=79 velocity=0 time=0
note_on channel=0 note=80 velocity=50 time=0
note_on channel=0 note=80 velocity=0 time=90
note_on channel=0 note=79 velocity=48 time=0
note_on channel=0 note=51 velocity=0 time=6
note_on channel=0 note=79 velocity=0 time=0
note_on channel=0 note=82 velocity=57 time=0
note_on channel=0 note=51 velocity=32 time=0
control_change channel=0 control=64 value=0 time=14
control_change channel=0 control=64 value=127 time=55
note_on channel=0 note=51 velocity=0 time=147
note_on channel=0 note=51 velocity=28 time=24
note_on channel=0 note=51 velocity=0 time=216
note_on channel=0 note=51 velocity=28 time=24
note_on channel=0 note=51 velocity=0 time=216
note_on channel=0 note=82 velocity=0 time=0
note_on channel=0 note=81 velocity=47 time=0
note_on channel=0 note=51 velocity=32 time=0
control_change channel=0 control=64 value=0 time=5
control_change channel=0 control=64 value=127 time=30
note_on channel=0 note=81 velocity=0 time=0
note_on channel=0 note=82 velocity=52 time=0
note_on channel=0 note=51 velocity=0 time=96
note_on channel=0 note=82 velocity=0 time=24
note_on channel=0 note=84 velocity=53 time=0
note_on channel=0 note=51 velocity=28 time=0
control_change channel=0 control=64 value=0 time=18
control_change channel=0 control=64 value=127 time=45
note_on channel=0 note=84 velocity=0 time=57
note_on channel=0 note=82 velocity=51 time=0
note_on channel=0 note=51 velocity=0 time=96
note_on channel=0 note=82 velocity=0 time=24
note_on channel=0 note=80 velocity=53 time=0
note_on channel=0 note=51 velocity=28 time=0
control_change channel=0 control=64 value=0 time=8
control_change channel=0 control=64 value=127 time=44
note_on channel=0 note=80 velocity=0 time=0
note_on channel=0 note=79 velocity=51 time=0
note_on channel=0 note=51 velocity=0 time=96
note_on channel=0 note=79 velocity=0 time=14
note_on channel=0 note=68 velocity=30 time=0
note_on channel=0 note=72 velocity=35 time=0
note_on channel=0 note=79 velocity=57 time=0
note_on channel=0 note=51 velocity=32 time=0
control_change channel=0 control=64 value=0 time=20
control_change channel=0 control=64 value=127 time=49
note_on channel=0 note=51 velocity=0 time=147
note_on channel=0 note=79 velocity=0 time=24
note_on channel=0 note=77 velocity=47 time=0
note_on channel=0 note=51 velocity=28 time=0
control_change channel=0 control=64 value=0 time=14
control_change channel=0 control=64 value=127 time=66
note_on channel=0 note=51 velocity=0 time=136
note_on channel=0 note=72 velocity=0 time=14
note_on channel=0 note=77 velocity=0 time=0
note_on channel=0 note=68 velocity=0 time=0
note_on channel=0 note=70 velocity=43 time=0
note_on channel=0 note=75 velocity=51 time=0
note_on channel=0 note=67 velocity=36 time=0
note_on channel=0 note=51 velocity=28 time=0
control_change channel=0 control=64 value=0 time=25
note_on channel=0 note=67 velocity=0 time=0
note_on channel=0 note=70 velocity=0 time=0
note_on channel=0 note=75 velocity=0 time=0
note_on channel=0 note=74 velocity=43 time=0
note_on channel=0 note=65 velocity=30 time=0
note_on channel=0 note=68 velocity=36 time=0
note_on channel=0 note=51 velocity=0 time=96
note_on channel=0 note=68 velocity=0 time=14
note_on channel=0 note=65 velocity=0 time=0
note_on channel=0 note=74 velocity=0 time=0
note_on channel=0 note=65 velocity=40 time=0
note_on channel=0 note=74 velocity=50 time=0
note_on channel=0 note=68 velocity=35 time=0
note_on channel=0 note=51 velocity=32 time=0
control_change channel=0 control=64 value=127 time=80
note_on channel=0 note=51 velocity=0 time=136
note_on channel=0 note=51 velocity=28 time=24
note_on channel=0 note=51 velocity=0 time=216
note_on channel=0 note=68 velocity=0 time=14
note_on channel=0 note=74 velocity=0 time=0
note_on channel=0 note=65 velocity=0 time=0
note_on channel=0 note=63 velocity=45 time=0
note_on channel=0 note=72 velocity=51 time=0
note_on channel=0 note=68 velocity=35 time=0
note_on channel=0 note=51 velocity=28 time=0
control_change channel=0 control=64 value=0 time=20
note_on channel=0 note=72 velocity=0 time=0
note_on channel=0 note=63 velocity=0 time=0
note_on channel=0 note=70 velocity=43 time=0
note_on channel=0 note=62 velocity=38 time=0
note_on channel=0 note=51 velocity=0 time=96
note_on channel=0 note=68 velocity=0 time=14
note_on channel=0 note=62 velocity=0 time=0
note_on channel=0 note=70 velocity=0 time=0
note_on channel=0 note=68 velocity=35 time=0
note_on channel=0 note=62 velocity=51 time=0
note_on channel=0 note=70 velocity=54 time=0
note_on channel=0 note=51 velocity=32 time=0
note_on channel=0 note=62 velocity=0 time=120
note_on channel=0 note=60 velocity=38 time=0
note_on channel=0 note=51 velocity=0 time=96
note_on channel=0 note=60 velocity=0 time=24
note_on channel=0 note=70 velocity=0 time=0
note_on channel=0 note=58 velocity=38 time=0
note_on channel=0 note=72 velocity=44 time=0
note_on channel=0 note=51 velocity=28 time=0
note_on channel=0 note=58 velocity=0 time=120
note_on channel=0 note=56 velocity=38 time=0
note_on channel=0 note=51 velocity=0 time=96
note_on channel=0 note=56 velocity=0 time=24
note_on channel=0 note=72 velocity=0 time=0
note_on channel=0 note=74 velocity=46 time=0
note_on channel=0 note=55 velocity=38 time=0
note_on channel=0 note=51 velocity=28 time=0
note_on channel=0 note=55 velocity=0 time=0
note_on channel=0 note=53 velocity=38 time=0
note_on channel=0 note=51 velocity=0 time=96
note_on channel=0 note=68 velocity=0 time=0
note_on channel=0 note=74 velocity=0 time=0
note_on channel=0 note=53 velocity=0 time=0
note_on channel=0 note=75 velocity=54 time=0
note_on channel=0 note=67 velocity=54 time=0
note_on channel=0 note=51 velocity=32 time=0
control_change channel=0 control=64 value=127 time=115
note_on channel=0 note=67 velocity=0 time=0
note_on channel=0 note=75 velocity=0 time=0
note_on channel=0 note=78 velocity=40 time=0
note_on channel=0 note=78 velocity=0 time=240
note_on channel=0 note=51 velocity=0 time=0
note_on channel=0 note=79 velocity=44 time=0
control_change channel=0 control=64 value=0 time=15
note_on channel=0 note=79 velocity=0 time=0
note_on channel=0 note=63 velocity=28 time=0
note_on channel=0 note=58 velocity=23 time=0
note_on channel=0 note=55 velocity=23 time=0
control_change channel=0 control=64 value=127 time=115
note_on channel=0 note=81 velocity=41 time=0
note_on channel=0 note=81 velocity=0 time=240
note_on channel=0 note=63 velocity=0 time=0
note_on channel=0 note=58 velocity=0 time=0
note_on channel=0 note=55 velocity=0 time=0
note_on channel=0 note=82 velocity=44 time=0
control_change channel=0 control=64 value=0 time=15
note_on channel=0 note=82 velocity=0 time=0
note_on channel=0 note=67 velocity=23 time=0
note_on channel=0 note=70 velocity=23 time=0
note_on channel=0 note=75 velocity=28 time=0
control_change channel=0 control=64 value=127 time=103
note_on channel=0 note=86 velocity=40 time=0
note_on channel=0 note=86 velocity=0 time=240
note_on channel=0 note=67 velocity=0 time=0
note_on channel=0 note=70 velocity=0 time=0
note_on channel=0 note=75 velocity=0 time=0
note_on channel=0 note=87 velocity=44 time=0
control_change channel=0 control=64 value=0 time=17
note_on channel=0 note=87 velocity=0 time=0
note_on channel=0 note=68 velocity=23 time=0
note_on channel=0 note=72 velocity=23 time=0
note_on channel=0 note=75 velocity=28 time=0
control_change channel=0 control=64 value=127 time=46
note_on channel=0 note=83 velocity=41 time=0
note_on channel=0 note=83 velocity=0 time=240
note_on channel=0 note=68 velocity=0 time=0
note_on channel=0 note=72 velocity=0 time=0
note_on channel=0 note=75 velocity=0 time=0
note_on channel=0 note=84 velocity=44 time=0
control_change channel=0 control=64 value=0 time=18
note_on channel=0 note=84 velocity=0 time=0
note_on channel=0 note=63 velocity=28 time=0
note_on channel=0 note=60 velocity=23 time=0
note_on channel=0 note=56 velocity=23 time=0
control_change channel=0 control=64 value=127 time=149
note_on channel=0 note=71 velocity=40 time=0
note_on channel=0 note=71 velocity=0 time=240
note_on channel=0 note=63 velocity=0 time=0
note_on channel=0 note=60 velocity=0 time=0
note_on channel=0 note=56 velocity=0 time=0
note_on channel=0 note=72 velocity=42 time=0
control_change channel=0 control=64 value=0 time=17
note_on channel=0 note=72 velocity=0 time=0
note_on channel=0 note=57 velocity=23 time=0
note_on channel=0 note=63 velocity=28 time=0
note_on channel=0 note=60 velocity=23 time=0
control_change channel=0 control=64 value=127 time=206
note_on channel=0 note=64 velocity=38 time=0
note_on channel=0 note=64 velocity=0 time=240
note_on channel=0 note=57 velocity=0 time=0
note_on channel=0 note=63 velocity=0 time=0
note_on channel=0 note=60 velocity=0 time=0
note_on channel=0 note=65 velocity=42 time=0
control_change channel=0 control=64 value=0 time=14
note_on channel=0 note=65 velocity=0 time=0
note_on channel=0 note=58 velocity=35 time=0
control_change channel=0 control=64 value=127 time=29
note_on channel=0 note=70 velocity=59 time=211
note_on channel=0 note=67 velocity=29 time=0
note_on channel=0 note=63 velocity=24 time=0
note_on channel=0 note=63 velocity=0 time=240
note_on channel=0 note=67 velocity=0 time=0
note_on channel=0 note=67 velocity=30 time=0
note_on channel=0 note=63 velocity=25 time=0
note_on channel=0 note=63 velocity=0 time=4
note_on channel=0 note=67 velocity=0 time=0
note_on channel=0 note=63 velocity=31 time=0
note_on channel=0 note=67 velocity=38 time=0
control_change channel=0 control=64 value=0 time=29
control_change channel=0 control=64 value=127 time=34
note_on channel=0 note=70 velocity=0 time=47
note_on channel=0 note=72 velocity=60 time=0
note_on channel=0 note=72 velocity=0 time=49
note_on channel=0 note=74 velocity=62 time=0
note_on channel=0 note=74 velocity=0 time=33
note_on channel=0 note=67 velocity=0 time=0
note_on channel=0 note=63 velocity=0 time=0
note_on channel=0 note=75 velocity=64 time=0
note_on channel=0 note=63 velocity=35 time=0
note_on channel=0 note=67 velocity=42 time=0
note_on channel=0 note=75 velocity=0 time=35
note_on channel=0 note=77 velocity=66 time=0
note_on channel=0 note=77 velocity=0 time=18
note_on channel=0 note=79 velocity=68 time=0
note_on channel=0 note=79 velocity=0 time=21
note_on channel=0 note=80 velocity=70 time=0
note_on channel=0 note=80 velocity=0 time=0
note_on channel=0 note=67 velocity=0 time=0
note_on channel=0 note=63 velocity=0 time=0
note_on channel=0 note=82 velocity=72 time=0
note_on channel=0 note=63 velocity=39 time=0
note_on channel=0 note=67 velocity=46 time=0
note_on channel=0 note=58 velocity=0 time=230
note_on channel=0 note=67 velocity=0 time=10
note_on channel=0 note=63 velocity=0 time=0
note_on channel=0 note=58 velocity=37 time=0
note_on channel=0 note=68 velocity=44 time=0
note_on channel=0 note=62 velocity=37 time=0
control_change channel=0 control=64 value=0 time=11
control_change channel=0 control=64 value=127 time=58
note_on channel=0 note=62 velocity=0 time=0
note_on channel=0 note=68 velocity=0 time=0
note_on channel=0 note=82 velocity=0 time=0
note_on channel=0 note=80 velocity=70 time=0
note_on channel=0 note=62 velocity=33 time=0
note_on channel=0 note=68 velocity=39 time=0
note_on channel=0 note=68 velocity=0 time=0
note_on channel=0 note=62 velocity=0 time=0
note_on channel=0 note=80 velocity=0 time=0
note_on channel=0 note=77 velocity=66 time=0
note_on channel=0 note=62 velocity=32 time=0
note_on channel=0 note=68 velocity=38 time=0
note_on channel=0 note=68 velocity=0 time=0
note_on channel=0 note=58 velocity=0 time=0
note_on channel=0 note=77 velocity=0 time=0
note_on channel=0 note=62 velocity=0 time=0
note_on channel=0 note=75 velocity=58 time=0
note_on channel=0 note=67 velocity=40 time=0
note_on channel=0 note=63 velocity=38 time=0
control_change channel=0 control=64 value=0 time=0
note_on channel=0 note=75 velocity=0 time=300
note_on channel=0 note=74 velocity=50 time=0
note_on channel=0 note=74 velocity=0 time=60
note_on channel=0 note=79 velocity=57 time=0
note_on channel=0 note=77 velocity=54 time=21
note_on channel=0 note=79 velocity=0 time=6
note_on channel=0 note=67 velocity=0 time=4
note_on channel=0 note=63 velocity=0 time=0
note_on channel=0 note=75 velocity=53 time=0
note_on channel=0 note=77 velocity=0 time=6
note_on channel=0 note=74 velocity=51 time=6
note_on channel=0 note=75 velocity=0 time=6
note_on channel=0 note=72 velocity=49 time=9
note_on channel=0 note=74 velocity=0 time=6
note_on channel=0 note=70 velocity=47 time=11
note_on channel=0 note=72 velocity=0 time=6
note_on channel=0 note=69 velocity=53 time=13
note_on channel=0 note=70 velocity=0 time=6
note_on channel=0 note=70 velocity=51 time=16
note_on channel=0 note=69 velocity=0 time=6
note_on channel=0 note=75 velocity=59 time=18
note_on channel=0 note=70 velocity=0 time=5
note_on channel=0 note=74 velocity=54 time=1
note_on channel=0 note=75 velocity=0 time=6
note_on channel=0 note=72 velocity=54 time=4
note_on channel=0 note=74 velocity=0 time=6
note_on channel=0 note=70 velocity=52 time=6
note_on channel=0 note=72 velocity=0 time=6
note_on channel=0 note=68 velocity=50 time=9
note_on channel=0 note=70 velocity=0 time=6
note_on channel=0 note=67 velocity=50 time=11
note_on channel=0 note=68 velocity=0 time=6
note_on channel=0 note=66 velocity=52 time=13
note_on channel=0 note=67 velocity=0 time=6
note_on channel=0 note=67 velocity=46 time=16
note_on channel=0 note=66 velocity=0 time=6
note_on channel=0 note=72 velocity=56 time=18
note_on channel=0 note=67 velocity=0 time=6
note_on channel=0 note=70 velocity=55 time=21
note_on channel=0 note=72 velocity=0 time=6
note_on channel=0 note=68 velocity=54 time=23
note_on channel=0 note=70 velocity=0 time=6
note_on channel=0 note=67 velocity=52 time=25
note_on channel=0 note=68 velocity=0 time=6
note_on channel=0 note=65 velocity=50 time=28
note_on channel=0 note=67 velocity=0 time=6
note_on channel=0 note=63 velocity=48 time=49
note_on channel=0 note=65 velocity=0 time=6
note_on channel=0 note=62 velocity=46 time=52
note_on channel=0 note=63 velocity=0 time=0
note_on channel=0 note=63 velocity=45 time=54
note_on channel=0 note=62 velocity=0 time=3
note_on channel=0 note=68 velocity=52 time=18
note_on channel=0 note=63 velocity=0 time=6
note_on channel=0 note=67 velocity=51 time=21
note_on channel=0 note=68 velocity=0 time=6
note_on channel=0 note=65 velocity=49 time=23
note_on channel=0 note=67 velocity=0 time=6
note_on channel=0 note=63 velocity=47 time=6
note_on channel=0 note=65 velocity=0 time=6
note_on channel=0 note=62 velocity=44 time=28
note_on channel=0 note=63 velocity=0 time=6
note_on channel=0 note=60 velocity=42 time=11
note_on channel=0 note=62 velocity=0 time=6
note_on channel=0 note=57 velocity=39 time=13
note_on channel=0 note=46 velocity=35 time=0
note_on channel=0 note=60 velocity=0 time=6
control_change channel=0 control=64 value=127 time=6
note_on channel=0 note=57 velocity=0 time=48
note_on channel=0 note=58 velocity=39 time=0
note_on channel=0 note=58 velocity=0 time=60
note_on channel=0 note=59 velocity=40 time=0
note_on channel=0 note=59 velocity=0 time=40
note_on channel=0 note=60 velocity=41 time=0
note_on channel=0 note=60 velocity=0 time=60
note_on channel=0 note=61 velocity=42 time=0
note_on channel=0 note=55 velocity=29 time=0
note_on channel=0 note=51 velocity=24 time=0
note_on channel=0 note=61 velocity=0 time=6
note_on channel=0 note=62 velocity=42 time=0
note_on channel=0 note=62 velocity=0 time=60
note_on channel=0 note=63 velocity=43 time=0
note_on channel=0 note=63 velocity=0 time=60
note_on channel=0 note=64 velocity=44 time=0
note_on channel=0 note=64 velocity=0 time=33
note_on channel=0 note=51 velocity=0 time=0
note_on channel=0 note=55 velocity=0 time=0
note_on channel=0 note=65 velocity=45 time=0
note_on channel=0 note=55 velocity=32 time=0
note_on channel=0 note=51 velocity=27 time=0
note_on channel=0 note=65 velocity=0 time=60
note_on channel=0 note=66 velocity=45 time=0
note_on channel=0 note=66 velocity=0 time=60
note_on channel=0 note=67 velocity=46 time=0
note_on channel=0 note=67 velocity=0 time=59
note_on channel=0 note=68 velocity=47 time=0
note_on channel=0 note=68 velocity=0 time=60
note_on channel=0 note=51 velocity=0 time=0
note_on channel=0 note=55 velocity=0 time=0
note_on channel=0 note=69 velocity=49 time=0
note_on channel=0 note=51 velocity=35 time=0
note_on channel=0 note=55 velocity=43 time=0
control_change channel=0 control=64 value=0 time=9
control_change channel=0 control=64 value=127 time=22
note_on channel=0 note=69 velocity=0 time=25
note_on channel=0 note=70 velocity=50 time=0
note_on channel=0 note=70 velocity=0 time=60
note_on channel=0 note=71 velocity=52 time=0
note_on channel=0 note=71 velocity=0 time=60
note_on channel=0 note=72 velocity=54 time=0
note_on channel=0 note=72 velocity=0 time=52
note_on channel=0 note=55 velocity=0 time=0
note_on channel=0 note=51 velocity=0 time=0
note_on channel=0 note=73 velocity=56 time=0
note_on channel=0 note=51 velocity=41 time=0
note_on channel=0 note=55 velocity=49 time=0
note_on channel=0 note=73 velocity=0 time=60
note_on channel=0 note=74 velocity=58 time=0
note_on channel=0 note=74 velocity=0 time=18
note_on channel=0 note=75 velocity=60 time=0
note_on channel=0 note=75 velocity=0 time=60
note_on channel=0 note=76 velocity=61 time=0
note_on channel=0 note=76 velocity=0 time=4
note_on channel=0 note=55 velocity=0 time=0
note_on channel=0 note=51 velocity=0 time=0
note_on channel=0 note=77 velocity=64 time=0
note_on channel=0 note=51 velocity=47 time=0
note_on channel=0 note=55 velocity=55 time=0
note_on channel=0 note=77 velocity=0 time=13
note_on channel=0 note=78 velocity=65 time=0
note_on channel=0 note=78 velocity=0 time=23
note_on channel=0 note=79 velocity=67 time=0
note_on channel=0 note=79 velocity=0 time=33
note_on channel=0 note=80 velocity=69 time=0
note_on channel=0 note=80 velocity=0 time=12
note_on channel=0 note=81 velocity=70 time=0
note_on channel=0 note=46 velocity=0 time=38
note_on channel=0 note=55 velocity=0 time=0
note_on channel=0 note=51 velocity=0 time=0
note_on channel=0 note=81 velocity=0 time=0
note_on channel=0 note=82 velocity=80 time=0
note_on channel=0 note=46 velocity=45 time=0
note_on channel=0 note=56 velocity=62 time=0
note_on channel=0 note=50 velocity=52 time=0
control_change channel=0 control=64 value=0 time=9
control_change channel=0 control=64 value=127 time=25
note_on channel=0 note=50 velocity=0 time=0
note_on channel=0 note=56 velocity=0 time=0
note_on channel=0 note=50 velocity=33 time=0
note_on channel=0 note=56 velocity=39 time=0
note_on channel=0 note=82 velocity=0 time=60
note_on channel=0 note=80 velocity=69 time=0
note_on channel=0 note=80 velocity=0 time=60
note_on channel=0 note=77 velocity=66 time=0
note_on channel=0 note=77 velocity=0 time=60
note_on channel=0 note=74 velocity=63 time=0
note_on channel=0 note=74 velocity=0 time=0
note_on channel=0 note=56 velocity=0 time=0
note_on channel=0 note=50 velocity=0 time=0
note_on channel=0 note=70 velocity=60 time=0
note_on channel=0 note=50 velocity=32 time=0
note_on channel=0 note=56 velocity=38 time=0
note_on channel=0 note=70 velocity=0 time=60
note_on channel=0 note=68 velocity=57 time=0
note_on channel=0 note=68 velocity=0 time=60
note_on channel=0 note=65 velocity=54 time=0
note_on channel=0 note=65 velocity=0 time=60
note_on channel=0 note=62 velocity=51 time=0
note_on channel=0 note=62 velocity=0 time=0
note_on channel=0 note=56 velocity=0 time=0
note_on channel=0 note=50 velocity=0 time=0
note_on channel=0 note=46 velocity=0 time=0
note_on channel=0 note=63 velocity=56 time=0
note_on channel=0 note=51 velocity=44 time=0
control_change channel=0 control=64 value=0 time=0
control_change channel=0 control=64 value=127 time=95
note_on channel=0 note=51 velocity=0 time=145
note_on channel=0 note=55 velocity=39 time=0
note_on channel=0 note=55 velocity=0 time=240
note_on channel=0 note=63 velocity=0 time=0
note_on channel=0 note=58 velocity=39 time=0
control_change channel=0 control=64 value=0 time=9
control_change channel=0 control=64 value=127 time=57
note_on channel=0 note=58 velocity=0 time=174
note_on channel=0 note=63 velocity=44 time=0
note_on channel=0 note=63 velocity=0 time=240
note_on channel=0 note=67 velocity=38 time=0
note_on channel=0 note=67 velocity=0 time=0
note_on channel=0 note=75 velocity=56 time=0
note_on channel=0 note=78 velocity=67 time=0
note_on channel=0 note=69 velocity=38 time=0
control_change channel=0 control=64 value=0 time=6
control_change channel=0 control=64 value=127 time=54
note_on channel=0 note=69 velocity=0 time=0
note_on channel=0 note=70 velocity=44 time=0
control_change channel=0 control=64 value=0 time=7
note_on channel=0 note=78 velocity=0 time=0
note_on channel=0 note=79 velocity=54 time=0
note_on channel=0 note=79 velocity=0 time=0
note_on channel=0 note=70 velocity=0 time=0
note_on channel=0 note=75 velocity=0 time=0
note_on channel=0 note=80 velocity=59 time=0
note_on channel=0 note=74 velocity=50 time=0
note_on channel=0 note=65 velocity=44 time=0
note_on channel=0 note=58 velocity=37 time=0
control_change channel=0 control=64 value=127 time=37
note_on channel=0 note=65 velocity=0 time=143
note_on channel=0 note=80 velocity=0 time=0
note_on channel=0 note=77 velocity=53 time=0
note_on channel=0 note=68 velocity=40 time=0
note_on channel=0 note=68 velocity=0 time=0
note_on channel=0 note=58 velocity=0 time=0
note_on channel=0 note=74 velocity=0 time=0
note_on channel=0 note=77 velocity=0 time=0
note_on channel=0 note=67 velocity=48 time=0
note_on channel=0 note=75 velocity=56 time=0
note_on channel=0 note=39 velocity=44 time=0
control_change channel=0 control=64 value=0 time=0
control_change channel=0 control=64 value=127 time=100
note_on channel=0 note=39 velocity=0 time=140
note_on channel=0 note=43 velocity=39 time=0
note_on channel=0 note=43 velocity=0 time=240
note_on channel=0 note=75 velocity=0 time=0
note_on channel=0 note=67 velocity=0 time=0
note_on channel=0 note=46 velocity=39 time=0
control_change channel=0 control=64 value=0 time=9
control_change channel=0 control=64 value=127 time=57
note_on channel=0 note=46 velocity=0 time=174
note_on channel=0 note=51 velocity=44 time=0
note_on channel=0 note=51 velocity=0 time=240
note_on channel=0 note=55 velocity=38 time=0
note_on channel=0 note=55 velocity=0 time=0
note_on channel=0 note=66 velocity=60 time=0
note_on channel=0 note=63 velocity=50 time=0
note_on channel=0 note=57 velocity=34 time=0
control_change channel=0 control=64 value=0 time=6
control_change channel=0 control=64 value=127 time=54
note_on channel=0 note=57 velocity=0 time=0
note_on channel=0 note=58 velocity=39 time=0
control_change channel=0 control=64 value=0 time=7
note_on channel=0 note=66 velocity=0 time=0
note_on channel=0 note=67 velocity=48 time=0
note_on channel=0 note=67 velocity=0 time=0
note_on channel=0 note=58 velocity=0 time=0
note_on channel=0 note=63 velocity=0 time=0
note_on channel=0 note=68 velocity=53 time=0
note_on channel=0 note=62 velocity=45 time=0
note_on channel=0 note=53 velocity=39 time=0
note_on channel=0 note=46 velocity=33 time=0
control_change channel=0 control=64 value=127 time=37
note_on channel=0 note=53 velocity=0 time=0
note_on channel=0 note=68 velocity=0 time=0
note_on channel=0 note=65 velocity=43 time=0
note_on channel=0 note=56 velocity=36 time=0
note_on channel=0 note=56 velocity=0 time=0
note_on channel=0 note=46 velocity=0 time=0
note_on channel=0 note=62 velocity=0 time=0
note_on channel=0 note=65 velocity=0 time=0
note_on channel=0 note=63 velocity=48 time=0
note_on channel=0 note=51 velocity=34 time=0
note_on channel=0 note=55 velocity=40 time=0
control_change channel=0 control=64 value=0 time=21
note_on channel=0 note=55 velocity=0 time=0
note_on channel=0 note=51 velocity=0 time=0
note_on channel=0 note=63 velocity=0 time=0
note_on channel=0 note=68 velocity=51 time=0
note_on channel=0 note=62 velocity=43 time=0
note_on channel=0 note=46 velocity=33 time=0
note_on channel=0 note=53 velocity=39 time=0
control_change channel=0 control=64 value=127 time=132
note_on channel=0 note=53 velocity=0 time=228
note_on channel=0 note=68 velocity=0 time=0
note_on channel=0 note=65 velocity=44 time=0
note_on channel=0 note=56 velocity=34 time=0
note_on channel=0 note=56 velocity=0 time=0
note_on channel=0 note=62 velocity=0 time=0
note_on channel=0 note=46 velocity=0 time=0
note_on channel=0 note=65 velocity=0 time=0
note_on channel=0 note=63 velocity=48 time=0
note_on channel=0 note=51 velocity=34 time=0
note_on channel=0 note=55 velocity=40 time=0
control_change channel=0 control=64 value=0 time=18
note_on channel=0 note=55 velocity=0 time=0
note_on channel=0 note=51 velocity=0 time=0
note_on channel=0 note=63 velocity=0 time=0
note_on channel=0 note=68 velocity=51 time=0
note_on channel=0 note=62 velocity=43 time=0
note_on channel=0 note=46 velocity=33 time=0
note_on channel=0 note=53 velocity=39 time=0
control_change channel=0 control=64 value=127 time=109
note_on channel=0 note=53 velocity=0 time=251
note_on channel=0 note=68 velocity=0 time=0
note_on channel=0 note=65 velocity=44 time=0
note_on channel=0 note=56 velocity=34 time=0
note_on channel=0 note=56 velocity=0 time=0
note_on channel=0 note=62 velocity=0 time=0
note_on channel=0 note=46 velocity=0 time=0
note_on channel=0 note=65 velocity=0 time=0
note_on channel=0 note=63 velocity=48 time=0
note_on channel=0 note=51 velocity=34 time=0
note_on channel=0 note=55 velocity=40 time=0
control_change channel=0 control=64 value=0 time=19
note_on channel=0 note=55 velocity=0 time=0
note_on channel=0 note=51 velocity=0 time=0
note_on channel=0 note=63 velocity=0 time=0
note_on channel=0 note=68 velocity=60 time=0
note_on channel=0 note=56 velocity=50 time=0
note_on channel=0 note=46 velocity=38 time=0
note_on channel=0 note=53 velocity=46 time=0
control_change channel=0 control=64 value=127 time=86
note_on channel=0 note=53 velocity=0 time=34
note_on channel=0 note=68 velocity=0 time=0
note_on channel=0 note=67 velocity=56 time=0
note_on channel=0 note=52 velocity=43 time=0
note_on channel=0 note=56 velocity=0 time=110
note_on channel=0 note=46 velocity=0 time=0
note_on channel=0 note=67 velocity=0 time=0
note_on channel=0 note=52 velocity=0 time=0
note_on channel=0 note=56 velocity=49 time=0
note_on channel=0 note=68 velocity=66 time=0
note_on channel=0 note=46 velocity=38 time=0
note_on channel=0 note=53 velocity=51 time=0
control_change channel=0 control=64 value=0 time=15
control_change channel=0 control=64 value=127 time=42
note_on channel=0 note=53 velocity=0 time=0
note_on channel=0 note=68 velocity=0 time=0
note_on channel=0 note=65 velocity=61 time=0
note_on channel=0 note=50 velocity=47 time=0
note_on channel=0 note=56 velocity=0 time=110
note_on channel=0 note=46 velocity=0 time=0
note_on channel=0 note=65 velocity=0 time=0
note_on channel=0 note=50 velocity=0 time=0
note_on channel=0 note=64 velocity=35 time=0
control_change channel=0 control=64 value=0 time=0
note_on channel=0 note=64 velocity=0 time=40
note_on channel=0 note=65 velocity=34 time=0
note_on channel=0 note=65 velocity=0 time=40
note_on channel=0 note=67 velocity=28 time=0
note_on channel=0 note=67 velocity=0 time=0
note_on channel=0 note=56 velocity=31 time=0
note_on channel=0 note=65 velocity=37 time=0
note_on channel=0 note=39 velocity=26 time=0
note_on channel=0 note=50 velocity=31 time=0
note_on channel=0 note=46 velocity=26 time=0
control_change channel=0 control=64 value=127 time=29
note_on channel=0 note=50 velocity=0 time=571
note_on channel=0 note=65 velocity=0 time=0
note_on channel=0 note=56 velocity=0 time=0
note_on channel=0 note=55 velocity=27 time=0
note_on channel=0 note=63 velocity=27 time=0
note_on channel=0 note=51 velocity=25 time=0
control_change channel=0 control=64 value=0 time=11
control_change channel=0 control=64 value=127 time=30
note_on channel=0 note=51 velocity=0 time=439
note_on channel=0 note=55 velocity=0 time=0
note_on channel=0 note=46 velocity=0 time=0
note_on channel=0 note=39 velocity=0 time=0
note_on channel=0 note=63 velocity=0 time=0
control_change channel=0 control=64 value=0 time=13
