note_on channel=0 note=89 velocity=77 time=0
note_on channel=0 note=86 velocity=77 time=0
note_on channel=0 note=80 velocity=77 time=0
note_on channel=0 note=92 velocity=88 time=0
note_on channel=0 note=65 velocity=66 time=0
note_on channel=0 note=68 velocity=75 time=0
note_on channel=0 note=62 velocity=66 time=0
note_on channel=0 note=58 velocity=66 time=0
note_on channel=0 note=58 velocity=0 time=120
note_on channel=0 note=89 velocity=0 time=0
note_on channel=0 note=65 velocity=0 time=0
note_on channel=0 note=86 velocity=0 time=0
note_on channel=0 note=80 velocity=0 time=0
note_on channel=0 note=92 velocity=0 time=0
note_on channel=0 note=68 velocity=0 time=0
note_on channel=0 note=62 velocity=0 time=0
note_on channel=0 note=58 velocity=66 time=0
note_on channel=0 note=46 velocity=60 time=0
note_on channel=0 note=46 velocity=0 time=74
note_on channel=0 note=58 velocity=0 time=0
note_on channel=0 note=57 velocity=57 time=0
note_on channel=0 note=50 velocity=50 time=0
note_on channel=0 note=50 velocity=0 time=120
note_on channel=0 note=57 velocity=0 time=0
note_on channel=0 note=58 velocity=57 time=0
note_on channel=0 note=46 velocity=60 time=0
note_on channel=0 note=46 velocity=0 time=120
note_on channel=0 note=58 velocity=0 time=0
note_on channel=0 note=62 velocity=56 time=0
note_on channel=0 note=50 velocity=51 time=0
note_on channel=0 note=50 velocity=0 time=120
note_on channel=0 note=62 velocity=0 time=0
note_on channel=0 note=65 velocity=67 time=0
note_on channel=0 note=50 velocity=59 time=0
note_on channel=0 note=50 velocity=0 time=34
note_on channel=0 note=65 velocity=0 time=0
note_on channel=0 note=62 velocity=56 time=0
note_on channel=0 note=53 velocity=52 time=0
note_on channel=0 note=53 velocity=0 time=120
note_on channel=0 note=62 velocity=0 time=0
note_on channel=0 note=65 velocity=54 time=0
note_on channel=0 note=50 velocity=59 time=0
note_on channel=0 note=50 velocity=0 time=120
note_on channel=0 note=65 velocity=0 time=0
note_on channel=0 note=68 velocity=55 time=0
note_on channel=0 note=53 velocity=52 time=0
note_on channel=0 note=53 velocity=0 time=120
note_on channel=0 note=68 velocity=0 time=0
note_on channel=0 note=65 velocity=55 time=0
note_on channel=0 note=50 velocity=59 time=0
note_on channel=0 note=50 velocity=0 time=0
note_on channel=0 note=65 velocity=0 time=0
note_on channel=0 note=62 velocity=55 time=0
note_on channel=0 note=53 velocity=51 time=0
note_on channel=0 note=53 velocity=0 time=0
note_on channel=0 note=62 velocity=0 time=0
note_on channel=0 note=68 velocity=65 time=0
note_on channel=0 note=53 velocity=59 time=0
note_on channel=0 note=53 velocity=0 time=7
note_on channel=0 note=68 velocity=0 time=0
note_on channel=0 note=65 velocity=56 time=0
note_on channel=0 note=56 velocity=51 time=0
note_on channel=0 note=56 velocity=0 time=120
note_on channel=0 note=65 velocity=0 time=0
note_on channel=0 note=68 velocity=57 time=0
note_on channel=0 note=53 velocity=59 time=0
note_on channel=0 note=53 velocity=0 time=120
note_on channel=0 note=68 velocity=0 time=0
note_on channel=0 note=70 velocity=56 time=0
note_on channel=0 note=56 velocity=50 time=0
note_on channel=0 note=56 velocity=0 time=120
note_on channel=0 note=70 velocity=0 time=0
note_on channel=0 note=68 velocity=55 time=0
note_on channel=0 note=53 velocity=58 time=0
note_on channel=0 note=53 velocity=0 time=120
note_on channel=0 note=68 velocity=0 time=0
note_on channel=0 note=65 velocity=55 time=0
note_on channel=0 note=56 velocity=50 time=0
note_on channel=0 note=56 velocity=0 time=120
note_on channel=0 note=65 velocity=0 time=0
note_on channel=0 note=70 velocity=67 time=0
note_on channel=0 note=58 velocity=58 time=0
note_on channel=0 note=58 velocity=0 time=14
note_on channel=0 note=70 velocity=0 time=0
note_on channel=0 note=68 velocity=55 time=0
note_on channel=0 note=62 velocity=50 time=0
note_on channel=0 note=62 velocity=0 time=120
note_on channel=0 note=68 velocity=0 time=0
note_on channel=0 note=70 velocity=55 time=0
note_on channel=0 note=58 velocity=58 time=0
note_on channel=0 note=58 velocity=0 time=120
note_on channel=0 note=70 velocity=0 time=0
note_on channel=0 note=74 velocity=55 time=0
note_on channel=0 note=62 velocity=50 time=0
note_on channel=0 note=62 velocity=0 time=120
note_on channel=0 note=74 velocity=0 time=0
note_on channel=0 note=70 velocity=55 time=0
note_on channel=0 note=58 velocity=58 time=0
note_on channel=0 note=58 velocity=0 time=0
note_on channel=0 note=70 velocity=0 time=0
note_on channel=0 note=68 velocity=55 time=0
note_on channel=0 note=62 velocity=51 time=0
note_on channel=0 note=62 velocity=0 time=0
note_on channel=0 note=68 velocity=0 time=0
note_on channel=0 note=77 velocity=64 time=0
note_on channel=0 note=62 velocity=57 time=0
note_on channel=0 note=62 velocity=0 time=14
note_on channel=0 note=77 velocity=0 time=0
note_on channel=0 note=74 velocity=54 time=0
note_on channel=0 note=65 velocity=50 time=0
note_on channel=0 note=65 velocity=0 time=120
note_on channel=0 note=74 velocity=0 time=0
note_on channel=0 note=77 velocity=55 time=0
note_on channel=0 note=62 velocity=57 time=0
note_on channel=0 note=62 velocity=0 time=120
note_on channel=0 note=77 velocity=0 time=0
note_on channel=0 note=80 velocity=55 time=0
note_on channel=0 note=65 velocity=49 time=0
note_on channel=0 note=65 velocity=0 time=120
note_on channel=0 note=80 velocity=0 time=0
note_on channel=0 note=77 velocity=54 time=0
note_on channel=0 note=62 velocity=57 time=0
note_on channel=0 note=62 velocity=0 time=120
note_on channel=0 note=77 velocity=0 time=0
note_on channel=0 note=74 velocity=54 time=0
note_on channel=0 note=65 velocity=48 time=0
note_on channel=0 note=65 velocity=0 time=120
note_on channel=0 note=74 velocity=0 time=0
note_on channel=0 note=80 velocity=65 time=0
note_on channel=0 note=65 velocity=57 time=0
note_on channel=0 note=65 velocity=0 time=21
note_on channel=0 note=80 velocity=0 time=0
note_on channel=0 note=77 velocity=54 time=0
note_on channel=0 note=68 velocity=48 time=0
note_on channel=0 note=68 velocity=0 time=120
note_on channel=0 note=77 velocity=0 time=0
note_on channel=0 note=80 velocity=54 time=0
note_on channel=0 note=65 velocity=57 time=0
note_on channel=0 note=65 velocity=0 time=120
note_on channel=0 note=80 velocity=0 time=0
note_on channel=0 note=82 velocity=54 time=0
note_on channel=0 note=68 velocity=49 time=0
note_on channel=0 note=68 velocity=0 time=120
note_on channel=0 note=82 velocity=0 time=0
note_on channel=0 note=80 velocity=53 time=0
note_on channel=0 note=65 velocity=56 time=0
note_on channel=0 note=65 velocity=0 time=0
note_on channel=0 note=80 velocity=0 time=0
note_on channel=0 note=77 velocity=53 time=0
note_on channel=0 note=68 velocity=50 time=0
note_on channel=0 note=68 velocity=0 time=0
note_on channel=0 note=77 velocity=0 time=0
note_on channel=0 note=82 velocity=62 time=0
note_on channel=0 note=74 velocity=56 time=0
note_on channel=0 note=74 velocity=0 time=7
note_on channel=0 note=82 velocity=0 time=0
note_on channel=0 note=80 velocity=53 time=0
note_on channel=0 note=77 velocity=49 time=0
note_on channel=0 note=77 velocity=0 time=120
note_on channel=0 note=80 velocity=0 time=0
note_on channel=0 note=82 velocity=54 time=0
note_on channel=0 note=74 velocity=56 time=0
note_on channel=0 note=74 velocity=0 time=120
note_on channel=0 note=82 velocity=0 time=0
note_on channel=0 note=86 velocity=54 time=0
note_on channel=0 note=77 velocity=47 time=0
note_on channel=0 note=77 velocity=0 time=120
note_on channel=0 note=86 velocity=0 time=0
note_on channel=0 note=82 velocity=53 time=0
note_on channel=0 note=74 velocity=56 time=0
note_on channel=0 note=74 velocity=0 time=120
note_on channel=0 note=82 velocity=0 time=0
note_on channel=0 note=80 velocity=53 time=0
note_on channel=0 note=77 velocity=47 time=0
note_on channel=0 note=77 velocity=0 time=120
note_on channel=0 note=80 velocity=0 time=0
note_on channel=0 note=86 velocity=64 time=0
note_on channel=0 note=77 velocity=56 time=0
note_on channel=0 note=77 velocity=0 time=14
note_on channel=0 note=86 velocity=0 time=0
note_on channel=0 note=82 velocity=53 time=0
note_on channel=0 note=80 velocity=47 time=0
note_on channel=0 note=80 velocity=0 time=120
note_on channel=0 note=82 velocity=0 time=0
note_on channel=0 note=86 velocity=52 time=0
note_on channel=0 note=77 velocity=55 time=0
note_on channel=0 note=77 velocity=0 time=120
note_on channel=0 note=86 velocity=0 time=0
note_on channel=0 note=89 velocity=52 time=0
note_on channel=0 note=80 velocity=48 time=0
note_on channel=0 note=80 velocity=0 time=120
note_on channel=0 note=89 velocity=0 time=0
note_on channel=0 note=86 velocity=52 time=0
note_on channel=0 note=77 velocity=55 time=0
note_on channel=0 note=77 velocity=0 time=0
note_on channel=0 note=86 velocity=0 time=0
note_on channel=0 note=82 velocity=52 time=0
note_on channel=0 note=80 velocity=49 time=0
note_on channel=0 note=80 velocity=0 time=0
note_on channel=0 note=82 velocity=0 time=0
note_on channel=0 note=89 velocity=57 time=0
note_on channel=0 note=89 velocity=0 time=108
note_on channel=0 note=86 velocity=49 time=0
note_on channel=0 note=86 velocity=0 time=114
note_on channel=0 note=89 velocity=50 time=0
note_on channel=0 note=89 velocity=0 time=120
note_on channel=0 note=92 velocity=49 time=0
note_on channel=0 note=92 velocity=0 time=120
note_on channel=0 note=89 velocity=48 time=0
note_on channel=0 note=77 velocity=33 time=0
note_on channel=0 note=80 velocity=33 time=0
note_on channel=0 note=89 velocity=0 time=120
note_on channel=0 note=86 velocity=48 time=0
note_on channel=0 note=86 velocity=0 time=120
note_on channel=0 note=80 velocity=0 time=0
note_on channel=0 note=82 velocity=58 time=0
note_on channel=0 note=74 velocity=38 time=0
note_on channel=0 note=82 velocity=0 time=11
note_on channel=0 note=81 velocity=48 time=0
note_on channel=0 note=81 velocity=0 time=120
note_on channel=0 note=82 velocity=47 time=0
note_on channel=0 note=82 velocity=0 time=120
note_on channel=0 note=86 velocity=47 time=0
note_on channel=0 note=86 velocity=0 time=120
note_on channel=0 note=74 velocity=0 time=0
note_on channel=0 note=77 velocity=0 time=0
note_on channel=0 note=89 velocity=47 time=0
note_on channel=0 note=89 velocity=0 time=0
note_on channel=0 note=86 velocity=47 time=0
note_on channel=0 note=86 velocity=0 time=0
note_on channel=0 note=89 velocity=54 time=0
note_on channel=0 note=89 velocity=0 time=28
note_on channel=0 note=86 velocity=46 time=0
note_on channel=0 note=86 velocity=0 time=120
note_on channel=0 note=89 velocity=47 time=0
note_on channel=0 note=89 velocity=0 time=120
note_on channel=0 note=92 velocity=47 time=0
note_on channel=0 note=92 velocity=0 time=120
note_on channel=0 note=89 velocity=46 time=0
note_on channel=0 note=80 velocity=32 time=0
note_on channel=0 note=77 velocity=32 time=0
note_on channel=0 note=89 velocity=0 time=120
note_on channel=0 note=86 velocity=45 time=0
note_on channel=0 note=86 velocity=0 time=120
note_on channel=0 note=80 velocity=0 time=0
note_on channel=0 note=82 velocity=55 time=0
note_on channel=0 note=74 velocity=36 time=0
note_on channel=0 note=82 velocity=0 time=34
note_on channel=0 note=81 velocity=45 time=0
note_on channel=0 note=81 velocity=0 time=120
note_on channel=0 note=82 velocity=45 time=0
note_on channel=0 note=82 velocity=0 time=120
note_on channel=0 note=86 velocity=45 time=0
note_on channel=0 note=86 velocity=0 time=120
note_on channel=0 note=74 velocity=0 time=0
note_on channel=0 note=77 velocity=0 time=0
note_on channel=0 note=89 velocity=44 time=0
note_on channel=0 note=89 velocity=0 time=0
note_on channel=0 note=86 velocity=44 time=0
note_on channel=0 note=86 velocity=0 time=0
note_on channel=0 note=77 velocity=51 time=0
note_on channel=0 note=77 velocity=0 time=17
note_on channel=0 note=74 velocity=44 time=0
note_on channel=0 note=74 velocity=0 time=120
note_on channel=0 note=77 velocity=45 time=0
note_on channel=0 note=77 velocity=0 time=120
note_on channel=0 note=80 velocity=44 time=0
note_on channel=0 note=80 velocity=0 time=120
note_on channel=0 note=77 velocity=43 time=0
note_on channel=0 note=68 velocity=30 time=0
note_on channel=0 note=65 velocity=30 time=0
note_on channel=0 note=77 velocity=0 time=120
note_on channel=0 note=74 velocity=43 time=0
note_on channel=0 note=74 velocity=0 time=120
note_on channel=0 note=68 velocity=0 time=0
note_on channel=0 note=70 velocity=52 time=0
note_on channel=0 note=62 velocity=34 time=0
note_on channel=0 note=70 velocity=0 time=11
note_on channel=0 note=69 velocity=43 time=0
note_on channel=0 note=69 velocity=0 time=120
note_on channel=0 note=70 velocity=42 time=0
note_on channel=0 note=70 velocity=0 time=120
note_on channel=0 note=74 velocity=42 time=0
note_on channel=0 note=74 velocity=0 time=120
note_on channel=0 note=62 velocity=0 time=0
note_on channel=0 note=65 velocity=0 time=0
note_on channel=0 note=77 velocity=42 time=0
note_on channel=0 note=77 velocity=0 time=0
note_on channel=0 note=74 velocity=42 time=0
note_on channel=0 note=74 velocity=0 time=0
note_on channel=0 note=77 velocity=48 time=0
note_on channel=0 note=77 velocity=0 time=17
note_on channel=0 note=74 velocity=41 time=0
note_on channel=0 note=74 velocity=0 time=120
note_on channel=0 note=77 velocity=42 time=0
note_on channel=0 note=77 velocity=0 time=120
note_on channel=0 note=80 velocity=41 time=0
note_on channel=0 note=80 velocity=0 time=120
note_on channel=0 note=77 velocity=41 time=0
note_on channel=0 note=65 velocity=28 time=0
note_on channel=0 note=68 velocity=28 time=0
note_on channel=0 note=77 velocity=0 time=120
note_on channel=0 note=74 velocity=40 time=0
note_on channel=0 note=74 velocity=0 time=120
note_on channel=0 note=68 velocity=0 time=0
note_on channel=0 note=70 velocity=49 time=0
note_on channel=0 note=62 velocity=31 time=0
note_on channel=0 note=70 velocity=0 time=5
note_on channel=0 note=69 velocity=40 time=0
note_on channel=0 note=69 velocity=0 time=120
note_on channel=0 note=70 velocity=40 time=0
note_on channel=0 note=70 velocity=0 time=120
note_on channel=0 note=74 velocity=40 time=0
note_on channel=0 note=74 velocity=0 time=120
note_on channel=0 note=62 velocity=0 time=0
note_on channel=0 note=65 velocity=0 time=0
note_on channel=0 note=77 velocity=39 time=0
note_on channel=0 note=77 velocity=0 time=0
note_on channel=0 note=74 velocity=39 time=0
note_on channel=0 note=74 velocity=0 time=0
note_on channel=0 note=80 velocity=88 time=0
note_on channel=0 note=74 velocity=77 time=0
note_on channel=0 note=77 velocity=77 time=0
note_on channel=0 note=68 velocity=77 time=0
note_on channel=0 note=58 velocity=75 time=0
note_on channel=0 note=50 velocity=66 time=0
note_on channel=0 note=46 velocity=66 time=0
note_on channel=0 note=53 velocity=66 time=0
note_on channel=0 note=53 velocity=0 time=51
note_on channel=0 note=80 velocity=0 time=0
note_on channel=0 note=58 velocity=0 time=0
note_on channel=0 note=74 velocity=0 time=0
note_on channel=0 note=77 velocity=0 time=0
note_on channel=0 note=68 velocity=0 time=0
note_on channel=0 note=50 velocity=0 time=0
note_on channel=0 note=46 velocity=0 time=0
note_on channel=0 note=58 velocity=66 time=0
note_on channel=0 note=46 velocity=60 time=0
note_on channel=0 note=46 velocity=0 time=74
note_on channel=0 note=58 velocity=0 time=0
note_on channel=0 note=57 velocity=57 time=0
note_on channel=0 note=57 velocity=0 time=63
note_on channel=0 note=58 velocity=56 time=0
note_on channel=0 note=46 velocity=59 time=0
note_on channel=0 note=46 velocity=0 time=80
note_on channel=0 note=58 velocity=0 time=0
note_on channel=0 note=57 velocity=54 time=0
note_on channel=0 note=57 velocity=0 time=74
note_on channel=0 note=60 velocity=64 time=0
note_on channel=0 note=50 velocity=57 time=0
note_on channel=0 note=50 velocity=0 time=40
note_on channel=0 note=60 velocity=0 time=0
note_on channel=0 note=58 velocity=53 time=0
note_on channel=0 note=58 velocity=0 time=75
note_on channel=0 note=63 velocity=51 time=0
note_on channel=0 note=53 velocity=56 time=0
note_on channel=0 note=53 velocity=0 time=91
note_on channel=0 note=63 velocity=0 time=0
note_on channel=0 note=62 velocity=51 time=0
note_on channel=0 note=62 velocity=0 time=85
note_on channel=0 note=67 velocity=51 time=0
note_on channel=0 note=58 velocity=54 time=0
note_on channel=0 note=58 velocity=0 time=0
note_on channel=0 note=67 velocity=0 time=0
note_on channel=0 note=65 velocity=50 time=0
note_on channel=0 note=65 velocity=0 time=0
note_on channel=0 note=70 velocity=60 time=0
note_on channel=0 note=62 velocity=54 time=0
note_on channel=0 note=62 velocity=0 time=114
note_on channel=0 note=70 velocity=0 time=0
note_on channel=0 note=69 velocity=51 time=0
note_on channel=0 note=69 velocity=0 time=0
note_on channel=0 note=72 velocity=59 time=0
note_on channel=0 note=65 velocity=54 time=0
note_on channel=0 note=65 velocity=0 time=74
note_on channel=0 note=72 velocity=0 time=0
note_on channel=0 note=70 velocity=50 time=0
note_on channel=0 note=70 velocity=0 time=63
note_on channel=0 note=75 velocity=50 time=0
note_on channel=0 note=68 velocity=52 time=0
note_on channel=0 note=70 velocity=52 time=0
note_on channel=0 note=70 velocity=0 time=80
note_on channel=0 note=68 velocity=0 time=0
note_on channel=0 note=75 velocity=0 time=0
note_on channel=0 note=74 velocity=48 time=0
note_on channel=0 note=74 velocity=0 time=74
note_on channel=0 note=79 velocity=57 time=0
note_on channel=0 note=70 velocity=50 time=0
note_on channel=0 note=68 velocity=50 time=0
note_on channel=0 note=68 velocity=0 time=40
note_on channel=0 note=70 velocity=0 time=0
note_on channel=0 note=79 velocity=0 time=0
note_on channel=0 note=77 velocity=47 time=0
note_on channel=0 note=77 velocity=0 time=75
note_on channel=0 note=82 velocity=45 time=0
note_on channel=0 note=68 velocity=49 time=0
note_on channel=0 note=70 velocity=49 time=0
note_on channel=0 note=70 velocity=0 time=91
note_on channel=0 note=68 velocity=0 time=0
note_on channel=0 note=82 velocity=0 time=0
note_on channel=0 note=81 velocity=45 time=0
note_on channel=0 note=81 velocity=0 time=85
note_on channel=0 note=84 velocity=45 time=0
note_on channel=0 note=70 velocity=48 time=0
note_on channel=0 note=68 velocity=48 time=0
note_on channel=0 note=68 velocity=0 time=0
note_on channel=0 note=70 velocity=0 time=0
note_on channel=0 note=84 velocity=0 time=0
note_on channel=0 note=82 velocity=44 time=0
note_on channel=0 note=82 velocity=0 time=0
note_on channel=0 note=82 velocity=45 time=0
note_on channel=0 note=63 velocity=34 time=0
note_on channel=0 note=67 velocity=34 time=0
note_on channel=0 note=70 velocity=40 time=0
note_on channel=0 note=82 velocity=0 time=190
note_on channel=0 note=79 velocity=45 time=0
note_on channel=0 note=79 velocity=0 time=240
note_on channel=0 note=70 velocity=0 time=0
note_on channel=0 note=67 velocity=0 time=0
note_on channel=0 note=63 velocity=0 time=0
note_on channel=0 note=75 velocity=39 time=0
note_on channel=0 note=75 velocity=0 time=88
note_on channel=0 note=74 velocity=45 time=0
note_on channel=0 note=65 velocity=28 time=0
note_on channel=0 note=68 velocity=28 time=0
note_on channel=0 note=58 velocity=28 time=0
note_on channel=0 note=70 velocity=34 time=0
note_on channel=0 note=74 velocity=0 time=169
note_on channel=0 note=77 velocity=40 time=0
note_on channel=0 note=77 velocity=0 time=0
note_on channel=0 note=70 velocity=0 time=0
note_on channel=0 note=65 velocity=0 time=0
note_on channel=0 note=68 velocity=0 time=0
note_on channel=0 note=58 velocity=0 time=0
note_on channel=0 note=82 velocity=40 time=0
note_on channel=0 note=82 velocity=0 time=49
note_on channel=0 note=82 velocity=45 time=0
note_on channel=0 note=63 velocity=34 time=0
note_on channel=0 note=70 velocity=40 time=0
note_on channel=0 note=67 velocity=34 time=0
note_on channel=0 note=82 velocity=0 time=173
note_on channel=0 note=79 velocity=41 time=0
note_on channel=0 note=79 velocity=0 time=240
note_on channel=0 note=67 velocity=0 time=0
note_on channel=0 note=70 velocity=0 time=0
note_on channel=0 note=63 velocity=0 time=0
note_on channel=0 note=75 velocity=41 time=0
note_on channel=0 note=75 velocity=0 time=10
note_on channel=0 note=75 velocity=45 time=60
note_on channel=0 note=75 velocity=0 time=162
note_on channel=0 note=79 velocity=39 time=0
note_on channel=0 note=79 velocity=0 time=0
note_on channel=0 note=84 velocity=51 time=0
note_on channel=0 note=64 velocity=28 time=0
note_on channel=0 note=67 velocity=28 time=0
note_on channel=0 note=70 velocity=28 time=0
note_on channel=0 note=72 velocity=34 time=0
note_on channel=0 note=72 velocity=0 time=170
note_on channel=0 note=67 velocity=0 time=0
note_on channel=0 note=84 velocity=0 time=0
note_on channel=0 note=64 velocity=0 time=0
note_on channel=0 note=70 velocity=0 time=0
note_on channel=0 note=84 velocity=57 time=0
note_on channel=0 note=68 velocity=34 time=0
note_on channel=0 note=65 velocity=34 time=0
note_on channel=0 note=72 velocity=40 time=0
note_on channel=0 note=84 velocity=0 time=134
note_on channel=0 note=80 velocity=45 time=0
note_on channel=0 note=80 velocity=0 time=240
note_on channel=0 note=72 velocity=0 time=0
note_on channel=0 note=65 velocity=0 time=0
note_on channel=0 note=68 velocity=0 time=0
note_on channel=0 note=77 velocity=45 time=0
note_on channel=0 note=77 velocity=0 time=81
note_on channel=0 note=76 velocity=49 time=0
note_on channel=0 note=72 velocity=34 time=0
note_on channel=0 note=70 velocity=28 time=0
note_on channel=0 note=60 velocity=28 time=0
note_on channel=0 note=67 velocity=28 time=0
note_on channel=0 note=76 velocity=0 time=183
note_on channel=0 note=79 velocity=44 time=0
note_on channel=0 note=79 velocity=0 time=0
note_on channel=0 note=67 velocity=0 time=0
note_on channel=0 note=72 velocity=0 time=0
note_on channel=0 note=70 velocity=0 time=0
note_on channel=0 note=60 velocity=0 time=0
note_on channel=0 note=84 velocity=51 time=0
note_on channel=0 note=84 velocity=0 time=42
note_on channel=0 note=84 velocity=60 time=0
note_on channel=0 note=65 velocity=34 time=0
note_on channel=0 note=68 velocity=34 time=0
note_on channel=0 note=72 velocity=40 time=0
note_on channel=0 note=84 velocity=0 time=148
note_on channel=0 note=80 velocity=45 time=0
note_on channel=0 note=80 velocity=0 time=240
note_on channel=0 note=72 velocity=0 time=0
note_on channel=0 note=68 velocity=0 time=0
note_on channel=0 note=65 velocity=0 time=0
note_on channel=0 note=77 velocity=45 time=0
note_on channel=0 note=77 velocity=0 time=240
note_on channel=0 note=74 velocity=51 time=0
note_on channel=0 note=74 velocity=0 time=137
note_on channel=0 note=77 velocity=45 time=0
note_on channel=0 note=77 velocity=0 time=0
note_on channel=0 note=82 velocity=45 time=0
note_on channel=0 note=65 velocity=31 time=0
note_on channel=0 note=62 velocity=31 time=0
note_on channel=0 note=68 velocity=31 time=0
note_on channel=0 note=70 velocity=37 time=0
note_on channel=0 note=70 velocity=0 time=92
note_on channel=0 note=62 velocity=0 time=0
note_on channel=0 note=82 velocity=0 time=0
note_on channel=0 note=65 velocity=0 time=0
note_on channel=0 note=68 velocity=0 time=0
note_on channel=0 note=82 velocity=50 time=0
note_on channel=0 note=67 velocity=33 time=0
note_on channel=0 note=70 velocity=39 time=0
note_on channel=0 note=63 velocity=33 time=0
note_on channel=0 note=82 velocity=0 time=152
note_on channel=0 note=79 velocity=43 time=0
note_on channel=0 note=79 velocity=0 time=240
note_on channel=0 note=63 velocity=0 time=0
note_on channel=0 note=70 velocity=0 time=0
note_on channel=0 note=67 velocity=0 time=0
note_on channel=0 note=75 velocity=43 time=0
note_on channel=0 note=75 velocity=0 time=240
note_on channel=0 note=72 velocity=45 time=0
note_on channel=0 note=56 velocity=29 time=0
note_on channel=0 note=60 velocity=29 time=0
note_on channel=0 note=65 velocity=35 time=0
note_on channel=0 note=72 velocity=0 time=159
note_on channel=0 note=77 velocity=41 time=0
note_on channel=0 note=77 velocity=0 time=0
note_on channel=0 note=65 velocity=0 time=0
note_on channel=0 note=60 velocity=0 time=0
note_on channel=0 note=56 velocity=0 time=0
note_on channel=0 note=80 velocity=41 time=0
note_on channel=0 note=80 velocity=0 time=46
note_on channel=0 note=70 velocity=47 time=0
note_on channel=0 note=63 velocity=35 time=0
note_on channel=0 note=58 velocity=35 time=0
note_on channel=0 note=67 velocity=42 time=0
note_on channel=0 note=70 velocity=0 time=166
note_on channel=0 note=75 velocity=43 time=0
note_on channel=0 note=75 velocity=0 time=0
note_on channel=0 note=67 velocity=0 time=0
note_on channel=0 note=58 velocity=0 time=0
note_on channel=0 note=63 velocity=0 time=0
note_on channel=0 note=79 velocity=43 time=0
note_on channel=0 note=79 velocity=0 time=42
note_on channel=0 note=68 velocity=48 time=0
note_on channel=0 note=58 velocity=33 time=0
note_on channel=0 note=65 velocity=39 time=0
note_on channel=0 note=62 velocity=33 time=0
note_on channel=0 note=68 velocity=0 time=148
note_on channel=0 note=74 velocity=43 time=0
note_on channel=0 note=74 velocity=0 time=0
note_on channel=0 note=62 velocity=0 time=0
note_on channel=0 note=65 velocity=0 time=0
note_on channel=0 note=58 velocity=0 time=0
note_on channel=0 note=77 velocity=43 time=0
note_on channel=0 note=68 velocity=43 time=0
note_on channel=0 note=58 velocity=39 time=0
note_on channel=0 note=58 velocity=0 time=49
note_on channel=0 note=68 velocity=0 time=0
note_on channel=0 note=77 velocity=0 time=0
note_on channel=0 note=75 velocity=49 time=0
note_on channel=0 note=67 velocity=49 time=0
note_on channel=0 note=58 velocity=49 time=0
note_on channel=0 note=58 velocity=0 time=204
note_on channel=0 note=67 velocity=0 time=0
note_on channel=0 note=75 velocity=0 time=0
note_on channel=0 note=55 velocity=49 time=0
note_on channel=0 note=55 velocity=0 time=240
note_on channel=0 note=79 velocity=49 time=0
note_on channel=0 note=51 velocity=42 time=0
note_on channel=0 note=51 velocity=0 time=0
note_on channel=0 note=79 velocity=0 time=0
note_on channel=0 note=80 velocity=49 time=0
note_on channel=0 note=50 velocity=49 time=0
note_on channel=0 note=80 velocity=0 time=35
note_on channel=0 note=79 velocity=45 time=0
note_on channel=0 note=79 velocity=0 time=120
note_on channel=0 note=50 velocity=0 time=0
note_on channel=0 note=80 velocity=49 time=0
note_on channel=0 note=53 velocity=45 time=0
note_on channel=0 note=80 velocity=0 time=120
note_on channel=0 note=77 velocity=44 time=0
note_on channel=0 note=77 velocity=0 time=0
note_on channel=0 note=53 velocity=0 time=0
note_on channel=0 note=82 velocity=49 time=0
note_on channel=0 note=58 velocity=45 time=0
note_on channel=0 note=82 velocity=0 time=0
note_on channel=0 note=80 velocity=44 time=0
note_on channel=0 note=58 velocity=0 time=60
note_on channel=0 note=80 velocity=0 time=0
note_on channel=0 note=79 velocity=67 time=0
note_on channel=0 note=58 velocity=51 time=0
note_on channel=0 note=58 velocity=0 time=162
note_on channel=0 note=79 velocity=0 time=0
note_on channel=0 note=94 velocity=62 time=0
note_on channel=0 note=55 velocity=47 time=0
note_on channel=0 note=55 velocity=0 time=240
note_on channel=0 note=94 velocity=0 time=0
note_on channel=0 note=51 velocity=47 time=0
note_on channel=0 note=51 velocity=0 time=56
note_on channel=0 note=51 velocity=52 time=60
note_on channel=0 note=51 velocity=0 time=240
note_on channel=0 note=55 velocity=46 time=0
note_on channel=0 note=55 velocity=0 time=0
note_on channel=0 note=67 velocity=49 time=0
note_on channel=0 note=52 velocity=49 time=0
note_on channel=0 note=60 velocity=60 time=0
note_on channel=0 note=60 velocity=0 time=28
note_on channel=0 note=52 velocity=0 time=0
note_on channel=0 note=67 velocity=0 time=0
note_on channel=0 note=60 velocity=66 time=0
note_on channel=0 note=53 velocity=53 time=0
note_on channel=0 note=53 velocity=0 time=194
note_on channel=0 note=60 velocity=0 time=0
note_on channel=0 note=56 velocity=53 time=0
note_on channel=0 note=56 velocity=0 time=240
note_on channel=0 note=68 velocity=49 time=0
note_on channel=0 note=53 velocity=53 time=0
note_on channel=0 note=53 velocity=0 time=0
note_on channel=0 note=68 velocity=0 time=0
note_on channel=0 note=70 velocity=51 time=0
note_on channel=0 note=52 velocity=59 time=0
note_on channel=0 note=70 velocity=0 time=32
note_on channel=0 note=68 velocity=41 time=0
note_on channel=0 note=68 velocity=0 time=120
note_on channel=0 note=52 velocity=0 time=0
note_on channel=0 note=70 velocity=49 time=0
note_on channel=0 note=55 velocity=53 time=0
note_on channel=0 note=70 velocity=0 time=120
note_on channel=0 note=67 velocity=42 time=0
note_on channel=0 note=67 velocity=0 time=0
note_on channel=0 note=55 velocity=0 time=0
note_on channel=0 note=72 velocity=49 time=0
note_on channel=0 note=60 velocity=58 time=0
note_on channel=0 note=72 velocity=0 time=0
note_on channel=0 note=70 velocity=47 time=0
note_on channel=0 note=60 velocity=0 time=60
note_on channel=0 note=70 velocity=0 time=0
note_on channel=0 note=68 velocity=69 time=0
note_on channel=0 note=60 velocity=70 time=0
note_on channel=0 note=60 velocity=0 time=197
note_on channel=0 note=68 velocity=0 time=0
note_on channel=0 note=84 velocity=61 time=0
note_on channel=0 note=56 velocity=56 time=0
note_on channel=0 note=56 velocity=0 time=240
note_on channel=0 note=84 velocity=0 time=0
note_on channel=0 note=53 velocity=57 time=0
note_on channel=0 note=53 velocity=0 time=240
note_on channel=0 note=50 velocity=64 time=0
note_on channel=0 note=50 velocity=0 time=137
note_on channel=0 note=53 velocity=58 time=0
note_on channel=0 note=53 velocity=0 time=0
note_on channel=0 note=77 velocity=55 time=0
note_on channel=0 note=50 velocity=53 time=0
note_on channel=0 note=58 velocity=63 time=0
note_on channel=0 note=58 velocity=0 time=28
note_on channel=0 note=50 velocity=0 time=0
note_on channel=0 note=77 velocity=0 time=0
note_on channel=0 note=58 velocity=72 time=0
note_on channel=0 note=51 velocity=61 time=0
note_on channel=0 note=51 velocity=0 time=176
note_on channel=0 note=58 velocity=0 time=0
note_on channel=0 note=55 velocity=56 time=0
note_on channel=0 note=55 velocity=0 time=240
note_on channel=0 note=79 velocity=53 time=0
note_on channel=0 note=51 velocity=57 time=0
note_on channel=0 note=51 velocity=0 time=0
note_on channel=0 note=79 velocity=0 time=0
note_on channel=0 note=80 velocity=53 time=0
note_on channel=0 note=44 velocity=50 time=0
note_on channel=0 note=48 velocity=59 time=0
note_on channel=0 note=80 velocity=0 time=35
note_on channel=0 note=79 velocity=49 time=0
note_on channel=0 note=79 velocity=0 time=120
note_on channel=0 note=48 velocity=0 time=0
note_on channel=0 note=44 velocity=0 time=0
note_on channel=0 note=80 velocity=55 time=0
note_on channel=0 note=53 velocity=55 time=0
note_on channel=0 note=80 velocity=0 time=120
note_on channel=0 note=77 velocity=49 time=0
note_on channel=0 note=77 velocity=0 time=0
note_on channel=0 note=53 velocity=0 time=0
note_on channel=0 note=92 velocity=74 time=0
note_on channel=0 note=56 velocity=55 time=0
note_on channel=0 note=56 velocity=0 time=35
note_on channel=0 note=92 velocity=0 time=0
note_on channel=0 note=46 velocity=61 time=0
note_on channel=0 note=46 velocity=0 time=201
note_on channel=0 note=51 velocity=56 time=0
note_on channel=0 note=51 velocity=0 time=0
note_on channel=0 note=75 velocity=49 time=0
note_on channel=0 note=55 velocity=56 time=0
note_on channel=0 note=55 velocity=0 time=46
note_on channel=0 note=75 velocity=0 time=0
note_on channel=0 note=77 velocity=57 time=0
note_on channel=0 note=46 velocity=62 time=0
note_on channel=0 note=77 velocity=0 time=84
note_on channel=0 note=75 velocity=49 time=0
note_on channel=0 note=75 velocity=0 time=120
note_on channel=0 note=46 velocity=0 time=0
note_on channel=0 note=77 velocity=56 time=0
note_on channel=0 note=50 velocity=56 time=0
note_on channel=0 note=77 velocity=0 time=120
note_on channel=0 note=74 velocity=49 time=0
note_on channel=0 note=74 velocity=0 time=0
note_on channel=0 note=50 velocity=0 time=0
note_on channel=0 note=89 velocity=72 time=0
note_on channel=0 note=58 velocity=56 time=0
note_on channel=0 note=46 velocity=56 time=0
note_on channel=0 note=46 velocity=0 time=35
note_on channel=0 note=58 velocity=0 time=0
note_on channel=0 note=89 velocity=0 time=0
note_on channel=0 note=67 velocity=81 time=0
note_on channel=0 note=46 velocity=63 time=0
note_on channel=0 note=67 velocity=0 time=53
note_on channel=0 note=79 velocity=60 time=0
note_on channel=0 note=79 velocity=0 time=120
note_on channel=0 note=46 velocity=0 time=0
note_on channel=0 note=67 velocity=69 time=0
note_on channel=0 note=43 velocity=63 time=0
note_on channel=0 note=67 velocity=0 time=120
note_on channel=0 note=79 velocity=59 time=0
note_on channel=0 note=79 velocity=0 time=120
note_on channel=0 note=43 velocity=0 time=0
note_on channel=0 note=70 velocity=67 time=0
note_on channel=0 note=39 velocity=55 time=0
note_on channel=0 note=70 velocity=0 time=120
note_on channel=0 note=82 velocity=59 time=0
note_on channel=0 note=82 velocity=0 time=0
note_on channel=0 note=39 velocity=0 time=0
note_on channel=0 note=70 velocity=77 time=0
note_on channel=0 note=38 velocity=63 time=0
note_on channel=0 note=70 velocity=0 time=32
note_on channel=0 note=82 velocity=57 time=0
note_on channel=0 note=82 velocity=0 time=120
note_on channel=0 note=38 velocity=0 time=0
note_on channel=0 note=70 velocity=63 time=0
note_on channel=0 note=41 velocity=57 time=0
note_on channel=0 note=70 velocity=0 time=120
note_on channel=0 note=82 velocity=56 time=0
note_on channel=0 note=82 velocity=0 time=0
note_on channel=0 note=41 velocity=0 time=0
note_on channel=0 note=68 velocity=63 time=0
note_on channel=0 note=46 velocity=57 time=0
note_on channel=0 note=68 velocity=0 time=0
note_on channel=0 note=80 velocity=56 time=0
note_on channel=0 note=46 velocity=0 time=60
note_on channel=0 note=80 velocity=0 time=0
note_on channel=0 note=67 velocity=73 time=0
note_on channel=0 note=46 velocity=63 time=0
note_on channel=0 note=67 velocity=0 time=39
note_on channel=0 note=79 velocity=60 time=0
note_on channel=0 note=79 velocity=0 time=120
note_on channel=0 note=46 velocity=0 time=0
note_on channel=0 note=67 velocity=66 time=0
note_on channel=0 note=43 velocity=58 time=0
note_on channel=0 note=67 velocity=0 time=120
note_on channel=0 note=79 velocity=60 time=0
note_on channel=0 note=79 velocity=0 time=120
note_on channel=0 note=43 velocity=0 time=0
note_on channel=0 note=70 velocity=66 time=0
note_on channel=0 note=39 velocity=58 time=0
note_on channel=0 note=70 velocity=0 time=120
note_on channel=0 note=82 velocity=59 time=0
note_on channel=0 note=39 velocity=0 time=60
note_on channel=0 note=82 velocity=0 time=60
note_on channel=0 note=70 velocity=73 time=0
note_on channel=0 note=39 velocity=63 time=0
note_on channel=0 note=70 velocity=0 time=56
note_on channel=0 note=82 velocity=60 time=0
note_on channel=0 note=82 velocity=0 time=120
note_on channel=0 note=39 velocity=0 time=0
note_on channel=0 note=70 velocity=63 time=0
note_on channel=0 note=43 velocity=55 time=0
note_on channel=0 note=70 velocity=0 time=120
note_on channel=0 note=82 velocity=55 time=0
note_on channel=0 note=82 velocity=0 time=0
note_on channel=0 note=43 velocity=0 time=0
note_on channel=0 note=67 velocity=66 time=0
note_on channel=0 note=40 velocity=58 time=0
note_on channel=0 note=48 velocity=70 time=0
note_on channel=0 note=67 velocity=0 time=56
note_on channel=0 note=79 velocity=60 time=0
note_on channel=0 note=48 velocity=0 time=60
note_on channel=0 note=40 velocity=0 time=0
note_on channel=0 note=79 velocity=0 time=0
note_on channel=0 note=68 velocity=73 time=0
note_on channel=0 note=48 velocity=78 time=0
note_on channel=0 note=41 velocity=63 time=0
note_on channel=0 note=68 velocity=0 time=60
note_on channel=0 note=80 velocity=53 time=0
note_on channel=0 note=80 velocity=0 time=120
note_on channel=0 note=41 velocity=0 time=0
note_on channel=0 note=48 velocity=0 time=0
note_on channel=0 note=68 velocity=61 time=0
note_on channel=0 note=44 velocity=63 time=0
note_on channel=0 note=68 velocity=0 time=120
note_on channel=0 note=80 velocity=53 time=0
note_on channel=0 note=80 velocity=0 time=120
note_on channel=0 note=44 velocity=0 time=0
note_on channel=0 note=72 velocity=61 time=0
note_on channel=0 note=41 velocity=63 time=0
note_on channel=0 note=72 velocity=0 time=120
note_on channel=0 note=84 velocity=56 time=0
note_on channel=0 note=84 velocity=0 time=0
note_on channel=0 note=41 velocity=0 time=0
note_on channel=0 note=72 velocity=73 time=0
note_on channel=0 note=40 velocity=69 time=0
note_on channel=0 note=72 velocity=0 time=56
note_on channel=0 note=84 velocity=53 time=0
note_on channel=0 note=84 velocity=0 time=120
note_on channel=0 note=40 velocity=0 time=0
note_on channel=0 note=72 velocity=61 time=0
note_on channel=0 note=43 velocity=62 time=0
note_on channel=0 note=72 velocity=0 time=120
note_on channel=0 note=84 velocity=55 time=0
note_on channel=0 note=84 velocity=0 time=0
note_on channel=0 note=43 velocity=0 time=0
note_on channel=0 note=70 velocity=61 time=0
note_on channel=0 note=48 velocity=73 time=0
note_on channel=0 note=70 velocity=0 time=0
note_on channel=0 note=82 velocity=53 time=0
note_on channel=0 note=48 velocity=0 time=60
note_on channel=0 note=82 velocity=0 time=0
note_on channel=0 note=68 velocity=73 time=0
note_on channel=0 note=48 velocity=86 time=0
note_on channel=0 note=68 velocity=0 time=46
note_on channel=0 note=80 velocity=55 time=0
note_on channel=0 note=80 velocity=0 time=120
note_on channel=0 note=48 velocity=0 time=0
note_on channel=0 note=68 velocity=61 time=0
note_on channel=0 note=44 velocity=63 time=0
note_on channel=0 note=68 velocity=0 time=120
note_on channel=0 note=80 velocity=55 time=0
note_on channel=0 note=80 velocity=0 time=120
note_on channel=0 note=44 velocity=0 time=0
note_on channel=0 note=72 velocity=61 time=0
note_on channel=0 note=41 velocity=63 time=0
note_on channel=0 note=72 velocity=0 time=120
note_on channel=0 note=84 velocity=55 time=0
note_on channel=0 note=84 velocity=0 time=120
note_on channel=0 note=41 velocity=0 time=0
note_on channel=0 note=72 velocity=73 time=0
note_on channel=0 note=38 velocity=72 time=0
note_on channel=0 note=72 velocity=0 time=39
note_on channel=0 note=84 velocity=52 time=0
note_on channel=0 note=84 velocity=0 time=120
note_on channel=0 note=38 velocity=0 time=0
note_on channel=0 note=70 velocity=59 time=0
note_on channel=0 note=41 velocity=63 time=0
note_on channel=0 note=70 velocity=0 time=120
note_on channel=0 note=82 velocity=52 time=0
note_on channel=0 note=82 velocity=0 time=0
note_on channel=0 note=41 velocity=0 time=0
note_on channel=0 note=68 velocity=59 time=0
note_on channel=0 note=38 velocity=58 time=0
note_on channel=0 note=46 velocity=69 time=0
note_on channel=0 note=68 velocity=0 time=120
note_on channel=0 note=80 velocity=53 time=0
note_on channel=0 note=46 velocity=0 time=60
note_on channel=0 note=38 velocity=0 time=0
note_on channel=0 note=80 velocity=0 time=0
note_on channel=0 note=67 velocity=73 time=0
note_on channel=0 note=39 velocity=66 time=0
note_on channel=0 note=46 velocity=78 time=0
note_on channel=0 note=67 velocity=0 time=56
note_on channel=0 note=79 velocity=53 time=0
note_on channel=0 note=79 velocity=0 time=120
note_on channel=0 note=46 velocity=0 time=0
note_on channel=0 note=39 velocity=0 time=0
note_on channel=0 note=70 velocity=61 time=0
note_on channel=0 note=43 velocity=60 time=0
note_on channel=0 note=70 velocity=0 time=120
note_on channel=0 note=82 velocity=55 time=0
note_on channel=0 note=82 velocity=0 time=120
note_on channel=0 note=43 velocity=0 time=0
note_on channel=0 note=75 velocity=61 time=0
note_on channel=0 note=39 velocity=60 time=0
note_on channel=0 note=75 velocity=0 time=120
note_on channel=0 note=87 velocity=55 time=0
note_on channel=0 note=87 velocity=0 time=0
note_on channel=0 note=39 velocity=0 time=0
note_on channel=0 note=75 velocity=73 time=0
note_on channel=0 note=32 velocity=53 time=0
note_on channel=0 note=36 velocity=63 time=0
note_on channel=0 note=75 velocity=0 time=28
note_on channel=0 note=87 velocity=53 time=0
note_on channel=0 note=87 velocity=0 time=120
note_on channel=0 note=36 velocity=0 time=0
note_on channel=0 note=72 velocity=60 time=0
note_on channel=0 note=41 velocity=58 time=0
note_on channel=0 note=72 velocity=0 time=120
note_on channel=0 note=84 velocity=53 time=0
note_on channel=0 note=84 velocity=0 time=0
note_on channel=0 note=41 velocity=0 time=0
note_on channel=0 note=32 velocity=0 time=0
note_on channel=0 note=68 velocity=60 time=0
note_on channel=0 note=44 velocity=63 time=0
note_on channel=0 note=68 velocity=0 time=120
note_on channel=0 note=80 velocity=53 time=0
note_on channel=0 note=44 velocity=0 time=60
note_on channel=0 note=80 velocity=0 time=0
note_on channel=0 note=75 velocity=73 time=0
note_on channel=0 note=34 velocity=69 time=0
note_on channel=0 note=75 velocity=0 time=77
note_on channel=0 note=87 velocity=56 time=0
note_on channel=0 note=87 velocity=0 time=120
note_on channel=0 note=34 velocity=0 time=0
note_on channel=0 note=70 velocity=62 time=0
note_on channel=0 note=39 velocity=58 time=0
note_on channel=0 note=70 velocity=0 time=120
note_on channel=0 note=82 velocity=55 time=0
note_on channel=0 note=82 velocity=0 time=0
note_on channel=0 note=39 velocity=0 time=0
note_on channel=0 note=67 velocity=62 time=0
note_on channel=0 note=43 velocity=58 time=0
note_on channel=0 note=67 velocity=0 time=120
note_on channel=0 note=79 velocity=55 time=0
note_on channel=0 note=43 velocity=0 time=60
note_on channel=0 note=79 velocity=0 time=0
note_on channel=0 note=70 velocity=73 time=0
note_on channel=0 note=34 velocity=63 time=0
note_on channel=0 note=70 velocity=0 time=35
note_on channel=0 note=82 velocity=56 time=0
note_on channel=0 note=82 velocity=0 time=120
note_on channel=0 note=34 velocity=0 time=0
note_on channel=0 note=68 velocity=64 time=0
note_on channel=0 note=41 velocity=57 time=0
note_on channel=0 note=68 velocity=0 time=120
note_on channel=0 note=80 velocity=57 time=0
note_on channel=0 note=80 velocity=0 time=0
note_on channel=0 note=41 velocity=0 time=0
note_on channel=0 note=65 velocity=64 time=0
note_on channel=0 note=46 velocity=57 time=0
note_on channel=0 note=65 velocity=0 time=120
note_on channel=0 note=77 velocity=58 time=0
note_on channel=0 note=46 velocity=0 time=60
note_on channel=0 note=77 velocity=0 time=60
note_on channel=0 note=55 velocity=78 time=0
note_on channel=0 note=39 velocity=73 time=0
note_on channel=0 note=39 velocity=0 time=53
note_on channel=0 note=55 velocity=0 time=0
note_on channel=0 note=63 velocity=64 time=0
note_on channel=0 note=63 velocity=0 time=0
note_on channel=0 note=58 velocity=72 time=0
note_on channel=0 note=55 velocity=62 time=0
note_on channel=0 note=51 velocity=49 time=0
note_on channel=0 note=51 velocity=0 time=120
note_on channel=0 note=55 velocity=0 time=0
note_on channel=0 note=58 velocity=0 time=0
note_on channel=0 note=67 velocity=64 time=0
note_on channel=0 note=67 velocity=0 time=120
note_on channel=0 note=63 velocity=74 time=0
note_on channel=0 note=58 velocity=62 time=0
note_on channel=0 note=51 velocity=49 time=0
note_on channel=0 note=55 velocity=49 time=0
note_on channel=0 note=55 velocity=0 time=120
note_on channel=0 note=63 velocity=0 time=0
note_on channel=0 note=58 velocity=0 time=0
note_on channel=0 note=51 velocity=0 time=0
note_on channel=0 note=70 velocity=64 time=0
note_on channel=0 note=70 velocity=0 time=0
note_on channel=0 note=67 velocity=79 time=0
note_on channel=0 note=55 velocity=49 time=0
note_on channel=0 note=63 velocity=62 time=0
note_on channel=0 note=58 velocity=49 time=0
note_on channel=0 note=51 velocity=49 time=0
note_on channel=0 note=51 velocity=0 time=120
note_on channel=0 note=63 velocity=0 time=0
note_on channel=0 note=67 velocity=0 time=0
note_on channel=0 note=55 velocity=0 time=0
note_on channel=0 note=58 velocity=0 time=0
note_on channel=0 note=75 velocity=64 time=0
note_on channel=0 note=75 velocity=0 time=120
note_on channel=0 note=70 velocity=70 time=0
note_on channel=0 note=51 velocity=49 time=0
note_on channel=0 note=63 velocity=62 time=0
note_on channel=0 note=58 velocity=49 time=0
note_on channel=0 note=55 velocity=49 time=0
note_on channel=0 note=55 velocity=0 time=120
note_on channel=0 note=63 velocity=0 time=0
note_on channel=0 note=70 velocity=0 time=0
note_on channel=0 note=51 velocity=0 time=0
note_on channel=0 note=58 velocity=0 time=0
note_on channel=0 note=79 velocity=64 time=0
note_on channel=0 note=79 velocity=0 time=120
note_on channel=0 note=75 velocity=71 time=0
note_on channel=0 note=58 velocity=49 time=0
note_on channel=0 note=63 velocity=62 time=0
note_on channel=0 note=51 velocity=49 time=0
note_on channel=0 note=55 velocity=49 time=0
note_on channel=0 note=55 velocity=0 time=120
note_on channel=0 note=63 velocity=0 time=0
note_on channel=0 note=75 velocity=0 time=0
note_on channel=0 note=58 velocity=0 time=0
note_on channel=0 note=51 velocity=0 time=0
note_on channel=0 note=82 velocity=64 time=0
note_on channel=0 note=82 velocity=0 time=120
note_on channel=0 note=79 velocity=79 time=0
note_on channel=0 note=63 velocity=70 time=0
note_on channel=0 note=55 velocity=56 time=0
note_on channel=0 note=58 velocity=56 time=0
note_on channel=0 note=51 velocity=56 time=0
note_on channel=0 note=51 velocity=0 time=120
note_on channel=0 note=55 velocity=0 time=0
note_on channel=0 note=79 velocity=0 time=0
note_on channel=0 note=63 velocity=0 time=0
note_on channel=0 note=58 velocity=0 time=0
note_on channel=0 note=87 velocity=64 time=0
note_on channel=0 note=87 velocity=0 time=120
note_on channel=0 note=82 velocity=70 time=0
note_on channel=0 note=58 velocity=49 time=0
note_on channel=0 note=63 velocity=62 time=0
note_on channel=0 note=51 velocity=49 time=0
note_on channel=0 note=55 velocity=49 time=0
note_on channel=0 note=55 velocity=0 time=120
note_on channel=0 note=63 velocity=0 time=0
note_on channel=0 note=82 velocity=0 time=0
note_on channel=0 note=58 velocity=0 time=0
note_on channel=0 note=51 velocity=0 time=0
note_on channel=0 note=91 velocity=61 time=0
note_on channel=0 note=91 velocity=0 time=120
note_on channel=0 note=87 velocity=69 time=0
note_on channel=0 note=55 velocity=49 time=0
note_on channel=0 note=63 velocity=62 time=0
note_on channel=0 note=58 velocity=49 time=0
note_on channel=0 note=51 velocity=49 time=0
note_on channel=0 note=51 velocity=0 time=120
note_on channel=0 note=63 velocity=0 time=0
note_on channel=0 note=87 velocity=0 time=0
note_on channel=0 note=55 velocity=0 time=0
note_on channel=0 note=58 velocity=0 time=0
note_on channel=0 note=94 velocity=62 time=0
note_on channel=0 note=94 velocity=0 time=0
note_on channel=0 note=93 velocity=73 time=0
note_on channel=0 note=53 velocity=49 time=0
note_on channel=0 note=62 velocity=62 time=0
note_on channel=0 note=56 velocity=49 time=0
note_on channel=0 note=58 velocity=49 time=0
note_on channel=0 note=51 velocity=49 time=0
note_on channel=0 note=51 velocity=0 time=11
note_on channel=0 note=53 velocity=0 time=0
note_on channel=0 note=62 velocity=0 time=0
note_on channel=0 note=93 velocity=0 time=0
note_on channel=0 note=58 velocity=0 time=0
note_on channel=0 note=56 velocity=0 time=0
note_on channel=0 note=94 velocity=66 time=0
note_on channel=0 note=94 velocity=0 time=120
note_on channel=0 note=93 velocity=70 time=0
note_on channel=0 note=53 velocity=49 time=0
note_on channel=0 note=62 velocity=62 time=0
note_on channel=0 note=58 velocity=49 time=0
note_on channel=0 note=56 velocity=49 time=0
note_on channel=0 note=51 velocity=49 time=0
note_on channel=0 note=51 velocity=0 time=17
note_on channel=0 note=53 velocity=0 time=0
note_on channel=0 note=62 velocity=0 time=0
note_on channel=0 note=93 velocity=0 time=0
note_on channel=0 note=56 velocity=0 time=0
note_on channel=0 note=58 velocity=0 time=0
note_on channel=0 note=94 velocity=64 time=0
note_on channel=0 note=94 velocity=0 time=120
note_on channel=0 note=93 velocity=69 time=0
note_on channel=0 note=53 velocity=49 time=0
note_on channel=0 note=62 velocity=62 time=0
note_on channel=0 note=58 velocity=49 time=0
note_on channel=0 note=56 velocity=49 time=0
note_on channel=0 note=51 velocity=49 time=0
note_on channel=0 note=51 velocity=0 time=0
note_on channel=0 note=53 velocity=0 time=0
note_on channel=0 note=62 velocity=0 time=0
note_on channel=0 note=93 velocity=0 time=0
note_on channel=0 note=56 velocity=0 time=0
note_on channel=0 note=58 velocity=0 time=0
note_on channel=0 note=94 velocity=64 time=0
note_on channel=0 note=94 velocity=0 time=0
note_on channel=0 note=96 velocity=77 time=0
note_on channel=0 note=51 velocity=57 time=0
note_on channel=0 note=63 velocity=72 time=0
note_on channel=0 note=58 velocity=57 time=0
note_on channel=0 note=55 velocity=57 time=0
note_on channel=0 note=55 velocity=0 time=28
note_on channel=0 note=63 velocity=0 time=0
note_on channel=0 note=96 velocity=0 time=0
note_on channel=0 note=51 velocity=0 time=0
note_on channel=0 note=58 velocity=0 time=0
note_on channel=0 note=94 velocity=77 time=0
note_on channel=0 note=94 velocity=0 time=0
note_on channel=0 note=92 velocity=76 time=0
note_on channel=0 note=58 velocity=49 time=0
note_on channel=0 note=63 velocity=62 time=0
note_on channel=0 note=51 velocity=49 time=0
note_on channel=0 note=55 velocity=49 time=0
note_on channel=0 note=55 velocity=0 time=120
note_on channel=0 note=63 velocity=0 time=0
note_on channel=0 note=92 velocity=0 time=0
note_on channel=0 note=58 velocity=0 time=0
note_on channel=0 note=51 velocity=0 time=0
note_on channel=0 note=91 velocity=75 time=0
note_on channel=0 note=91 velocity=0 time=120
note_on channel=0 note=89 velocity=74 time=0
note_on channel=0 note=63 velocity=62 time=0
note_on channel=0 note=55 velocity=49 time=0
note_on channel=0 note=58 velocity=49 time=0
note_on channel=0 note=51 velocity=49 time=0
note_on channel=0 note=51 velocity=0 time=120
note_on channel=0 note=55 velocity=0 time=0
note_on channel=0 note=89 velocity=0 time=0
note_on channel=0 note=63 velocity=0 time=0
note_on channel=0 note=58 velocity=0 time=0
note_on channel=0 note=87 velocity=74 time=0
note_on channel=0 note=87 velocity=0 time=120
note_on channel=0 note=86 velocity=72 time=0
note_on channel=0 note=58 velocity=49 time=0
note_on channel=0 note=63 velocity=62 time=0
note_on channel=0 note=51 velocity=49 time=0
note_on channel=0 note=55 velocity=49 time=0
note_on channel=0 note=55 velocity=0 time=107
note_on channel=0 note=63 velocity=0 time=0
note_on channel=0 note=86 velocity=0 time=0
note_on channel=0 note=58 velocity=0 time=0
note_on channel=0 note=51 velocity=0 time=0
note_on channel=0 note=84 velocity=65 time=0
note_on channel=0 note=84 velocity=0 time=120
note_on channel=0 note=82 velocity=65 time=0
note_on channel=0 note=55 velocity=49 time=0
note_on channel=0 note=63 velocity=62 time=0
note_on channel=0 note=58 velocity=49 time=0
note_on channel=0 note=51 velocity=49 time=0
note_on channel=0 note=51 velocity=0 time=120
note_on channel=0 note=63 velocity=0 time=0
note_on channel=0 note=82 velocity=0 time=0
note_on channel=0 note=55 velocity=0 time=0
note_on channel=0 note=58 velocity=0 time=0
note_on channel=0 note=80 velocity=65 time=0
note_on channel=0 note=80 velocity=0 time=120
note_on channel=0 note=79 velocity=65 time=0
note_on channel=0 note=51 velocity=49 time=0
note_on channel=0 note=63 velocity=62 time=0
note_on channel=0 note=58 velocity=49 time=0
note_on channel=0 note=55 velocity=49 time=0
note_on channel=0 note=55 velocity=0 time=0
note_on channel=0 note=63 velocity=0 time=0
note_on channel=0 note=79 velocity=0 time=0
note_on channel=0 note=51 velocity=0 time=0
note_on channel=0 note=58 velocity=0 time=0
note_on channel=0 note=77 velocity=65 time=0
note_on channel=0 note=77 velocity=0 time=0
note_on channel=0 note=75 velocity=70 time=0
note_on channel=0 note=58 velocity=55 time=0
note_on channel=0 note=63 velocity=69 time=0
note_on channel=0 note=51 velocity=55 time=0
note_on channel=0 note=55 velocity=55 time=0
note_on channel=0 note=55 velocity=0 time=31
note_on channel=0 note=63 velocity=0 time=0
note_on channel=0 note=75 velocity=0 time=0
note_on channel=0 note=58 velocity=0 time=0
note_on channel=0 note=51 velocity=0 time=0
note_on channel=0 note=74 velocity=69 time=0
note_on channel=0 note=74 velocity=0 time=120
note_on channel=0 note=72 velocity=68 time=0
note_on channel=0 note=63 velocity=61 time=0
note_on channel=0 note=55 velocity=48 time=0
note_on channel=0 note=58 velocity=48 time=0
note_on channel=0 note=51 velocity=48 time=0
note_on channel=0 note=51 velocity=0 time=120
note_on channel=0 note=55 velocity=0 time=0
note_on channel=0 note=72 velocity=0 time=0
note_on channel=0 note=63 velocity=0 time=0
note_on channel=0 note=58 velocity=0 time=0
note_on channel=0 note=70 velocity=68 time=0
note_on channel=0 note=70 velocity=0 time=0
note_on channel=0 note=68 velocity=67 time=0
note_on channel=0 note=58 velocity=48 time=0
note_on channel=0 note=63 velocity=61 time=0
note_on channel=0 note=51 velocity=48 time=0
note_on channel=0 note=55 velocity=48 time=0
note_on channel=0 note=55 velocity=0 time=120
note_on channel=0 note=63 velocity=0 time=0
note_on channel=0 note=68 velocity=0 time=0
note_on channel=0 note=58 velocity=0 time=0
note_on channel=0 note=51 velocity=0 time=0
note_on channel=0 note=67 velocity=66 time=0
note_on channel=0 note=67 velocity=0 time=120
note_on channel=0 note=65 velocity=64 time=0
note_on channel=0 note=53 velocity=48 time=0
note_on channel=0 note=58 velocity=61 time=0
note_on channel=0 note=56 velocity=48 time=0
note_on channel=0 note=51 velocity=48 time=0
note_on channel=0 note=51 velocity=0 time=12
note_on channel=0 note=58 velocity=0 time=0
note_on channel=0 note=65 velocity=0 time=0
note_on channel=0 note=53 velocity=0 time=0
note_on channel=0 note=56 velocity=0 time=0
note_on channel=0 note=63 velocity=59 time=0
note_on channel=0 note=63 velocity=0 time=120
note_on channel=0 note=62 velocity=64 time=0
note_on channel=0 note=51 velocity=48 time=0
note_on channel=0 note=58 velocity=61 time=0
note_on channel=0 note=56 velocity=48 time=0
note_on channel=0 note=53 velocity=48 time=0
note_on channel=0 note=53 velocity=0 time=120
note_on channel=0 note=58 velocity=0 time=0
note_on channel=0 note=62 velocity=0 time=0
note_on channel=0 note=51 velocity=0 time=0
note_on channel=0 note=56 velocity=0 time=0
note_on channel=0 note=65 velocity=60 time=0
note_on channel=0 note=65 velocity=0 time=120
note_on channel=0 note=68 velocity=69 time=0
note_on channel=0 note=56 velocity=48 time=0
note_on channel=0 note=58 velocity=61 time=0
note_on channel=0 note=51 velocity=48 time=0
note_on channel=0 note=53 velocity=48 time=0
note_on channel=0 note=53 velocity=0 time=0
note_on channel=0 note=58 velocity=0 time=0
note_on channel=0 note=68 velocity=0 time=0
note_on channel=0 note=56 velocity=0 time=0
note_on channel=0 note=51 velocity=0 time=0
note_on channel=0 note=62 velocity=63 time=0
note_on channel=0 note=62 velocity=0 time=0
note_on channel=0 note=55 velocity=78 time=0
note_on channel=0 note=39 velocity=73 time=0
note_on channel=0 note=39 velocity=0 time=53
note_on channel=0 note=55 velocity=0 time=0
note_on channel=0 note=63 velocity=64 time=0
note_on channel=0 note=63 velocity=0 time=0
note_on channel=0 note=58 velocity=72 time=0
note_on channel=0 note=51 velocity=49 time=0
note_on channel=0 note=55 velocity=62 time=0
note_on channel=0 note=55 velocity=0 time=120
note_on channel=0 note=51 velocity=0 time=0
note_on channel=0 note=58 velocity=0 time=0
note_on channel=0 note=67 velocity=64 time=0
note_on channel=0 note=67 velocity=0 time=120
note_on channel=0 note=63 velocity=74 time=0
note_on channel=0 note=51 velocity=49 time=0
note_on channel=0 note=58 velocity=62 time=0
note_on channel=0 note=55 velocity=49 time=0
note_on channel=0 note=55 velocity=0 time=120
note_on channel=0 note=63 velocity=0 time=0
note_on channel=0 note=51 velocity=0 time=0
note_on channel=0 note=58 velocity=0 time=0
note_on channel=0 note=70 velocity=64 time=0
note_on channel=0 note=70 velocity=0 time=0
note_on channel=0 note=67 velocity=79 time=0
note_on channel=0 note=58 velocity=49 time=0
note_on channel=0 note=63 velocity=62 time=0
note_on channel=0 note=51 velocity=49 time=0
note_on channel=0 note=55 velocity=49 time=0
note_on channel=0 note=55 velocity=0 time=120
note_on channel=0 note=63 velocity=0 time=0
note_on channel=0 note=67 velocity=0 time=0
note_on channel=0 note=58 velocity=0 time=0
note_on channel=0 note=51 velocity=0 time=0
note_on channel=0 note=75 velocity=64 time=0
note_on channel=0 note=75 velocity=0 time=120
note_on channel=0 note=70 velocity=70 time=0
note_on channel=0 note=63 velocity=62 time=0
note_on channel=0 note=55 velocity=49 time=0
note_on channel=0 note=58 velocity=49 time=0
note_on channel=0 note=51 velocity=49 time=0
note_on channel=0 note=51 velocity=0 time=120
note_on channel=0 note=55 velocity=0 time=0
note_on channel=0 note=70 velocity=0 time=0
note_on channel=0 note=63 velocity=0 time=0
note_on channel=0 note=58 velocity=0 time=0
note_on channel=0 note=79 velocity=64 time=0
note_on channel=0 note=79 velocity=0 time=120
note_on channel=0 note=75 velocity=71 time=0
note_on channel=0 note=58 velocity=49 time=0
note_on channel=0 note=63 velocity=62 time=0
note_on channel=0 note=51 velocity=49 time=0
note_on channel=0 note=55 velocity=49 time=0
note_on channel=0 note=55 velocity=0 time=120
note_on channel=0 note=63 velocity=0 time=0
note_on channel=0 note=75 velocity=0 time=0
note_on channel=0 note=58 velocity=0 time=0
note_on channel=0 note=51 velocity=0 time=0
note_on channel=0 note=82 velocity=64 time=0
note_on channel=0 note=82 velocity=0 time=120
note_on channel=0 note=79 velocity=79 time=0
note_on channel=0 note=55 velocity=56 time=0
note_on channel=0 note=63 velocity=70 time=0
note_on channel=0 note=58 velocity=56 time=0
note_on channel=0 note=51 velocity=56 time=0
note_on channel=0 note=51 velocity=0 time=120
note_on channel=0 note=63 velocity=0 time=0
note_on channel=0 note=79 velocity=0 time=0
note_on channel=0 note=55 velocity=0 time=0
note_on channel=0 note=58 velocity=0 time=0
note_on channel=0 note=87 velocity=64 time=0
note_on channel=0 note=87 velocity=0 time=120
note_on channel=0 note=82 velocity=70 time=0
note_on channel=0 note=58 velocity=49 time=0
note_on channel=0 note=51 velocity=49 time=0
note_on channel=0 note=55 velocity=49 time=0
note_on channel=0 note=63 velocity=62 time=0
note_on channel=0 note=63 velocity=0 time=120
note_on channel=0 note=51 velocity=0 time=0
note_on channel=0 note=82 velocity=0 time=0
note_on channel=0 note=58 velocity=0 time=0
note_on channel=0 note=55 velocity=0 time=0
note_on channel=0 note=91 velocity=61 time=0
note_on channel=0 note=91 velocity=0 time=120
note_on channel=0 note=87 velocity=69 time=0
note_on channel=0 note=55 velocity=49 time=0
note_on channel=0 note=51 velocity=49 time=0
note_on channel=0 note=58 velocity=49 time=0
note_on channel=0 note=63 velocity=62 time=0
note_on channel=0 note=63 velocity=0 time=120
note_on channel=0 note=51 velocity=0 time=0
note_on channel=0 note=87 velocity=0 time=0
note_on channel=0 note=55 velocity=0 time=0
note_on channel=0 note=58 velocity=0 time=0
note_on channel=0 note=94 velocity=62 time=0
note_on channel=0 note=94 velocity=0 time=0
note_on channel=0 note=93 velocity=73 time=0
note_on channel=0 note=62 velocity=62 time=0
note_on channel=0 note=53 velocity=49 time=0
note_on channel=0 note=51 velocity=49 time=0
note_on channel=0 note=58 velocity=49 time=0
note_on channel=0 note=56 velocity=49 time=0
note_on channel=0 note=56 velocity=0 time=11
note_on channel=0 note=62 velocity=0 time=0
note_on channel=0 note=53 velocity=0 time=0
note_on channel=0 note=93 velocity=0 time=0
note_on channel=0 note=58 velocity=0 time=0
note_on channel=0 note=51 velocity=0 time=0
note_on channel=0 note=94 velocity=66 time=0
note_on channel=0 note=94 velocity=0 time=120
note_on channel=0 note=93 velocity=70 time=0
note_on channel=0 note=62 velocity=62 time=0
note_on channel=0 note=53 velocity=49 time=0
note_on channel=0 note=51 velocity=49 time=0
note_on channel=0 note=56 velocity=49 time=0
note_on channel=0 note=58 velocity=49 time=0
note_on channel=0 note=58 velocity=0 time=17
note_on channel=0 note=62 velocity=0 time=0
note_on channel=0 note=53 velocity=0 time=0
note_on channel=0 note=93 velocity=0 time=0
note_on channel=0 note=56 velocity=0 time=0
note_on channel=0 note=51 velocity=0 time=0
note_on channel=0 note=94 velocity=64 time=0
note_on channel=0 note=94 velocity=0 time=120
note_on channel=0 note=93 velocity=69 time=0
note_on channel=0 note=62 velocity=62 time=0
note_on channel=0 note=53 velocity=49 time=0
note_on channel=0 note=51 velocity=49 time=0
note_on channel=0 note=56 velocity=49 time=0
note_on channel=0 note=58 velocity=49 time=0
note_on channel=0 note=58 velocity=0 time=0
note_on channel=0 note=62 velocity=0 time=0
note_on channel=0 note=53 velocity=0 time=0
note_on channel=0 note=93 velocity=0 time=0
note_on channel=0 note=56 velocity=0 time=0
note_on channel=0 note=51 velocity=0 time=0
note_on channel=0 note=94 velocity=64 time=0
note_on channel=0 note=94 velocity=0 time=0
note_on channel=0 note=96 velocity=77 time=0
note_on channel=0 note=63 velocity=72 time=0
note_on channel=0 note=51 velocity=57 time=0
note_on channel=0 note=58 velocity=57 time=0
note_on channel=0 note=55 velocity=57 time=0
note_on channel=0 note=55 velocity=0 time=35
note_on channel=0 note=51 velocity=0 time=0
note_on channel=0 note=96 velocity=0 time=0
note_on channel=0 note=63 velocity=0 time=0
note_on channel=0 note=58 velocity=0 time=0
note_on channel=0 note=94 velocity=77 time=0
note_on channel=0 note=94 velocity=0 time=0
note_on channel=0 note=92 velocity=76 time=0
note_on channel=0 note=63 velocity=62 time=0
note_on channel=0 note=58 velocity=49 time=0
note_on channel=0 note=51 velocity=49 time=0
note_on channel=0 note=55 velocity=49 time=0
note_on channel=0 note=55 velocity=0 time=120
note_on channel=0 note=58 velocity=0 time=0
note_on channel=0 note=92 velocity=0 time=0
note_on channel=0 note=63 velocity=0 time=0
note_on channel=0 note=51 velocity=0 time=0
note_on channel=0 note=91 velocity=75 time=0
note_on channel=0 note=91 velocity=0 time=120
note_on channel=0 note=89 velocity=74 time=0
note_on channel=0 note=63 velocity=62 time=0
note_on channel=0 note=58 velocity=49 time=0
note_on channel=0 note=55 velocity=49 time=0
note_on channel=0 note=51 velocity=49 time=0
note_on channel=0 note=51 velocity=0 time=120
note_on channel=0 note=58 velocity=0 time=0
note_on channel=0 note=89 velocity=0 time=0
note_on channel=0 note=63 velocity=0 time=0
note_on channel=0 note=55 velocity=0 time=0
note_on channel=0 note=87 velocity=74 time=0
note_on channel=0 note=87 velocity=0 time=120
note_on channel=0 note=86 velocity=72 time=0
note_on channel=0 note=58 velocity=49 time=0
note_on channel=0 note=51 velocity=49 time=0
note_on channel=0 note=55 velocity=49 time=0
note_on channel=0 note=63 velocity=62 time=0
note_on channel=0 note=63 velocity=0 time=107
note_on channel=0 note=51 velocity=0 time=0
note_on channel=0 note=86 velocity=0 time=0
note_on channel=0 note=58 velocity=0 time=0
note_on channel=0 note=55 velocity=0 time=0
note_on channel=0 note=84 velocity=65 time=0
note_on channel=0 note=84 velocity=0 time=120
note_on channel=0 note=82 velocity=65 time=0
note_on channel=0 note=55 velocity=49 time=0
note_on channel=0 note=51 velocity=49 time=0
note_on channel=0 note=58 velocity=49 time=0
note_on channel=0 note=63 velocity=62 time=0
note_on channel=0 note=63 velocity=0 time=120
note_on channel=0 note=51 velocity=0 time=0
note_on channel=0 note=82 velocity=0 time=0
note_on channel=0 note=55 velocity=0 time=0
note_on channel=0 note=58 velocity=0 time=0
note_on channel=0 note=80 velocity=65 time=0
note_on channel=0 note=80 velocity=0 time=120
note_on channel=0 note=79 velocity=65 time=0
note_on channel=0 note=63 velocity=62 time=0
note_on channel=0 note=51 velocity=49 time=0
note_on channel=0 note=58 velocity=49 time=0
note_on channel=0 note=55 velocity=49 time=0
note_on channel=0 note=55 velocity=0 time=0
note_on channel=0 note=51 velocity=0 time=0
note_on channel=0 note=79 velocity=0 time=0
note_on channel=0 note=63 velocity=0 time=0
note_on channel=0 note=58 velocity=0 time=0
note_on channel=0 note=77 velocity=65 time=0
note_on channel=0 note=77 velocity=0 time=0
note_on channel=0 note=75 velocity=70 time=0
note_on channel=0 note=55 velocity=55 time=0
note_on channel=0 note=51 velocity=55 time=0
note_on channel=0 note=58 velocity=69 time=0
note_on channel=0 note=75 velocity=0 time=62
note_on channel=0 note=74 velocity=69 time=0
note_on channel=0 note=55 velocity=0 time=6
note_on channel=0 note=58 velocity=0 time=0
note_on channel=0 note=51 velocity=0 time=0
note_on channel=0 note=72 velocity=68 time=40
note_on channel=0 note=74 velocity=0 time=1
note_on channel=0 note=72 velocity=0 time=79
note_on channel=0 note=70 velocity=68 time=0
note_on channel=0 note=58 velocity=61 time=0
note_on channel=0 note=55 velocity=48 time=0
note_on channel=0 note=51 velocity=48 time=0
note_on channel=0 note=70 velocity=0 time=80
note_on channel=0 note=68 velocity=67 time=0
note_on channel=0 note=58 velocity=0 time=40
note_on channel=0 note=51 velocity=0 time=0
note_on channel=0 note=55 velocity=0 time=0
note_on channel=0 note=68 velocity=0 time=40
note_on channel=0 note=67 velocity=66 time=0
note_on channel=0 note=67 velocity=0 time=0
note_on channel=0 note=65 velocity=64 time=0
note_on channel=0 note=55 velocity=48 time=0
note_on channel=0 note=58 velocity=61 time=0
note_on channel=0 note=51 velocity=48 time=0
note_on channel=0 note=65 velocity=0 time=80
note_on channel=0 note=63 velocity=59 time=0
note_on channel=0 note=55 velocity=0 time=40
note_on channel=0 note=51 velocity=0 time=0
note_on channel=0 note=58 velocity=0 time=0
note_on channel=0 note=63 velocity=0 time=40
note_on channel=0 note=62 velocity=55 time=0
note_on channel=0 note=62 velocity=0 time=80
note_on channel=0 note=60 velocity=62 time=0
note_on channel=0 note=53 velocity=61 time=0
note_on channel=0 note=51 velocity=48 time=0
note_on channel=0 note=51 velocity=0 time=24
note_on channel=0 note=53 velocity=0 time=0
note_on channel=0 note=60 velocity=0 time=0
note_on channel=0 note=58 velocity=54 time=0
note_on channel=0 note=58 velocity=0 time=120
note_on channel=0 note=57 velocity=60 time=0
note_on channel=0 note=51 velocity=48 time=0
note_on channel=0 note=53 velocity=61 time=0
note_on channel=0 note=41 velocity=48 time=0
note_on channel=0 note=41 velocity=0 time=120
note_on channel=0 note=57 velocity=0 time=0
note_on channel=0 note=51 velocity=0 time=0
note_on channel=0 note=53 velocity=0 time=0
note_on channel=0 note=60 velocity=54 time=0
note_on channel=0 note=60 velocity=0 time=120
note_on channel=0 note=63 velocity=64 time=0
note_on channel=0 note=53 velocity=61 time=0
note_on channel=0 note=41 velocity=48 time=0
note_on channel=0 note=51 velocity=48 time=0
note_on channel=0 note=51 velocity=0 time=0
note_on channel=0 note=63 velocity=0 time=0
note_on channel=0 note=53 velocity=0 time=0
note_on channel=0 note=41 velocity=0 time=0
note_on channel=0 note=57 velocity=54 time=0
note_on channel=0 note=57 velocity=0 time=0
note_on channel=0 note=58 velocity=95 time=0
note_on channel=0 note=34 velocity=80 time=0
note_on channel=0 note=46 velocity=80 time=0
note_on channel=0 note=46 velocity=0 time=240
note_on channel=0 note=34 velocity=0 time=0
note_on channel=0 note=58 velocity=0 time=0
note_on channel=0 note=70 velocity=89 time=0
note_on channel=0 note=58 velocity=75 time=0
note_on channel=0 note=58 velocity=0 time=240
note_on channel=0 note=70 velocity=0 time=0
note_on channel=0 note=73 velocity=96 time=480
note_on channel=0 note=61 velocity=81 time=0
note_on channel=0 note=61 velocity=0 time=240
note_on channel=0 note=73 velocity=0 time=0
note_on channel=0 note=78 velocity=88 time=480
note_on channel=0 note=66 velocity=74 time=0
note_on channel=0 note=66 velocity=0 time=240
note_on channel=0 note=78 velocity=0 time=0
note_on channel=0 note=73 velocity=94 time=0
note_on channel=0 note=61 velocity=79 time=0
note_on channel=0 note=61 velocity=0 time=240
note_on channel=0 note=73 velocity=0 time=0
note_on channel=0 note=70 velocity=88 time=0
note_on channel=0 note=58 velocity=74 time=0
note_on channel=0 note=58 velocity=0 time=240
note_on channel=0 note=70 velocity=0 time=0
note_on channel=0 note=66 velocity=93 time=480
note_on channel=0 note=54 velocity=78 time=0
note_on channel=0 note=54 velocity=0 time=240
note_on channel=0 note=66 velocity=0 time=0
note_on channel=0 note=61 velocity=82 time=0
note_on channel=0 note=49 velocity=70 time=0
note_on channel=0 note=49 velocity=0 time=240
note_on channel=0 note=61 velocity=0 time=0
note_on channel=0 note=57 velocity=95 time=0
note_on channel=0 note=45 velocity=80 time=0
note_on channel=0 note=33 velocity=80 time=0
note_on channel=0 note=33 velocity=0 time=60
note_on channel=0 note=45 velocity=0 time=0
note_on channel=0 note=57 velocity=0 time=0
note_on channel=0 note=69 velocity=89 time=0
note_on channel=0 note=57 velocity=75 time=0
note_on channel=0 note=57 velocity=0 time=240
note_on channel=0 note=69 velocity=0 time=0
note_on channel=0 note=72 velocity=96 time=480
note_on channel=0 note=60 velocity=81 time=0
note_on channel=0 note=60 velocity=0 time=240
note_on channel=0 note=72 velocity=0 time=0
note_on channel=0 note=77 velocity=88 time=480
note_on channel=0 note=65 velocity=74 time=0
note_on channel=0 note=65 velocity=0 time=240
note_on channel=0 note=77 velocity=0 time=0
note_on channel=0 note=72 velocity=94 time=0
note_on channel=0 note=60 velocity=79 time=0
note_on channel=0 note=60 velocity=0 time=240
note_on channel=0 note=72 velocity=0 time=0
note_on channel=0 note=69 velocity=88 time=0
note_on channel=0 note=57 velocity=74 time=0
note_on channel=0 note=57 velocity=0 time=240
note_on channel=0 note=69 velocity=0 time=0
note_on channel=0 note=65 velocity=93 time=480
note_on channel=0 note=53 velocity=78 time=0
note_on channel=0 note=53 velocity=0 time=240
note_on channel=0 note=65 velocity=0 time=0
note_on channel=0 note=60 velocity=82 time=0
note_on channel=0 note=48 velocity=70 time=0
note_on channel=0 note=48 velocity=0 time=240
note_on channel=0 note=60 velocity=0 time=0
note_on channel=0 note=73 velocity=55 time=0
note_on channel=0 note=61 velocity=34 time=0
note_on channel=0 note=66 velocity=40 time=0
note_on channel=0 note=58 velocity=34 time=0
note_on channel=0 note=58 velocity=0 time=120
note_on channel=0 note=73 velocity=0 time=0
note_on channel=0 note=61 velocity=0 time=0
note_on channel=0 note=66 velocity=0 time=0
note_on channel=0 note=58 velocity=29 time=0
note_on channel=0 note=61 velocity=29 time=0
note_on channel=0 note=66 velocity=35 time=0
note_on channel=0 note=66 velocity=0 time=120
note_on channel=0 note=61 velocity=0 time=0
note_on channel=0 note=58 velocity=0 time=0
note_on channel=0 note=84 velocity=51 time=60
note_on channel=0 note=84 velocity=0 time=60
note_on channel=0 note=82 velocity=57 time=0
note_on channel=0 note=61 velocity=29 time=0
note_on channel=0 note=58 velocity=29 time=0
note_on channel=0 note=66 velocity=35 time=0
note_on channel=0 note=66 velocity=0 time=120
note_on channel=0 note=82 velocity=0 time=0
note_on channel=0 note=61 velocity=0 time=0
note_on channel=0 note=58 velocity=0 time=0
note_on channel=0 note=81 velocity=52 time=0
note_on channel=0 note=81 velocity=0 time=120
note_on channel=0 note=82 velocity=57 time=0
note_on channel=0 note=58 velocity=29 time=0
note_on channel=0 note=66 velocity=36 time=0
note_on channel=0 note=61 velocity=29 time=0
note_on channel=0 note=61 velocity=0 time=120
note_on channel=0 note=82 velocity=0 time=0
note_on channel=0 note=58 velocity=0 time=0
note_on channel=0 note=66 velocity=0 time=0
note_on channel=0 note=58 velocity=30 time=120
note_on channel=0 note=61 velocity=30 time=0
note_on channel=0 note=66 velocity=36 time=0
note_on channel=0 note=66 velocity=0 time=120
note_on channel=0 note=61 velocity=0 time=0
note_on channel=0 note=58 velocity=0 time=0
note_on channel=0 note=87 velocity=53 time=60
note_on channel=0 note=87 velocity=0 time=60
note_on channel=0 note=85 velocity=59 time=0
note_on channel=0 note=61 velocity=30 time=0
note_on channel=0 note=66 velocity=36 time=0
note_on channel=0 note=58 velocity=30 time=0
note_on channel=0 note=58 velocity=0 time=120
note_on channel=0 note=85 velocity=0 time=0
note_on channel=0 note=61 velocity=0 time=0
note_on channel=0 note=66 velocity=0 time=0
note_on channel=0 note=84 velocity=52 time=0
note_on channel=0 note=84 velocity=0 time=0
note_on channel=0 note=85 velocity=63 time=0
note_on channel=0 note=58 velocity=36 time=0
note_on channel=0 note=61 velocity=36 time=0
note_on channel=0 note=66 velocity=42 time=0
note_on channel=0 note=66 velocity=0 time=120
note_on channel=0 note=85 velocity=0 time=0
note_on channel=0 note=58 velocity=0 time=0
note_on channel=0 note=61 velocity=0 time=0
note_on channel=0 note=61 velocity=31 time=0
note_on channel=0 note=58 velocity=31 time=0
note_on channel=0 note=66 velocity=37 time=0
note_on channel=0 note=66 velocity=0 time=120
note_on channel=0 note=58 velocity=0 time=0
note_on channel=0 note=61 velocity=0 time=0
note_on channel=0 note=92 velocity=54 time=60
note_on channel=0 note=92 velocity=0 time=0
note_on channel=0 note=90 velocity=60 time=0
note_on channel=0 note=58 velocity=31 time=0
note_on channel=0 note=66 velocity=37 time=0
note_on channel=0 note=61 velocity=31 time=0
note_on channel=0 note=61 velocity=0 time=120
note_on channel=0 note=90 velocity=0 time=0
note_on channel=0 note=58 velocity=0 time=0
note_on channel=0 note=66 velocity=0 time=0
note_on channel=0 note=89 velocity=55 time=0
note_on channel=0 note=89 velocity=0 time=120
note_on channel=0 note=90 velocity=61 time=0
note_on channel=0 note=58 velocity=31 time=0
note_on channel=0 note=61 velocity=31 time=0
note_on channel=0 note=66 velocity=38 time=0
note_on channel=0 note=66 velocity=0 time=120
note_on channel=0 note=90 velocity=0 time=0
note_on channel=0 note=58 velocity=0 time=0
note_on channel=0 note=61 velocity=0 time=0
note_on channel=0 note=61 velocity=29 time=120
note_on channel=0 note=66 velocity=35 time=0
note_on channel=0 note=58 velocity=29 time=0
note_on channel=0 note=58 velocity=0 time=120
note_on channel=0 note=66 velocity=0 time=0
note_on channel=0 note=61 velocity=0 time=0
note_on channel=0 note=87 velocity=51 time=60
note_on channel=0 note=87 velocity=0 time=0
note_on channel=0 note=85 velocity=57 time=0
note_on channel=0 note=58 velocity=29 time=0
note_on channel=0 note=61 velocity=29 time=0
note_on channel=0 note=66 velocity=35 time=0
note_on channel=0 note=66 velocity=0 time=120
note_on channel=0 note=85 velocity=0 time=0
note_on channel=0 note=58 velocity=0 time=0
note_on channel=0 note=61 velocity=0 time=0
note_on channel=0 note=84 velocity=50 time=0
note_on channel=0 note=84 velocity=0 time=0
note_on channel=0 note=85 velocity=60 time=0
note_on channel=0 note=61 velocity=34 time=0
note_on channel=0 note=58 velocity=34 time=0
note_on channel=0 note=66 velocity=40 time=0
note_on channel=0 note=66 velocity=0 time=120
note_on channel=0 note=85 velocity=0 time=0
note_on channel=0 note=61 velocity=0 time=0
note_on channel=0 note=58 velocity=0 time=0
note_on channel=0 note=58 velocity=29 time=120
note_on channel=0 note=66 velocity=35 time=0
note_on channel=0 note=61 velocity=29 time=0
note_on channel=0 note=61 velocity=0 time=120
note_on channel=0 note=66 velocity=0 time=0
note_on channel=0 note=58 velocity=0 time=0
note_on channel=0 note=84 velocity=51 time=60
note_on channel=0 note=84 velocity=0 time=60
note_on channel=0 note=82 velocity=56 time=0
note_on channel=0 note=58 velocity=29 time=0
note_on channel=0 note=61 velocity=29 time=0
note_on channel=0 note=66 velocity=35 time=0
note_on channel=0 note=66 velocity=0 time=120
note_on channel=0 note=82 velocity=0 time=0
note_on channel=0 note=58 velocity=0 time=0
note_on channel=0 note=61 velocity=0 time=0
note_on channel=0 note=81 velocity=51 time=0
note_on channel=0 note=81 velocity=0 time=120
note_on channel=0 note=82 velocity=56 time=0
note_on channel=0 note=61 velocity=29 time=0
note_on channel=0 note=66 velocity=35 time=0
note_on channel=0 note=58 velocity=29 time=0
note_on channel=0 note=58 velocity=0 time=120
note_on channel=0 note=82 velocity=0 time=0
note_on channel=0 note=61 velocity=0 time=0
note_on channel=0 note=66 velocity=0 time=0
note_on channel=0 note=58 velocity=29 time=120
note_on channel=0 note=61 velocity=29 time=0
note_on channel=0 note=66 velocity=35 time=0
note_on channel=0 note=66 velocity=0 time=120
note_on channel=0 note=61 velocity=0 time=0
note_on channel=0 note=58 velocity=0 time=0
note_on channel=0 note=80 velocity=51 time=60
note_on channel=0 note=80 velocity=0 time=0
note_on channel=0 note=78 velocity=57 time=0
note_on channel=0 note=61 velocity=29 time=0
note_on channel=0 note=58 velocity=29 time=0
note_on channel=0 note=66 velocity=35 time=0
note_on channel=0 note=66 velocity=0 time=120
note_on channel=0 note=78 velocity=0 time=0
note_on channel=0 note=61 velocity=0 time=0
note_on channel=0 note=58 velocity=0 time=0
note_on channel=0 note=77 velocity=50 time=0
note_on channel=0 note=77 velocity=0 time=0
note_on channel=0 note=78 velocity=60 time=0
note_on channel=0 note=58 velocity=34 time=0
note_on channel=0 note=66 velocity=40 time=0
note_on channel=0 note=61 velocity=34 time=0
note_on channel=0 note=61 velocity=0 time=120
note_on channel=0 note=78 velocity=0 time=0
note_on channel=0 note=58 velocity=0 time=0
note_on channel=0 note=66 velocity=0 time=0
note_on channel=0 note=58 velocity=29 time=120
note_on channel=0 note=61 velocity=29 time=0
note_on channel=0 note=66 velocity=35 time=0
note_on channel=0 note=66 velocity=0 time=120
note_on channel=0 note=61 velocity=0 time=0
note_on channel=0 note=58 velocity=0 time=0
note_on channel=0 note=75 velocity=51 time=60
note_on channel=0 note=75 velocity=0 time=60
note_on channel=0 note=73 velocity=56 time=0
note_on channel=0 note=61 velocity=29 time=0
note_on channel=0 note=66 velocity=35 time=0
note_on channel=0 note=58 velocity=29 time=0
note_on channel=0 note=58 velocity=0 time=120
note_on channel=0 note=73 velocity=0 time=0
note_on channel=0 note=61 velocity=0 time=0
note_on channel=0 note=66 velocity=0 time=0
note_on channel=0 note=72 velocity=51 time=0
note_on channel=0 note=72 velocity=0 time=120
note_on channel=0 note=73 velocity=56 time=0
note_on channel=0 note=58 velocity=29 time=0
note_on channel=0 note=61 velocity=29 time=0
note_on channel=0 note=66 velocity=35 time=0
note_on channel=0 note=66 velocity=0 time=120
note_on channel=0 note=61 velocity=0 time=0
note_on channel=0 note=58 velocity=0 time=0
note_on channel=0 note=61 velocity=29 time=120
note_on channel=0 note=58 velocity=29 time=0
note_on channel=0 note=66 velocity=35 time=0
note_on channel=0 note=66 velocity=0 time=120
note_on channel=0 note=58 velocity=0 time=0
note_on channel=0 note=61 velocity=0 time=0
note_on channel=0 note=73 velocity=0 time=120
note_on channel=0 note=58 velocity=29 time=0
note_on channel=0 note=64 velocity=35 time=0
note_on channel=0 note=61 velocity=29 time=0
note_on channel=0 note=61 velocity=0 time=120
note_on channel=0 note=64 velocity=0 time=0
note_on channel=0 note=58 velocity=0 time=0
note_on channel=0 note=72 velocity=55 time=0
note_on channel=0 note=57 velocity=34 time=0
note_on channel=0 note=60 velocity=34 time=0
note_on channel=0 note=65 velocity=40 time=0
note_on channel=0 note=65 velocity=0 time=120
note_on channel=0 note=72 velocity=0 time=0
note_on channel=0 note=57 velocity=0 time=0
note_on channel=0 note=60 velocity=0 time=0
note_on channel=0 note=60 velocity=29 time=0
note_on channel=0 note=65 velocity=35 time=0
note_on channel=0 note=57 velocity=29 time=0
note_on channel=0 note=57 velocity=0 time=120
note_on channel=0 note=65 velocity=0 time=0
note_on channel=0 note=60 velocity=0 time=0
note_on channel=0 note=82 velocity=51 time=60
note_on channel=0 note=82 velocity=0 time=60
note_on channel=0 note=81 velocity=57 time=0
note_on channel=0 note=65 velocity=35 time=0
note_on channel=0 note=57 velocity=29 time=0
note_on channel=0 note=60 velocity=29 time=0
note_on channel=0 note=60 velocity=0 time=120
note_on channel=0 note=81 velocity=0 time=0
note_on channel=0 note=65 velocity=0 time=0
note_on channel=0 note=57 velocity=0 time=0
note_on channel=0 note=79 velocity=52 time=0
note_on channel=0 note=79 velocity=0 time=120
note_on channel=0 note=81 velocity=57 time=0
note_on channel=0 note=57 velocity=29 time=0
note_on channel=0 note=60 velocity=29 time=0
note_on channel=0 note=65 velocity=36 time=0
note_on channel=0 note=65 velocity=0 time=120
note_on channel=0 note=81 velocity=0 time=0
note_on channel=0 note=57 velocity=0 time=0
note_on channel=0 note=60 velocity=0 time=0
note_on channel=0 note=60 velocity=30 time=120
note_on channel=0 note=57 velocity=30 time=0
note_on channel=0 note=65 velocity=36 time=0
note_on channel=0 note=65 velocity=0 time=120
note_on channel=0 note=57 velocity=0 time=0
note_on channel=0 note=60 velocity=0 time=0
note_on channel=0 note=86 velocity=53 time=60
note_on channel=0 note=86 velocity=0 time=60
note_on channel=0 note=84 velocity=59 time=0
note_on channel=0 note=57 velocity=30 time=0
note_on channel=0 note=65 velocity=36 time=0
note_on channel=0 note=60 velocity=30 time=0
note_on channel=0 note=60 velocity=0 time=120
note_on channel=0 note=84 velocity=0 time=0
note_on channel=0 note=57 velocity=0 time=0
note_on channel=0 note=65 velocity=0 time=0
note_on channel=0 note=83 velocity=52 time=0
note_on channel=0 note=83 velocity=0 time=0
note_on channel=0 note=84 velocity=63 time=0
note_on channel=0 note=57 velocity=36 time=0
note_on channel=0 note=60 velocity=36 time=0
note_on channel=0 note=65 velocity=42 time=0
note_on channel=0 note=65 velocity=0 time=120
note_on channel=0 note=84 velocity=0 time=0
note_on channel=0 note=57 velocity=0 time=0
note_on channel=0 note=60 velocity=0 time=0
note_on channel=0 note=65 velocity=37 time=0
note_on channel=0 note=57 velocity=31 time=0
note_on channel=0 note=60 velocity=31 time=0
note_on channel=0 note=60 velocity=0 time=120
note_on channel=0 note=57 velocity=0 time=0
note_on channel=0 note=65 velocity=0 time=0
note_on channel=0 note=90 velocity=55 time=60
note_on channel=0 note=90 velocity=0 time=60
note_on channel=0 note=89 velocity=60 time=0
note_on channel=0 note=57 velocity=31 time=0
note_on channel=0 note=60 velocity=31 time=0
note_on channel=0 note=65 velocity=37 time=0
note_on channel=0 note=65 velocity=0 time=120
note_on channel=0 note=89 velocity=0 time=0
note_on channel=0 note=57 velocity=0 time=0
note_on channel=0 note=60 velocity=0 time=0
note_on channel=0 note=88 velocity=55 time=0
note_on channel=0 note=88 velocity=0 time=120
note_on channel=0 note=89 velocity=61 time=0
note_on channel=0 note=60 velocity=31 time=0
note_on channel=0 note=57 velocity=31 time=0
note_on channel=0 note=65 velocity=38 time=0
note_on channel=0 note=65 velocity=0 time=120
note_on channel=0 note=89 velocity=0 time=0
note_on channel=0 note=60 velocity=0 time=0
note_on channel=0 note=57 velocity=0 time=0
note_on channel=0 note=57 velocity=29 time=120
note_on channel=0 note=65 velocity=35 time=0
note_on channel=0 note=60 velocity=29 time=0
note_on channel=0 note=60 velocity=0 time=120
note_on channel=0 note=65 velocity=0 time=0
note_on channel=0 note=57 velocity=0 time=0
note_on channel=0 note=85 velocity=51 time=60
note_on channel=0 note=85 velocity=0 time=60
note_on channel=0 note=84 velocity=57 time=0
note_on channel=0 note=57 velocity=29 time=0
note_on channel=0 note=60 velocity=29 time=0
note_on channel=0 note=65 velocity=35 time=0
note_on channel=0 note=65 velocity=0 time=120
note_on channel=0 note=84 velocity=0 time=0
note_on channel=0 note=57 velocity=0 time=0
note_on channel=0 note=60 velocity=0 time=0
note_on channel=0 note=83 velocity=50 time=0
note_on channel=0 note=83 velocity=0 time=0
note_on channel=0 note=84 velocity=60 time=0
note_on channel=0 note=65 velocity=40 time=0
note_on channel=0 note=57 velocity=34 time=0
note_on channel=0 note=60 velocity=34 time=0
note_on channel=0 note=60 velocity=0 time=120
note_on channel=0 note=84 velocity=0 time=0
note_on channel=0 note=65 velocity=0 time=0
note_on channel=0 note=57 velocity=0 time=0
note_on channel=0 note=57 velocity=29 time=0
note_on channel=0 note=60 velocity=29 time=0
note_on channel=0 note=65 velocity=35 time=0
note_on channel=0 note=65 velocity=0 time=120
note_on channel=0 note=60 velocity=0 time=0
note_on channel=0 note=57 velocity=0 time=0
note_on channel=0 note=82 velocity=51 time=60
note_on channel=0 note=82 velocity=0 time=60
note_on channel=0 note=81 velocity=56 time=0
note_on channel=0 note=60 velocity=29 time=0
note_on channel=0 note=57 velocity=29 time=0
note_on channel=0 note=65 velocity=35 time=0
note_on channel=0 note=65 velocity=0 time=120
note_on channel=0 note=81 velocity=0 time=0
note_on channel=0 note=60 velocity=0 time=0
note_on channel=0 note=57 velocity=0 time=0
note_on channel=0 note=79 velocity=51 time=0
note_on channel=0 note=79 velocity=0 time=120
note_on channel=0 note=81 velocity=56 time=0
note_on channel=0 note=57 velocity=29 time=0
note_on channel=0 note=65 velocity=35 time=0
note_on channel=0 note=60 velocity=29 time=0
note_on channel=0 note=60 velocity=0 time=120
note_on channel=0 note=81 velocity=0 time=0
note_on channel=0 note=57 velocity=0 time=0
note_on channel=0 note=65 velocity=0 time=0
note_on channel=0 note=57 velocity=29 time=120
note_on channel=0 note=60 velocity=29 time=0
note_on channel=0 note=65 velocity=35 time=0
note_on channel=0 note=65 velocity=0 time=120
note_on channel=0 note=60 velocity=0 time=0
note_on channel=0 note=57 velocity=0 time=0
note_on channel=0 note=78 velocity=51 time=60
note_on channel=0 note=78 velocity=0 time=60
note_on channel=0 note=77 velocity=57 time=0
note_on channel=0 note=65 velocity=35 time=0
note_on channel=0 note=57 velocity=29 time=0
note_on channel=0 note=60 velocity=29 time=0
note_on channel=0 note=60 velocity=0 time=120
note_on channel=0 note=77 velocity=0 time=0
note_on channel=0 note=65 velocity=0 time=0
note_on channel=0 note=57 velocity=0 time=0
note_on channel=0 note=76 velocity=50 time=0
note_on channel=0 note=76 velocity=0 time=0
note_on channel=0 note=77 velocity=60 time=0
note_on channel=0 note=60 velocity=34 time=0
note_on channel=0 note=57 velocity=34 time=0
note_on channel=0 note=65 velocity=40 time=0
note_on channel=0 note=65 velocity=0 time=120
note_on channel=0 note=77 velocity=0 time=0
note_on channel=0 note=60 velocity=0 time=0
note_on channel=0 note=57 velocity=0 time=0
note_on channel=0 note=60 velocity=29 time=0
note_on channel=0 note=57 velocity=29 time=0
note_on channel=0 note=65 velocity=35 time=0
note_on channel=0 note=65 velocity=0 time=120
note_on channel=0 note=57 velocity=0 time=0
note_on channel=0 note=60 velocity=0 time=0
note_on channel=0 note=73 velocity=51 time=60
note_on channel=0 note=73 velocity=0 time=60
note_on channel=0 note=72 velocity=56 time=0
note_on channel=0 note=57 velocity=29 time=0
note_on channel=0 note=60 velocity=29 time=0
note_on channel=0 note=65 velocity=35 time=0
note_on channel=0 note=65 velocity=0 time=120
note_on channel=0 note=72 velocity=0 time=0
note_on channel=0 note=57 velocity=0 time=0
note_on channel=0 note=60 velocity=0 time=0
note_on channel=0 note=71 velocity=51 time=0
note_on channel=0 note=71 velocity=0 time=120
note_on channel=0 note=72 velocity=56 time=0
note_on channel=0 note=57 velocity=29 time=0
note_on channel=0 note=60 velocity=29 time=0
note_on channel=0 note=65 velocity=35 time=0
note_on channel=0 note=65 velocity=0 time=240
note_on channel=0 note=72 velocity=0 time=0
note_on channel=0 note=57 velocity=0 time=0
note_on channel=0 note=60 velocity=0 time=0
note_on channel=0 note=53 velocity=35 time=0
note_on channel=0 note=53 velocity=0 time=0
note_on channel=0 note=73 velocity=61 time=0
note_on channel=0 note=51 velocity=35 time=0
note_on channel=0 note=51 velocity=0 time=0
note_on channel=0 note=73 velocity=0 time=0
note_on channel=0 note=74 velocity=56 time=0
note_on channel=0 note=65 velocity=35 time=0
note_on channel=0 note=46 velocity=40 time=0
note_on channel=0 note=50 velocity=40 time=0
note_on channel=0 note=65 velocity=0 time=35
note_on channel=0 note=67 velocity=31 time=0
note_on channel=0 note=67 velocity=0 time=120
note_on channel=0 note=65 velocity=35 time=0
note_on channel=0 note=65 velocity=0 time=120
note_on channel=0 note=67 velocity=31 time=0
note_on channel=0 note=67 velocity=0 time=0
note_on channel=0 note=50 velocity=0 time=0
note_on channel=0 note=65 velocity=34 time=0
note_on channel=0 note=55 velocity=33 time=0
note_on channel=0 note=65 velocity=0 time=120
note_on channel=0 note=67 velocity=31 time=0
note_on channel=0 note=67 velocity=0 time=120
note_on channel=0 note=55 velocity=0 time=0
note_on channel=0 note=74 velocity=0 time=0
note_on channel=0 note=65 velocity=36 time=0
note_on channel=0 note=70 velocity=55 time=0
note_on channel=0 note=53 velocity=42 time=0
note_on channel=0 note=65 velocity=0 time=107
note_on channel=0 note=67 velocity=32 time=0
note_on channel=0 note=67 velocity=0 time=92
note_on channel=0 note=65 velocity=36 time=0
note_on channel=0 note=65 velocity=0 time=120
note_on channel=0 note=67 velocity=31 time=0
note_on channel=0 note=67 velocity=0 time=120
note_on channel=0 note=53 velocity=0 time=0
note_on channel=0 note=65 velocity=37 time=0
note_on channel=0 note=50 velocity=39 time=0
note_on channel=0 note=65 velocity=0 time=120
note_on channel=0 note=67 velocity=31 time=0
note_on channel=0 note=67 velocity=0 time=0
note_on channel=0 note=50 velocity=0 time=0
note_on channel=0 note=70 velocity=0 time=0
note_on channel=0 note=46 velocity=0 time=0
note_on channel=0 note=65 velocity=37 time=0
note_on channel=0 note=69 velocity=59 time=0
note_on channel=0 note=41 velocity=42 time=0
note_on channel=0 note=48 velocity=42 time=0
note_on channel=0 note=65 velocity=0 time=106
note_on channel=0 note=67 velocity=33 time=0
note_on channel=0 note=67 velocity=0 time=113
note_on channel=0 note=65 velocity=37 time=0
note_on channel=0 note=65 velocity=0 time=120
note_on channel=0 note=67 velocity=33 time=0
note_on channel=0 note=67 velocity=0 time=120
note_on channel=0 note=48 velocity=0 time=0
note_on channel=0 note=65 velocity=37 time=0
note_on channel=0 note=55 velocity=36 time=0
note_on channel=0 note=65 velocity=0 time=120
note_on channel=0 note=67 velocity=34 time=0
note_on channel=0 note=67 velocity=0 time=120
note_on channel=0 note=55 velocity=0 time=0
note_on channel=0 note=69 velocity=0 time=0
note_on channel=0 note=65 velocity=38 time=0
note_on channel=0 note=75 velocity=59 time=0
note_on channel=0 note=53 velocity=45 time=0
note_on channel=0 note=65 velocity=0 time=7
note_on channel=0 note=67 velocity=34 time=0
note_on channel=0 note=67 velocity=0 time=0
note_on channel=0 note=65 velocity=39 time=0
note_on channel=0 note=65 velocity=0 time=120
note_on channel=0 note=67 velocity=33 time=0
note_on channel=0 note=67 velocity=0 time=0
note_on channel=0 note=53 velocity=0 time=0
note_on channel=0 note=65 velocity=39 time=0
note_on channel=0 note=48 velocity=41 time=0
note_on channel=0 note=65 velocity=0 time=120
note_on channel=0 note=67 velocity=34 time=0
note_on channel=0 note=67 velocity=0 time=0
note_on channel=0 note=48 velocity=0 time=0
note_on channel=0 note=75 velocity=0 time=0
note_on channel=0 note=41 velocity=0 time=0
note_on channel=0 note=65 velocity=40 time=0
note_on channel=0 note=74 velocity=64 time=0
note_on channel=0 note=46 velocity=46 time=0
note_on channel=0 note=50 velocity=46 time=0
note_on channel=0 note=65 velocity=0 time=116
note_on channel=0 note=67 velocity=35 time=0
note_on channel=0 note=67 velocity=0 time=113
note_on channel=0 note=65 velocity=39 time=0
note_on channel=0 note=65 velocity=0 time=120
note_on channel=0 note=67 velocity=35 time=0
note_on channel=0 note=67 velocity=0 time=0
note_on channel=0 note=50 velocity=0 time=0
note_on channel=0 note=65 velocity=38 time=0
note_on channel=0 note=55 velocity=37 time=0
note_on channel=0 note=65 velocity=0 time=120
note_on channel=0 note=67 velocity=34 time=0
note_on channel=0 note=67 velocity=0 time=120
note_on channel=0 note=55 velocity=0 time=0
note_on channel=0 note=74 velocity=0 time=0
note_on channel=0 note=65 velocity=39 time=0
note_on channel=0 note=70 velocity=60 time=0
note_on channel=0 note=53 velocity=45 time=0
note_on channel=0 note=65 velocity=0 time=28
note_on channel=0 note=67 velocity=34 time=0
note_on channel=0 note=67 velocity=0 time=120
note_on channel=0 note=65 velocity=38 time=0
note_on channel=0 note=65 velocity=0 time=120
note_on channel=0 note=67 velocity=33 time=0
note_on channel=0 note=67 velocity=0 time=120
note_on channel=0 note=53 velocity=0 time=0
note_on channel=0 note=65 velocity=38 time=0
note_on channel=0 note=50 velocity=40 time=0
note_on channel=0 note=65 velocity=0 time=120
note_on channel=0 note=67 velocity=32 time=0
note_on channel=0 note=67 velocity=0 time=120
note_on channel=0 note=50 velocity=0 time=0
note_on channel=0 note=70 velocity=0 time=0
note_on channel=0 note=46 velocity=0 time=0
note_on channel=0 note=65 velocity=37 time=0
note_on channel=0 note=69 velocity=60 time=0
note_on channel=0 note=41 velocity=43 time=0
note_on channel=0 note=48 velocity=43 time=0
note_on channel=0 note=65 velocity=0 time=120
note_on channel=0 note=67 velocity=33 time=0
note_on channel=0 note=67 velocity=0 time=113
note_on channel=0 note=65 velocity=37 time=0
note_on channel=0 note=65 velocity=0 time=120
note_on channel=0 note=67 velocity=32 time=0
note_on channel=0 note=67 velocity=0 time=120
note_on channel=0 note=48 velocity=0 time=0
note_on channel=0 note=65 velocity=35 time=0
note_on channel=0 note=55 velocity=34 time=0
note_on channel=0 note=65 velocity=0 time=120
note_on channel=0 note=67 velocity=32 time=0
note_on channel=0 note=67 velocity=0 time=120
note_on channel=0 note=55 velocity=0 time=0
note_on channel=0 note=69 velocity=0 time=0
note_on channel=0 note=65 velocity=36 time=0
note_on channel=0 note=75 velocity=56 time=0
note_on channel=0 note=53 velocity=42 time=0
note_on channel=0 note=65 velocity=0 time=21
note_on channel=0 note=67 velocity=32 time=0
note_on channel=0 note=67 velocity=0 time=0
note_on channel=0 note=65 velocity=36 time=0
note_on channel=0 note=65 velocity=0 time=120
note_on channel=0 note=67 velocity=30 time=0
note_on channel=0 note=67 velocity=0 time=120
note_on channel=0 note=53 velocity=0 time=0
note_on channel=0 note=65 velocity=35 time=0
note_on channel=0 note=48 velocity=37 time=0
note_on channel=0 note=65 velocity=0 time=120
note_on channel=0 note=67 velocity=30 time=0
note_on channel=0 note=67 velocity=0 time=0
note_on channel=0 note=48 velocity=0 time=0
note_on channel=0 note=75 velocity=0 time=0
note_on channel=0 note=41 velocity=0 time=0
note_on channel=0 note=74 velocity=51 time=0
note_on channel=0 note=50 velocity=40 time=0
note_on channel=0 note=46 velocity=34 time=0
note_on channel=0 note=46 velocity=0 time=54
note_on channel=0 note=50 velocity=0 time=0
note_on channel=0 note=74 velocity=0 time=0
note_on channel=0 note=77 velocity=45 time=0
note_on channel=0 note=77 velocity=0 time=0
note_on channel=0 note=79 velocity=48 time=0
note_on channel=0 note=50 velocity=29 time=0
note_on channel=0 note=53 velocity=29 time=0
note_on channel=0 note=58 velocity=35 time=0
note_on channel=0 note=79 velocity=0 time=80
note_on channel=0 note=81 velocity=50 time=0
note_on channel=0 note=50 velocity=0 time=24
note_on channel=0 note=58 velocity=0 time=0
note_on channel=0 note=53 velocity=0 time=0
note_on channel=0 note=81 velocity=0 time=40
note_on channel=0 note=82 velocity=52 time=0
note_on channel=0 note=82 velocity=0 time=67
note_on channel=0 note=84 velocity=54 time=0
note_on channel=0 note=50 velocity=29 time=0
note_on channel=0 note=53 velocity=29 time=0
note_on channel=0 note=58 velocity=35 time=0
note_on channel=0 note=84 velocity=0 time=51
note_on channel=0 note=86 velocity=56 time=0
note_on channel=0 note=50 velocity=0 time=14
note_on channel=0 note=58 velocity=0 time=0
note_on channel=0 note=53 velocity=0 time=0
note_on channel=0 note=86 velocity=0 time=40
note_on channel=0 note=87 velocity=59 time=0
note_on channel=0 note=87 velocity=0 time=58
note_on channel=0 note=89 velocity=61 time=0
note_on channel=0 note=50 velocity=29 time=0
note_on channel=0 note=53 velocity=29 time=0
note_on channel=0 note=58 velocity=35 time=0
note_on channel=0 note=58 velocity=0 time=5
note_on channel=0 note=89 velocity=0 time=0
note_on channel=0 note=50 velocity=0 time=0
note_on channel=0 note=53 velocity=0 time=0
note_on channel=0 note=87 velocity=60 time=0
note_on channel=0 note=87 velocity=0 time=48
note_on channel=0 note=86 velocity=58 time=0
note_on channel=0 note=50 velocity=29 time=0
note_on channel=0 note=53 velocity=29 time=0
note_on channel=0 note=58 velocity=35 time=0
note_on channel=0 note=58 velocity=0 time=72
note_on channel=0 note=86 velocity=0 time=0
note_on channel=0 note=50 velocity=0 time=0
note_on channel=0 note=53 velocity=0 time=0
note_on channel=0 note=84 velocity=57 time=0
note_on channel=0 note=84 velocity=0 time=0
note_on channel=0 note=82 velocity=55 time=0
note_on channel=0 note=50 velocity=29 time=0
note_on channel=0 note=53 velocity=29 time=0
note_on channel=0 note=58 velocity=35 time=0
note_on channel=0 note=58 velocity=0 time=24
note_on channel=0 note=82 velocity=0 time=0
note_on channel=0 note=50 velocity=0 time=0
note_on channel=0 note=53 velocity=0 time=0
note_on channel=0 note=81 velocity=54 time=0
note_on channel=0 note=81 velocity=0 time=0
note_on channel=0 note=79 velocity=51 time=0
note_on channel=0 note=79 velocity=0 time=53
note_on channel=0 note=81 velocity=45 time=0
note_on channel=0 note=81 velocity=0 time=19
note_on channel=0 note=82 velocity=48 time=0
note_on channel=0 note=51 velocity=29 time=0
note_on channel=0 note=55 velocity=29 time=0
note_on channel=0 note=58 velocity=35 time=0
note_on channel=0 note=58 velocity=0 time=24
note_on channel=0 note=82 velocity=0 time=0
note_on channel=0 note=51 velocity=0 time=0
note_on channel=0 note=55 velocity=0 time=0
note_on channel=0 note=84 velocity=50 time=0
note_on channel=0 note=84 velocity=0 time=29
note_on channel=0 note=86 velocity=54 time=0
note_on channel=0 note=51 velocity=29 time=0
note_on channel=0 note=55 velocity=29 time=0
note_on channel=0 note=58 velocity=35 time=0
note_on channel=0 note=86 velocity=0 time=80
note_on channel=0 note=87 velocity=56 time=0
note_on channel=0 note=51 velocity=0 time=34
note_on channel=0 note=58 velocity=0 time=0
note_on channel=0 note=55 velocity=0 time=0
note_on channel=0 note=87 velocity=0 time=40
note_on channel=0 note=89 velocity=59 time=0
note_on channel=0 note=89 velocity=0 time=38
note_on channel=0 note=91 velocity=61 time=0
note_on channel=0 note=51 velocity=29 time=0
note_on channel=0 note=55 velocity=29 time=0
note_on channel=0 note=58 velocity=35 time=0
note_on channel=0 note=58 velocity=0 time=62
note_on channel=0 note=91 velocity=0 time=0
note_on channel=0 note=51 velocity=0 time=0
note_on channel=0 note=55 velocity=0 time=0
note_on channel=0 note=89 velocity=60 time=0
note_on channel=0 note=89 velocity=0 time=120
note_on channel=0 note=87 velocity=58 time=0
note_on channel=0 note=51 velocity=29 time=0
note_on channel=0 note=55 velocity=29 time=0
note_on channel=0 note=58 velocity=35 time=0
note_on channel=0 note=87 velocity=0 time=51
note_on channel=0 note=86 velocity=57 time=0
note_on channel=0 note=51 velocity=0 time=40
note_on channel=0 note=58 velocity=0 time=0
note_on channel=0 note=55 velocity=0 time=0
note_on channel=0 note=86 velocity=0 time=40
note_on channel=0 note=84 velocity=56 time=0
note_on channel=0 note=84 velocity=0 time=19
note_on channel=0 note=82 velocity=55 time=0
note_on channel=0 note=51 velocity=29 time=0
note_on channel=0 note=55 velocity=29 time=0
note_on channel=0 note=60 velocity=35 time=0
note_on channel=0 note=82 velocity=0 time=80
note_on channel=0 note=81 velocity=54 time=0
note_on channel=0 note=51 velocity=0 time=40
note_on channel=0 note=60 velocity=0 time=0
note_on channel=0 note=55 velocity=0 time=0
note_on channel=0 note=81 velocity=0 time=40
note_on channel=0 note=79 velocity=53 time=0
note_on channel=0 note=79 velocity=0 time=0
note_on channel=0 note=77 velocity=57 time=0
note_on channel=0 note=77 velocity=0 time=49
note_on channel=0 note=86 velocity=49 time=0
note_on channel=0 note=86 velocity=0 time=0
note_on channel=0 note=82 velocity=59 time=0
note_on channel=0 note=53 velocity=29 time=0
note_on channel=0 note=58 velocity=29 time=0
note_on channel=0 note=62 velocity=35 time=0
note_on channel=0 note=62 velocity=0 time=5
note_on channel=0 note=82 velocity=0 time=0
note_on channel=0 note=53 velocity=0 time=0
note_on channel=0 note=58 velocity=0 time=0
note_on channel=0 note=89 velocity=55 time=0
note_on channel=0 note=89 velocity=0 time=10
note_on channel=0 note=86 velocity=62 time=0
note_on channel=0 note=53 velocity=29 time=0
note_on channel=0 note=58 velocity=29 time=0
note_on channel=0 note=62 velocity=35 time=0
note_on channel=0 note=62 velocity=0 time=34
note_on channel=0 note=86 velocity=0 time=0
note_on channel=0 note=53 velocity=0 time=0
note_on channel=0 note=58 velocity=0 time=0
note_on channel=0 note=94 velocity=57 time=0
note_on channel=0 note=94 velocity=0 time=38
note_on channel=0 note=89 velocity=62 time=0
note_on channel=0 note=53 velocity=29 time=0
note_on channel=0 note=58 velocity=29 time=0
note_on channel=0 note=62 velocity=35 time=0
note_on channel=0 note=89 velocity=0 time=3
note_on channel=0 note=98 velocity=57 time=0
note_on channel=0 note=53 velocity=0 time=40
note_on channel=0 note=62 velocity=0 time=0
note_on channel=0 note=58 velocity=0 time=0
note_on channel=0 note=98 velocity=0 time=6
note_on channel=0 note=94 velocity=55 time=0
note_on channel=0 note=94 velocity=0 time=10
note_on channel=0 note=101 velocity=61 time=0
note_on channel=0 note=53 velocity=29 time=0
note_on channel=0 note=58 velocity=29 time=0
note_on channel=0 note=62 velocity=35 time=0
note_on channel=0 note=101 velocity=0 time=13
note_on channel=0 note=98 velocity=53 time=0
note_on channel=0 note=53 velocity=0 time=40
note_on channel=0 note=62 velocity=0 time=0
note_on channel=0 note=58 velocity=0 time=0
note_on channel=0 note=98 velocity=0 time=16
note_on channel=0 note=94 velocity=54 time=0
note_on channel=0 note=94 velocity=0 time=19
note_on channel=0 note=89 velocity=59 time=0
note_on channel=0 note=53 velocity=29 time=0
note_on channel=0 note=58 velocity=29 time=0
note_on channel=0 note=62 velocity=35 time=0
note_on channel=0 note=89 velocity=0 time=22
note_on channel=0 note=86 velocity=53 time=0
note_on channel=0 note=53 velocity=0 time=40
note_on channel=0 note=62 velocity=0 time=0
note_on channel=0 note=58 velocity=0 time=0
note_on channel=0 note=86 velocity=0 time=26
note_on channel=0 note=82 velocity=53 time=0
note_on channel=0 note=82 velocity=0 time=29
note_on channel=0 note=77 velocity=59 time=0
note_on channel=0 note=62 velocity=35 time=0
note_on channel=0 note=53 velocity=29 time=0
note_on channel=0 note=58 velocity=29 time=0
note_on channel=0 note=58 velocity=0 time=74
note_on channel=0 note=53 velocity=0 time=0
note_on channel=0 note=62 velocity=0 time=0
note_on channel=0 note=53 velocity=29 time=120
note_on channel=0 note=58 velocity=29 time=0
note_on channel=0 note=62 velocity=35 time=0
note_on channel=0 note=62 velocity=0 time=107
note_on channel=0 note=58 velocity=0 time=0
note_on channel=0 note=53 velocity=0 time=0
note_on channel=0 note=77 velocity=0 time=112
note_on channel=0 note=62 velocity=35 time=0
note_on channel=0 note=58 velocity=29 time=0
note_on channel=0 note=53 velocity=29 time=0
note_on channel=0 note=53 velocity=0 time=21
note_on channel=0 note=58 velocity=0 time=0
note_on channel=0 note=62 velocity=0 time=0
note_on channel=0 note=84 velocity=59 time=25
note_on channel=0 note=53 velocity=29 time=0
note_on channel=0 note=57 velocity=29 time=0
note_on channel=0 note=63 velocity=35 time=0
note_on channel=0 note=84 velocity=0 time=6
note_on channel=0 note=86 velocity=52 time=0
note_on channel=0 note=53 velocity=0 time=24
note_on channel=0 note=63 velocity=0 time=0
note_on channel=0 note=57 velocity=0 time=0
note_on channel=0 note=86 velocity=0 time=26
note_on channel=0 note=84 velocity=59 time=0
note_on channel=0 note=84 velocity=0 time=29
note_on channel=0 note=86 velocity=54 time=0
note_on channel=0 note=53 velocity=29 time=0
note_on channel=0 note=57 velocity=29 time=0
note_on channel=0 note=63 velocity=35 time=0
note_on channel=0 note=86 velocity=0 time=13
note_on channel=0 note=84 velocity=59 time=0
note_on channel=0 note=53 velocity=0 time=14
note_on channel=0 note=63 velocity=0 time=0
note_on channel=0 note=57 velocity=0 time=0
note_on channel=0 note=84 velocity=0 time=16
note_on channel=0 note=86 velocity=53 time=0
note_on channel=0 note=86 velocity=0 time=0
note_on channel=0 note=84 velocity=59 time=0
note_on channel=0 note=53 velocity=29 time=0
note_on channel=0 note=57 velocity=29 time=0
note_on channel=0 note=63 velocity=35 time=0
note_on channel=0 note=84 velocity=0 time=3
note_on channel=0 note=86 velocity=53 time=0
note_on channel=0 note=53 velocity=0 time=40
note_on channel=0 note=63 velocity=0 time=0
note_on channel=0 note=57 velocity=0 time=0
note_on channel=0 note=86 velocity=0 time=40
note_on channel=0 note=84 velocity=56 time=0
note_on channel=0 note=84 velocity=0 time=0
note_on channel=0 note=86 velocity=61 time=0
note_on channel=0 note=77 velocity=41 time=0
note_on channel=0 note=58 velocity=40 time=0
note_on channel=0 note=62 velocity=40 time=0
note_on channel=0 note=77 velocity=0 time=35
note_on channel=0 note=79 velocity=31 time=0
note_on channel=0 note=79 velocity=0 time=120
note_on channel=0 note=77 velocity=35 time=0
note_on channel=0 note=77 velocity=0 time=120
note_on channel=0 note=79 velocity=31 time=0
note_on channel=0 note=79 velocity=0 time=0
note_on channel=0 note=62 velocity=0 time=0
note_on channel=0 note=77 velocity=34 time=0
note_on channel=0 note=67 velocity=33 time=0
note_on channel=0 note=77 velocity=0 time=120
note_on channel=0 note=79 velocity=31 time=0
note_on channel=0 note=79 velocity=0 time=120
note_on channel=0 note=67 velocity=0 time=0
note_on channel=0 note=86 velocity=0 time=0
note_on channel=0 note=77 velocity=36 time=0
note_on channel=0 note=82 velocity=55 time=0
note_on channel=0 note=65 velocity=42 time=0
note_on channel=0 note=77 velocity=0 time=107
note_on channel=0 note=79 velocity=32 time=0
note_on channel=0 note=79 velocity=0 time=120
note_on channel=0 note=77 velocity=36 time=0
note_on channel=0 note=77 velocity=0 time=120
note_on channel=0 note=79 velocity=31 time=0
note_on channel=0 note=79 velocity=0 time=120
note_on channel=0 note=65 velocity=0 time=0
note_on channel=0 note=77 velocity=37 time=0
note_on channel=0 note=62 velocity=39 time=0
note_on channel=0 note=77 velocity=0 time=120
note_on channel=0 note=79 velocity=31 time=0
note_on channel=0 note=79 velocity=0 time=0
note_on channel=0 note=62 velocity=0 time=0
note_on channel=0 note=82 velocity=0 time=0
note_on channel=0 note=58 velocity=0 time=0
note_on channel=0 note=77 velocity=37 time=0
note_on channel=0 note=81 velocity=59 time=0
note_on channel=0 note=53 velocity=42 time=0
note_on channel=0 note=60 velocity=42 time=0
note_on channel=0 note=77 velocity=0 time=106
note_on channel=0 note=79 velocity=33 time=0
note_on channel=0 note=79 velocity=0 time=113
note_on channel=0 note=77 velocity=37 time=0
note_on channel=0 note=77 velocity=0 time=120
note_on channel=0 note=79 velocity=33 time=0
note_on channel=0 note=79 velocity=0 time=120
note_on channel=0 note=60 velocity=0 time=0
note_on channel=0 note=77 velocity=37 time=0
note_on channel=0 note=67 velocity=36 time=0
note_on channel=0 note=77 velocity=0 time=120
note_on channel=0 note=79 velocity=34 time=0
note_on channel=0 note=79 velocity=0 time=120
note_on channel=0 note=67 velocity=0 time=0
note_on channel=0 note=81 velocity=0 time=0
note_on channel=0 note=77 velocity=38 time=0
note_on channel=0 note=87 velocity=59 time=0
note_on channel=0 note=65 velocity=45 time=0
note_on channel=0 note=77 velocity=0 time=7
note_on channel=0 note=79 velocity=34 time=0
note_on channel=0 note=79 velocity=0 time=0
note_on channel=0 note=77 velocity=39 time=0
note_on channel=0 note=77 velocity=0 time=120
note_on channel=0 note=79 velocity=33 time=0
note_on channel=0 note=79 velocity=0 time=0
note_on channel=0 note=65 velocity=0 time=0
note_on channel=0 note=77 velocity=39 time=0
note_on channel=0 note=60 velocity=41 time=0
note_on channel=0 note=77 velocity=0 time=120
note_on channel=0 note=79 velocity=34 time=0
note_on channel=0 note=79 velocity=0 time=0
note_on channel=0 note=60 velocity=0 time=0
note_on channel=0 note=87 velocity=0 time=0
note_on channel=0 note=53 velocity=0 time=0
note_on channel=0 note=77 velocity=40 time=0
note_on channel=0 note=86 velocity=64 time=0
note_on channel=0 note=58 velocity=46 time=0
note_on channel=0 note=62 velocity=46 time=0
note_on channel=0 note=77 velocity=0 time=116
note_on channel=0 note=79 velocity=35 time=0
note_on channel=0 note=79 velocity=0 time=113
note_on channel=0 note=77 velocity=39 time=0
note_on channel=0 note=77 velocity=0 time=120
note_on channel=0 note=79 velocity=35 time=0
note_on channel=0 note=79 velocity=0 time=0
note_on channel=0 note=62 velocity=0 time=0
note_on channel=0 note=77 velocity=38 time=0
note_on channel=0 note=67 velocity=37 time=0
note_on channel=0 note=77 velocity=0 time=120
note_on channel=0 note=79 velocity=34 time=0
note_on channel=0 note=79 velocity=0 time=120
note_on channel=0 note=67 velocity=0 time=0
note_on channel=0 note=86 velocity=0 time=0
note_on channel=0 note=82 velocity=60 time=0
note_on channel=0 note=77 velocity=39 time=0
note_on channel=0 note=65 velocity=45 time=0
note_on channel=0 note=77 velocity=0 time=28
note_on channel=0 note=79 velocity=34 time=0
note_on channel=0 note=79 velocity=0 time=120
note_on channel=0 note=77 velocity=38 time=0
note_on channel=0 note=77 velocity=0 time=120
note_on channel=0 note=79 velocity=33 time=0
note_on channel=0 note=79 velocity=0 time=120
note_on channel=0 note=65 velocity=0 time=0
note_on channel=0 note=77 velocity=38 time=0
note_on channel=0 note=62 velocity=40 time=0
note_on channel=0 note=77 velocity=0 time=120
note_on channel=0 note=79 velocity=32 time=0
note_on channel=0 note=79 velocity=0 time=120
note_on channel=0 note=62 velocity=0 time=0
note_on channel=0 note=82 velocity=0 time=0
note_on channel=0 note=58 velocity=0 time=0
note_on channel=0 note=77 velocity=37 time=0
note_on channel=0 note=81 velocity=60 time=0
note_on channel=0 note=53 velocity=43 time=0
note_on channel=0 note=60 velocity=43 time=0
note_on channel=0 note=77 velocity=0 time=120
note_on channel=0 note=79 velocity=33 time=0
note_on channel=0 note=79 velocity=0 time=113
note_on channel=0 note=77 velocity=37 time=0
note_on channel=0 note=77 velocity=0 time=120
note_on channel=0 note=79 velocity=32 time=0
note_on channel=0 note=79 velocity=0 time=120
note_on channel=0 note=60 velocity=0 time=0
note_on channel=0 note=77 velocity=35 time=0
note_on channel=0 note=67 velocity=34 time=0
note_on channel=0 note=77 velocity=0 time=120
note_on channel=0 note=79 velocity=32 time=0
note_on channel=0 note=79 velocity=0 time=120
note_on channel=0 note=67 velocity=0 time=0
note_on channel=0 note=81 velocity=0 time=0
note_on channel=0 note=87 velocity=56 time=0
note_on channel=0 note=77 velocity=36 time=0
note_on channel=0 note=65 velocity=42 time=0
note_on channel=0 note=77 velocity=0 time=21
note_on channel=0 note=79 velocity=32 time=0
note_on channel=0 note=79 velocity=0 time=0
note_on channel=0 note=77 velocity=36 time=0
note_on channel=0 note=77 velocity=0 time=120
note_on channel=0 note=79 velocity=30 time=0
note_on channel=0 note=79 velocity=0 time=120
note_on channel=0 note=65 velocity=0 time=0
note_on channel=0 note=77 velocity=35 time=0
note_on channel=0 note=60 velocity=37 time=0
note_on channel=0 note=77 velocity=0 time=120
note_on channel=0 note=79 velocity=30 time=0
note_on channel=0 note=79 velocity=0 time=0
note_on channel=0 note=60 velocity=0 time=0
note_on channel=0 note=87 velocity=0 time=0
note_on channel=0 note=53 velocity=0 time=0
note_on channel=0 note=62 velocity=51 time=0
note_on channel=0 note=65 velocity=51 time=0
note_on channel=0 note=65 velocity=0 time=42
note_on channel=0 note=62 velocity=0 time=0
note_on channel=0 note=67 velocity=45 time=0
note_on channel=0 note=67 velocity=0 time=0
note_on channel=0 note=86 velocity=45 time=0
note_on channel=0 note=82 velocity=45 time=0
note_on channel=0 note=69 velocity=50 time=0
note_on channel=0 note=69 velocity=0 time=24
note_on channel=0 note=82 velocity=0 time=0
note_on channel=0 note=86 velocity=0 time=0
note_on channel=0 note=70 velocity=52 time=0
note_on channel=0 note=70 velocity=0 time=67
note_on channel=0 note=86 velocity=45 time=0
note_on channel=0 note=82 velocity=45 time=0
note_on channel=0 note=72 velocity=54 time=0
note_on channel=0 note=72 velocity=0 time=51
note_on channel=0 note=74 velocity=56 time=0
note_on channel=0 note=82 velocity=0 time=14
note_on channel=0 note=86 velocity=0 time=0
note_on channel=0 note=74 velocity=0 time=40
note_on channel=0 note=75 velocity=59 time=0
note_on channel=0 note=75 velocity=0 time=58
note_on channel=0 note=86 velocity=48 time=0
note_on channel=0 note=82 velocity=48 time=0
note_on channel=0 note=77 velocity=61 time=0
note_on channel=0 note=77 velocity=0 time=5
note_on channel=0 note=82 velocity=0 time=0
note_on channel=0 note=86 velocity=0 time=0
note_on channel=0 note=75 velocity=60 time=0
note_on channel=0 note=75 velocity=0 time=48
note_on channel=0 note=86 velocity=42 time=0
note_on channel=0 note=82 velocity=42 time=0
note_on channel=0 note=74 velocity=58 time=0
note_on channel=0 note=74 velocity=0 time=72
note_on channel=0 note=82 velocity=0 time=0
note_on channel=0 note=86 velocity=0 time=0
note_on channel=0 note=72 velocity=57 time=0
note_on channel=0 note=72 velocity=0 time=0
note_on channel=0 note=86 velocity=42 time=0
note_on channel=0 note=82 velocity=42 time=0
note_on channel=0 note=70 velocity=55 time=0
note_on channel=0 note=70 velocity=0 time=24
note_on channel=0 note=82 velocity=0 time=0
note_on channel=0 note=86 velocity=0 time=0
note_on channel=0 note=69 velocity=54 time=0
note_on channel=0 note=69 velocity=0 time=0
note_on channel=0 note=63 velocity=51 time=0
note_on channel=0 note=67 velocity=51 time=0
note_on channel=0 note=67 velocity=0 time=67
note_on channel=0 note=63 velocity=0 time=0
note_on channel=0 note=69 velocity=45 time=0
note_on channel=0 note=69 velocity=0 time=19
note_on channel=0 note=84 velocity=45 time=0
note_on channel=0 note=82 velocity=45 time=0
note_on channel=0 note=70 velocity=48 time=0
note_on channel=0 note=70 velocity=0 time=24
note_on channel=0 note=82 velocity=0 time=0
note_on channel=0 note=84 velocity=0 time=0
note_on channel=0 note=72 velocity=50 time=0
note_on channel=0 note=72 velocity=0 time=29
note_on channel=0 note=82 velocity=45 time=0
note_on channel=0 note=84 velocity=45 time=0
note_on channel=0 note=74 velocity=55 time=0
note_on channel=0 note=74 velocity=0 time=80
note_on channel=0 note=75 velocity=57 time=0
note_on channel=0 note=84 velocity=0 time=34
note_on channel=0 note=82 velocity=0 time=0
note_on channel=0 note=75 velocity=0 time=40
note_on channel=0 note=77 velocity=60 time=0
note_on channel=0 note=77 velocity=0 time=38
note_on channel=0 note=82 velocity=49 time=0
note_on channel=0 note=84 velocity=49 time=0
note_on channel=0 note=79 velocity=62 time=0
note_on channel=0 note=79 velocity=0 time=56
note_on channel=0 note=84 velocity=0 time=0
note_on channel=0 note=82 velocity=0 time=0
note_on channel=0 note=77 velocity=62 time=0
note_on channel=0 note=77 velocity=0 time=120
note_on channel=0 note=84 velocity=44 time=0
note_on channel=0 note=82 velocity=44 time=0
note_on channel=0 note=75 velocity=60 time=0
note_on channel=0 note=75 velocity=0 time=51
note_on channel=0 note=74 velocity=59 time=0
note_on channel=0 note=82 velocity=0 time=40
note_on channel=0 note=84 velocity=0 time=0
note_on channel=0 note=74 velocity=0 time=40
note_on channel=0 note=72 velocity=58 time=0
note_on channel=0 note=72 velocity=0 time=19
note_on channel=0 note=84 velocity=46 time=0
note_on channel=0 note=82 velocity=46 time=0
note_on channel=0 note=70 velocity=58 time=0
note_on channel=0 note=70 velocity=0 time=80
note_on channel=0 note=69 velocity=57 time=0
note_on channel=0 note=82 velocity=0 time=40
note_on channel=0 note=84 velocity=0 time=0
note_on channel=0 note=69 velocity=0 time=40
note_on channel=0 note=67 velocity=56 time=0
note_on channel=0 note=67 velocity=0 time=0
note_on channel=0 note=65 velocity=60 time=0
note_on channel=0 note=65 velocity=0 time=120
note_on channel=0 note=53 velocity=52 time=0
note_on channel=0 note=53 velocity=0 time=0
note_on channel=0 note=86 velocity=48 time=0
note_on channel=0 note=82 velocity=48 time=0
note_on channel=0 note=58 velocity=63 time=0
note_on channel=0 note=58 velocity=0 time=5
note_on channel=0 note=82 velocity=0 time=0
note_on channel=0 note=86 velocity=0 time=0
note_on channel=0 note=62 velocity=59 time=0
note_on channel=0 note=62 velocity=0 time=10
note_on channel=0 note=86 velocity=49 time=0
note_on channel=0 note=82 velocity=49 time=0
note_on channel=0 note=65 velocity=68 time=0
note_on channel=0 note=65 velocity=0 time=34
note_on channel=0 note=82 velocity=0 time=0
note_on channel=0 note=86 velocity=0 time=0
note_on channel=0 note=70 velocity=62 time=0
note_on channel=0 note=70 velocity=0 time=0
note_on channel=0 note=86 velocity=52 time=0
note_on channel=0 note=82 velocity=52 time=0
note_on channel=0 note=74 velocity=63 time=0
note_on channel=0 note=74 velocity=0 time=120
note_on channel=0 note=82 velocity=0 time=0
note_on channel=0 note=86 velocity=0 time=0
note_on channel=0 note=70 velocity=54 time=0
note_on channel=0 note=70 velocity=0 time=0
note_on channel=0 note=86 velocity=47 time=0
note_on channel=0 note=82 velocity=47 time=0
note_on channel=0 note=77 velocity=66 time=0
note_on channel=0 note=77 velocity=0 time=5
note_on channel=0 note=82 velocity=0 time=0
note_on channel=0 note=86 velocity=0 time=0
note_on channel=0 note=74 velocity=62 time=0
note_on channel=0 note=74 velocity=0 time=10
note_on channel=0 note=89 velocity=48 time=0
note_on channel=0 note=82 velocity=48 time=0
note_on channel=0 note=86 velocity=48 time=0
note_on channel=0 note=70 velocity=70 time=0
note_on channel=0 note=70 velocity=0 time=34
note_on channel=0 note=89 velocity=0 time=0
note_on channel=0 note=82 velocity=0 time=0
note_on channel=0 note=86 velocity=0 time=0
note_on channel=0 note=74 velocity=64 time=0
note_on channel=0 note=74 velocity=0 time=38
note_on channel=0 note=87 velocity=59 time=0
note_on channel=0 note=81 velocity=59 time=0
note_on channel=0 note=89 velocity=59 time=0
note_on channel=0 note=72 velocity=67 time=0
note_on channel=0 note=65 velocity=60 time=0
note_on channel=0 note=72 velocity=0 time=27
note_on channel=0 note=74 velocity=59 time=0
note_on channel=0 note=89 velocity=0 time=40
note_on channel=0 note=87 velocity=0 time=0
note_on channel=0 note=81 velocity=0 time=0
note_on channel=0 note=74 velocity=0 time=40
note_on channel=0 note=72 velocity=67 time=0
note_on channel=0 note=72 velocity=0 time=80
note_on channel=0 note=65 velocity=0 time=0
note_on channel=0 note=89 velocity=46 time=0
note_on channel=0 note=81 velocity=46 time=0
note_on channel=0 note=87 velocity=46 time=0
note_on channel=0 note=74 velocity=61 time=0
note_on channel=0 note=74 velocity=0 time=39
note_on channel=0 note=72 velocity=66 time=0
note_on channel=0 note=89 velocity=0 time=2
note_on channel=0 note=87 velocity=0 time=0
note_on channel=0 note=81 velocity=0 time=0
note_on channel=0 note=72 velocity=0 time=40
note_on channel=0 note=74 velocity=59 time=0
note_on channel=0 note=74 velocity=0 time=45
note_on channel=0 note=87 velocity=45 time=0
note_on channel=0 note=89 velocity=45 time=0
note_on channel=0 note=81 velocity=45 time=0
note_on channel=0 note=72 velocity=66 time=0
note_on channel=0 note=72 velocity=0 time=49
note_on channel=0 note=74 velocity=59 time=0
note_on channel=0 note=87 velocity=0 time=12
note_on channel=0 note=81 velocity=0 time=0
note_on channel=0 note=89 velocity=0 time=0
note_on channel=0 note=74 velocity=0 time=40
note_on channel=0 note=72 velocity=62 time=0
note_on channel=0 note=72 velocity=0 time=55
note_on channel=0 note=89 velocity=53 time=0
note_on channel=0 note=81 velocity=53 time=0
note_on channel=0 note=87 velocity=53 time=0
note_on channel=0 note=74 velocity=56 time=0
note_on channel=0 note=74 velocity=0 time=77
note_on channel=0 note=72 velocity=63 time=0
note_on channel=0 note=89 velocity=0 time=40
note_on channel=0 note=87 velocity=0 time=0
note_on channel=0 note=81 velocity=0 time=0
note_on channel=0 note=72 velocity=0 time=40
note_on channel=0 note=74 velocity=55 time=0
note_on channel=0 note=74 velocity=0 time=80
note_on channel=0 note=87 velocity=45 time=0
note_on channel=0 note=89 velocity=45 time=0
note_on channel=0 note=81 velocity=45 time=0
note_on channel=0 note=72 velocity=63 time=0
note_on channel=0 note=72 velocity=0 time=13
note_on channel=0 note=74 velocity=55 time=0
note_on channel=0 note=87 velocity=0 time=14
note_on channel=0 note=81 velocity=0 time=0
note_on channel=0 note=89 velocity=0 time=0
note_on channel=0 note=74 velocity=0 time=16
note_on channel=0 note=72 velocity=63 time=0
note_on channel=0 note=72 velocity=0 time=0
note_on channel=0 note=89 velocity=44 time=0
note_on channel=0 note=81 velocity=44 time=0
note_on channel=0 note=87 velocity=44 time=0
note_on channel=0 note=74 velocity=55 time=0
note_on channel=0 note=74 velocity=0 time=3
note_on channel=0 note=72 velocity=63 time=0
note_on channel=0 note=89 velocity=0 time=40
note_on channel=0 note=87 velocity=0 time=0
note_on channel=0 note=81 velocity=0 time=0
note_on channel=0 note=72 velocity=0 time=40
note_on channel=0 note=74 velocity=59 time=0
note_on channel=0 note=74 velocity=0 time=10
note_on channel=0 note=65 velocity=62 time=0
note_on channel=0 note=65 velocity=0 time=53
note_on channel=0 note=71 velocity=55 time=0
note_on channel=0 note=71 velocity=0 time=0
note_on channel=0 note=72 velocity=58 time=0
note_on channel=0 note=72 velocity=0 time=5
note_on channel=0 note=74 velocity=60 time=0
note_on channel=0 note=74 velocity=0 time=0
note_on channel=0 note=80 velocity=70 time=0
note_on channel=0 note=92 velocity=83 time=0
note_on channel=0 note=72 velocity=58 time=0
note_on channel=0 note=72 velocity=0 time=120
note_on channel=0 note=71 velocity=58 time=0
note_on channel=0 note=71 velocity=0 time=80
note_on channel=0 note=63 velocity=61 time=0
note_on channel=0 note=63 velocity=0 time=5
note_on channel=0 note=72 velocity=56 time=0
note_on channel=0 note=72 velocity=0 time=120
note_on channel=0 note=74 velocity=59 time=0
note_on channel=0 note=74 velocity=0 time=120
note_on channel=0 note=75 velocity=61 time=0
note_on channel=0 note=75 velocity=0 time=120
note_on channel=0 note=92 velocity=0 time=0
note_on channel=0 note=80 velocity=0 time=0
note_on channel=0 note=79 velocity=66 time=0
note_on channel=0 note=91 velocity=79 time=0
note_on channel=0 note=74 velocity=57 time=0
note_on channel=0 note=74 velocity=0 time=40
note_on channel=0 note=72 velocity=57 time=0
note_on channel=0 note=72 velocity=0 time=10
note_on channel=0 note=91 velocity=0 time=0
note_on channel=0 note=79 velocity=0 time=0
note_on channel=0 note=63 velocity=62 time=6
note_on channel=0 note=69 velocity=55 time=53
note_on channel=0 note=63 velocity=0 time=1
note_on channel=0 note=69 velocity=0 time=0
note_on channel=0 note=70 velocity=58 time=0
note_on channel=0 note=72 velocity=60 time=57
note_on channel=0 note=70 velocity=0 time=5
note_on channel=0 note=72 velocity=0 time=5
note_on channel=0 note=78 velocity=69 time=0
note_on channel=0 note=90 velocity=81 time=0
note_on channel=0 note=70 velocity=59 time=0
note_on channel=0 note=70 velocity=0 time=120
note_on channel=0 note=69 velocity=59 time=0
note_on channel=0 note=69 velocity=0 time=80
note_on channel=0 note=62 velocity=62 time=0
note_on channel=0 note=62 velocity=0 time=5
note_on channel=0 note=70 velocity=57 time=0
note_on channel=0 note=70 velocity=0 time=120
note_on channel=0 note=72 velocity=61 time=0
note_on channel=0 note=72 velocity=0 time=120
note_on channel=0 note=74 velocity=64 time=0
note_on channel=0 note=74 velocity=0 time=120
note_on channel=0 note=90 velocity=0 time=0
note_on channel=0 note=78 velocity=0 time=0
note_on channel=0 note=77 velocity=67 time=0
note_on channel=0 note=89 velocity=80 time=0
note_on channel=0 note=72 velocity=59 time=0
note_on channel=0 note=72 velocity=0 time=40
note_on channel=0 note=70 velocity=60 time=0
note_on channel=0 note=70 velocity=0 time=10
note_on channel=0 note=89 velocity=0 time=0
note_on channel=0 note=77 velocity=0 time=0
note_on channel=0 note=53 velocity=65 time=6
note_on channel=0 note=59 velocity=58 time=14
note_on channel=0 note=53 velocity=0 time=6
note_on channel=0 note=59 velocity=0 time=0
note_on channel=0 note=60 velocity=62 time=0
note_on channel=0 note=62 velocity=64 time=38
note_on channel=0 note=60 velocity=0 time=5
note_on channel=0 note=62 velocity=0 time=62
note_on channel=0 note=68 velocity=73 time=0
note_on channel=0 note=80 velocity=86 time=0
note_on channel=0 note=60 velocity=62 time=0
note_on channel=0 note=60 velocity=0 time=120
note_on channel=0 note=59 velocity=63 time=0
note_on channel=0 note=59 velocity=0 time=115
note_on channel=0 note=51 velocity=67 time=0
note_on channel=0 note=51 velocity=0 time=5
note_on channel=0 note=60 velocity=61 time=0
note_on channel=0 note=60 velocity=0 time=120
note_on channel=0 note=62 velocity=65 time=0
note_on channel=0 note=62 velocity=0 time=120
note_on channel=0 note=63 velocity=67 time=0
note_on channel=0 note=63 velocity=0 time=120
note_on channel=0 note=80 velocity=0 time=0
note_on channel=0 note=68 velocity=0 time=0
note_on channel=0 note=67 velocity=71 time=0
note_on channel=0 note=79 velocity=86 time=0
note_on channel=0 note=62 velocity=63 time=0
note_on channel=0 note=62 velocity=0 time=0
note_on channel=0 note=60 velocity=63 time=0
note_on channel=0 note=60 velocity=0 time=0
note_on channel=0 note=79 velocity=0 time=0
note_on channel=0 note=67 velocity=0 time=0
note_on channel=0 note=51 velocity=70 time=6
note_on channel=0 note=57 velocity=62 time=14
note_on channel=0 note=51 velocity=0 time=6
note_on channel=0 note=57 velocity=0 time=19
note_on channel=0 note=58 velocity=66 time=0
note_on channel=0 note=60 velocity=68 time=19
note_on channel=0 note=58 velocity=0 time=5
note_on channel=0 note=60 velocity=0 time=62
note_on channel=0 note=66 velocity=78 time=0
note_on channel=0 note=78 velocity=92 time=0
note_on channel=0 note=58 velocity=66 time=0
note_on channel=0 note=58 velocity=0 time=0
note_on channel=0 note=57 velocity=67 time=0
note_on channel=0 note=57 velocity=0 time=80
note_on channel=0 note=50 velocity=70 time=0
note_on channel=0 note=50 velocity=0 time=5
note_on channel=0 note=58 velocity=65 time=0
note_on channel=0 note=58 velocity=0 time=120
note_on channel=0 note=60 velocity=69 time=0
note_on channel=0 note=60 velocity=0 time=120
note_on channel=0 note=62 velocity=71 time=0
note_on channel=0 note=62 velocity=0 time=120
note_on channel=0 note=78 velocity=0 time=0
note_on channel=0 note=66 velocity=0 time=0
note_on channel=0 note=65 velocity=75 time=0
note_on channel=0 note=77 velocity=90 time=0
note_on channel=0 note=60 velocity=67 time=0
note_on channel=0 note=60 velocity=0 time=0
note_on channel=0 note=58 velocity=67 time=0
note_on channel=0 note=58 velocity=0 time=0
note_on channel=0 note=77 velocity=0 time=0
note_on channel=0 note=65 velocity=0 time=0
note_on channel=0 note=50 velocity=70 time=0
note_on channel=0 note=50 velocity=0 time=120
note_on channel=0 note=53 velocity=62 time=0
note_on channel=0 note=53 velocity=0 time=120
note_on channel=0 note=70 velocity=60 time=0
note_on channel=0 note=77 velocity=71 time=0
note_on channel=0 note=65 velocity=60 time=0
note_on channel=0 note=58 velocity=66 time=0
note_on channel=0 note=58 velocity=0 time=120
note_on channel=0 note=70 velocity=0 time=0
note_on channel=0 note=77 velocity=0 time=0
note_on channel=0 note=65 velocity=0 time=0
note_on channel=0 note=62 velocity=68 time=0
note_on channel=0 note=62 velocity=0 time=120
note_on channel=0 note=65 velocity=57 time=0
note_on channel=0 note=77 velocity=68 time=0
note_on channel=0 note=70 velocity=57 time=0
note_on channel=0 note=58 velocity=66 time=0
note_on channel=0 note=58 velocity=0 time=0
note_on channel=0 note=65 velocity=0 time=0
note_on channel=0 note=77 velocity=0 time=0
note_on channel=0 note=70 velocity=0 time=0
note_on channel=0 note=53 velocity=63 time=0
note_on channel=0 note=53 velocity=0 time=0
note_on channel=0 note=43 velocity=70 time=0
note_on channel=0 note=43 velocity=0 time=5
note_on channel=0 note=46 velocity=65 time=0
note_on channel=0 note=46 velocity=0 time=120
note_on channel=0 note=70 velocity=58 time=0
note_on channel=0 note=75 velocity=69 time=0
note_on channel=0 note=67 velocity=58 time=0
note_on channel=0 note=50 velocity=69 time=0
note_on channel=0 note=50 velocity=0 time=120
note_on channel=0 note=70 velocity=0 time=0
note_on channel=0 note=75 velocity=0 time=0
note_on channel=0 note=67 velocity=0 time=0
note_on channel=0 note=55 velocity=71 time=0
note_on channel=0 note=55 velocity=0 time=120
note_on channel=0 note=74 velocity=65 time=0
note_on channel=0 note=67 velocity=55 time=0
note_on channel=0 note=70 velocity=55 time=0
note_on channel=0 note=50 velocity=67 time=0
note_on channel=0 note=50 velocity=0 time=120
note_on channel=0 note=74 velocity=0 time=0
note_on channel=0 note=67 velocity=0 time=0
note_on channel=0 note=70 velocity=0 time=0
note_on channel=0 note=46 velocity=64 time=0
note_on channel=0 note=46 velocity=0 time=0
note_on channel=0 note=39 velocity=70 time=0
note_on channel=0 note=39 velocity=0 time=120
note_on channel=0 note=43 velocity=62 time=0
note_on channel=0 note=43 velocity=0 time=120
note_on channel=0 note=63 velocity=60 time=0
note_on channel=0 note=74 velocity=71 time=0
note_on channel=0 note=67 velocity=60 time=0
note_on channel=0 note=48 velocity=66 time=0
note_on channel=0 note=48 velocity=0 time=120
note_on channel=0 note=63 velocity=0 time=0
note_on channel=0 note=74 velocity=0 time=0
note_on channel=0 note=67 velocity=0 time=0
note_on channel=0 note=51 velocity=68 time=0
note_on channel=0 note=51 velocity=0 time=120
note_on channel=0 note=72 velocity=68 time=0
note_on channel=0 note=67 velocity=57 time=0
note_on channel=0 note=63 velocity=57 time=0
note_on channel=0 note=48 velocity=66 time=0
note_on channel=0 note=48 velocity=0 time=0
note_on channel=0 note=72 velocity=0 time=0
note_on channel=0 note=67 velocity=0 time=0
note_on channel=0 note=63 velocity=0 time=0
note_on channel=0 note=43 velocity=63 time=0
note_on channel=0 note=43 velocity=0 time=0
note_on channel=0 note=41 velocity=70 time=0
note_on channel=0 note=41 velocity=0 time=5
note_on channel=0 note=48 velocity=65 time=0
note_on channel=0 note=48 velocity=0 time=120
note_on channel=0 note=70 velocity=69 time=0
note_on channel=0 note=63 velocity=58 time=0
note_on channel=0 note=60 velocity=58 time=0
note_on channel=0 note=51 velocity=69 time=0
note_on channel=0 note=51 velocity=0 time=120
note_on channel=0 note=70 velocity=0 time=0
note_on channel=0 note=63 velocity=0 time=0
note_on channel=0 note=60 velocity=0 time=0
note_on channel=0 note=53 velocity=71 time=0
note_on channel=0 note=53 velocity=0 time=120
note_on channel=0 note=69 velocity=65 time=0
note_on channel=0 note=63 velocity=55 time=0
note_on channel=0 note=60 velocity=55 time=0
note_on channel=0 note=51 velocity=67 time=0
note_on channel=0 note=51 velocity=0 time=120
note_on channel=0 note=69 velocity=0 time=0
note_on channel=0 note=63 velocity=0 time=0
note_on channel=0 note=60 velocity=0 time=0
note_on channel=0 note=48 velocity=64 time=0
note_on channel=0 note=48 velocity=0 time=0
note_on channel=0 note=38 velocity=70 time=0
note_on channel=0 note=38 velocity=0 time=120
note_on channel=0 note=41 velocity=62 time=0
note_on channel=0 note=41 velocity=0 time=120
note_on channel=0 note=70 velocity=71 time=0
note_on channel=0 note=65 velocity=60 time=0
note_on channel=0 note=58 velocity=60 time=0
note_on channel=0 note=46 velocity=66 time=0
note_on channel=0 note=46 velocity=0 time=120
note_on channel=0 note=70 velocity=0 time=0
note_on channel=0 note=65 velocity=0 time=0
note_on channel=0 note=58 velocity=0 time=0
note_on channel=0 note=50 velocity=68 time=0
note_on channel=0 note=50 velocity=0 time=120
note_on channel=0 note=65 velocity=69 time=0
note_on channel=0 note=62 velocity=58 time=0
note_on channel=0 note=58 velocity=58 time=0
note_on channel=0 note=46 velocity=67 time=0
note_on channel=0 note=46 velocity=0 time=0
note_on channel=0 note=65 velocity=0 time=0
note_on channel=0 note=62 velocity=0 time=0
note_on channel=0 note=58 velocity=0 time=0
note_on channel=0 note=41 velocity=64 time=0
note_on channel=0 note=41 velocity=0 time=0
note_on channel=0 note=31 velocity=72 time=0
note_on channel=0 note=31 velocity=0 time=5
note_on channel=0 note=34 velocity=67 time=0
note_on channel=0 note=34 velocity=0 time=120
note_on channel=0 note=55 velocity=74 time=0
note_on channel=0 note=63 velocity=72 time=0
note_on channel=0 note=58 velocity=60 time=0
note_on channel=0 note=38 velocity=72 time=0
note_on channel=0 note=38 velocity=0 time=120
note_on channel=0 note=55 velocity=0 time=0
note_on channel=0 note=63 velocity=0 time=0
note_on channel=0 note=58 velocity=0 time=0
note_on channel=0 note=43 velocity=74 time=0
note_on channel=0 note=43 velocity=0 time=120
note_on channel=0 note=62 velocity=68 time=0
note_on channel=0 note=58 velocity=58 time=0
note_on channel=0 note=55 velocity=58 time=0
note_on channel=0 note=38 velocity=71 time=0
note_on channel=0 note=38 velocity=0 time=120
note_on channel=0 note=62 velocity=0 time=0
note_on channel=0 note=58 velocity=0 time=0
note_on channel=0 note=55 velocity=0 time=0
note_on channel=0 note=34 velocity=67 time=0
note_on channel=0 note=34 velocity=0 time=0
note_on channel=0 note=39 velocity=74 time=0
note_on channel=0 note=39 velocity=0 time=120
note_on channel=0 note=43 velocity=66 time=0
note_on channel=0 note=43 velocity=0 time=120
note_on channel=0 note=62 velocity=76 time=0
note_on channel=0 note=55 velocity=64 time=0
note_on channel=0 note=51 velocity=64 time=0
note_on channel=0 note=48 velocity=71 time=0
note_on channel=0 note=48 velocity=0 time=120
note_on channel=0 note=62 velocity=0 time=0
note_on channel=0 note=55 velocity=0 time=0
note_on channel=0 note=51 velocity=0 time=0
note_on channel=0 note=43 velocity=74 time=0
note_on channel=0 note=43 velocity=0 time=120
note_on channel=0 note=60 velocity=74 time=0
note_on channel=0 note=55 velocity=62 time=0
note_on channel=0 note=51 velocity=62 time=0
note_on channel=0 note=39 velocity=72 time=0
note_on channel=0 note=51 velocity=0 time=0
note_on channel=0 note=60 velocity=0 time=0
note_on channel=0 note=55 velocity=0 time=0
note_on channel=0 note=39 velocity=0 time=0
note_on channel=0 note=29 velocity=77 time=0
note_on channel=0 note=29 velocity=0 time=5
note_on channel=0 note=36 velocity=72 time=0
note_on channel=0 note=36 velocity=0 time=120
note_on channel=0 note=48 velocity=79 time=0
note_on channel=0 note=51 velocity=64 time=0
note_on channel=0 note=58 velocity=77 time=0
note_on channel=0 note=39 velocity=77 time=0
note_on channel=0 note=39 velocity=0 time=120
note_on channel=0 note=48 velocity=0 time=0
note_on channel=0 note=51 velocity=0 time=0
note_on channel=0 note=58 velocity=0 time=0
note_on channel=0 note=41 velocity=80 time=0
note_on channel=0 note=41 velocity=0 time=120
note_on channel=0 note=51 velocity=62 time=0
note_on channel=0 note=57 velocity=73 time=0
note_on channel=0 note=48 velocity=62 time=0
note_on channel=0 note=29 velocity=75 time=0
note_on channel=0 note=29 velocity=0 time=0
note_on channel=0 note=51 velocity=0 time=0
note_on channel=0 note=57 velocity=0 time=0
note_on channel=0 note=48 velocity=0 time=0
note_on channel=0 note=41 velocity=72 time=0
note_on channel=0 note=41 velocity=0 time=0
note_on channel=0 note=46 velocity=62 time=0
note_on channel=0 note=34 velocity=75 time=0
note_on channel=0 note=34 velocity=0 time=12
note_on channel=0 note=46 velocity=0 time=0
note_on channel=0 note=48 velocity=63 time=0
note_on channel=0 note=48 velocity=0 time=17
note_on channel=0 note=50 velocity=65 time=0
note_on channel=0 note=46 velocity=75 time=0
note_on channel=0 note=46 velocity=0 time=22
note_on channel=0 note=50 velocity=0 time=0
note_on channel=0 note=51 velocity=66 time=0
note_on channel=0 note=51 velocity=0 time=27
note_on channel=0 note=53 velocity=67 time=0
note_on channel=0 note=46 velocity=64 time=0
note_on channel=0 note=50 velocity=77 time=0
note_on channel=0 note=53 velocity=0 time=28
note_on channel=0 note=55 velocity=68 time=0
note_on channel=0 note=50 velocity=0 time=40
note_on channel=0 note=46 velocity=0 time=0
note_on channel=0 note=55 velocity=0 time=40
note_on channel=0 note=57 velocity=68 time=0
note_on channel=0 note=57 velocity=0 time=80
note_on channel=0 note=58 velocity=69 time=0
note_on channel=0 note=46 velocity=70 time=0
note_on channel=0 note=50 velocity=70 time=0
note_on channel=0 note=53 velocity=83 time=0
note_on channel=0 note=58 velocity=0 time=34
note_on channel=0 note=60 velocity=70 time=0
note_on channel=0 note=60 velocity=0 time=40
note_on channel=0 note=62 velocity=71 time=0
note_on channel=0 note=62 velocity=0 time=0
note_on channel=0 note=63 velocity=72 time=0
note_on channel=0 note=63 velocity=0 time=80
note_on channel=0 note=65 velocity=72 time=0
note_on channel=0 note=65 velocity=0 time=80
note_on channel=0 note=67 velocity=73 time=0
note_on channel=0 note=67 velocity=0 time=80
note_on channel=0 note=53 velocity=0 time=0
note_on channel=0 note=50 velocity=0 time=0
note_on channel=0 note=46 velocity=0 time=0
note_on channel=0 note=69 velocity=85 time=0
note_on channel=0 note=48 velocity=60 time=0
note_on channel=0 note=41 velocity=60 time=0
note_on channel=0 note=53 velocity=71 time=0
note_on channel=0 note=53 velocity=0 time=0
note_on channel=0 note=69 velocity=0 time=0
note_on channel=0 note=48 velocity=0 time=0
note_on channel=0 note=41 velocity=0 time=0
note_on channel=0 note=57 velocity=67 time=0
note_on channel=0 note=57 velocity=0 time=7
note_on channel=0 note=58 velocity=62 time=0
note_on channel=0 note=46 velocity=67 time=0
note_on channel=0 note=53 velocity=79 time=0
note_on channel=0 note=50 velocity=67 time=0
note_on channel=0 note=50 velocity=0 time=12
note_on channel=0 note=58 velocity=0 time=0
note_on channel=0 note=46 velocity=0 time=0
note_on channel=0 note=53 velocity=0 time=0
note_on channel=0 note=60 velocity=63 time=0
note_on channel=0 note=60 velocity=0 time=36
note_on channel=0 note=62 velocity=65 time=0
note_on channel=0 note=46 velocity=63 time=0
note_on channel=0 note=50 velocity=63 time=0
note_on channel=0 note=53 velocity=75 time=0
note_on channel=0 note=53 velocity=0 time=60
note_on channel=0 note=62 velocity=0 time=0
note_on channel=0 note=46 velocity=0 time=0
note_on channel=0 note=50 velocity=0 time=0
note_on channel=0 note=63 velocity=66 time=0
note_on channel=0 note=63 velocity=0 time=84
note_on channel=0 note=65 velocity=67 time=0
note_on channel=0 note=53 velocity=74 time=0
note_on channel=0 note=46 velocity=62 time=0
note_on channel=0 note=50 velocity=62 time=0
note_on channel=0 note=65 velocity=0 time=68
note_on channel=0 note=67 velocity=68 time=0
note_on channel=0 note=53 velocity=0 time=40
note_on channel=0 note=50 velocity=0 time=0
note_on channel=0 note=46 velocity=0 time=0
note_on channel=0 note=67 velocity=0 time=40
note_on channel=0 note=69 velocity=68 time=0
note_on channel=0 note=69 velocity=0 time=80
note_on channel=0 note=70 velocity=69 time=0
note_on channel=0 note=46 velocity=69 time=0
note_on channel=0 note=50 velocity=69 time=0
note_on channel=0 note=53 velocity=82 time=0
note_on channel=0 note=70 velocity=0 time=11
note_on channel=0 note=72 velocity=70 time=0
note_on channel=0 note=72 velocity=0 time=40
note_on channel=0 note=74 velocity=71 time=0
note_on channel=0 note=74 velocity=0 time=0
note_on channel=0 note=75 velocity=72 time=0
note_on channel=0 note=75 velocity=0 time=80
note_on channel=0 note=77 velocity=72 time=0
note_on channel=0 note=77 velocity=0 time=80
note_on channel=0 note=79 velocity=73 time=0
note_on channel=0 note=79 velocity=0 time=80
note_on channel=0 note=53 velocity=0 time=0
note_on channel=0 note=50 velocity=0 time=0
note_on channel=0 note=46 velocity=0 time=0
note_on channel=0 note=81 velocity=85 time=0
note_on channel=0 note=48 velocity=63 time=0
note_on channel=0 note=41 velocity=63 time=0
note_on channel=0 note=53 velocity=75 time=0
note_on channel=0 note=53 velocity=0 time=0
note_on channel=0 note=81 velocity=0 time=0
note_on channel=0 note=48 velocity=0 time=0
note_on channel=0 note=41 velocity=0 time=0
note_on channel=0 note=69 velocity=67 time=0
note_on channel=0 note=69 velocity=0 time=7
note_on channel=0 note=70 velocity=62 time=0
note_on channel=0 note=46 velocity=64 time=0
note_on channel=0 note=53 velocity=76 time=0
note_on channel=0 note=50 velocity=64 time=0
note_on channel=0 note=50 velocity=0 time=31
note_on channel=0 note=70 velocity=0 time=0
note_on channel=0 note=46 velocity=0 time=0
note_on channel=0 note=53 velocity=0 time=0
note_on channel=0 note=72 velocity=63 time=0
note_on channel=0 note=72 velocity=0 time=75
note_on channel=0 note=74 velocity=65 time=0
note_on channel=0 note=46 velocity=63 time=0
note_on channel=0 note=50 velocity=63 time=0
note_on channel=0 note=53 velocity=75 time=0
note_on channel=0 note=53 velocity=0 time=22
note_on channel=0 note=74 velocity=0 time=0
note_on channel=0 note=46 velocity=0 time=0
note_on channel=0 note=50 velocity=0 time=0
note_on channel=0 note=75 velocity=66 time=0
note_on channel=0 note=75 velocity=0 time=65
note_on channel=0 note=77 velocity=68 time=0
note_on channel=0 note=53 velocity=73 time=0
note_on channel=0 note=46 velocity=61 time=0
note_on channel=0 note=50 velocity=61 time=0
note_on channel=0 note=77 velocity=0 time=68
note_on channel=0 note=79 velocity=70 time=0
note_on channel=0 note=53 velocity=0 time=40
note_on channel=0 note=50 velocity=0 time=0
note_on channel=0 note=46 velocity=0 time=0
note_on channel=0 note=79 velocity=0 time=40
note_on channel=0 note=81 velocity=72 time=0
note_on channel=0 note=81 velocity=0 time=80
note_on channel=0 note=82 velocity=74 time=0
note_on channel=0 note=46 velocity=70 time=0
note_on channel=0 note=50 velocity=70 time=0
note_on channel=0 note=53 velocity=83 time=0
note_on channel=0 note=82 velocity=0 time=0
note_on channel=0 note=84 velocity=75 time=0
note_on channel=0 note=84 velocity=0 time=0
note_on channel=0 note=86 velocity=77 time=0
note_on channel=0 note=86 velocity=0 time=80
note_on channel=0 note=87 velocity=79 time=0
note_on channel=0 note=87 velocity=0 time=80
note_on channel=0 note=89 velocity=81 time=0
note_on channel=0 note=89 velocity=0 time=80
note_on channel=0 note=46 velocity=0 time=0
note_on channel=0 note=50 velocity=0 time=0
note_on channel=0 note=53 velocity=0 time=0
note_on channel=0 note=91 velocity=83 time=0
note_on channel=0 note=48 velocity=63 time=0
note_on channel=0 note=41 velocity=63 time=0
note_on channel=0 note=53 velocity=75 time=0
note_on channel=0 note=91 velocity=0 time=31
note_on channel=0 note=93 velocity=92 time=0
note_on channel=0 note=48 velocity=0 time=0
note_on channel=0 note=53 velocity=0 time=0
note_on channel=0 note=41 velocity=0 time=0
note_on channel=0 note=93 velocity=0 time=40
note_on channel=0 note=81 velocity=85 time=0
note_on channel=0 note=81 velocity=0 time=0
note_on channel=0 note=94 velocity=105 time=0
note_on channel=0 note=82 velocity=89 time=0
note_on channel=0 note=46 velocity=69 time=0
note_on channel=0 note=58 velocity=82 time=0
note_on channel=0 note=50 velocity=69 time=0
note_on channel=0 note=53 velocity=69 time=0
note_on channel=0 note=53 velocity=0 time=26
note_on channel=0 note=82 velocity=0 time=0
note_on channel=0 note=46 velocity=0 time=0
note_on channel=0 note=94 velocity=0 time=0
note_on channel=0 note=50 velocity=0 time=0
note_on channel=0 note=58 velocity=0 time=0
note_on channel=0 note=77 velocity=75 time=240
note_on channel=0 note=74 velocity=75 time=0
note_on channel=0 note=82 velocity=90 time=0
note_on channel=0 note=46 velocity=69 time=0
note_on channel=0 note=50 velocity=69 time=0
note_on channel=0 note=58 velocity=82 time=0
note_on channel=0 note=53 velocity=69 time=0
note_on channel=0 note=53 velocity=0 time=53
note_on channel=0 note=50 velocity=0 time=0
note_on channel=0 note=74 velocity=0 time=0
note_on channel=0 note=82 velocity=0 time=0
note_on channel=0 note=77 velocity=0 time=0
note_on channel=0 note=58 velocity=0 time=0
note_on channel=0 note=46 velocity=0 time=0
note_on channel=0 note=62 velocity=74 time=240
note_on channel=0 note=70 velocity=89 time=0
note_on channel=0 note=65 velocity=74 time=0
note_on channel=0 note=53 velocity=69 time=0
note_on channel=0 note=58 velocity=82 time=0
note_on channel=0 note=50 velocity=69 time=0
note_on channel=0 note=46 velocity=69 time=0
note_on channel=0 note=46 velocity=0 time=413
note_on channel=0 note=58 velocity=0 time=0
note_on channel=0 note=70 velocity=0 time=0
note_on channel=0 note=65 velocity=0 time=0
note_on channel=0 note=62 velocity=0 time=0
note_on channel=0 note=50 velocity=0 time=0
note_on channel=0 note=53 velocity=0 time=0
note_on channel=0 note=82 velocity=45 time=720
note_on channel=0 note=82 velocity=0 time=0
note_on channel=0 note=82 velocity=45 time=0
note_on channel=0 note=63 velocity=34 time=0
note_on channel=0 note=67 velocity=34 time=0
note_on channel=0 note=70 velocity=40 time=0
note_on channel=0 note=82 velocity=0 time=190
note_on channel=0 note=79 velocity=45 time=0
note_on channel=0 note=79 velocity=0 time=240
note_on channel=0 note=70 velocity=0 time=0
note_on channel=0 note=67 velocity=0 time=0
note_on channel=0 note=63 velocity=0 time=0
note_on channel=0 note=75 velocity=39 time=0
note_on channel=0 note=75 velocity=0 time=88
note_on channel=0 note=74 velocity=45 time=0
note_on channel=0 note=65 velocity=28 time=0
note_on channel=0 note=68 velocity=28 time=0
note_on channel=0 note=58 velocity=28 time=0
note_on channel=0 note=70 velocity=34 time=0
note_on channel=0 note=74 velocity=0 time=169
note_on channel=0 note=77 velocity=40 time=0
note_on channel=0 note=77 velocity=0 time=0
note_on channel=0 note=70 velocity=0 time=0
note_on channel=0 note=65 velocity=0 time=0
note_on channel=0 note=68 velocity=0 time=0
note_on channel=0 note=58 velocity=0 time=0
note_on channel=0 note=82 velocity=40 time=0
note_on channel=0 note=82 velocity=0 time=49
note_on channel=0 note=82 velocity=45 time=0
note_on channel=0 note=63 velocity=34 time=0
note_on channel=0 note=70 velocity=40 time=0
note_on channel=0 note=67 velocity=34 time=0
note_on channel=0 note=82 velocity=0 time=173
note_on channel=0 note=79 velocity=41 time=0
note_on channel=0 note=79 velocity=0 time=240
note_on channel=0 note=67 velocity=0 time=0
note_on channel=0 note=70 velocity=0 time=0
note_on channel=0 note=63 velocity=0 time=0
note_on channel=0 note=75 velocity=41 time=0
note_on channel=0 note=75 velocity=0 time=10
note_on channel=0 note=75 velocity=45 time=60
note_on channel=0 note=75 velocity=0 time=162
note_on channel=0 note=79 velocity=39 time=0
note_on channel=0 note=79 velocity=0 time=0
note_on channel=0 note=84 velocity=51 time=0
note_on channel=0 note=64 velocity=28 time=0
note_on channel=0 note=67 velocity=28 time=0
note_on channel=0 note=70 velocity=28 time=0
note_on channel=0 note=72 velocity=34 time=0
note_on channel=0 note=72 velocity=0 time=170
note_on channel=0 note=67 velocity=0 time=0
note_on channel=0 note=84 velocity=0 time=0
note_on channel=0 note=64 velocity=0 time=0
note_on channel=0 note=70 velocity=0 time=0
note_on channel=0 note=84 velocity=57 time=0
note_on channel=0 note=68 velocity=34 time=0
note_on channel=0 note=65 velocity=34 time=0
note_on channel=0 note=72 velocity=40 time=0
note_on channel=0 note=84 velocity=0 time=134
note_on channel=0 note=80 velocity=45 time=0
note_on channel=0 note=80 velocity=0 time=240
note_on channel=0 note=72 velocity=0 time=0
note_on channel=0 note=65 velocity=0 time=0
note_on channel=0 note=68 velocity=0 time=0
note_on channel=0 note=77 velocity=45 time=0
note_on channel=0 note=77 velocity=0 time=81
note_on channel=0 note=76 velocity=49 time=0
note_on channel=0 note=72 velocity=34 time=0
note_on channel=0 note=70 velocity=28 time=0
note_on channel=0 note=60 velocity=28 time=0
note_on channel=0 note=67 velocity=28 time=0
note_on channel=0 note=76 velocity=0 time=183
note_on channel=0 note=79 velocity=44 time=0
note_on channel=0 note=79 velocity=0 time=0
note_on channel=0 note=67 velocity=0 time=0
note_on channel=0 note=72 velocity=0 time=0
note_on channel=0 note=70 velocity=0 time=0
note_on channel=0 note=60 velocity=0 time=0
note_on channel=0 note=84 velocity=51 time=0
note_on channel=0 note=84 velocity=0 time=42
note_on channel=0 note=84 velocity=60 time=0
note_on channel=0 note=65 velocity=34 time=0
note_on channel=0 note=68 velocity=34 time=0
note_on channel=0 note=72 velocity=40 time=0
note_on channel=0 note=84 velocity=0 time=148
note_on channel=0 note=80 velocity=45 time=0
note_on channel=0 note=80 velocity=0 time=240
note_on channel=0 note=72 velocity=0 time=0
note_on channel=0 note=68 velocity=0 time=0
note_on channel=0 note=65 velocity=0 time=0
note_on channel=0 note=77 velocity=45 time=0
note_on channel=0 note=77 velocity=0 time=240
note_on channel=0 note=74 velocity=51 time=0
note_on channel=0 note=74 velocity=0 time=137
note_on channel=0 note=77 velocity=45 time=0
note_on channel=0 note=77 velocity=0 time=0
note_on channel=0 note=82 velocity=45 time=0
note_on channel=0 note=65 velocity=31 time=0
note_on channel=0 note=62 velocity=31 time=0
note_on channel=0 note=68 velocity=31 time=0
note_on channel=0 note=70 velocity=37 time=0
note_on channel=0 note=70 velocity=0 time=92
note_on channel=0 note=62 velocity=0 time=0
note_on channel=0 note=82 velocity=0 time=0
note_on channel=0 note=65 velocity=0 time=0
note_on channel=0 note=68 velocity=0 time=0
note_on channel=0 note=82 velocity=50 time=0
note_on channel=0 note=67 velocity=33 time=0
note_on channel=0 note=70 velocity=39 time=0
note_on channel=0 note=63 velocity=33 time=0
note_on channel=0 note=82 velocity=0 time=152
note_on channel=0 note=79 velocity=43 time=0
note_on channel=0 note=79 velocity=0 time=240
note_on channel=0 note=63 velocity=0 time=0
note_on channel=0 note=70 velocity=0 time=0
note_on channel=0 note=67 velocity=0 time=0
note_on channel=0 note=75 velocity=43 time=0
note_on channel=0 note=75 velocity=0 time=240
note_on channel=0 note=72 velocity=45 time=0
note_on channel=0 note=56 velocity=29 time=0
note_on channel=0 note=60 velocity=29 time=0
note_on channel=0 note=65 velocity=35 time=0
note_on channel=0 note=72 velocity=0 time=159
note_on channel=0 note=77 velocity=41 time=0
note_on channel=0 note=77 velocity=0 time=0
note_on channel=0 note=65 velocity=0 time=0
note_on channel=0 note=60 velocity=0 time=0
note_on channel=0 note=56 velocity=0 time=0
note_on channel=0 note=80 velocity=41 time=0
note_on channel=0 note=80 velocity=0 time=46
note_on channel=0 note=70 velocity=47 time=0
note_on channel=0 note=63 velocity=35 time=0
note_on channel=0 note=58 velocity=35 time=0
note_on channel=0 note=67 velocity=42 time=0
note_on channel=0 note=70 velocity=0 time=166
note_on channel=0 note=75 velocity=43 time=0
note_on channel=0 note=75 velocity=0 time=0
note_on channel=0 note=67 velocity=0 time=0
note_on channel=0 note=58 velocity=0 time=0
note_on channel=0 note=63 velocity=0 time=0
note_on channel=0 note=79 velocity=43 time=0
note_on channel=0 note=79 velocity=0 time=42
note_on channel=0 note=68 velocity=48 time=0
note_on channel=0 note=58 velocity=33 time=0
note_on channel=0 note=65 velocity=39 time=0
note_on channel=0 note=62 velocity=33 time=0
note_on channel=0 note=68 velocity=0 time=148
note_on channel=0 note=74 velocity=43 time=0
note_on channel=0 note=74 velocity=0 time=0
note_on channel=0 note=62 velocity=0 time=0
note_on channel=0 note=65 velocity=0 time=0
note_on channel=0 note=58 velocity=0 time=0
note_on channel=0 note=77 velocity=43 time=0
note_on channel=0 note=68 velocity=43 time=0
note_on channel=0 note=58 velocity=39 time=0
note_on channel=0 note=58 velocity=0 time=49
note_on channel=0 note=68 velocity=0 time=0
note_on channel=0 note=77 velocity=0 time=0
note_on channel=0 note=75 velocity=49 time=0
note_on channel=0 note=67 velocity=49 time=0
note_on channel=0 note=58 velocity=49 time=0
note_on channel=0 note=58 velocity=0 time=204
note_on channel=0 note=67 velocity=0 time=0
note_on channel=0 note=75 velocity=0 time=0
note_on channel=0 note=55 velocity=49 time=0
note_on channel=0 note=55 velocity=0 time=240
note_on channel=0 note=79 velocity=49 time=0
note_on channel=0 note=51 velocity=42 time=0
note_on channel=0 note=51 velocity=0 time=0
note_on channel=0 note=79 velocity=0 time=0
note_on channel=0 note=80 velocity=49 time=0
note_on channel=0 note=50 velocity=49 time=0
note_on channel=0 note=80 velocity=0 time=35
note_on channel=0 note=79 velocity=45 time=0
note_on channel=0 note=79 velocity=0 time=120
note_on channel=0 note=50 velocity=0 time=0
note_on channel=0 note=80 velocity=49 time=0
note_on channel=0 note=53 velocity=45 time=0
note_on channel=0 note=80 velocity=0 time=120
note_on channel=0 note=77 velocity=44 time=0
note_on channel=0 note=77 velocity=0 time=0
note_on channel=0 note=53 velocity=0 time=0
note_on channel=0 note=82 velocity=49 time=0
note_on channel=0 note=58 velocity=45 time=0
note_on channel=0 note=82 velocity=0 time=0
note_on channel=0 note=80 velocity=44 time=0
note_on channel=0 note=58 velocity=0 time=60
note_on channel=0 note=80 velocity=0 time=0
note_on channel=0 note=79 velocity=67 time=0
note_on channel=0 note=58 velocity=51 time=0
note_on channel=0 note=58 velocity=0 time=0
note_on channel=0 note=79 velocity=0 time=0
note_on channel=0 note=94 velocity=62 time=0
note_on channel=0 note=55 velocity=47 time=0
note_on channel=0 note=55 velocity=0 time=240
note_on channel=0 note=94 velocity=0 time=0
note_on channel=0 note=51 velocity=47 time=0
note_on channel=0 note=51 velocity=0 time=56
note_on channel=0 note=51 velocity=52 time=60
note_on channel=0 note=51 velocity=0 time=240
note_on channel=0 note=55 velocity=46 time=0
note_on channel=0 note=55 velocity=0 time=0
note_on channel=0 note=67 velocity=49 time=0
note_on channel=0 note=52 velocity=49 time=0
note_on channel=0 note=60 velocity=60 time=0
note_on channel=0 note=60 velocity=0 time=28
note_on channel=0 note=52 velocity=0 time=0
note_on channel=0 note=67 velocity=0 time=0
note_on channel=0 note=60 velocity=66 time=0
note_on channel=0 note=53 velocity=53 time=0
note_on channel=0 note=53 velocity=0 time=194
note_on channel=0 note=60 velocity=0 time=0
note_on channel=0 note=56 velocity=53 time=0
note_on channel=0 note=56 velocity=0 time=240
note_on channel=0 note=68 velocity=49 time=0
note_on channel=0 note=53 velocity=53 time=0
note_on channel=0 note=53 velocity=0 time=0
note_on channel=0 note=68 velocity=0 time=0
note_on channel=0 note=70 velocity=51 time=0
note_on channel=0 note=52 velocity=59 time=0
note_on channel=0 note=70 velocity=0 time=32
note_on channel=0 note=68 velocity=41 time=0
note_on channel=0 note=68 velocity=0 time=120
note_on channel=0 note=52 velocity=0 time=0
note_on channel=0 note=70 velocity=49 time=0
note_on channel=0 note=55 velocity=53 time=0
note_on channel=0 note=70 velocity=0 time=120
note_on channel=0 note=67 velocity=42 time=0
note_on channel=0 note=67 velocity=0 time=0
note_on channel=0 note=55 velocity=0 time=0
note_on channel=0 note=72 velocity=49 time=0
note_on channel=0 note=60 velocity=58 time=0
note_on channel=0 note=72 velocity=0 time=0
note_on channel=0 note=70 velocity=47 time=0
note_on channel=0 note=60 velocity=0 time=60
note_on channel=0 note=70 velocity=0 time=0
note_on channel=0 note=68 velocity=69 time=0
note_on channel=0 note=60 velocity=70 time=0
note_on channel=0 note=60 velocity=0 time=197
note_on channel=0 note=68 velocity=0 time=0
note_on channel=0 note=84 velocity=61 time=0
note_on channel=0 note=56 velocity=56 time=0
note_on channel=0 note=56 velocity=0 time=240
note_on channel=0 note=84 velocity=0 time=0
note_on channel=0 note=53 velocity=57 time=0
note_on channel=0 note=53 velocity=0 time=240
note_on channel=0 note=50 velocity=64 time=0
note_on channel=0 note=50 velocity=0 time=137
note_on channel=0 note=53 velocity=58 time=0
note_on channel=0 note=53 velocity=0 time=0
note_on channel=0 note=77 velocity=55 time=0
note_on channel=0 note=50 velocity=53 time=0
note_on channel=0 note=58 velocity=63 time=0
note_on channel=0 note=58 velocity=0 time=28
note_on channel=0 note=50 velocity=0 time=0
note_on channel=0 note=77 velocity=0 time=0
note_on channel=0 note=58 velocity=72 time=0
note_on channel=0 note=51 velocity=61 time=0
note_on channel=0 note=51 velocity=0 time=176
note_on channel=0 note=58 velocity=0 time=0
note_on channel=0 note=55 velocity=56 time=0
note_on channel=0 note=55 velocity=0 time=240
note_on channel=0 note=79 velocity=53 time=0
note_on channel=0 note=51 velocity=57 time=0
note_on channel=0 note=51 velocity=0 time=0
note_on channel=0 note=79 velocity=0 time=0
note_on channel=0 note=80 velocity=53 time=0
note_on channel=0 note=44 velocity=50 time=0
note_on channel=0 note=48 velocity=59 time=0
note_on channel=0 note=80 velocity=0 time=35
note_on channel=0 note=79 velocity=49 time=0
note_on channel=0 note=79 velocity=0 time=0
note_on channel=0 note=48 velocity=0 time=0
note_on channel=0 note=44 velocity=0 time=0
note_on channel=0 note=80 velocity=55 time=0
note_on channel=0 note=53 velocity=55 time=0
note_on channel=0 note=80 velocity=0 time=120
note_on channel=0 note=77 velocity=49 time=0
note_on channel=0 note=77 velocity=0 time=0
note_on channel=0 note=53 velocity=0 time=0
note_on channel=0 note=92 velocity=74 time=0
note_on channel=0 note=56 velocity=55 time=0
note_on channel=0 note=56 velocity=0 time=35
note_on channel=0 note=92 velocity=0 time=0
note_on channel=0 note=46 velocity=61 time=0
note_on channel=0 note=46 velocity=0 time=201
note_on channel=0 note=51 velocity=56 time=0
note_on channel=0 note=51 velocity=0 time=0
note_on channel=0 note=75 velocity=49 time=0
note_on channel=0 note=55 velocity=56 time=0
note_on channel=0 note=55 velocity=0 time=46
note_on channel=0 note=75 velocity=0 time=0
note_on channel=0 note=77 velocity=57 time=0
note_on channel=0 note=46 velocity=62 time=0
note_on channel=0 note=77 velocity=0 time=84
note_on channel=0 note=75 velocity=49 time=0
note_on channel=0 note=75 velocity=0 time=0
note_on channel=0 note=46 velocity=0 time=0
note_on channel=0 note=77 velocity=56 time=0
note_on channel=0 note=50 velocity=56 time=0
note_on channel=0 note=77 velocity=0 time=120
note_on channel=0 note=74 velocity=49 time=0
note_on channel=0 note=74 velocity=0 time=0
note_on channel=0 note=50 velocity=0 time=0
note_on channel=0 note=89 velocity=72 time=0
note_on channel=0 note=58 velocity=56 time=0
note_on channel=0 note=46 velocity=56 time=0
note_on channel=0 note=46 velocity=0 time=35
note_on channel=0 note=58 velocity=0 time=0
note_on channel=0 note=89 velocity=0 time=0
note_on channel=0 note=67 velocity=81 time=0
note_on channel=0 note=46 velocity=63 time=0
note_on channel=0 note=67 velocity=0 time=53
note_on channel=0 note=79 velocity=60 time=0
note_on channel=0 note=79 velocity=0 time=120
note_on channel=0 note=46 velocity=0 time=0
note_on channel=0 note=67 velocity=69 time=0
note_on channel=0 note=43 velocity=63 time=0
note_on channel=0 note=67 velocity=0 time=120
note_on channel=0 note=79 velocity=59 time=0
note_on channel=0 note=79 velocity=0 time=120
note_on channel=0 note=43 velocity=0 time=0
note_on channel=0 note=70 velocity=67 time=0
note_on channel=0 note=39 velocity=55 time=0
note_on channel=0 note=70 velocity=0 time=120
note_on channel=0 note=82 velocity=59 time=0
note_on channel=0 note=82 velocity=0 time=0
note_on channel=0 note=39 velocity=0 time=0
note_on channel=0 note=70 velocity=77 time=0
note_on channel=0 note=38 velocity=63 time=0
note_on channel=0 note=70 velocity=0 time=32
note_on channel=0 note=82 velocity=57 time=0
note_on channel=0 note=82 velocity=0 time=120
note_on channel=0 note=38 velocity=0 time=0
note_on channel=0 note=70 velocity=63 time=0
note_on channel=0 note=41 velocity=57 time=0
note_on channel=0 note=70 velocity=0 time=120
note_on channel=0 note=82 velocity=56 time=0
note_on channel=0 note=82 velocity=0 time=0
note_on channel=0 note=41 velocity=0 time=0
note_on channel=0 note=68 velocity=63 time=0
note_on channel=0 note=46 velocity=57 time=0
note_on channel=0 note=68 velocity=0 time=0
note_on channel=0 note=80 velocity=56 time=0
note_on channel=0 note=46 velocity=0 time=60
note_on channel=0 note=80 velocity=0 time=0
note_on channel=0 note=67 velocity=73 time=0
note_on channel=0 note=46 velocity=63 time=0
note_on channel=0 note=67 velocity=0 time=39
note_on channel=0 note=79 velocity=60 time=0
note_on channel=0 note=79 velocity=0 time=120
note_on channel=0 note=46 velocity=0 time=0
note_on channel=0 note=67 velocity=66 time=0
note_on channel=0 note=43 velocity=58 time=0
note_on channel=0 note=67 velocity=0 time=120
note_on channel=0 note=79 velocity=60 time=0
note_on channel=0 note=79 velocity=0 time=0
note_on channel=0 note=43 velocity=0 time=0
note_on channel=0 note=70 velocity=66 time=0
note_on channel=0 note=39 velocity=58 time=0
note_on channel=0 note=70 velocity=0 time=120
note_on channel=0 note=82 velocity=59 time=0
note_on channel=0 note=39 velocity=0 time=60
note_on channel=0 note=82 velocity=0 time=60
note_on channel=0 note=70 velocity=73 time=0
note_on channel=0 note=39 velocity=63 time=0
note_on channel=0 note=70 velocity=0 time=56
note_on channel=0 note=82 velocity=60 time=0
note_on channel=0 note=82 velocity=0 time=120
note_on channel=0 note=39 velocity=0 time=0
note_on channel=0 note=70 velocity=63 time=0
note_on channel=0 note=43 velocity=55 time=0
note_on channel=0 note=70 velocity=0 time=120
note_on channel=0 note=82 velocity=55 time=0
note_on channel=0 note=82 velocity=0 time=0
note_on channel=0 note=43 velocity=0 time=0
note_on channel=0 note=67 velocity=66 time=0
note_on channel=0 note=40 velocity=58 time=0
note_on channel=0 note=48 velocity=70 time=0
note_on channel=0 note=67 velocity=0 time=56
note_on channel=0 note=79 velocity=60 time=0
note_on channel=0 note=48 velocity=0 time=60
note_on channel=0 note=40 velocity=0 time=0
note_on channel=0 note=79 velocity=0 time=0
note_on channel=0 note=68 velocity=73 time=0
note_on channel=0 note=48 velocity=78 time=0
note_on channel=0 note=41 velocity=63 time=0
note_on channel=0 note=68 velocity=0 time=60
note_on channel=0 note=80 velocity=53 time=0
note_on channel=0 note=80 velocity=0 time=120
note_on channel=0 note=41 velocity=0 time=0
note_on channel=0 note=48 velocity=0 time=0
note_on channel=0 note=68 velocity=61 time=0
note_on channel=0 note=44 velocity=63 time=0
note_on channel=0 note=68 velocity=0 time=120
note_on channel=0 note=80 velocity=53 time=0
note_on channel=0 note=80 velocity=0 time=120
note_on channel=0 note=44 velocity=0 time=0
note_on channel=0 note=72 velocity=61 time=0
note_on channel=0 note=41 velocity=63 time=0
note_on channel=0 note=72 velocity=0 time=120
note_on channel=0 note=84 velocity=56 time=0
note_on channel=0 note=84 velocity=0 time=0
note_on channel=0 note=41 velocity=0 time=0
note_on channel=0 note=72 velocity=73 time=0
note_on channel=0 note=40 velocity=69 time=0
note_on channel=0 note=72 velocity=0 time=56
note_on channel=0 note=84 velocity=53 time=0
note_on channel=0 note=84 velocity=0 time=120
note_on channel=0 note=40 velocity=0 time=0
note_on channel=0 note=72 velocity=61 time=0
note_on channel=0 note=43 velocity=62 time=0
note_on channel=0 note=72 velocity=0 time=120
note_on channel=0 note=84 velocity=55 time=0
note_on channel=0 note=84 velocity=0 time=0
note_on channel=0 note=43 velocity=0 time=0
note_on channel=0 note=70 velocity=61 time=0
note_on channel=0 note=48 velocity=73 time=0
note_on channel=0 note=70 velocity=0 time=0
note_on channel=0 note=82 velocity=53 time=0
note_on channel=0 note=48 velocity=0 time=60
note_on channel=0 note=82 velocity=0 time=0
note_on channel=0 note=68 velocity=73 time=0
note_on channel=0 note=48 velocity=86 time=0
note_on channel=0 note=68 velocity=0 time=46
note_on channel=0 note=80 velocity=55 time=0
note_on channel=0 note=80 velocity=0 time=120
note_on channel=0 note=48 velocity=0 time=0
note_on channel=0 note=68 velocity=61 time=0
note_on channel=0 note=44 velocity=63 time=0
note_on channel=0 note=68 velocity=0 time=120
note_on channel=0 note=80 velocity=55 time=0
note_on channel=0 note=80 velocity=0 time=120
note_on channel=0 note=44 velocity=0 time=0
note_on channel=0 note=72 velocity=61 time=0
note_on channel=0 note=41 velocity=63 time=0
note_on channel=0 note=72 velocity=0 time=120
note_on channel=0 note=84 velocity=55 time=0
note_on channel=0 note=84 velocity=0 time=0
note_on channel=0 note=41 velocity=0 time=0
note_on channel=0 note=72 velocity=73 time=0
note_on channel=0 note=38 velocity=72 time=0
note_on channel=0 note=72 velocity=0 time=39
note_on channel=0 note=84 velocity=52 time=0
note_on channel=0 note=84 velocity=0 time=120
note_on channel=0 note=38 velocity=0 time=0
note_on channel=0 note=70 velocity=59 time=0
note_on channel=0 note=41 velocity=63 time=0
note_on channel=0 note=70 velocity=0 time=120
note_on channel=0 note=82 velocity=52 time=0
note_on channel=0 note=82 velocity=0 time=0
note_on channel=0 note=41 velocity=0 time=0
note_on channel=0 note=68 velocity=59 time=0
note_on channel=0 note=38 velocity=58 time=0
note_on channel=0 note=46 velocity=69 time=0
note_on channel=0 note=68 velocity=0 time=120
note_on channel=0 note=80 velocity=53 time=0
note_on channel=0 note=46 velocity=0 time=60
note_on channel=0 note=38 velocity=0 time=0
note_on channel=0 note=80 velocity=0 time=0
note_on channel=0 note=67 velocity=73 time=0
note_on channel=0 note=39 velocity=66 time=0
note_on channel=0 note=46 velocity=78 time=0
note_on channel=0 note=67 velocity=0 time=56
note_on channel=0 note=79 velocity=53 time=0
note_on channel=0 note=79 velocity=0 time=120
note_on channel=0 note=46 velocity=0 time=0
note_on channel=0 note=39 velocity=0 time=0
note_on channel=0 note=70 velocity=61 time=0
note_on channel=0 note=43 velocity=60 time=0
note_on channel=0 note=70 velocity=0 time=120
note_on channel=0 note=82 velocity=55 time=0
note_on channel=0 note=82 velocity=0 time=120
note_on channel=0 note=43 velocity=0 time=0
note_on channel=0 note=75 velocity=61 time=0
note_on channel=0 note=39 velocity=60 time=0
note_on channel=0 note=75 velocity=0 time=120
note_on channel=0 note=87 velocity=55 time=0
note_on channel=0 note=87 velocity=0 time=0
note_on channel=0 note=39 velocity=0 time=0
note_on channel=0 note=75 velocity=73 time=0
note_on channel=0 note=32 velocity=53 time=0
note_on channel=0 note=36 velocity=63 time=0
note_on channel=0 note=75 velocity=0 time=28
note_on channel=0 note=87 velocity=53 time=0
note_on channel=0 note=87 velocity=0 time=120
note_on channel=0 note=36 velocity=0 time=0
note_on channel=0 note=72 velocity=60 time=0
note_on channel=0 note=41 velocity=58 time=0
note_on channel=0 note=72 velocity=0 time=120
note_on channel=0 note=84 velocity=53 time=0
note_on channel=0 note=84 velocity=0 time=0
note_on channel=0 note=41 velocity=0 time=0
note_on channel=0 note=32 velocity=0 time=0
note_on channel=0 note=68 velocity=60 time=0
note_on channel=0 note=44 velocity=63 time=0
note_on channel=0 note=68 velocity=0 time=120
note_on channel=0 note=80 velocity=53 time=0
note_on channel=0 note=44 velocity=0 time=60
note_on channel=0 note=80 velocity=0 time=0
note_on channel=0 note=75 velocity=73 time=0
note_on channel=0 note=34 velocity=69 time=0
note_on channel=0 note=75 velocity=0 time=77
note_on channel=0 note=87 velocity=56 time=0
note_on channel=0 note=87 velocity=0 time=120
note_on channel=0 note=34 velocity=0 time=0
note_on channel=0 note=70 velocity=62 time=0
note_on channel=0 note=39 velocity=58 time=0
note_on channel=0 note=70 velocity=0 time=120
note_on channel=0 note=82 velocity=55 time=0
note_on channel=0 note=82 velocity=0 time=0
note_on channel=0 note=39 velocity=0 time=0
note_on channel=0 note=67 velocity=62 time=0
note_on channel=0 note=43 velocity=58 time=0
note_on channel=0 note=67 velocity=0 time=120
note_on channel=0 note=79 velocity=55 time=0
note_on channel=0 note=43 velocity=0 time=60
note_on channel=0 note=79 velocity=0 time=0
note_on channel=0 note=70 velocity=73 time=0
note_on channel=0 note=34 velocity=63 time=0
note_on channel=0 note=70 velocity=0 time=35
note_on channel=0 note=82 velocity=56 time=0
note_on channel=0 note=82 velocity=0 time=120
note_on channel=0 note=34 velocity=0 time=0
note_on channel=0 note=68 velocity=64 time=0
note_on channel=0 note=41 velocity=57 time=0
note_on channel=0 note=68 velocity=0 time=120
note_on channel=0 note=80 velocity=57 time=0
note_on channel=0 note=80 velocity=0 time=0
note_on channel=0 note=41 velocity=0 time=0
note_on channel=0 note=65 velocity=64 time=0
note_on channel=0 note=46 velocity=57 time=0
note_on channel=0 note=65 velocity=0 time=120
note_on channel=0 note=77 velocity=58 time=0
note_on channel=0 note=46 velocity=0 time=60
note_on channel=0 note=77 velocity=0 time=60
note_on channel=0 note=55 velocity=78 time=0
note_on channel=0 note=39 velocity=73 time=0
note_on channel=0 note=39 velocity=0 time=53
note_on channel=0 note=55 velocity=0 time=0
note_on channel=0 note=63 velocity=64 time=0
note_on channel=0 note=63 velocity=0 time=0
note_on channel=0 note=58 velocity=72 time=0
note_on channel=0 note=55 velocity=62 time=0
note_on channel=0 note=51 velocity=49 time=0
note_on channel=0 note=51 velocity=0 time=120
note_on channel=0 note=55 velocity=0 time=0
note_on channel=0 note=58 velocity=0 time=0
note_on channel=0 note=67 velocity=64 time=0
note_on channel=0 note=67 velocity=0 time=120
note_on channel=0 note=63 velocity=74 time=0
note_on channel=0 note=58 velocity=62 time=0
note_on channel=0 note=51 velocity=49 time=0
note_on channel=0 note=55 velocity=49 time=0
note_on channel=0 note=55 velocity=0 time=120
note_on channel=0 note=63 velocity=0 time=0
note_on channel=0 note=58 velocity=0 time=0
note_on channel=0 note=51 velocity=0 time=0
note_on channel=0 note=70 velocity=64 time=0
note_on channel=0 note=70 velocity=0 time=0
note_on channel=0 note=67 velocity=79 time=0
note_on channel=0 note=55 velocity=49 time=0
note_on channel=0 note=63 velocity=62 time=0
note_on channel=0 note=58 velocity=49 time=0
note_on channel=0 note=51 velocity=49 time=0
note_on channel=0 note=51 velocity=0 time=120
note_on channel=0 note=63 velocity=0 time=0
note_on channel=0 note=67 velocity=0 time=0
note_on channel=0 note=55 velocity=0 time=0
note_on channel=0 note=58 velocity=0 time=0
note_on channel=0 note=75 velocity=64 time=0
note_on channel=0 note=75 velocity=0 time=120
note_on channel=0 note=70 velocity=70 time=0
note_on channel=0 note=51 velocity=49 time=0
note_on channel=0 note=63 velocity=62 time=0
note_on channel=0 note=58 velocity=49 time=0
note_on channel=0 note=55 velocity=49 time=0
note_on channel=0 note=55 velocity=0 time=120
note_on channel=0 note=63 velocity=0 time=0
note_on channel=0 note=70 velocity=0 time=0
note_on channel=0 note=51 velocity=0 time=0
note_on channel=0 note=58 velocity=0 time=0
note_on channel=0 note=79 velocity=64 time=0
note_on channel=0 note=79 velocity=0 time=120
note_on channel=0 note=75 velocity=71 time=0
note_on channel=0 note=58 velocity=49 time=0
note_on channel=0 note=63 velocity=62 time=0
note_on channel=0 note=51 velocity=49 time=0
note_on channel=0 note=55 velocity=49 time=0
note_on channel=0 note=55 velocity=0 time=120
note_on channel=0 note=63 velocity=0 time=0
note_on channel=0 note=75 velocity=0 time=0
note_on channel=0 note=58 velocity=0 time=0
note_on channel=0 note=51 velocity=0 time=0
note_on channel=0 note=82 velocity=64 time=0
note_on channel=0 note=82 velocity=0 time=0
note_on channel=0 note=79 velocity=79 time=0
note_on channel=0 note=63 velocity=70 time=0
note_on channel=0 note=55 velocity=56 time=0
note_on channel=0 note=58 velocity=56 time=0
note_on channel=0 note=51 velocity=56 time=0
note_on channel=0 note=51 velocity=0 time=120
note_on channel=0 note=55 velocity=0 time=0
note_on channel=0 note=79 velocity=0 time=0
note_on channel=0 note=63 velocity=0 time=0
note_on channel=0 note=58 velocity=0 time=0
note_on channel=0 note=87 velocity=64 time=0
note_on channel=0 note=87 velocity=0 time=120
note_on channel=0 note=82 velocity=70 time=0
note_on channel=0 note=58 velocity=49 time=0
note_on channel=0 note=63 velocity=62 time=0
note_on channel=0 note=51 velocity=49 time=0
note_on channel=0 note=55 velocity=49 time=0
note_on channel=0 note=55 velocity=0 time=120
note_on channel=0 note=63 velocity=0 time=0
note_on channel=0 note=82 velocity=0 time=0
note_on channel=0 note=58 velocity=0 time=0
note_on channel=0 note=51 velocity=0 time=0
note_on channel=0 note=91 velocity=61 time=0
note_on channel=0 note=91 velocity=0 time=120
note_on channel=0 note=87 velocity=69 time=0
note_on channel=0 note=55 velocity=49 time=0
note_on channel=0 note=63 velocity=62 time=0
note_on channel=0 note=58 velocity=49 time=0
note_on channel=0 note=51 velocity=49 time=0
note_on channel=0 note=51 velocity=0 time=120
note_on channel=0 note=63 velocity=0 time=0
note_on channel=0 note=87 velocity=0 time=0
note_on channel=0 note=55 velocity=0 time=0
note_on channel=0 note=58 velocity=0 time=0
note_on channel=0 note=94 velocity=62 time=0
note_on channel=0 note=94 velocity=0 time=0
note_on channel=0 note=93 velocity=73 time=0
note_on channel=0 note=53 velocity=49 time=0
note_on channel=0 note=62 velocity=62 time=0
note_on channel=0 note=56 velocity=49 time=0
note_on channel=0 note=58 velocity=49 time=0
note_on channel=0 note=51 velocity=49 time=0
note_on channel=0 note=51 velocity=0 time=11
note_on channel=0 note=53 velocity=0 time=0
note_on channel=0 note=62 velocity=0 time=0
note_on channel=0 note=93 velocity=0 time=0
note_on channel=0 note=58 velocity=0 time=0
note_on channel=0 note=56 velocity=0 time=0
note_on channel=0 note=94 velocity=66 time=0
note_on channel=0 note=94 velocity=0 time=120
note_on channel=0 note=93 velocity=70 time=0
note_on channel=0 note=53 velocity=49 time=0
note_on channel=0 note=62 velocity=62 time=0
note_on channel=0 note=58 velocity=49 time=0
note_on channel=0 note=56 velocity=49 time=0
note_on channel=0 note=51 velocity=49 time=0
note_on channel=0 note=51 velocity=0 time=17
note_on channel=0 note=53 velocity=0 time=0
note_on channel=0 note=62 velocity=0 time=0
note_on channel=0 note=93 velocity=0 time=0
note_on channel=0 note=56 velocity=0 time=0
note_on channel=0 note=58 velocity=0 time=0
note_on channel=0 note=94 velocity=64 time=0
note_on channel=0 note=94 velocity=0 time=120
note_on channel=0 note=93 velocity=69 time=0
note_on channel=0 note=53 velocity=49 time=0
note_on channel=0 note=62 velocity=62 time=0
note_on channel=0 note=58 velocity=49 time=0
note_on channel=0 note=56 velocity=49 time=0
note_on channel=0 note=51 velocity=49 time=0
note_on channel=0 note=51 velocity=0 time=0
note_on channel=0 note=53 velocity=0 time=0
note_on channel=0 note=62 velocity=0 time=0
note_on channel=0 note=93 velocity=0 time=0
note_on channel=0 note=56 velocity=0 time=0
note_on channel=0 note=58 velocity=0 time=0
note_on channel=0 note=94 velocity=64 time=0
note_on channel=0 note=94 velocity=0 time=0
note_on channel=0 note=96 velocity=77 time=0
note_on channel=0 note=51 velocity=57 time=0
note_on channel=0 note=63 velocity=72 time=0
note_on channel=0 note=58 velocity=57 time=0
note_on channel=0 note=55 velocity=57 time=0
note_on channel=0 note=55 velocity=0 time=28
note_on channel=0 note=63 velocity=0 time=0
note_on channel=0 note=96 velocity=0 time=0
note_on channel=0 note=51 velocity=0 time=0
note_on channel=0 note=58 velocity=0 time=0
note_on channel=0 note=94 velocity=77 time=0
note_on channel=0 note=94 velocity=0 time=0
note_on channel=0 note=92 velocity=76 time=0
note_on channel=0 note=58 velocity=49 time=0
note_on channel=0 note=63 velocity=62 time=0
note_on channel=0 note=51 velocity=49 time=0
note_on channel=0 note=55 velocity=49 time=0
note_on channel=0 note=55 velocity=0 time=120
note_on channel=0 note=63 velocity=0 time=0
note_on channel=0 note=92 velocity=0 time=0
note_on channel=0 note=58 velocity=0 time=0
note_on channel=0 note=51 velocity=0 time=0
note_on channel=0 note=91 velocity=75 time=0
note_on channel=0 note=91 velocity=0 time=120
note_on channel=0 note=89 velocity=74 time=0
note_on channel=0 note=63 velocity=62 time=0
note_on channel=0 note=55 velocity=49 time=0
note_on channel=0 note=58 velocity=49 time=0
note_on channel=0 note=51 velocity=49 time=0
note_on channel=0 note=51 velocity=0 time=120
note_on channel=0 note=55 velocity=0 time=0
note_on channel=0 note=89 velocity=0 time=0
note_on channel=0 note=63 velocity=0 time=0
note_on channel=0 note=58 velocity=0 time=0
note_on channel=0 note=87 velocity=74 time=0
note_on channel=0 note=87 velocity=0 time=0
note_on channel=0 note=86 velocity=72 time=0
note_on channel=0 note=58 velocity=49 time=0
note_on channel=0 note=63 velocity=62 time=0
note_on channel=0 note=51 velocity=49 time=0
note_on channel=0 note=55 velocity=49 time=0
note_on channel=0 note=55 velocity=0 time=107
note_on channel=0 note=63 velocity=0 time=0
note_on channel=0 note=86 velocity=0 time=0
note_on channel=0 note=58 velocity=0 time=0
note_on channel=0 note=51 velocity=0 time=0
note_on channel=0 note=84 velocity=65 time=0
note_on channel=0 note=84 velocity=0 time=120
note_on channel=0 note=82 velocity=65 time=0
note_on channel=0 note=55 velocity=49 time=0
note_on channel=0 note=63 velocity=62 time=0
note_on channel=0 note=58 velocity=49 time=0
note_on channel=0 note=51 velocity=49 time=0
note_on channel=0 note=51 velocity=0 time=120
note_on channel=0 note=63 velocity=0 time=0
note_on channel=0 note=82 velocity=0 time=0
note_on channel=0 note=55 velocity=0 time=0
note_on channel=0 note=58 velocity=0 time=0
note_on channel=0 note=80 velocity=65 time=0
note_on channel=0 note=80 velocity=0 time=120
note_on channel=0 note=79 velocity=65 time=0
note_on channel=0 note=51 velocity=49 time=0
note_on channel=0 note=63 velocity=62 time=0
note_on channel=0 note=58 velocity=49 time=0
note_on channel=0 note=55 velocity=49 time=0
note_on channel=0 note=55 velocity=0 time=0
note_on channel=0 note=63 velocity=0 time=0
note_on channel=0 note=79 velocity=0 time=0
note_on channel=0 note=51 velocity=0 time=0
note_on channel=0 note=58 velocity=0 time=0
note_on channel=0 note=77 velocity=65 time=0
note_on channel=0 note=77 velocity=0 time=0
note_on channel=0 note=75 velocity=70 time=0
note_on channel=0 note=58 velocity=55 time=0
note_on channel=0 note=63 velocity=69 time=0
note_on channel=0 note=51 velocity=55 time=0
note_on channel=0 note=55 velocity=55 time=0
note_on channel=0 note=55 velocity=0 time=31
note_on channel=0 note=63 velocity=0 time=0
note_on channel=0 note=75 velocity=0 time=0
note_on channel=0 note=58 velocity=0 time=0
note_on channel=0 note=51 velocity=0 time=0
note_on channel=0 note=74 velocity=69 time=0
note_on channel=0 note=74 velocity=0 time=120
note_on channel=0 note=72 velocity=68 time=0
note_on channel=0 note=63 velocity=61 time=0
note_on channel=0 note=55 velocity=48 time=0
note_on channel=0 note=58 velocity=48 time=0
note_on channel=0 note=51 velocity=48 time=0
note_on channel=0 note=51 velocity=0 time=120
note_on channel=0 note=55 velocity=0 time=0
note_on channel=0 note=72 velocity=0 time=0
note_on channel=0 note=63 velocity=0 time=0
note_on channel=0 note=58 velocity=0 time=0
note_on channel=0 note=70 velocity=68 time=0
note_on channel=0 note=70 velocity=0 time=0
note_on channel=0 note=68 velocity=67 time=0
note_on channel=0 note=58 velocity=48 time=0
note_on channel=0 note=63 velocity=61 time=0
note_on channel=0 note=51 velocity=48 time=0
note_on channel=0 note=55 velocity=48 time=0
note_on channel=0 note=55 velocity=0 time=120
note_on channel=0 note=63 velocity=0 time=0
note_on channel=0 note=68 velocity=0 time=0
note_on channel=0 note=58 velocity=0 time=0
note_on channel=0 note=51 velocity=0 time=0
note_on channel=0 note=67 velocity=66 time=0
note_on channel=0 note=67 velocity=0 time=0
note_on channel=0 note=65 velocity=64 time=0
note_on channel=0 note=53 velocity=48 time=0
note_on channel=0 note=58 velocity=61 time=0
note_on channel=0 note=56 velocity=48 time=0
note_on channel=0 note=51 velocity=48 time=0
note_on channel=0 note=51 velocity=0 time=12
note_on channel=0 note=58 velocity=0 time=0
note_on channel=0 note=65 velocity=0 time=0
note_on channel=0 note=53 velocity=0 time=0
note_on channel=0 note=56 velocity=0 time=0
note_on channel=0 note=63 velocity=59 time=0
note_on channel=0 note=63 velocity=0 time=120
note_on channel=0 note=62 velocity=64 time=0
note_on channel=0 note=51 velocity=48 time=0
note_on channel=0 note=58 velocity=61 time=0
note_on channel=0 note=56 velocity=48 time=0
note_on channel=0 note=53 velocity=48 time=0
note_on channel=0 note=53 velocity=0 time=120
note_on channel=0 note=58 velocity=0 time=0
note_on channel=0 note=62 velocity=0 time=0
note_on channel=0 note=51 velocity=0 time=0
note_on channel=0 note=56 velocity=0 time=0
note_on channel=0 note=65 velocity=60 time=0
note_on channel=0 note=65 velocity=0 time=120
note_on channel=0 note=68 velocity=69 time=0
note_on channel=0 note=56 velocity=48 time=0
note_on channel=0 note=58 velocity=61 time=0
note_on channel=0 note=51 velocity=48 time=0
note_on channel=0 note=53 velocity=48 time=0
note_on channel=0 note=53 velocity=0 time=0
note_on channel=0 note=58 velocity=0 time=0
note_on channel=0 note=68 velocity=0 time=0
note_on channel=0 note=56 velocity=0 time=0
note_on channel=0 note=51 velocity=0 time=0
note_on channel=0 note=62 velocity=63 time=0
note_on channel=0 note=62 velocity=0 time=0
note_on channel=0 note=55 velocity=78 time=0
note_on channel=0 note=39 velocity=73 time=0
note_on channel=0 note=39 velocity=0 time=53
note_on channel=0 note=55 velocity=0 time=0
note_on channel=0 note=63 velocity=64 time=0
note_on channel=0 note=63 velocity=0 time=0
note_on channel=0 note=58 velocity=72 time=0
note_on channel=0 note=51 velocity=49 time=0
note_on channel=0 note=55 velocity=62 time=0
note_on channel=0 note=55 velocity=0 time=120
note_on channel=0 note=51 velocity=0 time=0
note_on channel=0 note=58 velocity=0 time=0
note_on channel=0 note=67 velocity=64 time=0
note_on channel=0 note=67 velocity=0 time=120
note_on channel=0 note=63 velocity=74 time=0
note_on channel=0 note=51 velocity=49 time=0
note_on channel=0 note=58 velocity=62 time=0
note_on channel=0 note=55 velocity=49 time=0
note_on channel=0 note=55 velocity=0 time=120
note_on channel=0 note=63 velocity=0 time=0
note_on channel=0 note=51 velocity=0 time=0
note_on channel=0 note=58 velocity=0 time=0
note_on channel=0 note=70 velocity=64 time=0
note_on channel=0 note=70 velocity=0 time=0
note_on channel=0 note=67 velocity=79 time=0
note_on channel=0 note=58 velocity=49 time=0
note_on channel=0 note=63 velocity=62 time=0
note_on channel=0 note=51 velocity=49 time=0
note_on channel=0 note=55 velocity=49 time=0
note_on channel=0 note=55 velocity=0 time=120
note_on channel=0 note=63 velocity=0 time=0
note_on channel=0 note=67 velocity=0 time=0
note_on channel=0 note=58 velocity=0 time=0
note_on channel=0 note=51 velocity=0 time=0
note_on channel=0 note=75 velocity=64 time=0
note_on channel=0 note=75 velocity=0 time=120
note_on channel=0 note=70 velocity=70 time=0
note_on channel=0 note=63 velocity=62 time=0
note_on channel=0 note=55 velocity=49 time=0
note_on channel=0 note=58 velocity=49 time=0
note_on channel=0 note=51 velocity=49 time=0
note_on channel=0 note=51 velocity=0 time=120
note_on channel=0 note=55 velocity=0 time=0
note_on channel=0 note=70 velocity=0 time=0
note_on channel=0 note=63 velocity=0 time=0
note_on channel=0 note=58 velocity=0 time=0
note_on channel=0 note=79 velocity=64 time=0
note_on channel=0 note=79 velocity=0 time=120
note_on channel=0 note=75 velocity=71 time=0
note_on channel=0 note=58 velocity=49 time=0
note_on channel=0 note=63 velocity=62 time=0
note_on channel=0 note=51 velocity=49 time=0
note_on channel=0 note=55 velocity=49 time=0
note_on channel=0 note=55 velocity=0 time=120
note_on channel=0 note=63 velocity=0 time=0
note_on channel=0 note=75 velocity=0 time=0
note_on channel=0 note=58 velocity=0 time=0
note_on channel=0 note=51 velocity=0 time=0
note_on channel=0 note=82 velocity=64 time=0
note_on channel=0 note=82 velocity=0 time=0
note_on channel=0 note=79 velocity=79 time=0
note_on channel=0 note=55 velocity=56 time=0
note_on channel=0 note=63 velocity=70 time=0
note_on channel=0 note=58 velocity=56 time=0
note_on channel=0 note=51 velocity=56 time=0
note_on channel=0 note=51 velocity=0 time=120
note_on channel=0 note=63 velocity=0 time=0
note_on channel=0 note=79 velocity=0 time=0
note_on channel=0 note=55 velocity=0 time=0
note_on channel=0 note=58 velocity=0 time=0
note_on channel=0 note=87 velocity=64 time=0
note_on channel=0 note=87 velocity=0 time=120
note_on channel=0 note=82 velocity=70 time=0
note_on channel=0 note=58 velocity=49 time=0
note_on channel=0 note=51 velocity=49 time=0
note_on channel=0 note=55 velocity=49 time=0
note_on channel=0 note=63 velocity=62 time=0
note_on channel=0 note=63 velocity=0 time=120
note_on channel=0 note=51 velocity=0 time=0
note_on channel=0 note=82 velocity=0 time=0
note_on channel=0 note=58 velocity=0 time=0
note_on channel=0 note=55 velocity=0 time=0
note_on channel=0 note=91 velocity=61 time=0
note_on channel=0 note=91 velocity=0 time=120
note_on channel=0 note=87 velocity=69 time=0
note_on channel=0 note=55 velocity=49 time=0
note_on channel=0 note=51 velocity=49 time=0
note_on channel=0 note=58 velocity=49 time=0
note_on channel=0 note=63 velocity=62 time=0
note_on channel=0 note=63 velocity=0 time=120
note_on channel=0 note=51 velocity=0 time=0
note_on channel=0 note=87 velocity=0 time=0
note_on channel=0 note=55 velocity=0 time=0
note_on channel=0 note=58 velocity=0 time=0
note_on channel=0 note=94 velocity=62 time=0
note_on channel=0 note=94 velocity=0 time=0
note_on channel=0 note=93 velocity=73 time=0
note_on channel=0 note=62 velocity=62 time=0
note_on channel=0 note=53 velocity=49 time=0
note_on channel=0 note=51 velocity=49 time=0
note_on channel=0 note=58 velocity=49 time=0
note_on channel=0 note=56 velocity=49 time=0
note_on channel=0 note=56 velocity=0 time=11
note_on channel=0 note=62 velocity=0 time=0
note_on channel=0 note=53 velocity=0 time=0
note_on channel=0 note=93 velocity=0 time=0
note_on channel=0 note=58 velocity=0 time=0
note_on channel=0 note=51 velocity=0 time=0
note_on channel=0 note=94 velocity=66 time=0
note_on channel=0 note=94 velocity=0 time=120
note_on channel=0 note=93 velocity=70 time=0
note_on channel=0 note=62 velocity=62 time=0
note_on channel=0 note=53 velocity=49 time=0
note_on channel=0 note=51 velocity=49 time=0
note_on channel=0 note=56 velocity=49 time=0
note_on channel=0 note=58 velocity=49 time=0
note_on channel=0 note=58 velocity=0 time=17
note_on channel=0 note=62 velocity=0 time=0
note_on channel=0 note=53 velocity=0 time=0
note_on channel=0 note=93 velocity=0 time=0
note_on channel=0 note=56 velocity=0 time=0
note_on channel=0 note=51 velocity=0 time=0
note_on channel=0 note=94 velocity=64 time=0
note_on channel=0 note=94 velocity=0 time=120
note_on channel=0 note=93 velocity=69 time=0
note_on channel=0 note=62 velocity=62 time=0
note_on channel=0 note=53 velocity=49 time=0
note_on channel=0 note=51 velocity=49 time=0
note_on channel=0 note=56 velocity=49 time=0
note_on channel=0 note=58 velocity=49 time=0
note_on channel=0 note=58 velocity=0 time=0
note_on channel=0 note=62 velocity=0 time=0
note_on channel=0 note=53 velocity=0 time=0
note_on channel=0 note=93 velocity=0 time=0
note_on channel=0 note=56 velocity=0 time=0
note_on channel=0 note=51 velocity=0 time=0
note_on channel=0 note=94 velocity=64 time=0
note_on channel=0 note=94 velocity=0 time=0
note_on channel=0 note=96 velocity=77 time=0
note_on channel=0 note=63 velocity=72 time=0
note_on channel=0 note=51 velocity=57 time=0
note_on channel=0 note=58 velocity=57 time=0
note_on channel=0 note=55 velocity=57 time=0
note_on channel=0 note=55 velocity=0 time=35
note_on channel=0 note=51 velocity=0 time=0
note_on channel=0 note=96 velocity=0 time=0
note_on channel=0 note=63 velocity=0 time=0
note_on channel=0 note=58 velocity=0 time=0
note_on channel=0 note=94 velocity=77 time=0
note_on channel=0 note=94 velocity=0 time=0
note_on channel=0 note=92 velocity=76 time=0
note_on channel=0 note=63 velocity=62 time=0
note_on channel=0 note=58 velocity=49 time=0
note_on channel=0 note=51 velocity=49 time=0
note_on channel=0 note=55 velocity=49 time=0
note_on channel=0 note=55 velocity=0 time=120
note_on channel=0 note=58 velocity=0 time=0
note_on channel=0 note=92 velocity=0 time=0
note_on channel=0 note=63 velocity=0 time=0
note_on channel=0 note=51 velocity=0 time=0
note_on channel=0 note=91 velocity=75 time=0
note_on channel=0 note=91 velocity=0 time=120
note_on channel=0 note=89 velocity=74 time=0
note_on channel=0 note=63 velocity=62 time=0
note_on channel=0 note=58 velocity=49 time=0
note_on channel=0 note=55 velocity=49 time=0
note_on channel=0 note=51 velocity=49 time=0
note_on channel=0 note=51 velocity=0 time=120
note_on channel=0 note=58 velocity=0 time=0
note_on channel=0 note=89 velocity=0 time=0
note_on channel=0 note=63 velocity=0 time=0
note_on channel=0 note=55 velocity=0 time=0
note_on channel=0 note=87 velocity=74 time=0
note_on channel=0 note=87 velocity=0 time=0
note_on channel=0 note=86 velocity=72 time=0
note_on channel=0 note=58 velocity=49 time=0
note_on channel=0 note=51 velocity=49 time=0
note_on channel=0 note=55 velocity=49 time=0
note_on channel=0 note=63 velocity=62 time=0
note_on channel=0 note=63 velocity=0 time=107
note_on channel=0 note=51 velocity=0 time=0
note_on channel=0 note=86 velocity=0 time=0
note_on channel=0 note=58 velocity=0 time=0
note_on channel=0 note=55 velocity=0 time=0
note_on channel=0 note=84 velocity=65 time=0
note_on channel=0 note=84 velocity=0 time=120
note_on channel=0 note=82 velocity=65 time=0
note_on channel=0 note=55 velocity=49 time=0
note_on channel=0 note=51 velocity=49 time=0
note_on channel=0 note=58 velocity=49 time=0
note_on channel=0 note=63 velocity=62 time=0
note_on channel=0 note=63 velocity=0 time=120
note_on channel=0 note=51 velocity=0 time=0
note_on channel=0 note=82 velocity=0 time=0
note_on channel=0 note=55 velocity=0 time=0
note_on channel=0 note=58 velocity=0 time=0
note_on channel=0 note=80 velocity=65 time=0
note_on channel=0 note=80 velocity=0 time=120
note_on channel=0 note=79 velocity=65 time=0
note_on channel=0 note=63 velocity=62 time=0
note_on channel=0 note=51 velocity=49 time=0
note_on channel=0 note=58 velocity=49 time=0
note_on channel=0 note=55 velocity=49 time=0
note_on channel=0 note=55 velocity=0 time=0
note_on channel=0 note=51 velocity=0 time=0
note_on channel=0 note=79 velocity=0 time=0
note_on channel=0 note=63 velocity=0 time=0
note_on channel=0 note=58 velocity=0 time=0
note_on channel=0 note=77 velocity=65 time=0
note_on channel=0 note=77 velocity=0 time=0
note_on channel=0 note=75 velocity=70 time=0
note_on channel=0 note=55 velocity=55 time=0
note_on channel=0 note=51 velocity=55 time=0
note_on channel=0 note=58 velocity=69 time=0
note_on channel=0 note=75 velocity=0 time=62
note_on channel=0 note=74 velocity=69 time=0
note_on channel=0 note=55 velocity=0 time=6
note_on channel=0 note=58 velocity=0 time=0
note_on channel=0 note=51 velocity=0 time=0
note_on channel=0 note=72 velocity=68 time=40
note_on channel=0 note=74 velocity=0 time=1
note_on channel=0 note=72 velocity=0 time=79
note_on channel=0 note=70 velocity=68 time=0
note_on channel=0 note=58 velocity=61 time=0
note_on channel=0 note=55 velocity=48 time=0
note_on channel=0 note=51 velocity=48 time=0
note_on channel=0 note=70 velocity=0 time=80
note_on channel=0 note=68 velocity=67 time=0
note_on channel=0 note=58 velocity=0 time=40
note_on channel=0 note=51 velocity=0 time=0
note_on channel=0 note=55 velocity=0 time=0
note_on channel=0 note=68 velocity=0 time=40
note_on channel=0 note=67 velocity=66 time=0
note_on channel=0 note=67 velocity=0 time=0
note_on channel=0 note=65 velocity=64 time=0
note_on channel=0 note=55 velocity=48 time=0
note_on channel=0 note=58 velocity=61 time=0
note_on channel=0 note=51 velocity=48 time=0
note_on channel=0 note=65 velocity=0 time=80
note_on channel=0 note=63 velocity=59 time=0
note_on channel=0 note=55 velocity=0 time=40
note_on channel=0 note=51 velocity=0 time=0
note_on channel=0 note=58 velocity=0 time=0
note_on channel=0 note=63 velocity=0 time=40
note_on channel=0 note=62 velocity=55 time=0
note_on channel=0 note=62 velocity=0 time=80
note_on channel=0 note=60 velocity=62 time=0
note_on channel=0 note=53 velocity=61 time=0
note_on channel=0 note=51 velocity=48 time=0
note_on channel=0 note=51 velocity=0 time=24
note_on channel=0 note=53 velocity=0 time=0
note_on channel=0 note=60 velocity=0 time=0
note_on channel=0 note=58 velocity=54 time=0
note_on channel=0 note=58 velocity=0 time=120
note_on channel=0 note=57 velocity=60 time=0
note_on channel=0 note=51 velocity=48 time=0
note_on channel=0 note=53 velocity=61 time=0
note_on channel=0 note=41 velocity=48 time=0
note_on channel=0 note=41 velocity=0 time=120
note_on channel=0 note=57 velocity=0 time=0
note_on channel=0 note=51 velocity=0 time=0
note_on channel=0 note=53 velocity=0 time=0
note_on channel=0 note=60 velocity=54 time=0
note_on channel=0 note=60 velocity=0 time=120
note_on channel=0 note=63 velocity=64 time=0
note_on channel=0 note=53 velocity=61 time=0
note_on channel=0 note=41 velocity=48 time=0
note_on channel=0 note=51 velocity=48 time=0
note_on channel=0 note=51 velocity=0 time=0
note_on channel=0 note=63 velocity=0 time=0
note_on channel=0 note=53 velocity=0 time=0
note_on channel=0 note=41 velocity=0 time=0
note_on channel=0 note=57 velocity=54 time=0
note_on channel=0 note=57 velocity=0 time=0
note_on channel=0 note=58 velocity=95 time=0
note_on channel=0 note=34 velocity=80 time=0
note_on channel=0 note=46 velocity=80 time=0
note_on channel=0 note=46 velocity=0 time=240
note_on channel=0 note=34 velocity=0 time=0
note_on channel=0 note=58 velocity=0 time=0
note_on channel=0 note=70 velocity=89 time=0
note_on channel=0 note=58 velocity=75 time=0
note_on channel=0 note=58 velocity=0 time=240
note_on channel=0 note=70 velocity=0 time=0
note_on channel=0 note=73 velocity=96 time=480
note_on channel=0 note=61 velocity=81 time=0
note_on channel=0 note=61 velocity=0 time=240
note_on channel=0 note=73 velocity=0 time=0
note_on channel=0 note=78 velocity=88 time=480
note_on channel=0 note=66 velocity=74 time=0
note_on channel=0 note=66 velocity=0 time=240
note_on channel=0 note=78 velocity=0 time=0
note_on channel=0 note=73 velocity=94 time=0
note_on channel=0 note=61 velocity=79 time=0
note_on channel=0 note=61 velocity=0 time=240
note_on channel=0 note=73 velocity=0 time=0
note_on channel=0 note=70 velocity=88 time=0
note_on channel=0 note=58 velocity=74 time=0
note_on channel=0 note=58 velocity=0 time=240
note_on channel=0 note=70 velocity=0 time=0
note_on channel=0 note=66 velocity=93 time=480
note_on channel=0 note=54 velocity=78 time=0
note_on channel=0 note=54 velocity=0 time=240
note_on channel=0 note=66 velocity=0 time=0
note_on channel=0 note=61 velocity=82 time=0
note_on channel=0 note=49 velocity=70 time=0
note_on channel=0 note=49 velocity=0 time=240
note_on channel=0 note=61 velocity=0 time=0
note_on channel=0 note=57 velocity=95 time=0
note_on channel=0 note=45 velocity=80 time=0
note_on channel=0 note=33 velocity=80 time=0
note_on channel=0 note=33 velocity=0 time=60
note_on channel=0 note=45 velocity=0 time=0
note_on channel=0 note=57 velocity=0 time=0
note_on channel=0 note=69 velocity=89 time=0
note_on channel=0 note=57 velocity=75 time=0
note_on channel=0 note=57 velocity=0 time=240
note_on channel=0 note=69 velocity=0 time=0
note_on channel=0 note=72 velocity=96 time=480
note_on channel=0 note=60 velocity=81 time=0
note_on channel=0 note=60 velocity=0 time=240
note_on channel=0 note=72 velocity=0 time=0
note_on channel=0 note=77 velocity=88 time=480
note_on channel=0 note=65 velocity=74 time=0
note_on channel=0 note=65 velocity=0 time=240
note_on channel=0 note=77 velocity=0 time=0
note_on channel=0 note=72 velocity=94 time=0
note_on channel=0 note=60 velocity=79 time=0
note_on channel=0 note=60 velocity=0 time=240
note_on channel=0 note=72 velocity=0 time=0
note_on channel=0 note=69 velocity=88 time=0
note_on channel=0 note=57 velocity=74 time=0
note_on channel=0 note=57 velocity=0 time=240
note_on channel=0 note=69 velocity=0 time=0
note_on channel=0 note=65 velocity=93 time=480
note_on channel=0 note=53 velocity=78 time=0
note_on channel=0 note=53 velocity=0 time=240
note_on channel=0 note=65 velocity=0 time=0
note_on channel=0 note=60 velocity=82 time=0
note_on channel=0 note=48 velocity=70 time=0
note_on channel=0 note=48 velocity=0 time=240
note_on channel=0 note=60 velocity=0 time=0
note_on channel=0 note=73 velocity=55 time=0
note_on channel=0 note=61 velocity=34 time=0
note_on channel=0 note=66 velocity=40 time=0
note_on channel=0 note=58 velocity=34 time=0
note_on channel=0 note=58 velocity=0 time=120
note_on channel=0 note=73 velocity=0 time=0
note_on channel=0 note=61 velocity=0 time=0
note_on channel=0 note=66 velocity=0 time=0
note_on channel=0 note=58 velocity=29 time=0
note_on channel=0 note=61 velocity=29 time=0
note_on channel=0 note=66 velocity=35 time=0
note_on channel=0 note=66 velocity=0 time=120
note_on channel=0 note=61 velocity=0 time=0
note_on channel=0 note=58 velocity=0 time=0
note_on channel=0 note=84 velocity=51 time=60
note_on channel=0 note=84 velocity=0 time=60
note_on channel=0 note=82 velocity=57 time=0
note_on channel=0 note=61 velocity=29 time=0
note_on channel=0 note=58 velocity=29 time=0
note_on channel=0 note=66 velocity=35 time=0
note_on channel=0 note=66 velocity=0 time=120
note_on channel=0 note=82 velocity=0 time=0
note_on channel=0 note=61 velocity=0 time=0
note_on channel=0 note=58 velocity=0 time=0
note_on channel=0 note=81 velocity=52 time=0
note_on channel=0 note=81 velocity=0 time=120
note_on channel=0 note=82 velocity=57 time=0
note_on channel=0 note=58 velocity=29 time=0
note_on channel=0 note=66 velocity=36 time=0
note_on channel=0 note=61 velocity=29 time=0
note_on channel=0 note=61 velocity=0 time=120
note_on channel=0 note=82 velocity=0 time=0
note_on channel=0 note=58 velocity=0 time=0
note_on channel=0 note=66 velocity=0 time=0
note_on channel=0 note=58 velocity=30 time=0
note_on channel=0 note=61 velocity=30 time=0
note_on channel=0 note=66 velocity=36 time=0
note_on channel=0 note=66 velocity=0 time=120
note_on channel=0 note=61 velocity=0 time=0
note_on channel=0 note=58 velocity=0 time=0
note_on channel=0 note=87 velocity=53 time=60
note_on channel=0 note=87 velocity=0 time=60
note_on channel=0 note=85 velocity=59 time=0
note_on channel=0 note=61 velocity=30 time=0
note_on channel=0 note=66 velocity=36 time=0
note_on channel=0 note=58 velocity=30 time=0
note_on channel=0 note=58 velocity=0 time=120
note_on channel=0 note=85 velocity=0 time=0
note_on channel=0 note=61 velocity=0 time=0
note_on channel=0 note=66 velocity=0 time=0
note_on channel=0 note=84 velocity=52 time=0
note_on channel=0 note=84 velocity=0 time=0
note_on channel=0 note=85 velocity=63 time=0
note_on channel=0 note=58 velocity=36 time=0
note_on channel=0 note=61 velocity=36 time=0
note_on channel=0 note=66 velocity=42 time=0
note_on channel=0 note=66 velocity=0 time=120
note_on channel=0 note=85 velocity=0 time=0
note_on channel=0 note=58 velocity=0 time=0
note_on channel=0 note=61 velocity=0 time=0
note_on channel=0 note=61 velocity=31 time=0
note_on channel=0 note=58 velocity=31 time=0
note_on channel=0 note=66 velocity=37 time=0
note_on channel=0 note=66 velocity=0 time=120
note_on channel=0 note=58 velocity=0 time=0
note_on channel=0 note=61 velocity=0 time=0
note_on channel=0 note=92 velocity=54 time=60
note_on channel=0 note=92 velocity=0 time=0
note_on channel=0 note=90 velocity=60 time=0
note_on channel=0 note=58 velocity=31 time=0
note_on channel=0 note=66 velocity=37 time=0
note_on channel=0 note=61 velocity=31 time=0
note_on channel=0 note=61 velocity=0 time=120
note_on channel=0 note=90 velocity=0 time=0
note_on channel=0 note=58 velocity=0 time=0
note_on channel=0 note=66 velocity=0 time=0
note_on channel=0 note=89 velocity=55 time=0
note_on channel=0 note=89 velocity=0 time=0
note_on channel=0 note=90 velocity=61 time=0
note_on channel=0 note=58 velocity=31 time=0
note_on channel=0 note=61 velocity=31 time=0
note_on channel=0 note=66 velocity=38 time=0
note_on channel=0 note=66 velocity=0 time=120
note_on channel=0 note=90 velocity=0 time=0
note_on channel=0 note=58 velocity=0 time=0
note_on channel=0 note=61 velocity=0 time=0
note_on channel=0 note=61 velocity=29 time=120
note_on channel=0 note=66 velocity=35 time=0
note_on channel=0 note=58 velocity=29 time=0
note_on channel=0 note=58 velocity=0 time=120
note_on channel=0 note=66 velocity=0 time=0
note_on channel=0 note=61 velocity=0 time=0
note_on channel=0 note=87 velocity=51 time=60
note_on channel=0 note=87 velocity=0 time=0
note_on channel=0 note=85 velocity=57 time=0
note_on channel=0 note=58 velocity=29 time=0
note_on channel=0 note=61 velocity=29 time=0
note_on channel=0 note=66 velocity=35 time=0
note_on channel=0 note=66 velocity=0 time=120
note_on channel=0 note=85 velocity=0 time=0
note_on channel=0 note=58 velocity=0 time=0
note_on channel=0 note=61 velocity=0 time=0
note_on channel=0 note=84 velocity=50 time=0
note_on channel=0 note=84 velocity=0 time=0
note_on channel=0 note=85 velocity=60 time=0
note_on channel=0 note=61 velocity=34 time=0
note_on channel=0 note=58 velocity=34 time=0
note_on channel=0 note=66 velocity=40 time=0
note_on channel=0 note=66 velocity=0 time=120
note_on channel=0 note=85 velocity=0 time=0
note_on channel=0 note=61 velocity=0 time=0
note_on channel=0 note=58 velocity=0 time=0
note_on channel=0 note=58 velocity=29 time=120
note_on channel=0 note=66 velocity=35 time=0
note_on channel=0 note=61 velocity=29 time=0
note_on channel=0 note=61 velocity=0 time=120
note_on channel=0 note=66 velocity=0 time=0
note_on channel=0 note=58 velocity=0 time=0
note_on channel=0 note=84 velocity=51 time=60
note_on channel=0 note=84 velocity=0 time=60
note_on channel=0 note=82 velocity=56 time=0
note_on channel=0 note=58 velocity=29 time=0
note_on channel=0 note=61 velocity=29 time=0
note_on channel=0 note=66 velocity=35 time=0
note_on channel=0 note=66 velocity=0 time=120
note_on channel=0 note=82 velocity=0 time=0
note_on channel=0 note=58 velocity=0 time=0
note_on channel=0 note=61 velocity=0 time=0
note_on channel=0 note=81 velocity=51 time=0
note_on channel=0 note=81 velocity=0 time=0
note_on channel=0 note=82 velocity=56 time=0
note_on channel=0 note=61 velocity=29 time=0
note_on channel=0 note=66 velocity=35 time=0
note_on channel=0 note=58 velocity=29 time=0
note_on channel=0 note=58 velocity=0 time=120
note_on channel=0 note=82 velocity=0 time=0
note_on channel=0 note=61 velocity=0 time=0
note_on channel=0 note=66 velocity=0 time=0
note_on channel=0 note=58 velocity=29 time=120
note_on channel=0 note=61 velocity=29 time=0
note_on channel=0 note=66 velocity=35 time=0
note_on channel=0 note=66 velocity=0 time=120
note_on channel=0 note=61 velocity=0 time=0
note_on channel=0 note=58 velocity=0 time=0
note_on channel=0 note=80 velocity=51 time=60
note_on channel=0 note=80 velocity=0 time=0
note_on channel=0 note=78 velocity=57 time=0
note_on channel=0 note=61 velocity=29 time=0
note_on channel=0 note=58 velocity=29 time=0
note_on channel=0 note=66 velocity=35 time=0
note_on channel=0 note=66 velocity=0 time=120
note_on channel=0 note=78 velocity=0 time=0
note_on channel=0 note=61 velocity=0 time=0
note_on channel=0 note=58 velocity=0 time=0
note_on channel=0 note=77 velocity=50 time=0
note_on channel=0 note=77 velocity=0 time=0
note_on channel=0 note=78 velocity=60 time=0
note_on channel=0 note=58 velocity=34 time=0
note_on channel=0 note=66 velocity=40 time=0
note_on channel=0 note=61 velocity=34 time=0
note_on channel=0 note=61 velocity=0 time=120
note_on channel=0 note=78 velocity=0 time=0
note_on channel=0 note=58 velocity=0 time=0
note_on channel=0 note=66 velocity=0 time=0
note_on channel=0 note=58 velocity=29 time=120
note_on channel=0 note=61 velocity=29 time=0
note_on channel=0 note=66 velocity=35 time=0
note_on channel=0 note=66 velocity=0 time=120
note_on channel=0 note=61 velocity=0 time=0
note_on channel=0 note=58 velocity=0 time=0
note_on channel=0 note=75 velocity=51 time=60
note_on channel=0 note=75 velocity=0 time=60
note_on channel=0 note=73 velocity=56 time=0
note_on channel=0 note=61 velocity=29 time=0
note_on channel=0 note=66 velocity=35 time=0
note_on channel=0 note=58 velocity=29 time=0
note_on channel=0 note=58 velocity=0 time=120
note_on channel=0 note=73 velocity=0 time=0
note_on channel=0 note=61 velocity=0 time=0
note_on channel=0 note=66 velocity=0 time=0
note_on channel=0 note=72 velocity=51 time=0
note_on channel=0 note=72 velocity=0 time=0
note_on channel=0 note=73 velocity=56 time=0
note_on channel=0 note=58 velocity=29 time=0
note_on channel=0 note=61 velocity=29 time=0
note_on channel=0 note=66 velocity=35 time=0
note_on channel=0 note=66 velocity=0 time=120
note_on channel=0 note=61 velocity=0 time=0
note_on channel=0 note=58 velocity=0 time=0
note_on channel=0 note=61 velocity=29 time=120
note_on channel=0 note=58 velocity=29 time=0
note_on channel=0 note=66 velocity=35 time=0
note_on channel=0 note=66 velocity=0 time=120
note_on channel=0 note=58 velocity=0 time=0
note_on channel=0 note=61 velocity=0 time=0
note_on channel=0 note=73 velocity=0 time=120
note_on channel=0 note=58 velocity=29 time=0
note_on channel=0 note=64 velocity=35 time=0
note_on channel=0 note=61 velocity=29 time=0
note_on channel=0 note=61 velocity=0 time=120
note_on channel=0 note=64 velocity=0 time=0
note_on channel=0 note=58 velocity=0 time=0
note_on channel=0 note=72 velocity=55 time=0
note_on channel=0 note=57 velocity=34 time=0
note_on channel=0 note=60 velocity=34 time=0
note_on channel=0 note=65 velocity=40 time=0
note_on channel=0 note=65 velocity=0 time=120
note_on channel=0 note=72 velocity=0 time=0
note_on channel=0 note=57 velocity=0 time=0
note_on channel=0 note=60 velocity=0 time=0
note_on channel=0 note=60 velocity=29 time=0
note_on channel=0 note=65 velocity=35 time=0
note_on channel=0 note=57 velocity=29 time=0
note_on channel=0 note=57 velocity=0 time=120
note_on channel=0 note=65 velocity=0 time=0
note_on channel=0 note=60 velocity=0 time=0
note_on channel=0 note=82 velocity=51 time=60
note_on channel=0 note=82 velocity=0 time=60
note_on channel=0 note=81 velocity=57 time=0
note_on channel=0 note=65 velocity=35 time=0
note_on channel=0 note=57 velocity=29 time=0
note_on channel=0 note=60 velocity=29 time=0
note_on channel=0 note=60 velocity=0 time=120
note_on channel=0 note=81 velocity=0 time=0
note_on channel=0 note=65 velocity=0 time=0
note_on channel=0 note=57 velocity=0 time=0
note_on channel=0 note=79 velocity=52 time=0
note_on channel=0 note=79 velocity=0 time=0
note_on channel=0 note=81 velocity=57 time=0
note_on channel=0 note=57 velocity=29 time=0
note_on channel=0 note=60 velocity=29 time=0
note_on channel=0 note=65 velocity=36 time=0
note_on channel=0 note=65 velocity=0 time=120
note_on channel=0 note=81 velocity=0 time=0
note_on channel=0 note=57 velocity=0 time=0
note_on channel=0 note=60 velocity=0 time=0
note_on channel=0 note=60 velocity=30 time=120
note_on channel=0 note=57 velocity=30 time=0
note_on channel=0 note=65 velocity=36 time=0
note_on channel=0 note=65 velocity=0 time=120
note_on channel=0 note=57 velocity=0 time=0
note_on channel=0 note=60 velocity=0 time=0
note_on channel=0 note=86 velocity=53 time=60
note_on channel=0 note=86 velocity=0 time=60
note_on channel=0 note=84 velocity=59 time=0
note_on channel=0 note=57 velocity=30 time=0
note_on channel=0 note=65 velocity=36 time=0
note_on channel=0 note=60 velocity=30 time=0
note_on channel=0 note=60 velocity=0 time=120
note_on channel=0 note=84 velocity=0 time=0
note_on channel=0 note=57 velocity=0 time=0
note_on channel=0 note=65 velocity=0 time=0
note_on channel=0 note=83 velocity=52 time=0
note_on channel=0 note=83 velocity=0 time=0
note_on channel=0 note=84 velocity=63 time=0
note_on channel=0 note=57 velocity=36 time=0
note_on channel=0 note=60 velocity=36 time=0
note_on channel=0 note=65 velocity=42 time=0
note_on channel=0 note=65 velocity=0 time=120
note_on channel=0 note=84 velocity=0 time=0
note_on channel=0 note=57 velocity=0 time=0
note_on channel=0 note=60 velocity=0 time=0
note_on channel=0 note=65 velocity=37 time=0
note_on channel=0 note=57 velocity=31 time=0
note_on channel=0 note=60 velocity=31 time=0
note_on channel=0 note=60 velocity=0 time=120
note_on channel=0 note=57 velocity=0 time=0
note_on channel=0 note=65 velocity=0 time=0
note_on channel=0 note=90 velocity=55 time=60
note_on channel=0 note=90 velocity=0 time=60
note_on channel=0 note=89 velocity=60 time=0
note_on channel=0 note=57 velocity=31 time=0
note_on channel=0 note=60 velocity=31 time=0
note_on channel=0 note=65 velocity=37 time=0
note_on channel=0 note=65 velocity=0 time=120
note_on channel=0 note=89 velocity=0 time=0
note_on channel=0 note=57 velocity=0 time=0
note_on channel=0 note=60 velocity=0 time=0
note_on channel=0 note=88 velocity=55 time=0
note_on channel=0 note=88 velocity=0 time=120
note_on channel=0 note=89 velocity=61 time=0
note_on channel=0 note=60 velocity=31 time=0
note_on channel=0 note=57 velocity=31 time=0
note_on channel=0 note=65 velocity=38 time=0
note_on channel=0 note=65 velocity=0 time=120
note_on channel=0 note=89 velocity=0 time=0
note_on channel=0 note=60 velocity=0 time=0
note_on channel=0 note=57 velocity=0 time=0
note_on channel=0 note=57 velocity=29 time=0
note_on channel=0 note=65 velocity=35 time=0
note_on channel=0 note=60 velocity=29 time=0
note_on channel=0 note=60 velocity=0 time=120
note_on channel=0 note=65 velocity=0 time=0
note_on channel=0 note=57 velocity=0 time=0
note_on channel=0 note=85 velocity=51 time=60
note_on channel=0 note=85 velocity=0 time=60
note_on channel=0 note=84 velocity=57 time=0
note_on channel=0 note=57 velocity=29 time=0
note_on channel=0 note=60 velocity=29 time=0
note_on channel=0 note=65 velocity=35 time=0
note_on channel=0 note=65 velocity=0 time=120
note_on channel=0 note=84 velocity=0 time=0
note_on channel=0 note=57 velocity=0 time=0
note_on channel=0 note=60 velocity=0 time=0
note_on channel=0 note=83 velocity=50 time=0
note_on channel=0 note=83 velocity=0 time=0
note_on channel=0 note=84 velocity=60 time=0
note_on channel=0 note=65 velocity=40 time=0
note_on channel=0 note=57 velocity=34 time=0
note_on channel=0 note=60 velocity=34 time=0
note_on channel=0 note=60 velocity=0 time=120
note_on channel=0 note=84 velocity=0 time=0
note_on channel=0 note=65 velocity=0 time=0
note_on channel=0 note=57 velocity=0 time=0
note_on channel=0 note=57 velocity=29 time=0
note_on channel=0 note=60 velocity=29 time=0
note_on channel=0 note=65 velocity=35 time=0
note_on channel=0 note=65 velocity=0 time=120
note_on channel=0 note=60 velocity=0 time=0
note_on channel=0 note=57 velocity=0 time=0
note_on channel=0 note=82 velocity=51 time=60
note_on channel=0 note=82 velocity=0 time=60
note_on channel=0 note=81 velocity=56 time=0
note_on channel=0 note=60 velocity=29 time=0
note_on channel=0 note=57 velocity=29 time=0
note_on channel=0 note=65 velocity=35 time=0
note_on channel=0 note=65 velocity=0 time=120
note_on channel=0 note=81 velocity=0 time=0
note_on channel=0 note=60 velocity=0 time=0
note_on channel=0 note=57 velocity=0 time=0
note_on channel=0 note=79 velocity=51 time=0
note_on channel=0 note=79 velocity=0 time=120
note_on channel=0 note=81 velocity=56 time=0
note_on channel=0 note=57 velocity=29 time=0
note_on channel=0 note=65 velocity=35 time=0
note_on channel=0 note=60 velocity=29 time=0
note_on channel=0 note=60 velocity=0 time=120
note_on channel=0 note=81 velocity=0 time=0
note_on channel=0 note=57 velocity=0 time=0
note_on channel=0 note=65 velocity=0 time=0
note_on channel=0 note=57 velocity=29 time=0
note_on channel=0 note=60 velocity=29 time=0
note_on channel=0 note=65 velocity=35 time=0
note_on channel=0 note=65 velocity=0 time=120
note_on channel=0 note=60 velocity=0 time=0
note_on channel=0 note=57 velocity=0 time=0
note_on channel=0 note=78 velocity=51 time=60
note_on channel=0 note=78 velocity=0 time=60
note_on channel=0 note=77 velocity=57 time=0
note_on channel=0 note=65 velocity=35 time=0
note_on channel=0 note=57 velocity=29 time=0
note_on channel=0 note=60 velocity=29 time=0
note_on channel=0 note=60 velocity=0 time=120
note_on channel=0 note=77 velocity=0 time=0
note_on channel=0 note=65 velocity=0 time=0
note_on channel=0 note=57 velocity=0 time=0
note_on channel=0 note=76 velocity=50 time=0
note_on channel=0 note=76 velocity=0 time=0
note_on channel=0 note=77 velocity=60 time=0
note_on channel=0 note=60 velocity=34 time=0
note_on channel=0 note=57 velocity=34 time=0
note_on channel=0 note=65 velocity=40 time=0
note_on channel=0 note=65 velocity=0 time=120
note_on channel=0 note=77 velocity=0 time=0
note_on channel=0 note=60 velocity=0 time=0
note_on channel=0 note=57 velocity=0 time=0
note_on channel=0 note=60 velocity=29 time=0
note_on channel=0 note=57 velocity=29 time=0
note_on channel=0 note=65 velocity=35 time=0
note_on channel=0 note=65 velocity=0 time=120
note_on channel=0 note=57 velocity=0 time=0
note_on channel=0 note=60 velocity=0 time=0
note_on channel=0 note=73 velocity=51 time=60
note_on channel=0 note=73 velocity=0 time=60
note_on channel=0 note=72 velocity=56 time=0
note_on channel=0 note=57 velocity=29 time=0
note_on channel=0 note=60 velocity=29 time=0
note_on channel=0 note=65 velocity=35 time=0
note_on channel=0 note=65 velocity=0 time=120
note_on channel=0 note=72 velocity=0 time=0
note_on channel=0 note=57 velocity=0 time=0
note_on channel=0 note=60 velocity=0 time=0
note_on channel=0 note=71 velocity=51 time=0
note_on channel=0 note=71 velocity=0 time=120
note_on channel=0 note=72 velocity=56 time=0
note_on channel=0 note=57 velocity=29 time=0
note_on channel=0 note=60 velocity=29 time=0
note_on channel=0 note=65 velocity=35 time=0
note_on channel=0 note=65 velocity=0 time=240
note_on channel=0 note=72 velocity=0 time=0
note_on channel=0 note=57 velocity=0 time=0
note_on channel=0 note=60 velocity=0 time=0
note_on channel=0 note=53 velocity=35 time=0
note_on channel=0 note=53 velocity=0 time=0
note_on channel=0 note=73 velocity=61 time=0
note_on channel=0 note=51 velocity=35 time=0
note_on channel=0 note=51 velocity=0 time=0
note_on channel=0 note=73 velocity=0 time=0
note_on channel=0 note=74 velocity=56 time=0
note_on channel=0 note=65 velocity=35 time=0
note_on channel=0 note=46 velocity=40 time=0
note_on channel=0 note=50 velocity=40 time=0
note_on channel=0 note=65 velocity=0 time=35
note_on channel=0 note=67 velocity=31 time=0
note_on channel=0 note=67 velocity=0 time=120
note_on channel=0 note=65 velocity=35 time=0
note_on channel=0 note=65 velocity=0 time=120
note_on channel=0 note=67 velocity=31 time=0
note_on channel=0 note=67 velocity=0 time=0
note_on channel=0 note=50 velocity=0 time=0
note_on channel=0 note=65 velocity=34 time=0
note_on channel=0 note=55 velocity=33 time=0
note_on channel=0 note=65 velocity=0 time=120
note_on channel=0 note=67 velocity=31 time=0
note_on channel=0 note=67 velocity=0 time=120
note_on channel=0 note=55 velocity=0 time=0
note_on channel=0 note=74 velocity=0 time=0
note_on channel=0 note=65 velocity=36 time=0
note_on channel=0 note=70 velocity=55 time=0
note_on channel=0 note=53 velocity=42 time=0
note_on channel=0 note=65 velocity=0 time=107
note_on channel=0 note=67 velocity=32 time=0
note_on channel=0 note=67 velocity=0 time=92
note_on channel=0 note=65 velocity=36 time=0
note_on channel=0 note=65 velocity=0 time=120
note_on channel=0 note=67 velocity=31 time=0
note_on channel=0 note=67 velocity=0 time=120
note_on channel=0 note=53 velocity=0 time=0
note_on channel=0 note=65 velocity=37 time=0
note_on channel=0 note=50 velocity=39 time=0
note_on channel=0 note=65 velocity=0 time=120
note_on channel=0 note=67 velocity=31 time=0
note_on channel=0 note=67 velocity=0 time=0
note_on channel=0 note=50 velocity=0 time=0
note_on channel=0 note=70 velocity=0 time=0
note_on channel=0 note=46 velocity=0 time=0
note_on channel=0 note=65 velocity=37 time=0
note_on channel=0 note=69 velocity=59 time=0
note_on channel=0 note=41 velocity=42 time=0
note_on channel=0 note=48 velocity=42 time=0
note_on channel=0 note=65 velocity=0 time=106
note_on channel=0 note=67 velocity=33 time=0
note_on channel=0 note=67 velocity=0 time=113
note_on channel=0 note=65 velocity=37 time=0
note_on channel=0 note=65 velocity=0 time=120
note_on channel=0 note=67 velocity=33 time=0
note_on channel=0 note=67 velocity=0 time=120
note_on channel=0 note=48 velocity=0 time=0
note_on channel=0 note=65 velocity=37 time=0
note_on channel=0 note=55 velocity=36 time=0
note_on channel=0 note=65 velocity=0 time=120
note_on channel=0 note=67 velocity=34 time=0
note_on channel=0 note=67 velocity=0 time=120
note_on channel=0 note=55 velocity=0 time=0
note_on channel=0 note=69 velocity=0 time=0
note_on channel=0 note=65 velocity=38 time=0
note_on channel=0 note=75 velocity=59 time=0
note_on channel=0 note=53 velocity=45 time=0
note_on channel=0 note=65 velocity=0 time=7
note_on channel=0 note=67 velocity=34 time=0
note_on channel=0 note=67 velocity=0 time=0
note_on channel=0 note=65 velocity=39 time=0
note_on channel=0 note=65 velocity=0 time=120
note_on channel=0 note=67 velocity=33 time=0
note_on channel=0 note=67 velocity=0 time=0
note_on channel=0 note=53 velocity=0 time=0
note_on channel=0 note=65 velocity=39 time=0
note_on channel=0 note=48 velocity=41 time=0
note_on channel=0 note=65 velocity=0 time=120
note_on channel=0 note=67 velocity=34 time=0
note_on channel=0 note=67 velocity=0 time=0
note_on channel=0 note=48 velocity=0 time=0
note_on channel=0 note=75 velocity=0 time=0
note_on channel=0 note=41 velocity=0 time=0
note_on channel=0 note=65 velocity=40 time=0
note_on channel=0 note=74 velocity=64 time=0
note_on channel=0 note=46 velocity=46 time=0
note_on channel=0 note=50 velocity=46 time=0
note_on channel=0 note=65 velocity=0 time=116
note_on channel=0 note=67 velocity=35 time=0
note_on channel=0 note=67 velocity=0 time=113
note_on channel=0 note=65 velocity=39 time=0
note_on channel=0 note=65 velocity=0 time=120
note_on channel=0 note=67 velocity=35 time=0
note_on channel=0 note=67 velocity=0 time=0
note_on channel=0 note=50 velocity=0 time=0
note_on channel=0 note=65 velocity=38 time=0
note_on channel=0 note=55 velocity=37 time=0
note_on channel=0 note=65 velocity=0 time=120
note_on channel=0 note=67 velocity=34 time=0
note_on channel=0 note=67 velocity=0 time=120
note_on channel=0 note=55 velocity=0 time=0
note_on channel=0 note=74 velocity=0 time=0
note_on channel=0 note=65 velocity=39 time=0
note_on channel=0 note=70 velocity=60 time=0
note_on channel=0 note=53 velocity=45 time=0
note_on channel=0 note=65 velocity=0 time=28
note_on channel=0 note=67 velocity=34 time=0
note_on channel=0 note=67 velocity=0 time=120
note_on channel=0 note=65 velocity=38 time=0
note_on channel=0 note=65 velocity=0 time=120
note_on channel=0 note=67 velocity=33 time=0
note_on channel=0 note=67 velocity=0 time=120
note_on channel=0 note=53 velocity=0 time=0
note_on channel=0 note=65 velocity=38 time=0
note_on channel=0 note=50 velocity=40 time=0
note_on channel=0 note=65 velocity=0 time=120
note_on channel=0 note=67 velocity=32 time=0
note_on channel=0 note=67 velocity=0 time=120
note_on channel=0 note=50 velocity=0 time=0
note_on channel=0 note=70 velocity=0 time=0
note_on channel=0 note=46 velocity=0 time=0
note_on channel=0 note=65 velocity=37 time=0
note_on channel=0 note=69 velocity=60 time=0
note_on channel=0 note=41 velocity=43 time=0
note_on channel=0 note=48 velocity=43 time=0
note_on channel=0 note=65 velocity=0 time=120
note_on channel=0 note=67 velocity=33 time=0
note_on channel=0 note=67 velocity=0 time=113
note_on channel=0 note=65 velocity=37 time=0
note_on channel=0 note=65 velocity=0 time=120
note_on channel=0 note=67 velocity=32 time=0
note_on channel=0 note=67 velocity=0 time=120
note_on channel=0 note=48 velocity=0 time=0
note_on channel=0 note=65 velocity=35 time=0
note_on channel=0 note=55 velocity=34 time=0
note_on channel=0 note=65 velocity=0 time=120
note_on channel=0 note=67 velocity=32 time=0
note_on channel=0 note=67 velocity=0 time=120
note_on channel=0 note=55 velocity=0 time=0
note_on channel=0 note=69 velocity=0 time=0
note_on channel=0 note=65 velocity=36 time=0
note_on channel=0 note=75 velocity=56 time=0
note_on channel=0 note=53 velocity=42 time=0
note_on channel=0 note=65 velocity=0 time=21
note_on channel=0 note=67 velocity=32 time=0
note_on channel=0 note=67 velocity=0 time=0
note_on channel=0 note=65 velocity=36 time=0
note_on channel=0 note=65 velocity=0 time=120
note_on channel=0 note=67 velocity=30 time=0
note_on channel=0 note=67 velocity=0 time=120
note_on channel=0 note=53 velocity=0 time=0
note_on channel=0 note=65 velocity=35 time=0
note_on channel=0 note=48 velocity=37 time=0
note_on channel=0 note=65 velocity=0 time=120
note_on channel=0 note=67 velocity=30 time=0
note_on channel=0 note=67 velocity=0 time=0
note_on channel=0 note=48 velocity=0 time=0
note_on channel=0 note=75 velocity=0 time=0
note_on channel=0 note=41 velocity=0 time=0
note_on channel=0 note=74 velocity=51 time=0
note_on channel=0 note=50 velocity=40 time=0
note_on channel=0 note=46 velocity=34 time=0
note_on channel=0 note=46 velocity=0 time=54
note_on channel=0 note=50 velocity=0 time=0
note_on channel=0 note=74 velocity=0 time=0
note_on channel=0 note=77 velocity=45 time=0
note_on channel=0 note=77 velocity=0 time=0
note_on channel=0 note=79 velocity=48 time=0
note_on channel=0 note=50 velocity=29 time=0
note_on channel=0 note=53 velocity=29 time=0
note_on channel=0 note=58 velocity=35 time=0
note_on channel=0 note=79 velocity=0 time=80
note_on channel=0 note=81 velocity=50 time=0
note_on channel=0 note=50 velocity=0 time=24
note_on channel=0 note=58 velocity=0 time=0
note_on channel=0 note=53 velocity=0 time=0
note_on channel=0 note=81 velocity=0 time=40
note_on channel=0 note=82 velocity=52 time=0
note_on channel=0 note=82 velocity=0 time=67
note_on channel=0 note=84 velocity=54 time=0
note_on channel=0 note=50 velocity=29 time=0
note_on channel=0 note=53 velocity=29 time=0
note_on channel=0 note=58 velocity=35 time=0
note_on channel=0 note=84 velocity=0 time=51
note_on channel=0 note=86 velocity=56 time=0
note_on channel=0 note=50 velocity=0 time=14
note_on channel=0 note=58 velocity=0 time=0
note_on channel=0 note=53 velocity=0 time=0
note_on channel=0 note=86 velocity=0 time=40
note_on channel=0 note=87 velocity=59 time=0
note_on channel=0 note=87 velocity=0 time=58
note_on channel=0 note=89 velocity=61 time=0
note_on channel=0 note=50 velocity=29 time=0
note_on channel=0 note=53 velocity=29 time=0
note_on channel=0 note=58 velocity=35 time=0
note_on channel=0 note=58 velocity=0 time=5
note_on channel=0 note=89 velocity=0 time=0
note_on channel=0 note=50 velocity=0 time=0
note_on channel=0 note=53 velocity=0 time=0
note_on channel=0 note=87 velocity=60 time=0
note_on channel=0 note=87 velocity=0 time=48
note_on channel=0 note=86 velocity=58 time=0
note_on channel=0 note=50 velocity=29 time=0
note_on channel=0 note=53 velocity=29 time=0
note_on channel=0 note=58 velocity=35 time=0
note_on channel=0 note=58 velocity=0 time=72
note_on channel=0 note=86 velocity=0 time=0
note_on channel=0 note=50 velocity=0 time=0
note_on channel=0 note=53 velocity=0 time=0
note_on channel=0 note=84 velocity=57 time=0
note_on channel=0 note=84 velocity=0 time=0
note_on channel=0 note=82 velocity=55 time=0
note_on channel=0 note=50 velocity=29 time=0
note_on channel=0 note=53 velocity=29 time=0
note_on channel=0 note=58 velocity=35 time=0
note_on channel=0 note=58 velocity=0 time=24
note_on channel=0 note=82 velocity=0 time=0
note_on channel=0 note=50 velocity=0 time=0
note_on channel=0 note=53 velocity=0 time=0
note_on channel=0 note=81 velocity=54 time=0
note_on channel=0 note=81 velocity=0 time=0
note_on channel=0 note=79 velocity=51 time=0
note_on channel=0 note=79 velocity=0 time=53
note_on channel=0 note=81 velocity=45 time=0
note_on channel=0 note=81 velocity=0 time=19
note_on channel=0 note=82 velocity=48 time=0
note_on channel=0 note=51 velocity=29 time=0
note_on channel=0 note=55 velocity=29 time=0
note_on channel=0 note=58 velocity=35 time=0
note_on channel=0 note=58 velocity=0 time=24
note_on channel=0 note=82 velocity=0 time=0
note_on channel=0 note=51 velocity=0 time=0
note_on channel=0 note=55 velocity=0 time=0
note_on channel=0 note=84 velocity=50 time=0
note_on channel=0 note=84 velocity=0 time=29
note_on channel=0 note=86 velocity=54 time=0
note_on channel=0 note=51 velocity=29 time=0
note_on channel=0 note=55 velocity=29 time=0
note_on channel=0 note=58 velocity=35 time=0
note_on channel=0 note=86 velocity=0 time=80
note_on channel=0 note=87 velocity=56 time=0
note_on channel=0 note=51 velocity=0 time=34
note_on channel=0 note=58 velocity=0 time=0
note_on channel=0 note=55 velocity=0 time=0
note_on channel=0 note=87 velocity=0 time=40
note_on channel=0 note=89 velocity=59 time=0
note_on channel=0 note=89 velocity=0 time=38
note_on channel=0 note=91 velocity=61 time=0
note_on channel=0 note=51 velocity=29 time=0
note_on channel=0 note=55 velocity=29 time=0
note_on channel=0 note=58 velocity=35 time=0
note_on channel=0 note=58 velocity=0 time=62
note_on channel=0 note=91 velocity=0 time=0
note_on channel=0 note=51 velocity=0 time=0
note_on channel=0 note=55 velocity=0 time=0
note_on channel=0 note=89 velocity=60 time=0
note_on channel=0 note=89 velocity=0 time=120
note_on channel=0 note=87 velocity=58 time=0
note_on channel=0 note=51 velocity=29 time=0
note_on channel=0 note=55 velocity=29 time=0
note_on channel=0 note=58 velocity=35 time=0
note_on channel=0 note=87 velocity=0 time=51
note_on channel=0 note=86 velocity=57 time=0
note_on channel=0 note=51 velocity=0 time=40
note_on channel=0 note=58 velocity=0 time=0
note_on channel=0 note=55 velocity=0 time=0
note_on channel=0 note=86 velocity=0 time=40
note_on channel=0 note=84 velocity=56 time=0
note_on channel=0 note=84 velocity=0 time=19
note_on channel=0 note=82 velocity=55 time=0
note_on channel=0 note=51 velocity=29 time=0
note_on channel=0 note=55 velocity=29 time=0
note_on channel=0 note=60 velocity=35 time=0
note_on channel=0 note=82 velocity=0 time=80
note_on channel=0 note=81 velocity=54 time=0
note_on channel=0 note=51 velocity=0 time=40
note_on channel=0 note=60 velocity=0 time=0
note_on channel=0 note=55 velocity=0 time=0
note_on channel=0 note=81 velocity=0 time=40
note_on channel=0 note=79 velocity=53 time=0
note_on channel=0 note=79 velocity=0 time=0
note_on channel=0 note=77 velocity=57 time=0
note_on channel=0 note=77 velocity=0 time=49
note_on channel=0 note=86 velocity=49 time=0
note_on channel=0 note=86 velocity=0 time=0
note_on channel=0 note=82 velocity=59 time=0
note_on channel=0 note=53 velocity=29 time=0
note_on channel=0 note=58 velocity=29 time=0
note_on channel=0 note=62 velocity=35 time=0
note_on channel=0 note=62 velocity=0 time=5
note_on channel=0 note=82 velocity=0 time=0
note_on channel=0 note=53 velocity=0 time=0
note_on channel=0 note=58 velocity=0 time=0
note_on channel=0 note=89 velocity=55 time=0
note_on channel=0 note=89 velocity=0 time=10
note_on channel=0 note=86 velocity=62 time=0
note_on channel=0 note=53 velocity=29 time=0
note_on channel=0 note=58 velocity=29 time=0
note_on channel=0 note=62 velocity=35 time=0
note_on channel=0 note=62 velocity=0 time=34
note_on channel=0 note=86 velocity=0 time=0
note_on channel=0 note=53 velocity=0 time=0
note_on channel=0 note=58 velocity=0 time=0
note_on channel=0 note=94 velocity=57 time=0
note_on channel=0 note=94 velocity=0 time=38
note_on channel=0 note=89 velocity=62 time=0
note_on channel=0 note=53 velocity=29 time=0
note_on channel=0 note=58 velocity=29 time=0
note_on channel=0 note=62 velocity=35 time=0
note_on channel=0 note=89 velocity=0 time=3
note_on channel=0 note=98 velocity=57 time=0
note_on channel=0 note=53 velocity=0 time=40
note_on channel=0 note=62 velocity=0 time=0
note_on channel=0 note=58 velocity=0 time=0
note_on channel=0 note=98 velocity=0 time=6
note_on channel=0 note=94 velocity=55 time=0
note_on channel=0 note=94 velocity=0 time=10
note_on channel=0 note=101 velocity=61 time=0
note_on channel=0 note=53 velocity=29 time=0
note_on channel=0 note=58 velocity=29 time=0
note_on channel=0 note=62 velocity=35 time=0
note_on channel=0 note=101 velocity=0 time=13
note_on channel=0 note=98 velocity=53 time=0
note_on channel=0 note=53 velocity=0 time=40
note_on channel=0 note=62 velocity=0 time=0
note_on channel=0 note=58 velocity=0 time=0
note_on channel=0 note=98 velocity=0 time=16
note_on channel=0 note=94 velocity=54 time=0
note_on channel=0 note=94 velocity=0 time=19
note_on channel=0 note=89 velocity=59 time=0
note_on channel=0 note=53 velocity=29 time=0
note_on channel=0 note=58 velocity=29 time=0
note_on channel=0 note=62 velocity=35 time=0
note_on channel=0 note=89 velocity=0 time=22
note_on channel=0 note=86 velocity=53 time=0
note_on channel=0 note=53 velocity=0 time=40
note_on channel=0 note=62 velocity=0 time=0
note_on channel=0 note=58 velocity=0 time=0
note_on channel=0 note=86 velocity=0 time=26
note_on channel=0 note=82 velocity=53 time=0
note_on channel=0 note=82 velocity=0 time=29
note_on channel=0 note=77 velocity=59 time=0
note_on channel=0 note=62 velocity=35 time=0
note_on channel=0 note=53 velocity=29 time=0
note_on channel=0 note=58 velocity=29 time=0
note_on channel=0 note=58 velocity=0 time=74
note_on channel=0 note=53 velocity=0 time=0
note_on channel=0 note=62 velocity=0 time=0
note_on channel=0 note=53 velocity=29 time=120
note_on channel=0 note=58 velocity=29 time=0
note_on channel=0 note=62 velocity=35 time=0
note_on channel=0 note=62 velocity=0 time=107
note_on channel=0 note=58 velocity=0 time=0
note_on channel=0 note=53 velocity=0 time=0
note_on channel=0 note=77 velocity=0 time=112
note_on channel=0 note=62 velocity=35 time=0
note_on channel=0 note=58 velocity=29 time=0
note_on channel=0 note=53 velocity=29 time=0
note_on channel=0 note=53 velocity=0 time=21
note_on channel=0 note=58 velocity=0 time=0
note_on channel=0 note=62 velocity=0 time=0
note_on channel=0 note=84 velocity=59 time=6
note_on channel=0 note=53 velocity=29 time=0
note_on channel=0 note=57 velocity=29 time=0
note_on channel=0 note=63 velocity=35 time=0
note_on channel=0 note=84 velocity=0 time=6
note_on channel=0 note=86 velocity=52 time=0
note_on channel=0 note=53 velocity=0 time=11
note_on channel=0 note=63 velocity=0 time=0
note_on channel=0 note=57 velocity=0 time=0
note_on channel=0 note=86 velocity=0 time=13
note_on channel=0 note=84 velocity=59 time=0
note_on channel=0 note=84 velocity=0 time=16
note_on channel=0 note=86 velocity=54 time=0
note_on channel=0 note=53 velocity=29 time=0
note_on channel=0 note=57 velocity=29 time=0
note_on channel=0 note=63 velocity=35 time=0
note_on channel=0 note=86 velocity=0 time=13
note_on channel=0 note=84 velocity=59 time=0
note_on channel=0 note=53 velocity=0 time=14
note_on channel=0 note=63 velocity=0 time=0
note_on channel=0 note=57 velocity=0 time=0
note_on channel=0 note=84 velocity=0 time=16
note_on channel=0 note=86 velocity=53 time=0
note_on channel=0 note=86 velocity=0 time=0
note_on channel=0 note=84 velocity=59 time=0
note_on channel=0 note=53 velocity=29 time=0
note_on channel=0 note=57 velocity=29 time=0
note_on channel=0 note=63 velocity=35 time=0
note_on channel=0 note=84 velocity=0 time=3
note_on channel=0 note=86 velocity=53 time=0
note_on channel=0 note=53 velocity=0 time=40
note_on channel=0 note=63 velocity=0 time=0
note_on channel=0 note=57 velocity=0 time=0
note_on channel=0 note=86 velocity=0 time=40
note_on channel=0 note=84 velocity=56 time=0
note_on channel=0 note=84 velocity=0 time=0
note_on channel=0 note=86 velocity=61 time=0
note_on channel=0 note=77 velocity=41 time=0
note_on channel=0 note=58 velocity=40 time=0
note_on channel=0 note=62 velocity=40 time=0
note_on channel=0 note=77 velocity=0 time=35
note_on channel=0 note=79 velocity=31 time=0
note_on channel=0 note=79 velocity=0 time=120
note_on channel=0 note=77 velocity=35 time=0
note_on channel=0 note=77 velocity=0 time=120
note_on channel=0 note=79 velocity=31 time=0
note_on channel=0 note=79 velocity=0 time=0
note_on channel=0 note=62 velocity=0 time=0
note_on channel=0 note=77 velocity=34 time=0
note_on channel=0 note=67 velocity=33 time=0
note_on channel=0 note=77 velocity=0 time=120
note_on channel=0 note=79 velocity=31 time=0
note_on channel=0 note=79 velocity=0 time=120
note_on channel=0 note=67 velocity=0 time=0
note_on channel=0 note=86 velocity=0 time=0
note_on channel=0 note=77 velocity=36 time=0
note_on channel=0 note=82 velocity=55 time=0
note_on channel=0 note=65 velocity=42 time=0
note_on channel=0 note=77 velocity=0 time=107
note_on channel=0 note=79 velocity=32 time=0
note_on channel=0 note=79 velocity=0 time=120
note_on channel=0 note=77 velocity=36 time=0
note_on channel=0 note=77 velocity=0 time=120
note_on channel=0 note=79 velocity=31 time=0
note_on channel=0 note=79 velocity=0 time=120
note_on channel=0 note=65 velocity=0 time=0
note_on channel=0 note=77 velocity=37 time=0
note_on channel=0 note=62 velocity=39 time=0
note_on channel=0 note=77 velocity=0 time=120
note_on channel=0 note=79 velocity=31 time=0
note_on channel=0 note=79 velocity=0 time=0
note_on channel=0 note=62 velocity=0 time=0
note_on channel=0 note=82 velocity=0 time=0
note_on channel=0 note=58 velocity=0 time=0
note_on channel=0 note=77 velocity=37 time=0
note_on channel=0 note=81 velocity=59 time=0
note_on channel=0 note=53 velocity=42 time=0
note_on channel=0 note=60 velocity=42 time=0
note_on channel=0 note=77 velocity=0 time=106
note_on channel=0 note=79 velocity=33 time=0
note_on channel=0 note=79 velocity=0 time=113
note_on channel=0 note=77 velocity=37 time=0
note_on channel=0 note=77 velocity=0 time=120
note_on channel=0 note=79 velocity=33 time=0
note_on channel=0 note=79 velocity=0 time=0
note_on channel=0 note=60 velocity=0 time=0
note_on channel=0 note=77 velocity=37 time=0
note_on channel=0 note=67 velocity=36 time=0
note_on channel=0 note=77 velocity=0 time=120
note_on channel=0 note=79 velocity=34 time=0
note_on channel=0 note=79 velocity=0 time=120
note_on channel=0 note=67 velocity=0 time=0
note_on channel=0 note=81 velocity=0 time=0
note_on channel=0 note=77 velocity=38 time=0
note_on channel=0 note=87 velocity=59 time=0
note_on channel=0 note=65 velocity=45 time=0
note_on channel=0 note=77 velocity=0 time=7
note_on channel=0 note=79 velocity=34 time=0
note_on channel=0 note=79 velocity=0 time=0
note_on channel=0 note=77 velocity=39 time=0
note_on channel=0 note=77 velocity=0 time=120
note_on channel=0 note=79 velocity=33 time=0
note_on channel=0 note=79 velocity=0 time=0
note_on channel=0 note=65 velocity=0 time=0
note_on channel=0 note=77 velocity=39 time=0
note_on channel=0 note=60 velocity=41 time=0
note_on channel=0 note=77 velocity=0 time=120
note_on channel=0 note=79 velocity=34 time=0
note_on channel=0 note=79 velocity=0 time=0
note_on channel=0 note=60 velocity=0 time=0
note_on channel=0 note=87 velocity=0 time=0
note_on channel=0 note=53 velocity=0 time=0
note_on channel=0 note=77 velocity=40 time=0
note_on channel=0 note=86 velocity=64 time=0
note_on channel=0 note=58 velocity=46 time=0
note_on channel=0 note=62 velocity=46 time=0
note_on channel=0 note=77 velocity=0 time=116
note_on channel=0 note=79 velocity=35 time=0
note_on channel=0 note=79 velocity=0 time=113
note_on channel=0 note=77 velocity=39 time=0
note_on channel=0 note=77 velocity=0 time=120
note_on channel=0 note=79 velocity=35 time=0
note_on channel=0 note=79 velocity=0 time=0
note_on channel=0 note=62 velocity=0 time=0
note_on channel=0 note=77 velocity=38 time=0
note_on channel=0 note=67 velocity=37 time=0
note_on channel=0 note=77 velocity=0 time=120
note_on channel=0 note=79 velocity=34 time=0
note_on channel=0 note=79 velocity=0 time=120
note_on channel=0 note=67 velocity=0 time=0
note_on channel=0 note=86 velocity=0 time=0
note_on channel=0 note=82 velocity=60 time=0
note_on channel=0 note=77 velocity=39 time=0
note_on channel=0 note=65 velocity=45 time=0
note_on channel=0 note=77 velocity=0 time=28
note_on channel=0 note=79 velocity=34 time=0
note_on channel=0 note=79 velocity=0 time=120
note_on channel=0 note=77 velocity=38 time=0
note_on channel=0 note=77 velocity=0 time=120
note_on channel=0 note=79 velocity=33 time=0
note_on channel=0 note=79 velocity=0 time=120
note_on channel=0 note=65 velocity=0 time=0
note_on channel=0 note=77 velocity=38 time=0
note_on channel=0 note=62 velocity=40 time=0
note_on channel=0 note=77 velocity=0 time=120
note_on channel=0 note=79 velocity=32 time=0
note_on channel=0 note=79 velocity=0 time=0
note_on channel=0 note=62 velocity=0 time=0
note_on channel=0 note=82 velocity=0 time=0
note_on channel=0 note=58 velocity=0 time=0
note_on channel=0 note=77 velocity=37 time=0
note_on channel=0 note=81 velocity=60 time=0
note_on channel=0 note=53 velocity=43 time=0
note_on channel=0 note=60 velocity=43 time=0
note_on channel=0 note=77 velocity=0 time=120
note_on channel=0 note=79 velocity=33 time=0
note_on channel=0 note=79 velocity=0 time=113
note_on channel=0 note=77 velocity=37 time=0
note_on channel=0 note=77 velocity=0 time=120
note_on channel=0 note=79 velocity=32 time=0
note_on channel=0 note=79 velocity=0 time=0
note_on channel=0 note=60 velocity=0 time=0
note_on channel=0 note=77 velocity=35 time=0
note_on channel=0 note=67 velocity=34 time=0
note_on channel=0 note=77 velocity=0 time=120
note_on channel=0 note=79 velocity=32 time=0
note_on channel=0 note=79 velocity=0 time=120
note_on channel=0 note=67 velocity=0 time=0
note_on channel=0 note=81 velocity=0 time=0
note_on channel=0 note=87 velocity=56 time=0
note_on channel=0 note=77 velocity=36 time=0
note_on channel=0 note=65 velocity=42 time=0
note_on channel=0 note=77 velocity=0 time=21
note_on channel=0 note=79 velocity=32 time=0
note_on channel=0 note=79 velocity=0 time=0
note_on channel=0 note=77 velocity=36 time=0
note_on channel=0 note=77 velocity=0 time=120
note_on channel=0 note=79 velocity=30 time=0
note_on channel=0 note=79 velocity=0 time=120
note_on channel=0 note=65 velocity=0 time=0
note_on channel=0 note=77 velocity=35 time=0
note_on channel=0 note=60 velocity=37 time=0
note_on channel=0 note=77 velocity=0 time=120
note_on channel=0 note=79 velocity=30 time=0
note_on channel=0 note=79 velocity=0 time=0
note_on channel=0 note=60 velocity=0 time=0
note_on channel=0 note=87 velocity=0 time=0
note_on channel=0 note=53 velocity=0 time=0
note_on channel=0 note=62 velocity=51 time=0
note_on channel=0 note=65 velocity=51 time=0
note_on channel=0 note=65 velocity=0 time=42
note_on channel=0 note=62 velocity=0 time=0
note_on channel=0 note=67 velocity=45 time=0
note_on channel=0 note=67 velocity=0 time=0
note_on channel=0 note=86 velocity=45 time=0
note_on channel=0 note=82 velocity=45 time=0
note_on channel=0 note=69 velocity=50 time=0
note_on channel=0 note=69 velocity=0 time=24
note_on channel=0 note=82 velocity=0 time=0
note_on channel=0 note=86 velocity=0 time=0
note_on channel=0 note=70 velocity=52 time=0
note_on channel=0 note=70 velocity=0 time=67
note_on channel=0 note=86 velocity=45 time=0
note_on channel=0 note=82 velocity=45 time=0
note_on channel=0 note=72 velocity=54 time=0
note_on channel=0 note=72 velocity=0 time=51
note_on channel=0 note=74 velocity=56 time=0
note_on channel=0 note=82 velocity=0 time=14
note_on channel=0 note=86 velocity=0 time=0
note_on channel=0 note=74 velocity=0 time=40
note_on channel=0 note=75 velocity=59 time=0
note_on channel=0 note=75 velocity=0 time=58
note_on channel=0 note=86 velocity=48 time=0
note_on channel=0 note=82 velocity=48 time=0
note_on channel=0 note=77 velocity=61 time=0
note_on channel=0 note=77 velocity=0 time=5
note_on channel=0 note=82 velocity=0 time=0
note_on channel=0 note=86 velocity=0 time=0
note_on channel=0 note=75 velocity=60 time=0
note_on channel=0 note=75 velocity=0 time=48
note_on channel=0 note=86 velocity=42 time=0
note_on channel=0 note=82 velocity=42 time=0
note_on channel=0 note=74 velocity=58 time=0
note_on channel=0 note=74 velocity=0 time=72
note_on channel=0 note=82 velocity=0 time=0
note_on channel=0 note=86 velocity=0 time=0
note_on channel=0 note=72 velocity=57 time=0
note_on channel=0 note=72 velocity=0 time=0
note_on channel=0 note=86 velocity=42 time=0
note_on channel=0 note=82 velocity=42 time=0
note_on channel=0 note=70 velocity=55 time=0
note_on channel=0 note=70 velocity=0 time=24
note_on channel=0 note=82 velocity=0 time=0
note_on channel=0 note=86 velocity=0 time=0
note_on channel=0 note=69 velocity=54 time=0
note_on channel=0 note=69 velocity=0 time=0
note_on channel=0 note=63 velocity=51 time=0
note_on channel=0 note=67 velocity=51 time=0
note_on channel=0 note=67 velocity=0 time=67
note_on channel=0 note=63 velocity=0 time=0
note_on channel=0 note=69 velocity=45 time=0
note_on channel=0 note=69 velocity=0 time=19
note_on channel=0 note=84 velocity=45 time=0
note_on channel=0 note=82 velocity=45 time=0
note_on channel=0 note=70 velocity=48 time=0
note_on channel=0 note=70 velocity=0 time=24
note_on channel=0 note=82 velocity=0 time=0
note_on channel=0 note=84 velocity=0 time=0
note_on channel=0 note=72 velocity=50 time=0
note_on channel=0 note=72 velocity=0 time=29
note_on channel=0 note=82 velocity=45 time=0
note_on channel=0 note=84 velocity=45 time=0
note_on channel=0 note=74 velocity=55 time=0
note_on channel=0 note=74 velocity=0 time=80
note_on channel=0 note=75 velocity=57 time=0
note_on channel=0 note=84 velocity=0 time=34
note_on channel=0 note=82 velocity=0 time=0
note_on channel=0 note=75 velocity=0 time=40
note_on channel=0 note=77 velocity=60 time=0
note_on channel=0 note=77 velocity=0 time=38
note_on channel=0 note=82 velocity=49 time=0
note_on channel=0 note=84 velocity=49 time=0
note_on channel=0 note=79 velocity=62 time=0
note_on channel=0 note=79 velocity=0 time=56
note_on channel=0 note=84 velocity=0 time=0
note_on channel=0 note=82 velocity=0 time=0
note_on channel=0 note=77 velocity=62 time=0
note_on channel=0 note=77 velocity=0 time=120
note_on channel=0 note=84 velocity=44 time=0
note_on channel=0 note=82 velocity=44 time=0
note_on channel=0 note=75 velocity=60 time=0
note_on channel=0 note=75 velocity=0 time=51
note_on channel=0 note=74 velocity=59 time=0
note_on channel=0 note=82 velocity=0 time=40
note_on channel=0 note=84 velocity=0 time=0
note_on channel=0 note=74 velocity=0 time=40
note_on channel=0 note=72 velocity=58 time=0
note_on channel=0 note=72 velocity=0 time=19
note_on channel=0 note=84 velocity=46 time=0
note_on channel=0 note=82 velocity=46 time=0
note_on channel=0 note=70 velocity=58 time=0
note_on channel=0 note=70 velocity=0 time=80
note_on channel=0 note=69 velocity=57 time=0
note_on channel=0 note=82 velocity=0 time=40
note_on channel=0 note=84 velocity=0 time=0
note_on channel=0 note=69 velocity=0 time=40
note_on channel=0 note=67 velocity=56 time=0
note_on channel=0 note=67 velocity=0 time=0
note_on channel=0 note=65 velocity=60 time=0
note_on channel=0 note=65 velocity=0 time=120
note_on channel=0 note=53 velocity=52 time=0
note_on channel=0 note=53 velocity=0 time=0
note_on channel=0 note=86 velocity=48 time=0
note_on channel=0 note=82 velocity=48 time=0
note_on channel=0 note=58 velocity=63 time=0
note_on channel=0 note=58 velocity=0 time=5
note_on channel=0 note=82 velocity=0 time=0
note_on channel=0 note=86 velocity=0 time=0
note_on channel=0 note=62 velocity=59 time=0
note_on channel=0 note=62 velocity=0 time=10
note_on channel=0 note=86 velocity=49 time=0
note_on channel=0 note=82 velocity=49 time=0
note_on channel=0 note=65 velocity=68 time=0
note_on channel=0 note=65 velocity=0 time=34
note_on channel=0 note=82 velocity=0 time=0
note_on channel=0 note=86 velocity=0 time=0
note_on channel=0 note=70 velocity=62 time=0
note_on channel=0 note=70 velocity=0 time=0
note_on channel=0 note=86 velocity=52 time=0
note_on channel=0 note=82 velocity=52 time=0
note_on channel=0 note=74 velocity=63 time=0
note_on channel=0 note=74 velocity=0 time=120
note_on channel=0 note=82 velocity=0 time=0
note_on channel=0 note=86 velocity=0 time=0
note_on channel=0 note=70 velocity=54 time=0
note_on channel=0 note=70 velocity=0 time=0
note_on channel=0 note=86 velocity=47 time=0
note_on channel=0 note=82 velocity=47 time=0
note_on channel=0 note=77 velocity=66 time=0
note_on channel=0 note=77 velocity=0 time=5
note_on channel=0 note=82 velocity=0 time=0
note_on channel=0 note=86 velocity=0 time=0
note_on channel=0 note=74 velocity=62 time=0
note_on channel=0 note=74 velocity=0 time=10
note_on channel=0 note=89 velocity=48 time=0
note_on channel=0 note=82 velocity=48 time=0
note_on channel=0 note=86 velocity=48 time=0
note_on channel=0 note=70 velocity=70 time=0
note_on channel=0 note=70 velocity=0 time=34
note_on channel=0 note=89 velocity=0 time=0
note_on channel=0 note=82 velocity=0 time=0
note_on channel=0 note=86 velocity=0 time=0
note_on channel=0 note=74 velocity=64 time=0
note_on channel=0 note=74 velocity=0 time=38
note_on channel=0 note=87 velocity=59 time=0
note_on channel=0 note=81 velocity=59 time=0
note_on channel=0 note=89 velocity=59 time=0
note_on channel=0 note=72 velocity=67 time=0
note_on channel=0 note=65 velocity=60 time=0
note_on channel=0 note=72 velocity=0 time=27
note_on channel=0 note=74 velocity=59 time=0
note_on channel=0 note=89 velocity=0 time=40
note_on channel=0 note=87 velocity=0 time=0
note_on channel=0 note=81 velocity=0 time=0
note_on channel=0 note=74 velocity=0 time=40
note_on channel=0 note=72 velocity=67 time=0
note_on channel=0 note=72 velocity=0 time=80
note_on channel=0 note=65 velocity=0 time=0
note_on channel=0 note=89 velocity=46 time=0
note_on channel=0 note=81 velocity=46 time=0
note_on channel=0 note=87 velocity=46 time=0
note_on channel=0 note=74 velocity=61 time=0
note_on channel=0 note=74 velocity=0 time=39
note_on channel=0 note=72 velocity=66 time=0
note_on channel=0 note=89 velocity=0 time=2
note_on channel=0 note=87 velocity=0 time=0
note_on channel=0 note=81 velocity=0 time=0
note_on channel=0 note=72 velocity=0 time=40
note_on channel=0 note=74 velocity=59 time=0
note_on channel=0 note=74 velocity=0 time=45
note_on channel=0 note=87 velocity=45 time=0
note_on channel=0 note=89 velocity=45 time=0
note_on channel=0 note=81 velocity=45 time=0
note_on channel=0 note=72 velocity=66 time=0
note_on channel=0 note=72 velocity=0 time=49
note_on channel=0 note=74 velocity=59 time=0
note_on channel=0 note=87 velocity=0 time=12
note_on channel=0 note=81 velocity=0 time=0
note_on channel=0 note=89 velocity=0 time=0
note_on channel=0 note=74 velocity=0 time=40
note_on channel=0 note=72 velocity=62 time=0
note_on channel=0 note=72 velocity=0 time=55
note_on channel=0 note=89 velocity=53 time=0
note_on channel=0 note=81 velocity=53 time=0
note_on channel=0 note=87 velocity=53 time=0
note_on channel=0 note=74 velocity=56 time=0
note_on channel=0 note=74 velocity=0 time=77
note_on channel=0 note=72 velocity=63 time=0
note_on channel=0 note=89 velocity=0 time=40
note_on channel=0 note=87 velocity=0 time=0
note_on channel=0 note=81 velocity=0 time=0
note_on channel=0 note=72 velocity=0 time=40
note_on channel=0 note=74 velocity=55 time=0
note_on channel=0 note=74 velocity=0 time=80
note_on channel=0 note=87 velocity=45 time=0
note_on channel=0 note=89 velocity=45 time=0
note_on channel=0 note=81 velocity=45 time=0
note_on channel=0 note=72 velocity=63 time=0
note_on channel=0 note=72 velocity=0 time=13
note_on channel=0 note=74 velocity=55 time=0
note_on channel=0 note=87 velocity=0 time=14
note_on channel=0 note=81 velocity=0 time=0
note_on channel=0 note=89 velocity=0 time=0
note_on channel=0 note=74 velocity=0 time=16
note_on channel=0 note=72 velocity=63 time=0
note_on channel=0 note=72 velocity=0 time=0
note_on channel=0 note=89 velocity=44 time=0
note_on channel=0 note=81 velocity=44 time=0
note_on channel=0 note=87 velocity=44 time=0
note_on channel=0 note=74 velocity=55 time=0
note_on channel=0 note=74 velocity=0 time=3
note_on channel=0 note=72 velocity=63 time=0
note_on channel=0 note=89 velocity=0 time=40
note_on channel=0 note=87 velocity=0 time=0
note_on channel=0 note=81 velocity=0 time=0
note_on channel=0 note=72 velocity=0 time=40
note_on channel=0 note=74 velocity=59 time=0
note_on channel=0 note=74 velocity=0 time=10
note_on channel=0 note=65 velocity=62 time=0
note_on channel=0 note=65 velocity=0 time=53
note_on channel=0 note=71 velocity=55 time=0
note_on channel=0 note=71 velocity=0 time=0
note_on channel=0 note=72 velocity=58 time=0
note_on channel=0 note=72 velocity=0 time=5
note_on channel=0 note=74 velocity=60 time=0
note_on channel=0 note=74 velocity=0 time=0
note_on channel=0 note=80 velocity=70 time=0
note_on channel=0 note=92 velocity=83 time=0
note_on channel=0 note=72 velocity=58 time=0
note_on channel=0 note=72 velocity=0 time=120
note_on channel=0 note=71 velocity=58 time=0
note_on channel=0 note=71 velocity=0 time=80
note_on channel=0 note=63 velocity=61 time=0
note_on channel=0 note=63 velocity=0 time=5
note_on channel=0 note=72 velocity=56 time=0
note_on channel=0 note=72 velocity=0 time=120
note_on channel=0 note=74 velocity=59 time=0
note_on channel=0 note=74 velocity=0 time=120
note_on channel=0 note=75 velocity=61 time=0
note_on channel=0 note=75 velocity=0 time=120
note_on channel=0 note=92 velocity=0 time=0
note_on channel=0 note=80 velocity=0 time=0
note_on channel=0 note=79 velocity=66 time=0
note_on channel=0 note=91 velocity=79 time=0
note_on channel=0 note=74 velocity=57 time=0
note_on channel=0 note=74 velocity=0 time=40
note_on channel=0 note=72 velocity=57 time=0
note_on channel=0 note=72 velocity=0 time=10
note_on channel=0 note=91 velocity=0 time=0
note_on channel=0 note=79 velocity=0 time=0
note_on channel=0 note=63 velocity=62 time=6
note_on channel=0 note=69 velocity=55 time=53
note_on channel=0 note=63 velocity=0 time=1
note_on channel=0 note=69 velocity=0 time=0
note_on channel=0 note=70 velocity=58 time=0
note_on channel=0 note=72 velocity=60 time=57
note_on channel=0 note=70 velocity=0 time=5
note_on channel=0 note=72 velocity=0 time=5
note_on channel=0 note=78 velocity=69 time=0
note_on channel=0 note=90 velocity=81 time=0
note_on channel=0 note=70 velocity=59 time=0
note_on channel=0 note=70 velocity=0 time=120
note_on channel=0 note=69 velocity=59 time=0
note_on channel=0 note=69 velocity=0 time=80
note_on channel=0 note=62 velocity=62 time=0
note_on channel=0 note=62 velocity=0 time=5
note_on channel=0 note=70 velocity=57 time=0
note_on channel=0 note=70 velocity=0 time=120
note_on channel=0 note=72 velocity=61 time=0
note_on channel=0 note=72 velocity=0 time=120
note_on channel=0 note=74 velocity=64 time=0
note_on channel=0 note=74 velocity=0 time=120
note_on channel=0 note=90 velocity=0 time=0
note_on channel=0 note=78 velocity=0 time=0
note_on channel=0 note=77 velocity=67 time=0
note_on channel=0 note=89 velocity=80 time=0
note_on channel=0 note=72 velocity=59 time=0
note_on channel=0 note=72 velocity=0 time=40
note_on channel=0 note=70 velocity=60 time=0
note_on channel=0 note=70 velocity=0 time=10
note_on channel=0 note=89 velocity=0 time=0
note_on channel=0 note=77 velocity=0 time=0
note_on channel=0 note=53 velocity=65 time=6
note_on channel=0 note=59 velocity=58 time=14
note_on channel=0 note=53 velocity=0 time=6
note_on channel=0 note=59 velocity=0 time=0
note_on channel=0 note=60 velocity=62 time=0
note_on channel=0 note=62 velocity=64 time=38
note_on channel=0 note=60 velocity=0 time=5
note_on channel=0 note=62 velocity=0 time=62
note_on channel=0 note=68 velocity=73 time=0
note_on channel=0 note=80 velocity=86 time=0
note_on channel=0 note=60 velocity=62 time=0
note_on channel=0 note=60 velocity=0 time=120
note_on channel=0 note=59 velocity=63 time=0
note_on channel=0 note=59 velocity=0 time=115
note_on channel=0 note=51 velocity=67 time=0
note_on channel=0 note=51 velocity=0 time=5
note_on channel=0 note=60 velocity=61 time=0
note_on channel=0 note=60 velocity=0 time=120
note_on channel=0 note=62 velocity=65 time=0
note_on channel=0 note=62 velocity=0 time=120
note_on channel=0 note=63 velocity=67 time=0
note_on channel=0 note=63 velocity=0 time=120
note_on channel=0 note=80 velocity=0 time=0
note_on channel=0 note=68 velocity=0 time=0
note_on channel=0 note=67 velocity=71 time=0
note_on channel=0 note=79 velocity=86 time=0
note_on channel=0 note=62 velocity=63 time=0
note_on channel=0 note=62 velocity=0 time=0
note_on channel=0 note=60 velocity=63 time=0
note_on channel=0 note=60 velocity=0 time=0
note_on channel=0 note=79 velocity=0 time=0
note_on channel=0 note=67 velocity=0 time=0
note_on channel=0 note=51 velocity=70 time=6
note_on channel=0 note=57 velocity=62 time=14
note_on channel=0 note=51 velocity=0 time=6
note_on channel=0 note=57 velocity=0 time=19
note_on channel=0 note=58 velocity=66 time=0
note_on channel=0 note=60 velocity=68 time=19
note_on channel=0 note=58 velocity=0 time=5
note_on channel=0 note=60 velocity=0 time=62
note_on channel=0 note=66 velocity=78 time=0
note_on channel=0 note=78 velocity=92 time=0
note_on channel=0 note=58 velocity=66 time=0
note_on channel=0 note=58 velocity=0 time=0
note_on channel=0 note=57 velocity=67 time=0
note_on channel=0 note=57 velocity=0 time=80
note_on channel=0 note=50 velocity=70 time=0
note_on channel=0 note=50 velocity=0 time=5
note_on channel=0 note=58 velocity=65 time=0
note_on channel=0 note=58 velocity=0 time=120
note_on channel=0 note=60 velocity=69 time=0
note_on channel=0 note=60 velocity=0 time=120
note_on channel=0 note=62 velocity=71 time=0
note_on channel=0 note=62 velocity=0 time=120
note_on channel=0 note=78 velocity=0 time=0
note_on channel=0 note=66 velocity=0 time=0
note_on channel=0 note=65 velocity=75 time=0
note_on channel=0 note=77 velocity=90 time=0
note_on channel=0 note=60 velocity=67 time=0
note_on channel=0 note=60 velocity=0 time=0
note_on channel=0 note=58 velocity=67 time=0
note_on channel=0 note=58 velocity=0 time=0
note_on channel=0 note=77 velocity=0 time=0
note_on channel=0 note=65 velocity=0 time=0
note_on channel=0 note=50 velocity=70 time=0
note_on channel=0 note=50 velocity=0 time=120
note_on channel=0 note=53 velocity=62 time=0
note_on channel=0 note=53 velocity=0 time=0
note_on channel=0 note=70 velocity=60 time=0
note_on channel=0 note=77 velocity=71 time=0
note_on channel=0 note=65 velocity=60 time=0
note_on channel=0 note=58 velocity=66 time=0
note_on channel=0 note=58 velocity=0 time=120
note_on channel=0 note=70 velocity=0 time=0
note_on channel=0 note=77 velocity=0 time=0
note_on channel=0 note=65 velocity=0 time=0
note_on channel=0 note=62 velocity=68 time=0
note_on channel=0 note=62 velocity=0 time=120
note_on channel=0 note=65 velocity=57 time=0
note_on channel=0 note=77 velocity=68 time=0
note_on channel=0 note=70 velocity=57 time=0
note_on channel=0 note=58 velocity=66 time=0
note_on channel=0 note=58 velocity=0 time=0
note_on channel=0 note=65 velocity=0 time=0
note_on channel=0 note=77 velocity=0 time=0
note_on channel=0 note=70 velocity=0 time=0
note_on channel=0 note=53 velocity=63 time=0
note_on channel=0 note=53 velocity=0 time=0
note_on channel=0 note=43 velocity=70 time=0
note_on channel=0 note=43 velocity=0 time=5
note_on channel=0 note=46 velocity=65 time=0
note_on channel=0 note=46 velocity=0 time=120
note_on channel=0 note=70 velocity=58 time=0
note_on channel=0 note=75 velocity=69 time=0
note_on channel=0 note=67 velocity=58 time=0
note_on channel=0 note=50 velocity=69 time=0
note_on channel=0 note=50 velocity=0 time=120
note_on channel=0 note=70 velocity=0 time=0
note_on channel=0 note=75 velocity=0 time=0
note_on channel=0 note=67 velocity=0 time=0
note_on channel=0 note=55 velocity=71 time=0
note_on channel=0 note=55 velocity=0 time=120
note_on channel=0 note=74 velocity=65 time=0
note_on channel=0 note=67 velocity=55 time=0
note_on channel=0 note=70 velocity=55 time=0
note_on channel=0 note=50 velocity=67 time=0
note_on channel=0 note=50 velocity=0 time=120
note_on channel=0 note=74 velocity=0 time=0
note_on channel=0 note=67 velocity=0 time=0
note_on channel=0 note=70 velocity=0 time=0
note_on channel=0 note=46 velocity=64 time=0
note_on channel=0 note=46 velocity=0 time=0
note_on channel=0 note=39 velocity=70 time=0
note_on channel=0 note=39 velocity=0 time=120
note_on channel=0 note=43 velocity=62 time=0
note_on channel=0 note=43 velocity=0 time=120
note_on channel=0 note=63 velocity=60 time=0
note_on channel=0 note=74 velocity=71 time=0
note_on channel=0 note=67 velocity=60 time=0
note_on channel=0 note=48 velocity=66 time=0
note_on channel=0 note=48 velocity=0 time=120
note_on channel=0 note=63 velocity=0 time=0
note_on channel=0 note=74 velocity=0 time=0
note_on channel=0 note=67 velocity=0 time=0
note_on channel=0 note=51 velocity=68 time=0
note_on channel=0 note=51 velocity=0 time=120
note_on channel=0 note=72 velocity=68 time=0
note_on channel=0 note=67 velocity=57 time=0
note_on channel=0 note=63 velocity=57 time=0
note_on channel=0 note=48 velocity=66 time=0
note_on channel=0 note=48 velocity=0 time=0
note_on channel=0 note=72 velocity=0 time=0
note_on channel=0 note=67 velocity=0 time=0
note_on channel=0 note=63 velocity=0 time=0
note_on channel=0 note=43 velocity=63 time=0
note_on channel=0 note=43 velocity=0 time=0
note_on channel=0 note=41 velocity=70 time=0
note_on channel=0 note=41 velocity=0 time=5
note_on channel=0 note=48 velocity=65 time=0
note_on channel=0 note=48 velocity=0 time=120
note_on channel=0 note=70 velocity=69 time=0
note_on channel=0 note=63 velocity=58 time=0
note_on channel=0 note=60 velocity=58 time=0
note_on channel=0 note=51 velocity=69 time=0
note_on channel=0 note=51 velocity=0 time=120
note_on channel=0 note=70 velocity=0 time=0
note_on channel=0 note=63 velocity=0 time=0
note_on channel=0 note=60 velocity=0 time=0
note_on channel=0 note=53 velocity=71 time=0
note_on channel=0 note=53 velocity=0 time=120
note_on channel=0 note=69 velocity=65 time=0
note_on channel=0 note=63 velocity=55 time=0
note_on channel=0 note=60 velocity=55 time=0
note_on channel=0 note=51 velocity=67 time=0
note_on channel=0 note=51 velocity=0 time=120
note_on channel=0 note=69 velocity=0 time=0
note_on channel=0 note=63 velocity=0 time=0
note_on channel=0 note=60 velocity=0 time=0
note_on channel=0 note=48 velocity=64 time=0
note_on channel=0 note=48 velocity=0 time=0
note_on channel=0 note=38 velocity=70 time=0
note_on channel=0 note=38 velocity=0 time=120
note_on channel=0 note=41 velocity=62 time=0
note_on channel=0 note=41 velocity=0 time=120
note_on channel=0 note=70 velocity=71 time=0
note_on channel=0 note=65 velocity=60 time=0
note_on channel=0 note=58 velocity=60 time=0
note_on channel=0 note=46 velocity=66 time=0
note_on channel=0 note=46 velocity=0 time=120
note_on channel=0 note=70 velocity=0 time=0
note_on channel=0 note=65 velocity=0 time=0
note_on channel=0 note=58 velocity=0 time=0
note_on channel=0 note=50 velocity=68 time=0
note_on channel=0 note=50 velocity=0 time=120
note_on channel=0 note=65 velocity=69 time=0
note_on channel=0 note=62 velocity=58 time=0
note_on channel=0 note=58 velocity=58 time=0
note_on channel=0 note=46 velocity=67 time=0
note_on channel=0 note=46 velocity=0 time=0
note_on channel=0 note=65 velocity=0 time=0
note_on channel=0 note=62 velocity=0 time=0
note_on channel=0 note=58 velocity=0 time=0
note_on channel=0 note=41 velocity=64 time=0
note_on channel=0 note=41 velocity=0 time=0
note_on channel=0 note=31 velocity=72 time=0
note_on channel=0 note=31 velocity=0 time=5
note_on channel=0 note=34 velocity=67 time=0
note_on channel=0 note=34 velocity=0 time=120
note_on channel=0 note=55 velocity=74 time=0
note_on channel=0 note=63 velocity=72 time=0
note_on channel=0 note=58 velocity=60 time=0
note_on channel=0 note=38 velocity=72 time=0
note_on channel=0 note=38 velocity=0 time=120
note_on channel=0 note=55 velocity=0 time=0
note_on channel=0 note=63 velocity=0 time=0
note_on channel=0 note=58 velocity=0 time=0
note_on channel=0 note=43 velocity=74 time=0
note_on channel=0 note=43 velocity=0 time=120
note_on channel=0 note=62 velocity=68 time=0
note_on channel=0 note=58 velocity=58 time=0
note_on channel=0 note=55 velocity=58 time=0
note_on channel=0 note=38 velocity=71 time=0
note_on channel=0 note=38 velocity=0 time=120
note_on channel=0 note=62 velocity=0 time=0
note_on channel=0 note=58 velocity=0 time=0
note_on channel=0 note=55 velocity=0 time=0
note_on channel=0 note=34 velocity=67 time=0
note_on channel=0 note=34 velocity=0 time=0
note_on channel=0 note=39 velocity=74 time=0
note_on channel=0 note=39 velocity=0 time=120
note_on channel=0 note=43 velocity=66 time=0
note_on channel=0 note=43 velocity=0 time=120
note_on channel=0 note=62 velocity=76 time=0
note_on channel=0 note=55 velocity=64 time=0
note_on channel=0 note=51 velocity=64 time=0
note_on channel=0 note=48 velocity=71 time=0
note_on channel=0 note=48 velocity=0 time=120
note_on channel=0 note=62 velocity=0 time=0
note_on channel=0 note=55 velocity=0 time=0
note_on channel=0 note=51 velocity=0 time=0
note_on channel=0 note=43 velocity=74 time=0
note_on channel=0 note=43 velocity=0 time=120
note_on channel=0 note=60 velocity=74 time=0
note_on channel=0 note=55 velocity=62 time=0
note_on channel=0 note=51 velocity=62 time=0
note_on channel=0 note=39 velocity=72 time=0
note_on channel=0 note=51 velocity=0 time=0
note_on channel=0 note=60 velocity=0 time=0
note_on channel=0 note=55 velocity=0 time=0
note_on channel=0 note=39 velocity=0 time=0
note_on channel=0 note=29 velocity=77 time=0
note_on channel=0 note=29 velocity=0 time=5
note_on channel=0 note=36 velocity=72 time=0
note_on channel=0 note=36 velocity=0 time=120
note_on channel=0 note=48 velocity=79 time=0
note_on channel=0 note=51 velocity=64 time=0
note_on channel=0 note=58 velocity=77 time=0
note_on channel=0 note=39 velocity=77 time=0
note_on channel=0 note=39 velocity=0 time=120
note_on channel=0 note=48 velocity=0 time=0
note_on channel=0 note=51 velocity=0 time=0
note_on channel=0 note=58 velocity=0 time=0
note_on channel=0 note=41 velocity=80 time=0
note_on channel=0 note=41 velocity=0 time=120
note_on channel=0 note=51 velocity=62 time=0
note_on channel=0 note=57 velocity=73 time=0
note_on channel=0 note=48 velocity=62 time=0
note_on channel=0 note=29 velocity=75 time=0
note_on channel=0 note=29 velocity=0 time=0
note_on channel=0 note=51 velocity=0 time=0
note_on channel=0 note=57 velocity=0 time=0
note_on channel=0 note=48 velocity=0 time=0
note_on channel=0 note=41 velocity=72 time=0
note_on channel=0 note=41 velocity=0 time=0
note_on channel=0 note=46 velocity=62 time=0
note_on channel=0 note=34 velocity=75 time=0
note_on channel=0 note=34 velocity=0 time=12
note_on channel=0 note=46 velocity=0 time=0
note_on channel=0 note=48 velocity=63 time=0
note_on channel=0 note=48 velocity=0 time=17
note_on channel=0 note=50 velocity=65 time=0
note_on channel=0 note=46 velocity=75 time=0
note_on channel=0 note=46 velocity=0 time=22
note_on channel=0 note=50 velocity=0 time=0
note_on channel=0 note=51 velocity=66 time=0
note_on channel=0 note=51 velocity=0 time=0
note_on channel=0 note=53 velocity=67 time=0
note_on channel=0 note=46 velocity=64 time=0
note_on channel=0 note=50 velocity=77 time=0
note_on channel=0 note=53 velocity=0 time=28
note_on channel=0 note=55 velocity=68 time=0
note_on channel=0 note=50 velocity=0 time=40
note_on channel=0 note=46 velocity=0 time=0
note_on channel=0 note=55 velocity=0 time=40
note_on channel=0 note=57 velocity=68 time=0
note_on channel=0 note=57 velocity=0 time=80
note_on channel=0 note=58 velocity=69 time=0
note_on channel=0 note=46 velocity=70 time=0
note_on channel=0 note=50 velocity=70 time=0
note_on channel=0 note=53 velocity=83 time=0
note_on channel=0 note=58 velocity=0 time=34
note_on channel=0 note=60 velocity=70 time=0
note_on channel=0 note=60 velocity=0 time=40
note_on channel=0 note=62 velocity=71 time=0
note_on channel=0 note=62 velocity=0 time=0
note_on channel=0 note=63 velocity=72 time=0
note_on channel=0 note=63 velocity=0 time=80
note_on channel=0 note=65 velocity=72 time=0
note_on channel=0 note=65 velocity=0 time=80
note_on channel=0 note=67 velocity=73 time=0
note_on channel=0 note=67 velocity=0 time=80
note_on channel=0 note=53 velocity=0 time=0
note_on channel=0 note=50 velocity=0 time=0
note_on channel=0 note=46 velocity=0 time=0
note_on channel=0 note=69 velocity=85 time=0
note_on channel=0 note=48 velocity=60 time=0
note_on channel=0 note=41 velocity=60 time=0
note_on channel=0 note=53 velocity=71 time=0
note_on channel=0 note=53 velocity=0 time=0
note_on channel=0 note=69 velocity=0 time=0
note_on channel=0 note=48 velocity=0 time=0
note_on channel=0 note=41 velocity=0 time=0
note_on channel=0 note=57 velocity=67 time=0
note_on channel=0 note=57 velocity=0 time=7
note_on channel=0 note=58 velocity=62 time=0
note_on channel=0 note=46 velocity=67 time=0
note_on channel=0 note=53 velocity=79 time=0
note_on channel=0 note=50 velocity=67 time=0
note_on channel=0 note=50 velocity=0 time=12
note_on channel=0 note=58 velocity=0 time=0
note_on channel=0 note=46 velocity=0 time=0
note_on channel=0 note=53 velocity=0 time=0
note_on channel=0 note=60 velocity=63 time=0
note_on channel=0 note=60 velocity=0 time=36
note_on channel=0 note=62 velocity=65 time=0
note_on channel=0 note=46 velocity=63 time=0
note_on channel=0 note=50 velocity=63 time=0
note_on channel=0 note=53 velocity=75 time=0
note_on channel=0 note=53 velocity=0 time=60
note_on channel=0 note=62 velocity=0 time=0
note_on channel=0 note=46 velocity=0 time=0
note_on channel=0 note=50 velocity=0 time=0
note_on channel=0 note=63 velocity=66 time=0
note_on channel=0 note=63 velocity=0 time=84
note_on channel=0 note=65 velocity=67 time=0
note_on channel=0 note=53 velocity=74 time=0
note_on channel=0 note=46 velocity=62 time=0
note_on channel=0 note=50 velocity=62 time=0
note_on channel=0 note=65 velocity=0 time=68
note_on channel=0 note=67 velocity=68 time=0
note_on channel=0 note=53 velocity=0 time=40
note_on channel=0 note=50 velocity=0 time=0
note_on channel=0 note=46 velocity=0 time=0
note_on channel=0 note=67 velocity=0 time=40
note_on channel=0 note=69 velocity=68 time=0
note_on channel=0 note=69 velocity=0 time=80
note_on channel=0 note=70 velocity=69 time=0
note_on channel=0 note=46 velocity=69 time=0
note_on channel=0 note=50 velocity=69 time=0
note_on channel=0 note=53 velocity=82 time=0
note_on channel=0 note=70 velocity=0 time=11
note_on channel=0 note=72 velocity=70 time=0
note_on channel=0 note=72 velocity=0 time=40
note_on channel=0 note=74 velocity=71 time=0
note_on channel=0 note=74 velocity=0 time=0
note_on channel=0 note=75 velocity=72 time=0
note_on channel=0 note=75 velocity=0 time=80
note_on channel=0 note=77 velocity=72 time=0
note_on channel=0 note=77 velocity=0 time=80
note_on channel=0 note=79 velocity=73 time=0
note_on channel=0 note=79 velocity=0 time=80
note_on channel=0 note=53 velocity=0 time=0
note_on channel=0 note=50 velocity=0 time=0
note_on channel=0 note=46 velocity=0 time=0
note_on channel=0 note=81 velocity=85 time=0
note_on channel=0 note=48 velocity=63 time=0
note_on channel=0 note=41 velocity=63 time=0
note_on channel=0 note=53 velocity=75 time=0
note_on channel=0 note=53 velocity=0 time=0
note_on channel=0 note=81 velocity=0 time=0
note_on channel=0 note=48 velocity=0 time=0
note_on channel=0 note=41 velocity=0 time=0
note_on channel=0 note=69 velocity=67 time=0
note_on channel=0 note=69 velocity=0 time=7
note_on channel=0 note=70 velocity=62 time=0
note_on channel=0 note=46 velocity=64 time=0
note_on channel=0 note=53 velocity=76 time=0
note_on channel=0 note=50 velocity=64 time=0
note_on channel=0 note=50 velocity=0 time=31
note_on channel=0 note=70 velocity=0 time=0
note_on channel=0 note=46 velocity=0 time=0
note_on channel=0 note=53 velocity=0 time=0
note_on channel=0 note=72 velocity=63 time=0
note_on channel=0 note=72 velocity=0 time=75
note_on channel=0 note=74 velocity=65 time=0
note_on channel=0 note=46 velocity=63 time=0
note_on channel=0 note=50 velocity=63 time=0
note_on channel=0 note=53 velocity=75 time=0
note_on channel=0 note=53 velocity=0 time=22
note_on channel=0 note=74 velocity=0 time=0
note_on channel=0 note=46 velocity=0 time=0
note_on channel=0 note=50 velocity=0 time=0
note_on channel=0 note=75 velocity=66 time=0
note_on channel=0 note=75 velocity=0 time=65
note_on channel=0 note=77 velocity=68 time=0
note_on channel=0 note=53 velocity=73 time=0
note_on channel=0 note=46 velocity=61 time=0
note_on channel=0 note=50 velocity=61 time=0
note_on channel=0 note=77 velocity=0 time=68
note_on channel=0 note=79 velocity=70 time=0
note_on channel=0 note=53 velocity=0 time=40
note_on channel=0 note=50 velocity=0 time=0
note_on channel=0 note=46 velocity=0 time=0
note_on channel=0 note=79 velocity=0 time=40
note_on channel=0 note=81 velocity=72 time=0
note_on channel=0 note=81 velocity=0 time=80
note_on channel=0 note=82 velocity=74 time=0
note_on channel=0 note=46 velocity=70 time=0
note_on channel=0 note=50 velocity=70 time=0
note_on channel=0 note=53 velocity=83 time=0
note_on channel=0 note=82 velocity=0 time=0
note_on channel=0 note=84 velocity=75 time=0
note_on channel=0 note=84 velocity=0 time=0
note_on channel=0 note=86 velocity=77 time=0
note_on channel=0 note=86 velocity=0 time=80
note_on channel=0 note=87 velocity=79 time=0
note_on channel=0 note=87 velocity=0 time=80
note_on channel=0 note=89 velocity=81 time=0
note_on channel=0 note=89 velocity=0 time=80
note_on channel=0 note=46 velocity=0 time=0
note_on channel=0 note=50 velocity=0 time=0
note_on channel=0 note=53 velocity=0 time=0
note_on channel=0 note=91 velocity=83 time=0
note_on channel=0 note=48 velocity=63 time=0
note_on channel=0 note=41 velocity=63 time=0
note_on channel=0 note=53 velocity=75 time=0
note_on channel=0 note=91 velocity=0 time=31
note_on channel=0 note=93 velocity=92 time=0
note_on channel=0 note=48 velocity=0 time=0
note_on channel=0 note=53 velocity=0 time=0
note_on channel=0 note=41 velocity=0 time=0
note_on channel=0 note=93 velocity=0 time=40
note_on channel=0 note=81 velocity=85 time=0
note_on channel=0 note=81 velocity=0 time=80
note_on channel=0 note=82 velocity=89 time=0
note_on channel=0 note=94 velocity=105 time=0
note_on channel=0 note=46 velocity=69 time=0
note_on channel=0 note=58 velocity=82 time=0
note_on channel=0 note=50 velocity=69 time=0
note_on channel=0 note=53 velocity=69 time=0
note_on channel=0 note=53 velocity=0 time=26
note_on channel=0 note=94 velocity=0 time=0
note_on channel=0 note=46 velocity=0 time=0
note_on channel=0 note=82 velocity=0 time=0
note_on channel=0 note=50 velocity=0 time=0
note_on channel=0 note=58 velocity=0 time=0
note_on channel=0 note=82 velocity=90 time=240
note_on channel=0 note=77 velocity=75 time=0
note_on channel=0 note=74 velocity=75 time=0
note_on channel=0 note=46 velocity=69 time=0
note_on channel=0 note=50 velocity=69 time=0
note_on channel=0 note=58 velocity=82 time=0
note_on channel=0 note=53 velocity=69 time=0
note_on channel=0 note=53 velocity=0 time=53
note_on channel=0 note=50 velocity=0 time=0
note_on channel=0 note=77 velocity=0 time=0
note_on channel=0 note=74 velocity=0 time=0
note_on channel=0 note=82 velocity=0 time=0
note_on channel=0 note=58 velocity=0 time=0
note_on channel=0 note=46 velocity=0 time=0
note_on channel=0 note=62 velocity=74 time=240
note_on channel=0 note=65 velocity=74 time=0
note_on channel=0 note=70 velocity=89 time=0
note_on channel=0 note=46 velocity=69 time=0
note_on channel=0 note=50 velocity=69 time=0
note_on channel=0 note=53 velocity=69 time=0
note_on channel=0 note=58 velocity=82 time=0
note_on channel=0 note=58 velocity=0 time=413
note_on channel=0 note=50 velocity=0 time=0
note_on channel=0 note=65 velocity=0 time=0
note_on channel=0 note=70 velocity=0 time=0
note_on channel=0 note=62 velocity=0 time=0
note_on channel=0 note=53 velocity=0 time=0
note_on channel=0 note=46 velocity=0 time=0
note_on channel=0 note=70 velocity=45 time=0
note_on channel=0 note=70 velocity=0 time=120
note_on channel=0 note=70 velocity=57 time=0
note_on channel=0 note=70 velocity=0 time=180
note_on channel=0 note=66 velocity=45 time=0
note_on channel=0 note=66 velocity=0 time=120
note_on channel=0 note=63 velocity=45 time=0
note_on channel=0 note=63 velocity=0 time=120
note_on channel=0 note=58 velocity=56 time=0
note_on channel=0 note=58 velocity=0 time=180
note_on channel=0 note=54 velocity=45 time=0
note_on channel=0 note=54 velocity=0 time=120
note_on channel=0 note=51 velocity=45 time=0
note_on channel=0 note=51 velocity=0 time=120
note_on channel=0 note=46 velocity=51 time=0
note_on channel=0 note=46 velocity=0 time=60
note_on channel=0 note=42 velocity=45 time=60
note_on channel=0 note=42 velocity=0 time=120
note_on channel=0 note=39 velocity=45 time=120
note_on channel=0 note=39 velocity=0 time=120
note_on channel=0 note=82 velocity=58 time=600
note_on channel=0 note=70 velocity=49 time=0
note_on channel=0 note=70 velocity=0 time=240
note_on channel=0 note=82 velocity=0 time=0
note_on channel=0 note=82 velocity=59 time=0
note_on channel=0 note=70 velocity=49 time=0
note_on channel=0 note=66 velocity=51 time=240
note_on channel=0 note=63 velocity=43 time=0
note_on channel=0 note=63 velocity=0 time=120
note_on channel=0 note=66 velocity=0 time=0
note_on channel=0 note=66 velocity=51 time=120
note_on channel=0 note=63 velocity=43 time=0
note_on channel=0 note=63 velocity=0 time=120
note_on channel=0 note=66 velocity=0 time=0
note_on channel=0 note=70 velocity=0 time=0
note_on channel=0 note=82 velocity=0 time=0
note_on channel=0 note=71 velocity=52 time=0
note_on channel=0 note=83 velocity=62 time=0
note_on channel=0 note=63 velocity=46 time=0
note_on channel=0 note=66 velocity=55 time=0
note_on channel=0 note=66 velocity=0 time=120
note_on channel=0 note=63 velocity=0 time=0
note_on channel=0 note=63 velocity=43 time=120
note_on channel=0 note=66 velocity=51 time=0
note_on channel=0 note=66 velocity=0 time=34
note_on channel=0 note=63 velocity=0 time=0
note_on channel=0 note=66 velocity=51 time=0
note_on channel=0 note=63 velocity=43 time=0
note_on channel=0 note=63 velocity=0 time=120
note_on channel=0 note=66 velocity=0 time=0
note_on channel=0 note=83 velocity=0 time=0
note_on channel=0 note=71 velocity=0 time=0
note_on channel=0 note=72 velocity=59 time=0
note_on channel=0 note=84 velocity=70 time=0
note_on channel=0 note=66 velocity=50 time=0
note_on channel=0 note=63 velocity=50 time=0
note_on channel=0 note=68 velocity=59 time=0
note_on channel=0 note=68 velocity=0 time=120
note_on channel=0 note=66 velocity=0 time=0
note_on channel=0 note=63 velocity=0 time=0
note_on channel=0 note=66 velocity=43 time=120
note_on channel=0 note=63 velocity=43 time=0
note_on channel=0 note=68 velocity=51 time=0
note_on channel=0 note=68 velocity=0 time=120
note_on channel=0 note=66 velocity=0 time=0
note_on channel=0 note=63 velocity=0 time=0
note_on channel=0 note=63 velocity=43 time=120
note_on channel=0 note=68 velocity=51 time=0
note_on channel=0 note=66 velocity=43 time=0
note_on channel=0 note=66 velocity=0 time=120
note_on channel=0 note=63 velocity=0 time=0
note_on channel=0 note=68 velocity=0 time=0
note_on channel=0 note=84 velocity=0 time=120
note_on channel=0 note=72 velocity=0 time=0
note_on channel=0 note=85 velocity=60 time=0
note_on channel=0 note=73 velocity=50 time=0
note_on channel=0 note=61 velocity=47 time=0
note_on channel=0 note=68 velocity=56 time=0
note_on channel=0 note=65 velocity=47 time=0
note_on channel=0 note=65 velocity=0 time=81
note_on channel=0 note=61 velocity=0 time=0
note_on channel=0 note=68 velocity=0 time=0
note_on channel=0 note=65 velocity=44 time=120
note_on channel=0 note=68 velocity=52 time=0
note_on channel=0 note=61 velocity=44 time=0
note_on channel=0 note=61 velocity=0 time=58
note_on channel=0 note=65 velocity=0 time=0
note_on channel=0 note=68 velocity=0 time=0
note_on channel=0 note=73 velocity=0 time=120
note_on channel=0 note=85 velocity=0 time=0
note_on channel=0 note=73 velocity=45 time=0
note_on channel=0 note=65 velocity=28 time=0
note_on channel=0 note=61 velocity=28 time=0
note_on channel=0 note=68 velocity=32 time=0
note_on channel=0 note=68 velocity=0 time=120
note_on channel=0 note=73 velocity=0 time=0
note_on channel=0 note=65 velocity=0 time=0
note_on channel=0 note=61 velocity=0 time=0
note_on channel=0 note=73 velocity=59 time=0
note_on channel=0 note=73 velocity=0 time=180
note_on channel=0 note=70 velocity=45 time=0
note_on channel=0 note=70 velocity=0 time=120
note_on channel=0 note=66 velocity=45 time=0
note_on channel=0 note=66 velocity=0 time=120
note_on channel=0 note=61 velocity=56 time=0
note_on channel=0 note=61 velocity=0 time=180
note_on channel=0 note=58 velocity=45 time=0
note_on channel=0 note=58 velocity=0 time=120
note_on channel=0 note=54 velocity=45 time=0
note_on channel=0 note=54 velocity=0 time=120
note_on channel=0 note=49 velocity=51 time=0
note_on channel=0 note=49 velocity=0 time=180
note_on channel=0 note=46 velocity=45 time=0
note_on channel=0 note=46 velocity=0 time=120
note_on channel=0 note=42 velocity=45 time=120
note_on channel=0 note=42 velocity=0 time=120
note_on channel=0 note=73 velocity=49 time=600
note_on channel=0 note=85 velocity=58 time=0
note_on channel=0 note=85 velocity=0 time=238
note_on channel=0 note=73 velocity=0 time=0
note_on channel=0 note=85 velocity=59 time=2
note_on channel=0 note=73 velocity=49 time=0
note_on channel=0 note=66 velocity=43 time=240
note_on channel=0 note=70 velocity=51 time=0
note_on channel=0 note=70 velocity=0 time=103
note_on channel=0 note=66 velocity=0 time=0
note_on channel=0 note=66 velocity=43 time=120
note_on channel=0 note=70 velocity=51 time=0
note_on channel=0 note=70 velocity=0 time=120
note_on channel=0 note=66 velocity=0 time=0
note_on channel=0 note=73 velocity=0 time=120
note_on channel=0 note=85 velocity=0 time=0
note_on channel=0 note=75 velocity=52 time=0
note_on channel=0 note=87 velocity=62 time=0
note_on channel=0 note=71 velocity=55 time=0
note_on channel=0 note=66 velocity=46 time=0
note_on channel=0 note=66 velocity=0 time=117
note_on channel=0 note=71 velocity=0 time=0
note_on channel=0 note=71 velocity=51 time=57
note_on channel=0 note=66 velocity=43 time=0
note_on channel=0 note=66 velocity=0 time=120
note_on channel=0 note=71 velocity=0 time=0
note_on channel=0 note=71 velocity=51 time=120
note_on channel=0 note=66 velocity=43 time=0
note_on channel=0 note=66 velocity=0 time=120
note_on channel=0 note=71 velocity=0 time=0
note_on channel=0 note=66 velocity=43 time=0
note_on channel=0 note=72 velocity=59 time=0
note_on channel=0 note=72 velocity=0 time=117
note_on channel=0 note=66 velocity=0 time=0
note_on channel=0 note=66 velocity=43 time=120
note_on channel=0 note=72 velocity=51 time=0
note_on channel=0 note=72 velocity=0 time=120
note_on channel=0 note=66 velocity=0 time=0
note_on channel=0 note=72 velocity=51 time=0
note_on channel=0 note=66 velocity=46 time=0
note_on channel=0 note=66 velocity=0 time=120
note_on channel=0 note=72 velocity=0 time=0
note_on channel=0 note=87 velocity=0 time=0
note_on channel=0 note=75 velocity=0 time=0
note_on channel=0 note=76 velocity=50 time=0
note_on channel=0 note=88 velocity=60 time=0
note_on channel=0 note=73 velocity=56 time=0
note_on channel=0 note=66 velocity=47 time=0
note_on channel=0 note=66 velocity=0 time=109
note_on channel=0 note=73 velocity=0 time=0
note_on channel=0 note=73 velocity=52 time=34
note_on channel=0 note=66 velocity=44 time=0
note_on channel=0 note=66 velocity=0 time=120
note_on channel=0 note=73 velocity=0 time=0
note_on channel=0 note=66 velocity=44 time=120
note_on channel=0 note=73 velocity=53 time=0
note_on channel=0 note=73 velocity=0 time=120
note_on channel=0 note=66 velocity=0 time=0
note_on channel=0 note=66 velocity=48 time=120
note_on channel=0 note=73 velocity=58 time=0
note_on channel=0 note=73 velocity=0 time=120
note_on channel=0 note=66 velocity=0 time=0
note_on channel=0 note=73 velocity=52 time=120
note_on channel=0 note=66 velocity=44 time=0
note_on channel=0 note=66 velocity=0 time=120
note_on channel=0 note=73 velocity=0 time=0
note_on channel=0 note=73 velocity=54 time=0
note_on channel=0 note=66 velocity=45 time=0
note_on channel=0 note=66 velocity=0 time=120
note_on channel=0 note=73 velocity=0 time=0
note_on channel=0 note=88 velocity=0 time=0
note_on channel=0 note=76 velocity=0 time=0
note_on channel=0 note=90 velocity=64 time=0
note_on channel=0 note=78 velocity=55 time=0
note_on channel=0 note=75 velocity=60 time=0
note_on channel=0 note=66 velocity=50 time=0
note_on channel=0 note=66 velocity=0 time=113
note_on channel=0 note=75 velocity=0 time=0
note_on channel=0 note=66 velocity=44 time=120
note_on channel=0 note=75 velocity=53 time=0
note_on channel=0 note=75 velocity=0 time=107
note_on channel=0 note=66 velocity=0 time=0
note_on channel=0 note=66 velocity=45 time=0
note_on channel=0 note=75 velocity=53 time=0
note_on channel=0 note=75 velocity=0 time=120
note_on channel=0 note=66 velocity=0 time=0
note_on channel=0 note=78 velocity=0 time=0
note_on channel=0 note=90 velocity=0 time=0
note_on channel=0 note=91 velocity=67 time=0
note_on channel=0 note=79 velocity=57 time=0
note_on channel=0 note=76 velocity=62 time=0
note_on channel=0 note=66 velocity=52 time=0
note_on channel=0 note=66 velocity=0 time=120
note_on channel=0 note=76 velocity=0 time=0
note_on channel=0 note=76 velocity=56 time=120
note_on channel=0 note=66 velocity=47 time=0
note_on channel=0 note=66 velocity=0 time=97
note_on channel=0 note=76 velocity=0 time=0
note_on channel=0 note=76 velocity=57 time=0
note_on channel=0 note=66 velocity=47 time=0
note_on channel=0 note=66 velocity=0 time=120
note_on channel=0 note=76 velocity=0 time=0
note_on channel=0 note=79 velocity=0 time=0
note_on channel=0 note=91 velocity=0 time=0
note_on channel=0 note=92 velocity=69 time=0
note_on channel=0 note=80 velocity=59 time=0
note_on channel=0 note=66 velocity=54 time=0
note_on channel=0 note=76 velocity=64 time=0
note_on channel=0 note=76 velocity=0 time=115
note_on channel=0 note=66 velocity=0 time=0
note_on channel=0 note=66 velocity=49 time=120
note_on channel=0 note=76 velocity=58 time=0
note_on channel=0 note=76 velocity=0 time=11
note_on channel=0 note=66 velocity=0 time=0
note_on channel=0 note=76 velocity=59 time=0
note_on channel=0 note=66 velocity=49 time=0
note_on channel=0 note=66 velocity=0 time=120
note_on channel=0 note=76 velocity=0 time=0
note_on channel=0 note=76 velocity=67 time=0
note_on channel=0 note=66 velocity=56 time=0
note_on channel=0 note=66 velocity=0 time=120
note_on channel=0 note=76 velocity=0 time=0
note_on channel=0 note=76 velocity=56 time=0
note_on channel=0 note=66 velocity=47 time=0
note_on channel=0 note=66 velocity=0 time=120
note_on channel=0 note=76 velocity=0 time=0
note_on channel=0 note=66 velocity=46 time=120
note_on channel=0 note=76 velocity=55 time=0
note_on channel=0 note=76 velocity=0 time=120
note_on channel=0 note=66 velocity=0 time=0
note_on channel=0 note=80 velocity=0 time=0
note_on channel=0 note=92 velocity=0 time=0
note_on channel=0 note=90 velocity=67 time=0
note_on channel=0 note=78 velocity=57 time=0
note_on channel=0 note=66 velocity=53 time=0
note_on channel=0 note=75 velocity=63 time=0
note_on channel=0 note=75 velocity=0 time=116
note_on channel=0 note=66 velocity=0 time=0
note_on channel=0 note=75 velocity=57 time=120
note_on channel=0 note=66 velocity=48 time=0
note_on channel=0 note=66 velocity=0 time=91
note_on channel=0 note=75 velocity=0 time=0
note_on channel=0 note=75 velocity=56 time=0
note_on channel=0 note=66 velocity=47 time=0
note_on channel=0 note=66 velocity=0 time=120
note_on channel=0 note=75 velocity=0 time=0
note_on channel=0 note=78 velocity=0 time=0
note_on channel=0 note=90 velocity=0 time=0
note_on channel=0 note=76 velocity=63 time=0
note_on channel=0 note=88 velocity=63 time=0
note_on channel=0 note=73 velocity=58 time=0
note_on channel=0 note=66 velocity=49 time=0
note_on channel=0 note=66 velocity=0 time=120
note_on channel=0 note=73 velocity=0 time=0
note_on channel=0 note=66 velocity=43 time=120
note_on channel=0 note=73 velocity=51 time=0
note_on channel=0 note=73 velocity=0 time=87
note_on channel=0 note=66 velocity=0 time=0
note_on channel=0 note=66 velocity=42 time=120
note_on channel=0 note=73 velocity=50 time=0
note_on channel=0 note=73 velocity=0 time=120
note_on channel=0 note=66 velocity=0 time=0
note_on channel=0 note=88 velocity=0 time=120
note_on channel=0 note=76 velocity=0 time=0
note_on channel=0 note=73 velocity=49 time=0
note_on channel=0 note=85 velocity=58 time=0
note_on channel=0 note=66 velocity=41 time=0
note_on channel=0 note=64 velocity=41 time=0
note_on channel=0 note=70 velocity=48 time=0
note_on channel=0 note=70 velocity=0 time=115
note_on channel=0 note=66 velocity=0 time=0
note_on channel=0 note=64 velocity=0 time=0
note_on channel=0 note=64 velocity=36 time=120
note_on channel=0 note=70 velocity=43 time=0
note_on channel=0 note=66 velocity=36 time=0
note_on channel=0 note=66 velocity=0 time=74
note_on channel=0 note=64 velocity=0 time=0
note_on channel=0 note=70 velocity=0 time=0
note_on channel=0 note=64 velocity=35 time=120
note_on channel=0 note=70 velocity=42 time=0
note_on channel=0 note=66 velocity=35 time=0
note_on channel=0 note=66 velocity=0 time=120
note_on channel=0 note=64 velocity=0 time=0
note_on channel=0 note=70 velocity=0 time=0
note_on channel=0 note=85 velocity=0 time=0
note_on channel=0 note=73 velocity=0 time=0
note_on channel=0 note=75 velocity=54 time=0
note_on channel=0 note=87 velocity=54 time=0
note_on channel=0 note=66 velocity=46 time=0
note_on channel=0 note=63 velocity=38 time=0
note_on channel=0 note=66 velocity=0 time=34
note_on channel=0 note=68 velocity=31 time=0
note_on channel=0 note=68 velocity=0 time=120
note_on channel=0 note=66 velocity=36 time=0
note_on channel=0 note=66 velocity=0 time=120
note_on channel=0 note=68 velocity=32 time=0
note_on channel=0 note=68 velocity=0 time=0
note_on channel=0 note=75 velocity=0 time=0
note_on channel=0 note=80 velocity=52 time=0
note_on channel=0 note=66 velocity=36 time=0
note_on channel=0 note=66 velocity=0 time=120
note_on channel=0 note=68 velocity=33 time=0
note_on channel=0 note=68 velocity=0 time=120
note_on channel=0 note=80 velocity=0 time=0
note_on channel=0 note=63 velocity=0 time=0
note_on channel=0 note=78 velocity=62 time=0
note_on channel=0 note=66 velocity=48 time=0
note_on channel=0 note=59 velocity=41 time=0
note_on channel=0 note=66 velocity=0 time=28
note_on channel=0 note=68 velocity=35 time=0
note_on channel=0 note=68 velocity=0 time=120
note_on channel=0 note=66 velocity=40 time=0
note_on channel=0 note=66 velocity=0 time=120
note_on channel=0 note=68 velocity=35 time=0
note_on channel=0 note=68 velocity=0 time=120
note_on channel=0 note=78 velocity=0 time=0
note_on channel=0 note=75 velocity=55 time=0
note_on channel=0 note=66 velocity=42 time=0
note_on channel=0 note=66 velocity=0 time=120
note_on channel=0 note=68 velocity=36 time=0
note_on channel=0 note=68 velocity=0 time=0
note_on channel=0 note=75 velocity=0 time=0
note_on channel=0 note=87 velocity=0 time=0
note_on channel=0 note=59 velocity=0 time=0
note_on channel=0 note=85 velocity=62 time=0
note_on channel=0 note=73 velocity=62 time=0
note_on channel=0 note=66 velocity=52 time=0
note_on channel=0 note=58 velocity=43 time=0
note_on channel=0 note=66 velocity=0 time=57
note_on channel=0 note=68 velocity=35 time=0
note_on channel=0 note=68 velocity=0 time=120
note_on channel=0 note=66 velocity=39 time=0
note_on channel=0 note=66 velocity=0 time=120
note_on channel=0 note=68 velocity=34 time=0
note_on channel=0 note=68 velocity=0 time=0
note_on channel=0 note=73 velocity=0 time=0
note_on channel=0 note=80 velocity=54 time=0
note_on channel=0 note=66 velocity=37 time=0
note_on channel=0 note=66 velocity=0 time=120
note_on channel=0 note=68 velocity=33 time=0
note_on channel=0 note=68 velocity=0 time=120
note_on channel=0 note=80 velocity=0 time=0
note_on channel=0 note=58 velocity=0 time=0
note_on channel=0 note=78 velocity=61 time=0
note_on channel=0 note=66 velocity=47 time=0
note_on channel=0 note=64 velocity=41 time=0
note_on channel=0 note=66 velocity=0 time=107
note_on channel=0 note=68 velocity=34 time=0
note_on channel=0 note=68 velocity=0 time=120
note_on channel=0 note=66 velocity=37 time=0
note_on channel=0 note=66 velocity=0 time=120
note_on channel=0 note=68 velocity=32 time=0
note_on channel=0 note=68 velocity=0 time=120
note_on channel=0 note=78 velocity=0 time=0
note_on channel=0 note=73 velocity=49 time=0
note_on channel=0 note=66 velocity=38 time=0
note_on channel=0 note=66 velocity=0 time=120
note_on channel=0 note=68 velocity=31 time=0
note_on channel=0 note=68 velocity=0 time=0
note_on channel=0 note=73 velocity=0 time=0
note_on channel=0 note=85 velocity=0 time=0
note_on channel=0 note=64 velocity=0 time=0
note_on channel=0 note=87 velocity=41 time=0
note_on channel=0 note=78 velocity=50 time=0
note_on channel=0 note=59 velocity=48 time=0
note_on channel=0 note=63 velocity=48 time=0
note_on channel=0 note=78 velocity=0 time=100
note_on channel=0 note=80 velocity=34 time=0
note_on channel=0 note=80 velocity=0 time=68
note_on channel=0 note=78 velocity=39 time=0
note_on channel=0 note=78 velocity=0 time=120
note_on channel=0 note=80 velocity=35 time=0
note_on channel=0 note=80 velocity=0 time=0
note_on channel=0 note=63 velocity=0 time=0
note_on channel=0 note=78 velocity=39 time=0
note_on channel=0 note=68 velocity=45 time=0
note_on channel=0 note=78 velocity=0 time=120
note_on channel=0 note=80 velocity=36 time=0
note_on channel=0 note=80 velocity=0 time=120
note_on channel=0 note=68 velocity=0 time=0
note_on channel=0 note=87 velocity=0 time=0
note_on channel=0 note=78 velocity=52 time=0
note_on channel=0 note=83 velocity=45 time=0
note_on channel=0 note=66 velocity=54 time=0
note_on channel=0 note=78 velocity=0 time=17
note_on channel=0 note=80 velocity=38 time=0
note_on channel=0 note=80 velocity=0 time=120
note_on channel=0 note=78 velocity=44 time=0
note_on channel=0 note=78 velocity=0 time=120
note_on channel=0 note=80 velocity=38 time=0
note_on channel=0 note=80 velocity=0 time=120
note_on channel=0 note=66 velocity=0 time=0
note_on channel=0 note=78 velocity=46 time=0
note_on channel=0 note=63 velocity=49 time=0
note_on channel=0 note=78 velocity=0 time=120
note_on channel=0 note=80 velocity=39 time=0
note_on channel=0 note=80 velocity=0 time=0
note_on channel=0 note=63 velocity=0 time=0
note_on channel=0 note=83 velocity=0 time=0
note_on channel=0 note=59 velocity=0 time=0
note_on channel=0 note=82 velocity=47 time=0
note_on channel=0 note=78 velocity=57 time=0
note_on channel=0 note=54 velocity=46 time=0
note_on channel=0 note=61 velocity=55 time=0
note_on channel=0 note=78 velocity=0 time=34
note_on channel=0 note=80 velocity=38 time=0
note_on channel=0 note=80 velocity=0 time=120
note_on channel=0 note=78 velocity=42 time=0
note_on channel=0 note=78 velocity=0 time=120
note_on channel=0 note=80 velocity=37 time=0
note_on channel=0 note=80 velocity=0 time=0
note_on channel=0 note=61 velocity=0 time=0
note_on channel=0 note=78 velocity=40 time=0
note_on channel=0 note=68 velocity=46 time=0
note_on channel=0 note=78 velocity=0 time=120
note_on channel=0 note=80 velocity=36 time=0
note_on channel=0 note=80 velocity=0 time=120
note_on channel=0 note=68 velocity=0 time=0
note_on channel=0 note=54 velocity=0 time=0
note_on channel=0 note=82 velocity=0 time=0
note_on channel=0 note=90 velocity=45 time=0
note_on channel=0 note=78 velocity=51 time=0
note_on channel=0 note=52 velocity=45 time=0
note_on channel=0 note=66 velocity=53 time=0
note_on channel=0 note=78 velocity=0 time=45
note_on channel=0 note=80 velocity=37 time=0
note_on channel=0 note=80 velocity=0 time=120
note_on channel=0 note=78 velocity=40 time=0
note_on channel=0 note=78 velocity=0 time=120
note_on channel=0 note=80 velocity=35 time=0
note_on channel=0 note=80 velocity=0 time=0
note_on channel=0 note=66 velocity=0 time=0
note_on channel=0 note=78 velocity=41 time=0
note_on channel=0 note=61 velocity=44 time=0
note_on channel=0 note=78 velocity=0 time=120
note_on channel=0 note=80 velocity=34 time=0
note_on channel=0 note=80 velocity=0 time=0
note_on channel=0 note=61 velocity=0 time=0
note_on channel=0 note=52 velocity=0 time=0
note_on channel=0 note=90 velocity=0 time=0
note_on channel=0 note=90 velocity=50 time=0
note_on channel=0 note=78 velocity=45 time=0
note_on channel=0 note=51 velocity=35 time=0
note_on channel=0 note=51 velocity=0 time=23
note_on channel=0 note=59 velocity=27 time=0
note_on channel=0 note=59 velocity=0 time=120
note_on channel=0 note=51 velocity=31 time=0
note_on channel=0 note=51 velocity=0 time=120
note_on channel=0 note=59 velocity=26 time=0
note_on channel=0 note=59 velocity=0 time=16
note_on channel=0 note=51 velocity=31 time=0
note_on channel=0 note=51 velocity=0 time=120
note_on channel=0 note=59 velocity=27 time=0
note_on channel=0 note=59 velocity=0 time=6
note_on channel=0 note=78 velocity=0 time=0
note_on channel=0 note=90 velocity=0 time=0
note_on channel=0 note=78 velocity=47 time=0
note_on channel=0 note=66 velocity=40 time=0
note_on channel=0 note=50 velocity=37 time=0
note_on channel=0 note=50 velocity=0 time=113
note_on channel=0 note=60 velocity=27 time=0
note_on channel=0 note=60 velocity=0 time=0
note_on channel=0 note=50 velocity=31 time=0
note_on channel=0 note=50 velocity=0 time=120
note_on channel=0 note=60 velocity=27 time=0
note_on channel=0 note=60 velocity=0 time=25
note_on channel=0 note=50 velocity=31 time=0
note_on channel=0 note=50 velocity=0 time=120
note_on channel=0 note=60 velocity=27 time=0
note_on channel=0 note=60 velocity=0 time=0
note_on channel=0 note=66 velocity=0 time=0
note_on channel=0 note=78 velocity=0 time=0
note_on channel=0 note=66 velocity=41 time=0
note_on channel=0 note=74 velocity=41 time=0
note_on channel=0 note=78 velocity=46 time=0
note_on channel=0 note=48 velocity=35 time=0
note_on channel=0 note=48 velocity=0 time=40
note_on channel=0 note=57 velocity=27 time=0
note_on channel=0 note=57 velocity=0 time=120
note_on channel=0 note=48 velocity=31 time=0
note_on channel=0 note=48 velocity=0 time=120
note_on channel=0 note=57 velocity=26 time=0
note_on channel=0 note=57 velocity=0 time=120
note_on channel=0 note=48 velocity=31 time=0
note_on channel=0 note=48 velocity=0 time=120
note_on channel=0 note=57 velocity=27 time=0
note_on channel=0 note=57 velocity=0 time=0
note_on channel=0 note=78 velocity=0 time=0
note_on channel=0 note=74 velocity=0 time=0
note_on channel=0 note=66 velocity=0 time=0
note_on channel=0 note=79 velocity=45 time=0
note_on channel=0 note=67 velocity=45 time=0
note_on channel=0 note=74 velocity=45 time=0
note_on channel=0 note=47 velocity=37 time=0
note_on channel=0 note=47 velocity=0 time=28
note_on channel=0 note=55 velocity=27 time=0
note_on channel=0 note=55 velocity=0 time=120
note_on channel=0 note=47 velocity=31 time=0
note_on channel=0 note=47 velocity=0 time=120
note_on channel=0 note=55 velocity=27 time=0
note_on channel=0 note=55 velocity=0 time=120
note_on channel=0 note=74 velocity=0 time=0
note_on channel=0 note=67 velocity=0 time=0
note_on channel=0 note=79 velocity=0 time=0
note_on channel=0 note=81 velocity=43 time=0
note_on channel=0 note=69 velocity=43 time=0
note_on channel=0 note=74 velocity=43 time=0
note_on channel=0 note=45 velocity=31 time=0
note_on channel=0 note=45 velocity=0 time=120
note_on channel=0 note=54 velocity=27 time=0
note_on channel=0 note=54 velocity=0 time=0
note_on channel=0 note=74 velocity=0 time=0
note_on channel=0 note=69 velocity=0 time=0
note_on channel=0 note=81 velocity=0 time=0
note_on channel=0 note=74 velocity=54 time=0
note_on channel=0 note=71 velocity=54 time=0
note_on channel=0 note=83 velocity=54 time=0
note_on channel=0 note=43 velocity=36 time=0
note_on channel=0 note=55 velocity=36 time=0
note_on channel=0 note=55 velocity=0 time=0
note_on channel=0 note=43 velocity=0 time=0
note_on channel=0 note=59 velocity=38 time=0
note_on channel=0 note=55 velocity=32 time=0
note_on channel=0 note=55 velocity=0 time=120
note_on channel=0 note=59 velocity=0 time=0
note_on channel=0 note=62 velocity=39 time=0
note_on channel=0 note=62 velocity=0 time=120
note_on channel=0 note=74 velocity=0 time=0
note_on channel=0 note=71 velocity=0 time=0
note_on channel=0 note=83 velocity=0 time=0
note_on channel=0 note=76 velocity=51 time=0
note_on channel=0 note=88 velocity=51 time=0
note_on channel=0 note=59 velocity=40 time=0
note_on channel=0 note=55 velocity=34 time=0
note_on channel=0 note=55 velocity=0 time=120
note_on channel=0 note=59 velocity=0 time=0
note_on channel=0 note=62 velocity=36 time=0
note_on channel=0 note=62 velocity=0 time=120
note_on channel=0 note=88 velocity=0 time=0
note_on channel=0 note=76 velocity=0 time=0
note_on channel=0 note=74 velocity=58 time=0
note_on channel=0 note=86 velocity=58 time=0
note_on channel=0 note=59 velocity=42 time=0
note_on channel=0 note=55 velocity=35 time=0
note_on channel=0 note=55 velocity=0 time=120
note_on channel=0 note=59 velocity=0 time=0
note_on channel=0 note=62 velocity=40 time=0
note_on channel=0 note=62 velocity=0 time=120
note_on channel=0 note=59 velocity=44 time=0
note_on channel=0 note=55 velocity=37 time=0
note_on channel=0 note=55 velocity=0 time=120
note_on channel=0 note=59 velocity=0 time=0
note_on channel=0 note=62 velocity=42 time=0
note_on channel=0 note=62 velocity=0 time=0
note_on channel=0 note=86 velocity=0 time=0
note_on channel=0 note=74 velocity=0 time=0
note_on channel=0 note=83 velocity=50 time=0
note_on channel=0 note=71 velocity=50 time=0
note_on channel=0 note=59 velocity=46 time=0
note_on channel=0 note=55 velocity=39 time=0
note_on channel=0 note=55 velocity=0 time=120
note_on channel=0 note=59 velocity=0 time=0
note_on channel=0 note=62 velocity=44 time=0
note_on channel=0 note=62 velocity=0 time=0
note_on channel=0 note=71 velocity=0 time=0
note_on channel=0 note=83 velocity=0 time=0
note_on channel=0 note=69 velocity=62 time=0
note_on channel=0 note=81 velocity=62 time=0
note_on channel=0 note=54 velocity=40 time=0
note_on channel=0 note=60 velocity=48 time=0
note_on channel=0 note=60 velocity=0 time=23
note_on channel=0 note=54 velocity=0 time=0
note_on channel=0 note=62 velocity=42 time=0
note_on channel=0 note=62 velocity=0 time=120
note_on channel=0 note=54 velocity=35 time=0
note_on channel=0 note=60 velocity=42 time=0
note_on channel=0 note=60 velocity=0 time=120
note_on channel=0 note=54 velocity=0 time=0
note_on channel=0 note=62 velocity=42 time=0
note_on channel=0 note=62 velocity=0 time=120
note_on channel=0 note=81 velocity=0 time=0
note_on channel=0 note=69 velocity=0 time=0
note_on channel=0 note=88 velocity=50 time=0
note_on channel=0 note=76 velocity=50 time=0
note_on channel=0 note=54 velocity=40 time=0
note_on channel=0 note=60 velocity=48 time=0
note_on channel=0 note=60 velocity=0 time=120
note_on channel=0 note=54 velocity=0 time=0
note_on channel=0 note=62 velocity=44 time=0
note_on channel=0 note=62 velocity=0 time=120
note_on channel=0 note=76 velocity=0 time=0
note_on channel=0 note=88 velocity=0 time=0
note_on channel=0 note=86 velocity=58 time=0
note_on channel=0 note=74 velocity=58 time=0
note_on channel=0 note=54 velocity=39 time=0
note_on channel=0 note=60 velocity=46 time=0
note_on channel=0 note=60 velocity=0 time=120
note_on channel=0 note=54 velocity=0 time=0
note_on channel=0 note=62 velocity=41 time=0
note_on channel=0 note=62 velocity=0 time=120
note_on channel=0 note=54 velocity=37 time=0
note_on channel=0 note=60 velocity=44 time=0
note_on channel=0 note=60 velocity=0 time=120
note_on channel=0 note=54 velocity=0 time=0
note_on channel=0 note=62 velocity=39 time=0
note_on channel=0 note=62 velocity=0 time=0
note_on channel=0 note=74 velocity=0 time=0
note_on channel=0 note=86 velocity=0 time=0
note_on channel=0 note=81 velocity=53 time=0
note_on channel=0 note=69 velocity=53 time=0
note_on channel=0 note=54 velocity=35 time=0
note_on channel=0 note=60 velocity=42 time=0
note_on channel=0 note=60 velocity=0 time=120
note_on channel=0 note=54 velocity=0 time=0
note_on channel=0 note=62 velocity=36 time=0
note_on channel=0 note=62 velocity=0 time=0
note_on channel=0 note=69 velocity=0 time=0
note_on channel=0 note=81 velocity=0 time=0
note_on channel=0 note=83 velocity=38 time=0
note_on channel=0 note=74 velocity=46 time=0
note_on channel=0 note=55 velocity=48 time=0
note_on channel=0 note=59 velocity=48 time=0
note_on channel=0 note=74 velocity=0 time=100
note_on channel=0 note=76 velocity=31 time=0
note_on channel=0 note=76 velocity=0 time=68
note_on channel=0 note=74 velocity=36 time=0
note_on channel=0 note=74 velocity=0 time=120
note_on channel=0 note=76 velocity=32 time=0
note_on channel=0 note=76 velocity=0 time=0
note_on channel=0 note=59 velocity=0 time=0
note_on channel=0 note=74 velocity=36 time=0
note_on channel=0 note=64 velocity=45 time=0
note_on channel=0 note=74 velocity=0 time=120
note_on channel=0 note=76 velocity=33 time=0
note_on channel=0 note=76 velocity=0 time=120
note_on channel=0 note=64 velocity=0 time=0
note_on channel=0 note=83 velocity=0 time=0
note_on channel=0 note=74 velocity=48 time=0
note_on channel=0 note=79 velocity=41 time=0
note_on channel=0 note=62 velocity=54 time=0
note_on channel=0 note=74 velocity=0 time=17
note_on channel=0 note=76 velocity=35 time=0
note_on channel=0 note=76 velocity=0 time=120
note_on channel=0 note=74 velocity=40 time=0
note_on channel=0 note=74 velocity=0 time=120
note_on channel=0 note=76 velocity=35 time=0
note_on channel=0 note=76 velocity=0 time=120
note_on channel=0 note=62 velocity=0 time=0
note_on channel=0 note=74 velocity=42 time=0
note_on channel=0 note=59 velocity=49 time=0
note_on channel=0 note=74 velocity=0 time=120
note_on channel=0 note=76 velocity=36 time=0
note_on channel=0 note=76 velocity=0 time=0
note_on channel=0 note=59 velocity=0 time=0
note_on channel=0 note=79 velocity=0 time=0
note_on channel=0 note=55 velocity=0 time=0
note_on channel=0 note=78 velocity=43 time=0
note_on channel=0 note=74 velocity=52 time=0
note_on channel=0 note=50 velocity=46 time=0
note_on channel=0 note=57 velocity=55 time=0
note_on channel=0 note=74 velocity=0 time=34
note_on channel=0 note=76 velocity=35 time=0
note_on channel=0 note=76 velocity=0 time=120
note_on channel=0 note=74 velocity=39 time=0
note_on channel=0 note=74 velocity=0 time=120
note_on channel=0 note=76 velocity=34 time=0
note_on channel=0 note=76 velocity=0 time=0
note_on channel=0 note=57 velocity=0 time=0
note_on channel=0 note=74 velocity=37 time=0
note_on channel=0 note=64 velocity=46 time=0
note_on channel=0 note=74 velocity=0 time=120
note_on channel=0 note=76 velocity=33 time=0
note_on channel=0 note=76 velocity=0 time=0
note_on channel=0 note=64 velocity=0 time=0
note_on channel=0 note=78 velocity=0 time=0
note_on channel=0 note=84 velocity=41 time=0
note_on channel=0 note=74 velocity=47 time=0
note_on channel=0 note=62 velocity=53 time=0
note_on channel=0 note=74 velocity=0 time=45
note_on channel=0 note=76 velocity=34 time=0
note_on channel=0 note=76 velocity=0 time=120
note_on channel=0 note=74 velocity=37 time=0
note_on channel=0 note=74 velocity=0 time=120
note_on channel=0 note=76 velocity=32 time=0
note_on channel=0 note=76 velocity=0 time=0
note_on channel=0 note=62 velocity=0 time=0
note_on channel=0 note=74 velocity=38 time=0
note_on channel=0 note=57 velocity=44 time=0
note_on channel=0 note=57 velocity=0 time=0
note_on channel=0 note=50 velocity=0 time=0
note_on channel=0 note=84 velocity=0 time=0
note_on channel=0 note=74 velocity=0 time=0
note_on channel=0 note=74 velocity=42 time=0
note_on channel=0 note=83 velocity=50 time=0
note_on channel=0 note=62 velocity=44 time=0
note_on channel=0 note=59 velocity=37 time=0
note_on channel=0 note=55 velocity=37 time=0
note_on channel=0 note=83 velocity=0 time=103
note_on channel=0 note=74 velocity=0 time=0
note_on channel=0 note=71 velocity=44 time=0
note_on channel=0 note=71 velocity=0 time=0
note_on channel=0 note=55 velocity=0 time=0
note_on channel=0 note=62 velocity=0 time=0
note_on channel=0 note=59 velocity=0 time=0
note_on channel=0 note=86 velocity=50 time=0
note_on channel=0 note=67 velocity=42 time=0
note_on channel=0 note=67 velocity=0 time=120
note_on channel=0 note=86 velocity=0 time=0
note_on channel=0 note=86 velocity=54 time=0
note_on channel=0 note=66 velocity=45 time=0
note_on channel=0 note=66 velocity=0 time=91
note_on channel=0 note=86 velocity=0 time=0
note_on channel=0 note=83 velocity=46 time=0
note_on channel=0 note=67 velocity=39 time=0
note_on channel=0 note=67 velocity=0 time=0
note_on channel=0 note=83 velocity=0 time=0
note_on channel=0 note=71 velocity=38 time=0
note_on channel=0 note=79 velocity=45 time=0
note_on channel=0 note=62 velocity=44 time=0
note_on channel=0 note=62 velocity=0 time=120
note_on channel=0 note=79 velocity=0 time=0
note_on channel=0 note=71 velocity=0 time=0
note_on channel=0 note=62 velocity=44 time=0
note_on channel=0 note=62 velocity=0 time=240
note_on channel=0 note=71 velocity=46 time=0
note_on channel=0 note=59 velocity=38 time=0
note_on channel=0 note=59 velocity=0 time=0
note_on channel=0 note=71 velocity=0 time=0
note_on channel=0 note=74 velocity=46 time=0
note_on channel=0 note=55 velocity=38 time=0
note_on channel=0 note=55 velocity=0 time=0
note_on channel=0 note=74 velocity=0 time=0
note_on channel=0 note=79 velocity=50 time=0
note_on channel=0 note=53 velocity=44 time=0
note_on channel=0 note=53 velocity=0 time=165
note_on channel=0 note=79 velocity=0 time=0
note_on channel=0 note=83 velocity=50 time=0
note_on channel=0 note=50 velocity=44 time=0
note_on channel=0 note=50 velocity=0 time=0
note_on channel=0 note=83 velocity=0 time=0
note_on channel=0 note=79 velocity=43 time=0
note_on channel=0 note=86 velocity=53 time=0
note_on channel=0 note=47 velocity=44 time=0
note_on channel=0 note=47 velocity=0 time=40
note_on channel=0 note=86 velocity=0 time=0
note_on channel=0 note=79 velocity=0 time=0
note_on channel=0 note=88 velocity=57 time=0
note_on channel=0 note=79 velocity=45 time=0
note_on channel=0 note=48 velocity=44 time=0
note_on channel=0 note=79 velocity=0 time=240
note_on channel=0 note=76 velocity=46 time=0
note_on channel=0 note=76 velocity=0 time=0
note_on channel=0 note=48 velocity=0 time=0
note_on channel=0 note=88 velocity=0 time=0
note_on channel=0 note=72 velocity=46 time=0
note_on channel=0 note=67 velocity=40 time=0
note_on channel=0 note=67 velocity=0 time=20
note_on channel=0 note=72 velocity=0 time=0
note_on channel=0 note=71 velocity=53 time=0
note_on channel=0 note=67 velocity=44 time=0
note_on channel=0 note=67 velocity=0 time=125
note_on channel=0 note=71 velocity=0 time=0
note_on channel=0 note=72 velocity=46 time=0
note_on channel=0 note=64 velocity=40 time=0
note_on channel=0 note=64 velocity=0 time=0
note_on channel=0 note=72 velocity=0 time=0
note_on channel=0 note=76 velocity=46 time=0
note_on channel=0 note=55 velocity=34 time=0
note_on channel=0 note=60 velocity=40 time=0
note_on channel=0 note=60 velocity=0 time=238
note_on channel=0 note=55 velocity=0 time=0
note_on channel=0 note=76 velocity=0 time=0
note_on channel=0 note=55 velocity=44 time=0
note_on channel=0 note=55 velocity=0 time=0
note_on channel=0 note=79 velocity=50 time=0
note_on channel=0 note=52 velocity=40 time=0
note_on channel=0 note=52 velocity=0 time=0
note_on channel=0 note=79 velocity=0 time=0
note_on channel=0 note=84 velocity=54 time=0
note_on channel=0 note=48 velocity=40 time=0
note_on channel=0 note=48 velocity=0 time=0
note_on channel=0 note=84 velocity=0 time=0
note_on channel=0 note=76 velocity=51 time=0
note_on channel=0 note=88 velocity=60 time=0
note_on channel=0 note=43 velocity=44 time=0
note_on channel=0 note=43 velocity=0 time=240
note_on channel=0 note=36 velocity=39 time=0
note_on channel=0 note=36 velocity=0 time=0
note_on channel=0 note=88 velocity=0 time=0
note_on channel=0 note=76 velocity=0 time=0
note_on channel=0 note=75 velocity=52 time=0
note_on channel=0 note=87 velocity=62 time=0
note_on channel=0 note=48 velocity=39 time=0
note_on channel=0 note=48 velocity=0 time=227
note_on channel=0 note=87 velocity=0 time=0
note_on channel=0 note=75 velocity=0 time=0
note_on channel=0 note=87 velocity=60 time=0
note_on channel=0 note=48 velocity=39 time=0
note_on channel=0 note=48 velocity=0 time=116
note_on channel=0 note=51 velocity=31 time=0
note_on channel=0 note=51 velocity=0 time=120
note_on channel=0 note=87 velocity=0 time=0
note_on channel=0 note=84 velocity=55 time=0
note_on channel=0 note=56 velocity=31 time=0
note_on channel=0 note=56 velocity=0 time=120
note_on channel=0 note=51 velocity=31 time=0
note_on channel=0 note=51 velocity=0 time=120
note_on channel=0 note=84 velocity=0 time=0
note_on channel=0 note=80 velocity=55 time=0
note_on channel=0 note=56 velocity=30 time=0
note_on channel=0 note=56 velocity=0 time=120
note_on channel=0 note=51 velocity=32 time=0
note_on channel=0 note=80 velocity=0 time=28
note_on channel=0 note=51 velocity=0 time=60
note_on channel=0 note=79 velocity=60 time=0
note_on channel=0 note=49 velocity=41 time=0
note_on channel=0 note=49 velocity=0 time=70
note_on channel=0 note=51 velocity=32 time=0
note_on channel=0 note=51 velocity=0 time=120
note_on channel=0 note=79 velocity=0 time=0
note_on channel=0 note=82 velocity=57 time=0
note_on channel=0 note=55 velocity=33 time=0
note_on channel=0 note=55 velocity=0 time=120
note_on channel=0 note=58 velocity=33 time=0
note_on channel=0 note=58 velocity=0 time=0
note_on channel=0 note=82 velocity=0 time=0
note_on channel=0 note=75 velocity=50 time=0
note_on channel=0 note=87 velocity=57 time=0
note_on channel=0 note=61 velocity=33 time=0
note_on channel=0 note=61 velocity=0 time=120
note_on channel=0 note=55 velocity=33 time=0
note_on channel=0 note=87 velocity=0 time=39
note_on channel=0 note=75 velocity=0 time=0
note_on channel=0 note=55 velocity=0 time=0
note_on channel=0 note=75 velocity=58 time=0
note_on channel=0 note=56 velocity=40 time=0
note_on channel=0 note=56 velocity=0 time=67
note_on channel=0 note=60 velocity=32 time=0
note_on channel=0 note=60 velocity=0 time=120
note_on channel=0 note=75 velocity=0 time=0
note_on channel=0 note=72 velocity=50 time=0
note_on channel=0 note=63 velocity=33 time=0
note_on channel=0 note=63 velocity=0 time=120
note_on channel=0 note=60 velocity=33 time=0
note_on channel=0 note=60 velocity=0 time=120
note_on channel=0 note=72 velocity=0 time=0
note_on channel=0 note=68 velocity=50 time=0
note_on channel=0 note=63 velocity=34 time=0
note_on channel=0 note=63 velocity=0 time=120
note_on channel=0 note=60 velocity=34 time=0
note_on channel=0 note=68 velocity=0 time=49
note_on channel=0 note=60 velocity=0 time=60
note_on channel=0 note=75 velocity=58 time=0
note_on channel=0 note=55 velocity=42 time=0
note_on channel=0 note=55 velocity=0 time=53
note_on channel=0 note=58 velocity=33 time=0
note_on channel=0 note=58 velocity=0 time=120
note_on channel=0 note=75 velocity=0 time=0
note_on channel=0 note=70 velocity=51 time=0
note_on channel=0 note=63 velocity=33 time=0
note_on channel=0 note=63 velocity=0 time=120
note_on channel=0 note=58 velocity=33 time=0
note_on channel=0 note=58 velocity=0 time=0
note_on channel=0 note=70 velocity=0 time=0
note_on channel=0 note=82 velocity=51 time=0
note_on channel=0 note=70 velocity=51 time=0
note_on channel=0 note=55 velocity=33 time=0
note_on channel=0 note=55 velocity=0 time=120
note_on channel=0 note=58 velocity=33 time=0
note_on channel=0 note=70 velocity=0 time=46
note_on channel=0 note=82 velocity=0 time=0
note_on channel=0 note=58 velocity=0 time=0
note_on channel=0 note=70 velocity=50 time=0
note_on channel=0 note=82 velocity=59 time=0
note_on channel=0 note=51 velocity=41 time=0
note_on channel=0 note=51 velocity=0 time=63
note_on channel=0 note=55 velocity=33 time=0
note_on channel=0 note=55 velocity=0 time=120
note_on channel=0 note=82 velocity=0 time=0
note_on channel=0 note=70 velocity=0 time=0
note_on channel=0 note=67 velocity=43 time=0
note_on channel=0 note=79 velocity=51 time=0
note_on channel=0 note=58 velocity=34 time=0
note_on channel=0 note=58 velocity=0 time=120
note_on channel=0 note=55 velocity=35 time=0
note_on channel=0 note=55 velocity=0 time=120
note_on channel=0 note=79 velocity=0 time=0
note_on channel=0 note=67 velocity=0 time=0
note_on channel=0 note=63 velocity=39 time=0
note_on channel=0 note=75 velocity=47 time=0
note_on channel=0 note=58 velocity=35 time=0
note_on channel=0 note=58 velocity=0 time=120
note_on channel=0 note=55 velocity=35 time=0
note_on channel=0 note=55 velocity=0 time=120
note_on channel=0 note=75 velocity=0 time=0
note_on channel=0 note=63 velocity=0 time=0
note_on channel=0 note=62 velocity=45 time=0
note_on channel=0 note=74 velocity=54 time=0
note_on channel=0 note=46 velocity=43 time=0
note_on channel=0 note=46 velocity=0 time=7
note_on channel=0 note=56 velocity=34 time=0
note_on channel=0 note=56 velocity=0 time=120
note_on channel=0 note=74 velocity=0 time=0
note_on channel=0 note=62 velocity=0 time=0
note_on channel=0 note=77 velocity=49 time=0
note_on channel=0 note=65 velocity=41 time=0
note_on channel=0 note=58 velocity=34 time=0
note_on channel=0 note=58 velocity=0 time=120
note_on channel=0 note=56 velocity=34 time=0
note_on channel=0 note=56 velocity=0 time=0
note_on channel=0 note=65 velocity=0 time=0
note_on channel=0 note=77 velocity=0 time=0
note_on channel=0 note=82 velocity=50 time=0
note_on channel=0 note=70 velocity=42 time=0
note_on channel=0 note=58 velocity=34 time=0
note_on channel=0 note=58 velocity=0 time=120
note_on channel=0 note=56 velocity=34 time=0
note_on channel=0 note=70 velocity=0 time=53
note_on channel=0 note=82 velocity=0 time=0
note_on channel=0 note=56 velocity=0 time=0
note_on channel=0 note=70 velocity=46 time=0
note_on channel=0 note=82 velocity=55 time=0
note_on channel=0 note=51 velocity=42 time=0
note_on channel=0 note=51 velocity=0 time=53
note_on channel=0 note=55 velocity=34 time=0
note_on channel=0 note=55 velocity=0 time=120
note_on channel=0 note=82 velocity=0 time=0
note_on channel=0 note=70 velocity=0 time=0
note_on channel=0 note=67 velocity=43 time=0
note_on channel=0 note=79 velocity=51 time=0
note_on channel=0 note=58 velocity=36 time=0
note_on channel=0 note=58 velocity=0 time=120
note_on channel=0 note=55 velocity=36 time=0
note_on channel=0 note=55 velocity=0 time=120
note_on channel=0 note=79 velocity=0 time=0
note_on channel=0 note=67 velocity=0 time=0
note_on channel=0 note=63 velocity=43 time=0
note_on channel=0 note=75 velocity=51 time=0
note_on channel=0 note=58 velocity=36 time=0
note_on channel=0 note=58 velocity=0 time=120
note_on channel=0 note=55 velocity=36 time=0
note_on channel=0 note=75 velocity=0 time=53
note_on channel=0 note=63 velocity=0 time=0
note_on channel=0 note=55 velocity=0 time=60
note_on channel=0 note=63 velocity=47 time=0
note_on channel=0 note=75 velocity=56 time=0
note_on channel=0 note=58 velocity=45 time=0
note_on channel=0 note=58 velocity=0 time=35
note_on channel=0 note=55 velocity=35 time=0
note_on channel=0 note=55 velocity=0 time=120
note_on channel=0 note=75 velocity=0 time=0
note_on channel=0 note=63 velocity=0 time=0
note_on channel=0 note=79 velocity=48 time=0
note_on channel=0 note=67 velocity=40 time=0
note_on channel=0 note=58 velocity=35 time=0
note_on channel=0 note=58 velocity=0 time=120
note_on channel=0 note=55 velocity=35 time=0
note_on channel=0 note=55 velocity=0 time=0
note_on channel=0 note=67 velocity=0 time=0
note_on channel=0 note=79 velocity=0 time=0
note_on channel=0 note=84 velocity=58 time=0
note_on channel=0 note=72 velocity=49 time=0
note_on channel=0 note=52 velocity=35 time=0
note_on channel=0 note=52 velocity=0 time=120
note_on channel=0 note=55 velocity=35 time=0
note_on channel=0 note=72 velocity=0 time=35
note_on channel=0 note=84 velocity=0 time=0
note_on channel=0 note=55 velocity=0 time=0
note_on channel=0 note=72 velocity=53 time=0
note_on channel=0 note=84 velocity=63 time=0
note_on channel=0 note=53 velocity=43 time=0
note_on channel=0 note=53 velocity=0 time=106
note_on channel=0 note=56 velocity=36 time=0
note_on channel=0 note=56 velocity=0 time=120
note_on channel=0 note=84 velocity=0 time=0
note_on channel=0 note=72 velocity=0 time=0
note_on channel=0 note=68 velocity=48 time=0
note_on channel=0 note=80 velocity=57 time=0
note_on channel=0 note=60 velocity=37 time=0
note_on channel=0 note=60 velocity=0 time=120
note_on channel=0 note=56 velocity=37 time=0
note_on channel=0 note=56 velocity=0 time=120
note_on channel=0 note=80 velocity=0 time=0
note_on channel=0 note=68 velocity=0 time=0
note_on channel=0 note=65 velocity=48 time=0
note_on channel=0 note=77 velocity=57 time=0
note_on channel=0 note=60 velocity=37 time=0
note_on channel=0 note=60 velocity=0 time=120
note_on channel=0 note=56 velocity=37 time=0
note_on channel=0 note=56 velocity=0 time=120
note_on channel=0 note=77 velocity=0 time=0
note_on channel=0 note=65 velocity=0 time=0
note_on channel=0 note=64 velocity=53 time=0
note_on channel=0 note=76 velocity=63 time=0
note_on channel=0 note=48 velocity=46 time=0
note_on channel=0 note=48 velocity=0 time=56
note_on channel=0 note=58 velocity=36 time=0
note_on channel=0 note=58 velocity=0 time=120
note_on channel=0 note=76 velocity=0 time=0
note_on channel=0 note=64 velocity=0 time=0
note_on channel=0 note=67 velocity=48 time=0
note_on channel=0 note=79 velocity=57 time=0
note_on channel=0 note=60 velocity=36 time=0
note_on channel=0 note=60 velocity=0 time=120
note_on channel=0 note=58 velocity=36 time=0
note_on channel=0 note=58 velocity=0 time=0
note_on channel=0 note=79 velocity=0 time=0
note_on channel=0 note=67 velocity=0 time=0
note_on channel=0 note=72 velocity=52 time=0
note_on channel=0 note=84 velocity=62 time=0
note_on channel=0 note=60 velocity=36 time=0
note_on channel=0 note=60 velocity=0 time=120
note_on channel=0 note=58 velocity=36 time=0
note_on channel=0 note=84 velocity=0 time=49
note_on channel=0 note=72 velocity=0 time=0
note_on channel=0 note=58 velocity=0 time=0
note_on channel=0 note=84 velocity=73 time=0
note_on channel=0 note=72 velocity=62 time=0
note_on channel=0 note=53 velocity=44 time=0
note_on channel=0 note=53 velocity=0 time=81
note_on channel=0 note=56 velocity=37 time=0
note_on channel=0 note=56 velocity=0 time=120
note_on channel=0 note=72 velocity=0 time=0
note_on channel=0 note=84 velocity=0 time=0
note_on channel=0 note=68 velocity=50 time=0
note_on channel=0 note=80 velocity=59 time=0
note_on channel=0 note=60 velocity=38 time=0
note_on channel=0 note=60 velocity=0 time=120
note_on channel=0 note=56 velocity=38 time=0
note_on channel=0 note=56 velocity=0 time=120
note_on channel=0 note=80 velocity=0 time=0
note_on channel=0 note=68 velocity=0 time=0
note_on channel=0 note=77 velocity=59 time=0
note_on channel=0 note=65 velocity=50 time=0
note_on channel=0 note=60 velocity=38 time=0
note_on channel=0 note=60 velocity=0 time=120
note_on channel=0 note=56 velocity=38 time=0
note_on channel=0 note=56 velocity=0 time=120
note_on channel=0 note=65 velocity=0 time=0
note_on channel=0 note=77 velocity=0 time=0
note_on channel=0 note=74 velocity=67 time=0
note_on channel=0 note=62 velocity=56 time=0
note_on channel=0 note=58 velocity=47 time=0
note_on channel=0 note=58 velocity=0 time=46
note_on channel=0 note=56 velocity=37 time=0
note_on channel=0 note=56 velocity=0 time=120
note_on channel=0 note=62 velocity=0 time=0
note_on channel=0 note=74 velocity=0 time=0
note_on channel=0 note=65 velocity=51 time=0
note_on channel=0 note=77 velocity=60 time=0
note_on channel=0 note=58 velocity=37 time=0
note_on channel=0 note=58 velocity=0 time=120
note_on channel=0 note=56 velocity=37 time=0
note_on channel=0 note=56 velocity=0 time=0
note_on channel=0 note=77 velocity=0 time=0
note_on channel=0 note=65 velocity=0 time=0
note_on channel=0 note=70 velocity=51 time=0
note_on channel=0 note=82 velocity=60 time=0
note_on channel=0 note=50 velocity=37 time=0
note_on channel=0 note=50 velocity=0 time=120
note_on channel=0 note=56 velocity=37 time=0
note_on channel=0 note=82 velocity=0 time=42
note_on channel=0 note=70 velocity=0 time=0
note_on channel=0 note=56 velocity=0 time=0
note_on channel=0 note=70 velocity=56 time=0
note_on channel=0 note=82 velocity=67 time=0
note_on channel=0 note=51 velocity=46 time=0
note_on channel=0 note=51 velocity=0 time=49
note_on channel=0 note=55 velocity=38 time=0
note_on channel=0 note=55 velocity=0 time=120
note_on channel=0 note=82 velocity=0 time=0
note_on channel=0 note=70 velocity=0 time=0
note_on channel=0 note=67 velocity=49 time=0
note_on channel=0 note=79 velocity=58 time=0
note_on channel=0 note=58 velocity=39 time=0
note_on channel=0 note=58 velocity=0 time=120
note_on channel=0 note=55 velocity=39 time=0
note_on channel=0 note=55 velocity=0 time=120
note_on channel=0 note=79 velocity=0 time=0
note_on channel=0 note=67 velocity=0 time=0
note_on channel=0 note=63 velocity=49 time=0
note_on channel=0 note=75 velocity=58 time=0
note_on channel=0 note=58 velocity=39 time=0
note_on channel=0 note=58 velocity=0 time=120
note_on channel=0 note=55 velocity=39 time=0
note_on channel=0 note=55 velocity=0 time=120
note_on channel=0 note=75 velocity=0 time=0
note_on channel=0 note=63 velocity=0 time=0
note_on channel=0 note=60 velocity=51 time=0
note_on channel=0 note=72 velocity=61 time=0
note_on channel=0 note=44 velocity=49 time=0
note_on channel=0 note=44 velocity=0 time=63
note_on channel=0 note=53 velocity=38 time=0
note_on channel=0 note=53 velocity=0 time=120
note_on channel=0 note=72 velocity=0 time=0
note_on channel=0 note=60 velocity=0 time=0
note_on channel=0 note=77 velocity=56 time=0
note_on channel=0 note=65 velocity=47 time=0
note_on channel=0 note=56 velocity=38 time=0
note_on channel=0 note=56 velocity=0 time=120
note_on channel=0 note=53 velocity=38 time=0
note_on channel=0 note=53 velocity=0 time=0
note_on channel=0 note=65 velocity=0 time=0
note_on channel=0 note=77 velocity=0 time=0
note_on channel=0 note=80 velocity=56 time=0
note_on channel=0 note=68 velocity=47 time=0
note_on channel=0 note=56 velocity=38 time=0
note_on channel=0 note=56 velocity=0 time=10
note_on channel=0 note=53 velocity=39 time=0
note_on channel=0 note=68 velocity=0 time=60
note_on channel=0 note=80 velocity=0 time=0
note_on channel=0 note=53 velocity=0 time=0
note_on channel=0 note=70 velocity=65 time=0
note_on channel=0 note=58 velocity=55 time=0
note_on channel=0 note=46 velocity=47 time=0
note_on channel=0 note=46 velocity=0 time=53
note_on channel=0 note=51 velocity=39 time=0
note_on channel=0 note=51 velocity=0 time=120
note_on channel=0 note=58 velocity=0 time=0
note_on channel=0 note=70 velocity=0 time=0
note_on channel=0 note=75 velocity=59 time=0
note_on channel=0 note=63 velocity=50 time=0
note_on channel=0 note=55 velocity=40 time=0
note_on channel=0 note=55 velocity=0 time=120
note_on channel=0 note=51 velocity=40 time=0
note_on channel=0 note=51 velocity=0 time=0
note_on channel=0 note=63 velocity=0 time=0
note_on channel=0 note=75 velocity=0 time=0
note_on channel=0 note=79 velocity=60 time=0
note_on channel=0 note=67 velocity=51 time=0
note_on channel=0 note=55 velocity=40 time=0
note_on channel=0 note=55 velocity=0 time=120
note_on channel=0 note=51 velocity=40 time=0
note_on channel=0 note=67 velocity=0 time=57
note_on channel=0 note=79 velocity=0 time=0
note_on channel=0 note=51 velocity=0 time=0
note_on channel=0 note=70 velocity=67 time=0
note_on channel=0 note=58 velocity=56 time=0
note_on channel=0 note=46 velocity=50 time=0
note_on channel=0 note=46 velocity=0 time=106
note_on channel=0 note=50 velocity=39 time=0
note_on channel=0 note=50 velocity=0 time=120
note_on channel=0 note=58 velocity=0 time=0
note_on channel=0 note=70 velocity=0 time=0
note_on channel=0 note=74 velocity=60 time=0
note_on channel=0 note=62 velocity=51 time=0
note_on channel=0 note=53 velocity=39 time=0
note_on channel=0 note=53 velocity=0 time=120
note_on channel=0 note=50 velocity=39 time=0
note_on channel=0 note=50 velocity=0 time=0
note_on channel=0 note=62 velocity=0 time=0
note_on channel=0 note=74 velocity=0 time=0
note_on channel=0 note=68 velocity=60 time=0
note_on channel=0 note=46 velocity=39 time=0
note_on channel=0 note=58 velocity=39 time=0
note_on channel=0 note=68 velocity=0 time=120
note_on channel=0 note=77 velocity=60 time=0
note_on channel=0 note=77 velocity=0 time=0
note_on channel=0 note=58 velocity=0 time=0
note_on channel=0 note=46 velocity=0 time=0
note_on channel=0 note=46 velocity=57 time=0
note_on channel=0 note=58 velocity=67 time=0
note_on channel=0 note=58 velocity=0 time=21
note_on channel=0 note=46 velocity=0 time=0
note_on channel=0 note=79 velocity=55 time=0
note_on channel=0 note=79 velocity=0 time=120
note_on channel=0 note=82 velocity=59 time=0
note_on channel=0 note=43 velocity=49 time=0
note_on channel=0 note=55 velocity=58 time=0
note_on channel=0 note=55 velocity=0 time=120
note_on channel=0 note=43 velocity=0 time=0
note_on channel=0 note=82 velocity=0 time=0
note_on channel=0 note=87 velocity=55 time=0
note_on channel=0 note=87 velocity=0 time=120
note_on channel=0 note=91 velocity=61 time=0
note_on channel=0 note=39 velocity=44 time=0
note_on channel=0 note=51 velocity=54 time=0
note_on channel=0 note=51 velocity=0 time=120
note_on channel=0 note=39 velocity=0 time=0
note_on channel=0 note=91 velocity=0 time=0
note_on channel=0 note=79 velocity=55 time=0
note_on channel=0 note=79 velocity=0 time=99
note_on channel=0 note=38 velocity=51 time=0
note_on channel=0 note=50 velocity=62 time=0
note_on channel=0 note=50 velocity=0 time=7
note_on channel=0 note=38 velocity=0 time=0
note_on channel=0 note=80 velocity=55 time=0
note_on channel=0 note=80 velocity=0 time=120
note_on channel=0 note=82 velocity=59 time=0
note_on channel=0 note=41 velocity=47 time=0
note_on channel=0 note=53 velocity=56 time=0
note_on channel=0 note=53 velocity=0 time=120
note_on channel=0 note=41 velocity=0 time=0
note_on channel=0 note=82 velocity=0 time=0
note_on channel=0 note=89 velocity=55 time=0
note_on channel=0 note=89 velocity=0 time=0
note_on channel=0 note=92 velocity=61 time=0
note_on channel=0 note=46 velocity=48 time=0
note_on channel=0 note=58 velocity=57 time=0
note_on channel=0 note=92 velocity=0 time=120
note_on channel=0 note=80 velocity=56 time=0
note_on channel=0 note=58 velocity=0 time=1
note_on channel=0 note=46 velocity=0 time=0
note_on channel=0 note=80 velocity=0 time=0
note_on channel=0 note=46 velocity=52 time=0
note_on channel=0 note=58 velocity=63 time=0
note_on channel=0 note=58 velocity=0 time=40
note_on channel=0 note=46 velocity=0 time=0
note_on channel=0 note=79 velocity=56 time=0
note_on channel=0 note=79 velocity=0 time=120
note_on channel=0 note=82 velocity=60 time=0
note_on channel=0 note=43 velocity=49 time=0
note_on channel=0 note=55 velocity=58 time=0
note_on channel=0 note=55 velocity=0 time=120
note_on channel=0 note=43 velocity=0 time=0
note_on channel=0 note=82 velocity=0 time=0
note_on channel=0 note=87 velocity=56 time=0
note_on channel=0 note=87 velocity=0 time=120
note_on channel=0 note=91 velocity=62 time=0
note_on channel=0 note=39 velocity=49 time=0
note_on channel=0 note=51 velocity=58 time=0
note_on channel=0 note=91 velocity=0 time=120
note_on channel=0 note=79 velocity=56 time=0
note_on channel=0 note=51 velocity=0 time=1
note_on channel=0 note=39 velocity=0 time=0
note_on channel=0 note=79 velocity=0 time=114
note_on channel=0 note=39 velocity=54 time=0
note_on channel=0 note=51 velocity=64 time=0
note_on channel=0 note=51 velocity=0 time=28
note_on channel=0 note=39 velocity=0 time=0
note_on channel=0 note=79 velocity=56 time=0
note_on channel=0 note=79 velocity=0 time=120
note_on channel=0 note=82 velocity=61 time=0
note_on channel=0 note=43 velocity=46 time=0
note_on channel=0 note=55 velocity=55 time=0
note_on channel=0 note=55 velocity=0 time=120
note_on channel=0 note=43 velocity=0 time=0
note_on channel=0 note=82 velocity=0 time=0
note_on channel=0 note=87 velocity=57 time=0
note_on channel=0 note=87 velocity=0 time=0
note_on channel=0 note=91 velocity=63 time=0
note_on channel=0 note=48 velocity=56 time=0
note_on channel=0 note=60 velocity=66 time=0
note_on channel=0 note=91 velocity=0 time=120
note_on channel=0 note=88 velocity=57 time=0
note_on channel=0 note=60 velocity=0 time=1
note_on channel=0 note=48 velocity=0 time=0
note_on channel=0 note=88 velocity=0 time=0
note_on channel=0 note=48 velocity=60 time=0
note_on channel=0 note=60 velocity=72 time=0
note_on channel=0 note=60 velocity=0 time=51
note_on channel=0 note=48 velocity=0 time=0
note_on channel=0 note=80 velocity=57 time=0
note_on channel=0 note=80 velocity=0 time=120
note_on channel=0 note=84 velocity=61 time=0
note_on channel=0 note=44 velocity=55 time=0
note_on channel=0 note=56 velocity=65 time=0
note_on channel=0 note=56 velocity=0 time=120
note_on channel=0 note=44 velocity=0 time=0
note_on channel=0 note=84 velocity=0 time=0
note_on channel=0 note=89 velocity=57 time=0
note_on channel=0 note=89 velocity=0 time=120
note_on channel=0 note=92 velocity=63 time=0
note_on channel=0 note=41 velocity=55 time=0
note_on channel=0 note=53 velocity=65 time=0
note_on channel=0 note=53 velocity=0 time=120
note_on channel=0 note=41 velocity=0 time=0
note_on channel=0 note=92 velocity=0 time=0
note_on channel=0 note=80 velocity=57 time=0
note_on channel=0 note=80 velocity=0 time=80
note_on channel=0 note=40 velocity=60 time=0
note_on channel=0 note=52 velocity=72 time=0
note_on channel=0 note=52 velocity=0 time=40
note_on channel=0 note=40 velocity=0 time=0
note_on channel=0 note=82 velocity=58 time=0
note_on channel=0 note=82 velocity=0 time=120
note_on channel=0 note=84 velocity=62 time=0
note_on channel=0 note=43 velocity=55 time=0
note_on channel=0 note=55 velocity=65 time=0
note_on channel=0 note=55 velocity=0 time=120
note_on channel=0 note=43 velocity=0 time=0
note_on channel=0 note=84 velocity=0 time=0
note_on channel=0 note=91 velocity=58 time=0
note_on channel=0 note=91 velocity=0 time=0
note_on channel=0 note=94 velocity=64 time=0
note_on channel=0 note=48 velocity=59 time=0
note_on channel=0 note=60 velocity=71 time=0
note_on channel=0 note=94 velocity=0 time=120
note_on channel=0 note=82 velocity=58 time=0
note_on channel=0 note=60 velocity=0 time=1
note_on channel=0 note=48 velocity=0 time=0
note_on channel=0 note=82 velocity=0 time=0
note_on channel=0 note=48 velocity=71 time=0
note_on channel=0 note=60 velocity=83 time=0
note_on channel=0 note=60 velocity=0 time=49
note_on channel=0 note=48 velocity=0 time=0
note_on channel=0 note=80 velocity=58 time=0
note_on channel=0 note=80 velocity=0 time=120
note_on channel=0 note=84 velocity=62 time=0
note_on channel=0 note=44 velocity=57 time=0
note_on channel=0 note=56 velocity=67 time=0
note_on channel=0 note=56 velocity=0 time=120
note_on channel=0 note=44 velocity=0 time=0
note_on channel=0 note=84 velocity=0 time=0
note_on channel=0 note=89 velocity=59 time=0
note_on channel=0 note=89 velocity=0 time=120
note_on channel=0 note=92 velocity=66 time=0
note_on channel=0 note=41 velocity=57 time=0
note_on channel=0 note=53 velocity=67 time=0
note_on channel=0 note=53 velocity=0 time=120
note_on channel=0 note=41 velocity=0 time=0
note_on channel=0 note=92 velocity=0 time=0
note_on channel=0 note=80 velocity=59 time=0
note_on channel=0 note=80 velocity=0 time=106
note_on channel=0 note=38 velocity=64 time=0
note_on channel=0 note=50 velocity=77 time=0
note_on channel=0 note=50 velocity=0 time=120
note_on channel=0 note=38 velocity=0 time=0
note_on channel=0 note=80 velocity=59 time=0
note_on channel=0 note=80 velocity=0 time=106
note_on channel=0 note=82 velocity=63 time=0
note_on channel=0 note=41 velocity=58 time=0
note_on channel=0 note=53 velocity=69 time=0
note_on channel=0 note=53 velocity=0 time=120
note_on channel=0 note=41 velocity=0 time=0
note_on channel=0 note=82 velocity=0 time=0
note_on channel=0 note=89 velocity=59 time=0
note_on channel=0 note=89 velocity=0 time=0
note_on channel=0 note=92 velocity=67 time=0
note_on channel=0 note=46 velocity=58 time=0
note_on channel=0 note=58 velocity=69 time=0
note_on channel=0 note=92 velocity=0 time=28
note_on channel=0 note=80 velocity=59 time=0
note_on channel=0 note=58 velocity=0 time=1
note_on channel=0 note=46 velocity=0 time=0
note_on channel=0 note=80 velocity=0 time=0
note_on channel=0 note=46 velocity=64 time=0
note_on channel=0 note=58 velocity=77 time=0
note_on channel=0 note=58 velocity=0 time=42
note_on channel=0 note=46 velocity=0 time=0
note_on channel=0 note=79 velocity=60 time=0
note_on channel=0 note=79 velocity=0 time=120
note_on channel=0 note=82 velocity=64 time=0
note_on channel=0 note=43 velocity=56 time=0
note_on channel=0 note=55 velocity=66 time=0
note_on channel=0 note=55 velocity=0 time=120
note_on channel=0 note=43 velocity=0 time=0
note_on channel=0 note=82 velocity=0 time=0
note_on channel=0 note=87 velocity=60 time=0
note_on channel=0 note=87 velocity=0 time=120
note_on channel=0 note=91 velocity=68 time=0
note_on channel=0 note=39 velocity=56 time=0
note_on channel=0 note=51 velocity=66 time=0
note_on channel=0 note=51 velocity=0 time=120
note_on channel=0 note=39 velocity=0 time=0
note_on channel=0 note=91 velocity=0 time=0
note_on channel=0 note=79 velocity=61 time=0
note_on channel=0 note=79 velocity=0 time=120
note_on channel=0 note=36 velocity=58 time=0
note_on channel=0 note=48 velocity=70 time=0
note_on channel=0 note=48 velocity=0 time=14
note_on channel=0 note=36 velocity=0 time=0
note_on channel=0 note=92 velocity=62 time=0
note_on channel=0 note=92 velocity=0 time=120
note_on channel=0 note=89 velocity=68 time=0
note_on channel=0 note=41 velocity=54 time=0
note_on channel=0 note=53 velocity=64 time=0
note_on channel=0 note=53 velocity=0 time=120
note_on channel=0 note=41 velocity=0 time=0
note_on channel=0 note=89 velocity=0 time=0
note_on channel=0 note=87 velocity=63 time=0
note_on channel=0 note=87 velocity=0 time=0
note_on channel=0 note=80 velocity=72 time=0
note_on channel=0 note=44 velocity=54 time=0
note_on channel=0 note=56 velocity=64 time=0
note_on channel=0 note=80 velocity=0 time=21
note_on channel=0 note=92 velocity=66 time=0
note_on channel=0 note=56 velocity=0 time=1
note_on channel=0 note=44 velocity=0 time=0
note_on channel=0 note=92 velocity=0 time=0
note_on channel=0 note=34 velocity=63 time=0
note_on channel=0 note=46 velocity=74 time=0
note_on channel=0 note=46 velocity=0 time=106
note_on channel=0 note=34 velocity=0 time=0
note_on channel=0 note=94 velocity=67 time=0
note_on channel=0 note=94 velocity=0 time=120
note_on channel=0 note=91 velocity=72 time=0
note_on channel=0 note=39 velocity=57 time=0
note_on channel=0 note=51 velocity=67 time=0
note_on channel=0 note=51 velocity=0 time=120
note_on channel=0 note=39 velocity=0 time=0
note_on channel=0 note=91 velocity=0 time=0
note_on channel=0 note=87 velocity=68 time=0
note_on channel=0 note=87 velocity=0 time=0
note_on channel=0 note=82 velocity=78 time=0
note_on channel=0 note=43 velocity=58 time=0
note_on channel=0 note=55 velocity=69 time=0
note_on channel=0 note=82 velocity=0 time=120
note_on channel=0 note=94 velocity=69 time=0
note_on channel=0 note=55 velocity=0 time=1
note_on channel=0 note=43 velocity=0 time=0
note_on channel=0 note=94 velocity=0 time=0
note_on channel=0 note=34 velocity=64 time=0
note_on channel=0 note=46 velocity=77 time=0
note_on channel=0 note=46 velocity=0 time=56
note_on channel=0 note=34 velocity=0 time=0
note_on channel=0 note=94 velocity=70 time=0
note_on channel=0 note=94 velocity=0 time=120
note_on channel=0 note=89 velocity=77 time=0
note_on channel=0 note=38 velocity=58 time=0
note_on channel=0 note=50 velocity=69 time=0
note_on channel=0 note=50 velocity=0 time=120
note_on channel=0 note=38 velocity=0 time=0
note_on channel=0 note=89 velocity=0 time=0
note_on channel=0 note=86 velocity=72 time=0
note_on channel=0 note=86 velocity=0 time=0
note_on channel=0 note=82 velocity=81 time=0
note_on channel=0 note=46 velocity=58 time=0
note_on channel=0 note=58 velocity=69 time=0
note_on channel=0 note=58 velocity=0 time=21
note_on channel=0 note=46 velocity=0 time=0
note_on channel=0 note=82 velocity=0 time=0
note_on channel=0 note=94 velocity=73 time=0
note_on channel=0 note=94 velocity=0 time=0
note_on channel=0 note=55 velocity=85 time=0
note_on channel=0 note=39 velocity=73 time=0
note_on channel=0 note=39 velocity=0 time=53
note_on channel=0 note=55 velocity=0 time=0
note_on channel=0 note=63 velocity=70 time=0
note_on channel=0 note=63 velocity=0 time=0
note_on channel=0 note=58 velocity=79 time=0
note_on channel=0 note=55 velocity=62 time=0
note_on channel=0 note=51 velocity=49 time=0
note_on channel=0 note=51 velocity=0 time=120
note_on channel=0 note=55 velocity=0 time=0
note_on channel=0 note=58 velocity=0 time=0
note_on channel=0 note=67 velocity=70 time=0
note_on channel=0 note=67 velocity=0 time=120
note_on channel=0 note=63 velocity=81 time=0
note_on channel=0 note=58 velocity=62 time=0
note_on channel=0 note=55 velocity=49 time=0
note_on channel=0 note=51 velocity=49 time=0
note_on channel=0 note=51 velocity=0 time=120
note_on channel=0 note=63 velocity=0 time=0
note_on channel=0 note=58 velocity=0 time=0
note_on channel=0 note=55 velocity=0 time=0
note_on channel=0 note=70 velocity=70 time=0
note_on channel=0 note=70 velocity=0 time=0
note_on channel=0 note=67 velocity=86 time=0
note_on channel=0 note=63 velocity=62 time=0
note_on channel=0 note=58 velocity=49 time=0
note_on channel=0 note=55 velocity=49 time=0
note_on channel=0 note=51 velocity=49 time=0
note_on channel=0 note=51 velocity=0 time=120
note_on channel=0 note=58 velocity=0 time=0
note_on channel=0 note=67 velocity=0 time=0
note_on channel=0 note=63 velocity=0 time=0
note_on channel=0 note=55 velocity=0 time=0
note_on channel=0 note=75 velocity=70 time=0
note_on channel=0 note=75 velocity=0 time=120
note_on channel=0 note=70 velocity=77 time=0
note_on channel=0 note=63 velocity=62 time=0
note_on channel=0 note=58 velocity=49 time=0
note_on channel=0 note=55 velocity=49 time=0
note_on channel=0 note=51 velocity=49 time=0
note_on channel=0 note=51 velocity=0 time=120
note_on channel=0 note=58 velocity=0 time=0
note_on channel=0 note=70 velocity=0 time=0
note_on channel=0 note=63 velocity=0 time=0
note_on channel=0 note=55 velocity=0 time=0
note_on channel=0 note=79 velocity=70 time=0
note_on channel=0 note=79 velocity=0 time=120
note_on channel=0 note=75 velocity=78 time=0
note_on channel=0 note=63 velocity=62 time=0
note_on channel=0 note=58 velocity=49 time=0
note_on channel=0 note=55 velocity=49 time=0
note_on channel=0 note=51 velocity=49 time=0
note_on channel=0 note=51 velocity=0 time=120
note_on channel=0 note=58 velocity=0 time=0
note_on channel=0 note=75 velocity=0 time=0
note_on channel=0 note=63 velocity=0 time=0
note_on channel=0 note=55 velocity=0 time=0
note_on channel=0 note=82 velocity=70 time=0
note_on channel=0 note=82 velocity=0 time=120
note_on channel=0 note=79 velocity=86 time=0
note_on channel=0 note=63 velocity=70 time=0
note_on channel=0 note=58 velocity=56 time=0
note_on channel=0 note=55 velocity=56 time=0
note_on channel=0 note=51 velocity=56 time=0
note_on channel=0 note=51 velocity=0 time=120
note_on channel=0 note=58 velocity=0 time=0
note_on channel=0 note=79 velocity=0 time=0
note_on channel=0 note=63 velocity=0 time=0
note_on channel=0 note=55 velocity=0 time=0
note_on channel=0 note=87 velocity=70 time=0
note_on channel=0 note=87 velocity=0 time=120
note_on channel=0 note=82 velocity=77 time=0
note_on channel=0 note=63 velocity=62 time=0
note_on channel=0 note=58 velocity=49 time=0
note_on channel=0 note=55 velocity=49 time=0
note_on channel=0 note=51 velocity=49 time=0
note_on channel=0 note=51 velocity=0 time=120
note_on channel=0 note=58 velocity=0 time=0
note_on channel=0 note=82 velocity=0 time=0
note_on channel=0 note=63 velocity=0 time=0
note_on channel=0 note=55 velocity=0 time=0
note_on channel=0 note=91 velocity=67 time=0
note_on channel=0 note=91 velocity=0 time=120
note_on channel=0 note=87 velocity=75 time=0
note_on channel=0 note=63 velocity=62 time=0
note_on channel=0 note=58 velocity=49 time=0
note_on channel=0 note=55 velocity=49 time=0
note_on channel=0 note=51 velocity=49 time=0
note_on channel=0 note=51 velocity=0 time=120
note_on channel=0 note=58 velocity=0 time=0
note_on channel=0 note=87 velocity=0 time=0
note_on channel=0 note=63 velocity=0 time=0
note_on channel=0 note=55 velocity=0 time=0
note_on channel=0 note=94 velocity=68 time=0
note_on channel=0 note=94 velocity=0 time=0
note_on channel=0 note=93 velocity=80 time=0
note_on channel=0 note=62 velocity=62 time=0
note_on channel=0 note=56 velocity=49 time=0
note_on channel=0 note=58 velocity=49 time=0
note_on channel=0 note=53 velocity=49 time=0
note_on channel=0 note=51 velocity=49 time=0
note_on channel=0 note=51 velocity=0 time=11
note_on channel=0 note=62 velocity=0 time=0
note_on channel=0 note=56 velocity=0 time=0
note_on channel=0 note=93 velocity=0 time=0
note_on channel=0 note=53 velocity=0 time=0
note_on channel=0 note=58 velocity=0 time=0
note_on channel=0 note=94 velocity=72 time=0
note_on channel=0 note=94 velocity=0 time=120
note_on channel=0 note=93 velocity=77 time=0
note_on channel=0 note=62 velocity=62 time=0
note_on channel=0 note=58 velocity=49 time=0
note_on channel=0 note=56 velocity=49 time=0
note_on channel=0 note=53 velocity=49 time=0
note_on channel=0 note=51 velocity=49 time=0
note_on channel=0 note=51 velocity=0 time=17
note_on channel=0 note=62 velocity=0 time=0
note_on channel=0 note=58 velocity=0 time=0
note_on channel=0 note=93 velocity=0 time=0
note_on channel=0 note=53 velocity=0 time=0
note_on channel=0 note=56 velocity=0 time=0
note_on channel=0 note=94 velocity=70 time=0
note_on channel=0 note=94 velocity=0 time=120
note_on channel=0 note=93 velocity=75 time=0
note_on channel=0 note=62 velocity=62 time=0
note_on channel=0 note=58 velocity=49 time=0
note_on channel=0 note=56 velocity=49 time=0
note_on channel=0 note=53 velocity=49 time=0
note_on channel=0 note=51 velocity=49 time=0
note_on channel=0 note=51 velocity=0 time=0
note_on channel=0 note=62 velocity=0 time=0
note_on channel=0 note=58 velocity=0 time=0
note_on channel=0 note=93 velocity=0 time=0
note_on channel=0 note=53 velocity=0 time=0
note_on channel=0 note=56 velocity=0 time=0
note_on channel=0 note=94 velocity=70 time=0
note_on channel=0 note=94 velocity=0 time=0
note_on channel=0 note=96 velocity=84 time=0
note_on channel=0 note=63 velocity=72 time=0
note_on channel=0 note=58 velocity=57 time=0
note_on channel=0 note=55 velocity=57 time=0
note_on channel=0 note=51 velocity=57 time=0
note_on channel=0 note=51 velocity=0 time=21
note_on channel=0 note=58 velocity=0 time=0
note_on channel=0 note=96 velocity=0 time=0
note_on channel=0 note=63 velocity=0 time=0
note_on channel=0 note=55 velocity=0 time=0
note_on channel=0 note=94 velocity=84 time=0
note_on channel=0 note=94 velocity=0 time=0
note_on channel=0 note=92 velocity=83 time=0
note_on channel=0 note=63 velocity=62 time=0
note_on channel=0 note=58 velocity=49 time=0
note_on channel=0 note=55 velocity=49 time=0
note_on channel=0 note=51 velocity=49 time=0
note_on channel=0 note=51 velocity=0 time=120
note_on channel=0 note=58 velocity=0 time=0
note_on channel=0 note=92 velocity=0 time=0
note_on channel=0 note=63 velocity=0 time=0
note_on channel=0 note=55 velocity=0 time=0
note_on channel=0 note=91 velocity=82 time=0
note_on channel=0 note=91 velocity=0 time=120
note_on channel=0 note=89 velocity=81 time=0
note_on channel=0 note=63 velocity=62 time=0
note_on channel=0 note=58 velocity=49 time=0
note_on channel=0 note=55 velocity=49 time=0
note_on channel=0 note=51 velocity=49 time=0
note_on channel=0 note=51 velocity=0 time=120
note_on channel=0 note=58 velocity=0 time=0
note_on channel=0 note=89 velocity=0 time=0
note_on channel=0 note=63 velocity=0 time=0
note_on channel=0 note=55 velocity=0 time=0
note_on channel=0 note=87 velocity=81 time=0
note_on channel=0 note=87 velocity=0 time=120
note_on channel=0 note=86 velocity=79 time=0
note_on channel=0 note=63 velocity=62 time=0
note_on channel=0 note=58 velocity=49 time=0
note_on channel=0 note=55 velocity=49 time=0
note_on channel=0 note=51 velocity=49 time=0
note_on channel=0 note=51 velocity=0 time=21
note_on channel=0 note=58 velocity=0 time=0
note_on channel=0 note=86 velocity=0 time=0
note_on channel=0 note=63 velocity=0 time=0
note_on channel=0 note=55 velocity=0 time=0
note_on channel=0 note=84 velocity=71 time=0
note_on channel=0 note=84 velocity=0 time=120
note_on channel=0 note=82 velocity=71 time=0
note_on channel=0 note=63 velocity=62 time=0
note_on channel=0 note=58 velocity=49 time=0
note_on channel=0 note=55 velocity=49 time=0
note_on channel=0 note=51 velocity=49 time=0
note_on channel=0 note=51 velocity=0 time=120
note_on channel=0 note=58 velocity=0 time=0
note_on channel=0 note=82 velocity=0 time=0
note_on channel=0 note=63 velocity=0 time=0
note_on channel=0 note=55 velocity=0 time=0
note_on channel=0 note=80 velocity=71 time=0
note_on channel=0 note=80 velocity=0 time=120
note_on channel=0 note=79 velocity=71 time=0
note_on channel=0 note=63 velocity=62 time=0
note_on channel=0 note=58 velocity=49 time=0
note_on channel=0 note=55 velocity=49 time=0
note_on channel=0 note=51 velocity=49 time=0
note_on channel=0 note=51 velocity=0 time=0
note_on channel=0 note=58 velocity=0 time=0
note_on channel=0 note=79 velocity=0 time=0
note_on channel=0 note=63 velocity=0 time=0
note_on channel=0 note=55 velocity=0 time=0
note_on channel=0 note=77 velocity=71 time=0
note_on channel=0 note=77 velocity=0 time=0
note_on channel=0 note=75 velocity=77 time=0
note_on channel=0 note=63 velocity=69 time=0
note_on channel=0 note=58 velocity=55 time=0
note_on channel=0 note=55 velocity=55 time=0
note_on channel=0 note=51 velocity=55 time=0
note_on channel=0 note=51 velocity=0 time=38
note_on channel=0 note=58 velocity=0 time=0
note_on channel=0 note=75 velocity=0 time=0
note_on channel=0 note=63 velocity=0 time=0
note_on channel=0 note=55 velocity=0 time=0
note_on channel=0 note=74 velocity=75 time=0
note_on channel=0 note=74 velocity=0 time=120
note_on channel=0 note=72 velocity=74 time=0
note_on channel=0 note=63 velocity=61 time=0
note_on channel=0 note=58 velocity=48 time=0
note_on channel=0 note=55 velocity=48 time=0
note_on channel=0 note=51 velocity=48 time=0
note_on channel=0 note=51 velocity=0 time=120
note_on channel=0 note=58 velocity=0 time=0
note_on channel=0 note=72 velocity=0 time=0
note_on channel=0 note=63 velocity=0 time=0
note_on channel=0 note=55 velocity=0 time=0
note_on channel=0 note=70 velocity=74 time=0
note_on channel=0 note=70 velocity=0 time=0
note_on channel=0 note=68 velocity=73 time=0
note_on channel=0 note=63 velocity=61 time=0
note_on channel=0 note=58 velocity=48 time=0
note_on channel=0 note=55 velocity=48 time=0
note_on channel=0 note=51 velocity=48 time=0
note_on channel=0 note=51 velocity=0 time=120
note_on channel=0 note=58 velocity=0 time=0
note_on channel=0 note=68 velocity=0 time=0
note_on channel=0 note=63 velocity=0 time=0
note_on channel=0 note=55 velocity=0 time=0
note_on channel=0 note=67 velocity=72 time=0
note_on channel=0 note=67 velocity=0 time=120
note_on channel=0 note=65 velocity=70 time=0
note_on channel=0 note=58 velocity=61 time=0
note_on channel=0 note=56 velocity=48 time=0
note_on channel=0 note=53 velocity=48 time=0
note_on channel=0 note=51 velocity=48 time=0
note_on channel=0 note=51 velocity=0 time=12
note_on channel=0 note=56 velocity=0 time=0
note_on channel=0 note=65 velocity=0 time=0
note_on channel=0 note=58 velocity=0 time=0
note_on channel=0 note=53 velocity=0 time=0
note_on channel=0 note=63 velocity=64 time=0
note_on channel=0 note=63 velocity=0 time=120
note_on channel=0 note=62 velocity=70 time=0
note_on channel=0 note=58 velocity=61 time=0
note_on channel=0 note=56 velocity=48 time=0
note_on channel=0 note=53 velocity=48 time=0
note_on channel=0 note=51 velocity=48 time=0
note_on channel=0 note=51 velocity=0 time=120
note_on channel=0 note=56 velocity=0 time=0
note_on channel=0 note=62 velocity=0 time=0
note_on channel=0 note=58 velocity=0 time=0
note_on channel=0 note=53 velocity=0 time=0
note_on channel=0 note=65 velocity=66 time=0
note_on channel=0 note=65 velocity=0 time=120
note_on channel=0 note=68 velocity=75 time=0
note_on channel=0 note=58 velocity=61 time=0
note_on channel=0 note=56 velocity=48 time=0
note_on channel=0 note=53 velocity=48 time=0
note_on channel=0 note=51 velocity=48 time=0
note_on channel=0 note=51 velocity=0 time=0
note_on channel=0 note=56 velocity=0 time=0
note_on channel=0 note=68 velocity=0 time=0
note_on channel=0 note=58 velocity=0 time=0
note_on channel=0 note=53 velocity=0 time=0
note_on channel=0 note=62 velocity=69 time=0
note_on channel=0 note=62 velocity=0 time=0
note_on channel=0 note=55 velocity=85 time=0
note_on channel=0 note=39 velocity=73 time=0
note_on channel=0 note=39 velocity=0 time=53
note_on channel=0 note=55 velocity=0 time=0
note_on channel=0 note=63 velocity=70 time=0
note_on channel=0 note=63 velocity=0 time=0
note_on channel=0 note=58 velocity=79 time=0
note_on channel=0 note=55 velocity=62 time=0
note_on channel=0 note=51 velocity=49 time=0
note_on channel=0 note=51 velocity=0 time=120
note_on channel=0 note=55 velocity=0 time=0
note_on channel=0 note=58 velocity=0 time=0
note_on channel=0 note=67 velocity=70 time=0
note_on channel=0 note=67 velocity=0 time=120
note_on channel=0 note=63 velocity=81 time=0
note_on channel=0 note=58 velocity=62 time=0
note_on channel=0 note=55 velocity=49 time=0
note_on channel=0 note=51 velocity=49 time=0
note_on channel=0 note=51 velocity=0 time=120
note_on channel=0 note=63 velocity=0 time=0
note_on channel=0 note=58 velocity=0 time=0
note_on channel=0 note=55 velocity=0 time=0
note_on channel=0 note=70 velocity=70 time=0
note_on channel=0 note=70 velocity=0 time=0
note_on channel=0 note=67 velocity=86 time=0
note_on channel=0 note=63 velocity=62 time=0
note_on channel=0 note=58 velocity=49 time=0
note_on channel=0 note=55 velocity=49 time=0
note_on channel=0 note=51 velocity=49 time=0
note_on channel=0 note=51 velocity=0 time=120
note_on channel=0 note=58 velocity=0 time=0
note_on channel=0 note=67 velocity=0 time=0
note_on channel=0 note=63 velocity=0 time=0
note_on channel=0 note=55 velocity=0 time=0
note_on channel=0 note=75 velocity=70 time=0
note_on channel=0 note=75 velocity=0 time=120
note_on channel=0 note=70 velocity=77 time=0
note_on channel=0 note=63 velocity=62 time=0
note_on channel=0 note=58 velocity=49 time=0
note_on channel=0 note=55 velocity=49 time=0
note_on channel=0 note=51 velocity=49 time=0
note_on channel=0 note=51 velocity=0 time=120
note_on channel=0 note=58 velocity=0 time=0
note_on channel=0 note=70 velocity=0 time=0
note_on channel=0 note=63 velocity=0 time=0
note_on channel=0 note=55 velocity=0 time=0
note_on channel=0 note=79 velocity=70 time=0
note_on channel=0 note=79 velocity=0 time=120
note_on channel=0 note=75 velocity=78 time=0
note_on channel=0 note=63 velocity=62 time=0
note_on channel=0 note=58 velocity=49 time=0
note_on channel=0 note=55 velocity=49 time=0
note_on channel=0 note=51 velocity=49 time=0
note_on channel=0 note=51 velocity=0 time=120
note_on channel=0 note=58 velocity=0 time=0
note_on channel=0 note=75 velocity=0 time=0
note_on channel=0 note=63 velocity=0 time=0
note_on channel=0 note=55 velocity=0 time=0
note_on channel=0 note=82 velocity=70 time=0
note_on channel=0 note=82 velocity=0 time=120
note_on channel=0 note=79 velocity=86 time=0
note_on channel=0 note=63 velocity=70 time=0
note_on channel=0 note=58 velocity=56 time=0
note_on channel=0 note=55 velocity=56 time=0
note_on channel=0 note=51 velocity=56 time=0
note_on channel=0 note=51 velocity=0 time=120
note_on channel=0 note=58 velocity=0 time=0
note_on channel=0 note=79 velocity=0 time=0
note_on channel=0 note=63 velocity=0 time=0
note_on channel=0 note=55 velocity=0 time=0
note_on channel=0 note=87 velocity=70 time=0
note_on channel=0 note=87 velocity=0 time=120
note_on channel=0 note=82 velocity=77 time=0
note_on channel=0 note=63 velocity=62 time=0
note_on channel=0 note=58 velocity=49 time=0
note_on channel=0 note=55 velocity=49 time=0
note_on channel=0 note=51 velocity=49 time=0
note_on channel=0 note=51 velocity=0 time=120
note_on channel=0 note=58 velocity=0 time=0
note_on channel=0 note=82 velocity=0 time=0
note_on channel=0 note=63 velocity=0 time=0
note_on channel=0 note=55 velocity=0 time=0
note_on channel=0 note=91 velocity=67 time=0
note_on channel=0 note=91 velocity=0 time=120
note_on channel=0 note=87 velocity=75 time=0
note_on channel=0 note=63 velocity=62 time=0
note_on channel=0 note=58 velocity=49 time=0
note_on channel=0 note=55 velocity=49 time=0
note_on channel=0 note=51 velocity=49 time=0
note_on channel=0 note=51 velocity=0 time=120
note_on channel=0 note=58 velocity=0 time=0
note_on channel=0 note=87 velocity=0 time=0
note_on channel=0 note=63 velocity=0 time=0
note_on channel=0 note=55 velocity=0 time=0
note_on channel=0 note=94 velocity=68 time=0
note_on channel=0 note=94 velocity=0 time=0
note_on channel=0 note=93 velocity=80 time=0
note_on channel=0 note=61 velocity=62 time=0
note_on channel=0 note=58 velocity=49 time=0
note_on channel=0 note=55 velocity=49 time=0
note_on channel=0 note=51 velocity=49 time=0
note_on channel=0 note=51 velocity=0 time=11
note_on channel=0 note=58 velocity=0 time=0
note_on channel=0 note=93 velocity=0 time=0
note_on channel=0 note=61 velocity=0 time=0
note_on channel=0 note=55 velocity=0 time=0
note_on channel=0 note=94 velocity=72 time=0
note_on channel=0 note=94 velocity=0 time=120
note_on channel=0 note=93 velocity=77 time=0
note_on channel=0 note=61 velocity=62 time=0
note_on channel=0 note=58 velocity=49 time=0
note_on channel=0 note=55 velocity=49 time=0
note_on channel=0 note=51 velocity=49 time=0
note_on channel=0 note=51 velocity=0 time=17
note_on channel=0 note=58 velocity=0 time=0
note_on channel=0 note=93 velocity=0 time=0
note_on channel=0 note=61 velocity=0 time=0
note_on channel=0 note=55 velocity=0 time=0
note_on channel=0 note=94 velocity=70 time=0
note_on channel=0 note=94 velocity=0 time=120
note_on channel=0 note=93 velocity=75 time=0
note_on channel=0 note=61 velocity=62 time=0
note_on channel=0 note=58 velocity=49 time=0
note_on channel=0 note=55 velocity=49 time=0
note_on channel=0 note=51 velocity=49 time=0
note_on channel=0 note=51 velocity=0 time=0
note_on channel=0 note=58 velocity=0 time=0
note_on channel=0 note=93 velocity=0 time=0
note_on channel=0 note=61 velocity=0 time=0
note_on channel=0 note=55 velocity=0 time=0
note_on channel=0 note=94 velocity=70 time=0
note_on channel=0 note=94 velocity=0 time=0
note_on channel=0 note=96 velocity=84 time=0
note_on channel=0 note=61 velocity=72 time=0
note_on channel=0 note=58 velocity=57 time=0
note_on channel=0 note=55 velocity=57 time=0
note_on channel=0 note=51 velocity=57 time=0
note_on channel=0 note=51 velocity=0 time=40
note_on channel=0 note=58 velocity=0 time=0
note_on channel=0 note=96 velocity=0 time=0
note_on channel=0 note=61 velocity=0 time=0
note_on channel=0 note=55 velocity=0 time=0
note_on channel=0 note=94 velocity=84 time=0
note_on channel=0 note=94 velocity=0 time=0
note_on channel=0 note=92 velocity=83 time=0
note_on channel=0 note=61 velocity=62 time=0
note_on channel=0 note=58 velocity=49 time=0
note_on channel=0 note=55 velocity=49 time=0
note_on channel=0 note=51 velocity=49 time=0
note_on channel=0 note=51 velocity=0 time=120
note_on channel=0 note=58 velocity=0 time=0
note_on channel=0 note=92 velocity=0 time=0
note_on channel=0 note=61 velocity=0 time=0
note_on channel=0 note=55 velocity=0 time=0
note_on channel=0 note=91 velocity=82 time=0
note_on channel=0 note=91 velocity=0 time=120
note_on channel=0 note=89 velocity=81 time=0
note_on channel=0 note=61 velocity=62 time=0
note_on channel=0 note=58 velocity=49 time=0
note_on channel=0 note=55 velocity=49 time=0
note_on channel=0 note=51 velocity=49 time=0
note_on channel=0 note=51 velocity=0 time=120
note_on channel=0 note=58 velocity=0 time=0
note_on channel=0 note=89 velocity=0 time=0
note_on channel=0 note=61 velocity=0 time=0
note_on channel=0 note=55 velocity=0 time=0
note_on channel=0 note=87 velocity=81 time=0
note_on channel=0 note=87 velocity=0 time=120
note_on channel=0 note=85 velocity=79 time=0
note_on channel=0 note=61 velocity=62 time=0
note_on channel=0 note=58 velocity=49 time=0
note_on channel=0 note=55 velocity=49 time=0
note_on channel=0 note=51 velocity=49 time=0
note_on channel=0 note=51 velocity=0 time=40
note_on channel=0 note=58 velocity=0 time=0
note_on channel=0 note=85 velocity=0 time=0
note_on channel=0 note=61 velocity=0 time=0
note_on channel=0 note=55 velocity=0 time=0
note_on channel=0 note=84 velocity=71 time=0
note_on channel=0 note=84 velocity=0 time=120
note_on channel=0 note=82 velocity=71 time=0
note_on channel=0 note=61 velocity=62 time=0
note_on channel=0 note=58 velocity=49 time=0
note_on channel=0 note=55 velocity=49 time=0
note_on channel=0 note=51 velocity=49 time=0
note_on channel=0 note=51 velocity=0 time=120
note_on channel=0 note=58 velocity=0 time=0
note_on channel=0 note=82 velocity=0 time=0
note_on channel=0 note=61 velocity=0 time=0
note_on channel=0 note=55 velocity=0 time=0
note_on channel=0 note=80 velocity=71 time=0
note_on channel=0 note=80 velocity=0 time=120
note_on channel=0 note=79 velocity=71 time=0
note_on channel=0 note=61 velocity=62 time=0
note_on channel=0 note=58 velocity=49 time=0
note_on channel=0 note=55 velocity=49 time=0
note_on channel=0 note=51 velocity=49 time=0
note_on channel=0 note=51 velocity=0 time=0
note_on channel=0 note=58 velocity=0 time=0
note_on channel=0 note=79 velocity=0 time=0
note_on channel=0 note=61 velocity=0 time=0
note_on channel=0 note=55 velocity=0 time=0
note_on channel=0 note=77 velocity=71 time=0
note_on channel=0 note=77 velocity=0 time=0
note_on channel=0 note=75 velocity=77 time=0
note_on channel=0 note=58 velocity=55 time=0
note_on channel=0 note=61 velocity=69 time=0
note_on channel=0 note=55 velocity=55 time=0
note_on channel=0 note=51 velocity=55 time=0
note_on channel=0 note=51 velocity=0 time=74
note_on channel=0 note=61 velocity=0 time=0
note_on channel=0 note=55 velocity=0 time=0
note_on channel=0 note=58 velocity=0 time=0
note_on channel=0 note=73 velocity=75 time=0
note_on channel=0 note=75 velocity=0 time=1
note_on channel=0 note=72 velocity=74 time=119
note_on channel=0 note=58 velocity=48 time=0
note_on channel=0 note=61 velocity=61 time=0
note_on channel=0 note=55 velocity=48 time=0
note_on channel=0 note=51 velocity=48 time=0
note_on channel=0 note=73 velocity=0 time=1
note_on channel=0 note=58 velocity=0 time=119
note_on channel=0 note=61 velocity=0 time=0
note_on channel=0 note=72 velocity=0 time=0
note_on channel=0 note=51 velocity=0 time=0
note_on channel=0 note=55 velocity=0 time=0
note_on channel=0 note=70 velocity=74 time=0
note_on channel=0 note=70 velocity=0 time=0
note_on channel=0 note=68 velocity=73 time=0
note_on channel=0 note=56 velocity=48 time=0
note_on channel=0 note=60 velocity=61 time=0
note_on channel=0 note=51 velocity=48 time=0
note_on channel=0 note=51 velocity=0 time=70
note_on channel=0 note=68 velocity=0 time=0
note_on channel=0 note=56 velocity=0 time=0
note_on channel=0 note=60 velocity=0 time=0
note_on channel=0 note=67 velocity=72 time=0
note_on channel=0 note=67 velocity=0 time=120
note_on channel=0 note=65 velocity=68 time=0
note_on channel=0 note=51 velocity=48 time=0
note_on channel=0 note=53 velocity=48 time=0
note_on channel=0 note=59 velocity=61 time=0
note_on channel=0 note=56 velocity=48 time=0
note_on channel=0 note=56 velocity=0 time=24
note_on channel=0 note=53 velocity=0 time=0
note_on channel=0 note=65 velocity=0 time=0
note_on channel=0 note=51 velocity=0 time=0
note_on channel=0 note=59 velocity=0 time=0
note_on channel=0 note=63 velocity=59 time=0
note_on channel=0 note=63 velocity=0 time=120
note_on channel=0 note=62 velocity=66 time=0
note_on channel=0 note=51 velocity=48 time=0
note_on channel=0 note=59 velocity=61 time=0
note_on channel=0 note=56 velocity=48 time=0
note_on channel=0 note=53 velocity=48 time=0
note_on channel=0 note=53 velocity=0 time=120
note_on channel=0 note=59 velocity=0 time=0
note_on channel=0 note=62 velocity=0 time=0
note_on channel=0 note=51 velocity=0 time=0
note_on channel=0 note=56 velocity=0 time=0
note_on channel=0 note=65 velocity=59 time=0
note_on channel=0 note=65 velocity=0 time=120
note_on channel=0 note=68 velocity=64 time=0
note_on channel=0 note=51 velocity=48 time=0
note_on channel=0 note=58 velocity=61 time=0
note_on channel=0 note=56 velocity=48 time=0
note_on channel=0 note=53 velocity=48 time=0
note_on channel=0 note=53 velocity=0 time=0
note_on channel=0 note=58 velocity=0 time=0
note_on channel=0 note=68 velocity=0 time=0
note_on channel=0 note=51 velocity=0 time=0
note_on channel=0 note=56 velocity=0 time=0
note_on channel=0 note=62 velocity=59 time=0
note_on channel=0 note=62 velocity=0 time=0
note_on channel=0 note=63 velocity=95 time=0
note_on channel=0 note=39 velocity=80 time=0
note_on channel=0 note=51 velocity=80 time=0
note_on channel=0 note=51 velocity=0 time=190
note_on channel=0 note=39 velocity=0 time=0
note_on channel=0 note=63 velocity=0 time=0
note_on channel=0 note=75 velocity=89 time=0
note_on channel=0 note=63 velocity=75 time=0
note_on channel=0 note=63 velocity=0 time=240
note_on channel=0 note=75 velocity=0 time=0
note_on channel=0 note=78 velocity=96 time=480
note_on channel=0 note=66 velocity=81 time=0
note_on channel=0 note=66 velocity=0 time=240
note_on channel=0 note=78 velocity=0 time=0
note_on channel=0 note=83 velocity=88 time=480
note_on channel=0 note=71 velocity=74 time=0
note_on channel=0 note=71 velocity=0 time=240
note_on channel=0 note=83 velocity=0 time=0
note_on channel=0 note=78 velocity=94 time=0
note_on channel=0 note=66 velocity=79 time=0
note_on channel=0 note=66 velocity=0 time=240
note_on channel=0 note=78 velocity=0 time=0
note_on channel=0 note=75 velocity=88 time=0
note_on channel=0 note=63 velocity=74 time=0
note_on channel=0 note=63 velocity=0 time=240
note_on channel=0 note=75 velocity=0 time=0
note_on channel=0 note=71 velocity=93 time=480
note_on channel=0 note=59 velocity=78 time=0
note_on channel=0 note=59 velocity=0 time=240
note_on channel=0 note=71 velocity=0 time=0
note_on channel=0 note=66 velocity=82 time=0
note_on channel=0 note=54 velocity=70 time=0
note_on channel=0 note=54 velocity=0 time=240
note_on channel=0 note=66 velocity=0 time=0
note_on channel=0 note=62 velocity=95 time=0
note_on channel=0 note=38 velocity=80 time=0
note_on channel=0 note=50 velocity=80 time=0
note_on channel=0 note=50 velocity=0 time=60
note_on channel=0 note=38 velocity=0 time=0
note_on channel=0 note=62 velocity=0 time=0
note_on channel=0 note=74 velocity=89 time=0
note_on channel=0 note=62 velocity=75 time=0
note_on channel=0 note=62 velocity=0 time=240
note_on channel=0 note=74 velocity=0 time=0
note_on channel=0 note=77 velocity=96 time=480
note_on channel=0 note=65 velocity=81 time=0
note_on channel=0 note=65 velocity=0 time=240
note_on channel=0 note=77 velocity=0 time=0
note_on channel=0 note=82 velocity=88 time=480
note_on channel=0 note=70 velocity=74 time=0
note_on channel=0 note=70 velocity=0 time=240
note_on channel=0 note=82 velocity=0 time=0
note_on channel=0 note=77 velocity=94 time=0
note_on channel=0 note=65 velocity=79 time=0
note_on channel=0 note=65 velocity=0 time=240
note_on channel=0 note=77 velocity=0 time=0
note_on channel=0 note=74 velocity=88 time=0
note_on channel=0 note=62 velocity=74 time=0
note_on channel=0 note=62 velocity=0 time=240
note_on channel=0 note=74 velocity=0 time=0
note_on channel=0 note=70 velocity=93 time=480
note_on channel=0 note=58 velocity=78 time=0
note_on channel=0 note=58 velocity=0 time=240
note_on channel=0 note=70 velocity=0 time=0
note_on channel=0 note=65 velocity=82 time=0
note_on channel=0 note=53 velocity=70 time=0
note_on channel=0 note=53 velocity=0 time=240
note_on channel=0 note=65 velocity=0 time=0
note_on channel=0 note=78 velocity=55 time=0
note_on channel=0 note=63 velocity=34 time=0
note_on channel=0 note=66 velocity=34 time=0
note_on channel=0 note=71 velocity=40 time=0
note_on channel=0 note=71 velocity=0 time=120
note_on channel=0 note=78 velocity=0 time=0
note_on channel=0 note=63 velocity=0 time=0
note_on channel=0 note=66 velocity=0 time=0
note_on channel=0 note=63 velocity=29 time=0
note_on channel=0 note=66 velocity=29 time=0
note_on channel=0 note=71 velocity=35 time=0
note_on channel=0 note=71 velocity=0 time=120
note_on channel=0 note=66 velocity=0 time=0
note_on channel=0 note=63 velocity=0 time=0
note_on channel=0 note=89 velocity=51 time=60
note_on channel=0 note=89 velocity=0 time=60
note_on channel=0 note=87 velocity=56 time=0
note_on channel=0 note=63 velocity=29 time=0
note_on channel=0 note=66 velocity=29 time=0
note_on channel=0 note=71 velocity=35 time=0
note_on channel=0 note=71 velocity=0 time=120
note_on channel=0 note=87 velocity=0 time=0
note_on channel=0 note=63 velocity=0 time=0
note_on channel=0 note=66 velocity=0 time=0
note_on channel=0 note=86 velocity=51 time=0
note_on channel=0 note=86 velocity=0 time=120
note_on channel=0 note=87 velocity=56 time=0
note_on channel=0 note=63 velocity=29 time=0
note_on channel=0 note=66 velocity=29 time=0
note_on channel=0 note=71 velocity=35 time=0
note_on channel=0 note=71 velocity=0 time=120
note_on channel=0 note=66 velocity=0 time=0
note_on channel=0 note=63 velocity=0 time=0
note_on channel=0 note=87 velocity=0 time=120
note_on channel=0 note=63 velocity=29 time=0
note_on channel=0 note=66 velocity=29 time=0
note_on channel=0 note=71 velocity=35 time=0
note_on channel=0 note=71 velocity=0 time=120
note_on channel=0 note=66 velocity=0 time=0
note_on channel=0 note=63 velocity=0 time=0
note_on channel=0 note=92 velocity=51 time=60
note_on channel=0 note=92 velocity=0 time=60
note_on channel=0 note=90 velocity=57 time=0
note_on channel=0 note=63 velocity=29 time=0
note_on channel=0 note=66 velocity=29 time=0
note_on channel=0 note=71 velocity=35 time=0
note_on channel=0 note=71 velocity=0 time=120
note_on channel=0 note=90 velocity=0 time=0
note_on channel=0 note=63 velocity=0 time=0
note_on channel=0 note=66 velocity=0 time=0
note_on channel=0 note=89 velocity=50 time=0
note_on channel=0 note=89 velocity=0 time=0
note_on channel=0 note=90 velocity=60 time=0
note_on channel=0 note=63 velocity=34 time=0
note_on channel=0 note=66 velocity=34 time=0
note_on channel=0 note=71 velocity=40 time=0
note_on channel=0 note=71 velocity=0 time=120
note_on channel=0 note=90 velocity=0 time=0
note_on channel=0 note=63 velocity=0 time=0
note_on channel=0 note=66 velocity=0 time=0
note_on channel=0 note=63 velocity=29 time=0
note_on channel=0 note=66 velocity=29 time=0
note_on channel=0 note=71 velocity=35 time=0
note_on channel=0 note=71 velocity=0 time=120
note_on channel=0 note=66 velocity=0 time=0
note_on channel=0 note=63 velocity=0 time=0
note_on channel=0 note=97 velocity=51 time=60
note_on channel=0 note=97 velocity=0 time=0
note_on channel=0 note=95 velocity=56 time=0
note_on channel=0 note=63 velocity=29 time=0
note_on channel=0 note=66 velocity=29 time=0
note_on channel=0 note=71 velocity=35 time=0
note_on channel=0 note=71 velocity=0 time=120
note_on channel=0 note=95 velocity=0 time=0
note_on channel=0 note=63 velocity=0 time=0
note_on channel=0 note=66 velocity=0 time=0
note_on channel=0 note=94 velocity=51 time=0
note_on channel=0 note=94 velocity=0 time=120
note_on channel=0 note=95 velocity=56 time=0
note_on channel=0 note=63 velocity=29 time=0
note_on channel=0 note=66 velocity=29 time=0
note_on channel=0 note=71 velocity=35 time=0
note_on channel=0 note=71 velocity=0 time=120
note_on channel=0 note=66 velocity=0 time=0
note_on channel=0 note=63 velocity=0 time=0
note_on channel=0 note=95 velocity=0 time=120
note_on channel=0 note=63 velocity=29 time=0
note_on channel=0 note=66 velocity=29 time=0
note_on channel=0 note=71 velocity=35 time=0
note_on channel=0 note=71 velocity=0 time=120
note_on channel=0 note=66 velocity=0 time=0
note_on channel=0 note=63 velocity=0 time=0
note_on channel=0 note=92 velocity=51 time=60
note_on channel=0 note=92 velocity=0 time=0
note_on channel=0 note=90 velocity=57 time=0
note_on channel=0 note=63 velocity=29 time=0
note_on channel=0 note=66 velocity=29 time=0
note_on channel=0 note=71 velocity=35 time=0
note_on channel=0 note=71 velocity=0 time=120
note_on channel=0 note=90 velocity=0 time=0
note_on channel=0 note=63 velocity=0 time=0
note_on channel=0 note=66 velocity=0 time=0
note_on channel=0 note=89 velocity=50 time=0
note_on channel=0 note=89 velocity=0 time=0
note_on channel=0 note=90 velocity=60 time=0
note_on channel=0 note=63 velocity=34 time=0
note_on channel=0 note=66 velocity=34 time=0
note_on channel=0 note=71 velocity=40 time=0
note_on channel=0 note=71 velocity=0 time=120
note_on channel=0 note=90 velocity=0 time=0
note_on channel=0 note=63 velocity=0 time=0
note_on channel=0 note=66 velocity=0 time=0
note_on channel=0 note=63 velocity=29 time=120
note_on channel=0 note=66 velocity=29 time=0
note_on channel=0 note=71 velocity=35 time=0
note_on channel=0 note=71 velocity=0 time=120
note_on channel=0 note=66 velocity=0 time=0
note_on channel=0 note=63 velocity=0 time=0
note_on channel=0 note=89 velocity=51 time=60
note_on channel=0 note=89 velocity=0 time=60
note_on channel=0 note=87 velocity=56 time=0
note_on channel=0 note=63 velocity=29 time=0
note_on channel=0 note=66 velocity=29 time=0
note_on channel=0 note=71 velocity=35 time=0
note_on channel=0 note=71 velocity=0 time=120
note_on channel=0 note=87 velocity=0 time=0
note_on channel=0 note=63 velocity=0 time=0
note_on channel=0 note=66 velocity=0 time=0
note_on channel=0 note=86 velocity=51 time=0
note_on channel=0 note=86 velocity=0 time=120
note_on channel=0 note=87 velocity=56 time=0
note_on channel=0 note=63 velocity=29 time=0
note_on channel=0 note=66 velocity=29 time=0
note_on channel=0 note=71 velocity=35 time=0
note_on channel=0 note=71 velocity=0 time=120
note_on channel=0 note=66 velocity=0 time=0
note_on channel=0 note=63 velocity=0 time=0
note_on channel=0 note=87 velocity=0 time=120
note_on channel=0 note=63 velocity=29 time=0
note_on channel=0 note=66 velocity=29 time=0
note_on channel=0 note=71 velocity=35 time=0
note_on channel=0 note=71 velocity=0 time=120
note_on channel=0 note=66 velocity=0 time=0
note_on channel=0 note=63 velocity=0 time=0
note_on channel=0 note=85 velocity=51 time=60
note_on channel=0 note=85 velocity=0 time=0
note_on channel=0 note=83 velocity=57 time=0
note_on channel=0 note=63 velocity=29 time=0
note_on channel=0 note=66 velocity=29 time=0
note_on channel=0 note=71 velocity=35 time=0
note_on channel=0 note=71 velocity=0 time=120
note_on channel=0 note=83 velocity=0 time=0
note_on channel=0 note=63 velocity=0 time=0
note_on channel=0 note=66 velocity=0 time=0
note_on channel=0 note=82 velocity=50 time=0
note_on channel=0 note=82 velocity=0 time=0
note_on channel=0 note=83 velocity=60 time=0
note_on channel=0 note=63 velocity=34 time=0
note_on channel=0 note=66 velocity=34 time=0
note_on channel=0 note=71 velocity=40 time=0
note_on channel=0 note=71 velocity=0 time=120
note_on channel=0 note=83 velocity=0 time=0
note_on channel=0 note=63 velocity=0 time=0
note_on channel=0 note=66 velocity=0 time=0
note_on channel=0 note=63 velocity=29 time=120
note_on channel=0 note=66 velocity=29 time=0
note_on channel=0 note=71 velocity=35 time=0
note_on channel=0 note=71 velocity=0 time=120
note_on channel=0 note=66 velocity=0 time=0
note_on channel=0 note=63 velocity=0 time=0
note_on channel=0 note=80 velocity=51 time=60
note_on channel=0 note=80 velocity=0 time=60
note_on channel=0 note=78 velocity=56 time=0
note_on channel=0 note=63 velocity=29 time=0
note_on channel=0 note=66 velocity=29 time=0
note_on channel=0 note=71 velocity=35 time=0
note_on channel=0 note=71 velocity=0 time=120
note_on channel=0 note=78 velocity=0 time=0
note_on channel=0 note=63 velocity=0 time=0
note_on channel=0 note=66 velocity=0 time=0
note_on channel=0 note=77 velocity=51 time=0
note_on channel=0 note=77 velocity=0 time=120
note_on channel=0 note=78 velocity=56 time=0
note_on channel=0 note=63 velocity=29 time=0
note_on channel=0 note=66 velocity=29 time=0
note_on channel=0 note=71 velocity=35 time=0
note_on channel=0 note=71 velocity=0 time=120
note_on channel=0 note=66 velocity=0 time=0
note_on channel=0 note=63 velocity=0 time=0
note_on channel=0 note=63 velocity=29 time=120
note_on channel=0 note=66 velocity=29 time=0
note_on channel=0 note=71 velocity=35 time=0
note_on channel=0 note=71 velocity=0 time=120
note_on channel=0 note=66 velocity=0 time=0
note_on channel=0 note=63 velocity=0 time=0
note_on channel=0 note=78 velocity=0 time=120
note_on channel=0 note=63 velocity=29 time=0
note_on channel=0 note=66 velocity=29 time=0
note_on channel=0 note=69 velocity=35 time=0
note_on channel=0 note=69 velocity=0 time=120
note_on channel=0 note=66 velocity=0 time=0
note_on channel=0 note=63 velocity=0 time=0
note_on channel=0 note=77 velocity=55 time=0
note_on channel=0 note=62 velocity=34 time=0
note_on channel=0 note=65 velocity=34 time=0
note_on channel=0 note=70 velocity=40 time=0
note_on channel=0 note=70 velocity=0 time=120
note_on channel=0 note=77 velocity=0 time=0
note_on channel=0 note=62 velocity=0 time=0
note_on channel=0 note=65 velocity=0 time=0
note_on channel=0 note=62 velocity=29 time=0
note_on channel=0 note=65 velocity=29 time=0
note_on channel=0 note=70 velocity=35 time=0
note_on channel=0 note=70 velocity=0 time=120
note_on channel=0 note=65 velocity=0 time=0
note_on channel=0 note=62 velocity=0 time=0
note_on channel=0 note=87 velocity=51 time=60
note_on channel=0 note=87 velocity=0 time=60
note_on channel=0 note=86 velocity=56 time=0
note_on channel=0 note=62 velocity=29 time=0
note_on channel=0 note=65 velocity=29 time=0
note_on channel=0 note=70 velocity=35 time=0
note_on channel=0 note=70 velocity=0 time=120
note_on channel=0 note=86 velocity=0 time=0
note_on channel=0 note=62 velocity=0 time=0
note_on channel=0 note=65 velocity=0 time=0
note_on channel=0 note=84 velocity=51 time=0
note_on channel=0 note=84 velocity=0 time=120
note_on channel=0 note=86 velocity=56 time=0
note_on channel=0 note=62 velocity=29 time=0
note_on channel=0 note=65 velocity=29 time=0
note_on channel=0 note=70 velocity=35 time=0
note_on channel=0 note=70 velocity=0 time=120
note_on channel=0 note=65 velocity=0 time=0
note_on channel=0 note=62 velocity=0 time=0
note_on channel=0 note=86 velocity=0 time=120
note_on channel=0 note=62 velocity=29 time=0
note_on channel=0 note=65 velocity=29 time=0
note_on channel=0 note=70 velocity=35 time=0
note_on channel=0 note=70 velocity=0 time=120
note_on channel=0 note=65 velocity=0 time=0
note_on channel=0 note=62 velocity=0 time=0
note_on channel=0 note=90 velocity=51 time=60
note_on channel=0 note=90 velocity=0 time=60
note_on channel=0 note=89 velocity=57 time=0
note_on channel=0 note=62 velocity=29 time=0
note_on channel=0 note=65 velocity=29 time=0
note_on channel=0 note=70 velocity=35 time=0
note_on channel=0 note=70 velocity=0 time=120
note_on channel=0 note=89 velocity=0 time=0
note_on channel=0 note=62 velocity=0 time=0
note_on channel=0 note=65 velocity=0 time=0
note_on channel=0 note=88 velocity=50 time=0
note_on channel=0 note=88 velocity=0 time=0
note_on channel=0 note=89 velocity=60 time=0
note_on channel=0 note=62 velocity=34 time=0
note_on channel=0 note=65 velocity=34 time=0
note_on channel=0 note=70 velocity=40 time=0
note_on channel=0 note=70 velocity=0 time=120
note_on channel=0 note=89 velocity=0 time=0
note_on channel=0 note=62 velocity=0 time=0
note_on channel=0 note=65 velocity=0 time=0
note_on channel=0 note=62 velocity=29 time=0
note_on channel=0 note=65 velocity=29 time=0
note_on channel=0 note=70 velocity=35 time=0
note_on channel=0 note=70 velocity=0 time=120
note_on channel=0 note=65 velocity=0 time=0
note_on channel=0 note=62 velocity=0 time=0
note_on channel=0 note=95 velocity=51 time=60
note_on channel=0 note=95 velocity=0 time=60
note_on channel=0 note=94 velocity=56 time=0
note_on channel=0 note=62 velocity=29 time=0
note_on channel=0 note=65 velocity=29 time=0
note_on channel=0 note=70 velocity=35 time=0
note_on channel=0 note=70 velocity=0 time=120
note_on channel=0 note=94 velocity=0 time=0
note_on channel=0 note=62 velocity=0 time=0
note_on channel=0 note=65 velocity=0 time=0
note_on channel=0 note=93 velocity=51 time=0
note_on channel=0 note=93 velocity=0 time=120
note_on channel=0 note=94 velocity=56 time=0
note_on channel=0 note=62 velocity=29 time=0
note_on channel=0 note=65 velocity=29 time=0
note_on channel=0 note=70 velocity=35 time=0
note_on channel=0 note=70 velocity=0 time=120
note_on channel=0 note=65 velocity=0 time=0
note_on channel=0 note=62 velocity=0 time=0
note_on channel=0 note=94 velocity=0 time=120
note_on channel=0 note=62 velocity=29 time=0
note_on channel=0 note=65 velocity=29 time=0
note_on channel=0 note=70 velocity=35 time=0
note_on channel=0 note=70 velocity=0 time=120
note_on channel=0 note=65 velocity=0 time=0
note_on channel=0 note=62 velocity=0 time=0
note_on channel=0 note=90 velocity=51 time=60
note_on channel=0 note=90 velocity=0 time=60
note_on channel=0 note=89 velocity=57 time=0
note_on channel=0 note=62 velocity=29 time=0
note_on channel=0 note=65 velocity=29 time=0
note_on channel=0 note=70 velocity=35 time=0
note_on channel=0 note=70 velocity=0 time=120
note_on channel=0 note=89 velocity=0 time=0
note_on channel=0 note=62 velocity=0 time=0
note_on channel=0 note=65 velocity=0 time=0
note_on channel=0 note=88 velocity=50 time=0
note_on channel=0 note=88 velocity=0 time=0
note_on channel=0 note=89 velocity=60 time=0
note_on channel=0 note=62 velocity=34 time=0
note_on channel=0 note=65 velocity=34 time=0
note_on channel=0 note=70 velocity=40 time=0
note_on channel=0 note=70 velocity=0 time=120
note_on channel=0 note=89 velocity=0 time=0
note_on channel=0 note=62 velocity=0 time=0
note_on channel=0 note=65 velocity=0 time=0
note_on channel=0 note=62 velocity=29 time=0
note_on channel=0 note=65 velocity=29 time=0
note_on channel=0 note=70 velocity=35 time=0
note_on channel=0 note=70 velocity=0 time=120
note_on channel=0 note=65 velocity=0 time=0
note_on channel=0 note=62 velocity=0 time=0
note_on channel=0 note=87 velocity=51 time=60
note_on channel=0 note=87 velocity=0 time=60
note_on channel=0 note=86 velocity=56 time=0
note_on channel=0 note=62 velocity=29 time=0
note_on channel=0 note=65 velocity=29 time=0
note_on channel=0 note=70 velocity=35 time=0
note_on channel=0 note=70 velocity=0 time=120
note_on channel=0 note=86 velocity=0 time=0
note_on channel=0 note=62 velocity=0 time=0
note_on channel=0 note=65 velocity=0 time=0
note_on channel=0 note=84 velocity=51 time=0
note_on channel=0 note=84 velocity=0 time=120
note_on channel=0 note=86 velocity=56 time=0
note_on channel=0 note=62 velocity=29 time=0
note_on channel=0 note=65 velocity=29 time=0
note_on channel=0 note=70 velocity=35 time=0
note_on channel=0 note=70 velocity=0 time=120
note_on channel=0 note=65 velocity=0 time=0
note_on channel=0 note=62 velocity=0 time=0
note_on channel=0 note=86 velocity=0 time=120
note_on channel=0 note=62 velocity=29 time=0
note_on channel=0 note=65 velocity=29 time=0
note_on channel=0 note=70 velocity=35 time=0
note_on channel=0 note=70 velocity=0 time=120
note_on channel=0 note=65 velocity=0 time=0
note_on channel=0 note=62 velocity=0 time=0
note_on channel=0 note=83 velocity=51 time=60
note_on channel=0 note=83 velocity=0 time=60
note_on channel=0 note=82 velocity=57 time=0
note_on channel=0 note=62 velocity=29 time=0
note_on channel=0 note=65 velocity=29 time=0
note_on channel=0 note=70 velocity=35 time=0
note_on channel=0 note=70 velocity=0 time=120
note_on channel=0 note=82 velocity=0 time=0
note_on channel=0 note=62 velocity=0 time=0
note_on channel=0 note=65 velocity=0 time=0
note_on channel=0 note=81 velocity=50 time=0
note_on channel=0 note=81 velocity=0 time=0
note_on channel=0 note=82 velocity=60 time=0
note_on channel=0 note=62 velocity=34 time=0
note_on channel=0 note=65 velocity=34 time=0
note_on channel=0 note=70 velocity=40 time=0
note_on channel=0 note=70 velocity=0 time=120
note_on channel=0 note=82 velocity=0 time=0
note_on channel=0 note=62 velocity=0 time=0
note_on channel=0 note=65 velocity=0 time=0
note_on channel=0 note=62 velocity=29 time=0
note_on channel=0 note=65 velocity=29 time=0
note_on channel=0 note=70 velocity=35 time=0
note_on channel=0 note=70 velocity=0 time=120
note_on channel=0 note=65 velocity=0 time=0
note_on channel=0 note=62 velocity=0 time=0
note_on channel=0 note=78 velocity=51 time=60
note_on channel=0 note=78 velocity=0 time=60
note_on channel=0 note=77 velocity=56 time=0
note_on channel=0 note=62 velocity=29 time=0
note_on channel=0 note=65 velocity=29 time=0
note_on channel=0 note=70 velocity=35 time=0
note_on channel=0 note=70 velocity=0 time=120
note_on channel=0 note=77 velocity=0 time=0
note_on channel=0 note=62 velocity=0 time=0
note_on channel=0 note=65 velocity=0 time=0
note_on channel=0 note=76 velocity=51 time=0
note_on channel=0 note=76 velocity=0 time=120
note_on channel=0 note=77 velocity=56 time=0
note_on channel=0 note=62 velocity=29 time=0
note_on channel=0 note=65 velocity=29 time=0
note_on channel=0 note=70 velocity=35 time=0
note_on channel=0 note=70 velocity=0 time=240
note_on channel=0 note=77 velocity=0 time=0
note_on channel=0 note=62 velocity=0 time=0
note_on channel=0 note=65 velocity=0 time=0
note_on channel=0 note=58 velocity=35 time=0
note_on channel=0 note=58 velocity=0 time=0
note_on channel=0 note=78 velocity=52 time=0
note_on channel=0 note=56 velocity=35 time=0
note_on channel=0 note=56 velocity=0 time=0
note_on channel=0 note=78 velocity=0 time=0
note_on channel=0 note=79 velocity=56 time=0
note_on channel=0 note=70 velocity=35 time=0
note_on channel=0 note=51 velocity=40 time=0
note_on channel=0 note=55 velocity=40 time=0
note_on channel=0 note=70 velocity=0 time=35
note_on channel=0 note=72 velocity=31 time=0
note_on channel=0 note=72 velocity=0 time=120
note_on channel=0 note=70 velocity=35 time=0
note_on channel=0 note=70 velocity=0 time=120
note_on channel=0 note=72 velocity=31 time=0
note_on channel=0 note=72 velocity=0 time=0
note_on channel=0 note=55 velocity=0 time=0
note_on channel=0 note=70 velocity=34 time=0
note_on channel=0 note=60 velocity=33 time=0
note_on channel=0 note=70 velocity=0 time=120
note_on channel=0 note=72 velocity=31 time=0
note_on channel=0 note=72 velocity=0 time=120
note_on channel=0 note=60 velocity=0 time=0
note_on channel=0 note=79 velocity=0 time=0
note_on channel=0 note=70 velocity=36 time=0
note_on channel=0 note=75 velocity=55 time=0
note_on channel=0 note=58 velocity=42 time=0
note_on channel=0 note=70 velocity=0 time=107
note_on channel=0 note=72 velocity=32 time=0
note_on channel=0 note=72 velocity=0 time=92
note_on channel=0 note=70 velocity=36 time=0
note_on channel=0 note=70 velocity=0 time=120
note_on channel=0 note=72 velocity=31 time=0
note_on channel=0 note=72 velocity=0 time=120
note_on channel=0 note=58 velocity=0 time=0
note_on channel=0 note=70 velocity=37 time=0
note_on channel=0 note=55 velocity=39 time=0
note_on channel=0 note=70 velocity=0 time=120
note_on channel=0 note=72 velocity=31 time=0
note_on channel=0 note=72 velocity=0 time=0
note_on channel=0 note=55 velocity=0 time=0
note_on channel=0 note=75 velocity=0 time=0
note_on channel=0 note=51 velocity=0 time=0
note_on channel=0 note=74 velocity=59 time=0
note_on channel=0 note=70 velocity=37 time=0
note_on channel=0 note=46 velocity=42 time=0
note_on channel=0 note=53 velocity=42 time=0
note_on channel=0 note=70 velocity=0 time=106
note_on channel=0 note=72 velocity=33 time=0
note_on channel=0 note=72 velocity=0 time=113
note_on channel=0 note=70 velocity=37 time=0
note_on channel=0 note=70 velocity=0 time=120
note_on channel=0 note=72 velocity=33 time=0
note_on channel=0 note=72 velocity=0 time=120
note_on channel=0 note=53 velocity=0 time=0
note_on channel=0 note=70 velocity=37 time=0
note_on channel=0 note=60 velocity=36 time=0
note_on channel=0 note=70 velocity=0 time=120
note_on channel=0 note=72 velocity=34 time=0
note_on channel=0 note=72 velocity=0 time=120
note_on channel=0 note=60 velocity=0 time=0
note_on channel=0 note=74 velocity=0 time=0
note_on channel=0 note=70 velocity=38 time=0
note_on channel=0 note=80 velocity=59 time=0
note_on channel=0 note=58 velocity=45 time=0
note_on channel=0 note=70 velocity=0 time=7
note_on channel=0 note=72 velocity=34 time=0
note_on channel=0 note=72 velocity=0 time=0
note_on channel=0 note=70 velocity=39 time=0
note_on channel=0 note=70 velocity=0 time=120
note_on channel=0 note=72 velocity=33 time=0
note_on channel=0 note=72 velocity=0 time=0
note_on channel=0 note=58 velocity=0 time=0
note_on channel=0 note=70 velocity=39 time=0
note_on channel=0 note=53 velocity=41 time=0
note_on channel=0 note=70 velocity=0 time=120
note_on channel=0 note=72 velocity=34 time=0
note_on channel=0 note=72 velocity=0 time=0
note_on channel=0 note=53 velocity=0 time=0
note_on channel=0 note=80 velocity=0 time=0
note_on channel=0 note=46 velocity=0 time=0
note_on channel=0 note=70 velocity=40 time=0
note_on channel=0 note=79 velocity=64 time=0
note_on channel=0 note=51 velocity=46 time=0
note_on channel=0 note=55 velocity=46 time=0
note_on channel=0 note=70 velocity=0 time=116
note_on channel=0 note=72 velocity=35 time=0
note_on channel=0 note=72 velocity=0 time=113
note_on channel=0 note=70 velocity=39 time=0
note_on channel=0 note=70 velocity=0 time=120
note_on channel=0 note=72 velocity=35 time=0
note_on channel=0 note=72 velocity=0 time=0
note_on channel=0 note=55 velocity=0 time=0
note_on channel=0 note=70 velocity=38 time=0
note_on channel=0 note=60 velocity=37 time=0
note_on channel=0 note=70 velocity=0 time=120
note_on channel=0 note=72 velocity=34 time=0
note_on channel=0 note=72 velocity=0 time=120
note_on channel=0 note=60 velocity=0 time=0
note_on channel=0 note=79 velocity=0 time=0
note_on channel=0 note=75 velocity=60 time=0
note_on channel=0 note=70 velocity=39 time=0
note_on channel=0 note=58 velocity=45 time=0
note_on channel=0 note=70 velocity=0 time=28
note_on channel=0 note=72 velocity=34 time=0
note_on channel=0 note=72 velocity=0 time=120
note_on channel=0 note=70 velocity=38 time=0
note_on channel=0 note=70 velocity=0 time=120
note_on channel=0 note=72 velocity=33 time=0
note_on channel=0 note=72 velocity=0 time=120
note_on channel=0 note=58 velocity=0 time=0
note_on channel=0 note=70 velocity=38 time=0
note_on channel=0 note=55 velocity=40 time=0
note_on channel=0 note=70 velocity=0 time=120
note_on channel=0 note=72 velocity=32 time=0
note_on channel=0 note=72 velocity=0 time=120
note_on channel=0 note=55 velocity=0 time=0
note_on channel=0 note=75 velocity=0 time=0
note_on channel=0 note=51 velocity=0 time=0
note_on channel=0 note=70 velocity=37 time=0
note_on channel=0 note=74 velocity=60 time=0
note_on channel=0 note=46 velocity=43 time=0
note_on channel=0 note=53 velocity=43 time=0
note_on channel=0 note=70 velocity=0 time=120
note_on channel=0 note=72 velocity=33 time=0
note_on channel=0 note=72 velocity=0 time=113
note_on channel=0 note=70 velocity=37 time=0
note_on channel=0 note=70 velocity=0 time=120
note_on channel=0 note=72 velocity=32 time=0
note_on channel=0 note=72 velocity=0 time=120
note_on channel=0 note=53 velocity=0 time=0
note_on channel=0 note=70 velocity=35 time=0
note_on channel=0 note=60 velocity=34 time=0
note_on channel=0 note=70 velocity=0 time=120
note_on channel=0 note=72 velocity=32 time=0
note_on channel=0 note=72 velocity=0 time=120
note_on channel=0 note=60 velocity=0 time=0
note_on channel=0 note=74 velocity=0 time=0
note_on channel=0 note=80 velocity=56 time=0
note_on channel=0 note=70 velocity=36 time=0
note_on channel=0 note=58 velocity=42 time=0
note_on channel=0 note=70 velocity=0 time=21
note_on channel=0 note=72 velocity=32 time=0
note_on channel=0 note=72 velocity=0 time=0
note_on channel=0 note=70 velocity=36 time=0
note_on channel=0 note=70 velocity=0 time=120
note_on channel=0 note=72 velocity=30 time=0
note_on channel=0 note=72 velocity=0 time=120
note_on channel=0 note=58 velocity=0 time=0
note_on channel=0 note=70 velocity=35 time=0
note_on channel=0 note=53 velocity=37 time=0
note_on channel=0 note=70 velocity=0 time=120
note_on channel=0 note=72 velocity=30 time=0
note_on channel=0 note=72 velocity=0 time=0
note_on channel=0 note=53 velocity=0 time=0
note_on channel=0 note=80 velocity=0 time=0
note_on channel=0 note=46 velocity=0 time=0
note_on channel=0 note=70 velocity=48 time=0
note_on channel=0 note=79 velocity=51 time=0
note_on channel=0 note=58 velocity=40 time=0
note_on channel=0 note=51 velocity=34 time=0
note_on channel=0 note=51 velocity=0 time=54
note_on channel=0 note=70 velocity=0 time=0
note_on channel=0 note=79 velocity=0 time=0
note_on channel=0 note=58 velocity=0 time=0
note_on channel=0 note=72 velocity=45 time=0
note_on channel=0 note=72 velocity=0 time=0
note_on channel=0 note=74 velocity=50 time=0
note_on channel=0 note=55 velocity=29 time=0
note_on channel=0 note=58 velocity=29 time=0
note_on channel=0 note=63 velocity=35 time=0
note_on channel=0 note=63 velocity=0 time=24
note_on channel=0 note=74 velocity=0 time=0
note_on channel=0 note=55 velocity=0 time=0
note_on channel=0 note=58 velocity=0 time=0
note_on channel=0 note=75 velocity=52 time=0
note_on channel=0 note=75 velocity=0 time=67
note_on channel=0 note=77 velocity=54 time=0
note_on channel=0 note=55 velocity=29 time=0
note_on channel=0 note=58 velocity=29 time=0
note_on channel=0 note=63 velocity=35 time=0
note_on channel=0 note=77 velocity=0 time=51
note_on channel=0 note=79 velocity=56 time=0
note_on channel=0 note=55 velocity=0 time=14
note_on channel=0 note=63 velocity=0 time=0
note_on channel=0 note=58 velocity=0 time=0
note_on channel=0 note=79 velocity=0 time=40
note_on channel=0 note=80 velocity=59 time=0
note_on channel=0 note=80 velocity=0 time=58
note_on channel=0 note=82 velocity=61 time=0
note_on channel=0 note=55 velocity=29 time=0
note_on channel=0 note=58 velocity=29 time=0
note_on channel=0 note=63 velocity=35 time=0
note_on channel=0 note=63 velocity=0 time=5
note_on channel=0 note=82 velocity=0 time=0
note_on channel=0 note=55 velocity=0 time=0
note_on channel=0 note=58 velocity=0 time=0
note_on channel=0 note=80 velocity=60 time=0
note_on channel=0 note=80 velocity=0 time=48
note_on channel=0 note=79 velocity=58 time=0
note_on channel=0 note=55 velocity=29 time=0
note_on channel=0 note=58 velocity=29 time=0
note_on channel=0 note=63 velocity=35 time=0
note_on channel=0 note=79 velocity=0 time=32
note_on channel=0 note=77 velocity=56 time=0
note_on channel=0 note=55 velocity=0 time=40
note_on channel=0 note=63 velocity=0 time=0
note_on channel=0 note=58 velocity=0 time=0
note_on channel=0 note=77 velocity=0 time=16
note_on channel=0 note=75 velocity=54 time=0
note_on channel=0 note=75 velocity=0 time=0
note_on channel=0 note=74 velocity=53 time=0
note_on channel=0 note=55 velocity=29 time=0
note_on channel=0 note=59 velocity=29 time=0
note_on channel=0 note=63 velocity=35 time=0
note_on channel=0 note=74 velocity=0 time=37
note_on channel=0 note=72 velocity=51 time=0
note_on channel=0 note=55 velocity=0 time=24
note_on channel=0 note=63 velocity=0 time=0
note_on channel=0 note=59 velocity=0 time=0
note_on channel=0 note=72 velocity=0 time=40
note_on channel=0 note=71 velocity=49 time=0
note_on channel=0 note=71 velocity=0 time=0
note_on channel=0 note=72 velocity=54 time=0
note_on channel=0 note=72 velocity=0 time=53
note_on channel=0 note=75 velocity=45 time=0
note_on channel=0 note=75 velocity=0 time=19
note_on channel=0 note=77 velocity=48 time=0
note_on channel=0 note=56 velocity=29 time=0
note_on channel=0 note=60 velocity=29 time=0
note_on channel=0 note=63 velocity=35 time=0
note_on channel=0 note=63 velocity=0 time=24
note_on channel=0 note=77 velocity=0 time=0
note_on channel=0 note=56 velocity=0 time=0
note_on channel=0 note=60 velocity=0 time=0
note_on channel=0 note=79 velocity=50 time=0
note_on channel=0 note=79 velocity=0 time=29
note_on channel=0 note=80 velocity=56 time=0
note_on channel=0 note=56 velocity=29 time=0
note_on channel=0 note=60 velocity=29 time=0
note_on channel=0 note=63 velocity=35 time=0
note_on channel=0 note=63 velocity=0 time=34
note_on channel=0 note=80 velocity=0 time=0
note_on channel=0 note=56 velocity=0 time=0
note_on channel=0 note=60 velocity=0 time=0
note_on channel=0 note=82 velocity=59 time=0
note_on channel=0 note=82 velocity=0 time=38
note_on channel=0 note=84 velocity=61 time=0
note_on channel=0 note=56 velocity=29 time=0
note_on channel=0 note=60 velocity=29 time=0
note_on channel=0 note=63 velocity=35 time=0
note_on channel=0 note=63 velocity=0 time=62
note_on channel=0 note=84 velocity=0 time=0
note_on channel=0 note=56 velocity=0 time=0
note_on channel=0 note=60 velocity=0 time=0
note_on channel=0 note=82 velocity=60 time=0
note_on channel=0 note=82 velocity=0 time=120
note_on channel=0 note=80 velocity=58 time=0
note_on channel=0 note=56 velocity=29 time=0
note_on channel=0 note=60 velocity=29 time=0
note_on channel=0 note=63 velocity=35 time=0
note_on channel=0 note=80 velocity=0 time=51
note_on channel=0 note=79 velocity=57 time=0
note_on channel=0 note=56 velocity=0 time=40
note_on channel=0 note=63 velocity=0 time=0
note_on channel=0 note=60 velocity=0 time=0
note_on channel=0 note=79 velocity=0 time=40
note_on channel=0 note=77 velocity=56 time=0
note_on channel=0 note=77 velocity=0 time=19
note_on channel=0 note=75 velocity=55 time=0
note_on channel=0 note=57 velocity=29 time=0
note_on channel=0 note=63 velocity=29 time=0
note_on channel=0 note=65 velocity=35 time=0
note_on channel=0 note=75 velocity=0 time=23
note_on channel=0 note=74 velocity=54 time=0
note_on channel=0 note=57 velocity=0 time=40
note_on channel=0 note=65 velocity=0 time=0
note_on channel=0 note=63 velocity=0 time=0
note_on channel=0 note=74 velocity=0 time=40
note_on channel=0 note=72 velocity=53 time=0
note_on channel=0 note=72 velocity=0 time=0
note_on channel=0 note=70 velocity=57 time=0
note_on channel=0 note=70 velocity=0 time=49
note_on channel=0 note=79 velocity=49 time=0
note_on channel=0 note=79 velocity=0 time=0
note_on channel=0 note=75 velocity=59 time=0
note_on channel=0 note=58 velocity=29 time=0
note_on channel=0 note=63 velocity=29 time=0
note_on channel=0 note=67 velocity=35 time=0
note_on channel=0 note=67 velocity=0 time=5
note_on channel=0 note=75 velocity=0 time=0
note_on channel=0 note=58 velocity=0 time=0
note_on channel=0 note=63 velocity=0 time=0
note_on channel=0 note=82 velocity=55 time=0
note_on channel=0 note=82 velocity=0 time=10
note_on channel=0 note=79 velocity=62 time=0
note_on channel=0 note=58 velocity=29 time=0
note_on channel=0 note=63 velocity=29 time=0
note_on channel=0 note=67 velocity=35 time=0
note_on channel=0 note=67 velocity=0 time=34
note_on channel=0 note=79 velocity=0 time=0
note_on channel=0 note=58 velocity=0 time=0
note_on channel=0 note=63 velocity=0 time=0
note_on channel=0 note=87 velocity=57 time=0
note_on channel=0 note=87 velocity=0 time=38
note_on channel=0 note=82 velocity=62 time=0
note_on channel=0 note=58 velocity=29 time=0
note_on channel=0 note=63 velocity=29 time=0
note_on channel=0 note=67 velocity=35 time=0
note_on channel=0 note=67 velocity=0 time=43
note_on channel=0 note=82 velocity=0 time=0
note_on channel=0 note=58 velocity=0 time=0
note_on channel=0 note=63 velocity=0 time=0
note_on channel=0 note=91 velocity=57 time=0
note_on channel=0 note=91 velocity=0 time=10
note_on channel=0 note=87 velocity=55 time=0
note_on channel=0 note=58 velocity=29 time=0
note_on channel=0 note=63 velocity=29 time=0
note_on channel=0 note=67 velocity=35 time=0
note_on channel=0 note=94 velocity=61 time=46
note_on channel=0 note=67 velocity=0 time=7
note_on channel=0 note=63 velocity=0 time=0
note_on channel=0 note=87 velocity=0 time=0
note_on channel=0 note=58 velocity=0 time=0
note_on channel=0 note=94 velocity=0 time=12
note_on channel=0 note=91 velocity=53 time=7
note_on channel=0 note=58 velocity=29 time=0
note_on channel=0 note=63 velocity=29 time=0
note_on channel=0 note=67 velocity=35 time=0
note_on channel=0 note=67 velocity=0 time=62
note_on channel=0 note=91 velocity=0 time=0
note_on channel=0 note=58 velocity=0 time=0
note_on channel=0 note=63 velocity=0 time=0
note_on channel=0 note=87 velocity=54 time=0
note_on channel=0 note=87 velocity=0 time=29
note_on channel=0 note=82 velocity=59 time=0
note_on channel=0 note=67 velocity=35 time=0
note_on channel=0 note=58 velocity=29 time=0
note_on channel=0 note=63 velocity=29 time=0
note_on channel=0 note=63 velocity=0 time=74
note_on channel=0 note=58 velocity=0 time=0
note_on channel=0 note=67 velocity=0 time=0
note_on channel=0 note=58 velocity=29 time=120
note_on channel=0 note=63 velocity=29 time=0
note_on channel=0 note=67 velocity=35 time=0
note_on channel=0 note=67 velocity=0 time=107
note_on channel=0 note=63 velocity=0 time=0
note_on channel=0 note=58 velocity=0 time=0
note_on channel=0 note=82 velocity=0 time=112
note_on channel=0 note=58 velocity=29 time=0
note_on channel=0 note=63 velocity=29 time=0
note_on channel=0 note=67 velocity=35 time=0
note_on channel=0 note=67 velocity=0 time=21
note_on channel=0 note=63 velocity=0 time=0
note_on channel=0 note=58 velocity=0 time=0
note_on channel=0 note=89 velocity=59 time=25
note_on channel=0 note=58 velocity=29 time=0
note_on channel=0 note=62 velocity=29 time=0
note_on channel=0 note=68 velocity=35 time=0
note_on channel=0 note=89 velocity=0 time=6
note_on channel=0 note=91 velocity=52 time=0
note_on channel=0 note=58 velocity=0 time=24
note_on channel=0 note=68 velocity=0 time=0
note_on channel=0 note=62 velocity=0 time=0
note_on channel=0 note=91 velocity=0 time=26
note_on channel=0 note=89 velocity=59 time=0
note_on channel=0 note=89 velocity=0 time=29
note_on channel=0 note=91 velocity=54 time=0
note_on channel=0 note=58 velocity=29 time=0
note_on channel=0 note=62 velocity=29 time=0
note_on channel=0 note=68 velocity=35 time=0
note_on channel=0 note=91 velocity=0 time=13
note_on channel=0 note=89 velocity=59 time=0
note_on channel=0 note=58 velocity=0 time=14
note_on channel=0 note=68 velocity=0 time=0
note_on channel=0 note=62 velocity=0 time=0
note_on channel=0 note=89 velocity=0 time=16
note_on channel=0 note=91 velocity=53 time=0
note_on channel=0 note=91 velocity=0 time=0
note_on channel=0 note=89 velocity=59 time=0
note_on channel=0 note=58 velocity=29 time=0
note_on channel=0 note=62 velocity=29 time=0
note_on channel=0 note=68 velocity=35 time=0
note_on channel=0 note=89 velocity=0 time=3
note_on channel=0 note=91 velocity=53 time=0
note_on channel=0 note=58 velocity=0 time=40
note_on channel=0 note=68 velocity=0 time=0
note_on channel=0 note=62 velocity=0 time=0
note_on channel=0 note=91 velocity=0 time=40
note_on channel=0 note=89 velocity=56 time=0
note_on channel=0 note=89 velocity=0 time=0
note_on channel=0 note=91 velocity=67 time=0
note_on channel=0 note=82 velocity=45 time=0
note_on channel=0 note=63 velocity=40 time=0
note_on channel=0 note=67 velocity=40 time=0
note_on channel=0 note=82 velocity=0 time=35
note_on channel=0 note=84 velocity=34 time=0
note_on channel=0 note=84 velocity=0 time=120
note_on channel=0 note=82 velocity=38 time=0
note_on channel=0 note=82 velocity=0 time=120
note_on channel=0 note=84 velocity=34 time=0
note_on channel=0 note=84 velocity=0 time=0
note_on channel=0 note=67 velocity=0 time=0
note_on channel=0 note=82 velocity=37 time=0
note_on channel=0 note=72 velocity=33 time=0
note_on channel=0 note=82 velocity=0 time=120
note_on channel=0 note=84 velocity=34 time=0
note_on channel=0 note=84 velocity=0 time=120
note_on channel=0 note=72 velocity=0 time=0
note_on channel=0 note=91 velocity=0 time=0
note_on channel=0 note=87 velocity=60 time=0
note_on channel=0 note=82 velocity=39 time=0
note_on channel=0 note=70 velocity=42 time=0
note_on channel=0 note=82 velocity=0 time=107
note_on channel=0 note=84 velocity=35 time=0
note_on channel=0 note=84 velocity=0 time=92
note_on channel=0 note=82 velocity=39 time=0
note_on channel=0 note=82 velocity=0 time=120
note_on channel=0 note=84 velocity=34 time=0
note_on channel=0 note=84 velocity=0 time=120
note_on channel=0 note=70 velocity=0 time=0
note_on channel=0 note=82 velocity=40 time=0
note_on channel=0 note=67 velocity=39 time=0
note_on channel=0 note=82 velocity=0 time=120
note_on channel=0 note=84 velocity=34 time=0
note_on channel=0 note=84 velocity=0 time=0
note_on channel=0 note=67 velocity=0 time=0
note_on channel=0 note=87 velocity=0 time=0
note_on channel=0 note=63 velocity=0 time=0
note_on channel=0 note=82 velocity=40 time=0
note_on channel=0 note=86 velocity=64 time=0
note_on channel=0 note=58 velocity=42 time=0
note_on channel=0 note=65 velocity=42 time=0
note_on channel=0 note=82 velocity=0 time=106
note_on channel=0 note=84 velocity=36 time=0
note_on channel=0 note=84 velocity=0 time=113
note_on channel=0 note=82 velocity=40 time=0
note_on channel=0 note=82 velocity=0 time=120
note_on channel=0 note=84 velocity=36 time=0
note_on channel=0 note=84 velocity=0 time=120
note_on channel=0 note=65 velocity=0 time=0
note_on channel=0 note=82 velocity=40 time=0
note_on channel=0 note=72 velocity=36 time=0
note_on channel=0 note=82 velocity=0 time=120
note_on channel=0 note=84 velocity=37 time=0
note_on channel=0 note=84 velocity=0 time=120
note_on channel=0 note=72 velocity=0 time=0
note_on channel=0 note=86 velocity=0 time=0
note_on channel=0 note=92 velocity=64 time=0
note_on channel=0 note=82 velocity=41 time=0
note_on channel=0 note=70 velocity=45 time=0
note_on channel=0 note=82 velocity=0 time=7
note_on channel=0 note=84 velocity=37 time=0
note_on channel=0 note=84 velocity=0 time=0
note_on channel=0 note=82 velocity=42 time=0
note_on channel=0 note=82 velocity=0 time=120
note_on channel=0 note=84 velocity=36 time=0
note_on channel=0 note=84 velocity=0 time=0
note_on channel=0 note=70 velocity=0 time=0
note_on channel=0 note=82 velocity=42 time=0
note_on channel=0 note=65 velocity=41 time=0
note_on channel=0 note=82 velocity=0 time=120
note_on channel=0 note=84 velocity=37 time=0
note_on channel=0 note=84 velocity=0 time=0
note_on channel=0 note=65 velocity=0 time=0
note_on channel=0 note=92 velocity=0 time=0
note_on channel=0 note=58 velocity=0 time=0
note_on channel=0 note=91 velocity=70 time=0
note_on channel=0 note=82 velocity=44 time=0
note_on channel=0 note=63 velocity=46 time=0
note_on channel=0 note=67 velocity=46 time=0
note_on channel=0 note=82 velocity=0 time=116
note_on channel=0 note=84 velocity=38 time=0
note_on channel=0 note=84 velocity=0 time=113
note_on channel=0 note=82 velocity=42 time=0
note_on channel=0 note=82 velocity=0 time=120
note_on channel=0 note=84 velocity=38 time=0
note_on channel=0 note=84 velocity=0 time=0
note_on channel=0 note=67 velocity=0 time=0
note_on channel=0 note=82 velocity=41 time=0
note_on channel=0 note=72 velocity=37 time=0
note_on channel=0 note=82 velocity=0 time=120
note_on channel=0 note=84 velocity=37 time=0
note_on channel=0 note=84 velocity=0 time=120
note_on channel=0 note=72 velocity=0 time=0
note_on channel=0 note=91 velocity=0 time=0
note_on channel=0 note=82 velocity=42 time=0
note_on channel=0 note=87 velocity=66 time=0
note_on channel=0 note=70 velocity=45 time=0
note_on channel=0 note=82 velocity=0 time=28
note_on channel=0 note=84 velocity=37 time=0
note_on channel=0 note=84 velocity=0 time=120
note_on channel=0 note=82 velocity=41 time=0
note_on channel=0 note=82 velocity=0 time=120
note_on channel=0 note=84 velocity=36 time=0
note_on channel=0 note=84 velocity=0 time=120
note_on channel=0 note=70 velocity=0 time=0
note_on channel=0 note=82 velocity=41 time=0
note_on channel=0 note=67 velocity=40 time=0
note_on channel=0 note=82 velocity=0 time=120
note_on channel=0 note=84 velocity=35 time=0
note_on channel=0 note=84 velocity=0 time=0
note_on channel=0 note=67 velocity=0 time=0
note_on channel=0 note=87 velocity=0 time=0
note_on channel=0 note=63 velocity=0 time=0
note_on channel=0 note=86 velocity=66 time=0
note_on channel=0 note=82 velocity=40 time=0
note_on channel=0 note=58 velocity=43 time=0
note_on channel=0 note=65 velocity=43 time=0
note_on channel=0 note=82 velocity=0 time=120
note_on channel=0 note=84 velocity=36 time=0
note_on channel=0 note=84 velocity=0 time=113
note_on channel=0 note=82 velocity=40 time=0
note_on channel=0 note=82 velocity=0 time=120
note_on channel=0 note=84 velocity=35 time=0
note_on channel=0 note=84 velocity=0 time=120
note_on channel=0 note=65 velocity=0 time=0
note_on channel=0 note=82 velocity=38 time=0
note_on channel=0 note=72 velocity=34 time=0
note_on channel=0 note=82 velocity=0 time=120
note_on channel=0 note=84 velocity=35 time=0
note_on channel=0 note=84 velocity=0 time=120
note_on channel=0 note=72 velocity=0 time=0
note_on channel=0 note=86 velocity=0 time=0
note_on channel=0 note=82 velocity=39 time=0
note_on channel=0 note=92 velocity=61 time=0
note_on channel=0 note=70 velocity=42 time=0
note_on channel=0 note=82 velocity=0 time=21
note_on channel=0 note=84 velocity=35 time=0
note_on channel=0 note=84 velocity=0 time=0
note_on channel=0 note=82 velocity=39 time=0
note_on channel=0 note=82 velocity=0 time=120
note_on channel=0 note=84 velocity=33 time=0
note_on channel=0 note=84 velocity=0 time=120
note_on channel=0 note=70 velocity=0 time=0
note_on channel=0 note=82 velocity=38 time=0
note_on channel=0 note=65 velocity=37 time=0
note_on channel=0 note=82 velocity=0 time=120
note_on channel=0 note=84 velocity=33 time=0
note_on channel=0 note=84 velocity=0 time=0
note_on channel=0 note=65 velocity=0 time=0
note_on channel=0 note=92 velocity=0 time=0
note_on channel=0 note=58 velocity=0 time=0
note_on channel=0 note=63 velocity=51 time=0
note_on channel=0 note=63 velocity=0 time=42
note_on channel=0 note=67 velocity=45 time=0
note_on channel=0 note=67 velocity=0 time=0
note_on channel=0 note=87 velocity=49 time=0
note_on channel=0 note=91 velocity=49 time=0
note_on channel=0 note=68 velocity=50 time=0
note_on channel=0 note=68 velocity=0 time=24
note_on channel=0 note=91 velocity=0 time=0
note_on channel=0 note=87 velocity=0 time=0
note_on channel=0 note=70 velocity=52 time=0
note_on channel=0 note=70 velocity=0 time=67
note_on channel=0 note=91 velocity=49 time=0
note_on channel=0 note=87 velocity=49 time=0
note_on channel=0 note=72 velocity=54 time=0
note_on channel=0 note=72 velocity=0 time=14
note_on channel=0 note=87 velocity=0 time=0
note_on channel=0 note=91 velocity=0 time=0
note_on channel=0 note=74 velocity=56 time=0
note_on channel=0 note=74 velocity=0 time=58
note_on channel=0 note=87 velocity=52 time=0
note_on channel=0 note=91 velocity=52 time=0
note_on channel=0 note=75 velocity=61 time=0
note_on channel=0 note=75 velocity=0 time=5
note_on channel=0 note=91 velocity=0 time=0
note_on channel=0 note=87 velocity=0 time=0
note_on channel=0 note=74 velocity=60 time=0
note_on channel=0 note=74 velocity=0 time=48
note_on channel=0 note=87 velocity=46 time=0
note_on channel=0 note=91 velocity=46 time=0
note_on channel=0 note=72 velocity=58 time=0
note_on channel=0 note=72 velocity=0 time=72
note_on channel=0 note=91 velocity=0 time=0
note_on channel=0 note=87 velocity=0 time=0
note_on channel=0 note=70 velocity=57 time=0
note_on channel=0 note=70 velocity=0 time=0
note_on channel=0 note=87 velocity=46 time=0
note_on channel=0 note=91 velocity=46 time=0
note_on channel=0 note=68 velocity=55 time=0
note_on channel=0 note=68 velocity=0 time=24
note_on channel=0 note=91 velocity=0 time=0
note_on channel=0 note=87 velocity=0 time=0
note_on channel=0 note=67 velocity=54 time=0
note_on channel=0 note=67 velocity=0 time=0
note_on channel=0 note=68 velocity=51 time=0
note_on channel=0 note=68 velocity=0 time=67
note_on channel=0 note=72 velocity=45 time=0
note_on channel=0 note=72 velocity=0 time=19
note_on channel=0 note=87 velocity=49 time=0
note_on channel=0 note=89 velocity=49 time=0
note_on channel=0 note=74 velocity=48 time=0
note_on channel=0 note=74 velocity=0 time=24
note_on channel=0 note=89 velocity=0 time=0
note_on channel=0 note=87 velocity=0 time=0
note_on channel=0 note=75 velocity=50 time=0
note_on channel=0 note=75 velocity=0 time=29
note_on channel=0 note=89 velocity=49 time=0
note_on channel=0 note=87 velocity=49 time=0
note_on channel=0 note=77 velocity=55 time=0
note_on channel=0 note=77 velocity=0 time=34
note_on channel=0 note=87 velocity=0 time=0
note_on channel=0 note=89 velocity=0 time=0
note_on channel=0 note=79 velocity=57 time=0
note_on channel=0 note=79 velocity=0 time=38
note_on channel=0 note=89 velocity=53 time=0
note_on channel=0 note=87 velocity=53 time=0
note_on channel=0 note=80 velocity=62 time=0
note_on channel=0 note=80 velocity=0 time=56
note_on channel=0 note=87 velocity=0 time=0
note_on channel=0 note=89 velocity=0 time=0
note_on channel=0 note=79 velocity=60 time=0
note_on channel=0 note=79 velocity=0 time=120
note_on channel=0 note=89 velocity=48 time=0
note_on channel=0 note=87 velocity=48 time=0
note_on channel=0 note=77 velocity=59 time=0
note_on channel=0 note=77 velocity=0 time=91
note_on channel=0 note=87 velocity=0 time=0
note_on channel=0 note=89 velocity=0 time=0
note_on channel=0 note=75 velocity=58 time=0
note_on channel=0 note=75 velocity=0 time=19
note_on channel=0 note=89 velocity=50 time=0
note_on channel=0 note=87 velocity=50 time=0
note_on channel=0 note=74 velocity=57 time=0
note_on channel=0 note=74 velocity=0 time=120
note_on channel=0 note=87 velocity=0 time=0
note_on channel=0 note=89 velocity=0 time=0
note_on channel=0 note=72 velocity=55 time=0
note_on channel=0 note=72 velocity=0 time=0
note_on channel=0 note=70 velocity=60 time=0
note_on channel=0 note=70 velocity=0 time=120
note_on channel=0 note=58 velocity=52 time=0
note_on channel=0 note=58 velocity=0 time=0
note_on channel=0 note=91 velocity=52 time=0
note_on channel=0 note=87 velocity=52 time=0
note_on channel=0 note=63 velocity=63 time=0
note_on channel=0 note=63 velocity=0 time=5
note_on channel=0 note=87 velocity=0 time=0
note_on channel=0 note=91 velocity=0 time=0
note_on channel=0 note=67 velocity=59 time=0
note_on channel=0 note=67 velocity=0 time=10
note_on channel=0 note=91 velocity=53 time=0
note_on channel=0 note=87 velocity=53 time=0
note_on channel=0 note=70 velocity=68 time=0
note_on channel=0 note=70 velocity=0 time=34
note_on channel=0 note=87 velocity=0 time=0
note_on channel=0 note=91 velocity=0 time=0
note_on channel=0 note=75 velocity=62 time=0
note_on channel=0 note=75 velocity=0 time=0
note_on channel=0 note=91 velocity=57 time=0
note_on channel=0 note=87 velocity=57 time=0
note_on channel=0 note=79 velocity=63 time=0
note_on channel=0 note=79 velocity=0 time=120
note_on channel=0 note=87 velocity=0 time=0
note_on channel=0 note=91 velocity=0 time=0
note_on channel=0 note=75 velocity=54 time=0
note_on channel=0 note=75 velocity=0 time=0
note_on channel=0 note=91 velocity=51 time=0
note_on channel=0 note=87 velocity=51 time=0
note_on channel=0 note=82 velocity=66 time=0
note_on channel=0 note=82 velocity=0 time=5
note_on channel=0 note=87 velocity=0 time=0
note_on channel=0 note=91 velocity=0 time=0
note_on channel=0 note=79 velocity=62 time=0
note_on channel=0 note=79 velocity=0 time=10
note_on channel=0 note=91 velocity=52 time=0
note_on channel=0 note=87 velocity=52 time=0
note_on channel=0 note=75 velocity=70 time=0
note_on channel=0 note=75 velocity=0 time=34
note_on channel=0 note=87 velocity=0 time=0
note_on channel=0 note=91 velocity=0 time=0
note_on channel=0 note=70 velocity=64 time=0
note_on channel=0 note=70 velocity=0 time=38
note_on channel=0 note=89 velocity=64 time=0
note_on channel=0 note=86 velocity=64 time=0
note_on channel=0 note=70 velocity=60 time=0
note_on channel=0 note=77 velocity=67 time=0
note_on channel=0 note=77 velocity=0 time=27
note_on channel=0 note=79 velocity=59 time=0
note_on channel=0 note=89 velocity=0 time=40
note_on channel=0 note=86 velocity=0 time=0
note_on channel=0 note=79 velocity=0 time=40
note_on channel=0 note=77 velocity=67 time=0
note_on channel=0 note=77 velocity=0 time=80
note_on channel=0 note=70 velocity=0 time=0
note_on channel=0 note=89 velocity=50 time=0
note_on channel=0 note=86 velocity=50 time=0
note_on channel=0 note=79 velocity=61 time=0
note_on channel=0 note=79 velocity=0 time=39
note_on channel=0 note=77 velocity=66 time=0
note_on channel=0 note=86 velocity=0 time=2
note_on channel=0 note=89 velocity=0 time=0
note_on channel=0 note=77 velocity=0 time=40
note_on channel=0 note=79 velocity=59 time=0
note_on channel=0 note=79 velocity=0 time=45
note_on channel=0 note=89 velocity=49 time=0
note_on channel=0 note=86 velocity=49 time=0
note_on channel=0 note=77 velocity=66 time=0
note_on channel=0 note=77 velocity=0 time=49
note_on channel=0 note=79 velocity=59 time=0
note_on channel=0 note=86 velocity=0 time=12
note_on channel=0 note=89 velocity=0 time=0
note_on channel=0 note=79 velocity=0 time=40
note_on channel=0 note=77 velocity=62 time=0
note_on channel=0 note=77 velocity=0 time=55
note_on channel=0 note=86 velocity=58 time=0
note_on channel=0 note=89 velocity=58 time=0
note_on channel=0 note=79 velocity=56 time=0
note_on channel=0 note=79 velocity=0 time=77
note_on channel=0 note=77 velocity=63 time=0
note_on channel=0 note=89 velocity=0 time=40
note_on channel=0 note=86 velocity=0 time=0
note_on channel=0 note=77 velocity=0 time=40
note_on channel=0 note=79 velocity=55 time=0
note_on channel=0 note=79 velocity=0 time=80
note_on channel=0 note=86 velocity=49 time=0
note_on channel=0 note=89 velocity=49 time=0
note_on channel=0 note=77 velocity=63 time=0
note_on channel=0 note=77 velocity=0 time=13
note_on channel=0 note=79 velocity=55 time=0
note_on channel=0 note=89 velocity=0 time=14
note_on channel=0 note=86 velocity=0 time=0
note_on channel=0 note=79 velocity=0 time=16
note_on channel=0 note=77 velocity=63 time=0
note_on channel=0 note=77 velocity=0 time=0
note_on channel=0 note=86 velocity=48 time=0
note_on channel=0 note=89 velocity=48 time=0
note_on channel=0 note=79 velocity=55 time=0
note_on channel=0 note=79 velocity=0 time=3
note_on channel=0 note=77 velocity=63 time=0
note_on channel=0 note=89 velocity=0 time=40
note_on channel=0 note=86 velocity=0 time=0
note_on channel=0 note=77 velocity=0 time=40
note_on channel=0 note=79 velocity=59 time=0
note_on channel=0 note=79 velocity=0 time=10
note_on channel=0 note=70 velocity=62 time=0
note_on channel=0 note=70 velocity=0 time=53
note_on channel=0 note=76 velocity=55 time=0
note_on channel=0 note=76 velocity=0 time=0
note_on channel=0 note=77 velocity=58 time=0
note_on channel=0 note=77 velocity=0 time=5
note_on channel=0 note=79 velocity=60 time=0
note_on channel=0 note=79 velocity=0 time=0
note_on channel=0 note=85 velocity=68 time=0
note_on channel=0 note=97 velocity=80 time=0
note_on channel=0 note=77 velocity=58 time=0
note_on channel=0 note=77 velocity=0 time=120
note_on channel=0 note=76 velocity=58 time=0
note_on channel=0 note=76 velocity=0 time=80
note_on channel=0 note=68 velocity=61 time=0
note_on channel=0 note=68 velocity=0 time=5
note_on channel=0 note=77 velocity=56 time=0
note_on channel=0 note=77 velocity=0 time=120
note_on channel=0 note=79 velocity=59 time=0
note_on channel=0 note=79 velocity=0 time=120
note_on channel=0 note=80 velocity=61 time=0
note_on channel=0 note=80 velocity=0 time=120
note_on channel=0 note=97 velocity=0 time=0
note_on channel=0 note=85 velocity=0 time=0
note_on channel=0 note=96 velocity=77 time=0
note_on channel=0 note=84 velocity=64 time=0
note_on channel=0 note=79 velocity=57 time=0
note_on channel=0 note=79 velocity=0 time=40
note_on channel=0 note=77 velocity=57 time=0
note_on channel=0 note=77 velocity=0 time=10
note_on channel=0 note=84 velocity=0 time=0
note_on channel=0 note=96 velocity=0 time=0
note_on channel=0 note=56 velocity=62 time=6
note_on channel=0 note=62 velocity=55 time=53
note_on channel=0 note=56 velocity=0 time=1
note_on channel=0 note=62 velocity=0 time=0
note_on channel=0 note=63 velocity=58 time=0
note_on channel=0 note=65 velocity=60 time=57
note_on channel=0 note=63 velocity=0 time=5
note_on channel=0 note=65 velocity=0 time=5
note_on channel=0 note=71 velocity=69 time=0
note_on channel=0 note=83 velocity=81 time=0
note_on channel=0 note=63 velocity=59 time=0
note_on channel=0 note=63 velocity=0 time=120
note_on channel=0 note=62 velocity=59 time=0
note_on channel=0 note=62 velocity=0 time=80
note_on channel=0 note=55 velocity=62 time=0
note_on channel=0 note=55 velocity=0 time=5
note_on channel=0 note=63 velocity=57 time=0
note_on channel=0 note=63 velocity=0 time=120
note_on channel=0 note=65 velocity=61 time=0
note_on channel=0 note=65 velocity=0 time=120
note_on channel=0 note=67 velocity=64 time=0
note_on channel=0 note=67 velocity=0 time=120
note_on channel=0 note=83 velocity=0 time=0
note_on channel=0 note=71 velocity=0 time=0
note_on channel=0 note=70 velocity=67 time=0
note_on channel=0 note=82 velocity=80 time=0
note_on channel=0 note=65 velocity=59 time=0
note_on channel=0 note=65 velocity=0 time=40
note_on channel=0 note=63 velocity=60 time=0
note_on channel=0 note=63 velocity=0 time=10
note_on channel=0 note=82 velocity=0 time=0
note_on channel=0 note=70 velocity=0 time=0
note_on channel=0 note=46 velocity=65 time=6
note_on channel=0 note=52 velocity=58 time=14
note_on channel=0 note=46 velocity=0 time=6
note_on channel=0 note=52 velocity=0 time=0
note_on channel=0 note=53 velocity=62 time=0
note_on channel=0 note=55 velocity=64 time=38
note_on channel=0 note=53 velocity=0 time=5
note_on channel=0 note=55 velocity=0 time=62
note_on channel=0 note=61 velocity=73 time=0
note_on channel=0 note=73 velocity=86 time=0
note_on channel=0 note=53 velocity=62 time=0
note_on channel=0 note=53 velocity=0 time=120
note_on channel=0 note=52 velocity=63 time=0
note_on channel=0 note=52 velocity=0 time=115
note_on channel=0 note=44 velocity=67 time=0
note_on channel=0 note=44 velocity=0 time=5
note_on channel=0 note=53 velocity=61 time=0
note_on channel=0 note=53 velocity=0 time=120
note_on channel=0 note=55 velocity=65 time=0
note_on channel=0 note=55 velocity=0 time=120
note_on channel=0 note=56 velocity=67 time=0
note_on channel=0 note=56 velocity=0 time=120
note_on channel=0 note=73 velocity=0 time=0
note_on channel=0 note=61 velocity=0 time=0
note_on channel=0 note=60 velocity=63 time=0
note_on channel=0 note=72 velocity=77 time=0
note_on channel=0 note=55 velocity=63 time=0
note_on channel=0 note=55 velocity=0 time=0
note_on channel=0 note=53 velocity=63 time=0
note_on channel=0 note=53 velocity=0 time=0
note_on channel=0 note=72 velocity=0 time=0
note_on channel=0 note=60 velocity=0 time=0
note_on channel=0 note=32 velocity=70 time=6
note_on channel=0 note=38 velocity=62 time=14
note_on channel=0 note=32 velocity=0 time=6
note_on channel=0 note=38 velocity=0 time=19
note_on channel=0 note=39 velocity=66 time=0
note_on channel=0 note=41 velocity=68 time=19
note_on channel=0 note=39 velocity=0 time=5
note_on channel=0 note=41 velocity=0 time=62
note_on channel=0 note=47 velocity=78 time=0
note_on channel=0 note=59 velocity=92 time=0
note_on channel=0 note=39 velocity=66 time=0
note_on channel=0 note=39 velocity=0 time=0
note_on channel=0 note=38 velocity=67 time=0
note_on channel=0 note=38 velocity=0 time=80
note_on channel=0 note=31 velocity=70 time=0
note_on channel=0 note=31 velocity=0 time=5
note_on channel=0 note=39 velocity=65 time=0
note_on channel=0 note=39 velocity=0 time=120
note_on channel=0 note=41 velocity=69 time=0
note_on channel=0 note=41 velocity=0 time=120
note_on channel=0 note=43 velocity=71 time=0
note_on channel=0 note=43 velocity=0 time=120
note_on channel=0 note=59 velocity=0 time=0
note_on channel=0 note=47 velocity=0 time=0
note_on channel=0 note=46 velocity=75 time=0
note_on channel=0 note=58 velocity=90 time=0
note_on channel=0 note=41 velocity=67 time=0
note_on channel=0 note=41 velocity=0 time=0
note_on channel=0 note=39 velocity=67 time=0
note_on channel=0 note=39 velocity=0 time=0
note_on channel=0 note=58 velocity=0 time=0
note_on channel=0 note=46 velocity=0 time=0
note_on channel=0 note=31 velocity=70 time=0
note_on channel=0 note=31 velocity=0 time=120
note_on channel=0 note=34 velocity=62 time=0
note_on channel=0 note=34 velocity=0 time=120
note_on channel=0 note=70 velocity=71 time=0
note_on channel=0 note=58 velocity=60 time=0
note_on channel=0 note=39 velocity=66 time=0
note_on channel=0 note=39 velocity=0 time=120
note_on channel=0 note=58 velocity=0 time=0
note_on channel=0 note=70 velocity=0 time=0
note_on channel=0 note=43 velocity=68 time=0
note_on channel=0 note=43 velocity=0 time=120
note_on channel=0 note=70 velocity=68 time=0
note_on channel=0 note=58 velocity=57 time=0
note_on channel=0 note=39 velocity=66 time=0
note_on channel=0 note=39 velocity=0 time=0
note_on channel=0 note=58 velocity=0 time=0
note_on channel=0 note=70 velocity=0 time=0
note_on channel=0 note=34 velocity=63 time=0
note_on channel=0 note=34 velocity=0 time=0
note_on channel=0 note=36 velocity=70 time=0
note_on channel=0 note=36 velocity=0 time=5
note_on channel=0 note=39 velocity=65 time=0
note_on channel=0 note=39 velocity=0 time=120
note_on channel=0 note=68 velocity=69 time=0
note_on channel=0 note=56 velocity=58 time=0
note_on channel=0 note=43 velocity=69 time=0
note_on channel=0 note=43 velocity=0 time=120
note_on channel=0 note=56 velocity=0 time=0
note_on channel=0 note=68 velocity=0 time=0
note_on channel=0 note=48 velocity=71 time=0
note_on channel=0 note=48 velocity=0 time=120
note_on channel=0 note=67 velocity=65 time=0
note_on channel=0 note=55 velocity=55 time=0
note_on channel=0 note=43 velocity=67 time=0
note_on channel=0 note=43 velocity=0 time=120
note_on channel=0 note=55 velocity=0 time=0
note_on channel=0 note=67 velocity=0 time=0
note_on channel=0 note=39 velocity=64 time=0
note_on channel=0 note=39 velocity=0 time=0
note_on channel=0 note=32 velocity=70 time=0
note_on channel=0 note=32 velocity=0 time=120
note_on channel=0 note=36 velocity=62 time=0
note_on channel=0 note=36 velocity=0 time=120
note_on channel=0 note=67 velocity=71 time=0
note_on channel=0 note=55 velocity=60 time=0
note_on channel=0 note=41 velocity=66 time=0
note_on channel=0 note=41 velocity=0 time=120
note_on channel=0 note=55 velocity=0 time=0
note_on channel=0 note=67 velocity=0 time=0
note_on channel=0 note=44 velocity=68 time=0
note_on channel=0 note=44 velocity=0 time=120
note_on channel=0 note=65 velocity=68 time=0
note_on channel=0 note=53 velocity=57 time=0
note_on channel=0 note=41 velocity=66 time=0
note_on channel=0 note=41 velocity=0 time=0
note_on channel=0 note=53 velocity=0 time=0
note_on channel=0 note=65 velocity=0 time=0
note_on channel=0 note=36 velocity=63 time=0
note_on channel=0 note=36 velocity=0 time=0
note_on channel=0 note=34 velocity=70 time=0
note_on channel=0 note=34 velocity=0 time=5
note_on channel=0 note=41 velocity=65 time=0
note_on channel=0 note=41 velocity=0 time=120
note_on channel=0 note=63 velocity=69 time=0
note_on channel=0 note=51 velocity=58 time=0
note_on channel=0 note=44 velocity=69 time=0
note_on channel=0 note=44 velocity=0 time=120
note_on channel=0 note=51 velocity=0 time=0
note_on channel=0 note=63 velocity=0 time=0
note_on channel=0 note=46 velocity=71 time=0
note_on channel=0 note=46 velocity=0 time=120
note_on channel=0 note=62 velocity=65 time=0
note_on channel=0 note=50 velocity=55 time=0
note_on channel=0 note=44 velocity=67 time=0
note_on channel=0 note=44 velocity=0 time=120
note_on channel=0 note=50 velocity=0 time=0
note_on channel=0 note=62 velocity=0 time=0
note_on channel=0 note=41 velocity=64 time=0
note_on channel=0 note=41 velocity=0 time=120
note_on channel=0 note=43 velocity=70 time=0
note_on channel=0 note=43 velocity=0 time=120
note_on channel=0 note=46 velocity=62 time=0
note_on channel=0 note=46 velocity=0 time=120
note_on channel=0 note=82 velocity=71 time=0
note_on channel=0 note=70 velocity=60 time=0
note_on channel=0 note=51 velocity=66 time=0
note_on channel=0 note=51 velocity=0 time=120
note_on channel=0 note=70 velocity=0 time=0
note_on channel=0 note=82 velocity=0 time=0
note_on channel=0 note=55 velocity=68 time=0
note_on channel=0 note=55 velocity=0 time=120
note_on channel=0 note=82 velocity=68 time=0
note_on channel=0 note=70 velocity=57 time=0
note_on channel=0 note=51 velocity=66 time=0
note_on channel=0 note=51 velocity=0 time=0
note_on channel=0 note=70 velocity=0 time=0
note_on channel=0 note=82 velocity=0 time=0
note_on channel=0 note=46 velocity=63 time=0
note_on channel=0 note=46 velocity=0 time=0
note_on channel=0 note=48 velocity=70 time=0
note_on channel=0 note=48 velocity=0 time=5
note_on channel=0 note=51 velocity=65 time=0
note_on channel=0 note=51 velocity=0 time=120
note_on channel=0 note=80 velocity=69 time=0
note_on channel=0 note=68 velocity=58 time=0
note_on channel=0 note=55 velocity=69 time=0
note_on channel=0 note=55 velocity=0 time=120
note_on channel=0 note=68 velocity=0 time=0
note_on channel=0 note=80 velocity=0 time=0
note_on channel=0 note=60 velocity=71 time=0
note_on channel=0 note=60 velocity=0 time=120
note_on channel=0 note=79 velocity=65 time=0
note_on channel=0 note=67 velocity=55 time=0
note_on channel=0 note=55 velocity=67 time=0
note_on channel=0 note=55 velocity=0 time=120
note_on channel=0 note=67 velocity=0 time=0
note_on channel=0 note=79 velocity=0 time=0
note_on channel=0 note=51 velocity=64 time=0
note_on channel=0 note=51 velocity=0 time=0
note_on channel=0 note=44 velocity=70 time=0
note_on channel=0 note=44 velocity=0 time=120
note_on channel=0 note=48 velocity=62 time=0
note_on channel=0 note=48 velocity=0 time=120
note_on channel=0 note=79 velocity=71 time=0
note_on channel=0 note=67 velocity=60 time=0
note_on channel=0 note=53 velocity=66 time=0
note_on channel=0 note=53 velocity=0 time=120
note_on channel=0 note=67 velocity=0 time=0
note_on channel=0 note=79 velocity=0 time=0
note_on channel=0 note=56 velocity=68 time=0
note_on channel=0 note=56 velocity=0 time=120
note_on channel=0 note=77 velocity=68 time=0
note_on channel=0 note=65 velocity=57 time=0
note_on channel=0 note=53 velocity=66 time=0
note_on channel=0 note=53 velocity=0 time=0
note_on channel=0 note=65 velocity=0 time=0
note_on channel=0 note=77 velocity=0 time=0
note_on channel=0 note=48 velocity=63 time=0
note_on channel=0 note=48 velocity=0 time=0
note_on channel=0 note=34 velocity=70 time=0
note_on channel=0 note=34 velocity=0 time=5
note_on channel=0 note=41 velocity=65 time=0
note_on channel=0 note=41 velocity=0 time=120
note_on channel=0 note=75 velocity=69 time=0
note_on channel=0 note=63 velocity=58 time=0
note_on channel=0 note=44 velocity=69 time=0
note_on channel=0 note=44 velocity=0 time=120
note_on channel=0 note=63 velocity=0 time=0
note_on channel=0 note=75 velocity=0 time=0
note_on channel=0 note=46 velocity=71 time=0
note_on channel=0 note=46 velocity=0 time=120
note_on channel=0 note=74 velocity=65 time=0
note_on channel=0 note=62 velocity=55 time=0
note_on channel=0 note=44 velocity=67 time=0
note_on channel=0 note=44 velocity=0 time=120
note_on channel=0 note=62 velocity=0 time=0
note_on channel=0 note=74 velocity=0 time=0
note_on channel=0 note=41 velocity=64 time=0
note_on channel=0 note=41 velocity=0 time=0
note_on channel=0 note=31 velocity=70 time=0
note_on channel=0 note=31 velocity=0 time=120
note_on channel=0 note=34 velocity=62 time=0
note_on channel=0 note=34 velocity=0 time=120
note_on channel=0 note=75 velocity=71 time=0
note_on channel=0 note=67 velocity=60 time=0
note_on channel=0 note=63 velocity=60 time=0
note_on channel=0 note=39 velocity=66 time=0
note_on channel=0 note=39 velocity=0 time=120
note_on channel=0 note=75 velocity=0 time=0
note_on channel=0 note=67 velocity=0 time=0
note_on channel=0 note=63 velocity=0 time=0
note_on channel=0 note=43 velocity=68 time=0
note_on channel=0 note=43 velocity=0 time=120
note_on channel=0 note=70 velocity=69 time=0
note_on channel=0 note=67 velocity=58 time=0
note_on channel=0 note=63 velocity=58 time=0
note_on channel=0 note=39 velocity=67 time=0
note_on channel=0 note=39 velocity=0 time=0
note_on channel=0 note=70 velocity=0 time=0
note_on channel=0 note=67 velocity=0 time=0
note_on channel=0 note=63 velocity=0 time=0
note_on channel=0 note=34 velocity=64 time=0
note_on channel=0 note=34 velocity=0 time=0
note_on channel=0 note=36 velocity=72 time=0
note_on channel=0 note=36 velocity=0 time=5
note_on channel=0 note=39 velocity=67 time=0
note_on channel=0 note=39 velocity=0 time=120
note_on channel=0 note=60 velocity=74 time=0
note_on channel=0 note=68 velocity=72 time=0
note_on channel=0 note=63 velocity=60 time=0
note_on channel=0 note=43 velocity=72 time=0
note_on channel=0 note=43 velocity=0 time=120
note_on channel=0 note=60 velocity=0 time=0
note_on channel=0 note=68 velocity=0 time=0
note_on channel=0 note=63 velocity=0 time=0
note_on channel=0 note=48 velocity=74 time=0
note_on channel=0 note=48 velocity=0 time=120
note_on channel=0 note=67 velocity=68 time=0
note_on channel=0 note=63 velocity=58 time=0
note_on channel=0 note=60 velocity=58 time=0
note_on channel=0 note=43 velocity=71 time=0
note_on channel=0 note=43 velocity=0 time=120
note_on channel=0 note=67 velocity=0 time=0
note_on channel=0 note=63 velocity=0 time=0
note_on channel=0 note=60 velocity=0 time=0
note_on channel=0 note=39 velocity=67 time=0
note_on channel=0 note=39 velocity=0 time=0
note_on channel=0 note=32 velocity=74 time=0
note_on channel=0 note=32 velocity=0 time=120
note_on channel=0 note=36 velocity=66 time=0
note_on channel=0 note=36 velocity=0 time=120
note_on channel=0 note=67 velocity=76 time=0
note_on channel=0 note=60 velocity=64 time=0
note_on channel=0 note=56 velocity=64 time=0
note_on channel=0 note=41 velocity=71 time=0
note_on channel=0 note=41 velocity=0 time=120
note_on channel=0 note=67 velocity=0 time=0
note_on channel=0 note=60 velocity=0 time=0
note_on channel=0 note=56 velocity=0 time=0
note_on channel=0 note=44 velocity=74 time=0
note_on channel=0 note=44 velocity=0 time=120
note_on channel=0 note=65 velocity=74 time=0
note_on channel=0 note=60 velocity=62 time=0
note_on channel=0 note=56 velocity=62 time=0
note_on channel=0 note=41 velocity=72 time=0
note_on channel=0 note=41 velocity=0 time=0
note_on channel=0 note=65 velocity=0 time=0
note_on channel=0 note=60 velocity=0 time=0
note_on channel=0 note=56 velocity=0 time=0
note_on channel=0 note=36 velocity=67 time=0
note_on channel=0 note=36 velocity=0 time=0
note_on channel=0 note=34 velocity=77 time=0
note_on channel=0 note=34 velocity=0 time=5
note_on channel=0 note=41 velocity=72 time=0
note_on channel=0 note=41 velocity=0 time=120
note_on channel=0 note=53 velocity=79 time=0
note_on channel=0 note=63 velocity=77 time=0
note_on channel=0 note=56 velocity=64 time=0
note_on channel=0 note=44 velocity=77 time=0
note_on channel=0 note=44 velocity=0 time=120
note_on channel=0 note=53 velocity=0 time=0
note_on channel=0 note=63 velocity=0 time=0
note_on channel=0 note=56 velocity=0 time=0
note_on channel=0 note=46 velocity=80 time=0
note_on channel=0 note=46 velocity=0 time=120
note_on channel=0 note=62 velocity=73 time=0
note_on channel=0 note=56 velocity=62 time=0
note_on channel=0 note=53 velocity=62 time=0
note_on channel=0 note=34 velocity=75 time=0
note_on channel=0 note=34 velocity=0 time=0
note_on channel=0 note=62 velocity=0 time=0
note_on channel=0 note=56 velocity=0 time=0
note_on channel=0 note=53 velocity=0 time=0
note_on channel=0 note=46 velocity=72 time=0
note_on channel=0 note=46 velocity=0 time=0
note_on channel=0 note=51 velocity=62 time=0
note_on channel=0 note=39 velocity=75 time=0
note_on channel=0 note=39 velocity=0 time=12
note_on channel=0 note=51 velocity=0 time=0
note_on channel=0 note=53 velocity=63 time=0
note_on channel=0 note=53 velocity=0 time=17
note_on channel=0 note=55 velocity=65 time=0
note_on channel=0 note=51 velocity=75 time=0
note_on channel=0 note=51 velocity=0 time=22
note_on channel=0 note=55 velocity=0 time=0
note_on channel=0 note=56 velocity=66 time=0
note_on channel=0 note=56 velocity=0 time=27
note_on channel=0 note=58 velocity=67 time=0
note_on channel=0 note=55 velocity=77 time=0
note_on channel=0 note=51 velocity=64 time=0
note_on channel=0 note=58 velocity=0 time=28
note_on channel=0 note=60 velocity=68 time=0
note_on channel=0 note=51 velocity=0 time=40
note_on channel=0 note=55 velocity=0 time=0
note_on channel=0 note=60 velocity=0 time=40
note_on channel=0 note=62 velocity=68 time=0
note_on channel=0 note=62 velocity=0 time=80
note_on channel=0 note=63 velocity=69 time=0
note_on channel=0 note=51 velocity=70 time=0
note_on channel=0 note=55 velocity=70 time=0
note_on channel=0 note=58 velocity=83 time=0
note_on channel=0 note=63 velocity=0 time=34
note_on channel=0 note=65 velocity=70 time=0
note_on channel=0 note=65 velocity=0 time=40
note_on channel=0 note=67 velocity=71 time=0
note_on channel=0 note=67 velocity=0 time=0
note_on channel=0 note=68 velocity=72 time=0
note_on channel=0 note=68 velocity=0 time=80
note_on channel=0 note=70 velocity=72 time=0
note_on channel=0 note=70 velocity=0 time=80
note_on channel=0 note=72 velocity=73 time=0
note_on channel=0 note=72 velocity=0 time=80
note_on channel=0 note=58 velocity=0 time=0
note_on channel=0 note=55 velocity=0 time=0
note_on channel=0 note=51 velocity=0 time=0
note_on channel=0 note=74 velocity=85 time=0
note_on channel=0 note=46 velocity=60 time=0
note_on channel=0 note=53 velocity=60 time=0
note_on channel=0 note=58 velocity=71 time=0
note_on channel=0 note=58 velocity=0 time=0
note_on channel=0 note=74 velocity=0 time=0
note_on channel=0 note=46 velocity=0 time=0
note_on channel=0 note=53 velocity=0 time=0
note_on channel=0 note=62 velocity=67 time=0
note_on channel=0 note=62 velocity=0 time=7
note_on channel=0 note=63 velocity=62 time=0
note_on channel=0 note=51 velocity=67 time=0
note_on channel=0 note=55 velocity=67 time=0
note_on channel=0 note=58 velocity=79 time=0
note_on channel=0 note=58 velocity=0 time=12
note_on channel=0 note=63 velocity=0 time=0
note_on channel=0 note=51 velocity=0 time=0
note_on channel=0 note=55 velocity=0 time=0
note_on channel=0 note=65 velocity=63 time=0
note_on channel=0 note=65 velocity=0 time=36
note_on channel=0 note=67 velocity=65 time=0
note_on channel=0 note=51 velocity=63 time=0
note_on channel=0 note=55 velocity=63 time=0
note_on channel=0 note=58 velocity=75 time=0
note_on channel=0 note=58 velocity=0 time=60
note_on channel=0 note=67 velocity=0 time=0
note_on channel=0 note=51 velocity=0 time=0
note_on channel=0 note=55 velocity=0 time=0
note_on channel=0 note=68 velocity=66 time=0
note_on channel=0 note=68 velocity=0 time=84
note_on channel=0 note=70 velocity=67 time=0
note_on channel=0 note=51 velocity=62 time=0
note_on channel=0 note=55 velocity=62 time=0
note_on channel=0 note=58 velocity=74 time=0
note_on channel=0 note=70 velocity=0 time=68
note_on channel=0 note=72 velocity=68 time=0
note_on channel=0 note=51 velocity=0 time=40
note_on channel=0 note=58 velocity=0 time=0
note_on channel=0 note=55 velocity=0 time=0
note_on channel=0 note=72 velocity=0 time=40
note_on channel=0 note=74 velocity=68 time=0
note_on channel=0 note=74 velocity=0 time=80
note_on channel=0 note=75 velocity=69 time=0
note_on channel=0 note=51 velocity=69 time=0
note_on channel=0 note=55 velocity=69 time=0
note_on channel=0 note=58 velocity=82 time=0
note_on channel=0 note=75 velocity=0 time=11
note_on channel=0 note=77 velocity=70 time=0
note_on channel=0 note=77 velocity=0 time=40
note_on channel=0 note=79 velocity=71 time=0
note_on channel=0 note=79 velocity=0 time=0
note_on channel=0 note=80 velocity=72 time=0
note_on channel=0 note=80 velocity=0 time=80
note_on channel=0 note=82 velocity=72 time=0
note_on channel=0 note=82 velocity=0 time=80
note_on channel=0 note=84 velocity=73 time=0
note_on channel=0 note=84 velocity=0 time=80
note_on channel=0 note=58 velocity=0 time=0
note_on channel=0 note=55 velocity=0 time=0
note_on channel=0 note=51 velocity=0 time=0
note_on channel=0 note=86 velocity=85 time=0
note_on channel=0 note=46 velocity=63 time=0
note_on channel=0 note=53 velocity=63 time=0
note_on channel=0 note=58 velocity=75 time=0
note_on channel=0 note=58 velocity=0 time=0
note_on channel=0 note=86 velocity=0 time=0
note_on channel=0 note=46 velocity=0 time=0
note_on channel=0 note=53 velocity=0 time=0
note_on channel=0 note=74 velocity=67 time=0
note_on channel=0 note=74 velocity=0 time=7
note_on channel=0 note=75 velocity=62 time=0
note_on channel=0 note=51 velocity=64 time=0
note_on channel=0 note=55 velocity=64 time=0
note_on channel=0 note=58 velocity=76 time=0
note_on channel=0 note=58 velocity=0 time=31
note_on channel=0 note=75 velocity=0 time=0
note_on channel=0 note=51 velocity=0 time=0
note_on channel=0 note=55 velocity=0 time=0
note_on channel=0 note=77 velocity=63 time=0
note_on channel=0 note=77 velocity=0 time=75
note_on channel=0 note=79 velocity=65 time=0
note_on channel=0 note=51 velocity=63 time=0
note_on channel=0 note=55 velocity=63 time=0
note_on channel=0 note=58 velocity=75 time=0
note_on channel=0 note=58 velocity=0 time=22
note_on channel=0 note=79 velocity=0 time=0
note_on channel=0 note=51 velocity=0 time=0
note_on channel=0 note=55 velocity=0 time=0
note_on channel=0 note=80 velocity=66 time=0
note_on channel=0 note=80 velocity=0 time=65
note_on channel=0 note=82 velocity=68 time=0
note_on channel=0 note=51 velocity=61 time=0
note_on channel=0 note=55 velocity=61 time=0
note_on channel=0 note=58 velocity=73 time=0
note_on channel=0 note=82 velocity=0 time=68
note_on channel=0 note=84 velocity=70 time=0
note_on channel=0 note=51 velocity=0 time=40
note_on channel=0 note=58 velocity=0 time=0
note_on channel=0 note=55 velocity=0 time=0
note_on channel=0 note=84 velocity=0 time=40
note_on channel=0 note=86 velocity=72 time=0
note_on channel=0 note=86 velocity=0 time=80
note_on channel=0 note=87 velocity=74 time=0
note_on channel=0 note=51 velocity=70 time=0
note_on channel=0 note=55 velocity=70 time=0
note_on channel=0 note=58 velocity=83 time=0
note_on channel=0 note=87 velocity=0 time=0
note_on channel=0 note=89 velocity=78 time=0
note_on channel=0 note=89 velocity=0 time=0
note_on channel=0 note=91 velocity=82 time=0
note_on channel=0 note=91 velocity=0 time=120
note_on channel=0 note=92 velocity=86 time=0
note_on channel=0 note=92 velocity=0 time=120
note_on channel=0 note=58 velocity=0 time=0
note_on channel=0 note=55 velocity=0 time=0
note_on channel=0 note=51 velocity=0 time=0
note_on channel=0 note=94 velocity=90 time=0
note_on channel=0 note=46 velocity=63 time=0
note_on channel=0 note=53 velocity=63 time=0
note_on channel=0 note=58 velocity=75 time=0
note_on channel=0 note=94 velocity=0 time=31
note_on channel=0 note=96 velocity=92 time=0
note_on channel=0 note=46 velocity=0 time=0
note_on channel=0 note=58 velocity=0 time=0
note_on channel=0 note=53 velocity=0 time=0
note_on channel=0 note=96 velocity=0 time=40
note_on channel=0 note=98 velocity=95 time=0
note_on channel=0 note=98 velocity=0 time=0
note_on channel=0 note=99 velocity=103 time=0
note_on channel=0 note=51 velocity=69 time=0
note_on channel=0 note=55 velocity=69 time=0
note_on channel=0 note=58 velocity=82 time=0
note_on channel=0 note=58 velocity=0 time=26
note_on channel=0 note=99 velocity=0 time=0
note_on channel=0 note=51 velocity=0 time=0
note_on channel=0 note=55 velocity=0 time=0
note_on channel=0 note=67 velocity=75 time=240
note_on channel=0 note=70 velocity=75 time=0
note_on channel=0 note=75 velocity=90 time=0
note_on channel=0 note=39 velocity=69 time=0
note_on channel=0 note=51 velocity=82 time=0
note_on channel=0 note=51 velocity=0 time=53
note_on channel=0 note=75 velocity=0 time=0
note_on channel=0 note=67 velocity=0 time=0
note_on channel=0 note=70 velocity=0 time=0
note_on channel=0 note=39 velocity=0 time=0
note_on channel=0 note=55 velocity=74 time=0
note_on channel=0 note=58 velocity=74 time=0
note_on channel=0 note=63 velocity=89 time=0
note_on channel=0 note=39 velocity=69 time=0
note_on channel=0 note=51 velocity=82 time=0
note_on channel=0 note=51 velocity=0 time=413
note_on channel=0 note=63 velocity=0 time=0
note_on channel=0 note=55 velocity=0 time=0
note_on channel=0 note=58 velocity=0 time=0
note_on channel=0 note=39 velocity=0 time=0
note_on channel=0 note=70 velocity=70 time=0
note_on channel=0 note=70 velocity=0 time=0
note_on channel=0 note=70 velocity=60 time=0
note_on channel=0 note=70 velocity=0 time=0
note_on channel=0 note=70 velocity=45 time=0
note_on channel=0 note=51 velocity=34 time=0
note_on channel=0 note=55 velocity=34 time=0
note_on channel=0 note=58 velocity=40 time=0
note_on channel=0 note=70 velocity=0 time=0
note_on channel=0 note=67 velocity=45 time=0
note_on channel=0 note=67 velocity=0 time=240
note_on channel=0 note=58 velocity=0 time=0
note_on channel=0 note=55 velocity=0 time=0
note_on channel=0 note=51 velocity=0 time=0
note_on channel=0 note=63 velocity=39 time=0
note_on channel=0 note=63 velocity=0 time=88
note_on channel=0 note=62 velocity=45 time=0
note_on channel=0 note=53 velocity=28 time=0
note_on channel=0 note=56 velocity=28 time=0
note_on channel=0 note=46 velocity=28 time=0
note_on channel=0 note=58 velocity=34 time=0
note_on channel=0 note=62 velocity=0 time=169
note_on channel=0 note=65 velocity=40 time=0
note_on channel=0 note=65 velocity=0 time=0
note_on channel=0 note=58 velocity=0 time=0
note_on channel=0 note=53 velocity=0 time=0
note_on channel=0 note=56 velocity=0 time=0
note_on channel=0 note=46 velocity=0 time=0
note_on channel=0 note=70 velocity=40 time=0
note_on channel=0 note=70 velocity=0 time=17
note_on channel=0 note=70 velocity=45 time=0
note_on channel=0 note=51 velocity=34 time=0
note_on channel=0 note=58 velocity=40 time=0
note_on channel=0 note=55 velocity=34 time=0
note_on channel=0 note=70 velocity=0 time=0
note_on channel=0 note=67 velocity=41 time=0
note_on channel=0 note=67 velocity=0 time=240
note_on channel=0 note=55 velocity=0 time=0
note_on channel=0 note=58 velocity=0 time=0
note_on channel=0 note=51 velocity=0 time=0
note_on channel=0 note=63 velocity=41 time=0
note_on channel=0 note=63 velocity=0 time=70
note_on channel=0 note=64 velocity=45 time=0
note_on channel=0 note=48 velocity=28 time=0
note_on channel=0 note=55 velocity=28 time=0
note_on channel=0 note=60 velocity=34 time=0
note_on channel=0 note=60 velocity=0 time=162
note_on channel=0 note=64 velocity=0 time=0
note_on channel=0 note=48 velocity=0 time=0
note_on channel=0 note=55 velocity=0 time=0
note_on channel=0 note=67 velocity=39 time=0
note_on channel=0 note=67 velocity=0 time=0
note_on channel=0 note=72 velocity=46 time=0
note_on channel=0 note=52 velocity=28 time=0
note_on channel=0 note=55 velocity=28 time=0
note_on channel=0 note=58 velocity=28 time=0
note_on channel=0 note=60 velocity=34 time=0
note_on channel=0 note=60 velocity=0 time=170
note_on channel=0 note=55 velocity=0 time=0
note_on channel=0 note=72 velocity=0 time=0
note_on channel=0 note=52 velocity=0 time=0
note_on channel=0 note=58 velocity=0 time=0
note_on channel=0 note=72 velocity=50 time=0
note_on channel=0 note=56 velocity=34 time=0
note_on channel=0 note=53 velocity=34 time=0
note_on channel=0 note=60 velocity=40 time=0
note_on channel=0 note=72 velocity=0 time=0
note_on channel=0 note=68 velocity=45 time=0
note_on channel=0 note=68 velocity=0 time=240
note_on channel=0 note=60 velocity=0 time=0
note_on channel=0 note=53 velocity=0 time=0
note_on channel=0 note=56 velocity=0 time=0
note_on channel=0 note=65 velocity=45 time=0
note_on channel=0 note=65 velocity=0 time=60
note_on channel=0 note=66 velocity=49 time=0
note_on channel=0 note=62 velocity=34 time=0
note_on channel=0 note=50 velocity=28 time=0
note_on channel=0 note=57 velocity=28 time=0
note_on channel=0 note=57 velocity=0 time=120
note_on channel=0 note=66 velocity=0 time=0
note_on channel=0 note=62 velocity=0 time=0
note_on channel=0 note=50 velocity=0 time=0
note_on channel=0 note=69 velocity=44 time=0
note_on channel=0 note=69 velocity=0 time=0
note_on channel=0 note=74 velocity=47 time=0
note_on channel=0 note=54 velocity=28 time=0
note_on channel=0 note=57 velocity=28 time=0
note_on channel=0 note=62 velocity=34 time=0
note_on channel=0 note=62 velocity=0 time=10
note_on channel=0 note=74 velocity=0 time=0
note_on channel=0 note=54 velocity=0 time=0
note_on channel=0 note=57 velocity=0 time=0
note_on channel=0 note=74 velocity=56 time=0
note_on channel=0 note=55 velocity=34 time=0
note_on channel=0 note=58 velocity=34 time=0
note_on channel=0 note=62 velocity=40 time=0
note_on channel=0 note=74 velocity=0 time=0
note_on channel=0 note=70 velocity=45 time=0
note_on channel=0 note=70 velocity=0 time=240
note_on channel=0 note=62 velocity=0 time=0
note_on channel=0 note=58 velocity=0 time=0
note_on channel=0 note=55 velocity=0 time=0
note_on channel=0 note=67 velocity=45 time=0
note_on channel=0 note=67 velocity=0 time=240
note_on channel=0 note=68 velocity=51 time=0
note_on channel=0 note=53 velocity=34 time=0
note_on channel=0 note=56 velocity=34 time=0
note_on channel=0 note=58 velocity=34 time=0
note_on channel=0 note=62 velocity=40 time=0
note_on channel=0 note=68 velocity=0 time=137
note_on channel=0 note=70 velocity=45 time=0
note_on channel=0 note=70 velocity=0 time=0
note_on channel=0 note=62 velocity=0 time=0
note_on channel=0 note=53 velocity=0 time=0
note_on channel=0 note=56 velocity=0 time=0
note_on channel=0 note=58 velocity=0 time=0
note_on channel=0 note=74 velocity=45 time=0
note_on channel=0 note=74 velocity=0 time=92
note_on channel=0 note=75 velocity=50 time=0
note_on channel=0 note=58 velocity=33 time=0
note_on channel=0 note=55 velocity=33 time=0
note_on channel=0 note=63 velocity=39 time=0
note_on channel=0 note=51 velocity=33 time=0
note_on channel=0 note=75 velocity=0 time=0
note_on channel=0 note=70 velocity=43 time=0
note_on channel=0 note=70 velocity=0 time=240
note_on channel=0 note=51 velocity=0 time=0
note_on channel=0 note=58 velocity=0 time=0
note_on channel=0 note=55 velocity=0 time=0
note_on channel=0 note=63 velocity=0 time=0
note_on channel=0 note=67 velocity=43 time=0
note_on channel=0 note=67 velocity=0 time=180
note_on channel=0 note=67 velocity=45 time=60
note_on channel=0 note=67 velocity=0 time=159
note_on channel=0 note=70 velocity=41 time=0
note_on channel=0 note=70 velocity=0 time=0
note_on channel=0 note=75 velocity=41 time=0
note_on channel=0 note=75 velocity=0 time=46
note_on channel=0 note=79 velocity=50 time=0
note_on channel=0 note=63 velocity=42 time=0
note_on channel=0 note=63 velocity=0 time=0
note_on channel=0 note=79 velocity=0 time=0
note_on channel=0 note=75 velocity=43 time=0
note_on channel=0 note=58 velocity=36 time=0
note_on channel=0 note=58 velocity=0 time=0
note_on channel=0 note=75 velocity=0 time=0
note_on channel=0 note=70 velocity=44 time=0
note_on channel=0 note=55 velocity=37 time=0
note_on channel=0 note=55 velocity=0 time=180
note_on channel=0 note=70 velocity=0 time=0
note_on channel=0 note=70 velocity=47 time=0
note_on channel=0 note=55 velocity=39 time=0
note_on channel=0 note=55 velocity=0 time=240
note_on channel=0 note=70 velocity=0 time=0
note_on channel=0 note=75 velocity=43 time=0
note_on channel=0 note=58 velocity=36 time=0
note_on channel=0 note=58 velocity=0 time=0
note_on channel=0 note=75 velocity=0 time=0
note_on channel=0 note=79 velocity=44 time=0
note_on channel=0 note=63 velocity=36 time=0
note_on channel=0 note=63 velocity=0 time=180
note_on channel=0 note=79 velocity=0 time=0
note_on channel=0 note=79 velocity=46 time=0
note_on channel=0 note=82 velocity=55 time=0
note_on channel=0 note=39 velocity=38 time=0
note_on channel=0 note=43 velocity=46 time=0
note_on channel=0 note=43 velocity=0 time=0
note_on channel=0 note=79 velocity=0 time=0
note_on channel=0 note=82 velocity=0 time=0
note_on channel=0 note=39 velocity=0 time=0
note_on channel=0 note=75 velocity=39 time=0
note_on channel=0 note=79 velocity=47 time=0
note_on channel=0 note=46 velocity=39 time=0
note_on channel=0 note=43 velocity=33 time=0
note_on channel=0 note=43 velocity=0 time=240
note_on channel=0 note=75 velocity=0 time=0
note_on channel=0 note=79 velocity=0 time=0
note_on channel=0 note=46 velocity=0 time=0
note_on channel=0 note=75 velocity=48 time=0
note_on channel=0 note=70 velocity=40 time=0
note_on channel=0 note=46 velocity=33 time=0
note_on channel=0 note=51 velocity=40 time=0
note_on channel=0 note=51 velocity=0 time=240
note_on channel=0 note=75 velocity=0 time=0
note_on channel=0 note=70 velocity=0 time=0
note_on channel=0 note=46 velocity=0 time=0
note_on channel=0 note=79 velocity=51 time=0
note_on channel=0 note=75 velocity=43 time=0
note_on channel=0 note=46 velocity=43 time=0
note_on channel=0 note=43 velocity=36 time=0
note_on channel=0 note=43 velocity=0 time=240
note_on channel=0 note=79 velocity=0 time=0
note_on channel=0 note=75 velocity=0 time=0
note_on channel=0 note=46 velocity=0 time=0
note_on channel=0 note=70 velocity=39 time=0
note_on channel=0 note=75 velocity=47 time=0
note_on channel=0 note=46 velocity=32 time=0
note_on channel=0 note=51 velocity=39 time=0
note_on channel=0 note=51 velocity=0 time=0
note_on channel=0 note=70 velocity=0 time=0
note_on channel=0 note=75 velocity=0 time=0
note_on channel=0 note=46 velocity=0 time=0
note_on channel=0 note=67 velocity=40 time=0
note_on channel=0 note=70 velocity=48 time=0
note_on channel=0 note=51 velocity=33 time=0
note_on channel=0 note=55 velocity=40 time=0
note_on channel=0 note=55 velocity=0 time=180
note_on channel=0 note=67 velocity=0 time=0
note_on channel=0 note=70 velocity=0 time=0
note_on channel=0 note=51 velocity=0 time=0
note_on channel=0 note=70 velocity=50 time=0
note_on channel=0 note=75 velocity=60 time=0
note_on channel=0 note=46 velocity=42 time=0
note_on channel=0 note=51 velocity=50 time=0
note_on channel=0 note=51 velocity=0 time=152
note_on channel=0 note=70 velocity=0 time=0
note_on channel=0 note=75 velocity=0 time=0
note_on channel=0 note=46 velocity=0 time=0
note_on channel=0 note=67 velocity=43 time=0
note_on channel=0 note=70 velocity=52 time=0
note_on channel=0 note=55 velocity=43 time=0
note_on channel=0 note=51 velocity=36 time=0
note_on channel=0 note=51 velocity=0 time=0
note_on channel=0 note=67 velocity=0 time=0
note_on channel=0 note=70 velocity=0 time=0
note_on channel=0 note=55 velocity=0 time=0
note_on channel=0 note=67 velocity=52 time=0
note_on channel=0 note=63 velocity=44 time=0
note_on channel=0 note=55 velocity=36 time=0
note_on channel=0 note=58 velocity=44 time=0
note_on channel=0 note=58 velocity=0 time=0
note_on channel=0 note=67 velocity=0 time=0
note_on channel=0 note=63 velocity=0 time=0
note_on channel=0 note=55 velocity=0 time=0
note_on channel=0 note=70 velocity=54 time=0
note_on channel=0 note=70 velocity=0 time=159
note_on channel=0 note=60 velocity=38 time=0
note_on channel=0 note=68 velocity=46 time=0
note_on channel=0 note=46 velocity=31 time=0
note_on channel=0 note=53 velocity=38 time=0
note_on channel=0 note=53 velocity=0 time=0
note_on channel=0 note=60 velocity=0 time=0
note_on channel=0 note=68 velocity=0 time=0
note_on channel=0 note=46 velocity=0 time=0
note_on channel=0 note=62 velocity=36 time=0
note_on channel=0 note=65 velocity=43 time=0
note_on channel=0 note=46 velocity=29 time=0
note_on channel=0 note=58 velocity=36 time=0
note_on channel=0 note=58 velocity=0 time=46
note_on channel=0 note=62 velocity=0 time=0
note_on channel=0 note=65 velocity=0 time=0
note_on channel=0 note=46 velocity=0 time=0
note_on channel=0 note=67 velocity=54 time=0
note_on channel=0 note=75 velocity=54 time=0
note_on channel=0 note=51 velocity=30 time=0
note_on channel=0 note=55 velocity=30 time=0
note_on channel=0 note=58 velocity=36 time=0
note_on channel=0 note=75 velocity=0 time=77
note_on channel=0 note=67 velocity=0 time=0
note_on channel=0 note=74 velocity=46 time=0
note_on channel=0 note=74 velocity=0 time=120
note_on channel=0 note=75 velocity=46 time=0
note_on channel=0 note=75 velocity=0 time=120
note_on channel=0 note=70 velocity=42 time=0
note_on channel=0 note=70 velocity=0 time=0
note_on channel=0 note=58 velocity=0 time=0
note_on channel=0 note=51 velocity=0 time=0
note_on channel=0 note=55 velocity=0 time=0
note_on channel=0 note=67 velocity=54 time=0
note_on channel=0 note=67 velocity=0 time=120
note_on channel=0 note=68 velocity=47 time=39
note_on channel=0 note=68 velocity=0 time=0
note_on channel=0 note=67 velocity=54 time=0
note_on channel=0 note=67 velocity=0 time=106
note_on channel=0 note=66 velocity=43 time=0
note_on channel=0 note=66 velocity=0 time=120
note_on channel=0 note=67 velocity=48 time=0
note_on channel=0 note=67 velocity=0 time=120
note_on channel=0 note=70 velocity=43 time=0
note_on channel=0 note=70 velocity=0 time=0
note_on channel=0 note=75 velocity=56 time=0
note_on channel=0 note=75 velocity=0 time=120
note_on channel=0 note=67 velocity=48 time=0
note_on channel=0 note=79 velocity=54 time=0
note_on channel=0 note=51 velocity=40 time=0
note_on channel=0 note=63 velocity=45 time=0
note_on channel=0 note=63 velocity=0 time=56
note_on channel=0 note=79 velocity=0 time=0
note_on channel=0 note=78 velocity=46 time=0
note_on channel=0 note=62 velocity=39 time=0
note_on channel=0 note=62 velocity=0 time=120
note_on channel=0 note=78 velocity=0 time=0
note_on channel=0 note=79 velocity=46 time=0
note_on channel=0 note=63 velocity=39 time=0
note_on channel=0 note=63 velocity=0 time=120
note_on channel=0 note=79 velocity=0 time=0
note_on channel=0 note=75 velocity=42 time=0
note_on channel=0 note=58 velocity=35 time=0
note_on channel=0 note=58 velocity=0 time=0
note_on channel=0 note=75 velocity=0 time=0
note_on channel=0 note=70 velocity=54 time=0
note_on channel=0 note=55 velocity=45 time=0
note_on channel=0 note=55 velocity=0 time=120
note_on channel=0 note=70 velocity=0 time=0
note_on channel=0 note=72 velocity=47 time=35
note_on channel=0 note=56 velocity=39 time=0
note_on channel=0 note=56 velocity=0 time=0
note_on channel=0 note=67 velocity=0 time=0
note_on channel=0 note=51 velocity=0 time=0
note_on channel=0 note=72 velocity=0 time=0
note_on channel=0 note=70 velocity=54 time=0
note_on channel=0 note=55 velocity=45 time=0
note_on channel=0 note=55 velocity=0 time=120
note_on channel=0 note=70 velocity=0 time=0
note_on channel=0 note=69 velocity=43 time=0
note_on channel=0 note=54 velocity=36 time=0
note_on channel=0 note=54 velocity=0 time=120
note_on channel=0 note=69 velocity=0 time=0
note_on channel=0 note=70 velocity=48 time=0
note_on channel=0 note=55 velocity=40 time=0
note_on channel=0 note=55 velocity=0 time=120
note_on channel=0 note=70 velocity=0 time=0
note_on channel=0 note=75 velocity=43 time=0
note_on channel=0 note=58 velocity=36 time=0
note_on channel=0 note=58 velocity=0 time=0
note_on channel=0 note=75 velocity=0 time=0
note_on channel=0 note=79 velocity=56 time=0
note_on channel=0 note=63 velocity=47 time=0
note_on channel=0 note=63 velocity=0 time=10
note_on channel=0 note=79 velocity=0 time=0
note_on channel=0 note=82 velocity=54 time=0
note_on channel=0 note=79 velocity=45 time=0
note_on channel=0 note=39 velocity=45 time=0
note_on channel=0 note=39 velocity=0 time=92
note_on channel=0 note=79 velocity=0 time=0
note_on channel=0 note=82 velocity=0 time=0
note_on channel=0 note=84 velocity=50 time=0
note_on channel=0 note=80 velocity=42 time=0
note_on channel=0 note=38 velocity=36 time=0
note_on channel=0 note=38 velocity=0 time=0
note_on channel=0 note=80 velocity=0 time=0
note_on channel=0 note=84 velocity=0 time=0
note_on channel=0 note=82 velocity=55 time=0
note_on channel=0 note=79 velocity=45 time=0
note_on channel=0 note=39 velocity=41 time=0
note_on channel=0 note=39 velocity=0 time=120
note_on channel=0 note=79 velocity=0 time=0
note_on channel=0 note=82 velocity=0 time=0
note_on channel=0 note=79 velocity=49 time=0
note_on channel=0 note=75 velocity=41 time=0
note_on channel=0 note=43 velocity=37 time=0
note_on channel=0 note=43 velocity=0 time=0
note_on channel=0 note=75 velocity=0 time=0
note_on channel=0 note=79 velocity=0 time=0
note_on channel=0 note=67 velocity=47 time=0
note_on channel=0 note=75 velocity=56 time=0
note_on channel=0 note=46 velocity=47 time=0
note_on channel=0 note=46 velocity=0 time=0
note_on channel=0 note=75 velocity=0 time=0
note_on channel=0 note=67 velocity=0 time=0
note_on channel=0 note=79 velocity=57 time=0
note_on channel=0 note=75 velocity=48 time=0
note_on channel=0 note=43 velocity=48 time=0
note_on channel=0 note=43 velocity=0 time=107
note_on channel=0 note=75 velocity=0 time=0
note_on channel=0 note=79 velocity=0 time=0
note_on channel=0 note=80 velocity=54 time=0
note_on channel=0 note=41 velocity=38 time=0
note_on channel=0 note=41 velocity=0 time=63
note_on channel=0 note=80 velocity=0 time=0
note_on channel=0 note=79 velocity=59 time=0
note_on channel=0 note=75 velocity=49 time=0
note_on channel=0 note=43 velocity=45 time=0
note_on channel=0 note=43 velocity=0 time=120
note_on channel=0 note=75 velocity=0 time=0
note_on channel=0 note=79 velocity=0 time=0
note_on channel=0 note=75 velocity=53 time=0
note_on channel=0 note=70 velocity=44 time=0
note_on channel=0 note=46 velocity=39 time=0
note_on channel=0 note=46 velocity=0 time=0
note_on channel=0 note=70 velocity=0 time=0
note_on channel=0 note=75 velocity=0 time=0
note_on channel=0 note=67 velocity=50 time=0
note_on channel=0 note=70 velocity=60 time=0
note_on channel=0 note=51 velocity=50 time=0
note_on channel=0 note=51 velocity=0 time=0
note_on channel=0 note=70 velocity=0 time=0
note_on channel=0 note=67 velocity=0 time=0
note_on channel=0 note=75 velocity=62 time=0
note_on channel=0 note=67 velocity=51 time=0
note_on channel=0 note=46 velocity=51 time=0
note_on channel=0 note=46 velocity=0 time=60
note_on channel=0 note=67 velocity=0 time=0
note_on channel=0 note=75 velocity=0 time=0
note_on channel=0 note=77 velocity=56 time=0
note_on channel=0 note=45 velocity=40 time=0
note_on channel=0 note=45 velocity=0 time=120
note_on channel=0 note=77 velocity=0 time=0
note_on channel=0 note=75 velocity=59 time=0
note_on channel=0 note=67 velocity=49 time=0
note_on channel=0 note=46 velocity=45 time=0
note_on channel=0 note=46 velocity=0 time=120
note_on channel=0 note=67 velocity=0 time=0
note_on channel=0 note=75 velocity=0 time=0
note_on channel=0 note=70 velocity=51 time=0
note_on channel=0 note=67 velocity=43 time=0
note_on channel=0 note=51 velocity=38 time=0
note_on channel=0 note=51 velocity=0 time=0
note_on channel=0 note=67 velocity=0 time=0
note_on channel=0 note=70 velocity=0 time=0
note_on channel=0 note=63 velocity=47 time=0
note_on channel=0 note=67 velocity=56 time=0
note_on channel=0 note=55 velocity=47 time=0
note_on channel=0 note=55 velocity=0 time=0
note_on channel=0 note=67 velocity=0 time=0
note_on channel=0 note=63 velocity=0 time=0
note_on channel=0 note=70 velocity=54 time=0
note_on channel=0 note=70 velocity=0 time=159
note_on channel=0 note=60 velocity=38 time=0
note_on channel=0 note=68 velocity=46 time=0
note_on channel=0 note=46 velocity=31 time=0
note_on channel=0 note=53 velocity=38 time=0
note_on channel=0 note=53 velocity=0 time=0
note_on channel=0 note=60 velocity=0 time=0
note_on channel=0 note=68 velocity=0 time=0
note_on channel=0 note=46 velocity=0 time=0
note_on channel=0 note=62 velocity=36 time=0
note_on channel=0 note=65 velocity=43 time=0
note_on channel=0 note=46 velocity=29 time=0
note_on channel=0 note=58 velocity=36 time=0
note_on channel=0 note=58 velocity=0 time=46
note_on channel=0 note=62 velocity=0 time=0
note_on channel=0 note=65 velocity=0 time=0
note_on channel=0 note=46 velocity=0 time=0
note_on channel=0 note=39 velocity=38 time=0
note_on channel=0 note=43 velocity=46 time=0
note_on channel=0 note=79 velocity=46 time=32
note_on channel=0 note=82 velocity=55 time=0
note_on channel=0 note=43 velocity=0 time=120
note_on channel=0 note=39 velocity=0 time=0
note_on channel=0 note=46 velocity=39 time=0
note_on channel=0 note=43 velocity=33 time=0
note_on channel=0 note=79 velocity=0 time=120
note_on channel=0 note=82 velocity=0 time=0
note_on channel=0 note=75 velocity=39 time=0
note_on channel=0 note=79 velocity=47 time=0
note_on channel=0 note=46 velocity=0 time=120
note_on channel=0 note=43 velocity=0 time=0
note_on channel=0 note=46 velocity=33 time=0
note_on channel=0 note=51 velocity=40 time=0
note_on channel=0 note=75 velocity=0 time=118
note_on channel=0 note=79 velocity=0 time=0
note_on channel=0 note=75 velocity=48 time=2
note_on channel=0 note=70 velocity=40 time=0
note_on channel=0 note=46 velocity=0 time=120
note_on channel=0 note=51 velocity=0 time=0
note_on channel=0 note=46 velocity=43 time=0
note_on channel=0 note=43 velocity=36 time=0
note_on channel=0 note=75 velocity=0 time=118
note_on channel=0 note=70 velocity=0 time=0
note_on channel=0 note=79 velocity=51 time=2
note_on channel=0 note=75 velocity=43 time=0
note_on channel=0 note=46 velocity=0 time=120
note_on channel=0 note=43 velocity=0 time=0
note_on channel=0 note=46 velocity=32 time=0
note_on channel=0 note=51 velocity=39 time=0
note_on channel=0 note=79 velocity=0 time=118
note_on channel=0 note=75 velocity=0 time=0
note_on channel=0 note=70 velocity=39 time=2
note_on channel=0 note=75 velocity=47 time=0
note_on channel=0 note=46 velocity=0 time=0
note_on channel=0 note=51 velocity=0 time=0
note_on channel=0 note=51 velocity=33 time=0
note_on channel=0 note=55 velocity=40 time=0
note_on channel=0 note=70 velocity=0 time=118
note_on channel=0 note=75 velocity=0 time=0
note_on channel=0 note=67 velocity=40 time=2
note_on channel=0 note=70 velocity=48 time=0
note_on channel=0 note=51 velocity=0 time=110
note_on channel=0 note=55 velocity=0 time=0
note_on channel=0 note=46 velocity=42 time=0
note_on channel=0 note=51 velocity=50 time=0
note_on channel=0 note=67 velocity=0 time=30
note_on channel=0 note=70 velocity=0 time=0
note_on channel=0 note=70 velocity=50 time=2
note_on channel=0 note=75 velocity=60 time=0
note_on channel=0 note=46 velocity=0 time=120
note_on channel=0 note=51 velocity=0 time=0
note_on channel=0 note=55 velocity=43 time=0
note_on channel=0 note=51 velocity=36 time=0
note_on channel=0 note=70 velocity=0 time=118
note_on channel=0 note=75 velocity=0 time=0
note_on channel=0 note=67 velocity=43 time=2
note_on channel=0 note=70 velocity=52 time=0
note_on channel=0 note=55 velocity=0 time=0
note_on channel=0 note=51 velocity=0 time=0
note_on channel=0 note=46 velocity=36 time=0
note_on channel=0 note=51 velocity=36 time=0
note_on channel=0 note=58 velocity=44 time=0
note_on channel=0 note=67 velocity=0 time=118
note_on channel=0 note=70 velocity=0 time=0
note_on channel=0 note=67 velocity=52 time=2
note_on channel=0 note=51 velocity=0 time=118
note_on channel=0 note=58 velocity=0 time=0
note_on channel=0 note=46 velocity=0 time=0
note_on channel=0 note=46 velocity=42 time=0
note_on channel=0 note=53 velocity=42 time=0
note_on channel=0 note=58 velocity=50 time=0
note_on channel=0 note=67 velocity=0 time=37
note_on channel=0 note=62 velocity=46 time=2
note_on channel=0 note=70 velocity=54 time=0
note_on channel=0 note=46 velocity=0 time=118
note_on channel=0 note=58 velocity=0 time=0
note_on channel=0 note=53 velocity=0 time=0
note_on channel=0 note=53 velocity=31 time=2
note_on channel=0 note=46 velocity=31 time=0
note_on channel=0 note=58 velocity=38 time=0
note_on channel=0 note=62 velocity=0 time=118
note_on channel=0 note=70 velocity=0 time=0
note_on channel=0 note=62 velocity=38 time=2
note_on channel=0 note=68 velocity=46 time=0
note_on channel=0 note=46 velocity=0 time=118
note_on channel=0 note=58 velocity=0 time=0
note_on channel=0 note=53 velocity=0 time=0
note_on channel=0 note=56 velocity=36 time=0
note_on channel=0 note=46 velocity=29 time=0
note_on channel=0 note=58 velocity=36 time=0
note_on channel=0 note=62 velocity=0 time=118
note_on channel=0 note=68 velocity=0 time=0
note_on channel=0 note=62 velocity=36 time=0
note_on channel=0 note=65 velocity=43 time=0
note_on channel=0 note=65 velocity=0 time=0
note_on channel=0 note=46 velocity=0 time=0
note_on channel=0 note=58 velocity=0 time=0
note_on channel=0 note=56 velocity=0 time=0
note_on channel=0 note=62 velocity=0 time=0
note_on channel=0 note=82 velocity=80 time=0
note_on channel=0 note=70 velocity=80 time=0
note_on channel=0 note=70 velocity=0 time=113
note_on channel=0 note=82 velocity=0 time=0
note_on channel=0 note=94 velocity=63 time=0
note_on channel=0 note=94 velocity=0 time=120
note_on channel=0 note=79 velocity=69 time=0
note_on channel=0 note=67 velocity=67 time=0
note_on channel=0 note=67 velocity=0 time=120
note_on channel=0 note=79 velocity=0 time=0
note_on channel=0 note=91 velocity=64 time=0
note_on channel=0 note=91 velocity=0 time=120
note_on channel=0 note=75 velocity=69 time=0
note_on channel=0 note=63 velocity=67 time=0
note_on channel=0 note=63 velocity=0 time=0
note_on channel=0 note=75 velocity=0 time=0
note_on channel=0 note=87 velocity=64 time=0
note_on channel=0 note=87 velocity=0 time=0
note_on channel=0 note=79 velocity=80 time=0
note_on channel=0 note=67 velocity=80 time=0
note_on channel=0 note=67 velocity=0 time=120
note_on channel=0 note=79 velocity=0 time=0
note_on channel=0 note=91 velocity=64 time=0
note_on channel=0 note=91 velocity=0 time=120
note_on channel=0 note=75 velocity=69 time=0
note_on channel=0 note=63 velocity=70 time=0
note_on channel=0 note=63 velocity=0 time=120
note_on channel=0 note=75 velocity=0 time=0
note_on channel=0 note=87 velocity=64 time=0
note_on channel=0 note=87 velocity=0 time=120
note_on channel=0 note=70 velocity=69 time=0
note_on channel=0 note=58 velocity=70 time=0
note_on channel=0 note=58 velocity=0 time=0
note_on channel=0 note=70 velocity=0 time=0
note_on channel=0 note=82 velocity=65 time=0
note_on channel=0 note=82 velocity=0 time=0
note_on channel=0 note=75 velocity=80 time=0
note_on channel=0 note=63 velocity=80 time=0
note_on channel=0 note=63 velocity=0 time=120
note_on channel=0 note=75 velocity=0 time=0
note_on channel=0 note=87 velocity=65 time=0
note_on channel=0 note=87 velocity=0 time=120
note_on channel=0 note=70 velocity=70 time=0
note_on channel=0 note=58 velocity=71 time=0
note_on channel=0 note=58 velocity=0 time=120
note_on channel=0 note=70 velocity=0 time=0
note_on channel=0 note=82 velocity=65 time=0
note_on channel=0 note=82 velocity=0 time=120
note_on channel=0 note=67 velocity=70 time=0
note_on channel=0 note=55 velocity=71 time=0
note_on channel=0 note=55 velocity=0 time=0
note_on channel=0 note=67 velocity=0 time=0
note_on channel=0 note=79 velocity=66 time=0
note_on channel=0 note=79 velocity=0 time=0
note_on channel=0 note=70 velocity=80 time=0
note_on channel=0 note=58 velocity=80 time=0
note_on channel=0 note=58 velocity=0 time=120
note_on channel=0 note=70 velocity=0 time=0
note_on channel=0 note=82 velocity=64 time=0
note_on channel=0 note=82 velocity=0 time=120
note_on channel=0 note=68 velocity=69 time=0
note_on channel=0 note=56 velocity=69 time=0
note_on channel=0 note=56 velocity=0 time=120
note_on channel=0 note=68 velocity=0 time=0
note_on channel=0 note=80 velocity=65 time=0
note_on channel=0 note=80 velocity=0 time=120
note_on channel=0 note=65 velocity=69 time=0
note_on channel=0 note=46 velocity=55 time=0
note_on channel=0 note=53 velocity=69 time=0
note_on channel=0 note=53 velocity=0 time=0
note_on channel=0 note=46 velocity=0 time=0
note_on channel=0 note=65 velocity=0 time=0
note_on channel=0 note=77 velocity=66 time=0
note_on channel=0 note=77 velocity=0 time=0
note_on channel=0 note=63 velocity=80 time=0
note_on channel=0 note=39 velocity=65 time=0
note_on channel=0 note=51 velocity=82 time=0
note_on channel=0 note=51 velocity=0 time=7
note_on channel=0 note=39 velocity=0 time=0
note_on channel=0 note=63 velocity=0 time=0
note_on channel=0 note=75 velocity=65 time=0
note_on channel=0 note=75 velocity=0 time=120
note_on channel=0 note=67 velocity=70 time=0
note_on channel=0 note=51 velocity=51 time=0
note_on channel=0 note=55 velocity=51 time=0
note_on channel=0 note=58 velocity=51 time=0
note_on channel=0 note=63 velocity=64 time=0
note_on channel=0 note=63 velocity=0 time=120
note_on channel=0 note=55 velocity=0 time=0
note_on channel=0 note=67 velocity=0 time=0
note_on channel=0 note=51 velocity=0 time=0
note_on channel=0 note=58 velocity=0 time=0
note_on channel=0 note=79 velocity=66 time=0
note_on channel=0 note=79 velocity=0 time=120
note_on channel=0 note=67 velocity=71 time=0
note_on channel=0 note=51 velocity=51 time=0
note_on channel=0 note=55 velocity=51 time=0
note_on channel=0 note=58 velocity=51 time=0
note_on channel=0 note=63 velocity=64 time=0
note_on channel=0 note=63 velocity=0 time=120
note_on channel=0 note=55 velocity=0 time=0
note_on channel=0 note=67 velocity=0 time=0
note_on channel=0 note=51 velocity=0 time=0
note_on channel=0 note=58 velocity=0 time=0
note_on channel=0 note=79 velocity=67 time=0
note_on channel=0 note=79 velocity=0 time=120
note_on channel=0 note=67 velocity=82 time=0
note_on channel=0 note=51 velocity=51 time=0
note_on channel=0 note=55 velocity=51 time=0
note_on channel=0 note=58 velocity=51 time=0
note_on channel=0 note=63 velocity=64 time=0
note_on channel=0 note=63 velocity=0 time=120
note_on channel=0 note=55 velocity=0 time=0
note_on channel=0 note=67 velocity=0 time=0
note_on channel=0 note=51 velocity=0 time=0
note_on channel=0 note=58 velocity=0 time=0
note_on channel=0 note=79 velocity=66 time=0
note_on channel=0 note=79 velocity=0 time=120
note_on channel=0 note=70 velocity=72 time=0
note_on channel=0 note=51 velocity=51 time=0
note_on channel=0 note=55 velocity=51 time=0
note_on channel=0 note=58 velocity=51 time=0
note_on channel=0 note=63 velocity=64 time=0
note_on channel=0 note=63 velocity=0 time=120
note_on channel=0 note=55 velocity=0 time=0
note_on channel=0 note=70 velocity=0 time=0
note_on channel=0 note=51 velocity=0 time=0
note_on channel=0 note=58 velocity=0 time=0
note_on channel=0 note=82 velocity=68 time=0
note_on channel=0 note=82 velocity=0 time=120
note_on channel=0 note=70 velocity=73 time=0
note_on channel=0 note=51 velocity=51 time=0
note_on channel=0 note=55 velocity=51 time=0
note_on channel=0 note=58 velocity=51 time=0
note_on channel=0 note=63 velocity=64 time=0
note_on channel=0 note=63 velocity=0 time=0
note_on channel=0 note=55 velocity=0 time=0
note_on channel=0 note=70 velocity=0 time=0
note_on channel=0 note=51 velocity=0 time=0
note_on channel=0 note=58 velocity=0 time=0
note_on channel=0 note=82 velocity=69 time=0
note_on channel=0 note=82 velocity=0 time=0
note_on channel=0 note=70 velocity=85 time=0
note_on channel=0 note=51 velocity=59 time=0
note_on channel=0 note=55 velocity=59 time=0
note_on channel=0 note=58 velocity=59 time=0
note_on channel=0 note=63 velocity=74 time=0
note_on channel=0 note=63 velocity=0 time=92
note_on channel=0 note=55 velocity=0 time=0
note_on channel=0 note=70 velocity=0 time=0
note_on channel=0 note=51 velocity=0 time=0
note_on channel=0 note=58 velocity=0 time=0
note_on channel=0 note=82 velocity=70 time=0
note_on channel=0 note=82 velocity=0 time=120
note_on channel=0 note=75 velocity=75 time=0
note_on channel=0 note=51 velocity=48 time=0
note_on channel=0 note=55 velocity=48 time=0
note_on channel=0 note=58 velocity=48 time=0
note_on channel=0 note=63 velocity=61 time=0
note_on channel=0 note=63 velocity=0 time=120
note_on channel=0 note=55 velocity=0 time=0
note_on channel=0 note=75 velocity=0 time=0
note_on channel=0 note=51 velocity=0 time=0
note_on channel=0 note=58 velocity=0 time=0
note_on channel=0 note=87 velocity=70 time=0
note_on channel=0 note=87 velocity=0 time=120
note_on channel=0 note=75 velocity=76 time=0
note_on channel=0 note=51 velocity=49 time=0
note_on channel=0 note=55 velocity=49 time=0
note_on channel=0 note=58 velocity=49 time=0
note_on channel=0 note=63 velocity=62 time=0
note_on channel=0 note=63 velocity=0 time=120
note_on channel=0 note=55 velocity=0 time=0
note_on channel=0 note=75 velocity=0 time=0
note_on channel=0 note=51 velocity=0 time=0
note_on channel=0 note=58 velocity=0 time=0
note_on channel=0 note=87 velocity=72 time=0
note_on channel=0 note=87 velocity=0 time=120
note_on channel=0 note=75 velocity=88 time=0
note_on channel=0 note=51 velocity=50 time=0
note_on channel=0 note=55 velocity=50 time=0
note_on channel=0 note=58 velocity=50 time=0
note_on channel=0 note=63 velocity=63 time=0
note_on channel=0 note=63 velocity=0 time=120
note_on channel=0 note=55 velocity=0 time=0
note_on channel=0 note=75 velocity=0 time=0
note_on channel=0 note=51 velocity=0 time=0
note_on channel=0 note=58 velocity=0 time=0
note_on channel=0 note=87 velocity=77 time=0
note_on channel=0 note=87 velocity=0 time=120
note_on channel=0 note=79 velocity=88 time=0
note_on channel=0 note=51 velocity=51 time=0
note_on channel=0 note=55 velocity=51 time=0
note_on channel=0 note=58 velocity=51 time=0
note_on channel=0 note=63 velocity=64 time=0
note_on channel=0 note=63 velocity=0 time=120
note_on channel=0 note=55 velocity=0 time=0
note_on channel=0 note=79 velocity=0 time=0
note_on channel=0 note=51 velocity=0 time=0
note_on channel=0 note=58 velocity=0 time=0
note_on channel=0 note=91 velocity=81 time=0
note_on channel=0 note=91 velocity=0 time=0
note_on channel=0 note=82 velocity=92 time=0
note_on channel=0 note=51 velocity=51 time=0
note_on channel=0 note=55 velocity=51 time=0
note_on channel=0 note=58 velocity=51 time=0
note_on channel=0 note=63 velocity=64 time=0
note_on channel=0 note=63 velocity=0 time=0
note_on channel=0 note=55 velocity=0 time=0
note_on channel=0 note=82 velocity=0 time=0
note_on channel=0 note=51 velocity=0 time=0
note_on channel=0 note=58 velocity=0 time=0
note_on channel=0 note=94 velocity=84 time=0
note_on channel=0 note=94 velocity=0 time=0
note_on channel=0 note=87 velocity=101 time=0
note_on channel=0 note=99 velocity=109 time=0
note_on channel=0 note=51 velocity=59 time=0
note_on channel=0 note=55 velocity=59 time=0
note_on channel=0 note=58 velocity=59 time=0
note_on channel=0 note=63 velocity=74 time=0
note_on channel=0 note=63 velocity=0 time=106
note_on channel=0 note=99 velocity=0 time=0
note_on channel=0 note=51 velocity=0 time=0
note_on channel=0 note=87 velocity=0 time=0
note_on channel=0 note=58 velocity=0 time=0
note_on channel=0 note=55 velocity=0 time=0
note_on channel=0 note=74 velocity=88 time=0
note_on channel=0 note=68 velocity=74 time=0
note_on channel=0 note=65 velocity=74 time=0
note_on channel=0 note=70 velocity=74 time=0
note_on channel=0 note=46 velocity=57 time=0
note_on channel=0 note=58 velocity=68 time=0
note_on channel=0 note=58 velocity=0 time=106
note_on channel=0 note=68 velocity=0 time=0
note_on channel=0 note=65 velocity=0 time=0
note_on channel=0 note=74 velocity=0 time=0
note_on channel=0 note=46 velocity=0 time=0
note_on channel=0 note=70 velocity=0 time=0
note_on channel=0 note=67 velocity=77 time=240
note_on channel=0 note=70 velocity=80 time=0
note_on channel=0 note=75 velocity=95 time=0
note_on channel=0 note=39 velocity=61 time=0
note_on channel=0 note=51 velocity=74 time=0
note_on channel=0 note=51 velocity=0 time=373
note_on channel=0 note=75 velocity=0 time=0
note_on channel=0 note=67 velocity=0 time=0
note_on channel=0 note=70 velocity=0 time=0
note_on channel=0 note=39 velocity=0 time=0
