note_on channel=0 note=62 velocity=50 time=0
note_on channel=0 note=62 velocity=0 time=0
note_on channel=0 note=63 velocity=46 time=0
note_on channel=0 note=63 velocity=0 time=0
note_on channel=0 note=65 velocity=50 time=0
note_on channel=0 note=46 velocity=40 time=0
control_change channel=0 control=64 value=127 time=57
note_on channel=0 note=46 velocity=0 time=63
note_on channel=0 note=58 velocity=29 time=120
note_on channel=0 note=58 velocity=0 time=240
note_on channel=0 note=62 velocity=34 time=0
control_change channel=0 control=64 value=0 time=11
control_change channel=0 control=64 value=127 time=49
note_on channel=0 note=62 velocity=0 time=180
note_on channel=0 note=58 velocity=29 time=0
note_on channel=0 note=65 velocity=0 time=210
note_on channel=0 note=69 velocity=46 time=0
note_on channel=0 note=69 velocity=0 time=0
note_on channel=0 note=58 velocity=0 time=0
note_on channel=0 note=67 velocity=50 time=0
note_on channel=0 note=63 velocity=34 time=0
control_change channel=0 control=64 value=0 time=15
note_on channel=0 note=67 velocity=0 time=105
note_on channel=0 note=65 velocity=45 time=0
note_on channel=0 note=65 velocity=0 time=0
note_on channel=0 note=63 velocity=0 time=0
note_on channel=0 note=67 velocity=50 time=0
note_on channel=0 note=60 velocity=31 time=0
note_on channel=0 note=67 velocity=0 time=120
note_on channel=0 note=69 velocity=43 time=0
note_on channel=0 note=69 velocity=0 time=0
note_on channel=0 note=60 velocity=0 time=0
note_on channel=0 note=70 velocity=50 time=0
note_on channel=0 note=62 velocity=40 time=0
note_on channel=0 note=62 velocity=0 time=240
note_on channel=0 note=61 velocity=30 time=0
note_on channel=0 note=61 velocity=0 time=240
note_on channel=0 note=70 velocity=0 time=0
note_on channel=0 note=65 velocity=41 time=0
note_on channel=0 note=62 velocity=34 time=0
control_change channel=0 control=64 value=127 time=60
note_on channel=0 note=62 velocity=0 time=180
note_on channel=0 note=58 velocity=30 time=0
note_on channel=0 note=65 velocity=0 time=180
note_on channel=0 note=69 velocity=43 time=30
note_on channel=0 note=69 velocity=0 time=30
note_on channel=0 note=58 velocity=0 time=0
note_on channel=0 note=67 velocity=50 time=0
note_on channel=0 note=63 velocity=34 time=0
control_change channel=0 control=64 value=0 time=19
note_on channel=0 note=67 velocity=0 time=101
note_on channel=0 note=65 velocity=46 time=0
note_on channel=0 note=65 velocity=0 time=0
note_on channel=0 note=63 velocity=0 time=0
note_on channel=0 note=67 velocity=50 time=0
note_on channel=0 note=60 velocity=29 time=0
note_on channel=0 note=67 velocity=0 time=120
note_on channel=0 note=69 velocity=50 time=0
note_on channel=0 note=69 velocity=0 time=0
note_on channel=0 note=60 velocity=0 time=0
note_on channel=0 note=70 velocity=50 time=0
note_on channel=0 note=62 velocity=40 time=0
note_on channel=0 note=70 velocity=0 time=60
note_on channel=0 note=62 velocity=0 time=180
note_on channel=0 note=61 velocity=30 time=0
note_on channel=0 note=69 velocity=46 time=120
note_on channel=0 note=69 velocity=0 time=60
note_on channel=0 note=61 velocity=0 time=60
note_on channel=0 note=70 velocity=56 time=0
note_on channel=0 note=62 velocity=34 time=0
note_on channel=0 note=70 velocity=0 time=60
note_on channel=0 note=62 velocity=0 time=180
note_on channel=0 note=57 velocity=30 time=0
note_on channel=0 note=72 velocity=48 time=120
note_on channel=0 note=72 velocity=0 time=60
note_on channel=0 note=57 velocity=0 time=60
note_on channel=0 note=74 velocity=55 time=0
note_on channel=0 note=58 velocity=34 time=0
note_on channel=0 note=74 velocity=0 time=60
note_on channel=0 note=58 velocity=0 time=180
note_on channel=0 note=55 velocity=30 time=0
note_on channel=0 note=76 velocity=59 time=0
note_on channel=0 note=76 velocity=0 time=60
note_on channel=0 note=55 velocity=0 time=50
note_on channel=0 note=70 velocity=53 time=0
note_on channel=0 note=76 velocity=63 time=0
note_on channel=0 note=53 velocity=40 time=0
control_change channel=0 control=64 value=127 time=0
note_on channel=0 note=76 velocity=0 time=480
note_on channel=0 note=70 velocity=0 time=0
note_on channel=0 note=69 velocity=48 time=0
note_on channel=0 note=77 velocity=57 time=0
note_on channel=0 note=65 velocity=35 time=0
control_change channel=0 control=64 value=0 time=16
note_on channel=0 note=65 velocity=0 time=224
note_on channel=0 note=53 velocity=0 time=0
note_on channel=0 note=69 velocity=0 time=0
note_on channel=0 note=77 velocity=0 time=0
note_on channel=0 note=77 velocity=43 time=210
note_on channel=0 note=77 velocity=0 time=0
note_on channel=0 note=75 velocity=50 time=0
note_on channel=0 note=75 velocity=0 time=120
note_on channel=0 note=74 velocity=46 time=0
note_on channel=0 note=74 velocity=0 time=120
note_on channel=0 note=75 velocity=54 time=0
note_on channel=0 note=75 velocity=0 time=120
note_on channel=0 note=77 velocity=51 time=0
note_on channel=0 note=77 velocity=0 time=120
note_on channel=0 note=79 velocity=59 time=0
control_change channel=0 control=64 value=127 time=57
note_on channel=0 note=53 velocity=36 time=183
note_on channel=0 note=79 velocity=0 time=240
note_on channel=0 note=72 velocity=50 time=0
note_on channel=0 note=57 velocity=40 time=0
note_on channel=0 note=57 velocity=0 time=240
note_on channel=0 note=60 velocity=37 time=0
note_on channel=0 note=72 velocity=0 time=60
note_on channel=0 note=74 velocity=43 time=30
note_on channel=0 note=74 velocity=0 time=0
note_on channel=0 note=60 velocity=0 time=0
note_on channel=0 note=72 velocity=50 time=0
note_on channel=0 note=63 velocity=40 time=0
control_change channel=0 control=64 value=0 time=6
note_on channel=0 note=72 velocity=0 time=114
note_on channel=0 note=71 velocity=46 time=0
note_on channel=0 note=71 velocity=0 time=120
note_on channel=0 note=72 velocity=54 time=0
note_on channel=0 note=72 velocity=0 time=120
note_on channel=0 note=74 velocity=51 time=0
note_on channel=0 note=74 velocity=0 time=120
note_on channel=0 note=75 velocity=59 time=0
control_change channel=0 control=64 value=127 time=53
note_on channel=0 note=63 velocity=0 time=187
note_on channel=0 note=53 velocity=0 time=0
note_on channel=0 note=53 velocity=42 time=0
note_on channel=0 note=75 velocity=0 time=240
note_on channel=0 note=69 velocity=50 time=0
note_on channel=0 note=60 velocity=48 time=0
note_on channel=0 note=60 velocity=0 time=240
note_on channel=0 note=63 velocity=41 time=0
note_on channel=0 note=69 velocity=0 time=60
note_on channel=0 note=70 velocity=43 time=30
note_on channel=0 note=70 velocity=0 time=0
note_on channel=0 note=63 velocity=0 time=0
note_on channel=0 note=69 velocity=50 time=0
note_on channel=0 note=66 velocity=55 time=0
control_change channel=0 control=64 value=0 time=14
note_on channel=0 note=69 velocity=0 time=106
note_on channel=0 note=67 velocity=46 time=0
note_on channel=0 note=67 velocity=0 time=120
note_on channel=0 note=69 velocity=52 time=0
note_on channel=0 note=69 velocity=0 time=0
note_on channel=0 note=70 velocity=48 time=0
note_on channel=0 note=70 velocity=0 time=80
note_on channel=0 note=74 velocity=43 time=10
note_on channel=0 note=74 velocity=0 time=0
note_on channel=0 note=72 velocity=53 time=0
note_on channel=0 note=72 velocity=0 time=120
note_on channel=0 note=71 velocity=50 time=0
note_on channel=0 note=71 velocity=0 time=120
note_on channel=0 note=72 velocity=54 time=0
note_on channel=0 note=72 velocity=0 time=0
note_on channel=0 note=74 velocity=51 time=0
note_on channel=0 note=74 velocity=0 time=80
note_on channel=0 note=77 velocity=43 time=10
note_on channel=0 note=77 velocity=0 time=0
note_on channel=0 note=66 velocity=0 time=0
note_on channel=0 note=53 velocity=0 time=0
note_on channel=0 note=75 velocity=57 time=0
note_on channel=0 note=65 velocity=38 time=0
note_on channel=0 note=53 velocity=38 time=0
note_on channel=0 note=75 velocity=0 time=120
note_on channel=0 note=74 velocity=52 time=0
note_on channel=0 note=74 velocity=0 time=120
note_on channel=0 note=75 velocity=58 time=0
note_on channel=0 note=75 velocity=0 time=120
note_on channel=0 note=77 velocity=55 time=0
note_on channel=0 note=77 velocity=0 time=120
note_on channel=0 note=53 velocity=0 time=0
note_on channel=0 note=65 velocity=0 time=0
note_on channel=0 note=79 velocity=64 time=0
note_on channel=0 note=53 velocity=32 time=0
note_on channel=0 note=63 velocity=32 time=0
note_on channel=0 note=79 velocity=0 time=60
note_on channel=0 note=69 velocity=42 time=0
note_on channel=0 note=69 velocity=0 time=0
note_on channel=0 note=63 velocity=0 time=0
note_on channel=0 note=53 velocity=0 time=0
note_on channel=0 note=72 velocity=50 time=0
note_on channel=0 note=58 velocity=30 time=0
note_on channel=0 note=63 velocity=36 time=0
control_change channel=0 control=64 value=127 time=99
note_on channel=0 note=63 velocity=0 time=0
note_on channel=0 note=72 velocity=0 time=0
note_on channel=0 note=70 velocity=44 time=0
note_on channel=0 note=62 velocity=32 time=0
control_change channel=0 control=64 value=0 time=13
control_change channel=0 control=64 value=127 time=114
note_on channel=0 note=62 velocity=0 time=113
note_on channel=0 note=70 velocity=0 time=0
note_on channel=0 note=58 velocity=0 time=0
control_change channel=0 control=64 value=0 time=141
note_on channel=0 note=62 velocity=50 time=0
note_on channel=0 note=62 velocity=0 time=0
note_on channel=0 note=63 velocity=46 time=0
note_on channel=0 note=63 velocity=0 time=0
note_on channel=0 note=65 velocity=50 time=0
note_on channel=0 note=46 velocity=40 time=0
control_change channel=0 control=64 value=127 time=57
note_on channel=0 note=46 velocity=0 time=63
note_on channel=0 note=58 velocity=29 time=120
note_on channel=0 note=58 velocity=0 time=240
note_on channel=0 note=62 velocity=34 time=0
control_change channel=0 control=64 value=0 time=11
control_change channel=0 control=64 value=127 time=49
note_on channel=0 note=62 velocity=0 time=180
note_on channel=0 note=58 velocity=29 time=0
note_on channel=0 note=65 velocity=0 time=210
note_on channel=0 note=69 velocity=46 time=0
note_on channel=0 note=69 velocity=0 time=0
note_on channel=0 note=58 velocity=0 time=0
note_on channel=0 note=67 velocity=50 time=0
note_on channel=0 note=63 velocity=34 time=0
control_change channel=0 control=64 value=0 time=15
note_on channel=0 note=67 velocity=0 time=105
note_on channel=0 note=65 velocity=45 time=0
note_on channel=0 note=65 velocity=0 time=0
note_on channel=0 note=63 velocity=0 time=0
note_on channel=0 note=67 velocity=50 time=0
note_on channel=0 note=60 velocity=31 time=0
note_on channel=0 note=67 velocity=0 time=120
note_on channel=0 note=69 velocity=43 time=0
note_on channel=0 note=69 velocity=0 time=0
note_on channel=0 note=60 velocity=0 time=0
note_on channel=0 note=70 velocity=50 time=0
note_on channel=0 note=62 velocity=40 time=0
note_on channel=0 note=62 velocity=0 time=240
note_on channel=0 note=61 velocity=30 time=0
note_on channel=0 note=61 velocity=0 time=240
note_on channel=0 note=70 velocity=0 time=0
note_on channel=0 note=65 velocity=41 time=0
note_on channel=0 note=62 velocity=34 time=0
control_change channel=0 control=64 value=127 time=60
note_on channel=0 note=62 velocity=0 time=180
note_on channel=0 note=58 velocity=30 time=0
note_on channel=0 note=65 velocity=0 time=180
note_on channel=0 note=69 velocity=43 time=30
note_on channel=0 note=69 velocity=0 time=0
note_on channel=0 note=58 velocity=0 time=0
note_on channel=0 note=67 velocity=50 time=0
note_on channel=0 note=63 velocity=34 time=0
control_change channel=0 control=64 value=0 time=19
note_on channel=0 note=67 velocity=0 time=101
note_on channel=0 note=65 velocity=46 time=0
note_on channel=0 note=65 velocity=0 time=0
note_on channel=0 note=63 velocity=0 time=0
note_on channel=0 note=67 velocity=50 time=0
note_on channel=0 note=60 velocity=29 time=0
note_on channel=0 note=67 velocity=0 time=120
note_on channel=0 note=69 velocity=50 time=0
note_on channel=0 note=69 velocity=0 time=0
note_on channel=0 note=60 velocity=0 time=0
note_on channel=0 note=70 velocity=50 time=0
note_on channel=0 note=62 velocity=40 time=0
note_on channel=0 note=70 velocity=0 time=60
note_on channel=0 note=62 velocity=0 time=180
note_on channel=0 note=61 velocity=30 time=0
note_on channel=0 note=69 velocity=46 time=120
note_on channel=0 note=69 velocity=0 time=60
note_on channel=0 note=61 velocity=0 time=60
note_on channel=0 note=70 velocity=56 time=0
note_on channel=0 note=62 velocity=34 time=0
note_on channel=0 note=70 velocity=0 time=60
note_on channel=0 note=62 velocity=0 time=180
note_on channel=0 note=57 velocity=30 time=0
note_on channel=0 note=72 velocity=48 time=120
note_on channel=0 note=72 velocity=0 time=60
note_on channel=0 note=57 velocity=0 time=0
note_on channel=0 note=74 velocity=55 time=0
note_on channel=0 note=58 velocity=34 time=0
note_on channel=0 note=74 velocity=0 time=60
note_on channel=0 note=58 velocity=0 time=180
note_on channel=0 note=55 velocity=30 time=0
note_on channel=0 note=76 velocity=59 time=0
note_on channel=0 note=76 velocity=0 time=60
note_on channel=0 note=55 velocity=0 time=50
note_on channel=0 note=70 velocity=53 time=0
note_on channel=0 note=76 velocity=63 time=0
note_on channel=0 note=53 velocity=40 time=0
control_change channel=0 control=64 value=127 time=0
note_on channel=0 note=76 velocity=0 time=480
note_on channel=0 note=70 velocity=0 time=0
note_on channel=0 note=69 velocity=48 time=0
note_on channel=0 note=77 velocity=57 time=0
note_on channel=0 note=65 velocity=35 time=0
control_change channel=0 control=64 value=0 time=16
note_on channel=0 note=65 velocity=0 time=224
note_on channel=0 note=53 velocity=0 time=0
note_on channel=0 note=69 velocity=0 time=0
note_on channel=0 note=77 velocity=0 time=0
note_on channel=0 note=77 velocity=43 time=210
note_on channel=0 note=77 velocity=0 time=0
note_on channel=0 note=75 velocity=50 time=0
note_on channel=0 note=75 velocity=0 time=120
note_on channel=0 note=74 velocity=46 time=0
note_on channel=0 note=74 velocity=0 time=120
note_on channel=0 note=75 velocity=54 time=0
note_on channel=0 note=75 velocity=0 time=120
note_on channel=0 note=77 velocity=51 time=0
note_on channel=0 note=77 velocity=0 time=120
note_on channel=0 note=79 velocity=59 time=0
control_change channel=0 control=64 value=127 time=57
note_on channel=0 note=53 velocity=36 time=0
note_on channel=0 note=79 velocity=0 time=240
note_on channel=0 note=72 velocity=50 time=0
note_on channel=0 note=57 velocity=40 time=0
note_on channel=0 note=57 velocity=0 time=240
note_on channel=0 note=60 velocity=37 time=0
note_on channel=0 note=72 velocity=0 time=60
note_on channel=0 note=74 velocity=43 time=30
note_on channel=0 note=74 velocity=0 time=0
note_on channel=0 note=60 velocity=0 time=0
note_on channel=0 note=72 velocity=50 time=0
note_on channel=0 note=63 velocity=40 time=0
control_change channel=0 control=64 value=0 time=6
note_on channel=0 note=72 velocity=0 time=114
note_on channel=0 note=71 velocity=46 time=0
note_on channel=0 note=71 velocity=0 time=120
note_on channel=0 note=72 velocity=54 time=0
note_on channel=0 note=72 velocity=0 time=120
note_on channel=0 note=74 velocity=51 time=0
note_on channel=0 note=74 velocity=0 time=120
note_on channel=0 note=75 velocity=59 time=0
control_change channel=0 control=64 value=127 time=53
note_on channel=0 note=63 velocity=0 time=0
note_on channel=0 note=53 velocity=0 time=0
note_on channel=0 note=53 velocity=42 time=0
note_on channel=0 note=75 velocity=0 time=240
note_on channel=0 note=69 velocity=50 time=0
note_on channel=0 note=60 velocity=48 time=0
note_on channel=0 note=60 velocity=0 time=240
note_on channel=0 note=63 velocity=41 time=0
note_on channel=0 note=69 velocity=0 time=60
note_on channel=0 note=70 velocity=43 time=30
note_on channel=0 note=70 velocity=0 time=0
note_on channel=0 note=63 velocity=0 time=0
note_on channel=0 note=69 velocity=50 time=0
note_on channel=0 note=66 velocity=55 time=0
control_change channel=0 control=64 value=0 time=14
note_on channel=0 note=69 velocity=0 time=106
note_on channel=0 note=67 velocity=46 time=0
note_on channel=0 note=67 velocity=0 time=120
note_on channel=0 note=69 velocity=52 time=0
note_on channel=0 note=69 velocity=0 time=0
note_on channel=0 note=70 velocity=48 time=0
note_on channel=0 note=70 velocity=0 time=80
note_on channel=0 note=74 velocity=43 time=10
note_on channel=0 note=74 velocity=0 time=0
note_on channel=0 note=72 velocity=53 time=0
note_on channel=0 note=72 velocity=0 time=120
note_on channel=0 note=71 velocity=50 time=0
note_on channel=0 note=71 velocity=0 time=120
note_on channel=0 note=72 velocity=54 time=0
note_on channel=0 note=72 velocity=0 time=0
note_on channel=0 note=74 velocity=51 time=0
note_on channel=0 note=74 velocity=0 time=80
note_on channel=0 note=77 velocity=43 time=10
note_on channel=0 note=77 velocity=0 time=0
note_on channel=0 note=66 velocity=0 time=0
note_on channel=0 note=53 velocity=0 time=0
note_on channel=0 note=75 velocity=57 time=0
note_on channel=0 note=65 velocity=38 time=0
note_on channel=0 note=53 velocity=38 time=0
note_on channel=0 note=75 velocity=0 time=120
note_on channel=0 note=74 velocity=52 time=0
note_on channel=0 note=74 velocity=0 time=120
note_on channel=0 note=75 velocity=58 time=0
note_on channel=0 note=75 velocity=0 time=120
note_on channel=0 note=77 velocity=55 time=0
note_on channel=0 note=77 velocity=0 time=120
note_on channel=0 note=53 velocity=0 time=0
note_on channel=0 note=65 velocity=0 time=0
note_on channel=0 note=79 velocity=64 time=0
note_on channel=0 note=53 velocity=32 time=0
note_on channel=0 note=63 velocity=32 time=0
note_on channel=0 note=79 velocity=0 time=60
note_on channel=0 note=69 velocity=42 time=0
note_on channel=0 note=69 velocity=0 time=0
note_on channel=0 note=63 velocity=0 time=0
note_on channel=0 note=53 velocity=0 time=0
note_on channel=0 note=72 velocity=50 time=0
note_on channel=0 note=58 velocity=30 time=0
note_on channel=0 note=63 velocity=36 time=0
control_change channel=0 control=64 value=127 time=99
note_on channel=0 note=63 velocity=0 time=0
note_on channel=0 note=72 velocity=0 time=0
note_on channel=0 note=70 velocity=44 time=0
note_on channel=0 note=62 velocity=32 time=0
control_change channel=0 control=64 value=0 time=13
control_change channel=0 control=64 value=127 time=114
note_on channel=0 note=62 velocity=0 time=113
note_on channel=0 note=70 velocity=0 time=0
note_on channel=0 note=58 velocity=0 time=0
control_change channel=0 control=64 value=0 time=141
note_on channel=0 note=69 velocity=38 time=0
note_on channel=0 note=74 velocity=46 time=0
note_on channel=0 note=66 velocity=38 time=0
control_change channel=0 control=64 value=127 time=3
note_on channel=0 note=66 velocity=0 time=45
note_on channel=0 note=74 velocity=0 time=0
note_on channel=0 note=69 velocity=0 time=0
note_on channel=0 note=70 velocity=34 time=0
note_on channel=0 note=73 velocity=41 time=0
note_on channel=0 note=67 velocity=33 time=0
note_on channel=0 note=67 velocity=0 time=53
note_on channel=0 note=73 velocity=0 time=0
note_on channel=0 note=70 velocity=0 time=0
note_on channel=0 note=69 velocity=42 time=0
note_on channel=0 note=74 velocity=50 time=0
note_on channel=0 note=66 velocity=42 time=0
note_on channel=0 note=66 velocity=0 time=38
note_on channel=0 note=74 velocity=0 time=0
note_on channel=0 note=69 velocity=0 time=0
note_on channel=0 note=70 velocity=34 time=0
note_on channel=0 note=73 velocity=40 time=0
note_on channel=0 note=67 velocity=38 time=0
note_on channel=0 note=67 velocity=0 time=43
note_on channel=0 note=73 velocity=0 time=0
note_on channel=0 note=70 velocity=0 time=0
note_on channel=0 note=69 velocity=45 time=0
note_on channel=0 note=74 velocity=54 time=0
note_on channel=0 note=66 velocity=45 time=0
control_change channel=0 control=64 value=0 time=7
control_change channel=0 control=64 value=127 time=16
note_on channel=0 note=66 velocity=0 time=29
note_on channel=0 note=74 velocity=0 time=0
note_on channel=0 note=69 velocity=0 time=0
note_on channel=0 note=70 velocity=40 time=0
note_on channel=0 note=73 velocity=49 time=0
note_on channel=0 note=67 velocity=39 time=0
note_on channel=0 note=67 velocity=0 time=33
note_on channel=0 note=73 velocity=0 time=0
note_on channel=0 note=70 velocity=0 time=0
note_on channel=0 note=69 velocity=49 time=0
note_on channel=0 note=74 velocity=57 time=0
note_on channel=0 note=66 velocity=49 time=0
note_on channel=0 note=66 velocity=0 time=19
note_on channel=0 note=74 velocity=0 time=0
note_on channel=0 note=69 velocity=0 time=0
note_on channel=0 note=70 velocity=39 time=0
note_on channel=0 note=73 velocity=47 time=0
note_on channel=0 note=67 velocity=45 time=0
note_on channel=0 note=67 velocity=0 time=5
note_on channel=0 note=73 velocity=0 time=0
note_on channel=0 note=70 velocity=0 time=0
note_on channel=0 note=69 velocity=52 time=0
note_on channel=0 note=74 velocity=62 time=0
note_on channel=0 note=66 velocity=52 time=0
control_change channel=0 control=64 value=0 time=22
control_change channel=0 control=64 value=127 time=49
note_on channel=0 note=66 velocity=0 time=49
note_on channel=0 note=74 velocity=0 time=0
note_on channel=0 note=69 velocity=0 time=0
note_on channel=0 note=70 velocity=47 time=0
note_on channel=0 note=73 velocity=56 time=0
note_on channel=0 note=67 velocity=45 time=0
note_on channel=0 note=67 velocity=0 time=110
note_on channel=0 note=73 velocity=0 time=0
note_on channel=0 note=70 velocity=0 time=0
note_on channel=0 note=69 velocity=55 time=0
note_on channel=0 note=74 velocity=66 time=0
note_on channel=0 note=66 velocity=55 time=0
note_on channel=0 note=66 velocity=0 time=0
note_on channel=0 note=74 velocity=0 time=0
note_on channel=0 note=69 velocity=0 time=0
note_on channel=0 note=70 velocity=46 time=0
note_on channel=0 note=73 velocity=54 time=0
note_on channel=0 note=67 velocity=52 time=0
note_on channel=0 note=67 velocity=0 time=5
note_on channel=0 note=73 velocity=0 time=0
note_on channel=0 note=70 velocity=0 time=0
note_on channel=0 note=69 velocity=59 time=0
note_on channel=0 note=74 velocity=71 time=0
note_on channel=0 note=66 velocity=59 time=0
control_change channel=0 control=64 value=0 time=16
control_change channel=0 control=64 value=127 time=59
note_on channel=0 note=66 velocity=0 time=9
note_on channel=0 note=74 velocity=0 time=0
note_on channel=0 note=69 velocity=0 time=0
note_on channel=0 note=70 velocity=53 time=0
note_on channel=0 note=73 velocity=64 time=0
note_on channel=0 note=67 velocity=52 time=0
note_on channel=0 note=67 velocity=0 time=14
note_on channel=0 note=73 velocity=0 time=0
note_on channel=0 note=70 velocity=0 time=0
note_on channel=0 note=69 velocity=63 time=0
note_on channel=0 note=74 velocity=75 time=0
note_on channel=0 note=66 velocity=63 time=0
note_on channel=0 note=66 velocity=0 time=0
note_on channel=0 note=74 velocity=0 time=0
note_on channel=0 note=69 velocity=0 time=0
note_on channel=0 note=70 velocity=52 time=0
note_on channel=0 note=73 velocity=62 time=0
note_on channel=0 note=67 velocity=58 time=0
note_on channel=0 note=67 velocity=0 time=0
note_on channel=0 note=73 velocity=0 time=0
note_on channel=0 note=70 velocity=0 time=0
note_on channel=0 note=69 velocity=83 time=0
note_on channel=0 note=74 velocity=83 time=0
note_on channel=0 note=66 velocity=70 time=0
control_change channel=0 control=64 value=0 time=0
note_on channel=0 note=66 velocity=0 time=240
note_on channel=0 note=74 velocity=0 time=0
note_on channel=0 note=69 velocity=0 time=0
note_on channel=0 note=86 velocity=100 time=240
note_on channel=0 note=78 velocity=84 time=0
note_on channel=0 note=50 velocity=62 time=0
note_on channel=0 note=62 velocity=74 time=0
control_change channel=0 control=64 value=127 time=106
note_on channel=0 note=62 velocity=0 time=614
note_on channel=0 note=86 velocity=0 time=0
note_on channel=0 note=78 velocity=0 time=0
note_on channel=0 note=50 velocity=0 time=0
note_on channel=0 note=84 velocity=75 time=0
note_on channel=0 note=78 velocity=63 time=0
note_on channel=0 note=50 velocity=46 time=0
note_on channel=0 note=62 velocity=56 time=0
control_change channel=0 control=64 value=0 time=16
note_on channel=0 note=62 velocity=0 time=104
note_on channel=0 note=84 velocity=0 time=0
note_on channel=0 note=78 velocity=0 time=0
note_on channel=0 note=50 velocity=0 time=0
note_on channel=0 note=82 velocity=91 time=0
note_on channel=0 note=79 velocity=77 time=0
note_on channel=0 note=51 velocity=57 time=0
note_on channel=0 note=63 velocity=68 time=0
control_change channel=0 control=64 value=127 time=60
note_on channel=0 note=63 velocity=0 time=180
note_on channel=0 note=82 velocity=0 time=0
note_on channel=0 note=79 velocity=0 time=0
note_on channel=0 note=51 velocity=0 time=0
control_change channel=0 control=64 value=0 time=0
note_on channel=0 note=81 velocity=73 time=0
note_on channel=0 note=75 velocity=61 time=0
note_on channel=0 note=48 velocity=45 time=0
note_on channel=0 note=60 velocity=53 time=0
note_on channel=0 note=60 velocity=0 time=60
note_on channel=0 note=81 velocity=0 time=0
note_on channel=0 note=75 velocity=0 time=0
note_on channel=0 note=48 velocity=0 time=0
note_on channel=0 note=70 velocity=72 time=0
note_on channel=0 note=79 velocity=85 time=0
note_on channel=0 note=50 velocity=53 time=0
note_on channel=0 note=62 velocity=63 time=0
control_change channel=0 control=64 value=127 time=50
note_on channel=0 note=62 velocity=0 time=190
note_on channel=0 note=70 velocity=0 time=0
note_on channel=0 note=79 velocity=0 time=0
note_on channel=0 note=50 velocity=0 time=0
control_change channel=0 control=64 value=0 time=53
note_on channel=0 note=72 velocity=69 time=187
note_on channel=0 note=78 velocity=81 time=0
note_on channel=0 note=38 velocity=51 time=0
note_on channel=0 note=50 velocity=61 time=0
note_on channel=0 note=50 velocity=0 time=0
note_on channel=0 note=72 velocity=0 time=0
note_on channel=0 note=78 velocity=0 time=0
note_on channel=0 note=38 velocity=0 time=0
note_on channel=0 note=72 velocity=69 time=0
note_on channel=0 note=81 velocity=82 time=0
note_on channel=0 note=43 velocity=51 time=0
note_on channel=0 note=55 velocity=61 time=0
control_change channel=0 control=64 value=127 time=141
note_on channel=0 note=81 velocity=0 time=339
note_on channel=0 note=72 velocity=0 time=0
note_on channel=0 note=70 velocity=61 time=0
note_on channel=0 note=79 velocity=72 time=0
control_change channel=0 control=64 value=0 time=17
note_on channel=0 note=79 velocity=0 time=223
note_on channel=0 note=55 velocity=0 time=0
note_on channel=0 note=43 velocity=0 time=0
note_on channel=0 note=70 velocity=0 time=0
note_on channel=0 note=56 velocity=25 time=24
note_on channel=0 note=58 velocity=30 time=0
note_on channel=0 note=50 velocity=25 time=0
control_change channel=0 control=64 value=127 time=65
note_on channel=0 note=59 velocity=27 time=48
note_on channel=0 note=51 velocity=22 time=0
note_on channel=0 note=50 velocity=0 time=1
note_on channel=0 note=56 velocity=0 time=0
note_on channel=0 note=58 velocity=0 time=0
note_on channel=0 note=56 velocity=27 time=14
note_on channel=0 note=58 velocity=33 time=0
note_on channel=0 note=50 velocity=27 time=0
note_on channel=0 note=59 velocity=0 time=1
note_on channel=0 note=51 velocity=0 time=0
note_on channel=0 note=59 velocity=26 time=57
note_on channel=0 note=51 velocity=24 time=0
note_on channel=0 note=58 velocity=0 time=1
note_on channel=0 note=50 velocity=0 time=0
note_on channel=0 note=56 velocity=0 time=0
note_on channel=0 note=56 velocity=28 time=5
note_on channel=0 note=58 velocity=34 time=0
note_on channel=0 note=50 velocity=28 time=0
note_on channel=0 note=59 velocity=0 time=1
note_on channel=0 note=51 velocity=0 time=0
control_change channel=0 control=64 value=0 time=7
control_change channel=0 control=64 value=127 time=41
note_on channel=0 note=59 velocity=30 time=48
note_on channel=0 note=51 velocity=24 time=0
note_on channel=0 note=58 velocity=0 time=1
note_on channel=0 note=50 velocity=0 time=0
note_on channel=0 note=56 velocity=0 time=0
note_on channel=0 note=56 velocity=30 time=91
note_on channel=0 note=58 velocity=36 time=0
note_on channel=0 note=50 velocity=30 time=0
note_on channel=0 note=59 velocity=0 time=1
note_on channel=0 note=51 velocity=0 time=0
note_on channel=0 note=59 velocity=29 time=38
note_on channel=0 note=51 velocity=28 time=0
note_on channel=0 note=58 velocity=0 time=1
note_on channel=0 note=50 velocity=0 time=0
note_on channel=0 note=56 velocity=0 time=0
note_on channel=0 note=56 velocity=33 time=5
note_on channel=0 note=58 velocity=39 time=0
note_on channel=0 note=50 velocity=33 time=0
note_on channel=0 note=59 velocity=0 time=1
note_on channel=0 note=51 velocity=0 time=0
control_change channel=0 control=64 value=0 time=8
control_change channel=0 control=64 value=127 time=50
note_on channel=0 note=59 velocity=36 time=48
note_on channel=0 note=51 velocity=29 time=0
note_on channel=0 note=58 velocity=0 time=1
note_on channel=0 note=50 velocity=0 time=0
note_on channel=0 note=56 velocity=0 time=0
note_on channel=0 note=56 velocity=36 time=53
note_on channel=0 note=58 velocity=42 time=0
note_on channel=0 note=50 velocity=36 time=0
note_on channel=0 note=59 velocity=0 time=1
note_on channel=0 note=51 velocity=0 time=0
note_on channel=0 note=59 velocity=34 time=0
note_on channel=0 note=51 velocity=33 time=0
note_on channel=0 note=58 velocity=0 time=1
note_on channel=0 note=50 velocity=0 time=0
note_on channel=0 note=56 velocity=0 time=0
note_on channel=0 note=56 velocity=38 time=5
note_on channel=0 note=58 velocity=45 time=0
note_on channel=0 note=50 velocity=38 time=0
note_on channel=0 note=59 velocity=0 time=1
note_on channel=0 note=51 velocity=0 time=0
control_change channel=0 control=64 value=0 time=18
control_change channel=0 control=64 value=127 time=19
note_on channel=0 note=59 velocity=41 time=9
note_on channel=0 note=51 velocity=33 time=0
note_on channel=0 note=58 velocity=0 time=1
note_on channel=0 note=50 velocity=0 time=0
note_on channel=0 note=56 velocity=0 time=0
note_on channel=0 note=56 velocity=40 time=14
note_on channel=0 note=58 velocity=49 time=0
note_on channel=0 note=50 velocity=40 time=0
note_on channel=0 note=59 velocity=0 time=1
note_on channel=0 note=51 velocity=0 time=0
note_on channel=0 note=59 velocity=40 time=0
note_on channel=0 note=51 velocity=38 time=0
note_on channel=0 note=58 velocity=0 time=1
note_on channel=0 note=50 velocity=0 time=0
note_on channel=0 note=56 velocity=0 time=0
note_on channel=0 note=56 velocity=65 time=0
note_on channel=0 note=58 velocity=65 time=0
note_on channel=0 note=50 velocity=54 time=0
control_change channel=0 control=64 value=0 time=0
note_on channel=0 note=59 velocity=0 time=1
note_on channel=0 note=51 velocity=0 time=0
note_on channel=0 note=58 velocity=0 time=239
note_on channel=0 note=56 velocity=0 time=0
note_on channel=0 note=50 velocity=0 time=0
note_on channel=0 note=80 velocity=85 time=240
note_on channel=0 note=71 velocity=72 time=0
note_on channel=0 note=50 velocity=53 time=0
note_on channel=0 note=53 velocity=64 time=0
control_change channel=0 control=64 value=127 time=106
note_on channel=0 note=53 velocity=0 time=614
note_on channel=0 note=80 velocity=0 time=0
note_on channel=0 note=71 velocity=0 time=0
note_on channel=0 note=50 velocity=0 time=0
note_on channel=0 note=79 velocity=59 time=0
note_on channel=0 note=72 velocity=49 time=0
note_on channel=0 note=51 velocity=36 time=0
note_on channel=0 note=55 velocity=43 time=0
control_change channel=0 control=64 value=0 time=16
note_on channel=0 note=55 velocity=0 time=0
note_on channel=0 note=79 velocity=0 time=0
note_on channel=0 note=72 velocity=0 time=0
note_on channel=0 note=51 velocity=0 time=0
note_on channel=0 note=77 velocity=70 time=0
note_on channel=0 note=68 velocity=58 time=0
note_on channel=0 note=47 velocity=43 time=0
note_on channel=0 note=50 velocity=51 time=0
control_change channel=0 control=64 value=127 time=60
note_on channel=0 note=50 velocity=0 time=0
note_on channel=0 note=77 velocity=0 time=0
note_on channel=0 note=68 velocity=0 time=0
note_on channel=0 note=47 velocity=0 time=0
note_on channel=0 note=75 velocity=53 time=0
note_on channel=0 note=67 velocity=45 time=0
note_on channel=0 note=48 velocity=32 time=0
note_on channel=0 note=51 velocity=39 time=0
control_change channel=0 control=64 value=0 time=7
note_on channel=0 note=51 velocity=0 time=0
note_on channel=0 note=75 velocity=0 time=0
note_on channel=0 note=67 velocity=0 time=0
note_on channel=0 note=48 velocity=0 time=0
note_on channel=0 note=65 velocity=52 time=0
note_on channel=0 note=74 velocity=61 time=0
note_on channel=0 note=50 velocity=38 time=0
note_on channel=0 note=53 velocity=45 time=0
control_change channel=0 control=64 value=127 time=113
note_on channel=0 note=53 velocity=0 time=367
note_on channel=0 note=65 velocity=0 time=0
note_on channel=0 note=74 velocity=0 time=0
note_on channel=0 note=50 velocity=0 time=0
note_on channel=0 note=63 velocity=46 time=0
note_on channel=0 note=72 velocity=54 time=0
note_on channel=0 note=51 velocity=34 time=0
note_on channel=0 note=55 velocity=41 time=0
control_change channel=0 control=64 value=0 time=60
note_on channel=0 note=55 velocity=0 time=0
note_on channel=0 note=63 velocity=0 time=0
note_on channel=0 note=72 velocity=0 time=0
note_on channel=0 note=51 velocity=0 time=0
note_on channel=0 note=62 velocity=40 time=0
note_on channel=0 note=70 velocity=48 time=0
note_on channel=0 note=53 velocity=36 time=0
control_change channel=0 control=64 value=127 time=141
note_on channel=0 note=53 velocity=0 time=339
note_on channel=0 note=70 velocity=0 time=0
note_on channel=0 note=62 velocity=0 time=0
note_on channel=0 note=60 velocity=36 time=0
note_on channel=0 note=69 velocity=42 time=0
note_on channel=0 note=41 velocity=30 time=0
control_change channel=0 control=64 value=0 time=17
note_on channel=0 note=41 velocity=0 time=223
note_on channel=0 note=69 velocity=0 time=0
note_on channel=0 note=60 velocity=0 time=0
note_on channel=0 note=62 velocity=50 time=0
note_on channel=0 note=62 velocity=0 time=0
note_on channel=0 note=63 velocity=46 time=0
note_on channel=0 note=63 velocity=0 time=0
note_on channel=0 note=65 velocity=50 time=0
note_on channel=0 note=46 velocity=40 time=0
control_change channel=0 control=64 value=127 time=57
note_on channel=0 note=46 velocity=0 time=63
note_on channel=0 note=58 velocity=29 time=120
note_on channel=0 note=58 velocity=0 time=240
note_on channel=0 note=62 velocity=34 time=0
control_change channel=0 control=64 value=0 time=11
control_change channel=0 control=64 value=127 time=49
note_on channel=0 note=62 velocity=0 time=180
note_on channel=0 note=58 velocity=29 time=0
note_on channel=0 note=65 velocity=0 time=210
note_on channel=0 note=69 velocity=46 time=0
note_on channel=0 note=69 velocity=0 time=30
note_on channel=0 note=58 velocity=0 time=0
note_on channel=0 note=67 velocity=50 time=0
note_on channel=0 note=63 velocity=34 time=0
control_change channel=0 control=64 value=0 time=15
note_on channel=0 note=67 velocity=0 time=105
note_on channel=0 note=65 velocity=45 time=0
note_on channel=0 note=65 velocity=0 time=0
note_on channel=0 note=63 velocity=0 time=0
note_on channel=0 note=67 velocity=50 time=0
note_on channel=0 note=60 velocity=31 time=0
note_on channel=0 note=67 velocity=0 time=120
note_on channel=0 note=69 velocity=43 time=0
note_on channel=0 note=69 velocity=0 time=0
note_on channel=0 note=60 velocity=0 time=0
note_on channel=0 note=70 velocity=50 time=0
note_on channel=0 note=62 velocity=40 time=0
note_on channel=0 note=62 velocity=0 time=240
note_on channel=0 note=61 velocity=30 time=0
note_on channel=0 note=61 velocity=0 time=240
note_on channel=0 note=70 velocity=0 time=0
note_on channel=0 note=65 velocity=41 time=0
note_on channel=0 note=62 velocity=34 time=0
control_change channel=0 control=64 value=127 time=60
note_on channel=0 note=62 velocity=0 time=180
note_on channel=0 note=58 velocity=30 time=0
note_on channel=0 note=65 velocity=0 time=180
note_on channel=0 note=69 velocity=43 time=30
note_on channel=0 note=69 velocity=0 time=0
note_on channel=0 note=58 velocity=0 time=0
note_on channel=0 note=67 velocity=50 time=0
note_on channel=0 note=63 velocity=34 time=0
control_change channel=0 control=64 value=0 time=19
note_on channel=0 note=67 velocity=0 time=101
note_on channel=0 note=65 velocity=46 time=0
note_on channel=0 note=65 velocity=0 time=0
note_on channel=0 note=63 velocity=0 time=0
note_on channel=0 note=67 velocity=50 time=0
note_on channel=0 note=60 velocity=29 time=0
note_on channel=0 note=67 velocity=0 time=120
note_on channel=0 note=69 velocity=50 time=0
note_on channel=0 note=69 velocity=0 time=0
note_on channel=0 note=60 velocity=0 time=0
note_on channel=0 note=70 velocity=50 time=0
note_on channel=0 note=62 velocity=40 time=0
note_on channel=0 note=70 velocity=0 time=60
note_on channel=0 note=62 velocity=0 time=180
note_on channel=0 note=61 velocity=30 time=0
note_on channel=0 note=69 velocity=46 time=120
note_on channel=0 note=69 velocity=0 time=60
note_on channel=0 note=61 velocity=0 time=60
note_on channel=0 note=70 velocity=56 time=0
note_on channel=0 note=62 velocity=34 time=0
note_on channel=0 note=70 velocity=0 time=60
note_on channel=0 note=62 velocity=0 time=180
note_on channel=0 note=57 velocity=30 time=0
note_on channel=0 note=72 velocity=48 time=120
note_on channel=0 note=72 velocity=0 time=60
note_on channel=0 note=57 velocity=0 time=60
note_on channel=0 note=74 velocity=55 time=0
note_on channel=0 note=58 velocity=34 time=0
note_on channel=0 note=74 velocity=0 time=60
note_on channel=0 note=58 velocity=0 time=180
note_on channel=0 note=55 velocity=30 time=0
note_on channel=0 note=76 velocity=59 time=0
note_on channel=0 note=76 velocity=0 time=60
note_on channel=0 note=55 velocity=0 time=50
note_on channel=0 note=70 velocity=53 time=0
note_on channel=0 note=76 velocity=63 time=0
note_on channel=0 note=53 velocity=40 time=0
control_change channel=0 control=64 value=127 time=0
note_on channel=0 note=76 velocity=0 time=480
note_on channel=0 note=70 velocity=0 time=0
note_on channel=0 note=69 velocity=48 time=0
note_on channel=0 note=77 velocity=57 time=0
note_on channel=0 note=65 velocity=35 time=0
control_change channel=0 control=64 value=0 time=16
note_on channel=0 note=65 velocity=0 time=224
note_on channel=0 note=53 velocity=0 time=0
note_on channel=0 note=69 velocity=0 time=0
note_on channel=0 note=77 velocity=0 time=0
note_on channel=0 note=77 velocity=43 time=210
note_on channel=0 note=77 velocity=0 time=0
note_on channel=0 note=75 velocity=50 time=0
note_on channel=0 note=75 velocity=0 time=120
note_on channel=0 note=74 velocity=46 time=0
note_on channel=0 note=74 velocity=0 time=120
note_on channel=0 note=75 velocity=54 time=0
note_on channel=0 note=75 velocity=0 time=120
note_on channel=0 note=77 velocity=51 time=0
note_on channel=0 note=77 velocity=0 time=120
note_on channel=0 note=79 velocity=59 time=0
control_change channel=0 control=64 value=127 time=57
note_on channel=0 note=41 velocity=37 time=63
note_on channel=0 note=41 velocity=0 time=120
note_on channel=0 note=45 velocity=38 time=0
note_on channel=0 note=45 velocity=0 time=120
note_on channel=0 note=48 velocity=39 time=0
note_on channel=0 note=48 velocity=0 time=120
note_on channel=0 note=79 velocity=0 time=0
note_on channel=0 note=72 velocity=50 time=0
note_on channel=0 note=53 velocity=40 time=0
note_on channel=0 note=53 velocity=0 time=120
note_on channel=0 note=57 velocity=41 time=0
note_on channel=0 note=57 velocity=0 time=120
note_on channel=0 note=60 velocity=42 time=0
note_on channel=0 note=60 velocity=0 time=0
note_on channel=0 note=62 velocity=43 time=0
note_on channel=0 note=72 velocity=0 time=60
note_on channel=0 note=74 velocity=43 time=30
note_on channel=0 note=74 velocity=0 time=0
note_on channel=0 note=62 velocity=0 time=0
note_on channel=0 note=72 velocity=50 time=0
note_on channel=0 note=63 velocity=48 time=0
control_change channel=0 control=64 value=0 time=6
note_on channel=0 note=72 velocity=0 time=114
note_on channel=0 note=71 velocity=46 time=0
note_on channel=0 note=71 velocity=0 time=120
note_on channel=0 note=72 velocity=54 time=0
note_on channel=0 note=72 velocity=0 time=120
note_on channel=0 note=74 velocity=51 time=0
note_on channel=0 note=74 velocity=0 time=120
note_on channel=0 note=75 velocity=59 time=0
control_change channel=0 control=64 value=127 time=53
note_on channel=0 note=63 velocity=0 time=67
note_on channel=0 note=41 velocity=37 time=0
note_on channel=0 note=41 velocity=0 time=120
note_on channel=0 note=45 velocity=41 time=0
note_on channel=0 note=45 velocity=0 time=120
note_on channel=0 note=48 velocity=43 time=0
note_on channel=0 note=48 velocity=0 time=120
note_on channel=0 note=75 velocity=0 time=0
note_on channel=0 note=69 velocity=50 time=0
note_on channel=0 note=53 velocity=44 time=0
note_on channel=0 note=53 velocity=0 time=120
note_on channel=0 note=57 velocity=46 time=0
note_on channel=0 note=57 velocity=0 time=120
note_on channel=0 note=60 velocity=48 time=0
note_on channel=0 note=60 velocity=0 time=0
note_on channel=0 note=63 velocity=49 time=0
note_on channel=0 note=69 velocity=0 time=60
note_on channel=0 note=70 velocity=43 time=30
note_on channel=0 note=70 velocity=0 time=0
note_on channel=0 note=63 velocity=0 time=0
note_on channel=0 note=69 velocity=50 time=0
note_on channel=0 note=66 velocity=55 time=0
control_change channel=0 control=64 value=0 time=14
note_on channel=0 note=69 velocity=0 time=106
note_on channel=0 note=67 velocity=46 time=0
note_on channel=0 note=67 velocity=0 time=120
note_on channel=0 note=69 velocity=52 time=0
note_on channel=0 note=69 velocity=0 time=0
note_on channel=0 note=70 velocity=48 time=0
note_on channel=0 note=70 velocity=0 time=80
note_on channel=0 note=74 velocity=43 time=10
note_on channel=0 note=74 velocity=0 time=0
note_on channel=0 note=72 velocity=53 time=0
note_on channel=0 note=72 velocity=0 time=120
note_on channel=0 note=71 velocity=50 time=0
note_on channel=0 note=71 velocity=0 time=120
note_on channel=0 note=72 velocity=54 time=0
note_on channel=0 note=72 velocity=0 time=0
note_on channel=0 note=74 velocity=51 time=0
note_on channel=0 note=74 velocity=0 time=80
note_on channel=0 note=77 velocity=43 time=10
note_on channel=0 note=77 velocity=0 time=0
note_on channel=0 note=66 velocity=0 time=0
note_on channel=0 note=75 velocity=57 time=0
note_on channel=0 note=65 velocity=38 time=0
note_on channel=0 note=53 velocity=38 time=0
note_on channel=0 note=75 velocity=0 time=120
note_on channel=0 note=74 velocity=52 time=0
note_on channel=0 note=74 velocity=0 time=120
note_on channel=0 note=75 velocity=58 time=0
note_on channel=0 note=75 velocity=0 time=120
note_on channel=0 note=77 velocity=55 time=0
note_on channel=0 note=77 velocity=0 time=120
note_on channel=0 note=53 velocity=0 time=0
note_on channel=0 note=65 velocity=0 time=0
note_on channel=0 note=79 velocity=61 time=0
note_on channel=0 note=53 velocity=32 time=0
note_on channel=0 note=63 velocity=32 time=0
note_on channel=0 note=79 velocity=0 time=120
note_on channel=0 note=75 velocity=59 time=0
note_on channel=0 note=75 velocity=0 time=0
note_on channel=0 note=72 velocity=52 time=0
note_on channel=0 note=72 velocity=0 time=0
note_on channel=0 note=69 velocity=42 time=0
note_on channel=0 note=69 velocity=0 time=0
note_on channel=0 note=63 velocity=0 time=0
note_on channel=0 note=53 velocity=0 time=0
note_on channel=0 note=70 velocity=50 time=0
note_on channel=0 note=46 velocity=40 time=0
control_change channel=0 control=64 value=127 time=57
note_on channel=0 note=46 velocity=0 time=63
note_on channel=0 note=58 velocity=29 time=120
note_on channel=0 note=58 velocity=0 time=240
note_on channel=0 note=70 velocity=0 time=0
note_on channel=0 note=62 velocity=34 time=0
control_change channel=0 control=64 value=0 time=11
control_change channel=0 control=64 value=127 time=49
note_on channel=0 note=62 velocity=0 time=180
note_on channel=0 note=58 velocity=29 time=0
note_on channel=0 note=81 velocity=46 time=210
note_on channel=0 note=81 velocity=0 time=30
note_on channel=0 note=58 velocity=0 time=0
note_on channel=0 note=79 velocity=50 time=0
note_on channel=0 note=63 velocity=34 time=0
control_change channel=0 control=64 value=0 time=15
note_on channel=0 note=79 velocity=0 time=105
note_on channel=0 note=78 velocity=45 time=0
note_on channel=0 note=78 velocity=0 time=0
note_on channel=0 note=63 velocity=0 time=0
note_on channel=0 note=79 velocity=50 time=0
note_on channel=0 note=58 velocity=31 time=0
note_on channel=0 note=79 velocity=0 time=120
note_on channel=0 note=81 velocity=43 time=0
note_on channel=0 note=81 velocity=0 time=0
note_on channel=0 note=58 velocity=0 time=0
note_on channel=0 note=82 velocity=50 time=0
note_on channel=0 note=62 velocity=40 time=0
note_on channel=0 note=62 velocity=0 time=240
note_on channel=0 note=61 velocity=30 time=0
note_on channel=0 note=61 velocity=0 time=240
note_on channel=0 note=82 velocity=0 time=0
note_on channel=0 note=77 velocity=41 time=0
note_on channel=0 note=62 velocity=34 time=0
control_change channel=0 control=64 value=127 time=60
note_on channel=0 note=62 velocity=0 time=180
note_on channel=0 note=58 velocity=30 time=0
note_on channel=0 note=77 velocity=0 time=180
note_on channel=0 note=69 velocity=43 time=30
note_on channel=0 note=69 velocity=0 time=30
note_on channel=0 note=58 velocity=0 time=0
note_on channel=0 note=75 velocity=41 time=0
note_on channel=0 note=67 velocity=50 time=0
note_on channel=0 note=60 velocity=34 time=0
control_change channel=0 control=64 value=0 time=19
note_on channel=0 note=67 velocity=0 time=101
note_on channel=0 note=65 velocity=46 time=0
note_on channel=0 note=65 velocity=0 time=0
note_on channel=0 note=60 velocity=0 time=0
note_on channel=0 note=67 velocity=50 time=0
note_on channel=0 note=53 velocity=29 time=0
note_on channel=0 note=67 velocity=0 time=120
note_on channel=0 note=69 velocity=46 time=0
note_on channel=0 note=69 velocity=0 time=0
note_on channel=0 note=53 velocity=0 time=0
note_on channel=0 note=75 velocity=0 time=0
note_on channel=0 note=74 velocity=44 time=0
note_on channel=0 note=70 velocity=50 time=0
note_on channel=0 note=58 velocity=40 time=0
note_on channel=0 note=58 velocity=0 time=240
note_on channel=0 note=46 velocity=30 time=0
note_on channel=0 note=46 velocity=0 time=240
note_on channel=0 note=70 velocity=0 time=0
note_on channel=0 note=74 velocity=0 time=0
note_on channel=0 note=65 velocity=41 time=0
note_on channel=0 note=50 velocity=34 time=0
control_change channel=0 control=64 value=127 time=60
note_on channel=0 note=50 velocity=0 time=180
note_on channel=0 note=65 velocity=0 time=0
note_on channel=0 note=46 velocity=30 time=0
note_on channel=0 note=69 velocity=43 time=210
note_on channel=0 note=69 velocity=0 time=30
note_on channel=0 note=46 velocity=0 time=0
note_on channel=0 note=67 velocity=50 time=0
note_on channel=0 note=51 velocity=34 time=0
control_change channel=0 control=64 value=0 time=19
note_on channel=0 note=67 velocity=0 time=101
note_on channel=0 note=66 velocity=46 time=0
note_on channel=0 note=66 velocity=0 time=0
note_on channel=0 note=51 velocity=0 time=0
note_on channel=0 note=67 velocity=50 time=0
note_on channel=0 note=46 velocity=29 time=0
note_on channel=0 note=67 velocity=0 time=120
note_on channel=0 note=69 velocity=46 time=0
note_on channel=0 note=69 velocity=0 time=0
note_on channel=0 note=46 velocity=0 time=0
note_on channel=0 note=70 velocity=50 time=0
note_on channel=0 note=50 velocity=40 time=0
note_on channel=0 note=50 velocity=0 time=240
note_on channel=0 note=49 velocity=30 time=0
note_on channel=0 note=49 velocity=0 time=240
note_on channel=0 note=70 velocity=0 time=0
note_on channel=0 note=65 velocity=41 time=0
note_on channel=0 note=50 velocity=34 time=0
control_change channel=0 control=64 value=127 time=60
note_on channel=0 note=50 velocity=0 time=180
note_on channel=0 note=46 velocity=30 time=0
note_on channel=0 note=65 velocity=0 time=180
note_on channel=0 note=57 velocity=36 time=30
note_on channel=0 note=57 velocity=0 time=30
note_on channel=0 note=46 velocity=0 time=0
note_on channel=0 note=63 velocity=34 time=0
note_on channel=0 note=55 velocity=42 time=0
note_on channel=0 note=48 velocity=34 time=0
control_change channel=0 control=64 value=0 time=19
note_on channel=0 note=55 velocity=0 time=101
note_on channel=0 note=53 velocity=39 time=0
note_on channel=0 note=53 velocity=0 time=0
note_on channel=0 note=48 velocity=0 time=0
note_on channel=0 note=55 velocity=42 time=0
note_on channel=0 note=41 velocity=29 time=0
note_on channel=0 note=55 velocity=0 time=120
note_on channel=0 note=57 velocity=39 time=0
note_on channel=0 note=57 velocity=0 time=120
note_on channel=0 note=41 velocity=0 time=0
note_on channel=0 note=63 velocity=0 time=0
note_on channel=0 note=62 velocity=34 time=0
note_on channel=0 note=58 velocity=42 time=0
note_on channel=0 note=46 velocity=40 time=0
control_change channel=0 control=64 value=127 time=96
note_on channel=0 note=46 velocity=0 time=144
note_on channel=0 note=58 velocity=0 time=0
note_on channel=0 note=53 velocity=33 time=0
note_on channel=0 note=50 velocity=30 time=0
control_change channel=0 control=64 value=0 time=187
note_on channel=0 note=53 velocity=0 time=13
note_on channel=0 note=57 velocity=37 time=0
note_on channel=0 note=57 velocity=0 time=30
note_on channel=0 note=50 velocity=0 time=0
note_on channel=0 note=62 velocity=0 time=0
note_on channel=0 note=63 velocity=39 time=0
note_on channel=0 note=55 velocity=43 time=0
note_on channel=0 note=48 velocity=35 time=0
note_on channel=0 note=55 velocity=0 time=120
note_on channel=0 note=53 velocity=40 time=0
note_on channel=0 note=53 velocity=0 time=0
note_on channel=0 note=48 velocity=0 time=0
note_on channel=0 note=55 velocity=44 time=0
note_on channel=0 note=41 velocity=31 time=0
note_on channel=0 note=55 velocity=0 time=120
note_on channel=0 note=57 velocity=40 time=0
note_on channel=0 note=57 velocity=0 time=120
note_on channel=0 note=41 velocity=0 time=0
note_on channel=0 note=63 velocity=0 time=0
note_on channel=0 note=62 velocity=36 time=0
note_on channel=0 note=58 velocity=44 time=0
note_on channel=0 note=46 velocity=36 time=0
control_change channel=0 control=64 value=127 time=92
note_on channel=0 note=46 velocity=0 time=148
note_on channel=0 note=58 velocity=0 time=0
note_on channel=0 note=53 velocity=34 time=0
note_on channel=0 note=50 velocity=31 time=0
note_on channel=0 note=53 velocity=0 time=180
control_change channel=0 control=64 value=0 time=0
note_on channel=0 note=57 velocity=39 time=0
note_on channel=0 note=57 velocity=0 time=30
note_on channel=0 note=50 velocity=0 time=0
note_on channel=0 note=62 velocity=0 time=0
note_on channel=0 note=63 velocity=44 time=0
note_on channel=0 note=55 velocity=46 time=0
note_on channel=0 note=48 velocity=44 time=0
note_on channel=0 note=55 velocity=0 time=120
note_on channel=0 note=53 velocity=43 time=0
note_on channel=0 note=53 velocity=0 time=0
note_on channel=0 note=48 velocity=0 time=0
note_on channel=0 note=55 velocity=47 time=0
note_on channel=0 note=41 velocity=33 time=0
note_on channel=0 note=55 velocity=0 time=120
note_on channel=0 note=57 velocity=44 time=0
note_on channel=0 note=57 velocity=0 time=0
note_on channel=0 note=41 velocity=0 time=0
note_on channel=0 note=63 velocity=0 time=0
note_on channel=0 note=62 velocity=42 time=0
note_on channel=0 note=58 velocity=48 time=0
note_on channel=0 note=46 velocity=45 time=0
control_change channel=0 control=64 value=127 time=81
note_on channel=0 note=46 velocity=0 time=39
note_on channel=0 note=58 velocity=0 time=0
note_on channel=0 note=53 velocity=41 time=0
note_on channel=0 note=50 velocity=37 time=0
note_on channel=0 note=50 velocity=0 time=120
note_on channel=0 note=53 velocity=0 time=0
note_on channel=0 note=62 velocity=0 time=0
note_on channel=0 note=63 velocity=40 time=0
note_on channel=0 note=57 velocity=50 time=0
note_on channel=0 note=41 velocity=46 time=0
control_change channel=0 control=64 value=0 time=13
control_change channel=0 control=64 value=127 time=51
note_on channel=0 note=41 velocity=0 time=56
note_on channel=0 note=57 velocity=0 time=0
note_on channel=0 note=53 velocity=43 time=0
note_on channel=0 note=48 velocity=39 time=0
note_on channel=0 note=48 velocity=0 time=120
note_on channel=0 note=53 velocity=0 time=0
note_on channel=0 note=63 velocity=0 time=0
note_on channel=0 note=62 velocity=49 time=0
note_on channel=0 note=58 velocity=51 time=0
note_on channel=0 note=46 velocity=47 time=0
control_change channel=0 control=64 value=0 time=15
control_change channel=0 control=64 value=127 time=45
note_on channel=0 note=46 velocity=0 time=60
note_on channel=0 note=58 velocity=0 time=0
note_on channel=0 note=53 velocity=46 time=0
note_on channel=0 note=50 velocity=41 time=0
note_on channel=0 note=50 velocity=0 time=120
note_on channel=0 note=53 velocity=0 time=0
note_on channel=0 note=62 velocity=0 time=0
note_on channel=0 note=63 velocity=42 time=0
note_on channel=0 note=57 velocity=52 time=0
note_on channel=0 note=41 velocity=49 time=0
control_change channel=0 control=64 value=0 time=7
control_change channel=0 control=64 value=127 time=53
note_on channel=0 note=41 velocity=0 time=0
note_on channel=0 note=57 velocity=0 time=0
note_on channel=0 note=53 velocity=47 time=0
note_on channel=0 note=48 velocity=43 time=0
note_on channel=0 note=48 velocity=0 time=0
note_on channel=0 note=53 velocity=0 time=0
note_on channel=0 note=63 velocity=0 time=0
note_on channel=0 note=58 velocity=34 time=0
note_on channel=0 note=62 velocity=40 time=0
note_on channel=0 note=46 velocity=24 time=0
note_on channel=0 note=50 velocity=30 time=0
control_change channel=0 control=64 value=0 time=0
note_on channel=0 note=50 velocity=0 time=120
note_on channel=0 note=58 velocity=0 time=0
note_on channel=0 note=62 velocity=0 time=0
note_on channel=0 note=46 velocity=0 time=0
note_on channel=0 note=62 velocity=34 time=360
note_on channel=0 note=70 velocity=40 time=0
note_on channel=0 note=34 velocity=24 time=0
note_on channel=0 note=46 velocity=30 time=0
note_on channel=0 note=46 velocity=0 time=120
note_on channel=0 note=62 velocity=0 time=0
note_on channel=0 note=70 velocity=0 time=0
note_on channel=0 note=34 velocity=0 time=0
note_on channel=0 note=69 velocity=38 time=0
note_on channel=0 note=74 velocity=46 time=0
note_on channel=0 note=66 velocity=38 time=0
control_change channel=0 control=64 value=127 time=3
note_on channel=0 note=66 velocity=0 time=45
note_on channel=0 note=74 velocity=0 time=0
note_on channel=0 note=69 velocity=0 time=0
note_on channel=0 note=70 velocity=34 time=0
note_on channel=0 note=73 velocity=41 time=0
note_on channel=0 note=67 velocity=33 time=0
note_on channel=0 note=67 velocity=0 time=53
note_on channel=0 note=73 velocity=0 time=0
note_on channel=0 note=70 velocity=0 time=0
note_on channel=0 note=69 velocity=42 time=0
note_on channel=0 note=74 velocity=50 time=0
note_on channel=0 note=66 velocity=42 time=0
note_on channel=0 note=66 velocity=0 time=38
note_on channel=0 note=74 velocity=0 time=0
note_on channel=0 note=69 velocity=0 time=0
note_on channel=0 note=70 velocity=34 time=0
note_on channel=0 note=73 velocity=40 time=0
note_on channel=0 note=67 velocity=38 time=0
note_on channel=0 note=67 velocity=0 time=18
note_on channel=0 note=73 velocity=0 time=0
note_on channel=0 note=70 velocity=0 time=0
note_on channel=0 note=69 velocity=45 time=0
note_on channel=0 note=74 velocity=53 time=0
note_on channel=0 note=66 velocity=45 time=0
control_change channel=0 control=64 value=0 time=7
control_change channel=0 control=64 value=127 time=11
note_on channel=0 note=66 velocity=0 time=23
note_on channel=0 note=74 velocity=0 time=0
note_on channel=0 note=69 velocity=0 time=0
note_on channel=0 note=70 velocity=40 time=0
note_on channel=0 note=73 velocity=49 time=0
note_on channel=0 note=67 velocity=39 time=0
note_on channel=0 note=67 velocity=0 time=9
note_on channel=0 note=73 velocity=0 time=0
note_on channel=0 note=70 velocity=0 time=0
note_on channel=0 note=69 velocity=48 time=0
note_on channel=0 note=74 velocity=57 time=0
note_on channel=0 note=66 velocity=48 time=0
note_on channel=0 note=66 velocity=0 time=33
note_on channel=0 note=74 velocity=0 time=0
note_on channel=0 note=69 velocity=0 time=0
note_on channel=0 note=70 velocity=39 time=0
note_on channel=0 note=73 velocity=47 time=0
note_on channel=0 note=67 velocity=45 time=0
note_on channel=0 note=67 velocity=0 time=5
note_on channel=0 note=73 velocity=0 time=0
note_on channel=0 note=70 velocity=0 time=0
note_on channel=0 note=69 velocity=52 time=0
note_on channel=0 note=74 velocity=62 time=0
note_on channel=0 note=66 velocity=52 time=0
control_change channel=0 control=64 value=0 time=22
control_change channel=0 control=64 value=127 time=49
note_on channel=0 note=66 velocity=0 time=49
note_on channel=0 note=74 velocity=0 time=0
note_on channel=0 note=69 velocity=0 time=0
note_on channel=0 note=70 velocity=47 time=0
note_on channel=0 note=73 velocity=56 time=0
note_on channel=0 note=67 velocity=45 time=0
note_on channel=0 note=67 velocity=0 time=110
note_on channel=0 note=73 velocity=0 time=0
note_on channel=0 note=70 velocity=0 time=0
note_on channel=0 note=69 velocity=55 time=0
note_on channel=0 note=74 velocity=66 time=0
note_on channel=0 note=66 velocity=55 time=0
note_on channel=0 note=66 velocity=0 time=0
note_on channel=0 note=74 velocity=0 time=0
note_on channel=0 note=69 velocity=0 time=0
note_on channel=0 note=70 velocity=46 time=0
note_on channel=0 note=73 velocity=54 time=0
note_on channel=0 note=67 velocity=52 time=0
note_on channel=0 note=67 velocity=0 time=5
note_on channel=0 note=73 velocity=0 time=0
note_on channel=0 note=70 velocity=0 time=0
note_on channel=0 note=69 velocity=59 time=0
note_on channel=0 note=74 velocity=71 time=0
note_on channel=0 note=66 velocity=59 time=0
control_change channel=0 control=64 value=0 time=16
control_change channel=0 control=64 value=127 time=59
note_on channel=0 note=66 velocity=0 time=9
note_on channel=0 note=74 velocity=0 time=0
note_on channel=0 note=69 velocity=0 time=0
note_on channel=0 note=70 velocity=53 time=0
note_on channel=0 note=73 velocity=63 time=0
note_on channel=0 note=67 velocity=51 time=0
note_on channel=0 note=67 velocity=0 time=14
note_on channel=0 note=73 velocity=0 time=0
note_on channel=0 note=70 velocity=0 time=0
note_on channel=0 note=69 velocity=63 time=0
note_on channel=0 note=74 velocity=75 time=0
note_on channel=0 note=66 velocity=63 time=0
note_on channel=0 note=66 velocity=0 time=0
note_on channel=0 note=74 velocity=0 time=0
note_on channel=0 note=69 velocity=0 time=0
note_on channel=0 note=70 velocity=52 time=0
note_on channel=0 note=73 velocity=61 time=0
note_on channel=0 note=67 velocity=58 time=0
note_on channel=0 note=67 velocity=0 time=0
note_on channel=0 note=73 velocity=0 time=0
note_on channel=0 note=70 velocity=0 time=0
note_on channel=0 note=69 velocity=83 time=0
note_on channel=0 note=74 velocity=83 time=0
note_on channel=0 note=66 velocity=70 time=0
control_change channel=0 control=64 value=0 time=0
note_on channel=0 note=66 velocity=0 time=240
note_on channel=0 note=74 velocity=0 time=0
note_on channel=0 note=69 velocity=0 time=0
note_on channel=0 note=86 velocity=100 time=240
note_on channel=0 note=78 velocity=84 time=0
note_on channel=0 note=50 velocity=62 time=0
note_on channel=0 note=62 velocity=74 time=0
control_change channel=0 control=64 value=127 time=106
note_on channel=0 note=62 velocity=0 time=614
note_on channel=0 note=86 velocity=0 time=0
note_on channel=0 note=78 velocity=0 time=0
note_on channel=0 note=50 velocity=0 time=0
note_on channel=0 note=84 velocity=75 time=0
note_on channel=0 note=78 velocity=63 time=0
note_on channel=0 note=50 velocity=46 time=0
note_on channel=0 note=62 velocity=56 time=0
control_change channel=0 control=64 value=0 time=16
note_on channel=0 note=62 velocity=0 time=104
note_on channel=0 note=84 velocity=0 time=0
note_on channel=0 note=78 velocity=0 time=0
note_on channel=0 note=50 velocity=0 time=0
note_on channel=0 note=82 velocity=91 time=0
note_on channel=0 note=79 velocity=77 time=0
note_on channel=0 note=51 velocity=57 time=0
note_on channel=0 note=63 velocity=68 time=0
control_change channel=0 control=64 value=127 time=60
note_on channel=0 note=63 velocity=0 time=180
note_on channel=0 note=82 velocity=0 time=0
note_on channel=0 note=79 velocity=0 time=0
note_on channel=0 note=51 velocity=0 time=0
control_change channel=0 control=64 value=0 time=0
note_on channel=0 note=81 velocity=73 time=0
note_on channel=0 note=75 velocity=61 time=0
note_on channel=0 note=48 velocity=45 time=0
note_on channel=0 note=60 velocity=53 time=0
note_on channel=0 note=60 velocity=0 time=60
note_on channel=0 note=81 velocity=0 time=0
note_on channel=0 note=75 velocity=0 time=0
note_on channel=0 note=48 velocity=0 time=0
note_on channel=0 note=70 velocity=72 time=0
note_on channel=0 note=79 velocity=85 time=0
note_on channel=0 note=50 velocity=53 time=0
note_on channel=0 note=62 velocity=63 time=0
control_change channel=0 control=64 value=127 time=50
note_on channel=0 note=62 velocity=0 time=190
note_on channel=0 note=70 velocity=0 time=0
note_on channel=0 note=79 velocity=0 time=0
note_on channel=0 note=50 velocity=0 time=0
control_change channel=0 control=64 value=0 time=53
note_on channel=0 note=72 velocity=69 time=187
note_on channel=0 note=78 velocity=81 time=0
note_on channel=0 note=38 velocity=51 time=0
note_on channel=0 note=50 velocity=61 time=0
note_on channel=0 note=50 velocity=0 time=0
note_on channel=0 note=72 velocity=0 time=0
note_on channel=0 note=78 velocity=0 time=0
note_on channel=0 note=38 velocity=0 time=0
note_on channel=0 note=72 velocity=69 time=0
note_on channel=0 note=81 velocity=82 time=0
note_on channel=0 note=43 velocity=51 time=0
note_on channel=0 note=55 velocity=61 time=0
control_change channel=0 control=64 value=127 time=141
note_on channel=0 note=81 velocity=0 time=339
note_on channel=0 note=72 velocity=0 time=0
note_on channel=0 note=70 velocity=61 time=0
note_on channel=0 note=79 velocity=72 time=0
control_change channel=0 control=64 value=0 time=17
note_on channel=0 note=79 velocity=0 time=223
note_on channel=0 note=55 velocity=0 time=0
note_on channel=0 note=43 velocity=0 time=0
note_on channel=0 note=70 velocity=0 time=0
note_on channel=0 note=56 velocity=25 time=18
note_on channel=0 note=58 velocity=30 time=0
note_on channel=0 note=50 velocity=25 time=0
control_change channel=0 control=64 value=127 time=26
note_on channel=0 note=59 velocity=27 time=4
note_on channel=0 note=51 velocity=22 time=0
note_on channel=0 note=50 velocity=0 time=1
note_on channel=0 note=56 velocity=0 time=0
note_on channel=0 note=58 velocity=0 time=0
note_on channel=0 note=56 velocity=27 time=9
note_on channel=0 note=58 velocity=33 time=0
note_on channel=0 note=50 velocity=27 time=0
note_on channel=0 note=59 velocity=0 time=1
note_on channel=0 note=51 velocity=0 time=0
note_on channel=0 note=59 velocity=27 time=13
note_on channel=0 note=51 velocity=24 time=0
note_on channel=0 note=58 velocity=0 time=1
note_on channel=0 note=50 velocity=0 time=0
note_on channel=0 note=56 velocity=0 time=0
note_on channel=0 note=56 velocity=29 time=5
note_on channel=0 note=58 velocity=35 time=0
note_on channel=0 note=50 velocity=29 time=0
note_on channel=0 note=59 velocity=0 time=1
note_on channel=0 note=51 velocity=0 time=0
control_change channel=0 control=64 value=0 time=7
control_change channel=0 control=64 value=127 time=41
note_on channel=0 note=59 velocity=32 time=48
note_on channel=0 note=51 velocity=25 time=0
note_on channel=0 note=58 velocity=0 time=1
note_on channel=0 note=50 velocity=0 time=0
note_on channel=0 note=56 velocity=0 time=0
note_on channel=0 note=56 velocity=32 time=91
note_on channel=0 note=58 velocity=37 time=0
note_on channel=0 note=50 velocity=32 time=0
note_on channel=0 note=59 velocity=0 time=1
note_on channel=0 note=51 velocity=0 time=0
note_on channel=0 note=59 velocity=30 time=38
note_on channel=0 note=51 velocity=29 time=0
note_on channel=0 note=58 velocity=0 time=1
note_on channel=0 note=50 velocity=0 time=0
note_on channel=0 note=56 velocity=0 time=0
note_on channel=0 note=56 velocity=34 time=5
note_on channel=0 note=58 velocity=41 time=0
note_on channel=0 note=50 velocity=34 time=0
note_on channel=0 note=59 velocity=0 time=1
note_on channel=0 note=51 velocity=0 time=0
control_change channel=0 control=64 value=0 time=8
control_change channel=0 control=64 value=127 time=50
note_on channel=0 note=59 velocity=38 time=48
note_on channel=0 note=51 velocity=30 time=0
note_on channel=0 note=58 velocity=0 time=1
note_on channel=0 note=50 velocity=0 time=0
note_on channel=0 note=56 velocity=0 time=0
note_on channel=0 note=56 velocity=37 time=53
note_on channel=0 note=58 velocity=44 time=0
note_on channel=0 note=50 velocity=37 time=0
note_on channel=0 note=59 velocity=0 time=1
note_on channel=0 note=51 velocity=0 time=0
note_on channel=0 note=59 velocity=35 time=0
note_on channel=0 note=51 velocity=34 time=0
note_on channel=0 note=58 velocity=0 time=1
note_on channel=0 note=50 velocity=0 time=0
note_on channel=0 note=56 velocity=0 time=0
note_on channel=0 note=56 velocity=39 time=5
note_on channel=0 note=58 velocity=46 time=0
note_on channel=0 note=50 velocity=39 time=0
note_on channel=0 note=59 velocity=0 time=1
note_on channel=0 note=51 velocity=0 time=0
control_change channel=0 control=64 value=0 time=18
control_change channel=0 control=64 value=127 time=19
note_on channel=0 note=59 velocity=42 time=9
note_on channel=0 note=51 velocity=34 time=0
note_on channel=0 note=58 velocity=0 time=1
note_on channel=0 note=50 velocity=0 time=0
note_on channel=0 note=56 velocity=0 time=0
note_on channel=0 note=56 velocity=42 time=14
note_on channel=0 note=58 velocity=50 time=0
note_on channel=0 note=50 velocity=42 time=0
note_on channel=0 note=59 velocity=0 time=1
note_on channel=0 note=51 velocity=0 time=0
note_on channel=0 note=59 velocity=41 time=0
note_on channel=0 note=51 velocity=38 time=0
note_on channel=0 note=58 velocity=0 time=1
note_on channel=0 note=50 velocity=0 time=0
note_on channel=0 note=56 velocity=0 time=0
note_on channel=0 note=56 velocity=65 time=0
note_on channel=0 note=58 velocity=65 time=0
note_on channel=0 note=50 velocity=54 time=0
control_change channel=0 control=64 value=0 time=0
note_on channel=0 note=59 velocity=0 time=1
note_on channel=0 note=51 velocity=0 time=0
note_on channel=0 note=58 velocity=0 time=239
note_on channel=0 note=56 velocity=0 time=0
note_on channel=0 note=50 velocity=0 time=0
note_on channel=0 note=80 velocity=85 time=240
note_on channel=0 note=71 velocity=72 time=0
note_on channel=0 note=50 velocity=53 time=0
note_on channel=0 note=53 velocity=64 time=0
control_change channel=0 control=64 value=127 time=106
note_on channel=0 note=53 velocity=0 time=614
note_on channel=0 note=80 velocity=0 time=0
note_on channel=0 note=71 velocity=0 time=0
note_on channel=0 note=50 velocity=0 time=0
note_on channel=0 note=79 velocity=59 time=0
note_on channel=0 note=72 velocity=49 time=0
note_on channel=0 note=51 velocity=36 time=0
note_on channel=0 note=55 velocity=43 time=0
control_change channel=0 control=64 value=0 time=16
note_on channel=0 note=55 velocity=0 time=0
note_on channel=0 note=79 velocity=0 time=0
note_on channel=0 note=72 velocity=0 time=0
note_on channel=0 note=51 velocity=0 time=0
note_on channel=0 note=77 velocity=70 time=0
note_on channel=0 note=68 velocity=58 time=0
note_on channel=0 note=47 velocity=43 time=0
note_on channel=0 note=50 velocity=51 time=0
control_change channel=0 control=64 value=127 time=60
note_on channel=0 note=50 velocity=0 time=0
note_on channel=0 note=77 velocity=0 time=0
note_on channel=0 note=68 velocity=0 time=0
note_on channel=0 note=47 velocity=0 time=0
note_on channel=0 note=75 velocity=53 time=0
note_on channel=0 note=67 velocity=45 time=0
note_on channel=0 note=48 velocity=32 time=0
note_on channel=0 note=51 velocity=39 time=0
control_change channel=0 control=64 value=0 time=7
note_on channel=0 note=51 velocity=0 time=0
note_on channel=0 note=75 velocity=0 time=0
note_on channel=0 note=67 velocity=0 time=0
note_on channel=0 note=48 velocity=0 time=0
note_on channel=0 note=65 velocity=52 time=0
note_on channel=0 note=74 velocity=61 time=0
note_on channel=0 note=50 velocity=38 time=0
note_on channel=0 note=53 velocity=45 time=0
control_change channel=0 control=64 value=127 time=113
note_on channel=0 note=53 velocity=0 time=367
note_on channel=0 note=65 velocity=0 time=0
note_on channel=0 note=74 velocity=0 time=0
note_on channel=0 note=50 velocity=0 time=0
note_on channel=0 note=63 velocity=46 time=0
note_on channel=0 note=72 velocity=54 time=0
note_on channel=0 note=51 velocity=34 time=0
note_on channel=0 note=55 velocity=41 time=0
control_change channel=0 control=64 value=0 time=60
note_on channel=0 note=55 velocity=0 time=0
note_on channel=0 note=63 velocity=0 time=0
note_on channel=0 note=72 velocity=0 time=0
note_on channel=0 note=51 velocity=0 time=0
note_on channel=0 note=62 velocity=40 time=0
note_on channel=0 note=70 velocity=48 time=0
note_on channel=0 note=53 velocity=36 time=0
control_change channel=0 control=64 value=127 time=141
note_on channel=0 note=53 velocity=0 time=339
note_on channel=0 note=70 velocity=0 time=0
note_on channel=0 note=62 velocity=0 time=0
note_on channel=0 note=60 velocity=36 time=0
note_on channel=0 note=69 velocity=42 time=0
note_on channel=0 note=41 velocity=30 time=0
control_change channel=0 control=64 value=0 time=17
note_on channel=0 note=41 velocity=0 time=223
note_on channel=0 note=69 velocity=0 time=0
note_on channel=0 note=60 velocity=0 time=0
note_on channel=0 note=62 velocity=50 time=0
note_on channel=0 note=62 velocity=0 time=0
note_on channel=0 note=63 velocity=46 time=0
note_on channel=0 note=63 velocity=0 time=0
note_on channel=0 note=65 velocity=50 time=0
note_on channel=0 note=46 velocity=40 time=0
control_change channel=0 control=64 value=127 time=57
note_on channel=0 note=46 velocity=0 time=63
note_on channel=0 note=58 velocity=29 time=120
note_on channel=0 note=58 velocity=0 time=240
note_on channel=0 note=62 velocity=34 time=0
control_change channel=0 control=64 value=0 time=11
control_change channel=0 control=64 value=127 time=49
note_on channel=0 note=62 velocity=0 time=180
note_on channel=0 note=58 velocity=29 time=0
note_on channel=0 note=65 velocity=0 time=210
note_on channel=0 note=69 velocity=46 time=0
note_on channel=0 note=69 velocity=0 time=0
note_on channel=0 note=58 velocity=0 time=0
note_on channel=0 note=67 velocity=50 time=0
note_on channel=0 note=63 velocity=34 time=0
control_change channel=0 control=64 value=0 time=15
note_on channel=0 note=67 velocity=0 time=105
note_on channel=0 note=65 velocity=45 time=0
note_on channel=0 note=65 velocity=0 time=0
note_on channel=0 note=63 velocity=0 time=0
note_on channel=0 note=67 velocity=50 time=0
note_on channel=0 note=60 velocity=31 time=0
note_on channel=0 note=67 velocity=0 time=120
note_on channel=0 note=69 velocity=43 time=0
note_on channel=0 note=69 velocity=0 time=0
note_on channel=0 note=60 velocity=0 time=0
note_on channel=0 note=70 velocity=50 time=0
note_on channel=0 note=62 velocity=40 time=0
note_on channel=0 note=62 velocity=0 time=240
note_on channel=0 note=61 velocity=30 time=0
note_on channel=0 note=61 velocity=0 time=240
note_on channel=0 note=70 velocity=0 time=0
note_on channel=0 note=65 velocity=41 time=0
note_on channel=0 note=62 velocity=34 time=0
control_change channel=0 control=64 value=127 time=60
note_on channel=0 note=62 velocity=0 time=180
note_on channel=0 note=58 velocity=30 time=0
note_on channel=0 note=65 velocity=0 time=180
note_on channel=0 note=69 velocity=43 time=30
note_on channel=0 note=69 velocity=0 time=0
note_on channel=0 note=58 velocity=0 time=0
note_on channel=0 note=67 velocity=50 time=0
note_on channel=0 note=63 velocity=34 time=0
control_change channel=0 control=64 value=0 time=19
note_on channel=0 note=67 velocity=0 time=101
note_on channel=0 note=65 velocity=46 time=0
note_on channel=0 note=65 velocity=0 time=0
note_on channel=0 note=63 velocity=0 time=0
note_on channel=0 note=67 velocity=50 time=0
note_on channel=0 note=60 velocity=29 time=0
note_on channel=0 note=67 velocity=0 time=120
note_on channel=0 note=69 velocity=50 time=0
note_on channel=0 note=69 velocity=0 time=0
note_on channel=0 note=60 velocity=0 time=0
note_on channel=0 note=70 velocity=50 time=0
note_on channel=0 note=62 velocity=40 time=0
note_on channel=0 note=70 velocity=0 time=60
note_on channel=0 note=62 velocity=0 time=180
note_on channel=0 note=61 velocity=30 time=0
note_on channel=0 note=69 velocity=46 time=120
note_on channel=0 note=69 velocity=0 time=60
note_on channel=0 note=61 velocity=0 time=60
note_on channel=0 note=70 velocity=56 time=0
note_on channel=0 note=62 velocity=34 time=0
note_on channel=0 note=70 velocity=0 time=60
note_on channel=0 note=62 velocity=0 time=180
note_on channel=0 note=57 velocity=30 time=0
note_on channel=0 note=72 velocity=48 time=120
note_on channel=0 note=72 velocity=0 time=60
note_on channel=0 note=57 velocity=0 time=60
note_on channel=0 note=74 velocity=55 time=0
note_on channel=0 note=58 velocity=34 time=0
note_on channel=0 note=74 velocity=0 time=60
note_on channel=0 note=58 velocity=0 time=180
note_on channel=0 note=55 velocity=30 time=0
note_on channel=0 note=76 velocity=59 time=0
note_on channel=0 note=76 velocity=0 time=60
note_on channel=0 note=55 velocity=0 time=50
note_on channel=0 note=70 velocity=53 time=0
note_on channel=0 note=76 velocity=63 time=0
note_on channel=0 note=53 velocity=40 time=0
control_change channel=0 control=64 value=127 time=0
note_on channel=0 note=76 velocity=0 time=480
note_on channel=0 note=70 velocity=0 time=0
note_on channel=0 note=69 velocity=48 time=0
note_on channel=0 note=77 velocity=57 time=0
note_on channel=0 note=65 velocity=35 time=0
control_change channel=0 control=64 value=0 time=16
note_on channel=0 note=65 velocity=0 time=224
note_on channel=0 note=53 velocity=0 time=0
note_on channel=0 note=69 velocity=0 time=0
note_on channel=0 note=77 velocity=0 time=0
note_on channel=0 note=77 velocity=43 time=210
note_on channel=0 note=77 velocity=0 time=0
note_on channel=0 note=75 velocity=50 time=0
note_on channel=0 note=75 velocity=0 time=120
note_on channel=0 note=74 velocity=46 time=0
note_on channel=0 note=74 velocity=0 time=120
note_on channel=0 note=75 velocity=54 time=0
note_on channel=0 note=75 velocity=0 time=120
note_on channel=0 note=77 velocity=51 time=0
note_on channel=0 note=77 velocity=0 time=120
note_on channel=0 note=79 velocity=59 time=0
control_change channel=0 control=64 value=127 time=57
note_on channel=0 note=41 velocity=37 time=63
note_on channel=0 note=41 velocity=0 time=120
note_on channel=0 note=45 velocity=38 time=0
note_on channel=0 note=45 velocity=0 time=120
note_on channel=0 note=48 velocity=39 time=0
note_on channel=0 note=48 velocity=0 time=0
note_on channel=0 note=79 velocity=0 time=0
note_on channel=0 note=72 velocity=50 time=0
note_on channel=0 note=53 velocity=40 time=0
note_on channel=0 note=53 velocity=0 time=120
note_on channel=0 note=57 velocity=41 time=0
note_on channel=0 note=57 velocity=0 time=120
note_on channel=0 note=60 velocity=42 time=0
note_on channel=0 note=60 velocity=0 time=0
note_on channel=0 note=62 velocity=43 time=0
note_on channel=0 note=72 velocity=0 time=60
note_on channel=0 note=74 velocity=43 time=30
note_on channel=0 note=74 velocity=0 time=0
note_on channel=0 note=62 velocity=0 time=0
note_on channel=0 note=72 velocity=50 time=0
note_on channel=0 note=63 velocity=48 time=0
control_change channel=0 control=64 value=0 time=6
note_on channel=0 note=72 velocity=0 time=114
note_on channel=0 note=71 velocity=46 time=0
note_on channel=0 note=71 velocity=0 time=120
note_on channel=0 note=72 velocity=54 time=0
note_on channel=0 note=72 velocity=0 time=120
note_on channel=0 note=74 velocity=51 time=0
note_on channel=0 note=74 velocity=0 time=120
note_on channel=0 note=75 velocity=59 time=0
control_change channel=0 control=64 value=127 time=53
note_on channel=0 note=63 velocity=0 time=67
note_on channel=0 note=41 velocity=37 time=0
note_on channel=0 note=41 velocity=0 time=120
note_on channel=0 note=45 velocity=41 time=0
note_on channel=0 note=45 velocity=0 time=120
note_on channel=0 note=48 velocity=43 time=0
note_on channel=0 note=48 velocity=0 time=0
note_on channel=0 note=75 velocity=0 time=0
note_on channel=0 note=69 velocity=50 time=0
note_on channel=0 note=53 velocity=44 time=0
note_on channel=0 note=53 velocity=0 time=120
note_on channel=0 note=57 velocity=46 time=0
note_on channel=0 note=57 velocity=0 time=120
note_on channel=0 note=60 velocity=48 time=0
note_on channel=0 note=60 velocity=0 time=0
note_on channel=0 note=63 velocity=49 time=0
note_on channel=0 note=69 velocity=0 time=60
note_on channel=0 note=70 velocity=43 time=30
note_on channel=0 note=70 velocity=0 time=0
note_on channel=0 note=63 velocity=0 time=0
note_on channel=0 note=69 velocity=50 time=0
note_on channel=0 note=66 velocity=55 time=0
control_change channel=0 control=64 value=0 time=14
note_on channel=0 note=69 velocity=0 time=106
note_on channel=0 note=67 velocity=46 time=0
note_on channel=0 note=67 velocity=0 time=120
note_on channel=0 note=69 velocity=52 time=0
note_on channel=0 note=69 velocity=0 time=0
note_on channel=0 note=70 velocity=48 time=0
note_on channel=0 note=70 velocity=0 time=80
note_on channel=0 note=74 velocity=43 time=10
note_on channel=0 note=74 velocity=0 time=0
note_on channel=0 note=72 velocity=53 time=0
note_on channel=0 note=72 velocity=0 time=120
note_on channel=0 note=71 velocity=50 time=0
note_on channel=0 note=71 velocity=0 time=120
note_on channel=0 note=72 velocity=54 time=0
note_on channel=0 note=72 velocity=0 time=0
note_on channel=0 note=74 velocity=51 time=0
note_on channel=0 note=74 velocity=0 time=80
note_on channel=0 note=77 velocity=43 time=10
note_on channel=0 note=77 velocity=0 time=0
note_on channel=0 note=66 velocity=0 time=0
note_on channel=0 note=75 velocity=57 time=0
note_on channel=0 note=65 velocity=38 time=0
note_on channel=0 note=53 velocity=38 time=0
note_on channel=0 note=75 velocity=0 time=120
note_on channel=0 note=74 velocity=52 time=0
note_on channel=0 note=74 velocity=0 time=120
note_on channel=0 note=75 velocity=58 time=0
note_on channel=0 note=75 velocity=0 time=120
note_on channel=0 note=77 velocity=55 time=0
note_on channel=0 note=77 velocity=0 time=120
note_on channel=0 note=53 velocity=0 time=0
note_on channel=0 note=65 velocity=0 time=0
note_on channel=0 note=79 velocity=61 time=0
note_on channel=0 note=53 velocity=32 time=0
note_on channel=0 note=63 velocity=32 time=0
note_on channel=0 note=79 velocity=0 time=120
note_on channel=0 note=75 velocity=59 time=0
note_on channel=0 note=75 velocity=0 time=0
note_on channel=0 note=72 velocity=52 time=0
note_on channel=0 note=72 velocity=0 time=0
note_on channel=0 note=69 velocity=42 time=0
note_on channel=0 note=69 velocity=0 time=0
note_on channel=0 note=63 velocity=0 time=0
note_on channel=0 note=53 velocity=0 time=0
note_on channel=0 note=70 velocity=50 time=0
note_on channel=0 note=46 velocity=40 time=0
control_change channel=0 control=64 value=127 time=57
note_on channel=0 note=46 velocity=0 time=63
note_on channel=0 note=58 velocity=29 time=120
note_on channel=0 note=58 velocity=0 time=240
note_on channel=0 note=70 velocity=0 time=0
note_on channel=0 note=62 velocity=34 time=0
control_change channel=0 control=64 value=0 time=11
control_change channel=0 control=64 value=127 time=49
note_on channel=0 note=62 velocity=0 time=180
note_on channel=0 note=58 velocity=29 time=0
note_on channel=0 note=81 velocity=46 time=210
note_on channel=0 note=81 velocity=0 time=30
note_on channel=0 note=58 velocity=0 time=0
note_on channel=0 note=79 velocity=50 time=0
note_on channel=0 note=63 velocity=34 time=0
control_change channel=0 control=64 value=0 time=15
note_on channel=0 note=79 velocity=0 time=105
note_on channel=0 note=78 velocity=45 time=0
note_on channel=0 note=78 velocity=0 time=0
note_on channel=0 note=63 velocity=0 time=0
note_on channel=0 note=79 velocity=50 time=0
note_on channel=0 note=58 velocity=31 time=0
note_on channel=0 note=79 velocity=0 time=120
note_on channel=0 note=81 velocity=43 time=0
note_on channel=0 note=81 velocity=0 time=0
note_on channel=0 note=58 velocity=0 time=0
note_on channel=0 note=82 velocity=50 time=0
note_on channel=0 note=62 velocity=40 time=0
note_on channel=0 note=62 velocity=0 time=240
note_on channel=0 note=61 velocity=30 time=0
note_on channel=0 note=61 velocity=0 time=240
note_on channel=0 note=82 velocity=0 time=0
note_on channel=0 note=77 velocity=41 time=0
note_on channel=0 note=62 velocity=34 time=0
control_change channel=0 control=64 value=127 time=60
note_on channel=0 note=62 velocity=0 time=180
note_on channel=0 note=58 velocity=30 time=0
note_on channel=0 note=77 velocity=0 time=180
note_on channel=0 note=69 velocity=43 time=30
note_on channel=0 note=69 velocity=0 time=30
note_on channel=0 note=58 velocity=0 time=0
note_on channel=0 note=75 velocity=41 time=0
note_on channel=0 note=67 velocity=50 time=0
note_on channel=0 note=60 velocity=34 time=0
control_change channel=0 control=64 value=0 time=19
note_on channel=0 note=67 velocity=0 time=101
note_on channel=0 note=65 velocity=46 time=0
note_on channel=0 note=65 velocity=0 time=0
note_on channel=0 note=60 velocity=0 time=0
note_on channel=0 note=67 velocity=50 time=0
note_on channel=0 note=53 velocity=29 time=0
note_on channel=0 note=67 velocity=0 time=120
note_on channel=0 note=69 velocity=46 time=0
note_on channel=0 note=69 velocity=0 time=0
note_on channel=0 note=53 velocity=0 time=0
note_on channel=0 note=75 velocity=0 time=0
note_on channel=0 note=74 velocity=44 time=0
note_on channel=0 note=70 velocity=50 time=0
note_on channel=0 note=58 velocity=40 time=0
note_on channel=0 note=58 velocity=0 time=240
note_on channel=0 note=46 velocity=30 time=0
note_on channel=0 note=46 velocity=0 time=240
note_on channel=0 note=70 velocity=0 time=0
note_on channel=0 note=74 velocity=0 time=0
note_on channel=0 note=65 velocity=41 time=0
note_on channel=0 note=50 velocity=34 time=0
control_change channel=0 control=64 value=127 time=60
note_on channel=0 note=50 velocity=0 time=180
note_on channel=0 note=65 velocity=0 time=0
note_on channel=0 note=46 velocity=30 time=0
note_on channel=0 note=69 velocity=43 time=210
note_on channel=0 note=69 velocity=0 time=0
note_on channel=0 note=46 velocity=0 time=0
note_on channel=0 note=67 velocity=50 time=0
note_on channel=0 note=51 velocity=34 time=0
control_change channel=0 control=64 value=0 time=19
note_on channel=0 note=67 velocity=0 time=101
note_on channel=0 note=66 velocity=46 time=0
note_on channel=0 note=66 velocity=0 time=0
note_on channel=0 note=51 velocity=0 time=0
note_on channel=0 note=67 velocity=50 time=0
note_on channel=0 note=46 velocity=29 time=0
note_on channel=0 note=67 velocity=0 time=120
note_on channel=0 note=69 velocity=46 time=0
note_on channel=0 note=69 velocity=0 time=0
note_on channel=0 note=46 velocity=0 time=0
note_on channel=0 note=70 velocity=50 time=0
note_on channel=0 note=50 velocity=40 time=0
note_on channel=0 note=50 velocity=0 time=240
note_on channel=0 note=49 velocity=30 time=0
note_on channel=0 note=49 velocity=0 time=240
note_on channel=0 note=70 velocity=0 time=0
note_on channel=0 note=65 velocity=41 time=0
note_on channel=0 note=50 velocity=34 time=0
control_change channel=0 control=64 value=127 time=60
note_on channel=0 note=50 velocity=0 time=180
note_on channel=0 note=46 velocity=30 time=0
note_on channel=0 note=65 velocity=0 time=180
note_on channel=0 note=57 velocity=36 time=30
note_on channel=0 note=57 velocity=0 time=0
note_on channel=0 note=46 velocity=0 time=0
note_on channel=0 note=63 velocity=34 time=0
note_on channel=0 note=55 velocity=42 time=0
note_on channel=0 note=48 velocity=34 time=0
control_change channel=0 control=64 value=0 time=19
note_on channel=0 note=55 velocity=0 time=101
note_on channel=0 note=53 velocity=39 time=0
note_on channel=0 note=53 velocity=0 time=0
note_on channel=0 note=48 velocity=0 time=0
note_on channel=0 note=55 velocity=42 time=0
note_on channel=0 note=41 velocity=29 time=0
note_on channel=0 note=55 velocity=0 time=120
note_on channel=0 note=57 velocity=39 time=0
note_on channel=0 note=57 velocity=0 time=120
note_on channel=0 note=41 velocity=0 time=0
note_on channel=0 note=63 velocity=0 time=0
note_on channel=0 note=62 velocity=34 time=0
note_on channel=0 note=58 velocity=42 time=0
note_on channel=0 note=46 velocity=40 time=0
control_change channel=0 control=64 value=127 time=96
note_on channel=0 note=46 velocity=0 time=144
note_on channel=0 note=58 velocity=0 time=0
note_on channel=0 note=53 velocity=33 time=0
note_on channel=0 note=50 velocity=30 time=0
control_change channel=0 control=64 value=0 time=187
note_on channel=0 note=53 velocity=0 time=13
note_on channel=0 note=57 velocity=37 time=0
note_on channel=0 note=57 velocity=0 time=30
note_on channel=0 note=50 velocity=0 time=0
note_on channel=0 note=62 velocity=0 time=0
note_on channel=0 note=63 velocity=39 time=0
note_on channel=0 note=55 velocity=43 time=0
note_on channel=0 note=48 velocity=35 time=0
note_on channel=0 note=55 velocity=0 time=120
note_on channel=0 note=53 velocity=40 time=0
note_on channel=0 note=53 velocity=0 time=0
note_on channel=0 note=48 velocity=0 time=0
note_on channel=0 note=55 velocity=44 time=0
note_on channel=0 note=41 velocity=31 time=0
note_on channel=0 note=55 velocity=0 time=120
note_on channel=0 note=57 velocity=40 time=0
note_on channel=0 note=57 velocity=0 time=120
note_on channel=0 note=41 velocity=0 time=0
note_on channel=0 note=63 velocity=0 time=0
note_on channel=0 note=62 velocity=36 time=0
note_on channel=0 note=58 velocity=44 time=0
note_on channel=0 note=46 velocity=36 time=0
control_change channel=0 control=64 value=127 time=92
note_on channel=0 note=46 velocity=0 time=148
note_on channel=0 note=58 velocity=0 time=0
note_on channel=0 note=53 velocity=34 time=0
note_on channel=0 note=50 velocity=31 time=0
note_on channel=0 note=53 velocity=0 time=180
control_change channel=0 control=64 value=0 time=0
note_on channel=0 note=57 velocity=39 time=0
note_on channel=0 note=57 velocity=0 time=30
note_on channel=0 note=50 velocity=0 time=0
note_on channel=0 note=62 velocity=0 time=0
note_on channel=0 note=63 velocity=44 time=0
note_on channel=0 note=55 velocity=46 time=0
note_on channel=0 note=48 velocity=44 time=0
note_on channel=0 note=55 velocity=0 time=120
note_on channel=0 note=53 velocity=43 time=0
note_on channel=0 note=53 velocity=0 time=0
note_on channel=0 note=48 velocity=0 time=0
note_on channel=0 note=55 velocity=47 time=0
note_on channel=0 note=41 velocity=33 time=0
note_on channel=0 note=55 velocity=0 time=120
note_on channel=0 note=57 velocity=44 time=0
note_on channel=0 note=57 velocity=0 time=0
note_on channel=0 note=41 velocity=0 time=0
note_on channel=0 note=63 velocity=0 time=0
note_on channel=0 note=62 velocity=42 time=0
note_on channel=0 note=58 velocity=48 time=0
note_on channel=0 note=46 velocity=45 time=0
control_change channel=0 control=64 value=127 time=81
note_on channel=0 note=46 velocity=0 time=39
note_on channel=0 note=58 velocity=0 time=0
note_on channel=0 note=53 velocity=41 time=0
note_on channel=0 note=50 velocity=37 time=0
note_on channel=0 note=50 velocity=0 time=120
note_on channel=0 note=53 velocity=0 time=0
note_on channel=0 note=62 velocity=0 time=0
note_on channel=0 note=63 velocity=40 time=0
note_on channel=0 note=57 velocity=50 time=0
note_on channel=0 note=41 velocity=46 time=0
control_change channel=0 control=64 value=0 time=13
control_change channel=0 control=64 value=127 time=51
note_on channel=0 note=41 velocity=0 time=56
note_on channel=0 note=57 velocity=0 time=0
note_on channel=0 note=53 velocity=43 time=0
note_on channel=0 note=48 velocity=39 time=0
note_on channel=0 note=48 velocity=0 time=120
note_on channel=0 note=53 velocity=0 time=0
note_on channel=0 note=63 velocity=0 time=0
note_on channel=0 note=62 velocity=49 time=0
note_on channel=0 note=58 velocity=51 time=0
note_on channel=0 note=46 velocity=47 time=0
control_change channel=0 control=64 value=0 time=15
control_change channel=0 control=64 value=127 time=45
note_on channel=0 note=46 velocity=0 time=60
note_on channel=0 note=58 velocity=0 time=0
note_on channel=0 note=53 velocity=46 time=0
note_on channel=0 note=50 velocity=41 time=0
note_on channel=0 note=50 velocity=0 time=120
note_on channel=0 note=53 velocity=0 time=0
note_on channel=0 note=62 velocity=0 time=0
note_on channel=0 note=63 velocity=42 time=0
note_on channel=0 note=57 velocity=52 time=0
note_on channel=0 note=41 velocity=49 time=0
control_change channel=0 control=64 value=0 time=7
control_change channel=0 control=64 value=127 time=53
note_on channel=0 note=41 velocity=0 time=0
note_on channel=0 note=57 velocity=0 time=0
note_on channel=0 note=53 velocity=47 time=0
note_on channel=0 note=48 velocity=43 time=0
note_on channel=0 note=48 velocity=0 time=0
note_on channel=0 note=53 velocity=0 time=0
note_on channel=0 note=63 velocity=0 time=0
note_on channel=0 note=58 velocity=34 time=0
note_on channel=0 note=62 velocity=40 time=0
note_on channel=0 note=46 velocity=24 time=0
note_on channel=0 note=50 velocity=30 time=0
control_change channel=0 control=64 value=0 time=0
note_on channel=0 note=50 velocity=0 time=120
note_on channel=0 note=58 velocity=0 time=0
note_on channel=0 note=62 velocity=0 time=0
note_on channel=0 note=46 velocity=0 time=0
note_on channel=0 note=62 velocity=34 time=360
note_on channel=0 note=70 velocity=40 time=0
note_on channel=0 note=34 velocity=24 time=0
note_on channel=0 note=46 velocity=30 time=0
note_on channel=0 note=46 velocity=0 time=120
note_on channel=0 note=62 velocity=0 time=0
note_on channel=0 note=70 velocity=0 time=0
note_on channel=0 note=34 velocity=0 time=0
note_on channel=0 note=62 velocity=62 time=0
note_on channel=0 note=62 velocity=0 time=120
note_on channel=0 note=63 velocity=48 time=0
note_on channel=0 note=63 velocity=0 time=120
note_on channel=0 note=62 velocity=48 time=0
note_on channel=0 note=62 velocity=0 time=0
note_on channel=0 note=60 velocity=48 time=0
note_on channel=0 note=60 velocity=0 time=0
note_on channel=0 note=58 velocity=62 time=0
control_change channel=0 control=64 value=0 time=0
note_on channel=0 note=58 velocity=0 time=120
note_on channel=0 note=60 velocity=48 time=0
note_on channel=0 note=60 velocity=0 time=120
note_on channel=0 note=58 velocity=47 time=0
note_on channel=0 note=58 velocity=0 time=0
note_on channel=0 note=57 velocity=47 time=0
note_on channel=0 note=57 velocity=0 time=0
note_on channel=0 note=62 velocity=61 time=0
note_on channel=0 note=67 velocity=61 time=0
note_on channel=0 note=70 velocity=61 time=0
note_on channel=0 note=74 velocity=79 time=0
note_on channel=0 note=55 velocity=63 time=0
control_change channel=0 control=64 value=127 time=43
note_on channel=0 note=55 velocity=0 time=77
note_on channel=0 note=57 velocity=46 time=0
note_on channel=0 note=57 velocity=0 time=120
note_on channel=0 note=58 velocity=46 time=0
note_on channel=0 note=58 velocity=0 time=0
note_on channel=0 note=57 velocity=46 time=0
note_on channel=0 note=57 velocity=0 time=0
note_on channel=0 note=55 velocity=58 time=0
control_change channel=0 control=64 value=0 time=7
control_change channel=0 control=64 value=127 time=99
note_on channel=0 note=55 velocity=0 time=14
note_on channel=0 note=58 velocity=46 time=0
note_on channel=0 note=58 velocity=0 time=120
note_on channel=0 note=57 velocity=46 time=0
note_on channel=0 note=57 velocity=0 time=0
note_on channel=0 note=55 velocity=45 time=0
note_on channel=0 note=70 velocity=0 time=110
note_on channel=0 note=67 velocity=0 time=0
note_on channel=0 note=55 velocity=0 time=0
note_on channel=0 note=69 velocity=62 time=0
note_on channel=0 note=72 velocity=62 time=0
note_on channel=0 note=54 velocity=59 time=0
control_change channel=0 control=64 value=0 time=6
note_on channel=0 note=54 velocity=0 time=114
note_on channel=0 note=69 velocity=0 time=0
note_on channel=0 note=72 velocity=0 time=0
note_on channel=0 note=55 velocity=45 time=0
note_on channel=0 note=55 velocity=0 time=120
note_on channel=0 note=54 velocity=45 time=0
note_on channel=0 note=54 velocity=0 time=0
note_on channel=0 note=51 velocity=44 time=0
note_on channel=0 note=74 velocity=0 time=110
note_on channel=0 note=62 velocity=0 time=0
note_on channel=0 note=51 velocity=0 time=0
note_on channel=0 note=62 velocity=59 time=0
note_on channel=0 note=74 velocity=81 time=0
note_on channel=0 note=69 velocity=59 time=0
note_on channel=0 note=66 velocity=59 time=0
note_on channel=0 note=50 velocity=57 time=0
control_change channel=0 control=64 value=127 time=63
note_on channel=0 note=50 velocity=0 time=57
note_on channel=0 note=51 velocity=44 time=0
note_on channel=0 note=51 velocity=0 time=120
note_on channel=0 note=50 velocity=42 time=0
note_on channel=0 note=50 velocity=0 time=0
note_on channel=0 note=48 velocity=42 time=0
note_on channel=0 note=48 velocity=0 time=0
note_on channel=0 note=46 velocity=55 time=0
control_change channel=0 control=64 value=0 time=15
note_on channel=0 note=46 velocity=0 time=105
note_on channel=0 note=48 velocity=41 time=0
control_change channel=0 control=64 value=127 time=0
note_on channel=0 note=48 velocity=0 time=120
note_on channel=0 note=46 velocity=41 time=0
note_on channel=0 note=46 velocity=0 time=0
note_on channel=0 note=45 velocity=41 time=0
note_on channel=0 note=69 velocity=0 time=110
note_on channel=0 note=66 velocity=0 time=0
note_on channel=0 note=45 velocity=0 time=0
note_on channel=0 note=70 velocity=62 time=0
note_on channel=0 note=67 velocity=62 time=0
note_on channel=0 note=43 velocity=56 time=0
control_change channel=0 control=64 value=0 time=0
note_on channel=0 note=43 velocity=0 time=120
note_on channel=0 note=70 velocity=0 time=0
note_on channel=0 note=67 velocity=0 time=0
note_on channel=0 note=42 velocity=42 time=0
note_on channel=0 note=42 velocity=0 time=120
note_on channel=0 note=43 velocity=42 time=0
note_on channel=0 note=43 velocity=0 time=120
note_on channel=0 note=45 velocity=42 time=0
note_on channel=0 note=74 velocity=0 time=110
note_on channel=0 note=62 velocity=0 time=0
note_on channel=0 note=45 velocity=0 time=0
note_on channel=0 note=67 velocity=68 time=0
note_on channel=0 note=70 velocity=68 time=0
note_on channel=0 note=79 velocity=89 time=0
note_on channel=0 note=46 velocity=55 time=0
control_change channel=0 control=64 value=127 time=115
note_on channel=0 note=46 velocity=0 time=5
note_on channel=0 note=45 velocity=42 time=0
note_on channel=0 note=45 velocity=0 time=120
note_on channel=0 note=46 velocity=41 time=0
note_on channel=0 note=46 velocity=0 time=120
note_on channel=0 note=47 velocity=41 time=0
note_on channel=0 note=47 velocity=0 time=120
note_on channel=0 note=48 velocity=59 time=0
control_change channel=0 control=64 value=0 time=15
control_change channel=0 control=64 value=127 time=100
note_on channel=0 note=48 velocity=0 time=5
note_on channel=0 note=47 velocity=47 time=0
note_on channel=0 note=47 velocity=0 time=120
note_on channel=0 note=48 velocity=48 time=0
note_on channel=0 note=49 velocity=48 time=114
note_on channel=0 note=48 velocity=0 time=0
note_on channel=0 note=49 velocity=0 time=114
note_on channel=0 note=67 velocity=0 time=0
note_on channel=0 note=70 velocity=0 time=0
note_on channel=0 note=79 velocity=0 time=0
note_on channel=0 note=66 velocity=63 time=0
note_on channel=0 note=69 velocity=63 time=0
note_on channel=0 note=78 velocity=75 time=0
note_on channel=0 note=50 velocity=60 time=0
control_change channel=0 control=64 value=0 time=12
control_change channel=0 control=64 value=127 time=85
note_on channel=0 note=50 velocity=0 time=23
note_on channel=0 note=38 velocity=46 time=0
note_on channel=0 note=38 velocity=0 time=120
note_on channel=0 note=42 velocity=46 time=0
note_on channel=0 note=42 velocity=0 time=120
note_on channel=0 note=45 velocity=42 time=0
note_on channel=0 note=45 velocity=0 time=120
note_on channel=0 note=78 velocity=0 time=0
note_on channel=0 note=69 velocity=0 time=0
note_on channel=0 note=66 velocity=0 time=0
note_on channel=0 note=50 velocity=57 time=0
note_on channel=0 note=50 velocity=0 time=120
note_on channel=0 note=54 velocity=53 time=0
note_on channel=0 note=54 velocity=0 time=120
note_on channel=0 note=57 velocity=56 time=6
note_on channel=0 note=61 velocity=58 time=0
note_on channel=0 note=57 velocity=0 time=6
note_on channel=0 note=61 velocity=0 time=0
note_on channel=0 note=62 velocity=66 time=0
control_change channel=0 control=64 value=0 time=40
note_on channel=0 note=62 velocity=0 time=80
note_on channel=0 note=63 velocity=59 time=0
note_on channel=0 note=63 velocity=0 time=120
note_on channel=0 note=62 velocity=57 time=0
note_on channel=0 note=62 velocity=0 time=0
note_on channel=0 note=60 velocity=56 time=0
note_on channel=0 note=60 velocity=0 time=0
note_on channel=0 note=58 velocity=62 time=0
note_on channel=0 note=58 velocity=0 time=120
note_on channel=0 note=60 velocity=48 time=0
note_on channel=0 note=60 velocity=0 time=120
note_on channel=0 note=58 velocity=47 time=0
note_on channel=0 note=58 velocity=0 time=0
note_on channel=0 note=57 velocity=47 time=0
note_on channel=0 note=57 velocity=0 time=0
note_on channel=0 note=67 velocity=61 time=0
note_on channel=0 note=70 velocity=61 time=0
note_on channel=0 note=74 velocity=61 time=0
note_on channel=0 note=79 velocity=79 time=0
note_on channel=0 note=55 velocity=63 time=0
control_change channel=0 control=64 value=127 time=75
note_on channel=0 note=55 velocity=0 time=45
note_on channel=0 note=57 velocity=46 time=0
note_on channel=0 note=57 velocity=0 time=120
note_on channel=0 note=55 velocity=46 time=0
note_on channel=0 note=55 velocity=0 time=0
note_on channel=0 note=53 velocity=46 time=0
note_on channel=0 note=53 velocity=0 time=0
note_on channel=0 note=74 velocity=0 time=0
note_on channel=0 note=73 velocity=74 time=0
note_on channel=0 note=52 velocity=58 time=0
control_change channel=0 control=64 value=0 time=7
control_change channel=0 control=64 value=127 time=99
note_on channel=0 note=52 velocity=0 time=14
note_on channel=0 note=53 velocity=46 time=0
note_on channel=0 note=53 velocity=0 time=120
note_on channel=0 note=52 velocity=46 time=0
note_on channel=0 note=52 velocity=0 time=0
note_on channel=0 note=50 velocity=45 time=0
note_on channel=0 note=50 velocity=0 time=0
note_on channel=0 note=73 velocity=0 time=0
note_on channel=0 note=76 velocity=80 time=0
note_on channel=0 note=49 velocity=59 time=0
control_change channel=0 control=64 value=0 time=6
note_on channel=0 note=49 velocity=0 time=114
note_on channel=0 note=76 velocity=0 time=0
note_on channel=0 note=50 velocity=45 time=0
note_on channel=0 note=50 velocity=0 time=120
note_on channel=0 note=49 velocity=45 time=0
note_on channel=0 note=49 velocity=0 time=0
note_on channel=0 note=46 velocity=44 time=0
note_on channel=0 note=79 velocity=0 time=110
note_on channel=0 note=67 velocity=0 time=0
note_on channel=0 note=70 velocity=0 time=0
note_on channel=0 note=46 velocity=0 time=0
note_on channel=0 note=85 velocity=86 time=0
note_on channel=0 note=76 velocity=59 time=0
note_on channel=0 note=73 velocity=66 time=0
note_on channel=0 note=45 velocity=57 time=0
control_change channel=0 control=64 value=127 time=80
note_on channel=0 note=45 velocity=0 time=40
note_on channel=0 note=46 velocity=44 time=0
note_on channel=0 note=46 velocity=0 time=120
note_on channel=0 note=45 velocity=42 time=0
note_on channel=0 note=45 velocity=0 time=0
note_on channel=0 note=43 velocity=42 time=0
note_on channel=0 note=43 velocity=0 time=0
note_on channel=0 note=76 velocity=0 time=0
note_on channel=0 note=79 velocity=80 time=0
note_on channel=0 note=41 velocity=55 time=0
control_change channel=0 control=64 value=0 time=15
note_on channel=0 note=41 velocity=0 time=105
note_on channel=0 note=43 velocity=41 time=0
control_change channel=0 control=64 value=127 time=0
note_on channel=0 note=43 velocity=0 time=120
note_on channel=0 note=41 velocity=41 time=0
note_on channel=0 note=41 velocity=0 time=0
note_on channel=0 note=40 velocity=41 time=0
note_on channel=0 note=40 velocity=0 time=0
note_on channel=0 note=79 velocity=0 time=0
note_on channel=0 note=73 velocity=0 time=0
note_on channel=0 note=85 velocity=0 time=0
note_on channel=0 note=74 velocity=74 time=0
note_on channel=0 note=86 velocity=88 time=0
note_on channel=0 note=77 velocity=74 time=0
note_on channel=0 note=38 velocity=56 time=0
control_change channel=0 control=64 value=0 time=0
note_on channel=0 note=38 velocity=0 time=120
note_on channel=0 note=74 velocity=0 time=0
note_on channel=0 note=86 velocity=0 time=0
note_on channel=0 note=77 velocity=0 time=0
note_on channel=0 note=40 velocity=42 time=0
note_on channel=0 note=40 velocity=0 time=120
note_on channel=0 note=41 velocity=42 time=0
note_on channel=0 note=41 velocity=0 time=120
note_on channel=0 note=38 velocity=42 time=0
note_on channel=0 note=38 velocity=0 time=0
note_on channel=0 note=74 velocity=74 time=0
note_on channel=0 note=76 velocity=74 time=0
note_on channel=0 note=86 velocity=88 time=0
note_on channel=0 note=43 velocity=55 time=0
control_change channel=0 control=64 value=127 time=115
note_on channel=0 note=43 velocity=0 time=5
note_on channel=0 note=45 velocity=42 time=0
note_on channel=0 note=45 velocity=0 time=120
note_on channel=0 note=86 velocity=0 time=0
note_on channel=0 note=76 velocity=0 time=0
note_on channel=0 note=74 velocity=0 time=0
note_on channel=0 note=46 velocity=41 time=0
control_change channel=0 control=64 value=0 time=11
note_on channel=0 note=46 velocity=0 time=109
note_on channel=0 note=43 velocity=41 time=0
note_on channel=0 note=43 velocity=0 time=120
note_on channel=0 note=73 velocity=70 time=0
note_on channel=0 note=76 velocity=70 time=0
note_on channel=0 note=85 velocity=83 time=0
note_on channel=0 note=45 velocity=57 time=0
control_change channel=0 control=64 value=127 time=115
note_on channel=0 note=45 velocity=0 time=5
note_on channel=0 note=44 velocity=45 time=0
note_on channel=0 note=44 velocity=0 time=120
note_on channel=0 note=85 velocity=0 time=0
note_on channel=0 note=76 velocity=0 time=0
note_on channel=0 note=73 velocity=0 time=0
note_on channel=0 note=45 velocity=45 time=0
note_on channel=0 note=45 velocity=0 time=0
note_on channel=0 note=33 velocity=45 time=0
note_on channel=0 note=33 velocity=0 time=0
note_on channel=0 note=74 velocity=74 time=0
note_on channel=0 note=77 velocity=74 time=0
note_on channel=0 note=86 velocity=88 time=0
note_on channel=0 note=38 velocity=60 time=0
control_change channel=0 control=64 value=0 time=0
note_on channel=0 note=38 velocity=0 time=120
note_on channel=0 note=41 velocity=46 time=0
control_change channel=0 control=64 value=127 time=0
note_on channel=0 note=41 velocity=0 time=120
note_on channel=0 note=45 velocity=46 time=0
note_on channel=0 note=45 velocity=0 time=120
note_on channel=0 note=50 velocity=42 time=0
note_on channel=0 note=50 velocity=0 time=120
note_on channel=0 note=86 velocity=0 time=0
note_on channel=0 note=77 velocity=0 time=0
note_on channel=0 note=74 velocity=0 time=0
note_on channel=0 note=38 velocity=57 time=0
control_change channel=0 control=64 value=0 time=56
note_on channel=0 note=38 velocity=0 time=34
note_on channel=0 note=62 velocity=62 time=0
note_on channel=0 note=62 velocity=0 time=120
note_on channel=0 note=63 velocity=48 time=0
note_on channel=0 note=63 velocity=0 time=120
note_on channel=0 note=62 velocity=48 time=0
note_on channel=0 note=62 velocity=0 time=0
note_on channel=0 note=60 velocity=48 time=0
note_on channel=0 note=60 velocity=0 time=0
note_on channel=0 note=58 velocity=62 time=0
note_on channel=0 note=58 velocity=0 time=120
note_on channel=0 note=60 velocity=48 time=0
note_on channel=0 note=60 velocity=0 time=120
note_on channel=0 note=58 velocity=47 time=0
note_on channel=0 note=58 velocity=0 time=0
note_on channel=0 note=57 velocity=47 time=0
note_on channel=0 note=57 velocity=0 time=0
note_on channel=0 note=62 velocity=61 time=0
note_on channel=0 note=67 velocity=61 time=0
note_on channel=0 note=70 velocity=61 time=0
note_on channel=0 note=74 velocity=79 time=0
note_on channel=0 note=55 velocity=63 time=0
control_change channel=0 control=64 value=127 time=43
note_on channel=0 note=55 velocity=0 time=77
note_on channel=0 note=57 velocity=46 time=0
note_on channel=0 note=57 velocity=0 time=120
note_on channel=0 note=58 velocity=46 time=0
note_on channel=0 note=58 velocity=0 time=0
note_on channel=0 note=57 velocity=46 time=0
note_on channel=0 note=57 velocity=0 time=0
note_on channel=0 note=55 velocity=58 time=0
control_change channel=0 control=64 value=0 time=7
control_change channel=0 control=64 value=127 time=99
note_on channel=0 note=55 velocity=0 time=14
note_on channel=0 note=58 velocity=46 time=0
note_on channel=0 note=58 velocity=0 time=120
note_on channel=0 note=57 velocity=46 time=0
note_on channel=0 note=57 velocity=0 time=0
note_on channel=0 note=55 velocity=45 time=0
note_on channel=0 note=70 velocity=0 time=110
note_on channel=0 note=67 velocity=0 time=0
note_on channel=0 note=55 velocity=0 time=0
note_on channel=0 note=69 velocity=62 time=0
note_on channel=0 note=72 velocity=62 time=0
note_on channel=0 note=54 velocity=59 time=0
control_change channel=0 control=64 value=0 time=6
note_on channel=0 note=54 velocity=0 time=114
note_on channel=0 note=69 velocity=0 time=0
note_on channel=0 note=72 velocity=0 time=0
note_on channel=0 note=55 velocity=45 time=0
note_on channel=0 note=55 velocity=0 time=120
note_on channel=0 note=54 velocity=45 time=0
note_on channel=0 note=54 velocity=0 time=0
note_on channel=0 note=51 velocity=44 time=0
note_on channel=0 note=74 velocity=0 time=110
note_on channel=0 note=62 velocity=0 time=0
note_on channel=0 note=51 velocity=0 time=0
note_on channel=0 note=62 velocity=59 time=0
note_on channel=0 note=74 velocity=81 time=0
note_on channel=0 note=69 velocity=59 time=0
note_on channel=0 note=66 velocity=59 time=0
note_on channel=0 note=50 velocity=57 time=0
control_change channel=0 control=64 value=127 time=63
note_on channel=0 note=50 velocity=0 time=57
note_on channel=0 note=51 velocity=44 time=0
note_on channel=0 note=51 velocity=0 time=120
note_on channel=0 note=50 velocity=42 time=0
note_on channel=0 note=50 velocity=0 time=0
note_on channel=0 note=48 velocity=42 time=0
note_on channel=0 note=48 velocity=0 time=0
note_on channel=0 note=46 velocity=55 time=0
control_change channel=0 control=64 value=0 time=15
note_on channel=0 note=46 velocity=0 time=105
note_on channel=0 note=48 velocity=41 time=0
control_change channel=0 control=64 value=127 time=0
note_on channel=0 note=48 velocity=0 time=120
note_on channel=0 note=46 velocity=41 time=0
note_on channel=0 note=46 velocity=0 time=0
note_on channel=0 note=45 velocity=41 time=0
note_on channel=0 note=69 velocity=0 time=110
note_on channel=0 note=66 velocity=0 time=0
note_on channel=0 note=45 velocity=0 time=0
note_on channel=0 note=70 velocity=62 time=0
note_on channel=0 note=67 velocity=62 time=0
note_on channel=0 note=43 velocity=56 time=0
control_change channel=0 control=64 value=0 time=0
note_on channel=0 note=43 velocity=0 time=120
note_on channel=0 note=70 velocity=0 time=0
note_on channel=0 note=67 velocity=0 time=0
note_on channel=0 note=42 velocity=42 time=0
note_on channel=0 note=42 velocity=0 time=120
note_on channel=0 note=43 velocity=42 time=0
note_on channel=0 note=43 velocity=0 time=120
note_on channel=0 note=45 velocity=42 time=0
note_on channel=0 note=74 velocity=0 time=110
note_on channel=0 note=62 velocity=0 time=0
note_on channel=0 note=45 velocity=0 time=0
note_on channel=0 note=67 velocity=68 time=0
note_on channel=0 note=70 velocity=68 time=0
note_on channel=0 note=79 velocity=89 time=0
note_on channel=0 note=46 velocity=55 time=0
control_change channel=0 control=64 value=127 time=115
note_on channel=0 note=46 velocity=0 time=5
note_on channel=0 note=45 velocity=42 time=0
note_on channel=0 note=45 velocity=0 time=120
note_on channel=0 note=46 velocity=41 time=0
note_on channel=0 note=46 velocity=0 time=120
note_on channel=0 note=47 velocity=41 time=0
note_on channel=0 note=47 velocity=0 time=120
note_on channel=0 note=48 velocity=59 time=0
control_change channel=0 control=64 value=0 time=15
control_change channel=0 control=64 value=127 time=100
note_on channel=0 note=48 velocity=0 time=5
note_on channel=0 note=47 velocity=47 time=0
note_on channel=0 note=47 velocity=0 time=120
note_on channel=0 note=48 velocity=48 time=0
note_on channel=0 note=48 velocity=0 time=0
note_on channel=0 note=49 velocity=48 time=0
note_on channel=0 note=49 velocity=0 time=0
note_on channel=0 note=79 velocity=0 time=0
note_on channel=0 note=70 velocity=0 time=0
note_on channel=0 note=67 velocity=0 time=0
note_on channel=0 note=66 velocity=63 time=0
note_on channel=0 note=69 velocity=63 time=0
note_on channel=0 note=78 velocity=75 time=0
note_on channel=0 note=50 velocity=60 time=0
control_change channel=0 control=64 value=0 time=12
control_change channel=0 control=64 value=127 time=85
note_on channel=0 note=50 velocity=0 time=23
note_on channel=0 note=38 velocity=46 time=0
note_on channel=0 note=38 velocity=0 time=120
note_on channel=0 note=42 velocity=47 time=0
note_on channel=0 note=42 velocity=0 time=120
note_on channel=0 note=45 velocity=48 time=0
note_on channel=0 note=45 velocity=0 time=120
note_on channel=0 note=78 velocity=0 time=0
note_on channel=0 note=69 velocity=0 time=0
note_on channel=0 note=66 velocity=0 time=0
note_on channel=0 note=50 velocity=57 time=0
note_on channel=0 note=50 velocity=0 time=120
note_on channel=0 note=54 velocity=49 time=0
note_on channel=0 note=54 velocity=0 time=120
note_on channel=0 note=57 velocity=53 time=6
note_on channel=0 note=61 velocity=57 time=0
note_on channel=0 note=57 velocity=0 time=6
note_on channel=0 note=61 velocity=0 time=0
note_on channel=0 note=62 velocity=62 time=0
control_change channel=0 control=64 value=0 time=40
note_on channel=0 note=62 velocity=0 time=80
note_on channel=0 note=63 velocity=57 time=0
note_on channel=0 note=63 velocity=0 time=120
note_on channel=0 note=62 velocity=52 time=0
note_on channel=0 note=62 velocity=0 time=0
note_on channel=0 note=60 velocity=49 time=0
note_on channel=0 note=60 velocity=0 time=0
note_on channel=0 note=58 velocity=62 time=0
note_on channel=0 note=58 velocity=0 time=120
note_on channel=0 note=60 velocity=48 time=0
note_on channel=0 note=60 velocity=0 time=120
note_on channel=0 note=58 velocity=47 time=0
note_on channel=0 note=58 velocity=0 time=0
note_on channel=0 note=57 velocity=47 time=0
note_on channel=0 note=57 velocity=0 time=0
note_on channel=0 note=67 velocity=61 time=0
note_on channel=0 note=70 velocity=61 time=0
note_on channel=0 note=74 velocity=61 time=0
note_on channel=0 note=79 velocity=79 time=0
note_on channel=0 note=55 velocity=63 time=0
control_change channel=0 control=64 value=127 time=75
note_on channel=0 note=55 velocity=0 time=45
note_on channel=0 note=57 velocity=46 time=0
note_on channel=0 note=57 velocity=0 time=120
note_on channel=0 note=55 velocity=46 time=0
note_on channel=0 note=55 velocity=0 time=0
note_on channel=0 note=53 velocity=46 time=0
note_on channel=0 note=53 velocity=0 time=0
note_on channel=0 note=74 velocity=0 time=0
note_on channel=0 note=73 velocity=74 time=0
note_on channel=0 note=52 velocity=58 time=0
control_change channel=0 control=64 value=0 time=7
control_change channel=0 control=64 value=127 time=99
note_on channel=0 note=52 velocity=0 time=14
note_on channel=0 note=53 velocity=46 time=0
note_on channel=0 note=53 velocity=0 time=120
note_on channel=0 note=52 velocity=46 time=0
note_on channel=0 note=52 velocity=0 time=0
note_on channel=0 note=50 velocity=45 time=0
note_on channel=0 note=50 velocity=0 time=0
note_on channel=0 note=73 velocity=0 time=0
note_on channel=0 note=76 velocity=80 time=0
note_on channel=0 note=49 velocity=59 time=0
control_change channel=0 control=64 value=0 time=6
note_on channel=0 note=49 velocity=0 time=114
note_on channel=0 note=76 velocity=0 time=0
note_on channel=0 note=50 velocity=45 time=0
note_on channel=0 note=50 velocity=0 time=120
note_on channel=0 note=49 velocity=45 time=0
note_on channel=0 note=49 velocity=0 time=0
note_on channel=0 note=46 velocity=44 time=0
note_on channel=0 note=79 velocity=0 time=110
note_on channel=0 note=67 velocity=0 time=0
note_on channel=0 note=70 velocity=0 time=0
note_on channel=0 note=46 velocity=0 time=0
note_on channel=0 note=85 velocity=86 time=0
note_on channel=0 note=76 velocity=59 time=0
note_on channel=0 note=73 velocity=66 time=0
note_on channel=0 note=45 velocity=57 time=0
control_change channel=0 control=64 value=127 time=80
note_on channel=0 note=45 velocity=0 time=40
note_on channel=0 note=46 velocity=44 time=0
note_on channel=0 note=46 velocity=0 time=120
note_on channel=0 note=45 velocity=42 time=0
note_on channel=0 note=45 velocity=0 time=0
note_on channel=0 note=43 velocity=42 time=0
note_on channel=0 note=43 velocity=0 time=0
note_on channel=0 note=76 velocity=0 time=0
note_on channel=0 note=79 velocity=80 time=0
note_on channel=0 note=41 velocity=55 time=0
control_change channel=0 control=64 value=0 time=15
note_on channel=0 note=41 velocity=0 time=105
note_on channel=0 note=43 velocity=41 time=0
control_change channel=0 control=64 value=127 time=0
note_on channel=0 note=43 velocity=0 time=120
note_on channel=0 note=41 velocity=41 time=0
note_on channel=0 note=41 velocity=0 time=0
note_on channel=0 note=40 velocity=41 time=0
note_on channel=0 note=40 velocity=0 time=0
note_on channel=0 note=79 velocity=0 time=0
note_on channel=0 note=73 velocity=0 time=0
note_on channel=0 note=85 velocity=0 time=0
note_on channel=0 note=74 velocity=74 time=0
note_on channel=0 note=86 velocity=88 time=0
note_on channel=0 note=77 velocity=74 time=0
note_on channel=0 note=38 velocity=56 time=0
control_change channel=0 control=64 value=0 time=0
note_on channel=0 note=38 velocity=0 time=120
note_on channel=0 note=74 velocity=0 time=0
note_on channel=0 note=86 velocity=0 time=0
note_on channel=0 note=77 velocity=0 time=0
note_on channel=0 note=40 velocity=42 time=0
note_on channel=0 note=40 velocity=0 time=120
note_on channel=0 note=41 velocity=42 time=0
note_on channel=0 note=41 velocity=0 time=120
note_on channel=0 note=38 velocity=42 time=0
note_on channel=0 note=38 velocity=0 time=0
note_on channel=0 note=74 velocity=74 time=0
note_on channel=0 note=76 velocity=74 time=0
note_on channel=0 note=86 velocity=88 time=0
note_on channel=0 note=43 velocity=55 time=0
control_change channel=0 control=64 value=127 time=115
note_on channel=0 note=43 velocity=0 time=5
note_on channel=0 note=45 velocity=42 time=0
note_on channel=0 note=45 velocity=0 time=120
note_on channel=0 note=86 velocity=0 time=0
note_on channel=0 note=76 velocity=0 time=0
note_on channel=0 note=74 velocity=0 time=0
note_on channel=0 note=46 velocity=41 time=0
control_change channel=0 control=64 value=0 time=11
note_on channel=0 note=46 velocity=0 time=109
note_on channel=0 note=43 velocity=41 time=0
note_on channel=0 note=43 velocity=0 time=120
note_on channel=0 note=73 velocity=70 time=0
note_on channel=0 note=76 velocity=70 time=0
note_on channel=0 note=85 velocity=83 time=0
note_on channel=0 note=45 velocity=57 time=0
control_change channel=0 control=64 value=127 time=115
note_on channel=0 note=45 velocity=0 time=5
note_on channel=0 note=44 velocity=45 time=0
note_on channel=0 note=44 velocity=0 time=120
note_on channel=0 note=85 velocity=0 time=0
note_on channel=0 note=76 velocity=0 time=0
note_on channel=0 note=73 velocity=0 time=0
note_on channel=0 note=45 velocity=45 time=0
note_on channel=0 note=45 velocity=0 time=0
note_on channel=0 note=33 velocity=45 time=0
note_on channel=0 note=33 velocity=0 time=0
note_on channel=0 note=74 velocity=74 time=0
note_on channel=0 note=77 velocity=74 time=0
note_on channel=0 note=86 velocity=88 time=0
note_on channel=0 note=38 velocity=60 time=0
control_change channel=0 control=64 value=0 time=0
note_on channel=0 note=38 velocity=0 time=120
note_on channel=0 note=41 velocity=46 time=0
control_change channel=0 control=64 value=127 time=0
note_on channel=0 note=41 velocity=0 time=120
note_on channel=0 note=45 velocity=46 time=0
note_on channel=0 note=45 velocity=0 time=120
note_on channel=0 note=50 velocity=42 time=0
note_on channel=0 note=50 velocity=0 time=120
note_on channel=0 note=86 velocity=0 time=0
note_on channel=0 note=77 velocity=0 time=0
note_on channel=0 note=74 velocity=0 time=0
note_on channel=0 note=38 velocity=57 time=0
control_change channel=0 control=64 value=0 time=36
note_on channel=0 note=38 velocity=0 time=54
note_on channel=0 note=80 velocity=74 time=0
note_on channel=0 note=80 velocity=0 time=0
note_on channel=0 note=82 velocity=48 time=0
note_on channel=0 note=82 velocity=0 time=120
note_on channel=0 note=80 velocity=48 time=0
note_on channel=0 note=80 velocity=0 time=120
note_on channel=0 note=79 velocity=48 time=0
note_on channel=0 note=79 velocity=0 time=0
note_on channel=0 note=77 velocity=68 time=0
note_on channel=0 note=68 velocity=67 time=0
note_on channel=0 note=68 velocity=0 time=0
note_on channel=0 note=77 velocity=0 time=0
note_on channel=0 note=79 velocity=48 time=0
note_on channel=0 note=70 velocity=46 time=0
note_on channel=0 note=70 velocity=0 time=120
note_on channel=0 note=79 velocity=0 time=0
note_on channel=0 note=77 velocity=47 time=0
note_on channel=0 note=68 velocity=46 time=0
note_on channel=0 note=68 velocity=0 time=120
note_on channel=0 note=77 velocity=0 time=0
note_on channel=0 note=75 velocity=47 time=0
note_on channel=0 note=67 velocity=46 time=0
note_on channel=0 note=67 velocity=0 time=0
note_on channel=0 note=75 velocity=0 time=0
note_on channel=0 note=74 velocity=63 time=0
note_on channel=0 note=65 velocity=59 time=0
note_on channel=0 note=65 velocity=0 time=0
note_on channel=0 note=74 velocity=0 time=0
note_on channel=0 note=75 velocity=46 time=0
note_on channel=0 note=67 velocity=46 time=0
note_on channel=0 note=67 velocity=0 time=120
note_on channel=0 note=75 velocity=0 time=0
note_on channel=0 note=74 velocity=46 time=0
note_on channel=0 note=65 velocity=46 time=0
note_on channel=0 note=65 velocity=0 time=120
note_on channel=0 note=74 velocity=0 time=0
note_on channel=0 note=72 velocity=46 time=0
note_on channel=0 note=63 velocity=46 time=0
note_on channel=0 note=63 velocity=0 time=0
note_on channel=0 note=72 velocity=0 time=0
note_on channel=0 note=79 velocity=74 time=0
note_on channel=0 note=71 velocity=84 time=0
note_on channel=0 note=55 velocity=56 time=0
note_on channel=0 note=62 velocity=67 time=0
note_on channel=0 note=79 velocity=0 time=0
note_on channel=0 note=80 velocity=48 time=0
note_on channel=0 note=80 velocity=0 time=120
note_on channel=0 note=79 velocity=48 time=0
note_on channel=0 note=79 velocity=0 time=120
note_on channel=0 note=77 velocity=48 time=0
note_on channel=0 note=77 velocity=0 time=0
note_on channel=0 note=62 velocity=0 time=0
note_on channel=0 note=55 velocity=0 time=0
note_on channel=0 note=71 velocity=0 time=0
note_on channel=0 note=72 velocity=66 time=0
note_on channel=0 note=75 velocity=68 time=0
note_on channel=0 note=60 velocity=56 time=0
note_on channel=0 note=63 velocity=67 time=0
note_on channel=0 note=75 velocity=0 time=0
note_on channel=0 note=77 velocity=48 time=0
note_on channel=0 note=77 velocity=0 time=120
note_on channel=0 note=63 velocity=0 time=0
note_on channel=0 note=60 velocity=0 time=0
note_on channel=0 note=72 velocity=0 time=0
note_on channel=0 note=75 velocity=47 time=0
note_on channel=0 note=75 velocity=0 time=120
note_on channel=0 note=74 velocity=47 time=0
note_on channel=0 note=74 velocity=0 time=0
note_on channel=0 note=72 velocity=63 time=0
note_on channel=0 note=71 velocity=46 time=0
note_on channel=0 note=71 velocity=0 time=120
note_on channel=0 note=72 velocity=0 time=0
note_on channel=0 note=72 velocity=46 time=0
note_on channel=0 note=72 velocity=0 time=120
note_on channel=0 note=74 velocity=46 time=0
note_on channel=0 note=74 velocity=0 time=0
note_on channel=0 note=75 velocity=74 time=0
note_on channel=0 note=75 velocity=0 time=0
note_on channel=0 note=77 velocity=48 time=0
note_on channel=0 note=77 velocity=0 time=120
note_on channel=0 note=75 velocity=48 time=0
note_on channel=0 note=75 velocity=0 time=120
note_on channel=0 note=74 velocity=48 time=0
note_on channel=0 note=74 velocity=0 time=0
note_on channel=0 note=72 velocity=68 time=0
note_on channel=0 note=63 velocity=67 time=0
note_on channel=0 note=63 velocity=0 time=0
note_on channel=0 note=72 velocity=0 time=0
note_on channel=0 note=74 velocity=48 time=0
note_on channel=0 note=65 velocity=46 time=0
note_on channel=0 note=65 velocity=0 time=120
note_on channel=0 note=74 velocity=0 time=0
note_on channel=0 note=72 velocity=47 time=0
note_on channel=0 note=63 velocity=46 time=0
note_on channel=0 note=63 velocity=0 time=120
note_on channel=0 note=72 velocity=0 time=0
note_on channel=0 note=70 velocity=47 time=0
note_on channel=0 note=62 velocity=46 time=0
note_on channel=0 note=62 velocity=0 time=0
note_on channel=0 note=70 velocity=0 time=0
note_on channel=0 note=69 velocity=63 time=0
note_on channel=0 note=60 velocity=59 time=0
note_on channel=0 note=60 velocity=0 time=0
note_on channel=0 note=69 velocity=0 time=0
note_on channel=0 note=70 velocity=46 time=0
note_on channel=0 note=62 velocity=46 time=0
note_on channel=0 note=62 velocity=0 time=120
note_on channel=0 note=70 velocity=0 time=0
note_on channel=0 note=69 velocity=46 time=0
note_on channel=0 note=60 velocity=46 time=0
note_on channel=0 note=60 velocity=0 time=120
note_on channel=0 note=69 velocity=0 time=0
note_on channel=0 note=67 velocity=46 time=0
note_on channel=0 note=58 velocity=46 time=0
note_on channel=0 note=58 velocity=0 time=0
note_on channel=0 note=67 velocity=0 time=0
note_on channel=0 note=74 velocity=74 time=0
note_on channel=0 note=66 velocity=79 time=0
note_on channel=0 note=50 velocity=56 time=0
note_on channel=0 note=57 velocity=67 time=0
note_on channel=0 note=74 velocity=0 time=0
note_on channel=0 note=75 velocity=48 time=0
note_on channel=0 note=75 velocity=0 time=120
note_on channel=0 note=74 velocity=48 time=0
note_on channel=0 note=74 velocity=0 time=120
note_on channel=0 note=72 velocity=48 time=0
note_on channel=0 note=72 velocity=0 time=0
note_on channel=0 note=57 velocity=0 time=0
note_on channel=0 note=50 velocity=0 time=0
note_on channel=0 note=66 velocity=0 time=0
note_on channel=0 note=67 velocity=66 time=0
note_on channel=0 note=70 velocity=68 time=0
note_on channel=0 note=55 velocity=56 time=0
note_on channel=0 note=58 velocity=67 time=0
note_on channel=0 note=70 velocity=0 time=0
note_on channel=0 note=72 velocity=48 time=0
note_on channel=0 note=72 velocity=0 time=120
note_on channel=0 note=58 velocity=0 time=0
note_on channel=0 note=55 velocity=0 time=0
note_on channel=0 note=67 velocity=0 time=0
note_on channel=0 note=70 velocity=47 time=0
note_on channel=0 note=70 velocity=0 time=120
note_on channel=0 note=69 velocity=47 time=0
note_on channel=0 note=69 velocity=0 time=0
note_on channel=0 note=67 velocity=63 time=0
note_on channel=0 note=67 velocity=0 time=0
note_on channel=0 note=66 velocity=46 time=0
note_on channel=0 note=66 velocity=0 time=120
note_on channel=0 note=67 velocity=46 time=0
note_on channel=0 note=67 velocity=0 time=120
note_on channel=0 note=69 velocity=46 time=0
note_on channel=0 note=69 velocity=0 time=0
note_on channel=0 note=67 velocity=59 time=0
note_on channel=0 note=70 velocity=59 time=0
note_on channel=0 note=74 velocity=77 time=0
note_on channel=0 note=62 velocity=62 time=0
control_change channel=0 control=64 value=0 time=40
note_on channel=0 note=62 velocity=0 time=80
note_on channel=0 note=63 velocity=48 time=0
note_on channel=0 note=63 velocity=0 time=120
note_on channel=0 note=62 velocity=48 time=0
note_on channel=0 note=62 velocity=0 time=0
note_on channel=0 note=60 velocity=48 time=0
note_on channel=0 note=60 velocity=0 time=0
note_on channel=0 note=58 velocity=62 time=0
note_on channel=0 note=58 velocity=0 time=120
note_on channel=0 note=60 velocity=48 time=0
note_on channel=0 note=60 velocity=0 time=120
note_on channel=0 note=58 velocity=47 time=0
note_on channel=0 note=58 velocity=0 time=0
note_on channel=0 note=57 velocity=47 time=0
note_on channel=0 note=57 velocity=0 time=0
note_on channel=0 note=74 velocity=0 time=0
note_on channel=0 note=70 velocity=0 time=0
note_on channel=0 note=67 velocity=0 time=0
note_on channel=0 note=67 velocity=61 time=0
note_on channel=0 note=70 velocity=61 time=0
note_on channel=0 note=74 velocity=61 time=0
note_on channel=0 note=79 velocity=86 time=0
note_on channel=0 note=55 velocity=63 time=0
control_change channel=0 control=64 value=127 time=75
note_on channel=0 note=55 velocity=0 time=45
note_on channel=0 note=57 velocity=46 time=0
note_on channel=0 note=57 velocity=0 time=120
note_on channel=0 note=55 velocity=46 time=0
note_on channel=0 note=55 velocity=0 time=0
note_on channel=0 note=53 velocity=46 time=0
note_on channel=0 note=53 velocity=0 time=0
note_on channel=0 note=51 velocity=58 time=0
control_change channel=0 control=64 value=0 time=7
control_change channel=0 control=64 value=127 time=99
note_on channel=0 note=51 velocity=0 time=14
note_on channel=0 note=53 velocity=46 time=0
note_on channel=0 note=53 velocity=0 time=120
note_on channel=0 note=51 velocity=46 time=0
note_on channel=0 note=51 velocity=0 time=0
note_on channel=0 note=50 velocity=45 time=0
note_on channel=0 note=50 velocity=0 time=0
note_on channel=0 note=74 velocity=0 time=0
note_on channel=0 note=72 velocity=71 time=0
note_on channel=0 note=75 velocity=80 time=0
note_on channel=0 note=48 velocity=59 time=0
control_change channel=0 control=64 value=0 time=6
note_on channel=0 note=48 velocity=0 time=114
note_on channel=0 note=72 velocity=0 time=0
note_on channel=0 note=75 velocity=0 time=0
note_on channel=0 note=50 velocity=45 time=0
note_on channel=0 note=50 velocity=0 time=120
note_on channel=0 note=48 velocity=45 time=0
note_on channel=0 note=48 velocity=0 time=0
note_on channel=0 note=46 velocity=44 time=0
note_on channel=0 note=67 velocity=0 time=110
note_on channel=0 note=79 velocity=0 time=0
note_on channel=0 note=70 velocity=0 time=0
note_on channel=0 note=46 velocity=0 time=0
note_on channel=0 note=84 velocity=86 time=0
note_on channel=0 note=75 velocity=59 time=0
note_on channel=0 note=72 velocity=66 time=0
note_on channel=0 note=44 velocity=57 time=0
control_change channel=0 control=64 value=127 time=80
note_on channel=0 note=44 velocity=0 time=40
note_on channel=0 note=46 velocity=44 time=0
note_on channel=0 note=46 velocity=0 time=120
note_on channel=0 note=44 velocity=42 time=0
note_on channel=0 note=44 velocity=0 time=0
note_on channel=0 note=43 velocity=42 time=0
note_on channel=0 note=43 velocity=0 time=0
note_on channel=0 note=75 velocity=0 time=0
note_on channel=0 note=81 velocity=69 time=0
note_on channel=0 note=42 velocity=55 time=0
control_change channel=0 control=64 value=0 time=15
note_on channel=0 note=42 velocity=0 time=105
note_on channel=0 note=43 velocity=41 time=0
control_change channel=0 control=64 value=127 time=0
note_on channel=0 note=43 velocity=0 time=120
note_on channel=0 note=42 velocity=41 time=0
note_on channel=0 note=42 velocity=0 time=0
note_on channel=0 note=40 velocity=41 time=0
note_on channel=0 note=81 velocity=0 time=110
note_on channel=0 note=40 velocity=0 time=0
note_on channel=0 note=78 velocity=74 time=0
note_on channel=0 note=81 velocity=66 time=0
note_on channel=0 note=38 velocity=56 time=0
control_change channel=0 control=64 value=0 time=0
note_on channel=0 note=38 velocity=0 time=120
note_on channel=0 note=78 velocity=0 time=0
note_on channel=0 note=84 velocity=0 time=0
note_on channel=0 note=72 velocity=0 time=0
note_on channel=0 note=81 velocity=0 time=0
note_on channel=0 note=40 velocity=42 time=0
note_on channel=0 note=40 velocity=0 time=120
note_on channel=0 note=42 velocity=42 time=0
note_on channel=0 note=42 velocity=0 time=120
note_on channel=0 note=38 velocity=42 time=0
note_on channel=0 note=38 velocity=0 time=0
note_on channel=0 note=79 velocity=74 time=0
note_on channel=0 note=70 velocity=67 time=0
note_on channel=0 note=74 velocity=67 time=0
note_on channel=0 note=82 velocity=88 time=0
note_on channel=0 note=43 velocity=55 time=0
control_change channel=0 control=64 value=127 time=115
note_on channel=0 note=43 velocity=0 time=5
note_on channel=0 note=45 velocity=42 time=0
note_on channel=0 note=45 velocity=0 time=120
note_on channel=0 note=82 velocity=0 time=0
note_on channel=0 note=79 velocity=0 time=0
note_on channel=0 note=70 velocity=0 time=0
note_on channel=0 note=74 velocity=0 time=0
note_on channel=0 note=46 velocity=41 time=0
control_change channel=0 control=64 value=0 time=11
note_on channel=0 note=46 velocity=0 time=109
note_on channel=0 note=43 velocity=41 time=0
note_on channel=0 note=43 velocity=0 time=120
note_on channel=0 note=69 velocity=62 time=0
note_on channel=0 note=66 velocity=62 time=0
note_on channel=0 note=74 velocity=70 time=0
note_on channel=0 note=78 velocity=83 time=0
note_on channel=0 note=50 velocity=57 time=0
control_change channel=0 control=64 value=127 time=115
note_on channel=0 note=50 velocity=0 time=5
note_on channel=0 note=48 velocity=45 time=0
note_on channel=0 note=48 velocity=0 time=120
note_on channel=0 note=78 velocity=0 time=0
note_on channel=0 note=69 velocity=0 time=0
note_on channel=0 note=66 velocity=0 time=0
note_on channel=0 note=74 velocity=0 time=0
note_on channel=0 note=46 velocity=45 time=0
control_change channel=0 control=64 value=0 time=17
note_on channel=0 note=46 velocity=0 time=0
note_on channel=0 note=45 velocity=45 time=0
note_on channel=0 note=45 velocity=0 time=0
note_on channel=0 note=70 velocity=67 time=0
note_on channel=0 note=67 velocity=67 time=0
note_on channel=0 note=74 velocity=74 time=0
note_on channel=0 note=79 velocity=88 time=0
note_on channel=0 note=43 velocity=60 time=0
note_on channel=0 note=43 velocity=0 time=120
note_on channel=0 note=46 velocity=46 time=0
control_change channel=0 control=64 value=127 time=0
note_on channel=0 note=46 velocity=0 time=120
note_on channel=0 note=50 velocity=46 time=0
note_on channel=0 note=50 velocity=0 time=120
note_on channel=0 note=55 velocity=42 time=0
note_on channel=0 note=55 velocity=0 time=120
note_on channel=0 note=79 velocity=0 time=0
note_on channel=0 note=70 velocity=0 time=0
note_on channel=0 note=67 velocity=0 time=0
note_on channel=0 note=74 velocity=0 time=0
note_on channel=0 note=43 velocity=57 time=0
note_on channel=0 note=43 velocity=0 time=450
control_change channel=0 control=64 value=0 time=16
note_on channel=0 note=80 velocity=74 time=0
note_on channel=0 note=80 velocity=0 time=0
note_on channel=0 note=82 velocity=48 time=0
note_on channel=0 note=82 velocity=0 time=120
note_on channel=0 note=80 velocity=48 time=0
note_on channel=0 note=80 velocity=0 time=120
note_on channel=0 note=79 velocity=48 time=0
note_on channel=0 note=79 velocity=0 time=0
note_on channel=0 note=77 velocity=68 time=0
note_on channel=0 note=68 velocity=67 time=0
note_on channel=0 note=68 velocity=0 time=0
note_on channel=0 note=77 velocity=0 time=0
note_on channel=0 note=79 velocity=48 time=0
note_on channel=0 note=70 velocity=46 time=0
note_on channel=0 note=70 velocity=0 time=120
note_on channel=0 note=79 velocity=0 time=0
note_on channel=0 note=77 velocity=47 time=0
note_on channel=0 note=68 velocity=46 time=0
note_on channel=0 note=68 velocity=0 time=120
note_on channel=0 note=77 velocity=0 time=0
note_on channel=0 note=75 velocity=47 time=0
note_on channel=0 note=67 velocity=46 time=0
note_on channel=0 note=67 velocity=0 time=0
note_on channel=0 note=75 velocity=0 time=0
note_on channel=0 note=74 velocity=63 time=0
note_on channel=0 note=65 velocity=59 time=0
note_on channel=0 note=65 velocity=0 time=0
note_on channel=0 note=74 velocity=0 time=0
note_on channel=0 note=75 velocity=46 time=0
note_on channel=0 note=67 velocity=46 time=0
note_on channel=0 note=67 velocity=0 time=120
note_on channel=0 note=75 velocity=0 time=0
note_on channel=0 note=74 velocity=46 time=0
note_on channel=0 note=65 velocity=46 time=0
note_on channel=0 note=65 velocity=0 time=120
note_on channel=0 note=74 velocity=0 time=0
note_on channel=0 note=72 velocity=46 time=0
note_on channel=0 note=63 velocity=46 time=0
note_on channel=0 note=63 velocity=0 time=0
note_on channel=0 note=72 velocity=0 time=0
note_on channel=0 note=79 velocity=74 time=0
note_on channel=0 note=71 velocity=84 time=0
note_on channel=0 note=55 velocity=56 time=0
note_on channel=0 note=62 velocity=67 time=0
note_on channel=0 note=79 velocity=0 time=0
note_on channel=0 note=80 velocity=48 time=0
note_on channel=0 note=80 velocity=0 time=120
note_on channel=0 note=79 velocity=48 time=0
note_on channel=0 note=79 velocity=0 time=120
note_on channel=0 note=77 velocity=48 time=0
note_on channel=0 note=77 velocity=0 time=0
note_on channel=0 note=62 velocity=0 time=0
note_on channel=0 note=55 velocity=0 time=0
note_on channel=0 note=71 velocity=0 time=0
note_on channel=0 note=72 velocity=66 time=0
note_on channel=0 note=75 velocity=68 time=0
note_on channel=0 note=60 velocity=56 time=0
note_on channel=0 note=63 velocity=67 time=0
note_on channel=0 note=75 velocity=0 time=0
note_on channel=0 note=77 velocity=48 time=0
note_on channel=0 note=77 velocity=0 time=120
note_on channel=0 note=63 velocity=0 time=0
note_on channel=0 note=60 velocity=0 time=0
note_on channel=0 note=72 velocity=0 time=0
note_on channel=0 note=75 velocity=47 time=0
note_on channel=0 note=75 velocity=0 time=120
note_on channel=0 note=74 velocity=47 time=0
note_on channel=0 note=74 velocity=0 time=0
note_on channel=0 note=72 velocity=63 time=0
note_on channel=0 note=71 velocity=46 time=0
note_on channel=0 note=71 velocity=0 time=120
note_on channel=0 note=72 velocity=0 time=0
note_on channel=0 note=72 velocity=46 time=0
note_on channel=0 note=72 velocity=0 time=120
note_on channel=0 note=74 velocity=46 time=0
note_on channel=0 note=74 velocity=0 time=0
note_on channel=0 note=75 velocity=74 time=0
note_on channel=0 note=75 velocity=0 time=0
note_on channel=0 note=77 velocity=48 time=0
note_on channel=0 note=77 velocity=0 time=120
note_on channel=0 note=75 velocity=48 time=0
note_on channel=0 note=75 velocity=0 time=120
note_on channel=0 note=74 velocity=48 time=0
note_on channel=0 note=74 velocity=0 time=0
note_on channel=0 note=72 velocity=68 time=0
note_on channel=0 note=63 velocity=67 time=0
note_on channel=0 note=63 velocity=0 time=0
note_on channel=0 note=72 velocity=0 time=0
note_on channel=0 note=74 velocity=48 time=0
note_on channel=0 note=65 velocity=46 time=0
note_on channel=0 note=65 velocity=0 time=120
note_on channel=0 note=74 velocity=0 time=0
note_on channel=0 note=72 velocity=47 time=0
note_on channel=0 note=63 velocity=46 time=0
note_on channel=0 note=63 velocity=0 time=120
note_on channel=0 note=72 velocity=0 time=0
note_on channel=0 note=70 velocity=47 time=0
note_on channel=0 note=62 velocity=46 time=0
note_on channel=0 note=62 velocity=0 time=0
note_on channel=0 note=70 velocity=0 time=0
note_on channel=0 note=69 velocity=63 time=0
note_on channel=0 note=60 velocity=59 time=0
note_on channel=0 note=60 velocity=0 time=0
note_on channel=0 note=69 velocity=0 time=0
note_on channel=0 note=70 velocity=46 time=0
note_on channel=0 note=62 velocity=46 time=0
note_on channel=0 note=62 velocity=0 time=120
note_on channel=0 note=70 velocity=0 time=0
note_on channel=0 note=69 velocity=46 time=0
note_on channel=0 note=60 velocity=46 time=0
note_on channel=0 note=60 velocity=0 time=120
note_on channel=0 note=69 velocity=0 time=0
note_on channel=0 note=67 velocity=46 time=0
note_on channel=0 note=58 velocity=46 time=0
note_on channel=0 note=58 velocity=0 time=0
note_on channel=0 note=67 velocity=0 time=0
note_on channel=0 note=74 velocity=74 time=0
note_on channel=0 note=66 velocity=79 time=0
note_on channel=0 note=50 velocity=56 time=0
note_on channel=0 note=57 velocity=67 time=0
note_on channel=0 note=74 velocity=0 time=0
note_on channel=0 note=75 velocity=48 time=0
note_on channel=0 note=75 velocity=0 time=120
note_on channel=0 note=74 velocity=48 time=0
note_on channel=0 note=74 velocity=0 time=120
note_on channel=0 note=72 velocity=48 time=0
note_on channel=0 note=72 velocity=0 time=0
note_on channel=0 note=57 velocity=0 time=0
note_on channel=0 note=50 velocity=0 time=0
note_on channel=0 note=66 velocity=0 time=0
note_on channel=0 note=67 velocity=66 time=0
note_on channel=0 note=70 velocity=68 time=0
note_on channel=0 note=55 velocity=56 time=0
note_on channel=0 note=58 velocity=67 time=0
note_on channel=0 note=70 velocity=0 time=0
note_on channel=0 note=72 velocity=48 time=0
note_on channel=0 note=72 velocity=0 time=120
note_on channel=0 note=58 velocity=0 time=0
note_on channel=0 note=55 velocity=0 time=0
note_on channel=0 note=67 velocity=0 time=0
note_on channel=0 note=70 velocity=47 time=0
note_on channel=0 note=70 velocity=0 time=120
note_on channel=0 note=69 velocity=47 time=0
note_on channel=0 note=69 velocity=0 time=0
note_on channel=0 note=67 velocity=63 time=0
note_on channel=0 note=67 velocity=0 time=0
note_on channel=0 note=66 velocity=46 time=0
note_on channel=0 note=66 velocity=0 time=120
note_on channel=0 note=67 velocity=46 time=0
note_on channel=0 note=67 velocity=0 time=120
note_on channel=0 note=69 velocity=46 time=0
note_on channel=0 note=69 velocity=0 time=0
note_on channel=0 note=67 velocity=59 time=0
note_on channel=0 note=70 velocity=59 time=0
note_on channel=0 note=74 velocity=77 time=0
note_on channel=0 note=62 velocity=62 time=0
control_change channel=0 control=64 value=0 time=40
note_on channel=0 note=62 velocity=0 time=80
note_on channel=0 note=63 velocity=48 time=0
note_on channel=0 note=63 velocity=0 time=120
note_on channel=0 note=62 velocity=48 time=0
note_on channel=0 note=62 velocity=0 time=0
note_on channel=0 note=60 velocity=48 time=0
note_on channel=0 note=60 velocity=0 time=0
note_on channel=0 note=58 velocity=62 time=0
note_on channel=0 note=58 velocity=0 time=120
note_on channel=0 note=60 velocity=48 time=0
note_on channel=0 note=60 velocity=0 time=120
note_on channel=0 note=58 velocity=47 time=0
note_on channel=0 note=58 velocity=0 time=0
note_on channel=0 note=57 velocity=47 time=0
note_on channel=0 note=57 velocity=0 time=0
note_on channel=0 note=74 velocity=0 time=0
note_on channel=0 note=70 velocity=0 time=0
note_on channel=0 note=67 velocity=0 time=0
note_on channel=0 note=67 velocity=61 time=0
note_on channel=0 note=70 velocity=61 time=0
note_on channel=0 note=74 velocity=61 time=0
note_on channel=0 note=79 velocity=86 time=0
note_on channel=0 note=55 velocity=63 time=0
control_change channel=0 control=64 value=127 time=75
note_on channel=0 note=55 velocity=0 time=45
note_on channel=0 note=57 velocity=46 time=0
note_on channel=0 note=57 velocity=0 time=120
note_on channel=0 note=55 velocity=46 time=0
note_on channel=0 note=55 velocity=0 time=0
note_on channel=0 note=53 velocity=46 time=0
note_on channel=0 note=53 velocity=0 time=0
note_on channel=0 note=51 velocity=58 time=0
control_change channel=0 control=64 value=0 time=7
control_change channel=0 control=64 value=127 time=99
note_on channel=0 note=51 velocity=0 time=14
note_on channel=0 note=53 velocity=46 time=0
note_on channel=0 note=53 velocity=0 time=120
note_on channel=0 note=51 velocity=46 time=0
note_on channel=0 note=51 velocity=0 time=0
note_on channel=0 note=50 velocity=45 time=0
note_on channel=0 note=50 velocity=0 time=0
note_on channel=0 note=74 velocity=0 time=0
note_on channel=0 note=72 velocity=71 time=0
note_on channel=0 note=75 velocity=80 time=0
note_on channel=0 note=48 velocity=59 time=0
control_change channel=0 control=64 value=0 time=6
note_on channel=0 note=48 velocity=0 time=114
note_on channel=0 note=72 velocity=0 time=0
note_on channel=0 note=75 velocity=0 time=0
note_on channel=0 note=50 velocity=45 time=0
note_on channel=0 note=50 velocity=0 time=120
note_on channel=0 note=48 velocity=45 time=0
note_on channel=0 note=48 velocity=0 time=0
note_on channel=0 note=46 velocity=44 time=0
note_on channel=0 note=67 velocity=0 time=110
note_on channel=0 note=79 velocity=0 time=0
note_on channel=0 note=70 velocity=0 time=0
note_on channel=0 note=46 velocity=0 time=0
note_on channel=0 note=84 velocity=86 time=0
note_on channel=0 note=75 velocity=59 time=0
note_on channel=0 note=72 velocity=66 time=0
note_on channel=0 note=44 velocity=57 time=0
control_change channel=0 control=64 value=127 time=80
note_on channel=0 note=44 velocity=0 time=40
note_on channel=0 note=46 velocity=44 time=0
note_on channel=0 note=46 velocity=0 time=120
note_on channel=0 note=44 velocity=42 time=0
note_on channel=0 note=44 velocity=0 time=0
note_on channel=0 note=43 velocity=42 time=0
note_on channel=0 note=43 velocity=0 time=0
note_on channel=0 note=75 velocity=0 time=0
note_on channel=0 note=81 velocity=69 time=0
note_on channel=0 note=42 velocity=55 time=0
control_change channel=0 control=64 value=0 time=15
note_on channel=0 note=42 velocity=0 time=105
note_on channel=0 note=43 velocity=41 time=0
control_change channel=0 control=64 value=127 time=0
note_on channel=0 note=43 velocity=0 time=120
note_on channel=0 note=42 velocity=41 time=0
note_on channel=0 note=42 velocity=0 time=0
note_on channel=0 note=40 velocity=41 time=0
note_on channel=0 note=81 velocity=0 time=110
note_on channel=0 note=40 velocity=0 time=0
note_on channel=0 note=78 velocity=74 time=0
note_on channel=0 note=81 velocity=66 time=0
note_on channel=0 note=38 velocity=56 time=0
control_change channel=0 control=64 value=0 time=0
note_on channel=0 note=38 velocity=0 time=120
note_on channel=0 note=78 velocity=0 time=0
note_on channel=0 note=84 velocity=0 time=0
note_on channel=0 note=72 velocity=0 time=0
note_on channel=0 note=81 velocity=0 time=0
note_on channel=0 note=40 velocity=42 time=0
note_on channel=0 note=40 velocity=0 time=120
note_on channel=0 note=42 velocity=42 time=0
note_on channel=0 note=42 velocity=0 time=120
note_on channel=0 note=38 velocity=42 time=0
note_on channel=0 note=38 velocity=0 time=0
note_on channel=0 note=79 velocity=74 time=0
note_on channel=0 note=70 velocity=67 time=0
note_on channel=0 note=74 velocity=67 time=0
note_on channel=0 note=82 velocity=88 time=0
note_on channel=0 note=43 velocity=55 time=0
control_change channel=0 control=64 value=127 time=115
note_on channel=0 note=43 velocity=0 time=5
note_on channel=0 note=45 velocity=42 time=0
note_on channel=0 note=45 velocity=0 time=120
note_on channel=0 note=82 velocity=0 time=0
note_on channel=0 note=79 velocity=0 time=0
note_on channel=0 note=70 velocity=0 time=0
note_on channel=0 note=74 velocity=0 time=0
note_on channel=0 note=46 velocity=41 time=0
control_change channel=0 control=64 value=0 time=11
note_on channel=0 note=46 velocity=0 time=109
note_on channel=0 note=43 velocity=41 time=0
note_on channel=0 note=43 velocity=0 time=120
note_on channel=0 note=69 velocity=62 time=0
note_on channel=0 note=66 velocity=62 time=0
note_on channel=0 note=74 velocity=70 time=0
note_on channel=0 note=78 velocity=83 time=0
note_on channel=0 note=50 velocity=57 time=0
control_change channel=0 control=64 value=127 time=115
note_on channel=0 note=50 velocity=0 time=5
note_on channel=0 note=48 velocity=45 time=0
note_on channel=0 note=48 velocity=0 time=120
note_on channel=0 note=78 velocity=0 time=0
note_on channel=0 note=69 velocity=0 time=0
note_on channel=0 note=66 velocity=0 time=0
note_on channel=0 note=74 velocity=0 time=0
note_on channel=0 note=46 velocity=45 time=0
control_change channel=0 control=64 value=0 time=17
note_on channel=0 note=46 velocity=0 time=0
note_on channel=0 note=45 velocity=45 time=0
note_on channel=0 note=45 velocity=0 time=0
note_on channel=0 note=70 velocity=67 time=0
note_on channel=0 note=67 velocity=67 time=0
note_on channel=0 note=74 velocity=74 time=0
note_on channel=0 note=79 velocity=88 time=0
note_on channel=0 note=43 velocity=60 time=0
note_on channel=0 note=43 velocity=0 time=120
note_on channel=0 note=46 velocity=46 time=0
control_change channel=0 control=64 value=127 time=0
note_on channel=0 note=46 velocity=0 time=120
note_on channel=0 note=50 velocity=46 time=0
note_on channel=0 note=50 velocity=0 time=120
note_on channel=0 note=55 velocity=42 time=0
note_on channel=0 note=55 velocity=0 time=0
note_on channel=0 note=79 velocity=0 time=0
note_on channel=0 note=70 velocity=0 time=0
note_on channel=0 note=67 velocity=0 time=0
note_on channel=0 note=74 velocity=0 time=0
note_on channel=0 note=43 velocity=57 time=0
note_on channel=0 note=43 velocity=0 time=210
control_change channel=0 control=64 value=0 time=16
note_on channel=0 note=62 velocity=50 time=0
note_on channel=0 note=62 velocity=0 time=0
note_on channel=0 note=63 velocity=46 time=0
note_on channel=0 note=63 velocity=0 time=0
note_on channel=0 note=65 velocity=50 time=0
note_on channel=0 note=46 velocity=40 time=0
control_change channel=0 control=64 value=127 time=57
note_on channel=0 note=46 velocity=0 time=63
note_on channel=0 note=58 velocity=29 time=120
note_on channel=0 note=58 velocity=0 time=240
note_on channel=0 note=62 velocity=34 time=0
control_change channel=0 control=64 value=0 time=11
control_change channel=0 control=64 value=127 time=49
note_on channel=0 note=62 velocity=0 time=180
note_on channel=0 note=58 velocity=29 time=0
note_on channel=0 note=65 velocity=0 time=210
note_on channel=0 note=69 velocity=46 time=0
note_on channel=0 note=69 velocity=0 time=0
note_on channel=0 note=58 velocity=0 time=0
note_on channel=0 note=67 velocity=50 time=0
note_on channel=0 note=63 velocity=34 time=0
control_change channel=0 control=64 value=0 time=15
note_on channel=0 note=67 velocity=0 time=105
note_on channel=0 note=65 velocity=45 time=0
note_on channel=0 note=65 velocity=0 time=0
note_on channel=0 note=63 velocity=0 time=0
note_on channel=0 note=67 velocity=50 time=0
note_on channel=0 note=60 velocity=31 time=0
note_on channel=0 note=67 velocity=0 time=120
note_on channel=0 note=69 velocity=43 time=0
note_on channel=0 note=69 velocity=0 time=0
note_on channel=0 note=60 velocity=0 time=0
note_on channel=0 note=70 velocity=50 time=0
note_on channel=0 note=62 velocity=40 time=0
note_on channel=0 note=62 velocity=0 time=240
note_on channel=0 note=61 velocity=30 time=0
note_on channel=0 note=61 velocity=0 time=240
note_on channel=0 note=70 velocity=0 time=0
note_on channel=0 note=65 velocity=41 time=0
note_on channel=0 note=62 velocity=34 time=0
control_change channel=0 control=64 value=127 time=60
note_on channel=0 note=62 velocity=0 time=180
note_on channel=0 note=58 velocity=30 time=0
note_on channel=0 note=65 velocity=0 time=180
note_on channel=0 note=69 velocity=43 time=30
note_on channel=0 note=69 velocity=0 time=0
note_on channel=0 note=58 velocity=0 time=0
note_on channel=0 note=67 velocity=50 time=0
note_on channel=0 note=63 velocity=34 time=0
control_change channel=0 control=64 value=0 time=19
note_on channel=0 note=67 velocity=0 time=101
note_on channel=0 note=65 velocity=46 time=0
note_on channel=0 note=65 velocity=0 time=0
note_on channel=0 note=63 velocity=0 time=0
note_on channel=0 note=67 velocity=50 time=0
note_on channel=0 note=60 velocity=29 time=0
note_on channel=0 note=67 velocity=0 time=120
note_on channel=0 note=69 velocity=50 time=0
note_on channel=0 note=69 velocity=0 time=0
note_on channel=0 note=60 velocity=0 time=0
note_on channel=0 note=70 velocity=50 time=0
note_on channel=0 note=62 velocity=40 time=0
note_on channel=0 note=70 velocity=0 time=60
note_on channel=0 note=62 velocity=0 time=180
note_on channel=0 note=61 velocity=30 time=0
note_on channel=0 note=69 velocity=46 time=120
note_on channel=0 note=69 velocity=0 time=60
note_on channel=0 note=61 velocity=0 time=60
note_on channel=0 note=70 velocity=56 time=0
note_on channel=0 note=62 velocity=34 time=0
note_on channel=0 note=70 velocity=0 time=60
note_on channel=0 note=62 velocity=0 time=180
note_on channel=0 note=57 velocity=30 time=0
note_on channel=0 note=72 velocity=48 time=120
note_on channel=0 note=72 velocity=0 time=60
note_on channel=0 note=57 velocity=0 time=60
note_on channel=0 note=74 velocity=55 time=0
note_on channel=0 note=58 velocity=34 time=0
note_on channel=0 note=74 velocity=0 time=60
note_on channel=0 note=58 velocity=0 time=180
note_on channel=0 note=55 velocity=30 time=0
note_on channel=0 note=76 velocity=59 time=0
note_on channel=0 note=76 velocity=0 time=60
note_on channel=0 note=55 velocity=0 time=50
note_on channel=0 note=70 velocity=53 time=0
note_on channel=0 note=76 velocity=63 time=0
note_on channel=0 note=53 velocity=40 time=0
control_change channel=0 control=64 value=127 time=0
note_on channel=0 note=76 velocity=0 time=480
note_on channel=0 note=70 velocity=0 time=0
note_on channel=0 note=69 velocity=48 time=0
note_on channel=0 note=77 velocity=57 time=0
note_on channel=0 note=65 velocity=35 time=0
control_change channel=0 control=64 value=0 time=16
note_on channel=0 note=65 velocity=0 time=224
note_on channel=0 note=53 velocity=0 time=0
note_on channel=0 note=69 velocity=0 time=0
note_on channel=0 note=77 velocity=0 time=0
note_on channel=0 note=77 velocity=43 time=210
note_on channel=0 note=77 velocity=0 time=0
note_on channel=0 note=75 velocity=50 time=0
note_on channel=0 note=75 velocity=0 time=120
note_on channel=0 note=74 velocity=46 time=0
note_on channel=0 note=74 velocity=0 time=120
note_on channel=0 note=75 velocity=54 time=0
note_on channel=0 note=75 velocity=0 time=120
note_on channel=0 note=77 velocity=51 time=0
note_on channel=0 note=77 velocity=0 time=120
note_on channel=0 note=79 velocity=59 time=0
control_change channel=0 control=64 value=127 time=57
note_on channel=0 note=53 velocity=36 time=183
note_on channel=0 note=79 velocity=0 time=240
note_on channel=0 note=72 velocity=50 time=0
note_on channel=0 note=57 velocity=40 time=0
note_on channel=0 note=57 velocity=0 time=240
note_on channel=0 note=60 velocity=37 time=0
note_on channel=0 note=72 velocity=0 time=60
note_on channel=0 note=74 velocity=43 time=30
note_on channel=0 note=74 velocity=0 time=0
note_on channel=0 note=60 velocity=0 time=0
note_on channel=0 note=72 velocity=50 time=0
note_on channel=0 note=63 velocity=40 time=0
control_change channel=0 control=64 value=0 time=6
note_on channel=0 note=72 velocity=0 time=114
note_on channel=0 note=71 velocity=46 time=0
note_on channel=0 note=71 velocity=0 time=0
note_on channel=0 note=72 velocity=54 time=0
note_on channel=0 note=72 velocity=0 time=120
note_on channel=0 note=74 velocity=51 time=0
note_on channel=0 note=74 velocity=0 time=120
note_on channel=0 note=75 velocity=59 time=0
control_change channel=0 control=64 value=127 time=53
note_on channel=0 note=63 velocity=0 time=187
note_on channel=0 note=53 velocity=0 time=0
note_on channel=0 note=53 velocity=42 time=0
note_on channel=0 note=75 velocity=0 time=240
note_on channel=0 note=69 velocity=50 time=0
note_on channel=0 note=60 velocity=48 time=0
note_on channel=0 note=60 velocity=0 time=240
note_on channel=0 note=63 velocity=41 time=0
note_on channel=0 note=69 velocity=0 time=60
note_on channel=0 note=70 velocity=43 time=30
note_on channel=0 note=70 velocity=0 time=0
note_on channel=0 note=63 velocity=0 time=0
note_on channel=0 note=69 velocity=50 time=0
note_on channel=0 note=66 velocity=55 time=0
control_change channel=0 control=64 value=0 time=14
note_on channel=0 note=69 velocity=0 time=106
note_on channel=0 note=67 velocity=46 time=0
note_on channel=0 note=67 velocity=0 time=120
note_on channel=0 note=69 velocity=52 time=0
note_on channel=0 note=69 velocity=0 time=0
note_on channel=0 note=70 velocity=48 time=0
note_on channel=0 note=70 velocity=0 time=80
note_on channel=0 note=74 velocity=43 time=10
note_on channel=0 note=74 velocity=0 time=0
note_on channel=0 note=72 velocity=53 time=0
note_on channel=0 note=72 velocity=0 time=120
note_on channel=0 note=71 velocity=50 time=0
note_on channel=0 note=71 velocity=0 time=120
note_on channel=0 note=72 velocity=54 time=0
note_on channel=0 note=72 velocity=0 time=0
note_on channel=0 note=74 velocity=51 time=0
note_on channel=0 note=74 velocity=0 time=80
note_on channel=0 note=77 velocity=43 time=10
note_on channel=0 note=77 velocity=0 time=0
note_on channel=0 note=66 velocity=0 time=0
note_on channel=0 note=53 velocity=0 time=0
note_on channel=0 note=75 velocity=57 time=0
note_on channel=0 note=65 velocity=38 time=0
note_on channel=0 note=53 velocity=38 time=0
note_on channel=0 note=75 velocity=0 time=120
note_on channel=0 note=74 velocity=52 time=0
note_on channel=0 note=74 velocity=0 time=120
note_on channel=0 note=75 velocity=58 time=0
note_on channel=0 note=75 velocity=0 time=120
note_on channel=0 note=77 velocity=55 time=0
note_on channel=0 note=77 velocity=0 time=120
note_on channel=0 note=53 velocity=0 time=0
note_on channel=0 note=65 velocity=0 time=0
note_on channel=0 note=79 velocity=64 time=0
note_on channel=0 note=53 velocity=32 time=0
note_on channel=0 note=63 velocity=32 time=0
note_on channel=0 note=79 velocity=0 time=60
note_on channel=0 note=69 velocity=42 time=0
note_on channel=0 note=69 velocity=0 time=0
note_on channel=0 note=63 velocity=0 time=0
note_on channel=0 note=53 velocity=0 time=0
note_on channel=0 note=72 velocity=50 time=0
note_on channel=0 note=58 velocity=30 time=0
note_on channel=0 note=63 velocity=36 time=0
control_change channel=0 control=64 value=127 time=99
note_on channel=0 note=63 velocity=0 time=0
note_on channel=0 note=72 velocity=0 time=0
note_on channel=0 note=70 velocity=44 time=0
note_on channel=0 note=62 velocity=32 time=0
control_change channel=0 control=64 value=0 time=13
control_change channel=0 control=64 value=127 time=114
note_on channel=0 note=62 velocity=0 time=113
note_on channel=0 note=70 velocity=0 time=0
note_on channel=0 note=58 velocity=0 time=0
control_change channel=0 control=64 value=0 time=141
note_on channel=0 note=69 velocity=38 time=0
note_on channel=0 note=74 velocity=46 time=0
note_on channel=0 note=66 velocity=38 time=0
control_change channel=0 control=64 value=127 time=3
note_on channel=0 note=66 velocity=0 time=45
note_on channel=0 note=74 velocity=0 time=0
note_on channel=0 note=69 velocity=0 time=0
note_on channel=0 note=70 velocity=34 time=0
note_on channel=0 note=73 velocity=41 time=0
note_on channel=0 note=67 velocity=33 time=0
note_on channel=0 note=67 velocity=0 time=53
note_on channel=0 note=73 velocity=0 time=0
note_on channel=0 note=70 velocity=0 time=0
note_on channel=0 note=69 velocity=41 time=0
note_on channel=0 note=74 velocity=49 time=0
note_on channel=0 note=66 velocity=41 time=0
note_on channel=0 note=66 velocity=0 time=38
note_on channel=0 note=74 velocity=0 time=0
note_on channel=0 note=69 velocity=0 time=0
note_on channel=0 note=70 velocity=34 time=0
note_on channel=0 note=73 velocity=40 time=0
note_on channel=0 note=67 velocity=38 time=0
note_on channel=0 note=67 velocity=0 time=18
note_on channel=0 note=73 velocity=0 time=0
note_on channel=0 note=70 velocity=0 time=0
note_on channel=0 note=69 velocity=45 time=0
note_on channel=0 note=74 velocity=53 time=0
note_on channel=0 note=66 velocity=45 time=0
control_change channel=0 control=64 value=0 time=7
control_change channel=0 control=64 value=127 time=11
note_on channel=0 note=66 velocity=0 time=23
note_on channel=0 note=74 velocity=0 time=0
note_on channel=0 note=69 velocity=0 time=0
note_on channel=0 note=70 velocity=40 time=0
note_on channel=0 note=73 velocity=49 time=0
note_on channel=0 note=67 velocity=39 time=0
note_on channel=0 note=67 velocity=0 time=9
note_on channel=0 note=73 velocity=0 time=0
note_on channel=0 note=70 velocity=0 time=0
note_on channel=0 note=69 velocity=48 time=0
note_on channel=0 note=74 velocity=57 time=0
note_on channel=0 note=66 velocity=48 time=0
note_on channel=0 note=66 velocity=0 time=33
note_on channel=0 note=74 velocity=0 time=0
note_on channel=0 note=69 velocity=0 time=0
note_on channel=0 note=70 velocity=39 time=0
note_on channel=0 note=73 velocity=46 time=0
note_on channel=0 note=67 velocity=44 time=0
note_on channel=0 note=67 velocity=0 time=5
note_on channel=0 note=73 velocity=0 time=0
note_on channel=0 note=70 velocity=0 time=0
note_on channel=0 note=69 velocity=52 time=0
note_on channel=0 note=74 velocity=62 time=0
note_on channel=0 note=66 velocity=52 time=0
control_change channel=0 control=64 value=0 time=22
control_change channel=0 control=64 value=127 time=49
note_on channel=0 note=66 velocity=0 time=49
note_on channel=0 note=74 velocity=0 time=0
note_on channel=0 note=69 velocity=0 time=0
note_on channel=0 note=70 velocity=47 time=0
note_on channel=0 note=73 velocity=56 time=0
note_on channel=0 note=67 velocity=44 time=0
note_on channel=0 note=67 velocity=0 time=110
note_on channel=0 note=73 velocity=0 time=0
note_on channel=0 note=70 velocity=0 time=0
note_on channel=0 note=69 velocity=55 time=0
note_on channel=0 note=74 velocity=66 time=0
note_on channel=0 note=66 velocity=55 time=0
note_on channel=0 note=66 velocity=0 time=0
note_on channel=0 note=74 velocity=0 time=0
note_on channel=0 note=69 velocity=0 time=0
note_on channel=0 note=70 velocity=46 time=0
note_on channel=0 note=73 velocity=54 time=0
note_on channel=0 note=67 velocity=51 time=0
note_on channel=0 note=67 velocity=0 time=5
note_on channel=0 note=73 velocity=0 time=0
note_on channel=0 note=70 velocity=0 time=0
note_on channel=0 note=69 velocity=59 time=0
note_on channel=0 note=74 velocity=70 time=0
note_on channel=0 note=66 velocity=59 time=0
control_change channel=0 control=64 value=0 time=16
control_change channel=0 control=64 value=127 time=59
note_on channel=0 note=66 velocity=0 time=9
note_on channel=0 note=74 velocity=0 time=0
note_on channel=0 note=69 velocity=0 time=0
note_on channel=0 note=70 velocity=53 time=0
note_on channel=0 note=73 velocity=63 time=0
note_on channel=0 note=67 velocity=51 time=0
note_on channel=0 note=67 velocity=0 time=14
note_on channel=0 note=73 velocity=0 time=0
note_on channel=0 note=70 velocity=0 time=0
note_on channel=0 note=69 velocity=63 time=0
note_on channel=0 note=74 velocity=74 time=0
note_on channel=0 note=66 velocity=63 time=0
note_on channel=0 note=66 velocity=0 time=0
note_on channel=0 note=74 velocity=0 time=0
note_on channel=0 note=69 velocity=0 time=0
note_on channel=0 note=70 velocity=52 time=0
note_on channel=0 note=73 velocity=61 time=0
note_on channel=0 note=67 velocity=58 time=0
note_on channel=0 note=67 velocity=0 time=0
note_on channel=0 note=73 velocity=0 time=0
note_on channel=0 note=70 velocity=0 time=0
note_on channel=0 note=69 velocity=82 time=0
note_on channel=0 note=74 velocity=82 time=0
note_on channel=0 note=66 velocity=69 time=0
control_change channel=0 control=64 value=0 time=0
note_on channel=0 note=66 velocity=0 time=240
note_on channel=0 note=74 velocity=0 time=0
note_on channel=0 note=69 velocity=0 time=0
note_on channel=0 note=86 velocity=100 time=240
note_on channel=0 note=78 velocity=84 time=0
note_on channel=0 note=50 velocity=62 time=0
note_on channel=0 note=62 velocity=74 time=0
control_change channel=0 control=64 value=127 time=106
note_on channel=0 note=62 velocity=0 time=614
note_on channel=0 note=86 velocity=0 time=0
note_on channel=0 note=78 velocity=0 time=0
note_on channel=0 note=50 velocity=0 time=0
note_on channel=0 note=84 velocity=75 time=0
note_on channel=0 note=78 velocity=63 time=0
note_on channel=0 note=50 velocity=46 time=0
note_on channel=0 note=62 velocity=56 time=0
control_change channel=0 control=64 value=0 time=16
note_on channel=0 note=62 velocity=0 time=104
note_on channel=0 note=84 velocity=0 time=0
note_on channel=0 note=78 velocity=0 time=0
note_on channel=0 note=50 velocity=0 time=0
note_on channel=0 note=82 velocity=91 time=0
note_on channel=0 note=79 velocity=77 time=0
note_on channel=0 note=51 velocity=57 time=0
note_on channel=0 note=63 velocity=68 time=0
control_change channel=0 control=64 value=127 time=60
note_on channel=0 note=63 velocity=0 time=180
note_on channel=0 note=82 velocity=0 time=0
note_on channel=0 note=79 velocity=0 time=0
note_on channel=0 note=51 velocity=0 time=0
control_change channel=0 control=64 value=0 time=0
note_on channel=0 note=81 velocity=73 time=0
note_on channel=0 note=75 velocity=61 time=0
note_on channel=0 note=48 velocity=45 time=0
note_on channel=0 note=60 velocity=53 time=0
note_on channel=0 note=60 velocity=0 time=60
note_on channel=0 note=81 velocity=0 time=0
note_on channel=0 note=75 velocity=0 time=0
note_on channel=0 note=48 velocity=0 time=0
note_on channel=0 note=70 velocity=72 time=0
note_on channel=0 note=79 velocity=85 time=0
note_on channel=0 note=50 velocity=53 time=0
note_on channel=0 note=62 velocity=63 time=0
control_change channel=0 control=64 value=127 time=50
note_on channel=0 note=62 velocity=0 time=190
note_on channel=0 note=70 velocity=0 time=0
note_on channel=0 note=79 velocity=0 time=0
note_on channel=0 note=50 velocity=0 time=0
control_change channel=0 control=64 value=0 time=53
note_on channel=0 note=72 velocity=69 time=187
note_on channel=0 note=78 velocity=81 time=0
note_on channel=0 note=38 velocity=51 time=0
note_on channel=0 note=50 velocity=61 time=0
note_on channel=0 note=50 velocity=0 time=0
note_on channel=0 note=72 velocity=0 time=0
note_on channel=0 note=78 velocity=0 time=0
note_on channel=0 note=38 velocity=0 time=0
note_on channel=0 note=72 velocity=69 time=0
note_on channel=0 note=81 velocity=82 time=0
note_on channel=0 note=43 velocity=51 time=0
note_on channel=0 note=55 velocity=61 time=0
control_change channel=0 control=64 value=127 time=141
note_on channel=0 note=81 velocity=0 time=339
note_on channel=0 note=72 velocity=0 time=0
note_on channel=0 note=70 velocity=61 time=0
note_on channel=0 note=79 velocity=72 time=0
control_change channel=0 control=64 value=0 time=17
note_on channel=0 note=79 velocity=0 time=223
note_on channel=0 note=55 velocity=0 time=0
note_on channel=0 note=43 velocity=0 time=0
note_on channel=0 note=70 velocity=0 time=0
note_on channel=0 note=56 velocity=25 time=18
note_on channel=0 note=58 velocity=30 time=0
note_on channel=0 note=50 velocity=25 time=0
control_change channel=0 control=64 value=127 time=26
note_on channel=0 note=59 velocity=27 time=4
note_on channel=0 note=51 velocity=22 time=0
note_on channel=0 note=50 velocity=0 time=1
note_on channel=0 note=56 velocity=0 time=0
note_on channel=0 note=58 velocity=0 time=0
note_on channel=0 note=56 velocity=27 time=9
note_on channel=0 note=58 velocity=33 time=0
note_on channel=0 note=50 velocity=27 time=0
note_on channel=0 note=59 velocity=0 time=1
note_on channel=0 note=51 velocity=0 time=0
note_on channel=0 note=59 velocity=27 time=13
note_on channel=0 note=51 velocity=24 time=0
note_on channel=0 note=58 velocity=0 time=1
note_on channel=0 note=50 velocity=0 time=0
note_on channel=0 note=56 velocity=0 time=0
note_on channel=0 note=56 velocity=29 time=21
note_on channel=0 note=58 velocity=35 time=0
note_on channel=0 note=50 velocity=29 time=0
note_on channel=0 note=59 velocity=0 time=1
note_on channel=0 note=51 velocity=0 time=0
control_change channel=0 control=64 value=0 time=7
control_change channel=0 control=64 value=127 time=13
note_on channel=0 note=59 velocity=32 time=26
note_on channel=0 note=51 velocity=25 time=0
note_on channel=0 note=58 velocity=0 time=1
note_on channel=0 note=50 velocity=0 time=0
note_on channel=0 note=56 velocity=0 time=0
note_on channel=0 note=56 velocity=32 time=31
note_on channel=0 note=58 velocity=37 time=0
note_on channel=0 note=50 velocity=32 time=0
note_on channel=0 note=59 velocity=0 time=1
note_on channel=0 note=51 velocity=0 time=0
note_on channel=0 note=59 velocity=30 time=36
note_on channel=0 note=51 velocity=29 time=0
note_on channel=0 note=58 velocity=0 time=1
note_on channel=0 note=50 velocity=0 time=0
note_on channel=0 note=56 velocity=0 time=0
note_on channel=0 note=56 velocity=34 time=5
note_on channel=0 note=58 velocity=41 time=0
note_on channel=0 note=50 velocity=34 time=0
note_on channel=0 note=59 velocity=0 time=1
note_on channel=0 note=51 velocity=0 time=0
control_change channel=0 control=64 value=0 time=8
control_change channel=0 control=64 value=127 time=50
note_on channel=0 note=59 velocity=38 time=48
note_on channel=0 note=51 velocity=30 time=0
note_on channel=0 note=58 velocity=0 time=1
note_on channel=0 note=50 velocity=0 time=0
note_on channel=0 note=56 velocity=0 time=0
note_on channel=0 note=56 velocity=37 time=53
note_on channel=0 note=58 velocity=44 time=0
note_on channel=0 note=50 velocity=37 time=0
note_on channel=0 note=59 velocity=0 time=1
note_on channel=0 note=51 velocity=0 time=0
note_on channel=0 note=59 velocity=35 time=0
note_on channel=0 note=51 velocity=34 time=0
note_on channel=0 note=58 velocity=0 time=1
note_on channel=0 note=50 velocity=0 time=0
note_on channel=0 note=56 velocity=0 time=0
note_on channel=0 note=56 velocity=39 time=5
note_on channel=0 note=58 velocity=46 time=0
note_on channel=0 note=50 velocity=39 time=0
note_on channel=0 note=59 velocity=0 time=1
note_on channel=0 note=51 velocity=0 time=0
control_change channel=0 control=64 value=0 time=18
control_change channel=0 control=64 value=127 time=19
note_on channel=0 note=59 velocity=42 time=9
note_on channel=0 note=51 velocity=34 time=0
note_on channel=0 note=58 velocity=0 time=1
note_on channel=0 note=50 velocity=0 time=0
note_on channel=0 note=56 velocity=0 time=0
note_on channel=0 note=56 velocity=41 time=14
note_on channel=0 note=58 velocity=49 time=0
note_on channel=0 note=50 velocity=41 time=0
note_on channel=0 note=59 velocity=0 time=1
note_on channel=0 note=51 velocity=0 time=0
note_on channel=0 note=59 velocity=41 time=0
note_on channel=0 note=51 velocity=38 time=0
note_on channel=0 note=58 velocity=0 time=1
note_on channel=0 note=50 velocity=0 time=0
note_on channel=0 note=56 velocity=0 time=0
note_on channel=0 note=56 velocity=65 time=0
note_on channel=0 note=58 velocity=65 time=0
note_on channel=0 note=50 velocity=54 time=0
control_change channel=0 control=64 value=0 time=0
note_on channel=0 note=59 velocity=0 time=1
note_on channel=0 note=51 velocity=0 time=0
note_on channel=0 note=58 velocity=0 time=239
note_on channel=0 note=56 velocity=0 time=0
note_on channel=0 note=50 velocity=0 time=0
note_on channel=0 note=80 velocity=85 time=240
note_on channel=0 note=71 velocity=72 time=0
note_on channel=0 note=50 velocity=53 time=0
note_on channel=0 note=53 velocity=64 time=0
control_change channel=0 control=64 value=127 time=106
note_on channel=0 note=53 velocity=0 time=614
note_on channel=0 note=80 velocity=0 time=0
note_on channel=0 note=71 velocity=0 time=0
note_on channel=0 note=50 velocity=0 time=0
note_on channel=0 note=79 velocity=59 time=0
note_on channel=0 note=72 velocity=49 time=0
note_on channel=0 note=51 velocity=36 time=0
note_on channel=0 note=55 velocity=43 time=0
control_change channel=0 control=64 value=0 time=16
note_on channel=0 note=55 velocity=0 time=0
note_on channel=0 note=79 velocity=0 time=0
note_on channel=0 note=72 velocity=0 time=0
note_on channel=0 note=51 velocity=0 time=0
note_on channel=0 note=77 velocity=70 time=0
note_on channel=0 note=68 velocity=58 time=0
note_on channel=0 note=47 velocity=43 time=0
note_on channel=0 note=50 velocity=51 time=0
control_change channel=0 control=64 value=127 time=60
note_on channel=0 note=50 velocity=0 time=0
note_on channel=0 note=77 velocity=0 time=0
note_on channel=0 note=68 velocity=0 time=0
note_on channel=0 note=47 velocity=0 time=0
note_on channel=0 note=75 velocity=53 time=0
note_on channel=0 note=67 velocity=45 time=0
note_on channel=0 note=48 velocity=32 time=0
note_on channel=0 note=51 velocity=39 time=0
control_change channel=0 control=64 value=0 time=7
note_on channel=0 note=51 velocity=0 time=0
note_on channel=0 note=75 velocity=0 time=0
note_on channel=0 note=67 velocity=0 time=0
note_on channel=0 note=48 velocity=0 time=0
note_on channel=0 note=65 velocity=52 time=0
note_on channel=0 note=74 velocity=61 time=0
note_on channel=0 note=50 velocity=38 time=0
note_on channel=0 note=53 velocity=45 time=0
control_change channel=0 control=64 value=127 time=113
note_on channel=0 note=53 velocity=0 time=367
note_on channel=0 note=65 velocity=0 time=0
note_on channel=0 note=74 velocity=0 time=0
note_on channel=0 note=50 velocity=0 time=0
note_on channel=0 note=63 velocity=46 time=0
note_on channel=0 note=72 velocity=54 time=0
note_on channel=0 note=51 velocity=34 time=0
note_on channel=0 note=55 velocity=41 time=0
control_change channel=0 control=64 value=0 time=60
note_on channel=0 note=55 velocity=0 time=0
note_on channel=0 note=63 velocity=0 time=0
note_on channel=0 note=72 velocity=0 time=0
note_on channel=0 note=51 velocity=0 time=0
note_on channel=0 note=62 velocity=40 time=0
note_on channel=0 note=70 velocity=48 time=0
note_on channel=0 note=53 velocity=36 time=0
control_change channel=0 control=64 value=127 time=141
note_on channel=0 note=53 velocity=0 time=339
note_on channel=0 note=70 velocity=0 time=0
note_on channel=0 note=62 velocity=0 time=0
note_on channel=0 note=60 velocity=36 time=0
note_on channel=0 note=69 velocity=42 time=0
note_on channel=0 note=41 velocity=30 time=0
control_change channel=0 control=64 value=0 time=17
note_on channel=0 note=41 velocity=0 time=223
note_on channel=0 note=69 velocity=0 time=0
note_on channel=0 note=60 velocity=0 time=0
note_on channel=0 note=62 velocity=50 time=0
note_on channel=0 note=62 velocity=0 time=0
note_on channel=0 note=63 velocity=46 time=0
note_on channel=0 note=63 velocity=0 time=0
note_on channel=0 note=65 velocity=50 time=0
note_on channel=0 note=46 velocity=40 time=0
control_change channel=0 control=64 value=127 time=57
note_on channel=0 note=46 velocity=0 time=63
note_on channel=0 note=58 velocity=29 time=120
note_on channel=0 note=58 velocity=0 time=240
note_on channel=0 note=62 velocity=34 time=0
control_change channel=0 control=64 value=0 time=11
control_change channel=0 control=64 value=127 time=49
note_on channel=0 note=62 velocity=0 time=180
note_on channel=0 note=58 velocity=29 time=0
note_on channel=0 note=65 velocity=0 time=210
note_on channel=0 note=69 velocity=46 time=0
note_on channel=0 note=69 velocity=0 time=0
note_on channel=0 note=58 velocity=0 time=0
note_on channel=0 note=67 velocity=50 time=0
note_on channel=0 note=63 velocity=34 time=0
control_change channel=0 control=64 value=0 time=15
note_on channel=0 note=67 velocity=0 time=105
note_on channel=0 note=65 velocity=45 time=0
note_on channel=0 note=65 velocity=0 time=0
note_on channel=0 note=63 velocity=0 time=0
note_on channel=0 note=67 velocity=50 time=0
note_on channel=0 note=60 velocity=31 time=0
note_on channel=0 note=67 velocity=0 time=120
note_on channel=0 note=69 velocity=43 time=0
note_on channel=0 note=69 velocity=0 time=0
note_on channel=0 note=60 velocity=0 time=0
note_on channel=0 note=70 velocity=50 time=0
note_on channel=0 note=62 velocity=40 time=0
note_on channel=0 note=62 velocity=0 time=240
note_on channel=0 note=61 velocity=30 time=0
note_on channel=0 note=61 velocity=0 time=240
note_on channel=0 note=70 velocity=0 time=0
note_on channel=0 note=65 velocity=41 time=0
note_on channel=0 note=62 velocity=34 time=0
control_change channel=0 control=64 value=127 time=60
note_on channel=0 note=62 velocity=0 time=180
note_on channel=0 note=58 velocity=30 time=0
note_on channel=0 note=65 velocity=0 time=180
note_on channel=0 note=69 velocity=43 time=30
note_on channel=0 note=69 velocity=0 time=0
note_on channel=0 note=58 velocity=0 time=0
note_on channel=0 note=67 velocity=50 time=0
note_on channel=0 note=63 velocity=34 time=0
control_change channel=0 control=64 value=0 time=19
note_on channel=0 note=67 velocity=0 time=101
note_on channel=0 note=65 velocity=46 time=0
note_on channel=0 note=65 velocity=0 time=0
note_on channel=0 note=63 velocity=0 time=0
note_on channel=0 note=67 velocity=50 time=0
note_on channel=0 note=60 velocity=29 time=0
note_on channel=0 note=67 velocity=0 time=120
note_on channel=0 note=69 velocity=50 time=0
note_on channel=0 note=69 velocity=0 time=0
note_on channel=0 note=60 velocity=0 time=0
note_on channel=0 note=70 velocity=50 time=0
note_on channel=0 note=62 velocity=40 time=0
note_on channel=0 note=70 velocity=0 time=60
note_on channel=0 note=62 velocity=0 time=180
note_on channel=0 note=61 velocity=30 time=0
note_on channel=0 note=69 velocity=46 time=120
note_on channel=0 note=69 velocity=0 time=60
note_on channel=0 note=61 velocity=0 time=60
note_on channel=0 note=70 velocity=56 time=0
note_on channel=0 note=62 velocity=34 time=0
note_on channel=0 note=70 velocity=0 time=60
note_on channel=0 note=62 velocity=0 time=180
note_on channel=0 note=57 velocity=30 time=0
note_on channel=0 note=72 velocity=48 time=120
note_on channel=0 note=72 velocity=0 time=60
note_on channel=0 note=57 velocity=0 time=60
note_on channel=0 note=74 velocity=55 time=0
note_on channel=0 note=58 velocity=34 time=0
note_on channel=0 note=74 velocity=0 time=60
note_on channel=0 note=58 velocity=0 time=180
note_on channel=0 note=55 velocity=30 time=0
note_on channel=0 note=76 velocity=59 time=0
note_on channel=0 note=76 velocity=0 time=60
note_on channel=0 note=55 velocity=0 time=50
note_on channel=0 note=70 velocity=53 time=0
note_on channel=0 note=76 velocity=63 time=0
note_on channel=0 note=53 velocity=40 time=0
control_change channel=0 control=64 value=127 time=0
note_on channel=0 note=76 velocity=0 time=480
note_on channel=0 note=70 velocity=0 time=0
note_on channel=0 note=69 velocity=48 time=0
note_on channel=0 note=77 velocity=57 time=0
note_on channel=0 note=65 velocity=35 time=0
control_change channel=0 control=64 value=0 time=16
note_on channel=0 note=65 velocity=0 time=224
note_on channel=0 note=53 velocity=0 time=0
note_on channel=0 note=69 velocity=0 time=0
note_on channel=0 note=77 velocity=0 time=0
note_on channel=0 note=77 velocity=43 time=210
note_on channel=0 note=77 velocity=0 time=0
note_on channel=0 note=75 velocity=50 time=0
note_on channel=0 note=75 velocity=0 time=120
note_on channel=0 note=74 velocity=46 time=0
note_on channel=0 note=74 velocity=0 time=120
note_on channel=0 note=75 velocity=54 time=0
note_on channel=0 note=75 velocity=0 time=120
note_on channel=0 note=77 velocity=51 time=0
note_on channel=0 note=77 velocity=0 time=120
note_on channel=0 note=79 velocity=59 time=0
control_change channel=0 control=64 value=127 time=57
note_on channel=0 note=41 velocity=37 time=63
note_on channel=0 note=41 velocity=0 time=120
note_on channel=0 note=45 velocity=38 time=0
note_on channel=0 note=45 velocity=0 time=120
note_on channel=0 note=48 velocity=39 time=0
note_on channel=0 note=48 velocity=0 time=0
note_on channel=0 note=79 velocity=0 time=0
note_on channel=0 note=72 velocity=50 time=0
note_on channel=0 note=53 velocity=40 time=0
note_on channel=0 note=53 velocity=0 time=120
note_on channel=0 note=57 velocity=41 time=0
note_on channel=0 note=57 velocity=0 time=120
note_on channel=0 note=60 velocity=42 time=0
note_on channel=0 note=60 velocity=0 time=0
note_on channel=0 note=62 velocity=43 time=0
note_on channel=0 note=72 velocity=0 time=60
note_on channel=0 note=74 velocity=43 time=30
note_on channel=0 note=74 velocity=0 time=0
note_on channel=0 note=62 velocity=0 time=0
note_on channel=0 note=72 velocity=50 time=0
note_on channel=0 note=63 velocity=48 time=0
control_change channel=0 control=64 value=0 time=6
note_on channel=0 note=72 velocity=0 time=114
note_on channel=0 note=71 velocity=46 time=0
note_on channel=0 note=71 velocity=0 time=120
note_on channel=0 note=72 velocity=54 time=0
note_on channel=0 note=72 velocity=0 time=120
note_on channel=0 note=74 velocity=51 time=0
note_on channel=0 note=74 velocity=0 time=120
note_on channel=0 note=75 velocity=59 time=0
control_change channel=0 control=64 value=127 time=53
note_on channel=0 note=63 velocity=0 time=67
note_on channel=0 note=41 velocity=37 time=0
note_on channel=0 note=41 velocity=0 time=120
note_on channel=0 note=45 velocity=41 time=0
note_on channel=0 note=45 velocity=0 time=120
note_on channel=0 note=48 velocity=43 time=0
note_on channel=0 note=48 velocity=0 time=0
note_on channel=0 note=75 velocity=0 time=0
note_on channel=0 note=69 velocity=50 time=0
note_on channel=0 note=53 velocity=44 time=0
note_on channel=0 note=53 velocity=0 time=120
note_on channel=0 note=57 velocity=46 time=0
note_on channel=0 note=57 velocity=0 time=120
note_on channel=0 note=60 velocity=48 time=0
note_on channel=0 note=60 velocity=0 time=0
note_on channel=0 note=63 velocity=49 time=0
note_on channel=0 note=69 velocity=0 time=60
note_on channel=0 note=70 velocity=43 time=30
note_on channel=0 note=70 velocity=0 time=0
note_on channel=0 note=63 velocity=0 time=0
note_on channel=0 note=69 velocity=50 time=0
note_on channel=0 note=66 velocity=55 time=0
control_change channel=0 control=64 value=0 time=14
note_on channel=0 note=69 velocity=0 time=106
note_on channel=0 note=67 velocity=46 time=0
note_on channel=0 note=67 velocity=0 time=120
note_on channel=0 note=69 velocity=52 time=0
note_on channel=0 note=69 velocity=0 time=0
note_on channel=0 note=70 velocity=48 time=0
note_on channel=0 note=70 velocity=0 time=80
note_on channel=0 note=74 velocity=43 time=10
note_on channel=0 note=74 velocity=0 time=0
note_on channel=0 note=72 velocity=53 time=0
note_on channel=0 note=72 velocity=0 time=120
note_on channel=0 note=71 velocity=50 time=0
note_on channel=0 note=71 velocity=0 time=120
note_on channel=0 note=72 velocity=54 time=0
note_on channel=0 note=72 velocity=0 time=0
note_on channel=0 note=74 velocity=51 time=0
note_on channel=0 note=74 velocity=0 time=80
note_on channel=0 note=77 velocity=43 time=10
note_on channel=0 note=77 velocity=0 time=0
note_on channel=0 note=66 velocity=0 time=0
note_on channel=0 note=75 velocity=57 time=0
note_on channel=0 note=65 velocity=38 time=0
note_on channel=0 note=53 velocity=38 time=0
note_on channel=0 note=75 velocity=0 time=120
note_on channel=0 note=74 velocity=52 time=0
note_on channel=0 note=74 velocity=0 time=120
note_on channel=0 note=75 velocity=58 time=0
note_on channel=0 note=75 velocity=0 time=120
note_on channel=0 note=77 velocity=55 time=0
note_on channel=0 note=77 velocity=0 time=120
note_on channel=0 note=53 velocity=0 time=0
note_on channel=0 note=65 velocity=0 time=0
note_on channel=0 note=79 velocity=61 time=0
note_on channel=0 note=53 velocity=32 time=0
note_on channel=0 note=63 velocity=32 time=0
note_on channel=0 note=79 velocity=0 time=120
note_on channel=0 note=75 velocity=59 time=0
note_on channel=0 note=75 velocity=0 time=0
note_on channel=0 note=72 velocity=52 time=0
note_on channel=0 note=72 velocity=0 time=0
note_on channel=0 note=69 velocity=42 time=0
note_on channel=0 note=69 velocity=0 time=0
note_on channel=0 note=63 velocity=0 time=0
note_on channel=0 note=53 velocity=0 time=0
note_on channel=0 note=70 velocity=50 time=0
note_on channel=0 note=46 velocity=40 time=0
control_change channel=0 control=64 value=127 time=57
note_on channel=0 note=46 velocity=0 time=63
note_on channel=0 note=58 velocity=29 time=120
note_on channel=0 note=58 velocity=0 time=240
note_on channel=0 note=70 velocity=0 time=0
note_on channel=0 note=62 velocity=34 time=0
control_change channel=0 control=64 value=0 time=11
control_change channel=0 control=64 value=127 time=49
note_on channel=0 note=62 velocity=0 time=180
note_on channel=0 note=58 velocity=29 time=0
note_on channel=0 note=81 velocity=46 time=210
note_on channel=0 note=81 velocity=0 time=30
note_on channel=0 note=58 velocity=0 time=0
note_on channel=0 note=79 velocity=50 time=0
note_on channel=0 note=63 velocity=34 time=0
control_change channel=0 control=64 value=0 time=15
note_on channel=0 note=79 velocity=0 time=105
note_on channel=0 note=78 velocity=45 time=0
note_on channel=0 note=78 velocity=0 time=0
note_on channel=0 note=63 velocity=0 time=0
note_on channel=0 note=79 velocity=50 time=0
note_on channel=0 note=58 velocity=31 time=0
note_on channel=0 note=79 velocity=0 time=120
note_on channel=0 note=81 velocity=43 time=0
note_on channel=0 note=81 velocity=0 time=0
note_on channel=0 note=58 velocity=0 time=0
note_on channel=0 note=82 velocity=50 time=0
note_on channel=0 note=62 velocity=40 time=0
note_on channel=0 note=62 velocity=0 time=240
note_on channel=0 note=61 velocity=30 time=0
note_on channel=0 note=61 velocity=0 time=240
note_on channel=0 note=82 velocity=0 time=0
note_on channel=0 note=77 velocity=41 time=0
note_on channel=0 note=62 velocity=34 time=0
control_change channel=0 control=64 value=127 time=60
note_on channel=0 note=62 velocity=0 time=180
note_on channel=0 note=58 velocity=30 time=0
note_on channel=0 note=77 velocity=0 time=180
note_on channel=0 note=69 velocity=43 time=30
note_on channel=0 note=69 velocity=0 time=30
note_on channel=0 note=58 velocity=0 time=0
note_on channel=0 note=75 velocity=41 time=0
note_on channel=0 note=67 velocity=50 time=0
note_on channel=0 note=60 velocity=34 time=0
control_change channel=0 control=64 value=0 time=19
note_on channel=0 note=67 velocity=0 time=101
note_on channel=0 note=65 velocity=46 time=0
note_on channel=0 note=65 velocity=0 time=0
note_on channel=0 note=60 velocity=0 time=0
note_on channel=0 note=67 velocity=50 time=0
note_on channel=0 note=53 velocity=29 time=0
note_on channel=0 note=67 velocity=0 time=120
note_on channel=0 note=69 velocity=46 time=0
note_on channel=0 note=69 velocity=0 time=0
note_on channel=0 note=53 velocity=0 time=0
note_on channel=0 note=75 velocity=0 time=0
note_on channel=0 note=74 velocity=44 time=0
note_on channel=0 note=70 velocity=50 time=0
note_on channel=0 note=58 velocity=40 time=0
note_on channel=0 note=58 velocity=0 time=240
note_on channel=0 note=46 velocity=30 time=0
note_on channel=0 note=46 velocity=0 time=240
note_on channel=0 note=70 velocity=0 time=0
note_on channel=0 note=74 velocity=0 time=0
note_on channel=0 note=65 velocity=41 time=0
note_on channel=0 note=50 velocity=34 time=0
control_change channel=0 control=64 value=127 time=60
note_on channel=0 note=50 velocity=0 time=180
note_on channel=0 note=65 velocity=0 time=0
note_on channel=0 note=46 velocity=30 time=0
note_on channel=0 note=69 velocity=43 time=210
note_on channel=0 note=69 velocity=0 time=0
note_on channel=0 note=46 velocity=0 time=0
note_on channel=0 note=67 velocity=50 time=0
note_on channel=0 note=51 velocity=34 time=0
control_change channel=0 control=64 value=0 time=19
note_on channel=0 note=67 velocity=0 time=101
note_on channel=0 note=66 velocity=46 time=0
note_on channel=0 note=66 velocity=0 time=0
note_on channel=0 note=51 velocity=0 time=0
note_on channel=0 note=67 velocity=50 time=0
note_on channel=0 note=46 velocity=29 time=0
note_on channel=0 note=67 velocity=0 time=120
note_on channel=0 note=69 velocity=46 time=0
note_on channel=0 note=69 velocity=0 time=0
note_on channel=0 note=46 velocity=0 time=0
note_on channel=0 note=70 velocity=50 time=0
note_on channel=0 note=50 velocity=40 time=0
note_on channel=0 note=50 velocity=0 time=240
note_on channel=0 note=49 velocity=30 time=0
note_on channel=0 note=49 velocity=0 time=240
note_on channel=0 note=70 velocity=0 time=0
note_on channel=0 note=65 velocity=41 time=0
note_on channel=0 note=50 velocity=34 time=0
control_change channel=0 control=64 value=127 time=60
note_on channel=0 note=50 velocity=0 time=180
note_on channel=0 note=46 velocity=30 time=0
note_on channel=0 note=65 velocity=0 time=180
note_on channel=0 note=57 velocity=36 time=30
note_on channel=0 note=57 velocity=0 time=0
note_on channel=0 note=46 velocity=0 time=0
note_on channel=0 note=63 velocity=34 time=0
note_on channel=0 note=55 velocity=42 time=0
note_on channel=0 note=48 velocity=34 time=0
control_change channel=0 control=64 value=0 time=19
note_on channel=0 note=55 velocity=0 time=101
note_on channel=0 note=53 velocity=39 time=0
note_on channel=0 note=53 velocity=0 time=0
note_on channel=0 note=48 velocity=0 time=0
note_on channel=0 note=55 velocity=42 time=0
note_on channel=0 note=41 velocity=29 time=0
note_on channel=0 note=55 velocity=0 time=120
note_on channel=0 note=57 velocity=39 time=0
note_on channel=0 note=57 velocity=0 time=120
note_on channel=0 note=41 velocity=0 time=0
note_on channel=0 note=63 velocity=0 time=0
note_on channel=0 note=62 velocity=34 time=0
note_on channel=0 note=58 velocity=42 time=0
note_on channel=0 note=46 velocity=40 time=0
control_change channel=0 control=64 value=127 time=96
note_on channel=0 note=46 velocity=0 time=144
note_on channel=0 note=58 velocity=0 time=0
note_on channel=0 note=53 velocity=33 time=0
note_on channel=0 note=50 velocity=30 time=0
control_change channel=0 control=64 value=0 time=187
note_on channel=0 note=53 velocity=0 time=13
note_on channel=0 note=57 velocity=37 time=0
note_on channel=0 note=57 velocity=0 time=0
note_on channel=0 note=50 velocity=0 time=0
note_on channel=0 note=62 velocity=0 time=0
note_on channel=0 note=63 velocity=39 time=0
note_on channel=0 note=55 velocity=43 time=0
note_on channel=0 note=48 velocity=35 time=0
note_on channel=0 note=55 velocity=0 time=120
note_on channel=0 note=53 velocity=40 time=0
note_on channel=0 note=53 velocity=0 time=0
note_on channel=0 note=48 velocity=0 time=0
note_on channel=0 note=55 velocity=44 time=0
note_on channel=0 note=41 velocity=31 time=0
note_on channel=0 note=55 velocity=0 time=120
note_on channel=0 note=57 velocity=40 time=0
note_on channel=0 note=57 velocity=0 time=120
note_on channel=0 note=41 velocity=0 time=0
note_on channel=0 note=63 velocity=0 time=0
note_on channel=0 note=62 velocity=36 time=0
note_on channel=0 note=58 velocity=44 time=0
note_on channel=0 note=46 velocity=36 time=0
control_change channel=0 control=64 value=127 time=92
note_on channel=0 note=46 velocity=0 time=148
note_on channel=0 note=58 velocity=0 time=0
note_on channel=0 note=53 velocity=34 time=0
note_on channel=0 note=50 velocity=31 time=0
note_on channel=0 note=53 velocity=0 time=180
note_on channel=0 note=57 velocity=39 time=0
note_on channel=0 note=57 velocity=0 time=30
note_on channel=0 note=50 velocity=0 time=0
note_on channel=0 note=62 velocity=0 time=0
note_on channel=0 note=63 velocity=44 time=0
note_on channel=0 note=55 velocity=46 time=0
note_on channel=0 note=48 velocity=44 time=0
control_change channel=0 control=64 value=0 time=0
note_on channel=0 note=55 velocity=0 time=120
note_on channel=0 note=53 velocity=43 time=0
note_on channel=0 note=53 velocity=0 time=0
note_on channel=0 note=48 velocity=0 time=0
note_on channel=0 note=55 velocity=47 time=0
note_on channel=0 note=41 velocity=33 time=0
note_on channel=0 note=55 velocity=0 time=120
note_on channel=0 note=57 velocity=44 time=0
note_on channel=0 note=57 velocity=0 time=0
note_on channel=0 note=41 velocity=0 time=0
note_on channel=0 note=63 velocity=0 time=0
note_on channel=0 note=62 velocity=42 time=0
note_on channel=0 note=58 velocity=48 time=0
note_on channel=0 note=46 velocity=45 time=0
control_change channel=0 control=64 value=127 time=81
note_on channel=0 note=46 velocity=0 time=39
note_on channel=0 note=58 velocity=0 time=0
note_on channel=0 note=53 velocity=41 time=0
note_on channel=0 note=50 velocity=37 time=0
note_on channel=0 note=50 velocity=0 time=120
note_on channel=0 note=53 velocity=0 time=0
note_on channel=0 note=62 velocity=0 time=0
note_on channel=0 note=63 velocity=40 time=0
note_on channel=0 note=57 velocity=50 time=0
note_on channel=0 note=41 velocity=46 time=0
control_change channel=0 control=64 value=0 time=13
control_change channel=0 control=64 value=127 time=51
note_on channel=0 note=41 velocity=0 time=56
note_on channel=0 note=57 velocity=0 time=0
note_on channel=0 note=53 velocity=43 time=0
note_on channel=0 note=48 velocity=39 time=0
note_on channel=0 note=48 velocity=0 time=120
note_on channel=0 note=53 velocity=0 time=0
note_on channel=0 note=63 velocity=0 time=0
note_on channel=0 note=62 velocity=49 time=0
note_on channel=0 note=58 velocity=51 time=0
note_on channel=0 note=46 velocity=47 time=0
control_change channel=0 control=64 value=0 time=15
control_change channel=0 control=64 value=127 time=45
note_on channel=0 note=46 velocity=0 time=60
note_on channel=0 note=58 velocity=0 time=0
note_on channel=0 note=53 velocity=46 time=0
note_on channel=0 note=50 velocity=41 time=0
note_on channel=0 note=50 velocity=0 time=120
note_on channel=0 note=53 velocity=0 time=0
note_on channel=0 note=62 velocity=0 time=0
note_on channel=0 note=63 velocity=42 time=0
note_on channel=0 note=57 velocity=52 time=0
note_on channel=0 note=41 velocity=49 time=0
control_change channel=0 control=64 value=0 time=7
control_change channel=0 control=64 value=127 time=53
note_on channel=0 note=41 velocity=0 time=0
note_on channel=0 note=57 velocity=0 time=0
note_on channel=0 note=53 velocity=47 time=0
note_on channel=0 note=48 velocity=43 time=0
note_on channel=0 note=48 velocity=0 time=0
note_on channel=0 note=53 velocity=0 time=0
note_on channel=0 note=63 velocity=0 time=0
note_on channel=0 note=58 velocity=34 time=0
note_on channel=0 note=62 velocity=40 time=0
note_on channel=0 note=46 velocity=24 time=0
note_on channel=0 note=50 velocity=30 time=0
control_change channel=0 control=64 value=0 time=0
note_on channel=0 note=50 velocity=0 time=120
note_on channel=0 note=58 velocity=0 time=0
note_on channel=0 note=62 velocity=0 time=0
note_on channel=0 note=46 velocity=0 time=0
note_on channel=0 note=62 velocity=34 time=360
note_on channel=0 note=70 velocity=40 time=0
note_on channel=0 note=34 velocity=24 time=0
note_on channel=0 note=46 velocity=30 time=0
note_on channel=0 note=46 velocity=0 time=120
note_on channel=0 note=62 velocity=0 time=0
note_on channel=0 note=70 velocity=0 time=0
note_on channel=0 note=34 velocity=0 time=0
