note_on channel=0 note=67 velocity=40 time=0
note_on channel=0 note=48 velocity=30 time=0
note_on channel=0 note=63 velocity=30 time=0
note_on channel=0 note=67 velocity=0 time=360
note_on channel=0 note=66 velocity=36 time=0
control_change channel=0 control=64 value=127 time=46
note_on channel=0 note=66 velocity=0 time=0
note_on channel=0 note=69 velocity=40 time=0
note_on channel=0 note=54 velocity=23 time=0
note_on channel=0 note=54 velocity=0 time=480
note_on channel=0 note=57 velocity=29 time=0
note_on channel=0 note=57 velocity=0 time=480
note_on channel=0 note=54 velocity=23 time=0
note_on channel=0 note=54 velocity=0 time=480
note_on channel=0 note=48 velocity=0 time=0
note_on channel=0 note=63 velocity=0 time=0
note_on channel=0 note=69 velocity=0 time=0
note_on channel=0 note=67 velocity=40 time=0
note_on channel=0 note=48 velocity=30 time=0
note_on channel=0 note=63 velocity=30 time=0
control_change channel=0 control=64 value=0 time=23
note_on channel=0 note=67 velocity=0 time=337
note_on channel=0 note=66 velocity=36 time=0
control_change channel=0 control=64 value=127 time=57
note_on channel=0 note=66 velocity=0 time=63
note_on channel=0 note=69 velocity=40 time=0
note_on channel=0 note=54 velocity=23 time=0
note_on channel=0 note=54 velocity=0 time=480
note_on channel=0 note=57 velocity=29 time=0
note_on channel=0 note=57 velocity=0 time=0
note_on channel=0 note=69 velocity=46 time=0
note_on channel=0 note=54 velocity=23 time=0
note_on channel=0 note=69 velocity=0 time=360
note_on channel=0 note=75 velocity=42 time=0
note_on channel=0 note=75 velocity=0 time=114
note_on channel=0 note=54 velocity=0 time=6
note_on channel=0 note=48 velocity=0 time=0
note_on channel=0 note=63 velocity=0 time=0
note_on channel=0 note=69 velocity=0 time=0
note_on channel=0 note=75 velocity=52 time=0
note_on channel=0 note=75 velocity=0 time=0
note_on channel=0 note=62 velocity=29 time=0
note_on channel=0 note=74 velocity=40 time=0
note_on channel=0 note=47 velocity=24 time=0
note_on channel=0 note=55 velocity=29 time=0
control_change channel=0 control=64 value=0 time=10
control_change channel=0 control=64 value=127 time=93
note_on channel=0 note=74 velocity=0 time=0
note_on channel=0 note=67 velocity=36 time=0
note_on channel=0 note=67 velocity=0 time=114
note_on channel=0 note=55 velocity=0 time=0
note_on channel=0 note=47 velocity=0 time=0
note_on channel=0 note=62 velocity=0 time=0
note_on channel=0 note=67 velocity=41 time=0
note_on channel=0 note=67 velocity=0 time=0
note_on channel=0 note=60 velocity=29 time=0
note_on channel=0 note=66 velocity=40 time=0
note_on channel=0 note=50 velocity=24 time=0
note_on channel=0 note=57 velocity=29 time=0
control_change channel=0 control=64 value=0 time=10
control_change channel=0 control=64 value=127 time=110
note_on channel=0 note=66 velocity=0 time=120
note_on channel=0 note=69 velocity=36 time=0
note_on channel=0 note=69 velocity=0 time=114
note_on channel=0 note=57 velocity=0 time=0
note_on channel=0 note=50 velocity=0 time=0
note_on channel=0 note=60 velocity=0 time=0
note_on channel=0 note=69 velocity=44 time=0
note_on channel=0 note=69 velocity=0 time=60
note_on channel=0 note=71 velocity=40 time=0
control_change channel=0 control=64 value=0 time=5
control_change channel=0 control=64 value=127 time=58
note_on channel=0 note=59 velocity=25 time=0
note_on channel=0 note=62 velocity=30 time=0
note_on channel=0 note=43 velocity=20 time=0
note_on channel=0 note=55 velocity=24 time=0
note_on channel=0 note=55 velocity=0 time=0
note_on channel=0 note=62 velocity=0 time=0
note_on channel=0 note=43 velocity=0 time=0
note_on channel=0 note=59 velocity=0 time=0
note_on channel=0 note=59 velocity=20 time=0
note_on channel=0 note=62 velocity=24 time=0
note_on channel=0 note=43 velocity=20 time=0
note_on channel=0 note=55 velocity=24 time=0
note_on channel=0 note=72 velocity=34 time=0
note_on channel=0 note=72 velocity=0 time=80
note_on channel=0 note=71 velocity=30 time=0
note_on channel=0 note=71 velocity=0 time=80
note_on channel=0 note=69 velocity=30 time=0
note_on channel=0 note=69 velocity=0 time=0
note_on channel=0 note=59 velocity=0 time=0
note_on channel=0 note=62 velocity=0 time=0
note_on channel=0 note=71 velocity=0 time=0
note_on channel=0 note=55 velocity=0 time=0
note_on channel=0 note=43 velocity=0 time=0
note_on channel=0 note=71 velocity=39 time=0
control_change channel=0 control=64 value=0 time=8
note_on channel=0 note=71 velocity=0 time=232
note_on channel=0 note=72 velocity=46 time=0
note_on channel=0 note=72 velocity=0 time=0
note_on channel=0 note=75 velocity=58 time=0
note_on channel=0 note=53 velocity=30 time=0
note_on channel=0 note=68 velocity=30 time=0
note_on channel=0 note=75 velocity=0 time=360
note_on channel=0 note=74 velocity=52 time=0
control_change channel=0 control=64 value=127 time=74
note_on channel=0 note=74 velocity=0 time=0
note_on channel=0 note=77 velocity=60 time=0
note_on channel=0 note=59 velocity=31 time=0
note_on channel=0 note=59 velocity=0 time=480
note_on channel=0 note=62 velocity=36 time=0
note_on channel=0 note=62 velocity=0 time=480
note_on channel=0 note=59 velocity=32 time=0
note_on channel=0 note=77 velocity=0 time=360
note_on channel=0 note=74 velocity=41 time=0
note_on channel=0 note=74 velocity=0 time=60
note_on channel=0 note=77 velocity=42 time=0
note_on channel=0 note=77 velocity=0 time=60
note_on channel=0 note=53 velocity=0 time=0
note_on channel=0 note=68 velocity=0 time=0
note_on channel=0 note=59 velocity=0 time=0
note_on channel=0 note=75 velocity=58 time=0
note_on channel=0 note=53 velocity=34 time=0
note_on channel=0 note=68 velocity=34 time=0
control_change channel=0 control=64 value=0 time=23
note_on channel=0 note=75 velocity=0 time=337
note_on channel=0 note=74 velocity=53 time=0
note_on channel=0 note=74 velocity=0 time=120
note_on channel=0 note=77 velocity=61 time=0
note_on channel=0 note=59 velocity=36 time=0
control_change channel=0 control=64 value=127 time=113
note_on channel=0 note=59 velocity=0 time=367
note_on channel=0 note=62 velocity=40 time=0
note_on channel=0 note=62 velocity=0 time=0
note_on channel=0 note=74 velocity=63 time=0
note_on channel=0 note=59 velocity=34 time=0
note_on channel=0 note=74 velocity=0 time=360
note_on channel=0 note=80 velocity=61 time=0
note_on channel=0 note=80 velocity=0 time=114
note_on channel=0 note=59 velocity=0 time=6
note_on channel=0 note=53 velocity=0 time=0
note_on channel=0 note=68 velocity=0 time=0
note_on channel=0 note=77 velocity=0 time=0
note_on channel=0 note=80 velocity=70 time=0
note_on channel=0 note=80 velocity=0 time=0
note_on channel=0 note=67 velocity=33 time=0
note_on channel=0 note=79 velocity=48 time=0
note_on channel=0 note=51 velocity=27 time=0
note_on channel=0 note=60 velocity=33 time=0
control_change channel=0 control=64 value=0 time=10
control_change channel=0 control=64 value=127 time=93
note_on channel=0 note=79 velocity=0 time=0
note_on channel=0 note=72 velocity=41 time=0
note_on channel=0 note=72 velocity=0 time=114
note_on channel=0 note=60 velocity=0 time=0
note_on channel=0 note=51 velocity=0 time=0
note_on channel=0 note=67 velocity=0 time=0
note_on channel=0 note=72 velocity=47 time=0
note_on channel=0 note=72 velocity=0 time=0
note_on channel=0 note=65 velocity=33 time=0
note_on channel=0 note=71 velocity=46 time=0
note_on channel=0 note=55 velocity=27 time=0
note_on channel=0 note=62 velocity=33 time=0
control_change channel=0 control=64 value=0 time=10
control_change channel=0 control=64 value=127 time=110
note_on channel=0 note=71 velocity=0 time=120
note_on channel=0 note=74 velocity=41 time=0
note_on channel=0 note=74 velocity=0 time=114
note_on channel=0 note=62 velocity=0 time=0
note_on channel=0 note=55 velocity=0 time=0
note_on channel=0 note=65 velocity=0 time=0
note_on channel=0 note=74 velocity=50 time=0
note_on channel=0 note=74 velocity=0 time=60
note_on channel=0 note=75 velocity=46 time=0
control_change channel=0 control=64 value=0 time=5
control_change channel=0 control=64 value=127 time=58
note_on channel=0 note=63 velocity=36 time=0
note_on channel=0 note=48 velocity=24 time=0
note_on channel=0 note=60 velocity=29 time=0
note_on channel=0 note=60 velocity=0 time=0
note_on channel=0 note=48 velocity=0 time=0
note_on channel=0 note=63 velocity=0 time=0
note_on channel=0 note=63 velocity=29 time=0
note_on channel=0 note=48 velocity=33 time=0
note_on channel=0 note=60 velocity=33 time=0
note_on channel=0 note=60 velocity=0 time=0
note_on channel=0 note=48 velocity=0 time=0
note_on channel=0 note=63 velocity=0 time=0
note_on channel=0 note=68 velocity=38 time=0
note_on channel=0 note=63 velocity=35 time=0
note_on channel=0 note=60 velocity=29 time=0
control_change channel=0 control=64 value=0 time=0
control_change channel=0 control=64 value=127 time=85
note_on channel=0 note=60 velocity=0 time=0
note_on channel=0 note=75 velocity=0 time=0
note_on channel=0 note=68 velocity=0 time=0
note_on channel=0 note=63 velocity=0 time=0
note_on channel=0 note=67 velocity=43 time=0
note_on channel=0 note=58 velocity=31 time=0
note_on channel=0 note=61 velocity=31 time=0
note_on channel=0 note=63 velocity=37 time=0
control_change channel=0 control=64 value=0 time=12
control_change channel=0 control=64 value=127 time=79
note_on channel=0 note=63 velocity=0 time=0
note_on channel=0 note=67 velocity=0 time=0
note_on channel=0 note=58 velocity=0 time=0
note_on channel=0 note=61 velocity=0 time=0
note_on channel=0 note=68 velocity=49 time=0
note_on channel=0 note=63 velocity=40 time=0
note_on channel=0 note=60 velocity=34 time=0
note_on channel=0 note=56 velocity=34 time=0
control_change channel=0 control=64 value=0 time=6
control_change channel=0 control=64 value=127 time=79
note_on channel=0 note=56 velocity=0 time=0
note_on channel=0 note=68 velocity=0 time=0
note_on channel=0 note=63 velocity=0 time=0
note_on channel=0 note=60 velocity=0 time=0
note_on channel=0 note=72 velocity=59 time=0
note_on channel=0 note=55 velocity=38 time=0
note_on channel=0 note=58 velocity=38 time=0
note_on channel=0 note=63 velocity=46 time=0
control_change channel=0 control=64 value=0 time=0
control_change channel=0 control=64 value=127 time=120
note_on channel=0 note=72 velocity=0 time=0
note_on channel=0 note=70 velocity=44 time=0
note_on channel=0 note=70 velocity=0 time=60
note_on channel=0 note=72 velocity=44 time=0
note_on channel=0 note=72 velocity=0 time=60
note_on channel=0 note=70 velocity=44 time=0
note_on channel=0 note=70 velocity=0 time=60
note_on channel=0 note=69 velocity=44 time=0
note_on channel=0 note=69 velocity=0 time=0
note_on channel=0 note=55 velocity=0 time=0
note_on channel=0 note=58 velocity=0 time=0
note_on channel=0 note=63 velocity=0 time=0
note_on channel=0 note=70 velocity=52 time=0
note_on channel=0 note=55 velocity=36 time=0
note_on channel=0 note=58 velocity=36 time=0
note_on channel=0 note=64 velocity=43 time=0
control_change channel=0 control=64 value=0 time=11
control_change channel=0 control=64 value=127 time=66
note_on channel=0 note=70 velocity=0 time=120
note_on channel=0 note=72 velocity=55 time=0
note_on channel=0 note=72 velocity=0 time=0
note_on channel=0 note=73 velocity=61 time=0
control_change channel=0 control=64 value=0 time=6
control_change channel=0 control=64 value=127 time=57
note_on channel=0 note=64 velocity=0 time=177
note_on channel=0 note=55 velocity=0 time=0
note_on channel=0 note=58 velocity=0 time=0
note_on channel=0 note=53 velocity=34 time=0
note_on channel=0 note=56 velocity=34 time=0
note_on channel=0 note=61 velocity=40 time=0
control_change channel=0 control=64 value=0 time=13
control_change channel=0 control=64 value=127 time=47
note_on channel=0 note=61 velocity=0 time=0
note_on channel=0 note=56 velocity=0 time=0
note_on channel=0 note=53 velocity=0 time=0
note_on channel=0 note=52 velocity=42 time=0
note_on channel=0 note=55 velocity=42 time=0
note_on channel=0 note=60 velocity=50 time=0
control_change channel=0 control=64 value=0 time=12
control_change channel=0 control=64 value=127 time=51
note_on channel=0 note=73 velocity=0 time=57
note_on channel=0 note=72 velocity=56 time=0
note_on channel=0 note=72 velocity=0 time=0
note_on channel=0 note=60 velocity=0 time=0
note_on channel=0 note=55 velocity=0 time=0
note_on channel=0 note=52 velocity=0 time=0
note_on channel=0 note=82 velocity=64 time=0
note_on channel=0 note=52 velocity=34 time=0
note_on channel=0 note=55 velocity=34 time=0
note_on channel=0 note=60 velocity=40 time=0
note_on channel=0 note=82 velocity=0 time=120
note_on channel=0 note=79 velocity=58 time=0
note_on channel=0 note=79 velocity=0 time=114
note_on channel=0 note=60 velocity=0 time=0
note_on channel=0 note=55 velocity=0 time=0
note_on channel=0 note=52 velocity=0 time=0
note_on channel=0 note=79 velocity=67 time=0
note_on channel=0 note=52 velocity=34 time=0
note_on channel=0 note=55 velocity=34 time=0
note_on channel=0 note=60 velocity=40 time=0
control_change channel=0 control=64 value=0 time=14
control_change channel=0 control=64 value=127 time=99
note_on channel=0 note=60 velocity=0 time=0
note_on channel=0 note=55 velocity=0 time=0
note_on channel=0 note=52 velocity=0 time=0
note_on channel=0 note=53 velocity=24 time=0
note_on channel=0 note=56 velocity=24 time=0
note_on channel=0 note=60 velocity=29 time=0
control_change channel=0 control=64 value=0 time=13
control_change channel=0 control=64 value=127 time=107
note_on channel=0 note=79 velocity=0 time=120
note_on channel=0 note=82 velocity=45 time=0
note_on channel=0 note=82 velocity=0 time=120
note_on channel=0 note=80 velocity=45 time=0
note_on channel=0 note=80 velocity=0 time=120
note_on channel=0 note=53 velocity=0 time=0
note_on channel=0 note=56 velocity=0 time=0
note_on channel=0 note=60 velocity=0 time=0
control_change channel=0 control=64 value=0 time=12
control_change channel=0 control=64 value=127 time=447
note_on channel=0 note=68 velocity=45 time=0
note_on channel=0 note=68 velocity=0 time=240
note_on channel=0 note=67 velocity=39 time=0
note_on channel=0 note=67 velocity=0 time=235
note_on channel=0 note=57 velocity=37 time=0
note_on channel=0 note=60 velocity=37 time=0
note_on channel=0 note=67 velocity=52 time=0
note_on channel=0 note=38 velocity=27 time=0
note_on channel=0 note=51 velocity=38 time=0
control_change channel=0 control=64 value=0 time=0
control_change channel=0 control=64 value=127 time=120
note_on channel=0 note=67 velocity=0 time=0
note_on channel=0 note=66 velocity=45 time=0
note_on channel=0 note=66 velocity=0 time=0
note_on channel=0 note=51 velocity=0 time=0
note_on channel=0 note=69 velocity=58 time=0
note_on channel=0 note=42 velocity=43 time=0
control_change channel=0 control=64 value=0 time=7
control_change channel=0 control=64 value=127 time=136
note_on channel=0 note=42 velocity=0 time=337
note_on channel=0 note=45 velocity=43 time=0
note_on channel=0 note=45 velocity=0 time=480
note_on channel=0 note=69 velocity=0 time=0
note_on channel=0 note=38 velocity=0 time=0
note_on channel=0 note=60 velocity=0 time=0
note_on channel=0 note=57 velocity=0 time=0
note_on channel=0 note=62 velocity=51 time=0
note_on channel=0 note=69 velocity=60 time=0
note_on channel=0 note=46 velocity=32 time=0
note_on channel=0 note=50 velocity=32 time=0
note_on channel=0 note=58 velocity=45 time=0
control_change channel=0 control=64 value=0 time=11
control_change channel=0 control=64 value=127 time=98
note_on channel=0 note=69 velocity=0 time=0
note_on channel=0 note=67 velocity=52 time=0
note_on channel=0 note=67 velocity=0 time=114
note_on channel=0 note=58 velocity=0 time=0
note_on channel=0 note=62 velocity=0 time=0
note_on channel=0 note=46 velocity=0 time=0
note_on channel=0 note=50 velocity=0 time=0
note_on channel=0 note=60 velocity=52 time=0
note_on channel=0 note=62 velocity=52 time=0
note_on channel=0 note=67 velocity=62 time=0
note_on channel=0 note=45 velocity=32 time=0
note_on channel=0 note=50 velocity=32 time=0
note_on channel=0 note=57 velocity=45 time=0
control_change channel=0 control=64 value=0 time=11
control_change channel=0 control=64 value=127 time=75
note_on channel=0 note=67 velocity=0 time=0
note_on channel=0 note=66 velocity=50 time=0
note_on channel=0 note=66 velocity=0 time=0
note_on channel=0 note=57 velocity=0 time=0
note_on channel=0 note=45 velocity=0 time=0
note_on channel=0 note=60 velocity=0 time=0
note_on channel=0 note=62 velocity=0 time=0
note_on channel=0 note=50 velocity=0 time=0
note_on channel=0 note=58 velocity=54 time=0
note_on channel=0 note=62 velocity=54 time=0
note_on channel=0 note=69 velocity=64 time=0
note_on channel=0 note=43 velocity=32 time=0
note_on channel=0 note=50 velocity=32 time=0
note_on channel=0 note=55 velocity=45 time=0
control_change channel=0 control=64 value=0 time=13
control_change channel=0 control=64 value=127 time=102
note_on channel=0 note=69 velocity=0 time=0
note_on channel=0 note=67 velocity=54 time=0
note_on channel=0 note=67 velocity=0 time=0
note_on channel=0 note=55 velocity=0 time=0
note_on channel=0 note=43 velocity=0 time=0
note_on channel=0 note=58 velocity=0 time=0
note_on channel=0 note=62 velocity=0 time=0
note_on channel=0 note=50 velocity=0 time=0
note_on channel=0 note=57 velocity=58 time=0
note_on channel=0 note=62 velocity=58 time=0
note_on channel=0 note=70 velocity=69 time=0
note_on channel=0 note=42 velocity=32 time=0
note_on channel=0 note=50 velocity=32 time=0
note_on channel=0 note=54 velocity=45 time=0
control_change channel=0 control=64 value=0 time=7
control_change channel=0 control=64 value=127 time=102
note_on channel=0 note=70 velocity=0 time=0
note_on channel=0 note=69 velocity=45 time=0
note_on channel=0 note=69 velocity=0 time=0
note_on channel=0 note=54 velocity=0 time=0
note_on channel=0 note=42 velocity=0 time=0
note_on channel=0 note=57 velocity=0 time=0
note_on channel=0 note=62 velocity=0 time=0
note_on channel=0 note=50 velocity=0 time=0
note_on channel=0 note=66 velocity=51 time=0
control_change channel=0 control=64 value=0 time=13
control_change channel=0 control=64 value=127 time=9
note_on channel=0 note=66 velocity=0 time=34
note_on channel=0 note=69 velocity=46 time=0
note_on channel=0 note=69 velocity=0 time=28
note_on channel=0 note=72 velocity=42 time=0
note_on channel=0 note=72 velocity=0 time=72
note_on channel=0 note=75 velocity=48 time=0
note_on channel=0 note=75 velocity=0 time=0
note_on channel=0 note=74 velocity=54 time=0
control_change channel=0 control=64 value=0 time=0
control_change channel=0 control=64 value=127 time=97
note_on channel=0 note=74 velocity=0 time=23
note_on channel=0 note=72 velocity=43 time=0
note_on channel=0 note=72 velocity=0 time=120
note_on channel=0 note=70 velocity=43 time=0
note_on channel=0 note=70 velocity=0 time=120
note_on channel=0 note=69 velocity=43 time=0
note_on channel=0 note=69 velocity=0 time=19
note_on channel=0 note=72 velocity=53 time=0
control_change channel=0 control=64 value=0 time=10
control_change channel=0 control=64 value=127 time=87
note_on channel=0 note=72 velocity=0 time=23
note_on channel=0 note=78 velocity=45 time=0
note_on channel=0 note=78 velocity=0 time=120
note_on channel=0 note=81 velocity=45 time=0
note_on channel=0 note=81 velocity=0 time=0
note_on channel=0 note=84 velocity=45 time=0
note_on channel=0 note=84 velocity=0 time=0
note_on channel=0 note=82 velocity=54 time=0
control_change channel=0 control=64 value=0 time=13
control_change channel=0 control=64 value=127 time=79
note_on channel=0 note=82 velocity=0 time=28
note_on channel=0 note=81 velocity=45 time=0
note_on channel=0 note=81 velocity=0 time=120
note_on channel=0 note=79 velocity=45 time=0
note_on channel=0 note=79 velocity=0 time=0
note_on channel=0 note=78 velocity=45 time=0
note_on channel=0 note=78 velocity=0 time=0
note_on channel=0 note=81 velocity=51 time=0
control_change channel=0 control=64 value=0 time=13
control_change channel=0 control=64 value=127 time=84
note_on channel=0 note=81 velocity=0 time=23
note_on channel=0 note=84 velocity=53 time=0
note_on channel=0 note=84 velocity=0 time=120
note_on channel=0 note=86 velocity=55 time=0
note_on channel=0 note=86 velocity=0 time=0
note_on channel=0 note=87 velocity=57 time=0
note_on channel=0 note=87 velocity=0 time=0
note_on channel=0 note=86 velocity=60 time=0
control_change channel=0 control=64 value=0 time=3
control_change channel=0 control=64 value=127 time=83
note_on channel=0 note=86 velocity=0 time=34
note_on channel=0 note=84 velocity=51 time=0
note_on channel=0 note=84 velocity=0 time=120
note_on channel=0 note=82 velocity=52 time=0
note_on channel=0 note=82 velocity=0 time=0
note_on channel=0 note=81 velocity=52 time=0
note_on channel=0 note=81 velocity=0 time=0
note_on channel=0 note=84 velocity=58 time=0
control_change channel=0 control=64 value=0 time=13
control_change channel=0 control=64 value=127 time=73
note_on channel=0 note=84 velocity=0 time=34
note_on channel=0 note=81 velocity=48 time=0
note_on channel=0 note=81 velocity=0 time=120
note_on channel=0 note=79 velocity=49 time=0
note_on channel=0 note=79 velocity=0 time=0
note_on channel=0 note=78 velocity=49 time=0
note_on channel=0 note=78 velocity=0 time=0
note_on channel=0 note=84 velocity=60 time=0
control_change channel=0 control=64 value=0 time=13
note_on channel=0 note=84 velocity=0 time=24
note_on channel=0 note=81 velocity=53 time=0
control_change channel=0 control=64 value=127 time=12
note_on channel=0 note=81 velocity=0 time=67
note_on channel=0 note=79 velocity=55 time=0
note_on channel=0 note=79 velocity=0 time=0
note_on channel=0 note=78 velocity=56 time=0
note_on channel=0 note=78 velocity=0 time=19
note_on channel=0 note=81 velocity=69 time=0
control_change channel=0 control=64 value=0 time=13
note_on channel=0 note=81 velocity=0 time=13
control_change channel=0 control=64 value=127 time=1
note_on channel=0 note=78 velocity=59 time=4
note_on channel=0 note=78 velocity=0 time=18
note_on channel=0 note=75 velocity=63 time=9
note_on channel=0 note=75 velocity=0 time=61
note_on channel=0 note=74 velocity=65 time=0
note_on channel=0 note=74 velocity=0 time=90
note_on channel=0 note=74 velocity=64 time=30
note_on channel=0 note=54 velocity=38 time=0
note_on channel=0 note=57 velocity=45 time=0
control_change channel=0 control=64 value=0 time=0
note_on channel=0 note=57 velocity=0 time=4
note_on channel=0 note=54 velocity=0 time=0
note_on channel=0 note=62 velocity=31 time=0
control_change channel=0 control=64 value=127 time=6
note_on channel=0 note=62 velocity=0 time=28
note_on channel=0 note=54 velocity=26 time=0
note_on channel=0 note=57 velocity=31 time=0
note_on channel=0 note=57 velocity=0 time=33
note_on channel=0 note=54 velocity=0 time=0
note_on channel=0 note=62 velocity=31 time=0
note_on channel=0 note=62 velocity=0 time=19
note_on channel=0 note=74 velocity=0 time=0
note_on channel=0 note=69 velocity=58 time=0
note_on channel=0 note=54 velocity=36 time=0
note_on channel=0 note=57 velocity=43 time=0
note_on channel=0 note=57 velocity=0 time=120
note_on channel=0 note=54 velocity=0 time=0
note_on channel=0 note=62 velocity=32 time=0
note_on channel=0 note=62 velocity=0 time=120
note_on channel=0 note=54 velocity=27 time=0
note_on channel=0 note=57 velocity=32 time=0
note_on channel=0 note=57 velocity=0 time=120
note_on channel=0 note=54 velocity=0 time=0
note_on channel=0 note=62 velocity=32 time=0
note_on channel=0 note=62 velocity=0 time=120
note_on channel=0 note=54 velocity=35 time=0
note_on channel=0 note=57 velocity=42 time=0
note_on channel=0 note=57 velocity=0 time=120
note_on channel=0 note=54 velocity=0 time=0
note_on channel=0 note=62 velocity=33 time=0
note_on channel=0 note=62 velocity=0 time=120
note_on channel=0 note=54 velocity=28 time=0
note_on channel=0 note=57 velocity=33 time=0
note_on channel=0 note=57 velocity=0 time=120
note_on channel=0 note=54 velocity=0 time=0
note_on channel=0 note=62 velocity=33 time=0
note_on channel=0 note=62 velocity=0 time=120
note_on channel=0 note=69 velocity=0 time=0
note_on channel=0 note=71 velocity=64 time=0
note_on channel=0 note=55 velocity=36 time=0
note_on channel=0 note=59 velocity=43 time=0
control_change channel=0 control=64 value=0 time=13
control_change channel=0 control=64 value=127 time=20
note_on channel=0 note=59 velocity=0 time=40
note_on channel=0 note=55 velocity=0 time=0
note_on channel=0 note=62 velocity=30 time=0
note_on channel=0 note=62 velocity=0 time=0
note_on channel=0 note=71 velocity=0 time=0
note_on channel=0 note=67 velocity=53 time=0
note_on channel=0 note=55 velocity=25 time=0
note_on channel=0 note=59 velocity=30 time=0
note_on channel=0 note=59 velocity=0 time=120
note_on channel=0 note=55 velocity=0 time=0
note_on channel=0 note=62 velocity=30 time=0
note_on channel=0 note=67 velocity=0 time=117
note_on channel=0 note=62 velocity=0 time=0
note_on channel=0 note=67 velocity=64 time=0
note_on channel=0 note=57 velocity=38 time=0
note_on channel=0 note=60 velocity=45 time=0
control_change channel=0 control=64 value=0 time=11
control_change channel=0 control=64 value=127 time=41
note_on channel=0 note=60 velocity=0 time=68
note_on channel=0 note=57 velocity=0 time=0
note_on channel=0 note=62 velocity=32 time=0
note_on channel=0 note=62 velocity=0 time=0
note_on channel=0 note=67 velocity=0 time=0
note_on channel=0 note=66 velocity=55 time=0
note_on channel=0 note=57 velocity=27 time=0
note_on channel=0 note=60 velocity=32 time=0
note_on channel=0 note=66 velocity=0 time=60
note_on channel=0 note=67 velocity=55 time=0
note_on channel=0 note=67 velocity=0 time=60
note_on channel=0 note=60 velocity=0 time=0
note_on channel=0 note=57 velocity=0 time=0
note_on channel=0 note=66 velocity=55 time=0
note_on channel=0 note=62 velocity=32 time=0
note_on channel=0 note=66 velocity=0 time=60
note_on channel=0 note=64 velocity=55 time=0
note_on channel=0 note=64 velocity=0 time=0
note_on channel=0 note=62 velocity=0 time=0
note_on channel=0 note=66 velocity=64 time=0
note_on channel=0 note=57 velocity=38 time=0
note_on channel=0 note=60 velocity=45 time=0
control_change channel=0 control=64 value=0 time=5
control_change channel=0 control=64 value=127 time=38
note_on channel=0 note=60 velocity=0 time=77
note_on channel=0 note=57 velocity=0 time=0
note_on channel=0 note=62 velocity=31 time=0
note_on channel=0 note=62 velocity=0 time=120
note_on channel=0 note=66 velocity=0 time=0
note_on channel=0 note=67 velocity=59 time=0
note_on channel=0 note=57 velocity=26 time=0
note_on channel=0 note=60 velocity=31 time=0
note_on channel=0 note=60 velocity=0 time=60
note_on channel=0 note=57 velocity=0 time=0
note_on channel=0 note=62 velocity=31 time=0
note_on channel=0 note=62 velocity=0 time=0
note_on channel=0 note=67 velocity=0 time=0
note_on channel=0 note=69 velocity=57 time=0
note_on channel=0 note=57 velocity=38 time=0
note_on channel=0 note=60 velocity=45 time=0
control_change channel=0 control=64 value=0 time=8
control_change channel=0 control=64 value=127 time=52
note_on channel=0 note=60 velocity=0 time=60
note_on channel=0 note=57 velocity=0 time=0
note_on channel=0 note=62 velocity=33 time=0
note_on channel=0 note=62 velocity=0 time=120
note_on channel=0 note=69 velocity=0 time=0
note_on channel=0 note=71 velocity=62 time=0
note_on channel=0 note=55 velocity=28 time=0
note_on channel=0 note=59 velocity=33 time=0
control_change channel=0 control=64 value=0 time=8
control_change channel=0 control=64 value=127 time=52
note_on channel=0 note=59 velocity=0 time=0
note_on channel=0 note=55 velocity=0 time=0
note_on channel=0 note=62 velocity=33 time=0
note_on channel=0 note=62 velocity=0 time=0
note_on channel=0 note=71 velocity=0 time=0
note_on channel=0 note=72 velocity=64 time=0
note_on channel=0 note=54 velocity=38 time=0
note_on channel=0 note=57 velocity=45 time=0
control_change channel=0 control=64 value=0 time=11
control_change channel=0 control=64 value=127 time=49
note_on channel=0 note=57 velocity=0 time=0
note_on channel=0 note=54 velocity=0 time=0
note_on channel=0 note=72 velocity=0 time=0
note_on channel=0 note=73 velocity=57 time=0
note_on channel=0 note=62 velocity=33 time=0
note_on channel=0 note=73 velocity=0 time=115
note_on channel=0 note=62 velocity=0 time=0
note_on channel=0 note=73 velocity=64 time=0
note_on channel=0 note=54 velocity=28 time=0
note_on channel=0 note=57 velocity=33 time=0
note_on channel=0 note=57 velocity=0 time=0
note_on channel=0 note=54 velocity=0 time=0
note_on channel=0 note=73 velocity=0 time=0
note_on channel=0 note=74 velocity=59 time=0
note_on channel=0 note=62 velocity=33 time=0
note_on channel=0 note=62 velocity=0 time=0
note_on channel=0 note=74 velocity=0 time=0
note_on channel=0 note=73 velocity=64 time=0
note_on channel=0 note=54 velocity=38 time=0
note_on channel=0 note=57 velocity=45 time=0
control_change channel=0 control=64 value=0 time=12
control_change channel=0 control=64 value=127 time=34
note_on channel=0 note=57 velocity=0 time=74
note_on channel=0 note=54 velocity=0 time=0
note_on channel=0 note=73 velocity=0 time=0
note_on channel=0 note=74 velocity=57 time=0
note_on channel=0 note=62 velocity=34 time=0
note_on channel=0 note=62 velocity=0 time=120
note_on channel=0 note=74 velocity=0 time=0
note_on channel=0 note=76 velocity=57 time=0
note_on channel=0 note=54 velocity=28 time=0
note_on channel=0 note=57 velocity=34 time=0
note_on channel=0 note=57 velocity=0 time=0
note_on channel=0 note=54 velocity=0 time=0
note_on channel=0 note=76 velocity=0 time=0
note_on channel=0 note=74 velocity=57 time=0
note_on channel=0 note=62 velocity=34 time=0
note_on channel=0 note=62 velocity=0 time=0
note_on channel=0 note=74 velocity=0 time=0
note_on channel=0 note=69 velocity=64 time=0
note_on channel=0 note=54 velocity=37 time=0
note_on channel=0 note=57 velocity=44 time=0
control_change channel=0 control=64 value=0 time=3
control_change channel=0 control=64 value=127 time=54
note_on channel=0 note=57 velocity=0 time=63
note_on channel=0 note=54 velocity=0 time=0
note_on channel=0 note=62 velocity=33 time=0
note_on channel=0 note=62 velocity=0 time=120
note_on channel=0 note=54 velocity=28 time=0
note_on channel=0 note=57 velocity=33 time=0
note_on channel=0 note=57 velocity=0 time=120
note_on channel=0 note=54 velocity=0 time=0
note_on channel=0 note=62 velocity=33 time=0
note_on channel=0 note=62 velocity=0 time=0
note_on channel=0 note=54 velocity=38 time=0
note_on channel=0 note=57 velocity=45 time=0
note_on channel=0 note=57 velocity=0 time=0
note_on channel=0 note=54 velocity=0 time=0
note_on channel=0 note=69 velocity=0 time=0
note_on channel=0 note=71 velocity=64 time=0
note_on channel=0 note=62 velocity=34 time=0
note_on channel=0 note=71 velocity=0 time=60
note_on channel=0 note=69 velocity=55 time=0
note_on channel=0 note=69 velocity=0 time=60
note_on channel=0 note=62 velocity=0 time=0
note_on channel=0 note=71 velocity=64 time=0
note_on channel=0 note=54 velocity=28 time=0
note_on channel=0 note=57 velocity=34 time=0
note_on channel=0 note=71 velocity=0 time=60
note_on channel=0 note=69 velocity=54 time=0
note_on channel=0 note=69 velocity=0 time=60
note_on channel=0 note=57 velocity=0 time=0
note_on channel=0 note=54 velocity=0 time=0
note_on channel=0 note=72 velocity=64 time=0
note_on channel=0 note=62 velocity=34 time=0
note_on channel=0 note=72 velocity=0 time=60
note_on channel=0 note=71 velocity=55 time=0
note_on channel=0 note=71 velocity=0 time=0
note_on channel=0 note=62 velocity=0 time=0
note_on channel=0 note=72 velocity=64 time=0
note_on channel=0 note=55 velocity=38 time=0
note_on channel=0 note=59 velocity=45 time=0
control_change channel=0 control=64 value=0 time=13
control_change channel=0 control=64 value=127 time=42
note_on channel=0 note=72 velocity=0 time=5
note_on channel=0 note=71 velocity=56 time=0
note_on channel=0 note=71 velocity=0 time=60
note_on channel=0 note=59 velocity=0 time=0
note_on channel=0 note=55 velocity=0 time=0
note_on channel=0 note=74 velocity=64 time=0
note_on channel=0 note=62 velocity=34 time=0
note_on channel=0 note=74 velocity=0 time=0
note_on channel=0 note=73 velocity=57 time=0
note_on channel=0 note=73 velocity=0 time=60
note_on channel=0 note=62 velocity=0 time=0
note_on channel=0 note=74 velocity=52 time=0
note_on channel=0 note=55 velocity=28 time=0
note_on channel=0 note=59 velocity=34 time=0
note_on channel=0 note=74 velocity=0 time=30
note_on channel=0 note=73 velocity=52 time=0
note_on channel=0 note=73 velocity=0 time=30
note_on channel=0 note=76 velocity=52 time=0
note_on channel=0 note=76 velocity=0 time=30
note_on channel=0 note=74 velocity=52 time=0
note_on channel=0 note=74 velocity=0 time=0
note_on channel=0 note=59 velocity=0 time=0
note_on channel=0 note=55 velocity=0 time=0
note_on channel=0 note=67 velocity=60 time=0
note_on channel=0 note=62 velocity=34 time=0
note_on channel=0 note=67 velocity=0 time=117
note_on channel=0 note=62 velocity=0 time=0
note_on channel=0 note=67 velocity=64 time=0
note_on channel=0 note=57 velocity=38 time=0
note_on channel=0 note=60 velocity=45 time=0
control_change channel=0 control=64 value=0 time=9
control_change channel=0 control=64 value=127 time=33
note_on channel=0 note=60 velocity=0 time=78
note_on channel=0 note=57 velocity=0 time=0
note_on channel=0 note=62 velocity=33 time=0
note_on channel=0 note=62 velocity=0 time=120
note_on channel=0 note=57 velocity=28 time=0
note_on channel=0 note=60 velocity=33 time=0
note_on channel=0 note=60 velocity=0 time=120
note_on channel=0 note=57 velocity=0 time=0
note_on channel=0 note=62 velocity=34 time=0
note_on channel=0 note=62 velocity=0 time=0
note_on channel=0 note=67 velocity=0 time=0
note_on channel=0 note=66 velocity=56 time=0
note_on channel=0 note=57 velocity=39 time=0
note_on channel=0 note=60 velocity=46 time=0
control_change channel=0 control=64 value=0 time=10
note_on channel=0 note=66 velocity=0 time=24
note_on channel=0 note=67 velocity=50 time=0
control_change channel=0 control=64 value=127 time=10
note_on channel=0 note=67 velocity=0 time=24
note_on channel=0 note=66 velocity=56 time=1
note_on channel=0 note=66 velocity=0 time=34
note_on channel=0 note=67 velocity=49 time=0
note_on channel=0 note=60 velocity=0 time=17
note_on channel=0 note=57 velocity=0 time=0
note_on channel=0 note=62 velocity=35 time=0
note_on channel=0 note=67 velocity=0 time=17
note_on channel=0 note=66 velocity=56 time=0
note_on channel=0 note=66 velocity=0 time=34
note_on channel=0 note=64 velocity=51 time=0
note_on channel=0 note=64 velocity=0 time=34
note_on channel=0 note=66 velocity=51 time=0
note_on channel=0 note=66 velocity=0 time=34
note_on channel=0 note=62 velocity=0 time=1
note_on channel=0 note=67 velocity=57 time=0
note_on channel=0 note=57 velocity=29 time=0
note_on channel=0 note=60 velocity=35 time=0
note_on channel=0 note=60 velocity=0 time=0
note_on channel=0 note=57 velocity=0 time=0
note_on channel=0 note=62 velocity=35 time=0
note_on channel=0 note=62 velocity=0 time=0
note_on channel=0 note=67 velocity=0 time=0
note_on channel=0 note=69 velocity=59 time=0
note_on channel=0 note=57 velocity=38 time=0
note_on channel=0 note=60 velocity=45 time=0
control_change channel=0 control=64 value=0 time=9
control_change channel=0 control=64 value=127 time=35
note_on channel=0 note=60 velocity=0 time=76
note_on channel=0 note=57 velocity=0 time=0
note_on channel=0 note=62 velocity=35 time=0
note_on channel=0 note=62 velocity=0 time=120
note_on channel=0 note=69 velocity=0 time=0
note_on channel=0 note=70 velocity=64 time=0
note_on channel=0 note=55 velocity=29 time=0
note_on channel=0 note=58 velocity=35 time=0
note_on channel=0 note=58 velocity=0 time=120
note_on channel=0 note=55 velocity=0 time=0
note_on channel=0 note=62 velocity=35 time=0
note_on channel=0 note=62 velocity=0 time=0
note_on channel=0 note=70 velocity=0 time=0
note_on channel=0 note=72 velocity=64 time=0
note_on channel=0 note=54 velocity=39 time=0
note_on channel=0 note=57 velocity=47 time=0
control_change channel=0 control=64 value=0 time=9
control_change channel=0 control=64 value=127 time=30
note_on channel=0 note=57 velocity=0 time=0
note_on channel=0 note=54 velocity=0 time=0
note_on channel=0 note=72 velocity=0 time=0
note_on channel=0 note=73 velocity=58 time=0
note_on channel=0 note=62 velocity=36 time=0
note_on channel=0 note=73 velocity=0 time=116
note_on channel=0 note=62 velocity=0 time=0
note_on channel=0 note=73 velocity=64 time=0
note_on channel=0 note=54 velocity=30 time=0
note_on channel=0 note=57 velocity=36 time=0
note_on channel=0 note=57 velocity=0 time=0
note_on channel=0 note=54 velocity=0 time=0
note_on channel=0 note=73 velocity=0 time=0
note_on channel=0 note=74 velocity=56 time=0
note_on channel=0 note=62 velocity=36 time=0
control_change channel=0 control=64 value=0 time=99
note_on channel=0 note=74 velocity=0 time=16
note_on channel=0 note=62 velocity=0 time=0
note_on channel=0 note=74 velocity=71 time=0
note_on channel=0 note=58 velocity=56 time=0
note_on channel=0 note=55 velocity=56 time=0
note_on channel=0 note=55 velocity=0 time=60
note_on channel=0 note=58 velocity=0 time=0
note_on channel=0 note=62 velocity=47 time=60
note_on channel=0 note=62 velocity=0 time=0
control_change channel=0 control=64 value=127 time=52
note_on channel=0 note=74 velocity=0 time=8
note_on channel=0 note=82 velocity=76 time=0
note_on channel=0 note=74 velocity=64 time=0
note_on channel=0 note=66 velocity=47 time=0
note_on channel=0 note=66 velocity=0 time=0
note_on channel=0 note=67 velocity=47 time=60
note_on channel=0 note=67 velocity=0 time=60
control_change channel=0 control=64 value=0 time=43
note_on channel=0 note=74 velocity=0 time=17
note_on channel=0 note=82 velocity=0 time=0
note_on channel=0 note=62 velocity=56 time=0
note_on channel=0 note=62 velocity=0 time=60
note_on channel=0 note=58 velocity=42 time=60
note_on channel=0 note=58 velocity=0 time=60
note_on channel=0 note=82 velocity=73 time=60
note_on channel=0 note=74 velocity=62 time=0
note_on channel=0 note=57 velocity=42 time=0
control_change channel=0 control=64 value=127 time=9
note_on channel=0 note=57 velocity=0 time=0
note_on channel=0 note=55 velocity=42 time=60
note_on channel=0 note=55 velocity=0 time=0
note_on channel=0 note=74 velocity=0 time=60
note_on channel=0 note=82 velocity=0 time=0
note_on channel=0 note=50 velocity=47 time=0
note_on channel=0 note=54 velocity=56 time=0
control_change channel=0 control=64 value=0 time=35
note_on channel=0 note=54 velocity=0 time=25
note_on channel=0 note=50 velocity=0 time=0
note_on channel=0 note=57 velocity=40 time=60
note_on channel=0 note=57 velocity=0 time=60
note_on channel=0 note=81 velocity=67 time=60
note_on channel=0 note=72 velocity=56 time=0
note_on channel=0 note=60 velocity=40 time=0
control_change channel=0 control=64 value=127 time=37
note_on channel=0 note=60 velocity=0 time=23
note_on channel=0 note=50 velocity=40 time=60
note_on channel=0 note=50 velocity=0 time=60
note_on channel=0 note=72 velocity=0 time=60
note_on channel=0 note=81 velocity=0 time=0
note_on channel=0 note=51 velocity=52 time=0
control_change channel=0 control=64 value=0 time=15
note_on channel=0 note=51 velocity=0 time=45
note_on channel=0 note=55 velocity=36 time=60
note_on channel=0 note=55 velocity=0 time=60
note_on channel=0 note=79 velocity=61 time=60
note_on channel=0 note=70 velocity=51 time=0
note_on channel=0 note=58 velocity=36 time=0
control_change channel=0 control=64 value=127 time=26
note_on channel=0 note=58 velocity=0 time=34
note_on channel=0 note=55 velocity=36 time=0
note_on channel=0 note=55 velocity=0 time=0
note_on channel=0 note=70 velocity=0 time=0
note_on channel=0 note=79 velocity=0 time=0
note_on channel=0 note=51 velocity=44 time=0
note_on channel=0 note=55 velocity=48 time=0
control_change channel=0 control=64 value=0 time=0
note_on channel=0 note=55 velocity=0 time=60
note_on channel=0 note=51 velocity=0 time=0
note_on channel=0 note=58 velocity=36 time=0
note_on channel=0 note=58 velocity=0 time=60
note_on channel=0 note=79 velocity=66 time=0
note_on channel=0 note=70 velocity=56 time=0
note_on channel=0 note=67 velocity=56 time=0
note_on channel=0 note=62 velocity=35 time=0
control_change channel=0 control=64 value=127 time=46
note_on channel=0 note=62 velocity=0 time=0
note_on channel=0 note=63 velocity=35 time=60
note_on channel=0 note=63 velocity=0 time=60
note_on channel=0 note=67 velocity=0 time=60
note_on channel=0 note=70 velocity=0 time=0
note_on channel=0 note=79 velocity=0 time=0
note_on channel=0 note=58 velocity=43 time=0
control_change channel=0 control=64 value=0 time=12
note_on channel=0 note=58 velocity=0 time=48
note_on channel=0 note=55 velocity=30 time=60
note_on channel=0 note=55 velocity=0 time=60
note_on channel=0 note=79 velocity=64 time=60
note_on channel=0 note=75 velocity=54 time=0
note_on channel=0 note=67 velocity=54 time=0
note_on channel=0 note=53 velocity=30 time=0
control_change channel=0 control=64 value=127 time=57
note_on channel=0 note=53 velocity=0 time=3
note_on channel=0 note=51 velocity=30 time=0
note_on channel=0 note=51 velocity=0 time=60
note_on channel=0 note=67 velocity=0 time=0
note_on channel=0 note=75 velocity=0 time=0
note_on channel=0 note=79 velocity=0 time=0
note_on channel=0 note=43 velocity=39 time=0
note_on channel=0 note=47 velocity=39 time=0
control_change channel=0 control=64 value=0 time=15
note_on channel=0 note=47 velocity=0 time=0
note_on channel=0 note=43 velocity=0 time=0
note_on channel=0 note=50 velocity=29 time=36
note_on channel=0 note=50 velocity=0 time=60
note_on channel=0 note=77 velocity=56 time=60
note_on channel=0 note=74 velocity=47 time=0
note_on channel=0 note=67 velocity=47 time=0
note_on channel=0 note=55 velocity=29 time=0
note_on channel=0 note=55 velocity=0 time=24
control_change channel=0 control=64 value=127 time=9
note_on channel=0 note=47 velocity=29 time=51
note_on channel=0 note=47 velocity=0 time=60
note_on channel=0 note=67 velocity=0 time=36
note_on channel=0 note=74 velocity=0 time=0
note_on channel=0 note=77 velocity=0 time=0
note_on channel=0 note=48 velocity=38 time=0
control_change channel=0 control=64 value=0 time=43
note_on channel=0 note=48 velocity=0 time=17
note_on channel=0 note=51 velocity=28 time=60
note_on channel=0 note=51 velocity=0 time=24
note_on channel=0 note=75 velocity=48 time=60
note_on channel=0 note=72 velocity=40 time=0
note_on channel=0 note=67 velocity=35 time=0
note_on channel=0 note=55 velocity=29 time=0
note_on channel=0 note=55 velocity=0 time=60
control_change channel=0 control=64 value=127 time=3
note_on channel=0 note=48 velocity=26 time=0
note_on channel=0 note=48 velocity=0 time=60
note_on channel=0 note=67 velocity=0 time=0
note_on channel=0 note=72 velocity=0 time=0
note_on channel=0 note=75 velocity=0 time=0
note_on channel=0 note=73 velocity=30 time=0
note_on channel=0 note=70 velocity=30 time=0
note_on channel=0 note=67 velocity=30 time=0
note_on channel=0 note=77 velocity=50 time=0
note_on channel=0 note=46 velocity=30 time=0
note_on channel=0 note=61 velocity=30 time=0
control_change channel=0 control=64 value=0 time=0
note_on channel=0 note=77 velocity=0 time=360
note_on channel=0 note=76 velocity=45 time=0
control_change channel=0 control=64 value=127 time=86
note_on channel=0 note=76 velocity=0 time=0
note_on channel=0 note=79 velocity=50 time=0
note_on channel=0 note=52 velocity=23 time=0
note_on channel=0 note=52 velocity=0 time=480
note_on channel=0 note=55 velocity=29 time=0
note_on channel=0 note=55 velocity=0 time=480
note_on channel=0 note=52 velocity=23 time=0
note_on channel=0 note=52 velocity=0 time=480
note_on channel=0 note=61 velocity=0 time=0
note_on channel=0 note=70 velocity=0 time=0
note_on channel=0 note=67 velocity=0 time=0
note_on channel=0 note=73 velocity=0 time=0
note_on channel=0 note=79 velocity=0 time=0
note_on channel=0 note=46 velocity=0 time=0
note_on channel=0 note=73 velocity=30 time=0
note_on channel=0 note=70 velocity=30 time=0
note_on channel=0 note=67 velocity=30 time=0
note_on channel=0 note=77 velocity=50 time=0
note_on channel=0 note=46 velocity=30 time=0
note_on channel=0 note=61 velocity=30 time=0
control_change channel=0 control=64 value=0 time=23
note_on channel=0 note=77 velocity=0 time=337
note_on channel=0 note=76 velocity=45 time=0
control_change channel=0 control=64 value=127 time=103
note_on channel=0 note=76 velocity=0 time=17
note_on channel=0 note=79 velocity=50 time=0
note_on channel=0 note=52 velocity=23 time=0
note_on channel=0 note=52 velocity=0 time=480
note_on channel=0 note=55 velocity=29 time=0
note_on channel=0 note=55 velocity=0 time=0
note_on channel=0 note=70 velocity=0 time=0
note_on channel=0 note=73 velocity=0 time=0
note_on channel=0 note=67 velocity=0 time=0
note_on channel=0 note=46 velocity=0 time=0
note_on channel=0 note=73 velocity=30 time=0
note_on channel=0 note=79 velocity=60 time=0
note_on channel=0 note=46 velocity=30 time=0
note_on channel=0 note=52 velocity=23 time=0
note_on channel=0 note=79 velocity=0 time=360
note_on channel=0 note=85 velocity=52 time=0
note_on channel=0 note=85 velocity=0 time=116
note_on channel=0 note=52 velocity=0 time=4
note_on channel=0 note=73 velocity=0 time=0
note_on channel=0 note=79 velocity=0 time=0
note_on channel=0 note=61 velocity=0 time=0
note_on channel=0 note=46 velocity=0 time=0
note_on channel=0 note=85 velocity=65 time=0
note_on channel=0 note=85 velocity=0 time=0
note_on channel=0 note=72 velocity=29 time=0
note_on channel=0 note=84 velocity=50 time=0
note_on channel=0 note=48 velocity=24 time=0
note_on channel=0 note=44 velocity=24 time=0
note_on channel=0 note=53 velocity=29 time=0
control_change channel=0 control=64 value=0 time=10
control_change channel=0 control=64 value=127 time=93
note_on channel=0 note=84 velocity=0 time=0
note_on channel=0 note=77 velocity=45 time=0
note_on channel=0 note=77 velocity=0 time=114
note_on channel=0 note=53 velocity=0 time=0
note_on channel=0 note=72 velocity=0 time=0
note_on channel=0 note=48 velocity=0 time=0
note_on channel=0 note=44 velocity=0 time=0
note_on channel=0 note=77 velocity=51 time=0
note_on channel=0 note=77 velocity=0 time=0
note_on channel=0 note=70 velocity=29 time=0
note_on channel=0 note=76 velocity=50 time=0
note_on channel=0 note=64 velocity=29 time=0
note_on channel=0 note=48 velocity=24 time=0
note_on channel=0 note=55 velocity=29 time=0
control_change channel=0 control=64 value=0 time=10
control_change channel=0 control=64 value=127 time=110
note_on channel=0 note=76 velocity=0 time=120
note_on channel=0 note=79 velocity=45 time=0
note_on channel=0 note=79 velocity=0 time=114
note_on channel=0 note=55 velocity=0 time=0
note_on channel=0 note=70 velocity=0 time=0
note_on channel=0 note=64 velocity=0 time=0
note_on channel=0 note=48 velocity=0 time=0
note_on channel=0 note=79 velocity=55 time=0
note_on channel=0 note=79 velocity=0 time=60
note_on channel=0 note=80 velocity=50 time=0
control_change channel=0 control=64 value=0 time=5
control_change channel=0 control=64 value=127 time=58
note_on channel=0 note=72 velocity=30 time=0
note_on channel=0 note=53 velocity=20 time=0
note_on channel=0 note=65 velocity=24 time=0
note_on channel=0 note=65 velocity=0 time=0
note_on channel=0 note=53 velocity=0 time=0
note_on channel=0 note=72 velocity=0 time=0
note_on channel=0 note=72 velocity=24 time=0
note_on channel=0 note=53 velocity=20 time=0
note_on channel=0 note=65 velocity=24 time=0
note_on channel=0 note=65 velocity=0 time=0
note_on channel=0 note=53 velocity=0 time=0
note_on channel=0 note=72 velocity=0 time=0
note_on channel=0 note=73 velocity=38 time=1
note_on channel=0 note=68 velocity=35 time=0
note_on channel=0 note=65 velocity=29 time=0
control_change channel=0 control=64 value=0 time=0
control_change channel=0 control=64 value=127 time=78
note_on channel=0 note=80 velocity=0 time=35
note_on channel=0 note=73 velocity=0 time=121
note_on channel=0 note=68 velocity=0 time=0
note_on channel=0 note=65 velocity=0 time=0
note_on channel=0 note=72 velocity=43 time=0
note_on channel=0 note=63 velocity=31 time=0
note_on channel=0 note=66 velocity=31 time=0
note_on channel=0 note=68 velocity=37 time=0
control_change channel=0 control=64 value=0 time=6
control_change channel=0 control=64 value=127 time=79
note_on channel=0 note=68 velocity=0 time=149
note_on channel=0 note=72 velocity=0 time=0
note_on channel=0 note=63 velocity=0 time=0
note_on channel=0 note=66 velocity=0 time=0
note_on channel=0 note=73 velocity=49 time=0
note_on channel=0 note=68 velocity=40 time=0
note_on channel=0 note=65 velocity=34 time=0
note_on channel=0 note=61 velocity=34 time=0
control_change channel=0 control=64 value=0 time=0
control_change channel=0 control=64 value=127 time=78
note_on channel=0 note=61 velocity=0 time=156
note_on channel=0 note=73 velocity=0 time=0
note_on channel=0 note=68 velocity=0 time=0
note_on channel=0 note=65 velocity=0 time=0
note_on channel=0 note=77 velocity=59 time=0
note_on channel=0 note=60 velocity=38 time=0
note_on channel=0 note=63 velocity=38 time=0
note_on channel=0 note=68 velocity=46 time=0
control_change channel=0 control=64 value=0 time=0
control_change channel=0 control=64 value=127 time=31
note_on channel=0 note=77 velocity=0 time=203
note_on channel=0 note=75 velocity=44 time=0
note_on channel=0 note=75 velocity=0 time=54
note_on channel=0 note=77 velocity=44 time=0
note_on channel=0 note=77 velocity=0 time=60
note_on channel=0 note=75 velocity=44 time=0
note_on channel=0 note=75 velocity=0 time=60
note_on channel=0 note=74 velocity=44 time=0
note_on channel=0 note=74 velocity=0 time=60
note_on channel=0 note=60 velocity=0 time=0
note_on channel=0 note=63 velocity=0 time=0
note_on channel=0 note=68 velocity=0 time=0
note_on channel=0 note=75 velocity=52 time=0
note_on channel=0 note=60 velocity=36 time=0
note_on channel=0 note=63 velocity=36 time=0
note_on channel=0 note=69 velocity=43 time=0
control_change channel=0 control=64 value=0 time=5
control_change channel=0 control=64 value=127 time=66
note_on channel=0 note=75 velocity=0 time=114
note_on channel=0 note=77 velocity=55 time=0
note_on channel=0 note=77 velocity=0 time=120
note_on channel=0 note=78 velocity=61 time=0
control_change channel=0 control=64 value=0 time=0
control_change channel=0 control=64 value=127 time=57
note_on channel=0 note=69 velocity=0 time=177
note_on channel=0 note=60 velocity=0 time=0
note_on channel=0 note=63 velocity=0 time=0
note_on channel=0 note=58 velocity=34 time=0
note_on channel=0 note=61 velocity=34 time=0
note_on channel=0 note=66 velocity=40 time=0
control_change channel=0 control=64 value=0 time=13
control_change channel=0 control=64 value=127 time=47
note_on channel=0 note=66 velocity=0 time=180
note_on channel=0 note=61 velocity=0 time=0
note_on channel=0 note=58 velocity=0 time=0
note_on channel=0 note=57 velocity=42 time=0
note_on channel=0 note=60 velocity=42 time=0
note_on channel=0 note=65 velocity=50 time=0
control_change channel=0 control=64 value=0 time=6
control_change channel=0 control=64 value=127 time=51
note_on channel=0 note=78 velocity=0 time=57
note_on channel=0 note=77 velocity=56 time=0
note_on channel=0 note=77 velocity=0 time=120
note_on channel=0 note=65 velocity=0 time=0
note_on channel=0 note=60 velocity=0 time=0
note_on channel=0 note=57 velocity=0 time=0
note_on channel=0 note=87 velocity=64 time=0
note_on channel=0 note=57 velocity=34 time=0
note_on channel=0 note=60 velocity=34 time=0
note_on channel=0 note=65 velocity=40 time=0
note_on channel=0 note=87 velocity=0 time=114
note_on channel=0 note=84 velocity=58 time=0
note_on channel=0 note=84 velocity=0 time=118
note_on channel=0 note=65 velocity=0 time=2
note_on channel=0 note=60 velocity=0 time=0
note_on channel=0 note=57 velocity=0 time=0
note_on channel=0 note=84 velocity=67 time=0
note_on channel=0 note=57 velocity=34 time=0
note_on channel=0 note=60 velocity=34 time=0
note_on channel=0 note=65 velocity=40 time=0
control_change channel=0 control=64 value=0 time=8
control_change channel=0 control=64 value=127 time=99
note_on channel=0 note=65 velocity=0 time=367
note_on channel=0 note=60 velocity=0 time=0
note_on channel=0 note=57 velocity=0 time=0
note_on channel=0 note=58 velocity=24 time=0
note_on channel=0 note=61 velocity=24 time=0
note_on channel=0 note=65 velocity=29 time=0
control_change channel=0 control=64 value=0 time=7
control_change channel=0 control=64 value=127 time=107
note_on channel=0 note=84 velocity=0 time=120
note_on channel=0 note=87 velocity=45 time=0
note_on channel=0 note=87 velocity=0 time=120
note_on channel=0 note=85 velocity=45 time=0
note_on channel=0 note=85 velocity=0 time=120
note_on channel=0 note=58 velocity=0 time=0
note_on channel=0 note=61 velocity=0 time=0
note_on channel=0 note=65 velocity=0 time=0
control_change channel=0 control=64 value=0 time=12
control_change channel=0 control=64 value=127 time=447
note_on channel=0 note=66 velocity=45 time=21
note_on channel=0 note=66 velocity=0 time=234
note_on channel=0 note=65 velocity=39 time=0
note_on channel=0 note=61 velocity=37 time=239
note_on channel=0 note=65 velocity=0 time=1
note_on channel=0 note=65 velocity=52 time=0
note_on channel=0 note=36 velocity=32 time=0
note_on channel=0 note=49 velocity=38 time=0
control_change channel=0 control=64 value=0 time=0
note_on channel=0 note=55 velocity=32 time=0
note_on channel=0 note=58 velocity=32 time=0
control_change channel=0 control=64 value=127 time=68
note_on channel=0 note=64 velocity=45 time=285
note_on channel=0 note=65 velocity=0 time=1
note_on channel=0 note=64 velocity=0 time=113
note_on channel=0 note=40 velocity=43 time=0
note_on channel=0 note=49 velocity=0 time=1
note_on channel=0 note=67 velocity=58 time=0
control_change channel=0 control=64 value=0 time=1
control_change channel=0 control=64 value=127 time=136
note_on channel=0 note=61 velocity=0 time=96
note_on channel=0 note=55 velocity=0 time=1
note_on channel=0 note=58 velocity=0 time=0
note_on channel=0 note=40 velocity=0 time=239
note_on channel=0 note=43 velocity=43 time=1
note_on channel=0 note=56 velocity=39 time=479
note_on channel=0 note=43 velocity=0 time=1
note_on channel=0 note=36 velocity=0 time=0
note_on channel=0 note=67 velocity=0 time=0
note_on channel=0 note=60 velocity=51 time=0
note_on channel=0 note=67 velocity=60 time=0
note_on channel=0 note=32 velocity=32 time=0
note_on channel=0 note=36 velocity=32 time=0
note_on channel=0 note=44 velocity=45 time=0
control_change channel=0 control=64 value=0 time=11
control_change channel=0 control=64 value=127 time=97
note_on channel=0 note=67 velocity=0 time=252
note_on channel=0 note=65 velocity=52 time=0
note_on channel=0 note=65 velocity=0 time=108
note_on channel=0 note=56 velocity=0 time=5
note_on channel=0 note=32 velocity=0 time=1
note_on channel=0 note=60 velocity=0 time=0
note_on channel=0 note=44 velocity=0 time=0
note_on channel=0 note=36 velocity=0 time=0
note_on channel=0 note=58 velocity=52 time=0
note_on channel=0 note=60 velocity=52 time=0
note_on channel=0 note=65 velocity=62 time=0
note_on channel=0 note=31 velocity=32 time=0
note_on channel=0 note=36 velocity=32 time=0
note_on channel=0 note=43 velocity=45 time=0
control_change channel=0 control=64 value=0 time=5
control_change channel=0 control=64 value=127 time=74
note_on channel=0 note=64 velocity=50 time=274
note_on channel=0 note=65 velocity=0 time=1
note_on channel=0 note=64 velocity=0 time=107
note_on channel=0 note=60 velocity=0 time=7
note_on channel=0 note=31 velocity=0 time=0
note_on channel=0 note=58 velocity=0 time=0
note_on channel=0 note=43 velocity=0 time=0
note_on channel=0 note=36 velocity=0 time=0
note_on channel=0 note=56 velocity=54 time=0
note_on channel=0 note=60 velocity=54 time=0
note_on channel=0 note=67 velocity=64 time=0
note_on channel=0 note=29 velocity=32 time=0
note_on channel=0 note=36 velocity=32 time=0
note_on channel=0 note=41 velocity=45 time=0
control_change channel=0 control=64 value=0 time=7
control_change channel=0 control=64 value=127 time=101
note_on channel=0 note=67 velocity=0 time=246
note_on channel=0 note=65 velocity=54 time=0
note_on channel=0 note=65 velocity=0 time=108
note_on channel=0 note=40 velocity=45 time=5
note_on channel=0 note=28 velocity=32 time=0
note_on channel=0 note=41 velocity=0 time=1
note_on channel=0 note=36 velocity=0 time=0
note_on channel=0 note=56 velocity=0 time=0
note_on channel=0 note=29 velocity=0 time=0
note_on channel=0 note=60 velocity=0 time=0
note_on channel=0 note=55 velocity=58 time=0
note_on channel=0 note=60 velocity=58 time=0
note_on channel=0 note=68 velocity=69 time=0
note_on channel=0 note=36 velocity=32 time=0
control_change channel=0 control=64 value=0 time=1
control_change channel=0 control=64 value=127 time=101
note_on channel=0 note=68 velocity=0 time=252
note_on channel=0 note=67 velocity=45 time=0
note_on channel=0 note=67 velocity=0 time=108
note_on channel=0 note=40 velocity=0 time=5
note_on channel=0 note=28 velocity=0 time=0
note_on channel=0 note=64 velocity=51 time=0
note_on channel=0 note=60 velocity=0 time=1
note_on channel=0 note=36 velocity=0 time=0
note_on channel=0 note=55 velocity=0 time=0
control_change channel=0 control=64 value=0 time=7
control_change channel=0 control=64 value=127 time=2
note_on channel=0 note=64 velocity=0 time=34
note_on channel=0 note=67 velocity=46 time=1
note_on channel=0 note=67 velocity=0 time=23
note_on channel=0 note=70 velocity=42 time=0
note_on channel=0 note=70 velocity=0 time=66
note_on channel=0 note=73 velocity=48 time=0
note_on channel=0 note=73 velocity=0 time=52
note_on channel=0 note=72 velocity=54 time=0
control_change channel=0 control=64 value=0 time=0
control_change channel=0 control=64 value=127 time=91
note_on channel=0 note=72 velocity=0 time=23
note_on channel=0 note=70 velocity=43 time=0
note_on channel=0 note=70 velocity=0 time=120
note_on channel=0 note=68 velocity=43 time=0
note_on channel=0 note=68 velocity=0 time=120
note_on channel=0 note=67 velocity=43 time=0
note_on channel=0 note=67 velocity=0 time=13
note_on channel=0 note=70 velocity=53 time=0
control_change channel=0 control=64 value=0 time=10
control_change channel=0 control=64 value=127 time=87
note_on channel=0 note=76 velocity=45 time=22
note_on channel=0 note=70 velocity=0 time=1
note_on channel=0 note=76 velocity=0 time=119
note_on channel=0 note=79 velocity=45 time=1
note_on channel=0 note=79 velocity=0 time=120
note_on channel=0 note=82 velocity=45 time=0
note_on channel=0 note=82 velocity=0 time=114
note_on channel=0 note=80 velocity=54 time=0
control_change channel=0 control=64 value=0 time=7
control_change channel=0 control=64 value=127 time=78
note_on channel=0 note=80 velocity=0 time=29
note_on channel=0 note=79 velocity=45 time=0
note_on channel=0 note=79 velocity=0 time=120
note_on channel=0 note=77 velocity=45 time=0
note_on channel=0 note=76 velocity=45 time=119
note_on channel=0 note=77 velocity=0 time=1
note_on channel=0 note=76 velocity=0 time=113
note_on channel=0 note=79 velocity=51 time=1
control_change channel=0 control=64 value=0 time=7
control_change channel=0 control=64 value=127 time=84
note_on channel=0 note=79 velocity=0 time=23
note_on channel=0 note=82 velocity=53 time=0
note_on channel=0 note=82 velocity=0 time=120
note_on channel=0 note=84 velocity=55 time=0
note_on channel=0 note=84 velocity=0 time=120
note_on channel=0 note=85 velocity=57 time=0
note_on channel=0 note=85 velocity=0 time=114
note_on channel=0 note=84 velocity=60 time=0
control_change channel=0 control=64 value=0 time=3
control_change channel=0 control=64 value=127 time=79
note_on channel=0 note=84 velocity=0 time=35
note_on channel=0 note=82 velocity=51 time=0
note_on channel=0 note=82 velocity=0 time=120
note_on channel=0 note=80 velocity=52 time=0
note_on channel=0 note=80 velocity=0 time=120
note_on channel=0 note=79 velocity=52 time=0
note_on channel=0 note=79 velocity=0 time=114
note_on channel=0 note=82 velocity=58 time=0
control_change channel=0 control=64 value=0 time=7
control_change channel=0 control=64 value=127 time=72
note_on channel=0 note=82 velocity=0 time=35
note_on channel=0 note=79 velocity=48 time=0
note_on channel=0 note=79 velocity=0 time=120
note_on channel=0 note=77 velocity=49 time=0
note_on channel=0 note=76 velocity=49 time=119
note_on channel=0 note=77 velocity=0 time=1
note_on channel=0 note=76 velocity=0 time=113
note_on channel=0 note=82 velocity=60 time=1
control_change channel=0 control=64 value=0 time=7
note_on channel=0 note=82 velocity=0 time=18
note_on channel=0 note=79 velocity=53 time=0
control_change channel=0 control=64 value=127 time=11
note_on channel=0 note=79 velocity=0 time=61
note_on channel=0 note=77 velocity=55 time=0
note_on channel=0 note=76 velocity=56 time=8
note_on channel=0 note=77 velocity=0 time=1
note_on channel=0 note=76 velocity=0 time=12
note_on channel=0 note=91 velocity=69 time=0
note_on channel=0 note=79 velocity=69 time=1
control_change channel=0 control=64 value=0 time=13
note_on channel=0 note=91 velocity=0 time=6
note_on channel=0 note=79 velocity=0 time=1
control_change channel=0 control=64 value=127 time=7
note_on channel=0 note=88 velocity=59 time=17
note_on channel=0 note=76 velocity=59 time=0
note_on channel=0 note=76 velocity=0 time=11
note_on channel=0 note=88 velocity=0 time=0
note_on channel=0 note=85 velocity=63 time=3
note_on channel=0 note=73 velocity=63 time=1
note_on channel=0 note=85 velocity=0 time=54
note_on channel=0 note=73 velocity=0 time=1
note_on channel=0 note=84 velocity=65 time=29
note_on channel=0 note=72 velocity=65 time=1
note_on channel=0 note=84 velocity=0 time=83
note_on channel=0 note=72 velocity=0 time=1
note_on channel=0 note=84 velocity=64 time=0
note_on channel=0 note=72 velocity=54 time=0
note_on channel=0 note=52 velocity=38 time=0
note_on channel=0 note=55 velocity=45 time=0
control_change channel=0 control=64 value=0 time=0
note_on channel=0 note=55 velocity=0 time=4
note_on channel=0 note=52 velocity=0 time=0
note_on channel=0 note=60 velocity=31 time=0
control_change channel=0 control=64 value=127 time=6
note_on channel=0 note=60 velocity=0 time=28
note_on channel=0 note=52 velocity=26 time=0
note_on channel=0 note=55 velocity=31 time=0
note_on channel=0 note=55 velocity=0 time=33
note_on channel=0 note=52 velocity=0 time=0
note_on channel=0 note=60 velocity=31 time=0
note_on channel=0 note=60 velocity=0 time=19
note_on channel=0 note=72 velocity=0 time=0
note_on channel=0 note=84 velocity=0 time=0
note_on channel=0 note=79 velocity=58 time=0
note_on channel=0 note=67 velocity=49 time=0
note_on channel=0 note=52 velocity=36 time=0
note_on channel=0 note=55 velocity=43 time=0
note_on channel=0 note=55 velocity=0 time=120
note_on channel=0 note=52 velocity=0 time=0
note_on channel=0 note=60 velocity=32 time=0
note_on channel=0 note=60 velocity=0 time=120
note_on channel=0 note=52 velocity=27 time=0
note_on channel=0 note=55 velocity=32 time=0
note_on channel=0 note=55 velocity=0 time=120
note_on channel=0 note=52 velocity=0 time=0
note_on channel=0 note=60 velocity=32 time=0
note_on channel=0 note=60 velocity=0 time=120
note_on channel=0 note=52 velocity=35 time=0
note_on channel=0 note=55 velocity=42 time=0
note_on channel=0 note=55 velocity=0 time=120
note_on channel=0 note=52 velocity=0 time=0
note_on channel=0 note=60 velocity=33 time=0
note_on channel=0 note=60 velocity=0 time=120
note_on channel=0 note=52 velocity=28 time=0
note_on channel=0 note=55 velocity=33 time=0
note_on channel=0 note=55 velocity=0 time=120
note_on channel=0 note=52 velocity=0 time=0
note_on channel=0 note=60 velocity=33 time=0
note_on channel=0 note=60 velocity=0 time=120
note_on channel=0 note=67 velocity=0 time=0
note_on channel=0 note=79 velocity=0 time=0
note_on channel=0 note=81 velocity=64 time=0
note_on channel=0 note=69 velocity=54 time=0
note_on channel=0 note=53 velocity=36 time=0
note_on channel=0 note=57 velocity=43 time=0
control_change channel=0 control=64 value=0 time=13
control_change channel=0 control=64 value=127 time=20
note_on channel=0 note=57 velocity=0 time=40
note_on channel=0 note=53 velocity=0 time=0
note_on channel=0 note=60 velocity=30 time=0
note_on channel=0 note=60 velocity=0 time=0
note_on channel=0 note=69 velocity=0 time=0
note_on channel=0 note=81 velocity=0 time=0
note_on channel=0 note=77 velocity=53 time=0
note_on channel=0 note=65 velocity=45 time=0
note_on channel=0 note=53 velocity=25 time=0
note_on channel=0 note=57 velocity=30 time=0
note_on channel=0 note=57 velocity=0 time=120
note_on channel=0 note=53 velocity=0 time=0
note_on channel=0 note=60 velocity=30 time=0
note_on channel=0 note=65 velocity=0 time=115
note_on channel=0 note=77 velocity=0 time=0
note_on channel=0 note=60 velocity=0 time=0
note_on channel=0 note=77 velocity=64 time=0
note_on channel=0 note=65 velocity=54 time=0
note_on channel=0 note=55 velocity=38 time=0
note_on channel=0 note=58 velocity=45 time=0
control_change channel=0 control=64 value=0 time=11
control_change channel=0 control=64 value=127 time=41
note_on channel=0 note=58 velocity=0 time=68
note_on channel=0 note=55 velocity=0 time=0
note_on channel=0 note=60 velocity=32 time=0
note_on channel=0 note=60 velocity=0 time=0
note_on channel=0 note=77 velocity=0 time=0
note_on channel=0 note=76 velocity=55 time=0
note_on channel=0 note=55 velocity=27 time=0
note_on channel=0 note=58 velocity=32 time=0
note_on channel=0 note=76 velocity=0 time=60
note_on channel=0 note=77 velocity=55 time=0
note_on channel=0 note=77 velocity=0 time=60
note_on channel=0 note=58 velocity=0 time=0
note_on channel=0 note=55 velocity=0 time=0
note_on channel=0 note=76 velocity=55 time=0
note_on channel=0 note=60 velocity=32 time=0
note_on channel=0 note=76 velocity=0 time=60
note_on channel=0 note=74 velocity=55 time=0
note_on channel=0 note=74 velocity=0 time=0
note_on channel=0 note=60 velocity=0 time=0
note_on channel=0 note=65 velocity=0 time=0
note_on channel=0 note=76 velocity=64 time=0
note_on channel=0 note=64 velocity=54 time=0
note_on channel=0 note=55 velocity=38 time=0
note_on channel=0 note=58 velocity=45 time=0
control_change channel=0 control=64 value=0 time=5
control_change channel=0 control=64 value=127 time=38
note_on channel=0 note=58 velocity=0 time=77
note_on channel=0 note=55 velocity=0 time=0
note_on channel=0 note=60 velocity=31 time=0
note_on channel=0 note=60 velocity=0 time=120
note_on channel=0 note=64 velocity=0 time=0
note_on channel=0 note=76 velocity=0 time=0
note_on channel=0 note=77 velocity=59 time=0
note_on channel=0 note=65 velocity=50 time=0
note_on channel=0 note=55 velocity=26 time=0
note_on channel=0 note=58 velocity=31 time=0
note_on channel=0 note=58 velocity=0 time=60
note_on channel=0 note=55 velocity=0 time=0
note_on channel=0 note=60 velocity=31 time=0
note_on channel=0 note=60 velocity=0 time=0
note_on channel=0 note=65 velocity=0 time=0
note_on channel=0 note=77 velocity=0 time=0
note_on channel=0 note=79 velocity=62 time=0
note_on channel=0 note=67 velocity=48 time=0
note_on channel=0 note=55 velocity=38 time=0
note_on channel=0 note=58 velocity=45 time=0
control_change channel=0 control=64 value=0 time=8
control_change channel=0 control=64 value=127 time=52
note_on channel=0 note=58 velocity=0 time=60
note_on channel=0 note=55 velocity=0 time=0
note_on channel=0 note=60 velocity=33 time=0
note_on channel=0 note=60 velocity=0 time=120
note_on channel=0 note=67 velocity=0 time=0
note_on channel=0 note=79 velocity=0 time=0
note_on channel=0 note=81 velocity=62 time=0
note_on channel=0 note=69 velocity=52 time=0
note_on channel=0 note=53 velocity=28 time=0
note_on channel=0 note=57 velocity=33 time=0
control_change channel=0 control=64 value=0 time=8
control_change channel=0 control=64 value=127 time=52
note_on channel=0 note=57 velocity=0 time=0
note_on channel=0 note=53 velocity=0 time=0
note_on channel=0 note=60 velocity=33 time=0
note_on channel=0 note=60 velocity=0 time=0
note_on channel=0 note=69 velocity=0 time=0
note_on channel=0 note=81 velocity=0 time=0
note_on channel=0 note=82 velocity=64 time=0
note_on channel=0 note=70 velocity=54 time=0
note_on channel=0 note=52 velocity=38 time=0
note_on channel=0 note=55 velocity=45 time=0
control_change channel=0 control=64 value=0 time=11
control_change channel=0 control=64 value=127 time=49
note_on channel=0 note=55 velocity=0 time=0
note_on channel=0 note=82 velocity=0 time=0
note_on channel=0 note=70 velocity=0 time=0
note_on channel=0 note=52 velocity=0 time=0
note_on channel=0 note=83 velocity=57 time=0
note_on channel=0 note=71 velocity=48 time=0
note_on channel=0 note=60 velocity=33 time=0
note_on channel=0 note=71 velocity=0 time=114
note_on channel=0 note=83 velocity=0 time=0
note_on channel=0 note=60 velocity=0 time=0
note_on channel=0 note=83 velocity=64 time=0
note_on channel=0 note=71 velocity=54 time=0
note_on channel=0 note=52 velocity=28 time=0
note_on channel=0 note=55 velocity=33 time=0
note_on channel=0 note=55 velocity=0 time=0
note_on channel=0 note=83 velocity=0 time=0
note_on channel=0 note=71 velocity=0 time=0
note_on channel=0 note=52 velocity=0 time=0
note_on channel=0 note=84 velocity=59 time=0
note_on channel=0 note=72 velocity=50 time=0
note_on channel=0 note=60 velocity=33 time=0
note_on channel=0 note=60 velocity=0 time=0
note_on channel=0 note=72 velocity=0 time=0
note_on channel=0 note=84 velocity=0 time=0
note_on channel=0 note=83 velocity=64 time=0
note_on channel=0 note=52 velocity=38 time=0
note_on channel=0 note=55 velocity=45 time=0
control_change channel=0 control=64 value=0 time=12
control_change channel=0 control=64 value=127 time=34
note_on channel=0 note=55 velocity=0 time=74
note_on channel=0 note=52 velocity=0 time=0
note_on channel=0 note=83 velocity=0 time=0
note_on channel=0 note=84 velocity=57 time=0
note_on channel=0 note=60 velocity=34 time=0
note_on channel=0 note=60 velocity=0 time=120
note_on channel=0 note=84 velocity=0 time=0
note_on channel=0 note=86 velocity=57 time=0
note_on channel=0 note=52 velocity=28 time=0
note_on channel=0 note=55 velocity=34 time=0
note_on channel=0 note=55 velocity=0 time=0
note_on channel=0 note=52 velocity=0 time=0
note_on channel=0 note=86 velocity=0 time=0
note_on channel=0 note=84 velocity=57 time=0
note_on channel=0 note=60 velocity=34 time=0
note_on channel=0 note=60 velocity=0 time=0
note_on channel=0 note=84 velocity=0 time=0
note_on channel=0 note=79 velocity=64 time=0
note_on channel=0 note=52 velocity=37 time=0
note_on channel=0 note=55 velocity=44 time=0
control_change channel=0 control=64 value=0 time=3
control_change channel=0 control=64 value=127 time=54
note_on channel=0 note=55 velocity=0 time=63
note_on channel=0 note=52 velocity=0 time=0
note_on channel=0 note=60 velocity=33 time=0
note_on channel=0 note=60 velocity=0 time=120
note_on channel=0 note=52 velocity=28 time=0
note_on channel=0 note=55 velocity=33 time=0
note_on channel=0 note=55 velocity=0 time=120
note_on channel=0 note=52 velocity=0 time=0
note_on channel=0 note=60 velocity=33 time=0
note_on channel=0 note=60 velocity=0 time=0
note_on channel=0 note=52 velocity=38 time=0
note_on channel=0 note=55 velocity=45 time=0
note_on channel=0 note=55 velocity=0 time=0
note_on channel=0 note=52 velocity=0 time=0
note_on channel=0 note=79 velocity=0 time=0
note_on channel=0 note=81 velocity=64 time=0
note_on channel=0 note=60 velocity=34 time=0
note_on channel=0 note=81 velocity=0 time=60
note_on channel=0 note=79 velocity=55 time=0
note_on channel=0 note=79 velocity=0 time=60
note_on channel=0 note=60 velocity=0 time=0
note_on channel=0 note=81 velocity=64 time=0
note_on channel=0 note=52 velocity=28 time=0
note_on channel=0 note=55 velocity=34 time=0
note_on channel=0 note=81 velocity=0 time=60
note_on channel=0 note=79 velocity=54 time=0
note_on channel=0 note=79 velocity=0 time=60
note_on channel=0 note=55 velocity=0 time=0
note_on channel=0 note=52 velocity=0 time=0
note_on channel=0 note=82 velocity=64 time=0
note_on channel=0 note=60 velocity=34 time=0
note_on channel=0 note=82 velocity=0 time=60
note_on channel=0 note=81 velocity=55 time=0
note_on channel=0 note=81 velocity=0 time=0
note_on channel=0 note=60 velocity=0 time=0
note_on channel=0 note=82 velocity=64 time=0
note_on channel=0 note=53 velocity=38 time=0
note_on channel=0 note=57 velocity=45 time=0
control_change channel=0 control=64 value=0 time=13
control_change channel=0 control=64 value=127 time=42
note_on channel=0 note=82 velocity=0 time=5
note_on channel=0 note=81 velocity=56 time=0
note_on channel=0 note=81 velocity=0 time=60
note_on channel=0 note=57 velocity=0 time=0
note_on channel=0 note=53 velocity=0 time=0
note_on channel=0 note=84 velocity=64 time=0
note_on channel=0 note=60 velocity=34 time=0
note_on channel=0 note=84 velocity=0 time=0
note_on channel=0 note=83 velocity=57 time=0
note_on channel=0 note=83 velocity=0 time=60
note_on channel=0 note=60 velocity=0 time=0
note_on channel=0 note=84 velocity=52 time=0
note_on channel=0 note=53 velocity=28 time=0
note_on channel=0 note=57 velocity=34 time=0
note_on channel=0 note=84 velocity=0 time=30
note_on channel=0 note=83 velocity=45 time=0
note_on channel=0 note=83 velocity=0 time=30
note_on channel=0 note=86 velocity=52 time=0
note_on channel=0 note=86 velocity=0 time=30
note_on channel=0 note=84 velocity=48 time=0
note_on channel=0 note=84 velocity=0 time=0
note_on channel=0 note=57 velocity=0 time=0
note_on channel=0 note=53 velocity=0 time=0
note_on channel=0 note=89 velocity=60 time=0
note_on channel=0 note=60 velocity=34 time=0
note_on channel=0 note=89 velocity=0 time=0
note_on channel=0 note=77 velocity=54 time=0
note_on channel=0 note=77 velocity=0 time=57
note_on channel=0 note=60 velocity=0 time=0
note_on channel=0 note=77 velocity=64 time=0
note_on channel=0 note=65 velocity=54 time=0
note_on channel=0 note=55 velocity=38 time=0
note_on channel=0 note=58 velocity=45 time=0
control_change channel=0 control=64 value=0 time=9
control_change channel=0 control=64 value=127 time=33
note_on channel=0 note=58 velocity=0 time=78
note_on channel=0 note=55 velocity=0 time=0
note_on channel=0 note=60 velocity=33 time=0
note_on channel=0 note=60 velocity=0 time=120
note_on channel=0 note=77 velocity=0 time=0
note_on channel=0 note=76 velocity=55 time=0
note_on channel=0 note=55 velocity=28 time=0
note_on channel=0 note=58 velocity=33 time=0
note_on channel=0 note=76 velocity=0 time=60
note_on channel=0 note=77 velocity=55 time=0
note_on channel=0 note=77 velocity=0 time=60
note_on channel=0 note=58 velocity=0 time=0
note_on channel=0 note=55 velocity=0 time=0
note_on channel=0 note=76 velocity=55 time=0
note_on channel=0 note=60 velocity=34 time=0
note_on channel=0 note=76 velocity=0 time=60
note_on channel=0 note=74 velocity=55 time=0
note_on channel=0 note=74 velocity=0 time=0
note_on channel=0 note=60 velocity=0 time=0
note_on channel=0 note=65 velocity=0 time=0
note_on channel=0 note=76 velocity=64 time=0
note_on channel=0 note=64 velocity=54 time=0
note_on channel=0 note=55 velocity=39 time=0
note_on channel=0 note=58 velocity=46 time=0
control_change channel=0 control=64 value=0 time=10
control_change channel=0 control=64 value=127 time=34
note_on channel=0 note=58 velocity=0 time=76
note_on channel=0 note=55 velocity=0 time=0
note_on channel=0 note=60 velocity=35 time=0
note_on channel=0 note=60 velocity=0 time=120
note_on channel=0 note=64 velocity=0 time=0
note_on channel=0 note=76 velocity=0 time=0
note_on channel=0 note=77 velocity=59 time=0
note_on channel=0 note=65 velocity=50 time=0
note_on channel=0 note=55 velocity=29 time=0
note_on channel=0 note=58 velocity=35 time=0
note_on channel=0 note=58 velocity=0 time=0
note_on channel=0 note=55 velocity=0 time=0
note_on channel=0 note=60 velocity=35 time=0
note_on channel=0 note=60 velocity=0 time=0
note_on channel=0 note=65 velocity=0 time=0
note_on channel=0 note=77 velocity=0 time=0
note_on channel=0 note=79 velocity=59 time=0
note_on channel=0 note=67 velocity=50 time=0
note_on channel=0 note=55 velocity=38 time=0
note_on channel=0 note=58 velocity=45 time=0
control_change channel=0 control=64 value=0 time=9
control_change channel=0 control=64 value=127 time=35
note_on channel=0 note=58 velocity=0 time=76
note_on channel=0 note=55 velocity=0 time=0
note_on channel=0 note=60 velocity=35 time=0
note_on channel=0 note=60 velocity=0 time=120
note_on channel=0 note=67 velocity=0 time=0
note_on channel=0 note=79 velocity=0 time=0
note_on channel=0 note=80 velocity=64 time=0
note_on channel=0 note=68 velocity=54 time=0
note_on channel=0 note=53 velocity=29 time=0
note_on channel=0 note=56 velocity=35 time=0
note_on channel=0 note=56 velocity=0 time=120
note_on channel=0 note=53 velocity=0 time=0
note_on channel=0 note=60 velocity=35 time=0
note_on channel=0 note=60 velocity=0 time=0
note_on channel=0 note=68 velocity=0 time=0
note_on channel=0 note=80 velocity=0 time=0
note_on channel=0 note=82 velocity=64 time=0
note_on channel=0 note=70 velocity=54 time=0
note_on channel=0 note=52 velocity=39 time=0
note_on channel=0 note=55 velocity=47 time=0
control_change channel=0 control=64 value=0 time=9
control_change channel=0 control=64 value=127 time=30
note_on channel=0 note=55 velocity=0 time=0
note_on channel=0 note=82 velocity=0 time=0
note_on channel=0 note=70 velocity=0 time=0
note_on channel=0 note=52 velocity=0 time=0
note_on channel=0 note=83 velocity=58 time=0
note_on channel=0 note=71 velocity=49 time=0
note_on channel=0 note=60 velocity=36 time=0
note_on channel=0 note=71 velocity=0 time=114
note_on channel=0 note=83 velocity=0 time=0
note_on channel=0 note=60 velocity=0 time=0
note_on channel=0 note=83 velocity=64 time=0
note_on channel=0 note=71 velocity=54 time=0
note_on channel=0 note=52 velocity=30 time=0
note_on channel=0 note=55 velocity=36 time=0
note_on channel=0 note=55 velocity=0 time=0
note_on channel=0 note=83 velocity=0 time=0
note_on channel=0 note=71 velocity=0 time=0
note_on channel=0 note=52 velocity=0 time=0
note_on channel=0 note=84 velocity=56 time=0
note_on channel=0 note=72 velocity=47 time=0
note_on channel=0 note=60 velocity=36 time=0
control_change channel=0 control=64 value=0 time=99
note_on channel=0 note=72 velocity=0 time=15
note_on channel=0 note=84 velocity=0 time=0
note_on channel=0 note=60 velocity=0 time=0
note_on channel=0 note=84 velocity=71 time=0
note_on channel=0 note=80 velocity=60 time=0
note_on channel=0 note=72 velocity=60 time=0
note_on channel=0 note=56 velocity=56 time=0
note_on channel=0 note=53 velocity=56 time=0
note_on channel=0 note=53 velocity=0 time=60
note_on channel=0 note=56 velocity=0 time=0
note_on channel=0 note=60 velocity=47 time=0
note_on channel=0 note=60 velocity=0 time=60
control_change channel=0 control=64 value=127 time=52
note_on channel=0 note=72 velocity=0 time=0
note_on channel=0 note=80 velocity=0 time=0
note_on channel=0 note=84 velocity=0 time=0
note_on channel=0 note=84 velocity=64 time=0
note_on channel=0 note=80 velocity=64 time=0
note_on channel=0 note=92 velocity=76 time=0
note_on channel=0 note=64 velocity=47 time=0
note_on channel=0 note=64 velocity=0 time=0
note_on channel=0 note=65 velocity=47 time=60
note_on channel=0 note=65 velocity=0 time=60
control_change channel=0 control=64 value=0 time=43
note_on channel=0 note=92 velocity=0 time=17
note_on channel=0 note=80 velocity=0 time=0
note_on channel=0 note=84 velocity=0 time=0
note_on channel=0 note=60 velocity=56 time=0
note_on channel=0 note=60 velocity=0 time=60
note_on channel=0 note=56 velocity=42 time=60
note_on channel=0 note=56 velocity=0 time=60
note_on channel=0 note=80 velocity=73 time=60
note_on channel=0 note=72 velocity=62 time=0
note_on channel=0 note=55 velocity=42 time=0
control_change channel=0 control=64 value=127 time=9
note_on channel=0 note=55 velocity=0 time=0
note_on channel=0 note=53 velocity=42 time=60
note_on channel=0 note=53 velocity=0 time=0
note_on channel=0 note=72 velocity=0 time=0
note_on channel=0 note=80 velocity=0 time=0
note_on channel=0 note=48 velocity=56 time=0
note_on channel=0 note=52 velocity=56 time=0
control_change channel=0 control=64 value=0 time=35
note_on channel=0 note=52 velocity=0 time=25
note_on channel=0 note=48 velocity=0 time=0
note_on channel=0 note=55 velocity=40 time=0
note_on channel=0 note=55 velocity=0 time=60
note_on channel=0 note=79 velocity=67 time=0
note_on channel=0 note=70 velocity=56 time=0
note_on channel=0 note=58 velocity=40 time=0
control_change channel=0 control=64 value=127 time=37
note_on channel=0 note=58 velocity=0 time=23
note_on channel=0 note=48 velocity=40 time=60
note_on channel=0 note=48 velocity=0 time=60
note_on channel=0 note=70 velocity=0 time=60
note_on channel=0 note=79 velocity=0 time=0
note_on channel=0 note=49 velocity=52 time=0
control_change channel=0 control=64 value=0 time=15
note_on channel=0 note=49 velocity=0 time=45
note_on channel=0 note=53 velocity=36 time=60
note_on channel=0 note=53 velocity=0 time=60
note_on channel=0 note=68 velocity=51 time=60
note_on channel=0 note=77 velocity=61 time=0
note_on channel=0 note=56 velocity=36 time=0
control_change channel=0 control=64 value=127 time=26
note_on channel=0 note=56 velocity=0 time=34
note_on channel=0 note=53 velocity=36 time=0
note_on channel=0 note=53 velocity=0 time=0
note_on channel=0 note=77 velocity=0 time=0
note_on channel=0 note=68 velocity=0 time=0
note_on channel=0 note=77 velocity=71 time=0
note_on channel=0 note=68 velocity=63 time=0
note_on channel=0 note=49 velocity=51 time=0
note_on channel=0 note=53 velocity=51 time=0
control_change channel=0 control=64 value=0 time=0
note_on channel=0 note=53 velocity=0 time=60
note_on channel=0 note=49 velocity=0 time=0
note_on channel=0 note=56 velocity=38 time=0
note_on channel=0 note=56 velocity=0 time=60
note_on channel=0 note=68 velocity=0 time=0
note_on channel=0 note=77 velocity=0 time=0
note_on channel=0 note=80 velocity=64 time=0
note_on channel=0 note=77 velocity=64 time=0
note_on channel=0 note=89 velocity=76 time=0
note_on channel=0 note=60 velocity=38 time=0
control_change channel=0 control=64 value=127 time=46
note_on channel=0 note=60 velocity=0 time=14
note_on channel=0 note=61 velocity=38 time=60
note_on channel=0 note=61 velocity=0 time=60
note_on channel=0 note=89 velocity=0 time=60
note_on channel=0 note=77 velocity=0 time=0
note_on channel=0 note=80 velocity=0 time=0
note_on channel=0 note=56 velocity=47 time=0
control_change channel=0 control=64 value=0 time=12
note_on channel=0 note=56 velocity=0 time=48
note_on channel=0 note=53 velocity=33 time=60
note_on channel=0 note=53 velocity=0 time=60
note_on channel=0 note=65 velocity=59 time=60
note_on channel=0 note=77 velocity=70 time=0
note_on channel=0 note=68 velocity=59 time=0
note_on channel=0 note=51 velocity=33 time=0
control_change channel=0 control=64 value=127 time=57
note_on channel=0 note=51 velocity=0 time=3
note_on channel=0 note=49 velocity=33 time=0
note_on channel=0 note=49 velocity=0 time=60
note_on channel=0 note=68 velocity=0 time=0
note_on channel=0 note=77 velocity=0 time=0
note_on channel=0 note=65 velocity=0 time=0
note_on channel=0 note=41 velocity=44 time=0
note_on channel=0 note=45 velocity=44 time=0
control_change channel=0 control=64 value=0 time=15
note_on channel=0 note=45 velocity=0 time=0
note_on channel=0 note=41 velocity=0 time=0
note_on channel=0 note=48 velocity=33 time=36
note_on channel=0 note=48 velocity=0 time=60
note_on channel=0 note=65 velocity=53 time=60
note_on channel=0 note=75 velocity=63 time=0
note_on channel=0 note=72 velocity=53 time=0
note_on channel=0 note=53 velocity=33 time=0
note_on channel=0 note=53 velocity=0 time=24
control_change channel=0 control=64 value=127 time=9
note_on channel=0 note=45 velocity=33 time=51
note_on channel=0 note=45 velocity=0 time=60
note_on channel=0 note=72 velocity=0 time=36
note_on channel=0 note=75 velocity=0 time=0
note_on channel=0 note=65 velocity=0 time=0
note_on channel=0 note=46 velocity=44 time=0
control_change channel=0 control=64 value=0 time=43
note_on channel=0 note=46 velocity=0 time=17
note_on channel=0 note=49 velocity=33 time=60
note_on channel=0 note=49 velocity=0 time=24
note_on channel=0 note=65 velocity=47 time=60
note_on channel=0 note=73 velocity=56 time=0
note_on channel=0 note=70 velocity=47 time=0
note_on channel=0 note=53 velocity=34 time=0
note_on channel=0 note=53 velocity=0 time=60
control_change channel=0 control=64 value=127 time=3
note_on channel=0 note=46 velocity=34 time=0
note_on channel=0 note=46 velocity=0 time=60
note_on channel=0 note=70 velocity=0 time=0
note_on channel=0 note=73 velocity=0 time=0
note_on channel=0 note=65 velocity=0 time=0
note_on channel=0 note=68 velocity=30 time=0
note_on channel=0 note=65 velocity=30 time=0
note_on channel=0 note=62 velocity=30 time=0
note_on channel=0 note=72 velocity=50 time=0
note_on channel=0 note=43 velocity=30 time=0
note_on channel=0 note=56 velocity=30 time=0
control_change channel=0 control=64 value=0 time=0
note_on channel=0 note=72 velocity=0 time=360
note_on channel=0 note=71 velocity=45 time=0
control_change channel=0 control=64 value=127 time=10
note_on channel=0 note=71 velocity=0 time=0
note_on channel=0 note=56 velocity=0 time=0
note_on channel=0 note=74 velocity=50 time=0
note_on channel=0 note=47 velocity=23 time=0
note_on channel=0 note=47 velocity=0 time=480
note_on channel=0 note=50 velocity=29 time=0
note_on channel=0 note=50 velocity=0 time=480
note_on channel=0 note=47 velocity=23 time=0
note_on channel=0 note=47 velocity=0 time=0
note_on channel=0 note=65 velocity=0 time=0
note_on channel=0 note=43 velocity=0 time=0
note_on channel=0 note=68 velocity=0 time=0
note_on channel=0 note=74 velocity=0 time=0
note_on channel=0 note=62 velocity=0 time=0
note_on channel=0 note=72 velocity=50 time=0
control_change channel=0 control=64 value=0 time=0
control_change channel=0 control=64 value=127 time=120
note_on channel=0 note=72 velocity=0 time=240
note_on channel=0 note=71 velocity=45 time=0
note_on channel=0 note=71 velocity=0 time=0
note_on channel=0 note=74 velocity=50 time=0
control_change channel=0 control=64 value=0 time=9
note_on channel=0 note=74 velocity=0 time=231
note_on channel=0 note=74 velocity=50 time=0
control_change channel=0 control=64 value=127 time=97
note_on channel=0 note=74 velocity=0 time=263
note_on channel=0 note=72 velocity=45 time=0
note_on channel=0 note=72 velocity=0 time=0
note_on channel=0 note=75 velocity=50 time=0
control_change channel=0 control=64 value=0 time=12
note_on channel=0 note=75 velocity=0 time=228
note_on channel=0 note=68 velocity=30 time=0
note_on channel=0 note=65 velocity=30 time=0
note_on channel=0 note=75 velocity=50 time=0
note_on channel=0 note=47 velocity=30 time=0
note_on channel=0 note=62 velocity=30 time=0
control_change channel=0 control=64 value=0 time=0
note_on channel=0 note=75 velocity=0 time=360
note_on channel=0 note=74 velocity=45 time=0
control_change channel=0 control=64 value=127 time=57
note_on channel=0 note=74 velocity=0 time=0
note_on channel=0 note=62 velocity=0 time=0
note_on channel=0 note=77 velocity=50 time=0
note_on channel=0 note=53 velocity=23 time=0
note_on channel=0 note=53 velocity=0 time=240
note_on channel=0 note=56 velocity=29 time=0
note_on channel=0 note=56 velocity=0 time=0
note_on channel=0 note=53 velocity=23 time=0
note_on channel=0 note=53 velocity=0 time=0
note_on channel=0 note=68 velocity=0 time=0
note_on channel=0 note=47 velocity=0 time=0
note_on channel=0 note=65 velocity=0 time=0
note_on channel=0 note=77 velocity=0 time=0
note_on channel=0 note=75 velocity=50 time=0
control_change channel=0 control=64 value=0 time=0
control_change channel=0 control=64 value=127 time=120
note_on channel=0 note=75 velocity=0 time=240
note_on channel=0 note=74 velocity=45 time=0
note_on channel=0 note=74 velocity=0 time=0
note_on channel=0 note=77 velocity=50 time=0
control_change channel=0 control=64 value=0 time=9
note_on channel=0 note=77 velocity=0 time=231
note_on channel=0 note=77 velocity=50 time=0
control_change channel=0 control=64 value=127 time=97
note_on channel=0 note=77 velocity=0 time=263
note_on channel=0 note=75 velocity=45 time=0
note_on channel=0 note=75 velocity=0 time=0
note_on channel=0 note=79 velocity=50 time=0
control_change channel=0 control=64 value=0 time=12
note_on channel=0 note=79 velocity=0 time=228
note_on channel=0 note=46 velocity=33 time=180
control_change channel=0 control=64 value=127 time=0
note_on channel=0 note=46 velocity=0 time=0
note_on channel=0 note=68 velocity=40 time=0
note_on channel=0 note=74 velocity=40 time=0
note_on channel=0 note=79 velocity=50 time=0
note_on channel=0 note=62 velocity=33 time=0
note_on channel=0 note=79 velocity=0 time=360
note_on channel=0 note=68 velocity=0 time=0
note_on channel=0 note=74 velocity=0 time=0
note_on channel=0 note=77 velocity=45 time=0
note_on channel=0 note=77 velocity=0 time=0
note_on channel=0 note=62 velocity=0 time=0
note_on channel=0 note=80 velocity=50 time=0
note_on channel=0 note=53 velocity=26 time=0
note_on channel=0 note=53 velocity=0 time=0
note_on channel=0 note=62 velocity=31 time=0
note_on channel=0 note=80 velocity=0 time=360
note_on channel=0 note=77 velocity=45 time=0
note_on channel=0 note=77 velocity=0 time=120
note_on channel=0 note=62 velocity=0 time=0
note_on channel=0 note=86 velocity=50 time=0
note_on channel=0 note=53 velocity=25 time=0
note_on channel=0 note=53 velocity=0 time=0
note_on channel=0 note=65 velocity=33 time=0
note_on channel=0 note=86 velocity=0 time=360
note_on channel=0 note=80 velocity=45 time=0
note_on channel=0 note=80 velocity=0 time=120
note_on channel=0 note=65 velocity=0 time=0
note_on channel=0 note=89 velocity=50 time=0
note_on channel=0 note=62 velocity=28 time=0
note_on channel=0 note=62 velocity=0 time=0
note_on channel=0 note=68 velocity=28 time=0
note_on channel=0 note=89 velocity=0 time=360
note_on channel=0 note=86 velocity=45 time=0
note_on channel=0 note=86 velocity=0 time=120
note_on channel=0 note=68 velocity=0 time=0
note_on channel=0 note=92 velocity=53 time=0
note_on channel=0 note=65 velocity=28 time=0
note_on channel=0 note=65 velocity=0 time=480
note_on channel=0 note=92 velocity=0 time=0
control_change channel=0 control=64 value=0 time=240
