note_on channel=0 note=63 velocity=69 time=0
note_on channel=0 note=67 velocity=69 time=0
note_on channel=0 note=72 velocity=82 time=0
note_on channel=0 note=60 velocity=70 time=0
note_on channel=0 note=55 velocity=59 time=0
note_on channel=0 note=51 velocity=59 time=0
note_on channel=0 note=48 velocity=59 time=0
note_on channel=0 note=48 velocity=0 time=564
note_on channel=0 note=55 velocity=0 time=0
note_on channel=0 note=67 velocity=0 time=0
note_on channel=0 note=72 velocity=0 time=0
note_on channel=0 note=63 velocity=0 time=0
note_on channel=0 note=51 velocity=0 time=0
note_on channel=0 note=60 velocity=0 time=0
note_on channel=0 note=67 velocity=70 time=120
note_on channel=0 note=67 velocity=0 time=0
note_on channel=0 note=75 velocity=78 time=0
note_on channel=0 note=75 velocity=0 time=360
note_on channel=0 note=72 velocity=70 time=0
note_on channel=0 note=72 velocity=0 time=120
note_on channel=0 note=79 velocity=79 time=0
note_on channel=0 note=79 velocity=0 time=360
note_on channel=0 note=75 velocity=70 time=0
note_on channel=0 note=75 velocity=0 time=120
note_on channel=0 note=84 velocity=79 time=0
note_on channel=0 note=84 velocity=0 time=0
note_on channel=0 note=79 velocity=70 time=0
note_on channel=0 note=79 velocity=0 time=0
note_on channel=0 note=87 velocity=84 time=0
note_on channel=0 note=87 velocity=0 time=99
note_on channel=0 note=87 velocity=84 time=360
note_on channel=0 note=87 velocity=0 time=120
note_on channel=0 note=67 velocity=39 time=0
note_on channel=0 note=72 velocity=46 time=0
note_on channel=0 note=60 velocity=34 time=0
note_on channel=0 note=63 velocity=41 time=0
note_on channel=0 note=63 velocity=0 time=240
note_on channel=0 note=67 velocity=0 time=0
note_on channel=0 note=72 velocity=0 time=0
note_on channel=0 note=60 velocity=0 time=0
note_on channel=0 note=67 velocity=42 time=240
note_on channel=0 note=72 velocity=50 time=0
note_on channel=0 note=63 velocity=41 time=0
note_on channel=0 note=60 velocity=34 time=0
note_on channel=0 note=60 velocity=0 time=0
note_on channel=0 note=67 velocity=0 time=0
note_on channel=0 note=72 velocity=0 time=0
note_on channel=0 note=63 velocity=0 time=0
note_on channel=0 note=67 velocity=39 time=0
note_on channel=0 note=62 velocity=32 time=0
note_on channel=0 note=65 velocity=38 time=0
note_on channel=0 note=71 velocity=46 time=10
note_on channel=0 note=65 velocity=0 time=460
note_on channel=0 note=67 velocity=0 time=0
note_on channel=0 note=62 velocity=0 time=0
note_on channel=0 note=71 velocity=0 time=0
note_on channel=0 note=68 velocity=69 time=0
note_on channel=0 note=65 velocity=69 time=0
note_on channel=0 note=71 velocity=82 time=0
note_on channel=0 note=53 velocity=59 time=0
note_on channel=0 note=59 velocity=59 time=0
note_on channel=0 note=56 velocity=59 time=0
note_on channel=0 note=62 velocity=70 time=0
note_on channel=0 note=50 velocity=59 time=0
note_on channel=0 note=50 velocity=0 time=564
note_on channel=0 note=68 velocity=0 time=0
note_on channel=0 note=59 velocity=0 time=0
note_on channel=0 note=65 velocity=0 time=0
note_on channel=0 note=71 velocity=0 time=0
note_on channel=0 note=53 velocity=0 time=0
note_on channel=0 note=56 velocity=0 time=0
note_on channel=0 note=62 velocity=0 time=0
note_on channel=0 note=71 velocity=70 time=120
note_on channel=0 note=71 velocity=0 time=0
note_on channel=0 note=77 velocity=78 time=0
note_on channel=0 note=77 velocity=0 time=360
note_on channel=0 note=74 velocity=70 time=0
note_on channel=0 note=74 velocity=0 time=120
note_on channel=0 note=83 velocity=79 time=0
note_on channel=0 note=83 velocity=0 time=360
note_on channel=0 note=77 velocity=70 time=0
note_on channel=0 note=77 velocity=0 time=120
note_on channel=0 note=86 velocity=79 time=0
note_on channel=0 note=86 velocity=0 time=0
note_on channel=0 note=83 velocity=70 time=0
note_on channel=0 note=83 velocity=0 time=0
note_on channel=0 note=89 velocity=84 time=0
note_on channel=0 note=89 velocity=0 time=99
note_on channel=0 note=89 velocity=84 time=360
note_on channel=0 note=89 velocity=0 time=120
note_on channel=0 note=71 velocity=39 time=0
note_on channel=0 note=74 velocity=46 time=0
note_on channel=0 note=62 velocity=34 time=0
note_on channel=0 note=68 velocity=41 time=0
note_on channel=0 note=65 velocity=34 time=0
note_on channel=0 note=65 velocity=0 time=240
note_on channel=0 note=62 velocity=0 time=0
note_on channel=0 note=71 velocity=0 time=0
note_on channel=0 note=74 velocity=0 time=0
note_on channel=0 note=68 velocity=0 time=0
note_on channel=0 note=71 velocity=42 time=240
note_on channel=0 note=74 velocity=50 time=0
note_on channel=0 note=68 velocity=41 time=0
note_on channel=0 note=65 velocity=34 time=0
note_on channel=0 note=62 velocity=34 time=0
note_on channel=0 note=62 velocity=0 time=0
note_on channel=0 note=68 velocity=0 time=0
note_on channel=0 note=71 velocity=0 time=0
note_on channel=0 note=74 velocity=0 time=0
note_on channel=0 note=65 velocity=0 time=0
note_on channel=0 note=72 velocity=46 time=0
note_on channel=0 note=67 velocity=38 time=0
note_on channel=0 note=63 velocity=32 time=0
note_on channel=0 note=72 velocity=0 time=0
note_on channel=0 note=72 velocity=45 time=0
note_on channel=0 note=72 velocity=0 time=60
note_on channel=0 note=75 velocity=48 time=0
note_on channel=0 note=75 velocity=0 time=0
note_on channel=0 note=63 velocity=0 time=0
note_on channel=0 note=67 velocity=0 time=0
note_on channel=0 note=79 velocity=53 time=0
note_on channel=0 note=79 velocity=0 time=660
note_on channel=0 note=77 velocity=41 time=0
note_on channel=0 note=77 velocity=0 time=0
note_on channel=0 note=75 velocity=51 time=0
note_on channel=0 note=60 velocity=35 time=0
note_on channel=0 note=55 velocity=29 time=0
note_on channel=0 note=51 velocity=29 time=0
note_on channel=0 note=51 velocity=0 time=0
note_on channel=0 note=75 velocity=0 time=0
note_on channel=0 note=60 velocity=0 time=0
note_on channel=0 note=55 velocity=0 time=0
note_on channel=0 note=74 velocity=47 time=0
note_on channel=0 note=53 velocity=33 time=0
note_on channel=0 note=56 velocity=33 time=0
note_on channel=0 note=59 velocity=39 time=0
note_on channel=0 note=59 velocity=0 time=0
note_on channel=0 note=74 velocity=0 time=0
note_on channel=0 note=53 velocity=0 time=0
note_on channel=0 note=56 velocity=0 time=0
note_on channel=0 note=72 velocity=39 time=0
note_on channel=0 note=60 velocity=34 time=0
note_on channel=0 note=55 velocity=28 time=0
note_on channel=0 note=51 velocity=28 time=0
note_on channel=0 note=72 velocity=0 time=0
note_on channel=0 note=67 velocity=27 time=0
note_on channel=0 note=67 velocity=0 time=40
note_on channel=0 note=72 velocity=45 time=0
note_on channel=0 note=72 velocity=0 time=40
note_on channel=0 note=75 velocity=48 time=0
note_on channel=0 note=75 velocity=0 time=0
note_on channel=0 note=51 velocity=0 time=0
note_on channel=0 note=55 velocity=0 time=0
note_on channel=0 note=60 velocity=0 time=0
note_on channel=0 note=79 velocity=53 time=0
note_on channel=0 note=79 velocity=0 time=660
note_on channel=0 note=77 velocity=41 time=0
note_on channel=0 note=77 velocity=0 time=0
note_on channel=0 note=72 velocity=43 time=0
note_on channel=0 note=75 velocity=51 time=0
note_on channel=0 note=63 velocity=29 time=0
note_on channel=0 note=67 velocity=35 time=0
note_on channel=0 note=67 velocity=0 time=0
note_on channel=0 note=72 velocity=0 time=0
note_on channel=0 note=75 velocity=0 time=0
note_on channel=0 note=63 velocity=0 time=0
note_on channel=0 note=71 velocity=39 time=0
note_on channel=0 note=74 velocity=47 time=0
note_on channel=0 note=68 velocity=39 time=0
note_on channel=0 note=65 velocity=33 time=0
note_on channel=0 note=65 velocity=0 time=720
note_on channel=0 note=71 velocity=0 time=0
note_on channel=0 note=74 velocity=0 time=0
note_on channel=0 note=68 velocity=0 time=0
note_on channel=0 note=72 velocity=39 time=0
note_on channel=0 note=63 velocity=28 time=0
note_on channel=0 note=67 velocity=34 time=0
note_on channel=0 note=72 velocity=0 time=0
note_on channel=0 note=67 velocity=60 time=0
note_on channel=0 note=67 velocity=0 time=40
note_on channel=0 note=72 velocity=63 time=0
note_on channel=0 note=72 velocity=0 time=40
note_on channel=0 note=75 velocity=69 time=0
note_on channel=0 note=75 velocity=0 time=0
note_on channel=0 note=67 velocity=0 time=0
note_on channel=0 note=63 velocity=0 time=0
note_on channel=0 note=67 velocity=69 time=0
note_on channel=0 note=79 velocity=81 time=0
note_on channel=0 note=79 velocity=0 time=660
note_on channel=0 note=67 velocity=0 time=0
note_on channel=0 note=77 velocity=61 time=0
note_on channel=0 note=65 velocity=51 time=0
note_on channel=0 note=65 velocity=0 time=0
note_on channel=0 note=77 velocity=0 time=0
note_on channel=0 note=75 velocity=73 time=0
note_on channel=0 note=63 velocity=62 time=0
note_on channel=0 note=55 velocity=39 time=0
note_on channel=0 note=60 velocity=47 time=0
note_on channel=0 note=51 velocity=39 time=0
note_on channel=0 note=51 velocity=0 time=0
note_on channel=0 note=55 velocity=0 time=0
note_on channel=0 note=60 velocity=0 time=0
note_on channel=0 note=59 velocity=53 time=0
note_on channel=0 note=53 velocity=45 time=0
note_on channel=0 note=56 velocity=45 time=0
note_on channel=0 note=63 velocity=0 time=0
note_on channel=0 note=75 velocity=0 time=0
note_on channel=0 note=74 velocity=72 time=0
note_on channel=0 note=62 velocity=61 time=0
note_on channel=0 note=62 velocity=0 time=90
note_on channel=0 note=74 velocity=0 time=0
note_on channel=0 note=56 velocity=0 time=0
note_on channel=0 note=59 velocity=0 time=0
note_on channel=0 note=53 velocity=0 time=0
note_on channel=0 note=72 velocity=75 time=0
note_on channel=0 note=60 velocity=63 time=0
note_on channel=0 note=55 velocity=46 time=0
note_on channel=0 note=51 velocity=39 time=0
note_on channel=0 note=51 velocity=0 time=0
note_on channel=0 note=55 velocity=0 time=0
note_on channel=0 note=50 velocity=46 time=0
note_on channel=0 note=53 velocity=56 time=0
note_on channel=0 note=60 velocity=0 time=0
note_on channel=0 note=72 velocity=0 time=0
note_on channel=0 note=59 velocity=63 time=0
note_on channel=0 note=71 velocity=75 time=0
note_on channel=0 note=71 velocity=0 time=100
note_on channel=0 note=59 velocity=0 time=0
note_on channel=0 note=50 velocity=0 time=0
note_on channel=0 note=53 velocity=0 time=0
note_on channel=0 note=56 velocity=62 time=0
note_on channel=0 note=68 velocity=74 time=0
note_on channel=0 note=51 velocity=49 time=0
note_on channel=0 note=48 velocity=41 time=0
note_on channel=0 note=48 velocity=0 time=0
note_on channel=0 note=51 velocity=0 time=0
note_on channel=0 note=50 velocity=47 time=0
note_on channel=0 note=47 velocity=55 time=0
note_on channel=0 note=47 velocity=0 time=0
note_on channel=0 note=56 velocity=0 time=0
note_on channel=0 note=68 velocity=0 time=0
note_on channel=0 note=50 velocity=0 time=0
note_on channel=0 note=55 velocity=57 time=0
note_on channel=0 note=67 velocity=67 time=0
note_on channel=0 note=67 velocity=0 time=223
note_on channel=0 note=55 velocity=0 time=0
note_on channel=0 note=59 velocity=42 time=480
note_on channel=0 note=59 velocity=0 time=160
note_on channel=0 note=62 velocity=35 time=0
note_on channel=0 note=62 velocity=0 time=160
note_on channel=0 note=65 velocity=35 time=0
note_on channel=0 note=65 velocity=0 time=2
note_on channel=0 note=68 velocity=43 time=0
note_on channel=0 note=56 velocity=34 time=0
note_on channel=0 note=53 velocity=28 time=0
note_on channel=0 note=50 velocity=28 time=0
note_on channel=0 note=47 velocity=28 time=0
note_on channel=0 note=68 velocity=0 time=18
note_on channel=0 note=67 velocity=36 time=0
note_on channel=0 note=67 velocity=0 time=10
note_on channel=0 note=65 velocity=36 time=0
note_on channel=0 note=65 velocity=0 time=0
note_on channel=0 note=50 velocity=0 time=0
note_on channel=0 note=56 velocity=0 time=0
note_on channel=0 note=53 velocity=0 time=0
note_on channel=0 note=47 velocity=0 time=0
note_on channel=0 note=63 velocity=43 time=0
note_on channel=0 note=55 velocity=34 time=0
note_on channel=0 note=51 velocity=28 time=0
note_on channel=0 note=48 velocity=28 time=0
note_on channel=0 note=48 velocity=0 time=120
note_on channel=0 note=63 velocity=0 time=0
note_on channel=0 note=55 velocity=0 time=0
note_on channel=0 note=51 velocity=0 time=0
note_on channel=0 note=53 velocity=42 time=0
note_on channel=0 note=53 velocity=0 time=160
note_on channel=0 note=56 velocity=35 time=0
note_on channel=0 note=56 velocity=0 time=160
note_on channel=0 note=62 velocity=35 time=0
note_on channel=0 note=62 velocity=0 time=2
note_on channel=0 note=65 velocity=43 time=0
note_on channel=0 note=50 velocity=34 time=0
note_on channel=0 note=44 velocity=28 time=0
note_on channel=0 note=41 velocity=28 time=0
note_on channel=0 note=65 velocity=0 time=18
note_on channel=0 note=63 velocity=36 time=0
note_on channel=0 note=63 velocity=0 time=10
note_on channel=0 note=62 velocity=36 time=0
note_on channel=0 note=62 velocity=0 time=0
note_on channel=0 note=50 velocity=0 time=0
note_on channel=0 note=44 velocity=0 time=0
note_on channel=0 note=41 velocity=0 time=0
note_on channel=0 note=60 velocity=43 time=0
note_on channel=0 note=48 velocity=28 time=0
note_on channel=0 note=43 velocity=28 time=0
note_on channel=0 note=51 velocity=34 time=0
note_on channel=0 note=51 velocity=0 time=120
note_on channel=0 note=60 velocity=0 time=0
note_on channel=0 note=48 velocity=0 time=0
note_on channel=0 note=43 velocity=0 time=0
note_on channel=0 note=55 velocity=66 time=0
note_on channel=0 note=55 velocity=0 time=137
note_on channel=0 note=59 velocity=69 time=0
note_on channel=0 note=59 velocity=0 time=160
note_on channel=0 note=62 velocity=72 time=0
note_on channel=0 note=62 velocity=0 time=2
note_on channel=0 note=65 velocity=75 time=0
note_on channel=0 note=43 velocity=73 time=0
note_on channel=0 note=31 velocity=73 time=0
note_on channel=0 note=65 velocity=0 time=18
note_on channel=0 note=62 velocity=67 time=0
note_on channel=0 note=31 velocity=0 time=2
note_on channel=0 note=43 velocity=0 time=0
note_on channel=0 note=62 velocity=0 time=10
note_on channel=0 note=59 velocity=67 time=0
note_on channel=0 note=59 velocity=0 time=0
note_on channel=0 note=55 velocity=79 time=0
note_on channel=0 note=51 velocity=79 time=0
note_on channel=0 note=60 velocity=94 time=0
note_on channel=0 note=43 velocity=67 time=0
note_on channel=0 note=36 velocity=67 time=0
note_on channel=0 note=48 velocity=80 time=0
note_on channel=0 note=39 velocity=67 time=0
note_on channel=0 note=39 velocity=0 time=564
note_on channel=0 note=36 velocity=0 time=0
note_on channel=0 note=51 velocity=0 time=0
note_on channel=0 note=60 velocity=0 time=0
note_on channel=0 note=55 velocity=0 time=0
note_on channel=0 note=48 velocity=0 time=0
note_on channel=0 note=43 velocity=0 time=0
note_on channel=0 note=60 velocity=70 time=120
note_on channel=0 note=60 velocity=0 time=0
note_on channel=0 note=67 velocity=78 time=0
note_on channel=0 note=67 velocity=0 time=360
note_on channel=0 note=63 velocity=70 time=0
note_on channel=0 note=63 velocity=0 time=0
note_on channel=0 note=72 velocity=85 time=0
note_on channel=0 note=72 velocity=0 time=360
note_on channel=0 note=67 velocity=72 time=0
note_on channel=0 note=67 velocity=0 time=120
note_on channel=0 note=75 velocity=80 time=0
note_on channel=0 note=75 velocity=0 time=0
note_on channel=0 note=72 velocity=83 time=0
note_on channel=0 note=72 velocity=0 time=0
note_on channel=0 note=79 velocity=96 time=0
note_on channel=0 note=67 velocity=81 time=0
note_on channel=0 note=48 velocity=58 time=0
note_on channel=0 note=55 velocity=69 time=0
note_on channel=0 note=51 velocity=58 time=0
note_on channel=0 note=51 velocity=0 time=99
note_on channel=0 note=48 velocity=0 time=0
note_on channel=0 note=79 velocity=0 time=0
note_on channel=0 note=67 velocity=0 time=0
note_on channel=0 note=55 velocity=0 time=0
note_on channel=0 note=79 velocity=96 time=360
note_on channel=0 note=67 velocity=81 time=0
note_on channel=0 note=47 velocity=58 time=0
note_on channel=0 note=50 velocity=58 time=0
note_on channel=0 note=55 velocity=69 time=0
note_on channel=0 note=55 velocity=0 time=120
note_on channel=0 note=47 velocity=0 time=0
note_on channel=0 note=79 velocity=0 time=0
note_on channel=0 note=67 velocity=0 time=0
note_on channel=0 note=50 velocity=0 time=0
note_on channel=0 note=59 velocity=70 time=0
note_on channel=0 note=59 velocity=0 time=0
note_on channel=0 note=67 velocity=78 time=0
note_on channel=0 note=67 velocity=0 time=360
note_on channel=0 note=62 velocity=70 time=0
note_on channel=0 note=62 velocity=0 time=0
note_on channel=0 note=71 velocity=85 time=0
note_on channel=0 note=71 velocity=0 time=360
note_on channel=0 note=67 velocity=74 time=0
note_on channel=0 note=67 velocity=0 time=120
note_on channel=0 note=74 velocity=86 time=0
note_on channel=0 note=74 velocity=0 time=0
note_on channel=0 note=71 velocity=83 time=0
note_on channel=0 note=71 velocity=0 time=0
note_on channel=0 note=79 velocity=96 time=0
note_on channel=0 note=67 velocity=81 time=0
note_on channel=0 note=55 velocity=69 time=0
note_on channel=0 note=47 velocity=58 time=0
note_on channel=0 note=50 velocity=58 time=0
note_on channel=0 note=50 velocity=0 time=99
note_on channel=0 note=55 velocity=0 time=0
note_on channel=0 note=79 velocity=0 time=0
note_on channel=0 note=67 velocity=0 time=0
note_on channel=0 note=47 velocity=0 time=0
note_on channel=0 note=79 velocity=96 time=360
note_on channel=0 note=67 velocity=81 time=0
note_on channel=0 note=55 velocity=69 time=0
note_on channel=0 note=48 velocity=58 time=0
note_on channel=0 note=51 velocity=58 time=0
note_on channel=0 note=51 velocity=0 time=120
note_on channel=0 note=55 velocity=0 time=0
note_on channel=0 note=79 velocity=0 time=0
note_on channel=0 note=67 velocity=0 time=0
note_on channel=0 note=48 velocity=0 time=0
note_on channel=0 note=63 velocity=70 time=0
note_on channel=0 note=63 velocity=0 time=0
note_on channel=0 note=67 velocity=78 time=0
note_on channel=0 note=67 velocity=0 time=360
note_on channel=0 note=63 velocity=70 time=0
note_on channel=0 note=63 velocity=0 time=0
note_on channel=0 note=72 velocity=85 time=0
note_on channel=0 note=72 velocity=0 time=360
note_on channel=0 note=67 velocity=74 time=0
note_on channel=0 note=67 velocity=0 time=120
note_on channel=0 note=75 velocity=86 time=0
note_on channel=0 note=75 velocity=0 time=0
note_on channel=0 note=72 velocity=83 time=0
note_on channel=0 note=72 velocity=0 time=0
note_on channel=0 note=79 velocity=90 time=0
note_on channel=0 note=51 velocity=58 time=0
note_on channel=0 note=60 velocity=69 time=0
note_on channel=0 note=55 velocity=58 time=0
note_on channel=0 note=55 velocity=0 time=120
note_on channel=0 note=60 velocity=0 time=0
note_on channel=0 note=51 velocity=0 time=0
note_on channel=0 note=79 velocity=0 time=240
note_on channel=0 note=75 velocity=83 time=0
note_on channel=0 note=75 velocity=0 time=0
note_on channel=0 note=74 velocity=96 time=0
note_on channel=0 note=56 velocity=58 time=0
note_on channel=0 note=62 velocity=69 time=0
note_on channel=0 note=53 velocity=58 time=0
note_on channel=0 note=53 velocity=0 time=120
note_on channel=0 note=74 velocity=0 time=0
note_on channel=0 note=56 velocity=0 time=0
note_on channel=0 note=62 velocity=0 time=0
note_on channel=0 note=89 velocity=96 time=0
note_on channel=0 note=89 velocity=0 time=120
note_on channel=0 note=71 velocity=96 time=0
note_on channel=0 note=62 velocity=69 time=0
note_on channel=0 note=59 velocity=58 time=0
note_on channel=0 note=55 velocity=58 time=0
note_on channel=0 note=55 velocity=0 time=120
note_on channel=0 note=71 velocity=0 time=0
note_on channel=0 note=62 velocity=0 time=0
note_on channel=0 note=59 velocity=0 time=0
note_on channel=0 note=86 velocity=96 time=0
note_on channel=0 note=86 velocity=0 time=120
note_on channel=0 note=72 velocity=96 time=0
note_on channel=0 note=55 velocity=58 time=0
note_on channel=0 note=48 velocity=58 time=0
note_on channel=0 note=60 velocity=69 time=0
note_on channel=0 note=51 velocity=58 time=0
note_on channel=0 note=51 velocity=0 time=120
note_on channel=0 note=48 velocity=0 time=0
note_on channel=0 note=72 velocity=0 time=0
note_on channel=0 note=55 velocity=0 time=0
note_on channel=0 note=60 velocity=0 time=0
note_on channel=0 note=84 velocity=96 time=0
note_on channel=0 note=84 velocity=0 time=120
note_on channel=0 note=63 velocity=69 time=0
note_on channel=0 note=61 velocity=50 time=0
note_on channel=0 note=67 velocity=50 time=0
note_on channel=0 note=75 velocity=45 time=0
note_on channel=0 note=75 velocity=0 time=0
note_on channel=0 note=67 velocity=0 time=0
note_on channel=0 note=61 velocity=0 time=0
note_on channel=0 note=68 velocity=42 time=0
note_on channel=0 note=75 velocity=50 time=0
note_on channel=0 note=60 velocity=49 time=0
note_on channel=0 note=75 velocity=0 time=480
note_on channel=0 note=75 velocity=45 time=0
note_on channel=0 note=63 velocity=0 time=0
note_on channel=0 note=60 velocity=0 time=0
note_on channel=0 note=68 velocity=0 time=0
note_on channel=0 note=67 velocity=42 time=0
note_on channel=0 note=61 velocity=34 time=0
note_on channel=0 note=58 velocity=28 time=0
note_on channel=0 note=75 velocity=0 time=205
note_on channel=0 note=77 velocity=45 time=0
note_on channel=0 note=77 velocity=0 time=0
note_on channel=0 note=73 velocity=44 time=0
note_on channel=0 note=58 velocity=0 time=0
note_on channel=0 note=67 velocity=0 time=0
note_on channel=0 note=61 velocity=0 time=0
note_on channel=0 note=68 velocity=42 time=0
note_on channel=0 note=56 velocity=28 time=0
note_on channel=0 note=63 velocity=33 time=0
note_on channel=0 note=73 velocity=0 time=0
note_on channel=0 note=71 velocity=45 time=0
note_on channel=0 note=71 velocity=0 time=480
note_on channel=0 note=72 velocity=45 time=0
note_on channel=0 note=72 velocity=0 time=0
note_on channel=0 note=68 velocity=0 time=0
note_on channel=0 note=56 velocity=0 time=0
note_on channel=0 note=63 velocity=0 time=0
note_on channel=0 note=70 velocity=50 time=0
note_on channel=0 note=72 velocity=60 time=0
note_on channel=0 note=76 velocity=50 time=0
note_on channel=0 note=84 velocity=45 time=0
note_on channel=0 note=84 velocity=0 time=0
note_on channel=0 note=76 velocity=0 time=0
note_on channel=0 note=70 velocity=0 time=0
note_on channel=0 note=77 velocity=42 time=0
note_on channel=0 note=84 velocity=50 time=0
note_on channel=0 note=68 velocity=49 time=0
note_on channel=0 note=84 velocity=0 time=480
note_on channel=0 note=84 velocity=45 time=0
note_on channel=0 note=72 velocity=0 time=0
note_on channel=0 note=68 velocity=0 time=0
note_on channel=0 note=77 velocity=0 time=0
note_on channel=0 note=76 velocity=42 time=0
note_on channel=0 note=67 velocity=28 time=0
note_on channel=0 note=70 velocity=34 time=0
note_on channel=0 note=84 velocity=0 time=205
note_on channel=0 note=85 velocity=45 time=0
note_on channel=0 note=85 velocity=0 time=0
note_on channel=0 note=82 velocity=44 time=0
note_on channel=0 note=70 velocity=0 time=0
note_on channel=0 note=76 velocity=0 time=0
note_on channel=0 note=67 velocity=0 time=0
note_on channel=0 note=72 velocity=42 time=0
note_on channel=0 note=65 velocity=28 time=0
note_on channel=0 note=68 velocity=33 time=0
note_on channel=0 note=82 velocity=0 time=0
note_on channel=0 note=79 velocity=45 time=0
note_on channel=0 note=79 velocity=0 time=480
note_on channel=0 note=80 velocity=45 time=0
note_on channel=0 note=80 velocity=0 time=0
note_on channel=0 note=72 velocity=0 time=0
note_on channel=0 note=65 velocity=0 time=0
note_on channel=0 note=68 velocity=0 time=0
note_on channel=0 note=66 velocity=50 time=0
note_on channel=0 note=68 velocity=60 time=0
note_on channel=0 note=72 velocity=50 time=0
note_on channel=0 note=80 velocity=45 time=0
note_on channel=0 note=80 velocity=0 time=0
note_on channel=0 note=72 velocity=0 time=0
note_on channel=0 note=66 velocity=0 time=0
note_on channel=0 note=73 velocity=42 time=0
note_on channel=0 note=80 velocity=50 time=0
note_on channel=0 note=65 velocity=49 time=0
note_on channel=0 note=80 velocity=0 time=480
note_on channel=0 note=80 velocity=45 time=0
note_on channel=0 note=68 velocity=0 time=0
note_on channel=0 note=65 velocity=0 time=0
note_on channel=0 note=73 velocity=0 time=0
note_on channel=0 note=72 velocity=42 time=0
note_on channel=0 note=63 velocity=44 time=0
note_on channel=0 note=66 velocity=44 time=0
note_on channel=0 note=80 velocity=0 time=205
note_on channel=0 note=82 velocity=45 time=0
note_on channel=0 note=82 velocity=0 time=0
note_on channel=0 note=78 velocity=44 time=0
note_on channel=0 note=66 velocity=0 time=0
note_on channel=0 note=72 velocity=0 time=0
note_on channel=0 note=63 velocity=0 time=0
note_on channel=0 note=68 velocity=49 time=0
note_on channel=0 note=61 velocity=28 time=0
note_on channel=0 note=65 velocity=33 time=0
note_on channel=0 note=78 velocity=0 time=0
note_on channel=0 note=76 velocity=52 time=0
note_on channel=0 note=76 velocity=0 time=480
note_on channel=0 note=77 velocity=52 time=0
note_on channel=0 note=65 velocity=0 time=0
note_on channel=0 note=68 velocity=0 time=0
note_on channel=0 note=61 velocity=0 time=0
note_on channel=0 note=69 velocity=50 time=0
note_on channel=0 note=59 velocity=42 time=0
note_on channel=0 note=63 velocity=48 time=0
note_on channel=0 note=77 velocity=0 time=205
note_on channel=0 note=78 velocity=55 time=0
note_on channel=0 note=78 velocity=0 time=0
note_on channel=0 note=75 velocity=50 time=0
note_on channel=0 note=63 velocity=0 time=0
note_on channel=0 note=69 velocity=0 time=0
note_on channel=0 note=59 velocity=0 time=0
note_on channel=0 note=65 velocity=42 time=0
note_on channel=0 note=58 velocity=33 time=0
note_on channel=0 note=75 velocity=0 time=0
note_on channel=0 note=75 velocity=45 time=0
note_on channel=0 note=75 velocity=0 time=480
note_on channel=0 note=74 velocity=45 time=0
note_on channel=0 note=58 velocity=0 time=0
note_on channel=0 note=65 velocity=0 time=0
note_on channel=0 note=66 velocity=42 time=0
note_on channel=0 note=57 velocity=33 time=0
note_on channel=0 note=74 velocity=0 time=0
note_on channel=0 note=75 velocity=45 time=0
note_on channel=0 note=75 velocity=0 time=480
note_on channel=0 note=66 velocity=0 time=0
note_on channel=0 note=63 velocity=28 time=0
note_on channel=0 note=66 velocity=33 time=0
note_on channel=0 note=66 velocity=0 time=464
note_on channel=0 note=63 velocity=0 time=0
note_on channel=0 note=57 velocity=0 time=0
note_on channel=0 note=62 velocity=32 time=0
note_on channel=0 note=65 velocity=38 time=0
note_on channel=0 note=46 velocity=33 time=0
note_on channel=0 note=65 velocity=0 time=0
note_on channel=0 note=62 velocity=0 time=0
note_on channel=0 note=53 velocity=33 time=0
note_on channel=0 note=53 velocity=0 time=480
note_on channel=0 note=55 velocity=37 time=0
note_on channel=0 note=55 velocity=0 time=480
note_on channel=0 note=56 velocity=41 time=0
note_on channel=0 note=56 velocity=0 time=0
note_on channel=0 note=72 velocity=38 time=0
note_on channel=0 note=52 velocity=33 time=0
note_on channel=0 note=72 velocity=0 time=240
note_on channel=0 note=52 velocity=0 time=0
note_on channel=0 note=72 velocity=38 time=0
note_on channel=0 note=53 velocity=35 time=0
note_on channel=0 note=72 velocity=0 time=240
note_on channel=0 note=53 velocity=0 time=0
note_on channel=0 note=46 velocity=0 time=0
note_on channel=0 note=72 velocity=46 time=0
note_on channel=0 note=46 velocity=42 time=0
note_on channel=0 note=55 velocity=42 time=0
note_on channel=0 note=55 velocity=0 time=480
note_on channel=0 note=72 velocity=0 time=0
note_on channel=0 note=70 velocity=38 time=0
note_on channel=0 note=50 velocity=33 time=0
note_on channel=0 note=50 velocity=0 time=480
note_on channel=0 note=70 velocity=0 time=0
note_on channel=0 note=51 velocity=33 time=0
note_on channel=0 note=51 velocity=0 time=480
note_on channel=0 note=53 velocity=40 time=0
note_on channel=0 note=53 velocity=0 time=0
note_on channel=0 note=68 velocity=38 time=0
note_on channel=0 note=48 velocity=33 time=0
note_on channel=0 note=68 velocity=0 time=240
note_on channel=0 note=48 velocity=0 time=0
note_on channel=0 note=68 velocity=38 time=0
note_on channel=0 note=50 velocity=33 time=0
note_on channel=0 note=68 velocity=0 time=240
note_on channel=0 note=50 velocity=0 time=0
note_on channel=0 note=46 velocity=0 time=0
note_on channel=0 note=68 velocity=43 time=0
note_on channel=0 note=46 velocity=39 time=0
note_on channel=0 note=51 velocity=39 time=0
note_on channel=0 note=51 velocity=0 time=480
note_on channel=0 note=68 velocity=0 time=0
note_on channel=0 note=67 velocity=38 time=0
note_on channel=0 note=53 velocity=33 time=0
note_on channel=0 note=53 velocity=0 time=480
note_on channel=0 note=67 velocity=0 time=0
note_on channel=0 note=55 velocity=36 time=0
note_on channel=0 note=55 velocity=0 time=0
note_on channel=0 note=56 velocity=40 time=0
note_on channel=0 note=72 velocity=37 time=240
note_on channel=0 note=72 velocity=0 time=0
note_on channel=0 note=56 velocity=0 time=0
note_on channel=0 note=71 velocity=38 time=0
note_on channel=0 note=52 velocity=33 time=0
note_on channel=0 note=71 velocity=0 time=183
note_on channel=0 note=72 velocity=34 time=0
note_on channel=0 note=72 velocity=0 time=240
note_on channel=0 note=52 velocity=0 time=0
note_on channel=0 note=74 velocity=43 time=0
note_on channel=0 note=53 velocity=33 time=0
note_on channel=0 note=74 velocity=0 time=0
note_on channel=0 note=72 velocity=38 time=0
note_on channel=0 note=72 velocity=0 time=0
note_on channel=0 note=53 velocity=0 time=0
note_on channel=0 note=46 velocity=0 time=0
note_on channel=0 note=55 velocity=42 time=0
note_on channel=0 note=46 velocity=42 time=0
note_on channel=0 note=70 velocity=36 time=240
note_on channel=0 note=70 velocity=0 time=0
note_on channel=0 note=55 velocity=0 time=0
note_on channel=0 note=69 velocity=38 time=0
note_on channel=0 note=50 velocity=33 time=0
note_on channel=0 note=69 velocity=0 time=23
note_on channel=0 note=70 velocity=36 time=0
note_on channel=0 note=70 velocity=0 time=240
note_on channel=0 note=50 velocity=0 time=0
note_on channel=0 note=72 velocity=44 time=0
note_on channel=0 note=51 velocity=33 time=0
note_on channel=0 note=72 velocity=0 time=0
note_on channel=0 note=70 velocity=38 time=0
note_on channel=0 note=70 velocity=0 time=0
note_on channel=0 note=51 velocity=0 time=0
note_on channel=0 note=53 velocity=40 time=0
note_on channel=0 note=68 velocity=36 time=240
note_on channel=0 note=68 velocity=0 time=0
note_on channel=0 note=53 velocity=0 time=0
note_on channel=0 note=67 velocity=38 time=0
note_on channel=0 note=48 velocity=33 time=0
note_on channel=0 note=67 velocity=0 time=240
note_on channel=0 note=68 velocity=35 time=0
note_on channel=0 note=68 velocity=0 time=226
note_on channel=0 note=48 velocity=0 time=0
note_on channel=0 note=70 velocity=44 time=0
note_on channel=0 note=50 velocity=33 time=0
note_on channel=0 note=70 velocity=0 time=0
note_on channel=0 note=68 velocity=37 time=0
note_on channel=0 note=68 velocity=0 time=29
note_on channel=0 note=50 velocity=0 time=0
note_on channel=0 note=46 velocity=0 time=0
note_on channel=0 note=67 velocity=46 time=0
note_on channel=0 note=51 velocity=40 time=0
note_on channel=0 note=51 velocity=0 time=28
note_on channel=0 note=58 velocity=28 time=0
note_on channel=0 note=58 velocity=0 time=29
note_on channel=0 note=55 velocity=33 time=0
note_on channel=0 note=55 velocity=0 time=125
note_on channel=0 note=58 velocity=27 time=0
note_on channel=0 note=58 velocity=0 time=53
note_on channel=0 note=53 velocity=33 time=14
note_on channel=0 note=58 velocity=30 time=62
note_on channel=0 note=53 velocity=0 time=4
note_on channel=0 note=58 velocity=0 time=38
note_on channel=0 note=51 velocity=38 time=0
note_on channel=0 note=51 velocity=0 time=0
note_on channel=0 note=58 velocity=28 time=0
note_on channel=0 note=58 velocity=0 time=240
note_on channel=0 note=53 velocity=42 time=0
note_on channel=0 note=53 velocity=0 time=56
note_on channel=0 note=67 velocity=0 time=0
note_on channel=0 note=70 velocity=56 time=0
note_on channel=0 note=58 velocity=35 time=0
note_on channel=0 note=58 velocity=0 time=240
note_on channel=0 note=70 velocity=0 time=0
note_on channel=0 note=75 velocity=62 time=0
note_on channel=0 note=55 velocity=46 time=0
note_on channel=0 note=55 velocity=0 time=0
note_on channel=0 note=58 velocity=40 time=0
note_on channel=0 note=75 velocity=0 time=230
note_on channel=0 note=58 velocity=0 time=10
note_on channel=0 note=75 velocity=63 time=0
note_on channel=0 note=53 velocity=51 time=0
note_on channel=0 note=53 velocity=0 time=5
note_on channel=0 note=58 velocity=44 time=0
note_on channel=0 note=58 velocity=0 time=86
note_on channel=0 note=55 velocity=52 time=0
note_on channel=0 note=55 velocity=0 time=38
note_on channel=0 note=58 velocity=43 time=0
note_on channel=0 note=58 velocity=0 time=38
note_on channel=0 note=56 velocity=55 time=0
note_on channel=0 note=56 velocity=0 time=38
note_on channel=0 note=58 velocity=47 time=0
note_on channel=0 note=58 velocity=0 time=5
note_on channel=0 note=75 velocity=0 time=0
note_on channel=0 note=74 velocity=57 time=0
note_on channel=0 note=53 velocity=60 time=0
note_on channel=0 note=53 velocity=0 time=113
note_on channel=0 note=58 velocity=39 time=0
note_on channel=0 note=58 velocity=0 time=240
note_on channel=0 note=74 velocity=0 time=0
note_on channel=0 note=55 velocity=46 time=0
note_on channel=0 note=55 velocity=0 time=84
note_on channel=0 note=58 velocity=33 time=0
note_on channel=0 note=58 velocity=0 time=240
note_on channel=0 note=56 velocity=41 time=0
note_on channel=0 note=56 velocity=0 time=113
note_on channel=0 note=58 velocity=33 time=0
note_on channel=0 note=58 velocity=0 time=0
note_on channel=0 note=70 velocity=51 time=0
note_on channel=0 note=50 velocity=40 time=0
note_on channel=0 note=50 velocity=0 time=101
note_on channel=0 note=58 velocity=28 time=0
note_on channel=0 note=58 velocity=0 time=29
note_on channel=0 note=53 velocity=33 time=0
note_on channel=0 note=53 velocity=0 time=125
note_on channel=0 note=58 velocity=27 time=0
note_on channel=0 note=58 velocity=0 time=53
note_on channel=0 note=51 velocity=33 time=0
note_on channel=0 note=51 velocity=0 time=113
note_on channel=0 note=58 velocity=30 time=0
note_on channel=0 note=58 velocity=0 time=221
note_on channel=0 note=70 velocity=0 time=0
note_on channel=0 note=70 velocity=61 time=0
note_on channel=0 note=50 velocity=38 time=0
note_on channel=0 note=50 velocity=0 time=0
note_on channel=0 note=70 velocity=0 time=0
note_on channel=0 note=72 velocity=57 time=0
note_on channel=0 note=58 velocity=31 time=0
note_on channel=0 note=72 velocity=0 time=80
note_on channel=0 note=70 velocity=52 time=0
note_on channel=0 note=70 velocity=0 time=80
note_on channel=0 note=69 velocity=52 time=0
note_on channel=0 note=69 velocity=0 time=80
note_on channel=0 note=58 velocity=0 time=0
note_on channel=0 note=70 velocity=61 time=0
note_on channel=0 note=51 velocity=46 time=0
note_on channel=0 note=51 velocity=0 time=171
note_on channel=0 note=70 velocity=0 time=0
note_on channel=0 note=77 velocity=65 time=0
note_on channel=0 note=58 velocity=38 time=0
note_on channel=0 note=58 velocity=0 time=240
note_on channel=0 note=77 velocity=0 time=0
note_on channel=0 note=80 velocity=73 time=0
note_on channel=0 note=53 velocity=50 time=0
note_on channel=0 note=53 velocity=0 time=0
note_on channel=0 note=58 velocity=43 time=0
note_on channel=0 note=58 velocity=0 time=240
note_on channel=0 note=80 velocity=0 time=0
note_on channel=0 note=80 velocity=74 time=0
note_on channel=0 note=51 velocity=56 time=0
note_on channel=0 note=51 velocity=0 time=38
note_on channel=0 note=58 velocity=42 time=0
note_on channel=0 note=58 velocity=0 time=38
note_on channel=0 note=53 velocity=54 time=0
note_on channel=0 note=53 velocity=0 time=62
note_on channel=0 note=58 velocity=44 time=0
note_on channel=0 note=58 velocity=0 time=62
note_on channel=0 note=55 velocity=46 time=0
note_on channel=0 note=55 velocity=0 time=53
note_on channel=0 note=58 velocity=33 time=0
note_on channel=0 note=58 velocity=0 time=5
note_on channel=0 note=80 velocity=0 time=0
note_on channel=0 note=79 velocity=69 time=0
note_on channel=0 note=51 velocity=48 time=0
note_on channel=0 note=51 velocity=0 time=113
note_on channel=0 note=58 velocity=39 time=0
note_on channel=0 note=58 velocity=0 time=240
note_on channel=0 note=79 velocity=0 time=0
note_on channel=0 note=53 velocity=41 time=0
note_on channel=0 note=53 velocity=0 time=84
note_on channel=0 note=58 velocity=33 time=0
note_on channel=0 note=58 velocity=0 time=240
note_on channel=0 note=55 velocity=41 time=0
note_on channel=0 note=55 velocity=0 time=113
note_on channel=0 note=58 velocity=33 time=0
note_on channel=0 note=58 velocity=0 time=0
note_on channel=0 note=67 velocity=56 time=0
note_on channel=0 note=51 velocity=40 time=0
note_on channel=0 note=67 velocity=0 time=86
note_on channel=0 note=51 velocity=0 time=86
note_on channel=0 note=68 velocity=58 time=0
note_on channel=0 note=58 velocity=28 time=0
note_on channel=0 note=68 velocity=0 time=86
note_on channel=0 note=58 velocity=0 time=110
note_on channel=0 note=70 velocity=60 time=0
note_on channel=0 note=55 velocity=33 time=0
note_on channel=0 note=70 velocity=0 time=14
note_on channel=0 note=55 velocity=0 time=14
note_on channel=0 note=72 velocity=62 time=0
note_on channel=0 note=58 velocity=27 time=0
note_on channel=0 note=72 velocity=0 time=38
note_on channel=0 note=58 velocity=0 time=38
note_on channel=0 note=74 velocity=64 time=0
note_on channel=0 note=51 velocity=35 time=0
note_on channel=0 note=74 velocity=0 time=62
note_on channel=0 note=51 velocity=0 time=62
note_on channel=0 note=75 velocity=65 time=0
note_on channel=0 note=58 velocity=32 time=0
note_on channel=0 note=75 velocity=0 time=86
note_on channel=0 note=58 velocity=0 time=86
note_on channel=0 note=77 velocity=70 time=0
note_on channel=0 note=51 velocity=41 time=0
note_on channel=0 note=77 velocity=0 time=110
note_on channel=0 note=51 velocity=0 time=0
note_on channel=0 note=79 velocity=73 time=0
note_on channel=0 note=58 velocity=38 time=0
note_on channel=0 note=79 velocity=0 time=120
note_on channel=0 note=58 velocity=0 time=120
note_on channel=0 note=80 velocity=76 time=0
note_on channel=0 note=55 velocity=48 time=0
note_on channel=0 note=80 velocity=0 time=120
note_on channel=0 note=55 velocity=0 time=120
note_on channel=0 note=82 velocity=78 time=0
note_on channel=0 note=58 velocity=41 time=0
note_on channel=0 note=82 velocity=0 time=120
note_on channel=0 note=58 velocity=0 time=120
note_on channel=0 note=84 velocity=81 time=0
note_on channel=0 note=51 velocity=54 time=0
note_on channel=0 note=84 velocity=0 time=120
note_on channel=0 note=51 velocity=0 time=0
note_on channel=0 note=86 velocity=84 time=0
note_on channel=0 note=58 velocity=51 time=0
note_on channel=0 note=86 velocity=0 time=120
note_on channel=0 note=58 velocity=0 time=0
note_on channel=0 note=87 velocity=91 time=0
note_on channel=0 note=53 velocity=52 time=0
note_on channel=0 note=53 velocity=0 time=85
note_on channel=0 note=58 velocity=48 time=0
note_on channel=0 note=58 velocity=0 time=13
note_on channel=0 note=56 velocity=52 time=0
note_on channel=0 note=56 velocity=0 time=37
note_on channel=0 note=58 velocity=44 time=0
note_on channel=0 note=58 velocity=0 time=37
note_on channel=0 note=53 velocity=46 time=0
note_on channel=0 note=53 velocity=0 time=61
note_on channel=0 note=58 velocity=43 time=0
note_on channel=0 note=58 velocity=0 time=5
note_on channel=0 note=87 velocity=0 time=0
note_on channel=0 note=86 velocity=71 time=0
note_on channel=0 note=53 velocity=43 time=0
note_on channel=0 note=53 velocity=0 time=113
note_on channel=0 note=58 velocity=31 time=0
note_on channel=0 note=58 velocity=0 time=240
note_on channel=0 note=86 velocity=0 time=0
note_on channel=0 note=56 velocity=39 time=0
note_on channel=0 note=56 velocity=0 time=84
note_on channel=0 note=58 velocity=31 time=0
note_on channel=0 note=58 velocity=0 time=240
note_on channel=0 note=53 velocity=39 time=0
note_on channel=0 note=53 velocity=0 time=113
note_on channel=0 note=58 velocity=31 time=0
note_on channel=0 note=58 velocity=0 time=11
note_on channel=0 note=58 velocity=56 time=2
note_on channel=0 note=50 velocity=40 time=0
note_on channel=0 note=58 velocity=0 time=120
note_on channel=0 note=50 velocity=0 time=61
note_on channel=0 note=60 velocity=58 time=0
note_on channel=0 note=58 velocity=32 time=0
note_on channel=0 note=60 velocity=0 time=13
note_on channel=0 note=58 velocity=0 time=120
note_on channel=0 note=62 velocity=60 time=0
note_on channel=0 note=53 velocity=39 time=0
note_on channel=0 note=62 velocity=0 time=61
note_on channel=0 note=53 velocity=0 time=13
note_on channel=0 note=63 velocity=62 time=0
note_on channel=0 note=58 velocity=29 time=0
note_on channel=0 note=63 velocity=0 time=120
note_on channel=0 note=58 velocity=0 time=61
note_on channel=0 note=65 velocity=64 time=0
note_on channel=0 note=50 velocity=46 time=0
note_on channel=0 note=65 velocity=0 time=13
note_on channel=0 note=50 velocity=0 time=120
note_on channel=0 note=67 velocity=65 time=0
note_on channel=0 note=58 velocity=37 time=0
note_on channel=0 note=67 velocity=0 time=61
note_on channel=0 note=58 velocity=0 time=13
note_on channel=0 note=68 velocity=67 time=0
note_on channel=0 note=50 velocity=52 time=0
note_on channel=0 note=68 velocity=0 time=120
note_on channel=0 note=50 velocity=0 time=0
note_on channel=0 note=70 velocity=72 time=0
note_on channel=0 note=58 velocity=43 time=0
note_on channel=0 note=70 velocity=0 time=120
note_on channel=0 note=58 velocity=0 time=120
note_on channel=0 note=72 velocity=74 time=0
note_on channel=0 note=53 velocity=57 time=0
note_on channel=0 note=72 velocity=0 time=120
note_on channel=0 note=53 velocity=0 time=120
note_on channel=0 note=74 velocity=76 time=0
note_on channel=0 note=58 velocity=49 time=0
note_on channel=0 note=74 velocity=0 time=120
note_on channel=0 note=58 velocity=0 time=120
note_on channel=0 note=75 velocity=78 time=0
note_on channel=0 note=50 velocity=62 time=0
note_on channel=0 note=75 velocity=0 time=120
note_on channel=0 note=50 velocity=0 time=0
note_on channel=0 note=77 velocity=80 time=0
note_on channel=0 note=58 velocity=51 time=0
note_on channel=0 note=77 velocity=0 time=120
note_on channel=0 note=58 velocity=0 time=120
note_on channel=0 note=79 velocity=94 time=0
note_on channel=0 note=51 velocity=43 time=0
note_on channel=0 note=51 velocity=0 time=0
note_on channel=0 note=50 velocity=50 time=0
note_on channel=0 note=50 velocity=0 time=240
note_on channel=0 note=51 velocity=44 time=0
note_on channel=0 note=51 velocity=0 time=240
note_on channel=0 note=50 velocity=53 time=0
note_on channel=0 note=50 velocity=0 time=0
note_on channel=0 note=51 velocity=44 time=0
note_on channel=0 note=51 velocity=0 time=0
note_on channel=0 note=79 velocity=0 time=0
note_on channel=0 note=87 velocity=100 time=0
note_on channel=0 note=43 velocity=67 time=0
note_on channel=0 note=43 velocity=0 time=0
note_on channel=0 note=51 velocity=45 time=0
note_on channel=0 note=51 velocity=0 time=240
note_on channel=0 note=44 velocity=59 time=0
note_on channel=0 note=44 velocity=0 time=70
note_on channel=0 note=51 velocity=47 time=0
note_on channel=0 note=51 velocity=0 time=0
note_on channel=0 note=87 velocity=0 time=0
note_on channel=0 note=55 velocity=77 time=0
note_on channel=0 note=46 velocity=61 time=0
note_on channel=0 note=46 velocity=0 time=0
note_on channel=0 note=51 velocity=44 time=0
note_on channel=0 note=51 velocity=0 time=0
note_on channel=0 note=55 velocity=0 time=0
note_on channel=0 note=56 velocity=82 time=0
note_on channel=0 note=44 velocity=65 time=0
note_on channel=0 note=44 velocity=0 time=56
note_on channel=0 note=51 velocity=45 time=0
note_on channel=0 note=51 velocity=0 time=0
note_on channel=0 note=46 velocity=57 time=0
note_on channel=0 note=46 velocity=0 time=99
note_on channel=0 note=51 velocity=42 time=0
note_on channel=0 note=51 velocity=0 time=240
note_on channel=0 note=48 velocity=55 time=0
note_on channel=0 note=48 velocity=0 time=0
note_on channel=0 note=51 velocity=45 time=0
note_on channel=0 note=51 velocity=0 time=0
note_on channel=0 note=56 velocity=0 time=0
note_on channel=0 note=57 velocity=84 time=0
note_on channel=0 note=45 velocity=67 time=0
note_on channel=0 note=45 velocity=0 time=137
note_on channel=0 note=51 velocity=45 time=0
note_on channel=0 note=51 velocity=0 time=240
note_on channel=0 note=46 velocity=56 time=0
note_on channel=0 note=46 velocity=0 time=80
note_on channel=0 note=51 velocity=47 time=0
note_on channel=0 note=51 velocity=0 time=240
note_on channel=0 note=48 velocity=55 time=0
note_on channel=0 note=48 velocity=0 time=0
note_on channel=0 note=51 velocity=44 time=0
note_on channel=0 note=51 velocity=0 time=0
note_on channel=0 note=57 velocity=0 time=0
note_on channel=0 note=58 velocity=84 time=0
note_on channel=0 note=46 velocity=64 time=0
note_on channel=0 note=46 velocity=0 time=56
note_on channel=0 note=55 velocity=46 time=0
note_on channel=0 note=55 velocity=0 time=240
note_on channel=0 note=51 velocity=56 time=0
note_on channel=0 note=51 velocity=0 time=240
note_on channel=0 note=55 velocity=45 time=0
note_on channel=0 note=55 velocity=0 time=240
note_on channel=0 note=46 velocity=57 time=0
note_on channel=0 note=46 velocity=0 time=0
note_on channel=0 note=55 velocity=46 time=0
note_on channel=0 note=55 velocity=0 time=15
note_on channel=0 note=58 velocity=0 time=0
note_on channel=0 note=56 velocity=84 time=0
note_on channel=0 note=46 velocity=64 time=0
note_on channel=0 note=56 velocity=0 time=15
note_on channel=0 note=58 velocity=57 time=0
note_on channel=0 note=58 velocity=0 time=15
note_on channel=0 note=46 velocity=0 time=0
note_on channel=0 note=56 velocity=61 time=0
note_on channel=0 note=53 velocity=46 time=0
note_on channel=0 note=56 velocity=0 time=80
note_on channel=0 note=58 velocity=57 time=0
note_on channel=0 note=58 velocity=0 time=80
note_on channel=0 note=56 velocity=64 time=0
note_on channel=0 note=56 velocity=0 time=80
note_on channel=0 note=53 velocity=0 time=0
note_on channel=0 note=58 velocity=56 time=0
note_on channel=0 note=50 velocity=55 time=0
note_on channel=0 note=58 velocity=0 time=80
note_on channel=0 note=56 velocity=64 time=0
note_on channel=0 note=56 velocity=0 time=80
note_on channel=0 note=58 velocity=56 time=0
note_on channel=0 note=58 velocity=0 time=80
note_on channel=0 note=50 velocity=0 time=0
note_on channel=0 note=56 velocity=64 time=0
note_on channel=0 note=53 velocity=45 time=0
note_on channel=0 note=56 velocity=0 time=80
note_on channel=0 note=58 velocity=55 time=0
note_on channel=0 note=58 velocity=0 time=80
note_on channel=0 note=56 velocity=64 time=0
note_on channel=0 note=56 velocity=0 time=80
note_on channel=0 note=53 velocity=0 time=0
note_on channel=0 note=58 velocity=54 time=0
note_on channel=0 note=46 velocity=55 time=0
note_on channel=0 note=58 velocity=0 time=39
note_on channel=0 note=56 velocity=59 time=0
note_on channel=0 note=56 velocity=0 time=15
note_on channel=0 note=46 velocity=0 time=0
note_on channel=0 note=55 velocity=55 time=0
note_on channel=0 note=53 velocity=46 time=0
note_on channel=0 note=55 velocity=0 time=39
note_on channel=0 note=56 velocity=57 time=0
note_on channel=0 note=56 velocity=0 time=0
note_on channel=0 note=53 velocity=0 time=0
note_on channel=0 note=55 velocity=74 time=0
note_on channel=0 note=39 velocity=64 time=0
note_on channel=0 note=51 velocity=64 time=0
note_on channel=0 note=55 velocity=0 time=0
note_on channel=0 note=58 velocity=60 time=0
note_on channel=0 note=58 velocity=0 time=197
note_on channel=0 note=51 velocity=0 time=0
note_on channel=0 note=39 velocity=0 time=0
note_on channel=0 note=63 velocity=68 time=0
note_on channel=0 note=63 velocity=0 time=240
note_on channel=0 note=58 velocity=61 time=0
note_on channel=0 note=58 velocity=0 time=240
note_on channel=0 note=63 velocity=69 time=0
note_on channel=0 note=63 velocity=0 time=240
note_on channel=0 note=67 velocity=63 time=0
note_on channel=0 note=67 velocity=0 time=0
note_on channel=0 note=70 velocity=69 time=0
note_on channel=0 note=70 velocity=0 time=240
note_on channel=0 note=67 velocity=60 time=0
note_on channel=0 note=67 velocity=0 time=240
note_on channel=0 note=70 velocity=69 time=0
note_on channel=0 note=70 velocity=0 time=240
note_on channel=0 note=75 velocity=62 time=0
note_on channel=0 note=75 velocity=0 time=240
note_on channel=0 note=79 velocity=73 time=0
note_on channel=0 note=79 velocity=0 time=240
note_on channel=0 note=82 velocity=65 time=0
note_on channel=0 note=82 velocity=0 time=0
note_on channel=0 note=87 velocity=89 time=0
note_on channel=0 note=43 velocity=67 time=0
note_on channel=0 note=43 velocity=0 time=0
note_on channel=0 note=87 velocity=0 time=0
note_on channel=0 note=51 velocity=45 time=0
note_on channel=0 note=51 velocity=0 time=240
note_on channel=0 note=44 velocity=59 time=0
note_on channel=0 note=44 velocity=0 time=70
note_on channel=0 note=51 velocity=47 time=0
note_on channel=0 note=51 velocity=0 time=0
note_on channel=0 note=63 velocity=84 time=0
note_on channel=0 note=46 velocity=61 time=0
note_on channel=0 note=46 velocity=0 time=0
note_on channel=0 note=51 velocity=44 time=0
note_on channel=0 note=51 velocity=0 time=0
note_on channel=0 note=43 velocity=67 time=0
note_on channel=0 note=43 velocity=0 time=0
note_on channel=0 note=51 velocity=45 time=0
note_on channel=0 note=51 velocity=0 time=240
note_on channel=0 note=44 velocity=57 time=0
note_on channel=0 note=44 velocity=0 time=70
note_on channel=0 note=51 velocity=52 time=0
note_on channel=0 note=51 velocity=0 time=0
note_on channel=0 note=63 velocity=0 time=0
note_on channel=0 note=55 velocity=81 time=0
note_on channel=0 note=46 velocity=61 time=0
note_on channel=0 note=46 velocity=0 time=0
note_on channel=0 note=51 velocity=44 time=0
note_on channel=0 note=51 velocity=0 time=0
note_on channel=0 note=55 velocity=0 time=0
note_on channel=0 note=56 velocity=84 time=0
note_on channel=0 note=44 velocity=65 time=0
note_on channel=0 note=44 velocity=0 time=56
note_on channel=0 note=51 velocity=45 time=0
note_on channel=0 note=51 velocity=0 time=0
note_on channel=0 note=46 velocity=58 time=0
note_on channel=0 note=46 velocity=0 time=99
note_on channel=0 note=51 velocity=42 time=0
note_on channel=0 note=51 velocity=0 time=240
note_on channel=0 note=56 velocity=0 time=0
note_on channel=0 note=63 velocity=84 time=0
note_on channel=0 note=48 velocity=57 time=0
note_on channel=0 note=48 velocity=0 time=0
note_on channel=0 note=51 velocity=45 time=0
note_on channel=0 note=51 velocity=0 time=0
note_on channel=0 note=63 velocity=0 time=0
note_on channel=0 note=57 velocity=92 time=0
note_on channel=0 note=45 velocity=67 time=0
note_on channel=0 note=45 velocity=0 time=137
note_on channel=0 note=51 velocity=45 time=0
note_on channel=0 note=51 velocity=0 time=0
note_on channel=0 note=46 velocity=56 time=0
note_on channel=0 note=46 velocity=0 time=80
note_on channel=0 note=51 velocity=47 time=0
note_on channel=0 note=51 velocity=0 time=240
note_on channel=0 note=57 velocity=0 time=0
note_on channel=0 note=63 velocity=84 time=0
note_on channel=0 note=48 velocity=58 time=0
note_on channel=0 note=48 velocity=0 time=0
note_on channel=0 note=51 velocity=44 time=0
note_on channel=0 note=51 velocity=0 time=0
note_on channel=0 note=63 velocity=0 time=0
note_on channel=0 note=58 velocity=77 time=0
note_on channel=0 note=46 velocity=67 time=0
note_on channel=0 note=46 velocity=0 time=0
note_on channel=0 note=58 velocity=0 time=0
note_on channel=0 note=63 velocity=59 time=0
note_on channel=0 note=51 velocity=52 time=0
note_on channel=0 note=51 velocity=0 time=240
note_on channel=0 note=63 velocity=0 time=0
note_on channel=0 note=62 velocity=68 time=0
note_on channel=0 note=50 velocity=61 time=0
note_on channel=0 note=50 velocity=0 time=80
note_on channel=0 note=62 velocity=0 time=0
note_on channel=0 note=63 velocity=55 time=0
note_on channel=0 note=51 velocity=48 time=0
note_on channel=0 note=51 velocity=0 time=240
note_on channel=0 note=63 velocity=0 time=0
note_on channel=0 note=59 velocity=65 time=0
note_on channel=0 note=47 velocity=62 time=0
note_on channel=0 note=47 velocity=0 time=0
note_on channel=0 note=59 velocity=0 time=0
note_on channel=0 note=63 velocity=59 time=0
note_on channel=0 note=51 velocity=53 time=0
note_on channel=0 note=51 velocity=0 time=0
note_on channel=0 note=63 velocity=0 time=0
note_on channel=0 note=60 velocity=82 time=0
note_on channel=0 note=48 velocity=71 time=0
note_on channel=0 note=48 velocity=0 time=0
note_on channel=0 note=60 velocity=0 time=0
note_on channel=0 note=63 velocity=62 time=0
note_on channel=0 note=51 velocity=54 time=0
note_on channel=0 note=51 velocity=0 time=240
note_on channel=0 note=63 velocity=0 time=0
note_on channel=0 note=62 velocity=71 time=0
note_on channel=0 note=50 velocity=65 time=0
note_on channel=0 note=50 velocity=0 time=80
note_on channel=0 note=62 velocity=0 time=0
note_on channel=0 note=63 velocity=59 time=0
note_on channel=0 note=51 velocity=52 time=0
note_on channel=0 note=51 velocity=0 time=240
note_on channel=0 note=63 velocity=0 time=0
note_on channel=0 note=57 velocity=66 time=0
note_on channel=0 note=45 velocity=64 time=0
note_on channel=0 note=45 velocity=0 time=0
note_on channel=0 note=57 velocity=0 time=0
note_on channel=0 note=63 velocity=56 time=0
note_on channel=0 note=51 velocity=49 time=0
note_on channel=0 note=51 velocity=0 time=0
note_on channel=0 note=63 velocity=0 time=0
note_on channel=0 note=58 velocity=88 time=0
note_on channel=0 note=46 velocity=77 time=0
note_on channel=0 note=46 velocity=0 time=0
note_on channel=0 note=58 velocity=0 time=0
note_on channel=0 note=63 velocity=58 time=0
note_on channel=0 note=51 velocity=58 time=0
note_on channel=0 note=51 velocity=0 time=240
note_on channel=0 note=63 velocity=0 time=0
note_on channel=0 note=61 velocity=72 time=0
note_on channel=0 note=49 velocity=65 time=0
note_on channel=0 note=49 velocity=0 time=80
note_on channel=0 note=61 velocity=0 time=0
note_on channel=0 note=63 velocity=62 time=0
note_on channel=0 note=51 velocity=56 time=0
note_on channel=0 note=51 velocity=0 time=240
note_on channel=0 note=63 velocity=0 time=0
note_on channel=0 note=59 velocity=72 time=0
note_on channel=0 note=47 velocity=70 time=0
note_on channel=0 note=47 velocity=0 time=0
note_on channel=0 note=59 velocity=0 time=0
note_on channel=0 note=63 velocity=64 time=0
note_on channel=0 note=51 velocity=54 time=0
note_on channel=0 note=51 velocity=0 time=0
note_on channel=0 note=63 velocity=0 time=0
note_on channel=0 note=60 velocity=88 time=0
note_on channel=0 note=48 velocity=77 time=0
note_on channel=0 note=48 velocity=0 time=0
note_on channel=0 note=60 velocity=0 time=0
note_on channel=0 note=63 velocity=65 time=0
note_on channel=0 note=51 velocity=57 time=0
note_on channel=0 note=51 velocity=0 time=240
note_on channel=0 note=63 velocity=0 time=0
note_on channel=0 note=62 velocity=75 time=0
note_on channel=0 note=50 velocity=63 time=0
note_on channel=0 note=50 velocity=0 time=80
note_on channel=0 note=62 velocity=0 time=0
note_on channel=0 note=63 velocity=65 time=0
note_on channel=0 note=51 velocity=58 time=0
note_on channel=0 note=51 velocity=0 time=240
note_on channel=0 note=63 velocity=0 time=0
note_on channel=0 note=57 velocity=80 time=0
note_on channel=0 note=45 velocity=71 time=0
note_on channel=0 note=45 velocity=0 time=0
note_on channel=0 note=57 velocity=0 time=0
note_on channel=0 note=63 velocity=72 time=0
note_on channel=0 note=51 velocity=65 time=0
note_on channel=0 note=51 velocity=0 time=240
note_on channel=0 note=63 velocity=0 time=0
note_on channel=0 note=58 velocity=93 time=0
note_on channel=0 note=46 velocity=82 time=0
note_on channel=0 note=46 velocity=0 time=480
note_on channel=0 note=58 velocity=0 time=0
note_on channel=0 note=46 velocity=77 time=0
note_on channel=0 note=51 velocity=77 time=0
note_on channel=0 note=55 velocity=87 time=0
note_on channel=0 note=55 velocity=0 time=120
note_on channel=0 note=51 velocity=0 time=0
note_on channel=0 note=46 velocity=0 time=0
note_on channel=0 note=63 velocity=81 time=240
note_on channel=0 note=63 velocity=0 time=0
note_on channel=0 note=70 velocity=87 time=0
note_on channel=0 note=70 velocity=0 time=0
note_on channel=0 note=67 velocity=84 time=0
note_on channel=0 note=67 velocity=0 time=0
note_on channel=0 note=75 velocity=93 time=0
note_on channel=0 note=75 velocity=0 time=120
note_on channel=0 note=51 velocity=77 time=0
note_on channel=0 note=48 velocity=77 time=0
note_on channel=0 note=54 velocity=87 time=0
note_on channel=0 note=54 velocity=0 time=120
note_on channel=0 note=48 velocity=0 time=0
note_on channel=0 note=51 velocity=0 time=0
note_on channel=0 note=63 velocity=81 time=240
note_on channel=0 note=63 velocity=0 time=0
note_on channel=0 note=69 velocity=87 time=0
note_on channel=0 note=69 velocity=0 time=0
note_on channel=0 note=66 velocity=84 time=0
note_on channel=0 note=66 velocity=0 time=0
note_on channel=0 note=75 velocity=93 time=0
note_on channel=0 note=75 velocity=0 time=120
note_on channel=0 note=55 velocity=87 time=0
note_on channel=0 note=46 velocity=77 time=0
note_on channel=0 note=51 velocity=77 time=0
note_on channel=0 note=51 velocity=0 time=120
note_on channel=0 note=46 velocity=0 time=0
note_on channel=0 note=55 velocity=0 time=0
note_on channel=0 note=63 velocity=81 time=240
note_on channel=0 note=63 velocity=0 time=0
note_on channel=0 note=70 velocity=87 time=0
note_on channel=0 note=70 velocity=0 time=0
note_on channel=0 note=67 velocity=84 time=0
note_on channel=0 note=67 velocity=0 time=0
note_on channel=0 note=75 velocity=93 time=0
note_on channel=0 note=75 velocity=0 time=120
note_on channel=0 note=57 velocity=87 time=0
note_on channel=0 note=51 velocity=77 time=0
note_on channel=0 note=54 velocity=77 time=0
note_on channel=0 note=45 velocity=77 time=0
note_on channel=0 note=45 velocity=0 time=120
note_on channel=0 note=57 velocity=0 time=0
note_on channel=0 note=51 velocity=0 time=0
note_on channel=0 note=54 velocity=0 time=0
note_on channel=0 note=72 velocity=81 time=240
note_on channel=0 note=72 velocity=0 time=0
note_on channel=0 note=78 velocity=87 time=0
note_on channel=0 note=78 velocity=0 time=0
note_on channel=0 note=75 velocity=84 time=0
note_on channel=0 note=75 velocity=0 time=0
note_on channel=0 note=79 velocity=95 time=0
note_on channel=0 note=46 velocity=77 time=480
note_on channel=0 note=58 velocity=87 time=0
note_on channel=0 note=55 velocity=77 time=0
note_on channel=0 note=51 velocity=77 time=0
note_on channel=0 note=51 velocity=0 time=120
note_on channel=0 note=58 velocity=0 time=0
note_on channel=0 note=55 velocity=0 time=0
note_on channel=0 note=46 velocity=0 time=0
note_on channel=0 note=79 velocity=0 time=120
note_on channel=0 note=75 velocity=85 time=0
note_on channel=0 note=75 velocity=0 time=0
note_on channel=0 note=75 velocity=93 time=0
note_on channel=0 note=75 velocity=0 time=240
note_on channel=0 note=70 velocity=79 time=0
note_on channel=0 note=70 velocity=0 time=180
note_on channel=0 note=70 velocity=88 time=0
note_on channel=0 note=70 velocity=0 time=240
note_on channel=0 note=67 velocity=78 time=0
note_on channel=0 note=67 velocity=0 time=180
note_on channel=0 note=67 velocity=85 time=0
note_on channel=0 note=67 velocity=0 time=0
note_on channel=0 note=63 velocity=77 time=0
note_on channel=0 note=63 velocity=0 time=180
note_on channel=0 note=63 velocity=81 time=0
note_on channel=0 note=63 velocity=0 time=0
note_on channel=0 note=58 velocity=77 time=0
note_on channel=0 note=58 velocity=0 time=180
note_on channel=0 note=58 velocity=81 time=0
note_on channel=0 note=58 velocity=0 time=0
note_on channel=0 note=55 velocity=77 time=0
note_on channel=0 note=55 velocity=0 time=180
note_on channel=0 note=55 velocity=82 time=0
note_on channel=0 note=55 velocity=0 time=0
note_on channel=0 note=51 velocity=77 time=0
note_on channel=0 note=51 velocity=0 time=180
note_on channel=0 note=51 velocity=83 time=0
note_on channel=0 note=51 velocity=0 time=0
note_on channel=0 note=46 velocity=77 time=0
note_on channel=0 note=46 velocity=0 time=180
note_on channel=0 note=46 velocity=92 time=0
note_on channel=0 note=34 velocity=78 time=0
note_on channel=0 note=58 velocity=66 time=0
note_on channel=0 note=62 velocity=78 time=0
note_on channel=0 note=56 velocity=70 time=0
note_on channel=0 note=53 velocity=59 time=0
note_on channel=0 note=53 velocity=0 time=480
note_on channel=0 note=34 velocity=0 time=0
note_on channel=0 note=58 velocity=0 time=0
note_on channel=0 note=46 velocity=0 time=0
note_on channel=0 note=56 velocity=0 time=0
note_on channel=0 note=62 velocity=0 time=0
note_on channel=0 note=58 velocity=70 time=0
note_on channel=0 note=63 velocity=83 time=0
note_on channel=0 note=55 velocity=79 time=0
note_on channel=0 note=39 velocity=67 time=0
note_on channel=0 note=39 velocity=0 time=0
note_on channel=0 note=58 velocity=0 time=0
note_on channel=0 note=63 velocity=0 time=0
note_on channel=0 note=55 velocity=0 time=0
note_on channel=0 note=46 velocity=51 time=0
note_on channel=0 note=45 velocity=51 time=480
note_on channel=0 note=45 velocity=0 time=0
note_on channel=0 note=44 velocity=51 time=0
note_on channel=0 note=44 velocity=0 time=0
note_on channel=0 note=70 velocity=53 time=0
note_on channel=0 note=65 velocity=42 time=0
note_on channel=0 note=68 velocity=42 time=0
note_on channel=0 note=62 velocity=42 time=0
note_on channel=0 note=43 velocity=49 time=0
note_on channel=0 note=43 velocity=0 time=0
note_on channel=0 note=70 velocity=0 time=0
note_on channel=0 note=65 velocity=0 time=0
note_on channel=0 note=68 velocity=0 time=0
note_on channel=0 note=62 velocity=0 time=0
note_on channel=0 note=62 velocity=38 time=0
note_on channel=0 note=65 velocity=38 time=0
note_on channel=0 note=68 velocity=38 time=0
note_on channel=0 note=70 velocity=48 time=0
note_on channel=0 note=41 velocity=49 time=0
note_on channel=0 note=41 velocity=0 time=0
note_on channel=0 note=62 velocity=0 time=0
note_on channel=0 note=65 velocity=0 time=0
note_on channel=0 note=46 velocity=0 time=0
note_on channel=0 note=70 velocity=0 time=0
note_on channel=0 note=68 velocity=0 time=0
note_on channel=0 note=63 velocity=42 time=0
note_on channel=0 note=67 velocity=42 time=0
note_on channel=0 note=72 velocity=53 time=0
note_on channel=0 note=39 velocity=51 time=0
note_on channel=0 note=39 velocity=0 time=293
note_on channel=0 note=72 velocity=0 time=0
note_on channel=0 note=70 velocity=49 time=0
note_on channel=0 note=43 velocity=47 time=0
note_on channel=0 note=43 velocity=0 time=465
note_on channel=0 note=63 velocity=0 time=0
note_on channel=0 note=67 velocity=0 time=0
note_on channel=0 note=70 velocity=0 time=0
note_on channel=0 note=46 velocity=47 time=0
note_on channel=0 note=46 velocity=0 time=0
note_on channel=0 note=34 velocity=51 time=0
note_on channel=0 note=34 velocity=0 time=0
note_on channel=0 note=65 velocity=42 time=0
note_on channel=0 note=68 velocity=42 time=0
note_on channel=0 note=74 velocity=53 time=0
note_on channel=0 note=41 velocity=48 time=0
note_on channel=0 note=41 velocity=0 time=0
note_on channel=0 note=65 velocity=0 time=0
note_on channel=0 note=68 velocity=0 time=0
note_on channel=0 note=74 velocity=0 time=0
note_on channel=0 note=65 velocity=38 time=0
note_on channel=0 note=68 velocity=38 time=0
note_on channel=0 note=74 velocity=48 time=0
note_on channel=0 note=46 velocity=48 time=0
note_on channel=0 note=46 velocity=0 time=0
note_on channel=0 note=65 velocity=0 time=0
note_on channel=0 note=68 velocity=0 time=0
note_on channel=0 note=74 velocity=0 time=0
note_on channel=0 note=67 velocity=42 time=0
note_on channel=0 note=70 velocity=42 time=0
note_on channel=0 note=77 velocity=53 time=0
note_on channel=0 note=39 velocity=67 time=0
note_on channel=0 note=39 velocity=0 time=0
note_on channel=0 note=77 velocity=0 time=0
note_on channel=0 note=75 velocity=49 time=0
note_on channel=0 note=46 velocity=51 time=0
note_on channel=0 note=75 velocity=0 time=460
note_on channel=0 note=67 velocity=0 time=0
note_on channel=0 note=70 velocity=0 time=0
note_on channel=0 note=45 velocity=51 time=0
note_on channel=0 note=45 velocity=0 time=0
note_on channel=0 note=44 velocity=51 time=0
note_on channel=0 note=44 velocity=0 time=0
note_on channel=0 note=62 velocity=42 time=0
note_on channel=0 note=65 velocity=42 time=0
note_on channel=0 note=68 velocity=42 time=0
note_on channel=0 note=70 velocity=53 time=0
note_on channel=0 note=43 velocity=49 time=0
note_on channel=0 note=43 velocity=0 time=0
note_on channel=0 note=62 velocity=0 time=0
note_on channel=0 note=65 velocity=0 time=0
note_on channel=0 note=68 velocity=0 time=0
note_on channel=0 note=70 velocity=0 time=0
note_on channel=0 note=70 velocity=48 time=0
note_on channel=0 note=65 velocity=38 time=0
note_on channel=0 note=68 velocity=38 time=0
note_on channel=0 note=62 velocity=38 time=0
note_on channel=0 note=41 velocity=49 time=0
note_on channel=0 note=41 velocity=0 time=0
note_on channel=0 note=70 velocity=0 time=0
note_on channel=0 note=65 velocity=0 time=0
note_on channel=0 note=46 velocity=0 time=0
note_on channel=0 note=62 velocity=0 time=0
note_on channel=0 note=68 velocity=0 time=0
note_on channel=0 note=63 velocity=42 time=0
note_on channel=0 note=67 velocity=42 time=0
note_on channel=0 note=72 velocity=53 time=0
note_on channel=0 note=39 velocity=51 time=0
note_on channel=0 note=39 velocity=0 time=240
note_on channel=0 note=72 velocity=0 time=0
note_on channel=0 note=70 velocity=49 time=0
note_on channel=0 note=43 velocity=47 time=0
note_on channel=0 note=43 velocity=0 time=460
note_on channel=0 note=63 velocity=0 time=0
note_on channel=0 note=67 velocity=0 time=0
note_on channel=0 note=70 velocity=0 time=0
note_on channel=0 note=46 velocity=47 time=0
note_on channel=0 note=46 velocity=0 time=0
note_on channel=0 note=34 velocity=51 time=0
note_on channel=0 note=34 velocity=0 time=0
note_on channel=0 note=53 velocity=42 time=0
note_on channel=0 note=56 velocity=42 time=0
note_on channel=0 note=62 velocity=53 time=0
note_on channel=0 note=41 velocity=48 time=0
note_on channel=0 note=41 velocity=0 time=0
note_on channel=0 note=53 velocity=0 time=0
note_on channel=0 note=56 velocity=0 time=0
note_on channel=0 note=62 velocity=0 time=0
note_on channel=0 note=53 velocity=38 time=0
note_on channel=0 note=56 velocity=38 time=0
note_on channel=0 note=62 velocity=48 time=0
note_on channel=0 note=46 velocity=48 time=0
note_on channel=0 note=46 velocity=0 time=0
note_on channel=0 note=53 velocity=0 time=0
note_on channel=0 note=56 velocity=0 time=0
note_on channel=0 note=62 velocity=0 time=0
note_on channel=0 note=55 velocity=42 time=0
note_on channel=0 note=58 velocity=42 time=0
note_on channel=0 note=65 velocity=53 time=0
note_on channel=0 note=39 velocity=51 time=0
note_on channel=0 note=39 velocity=0 time=240
note_on channel=0 note=65 velocity=0 time=0
note_on channel=0 note=63 velocity=49 time=0
note_on channel=0 note=43 velocity=47 time=0
note_on channel=0 note=43 velocity=0 time=460
note_on channel=0 note=55 velocity=0 time=0
note_on channel=0 note=58 velocity=0 time=0
note_on channel=0 note=63 velocity=0 time=0
note_on channel=0 note=46 velocity=47 time=0
note_on channel=0 note=46 velocity=0 time=0
note_on channel=0 note=34 velocity=51 time=0
note_on channel=0 note=34 velocity=0 time=0
note_on channel=0 note=53 velocity=42 time=0
note_on channel=0 note=56 velocity=42 time=0
note_on channel=0 note=62 velocity=53 time=0
note_on channel=0 note=41 velocity=48 time=0
note_on channel=0 note=41 velocity=0 time=0
note_on channel=0 note=53 velocity=0 time=0
note_on channel=0 note=56 velocity=0 time=0
note_on channel=0 note=62 velocity=0 time=0
note_on channel=0 note=53 velocity=38 time=0
note_on channel=0 note=56 velocity=38 time=0
note_on channel=0 note=62 velocity=48 time=0
note_on channel=0 note=46 velocity=48 time=0
note_on channel=0 note=46 velocity=0 time=0
note_on channel=0 note=53 velocity=0 time=0
note_on channel=0 note=56 velocity=0 time=0
note_on channel=0 note=62 velocity=0 time=0
note_on channel=0 note=56 velocity=42 time=0
note_on channel=0 note=62 velocity=42 time=0
note_on channel=0 note=65 velocity=53 time=0
note_on channel=0 note=39 velocity=51 time=0
note_on channel=0 note=39 velocity=0 time=0
note_on channel=0 note=43 velocity=47 time=0
note_on channel=0 note=43 velocity=0 time=0
note_on channel=0 note=46 velocity=47 time=0
note_on channel=0 note=46 velocity=0 time=480
note_on channel=0 note=56 velocity=0 time=0
note_on channel=0 note=62 velocity=0 time=0
note_on channel=0 note=65 velocity=0 time=0
note_on channel=0 note=58 velocity=44 time=0
note_on channel=0 note=63 velocity=49 time=0
note_on channel=0 note=51 velocity=40 time=0
note_on channel=0 note=55 velocity=44 time=0
note_on channel=0 note=55 velocity=0 time=0
note_on channel=0 note=58 velocity=0 time=0
note_on channel=0 note=63 velocity=0 time=0
note_on channel=0 note=51 velocity=0 time=0
note_on channel=0 note=63 velocity=69 time=0
note_on channel=0 note=67 velocity=69 time=0
note_on channel=0 note=72 velocity=82 time=0
note_on channel=0 note=60 velocity=70 time=0
note_on channel=0 note=55 velocity=59 time=0
note_on channel=0 note=51 velocity=59 time=0
note_on channel=0 note=48 velocity=59 time=0
note_on channel=0 note=48 velocity=0 time=564
note_on channel=0 note=55 velocity=0 time=0
note_on channel=0 note=67 velocity=0 time=0
note_on channel=0 note=72 velocity=0 time=0
note_on channel=0 note=63 velocity=0 time=0
note_on channel=0 note=51 velocity=0 time=0
note_on channel=0 note=60 velocity=0 time=0
note_on channel=0 note=67 velocity=70 time=120
note_on channel=0 note=67 velocity=0 time=0
note_on channel=0 note=75 velocity=78 time=0
note_on channel=0 note=75 velocity=0 time=360
note_on channel=0 note=72 velocity=70 time=0
note_on channel=0 note=72 velocity=0 time=120
note_on channel=0 note=79 velocity=79 time=0
note_on channel=0 note=79 velocity=0 time=360
note_on channel=0 note=75 velocity=70 time=0
note_on channel=0 note=75 velocity=0 time=120
note_on channel=0 note=84 velocity=79 time=0
note_on channel=0 note=84 velocity=0 time=0
note_on channel=0 note=79 velocity=70 time=0
note_on channel=0 note=79 velocity=0 time=0
note_on channel=0 note=87 velocity=84 time=0
note_on channel=0 note=87 velocity=0 time=99
note_on channel=0 note=87 velocity=84 time=360
note_on channel=0 note=87 velocity=0 time=120
note_on channel=0 note=67 velocity=39 time=0
note_on channel=0 note=72 velocity=46 time=0
note_on channel=0 note=60 velocity=34 time=0
note_on channel=0 note=63 velocity=41 time=0
note_on channel=0 note=63 velocity=0 time=240
note_on channel=0 note=67 velocity=0 time=0
note_on channel=0 note=72 velocity=0 time=0
note_on channel=0 note=60 velocity=0 time=0
note_on channel=0 note=67 velocity=42 time=240
note_on channel=0 note=72 velocity=50 time=0
note_on channel=0 note=63 velocity=41 time=0
note_on channel=0 note=60 velocity=34 time=0
note_on channel=0 note=60 velocity=0 time=0
note_on channel=0 note=67 velocity=0 time=0
note_on channel=0 note=72 velocity=0 time=0
note_on channel=0 note=63 velocity=0 time=0
note_on channel=0 note=67 velocity=39 time=0
note_on channel=0 note=62 velocity=32 time=0
note_on channel=0 note=65 velocity=38 time=0
note_on channel=0 note=71 velocity=46 time=10
note_on channel=0 note=65 velocity=0 time=458
note_on channel=0 note=67 velocity=0 time=0
note_on channel=0 note=62 velocity=0 time=0
note_on channel=0 note=71 velocity=0 time=0
note_on channel=0 note=68 velocity=69 time=0
note_on channel=0 note=65 velocity=69 time=0
note_on channel=0 note=71 velocity=82 time=0
note_on channel=0 note=53 velocity=59 time=0
note_on channel=0 note=59 velocity=59 time=0
note_on channel=0 note=56 velocity=59 time=0
note_on channel=0 note=62 velocity=70 time=0
note_on channel=0 note=50 velocity=59 time=0
note_on channel=0 note=50 velocity=0 time=564
note_on channel=0 note=68 velocity=0 time=0
note_on channel=0 note=59 velocity=0 time=0
note_on channel=0 note=65 velocity=0 time=0
note_on channel=0 note=71 velocity=0 time=0
note_on channel=0 note=53 velocity=0 time=0
note_on channel=0 note=56 velocity=0 time=0
note_on channel=0 note=62 velocity=0 time=0
note_on channel=0 note=71 velocity=70 time=120
note_on channel=0 note=71 velocity=0 time=0
note_on channel=0 note=77 velocity=78 time=0
note_on channel=0 note=77 velocity=0 time=360
note_on channel=0 note=74 velocity=70 time=0
note_on channel=0 note=74 velocity=0 time=120
note_on channel=0 note=83 velocity=79 time=0
note_on channel=0 note=83 velocity=0 time=360
note_on channel=0 note=77 velocity=70 time=0
note_on channel=0 note=77 velocity=0 time=120
note_on channel=0 note=86 velocity=79 time=0
note_on channel=0 note=86 velocity=0 time=0
note_on channel=0 note=83 velocity=70 time=0
note_on channel=0 note=83 velocity=0 time=0
note_on channel=0 note=89 velocity=84 time=0
note_on channel=0 note=89 velocity=0 time=99
note_on channel=0 note=89 velocity=84 time=360
note_on channel=0 note=89 velocity=0 time=120
note_on channel=0 note=71 velocity=39 time=0
note_on channel=0 note=74 velocity=46 time=0
note_on channel=0 note=62 velocity=34 time=0
note_on channel=0 note=68 velocity=41 time=0
note_on channel=0 note=65 velocity=34 time=0
note_on channel=0 note=65 velocity=0 time=240
note_on channel=0 note=62 velocity=0 time=0
note_on channel=0 note=71 velocity=0 time=0
note_on channel=0 note=74 velocity=0 time=0
note_on channel=0 note=68 velocity=0 time=0
note_on channel=0 note=71 velocity=42 time=240
note_on channel=0 note=74 velocity=50 time=0
note_on channel=0 note=68 velocity=41 time=0
note_on channel=0 note=65 velocity=34 time=0
note_on channel=0 note=62 velocity=34 time=0
note_on channel=0 note=62 velocity=0 time=0
note_on channel=0 note=68 velocity=0 time=0
note_on channel=0 note=71 velocity=0 time=0
note_on channel=0 note=74 velocity=0 time=0
note_on channel=0 note=65 velocity=0 time=0
note_on channel=0 note=72 velocity=46 time=0
note_on channel=0 note=67 velocity=38 time=0
note_on channel=0 note=63 velocity=32 time=0
note_on channel=0 note=72 velocity=0 time=0
note_on channel=0 note=72 velocity=45 time=0
note_on channel=0 note=72 velocity=0 time=60
note_on channel=0 note=75 velocity=48 time=0
note_on channel=0 note=75 velocity=0 time=0
note_on channel=0 note=63 velocity=0 time=0
note_on channel=0 note=67 velocity=0 time=0
note_on channel=0 note=79 velocity=53 time=0
note_on channel=0 note=79 velocity=0 time=660
note_on channel=0 note=77 velocity=41 time=0
note_on channel=0 note=77 velocity=0 time=0
note_on channel=0 note=75 velocity=51 time=0
note_on channel=0 note=60 velocity=35 time=0
note_on channel=0 note=55 velocity=29 time=0
note_on channel=0 note=51 velocity=29 time=0
note_on channel=0 note=51 velocity=0 time=0
note_on channel=0 note=75 velocity=0 time=0
note_on channel=0 note=60 velocity=0 time=0
note_on channel=0 note=55 velocity=0 time=0
note_on channel=0 note=74 velocity=47 time=0
note_on channel=0 note=53 velocity=33 time=0
note_on channel=0 note=56 velocity=33 time=0
note_on channel=0 note=59 velocity=39 time=0
note_on channel=0 note=59 velocity=0 time=0
note_on channel=0 note=74 velocity=0 time=0
note_on channel=0 note=53 velocity=0 time=0
note_on channel=0 note=56 velocity=0 time=0
note_on channel=0 note=72 velocity=39 time=0
note_on channel=0 note=60 velocity=34 time=0
note_on channel=0 note=55 velocity=28 time=0
note_on channel=0 note=51 velocity=28 time=0
note_on channel=0 note=72 velocity=0 time=0
note_on channel=0 note=67 velocity=27 time=0
note_on channel=0 note=67 velocity=0 time=40
note_on channel=0 note=72 velocity=45 time=0
note_on channel=0 note=72 velocity=0 time=40
note_on channel=0 note=75 velocity=48 time=0
note_on channel=0 note=75 velocity=0 time=0
note_on channel=0 note=51 velocity=0 time=0
note_on channel=0 note=55 velocity=0 time=0
note_on channel=0 note=60 velocity=0 time=0
note_on channel=0 note=79 velocity=53 time=0
note_on channel=0 note=79 velocity=0 time=660
note_on channel=0 note=77 velocity=41 time=0
note_on channel=0 note=77 velocity=0 time=0
note_on channel=0 note=72 velocity=43 time=0
note_on channel=0 note=75 velocity=51 time=0
note_on channel=0 note=63 velocity=29 time=0
note_on channel=0 note=67 velocity=35 time=0
note_on channel=0 note=67 velocity=0 time=0
note_on channel=0 note=72 velocity=0 time=0
note_on channel=0 note=75 velocity=0 time=0
note_on channel=0 note=63 velocity=0 time=0
note_on channel=0 note=71 velocity=39 time=0
note_on channel=0 note=74 velocity=47 time=0
note_on channel=0 note=68 velocity=39 time=0
note_on channel=0 note=65 velocity=33 time=0
note_on channel=0 note=65 velocity=0 time=720
note_on channel=0 note=71 velocity=0 time=0
note_on channel=0 note=74 velocity=0 time=0
note_on channel=0 note=68 velocity=0 time=0
note_on channel=0 note=72 velocity=39 time=0
note_on channel=0 note=63 velocity=28 time=0
note_on channel=0 note=67 velocity=34 time=0
note_on channel=0 note=72 velocity=0 time=0
note_on channel=0 note=67 velocity=60 time=0
note_on channel=0 note=67 velocity=0 time=40
note_on channel=0 note=72 velocity=63 time=0
note_on channel=0 note=72 velocity=0 time=40
note_on channel=0 note=75 velocity=69 time=0
note_on channel=0 note=75 velocity=0 time=0
note_on channel=0 note=67 velocity=0 time=0
note_on channel=0 note=63 velocity=0 time=0
note_on channel=0 note=67 velocity=69 time=0
note_on channel=0 note=79 velocity=81 time=0
note_on channel=0 note=79 velocity=0 time=660
note_on channel=0 note=67 velocity=0 time=0
note_on channel=0 note=77 velocity=61 time=0
note_on channel=0 note=65 velocity=51 time=0
note_on channel=0 note=65 velocity=0 time=0
note_on channel=0 note=77 velocity=0 time=0
note_on channel=0 note=75 velocity=73 time=0
note_on channel=0 note=63 velocity=62 time=0
note_on channel=0 note=55 velocity=39 time=0
note_on channel=0 note=60 velocity=47 time=0
note_on channel=0 note=51 velocity=39 time=0
note_on channel=0 note=51 velocity=0 time=0
note_on channel=0 note=55 velocity=0 time=0
note_on channel=0 note=60 velocity=0 time=0
note_on channel=0 note=59 velocity=53 time=0
note_on channel=0 note=53 velocity=45 time=0
note_on channel=0 note=56 velocity=45 time=0
note_on channel=0 note=63 velocity=0 time=0
note_on channel=0 note=75 velocity=0 time=0
note_on channel=0 note=74 velocity=72 time=0
note_on channel=0 note=62 velocity=61 time=0
note_on channel=0 note=62 velocity=0 time=90
note_on channel=0 note=74 velocity=0 time=0
note_on channel=0 note=56 velocity=0 time=0
note_on channel=0 note=59 velocity=0 time=0
note_on channel=0 note=53 velocity=0 time=0
note_on channel=0 note=72 velocity=75 time=0
note_on channel=0 note=60 velocity=63 time=0
note_on channel=0 note=55 velocity=46 time=0
note_on channel=0 note=51 velocity=39 time=0
note_on channel=0 note=51 velocity=0 time=0
note_on channel=0 note=55 velocity=0 time=0
note_on channel=0 note=50 velocity=46 time=0
note_on channel=0 note=53 velocity=56 time=0
note_on channel=0 note=60 velocity=0 time=0
note_on channel=0 note=72 velocity=0 time=0
note_on channel=0 note=59 velocity=63 time=0
note_on channel=0 note=71 velocity=75 time=0
note_on channel=0 note=71 velocity=0 time=100
note_on channel=0 note=59 velocity=0 time=0
note_on channel=0 note=50 velocity=0 time=0
note_on channel=0 note=53 velocity=0 time=0
note_on channel=0 note=56 velocity=62 time=0
note_on channel=0 note=68 velocity=74 time=0
note_on channel=0 note=51 velocity=49 time=0
note_on channel=0 note=48 velocity=41 time=0
note_on channel=0 note=48 velocity=0 time=0
note_on channel=0 note=51 velocity=0 time=0
note_on channel=0 note=50 velocity=47 time=0
note_on channel=0 note=47 velocity=56 time=0
note_on channel=0 note=47 velocity=0 time=0
note_on channel=0 note=56 velocity=0 time=0
note_on channel=0 note=68 velocity=0 time=0
note_on channel=0 note=50 velocity=0 time=0
note_on channel=0 note=55 velocity=58 time=0
note_on channel=0 note=67 velocity=68 time=0
note_on channel=0 note=67 velocity=0 time=223
note_on channel=0 note=55 velocity=0 time=0
note_on channel=0 note=59 velocity=42 time=480
note_on channel=0 note=59 velocity=0 time=160
note_on channel=0 note=62 velocity=35 time=0
note_on channel=0 note=62 velocity=0 time=160
note_on channel=0 note=65 velocity=35 time=0
note_on channel=0 note=65 velocity=0 time=2
note_on channel=0 note=68 velocity=43 time=0
note_on channel=0 note=56 velocity=34 time=0
note_on channel=0 note=53 velocity=28 time=0
note_on channel=0 note=50 velocity=28 time=0
note_on channel=0 note=47 velocity=28 time=0
note_on channel=0 note=68 velocity=0 time=18
note_on channel=0 note=67 velocity=36 time=0
note_on channel=0 note=67 velocity=0 time=10
note_on channel=0 note=65 velocity=36 time=0
note_on channel=0 note=65 velocity=0 time=0
note_on channel=0 note=50 velocity=0 time=0
note_on channel=0 note=56 velocity=0 time=0
note_on channel=0 note=53 velocity=0 time=0
note_on channel=0 note=47 velocity=0 time=0
note_on channel=0 note=63 velocity=43 time=0
note_on channel=0 note=55 velocity=34 time=0
note_on channel=0 note=51 velocity=28 time=0
note_on channel=0 note=48 velocity=28 time=0
note_on channel=0 note=48 velocity=0 time=120
note_on channel=0 note=63 velocity=0 time=0
note_on channel=0 note=55 velocity=0 time=0
note_on channel=0 note=51 velocity=0 time=0
note_on channel=0 note=53 velocity=42 time=0
note_on channel=0 note=53 velocity=0 time=160
note_on channel=0 note=56 velocity=35 time=0
note_on channel=0 note=56 velocity=0 time=160
note_on channel=0 note=62 velocity=35 time=0
note_on channel=0 note=62 velocity=0 time=2
note_on channel=0 note=65 velocity=43 time=0
note_on channel=0 note=50 velocity=34 time=0
note_on channel=0 note=44 velocity=28 time=0
note_on channel=0 note=41 velocity=28 time=0
note_on channel=0 note=65 velocity=0 time=18
note_on channel=0 note=63 velocity=36 time=0
note_on channel=0 note=63 velocity=0 time=10
note_on channel=0 note=62 velocity=36 time=0
note_on channel=0 note=62 velocity=0 time=0
note_on channel=0 note=50 velocity=0 time=0
note_on channel=0 note=44 velocity=0 time=0
note_on channel=0 note=41 velocity=0 time=0
note_on channel=0 note=60 velocity=43 time=0
note_on channel=0 note=48 velocity=28 time=0
note_on channel=0 note=43 velocity=28 time=0
note_on channel=0 note=51 velocity=34 time=0
note_on channel=0 note=51 velocity=0 time=120
note_on channel=0 note=60 velocity=0 time=0
note_on channel=0 note=48 velocity=0 time=0
note_on channel=0 note=43 velocity=0 time=0
note_on channel=0 note=55 velocity=66 time=0
note_on channel=0 note=55 velocity=0 time=137
note_on channel=0 note=59 velocity=69 time=0
note_on channel=0 note=59 velocity=0 time=160
note_on channel=0 note=62 velocity=72 time=0
note_on channel=0 note=62 velocity=0 time=2
note_on channel=0 note=65 velocity=75 time=0
note_on channel=0 note=43 velocity=73 time=0
note_on channel=0 note=31 velocity=73 time=0
note_on channel=0 note=65 velocity=0 time=18
note_on channel=0 note=62 velocity=67 time=0
note_on channel=0 note=31 velocity=0 time=2
note_on channel=0 note=43 velocity=0 time=0
note_on channel=0 note=62 velocity=0 time=10
note_on channel=0 note=59 velocity=67 time=0
note_on channel=0 note=59 velocity=0 time=0
note_on channel=0 note=55 velocity=79 time=0
note_on channel=0 note=51 velocity=79 time=0
note_on channel=0 note=60 velocity=94 time=0
note_on channel=0 note=43 velocity=67 time=0
note_on channel=0 note=36 velocity=67 time=0
note_on channel=0 note=48 velocity=80 time=0
note_on channel=0 note=39 velocity=67 time=0
note_on channel=0 note=39 velocity=0 time=564
note_on channel=0 note=36 velocity=0 time=0
note_on channel=0 note=51 velocity=0 time=0
note_on channel=0 note=60 velocity=0 time=0
note_on channel=0 note=55 velocity=0 time=0
note_on channel=0 note=48 velocity=0 time=0
note_on channel=0 note=43 velocity=0 time=0
note_on channel=0 note=60 velocity=70 time=120
note_on channel=0 note=60 velocity=0 time=0
note_on channel=0 note=67 velocity=78 time=0
note_on channel=0 note=67 velocity=0 time=360
note_on channel=0 note=63 velocity=70 time=0
note_on channel=0 note=63 velocity=0 time=0
note_on channel=0 note=72 velocity=85 time=0
note_on channel=0 note=72 velocity=0 time=360
note_on channel=0 note=67 velocity=72 time=0
note_on channel=0 note=67 velocity=0 time=120
note_on channel=0 note=75 velocity=80 time=0
note_on channel=0 note=75 velocity=0 time=0
note_on channel=0 note=72 velocity=83 time=0
note_on channel=0 note=72 velocity=0 time=0
note_on channel=0 note=79 velocity=96 time=0
note_on channel=0 note=67 velocity=81 time=0
note_on channel=0 note=48 velocity=58 time=0
note_on channel=0 note=55 velocity=69 time=0
note_on channel=0 note=51 velocity=58 time=0
note_on channel=0 note=51 velocity=0 time=99
note_on channel=0 note=48 velocity=0 time=0
note_on channel=0 note=79 velocity=0 time=0
note_on channel=0 note=67 velocity=0 time=0
note_on channel=0 note=55 velocity=0 time=0
note_on channel=0 note=79 velocity=96 time=360
note_on channel=0 note=67 velocity=81 time=0
note_on channel=0 note=47 velocity=58 time=0
note_on channel=0 note=50 velocity=58 time=0
note_on channel=0 note=55 velocity=69 time=0
note_on channel=0 note=55 velocity=0 time=120
note_on channel=0 note=47 velocity=0 time=0
note_on channel=0 note=79 velocity=0 time=0
note_on channel=0 note=67 velocity=0 time=0
note_on channel=0 note=50 velocity=0 time=0
note_on channel=0 note=59 velocity=70 time=0
note_on channel=0 note=59 velocity=0 time=0
note_on channel=0 note=67 velocity=78 time=0
note_on channel=0 note=67 velocity=0 time=360
note_on channel=0 note=62 velocity=70 time=0
note_on channel=0 note=62 velocity=0 time=0
note_on channel=0 note=71 velocity=85 time=0
note_on channel=0 note=71 velocity=0 time=360
note_on channel=0 note=67 velocity=74 time=0
note_on channel=0 note=67 velocity=0 time=120
note_on channel=0 note=74 velocity=86 time=0
note_on channel=0 note=74 velocity=0 time=0
note_on channel=0 note=71 velocity=83 time=0
note_on channel=0 note=71 velocity=0 time=0
note_on channel=0 note=79 velocity=96 time=0
note_on channel=0 note=67 velocity=81 time=0
note_on channel=0 note=55 velocity=69 time=0
note_on channel=0 note=47 velocity=58 time=0
note_on channel=0 note=50 velocity=58 time=0
note_on channel=0 note=50 velocity=0 time=99
note_on channel=0 note=55 velocity=0 time=0
note_on channel=0 note=79 velocity=0 time=0
note_on channel=0 note=67 velocity=0 time=0
note_on channel=0 note=47 velocity=0 time=0
note_on channel=0 note=79 velocity=96 time=360
note_on channel=0 note=67 velocity=81 time=0
note_on channel=0 note=55 velocity=69 time=0
note_on channel=0 note=48 velocity=58 time=0
note_on channel=0 note=51 velocity=58 time=0
note_on channel=0 note=51 velocity=0 time=120
note_on channel=0 note=55 velocity=0 time=0
note_on channel=0 note=79 velocity=0 time=0
note_on channel=0 note=67 velocity=0 time=0
note_on channel=0 note=48 velocity=0 time=0
note_on channel=0 note=63 velocity=70 time=0
note_on channel=0 note=63 velocity=0 time=0
note_on channel=0 note=67 velocity=78 time=0
note_on channel=0 note=67 velocity=0 time=360
note_on channel=0 note=63 velocity=70 time=0
note_on channel=0 note=63 velocity=0 time=0
note_on channel=0 note=72 velocity=85 time=0
note_on channel=0 note=72 velocity=0 time=360
note_on channel=0 note=67 velocity=74 time=0
note_on channel=0 note=67 velocity=0 time=120
note_on channel=0 note=75 velocity=86 time=0
note_on channel=0 note=75 velocity=0 time=0
note_on channel=0 note=72 velocity=83 time=0
note_on channel=0 note=72 velocity=0 time=0
note_on channel=0 note=79 velocity=90 time=0
note_on channel=0 note=51 velocity=58 time=0
note_on channel=0 note=60 velocity=69 time=0
note_on channel=0 note=55 velocity=58 time=0
note_on channel=0 note=55 velocity=0 time=120
note_on channel=0 note=60 velocity=0 time=0
note_on channel=0 note=51 velocity=0 time=0
note_on channel=0 note=79 velocity=0 time=240
note_on channel=0 note=75 velocity=83 time=0
note_on channel=0 note=75 velocity=0 time=0
note_on channel=0 note=74 velocity=96 time=0
note_on channel=0 note=56 velocity=58 time=0
note_on channel=0 note=62 velocity=69 time=0
note_on channel=0 note=53 velocity=58 time=0
note_on channel=0 note=53 velocity=0 time=120
note_on channel=0 note=74 velocity=0 time=0
note_on channel=0 note=56 velocity=0 time=0
note_on channel=0 note=62 velocity=0 time=0
note_on channel=0 note=89 velocity=96 time=0
note_on channel=0 note=89 velocity=0 time=120
note_on channel=0 note=71 velocity=96 time=0
note_on channel=0 note=62 velocity=69 time=0
note_on channel=0 note=59 velocity=58 time=0
note_on channel=0 note=55 velocity=58 time=0
note_on channel=0 note=55 velocity=0 time=120
note_on channel=0 note=71 velocity=0 time=0
note_on channel=0 note=62 velocity=0 time=0
note_on channel=0 note=59 velocity=0 time=0
note_on channel=0 note=86 velocity=96 time=0
note_on channel=0 note=86 velocity=0 time=120
note_on channel=0 note=72 velocity=96 time=0
note_on channel=0 note=55 velocity=58 time=0
note_on channel=0 note=48 velocity=58 time=0
note_on channel=0 note=60 velocity=69 time=0
note_on channel=0 note=51 velocity=58 time=0
note_on channel=0 note=51 velocity=0 time=120
note_on channel=0 note=48 velocity=0 time=0
note_on channel=0 note=72 velocity=0 time=0
note_on channel=0 note=55 velocity=0 time=0
note_on channel=0 note=60 velocity=0 time=0
note_on channel=0 note=84 velocity=96 time=0
note_on channel=0 note=84 velocity=0 time=120
note_on channel=0 note=63 velocity=69 time=0
note_on channel=0 note=61 velocity=50 time=0
note_on channel=0 note=67 velocity=50 time=0
note_on channel=0 note=75 velocity=45 time=0
note_on channel=0 note=75 velocity=0 time=0
note_on channel=0 note=67 velocity=0 time=0
note_on channel=0 note=61 velocity=0 time=0
note_on channel=0 note=68 velocity=42 time=0
note_on channel=0 note=75 velocity=50 time=0
note_on channel=0 note=60 velocity=49 time=0
note_on channel=0 note=75 velocity=0 time=480
note_on channel=0 note=75 velocity=45 time=0
note_on channel=0 note=63 velocity=0 time=0
note_on channel=0 note=60 velocity=0 time=0
note_on channel=0 note=68 velocity=0 time=0
note_on channel=0 note=67 velocity=42 time=0
note_on channel=0 note=61 velocity=34 time=0
note_on channel=0 note=58 velocity=28 time=0
note_on channel=0 note=75 velocity=0 time=205
note_on channel=0 note=77 velocity=45 time=0
note_on channel=0 note=77 velocity=0 time=0
note_on channel=0 note=73 velocity=44 time=0
note_on channel=0 note=58 velocity=0 time=0
note_on channel=0 note=67 velocity=0 time=0
note_on channel=0 note=61 velocity=0 time=0
note_on channel=0 note=68 velocity=42 time=0
note_on channel=0 note=56 velocity=28 time=0
note_on channel=0 note=63 velocity=33 time=0
note_on channel=0 note=73 velocity=0 time=0
note_on channel=0 note=71 velocity=45 time=0
note_on channel=0 note=71 velocity=0 time=480
note_on channel=0 note=72 velocity=45 time=0
note_on channel=0 note=72 velocity=0 time=0
note_on channel=0 note=68 velocity=0 time=0
note_on channel=0 note=56 velocity=0 time=0
note_on channel=0 note=63 velocity=0 time=0
note_on channel=0 note=70 velocity=50 time=0
note_on channel=0 note=72 velocity=60 time=0
note_on channel=0 note=76 velocity=50 time=0
note_on channel=0 note=84 velocity=45 time=0
note_on channel=0 note=84 velocity=0 time=0
note_on channel=0 note=76 velocity=0 time=0
note_on channel=0 note=70 velocity=0 time=0
note_on channel=0 note=77 velocity=42 time=0
note_on channel=0 note=84 velocity=50 time=0
note_on channel=0 note=68 velocity=49 time=0
note_on channel=0 note=84 velocity=0 time=480
note_on channel=0 note=84 velocity=45 time=0
note_on channel=0 note=72 velocity=0 time=0
note_on channel=0 note=68 velocity=0 time=0
note_on channel=0 note=77 velocity=0 time=0
note_on channel=0 note=76 velocity=42 time=0
note_on channel=0 note=67 velocity=28 time=0
note_on channel=0 note=70 velocity=34 time=0
note_on channel=0 note=84 velocity=0 time=205
note_on channel=0 note=85 velocity=45 time=0
note_on channel=0 note=85 velocity=0 time=0
note_on channel=0 note=82 velocity=44 time=0
note_on channel=0 note=70 velocity=0 time=0
note_on channel=0 note=76 velocity=0 time=0
note_on channel=0 note=67 velocity=0 time=0
note_on channel=0 note=72 velocity=42 time=0
note_on channel=0 note=65 velocity=28 time=0
note_on channel=0 note=68 velocity=33 time=0
note_on channel=0 note=82 velocity=0 time=0
note_on channel=0 note=79 velocity=45 time=0
note_on channel=0 note=79 velocity=0 time=480
note_on channel=0 note=80 velocity=45 time=0
note_on channel=0 note=80 velocity=0 time=0
note_on channel=0 note=72 velocity=0 time=0
note_on channel=0 note=65 velocity=0 time=0
note_on channel=0 note=68 velocity=0 time=0
note_on channel=0 note=66 velocity=50 time=0
note_on channel=0 note=68 velocity=60 time=0
note_on channel=0 note=72 velocity=50 time=0
note_on channel=0 note=80 velocity=45 time=0
note_on channel=0 note=80 velocity=0 time=0
note_on channel=0 note=72 velocity=0 time=0
note_on channel=0 note=66 velocity=0 time=0
note_on channel=0 note=73 velocity=42 time=0
note_on channel=0 note=80 velocity=50 time=0
note_on channel=0 note=65 velocity=49 time=0
note_on channel=0 note=80 velocity=0 time=480
note_on channel=0 note=80 velocity=45 time=0
note_on channel=0 note=68 velocity=0 time=0
note_on channel=0 note=65 velocity=0 time=0
note_on channel=0 note=73 velocity=0 time=0
note_on channel=0 note=72 velocity=42 time=0
note_on channel=0 note=63 velocity=44 time=0
note_on channel=0 note=66 velocity=44 time=0
note_on channel=0 note=80 velocity=0 time=205
note_on channel=0 note=82 velocity=45 time=0
note_on channel=0 note=82 velocity=0 time=0
note_on channel=0 note=78 velocity=44 time=0
note_on channel=0 note=66 velocity=0 time=0
note_on channel=0 note=72 velocity=0 time=0
note_on channel=0 note=63 velocity=0 time=0
note_on channel=0 note=68 velocity=49 time=0
note_on channel=0 note=61 velocity=28 time=0
note_on channel=0 note=65 velocity=33 time=0
note_on channel=0 note=78 velocity=0 time=0
note_on channel=0 note=76 velocity=52 time=0
note_on channel=0 note=76 velocity=0 time=480
note_on channel=0 note=77 velocity=52 time=0
note_on channel=0 note=65 velocity=0 time=0
note_on channel=0 note=68 velocity=0 time=0
note_on channel=0 note=61 velocity=0 time=0
note_on channel=0 note=69 velocity=50 time=0
note_on channel=0 note=59 velocity=42 time=0
note_on channel=0 note=63 velocity=48 time=0
note_on channel=0 note=77 velocity=0 time=205
note_on channel=0 note=78 velocity=55 time=0
note_on channel=0 note=78 velocity=0 time=0
note_on channel=0 note=75 velocity=50 time=0
note_on channel=0 note=63 velocity=0 time=0
note_on channel=0 note=69 velocity=0 time=0
note_on channel=0 note=59 velocity=0 time=0
note_on channel=0 note=65 velocity=42 time=0
note_on channel=0 note=58 velocity=33 time=0
note_on channel=0 note=75 velocity=0 time=0
note_on channel=0 note=75 velocity=45 time=0
note_on channel=0 note=75 velocity=0 time=480
note_on channel=0 note=74 velocity=45 time=0
note_on channel=0 note=58 velocity=0 time=0
note_on channel=0 note=65 velocity=0 time=0
note_on channel=0 note=66 velocity=42 time=0
note_on channel=0 note=57 velocity=33 time=0
note_on channel=0 note=74 velocity=0 time=0
note_on channel=0 note=75 velocity=45 time=0
note_on channel=0 note=75 velocity=0 time=480
note_on channel=0 note=66 velocity=0 time=0
note_on channel=0 note=63 velocity=28 time=0
note_on channel=0 note=66 velocity=33 time=0
note_on channel=0 note=66 velocity=0 time=480
note_on channel=0 note=63 velocity=0 time=0
note_on channel=0 note=57 velocity=0 time=0
note_on channel=0 note=62 velocity=32 time=0
note_on channel=0 note=65 velocity=38 time=0
note_on channel=0 note=46 velocity=33 time=0
note_on channel=0 note=65 velocity=0 time=0
note_on channel=0 note=62 velocity=0 time=0
note_on channel=0 note=53 velocity=33 time=0
note_on channel=0 note=53 velocity=0 time=480
note_on channel=0 note=55 velocity=37 time=0
note_on channel=0 note=55 velocity=0 time=480
note_on channel=0 note=56 velocity=41 time=0
note_on channel=0 note=56 velocity=0 time=0
note_on channel=0 note=72 velocity=38 time=0
note_on channel=0 note=52 velocity=33 time=0
note_on channel=0 note=72 velocity=0 time=240
note_on channel=0 note=52 velocity=0 time=0
note_on channel=0 note=72 velocity=38 time=0
note_on channel=0 note=53 velocity=35 time=0
note_on channel=0 note=72 velocity=0 time=240
note_on channel=0 note=53 velocity=0 time=0
note_on channel=0 note=46 velocity=0 time=0
note_on channel=0 note=72 velocity=46 time=0
note_on channel=0 note=46 velocity=42 time=0
note_on channel=0 note=55 velocity=42 time=0
note_on channel=0 note=55 velocity=0 time=480
note_on channel=0 note=72 velocity=0 time=0
note_on channel=0 note=70 velocity=38 time=0
note_on channel=0 note=50 velocity=33 time=0
note_on channel=0 note=50 velocity=0 time=480
note_on channel=0 note=70 velocity=0 time=0
note_on channel=0 note=51 velocity=33 time=0
note_on channel=0 note=51 velocity=0 time=480
note_on channel=0 note=53 velocity=40 time=0
note_on channel=0 note=53 velocity=0 time=0
note_on channel=0 note=68 velocity=38 time=0
note_on channel=0 note=48 velocity=33 time=0
note_on channel=0 note=68 velocity=0 time=240
note_on channel=0 note=48 velocity=0 time=0
note_on channel=0 note=68 velocity=38 time=0
note_on channel=0 note=50 velocity=33 time=0
note_on channel=0 note=68 velocity=0 time=240
note_on channel=0 note=50 velocity=0 time=0
note_on channel=0 note=46 velocity=0 time=0
note_on channel=0 note=68 velocity=43 time=0
note_on channel=0 note=46 velocity=39 time=0
note_on channel=0 note=51 velocity=39 time=0
note_on channel=0 note=51 velocity=0 time=480
note_on channel=0 note=68 velocity=0 time=0
note_on channel=0 note=67 velocity=38 time=0
note_on channel=0 note=53 velocity=33 time=0
note_on channel=0 note=53 velocity=0 time=480
note_on channel=0 note=67 velocity=0 time=0
note_on channel=0 note=55 velocity=36 time=0
note_on channel=0 note=55 velocity=0 time=0
note_on channel=0 note=56 velocity=40 time=0
note_on channel=0 note=72 velocity=37 time=240
note_on channel=0 note=72 velocity=0 time=0
note_on channel=0 note=56 velocity=0 time=0
note_on channel=0 note=71 velocity=38 time=0
note_on channel=0 note=52 velocity=33 time=0
note_on channel=0 note=71 velocity=0 time=183
note_on channel=0 note=72 velocity=34 time=0
note_on channel=0 note=72 velocity=0 time=240
note_on channel=0 note=52 velocity=0 time=0
note_on channel=0 note=74 velocity=43 time=0
note_on channel=0 note=53 velocity=33 time=0
note_on channel=0 note=74 velocity=0 time=0
note_on channel=0 note=72 velocity=38 time=0
note_on channel=0 note=72 velocity=0 time=0
note_on channel=0 note=53 velocity=0 time=0
note_on channel=0 note=46 velocity=0 time=0
note_on channel=0 note=55 velocity=42 time=0
note_on channel=0 note=46 velocity=42 time=0
note_on channel=0 note=70 velocity=36 time=240
note_on channel=0 note=70 velocity=0 time=0
note_on channel=0 note=55 velocity=0 time=0
note_on channel=0 note=69 velocity=38 time=0
note_on channel=0 note=50 velocity=33 time=0
note_on channel=0 note=69 velocity=0 time=23
note_on channel=0 note=70 velocity=36 time=0
note_on channel=0 note=70 velocity=0 time=240
note_on channel=0 note=50 velocity=0 time=0
note_on channel=0 note=72 velocity=44 time=0
note_on channel=0 note=51 velocity=33 time=0
note_on channel=0 note=72 velocity=0 time=0
note_on channel=0 note=70 velocity=38 time=0
note_on channel=0 note=70 velocity=0 time=0
note_on channel=0 note=51 velocity=0 time=0
note_on channel=0 note=53 velocity=40 time=0
note_on channel=0 note=68 velocity=36 time=240
note_on channel=0 note=68 velocity=0 time=0
note_on channel=0 note=53 velocity=0 time=0
note_on channel=0 note=67 velocity=38 time=0
note_on channel=0 note=48 velocity=33 time=0
note_on channel=0 note=67 velocity=0 time=240
note_on channel=0 note=68 velocity=35 time=0
note_on channel=0 note=68 velocity=0 time=226
note_on channel=0 note=48 velocity=0 time=0
note_on channel=0 note=70 velocity=44 time=0
note_on channel=0 note=50 velocity=33 time=0
note_on channel=0 note=70 velocity=0 time=0
note_on channel=0 note=68 velocity=37 time=0
note_on channel=0 note=68 velocity=0 time=29
note_on channel=0 note=50 velocity=0 time=0
note_on channel=0 note=46 velocity=0 time=0
note_on channel=0 note=67 velocity=46 time=0
note_on channel=0 note=51 velocity=40 time=0
note_on channel=0 note=51 velocity=0 time=28
note_on channel=0 note=58 velocity=28 time=0
note_on channel=0 note=58 velocity=0 time=29
note_on channel=0 note=55 velocity=33 time=0
note_on channel=0 note=55 velocity=0 time=125
note_on channel=0 note=58 velocity=27 time=0
note_on channel=0 note=58 velocity=0 time=53
note_on channel=0 note=53 velocity=33 time=14
note_on channel=0 note=58 velocity=30 time=62
note_on channel=0 note=53 velocity=0 time=4
note_on channel=0 note=58 velocity=0 time=38
note_on channel=0 note=51 velocity=38 time=0
note_on channel=0 note=51 velocity=0 time=0
note_on channel=0 note=58 velocity=33 time=0
note_on channel=0 note=58 velocity=0 time=240
note_on channel=0 note=53 velocity=45 time=0
note_on channel=0 note=53 velocity=0 time=56
note_on channel=0 note=67 velocity=0 time=0
note_on channel=0 note=70 velocity=56 time=0
note_on channel=0 note=58 velocity=37 time=0
note_on channel=0 note=58 velocity=0 time=240
note_on channel=0 note=70 velocity=0 time=0
note_on channel=0 note=75 velocity=62 time=0
note_on channel=0 note=55 velocity=48 time=0
note_on channel=0 note=55 velocity=0 time=0
note_on channel=0 note=58 velocity=43 time=0
note_on channel=0 note=75 velocity=0 time=230
note_on channel=0 note=58 velocity=0 time=10
note_on channel=0 note=75 velocity=63 time=0
note_on channel=0 note=53 velocity=55 time=0
note_on channel=0 note=53 velocity=0 time=5
note_on channel=0 note=58 velocity=40 time=0
note_on channel=0 note=58 velocity=0 time=86
note_on channel=0 note=55 velocity=48 time=0
note_on channel=0 note=55 velocity=0 time=38
note_on channel=0 note=58 velocity=30 time=0
note_on channel=0 note=58 velocity=0 time=38
note_on channel=0 note=56 velocity=40 time=0
note_on channel=0 note=56 velocity=0 time=38
note_on channel=0 note=58 velocity=33 time=0
note_on channel=0 note=58 velocity=0 time=5
note_on channel=0 note=75 velocity=0 time=0
note_on channel=0 note=74 velocity=57 time=0
note_on channel=0 note=53 velocity=39 time=0
note_on channel=0 note=53 velocity=0 time=113
note_on channel=0 note=58 velocity=33 time=0
note_on channel=0 note=58 velocity=0 time=240
note_on channel=0 note=74 velocity=0 time=0
note_on channel=0 note=55 velocity=41 time=0
note_on channel=0 note=55 velocity=0 time=84
note_on channel=0 note=58 velocity=33 time=0
note_on channel=0 note=58 velocity=0 time=240
note_on channel=0 note=56 velocity=41 time=0
note_on channel=0 note=56 velocity=0 time=113
note_on channel=0 note=58 velocity=33 time=0
note_on channel=0 note=58 velocity=0 time=0
note_on channel=0 note=70 velocity=51 time=0
note_on channel=0 note=50 velocity=40 time=0
note_on channel=0 note=50 velocity=0 time=101
note_on channel=0 note=58 velocity=28 time=0
note_on channel=0 note=58 velocity=0 time=29
note_on channel=0 note=53 velocity=33 time=0
note_on channel=0 note=53 velocity=0 time=125
note_on channel=0 note=58 velocity=27 time=0
note_on channel=0 note=58 velocity=0 time=53
note_on channel=0 note=51 velocity=38 time=0
note_on channel=0 note=51 velocity=0 time=113
note_on channel=0 note=58 velocity=34 time=0
note_on channel=0 note=58 velocity=0 time=221
note_on channel=0 note=70 velocity=0 time=0
note_on channel=0 note=70 velocity=61 time=0
note_on channel=0 note=50 velocity=38 time=0
note_on channel=0 note=50 velocity=0 time=0
note_on channel=0 note=70 velocity=0 time=0
note_on channel=0 note=72 velocity=57 time=0
note_on channel=0 note=58 velocity=34 time=0
note_on channel=0 note=72 velocity=0 time=80
note_on channel=0 note=70 velocity=52 time=0
note_on channel=0 note=70 velocity=0 time=80
note_on channel=0 note=69 velocity=52 time=0
note_on channel=0 note=69 velocity=0 time=80
note_on channel=0 note=58 velocity=0 time=0
note_on channel=0 note=70 velocity=61 time=0
note_on channel=0 note=51 velocity=46 time=0
note_on channel=0 note=51 velocity=0 time=171
note_on channel=0 note=70 velocity=0 time=0
note_on channel=0 note=77 velocity=65 time=0
note_on channel=0 note=58 velocity=39 time=0
note_on channel=0 note=58 velocity=0 time=240
note_on channel=0 note=77 velocity=0 time=0
note_on channel=0 note=80 velocity=75 time=0
note_on channel=0 note=53 velocity=48 time=0
note_on channel=0 note=53 velocity=0 time=0
note_on channel=0 note=58 velocity=44 time=0
note_on channel=0 note=58 velocity=0 time=240
note_on channel=0 note=80 velocity=0 time=0
note_on channel=0 note=80 velocity=78 time=0
note_on channel=0 note=51 velocity=55 time=0
note_on channel=0 note=51 velocity=0 time=38
note_on channel=0 note=58 velocity=43 time=0
note_on channel=0 note=58 velocity=0 time=38
note_on channel=0 note=53 velocity=52 time=0
note_on channel=0 note=53 velocity=0 time=62
note_on channel=0 note=58 velocity=37 time=0
note_on channel=0 note=58 velocity=0 time=62
note_on channel=0 note=55 velocity=46 time=0
note_on channel=0 note=55 velocity=0 time=53
note_on channel=0 note=58 velocity=33 time=0
note_on channel=0 note=58 velocity=0 time=5
note_on channel=0 note=80 velocity=0 time=0
note_on channel=0 note=79 velocity=69 time=0
note_on channel=0 note=51 velocity=44 time=0
note_on channel=0 note=51 velocity=0 time=113
note_on channel=0 note=58 velocity=39 time=0
note_on channel=0 note=58 velocity=0 time=240
note_on channel=0 note=79 velocity=0 time=0
note_on channel=0 note=53 velocity=41 time=0
note_on channel=0 note=53 velocity=0 time=84
note_on channel=0 note=58 velocity=33 time=0
note_on channel=0 note=58 velocity=0 time=240
note_on channel=0 note=55 velocity=41 time=0
note_on channel=0 note=55 velocity=0 time=113
note_on channel=0 note=58 velocity=33 time=0
note_on channel=0 note=58 velocity=0 time=0
note_on channel=0 note=67 velocity=56 time=0
note_on channel=0 note=51 velocity=40 time=0
note_on channel=0 note=67 velocity=0 time=86
note_on channel=0 note=51 velocity=0 time=86
note_on channel=0 note=68 velocity=58 time=0
note_on channel=0 note=58 velocity=28 time=0
note_on channel=0 note=68 velocity=0 time=86
note_on channel=0 note=58 velocity=0 time=110
note_on channel=0 note=70 velocity=60 time=0
note_on channel=0 note=55 velocity=33 time=0
note_on channel=0 note=70 velocity=0 time=14
note_on channel=0 note=55 velocity=0 time=14
note_on channel=0 note=72 velocity=62 time=0
note_on channel=0 note=58 velocity=27 time=0
note_on channel=0 note=72 velocity=0 time=38
note_on channel=0 note=58 velocity=0 time=38
note_on channel=0 note=74 velocity=64 time=0
note_on channel=0 note=51 velocity=40 time=0
note_on channel=0 note=74 velocity=0 time=62
note_on channel=0 note=51 velocity=0 time=62
note_on channel=0 note=75 velocity=65 time=0
note_on channel=0 note=58 velocity=31 time=0
note_on channel=0 note=75 velocity=0 time=86
note_on channel=0 note=58 velocity=0 time=86
note_on channel=0 note=77 velocity=68 time=0
note_on channel=0 note=51 velocity=43 time=0
note_on channel=0 note=77 velocity=0 time=110
note_on channel=0 note=51 velocity=0 time=0
note_on channel=0 note=79 velocity=70 time=0
note_on channel=0 note=58 velocity=38 time=0
note_on channel=0 note=79 velocity=0 time=120
note_on channel=0 note=58 velocity=0 time=120
note_on channel=0 note=80 velocity=73 time=0
note_on channel=0 note=55 velocity=52 time=0
note_on channel=0 note=80 velocity=0 time=120
note_on channel=0 note=55 velocity=0 time=120
note_on channel=0 note=82 velocity=76 time=0
note_on channel=0 note=58 velocity=45 time=0
note_on channel=0 note=82 velocity=0 time=120
note_on channel=0 note=58 velocity=0 time=120
note_on channel=0 note=84 velocity=79 time=0
note_on channel=0 note=51 velocity=54 time=0
note_on channel=0 note=84 velocity=0 time=120
note_on channel=0 note=51 velocity=0 time=0
note_on channel=0 note=86 velocity=81 time=0
note_on channel=0 note=58 velocity=47 time=0
note_on channel=0 note=86 velocity=0 time=120
note_on channel=0 note=58 velocity=0 time=0
note_on channel=0 note=87 velocity=88 time=0
note_on channel=0 note=53 velocity=52 time=0
note_on channel=0 note=53 velocity=0 time=85
note_on channel=0 note=58 velocity=43 time=0
note_on channel=0 note=58 velocity=0 time=13
note_on channel=0 note=56 velocity=51 time=0
note_on channel=0 note=56 velocity=0 time=37
note_on channel=0 note=58 velocity=40 time=0
note_on channel=0 note=58 velocity=0 time=37
note_on channel=0 note=53 velocity=46 time=0
note_on channel=0 note=53 velocity=0 time=61
note_on channel=0 note=58 velocity=37 time=0
note_on channel=0 note=58 velocity=0 time=5
note_on channel=0 note=87 velocity=0 time=0
note_on channel=0 note=86 velocity=81 time=0
note_on channel=0 note=53 velocity=37 time=0
note_on channel=0 note=53 velocity=0 time=113
note_on channel=0 note=58 velocity=31 time=0
note_on channel=0 note=58 velocity=0 time=240
note_on channel=0 note=86 velocity=0 time=0
note_on channel=0 note=56 velocity=39 time=0
note_on channel=0 note=56 velocity=0 time=84
note_on channel=0 note=58 velocity=31 time=0
note_on channel=0 note=58 velocity=0 time=240
note_on channel=0 note=53 velocity=39 time=0
note_on channel=0 note=53 velocity=0 time=113
note_on channel=0 note=58 velocity=31 time=0
note_on channel=0 note=58 velocity=0 time=11
note_on channel=0 note=58 velocity=56 time=2
note_on channel=0 note=50 velocity=40 time=0
note_on channel=0 note=58 velocity=0 time=120
note_on channel=0 note=50 velocity=0 time=61
note_on channel=0 note=60 velocity=58 time=0
note_on channel=0 note=58 velocity=32 time=0
note_on channel=0 note=60 velocity=0 time=13
note_on channel=0 note=58 velocity=0 time=120
note_on channel=0 note=62 velocity=60 time=0
note_on channel=0 note=53 velocity=39 time=0
note_on channel=0 note=62 velocity=0 time=61
note_on channel=0 note=53 velocity=0 time=13
note_on channel=0 note=63 velocity=62 time=0
note_on channel=0 note=58 velocity=29 time=0
note_on channel=0 note=63 velocity=0 time=120
note_on channel=0 note=58 velocity=0 time=61
note_on channel=0 note=65 velocity=64 time=0
note_on channel=0 note=50 velocity=45 time=0
note_on channel=0 note=65 velocity=0 time=13
note_on channel=0 note=50 velocity=0 time=120
note_on channel=0 note=67 velocity=65 time=0
note_on channel=0 note=58 velocity=36 time=0
note_on channel=0 note=67 velocity=0 time=61
note_on channel=0 note=58 velocity=0 time=13
note_on channel=0 note=68 velocity=67 time=0
note_on channel=0 note=50 velocity=48 time=0
note_on channel=0 note=68 velocity=0 time=120
note_on channel=0 note=50 velocity=0 time=0
note_on channel=0 note=70 velocity=70 time=0
note_on channel=0 note=58 velocity=40 time=0
note_on channel=0 note=70 velocity=0 time=120
note_on channel=0 note=58 velocity=0 time=120
note_on channel=0 note=72 velocity=73 time=0
note_on channel=0 note=53 velocity=53 time=0
note_on channel=0 note=72 velocity=0 time=120
note_on channel=0 note=53 velocity=0 time=120
note_on channel=0 note=74 velocity=76 time=0
note_on channel=0 note=58 velocity=45 time=0
note_on channel=0 note=74 velocity=0 time=120
note_on channel=0 note=58 velocity=0 time=120
note_on channel=0 note=75 velocity=79 time=0
note_on channel=0 note=50 velocity=60 time=0
note_on channel=0 note=75 velocity=0 time=120
note_on channel=0 note=50 velocity=0 time=0
note_on channel=0 note=77 velocity=82 time=0
note_on channel=0 note=58 velocity=50 time=0
note_on channel=0 note=77 velocity=0 time=120
note_on channel=0 note=58 velocity=0 time=120
note_on channel=0 note=79 velocity=89 time=0
note_on channel=0 note=51 velocity=43 time=0
note_on channel=0 note=51 velocity=0 time=0
note_on channel=0 note=50 velocity=61 time=0
note_on channel=0 note=50 velocity=0 time=240
note_on channel=0 note=51 velocity=48 time=0
note_on channel=0 note=51 velocity=0 time=240
note_on channel=0 note=50 velocity=60 time=0
note_on channel=0 note=50 velocity=0 time=0
note_on channel=0 note=51 velocity=50 time=0
note_on channel=0 note=51 velocity=0 time=0
note_on channel=0 note=79 velocity=0 time=0
note_on channel=0 note=87 velocity=100 time=0
note_on channel=0 note=43 velocity=67 time=0
note_on channel=0 note=43 velocity=0 time=0
note_on channel=0 note=51 velocity=45 time=0
note_on channel=0 note=51 velocity=0 time=240
note_on channel=0 note=44 velocity=59 time=0
note_on channel=0 note=44 velocity=0 time=70
note_on channel=0 note=51 velocity=51 time=0
note_on channel=0 note=51 velocity=0 time=0
note_on channel=0 note=87 velocity=0 time=0
note_on channel=0 note=55 velocity=77 time=0
note_on channel=0 note=46 velocity=60 time=0
note_on channel=0 note=46 velocity=0 time=0
note_on channel=0 note=51 velocity=44 time=0
note_on channel=0 note=51 velocity=0 time=0
note_on channel=0 note=55 velocity=0 time=0
note_on channel=0 note=56 velocity=82 time=0
note_on channel=0 note=44 velocity=65 time=0
note_on channel=0 note=44 velocity=0 time=56
note_on channel=0 note=51 velocity=49 time=0
note_on channel=0 note=51 velocity=0 time=0
note_on channel=0 note=46 velocity=60 time=0
note_on channel=0 note=46 velocity=0 time=99
note_on channel=0 note=51 velocity=47 time=0
note_on channel=0 note=51 velocity=0 time=240
note_on channel=0 note=48 velocity=59 time=0
note_on channel=0 note=48 velocity=0 time=0
note_on channel=0 note=51 velocity=48 time=0
note_on channel=0 note=51 velocity=0 time=0
note_on channel=0 note=56 velocity=0 time=0
note_on channel=0 note=57 velocity=84 time=0
note_on channel=0 note=45 velocity=67 time=0
note_on channel=0 note=45 velocity=0 time=137
note_on channel=0 note=51 velocity=49 time=0
note_on channel=0 note=51 velocity=0 time=240
note_on channel=0 note=46 velocity=59 time=0
note_on channel=0 note=46 velocity=0 time=80
note_on channel=0 note=51 velocity=47 time=0
note_on channel=0 note=51 velocity=0 time=240
note_on channel=0 note=48 velocity=57 time=0
note_on channel=0 note=48 velocity=0 time=0
note_on channel=0 note=51 velocity=44 time=0
note_on channel=0 note=51 velocity=0 time=0
note_on channel=0 note=57 velocity=0 time=0
note_on channel=0 note=58 velocity=84 time=0
note_on channel=0 note=46 velocity=64 time=0
note_on channel=0 note=46 velocity=0 time=56
note_on channel=0 note=55 velocity=46 time=0
note_on channel=0 note=55 velocity=0 time=240
note_on channel=0 note=51 velocity=57 time=0
note_on channel=0 note=51 velocity=0 time=240
note_on channel=0 note=55 velocity=45 time=0
note_on channel=0 note=55 velocity=0 time=240
note_on channel=0 note=46 velocity=56 time=0
note_on channel=0 note=46 velocity=0 time=0
note_on channel=0 note=55 velocity=56 time=0
note_on channel=0 note=55 velocity=0 time=15
note_on channel=0 note=58 velocity=0 time=0
note_on channel=0 note=56 velocity=84 time=0
note_on channel=0 note=46 velocity=64 time=0
note_on channel=0 note=56 velocity=0 time=15
note_on channel=0 note=58 velocity=57 time=0
note_on channel=0 note=58 velocity=0 time=15
note_on channel=0 note=46 velocity=0 time=0
note_on channel=0 note=56 velocity=61 time=0
note_on channel=0 note=53 velocity=46 time=0
note_on channel=0 note=56 velocity=0 time=80
note_on channel=0 note=58 velocity=57 time=0
note_on channel=0 note=58 velocity=0 time=80
note_on channel=0 note=56 velocity=64 time=0
note_on channel=0 note=56 velocity=0 time=80
note_on channel=0 note=53 velocity=0 time=0
note_on channel=0 note=58 velocity=56 time=0
note_on channel=0 note=50 velocity=56 time=0
note_on channel=0 note=58 velocity=0 time=80
note_on channel=0 note=56 velocity=64 time=0
note_on channel=0 note=56 velocity=0 time=80
note_on channel=0 note=58 velocity=56 time=0
note_on channel=0 note=58 velocity=0 time=80
note_on channel=0 note=50 velocity=0 time=0
note_on channel=0 note=56 velocity=64 time=0
note_on channel=0 note=53 velocity=45 time=0
note_on channel=0 note=56 velocity=0 time=80
note_on channel=0 note=58 velocity=55 time=0
note_on channel=0 note=58 velocity=0 time=80
note_on channel=0 note=56 velocity=64 time=0
note_on channel=0 note=56 velocity=0 time=80
note_on channel=0 note=53 velocity=0 time=0
note_on channel=0 note=58 velocity=54 time=0
note_on channel=0 note=46 velocity=58 time=0
note_on channel=0 note=58 velocity=0 time=39
note_on channel=0 note=56 velocity=59 time=0
note_on channel=0 note=56 velocity=0 time=15
note_on channel=0 note=46 velocity=0 time=0
note_on channel=0 note=55 velocity=55 time=0
note_on channel=0 note=53 velocity=53 time=0
note_on channel=0 note=55 velocity=0 time=39
note_on channel=0 note=56 velocity=57 time=0
note_on channel=0 note=56 velocity=0 time=0
note_on channel=0 note=53 velocity=0 time=0
note_on channel=0 note=55 velocity=74 time=0
note_on channel=0 note=39 velocity=64 time=0
note_on channel=0 note=51 velocity=64 time=0
note_on channel=0 note=55 velocity=0 time=0
note_on channel=0 note=58 velocity=60 time=0
note_on channel=0 note=58 velocity=0 time=197
note_on channel=0 note=51 velocity=0 time=0
note_on channel=0 note=39 velocity=0 time=0
note_on channel=0 note=63 velocity=68 time=0
note_on channel=0 note=63 velocity=0 time=240
note_on channel=0 note=58 velocity=61 time=0
note_on channel=0 note=58 velocity=0 time=240
note_on channel=0 note=63 velocity=69 time=0
note_on channel=0 note=63 velocity=0 time=240
note_on channel=0 note=67 velocity=63 time=0
note_on channel=0 note=67 velocity=0 time=0
note_on channel=0 note=70 velocity=69 time=0
note_on channel=0 note=70 velocity=0 time=240
note_on channel=0 note=67 velocity=60 time=0
note_on channel=0 note=67 velocity=0 time=240
note_on channel=0 note=70 velocity=69 time=0
note_on channel=0 note=70 velocity=0 time=240
note_on channel=0 note=75 velocity=62 time=0
note_on channel=0 note=75 velocity=0 time=240
note_on channel=0 note=79 velocity=78 time=0
note_on channel=0 note=79 velocity=0 time=240
note_on channel=0 note=82 velocity=73 time=0
note_on channel=0 note=82 velocity=0 time=0
note_on channel=0 note=87 velocity=89 time=0
note_on channel=0 note=43 velocity=67 time=0
note_on channel=0 note=43 velocity=0 time=0
note_on channel=0 note=87 velocity=0 time=0
note_on channel=0 note=51 velocity=45 time=0
note_on channel=0 note=51 velocity=0 time=240
note_on channel=0 note=44 velocity=50 time=0
note_on channel=0 note=44 velocity=0 time=70
note_on channel=0 note=51 velocity=47 time=0
note_on channel=0 note=51 velocity=0 time=0
note_on channel=0 note=63 velocity=84 time=0
note_on channel=0 note=46 velocity=54 time=0
note_on channel=0 note=46 velocity=0 time=0
note_on channel=0 note=51 velocity=44 time=0
note_on channel=0 note=51 velocity=0 time=0
note_on channel=0 note=43 velocity=67 time=0
note_on channel=0 note=43 velocity=0 time=0
note_on channel=0 note=51 velocity=45 time=0
note_on channel=0 note=51 velocity=0 time=240
note_on channel=0 note=44 velocity=50 time=0
note_on channel=0 note=44 velocity=0 time=70
note_on channel=0 note=51 velocity=47 time=0
note_on channel=0 note=51 velocity=0 time=0
note_on channel=0 note=63 velocity=0 time=0
note_on channel=0 note=55 velocity=81 time=0
note_on channel=0 note=46 velocity=54 time=0
note_on channel=0 note=46 velocity=0 time=0
note_on channel=0 note=51 velocity=44 time=0
note_on channel=0 note=51 velocity=0 time=0
note_on channel=0 note=55 velocity=0 time=0
note_on channel=0 note=56 velocity=84 time=0
note_on channel=0 note=44 velocity=65 time=0
note_on channel=0 note=44 velocity=0 time=56
note_on channel=0 note=51 velocity=45 time=0
note_on channel=0 note=51 velocity=0 time=0
note_on channel=0 note=46 velocity=59 time=0
note_on channel=0 note=46 velocity=0 time=99
note_on channel=0 note=51 velocity=42 time=0
note_on channel=0 note=51 velocity=0 time=240
note_on channel=0 note=56 velocity=0 time=0
note_on channel=0 note=63 velocity=84 time=0
note_on channel=0 note=48 velocity=58 time=0
note_on channel=0 note=48 velocity=0 time=0
note_on channel=0 note=51 velocity=45 time=0
note_on channel=0 note=51 velocity=0 time=0
note_on channel=0 note=63 velocity=0 time=0
note_on channel=0 note=57 velocity=92 time=0
note_on channel=0 note=45 velocity=67 time=0
note_on channel=0 note=45 velocity=0 time=137
note_on channel=0 note=51 velocity=45 time=0
note_on channel=0 note=51 velocity=0 time=0
note_on channel=0 note=46 velocity=60 time=0
note_on channel=0 note=46 velocity=0 time=80
note_on channel=0 note=51 velocity=47 time=0
note_on channel=0 note=51 velocity=0 time=240
note_on channel=0 note=57 velocity=0 time=0
note_on channel=0 note=63 velocity=84 time=0
note_on channel=0 note=48 velocity=58 time=0
note_on channel=0 note=48 velocity=0 time=0
note_on channel=0 note=51 velocity=44 time=0
note_on channel=0 note=51 velocity=0 time=0
note_on channel=0 note=63 velocity=0 time=0
note_on channel=0 note=58 velocity=77 time=0
note_on channel=0 note=46 velocity=67 time=0
note_on channel=0 note=46 velocity=0 time=0
note_on channel=0 note=58 velocity=0 time=0
note_on channel=0 note=63 velocity=60 time=0
note_on channel=0 note=51 velocity=53 time=0
note_on channel=0 note=51 velocity=0 time=240
note_on channel=0 note=63 velocity=0 time=0
note_on channel=0 note=62 velocity=69 time=0
note_on channel=0 note=50 velocity=61 time=0
note_on channel=0 note=50 velocity=0 time=80
note_on channel=0 note=62 velocity=0 time=0
note_on channel=0 note=63 velocity=55 time=0
note_on channel=0 note=51 velocity=48 time=0
note_on channel=0 note=51 velocity=0 time=240
note_on channel=0 note=63 velocity=0 time=0
note_on channel=0 note=59 velocity=68 time=0
note_on channel=0 note=47 velocity=61 time=0
note_on channel=0 note=47 velocity=0 time=0
note_on channel=0 note=59 velocity=0 time=0
note_on channel=0 note=63 velocity=61 time=0
note_on channel=0 note=51 velocity=49 time=0
note_on channel=0 note=51 velocity=0 time=0
note_on channel=0 note=63 velocity=0 time=0
note_on channel=0 note=60 velocity=82 time=0
note_on channel=0 note=48 velocity=71 time=0
note_on channel=0 note=48 velocity=0 time=0
note_on channel=0 note=60 velocity=0 time=0
note_on channel=0 note=63 velocity=63 time=0
note_on channel=0 note=51 velocity=52 time=0
note_on channel=0 note=51 velocity=0 time=240
note_on channel=0 note=63 velocity=0 time=0
note_on channel=0 note=62 velocity=70 time=0
note_on channel=0 note=50 velocity=63 time=0
note_on channel=0 note=50 velocity=0 time=80
note_on channel=0 note=62 velocity=0 time=0
note_on channel=0 note=63 velocity=62 time=0
note_on channel=0 note=51 velocity=55 time=0
note_on channel=0 note=51 velocity=0 time=240
note_on channel=0 note=63 velocity=0 time=0
note_on channel=0 note=57 velocity=70 time=0
note_on channel=0 note=45 velocity=66 time=0
note_on channel=0 note=45 velocity=0 time=0
note_on channel=0 note=57 velocity=0 time=0
note_on channel=0 note=63 velocity=61 time=0
note_on channel=0 note=51 velocity=49 time=0
note_on channel=0 note=51 velocity=0 time=0
note_on channel=0 note=63 velocity=0 time=0
note_on channel=0 note=58 velocity=88 time=0
note_on channel=0 note=46 velocity=77 time=0
note_on channel=0 note=46 velocity=0 time=0
note_on channel=0 note=58 velocity=0 time=0
note_on channel=0 note=63 velocity=66 time=0
note_on channel=0 note=51 velocity=56 time=0
note_on channel=0 note=51 velocity=0 time=240
note_on channel=0 note=63 velocity=0 time=0
note_on channel=0 note=61 velocity=75 time=0
note_on channel=0 note=49 velocity=66 time=0
note_on channel=0 note=49 velocity=0 time=80
note_on channel=0 note=61 velocity=0 time=0
note_on channel=0 note=63 velocity=62 time=0
note_on channel=0 note=51 velocity=54 time=0
note_on channel=0 note=51 velocity=0 time=240
note_on channel=0 note=63 velocity=0 time=0
note_on channel=0 note=59 velocity=74 time=0
note_on channel=0 note=47 velocity=67 time=0
note_on channel=0 note=47 velocity=0 time=0
note_on channel=0 note=59 velocity=0 time=0
note_on channel=0 note=63 velocity=65 time=0
note_on channel=0 note=51 velocity=56 time=0
note_on channel=0 note=51 velocity=0 time=0
note_on channel=0 note=63 velocity=0 time=0
note_on channel=0 note=60 velocity=88 time=0
note_on channel=0 note=48 velocity=77 time=0
note_on channel=0 note=48 velocity=0 time=0
note_on channel=0 note=60 velocity=0 time=0
note_on channel=0 note=63 velocity=65 time=0
note_on channel=0 note=51 velocity=58 time=0
note_on channel=0 note=51 velocity=0 time=240
note_on channel=0 note=63 velocity=0 time=0
note_on channel=0 note=62 velocity=71 time=0
note_on channel=0 note=50 velocity=63 time=0
note_on channel=0 note=50 velocity=0 time=80
note_on channel=0 note=62 velocity=0 time=0
note_on channel=0 note=63 velocity=65 time=0
note_on channel=0 note=51 velocity=58 time=0
note_on channel=0 note=51 velocity=0 time=240
note_on channel=0 note=63 velocity=0 time=0
note_on channel=0 note=57 velocity=80 time=0
note_on channel=0 note=45 velocity=71 time=0
note_on channel=0 note=45 velocity=0 time=0
note_on channel=0 note=57 velocity=0 time=0
note_on channel=0 note=63 velocity=72 time=0
note_on channel=0 note=51 velocity=65 time=0
note_on channel=0 note=51 velocity=0 time=240
note_on channel=0 note=63 velocity=0 time=0
note_on channel=0 note=58 velocity=93 time=0
note_on channel=0 note=46 velocity=82 time=0
note_on channel=0 note=46 velocity=0 time=480
note_on channel=0 note=58 velocity=0 time=0
note_on channel=0 note=46 velocity=77 time=0
note_on channel=0 note=51 velocity=77 time=0
note_on channel=0 note=55 velocity=87 time=0
note_on channel=0 note=55 velocity=0 time=120
note_on channel=0 note=51 velocity=0 time=0
note_on channel=0 note=46 velocity=0 time=0
note_on channel=0 note=63 velocity=81 time=240
note_on channel=0 note=63 velocity=0 time=0
note_on channel=0 note=70 velocity=87 time=0
note_on channel=0 note=70 velocity=0 time=0
note_on channel=0 note=67 velocity=84 time=0
note_on channel=0 note=67 velocity=0 time=0
note_on channel=0 note=75 velocity=93 time=0
note_on channel=0 note=75 velocity=0 time=120
note_on channel=0 note=51 velocity=77 time=0
note_on channel=0 note=48 velocity=77 time=0
note_on channel=0 note=54 velocity=87 time=0
note_on channel=0 note=54 velocity=0 time=120
note_on channel=0 note=48 velocity=0 time=0
note_on channel=0 note=51 velocity=0 time=0
note_on channel=0 note=63 velocity=81 time=240
note_on channel=0 note=63 velocity=0 time=0
note_on channel=0 note=69 velocity=87 time=0
note_on channel=0 note=69 velocity=0 time=0
note_on channel=0 note=66 velocity=84 time=0
note_on channel=0 note=66 velocity=0 time=0
note_on channel=0 note=75 velocity=93 time=0
note_on channel=0 note=75 velocity=0 time=120
note_on channel=0 note=55 velocity=87 time=0
note_on channel=0 note=46 velocity=77 time=0
note_on channel=0 note=51 velocity=77 time=0
note_on channel=0 note=51 velocity=0 time=120
note_on channel=0 note=46 velocity=0 time=0
note_on channel=0 note=55 velocity=0 time=0
note_on channel=0 note=63 velocity=81 time=240
note_on channel=0 note=63 velocity=0 time=0
note_on channel=0 note=70 velocity=87 time=0
note_on channel=0 note=70 velocity=0 time=0
note_on channel=0 note=67 velocity=84 time=0
note_on channel=0 note=67 velocity=0 time=0
note_on channel=0 note=75 velocity=93 time=0
note_on channel=0 note=75 velocity=0 time=120
note_on channel=0 note=57 velocity=87 time=0
note_on channel=0 note=51 velocity=77 time=0
note_on channel=0 note=54 velocity=77 time=0
note_on channel=0 note=45 velocity=77 time=0
note_on channel=0 note=45 velocity=0 time=120
note_on channel=0 note=57 velocity=0 time=0
note_on channel=0 note=51 velocity=0 time=0
note_on channel=0 note=54 velocity=0 time=0
note_on channel=0 note=72 velocity=81 time=240
note_on channel=0 note=72 velocity=0 time=0
note_on channel=0 note=78 velocity=87 time=0
note_on channel=0 note=78 velocity=0 time=0
note_on channel=0 note=75 velocity=84 time=0
note_on channel=0 note=75 velocity=0 time=0
note_on channel=0 note=79 velocity=95 time=0
note_on channel=0 note=46 velocity=77 time=480
note_on channel=0 note=58 velocity=87 time=0
note_on channel=0 note=55 velocity=77 time=0
note_on channel=0 note=51 velocity=77 time=0
note_on channel=0 note=51 velocity=0 time=120
note_on channel=0 note=58 velocity=0 time=0
note_on channel=0 note=55 velocity=0 time=0
note_on channel=0 note=46 velocity=0 time=0
note_on channel=0 note=79 velocity=0 time=120
note_on channel=0 note=75 velocity=85 time=0
note_on channel=0 note=75 velocity=0 time=0
note_on channel=0 note=75 velocity=93 time=0
note_on channel=0 note=75 velocity=0 time=240
note_on channel=0 note=70 velocity=79 time=0
note_on channel=0 note=70 velocity=0 time=180
note_on channel=0 note=70 velocity=88 time=0
note_on channel=0 note=70 velocity=0 time=240
note_on channel=0 note=67 velocity=78 time=0
note_on channel=0 note=67 velocity=0 time=180
note_on channel=0 note=67 velocity=85 time=0
note_on channel=0 note=67 velocity=0 time=0
note_on channel=0 note=63 velocity=77 time=0
note_on channel=0 note=63 velocity=0 time=180
note_on channel=0 note=63 velocity=81 time=0
note_on channel=0 note=63 velocity=0 time=0
note_on channel=0 note=58 velocity=77 time=0
note_on channel=0 note=58 velocity=0 time=180
note_on channel=0 note=58 velocity=81 time=0
note_on channel=0 note=58 velocity=0 time=0
note_on channel=0 note=55 velocity=77 time=0
note_on channel=0 note=55 velocity=0 time=180
note_on channel=0 note=55 velocity=82 time=0
note_on channel=0 note=55 velocity=0 time=0
note_on channel=0 note=51 velocity=77 time=0
note_on channel=0 note=51 velocity=0 time=180
note_on channel=0 note=51 velocity=83 time=0
note_on channel=0 note=51 velocity=0 time=0
note_on channel=0 note=46 velocity=77 time=0
note_on channel=0 note=46 velocity=0 time=180
note_on channel=0 note=46 velocity=92 time=0
note_on channel=0 note=34 velocity=78 time=0
note_on channel=0 note=58 velocity=66 time=0
note_on channel=0 note=62 velocity=78 time=0
note_on channel=0 note=56 velocity=70 time=0
note_on channel=0 note=53 velocity=59 time=0
note_on channel=0 note=53 velocity=0 time=480
note_on channel=0 note=34 velocity=0 time=0
note_on channel=0 note=58 velocity=0 time=0
note_on channel=0 note=46 velocity=0 time=0
note_on channel=0 note=56 velocity=0 time=0
note_on channel=0 note=62 velocity=0 time=0
note_on channel=0 note=58 velocity=70 time=0
note_on channel=0 note=63 velocity=83 time=0
note_on channel=0 note=55 velocity=79 time=0
note_on channel=0 note=39 velocity=67 time=0
note_on channel=0 note=39 velocity=0 time=0
note_on channel=0 note=58 velocity=0 time=0
note_on channel=0 note=63 velocity=0 time=0
note_on channel=0 note=55 velocity=0 time=0
note_on channel=0 note=46 velocity=51 time=0
note_on channel=0 note=45 velocity=51 time=480
note_on channel=0 note=45 velocity=0 time=0
note_on channel=0 note=44 velocity=51 time=0
note_on channel=0 note=44 velocity=0 time=0
note_on channel=0 note=70 velocity=53 time=0
note_on channel=0 note=65 velocity=42 time=0
note_on channel=0 note=68 velocity=42 time=0
note_on channel=0 note=62 velocity=42 time=0
note_on channel=0 note=43 velocity=49 time=0
note_on channel=0 note=43 velocity=0 time=0
note_on channel=0 note=70 velocity=0 time=0
note_on channel=0 note=65 velocity=0 time=0
note_on channel=0 note=68 velocity=0 time=0
note_on channel=0 note=62 velocity=0 time=0
note_on channel=0 note=62 velocity=38 time=0
note_on channel=0 note=65 velocity=38 time=0
note_on channel=0 note=68 velocity=38 time=0
note_on channel=0 note=70 velocity=48 time=0
note_on channel=0 note=41 velocity=49 time=0
note_on channel=0 note=41 velocity=0 time=0
note_on channel=0 note=62 velocity=0 time=0
note_on channel=0 note=65 velocity=0 time=0
note_on channel=0 note=46 velocity=0 time=0
note_on channel=0 note=70 velocity=0 time=0
note_on channel=0 note=68 velocity=0 time=0
note_on channel=0 note=63 velocity=42 time=0
note_on channel=0 note=67 velocity=42 time=0
note_on channel=0 note=72 velocity=53 time=0
note_on channel=0 note=39 velocity=51 time=0
note_on channel=0 note=39 velocity=0 time=293
note_on channel=0 note=72 velocity=0 time=0
note_on channel=0 note=70 velocity=49 time=0
note_on channel=0 note=43 velocity=47 time=0
note_on channel=0 note=43 velocity=0 time=465
note_on channel=0 note=63 velocity=0 time=0
note_on channel=0 note=67 velocity=0 time=0
note_on channel=0 note=70 velocity=0 time=0
note_on channel=0 note=46 velocity=47 time=0
note_on channel=0 note=46 velocity=0 time=0
note_on channel=0 note=34 velocity=51 time=0
note_on channel=0 note=34 velocity=0 time=0
note_on channel=0 note=65 velocity=42 time=0
note_on channel=0 note=68 velocity=42 time=0
note_on channel=0 note=74 velocity=53 time=0
note_on channel=0 note=41 velocity=48 time=0
note_on channel=0 note=41 velocity=0 time=0
note_on channel=0 note=65 velocity=0 time=0
note_on channel=0 note=68 velocity=0 time=0
note_on channel=0 note=74 velocity=0 time=0
note_on channel=0 note=65 velocity=38 time=0
note_on channel=0 note=68 velocity=38 time=0
note_on channel=0 note=74 velocity=48 time=0
note_on channel=0 note=46 velocity=48 time=0
note_on channel=0 note=46 velocity=0 time=0
note_on channel=0 note=65 velocity=0 time=0
note_on channel=0 note=68 velocity=0 time=0
note_on channel=0 note=74 velocity=0 time=0
note_on channel=0 note=67 velocity=42 time=0
note_on channel=0 note=70 velocity=42 time=0
note_on channel=0 note=77 velocity=53 time=0
note_on channel=0 note=39 velocity=67 time=0
note_on channel=0 note=39 velocity=0 time=0
note_on channel=0 note=77 velocity=0 time=0
note_on channel=0 note=75 velocity=49 time=0
note_on channel=0 note=46 velocity=51 time=0
note_on channel=0 note=75 velocity=0 time=460
note_on channel=0 note=67 velocity=0 time=0
note_on channel=0 note=70 velocity=0 time=0
note_on channel=0 note=45 velocity=51 time=0
note_on channel=0 note=45 velocity=0 time=0
note_on channel=0 note=44 velocity=51 time=0
note_on channel=0 note=44 velocity=0 time=0
note_on channel=0 note=62 velocity=42 time=0
note_on channel=0 note=65 velocity=42 time=0
note_on channel=0 note=68 velocity=42 time=0
note_on channel=0 note=70 velocity=53 time=0
note_on channel=0 note=43 velocity=49 time=0
note_on channel=0 note=43 velocity=0 time=0
note_on channel=0 note=62 velocity=0 time=0
note_on channel=0 note=65 velocity=0 time=0
note_on channel=0 note=68 velocity=0 time=0
note_on channel=0 note=70 velocity=0 time=0
note_on channel=0 note=70 velocity=48 time=0
note_on channel=0 note=65 velocity=38 time=0
note_on channel=0 note=68 velocity=38 time=0
note_on channel=0 note=62 velocity=38 time=0
note_on channel=0 note=41 velocity=49 time=0
note_on channel=0 note=41 velocity=0 time=0
note_on channel=0 note=70 velocity=0 time=0
note_on channel=0 note=65 velocity=0 time=0
note_on channel=0 note=46 velocity=0 time=0
note_on channel=0 note=62 velocity=0 time=0
note_on channel=0 note=68 velocity=0 time=0
note_on channel=0 note=63 velocity=42 time=0
note_on channel=0 note=67 velocity=42 time=0
note_on channel=0 note=72 velocity=53 time=0
note_on channel=0 note=39 velocity=51 time=0
note_on channel=0 note=39 velocity=0 time=240
note_on channel=0 note=72 velocity=0 time=0
note_on channel=0 note=70 velocity=49 time=0
note_on channel=0 note=43 velocity=47 time=0
note_on channel=0 note=43 velocity=0 time=460
note_on channel=0 note=63 velocity=0 time=0
note_on channel=0 note=67 velocity=0 time=0
note_on channel=0 note=70 velocity=0 time=0
note_on channel=0 note=46 velocity=47 time=0
note_on channel=0 note=46 velocity=0 time=0
note_on channel=0 note=34 velocity=51 time=0
note_on channel=0 note=34 velocity=0 time=0
note_on channel=0 note=53 velocity=42 time=0
note_on channel=0 note=56 velocity=42 time=0
note_on channel=0 note=62 velocity=53 time=0
note_on channel=0 note=41 velocity=48 time=0
note_on channel=0 note=41 velocity=0 time=0
note_on channel=0 note=53 velocity=0 time=0
note_on channel=0 note=56 velocity=0 time=0
note_on channel=0 note=62 velocity=0 time=0
note_on channel=0 note=53 velocity=38 time=0
note_on channel=0 note=56 velocity=38 time=0
note_on channel=0 note=62 velocity=48 time=0
note_on channel=0 note=46 velocity=48 time=0
note_on channel=0 note=46 velocity=0 time=0
note_on channel=0 note=53 velocity=0 time=0
note_on channel=0 note=56 velocity=0 time=0
note_on channel=0 note=62 velocity=0 time=0
note_on channel=0 note=55 velocity=42 time=0
note_on channel=0 note=58 velocity=42 time=0
note_on channel=0 note=65 velocity=53 time=0
note_on channel=0 note=39 velocity=51 time=0
note_on channel=0 note=39 velocity=0 time=240
note_on channel=0 note=65 velocity=0 time=0
note_on channel=0 note=63 velocity=49 time=0
note_on channel=0 note=43 velocity=47 time=0
note_on channel=0 note=43 velocity=0 time=460
note_on channel=0 note=55 velocity=0 time=0
note_on channel=0 note=58 velocity=0 time=0
note_on channel=0 note=63 velocity=0 time=0
note_on channel=0 note=46 velocity=47 time=0
note_on channel=0 note=46 velocity=0 time=0
note_on channel=0 note=34 velocity=51 time=0
note_on channel=0 note=34 velocity=0 time=0
note_on channel=0 note=53 velocity=42 time=0
note_on channel=0 note=56 velocity=42 time=0
note_on channel=0 note=62 velocity=53 time=0
note_on channel=0 note=41 velocity=48 time=0
note_on channel=0 note=41 velocity=0 time=0
note_on channel=0 note=53 velocity=0 time=0
note_on channel=0 note=56 velocity=0 time=0
note_on channel=0 note=62 velocity=0 time=0
note_on channel=0 note=53 velocity=38 time=0
note_on channel=0 note=56 velocity=38 time=0
note_on channel=0 note=62 velocity=48 time=0
note_on channel=0 note=46 velocity=48 time=0
note_on channel=0 note=46 velocity=0 time=0
note_on channel=0 note=53 velocity=0 time=0
note_on channel=0 note=56 velocity=0 time=0
note_on channel=0 note=62 velocity=0 time=0
note_on channel=0 note=56 velocity=42 time=0
note_on channel=0 note=62 velocity=42 time=0
note_on channel=0 note=65 velocity=53 time=0
note_on channel=0 note=39 velocity=51 time=0
note_on channel=0 note=39 velocity=0 time=0
note_on channel=0 note=43 velocity=47 time=0
note_on channel=0 note=43 velocity=0 time=0
note_on channel=0 note=46 velocity=47 time=0
note_on channel=0 note=46 velocity=0 time=480
note_on channel=0 note=56 velocity=0 time=0
note_on channel=0 note=62 velocity=0 time=0
note_on channel=0 note=65 velocity=0 time=0
note_on channel=0 note=58 velocity=44 time=0
note_on channel=0 note=63 velocity=49 time=0
note_on channel=0 note=51 velocity=40 time=0
note_on channel=0 note=55 velocity=44 time=0
note_on channel=0 note=55 velocity=0 time=0
note_on channel=0 note=58 velocity=0 time=0
note_on channel=0 note=63 velocity=0 time=0
note_on channel=0 note=51 velocity=0 time=0
note_on channel=0 note=64 velocity=69 time=0
note_on channel=0 note=67 velocity=69 time=0
note_on channel=0 note=72 velocity=82 time=0
note_on channel=0 note=60 velocity=70 time=0
note_on channel=0 note=55 velocity=59 time=0
note_on channel=0 note=52 velocity=59 time=0
note_on channel=0 note=48 velocity=59 time=0
note_on channel=0 note=48 velocity=0 time=564
note_on channel=0 note=55 velocity=0 time=0
note_on channel=0 note=67 velocity=0 time=0
note_on channel=0 note=72 velocity=0 time=0
note_on channel=0 note=64 velocity=0 time=0
note_on channel=0 note=52 velocity=0 time=0
note_on channel=0 note=60 velocity=0 time=0
note_on channel=0 note=67 velocity=70 time=120
note_on channel=0 note=67 velocity=0 time=0
note_on channel=0 note=76 velocity=78 time=0
note_on channel=0 note=76 velocity=0 time=360
note_on channel=0 note=72 velocity=70 time=0
note_on channel=0 note=72 velocity=0 time=120
note_on channel=0 note=79 velocity=79 time=0
note_on channel=0 note=79 velocity=0 time=360
note_on channel=0 note=76 velocity=70 time=0
note_on channel=0 note=76 velocity=0 time=120
note_on channel=0 note=84 velocity=79 time=0
note_on channel=0 note=84 velocity=0 time=0
note_on channel=0 note=79 velocity=70 time=0
note_on channel=0 note=79 velocity=0 time=0
note_on channel=0 note=88 velocity=84 time=0
note_on channel=0 note=88 velocity=0 time=99
note_on channel=0 note=88 velocity=84 time=360
note_on channel=0 note=88 velocity=0 time=120
note_on channel=0 note=72 velocity=39 time=0
note_on channel=0 note=76 velocity=46 time=0
note_on channel=0 note=64 velocity=34 time=0
note_on channel=0 note=67 velocity=41 time=0
note_on channel=0 note=67 velocity=0 time=240
note_on channel=0 note=72 velocity=0 time=0
note_on channel=0 note=76 velocity=0 time=0
note_on channel=0 note=64 velocity=0 time=0
note_on channel=0 note=72 velocity=42 time=240
note_on channel=0 note=76 velocity=50 time=0
note_on channel=0 note=67 velocity=41 time=0
note_on channel=0 note=64 velocity=34 time=0
note_on channel=0 note=64 velocity=0 time=0
note_on channel=0 note=72 velocity=0 time=0
note_on channel=0 note=76 velocity=0 time=0
note_on channel=0 note=67 velocity=0 time=0
note_on channel=0 note=74 velocity=46 time=0
note_on channel=0 note=71 velocity=39 time=0
note_on channel=0 note=65 velocity=32 time=0
note_on channel=0 note=68 velocity=38 time=0
note_on channel=0 note=68 velocity=0 time=458
note_on channel=0 note=74 velocity=0 time=0
note_on channel=0 note=71 velocity=0 time=0
note_on channel=0 note=65 velocity=0 time=0
note_on channel=0 note=71 velocity=42 time=0
note_on channel=0 note=74 velocity=50 time=0
note_on channel=0 note=65 velocity=34 time=0
note_on channel=0 note=68 velocity=41 time=0
note_on channel=0 note=68 velocity=0 time=564
note_on channel=0 note=71 velocity=0 time=0
note_on channel=0 note=74 velocity=0 time=0
note_on channel=0 note=65 velocity=0 time=0
note_on channel=0 note=71 velocity=70 time=120
note_on channel=0 note=71 velocity=0 time=0
note_on channel=0 note=77 velocity=78 time=0
note_on channel=0 note=77 velocity=0 time=360
note_on channel=0 note=74 velocity=70 time=0
note_on channel=0 note=74 velocity=0 time=120
note_on channel=0 note=83 velocity=79 time=0
note_on channel=0 note=83 velocity=0 time=360
note_on channel=0 note=77 velocity=70 time=0
note_on channel=0 note=77 velocity=0 time=120
note_on channel=0 note=86 velocity=79 time=0
note_on channel=0 note=86 velocity=0 time=0
note_on channel=0 note=83 velocity=70 time=0
note_on channel=0 note=83 velocity=0 time=0
note_on channel=0 note=89 velocity=84 time=0
note_on channel=0 note=89 velocity=0 time=99
note_on channel=0 note=89 velocity=84 time=360
note_on channel=0 note=89 velocity=0 time=120
note_on channel=0 note=74 velocity=39 time=0
note_on channel=0 note=77 velocity=46 time=0
note_on channel=0 note=65 velocity=34 time=0
note_on channel=0 note=68 velocity=41 time=0
note_on channel=0 note=68 velocity=0 time=63
note_on channel=0 note=74 velocity=0 time=0
note_on channel=0 note=77 velocity=0 time=0
note_on channel=0 note=65 velocity=0 time=0
note_on channel=0 note=74 velocity=42 time=240
note_on channel=0 note=77 velocity=50 time=0
note_on channel=0 note=68 velocity=41 time=0
note_on channel=0 note=65 velocity=34 time=0
note_on channel=0 note=65 velocity=0 time=0
note_on channel=0 note=74 velocity=0 time=0
note_on channel=0 note=77 velocity=0 time=0
note_on channel=0 note=68 velocity=0 time=0
note_on channel=0 note=76 velocity=46 time=0
note_on channel=0 note=73 velocity=39 time=0
note_on channel=0 note=67 velocity=32 time=0
note_on channel=0 note=70 velocity=38 time=0
note_on channel=0 note=70 velocity=0 time=460
note_on channel=0 note=76 velocity=0 time=0
note_on channel=0 note=73 velocity=0 time=0
note_on channel=0 note=67 velocity=0 time=0
note_on channel=0 note=73 velocity=42 time=0
note_on channel=0 note=76 velocity=50 time=0
note_on channel=0 note=67 velocity=34 time=0
note_on channel=0 note=70 velocity=41 time=0
note_on channel=0 note=70 velocity=0 time=564
note_on channel=0 note=73 velocity=0 time=0
note_on channel=0 note=76 velocity=0 time=0
note_on channel=0 note=67 velocity=0 time=0
note_on channel=0 note=70 velocity=70 time=120
note_on channel=0 note=70 velocity=0 time=0
note_on channel=0 note=76 velocity=78 time=0
note_on channel=0 note=76 velocity=0 time=360
note_on channel=0 note=73 velocity=70 time=0
note_on channel=0 note=73 velocity=0 time=120
note_on channel=0 note=79 velocity=84 time=0
note_on channel=0 note=79 velocity=0 time=360
note_on channel=0 note=76 velocity=70 time=0
note_on channel=0 note=76 velocity=0 time=120
note_on channel=0 note=82 velocity=85 time=0
note_on channel=0 note=82 velocity=0 time=0
note_on channel=0 note=79 velocity=70 time=0
note_on channel=0 note=79 velocity=0 time=0
note_on channel=0 note=85 velocity=89 time=0
note_on channel=0 note=85 velocity=0 time=99
note_on channel=0 note=67 velocity=87 time=0
note_on channel=0 note=67 velocity=0 time=120
note_on channel=0 note=82 velocity=86 time=0
note_on channel=0 note=82 velocity=0 time=120
note_on channel=0 note=64 velocity=85 time=0
note_on channel=0 note=64 velocity=0 time=120
note_on channel=0 note=79 velocity=79 time=0
note_on channel=0 note=79 velocity=0 time=120
note_on channel=0 note=65 velocity=42 time=5
note_on channel=0 note=77 velocity=50 time=0
note_on channel=0 note=53 velocity=40 time=0
note_on channel=0 note=53 velocity=0 time=28
note_on channel=0 note=60 velocity=32 time=0
note_on channel=0 note=60 velocity=0 time=5
note_on channel=0 note=56 velocity=34 time=0
note_on channel=0 note=56 velocity=0 time=21
note_on channel=0 note=60 velocity=32 time=0
note_on channel=0 note=60 velocity=0 time=5
note_on channel=0 note=53 velocity=34 time=0
note_on channel=0 note=53 velocity=0 time=21
note_on channel=0 note=60 velocity=32 time=0
note_on channel=0 note=60 velocity=0 time=37
note_on channel=0 note=77 velocity=0 time=0
note_on channel=0 note=65 velocity=0 time=0
note_on channel=0 note=84 velocity=53 time=0
note_on channel=0 note=72 velocity=45 time=0
note_on channel=0 note=53 velocity=40 time=0
note_on channel=0 note=53 velocity=0 time=99
note_on channel=0 note=60 velocity=33 time=0
note_on channel=0 note=60 velocity=0 time=240
note_on channel=0 note=56 velocity=34 time=0
note_on channel=0 note=56 velocity=0 time=240
note_on channel=0 note=60 velocity=32 time=0
note_on channel=0 note=72 velocity=0 time=230
note_on channel=0 note=84 velocity=0 time=0
note_on channel=0 note=60 velocity=0 time=10
note_on channel=0 note=84 velocity=50 time=0
note_on channel=0 note=72 velocity=42 time=0
note_on channel=0 note=53 velocity=35 time=0
note_on channel=0 note=53 velocity=0 time=240
note_on channel=0 note=60 velocity=32 time=0
note_on channel=0 note=72 velocity=0 time=230
note_on channel=0 note=84 velocity=0 time=0
note_on channel=0 note=60 velocity=0 time=0
note_on channel=0 note=84 velocity=54 time=0
note_on channel=0 note=72 velocity=45 time=0
note_on channel=0 note=55 velocity=40 time=0
note_on channel=0 note=55 velocity=0 time=84
note_on channel=0 note=60 velocity=32 time=0
note_on channel=0 note=60 velocity=0 time=240
note_on channel=0 note=72 velocity=0 time=0
note_on channel=0 note=84 velocity=0 time=0
note_on channel=0 note=83 velocity=50 time=0
note_on channel=0 note=71 velocity=42 time=0
note_on channel=0 note=58 velocity=34 time=0
note_on channel=0 note=58 velocity=0 time=84
note_on channel=0 note=60 velocity=32 time=0
note_on channel=0 note=60 velocity=0 time=0
note_on channel=0 note=71 velocity=0 time=0
note_on channel=0 note=83 velocity=0 time=0
note_on channel=0 note=85 velocity=50 time=0
note_on channel=0 note=73 velocity=42 time=0
note_on channel=0 note=55 velocity=37 time=0
note_on channel=0 note=55 velocity=0 time=113
note_on channel=0 note=60 velocity=32 time=0
note_on channel=0 note=60 velocity=0 time=0
note_on channel=0 note=73 velocity=0 time=0
note_on channel=0 note=85 velocity=0 time=0
note_on channel=0 note=72 velocity=42 time=0
note_on channel=0 note=84 velocity=50 time=0
note_on channel=0 note=52 velocity=32 time=0
note_on channel=0 note=52 velocity=0 time=91
note_on channel=0 note=60 velocity=32 time=0
note_on channel=0 note=60 velocity=0 time=240
note_on channel=0 note=84 velocity=0 time=0
note_on channel=0 note=72 velocity=0 time=0
note_on channel=0 note=82 velocity=50 time=0
note_on channel=0 note=70 velocity=42 time=0
note_on channel=0 note=55 velocity=35 time=0
note_on channel=0 note=55 velocity=0 time=240
note_on channel=0 note=60 velocity=32 time=0
note_on channel=0 note=60 velocity=0 time=0
note_on channel=0 note=70 velocity=0 time=0
note_on channel=0 note=82 velocity=0 time=0
note_on channel=0 note=79 velocity=50 time=0
note_on channel=0 note=67 velocity=42 time=0
note_on channel=0 note=52 velocity=37 time=0
note_on channel=0 note=52 velocity=0 time=240
note_on channel=0 note=60 velocity=32 time=0
note_on channel=0 note=60 velocity=0 time=0
note_on channel=0 note=67 velocity=0 time=0
note_on channel=0 note=79 velocity=0 time=0
note_on channel=0 note=76 velocity=56 time=0
note_on channel=0 note=64 velocity=47 time=0
note_on channel=0 note=48 velocity=40 time=0
note_on channel=0 note=48 velocity=0 time=103
note_on channel=0 note=60 velocity=31 time=0
note_on channel=0 note=60 velocity=0 time=240
note_on channel=0 note=52 velocity=36 time=0
note_on channel=0 note=52 velocity=0 time=240
note_on channel=0 note=60 velocity=32 time=0
note_on channel=0 note=60 velocity=0 time=0
note_on channel=0 note=64 velocity=0 time=0
note_on channel=0 note=76 velocity=0 time=0
note_on channel=0 note=67 velocity=50 time=0
note_on channel=0 note=79 velocity=59 time=0
note_on channel=0 note=55 velocity=38 time=0
note_on channel=0 note=55 velocity=0 time=240
note_on channel=0 note=60 velocity=33 time=0
note_on channel=0 note=60 velocity=0 time=0
note_on channel=0 note=79 velocity=0 time=0
note_on channel=0 note=67 velocity=0 time=0
note_on channel=0 note=84 velocity=65 time=0
note_on channel=0 note=72 velocity=55 time=0
note_on channel=0 note=52 velocity=45 time=0
note_on channel=0 note=52 velocity=0 time=23
note_on channel=0 note=60 velocity=35 time=0
note_on channel=0 note=60 velocity=0 time=240
note_on channel=0 note=55 velocity=38 time=0
note_on channel=0 note=55 velocity=0 time=240
note_on channel=0 note=60 velocity=31 time=0
note_on channel=0 note=60 velocity=0 time=0
note_on channel=0 note=72 velocity=0 time=0
note_on channel=0 note=84 velocity=0 time=0
note_on channel=0 note=79 velocity=59 time=0
note_on channel=0 note=67 velocity=50 time=0
note_on channel=0 note=58 velocity=37 time=0
note_on channel=0 note=58 velocity=0 time=240
note_on channel=0 note=60 velocity=31 time=0
note_on channel=0 note=60 velocity=0 time=0
note_on channel=0 note=67 velocity=0 time=0
note_on channel=0 note=79 velocity=0 time=0
note_on channel=0 note=70 velocity=54 time=0
note_on channel=0 note=82 velocity=64 time=0
note_on channel=0 note=53 velocity=45 time=0
note_on channel=0 note=53 velocity=0 time=84
note_on channel=0 note=60 velocity=31 time=0
note_on channel=0 note=60 velocity=0 time=240
note_on channel=0 note=56 velocity=36 time=0
note_on channel=0 note=56 velocity=0 time=240
note_on channel=0 note=60 velocity=31 time=0
note_on channel=0 note=60 velocity=0 time=0
note_on channel=0 note=53 velocity=36 time=0
note_on channel=0 note=53 velocity=0 time=240
note_on channel=0 note=60 velocity=31 time=0
note_on channel=0 note=60 velocity=0 time=0
note_on channel=0 note=82 velocity=0 time=0
note_on channel=0 note=70 velocity=0 time=0
note_on channel=0 note=80 velocity=58 time=0
note_on channel=0 note=68 velocity=49 time=0
note_on channel=0 note=53 velocity=40 time=0
note_on channel=0 note=53 velocity=0 time=57
note_on channel=0 note=60 velocity=30 time=0
note_on channel=0 note=60 velocity=0 time=240
note_on channel=0 note=68 velocity=0 time=0
note_on channel=0 note=80 velocity=0 time=0
note_on channel=0 note=52 velocity=42 time=0
note_on channel=0 note=52 velocity=0 time=114
note_on channel=0 note=53 velocity=40 time=0
note_on channel=0 note=53 velocity=0 time=240
note_on channel=0 note=69 velocity=48 time=0
note_on channel=0 note=81 velocity=57 time=0
note_on channel=0 note=51 velocity=49 time=0
note_on channel=0 note=51 velocity=0 time=103
note_on channel=0 note=53 velocity=43 time=0
note_on channel=0 note=53 velocity=0 time=0
note_on channel=0 note=81 velocity=0 time=0
note_on channel=0 note=69 velocity=0 time=0
note_on channel=0 note=70 velocity=52 time=0
note_on channel=0 note=82 velocity=62 time=0
note_on channel=0 note=49 velocity=52 time=0
note_on channel=0 note=49 velocity=0 time=28
note_on channel=0 note=53 velocity=38 time=0
note_on channel=0 note=53 velocity=0 time=5
note_on channel=0 note=48 velocity=43 time=0
note_on channel=0 note=48 velocity=0 time=21
note_on channel=0 note=53 velocity=32 time=0
note_on channel=0 note=53 velocity=0 time=5
note_on channel=0 note=49 velocity=38 time=0
note_on channel=0 note=49 velocity=0 time=21
note_on channel=0 note=53 velocity=32 time=0
note_on channel=0 note=53 velocity=0 time=37
note_on channel=0 note=82 velocity=0 time=0
note_on channel=0 note=70 velocity=0 time=0
note_on channel=0 note=89 velocity=66 time=0
note_on channel=0 note=77 velocity=56 time=0
note_on channel=0 note=46 velocity=45 time=0
note_on channel=0 note=46 velocity=0 time=99
note_on channel=0 note=53 velocity=33 time=0
note_on channel=0 note=53 velocity=0 time=240
note_on channel=0 note=48 velocity=34 time=0
note_on channel=0 note=48 velocity=0 time=137
note_on channel=0 note=53 velocity=32 time=0
note_on channel=0 note=77 velocity=0 time=230
note_on channel=0 note=89 velocity=0 time=0
note_on channel=0 note=53 velocity=0 time=10
note_on channel=0 note=89 velocity=62 time=0
note_on channel=0 note=77 velocity=52 time=0
note_on channel=0 note=49 velocity=35 time=0
note_on channel=0 note=49 velocity=0 time=125
note_on channel=0 note=53 velocity=32 time=0
note_on channel=0 note=77 velocity=0 time=230
note_on channel=0 note=89 velocity=0 time=0
note_on channel=0 note=53 velocity=0 time=0
note_on channel=0 note=89 velocity=68 time=0
note_on channel=0 note=77 velocity=57 time=0
note_on channel=0 note=48 velocity=46 time=0
note_on channel=0 note=48 velocity=0 time=84
note_on channel=0 note=53 velocity=32 time=0
note_on channel=0 note=53 velocity=0 time=240
note_on channel=0 note=77 velocity=0 time=0
note_on channel=0 note=89 velocity=0 time=0
note_on channel=0 note=88 velocity=62 time=0
note_on channel=0 note=76 velocity=52 time=0
note_on channel=0 note=51 velocity=34 time=0
note_on channel=0 note=51 velocity=0 time=84
note_on channel=0 note=53 velocity=32 time=0
note_on channel=0 note=53 velocity=0 time=0
note_on channel=0 note=76 velocity=0 time=0
note_on channel=0 note=88 velocity=0 time=0
note_on channel=0 note=90 velocity=62 time=0
note_on channel=0 note=78 velocity=52 time=0
note_on channel=0 note=48 velocity=37 time=0
note_on channel=0 note=48 velocity=0 time=113
note_on channel=0 note=53 velocity=32 time=0
note_on channel=0 note=53 velocity=0 time=0
note_on channel=0 note=78 velocity=0 time=0
note_on channel=0 note=90 velocity=0 time=0
note_on channel=0 note=77 velocity=52 time=0
note_on channel=0 note=89 velocity=62 time=0
note_on channel=0 note=45 velocity=40 time=0
note_on channel=0 note=45 velocity=0 time=91
note_on channel=0 note=53 velocity=32 time=0
note_on channel=0 note=53 velocity=0 time=240
note_on channel=0 note=89 velocity=0 time=0
note_on channel=0 note=77 velocity=0 time=0
note_on channel=0 note=87 velocity=62 time=0
note_on channel=0 note=75 velocity=52 time=0
note_on channel=0 note=48 velocity=35 time=0
note_on channel=0 note=48 velocity=0 time=240
note_on channel=0 note=53 velocity=32 time=0
note_on channel=0 note=53 velocity=0 time=0
note_on channel=0 note=75 velocity=0 time=0
note_on channel=0 note=87 velocity=0 time=0
note_on channel=0 note=84 velocity=62 time=0
note_on channel=0 note=72 velocity=52 time=0
note_on channel=0 note=45 velocity=37 time=0
note_on channel=0 note=45 velocity=0 time=240
note_on channel=0 note=53 velocity=32 time=0
note_on channel=0 note=53 velocity=0 time=0
note_on channel=0 note=72 velocity=0 time=0
note_on channel=0 note=84 velocity=0 time=0
note_on channel=0 note=81 velocity=70 time=0
note_on channel=0 note=69 velocity=59 time=0
note_on channel=0 note=41 velocity=40 time=0
note_on channel=0 note=41 velocity=0 time=103
note_on channel=0 note=53 velocity=31 time=0
note_on channel=0 note=53 velocity=0 time=240
note_on channel=0 note=45 velocity=45 time=0
note_on channel=0 note=45 velocity=0 time=240
note_on channel=0 note=53 velocity=37 time=0
note_on channel=0 note=53 velocity=0 time=0
note_on channel=0 note=69 velocity=0 time=0
note_on channel=0 note=81 velocity=0 time=0
note_on channel=0 note=72 velocity=61 time=0
note_on channel=0 note=84 velocity=73 time=0
note_on channel=0 note=48 velocity=46 time=0
note_on channel=0 note=48 velocity=0 time=240
note_on channel=0 note=53 velocity=39 time=0
note_on channel=0 note=53 velocity=0 time=0
note_on channel=0 note=84 velocity=0 time=0
note_on channel=0 note=72 velocity=0 time=0
note_on channel=0 note=89 velocity=81 time=0
note_on channel=0 note=77 velocity=68 time=0
note_on channel=0 note=45 velocity=51 time=0
note_on channel=0 note=45 velocity=0 time=23
note_on channel=0 note=53 velocity=44 time=0
note_on channel=0 note=53 velocity=0 time=240
note_on channel=0 note=48 velocity=38 time=0
note_on channel=0 note=48 velocity=0 time=240
note_on channel=0 note=53 velocity=31 time=0
note_on channel=0 note=53 velocity=0 time=0
note_on channel=0 note=77 velocity=0 time=0
note_on channel=0 note=89 velocity=0 time=0
note_on channel=0 note=84 velocity=73 time=0
note_on channel=0 note=72 velocity=61 time=0
note_on channel=0 note=51 velocity=37 time=0
note_on channel=0 note=51 velocity=0 time=240
note_on channel=0 note=53 velocity=31 time=0
note_on channel=0 note=53 velocity=0 time=0
note_on channel=0 note=72 velocity=0 time=0
note_on channel=0 note=84 velocity=0 time=0
note_on channel=0 note=75 velocity=68 time=0
note_on channel=0 note=87 velocity=80 time=0
note_on channel=0 note=46 velocity=45 time=0
note_on channel=0 note=46 velocity=0 time=84
note_on channel=0 note=53 velocity=31 time=0
note_on channel=0 note=53 velocity=0 time=240
note_on channel=0 note=49 velocity=36 time=0
note_on channel=0 note=49 velocity=0 time=240
note_on channel=0 note=53 velocity=31 time=0
note_on channel=0 note=53 velocity=0 time=0
note_on channel=0 note=46 velocity=36 time=0
note_on channel=0 note=46 velocity=0 time=240
note_on channel=0 note=53 velocity=31 time=0
note_on channel=0 note=53 velocity=0 time=0
note_on channel=0 note=87 velocity=0 time=0
note_on channel=0 note=75 velocity=0 time=0
note_on channel=0 note=85 velocity=72 time=0
note_on channel=0 note=73 velocity=61 time=0
note_on channel=0 note=46 velocity=40 time=0
note_on channel=0 note=46 velocity=0 time=57
note_on channel=0 note=53 velocity=30 time=0
note_on channel=0 note=53 velocity=0 time=240
note_on channel=0 note=73 velocity=0 time=0
note_on channel=0 note=85 velocity=0 time=0
note_on channel=0 note=49 velocity=33 time=0
note_on channel=0 note=49 velocity=0 time=114
note_on channel=0 note=53 velocity=30 time=0
note_on channel=0 note=53 velocity=0 time=240
note_on channel=0 note=73 velocity=61 time=0
note_on channel=0 note=46 velocity=33 time=0
note_on channel=0 note=46 velocity=0 time=240
note_on channel=0 note=53 velocity=30 time=0
note_on channel=0 note=53 velocity=0 time=240
note_on channel=0 note=73 velocity=0 time=0
note_on channel=0 note=72 velocity=67 time=0
note_on channel=0 note=44 velocity=40 time=0
note_on channel=0 note=44 velocity=0 time=0
note_on channel=0 note=54 velocity=32 time=0
note_on channel=0 note=54 velocity=0 time=240
note_on channel=0 note=51 velocity=48 time=0
note_on channel=0 note=51 velocity=0 time=240
note_on channel=0 note=54 velocity=40 time=0
note_on channel=0 note=54 velocity=0 time=240
note_on channel=0 note=72 velocity=0 time=0
note_on channel=0 note=75 velocity=61 time=0
note_on channel=0 note=44 velocity=51 time=0
note_on channel=0 note=75 velocity=0 time=120
note_on channel=0 note=77 velocity=57 time=0
note_on channel=0 note=77 velocity=0 time=80
note_on channel=0 note=75 velocity=61 time=0
note_on channel=0 note=44 velocity=0 time=0
note_on channel=0 note=54 velocity=46 time=0
note_on channel=0 note=75 velocity=0 time=40
note_on channel=0 note=74 velocity=65 time=0
note_on channel=0 note=74 velocity=0 time=80
note_on channel=0 note=75 velocity=69 time=0
note_on channel=0 note=75 velocity=0 time=0
note_on channel=0 note=54 velocity=0 time=0
note_on channel=0 note=80 velocity=74 time=0
note_on channel=0 note=44 velocity=52 time=0
note_on channel=0 note=44 velocity=0 time=80
note_on channel=0 note=54 velocity=40 time=0
note_on channel=0 note=54 velocity=0 time=240
note_on channel=0 note=48 velocity=40 time=0
note_on channel=0 note=48 velocity=0 time=240
note_on channel=0 note=54 velocity=35 time=0
note_on channel=0 note=54 velocity=0 time=240
note_on channel=0 note=80 velocity=0 time=0
note_on channel=0 note=75 velocity=66 time=0
note_on channel=0 note=44 velocity=40 time=0
note_on channel=0 note=44 velocity=0 time=0
note_on channel=0 note=54 velocity=34 time=0
note_on channel=0 note=54 velocity=0 time=0
note_on channel=0 note=75 velocity=0 time=0
note_on channel=0 note=77 velocity=70 time=0
note_on channel=0 note=49 velocity=40 time=0
note_on channel=0 note=53 velocity=40 time=0
note_on channel=0 note=53 velocity=0 time=411
note_on channel=0 note=49 velocity=0 time=0
note_on channel=0 note=77 velocity=0 time=0
note_on channel=0 note=76 velocity=61 time=0
note_on channel=0 note=76 velocity=0 time=0
note_on channel=0 note=78 velocity=61 time=0
note_on channel=0 note=78 velocity=0 time=0
note_on channel=0 note=77 velocity=70 time=0
note_on channel=0 note=68 velocity=45 time=0
note_on channel=0 note=68 velocity=0 time=480
note_on channel=0 note=77 velocity=0 time=0
note_on channel=0 note=75 velocity=61 time=0
note_on channel=0 note=66 velocity=38 time=0
note_on channel=0 note=66 velocity=0 time=0
note_on channel=0 note=75 velocity=0 time=0
note_on channel=0 note=72 velocity=61 time=0
note_on channel=0 note=63 velocity=38 time=0
note_on channel=0 note=63 velocity=0 time=0
note_on channel=0 note=72 velocity=0 time=0
note_on channel=0 note=80 velocity=70 time=0
note_on channel=0 note=65 velocity=45 time=0
note_on channel=0 note=65 velocity=0 time=480
note_on channel=0 note=80 velocity=0 time=0
note_on channel=0 note=79 velocity=61 time=0
note_on channel=0 note=64 velocity=38 time=0
note_on channel=0 note=64 velocity=0 time=0
note_on channel=0 note=79 velocity=0 time=0
note_on channel=0 note=82 velocity=61 time=0
note_on channel=0 note=66 velocity=38 time=0
note_on channel=0 note=66 velocity=0 time=0
note_on channel=0 note=82 velocity=0 time=0
note_on channel=0 note=80 velocity=70 time=0
note_on channel=0 note=65 velocity=45 time=0
note_on channel=0 note=65 velocity=0 time=480
note_on channel=0 note=80 velocity=0 time=0
note_on channel=0 note=78 velocity=61 time=0
note_on channel=0 note=63 velocity=38 time=0
note_on channel=0 note=63 velocity=0 time=0
note_on channel=0 note=78 velocity=0 time=0
note_on channel=0 note=75 velocity=61 time=0
note_on channel=0 note=60 velocity=38 time=0
note_on channel=0 note=60 velocity=0 time=0
note_on channel=0 note=75 velocity=0 time=0
note_on channel=0 note=77 velocity=70 time=0
note_on channel=0 note=61 velocity=45 time=0
note_on channel=0 note=61 velocity=0 time=480
note_on channel=0 note=77 velocity=0 time=0
note_on channel=0 note=76 velocity=61 time=0
note_on channel=0 note=60 velocity=38 time=0
note_on channel=0 note=60 velocity=0 time=0
note_on channel=0 note=76 velocity=0 time=0
note_on channel=0 note=78 velocity=61 time=0
note_on channel=0 note=63 velocity=38 time=0
note_on channel=0 note=63 velocity=0 time=0
note_on channel=0 note=78 velocity=0 time=0
note_on channel=0 note=77 velocity=70 time=0
note_on channel=0 note=61 velocity=45 time=0
note_on channel=0 note=61 velocity=0 time=480
note_on channel=0 note=77 velocity=0 time=0
note_on channel=0 note=75 velocity=61 time=0
note_on channel=0 note=60 velocity=38 time=0
note_on channel=0 note=60 velocity=0 time=0
note_on channel=0 note=75 velocity=0 time=0
note_on channel=0 note=72 velocity=61 time=0
note_on channel=0 note=57 velocity=38 time=0
note_on channel=0 note=57 velocity=0 time=0
note_on channel=0 note=72 velocity=0 time=0
note_on channel=0 note=73 velocity=66 time=0
note_on channel=0 note=58 velocity=45 time=0
note_on channel=0 note=58 velocity=0 time=0
note_on channel=0 note=61 velocity=37 time=0
note_on channel=0 note=61 velocity=0 time=480
note_on channel=0 note=56 velocity=37 time=0
note_on channel=0 note=56 velocity=0 time=0
note_on channel=0 note=73 velocity=0 time=0
note_on channel=0 note=82 velocity=71 time=0
note_on channel=0 note=73 velocity=57 time=0
note_on channel=0 note=55 velocity=45 time=0
note_on channel=0 note=55 velocity=0 time=80
note_on channel=0 note=58 velocity=43 time=0
note_on channel=0 note=73 velocity=0 time=470
note_on channel=0 note=82 velocity=0 time=0
note_on channel=0 note=58 velocity=0 time=0
note_on channel=0 note=82 velocity=74 time=0
note_on channel=0 note=73 velocity=60 time=0
note_on channel=0 note=53 velocity=48 time=0
note_on channel=0 note=73 velocity=0 time=458
note_on channel=0 note=82 velocity=0 time=0
note_on channel=0 note=53 velocity=0 time=0
note_on channel=0 note=82 velocity=78 time=0
note_on channel=0 note=72 velocity=63 time=0
note_on channel=0 note=52 velocity=53 time=0
note_on channel=0 note=52 velocity=0 time=228
note_on channel=0 note=55 velocity=44 time=0
note_on channel=0 note=55 velocity=0 time=0
note_on channel=0 note=50 velocity=44 time=0
note_on channel=0 note=50 velocity=0 time=0
note_on channel=0 note=48 velocity=52 time=0
note_on channel=0 note=48 velocity=0 time=480
note_on channel=0 note=50 velocity=44 time=0
note_on channel=0 note=50 velocity=0 time=0
note_on channel=0 note=72 velocity=0 time=0
note_on channel=0 note=82 velocity=0 time=0
note_on channel=0 note=67 velocity=61 time=0
note_on channel=0 note=70 velocity=72 time=0
note_on channel=0 note=52 velocity=44 time=0
note_on channel=0 note=52 velocity=0 time=0
note_on channel=0 note=70 velocity=0 time=0
note_on channel=0 note=67 velocity=0 time=0
note_on channel=0 note=65 velocity=58 time=0
note_on channel=0 note=68 velocity=69 time=0
note_on channel=0 note=53 velocity=53 time=0
note_on channel=0 note=53 velocity=0 time=240
note_on channel=0 note=56 velocity=45 time=0
note_on channel=0 note=56 velocity=0 time=480
note_on channel=0 note=51 velocity=45 time=0
note_on channel=0 note=51 velocity=0 time=0
note_on channel=0 note=68 velocity=0 time=0
note_on channel=0 note=65 velocity=0 time=0
note_on channel=0 note=80 velocity=78 time=0
note_on channel=0 note=77 velocity=62 time=0
note_on channel=0 note=50 velocity=45 time=0
note_on channel=0 note=50 velocity=0 time=80
note_on channel=0 note=53 velocity=43 time=0
note_on channel=0 note=77 velocity=0 time=470
note_on channel=0 note=80 velocity=0 time=0
note_on channel=0 note=53 velocity=0 time=0
note_on channel=0 note=77 velocity=66 time=0
note_on channel=0 note=80 velocity=81 time=0
note_on channel=0 note=48 velocity=48 time=0
note_on channel=0 note=48 velocity=0 time=0
note_on channel=0 note=80 velocity=0 time=0
note_on channel=0 note=77 velocity=0 time=0
note_on channel=0 note=79 velocity=85 time=0
note_on channel=0 note=77 velocity=69 time=0
note_on channel=0 note=47 velocity=56 time=0
note_on channel=0 note=47 velocity=0 time=228
note_on channel=0 note=50 velocity=46 time=0
note_on channel=0 note=50 velocity=0 time=0
note_on channel=0 note=45 velocity=46 time=0
note_on channel=0 note=45 velocity=0 time=0
note_on channel=0 note=43 velocity=55 time=0
note_on channel=0 note=43 velocity=0 time=480
note_on channel=0 note=45 velocity=48 time=0
note_on channel=0 note=45 velocity=0 time=0
note_on channel=0 note=77 velocity=0 time=0
note_on channel=0 note=79 velocity=0 time=0
note_on channel=0 note=62 velocity=61 time=0
note_on channel=0 note=65 velocity=72 time=0
note_on channel=0 note=47 velocity=48 time=0
note_on channel=0 note=47 velocity=0 time=0
note_on channel=0 note=65 velocity=0 time=0
note_on channel=0 note=62 velocity=0 time=0
note_on channel=0 note=60 velocity=58 time=0
note_on channel=0 note=63 velocity=69 time=0
note_on channel=0 note=48 velocity=62 time=0
note_on channel=0 note=48 velocity=0 time=240
note_on channel=0 note=63 velocity=0 time=0
note_on channel=0 note=60 velocity=0 time=0
note_on channel=0 note=51 velocity=52 time=0
note_on channel=0 note=51 velocity=0 time=480
note_on channel=0 note=46 velocity=52 time=0
note_on channel=0 note=46 velocity=0 time=0
note_on channel=0 note=72 velocity=72 time=0
note_on channel=0 note=84 velocity=85 time=0
note_on channel=0 note=75 velocity=72 time=0
note_on channel=0 note=44 velocity=61 time=0
note_on channel=0 note=44 velocity=0 time=80
note_on channel=0 note=48 velocity=53 time=0
note_on channel=0 note=72 velocity=0 time=470
note_on channel=0 note=75 velocity=0 time=0
note_on channel=0 note=84 velocity=0 time=0
note_on channel=0 note=48 velocity=0 time=0
note_on channel=0 note=72 velocity=71 time=0
note_on channel=0 note=75 velocity=71 time=0
note_on channel=0 note=84 velocity=84 time=0
note_on channel=0 note=43 velocity=53 time=0
note_on channel=0 note=84 velocity=0 time=458
note_on channel=0 note=72 velocity=0 time=0
note_on channel=0 note=75 velocity=0 time=0
note_on channel=0 note=43 velocity=0 time=0
note_on channel=0 note=72 velocity=76 time=0
note_on channel=0 note=84 velocity=90 time=0
note_on channel=0 note=80 velocity=76 time=0
note_on channel=0 note=41 velocity=61 time=0
note_on channel=0 note=41 velocity=0 time=228
note_on channel=0 note=44 velocity=53 time=0
note_on channel=0 note=44 velocity=0 time=0
note_on channel=0 note=39 velocity=53 time=0
note_on channel=0 note=39 velocity=0 time=0
note_on channel=0 note=72 velocity=0 time=0
note_on channel=0 note=84 velocity=0 time=0
note_on channel=0 note=80 velocity=0 time=0
note_on channel=0 note=77 velocity=82 time=0
note_on channel=0 note=89 velocity=97 time=0
note_on channel=0 note=80 velocity=82 time=0
note_on channel=0 note=38 velocity=70 time=0
note_on channel=0 note=38 velocity=0 time=80
note_on channel=0 note=41 velocity=60 time=0
note_on channel=0 note=77 velocity=0 time=470
note_on channel=0 note=80 velocity=0 time=0
note_on channel=0 note=89 velocity=0 time=0
note_on channel=0 note=41 velocity=0 time=0
note_on channel=0 note=77 velocity=81 time=0
note_on channel=0 note=80 velocity=81 time=0
note_on channel=0 note=89 velocity=96 time=0
note_on channel=0 note=36 velocity=60 time=0
note_on channel=0 note=89 velocity=0 time=458
note_on channel=0 note=77 velocity=0 time=0
note_on channel=0 note=80 velocity=0 time=0
note_on channel=0 note=36 velocity=0 time=0
note_on channel=0 note=79 velocity=87 time=0
note_on channel=0 note=77 velocity=87 time=0
note_on channel=0 note=89 velocity=103 time=0
note_on channel=0 note=86 velocity=87 time=0
note_on channel=0 note=35 velocity=70 time=0
note_on channel=0 note=35 velocity=0 time=228
note_on channel=0 note=38 velocity=60 time=0
note_on channel=0 note=38 velocity=0 time=0
note_on channel=0 note=33 velocity=60 time=0
note_on channel=0 note=33 velocity=0 time=468
note_on channel=0 note=31 velocity=66 time=0
note_on channel=0 note=31 velocity=0 time=480
note_on channel=0 note=33 velocity=57 time=0
note_on channel=0 note=33 velocity=0 time=0
note_on channel=0 note=89 velocity=0 time=0
note_on channel=0 note=79 velocity=0 time=0
note_on channel=0 note=77 velocity=0 time=0
note_on channel=0 note=86 velocity=0 time=0
note_on channel=0 note=74 velocity=67 time=0
note_on channel=0 note=77 velocity=79 time=0
note_on channel=0 note=35 velocity=57 time=0
note_on channel=0 note=35 velocity=0 time=0
note_on channel=0 note=77 velocity=0 time=0
note_on channel=0 note=74 velocity=0 time=0
note_on channel=0 note=72 velocity=72 time=0
note_on channel=0 note=75 velocity=85 time=0
note_on channel=0 note=36 velocity=62 time=0
note_on channel=0 note=36 velocity=0 time=480
note_on channel=0 note=38 velocity=57 time=0
note_on channel=0 note=38 velocity=0 time=0
note_on channel=0 note=75 velocity=0 time=0
note_on channel=0 note=72 velocity=0 time=0
note_on channel=0 note=67 velocity=64 time=0
note_on channel=0 note=75 velocity=76 time=0
note_on channel=0 note=39 velocity=62 time=0
note_on channel=0 note=39 velocity=0 time=0
note_on channel=0 note=68 velocity=80 time=0
note_on channel=0 note=41 velocity=57 time=0
note_on channel=0 note=75 velocity=0 time=480
note_on channel=0 note=67 velocity=0 time=0
note_on channel=0 note=65 velocity=62 time=0
note_on channel=0 note=74 velocity=74 time=0
note_on channel=0 note=74 velocity=0 time=0
note_on channel=0 note=41 velocity=0 time=0
note_on channel=0 note=68 velocity=0 time=0
note_on channel=0 note=65 velocity=0 time=0
note_on channel=0 note=63 velocity=60 time=0
note_on channel=0 note=69 velocity=60 time=0
note_on channel=0 note=72 velocity=71 time=0
note_on channel=0 note=42 velocity=50 time=0
note_on channel=0 note=42 velocity=0 time=0
note_on channel=0 note=63 velocity=0 time=0
note_on channel=0 note=69 velocity=0 time=0
note_on channel=0 note=72 velocity=0 time=0
note_on channel=0 note=62 velocity=64 time=0
note_on channel=0 note=67 velocity=64 time=0
note_on channel=0 note=71 velocity=76 time=0
note_on channel=0 note=43 velocity=57 time=0
note_on channel=0 note=43 velocity=0 time=240
note_on channel=0 note=62 velocity=0 time=240
note_on channel=0 note=67 velocity=0 time=0
note_on channel=0 note=71 velocity=0 time=0
note_on channel=0 note=55 velocity=54 time=0
note_on channel=0 note=55 velocity=0 time=0
note_on channel=0 note=71 velocity=48 time=0
note_on channel=0 note=74 velocity=48 time=0
note_on channel=0 note=79 velocity=57 time=0
note_on channel=0 note=79 velocity=0 time=0
note_on channel=0 note=74 velocity=0 time=0
note_on channel=0 note=71 velocity=0 time=0
note_on channel=0 note=68 velocity=51 time=0
note_on channel=0 note=72 velocity=51 time=0
note_on channel=0 note=77 velocity=60 time=0
note_on channel=0 note=77 velocity=0 time=480
note_on channel=0 note=72 velocity=0 time=0
note_on channel=0 note=68 velocity=0 time=0
note_on channel=0 note=55 velocity=45 time=0
note_on channel=0 note=55 velocity=0 time=0
note_on channel=0 note=67 velocity=47 time=0
note_on channel=0 note=70 velocity=47 time=0
note_on channel=0 note=75 velocity=56 time=0
note_on channel=0 note=75 velocity=0 time=0
note_on channel=0 note=70 velocity=0 time=0
note_on channel=0 note=67 velocity=0 time=0
note_on channel=0 note=65 velocity=51 time=0
note_on channel=0 note=68 velocity=51 time=0
note_on channel=0 note=74 velocity=60 time=0
note_on channel=0 note=74 velocity=0 time=480
note_on channel=0 note=68 velocity=0 time=0
note_on channel=0 note=65 velocity=0 time=0
note_on channel=0 note=55 velocity=46 time=0
note_on channel=0 note=55 velocity=0 time=0
note_on channel=0 note=63 velocity=48 time=0
note_on channel=0 note=67 velocity=48 time=0
note_on channel=0 note=72 velocity=57 time=0
note_on channel=0 note=72 velocity=0 time=0
note_on channel=0 note=67 velocity=0 time=0
note_on channel=0 note=63 velocity=0 time=0
note_on channel=0 note=62 velocity=51 time=0
note_on channel=0 note=65 velocity=51 time=0
note_on channel=0 note=71 velocity=60 time=0
note_on channel=0 note=71 velocity=0 time=480
note_on channel=0 note=65 velocity=0 time=0
note_on channel=0 note=62 velocity=0 time=0
note_on channel=0 note=55 velocity=47 time=0
note_on channel=0 note=55 velocity=0 time=0
note_on channel=0 note=60 velocity=45 time=0
note_on channel=0 note=63 velocity=45 time=0
note_on channel=0 note=68 velocity=54 time=0
note_on channel=0 note=68 velocity=0 time=0
note_on channel=0 note=63 velocity=0 time=0
note_on channel=0 note=60 velocity=0 time=0
note_on channel=0 note=59 velocity=51 time=0
note_on channel=0 note=62 velocity=51 time=0
note_on channel=0 note=67 velocity=60 time=0
note_on channel=0 note=67 velocity=0 time=480
note_on channel=0 note=62 velocity=0 time=0
note_on channel=0 note=59 velocity=0 time=0
note_on channel=0 note=43 velocity=47 time=0
note_on channel=0 note=43 velocity=0 time=0
note_on channel=0 note=71 velocity=43 time=0
note_on channel=0 note=74 velocity=43 time=0
note_on channel=0 note=79 velocity=51 time=0
note_on channel=0 note=79 velocity=0 time=0
note_on channel=0 note=74 velocity=0 time=0
note_on channel=0 note=71 velocity=0 time=0
note_on channel=0 note=68 velocity=45 time=0
note_on channel=0 note=72 velocity=45 time=0
note_on channel=0 note=77 velocity=53 time=0
note_on channel=0 note=77 velocity=0 time=480
note_on channel=0 note=72 velocity=0 time=0
note_on channel=0 note=68 velocity=0 time=0
note_on channel=0 note=43 velocity=39 time=0
note_on channel=0 note=43 velocity=0 time=0
note_on channel=0 note=67 velocity=40 time=0
note_on channel=0 note=70 velocity=40 time=0
note_on channel=0 note=75 velocity=48 time=0
note_on channel=0 note=75 velocity=0 time=0
note_on channel=0 note=70 velocity=0 time=0
note_on channel=0 note=67 velocity=0 time=0
note_on channel=0 note=65 velocity=43 time=0
note_on channel=0 note=68 velocity=43 time=0
note_on channel=0 note=74 velocity=51 time=0
note_on channel=0 note=74 velocity=0 time=480
note_on channel=0 note=68 velocity=0 time=0
note_on channel=0 note=65 velocity=0 time=0
note_on channel=0 note=43 velocity=38 time=0
note_on channel=0 note=43 velocity=0 time=0
note_on channel=0 note=63 velocity=39 time=0
note_on channel=0 note=67 velocity=39 time=0
note_on channel=0 note=72 velocity=47 time=0
note_on channel=0 note=72 velocity=0 time=0
note_on channel=0 note=67 velocity=0 time=0
note_on channel=0 note=63 velocity=0 time=0
note_on channel=0 note=62 velocity=41 time=0
note_on channel=0 note=65 velocity=41 time=0
note_on channel=0 note=71 velocity=49 time=0
note_on channel=0 note=71 velocity=0 time=480
note_on channel=0 note=65 velocity=0 time=0
note_on channel=0 note=62 velocity=0 time=0
note_on channel=0 note=43 velocity=37 time=0
note_on channel=0 note=43 velocity=0 time=0
note_on channel=0 note=60 velocity=35 time=0
note_on channel=0 note=63 velocity=35 time=0
note_on channel=0 note=68 velocity=42 time=0
note_on channel=0 note=68 velocity=0 time=0
note_on channel=0 note=63 velocity=0 time=0
note_on channel=0 note=60 velocity=0 time=0
note_on channel=0 note=59 velocity=39 time=0
note_on channel=0 note=62 velocity=39 time=0
note_on channel=0 note=67 velocity=46 time=0
note_on channel=0 note=67 velocity=0 time=19
note_on channel=0 note=62 velocity=0 time=0
note_on channel=0 note=59 velocity=0 time=0
note_on channel=0 note=31 velocity=36 time=0
note_on channel=0 note=43 velocity=36 time=0
note_on channel=0 note=43 velocity=0 time=51
note_on channel=0 note=31 velocity=0 time=0
note_on channel=0 note=60 velocity=34 time=0
note_on channel=0 note=56 velocity=34 time=0
note_on channel=0 note=65 velocity=41 time=0
note_on channel=0 note=65 velocity=0 time=83
note_on channel=0 note=56 velocity=0 time=0
note_on channel=0 note=60 velocity=0 time=0
note_on channel=0 note=55 velocity=36 time=0
note_on channel=0 note=60 velocity=36 time=0
note_on channel=0 note=63 velocity=43 time=0
note_on channel=0 note=63 velocity=0 time=0
note_on channel=0 note=60 velocity=0 time=0
note_on channel=0 note=55 velocity=0 time=0
note_on channel=0 note=31 velocity=28 time=0
note_on channel=0 note=43 velocity=33 time=0
note_on channel=0 note=43 velocity=0 time=0
note_on channel=0 note=31 velocity=0 time=0
note_on channel=0 note=53 velocity=32 time=0
note_on channel=0 note=59 velocity=32 time=0
note_on channel=0 note=62 velocity=38 time=0
note_on channel=0 note=62 velocity=0 time=0
note_on channel=0 note=59 velocity=0 time=0
note_on channel=0 note=53 velocity=0 time=0
note_on channel=0 note=51 velocity=69 time=0
note_on channel=0 note=55 velocity=69 time=0
note_on channel=0 note=60 velocity=82 time=0
note_on channel=0 note=48 velocity=70 time=0
note_on channel=0 note=43 velocity=59 time=0
note_on channel=0 note=39 velocity=59 time=0
note_on channel=0 note=36 velocity=59 time=0
note_on channel=0 note=36 velocity=0 time=564
note_on channel=0 note=43 velocity=0 time=0
note_on channel=0 note=55 velocity=0 time=0
note_on channel=0 note=60 velocity=0 time=0
note_on channel=0 note=51 velocity=0 time=0
note_on channel=0 note=39 velocity=0 time=0
note_on channel=0 note=48 velocity=0 time=0
note_on channel=0 note=67 velocity=70 time=120
note_on channel=0 note=67 velocity=0 time=0
note_on channel=0 note=75 velocity=78 time=0
note_on channel=0 note=75 velocity=0 time=360
note_on channel=0 note=72 velocity=70 time=0
note_on channel=0 note=72 velocity=0 time=120
note_on channel=0 note=79 velocity=79 time=0
note_on channel=0 note=79 velocity=0 time=360
note_on channel=0 note=75 velocity=70 time=0
note_on channel=0 note=75 velocity=0 time=120
note_on channel=0 note=84 velocity=79 time=0
note_on channel=0 note=84 velocity=0 time=0
note_on channel=0 note=79 velocity=70 time=0
note_on channel=0 note=79 velocity=0 time=0
note_on channel=0 note=87 velocity=84 time=0
note_on channel=0 note=87 velocity=0 time=99
note_on channel=0 note=87 velocity=84 time=360
note_on channel=0 note=87 velocity=0 time=120
note_on channel=0 note=67 velocity=39 time=0
note_on channel=0 note=72 velocity=46 time=0
note_on channel=0 note=60 velocity=34 time=0
note_on channel=0 note=63 velocity=41 time=0
note_on channel=0 note=63 velocity=0 time=240
note_on channel=0 note=67 velocity=0 time=0
note_on channel=0 note=72 velocity=0 time=0
note_on channel=0 note=60 velocity=0 time=0
note_on channel=0 note=67 velocity=42 time=240
note_on channel=0 note=72 velocity=50 time=0
note_on channel=0 note=63 velocity=41 time=0
note_on channel=0 note=60 velocity=34 time=0
note_on channel=0 note=60 velocity=0 time=0
note_on channel=0 note=67 velocity=0 time=0
note_on channel=0 note=72 velocity=0 time=0
note_on channel=0 note=63 velocity=0 time=0
note_on channel=0 note=67 velocity=39 time=0
note_on channel=0 note=62 velocity=32 time=0
note_on channel=0 note=65 velocity=38 time=0
note_on channel=0 note=71 velocity=46 time=10
note_on channel=0 note=65 velocity=0 time=457
note_on channel=0 note=67 velocity=0 time=0
note_on channel=0 note=62 velocity=0 time=0
note_on channel=0 note=71 velocity=0 time=0
note_on channel=0 note=68 velocity=69 time=0
note_on channel=0 note=65 velocity=69 time=0
note_on channel=0 note=71 velocity=82 time=0
note_on channel=0 note=53 velocity=59 time=0
note_on channel=0 note=59 velocity=59 time=0
note_on channel=0 note=56 velocity=59 time=0
note_on channel=0 note=62 velocity=70 time=0
note_on channel=0 note=50 velocity=59 time=0
note_on channel=0 note=50 velocity=0 time=564
note_on channel=0 note=68 velocity=0 time=0
note_on channel=0 note=59 velocity=0 time=0
note_on channel=0 note=65 velocity=0 time=0
note_on channel=0 note=71 velocity=0 time=0
note_on channel=0 note=53 velocity=0 time=0
note_on channel=0 note=56 velocity=0 time=0
note_on channel=0 note=62 velocity=0 time=0
note_on channel=0 note=71 velocity=70 time=120
note_on channel=0 note=71 velocity=0 time=0
note_on channel=0 note=77 velocity=78 time=0
note_on channel=0 note=77 velocity=0 time=360
note_on channel=0 note=74 velocity=70 time=0
note_on channel=0 note=74 velocity=0 time=120
note_on channel=0 note=83 velocity=79 time=0
note_on channel=0 note=83 velocity=0 time=360
note_on channel=0 note=77 velocity=70 time=0
note_on channel=0 note=77 velocity=0 time=120
note_on channel=0 note=86 velocity=79 time=0
note_on channel=0 note=86 velocity=0 time=0
note_on channel=0 note=83 velocity=70 time=0
note_on channel=0 note=83 velocity=0 time=0
note_on channel=0 note=89 velocity=84 time=0
note_on channel=0 note=89 velocity=0 time=99
note_on channel=0 note=89 velocity=84 time=360
note_on channel=0 note=89 velocity=0 time=120
note_on channel=0 note=71 velocity=39 time=0
note_on channel=0 note=74 velocity=46 time=0
note_on channel=0 note=62 velocity=34 time=0
note_on channel=0 note=68 velocity=41 time=0
note_on channel=0 note=65 velocity=34 time=0
note_on channel=0 note=65 velocity=0 time=240
note_on channel=0 note=62 velocity=0 time=0
note_on channel=0 note=71 velocity=0 time=0
note_on channel=0 note=74 velocity=0 time=0
note_on channel=0 note=68 velocity=0 time=0
note_on channel=0 note=71 velocity=42 time=240
note_on channel=0 note=74 velocity=50 time=0
note_on channel=0 note=68 velocity=41 time=0
note_on channel=0 note=65 velocity=34 time=0
note_on channel=0 note=62 velocity=34 time=0
note_on channel=0 note=62 velocity=0 time=0
note_on channel=0 note=68 velocity=0 time=0
note_on channel=0 note=71 velocity=0 time=0
note_on channel=0 note=74 velocity=0 time=0
note_on channel=0 note=65 velocity=0 time=0
note_on channel=0 note=72 velocity=46 time=0
note_on channel=0 note=67 velocity=38 time=0
note_on channel=0 note=63 velocity=32 time=0
note_on channel=0 note=72 velocity=0 time=0
note_on channel=0 note=72 velocity=45 time=0
note_on channel=0 note=72 velocity=0 time=60
note_on channel=0 note=75 velocity=48 time=0
note_on channel=0 note=75 velocity=0 time=0
note_on channel=0 note=63 velocity=0 time=0
note_on channel=0 note=67 velocity=0 time=0
note_on channel=0 note=79 velocity=53 time=0
note_on channel=0 note=79 velocity=0 time=660
note_on channel=0 note=77 velocity=41 time=0
note_on channel=0 note=77 velocity=0 time=0
note_on channel=0 note=75 velocity=51 time=0
note_on channel=0 note=60 velocity=35 time=0
note_on channel=0 note=55 velocity=29 time=0
note_on channel=0 note=51 velocity=29 time=0
note_on channel=0 note=51 velocity=0 time=0
note_on channel=0 note=75 velocity=0 time=0
note_on channel=0 note=60 velocity=0 time=0
note_on channel=0 note=55 velocity=0 time=0
note_on channel=0 note=74 velocity=47 time=0
note_on channel=0 note=53 velocity=33 time=0
note_on channel=0 note=56 velocity=33 time=0
note_on channel=0 note=59 velocity=39 time=0
note_on channel=0 note=59 velocity=0 time=0
note_on channel=0 note=74 velocity=0 time=0
note_on channel=0 note=53 velocity=0 time=0
note_on channel=0 note=56 velocity=0 time=0
note_on channel=0 note=72 velocity=39 time=0
note_on channel=0 note=60 velocity=34 time=0
note_on channel=0 note=55 velocity=28 time=0
note_on channel=0 note=51 velocity=28 time=0
note_on channel=0 note=72 velocity=0 time=0
note_on channel=0 note=67 velocity=27 time=0
note_on channel=0 note=67 velocity=0 time=40
note_on channel=0 note=72 velocity=45 time=0
note_on channel=0 note=72 velocity=0 time=40
note_on channel=0 note=75 velocity=48 time=0
note_on channel=0 note=75 velocity=0 time=0
note_on channel=0 note=51 velocity=0 time=0
note_on channel=0 note=55 velocity=0 time=0
note_on channel=0 note=60 velocity=0 time=0
note_on channel=0 note=79 velocity=53 time=0
note_on channel=0 note=79 velocity=0 time=660
note_on channel=0 note=77 velocity=41 time=0
note_on channel=0 note=77 velocity=0 time=0
note_on channel=0 note=72 velocity=43 time=0
note_on channel=0 note=75 velocity=51 time=0
note_on channel=0 note=63 velocity=29 time=0
note_on channel=0 note=67 velocity=35 time=0
note_on channel=0 note=67 velocity=0 time=0
note_on channel=0 note=72 velocity=0 time=0
note_on channel=0 note=75 velocity=0 time=0
note_on channel=0 note=63 velocity=0 time=0
note_on channel=0 note=71 velocity=39 time=0
note_on channel=0 note=74 velocity=47 time=0
note_on channel=0 note=68 velocity=39 time=0
note_on channel=0 note=65 velocity=33 time=0
note_on channel=0 note=65 velocity=0 time=720
note_on channel=0 note=71 velocity=0 time=0
note_on channel=0 note=74 velocity=0 time=0
note_on channel=0 note=68 velocity=0 time=0
note_on channel=0 note=72 velocity=39 time=0
note_on channel=0 note=63 velocity=28 time=0
note_on channel=0 note=67 velocity=34 time=0
note_on channel=0 note=72 velocity=0 time=0
note_on channel=0 note=67 velocity=60 time=0
note_on channel=0 note=67 velocity=0 time=40
note_on channel=0 note=72 velocity=63 time=0
note_on channel=0 note=72 velocity=0 time=40
note_on channel=0 note=75 velocity=69 time=0
note_on channel=0 note=75 velocity=0 time=0
note_on channel=0 note=67 velocity=0 time=0
note_on channel=0 note=63 velocity=0 time=0
note_on channel=0 note=67 velocity=69 time=0
note_on channel=0 note=79 velocity=81 time=0
note_on channel=0 note=79 velocity=0 time=660
note_on channel=0 note=67 velocity=0 time=0
note_on channel=0 note=77 velocity=61 time=0
note_on channel=0 note=65 velocity=51 time=0
note_on channel=0 note=65 velocity=0 time=0
note_on channel=0 note=77 velocity=0 time=0
note_on channel=0 note=75 velocity=73 time=0
note_on channel=0 note=63 velocity=62 time=0
note_on channel=0 note=55 velocity=39 time=0
note_on channel=0 note=60 velocity=47 time=0
note_on channel=0 note=51 velocity=39 time=0
note_on channel=0 note=51 velocity=0 time=0
note_on channel=0 note=55 velocity=0 time=0
note_on channel=0 note=60 velocity=0 time=0
note_on channel=0 note=59 velocity=53 time=0
note_on channel=0 note=53 velocity=45 time=0
note_on channel=0 note=56 velocity=45 time=0
note_on channel=0 note=63 velocity=0 time=0
note_on channel=0 note=75 velocity=0 time=0
note_on channel=0 note=74 velocity=72 time=0
note_on channel=0 note=62 velocity=61 time=0
note_on channel=0 note=62 velocity=0 time=90
note_on channel=0 note=74 velocity=0 time=0
note_on channel=0 note=56 velocity=0 time=0
note_on channel=0 note=59 velocity=0 time=0
note_on channel=0 note=53 velocity=0 time=0
note_on channel=0 note=72 velocity=75 time=0
note_on channel=0 note=60 velocity=63 time=0
note_on channel=0 note=55 velocity=46 time=0
note_on channel=0 note=51 velocity=39 time=0
note_on channel=0 note=51 velocity=0 time=0
note_on channel=0 note=55 velocity=0 time=0
note_on channel=0 note=50 velocity=46 time=0
note_on channel=0 note=53 velocity=56 time=0
note_on channel=0 note=60 velocity=0 time=0
note_on channel=0 note=72 velocity=0 time=0
note_on channel=0 note=59 velocity=63 time=0
note_on channel=0 note=71 velocity=75 time=0
note_on channel=0 note=71 velocity=0 time=100
note_on channel=0 note=59 velocity=0 time=0
note_on channel=0 note=50 velocity=0 time=0
note_on channel=0 note=53 velocity=0 time=0
note_on channel=0 note=56 velocity=62 time=0
note_on channel=0 note=68 velocity=74 time=0
note_on channel=0 note=51 velocity=49 time=0
note_on channel=0 note=48 velocity=41 time=0
note_on channel=0 note=48 velocity=0 time=0
note_on channel=0 note=51 velocity=0 time=0
note_on channel=0 note=50 velocity=47 time=0
note_on channel=0 note=47 velocity=56 time=0
note_on channel=0 note=47 velocity=0 time=0
note_on channel=0 note=56 velocity=0 time=0
note_on channel=0 note=68 velocity=0 time=0
note_on channel=0 note=50 velocity=0 time=0
note_on channel=0 note=55 velocity=57 time=0
note_on channel=0 note=67 velocity=67 time=0
note_on channel=0 note=67 velocity=0 time=223
note_on channel=0 note=55 velocity=0 time=0
note_on channel=0 note=59 velocity=42 time=480
note_on channel=0 note=59 velocity=0 time=160
note_on channel=0 note=62 velocity=35 time=0
note_on channel=0 note=62 velocity=0 time=160
note_on channel=0 note=65 velocity=35 time=0
note_on channel=0 note=65 velocity=0 time=2
note_on channel=0 note=68 velocity=43 time=0
note_on channel=0 note=56 velocity=34 time=0
note_on channel=0 note=53 velocity=28 time=0
note_on channel=0 note=50 velocity=28 time=0
note_on channel=0 note=47 velocity=28 time=0
note_on channel=0 note=68 velocity=0 time=18
note_on channel=0 note=67 velocity=36 time=0
note_on channel=0 note=67 velocity=0 time=10
note_on channel=0 note=65 velocity=36 time=0
note_on channel=0 note=65 velocity=0 time=0
note_on channel=0 note=50 velocity=0 time=0
note_on channel=0 note=56 velocity=0 time=0
note_on channel=0 note=53 velocity=0 time=0
note_on channel=0 note=47 velocity=0 time=0
note_on channel=0 note=63 velocity=43 time=0
note_on channel=0 note=55 velocity=34 time=0
note_on channel=0 note=51 velocity=28 time=0
note_on channel=0 note=48 velocity=28 time=0
note_on channel=0 note=48 velocity=0 time=120
note_on channel=0 note=63 velocity=0 time=0
note_on channel=0 note=55 velocity=0 time=0
note_on channel=0 note=51 velocity=0 time=0
note_on channel=0 note=53 velocity=42 time=0
note_on channel=0 note=53 velocity=0 time=160
note_on channel=0 note=56 velocity=35 time=0
note_on channel=0 note=56 velocity=0 time=160
note_on channel=0 note=62 velocity=35 time=0
note_on channel=0 note=62 velocity=0 time=2
note_on channel=0 note=65 velocity=43 time=0
note_on channel=0 note=50 velocity=34 time=0
note_on channel=0 note=44 velocity=28 time=0
note_on channel=0 note=41 velocity=28 time=0
note_on channel=0 note=65 velocity=0 time=18
note_on channel=0 note=63 velocity=36 time=0
note_on channel=0 note=63 velocity=0 time=10
note_on channel=0 note=62 velocity=36 time=0
note_on channel=0 note=62 velocity=0 time=0
note_on channel=0 note=50 velocity=0 time=0
note_on channel=0 note=44 velocity=0 time=0
note_on channel=0 note=41 velocity=0 time=0
note_on channel=0 note=60 velocity=43 time=0
note_on channel=0 note=48 velocity=28 time=0
note_on channel=0 note=43 velocity=28 time=0
note_on channel=0 note=51 velocity=34 time=0
note_on channel=0 note=51 velocity=0 time=120
note_on channel=0 note=60 velocity=0 time=0
note_on channel=0 note=48 velocity=0 time=0
note_on channel=0 note=43 velocity=0 time=0
note_on channel=0 note=55 velocity=66 time=0
note_on channel=0 note=55 velocity=0 time=137
note_on channel=0 note=59 velocity=69 time=0
note_on channel=0 note=59 velocity=0 time=160
note_on channel=0 note=62 velocity=72 time=0
note_on channel=0 note=62 velocity=0 time=2
note_on channel=0 note=65 velocity=75 time=0
note_on channel=0 note=43 velocity=73 time=0
note_on channel=0 note=31 velocity=73 time=0
note_on channel=0 note=65 velocity=0 time=18
note_on channel=0 note=62 velocity=67 time=0
note_on channel=0 note=31 velocity=0 time=2
note_on channel=0 note=43 velocity=0 time=0
note_on channel=0 note=62 velocity=0 time=10
note_on channel=0 note=59 velocity=71 time=0
note_on channel=0 note=59 velocity=0 time=0
note_on channel=0 note=60 velocity=94 time=0
note_on channel=0 note=36 velocity=67 time=0
note_on channel=0 note=48 velocity=80 time=0
note_on channel=0 note=48 velocity=0 time=217
note_on channel=0 note=36 velocity=0 time=0
note_on channel=0 note=60 velocity=0 time=0
note_on channel=0 note=61 velocity=69 time=0
note_on channel=0 note=59 velocity=50 time=0
note_on channel=0 note=65 velocity=50 time=0
note_on channel=0 note=73 velocity=45 time=0
note_on channel=0 note=73 velocity=0 time=0
note_on channel=0 note=65 velocity=0 time=0
note_on channel=0 note=59 velocity=0 time=0
note_on channel=0 note=66 velocity=42 time=0
note_on channel=0 note=73 velocity=50 time=0
note_on channel=0 note=58 velocity=49 time=0
note_on channel=0 note=73 velocity=0 time=480
note_on channel=0 note=73 velocity=45 time=0
note_on channel=0 note=61 velocity=0 time=0
note_on channel=0 note=58 velocity=0 time=0
note_on channel=0 note=66 velocity=0 time=0
note_on channel=0 note=65 velocity=42 time=0
note_on channel=0 note=59 velocity=34 time=0
note_on channel=0 note=56 velocity=28 time=0
note_on channel=0 note=73 velocity=0 time=205
note_on channel=0 note=75 velocity=45 time=0
note_on channel=0 note=75 velocity=0 time=0
note_on channel=0 note=71 velocity=44 time=0
note_on channel=0 note=56 velocity=0 time=0
note_on channel=0 note=65 velocity=0 time=0
note_on channel=0 note=59 velocity=0 time=0
note_on channel=0 note=66 velocity=42 time=0
note_on channel=0 note=54 velocity=28 time=0
note_on channel=0 note=61 velocity=33 time=0
note_on channel=0 note=71 velocity=0 time=0
note_on channel=0 note=69 velocity=45 time=0
note_on channel=0 note=69 velocity=0 time=480
note_on channel=0 note=70 velocity=45 time=0
note_on channel=0 note=70 velocity=0 time=0
note_on channel=0 note=66 velocity=0 time=0
note_on channel=0 note=54 velocity=0 time=0
note_on channel=0 note=61 velocity=0 time=0
note_on channel=0 note=71 velocity=50 time=0
note_on channel=0 note=73 velocity=60 time=0
note_on channel=0 note=77 velocity=50 time=0
note_on channel=0 note=85 velocity=45 time=0
note_on channel=0 note=85 velocity=0 time=0
note_on channel=0 note=77 velocity=0 time=0
note_on channel=0 note=71 velocity=0 time=0
note_on channel=0 note=78 velocity=42 time=0
note_on channel=0 note=85 velocity=50 time=0
note_on channel=0 note=70 velocity=49 time=0
note_on channel=0 note=85 velocity=0 time=480
note_on channel=0 note=85 velocity=45 time=0
note_on channel=0 note=73 velocity=0 time=0
note_on channel=0 note=70 velocity=0 time=0
note_on channel=0 note=78 velocity=0 time=0
note_on channel=0 note=77 velocity=42 time=0
note_on channel=0 note=68 velocity=28 time=0
note_on channel=0 note=71 velocity=34 time=0
note_on channel=0 note=85 velocity=0 time=205
note_on channel=0 note=87 velocity=45 time=0
note_on channel=0 note=87 velocity=0 time=0
note_on channel=0 note=83 velocity=44 time=0
note_on channel=0 note=71 velocity=0 time=0
note_on channel=0 note=77 velocity=0 time=0
note_on channel=0 note=68 velocity=0 time=0
note_on channel=0 note=78 velocity=42 time=0
note_on channel=0 note=66 velocity=28 time=0
note_on channel=0 note=73 velocity=33 time=0
note_on channel=0 note=83 velocity=0 time=0
note_on channel=0 note=81 velocity=45 time=0
note_on channel=0 note=81 velocity=0 time=480
note_on channel=0 note=82 velocity=45 time=0
note_on channel=0 note=82 velocity=0 time=0
note_on channel=0 note=78 velocity=0 time=0
note_on channel=0 note=66 velocity=0 time=0
note_on channel=0 note=73 velocity=0 time=0
note_on channel=0 note=68 velocity=50 time=0
note_on channel=0 note=70 velocity=60 time=0
note_on channel=0 note=74 velocity=50 time=0
note_on channel=0 note=82 velocity=45 time=0
note_on channel=0 note=82 velocity=0 time=0
note_on channel=0 note=74 velocity=0 time=0
note_on channel=0 note=68 velocity=0 time=0
note_on channel=0 note=75 velocity=42 time=0
note_on channel=0 note=82 velocity=50 time=0
note_on channel=0 note=66 velocity=49 time=0
note_on channel=0 note=82 velocity=0 time=480
note_on channel=0 note=82 velocity=45 time=0
note_on channel=0 note=70 velocity=0 time=0
note_on channel=0 note=66 velocity=0 time=0
note_on channel=0 note=75 velocity=0 time=0
note_on channel=0 note=74 velocity=42 time=0
note_on channel=0 note=65 velocity=44 time=0
note_on channel=0 note=68 velocity=44 time=0
note_on channel=0 note=82 velocity=0 time=205
note_on channel=0 note=83 velocity=45 time=0
note_on channel=0 note=83 velocity=0 time=0
note_on channel=0 note=80 velocity=44 time=0
note_on channel=0 note=68 velocity=0 time=0
note_on channel=0 note=74 velocity=0 time=0
note_on channel=0 note=65 velocity=0 time=0
note_on channel=0 note=70 velocity=49 time=0
note_on channel=0 note=63 velocity=28 time=0
note_on channel=0 note=66 velocity=33 time=0
note_on channel=0 note=80 velocity=0 time=0
note_on channel=0 note=77 velocity=52 time=0
note_on channel=0 note=77 velocity=0 time=480
note_on channel=0 note=78 velocity=52 time=0
note_on channel=0 note=66 velocity=0 time=0
note_on channel=0 note=70 velocity=0 time=0
note_on channel=0 note=63 velocity=0 time=0
note_on channel=0 note=71 velocity=50 time=0
note_on channel=0 note=61 velocity=42 time=0
note_on channel=0 note=65 velocity=48 time=0
note_on channel=0 note=78 velocity=0 time=205
note_on channel=0 note=80 velocity=55 time=0
note_on channel=0 note=80 velocity=0 time=0
note_on channel=0 note=77 velocity=50 time=0
note_on channel=0 note=65 velocity=0 time=0
note_on channel=0 note=71 velocity=0 time=0
note_on channel=0 note=61 velocity=0 time=0
note_on channel=0 note=72 velocity=42 time=0
note_on channel=0 note=67 velocity=33 time=0
note_on channel=0 note=60 velocity=28 time=0
note_on channel=0 note=77 velocity=0 time=0
note_on channel=0 note=77 velocity=45 time=0
note_on channel=0 note=77 velocity=0 time=480
note_on channel=0 note=76 velocity=45 time=0
note_on channel=0 note=60 velocity=0 time=0
note_on channel=0 note=72 velocity=0 time=0
note_on channel=0 note=67 velocity=0 time=0
note_on channel=0 note=68 velocity=42 time=0
note_on channel=0 note=59 velocity=33 time=0
note_on channel=0 note=76 velocity=0 time=0
note_on channel=0 note=77 velocity=45 time=0
note_on channel=0 note=77 velocity=0 time=480
note_on channel=0 note=68 velocity=0 time=0
note_on channel=0 note=65 velocity=28 time=0
note_on channel=0 note=68 velocity=33 time=0
note_on channel=0 note=68 velocity=0 time=480
note_on channel=0 note=65 velocity=0 time=0
note_on channel=0 note=59 velocity=0 time=0
note_on channel=0 note=64 velocity=32 time=0
note_on channel=0 note=67 velocity=38 time=0
note_on channel=0 note=60 velocity=42 time=0
note_on channel=0 note=48 velocity=33 time=0
note_on channel=0 note=60 velocity=0 time=0
note_on channel=0 note=64 velocity=0 time=0
note_on channel=0 note=67 velocity=0 time=0
note_on channel=0 note=55 velocity=33 time=0
note_on channel=0 note=55 velocity=0 time=480
note_on channel=0 note=56 velocity=37 time=0
note_on channel=0 note=56 velocity=0 time=480
note_on channel=0 note=58 velocity=41 time=0
note_on channel=0 note=58 velocity=0 time=0
note_on channel=0 note=73 velocity=38 time=0
note_on channel=0 note=53 velocity=33 time=0
note_on channel=0 note=73 velocity=0 time=240
note_on channel=0 note=53 velocity=0 time=0
note_on channel=0 note=73 velocity=38 time=0
note_on channel=0 note=55 velocity=35 time=0
note_on channel=0 note=73 velocity=0 time=240
note_on channel=0 note=55 velocity=0 time=0
note_on channel=0 note=48 velocity=0 time=0
note_on channel=0 note=73 velocity=46 time=0
note_on channel=0 note=48 velocity=42 time=0
note_on channel=0 note=56 velocity=42 time=0
note_on channel=0 note=56 velocity=0 time=480
note_on channel=0 note=73 velocity=0 time=0
note_on channel=0 note=72 velocity=38 time=0
note_on channel=0 note=52 velocity=33 time=0
note_on channel=0 note=52 velocity=0 time=480
note_on channel=0 note=72 velocity=0 time=0
note_on channel=0 note=53 velocity=33 time=0
note_on channel=0 note=53 velocity=0 time=480
note_on channel=0 note=55 velocity=40 time=0
note_on channel=0 note=55 velocity=0 time=0
note_on channel=0 note=70 velocity=38 time=0
note_on channel=0 note=50 velocity=33 time=0
note_on channel=0 note=70 velocity=0 time=240
note_on channel=0 note=50 velocity=0 time=0
note_on channel=0 note=70 velocity=38 time=0
note_on channel=0 note=52 velocity=33 time=0
note_on channel=0 note=70 velocity=0 time=240
note_on channel=0 note=52 velocity=0 time=0
note_on channel=0 note=48 velocity=0 time=0
note_on channel=0 note=70 velocity=43 time=0
note_on channel=0 note=48 velocity=39 time=0
note_on channel=0 note=53 velocity=39 time=0
note_on channel=0 note=53 velocity=0 time=480
note_on channel=0 note=70 velocity=0 time=0
note_on channel=0 note=69 velocity=38 time=0
note_on channel=0 note=55 velocity=33 time=0
note_on channel=0 note=55 velocity=0 time=480
note_on channel=0 note=69 velocity=0 time=0
note_on channel=0 note=57 velocity=36 time=0
note_on channel=0 note=57 velocity=0 time=0
note_on channel=0 note=58 velocity=40 time=0
note_on channel=0 note=74 velocity=37 time=240
note_on channel=0 note=74 velocity=0 time=0
note_on channel=0 note=58 velocity=0 time=0
note_on channel=0 note=73 velocity=38 time=0
note_on channel=0 note=54 velocity=33 time=0
note_on channel=0 note=73 velocity=0 time=183
note_on channel=0 note=74 velocity=34 time=0
note_on channel=0 note=74 velocity=0 time=240
note_on channel=0 note=54 velocity=0 time=0
note_on channel=0 note=76 velocity=43 time=0
note_on channel=0 note=55 velocity=33 time=0
note_on channel=0 note=76 velocity=0 time=0
note_on channel=0 note=74 velocity=38 time=0
note_on channel=0 note=74 velocity=0 time=0
note_on channel=0 note=55 velocity=0 time=0
note_on channel=0 note=48 velocity=0 time=0
note_on channel=0 note=57 velocity=42 time=0
note_on channel=0 note=48 velocity=42 time=0
note_on channel=0 note=72 velocity=36 time=240
note_on channel=0 note=72 velocity=0 time=0
note_on channel=0 note=57 velocity=0 time=0
note_on channel=0 note=71 velocity=38 time=0
note_on channel=0 note=52 velocity=33 time=0
note_on channel=0 note=71 velocity=0 time=23
note_on channel=0 note=72 velocity=36 time=0
note_on channel=0 note=72 velocity=0 time=240
note_on channel=0 note=52 velocity=0 time=0
note_on channel=0 note=74 velocity=44 time=0
note_on channel=0 note=53 velocity=33 time=0
note_on channel=0 note=74 velocity=0 time=0
note_on channel=0 note=72 velocity=38 time=0
note_on channel=0 note=72 velocity=0 time=0
note_on channel=0 note=53 velocity=0 time=0
note_on channel=0 note=55 velocity=40 time=0
note_on channel=0 note=70 velocity=36 time=240
note_on channel=0 note=70 velocity=0 time=0
note_on channel=0 note=55 velocity=0 time=0
note_on channel=0 note=69 velocity=38 time=0
note_on channel=0 note=50 velocity=33 time=0
note_on channel=0 note=69 velocity=0 time=240
note_on channel=0 note=70 velocity=35 time=0
note_on channel=0 note=70 velocity=0 time=226
note_on channel=0 note=50 velocity=0 time=0
note_on channel=0 note=72 velocity=44 time=0
note_on channel=0 note=52 velocity=33 time=0
note_on channel=0 note=72 velocity=0 time=0
note_on channel=0 note=70 velocity=37 time=0
note_on channel=0 note=70 velocity=0 time=29
note_on channel=0 note=52 velocity=0 time=0
note_on channel=0 note=48 velocity=0 time=0
note_on channel=0 note=69 velocity=46 time=0
note_on channel=0 note=53 velocity=40 time=0
note_on channel=0 note=53 velocity=0 time=28
note_on channel=0 note=60 velocity=28 time=0
note_on channel=0 note=60 velocity=0 time=29
note_on channel=0 note=57 velocity=33 time=0
note_on channel=0 note=57 velocity=0 time=125
note_on channel=0 note=60 velocity=27 time=0
note_on channel=0 note=60 velocity=0 time=53
note_on channel=0 note=55 velocity=33 time=14
note_on channel=0 note=60 velocity=30 time=62
note_on channel=0 note=55 velocity=0 time=4
note_on channel=0 note=60 velocity=0 time=38
note_on channel=0 note=53 velocity=38 time=0
note_on channel=0 note=53 velocity=0 time=0
note_on channel=0 note=60 velocity=28 time=0
note_on channel=0 note=60 velocity=0 time=240
note_on channel=0 note=55 velocity=43 time=0
note_on channel=0 note=55 velocity=0 time=56
note_on channel=0 note=69 velocity=0 time=0
note_on channel=0 note=72 velocity=56 time=0
note_on channel=0 note=60 velocity=38 time=0
note_on channel=0 note=60 velocity=0 time=240
note_on channel=0 note=72 velocity=0 time=0
note_on channel=0 note=77 velocity=62 time=0
note_on channel=0 note=57 velocity=51 time=0
note_on channel=0 note=57 velocity=0 time=0
note_on channel=0 note=60 velocity=41 time=0
note_on channel=0 note=60 velocity=0 time=240
note_on channel=0 note=77 velocity=0 time=0
note_on channel=0 note=77 velocity=63 time=0
note_on channel=0 note=55 velocity=53 time=0
note_on channel=0 note=55 velocity=0 time=5
note_on channel=0 note=60 velocity=40 time=0
note_on channel=0 note=60 velocity=0 time=86
note_on channel=0 note=57 velocity=45 time=0
note_on channel=0 note=57 velocity=0 time=38
note_on channel=0 note=60 velocity=35 time=0
note_on channel=0 note=60 velocity=0 time=38
note_on channel=0 note=58 velocity=40 time=0
note_on channel=0 note=58 velocity=0 time=38
note_on channel=0 note=60 velocity=33 time=0
note_on channel=0 note=60 velocity=0 time=5
note_on channel=0 note=77 velocity=0 time=0
note_on channel=0 note=76 velocity=57 time=0
note_on channel=0 note=55 velocity=39 time=0
note_on channel=0 note=55 velocity=0 time=113
note_on channel=0 note=60 velocity=33 time=0
note_on channel=0 note=60 velocity=0 time=240
note_on channel=0 note=76 velocity=0 time=0
note_on channel=0 note=57 velocity=41 time=0
note_on channel=0 note=57 velocity=0 time=84
note_on channel=0 note=60 velocity=33 time=0
note_on channel=0 note=60 velocity=0 time=240
note_on channel=0 note=58 velocity=41 time=0
note_on channel=0 note=58 velocity=0 time=113
note_on channel=0 note=60 velocity=33 time=0
note_on channel=0 note=60 velocity=0 time=0
note_on channel=0 note=72 velocity=51 time=0
note_on channel=0 note=52 velocity=40 time=0
note_on channel=0 note=52 velocity=0 time=101
note_on channel=0 note=60 velocity=28 time=0
note_on channel=0 note=60 velocity=0 time=29
note_on channel=0 note=55 velocity=33 time=0
note_on channel=0 note=55 velocity=0 time=125
note_on channel=0 note=60 velocity=27 time=0
note_on channel=0 note=60 velocity=0 time=53
note_on channel=0 note=53 velocity=33 time=0
note_on channel=0 note=53 velocity=0 time=113
note_on channel=0 note=60 velocity=30 time=0
note_on channel=0 note=60 velocity=0 time=221
note_on channel=0 note=72 velocity=0 time=0
note_on channel=0 note=72 velocity=61 time=0
note_on channel=0 note=52 velocity=38 time=0
note_on channel=0 note=52 velocity=0 time=0
note_on channel=0 note=72 velocity=0 time=0
note_on channel=0 note=74 velocity=57 time=0
note_on channel=0 note=60 velocity=28 time=0
note_on channel=0 note=74 velocity=0 time=80
note_on channel=0 note=72 velocity=52 time=0
note_on channel=0 note=72 velocity=0 time=80
note_on channel=0 note=71 velocity=52 time=0
note_on channel=0 note=71 velocity=0 time=80
note_on channel=0 note=60 velocity=0 time=0
note_on channel=0 note=72 velocity=61 time=0
note_on channel=0 note=53 velocity=47 time=0
note_on channel=0 note=53 velocity=0 time=171
note_on channel=0 note=72 velocity=0 time=0
note_on channel=0 note=79 velocity=71 time=0
note_on channel=0 note=60 velocity=41 time=0
note_on channel=0 note=60 velocity=0 time=240
note_on channel=0 note=79 velocity=0 time=0
note_on channel=0 note=82 velocity=76 time=0
note_on channel=0 note=55 velocity=49 time=0
note_on channel=0 note=55 velocity=0 time=0
note_on channel=0 note=60 velocity=40 time=0
note_on channel=0 note=60 velocity=0 time=240
note_on channel=0 note=82 velocity=0 time=0
note_on channel=0 note=82 velocity=78 time=0
note_on channel=0 note=53 velocity=54 time=0
note_on channel=0 note=53 velocity=0 time=38
note_on channel=0 note=60 velocity=43 time=0
note_on channel=0 note=60 velocity=0 time=38
note_on channel=0 note=55 velocity=45 time=0
note_on channel=0 note=55 velocity=0 time=62
note_on channel=0 note=60 velocity=37 time=0
note_on channel=0 note=60 velocity=0 time=62
note_on channel=0 note=57 velocity=46 time=0
note_on channel=0 note=57 velocity=0 time=53
note_on channel=0 note=60 velocity=33 time=0
note_on channel=0 note=60 velocity=0 time=5
note_on channel=0 note=82 velocity=0 time=0
note_on channel=0 note=81 velocity=69 time=0
note_on channel=0 note=53 velocity=44 time=0
note_on channel=0 note=53 velocity=0 time=113
note_on channel=0 note=60 velocity=39 time=0
note_on channel=0 note=60 velocity=0 time=240
note_on channel=0 note=81 velocity=0 time=0
note_on channel=0 note=55 velocity=41 time=2
note_on channel=0 note=60 velocity=33 time=84
note_on channel=0 note=55 velocity=0 time=14
note_on channel=0 note=60 velocity=0 time=226
note_on channel=0 note=57 velocity=41 time=0
note_on channel=0 note=57 velocity=0 time=113
note_on channel=0 note=60 velocity=33 time=0
note_on channel=0 note=60 velocity=0 time=0
note_on channel=0 note=69 velocity=56 time=0
note_on channel=0 note=53 velocity=40 time=0
note_on channel=0 note=69 velocity=0 time=86
note_on channel=0 note=53 velocity=0 time=86
note_on channel=0 note=70 velocity=58 time=0
note_on channel=0 note=60 velocity=28 time=0
note_on channel=0 note=70 velocity=0 time=86
note_on channel=0 note=60 velocity=0 time=110
note_on channel=0 note=72 velocity=60 time=0
note_on channel=0 note=57 velocity=33 time=0
note_on channel=0 note=72 velocity=0 time=14
note_on channel=0 note=57 velocity=0 time=14
note_on channel=0 note=74 velocity=62 time=0
note_on channel=0 note=60 velocity=27 time=0
note_on channel=0 note=74 velocity=0 time=38
note_on channel=0 note=60 velocity=0 time=38
note_on channel=0 note=76 velocity=64 time=0
note_on channel=0 note=53 velocity=34 time=0
note_on channel=0 note=76 velocity=0 time=62
note_on channel=0 note=53 velocity=0 time=62
note_on channel=0 note=77 velocity=65 time=0
note_on channel=0 note=60 velocity=31 time=0
note_on channel=0 note=77 velocity=0 time=86
note_on channel=0 note=60 velocity=0 time=86
note_on channel=0 note=79 velocity=67 time=0
note_on channel=0 note=53 velocity=40 time=0
note_on channel=0 note=79 velocity=0 time=110
note_on channel=0 note=53 velocity=0 time=0
note_on channel=0 note=81 velocity=71 time=0
note_on channel=0 note=60 velocity=36 time=0
note_on channel=0 note=81 velocity=0 time=120
note_on channel=0 note=60 velocity=0 time=120
note_on channel=0 note=82 velocity=74 time=0
note_on channel=0 note=57 velocity=48 time=0
note_on channel=0 note=82 velocity=0 time=120
note_on channel=0 note=57 velocity=0 time=120
note_on channel=0 note=84 velocity=77 time=0
note_on channel=0 note=60 velocity=40 time=0
note_on channel=0 note=84 velocity=0 time=120
note_on channel=0 note=60 velocity=0 time=120
note_on channel=0 note=86 velocity=80 time=0
note_on channel=0 note=53 velocity=51 time=0
note_on channel=0 note=86 velocity=0 time=120
note_on channel=0 note=53 velocity=0 time=0
note_on channel=0 note=88 velocity=83 time=0
note_on channel=0 note=60 velocity=42 time=0
note_on channel=0 note=88 velocity=0 time=120
note_on channel=0 note=60 velocity=0 time=0
note_on channel=0 note=89 velocity=90 time=0
note_on channel=0 note=55 velocity=59 time=0
note_on channel=0 note=55 velocity=0 time=85
note_on channel=0 note=60 velocity=47 time=0
note_on channel=0 note=60 velocity=0 time=13
note_on channel=0 note=58 velocity=46 time=0
note_on channel=0 note=58 velocity=0 time=37
note_on channel=0 note=60 velocity=38 time=0
note_on channel=0 note=60 velocity=0 time=37
note_on channel=0 note=55 velocity=46 time=0
note_on channel=0 note=55 velocity=0 time=61
note_on channel=0 note=60 velocity=37 time=0
note_on channel=0 note=60 velocity=0 time=5
note_on channel=0 note=89 velocity=0 time=0
note_on channel=0 note=88 velocity=71 time=0
note_on channel=0 note=55 velocity=44 time=0
note_on channel=0 note=55 velocity=0 time=113
note_on channel=0 note=60 velocity=37 time=0
note_on channel=0 note=60 velocity=0 time=240
note_on channel=0 note=88 velocity=0 time=0
note_on channel=0 note=58 velocity=47 time=0
note_on channel=0 note=58 velocity=0 time=84
note_on channel=0 note=60 velocity=37 time=0
note_on channel=0 note=60 velocity=0 time=240
note_on channel=0 note=55 velocity=47 time=0
note_on channel=0 note=55 velocity=0 time=113
note_on channel=0 note=60 velocity=37 time=0
note_on channel=0 note=60 velocity=0 time=11
note_on channel=0 note=60 velocity=56 time=2
note_on channel=0 note=52 velocity=40 time=0
note_on channel=0 note=60 velocity=0 time=120
note_on channel=0 note=52 velocity=0 time=61
note_on channel=0 note=62 velocity=58 time=0
note_on channel=0 note=60 velocity=32 time=0
note_on channel=0 note=62 velocity=0 time=13
note_on channel=0 note=60 velocity=0 time=120
note_on channel=0 note=64 velocity=60 time=0
note_on channel=0 note=55 velocity=39 time=0
note_on channel=0 note=64 velocity=0 time=61
note_on channel=0 note=55 velocity=0 time=13
note_on channel=0 note=65 velocity=62 time=0
note_on channel=0 note=60 velocity=29 time=0
note_on channel=0 note=65 velocity=0 time=120
note_on channel=0 note=60 velocity=0 time=61
note_on channel=0 note=67 velocity=64 time=0
note_on channel=0 note=52 velocity=40 time=0
note_on channel=0 note=67 velocity=0 time=13
note_on channel=0 note=52 velocity=0 time=120
note_on channel=0 note=69 velocity=65 time=0
note_on channel=0 note=60 velocity=31 time=0
note_on channel=0 note=69 velocity=0 time=61
note_on channel=0 note=60 velocity=0 time=13
note_on channel=0 note=70 velocity=71 time=0
note_on channel=0 note=52 velocity=46 time=0
note_on channel=0 note=70 velocity=0 time=120
note_on channel=0 note=52 velocity=0 time=0
note_on channel=0 note=72 velocity=71 time=0
note_on channel=0 note=60 velocity=41 time=0
note_on channel=0 note=72 velocity=0 time=120
note_on channel=0 note=60 velocity=0 time=120
note_on channel=0 note=74 velocity=73 time=0
note_on channel=0 note=55 velocity=52 time=0
note_on channel=0 note=74 velocity=0 time=120
note_on channel=0 note=55 velocity=0 time=120
note_on channel=0 note=76 velocity=75 time=0
note_on channel=0 note=60 velocity=40 time=0
note_on channel=0 note=76 velocity=0 time=120
note_on channel=0 note=60 velocity=0 time=120
note_on channel=0 note=77 velocity=82 time=0
note_on channel=0 note=52 velocity=57 time=0
note_on channel=0 note=77 velocity=0 time=120
note_on channel=0 note=52 velocity=0 time=0
note_on channel=0 note=79 velocity=84 time=0
note_on channel=0 note=60 velocity=44 time=0
note_on channel=0 note=79 velocity=0 time=120
note_on channel=0 note=60 velocity=0 time=120
note_on channel=0 note=80 velocity=92 time=0
note_on channel=0 note=53 velocity=45 time=0
note_on channel=0 note=53 velocity=0 time=0
note_on channel=0 note=60 velocity=36 time=0
note_on channel=0 note=60 velocity=0 time=0
note_on channel=0 note=55 velocity=49 time=0
note_on channel=0 note=55 velocity=0 time=28
note_on channel=0 note=60 velocity=42 time=0
note_on channel=0 note=60 velocity=0 time=240
note_on channel=0 note=56 velocity=51 time=0
note_on channel=0 note=56 velocity=0 time=0
note_on channel=0 note=60 velocity=44 time=0
note_on channel=0 note=60 velocity=0 time=0
note_on channel=0 note=53 velocity=47 time=0
note_on channel=0 note=53 velocity=0 time=0
note_on channel=0 note=60 velocity=37 time=0
note_on channel=0 note=60 velocity=0 time=240
note_on channel=0 note=80 velocity=0 time=0
note_on channel=0 note=79 velocity=77 time=0
note_on channel=0 note=55 velocity=41 time=0
note_on channel=0 note=55 velocity=0 time=70
note_on channel=0 note=60 velocity=37 time=0
note_on channel=0 note=60 velocity=0 time=240
note_on channel=0 note=79 velocity=0 time=0
note_on channel=0 note=77 velocity=77 time=0
note_on channel=0 note=56 velocity=41 time=0
note_on channel=0 note=56 velocity=0 time=0
note_on channel=0 note=60 velocity=37 time=0
note_on channel=0 note=60 velocity=0 time=0
note_on channel=0 note=77 velocity=0 time=0
note_on channel=0 note=75 velocity=84 time=0
note_on channel=0 note=55 velocity=51 time=0
note_on channel=0 note=55 velocity=0 time=70
note_on channel=0 note=63 velocity=36 time=0
note_on channel=0 note=63 velocity=0 time=240
note_on channel=0 note=60 velocity=41 time=0
note_on channel=0 note=60 velocity=0 time=240
note_on channel=0 note=63 velocity=36 time=0
note_on channel=0 note=63 velocity=0 time=240
note_on channel=0 note=55 velocity=41 time=0
note_on channel=0 note=75 velocity=0 time=120
note_on channel=0 note=77 velocity=57 time=0
note_on channel=0 note=77 velocity=0 time=80
note_on channel=0 note=75 velocity=61 time=0
note_on channel=0 note=55 velocity=0 time=0
note_on channel=0 note=63 velocity=36 time=0
note_on channel=0 note=75 velocity=0 time=40
note_on channel=0 note=74 velocity=65 time=0
note_on channel=0 note=74 velocity=0 time=80
note_on channel=0 note=75 velocity=69 time=0
note_on channel=0 note=75 velocity=0 time=0
note_on channel=0 note=63 velocity=0 time=0
note_on channel=0 note=79 velocity=84 time=0
note_on channel=0 note=55 velocity=47 time=0
note_on channel=0 note=55 velocity=0 time=68
note_on channel=0 note=62 velocity=36 time=0
note_on channel=0 note=62 velocity=0 time=0
note_on channel=0 note=79 velocity=0 time=0
note_on channel=0 note=77 velocity=78 time=0
note_on channel=0 note=59 velocity=42 time=0
note_on channel=0 note=59 velocity=0 time=240
note_on channel=0 note=62 velocity=34 time=0
note_on channel=0 note=62 velocity=0 time=240
note_on channel=0 note=77 velocity=0 time=0
note_on channel=0 note=74 velocity=78 time=0
note_on channel=0 note=55 velocity=40 time=0
note_on channel=0 note=55 velocity=0 time=120
note_on channel=0 note=62 velocity=35 time=0
note_on channel=0 note=62 velocity=0 time=0
note_on channel=0 note=74 velocity=0 time=0
note_on channel=0 note=63 velocity=66 time=0
note_on channel=0 note=75 velocity=89 time=0
note_on channel=0 note=48 velocity=60 time=0
note_on channel=0 note=48 velocity=0 time=28
note_on channel=0 note=55 velocity=37 time=0
note_on channel=0 note=55 velocity=0 time=29
note_on channel=0 note=51 velocity=52 time=0
note_on channel=0 note=51 velocity=0 time=125
note_on channel=0 note=55 velocity=36 time=0
note_on channel=0 note=55 velocity=0 time=53
note_on channel=0 note=50 velocity=52 time=14
note_on channel=0 note=55 velocity=46 time=62
note_on channel=0 note=50 velocity=0 time=4
note_on channel=0 note=55 velocity=0 time=38
note_on channel=0 note=48 velocity=57 time=0
note_on channel=0 note=48 velocity=0 time=0
note_on channel=0 note=55 velocity=46 time=0
note_on channel=0 note=55 velocity=0 time=240
note_on channel=0 note=50 velocity=57 time=0
note_on channel=0 note=50 velocity=0 time=56
note_on channel=0 note=75 velocity=0 time=0
note_on channel=0 note=63 velocity=0 time=0
note_on channel=0 note=67 velocity=63 time=0
note_on channel=0 note=79 velocity=84 time=0
note_on channel=0 note=55 velocity=50 time=0
note_on channel=0 note=55 velocity=0 time=240
note_on channel=0 note=79 velocity=0 time=0
note_on channel=0 note=67 velocity=0 time=0
note_on channel=0 note=72 velocity=72 time=0
note_on channel=0 note=84 velocity=97 time=0
note_on channel=0 note=51 velocity=61 time=0
note_on channel=0 note=51 velocity=0 time=0
note_on channel=0 note=55 velocity=56 time=0
note_on channel=0 note=55 velocity=0 time=240
note_on channel=0 note=84 velocity=0 time=0
note_on channel=0 note=72 velocity=0 time=0
note_on channel=0 note=72 velocity=73 time=0
note_on channel=0 note=84 velocity=98 time=0
note_on channel=0 note=50 velocity=66 time=0
note_on channel=0 note=50 velocity=0 time=5
note_on channel=0 note=55 velocity=43 time=0
note_on channel=0 note=55 velocity=0 time=86
note_on channel=0 note=51 velocity=59 time=0
note_on channel=0 note=51 velocity=0 time=38
note_on channel=0 note=55 velocity=51 time=0
note_on channel=0 note=55 velocity=0 time=38
note_on channel=0 note=53 velocity=60 time=0
note_on channel=0 note=53 velocity=0 time=38
note_on channel=0 note=55 velocity=53 time=0
note_on channel=0 note=55 velocity=0 time=5
note_on channel=0 note=84 velocity=0 time=0
note_on channel=0 note=72 velocity=0 time=0
note_on channel=0 note=71 velocity=63 time=0
note_on channel=0 note=83 velocity=85 time=0
note_on channel=0 note=50 velocity=63 time=0
note_on channel=0 note=50 velocity=0 time=113
note_on channel=0 note=55 velocity=44 time=0
note_on channel=0 note=55 velocity=0 time=240
note_on channel=0 note=83 velocity=0 time=0
note_on channel=0 note=71 velocity=0 time=0
note_on channel=0 note=51 velocity=54 time=0
note_on channel=0 note=51 velocity=0 time=84
note_on channel=0 note=55 velocity=44 time=0
note_on channel=0 note=55 velocity=0 time=240
note_on channel=0 note=53 velocity=54 time=0
note_on channel=0 note=53 velocity=0 time=113
note_on channel=0 note=55 velocity=44 time=0
note_on channel=0 note=55 velocity=0 time=0
note_on channel=0 note=67 velocity=66 time=0
note_on channel=0 note=79 velocity=89 time=0
note_on channel=0 note=47 velocity=54 time=0
note_on channel=0 note=47 velocity=0 time=28
note_on channel=0 note=55 velocity=37 time=0
note_on channel=0 note=55 velocity=0 time=29
note_on channel=0 note=50 velocity=44 time=0
note_on channel=0 note=50 velocity=0 time=125
note_on channel=0 note=55 velocity=36 time=0
note_on channel=0 note=55 velocity=0 time=53
note_on channel=0 note=48 velocity=44 time=0
note_on channel=0 note=48 velocity=0 time=62
note_on channel=0 note=55 velocity=40 time=0
note_on channel=0 note=55 velocity=0 time=38
note_on channel=0 note=47 velocity=51 time=0
note_on channel=0 note=47 velocity=0 time=0
note_on channel=0 note=55 velocity=44 time=0
note_on channel=0 note=55 velocity=0 time=240
note_on channel=0 note=48 velocity=57 time=0
note_on channel=0 note=48 velocity=0 time=56
note_on channel=0 note=79 velocity=0 time=0
note_on channel=0 note=67 velocity=0 time=0
note_on channel=0 note=74 velocity=63 time=0
note_on channel=0 note=86 velocity=84 time=0
note_on channel=0 note=55 velocity=52 time=0
note_on channel=0 note=55 velocity=0 time=240
note_on channel=0 note=86 velocity=0 time=0
note_on channel=0 note=74 velocity=0 time=0
note_on channel=0 note=77 velocity=72 time=0
note_on channel=0 note=89 velocity=97 time=0
note_on channel=0 note=50 velocity=61 time=0
note_on channel=0 note=50 velocity=0 time=0
note_on channel=0 note=55 velocity=46 time=0
note_on channel=0 note=89 velocity=0 time=230
note_on channel=0 note=77 velocity=0 time=0
note_on channel=0 note=55 velocity=0 time=10
note_on channel=0 note=77 velocity=73 time=0
note_on channel=0 note=89 velocity=98 time=0
note_on channel=0 note=48 velocity=69 time=0
note_on channel=0 note=48 velocity=0 time=5
note_on channel=0 note=55 velocity=53 time=0
note_on channel=0 note=55 velocity=0 time=86
note_on channel=0 note=50 velocity=60 time=0
note_on channel=0 note=50 velocity=0 time=38
note_on channel=0 note=55 velocity=44 time=0
note_on channel=0 note=55 velocity=0 time=38
note_on channel=0 note=51 velocity=54 time=0
note_on channel=0 note=51 velocity=0 time=38
note_on channel=0 note=55 velocity=44 time=0
note_on channel=0 note=55 velocity=0 time=5
note_on channel=0 note=89 velocity=0 time=0
note_on channel=0 note=77 velocity=0 time=0
note_on channel=0 note=75 velocity=66 time=0
note_on channel=0 note=87 velocity=88 time=0
note_on channel=0 note=48 velocity=52 time=0
note_on channel=0 note=48 velocity=0 time=113
note_on channel=0 note=55 velocity=44 time=0
note_on channel=0 note=55 velocity=0 time=240
note_on channel=0 note=87 velocity=0 time=0
note_on channel=0 note=75 velocity=0 time=0
note_on channel=0 note=50 velocity=54 time=0
note_on channel=0 note=50 velocity=0 time=84
note_on channel=0 note=55 velocity=44 time=0
note_on channel=0 note=55 velocity=0 time=240
note_on channel=0 note=51 velocity=54 time=0
note_on channel=0 note=51 velocity=0 time=113
note_on channel=0 note=55 velocity=44 time=0
note_on channel=0 note=55 velocity=0 time=0
note_on channel=0 note=63 velocity=89 time=0
note_on channel=0 note=48 velocity=54 time=0
note_on channel=0 note=48 velocity=0 time=28
note_on channel=0 note=63 velocity=0 time=0
note_on channel=0 note=67 velocity=75 time=0
note_on channel=0 note=55 velocity=37 time=0
note_on channel=0 note=55 velocity=0 time=29
note_on channel=0 note=67 velocity=0 time=0
note_on channel=0 note=72 velocity=79 time=0
note_on channel=0 note=51 velocity=44 time=0
note_on channel=0 note=51 velocity=0 time=125
note_on channel=0 note=72 velocity=0 time=0
note_on channel=0 note=67 velocity=79 time=0
note_on channel=0 note=55 velocity=36 time=0
note_on channel=0 note=55 velocity=0 time=53
note_on channel=0 note=67 velocity=0 time=0
note_on channel=0 note=72 velocity=83 time=0
note_on channel=0 note=48 velocity=44 time=0
note_on channel=0 note=48 velocity=0 time=62
note_on channel=0 note=72 velocity=0 time=0
note_on channel=0 note=75 velocity=89 time=0
note_on channel=0 note=55 velocity=40 time=0
note_on channel=0 note=55 velocity=0 time=38
note_on channel=0 note=75 velocity=0 time=0
note_on channel=0 note=72 velocity=89 time=0
note_on channel=0 note=48 velocity=51 time=0
note_on channel=0 note=48 velocity=0 time=0
note_on channel=0 note=72 velocity=0 time=0
note_on channel=0 note=75 velocity=77 time=0
note_on channel=0 note=55 velocity=42 time=0
note_on channel=0 note=55 velocity=0 time=240
note_on channel=0 note=75 velocity=0 time=0
note_on channel=0 note=79 velocity=83 time=0
note_on channel=0 note=51 velocity=51 time=0
note_on channel=0 note=51 velocity=0 time=240
note_on channel=0 note=79 velocity=0 time=0
note_on channel=0 note=75 velocity=89 time=0
note_on channel=0 note=55 velocity=42 time=0
note_on channel=0 note=55 velocity=0 time=240
note_on channel=0 note=75 velocity=0 time=0
note_on channel=0 note=79 velocity=83 time=0
note_on channel=0 note=48 velocity=60 time=0
note_on channel=0 note=48 velocity=0 time=0
note_on channel=0 note=79 velocity=0 time=0
note_on channel=0 note=84 velocity=89 time=0
note_on channel=0 note=55 velocity=53 time=0
note_on channel=0 note=84 velocity=0 time=230
note_on channel=0 note=55 velocity=0 time=10
note_on channel=0 note=84 velocity=98 time=0
note_on channel=0 note=50 velocity=66 time=0
note_on channel=0 note=50 velocity=0 time=5
note_on channel=0 note=55 velocity=43 time=0
note_on channel=0 note=55 velocity=0 time=86
note_on channel=0 note=53 velocity=54 time=0
note_on channel=0 note=53 velocity=0 time=38
note_on channel=0 note=55 velocity=45 time=0
note_on channel=0 note=55 velocity=0 time=38
note_on channel=0 note=50 velocity=54 time=0
note_on channel=0 note=50 velocity=0 time=38
note_on channel=0 note=55 velocity=44 time=0
note_on channel=0 note=55 velocity=0 time=5
note_on channel=0 note=84 velocity=0 time=0
note_on channel=0 note=83 velocity=92 time=0
note_on channel=0 note=50 velocity=52 time=0
note_on channel=0 note=50 velocity=0 time=113
note_on channel=0 note=55 velocity=44 time=0
note_on channel=0 note=55 velocity=0 time=240
note_on channel=0 note=83 velocity=0 time=0
note_on channel=0 note=53 velocity=54 time=0
note_on channel=0 note=53 velocity=0 time=84
note_on channel=0 note=55 velocity=44 time=0
note_on channel=0 note=55 velocity=0 time=240
note_on channel=0 note=50 velocity=54 time=0
note_on channel=0 note=50 velocity=0 time=240
note_on channel=0 note=55 velocity=44 time=0
note_on channel=0 note=55 velocity=0 time=238
note_on channel=0 note=55 velocity=80 time=0
note_on channel=0 note=47 velocity=54 time=0
note_on channel=0 note=47 velocity=0 time=28
note_on channel=0 note=55 velocity=0 time=0
note_on channel=0 note=59 velocity=67 time=0
note_on channel=0 note=55 velocity=37 time=0
note_on channel=0 note=55 velocity=0 time=29
note_on channel=0 note=59 velocity=0 time=0
note_on channel=0 note=62 velocity=71 time=0
note_on channel=0 note=50 velocity=49 time=0
note_on channel=0 note=50 velocity=0 time=125
note_on channel=0 note=62 velocity=0 time=0
note_on channel=0 note=59 velocity=71 time=0
note_on channel=0 note=55 velocity=36 time=0
note_on channel=0 note=55 velocity=0 time=53
note_on channel=0 note=59 velocity=0 time=0
note_on channel=0 note=62 velocity=74 time=0
note_on channel=0 note=47 velocity=50 time=0
note_on channel=0 note=47 velocity=0 time=62
note_on channel=0 note=62 velocity=0 time=0
note_on channel=0 note=67 velocity=80 time=0
note_on channel=0 note=55 velocity=40 time=0
note_on channel=0 note=55 velocity=0 time=38
note_on channel=0 note=67 velocity=0 time=0
note_on channel=0 note=62 velocity=80 time=0
note_on channel=0 note=47 velocity=58 time=0
note_on channel=0 note=47 velocity=0 time=0
note_on channel=0 note=62 velocity=0 time=0
note_on channel=0 note=67 velocity=69 time=0
note_on channel=0 note=55 velocity=45 time=0
note_on channel=0 note=55 velocity=0 time=240
note_on channel=0 note=67 velocity=0 time=0
note_on channel=0 note=71 velocity=74 time=0
note_on channel=0 note=50 velocity=51 time=0
note_on channel=0 note=50 velocity=0 time=240
note_on channel=0 note=71 velocity=0 time=0
note_on channel=0 note=67 velocity=80 time=0
note_on channel=0 note=55 velocity=45 time=0
note_on channel=0 note=55 velocity=0 time=240
note_on channel=0 note=67 velocity=0 time=0
note_on channel=0 note=71 velocity=74 time=0
note_on channel=0 note=47 velocity=56 time=0
note_on channel=0 note=47 velocity=0 time=0
note_on channel=0 note=71 velocity=0 time=0
note_on channel=0 note=74 velocity=80 time=0
note_on channel=0 note=55 velocity=37 time=0
note_on channel=0 note=55 velocity=0 time=0
note_on channel=0 note=74 velocity=0 time=0
note_on channel=0 note=75 velocity=86 time=0
note_on channel=0 note=48 velocity=43 time=0
note_on channel=0 note=48 velocity=0 time=0
note_on channel=0 note=75 velocity=0 time=0
note_on channel=0 note=47 velocity=61 time=0
note_on channel=0 note=47 velocity=0 time=240
note_on channel=0 note=48 velocity=44 time=0
note_on channel=0 note=48 velocity=0 time=240
note_on channel=0 note=84 velocity=100 time=0
note_on channel=0 note=47 velocity=63 time=0
note_on channel=0 note=47 velocity=0 time=0
note_on channel=0 note=48 velocity=50 time=0
note_on channel=0 note=48 velocity=0 time=0
note_on channel=0 note=40 velocity=67 time=0
note_on channel=0 note=40 velocity=0 time=0
note_on channel=0 note=48 velocity=52 time=0
note_on channel=0 note=48 velocity=0 time=240
note_on channel=0 note=41 velocity=57 time=0
note_on channel=0 note=41 velocity=0 time=70
note_on channel=0 note=48 velocity=47 time=0
note_on channel=0 note=48 velocity=0 time=0
note_on channel=0 note=84 velocity=0 time=0
note_on channel=0 note=52 velocity=77 time=0
note_on channel=0 note=43 velocity=61 time=0
note_on channel=0 note=43 velocity=0 time=0
note_on channel=0 note=48 velocity=44 time=0
note_on channel=0 note=48 velocity=0 time=0
note_on channel=0 note=52 velocity=0 time=0
note_on channel=0 note=53 velocity=82 time=0
note_on channel=0 note=41 velocity=65 time=0
note_on channel=0 note=41 velocity=0 time=56
note_on channel=0 note=48 velocity=45 time=0
note_on channel=0 note=48 velocity=0 time=0
note_on channel=0 note=43 velocity=57 time=0
note_on channel=0 note=43 velocity=0 time=99
note_on channel=0 note=48 velocity=48 time=0
note_on channel=0 note=48 velocity=0 time=240
note_on channel=0 note=44 velocity=56 time=0
note_on channel=0 note=44 velocity=0 time=0
note_on channel=0 note=48 velocity=50 time=0
note_on channel=0 note=48 velocity=0 time=0
note_on channel=0 note=53 velocity=0 time=0
note_on channel=0 note=54 velocity=84 time=0
note_on channel=0 note=42 velocity=67 time=0
note_on channel=0 note=42 velocity=0 time=137
note_on channel=0 note=48 velocity=51 time=0
note_on channel=0 note=48 velocity=0 time=240
note_on channel=0 note=43 velocity=58 time=0
note_on channel=0 note=43 velocity=0 time=80
note_on channel=0 note=48 velocity=49 time=0
note_on channel=0 note=48 velocity=0 time=240
note_on channel=0 note=45 velocity=60 time=0
note_on channel=0 note=45 velocity=0 time=0
note_on channel=0 note=48 velocity=44 time=0
note_on channel=0 note=48 velocity=0 time=0
note_on channel=0 note=54 velocity=0 time=0
note_on channel=0 note=55 velocity=84 time=0
note_on channel=0 note=43 velocity=64 time=0
note_on channel=0 note=43 velocity=0 time=56
note_on channel=0 note=51 velocity=51 time=0
note_on channel=0 note=51 velocity=0 time=240
note_on channel=0 note=48 velocity=59 time=0
note_on channel=0 note=48 velocity=0 time=240
note_on channel=0 note=51 velocity=50 time=0
note_on channel=0 note=51 velocity=0 time=240
note_on channel=0 note=43 velocity=57 time=0
note_on channel=0 note=43 velocity=0 time=0
note_on channel=0 note=51 velocity=46 time=0
note_on channel=0 note=51 velocity=0 time=15
note_on channel=0 note=55 velocity=0 time=0
note_on channel=0 note=53 velocity=84 time=0
note_on channel=0 note=43 velocity=64 time=0
note_on channel=0 note=53 velocity=0 time=15
note_on channel=0 note=55 velocity=57 time=0
note_on channel=0 note=55 velocity=0 time=15
note_on channel=0 note=43 velocity=0 time=0
note_on channel=0 note=53 velocity=61 time=0
note_on channel=0 note=50 velocity=46 time=0
note_on channel=0 note=53 velocity=0 time=80
note_on channel=0 note=55 velocity=57 time=0
note_on channel=0 note=55 velocity=0 time=80
note_on channel=0 note=53 velocity=64 time=0
note_on channel=0 note=53 velocity=0 time=80
note_on channel=0 note=50 velocity=0 time=0
note_on channel=0 note=55 velocity=56 time=0
note_on channel=0 note=47 velocity=58 time=0
note_on channel=0 note=55 velocity=0 time=80
note_on channel=0 note=53 velocity=64 time=0
note_on channel=0 note=53 velocity=0 time=80
note_on channel=0 note=55 velocity=56 time=0
note_on channel=0 note=55 velocity=0 time=80
note_on channel=0 note=47 velocity=0 time=0
note_on channel=0 note=53 velocity=64 time=0
note_on channel=0 note=50 velocity=47 time=0
note_on channel=0 note=53 velocity=0 time=80
note_on channel=0 note=55 velocity=55 time=0
note_on channel=0 note=55 velocity=0 time=80
note_on channel=0 note=53 velocity=64 time=0
note_on channel=0 note=53 velocity=0 time=80
note_on channel=0 note=50 velocity=0 time=0
note_on channel=0 note=55 velocity=54 time=0
note_on channel=0 note=43 velocity=56 time=0
note_on channel=0 note=55 velocity=0 time=39
note_on channel=0 note=53 velocity=59 time=0
note_on channel=0 note=53 velocity=0 time=15
note_on channel=0 note=43 velocity=0 time=0
note_on channel=0 note=52 velocity=55 time=0
note_on channel=0 note=50 velocity=46 time=0
note_on channel=0 note=52 velocity=0 time=39
note_on channel=0 note=53 velocity=57 time=0
note_on channel=0 note=53 velocity=0 time=0
note_on channel=0 note=50 velocity=0 time=0
note_on channel=0 note=51 velocity=74 time=0
note_on channel=0 note=36 velocity=64 time=0
note_on channel=0 note=48 velocity=64 time=0
note_on channel=0 note=51 velocity=0 time=0
note_on channel=0 note=55 velocity=60 time=0
note_on channel=0 note=55 velocity=0 time=197
note_on channel=0 note=48 velocity=0 time=0
note_on channel=0 note=36 velocity=0 time=0
note_on channel=0 note=60 velocity=68 time=0
note_on channel=0 note=60 velocity=0 time=240
note_on channel=0 note=55 velocity=61 time=0
note_on channel=0 note=55 velocity=0 time=240
note_on channel=0 note=60 velocity=69 time=0
note_on channel=0 note=60 velocity=0 time=240
note_on channel=0 note=63 velocity=63 time=0
note_on channel=0 note=63 velocity=0 time=0
note_on channel=0 note=67 velocity=69 time=0
note_on channel=0 note=67 velocity=0 time=240
note_on channel=0 note=63 velocity=60 time=0
note_on channel=0 note=63 velocity=0 time=240
note_on channel=0 note=67 velocity=73 time=0
note_on channel=0 note=67 velocity=0 time=240
note_on channel=0 note=72 velocity=68 time=0
note_on channel=0 note=72 velocity=0 time=240
note_on channel=0 note=75 velocity=80 time=0
note_on channel=0 note=75 velocity=0 time=240
note_on channel=0 note=79 velocity=73 time=0
note_on channel=0 note=79 velocity=0 time=0
note_on channel=0 note=84 velocity=89 time=0
note_on channel=0 note=39 velocity=67 time=0
note_on channel=0 note=39 velocity=0 time=0
note_on channel=0 note=84 velocity=0 time=0
note_on channel=0 note=48 velocity=45 time=0
note_on channel=0 note=48 velocity=0 time=240
note_on channel=0 note=41 velocity=50 time=0
note_on channel=0 note=41 velocity=0 time=70
note_on channel=0 note=48 velocity=47 time=0
note_on channel=0 note=48 velocity=0 time=0
note_on channel=0 note=60 velocity=84 time=0
note_on channel=0 note=43 velocity=56 time=0
note_on channel=0 note=43 velocity=0 time=0
note_on channel=0 note=48 velocity=50 time=0
note_on channel=0 note=48 velocity=0 time=0
note_on channel=0 note=40 velocity=67 time=0
note_on channel=0 note=40 velocity=0 time=0
note_on channel=0 note=48 velocity=45 time=0
note_on channel=0 note=48 velocity=0 time=240
note_on channel=0 note=41 velocity=61 time=0
note_on channel=0 note=41 velocity=0 time=70
note_on channel=0 note=48 velocity=47 time=0
note_on channel=0 note=48 velocity=0 time=0
note_on channel=0 note=60 velocity=0 time=0
note_on channel=0 note=52 velocity=81 time=0
note_on channel=0 note=43 velocity=60 time=0
note_on channel=0 note=43 velocity=0 time=0
note_on channel=0 note=48 velocity=44 time=0
note_on channel=0 note=48 velocity=0 time=0
note_on channel=0 note=52 velocity=0 time=0
note_on channel=0 note=53 velocity=84 time=0
note_on channel=0 note=41 velocity=65 time=0
note_on channel=0 note=41 velocity=0 time=56
note_on channel=0 note=48 velocity=45 time=0
note_on channel=0 note=48 velocity=0 time=0
note_on channel=0 note=43 velocity=57 time=0
note_on channel=0 note=43 velocity=0 time=99
note_on channel=0 note=48 velocity=42 time=0
note_on channel=0 note=48 velocity=0 time=240
note_on channel=0 note=53 velocity=0 time=0
note_on channel=0 note=60 velocity=84 time=0
note_on channel=0 note=44 velocity=58 time=0
note_on channel=0 note=44 velocity=0 time=0
note_on channel=0 note=48 velocity=45 time=0
note_on channel=0 note=48 velocity=0 time=0
note_on channel=0 note=60 velocity=0 time=0
note_on channel=0 note=54 velocity=92 time=0
note_on channel=0 note=42 velocity=67 time=0
note_on channel=0 note=42 velocity=0 time=137
note_on channel=0 note=48 velocity=51 time=0
note_on channel=0 note=48 velocity=0 time=0
note_on channel=0 note=43 velocity=58 time=0
note_on channel=0 note=43 velocity=0 time=80
note_on channel=0 note=48 velocity=47 time=0
note_on channel=0 note=48 velocity=0 time=240
note_on channel=0 note=54 velocity=0 time=0
note_on channel=0 note=60 velocity=84 time=0
note_on channel=0 note=45 velocity=58 time=0
note_on channel=0 note=45 velocity=0 time=0
note_on channel=0 note=48 velocity=44 time=0
note_on channel=0 note=48 velocity=0 time=0
note_on channel=0 note=60 velocity=0 time=0
note_on channel=0 note=55 velocity=88 time=0
note_on channel=0 note=43 velocity=67 time=0
note_on channel=0 note=43 velocity=0 time=0
note_on channel=0 note=55 velocity=0 time=0
note_on channel=0 note=60 velocity=62 time=0
note_on channel=0 note=48 velocity=51 time=0
note_on channel=0 note=48 velocity=0 time=240
note_on channel=0 note=60 velocity=0 time=0
note_on channel=0 note=59 velocity=74 time=0
note_on channel=0 note=47 velocity=57 time=0
note_on channel=0 note=47 velocity=0 time=80
note_on channel=0 note=59 velocity=0 time=0
note_on channel=0 note=60 velocity=62 time=0
note_on channel=0 note=48 velocity=48 time=0
note_on channel=0 note=48 velocity=0 time=240
note_on channel=0 note=60 velocity=0 time=0
note_on channel=0 note=55 velocity=72 time=0
note_on channel=0 note=43 velocity=61 time=0
note_on channel=0 note=43 velocity=0 time=0
note_on channel=0 note=55 velocity=0 time=0
note_on channel=0 note=60 velocity=62 time=0
note_on channel=0 note=48 velocity=50 time=0
note_on channel=0 note=48 velocity=0 time=0
note_on channel=0 note=60 velocity=0 time=0
note_on channel=0 note=56 velocity=82 time=0
note_on channel=0 note=44 velocity=71 time=0
note_on channel=0 note=44 velocity=0 time=0
note_on channel=0 note=56 velocity=0 time=0
note_on channel=0 note=60 velocity=62 time=0
note_on channel=0 note=48 velocity=56 time=0
note_on channel=0 note=48 velocity=0 time=240
note_on channel=0 note=60 velocity=0 time=0
note_on channel=0 note=59 velocity=73 time=0
note_on channel=0 note=47 velocity=64 time=0
note_on channel=0 note=47 velocity=0 time=80
note_on channel=0 note=59 velocity=0 time=0
note_on channel=0 note=60 velocity=64 time=0
note_on channel=0 note=48 velocity=55 time=0
note_on channel=0 note=48 velocity=0 time=240
note_on channel=0 note=60 velocity=0 time=0
note_on channel=0 note=54 velocity=73 time=0
note_on channel=0 note=42 velocity=65 time=0
note_on channel=0 note=42 velocity=0 time=0
note_on channel=0 note=54 velocity=0 time=0
note_on channel=0 note=60 velocity=62 time=0
note_on channel=0 note=48 velocity=54 time=0
note_on channel=0 note=48 velocity=0 time=0
note_on channel=0 note=60 velocity=0 time=0
note_on channel=0 note=55 velocity=88 time=0
note_on channel=0 note=43 velocity=77 time=0
note_on channel=0 note=43 velocity=0 time=0
note_on channel=0 note=55 velocity=0 time=0
note_on channel=0 note=60 velocity=63 time=0
note_on channel=0 note=48 velocity=58 time=0
note_on channel=0 note=48 velocity=0 time=240
note_on channel=0 note=60 velocity=0 time=0
note_on channel=0 note=59 velocity=73 time=0
note_on channel=0 note=47 velocity=68 time=0
note_on channel=0 note=47 velocity=0 time=80
note_on channel=0 note=59 velocity=0 time=0
note_on channel=0 note=60 velocity=62 time=0
note_on channel=0 note=48 velocity=54 time=0
note_on channel=0 note=48 velocity=0 time=240
note_on channel=0 note=60 velocity=0 time=0
note_on channel=0 note=52 velocity=74 time=0
note_on channel=0 note=40 velocity=65 time=0
note_on channel=0 note=40 velocity=0 time=0
note_on channel=0 note=52 velocity=0 time=0
note_on channel=0 note=60 velocity=65 time=0
note_on channel=0 note=48 velocity=50 time=0
note_on channel=0 note=48 velocity=0 time=0
note_on channel=0 note=60 velocity=0 time=0
note_on channel=0 note=53 velocity=88 time=0
note_on channel=0 note=41 velocity=77 time=0
note_on channel=0 note=41 velocity=0 time=0
note_on channel=0 note=53 velocity=0 time=0
note_on channel=0 note=60 velocity=64 time=0
note_on channel=0 note=48 velocity=51 time=0
note_on channel=0 note=48 velocity=0 time=240
note_on channel=0 note=60 velocity=0 time=0
note_on channel=0 note=56 velocity=71 time=0
note_on channel=0 note=44 velocity=63 time=0
note_on channel=0 note=44 velocity=0 time=80
note_on channel=0 note=56 velocity=0 time=0
note_on channel=0 note=60 velocity=65 time=0
note_on channel=0 note=48 velocity=58 time=0
note_on channel=0 note=48 velocity=0 time=240
note_on channel=0 note=60 velocity=0 time=0
note_on channel=0 note=54 velocity=80 time=0
note_on channel=0 note=42 velocity=71 time=0
note_on channel=0 note=42 velocity=0 time=0
note_on channel=0 note=54 velocity=0 time=0
note_on channel=0 note=60 velocity=72 time=0
note_on channel=0 note=48 velocity=65 time=0
note_on channel=0 note=48 velocity=0 time=240
note_on channel=0 note=60 velocity=0 time=0
note_on channel=0 note=55 velocity=93 time=0
note_on channel=0 note=43 velocity=82 time=0
note_on channel=0 note=43 velocity=0 time=480
note_on channel=0 note=55 velocity=0 time=0
note_on channel=0 note=55 velocity=77 time=0
note_on channel=0 note=60 velocity=77 time=0
note_on channel=0 note=63 velocity=87 time=0
note_on channel=0 note=63 velocity=0 time=120
note_on channel=0 note=60 velocity=0 time=0
note_on channel=0 note=55 velocity=0 time=0
note_on channel=0 note=67 velocity=81 time=240
note_on channel=0 note=67 velocity=0 time=0
note_on channel=0 note=75 velocity=87 time=0
note_on channel=0 note=75 velocity=0 time=0
note_on channel=0 note=72 velocity=84 time=0
note_on channel=0 note=72 velocity=0 time=0
note_on channel=0 note=78 velocity=93 time=0
note_on channel=0 note=78 velocity=0 time=120
note_on channel=0 note=60 velocity=77 time=0
note_on channel=0 note=56 velocity=77 time=0
note_on channel=0 note=63 velocity=87 time=0
note_on channel=0 note=63 velocity=0 time=120
note_on channel=0 note=56 velocity=0 time=0
note_on channel=0 note=60 velocity=0 time=0
note_on channel=0 note=66 velocity=81 time=240
note_on channel=0 note=66 velocity=0 time=0
note_on channel=0 note=75 velocity=87 time=0
note_on channel=0 note=75 velocity=0 time=0
note_on channel=0 note=72 velocity=84 time=0
note_on channel=0 note=72 velocity=0 time=0
note_on channel=0 note=79 velocity=93 time=0
note_on channel=0 note=79 velocity=0 time=120
note_on channel=0 note=63 velocity=87 time=0
note_on channel=0 note=55 velocity=77 time=0
note_on channel=0 note=60 velocity=77 time=0
note_on channel=0 note=60 velocity=0 time=120
note_on channel=0 note=55 velocity=0 time=0
note_on channel=0 note=63 velocity=0 time=0
note_on channel=0 note=67 velocity=81 time=240
note_on channel=0 note=67 velocity=0 time=0
note_on channel=0 note=75 velocity=87 time=0
note_on channel=0 note=75 velocity=0 time=0
note_on channel=0 note=72 velocity=84 time=0
note_on channel=0 note=72 velocity=0 time=0
note_on channel=0 note=81 velocity=93 time=0
note_on channel=0 note=81 velocity=0 time=120
note_on channel=0 note=63 velocity=87 time=0
note_on channel=0 note=60 velocity=77 time=0
note_on channel=0 note=54 velocity=77 time=0
note_on channel=0 note=54 velocity=0 time=120
note_on channel=0 note=60 velocity=0 time=0
note_on channel=0 note=63 velocity=0 time=0
note_on channel=0 note=69 velocity=81 time=240
note_on channel=0 note=69 velocity=0 time=0
note_on channel=0 note=75 velocity=87 time=0
note_on channel=0 note=75 velocity=0 time=0
note_on channel=0 note=72 velocity=84 time=0
note_on channel=0 note=72 velocity=0 time=0
note_on channel=0 note=79 velocity=95 time=0
note_on channel=0 note=55 velocity=77 time=480
note_on channel=0 note=63 velocity=87 time=0
note_on channel=0 note=60 velocity=77 time=0
note_on channel=0 note=60 velocity=0 time=120
note_on channel=0 note=63 velocity=0 time=0
note_on channel=0 note=55 velocity=0 time=0
note_on channel=0 note=79 velocity=0 time=120
note_on channel=0 note=75 velocity=85 time=0
note_on channel=0 note=75 velocity=0 time=0
note_on channel=0 note=75 velocity=93 time=0
note_on channel=0 note=75 velocity=0 time=240
note_on channel=0 note=72 velocity=79 time=0
note_on channel=0 note=72 velocity=0 time=180
note_on channel=0 note=72 velocity=88 time=0
note_on channel=0 note=72 velocity=0 time=240
note_on channel=0 note=67 velocity=78 time=0
note_on channel=0 note=67 velocity=0 time=180
note_on channel=0 note=67 velocity=85 time=0
note_on channel=0 note=67 velocity=0 time=0
note_on channel=0 note=63 velocity=77 time=0
note_on channel=0 note=63 velocity=0 time=180
note_on channel=0 note=63 velocity=81 time=0
note_on channel=0 note=63 velocity=0 time=0
note_on channel=0 note=60 velocity=77 time=0
note_on channel=0 note=60 velocity=0 time=180
note_on channel=0 note=60 velocity=81 time=0
note_on channel=0 note=60 velocity=0 time=0
note_on channel=0 note=55 velocity=77 time=0
note_on channel=0 note=55 velocity=0 time=180
note_on channel=0 note=55 velocity=82 time=0
note_on channel=0 note=55 velocity=0 time=0
note_on channel=0 note=51 velocity=77 time=0
note_on channel=0 note=51 velocity=0 time=180
note_on channel=0 note=51 velocity=83 time=0
note_on channel=0 note=51 velocity=0 time=0
note_on channel=0 note=48 velocity=77 time=0
note_on channel=0 note=48 velocity=0 time=180
note_on channel=0 note=43 velocity=92 time=0
note_on channel=0 note=31 velocity=78 time=0
note_on channel=0 note=55 velocity=66 time=0
note_on channel=0 note=59 velocity=78 time=0
note_on channel=0 note=53 velocity=70 time=0
note_on channel=0 note=50 velocity=59 time=0
note_on channel=0 note=50 velocity=0 time=480
note_on channel=0 note=31 velocity=0 time=0
note_on channel=0 note=55 velocity=0 time=0
note_on channel=0 note=43 velocity=0 time=0
note_on channel=0 note=53 velocity=0 time=0
note_on channel=0 note=59 velocity=0 time=0
note_on channel=0 note=55 velocity=70 time=0
note_on channel=0 note=60 velocity=83 time=0
note_on channel=0 note=51 velocity=79 time=0
note_on channel=0 note=36 velocity=67 time=0
note_on channel=0 note=36 velocity=0 time=0
note_on channel=0 note=55 velocity=0 time=0
note_on channel=0 note=60 velocity=0 time=0
note_on channel=0 note=51 velocity=0 time=0
note_on channel=0 note=43 velocity=51 time=0
note_on channel=0 note=42 velocity=51 time=480
note_on channel=0 note=42 velocity=0 time=0
note_on channel=0 note=41 velocity=51 time=0
note_on channel=0 note=41 velocity=0 time=0
note_on channel=0 note=67 velocity=53 time=0
note_on channel=0 note=62 velocity=42 time=0
note_on channel=0 note=65 velocity=42 time=0
note_on channel=0 note=59 velocity=42 time=0
note_on channel=0 note=39 velocity=49 time=0
note_on channel=0 note=39 velocity=0 time=0
note_on channel=0 note=67 velocity=0 time=0
note_on channel=0 note=62 velocity=0 time=0
note_on channel=0 note=65 velocity=0 time=0
note_on channel=0 note=59 velocity=0 time=0
note_on channel=0 note=59 velocity=38 time=0
note_on channel=0 note=62 velocity=38 time=0
note_on channel=0 note=65 velocity=38 time=0
note_on channel=0 note=67 velocity=48 time=0
note_on channel=0 note=38 velocity=49 time=0
note_on channel=0 note=38 velocity=0 time=0
note_on channel=0 note=59 velocity=0 time=0
note_on channel=0 note=62 velocity=0 time=0
note_on channel=0 note=43 velocity=0 time=0
note_on channel=0 note=67 velocity=0 time=0
note_on channel=0 note=65 velocity=0 time=0
note_on channel=0 note=60 velocity=42 time=0
note_on channel=0 note=63 velocity=42 time=0
note_on channel=0 note=68 velocity=53 time=0
note_on channel=0 note=36 velocity=51 time=0
note_on channel=0 note=36 velocity=0 time=293
note_on channel=0 note=68 velocity=0 time=0
note_on channel=0 note=67 velocity=49 time=0
note_on channel=0 note=39 velocity=47 time=0
note_on channel=0 note=39 velocity=0 time=465
note_on channel=0 note=60 velocity=0 time=0
note_on channel=0 note=63 velocity=0 time=0
note_on channel=0 note=67 velocity=0 time=0
note_on channel=0 note=43 velocity=47 time=0
note_on channel=0 note=43 velocity=0 time=0
note_on channel=0 note=31 velocity=51 time=0
note_on channel=0 note=31 velocity=0 time=0
note_on channel=0 note=62 velocity=42 time=0
note_on channel=0 note=65 velocity=42 time=0
note_on channel=0 note=71 velocity=53 time=0
note_on channel=0 note=38 velocity=48 time=0
note_on channel=0 note=38 velocity=0 time=0
note_on channel=0 note=62 velocity=0 time=0
note_on channel=0 note=65 velocity=0 time=0
note_on channel=0 note=71 velocity=0 time=0
note_on channel=0 note=62 velocity=38 time=0
note_on channel=0 note=65 velocity=38 time=0
note_on channel=0 note=71 velocity=48 time=0
note_on channel=0 note=43 velocity=48 time=0
note_on channel=0 note=43 velocity=0 time=0
note_on channel=0 note=62 velocity=0 time=0
note_on channel=0 note=65 velocity=0 time=0
note_on channel=0 note=71 velocity=0 time=0
note_on channel=0 note=63 velocity=42 time=0
note_on channel=0 note=67 velocity=42 time=0
note_on channel=0 note=74 velocity=53 time=0
note_on channel=0 note=36 velocity=67 time=0
note_on channel=0 note=36 velocity=0 time=0
note_on channel=0 note=74 velocity=0 time=0
note_on channel=0 note=72 velocity=49 time=0
note_on channel=0 note=43 velocity=51 time=0
note_on channel=0 note=72 velocity=0 time=460
note_on channel=0 note=63 velocity=0 time=0
note_on channel=0 note=67 velocity=0 time=0
note_on channel=0 note=42 velocity=51 time=0
note_on channel=0 note=42 velocity=0 time=0
note_on channel=0 note=41 velocity=51 time=0
note_on channel=0 note=41 velocity=0 time=0
note_on channel=0 note=59 velocity=42 time=0
note_on channel=0 note=62 velocity=42 time=0
note_on channel=0 note=65 velocity=42 time=0
note_on channel=0 note=67 velocity=53 time=0
note_on channel=0 note=39 velocity=49 time=0
note_on channel=0 note=39 velocity=0 time=0
note_on channel=0 note=59 velocity=0 time=0
note_on channel=0 note=62 velocity=0 time=0
note_on channel=0 note=65 velocity=0 time=0
note_on channel=0 note=67 velocity=0 time=0
note_on channel=0 note=67 velocity=48 time=0
note_on channel=0 note=62 velocity=38 time=0
note_on channel=0 note=65 velocity=38 time=0
note_on channel=0 note=59 velocity=38 time=0
note_on channel=0 note=38 velocity=49 time=0
note_on channel=0 note=38 velocity=0 time=0
note_on channel=0 note=67 velocity=0 time=0
note_on channel=0 note=62 velocity=0 time=0
note_on channel=0 note=43 velocity=0 time=0
note_on channel=0 note=59 velocity=0 time=0
note_on channel=0 note=65 velocity=0 time=0
note_on channel=0 note=60 velocity=42 time=0
note_on channel=0 note=63 velocity=42 time=0
note_on channel=0 note=68 velocity=53 time=0
note_on channel=0 note=36 velocity=51 time=0
note_on channel=0 note=36 velocity=0 time=240
note_on channel=0 note=68 velocity=0 time=0
note_on channel=0 note=67 velocity=49 time=0
note_on channel=0 note=39 velocity=47 time=0
note_on channel=0 note=39 velocity=0 time=460
note_on channel=0 note=60 velocity=0 time=0
note_on channel=0 note=63 velocity=0 time=0
note_on channel=0 note=67 velocity=0 time=0
note_on channel=0 note=43 velocity=47 time=0
note_on channel=0 note=43 velocity=0 time=0
note_on channel=0 note=31 velocity=51 time=0
note_on channel=0 note=31 velocity=0 time=0
note_on channel=0 note=50 velocity=42 time=0
note_on channel=0 note=53 velocity=42 time=0
note_on channel=0 note=59 velocity=53 time=0
note_on channel=0 note=38 velocity=48 time=0
note_on channel=0 note=38 velocity=0 time=0
note_on channel=0 note=50 velocity=0 time=0
note_on channel=0 note=53 velocity=0 time=0
note_on channel=0 note=59 velocity=0 time=0
note_on channel=0 note=50 velocity=38 time=0
note_on channel=0 note=53 velocity=38 time=0
note_on channel=0 note=59 velocity=48 time=0
note_on channel=0 note=43 velocity=48 time=0
note_on channel=0 note=43 velocity=0 time=0
note_on channel=0 note=50 velocity=0 time=0
note_on channel=0 note=53 velocity=0 time=0
note_on channel=0 note=59 velocity=0 time=0
note_on channel=0 note=51 velocity=42 time=0
note_on channel=0 note=55 velocity=42 time=0
note_on channel=0 note=62 velocity=53 time=0
note_on channel=0 note=36 velocity=51 time=0
note_on channel=0 note=36 velocity=0 time=240
note_on channel=0 note=62 velocity=0 time=0
note_on channel=0 note=60 velocity=49 time=0
note_on channel=0 note=39 velocity=47 time=0
note_on channel=0 note=39 velocity=0 time=460
note_on channel=0 note=51 velocity=0 time=0
note_on channel=0 note=55 velocity=0 time=0
note_on channel=0 note=60 velocity=0 time=0
note_on channel=0 note=43 velocity=47 time=0
note_on channel=0 note=43 velocity=0 time=0
note_on channel=0 note=31 velocity=51 time=0
note_on channel=0 note=31 velocity=0 time=0
note_on channel=0 note=50 velocity=42 time=0
note_on channel=0 note=53 velocity=42 time=0
note_on channel=0 note=59 velocity=53 time=0
note_on channel=0 note=38 velocity=48 time=0
note_on channel=0 note=38 velocity=0 time=0
note_on channel=0 note=50 velocity=0 time=0
note_on channel=0 note=53 velocity=0 time=0
note_on channel=0 note=59 velocity=0 time=0
note_on channel=0 note=50 velocity=38 time=0
note_on channel=0 note=53 velocity=38 time=0
note_on channel=0 note=59 velocity=48 time=0
note_on channel=0 note=43 velocity=48 time=0
note_on channel=0 note=43 velocity=0 time=0
note_on channel=0 note=50 velocity=0 time=0
note_on channel=0 note=53 velocity=0 time=0
note_on channel=0 note=59 velocity=0 time=0
note_on channel=0 note=51 velocity=42 time=0
note_on channel=0 note=55 velocity=42 time=0
note_on channel=0 note=60 velocity=53 time=0
note_on channel=0 note=36 velocity=51 time=0
note_on channel=0 note=36 velocity=0 time=0
note_on channel=0 note=51 velocity=0 time=0
note_on channel=0 note=55 velocity=0 time=0
note_on channel=0 note=60 velocity=0 time=0
note_on channel=0 note=67 velocity=82 time=480
note_on channel=0 note=71 velocity=82 time=0
note_on channel=0 note=74 velocity=82 time=0
note_on channel=0 note=79 velocity=97 time=0
note_on channel=0 note=31 velocity=60 time=0
note_on channel=0 note=35 velocity=60 time=0
note_on channel=0 note=38 velocity=60 time=0
note_on channel=0 note=43 velocity=71 time=0
note_on channel=0 note=43 velocity=0 time=0
note_on channel=0 note=67 velocity=0 time=0
note_on channel=0 note=31 velocity=0 time=0
note_on channel=0 note=71 velocity=0 time=0
note_on channel=0 note=74 velocity=0 time=0
note_on channel=0 note=79 velocity=0 time=0
note_on channel=0 note=35 velocity=0 time=0
note_on channel=0 note=38 velocity=0 time=0
note_on channel=0 note=60 velocity=82 time=800
note_on channel=0 note=63 velocity=82 time=0
note_on channel=0 note=67 velocity=82 time=0
note_on channel=0 note=72 velocity=97 time=0
note_on channel=0 note=36 velocity=60 time=0
note_on channel=0 note=39 velocity=60 time=0
note_on channel=0 note=43 velocity=60 time=0
note_on channel=0 note=48 velocity=71 time=0
note_on channel=0 note=48 velocity=0 time=320
note_on channel=0 note=60 velocity=0 time=0
note_on channel=0 note=36 velocity=0 time=0
note_on channel=0 note=63 velocity=0 time=0
note_on channel=0 note=67 velocity=0 time=0
note_on channel=0 note=72 velocity=0 time=0
note_on channel=0 note=39 velocity=0 time=0
note_on channel=0 note=43 velocity=0 time=0
