control_change channel=0 control=7 value=100 time=0
control_change channel=0 control=10 value=64 time=0
control_change channel=0 control=91 value=127 time=0
control_change channel=0 control=7 value=100 time=0
control_change channel=0 control=10 value=64 time=0
note_on channel=0 note=76 velocity=36 time=0
note_on channel=0 note=76 velocity=0 time=0
note_on channel=0 note=75 velocity=33 time=0
note_on channel=0 note=75 velocity=0 time=0
note_on channel=0 note=76 velocity=39 time=0
note_on channel=0 note=76 velocity=0 time=16
note_on channel=0 note=75 velocity=36 time=0
note_on channel=0 note=75 velocity=0 time=0
note_on channel=0 note=76 velocity=45 time=0
note_on channel=0 note=76 velocity=0 time=0
note_on channel=0 note=71 velocity=40 time=0
note_on channel=0 note=71 velocity=0 time=120
note_on channel=0 note=74 velocity=47 time=0
note_on channel=0 note=74 velocity=0 time=0
note_on channel=0 note=72 velocity=39 time=0
note_on channel=0 note=72 velocity=0 time=0
note_on channel=0 note=69 velocity=51 time=0
note_on channel=0 note=45 velocity=37 time=0
control_change channel=0 control=64 value=127 time=36
note_on channel=0 note=45 velocity=0 time=84
note_on channel=0 note=52 velocity=33 time=0
note_on channel=0 note=52 velocity=0 time=120
note_on channel=0 note=69 velocity=0 time=0
note_on channel=0 note=57 velocity=33 time=0
note_on channel=0 note=57 velocity=0 time=0
note_on channel=0 note=60 velocity=34 time=0
note_on channel=0 note=60 velocity=0 time=120
note_on channel=0 note=64 velocity=38 time=0
note_on channel=0 note=64 velocity=0 time=0
note_on channel=0 note=69 velocity=42 time=0
note_on channel=0 note=69 velocity=0 time=0
note_on channel=0 note=71 velocity=46 time=0
note_on channel=0 note=40 velocity=40 time=0
control_change channel=0 control=64 value=0 time=19
control_change channel=0 control=64 value=127 time=38
note_on channel=0 note=40 velocity=0 time=63
note_on channel=0 note=52 velocity=33 time=0
note_on channel=0 note=52 velocity=0 time=0
note_on channel=0 note=71 velocity=0 time=0
note_on channel=0 note=56 velocity=34 time=0
note_on channel=0 note=56 velocity=0 time=120
note_on channel=0 note=64 velocity=36 time=0
note_on channel=0 note=64 velocity=0 time=120
note_on channel=0 note=68 velocity=39 time=0
note_on channel=0 note=68 velocity=0 time=0
note_on channel=0 note=71 velocity=42 time=0
note_on channel=0 note=71 velocity=0 time=0
note_on channel=0 note=72 velocity=45 time=0
note_on channel=0 note=45 velocity=38 time=0
control_change channel=0 control=64 value=0 time=6
control_change channel=0 control=64 value=127 time=45
note_on channel=0 note=45 velocity=0 time=69
note_on channel=0 note=52 velocity=35 time=0
note_on channel=0 note=52 velocity=0 time=120
note_on channel=0 note=72 velocity=0 time=0
note_on channel=0 note=57 velocity=35 time=0
note_on channel=0 note=57 velocity=0 time=120
note_on channel=0 note=64 velocity=35 time=0
control_change channel=0 control=64 value=0 time=34
note_on channel=0 note=64 velocity=0 time=0
note_on channel=0 note=76 velocity=38 time=0
note_on channel=0 note=76 velocity=0 time=0
note_on channel=0 note=75 velocity=34 time=0
note_on channel=0 note=75 velocity=0 time=0
note_on channel=0 note=76 velocity=41 time=0
note_on channel=0 note=76 velocity=0 time=108
note_on channel=0 note=75 velocity=37 time=0
note_on channel=0 note=75 velocity=0 time=120
note_on channel=0 note=76 velocity=46 time=0
note_on channel=0 note=76 velocity=0 time=0
note_on channel=0 note=71 velocity=39 time=0
note_on channel=0 note=71 velocity=0 time=120
note_on channel=0 note=74 velocity=48 time=0
note_on channel=0 note=74 velocity=0 time=0
note_on channel=0 note=72 velocity=39 time=0
note_on channel=0 note=72 velocity=0 time=0
note_on channel=0 note=69 velocity=48 time=0
note_on channel=0 note=45 velocity=36 time=0
control_change channel=0 control=64 value=127 time=50
note_on channel=0 note=45 velocity=0 time=70
note_on channel=0 note=52 velocity=35 time=0
note_on channel=0 note=52 velocity=0 time=120
note_on channel=0 note=69 velocity=0 time=0
note_on channel=0 note=57 velocity=34 time=0
note_on channel=0 note=57 velocity=0 time=0
note_on channel=0 note=60 velocity=34 time=0
note_on channel=0 note=60 velocity=0 time=120
note_on channel=0 note=64 velocity=37 time=0
note_on channel=0 note=64 velocity=0 time=0
note_on channel=0 note=69 velocity=41 time=0
note_on channel=0 note=69 velocity=0 time=0
note_on channel=0 note=71 velocity=45 time=0
note_on channel=0 note=40 velocity=38 time=0
control_change channel=0 control=64 value=0 time=11
control_change channel=0 control=64 value=127 time=58
note_on channel=0 note=40 velocity=0 time=51
note_on channel=0 note=52 velocity=35 time=0
note_on channel=0 note=52 velocity=0 time=0
note_on channel=0 note=71 velocity=0 time=0
note_on channel=0 note=56 velocity=36 time=0
note_on channel=0 note=56 velocity=0 time=0
note_on channel=0 note=64 velocity=37 time=0
note_on channel=0 note=64 velocity=0 time=0
note_on channel=0 note=72 velocity=40 time=0
note_on channel=0 note=72 velocity=0 time=0
note_on channel=0 note=71 velocity=38 time=0
note_on channel=0 note=71 velocity=0 time=0
note_on channel=0 note=69 velocity=40 time=0
note_on channel=0 note=45 velocity=38 time=0
control_change channel=0 control=64 value=0 time=18
control_change channel=0 control=64 value=127 time=38
note_on channel=0 note=45 velocity=0 time=64
note_on channel=0 note=52 velocity=32 time=0
note_on channel=0 note=52 velocity=0 time=120
note_on channel=0 note=69 velocity=0 time=0
note_on channel=0 note=57 velocity=32 time=0
note_on channel=0 note=57 velocity=0 time=0
control_change channel=0 control=64 value=0 time=23
note_on channel=0 note=76 velocity=36 time=0
note_on channel=0 note=76 velocity=0 time=16
note_on channel=0 note=75 velocity=33 time=0
note_on channel=0 note=75 velocity=0 time=0
note_on channel=0 note=76 velocity=39 time=0
note_on channel=0 note=76 velocity=0 time=120
note_on channel=0 note=75 velocity=36 time=0
note_on channel=0 note=75 velocity=0 time=0
note_on channel=0 note=76 velocity=45 time=0
note_on channel=0 note=76 velocity=0 time=0
note_on channel=0 note=71 velocity=40 time=0
note_on channel=0 note=71 velocity=0 time=120
note_on channel=0 note=74 velocity=47 time=0
note_on channel=0 note=74 velocity=0 time=0
note_on channel=0 note=72 velocity=39 time=0
note_on channel=0 note=72 velocity=0 time=0
note_on channel=0 note=69 velocity=51 time=0
note_on channel=0 note=45 velocity=37 time=0
control_change channel=0 control=64 value=127 time=43
note_on channel=0 note=45 velocity=0 time=77
note_on channel=0 note=52 velocity=33 time=0
note_on channel=0 note=52 velocity=0 time=120
note_on channel=0 note=69 velocity=0 time=0
note_on channel=0 note=57 velocity=33 time=0
note_on channel=0 note=57 velocity=0 time=0
note_on channel=0 note=60 velocity=34 time=0
note_on channel=0 note=60 velocity=0 time=120
note_on channel=0 note=64 velocity=38 time=0
note_on channel=0 note=64 velocity=0 time=0
note_on channel=0 note=69 velocity=42 time=0
note_on channel=0 note=69 velocity=0 time=0
note_on channel=0 note=71 velocity=46 time=0
note_on channel=0 note=40 velocity=40 time=0
control_change channel=0 control=64 value=0 time=19
control_change channel=0 control=64 value=127 time=38
note_on channel=0 note=40 velocity=0 time=63
note_on channel=0 note=52 velocity=33 time=0
note_on channel=0 note=52 velocity=0 time=0
note_on channel=0 note=71 velocity=0 time=0
note_on channel=0 note=56 velocity=34 time=0
note_on channel=0 note=56 velocity=0 time=120
note_on channel=0 note=64 velocity=36 time=0
note_on channel=0 note=64 velocity=0 time=120
note_on channel=0 note=68 velocity=39 time=0
note_on channel=0 note=68 velocity=0 time=0
note_on channel=0 note=71 velocity=42 time=0
note_on channel=0 note=71 velocity=0 time=0
note_on channel=0 note=72 velocity=45 time=0
note_on channel=0 note=45 velocity=38 time=0
control_change channel=0 control=64 value=0 time=6
control_change channel=0 control=64 value=127 time=45
note_on channel=0 note=45 velocity=0 time=69
note_on channel=0 note=52 velocity=35 time=0
note_on channel=0 note=52 velocity=0 time=120
note_on channel=0 note=72 velocity=0 time=0
note_on channel=0 note=57 velocity=35 time=0
note_on channel=0 note=57 velocity=0 time=120
note_on channel=0 note=64 velocity=35 time=0
control_change channel=0 control=64 value=0 time=34
note_on channel=0 note=64 velocity=0 time=16
note_on channel=0 note=76 velocity=38 time=0
note_on channel=0 note=76 velocity=0 time=28
note_on channel=0 note=75 velocity=34 time=0
note_on channel=0 note=75 velocity=0 time=0
note_on channel=0 note=76 velocity=41 time=0
note_on channel=0 note=76 velocity=0 time=120
note_on channel=0 note=75 velocity=37 time=0
note_on channel=0 note=75 velocity=0 time=0
note_on channel=0 note=76 velocity=46 time=0
note_on channel=0 note=76 velocity=0 time=0
note_on channel=0 note=71 velocity=39 time=0
note_on channel=0 note=71 velocity=0 time=120
note_on channel=0 note=74 velocity=48 time=0
note_on channel=0 note=74 velocity=0 time=0
note_on channel=0 note=72 velocity=39 time=0
note_on channel=0 note=72 velocity=0 time=0
note_on channel=0 note=69 velocity=48 time=0
note_on channel=0 note=45 velocity=38 time=0
control_change channel=0 control=64 value=127 time=64
note_on channel=0 note=45 velocity=0 time=56
note_on channel=0 note=52 velocity=35 time=0
note_on channel=0 note=52 velocity=0 time=120
note_on channel=0 note=69 velocity=0 time=0
note_on channel=0 note=57 velocity=34 time=0
note_on channel=0 note=57 velocity=0 time=0
note_on channel=0 note=60 velocity=34 time=0
note_on channel=0 note=60 velocity=0 time=120
note_on channel=0 note=64 velocity=37 time=0
note_on channel=0 note=64 velocity=0 time=0
note_on channel=0 note=69 velocity=41 time=0
note_on channel=0 note=69 velocity=0 time=0
note_on channel=0 note=71 velocity=45 time=0
note_on channel=0 note=40 velocity=38 time=0
control_change channel=0 control=64 value=0 time=11
control_change channel=0 control=64 value=127 time=58
note_on channel=0 note=40 velocity=0 time=51
note_on channel=0 note=52 velocity=37 time=0
note_on channel=0 note=52 velocity=0 time=0
note_on channel=0 note=71 velocity=0 time=0
note_on channel=0 note=56 velocity=37 time=0
note_on channel=0 note=56 velocity=0 time=0
note_on channel=0 note=64 velocity=37 time=0
note_on channel=0 note=64 velocity=0 time=120
note_on channel=0 note=72 velocity=40 time=0
note_on channel=0 note=72 velocity=0 time=0
note_on channel=0 note=71 velocity=38 time=0
note_on channel=0 note=71 velocity=0 time=0
note_on channel=0 note=69 velocity=40 time=0
note_on channel=0 note=45 velocity=38 time=0
control_change channel=0 control=64 value=0 time=18
control_change channel=0 control=64 value=127 time=38
note_on channel=0 note=45 velocity=0 time=0
note_on channel=0 note=52 velocity=32 time=0
note_on channel=0 note=52 velocity=0 time=0
note_on channel=0 note=69 velocity=0 time=0
note_on channel=0 note=57 velocity=32 time=0
control_change channel=0 control=64 value=0 time=42
note_on channel=0 note=57 velocity=0 time=0
note_on channel=0 note=71 velocity=42 time=0
note_on channel=0 note=71 velocity=0 time=120
note_on channel=0 note=72 velocity=45 time=0
note_on channel=0 note=72 velocity=0 time=0
note_on channel=0 note=74 velocity=48 time=0
note_on channel=0 note=74 velocity=0 time=0
note_on channel=0 note=76 velocity=51 time=0
note_on channel=0 note=48 velocity=44 time=0
control_change channel=0 control=64 value=0 time=11
control_change channel=0 control=64 value=127 time=58
note_on channel=0 note=48 velocity=0 time=51
note_on channel=0 note=55 velocity=38 time=0
note_on channel=0 note=55 velocity=0 time=0
note_on channel=0 note=60 velocity=39 time=0
note_on channel=0 note=60 velocity=0 time=0
note_on channel=0 note=76 velocity=0 time=0
note_on channel=0 note=67 velocity=40 time=0
note_on channel=0 note=67 velocity=0 time=0
note_on channel=0 note=77 velocity=46 time=0
note_on channel=0 note=77 velocity=0 time=120
note_on channel=0 note=76 velocity=43 time=0
note_on channel=0 note=76 velocity=0 time=0
note_on channel=0 note=74 velocity=50 time=0
note_on channel=0 note=43 velocity=44 time=0
control_change channel=0 control=64 value=0 time=11
control_change channel=0 control=64 value=127 time=58
note_on channel=0 note=43 velocity=0 time=51
note_on channel=0 note=55 velocity=38 time=0
note_on channel=0 note=55 velocity=0 time=0
note_on channel=0 note=59 velocity=39 time=0
note_on channel=0 note=59 velocity=0 time=0
note_on channel=0 note=74 velocity=0 time=0
note_on channel=0 note=65 velocity=40 time=0
note_on channel=0 note=65 velocity=0 time=0
note_on channel=0 note=76 velocity=46 time=0
note_on channel=0 note=76 velocity=0 time=120
note_on channel=0 note=74 velocity=43 time=0
note_on channel=0 note=74 velocity=0 time=0
note_on channel=0 note=72 velocity=50 time=0
note_on channel=0 note=45 velocity=44 time=0
control_change channel=0 control=64 value=0 time=11
control_change channel=0 control=64 value=127 time=58
note_on channel=0 note=45 velocity=0 time=51
note_on channel=0 note=52 velocity=38 time=0
note_on channel=0 note=52 velocity=0 time=0
note_on channel=0 note=57 velocity=39 time=0
note_on channel=0 note=57 velocity=0 time=0
note_on channel=0 note=72 velocity=0 time=0
note_on channel=0 note=64 velocity=40 time=0
note_on channel=0 note=64 velocity=0 time=0
note_on channel=0 note=74 velocity=46 time=0
note_on channel=0 note=74 velocity=0 time=0
note_on channel=0 note=72 velocity=43 time=0
note_on channel=0 note=72 velocity=0 time=0
note_on channel=0 note=71 velocity=50 time=0
note_on channel=0 note=40 velocity=44 time=0
control_change channel=0 control=64 value=0 time=11
control_change channel=0 control=64 value=127 time=58
note_on channel=0 note=40 velocity=0 time=51
note_on channel=0 note=52 velocity=38 time=0
note_on channel=0 note=52 velocity=0 time=0
note_on channel=0 note=71 velocity=0 time=0
note_on channel=0 note=64 velocity=39 time=0
note_on channel=0 note=64 velocity=0 time=90
note_on channel=0 note=64 velocity=39 time=0
note_on channel=0 note=64 velocity=0 time=0
note_on channel=0 note=76 velocity=45 time=0
note_on channel=0 note=76 velocity=0 time=90
note_on channel=0 note=64 velocity=39 time=0
note_on channel=0 note=64 velocity=0 time=0
note_on channel=0 note=76 velocity=44 time=0
note_on channel=0 note=76 velocity=0 time=90
note_on channel=0 note=76 velocity=43 time=0
note_on channel=0 note=76 velocity=0 time=0
note_on channel=0 note=88 velocity=48 time=0
control_change channel=0 control=64 value=0 time=78
note_on channel=0 note=88 velocity=0 time=12
note_on channel=0 note=75 velocity=42 time=0
note_on channel=0 note=75 velocity=0 time=0
note_on channel=0 note=76 velocity=50 time=0
note_on channel=0 note=76 velocity=0 time=90
note_on channel=0 note=75 velocity=42 time=30
note_on channel=0 note=75 velocity=0 time=0
note_on channel=0 note=76 velocity=48 time=0
note_on channel=0 note=76 velocity=0 time=90
note_on channel=0 note=75 velocity=39 time=0
note_on channel=0 note=75 velocity=0 time=20
note_on channel=0 note=76 velocity=41 time=0
note_on channel=0 note=76 velocity=0 time=10
note_on channel=0 note=75 velocity=35 time=30
note_on channel=0 note=75 velocity=0 time=60
note_on channel=0 note=76 velocity=37 time=0
note_on channel=0 note=76 velocity=0 time=80
note_on channel=0 note=75 velocity=34 time=0
note_on channel=0 note=75 velocity=0 time=0
note_on channel=0 note=76 velocity=40 time=0
note_on channel=0 note=76 velocity=0 time=0
note_on channel=0 note=75 velocity=36 time=0
note_on channel=0 note=75 velocity=0 time=0
note_on channel=0 note=76 velocity=40 time=0
note_on channel=0 note=76 velocity=0 time=0
note_on channel=0 note=71 velocity=35 time=0
note_on channel=0 note=71 velocity=0 time=0
note_on channel=0 note=74 velocity=42 time=0
note_on channel=0 note=74 velocity=0 time=0
note_on channel=0 note=72 velocity=37 time=0
note_on channel=0 note=72 velocity=0 time=0
note_on channel=0 note=69 velocity=45 time=0
note_on channel=0 note=45 velocity=36 time=0
control_change channel=0 control=64 value=127 time=50
note_on channel=0 note=45 velocity=0 time=70
note_on channel=0 note=52 velocity=33 time=0
note_on channel=0 note=52 velocity=0 time=120
note_on channel=0 note=69 velocity=0 time=0
note_on channel=0 note=57 velocity=33 time=0
note_on channel=0 note=57 velocity=0 time=0
note_on channel=0 note=60 velocity=34 time=0
note_on channel=0 note=60 velocity=0 time=120
note_on channel=0 note=64 velocity=38 time=0
note_on channel=0 note=64 velocity=0 time=0
note_on channel=0 note=69 velocity=42 time=0
note_on channel=0 note=69 velocity=0 time=0
note_on channel=0 note=71 velocity=46 time=0
note_on channel=0 note=40 velocity=40 time=0
control_change channel=0 control=64 value=0 time=19
control_change channel=0 control=64 value=127 time=38
note_on channel=0 note=40 velocity=0 time=63
note_on channel=0 note=52 velocity=33 time=0
note_on channel=0 note=52 velocity=0 time=0
note_on channel=0 note=71 velocity=0 time=0
note_on channel=0 note=56 velocity=34 time=0
note_on channel=0 note=56 velocity=0 time=120
note_on channel=0 note=64 velocity=36 time=0
note_on channel=0 note=64 velocity=0 time=120
note_on channel=0 note=68 velocity=39 time=0
note_on channel=0 note=68 velocity=0 time=0
note_on channel=0 note=71 velocity=42 time=0
note_on channel=0 note=71 velocity=0 time=0
note_on channel=0 note=72 velocity=45 time=0
note_on channel=0 note=45 velocity=38 time=0
control_change channel=0 control=64 value=0 time=6
control_change channel=0 control=64 value=127 time=45
note_on channel=0 note=45 velocity=0 time=69
note_on channel=0 note=52 velocity=35 time=0
note_on channel=0 note=52 velocity=0 time=120
note_on channel=0 note=72 velocity=0 time=0
note_on channel=0 note=57 velocity=35 time=0
note_on channel=0 note=57 velocity=0 time=120
note_on channel=0 note=64 velocity=35 time=0
control_change channel=0 control=64 value=0 time=34
note_on channel=0 note=64 velocity=0 time=0
note_on channel=0 note=76 velocity=38 time=0
note_on channel=0 note=76 velocity=0 time=40
note_on channel=0 note=75 velocity=34 time=0
note_on channel=0 note=75 velocity=0 time=40
note_on channel=0 note=76 velocity=41 time=0
note_on channel=0 note=76 velocity=0 time=100
note_on channel=0 note=75 velocity=37 time=0
note_on channel=0 note=75 velocity=0 time=20
note_on channel=0 note=76 velocity=46 time=0
note_on channel=0 note=76 velocity=0 time=0
note_on channel=0 note=71 velocity=39 time=0
note_on channel=0 note=71 velocity=0 time=120
note_on channel=0 note=74 velocity=48 time=0
note_on channel=0 note=74 velocity=0 time=0
note_on channel=0 note=72 velocity=39 time=0
note_on channel=0 note=72 velocity=0 time=0
note_on channel=0 note=69 velocity=46 time=0
note_on channel=0 note=45 velocity=38 time=0
control_change channel=0 control=64 value=127 time=57
note_on channel=0 note=45 velocity=0 time=63
note_on channel=0 note=52 velocity=35 time=0
note_on channel=0 note=52 velocity=0 time=120
note_on channel=0 note=69 velocity=0 time=0
note_on channel=0 note=57 velocity=34 time=0
note_on channel=0 note=57 velocity=0 time=0
note_on channel=0 note=60 velocity=34 time=0
note_on channel=0 note=60 velocity=0 time=120
note_on channel=0 note=64 velocity=37 time=0
note_on channel=0 note=64 velocity=0 time=0
note_on channel=0 note=69 velocity=41 time=0
note_on channel=0 note=69 velocity=0 time=0
note_on channel=0 note=71 velocity=45 time=0
note_on channel=0 note=40 velocity=38 time=0
control_change channel=0 control=64 value=0 time=11
control_change channel=0 control=64 value=127 time=58
note_on channel=0 note=40 velocity=0 time=51
note_on channel=0 note=52 velocity=37 time=0
note_on channel=0 note=52 velocity=0 time=0
note_on channel=0 note=71 velocity=0 time=0
note_on channel=0 note=56 velocity=37 time=0
note_on channel=0 note=56 velocity=0 time=0
note_on channel=0 note=64 velocity=37 time=0
note_on channel=0 note=64 velocity=0 time=0
note_on channel=0 note=72 velocity=40 time=0
note_on channel=0 note=72 velocity=0 time=0
note_on channel=0 note=71 velocity=38 time=0
note_on channel=0 note=71 velocity=0 time=0
note_on channel=0 note=69 velocity=40 time=0
note_on channel=0 note=45 velocity=38 time=0
control_change channel=0 control=64 value=0 time=18
control_change channel=0 control=64 value=127 time=38
note_on channel=0 note=45 velocity=0 time=64
note_on channel=0 note=52 velocity=32 time=0
note_on channel=0 note=52 velocity=0 time=0
note_on channel=0 note=69 velocity=0 time=0
note_on channel=0 note=57 velocity=32 time=0
note_on channel=0 note=57 velocity=0 time=0
note_on channel=0 note=71 velocity=43 time=0
control_change channel=0 control=64 value=0 time=23
note_on channel=0 note=71 velocity=0 time=97
note_on channel=0 note=72 velocity=45 time=0
note_on channel=0 note=72 velocity=0 time=0
note_on channel=0 note=74 velocity=47 time=0
note_on channel=0 note=74 velocity=0 time=0
note_on channel=0 note=76 velocity=50 time=0
note_on channel=0 note=48 velocity=44 time=0
control_change channel=0 control=64 value=0 time=11
control_change channel=0 control=64 value=127 time=58
note_on channel=0 note=48 velocity=0 time=51
note_on channel=0 note=55 velocity=38 time=0
note_on channel=0 note=55 velocity=0 time=0
note_on channel=0 note=60 velocity=39 time=0
note_on channel=0 note=60 velocity=0 time=0
note_on channel=0 note=76 velocity=0 time=0
note_on channel=0 note=67 velocity=40 time=0
note_on channel=0 note=67 velocity=0 time=0
note_on channel=0 note=77 velocity=46 time=0
note_on channel=0 note=77 velocity=0 time=120
note_on channel=0 note=76 velocity=43 time=0
note_on channel=0 note=76 velocity=0 time=0
note_on channel=0 note=74 velocity=50 time=0
note_on channel=0 note=43 velocity=44 time=0
control_change channel=0 control=64 value=0 time=11
control_change channel=0 control=64 value=127 time=58
note_on channel=0 note=43 velocity=0 time=51
note_on channel=0 note=55 velocity=38 time=0
note_on channel=0 note=55 velocity=0 time=0
note_on channel=0 note=59 velocity=39 time=0
note_on channel=0 note=59 velocity=0 time=0
note_on channel=0 note=74 velocity=0 time=0
note_on channel=0 note=65 velocity=40 time=0
note_on channel=0 note=65 velocity=0 time=0
note_on channel=0 note=76 velocity=46 time=0
note_on channel=0 note=76 velocity=0 time=120
note_on channel=0 note=74 velocity=43 time=0
note_on channel=0 note=74 velocity=0 time=0
note_on channel=0 note=72 velocity=50 time=0
note_on channel=0 note=45 velocity=44 time=0
control_change channel=0 control=64 value=0 time=11
control_change channel=0 control=64 value=127 time=58
note_on channel=0 note=45 velocity=0 time=51
note_on channel=0 note=52 velocity=38 time=0
note_on channel=0 note=52 velocity=0 time=0
note_on channel=0 note=57 velocity=39 time=0
note_on channel=0 note=57 velocity=0 time=0
note_on channel=0 note=72 velocity=0 time=0
note_on channel=0 note=64 velocity=40 time=0
note_on channel=0 note=64 velocity=0 time=0
note_on channel=0 note=74 velocity=46 time=0
note_on channel=0 note=74 velocity=0 time=0
note_on channel=0 note=72 velocity=43 time=0
note_on channel=0 note=72 velocity=0 time=0
note_on channel=0 note=71 velocity=50 time=0
note_on channel=0 note=40 velocity=44 time=0
control_change channel=0 control=64 value=0 time=11
control_change channel=0 control=64 value=127 time=58
note_on channel=0 note=40 velocity=0 time=51
note_on channel=0 note=52 velocity=38 time=0
note_on channel=0 note=52 velocity=0 time=0
note_on channel=0 note=71 velocity=0 time=0
note_on channel=0 note=64 velocity=39 time=0
note_on channel=0 note=64 velocity=0 time=90
note_on channel=0 note=64 velocity=39 time=0
note_on channel=0 note=64 velocity=0 time=0
note_on channel=0 note=76 velocity=45 time=0
note_on channel=0 note=76 velocity=0 time=90
note_on channel=0 note=64 velocity=39 time=0
note_on channel=0 note=64 velocity=0 time=0
note_on channel=0 note=76 velocity=44 time=0
note_on channel=0 note=76 velocity=0 time=90
note_on channel=0 note=76 velocity=43 time=0
note_on channel=0 note=76 velocity=0 time=0
note_on channel=0 note=88 velocity=48 time=0
control_change channel=0 control=64 value=0 time=78
note_on channel=0 note=88 velocity=0 time=12
note_on channel=0 note=75 velocity=42 time=0
note_on channel=0 note=75 velocity=0 time=0
note_on channel=0 note=76 velocity=50 time=0
note_on channel=0 note=76 velocity=0 time=90
note_on channel=0 note=75 velocity=42 time=0
note_on channel=0 note=75 velocity=0 time=0
note_on channel=0 note=76 velocity=48 time=0
note_on channel=0 note=76 velocity=0 time=90
note_on channel=0 note=75 velocity=39 time=20
note_on channel=0 note=75 velocity=0 time=60
note_on channel=0 note=76 velocity=41 time=0
note_on channel=0 note=76 velocity=0 time=50
note_on channel=0 note=75 velocity=35 time=0
note_on channel=0 note=75 velocity=0 time=20
note_on channel=0 note=76 velocity=37 time=0
note_on channel=0 note=76 velocity=0 time=60
note_on channel=0 note=75 velocity=34 time=0
note_on channel=0 note=75 velocity=0 time=0
note_on channel=0 note=76 velocity=39 time=0
note_on channel=0 note=76 velocity=0 time=0
note_on channel=0 note=75 velocity=36 time=0
note_on channel=0 note=75 velocity=0 time=120
note_on channel=0 note=76 velocity=39 time=0
note_on channel=0 note=76 velocity=0 time=0
note_on channel=0 note=71 velocity=35 time=0
note_on channel=0 note=71 velocity=0 time=0
note_on channel=0 note=74 velocity=40 time=0
note_on channel=0 note=74 velocity=0 time=0
note_on channel=0 note=72 velocity=33 time=0
note_on channel=0 note=72 velocity=0 time=0
note_on channel=0 note=69 velocity=46 time=0
note_on channel=0 note=45 velocity=34 time=0
control_change channel=0 control=64 value=127 time=50
note_on channel=0 note=45 velocity=0 time=70
note_on channel=0 note=52 velocity=32 time=0
note_on channel=0 note=52 velocity=0 time=120
note_on channel=0 note=69 velocity=0 time=0
note_on channel=0 note=57 velocity=32 time=0
note_on channel=0 note=57 velocity=0 time=0
note_on channel=0 note=60 velocity=34 time=0
note_on channel=0 note=60 velocity=0 time=120
note_on channel=0 note=64 velocity=38 time=0
note_on channel=0 note=64 velocity=0 time=0
note_on channel=0 note=69 velocity=42 time=0
note_on channel=0 note=69 velocity=0 time=0
note_on channel=0 note=71 velocity=46 time=0
note_on channel=0 note=40 velocity=38 time=0
control_change channel=0 control=64 value=0 time=19
control_change channel=0 control=64 value=127 time=38
note_on channel=0 note=40 velocity=0 time=63
note_on channel=0 note=52 velocity=33 time=0
note_on channel=0 note=52 velocity=0 time=0
note_on channel=0 note=71 velocity=0 time=0
note_on channel=0 note=56 velocity=34 time=0
note_on channel=0 note=56 velocity=0 time=120
note_on channel=0 note=64 velocity=36 time=0
note_on channel=0 note=64 velocity=0 time=120
note_on channel=0 note=68 velocity=39 time=0
note_on channel=0 note=68 velocity=0 time=0
note_on channel=0 note=71 velocity=42 time=0
note_on channel=0 note=71 velocity=0 time=0
note_on channel=0 note=72 velocity=45 time=0
note_on channel=0 note=45 velocity=38 time=0
control_change channel=0 control=64 value=0 time=6
control_change channel=0 control=64 value=127 time=45
note_on channel=0 note=45 velocity=0 time=69
note_on channel=0 note=52 velocity=35 time=0
note_on channel=0 note=52 velocity=0 time=120
note_on channel=0 note=72 velocity=0 time=0
note_on channel=0 note=57 velocity=35 time=0
note_on channel=0 note=57 velocity=0 time=120
note_on channel=0 note=64 velocity=35 time=0
control_change channel=0 control=64 value=0 time=34
note_on channel=0 note=64 velocity=0 time=12
note_on channel=0 note=76 velocity=38 time=0
note_on channel=0 note=76 velocity=0 time=12
note_on channel=0 note=75 velocity=34 time=0
note_on channel=0 note=75 velocity=0 time=12
note_on channel=0 note=76 velocity=41 time=0
note_on channel=0 note=76 velocity=0 time=120
note_on channel=0 note=75 velocity=37 time=0
note_on channel=0 note=75 velocity=0 time=0
note_on channel=0 note=76 velocity=46 time=0
note_on channel=0 note=76 velocity=0 time=0
note_on channel=0 note=71 velocity=39 time=0
note_on channel=0 note=71 velocity=0 time=120
note_on channel=0 note=74 velocity=48 time=0
note_on channel=0 note=74 velocity=0 time=0
note_on channel=0 note=72 velocity=39 time=0
note_on channel=0 note=72 velocity=0 time=0
note_on channel=0 note=69 velocity=48 time=0
note_on channel=0 note=45 velocity=38 time=0
control_change channel=0 control=64 value=127 time=57
note_on channel=0 note=45 velocity=0 time=63
note_on channel=0 note=52 velocity=35 time=0
note_on channel=0 note=52 velocity=0 time=120
note_on channel=0 note=69 velocity=0 time=0
note_on channel=0 note=57 velocity=34 time=0
note_on channel=0 note=57 velocity=0 time=0
note_on channel=0 note=60 velocity=34 time=0
note_on channel=0 note=60 velocity=0 time=120
note_on channel=0 note=64 velocity=37 time=0
note_on channel=0 note=64 velocity=0 time=0
note_on channel=0 note=69 velocity=41 time=0
note_on channel=0 note=69 velocity=0 time=0
note_on channel=0 note=71 velocity=45 time=0
note_on channel=0 note=40 velocity=38 time=0
control_change channel=0 control=64 value=0 time=11
control_change channel=0 control=64 value=127 time=58
note_on channel=0 note=40 velocity=0 time=51
note_on channel=0 note=52 velocity=37 time=0
note_on channel=0 note=52 velocity=0 time=0
note_on channel=0 note=71 velocity=0 time=0
note_on channel=0 note=56 velocity=37 time=0
note_on channel=0 note=56 velocity=0 time=0
note_on channel=0 note=64 velocity=37 time=0
note_on channel=0 note=64 velocity=0 time=0
note_on channel=0 note=72 velocity=40 time=0
note_on channel=0 note=72 velocity=0 time=0
note_on channel=0 note=71 velocity=38 time=0
note_on channel=0 note=71 velocity=0 time=0
note_on channel=0 note=69 velocity=40 time=0
note_on channel=0 note=45 velocity=38 time=0
control_change channel=0 control=64 value=0 time=18
control_change channel=0 control=64 value=127 time=38
note_on channel=0 note=45 velocity=0 time=64
note_on channel=0 note=52 velocity=32 time=0
note_on channel=0 note=52 velocity=0 time=120
note_on channel=0 note=69 velocity=0 time=0
note_on channel=0 note=57 velocity=32 time=0
note_on channel=0 note=57 velocity=0 time=60
note_on channel=0 note=64 velocity=40 time=0
note_on channel=0 note=72 velocity=46 time=0
control_change channel=0 control=64 value=0 time=0
note_on channel=0 note=58 velocity=34 time=0
note_on channel=0 note=60 velocity=34 time=0
note_on channel=0 note=60 velocity=0 time=70
note_on channel=0 note=64 velocity=0 time=0
note_on channel=0 note=72 velocity=0 time=0
note_on channel=0 note=58 velocity=0 time=0
note_on channel=0 note=65 velocity=41 time=0
note_on channel=0 note=72 velocity=47 time=0
note_on channel=0 note=57 velocity=34 time=0
note_on channel=0 note=60 velocity=34 time=0
note_on channel=0 note=60 velocity=0 time=10
note_on channel=0 note=65 velocity=0 time=0
note_on channel=0 note=72 velocity=0 time=0
note_on channel=0 note=57 velocity=0 time=0
note_on channel=0 note=64 velocity=43 time=0
note_on channel=0 note=67 velocity=43 time=0
note_on channel=0 note=72 velocity=49 time=0
note_on channel=0 note=55 velocity=34 time=0
note_on channel=0 note=58 velocity=34 time=0
note_on channel=0 note=60 velocity=34 time=0
note_on channel=0 note=60 velocity=0 time=0
note_on channel=0 note=67 velocity=0 time=0
note_on channel=0 note=72 velocity=0 time=0
note_on channel=0 note=64 velocity=0 time=0
note_on channel=0 note=58 velocity=0 time=0
note_on channel=0 note=55 velocity=0 time=0
note_on channel=0 note=65 velocity=43 time=0
note_on channel=0 note=65 velocity=0 time=30
note_on channel=0 note=69 velocity=41 time=0
control_change channel=0 control=64 value=127 time=8
note_on channel=0 note=69 velocity=0 time=0
note_on channel=0 note=72 velocity=55 time=0
note_on channel=0 note=53 velocity=44 time=0
note_on channel=0 note=53 velocity=0 time=120
note_on channel=0 note=57 velocity=38 time=0
note_on channel=0 note=57 velocity=0 time=120
note_on channel=0 note=60 velocity=36 time=0
note_on channel=0 note=60 velocity=0 time=0
note_on channel=0 note=57 velocity=37 time=0
note_on channel=0 note=57 velocity=0 time=0
note_on channel=0 note=72 velocity=0 time=0
note_on channel=0 note=77 velocity=57 time=0
note_on channel=0 note=60 velocity=37 time=0
note_on channel=0 note=60 velocity=0 time=100
note_on channel=0 note=57 velocity=37 time=0
note_on channel=0 note=77 velocity=0 time=0
note_on channel=0 note=76 velocity=52 time=0
note_on channel=0 note=76 velocity=0 time=58
note_on channel=0 note=57 velocity=0 time=0
note_on channel=0 note=76 velocity=57 time=0
note_on channel=0 note=53 velocity=44 time=0
control_change channel=0 control=64 value=0 time=14
control_change channel=0 control=64 value=127 time=64
note_on channel=0 note=53 velocity=0 time=42
note_on channel=0 note=58 velocity=38 time=0
note_on channel=0 note=58 velocity=0 time=0
note_on channel=0 note=76 velocity=0 time=0
note_on channel=0 note=74 velocity=51 time=0
note_on channel=0 note=62 velocity=37 time=0
note_on channel=0 note=62 velocity=0 time=0
note_on channel=0 note=58 velocity=37 time=0
note_on channel=0 note=58 velocity=0 time=0
note_on channel=0 note=74 velocity=0 time=0
note_on channel=0 note=82 velocity=62 time=0
note_on channel=0 note=62 velocity=37 time=0
note_on channel=0 note=62 velocity=0 time=120
note_on channel=0 note=58 velocity=38 time=0
note_on channel=0 note=82 velocity=0 time=20
note_on channel=0 note=81 velocity=56 time=0
note_on channel=0 note=81 velocity=0 time=58
note_on channel=0 note=58 velocity=0 time=0
note_on channel=0 note=81 velocity=56 time=0
note_on channel=0 note=53 velocity=44 time=0
control_change channel=0 control=64 value=0 time=1
control_change channel=0 control=64 value=127 time=29
note_on channel=0 note=53 velocity=0 time=40
note_on channel=0 note=81 velocity=0 time=0
note_on channel=0 note=79 velocity=56 time=0
note_on channel=0 note=64 velocity=37 time=0
note_on channel=0 note=64 velocity=0 time=40
note_on channel=0 note=79 velocity=0 time=0
note_on channel=0 note=77 velocity=55 time=0
note_on channel=0 note=53 velocity=36 time=0
note_on channel=0 note=58 velocity=36 time=0
note_on channel=0 note=55 velocity=36 time=0
note_on channel=0 note=55 velocity=0 time=40
note_on channel=0 note=77 velocity=0 time=0
note_on channel=0 note=53 velocity=0 time=0
note_on channel=0 note=58 velocity=0 time=0
note_on channel=0 note=76 velocity=55 time=0
note_on channel=0 note=64 velocity=36 time=0
note_on channel=0 note=64 velocity=0 time=0
note_on channel=0 note=76 velocity=0 time=0
note_on channel=0 note=74 velocity=55 time=0
note_on channel=0 note=53 velocity=36 time=0
note_on channel=0 note=55 velocity=36 time=0
note_on channel=0 note=58 velocity=36 time=0
note_on channel=0 note=58 velocity=0 time=0
note_on channel=0 note=74 velocity=0 time=0
note_on channel=0 note=53 velocity=0 time=0
note_on channel=0 note=55 velocity=0 time=0
note_on channel=0 note=72 velocity=54 time=0
note_on channel=0 note=64 velocity=36 time=0
note_on channel=0 note=64 velocity=0 time=0
note_on channel=0 note=72 velocity=0 time=0
note_on channel=0 note=70 velocity=54 time=0
note_on channel=0 note=53 velocity=44 time=0
control_change channel=0 control=64 value=0 time=10
control_change channel=0 control=64 value=127 time=61
note_on channel=0 note=53 velocity=0 time=49
note_on channel=0 note=57 velocity=36 time=0
note_on channel=0 note=57 velocity=0 time=120
note_on channel=0 note=70 velocity=0 time=0
note_on channel=0 note=69 velocity=51 time=0
note_on channel=0 note=60 velocity=36 time=0
note_on channel=0 note=60 velocity=0 time=0
note_on channel=0 note=57 velocity=36 time=0
note_on channel=0 note=69 velocity=0 time=90
note_on channel=0 note=70 velocity=44 time=0
note_on channel=0 note=70 velocity=0 time=0
note_on channel=0 note=57 velocity=0 time=0
note_on channel=0 note=69 velocity=49 time=0
note_on channel=0 note=60 velocity=36 time=0
note_on channel=0 note=69 velocity=0 time=60
note_on channel=0 note=67 velocity=50 time=0
note_on channel=0 note=67 velocity=0 time=60
note_on channel=0 note=60 velocity=0 time=0
note_on channel=0 note=69 velocity=51 time=0
note_on channel=0 note=57 velocity=36 time=0
note_on channel=0 note=69 velocity=0 time=60
note_on channel=0 note=70 velocity=52 time=0
note_on channel=0 note=70 velocity=0 time=0
note_on channel=0 note=57 velocity=0 time=0
note_on channel=0 note=72 velocity=54 time=0
note_on channel=0 note=53 velocity=42 time=0
control_change channel=0 control=64 value=0 time=8
control_change channel=0 control=64 value=127 time=66
note_on channel=0 note=53 velocity=0 time=46
note_on channel=0 note=57 velocity=34 time=0
note_on channel=0 note=57 velocity=0 time=120
note_on channel=0 note=60 velocity=35 time=0
note_on channel=0 note=60 velocity=0 time=0
note_on channel=0 note=57 velocity=36 time=0
note_on channel=0 note=57 velocity=0 time=0
note_on channel=0 note=72 velocity=0 time=0
note_on channel=0 note=74 velocity=55 time=0
note_on channel=0 note=60 velocity=38 time=0
note_on channel=0 note=60 velocity=0 time=120
note_on channel=0 note=74 velocity=0 time=0
note_on channel=0 note=75 velocity=57 time=0
note_on channel=0 note=57 velocity=39 time=0
note_on channel=0 note=57 velocity=0 time=0
note_on channel=0 note=75 velocity=0 time=0
note_on channel=0 note=76 velocity=59 time=0
note_on channel=0 note=52 velocity=49 time=0
control_change channel=0 control=64 value=0 time=14
control_change channel=0 control=64 value=127 time=64
note_on channel=0 note=52 velocity=0 time=42
note_on channel=0 note=57 velocity=38 time=0
note_on channel=0 note=57 velocity=0 time=120
note_on channel=0 note=60 velocity=38 time=0
note_on channel=0 note=60 velocity=0 time=0
note_on channel=0 note=76 velocity=0 time=0
note_on channel=0 note=76 velocity=58 time=0
note_on channel=0 note=57 velocity=38 time=0
note_on channel=0 note=57 velocity=0 time=120
note_on channel=0 note=76 velocity=0 time=0
note_on channel=0 note=77 velocity=63 time=0
note_on channel=0 note=50 velocity=38 time=0
note_on channel=0 note=62 velocity=38 time=0
control_change channel=0 control=64 value=0 time=8
control_change channel=0 control=64 value=127 time=63
note_on channel=0 note=62 velocity=0 time=49
note_on channel=0 note=50 velocity=0 time=0
note_on channel=0 note=77 velocity=0 time=0
note_on channel=0 note=69 velocity=58 time=0
note_on channel=0 note=53 velocity=38 time=0
note_on channel=0 note=53 velocity=0 time=0
note_on channel=0 note=69 velocity=0 time=0
note_on channel=0 note=72 velocity=64 time=0
note_on channel=0 note=55 velocity=47 time=0
control_change channel=0 control=64 value=0 time=11
control_change channel=0 control=64 value=127 time=67
note_on channel=0 note=55 velocity=0 time=42
note_on channel=0 note=64 velocity=38 time=0
note_on channel=0 note=64 velocity=0 time=120
note_on channel=0 note=55 velocity=40 time=0
note_on channel=0 note=55 velocity=0 time=120
note_on channel=0 note=64 velocity=38 time=0
note_on channel=0 note=64 velocity=0 time=0
note_on channel=0 note=72 velocity=0 time=0
note_on channel=0 note=74 velocity=64 time=0
note_on channel=0 note=55 velocity=41 time=0
control_change channel=0 control=64 value=0 time=9
control_change channel=0 control=64 value=127 time=40
note_on channel=0 note=55 velocity=0 time=71
note_on channel=0 note=65 velocity=38 time=0
note_on channel=0 note=74 velocity=0 time=60
note_on channel=0 note=71 velocity=57 time=0
note_on channel=0 note=71 velocity=0 time=0
note_on channel=0 note=65 velocity=0 time=0
note_on channel=0 note=72 velocity=64 time=0
note_on channel=0 note=60 velocity=45 time=0
note_on channel=0 note=64 velocity=45 time=0
control_change channel=0 control=64 value=0 time=3
control_change channel=0 control=64 value=127 time=29
note_on channel=0 note=72 velocity=0 time=0
note_on channel=0 note=79 velocity=57 time=0
note_on channel=0 note=79 velocity=0 time=20
note_on channel=0 note=67 velocity=64 time=0
note_on channel=0 note=67 velocity=0 time=40
note_on channel=0 note=79 velocity=57 time=0
note_on channel=0 note=79 velocity=0 time=0
note_on channel=0 note=64 velocity=0 time=0
note_on channel=0 note=60 velocity=0 time=0
note_on channel=0 note=69 velocity=64 time=0
note_on channel=0 note=69 velocity=0 time=20
note_on channel=0 note=79 velocity=63 time=0
control_change channel=0 control=64 value=0 time=9
note_on channel=0 note=79 velocity=0 time=11
note_on channel=0 note=71 velocity=66 time=0
note_on channel=0 note=65 velocity=40 time=0
note_on channel=0 note=67 velocity=40 time=0
note_on channel=0 note=71 velocity=0 time=0
note_on channel=0 note=79 velocity=63 time=0
note_on channel=0 note=67 velocity=0 time=30
note_on channel=0 note=65 velocity=0 time=0
note_on channel=0 note=79 velocity=0 time=20
note_on channel=0 note=72 velocity=68 time=0
note_on channel=0 note=64 velocity=43 time=0
note_on channel=0 note=67 velocity=43 time=0
note_on channel=0 note=72 velocity=0 time=60
note_on channel=0 note=79 velocity=66 time=0
note_on channel=0 note=67 velocity=0 time=30
note_on channel=0 note=64 velocity=0 time=0
note_on channel=0 note=79 velocity=0 time=30
note_on channel=0 note=74 velocity=70 time=0
note_on channel=0 note=62 velocity=46 time=0
note_on channel=0 note=65 velocity=46 time=0
note_on channel=0 note=67 velocity=46 time=0
note_on channel=0 note=74 velocity=0 time=60
note_on channel=0 note=79 velocity=65 time=0
note_on channel=0 note=62 velocity=0 time=10
note_on channel=0 note=67 velocity=0 time=0
note_on channel=0 note=65 velocity=0 time=0
note_on channel=0 note=79 velocity=0 time=0
note_on channel=0 note=76 velocity=72 time=0
note_on channel=0 note=60 velocity=49 time=0
note_on channel=0 note=64 velocity=49 time=0
note_on channel=0 note=67 velocity=49 time=0
note_on channel=0 note=76 velocity=0 time=0
note_on channel=0 note=79 velocity=63 time=0
note_on channel=0 note=79 velocity=0 time=0
note_on channel=0 note=84 velocity=67 time=0
note_on channel=0 note=84 velocity=0 time=60
note_on channel=0 note=83 velocity=62 time=0
note_on channel=0 note=83 velocity=0 time=60
note_on channel=0 note=67 velocity=0 time=0
note_on channel=0 note=64 velocity=0 time=0
note_on channel=0 note=60 velocity=0 time=0
note_on channel=0 note=81 velocity=67 time=0
note_on channel=0 note=53 velocity=42 time=0
note_on channel=0 note=57 velocity=42 time=0
note_on channel=0 note=81 velocity=0 time=20
note_on channel=0 note=79 velocity=62 time=0
note_on channel=0 note=79 velocity=0 time=60
note_on channel=0 note=77 velocity=67 time=0
note_on channel=0 note=77 velocity=0 time=60
note_on channel=0 note=76 velocity=61 time=0
note_on channel=0 note=76 velocity=0 time=60
note_on channel=0 note=57 velocity=0 time=0
note_on channel=0 note=53 velocity=0 time=0
note_on channel=0 note=74 velocity=69 time=0
note_on channel=0 note=55 velocity=42 time=0
note_on channel=0 note=59 velocity=42 time=0
note_on channel=0 note=74 velocity=0 time=60
note_on channel=0 note=79 velocity=63 time=0
note_on channel=0 note=79 velocity=0 time=40
note_on channel=0 note=77 velocity=69 time=0
note_on channel=0 note=77 velocity=0 time=0
note_on channel=0 note=74 velocity=64 time=0
note_on channel=0 note=74 velocity=0 time=0
note_on channel=0 note=59 velocity=0 time=0
note_on channel=0 note=55 velocity=0 time=0
note_on channel=0 note=72 velocity=64 time=0
note_on channel=0 note=60 velocity=45 time=0
control_change channel=0 control=64 value=127 time=12
note_on channel=0 note=72 velocity=0 time=0
note_on channel=0 note=79 velocity=57 time=0
note_on channel=0 note=79 velocity=0 time=20
note_on channel=0 note=67 velocity=64 time=0
note_on channel=0 note=67 velocity=0 time=0
note_on channel=0 note=79 velocity=57 time=0
note_on channel=0 note=79 velocity=0 time=20
note_on channel=0 note=60 velocity=0 time=0
note_on channel=0 note=69 velocity=64 time=0
note_on channel=0 note=69 velocity=0 time=0
note_on channel=0 note=79 velocity=63 time=0
control_change channel=0 control=64 value=0 time=49
note_on channel=0 note=79 velocity=0 time=11
note_on channel=0 note=71 velocity=66 time=0
note_on channel=0 note=65 velocity=40 time=0
note_on channel=0 note=67 velocity=40 time=0
note_on channel=0 note=71 velocity=0 time=40
note_on channel=0 note=79 velocity=63 time=0
note_on channel=0 note=67 velocity=0 time=30
note_on channel=0 note=65 velocity=0 time=0
note_on channel=0 note=79 velocity=0 time=20
note_on channel=0 note=72 velocity=68 time=0
note_on channel=0 note=64 velocity=43 time=0
note_on channel=0 note=67 velocity=43 time=0
note_on channel=0 note=72 velocity=0 time=60
note_on channel=0 note=79 velocity=66 time=0
note_on channel=0 note=67 velocity=0 time=30
note_on channel=0 note=64 velocity=0 time=0
note_on channel=0 note=79 velocity=0 time=30
note_on channel=0 note=74 velocity=70 time=0
note_on channel=0 note=62 velocity=46 time=0
note_on channel=0 note=65 velocity=46 time=0
note_on channel=0 note=67 velocity=46 time=0
note_on channel=0 note=74 velocity=0 time=60
note_on channel=0 note=79 velocity=65 time=0
note_on channel=0 note=62 velocity=0 time=10
note_on channel=0 note=67 velocity=0 time=0
note_on channel=0 note=65 velocity=0 time=0
note_on channel=0 note=79 velocity=0 time=30
note_on channel=0 note=76 velocity=72 time=0
note_on channel=0 note=60 velocity=49 time=0
note_on channel=0 note=64 velocity=49 time=0
note_on channel=0 note=67 velocity=49 time=0
note_on channel=0 note=76 velocity=0 time=0
note_on channel=0 note=79 velocity=65 time=0
note_on channel=0 note=79 velocity=0 time=0
note_on channel=0 note=84 velocity=69 time=0
note_on channel=0 note=84 velocity=0 time=60
note_on channel=0 note=83 velocity=64 time=0
note_on channel=0 note=83 velocity=0 time=60
note_on channel=0 note=67 velocity=0 time=0
note_on channel=0 note=64 velocity=0 time=0
note_on channel=0 note=60 velocity=0 time=0
note_on channel=0 note=81 velocity=70 time=0
note_on channel=0 note=53 velocity=42 time=0
note_on channel=0 note=57 velocity=42 time=0
note_on channel=0 note=81 velocity=0 time=40
note_on channel=0 note=79 velocity=60 time=0
note_on channel=0 note=79 velocity=0 time=60
note_on channel=0 note=77 velocity=64 time=0
note_on channel=0 note=77 velocity=0 time=0
note_on channel=0 note=76 velocity=55 time=0
note_on channel=0 note=76 velocity=0 time=60
note_on channel=0 note=57 velocity=0 time=0
note_on channel=0 note=53 velocity=0 time=0
note_on channel=0 note=74 velocity=65 time=0
note_on channel=0 note=55 velocity=42 time=0
note_on channel=0 note=59 velocity=42 time=0
note_on channel=0 note=74 velocity=0 time=60
note_on channel=0 note=79 velocity=57 time=0
note_on channel=0 note=79 velocity=0 time=40
note_on channel=0 note=77 velocity=63 time=0
note_on channel=0 note=77 velocity=0 time=0
note_on channel=0 note=74 velocity=53 time=0
note_on channel=0 note=74 velocity=0 time=0
note_on channel=0 note=59 velocity=0 time=0
note_on channel=0 note=55 velocity=0 time=0
note_on channel=0 note=76 velocity=57 time=0
note_on channel=0 note=59 velocity=42 time=0
note_on channel=0 note=56 velocity=42 time=0
note_on channel=0 note=76 velocity=0 time=60
note_on channel=0 note=77 velocity=50 time=0
note_on channel=0 note=77 velocity=0 time=60
note_on channel=0 note=76 velocity=50 time=0
note_on channel=0 note=76 velocity=0 time=0
note_on channel=0 note=75 velocity=50 time=0
note_on channel=0 note=75 velocity=0 time=0
note_on channel=0 note=56 velocity=0 time=0
note_on channel=0 note=59 velocity=0 time=0
note_on channel=0 note=76 velocity=57 time=0
note_on channel=0 note=76 velocity=0 time=60
note_on channel=0 note=71 velocity=49 time=0
note_on channel=0 note=71 velocity=0 time=60
note_on channel=0 note=76 velocity=54 time=0
note_on channel=0 note=76 velocity=0 time=0
note_on channel=0 note=75 velocity=52 time=0
note_on channel=0 note=75 velocity=0 time=0
note_on channel=0 note=76 velocity=57 time=0
note_on channel=0 note=76 velocity=0 time=60
note_on channel=0 note=71 velocity=51 time=0
note_on channel=0 note=71 velocity=0 time=0
note_on channel=0 note=76 velocity=54 time=0
note_on channel=0 note=76 velocity=0 time=0
note_on channel=0 note=75 velocity=49 time=0
note_on channel=0 note=75 velocity=0 time=0
note_on channel=0 note=76 velocity=57 time=0
note_on channel=0 note=76 velocity=0 time=360
note_on channel=0 note=71 velocity=52 time=0
note_on channel=0 note=71 velocity=0 time=120
note_on channel=0 note=76 velocity=57 time=0
note_on channel=0 note=76 velocity=0 time=0
note_on channel=0 note=75 velocity=49 time=0
note_on channel=0 note=75 velocity=0 time=0
note_on channel=0 note=76 velocity=56 time=0
note_on channel=0 note=76 velocity=0 time=0
note_on channel=0 note=71 velocity=42 time=0
note_on channel=0 note=71 velocity=0 time=0
note_on channel=0 note=76 velocity=50 time=0
note_on channel=0 note=76 velocity=0 time=90
note_on channel=0 note=75 velocity=42 time=30
note_on channel=0 note=75 velocity=0 time=0
note_on channel=0 note=76 velocity=48 time=0
note_on channel=0 note=76 velocity=0 time=90
note_on channel=0 note=75 velocity=39 time=0
note_on channel=0 note=75 velocity=0 time=20
note_on channel=0 note=76 velocity=41 time=0
note_on channel=0 note=76 velocity=0 time=10
note_on channel=0 note=75 velocity=35 time=30
note_on channel=0 note=75 velocity=0 time=60
note_on channel=0 note=76 velocity=37 time=0
note_on channel=0 note=76 velocity=0 time=50
note_on channel=0 note=75 velocity=34 time=30
note_on channel=0 note=75 velocity=0 time=0
note_on channel=0 note=76 velocity=40 time=0
note_on channel=0 note=76 velocity=0 time=0
note_on channel=0 note=75 velocity=36 time=0
note_on channel=0 note=75 velocity=0 time=0
note_on channel=0 note=76 velocity=40 time=0
note_on channel=0 note=76 velocity=0 time=0
note_on channel=0 note=71 velocity=36 time=0
note_on channel=0 note=71 velocity=0 time=0
note_on channel=0 note=74 velocity=43 time=0
note_on channel=0 note=74 velocity=0 time=0
note_on channel=0 note=72 velocity=35 time=0
note_on channel=0 note=72 velocity=0 time=0
note_on channel=0 note=69 velocity=45 time=0
note_on channel=0 note=45 velocity=35 time=0
control_change channel=0 control=64 value=127 time=64
note_on channel=0 note=45 velocity=0 time=56
note_on channel=0 note=52 velocity=31 time=0
note_on channel=0 note=52 velocity=0 time=120
note_on channel=0 note=69 velocity=0 time=0
note_on channel=0 note=57 velocity=31 time=0
note_on channel=0 note=57 velocity=0 time=0
note_on channel=0 note=60 velocity=34 time=0
note_on channel=0 note=60 velocity=0 time=120
note_on channel=0 note=64 velocity=38 time=0
note_on channel=0 note=64 velocity=0 time=0
note_on channel=0 note=69 velocity=42 time=0
note_on channel=0 note=69 velocity=0 time=0
note_on channel=0 note=71 velocity=46 time=0
note_on channel=0 note=40 velocity=40 time=0
control_change channel=0 control=64 value=0 time=19
control_change channel=0 control=64 value=127 time=38
note_on channel=0 note=40 velocity=0 time=63
note_on channel=0 note=52 velocity=33 time=0
note_on channel=0 note=52 velocity=0 time=0
note_on channel=0 note=71 velocity=0 time=0
note_on channel=0 note=56 velocity=34 time=0
note_on channel=0 note=56 velocity=0 time=120
note_on channel=0 note=64 velocity=36 time=0
note_on channel=0 note=64 velocity=0 time=120
note_on channel=0 note=68 velocity=39 time=0
note_on channel=0 note=68 velocity=0 time=0
note_on channel=0 note=71 velocity=42 time=0
note_on channel=0 note=71 velocity=0 time=0
note_on channel=0 note=72 velocity=45 time=0
note_on channel=0 note=45 velocity=38 time=0
control_change channel=0 control=64 value=0 time=6
control_change channel=0 control=64 value=127 time=45
note_on channel=0 note=45 velocity=0 time=69
note_on channel=0 note=52 velocity=35 time=0
note_on channel=0 note=52 velocity=0 time=120
note_on channel=0 note=72 velocity=0 time=0
note_on channel=0 note=57 velocity=35 time=0
note_on channel=0 note=57 velocity=0 time=120
note_on channel=0 note=64 velocity=35 time=0
control_change channel=0 control=64 value=0 time=34
note_on channel=0 note=64 velocity=0 time=16
note_on channel=0 note=76 velocity=38 time=0
note_on channel=0 note=76 velocity=0 time=28
note_on channel=0 note=75 velocity=34 time=0
note_on channel=0 note=75 velocity=0 time=0
note_on channel=0 note=76 velocity=41 time=0
note_on channel=0 note=76 velocity=0 time=120
note_on channel=0 note=75 velocity=37 time=0
note_on channel=0 note=75 velocity=0 time=0
note_on channel=0 note=76 velocity=46 time=0
note_on channel=0 note=76 velocity=0 time=0
note_on channel=0 note=71 velocity=39 time=0
note_on channel=0 note=71 velocity=0 time=120
note_on channel=0 note=74 velocity=48 time=0
note_on channel=0 note=74 velocity=0 time=0
note_on channel=0 note=72 velocity=39 time=0
note_on channel=0 note=72 velocity=0 time=0
note_on channel=0 note=69 velocity=48 time=0
note_on channel=0 note=45 velocity=38 time=0
control_change channel=0 control=64 value=127 time=57
note_on channel=0 note=45 velocity=0 time=63
note_on channel=0 note=52 velocity=35 time=0
note_on channel=0 note=52 velocity=0 time=120
note_on channel=0 note=69 velocity=0 time=0
note_on channel=0 note=57 velocity=34 time=0
note_on channel=0 note=57 velocity=0 time=0
note_on channel=0 note=60 velocity=34 time=0
note_on channel=0 note=60 velocity=0 time=120
note_on channel=0 note=64 velocity=37 time=0
note_on channel=0 note=64 velocity=0 time=0
note_on channel=0 note=69 velocity=41 time=0
note_on channel=0 note=69 velocity=0 time=0
note_on channel=0 note=71 velocity=45 time=0
note_on channel=0 note=40 velocity=38 time=0
control_change channel=0 control=64 value=0 time=11
control_change channel=0 control=64 value=127 time=58
note_on channel=0 note=40 velocity=0 time=51
note_on channel=0 note=52 velocity=37 time=0
note_on channel=0 note=52 velocity=0 time=0
note_on channel=0 note=71 velocity=0 time=0
note_on channel=0 note=56 velocity=37 time=0
note_on channel=0 note=56 velocity=0 time=0
note_on channel=0 note=64 velocity=37 time=0
note_on channel=0 note=64 velocity=0 time=120
note_on channel=0 note=72 velocity=40 time=0
note_on channel=0 note=72 velocity=0 time=0
note_on channel=0 note=71 velocity=38 time=0
note_on channel=0 note=71 velocity=0 time=0
note_on channel=0 note=69 velocity=40 time=0
note_on channel=0 note=45 velocity=38 time=0
control_change channel=0 control=64 value=0 time=18
control_change channel=0 control=64 value=127 time=38
note_on channel=0 note=45 velocity=0 time=0
note_on channel=0 note=52 velocity=32 time=0
note_on channel=0 note=52 velocity=0 time=0
note_on channel=0 note=69 velocity=0 time=0
note_on channel=0 note=57 velocity=32 time=0
control_change channel=0 control=64 value=0 time=42
note_on channel=0 note=57 velocity=0 time=0
note_on channel=0 note=71 velocity=44 time=0
note_on channel=0 note=71 velocity=0 time=120
note_on channel=0 note=72 velocity=46 time=0
note_on channel=0 note=72 velocity=0 time=0
note_on channel=0 note=74 velocity=48 time=0
note_on channel=0 note=74 velocity=0 time=0
note_on channel=0 note=76 velocity=52 time=0
note_on channel=0 note=48 velocity=44 time=0
control_change channel=0 control=64 value=0 time=11
control_change channel=0 control=64 value=127 time=58
note_on channel=0 note=48 velocity=0 time=51
note_on channel=0 note=55 velocity=38 time=0
note_on channel=0 note=55 velocity=0 time=0
note_on channel=0 note=60 velocity=39 time=0
note_on channel=0 note=60 velocity=0 time=0
note_on channel=0 note=76 velocity=0 time=0
note_on channel=0 note=67 velocity=40 time=0
note_on channel=0 note=67 velocity=0 time=0
note_on channel=0 note=77 velocity=46 time=0
note_on channel=0 note=77 velocity=0 time=120
note_on channel=0 note=76 velocity=43 time=0
note_on channel=0 note=76 velocity=0 time=0
note_on channel=0 note=74 velocity=50 time=0
note_on channel=0 note=43 velocity=44 time=0
control_change channel=0 control=64 value=0 time=11
control_change channel=0 control=64 value=127 time=58
note_on channel=0 note=43 velocity=0 time=51
note_on channel=0 note=55 velocity=38 time=0
note_on channel=0 note=55 velocity=0 time=0
note_on channel=0 note=59 velocity=39 time=0
note_on channel=0 note=59 velocity=0 time=0
note_on channel=0 note=74 velocity=0 time=0
note_on channel=0 note=65 velocity=40 time=0
note_on channel=0 note=65 velocity=0 time=0
note_on channel=0 note=76 velocity=46 time=0
note_on channel=0 note=76 velocity=0 time=120
note_on channel=0 note=74 velocity=43 time=0
note_on channel=0 note=74 velocity=0 time=0
note_on channel=0 note=72 velocity=50 time=0
note_on channel=0 note=45 velocity=44 time=0
control_change channel=0 control=64 value=0 time=11
control_change channel=0 control=64 value=127 time=58
note_on channel=0 note=45 velocity=0 time=51
note_on channel=0 note=52 velocity=38 time=0
note_on channel=0 note=52 velocity=0 time=0
note_on channel=0 note=57 velocity=39 time=0
note_on channel=0 note=57 velocity=0 time=0
note_on channel=0 note=72 velocity=0 time=0
note_on channel=0 note=64 velocity=40 time=0
note_on channel=0 note=64 velocity=0 time=0
note_on channel=0 note=74 velocity=46 time=0
note_on channel=0 note=74 velocity=0 time=0
note_on channel=0 note=72 velocity=43 time=0
note_on channel=0 note=72 velocity=0 time=0
note_on channel=0 note=71 velocity=50 time=0
note_on channel=0 note=40 velocity=44 time=0
control_change channel=0 control=64 value=0 time=11
control_change channel=0 control=64 value=127 time=58
note_on channel=0 note=40 velocity=0 time=51
note_on channel=0 note=52 velocity=38 time=0
note_on channel=0 note=52 velocity=0 time=0
note_on channel=0 note=71 velocity=0 time=0
note_on channel=0 note=64 velocity=39 time=0
note_on channel=0 note=64 velocity=0 time=90
note_on channel=0 note=64 velocity=39 time=0
note_on channel=0 note=64 velocity=0 time=0
note_on channel=0 note=76 velocity=45 time=0
note_on channel=0 note=76 velocity=0 time=90
note_on channel=0 note=64 velocity=39 time=0
note_on channel=0 note=64 velocity=0 time=0
note_on channel=0 note=76 velocity=44 time=0
note_on channel=0 note=76 velocity=0 time=90
note_on channel=0 note=76 velocity=43 time=0
note_on channel=0 note=76 velocity=0 time=0
note_on channel=0 note=88 velocity=48 time=0
control_change channel=0 control=64 value=0 time=78
note_on channel=0 note=88 velocity=0 time=12
note_on channel=0 note=75 velocity=42 time=0
note_on channel=0 note=75 velocity=0 time=0
note_on channel=0 note=76 velocity=50 time=0
note_on channel=0 note=76 velocity=0 time=90
note_on channel=0 note=75 velocity=42 time=30
note_on channel=0 note=75 velocity=0 time=0
note_on channel=0 note=76 velocity=48 time=0
note_on channel=0 note=76 velocity=0 time=90
note_on channel=0 note=75 velocity=39 time=0
note_on channel=0 note=75 velocity=0 time=20
note_on channel=0 note=76 velocity=41 time=0
note_on channel=0 note=76 velocity=0 time=10
note_on channel=0 note=75 velocity=35 time=30
note_on channel=0 note=75 velocity=0 time=60
note_on channel=0 note=76 velocity=37 time=0
note_on channel=0 note=76 velocity=0 time=80
note_on channel=0 note=75 velocity=34 time=0
note_on channel=0 note=75 velocity=0 time=0
note_on channel=0 note=76 velocity=40 time=0
note_on channel=0 note=76 velocity=0 time=0
note_on channel=0 note=75 velocity=36 time=0
note_on channel=0 note=75 velocity=0 time=0
note_on channel=0 note=76 velocity=43 time=0
note_on channel=0 note=76 velocity=0 time=40
note_on channel=0 note=71 velocity=38 time=0
note_on channel=0 note=71 velocity=0 time=0
note_on channel=0 note=74 velocity=44 time=0
note_on channel=0 note=74 velocity=0 time=0
note_on channel=0 note=72 velocity=38 time=0
note_on channel=0 note=72 velocity=0 time=0
note_on channel=0 note=69 velocity=47 time=0
note_on channel=0 note=45 velocity=35 time=0
control_change channel=0 control=64 value=127 time=64
note_on channel=0 note=45 velocity=0 time=56
note_on channel=0 note=52 velocity=33 time=0
note_on channel=0 note=52 velocity=0 time=120
note_on channel=0 note=69 velocity=0 time=0
note_on channel=0 note=57 velocity=33 time=0
note_on channel=0 note=57 velocity=0 time=0
note_on channel=0 note=60 velocity=34 time=0
note_on channel=0 note=60 velocity=0 time=120
note_on channel=0 note=64 velocity=38 time=0
note_on channel=0 note=64 velocity=0 time=0
note_on channel=0 note=69 velocity=42 time=0
note_on channel=0 note=69 velocity=0 time=0
note_on channel=0 note=71 velocity=46 time=0
note_on channel=0 note=40 velocity=37 time=0
control_change channel=0 control=64 value=0 time=19
control_change channel=0 control=64 value=127 time=38
note_on channel=0 note=40 velocity=0 time=63
note_on channel=0 note=52 velocity=33 time=0
note_on channel=0 note=52 velocity=0 time=0
note_on channel=0 note=71 velocity=0 time=0
note_on channel=0 note=56 velocity=34 time=0
note_on channel=0 note=56 velocity=0 time=120
note_on channel=0 note=64 velocity=36 time=0
note_on channel=0 note=64 velocity=0 time=120
note_on channel=0 note=68 velocity=39 time=0
note_on channel=0 note=68 velocity=0 time=0
note_on channel=0 note=71 velocity=42 time=0
note_on channel=0 note=71 velocity=0 time=0
note_on channel=0 note=72 velocity=45 time=0
note_on channel=0 note=45 velocity=38 time=0
control_change channel=0 control=64 value=0 time=6
control_change channel=0 control=64 value=127 time=45
note_on channel=0 note=45 velocity=0 time=69
note_on channel=0 note=52 velocity=33 time=0
note_on channel=0 note=52 velocity=0 time=120
note_on channel=0 note=72 velocity=0 time=0
note_on channel=0 note=57 velocity=33 time=0
note_on channel=0 note=57 velocity=0 time=120
note_on channel=0 note=64 velocity=35 time=0
control_change channel=0 control=64 value=0 time=34
note_on channel=0 note=64 velocity=0 time=0
note_on channel=0 note=76 velocity=38 time=0
note_on channel=0 note=76 velocity=0 time=0
note_on channel=0 note=75 velocity=34 time=0
note_on channel=0 note=75 velocity=0 time=0
note_on channel=0 note=76 velocity=41 time=0
note_on channel=0 note=76 velocity=0 time=96
note_on channel=0 note=75 velocity=37 time=0
note_on channel=0 note=75 velocity=0 time=0
note_on channel=0 note=76 velocity=41 time=0
note_on channel=0 note=76 velocity=0 time=0
note_on channel=0 note=71 velocity=34 time=0
note_on channel=0 note=71 velocity=0 time=120
note_on channel=0 note=74 velocity=45 time=0
note_on channel=0 note=74 velocity=0 time=0
note_on channel=0 note=72 velocity=36 time=0
note_on channel=0 note=72 velocity=0 time=0
note_on channel=0 note=69 velocity=46 time=0
note_on channel=0 note=45 velocity=36 time=0
control_change channel=0 control=64 value=127 time=57
note_on channel=0 note=45 velocity=0 time=63
note_on channel=0 note=52 velocity=35 time=0
note_on channel=0 note=52 velocity=0 time=120
note_on channel=0 note=69 velocity=0 time=0
note_on channel=0 note=57 velocity=34 time=0
note_on channel=0 note=57 velocity=0 time=0
note_on channel=0 note=60 velocity=34 time=0
note_on channel=0 note=60 velocity=0 time=120
note_on channel=0 note=64 velocity=37 time=0
note_on channel=0 note=64 velocity=0 time=0
note_on channel=0 note=69 velocity=41 time=0
note_on channel=0 note=69 velocity=0 time=0
note_on channel=0 note=71 velocity=45 time=0
note_on channel=0 note=40 velocity=38 time=0
control_change channel=0 control=64 value=0 time=11
control_change channel=0 control=64 value=127 time=58
note_on channel=0 note=40 velocity=0 time=51
note_on channel=0 note=52 velocity=37 time=0
note_on channel=0 note=52 velocity=0 time=0
note_on channel=0 note=71 velocity=0 time=0
note_on channel=0 note=56 velocity=37 time=0
note_on channel=0 note=56 velocity=0 time=0
note_on channel=0 note=64 velocity=37 time=0
note_on channel=0 note=64 velocity=0 time=0
note_on channel=0 note=72 velocity=40 time=0
note_on channel=0 note=72 velocity=0 time=0
note_on channel=0 note=71 velocity=38 time=0
note_on channel=0 note=71 velocity=0 time=0
note_on channel=0 note=69 velocity=40 time=0
note_on channel=0 note=45 velocity=38 time=0
control_change channel=0 control=64 value=0 time=18
note_on channel=0 note=45 velocity=0 time=72
note_on channel=0 note=45 velocity=35 time=0
note_on channel=0 note=45 velocity=0 time=90
note_on channel=0 note=69 velocity=0 time=30
note_on channel=0 note=45 velocity=38 time=0
note_on channel=0 note=45 velocity=0 time=90
note_on channel=0 note=45 velocity=34 time=30
note_on channel=0 note=45 velocity=0 time=90
note_on channel=0 note=45 velocity=38 time=30
note_on channel=0 note=45 velocity=0 time=90
note_on channel=0 note=45 velocity=35 time=30
note_on channel=0 note=45 velocity=0 time=90
note_on channel=0 note=64 velocity=45 time=8
note_on channel=0 note=67 velocity=45 time=0
note_on channel=0 note=70 velocity=45 time=0
note_on channel=0 note=73 velocity=53 time=0
note_on channel=0 note=45 velocity=44 time=0
note_on channel=0 note=45 velocity=0 time=6
note_on channel=0 note=45 velocity=38 time=8
note_on channel=0 note=45 velocity=0 time=6
note_on channel=0 note=45 velocity=45 time=8
note_on channel=0 note=45 velocity=0 time=18
note_on channel=0 note=45 velocity=39 time=8
note_on channel=0 note=45 velocity=0 time=6
note_on channel=0 note=45 velocity=46 time=8
note_on channel=0 note=45 velocity=0 time=30
note_on channel=0 note=45 velocity=40 time=0
note_on channel=0 note=45 velocity=0 time=30
note_on channel=0 note=73 velocity=0 time=0
note_on channel=0 note=64 velocity=0 time=0
note_on channel=0 note=67 velocity=0 time=0
note_on channel=0 note=70 velocity=0 time=0
note_on channel=0 note=65 velocity=49 time=0
note_on channel=0 note=69 velocity=49 time=0
note_on channel=0 note=74 velocity=59 time=0
note_on channel=0 note=45 velocity=47 time=0
note_on channel=0 note=45 velocity=0 time=2
note_on channel=0 note=45 velocity=42 time=0
note_on channel=0 note=45 velocity=0 time=22
note_on channel=0 note=45 velocity=48 time=0
note_on channel=0 note=45 velocity=0 time=2
note_on channel=0 note=45 velocity=43 time=20
note_on channel=0 note=45 velocity=0 time=30
note_on channel=0 note=74 velocity=0 time=0
note_on channel=0 note=69 velocity=0 time=0
note_on channel=0 note=65 velocity=0 time=0
note_on channel=0 note=73 velocity=54 time=0
note_on channel=0 note=76 velocity=64 time=0
note_on channel=0 note=45 velocity=50 time=0
note_on channel=0 note=45 velocity=0 time=90
note_on channel=0 note=76 velocity=0 time=0
note_on channel=0 note=73 velocity=0 time=0
note_on channel=0 note=74 velocity=59 time=0
note_on channel=0 note=77 velocity=70 time=0
note_on channel=0 note=45 velocity=47 time=0
note_on channel=0 note=45 velocity=0 time=90
note_on channel=0 note=77 velocity=0 time=0
note_on channel=0 note=74 velocity=0 time=0
note_on channel=0 note=68 velocity=65 time=0
note_on channel=0 note=74 velocity=65 time=0
note_on channel=0 note=77 velocity=77 time=0
note_on channel=0 note=45 velocity=53 time=0
note_on channel=0 note=45 velocity=0 time=2
note_on channel=0 note=45 velocity=48 time=12
note_on channel=0 note=45 velocity=0 time=30
note_on channel=0 note=45 velocity=53 time=30
note_on channel=0 note=45 velocity=0 time=6
note_on channel=0 note=45 velocity=50 time=12
note_on channel=0 note=45 velocity=0 time=6
note_on channel=0 note=77 velocity=0 time=0
note_on channel=0 note=74 velocity=0 time=0
note_on channel=0 note=68 velocity=0 time=0
note_on channel=0 note=68 velocity=63 time=0
note_on channel=0 note=74 velocity=63 time=0
note_on channel=0 note=77 velocity=75 time=0
note_on channel=0 note=45 velocity=54 time=0
note_on channel=0 note=45 velocity=0 time=22
note_on channel=0 note=45 velocity=50 time=12
note_on channel=0 note=45 velocity=0 time=30
note_on channel=0 note=77 velocity=0 time=0
note_on channel=0 note=74 velocity=0 time=0
note_on channel=0 note=68 velocity=0 time=0
note_on channel=0 note=69 velocity=60 time=0
note_on channel=0 note=72 velocity=60 time=0
note_on channel=0 note=76 velocity=72 time=0
note_on channel=0 note=45 velocity=55 time=0
note_on channel=0 note=45 velocity=0 time=30
note_on channel=0 note=45 velocity=49 time=0
note_on channel=0 note=45 velocity=0 time=2
note_on channel=0 note=45 velocity=55 time=20
note_on channel=0 note=45 velocity=0 time=22
note_on channel=0 note=45 velocity=51 time=0
note_on channel=0 note=45 velocity=0 time=30
note_on channel=0 note=45 velocity=55 time=30
note_on channel=0 note=45 velocity=0 time=2
note_on channel=0 note=45 velocity=52 time=0
note_on channel=0 note=45 velocity=0 time=30
note_on channel=0 note=76 velocity=0 time=30
note_on channel=0 note=72 velocity=0 time=0
note_on channel=0 note=69 velocity=0 time=0
note_on channel=0 note=65 velocity=69 time=0
note_on channel=0 note=74 velocity=82 time=0
note_on channel=0 note=38 velocity=50 time=0
note_on channel=0 note=45 velocity=60 time=0
note_on channel=0 note=45 velocity=0 time=22
note_on channel=0 note=38 velocity=0 time=0
note_on channel=0 note=38 velocity=46 time=0
note_on channel=0 note=45 velocity=55 time=0
note_on channel=0 note=45 velocity=0 time=2
note_on channel=0 note=38 velocity=0 time=0
note_on channel=0 note=38 velocity=49 time=12
note_on channel=0 note=45 velocity=58 time=0
note_on channel=0 note=45 velocity=0 time=22
note_on channel=0 note=38 velocity=0 time=0
note_on channel=0 note=38 velocity=46 time=20
note_on channel=0 note=45 velocity=55 time=0
note_on channel=0 note=45 velocity=0 time=2
note_on channel=0 note=38 velocity=0 time=0
note_on channel=0 note=74 velocity=0 time=30
note_on channel=0 note=65 velocity=0 time=0
note_on channel=0 note=64 velocity=61 time=0
note_on channel=0 note=72 velocity=73 time=0
note_on channel=0 note=38 velocity=48 time=0
note_on channel=0 note=45 velocity=57 time=0
note_on channel=0 note=45 velocity=0 time=30
note_on channel=0 note=64 velocity=0 time=0
note_on channel=0 note=72 velocity=0 time=0
note_on channel=0 note=38 velocity=0 time=0
note_on channel=0 note=62 velocity=61 time=0
note_on channel=0 note=71 velocity=73 time=0
note_on channel=0 note=38 velocity=44 time=0
note_on channel=0 note=45 velocity=52 time=0
note_on channel=0 note=45 velocity=0 time=90
note_on channel=0 note=62 velocity=0 time=0
note_on channel=0 note=71 velocity=0 time=0
note_on channel=0 note=38 velocity=0 time=0
note_on channel=0 note=60 velocity=67 time=30
note_on channel=0 note=66 velocity=67 time=0
note_on channel=0 note=69 velocity=79 time=0
note_on channel=0 note=39 velocity=46 time=0
note_on channel=0 note=45 velocity=55 time=0
note_on channel=0 note=45 velocity=0 time=90
note_on channel=0 note=39 velocity=0 time=0
note_on channel=0 note=39 velocity=42 time=0
note_on channel=0 note=45 velocity=50 time=0
note_on channel=0 note=45 velocity=0 time=90
note_on channel=0 note=39 velocity=0 time=0
note_on channel=0 note=39 velocity=45 time=30
note_on channel=0 note=45 velocity=53 time=0
note_on channel=0 note=45 velocity=0 time=90
note_on channel=0 note=39 velocity=0 time=0
note_on channel=0 note=39 velocity=41 time=30
note_on channel=0 note=45 velocity=49 time=0
note_on channel=0 note=45 velocity=0 time=90
note_on channel=0 note=39 velocity=0 time=0
note_on channel=0 note=69 velocity=0 time=0
note_on channel=0 note=66 velocity=0 time=0
note_on channel=0 note=60 velocity=0 time=0
note_on channel=0 note=60 velocity=66 time=0
note_on channel=0 note=69 velocity=78 time=0
note_on channel=0 note=39 velocity=42 time=0
note_on channel=0 note=45 velocity=51 time=0
note_on channel=0 note=45 velocity=0 time=90
note_on channel=0 note=39 velocity=0 time=0
note_on channel=0 note=39 velocity=42 time=30
note_on channel=0 note=45 velocity=50 time=0
note_on channel=0 note=45 velocity=0 time=90
note_on channel=0 note=39 velocity=0 time=0
note_on channel=0 note=69 velocity=0 time=0
note_on channel=0 note=60 velocity=0 time=0
note_on channel=0 note=60 velocity=68 time=0
note_on channel=0 note=69 velocity=80 time=0
note_on channel=0 note=40 velocity=47 time=0
note_on channel=0 note=45 velocity=56 time=0
note_on channel=0 note=45 velocity=0 time=90
note_on channel=0 note=40 velocity=0 time=0
note_on channel=0 note=40 velocity=41 time=30
note_on channel=0 note=45 velocity=49 time=0
note_on channel=0 note=45 velocity=0 time=90
note_on channel=0 note=40 velocity=0 time=0
note_on channel=0 note=69 velocity=0 time=0
note_on channel=0 note=60 velocity=0 time=0
note_on channel=0 note=64 velocity=66 time=0
note_on channel=0 note=72 velocity=78 time=0
note_on channel=0 note=40 velocity=44 time=0
note_on channel=0 note=45 velocity=52 time=0
note_on channel=0 note=45 velocity=0 time=90
note_on channel=0 note=40 velocity=0 time=0
note_on channel=0 note=40 velocity=41 time=30
note_on channel=0 note=45 velocity=49 time=0
note_on channel=0 note=45 velocity=0 time=90
note_on channel=0 note=40 velocity=0 time=0
note_on channel=0 note=72 velocity=0 time=30
note_on channel=0 note=64 velocity=0 time=0
note_on channel=0 note=62 velocity=61 time=0
note_on channel=0 note=71 velocity=73 time=0
note_on channel=0 note=44 velocity=50 time=0
note_on channel=0 note=40 velocity=42 time=0
note_on channel=0 note=40 velocity=0 time=90
note_on channel=0 note=44 velocity=0 time=0
note_on channel=0 note=44 velocity=50 time=30
note_on channel=0 note=40 velocity=42 time=0
note_on channel=0 note=40 velocity=0 time=30
note_on channel=0 note=44 velocity=0 time=0
note_on channel=0 note=71 velocity=0 time=0
note_on channel=0 note=62 velocity=0 time=0
note_on channel=0 note=60 velocity=56 time=0
note_on channel=0 note=69 velocity=67 time=0
note_on channel=0 note=33 velocity=42 time=0
note_on channel=0 note=45 velocity=50 time=0
note_on channel=0 note=45 velocity=0 time=90
note_on channel=0 note=33 velocity=0 time=0
note_on channel=0 note=45 velocity=42 time=30
note_on channel=0 note=45 velocity=0 time=90
note_on channel=0 note=45 velocity=45 time=30
note_on channel=0 note=45 velocity=0 time=90
note_on channel=0 note=45 velocity=42 time=30
note_on channel=0 note=45 velocity=0 time=90
note_on channel=0 note=45 velocity=44 time=30
note_on channel=0 note=45 velocity=0 time=90
note_on channel=0 note=45 velocity=42 time=30
note_on channel=0 note=45 velocity=0 time=90
note_on channel=0 note=69 velocity=0 time=8
note_on channel=0 note=60 velocity=0 time=0
note_on channel=0 note=64 velocity=45 time=0
note_on channel=0 note=67 velocity=45 time=0
note_on channel=0 note=70 velocity=45 time=0
note_on channel=0 note=73 velocity=53 time=0
note_on channel=0 note=45 velocity=44 time=0
note_on channel=0 note=45 velocity=0 time=18
note_on channel=0 note=45 velocity=38 time=30
note_on channel=0 note=45 velocity=0 time=6
note_on channel=0 note=45 velocity=45 time=20
note_on channel=0 note=45 velocity=0 time=6
note_on channel=0 note=45 velocity=39 time=8
note_on channel=0 note=45 velocity=0 time=30
note_on channel=0 note=45 velocity=46 time=0
note_on channel=0 note=45 velocity=0 time=30
note_on channel=0 note=45 velocity=40 time=0
note_on channel=0 note=45 velocity=0 time=30
note_on channel=0 note=73 velocity=0 time=0
note_on channel=0 note=64 velocity=0 time=0
note_on channel=0 note=67 velocity=0 time=0
note_on channel=0 note=70 velocity=0 time=0
note_on channel=0 note=65 velocity=49 time=0
note_on channel=0 note=69 velocity=49 time=0
note_on channel=0 note=74 velocity=59 time=0
note_on channel=0 note=45 velocity=47 time=0
note_on channel=0 note=45 velocity=0 time=18
note_on channel=0 note=45 velocity=42 time=8
note_on channel=0 note=45 velocity=0 time=18
note_on channel=0 note=45 velocity=48 time=30
note_on channel=0 note=45 velocity=0 time=2
note_on channel=0 note=45 velocity=43 time=20
note_on channel=0 note=45 velocity=0 time=30
note_on channel=0 note=74 velocity=0 time=0
note_on channel=0 note=69 velocity=0 time=0
note_on channel=0 note=65 velocity=0 time=0
note_on channel=0 note=73 velocity=54 time=0
note_on channel=0 note=76 velocity=64 time=0
note_on channel=0 note=45 velocity=50 time=0
note_on channel=0 note=45 velocity=0 time=90
note_on channel=0 note=76 velocity=0 time=0
note_on channel=0 note=73 velocity=0 time=0
note_on channel=0 note=74 velocity=59 time=0
note_on channel=0 note=77 velocity=70 time=0
note_on channel=0 note=45 velocity=47 time=0
note_on channel=0 note=45 velocity=0 time=90
note_on channel=0 note=77 velocity=0 time=0
note_on channel=0 note=74 velocity=0 time=0
note_on channel=0 note=74 velocity=65 time=0
note_on channel=0 note=77 velocity=77 time=0
note_on channel=0 note=45 velocity=53 time=0
note_on channel=0 note=45 velocity=0 time=2
note_on channel=0 note=45 velocity=48 time=12
note_on channel=0 note=45 velocity=0 time=2
note_on channel=0 note=45 velocity=53 time=20
note_on channel=0 note=45 velocity=0 time=10
note_on channel=0 note=45 velocity=50 time=0
note_on channel=0 note=45 velocity=0 time=10
note_on channel=0 note=77 velocity=0 time=0
note_on channel=0 note=74 velocity=0 time=0
note_on channel=0 note=74 velocity=63 time=0
note_on channel=0 note=77 velocity=75 time=0
note_on channel=0 note=45 velocity=54 time=0
note_on channel=0 note=45 velocity=0 time=22
note_on channel=0 note=45 velocity=50 time=0
note_on channel=0 note=45 velocity=0 time=30
note_on channel=0 note=77 velocity=0 time=0
note_on channel=0 note=74 velocity=0 time=0
note_on channel=0 note=74 velocity=60 time=0
note_on channel=0 note=77 velocity=72 time=0
note_on channel=0 note=46 velocity=55 time=0
note_on channel=0 note=46 velocity=0 time=30
note_on channel=0 note=46 velocity=49 time=0
note_on channel=0 note=46 velocity=0 time=2
note_on channel=0 note=46 velocity=55 time=20
note_on channel=0 note=46 velocity=0 time=22
note_on channel=0 note=46 velocity=51 time=0
note_on channel=0 note=46 velocity=0 time=30
note_on channel=0 note=46 velocity=55 time=30
note_on channel=0 note=46 velocity=0 time=2
note_on channel=0 note=46 velocity=52 time=0
note_on channel=0 note=46 velocity=0 time=30
note_on channel=0 note=77 velocity=0 time=0
note_on channel=0 note=74 velocity=0 time=0
note_on channel=0 note=67 velocity=69 time=0
note_on channel=0 note=75 velocity=82 time=0
note_on channel=0 note=46 velocity=60 time=0
note_on channel=0 note=46 velocity=0 time=22
note_on channel=0 note=46 velocity=55 time=0
note_on channel=0 note=46 velocity=0 time=2
note_on channel=0 note=46 velocity=58 time=12
note_on channel=0 note=46 velocity=0 time=22
note_on channel=0 note=46 velocity=55 time=20
note_on channel=0 note=46 velocity=0 time=2
note_on channel=0 note=75 velocity=0 time=30
note_on channel=0 note=67 velocity=0 time=0
note_on channel=0 note=65 velocity=61 time=0
note_on channel=0 note=74 velocity=73 time=0
note_on channel=0 note=46 velocity=57 time=0
note_on channel=0 note=46 velocity=0 time=90
note_on channel=0 note=74 velocity=0 time=0
note_on channel=0 note=65 velocity=0 time=0
note_on channel=0 note=63 velocity=61 time=30
note_on channel=0 note=72 velocity=73 time=0
note_on channel=0 note=46 velocity=52 time=0
note_on channel=0 note=46 velocity=0 time=90
note_on channel=0 note=72 velocity=0 time=0
note_on channel=0 note=63 velocity=0 time=0
note_on channel=0 note=62 velocity=67 time=30
note_on channel=0 note=65 velocity=67 time=0
note_on channel=0 note=70 velocity=79 time=0
note_on channel=0 note=46 velocity=55 time=0
note_on channel=0 note=46 velocity=0 time=90
note_on channel=0 note=46 velocity=50 time=0
note_on channel=0 note=46 velocity=0 time=90
note_on channel=0 note=46 velocity=53 time=30
note_on channel=0 note=46 velocity=0 time=90
note_on channel=0 note=46 velocity=49 time=30
note_on channel=0 note=46 velocity=0 time=90
note_on channel=0 note=70 velocity=0 time=0
note_on channel=0 note=65 velocity=0 time=0
note_on channel=0 note=62 velocity=0 time=0
note_on channel=0 note=65 velocity=66 time=0
note_on channel=0 note=62 velocity=66 time=0
note_on channel=0 note=69 velocity=78 time=0
note_on channel=0 note=46 velocity=51 time=0
note_on channel=0 note=46 velocity=0 time=90
note_on channel=0 note=46 velocity=50 time=30
note_on channel=0 note=46 velocity=0 time=90
note_on channel=0 note=69 velocity=0 time=0
note_on channel=0 note=62 velocity=0 time=0
note_on channel=0 note=65 velocity=0 time=0
note_on channel=0 note=65 velocity=68 time=0
note_on channel=0 note=62 velocity=68 time=0
note_on channel=0 note=68 velocity=80 time=0
note_on channel=0 note=47 velocity=56 time=0
note_on channel=0 note=47 velocity=0 time=90
note_on channel=0 note=47 velocity=49 time=30
note_on channel=0 note=47 velocity=0 time=90
note_on channel=0 note=47 velocity=52 time=0
note_on channel=0 note=47 velocity=0 time=90
note_on channel=0 note=47 velocity=49 time=30
note_on channel=0 note=47 velocity=0 time=90
note_on channel=0 note=68 velocity=0 time=0
note_on channel=0 note=62 velocity=0 time=0
note_on channel=0 note=65 velocity=0 time=0
note_on channel=0 note=65 velocity=61 time=0
note_on channel=0 note=62 velocity=61 time=0
note_on channel=0 note=68 velocity=73 time=0
note_on channel=0 note=47 velocity=50 time=0
note_on channel=0 note=47 velocity=0 time=90
note_on channel=0 note=47 velocity=50 time=30
note_on channel=0 note=47 velocity=0 time=30
note_on channel=0 note=68 velocity=0 time=0
note_on channel=0 note=62 velocity=0 time=0
note_on channel=0 note=65 velocity=0 time=0
note_on channel=0 note=64 velocity=61 time=0
note_on channel=0 note=60 velocity=61 time=0
note_on channel=0 note=69 velocity=73 time=0
note_on channel=0 note=48 velocity=55 time=0
note_on channel=0 note=48 velocity=0 time=480
note_on channel=0 note=64 velocity=0 time=0
note_on channel=0 note=60 velocity=0 time=0
note_on channel=0 note=69 velocity=0 time=0
note_on channel=0 note=64 velocity=49 time=240
note_on channel=0 note=71 velocity=58 time=0
note_on channel=0 note=52 velocity=39 time=0
note_on channel=0 note=56 velocity=44 time=0
note_on channel=0 note=56 velocity=0 time=240
note_on channel=0 note=64 velocity=0 time=0
note_on channel=0 note=71 velocity=0 time=0
note_on channel=0 note=52 velocity=0 time=0
note_on channel=0 note=57 velocity=42 time=0
note_on channel=0 note=33 velocity=35 time=0
control_change channel=0 control=64 value=127 time=32
note_on channel=0 note=57 velocity=0 time=0
note_on channel=0 note=60 velocity=44 time=0
note_on channel=0 note=60 velocity=0 time=20
note_on channel=0 note=64 velocity=45 time=0
note_on channel=0 note=64 velocity=0 time=40
note_on channel=0 note=33 velocity=0 time=0
note_on channel=0 note=69 velocity=47 time=0
note_on channel=0 note=69 velocity=0 time=60
note_on channel=0 note=72 velocity=43 time=0
note_on channel=0 note=72 velocity=0 time=80
note_on channel=0 note=76 velocity=43 time=0
note_on channel=0 note=76 velocity=0 time=0
note_on channel=0 note=74 velocity=47 time=0
note_on channel=0 note=64 velocity=32 time=0
note_on channel=0 note=60 velocity=27 time=0
note_on channel=0 note=57 velocity=27 time=0
note_on channel=0 note=74 velocity=0 time=20
note_on channel=0 note=72 velocity=43 time=0
note_on channel=0 note=72 velocity=0 time=40
note_on channel=0 note=71 velocity=43 time=0
note_on channel=0 note=71 velocity=0 time=20
note_on channel=0 note=64 velocity=0 time=0
note_on channel=0 note=60 velocity=0 time=0
note_on channel=0 note=57 velocity=0 time=0
note_on channel=0 note=69 velocity=45 time=0
note_on channel=0 note=64 velocity=33 time=0
note_on channel=0 note=60 velocity=28 time=0
note_on channel=0 note=57 velocity=28 time=0
note_on channel=0 note=69 velocity=0 time=20
note_on channel=0 note=72 velocity=47 time=0
note_on channel=0 note=72 velocity=0 time=0
note_on channel=0 note=76 velocity=48 time=0
note_on channel=0 note=76 velocity=0 time=20
note_on channel=0 note=64 velocity=0 time=0
note_on channel=0 note=60 velocity=0 time=0
note_on channel=0 note=57 velocity=0 time=0
note_on channel=0 note=81 velocity=50 time=0
note_on channel=0 note=81 velocity=0 time=80
note_on channel=0 note=84 velocity=47 time=0
note_on channel=0 note=84 velocity=0 time=80
note_on channel=0 note=88 velocity=47 time=0
note_on channel=0 note=88 velocity=0 time=20
note_on channel=0 note=86 velocity=52 time=0
note_on channel=0 note=64 velocity=32 time=0
note_on channel=0 note=60 velocity=27 time=0
note_on channel=0 note=57 velocity=27 time=0
note_on channel=0 note=86 velocity=0 time=20
note_on channel=0 note=84 velocity=47 time=0
note_on channel=0 note=84 velocity=0 time=40
note_on channel=0 note=83 velocity=47 time=0
note_on channel=0 note=83 velocity=0 time=20
note_on channel=0 note=64 velocity=0 time=0
note_on channel=0 note=60 velocity=0 time=0
note_on channel=0 note=57 velocity=0 time=0
note_on channel=0 note=81 velocity=49 time=0
note_on channel=0 note=64 velocity=34 time=0
note_on channel=0 note=60 velocity=28 time=0
note_on channel=0 note=57 velocity=28 time=0
note_on channel=0 note=81 velocity=0 time=40
note_on channel=0 note=84 velocity=51 time=0
note_on channel=0 note=84 velocity=0 time=20
note_on channel=0 note=88 velocity=53 time=0
note_on channel=0 note=88 velocity=0 time=0
note_on channel=0 note=64 velocity=0 time=0
note_on channel=0 note=60 velocity=0 time=0
note_on channel=0 note=57 velocity=0 time=0
note_on channel=0 note=93 velocity=53 time=0
note_on channel=0 note=93 velocity=0 time=80
note_on channel=0 note=96 velocity=50 time=0
note_on channel=0 note=96 velocity=0 time=80
note_on channel=0 note=100 velocity=50 time=0
note_on channel=0 note=100 velocity=0 time=80
note_on channel=0 note=98 velocity=54 time=0
note_on channel=0 note=64 velocity=32 time=0
note_on channel=0 note=60 velocity=27 time=0
note_on channel=0 note=57 velocity=27 time=0
note_on channel=0 note=98 velocity=0 time=80
note_on channel=0 note=96 velocity=49 time=0
note_on channel=0 note=96 velocity=0 time=80
note_on channel=0 note=95 velocity=50 time=0
note_on channel=0 note=95 velocity=0 time=80
note_on channel=0 note=64 velocity=0 time=0
note_on channel=0 note=60 velocity=0 time=0
note_on channel=0 note=57 velocity=0 time=0
note_on channel=0 note=94 velocity=54 time=0
note_on channel=0 note=64 velocity=33 time=0
note_on channel=0 note=60 velocity=28 time=0
note_on channel=0 note=57 velocity=28 time=0
note_on channel=0 note=94 velocity=0 time=60
note_on channel=0 note=93 velocity=50 time=0
note_on channel=0 note=93 velocity=0 time=80
note_on channel=0 note=92 velocity=49 time=0
note_on channel=0 note=92 velocity=0 time=80
note_on channel=0 note=64 velocity=0 time=0
note_on channel=0 note=60 velocity=0 time=0
note_on channel=0 note=57 velocity=0 time=0
note_on channel=0 note=91 velocity=51 time=0
note_on channel=0 note=91 velocity=0 time=80
note_on channel=0 note=90 velocity=49 time=0
note_on channel=0 note=90 velocity=0 time=80
note_on channel=0 note=89 velocity=48 time=0
note_on channel=0 note=89 velocity=0 time=80
note_on channel=0 note=88 velocity=51 time=0
note_on channel=0 note=88 velocity=0 time=80
note_on channel=0 note=87 velocity=49 time=0
note_on channel=0 note=87 velocity=0 time=80
note_on channel=0 note=86 velocity=50 time=0
note_on channel=0 note=86 velocity=0 time=0
note_on channel=0 note=85 velocity=50 time=0
note_on channel=0 note=85 velocity=0 time=80
note_on channel=0 note=84 velocity=49 time=0
note_on channel=0 note=84 velocity=0 time=80
note_on channel=0 note=83 velocity=49 time=0
note_on channel=0 note=83 velocity=0 time=20
note_on channel=0 note=82 velocity=48 time=0
note_on channel=0 note=82 velocity=0 time=0
note_on channel=0 note=81 velocity=48 time=0
note_on channel=0 note=81 velocity=0 time=0
note_on channel=0 note=80 velocity=47 time=0
note_on channel=0 note=80 velocity=0 time=0
note_on channel=0 note=79 velocity=47 time=0
note_on channel=0 note=79 velocity=0 time=0
note_on channel=0 note=78 velocity=46 time=0
note_on channel=0 note=78 velocity=0 time=0
note_on channel=0 note=77 velocity=46 time=0
note_on channel=0 note=77 velocity=0 time=0
note_on channel=0 note=76 velocity=39 time=0
control_change channel=0 control=64 value=0 time=0
note_on channel=0 note=76 velocity=0 time=120
note_on channel=0 note=75 velocity=36 time=0
note_on channel=0 note=75 velocity=0 time=0
note_on channel=0 note=76 velocity=41 time=0
note_on channel=0 note=76 velocity=0 time=0
note_on channel=0 note=71 velocity=35 time=0
note_on channel=0 note=71 velocity=0 time=0
note_on channel=0 note=74 velocity=43 time=0
note_on channel=0 note=74 velocity=0 time=0
note_on channel=0 note=72 velocity=39 time=0
note_on channel=0 note=72 velocity=0 time=0
note_on channel=0 note=69 velocity=46 time=0
note_on channel=0 note=45 velocity=37 time=0
control_change channel=0 control=64 value=127 time=43
note_on channel=0 note=45 velocity=0 time=77
note_on channel=0 note=52 velocity=33 time=0
note_on channel=0 note=52 velocity=0 time=120
note_on channel=0 note=69 velocity=0 time=0
note_on channel=0 note=57 velocity=33 time=0
note_on channel=0 note=57 velocity=0 time=0
note_on channel=0 note=60 velocity=34 time=0
note_on channel=0 note=60 velocity=0 time=120
note_on channel=0 note=64 velocity=38 time=0
note_on channel=0 note=64 velocity=0 time=0
note_on channel=0 note=69 velocity=42 time=0
note_on channel=0 note=69 velocity=0 time=0
note_on channel=0 note=71 velocity=46 time=0
note_on channel=0 note=40 velocity=40 time=0
control_change channel=0 control=64 value=0 time=19
control_change channel=0 control=64 value=127 time=38
note_on channel=0 note=40 velocity=0 time=63
note_on channel=0 note=52 velocity=33 time=0
note_on channel=0 note=52 velocity=0 time=0
note_on channel=0 note=71 velocity=0 time=0
note_on channel=0 note=56 velocity=34 time=0
note_on channel=0 note=56 velocity=0 time=120
note_on channel=0 note=64 velocity=36 time=0
note_on channel=0 note=64 velocity=0 time=120
note_on channel=0 note=68 velocity=39 time=0
note_on channel=0 note=68 velocity=0 time=0
note_on channel=0 note=71 velocity=42 time=0
note_on channel=0 note=71 velocity=0 time=0
note_on channel=0 note=72 velocity=45 time=0
note_on channel=0 note=45 velocity=38 time=0
control_change channel=0 control=64 value=0 time=6
control_change channel=0 control=64 value=127 time=45
note_on channel=0 note=45 velocity=0 time=69
note_on channel=0 note=52 velocity=35 time=0
note_on channel=0 note=52 velocity=0 time=120
note_on channel=0 note=72 velocity=0 time=0
note_on channel=0 note=57 velocity=35 time=0
note_on channel=0 note=57 velocity=0 time=120
note_on channel=0 note=64 velocity=35 time=0
control_change channel=0 control=64 value=0 time=34
note_on channel=0 note=64 velocity=0 time=16
note_on channel=0 note=76 velocity=38 time=0
note_on channel=0 note=76 velocity=0 time=28
note_on channel=0 note=75 velocity=34 time=0
note_on channel=0 note=75 velocity=0 time=0
note_on channel=0 note=76 velocity=41 time=0
note_on channel=0 note=76 velocity=0 time=120
note_on channel=0 note=75 velocity=37 time=0
note_on channel=0 note=75 velocity=0 time=0
note_on channel=0 note=76 velocity=46 time=0
note_on channel=0 note=76 velocity=0 time=0
note_on channel=0 note=71 velocity=39 time=0
note_on channel=0 note=71 velocity=0 time=120
note_on channel=0 note=74 velocity=48 time=0
note_on channel=0 note=74 velocity=0 time=0
note_on channel=0 note=72 velocity=39 time=0
note_on channel=0 note=72 velocity=0 time=0
note_on channel=0 note=69 velocity=48 time=0
note_on channel=0 note=45 velocity=38 time=0
control_change channel=0 control=64 value=127 time=57
note_on channel=0 note=45 velocity=0 time=63
note_on channel=0 note=52 velocity=35 time=0
note_on channel=0 note=52 velocity=0 time=120
note_on channel=0 note=69 velocity=0 time=0
note_on channel=0 note=57 velocity=34 time=0
note_on channel=0 note=57 velocity=0 time=0
note_on channel=0 note=60 velocity=34 time=0
note_on channel=0 note=60 velocity=0 time=120
note_on channel=0 note=64 velocity=37 time=0
note_on channel=0 note=64 velocity=0 time=0
note_on channel=0 note=69 velocity=41 time=0
note_on channel=0 note=69 velocity=0 time=0
note_on channel=0 note=71 velocity=45 time=0
note_on channel=0 note=40 velocity=38 time=0
control_change channel=0 control=64 value=0 time=11
control_change channel=0 control=64 value=127 time=58
note_on channel=0 note=40 velocity=0 time=51
note_on channel=0 note=52 velocity=37 time=0
note_on channel=0 note=52 velocity=0 time=0
note_on channel=0 note=71 velocity=0 time=0
note_on channel=0 note=56 velocity=37 time=0
note_on channel=0 note=56 velocity=0 time=0
note_on channel=0 note=64 velocity=37 time=0
note_on channel=0 note=64 velocity=0 time=120
note_on channel=0 note=72 velocity=40 time=0
note_on channel=0 note=72 velocity=0 time=0
note_on channel=0 note=71 velocity=38 time=0
note_on channel=0 note=71 velocity=0 time=0
note_on channel=0 note=69 velocity=40 time=0
note_on channel=0 note=45 velocity=38 time=0
control_change channel=0 control=64 value=0 time=18
control_change channel=0 control=64 value=127 time=38
note_on channel=0 note=45 velocity=0 time=0
note_on channel=0 note=52 velocity=32 time=0
note_on channel=0 note=52 velocity=0 time=0
note_on channel=0 note=69 velocity=0 time=0
note_on channel=0 note=57 velocity=32 time=0
control_change channel=0 control=64 value=0 time=42
note_on channel=0 note=57 velocity=0 time=0
note_on channel=0 note=71 velocity=38 time=0
note_on channel=0 note=71 velocity=0 time=120
note_on channel=0 note=72 velocity=42 time=0
note_on channel=0 note=72 velocity=0 time=0
note_on channel=0 note=74 velocity=46 time=0
note_on channel=0 note=74 velocity=0 time=0
note_on channel=0 note=76 velocity=50 time=0
note_on channel=0 note=48 velocity=44 time=0
control_change channel=0 control=64 value=0 time=11
control_change channel=0 control=64 value=127 time=58
note_on channel=0 note=48 velocity=0 time=51
note_on channel=0 note=55 velocity=38 time=0
note_on channel=0 note=55 velocity=0 time=0
note_on channel=0 note=60 velocity=39 time=0
note_on channel=0 note=60 velocity=0 time=0
note_on channel=0 note=76 velocity=0 time=0
note_on channel=0 note=67 velocity=40 time=0
note_on channel=0 note=67 velocity=0 time=0
note_on channel=0 note=77 velocity=46 time=0
note_on channel=0 note=77 velocity=0 time=120
note_on channel=0 note=76 velocity=43 time=0
note_on channel=0 note=76 velocity=0 time=0
note_on channel=0 note=74 velocity=50 time=0
note_on channel=0 note=43 velocity=44 time=0
control_change channel=0 control=64 value=0 time=11
control_change channel=0 control=64 value=127 time=58
note_on channel=0 note=43 velocity=0 time=51
note_on channel=0 note=55 velocity=38 time=0
note_on channel=0 note=55 velocity=0 time=0
note_on channel=0 note=59 velocity=39 time=0
note_on channel=0 note=59 velocity=0 time=0
note_on channel=0 note=74 velocity=0 time=0
note_on channel=0 note=65 velocity=40 time=0
note_on channel=0 note=65 velocity=0 time=0
note_on channel=0 note=76 velocity=46 time=0
note_on channel=0 note=76 velocity=0 time=120
note_on channel=0 note=74 velocity=43 time=0
note_on channel=0 note=74 velocity=0 time=0
note_on channel=0 note=72 velocity=50 time=0
note_on channel=0 note=45 velocity=44 time=0
control_change channel=0 control=64 value=0 time=11
control_change channel=0 control=64 value=127 time=58
note_on channel=0 note=45 velocity=0 time=51
note_on channel=0 note=52 velocity=38 time=0
note_on channel=0 note=52 velocity=0 time=0
note_on channel=0 note=57 velocity=39 time=0
note_on channel=0 note=57 velocity=0 time=0
note_on channel=0 note=72 velocity=0 time=0
note_on channel=0 note=64 velocity=40 time=0
note_on channel=0 note=64 velocity=0 time=0
note_on channel=0 note=74 velocity=46 time=0
note_on channel=0 note=74 velocity=0 time=0
note_on channel=0 note=72 velocity=43 time=0
note_on channel=0 note=72 velocity=0 time=0
note_on channel=0 note=71 velocity=50 time=0
note_on channel=0 note=40 velocity=44 time=0
control_change channel=0 control=64 value=0 time=11
control_change channel=0 control=64 value=127 time=58
note_on channel=0 note=40 velocity=0 time=51
note_on channel=0 note=52 velocity=38 time=0
note_on channel=0 note=52 velocity=0 time=0
note_on channel=0 note=71 velocity=0 time=0
note_on channel=0 note=64 velocity=39 time=0
note_on channel=0 note=64 velocity=0 time=90
note_on channel=0 note=64 velocity=39 time=0
note_on channel=0 note=64 velocity=0 time=0
note_on channel=0 note=76 velocity=45 time=0
note_on channel=0 note=76 velocity=0 time=90
note_on channel=0 note=64 velocity=39 time=0
note_on channel=0 note=64 velocity=0 time=0
note_on channel=0 note=76 velocity=44 time=0
note_on channel=0 note=76 velocity=0 time=90
note_on channel=0 note=76 velocity=43 time=0
note_on channel=0 note=76 velocity=0 time=0
note_on channel=0 note=88 velocity=48 time=0
control_change channel=0 control=64 value=0 time=78
note_on channel=0 note=88 velocity=0 time=12
note_on channel=0 note=75 velocity=42 time=0
note_on channel=0 note=75 velocity=0 time=0
note_on channel=0 note=76 velocity=50 time=0
note_on channel=0 note=76 velocity=0 time=90
note_on channel=0 note=75 velocity=42 time=30
note_on channel=0 note=75 velocity=0 time=0
note_on channel=0 note=76 velocity=48 time=0
note_on channel=0 note=76 velocity=0 time=90
note_on channel=0 note=75 velocity=39 time=0
note_on channel=0 note=75 velocity=0 time=20
note_on channel=0 note=76 velocity=41 time=0
note_on channel=0 note=76 velocity=0 time=10
note_on channel=0 note=75 velocity=35 time=30
note_on channel=0 note=75 velocity=0 time=60
note_on channel=0 note=76 velocity=37 time=0
note_on channel=0 note=76 velocity=0 time=80
note_on channel=0 note=75 velocity=34 time=0
note_on channel=0 note=75 velocity=0 time=0
note_on channel=0 note=76 velocity=40 time=0
note_on channel=0 note=76 velocity=0 time=0
note_on channel=0 note=75 velocity=36 time=0
note_on channel=0 note=75 velocity=0 time=0
note_on channel=0 note=76 velocity=42 time=0
note_on channel=0 note=76 velocity=0 time=0
note_on channel=0 note=71 velocity=36 time=0
note_on channel=0 note=71 velocity=0 time=0
note_on channel=0 note=74 velocity=43 time=0
note_on channel=0 note=74 velocity=0 time=0
note_on channel=0 note=72 velocity=35 time=0
note_on channel=0 note=72 velocity=0 time=0
note_on channel=0 note=69 velocity=48 time=0
note_on channel=0 note=45 velocity=36 time=0
control_change channel=0 control=64 value=127 time=71
note_on channel=0 note=45 velocity=0 time=49
note_on channel=0 note=52 velocity=33 time=0
note_on channel=0 note=52 velocity=0 time=120
note_on channel=0 note=69 velocity=0 time=0
note_on channel=0 note=57 velocity=33 time=0
note_on channel=0 note=57 velocity=0 time=0
note_on channel=0 note=60 velocity=34 time=0
note_on channel=0 note=60 velocity=0 time=120
note_on channel=0 note=64 velocity=38 time=0
note_on channel=0 note=64 velocity=0 time=0
note_on channel=0 note=69 velocity=42 time=0
note_on channel=0 note=69 velocity=0 time=0
note_on channel=0 note=71 velocity=46 time=0
note_on channel=0 note=40 velocity=40 time=0
control_change channel=0 control=64 value=0 time=19
control_change channel=0 control=64 value=127 time=38
note_on channel=0 note=40 velocity=0 time=63
note_on channel=0 note=52 velocity=33 time=0
note_on channel=0 note=52 velocity=0 time=0
note_on channel=0 note=71 velocity=0 time=0
note_on channel=0 note=56 velocity=34 time=0
note_on channel=0 note=56 velocity=0 time=120
note_on channel=0 note=64 velocity=36 time=0
note_on channel=0 note=64 velocity=0 time=120
note_on channel=0 note=68 velocity=39 time=0
note_on channel=0 note=68 velocity=0 time=0
note_on channel=0 note=71 velocity=42 time=0
note_on channel=0 note=71 velocity=0 time=0
note_on channel=0 note=72 velocity=45 time=0
note_on channel=0 note=45 velocity=38 time=0
control_change channel=0 control=64 value=0 time=6
control_change channel=0 control=64 value=127 time=45
note_on channel=0 note=45 velocity=0 time=69
note_on channel=0 note=52 velocity=35 time=0
note_on channel=0 note=52 velocity=0 time=120
note_on channel=0 note=72 velocity=0 time=0
note_on channel=0 note=57 velocity=35 time=0
note_on channel=0 note=57 velocity=0 time=120
note_on channel=0 note=64 velocity=35 time=0
control_change channel=0 control=64 value=0 time=34
note_on channel=0 note=64 velocity=0 time=0
note_on channel=0 note=76 velocity=38 time=0
note_on channel=0 note=76 velocity=0 time=0
note_on channel=0 note=75 velocity=34 time=0
note_on channel=0 note=75 velocity=0 time=0
note_on channel=0 note=76 velocity=41 time=0
note_on channel=0 note=76 velocity=0 time=96
note_on channel=0 note=75 velocity=37 time=0
note_on channel=0 note=75 velocity=0 time=0
note_on channel=0 note=76 velocity=46 time=0
note_on channel=0 note=76 velocity=0 time=0
note_on channel=0 note=71 velocity=39 time=0
note_on channel=0 note=71 velocity=0 time=0
note_on channel=0 note=74 velocity=48 time=0
note_on channel=0 note=74 velocity=0 time=0
note_on channel=0 note=72 velocity=39 time=0
note_on channel=0 note=72 velocity=0 time=0
note_on channel=0 note=69 velocity=48 time=0
note_on channel=0 note=45 velocity=38 time=0
control_change channel=0 control=64 value=127 time=50
note_on channel=0 note=45 velocity=0 time=70
note_on channel=0 note=52 velocity=35 time=0
note_on channel=0 note=52 velocity=0 time=120
note_on channel=0 note=69 velocity=0 time=0
note_on channel=0 note=57 velocity=34 time=0
note_on channel=0 note=57 velocity=0 time=0
note_on channel=0 note=60 velocity=34 time=0
note_on channel=0 note=60 velocity=0 time=120
note_on channel=0 note=64 velocity=37 time=0
note_on channel=0 note=64 velocity=0 time=0
note_on channel=0 note=69 velocity=41 time=0
note_on channel=0 note=69 velocity=0 time=0
note_on channel=0 note=71 velocity=45 time=0
note_on channel=0 note=40 velocity=38 time=0
control_change channel=0 control=64 value=0 time=11
control_change channel=0 control=64 value=127 time=58
note_on channel=0 note=40 velocity=0 time=51
note_on channel=0 note=52 velocity=37 time=0
note_on channel=0 note=52 velocity=0 time=0
note_on channel=0 note=71 velocity=0 time=0
note_on channel=0 note=56 velocity=37 time=0
note_on channel=0 note=56 velocity=0 time=0
note_on channel=0 note=64 velocity=37 time=0
note_on channel=0 note=64 velocity=0 time=0
note_on channel=0 note=72 velocity=40 time=0
note_on channel=0 note=72 velocity=0 time=0
note_on channel=0 note=71 velocity=38 time=0
note_on channel=0 note=71 velocity=0 time=0
note_on channel=0 note=69 velocity=36 time=0
note_on channel=0 note=33 velocity=17 time=0
note_on channel=0 note=45 velocity=25 time=0
control_change channel=0 control=64 value=0 time=18
control_change channel=0 control=64 value=127 time=75
note_on channel=0 note=45 velocity=0 time=147
note_on channel=0 note=33 velocity=0 time=0
note_on channel=0 note=69 velocity=0 time=0
control_change channel=0 control=64 value=0 time=0
