control_change channel=0 control=7 value=100 time=0
control_change channel=0 control=10 value=64 time=0
control_change channel=0 control=91 value=127 time=0
control_change channel=0 control=91 value=127 time=0
control_change channel=0 control=7 value=100 time=0
control_change channel=0 control=10 value=64 time=0
control_change channel=0 control=91 value=127 time=0
control_change channel=0 control=64 value=0 time=0
note_on channel=0 note=37 velocity=42 time=1
note_on channel=0 note=44 velocity=46 time=119
note_on channel=0 note=37 velocity=0 time=1
note_on channel=0 note=44 velocity=0 time=114
note_on channel=0 note=49 velocity=48 time=5
note_on channel=0 note=44 velocity=39 time=0
note_on channel=0 note=44 velocity=0 time=120
note_on channel=0 note=52 velocity=50 time=0
note_on channel=0 note=49 velocity=0 time=20
note_on channel=0 note=56 velocity=51 time=100
note_on channel=0 note=37 velocity=43 time=0
note_on channel=0 note=52 velocity=0 time=20
note_on channel=0 note=37 velocity=0 time=100
note_on channel=0 note=49 velocity=46 time=0
note_on channel=0 note=56 velocity=0 time=20
note_on channel=0 note=52 velocity=47 time=100
note_on channel=0 note=44 velocity=39 time=0
note_on channel=0 note=49 velocity=0 time=20
note_on channel=0 note=44 velocity=0 time=100
note_on channel=0 note=56 velocity=49 time=0
note_on channel=0 note=52 velocity=0 time=20
note_on channel=0 note=61 velocity=51 time=100
note_on channel=0 note=37 velocity=41 time=0
note_on channel=0 note=56 velocity=0 time=20
note_on channel=0 note=37 velocity=0 time=100
note_on channel=0 note=52 velocity=46 time=0
note_on channel=0 note=61 velocity=0 time=20
note_on channel=0 note=56 velocity=47 time=100
note_on channel=0 note=44 velocity=39 time=0
note_on channel=0 note=52 velocity=0 time=20
note_on channel=0 note=44 velocity=0 time=100
note_on channel=0 note=61 velocity=49 time=0
note_on channel=0 note=56 velocity=0 time=20
note_on channel=0 note=64 velocity=51 time=100
note_on channel=0 note=37 velocity=42 time=0
note_on channel=0 note=61 velocity=0 time=20
note_on channel=0 note=37 velocity=0 time=100
note_on channel=0 note=56 velocity=47 time=0
note_on channel=0 note=64 velocity=0 time=20
note_on channel=0 note=61 velocity=48 time=100
note_on channel=0 note=44 velocity=39 time=0
note_on channel=0 note=56 velocity=0 time=20
note_on channel=0 note=44 velocity=0 time=100
note_on channel=0 note=64 velocity=49 time=0
note_on channel=0 note=61 velocity=0 time=20
note_on channel=0 note=68 velocity=50 time=100
note_on channel=0 note=37 velocity=43 time=0
note_on channel=0 note=64 velocity=0 time=20
note_on channel=0 note=37 velocity=0 time=100
note_on channel=0 note=61 velocity=47 time=0
note_on channel=0 note=68 velocity=0 time=20
note_on channel=0 note=64 velocity=47 time=100
note_on channel=0 note=44 velocity=41 time=0
note_on channel=0 note=61 velocity=0 time=20
note_on channel=0 note=44 velocity=0 time=100
note_on channel=0 note=68 velocity=49 time=0
note_on channel=0 note=64 velocity=0 time=20
note_on channel=0 note=73 velocity=50 time=100
note_on channel=0 note=37 velocity=43 time=0
note_on channel=0 note=68 velocity=0 time=20
note_on channel=0 note=37 velocity=0 time=100
note_on channel=0 note=64 velocity=51 time=0
note_on channel=0 note=73 velocity=0 time=20
note_on channel=0 note=68 velocity=47 time=100
note_on channel=0 note=44 velocity=40 time=0
note_on channel=0 note=64 velocity=0 time=20
note_on channel=0 note=44 velocity=0 time=100
note_on channel=0 note=73 velocity=51 time=0
note_on channel=0 note=68 velocity=0 time=20
note_on channel=0 note=76 velocity=52 time=100
note_on channel=0 note=37 velocity=41 time=0
note_on channel=0 note=73 velocity=0 time=20
note_on channel=0 note=37 velocity=0 time=100
note_on channel=0 note=68 velocity=50 time=0
note_on channel=0 note=76 velocity=0 time=20
note_on channel=0 note=73 velocity=51 time=100
note_on channel=0 note=44 velocity=39 time=0
note_on channel=0 note=68 velocity=0 time=20
note_on channel=0 note=44 velocity=0 time=100
note_on channel=0 note=76 velocity=54 time=0
note_on channel=0 note=73 velocity=0 time=20
note_on channel=0 note=76 velocity=0 time=0
note_on channel=0 note=68 velocity=79 time=0
note_on channel=0 note=76 velocity=94 time=0
note_on channel=0 note=80 velocity=94 time=0
note_on channel=0 note=73 velocity=79 time=0
note_on channel=0 note=49 velocity=78 time=0
note_on channel=0 note=37 velocity=65 time=0
control_change channel=0 control=64 value=127 time=85
note_on channel=0 note=37 velocity=0 time=35
note_on channel=0 note=76 velocity=0 time=0
note_on channel=0 note=80 velocity=0 time=0
note_on channel=0 note=68 velocity=0 time=0
note_on channel=0 note=49 velocity=0 time=0
note_on channel=0 note=73 velocity=0 time=0
note_on channel=0 note=68 velocity=67 time=120
note_on channel=0 note=73 velocity=67 time=0
note_on channel=0 note=80 velocity=79 time=0
note_on channel=0 note=76 velocity=79 time=0
note_on channel=0 note=44 velocity=67 time=0
note_on channel=0 note=44 velocity=0 time=120
note_on channel=0 note=80 velocity=0 time=0
note_on channel=0 note=68 velocity=0 time=0
note_on channel=0 note=73 velocity=0 time=0
note_on channel=0 note=76 velocity=0 time=0
note_on channel=0 note=36 velocity=41 time=0
control_change channel=0 control=64 value=0 time=12
note_on channel=0 note=36 velocity=0 time=108
note_on channel=0 note=44 velocity=47 time=0
note_on channel=0 note=44 velocity=0 time=115
note_on channel=0 note=48 velocity=48 time=5
note_on channel=0 note=44 velocity=37 time=0
note_on channel=0 note=44 velocity=0 time=120
note_on channel=0 note=51 velocity=50 time=0
note_on channel=0 note=48 velocity=0 time=20
note_on channel=0 note=56 velocity=51 time=100
note_on channel=0 note=36 velocity=41 time=0
note_on channel=0 note=51 velocity=0 time=20
note_on channel=0 note=36 velocity=0 time=100
note_on channel=0 note=48 velocity=47 time=0
note_on channel=0 note=56 velocity=0 time=20
note_on channel=0 note=51 velocity=48 time=100
note_on channel=0 note=44 velocity=37 time=0
note_on channel=0 note=48 velocity=0 time=20
note_on channel=0 note=44 velocity=0 time=100
note_on channel=0 note=56 velocity=51 time=0
note_on channel=0 note=51 velocity=0 time=20
note_on channel=0 note=60 velocity=52 time=100
note_on channel=0 note=36 velocity=40 time=0
note_on channel=0 note=56 velocity=0 time=20
note_on channel=0 note=36 velocity=0 time=100
note_on channel=0 note=51 velocity=47 time=0
note_on channel=0 note=60 velocity=0 time=20
note_on channel=0 note=56 velocity=48 time=100
note_on channel=0 note=44 velocity=37 time=0
note_on channel=0 note=51 velocity=0 time=20
note_on channel=0 note=44 velocity=0 time=100
note_on channel=0 note=60 velocity=50 time=0
note_on channel=0 note=56 velocity=0 time=20
note_on channel=0 note=63 velocity=51 time=100
note_on channel=0 note=36 velocity=40 time=0
note_on channel=0 note=60 velocity=0 time=20
note_on channel=0 note=36 velocity=0 time=100
note_on channel=0 note=56 velocity=46 time=0
note_on channel=0 note=63 velocity=0 time=20
note_on channel=0 note=60 velocity=47 time=100
note_on channel=0 note=44 velocity=38 time=0
note_on channel=0 note=56 velocity=0 time=20
note_on channel=0 note=44 velocity=0 time=100
note_on channel=0 note=63 velocity=49 time=0
note_on channel=0 note=60 velocity=0 time=20
note_on channel=0 note=68 velocity=51 time=100
note_on channel=0 note=36 velocity=40 time=0
note_on channel=0 note=63 velocity=0 time=20
note_on channel=0 note=36 velocity=0 time=100
note_on channel=0 note=60 velocity=47 time=0
note_on channel=0 note=68 velocity=0 time=20
note_on channel=0 note=63 velocity=48 time=100
note_on channel=0 note=44 velocity=36 time=0
note_on channel=0 note=60 velocity=0 time=20
note_on channel=0 note=44 velocity=0 time=100
note_on channel=0 note=68 velocity=50 time=0
note_on channel=0 note=63 velocity=0 time=20
note_on channel=0 note=72 velocity=51 time=100
note_on channel=0 note=36 velocity=40 time=0
note_on channel=0 note=68 velocity=0 time=20
note_on channel=0 note=36 velocity=0 time=100
note_on channel=0 note=63 velocity=47 time=0
note_on channel=0 note=72 velocity=0 time=20
note_on channel=0 note=68 velocity=48 time=100
note_on channel=0 note=44 velocity=37 time=0
note_on channel=0 note=63 velocity=0 time=20
note_on channel=0 note=44 velocity=0 time=100
note_on channel=0 note=72 velocity=51 time=0
note_on channel=0 note=68 velocity=0 time=20
note_on channel=0 note=75 velocity=52 time=100
note_on channel=0 note=36 velocity=40 time=0
note_on channel=0 note=72 velocity=0 time=20
note_on channel=0 note=36 velocity=0 time=100
note_on channel=0 note=68 velocity=51 time=0
note_on channel=0 note=75 velocity=0 time=20
note_on channel=0 note=72 velocity=51 time=100
note_on channel=0 note=44 velocity=37 time=0
note_on channel=0 note=68 velocity=0 time=20
note_on channel=0 note=44 velocity=0 time=100
note_on channel=0 note=75 velocity=52 time=0
note_on channel=0 note=72 velocity=0 time=20
note_on channel=0 note=75 velocity=0 time=0
note_on channel=0 note=68 velocity=79 time=0
note_on channel=0 note=72 velocity=79 time=0
note_on channel=0 note=75 velocity=94 time=0
note_on channel=0 note=80 velocity=94 time=0
note_on channel=0 note=48 velocity=78 time=0
note_on channel=0 note=36 velocity=65 time=0
control_change channel=0 control=64 value=127 time=86
note_on channel=0 note=36 velocity=0 time=34
note_on channel=0 note=72 velocity=0 time=0
note_on channel=0 note=75 velocity=0 time=0
note_on channel=0 note=68 velocity=0 time=0
note_on channel=0 note=48 velocity=0 time=0
note_on channel=0 note=80 velocity=0 time=0
note_on channel=0 note=72 velocity=66 time=120
note_on channel=0 note=80 velocity=78 time=0
note_on channel=0 note=68 velocity=66 time=0
note_on channel=0 note=75 velocity=78 time=0
note_on channel=0 note=44 velocity=65 time=0
note_on channel=0 note=44 velocity=0 time=120
note_on channel=0 note=68 velocity=0 time=0
note_on channel=0 note=72 velocity=0 time=0
note_on channel=0 note=80 velocity=0 time=0
note_on channel=0 note=75 velocity=0 time=0
note_on channel=0 note=35 velocity=55 time=0
control_change channel=0 control=64 value=0 time=17
note_on channel=0 note=35 velocity=0 time=103
note_on channel=0 note=49 velocity=66 time=0
note_on channel=0 note=53 velocity=62 time=120
note_on channel=0 note=44 velocity=50 time=0
note_on channel=0 note=49 velocity=0 time=20
note_on channel=0 note=44 velocity=0 time=100
note_on channel=0 note=56 velocity=66 time=0
note_on channel=0 note=53 velocity=0 time=20
note_on channel=0 note=61 velocity=68 time=100
note_on channel=0 note=35 velocity=56 time=0
note_on channel=0 note=56 velocity=0 time=20
note_on channel=0 note=35 velocity=0 time=100
note_on channel=0 note=53 velocity=62 time=0
note_on channel=0 note=61 velocity=0 time=20
note_on channel=0 note=56 velocity=62 time=100
note_on channel=0 note=44 velocity=51 time=0
note_on channel=0 note=53 velocity=0 time=20
note_on channel=0 note=44 velocity=0 time=100
note_on channel=0 note=61 velocity=65 time=0
note_on channel=0 note=56 velocity=0 time=20
note_on channel=0 note=65 velocity=68 time=100
note_on channel=0 note=35 velocity=56 time=0
note_on channel=0 note=61 velocity=0 time=20
note_on channel=0 note=35 velocity=0 time=100
note_on channel=0 note=56 velocity=62 time=0
note_on channel=0 note=65 velocity=0 time=20
note_on channel=0 note=61 velocity=65 time=100
note_on channel=0 note=44 velocity=52 time=0
note_on channel=0 note=56 velocity=0 time=20
note_on channel=0 note=44 velocity=0 time=100
note_on channel=0 note=65 velocity=67 time=0
note_on channel=0 note=61 velocity=0 time=20
note_on channel=0 note=68 velocity=68 time=100
note_on channel=0 note=35 velocity=56 time=0
note_on channel=0 note=65 velocity=0 time=20
note_on channel=0 note=35 velocity=0 time=100
note_on channel=0 note=61 velocity=62 time=0
note_on channel=0 note=68 velocity=0 time=20
note_on channel=0 note=65 velocity=63 time=100
note_on channel=0 note=44 velocity=52 time=0
note_on channel=0 note=61 velocity=0 time=20
note_on channel=0 note=44 velocity=0 time=100
note_on channel=0 note=68 velocity=66 time=0
note_on channel=0 note=65 velocity=0 time=20
note_on channel=0 note=73 velocity=67 time=100
note_on channel=0 note=35 velocity=56 time=0
note_on channel=0 note=68 velocity=0 time=20
note_on channel=0 note=35 velocity=0 time=100
note_on channel=0 note=65 velocity=62 time=0
note_on channel=0 note=73 velocity=0 time=20
note_on channel=0 note=68 velocity=62 time=100
note_on channel=0 note=44 velocity=52 time=0
note_on channel=0 note=65 velocity=0 time=20
note_on channel=0 note=44 velocity=0 time=100
note_on channel=0 note=73 velocity=66 time=0
note_on channel=0 note=68 velocity=0 time=20
note_on channel=0 note=77 velocity=68 time=100
note_on channel=0 note=35 velocity=56 time=0
note_on channel=0 note=73 velocity=0 time=20
note_on channel=0 note=35 velocity=0 time=100
note_on channel=0 note=68 velocity=62 time=0
note_on channel=0 note=77 velocity=0 time=20
note_on channel=0 note=73 velocity=66 time=100
note_on channel=0 note=44 velocity=51 time=0
note_on channel=0 note=68 velocity=0 time=20
note_on channel=0 note=44 velocity=0 time=100
note_on channel=0 note=77 velocity=68 time=0
note_on channel=0 note=73 velocity=0 time=20
note_on channel=0 note=80 velocity=66 time=100
note_on channel=0 note=35 velocity=56 time=0
note_on channel=0 note=77 velocity=0 time=20
note_on channel=0 note=35 velocity=0 time=100
note_on channel=0 note=73 velocity=68 time=0
note_on channel=0 note=80 velocity=0 time=20
note_on channel=0 note=77 velocity=69 time=100
note_on channel=0 note=44 velocity=51 time=0
note_on channel=0 note=73 velocity=0 time=20
note_on channel=0 note=44 velocity=0 time=100
note_on channel=0 note=80 velocity=71 time=0
note_on channel=0 note=77 velocity=0 time=20
note_on channel=0 note=80 velocity=0 time=0
note_on channel=0 note=77 velocity=87 time=0
note_on channel=0 note=85 velocity=103 time=0
note_on channel=0 note=80 velocity=103 time=0
note_on channel=0 note=73 velocity=87 time=0
note_on channel=0 note=35 velocity=82 time=0
note_on channel=0 note=47 velocity=82 time=0
control_change channel=0 control=64 value=127 time=46
note_on channel=0 note=47 velocity=0 time=74
note_on channel=0 note=85 velocity=0 time=0
note_on channel=0 note=80 velocity=0 time=0
note_on channel=0 note=77 velocity=0 time=0
note_on channel=0 note=35 velocity=0 time=0
note_on channel=0 note=73 velocity=0 time=0
note_on channel=0 note=80 velocity=90 time=120
note_on channel=0 note=85 velocity=90 time=0
note_on channel=0 note=73 velocity=77 time=0
note_on channel=0 note=77 velocity=77 time=0
note_on channel=0 note=44 velocity=73 time=0
note_on channel=0 note=44 velocity=0 time=120
note_on channel=0 note=73 velocity=0 time=0
note_on channel=0 note=80 velocity=0 time=0
note_on channel=0 note=85 velocity=0 time=0
note_on channel=0 note=77 velocity=0 time=0
note_on channel=0 note=33 velocity=50 time=0
control_change channel=0 control=64 value=0 time=4
note_on channel=0 note=33 velocity=0 time=116
note_on channel=0 note=49 velocity=61 time=0
note_on channel=0 note=54 velocity=63 time=120
note_on channel=0 note=45 velocity=51 time=0
note_on channel=0 note=49 velocity=0 time=20
note_on channel=0 note=45 velocity=0 time=100
note_on channel=0 note=57 velocity=62 time=0
note_on channel=0 note=54 velocity=0 time=20
note_on channel=0 note=61 velocity=69 time=100
note_on channel=0 note=33 velocity=57 time=0
note_on channel=0 note=57 velocity=0 time=20
note_on channel=0 note=61 velocity=0 time=40
note_on channel=0 note=33 velocity=0 time=60
note_on channel=0 note=61 velocity=72 time=0
note_on channel=0 note=66 velocity=76 time=120
note_on channel=0 note=45 velocity=60 time=0
note_on channel=0 note=61 velocity=0 time=20
note_on channel=0 note=45 velocity=0 time=100
note_on channel=0 note=69 velocity=73 time=0
note_on channel=0 note=66 velocity=0 time=20
note_on channel=0 note=73 velocity=79 time=100
note_on channel=0 note=33 velocity=57 time=0
note_on channel=0 note=69 velocity=0 time=20
note_on channel=0 note=73 velocity=0 time=40
note_on channel=0 note=33 velocity=0 time=60
note_on channel=0 note=73 velocity=77 time=0
note_on channel=0 note=78 velocity=81 time=120
note_on channel=0 note=45 velocity=57 time=0
note_on channel=0 note=73 velocity=0 time=20
note_on channel=0 note=45 velocity=0 time=100
note_on channel=0 note=81 velocity=76 time=0
note_on channel=0 note=78 velocity=0 time=20
note_on channel=0 note=81 velocity=0 time=0
note_on channel=0 note=73 velocity=90 time=0
note_on channel=0 note=85 velocity=108 time=0
note_on channel=0 note=78 velocity=90 time=0
note_on channel=0 note=33 velocity=77 time=0
control_change channel=0 control=64 value=127 time=39
note_on channel=0 note=33 velocity=0 time=81
note_on channel=0 note=73 velocity=0 time=0
note_on channel=0 note=85 velocity=0 time=0
note_on channel=0 note=78 velocity=0 time=0
note_on channel=0 note=73 velocity=88 time=120
note_on channel=0 note=78 velocity=88 time=0
note_on channel=0 note=85 velocity=104 time=0
note_on channel=0 note=45 velocity=77 time=0
note_on channel=0 note=45 velocity=0 time=120
note_on channel=0 note=73 velocity=0 time=0
note_on channel=0 note=78 velocity=0 time=0
note_on channel=0 note=85 velocity=0 time=0
note_on channel=0 note=33 velocity=67 time=0
control_change channel=0 control=64 value=0 time=0
note_on channel=0 note=33 velocity=0 time=120
note_on channel=0 note=49 velocity=75 time=0
note_on channel=0 note=52 velocity=77 time=120
note_on channel=0 note=45 velocity=63 time=0
note_on channel=0 note=49 velocity=0 time=20
note_on channel=0 note=45 velocity=0 time=100
note_on channel=0 note=55 velocity=79 time=0
note_on channel=0 note=52 velocity=0 time=20
note_on channel=0 note=61 velocity=76 time=100
note_on channel=0 note=33 velocity=67 time=0
note_on channel=0 note=55 velocity=0 time=20
note_on channel=0 note=61 velocity=0 time=40
note_on channel=0 note=33 velocity=0 time=60
note_on channel=0 note=61 velocity=77 time=0
note_on channel=0 note=64 velocity=79 time=120
note_on channel=0 note=45 velocity=63 time=0
note_on channel=0 note=61 velocity=0 time=20
note_on channel=0 note=45 velocity=0 time=100
note_on channel=0 note=67 velocity=79 time=0
note_on channel=0 note=64 velocity=0 time=20
note_on channel=0 note=73 velocity=80 time=100
note_on channel=0 note=33 velocity=67 time=0
note_on channel=0 note=67 velocity=0 time=20
note_on channel=0 note=73 velocity=0 time=40
note_on channel=0 note=33 velocity=0 time=60
note_on channel=0 note=73 velocity=77 time=0
note_on channel=0 note=76 velocity=79 time=120
note_on channel=0 note=45 velocity=63 time=0
note_on channel=0 note=73 velocity=0 time=20
note_on channel=0 note=45 velocity=0 time=100
note_on channel=0 note=79 velocity=80 time=0
note_on channel=0 note=76 velocity=0 time=20
note_on channel=0 note=79 velocity=0 time=0
note_on channel=0 note=85 velocity=105 time=0
note_on channel=0 note=73 velocity=89 time=0
note_on channel=0 note=79 velocity=105 time=0
note_on channel=0 note=33 velocity=83 time=0
control_change channel=0 control=64 value=127 time=71
note_on channel=0 note=33 velocity=0 time=49
note_on channel=0 note=85 velocity=0 time=0
note_on channel=0 note=73 velocity=0 time=0
note_on channel=0 note=79 velocity=0 time=0
note_on channel=0 note=73 velocity=89 time=120
note_on channel=0 note=79 velocity=105 time=0
note_on channel=0 note=85 velocity=105 time=0
note_on channel=0 note=45 velocity=83 time=0
note_on channel=0 note=45 velocity=0 time=120
note_on channel=0 note=73 velocity=0 time=0
note_on channel=0 note=79 velocity=0 time=0
note_on channel=0 note=85 velocity=0 time=0
note_on channel=0 note=72 velocity=88 time=120
note_on channel=0 note=84 velocity=104 time=0
note_on channel=0 note=80 velocity=104 time=0
note_on channel=0 note=44 velocity=77 time=0
note_on channel=0 note=32 velocity=64 time=0
control_change channel=0 control=64 value=0 time=0
note_on channel=0 note=32 velocity=0 time=0
note_on channel=0 note=80 velocity=0 time=0
note_on channel=0 note=72 velocity=0 time=0
note_on channel=0 note=84 velocity=0 time=0
note_on channel=0 note=44 velocity=0 time=0
note_on channel=0 note=68 velocity=74 time=0
note_on channel=0 note=60 velocity=62 time=0
note_on channel=0 note=56 velocity=62 time=0
control_change channel=0 control=64 value=127 time=57
note_on channel=0 note=68 velocity=0 time=63
note_on channel=0 note=80 velocity=58 time=0
note_on channel=0 note=80 velocity=0 time=120
note_on channel=0 note=60 velocity=0 time=0
note_on channel=0 note=68 velocity=75 time=0
note_on channel=0 note=60 velocity=62 time=0
note_on channel=0 note=68 velocity=0 time=120
note_on channel=0 note=80 velocity=60 time=0
note_on channel=0 note=80 velocity=0 time=120
note_on channel=0 note=60 velocity=0 time=0
note_on channel=0 note=70 velocity=76 time=0
note_on channel=0 note=61 velocity=62 time=0
control_change channel=0 control=64 value=0 time=17
control_change channel=0 control=64 value=127 time=69
note_on channel=0 note=70 velocity=0 time=34
note_on channel=0 note=80 velocity=60 time=0
note_on channel=0 note=80 velocity=0 time=120
note_on channel=0 note=61 velocity=0 time=0
note_on channel=0 note=72 velocity=76 time=0
note_on channel=0 note=63 velocity=64 time=0
control_change channel=0 control=64 value=0 time=17
control_change channel=0 control=64 value=127 time=69
note_on channel=0 note=72 velocity=0 time=34
note_on channel=0 note=80 velocity=61 time=0
note_on channel=0 note=80 velocity=0 time=120
note_on channel=0 note=63 velocity=0 time=0
note_on channel=0 note=73 velocity=78 time=0
note_on channel=0 note=64 velocity=66 time=0
control_change channel=0 control=64 value=0 time=12
control_change channel=0 control=64 value=127 time=63
note_on channel=0 note=73 velocity=0 time=45
note_on channel=0 note=80 velocity=62 time=0
note_on channel=0 note=80 velocity=0 time=120
note_on channel=0 note=64 velocity=0 time=0
note_on channel=0 note=75 velocity=79 time=0
note_on channel=0 note=66 velocity=67 time=0
control_change channel=0 control=64 value=0 time=17
control_change channel=0 control=64 value=127 time=63
note_on channel=0 note=75 velocity=0 time=40
note_on channel=0 note=80 velocity=62 time=0
note_on channel=0 note=80 velocity=0 time=120
note_on channel=0 note=66 velocity=0 time=0
note_on channel=0 note=72 velocity=79 time=0
note_on channel=0 note=63 velocity=68 time=0
control_change channel=0 control=64 value=0 time=17
control_change channel=0 control=64 value=127 time=52
note_on channel=0 note=72 velocity=0 time=51
note_on channel=0 note=80 velocity=62 time=0
note_on channel=0 note=80 velocity=0 time=0
note_on channel=0 note=63 velocity=0 time=0
note_on channel=0 note=75 velocity=80 time=0
note_on channel=0 note=66 velocity=69 time=0
control_change channel=0 control=64 value=0 time=8
control_change channel=0 control=64 value=127 time=72
note_on channel=0 note=75 velocity=0 time=40
note_on channel=0 note=80 velocity=62 time=0
note_on channel=0 note=80 velocity=0 time=120
note_on channel=0 note=66 velocity=0 time=0
note_on channel=0 note=73 velocity=80 time=0
note_on channel=0 note=64 velocity=71 time=0
control_change channel=0 control=64 value=0 time=18
control_change channel=0 control=64 value=127 time=62
note_on channel=0 note=73 velocity=0 time=40
note_on channel=0 note=80 velocity=62 time=0
note_on channel=0 note=80 velocity=0 time=0
note_on channel=0 note=64 velocity=0 time=0
note_on channel=0 note=78 velocity=84 time=0
note_on channel=0 note=69 velocity=72 time=0
control_change channel=0 control=64 value=0 time=17
control_change channel=0 control=64 value=127 time=52
note_on channel=0 note=78 velocity=0 time=51
note_on channel=0 note=80 velocity=62 time=0
note_on channel=0 note=80 velocity=0 time=120
note_on channel=0 note=69 velocity=0 time=0
note_on channel=0 note=76 velocity=80 time=0
note_on channel=0 note=68 velocity=71 time=0
control_change channel=0 control=64 value=0 time=17
control_change channel=0 control=64 value=127 time=12
note_on channel=0 note=76 velocity=0 time=28
note_on channel=0 note=80 velocity=62 time=0
note_on channel=0 note=80 velocity=0 time=120
note_on channel=0 note=68 velocity=0 time=0
note_on channel=0 note=75 velocity=80 time=0
note_on channel=0 note=66 velocity=69 time=0
control_change channel=0 control=64 value=0 time=19
control_change channel=0 control=64 value=127 time=67
note_on channel=0 note=75 velocity=0 time=0
note_on channel=0 note=80 velocity=62 time=0
note_on channel=0 note=80 velocity=0 time=120
note_on channel=0 note=66 velocity=0 time=0
note_on channel=0 note=73 velocity=79 time=0
note_on channel=0 note=64 velocity=68 time=0
control_change channel=0 control=64 value=0 time=14
control_change channel=0 control=64 value=127 time=72
note_on channel=0 note=73 velocity=0 time=34
note_on channel=0 note=80 velocity=62 time=0
note_on channel=0 note=80 velocity=0 time=40
note_on channel=0 note=64 velocity=0 time=0
note_on channel=0 note=72 velocity=79 time=0
note_on channel=0 note=63 velocity=67 time=0
control_change channel=0 control=64 value=0 time=12
control_change channel=0 control=64 value=127 time=80
note_on channel=0 note=72 velocity=0 time=28
note_on channel=0 note=80 velocity=62 time=0
note_on channel=0 note=80 velocity=0 time=0
note_on channel=0 note=63 velocity=0 time=0
note_on channel=0 note=69 velocity=77 time=0
note_on channel=0 note=61 velocity=66 time=0
control_change channel=0 control=64 value=0 time=10
control_change channel=0 control=64 value=127 time=65
note_on channel=0 note=69 velocity=0 time=45
note_on channel=0 note=79 velocity=61 time=0
note_on channel=0 note=79 velocity=0 time=120
note_on channel=0 note=61 velocity=0 time=0
note_on channel=0 note=56 velocity=0 time=0
note_on channel=0 note=68 velocity=76 time=0
note_on channel=0 note=60 velocity=64 time=0
note_on channel=0 note=56 velocity=64 time=0
control_change channel=0 control=64 value=0 time=8
control_change channel=0 control=64 value=127 time=12
note_on channel=0 note=68 velocity=0 time=28
note_on channel=0 note=80 velocity=60 time=0
note_on channel=0 note=80 velocity=0 time=120
note_on channel=0 note=60 velocity=0 time=0
note_on channel=0 note=68 velocity=75 time=0
note_on channel=0 note=60 velocity=63 time=0
note_on channel=0 note=68 velocity=0 time=0
note_on channel=0 note=80 velocity=59 time=0
note_on channel=0 note=80 velocity=0 time=120
note_on channel=0 note=60 velocity=0 time=0
note_on channel=0 note=68 velocity=74 time=0
note_on channel=0 note=60 velocity=62 time=0
note_on channel=0 note=68 velocity=0 time=120
note_on channel=0 note=80 velocity=59 time=0
note_on channel=0 note=80 velocity=0 time=40
note_on channel=0 note=60 velocity=0 time=0
note_on channel=0 note=70 velocity=74 time=0
note_on channel=0 note=61 velocity=60 time=0
control_change channel=0 control=64 value=0 time=18
control_change channel=0 control=64 value=127 time=57
note_on channel=0 note=70 velocity=0 time=45
note_on channel=0 note=80 velocity=61 time=0
note_on channel=0 note=80 velocity=0 time=120
note_on channel=0 note=61 velocity=0 time=0
note_on channel=0 note=72 velocity=76 time=0
note_on channel=0 note=63 velocity=62 time=0
control_change channel=0 control=64 value=0 time=15
control_change channel=0 control=64 value=127 time=65
note_on channel=0 note=72 velocity=0 time=40
note_on channel=0 note=80 velocity=59 time=0
note_on channel=0 note=80 velocity=0 time=120
note_on channel=0 note=63 velocity=0 time=0
note_on channel=0 note=73 velocity=76 time=0
note_on channel=0 note=64 velocity=62 time=0
control_change channel=0 control=64 value=0 time=17
control_change channel=0 control=64 value=127 time=69
note_on channel=0 note=73 velocity=0 time=34
note_on channel=0 note=80 velocity=62 time=0
note_on channel=0 note=80 velocity=0 time=120
note_on channel=0 note=64 velocity=0 time=0
note_on channel=0 note=75 velocity=77 time=0
note_on channel=0 note=66 velocity=65 time=0
control_change channel=0 control=64 value=0 time=15
control_change channel=0 control=64 value=127 time=71
note_on channel=0 note=75 velocity=0 time=34
note_on channel=0 note=80 velocity=61 time=0
note_on channel=0 note=80 velocity=0 time=120
note_on channel=0 note=66 velocity=0 time=0
note_on channel=0 note=72 velocity=79 time=0
note_on channel=0 note=63 velocity=67 time=0
control_change channel=0 control=64 value=0 time=18
control_change channel=0 control=64 value=127 time=57
note_on channel=0 note=72 velocity=0 time=45
note_on channel=0 note=80 velocity=62 time=0
note_on channel=0 note=80 velocity=0 time=0
note_on channel=0 note=63 velocity=0 time=0
note_on channel=0 note=75 velocity=79 time=0
note_on channel=0 note=66 velocity=68 time=0
control_change channel=0 control=64 value=0 time=8
control_change channel=0 control=64 value=127 time=72
note_on channel=0 note=75 velocity=0 time=40
note_on channel=0 note=80 velocity=62 time=0
note_on channel=0 note=80 velocity=0 time=120
note_on channel=0 note=66 velocity=0 time=0
note_on channel=0 note=73 velocity=80 time=0
note_on channel=0 note=64 velocity=68 time=0
control_change channel=0 control=64 value=0 time=13
control_change channel=0 control=64 value=127 time=73
note_on channel=0 note=73 velocity=0 time=34
note_on channel=0 note=80 velocity=65 time=0
note_on channel=0 note=80 velocity=0 time=40
note_on channel=0 note=64 velocity=0 time=0
note_on channel=0 note=78 velocity=84 time=0
note_on channel=0 note=69 velocity=68 time=0
control_change channel=0 control=64 value=0 time=19
control_change channel=0 control=64 value=127 time=56
note_on channel=0 note=78 velocity=0 time=45
note_on channel=0 note=80 velocity=68 time=0
note_on channel=0 note=80 velocity=0 time=120
note_on channel=0 note=69 velocity=0 time=0
note_on channel=0 note=76 velocity=84 time=0
note_on channel=0 note=68 velocity=67 time=0
control_change channel=0 control=64 value=0 time=19
control_change channel=0 control=64 value=127 time=56
note_on channel=0 note=76 velocity=0 time=0
note_on channel=0 note=80 velocity=67 time=0
note_on channel=0 note=80 velocity=0 time=120
note_on channel=0 note=68 velocity=0 time=0
note_on channel=0 note=75 velocity=84 time=0
note_on channel=0 note=66 velocity=67 time=0
control_change channel=0 control=64 value=0 time=22
control_change channel=0 control=64 value=127 time=64
note_on channel=0 note=75 velocity=0 time=34
note_on channel=0 note=80 velocity=67 time=0
note_on channel=0 note=80 velocity=0 time=0
note_on channel=0 note=66 velocity=0 time=0
note_on channel=0 note=73 velocity=84 time=0
note_on channel=0 note=64 velocity=67 time=0
control_change channel=0 control=64 value=0 time=16
control_change channel=0 control=64 value=127 time=59
note_on channel=0 note=73 velocity=0 time=45
note_on channel=0 note=80 velocity=66 time=0
note_on channel=0 note=80 velocity=0 time=120
note_on channel=0 note=64 velocity=0 time=0
note_on channel=0 note=72 velocity=84 time=0
note_on channel=0 note=63 velocity=67 time=0
control_change channel=0 control=64 value=0 time=19
control_change channel=0 control=64 value=127 time=61
note_on channel=0 note=72 velocity=0 time=0
note_on channel=0 note=80 velocity=67 time=0
note_on channel=0 note=80 velocity=0 time=120
note_on channel=0 note=63 velocity=0 time=0
note_on channel=0 note=69 velocity=84 time=0
note_on channel=0 note=61 velocity=67 time=0
control_change channel=0 control=64 value=0 time=15
control_change channel=0 control=64 value=127 time=48
note_on channel=0 note=69 velocity=0 time=57
note_on channel=0 note=79 velocity=66 time=0
note_on channel=0 note=79 velocity=0 time=0
note_on channel=0 note=61 velocity=0 time=0
note_on channel=0 note=56 velocity=0 time=0
note_on channel=0 note=68 velocity=84 time=0
note_on channel=0 note=56 velocity=60 time=0
note_on channel=0 note=60 velocity=71 time=0
control_change channel=0 control=64 value=0 time=0
control_change channel=0 control=64 value=127 time=12
note_on channel=0 note=60 velocity=0 time=68
note_on channel=0 note=56 velocity=0 time=0
note_on channel=0 note=68 velocity=0 time=0
note_on channel=0 note=80 velocity=66 time=0
control_change channel=0 control=64 value=0 time=6
note_on channel=0 note=80 velocity=0 time=40
note_on channel=0 note=69 velocity=79 time=0
note_on channel=0 note=61 velocity=62 time=0
note_on channel=0 note=56 velocity=52 time=0
control_change channel=0 control=64 value=127 time=23
note_on channel=0 note=56 velocity=0 time=40
note_on channel=0 note=61 velocity=0 time=0
note_on channel=0 note=69 velocity=0 time=0
note_on channel=0 note=79 velocity=67 time=0
control_change channel=0 control=64 value=0 time=0
note_on channel=0 note=79 velocity=0 time=40
note_on channel=0 note=68 velocity=84 time=0
note_on channel=0 note=56 velocity=56 time=0
note_on channel=0 note=60 velocity=67 time=0
control_change channel=0 control=64 value=127 time=23
note_on channel=0 note=60 velocity=0 time=40
note_on channel=0 note=56 velocity=0 time=0
note_on channel=0 note=68 velocity=0 time=0
note_on channel=0 note=80 velocity=66 time=0
control_change channel=0 control=64 value=0 time=34
note_on channel=0 note=80 velocity=0 time=40
note_on channel=0 note=69 velocity=79 time=0
note_on channel=0 note=61 velocity=62 time=0
note_on channel=0 note=56 velocity=52 time=0
control_change channel=0 control=64 value=127 time=40
note_on channel=0 note=56 velocity=0 time=40
note_on channel=0 note=61 velocity=0 time=0
note_on channel=0 note=69 velocity=0 time=0
note_on channel=0 note=79 velocity=67 time=0
control_change channel=0 control=64 value=0 time=46
note_on channel=0 note=79 velocity=0 time=40
note_on channel=0 note=68 velocity=84 time=0
note_on channel=0 note=56 velocity=60 time=0
note_on channel=0 note=60 velocity=71 time=0
control_change channel=0 control=64 value=127 time=40
note_on channel=0 note=60 velocity=0 time=0
note_on channel=0 note=56 velocity=0 time=0
note_on channel=0 note=68 velocity=0 time=0
note_on channel=0 note=80 velocity=66 time=0
control_change channel=0 control=64 value=0 time=46
note_on channel=0 note=80 velocity=0 time=0
note_on channel=0 note=69 velocity=79 time=0
note_on channel=0 note=56 velocity=52 time=0
note_on channel=0 note=61 velocity=62 time=0
control_change channel=0 control=64 value=127 time=34
note_on channel=0 note=61 velocity=0 time=0
note_on channel=0 note=56 velocity=0 time=0
note_on channel=0 note=69 velocity=0 time=0
note_on channel=0 note=79 velocity=65 time=0
control_change channel=0 control=64 value=0 time=51
note_on channel=0 note=79 velocity=0 time=0
note_on channel=0 note=68 velocity=84 time=0
note_on channel=0 note=56 velocity=56 time=0
note_on channel=0 note=60 velocity=67 time=0
control_change channel=0 control=64 value=127 time=51
note_on channel=0 note=60 velocity=0 time=0
note_on channel=0 note=56 velocity=0 time=0
note_on channel=0 note=68 velocity=0 time=0
note_on channel=0 note=80 velocity=66 time=0
control_change channel=0 control=64 value=0 time=57
note_on channel=0 note=80 velocity=0 time=0
note_on channel=0 note=69 velocity=79 time=0
note_on channel=0 note=61 velocity=61 time=0
note_on channel=0 note=56 velocity=51 time=0
control_change channel=0 control=64 value=127 time=51
note_on channel=0 note=56 velocity=0 time=0
note_on channel=0 note=61 velocity=0 time=0
note_on channel=0 note=69 velocity=0 time=0
note_on channel=0 note=79 velocity=65 time=0
control_change channel=0 control=64 value=0 time=29
note_on channel=0 note=79 velocity=0 time=0
note_on channel=0 note=68 velocity=84 time=0
note_on channel=0 note=80 velocity=84 time=0
note_on channel=0 note=56 velocity=60 time=0
note_on channel=0 note=60 velocity=71 time=0
control_change channel=0 control=64 value=127 time=23
note_on channel=0 note=60 velocity=0 time=217
note_on channel=0 note=68 velocity=0 time=0
note_on channel=0 note=80 velocity=0 time=0
note_on channel=0 note=56 velocity=0 time=0
control_change channel=0 control=64 value=0 time=46
note_on channel=0 note=56 velocity=113 time=0
note_on channel=0 note=32 velocity=77 time=0
note_on channel=0 note=44 velocity=90 time=0
control_change channel=0 control=64 value=127 time=195
note_on channel=0 note=44 velocity=0 time=0
note_on channel=0 note=32 velocity=0 time=0
note_on channel=0 note=56 velocity=0 time=0
note_on channel=0 note=37 velocity=43 time=0
control_change channel=0 control=64 value=0 time=0
note_on channel=0 note=37 velocity=0 time=120
note_on channel=0 note=44 velocity=45 time=0
note_on channel=0 note=44 velocity=0 time=115
note_on channel=0 note=49 velocity=47 time=5
note_on channel=0 note=44 velocity=39 time=0
note_on channel=0 note=44 velocity=0 time=120
note_on channel=0 note=52 velocity=49 time=0
note_on channel=0 note=49 velocity=0 time=20
note_on channel=0 note=56 velocity=51 time=100
note_on channel=0 note=37 velocity=43 time=0
note_on channel=0 note=52 velocity=0 time=20
note_on channel=0 note=37 velocity=0 time=100
note_on channel=0 note=49 velocity=47 time=0
note_on channel=0 note=56 velocity=0 time=20
note_on channel=0 note=52 velocity=49 time=100
note_on channel=0 note=44 velocity=39 time=0
note_on channel=0 note=49 velocity=0 time=20
note_on channel=0 note=44 velocity=0 time=100
note_on channel=0 note=56 velocity=51 time=0
note_on channel=0 note=52 velocity=0 time=20
note_on channel=0 note=61 velocity=51 time=100
note_on channel=0 note=37 velocity=43 time=0
note_on channel=0 note=56 velocity=0 time=20
note_on channel=0 note=37 velocity=0 time=100
note_on channel=0 note=52 velocity=47 time=0
note_on channel=0 note=61 velocity=0 time=20
note_on channel=0 note=56 velocity=48 time=100
note_on channel=0 note=44 velocity=39 time=0
note_on channel=0 note=52 velocity=0 time=20
note_on channel=0 note=44 velocity=0 time=100
note_on channel=0 note=61 velocity=50 time=0
note_on channel=0 note=56 velocity=0 time=20
note_on channel=0 note=64 velocity=51 time=100
note_on channel=0 note=37 velocity=43 time=0
note_on channel=0 note=61 velocity=0 time=20
note_on channel=0 note=37 velocity=0 time=100
note_on channel=0 note=56 velocity=47 time=0
note_on channel=0 note=64 velocity=0 time=20
note_on channel=0 note=61 velocity=48 time=100
note_on channel=0 note=44 velocity=39 time=0
note_on channel=0 note=56 velocity=0 time=20
note_on channel=0 note=44 velocity=0 time=100
note_on channel=0 note=64 velocity=50 time=0
note_on channel=0 note=61 velocity=0 time=20
note_on channel=0 note=68 velocity=51 time=100
note_on channel=0 note=37 velocity=43 time=0
note_on channel=0 note=64 velocity=0 time=20
note_on channel=0 note=37 velocity=0 time=100
note_on channel=0 note=61 velocity=47 time=0
note_on channel=0 note=68 velocity=0 time=20
note_on channel=0 note=64 velocity=48 time=100
note_on channel=0 note=44 velocity=39 time=0
note_on channel=0 note=61 velocity=0 time=20
note_on channel=0 note=44 velocity=0 time=100
note_on channel=0 note=68 velocity=50 time=0
note_on channel=0 note=64 velocity=0 time=20
note_on channel=0 note=73 velocity=51 time=100
note_on channel=0 note=37 velocity=43 time=0
note_on channel=0 note=68 velocity=0 time=20
note_on channel=0 note=37 velocity=0 time=100
note_on channel=0 note=64 velocity=47 time=0
note_on channel=0 note=73 velocity=0 time=20
note_on channel=0 note=68 velocity=49 time=100
note_on channel=0 note=44 velocity=39 time=0
note_on channel=0 note=64 velocity=0 time=20
note_on channel=0 note=44 velocity=0 time=100
note_on channel=0 note=73 velocity=51 time=0
note_on channel=0 note=68 velocity=0 time=20
note_on channel=0 note=76 velocity=51 time=100
note_on channel=0 note=37 velocity=43 time=0
note_on channel=0 note=73 velocity=0 time=20
note_on channel=0 note=76 velocity=0 time=90
note_on channel=0 note=37 velocity=0 time=10
note_on channel=0 note=76 velocity=51 time=0
note_on channel=0 note=80 velocity=51 time=120
note_on channel=0 note=44 velocity=39 time=0
note_on channel=0 note=76 velocity=0 time=20
note_on channel=0 note=44 velocity=0 time=100
note_on channel=0 note=85 velocity=53 time=0
note_on channel=0 note=80 velocity=0 time=20
note_on channel=0 note=76 velocity=96 time=0
note_on channel=0 note=88 velocity=113 time=0
note_on channel=0 note=37 velocity=73 time=0
note_on channel=0 note=49 velocity=87 time=0
note_on channel=0 note=85 velocity=0 time=20
control_change channel=0 control=64 value=127 time=72
note_on channel=0 note=37 velocity=0 time=28
note_on channel=0 note=76 velocity=0 time=0
note_on channel=0 note=88 velocity=0 time=0
note_on channel=0 note=49 velocity=0 time=0
note_on channel=0 note=76 velocity=74 time=120
note_on channel=0 note=88 velocity=88 time=0
note_on channel=0 note=44 velocity=74 time=0
note_on channel=0 note=44 velocity=0 time=120
note_on channel=0 note=88 velocity=0 time=0
note_on channel=0 note=76 velocity=0 time=0
note_on channel=0 note=34 velocity=40 time=0
control_change channel=0 control=64 value=0 time=0
note_on channel=0 note=34 velocity=0 time=120
note_on channel=0 note=52 velocity=47 time=0
note_on channel=0 note=55 velocity=49 time=120
note_on channel=0 note=49 velocity=36 time=0
note_on channel=0 note=52 velocity=0 time=20
note_on channel=0 note=49 velocity=0 time=100
note_on channel=0 note=61 velocity=51 time=0
note_on channel=0 note=55 velocity=0 time=20
note_on channel=0 note=64 velocity=51 time=100
note_on channel=0 note=46 velocity=40 time=0
note_on channel=0 note=61 velocity=0 time=20
note_on channel=0 note=46 velocity=0 time=100
note_on channel=0 note=55 velocity=47 time=0
note_on channel=0 note=64 velocity=0 time=20
note_on channel=0 note=61 velocity=48 time=100
note_on channel=0 note=49 velocity=37 time=0
note_on channel=0 note=55 velocity=0 time=20
note_on channel=0 note=49 velocity=0 time=100
note_on channel=0 note=64 velocity=50 time=0
note_on channel=0 note=61 velocity=0 time=20
note_on channel=0 note=67 velocity=51 time=100
note_on channel=0 note=46 velocity=40 time=0
note_on channel=0 note=64 velocity=0 time=20
note_on channel=0 note=46 velocity=0 time=100
note_on channel=0 note=61 velocity=47 time=0
note_on channel=0 note=67 velocity=0 time=20
note_on channel=0 note=64 velocity=48 time=100
note_on channel=0 note=49 velocity=37 time=0
note_on channel=0 note=61 velocity=0 time=20
note_on channel=0 note=49 velocity=0 time=100
note_on channel=0 note=67 velocity=51 time=0
note_on channel=0 note=64 velocity=0 time=20
note_on channel=0 note=73 velocity=52 time=100
note_on channel=0 note=46 velocity=40 time=0
note_on channel=0 note=67 velocity=0 time=20
note_on channel=0 note=46 velocity=0 time=100
note_on channel=0 note=64 velocity=47 time=0
note_on channel=0 note=73 velocity=0 time=20
note_on channel=0 note=67 velocity=49 time=100
note_on channel=0 note=49 velocity=37 time=0
note_on channel=0 note=64 velocity=0 time=20
note_on channel=0 note=49 velocity=0 time=100
note_on channel=0 note=73 velocity=51 time=0
note_on channel=0 note=67 velocity=0 time=20
note_on channel=0 note=76 velocity=53 time=100
note_on channel=0 note=46 velocity=40 time=0
note_on channel=0 note=73 velocity=0 time=20
note_on channel=0 note=46 velocity=0 time=100
note_on channel=0 note=67 velocity=47 time=0
note_on channel=0 note=76 velocity=0 time=20
note_on channel=0 note=73 velocity=50 time=100
note_on channel=0 note=49 velocity=37 time=0
note_on channel=0 note=67 velocity=0 time=20
note_on channel=0 note=49 velocity=0 time=100
note_on channel=0 note=76 velocity=51 time=0
note_on channel=0 note=73 velocity=0 time=20
note_on channel=0 note=79 velocity=53 time=100
note_on channel=0 note=46 velocity=40 time=0
note_on channel=0 note=76 velocity=0 time=20
note_on channel=0 note=46 velocity=0 time=100
note_on channel=0 note=73 velocity=47 time=0
note_on channel=0 note=79 velocity=0 time=20
note_on channel=0 note=76 velocity=49 time=100
note_on channel=0 note=49 velocity=36 time=0
note_on channel=0 note=73 velocity=0 time=20
note_on channel=0 note=49 velocity=0 time=100
note_on channel=0 note=79 velocity=51 time=0
note_on channel=0 note=76 velocity=0 time=20
note_on channel=0 note=85 velocity=52 time=100
note_on channel=0 note=46 velocity=40 time=0
note_on channel=0 note=79 velocity=0 time=20
note_on channel=0 note=46 velocity=0 time=100
note_on channel=0 note=76 velocity=49 time=0
note_on channel=0 note=85 velocity=0 time=20
note_on channel=0 note=79 velocity=51 time=100
note_on channel=0 note=49 velocity=37 time=0
note_on channel=0 note=76 velocity=0 time=20
note_on channel=0 note=49 velocity=0 time=100
note_on channel=0 note=85 velocity=54 time=0
note_on channel=0 note=79 velocity=0 time=20
note_on channel=0 note=76 velocity=93 time=0
note_on channel=0 note=88 velocity=110 time=0
note_on channel=0 note=46 velocity=87 time=0
note_on channel=0 note=34 velocity=73 time=0
note_on channel=0 note=85 velocity=0 time=20
control_change channel=0 control=64 value=127 time=49
note_on channel=0 note=46 velocity=0 time=51
note_on channel=0 note=76 velocity=0 time=0
note_on channel=0 note=88 velocity=0 time=0
note_on channel=0 note=34 velocity=0 time=0
note_on channel=0 note=76 velocity=73 time=120
note_on channel=0 note=88 velocity=87 time=0
note_on channel=0 note=49 velocity=72 time=0
note_on channel=0 note=49 velocity=0 time=120
note_on channel=0 note=88 velocity=0 time=0
note_on channel=0 note=76 velocity=0 time=0
note_on channel=0 note=31 velocity=39 time=0
control_change channel=0 control=64 value=0 time=0
note_on channel=0 note=31 velocity=0 time=120
note_on channel=0 note=51 velocity=50 time=0
note_on channel=0 note=51 velocity=0 time=115
note_on channel=0 note=58 velocity=51 time=5
note_on channel=0 note=51 velocity=36 time=0
note_on channel=0 note=51 velocity=0 time=120
note_on channel=0 note=61 velocity=49 time=0
note_on channel=0 note=58 velocity=0 time=20
note_on channel=0 note=63 velocity=51 time=100
note_on channel=0 note=43 velocity=40 time=0
note_on channel=0 note=61 velocity=0 time=20
note_on channel=0 note=43 velocity=0 time=100
note_on channel=0 note=58 velocity=52 time=0
note_on channel=0 note=63 velocity=0 time=20
note_on channel=0 note=61 velocity=53 time=100
note_on channel=0 note=51 velocity=39 time=0
note_on channel=0 note=58 velocity=0 time=20
note_on channel=0 note=51 velocity=0 time=100
note_on channel=0 note=63 velocity=51 time=0
note_on channel=0 note=61 velocity=0 time=20
note_on channel=0 note=70 velocity=56 time=100
note_on channel=0 note=43 velocity=43 time=0
note_on channel=0 note=63 velocity=0 time=20
note_on channel=0 note=43 velocity=0 time=100
note_on channel=0 note=61 velocity=56 time=0
note_on channel=0 note=70 velocity=0 time=20
note_on channel=0 note=63 velocity=57 time=100
note_on channel=0 note=51 velocity=40 time=0
note_on channel=0 note=61 velocity=0 time=20
note_on channel=0 note=51 velocity=0 time=100
note_on channel=0 note=70 velocity=52 time=0
note_on channel=0 note=63 velocity=0 time=20
note_on channel=0 note=73 velocity=58 time=100
note_on channel=0 note=43 velocity=45 time=0
note_on channel=0 note=70 velocity=0 time=20
note_on channel=0 note=43 velocity=0 time=100
note_on channel=0 note=63 velocity=59 time=0
note_on channel=0 note=73 velocity=0 time=20
note_on channel=0 note=70 velocity=60 time=100
note_on channel=0 note=51 velocity=43 time=0
note_on channel=0 note=63 velocity=0 time=20
note_on channel=0 note=51 velocity=0 time=100
note_on channel=0 note=73 velocity=56 time=0
note_on channel=0 note=70 velocity=0 time=20
note_on channel=0 note=75 velocity=62 time=100
note_on channel=0 note=43 velocity=47 time=0
note_on channel=0 note=73 velocity=0 time=20
note_on channel=0 note=43 velocity=0 time=100
note_on channel=0 note=70 velocity=62 time=0
note_on channel=0 note=75 velocity=0 time=20
note_on channel=0 note=73 velocity=62 time=100
note_on channel=0 note=51 velocity=44 time=0
note_on channel=0 note=70 velocity=0 time=20
note_on channel=0 note=51 velocity=0 time=100
note_on channel=0 note=75 velocity=59 time=0
note_on channel=0 note=73 velocity=0 time=20
note_on channel=0 note=82 velocity=63 time=100
note_on channel=0 note=43 velocity=49 time=0
note_on channel=0 note=75 velocity=0 time=20
note_on channel=0 note=43 velocity=0 time=100
note_on channel=0 note=73 velocity=65 time=0
note_on channel=0 note=82 velocity=0 time=20
note_on channel=0 note=75 velocity=66 time=100
note_on channel=0 note=51 velocity=45 time=0
note_on channel=0 note=73 velocity=0 time=20
note_on channel=0 note=51 velocity=0 time=100
note_on channel=0 note=82 velocity=62 time=0
note_on channel=0 note=75 velocity=0 time=20
note_on channel=0 note=85 velocity=67 time=0
note_on channel=0 note=43 velocity=51 time=0
note_on channel=0 note=82 velocity=0 time=20
note_on channel=0 note=43 velocity=0 time=0
note_on channel=0 note=82 velocity=65 time=0
note_on channel=0 note=85 velocity=0 time=20
note_on channel=0 note=75 velocity=62 time=0
note_on channel=0 note=51 velocity=48 time=0
note_on channel=0 note=82 velocity=0 time=20
note_on channel=0 note=51 velocity=0 time=0
note_on channel=0 note=73 velocity=61 time=0
note_on channel=0 note=75 velocity=0 time=20
note_on channel=0 note=82 velocity=59 time=0
note_on channel=0 note=43 velocity=47 time=0
note_on channel=0 note=73 velocity=0 time=20
note_on channel=0 note=43 velocity=0 time=0
note_on channel=0 note=75 velocity=57 time=0
note_on channel=0 note=82 velocity=0 time=20
note_on channel=0 note=73 velocity=56 time=0
note_on channel=0 note=51 velocity=45 time=0
note_on channel=0 note=75 velocity=0 time=20
note_on channel=0 note=51 velocity=0 time=0
note_on channel=0 note=70 velocity=52 time=0
note_on channel=0 note=73 velocity=0 time=20
note_on channel=0 note=71 velocity=49 time=0
note_on channel=0 note=44 velocity=33 time=0
note_on channel=0 note=70 velocity=0 time=20
note_on channel=0 note=51 velocity=26 time=100
note_on channel=0 note=44 velocity=0 time=20
note_on channel=0 note=71 velocity=0 time=100
note_on channel=0 note=47 velocity=28 time=0
note_on channel=0 note=51 velocity=0 time=20
note_on channel=0 note=51 velocity=25 time=100
note_on channel=0 note=47 velocity=0 time=20
note_on channel=0 note=75 velocity=61 time=100
note_on channel=0 note=44 velocity=33 time=0
note_on channel=0 note=51 velocity=0 time=12
control_change channel=0 control=64 value=127 time=13
note_on channel=0 note=44 velocity=0 time=86
note_on channel=0 note=51 velocity=25 time=1
note_on channel=0 note=51 velocity=0 time=119
note_on channel=0 note=47 velocity=28 time=1
note_on channel=0 note=47 velocity=0 time=119
note_on channel=0 note=51 velocity=24 time=1
note_on channel=0 note=51 velocity=0 time=119
note_on channel=0 note=44 velocity=33 time=1
note_on channel=0 note=44 velocity=0 time=119
note_on channel=0 note=51 velocity=26 time=1
note_on channel=0 note=51 velocity=0 time=119
note_on channel=0 note=47 velocity=29 time=0
note_on channel=0 note=47 velocity=0 time=119
note_on channel=0 note=51 velocity=25 time=1
note_on channel=0 note=51 velocity=0 time=119
note_on channel=0 note=71 velocity=50 time=0
note_on channel=0 note=44 velocity=33 time=0
note_on channel=0 note=75 velocity=0 time=20
note_on channel=0 note=44 velocity=0 time=99
note_on channel=0 note=51 velocity=26 time=1
note_on channel=0 note=51 velocity=0 time=119
note_on channel=0 note=47 velocity=29 time=1
note_on channel=0 note=47 velocity=0 time=119
note_on channel=0 note=68 velocity=50 time=0
note_on channel=0 note=51 velocity=25 time=0
note_on channel=0 note=71 velocity=0 time=20
note_on channel=0 note=68 velocity=0 time=40
note_on channel=0 note=67 velocity=40 time=0
note_on channel=0 note=67 velocity=0 time=20
note_on channel=0 note=68 velocity=40 time=0
note_on channel=0 note=68 velocity=0 time=20
note_on channel=0 note=70 velocity=40 time=0
note_on channel=0 note=51 velocity=0 time=19
note_on channel=0 note=70 velocity=0 time=0
note_on channel=0 note=68 velocity=58 time=0
note_on channel=0 note=46 velocity=33 time=0
control_change channel=0 control=64 value=0 time=0
note_on channel=0 note=51 velocity=26 time=120
note_on channel=0 note=46 velocity=0 time=20
note_on channel=0 note=49 velocity=29 time=100
note_on channel=0 note=51 velocity=0 time=20
note_on channel=0 note=51 velocity=26 time=100
note_on channel=0 note=49 velocity=0 time=20
note_on channel=0 note=67 velocity=50 time=0
note_on channel=0 note=46 velocity=41 time=0
note_on channel=0 note=51 velocity=0 time=20
note_on channel=0 note=68 velocity=0 time=0
control_change channel=0 control=64 value=127 time=57
note_on channel=0 note=46 velocity=0 time=42
note_on channel=0 note=51 velocity=35 time=1
note_on channel=0 note=51 velocity=0 time=119
note_on channel=0 note=49 velocity=40 time=1
note_on channel=0 note=49 velocity=0 time=119
note_on channel=0 note=51 velocity=37 time=1
note_on channel=0 note=51 velocity=0 time=119
note_on channel=0 note=46 velocity=49 time=1
note_on channel=0 note=46 velocity=0 time=119
note_on channel=0 note=51 velocity=40 time=1
note_on channel=0 note=51 velocity=0 time=119
note_on channel=0 note=67 velocity=0 time=0
note_on channel=0 note=67 velocity=50 time=0
note_on channel=0 note=49 velocity=46 time=0
note_on channel=0 note=49 velocity=0 time=119
note_on channel=0 note=51 velocity=42 time=1
note_on channel=0 note=51 velocity=0 time=119
note_on channel=0 note=75 velocity=61 time=0
note_on channel=0 note=46 velocity=56 time=0
note_on channel=0 note=67 velocity=0 time=20
note_on channel=0 note=46 velocity=0 time=99
note_on channel=0 note=51 velocity=41 time=1
note_on channel=0 note=51 velocity=0 time=119
note_on channel=0 note=49 velocity=43 time=1
note_on channel=0 note=49 velocity=0 time=119
note_on channel=0 note=75 velocity=0 time=1
note_on channel=0 note=67 velocity=52 time=0
note_on channel=0 note=51 velocity=36 time=0
note_on channel=0 note=51 velocity=0 time=119
note_on channel=0 note=67 velocity=0 time=0
note_on channel=0 note=70 velocity=47 time=0
note_on channel=0 note=47 velocity=33 time=0
control_change channel=0 control=64 value=0 time=0
control_change channel=0 control=64 value=127 time=78
note_on channel=0 note=47 velocity=0 time=41
note_on channel=0 note=51 velocity=28 time=1
note_on channel=0 note=51 velocity=0 time=119
note_on channel=0 note=47 velocity=30 time=1
note_on channel=0 note=47 velocity=0 time=119
note_on channel=0 note=51 velocity=26 time=1
note_on channel=0 note=51 velocity=0 time=119
note_on channel=0 note=68 velocity=51 time=0
note_on channel=0 note=47 velocity=41 time=0
note_on channel=0 note=70 velocity=0 time=20
control_change channel=0 control=64 value=0 time=8
control_change channel=0 control=64 value=127 time=85
note_on channel=0 note=47 velocity=0 time=6
note_on channel=0 note=51 velocity=37 time=1
note_on channel=0 note=51 velocity=0 time=119
note_on channel=0 note=47 velocity=39 time=1
note_on channel=0 note=47 velocity=0 time=119
note_on channel=0 note=51 velocity=36 time=1
note_on channel=0 note=51 velocity=0 time=119
note_on channel=0 note=47 velocity=49 time=1
note_on channel=0 note=47 velocity=0 time=119
note_on channel=0 note=51 velocity=43 time=1
note_on channel=0 note=51 velocity=0 time=119
note_on channel=0 note=68 velocity=0 time=0
note_on channel=0 note=68 velocity=49 time=0
note_on channel=0 note=47 velocity=48 time=0
note_on channel=0 note=47 velocity=0 time=119
note_on channel=0 note=51 velocity=42 time=1
note_on channel=0 note=51 velocity=0 time=119
note_on channel=0 note=75 velocity=61 time=0
note_on channel=0 note=47 velocity=54 time=0
note_on channel=0 note=68 velocity=0 time=20
note_on channel=0 note=47 velocity=0 time=99
note_on channel=0 note=51 velocity=41 time=1
note_on channel=0 note=51 velocity=0 time=119
note_on channel=0 note=47 velocity=43 time=1
note_on channel=0 note=47 velocity=0 time=119
note_on channel=0 note=75 velocity=0 time=1
note_on channel=0 note=68 velocity=50 time=0
note_on channel=0 note=51 velocity=36 time=0
note_on channel=0 note=51 velocity=0 time=119
note_on channel=0 note=71 velocity=52 time=0
note_on channel=0 note=43 velocity=32 time=0
control_change channel=0 control=64 value=0 time=0
note_on channel=0 note=68 velocity=0 time=20
control_change channel=0 control=64 value=127 time=60
note_on channel=0 note=43 velocity=0 time=39
note_on channel=0 note=51 velocity=25 time=1
note_on channel=0 note=51 velocity=0 time=119
note_on channel=0 note=43 velocity=29 time=1
note_on channel=0 note=43 velocity=0 time=119
note_on channel=0 note=51 velocity=26 time=1
note_on channel=0 note=51 velocity=0 time=119
note_on channel=0 note=70 velocity=50 time=0
note_on channel=0 note=43 velocity=41 time=0
control_change channel=0 control=64 value=0 time=17
note_on channel=0 note=71 velocity=0 time=3
control_change channel=0 control=64 value=127 time=72
note_on channel=0 note=43 velocity=0 time=27
note_on channel=0 note=51 velocity=37 time=1
note_on channel=0 note=51 velocity=0 time=119
note_on channel=0 note=43 velocity=42 time=1
note_on channel=0 note=43 velocity=0 time=119
note_on channel=0 note=51 velocity=43 time=1
note_on channel=0 note=51 velocity=0 time=119
note_on channel=0 note=43 velocity=48 time=1
note_on channel=0 note=43 velocity=0 time=119
note_on channel=0 note=51 velocity=43 time=1
note_on channel=0 note=51 velocity=0 time=119
note_on channel=0 note=70 velocity=0 time=0
note_on channel=0 note=70 velocity=52 time=0
note_on channel=0 note=43 velocity=49 time=0
note_on channel=0 note=43 velocity=0 time=119
note_on channel=0 note=51 velocity=46 time=1
note_on channel=0 note=51 velocity=0 time=119
note_on channel=0 note=75 velocity=49 time=1
note_on channel=0 note=43 velocity=54 time=0
note_on channel=0 note=70 velocity=0 time=20
note_on channel=0 note=43 velocity=0 time=99
note_on channel=0 note=51 velocity=38 time=1
note_on channel=0 note=51 velocity=0 time=119
note_on channel=0 note=43 velocity=42 time=1
note_on channel=0 note=43 velocity=0 time=119
note_on channel=0 note=75 velocity=0 time=1
note_on channel=0 note=70 velocity=52 time=0
note_on channel=0 note=51 velocity=36 time=0
note_on channel=0 note=51 velocity=0 time=119
note_on channel=0 note=70 velocity=0 time=0
note_on channel=0 note=71 velocity=56 time=0
note_on channel=0 note=44 velocity=39 time=0
control_change channel=0 control=64 value=0 time=0
note_on channel=0 note=71 velocity=0 time=120
note_on channel=0 note=51 velocity=32 time=0
note_on channel=0 note=44 velocity=0 time=20
note_on channel=0 note=87 velocity=56 time=100
note_on channel=0 note=75 velocity=47 time=0
note_on channel=0 note=47 velocity=35 time=0
note_on channel=0 note=51 velocity=0 time=20
control_change channel=0 control=64 value=127 time=1
note_on channel=0 note=47 velocity=0 time=98
note_on channel=0 note=51 velocity=31 time=1
note_on channel=0 note=51 velocity=0 time=119
note_on channel=0 note=44 velocity=40 time=1
note_on channel=0 note=44 velocity=0 time=119
note_on channel=0 note=51 velocity=31 time=1
note_on channel=0 note=51 velocity=0 time=119
note_on channel=0 note=75 velocity=0 time=1
note_on channel=0 note=87 velocity=0 time=0
note_on channel=0 note=87 velocity=58 time=0
note_on channel=0 note=75 velocity=49 time=0
note_on channel=0 note=47 velocity=34 time=0
note_on channel=0 note=47 velocity=0 time=119
note_on channel=0 note=51 velocity=31 time=1
note_on channel=0 note=51 velocity=0 time=119
note_on channel=0 note=44 velocity=41 time=1
note_on channel=0 note=44 velocity=0 time=119
note_on channel=0 note=51 velocity=32 time=1
note_on channel=0 note=51 velocity=0 time=119
note_on channel=0 note=75 velocity=0 time=0
note_on channel=0 note=87 velocity=0 time=0
note_on channel=0 note=75 velocity=47 time=0
note_on channel=0 note=87 velocity=56 time=0
note_on channel=0 note=47 velocity=35 time=0
note_on channel=0 note=47 velocity=0 time=119
note_on channel=0 note=87 velocity=0 time=1
note_on channel=0 note=75 velocity=0 time=0
note_on channel=0 note=51 velocity=32 time=0
note_on channel=0 note=51 velocity=0 time=119
note_on channel=0 note=71 velocity=49 time=1
note_on channel=0 note=83 velocity=58 time=0
note_on channel=0 note=44 velocity=43 time=0
control_change channel=0 control=64 value=0 time=0
note_on channel=0 note=83 velocity=0 time=120
note_on channel=0 note=71 velocity=0 time=0
note_on channel=0 note=51 velocity=37 time=0
note_on channel=0 note=44 velocity=0 time=20
note_on channel=0 note=80 velocity=59 time=100
note_on channel=0 note=68 velocity=49 time=0
note_on channel=0 note=47 velocity=37 time=0
note_on channel=0 note=51 velocity=0 time=20
note_on channel=0 note=80 velocity=0 time=100
note_on channel=0 note=68 velocity=0 time=0
note_on channel=0 note=51 velocity=34 time=0
note_on channel=0 note=47 velocity=0 time=20
note_on channel=0 note=80 velocity=61 time=100
note_on channel=0 note=68 velocity=51 time=0
note_on channel=0 note=46 velocity=46 time=0
note_on channel=0 note=51 velocity=0 time=20
note_on channel=0 note=80 velocity=0 time=100
note_on channel=0 note=68 velocity=0 time=0
note_on channel=0 note=51 velocity=34 time=0
note_on channel=0 note=46 velocity=0 time=20
note_on channel=0 note=79 velocity=62 time=0
note_on channel=0 note=67 velocity=52 time=0
note_on channel=0 note=49 velocity=39 time=0
note_on channel=0 note=51 velocity=0 time=20
control_change channel=0 control=64 value=127 time=43
note_on channel=0 note=49 velocity=0 time=56
note_on channel=0 note=51 velocity=34 time=1
note_on channel=0 note=51 velocity=0 time=119
note_on channel=0 note=46 velocity=47 time=1
note_on channel=0 note=46 velocity=0 time=119
note_on channel=0 note=51 velocity=35 time=1
note_on channel=0 note=51 velocity=0 time=119
note_on channel=0 note=67 velocity=0 time=1
note_on channel=0 note=79 velocity=0 time=0
note_on channel=0 note=79 velocity=68 time=0
note_on channel=0 note=67 velocity=57 time=0
note_on channel=0 note=49 velocity=40 time=0
note_on channel=0 note=49 velocity=0 time=119
note_on channel=0 note=51 velocity=35 time=1
note_on channel=0 note=51 velocity=0 time=119
note_on channel=0 note=46 velocity=49 time=1
note_on channel=0 note=46 velocity=0 time=119
note_on channel=0 note=51 velocity=35 time=1
note_on channel=0 note=51 velocity=0 time=119
note_on channel=0 note=67 velocity=0 time=0
note_on channel=0 note=79 velocity=0 time=0
note_on channel=0 note=67 velocity=58 time=0
note_on channel=0 note=79 velocity=69 time=0
note_on channel=0 note=49 velocity=41 time=0
note_on channel=0 note=49 velocity=0 time=119
note_on channel=0 note=79 velocity=0 time=1
note_on channel=0 note=67 velocity=0 time=0
note_on channel=0 note=51 velocity=37 time=0
note_on channel=0 note=51 velocity=0 time=119
note_on channel=0 note=87 velocity=71 time=1
note_on channel=0 note=75 velocity=60 time=0
note_on channel=0 note=46 velocity=50 time=0
control_change channel=0 control=64 value=0 time=17
note_on channel=0 note=75 velocity=0 time=103
note_on channel=0 note=87 velocity=0 time=0
note_on channel=0 note=51 velocity=40 time=0
note_on channel=0 note=46 velocity=0 time=20
note_on channel=0 note=67 velocity=61 time=100
note_on channel=0 note=79 velocity=73 time=0
note_on channel=0 note=49 velocity=45 time=0
note_on channel=0 note=51 velocity=0 time=20
note_on channel=0 note=67 velocity=0 time=100
note_on channel=0 note=79 velocity=0 time=0
note_on channel=0 note=51 velocity=41 time=0
note_on channel=0 note=49 velocity=0 time=20
note_on channel=0 note=70 velocity=62 time=100
note_on channel=0 note=82 velocity=74 time=0
note_on channel=0 note=47 velocity=51 time=0
note_on channel=0 note=51 velocity=0 time=20
note_on channel=0 note=70 velocity=0 time=100
note_on channel=0 note=82 velocity=0 time=0
note_on channel=0 note=51 velocity=44 time=0
note_on channel=0 note=47 velocity=0 time=20
note_on channel=0 note=68 velocity=63 time=0
note_on channel=0 note=80 velocity=75 time=0
note_on channel=0 note=47 velocity=47 time=0
note_on channel=0 note=51 velocity=0 time=20
control_change channel=0 control=64 value=127 time=37
note_on channel=0 note=47 velocity=0 time=62
note_on channel=0 note=51 velocity=43 time=1
note_on channel=0 note=51 velocity=0 time=119
note_on channel=0 note=47 velocity=52 time=1
note_on channel=0 note=47 velocity=0 time=119
note_on channel=0 note=51 velocity=44 time=1
note_on channel=0 note=51 velocity=0 time=119
note_on channel=0 note=80 velocity=0 time=1
note_on channel=0 note=68 velocity=0 time=0
note_on channel=0 note=68 velocity=68 time=0
note_on channel=0 note=80 velocity=80 time=0
note_on channel=0 note=47 velocity=48 time=0
note_on channel=0 note=47 velocity=0 time=119
note_on channel=0 note=51 velocity=48 time=1
note_on channel=0 note=51 velocity=0 time=119
note_on channel=0 note=47 velocity=56 time=1
note_on channel=0 note=47 velocity=0 time=119
note_on channel=0 note=51 velocity=47 time=1
note_on channel=0 note=51 velocity=0 time=119
note_on channel=0 note=80 velocity=0 time=0
note_on channel=0 note=68 velocity=0 time=0
note_on channel=0 note=68 velocity=69 time=0
note_on channel=0 note=80 velocity=82 time=0
note_on channel=0 note=47 velocity=50 time=0
control_change channel=0 control=64 value=0 time=29
note_on channel=0 note=47 velocity=0 time=90
note_on channel=0 note=80 velocity=0 time=1
note_on channel=0 note=68 velocity=0 time=0
note_on channel=0 note=51 velocity=45 time=0
note_on channel=0 note=75 velocity=72 time=120
note_on channel=0 note=87 velocity=85 time=0
note_on channel=0 note=47 velocity=57 time=0
note_on channel=0 note=51 velocity=0 time=20
note_on channel=0 note=75 velocity=0 time=100
note_on channel=0 note=87 velocity=0 time=0
note_on channel=0 note=51 velocity=49 time=0
note_on channel=0 note=47 velocity=0 time=20
note_on channel=0 note=80 velocity=86 time=100
note_on channel=0 note=68 velocity=73 time=0
note_on channel=0 note=47 velocity=51 time=0
note_on channel=0 note=51 velocity=0 time=20
note_on channel=0 note=80 velocity=0 time=100
note_on channel=0 note=68 velocity=0 time=0
note_on channel=0 note=51 velocity=47 time=0
note_on channel=0 note=47 velocity=0 time=20
note_on channel=0 note=71 velocity=73 time=100
note_on channel=0 note=83 velocity=86 time=0
note_on channel=0 note=43 velocity=59 time=0
note_on channel=0 note=51 velocity=0 time=20
note_on channel=0 note=71 velocity=0 time=100
note_on channel=0 note=83 velocity=0 time=0
note_on channel=0 note=51 velocity=53 time=0
note_on channel=0 note=43 velocity=0 time=20
note_on channel=0 note=82 velocity=89 time=0
note_on channel=0 note=70 velocity=74 time=0
note_on channel=0 note=43 velocity=56 time=0
note_on channel=0 note=51 velocity=0 time=20
note_on channel=0 note=43 velocity=0 time=99
note_on channel=0 note=51 velocity=56 time=1
control_change channel=0 control=64 value=127 time=12
note_on channel=0 note=51 velocity=0 time=107
note_on channel=0 note=43 velocity=60 time=1
note_on channel=0 note=43 velocity=0 time=119
note_on channel=0 note=51 velocity=52 time=1
note_on channel=0 note=51 velocity=0 time=119
note_on channel=0 note=70 velocity=0 time=1
note_on channel=0 note=82 velocity=0 time=0
note_on channel=0 note=70 velocity=79 time=0
note_on channel=0 note=82 velocity=93 time=0
note_on channel=0 note=43 velocity=57 time=0
note_on channel=0 note=43 velocity=0 time=119
note_on channel=0 note=51 velocity=52 time=1
note_on channel=0 note=51 velocity=0 time=119
note_on channel=0 note=43 velocity=62 time=1
note_on channel=0 note=43 velocity=0 time=119
note_on channel=0 note=51 velocity=53 time=1
note_on channel=0 note=51 velocity=0 time=119
note_on channel=0 note=82 velocity=0 time=0
note_on channel=0 note=70 velocity=0 time=0
note_on channel=0 note=82 velocity=93 time=0
note_on channel=0 note=70 velocity=79 time=0
note_on channel=0 note=43 velocity=59 time=0
control_change channel=0 control=64 value=0 time=23
note_on channel=0 note=70 velocity=0 time=97
note_on channel=0 note=82 velocity=0 time=0
note_on channel=0 note=51 velocity=53 time=0
note_on channel=0 note=43 velocity=0 time=20
note_on channel=0 note=87 velocity=93 time=100
note_on channel=0 note=75 velocity=79 time=0
note_on channel=0 note=43 velocity=62 time=0
note_on channel=0 note=51 velocity=0 time=20
note_on channel=0 note=87 velocity=0 time=100
note_on channel=0 note=75 velocity=0 time=0
note_on channel=0 note=51 velocity=54 time=0
note_on channel=0 note=43 velocity=0 time=20
note_on channel=0 note=82 velocity=93 time=100
note_on channel=0 note=70 velocity=79 time=0
note_on channel=0 note=43 velocity=60 time=0
note_on channel=0 note=51 velocity=0 time=20
note_on channel=0 note=82 velocity=0 time=100
note_on channel=0 note=70 velocity=0 time=0
note_on channel=0 note=51 velocity=54 time=0
note_on channel=0 note=43 velocity=0 time=20
note_on channel=0 note=72 velocity=80 time=0
note_on channel=0 note=84 velocity=95 time=0
note_on channel=0 note=42 velocity=66 time=0
note_on channel=0 note=51 velocity=0 time=20
note_on channel=0 note=51 velocity=54 time=100
note_on channel=0 note=42 velocity=0 time=17
note_on channel=0 note=44 velocity=61 time=103
note_on channel=0 note=51 velocity=0 time=17
note_on channel=0 note=51 velocity=54 time=103
note_on channel=0 note=44 velocity=0 time=17
note_on channel=0 note=42 velocity=66 time=103
note_on channel=0 note=51 velocity=0 time=17
note_on channel=0 note=51 velocity=56 time=103
note_on channel=0 note=42 velocity=0 time=17
note_on channel=0 note=44 velocity=61 time=103
note_on channel=0 note=51 velocity=0 time=17
note_on channel=0 note=51 velocity=56 time=103
note_on channel=0 note=44 velocity=0 time=17
note_on channel=0 note=72 velocity=0 time=103
note_on channel=0 note=84 velocity=0 time=0
note_on channel=0 note=85 velocity=95 time=0
note_on channel=0 note=73 velocity=80 time=0
note_on channel=0 note=40 velocity=66 time=0
note_on channel=0 note=51 velocity=0 time=17
note_on channel=0 note=49 velocity=56 time=103
note_on channel=0 note=40 velocity=0 time=17
note_on channel=0 note=44 velocity=62 time=103
note_on channel=0 note=49 velocity=0 time=17
note_on channel=0 note=49 velocity=56 time=103
note_on channel=0 note=44 velocity=0 time=17
note_on channel=0 note=40 velocity=66 time=103
note_on channel=0 note=49 velocity=0 time=17
note_on channel=0 note=49 velocity=56 time=103
note_on channel=0 note=40 velocity=0 time=17
note_on channel=0 note=44 velocity=61 time=103
note_on channel=0 note=49 velocity=0 time=17
note_on channel=0 note=49 velocity=56 time=103
note_on channel=0 note=44 velocity=0 time=17
note_on channel=0 note=85 velocity=0 time=0
note_on channel=0 note=73 velocity=0 time=0
note_on channel=0 note=82 velocity=80 time=0
note_on channel=0 note=70 velocity=68 time=0
note_on channel=0 note=40 velocity=66 time=0
control_change channel=0 control=64 value=0 time=0
note_on channel=0 note=49 velocity=0 time=17
control_change channel=0 control=64 value=127 time=26
note_on channel=0 note=82 velocity=0 time=22
note_on channel=0 note=83 velocity=75 time=0
note_on channel=0 note=40 velocity=0 time=54
note_on channel=0 note=49 velocity=56 time=1
note_on channel=0 note=83 velocity=0 time=9
note_on channel=0 note=82 velocity=80 time=0
note_on channel=0 note=82 velocity=0 time=65
note_on channel=0 note=83 velocity=80 time=0
note_on channel=0 note=49 velocity=0 time=45
note_on channel=0 note=42 velocity=61 time=1
note_on channel=0 note=83 velocity=0 time=18
note_on channel=0 note=82 velocity=80 time=17
note_on channel=0 note=80 velocity=75 time=72
note_on channel=0 note=82 velocity=0 time=6
note_on channel=0 note=42 velocity=0 time=6
note_on channel=0 note=49 velocity=56 time=1
note_on channel=0 note=82 velocity=75 time=53
note_on channel=0 note=80 velocity=0 time=11
note_on channel=0 note=49 velocity=0 time=55
note_on channel=0 note=70 velocity=0 time=0
note_on channel=0 note=82 velocity=0 time=0
note_on channel=0 note=83 velocity=95 time=0
note_on channel=0 note=71 velocity=80 time=0
note_on channel=0 note=39 velocity=66 time=0
control_change channel=0 control=64 value=0 time=17
note_on channel=0 note=47 velocity=57 time=103
note_on channel=0 note=39 velocity=0 time=17
note_on channel=0 note=42 velocity=62 time=103
note_on channel=0 note=47 velocity=0 time=17
note_on channel=0 note=47 velocity=57 time=103
note_on channel=0 note=42 velocity=0 time=17
note_on channel=0 note=39 velocity=66 time=103
note_on channel=0 note=47 velocity=0 time=17
note_on channel=0 note=47 velocity=56 time=103
note_on channel=0 note=39 velocity=0 time=17
note_on channel=0 note=42 velocity=61 time=103
note_on channel=0 note=47 velocity=0 time=17
note_on channel=0 note=47 velocity=56 time=103
note_on channel=0 note=42 velocity=0 time=17
note_on channel=0 note=39 velocity=66 time=103
note_on channel=0 note=47 velocity=0 time=17
note_on channel=0 note=47 velocity=56 time=103
note_on channel=0 note=39 velocity=0 time=17
note_on channel=0 note=42 velocity=60 time=103
note_on channel=0 note=47 velocity=0 time=17
note_on channel=0 note=47 velocity=56 time=103
note_on channel=0 note=42 velocity=0 time=17
note_on channel=0 note=83 velocity=0 time=0
note_on channel=0 note=71 velocity=0 time=0
note_on channel=0 note=80 velocity=95 time=0
note_on channel=0 note=68 velocity=80 time=0
note_on channel=0 note=38 velocity=66 time=0
control_change channel=0 control=64 value=0 time=0
note_on channel=0 note=47 velocity=0 time=17
note_on channel=0 note=47 velocity=58 time=103
note_on channel=0 note=38 velocity=0 time=20
note_on channel=0 note=40 velocity=62 time=100
note_on channel=0 note=47 velocity=0 time=20
note_on channel=0 note=47 velocity=58 time=100
note_on channel=0 note=40 velocity=0 time=20
note_on channel=0 note=38 velocity=66 time=100
note_on channel=0 note=47 velocity=0 time=20
note_on channel=0 note=47 velocity=58 time=100
note_on channel=0 note=38 velocity=0 time=20
note_on channel=0 note=40 velocity=62 time=100
note_on channel=0 note=47 velocity=0 time=20
note_on channel=0 note=47 velocity=57 time=100
note_on channel=0 note=40 velocity=0 time=20
note_on channel=0 note=80 velocity=0 time=0
note_on channel=0 note=68 velocity=0 time=0
note_on channel=0 note=69 velocity=80 time=0
note_on channel=0 note=81 velocity=94 time=0
note_on channel=0 note=37 velocity=66 time=0
note_on channel=0 note=47 velocity=0 time=20
note_on channel=0 note=37 velocity=0 time=99
note_on channel=0 note=45 velocity=57 time=1
note_on channel=0 note=45 velocity=0 time=119
note_on channel=0 note=40 velocity=62 time=1
note_on channel=0 note=40 velocity=0 time=119
note_on channel=0 note=45 velocity=56 time=1
note_on channel=0 note=45 velocity=0 time=119
note_on channel=0 note=37 velocity=66 time=1
note_on channel=0 note=37 velocity=0 time=119
note_on channel=0 note=45 velocity=57 time=1
note_on channel=0 note=45 velocity=0 time=119
note_on channel=0 note=40 velocity=62 time=1
note_on channel=0 note=40 velocity=0 time=119
note_on channel=0 note=45 velocity=57 time=1
note_on channel=0 note=45 velocity=0 time=119
note_on channel=0 note=81 velocity=0 time=0
note_on channel=0 note=69 velocity=0 time=0
note_on channel=0 note=67 velocity=68 time=0
note_on channel=0 note=79 velocity=80 time=0
note_on channel=0 note=37 velocity=66 time=0
control_change channel=0 control=64 value=0 time=29
control_change channel=0 control=64 value=127 time=20
note_on channel=0 note=79 velocity=0 time=16
note_on channel=0 note=80 velocity=75 time=0
note_on channel=0 note=37 velocity=0 time=54
note_on channel=0 note=46 velocity=56 time=1
note_on channel=0 note=79 velocity=80 time=9
note_on channel=0 note=80 velocity=0 time=1
note_on channel=0 note=79 velocity=0 time=64
note_on channel=0 note=80 velocity=80 time=0
note_on channel=0 note=46 velocity=0 time=45
note_on channel=0 note=39 velocity=60 time=1
note_on channel=0 note=80 velocity=0 time=19
note_on channel=0 note=79 velocity=80 time=16
note_on channel=0 note=77 velocity=75 time=72
note_on channel=0 note=79 velocity=0 time=6
note_on channel=0 note=39 velocity=0 time=6
note_on channel=0 note=46 velocity=56 time=1
note_on channel=0 note=79 velocity=75 time=53
note_on channel=0 note=77 velocity=0 time=12
note_on channel=0 note=46 velocity=0 time=54
note_on channel=0 note=67 velocity=0 time=0
note_on channel=0 note=79 velocity=0 time=0
note_on channel=0 note=68 velocity=80 time=0
note_on channel=0 note=80 velocity=95 time=0
note_on channel=0 note=35 velocity=66 time=0
control_change channel=0 control=64 value=0 time=15
note_on channel=0 note=44 velocity=57 time=105
note_on channel=0 note=35 velocity=0 time=17
note_on channel=0 note=39 velocity=61 time=103
note_on channel=0 note=44 velocity=0 time=17
note_on channel=0 note=44 velocity=57 time=103
note_on channel=0 note=39 velocity=0 time=17
note_on channel=0 note=35 velocity=66 time=103
note_on channel=0 note=44 velocity=0 time=17
note_on channel=0 note=44 velocity=56 time=103
note_on channel=0 note=35 velocity=0 time=17
note_on channel=0 note=39 velocity=61 time=103
note_on channel=0 note=44 velocity=0 time=17
note_on channel=0 note=44 velocity=57 time=103
note_on channel=0 note=39 velocity=0 time=17
note_on channel=0 note=35 velocity=66 time=103
note_on channel=0 note=44 velocity=0 time=17
note_on channel=0 note=44 velocity=56 time=103
note_on channel=0 note=35 velocity=0 time=17
note_on channel=0 note=39 velocity=61 time=103
note_on channel=0 note=44 velocity=0 time=17
note_on channel=0 note=44 velocity=58 time=103
note_on channel=0 note=39 velocity=0 time=17
note_on channel=0 note=68 velocity=0 time=103
note_on channel=0 note=80 velocity=0 time=0
note_on channel=0 note=76 velocity=100 time=0
note_on channel=0 note=69 velocity=83 time=0
note_on channel=0 note=73 velocity=83 time=0
note_on channel=0 note=81 velocity=100 time=0
note_on channel=0 note=45 velocity=75 time=0
note_on channel=0 note=40 velocity=64 time=0
note_on channel=0 note=49 velocity=75 time=0
note_on channel=0 note=37 velocity=64 time=0
note_on channel=0 note=44 velocity=0 time=17
control_change channel=0 control=64 value=0 time=47
note_on channel=0 note=81 velocity=0 time=1016
note_on channel=0 note=76 velocity=0 time=0
note_on channel=0 note=73 velocity=0 time=0
note_on channel=0 note=69 velocity=0 time=0
note_on channel=0 note=76 velocity=47 time=0
note_on channel=0 note=76 velocity=0 time=120
note_on channel=0 note=78 velocity=47 time=0
note_on channel=0 note=78 velocity=0 time=120
note_on channel=0 note=80 velocity=48 time=0
note_on channel=0 note=80 velocity=0 time=120
note_on channel=0 note=40 velocity=0 time=0
note_on channel=0 note=37 velocity=0 time=0
note_on channel=0 note=45 velocity=0 time=0
note_on channel=0 note=49 velocity=0 time=0
note_on channel=0 note=81 velocity=49 time=0
note_on channel=0 note=81 velocity=0 time=120
note_on channel=0 note=83 velocity=50 time=0
note_on channel=0 note=83 velocity=0 time=120
note_on channel=0 note=85 velocity=51 time=0
note_on channel=0 note=85 velocity=0 time=120
note_on channel=0 note=83 velocity=51 time=0
note_on channel=0 note=83 velocity=0 time=120
note_on channel=0 note=81 velocity=49 time=0
note_on channel=0 note=64 velocity=42 time=0
note_on channel=0 note=61 velocity=42 time=0
note_on channel=0 note=69 velocity=50 time=0
note_on channel=0 note=81 velocity=0 time=120
note_on channel=0 note=76 velocity=47 time=0
note_on channel=0 note=76 velocity=0 time=120
note_on channel=0 note=78 velocity=47 time=0
note_on channel=0 note=78 velocity=0 time=120
note_on channel=0 note=80 velocity=47 time=0
note_on channel=0 note=69 velocity=0 time=116
note_on channel=0 note=64 velocity=0 time=4
note_on channel=0 note=61 velocity=0 time=0
note_on channel=0 note=80 velocity=0 time=0
note_on channel=0 note=81 velocity=48 time=0
note_on channel=0 note=81 velocity=0 time=120
note_on channel=0 note=83 velocity=49 time=0
note_on channel=0 note=83 velocity=0 time=120
note_on channel=0 note=85 velocity=50 time=0
note_on channel=0 note=85 velocity=0 time=120
note_on channel=0 note=83 velocity=48 time=0
note_on channel=0 note=83 velocity=0 time=120
note_on channel=0 note=81 velocity=48 time=0
note_on channel=0 note=64 velocity=41 time=0
note_on channel=0 note=61 velocity=41 time=0
note_on channel=0 note=69 velocity=49 time=0
note_on channel=0 note=81 velocity=0 time=120
note_on channel=0 note=76 velocity=47 time=0
note_on channel=0 note=76 velocity=0 time=120
note_on channel=0 note=78 velocity=48 time=0
note_on channel=0 note=78 velocity=0 time=120
note_on channel=0 note=80 velocity=49 time=0
note_on channel=0 note=80 velocity=0 time=120
note_on channel=0 note=69 velocity=0 time=0
note_on channel=0 note=61 velocity=0 time=0
note_on channel=0 note=64 velocity=0 time=0
note_on channel=0 note=81 velocity=50 time=0
note_on channel=0 note=81 velocity=0 time=120
note_on channel=0 note=83 velocity=51 time=0
note_on channel=0 note=83 velocity=0 time=120
note_on channel=0 note=85 velocity=51 time=0
note_on channel=0 note=85 velocity=0 time=120
note_on channel=0 note=83 velocity=49 time=0
note_on channel=0 note=83 velocity=0 time=120
note_on channel=0 note=81 velocity=47 time=0
note_on channel=0 note=64 velocity=41 time=0
note_on channel=0 note=61 velocity=41 time=0
note_on channel=0 note=69 velocity=49 time=0
note_on channel=0 note=81 velocity=0 time=120
note_on channel=0 note=76 velocity=48 time=0
note_on channel=0 note=76 velocity=0 time=120
note_on channel=0 note=78 velocity=51 time=0
note_on channel=0 note=78 velocity=0 time=120
note_on channel=0 note=80 velocity=51 time=0
note_on channel=0 note=80 velocity=0 time=120
note_on channel=0 note=69 velocity=0 time=0
note_on channel=0 note=61 velocity=0 time=0
note_on channel=0 note=64 velocity=0 time=0
note_on channel=0 note=81 velocity=54 time=0
note_on channel=0 note=64 velocity=44 time=0
note_on channel=0 note=61 velocity=44 time=0
note_on channel=0 note=69 velocity=52 time=0
note_on channel=0 note=81 velocity=0 time=120
note_on channel=0 note=83 velocity=56 time=0
note_on channel=0 note=83 velocity=0 time=120
note_on channel=0 note=85 velocity=57 time=0
note_on channel=0 note=85 velocity=0 time=120
note_on channel=0 note=86 velocity=60 time=0
note_on channel=0 note=86 velocity=0 time=120
note_on channel=0 note=69 velocity=0 time=0
note_on channel=0 note=61 velocity=0 time=0
note_on channel=0 note=64 velocity=0 time=0
note_on channel=0 note=88 velocity=61 time=0
note_on channel=0 note=69 velocity=60 time=0
note_on channel=0 note=64 velocity=51 time=0
note_on channel=0 note=61 velocity=51 time=0
note_on channel=0 note=88 velocity=0 time=120
note_on channel=0 note=87 velocity=59 time=0
note_on channel=0 note=87 velocity=0 time=120
note_on channel=0 note=88 velocity=57 time=0
note_on channel=0 note=88 velocity=0 time=120
note_on channel=0 note=87 velocity=56 time=0
note_on channel=0 note=87 velocity=0 time=120
note_on channel=0 note=61 velocity=0 time=0
note_on channel=0 note=64 velocity=0 time=0
note_on channel=0 note=69 velocity=0 time=0
note_on channel=0 note=88 velocity=54 time=0
note_on channel=0 note=69 velocity=56 time=0
note_on channel=0 note=64 velocity=47 time=0
note_on channel=0 note=61 velocity=47 time=0
note_on channel=0 note=88 velocity=0 time=120
note_on channel=0 note=85 velocity=52 time=0
note_on channel=0 note=85 velocity=0 time=120
note_on channel=0 note=83 velocity=51 time=0
note_on channel=0 note=83 velocity=0 time=120
note_on channel=0 note=81 velocity=50 time=0
note_on channel=0 note=81 velocity=0 time=120
note_on channel=0 note=61 velocity=0 time=0
note_on channel=0 note=64 velocity=0 time=0
note_on channel=0 note=69 velocity=0 time=0
note_on channel=0 note=80 velocity=48 time=0
note_on channel=0 note=63 velocity=49 time=0
control_change channel=0 control=64 value=127 time=63
note_on channel=0 note=63 velocity=0 time=56
note_on channel=0 note=71 velocity=44 time=1
note_on channel=0 note=71 velocity=0 time=119
note_on channel=0 note=68 velocity=47 time=1
note_on channel=0 note=68 velocity=0 time=119
note_on channel=0 note=71 velocity=44 time=1
note_on channel=0 note=71 velocity=0 time=119
note_on channel=0 note=63 velocity=51 time=1
note_on channel=0 note=63 velocity=0 time=119
note_on channel=0 note=71 velocity=43 time=1
note_on channel=0 note=71 velocity=0 time=119
note_on channel=0 note=68 velocity=47 time=1
note_on channel=0 note=68 velocity=0 time=119
note_on channel=0 note=71 velocity=43 time=1
note_on channel=0 note=71 velocity=0 time=119
note_on channel=0 note=80 velocity=0 time=0
note_on channel=0 note=82 velocity=50 time=0
note_on channel=0 note=63 velocity=51 time=0
control_change channel=0 control=64 value=0 time=15
control_change channel=0 control=64 value=127 time=45
note_on channel=0 note=82 velocity=0 time=20
note_on channel=0 note=83 velocity=50 time=0
note_on channel=0 note=63 velocity=0 time=39
note_on channel=0 note=73 velocity=45 time=1
note_on channel=0 note=83 velocity=0 time=40
note_on channel=0 note=82 velocity=50 time=0
note_on channel=0 note=82 velocity=0 time=75
note_on channel=0 note=83 velocity=50 time=0
note_on channel=0 note=73 velocity=0 time=4
note_on channel=0 note=67 velocity=47 time=1
note_on channel=0 note=83 velocity=0 time=70
note_on channel=0 note=82 velocity=50 time=0
note_on channel=0 note=67 velocity=0 time=49
note_on channel=0 note=73 velocity=43 time=1
note_on channel=0 note=82 velocity=0 time=25
note_on channel=0 note=83 velocity=50 time=0
note_on channel=0 note=83 velocity=0 time=75
note_on channel=0 note=82 velocity=48 time=0
note_on channel=0 note=73 velocity=0 time=19
note_on channel=0 note=63 velocity=51 time=1
note_on channel=0 note=82 velocity=0 time=50
note_on channel=0 note=83 velocity=48 time=0
note_on channel=0 note=63 velocity=0 time=69
note_on channel=0 note=83 velocity=0 time=1
note_on channel=0 note=82 velocity=49 time=0
note_on channel=0 note=73 velocity=43 time=0
note_on channel=0 note=82 velocity=0 time=60
note_on channel=0 note=83 velocity=50 time=0
note_on channel=0 note=73 velocity=0 time=59
note_on channel=0 note=83 velocity=0 time=1
note_on channel=0 note=82 velocity=51 time=0
note_on channel=0 note=67 velocity=47 time=0
note_on channel=0 note=82 velocity=0 time=60
note_on channel=0 note=83 velocity=51 time=0
note_on channel=0 note=67 velocity=0 time=59
note_on channel=0 note=83 velocity=0 time=1
note_on channel=0 note=82 velocity=51 time=0
note_on channel=0 note=73 velocity=43 time=0
note_on channel=0 note=82 velocity=0 time=60
note_on channel=0 note=83 velocity=52 time=0
note_on channel=0 note=73 velocity=0 time=59
note_on channel=0 note=83 velocity=0 time=0
note_on channel=0 note=80 velocity=56 time=0
note_on channel=0 note=68 velocity=56 time=0
note_on channel=0 note=64 velocity=56 time=0
note_on channel=0 note=71 velocity=56 time=0
control_change channel=0 control=64 value=0 time=11
note_on channel=0 note=71 velocity=0 time=229
note_on channel=0 note=80 velocity=0 time=0
note_on channel=0 note=68 velocity=0 time=0
note_on channel=0 note=64 velocity=0 time=0
note_on channel=0 note=64 velocity=87 time=0
note_on channel=0 note=57 velocity=73 time=0
note_on channel=0 note=61 velocity=87 time=0
note_on channel=0 note=69 velocity=87 time=0
note_on channel=0 note=40 velocity=62 time=0
note_on channel=0 note=45 velocity=73 time=0
note_on channel=0 note=49 velocity=73 time=0
note_on channel=0 note=37 velocity=62 time=0
note_on channel=0 note=69 velocity=0 time=600
note_on channel=0 note=61 velocity=0 time=0
note_on channel=0 note=64 velocity=0 time=0
note_on channel=0 note=57 velocity=0 time=0
note_on channel=0 note=64 velocity=50 time=0
note_on channel=0 note=64 velocity=0 time=120
note_on channel=0 note=66 velocity=50 time=0
note_on channel=0 note=66 velocity=0 time=120
note_on channel=0 note=68 velocity=50 time=0
note_on channel=0 note=68 velocity=0 time=120
note_on channel=0 note=49 velocity=0 time=0
note_on channel=0 note=37 velocity=0 time=0
note_on channel=0 note=45 velocity=0 time=0
note_on channel=0 note=40 velocity=0 time=0
note_on channel=0 note=69 velocity=48 time=0
note_on channel=0 note=69 velocity=0 time=120
note_on channel=0 note=71 velocity=47 time=0
note_on channel=0 note=71 velocity=0 time=120
note_on channel=0 note=73 velocity=49 time=0
note_on channel=0 note=73 velocity=0 time=120
note_on channel=0 note=71 velocity=48 time=0
note_on channel=0 note=71 velocity=0 time=120
note_on channel=0 note=69 velocity=47 time=0
note_on channel=0 note=69 velocity=0 time=120
note_on channel=0 note=64 velocity=47 time=0
note_on channel=0 note=64 velocity=0 time=120
note_on channel=0 note=66 velocity=48 time=0
note_on channel=0 note=66 velocity=0 time=120
note_on channel=0 note=68 velocity=49 time=0
note_on channel=0 note=68 velocity=0 time=120
note_on channel=0 note=69 velocity=51 time=0
note_on channel=0 note=52 velocity=41 time=0
note_on channel=0 note=49 velocity=41 time=0
note_on channel=0 note=57 velocity=49 time=0
note_on channel=0 note=69 velocity=0 time=120
note_on channel=0 note=71 velocity=51 time=0
note_on channel=0 note=71 velocity=0 time=120
note_on channel=0 note=73 velocity=49 time=0
note_on channel=0 note=73 velocity=0 time=120
note_on channel=0 note=71 velocity=48 time=0
note_on channel=0 note=71 velocity=0 time=120
note_on channel=0 note=57 velocity=0 time=0
note_on channel=0 note=49 velocity=0 time=0
note_on channel=0 note=52 velocity=0 time=0
note_on channel=0 note=69 velocity=48 time=0
note_on channel=0 note=69 velocity=0 time=120
note_on channel=0 note=64 velocity=48 time=0
note_on channel=0 note=64 velocity=0 time=120
note_on channel=0 note=66 velocity=48 time=0
note_on channel=0 note=66 velocity=0 time=120
note_on channel=0 note=68 velocity=50 time=0
note_on channel=0 note=68 velocity=0 time=120
note_on channel=0 note=69 velocity=50 time=0
note_on channel=0 note=52 velocity=41 time=0
note_on channel=0 note=49 velocity=41 time=0
note_on channel=0 note=57 velocity=49 time=0
note_on channel=0 note=69 velocity=0 time=120
note_on channel=0 note=71 velocity=50 time=0
note_on channel=0 note=71 velocity=0 time=120
note_on channel=0 note=73 velocity=50 time=0
note_on channel=0 note=73 velocity=0 time=120
note_on channel=0 note=71 velocity=50 time=0
note_on channel=0 note=71 velocity=0 time=120
note_on channel=0 note=57 velocity=0 time=0
note_on channel=0 note=49 velocity=0 time=0
note_on channel=0 note=52 velocity=0 time=0
note_on channel=0 note=69 velocity=49 time=0
note_on channel=0 note=69 velocity=0 time=120
note_on channel=0 note=64 velocity=50 time=0
note_on channel=0 note=64 velocity=0 time=120
note_on channel=0 note=66 velocity=51 time=0
note_on channel=0 note=57 velocity=51 time=0
note_on channel=0 note=49 velocity=43 time=0
note_on channel=0 note=52 velocity=43 time=0
note_on channel=0 note=66 velocity=0 time=120
note_on channel=0 note=68 velocity=51 time=0
note_on channel=0 note=68 velocity=0 time=120
note_on channel=0 note=52 velocity=0 time=0
note_on channel=0 note=49 velocity=0 time=0
note_on channel=0 note=57 velocity=0 time=0
note_on channel=0 note=69 velocity=52 time=0
note_on channel=0 note=69 velocity=0 time=120
note_on channel=0 note=71 velocity=53 time=0
note_on channel=0 note=71 velocity=0 time=120
note_on channel=0 note=73 velocity=56 time=0
note_on channel=0 note=57 velocity=61 time=0
note_on channel=0 note=49 velocity=51 time=0
note_on channel=0 note=52 velocity=51 time=0
note_on channel=0 note=73 velocity=0 time=120
note_on channel=0 note=71 velocity=56 time=0
note_on channel=0 note=71 velocity=0 time=120
note_on channel=0 note=52 velocity=0 time=0
note_on channel=0 note=49 velocity=0 time=0
note_on channel=0 note=57 velocity=0 time=0
note_on channel=0 note=69 velocity=57 time=0
note_on channel=0 note=69 velocity=0 time=120
note_on channel=0 note=64 velocity=58 time=0
note_on channel=0 note=64 velocity=0 time=120
note_on channel=0 note=66 velocity=59 time=0
note_on channel=0 note=57 velocity=68 time=0
note_on channel=0 note=52 velocity=57 time=0
note_on channel=0 note=49 velocity=57 time=0
note_on channel=0 note=66 velocity=0 time=120
note_on channel=0 note=68 velocity=60 time=0
note_on channel=0 note=68 velocity=0 time=120
note_on channel=0 note=49 velocity=0 time=0
note_on channel=0 note=52 velocity=0 time=0
note_on channel=0 note=57 velocity=0 time=0
note_on channel=0 note=69 velocity=62 time=0
note_on channel=0 note=69 velocity=0 time=120
note_on channel=0 note=71 velocity=62 time=0
note_on channel=0 note=71 velocity=0 time=120
note_on channel=0 note=73 velocity=62 time=0
note_on channel=0 note=57 velocity=68 time=0
note_on channel=0 note=52 velocity=57 time=0
note_on channel=0 note=49 velocity=57 time=0
note_on channel=0 note=73 velocity=0 time=120
note_on channel=0 note=71 velocity=63 time=0
note_on channel=0 note=71 velocity=0 time=120
note_on channel=0 note=49 velocity=0 time=0
note_on channel=0 note=52 velocity=0 time=0
note_on channel=0 note=57 velocity=0 time=0
note_on channel=0 note=69 velocity=66 time=0
note_on channel=0 note=52 velocity=56 time=0
note_on channel=0 note=57 velocity=67 time=0
note_on channel=0 note=49 velocity=56 time=0
note_on channel=0 note=69 velocity=0 time=120
note_on channel=0 note=64 velocity=67 time=0
note_on channel=0 note=64 velocity=0 time=120
note_on channel=0 note=66 velocity=68 time=0
note_on channel=0 note=66 velocity=0 time=120
note_on channel=0 note=68 velocity=68 time=0
note_on channel=0 note=68 velocity=0 time=120
note_on channel=0 note=49 velocity=0 time=0
note_on channel=0 note=57 velocity=0 time=0
note_on channel=0 note=52 velocity=0 time=0
note_on channel=0 note=69 velocity=70 time=0
note_on channel=0 note=69 velocity=0 time=120
note_on channel=0 note=71 velocity=71 time=0
note_on channel=0 note=71 velocity=0 time=120
note_on channel=0 note=73 velocity=72 time=0
note_on channel=0 note=73 velocity=0 time=120
note_on channel=0 note=74 velocity=73 time=0
note_on channel=0 note=74 velocity=0 time=120
note_on channel=0 note=76 velocity=74 time=0
note_on channel=0 note=76 velocity=0 time=120
note_on channel=0 note=78 velocity=75 time=0
note_on channel=0 note=78 velocity=0 time=120
note_on channel=0 note=80 velocity=76 time=0
note_on channel=0 note=80 velocity=0 time=120
note_on channel=0 note=81 velocity=77 time=0
note_on channel=0 note=81 velocity=0 time=120
note_on channel=0 note=83 velocity=79 time=0
note_on channel=0 note=83 velocity=0 time=120
note_on channel=0 note=85 velocity=79 time=0
note_on channel=0 note=85 velocity=0 time=120
note_on channel=0 note=86 velocity=79 time=0
note_on channel=0 note=86 velocity=0 time=120
note_on channel=0 note=87 velocity=80 time=0
note_on channel=0 note=87 velocity=0 time=120
note_on channel=0 note=76 velocity=84 time=0
note_on channel=0 note=88 velocity=84 time=0
note_on channel=0 note=49 velocity=70 time=0
control_change channel=0 control=64 value=127 time=86
note_on channel=0 note=49 velocity=0 time=33
note_on channel=0 note=57 velocity=61 time=1
note_on channel=0 note=57 velocity=0 time=119
note_on channel=0 note=52 velocity=66 time=1
note_on channel=0 note=52 velocity=0 time=119
note_on channel=0 note=57 velocity=62 time=1
note_on channel=0 note=57 velocity=0 time=119
note_on channel=0 note=49 velocity=70 time=1
note_on channel=0 note=49 velocity=0 time=119
note_on channel=0 note=57 velocity=61 time=1
note_on channel=0 note=57 velocity=0 time=119
note_on channel=0 note=52 velocity=65 time=1
note_on channel=0 note=52 velocity=0 time=119
note_on channel=0 note=57 velocity=61 time=1
note_on channel=0 note=57 velocity=0 time=119
note_on channel=0 note=88 velocity=0 time=1
note_on channel=0 note=76 velocity=0 time=0
note_on channel=0 note=68 velocity=84 time=0
note_on channel=0 note=80 velocity=84 time=0
note_on channel=0 note=50 velocity=70 time=0
control_change channel=0 control=64 value=0 time=9
control_change channel=0 control=64 value=127 time=71
note_on channel=0 note=50 velocity=0 time=39
note_on channel=0 note=59 velocity=61 time=1
note_on channel=0 note=59 velocity=0 time=119
note_on channel=0 note=53 velocity=66 time=1
note_on channel=0 note=53 velocity=0 time=119
note_on channel=0 note=59 velocity=62 time=1
note_on channel=0 note=59 velocity=0 time=119
note_on channel=0 note=50 velocity=70 time=1
note_on channel=0 note=50 velocity=0 time=119
note_on channel=0 note=59 velocity=61 time=1
note_on channel=0 note=59 velocity=0 time=119
note_on channel=0 note=53 velocity=63 time=1
note_on channel=0 note=53 velocity=0 time=119
note_on channel=0 note=59 velocity=61 time=1
note_on channel=0 note=59 velocity=0 time=119
note_on channel=0 note=80 velocity=0 time=1
note_on channel=0 note=68 velocity=0 time=0
note_on channel=0 note=71 velocity=84 time=0
note_on channel=0 note=83 velocity=84 time=0
note_on channel=0 note=51 velocity=70 time=0
control_change channel=0 control=64 value=0 time=16
control_change channel=0 control=64 value=127 time=70
note_on channel=0 note=51 velocity=0 time=33
note_on channel=0 note=59 velocity=61 time=1
note_on channel=0 note=59 velocity=0 time=119
note_on channel=0 note=56 velocity=66 time=1
note_on channel=0 note=56 velocity=0 time=119
note_on channel=0 note=59 velocity=66 time=1
note_on channel=0 note=59 velocity=0 time=119
note_on channel=0 note=51 velocity=70 time=1
note_on channel=0 note=51 velocity=0 time=119
note_on channel=0 note=59 velocity=62 time=1
note_on channel=0 note=59 velocity=0 time=119
note_on channel=0 note=56 velocity=66 time=1
note_on channel=0 note=56 velocity=0 time=119
note_on channel=0 note=59 velocity=62 time=1
note_on channel=0 note=59 velocity=0 time=119
note_on channel=0 note=83 velocity=0 time=0
note_on channel=0 note=71 velocity=0 time=0
note_on channel=0 note=55 velocity=71 time=0
note_on channel=0 note=61 velocity=71 time=0
note_on channel=0 note=67 velocity=84 time=0
note_on channel=0 note=39 velocity=70 time=0
control_change channel=0 control=64 value=0 time=16
control_change channel=0 control=64 value=127 time=87
note_on channel=0 note=39 velocity=0 time=16
note_on channel=0 note=51 velocity=62 time=1
note_on channel=0 note=51 velocity=0 time=119
note_on channel=0 note=50 velocity=67 time=1
note_on channel=0 note=50 velocity=0 time=119
note_on channel=0 note=51 velocity=62 time=1
note_on channel=0 note=51 velocity=0 time=119
note_on channel=0 note=50 velocity=70 time=1
note_on channel=0 note=50 velocity=0 time=119
note_on channel=0 note=51 velocity=62 time=1
note_on channel=0 note=51 velocity=0 time=119
note_on channel=0 note=50 velocity=67 time=1
note_on channel=0 note=50 velocity=0 time=119
note_on channel=0 note=51 velocity=61 time=1
note_on channel=0 note=51 velocity=0 time=102
note_on channel=0 note=67 velocity=0 time=0
note_on channel=0 note=61 velocity=0 time=0
note_on channel=0 note=55 velocity=0 time=0
note_on channel=0 note=63 velocity=84 time=0
note_on channel=0 note=68 velocity=84 time=0
note_on channel=0 note=59 velocity=84 time=0
note_on channel=0 note=44 velocity=71 time=0
control_change channel=0 control=64 value=0 time=8
note_on channel=0 note=44 velocity=0 time=0
note_on channel=0 note=63 velocity=0 time=0
note_on channel=0 note=68 velocity=0 time=0
note_on channel=0 note=59 velocity=0 time=0
note_on channel=0 note=63 velocity=51 time=0
note_on channel=0 note=71 velocity=51 time=0
note_on channel=0 note=71 velocity=0 time=120
note_on channel=0 note=63 velocity=0 time=0
note_on channel=0 note=63 velocity=51 time=120
note_on channel=0 note=71 velocity=51 time=0
note_on channel=0 note=56 velocity=43 time=0
note_on channel=0 note=56 velocity=0 time=120
note_on channel=0 note=71 velocity=0 time=0
note_on channel=0 note=63 velocity=0 time=0
note_on channel=0 note=63 velocity=51 time=120
note_on channel=0 note=71 velocity=51 time=0
note_on channel=0 note=56 velocity=43 time=0
note_on channel=0 note=56 velocity=0 time=120
note_on channel=0 note=71 velocity=0 time=0
note_on channel=0 note=63 velocity=0 time=0
note_on channel=0 note=63 velocity=51 time=80
note_on channel=0 note=71 velocity=51 time=0
note_on channel=0 note=56 velocity=43 time=0
note_on channel=0 note=56 velocity=0 time=120
note_on channel=0 note=71 velocity=0 time=0
note_on channel=0 note=63 velocity=0 time=0
note_on channel=0 note=63 velocity=51 time=120
note_on channel=0 note=71 velocity=51 time=0
note_on channel=0 note=56 velocity=43 time=0
note_on channel=0 note=56 velocity=0 time=120
note_on channel=0 note=71 velocity=0 time=0
note_on channel=0 note=63 velocity=0 time=0
note_on channel=0 note=70 velocity=49 time=120
note_on channel=0 note=63 velocity=49 time=0
note_on channel=0 note=58 velocity=42 time=0
note_on channel=0 note=58 velocity=0 time=80
note_on channel=0 note=63 velocity=0 time=0
note_on channel=0 note=70 velocity=0 time=0
note_on channel=0 note=63 velocity=48 time=120
note_on channel=0 note=68 velocity=48 time=0
note_on channel=0 note=59 velocity=42 time=0
note_on channel=0 note=59 velocity=0 time=120
note_on channel=0 note=68 velocity=0 time=0
note_on channel=0 note=63 velocity=0 time=0
note_on channel=0 note=63 velocity=59 time=120
note_on channel=0 note=67 velocity=59 time=0
note_on channel=0 note=51 velocity=47 time=0
note_on channel=0 note=61 velocity=47 time=0
note_on channel=0 note=61 velocity=0 time=0
note_on channel=0 note=63 velocity=0 time=0
note_on channel=0 note=67 velocity=0 time=0
note_on channel=0 note=51 velocity=0 time=0
note_on channel=0 note=75 velocity=49 time=0
note_on channel=0 note=67 velocity=49 time=0
note_on channel=0 note=63 velocity=42 time=0
note_on channel=0 note=61 velocity=42 time=0
note_on channel=0 note=61 velocity=0 time=120
note_on channel=0 note=75 velocity=0 time=0
note_on channel=0 note=67 velocity=0 time=0
note_on channel=0 note=63 velocity=0 time=0
note_on channel=0 note=67 velocity=49 time=120
note_on channel=0 note=75 velocity=49 time=0
note_on channel=0 note=61 velocity=41 time=0
note_on channel=0 note=63 velocity=41 time=0
note_on channel=0 note=63 velocity=0 time=120
note_on channel=0 note=67 velocity=0 time=0
note_on channel=0 note=75 velocity=0 time=0
note_on channel=0 note=61 velocity=0 time=0
note_on channel=0 note=67 velocity=50 time=120
note_on channel=0 note=75 velocity=50 time=0
note_on channel=0 note=61 velocity=41 time=0
note_on channel=0 note=63 velocity=41 time=0
note_on channel=0 note=63 velocity=0 time=120
note_on channel=0 note=67 velocity=0 time=0
note_on channel=0 note=75 velocity=0 time=0
note_on channel=0 note=61 velocity=0 time=0
note_on channel=0 note=67 velocity=51 time=120
note_on channel=0 note=75 velocity=51 time=0
note_on channel=0 note=63 velocity=41 time=0
note_on channel=0 note=61 velocity=41 time=0
note_on channel=0 note=61 velocity=0 time=120
note_on channel=0 note=67 velocity=0 time=0
note_on channel=0 note=75 velocity=0 time=0
note_on channel=0 note=63 velocity=0 time=0
note_on channel=0 note=75 velocity=51 time=120
note_on channel=0 note=67 velocity=51 time=0
note_on channel=0 note=61 velocity=41 time=0
note_on channel=0 note=63 velocity=41 time=0
note_on channel=0 note=63 velocity=0 time=120
note_on channel=0 note=75 velocity=0 time=0
note_on channel=0 note=67 velocity=0 time=0
note_on channel=0 note=61 velocity=0 time=0
note_on channel=0 note=75 velocity=51 time=120
note_on channel=0 note=68 velocity=51 time=0
note_on channel=0 note=63 velocity=41 time=0
note_on channel=0 note=59 velocity=41 time=0
note_on channel=0 note=59 velocity=0 time=120
note_on channel=0 note=75 velocity=0 time=0
note_on channel=0 note=68 velocity=0 time=0
note_on channel=0 note=63 velocity=0 time=0
note_on channel=0 note=70 velocity=50 time=120
note_on channel=0 note=75 velocity=50 time=0
note_on channel=0 note=58 velocity=40 time=0
note_on channel=0 note=63 velocity=40 time=0
note_on channel=0 note=63 velocity=0 time=120
note_on channel=0 note=70 velocity=0 time=0
note_on channel=0 note=75 velocity=0 time=0
note_on channel=0 note=58 velocity=0 time=0
note_on channel=0 note=71 velocity=58 time=120
note_on channel=0 note=75 velocity=58 time=0
note_on channel=0 note=56 velocity=47 time=0
note_on channel=0 note=44 velocity=47 time=0
note_on channel=0 note=44 velocity=0 time=0
note_on channel=0 note=71 velocity=0 time=0
note_on channel=0 note=75 velocity=0 time=0
note_on channel=0 note=56 velocity=0 time=0
note_on channel=0 note=71 velocity=50 time=0
note_on channel=0 note=63 velocity=50 time=0
note_on channel=0 note=56 velocity=42 time=0
note_on channel=0 note=56 velocity=0 time=120
note_on channel=0 note=63 velocity=0 time=0
note_on channel=0 note=71 velocity=0 time=0
note_on channel=0 note=71 velocity=50 time=120
note_on channel=0 note=63 velocity=50 time=0
note_on channel=0 note=56 velocity=42 time=0
note_on channel=0 note=56 velocity=0 time=120
note_on channel=0 note=63 velocity=0 time=0
note_on channel=0 note=71 velocity=0 time=0
note_on channel=0 note=63 velocity=50 time=0
note_on channel=0 note=71 velocity=50 time=0
note_on channel=0 note=56 velocity=42 time=0
note_on channel=0 note=56 velocity=0 time=120
note_on channel=0 note=71 velocity=0 time=0
note_on channel=0 note=63 velocity=0 time=0
note_on channel=0 note=71 velocity=50 time=120
note_on channel=0 note=63 velocity=50 time=0
note_on channel=0 note=56 velocity=43 time=0
note_on channel=0 note=56 velocity=0 time=120
note_on channel=0 note=63 velocity=0 time=0
note_on channel=0 note=71 velocity=0 time=0
note_on channel=0 note=71 velocity=50 time=40
note_on channel=0 note=63 velocity=50 time=0
note_on channel=0 note=56 velocity=42 time=0
note_on channel=0 note=56 velocity=0 time=120
note_on channel=0 note=63 velocity=0 time=0
note_on channel=0 note=71 velocity=0 time=0
note_on channel=0 note=70 velocity=50 time=120
note_on channel=0 note=63 velocity=50 time=0
note_on channel=0 note=58 velocity=43 time=0
note_on channel=0 note=58 velocity=0 time=120
note_on channel=0 note=63 velocity=0 time=0
note_on channel=0 note=70 velocity=0 time=0
note_on channel=0 note=63 velocity=48 time=80
note_on channel=0 note=68 velocity=48 time=0
note_on channel=0 note=59 velocity=43 time=0
note_on channel=0 note=59 velocity=0 time=120
note_on channel=0 note=68 velocity=0 time=0
note_on channel=0 note=63 velocity=0 time=0
note_on channel=0 note=63 velocity=58 time=120
note_on channel=0 note=67 velocity=58 time=0
note_on channel=0 note=61 velocity=47 time=0
note_on channel=0 note=51 velocity=47 time=0
note_on channel=0 note=51 velocity=0 time=0
note_on channel=0 note=63 velocity=0 time=0
note_on channel=0 note=67 velocity=0 time=0
note_on channel=0 note=61 velocity=0 time=0
note_on channel=0 note=75 velocity=49 time=0
note_on channel=0 note=67 velocity=49 time=0
note_on channel=0 note=61 velocity=41 time=0
note_on channel=0 note=63 velocity=41 time=0
note_on channel=0 note=63 velocity=0 time=120
note_on channel=0 note=75 velocity=0 time=0
note_on channel=0 note=67 velocity=0 time=0
note_on channel=0 note=61 velocity=0 time=0
note_on channel=0 note=67 velocity=49 time=120
note_on channel=0 note=75 velocity=49 time=0
note_on channel=0 note=61 velocity=43 time=0
note_on channel=0 note=63 velocity=43 time=0
note_on channel=0 note=63 velocity=0 time=120
note_on channel=0 note=67 velocity=0 time=0
note_on channel=0 note=75 velocity=0 time=0
note_on channel=0 note=61 velocity=0 time=0
note_on channel=0 note=67 velocity=51 time=120
note_on channel=0 note=75 velocity=51 time=0
note_on channel=0 note=63 velocity=42 time=0
note_on channel=0 note=61 velocity=42 time=0
note_on channel=0 note=61 velocity=0 time=120
note_on channel=0 note=67 velocity=0 time=0
note_on channel=0 note=75 velocity=0 time=0
note_on channel=0 note=63 velocity=0 time=0
note_on channel=0 note=67 velocity=49 time=120
note_on channel=0 note=75 velocity=49 time=0
note_on channel=0 note=61 velocity=42 time=0
note_on channel=0 note=63 velocity=42 time=0
note_on channel=0 note=63 velocity=0 time=120
note_on channel=0 note=67 velocity=0 time=0
note_on channel=0 note=75 velocity=0 time=0
note_on channel=0 note=61 velocity=0 time=0
note_on channel=0 note=75 velocity=49 time=120
note_on channel=0 note=67 velocity=49 time=0
note_on channel=0 note=63 velocity=42 time=0
note_on channel=0 note=61 velocity=42 time=0
note_on channel=0 note=61 velocity=0 time=120
note_on channel=0 note=75 velocity=0 time=0
note_on channel=0 note=67 velocity=0 time=0
note_on channel=0 note=63 velocity=0 time=0
note_on channel=0 note=68 velocity=50 time=120
note_on channel=0 note=75 velocity=50 time=0
note_on channel=0 note=59 velocity=42 time=0
note_on channel=0 note=63 velocity=42 time=0
note_on channel=0 note=63 velocity=0 time=120
note_on channel=0 note=68 velocity=0 time=0
note_on channel=0 note=75 velocity=0 time=0
note_on channel=0 note=59 velocity=0 time=0
note_on channel=0 note=70 velocity=51 time=120
note_on channel=0 note=75 velocity=51 time=0
note_on channel=0 note=63 velocity=42 time=0
note_on channel=0 note=58 velocity=42 time=0
note_on channel=0 note=58 velocity=0 time=120
note_on channel=0 note=70 velocity=0 time=0
note_on channel=0 note=75 velocity=0 time=0
note_on channel=0 note=63 velocity=0 time=0
note_on channel=0 note=71 velocity=56 time=0
note_on channel=0 note=75 velocity=56 time=0
note_on channel=0 note=44 velocity=48 time=0
note_on channel=0 note=44 velocity=0 time=120
note_on channel=0 note=75 velocity=0 time=0
note_on channel=0 note=71 velocity=0 time=0
note_on channel=0 note=75 velocity=50 time=0
note_on channel=0 note=71 velocity=50 time=0
note_on channel=0 note=59 velocity=39 time=0
note_on channel=0 note=56 velocity=39 time=0
note_on channel=0 note=56 velocity=0 time=120
note_on channel=0 note=75 velocity=0 time=0
note_on channel=0 note=71 velocity=0 time=0
note_on channel=0 note=59 velocity=0 time=0
note_on channel=0 note=75 velocity=50 time=120
note_on channel=0 note=71 velocity=50 time=0
note_on channel=0 note=56 velocity=39 time=0
note_on channel=0 note=59 velocity=39 time=0
control_change channel=0 control=64 value=127 time=78
note_on channel=0 note=59 velocity=0 time=162
note_on channel=0 note=75 velocity=0 time=0
note_on channel=0 note=71 velocity=0 time=0
note_on channel=0 note=56 velocity=0 time=0
note_on channel=0 note=68 velocity=47 time=0
note_on channel=0 note=71 velocity=47 time=0
note_on channel=0 note=63 velocity=39 time=0
note_on channel=0 note=59 velocity=39 time=0
control_change channel=0 control=64 value=0 time=57
note_on channel=0 note=59 velocity=0 time=0
note_on channel=0 note=68 velocity=0 time=0
note_on channel=0 note=71 velocity=0 time=0
note_on channel=0 note=63 velocity=0 time=0
note_on channel=0 note=49 velocity=47 time=0
note_on channel=0 note=49 velocity=0 time=120
note_on channel=0 note=76 velocity=50 time=0
note_on channel=0 note=73 velocity=50 time=0
note_on channel=0 note=61 velocity=43 time=0
note_on channel=0 note=56 velocity=43 time=0
note_on channel=0 note=56 velocity=0 time=120
note_on channel=0 note=76 velocity=0 time=0
note_on channel=0 note=73 velocity=0 time=0
note_on channel=0 note=61 velocity=0 time=0
note_on channel=0 note=73 velocity=50 time=120
note_on channel=0 note=76 velocity=50 time=0
note_on channel=0 note=61 velocity=43 time=0
note_on channel=0 note=56 velocity=43 time=0
control_change channel=0 control=64 value=127 time=85
note_on channel=0 note=56 velocity=0 time=155
note_on channel=0 note=73 velocity=0 time=0
note_on channel=0 note=76 velocity=0 time=0
note_on channel=0 note=61 velocity=0 time=0
note_on channel=0 note=73 velocity=48 time=0
note_on channel=0 note=68 velocity=48 time=0
note_on channel=0 note=64 velocity=40 time=0
note_on channel=0 note=61 velocity=40 time=0
control_change channel=0 control=64 value=0 time=106
note_on channel=0 note=61 velocity=0 time=0
note_on channel=0 note=73 velocity=0 time=0
note_on channel=0 note=68 velocity=0 time=0
note_on channel=0 note=64 velocity=0 time=0
note_on channel=0 note=51 velocity=47 time=0
note_on channel=0 note=51 velocity=0 time=120
note_on channel=0 note=75 velocity=47 time=0
note_on channel=0 note=71 velocity=47 time=0
note_on channel=0 note=56 velocity=41 time=0
note_on channel=0 note=59 velocity=41 time=0
note_on channel=0 note=59 velocity=0 time=120
note_on channel=0 note=75 velocity=0 time=0
note_on channel=0 note=71 velocity=0 time=0
note_on channel=0 note=56 velocity=0 time=0
note_on channel=0 note=71 velocity=47 time=120
note_on channel=0 note=75 velocity=47 time=0
note_on channel=0 note=59 velocity=42 time=0
note_on channel=0 note=56 velocity=42 time=0
control_change channel=0 control=64 value=127 time=46
note_on channel=0 note=56 velocity=0 time=194
note_on channel=0 note=71 velocity=0 time=0
note_on channel=0 note=75 velocity=0 time=0
note_on channel=0 note=59 velocity=0 time=0
note_on channel=0 note=71 velocity=44 time=0
note_on channel=0 note=68 velocity=44 time=0
note_on channel=0 note=63 velocity=39 time=0
note_on channel=0 note=59 velocity=39 time=0
control_change channel=0 control=64 value=0 time=107
note_on channel=0 note=59 velocity=0 time=0
note_on channel=0 note=71 velocity=0 time=0
note_on channel=0 note=68 velocity=0 time=0
note_on channel=0 note=63 velocity=0 time=0
note_on channel=0 note=51 velocity=47 time=0
note_on channel=0 note=51 velocity=0 time=120
note_on channel=0 note=70 velocity=49 time=0
note_on channel=0 note=75 velocity=49 time=0
note_on channel=0 note=58 velocity=39 time=0
note_on channel=0 note=55 velocity=39 time=0
note_on channel=0 note=55 velocity=0 time=120
note_on channel=0 note=70 velocity=0 time=0
note_on channel=0 note=75 velocity=0 time=0
note_on channel=0 note=58 velocity=0 time=0
note_on channel=0 note=70 velocity=47 time=120
note_on channel=0 note=75 velocity=47 time=0
note_on channel=0 note=58 velocity=39 time=0
note_on channel=0 note=55 velocity=39 time=0
control_change channel=0 control=64 value=127 time=62
note_on channel=0 note=55 velocity=0 time=178
note_on channel=0 note=70 velocity=0 time=0
note_on channel=0 note=75 velocity=0 time=0
note_on channel=0 note=58 velocity=0 time=0
note_on channel=0 note=70 velocity=45 time=0
note_on channel=0 note=67 velocity=45 time=0
note_on channel=0 note=58 velocity=39 time=0
note_on channel=0 note=63 velocity=39 time=0
control_change channel=0 control=64 value=0 time=117
note_on channel=0 note=63 velocity=0 time=0
note_on channel=0 note=70 velocity=0 time=0
note_on channel=0 note=67 velocity=0 time=0
note_on channel=0 note=58 velocity=0 time=0
note_on channel=0 note=71 velocity=49 time=0
note_on channel=0 note=68 velocity=49 time=0
note_on channel=0 note=32 velocity=42 time=0
note_on channel=0 note=44 velocity=42 time=0
note_on channel=0 note=44 velocity=0 time=0
note_on channel=0 note=71 velocity=0 time=0
note_on channel=0 note=68 velocity=0 time=0
note_on channel=0 note=32 velocity=0 time=0
note_on channel=0 note=71 velocity=43 time=0
note_on channel=0 note=75 velocity=51 time=0
note_on channel=0 note=83 velocity=51 time=0
note_on channel=0 note=51 velocity=41 time=0
note_on channel=0 note=44 velocity=41 time=0
control_change channel=0 control=64 value=127 time=92
note_on channel=0 note=44 velocity=0 time=28
note_on channel=0 note=83 velocity=0 time=0
note_on channel=0 note=71 velocity=0 time=0
note_on channel=0 note=75 velocity=0 time=0
note_on channel=0 note=51 velocity=0 time=0
note_on channel=0 note=75 velocity=56 time=120
note_on channel=0 note=71 velocity=47 time=0
note_on channel=0 note=83 velocity=56 time=0
note_on channel=0 note=44 velocity=43 time=0
note_on channel=0 note=51 velocity=43 time=0
note_on channel=0 note=51 velocity=0 time=120
note_on channel=0 note=83 velocity=0 time=0
note_on channel=0 note=75 velocity=0 time=0
note_on channel=0 note=71 velocity=0 time=0
note_on channel=0 note=44 velocity=0 time=0
note_on channel=0 note=83 velocity=58 time=40
note_on channel=0 note=75 velocity=58 time=0
note_on channel=0 note=71 velocity=49 time=0
note_on channel=0 note=51 velocity=47 time=0
note_on channel=0 note=44 velocity=47 time=0
note_on channel=0 note=44 velocity=0 time=120
note_on channel=0 note=71 velocity=0 time=0
note_on channel=0 note=83 velocity=0 time=0
note_on channel=0 note=75 velocity=0 time=0
note_on channel=0 note=51 velocity=0 time=0
note_on channel=0 note=71 velocity=52 time=120
note_on channel=0 note=75 velocity=62 time=0
note_on channel=0 note=83 velocity=62 time=0
note_on channel=0 note=44 velocity=50 time=0
note_on channel=0 note=51 velocity=50 time=0
note_on channel=0 note=51 velocity=0 time=0
note_on channel=0 note=83 velocity=0 time=0
note_on channel=0 note=71 velocity=0 time=0
note_on channel=0 note=75 velocity=0 time=0
note_on channel=0 note=44 velocity=0 time=0
note_on channel=0 note=71 velocity=56 time=120
note_on channel=0 note=75 velocity=66 time=0
note_on channel=0 note=83 velocity=66 time=0
note_on channel=0 note=51 velocity=52 time=0
note_on channel=0 note=44 velocity=52 time=0
note_on channel=0 note=44 velocity=0 time=120
note_on channel=0 note=83 velocity=0 time=0
note_on channel=0 note=71 velocity=0 time=0
note_on channel=0 note=75 velocity=0 time=0
note_on channel=0 note=51 velocity=0 time=0
note_on channel=0 note=82 velocity=68 time=120
note_on channel=0 note=70 velocity=57 time=0
note_on channel=0 note=73 velocity=68 time=0
note_on channel=0 note=51 velocity=57 time=0
note_on channel=0 note=46 velocity=57 time=0
control_change channel=0 control=64 value=0 time=17
note_on channel=0 note=46 velocity=0 time=40
note_on channel=0 note=73 velocity=0 time=0
note_on channel=0 note=82 velocity=0 time=0
note_on channel=0 note=70 velocity=0 time=0
note_on channel=0 note=51 velocity=0 time=0
control_change channel=0 control=64 value=127 time=6
note_on channel=0 note=68 velocity=61 time=114
note_on channel=0 note=71 velocity=72 time=0
note_on channel=0 note=80 velocity=72 time=0
note_on channel=0 note=51 velocity=59 time=0
note_on channel=0 note=47 velocity=59 time=0
control_change channel=0 control=64 value=0 time=10
control_change channel=0 control=64 value=127 time=82
note_on channel=0 note=47 velocity=0 time=28
note_on channel=0 note=80 velocity=0 time=0
note_on channel=0 note=68 velocity=0 time=0
note_on channel=0 note=71 velocity=0 time=0
note_on channel=0 note=51 velocity=0 time=0
note_on channel=0 note=67 velocity=63 time=0
note_on channel=0 note=70 velocity=75 time=0
note_on channel=0 note=79 velocity=75 time=0
note_on channel=0 note=51 velocity=62 time=0
note_on channel=0 note=49 velocity=62 time=0
note_on channel=0 note=39 velocity=52 time=0
control_change channel=0 control=64 value=0 time=3
control_change channel=0 control=64 value=127 time=69
note_on channel=0 note=39 velocity=0 time=0
note_on channel=0 note=70 velocity=0 time=0
note_on channel=0 note=79 velocity=0 time=0
note_on channel=0 note=67 velocity=0 time=0
note_on channel=0 note=49 velocity=0 time=0
note_on channel=0 note=51 velocity=0 time=0
note_on channel=0 note=79 velocity=76 time=0
note_on channel=0 note=76 velocity=64 time=0
note_on channel=0 note=88 velocity=76 time=0
note_on channel=0 note=51 velocity=62 time=0
note_on channel=0 note=61 velocity=62 time=0
control_change channel=0 control=64 value=0 time=18
control_change channel=0 control=64 value=127 time=99
note_on channel=0 note=61 velocity=0 time=3
note_on channel=0 note=88 velocity=0 time=0
note_on channel=0 note=79 velocity=0 time=0
note_on channel=0 note=76 velocity=0 time=0
note_on channel=0 note=51 velocity=0 time=0
note_on channel=0 note=79 velocity=82 time=120
note_on channel=0 note=88 velocity=82 time=0
note_on channel=0 note=76 velocity=69 time=0
note_on channel=0 note=51 velocity=67 time=0
note_on channel=0 note=61 velocity=67 time=0
note_on channel=0 note=61 velocity=0 time=120
note_on channel=0 note=76 velocity=0 time=0
note_on channel=0 note=79 velocity=0 time=0
note_on channel=0 note=88 velocity=0 time=0
note_on channel=0 note=51 velocity=0 time=0
note_on channel=0 note=76 velocity=67 time=120
note_on channel=0 note=88 velocity=79 time=0
note_on channel=0 note=79 velocity=79 time=0
note_on channel=0 note=61 velocity=63 time=0
note_on channel=0 note=51 velocity=63 time=0
note_on channel=0 note=51 velocity=0 time=120
note_on channel=0 note=79 velocity=0 time=0
note_on channel=0 note=76 velocity=0 time=0
note_on channel=0 note=88 velocity=0 time=0
note_on channel=0 note=61 velocity=0 time=0
note_on channel=0 note=88 velocity=82 time=120
note_on channel=0 note=79 velocity=82 time=0
note_on channel=0 note=76 velocity=69 time=0
note_on channel=0 note=51 velocity=66 time=0
note_on channel=0 note=61 velocity=66 time=0
note_on channel=0 note=61 velocity=0 time=120
note_on channel=0 note=76 velocity=0 time=0
note_on channel=0 note=88 velocity=0 time=0
note_on channel=0 note=79 velocity=0 time=0
note_on channel=0 note=51 velocity=0 time=0
note_on channel=0 note=88 velocity=78 time=120
note_on channel=0 note=79 velocity=78 time=0
note_on channel=0 note=76 velocity=66 time=0
note_on channel=0 note=61 velocity=62 time=0
note_on channel=0 note=51 velocity=62 time=0
note_on channel=0 note=51 velocity=0 time=120
note_on channel=0 note=76 velocity=0 time=0
note_on channel=0 note=88 velocity=0 time=0
note_on channel=0 note=79 velocity=0 time=0
note_on channel=0 note=61 velocity=0 time=0
note_on channel=0 note=79 velocity=80 time=0
note_on channel=0 note=75 velocity=68 time=0
note_on channel=0 note=87 velocity=80 time=0
note_on channel=0 note=59 velocity=67 time=0
note_on channel=0 note=51 velocity=67 time=0
control_change channel=0 control=64 value=0 time=10
control_change channel=0 control=64 value=127 time=81
note_on channel=0 note=51 velocity=0 time=29
note_on channel=0 note=87 velocity=0 time=0
note_on channel=0 note=79 velocity=0 time=0
note_on channel=0 note=75 velocity=0 time=0
note_on channel=0 note=59 velocity=0 time=0
note_on channel=0 note=79 velocity=78 time=120
note_on channel=0 note=73 velocity=66 time=0
note_on channel=0 note=85 velocity=78 time=0
note_on channel=0 note=58 velocity=63 time=0
note_on channel=0 note=51 velocity=63 time=0
control_change channel=0 control=64 value=0 time=10
control_change channel=0 control=64 value=127 time=62
note_on channel=0 note=51 velocity=0 time=48
note_on channel=0 note=85 velocity=0 time=0
note_on channel=0 note=79 velocity=0 time=0
note_on channel=0 note=73 velocity=0 time=0
note_on channel=0 note=58 velocity=0 time=0
note_on channel=0 note=71 velocity=69 time=0
note_on channel=0 note=80 velocity=82 time=0
note_on channel=0 note=83 velocity=82 time=0
note_on channel=0 note=32 velocity=69 time=0
note_on channel=0 note=44 velocity=69 time=0
control_change channel=0 control=64 value=0 time=9
control_change channel=0 control=64 value=127 time=94
note_on channel=0 note=44 velocity=0 time=40
note_on channel=0 note=83 velocity=0 time=0
note_on channel=0 note=71 velocity=0 time=0
note_on channel=0 note=80 velocity=0 time=0
note_on channel=0 note=32 velocity=0 time=0
note_on channel=0 note=71 velocity=41 time=0
note_on channel=0 note=75 velocity=49 time=0
note_on channel=0 note=83 velocity=49 time=0
note_on channel=0 note=51 velocity=41 time=0
note_on channel=0 note=44 velocity=41 time=0
control_change channel=0 control=64 value=0 time=15
note_on channel=0 note=44 velocity=0 time=105
note_on channel=0 note=83 velocity=0 time=0
note_on channel=0 note=71 velocity=0 time=0
note_on channel=0 note=75 velocity=0 time=0
note_on channel=0 note=51 velocity=0 time=0
control_change channel=0 control=64 value=127 time=6
note_on channel=0 note=75 velocity=52 time=114
note_on channel=0 note=83 velocity=52 time=0
note_on channel=0 note=71 velocity=44 time=0
note_on channel=0 note=51 velocity=44 time=0
note_on channel=0 note=44 velocity=44 time=0
note_on channel=0 note=44 velocity=0 time=120
note_on channel=0 note=71 velocity=0 time=0
note_on channel=0 note=75 velocity=0 time=0
note_on channel=0 note=83 velocity=0 time=0
note_on channel=0 note=51 velocity=0 time=0
note_on channel=0 note=71 velocity=48 time=80
note_on channel=0 note=75 velocity=57 time=0
note_on channel=0 note=83 velocity=57 time=0
note_on channel=0 note=44 velocity=48 time=0
note_on channel=0 note=51 velocity=48 time=0
note_on channel=0 note=51 velocity=0 time=120
note_on channel=0 note=83 velocity=0 time=0
note_on channel=0 note=71 velocity=0 time=0
note_on channel=0 note=75 velocity=0 time=0
note_on channel=0 note=44 velocity=0 time=0
note_on channel=0 note=75 velocity=61 time=120
note_on channel=0 note=83 velocity=61 time=0
note_on channel=0 note=71 velocity=51 time=0
note_on channel=0 note=51 velocity=51 time=0
note_on channel=0 note=44 velocity=51 time=0
note_on channel=0 note=44 velocity=0 time=0
note_on channel=0 note=71 velocity=0 time=0
note_on channel=0 note=75 velocity=0 time=0
note_on channel=0 note=83 velocity=0 time=0
note_on channel=0 note=51 velocity=0 time=0
note_on channel=0 note=83 velocity=66 time=120
note_on channel=0 note=71 velocity=56 time=0
note_on channel=0 note=75 velocity=66 time=0
note_on channel=0 note=51 velocity=56 time=0
note_on channel=0 note=44 velocity=56 time=0
note_on channel=0 note=44 velocity=0 time=120
note_on channel=0 note=75 velocity=0 time=0
note_on channel=0 note=83 velocity=0 time=0
note_on channel=0 note=71 velocity=0 time=0
note_on channel=0 note=51 velocity=0 time=0
note_on channel=0 note=70 velocity=58 time=120
note_on channel=0 note=82 velocity=69 time=0
note_on channel=0 note=73 velocity=69 time=0
note_on channel=0 note=46 velocity=58 time=0
note_on channel=0 note=51 velocity=58 time=0
control_change channel=0 control=64 value=0 time=12
note_on channel=0 note=51 velocity=0 time=40
note_on channel=0 note=73 velocity=0 time=0
note_on channel=0 note=70 velocity=0 time=0
note_on channel=0 note=82 velocity=0 time=0
note_on channel=0 note=46 velocity=0 time=0
control_change channel=0 control=64 value=127 time=6
note_on channel=0 note=68 velocity=62 time=114
note_on channel=0 note=71 velocity=73 time=0
note_on channel=0 note=80 velocity=73 time=0
note_on channel=0 note=51 velocity=62 time=0
note_on channel=0 note=47 velocity=62 time=0
control_change channel=0 control=64 value=0 time=15
control_change channel=0 control=64 value=127 time=100
note_on channel=0 note=47 velocity=0 time=5
note_on channel=0 note=80 velocity=0 time=0
note_on channel=0 note=68 velocity=0 time=0
note_on channel=0 note=71 velocity=0 time=0
note_on channel=0 note=51 velocity=0 time=0
note_on channel=0 note=67 velocity=66 time=0
note_on channel=0 note=70 velocity=78 time=0
note_on channel=0 note=79 velocity=78 time=0
note_on channel=0 note=39 velocity=66 time=0
note_on channel=0 note=49 velocity=66 time=0
note_on channel=0 note=51 velocity=66 time=0
control_change channel=0 control=64 value=0 time=0
control_change channel=0 control=64 value=127 time=85
note_on channel=0 note=51 velocity=0 time=0
note_on channel=0 note=70 velocity=0 time=0
note_on channel=0 note=79 velocity=0 time=0
note_on channel=0 note=67 velocity=0 time=0
note_on channel=0 note=49 velocity=0 time=0
note_on channel=0 note=39 velocity=0 time=0
note_on channel=0 note=79 velocity=79 time=0
note_on channel=0 note=88 velocity=79 time=0
note_on channel=0 note=76 velocity=67 time=0
note_on channel=0 note=51 velocity=63 time=0
note_on channel=0 note=61 velocity=63 time=0
note_on channel=0 note=61 velocity=0 time=0
note_on channel=0 note=76 velocity=0 time=0
note_on channel=0 note=79 velocity=0 time=0
note_on channel=0 note=88 velocity=0 time=0
note_on channel=0 note=51 velocity=0 time=0
note_on channel=0 note=79 velocity=81 time=0
note_on channel=0 note=76 velocity=68 time=0
note_on channel=0 note=88 velocity=81 time=0
note_on channel=0 note=51 velocity=67 time=0
note_on channel=0 note=61 velocity=67 time=0
note_on channel=0 note=61 velocity=0 time=0
note_on channel=0 note=88 velocity=0 time=0
note_on channel=0 note=79 velocity=0 time=0
note_on channel=0 note=76 velocity=0 time=0
note_on channel=0 note=51 velocity=0 time=0
note_on channel=0 note=76 velocity=66 time=0
note_on channel=0 note=88 velocity=78 time=0
note_on channel=0 note=79 velocity=78 time=0
note_on channel=0 note=61 velocity=62 time=0
note_on channel=0 note=51 velocity=62 time=0
note_on channel=0 note=51 velocity=0 time=0
note_on channel=0 note=79 velocity=0 time=0
note_on channel=0 note=76 velocity=0 time=0
note_on channel=0 note=88 velocity=0 time=0
note_on channel=0 note=61 velocity=0 time=0
note_on channel=0 note=79 velocity=82 time=0
note_on channel=0 note=76 velocity=69 time=0
note_on channel=0 note=88 velocity=82 time=0
note_on channel=0 note=51 velocity=67 time=0
note_on channel=0 note=61 velocity=67 time=0
note_on channel=0 note=61 velocity=0 time=0
note_on channel=0 note=88 velocity=0 time=0
note_on channel=0 note=79 velocity=0 time=0
note_on channel=0 note=76 velocity=0 time=0
note_on channel=0 note=51 velocity=0 time=0
note_on channel=0 note=76 velocity=66 time=0
note_on channel=0 note=88 velocity=78 time=0
note_on channel=0 note=79 velocity=78 time=0
note_on channel=0 note=61 velocity=63 time=0
note_on channel=0 note=51 velocity=63 time=0
note_on channel=0 note=51 velocity=0 time=0
note_on channel=0 note=79 velocity=0 time=0
note_on channel=0 note=76 velocity=0 time=0
note_on channel=0 note=88 velocity=0 time=0
note_on channel=0 note=61 velocity=0 time=0
note_on channel=0 note=87 velocity=79 time=0
note_on channel=0 note=79 velocity=79 time=0
note_on channel=0 note=75 velocity=67 time=0
note_on channel=0 note=59 velocity=67 time=0
note_on channel=0 note=51 velocity=67 time=0
control_change channel=0 control=64 value=0 time=14
control_change channel=0 control=64 value=127 time=58
note_on channel=0 note=51 velocity=0 time=0
note_on channel=0 note=75 velocity=0 time=0
note_on channel=0 note=87 velocity=0 time=0
note_on channel=0 note=79 velocity=0 time=0
note_on channel=0 note=59 velocity=0 time=0
note_on channel=0 note=85 velocity=79 time=0
note_on channel=0 note=73 velocity=67 time=0
note_on channel=0 note=79 velocity=79 time=0
note_on channel=0 note=58 velocity=67 time=0
note_on channel=0 note=51 velocity=67 time=0
control_change channel=0 control=64 value=0 time=11
control_change channel=0 control=64 value=127 time=74
note_on channel=0 note=51 velocity=0 time=0
note_on channel=0 note=79 velocity=0 time=0
note_on channel=0 note=85 velocity=0 time=0
note_on channel=0 note=73 velocity=0 time=0
note_on channel=0 note=58 velocity=0 time=0
note_on channel=0 note=80 velocity=82 time=0
note_on channel=0 note=83 velocity=82 time=0
note_on channel=0 note=71 velocity=69 time=0
note_on channel=0 note=44 velocity=69 time=0
note_on channel=0 note=56 velocity=69 time=0
control_change channel=0 control=64 value=0 time=7
note_on channel=0 note=56 velocity=0 time=0
note_on channel=0 note=71 velocity=0 time=0
note_on channel=0 note=80 velocity=0 time=0
note_on channel=0 note=83 velocity=0 time=0
note_on channel=0 note=44 velocity=0 time=0
note_on channel=0 note=83 velocity=50 time=0
note_on channel=0 note=80 velocity=50 time=0
note_on channel=0 note=59 velocity=43 time=0
note_on channel=0 note=63 velocity=43 time=0
note_on channel=0 note=63 velocity=0 time=120
note_on channel=0 note=83 velocity=0 time=0
note_on channel=0 note=80 velocity=0 time=0
note_on channel=0 note=59 velocity=0 time=0
note_on channel=0 note=83 velocity=50 time=120
note_on channel=0 note=80 velocity=50 time=0
note_on channel=0 note=59 velocity=41 time=0
note_on channel=0 note=63 velocity=41 time=0
control_change channel=0 control=64 value=127 time=64
note_on channel=0 note=63 velocity=0 time=176
note_on channel=0 note=83 velocity=0 time=0
note_on channel=0 note=80 velocity=0 time=0
note_on channel=0 note=59 velocity=0 time=0
note_on channel=0 note=87 velocity=48 time=0
note_on channel=0 note=83 velocity=48 time=0
note_on channel=0 note=56 velocity=39 time=0
note_on channel=0 note=59 velocity=39 time=0
control_change channel=0 control=64 value=0 time=92
note_on channel=0 note=59 velocity=0 time=0
note_on channel=0 note=87 velocity=0 time=0
note_on channel=0 note=83 velocity=0 time=0
note_on channel=0 note=56 velocity=0 time=0
note_on channel=0 note=49 velocity=48 time=0
note_on channel=0 note=49 velocity=0 time=120
note_on channel=0 note=85 velocity=49 time=0
note_on channel=0 note=80 velocity=49 time=0
note_on channel=0 note=64 velocity=42 time=0
note_on channel=0 note=61 velocity=42 time=0
note_on channel=0 note=61 velocity=0 time=120
note_on channel=0 note=85 velocity=0 time=0
note_on channel=0 note=80 velocity=0 time=0
note_on channel=0 note=64 velocity=0 time=0
note_on channel=0 note=85 velocity=49 time=120
note_on channel=0 note=80 velocity=49 time=0
note_on channel=0 note=64 velocity=42 time=0
note_on channel=0 note=61 velocity=42 time=0
control_change channel=0 control=64 value=127 time=92
note_on channel=0 note=61 velocity=0 time=148
note_on channel=0 note=85 velocity=0 time=0
note_on channel=0 note=80 velocity=0 time=0
note_on channel=0 note=64 velocity=0 time=0
note_on channel=0 note=88 velocity=48 time=0
note_on channel=0 note=85 velocity=48 time=0
note_on channel=0 note=61 velocity=39 time=0
note_on channel=0 note=56 velocity=39 time=0
control_change channel=0 control=64 value=0 time=106
note_on channel=0 note=56 velocity=0 time=0
note_on channel=0 note=88 velocity=0 time=0
note_on channel=0 note=85 velocity=0 time=0
note_on channel=0 note=61 velocity=0 time=0
note_on channel=0 note=51 velocity=48 time=0
note_on channel=0 note=51 velocity=0 time=120
note_on channel=0 note=80 velocity=49 time=0
note_on channel=0 note=83 velocity=49 time=0
note_on channel=0 note=59 velocity=42 time=0
note_on channel=0 note=63 velocity=42 time=0
note_on channel=0 note=63 velocity=0 time=120
note_on channel=0 note=80 velocity=0 time=0
note_on channel=0 note=83 velocity=0 time=0
note_on channel=0 note=59 velocity=0 time=0
note_on channel=0 note=83 velocity=49 time=120
note_on channel=0 note=80 velocity=49 time=0
note_on channel=0 note=59 velocity=42 time=0
note_on channel=0 note=63 velocity=42 time=0
control_change channel=0 control=64 value=127 time=75
note_on channel=0 note=63 velocity=0 time=165
note_on channel=0 note=83 velocity=0 time=0
note_on channel=0 note=80 velocity=0 time=0
note_on channel=0 note=59 velocity=0 time=0
note_on channel=0 note=87 velocity=48 time=0
note_on channel=0 note=83 velocity=48 time=0
note_on channel=0 note=56 velocity=39 time=0
note_on channel=0 note=59 velocity=39 time=0
control_change channel=0 control=64 value=0 time=185
note_on channel=0 note=59 velocity=0 time=0
note_on channel=0 note=87 velocity=0 time=0
note_on channel=0 note=83 velocity=0 time=0
note_on channel=0 note=56 velocity=0 time=0
note_on channel=0 note=49 velocity=49 time=0
note_on channel=0 note=49 velocity=0 time=120
note_on channel=0 note=82 velocity=51 time=0
note_on channel=0 note=79 velocity=51 time=0
note_on channel=0 note=63 velocity=42 time=0
note_on channel=0 note=58 velocity=42 time=0
note_on channel=0 note=58 velocity=0 time=120
note_on channel=0 note=82 velocity=0 time=0
note_on channel=0 note=79 velocity=0 time=0
note_on channel=0 note=63 velocity=0 time=0
note_on channel=0 note=82 velocity=51 time=120
note_on channel=0 note=79 velocity=51 time=0
note_on channel=0 note=63 velocity=42 time=0
note_on channel=0 note=58 velocity=42 time=0
control_change channel=0 control=64 value=127 time=26
note_on channel=0 note=58 velocity=0 time=214
note_on channel=0 note=82 velocity=0 time=0
note_on channel=0 note=79 velocity=0 time=0
note_on channel=0 note=63 velocity=0 time=0
note_on channel=0 note=87 velocity=48 time=0
note_on channel=0 note=82 velocity=48 time=0
note_on channel=0 note=58 velocity=40 time=0
note_on channel=0 note=55 velocity=40 time=0
note_on channel=0 note=55 velocity=0 time=240
note_on channel=0 note=87 velocity=0 time=0
note_on channel=0 note=82 velocity=0 time=0
note_on channel=0 note=58 velocity=0 time=0
note_on channel=0 note=47 velocity=45 time=0
control_change channel=0 control=64 value=0 time=28
note_on channel=0 note=47 velocity=0 time=16
note_on channel=0 note=75 velocity=56 time=0
note_on channel=0 note=83 velocity=56 time=0
note_on channel=0 note=68 velocity=39 time=0
note_on channel=0 note=63 velocity=39 time=0
note_on channel=0 note=63 velocity=0 time=32
note_on channel=0 note=75 velocity=0 time=0
note_on channel=0 note=83 velocity=0 time=0
note_on channel=0 note=68 velocity=0 time=0
note_on channel=0 note=83 velocity=51 time=16
note_on channel=0 note=75 velocity=51 time=0
note_on channel=0 note=63 velocity=41 time=0
note_on channel=0 note=68 velocity=41 time=0
control_change channel=0 control=64 value=127 time=71
note_on channel=0 note=68 velocity=0 time=72
note_on channel=0 note=83 velocity=0 time=0
note_on channel=0 note=75 velocity=0 time=0
note_on channel=0 note=63 velocity=0 time=0
note_on channel=0 note=80 velocity=51 time=0
note_on channel=0 note=87 velocity=51 time=0
note_on channel=0 note=63 velocity=41 time=0
note_on channel=0 note=59 velocity=41 time=0
control_change channel=0 control=64 value=0 time=33
note_on channel=0 note=59 velocity=0 time=63
note_on channel=0 note=80 velocity=0 time=0
note_on channel=0 note=87 velocity=0 time=0
note_on channel=0 note=63 velocity=0 time=0
note_on channel=0 note=49 velocity=50 time=0
note_on channel=0 note=49 velocity=0 time=40
note_on channel=0 note=81 velocity=62 time=0
note_on channel=0 note=73 velocity=62 time=0
note_on channel=0 note=64 velocity=47 time=0
note_on channel=0 note=69 velocity=47 time=0
note_on channel=0 note=69 velocity=0 time=8
note_on channel=0 note=81 velocity=0 time=0
note_on channel=0 note=73 velocity=0 time=0
note_on channel=0 note=64 velocity=0 time=0
note_on channel=0 note=81 velocity=56 time=88
note_on channel=0 note=73 velocity=56 time=0
note_on channel=0 note=69 velocity=45 time=0
note_on channel=0 note=64 velocity=45 time=0
control_change channel=0 control=64 value=127 time=57
note_on channel=0 note=64 velocity=0 time=183
note_on channel=0 note=81 velocity=0 time=0
note_on channel=0 note=73 velocity=0 time=0
note_on channel=0 note=69 velocity=0 time=0
note_on channel=0 note=76 velocity=56 time=0
note_on channel=0 note=85 velocity=56 time=0
note_on channel=0 note=64 velocity=45 time=0
note_on channel=0 note=61 velocity=45 time=0
control_change channel=0 control=64 value=0 time=120
note_on channel=0 note=61 velocity=0 time=120
note_on channel=0 note=76 velocity=0 time=0
note_on channel=0 note=85 velocity=0 time=0
note_on channel=0 note=64 velocity=0 time=0
note_on channel=0 note=51 velocity=52 time=0
note_on channel=0 note=51 velocity=0 time=56
note_on channel=0 note=80 velocity=57 time=0
note_on channel=0 note=71 velocity=57 time=0
note_on channel=0 note=68 velocity=48 time=0
note_on channel=0 note=63 velocity=48 time=0
note_on channel=0 note=63 velocity=0 time=16
note_on channel=0 note=80 velocity=0 time=0
note_on channel=0 note=71 velocity=0 time=0
note_on channel=0 note=68 velocity=0 time=0
note_on channel=0 note=80 velocity=57 time=120
note_on channel=0 note=71 velocity=57 time=0
note_on channel=0 note=63 velocity=48 time=0
note_on channel=0 note=68 velocity=48 time=0
control_change channel=0 control=64 value=127 time=3
note_on channel=0 note=68 velocity=0 time=64
note_on channel=0 note=80 velocity=0 time=0
note_on channel=0 note=71 velocity=0 time=0
note_on channel=0 note=63 velocity=0 time=0
note_on channel=0 note=75 velocity=51 time=0
note_on channel=0 note=83 velocity=51 time=0
note_on channel=0 note=63 velocity=45 time=0
note_on channel=0 note=59 velocity=45 time=0
control_change channel=0 control=64 value=0 time=57
note_on channel=0 note=59 velocity=0 time=32
note_on channel=0 note=75 velocity=0 time=0
note_on channel=0 note=83 velocity=0 time=0
note_on channel=0 note=63 velocity=0 time=0
note_on channel=0 note=51 velocity=51 time=0
note_on channel=0 note=51 velocity=0 time=0
note_on channel=0 note=79 velocity=52 time=0
note_on channel=0 note=70 velocity=52 time=0
note_on channel=0 note=67 velocity=43 time=0
note_on channel=0 note=61 velocity=43 time=0
note_on channel=0 note=61 velocity=0 time=120
note_on channel=0 note=79 velocity=0 time=0
note_on channel=0 note=70 velocity=0 time=0
note_on channel=0 note=67 velocity=0 time=0
note_on channel=0 note=70 velocity=51 time=120
note_on channel=0 note=79 velocity=51 time=0
note_on channel=0 note=61 velocity=43 time=0
note_on channel=0 note=67 velocity=43 time=0
control_change channel=0 control=64 value=127 time=69
note_on channel=0 note=67 velocity=0 time=64
note_on channel=0 note=70 velocity=0 time=0
note_on channel=0 note=79 velocity=0 time=0
note_on channel=0 note=61 velocity=0 time=0
note_on channel=0 note=73 velocity=42 time=0
note_on channel=0 note=82 velocity=42 time=0
note_on channel=0 note=61 velocity=35 time=0
note_on channel=0 note=58 velocity=35 time=0
note_on channel=0 note=58 velocity=0 time=0
note_on channel=0 note=73 velocity=0 time=0
note_on channel=0 note=82 velocity=0 time=0
note_on channel=0 note=61 velocity=0 time=0
note_on channel=0 note=80 velocity=50 time=0
note_on channel=0 note=71 velocity=50 time=0
note_on channel=0 note=44 velocity=41 time=0
control_change channel=0 control=64 value=0 time=0
note_on channel=0 note=44 velocity=0 time=119
note_on channel=0 note=56 velocity=33 time=1
control_change channel=0 control=64 value=127 time=0
note_on channel=0 note=56 velocity=0 time=119
note_on channel=0 note=51 velocity=36 time=1
note_on channel=0 note=51 velocity=0 time=119
note_on channel=0 note=56 velocity=32 time=1
note_on channel=0 note=56 velocity=0 time=119
note_on channel=0 note=71 velocity=0 time=1
note_on channel=0 note=80 velocity=0 time=0
note_on channel=0 note=44 velocity=41 time=0
note_on channel=0 note=44 velocity=0 time=119
note_on channel=0 note=56 velocity=33 time=1
note_on channel=0 note=56 velocity=0 time=119
note_on channel=0 note=51 velocity=36 time=1
note_on channel=0 note=51 velocity=0 time=119
note_on channel=0 note=56 velocity=33 time=1
note_on channel=0 note=56 velocity=0 time=119
note_on channel=0 note=44 velocity=41 time=1
note_on channel=0 note=44 velocity=0 time=119
note_on channel=0 note=56 velocity=33 time=1
note_on channel=0 note=56 velocity=0 time=119
note_on channel=0 note=51 velocity=37 time=1
note_on channel=0 note=51 velocity=0 time=119
note_on channel=0 note=56 velocity=33 time=1
note_on channel=0 note=56 velocity=0 time=119
note_on channel=0 note=71 velocity=50 time=0
note_on channel=0 note=44 velocity=41 time=0
note_on channel=0 note=44 velocity=0 time=119
note_on channel=0 note=56 velocity=33 time=1
note_on channel=0 note=56 velocity=0 time=119
note_on channel=0 note=51 velocity=37 time=1
note_on channel=0 note=51 velocity=0 time=119
note_on channel=0 note=71 velocity=0 time=1
note_on channel=0 note=68 velocity=50 time=0
note_on channel=0 note=56 velocity=33 time=0
note_on channel=0 note=56 velocity=0 time=119
note_on channel=0 note=68 velocity=0 time=1
note_on channel=0 note=67 velocity=57 time=0
note_on channel=0 note=44 velocity=41 time=0
control_change channel=0 control=64 value=0 time=9
control_change channel=0 control=64 value=127 time=72
note_on channel=0 note=44 velocity=0 time=38
note_on channel=0 note=58 velocity=33 time=1
note_on channel=0 note=58 velocity=0 time=119
note_on channel=0 note=51 velocity=38 time=1
note_on channel=0 note=51 velocity=0 time=119
note_on channel=0 note=58 velocity=33 time=1
note_on channel=0 note=58 velocity=0 time=119
note_on channel=0 note=67 velocity=0 time=0
note_on channel=0 note=75 velocity=47 time=0
note_on channel=0 note=61 velocity=39 time=0
note_on channel=0 note=67 velocity=47 time=0
note_on channel=0 note=44 velocity=41 time=0
note_on channel=0 note=44 velocity=0 time=119
note_on channel=0 note=58 velocity=33 time=1
note_on channel=0 note=58 velocity=0 time=119
note_on channel=0 note=51 velocity=37 time=1
note_on channel=0 note=51 velocity=0 time=119
note_on channel=0 note=75 velocity=0 time=1
note_on channel=0 note=61 velocity=0 time=0
note_on channel=0 note=67 velocity=0 time=0
note_on channel=0 note=58 velocity=33 time=0
note_on channel=0 note=58 velocity=0 time=119
note_on channel=0 note=67 velocity=47 time=1
note_on channel=0 note=75 velocity=47 time=0
note_on channel=0 note=61 velocity=39 time=0
note_on channel=0 note=44 velocity=41 time=0
note_on channel=0 note=44 velocity=0 time=119
note_on channel=0 note=58 velocity=34 time=1
note_on channel=0 note=58 velocity=0 time=119
note_on channel=0 note=51 velocity=38 time=1
note_on channel=0 note=51 velocity=0 time=119
note_on channel=0 note=67 velocity=0 time=1
note_on channel=0 note=75 velocity=0 time=0
note_on channel=0 note=61 velocity=0 time=0
note_on channel=0 note=58 velocity=34 time=0
note_on channel=0 note=58 velocity=0 time=119
note_on channel=0 note=67 velocity=50 time=1
note_on channel=0 note=75 velocity=50 time=0
note_on channel=0 note=61 velocity=42 time=0
note_on channel=0 note=44 velocity=41 time=0
note_on channel=0 note=44 velocity=0 time=119
note_on channel=0 note=58 velocity=34 time=1
note_on channel=0 note=58 velocity=0 time=119
note_on channel=0 note=51 velocity=36 time=1
note_on channel=0 note=51 velocity=0 time=119
note_on channel=0 note=67 velocity=0 time=0
note_on channel=0 note=75 velocity=0 time=0
note_on channel=0 note=61 velocity=0 time=0
note_on channel=0 note=59 velocity=50 time=0
note_on channel=0 note=58 velocity=33 time=0
note_on channel=0 note=68 velocity=50 time=60
note_on channel=0 note=59 velocity=0 time=20
note_on channel=0 note=58 velocity=0 time=39
note_on channel=0 note=75 velocity=57 time=0
note_on channel=0 note=44 velocity=41 time=0
note_on channel=0 note=68 velocity=0 time=20
control_change channel=0 control=64 value=0 time=1
control_change channel=0 control=64 value=127 time=85
note_on channel=0 note=44 velocity=0 time=13
note_on channel=0 note=56 velocity=33 time=1
note_on channel=0 note=56 velocity=0 time=119
note_on channel=0 note=51 velocity=37 time=1
note_on channel=0 note=51 velocity=0 time=119
note_on channel=0 note=56 velocity=33 time=1
note_on channel=0 note=56 velocity=0 time=119
note_on channel=0 note=44 velocity=41 time=1
note_on channel=0 note=44 velocity=0 time=119
note_on channel=0 note=56 velocity=34 time=1
note_on channel=0 note=56 velocity=0 time=119
note_on channel=0 note=51 velocity=38 time=1
note_on channel=0 note=51 velocity=0 time=119
note_on channel=0 note=56 velocity=34 time=1
note_on channel=0 note=56 velocity=0 time=119
note_on channel=0 note=44 velocity=41 time=1
note_on channel=0 note=44 velocity=0 time=119
note_on channel=0 note=56 velocity=34 time=1
note_on channel=0 note=56 velocity=0 time=119
note_on channel=0 note=51 velocity=38 time=1
note_on channel=0 note=51 velocity=0 time=119
note_on channel=0 note=56 velocity=34 time=1
note_on channel=0 note=56 velocity=0 time=39
note_on channel=0 note=75 velocity=0 time=0
note_on channel=0 note=83 velocity=58 time=0
note_on channel=0 note=44 velocity=41 time=0
note_on channel=0 note=44 velocity=0 time=119
note_on channel=0 note=56 velocity=33 time=1
note_on channel=0 note=56 velocity=0 time=119
note_on channel=0 note=51 velocity=36 time=1
note_on channel=0 note=51 velocity=0 time=119
note_on channel=0 note=83 velocity=0 time=1
note_on channel=0 note=80 velocity=58 time=0
note_on channel=0 note=56 velocity=33 time=0
note_on channel=0 note=56 velocity=0 time=119
note_on channel=0 note=80 velocity=0 time=1
note_on channel=0 note=79 velocity=67 time=0
note_on channel=0 note=44 velocity=41 time=0
control_change channel=0 control=64 value=0 time=0
control_change channel=0 control=64 value=127 time=71
note_on channel=0 note=44 velocity=0 time=48
note_on channel=0 note=58 velocity=36 time=1
note_on channel=0 note=58 velocity=0 time=119
note_on channel=0 note=51 velocity=36 time=1
note_on channel=0 note=51 velocity=0 time=119
note_on channel=0 note=58 velocity=34 time=1
note_on channel=0 note=58 velocity=0 time=119
note_on channel=0 note=79 velocity=0 time=0
note_on channel=0 note=87 velocity=57 time=0
note_on channel=0 note=73 velocity=48 time=0
note_on channel=0 note=79 velocity=57 time=0
note_on channel=0 note=44 velocity=41 time=0
note_on channel=0 note=44 velocity=0 time=119
note_on channel=0 note=58 velocity=34 time=1
note_on channel=0 note=58 velocity=0 time=119
note_on channel=0 note=51 velocity=36 time=1
note_on channel=0 note=51 velocity=0 time=119
note_on channel=0 note=87 velocity=0 time=1
note_on channel=0 note=73 velocity=0 time=0
note_on channel=0 note=79 velocity=0 time=0
note_on channel=0 note=58 velocity=33 time=0
note_on channel=0 note=58 velocity=0 time=119
note_on channel=0 note=73 velocity=48 time=1
note_on channel=0 note=87 velocity=57 time=0
note_on channel=0 note=79 velocity=57 time=0
note_on channel=0 note=44 velocity=41 time=0
note_on channel=0 note=44 velocity=0 time=119
note_on channel=0 note=58 velocity=34 time=1
note_on channel=0 note=58 velocity=0 time=119
note_on channel=0 note=51 velocity=36 time=1
note_on channel=0 note=51 velocity=0 time=119
note_on channel=0 note=73 velocity=0 time=1
note_on channel=0 note=87 velocity=0 time=0
note_on channel=0 note=79 velocity=0 time=0
note_on channel=0 note=58 velocity=33 time=0
note_on channel=0 note=58 velocity=0 time=119
note_on channel=0 note=79 velocity=57 time=1
note_on channel=0 note=73 velocity=48 time=0
note_on channel=0 note=87 velocity=57 time=0
note_on channel=0 note=44 velocity=41 time=0
note_on channel=0 note=44 velocity=0 time=119
note_on channel=0 note=58 velocity=34 time=1
note_on channel=0 note=58 velocity=0 time=119
note_on channel=0 note=51 velocity=39 time=1
note_on channel=0 note=51 velocity=0 time=39
note_on channel=0 note=79 velocity=0 time=0
note_on channel=0 note=73 velocity=0 time=0
note_on channel=0 note=87 velocity=0 time=0
note_on channel=0 note=71 velocity=47 time=0
note_on channel=0 note=58 velocity=34 time=0
note_on channel=0 note=80 velocity=53 time=60
note_on channel=0 note=71 velocity=0 time=20
note_on channel=0 note=58 velocity=0 time=39
note_on channel=0 note=87 velocity=73 time=0
note_on channel=0 note=44 velocity=41 time=0
control_change channel=0 control=64 value=0 time=8
note_on channel=0 note=80 velocity=0 time=12
control_change channel=0 control=64 value=127 time=77
note_on channel=0 note=44 velocity=0 time=22
note_on channel=0 note=56 velocity=33 time=1
note_on channel=0 note=56 velocity=0 time=119
note_on channel=0 note=51 velocity=36 time=1
note_on channel=0 note=51 velocity=0 time=119
note_on channel=0 note=56 velocity=33 time=1
note_on channel=0 note=56 velocity=0 time=119
note_on channel=0 note=44 velocity=42 time=1
note_on channel=0 note=44 velocity=0 time=119
note_on channel=0 note=56 velocity=33 time=1
note_on channel=0 note=56 velocity=0 time=119
note_on channel=0 note=51 velocity=35 time=1
note_on channel=0 note=51 velocity=0 time=119
note_on channel=0 note=87 velocity=0 time=0
note_on channel=0 note=73 velocity=43 time=0
note_on channel=0 note=56 velocity=33 time=0
note_on channel=0 note=79 velocity=53 time=60
note_on channel=0 note=73 velocity=0 time=20
note_on channel=0 note=56 velocity=0 time=39
note_on channel=0 note=87 velocity=72 time=0
note_on channel=0 note=44 velocity=41 time=0
control_change channel=0 control=64 value=0 time=12
note_on channel=0 note=79 velocity=0 time=8
control_change channel=0 control=64 value=127 time=77
note_on channel=0 note=44 velocity=0 time=22
note_on channel=0 note=58 velocity=34 time=1
note_on channel=0 note=58 velocity=0 time=119
note_on channel=0 note=51 velocity=37 time=1
note_on channel=0 note=51 velocity=0 time=119
note_on channel=0 note=58 velocity=37 time=1
note_on channel=0 note=58 velocity=0 time=119
note_on channel=0 note=44 velocity=41 time=1
note_on channel=0 note=44 velocity=0 time=119
note_on channel=0 note=58 velocity=34 time=1
note_on channel=0 note=58 velocity=0 time=119
note_on channel=0 note=51 velocity=38 time=1
note_on channel=0 note=51 velocity=0 time=119
note_on channel=0 note=87 velocity=0 time=0
note_on channel=0 note=71 velocity=40 time=0
note_on channel=0 note=58 velocity=34 time=0
note_on channel=0 note=80 velocity=53 time=60
note_on channel=0 note=71 velocity=0 time=20
note_on channel=0 note=58 velocity=0 time=39
note_on channel=0 note=87 velocity=72 time=0
note_on channel=0 note=44 velocity=41 time=0
control_change channel=0 control=64 value=0 time=8
note_on channel=0 note=80 velocity=0 time=12
control_change channel=0 control=64 value=127 time=57
note_on channel=0 note=44 velocity=0 time=42
note_on channel=0 note=56 velocity=33 time=1
note_on channel=0 note=56 velocity=0 time=119
note_on channel=0 note=51 velocity=36 time=1
note_on channel=0 note=51 velocity=0 time=119
note_on channel=0 note=56 velocity=33 time=1
note_on channel=0 note=56 velocity=0 time=119
note_on channel=0 note=44 velocity=41 time=1
note_on channel=0 note=44 velocity=0 time=119
note_on channel=0 note=56 velocity=33 time=1
note_on channel=0 note=56 velocity=0 time=119
note_on channel=0 note=51 velocity=36 time=1
note_on channel=0 note=51 velocity=0 time=119
note_on channel=0 note=87 velocity=0 time=1
note_on channel=0 note=73 velocity=45 time=0
note_on channel=0 note=56 velocity=33 time=0
note_on channel=0 note=79 velocity=52 time=60
note_on channel=0 note=73 velocity=0 time=20
note_on channel=0 note=56 velocity=0 time=39
note_on channel=0 note=87 velocity=71 time=1
note_on channel=0 note=44 velocity=41 time=0
control_change channel=0 control=64 value=0 time=11
note_on channel=0 note=79 velocity=0 time=9
control_change channel=0 control=64 value=127 time=52
note_on channel=0 note=44 velocity=0 time=47
note_on channel=0 note=58 velocity=34 time=1
note_on channel=0 note=58 velocity=0 time=119
note_on channel=0 note=51 velocity=37 time=1
note_on channel=0 note=51 velocity=0 time=119
note_on channel=0 note=58 velocity=33 time=1
note_on channel=0 note=58 velocity=0 time=119
note_on channel=0 note=44 velocity=41 time=1
note_on channel=0 note=44 velocity=0 time=119
note_on channel=0 note=58 velocity=34 time=1
note_on channel=0 note=58 velocity=0 time=119
note_on channel=0 note=51 velocity=37 time=1
note_on channel=0 note=51 velocity=0 time=119
note_on channel=0 note=58 velocity=34 time=1
note_on channel=0 note=58 velocity=0 time=119
note_on channel=0 note=87 velocity=0 time=1
note_on channel=0 note=59 velocity=49 time=0
note_on channel=0 note=44 velocity=42 time=0
control_change channel=0 control=64 value=0 time=7
control_change channel=0 control=64 value=127 time=4
note_on channel=0 note=44 velocity=0 time=27
note_on channel=0 note=59 velocity=0 time=0
note_on channel=0 note=68 velocity=50 time=0
note_on channel=0 note=56 velocity=41 time=0
note_on channel=0 note=56 velocity=0 time=87
note_on channel=0 note=68 velocity=0 time=0
note_on channel=0 note=63 velocity=51 time=1
note_on channel=0 note=51 velocity=42 time=0
note_on channel=0 note=51 velocity=0 time=119
note_on channel=0 note=63 velocity=0 time=0
note_on channel=0 note=68 velocity=48 time=1
note_on channel=0 note=56 velocity=40 time=0
note_on channel=0 note=56 velocity=0 time=119
note_on channel=0 note=68 velocity=0 time=0
note_on channel=0 note=59 velocity=52 time=1
note_on channel=0 note=44 velocity=43 time=0
note_on channel=0 note=44 velocity=0 time=71
note_on channel=0 note=59 velocity=0 time=0
note_on channel=0 note=68 velocity=53 time=1
note_on channel=0 note=56 velocity=44 time=0
note_on channel=0 note=56 velocity=0 time=71
note_on channel=0 note=68 velocity=0 time=0
note_on channel=0 note=63 velocity=54 time=1
note_on channel=0 note=51 velocity=45 time=0
note_on channel=0 note=51 velocity=0 time=119
note_on channel=0 note=63 velocity=0 time=0
note_on channel=0 note=68 velocity=51 time=1
note_on channel=0 note=56 velocity=43 time=0
note_on channel=0 note=56 velocity=0 time=119
note_on channel=0 note=68 velocity=0 time=0
note_on channel=0 note=59 velocity=57 time=1
note_on channel=0 note=44 velocity=47 time=0
note_on channel=0 note=44 velocity=0 time=23
note_on channel=0 note=59 velocity=0 time=0
note_on channel=0 note=68 velocity=57 time=1
note_on channel=0 note=56 velocity=48 time=0
note_on channel=0 note=56 velocity=0 time=39
note_on channel=0 note=68 velocity=0 time=0
note_on channel=0 note=63 velocity=58 time=1
note_on channel=0 note=51 velocity=48 time=0
note_on channel=0 note=51 velocity=0 time=87
note_on channel=0 note=63 velocity=0 time=0
note_on channel=0 note=68 velocity=52 time=1
note_on channel=0 note=56 velocity=49 time=0
note_on channel=0 note=56 velocity=0 time=119
note_on channel=0 note=68 velocity=0 time=0
note_on channel=0 note=59 velocity=61 time=1
note_on channel=0 note=44 velocity=51 time=0
note_on channel=0 note=44 velocity=0 time=119
note_on channel=0 note=59 velocity=0 time=0
note_on channel=0 note=68 velocity=62 time=1
note_on channel=0 note=56 velocity=51 time=0
note_on channel=0 note=56 velocity=0 time=119
note_on channel=0 note=68 velocity=0 time=0
note_on channel=0 note=63 velocity=62 time=1
note_on channel=0 note=51 velocity=52 time=0
note_on channel=0 note=51 velocity=0 time=23
note_on channel=0 note=63 velocity=0 time=0
note_on channel=0 note=68 velocity=57 time=1
note_on channel=0 note=56 velocity=47 time=0
note_on channel=0 note=56 velocity=0 time=119
note_on channel=0 note=68 velocity=0 time=0
note_on channel=0 note=60 velocity=66 time=1
note_on channel=0 note=44 velocity=53 time=0
control_change channel=0 control=64 value=0 time=0
control_change channel=0 control=64 value=127 time=75
note_on channel=0 note=44 velocity=0 time=44
note_on channel=0 note=60 velocity=0 time=0
note_on channel=0 note=66 velocity=67 time=1
note_on channel=0 note=54 velocity=56 time=0
note_on channel=0 note=54 velocity=0 time=119
note_on channel=0 note=66 velocity=0 time=0
note_on channel=0 note=63 velocity=68 time=1
note_on channel=0 note=51 velocity=56 time=0
note_on channel=0 note=51 velocity=0 time=119
note_on channel=0 note=63 velocity=0 time=0
note_on channel=0 note=66 velocity=62 time=1
note_on channel=0 note=54 velocity=51 time=0
note_on channel=0 note=54 velocity=0 time=119
note_on channel=0 note=66 velocity=0 time=0
note_on channel=0 note=60 velocity=69 time=1
note_on channel=0 note=44 velocity=57 time=0
note_on channel=0 note=44 velocity=0 time=119
note_on channel=0 note=60 velocity=0 time=0
note_on channel=0 note=66 velocity=70 time=1
note_on channel=0 note=54 velocity=58 time=0
note_on channel=0 note=54 velocity=0 time=47
note_on channel=0 note=66 velocity=0 time=0
note_on channel=0 note=63 velocity=71 time=0
note_on channel=0 note=51 velocity=60 time=0
note_on channel=0 note=51 velocity=0 time=47
note_on channel=0 note=63 velocity=0 time=0
note_on channel=0 note=66 velocity=68 time=1
note_on channel=0 note=54 velocity=56 time=0
note_on channel=0 note=54 velocity=0 time=119
note_on channel=0 note=66 velocity=0 time=0
note_on channel=0 note=60 velocity=73 time=1
note_on channel=0 note=44 velocity=62 time=0
note_on channel=0 note=44 velocity=0 time=119
note_on channel=0 note=60 velocity=0 time=0
note_on channel=0 note=66 velocity=74 time=1
note_on channel=0 note=54 velocity=62 time=0
note_on channel=0 note=54 velocity=0 time=119
note_on channel=0 note=66 velocity=0 time=0
note_on channel=0 note=63 velocity=75 time=1
note_on channel=0 note=51 velocity=63 time=0
note_on channel=0 note=51 velocity=0 time=15
note_on channel=0 note=63 velocity=0 time=0
note_on channel=0 note=66 velocity=76 time=1
note_on channel=0 note=54 velocity=57 time=0
note_on channel=0 note=54 velocity=0 time=119
note_on channel=0 note=66 velocity=0 time=0
note_on channel=0 note=60 velocity=78 time=1
note_on channel=0 note=44 velocity=65 time=0
note_on channel=0 note=44 velocity=0 time=119
note_on channel=0 note=60 velocity=0 time=0
note_on channel=0 note=66 velocity=79 time=1
note_on channel=0 note=54 velocity=67 time=0
note_on channel=0 note=54 velocity=0 time=119
note_on channel=0 note=66 velocity=0 time=0
note_on channel=0 note=63 velocity=79 time=1
note_on channel=0 note=51 velocity=67 time=0
note_on channel=0 note=51 velocity=0 time=31
note_on channel=0 note=63 velocity=0 time=0
note_on channel=0 note=66 velocity=73 time=1
note_on channel=0 note=54 velocity=62 time=0
note_on channel=0 note=54 velocity=0 time=87
note_on channel=0 note=66 velocity=0 time=0
note_on channel=0 note=52 velocity=69 time=0
note_on channel=0 note=56 velocity=69 time=0
note_on channel=0 note=61 velocity=82 time=0
note_on channel=0 note=64 velocity=82 time=0
note_on channel=0 note=37 velocity=69 time=0
control_change channel=0 control=64 value=0 time=0
note_on channel=0 note=37 velocity=0 time=0
note_on channel=0 note=61 velocity=0 time=0
note_on channel=0 note=52 velocity=0 time=0
note_on channel=0 note=56 velocity=0 time=0
note_on channel=0 note=64 velocity=0 time=0
note_on channel=0 note=44 velocity=54 time=0
note_on channel=0 note=44 velocity=0 time=115
note_on channel=0 note=49 velocity=56 time=5
note_on channel=0 note=44 velocity=39 time=0
note_on channel=0 note=44 velocity=0 time=120
note_on channel=0 note=52 velocity=57 time=0
note_on channel=0 note=49 velocity=0 time=20
note_on channel=0 note=56 velocity=59 time=100
note_on channel=0 note=37 velocity=43 time=0
note_on channel=0 note=52 velocity=0 time=20
note_on channel=0 note=37 velocity=0 time=100
note_on channel=0 note=49 velocity=54 time=0
note_on channel=0 note=56 velocity=0 time=20
note_on channel=0 note=52 velocity=56 time=100
note_on channel=0 note=44 velocity=40 time=0
note_on channel=0 note=49 velocity=0 time=20
note_on channel=0 note=44 velocity=0 time=100
note_on channel=0 note=56 velocity=56 time=0
note_on channel=0 note=52 velocity=0 time=20
note_on channel=0 note=61 velocity=57 time=100
note_on channel=0 note=37 velocity=42 time=0
note_on channel=0 note=56 velocity=0 time=20
note_on channel=0 note=37 velocity=0 time=100
note_on channel=0 note=52 velocity=51 time=0
note_on channel=0 note=61 velocity=0 time=20
note_on channel=0 note=56 velocity=53 time=100
note_on channel=0 note=44 velocity=39 time=0
note_on channel=0 note=52 velocity=0 time=20
note_on channel=0 note=44 velocity=0 time=100
note_on channel=0 note=61 velocity=54 time=0
note_on channel=0 note=56 velocity=0 time=20
note_on channel=0 note=64 velocity=56 time=100
note_on channel=0 note=37 velocity=39 time=0
note_on channel=0 note=61 velocity=0 time=20
note_on channel=0 note=37 velocity=0 time=100
note_on channel=0 note=56 velocity=52 time=0
note_on channel=0 note=64 velocity=0 time=20
note_on channel=0 note=61 velocity=53 time=100
note_on channel=0 note=44 velocity=39 time=0
note_on channel=0 note=56 velocity=0 time=20
note_on channel=0 note=44 velocity=0 time=100
note_on channel=0 note=64 velocity=56 time=0
note_on channel=0 note=61 velocity=0 time=20
note_on channel=0 note=68 velocity=57 time=100
note_on channel=0 note=37 velocity=43 time=0
note_on channel=0 note=64 velocity=0 time=20
note_on channel=0 note=37 velocity=0 time=100
note_on channel=0 note=61 velocity=52 time=0
note_on channel=0 note=68 velocity=0 time=20
note_on channel=0 note=64 velocity=53 time=100
note_on channel=0 note=44 velocity=40 time=0
note_on channel=0 note=61 velocity=0 time=20
note_on channel=0 note=44 velocity=0 time=100
note_on channel=0 note=68 velocity=56 time=0
note_on channel=0 note=64 velocity=0 time=20
note_on channel=0 note=73 velocity=57 time=100
note_on channel=0 note=37 velocity=43 time=0
note_on channel=0 note=68 velocity=0 time=20
note_on channel=0 note=37 velocity=0 time=100
note_on channel=0 note=64 velocity=52 time=0
note_on channel=0 note=73 velocity=0 time=20
note_on channel=0 note=68 velocity=53 time=100
note_on channel=0 note=44 velocity=40 time=0
note_on channel=0 note=64 velocity=0 time=20
note_on channel=0 note=44 velocity=0 time=100
note_on channel=0 note=73 velocity=56 time=0
note_on channel=0 note=68 velocity=0 time=20
note_on channel=0 note=76 velocity=56 time=100
note_on channel=0 note=37 velocity=41 time=0
note_on channel=0 note=73 velocity=0 time=20
note_on channel=0 note=37 velocity=0 time=100
note_on channel=0 note=68 velocity=52 time=0
note_on channel=0 note=76 velocity=0 time=20
note_on channel=0 note=73 velocity=56 time=100
note_on channel=0 note=44 velocity=38 time=0
note_on channel=0 note=68 velocity=0 time=20
note_on channel=0 note=44 velocity=0 time=100
note_on channel=0 note=76 velocity=57 time=0
note_on channel=0 note=73 velocity=0 time=20
note_on channel=0 note=76 velocity=0 time=0
note_on channel=0 note=76 velocity=94 time=0
note_on channel=0 note=80 velocity=94 time=0
note_on channel=0 note=73 velocity=79 time=0
note_on channel=0 note=68 velocity=79 time=0
note_on channel=0 note=49 velocity=77 time=0
note_on channel=0 note=37 velocity=64 time=0
control_change channel=0 control=64 value=127 time=85
note_on channel=0 note=37 velocity=0 time=35
note_on channel=0 note=80 velocity=0 time=0
note_on channel=0 note=73 velocity=0 time=0
note_on channel=0 note=76 velocity=0 time=0
note_on channel=0 note=49 velocity=0 time=0
note_on channel=0 note=68 velocity=0 time=0
note_on channel=0 note=68 velocity=67 time=120
note_on channel=0 note=80 velocity=79 time=0
note_on channel=0 note=73 velocity=67 time=0
note_on channel=0 note=76 velocity=79 time=0
note_on channel=0 note=44 velocity=67 time=0
note_on channel=0 note=44 velocity=0 time=120
note_on channel=0 note=73 velocity=0 time=0
note_on channel=0 note=68 velocity=0 time=0
note_on channel=0 note=80 velocity=0 time=0
note_on channel=0 note=76 velocity=0 time=0
note_on channel=0 note=36 velocity=41 time=0
control_change channel=0 control=64 value=0 time=12
note_on channel=0 note=36 velocity=0 time=108
note_on channel=0 note=44 velocity=48 time=0
note_on channel=0 note=44 velocity=0 time=115
note_on channel=0 note=48 velocity=50 time=5
note_on channel=0 note=44 velocity=39 time=0
note_on channel=0 note=44 velocity=0 time=120
note_on channel=0 note=51 velocity=51 time=0
note_on channel=0 note=48 velocity=0 time=20
note_on channel=0 note=56 velocity=52 time=100
note_on channel=0 note=36 velocity=41 time=0
note_on channel=0 note=51 velocity=0 time=20
note_on channel=0 note=36 velocity=0 time=100
note_on channel=0 note=48 velocity=48 time=0
note_on channel=0 note=56 velocity=0 time=20
note_on channel=0 note=51 velocity=49 time=100
note_on channel=0 note=44 velocity=38 time=0
note_on channel=0 note=48 velocity=0 time=20
note_on channel=0 note=44 velocity=0 time=100
note_on channel=0 note=56 velocity=51 time=0
note_on channel=0 note=51 velocity=0 time=20
note_on channel=0 note=60 velocity=53 time=100
note_on channel=0 note=36 velocity=40 time=0
note_on channel=0 note=56 velocity=0 time=20
note_on channel=0 note=36 velocity=0 time=100
note_on channel=0 note=51 velocity=47 time=0
note_on channel=0 note=60 velocity=0 time=20
note_on channel=0 note=56 velocity=49 time=100
note_on channel=0 note=44 velocity=37 time=0
note_on channel=0 note=51 velocity=0 time=20
note_on channel=0 note=44 velocity=0 time=100
note_on channel=0 note=60 velocity=51 time=0
note_on channel=0 note=56 velocity=0 time=20
note_on channel=0 note=63 velocity=51 time=100
note_on channel=0 note=36 velocity=40 time=0
note_on channel=0 note=60 velocity=0 time=20
note_on channel=0 note=36 velocity=0 time=100
note_on channel=0 note=56 velocity=48 time=0
note_on channel=0 note=63 velocity=0 time=20
note_on channel=0 note=60 velocity=51 time=100
note_on channel=0 note=44 velocity=38 time=0
note_on channel=0 note=56 velocity=0 time=20
note_on channel=0 note=44 velocity=0 time=100
note_on channel=0 note=63 velocity=52 time=0
note_on channel=0 note=60 velocity=0 time=20
note_on channel=0 note=68 velocity=53 time=100
note_on channel=0 note=36 velocity=40 time=0
note_on channel=0 note=63 velocity=0 time=20
note_on channel=0 note=36 velocity=0 time=100
note_on channel=0 note=60 velocity=48 time=0
note_on channel=0 note=68 velocity=0 time=20
note_on channel=0 note=63 velocity=49 time=100
note_on channel=0 note=44 velocity=38 time=0
note_on channel=0 note=60 velocity=0 time=20
note_on channel=0 note=44 velocity=0 time=100
note_on channel=0 note=68 velocity=51 time=0
note_on channel=0 note=63 velocity=0 time=20
note_on channel=0 note=72 velocity=51 time=100
note_on channel=0 note=36 velocity=40 time=0
note_on channel=0 note=68 velocity=0 time=20
note_on channel=0 note=36 velocity=0 time=100
note_on channel=0 note=63 velocity=48 time=0
note_on channel=0 note=72 velocity=0 time=20
note_on channel=0 note=68 velocity=50 time=100
note_on channel=0 note=44 velocity=37 time=0
note_on channel=0 note=63 velocity=0 time=20
note_on channel=0 note=44 velocity=0 time=100
note_on channel=0 note=72 velocity=51 time=0
note_on channel=0 note=68 velocity=0 time=20
note_on channel=0 note=75 velocity=52 time=100
note_on channel=0 note=36 velocity=40 time=0
note_on channel=0 note=72 velocity=0 time=20
note_on channel=0 note=36 velocity=0 time=100
note_on channel=0 note=68 velocity=51 time=0
note_on channel=0 note=75 velocity=0 time=20
note_on channel=0 note=72 velocity=52 time=100
note_on channel=0 note=44 velocity=37 time=0
note_on channel=0 note=68 velocity=0 time=20
note_on channel=0 note=44 velocity=0 time=100
note_on channel=0 note=75 velocity=56 time=0
note_on channel=0 note=72 velocity=0 time=20
note_on channel=0 note=75 velocity=0 time=0
note_on channel=0 note=68 velocity=79 time=0
note_on channel=0 note=72 velocity=79 time=0
note_on channel=0 note=75 velocity=94 time=0
note_on channel=0 note=80 velocity=94 time=0
note_on channel=0 note=48 velocity=77 time=0
note_on channel=0 note=36 velocity=64 time=0
control_change channel=0 control=64 value=127 time=86
note_on channel=0 note=36 velocity=0 time=34
note_on channel=0 note=72 velocity=0 time=0
note_on channel=0 note=75 velocity=0 time=0
note_on channel=0 note=68 velocity=0 time=0
note_on channel=0 note=48 velocity=0 time=0
note_on channel=0 note=80 velocity=0 time=0
note_on channel=0 note=68 velocity=66 time=120
note_on channel=0 note=72 velocity=66 time=0
note_on channel=0 note=75 velocity=78 time=0
note_on channel=0 note=80 velocity=78 time=0
note_on channel=0 note=44 velocity=58 time=0
note_on channel=0 note=44 velocity=0 time=120
note_on channel=0 note=75 velocity=0 time=0
note_on channel=0 note=68 velocity=0 time=0
note_on channel=0 note=72 velocity=0 time=0
note_on channel=0 note=80 velocity=0 time=0
note_on channel=0 note=35 velocity=55 time=0
control_change channel=0 control=64 value=0 time=17
note_on channel=0 note=35 velocity=0 time=103
note_on channel=0 note=49 velocity=63 time=0
note_on channel=0 note=53 velocity=66 time=120
note_on channel=0 note=44 velocity=51 time=0
note_on channel=0 note=49 velocity=0 time=20
note_on channel=0 note=44 velocity=0 time=100
note_on channel=0 note=56 velocity=63 time=0
note_on channel=0 note=53 velocity=0 time=20
note_on channel=0 note=61 velocity=68 time=100
note_on channel=0 note=35 velocity=56 time=0
note_on channel=0 note=56 velocity=0 time=20
note_on channel=0 note=35 velocity=0 time=100
note_on channel=0 note=53 velocity=62 time=0
note_on channel=0 note=61 velocity=0 time=20
note_on channel=0 note=56 velocity=63 time=100
note_on channel=0 note=44 velocity=52 time=0
note_on channel=0 note=53 velocity=0 time=20
note_on channel=0 note=44 velocity=0 time=100
note_on channel=0 note=61 velocity=62 time=0
note_on channel=0 note=56 velocity=0 time=20
note_on channel=0 note=65 velocity=68 time=100
note_on channel=0 note=35 velocity=56 time=0
note_on channel=0 note=61 velocity=0 time=20
note_on channel=0 note=35 velocity=0 time=100
note_on channel=0 note=56 velocity=62 time=0
note_on channel=0 note=65 velocity=0 time=20
note_on channel=0 note=61 velocity=63 time=100
note_on channel=0 note=44 velocity=52 time=0
note_on channel=0 note=56 velocity=0 time=20
note_on channel=0 note=44 velocity=0 time=100
note_on channel=0 note=65 velocity=65 time=0
note_on channel=0 note=61 velocity=0 time=20
note_on channel=0 note=68 velocity=68 time=100
note_on channel=0 note=35 velocity=56 time=0
note_on channel=0 note=65 velocity=0 time=20
note_on channel=0 note=35 velocity=0 time=100
note_on channel=0 note=61 velocity=62 time=0
note_on channel=0 note=68 velocity=0 time=20
note_on channel=0 note=65 velocity=65 time=100
note_on channel=0 note=44 velocity=52 time=0
note_on channel=0 note=61 velocity=0 time=20
note_on channel=0 note=44 velocity=0 time=100
note_on channel=0 note=68 velocity=62 time=0
note_on channel=0 note=65 velocity=0 time=20
note_on channel=0 note=73 velocity=68 time=100
note_on channel=0 note=35 velocity=56 time=0
note_on channel=0 note=68 velocity=0 time=20
note_on channel=0 note=35 velocity=0 time=100
note_on channel=0 note=65 velocity=61 time=0
note_on channel=0 note=73 velocity=0 time=20
note_on channel=0 note=68 velocity=62 time=100
note_on channel=0 note=44 velocity=52 time=0
note_on channel=0 note=65 velocity=0 time=20
note_on channel=0 note=44 velocity=0 time=100
note_on channel=0 note=73 velocity=62 time=0
note_on channel=0 note=68 velocity=0 time=20
note_on channel=0 note=77 velocity=68 time=100
note_on channel=0 note=35 velocity=56 time=0
note_on channel=0 note=73 velocity=0 time=20
note_on channel=0 note=35 velocity=0 time=100
note_on channel=0 note=68 velocity=63 time=0
note_on channel=0 note=77 velocity=0 time=20
note_on channel=0 note=73 velocity=66 time=100
note_on channel=0 note=44 velocity=52 time=0
note_on channel=0 note=68 velocity=0 time=20
note_on channel=0 note=44 velocity=0 time=100
note_on channel=0 note=77 velocity=65 time=0
note_on channel=0 note=73 velocity=0 time=20
note_on channel=0 note=80 velocity=69 time=100
note_on channel=0 note=35 velocity=56 time=0
note_on channel=0 note=77 velocity=0 time=20
note_on channel=0 note=35 velocity=0 time=100
note_on channel=0 note=73 velocity=63 time=0
note_on channel=0 note=80 velocity=0 time=20
note_on channel=0 note=77 velocity=68 time=100
note_on channel=0 note=44 velocity=52 time=0
note_on channel=0 note=73 velocity=0 time=20
note_on channel=0 note=44 velocity=0 time=100
note_on channel=0 note=80 velocity=68 time=0
note_on channel=0 note=77 velocity=0 time=20
note_on channel=0 note=80 velocity=0 time=0
note_on channel=0 note=77 velocity=87 time=0
note_on channel=0 note=80 velocity=103 time=0
note_on channel=0 note=73 velocity=87 time=0
note_on channel=0 note=85 velocity=103 time=0
note_on channel=0 note=47 velocity=80 time=0
note_on channel=0 note=35 velocity=67 time=0
control_change channel=0 control=64 value=127 time=46
note_on channel=0 note=35 velocity=0 time=74
note_on channel=0 note=80 velocity=0 time=0
note_on channel=0 note=73 velocity=0 time=0
note_on channel=0 note=77 velocity=0 time=0
note_on channel=0 note=47 velocity=0 time=0
note_on channel=0 note=85 velocity=0 time=0
note_on channel=0 note=77 velocity=77 time=120
note_on channel=0 note=73 velocity=77 time=0
note_on channel=0 note=80 velocity=90 time=0
note_on channel=0 note=85 velocity=90 time=0
note_on channel=0 note=44 velocity=73 time=0
note_on channel=0 note=44 velocity=0 time=120
note_on channel=0 note=80 velocity=0 time=0
note_on channel=0 note=77 velocity=0 time=0
note_on channel=0 note=73 velocity=0 time=0
note_on channel=0 note=85 velocity=0 time=0
note_on channel=0 note=33 velocity=50 time=0
control_change channel=0 control=64 value=0 time=4
note_on channel=0 note=33 velocity=0 time=116
note_on channel=0 note=49 velocity=61 time=0
note_on channel=0 note=54 velocity=63 time=120
note_on channel=0 note=45 velocity=51 time=0
note_on channel=0 note=49 velocity=0 time=20
note_on channel=0 note=45 velocity=0 time=100
note_on channel=0 note=57 velocity=62 time=0
note_on channel=0 note=54 velocity=0 time=20
note_on channel=0 note=61 velocity=69 time=100
note_on channel=0 note=33 velocity=57 time=0
note_on channel=0 note=57 velocity=0 time=20
note_on channel=0 note=61 velocity=0 time=40
note_on channel=0 note=33 velocity=0 time=60
note_on channel=0 note=61 velocity=72 time=0
note_on channel=0 note=66 velocity=76 time=120
note_on channel=0 note=45 velocity=62 time=0
note_on channel=0 note=61 velocity=0 time=20
note_on channel=0 note=45 velocity=0 time=100
note_on channel=0 note=69 velocity=76 time=0
note_on channel=0 note=66 velocity=0 time=20
note_on channel=0 note=73 velocity=79 time=100
note_on channel=0 note=33 velocity=67 time=0
note_on channel=0 note=69 velocity=0 time=20
note_on channel=0 note=73 velocity=0 time=40
note_on channel=0 note=33 velocity=0 time=60
note_on channel=0 note=73 velocity=83 time=0
note_on channel=0 note=78 velocity=84 time=120
note_on channel=0 note=45 velocity=68 time=0
note_on channel=0 note=73 velocity=0 time=20
note_on channel=0 note=45 velocity=0 time=100
note_on channel=0 note=81 velocity=80 time=0
note_on channel=0 note=78 velocity=0 time=20
note_on channel=0 note=78 velocity=102 time=0
note_on channel=0 note=73 velocity=86 time=0
note_on channel=0 note=85 velocity=102 time=0
note_on channel=0 note=33 velocity=86 time=0
note_on channel=0 note=81 velocity=0 time=20
control_change channel=0 control=64 value=127 time=19
note_on channel=0 note=85 velocity=0 time=81
note_on channel=0 note=78 velocity=0 time=0
note_on channel=0 note=73 velocity=0 time=0
note_on channel=0 note=33 velocity=0 time=0
note_on channel=0 note=73 velocity=85 time=120
note_on channel=0 note=78 velocity=101 time=0
note_on channel=0 note=85 velocity=101 time=0
note_on channel=0 note=45 velocity=85 time=0
note_on channel=0 note=45 velocity=0 time=120
note_on channel=0 note=73 velocity=0 time=0
note_on channel=0 note=78 velocity=0 time=0
note_on channel=0 note=85 velocity=0 time=0
note_on channel=0 note=33 velocity=67 time=0
control_change channel=0 control=64 value=0 time=0
note_on channel=0 note=33 velocity=0 time=120
note_on channel=0 note=49 velocity=75 time=0
note_on channel=0 note=52 velocity=77 time=120
note_on channel=0 note=45 velocity=63 time=0
note_on channel=0 note=49 velocity=0 time=20
note_on channel=0 note=45 velocity=0 time=100
note_on channel=0 note=55 velocity=75 time=0
note_on channel=0 note=52 velocity=0 time=20
note_on channel=0 note=61 velocity=80 time=100
note_on channel=0 note=33 velocity=67 time=0
note_on channel=0 note=55 velocity=0 time=20
note_on channel=0 note=61 velocity=0 time=40
note_on channel=0 note=33 velocity=0 time=60
note_on channel=0 note=61 velocity=76 time=0
note_on channel=0 note=64 velocity=79 time=120
note_on channel=0 note=45 velocity=63 time=0
note_on channel=0 note=61 velocity=0 time=20
note_on channel=0 note=45 velocity=0 time=100
note_on channel=0 note=67 velocity=77 time=0
note_on channel=0 note=64 velocity=0 time=20
note_on channel=0 note=73 velocity=81 time=100
note_on channel=0 note=33 velocity=67 time=0
note_on channel=0 note=67 velocity=0 time=20
note_on channel=0 note=73 velocity=0 time=40
note_on channel=0 note=33 velocity=0 time=60
note_on channel=0 note=73 velocity=79 time=0
note_on channel=0 note=76 velocity=80 time=120
note_on channel=0 note=45 velocity=63 time=0
note_on channel=0 note=73 velocity=0 time=20
note_on channel=0 note=45 velocity=0 time=100
note_on channel=0 note=79 velocity=80 time=0
note_on channel=0 note=76 velocity=0 time=20
note_on channel=0 note=79 velocity=0 time=0
note_on channel=0 note=79 velocity=108 time=0
note_on channel=0 note=73 velocity=90 time=0
note_on channel=0 note=85 velocity=108 time=0
note_on channel=0 note=33 velocity=90 time=0
control_change channel=0 control=64 value=127 time=71
note_on channel=0 note=33 velocity=0 time=49
note_on channel=0 note=79 velocity=0 time=0
note_on channel=0 note=73 velocity=0 time=0
note_on channel=0 note=85 velocity=0 time=0
note_on channel=0 note=85 velocity=108 time=120
note_on channel=0 note=73 velocity=90 time=0
note_on channel=0 note=79 velocity=108 time=0
note_on channel=0 note=45 velocity=90 time=0
note_on channel=0 note=45 velocity=0 time=120
note_on channel=0 note=85 velocity=0 time=0
note_on channel=0 note=73 velocity=0 time=0
note_on channel=0 note=79 velocity=0 time=0
note_on channel=0 note=84 velocity=108 time=120
note_on channel=0 note=80 velocity=108 time=0
note_on channel=0 note=72 velocity=90 time=0
note_on channel=0 note=44 velocity=77 time=0
note_on channel=0 note=32 velocity=77 time=0
control_change channel=0 control=64 value=0 time=0
note_on channel=0 note=32 velocity=0 time=0
note_on channel=0 note=72 velocity=0 time=0
note_on channel=0 note=84 velocity=0 time=0
note_on channel=0 note=80 velocity=0 time=0
note_on channel=0 note=44 velocity=0 time=0
note_on channel=0 note=68 velocity=74 time=0
note_on channel=0 note=60 velocity=62 time=0
note_on channel=0 note=56 velocity=62 time=0
control_change channel=0 control=64 value=127 time=57
note_on channel=0 note=68 velocity=0 time=63
note_on channel=0 note=80 velocity=58 time=0
note_on channel=0 note=80 velocity=0 time=120
note_on channel=0 note=60 velocity=0 time=0
note_on channel=0 note=68 velocity=75 time=0
note_on channel=0 note=60 velocity=62 time=0
note_on channel=0 note=68 velocity=0 time=120
note_on channel=0 note=80 velocity=60 time=0
note_on channel=0 note=80 velocity=0 time=120
note_on channel=0 note=60 velocity=0 time=0
note_on channel=0 note=70 velocity=76 time=0
note_on channel=0 note=61 velocity=62 time=0
control_change channel=0 control=64 value=0 time=17
control_change channel=0 control=64 value=127 time=69
note_on channel=0 note=70 velocity=0 time=34
note_on channel=0 note=80 velocity=60 time=0
note_on channel=0 note=80 velocity=0 time=120
note_on channel=0 note=61 velocity=0 time=0
note_on channel=0 note=72 velocity=76 time=0
note_on channel=0 note=63 velocity=64 time=0
control_change channel=0 control=64 value=0 time=17
control_change channel=0 control=64 value=127 time=69
note_on channel=0 note=72 velocity=0 time=34
note_on channel=0 note=80 velocity=61 time=0
note_on channel=0 note=80 velocity=0 time=120
note_on channel=0 note=63 velocity=0 time=0
note_on channel=0 note=73 velocity=78 time=0
note_on channel=0 note=64 velocity=66 time=0
control_change channel=0 control=64 value=0 time=12
control_change channel=0 control=64 value=127 time=63
note_on channel=0 note=73 velocity=0 time=45
note_on channel=0 note=80 velocity=62 time=0
note_on channel=0 note=80 velocity=0 time=120
note_on channel=0 note=64 velocity=0 time=0
note_on channel=0 note=75 velocity=79 time=0
note_on channel=0 note=66 velocity=67 time=0
control_change channel=0 control=64 value=0 time=17
control_change channel=0 control=64 value=127 time=63
note_on channel=0 note=75 velocity=0 time=40
note_on channel=0 note=80 velocity=62 time=0
note_on channel=0 note=80 velocity=0 time=120
note_on channel=0 note=66 velocity=0 time=0
note_on channel=0 note=72 velocity=79 time=0
note_on channel=0 note=63 velocity=68 time=0
control_change channel=0 control=64 value=0 time=17
control_change channel=0 control=64 value=127 time=52
note_on channel=0 note=72 velocity=0 time=51
note_on channel=0 note=80 velocity=62 time=0
note_on channel=0 note=80 velocity=0 time=0
note_on channel=0 note=63 velocity=0 time=0
note_on channel=0 note=75 velocity=80 time=0
note_on channel=0 note=66 velocity=69 time=0
control_change channel=0 control=64 value=0 time=8
control_change channel=0 control=64 value=127 time=72
note_on channel=0 note=75 velocity=0 time=40
note_on channel=0 note=80 velocity=62 time=0
note_on channel=0 note=80 velocity=0 time=120
note_on channel=0 note=66 velocity=0 time=0
note_on channel=0 note=73 velocity=80 time=0
note_on channel=0 note=64 velocity=71 time=0
control_change channel=0 control=64 value=0 time=18
control_change channel=0 control=64 value=127 time=62
note_on channel=0 note=73 velocity=0 time=40
note_on channel=0 note=80 velocity=62 time=0
note_on channel=0 note=80 velocity=0 time=0
note_on channel=0 note=64 velocity=0 time=0
note_on channel=0 note=78 velocity=84 time=0
note_on channel=0 note=69 velocity=72 time=0
control_change channel=0 control=64 value=0 time=17
control_change channel=0 control=64 value=127 time=52
note_on channel=0 note=78 velocity=0 time=51
note_on channel=0 note=80 velocity=62 time=0
note_on channel=0 note=80 velocity=0 time=120
note_on channel=0 note=69 velocity=0 time=0
note_on channel=0 note=76 velocity=80 time=0
note_on channel=0 note=68 velocity=71 time=0
control_change channel=0 control=64 value=0 time=17
control_change channel=0 control=64 value=127 time=12
note_on channel=0 note=76 velocity=0 time=28
note_on channel=0 note=80 velocity=62 time=0
note_on channel=0 note=80 velocity=0 time=120
note_on channel=0 note=68 velocity=0 time=0
note_on channel=0 note=75 velocity=80 time=0
note_on channel=0 note=66 velocity=69 time=0
control_change channel=0 control=64 value=0 time=19
control_change channel=0 control=64 value=127 time=67
note_on channel=0 note=75 velocity=0 time=0
note_on channel=0 note=80 velocity=62 time=0
note_on channel=0 note=80 velocity=0 time=120
note_on channel=0 note=66 velocity=0 time=0
note_on channel=0 note=73 velocity=79 time=0
note_on channel=0 note=64 velocity=68 time=0
control_change channel=0 control=64 value=0 time=14
control_change channel=0 control=64 value=127 time=72
note_on channel=0 note=73 velocity=0 time=34
note_on channel=0 note=80 velocity=62 time=0
note_on channel=0 note=80 velocity=0 time=40
note_on channel=0 note=64 velocity=0 time=0
note_on channel=0 note=72 velocity=79 time=0
note_on channel=0 note=63 velocity=67 time=0
control_change channel=0 control=64 value=0 time=12
control_change channel=0 control=64 value=127 time=80
note_on channel=0 note=72 velocity=0 time=28
note_on channel=0 note=80 velocity=62 time=0
note_on channel=0 note=80 velocity=0 time=0
note_on channel=0 note=63 velocity=0 time=0
note_on channel=0 note=69 velocity=77 time=0
note_on channel=0 note=61 velocity=66 time=0
control_change channel=0 control=64 value=0 time=10
control_change channel=0 control=64 value=127 time=65
note_on channel=0 note=69 velocity=0 time=45
note_on channel=0 note=79 velocity=61 time=0
note_on channel=0 note=79 velocity=0 time=120
note_on channel=0 note=61 velocity=0 time=0
note_on channel=0 note=56 velocity=0 time=0
note_on channel=0 note=68 velocity=76 time=0
note_on channel=0 note=60 velocity=64 time=0
note_on channel=0 note=56 velocity=64 time=0
control_change channel=0 control=64 value=0 time=8
control_change channel=0 control=64 value=127 time=12
note_on channel=0 note=68 velocity=0 time=28
note_on channel=0 note=80 velocity=60 time=0
note_on channel=0 note=80 velocity=0 time=120
note_on channel=0 note=60 velocity=0 time=0
note_on channel=0 note=68 velocity=75 time=0
note_on channel=0 note=60 velocity=63 time=0
note_on channel=0 note=68 velocity=0 time=0
note_on channel=0 note=80 velocity=59 time=0
note_on channel=0 note=80 velocity=0 time=120
note_on channel=0 note=60 velocity=0 time=0
note_on channel=0 note=68 velocity=74 time=0
note_on channel=0 note=60 velocity=62 time=0
note_on channel=0 note=68 velocity=0 time=120
note_on channel=0 note=80 velocity=59 time=0
note_on channel=0 note=80 velocity=0 time=40
note_on channel=0 note=60 velocity=0 time=0
note_on channel=0 note=70 velocity=74 time=0
note_on channel=0 note=61 velocity=60 time=0
control_change channel=0 control=64 value=0 time=18
control_change channel=0 control=64 value=127 time=57
note_on channel=0 note=70 velocity=0 time=45
note_on channel=0 note=80 velocity=61 time=0
note_on channel=0 note=80 velocity=0 time=120
note_on channel=0 note=61 velocity=0 time=0
note_on channel=0 note=72 velocity=76 time=0
note_on channel=0 note=63 velocity=62 time=0
control_change channel=0 control=64 value=0 time=15
control_change channel=0 control=64 value=127 time=65
note_on channel=0 note=72 velocity=0 time=40
note_on channel=0 note=80 velocity=59 time=0
note_on channel=0 note=80 velocity=0 time=120
note_on channel=0 note=63 velocity=0 time=0
note_on channel=0 note=73 velocity=76 time=0
note_on channel=0 note=64 velocity=62 time=0
control_change channel=0 control=64 value=0 time=17
control_change channel=0 control=64 value=127 time=69
note_on channel=0 note=73 velocity=0 time=34
note_on channel=0 note=80 velocity=62 time=0
note_on channel=0 note=80 velocity=0 time=120
note_on channel=0 note=64 velocity=0 time=0
note_on channel=0 note=75 velocity=77 time=0
note_on channel=0 note=66 velocity=65 time=0
control_change channel=0 control=64 value=0 time=15
control_change channel=0 control=64 value=127 time=71
note_on channel=0 note=75 velocity=0 time=34
note_on channel=0 note=80 velocity=61 time=0
note_on channel=0 note=80 velocity=0 time=120
note_on channel=0 note=66 velocity=0 time=0
note_on channel=0 note=72 velocity=79 time=0
note_on channel=0 note=63 velocity=67 time=0
control_change channel=0 control=64 value=0 time=18
control_change channel=0 control=64 value=127 time=57
note_on channel=0 note=72 velocity=0 time=45
note_on channel=0 note=80 velocity=62 time=0
note_on channel=0 note=80 velocity=0 time=0
note_on channel=0 note=63 velocity=0 time=0
note_on channel=0 note=75 velocity=79 time=0
note_on channel=0 note=66 velocity=68 time=0
control_change channel=0 control=64 value=0 time=8
control_change channel=0 control=64 value=127 time=72
note_on channel=0 note=75 velocity=0 time=40
note_on channel=0 note=80 velocity=62 time=0
note_on channel=0 note=80 velocity=0 time=120
note_on channel=0 note=66 velocity=0 time=0
note_on channel=0 note=73 velocity=80 time=0
note_on channel=0 note=64 velocity=68 time=0
control_change channel=0 control=64 value=0 time=13
control_change channel=0 control=64 value=127 time=73
note_on channel=0 note=73 velocity=0 time=34
note_on channel=0 note=80 velocity=65 time=0
note_on channel=0 note=80 velocity=0 time=40
note_on channel=0 note=64 velocity=0 time=0
note_on channel=0 note=78 velocity=84 time=0
note_on channel=0 note=69 velocity=68 time=0
control_change channel=0 control=64 value=0 time=19
control_change channel=0 control=64 value=127 time=56
note_on channel=0 note=78 velocity=0 time=45
note_on channel=0 note=80 velocity=68 time=0
note_on channel=0 note=80 velocity=0 time=120
note_on channel=0 note=69 velocity=0 time=0
note_on channel=0 note=76 velocity=84 time=0
note_on channel=0 note=68 velocity=67 time=0
control_change channel=0 control=64 value=0 time=19
control_change channel=0 control=64 value=127 time=56
note_on channel=0 note=76 velocity=0 time=0
note_on channel=0 note=80 velocity=67 time=0
note_on channel=0 note=80 velocity=0 time=120
note_on channel=0 note=68 velocity=0 time=0
note_on channel=0 note=75 velocity=84 time=0
note_on channel=0 note=66 velocity=67 time=0
control_change channel=0 control=64 value=0 time=22
control_change channel=0 control=64 value=127 time=64
note_on channel=0 note=75 velocity=0 time=34
note_on channel=0 note=80 velocity=67 time=0
note_on channel=0 note=80 velocity=0 time=0
note_on channel=0 note=66 velocity=0 time=0
note_on channel=0 note=73 velocity=84 time=0
note_on channel=0 note=64 velocity=67 time=0
control_change channel=0 control=64 value=0 time=16
control_change channel=0 control=64 value=127 time=59
note_on channel=0 note=73 velocity=0 time=45
note_on channel=0 note=80 velocity=66 time=0
note_on channel=0 note=80 velocity=0 time=120
note_on channel=0 note=64 velocity=0 time=0
note_on channel=0 note=72 velocity=84 time=0
note_on channel=0 note=63 velocity=67 time=0
control_change channel=0 control=64 value=0 time=19
control_change channel=0 control=64 value=127 time=61
note_on channel=0 note=72 velocity=0 time=0
note_on channel=0 note=80 velocity=67 time=0
note_on channel=0 note=80 velocity=0 time=120
note_on channel=0 note=63 velocity=0 time=0
note_on channel=0 note=69 velocity=84 time=0
note_on channel=0 note=61 velocity=67 time=0
control_change channel=0 control=64 value=0 time=15
control_change channel=0 control=64 value=127 time=48
note_on channel=0 note=69 velocity=0 time=57
note_on channel=0 note=79 velocity=66 time=0
note_on channel=0 note=79 velocity=0 time=0
note_on channel=0 note=61 velocity=0 time=0
note_on channel=0 note=56 velocity=0 time=0
note_on channel=0 note=68 velocity=84 time=0
note_on channel=0 note=56 velocity=71 time=0
note_on channel=0 note=60 velocity=71 time=0
control_change channel=0 control=64 value=0 time=0
control_change channel=0 control=64 value=127 time=12
note_on channel=0 note=60 velocity=0 time=68
note_on channel=0 note=56 velocity=0 time=0
note_on channel=0 note=68 velocity=0 time=0
note_on channel=0 note=80 velocity=66 time=0
control_change channel=0 control=64 value=0 time=6
note_on channel=0 note=80 velocity=0 time=40
note_on channel=0 note=69 velocity=79 time=0
note_on channel=0 note=61 velocity=62 time=0
note_on channel=0 note=56 velocity=62 time=0
control_change channel=0 control=64 value=127 time=23
note_on channel=0 note=56 velocity=0 time=40
note_on channel=0 note=61 velocity=0 time=0
note_on channel=0 note=69 velocity=0 time=0
note_on channel=0 note=79 velocity=67 time=0
control_change channel=0 control=64 value=0 time=0
note_on channel=0 note=79 velocity=0 time=40
note_on channel=0 note=68 velocity=84 time=0
note_on channel=0 note=60 velocity=67 time=0
note_on channel=0 note=56 velocity=67 time=0
control_change channel=0 control=64 value=127 time=23
note_on channel=0 note=56 velocity=0 time=40
note_on channel=0 note=60 velocity=0 time=0
note_on channel=0 note=68 velocity=0 time=0
note_on channel=0 note=80 velocity=66 time=0
control_change channel=0 control=64 value=0 time=34
note_on channel=0 note=80 velocity=0 time=40
note_on channel=0 note=69 velocity=79 time=0
note_on channel=0 note=61 velocity=62 time=0
note_on channel=0 note=56 velocity=62 time=0
control_change channel=0 control=64 value=127 time=40
note_on channel=0 note=56 velocity=0 time=40
note_on channel=0 note=61 velocity=0 time=0
note_on channel=0 note=69 velocity=0 time=0
note_on channel=0 note=79 velocity=67 time=0
control_change channel=0 control=64 value=0 time=46
note_on channel=0 note=79 velocity=0 time=40
note_on channel=0 note=68 velocity=84 time=0
note_on channel=0 note=60 velocity=71 time=0
note_on channel=0 note=56 velocity=71 time=0
control_change channel=0 control=64 value=127 time=40
note_on channel=0 note=56 velocity=0 time=0
note_on channel=0 note=60 velocity=0 time=0
note_on channel=0 note=68 velocity=0 time=0
note_on channel=0 note=80 velocity=66 time=0
control_change channel=0 control=64 value=0 time=46
note_on channel=0 note=80 velocity=0 time=0
note_on channel=0 note=69 velocity=79 time=0
note_on channel=0 note=61 velocity=62 time=0
note_on channel=0 note=56 velocity=62 time=0
control_change channel=0 control=64 value=127 time=34
note_on channel=0 note=56 velocity=0 time=0
note_on channel=0 note=61 velocity=0 time=0
note_on channel=0 note=69 velocity=0 time=0
note_on channel=0 note=79 velocity=65 time=0
control_change channel=0 control=64 value=0 time=51
note_on channel=0 note=79 velocity=0 time=0
note_on channel=0 note=68 velocity=84 time=0
note_on channel=0 note=60 velocity=67 time=0
note_on channel=0 note=56 velocity=67 time=0
control_change channel=0 control=64 value=127 time=51
note_on channel=0 note=56 velocity=0 time=0
note_on channel=0 note=60 velocity=0 time=0
note_on channel=0 note=68 velocity=0 time=0
note_on channel=0 note=80 velocity=66 time=0
control_change channel=0 control=64 value=0 time=57
note_on channel=0 note=80 velocity=0 time=0
note_on channel=0 note=69 velocity=79 time=0
note_on channel=0 note=61 velocity=61 time=0
note_on channel=0 note=56 velocity=61 time=0
control_change channel=0 control=64 value=127 time=51
note_on channel=0 note=56 velocity=0 time=0
note_on channel=0 note=61 velocity=0 time=0
note_on channel=0 note=69 velocity=0 time=0
note_on channel=0 note=79 velocity=65 time=0
control_change channel=0 control=64 value=0 time=29
note_on channel=0 note=79 velocity=0 time=0
note_on channel=0 note=68 velocity=84 time=0
note_on channel=0 note=80 velocity=84 time=0
note_on channel=0 note=56 velocity=71 time=0
note_on channel=0 note=60 velocity=71 time=0
control_change channel=0 control=64 value=127 time=23
note_on channel=0 note=60 velocity=0 time=217
note_on channel=0 note=68 velocity=0 time=0
note_on channel=0 note=80 velocity=0 time=0
note_on channel=0 note=56 velocity=0 time=0
control_change channel=0 control=64 value=0 time=46
note_on channel=0 note=56 velocity=113 time=0
note_on channel=0 note=32 velocity=96 time=0
note_on channel=0 note=44 velocity=96 time=0
control_change channel=0 control=64 value=127 time=195
note_on channel=0 note=44 velocity=0 time=0
note_on channel=0 note=32 velocity=0 time=0
note_on channel=0 note=56 velocity=0 time=0
note_on channel=0 note=37 velocity=43 time=0
control_change channel=0 control=64 value=0 time=0
note_on channel=0 note=37 velocity=0 time=120
note_on channel=0 note=44 velocity=47 time=0
note_on channel=0 note=44 velocity=0 time=115
note_on channel=0 note=49 velocity=49 time=5
note_on channel=0 note=44 velocity=39 time=0
note_on channel=0 note=44 velocity=0 time=120
note_on channel=0 note=52 velocity=51 time=0
note_on channel=0 note=49 velocity=0 time=20
note_on channel=0 note=56 velocity=52 time=100
note_on channel=0 note=37 velocity=43 time=0
note_on channel=0 note=52 velocity=0 time=20
note_on channel=0 note=37 velocity=0 time=100
note_on channel=0 note=49 velocity=47 time=0
note_on channel=0 note=56 velocity=0 time=20
note_on channel=0 note=52 velocity=49 time=100
note_on channel=0 note=44 velocity=39 time=0
note_on channel=0 note=49 velocity=0 time=20
note_on channel=0 note=44 velocity=0 time=100
note_on channel=0 note=56 velocity=51 time=0
note_on channel=0 note=52 velocity=0 time=20
note_on channel=0 note=61 velocity=52 time=100
note_on channel=0 note=37 velocity=43 time=0
note_on channel=0 note=56 velocity=0 time=20
note_on channel=0 note=37 velocity=0 time=100
note_on channel=0 note=52 velocity=47 time=0
note_on channel=0 note=61 velocity=0 time=20
note_on channel=0 note=56 velocity=49 time=100
note_on channel=0 note=44 velocity=39 time=0
note_on channel=0 note=52 velocity=0 time=20
note_on channel=0 note=44 velocity=0 time=100
note_on channel=0 note=61 velocity=51 time=0
note_on channel=0 note=56 velocity=0 time=20
note_on channel=0 note=64 velocity=52 time=100
note_on channel=0 note=37 velocity=43 time=0
note_on channel=0 note=61 velocity=0 time=20
note_on channel=0 note=37 velocity=0 time=100
note_on channel=0 note=56 velocity=48 time=0
note_on channel=0 note=64 velocity=0 time=20
note_on channel=0 note=61 velocity=50 time=100
note_on channel=0 note=44 velocity=39 time=0
note_on channel=0 note=56 velocity=0 time=20
note_on channel=0 note=44 velocity=0 time=100
note_on channel=0 note=64 velocity=51 time=0
note_on channel=0 note=61 velocity=0 time=20
note_on channel=0 note=68 velocity=52 time=100
note_on channel=0 note=37 velocity=43 time=0
note_on channel=0 note=64 velocity=0 time=20
note_on channel=0 note=37 velocity=0 time=100
note_on channel=0 note=61 velocity=47 time=0
note_on channel=0 note=68 velocity=0 time=20
note_on channel=0 note=64 velocity=47 time=100
note_on channel=0 note=44 velocity=39 time=0
note_on channel=0 note=61 velocity=0 time=20
note_on channel=0 note=44 velocity=0 time=100
note_on channel=0 note=68 velocity=50 time=0
note_on channel=0 note=64 velocity=0 time=20
note_on channel=0 note=73 velocity=52 time=100
note_on channel=0 note=37 velocity=43 time=0
note_on channel=0 note=68 velocity=0 time=20
note_on channel=0 note=37 velocity=0 time=100
note_on channel=0 note=64 velocity=47 time=0
note_on channel=0 note=73 velocity=0 time=20
note_on channel=0 note=68 velocity=50 time=100
note_on channel=0 note=44 velocity=39 time=0
note_on channel=0 note=64 velocity=0 time=20
note_on channel=0 note=44 velocity=0 time=100
note_on channel=0 note=73 velocity=51 time=0
note_on channel=0 note=68 velocity=0 time=20
note_on channel=0 note=76 velocity=54 time=100
note_on channel=0 note=37 velocity=43 time=0
note_on channel=0 note=73 velocity=0 time=20
note_on channel=0 note=76 velocity=0 time=95
note_on channel=0 note=37 velocity=0 time=5
note_on channel=0 note=76 velocity=51 time=0
note_on channel=0 note=80 velocity=51 time=120
note_on channel=0 note=44 velocity=43 time=0
note_on channel=0 note=76 velocity=0 time=20
note_on channel=0 note=44 velocity=0 time=100
note_on channel=0 note=85 velocity=53 time=0
note_on channel=0 note=80 velocity=0 time=20
note_on channel=0 note=85 velocity=0 time=0
note_on channel=0 note=76 velocity=95 time=0
note_on channel=0 note=88 velocity=112 time=0
note_on channel=0 note=49 velocity=89 time=0
note_on channel=0 note=37 velocity=75 time=0
control_change channel=0 control=64 value=127 time=92
note_on channel=0 note=37 velocity=0 time=28
note_on channel=0 note=76 velocity=0 time=0
note_on channel=0 note=88 velocity=0 time=0
note_on channel=0 note=49 velocity=0 time=0
note_on channel=0 note=76 velocity=74 time=120
note_on channel=0 note=88 velocity=88 time=0
note_on channel=0 note=44 velocity=74 time=0
note_on channel=0 note=44 velocity=0 time=120
note_on channel=0 note=88 velocity=0 time=0
note_on channel=0 note=76 velocity=0 time=0
note_on channel=0 note=34 velocity=40 time=0
control_change channel=0 control=64 value=0 time=0
note_on channel=0 note=34 velocity=0 time=120
note_on channel=0 note=52 velocity=46 time=0
note_on channel=0 note=55 velocity=48 time=120
note_on channel=0 note=49 velocity=37 time=0
note_on channel=0 note=52 velocity=0 time=20
note_on channel=0 note=49 velocity=0 time=100
note_on channel=0 note=61 velocity=50 time=0
note_on channel=0 note=55 velocity=0 time=20
note_on channel=0 note=64 velocity=51 time=100
note_on channel=0 note=46 velocity=40 time=0
note_on channel=0 note=61 velocity=0 time=20
note_on channel=0 note=46 velocity=0 time=100
note_on channel=0 note=55 velocity=47 time=0
note_on channel=0 note=64 velocity=0 time=20
note_on channel=0 note=61 velocity=49 time=100
note_on channel=0 note=49 velocity=40 time=0
note_on channel=0 note=55 velocity=0 time=20
note_on channel=0 note=49 velocity=0 time=100
note_on channel=0 note=64 velocity=51 time=0
note_on channel=0 note=61 velocity=0 time=20
note_on channel=0 note=67 velocity=51 time=100
note_on channel=0 note=46 velocity=40 time=0
note_on channel=0 note=64 velocity=0 time=20
note_on channel=0 note=46 velocity=0 time=100
note_on channel=0 note=61 velocity=50 time=0
note_on channel=0 note=67 velocity=0 time=20
note_on channel=0 note=64 velocity=49 time=100
note_on channel=0 note=49 velocity=37 time=0
note_on channel=0 note=61 velocity=0 time=20
note_on channel=0 note=49 velocity=0 time=100
note_on channel=0 note=67 velocity=51 time=0
note_on channel=0 note=64 velocity=0 time=20
note_on channel=0 note=73 velocity=52 time=100
note_on channel=0 note=46 velocity=40 time=0
note_on channel=0 note=67 velocity=0 time=20
note_on channel=0 note=46 velocity=0 time=100
note_on channel=0 note=64 velocity=47 time=0
note_on channel=0 note=73 velocity=0 time=20
note_on channel=0 note=67 velocity=49 time=100
note_on channel=0 note=49 velocity=40 time=0
note_on channel=0 note=64 velocity=0 time=20
note_on channel=0 note=49 velocity=0 time=100
note_on channel=0 note=73 velocity=51 time=0
note_on channel=0 note=67 velocity=0 time=20
note_on channel=0 note=76 velocity=52 time=100
note_on channel=0 note=46 velocity=40 time=0
note_on channel=0 note=73 velocity=0 time=20
note_on channel=0 note=46 velocity=0 time=100
note_on channel=0 note=67 velocity=48 time=0
note_on channel=0 note=76 velocity=0 time=20
note_on channel=0 note=73 velocity=48 time=100
note_on channel=0 note=49 velocity=37 time=0
note_on channel=0 note=67 velocity=0 time=20
note_on channel=0 note=49 velocity=0 time=100
note_on channel=0 note=76 velocity=50 time=0
note_on channel=0 note=73 velocity=0 time=20
note_on channel=0 note=79 velocity=52 time=100
note_on channel=0 note=46 velocity=40 time=0
note_on channel=0 note=76 velocity=0 time=20
note_on channel=0 note=46 velocity=0 time=100
note_on channel=0 note=73 velocity=47 time=0
note_on channel=0 note=79 velocity=0 time=20
note_on channel=0 note=76 velocity=50 time=100
note_on channel=0 note=49 velocity=37 time=0
note_on channel=0 note=73 velocity=0 time=20
note_on channel=0 note=49 velocity=0 time=100
note_on channel=0 note=79 velocity=51 time=0
note_on channel=0 note=76 velocity=0 time=20
note_on channel=0 note=85 velocity=54 time=100
note_on channel=0 note=46 velocity=40 time=0
note_on channel=0 note=79 velocity=0 time=20
note_on channel=0 note=46 velocity=0 time=100
note_on channel=0 note=76 velocity=51 time=0
note_on channel=0 note=85 velocity=0 time=20
note_on channel=0 note=79 velocity=54 time=100
note_on channel=0 note=49 velocity=38 time=0
note_on channel=0 note=76 velocity=0 time=20
note_on channel=0 note=49 velocity=0 time=100
note_on channel=0 note=85 velocity=57 time=0
note_on channel=0 note=79 velocity=0 time=20
note_on channel=0 note=85 velocity=0 time=0
note_on channel=0 note=88 velocity=110 time=0
note_on channel=0 note=76 velocity=93 time=0
note_on channel=0 note=46 velocity=83 time=0
note_on channel=0 note=34 velocity=71 time=0
control_change channel=0 control=64 value=127 time=69
note_on channel=0 note=34 velocity=0 time=51
note_on channel=0 note=88 velocity=0 time=0
note_on channel=0 note=76 velocity=0 time=0
note_on channel=0 note=46 velocity=0 time=0
note_on channel=0 note=76 velocity=73 time=120
note_on channel=0 note=88 velocity=87 time=0
note_on channel=0 note=49 velocity=72 time=0
note_on channel=0 note=49 velocity=0 time=120
note_on channel=0 note=88 velocity=0 time=0
note_on channel=0 note=76 velocity=0 time=0
note_on channel=0 note=31 velocity=39 time=0
control_change channel=0 control=64 value=0 time=0
note_on channel=0 note=31 velocity=0 time=120
note_on channel=0 note=51 velocity=50 time=0
note_on channel=0 note=51 velocity=0 time=115
note_on channel=0 note=58 velocity=51 time=5
note_on channel=0 note=51 velocity=39 time=0
note_on channel=0 note=51 velocity=0 time=120
note_on channel=0 note=61 velocity=51 time=0
note_on channel=0 note=58 velocity=0 time=20
note_on channel=0 note=63 velocity=51 time=100
note_on channel=0 note=43 velocity=40 time=0
note_on channel=0 note=61 velocity=0 time=20
note_on channel=0 note=43 velocity=0 time=100
note_on channel=0 note=58 velocity=52 time=0
note_on channel=0 note=63 velocity=0 time=20
note_on channel=0 note=61 velocity=53 time=100
note_on channel=0 note=51 velocity=42 time=0
note_on channel=0 note=58 velocity=0 time=20
note_on channel=0 note=51 velocity=0 time=100
note_on channel=0 note=63 velocity=54 time=0
note_on channel=0 note=61 velocity=0 time=20
note_on channel=0 note=70 velocity=56 time=100
note_on channel=0 note=43 velocity=43 time=0
note_on channel=0 note=63 velocity=0 time=20
note_on channel=0 note=43 velocity=0 time=100
note_on channel=0 note=61 velocity=56 time=0
note_on channel=0 note=70 velocity=0 time=20
note_on channel=0 note=63 velocity=57 time=100
note_on channel=0 note=51 velocity=43 time=0
note_on channel=0 note=61 velocity=0 time=20
note_on channel=0 note=51 velocity=0 time=100
note_on channel=0 note=70 velocity=57 time=0
note_on channel=0 note=63 velocity=0 time=20
note_on channel=0 note=73 velocity=58 time=100
note_on channel=0 note=43 velocity=45 time=0
note_on channel=0 note=70 velocity=0 time=20
note_on channel=0 note=43 velocity=0 time=100
note_on channel=0 note=63 velocity=59 time=0
note_on channel=0 note=73 velocity=0 time=20
note_on channel=0 note=70 velocity=60 time=100
note_on channel=0 note=51 velocity=45 time=0
note_on channel=0 note=63 velocity=0 time=20
note_on channel=0 note=51 velocity=0 time=100
note_on channel=0 note=73 velocity=61 time=0
note_on channel=0 note=70 velocity=0 time=20
note_on channel=0 note=75 velocity=62 time=100
note_on channel=0 note=43 velocity=47 time=0
note_on channel=0 note=73 velocity=0 time=20
note_on channel=0 note=43 velocity=0 time=100
note_on channel=0 note=70 velocity=62 time=0
note_on channel=0 note=75 velocity=0 time=20
note_on channel=0 note=73 velocity=62 time=100
note_on channel=0 note=51 velocity=48 time=0
note_on channel=0 note=70 velocity=0 time=20
note_on channel=0 note=51 velocity=0 time=100
note_on channel=0 note=75 velocity=62 time=0
note_on channel=0 note=73 velocity=0 time=20
note_on channel=0 note=82 velocity=63 time=100
note_on channel=0 note=43 velocity=49 time=0
note_on channel=0 note=75 velocity=0 time=20
note_on channel=0 note=43 velocity=0 time=100
note_on channel=0 note=73 velocity=65 time=0
note_on channel=0 note=82 velocity=0 time=20
note_on channel=0 note=75 velocity=66 time=100
note_on channel=0 note=51 velocity=51 time=0
note_on channel=0 note=73 velocity=0 time=20
note_on channel=0 note=51 velocity=0 time=100
note_on channel=0 note=82 velocity=67 time=0
note_on channel=0 note=75 velocity=0 time=20
note_on channel=0 note=85 velocity=67 time=0
note_on channel=0 note=43 velocity=51 time=0
note_on channel=0 note=82 velocity=0 time=20
note_on channel=0 note=43 velocity=0 time=0
note_on channel=0 note=82 velocity=65 time=0
note_on channel=0 note=85 velocity=0 time=20
note_on channel=0 note=75 velocity=62 time=0
note_on channel=0 note=51 velocity=48 time=0
note_on channel=0 note=82 velocity=0 time=20
note_on channel=0 note=51 velocity=0 time=0
note_on channel=0 note=73 velocity=61 time=0
note_on channel=0 note=75 velocity=0 time=20
note_on channel=0 note=82 velocity=59 time=0
note_on channel=0 note=43 velocity=47 time=0
note_on channel=0 note=73 velocity=0 time=20
note_on channel=0 note=43 velocity=0 time=0
note_on channel=0 note=75 velocity=57 time=0
note_on channel=0 note=82 velocity=0 time=20
note_on channel=0 note=73 velocity=56 time=0
note_on channel=0 note=51 velocity=45 time=0
note_on channel=0 note=75 velocity=0 time=20
note_on channel=0 note=51 velocity=0 time=0
note_on channel=0 note=70 velocity=52 time=0
note_on channel=0 note=73 velocity=0 time=20
note_on channel=0 note=71 velocity=49 time=0
note_on channel=0 note=44 velocity=33 time=0
note_on channel=0 note=70 velocity=0 time=20
note_on channel=0 note=51 velocity=25 time=100
note_on channel=0 note=44 velocity=0 time=20
note_on channel=0 note=71 velocity=0 time=100
note_on channel=0 note=47 velocity=28 time=0
note_on channel=0 note=51 velocity=0 time=20
note_on channel=0 note=51 velocity=25 time=100
note_on channel=0 note=47 velocity=0 time=20
note_on channel=0 note=75 velocity=61 time=100
note_on channel=0 note=44 velocity=35 time=0
note_on channel=0 note=51 velocity=0 time=12
control_change channel=0 control=64 value=127 time=13
note_on channel=0 note=44 velocity=0 time=86
note_on channel=0 note=51 velocity=27 time=1
note_on channel=0 note=51 velocity=0 time=119
note_on channel=0 note=47 velocity=35 time=1
note_on channel=0 note=47 velocity=0 time=119
note_on channel=0 note=51 velocity=30 time=1
note_on channel=0 note=51 velocity=0 time=119
note_on channel=0 note=44 velocity=37 time=1
note_on channel=0 note=44 velocity=0 time=119
note_on channel=0 note=51 velocity=27 time=1
note_on channel=0 note=51 velocity=0 time=119
note_on channel=0 note=47 velocity=39 time=0
note_on channel=0 note=47 velocity=0 time=119
note_on channel=0 note=51 velocity=30 time=1
note_on channel=0 note=51 velocity=0 time=119
note_on channel=0 note=71 velocity=56 time=0
note_on channel=0 note=44 velocity=39 time=0
note_on channel=0 note=75 velocity=0 time=20
note_on channel=0 note=44 velocity=0 time=99
note_on channel=0 note=51 velocity=31 time=1
note_on channel=0 note=51 velocity=0 time=119
note_on channel=0 note=47 velocity=40 time=1
note_on channel=0 note=47 velocity=0 time=119
note_on channel=0 note=71 velocity=0 time=0
note_on channel=0 note=68 velocity=56 time=0
note_on channel=0 note=51 velocity=33 time=0
note_on channel=0 note=68 velocity=0 time=60
note_on channel=0 note=67 velocity=44 time=0
note_on channel=0 note=67 velocity=0 time=20
note_on channel=0 note=68 velocity=44 time=0
note_on channel=0 note=68 velocity=0 time=20
note_on channel=0 note=70 velocity=44 time=0
note_on channel=0 note=51 velocity=0 time=19
note_on channel=0 note=70 velocity=0 time=0
note_on channel=0 note=68 velocity=63 time=0
note_on channel=0 note=46 velocity=33 time=0
control_change channel=0 control=64 value=0 time=0
note_on channel=0 note=51 velocity=26 time=120
note_on channel=0 note=46 velocity=0 time=20
note_on channel=0 note=49 velocity=29 time=100
note_on channel=0 note=51 velocity=0 time=20
note_on channel=0 note=51 velocity=26 time=100
note_on channel=0 note=49 velocity=0 time=20
note_on channel=0 note=67 velocity=56 time=0
note_on channel=0 note=46 velocity=42 time=0
note_on channel=0 note=51 velocity=0 time=20
note_on channel=0 note=68 velocity=0 time=0
control_change channel=0 control=64 value=127 time=57
note_on channel=0 note=46 velocity=0 time=42
note_on channel=0 note=51 velocity=32 time=1
note_on channel=0 note=51 velocity=0 time=119
note_on channel=0 note=49 velocity=40 time=1
note_on channel=0 note=49 velocity=0 time=119
note_on channel=0 note=51 velocity=40 time=1
note_on channel=0 note=51 velocity=0 time=119
note_on channel=0 note=46 velocity=49 time=1
note_on channel=0 note=46 velocity=0 time=119
note_on channel=0 note=51 velocity=40 time=1
note_on channel=0 note=51 velocity=0 time=119
note_on channel=0 note=67 velocity=0 time=0
note_on channel=0 note=67 velocity=56 time=0
note_on channel=0 note=49 velocity=46 time=0
note_on channel=0 note=49 velocity=0 time=119
note_on channel=0 note=51 velocity=41 time=1
note_on channel=0 note=51 velocity=0 time=119
note_on channel=0 note=75 velocity=68 time=0
note_on channel=0 note=46 velocity=56 time=0
note_on channel=0 note=67 velocity=0 time=20
note_on channel=0 note=46 velocity=0 time=99
note_on channel=0 note=51 velocity=41 time=1
note_on channel=0 note=51 velocity=0 time=119
note_on channel=0 note=49 velocity=43 time=1
note_on channel=0 note=49 velocity=0 time=119
note_on channel=0 note=75 velocity=0 time=1
note_on channel=0 note=67 velocity=57 time=0
note_on channel=0 note=51 velocity=36 time=0
note_on channel=0 note=51 velocity=0 time=119
note_on channel=0 note=67 velocity=0 time=0
note_on channel=0 note=70 velocity=51 time=0
note_on channel=0 note=47 velocity=33 time=0
control_change channel=0 control=64 value=0 time=0
control_change channel=0 control=64 value=127 time=78
note_on channel=0 note=47 velocity=0 time=41
note_on channel=0 note=51 velocity=29 time=1
note_on channel=0 note=51 velocity=0 time=119
note_on channel=0 note=47 velocity=30 time=1
note_on channel=0 note=47 velocity=0 time=119
note_on channel=0 note=51 velocity=26 time=1
note_on channel=0 note=51 velocity=0 time=119
note_on channel=0 note=68 velocity=56 time=0
note_on channel=0 note=47 velocity=41 time=0
note_on channel=0 note=70 velocity=0 time=20
control_change channel=0 control=64 value=0 time=8
control_change channel=0 control=64 value=127 time=85
note_on channel=0 note=47 velocity=0 time=6
note_on channel=0 note=51 velocity=32 time=1
note_on channel=0 note=51 velocity=0 time=119
note_on channel=0 note=47 velocity=39 time=1
note_on channel=0 note=47 velocity=0 time=119
note_on channel=0 note=51 velocity=36 time=1
note_on channel=0 note=51 velocity=0 time=119
note_on channel=0 note=47 velocity=49 time=1
note_on channel=0 note=47 velocity=0 time=119
note_on channel=0 note=51 velocity=38 time=1
note_on channel=0 note=51 velocity=0 time=119
note_on channel=0 note=68 velocity=0 time=0
note_on channel=0 note=68 velocity=53 time=0
note_on channel=0 note=47 velocity=48 time=0
note_on channel=0 note=47 velocity=0 time=119
note_on channel=0 note=51 velocity=42 time=1
note_on channel=0 note=51 velocity=0 time=119
note_on channel=0 note=75 velocity=68 time=0
note_on channel=0 note=47 velocity=54 time=0
note_on channel=0 note=68 velocity=0 time=20
note_on channel=0 note=47 velocity=0 time=99
note_on channel=0 note=51 velocity=41 time=1
note_on channel=0 note=51 velocity=0 time=119
note_on channel=0 note=47 velocity=43 time=1
note_on channel=0 note=47 velocity=0 time=119
note_on channel=0 note=75 velocity=0 time=1
note_on channel=0 note=68 velocity=56 time=0
note_on channel=0 note=51 velocity=35 time=0
note_on channel=0 note=51 velocity=0 time=119
note_on channel=0 note=68 velocity=0 time=0
note_on channel=0 note=71 velocity=57 time=0
note_on channel=0 note=43 velocity=32 time=0
control_change channel=0 control=64 value=0 time=0
control_change channel=0 control=64 value=127 time=80
note_on channel=0 note=43 velocity=0 time=39
note_on channel=0 note=51 velocity=29 time=1
note_on channel=0 note=51 velocity=0 time=119
note_on channel=0 note=43 velocity=29 time=1
note_on channel=0 note=43 velocity=0 time=119
note_on channel=0 note=51 velocity=26 time=1
note_on channel=0 note=51 velocity=0 time=119
note_on channel=0 note=70 velocity=56 time=0
note_on channel=0 note=43 velocity=41 time=0
control_change channel=0 control=64 value=0 time=17
note_on channel=0 note=71 velocity=0 time=3
control_change channel=0 control=64 value=127 time=72
note_on channel=0 note=43 velocity=0 time=27
note_on channel=0 note=51 velocity=40 time=1
note_on channel=0 note=51 velocity=0 time=119
note_on channel=0 note=43 velocity=42 time=1
note_on channel=0 note=43 velocity=0 time=119
note_on channel=0 note=51 velocity=40 time=1
note_on channel=0 note=51 velocity=0 time=119
note_on channel=0 note=43 velocity=48 time=1
note_on channel=0 note=43 velocity=0 time=119
note_on channel=0 note=51 velocity=43 time=1
note_on channel=0 note=51 velocity=0 time=119
note_on channel=0 note=70 velocity=0 time=0
note_on channel=0 note=70 velocity=57 time=0
note_on channel=0 note=43 velocity=49 time=0
note_on channel=0 note=43 velocity=0 time=119
note_on channel=0 note=51 velocity=42 time=1
note_on channel=0 note=51 velocity=0 time=119
note_on channel=0 note=75 velocity=53 time=1
note_on channel=0 note=43 velocity=54 time=0
note_on channel=0 note=70 velocity=0 time=20
note_on channel=0 note=43 velocity=0 time=99
note_on channel=0 note=51 velocity=38 time=1
note_on channel=0 note=51 velocity=0 time=119
note_on channel=0 note=43 velocity=42 time=1
note_on channel=0 note=43 velocity=0 time=119
note_on channel=0 note=75 velocity=0 time=1
note_on channel=0 note=70 velocity=57 time=0
note_on channel=0 note=51 velocity=35 time=0
note_on channel=0 note=51 velocity=0 time=119
note_on channel=0 note=70 velocity=0 time=0
note_on channel=0 note=71 velocity=59 time=0
note_on channel=0 note=44 velocity=39 time=0
control_change channel=0 control=64 value=0 time=0
note_on channel=0 note=51 velocity=33 time=120
note_on channel=0 note=44 velocity=0 time=20
note_on channel=0 note=71 velocity=0 time=100
note_on channel=0 note=87 velocity=59 time=0
note_on channel=0 note=75 velocity=49 time=0
note_on channel=0 note=47 velocity=35 time=0
note_on channel=0 note=51 velocity=0 time=20
control_change channel=0 control=64 value=127 time=1
note_on channel=0 note=47 velocity=0 time=98
note_on channel=0 note=51 velocity=31 time=1
note_on channel=0 note=51 velocity=0 time=119
note_on channel=0 note=44 velocity=40 time=1
note_on channel=0 note=44 velocity=0 time=119
note_on channel=0 note=51 velocity=31 time=1
note_on channel=0 note=51 velocity=0 time=119
note_on channel=0 note=75 velocity=0 time=1
note_on channel=0 note=87 velocity=0 time=0
note_on channel=0 note=75 velocity=49 time=0
note_on channel=0 note=87 velocity=58 time=0
note_on channel=0 note=47 velocity=34 time=0
note_on channel=0 note=47 velocity=0 time=119
note_on channel=0 note=51 velocity=31 time=1
note_on channel=0 note=51 velocity=0 time=119
note_on channel=0 note=44 velocity=41 time=1
note_on channel=0 note=44 velocity=0 time=119
note_on channel=0 note=51 velocity=32 time=1
note_on channel=0 note=51 velocity=0 time=119
note_on channel=0 note=87 velocity=0 time=0
note_on channel=0 note=75 velocity=0 time=0
note_on channel=0 note=75 velocity=47 time=0
note_on channel=0 note=87 velocity=56 time=0
note_on channel=0 note=47 velocity=35 time=0
note_on channel=0 note=47 velocity=0 time=119
note_on channel=0 note=87 velocity=0 time=1
note_on channel=0 note=75 velocity=0 time=0
note_on channel=0 note=51 velocity=32 time=0
note_on channel=0 note=51 velocity=0 time=119
note_on channel=0 note=71 velocity=49 time=1
note_on channel=0 note=83 velocity=58 time=0
note_on channel=0 note=44 velocity=43 time=0
control_change channel=0 control=64 value=0 time=0
note_on channel=0 note=83 velocity=0 time=120
note_on channel=0 note=71 velocity=0 time=0
note_on channel=0 note=51 velocity=33 time=0
note_on channel=0 note=44 velocity=0 time=20
note_on channel=0 note=80 velocity=59 time=100
note_on channel=0 note=68 velocity=49 time=0
note_on channel=0 note=47 velocity=37 time=0
note_on channel=0 note=51 velocity=0 time=20
note_on channel=0 note=80 velocity=0 time=100
note_on channel=0 note=68 velocity=0 time=0
note_on channel=0 note=51 velocity=33 time=0
note_on channel=0 note=47 velocity=0 time=20
note_on channel=0 note=68 velocity=51 time=100
note_on channel=0 note=80 velocity=61 time=0
note_on channel=0 note=46 velocity=46 time=0
note_on channel=0 note=51 velocity=0 time=20
note_on channel=0 note=68 velocity=0 time=100
note_on channel=0 note=80 velocity=0 time=0
note_on channel=0 note=51 velocity=34 time=0
note_on channel=0 note=46 velocity=0 time=20
note_on channel=0 note=67 velocity=52 time=0
note_on channel=0 note=79 velocity=62 time=0
note_on channel=0 note=49 velocity=39 time=0
note_on channel=0 note=51 velocity=0 time=20
control_change channel=0 control=64 value=127 time=43
note_on channel=0 note=49 velocity=0 time=56
note_on channel=0 note=51 velocity=34 time=1
note_on channel=0 note=51 velocity=0 time=119
note_on channel=0 note=46 velocity=47 time=1
note_on channel=0 note=46 velocity=0 time=119
note_on channel=0 note=51 velocity=35 time=1
note_on channel=0 note=51 velocity=0 time=119
note_on channel=0 note=79 velocity=0 time=1
note_on channel=0 note=67 velocity=0 time=0
note_on channel=0 note=79 velocity=68 time=0
note_on channel=0 note=67 velocity=57 time=0
note_on channel=0 note=49 velocity=40 time=0
note_on channel=0 note=49 velocity=0 time=119
note_on channel=0 note=51 velocity=40 time=1
note_on channel=0 note=51 velocity=0 time=119
note_on channel=0 note=46 velocity=49 time=1
note_on channel=0 note=46 velocity=0 time=119
note_on channel=0 note=51 velocity=35 time=1
note_on channel=0 note=51 velocity=0 time=119
note_on channel=0 note=67 velocity=0 time=0
note_on channel=0 note=79 velocity=0 time=0
note_on channel=0 note=79 velocity=69 time=0
note_on channel=0 note=67 velocity=58 time=0
note_on channel=0 note=49 velocity=41 time=0
note_on channel=0 note=49 velocity=0 time=119
note_on channel=0 note=67 velocity=0 time=1
note_on channel=0 note=79 velocity=0 time=0
note_on channel=0 note=51 velocity=35 time=0
note_on channel=0 note=51 velocity=0 time=119
note_on channel=0 note=75 velocity=60 time=1
note_on channel=0 note=87 velocity=71 time=0
note_on channel=0 note=46 velocity=50 time=0
control_change channel=0 control=64 value=0 time=17
note_on channel=0 note=87 velocity=0 time=103
note_on channel=0 note=75 velocity=0 time=0
note_on channel=0 note=51 velocity=42 time=0
note_on channel=0 note=46 velocity=0 time=20
note_on channel=0 note=67 velocity=61 time=100
note_on channel=0 note=79 velocity=73 time=0
note_on channel=0 note=49 velocity=45 time=0
note_on channel=0 note=51 velocity=0 time=20
note_on channel=0 note=67 velocity=0 time=100
note_on channel=0 note=79 velocity=0 time=0
note_on channel=0 note=51 velocity=42 time=0
note_on channel=0 note=49 velocity=0 time=20
note_on channel=0 note=82 velocity=74 time=100
note_on channel=0 note=70 velocity=62 time=0
note_on channel=0 note=47 velocity=51 time=0
note_on channel=0 note=51 velocity=0 time=20
note_on channel=0 note=82 velocity=0 time=100
note_on channel=0 note=70 velocity=0 time=0
note_on channel=0 note=51 velocity=43 time=0
note_on channel=0 note=47 velocity=0 time=20
note_on channel=0 note=68 velocity=63 time=0
note_on channel=0 note=80 velocity=75 time=0
note_on channel=0 note=47 velocity=47 time=0
note_on channel=0 note=51 velocity=0 time=20
control_change channel=0 control=64 value=127 time=37
note_on channel=0 note=47 velocity=0 time=62
note_on channel=0 note=51 velocity=43 time=1
note_on channel=0 note=51 velocity=0 time=119
note_on channel=0 note=47 velocity=52 time=1
note_on channel=0 note=47 velocity=0 time=119
note_on channel=0 note=51 velocity=44 time=1
note_on channel=0 note=51 velocity=0 time=119
note_on channel=0 note=80 velocity=0 time=1
note_on channel=0 note=68 velocity=0 time=0
note_on channel=0 note=68 velocity=68 time=0
note_on channel=0 note=80 velocity=80 time=0
note_on channel=0 note=47 velocity=48 time=0
note_on channel=0 note=47 velocity=0 time=119
note_on channel=0 note=51 velocity=44 time=1
note_on channel=0 note=51 velocity=0 time=119
note_on channel=0 note=47 velocity=56 time=1
note_on channel=0 note=47 velocity=0 time=119
note_on channel=0 note=51 velocity=46 time=1
note_on channel=0 note=51 velocity=0 time=119
note_on channel=0 note=80 velocity=0 time=0
note_on channel=0 note=68 velocity=0 time=0
note_on channel=0 note=80 velocity=82 time=0
note_on channel=0 note=68 velocity=69 time=0
note_on channel=0 note=47 velocity=50 time=0
control_change channel=0 control=64 value=0 time=29
note_on channel=0 note=68 velocity=0 time=91
note_on channel=0 note=80 velocity=0 time=0
note_on channel=0 note=51 velocity=45 time=0
note_on channel=0 note=47 velocity=0 time=20
note_on channel=0 note=87 velocity=85 time=100
note_on channel=0 note=75 velocity=72 time=0
note_on channel=0 note=47 velocity=57 time=0
note_on channel=0 note=51 velocity=0 time=20
note_on channel=0 note=87 velocity=0 time=100
note_on channel=0 note=75 velocity=0 time=0
note_on channel=0 note=51 velocity=47 time=0
note_on channel=0 note=47 velocity=0 time=20
note_on channel=0 note=68 velocity=73 time=100
note_on channel=0 note=80 velocity=86 time=0
note_on channel=0 note=47 velocity=51 time=0
note_on channel=0 note=51 velocity=0 time=20
note_on channel=0 note=68 velocity=0 time=100
note_on channel=0 note=80 velocity=0 time=0
note_on channel=0 note=51 velocity=47 time=0
note_on channel=0 note=47 velocity=0 time=20
note_on channel=0 note=71 velocity=73 time=100
note_on channel=0 note=83 velocity=86 time=0
note_on channel=0 note=43 velocity=59 time=0
note_on channel=0 note=51 velocity=0 time=20
note_on channel=0 note=71 velocity=0 time=100
note_on channel=0 note=83 velocity=0 time=0
note_on channel=0 note=51 velocity=52 time=0
note_on channel=0 note=43 velocity=0 time=20
note_on channel=0 note=70 velocity=74 time=0
note_on channel=0 note=82 velocity=89 time=0
note_on channel=0 note=43 velocity=56 time=0
note_on channel=0 note=51 velocity=0 time=20
note_on channel=0 note=43 velocity=0 time=99
note_on channel=0 note=51 velocity=51 time=1
control_change channel=0 control=64 value=127 time=12
note_on channel=0 note=51 velocity=0 time=107
note_on channel=0 note=43 velocity=60 time=1
note_on channel=0 note=43 velocity=0 time=119
note_on channel=0 note=51 velocity=53 time=1
note_on channel=0 note=51 velocity=0 time=119
note_on channel=0 note=82 velocity=0 time=1
note_on channel=0 note=70 velocity=0 time=0
note_on channel=0 note=70 velocity=79 time=0
note_on channel=0 note=82 velocity=93 time=0
note_on channel=0 note=43 velocity=57 time=0
note_on channel=0 note=43 velocity=0 time=119
note_on channel=0 note=51 velocity=52 time=1
note_on channel=0 note=51 velocity=0 time=119
note_on channel=0 note=43 velocity=62 time=1
note_on channel=0 note=43 velocity=0 time=119
note_on channel=0 note=51 velocity=54 time=1
note_on channel=0 note=51 velocity=0 time=119
note_on channel=0 note=82 velocity=0 time=0
note_on channel=0 note=70 velocity=0 time=0
note_on channel=0 note=70 velocity=79 time=0
note_on channel=0 note=82 velocity=93 time=0
note_on channel=0 note=43 velocity=59 time=0
control_change channel=0 control=64 value=0 time=23
note_on channel=0 note=82 velocity=0 time=97
note_on channel=0 note=70 velocity=0 time=0
note_on channel=0 note=51 velocity=53 time=0
note_on channel=0 note=43 velocity=0 time=20
note_on channel=0 note=87 velocity=93 time=100
note_on channel=0 note=75 velocity=93 time=0
note_on channel=0 note=43 velocity=62 time=0
note_on channel=0 note=51 velocity=0 time=20
note_on channel=0 note=87 velocity=0 time=100
note_on channel=0 note=75 velocity=0 time=0
note_on channel=0 note=51 velocity=54 time=0
note_on channel=0 note=43 velocity=0 time=20
note_on channel=0 note=82 velocity=93 time=100
note_on channel=0 note=70 velocity=79 time=0
note_on channel=0 note=43 velocity=60 time=0
note_on channel=0 note=51 velocity=0 time=20
note_on channel=0 note=82 velocity=0 time=100
note_on channel=0 note=70 velocity=0 time=0
note_on channel=0 note=51 velocity=53 time=0
note_on channel=0 note=43 velocity=0 time=20
note_on channel=0 note=72 velocity=80 time=0
note_on channel=0 note=84 velocity=95 time=0
note_on channel=0 note=42 velocity=66 time=0
note_on channel=0 note=51 velocity=0 time=20
note_on channel=0 note=51 velocity=57 time=100
note_on channel=0 note=42 velocity=0 time=20
note_on channel=0 note=44 velocity=61 time=100
note_on channel=0 note=51 velocity=0 time=20
note_on channel=0 note=51 velocity=56 time=100
note_on channel=0 note=44 velocity=0 time=20
note_on channel=0 note=42 velocity=66 time=100
note_on channel=0 note=51 velocity=0 time=20
note_on channel=0 note=51 velocity=56 time=100
note_on channel=0 note=42 velocity=0 time=20
note_on channel=0 note=44 velocity=61 time=100
note_on channel=0 note=51 velocity=0 time=20
note_on channel=0 note=51 velocity=56 time=100
note_on channel=0 note=44 velocity=0 time=20
note_on channel=0 note=72 velocity=0 time=100
note_on channel=0 note=84 velocity=0 time=0
note_on channel=0 note=73 velocity=80 time=0
note_on channel=0 note=85 velocity=95 time=0
note_on channel=0 note=40 velocity=66 time=0
note_on channel=0 note=51 velocity=0 time=20
note_on channel=0 note=49 velocity=58 time=100
note_on channel=0 note=40 velocity=0 time=20
note_on channel=0 note=44 velocity=62 time=100
note_on channel=0 note=49 velocity=0 time=20
note_on channel=0 note=49 velocity=56 time=100
note_on channel=0 note=44 velocity=0 time=20
note_on channel=0 note=40 velocity=66 time=100
note_on channel=0 note=49 velocity=0 time=20
note_on channel=0 note=49 velocity=56 time=100
note_on channel=0 note=40 velocity=0 time=20
note_on channel=0 note=44 velocity=61 time=100
note_on channel=0 note=49 velocity=0 time=20
note_on channel=0 note=49 velocity=61 time=100
note_on channel=0 note=44 velocity=0 time=20
note_on channel=0 note=73 velocity=0 time=0
note_on channel=0 note=85 velocity=0 time=0
note_on channel=0 note=70 velocity=68 time=0
note_on channel=0 note=82 velocity=80 time=0
note_on channel=0 note=40 velocity=66 time=0
control_change channel=0 control=64 value=0 time=0
note_on channel=0 note=49 velocity=0 time=20
control_change channel=0 control=64 value=127 time=23
note_on channel=0 note=82 velocity=0 time=22
note_on channel=0 note=83 velocity=75 time=0
note_on channel=0 note=40 velocity=0 time=54
note_on channel=0 note=49 velocity=56 time=1
note_on channel=0 note=83 velocity=0 time=9
note_on channel=0 note=82 velocity=80 time=0
note_on channel=0 note=82 velocity=0 time=65
note_on channel=0 note=83 velocity=80 time=0
note_on channel=0 note=49 velocity=0 time=45
note_on channel=0 note=42 velocity=61 time=1
note_on channel=0 note=83 velocity=0 time=18
note_on channel=0 note=82 velocity=80 time=17
note_on channel=0 note=80 velocity=75 time=72
note_on channel=0 note=82 velocity=0 time=6
note_on channel=0 note=42 velocity=0 time=6
note_on channel=0 note=49 velocity=54 time=1
note_on channel=0 note=82 velocity=75 time=53
note_on channel=0 note=80 velocity=0 time=11
note_on channel=0 note=49 velocity=0 time=55
note_on channel=0 note=70 velocity=0 time=0
note_on channel=0 note=82 velocity=0 time=0
note_on channel=0 note=71 velocity=80 time=0
note_on channel=0 note=83 velocity=95 time=0
note_on channel=0 note=39 velocity=66 time=0
control_change channel=0 control=64 value=0 time=17
note_on channel=0 note=47 velocity=56 time=103
note_on channel=0 note=39 velocity=0 time=20
note_on channel=0 note=42 velocity=62 time=100
note_on channel=0 note=47 velocity=0 time=20
note_on channel=0 note=47 velocity=56 time=100
note_on channel=0 note=42 velocity=0 time=20
note_on channel=0 note=39 velocity=66 time=100
note_on channel=0 note=47 velocity=0 time=20
note_on channel=0 note=47 velocity=56 time=100
note_on channel=0 note=39 velocity=0 time=20
note_on channel=0 note=42 velocity=61 time=100
note_on channel=0 note=47 velocity=0 time=20
note_on channel=0 note=47 velocity=56 time=100
note_on channel=0 note=42 velocity=0 time=20
note_on channel=0 note=39 velocity=66 time=100
note_on channel=0 note=47 velocity=0 time=20
note_on channel=0 note=47 velocity=54 time=100
note_on channel=0 note=39 velocity=0 time=20
note_on channel=0 note=42 velocity=60 time=100
note_on channel=0 note=47 velocity=0 time=20
note_on channel=0 note=47 velocity=60 time=100
note_on channel=0 note=42 velocity=0 time=20
note_on channel=0 note=71 velocity=0 time=0
note_on channel=0 note=83 velocity=0 time=0
note_on channel=0 note=80 velocity=95 time=0
note_on channel=0 note=68 velocity=80 time=0
note_on channel=0 note=38 velocity=66 time=0
control_change channel=0 control=64 value=0 time=0
note_on channel=0 note=47 velocity=0 time=20
note_on channel=0 note=47 velocity=56 time=100
note_on channel=0 note=38 velocity=0 time=20
note_on channel=0 note=40 velocity=62 time=100
note_on channel=0 note=47 velocity=0 time=20
note_on channel=0 note=47 velocity=54 time=100
note_on channel=0 note=40 velocity=0 time=20
note_on channel=0 note=38 velocity=66 time=100
note_on channel=0 note=47 velocity=0 time=20
note_on channel=0 note=47 velocity=56 time=100
note_on channel=0 note=38 velocity=0 time=20
note_on channel=0 note=40 velocity=62 time=100
note_on channel=0 note=47 velocity=0 time=20
note_on channel=0 note=47 velocity=56 time=100
note_on channel=0 note=40 velocity=0 time=20
note_on channel=0 note=80 velocity=0 time=0
note_on channel=0 note=68 velocity=0 time=0
note_on channel=0 note=69 velocity=80 time=0
note_on channel=0 note=81 velocity=94 time=0
note_on channel=0 note=37 velocity=66 time=0
note_on channel=0 note=47 velocity=0 time=20
note_on channel=0 note=45 velocity=56 time=100
note_on channel=0 note=37 velocity=0 time=20
note_on channel=0 note=40 velocity=62 time=100
note_on channel=0 note=45 velocity=0 time=20
note_on channel=0 note=45 velocity=56 time=100
note_on channel=0 note=40 velocity=0 time=20
note_on channel=0 note=37 velocity=66 time=100
note_on channel=0 note=45 velocity=0 time=20
note_on channel=0 note=45 velocity=56 time=100
note_on channel=0 note=37 velocity=0 time=20
note_on channel=0 note=40 velocity=62 time=100
note_on channel=0 note=45 velocity=0 time=20
note_on channel=0 note=45 velocity=56 time=100
note_on channel=0 note=40 velocity=0 time=20
note_on channel=0 note=69 velocity=0 time=0
note_on channel=0 note=81 velocity=0 time=0
note_on channel=0 note=67 velocity=68 time=0
note_on channel=0 note=79 velocity=80 time=0
note_on channel=0 note=37 velocity=66 time=0
note_on channel=0 note=45 velocity=0 time=20
control_change channel=0 control=64 value=0 time=9
control_change channel=0 control=64 value=127 time=20
note_on channel=0 note=79 velocity=0 time=16
note_on channel=0 note=80 velocity=75 time=0
note_on channel=0 note=37 velocity=0 time=54
note_on channel=0 note=46 velocity=56 time=1
note_on channel=0 note=79 velocity=80 time=9
note_on channel=0 note=80 velocity=0 time=1
note_on channel=0 note=79 velocity=0 time=64
note_on channel=0 note=80 velocity=80 time=0
note_on channel=0 note=46 velocity=0 time=45
note_on channel=0 note=39 velocity=60 time=1
note_on channel=0 note=80 velocity=0 time=19
note_on channel=0 note=79 velocity=80 time=16
note_on channel=0 note=77 velocity=75 time=72
note_on channel=0 note=79 velocity=0 time=6
note_on channel=0 note=39 velocity=0 time=6
note_on channel=0 note=46 velocity=56 time=1
note_on channel=0 note=79 velocity=75 time=53
note_on channel=0 note=77 velocity=0 time=12
note_on channel=0 note=46 velocity=0 time=54
note_on channel=0 note=67 velocity=0 time=0
note_on channel=0 note=79 velocity=0 time=0
note_on channel=0 note=80 velocity=95 time=0
note_on channel=0 note=68 velocity=80 time=0
note_on channel=0 note=35 velocity=66 time=0
control_change channel=0 control=64 value=0 time=15
note_on channel=0 note=44 velocity=56 time=105
note_on channel=0 note=35 velocity=0 time=20
note_on channel=0 note=39 velocity=61 time=100
note_on channel=0 note=44 velocity=0 time=20
note_on channel=0 note=44 velocity=56 time=100
note_on channel=0 note=39 velocity=0 time=20
note_on channel=0 note=35 velocity=66 time=100
note_on channel=0 note=44 velocity=0 time=20
note_on channel=0 note=44 velocity=56 time=100
note_on channel=0 note=35 velocity=0 time=20
note_on channel=0 note=39 velocity=61 time=100
note_on channel=0 note=44 velocity=0 time=20
note_on channel=0 note=44 velocity=54 time=100
note_on channel=0 note=39 velocity=0 time=20
note_on channel=0 note=35 velocity=66 time=100
note_on channel=0 note=44 velocity=0 time=20
note_on channel=0 note=44 velocity=56 time=100
note_on channel=0 note=35 velocity=0 time=20
note_on channel=0 note=39 velocity=61 time=100
note_on channel=0 note=44 velocity=0 time=20
note_on channel=0 note=44 velocity=54 time=100
note_on channel=0 note=39 velocity=0 time=20
note_on channel=0 note=80 velocity=0 time=100
note_on channel=0 note=68 velocity=0 time=0
note_on channel=0 note=44 velocity=0 time=0
note_on channel=0 note=76 velocity=100 time=0
note_on channel=0 note=69 velocity=83 time=0
note_on channel=0 note=73 velocity=100 time=0
note_on channel=0 note=81 velocity=100 time=0
note_on channel=0 note=45 velocity=75 time=0
note_on channel=0 note=49 velocity=75 time=0
note_on channel=0 note=40 velocity=64 time=0
note_on channel=0 note=37 velocity=64 time=0
control_change channel=0 control=64 value=0 time=64
note_on channel=0 note=81 velocity=0 time=1016
note_on channel=0 note=73 velocity=0 time=0
note_on channel=0 note=76 velocity=0 time=0
note_on channel=0 note=69 velocity=0 time=0
note_on channel=0 note=76 velocity=48 time=0
note_on channel=0 note=76 velocity=0 time=120
note_on channel=0 note=78 velocity=49 time=0
note_on channel=0 note=78 velocity=0 time=120
note_on channel=0 note=80 velocity=51 time=0
note_on channel=0 note=80 velocity=0 time=120
note_on channel=0 note=40 velocity=0 time=0
note_on channel=0 note=37 velocity=0 time=0
note_on channel=0 note=49 velocity=0 time=0
note_on channel=0 note=45 velocity=0 time=0
note_on channel=0 note=81 velocity=51 time=0
note_on channel=0 note=81 velocity=0 time=120
note_on channel=0 note=83 velocity=52 time=0
note_on channel=0 note=83 velocity=0 time=120
note_on channel=0 note=85 velocity=53 time=0
note_on channel=0 note=85 velocity=0 time=120
note_on channel=0 note=83 velocity=51 time=0
note_on channel=0 note=83 velocity=0 time=120
note_on channel=0 note=81 velocity=49 time=0
note_on channel=0 note=64 velocity=42 time=0
note_on channel=0 note=61 velocity=42 time=0
note_on channel=0 note=69 velocity=50 time=0
note_on channel=0 note=81 velocity=0 time=120
note_on channel=0 note=76 velocity=47 time=0
note_on channel=0 note=76 velocity=0 time=120
note_on channel=0 note=78 velocity=48 time=0
note_on channel=0 note=78 velocity=0 time=120
note_on channel=0 note=80 velocity=48 time=0
note_on channel=0 note=69 velocity=0 time=116
note_on channel=0 note=64 velocity=0 time=4
note_on channel=0 note=61 velocity=0 time=0
note_on channel=0 note=80 velocity=0 time=0
note_on channel=0 note=81 velocity=49 time=0
note_on channel=0 note=81 velocity=0 time=120
note_on channel=0 note=83 velocity=50 time=0
note_on channel=0 note=83 velocity=0 time=120
note_on channel=0 note=85 velocity=51 time=0
note_on channel=0 note=85 velocity=0 time=120
note_on channel=0 note=83 velocity=50 time=0
note_on channel=0 note=83 velocity=0 time=120
note_on channel=0 note=81 velocity=48 time=0
note_on channel=0 note=69 velocity=49 time=0
note_on channel=0 note=64 velocity=41 time=0
note_on channel=0 note=61 velocity=41 time=0
note_on channel=0 note=81 velocity=0 time=120
note_on channel=0 note=76 velocity=49 time=0
note_on channel=0 note=76 velocity=0 time=120
note_on channel=0 note=78 velocity=50 time=0
note_on channel=0 note=78 velocity=0 time=120
note_on channel=0 note=80 velocity=50 time=0
note_on channel=0 note=80 velocity=0 time=120
note_on channel=0 note=61 velocity=0 time=0
note_on channel=0 note=64 velocity=0 time=0
note_on channel=0 note=69 velocity=0 time=0
note_on channel=0 note=81 velocity=51 time=0
note_on channel=0 note=81 velocity=0 time=120
note_on channel=0 note=83 velocity=51 time=0
note_on channel=0 note=83 velocity=0 time=120
note_on channel=0 note=85 velocity=51 time=0
note_on channel=0 note=85 velocity=0 time=120
note_on channel=0 note=83 velocity=49 time=0
note_on channel=0 note=83 velocity=0 time=120
note_on channel=0 note=81 velocity=47 time=0
note_on channel=0 note=69 velocity=49 time=0
note_on channel=0 note=64 velocity=41 time=0
note_on channel=0 note=61 velocity=41 time=0
note_on channel=0 note=81 velocity=0 time=120
note_on channel=0 note=76 velocity=48 time=0
note_on channel=0 note=76 velocity=0 time=120
note_on channel=0 note=78 velocity=51 time=0
note_on channel=0 note=78 velocity=0 time=120
note_on channel=0 note=80 velocity=51 time=0
note_on channel=0 note=80 velocity=0 time=120
note_on channel=0 note=61 velocity=0 time=0
note_on channel=0 note=64 velocity=0 time=0
note_on channel=0 note=69 velocity=0 time=0
note_on channel=0 note=81 velocity=54 time=0
note_on channel=0 note=69 velocity=52 time=0
note_on channel=0 note=64 velocity=44 time=0
note_on channel=0 note=61 velocity=44 time=0
note_on channel=0 note=81 velocity=0 time=120
note_on channel=0 note=83 velocity=56 time=0
note_on channel=0 note=83 velocity=0 time=120
note_on channel=0 note=85 velocity=57 time=0
note_on channel=0 note=85 velocity=0 time=120
note_on channel=0 note=86 velocity=60 time=0
note_on channel=0 note=86 velocity=0 time=120
note_on channel=0 note=61 velocity=0 time=0
note_on channel=0 note=64 velocity=0 time=0
note_on channel=0 note=69 velocity=0 time=0
note_on channel=0 note=88 velocity=61 time=0
note_on channel=0 note=69 velocity=60 time=0
note_on channel=0 note=64 velocity=51 time=0
note_on channel=0 note=61 velocity=51 time=0
note_on channel=0 note=88 velocity=0 time=120
note_on channel=0 note=87 velocity=59 time=0
note_on channel=0 note=87 velocity=0 time=120
note_on channel=0 note=88 velocity=57 time=0
note_on channel=0 note=88 velocity=0 time=120
note_on channel=0 note=87 velocity=56 time=0
note_on channel=0 note=87 velocity=0 time=120
note_on channel=0 note=61 velocity=0 time=0
note_on channel=0 note=64 velocity=0 time=0
note_on channel=0 note=69 velocity=0 time=0
note_on channel=0 note=88 velocity=54 time=0
note_on channel=0 note=61 velocity=47 time=0
note_on channel=0 note=69 velocity=56 time=0
note_on channel=0 note=64 velocity=47 time=0
note_on channel=0 note=88 velocity=0 time=120
note_on channel=0 note=85 velocity=52 time=0
note_on channel=0 note=85 velocity=0 time=120
note_on channel=0 note=83 velocity=51 time=0
note_on channel=0 note=83 velocity=0 time=120
note_on channel=0 note=81 velocity=50 time=0
note_on channel=0 note=81 velocity=0 time=120
note_on channel=0 note=64 velocity=0 time=0
note_on channel=0 note=69 velocity=0 time=0
note_on channel=0 note=61 velocity=0 time=0
note_on channel=0 note=80 velocity=48 time=0
note_on channel=0 note=63 velocity=49 time=0
control_change channel=0 control=64 value=127 time=63
note_on channel=0 note=63 velocity=0 time=57
note_on channel=0 note=71 velocity=43 time=0
note_on channel=0 note=71 velocity=0 time=120
note_on channel=0 note=68 velocity=49 time=0
note_on channel=0 note=68 velocity=0 time=120
note_on channel=0 note=71 velocity=49 time=0
note_on channel=0 note=71 velocity=0 time=120
note_on channel=0 note=63 velocity=51 time=0
note_on channel=0 note=63 velocity=0 time=120
note_on channel=0 note=71 velocity=44 time=0
note_on channel=0 note=71 velocity=0 time=120
note_on channel=0 note=68 velocity=47 time=0
note_on channel=0 note=68 velocity=0 time=120
note_on channel=0 note=71 velocity=43 time=0
note_on channel=0 note=71 velocity=0 time=0
note_on channel=0 note=80 velocity=0 time=0
note_on channel=0 note=82 velocity=50 time=0
note_on channel=0 note=63 velocity=51 time=0
control_change channel=0 control=64 value=0 time=15
control_change channel=0 control=64 value=127 time=45
note_on channel=0 note=82 velocity=0 time=20
note_on channel=0 note=83 velocity=50 time=0
note_on channel=0 note=63 velocity=0 time=40
note_on channel=0 note=73 velocity=44 time=0
note_on channel=0 note=83 velocity=0 time=40
note_on channel=0 note=82 velocity=50 time=0
note_on channel=0 note=82 velocity=0 time=75
note_on channel=0 note=83 velocity=50 time=0
note_on channel=0 note=73 velocity=0 time=5
note_on channel=0 note=67 velocity=48 time=0
note_on channel=0 note=83 velocity=0 time=70
note_on channel=0 note=82 velocity=50 time=0
note_on channel=0 note=67 velocity=0 time=50
note_on channel=0 note=73 velocity=44 time=0
note_on channel=0 note=82 velocity=0 time=25
note_on channel=0 note=83 velocity=50 time=0
note_on channel=0 note=83 velocity=0 time=75
note_on channel=0 note=82 velocity=50 time=0
note_on channel=0 note=73 velocity=0 time=20
note_on channel=0 note=63 velocity=51 time=0
note_on channel=0 note=82 velocity=0 time=50
note_on channel=0 note=83 velocity=48 time=0
note_on channel=0 note=83 velocity=0 time=70
note_on channel=0 note=63 velocity=0 time=0
note_on channel=0 note=82 velocity=49 time=0
note_on channel=0 note=73 velocity=45 time=0
note_on channel=0 note=82 velocity=0 time=60
note_on channel=0 note=83 velocity=50 time=0
note_on channel=0 note=83 velocity=0 time=60
note_on channel=0 note=73 velocity=0 time=0
note_on channel=0 note=82 velocity=51 time=0
note_on channel=0 note=67 velocity=48 time=0
note_on channel=0 note=82 velocity=0 time=60
note_on channel=0 note=83 velocity=51 time=0
note_on channel=0 note=83 velocity=0 time=60
note_on channel=0 note=67 velocity=0 time=0
note_on channel=0 note=82 velocity=51 time=0
note_on channel=0 note=73 velocity=45 time=0
note_on channel=0 note=82 velocity=0 time=60
note_on channel=0 note=83 velocity=52 time=0
note_on channel=0 note=83 velocity=0 time=0
note_on channel=0 note=73 velocity=0 time=0
note_on channel=0 note=80 velocity=56 time=0
note_on channel=0 note=71 velocity=56 time=0
note_on channel=0 note=64 velocity=47 time=0
note_on channel=0 note=68 velocity=56 time=0
control_change channel=0 control=64 value=0 time=11
note_on channel=0 note=68 velocity=0 time=229
note_on channel=0 note=80 velocity=0 time=0
note_on channel=0 note=71 velocity=0 time=0
note_on channel=0 note=64 velocity=0 time=0
note_on channel=0 note=57 velocity=73 time=0
note_on channel=0 note=61 velocity=73 time=0
note_on channel=0 note=69 velocity=87 time=0
note_on channel=0 note=64 velocity=87 time=0
note_on channel=0 note=49 velocity=73 time=0
note_on channel=0 note=45 velocity=73 time=0
note_on channel=0 note=40 velocity=62 time=0
note_on channel=0 note=37 velocity=62 time=0
note_on channel=0 note=64 velocity=0 time=600
note_on channel=0 note=69 velocity=0 time=0
note_on channel=0 note=57 velocity=0 time=0
note_on channel=0 note=61 velocity=0 time=0
note_on channel=0 note=64 velocity=48 time=0
note_on channel=0 note=64 velocity=0 time=120
note_on channel=0 note=66 velocity=49 time=0
note_on channel=0 note=66 velocity=0 time=120
note_on channel=0 note=68 velocity=50 time=0
note_on channel=0 note=68 velocity=0 time=120
note_on channel=0 note=40 velocity=0 time=0
note_on channel=0 note=37 velocity=0 time=0
note_on channel=0 note=45 velocity=0 time=0
note_on channel=0 note=49 velocity=0 time=0
note_on channel=0 note=69 velocity=51 time=0
note_on channel=0 note=69 velocity=0 time=120
note_on channel=0 note=71 velocity=51 time=0
note_on channel=0 note=71 velocity=0 time=120
note_on channel=0 note=73 velocity=52 time=0
note_on channel=0 note=73 velocity=0 time=120
note_on channel=0 note=71 velocity=51 time=0
note_on channel=0 note=71 velocity=0 time=120
note_on channel=0 note=69 velocity=48 time=0
note_on channel=0 note=69 velocity=0 time=120
note_on channel=0 note=64 velocity=48 time=0
note_on channel=0 note=64 velocity=0 time=120
note_on channel=0 note=66 velocity=48 time=0
note_on channel=0 note=66 velocity=0 time=120
note_on channel=0 note=68 velocity=49 time=0
note_on channel=0 note=68 velocity=0 time=120
note_on channel=0 note=69 velocity=50 time=0
note_on channel=0 note=52 velocity=41 time=0
note_on channel=0 note=49 velocity=41 time=0
note_on channel=0 note=57 velocity=49 time=0
note_on channel=0 note=69 velocity=0 time=120
note_on channel=0 note=71 velocity=50 time=0
note_on channel=0 note=71 velocity=0 time=120
note_on channel=0 note=73 velocity=51 time=0
note_on channel=0 note=73 velocity=0 time=120
note_on channel=0 note=71 velocity=51 time=0
note_on channel=0 note=71 velocity=0 time=120
note_on channel=0 note=57 velocity=0 time=0
note_on channel=0 note=49 velocity=0 time=0
note_on channel=0 note=52 velocity=0 time=0
note_on channel=0 note=69 velocity=48 time=0
note_on channel=0 note=69 velocity=0 time=120
note_on channel=0 note=64 velocity=48 time=0
note_on channel=0 note=64 velocity=0 time=120
note_on channel=0 note=66 velocity=48 time=0
note_on channel=0 note=66 velocity=0 time=120
note_on channel=0 note=68 velocity=50 time=0
note_on channel=0 note=68 velocity=0 time=120
note_on channel=0 note=69 velocity=51 time=0
note_on channel=0 note=52 velocity=41 time=0
note_on channel=0 note=57 velocity=49 time=0
note_on channel=0 note=49 velocity=41 time=0
note_on channel=0 note=69 velocity=0 time=120
note_on channel=0 note=71 velocity=51 time=0
note_on channel=0 note=71 velocity=0 time=120
note_on channel=0 note=73 velocity=51 time=0
note_on channel=0 note=73 velocity=0 time=120
note_on channel=0 note=71 velocity=50 time=0
note_on channel=0 note=71 velocity=0 time=120
note_on channel=0 note=49 velocity=0 time=0
note_on channel=0 note=57 velocity=0 time=0
note_on channel=0 note=52 velocity=0 time=0
note_on channel=0 note=69 velocity=49 time=0
note_on channel=0 note=69 velocity=0 time=120
note_on channel=0 note=64 velocity=50 time=0
note_on channel=0 note=64 velocity=0 time=120
note_on channel=0 note=66 velocity=51 time=0
note_on channel=0 note=49 velocity=43 time=0
note_on channel=0 note=57 velocity=51 time=0
note_on channel=0 note=52 velocity=43 time=0
note_on channel=0 note=66 velocity=0 time=120
note_on channel=0 note=68 velocity=51 time=0
note_on channel=0 note=68 velocity=0 time=120
note_on channel=0 note=52 velocity=0 time=0
note_on channel=0 note=57 velocity=0 time=0
note_on channel=0 note=49 velocity=0 time=0
note_on channel=0 note=69 velocity=52 time=0
note_on channel=0 note=69 velocity=0 time=120
note_on channel=0 note=71 velocity=53 time=0
note_on channel=0 note=71 velocity=0 time=120
note_on channel=0 note=73 velocity=56 time=0
note_on channel=0 note=49 velocity=51 time=0
note_on channel=0 note=57 velocity=61 time=0
note_on channel=0 note=52 velocity=51 time=0
note_on channel=0 note=73 velocity=0 time=120
note_on channel=0 note=71 velocity=56 time=0
note_on channel=0 note=71 velocity=0 time=120
note_on channel=0 note=52 velocity=0 time=0
note_on channel=0 note=57 velocity=0 time=0
note_on channel=0 note=49 velocity=0 time=0
note_on channel=0 note=69 velocity=57 time=0
note_on channel=0 note=69 velocity=0 time=120
note_on channel=0 note=64 velocity=58 time=0
note_on channel=0 note=64 velocity=0 time=120
note_on channel=0 note=66 velocity=59 time=0
note_on channel=0 note=49 velocity=57 time=0
note_on channel=0 note=57 velocity=68 time=0
note_on channel=0 note=52 velocity=57 time=0
note_on channel=0 note=66 velocity=0 time=120
note_on channel=0 note=68 velocity=60 time=0
note_on channel=0 note=68 velocity=0 time=120
note_on channel=0 note=52 velocity=0 time=0
note_on channel=0 note=57 velocity=0 time=0
note_on channel=0 note=49 velocity=0 time=0
note_on channel=0 note=69 velocity=62 time=0
note_on channel=0 note=69 velocity=0 time=120
note_on channel=0 note=71 velocity=62 time=0
note_on channel=0 note=71 velocity=0 time=120
note_on channel=0 note=73 velocity=62 time=0
note_on channel=0 note=57 velocity=68 time=0
note_on channel=0 note=52 velocity=57 time=0
note_on channel=0 note=49 velocity=57 time=0
note_on channel=0 note=73 velocity=0 time=120
note_on channel=0 note=71 velocity=63 time=0
note_on channel=0 note=71 velocity=0 time=120
note_on channel=0 note=49 velocity=0 time=0
note_on channel=0 note=52 velocity=0 time=0
note_on channel=0 note=57 velocity=0 time=0
note_on channel=0 note=69 velocity=66 time=0
note_on channel=0 note=52 velocity=56 time=0
note_on channel=0 note=49 velocity=56 time=0
note_on channel=0 note=57 velocity=67 time=0
note_on channel=0 note=69 velocity=0 time=120
note_on channel=0 note=64 velocity=67 time=0
note_on channel=0 note=64 velocity=0 time=120
note_on channel=0 note=66 velocity=68 time=0
note_on channel=0 note=66 velocity=0 time=120
note_on channel=0 note=68 velocity=68 time=0
note_on channel=0 note=68 velocity=0 time=120
note_on channel=0 note=57 velocity=0 time=0
note_on channel=0 note=49 velocity=0 time=0
note_on channel=0 note=52 velocity=0 time=0
note_on channel=0 note=69 velocity=70 time=0
note_on channel=0 note=69 velocity=0 time=120
note_on channel=0 note=71 velocity=71 time=0
note_on channel=0 note=71 velocity=0 time=120
note_on channel=0 note=73 velocity=72 time=0
note_on channel=0 note=73 velocity=0 time=120
note_on channel=0 note=74 velocity=73 time=0
note_on channel=0 note=74 velocity=0 time=120
note_on channel=0 note=76 velocity=74 time=0
note_on channel=0 note=76 velocity=0 time=120
note_on channel=0 note=78 velocity=75 time=0
note_on channel=0 note=78 velocity=0 time=120
note_on channel=0 note=80 velocity=76 time=0
note_on channel=0 note=80 velocity=0 time=120
note_on channel=0 note=81 velocity=77 time=0
note_on channel=0 note=81 velocity=0 time=120
note_on channel=0 note=83 velocity=79 time=0
note_on channel=0 note=83 velocity=0 time=120
note_on channel=0 note=85 velocity=79 time=0
note_on channel=0 note=85 velocity=0 time=120
note_on channel=0 note=86 velocity=79 time=0
note_on channel=0 note=86 velocity=0 time=120
note_on channel=0 note=87 velocity=80 time=0
note_on channel=0 note=87 velocity=0 time=120
note_on channel=0 note=88 velocity=84 time=0
note_on channel=0 note=76 velocity=71 time=0
note_on channel=0 note=49 velocity=70 time=0
control_change channel=0 control=64 value=127 time=86
note_on channel=0 note=49 velocity=0 time=33
note_on channel=0 note=57 velocity=61 time=1
note_on channel=0 note=57 velocity=0 time=119
note_on channel=0 note=52 velocity=66 time=1
note_on channel=0 note=52 velocity=0 time=119
note_on channel=0 note=57 velocity=62 time=1
note_on channel=0 note=57 velocity=0 time=119
note_on channel=0 note=49 velocity=70 time=1
note_on channel=0 note=49 velocity=0 time=119
note_on channel=0 note=57 velocity=61 time=1
note_on channel=0 note=57 velocity=0 time=119
note_on channel=0 note=52 velocity=65 time=1
note_on channel=0 note=52 velocity=0 time=119
note_on channel=0 note=57 velocity=62 time=1
note_on channel=0 note=57 velocity=0 time=119
note_on channel=0 note=76 velocity=0 time=1
note_on channel=0 note=88 velocity=0 time=0
note_on channel=0 note=68 velocity=71 time=0
note_on channel=0 note=80 velocity=84 time=0
note_on channel=0 note=50 velocity=70 time=0
control_change channel=0 control=64 value=0 time=9
control_change channel=0 control=64 value=127 time=71
note_on channel=0 note=50 velocity=0 time=39
note_on channel=0 note=59 velocity=61 time=1
note_on channel=0 note=59 velocity=0 time=119
note_on channel=0 note=53 velocity=66 time=1
note_on channel=0 note=53 velocity=0 time=119
note_on channel=0 note=59 velocity=62 time=1
note_on channel=0 note=59 velocity=0 time=119
note_on channel=0 note=50 velocity=70 time=1
note_on channel=0 note=50 velocity=0 time=119
note_on channel=0 note=59 velocity=59 time=1
note_on channel=0 note=59 velocity=0 time=119
note_on channel=0 note=53 velocity=63 time=1
note_on channel=0 note=53 velocity=0 time=119
note_on channel=0 note=59 velocity=61 time=1
note_on channel=0 note=59 velocity=0 time=119
note_on channel=0 note=80 velocity=0 time=1
note_on channel=0 note=68 velocity=0 time=0
note_on channel=0 note=71 velocity=71 time=0
note_on channel=0 note=83 velocity=84 time=0
note_on channel=0 note=51 velocity=70 time=0
control_change channel=0 control=64 value=0 time=16
control_change channel=0 control=64 value=127 time=70
note_on channel=0 note=51 velocity=0 time=33
note_on channel=0 note=59 velocity=61 time=1
note_on channel=0 note=59 velocity=0 time=119
note_on channel=0 note=56 velocity=66 time=1
note_on channel=0 note=56 velocity=0 time=119
note_on channel=0 note=59 velocity=62 time=1
note_on channel=0 note=59 velocity=0 time=119
note_on channel=0 note=51 velocity=70 time=1
note_on channel=0 note=51 velocity=0 time=119
note_on channel=0 note=59 velocity=62 time=1
note_on channel=0 note=59 velocity=0 time=119
note_on channel=0 note=56 velocity=66 time=1
note_on channel=0 note=56 velocity=0 time=119
note_on channel=0 note=59 velocity=61 time=1
note_on channel=0 note=59 velocity=0 time=119
note_on channel=0 note=83 velocity=0 time=0
note_on channel=0 note=71 velocity=0 time=0
note_on channel=0 note=61 velocity=71 time=0
note_on channel=0 note=55 velocity=60 time=0
note_on channel=0 note=67 velocity=84 time=0
note_on channel=0 note=39 velocity=70 time=0
control_change channel=0 control=64 value=0 time=16
control_change channel=0 control=64 value=127 time=87
note_on channel=0 note=39 velocity=0 time=16
note_on channel=0 note=51 velocity=62 time=1
note_on channel=0 note=51 velocity=0 time=119
note_on channel=0 note=50 velocity=67 time=1
note_on channel=0 note=50 velocity=0 time=119
note_on channel=0 note=51 velocity=62 time=1
note_on channel=0 note=51 velocity=0 time=119
note_on channel=0 note=50 velocity=70 time=1
note_on channel=0 note=50 velocity=0 time=119
note_on channel=0 note=51 velocity=62 time=1
note_on channel=0 note=51 velocity=0 time=119
note_on channel=0 note=50 velocity=67 time=1
note_on channel=0 note=50 velocity=0 time=119
note_on channel=0 note=51 velocity=62 time=1
note_on channel=0 note=51 velocity=0 time=102
note_on channel=0 note=67 velocity=0 time=0
note_on channel=0 note=55 velocity=0 time=0
note_on channel=0 note=61 velocity=0 time=0
note_on channel=0 note=63 velocity=71 time=0
note_on channel=0 note=59 velocity=71 time=0
note_on channel=0 note=68 velocity=84 time=0
note_on channel=0 note=44 velocity=71 time=0
control_change channel=0 control=64 value=0 time=8
note_on channel=0 note=44 velocity=0 time=0
note_on channel=0 note=63 velocity=0 time=0
note_on channel=0 note=59 velocity=0 time=0
note_on channel=0 note=68 velocity=0 time=0
note_on channel=0 note=71 velocity=51 time=0
note_on channel=0 note=63 velocity=51 time=0
note_on channel=0 note=63 velocity=0 time=120
note_on channel=0 note=71 velocity=0 time=0
note_on channel=0 note=71 velocity=51 time=120
note_on channel=0 note=63 velocity=51 time=0
note_on channel=0 note=56 velocity=43 time=0
note_on channel=0 note=56 velocity=0 time=120
note_on channel=0 note=63 velocity=0 time=0
note_on channel=0 note=71 velocity=0 time=0
note_on channel=0 note=63 velocity=51 time=120
note_on channel=0 note=71 velocity=51 time=0
note_on channel=0 note=56 velocity=43 time=0
note_on channel=0 note=56 velocity=0 time=120
note_on channel=0 note=71 velocity=0 time=0
note_on channel=0 note=63 velocity=0 time=0
note_on channel=0 note=71 velocity=51 time=80
note_on channel=0 note=63 velocity=51 time=0
note_on channel=0 note=56 velocity=43 time=0
note_on channel=0 note=56 velocity=0 time=120
note_on channel=0 note=63 velocity=0 time=0
note_on channel=0 note=71 velocity=0 time=0
note_on channel=0 note=71 velocity=51 time=120
note_on channel=0 note=63 velocity=51 time=0
note_on channel=0 note=56 velocity=43 time=0
note_on channel=0 note=56 velocity=0 time=120
note_on channel=0 note=63 velocity=0 time=0
note_on channel=0 note=71 velocity=0 time=0
note_on channel=0 note=63 velocity=49 time=120
note_on channel=0 note=70 velocity=49 time=0
note_on channel=0 note=58 velocity=40 time=0
note_on channel=0 note=58 velocity=0 time=80
note_on channel=0 note=70 velocity=0 time=0
note_on channel=0 note=63 velocity=0 time=0
note_on channel=0 note=68 velocity=47 time=120
note_on channel=0 note=63 velocity=47 time=0
note_on channel=0 note=59 velocity=39 time=0
note_on channel=0 note=59 velocity=0 time=120
note_on channel=0 note=63 velocity=0 time=0
note_on channel=0 note=68 velocity=0 time=0
note_on channel=0 note=63 velocity=59 time=120
note_on channel=0 note=67 velocity=59 time=0
note_on channel=0 note=51 velocity=47 time=0
note_on channel=0 note=61 velocity=47 time=0
note_on channel=0 note=61 velocity=0 time=0
note_on channel=0 note=63 velocity=0 time=0
note_on channel=0 note=67 velocity=0 time=0
note_on channel=0 note=51 velocity=0 time=0
note_on channel=0 note=67 velocity=49 time=0
note_on channel=0 note=75 velocity=49 time=0
note_on channel=0 note=61 velocity=42 time=0
note_on channel=0 note=63 velocity=42 time=0
note_on channel=0 note=63 velocity=0 time=120
note_on channel=0 note=67 velocity=0 time=0
note_on channel=0 note=75 velocity=0 time=0
note_on channel=0 note=61 velocity=0 time=0
note_on channel=0 note=67 velocity=49 time=120
note_on channel=0 note=75 velocity=49 time=0
note_on channel=0 note=61 velocity=41 time=0
note_on channel=0 note=63 velocity=41 time=0
note_on channel=0 note=63 velocity=0 time=120
note_on channel=0 note=67 velocity=0 time=0
note_on channel=0 note=75 velocity=0 time=0
note_on channel=0 note=61 velocity=0 time=0
note_on channel=0 note=75 velocity=50 time=120
note_on channel=0 note=67 velocity=50 time=0
note_on channel=0 note=61 velocity=41 time=0
note_on channel=0 note=63 velocity=41 time=0
note_on channel=0 note=63 velocity=0 time=120
note_on channel=0 note=75 velocity=0 time=0
note_on channel=0 note=67 velocity=0 time=0
note_on channel=0 note=61 velocity=0 time=0
note_on channel=0 note=67 velocity=51 time=120
note_on channel=0 note=75 velocity=51 time=0
note_on channel=0 note=63 velocity=41 time=0
note_on channel=0 note=61 velocity=41 time=0
note_on channel=0 note=61 velocity=0 time=120
note_on channel=0 note=67 velocity=0 time=0
note_on channel=0 note=75 velocity=0 time=0
note_on channel=0 note=63 velocity=0 time=0
note_on channel=0 note=67 velocity=51 time=120
note_on channel=0 note=75 velocity=51 time=0
note_on channel=0 note=63 velocity=41 time=0
note_on channel=0 note=61 velocity=41 time=0
note_on channel=0 note=61 velocity=0 time=120
note_on channel=0 note=67 velocity=0 time=0
note_on channel=0 note=75 velocity=0 time=0
note_on channel=0 note=63 velocity=0 time=0
note_on channel=0 note=75 velocity=51 time=120
note_on channel=0 note=68 velocity=51 time=0
note_on channel=0 note=63 velocity=41 time=0
note_on channel=0 note=59 velocity=41 time=0
note_on channel=0 note=59 velocity=0 time=120
note_on channel=0 note=75 velocity=0 time=0
note_on channel=0 note=68 velocity=0 time=0
note_on channel=0 note=63 velocity=0 time=0
note_on channel=0 note=70 velocity=53 time=120
note_on channel=0 note=75 velocity=53 time=0
note_on channel=0 note=58 velocity=43 time=0
note_on channel=0 note=63 velocity=43 time=0
note_on channel=0 note=63 velocity=0 time=120
note_on channel=0 note=70 velocity=0 time=0
note_on channel=0 note=75 velocity=0 time=0
note_on channel=0 note=58 velocity=0 time=0
note_on channel=0 note=71 velocity=58 time=120
note_on channel=0 note=75 velocity=58 time=0
note_on channel=0 note=56 velocity=47 time=0
note_on channel=0 note=44 velocity=47 time=0
note_on channel=0 note=44 velocity=0 time=0
note_on channel=0 note=71 velocity=0 time=0
note_on channel=0 note=75 velocity=0 time=0
note_on channel=0 note=56 velocity=0 time=0
note_on channel=0 note=71 velocity=50 time=0
note_on channel=0 note=63 velocity=50 time=0
note_on channel=0 note=56 velocity=42 time=0
note_on channel=0 note=56 velocity=0 time=120
note_on channel=0 note=63 velocity=0 time=0
note_on channel=0 note=71 velocity=0 time=0
note_on channel=0 note=63 velocity=50 time=120
note_on channel=0 note=71 velocity=50 time=0
note_on channel=0 note=56 velocity=42 time=0
note_on channel=0 note=56 velocity=0 time=120
note_on channel=0 note=71 velocity=0 time=0
note_on channel=0 note=63 velocity=0 time=0
note_on channel=0 note=71 velocity=50 time=0
note_on channel=0 note=63 velocity=50 time=0
note_on channel=0 note=56 velocity=42 time=0
note_on channel=0 note=56 velocity=0 time=120
note_on channel=0 note=63 velocity=0 time=0
note_on channel=0 note=71 velocity=0 time=0
note_on channel=0 note=71 velocity=50 time=120
note_on channel=0 note=63 velocity=50 time=0
note_on channel=0 note=56 velocity=43 time=0
note_on channel=0 note=56 velocity=0 time=120
note_on channel=0 note=63 velocity=0 time=0
note_on channel=0 note=71 velocity=0 time=0
note_on channel=0 note=63 velocity=50 time=40
note_on channel=0 note=71 velocity=50 time=0
note_on channel=0 note=56 velocity=42 time=0
note_on channel=0 note=56 velocity=0 time=120
note_on channel=0 note=71 velocity=0 time=0
note_on channel=0 note=63 velocity=0 time=0
note_on channel=0 note=63 velocity=48 time=120
note_on channel=0 note=70 velocity=48 time=0
note_on channel=0 note=58 velocity=41 time=0
note_on channel=0 note=58 velocity=0 time=120
note_on channel=0 note=70 velocity=0 time=0
note_on channel=0 note=63 velocity=0 time=0
note_on channel=0 note=68 velocity=47 time=80
note_on channel=0 note=63 velocity=47 time=0
note_on channel=0 note=59 velocity=39 time=0
note_on channel=0 note=59 velocity=0 time=120
note_on channel=0 note=63 velocity=0 time=0
note_on channel=0 note=68 velocity=0 time=0
note_on channel=0 note=63 velocity=58 time=120
note_on channel=0 note=67 velocity=58 time=0
note_on channel=0 note=51 velocity=47 time=0
note_on channel=0 note=61 velocity=47 time=0
note_on channel=0 note=61 velocity=0 time=0
note_on channel=0 note=63 velocity=0 time=0
note_on channel=0 note=67 velocity=0 time=0
note_on channel=0 note=51 velocity=0 time=0
note_on channel=0 note=75 velocity=49 time=0
note_on channel=0 note=67 velocity=49 time=0
note_on channel=0 note=61 velocity=41 time=0
note_on channel=0 note=63 velocity=41 time=0
note_on channel=0 note=63 velocity=0 time=120
note_on channel=0 note=75 velocity=0 time=0
note_on channel=0 note=67 velocity=0 time=0
note_on channel=0 note=61 velocity=0 time=0
note_on channel=0 note=75 velocity=49 time=120
note_on channel=0 note=67 velocity=49 time=0
note_on channel=0 note=63 velocity=43 time=0
note_on channel=0 note=61 velocity=43 time=0
note_on channel=0 note=61 velocity=0 time=120
note_on channel=0 note=75 velocity=0 time=0
note_on channel=0 note=67 velocity=0 time=0
note_on channel=0 note=63 velocity=0 time=0
note_on channel=0 note=67 velocity=51 time=120
note_on channel=0 note=75 velocity=51 time=0
note_on channel=0 note=61 velocity=42 time=0
note_on channel=0 note=63 velocity=42 time=0
note_on channel=0 note=63 velocity=0 time=120
note_on channel=0 note=67 velocity=0 time=0
note_on channel=0 note=75 velocity=0 time=0
note_on channel=0 note=61 velocity=0 time=0
note_on channel=0 note=67 velocity=49 time=120
note_on channel=0 note=75 velocity=49 time=0
note_on channel=0 note=61 velocity=42 time=0
note_on channel=0 note=63 velocity=42 time=0
note_on channel=0 note=63 velocity=0 time=120
note_on channel=0 note=67 velocity=0 time=0
note_on channel=0 note=75 velocity=0 time=0
note_on channel=0 note=61 velocity=0 time=0
note_on channel=0 note=67 velocity=49 time=120
note_on channel=0 note=75 velocity=49 time=0
note_on channel=0 note=63 velocity=42 time=0
note_on channel=0 note=61 velocity=42 time=0
note_on channel=0 note=61 velocity=0 time=120
note_on channel=0 note=67 velocity=0 time=0
note_on channel=0 note=75 velocity=0 time=0
note_on channel=0 note=63 velocity=0 time=0
note_on channel=0 note=68 velocity=51 time=120
note_on channel=0 note=75 velocity=51 time=0
note_on channel=0 note=63 velocity=43 time=0
note_on channel=0 note=59 velocity=43 time=0
note_on channel=0 note=59 velocity=0 time=120
note_on channel=0 note=68 velocity=0 time=0
note_on channel=0 note=75 velocity=0 time=0
note_on channel=0 note=63 velocity=0 time=0
note_on channel=0 note=75 velocity=51 time=120
note_on channel=0 note=70 velocity=51 time=0
note_on channel=0 note=63 velocity=45 time=0
note_on channel=0 note=58 velocity=45 time=0
note_on channel=0 note=58 velocity=0 time=120
note_on channel=0 note=75 velocity=0 time=0
note_on channel=0 note=70 velocity=0 time=0
note_on channel=0 note=63 velocity=0 time=0
note_on channel=0 note=75 velocity=56 time=0
note_on channel=0 note=71 velocity=56 time=0
note_on channel=0 note=44 velocity=48 time=0
note_on channel=0 note=44 velocity=0 time=120
note_on channel=0 note=71 velocity=0 time=0
note_on channel=0 note=75 velocity=0 time=0
note_on channel=0 note=71 velocity=50 time=0
note_on channel=0 note=75 velocity=50 time=0
note_on channel=0 note=59 velocity=39 time=0
note_on channel=0 note=56 velocity=39 time=0
note_on channel=0 note=56 velocity=0 time=120
note_on channel=0 note=71 velocity=0 time=0
note_on channel=0 note=75 velocity=0 time=0
note_on channel=0 note=59 velocity=0 time=0
note_on channel=0 note=71 velocity=50 time=120
note_on channel=0 note=75 velocity=50 time=0
note_on channel=0 note=56 velocity=39 time=0
note_on channel=0 note=59 velocity=39 time=0
control_change channel=0 control=64 value=127 time=78
note_on channel=0 note=59 velocity=0 time=162
note_on channel=0 note=71 velocity=0 time=0
note_on channel=0 note=75 velocity=0 time=0
note_on channel=0 note=56 velocity=0 time=0
note_on channel=0 note=71 velocity=49 time=0
note_on channel=0 note=68 velocity=49 time=0
note_on channel=0 note=59 velocity=39 time=0
note_on channel=0 note=63 velocity=39 time=0
control_change channel=0 control=64 value=0 time=57
note_on channel=0 note=63 velocity=0 time=0
note_on channel=0 note=71 velocity=0 time=0
note_on channel=0 note=68 velocity=0 time=0
note_on channel=0 note=59 velocity=0 time=0
note_on channel=0 note=49 velocity=47 time=0
note_on channel=0 note=49 velocity=0 time=120
note_on channel=0 note=73 velocity=50 time=0
note_on channel=0 note=76 velocity=50 time=0
note_on channel=0 note=56 velocity=43 time=0
note_on channel=0 note=61 velocity=43 time=0
note_on channel=0 note=61 velocity=0 time=120
note_on channel=0 note=73 velocity=0 time=0
note_on channel=0 note=76 velocity=0 time=0
note_on channel=0 note=56 velocity=0 time=0
note_on channel=0 note=76 velocity=50 time=120
note_on channel=0 note=73 velocity=50 time=0
note_on channel=0 note=61 velocity=43 time=0
note_on channel=0 note=56 velocity=43 time=0
control_change channel=0 control=64 value=127 time=85
note_on channel=0 note=56 velocity=0 time=155
note_on channel=0 note=76 velocity=0 time=0
note_on channel=0 note=73 velocity=0 time=0
note_on channel=0 note=61 velocity=0 time=0
note_on channel=0 note=73 velocity=49 time=0
note_on channel=0 note=68 velocity=49 time=0
note_on channel=0 note=61 velocity=41 time=0
note_on channel=0 note=64 velocity=41 time=0
control_change channel=0 control=64 value=0 time=106
note_on channel=0 note=64 velocity=0 time=0
note_on channel=0 note=73 velocity=0 time=0
note_on channel=0 note=68 velocity=0 time=0
note_on channel=0 note=61 velocity=0 time=0
note_on channel=0 note=51 velocity=47 time=0
note_on channel=0 note=51 velocity=0 time=120
note_on channel=0 note=75 velocity=47 time=0
note_on channel=0 note=71 velocity=47 time=0
note_on channel=0 note=59 velocity=41 time=0
note_on channel=0 note=56 velocity=41 time=0
note_on channel=0 note=56 velocity=0 time=120
note_on channel=0 note=75 velocity=0 time=0
note_on channel=0 note=71 velocity=0 time=0
note_on channel=0 note=59 velocity=0 time=0
note_on channel=0 note=75 velocity=47 time=120
note_on channel=0 note=71 velocity=47 time=0
note_on channel=0 note=56 velocity=42 time=0
note_on channel=0 note=59 velocity=42 time=0
control_change channel=0 control=64 value=127 time=46
note_on channel=0 note=59 velocity=0 time=194
note_on channel=0 note=75 velocity=0 time=0
note_on channel=0 note=71 velocity=0 time=0
note_on channel=0 note=56 velocity=0 time=0
note_on channel=0 note=68 velocity=49 time=0
note_on channel=0 note=71 velocity=49 time=0
note_on channel=0 note=63 velocity=42 time=0
note_on channel=0 note=59 velocity=42 time=0
control_change channel=0 control=64 value=0 time=107
note_on channel=0 note=59 velocity=0 time=0
note_on channel=0 note=68 velocity=0 time=0
note_on channel=0 note=71 velocity=0 time=0
note_on channel=0 note=63 velocity=0 time=0
note_on channel=0 note=51 velocity=47 time=0
note_on channel=0 note=51 velocity=0 time=120
note_on channel=0 note=75 velocity=49 time=0
note_on channel=0 note=70 velocity=49 time=0
note_on channel=0 note=55 velocity=39 time=0
note_on channel=0 note=58 velocity=39 time=0
note_on channel=0 note=58 velocity=0 time=120
note_on channel=0 note=75 velocity=0 time=0
note_on channel=0 note=70 velocity=0 time=0
note_on channel=0 note=55 velocity=0 time=0
note_on channel=0 note=75 velocity=47 time=120
note_on channel=0 note=70 velocity=47 time=0
note_on channel=0 note=58 velocity=39 time=0
note_on channel=0 note=55 velocity=39 time=0
control_change channel=0 control=64 value=127 time=62
note_on channel=0 note=55 velocity=0 time=178
note_on channel=0 note=75 velocity=0 time=0
note_on channel=0 note=70 velocity=0 time=0
note_on channel=0 note=58 velocity=0 time=0
note_on channel=0 note=67 velocity=47 time=0
note_on channel=0 note=70 velocity=47 time=0
note_on channel=0 note=58 velocity=39 time=0
note_on channel=0 note=63 velocity=39 time=0
control_change channel=0 control=64 value=0 time=117
note_on channel=0 note=63 velocity=0 time=0
note_on channel=0 note=67 velocity=0 time=0
note_on channel=0 note=70 velocity=0 time=0
note_on channel=0 note=58 velocity=0 time=0
note_on channel=0 note=68 velocity=49 time=0
note_on channel=0 note=71 velocity=49 time=0
note_on channel=0 note=32 velocity=42 time=0
note_on channel=0 note=44 velocity=42 time=0
note_on channel=0 note=44 velocity=0 time=0
note_on channel=0 note=68 velocity=0 time=0
note_on channel=0 note=71 velocity=0 time=0
note_on channel=0 note=32 velocity=0 time=0
note_on channel=0 note=75 velocity=51 time=0
note_on channel=0 note=83 velocity=51 time=0
note_on channel=0 note=71 velocity=43 time=0
note_on channel=0 note=44 velocity=41 time=0
note_on channel=0 note=51 velocity=41 time=0
control_change channel=0 control=64 value=127 time=92
note_on channel=0 note=51 velocity=0 time=28
note_on channel=0 note=71 velocity=0 time=0
note_on channel=0 note=75 velocity=0 time=0
note_on channel=0 note=83 velocity=0 time=0
note_on channel=0 note=44 velocity=0 time=0
note_on channel=0 note=83 velocity=56 time=120
note_on channel=0 note=75 velocity=56 time=0
note_on channel=0 note=71 velocity=47 time=0
note_on channel=0 note=44 velocity=43 time=0
note_on channel=0 note=51 velocity=43 time=0
note_on channel=0 note=51 velocity=0 time=120
note_on channel=0 note=71 velocity=0 time=0
note_on channel=0 note=83 velocity=0 time=0
note_on channel=0 note=75 velocity=0 time=0
note_on channel=0 note=44 velocity=0 time=0
note_on channel=0 note=83 velocity=58 time=40
note_on channel=0 note=71 velocity=49 time=0
note_on channel=0 note=75 velocity=58 time=0
note_on channel=0 note=51 velocity=47 time=0
note_on channel=0 note=44 velocity=47 time=0
note_on channel=0 note=44 velocity=0 time=120
note_on channel=0 note=75 velocity=0 time=0
note_on channel=0 note=83 velocity=0 time=0
note_on channel=0 note=71 velocity=0 time=0
note_on channel=0 note=51 velocity=0 time=0
note_on channel=0 note=71 velocity=52 time=120
note_on channel=0 note=75 velocity=62 time=0
note_on channel=0 note=83 velocity=62 time=0
note_on channel=0 note=51 velocity=50 time=0
note_on channel=0 note=44 velocity=50 time=0
note_on channel=0 note=44 velocity=0 time=0
note_on channel=0 note=83 velocity=0 time=0
note_on channel=0 note=71 velocity=0 time=0
note_on channel=0 note=75 velocity=0 time=0
note_on channel=0 note=51 velocity=0 time=0
note_on channel=0 note=83 velocity=66 time=120
note_on channel=0 note=75 velocity=66 time=0
note_on channel=0 note=71 velocity=56 time=0
note_on channel=0 note=51 velocity=52 time=0
note_on channel=0 note=44 velocity=52 time=0
note_on channel=0 note=44 velocity=0 time=120
note_on channel=0 note=71 velocity=0 time=0
note_on channel=0 note=83 velocity=0 time=0
note_on channel=0 note=75 velocity=0 time=0
note_on channel=0 note=51 velocity=0 time=0
note_on channel=0 note=73 velocity=68 time=120
note_on channel=0 note=70 velocity=57 time=0
note_on channel=0 note=82 velocity=68 time=0
note_on channel=0 note=51 velocity=57 time=0
note_on channel=0 note=46 velocity=57 time=0
control_change channel=0 control=64 value=0 time=17
note_on channel=0 note=46 velocity=0 time=40
note_on channel=0 note=82 velocity=0 time=0
note_on channel=0 note=73 velocity=0 time=0
note_on channel=0 note=70 velocity=0 time=0
note_on channel=0 note=51 velocity=0 time=0
control_change channel=0 control=64 value=127 time=6
note_on channel=0 note=80 velocity=72 time=114
note_on channel=0 note=68 velocity=61 time=0
note_on channel=0 note=71 velocity=72 time=0
note_on channel=0 note=51 velocity=59 time=0
note_on channel=0 note=47 velocity=59 time=0
control_change channel=0 control=64 value=0 time=10
control_change channel=0 control=64 value=127 time=82
note_on channel=0 note=47 velocity=0 time=28
note_on channel=0 note=71 velocity=0 time=0
note_on channel=0 note=80 velocity=0 time=0
note_on channel=0 note=68 velocity=0 time=0
note_on channel=0 note=51 velocity=0 time=0
note_on channel=0 note=79 velocity=75 time=0
note_on channel=0 note=67 velocity=63 time=0
note_on channel=0 note=70 velocity=75 time=0
note_on channel=0 note=51 velocity=62 time=0
note_on channel=0 note=49 velocity=62 time=0
note_on channel=0 note=39 velocity=62 time=0
control_change channel=0 control=64 value=0 time=3
control_change channel=0 control=64 value=127 time=69
note_on channel=0 note=39 velocity=0 time=0
note_on channel=0 note=67 velocity=0 time=0
note_on channel=0 note=70 velocity=0 time=0
note_on channel=0 note=79 velocity=0 time=0
note_on channel=0 note=49 velocity=0 time=0
note_on channel=0 note=51 velocity=0 time=0
note_on channel=0 note=76 velocity=64 time=0
note_on channel=0 note=88 velocity=76 time=0
note_on channel=0 note=79 velocity=76 time=0
note_on channel=0 note=61 velocity=62 time=0
note_on channel=0 note=51 velocity=62 time=0
control_change channel=0 control=64 value=0 time=18
control_change channel=0 control=64 value=127 time=99
note_on channel=0 note=51 velocity=0 time=3
note_on channel=0 note=79 velocity=0 time=0
note_on channel=0 note=76 velocity=0 time=0
note_on channel=0 note=88 velocity=0 time=0
note_on channel=0 note=61 velocity=0 time=0
note_on channel=0 note=79 velocity=82 time=120
note_on channel=0 note=76 velocity=69 time=0
note_on channel=0 note=88 velocity=82 time=0
note_on channel=0 note=51 velocity=66 time=0
note_on channel=0 note=61 velocity=66 time=0
note_on channel=0 note=61 velocity=0 time=120
note_on channel=0 note=88 velocity=0 time=0
note_on channel=0 note=79 velocity=0 time=0
note_on channel=0 note=76 velocity=0 time=0
note_on channel=0 note=51 velocity=0 time=0
note_on channel=0 note=79 velocity=79 time=120
note_on channel=0 note=88 velocity=79 time=0
note_on channel=0 note=76 velocity=67 time=0
note_on channel=0 note=61 velocity=62 time=0
note_on channel=0 note=51 velocity=62 time=0
note_on channel=0 note=51 velocity=0 time=120
note_on channel=0 note=76 velocity=0 time=0
note_on channel=0 note=79 velocity=0 time=0
note_on channel=0 note=88 velocity=0 time=0
note_on channel=0 note=61 velocity=0 time=0
note_on channel=0 note=88 velocity=82 time=120
note_on channel=0 note=76 velocity=69 time=0
note_on channel=0 note=79 velocity=82 time=0
note_on channel=0 note=61 velocity=66 time=0
note_on channel=0 note=51 velocity=66 time=0
note_on channel=0 note=51 velocity=0 time=120
note_on channel=0 note=79 velocity=0 time=0
note_on channel=0 note=88 velocity=0 time=0
note_on channel=0 note=76 velocity=0 time=0
note_on channel=0 note=61 velocity=0 time=0
note_on channel=0 note=79 velocity=79 time=120
note_on channel=0 note=76 velocity=67 time=0
note_on channel=0 note=88 velocity=79 time=0
note_on channel=0 note=61 velocity=62 time=0
note_on channel=0 note=51 velocity=62 time=0
note_on channel=0 note=51 velocity=0 time=120
note_on channel=0 note=88 velocity=0 time=0
note_on channel=0 note=79 velocity=0 time=0
note_on channel=0 note=76 velocity=0 time=0
note_on channel=0 note=61 velocity=0 time=0
note_on channel=0 note=79 velocity=81 time=0
note_on channel=0 note=75 velocity=68 time=0
note_on channel=0 note=87 velocity=81 time=0
note_on channel=0 note=51 velocity=66 time=0
note_on channel=0 note=59 velocity=66 time=0
control_change channel=0 control=64 value=0 time=10
control_change channel=0 control=64 value=127 time=81
note_on channel=0 note=59 velocity=0 time=29
note_on channel=0 note=87 velocity=0 time=0
note_on channel=0 note=79 velocity=0 time=0
note_on channel=0 note=75 velocity=0 time=0
note_on channel=0 note=51 velocity=0 time=0
note_on channel=0 note=79 velocity=79 time=120
note_on channel=0 note=85 velocity=79 time=0
note_on channel=0 note=73 velocity=67 time=0
note_on channel=0 note=51 velocity=62 time=0
note_on channel=0 note=58 velocity=62 time=0
control_change channel=0 control=64 value=0 time=10
control_change channel=0 control=64 value=127 time=62
note_on channel=0 note=58 velocity=0 time=48
note_on channel=0 note=73 velocity=0 time=0
note_on channel=0 note=79 velocity=0 time=0
note_on channel=0 note=85 velocity=0 time=0
note_on channel=0 note=51 velocity=0 time=0
note_on channel=0 note=83 velocity=82 time=0
note_on channel=0 note=80 velocity=82 time=0
note_on channel=0 note=71 velocity=69 time=0
note_on channel=0 note=44 velocity=67 time=0
note_on channel=0 note=32 velocity=67 time=0
control_change channel=0 control=64 value=0 time=9
control_change channel=0 control=64 value=127 time=94
note_on channel=0 note=32 velocity=0 time=40
note_on channel=0 note=71 velocity=0 time=0
note_on channel=0 note=44 velocity=0 time=0
note_on channel=0 note=80 velocity=0 time=0
note_on channel=0 note=71 velocity=41 time=0
note_on channel=0 note=83 velocity=49 time=0
note_on channel=0 note=75 velocity=49 time=0
note_on channel=0 note=51 velocity=41 time=0
note_on channel=0 note=44 velocity=41 time=0
note_on channel=0 note=83 velocity=0 time=9
control_change channel=0 control=64 value=0 time=6
note_on channel=0 note=83 velocity=0 time=105
note_on channel=0 note=75 velocity=0 time=0
note_on channel=0 note=71 velocity=0 time=0
note_on channel=0 note=44 velocity=0 time=0
note_on channel=0 note=51 velocity=0 time=0
control_change channel=0 control=64 value=127 time=6
note_on channel=0 note=83 velocity=52 time=114
note_on channel=0 note=71 velocity=44 time=0
note_on channel=0 note=75 velocity=52 time=0
note_on channel=0 note=51 velocity=44 time=0
note_on channel=0 note=44 velocity=44 time=0
note_on channel=0 note=44 velocity=0 time=120
note_on channel=0 note=75 velocity=0 time=0
note_on channel=0 note=83 velocity=0 time=0
note_on channel=0 note=71 velocity=0 time=0
note_on channel=0 note=51 velocity=0 time=0
note_on channel=0 note=71 velocity=48 time=80
note_on channel=0 note=83 velocity=57 time=0
note_on channel=0 note=75 velocity=57 time=0
note_on channel=0 note=44 velocity=48 time=0
note_on channel=0 note=51 velocity=48 time=0
note_on channel=0 note=51 velocity=0 time=120
note_on channel=0 note=75 velocity=0 time=0
note_on channel=0 note=71 velocity=0 time=0
note_on channel=0 note=83 velocity=0 time=0
note_on channel=0 note=44 velocity=0 time=0
note_on channel=0 note=71 velocity=51 time=120
note_on channel=0 note=75 velocity=61 time=0
note_on channel=0 note=83 velocity=61 time=0
note_on channel=0 note=44 velocity=51 time=0
note_on channel=0 note=51 velocity=51 time=0
note_on channel=0 note=51 velocity=0 time=0
note_on channel=0 note=83 velocity=0 time=0
note_on channel=0 note=71 velocity=0 time=0
note_on channel=0 note=75 velocity=0 time=0
note_on channel=0 note=44 velocity=0 time=0
note_on channel=0 note=75 velocity=66 time=120
note_on channel=0 note=83 velocity=66 time=0
note_on channel=0 note=71 velocity=56 time=0
note_on channel=0 note=44 velocity=56 time=0
note_on channel=0 note=51 velocity=56 time=0
note_on channel=0 note=51 velocity=0 time=120
note_on channel=0 note=71 velocity=0 time=0
note_on channel=0 note=75 velocity=0 time=0
note_on channel=0 note=83 velocity=0 time=0
note_on channel=0 note=44 velocity=0 time=0
note_on channel=0 note=82 velocity=69 time=120
note_on channel=0 note=70 velocity=58 time=0
note_on channel=0 note=73 velocity=69 time=0
note_on channel=0 note=51 velocity=58 time=0
note_on channel=0 note=46 velocity=58 time=0
control_change channel=0 control=64 value=0 time=12
note_on channel=0 note=46 velocity=0 time=40
note_on channel=0 note=73 velocity=0 time=0
note_on channel=0 note=82 velocity=0 time=0
note_on channel=0 note=70 velocity=0 time=0
note_on channel=0 note=51 velocity=0 time=0
control_change channel=0 control=64 value=127 time=6
note_on channel=0 note=80 velocity=73 time=114
note_on channel=0 note=68 velocity=62 time=0
note_on channel=0 note=71 velocity=73 time=0
note_on channel=0 note=47 velocity=62 time=0
note_on channel=0 note=51 velocity=62 time=0
control_change channel=0 control=64 value=0 time=15
control_change channel=0 control=64 value=127 time=100
note_on channel=0 note=51 velocity=0 time=5
note_on channel=0 note=71 velocity=0 time=0
note_on channel=0 note=80 velocity=0 time=0
note_on channel=0 note=68 velocity=0 time=0
note_on channel=0 note=47 velocity=0 time=0
note_on channel=0 note=70 velocity=78 time=0
note_on channel=0 note=67 velocity=66 time=0
note_on channel=0 note=79 velocity=78 time=0
note_on channel=0 note=49 velocity=66 time=0
note_on channel=0 note=39 velocity=66 time=0
note_on channel=0 note=51 velocity=66 time=0
control_change channel=0 control=64 value=0 time=0
control_change channel=0 control=64 value=127 time=85
note_on channel=0 note=51 velocity=0 time=0
note_on channel=0 note=67 velocity=0 time=0
note_on channel=0 note=79 velocity=0 time=0
note_on channel=0 note=70 velocity=0 time=0
note_on channel=0 note=39 velocity=0 time=0
note_on channel=0 note=49 velocity=0 time=0
note_on channel=0 note=88 velocity=78 time=0
note_on channel=0 note=79 velocity=78 time=0
note_on channel=0 note=76 velocity=66 time=0
note_on channel=0 note=51 velocity=62 time=0
note_on channel=0 note=61 velocity=62 time=0
note_on channel=0 note=61 velocity=0 time=0
note_on channel=0 note=76 velocity=0 time=0
note_on channel=0 note=88 velocity=0 time=0
note_on channel=0 note=79 velocity=0 time=0
note_on channel=0 note=51 velocity=0 time=0
note_on channel=0 note=88 velocity=82 time=0
note_on channel=0 note=76 velocity=69 time=0
note_on channel=0 note=79 velocity=82 time=0
note_on channel=0 note=51 velocity=67 time=0
note_on channel=0 note=61 velocity=67 time=0
note_on channel=0 note=61 velocity=0 time=0
note_on channel=0 note=79 velocity=0 time=0
note_on channel=0 note=88 velocity=0 time=0
note_on channel=0 note=76 velocity=0 time=0
note_on channel=0 note=51 velocity=0 time=0
note_on channel=0 note=76 velocity=66 time=0
note_on channel=0 note=88 velocity=78 time=0
note_on channel=0 note=79 velocity=78 time=0
note_on channel=0 note=51 velocity=62 time=0
note_on channel=0 note=61 velocity=62 time=0
note_on channel=0 note=61 velocity=0 time=0
note_on channel=0 note=79 velocity=0 time=0
note_on channel=0 note=76 velocity=0 time=0
note_on channel=0 note=88 velocity=0 time=0
note_on channel=0 note=51 velocity=0 time=0
note_on channel=0 note=79 velocity=82 time=0
note_on channel=0 note=76 velocity=69 time=0
note_on channel=0 note=88 velocity=82 time=0
note_on channel=0 note=61 velocity=67 time=0
note_on channel=0 note=51 velocity=67 time=0
note_on channel=0 note=51 velocity=0 time=0
note_on channel=0 note=88 velocity=0 time=0
note_on channel=0 note=79 velocity=0 time=0
note_on channel=0 note=76 velocity=0 time=0
note_on channel=0 note=61 velocity=0 time=0
note_on channel=0 note=79 velocity=79 time=0
note_on channel=0 note=76 velocity=67 time=0
note_on channel=0 note=88 velocity=79 time=0
note_on channel=0 note=51 velocity=62 time=0
note_on channel=0 note=61 velocity=62 time=0
note_on channel=0 note=61 velocity=0 time=0
note_on channel=0 note=88 velocity=0 time=0
note_on channel=0 note=79 velocity=0 time=0
note_on channel=0 note=76 velocity=0 time=0
note_on channel=0 note=51 velocity=0 time=0
note_on channel=0 note=75 velocity=68 time=0
note_on channel=0 note=79 velocity=80 time=0
note_on channel=0 note=87 velocity=80 time=0
note_on channel=0 note=59 velocity=67 time=0
note_on channel=0 note=51 velocity=67 time=0
control_change channel=0 control=64 value=0 time=14
control_change channel=0 control=64 value=127 time=58
note_on channel=0 note=51 velocity=0 time=0
note_on channel=0 note=87 velocity=0 time=0
note_on channel=0 note=75 velocity=0 time=0
note_on channel=0 note=79 velocity=0 time=0
note_on channel=0 note=59 velocity=0 time=0
note_on channel=0 note=79 velocity=79 time=0
note_on channel=0 note=73 velocity=67 time=0
note_on channel=0 note=85 velocity=79 time=0
note_on channel=0 note=51 velocity=62 time=0
note_on channel=0 note=58 velocity=62 time=0
control_change channel=0 control=64 value=0 time=11
control_change channel=0 control=64 value=127 time=74
note_on channel=0 note=58 velocity=0 time=0
note_on channel=0 note=85 velocity=0 time=0
note_on channel=0 note=79 velocity=0 time=0
note_on channel=0 note=73 velocity=0 time=0
note_on channel=0 note=51 velocity=0 time=0
note_on channel=0 note=83 velocity=82 time=0
note_on channel=0 note=80 velocity=82 time=0
note_on channel=0 note=71 velocity=69 time=0
note_on channel=0 note=44 velocity=68 time=0
note_on channel=0 note=56 velocity=68 time=0
control_change channel=0 control=64 value=0 time=7
note_on channel=0 note=56 velocity=0 time=0
note_on channel=0 note=71 velocity=0 time=0
note_on channel=0 note=83 velocity=0 time=0
note_on channel=0 note=80 velocity=0 time=0
note_on channel=0 note=44 velocity=0 time=0
note_on channel=0 note=83 velocity=50 time=0
note_on channel=0 note=80 velocity=50 time=0
note_on channel=0 note=59 velocity=43 time=0
note_on channel=0 note=63 velocity=43 time=0
note_on channel=0 note=63 velocity=0 time=120
note_on channel=0 note=83 velocity=0 time=0
note_on channel=0 note=80 velocity=0 time=0
note_on channel=0 note=59 velocity=0 time=0
note_on channel=0 note=83 velocity=50 time=120
note_on channel=0 note=80 velocity=50 time=0
note_on channel=0 note=63 velocity=41 time=0
note_on channel=0 note=59 velocity=41 time=0
control_change channel=0 control=64 value=127 time=64
note_on channel=0 note=59 velocity=0 time=176
note_on channel=0 note=83 velocity=0 time=0
note_on channel=0 note=80 velocity=0 time=0
note_on channel=0 note=63 velocity=0 time=0
note_on channel=0 note=83 velocity=48 time=0
note_on channel=0 note=87 velocity=48 time=0
note_on channel=0 note=56 velocity=39 time=0
note_on channel=0 note=59 velocity=39 time=0
control_change channel=0 control=64 value=0 time=92
note_on channel=0 note=59 velocity=0 time=0
note_on channel=0 note=83 velocity=0 time=0
note_on channel=0 note=87 velocity=0 time=0
note_on channel=0 note=56 velocity=0 time=0
note_on channel=0 note=49 velocity=48 time=0
note_on channel=0 note=49 velocity=0 time=120
note_on channel=0 note=85 velocity=49 time=0
note_on channel=0 note=80 velocity=49 time=0
note_on channel=0 note=64 velocity=42 time=0
note_on channel=0 note=61 velocity=42 time=0
note_on channel=0 note=61 velocity=0 time=120
note_on channel=0 note=85 velocity=0 time=0
note_on channel=0 note=80 velocity=0 time=0
note_on channel=0 note=64 velocity=0 time=0
note_on channel=0 note=85 velocity=49 time=120
note_on channel=0 note=80 velocity=49 time=0
note_on channel=0 note=61 velocity=42 time=0
note_on channel=0 note=64 velocity=42 time=0
control_change channel=0 control=64 value=127 time=92
note_on channel=0 note=64 velocity=0 time=148
note_on channel=0 note=85 velocity=0 time=0
note_on channel=0 note=80 velocity=0 time=0
note_on channel=0 note=61 velocity=0 time=0
note_on channel=0 note=88 velocity=47 time=0
note_on channel=0 note=85 velocity=47 time=0
note_on channel=0 note=56 velocity=39 time=0
note_on channel=0 note=61 velocity=39 time=0
control_change channel=0 control=64 value=0 time=106
note_on channel=0 note=61 velocity=0 time=0
note_on channel=0 note=88 velocity=0 time=0
note_on channel=0 note=85 velocity=0 time=0
note_on channel=0 note=56 velocity=0 time=0
note_on channel=0 note=51 velocity=48 time=0
note_on channel=0 note=51 velocity=0 time=120
note_on channel=0 note=83 velocity=49 time=0
note_on channel=0 note=80 velocity=49 time=0
note_on channel=0 note=63 velocity=42 time=0
note_on channel=0 note=59 velocity=42 time=0
note_on channel=0 note=59 velocity=0 time=120
note_on channel=0 note=83 velocity=0 time=0
note_on channel=0 note=80 velocity=0 time=0
note_on channel=0 note=63 velocity=0 time=0
note_on channel=0 note=80 velocity=49 time=120
note_on channel=0 note=83 velocity=49 time=0
note_on channel=0 note=63 velocity=42 time=0
note_on channel=0 note=59 velocity=42 time=0
control_change channel=0 control=64 value=127 time=75
note_on channel=0 note=59 velocity=0 time=165
note_on channel=0 note=80 velocity=0 time=0
note_on channel=0 note=83 velocity=0 time=0
note_on channel=0 note=63 velocity=0 time=0
note_on channel=0 note=87 velocity=47 time=0
note_on channel=0 note=83 velocity=47 time=0
note_on channel=0 note=59 velocity=39 time=0
note_on channel=0 note=56 velocity=39 time=0
control_change channel=0 control=64 value=0 time=185
note_on channel=0 note=56 velocity=0 time=0
note_on channel=0 note=87 velocity=0 time=0
note_on channel=0 note=83 velocity=0 time=0
note_on channel=0 note=59 velocity=0 time=0
note_on channel=0 note=49 velocity=49 time=0
note_on channel=0 note=49 velocity=0 time=120
note_on channel=0 note=82 velocity=51 time=0
note_on channel=0 note=79 velocity=51 time=0
note_on channel=0 note=63 velocity=42 time=0
note_on channel=0 note=58 velocity=42 time=0
note_on channel=0 note=58 velocity=0 time=120
note_on channel=0 note=82 velocity=0 time=0
note_on channel=0 note=79 velocity=0 time=0
note_on channel=0 note=63 velocity=0 time=0
note_on channel=0 note=82 velocity=51 time=120
note_on channel=0 note=79 velocity=51 time=0
note_on channel=0 note=58 velocity=42 time=0
note_on channel=0 note=63 velocity=42 time=0
control_change channel=0 control=64 value=127 time=26
note_on channel=0 note=63 velocity=0 time=214
note_on channel=0 note=82 velocity=0 time=0
note_on channel=0 note=79 velocity=0 time=0
note_on channel=0 note=58 velocity=0 time=0
note_on channel=0 note=87 velocity=47 time=0
note_on channel=0 note=82 velocity=47 time=0
note_on channel=0 note=58 velocity=39 time=0
note_on channel=0 note=55 velocity=39 time=0
note_on channel=0 note=55 velocity=0 time=240
note_on channel=0 note=87 velocity=0 time=0
note_on channel=0 note=82 velocity=0 time=0
note_on channel=0 note=58 velocity=0 time=0
note_on channel=0 note=47 velocity=45 time=0
control_change channel=0 control=64 value=0 time=28
note_on channel=0 note=47 velocity=0 time=16
note_on channel=0 note=83 velocity=56 time=0
note_on channel=0 note=75 velocity=56 time=0
note_on channel=0 note=63 velocity=39 time=0
note_on channel=0 note=68 velocity=39 time=0
note_on channel=0 note=68 velocity=0 time=32
note_on channel=0 note=83 velocity=0 time=0
note_on channel=0 note=75 velocity=0 time=0
note_on channel=0 note=63 velocity=0 time=0
note_on channel=0 note=75 velocity=51 time=16
note_on channel=0 note=83 velocity=51 time=0
note_on channel=0 note=68 velocity=41 time=0
note_on channel=0 note=63 velocity=41 time=0
control_change channel=0 control=64 value=127 time=71
note_on channel=0 note=63 velocity=0 time=72
note_on channel=0 note=75 velocity=0 time=0
note_on channel=0 note=83 velocity=0 time=0
note_on channel=0 note=68 velocity=0 time=0
note_on channel=0 note=87 velocity=51 time=0
note_on channel=0 note=80 velocity=51 time=0
note_on channel=0 note=63 velocity=41 time=0
note_on channel=0 note=59 velocity=41 time=0
control_change channel=0 control=64 value=0 time=33
note_on channel=0 note=59 velocity=0 time=63
note_on channel=0 note=87 velocity=0 time=0
note_on channel=0 note=80 velocity=0 time=0
note_on channel=0 note=63 velocity=0 time=0
note_on channel=0 note=49 velocity=50 time=0
note_on channel=0 note=49 velocity=0 time=40
note_on channel=0 note=81 velocity=62 time=0
note_on channel=0 note=73 velocity=62 time=0
note_on channel=0 note=64 velocity=47 time=0
note_on channel=0 note=69 velocity=47 time=0
note_on channel=0 note=69 velocity=0 time=8
note_on channel=0 note=81 velocity=0 time=0
note_on channel=0 note=73 velocity=0 time=0
note_on channel=0 note=64 velocity=0 time=0
note_on channel=0 note=81 velocity=56 time=88
note_on channel=0 note=73 velocity=56 time=0
note_on channel=0 note=69 velocity=45 time=0
note_on channel=0 note=64 velocity=45 time=0
control_change channel=0 control=64 value=127 time=57
note_on channel=0 note=64 velocity=0 time=183
note_on channel=0 note=81 velocity=0 time=0
note_on channel=0 note=73 velocity=0 time=0
note_on channel=0 note=69 velocity=0 time=0
note_on channel=0 note=76 velocity=56 time=0
note_on channel=0 note=85 velocity=56 time=0
note_on channel=0 note=64 velocity=45 time=0
note_on channel=0 note=61 velocity=45 time=0
control_change channel=0 control=64 value=0 time=120
note_on channel=0 note=61 velocity=0 time=120
note_on channel=0 note=76 velocity=0 time=0
note_on channel=0 note=85 velocity=0 time=0
note_on channel=0 note=64 velocity=0 time=0
note_on channel=0 note=51 velocity=52 time=0
note_on channel=0 note=51 velocity=0 time=56
note_on channel=0 note=80 velocity=57 time=0
note_on channel=0 note=71 velocity=57 time=0
note_on channel=0 note=68 velocity=48 time=0
note_on channel=0 note=63 velocity=48 time=0
note_on channel=0 note=63 velocity=0 time=16
note_on channel=0 note=80 velocity=0 time=0
note_on channel=0 note=71 velocity=0 time=0
note_on channel=0 note=68 velocity=0 time=0
note_on channel=0 note=71 velocity=57 time=120
note_on channel=0 note=80 velocity=57 time=0
note_on channel=0 note=68 velocity=48 time=0
note_on channel=0 note=63 velocity=48 time=0
control_change channel=0 control=64 value=127 time=3
note_on channel=0 note=63 velocity=0 time=64
note_on channel=0 note=71 velocity=0 time=0
note_on channel=0 note=80 velocity=0 time=0
note_on channel=0 note=68 velocity=0 time=0
note_on channel=0 note=75 velocity=51 time=0
note_on channel=0 note=83 velocity=51 time=0
note_on channel=0 note=63 velocity=45 time=0
note_on channel=0 note=59 velocity=45 time=0
control_change channel=0 control=64 value=0 time=57
note_on channel=0 note=59 velocity=0 time=32
note_on channel=0 note=75 velocity=0 time=0
note_on channel=0 note=83 velocity=0 time=0
note_on channel=0 note=63 velocity=0 time=0
note_on channel=0 note=51 velocity=51 time=0
note_on channel=0 note=51 velocity=0 time=0
note_on channel=0 note=70 velocity=52 time=0
note_on channel=0 note=79 velocity=52 time=0
note_on channel=0 note=67 velocity=43 time=0
note_on channel=0 note=61 velocity=43 time=0
note_on channel=0 note=61 velocity=0 time=120
note_on channel=0 note=70 velocity=0 time=0
note_on channel=0 note=79 velocity=0 time=0
note_on channel=0 note=67 velocity=0 time=0
note_on channel=0 note=70 velocity=51 time=120
note_on channel=0 note=79 velocity=51 time=0
note_on channel=0 note=67 velocity=43 time=0
note_on channel=0 note=61 velocity=43 time=0
control_change channel=0 control=64 value=127 time=69
note_on channel=0 note=61 velocity=0 time=64
note_on channel=0 note=70 velocity=0 time=0
note_on channel=0 note=79 velocity=0 time=0
note_on channel=0 note=67 velocity=0 time=0
note_on channel=0 note=73 velocity=42 time=0
note_on channel=0 note=82 velocity=42 time=0
note_on channel=0 note=58 velocity=35 time=0
note_on channel=0 note=61 velocity=35 time=0
note_on channel=0 note=61 velocity=0 time=0
note_on channel=0 note=73 velocity=0 time=0
note_on channel=0 note=82 velocity=0 time=0
note_on channel=0 note=58 velocity=0 time=0
note_on channel=0 note=80 velocity=50 time=0
note_on channel=0 note=71 velocity=50 time=0
note_on channel=0 note=44 velocity=41 time=0
control_change channel=0 control=64 value=0 time=0
note_on channel=0 note=44 velocity=0 time=119
note_on channel=0 note=56 velocity=32 time=1
control_change channel=0 control=64 value=127 time=0
note_on channel=0 note=56 velocity=0 time=119
note_on channel=0 note=51 velocity=36 time=1
note_on channel=0 note=51 velocity=0 time=119
note_on channel=0 note=56 velocity=33 time=1
note_on channel=0 note=56 velocity=0 time=119
note_on channel=0 note=71 velocity=0 time=1
note_on channel=0 note=80 velocity=0 time=0
note_on channel=0 note=44 velocity=41 time=0
note_on channel=0 note=44 velocity=0 time=119
note_on channel=0 note=56 velocity=33 time=1
note_on channel=0 note=56 velocity=0 time=119
note_on channel=0 note=51 velocity=36 time=1
note_on channel=0 note=51 velocity=0 time=119
note_on channel=0 note=56 velocity=33 time=1
note_on channel=0 note=56 velocity=0 time=119
note_on channel=0 note=44 velocity=41 time=1
note_on channel=0 note=44 velocity=0 time=119
note_on channel=0 note=56 velocity=33 time=1
note_on channel=0 note=56 velocity=0 time=119
note_on channel=0 note=51 velocity=37 time=1
note_on channel=0 note=51 velocity=0 time=119
note_on channel=0 note=56 velocity=33 time=1
note_on channel=0 note=56 velocity=0 time=119
note_on channel=0 note=71 velocity=50 time=0
note_on channel=0 note=44 velocity=41 time=0
note_on channel=0 note=44 velocity=0 time=119
note_on channel=0 note=56 velocity=33 time=1
note_on channel=0 note=56 velocity=0 time=119
note_on channel=0 note=51 velocity=37 time=1
note_on channel=0 note=51 velocity=0 time=119
note_on channel=0 note=71 velocity=0 time=1
note_on channel=0 note=68 velocity=50 time=0
note_on channel=0 note=56 velocity=33 time=0
note_on channel=0 note=56 velocity=0 time=119
note_on channel=0 note=68 velocity=0 time=1
note_on channel=0 note=67 velocity=57 time=0
note_on channel=0 note=44 velocity=41 time=0
control_change channel=0 control=64 value=0 time=9
control_change channel=0 control=64 value=127 time=72
note_on channel=0 note=44 velocity=0 time=38
note_on channel=0 note=58 velocity=33 time=1
note_on channel=0 note=58 velocity=0 time=119
note_on channel=0 note=51 velocity=38 time=1
note_on channel=0 note=51 velocity=0 time=119
note_on channel=0 note=58 velocity=33 time=1
note_on channel=0 note=58 velocity=0 time=119
note_on channel=0 note=67 velocity=0 time=0
note_on channel=0 note=61 velocity=39 time=0
note_on channel=0 note=67 velocity=47 time=0
note_on channel=0 note=75 velocity=47 time=0
note_on channel=0 note=44 velocity=41 time=0
note_on channel=0 note=44 velocity=0 time=119
note_on channel=0 note=58 velocity=33 time=1
note_on channel=0 note=58 velocity=0 time=119
note_on channel=0 note=51 velocity=37 time=1
note_on channel=0 note=51 velocity=0 time=119
note_on channel=0 note=61 velocity=0 time=1
note_on channel=0 note=67 velocity=0 time=0
note_on channel=0 note=75 velocity=0 time=0
note_on channel=0 note=58 velocity=34 time=0
note_on channel=0 note=58 velocity=0 time=119
note_on channel=0 note=75 velocity=47 time=1
note_on channel=0 note=61 velocity=39 time=0
note_on channel=0 note=67 velocity=47 time=0
note_on channel=0 note=44 velocity=41 time=0
note_on channel=0 note=44 velocity=0 time=119
note_on channel=0 note=58 velocity=34 time=1
note_on channel=0 note=58 velocity=0 time=119
note_on channel=0 note=51 velocity=38 time=1
note_on channel=0 note=51 velocity=0 time=119
note_on channel=0 note=75 velocity=0 time=1
note_on channel=0 note=61 velocity=0 time=0
note_on channel=0 note=67 velocity=0 time=0
note_on channel=0 note=58 velocity=33 time=0
note_on channel=0 note=58 velocity=0 time=119
note_on channel=0 note=67 velocity=50 time=1
note_on channel=0 note=75 velocity=50 time=0
note_on channel=0 note=61 velocity=42 time=0
note_on channel=0 note=44 velocity=41 time=0
note_on channel=0 note=44 velocity=0 time=119
note_on channel=0 note=58 velocity=33 time=1
note_on channel=0 note=58 velocity=0 time=119
note_on channel=0 note=51 velocity=36 time=1
note_on channel=0 note=51 velocity=0 time=119
note_on channel=0 note=67 velocity=0 time=0
note_on channel=0 note=75 velocity=0 time=0
note_on channel=0 note=61 velocity=0 time=0
note_on channel=0 note=59 velocity=50 time=0
note_on channel=0 note=58 velocity=33 time=0
note_on channel=0 note=68 velocity=50 time=60
note_on channel=0 note=59 velocity=0 time=20
note_on channel=0 note=58 velocity=0 time=39
note_on channel=0 note=75 velocity=57 time=0
note_on channel=0 note=44 velocity=41 time=0
note_on channel=0 note=68 velocity=0 time=20
control_change channel=0 control=64 value=0 time=1
control_change channel=0 control=64 value=127 time=85
note_on channel=0 note=44 velocity=0 time=13
note_on channel=0 note=56 velocity=32 time=1
note_on channel=0 note=56 velocity=0 time=119
note_on channel=0 note=51 velocity=37 time=1
note_on channel=0 note=51 velocity=0 time=119
note_on channel=0 note=56 velocity=32 time=1
note_on channel=0 note=56 velocity=0 time=119
note_on channel=0 note=44 velocity=41 time=1
note_on channel=0 note=44 velocity=0 time=119
note_on channel=0 note=56 velocity=33 time=1
note_on channel=0 note=56 velocity=0 time=119
note_on channel=0 note=51 velocity=38 time=1
note_on channel=0 note=51 velocity=0 time=119
note_on channel=0 note=56 velocity=34 time=1
note_on channel=0 note=56 velocity=0 time=119
note_on channel=0 note=44 velocity=41 time=1
note_on channel=0 note=44 velocity=0 time=119
note_on channel=0 note=56 velocity=34 time=1
note_on channel=0 note=56 velocity=0 time=119
note_on channel=0 note=51 velocity=38 time=1
note_on channel=0 note=51 velocity=0 time=119
note_on channel=0 note=56 velocity=33 time=1
note_on channel=0 note=56 velocity=0 time=39
note_on channel=0 note=75 velocity=0 time=0
note_on channel=0 note=83 velocity=58 time=0
note_on channel=0 note=44 velocity=41 time=0
note_on channel=0 note=44 velocity=0 time=119
note_on channel=0 note=56 velocity=33 time=1
note_on channel=0 note=56 velocity=0 time=119
note_on channel=0 note=51 velocity=36 time=1
note_on channel=0 note=51 velocity=0 time=119
note_on channel=0 note=83 velocity=0 time=1
note_on channel=0 note=80 velocity=58 time=0
note_on channel=0 note=56 velocity=34 time=0
note_on channel=0 note=56 velocity=0 time=119
note_on channel=0 note=80 velocity=0 time=1
note_on channel=0 note=79 velocity=67 time=0
note_on channel=0 note=44 velocity=41 time=0
control_change channel=0 control=64 value=0 time=0
control_change channel=0 control=64 value=127 time=71
note_on channel=0 note=44 velocity=0 time=48
note_on channel=0 note=58 velocity=33 time=1
note_on channel=0 note=58 velocity=0 time=119
note_on channel=0 note=51 velocity=36 time=1
note_on channel=0 note=51 velocity=0 time=119
note_on channel=0 note=58 velocity=33 time=1
note_on channel=0 note=58 velocity=0 time=119
note_on channel=0 note=79 velocity=0 time=0
note_on channel=0 note=79 velocity=57 time=0
note_on channel=0 note=87 velocity=57 time=0
note_on channel=0 note=73 velocity=48 time=0
note_on channel=0 note=44 velocity=41 time=0
note_on channel=0 note=44 velocity=0 time=119
note_on channel=0 note=58 velocity=33 time=1
note_on channel=0 note=58 velocity=0 time=119
note_on channel=0 note=51 velocity=36 time=1
note_on channel=0 note=51 velocity=0 time=119
note_on channel=0 note=79 velocity=0 time=1
note_on channel=0 note=87 velocity=0 time=0
note_on channel=0 note=73 velocity=0 time=0
note_on channel=0 note=58 velocity=33 time=0
note_on channel=0 note=58 velocity=0 time=119
note_on channel=0 note=73 velocity=48 time=1
note_on channel=0 note=87 velocity=57 time=0
note_on channel=0 note=79 velocity=57 time=0
note_on channel=0 note=44 velocity=41 time=0
note_on channel=0 note=44 velocity=0 time=119
note_on channel=0 note=58 velocity=33 time=1
note_on channel=0 note=58 velocity=0 time=119
note_on channel=0 note=51 velocity=36 time=1
note_on channel=0 note=51 velocity=0 time=119
note_on channel=0 note=73 velocity=0 time=1
note_on channel=0 note=87 velocity=0 time=0
note_on channel=0 note=79 velocity=0 time=0
note_on channel=0 note=58 velocity=33 time=0
note_on channel=0 note=58 velocity=0 time=119
note_on channel=0 note=87 velocity=57 time=1
note_on channel=0 note=79 velocity=57 time=0
note_on channel=0 note=73 velocity=48 time=0
note_on channel=0 note=44 velocity=41 time=0
note_on channel=0 note=44 velocity=0 time=119
note_on channel=0 note=58 velocity=34 time=1
note_on channel=0 note=58 velocity=0 time=119
note_on channel=0 note=51 velocity=39 time=1
note_on channel=0 note=51 velocity=0 time=39
note_on channel=0 note=87 velocity=0 time=0
note_on channel=0 note=79 velocity=0 time=0
note_on channel=0 note=73 velocity=0 time=0
note_on channel=0 note=71 velocity=47 time=0
note_on channel=0 note=58 velocity=34 time=0
note_on channel=0 note=80 velocity=52 time=60
note_on channel=0 note=71 velocity=0 time=20
note_on channel=0 note=58 velocity=0 time=39
note_on channel=0 note=87 velocity=73 time=0
note_on channel=0 note=44 velocity=41 time=0
control_change channel=0 control=64 value=0 time=8
note_on channel=0 note=80 velocity=0 time=12
control_change channel=0 control=64 value=127 time=77
note_on channel=0 note=44 velocity=0 time=22
note_on channel=0 note=56 velocity=33 time=1
note_on channel=0 note=56 velocity=0 time=119
note_on channel=0 note=51 velocity=36 time=1
note_on channel=0 note=51 velocity=0 time=119
note_on channel=0 note=56 velocity=33 time=1
note_on channel=0 note=56 velocity=0 time=119
note_on channel=0 note=44 velocity=42 time=1
note_on channel=0 note=44 velocity=0 time=119
note_on channel=0 note=56 velocity=33 time=1
note_on channel=0 note=56 velocity=0 time=119
note_on channel=0 note=51 velocity=35 time=1
note_on channel=0 note=51 velocity=0 time=119
note_on channel=0 note=87 velocity=0 time=0
note_on channel=0 note=73 velocity=43 time=0
note_on channel=0 note=56 velocity=33 time=0
note_on channel=0 note=79 velocity=51 time=60
note_on channel=0 note=73 velocity=0 time=20
note_on channel=0 note=56 velocity=0 time=39
note_on channel=0 note=87 velocity=72 time=0
note_on channel=0 note=44 velocity=41 time=0
control_change channel=0 control=64 value=0 time=12
note_on channel=0 note=79 velocity=0 time=8
control_change channel=0 control=64 value=127 time=77
note_on channel=0 note=44 velocity=0 time=22
note_on channel=0 note=58 velocity=34 time=1
note_on channel=0 note=58 velocity=0 time=119
note_on channel=0 note=51 velocity=37 time=1
note_on channel=0 note=51 velocity=0 time=119
note_on channel=0 note=58 velocity=34 time=1
note_on channel=0 note=58 velocity=0 time=119
note_on channel=0 note=44 velocity=41 time=1
note_on channel=0 note=44 velocity=0 time=119
note_on channel=0 note=58 velocity=33 time=1
note_on channel=0 note=58 velocity=0 time=119
note_on channel=0 note=51 velocity=38 time=1
note_on channel=0 note=51 velocity=0 time=119
note_on channel=0 note=87 velocity=0 time=0
note_on channel=0 note=71 velocity=40 time=0
note_on channel=0 note=58 velocity=33 time=0
note_on channel=0 note=80 velocity=50 time=60
note_on channel=0 note=71 velocity=0 time=20
note_on channel=0 note=58 velocity=0 time=39
note_on channel=0 note=87 velocity=72 time=0
note_on channel=0 note=44 velocity=41 time=0
control_change channel=0 control=64 value=0 time=8
note_on channel=0 note=80 velocity=0 time=12
control_change channel=0 control=64 value=127 time=57
note_on channel=0 note=44 velocity=0 time=42
note_on channel=0 note=56 velocity=33 time=1
note_on channel=0 note=56 velocity=0 time=119
note_on channel=0 note=51 velocity=36 time=1
note_on channel=0 note=51 velocity=0 time=119
note_on channel=0 note=56 velocity=33 time=1
note_on channel=0 note=56 velocity=0 time=119
note_on channel=0 note=44 velocity=41 time=1
note_on channel=0 note=44 velocity=0 time=119
note_on channel=0 note=56 velocity=34 time=1
note_on channel=0 note=56 velocity=0 time=119
note_on channel=0 note=51 velocity=36 time=1
note_on channel=0 note=51 velocity=0 time=119
note_on channel=0 note=87 velocity=0 time=1
note_on channel=0 note=73 velocity=45 time=0
note_on channel=0 note=56 velocity=33 time=0
note_on channel=0 note=79 velocity=52 time=60
note_on channel=0 note=73 velocity=0 time=20
note_on channel=0 note=56 velocity=0 time=39
note_on channel=0 note=87 velocity=71 time=1
note_on channel=0 note=44 velocity=41 time=0
control_change channel=0 control=64 value=0 time=11
note_on channel=0 note=79 velocity=0 time=9
control_change channel=0 control=64 value=127 time=52
note_on channel=0 note=44 velocity=0 time=47
note_on channel=0 note=58 velocity=34 time=1
note_on channel=0 note=58 velocity=0 time=119
note_on channel=0 note=51 velocity=37 time=1
note_on channel=0 note=51 velocity=0 time=119
note_on channel=0 note=58 velocity=34 time=1
note_on channel=0 note=58 velocity=0 time=119
note_on channel=0 note=44 velocity=41 time=1
note_on channel=0 note=44 velocity=0 time=119
note_on channel=0 note=58 velocity=34 time=1
note_on channel=0 note=58 velocity=0 time=119
note_on channel=0 note=51 velocity=37 time=1
note_on channel=0 note=51 velocity=0 time=119
note_on channel=0 note=58 velocity=34 time=1
note_on channel=0 note=58 velocity=0 time=119
note_on channel=0 note=87 velocity=0 time=1
note_on channel=0 note=59 velocity=49 time=0
note_on channel=0 note=44 velocity=42 time=0
control_change channel=0 control=64 value=0 time=7
control_change channel=0 control=64 value=127 time=4
note_on channel=0 note=44 velocity=0 time=27
note_on channel=0 note=59 velocity=0 time=0
note_on channel=0 note=68 velocity=50 time=0
note_on channel=0 note=56 velocity=41 time=0
note_on channel=0 note=56 velocity=0 time=87
note_on channel=0 note=68 velocity=0 time=0
note_on channel=0 note=63 velocity=51 time=1
note_on channel=0 note=51 velocity=42 time=0
note_on channel=0 note=51 velocity=0 time=119
note_on channel=0 note=63 velocity=0 time=0
note_on channel=0 note=68 velocity=47 time=1
note_on channel=0 note=56 velocity=39 time=0
note_on channel=0 note=56 velocity=0 time=119
note_on channel=0 note=68 velocity=0 time=0
note_on channel=0 note=59 velocity=52 time=1
note_on channel=0 note=44 velocity=43 time=0
note_on channel=0 note=44 velocity=0 time=71
note_on channel=0 note=59 velocity=0 time=0
note_on channel=0 note=68 velocity=53 time=1
note_on channel=0 note=56 velocity=44 time=0
note_on channel=0 note=56 velocity=0 time=71
note_on channel=0 note=68 velocity=0 time=0
note_on channel=0 note=63 velocity=54 time=1
note_on channel=0 note=51 velocity=45 time=0
note_on channel=0 note=51 velocity=0 time=119
note_on channel=0 note=63 velocity=0 time=0
note_on channel=0 note=68 velocity=52 time=1
note_on channel=0 note=56 velocity=42 time=0
note_on channel=0 note=56 velocity=0 time=119
note_on channel=0 note=68 velocity=0 time=0
note_on channel=0 note=59 velocity=57 time=1
note_on channel=0 note=44 velocity=47 time=0
note_on channel=0 note=44 velocity=0 time=23
note_on channel=0 note=59 velocity=0 time=0
note_on channel=0 note=68 velocity=57 time=1
note_on channel=0 note=56 velocity=48 time=0
note_on channel=0 note=56 velocity=0 time=39
note_on channel=0 note=68 velocity=0 time=0
note_on channel=0 note=63 velocity=58 time=1
note_on channel=0 note=51 velocity=48 time=0
note_on channel=0 note=51 velocity=0 time=87
note_on channel=0 note=63 velocity=0 time=0
note_on channel=0 note=68 velocity=54 time=1
note_on channel=0 note=56 velocity=44 time=0
note_on channel=0 note=56 velocity=0 time=119
note_on channel=0 note=68 velocity=0 time=0
note_on channel=0 note=59 velocity=61 time=1
note_on channel=0 note=44 velocity=51 time=0
note_on channel=0 note=44 velocity=0 time=119
note_on channel=0 note=59 velocity=0 time=0
note_on channel=0 note=68 velocity=62 time=1
note_on channel=0 note=56 velocity=51 time=0
note_on channel=0 note=56 velocity=0 time=119
note_on channel=0 note=68 velocity=0 time=0
note_on channel=0 note=63 velocity=62 time=1
note_on channel=0 note=51 velocity=52 time=0
note_on channel=0 note=51 velocity=0 time=23
note_on channel=0 note=63 velocity=0 time=0
note_on channel=0 note=68 velocity=57 time=1
note_on channel=0 note=56 velocity=47 time=0
note_on channel=0 note=56 velocity=0 time=119
note_on channel=0 note=68 velocity=0 time=0
note_on channel=0 note=60 velocity=66 time=1
note_on channel=0 note=44 velocity=53 time=0
control_change channel=0 control=64 value=0 time=0
control_change channel=0 control=64 value=127 time=75
note_on channel=0 note=44 velocity=0 time=44
note_on channel=0 note=60 velocity=0 time=0
note_on channel=0 note=66 velocity=67 time=1
note_on channel=0 note=54 velocity=56 time=0
note_on channel=0 note=54 velocity=0 time=119
note_on channel=0 note=66 velocity=0 time=0
note_on channel=0 note=63 velocity=68 time=1
note_on channel=0 note=51 velocity=56 time=0
note_on channel=0 note=51 velocity=0 time=119
note_on channel=0 note=63 velocity=0 time=0
note_on channel=0 note=66 velocity=63 time=1
note_on channel=0 note=54 velocity=52 time=0
note_on channel=0 note=54 velocity=0 time=119
note_on channel=0 note=66 velocity=0 time=0
note_on channel=0 note=60 velocity=69 time=1
note_on channel=0 note=44 velocity=57 time=0
note_on channel=0 note=44 velocity=0 time=119
note_on channel=0 note=60 velocity=0 time=0
note_on channel=0 note=66 velocity=70 time=1
note_on channel=0 note=54 velocity=58 time=0
note_on channel=0 note=54 velocity=0 time=47
note_on channel=0 note=66 velocity=0 time=0
note_on channel=0 note=63 velocity=71 time=0
note_on channel=0 note=51 velocity=60 time=0
note_on channel=0 note=51 velocity=0 time=47
note_on channel=0 note=63 velocity=0 time=0
note_on channel=0 note=66 velocity=68 time=1
note_on channel=0 note=54 velocity=57 time=0
note_on channel=0 note=54 velocity=0 time=119
note_on channel=0 note=66 velocity=0 time=0
note_on channel=0 note=60 velocity=73 time=1
note_on channel=0 note=44 velocity=62 time=0
note_on channel=0 note=44 velocity=0 time=119
note_on channel=0 note=60 velocity=0 time=0
note_on channel=0 note=66 velocity=74 time=1
note_on channel=0 note=54 velocity=62 time=0
note_on channel=0 note=54 velocity=0 time=119
note_on channel=0 note=66 velocity=0 time=0
note_on channel=0 note=63 velocity=75 time=1
note_on channel=0 note=51 velocity=63 time=0
note_on channel=0 note=51 velocity=0 time=15
note_on channel=0 note=63 velocity=0 time=0
note_on channel=0 note=66 velocity=70 time=1
note_on channel=0 note=54 velocity=59 time=0
note_on channel=0 note=54 velocity=0 time=119
note_on channel=0 note=66 velocity=0 time=0
note_on channel=0 note=60 velocity=78 time=1
note_on channel=0 note=44 velocity=65 time=0
note_on channel=0 note=44 velocity=0 time=119
note_on channel=0 note=60 velocity=0 time=0
note_on channel=0 note=66 velocity=79 time=1
note_on channel=0 note=54 velocity=67 time=0
note_on channel=0 note=54 velocity=0 time=119
note_on channel=0 note=66 velocity=0 time=0
note_on channel=0 note=63 velocity=79 time=1
note_on channel=0 note=51 velocity=67 time=0
note_on channel=0 note=51 velocity=0 time=31
note_on channel=0 note=63 velocity=0 time=0
note_on channel=0 note=66 velocity=73 time=1
note_on channel=0 note=54 velocity=60 time=0
note_on channel=0 note=54 velocity=0 time=87
note_on channel=0 note=66 velocity=0 time=0
note_on channel=0 note=61 velocity=80 time=0
control_change channel=0 control=91 value=127 time=0
note_on channel=0 note=65 velocity=80 time=0
note_on channel=0 note=37 velocity=48 time=0
note_on channel=0 note=53 velocity=57 time=0
note_on channel=0 note=56 velocity=57 time=0
control_change channel=0 control=91 value=127 time=0
control_change channel=0 control=64 value=0 time=0
note_on channel=0 note=56 velocity=0 time=120
note_on channel=0 note=37 velocity=0 time=0
note_on channel=0 note=61 velocity=0 time=0
note_on channel=0 note=65 velocity=0 time=0
note_on channel=0 note=53 velocity=0 time=0
note_on channel=0 note=49 velocity=51 time=0
note_on channel=0 note=53 velocity=51 time=120
note_on channel=0 note=44 velocity=34 time=0
note_on channel=0 note=49 velocity=0 time=20
note_on channel=0 note=44 velocity=0 time=100
note_on channel=0 note=56 velocity=52 time=0
note_on channel=0 note=53 velocity=0 time=20
note_on channel=0 note=61 velocity=54 time=100
note_on channel=0 note=37 velocity=36 time=0
note_on channel=0 note=56 velocity=0 time=20
note_on channel=0 note=37 velocity=0 time=100
note_on channel=0 note=53 velocity=49 time=0
note_on channel=0 note=61 velocity=0 time=20
note_on channel=0 note=56 velocity=50 time=100
note_on channel=0 note=44 velocity=34 time=0
note_on channel=0 note=53 velocity=0 time=20
note_on channel=0 note=44 velocity=0 time=100
note_on channel=0 note=61 velocity=51 time=0
note_on channel=0 note=56 velocity=0 time=20
note_on channel=0 note=65 velocity=51 time=100
note_on channel=0 note=37 velocity=36 time=0
note_on channel=0 note=61 velocity=0 time=20
note_on channel=0 note=37 velocity=0 time=100
note_on channel=0 note=56 velocity=48 time=0
note_on channel=0 note=65 velocity=0 time=20
note_on channel=0 note=61 velocity=50 time=100
note_on channel=0 note=44 velocity=34 time=0
note_on channel=0 note=56 velocity=0 time=20
note_on channel=0 note=44 velocity=0 time=100
note_on channel=0 note=65 velocity=51 time=0
note_on channel=0 note=61 velocity=0 time=20
note_on channel=0 note=68 velocity=52 time=100
note_on channel=0 note=37 velocity=35 time=0
note_on channel=0 note=65 velocity=0 time=20
note_on channel=0 note=37 velocity=0 time=100
note_on channel=0 note=61 velocity=49 time=0
note_on channel=0 note=68 velocity=0 time=20
note_on channel=0 note=65 velocity=50 time=100
note_on channel=0 note=44 velocity=33 time=0
note_on channel=0 note=61 velocity=0 time=20
note_on channel=0 note=44 velocity=0 time=100
note_on channel=0 note=68 velocity=51 time=0
note_on channel=0 note=65 velocity=0 time=20
note_on channel=0 note=73 velocity=51 time=100
note_on channel=0 note=37 velocity=42 time=0
note_on channel=0 note=68 velocity=0 time=20
note_on channel=0 note=37 velocity=0 time=100
note_on channel=0 note=65 velocity=49 time=0
note_on channel=0 note=73 velocity=0 time=20
note_on channel=0 note=68 velocity=51 time=100
note_on channel=0 note=44 velocity=39 time=0
note_on channel=0 note=65 velocity=0 time=20
note_on channel=0 note=44 velocity=0 time=100
note_on channel=0 note=73 velocity=51 time=0
note_on channel=0 note=68 velocity=0 time=20
note_on channel=0 note=77 velocity=54 time=100
note_on channel=0 note=37 velocity=43 time=0
note_on channel=0 note=73 velocity=0 time=20
note_on channel=0 note=37 velocity=0 time=100
note_on channel=0 note=68 velocity=49 time=0
note_on channel=0 note=77 velocity=0 time=20
note_on channel=0 note=73 velocity=51 time=100
note_on channel=0 note=44 velocity=39 time=0
note_on channel=0 note=68 velocity=0 time=20
note_on channel=0 note=44 velocity=0 time=100
note_on channel=0 note=77 velocity=51 time=0
note_on channel=0 note=73 velocity=0 time=20
note_on channel=0 note=80 velocity=53 time=100
note_on channel=0 note=37 velocity=43 time=0
note_on channel=0 note=77 velocity=0 time=20
note_on channel=0 note=37 velocity=0 time=100
note_on channel=0 note=73 velocity=50 time=0
note_on channel=0 note=80 velocity=0 time=20
note_on channel=0 note=77 velocity=51 time=100
note_on channel=0 note=44 velocity=39 time=0
note_on channel=0 note=73 velocity=0 time=20
note_on channel=0 note=44 velocity=0 time=100
note_on channel=0 note=80 velocity=52 time=0
note_on channel=0 note=77 velocity=0 time=20
note_on channel=0 note=80 velocity=0 time=0
note_on channel=0 note=73 velocity=78 time=0
note_on channel=0 note=77 velocity=78 time=0
note_on channel=0 note=80 velocity=93 time=0
note_on channel=0 note=85 velocity=93 time=0
note_on channel=0 note=49 velocity=77 time=0
note_on channel=0 note=37 velocity=64 time=0
control_change channel=0 control=64 value=127 time=97
note_on channel=0 note=37 velocity=0 time=23
note_on channel=0 note=77 velocity=0 time=0
note_on channel=0 note=80 velocity=0 time=0
note_on channel=0 note=73 velocity=0 time=0
note_on channel=0 note=49 velocity=0 time=0
note_on channel=0 note=85 velocity=0 time=0
note_on channel=0 note=80 velocity=78 time=120
note_on channel=0 note=73 velocity=65 time=0
note_on channel=0 note=85 velocity=78 time=0
note_on channel=0 note=77 velocity=65 time=0
note_on channel=0 note=44 velocity=64 time=0
note_on channel=0 note=44 velocity=0 time=120
note_on channel=0 note=85 velocity=0 time=0
note_on channel=0 note=80 velocity=0 time=0
note_on channel=0 note=73 velocity=0 time=0
note_on channel=0 note=77 velocity=0 time=0
note_on channel=0 note=35 velocity=68 time=0
control_change channel=0 control=64 value=0 time=0
note_on channel=0 note=35 velocity=0 time=120
note_on channel=0 note=49 velocity=51 time=0
note_on channel=0 note=53 velocity=52 time=120
note_on channel=0 note=44 velocity=43 time=0
note_on channel=0 note=49 velocity=0 time=20
note_on channel=0 note=44 velocity=0 time=100
note_on channel=0 note=56 velocity=54 time=0
note_on channel=0 note=53 velocity=0 time=20
note_on channel=0 note=61 velocity=56 time=100
note_on channel=0 note=35 velocity=47 time=0
note_on channel=0 note=56 velocity=0 time=20
note_on channel=0 note=35 velocity=0 time=100
note_on channel=0 note=53 velocity=51 time=0
note_on channel=0 note=61 velocity=0 time=20
note_on channel=0 note=56 velocity=53 time=100
note_on channel=0 note=44 velocity=44 time=0
note_on channel=0 note=53 velocity=0 time=20
note_on channel=0 note=44 velocity=0 time=100
note_on channel=0 note=61 velocity=54 time=0
note_on channel=0 note=56 velocity=0 time=20
note_on channel=0 note=65 velocity=56 time=100
note_on channel=0 note=35 velocity=48 time=0
note_on channel=0 note=61 velocity=0 time=20
note_on channel=0 note=35 velocity=0 time=100
note_on channel=0 note=56 velocity=51 time=0
note_on channel=0 note=65 velocity=0 time=20
note_on channel=0 note=61 velocity=53 time=100
note_on channel=0 note=44 velocity=43 time=0
note_on channel=0 note=56 velocity=0 time=20
note_on channel=0 note=44 velocity=0 time=100
note_on channel=0 note=65 velocity=56 time=0
note_on channel=0 note=61 velocity=0 time=20
note_on channel=0 note=68 velocity=57 time=100
note_on channel=0 note=35 velocity=48 time=0
note_on channel=0 note=65 velocity=0 time=20
note_on channel=0 note=35 velocity=0 time=100
note_on channel=0 note=61 velocity=51 time=0
note_on channel=0 note=68 velocity=0 time=20
note_on channel=0 note=65 velocity=53 time=100
note_on channel=0 note=44 velocity=44 time=0
note_on channel=0 note=61 velocity=0 time=20
note_on channel=0 note=44 velocity=0 time=100
note_on channel=0 note=68 velocity=56 time=0
note_on channel=0 note=65 velocity=0 time=20
note_on channel=0 note=73 velocity=57 time=100
note_on channel=0 note=35 velocity=48 time=0
note_on channel=0 note=68 velocity=0 time=20
note_on channel=0 note=35 velocity=0 time=100
note_on channel=0 note=65 velocity=53 time=0
note_on channel=0 note=73 velocity=0 time=20
note_on channel=0 note=68 velocity=56 time=100
note_on channel=0 note=44 velocity=44 time=0
note_on channel=0 note=65 velocity=0 time=20
note_on channel=0 note=44 velocity=0 time=100
note_on channel=0 note=73 velocity=57 time=0
note_on channel=0 note=68 velocity=0 time=20
note_on channel=0 note=77 velocity=57 time=100
note_on channel=0 note=35 velocity=48 time=0
note_on channel=0 note=73 velocity=0 time=20
note_on channel=0 note=35 velocity=0 time=100
note_on channel=0 note=68 velocity=52 time=0
note_on channel=0 note=77 velocity=0 time=20
note_on channel=0 note=73 velocity=54 time=100
note_on channel=0 note=44 velocity=44 time=0
note_on channel=0 note=68 velocity=0 time=20
note_on channel=0 note=44 velocity=0 time=100
note_on channel=0 note=77 velocity=56 time=0
note_on channel=0 note=73 velocity=0 time=20
note_on channel=0 note=80 velocity=58 time=100
note_on channel=0 note=35 velocity=48 time=0
note_on channel=0 note=77 velocity=0 time=20
note_on channel=0 note=35 velocity=0 time=100
note_on channel=0 note=73 velocity=52 time=0
note_on channel=0 note=80 velocity=0 time=20
note_on channel=0 note=77 velocity=56 time=100
note_on channel=0 note=44 velocity=44 time=0
note_on channel=0 note=73 velocity=0 time=20
note_on channel=0 note=44 velocity=0 time=100
note_on channel=0 note=80 velocity=59 time=0
note_on channel=0 note=77 velocity=0 time=20
note_on channel=0 note=80 velocity=0 time=0
note_on channel=0 note=73 velocity=78 time=0
note_on channel=0 note=77 velocity=78 time=0
note_on channel=0 note=85 velocity=93 time=0
note_on channel=0 note=80 velocity=93 time=0
note_on channel=0 note=35 velocity=64 time=0
note_on channel=0 note=47 velocity=77 time=0
control_change channel=0 control=64 value=127 time=75
note_on channel=0 note=47 velocity=0 time=45
note_on channel=0 note=77 velocity=0 time=0
note_on channel=0 note=85 velocity=0 time=0
note_on channel=0 note=73 velocity=0 time=0
note_on channel=0 note=35 velocity=0 time=0
note_on channel=0 note=80 velocity=0 time=0
note_on channel=0 note=77 velocity=67 time=120
note_on channel=0 note=80 velocity=81 time=0
note_on channel=0 note=73 velocity=67 time=0
note_on channel=0 note=85 velocity=81 time=0
note_on channel=0 note=44 velocity=64 time=0
note_on channel=0 note=44 velocity=0 time=120
note_on channel=0 note=73 velocity=0 time=0
note_on channel=0 note=77 velocity=0 time=0
note_on channel=0 note=80 velocity=0 time=0
note_on channel=0 note=85 velocity=0 time=0
note_on channel=0 note=33 velocity=68 time=0
control_change channel=0 control=64 value=0 time=11
note_on channel=0 note=33 velocity=0 time=109
note_on channel=0 note=49 velocity=62 time=0
note_on channel=0 note=54 velocity=62 time=120
note_on channel=0 note=45 velocity=51 time=0
note_on channel=0 note=49 velocity=0 time=20
note_on channel=0 note=45 velocity=0 time=100
note_on channel=0 note=57 velocity=65 time=0
note_on channel=0 note=54 velocity=0 time=20
note_on channel=0 note=61 velocity=67 time=100
note_on channel=0 note=33 velocity=55 time=0
note_on channel=0 note=57 velocity=0 time=20
note_on channel=0 note=61 velocity=0 time=40
note_on channel=0 note=33 velocity=0 time=60
note_on channel=0 note=61 velocity=62 time=0
note_on channel=0 note=66 velocity=65 time=120
note_on channel=0 note=45 velocity=51 time=0
note_on channel=0 note=61 velocity=0 time=20
note_on channel=0 note=45 velocity=0 time=100
note_on channel=0 note=69 velocity=67 time=0
note_on channel=0 note=66 velocity=0 time=20
note_on channel=0 note=73 velocity=68 time=100
note_on channel=0 note=33 velocity=55 time=0
note_on channel=0 note=69 velocity=0 time=20
note_on channel=0 note=73 velocity=0 time=40
note_on channel=0 note=33 velocity=0 time=60
note_on channel=0 note=73 velocity=62 time=0
note_on channel=0 note=78 velocity=65 time=120
note_on channel=0 note=45 velocity=51 time=0
note_on channel=0 note=73 velocity=0 time=20
note_on channel=0 note=45 velocity=0 time=100
note_on channel=0 note=81 velocity=68 time=0
note_on channel=0 note=78 velocity=0 time=20
note_on channel=0 note=81 velocity=0 time=0
note_on channel=0 note=78 velocity=85 time=0
note_on channel=0 note=73 velocity=85 time=0
note_on channel=0 note=81 velocity=101 time=0
note_on channel=0 note=85 velocity=101 time=0
note_on channel=0 note=33 velocity=83 time=0
control_change channel=0 control=64 value=127 time=39
note_on channel=0 note=33 velocity=0 time=81
note_on channel=0 note=81 velocity=0 time=0
note_on channel=0 note=78 velocity=0 time=0
note_on channel=0 note=73 velocity=0 time=0
note_on channel=0 note=85 velocity=0 time=0
note_on channel=0 note=78 velocity=72 time=120
note_on channel=0 note=85 velocity=86 time=0
note_on channel=0 note=81 velocity=86 time=0
note_on channel=0 note=73 velocity=72 time=0
note_on channel=0 note=45 velocity=71 time=0
note_on channel=0 note=45 velocity=0 time=120
note_on channel=0 note=81 velocity=0 time=0
note_on channel=0 note=78 velocity=0 time=0
note_on channel=0 note=85 velocity=0 time=0
note_on channel=0 note=73 velocity=0 time=0
note_on channel=0 note=29 velocity=56 time=0
control_change channel=0 control=64 value=0 time=18
note_on channel=0 note=29 velocity=0 time=102
note_on channel=0 note=49 velocity=62 time=0
note_on channel=0 note=56 velocity=62 time=120
note_on channel=0 note=41 velocity=52 time=0
note_on channel=0 note=49 velocity=0 time=20
note_on channel=0 note=41 velocity=0 time=100
note_on channel=0 note=59 velocity=66 time=0
note_on channel=0 note=56 velocity=0 time=20
note_on channel=0 note=61 velocity=68 time=100
note_on channel=0 note=29 velocity=53 time=0
note_on channel=0 note=59 velocity=0 time=20
note_on channel=0 note=61 velocity=0 time=40
note_on channel=0 note=29 velocity=0 time=60
note_on channel=0 note=61 velocity=62 time=0
note_on channel=0 note=68 velocity=63 time=120
note_on channel=0 note=41 velocity=51 time=0
note_on channel=0 note=61 velocity=0 time=20
note_on channel=0 note=41 velocity=0 time=100
note_on channel=0 note=71 velocity=67 time=0
note_on channel=0 note=68 velocity=0 time=20
note_on channel=0 note=73 velocity=68 time=40
note_on channel=0 note=29 velocity=53 time=0
note_on channel=0 note=71 velocity=0 time=20
note_on channel=0 note=73 velocity=0 time=40
note_on channel=0 note=29 velocity=0 time=60
note_on channel=0 note=73 velocity=62 time=0
note_on channel=0 note=80 velocity=63 time=120
note_on channel=0 note=41 velocity=50 time=0
note_on channel=0 note=73 velocity=0 time=20
note_on channel=0 note=41 velocity=0 time=100
note_on channel=0 note=83 velocity=67 time=0
note_on channel=0 note=80 velocity=0 time=20
note_on channel=0 note=83 velocity=0 time=0
note_on channel=0 note=73 velocity=88 time=0
note_on channel=0 note=80 velocity=88 time=0
note_on channel=0 note=85 velocity=104 time=0
note_on channel=0 note=83 velocity=104 time=0
note_on channel=0 note=29 velocity=83 time=0
control_change channel=0 control=64 value=127 time=53
note_on channel=0 note=29 velocity=0 time=67
note_on channel=0 note=85 velocity=0 time=0
note_on channel=0 note=73 velocity=0 time=0
note_on channel=0 note=80 velocity=0 time=0
note_on channel=0 note=83 velocity=0 time=0
note_on channel=0 note=85 velocity=90 time=120
note_on channel=0 note=83 velocity=90 time=0
note_on channel=0 note=80 velocity=77 time=0
note_on channel=0 note=73 velocity=77 time=0
note_on channel=0 note=41 velocity=77 time=0
note_on channel=0 note=41 velocity=0 time=120
note_on channel=0 note=80 velocity=0 time=0
note_on channel=0 note=85 velocity=0 time=0
note_on channel=0 note=83 velocity=0 time=0
note_on channel=0 note=73 velocity=0 time=0
note_on channel=0 note=73 velocity=81 time=0
note_on channel=0 note=85 velocity=96 time=0
note_on channel=0 note=81 velocity=96 time=0
note_on channel=0 note=78 velocity=81 time=0
note_on channel=0 note=30 velocity=78 time=0
note_on channel=0 note=42 velocity=78 time=0
control_change channel=0 control=64 value=0 time=0
note_on channel=0 note=42 velocity=0 time=120
note_on channel=0 note=30 velocity=0 time=0
note_on channel=0 note=61 velocity=29 time=0
note_on channel=0 note=81 velocity=0 time=120
note_on channel=0 note=78 velocity=0 time=0
note_on channel=0 note=73 velocity=0 time=0
note_on channel=0 note=85 velocity=0 time=0
note_on channel=0 note=57 velocity=34 time=0
note_on channel=0 note=61 velocity=0 time=20
note_on channel=0 note=61 velocity=29 time=100
note_on channel=0 note=57 velocity=0 time=20
note_on channel=0 note=73 velocity=68 time=0
note_on channel=0 note=54 velocity=41 time=0
note_on channel=0 note=61 velocity=0 time=20
control_change channel=0 control=64 value=127 time=45
note_on channel=0 note=54 velocity=0 time=54
note_on channel=0 note=61 velocity=28 time=1
note_on channel=0 note=61 velocity=0 time=119
note_on channel=0 note=57 velocity=31 time=1
note_on channel=0 note=57 velocity=0 time=119
note_on channel=0 note=61 velocity=28 time=1
note_on channel=0 note=61 velocity=0 time=119
note_on channel=0 note=54 velocity=38 time=1
note_on channel=0 note=54 velocity=0 time=119
note_on channel=0 note=61 velocity=28 time=1
note_on channel=0 note=61 velocity=0 time=119
note_on channel=0 note=57 velocity=32 time=1
note_on channel=0 note=57 velocity=0 time=119
note_on channel=0 note=61 velocity=29 time=1
note_on channel=0 note=61 velocity=0 time=119
note_on channel=0 note=69 velocity=51 time=1
note_on channel=0 note=54 velocity=38 time=0
note_on channel=0 note=73 velocity=0 time=20
note_on channel=0 note=54 velocity=0 time=99
note_on channel=0 note=61 velocity=29 time=1
note_on channel=0 note=61 velocity=0 time=119
note_on channel=0 note=57 velocity=32 time=1
note_on channel=0 note=57 velocity=0 time=119
note_on channel=0 note=66 velocity=51 time=0
note_on channel=0 note=61 velocity=28 time=0
note_on channel=0 note=69 velocity=0 time=20
note_on channel=0 note=66 velocity=0 time=40
note_on channel=0 note=65 velocity=41 time=0
note_on channel=0 note=65 velocity=0 time=20
note_on channel=0 note=66 velocity=41 time=0
note_on channel=0 note=66 velocity=0 time=20
note_on channel=0 note=68 velocity=41 time=0
note_on channel=0 note=61 velocity=0 time=19
note_on channel=0 note=68 velocity=0 time=0
note_on channel=0 note=66 velocity=62 time=0
note_on channel=0 note=56 velocity=37 time=0
control_change channel=0 control=64 value=0 time=12
note_on channel=0 note=61 velocity=28 time=108
note_on channel=0 note=56 velocity=0 time=20
note_on channel=0 note=59 velocity=31 time=100
note_on channel=0 note=61 velocity=0 time=20
note_on channel=0 note=61 velocity=26 time=100
note_on channel=0 note=59 velocity=0 time=20
note_on channel=0 note=65 velocity=51 time=0
note_on channel=0 note=56 velocity=43 time=0
note_on channel=0 note=61 velocity=0 time=20
note_on channel=0 note=66 velocity=0 time=0
control_change channel=0 control=64 value=127 time=37
note_on channel=0 note=56 velocity=0 time=62
note_on channel=0 note=61 velocity=39 time=1
note_on channel=0 note=61 velocity=0 time=119
note_on channel=0 note=59 velocity=47 time=1
note_on channel=0 note=59 velocity=0 time=119
note_on channel=0 note=61 velocity=43 time=1
note_on channel=0 note=61 velocity=0 time=119
note_on channel=0 note=56 velocity=55 time=1
note_on channel=0 note=56 velocity=0 time=119
note_on channel=0 note=61 velocity=44 time=1
note_on channel=0 note=61 velocity=0 time=119
note_on channel=0 note=65 velocity=0 time=0
note_on channel=0 note=65 velocity=51 time=0
note_on channel=0 note=59 velocity=51 time=0
note_on channel=0 note=59 velocity=0 time=119
note_on channel=0 note=61 velocity=47 time=1
note_on channel=0 note=61 velocity=0 time=119
note_on channel=0 note=73 velocity=56 time=1
note_on channel=0 note=56 velocity=62 time=0
note_on channel=0 note=65 velocity=0 time=20
note_on channel=0 note=56 velocity=0 time=99
note_on channel=0 note=61 velocity=49 time=1
note_on channel=0 note=61 velocity=0 time=119
note_on channel=0 note=59 velocity=51 time=1
note_on channel=0 note=59 velocity=0 time=119
note_on channel=0 note=73 velocity=0 time=1
note_on channel=0 note=65 velocity=51 time=0
note_on channel=0 note=61 velocity=43 time=0
note_on channel=0 note=61 velocity=0 time=119
note_on channel=0 note=65 velocity=0 time=0
note_on channel=0 note=68 velocity=51 time=0
note_on channel=0 note=57 velocity=37 time=0
control_change channel=0 control=64 value=0 time=7
control_change channel=0 control=64 value=127 time=85
note_on channel=0 note=57 velocity=0 time=27
note_on channel=0 note=61 velocity=30 time=1
note_on channel=0 note=61 velocity=0 time=119
note_on channel=0 note=57 velocity=34 time=1
note_on channel=0 note=57 velocity=0 time=119
note_on channel=0 note=61 velocity=29 time=1
note_on channel=0 note=61 velocity=0 time=119
note_on channel=0 note=66 velocity=51 time=0
note_on channel=0 note=57 velocity=43 time=0
control_change channel=0 control=64 value=0 time=15
note_on channel=0 note=68 velocity=0 time=5
control_change channel=0 control=64 value=127 time=79
note_on channel=0 note=57 velocity=0 time=20
note_on channel=0 note=61 velocity=37 time=1
note_on channel=0 note=61 velocity=0 time=119
note_on channel=0 note=57 velocity=47 time=1
note_on channel=0 note=57 velocity=0 time=119
note_on channel=0 note=61 velocity=43 time=1
note_on channel=0 note=61 velocity=0 time=119
note_on channel=0 note=57 velocity=55 time=1
note_on channel=0 note=57 velocity=0 time=119
note_on channel=0 note=61 velocity=44 time=1
note_on channel=0 note=61 velocity=0 time=119
note_on channel=0 note=66 velocity=0 time=0
note_on channel=0 note=66 velocity=52 time=0
note_on channel=0 note=57 velocity=52 time=0
note_on channel=0 note=57 velocity=0 time=119
note_on channel=0 note=61 velocity=47 time=1
note_on channel=0 note=61 velocity=0 time=119
note_on channel=0 note=73 velocity=56 time=1
note_on channel=0 note=57 velocity=64 time=0
note_on channel=0 note=66 velocity=0 time=20
note_on channel=0 note=57 velocity=0 time=99
note_on channel=0 note=61 velocity=48 time=1
note_on channel=0 note=61 velocity=0 time=119
note_on channel=0 note=57 velocity=49 time=1
note_on channel=0 note=57 velocity=0 time=119
note_on channel=0 note=66 velocity=51 time=1
note_on channel=0 note=61 velocity=40 time=0
note_on channel=0 note=73 velocity=0 time=20
note_on channel=0 note=61 velocity=0 time=99
note_on channel=0 note=66 velocity=0 time=0
note_on channel=0 note=69 velocity=49 time=0
note_on channel=0 note=53 velocity=39 time=0
control_change channel=0 control=64 value=0 time=9
control_change channel=0 control=64 value=127 time=60
note_on channel=0 note=53 velocity=0 time=50
note_on channel=0 note=61 velocity=29 time=1
note_on channel=0 note=61 velocity=0 time=119
note_on channel=0 note=53 velocity=32 time=1
note_on channel=0 note=53 velocity=0 time=119
note_on channel=0 note=61 velocity=29 time=1
note_on channel=0 note=61 velocity=0 time=119
note_on channel=0 note=68 velocity=52 time=0
note_on channel=0 note=53 velocity=39 time=0
control_change channel=0 control=64 value=0 time=9
note_on channel=0 note=69 velocity=0 time=11
control_change channel=0 control=64 value=127 time=66
note_on channel=0 note=53 velocity=0 time=33
note_on channel=0 note=61 velocity=34 time=1
note_on channel=0 note=61 velocity=0 time=119
note_on channel=0 note=53 velocity=46 time=1
note_on channel=0 note=53 velocity=0 time=119
note_on channel=0 note=61 velocity=42 time=1
note_on channel=0 note=61 velocity=0 time=119
note_on channel=0 note=53 velocity=55 time=1
note_on channel=0 note=53 velocity=0 time=119
note_on channel=0 note=61 velocity=44 time=1
note_on channel=0 note=61 velocity=0 time=119
note_on channel=0 note=68 velocity=0 time=0
note_on channel=0 note=68 velocity=52 time=0
note_on channel=0 note=53 velocity=54 time=0
note_on channel=0 note=53 velocity=0 time=119
note_on channel=0 note=61 velocity=51 time=1
note_on channel=0 note=61 velocity=0 time=119
note_on channel=0 note=73 velocity=58 time=0
note_on channel=0 note=53 velocity=62 time=0
note_on channel=0 note=68 velocity=0 time=20
note_on channel=0 note=53 velocity=0 time=99
note_on channel=0 note=61 velocity=46 time=1
note_on channel=0 note=61 velocity=0 time=119
note_on channel=0 note=53 velocity=48 time=1
note_on channel=0 note=53 velocity=0 time=119
note_on channel=0 note=73 velocity=0 time=1
note_on channel=0 note=68 velocity=51 time=0
note_on channel=0 note=61 velocity=39 time=0
note_on channel=0 note=61 velocity=0 time=119
note_on channel=0 note=68 velocity=0 time=0
note_on channel=0 note=69 velocity=39 time=0
note_on channel=0 note=54 velocity=41 time=0
control_change channel=0 control=64 value=0 time=9
note_on channel=0 note=73 velocity=31 time=111
note_on channel=0 note=69 velocity=0 time=20
note_on channel=0 note=54 velocity=0 time=100
note_on channel=0 note=69 velocity=34 time=0
note_on channel=0 note=73 velocity=0 time=20
note_on channel=0 note=73 velocity=30 time=100
note_on channel=0 note=69 velocity=0 time=20
note_on channel=0 note=66 velocity=39 time=0
note_on channel=0 note=61 velocity=56 time=0
note_on channel=0 note=73 velocity=0 time=20
note_on channel=0 note=73 velocity=31 time=0
note_on channel=0 note=66 velocity=0 time=20
note_on channel=0 note=69 velocity=34 time=0
note_on channel=0 note=73 velocity=0 time=20
note_on channel=0 note=73 velocity=31 time=40
note_on channel=0 note=69 velocity=0 time=20
note_on channel=0 note=66 velocity=39 time=40
note_on channel=0 note=73 velocity=0 time=20
note_on channel=0 note=73 velocity=32 time=80
note_on channel=0 note=66 velocity=0 time=20
note_on channel=0 note=69 velocity=34 time=0
note_on channel=0 note=73 velocity=0 time=20
note_on channel=0 note=73 velocity=30 time=0
note_on channel=0 note=69 velocity=0 time=20
note_on channel=0 note=61 velocity=0 time=0
note_on channel=0 note=66 velocity=39 time=0
note_on channel=0 note=57 velocity=48 time=0
note_on channel=0 note=73 velocity=0 time=20
note_on channel=0 note=73 velocity=32 time=100
note_on channel=0 note=66 velocity=0 time=20
note_on channel=0 note=69 velocity=34 time=100
note_on channel=0 note=73 velocity=0 time=20
note_on channel=0 note=57 velocity=0 time=100
note_on channel=0 note=73 velocity=31 time=0
note_on channel=0 note=54 velocity=48 time=0
note_on channel=0 note=69 velocity=0 time=20
note_on channel=0 note=54 velocity=0 time=95
note_on channel=0 note=68 velocity=39 time=5
note_on channel=0 note=54 velocity=54 time=0
note_on channel=0 note=73 velocity=0 time=20
note_on channel=0 note=73 velocity=32 time=100
note_on channel=0 note=68 velocity=0 time=20
note_on channel=0 note=71 velocity=34 time=100
note_on channel=0 note=73 velocity=0 time=20
note_on channel=0 note=73 velocity=32 time=100
note_on channel=0 note=71 velocity=0 time=20
note_on channel=0 note=54 velocity=0 time=0
note_on channel=0 note=68 velocity=47 time=0
note_on channel=0 note=53 velocity=47 time=0
note_on channel=0 note=73 velocity=0 time=20
note_on channel=0 note=73 velocity=41 time=100
note_on channel=0 note=68 velocity=0 time=20
note_on channel=0 note=71 velocity=47 time=100
note_on channel=0 note=73 velocity=0 time=20
note_on channel=0 note=73 velocity=44 time=100
note_on channel=0 note=71 velocity=0 time=20
note_on channel=0 note=68 velocity=58 time=100
note_on channel=0 note=73 velocity=0 time=20
note_on channel=0 note=73 velocity=47 time=100
note_on channel=0 note=68 velocity=0 time=20
note_on channel=0 note=53 velocity=0 time=100
note_on channel=0 note=71 velocity=54 time=0
note_on channel=0 note=53 velocity=47 time=0
note_on channel=0 note=73 velocity=0 time=20
note_on channel=0 note=73 velocity=50 time=100
note_on channel=0 note=71 velocity=0 time=20
note_on channel=0 note=53 velocity=0 time=0
note_on channel=0 note=68 velocity=64 time=0
note_on channel=0 note=61 velocity=56 time=0
note_on channel=0 note=73 velocity=0 time=20
note_on channel=0 note=73 velocity=49 time=100
note_on channel=0 note=68 velocity=0 time=20
note_on channel=0 note=71 velocity=51 time=100
note_on channel=0 note=73 velocity=0 time=20
note_on channel=0 note=61 velocity=0 time=100
note_on channel=0 note=73 velocity=44 time=0
note_on channel=0 note=53 velocity=47 time=0
note_on channel=0 note=71 velocity=0 time=20
note_on channel=0 note=53 velocity=0 time=95
note_on channel=0 note=66 velocity=39 time=0
note_on channel=0 note=56 velocity=43 time=0
note_on channel=0 note=73 velocity=0 time=20
note_on channel=0 note=73 velocity=31 time=100
note_on channel=0 note=66 velocity=0 time=20
note_on channel=0 note=69 velocity=34 time=100
note_on channel=0 note=73 velocity=0 time=20
note_on channel=0 note=73 velocity=39 time=100
note_on channel=0 note=69 velocity=0 time=20
note_on channel=0 note=56 velocity=0 time=0
note_on channel=0 note=66 velocity=48 time=0
note_on channel=0 note=54 velocity=47 time=0
note_on channel=0 note=73 velocity=0 time=20
note_on channel=0 note=73 velocity=42 time=100
note_on channel=0 note=66 velocity=0 time=20
note_on channel=0 note=69 velocity=48 time=100
note_on channel=0 note=73 velocity=0 time=20
note_on channel=0 note=73 velocity=45 time=100
note_on channel=0 note=69 velocity=0 time=20
note_on channel=0 note=66 velocity=58 time=100
note_on channel=0 note=73 velocity=0 time=20
note_on channel=0 note=73 velocity=48 time=100
note_on channel=0 note=66 velocity=0 time=20
note_on channel=0 note=54 velocity=0 time=0
note_on channel=0 note=69 velocity=54 time=0
note_on channel=0 note=54 velocity=48 time=0
note_on channel=0 note=73 velocity=0 time=20
note_on channel=0 note=73 velocity=50 time=100
note_on channel=0 note=69 velocity=0 time=20
note_on channel=0 note=54 velocity=0 time=100
note_on channel=0 note=66 velocity=64 time=0
note_on channel=0 note=61 velocity=53 time=0
note_on channel=0 note=73 velocity=0 time=20
note_on channel=0 note=73 velocity=51 time=100
note_on channel=0 note=66 velocity=0 time=20
note_on channel=0 note=69 velocity=51 time=100
note_on channel=0 note=73 velocity=0 time=20
note_on channel=0 note=61 velocity=0 time=100
note_on channel=0 note=73 velocity=45 time=0
note_on channel=0 note=54 velocity=47 time=0
note_on channel=0 note=69 velocity=0 time=20
note_on channel=0 note=54 velocity=0 time=95
note_on channel=0 note=66 velocity=39 time=5
note_on channel=0 note=54 velocity=54 time=0
note_on channel=0 note=73 velocity=0 time=12
note_on channel=0 note=54 velocity=0 time=100
note_on channel=0 note=74 velocity=31 time=0
note_on channel=0 note=66 velocity=0 time=20
note_on channel=0 note=69 velocity=34 time=100
note_on channel=0 note=54 velocity=49 time=0
note_on channel=0 note=74 velocity=0 time=20
note_on channel=0 note=74 velocity=32 time=100
note_on channel=0 note=69 velocity=0 time=20
note_on channel=0 note=54 velocity=0 time=100
note_on channel=0 note=66 velocity=45 time=0
note_on channel=0 note=62 velocity=53 time=0
note_on channel=0 note=74 velocity=0 time=20
note_on channel=0 note=74 velocity=31 time=100
note_on channel=0 note=66 velocity=0 time=20
note_on channel=0 note=69 velocity=34 time=100
note_on channel=0 note=74 velocity=0 time=20
note_on channel=0 note=62 velocity=0 time=100
note_on channel=0 note=74 velocity=34 time=0
note_on channel=0 note=54 velocity=58 time=0
note_on channel=0 note=69 velocity=0 time=20
note_on channel=0 note=54 velocity=0 time=100
note_on channel=0 note=69 velocity=48 time=0
note_on channel=0 note=54 velocity=58 time=0
note_on channel=0 note=74 velocity=0 time=20
note_on channel=0 note=54 velocity=0 time=100
note_on channel=0 note=74 velocity=34 time=0
note_on channel=0 note=69 velocity=0 time=20
note_on channel=0 note=72 velocity=38 time=100
note_on channel=0 note=54 velocity=61 time=0
note_on channel=0 note=74 velocity=0 time=20
note_on channel=0 note=74 velocity=34 time=100
note_on channel=0 note=72 velocity=0 time=20
note_on channel=0 note=54 velocity=0 time=100
note_on channel=0 note=69 velocity=53 time=0
note_on channel=0 note=62 velocity=62 time=0
note_on channel=0 note=74 velocity=0 time=20
note_on channel=0 note=74 velocity=34 time=100
note_on channel=0 note=69 velocity=0 time=20
note_on channel=0 note=72 velocity=39 time=100
note_on channel=0 note=74 velocity=0 time=20
note_on channel=0 note=62 velocity=0 time=100
note_on channel=0 note=74 velocity=34 time=0
note_on channel=0 note=54 velocity=62 time=0
note_on channel=0 note=72 velocity=0 time=20
note_on channel=0 note=54 velocity=0 time=0
note_on channel=0 note=67 velocity=53 time=0
note_on channel=0 note=55 velocity=66 time=0
note_on channel=0 note=74 velocity=0 time=20
note_on channel=0 note=74 velocity=32 time=100
note_on channel=0 note=67 velocity=0 time=20
note_on channel=0 note=55 velocity=0 time=100
note_on channel=0 note=71 velocity=34 time=0
note_on channel=0 note=74 velocity=0 time=20
note_on channel=0 note=74 velocity=32 time=100
note_on channel=0 note=71 velocity=0 time=20
note_on channel=0 note=67 velocity=39 time=0
note_on channel=0 note=50 velocity=48 time=0
note_on channel=0 note=74 velocity=0 time=20
note_on channel=0 note=74 velocity=33 time=100
note_on channel=0 note=67 velocity=0 time=20
note_on channel=0 note=71 velocity=35 time=100
note_on channel=0 note=74 velocity=0 time=20
note_on channel=0 note=74 velocity=31 time=100
note_on channel=0 note=71 velocity=0 time=20
note_on channel=0 note=67 velocity=39 time=100
note_on channel=0 note=74 velocity=0 time=20
note_on channel=0 note=74 velocity=32 time=100
note_on channel=0 note=67 velocity=0 time=20
note_on channel=0 note=71 velocity=34 time=100
note_on channel=0 note=74 velocity=0 time=20
note_on channel=0 note=74 velocity=31 time=100
note_on channel=0 note=71 velocity=0 time=20
note_on channel=0 note=50 velocity=0 time=0
note_on channel=0 note=67 velocity=39 time=0
note_on channel=0 note=47 velocity=48 time=0
note_on channel=0 note=74 velocity=0 time=20
note_on channel=0 note=74 velocity=32 time=100
note_on channel=0 note=67 velocity=0 time=20
note_on channel=0 note=71 velocity=34 time=100
note_on channel=0 note=74 velocity=0 time=20
note_on channel=0 note=47 velocity=0 time=100
note_on channel=0 note=74 velocity=32 time=0
note_on channel=0 note=43 velocity=48 time=0
note_on channel=0 note=71 velocity=0 time=20
note_on channel=0 note=43 velocity=0 time=100
note_on channel=0 note=69 velocity=39 time=0
note_on channel=0 note=43 velocity=57 time=0
note_on channel=0 note=74 velocity=0 time=20
note_on channel=0 note=74 velocity=32 time=100
note_on channel=0 note=69 velocity=0 time=20
note_on channel=0 note=72 velocity=35 time=100
note_on channel=0 note=74 velocity=0 time=20
note_on channel=0 note=74 velocity=32 time=100
note_on channel=0 note=72 velocity=0 time=20
note_on channel=0 note=43 velocity=0 time=0
note_on channel=0 note=69 velocity=50 time=0
note_on channel=0 note=42 velocity=48 time=0
note_on channel=0 note=74 velocity=0 time=20
note_on channel=0 note=74 velocity=41 time=100
note_on channel=0 note=69 velocity=0 time=20
note_on channel=0 note=72 velocity=47 time=100
note_on channel=0 note=74 velocity=0 time=20
note_on channel=0 note=74 velocity=44 time=100
note_on channel=0 note=72 velocity=0 time=20
note_on channel=0 note=69 velocity=58 time=100
note_on channel=0 note=74 velocity=0 time=20
note_on channel=0 note=74 velocity=46 time=100
note_on channel=0 note=69 velocity=0 time=20
note_on channel=0 note=42 velocity=0 time=100
note_on channel=0 note=72 velocity=54 time=0
note_on channel=0 note=42 velocity=48 time=0
note_on channel=0 note=74 velocity=0 time=20
note_on channel=0 note=74 velocity=49 time=100
note_on channel=0 note=72 velocity=0 time=20
note_on channel=0 note=42 velocity=0 time=0
note_on channel=0 note=69 velocity=63 time=0
note_on channel=0 note=50 velocity=60 time=0
note_on channel=0 note=74 velocity=0 time=20
note_on channel=0 note=74 velocity=49 time=100
note_on channel=0 note=69 velocity=0 time=20
note_on channel=0 note=72 velocity=51 time=100
note_on channel=0 note=74 velocity=0 time=20
note_on channel=0 note=50 velocity=0 time=0
note_on channel=0 note=74 velocity=44 time=0
note_on channel=0 note=42 velocity=47 time=0
note_on channel=0 note=72 velocity=0 time=20
note_on channel=0 note=42 velocity=0 time=0
note_on channel=0 note=67 velocity=39 time=0
note_on channel=0 note=45 velocity=66 time=0
note_on channel=0 note=74 velocity=0 time=20
note_on channel=0 note=74 velocity=32 time=100
note_on channel=0 note=67 velocity=0 time=20
note_on channel=0 note=71 velocity=34 time=100
note_on channel=0 note=74 velocity=0 time=20
note_on channel=0 note=74 velocity=31 time=100
note_on channel=0 note=71 velocity=0 time=20
note_on channel=0 note=45 velocity=0 time=0
note_on channel=0 note=67 velocity=50 time=0
note_on channel=0 note=43 velocity=57 time=0
note_on channel=0 note=74 velocity=0 time=20
note_on channel=0 note=74 velocity=42 time=100
note_on channel=0 note=67 velocity=0 time=20
note_on channel=0 note=71 velocity=48 time=100
note_on channel=0 note=74 velocity=0 time=20
note_on channel=0 note=74 velocity=46 time=100
note_on channel=0 note=71 velocity=0 time=20
note_on channel=0 note=67 velocity=61 time=100
note_on channel=0 note=74 velocity=0 time=20
note_on channel=0 note=74 velocity=49 time=100
note_on channel=0 note=67 velocity=0 time=20
note_on channel=0 note=43 velocity=0 time=100
note_on channel=0 note=71 velocity=55 time=0
note_on channel=0 note=43 velocity=59 time=0
note_on channel=0 note=74 velocity=0 time=20
note_on channel=0 note=74 velocity=52 time=100
note_on channel=0 note=71 velocity=0 time=20
note_on channel=0 note=43 velocity=0 time=0
note_on channel=0 note=67 velocity=69 time=0
note_on channel=0 note=50 velocity=66 time=0
note_on channel=0 note=74 velocity=0 time=20
note_on channel=0 note=74 velocity=54 time=100
note_on channel=0 note=67 velocity=0 time=20
note_on channel=0 note=71 velocity=55 time=100
note_on channel=0 note=74 velocity=0 time=20
note_on channel=0 note=50 velocity=0 time=100
note_on channel=0 note=74 velocity=45 time=0
note_on channel=0 note=42 velocity=57 time=0
note_on channel=0 note=71 velocity=0 time=20
note_on channel=0 note=42 velocity=0 time=95
note_on channel=0 note=68 velocity=43 time=0
note_on channel=0 note=42 velocity=73 time=0
note_on channel=0 note=74 velocity=0 time=20
note_on channel=0 note=74 velocity=34 time=100
note_on channel=0 note=68 velocity=0 time=20
note_on channel=0 note=71 velocity=38 time=100
note_on channel=0 note=74 velocity=0 time=20
note_on channel=0 note=74 velocity=34 time=100
note_on channel=0 note=71 velocity=0 time=20
note_on channel=0 note=42 velocity=0 time=0
note_on channel=0 note=68 velocity=56 time=0
note_on channel=0 note=41 velocity=62 time=0
note_on channel=0 note=74 velocity=0 time=20
note_on channel=0 note=73 velocity=45 time=100
note_on channel=0 note=68 velocity=0 time=20
note_on channel=0 note=71 velocity=54 time=100
note_on channel=0 note=73 velocity=0 time=20
note_on channel=0 note=73 velocity=48 time=100
note_on channel=0 note=71 velocity=0 time=20
note_on channel=0 note=68 velocity=67 time=100
note_on channel=0 note=73 velocity=0 time=20
note_on channel=0 note=73 velocity=52 time=100
note_on channel=0 note=68 velocity=0 time=20
note_on channel=0 note=41 velocity=0 time=100
note_on channel=0 note=71 velocity=65 time=0
note_on channel=0 note=41 velocity=62 time=0
note_on channel=0 note=73 velocity=0 time=20
note_on channel=0 note=73 velocity=55 time=100
note_on channel=0 note=71 velocity=0 time=20
note_on channel=0 note=41 velocity=0 time=100
note_on channel=0 note=68 velocity=78 time=0
note_on channel=0 note=49 velocity=71 time=0
note_on channel=0 note=73 velocity=0 time=20
note_on channel=0 note=73 velocity=59 time=100
note_on channel=0 note=68 velocity=0 time=20
note_on channel=0 note=71 velocity=61 time=100
note_on channel=0 note=73 velocity=0 time=20
note_on channel=0 note=49 velocity=0 time=100
note_on channel=0 note=73 velocity=49 time=0
note_on channel=0 note=41 velocity=62 time=0
note_on channel=0 note=71 velocity=0 time=20
note_on channel=0 note=41 velocity=0 time=100
note_on channel=0 note=66 velocity=57 time=0
note_on channel=0 note=42 velocity=75 time=0
note_on channel=0 note=73 velocity=0 time=20
note_on channel=0 note=42 velocity=0 time=100
note_on channel=0 note=73 velocity=44 time=0
note_on channel=0 note=66 velocity=0 time=20
note_on channel=0 note=69 velocity=47 time=0
note_on channel=0 note=42 velocity=67 time=0
note_on channel=0 note=73 velocity=0 time=20
note_on channel=0 note=73 velocity=43 time=100
note_on channel=0 note=69 velocity=0 time=20
note_on channel=0 note=42 velocity=0 time=100
note_on channel=0 note=66 velocity=56 time=0
note_on channel=0 note=45 velocity=67 time=0
note_on channel=0 note=73 velocity=0 time=20
note_on channel=0 note=73 velocity=44 time=100
note_on channel=0 note=66 velocity=0 time=20
note_on channel=0 note=45 velocity=0 time=100
note_on channel=0 note=69 velocity=47 time=0
note_on channel=0 note=42 velocity=61 time=0
note_on channel=0 note=73 velocity=0 time=20
note_on channel=0 note=73 velocity=44 time=100
note_on channel=0 note=69 velocity=0 time=20
note_on channel=0 note=42 velocity=0 time=0
note_on channel=0 note=66 velocity=56 time=0
note_on channel=0 note=38 velocity=75 time=0
note_on channel=0 note=73 velocity=0 time=20
note_on channel=0 note=38 velocity=0 time=100
note_on channel=0 note=78 velocity=43 time=0
note_on channel=0 note=66 velocity=0 time=20
note_on channel=0 note=69 velocity=46 time=0
note_on channel=0 note=38 velocity=68 time=0
note_on channel=0 note=78 velocity=0 time=20
note_on channel=0 note=78 velocity=42 time=100
note_on channel=0 note=69 velocity=0 time=20
note_on channel=0 note=38 velocity=0 time=100
note_on channel=0 note=66 velocity=54 time=0
note_on channel=0 note=42 velocity=67 time=0
note_on channel=0 note=78 velocity=0 time=20
note_on channel=0 note=78 velocity=45 time=100
note_on channel=0 note=66 velocity=0 time=20
note_on channel=0 note=42 velocity=0 time=100
note_on channel=0 note=69 velocity=47 time=0
note_on channel=0 note=38 velocity=62 time=0
note_on channel=0 note=78 velocity=0 time=20
note_on channel=0 note=78 velocity=43 time=100
note_on channel=0 note=69 velocity=0 time=20
note_on channel=0 note=38 velocity=0 time=0
note_on channel=0 note=66 velocity=62 time=0
note_on channel=0 note=36 velocity=76 time=0
note_on channel=0 note=78 velocity=0 time=20
note_on channel=0 note=78 velocity=41 time=100
note_on channel=0 note=66 velocity=0 time=20
note_on channel=0 note=75 velocity=47 time=100
note_on channel=0 note=68 velocity=47 time=0
note_on channel=0 note=78 velocity=0 time=20
note_on channel=0 note=78 velocity=42 time=100
note_on channel=0 note=68 velocity=0 time=20
note_on channel=0 note=75 velocity=0 time=0
note_on channel=0 note=66 velocity=59 time=100
note_on channel=0 note=78 velocity=0 time=20
note_on channel=0 note=78 velocity=43 time=100
note_on channel=0 note=66 velocity=0 time=20
note_on channel=0 note=75 velocity=47 time=100
note_on channel=0 note=68 velocity=47 time=0
note_on channel=0 note=78 velocity=0 time=20
note_on channel=0 note=78 velocity=44 time=100
note_on channel=0 note=68 velocity=0 time=20
note_on channel=0 note=75 velocity=0 time=0
note_on channel=0 note=66 velocity=58 time=100
note_on channel=0 note=78 velocity=0 time=20
note_on channel=0 note=36 velocity=0 time=100
note_on channel=0 note=78 velocity=45 time=0
note_on channel=0 note=66 velocity=0 time=20
note_on channel=0 note=68 velocity=47 time=100
note_on channel=0 note=75 velocity=47 time=0
note_on channel=0 note=36 velocity=68 time=0
note_on channel=0 note=78 velocity=0 time=20
note_on channel=0 note=78 velocity=42 time=100
note_on channel=0 note=68 velocity=0 time=20
note_on channel=0 note=75 velocity=0 time=0
note_on channel=0 note=36 velocity=0 time=100
note_on channel=0 note=66 velocity=58 time=0
note_on channel=0 note=39 velocity=68 time=0
note_on channel=0 note=78 velocity=0 time=20
note_on channel=0 note=78 velocity=43 time=100
note_on channel=0 note=66 velocity=0 time=20
note_on channel=0 note=39 velocity=0 time=100
note_on channel=0 note=75 velocity=47 time=0
note_on channel=0 note=68 velocity=47 time=0
note_on channel=0 note=36 velocity=65 time=0
note_on channel=0 note=78 velocity=0 time=20
note_on channel=0 note=78 velocity=42 time=100
note_on channel=0 note=75 velocity=0 time=20
note_on channel=0 note=68 velocity=0 time=0
note_on channel=0 note=36 velocity=0 time=100
note_on channel=0 note=64 velocity=65 time=0
note_on channel=0 note=37 velocity=73 time=0
note_on channel=0 note=78 velocity=0 time=20
note_on channel=0 note=37 velocity=0 time=100
note_on channel=0 note=76 velocity=52 time=0
note_on channel=0 note=64 velocity=0 time=20
note_on channel=0 note=73 velocity=56 time=100
note_on channel=0 note=37 velocity=68 time=0
note_on channel=0 note=76 velocity=0 time=20
note_on channel=0 note=76 velocity=52 time=100
note_on channel=0 note=73 velocity=0 time=20
note_on channel=0 note=37 velocity=0 time=0
note_on channel=0 note=64 velocity=65 time=0
note_on channel=0 note=40 velocity=68 time=0
note_on channel=0 note=76 velocity=0 time=20
note_on channel=0 note=76 velocity=52 time=100
note_on channel=0 note=64 velocity=0 time=20
note_on channel=0 note=40 velocity=0 time=100
note_on channel=0 note=73 velocity=56 time=0
note_on channel=0 note=37 velocity=65 time=0
note_on channel=0 note=76 velocity=0 time=20
note_on channel=0 note=76 velocity=51 time=100
note_on channel=0 note=73 velocity=0 time=20
note_on channel=0 note=37 velocity=0 time=100
note_on channel=0 note=64 velocity=65 time=0
note_on channel=0 note=33 velocity=76 time=0
note_on channel=0 note=76 velocity=0 time=20
note_on channel=0 note=33 velocity=0 time=100
note_on channel=0 note=76 velocity=53 time=0
note_on channel=0 note=64 velocity=0 time=20
note_on channel=0 note=73 velocity=57 time=100
note_on channel=0 note=33 velocity=68 time=0
note_on channel=0 note=76 velocity=0 time=20
note_on channel=0 note=76 velocity=51 time=100
note_on channel=0 note=73 velocity=0 time=20
note_on channel=0 note=33 velocity=0 time=100
note_on channel=0 note=64 velocity=65 time=0
note_on channel=0 note=37 velocity=68 time=0
note_on channel=0 note=76 velocity=0 time=20
note_on channel=0 note=76 velocity=53 time=100
note_on channel=0 note=64 velocity=0 time=20
note_on channel=0 note=37 velocity=0 time=100
note_on channel=0 note=73 velocity=57 time=0
note_on channel=0 note=33 velocity=67 time=0
note_on channel=0 note=76 velocity=0 time=20
note_on channel=0 note=76 velocity=52 time=100
note_on channel=0 note=73 velocity=0 time=20
note_on channel=0 note=33 velocity=0 time=100
note_on channel=0 note=63 velocity=65 time=0
note_on channel=0 note=30 velocity=75 time=0
note_on channel=0 note=76 velocity=0 time=20
note_on channel=0 note=30 velocity=0 time=100
note_on channel=0 note=75 velocity=53 time=0
note_on channel=0 note=63 velocity=0 time=20
note_on channel=0 note=73 velocity=58 time=100
note_on channel=0 note=30 velocity=68 time=0
note_on channel=0 note=75 velocity=0 time=20
note_on channel=0 note=75 velocity=52 time=100
note_on channel=0 note=73 velocity=0 time=20
note_on channel=0 note=30 velocity=0 time=0
note_on channel=0 note=63 velocity=65 time=0
note_on channel=0 note=33 velocity=68 time=0
note_on channel=0 note=75 velocity=0 time=20
note_on channel=0 note=75 velocity=51 time=100
note_on channel=0 note=63 velocity=0 time=20
note_on channel=0 note=33 velocity=0 time=100
note_on channel=0 note=73 velocity=57 time=0
note_on channel=0 note=30 velocity=67 time=0
note_on channel=0 note=75 velocity=0 time=20
note_on channel=0 note=75 velocity=52 time=100
note_on channel=0 note=73 velocity=0 time=20
note_on channel=0 note=30 velocity=0 time=100
note_on channel=0 note=63 velocity=65 time=0
note_on channel=0 note=31 velocity=77 time=0
note_on channel=0 note=75 velocity=0 time=20
note_on channel=0 note=31 velocity=0 time=100
note_on channel=0 note=75 velocity=51 time=0
note_on channel=0 note=63 velocity=0 time=20
note_on channel=0 note=73 velocity=56 time=100
note_on channel=0 note=31 velocity=67 time=0
note_on channel=0 note=75 velocity=0 time=20
note_on channel=0 note=75 velocity=51 time=100
note_on channel=0 note=73 velocity=0 time=20
note_on channel=0 note=31 velocity=0 time=0
note_on channel=0 note=63 velocity=65 time=0
note_on channel=0 note=34 velocity=67 time=0
note_on channel=0 note=75 velocity=0 time=20
note_on channel=0 note=75 velocity=51 time=0
note_on channel=0 note=63 velocity=0 time=20
note_on channel=0 note=34 velocity=0 time=0
note_on channel=0 note=73 velocity=56 time=0
note_on channel=0 note=31 velocity=67 time=0
note_on channel=0 note=75 velocity=0 time=20
note_on channel=0 note=75 velocity=51 time=0
note_on channel=0 note=73 velocity=0 time=20
note_on channel=0 note=75 velocity=0 time=0
note_on channel=0 note=31 velocity=0 time=0
note_on channel=0 note=63 velocity=68 time=0
note_on channel=0 note=72 velocity=78 time=0
note_on channel=0 note=75 velocity=80 time=0
note_on channel=0 note=32 velocity=39 time=0
note_on channel=0 note=44 velocity=33 time=0
note_on channel=0 note=32 velocity=0 time=20
note_on channel=0 note=75 velocity=0 time=0
note_on channel=0 note=63 velocity=0 time=0
note_on channel=0 note=72 velocity=0 time=0
note_on channel=0 note=32 velocity=39 time=0
note_on channel=0 note=44 velocity=0 time=20
note_on channel=0 note=44 velocity=31 time=0
note_on channel=0 note=32 velocity=0 time=20
note_on channel=0 note=68 velocity=54 time=0
note_on channel=0 note=32 velocity=39 time=0
note_on channel=0 note=44 velocity=0 time=20
control_change channel=0 control=64 value=127 time=72
note_on channel=0 note=32 velocity=0 time=27
note_on channel=0 note=44 velocity=32 time=1
note_on channel=0 note=44 velocity=0 time=119
note_on channel=0 note=32 velocity=39 time=1
note_on channel=0 note=32 velocity=0 time=119
note_on channel=0 note=44 velocity=32 time=1
note_on channel=0 note=44 velocity=0 time=119
note_on channel=0 note=32 velocity=39 time=1
note_on channel=0 note=32 velocity=0 time=119
note_on channel=0 note=44 velocity=34 time=1
note_on channel=0 note=44 velocity=0 time=119
note_on channel=0 note=32 velocity=39 time=1
note_on channel=0 note=32 velocity=0 time=119
note_on channel=0 note=44 velocity=34 time=1
note_on channel=0 note=44 velocity=0 time=39
note_on channel=0 note=68 velocity=0 time=0
note_on channel=0 note=69 velocity=51 time=0
note_on channel=0 note=32 velocity=39 time=0
note_on channel=0 note=32 velocity=0 time=119
note_on channel=0 note=44 velocity=32 time=0
note_on channel=0 note=44 velocity=0 time=119
note_on channel=0 note=69 velocity=0 time=0
note_on channel=0 note=68 velocity=51 time=0
note_on channel=0 note=32 velocity=39 time=0
note_on channel=0 note=32 velocity=0 time=119
note_on channel=0 note=44 velocity=34 time=0
note_on channel=0 note=44 velocity=0 time=119
note_on channel=0 note=68 velocity=0 time=0
note_on channel=0 note=57 velocity=50 time=0
note_on channel=0 note=61 velocity=50 time=0
note_on channel=0 note=66 velocity=59 time=0
note_on channel=0 note=32 velocity=39 time=0
control_change channel=0 control=64 value=0 time=85
note_on channel=0 note=32 velocity=0 time=34
note_on channel=0 note=44 velocity=33 time=0
control_change channel=0 control=64 value=127 time=64
note_on channel=0 note=44 velocity=0 time=55
note_on channel=0 note=32 velocity=39 time=0
note_on channel=0 note=32 velocity=0 time=119
note_on channel=0 note=44 velocity=32 time=0
note_on channel=0 note=44 velocity=0 time=39
note_on channel=0 note=66 velocity=0 time=1
note_on channel=0 note=68 velocity=49 time=0
note_on channel=0 note=32 velocity=39 time=0
note_on channel=0 note=32 velocity=0 time=39
note_on channel=0 note=44 velocity=33 time=1
note_on channel=0 note=44 velocity=0 time=79
note_on channel=0 note=68 velocity=0 time=1
note_on channel=0 note=66 velocity=49 time=0
note_on channel=0 note=32 velocity=39 time=0
note_on channel=0 note=32 velocity=0 time=79
note_on channel=0 note=44 velocity=33 time=0
note_on channel=0 note=44 velocity=0 time=39
note_on channel=0 note=66 velocity=0 time=1
note_on channel=0 note=61 velocity=0 time=0
note_on channel=0 note=57 velocity=0 time=0
note_on channel=0 note=59 velocity=50 time=0
note_on channel=0 note=56 velocity=50 time=0
note_on channel=0 note=64 velocity=59 time=0
note_on channel=0 note=32 velocity=39 time=0
control_change channel=0 control=64 value=0 time=19
note_on channel=0 note=32 velocity=0 time=39
note_on channel=0 note=44 velocity=33 time=1
control_change channel=0 control=64 value=127 time=28
note_on channel=0 note=44 velocity=0 time=79
note_on channel=0 note=32 velocity=39 time=1
note_on channel=0 note=32 velocity=0 time=79
note_on channel=0 note=44 velocity=34 time=0
note_on channel=0 note=44 velocity=0 time=39
note_on channel=0 note=64 velocity=0 time=0
note_on channel=0 note=66 velocity=48 time=0
note_on channel=0 note=32 velocity=39 time=0
note_on channel=0 note=32 velocity=0 time=119
note_on channel=0 note=44 velocity=33 time=1
note_on channel=0 note=44 velocity=0 time=119
note_on channel=0 note=66 velocity=0 time=1
note_on channel=0 note=64 velocity=48 time=0
note_on channel=0 note=32 velocity=39 time=0
note_on channel=0 note=32 velocity=0 time=119
note_on channel=0 note=44 velocity=32 time=1
note_on channel=0 note=44 velocity=0 time=119
note_on channel=0 note=64 velocity=0 time=1
note_on channel=0 note=56 velocity=0 time=0
note_on channel=0 note=59 velocity=0 time=0
note_on channel=0 note=54 velocity=49 time=0
note_on channel=0 note=63 velocity=58 time=0
note_on channel=0 note=57 velocity=49 time=0
note_on channel=0 note=32 velocity=39 time=0
control_change channel=0 control=64 value=0 time=21
control_change channel=0 control=64 value=127 time=71
note_on channel=0 note=32 velocity=0 time=27
note_on channel=0 note=44 velocity=33 time=1
note_on channel=0 note=44 velocity=0 time=119
note_on channel=0 note=32 velocity=39 time=1
note_on channel=0 note=32 velocity=0 time=119
note_on channel=0 note=44 velocity=33 time=1
note_on channel=0 note=44 velocity=0 time=39
note_on channel=0 note=63 velocity=0 time=1
note_on channel=0 note=64 velocity=47 time=0
note_on channel=0 note=32 velocity=39 time=0
note_on channel=0 note=32 velocity=0 time=79
note_on channel=0 note=44 velocity=33 time=0
note_on channel=0 note=44 velocity=0 time=39
note_on channel=0 note=64 velocity=0 time=0
note_on channel=0 note=63 velocity=47 time=0
note_on channel=0 note=32 velocity=39 time=0
note_on channel=0 note=32 velocity=0 time=39
note_on channel=0 note=44 velocity=33 time=1
note_on channel=0 note=44 velocity=0 time=39
note_on channel=0 note=63 velocity=0 time=1
note_on channel=0 note=57 velocity=0 time=0
note_on channel=0 note=54 velocity=0 time=0
note_on channel=0 note=52 velocity=49 time=0
note_on channel=0 note=56 velocity=49 time=0
note_on channel=0 note=61 velocity=58 time=0
note_on channel=0 note=32 velocity=39 time=0
control_change channel=0 control=64 value=0 time=14
control_change channel=0 control=64 value=127 time=66
note_on channel=0 note=32 velocity=0 time=13
note_on channel=0 note=44 velocity=33 time=0
note_on channel=0 note=44 velocity=0 time=39
note_on channel=0 note=32 velocity=39 time=0
note_on channel=0 note=32 velocity=0 time=39
note_on channel=0 note=44 velocity=33 time=1
note_on channel=0 note=44 velocity=0 time=39
note_on channel=0 note=61 velocity=0 time=0
note_on channel=0 note=63 velocity=51 time=0
note_on channel=0 note=32 velocity=39 time=0
note_on channel=0 note=32 velocity=0 time=119
note_on channel=0 note=44 velocity=33 time=1
note_on channel=0 note=44 velocity=0 time=119
note_on channel=0 note=63 velocity=0 time=1
note_on channel=0 note=61 velocity=51 time=0
note_on channel=0 note=32 velocity=39 time=0
note_on channel=0 note=32 velocity=0 time=119
note_on channel=0 note=44 velocity=34 time=1
note_on channel=0 note=44 velocity=0 time=119
note_on channel=0 note=61 velocity=0 time=1
note_on channel=0 note=56 velocity=0 time=0
note_on channel=0 note=52 velocity=0 time=0
note_on channel=0 note=60 velocity=58 time=0
note_on channel=0 note=54 velocity=49 time=0
note_on channel=0 note=51 velocity=49 time=0
note_on channel=0 note=32 velocity=39 time=0
control_change channel=0 control=64 value=0 time=3
control_change channel=0 control=64 value=127 time=40
note_on channel=0 note=32 velocity=0 time=76
note_on channel=0 note=44 velocity=34 time=1
note_on channel=0 note=44 velocity=0 time=119
note_on channel=0 note=32 velocity=39 time=1
note_on channel=0 note=32 velocity=0 time=119
note_on channel=0 note=44 velocity=33 time=1
note_on channel=0 note=44 velocity=0 time=119
note_on channel=0 note=32 velocity=39 time=1
note_on channel=0 note=32 velocity=0 time=119
note_on channel=0 note=44 velocity=34 time=1
note_on channel=0 note=44 velocity=0 time=119
note_on channel=0 note=32 velocity=39 time=1
note_on channel=0 note=32 velocity=0 time=119
note_on channel=0 note=44 velocity=34 time=1
note_on channel=0 note=44 velocity=0 time=119
note_on channel=0 note=51 velocity=0 time=1
note_on channel=0 note=54 velocity=0 time=0
note_on channel=0 note=60 velocity=0 time=0
note_on channel=0 note=49 velocity=48 time=0
note_on channel=0 note=61 velocity=57 time=0
note_on channel=0 note=52 velocity=48 time=0
note_on channel=0 note=32 velocity=39 time=0
control_change channel=0 control=64 value=0 time=35
note_on channel=0 note=44 velocity=34 time=85
note_on channel=0 note=32 velocity=0 time=20
note_on channel=0 note=32 velocity=39 time=100
note_on channel=0 note=44 velocity=0 time=20
note_on channel=0 note=44 velocity=32 time=100
note_on channel=0 note=32 velocity=0 time=20
note_on channel=0 note=32 velocity=37 time=100
note_on channel=0 note=44 velocity=0 time=20
note_on channel=0 note=44 velocity=33 time=100
note_on channel=0 note=32 velocity=0 time=20
note_on channel=0 note=32 velocity=37 time=100
note_on channel=0 note=44 velocity=0 time=20
note_on channel=0 note=52 velocity=0 time=100
note_on channel=0 note=49 velocity=0 time=0
note_on channel=0 note=61 velocity=0 time=0
note_on channel=0 note=48 velocity=48 time=0
note_on channel=0 note=44 velocity=31 time=0
note_on channel=0 note=32 velocity=0 time=20
note_on channel=0 note=48 velocity=0 time=40
note_on channel=0 note=56 velocity=48 time=0
note_on channel=0 note=56 velocity=0 time=60
note_on channel=0 note=63 velocity=58 time=0
note_on channel=0 note=32 velocity=37 time=0
note_on channel=0 note=44 velocity=0 time=20
control_change channel=0 control=64 value=127 time=58
note_on channel=0 note=32 velocity=0 time=41
note_on channel=0 note=44 velocity=33 time=1
note_on channel=0 note=44 velocity=0 time=119
note_on channel=0 note=32 velocity=37 time=1
note_on channel=0 note=32 velocity=0 time=119
note_on channel=0 note=63 velocity=0 time=1
note_on channel=0 note=44 velocity=32 time=0
note_on channel=0 note=44 velocity=0 time=119
note_on channel=0 note=80 velocity=63 time=0
note_on channel=0 note=32 velocity=37 time=0
note_on channel=0 note=32 velocity=0 time=119
note_on channel=0 note=44 velocity=32 time=1
note_on channel=0 note=44 velocity=0 time=119
note_on channel=0 note=32 velocity=37 time=1
note_on channel=0 note=32 velocity=0 time=119
note_on channel=0 note=44 velocity=33 time=1
note_on channel=0 note=44 velocity=0 time=119
note_on channel=0 note=32 velocity=39 time=1
note_on channel=0 note=32 velocity=0 time=119
note_on channel=0 note=44 velocity=34 time=1
note_on channel=0 note=44 velocity=0 time=39
note_on channel=0 note=80 velocity=0 time=1
note_on channel=0 note=80 velocity=67 time=0
note_on channel=0 note=32 velocity=40 time=0
note_on channel=0 note=32 velocity=0 time=119
note_on channel=0 note=80 velocity=0 time=1
note_on channel=0 note=44 velocity=34 time=0
note_on channel=0 note=44 velocity=0 time=119
note_on channel=0 note=81 velocity=68 time=1
note_on channel=0 note=32 velocity=41 time=0
control_change channel=0 control=64 value=0 time=19
note_on channel=0 note=81 velocity=0 time=101
note_on channel=0 note=44 velocity=37 time=0
note_on channel=0 note=32 velocity=0 time=20
note_on channel=0 note=80 velocity=66 time=100
note_on channel=0 note=32 velocity=41 time=0
note_on channel=0 note=44 velocity=0 time=20
note_on channel=0 note=80 velocity=0 time=0
note_on channel=0 note=44 velocity=38 time=0
note_on channel=0 note=32 velocity=0 time=20
note_on channel=0 note=78 velocity=68 time=100
note_on channel=0 note=32 velocity=43 time=0
note_on channel=0 note=44 velocity=0 time=20
note_on channel=0 note=78 velocity=0 time=100
note_on channel=0 note=44 velocity=38 time=0
note_on channel=0 note=32 velocity=0 time=20
note_on channel=0 note=73 velocity=56 time=100
note_on channel=0 note=69 velocity=47 time=0
note_on channel=0 note=78 velocity=56 time=0
note_on channel=0 note=32 velocity=44 time=0
note_on channel=0 note=44 velocity=0 time=20
note_on channel=0 note=78 velocity=0 time=100
note_on channel=0 note=73 velocity=0 time=0
note_on channel=0 note=69 velocity=0 time=0
note_on channel=0 note=44 velocity=39 time=0
note_on channel=0 note=32 velocity=0 time=20
note_on channel=0 note=71 velocity=48 time=100
note_on channel=0 note=80 velocity=57 time=0
note_on channel=0 note=75 velocity=57 time=0
note_on channel=0 note=32 velocity=45 time=0
note_on channel=0 note=44 velocity=0 time=20
note_on channel=0 note=75 velocity=0 time=40
note_on channel=0 note=71 velocity=0 time=0
note_on channel=0 note=80 velocity=0 time=0
note_on channel=0 note=44 velocity=40 time=0
note_on channel=0 note=32 velocity=0 time=20
note_on channel=0 note=69 velocity=48 time=100
note_on channel=0 note=73 velocity=57 time=0
note_on channel=0 note=78 velocity=57 time=0
note_on channel=0 note=32 velocity=46 time=0
note_on channel=0 note=44 velocity=0 time=20
note_on channel=0 note=78 velocity=0 time=100
note_on channel=0 note=69 velocity=0 time=0
note_on channel=0 note=73 velocity=0 time=0
note_on channel=0 note=44 velocity=41 time=0
note_on channel=0 note=32 velocity=0 time=20
note_on channel=0 note=71 velocity=59 time=100
note_on channel=0 note=76 velocity=59 time=0
note_on channel=0 note=68 velocity=50 time=0
note_on channel=0 note=32 velocity=47 time=0
note_on channel=0 note=44 velocity=0 time=20
note_on channel=0 note=68 velocity=0 time=100
note_on channel=0 note=71 velocity=0 time=0
note_on channel=0 note=76 velocity=0 time=0
note_on channel=0 note=44 velocity=41 time=0
note_on channel=0 note=32 velocity=0 time=20
note_on channel=0 note=68 velocity=51 time=0
note_on channel=0 note=71 velocity=60 time=0
note_on channel=0 note=76 velocity=60 time=0
note_on channel=0 note=32 velocity=48 time=0
note_on channel=0 note=44 velocity=0 time=20
note_on channel=0 note=76 velocity=0 time=100
note_on channel=0 note=68 velocity=0 time=0
note_on channel=0 note=71 velocity=0 time=0
note_on channel=0 note=44 velocity=43 time=0
note_on channel=0 note=32 velocity=0 time=20
note_on channel=0 note=69 velocity=51 time=100
note_on channel=0 note=73 velocity=61 time=0
note_on channel=0 note=78 velocity=61 time=0
note_on channel=0 note=32 velocity=49 time=0
note_on channel=0 note=44 velocity=0 time=20
note_on channel=0 note=78 velocity=0 time=100
note_on channel=0 note=69 velocity=0 time=0
note_on channel=0 note=73 velocity=0 time=0
note_on channel=0 note=44 velocity=44 time=0
note_on channel=0 note=32 velocity=0 time=20
note_on channel=0 note=76 velocity=62 time=100
note_on channel=0 note=68 velocity=52 time=0
note_on channel=0 note=71 velocity=62 time=0
note_on channel=0 note=32 velocity=50 time=0
note_on channel=0 note=44 velocity=0 time=20
note_on channel=0 note=71 velocity=0 time=100
note_on channel=0 note=76 velocity=0 time=0
note_on channel=0 note=68 velocity=0 time=0
note_on channel=0 note=44 velocity=45 time=0
note_on channel=0 note=32 velocity=0 time=20
note_on channel=0 note=69 velocity=62 time=40
note_on channel=0 note=75 velocity=62 time=0
note_on channel=0 note=66 velocity=52 time=0
note_on channel=0 note=32 velocity=51 time=0
note_on channel=0 note=44 velocity=0 time=20
note_on channel=0 note=66 velocity=0 time=100
note_on channel=0 note=69 velocity=0 time=0
note_on channel=0 note=75 velocity=0 time=0
note_on channel=0 note=44 velocity=46 time=0
note_on channel=0 note=32 velocity=0 time=20
note_on channel=0 note=69 velocity=63 time=100
note_on channel=0 note=75 velocity=63 time=0
note_on channel=0 note=66 velocity=53 time=0
note_on channel=0 note=32 velocity=51 time=0
note_on channel=0 note=44 velocity=0 time=20
note_on channel=0 note=66 velocity=0 time=100
note_on channel=0 note=69 velocity=0 time=0
note_on channel=0 note=75 velocity=0 time=0
note_on channel=0 note=44 velocity=47 time=0
note_on channel=0 note=32 velocity=0 time=20
note_on channel=0 note=68 velocity=56 time=100
note_on channel=0 note=71 velocity=66 time=0
note_on channel=0 note=76 velocity=66 time=0
note_on channel=0 note=32 velocity=53 time=0
note_on channel=0 note=44 velocity=0 time=20
note_on channel=0 note=76 velocity=0 time=100
note_on channel=0 note=68 velocity=0 time=0
note_on channel=0 note=71 velocity=0 time=0
note_on channel=0 note=44 velocity=50 time=0
note_on channel=0 note=32 velocity=0 time=20
note_on channel=0 note=66 velocity=56 time=100
note_on channel=0 note=69 velocity=67 time=0
note_on channel=0 note=75 velocity=67 time=0
note_on channel=0 note=32 velocity=54 time=0
note_on channel=0 note=44 velocity=0 time=20
note_on channel=0 note=75 velocity=0 time=100
note_on channel=0 note=66 velocity=0 time=0
note_on channel=0 note=69 velocity=0 time=0
note_on channel=0 note=44 velocity=51 time=0
note_on channel=0 note=32 velocity=0 time=20
note_on channel=0 note=73 velocity=68 time=100
note_on channel=0 note=68 velocity=68 time=0
note_on channel=0 note=64 velocity=57 time=0
note_on channel=0 note=32 velocity=54 time=0
note_on channel=0 note=44 velocity=0 time=20
note_on channel=0 note=64 velocity=0 time=100
note_on channel=0 note=73 velocity=0 time=0
note_on channel=0 note=68 velocity=0 time=0
note_on channel=0 note=44 velocity=51 time=0
note_on channel=0 note=32 velocity=0 time=20
note_on channel=0 note=64 velocity=57 time=100
note_on channel=0 note=73 velocity=68 time=0
note_on channel=0 note=68 velocity=68 time=0
note_on channel=0 note=32 velocity=49 time=0
note_on channel=0 note=44 velocity=0 time=20
note_on channel=0 note=68 velocity=0 time=100
note_on channel=0 note=64 velocity=0 time=0
note_on channel=0 note=73 velocity=0 time=0
note_on channel=0 note=44 velocity=47 time=0
note_on channel=0 note=32 velocity=0 time=20
note_on channel=0 note=66 velocity=51 time=100
note_on channel=0 note=75 velocity=60 time=0
note_on channel=0 note=69 velocity=60 time=0
note_on channel=0 note=32 velocity=44 time=0
note_on channel=0 note=44 velocity=0 time=20
note_on channel=0 note=69 velocity=0 time=100
note_on channel=0 note=66 velocity=0 time=0
note_on channel=0 note=75 velocity=0 time=0
note_on channel=0 note=44 velocity=35 time=0
note_on channel=0 note=32 velocity=0 time=20
note_on channel=0 note=68 velocity=54 time=100
note_on channel=0 note=64 velocity=45 time=0
note_on channel=0 note=73 velocity=54 time=0
note_on channel=0 note=32 velocity=39 time=0
note_on channel=0 note=44 velocity=0 time=20
note_on channel=0 note=73 velocity=0 time=100
note_on channel=0 note=68 velocity=0 time=0
note_on channel=0 note=64 velocity=0 time=0
note_on channel=0 note=44 velocity=34 time=0
note_on channel=0 note=32 velocity=0 time=20
note_on channel=0 note=72 velocity=48 time=0
note_on channel=0 note=63 velocity=40 time=0
note_on channel=0 note=66 velocity=48 time=0
note_on channel=0 note=32 velocity=39 time=0
note_on channel=0 note=44 velocity=0 time=20
control_change channel=0 control=64 value=127 time=52
note_on channel=0 note=32 velocity=0 time=47
note_on channel=0 note=44 velocity=33 time=1
note_on channel=0 note=44 velocity=0 time=119
note_on channel=0 note=32 velocity=37 time=1
note_on channel=0 note=32 velocity=0 time=119
note_on channel=0 note=44 velocity=35 time=1
note_on channel=0 note=44 velocity=0 time=119
note_on channel=0 note=32 velocity=37 time=1
note_on channel=0 note=32 velocity=0 time=119
note_on channel=0 note=44 velocity=32 time=1
note_on channel=0 note=44 velocity=0 time=119
note_on channel=0 note=32 velocity=37 time=1
note_on channel=0 note=32 velocity=0 time=119
note_on channel=0 note=44 velocity=33 time=1
note_on channel=0 note=44 velocity=0 time=119
note_on channel=0 note=66 velocity=0 time=1
note_on channel=0 note=63 velocity=0 time=0
note_on channel=0 note=72 velocity=0 time=0
note_on channel=0 note=64 velocity=56 time=0
note_on channel=0 note=73 velocity=56 time=0
note_on channel=0 note=61 velocity=47 time=0
note_on channel=0 note=32 velocity=39 time=0
control_change channel=0 control=64 value=0 time=9
control_change channel=0 control=64 value=127 time=66
note_on channel=0 note=32 velocity=0 time=44
note_on channel=0 note=44 velocity=34 time=1
note_on channel=0 note=44 velocity=0 time=119
note_on channel=0 note=32 velocity=39 time=1
note_on channel=0 note=32 velocity=0 time=119
note_on channel=0 note=44 velocity=35 time=1
note_on channel=0 note=44 velocity=0 time=119
note_on channel=0 note=32 velocity=41 time=1
note_on channel=0 note=32 velocity=0 time=119
note_on channel=0 note=44 velocity=39 time=1
note_on channel=0 note=44 velocity=0 time=119
note_on channel=0 note=32 velocity=45 time=1
note_on channel=0 note=32 velocity=0 time=119
note_on channel=0 note=64 velocity=0 time=0
note_on channel=0 note=73 velocity=0 time=0
note_on channel=0 note=61 velocity=0 time=0
note_on channel=0 note=60 velocity=49 time=0
note_on channel=0 note=44 velocity=41 time=0
note_on channel=0 note=60 velocity=0 time=60
note_on channel=0 note=66 velocity=59 time=0
note_on channel=0 note=44 velocity=0 time=59
note_on channel=0 note=75 velocity=80 time=0
note_on channel=0 note=32 velocity=46 time=0
control_change channel=0 control=64 value=0 time=0
note_on channel=0 note=32 velocity=0 time=119
note_on channel=0 note=44 velocity=42 time=1
control_change channel=0 control=64 value=127 time=0
note_on channel=0 note=44 velocity=0 time=119
note_on channel=0 note=32 velocity=49 time=1
note_on channel=0 note=32 velocity=0 time=119
note_on channel=0 note=44 velocity=44 time=1
note_on channel=0 note=44 velocity=0 time=119
note_on channel=0 note=32 velocity=51 time=1
note_on channel=0 note=32 velocity=0 time=119
note_on channel=0 note=44 velocity=45 time=1
note_on channel=0 note=44 velocity=0 time=119
note_on channel=0 note=32 velocity=51 time=1
note_on channel=0 note=32 velocity=0 time=119
note_on channel=0 note=44 velocity=44 time=1
note_on channel=0 note=44 velocity=0 time=119
note_on channel=0 note=32 velocity=45 time=1
note_on channel=0 note=32 velocity=0 time=119
note_on channel=0 note=44 velocity=41 time=1
note_on channel=0 note=44 velocity=0 time=119
note_on channel=0 note=32 velocity=41 time=1
note_on channel=0 note=32 velocity=0 time=119
note_on channel=0 note=44 velocity=37 time=1
note_on channel=0 note=44 velocity=0 time=119
note_on channel=0 note=75 velocity=0 time=1
note_on channel=0 note=66 velocity=0 time=0
note_on channel=0 note=73 velocity=58 time=0
note_on channel=0 note=64 velocity=58 time=0
note_on channel=0 note=61 velocity=49 time=0
note_on channel=0 note=32 velocity=41 time=0
control_change channel=0 control=64 value=0 time=25
note_on channel=0 note=44 velocity=35 time=95
note_on channel=0 note=32 velocity=0 time=20
note_on channel=0 note=32 velocity=39 time=100
note_on channel=0 note=44 velocity=0 time=20
note_on channel=0 note=44 velocity=33 time=100
note_on channel=0 note=32 velocity=0 time=20
note_on channel=0 note=61 velocity=0 time=100
note_on channel=0 note=73 velocity=0 time=0
note_on channel=0 note=64 velocity=0 time=0
note_on channel=0 note=63 velocity=39 time=0
note_on channel=0 note=72 velocity=47 time=0
note_on channel=0 note=66 velocity=47 time=0
note_on channel=0 note=32 velocity=37 time=0
note_on channel=0 note=44 velocity=0 time=20
note_on channel=0 note=44 velocity=34 time=100
note_on channel=0 note=32 velocity=0 time=20
note_on channel=0 note=66 velocity=0 time=100
note_on channel=0 note=63 velocity=0 time=0
note_on channel=0 note=72 velocity=0 time=0
note_on channel=0 note=32 velocity=37 time=0
note_on channel=0 note=44 velocity=0 time=20
note_on channel=0 note=44 velocity=32 time=100
note_on channel=0 note=32 velocity=0 time=20
note_on channel=0 note=66 velocity=53 time=100
note_on channel=0 note=72 velocity=53 time=0
note_on channel=0 note=63 velocity=45 time=0
note_on channel=0 note=32 velocity=37 time=0
note_on channel=0 note=44 velocity=0 time=20
note_on channel=0 note=44 velocity=33 time=64
note_on channel=0 note=32 velocity=0 time=20
note_on channel=0 note=63 velocity=0 time=24
note_on channel=0 note=66 velocity=0 time=0
note_on channel=0 note=72 velocity=0 time=0
note_on channel=0 note=32 velocity=37 time=0
note_on channel=0 note=44 velocity=0 time=20
note_on channel=0 note=44 velocity=35 time=48
note_on channel=0 note=32 velocity=0 time=20
note_on channel=0 note=73 velocity=62 time=72
note_on channel=0 note=64 velocity=62 time=0
note_on channel=0 note=61 velocity=52 time=0
note_on channel=0 note=32 velocity=35 time=0
note_on channel=0 note=44 velocity=0 time=20
note_on channel=0 note=44 velocity=34 time=72
note_on channel=0 note=32 velocity=0 time=20
note_on channel=0 note=61 velocity=0 time=72
note_on channel=0 note=73 velocity=0 time=0
note_on channel=0 note=64 velocity=0 time=0
note_on channel=0 note=32 velocity=41 time=0
note_on channel=0 note=44 velocity=0 time=20
note_on channel=0 note=44 velocity=37 time=100
note_on channel=0 note=32 velocity=0 time=20
note_on channel=0 note=64 velocity=68 time=32
note_on channel=0 note=61 velocity=57 time=0
note_on channel=0 note=73 velocity=68 time=0
note_on channel=0 note=32 velocity=43 time=0
note_on channel=0 note=44 velocity=0 time=20
note_on channel=0 note=44 velocity=39 time=96
note_on channel=0 note=32 velocity=0 time=4
note_on channel=0 note=73 velocity=0 time=48
note_on channel=0 note=64 velocity=0 time=0
note_on channel=0 note=61 velocity=0 time=0
note_on channel=0 note=32 velocity=47 time=0
note_on channel=0 note=44 velocity=0 time=20
note_on channel=0 note=60 velocity=51 time=0
note_on channel=0 note=44 velocity=42 time=0
control_change channel=0 control=64 value=127 time=15
note_on channel=0 note=32 velocity=0 time=5
note_on channel=0 note=60 velocity=0 time=40
note_on channel=0 note=66 velocity=59 time=0
note_on channel=0 note=75 velocity=80 time=0
note_on channel=0 note=32 velocity=47 time=0
note_on channel=0 note=44 velocity=0 time=20
note_on channel=0 note=32 velocity=0 time=99
note_on channel=0 note=44 velocity=43 time=1
note_on channel=0 note=44 velocity=0 time=119
note_on channel=0 note=32 velocity=51 time=1
note_on channel=0 note=32 velocity=0 time=119
note_on channel=0 note=44 velocity=47 time=1
note_on channel=0 note=44 velocity=0 time=119
note_on channel=0 note=32 velocity=56 time=1
note_on channel=0 note=32 velocity=0 time=119
note_on channel=0 note=44 velocity=48 time=1
note_on channel=0 note=44 velocity=0 time=119
note_on channel=0 note=32 velocity=54 time=1
note_on channel=0 note=32 velocity=0 time=119
note_on channel=0 note=44 velocity=47 time=1
note_on channel=0 note=44 velocity=0 time=119
note_on channel=0 note=32 velocity=49 time=1
note_on channel=0 note=32 velocity=0 time=119
note_on channel=0 note=44 velocity=45 time=1
note_on channel=0 note=44 velocity=0 time=119
note_on channel=0 note=32 velocity=49 time=1
note_on channel=0 note=32 velocity=0 time=119
note_on channel=0 note=44 velocity=41 time=1
control_change channel=0 control=64 value=0 time=113
note_on channel=0 note=44 velocity=0 time=6
note_on channel=0 note=75 velocity=0 time=1
note_on channel=0 note=66 velocity=0 time=0
note_on channel=0 note=64 velocity=48 time=0
note_on channel=0 note=61 velocity=40 time=0
note_on channel=0 note=32 velocity=45 time=0
control_change channel=0 control=64 value=127 time=85
note_on channel=0 note=32 velocity=0 time=34
note_on channel=0 note=44 velocity=39 time=1
note_on channel=0 note=44 velocity=0 time=119
note_on channel=0 note=61 velocity=0 time=1
note_on channel=0 note=64 velocity=0 time=0
note_on channel=0 note=73 velocity=43 time=0
note_on channel=0 note=32 velocity=41 time=0
note_on channel=0 note=32 velocity=0 time=119
note_on channel=0 note=44 velocity=35 time=1
note_on channel=0 note=44 velocity=0 time=119
note_on channel=0 note=73 velocity=0 time=1
note_on channel=0 note=66 velocity=51 time=0
note_on channel=0 note=63 velocity=43 time=0
note_on channel=0 note=32 velocity=40 time=0
control_change channel=0 control=64 value=0 time=14
control_change channel=0 control=64 value=127 time=57
note_on channel=0 note=32 velocity=0 time=48
note_on channel=0 note=44 velocity=34 time=1
note_on channel=0 note=44 velocity=0 time=119
note_on channel=0 note=63 velocity=0 time=1
note_on channel=0 note=66 velocity=0 time=0
note_on channel=0 note=72 velocity=47 time=0
note_on channel=0 note=32 velocity=39 time=0
note_on channel=0 note=32 velocity=0 time=119
note_on channel=0 note=44 velocity=34 time=1
note_on channel=0 note=44 velocity=0 time=119
note_on channel=0 note=72 velocity=0 time=1
note_on channel=0 note=63 velocity=48 time=0
note_on channel=0 note=66 velocity=57 time=0
note_on channel=0 note=32 velocity=39 time=0
control_change channel=0 control=64 value=0 time=14
control_change channel=0 control=64 value=127 time=78
note_on channel=0 note=32 velocity=0 time=27
note_on channel=0 note=44 velocity=34 time=1
note_on channel=0 note=44 velocity=0 time=119
note_on channel=0 note=66 velocity=0 time=1
note_on channel=0 note=63 velocity=0 time=0
note_on channel=0 note=72 velocity=53 time=0
note_on channel=0 note=32 velocity=41 time=0
note_on channel=0 note=32 velocity=0 time=119
note_on channel=0 note=44 velocity=39 time=1
note_on channel=0 note=44 velocity=0 time=119
note_on channel=0 note=72 velocity=0 time=1
note_on channel=0 note=61 velocity=57 time=0
note_on channel=0 note=64 velocity=68 time=0
note_on channel=0 note=32 velocity=45 time=0
control_change channel=0 control=64 value=0 time=10
note_on channel=0 note=32 velocity=0 time=109
note_on channel=0 note=44 velocity=39 time=1
control_change channel=0 control=64 value=127 time=7
note_on channel=0 note=44 velocity=0 time=112
note_on channel=0 note=64 velocity=0 time=1
note_on channel=0 note=61 velocity=0 time=0
note_on channel=0 note=73 velocity=57 time=0
note_on channel=0 note=32 velocity=45 time=0
note_on channel=0 note=32 velocity=0 time=119
note_on channel=0 note=44 velocity=40 time=1
note_on channel=0 note=44 velocity=0 time=119
note_on channel=0 note=73 velocity=0 time=1
note_on channel=0 note=61 velocity=60 time=0
note_on channel=0 note=64 velocity=71 time=0
note_on channel=0 note=32 velocity=47 time=0
control_change channel=0 control=64 value=0 time=14
control_change channel=0 control=64 value=127 time=64
note_on channel=0 note=32 velocity=0 time=41
note_on channel=0 note=44 velocity=43 time=1
note_on channel=0 note=44 velocity=0 time=119
note_on channel=0 note=64 velocity=0 time=1
note_on channel=0 note=61 velocity=0 time=0
note_on channel=0 note=73 velocity=65 time=0
note_on channel=0 note=32 velocity=51 time=0
note_on channel=0 note=32 velocity=0 time=119
note_on channel=0 note=44 velocity=45 time=1
note_on channel=0 note=44 velocity=0 time=119
note_on channel=0 note=73 velocity=0 time=1
note_on channel=0 note=60 velocity=68 time=0
note_on channel=0 note=66 velocity=80 time=0
note_on channel=0 note=32 velocity=56 time=0
control_change channel=0 control=64 value=0 time=6
control_change channel=0 control=64 value=127 time=57
note_on channel=0 note=32 velocity=0 time=48
note_on channel=0 note=44 velocity=51 time=1
note_on channel=0 note=44 velocity=0 time=119
note_on channel=0 note=66 velocity=0 time=1
note_on channel=0 note=60 velocity=0 time=0
note_on channel=0 note=75 velocity=69 time=0
note_on channel=0 note=32 velocity=56 time=0
note_on channel=0 note=32 velocity=0 time=119
note_on channel=0 note=44 velocity=49 time=1
note_on channel=0 note=44 velocity=0 time=119
note_on channel=0 note=75 velocity=0 time=1
note_on channel=0 note=60 velocity=62 time=0
note_on channel=0 note=66 velocity=73 time=0
note_on channel=0 note=32 velocity=51 time=0
control_change channel=0 control=64 value=0 time=16
control_change channel=0 control=64 value=127 time=18
note_on channel=0 note=32 velocity=0 time=13
note_on channel=0 note=44 velocity=43 time=0
note_on channel=0 note=44 velocity=0 time=119
note_on channel=0 note=66 velocity=0 time=1
note_on channel=0 note=60 velocity=0 time=0
note_on channel=0 note=75 velocity=58 time=0
note_on channel=0 note=32 velocity=47 time=0
note_on channel=0 note=32 velocity=0 time=63
note_on channel=0 note=44 velocity=40 time=1
note_on channel=0 note=44 velocity=0 time=71
note_on channel=0 note=75 velocity=0 time=0
note_on channel=0 note=64 velocity=63 time=0
note_on channel=0 note=61 velocity=53 time=0
note_on channel=0 note=33 velocity=44 time=0
control_change channel=0 control=64 value=0 time=17
note_on channel=0 note=33 velocity=0 time=87
note_on channel=0 note=45 velocity=38 time=1
control_change channel=0 control=64 value=127 time=14
note_on channel=0 note=45 velocity=0 time=7
note_on channel=0 note=61 velocity=0 time=1
note_on channel=0 note=64 velocity=0 time=0
note_on channel=0 note=73 velocity=51 time=0
note_on channel=0 note=33 velocity=41 time=0
note_on channel=0 note=33 velocity=0 time=47
note_on channel=0 note=45 velocity=35 time=1
note_on channel=0 note=45 velocity=0 time=79
note_on channel=0 note=73 velocity=0 time=1
note_on channel=0 note=64 velocity=57 time=0
note_on channel=0 note=61 velocity=48 time=0
note_on channel=0 note=33 velocity=39 time=0
note_on channel=0 note=33 velocity=0 time=23
note_on channel=0 note=45 velocity=34 time=1
note_on channel=0 note=45 velocity=0 time=15
note_on channel=0 note=61 velocity=0 time=1
note_on channel=0 note=64 velocity=0 time=0
note_on channel=0 note=73 velocity=53 time=0
note_on channel=0 note=33 velocity=39 time=0
note_on channel=0 note=33 velocity=0 time=39
note_on channel=0 note=45 velocity=34 time=1
note_on channel=0 note=45 velocity=0 time=119
note_on channel=0 note=73 velocity=0 time=1
note_on channel=0 note=63 velocity=47 time=0
note_on channel=0 note=57 velocity=39 time=0
note_on channel=0 note=61 velocity=39 time=0
note_on channel=0 note=69 velocity=47 time=0
note_on channel=0 note=30 velocity=33 time=0
note_on channel=0 note=42 velocity=39 time=0
control_change channel=0 control=64 value=0 time=14
control_change channel=0 control=64 value=127 time=413
note_on channel=0 note=42 velocity=0 time=1493
note_on channel=0 note=57 velocity=0 time=0
note_on channel=0 note=61 velocity=0 time=0
note_on channel=0 note=63 velocity=0 time=0
note_on channel=0 note=30 velocity=0 time=0
note_on channel=0 note=69 velocity=0 time=0
note_on channel=0 note=63 velocity=31 time=0
note_on channel=0 note=68 velocity=31 time=0
note_on channel=0 note=56 velocity=26 time=0
note_on channel=0 note=60 velocity=26 time=0
note_on channel=0 note=32 velocity=27 time=0
note_on channel=0 note=44 velocity=32 time=0
control_change channel=0 control=64 value=0 time=12
control_change channel=0 control=64 value=127 time=228
note_on channel=0 note=44 velocity=0 time=0
note_on channel=0 note=68 velocity=0 time=0
note_on channel=0 note=56 velocity=0 time=0
note_on channel=0 note=63 velocity=0 time=0
note_on channel=0 note=32 velocity=0 time=0
note_on channel=0 note=60 velocity=0 time=0
control_change channel=0 control=91 value=127 time=0
note_on channel=0 note=37 velocity=62 time=0
control_change channel=0 control=91 value=127 time=0
control_change channel=0 control=64 value=0 time=0
note_on channel=0 note=37 velocity=0 time=120
note_on channel=0 note=44 velocity=47 time=0
note_on channel=0 note=44 velocity=0 time=115
note_on channel=0 note=49 velocity=48 time=5
note_on channel=0 note=44 velocity=40 time=0
note_on channel=0 note=44 velocity=0 time=120
note_on channel=0 note=52 velocity=50 time=0
note_on channel=0 note=49 velocity=0 time=20
note_on channel=0 note=56 velocity=51 time=100
note_on channel=0 note=37 velocity=43 time=0
note_on channel=0 note=52 velocity=0 time=20
note_on channel=0 note=37 velocity=0 time=100
note_on channel=0 note=49 velocity=51 time=0
note_on channel=0 note=56 velocity=0 time=20
note_on channel=0 note=52 velocity=49 time=100
note_on channel=0 note=44 velocity=39 time=0
note_on channel=0 note=49 velocity=0 time=20
note_on channel=0 note=44 velocity=0 time=100
note_on channel=0 note=56 velocity=51 time=0
note_on channel=0 note=52 velocity=0 time=20
note_on channel=0 note=61 velocity=51 time=100
note_on channel=0 note=37 velocity=41 time=0
note_on channel=0 note=56 velocity=0 time=20
note_on channel=0 note=37 velocity=0 time=100
note_on channel=0 note=52 velocity=47 time=0
note_on channel=0 note=61 velocity=0 time=20
note_on channel=0 note=56 velocity=48 time=100
note_on channel=0 note=44 velocity=39 time=0
note_on channel=0 note=52 velocity=0 time=20
note_on channel=0 note=44 velocity=0 time=100
note_on channel=0 note=61 velocity=50 time=0
note_on channel=0 note=56 velocity=0 time=20
note_on channel=0 note=64 velocity=51 time=100
note_on channel=0 note=37 velocity=42 time=0
note_on channel=0 note=61 velocity=0 time=20
note_on channel=0 note=37 velocity=0 time=100
note_on channel=0 note=56 velocity=48 time=0
note_on channel=0 note=64 velocity=0 time=20
note_on channel=0 note=61 velocity=49 time=100
note_on channel=0 note=44 velocity=39 time=0
note_on channel=0 note=56 velocity=0 time=20
note_on channel=0 note=44 velocity=0 time=100
note_on channel=0 note=64 velocity=51 time=0
note_on channel=0 note=61 velocity=0 time=20
note_on channel=0 note=68 velocity=53 time=100
note_on channel=0 note=37 velocity=43 time=0
note_on channel=0 note=64 velocity=0 time=20
note_on channel=0 note=37 velocity=0 time=100
note_on channel=0 note=61 velocity=47 time=0
note_on channel=0 note=68 velocity=0 time=20
note_on channel=0 note=64 velocity=49 time=100
note_on channel=0 note=44 velocity=40 time=0
note_on channel=0 note=61 velocity=0 time=20
note_on channel=0 note=44 velocity=0 time=100
note_on channel=0 note=68 velocity=51 time=0
note_on channel=0 note=64 velocity=0 time=20
note_on channel=0 note=73 velocity=52 time=100
note_on channel=0 note=37 velocity=43 time=0
note_on channel=0 note=68 velocity=0 time=20
note_on channel=0 note=37 velocity=0 time=100
note_on channel=0 note=64 velocity=51 time=0
note_on channel=0 note=73 velocity=0 time=20
note_on channel=0 note=68 velocity=50 time=100
note_on channel=0 note=44 velocity=40 time=0
note_on channel=0 note=64 velocity=0 time=20
note_on channel=0 note=44 velocity=0 time=100
note_on channel=0 note=73 velocity=51 time=0
note_on channel=0 note=68 velocity=0 time=20
note_on channel=0 note=76 velocity=53 time=100
note_on channel=0 note=37 velocity=41 time=0
note_on channel=0 note=73 velocity=0 time=20
note_on channel=0 note=37 velocity=0 time=100
note_on channel=0 note=68 velocity=51 time=0
note_on channel=0 note=76 velocity=0 time=20
note_on channel=0 note=73 velocity=51 time=100
note_on channel=0 note=44 velocity=38 time=0
note_on channel=0 note=68 velocity=0 time=20
note_on channel=0 note=44 velocity=0 time=100
note_on channel=0 note=76 velocity=56 time=0
note_on channel=0 note=73 velocity=0 time=20
note_on channel=0 note=76 velocity=0 time=0
note_on channel=0 note=73 velocity=79 time=0
note_on channel=0 note=80 velocity=94 time=0
note_on channel=0 note=68 velocity=79 time=0
note_on channel=0 note=76 velocity=94 time=0
note_on channel=0 note=37 velocity=66 time=0
note_on channel=0 note=49 velocity=79 time=0
control_change channel=0 control=64 value=127 time=85
control_change channel=0 control=64 value=127 time=0
note_on channel=0 note=49 velocity=0 time=35
note_on channel=0 note=80 velocity=0 time=0
note_on channel=0 note=68 velocity=0 time=0
note_on channel=0 note=73 velocity=0 time=0
note_on channel=0 note=37 velocity=0 time=0
note_on channel=0 note=76 velocity=0 time=0
note_on channel=0 note=80 velocity=79 time=120
note_on channel=0 note=76 velocity=79 time=0
note_on channel=0 note=73 velocity=67 time=0
note_on channel=0 note=68 velocity=67 time=0
note_on channel=0 note=44 velocity=67 time=0
note_on channel=0 note=44 velocity=0 time=120
note_on channel=0 note=73 velocity=0 time=0
note_on channel=0 note=80 velocity=0 time=0
note_on channel=0 note=76 velocity=0 time=0
note_on channel=0 note=68 velocity=0 time=0
note_on channel=0 note=36 velocity=41 time=0
control_change channel=0 control=64 value=0 time=12
control_change channel=0 control=64 value=0 time=0
note_on channel=0 note=36 velocity=0 time=108
note_on channel=0 note=44 velocity=47 time=0
note_on channel=0 note=44 velocity=0 time=115
note_on channel=0 note=48 velocity=49 time=5
note_on channel=0 note=44 velocity=38 time=0
note_on channel=0 note=44 velocity=0 time=120
note_on channel=0 note=51 velocity=51 time=0
note_on channel=0 note=48 velocity=0 time=20
note_on channel=0 note=56 velocity=51 time=100
note_on channel=0 note=36 velocity=41 time=0
note_on channel=0 note=51 velocity=0 time=20
note_on channel=0 note=36 velocity=0 time=100
note_on channel=0 note=48 velocity=48 time=0
note_on channel=0 note=56 velocity=0 time=20
note_on channel=0 note=51 velocity=50 time=100
note_on channel=0 note=44 velocity=38 time=0
note_on channel=0 note=48 velocity=0 time=20
note_on channel=0 note=44 velocity=0 time=100
note_on channel=0 note=56 velocity=51 time=0
note_on channel=0 note=51 velocity=0 time=20
note_on channel=0 note=60 velocity=52 time=100
note_on channel=0 note=36 velocity=40 time=0
note_on channel=0 note=56 velocity=0 time=20
note_on channel=0 note=36 velocity=0 time=100
note_on channel=0 note=51 velocity=51 time=0
note_on channel=0 note=60 velocity=0 time=20
note_on channel=0 note=56 velocity=51 time=100
note_on channel=0 note=44 velocity=37 time=0
note_on channel=0 note=51 velocity=0 time=20
note_on channel=0 note=44 velocity=0 time=100
note_on channel=0 note=60 velocity=51 time=0
note_on channel=0 note=56 velocity=0 time=20
note_on channel=0 note=63 velocity=52 time=100
note_on channel=0 note=36 velocity=40 time=0
note_on channel=0 note=60 velocity=0 time=20
note_on channel=0 note=36 velocity=0 time=100
note_on channel=0 note=56 velocity=47 time=0
note_on channel=0 note=63 velocity=0 time=20
note_on channel=0 note=60 velocity=50 time=100
note_on channel=0 note=44 velocity=36 time=0
note_on channel=0 note=56 velocity=0 time=20
note_on channel=0 note=44 velocity=0 time=100
note_on channel=0 note=63 velocity=51 time=0
note_on channel=0 note=60 velocity=0 time=20
note_on channel=0 note=68 velocity=53 time=100
note_on channel=0 note=36 velocity=40 time=0
note_on channel=0 note=63 velocity=0 time=20
note_on channel=0 note=36 velocity=0 time=100
note_on channel=0 note=60 velocity=49 time=0
note_on channel=0 note=68 velocity=0 time=20
note_on channel=0 note=63 velocity=50 time=100
note_on channel=0 note=44 velocity=36 time=0
note_on channel=0 note=60 velocity=0 time=20
note_on channel=0 note=44 velocity=0 time=100
note_on channel=0 note=68 velocity=51 time=0
note_on channel=0 note=63 velocity=0 time=20
note_on channel=0 note=72 velocity=52 time=100
note_on channel=0 note=36 velocity=40 time=0
note_on channel=0 note=68 velocity=0 time=20
note_on channel=0 note=36 velocity=0 time=100
note_on channel=0 note=63 velocity=51 time=0
note_on channel=0 note=72 velocity=0 time=20
note_on channel=0 note=68 velocity=50 time=100
note_on channel=0 note=44 velocity=36 time=0
note_on channel=0 note=63 velocity=0 time=20
note_on channel=0 note=44 velocity=0 time=100
note_on channel=0 note=72 velocity=51 time=0
note_on channel=0 note=68 velocity=0 time=20
note_on channel=0 note=75 velocity=52 time=100
note_on channel=0 note=36 velocity=40 time=0
note_on channel=0 note=72 velocity=0 time=20
note_on channel=0 note=36 velocity=0 time=100
note_on channel=0 note=68 velocity=49 time=0
note_on channel=0 note=75 velocity=0 time=20
note_on channel=0 note=72 velocity=51 time=100
note_on channel=0 note=44 velocity=36 time=0
note_on channel=0 note=68 velocity=0 time=20
note_on channel=0 note=44 velocity=0 time=100
note_on channel=0 note=75 velocity=53 time=0
note_on channel=0 note=72 velocity=0 time=20
note_on channel=0 note=75 velocity=0 time=0
note_on channel=0 note=72 velocity=79 time=0
note_on channel=0 note=75 velocity=94 time=0
note_on channel=0 note=80 velocity=94 time=0
note_on channel=0 note=68 velocity=79 time=0
note_on channel=0 note=48 velocity=79 time=0
note_on channel=0 note=36 velocity=66 time=0
control_change channel=0 control=64 value=127 time=86
control_change channel=0 control=64 value=127 time=0
note_on channel=0 note=36 velocity=0 time=34
note_on channel=0 note=75 velocity=0 time=0
note_on channel=0 note=80 velocity=0 time=0
note_on channel=0 note=72 velocity=0 time=0
note_on channel=0 note=48 velocity=0 time=0
note_on channel=0 note=68 velocity=0 time=0
note_on channel=0 note=75 velocity=78 time=120
note_on channel=0 note=68 velocity=66 time=0
note_on channel=0 note=80 velocity=78 time=0
note_on channel=0 note=72 velocity=66 time=0
note_on channel=0 note=44 velocity=65 time=0
note_on channel=0 note=44 velocity=0 time=120
note_on channel=0 note=80 velocity=0 time=0
note_on channel=0 note=75 velocity=0 time=0
note_on channel=0 note=68 velocity=0 time=0
note_on channel=0 note=72 velocity=0 time=0
note_on channel=0 note=35 velocity=55 time=0
control_change channel=0 control=64 value=0 time=17
control_change channel=0 control=64 value=0 time=0
note_on channel=0 note=35 velocity=0 time=103
note_on channel=0 note=49 velocity=62 time=0
note_on channel=0 note=53 velocity=65 time=120
note_on channel=0 note=44 velocity=51 time=0
note_on channel=0 note=49 velocity=0 time=20
note_on channel=0 note=44 velocity=0 time=100
note_on channel=0 note=56 velocity=67 time=0
note_on channel=0 note=53 velocity=0 time=20
note_on channel=0 note=61 velocity=68 time=100
note_on channel=0 note=35 velocity=56 time=0
note_on channel=0 note=56 velocity=0 time=20
note_on channel=0 note=35 velocity=0 time=100
note_on channel=0 note=53 velocity=65 time=0
note_on channel=0 note=61 velocity=0 time=20
note_on channel=0 note=56 velocity=67 time=100
note_on channel=0 note=44 velocity=52 time=0
note_on channel=0 note=53 velocity=0 time=20
note_on channel=0 note=44 velocity=0 time=100
note_on channel=0 note=61 velocity=68 time=0
note_on channel=0 note=56 velocity=0 time=20
note_on channel=0 note=65 velocity=69 time=100
note_on channel=0 note=35 velocity=56 time=0
note_on channel=0 note=61 velocity=0 time=20
note_on channel=0 note=35 velocity=0 time=100
note_on channel=0 note=56 velocity=66 time=0
note_on channel=0 note=65 velocity=0 time=20
note_on channel=0 note=61 velocity=68 time=100
note_on channel=0 note=44 velocity=52 time=0
note_on channel=0 note=56 velocity=0 time=20
note_on channel=0 note=44 velocity=0 time=100
note_on channel=0 note=65 velocity=69 time=0
note_on channel=0 note=61 velocity=0 time=20
note_on channel=0 note=68 velocity=71 time=100
note_on channel=0 note=35 velocity=56 time=0
note_on channel=0 note=65 velocity=0 time=20
note_on channel=0 note=35 velocity=0 time=100
note_on channel=0 note=61 velocity=66 time=0
note_on channel=0 note=68 velocity=0 time=20
note_on channel=0 note=65 velocity=68 time=100
note_on channel=0 note=44 velocity=51 time=0
note_on channel=0 note=61 velocity=0 time=20
note_on channel=0 note=44 velocity=0 time=100
note_on channel=0 note=68 velocity=68 time=0
note_on channel=0 note=65 velocity=0 time=20
note_on channel=0 note=73 velocity=69 time=100
note_on channel=0 note=35 velocity=56 time=0
note_on channel=0 note=68 velocity=0 time=20
note_on channel=0 note=35 velocity=0 time=100
note_on channel=0 note=65 velocity=66 time=0
note_on channel=0 note=73 velocity=0 time=20
note_on channel=0 note=68 velocity=68 time=100
note_on channel=0 note=44 velocity=51 time=0
note_on channel=0 note=65 velocity=0 time=20
note_on channel=0 note=44 velocity=0 time=100
note_on channel=0 note=73 velocity=68 time=0
note_on channel=0 note=68 velocity=0 time=20
note_on channel=0 note=77 velocity=70 time=100
note_on channel=0 note=35 velocity=56 time=0
note_on channel=0 note=73 velocity=0 time=20
note_on channel=0 note=35 velocity=0 time=100
note_on channel=0 note=68 velocity=63 time=0
note_on channel=0 note=77 velocity=0 time=20
note_on channel=0 note=73 velocity=66 time=100
note_on channel=0 note=44 velocity=52 time=0
note_on channel=0 note=68 velocity=0 time=20
note_on channel=0 note=44 velocity=0 time=100
note_on channel=0 note=77 velocity=68 time=0
note_on channel=0 note=73 velocity=0 time=20
note_on channel=0 note=80 velocity=68 time=100
note_on channel=0 note=35 velocity=56 time=0
note_on channel=0 note=77 velocity=0 time=20
note_on channel=0 note=35 velocity=0 time=100
note_on channel=0 note=73 velocity=66 time=0
note_on channel=0 note=80 velocity=0 time=20
note_on channel=0 note=77 velocity=68 time=100
note_on channel=0 note=44 velocity=52 time=0
note_on channel=0 note=73 velocity=0 time=20
note_on channel=0 note=44 velocity=0 time=100
note_on channel=0 note=80 velocity=70 time=0
note_on channel=0 note=77 velocity=0 time=20
note_on channel=0 note=80 velocity=0 time=0
note_on channel=0 note=73 velocity=87 time=0
note_on channel=0 note=77 velocity=87 time=0
note_on channel=0 note=80 velocity=103 time=0
note_on channel=0 note=85 velocity=103 time=0
note_on channel=0 note=47 velocity=85 time=0
note_on channel=0 note=35 velocity=71 time=0
control_change channel=0 control=64 value=127 time=46
control_change channel=0 control=64 value=127 time=0
note_on channel=0 note=35 velocity=0 time=74
note_on channel=0 note=77 velocity=0 time=0
note_on channel=0 note=80 velocity=0 time=0
note_on channel=0 note=73 velocity=0 time=0
note_on channel=0 note=47 velocity=0 time=0
note_on channel=0 note=85 velocity=0 time=0
note_on channel=0 note=77 velocity=77 time=120
note_on channel=0 note=80 velocity=90 time=0
note_on channel=0 note=85 velocity=90 time=0
note_on channel=0 note=73 velocity=77 time=0
note_on channel=0 note=44 velocity=73 time=0
note_on channel=0 note=44 velocity=0 time=120
note_on channel=0 note=85 velocity=0 time=0
note_on channel=0 note=77 velocity=0 time=0
note_on channel=0 note=80 velocity=0 time=0
note_on channel=0 note=73 velocity=0 time=0
note_on channel=0 note=33 velocity=50 time=0
control_change channel=0 control=64 value=0 time=4
control_change channel=0 control=64 value=0 time=0
note_on channel=0 note=33 velocity=0 time=116
note_on channel=0 note=49 velocity=61 time=0
note_on channel=0 note=54 velocity=63 time=120
note_on channel=0 note=45 velocity=51 time=0
note_on channel=0 note=49 velocity=0 time=20
note_on channel=0 note=45 velocity=0 time=100
note_on channel=0 note=57 velocity=62 time=0
note_on channel=0 note=54 velocity=0 time=20
note_on channel=0 note=61 velocity=69 time=100
note_on channel=0 note=33 velocity=57 time=0
note_on channel=0 note=57 velocity=0 time=20
note_on channel=0 note=61 velocity=0 time=40
note_on channel=0 note=33 velocity=0 time=60
note_on channel=0 note=61 velocity=72 time=0
note_on channel=0 note=66 velocity=76 time=120
note_on channel=0 note=45 velocity=62 time=0
note_on channel=0 note=61 velocity=0 time=20
note_on channel=0 note=45 velocity=0 time=100
note_on channel=0 note=69 velocity=76 time=0
note_on channel=0 note=66 velocity=0 time=20
note_on channel=0 note=73 velocity=82 time=100
note_on channel=0 note=33 velocity=67 time=0
note_on channel=0 note=69 velocity=0 time=20
note_on channel=0 note=73 velocity=0 time=40
note_on channel=0 note=33 velocity=0 time=60
note_on channel=0 note=73 velocity=85 time=0
note_on channel=0 note=78 velocity=87 time=120
note_on channel=0 note=45 velocity=67 time=0
note_on channel=0 note=73 velocity=0 time=20
note_on channel=0 note=45 velocity=0 time=100
note_on channel=0 note=81 velocity=84 time=0
note_on channel=0 note=78 velocity=0 time=20
note_on channel=0 note=78 velocity=102 time=0
note_on channel=0 note=85 velocity=102 time=0
note_on channel=0 note=73 velocity=86 time=0
note_on channel=0 note=33 velocity=86 time=0
note_on channel=0 note=81 velocity=0 time=20
control_change channel=0 control=64 value=127 time=19
control_change channel=0 control=64 value=127 time=0
note_on channel=0 note=73 velocity=0 time=81
note_on channel=0 note=78 velocity=0 time=0
note_on channel=0 note=85 velocity=0 time=0
note_on channel=0 note=33 velocity=0 time=0
note_on channel=0 note=73 velocity=85 time=120
note_on channel=0 note=78 velocity=101 time=0
note_on channel=0 note=85 velocity=101 time=0
note_on channel=0 note=45 velocity=85 time=0
note_on channel=0 note=45 velocity=0 time=120
note_on channel=0 note=73 velocity=0 time=0
note_on channel=0 note=78 velocity=0 time=0
note_on channel=0 note=85 velocity=0 time=0
note_on channel=0 note=33 velocity=67 time=0
control_change channel=0 control=64 value=0 time=0
control_change channel=0 control=64 value=0 time=0
note_on channel=0 note=33 velocity=0 time=120
note_on channel=0 note=49 velocity=75 time=0
note_on channel=0 note=52 velocity=77 time=120
note_on channel=0 note=45 velocity=62 time=0
note_on channel=0 note=49 velocity=0 time=20
note_on channel=0 note=45 velocity=0 time=100
note_on channel=0 note=55 velocity=75 time=0
note_on channel=0 note=52 velocity=0 time=20
note_on channel=0 note=61 velocity=80 time=100
note_on channel=0 note=33 velocity=67 time=0
note_on channel=0 note=55 velocity=0 time=20
note_on channel=0 note=61 velocity=0 time=40
note_on channel=0 note=33 velocity=0 time=60
note_on channel=0 note=61 velocity=77 time=0
note_on channel=0 note=64 velocity=79 time=120
note_on channel=0 note=45 velocity=63 time=0
note_on channel=0 note=61 velocity=0 time=20
note_on channel=0 note=45 velocity=0 time=100
note_on channel=0 note=67 velocity=77 time=0
note_on channel=0 note=64 velocity=0 time=20
note_on channel=0 note=73 velocity=81 time=100
note_on channel=0 note=33 velocity=67 time=0
note_on channel=0 note=67 velocity=0 time=20
note_on channel=0 note=73 velocity=0 time=40
note_on channel=0 note=33 velocity=0 time=60
note_on channel=0 note=73 velocity=80 time=0
note_on channel=0 note=76 velocity=81 time=120
note_on channel=0 note=45 velocity=64 time=0
note_on channel=0 note=73 velocity=0 time=20
note_on channel=0 note=45 velocity=0 time=100
note_on channel=0 note=79 velocity=79 time=0
note_on channel=0 note=76 velocity=0 time=20
note_on channel=0 note=79 velocity=0 time=0
note_on channel=0 note=79 velocity=108 time=0
note_on channel=0 note=85 velocity=108 time=0
note_on channel=0 note=73 velocity=90 time=0
note_on channel=0 note=33 velocity=90 time=0
control_change channel=0 control=64 value=127 time=71
control_change channel=0 control=64 value=127 time=0
note_on channel=0 note=33 velocity=0 time=49
note_on channel=0 note=79 velocity=0 time=0
note_on channel=0 note=85 velocity=0 time=0
note_on channel=0 note=73 velocity=0 time=0
note_on channel=0 note=85 velocity=108 time=120
note_on channel=0 note=79 velocity=108 time=0
note_on channel=0 note=73 velocity=90 time=0
note_on channel=0 note=45 velocity=90 time=0
note_on channel=0 note=45 velocity=0 time=120
note_on channel=0 note=85 velocity=0 time=0
note_on channel=0 note=79 velocity=0 time=0
note_on channel=0 note=73 velocity=0 time=0
note_on channel=0 note=80 velocity=108 time=120
note_on channel=0 note=72 velocity=90 time=0
note_on channel=0 note=84 velocity=108 time=0
note_on channel=0 note=44 velocity=77 time=0
note_on channel=0 note=32 velocity=77 time=0
control_change channel=0 control=64 value=0 time=0
control_change channel=0 control=64 value=0 time=0
note_on channel=0 note=32 velocity=0 time=0
note_on channel=0 note=84 velocity=0 time=0
note_on channel=0 note=80 velocity=0 time=0
note_on channel=0 note=72 velocity=0 time=0
note_on channel=0 note=44 velocity=0 time=0
note_on channel=0 note=68 velocity=74 time=0
note_on channel=0 note=60 velocity=62 time=0
note_on channel=0 note=56 velocity=62 time=0
control_change channel=0 control=64 value=127 time=57
control_change channel=0 control=64 value=127 time=0
note_on channel=0 note=68 velocity=0 time=63
note_on channel=0 note=80 velocity=58 time=0
note_on channel=0 note=80 velocity=0 time=120
note_on channel=0 note=60 velocity=0 time=0
note_on channel=0 note=68 velocity=75 time=0
note_on channel=0 note=60 velocity=62 time=0
note_on channel=0 note=68 velocity=0 time=120
note_on channel=0 note=80 velocity=60 time=0
note_on channel=0 note=80 velocity=0 time=120
note_on channel=0 note=60 velocity=0 time=0
note_on channel=0 note=70 velocity=76 time=0
note_on channel=0 note=61 velocity=62 time=0
control_change channel=0 control=64 value=0 time=17
control_change channel=0 control=64 value=0 time=0
control_change channel=0 control=64 value=127 time=69
control_change channel=0 control=64 value=127 time=0
note_on channel=0 note=70 velocity=0 time=34
note_on channel=0 note=80 velocity=60 time=0
note_on channel=0 note=80 velocity=0 time=120
note_on channel=0 note=61 velocity=0 time=0
note_on channel=0 note=72 velocity=76 time=0
note_on channel=0 note=63 velocity=64 time=0
control_change channel=0 control=64 value=0 time=17
control_change channel=0 control=64 value=0 time=0
control_change channel=0 control=64 value=127 time=69
control_change channel=0 control=64 value=127 time=0
note_on channel=0 note=72 velocity=0 time=34
note_on channel=0 note=80 velocity=61 time=0
note_on channel=0 note=80 velocity=0 time=120
note_on channel=0 note=63 velocity=0 time=0
note_on channel=0 note=73 velocity=78 time=0
note_on channel=0 note=64 velocity=66 time=0
control_change channel=0 control=64 value=0 time=12
control_change channel=0 control=64 value=0 time=0
control_change channel=0 control=64 value=127 time=63
control_change channel=0 control=64 value=127 time=0
note_on channel=0 note=73 velocity=0 time=45
note_on channel=0 note=80 velocity=62 time=0
note_on channel=0 note=80 velocity=0 time=120
note_on channel=0 note=64 velocity=0 time=0
note_on channel=0 note=75 velocity=79 time=0
note_on channel=0 note=66 velocity=67 time=0
control_change channel=0 control=64 value=0 time=17
control_change channel=0 control=64 value=0 time=0
control_change channel=0 control=64 value=127 time=63
control_change channel=0 control=64 value=127 time=0
note_on channel=0 note=75 velocity=0 time=40
note_on channel=0 note=80 velocity=62 time=0
note_on channel=0 note=80 velocity=0 time=120
note_on channel=0 note=66 velocity=0 time=0
note_on channel=0 note=72 velocity=79 time=0
note_on channel=0 note=63 velocity=68 time=0
control_change channel=0 control=64 value=0 time=17
control_change channel=0 control=64 value=0 time=0
control_change channel=0 control=64 value=127 time=52
control_change channel=0 control=64 value=127 time=0
note_on channel=0 note=72 velocity=0 time=51
note_on channel=0 note=80 velocity=62 time=0
note_on channel=0 note=80 velocity=0 time=0
note_on channel=0 note=63 velocity=0 time=0
note_on channel=0 note=75 velocity=80 time=0
note_on channel=0 note=66 velocity=69 time=0
control_change channel=0 control=64 value=0 time=8
control_change channel=0 control=64 value=0 time=0
control_change channel=0 control=64 value=127 time=72
control_change channel=0 control=64 value=127 time=0
note_on channel=0 note=75 velocity=0 time=40
note_on channel=0 note=80 velocity=62 time=0
note_on channel=0 note=80 velocity=0 time=120
note_on channel=0 note=66 velocity=0 time=0
note_on channel=0 note=73 velocity=80 time=0
note_on channel=0 note=64 velocity=71 time=0
control_change channel=0 control=64 value=0 time=18
control_change channel=0 control=64 value=0 time=0
control_change channel=0 control=64 value=127 time=62
control_change channel=0 control=64 value=127 time=0
note_on channel=0 note=73 velocity=0 time=40
note_on channel=0 note=80 velocity=62 time=0
note_on channel=0 note=80 velocity=0 time=0
note_on channel=0 note=64 velocity=0 time=0
note_on channel=0 note=78 velocity=84 time=0
note_on channel=0 note=69 velocity=72 time=0
control_change channel=0 control=64 value=0 time=17
control_change channel=0 control=64 value=0 time=0
control_change channel=0 control=64 value=127 time=52
control_change channel=0 control=64 value=127 time=0
note_on channel=0 note=78 velocity=0 time=51
note_on channel=0 note=80 velocity=62 time=0
note_on channel=0 note=80 velocity=0 time=120
note_on channel=0 note=69 velocity=0 time=0
note_on channel=0 note=76 velocity=80 time=0
note_on channel=0 note=68 velocity=71 time=0
control_change channel=0 control=64 value=0 time=17
control_change channel=0 control=64 value=0 time=0
control_change channel=0 control=64 value=127 time=12
control_change channel=0 control=64 value=127 time=0
note_on channel=0 note=76 velocity=0 time=28
note_on channel=0 note=80 velocity=62 time=0
note_on channel=0 note=80 velocity=0 time=120
note_on channel=0 note=68 velocity=0 time=0
note_on channel=0 note=75 velocity=80 time=0
note_on channel=0 note=66 velocity=69 time=0
control_change channel=0 control=64 value=0 time=19
control_change channel=0 control=64 value=0 time=0
control_change channel=0 control=64 value=127 time=67
control_change channel=0 control=64 value=127 time=0
note_on channel=0 note=75 velocity=0 time=0
note_on channel=0 note=80 velocity=62 time=0
note_on channel=0 note=80 velocity=0 time=120
note_on channel=0 note=66 velocity=0 time=0
note_on channel=0 note=73 velocity=79 time=0
note_on channel=0 note=64 velocity=68 time=0
control_change channel=0 control=64 value=0 time=14
control_change channel=0 control=64 value=0 time=0
control_change channel=0 control=64 value=127 time=72
control_change channel=0 control=64 value=127 time=0
note_on channel=0 note=73 velocity=0 time=34
note_on channel=0 note=80 velocity=62 time=0
note_on channel=0 note=80 velocity=0 time=0
note_on channel=0 note=64 velocity=0 time=0
note_on channel=0 note=72 velocity=79 time=0
note_on channel=0 note=63 velocity=67 time=0
control_change channel=0 control=64 value=0 time=12
control_change channel=0 control=64 value=0 time=0
control_change channel=0 control=64 value=127 time=80
control_change channel=0 control=64 value=127 time=0
note_on channel=0 note=72 velocity=0 time=28
note_on channel=0 note=80 velocity=62 time=0
note_on channel=0 note=80 velocity=0 time=0
note_on channel=0 note=63 velocity=0 time=0
note_on channel=0 note=69 velocity=77 time=0
note_on channel=0 note=61 velocity=66 time=0
control_change channel=0 control=64 value=0 time=10
control_change channel=0 control=64 value=0 time=0
control_change channel=0 control=64 value=127 time=65
control_change channel=0 control=64 value=127 time=0
note_on channel=0 note=69 velocity=0 time=45
note_on channel=0 note=79 velocity=61 time=0
note_on channel=0 note=79 velocity=0 time=120
note_on channel=0 note=61 velocity=0 time=0
note_on channel=0 note=56 velocity=0 time=0
note_on channel=0 note=68 velocity=76 time=0
note_on channel=0 note=56 velocity=64 time=0
note_on channel=0 note=60 velocity=64 time=0
control_change channel=0 control=64 value=0 time=8
control_change channel=0 control=64 value=0 time=0
control_change channel=0 control=64 value=127 time=12
control_change channel=0 control=64 value=127 time=0
note_on channel=0 note=68 velocity=0 time=28
note_on channel=0 note=80 velocity=60 time=0
note_on channel=0 note=80 velocity=0 time=120
note_on channel=0 note=60 velocity=0 time=0
note_on channel=0 note=68 velocity=75 time=0
note_on channel=0 note=60 velocity=63 time=0
note_on channel=0 note=68 velocity=0 time=0
note_on channel=0 note=80 velocity=59 time=0
note_on channel=0 note=80 velocity=0 time=120
note_on channel=0 note=60 velocity=0 time=0
note_on channel=0 note=68 velocity=74 time=0
note_on channel=0 note=60 velocity=62 time=0
note_on channel=0 note=68 velocity=0 time=120
note_on channel=0 note=80 velocity=59 time=0
note_on channel=0 note=80 velocity=0 time=40
note_on channel=0 note=60 velocity=0 time=0
note_on channel=0 note=70 velocity=74 time=0
note_on channel=0 note=61 velocity=60 time=0
control_change channel=0 control=64 value=0 time=18
control_change channel=0 control=64 value=0 time=0
control_change channel=0 control=64 value=127 time=57
control_change channel=0 control=64 value=127 time=0
note_on channel=0 note=70 velocity=0 time=45
note_on channel=0 note=80 velocity=61 time=0
note_on channel=0 note=80 velocity=0 time=120
note_on channel=0 note=61 velocity=0 time=0
note_on channel=0 note=72 velocity=76 time=0
note_on channel=0 note=63 velocity=62 time=0
control_change channel=0 control=64 value=0 time=15
control_change channel=0 control=64 value=0 time=0
control_change channel=0 control=64 value=127 time=65
control_change channel=0 control=64 value=127 time=0
note_on channel=0 note=72 velocity=0 time=40
note_on channel=0 note=80 velocity=59 time=0
note_on channel=0 note=80 velocity=0 time=120
note_on channel=0 note=63 velocity=0 time=0
note_on channel=0 note=73 velocity=76 time=0
note_on channel=0 note=64 velocity=62 time=0
control_change channel=0 control=64 value=0 time=17
control_change channel=0 control=64 value=0 time=0
control_change channel=0 control=64 value=127 time=69
control_change channel=0 control=64 value=127 time=0
note_on channel=0 note=73 velocity=0 time=34
note_on channel=0 note=80 velocity=62 time=0
note_on channel=0 note=80 velocity=0 time=120
note_on channel=0 note=64 velocity=0 time=0
note_on channel=0 note=75 velocity=77 time=0
note_on channel=0 note=66 velocity=65 time=0
control_change channel=0 control=64 value=0 time=15
control_change channel=0 control=64 value=0 time=0
control_change channel=0 control=64 value=127 time=71
control_change channel=0 control=64 value=127 time=0
note_on channel=0 note=75 velocity=0 time=34
note_on channel=0 note=80 velocity=61 time=0
note_on channel=0 note=80 velocity=0 time=120
note_on channel=0 note=66 velocity=0 time=0
note_on channel=0 note=72 velocity=79 time=0
note_on channel=0 note=63 velocity=67 time=0
control_change channel=0 control=64 value=0 time=18
control_change channel=0 control=64 value=0 time=0
control_change channel=0 control=64 value=127 time=57
control_change channel=0 control=64 value=127 time=0
note_on channel=0 note=72 velocity=0 time=45
note_on channel=0 note=80 velocity=62 time=0
note_on channel=0 note=80 velocity=0 time=0
note_on channel=0 note=63 velocity=0 time=0
note_on channel=0 note=75 velocity=79 time=0
note_on channel=0 note=66 velocity=68 time=0
control_change channel=0 control=64 value=0 time=8
control_change channel=0 control=64 value=0 time=0
control_change channel=0 control=64 value=127 time=72
control_change channel=0 control=64 value=127 time=0
note_on channel=0 note=75 velocity=0 time=40
note_on channel=0 note=80 velocity=62 time=0
note_on channel=0 note=80 velocity=0 time=120
note_on channel=0 note=66 velocity=0 time=0
note_on channel=0 note=73 velocity=80 time=0
note_on channel=0 note=64 velocity=68 time=0
control_change channel=0 control=64 value=0 time=13
control_change channel=0 control=64 value=0 time=0
control_change channel=0 control=64 value=127 time=73
control_change channel=0 control=64 value=127 time=0
note_on channel=0 note=73 velocity=0 time=34
note_on channel=0 note=80 velocity=65 time=0
note_on channel=0 note=80 velocity=0 time=40
note_on channel=0 note=64 velocity=0 time=0
note_on channel=0 note=78 velocity=84 time=0
note_on channel=0 note=69 velocity=68 time=0
control_change channel=0 control=64 value=0 time=19
control_change channel=0 control=64 value=0 time=0
control_change channel=0 control=64 value=127 time=56
control_change channel=0 control=64 value=127 time=0
note_on channel=0 note=78 velocity=0 time=45
note_on channel=0 note=80 velocity=68 time=0
note_on channel=0 note=80 velocity=0 time=120
note_on channel=0 note=69 velocity=0 time=0
note_on channel=0 note=76 velocity=84 time=0
note_on channel=0 note=68 velocity=67 time=0
control_change channel=0 control=64 value=0 time=19
control_change channel=0 control=64 value=0 time=0
control_change channel=0 control=64 value=127 time=56
control_change channel=0 control=64 value=127 time=0
note_on channel=0 note=76 velocity=0 time=0
note_on channel=0 note=80 velocity=67 time=0
note_on channel=0 note=80 velocity=0 time=120
note_on channel=0 note=68 velocity=0 time=0
note_on channel=0 note=75 velocity=84 time=0
note_on channel=0 note=66 velocity=67 time=0
control_change channel=0 control=64 value=0 time=22
control_change channel=0 control=64 value=0 time=0
control_change channel=0 control=64 value=127 time=64
control_change channel=0 control=64 value=127 time=0
note_on channel=0 note=75 velocity=0 time=34
note_on channel=0 note=80 velocity=67 time=0
note_on channel=0 note=80 velocity=0 time=0
note_on channel=0 note=66 velocity=0 time=0
note_on channel=0 note=73 velocity=84 time=0
note_on channel=0 note=64 velocity=67 time=0
control_change channel=0 control=64 value=0 time=16
control_change channel=0 control=64 value=0 time=0
control_change channel=0 control=64 value=127 time=59
control_change channel=0 control=64 value=127 time=0
note_on channel=0 note=73 velocity=0 time=45
note_on channel=0 note=80 velocity=66 time=0
note_on channel=0 note=80 velocity=0 time=120
note_on channel=0 note=64 velocity=0 time=0
note_on channel=0 note=72 velocity=84 time=0
note_on channel=0 note=63 velocity=67 time=0
control_change channel=0 control=64 value=0 time=19
control_change channel=0 control=64 value=0 time=0
control_change channel=0 control=64 value=127 time=61
control_change channel=0 control=64 value=127 time=0
note_on channel=0 note=72 velocity=0 time=0
note_on channel=0 note=80 velocity=67 time=0
note_on channel=0 note=80 velocity=0 time=120
note_on channel=0 note=63 velocity=0 time=0
note_on channel=0 note=69 velocity=84 time=0
note_on channel=0 note=61 velocity=67 time=0
control_change channel=0 control=64 value=0 time=15
control_change channel=0 control=64 value=0 time=0
control_change channel=0 control=64 value=127 time=48
control_change channel=0 control=64 value=127 time=0
note_on channel=0 note=69 velocity=0 time=57
note_on channel=0 note=79 velocity=66 time=0
note_on channel=0 note=79 velocity=0 time=0
note_on channel=0 note=61 velocity=0 time=0
note_on channel=0 note=56 velocity=0 time=0
note_on channel=0 note=68 velocity=84 time=0
note_on channel=0 note=60 velocity=71 time=0
note_on channel=0 note=56 velocity=71 time=0
control_change channel=0 control=64 value=0 time=0
control_change channel=0 control=64 value=0 time=0
control_change channel=0 control=64 value=127 time=12
control_change channel=0 control=64 value=127 time=0
note_on channel=0 note=56 velocity=0 time=68
note_on channel=0 note=60 velocity=0 time=0
note_on channel=0 note=68 velocity=0 time=0
note_on channel=0 note=80 velocity=66 time=0
control_change channel=0 control=64 value=0 time=6
control_change channel=0 control=64 value=0 time=0
note_on channel=0 note=80 velocity=0 time=40
note_on channel=0 note=69 velocity=79 time=0
note_on channel=0 note=61 velocity=62 time=0
note_on channel=0 note=56 velocity=62 time=0
control_change channel=0 control=64 value=127 time=23
control_change channel=0 control=64 value=127 time=0
note_on channel=0 note=56 velocity=0 time=40
note_on channel=0 note=61 velocity=0 time=0
note_on channel=0 note=69 velocity=0 time=0
note_on channel=0 note=79 velocity=67 time=0
control_change channel=0 control=64 value=0 time=0
control_change channel=0 control=64 value=0 time=0
note_on channel=0 note=79 velocity=0 time=40
note_on channel=0 note=68 velocity=84 time=0
note_on channel=0 note=56 velocity=68 time=0
note_on channel=0 note=60 velocity=68 time=0
control_change channel=0 control=64 value=127 time=23
control_change channel=0 control=64 value=127 time=0
note_on channel=0 note=60 velocity=0 time=40
note_on channel=0 note=56 velocity=0 time=0
note_on channel=0 note=68 velocity=0 time=0
note_on channel=0 note=80 velocity=66 time=0
control_change channel=0 control=64 value=0 time=34
control_change channel=0 control=64 value=0 time=0
note_on channel=0 note=80 velocity=0 time=40
note_on channel=0 note=69 velocity=79 time=0
note_on channel=0 note=61 velocity=62 time=0
note_on channel=0 note=56 velocity=62 time=0
control_change channel=0 control=64 value=127 time=40
control_change channel=0 control=64 value=127 time=0
note_on channel=0 note=56 velocity=0 time=40
note_on channel=0 note=61 velocity=0 time=0
note_on channel=0 note=69 velocity=0 time=0
note_on channel=0 note=79 velocity=67 time=0
control_change channel=0 control=64 value=0 time=46
control_change channel=0 control=64 value=0 time=0
note_on channel=0 note=79 velocity=0 time=40
note_on channel=0 note=68 velocity=84 time=0
note_on channel=0 note=60 velocity=71 time=0
note_on channel=0 note=56 velocity=71 time=0
control_change channel=0 control=64 value=127 time=40
control_change channel=0 control=64 value=127 time=0
note_on channel=0 note=56 velocity=0 time=0
note_on channel=0 note=60 velocity=0 time=0
note_on channel=0 note=68 velocity=0 time=0
note_on channel=0 note=80 velocity=66 time=0
control_change channel=0 control=64 value=0 time=46
control_change channel=0 control=64 value=0 time=0
note_on channel=0 note=80 velocity=0 time=0
note_on channel=0 note=69 velocity=79 time=0
note_on channel=0 note=56 velocity=62 time=0
note_on channel=0 note=61 velocity=62 time=0
control_change channel=0 control=64 value=127 time=34
control_change channel=0 control=64 value=127 time=0
note_on channel=0 note=61 velocity=0 time=0
note_on channel=0 note=56 velocity=0 time=0
note_on channel=0 note=69 velocity=0 time=0
note_on channel=0 note=79 velocity=65 time=0
control_change channel=0 control=64 value=0 time=51
control_change channel=0 control=64 value=0 time=0
note_on channel=0 note=79 velocity=0 time=0
note_on channel=0 note=68 velocity=84 time=0
note_on channel=0 note=60 velocity=67 time=0
note_on channel=0 note=56 velocity=67 time=0
control_change channel=0 control=64 value=127 time=51
control_change channel=0 control=64 value=127 time=0
note_on channel=0 note=56 velocity=0 time=0
note_on channel=0 note=60 velocity=0 time=0
note_on channel=0 note=68 velocity=0 time=0
note_on channel=0 note=80 velocity=66 time=0
control_change channel=0 control=64 value=0 time=57
control_change channel=0 control=64 value=0 time=0
note_on channel=0 note=80 velocity=0 time=0
note_on channel=0 note=69 velocity=79 time=0
note_on channel=0 note=61 velocity=61 time=0
note_on channel=0 note=56 velocity=61 time=0
control_change channel=0 control=64 value=127 time=51
control_change channel=0 control=64 value=127 time=0
note_on channel=0 note=56 velocity=0 time=0
note_on channel=0 note=61 velocity=0 time=0
note_on channel=0 note=69 velocity=0 time=0
note_on channel=0 note=79 velocity=65 time=0
control_change channel=0 control=64 value=0 time=29
control_change channel=0 control=64 value=0 time=0
note_on channel=0 note=79 velocity=0 time=0
note_on channel=0 note=80 velocity=84 time=0
note_on channel=0 note=68 velocity=84 time=0
note_on channel=0 note=60 velocity=71 time=0
note_on channel=0 note=56 velocity=71 time=0
control_change channel=0 control=64 value=127 time=23
control_change channel=0 control=64 value=127 time=0
note_on channel=0 note=56 velocity=0 time=217
note_on channel=0 note=80 velocity=0 time=0
note_on channel=0 note=68 velocity=0 time=0
note_on channel=0 note=60 velocity=0 time=0
control_change channel=0 control=64 value=0 time=46
control_change channel=0 control=64 value=0 time=0
note_on channel=0 note=56 velocity=113 time=194
note_on channel=0 note=32 velocity=77 time=0
note_on channel=0 note=44 velocity=90 time=0
control_change channel=0 control=64 value=127 time=195
control_change channel=0 control=64 value=127 time=0
note_on channel=0 note=44 velocity=0 time=0
note_on channel=0 note=32 velocity=0 time=0
note_on channel=0 note=56 velocity=0 time=0
note_on channel=0 note=49 velocity=39 time=0
control_change channel=0 control=64 value=0 time=0
control_change channel=0 control=64 value=0 time=0
note_on channel=0 note=56 velocity=29 time=120
note_on channel=0 note=49 velocity=0 time=20
note_on channel=0 note=52 velocity=34 time=100
note_on channel=0 note=56 velocity=0 time=20
note_on channel=0 note=56 velocity=29 time=100
note_on channel=0 note=52 velocity=0 time=20
note_on channel=0 note=68 velocity=56 time=100
note_on channel=0 note=49 velocity=39 time=0
note_on channel=0 note=56 velocity=0 time=12
control_change channel=0 control=64 value=127 time=21
note_on channel=0 note=49 velocity=0 time=78
note_on channel=0 note=56 velocity=29 time=1
note_on channel=0 note=56 velocity=0 time=119
note_on channel=0 note=52 velocity=34 time=1
note_on channel=0 note=52 velocity=0 time=119
note_on channel=0 note=56 velocity=30 time=1
note_on channel=0 note=56 velocity=0 time=119
note_on channel=0 note=49 velocity=39 time=1
note_on channel=0 note=49 velocity=0 time=119
note_on channel=0 note=56 velocity=30 time=1
note_on channel=0 note=56 velocity=0 time=119
note_on channel=0 note=52 velocity=34 time=0
note_on channel=0 note=52 velocity=0 time=119
note_on channel=0 note=56 velocity=30 time=1
note_on channel=0 note=56 velocity=0 time=119
note_on channel=0 note=64 velocity=47 time=0
note_on channel=0 note=49 velocity=39 time=0
note_on channel=0 note=68 velocity=0 time=20
note_on channel=0 note=49 velocity=0 time=99
note_on channel=0 note=56 velocity=30 time=1
note_on channel=0 note=56 velocity=0 time=119
note_on channel=0 note=52 velocity=34 time=1
note_on channel=0 note=52 velocity=0 time=119
note_on channel=0 note=61 velocity=47 time=0
note_on channel=0 note=56 velocity=30 time=0
note_on channel=0 note=64 velocity=0 time=20
note_on channel=0 note=61 velocity=0 time=40
note_on channel=0 note=60 velocity=37 time=0
note_on channel=0 note=60 velocity=0 time=20
note_on channel=0 note=61 velocity=37 time=0
note_on channel=0 note=61 velocity=0 time=20
note_on channel=0 note=63 velocity=37 time=0
note_on channel=0 note=56 velocity=0 time=19
note_on channel=0 note=63 velocity=0 time=0
note_on channel=0 note=61 velocity=53 time=0
note_on channel=0 note=51 velocity=39 time=0
control_change channel=0 control=64 value=0 time=10
note_on channel=0 note=56 velocity=30 time=110
note_on channel=0 note=51 velocity=0 time=20
note_on channel=0 note=54 velocity=34 time=100
note_on channel=0 note=56 velocity=0 time=20
note_on channel=0 note=56 velocity=30 time=100
note_on channel=0 note=54 velocity=0 time=20
note_on channel=0 note=60 velocity=47 time=0
note_on channel=0 note=51 velocity=48 time=0
note_on channel=0 note=56 velocity=0 time=20
note_on channel=0 note=61 velocity=0 time=0
control_change channel=0 control=64 value=127 time=33
note_on channel=0 note=51 velocity=0 time=66
note_on channel=0 note=56 velocity=43 time=1
note_on channel=0 note=56 velocity=0 time=119
note_on channel=0 note=54 velocity=47 time=1
note_on channel=0 note=54 velocity=0 time=119
note_on channel=0 note=56 velocity=49 time=1
note_on channel=0 note=56 velocity=0 time=119
note_on channel=0 note=51 velocity=58 time=1
note_on channel=0 note=51 velocity=0 time=119
note_on channel=0 note=56 velocity=46 time=1
note_on channel=0 note=56 velocity=0 time=119
note_on channel=0 note=60 velocity=0 time=0
note_on channel=0 note=60 velocity=47 time=0
note_on channel=0 note=54 velocity=54 time=0
note_on channel=0 note=54 velocity=0 time=119
note_on channel=0 note=56 velocity=47 time=1
note_on channel=0 note=56 velocity=0 time=119
note_on channel=0 note=68 velocity=56 time=0
note_on channel=0 note=51 velocity=66 time=0
note_on channel=0 note=60 velocity=0 time=20
note_on channel=0 note=51 velocity=0 time=99
note_on channel=0 note=56 velocity=46 time=1
note_on channel=0 note=56 velocity=0 time=119
note_on channel=0 note=54 velocity=51 time=1
note_on channel=0 note=54 velocity=0 time=119
note_on channel=0 note=68 velocity=0 time=1
note_on channel=0 note=60 velocity=48 time=0
note_on channel=0 note=56 velocity=40 time=0
note_on channel=0 note=56 velocity=0 time=119
note_on channel=0 note=60 velocity=0 time=0
note_on channel=0 note=63 velocity=43 time=0
note_on channel=0 note=52 velocity=39 time=0
control_change channel=0 control=64 value=0 time=13
control_change channel=0 control=64 value=127 time=72
note_on channel=0 note=52 velocity=0 time=34
note_on channel=0 note=56 velocity=32 time=1
note_on channel=0 note=56 velocity=0 time=119
note_on channel=0 note=52 velocity=35 time=1
note_on channel=0 note=52 velocity=0 time=119
note_on channel=0 note=56 velocity=31 time=1
note_on channel=0 note=56 velocity=0 time=119
note_on channel=0 note=61 velocity=47 time=0
note_on channel=0 note=52 velocity=50 time=0
control_change channel=0 control=64 value=0 time=14
note_on channel=0 note=63 velocity=0 time=6
note_on channel=0 note=52 velocity=0 time=99
note_on channel=0 note=56 velocity=41 time=1
control_change channel=0 control=64 value=127 time=7
note_on channel=0 note=56 velocity=0 time=112
note_on channel=0 note=52 velocity=47 time=1
note_on channel=0 note=52 velocity=0 time=119
note_on channel=0 note=56 velocity=42 time=1
note_on channel=0 note=56 velocity=0 time=119
note_on channel=0 note=52 velocity=58 time=1
note_on channel=0 note=52 velocity=0 time=119
note_on channel=0 note=56 velocity=48 time=1
note_on channel=0 note=56 velocity=0 time=119
note_on channel=0 note=61 velocity=0 time=0
note_on channel=0 note=61 velocity=45 time=0
note_on channel=0 note=52 velocity=56 time=0
note_on channel=0 note=52 velocity=0 time=119
note_on channel=0 note=56 velocity=51 time=1
note_on channel=0 note=56 velocity=0 time=119
note_on channel=0 note=68 velocity=57 time=0
note_on channel=0 note=52 velocity=66 time=0
note_on channel=0 note=61 velocity=0 time=20
note_on channel=0 note=52 velocity=0 time=99
note_on channel=0 note=56 velocity=49 time=1
note_on channel=0 note=56 velocity=0 time=119
note_on channel=0 note=52 velocity=51 time=1
note_on channel=0 note=52 velocity=0 time=119
note_on channel=0 note=68 velocity=0 time=1
note_on channel=0 note=61 velocity=47 time=0
note_on channel=0 note=56 velocity=47 time=0
note_on channel=0 note=56 velocity=0 time=119
note_on channel=0 note=61 velocity=0 time=0
note_on channel=0 note=64 velocity=48 time=0
note_on channel=0 note=48 velocity=39 time=0
control_change channel=0 control=64 value=0 time=13
control_change channel=0 control=64 value=127 time=79
note_on channel=0 note=48 velocity=0 time=27
note_on channel=0 note=56 velocity=31 time=1
note_on channel=0 note=56 velocity=0 time=119
note_on channel=0 note=48 velocity=34 time=1
note_on channel=0 note=48 velocity=0 time=119
note_on channel=0 note=56 velocity=32 time=1
note_on channel=0 note=56 velocity=0 time=119
note_on channel=0 note=63 velocity=47 time=0
note_on channel=0 note=48 velocity=50 time=0
control_change channel=0 control=64 value=0 time=19
note_on channel=0 note=64 velocity=0 time=1
control_change channel=0 control=64 value=127 time=83
note_on channel=0 note=48 velocity=0 time=16
note_on channel=0 note=56 velocity=43 time=1
note_on channel=0 note=56 velocity=0 time=119
note_on channel=0 note=48 velocity=49 time=1
note_on channel=0 note=48 velocity=0 time=119
note_on channel=0 note=56 velocity=44 time=1
note_on channel=0 note=56 velocity=0 time=119
note_on channel=0 note=48 velocity=58 time=1
note_on channel=0 note=48 velocity=0 time=119
note_on channel=0 note=56 velocity=51 time=1
note_on channel=0 note=56 velocity=0 time=119
note_on channel=0 note=63 velocity=0 time=0
note_on channel=0 note=63 velocity=48 time=0
note_on channel=0 note=48 velocity=59 time=0
note_on channel=0 note=48 velocity=0 time=119
note_on channel=0 note=56 velocity=54 time=1
note_on channel=0 note=56 velocity=0 time=119
note_on channel=0 note=68 velocity=54 time=1
note_on channel=0 note=48 velocity=66 time=0
note_on channel=0 note=63 velocity=0 time=20
note_on channel=0 note=48 velocity=0 time=99
note_on channel=0 note=56 velocity=48 time=1
note_on channel=0 note=56 velocity=0 time=119
note_on channel=0 note=48 velocity=51 time=1
note_on channel=0 note=48 velocity=0 time=119
note_on channel=0 note=63 velocity=48 time=1
note_on channel=0 note=56 velocity=39 time=0
note_on channel=0 note=68 velocity=0 time=20
note_on channel=0 note=56 velocity=0 time=99
note_on channel=0 note=63 velocity=0 time=0
note_on channel=0 note=64 velocity=51 time=0
note_on channel=0 note=49 velocity=39 time=0
control_change channel=0 control=64 value=0 time=9
note_on channel=0 note=64 velocity=0 time=111
note_on channel=0 note=56 velocity=32 time=0
note_on channel=0 note=49 velocity=0 time=20
note_on channel=0 note=80 velocity=58 time=100
note_on channel=0 note=68 velocity=48 time=0
note_on channel=0 note=52 velocity=35 time=0
note_on channel=0 note=56 velocity=0 time=20
control_change channel=0 control=64 value=127 time=93
note_on channel=0 note=52 velocity=0 time=6
note_on channel=0 note=56 velocity=31 time=1
note_on channel=0 note=56 velocity=0 time=119
note_on channel=0 note=49 velocity=40 time=1
note_on channel=0 note=49 velocity=0 time=119
note_on channel=0 note=56 velocity=31 time=1
note_on channel=0 note=56 velocity=0 time=119
note_on channel=0 note=68 velocity=0 time=1
note_on channel=0 note=80 velocity=0 time=0
note_on channel=0 note=68 velocity=45 time=0
note_on channel=0 note=80 velocity=53 time=0
note_on channel=0 note=52 velocity=34 time=0
note_on channel=0 note=52 velocity=0 time=119
note_on channel=0 note=56 velocity=31 time=1
note_on channel=0 note=56 velocity=0 time=119
note_on channel=0 note=49 velocity=41 time=1
note_on channel=0 note=49 velocity=0 time=119
note_on channel=0 note=56 velocity=31 time=1
note_on channel=0 note=56 velocity=0 time=119
note_on channel=0 note=80 velocity=0 time=0
note_on channel=0 note=68 velocity=0 time=0
note_on channel=0 note=80 velocity=56 time=0
note_on channel=0 note=68 velocity=47 time=0
note_on channel=0 note=52 velocity=35 time=0
note_on channel=0 note=52 velocity=0 time=119
note_on channel=0 note=68 velocity=0 time=1
note_on channel=0 note=80 velocity=0 time=0
note_on channel=0 note=56 velocity=31 time=0
note_on channel=0 note=56 velocity=0 time=119
note_on channel=0 note=64 velocity=49 time=1
note_on channel=0 note=76 velocity=58 time=0
note_on channel=0 note=49 velocity=43 time=0
control_change channel=0 control=64 value=0 time=18
note_on channel=0 note=76 velocity=0 time=102
note_on channel=0 note=64 velocity=0 time=0
note_on channel=0 note=56 velocity=34 time=0
note_on channel=0 note=49 velocity=0 time=20
note_on channel=0 note=73 velocity=56 time=100
note_on channel=0 note=61 velocity=47 time=0
note_on channel=0 note=52 velocity=37 time=0
note_on channel=0 note=56 velocity=0 time=20
note_on channel=0 note=73 velocity=0 time=100
note_on channel=0 note=61 velocity=0 time=0
note_on channel=0 note=56 velocity=33 time=0
note_on channel=0 note=52 velocity=0 time=20
note_on channel=0 note=61 velocity=51 time=100
note_on channel=0 note=73 velocity=61 time=0
note_on channel=0 note=51 velocity=46 time=0
note_on channel=0 note=56 velocity=0 time=20
note_on channel=0 note=61 velocity=0 time=100
note_on channel=0 note=73 velocity=0 time=0
note_on channel=0 note=56 velocity=33 time=0
note_on channel=0 note=51 velocity=0 time=20
note_on channel=0 note=60 velocity=52 time=0
note_on channel=0 note=72 velocity=62 time=0
note_on channel=0 note=54 velocity=39 time=0
control_change channel=0 control=64 value=127 time=14
note_on channel=0 note=56 velocity=0 time=6
note_on channel=0 note=54 velocity=0 time=99
note_on channel=0 note=56 velocity=33 time=1
note_on channel=0 note=56 velocity=0 time=119
note_on channel=0 note=51 velocity=47 time=1
note_on channel=0 note=51 velocity=0 time=119
note_on channel=0 note=56 velocity=35 time=1
note_on channel=0 note=56 velocity=0 time=119
note_on channel=0 note=72 velocity=0 time=1
note_on channel=0 note=60 velocity=0 time=0
note_on channel=0 note=72 velocity=68 time=0
note_on channel=0 note=60 velocity=57 time=0
note_on channel=0 note=54 velocity=40 time=0
note_on channel=0 note=54 velocity=0 time=119
note_on channel=0 note=56 velocity=34 time=1
note_on channel=0 note=56 velocity=0 time=119
note_on channel=0 note=51 velocity=49 time=1
note_on channel=0 note=51 velocity=0 time=119
note_on channel=0 note=56 velocity=35 time=1
note_on channel=0 note=56 velocity=0 time=119
note_on channel=0 note=60 velocity=0 time=0
note_on channel=0 note=72 velocity=0 time=0
note_on channel=0 note=60 velocity=58 time=0
note_on channel=0 note=72 velocity=69 time=0
note_on channel=0 note=54 velocity=41 time=0
note_on channel=0 note=54 velocity=0 time=119
note_on channel=0 note=72 velocity=0 time=1
note_on channel=0 note=60 velocity=0 time=0
note_on channel=0 note=56 velocity=35 time=0
note_on channel=0 note=56 velocity=0 time=119
note_on channel=0 note=80 velocity=71 time=1
note_on channel=0 note=68 velocity=60 time=0
note_on channel=0 note=51 velocity=50 time=0
control_change channel=0 control=64 value=0 time=11
note_on channel=0 note=68 velocity=0 time=109
note_on channel=0 note=80 velocity=0 time=0
note_on channel=0 note=56 velocity=40 time=0
note_on channel=0 note=51 velocity=0 time=20
note_on channel=0 note=72 velocity=69 time=100
note_on channel=0 note=60 velocity=58 time=0
note_on channel=0 note=54 velocity=45 time=0
note_on channel=0 note=56 velocity=0 time=20
note_on channel=0 note=72 velocity=0 time=100
note_on channel=0 note=60 velocity=0 time=0
note_on channel=0 note=56 velocity=42 time=0
note_on channel=0 note=54 velocity=0 time=20
note_on channel=0 note=75 velocity=74 time=100
note_on channel=0 note=63 velocity=62 time=0
note_on channel=0 note=52 velocity=51 time=0
note_on channel=0 note=56 velocity=0 time=20
note_on channel=0 note=75 velocity=0 time=100
note_on channel=0 note=63 velocity=0 time=0
note_on channel=0 note=56 velocity=43 time=0
note_on channel=0 note=52 velocity=0 time=20
note_on channel=0 note=61 velocity=63 time=0
note_on channel=0 note=73 velocity=75 time=0
note_on channel=0 note=52 velocity=47 time=0
note_on channel=0 note=56 velocity=0 time=20
control_change channel=0 control=64 value=127 time=37
note_on channel=0 note=52 velocity=0 time=62
note_on channel=0 note=56 velocity=43 time=1
note_on channel=0 note=56 velocity=0 time=119
note_on channel=0 note=52 velocity=52 time=1
note_on channel=0 note=52 velocity=0 time=119
note_on channel=0 note=56 velocity=43 time=1
note_on channel=0 note=56 velocity=0 time=119
note_on channel=0 note=73 velocity=0 time=1
note_on channel=0 note=61 velocity=0 time=0
note_on channel=0 note=61 velocity=68 time=0
note_on channel=0 note=73 velocity=80 time=0
note_on channel=0 note=52 velocity=48 time=0
note_on channel=0 note=52 velocity=0 time=119
note_on channel=0 note=56 velocity=44 time=1
note_on channel=0 note=56 velocity=0 time=119
note_on channel=0 note=52 velocity=56 time=1
note_on channel=0 note=52 velocity=0 time=119
note_on channel=0 note=56 velocity=46 time=1
note_on channel=0 note=56 velocity=0 time=119
note_on channel=0 note=73 velocity=0 time=0
note_on channel=0 note=61 velocity=0 time=0
note_on channel=0 note=73 velocity=75 time=0
note_on channel=0 note=61 velocity=63 time=0
note_on channel=0 note=52 velocity=50 time=0
note_on channel=0 note=52 velocity=0 time=119
note_on channel=0 note=61 velocity=0 time=1
note_on channel=0 note=73 velocity=0 time=0
note_on channel=0 note=56 velocity=47 time=0
note_on channel=0 note=56 velocity=0 time=119
note_on channel=0 note=80 velocity=85 time=1
note_on channel=0 note=68 velocity=72 time=0
note_on channel=0 note=52 velocity=57 time=0
control_change channel=0 control=64 value=0 time=12
note_on channel=0 note=68 velocity=0 time=108
note_on channel=0 note=80 velocity=0 time=0
note_on channel=0 note=56 velocity=49 time=0
note_on channel=0 note=52 velocity=0 time=20
note_on channel=0 note=73 velocity=86 time=100
note_on channel=0 note=61 velocity=73 time=0
note_on channel=0 note=52 velocity=51 time=0
note_on channel=0 note=56 velocity=0 time=20
note_on channel=0 note=73 velocity=0 time=100
note_on channel=0 note=61 velocity=0 time=0
note_on channel=0 note=56 velocity=48 time=0
note_on channel=0 note=52 velocity=0 time=20
note_on channel=0 note=64 velocity=73 time=100
note_on channel=0 note=76 velocity=86 time=0
note_on channel=0 note=48 velocity=59 time=0
note_on channel=0 note=56 velocity=0 time=20
note_on channel=0 note=64 velocity=0 time=100
note_on channel=0 note=76 velocity=0 time=0
note_on channel=0 note=56 velocity=53 time=0
note_on channel=0 note=48 velocity=0 time=20
note_on channel=0 note=63 velocity=72 time=0
note_on channel=0 note=75 velocity=85 time=0
note_on channel=0 note=48 velocity=56 time=0
note_on channel=0 note=56 velocity=0 time=20
control_change channel=0 control=64 value=127 time=37
note_on channel=0 note=48 velocity=0 time=62
note_on channel=0 note=56 velocity=52 time=1
note_on channel=0 note=56 velocity=0 time=119
note_on channel=0 note=48 velocity=60 time=1
note_on channel=0 note=48 velocity=0 time=119
note_on channel=0 note=56 velocity=52 time=1
note_on channel=0 note=56 velocity=0 time=119
note_on channel=0 note=75 velocity=0 time=1
note_on channel=0 note=63 velocity=0 time=0
note_on channel=0 note=75 velocity=93 time=0
note_on channel=0 note=63 velocity=79 time=0
note_on channel=0 note=48 velocity=57 time=0
note_on channel=0 note=48 velocity=0 time=119
note_on channel=0 note=56 velocity=52 time=1
note_on channel=0 note=56 velocity=0 time=119
note_on channel=0 note=48 velocity=62 time=1
note_on channel=0 note=48 velocity=0 time=119
note_on channel=0 note=56 velocity=52 time=1
note_on channel=0 note=56 velocity=0 time=119
note_on channel=0 note=63 velocity=0 time=0
note_on channel=0 note=75 velocity=0 time=0
note_on channel=0 note=63 velocity=75 time=0
note_on channel=0 note=75 velocity=90 time=0
note_on channel=0 note=48 velocity=59 time=0
note_on channel=0 note=48 velocity=0 time=119
note_on channel=0 note=75 velocity=0 time=1
note_on channel=0 note=63 velocity=0 time=0
note_on channel=0 note=56 velocity=53 time=0
note_on channel=0 note=56 velocity=0 time=119
note_on channel=0 note=68 velocity=79 time=1
note_on channel=0 note=80 velocity=93 time=0
note_on channel=0 note=48 velocity=62 time=0
control_change channel=0 control=64 value=0 time=13
note_on channel=0 note=80 velocity=0 time=107
note_on channel=0 note=68 velocity=0 time=0
note_on channel=0 note=56 velocity=53 time=0
note_on channel=0 note=48 velocity=0 time=20
note_on channel=0 note=75 velocity=90 time=100
note_on channel=0 note=63 velocity=75 time=0
note_on channel=0 note=48 velocity=60 time=0
note_on channel=0 note=56 velocity=0 time=20
note_on channel=0 note=75 velocity=0 time=100
note_on channel=0 note=63 velocity=0 time=0
note_on channel=0 note=56 velocity=54 time=0
note_on channel=0 note=48 velocity=0 time=20
note_on channel=0 note=65 velocity=80 time=0
note_on channel=0 note=77 velocity=95 time=0
note_on channel=0 note=47 velocity=66 time=0
note_on channel=0 note=56 velocity=0 time=20
note_on channel=0 note=56 velocity=56 time=100
note_on channel=0 note=47 velocity=0 time=20
note_on channel=0 note=49 velocity=61 time=100
note_on channel=0 note=56 velocity=0 time=20
note_on channel=0 note=56 velocity=56 time=100
note_on channel=0 note=49 velocity=0 time=20
note_on channel=0 note=47 velocity=66 time=100
note_on channel=0 note=56 velocity=0 time=20
note_on channel=0 note=56 velocity=56 time=100
note_on channel=0 note=47 velocity=0 time=20
note_on channel=0 note=49 velocity=61 time=100
note_on channel=0 note=56 velocity=0 time=20
note_on channel=0 note=56 velocity=56 time=100
note_on channel=0 note=49 velocity=0 time=20
note_on channel=0 note=65 velocity=0 time=100
note_on channel=0 note=77 velocity=0 time=0
note_on channel=0 note=66 velocity=80 time=0
note_on channel=0 note=78 velocity=95 time=0
note_on channel=0 note=45 velocity=66 time=0
note_on channel=0 note=56 velocity=0 time=20
note_on channel=0 note=54 velocity=56 time=100
note_on channel=0 note=45 velocity=0 time=20
note_on channel=0 note=49 velocity=62 time=100
note_on channel=0 note=54 velocity=0 time=20
note_on channel=0 note=54 velocity=57 time=100
note_on channel=0 note=49 velocity=0 time=20
note_on channel=0 note=45 velocity=66 time=100
note_on channel=0 note=54 velocity=0 time=20
note_on channel=0 note=54 velocity=56 time=100
note_on channel=0 note=45 velocity=0 time=20
note_on channel=0 note=49 velocity=61 time=100
note_on channel=0 note=54 velocity=0 time=20
note_on channel=0 note=54 velocity=56 time=100
note_on channel=0 note=49 velocity=0 time=20
note_on channel=0 note=66 velocity=0 time=0
note_on channel=0 note=78 velocity=0 time=0
note_on channel=0 note=63 velocity=67 time=0
note_on channel=0 note=75 velocity=80 time=0
note_on channel=0 note=45 velocity=66 time=0
note_on channel=0 note=54 velocity=0 time=20
control_change channel=0 control=64 value=127 time=30
note_on channel=0 note=75 velocity=0 time=15
note_on channel=0 note=76 velocity=75 time=0
note_on channel=0 note=45 velocity=0 time=54
note_on channel=0 note=54 velocity=56 time=1
note_on channel=0 note=75 velocity=80 time=9
note_on channel=0 note=76 velocity=0 time=1
note_on channel=0 note=75 velocity=0 time=64
note_on channel=0 note=76 velocity=80 time=0
note_on channel=0 note=54 velocity=0 time=45
note_on channel=0 note=47 velocity=61 time=1
note_on channel=0 note=76 velocity=0 time=19
note_on channel=0 note=75 velocity=80 time=16
note_on channel=0 note=73 velocity=75 time=72
note_on channel=0 note=75 velocity=0 time=6
note_on channel=0 note=47 velocity=0 time=6
note_on channel=0 note=54 velocity=56 time=1
note_on channel=0 note=75 velocity=75 time=53
note_on channel=0 note=73 velocity=0 time=12
note_on channel=0 note=54 velocity=0 time=54
note_on channel=0 note=63 velocity=0 time=0
note_on channel=0 note=75 velocity=0 time=0
note_on channel=0 note=76 velocity=95 time=0
note_on channel=0 note=64 velocity=80 time=0
note_on channel=0 note=44 velocity=66 time=0
control_change channel=0 control=64 value=0 time=19
note_on channel=0 note=52 velocity=56 time=101
note_on channel=0 note=44 velocity=0 time=20
note_on channel=0 note=47 velocity=62 time=100
note_on channel=0 note=52 velocity=0 time=20
note_on channel=0 note=52 velocity=56 time=100
note_on channel=0 note=47 velocity=0 time=20
note_on channel=0 note=44 velocity=66 time=100
note_on channel=0 note=52 velocity=0 time=20
note_on channel=0 note=52 velocity=56 time=100
note_on channel=0 note=44 velocity=0 time=20
note_on channel=0 note=47 velocity=61 time=100
note_on channel=0 note=52 velocity=0 time=20
note_on channel=0 note=52 velocity=56 time=100
note_on channel=0 note=47 velocity=0 time=20
note_on channel=0 note=44 velocity=66 time=100
note_on channel=0 note=52 velocity=0 time=20
note_on channel=0 note=52 velocity=54 time=100
note_on channel=0 note=44 velocity=0 time=20
note_on channel=0 note=47 velocity=60 time=100
note_on channel=0 note=52 velocity=0 time=20
note_on channel=0 note=52 velocity=56 time=100
note_on channel=0 note=47 velocity=0 time=20
note_on channel=0 note=76 velocity=0 time=0
note_on channel=0 note=64 velocity=0 time=0
note_on channel=0 note=73 velocity=95 time=0
note_on channel=0 note=61 velocity=80 time=0
note_on channel=0 note=43 velocity=66 time=0
note_on channel=0 note=52 velocity=0 time=20
note_on channel=0 note=52 velocity=58 time=100
note_on channel=0 note=43 velocity=0 time=20
note_on channel=0 note=45 velocity=62 time=100
note_on channel=0 note=52 velocity=0 time=20
note_on channel=0 note=52 velocity=58 time=100
note_on channel=0 note=45 velocity=0 time=20
note_on channel=0 note=43 velocity=66 time=100
note_on channel=0 note=52 velocity=0 time=20
note_on channel=0 note=52 velocity=57 time=100
note_on channel=0 note=43 velocity=0 time=20
note_on channel=0 note=45 velocity=62 time=100
note_on channel=0 note=52 velocity=0 time=20
note_on channel=0 note=52 velocity=58 time=100
note_on channel=0 note=45 velocity=0 time=20
note_on channel=0 note=73 velocity=0 time=0
note_on channel=0 note=61 velocity=0 time=0
note_on channel=0 note=62 velocity=80 time=0
note_on channel=0 note=74 velocity=94 time=0
note_on channel=0 note=42 velocity=66 time=0
note_on channel=0 note=52 velocity=0 time=20
note_on channel=0 note=50 velocity=54 time=100
note_on channel=0 note=42 velocity=0 time=20
note_on channel=0 note=45 velocity=62 time=100
note_on channel=0 note=50 velocity=0 time=20
note_on channel=0 note=50 velocity=56 time=100
note_on channel=0 note=45 velocity=0 time=20
note_on channel=0 note=42 velocity=66 time=100
note_on channel=0 note=50 velocity=0 time=20
note_on channel=0 note=50 velocity=54 time=100
note_on channel=0 note=42 velocity=0 time=20
note_on channel=0 note=45 velocity=62 time=100
note_on channel=0 note=50 velocity=0 time=20
note_on channel=0 note=50 velocity=54 time=100
note_on channel=0 note=45 velocity=0 time=20
note_on channel=0 note=62 velocity=0 time=0
note_on channel=0 note=74 velocity=0 time=0
note_on channel=0 note=60 velocity=67 time=0
note_on channel=0 note=72 velocity=80 time=0
note_on channel=0 note=42 velocity=66 time=0
note_on channel=0 note=50 velocity=0 time=20
control_change channel=0 control=64 value=127 time=17
note_on channel=0 note=72 velocity=0 time=28
note_on channel=0 note=73 velocity=75 time=0
note_on channel=0 note=42 velocity=0 time=54
note_on channel=0 note=51 velocity=56 time=1
note_on channel=0 note=72 velocity=80 time=9
note_on channel=0 note=73 velocity=0 time=1
note_on channel=0 note=72 velocity=0 time=64
note_on channel=0 note=73 velocity=80 time=0
note_on channel=0 note=51 velocity=0 time=45
note_on channel=0 note=44 velocity=60 time=1
note_on channel=0 note=73 velocity=0 time=19
note_on channel=0 note=72 velocity=80 time=16
note_on channel=0 note=70 velocity=75 time=72
note_on channel=0 note=72 velocity=0 time=6
note_on channel=0 note=44 velocity=0 time=6
note_on channel=0 note=51 velocity=60 time=1
note_on channel=0 note=72 velocity=75 time=53
note_on channel=0 note=70 velocity=0 time=12
note_on channel=0 note=51 velocity=0 time=54
note_on channel=0 note=60 velocity=0 time=0
note_on channel=0 note=72 velocity=0 time=0
note_on channel=0 note=61 velocity=80 time=0
note_on channel=0 note=73 velocity=95 time=0
note_on channel=0 note=40 velocity=66 time=0
control_change channel=0 control=64 value=0 time=23
note_on channel=0 note=49 velocity=56 time=97
note_on channel=0 note=40 velocity=0 time=20
note_on channel=0 note=44 velocity=61 time=100
note_on channel=0 note=49 velocity=0 time=20
note_on channel=0 note=49 velocity=57 time=100
note_on channel=0 note=44 velocity=0 time=20
note_on channel=0 note=40 velocity=66 time=100
note_on channel=0 note=49 velocity=0 time=20
note_on channel=0 note=49 velocity=56 time=100
note_on channel=0 note=40 velocity=0 time=20
note_on channel=0 note=44 velocity=61 time=100
note_on channel=0 note=49 velocity=0 time=20
note_on channel=0 note=49 velocity=56 time=100
note_on channel=0 note=44 velocity=0 time=20
note_on channel=0 note=40 velocity=66 time=100
note_on channel=0 note=49 velocity=0 time=20
note_on channel=0 note=49 velocity=56 time=100
note_on channel=0 note=40 velocity=0 time=20
note_on channel=0 note=44 velocity=61 time=100
note_on channel=0 note=49 velocity=0 time=20
note_on channel=0 note=49 velocity=61 time=100
note_on channel=0 note=44 velocity=0 time=20
note_on channel=0 note=61 velocity=0 time=100
note_on channel=0 note=73 velocity=0 time=0
note_on channel=0 note=66 velocity=83 time=0
note_on channel=0 note=69 velocity=100 time=0
note_on channel=0 note=74 velocity=100 time=0
note_on channel=0 note=62 velocity=83 time=0
note_on channel=0 note=45 velocity=64 time=0
note_on channel=0 note=54 velocity=75 time=0
note_on channel=0 note=50 velocity=75 time=0
note_on channel=0 note=42 velocity=64 time=0
note_on channel=0 note=49 velocity=0 time=20
note_on channel=0 note=62 velocity=0 time=1060
note_on channel=0 note=66 velocity=0 time=0
note_on channel=0 note=74 velocity=0 time=0
note_on channel=0 note=69 velocity=0 time=0
note_on channel=0 note=69 velocity=48 time=0
note_on channel=0 note=69 velocity=0 time=120
note_on channel=0 note=71 velocity=48 time=0
note_on channel=0 note=71 velocity=0 time=120
note_on channel=0 note=73 velocity=49 time=0
note_on channel=0 note=73 velocity=0 time=120
note_on channel=0 note=54 velocity=0 time=0
note_on channel=0 note=42 velocity=0 time=0
note_on channel=0 note=45 velocity=0 time=0
note_on channel=0 note=50 velocity=0 time=0
note_on channel=0 note=74 velocity=50 time=0
note_on channel=0 note=74 velocity=0 time=120
note_on channel=0 note=76 velocity=51 time=0
note_on channel=0 note=76 velocity=0 time=120
note_on channel=0 note=78 velocity=51 time=0
note_on channel=0 note=78 velocity=0 time=120
note_on channel=0 note=76 velocity=49 time=0
note_on channel=0 note=76 velocity=0 time=120
note_on channel=0 note=74 velocity=49 time=0
note_on channel=0 note=54 velocity=42 time=0
note_on channel=0 note=62 velocity=50 time=0
note_on channel=0 note=57 velocity=42 time=0
note_on channel=0 note=74 velocity=0 time=120
note_on channel=0 note=69 velocity=47 time=0
note_on channel=0 note=69 velocity=0 time=120
note_on channel=0 note=71 velocity=48 time=0
note_on channel=0 note=71 velocity=0 time=120
note_on channel=0 note=73 velocity=49 time=0
note_on channel=0 note=62 velocity=0 time=116
note_on channel=0 note=57 velocity=0 time=4
note_on channel=0 note=54 velocity=0 time=0
note_on channel=0 note=73 velocity=0 time=0
note_on channel=0 note=74 velocity=50 time=0
note_on channel=0 note=74 velocity=0 time=120
note_on channel=0 note=76 velocity=51 time=0
note_on channel=0 note=76 velocity=0 time=120
note_on channel=0 note=78 velocity=51 time=0
note_on channel=0 note=78 velocity=0 time=120
note_on channel=0 note=76 velocity=50 time=0
note_on channel=0 note=76 velocity=0 time=120
note_on channel=0 note=74 velocity=48 time=0
note_on channel=0 note=57 velocity=41 time=0
note_on channel=0 note=62 velocity=49 time=0
note_on channel=0 note=54 velocity=41 time=0
note_on channel=0 note=74 velocity=0 time=120
note_on channel=0 note=69 velocity=48 time=0
note_on channel=0 note=69 velocity=0 time=120
note_on channel=0 note=71 velocity=50 time=0
note_on channel=0 note=71 velocity=0 time=120
note_on channel=0 note=73 velocity=51 time=0
note_on channel=0 note=73 velocity=0 time=120
note_on channel=0 note=54 velocity=0 time=0
note_on channel=0 note=62 velocity=0 time=0
note_on channel=0 note=57 velocity=0 time=0
note_on channel=0 note=74 velocity=51 time=0
note_on channel=0 note=74 velocity=0 time=120
note_on channel=0 note=76 velocity=52 time=0
note_on channel=0 note=76 velocity=0 time=120
note_on channel=0 note=78 velocity=52 time=0
note_on channel=0 note=78 velocity=0 time=120
note_on channel=0 note=76 velocity=51 time=0
note_on channel=0 note=76 velocity=0 time=120
note_on channel=0 note=74 velocity=47 time=0
note_on channel=0 note=54 velocity=41 time=0
note_on channel=0 note=57 velocity=41 time=0
note_on channel=0 note=62 velocity=49 time=0
note_on channel=0 note=74 velocity=0 time=120
note_on channel=0 note=69 velocity=48 time=0
note_on channel=0 note=69 velocity=0 time=120
note_on channel=0 note=71 velocity=51 time=0
note_on channel=0 note=71 velocity=0 time=120
note_on channel=0 note=73 velocity=51 time=0
note_on channel=0 note=73 velocity=0 time=120
note_on channel=0 note=62 velocity=0 time=0
note_on channel=0 note=57 velocity=0 time=0
note_on channel=0 note=54 velocity=0 time=0
note_on channel=0 note=74 velocity=54 time=0
note_on channel=0 note=62 velocity=52 time=0
note_on channel=0 note=57 velocity=44 time=0
note_on channel=0 note=54 velocity=44 time=0
note_on channel=0 note=74 velocity=0 time=120
note_on channel=0 note=76 velocity=56 time=0
note_on channel=0 note=76 velocity=0 time=120
note_on channel=0 note=78 velocity=57 time=0
note_on channel=0 note=78 velocity=0 time=120
note_on channel=0 note=79 velocity=60 time=0
note_on channel=0 note=79 velocity=0 time=120
note_on channel=0 note=54 velocity=0 time=0
note_on channel=0 note=57 velocity=0 time=0
note_on channel=0 note=62 velocity=0 time=0
note_on channel=0 note=81 velocity=61 time=0
note_on channel=0 note=54 velocity=51 time=0
note_on channel=0 note=62 velocity=60 time=0
note_on channel=0 note=57 velocity=51 time=0
note_on channel=0 note=81 velocity=0 time=120
note_on channel=0 note=80 velocity=59 time=0
note_on channel=0 note=80 velocity=0 time=120
note_on channel=0 note=83 velocity=57 time=0
note_on channel=0 note=83 velocity=0 time=120
note_on channel=0 note=81 velocity=56 time=0
note_on channel=0 note=81 velocity=0 time=120
note_on channel=0 note=57 velocity=0 time=0
note_on channel=0 note=62 velocity=0 time=0
note_on channel=0 note=54 velocity=0 time=0
note_on channel=0 note=79 velocity=54 time=0
note_on channel=0 note=54 velocity=47 time=0
note_on channel=0 note=62 velocity=56 time=0
note_on channel=0 note=57 velocity=47 time=0
note_on channel=0 note=79 velocity=0 time=120
note_on channel=0 note=78 velocity=52 time=0
note_on channel=0 note=78 velocity=0 time=120
note_on channel=0 note=76 velocity=51 time=0
note_on channel=0 note=76 velocity=0 time=120
note_on channel=0 note=74 velocity=50 time=0
note_on channel=0 note=74 velocity=0 time=120
note_on channel=0 note=57 velocity=0 time=0
note_on channel=0 note=62 velocity=0 time=0
note_on channel=0 note=54 velocity=0 time=0
note_on channel=0 note=73 velocity=48 time=0
note_on channel=0 note=56 velocity=49 time=0
note_on channel=0 note=64 velocity=44 time=120
note_on channel=0 note=56 velocity=0 time=20
note_on channel=0 note=61 velocity=47 time=100
note_on channel=0 note=64 velocity=0 time=20
note_on channel=0 note=64 velocity=43 time=100
note_on channel=0 note=61 velocity=0 time=20
note_on channel=0 note=56 velocity=51 time=100
note_on channel=0 note=64 velocity=0 time=20
note_on channel=0 note=64 velocity=43 time=100
note_on channel=0 note=56 velocity=0 time=20
note_on channel=0 note=61 velocity=47 time=100
note_on channel=0 note=64 velocity=0 time=20
note_on channel=0 note=64 velocity=42 time=100
note_on channel=0 note=61 velocity=0 time=20
note_on channel=0 note=73 velocity=0 time=0
note_on channel=0 note=75 velocity=50 time=0
note_on channel=0 note=56 velocity=51 time=0
note_on channel=0 note=64 velocity=0 time=20
control_change channel=0 control=64 value=127 time=47
note_on channel=0 note=75 velocity=0 time=13
note_on channel=0 note=76 velocity=50 time=0
note_on channel=0 note=56 velocity=0 time=39
note_on channel=0 note=66 velocity=43 time=1
note_on channel=0 note=76 velocity=0 time=40
note_on channel=0 note=75 velocity=50 time=0
note_on channel=0 note=75 velocity=0 time=75
note_on channel=0 note=76 velocity=50 time=0
note_on channel=0 note=66 velocity=0 time=4
note_on channel=0 note=60 velocity=47 time=1
note_on channel=0 note=76 velocity=0 time=70
note_on channel=0 note=75 velocity=50 time=0
note_on channel=0 note=60 velocity=0 time=49
note_on channel=0 note=66 velocity=43 time=1
note_on channel=0 note=75 velocity=0 time=25
note_on channel=0 note=76 velocity=50 time=0
note_on channel=0 note=76 velocity=0 time=75
note_on channel=0 note=75 velocity=49 time=0
note_on channel=0 note=66 velocity=0 time=19
note_on channel=0 note=56 velocity=51 time=1
note_on channel=0 note=75 velocity=0 time=50
note_on channel=0 note=76 velocity=49 time=0
note_on channel=0 note=56 velocity=0 time=69
note_on channel=0 note=76 velocity=0 time=1
note_on channel=0 note=75 velocity=50 time=0
note_on channel=0 note=66 velocity=44 time=0
note_on channel=0 note=75 velocity=0 time=60
note_on channel=0 note=76 velocity=51 time=0
note_on channel=0 note=66 velocity=0 time=59
note_on channel=0 note=76 velocity=0 time=1
note_on channel=0 note=75 velocity=51 time=0
note_on channel=0 note=60 velocity=47 time=0
note_on channel=0 note=75 velocity=0 time=80
note_on channel=0 note=73 velocity=51 time=0
note_on channel=0 note=60 velocity=0 time=39
note_on channel=0 note=66 velocity=42 time=1
note_on channel=0 note=73 velocity=0 time=40
note_on channel=0 note=75 velocity=52 time=0
note_on channel=0 note=66 velocity=0 time=79
note_on channel=0 note=75 velocity=0 time=0
note_on channel=0 note=73 velocity=56 time=0
note_on channel=0 note=64 velocity=56 time=0
note_on channel=0 note=61 velocity=56 time=0
note_on channel=0 note=57 velocity=56 time=0
control_change channel=0 control=64 value=0 time=25
note_on channel=0 note=57 velocity=0 time=215
note_on channel=0 note=73 velocity=0 time=0
note_on channel=0 note=64 velocity=0 time=0
note_on channel=0 note=61 velocity=0 time=0
note_on channel=0 note=62 velocity=87 time=0
note_on channel=0 note=54 velocity=73 time=0
note_on channel=0 note=57 velocity=87 time=0
note_on channel=0 note=50 velocity=73 time=0
note_on channel=0 note=30 velocity=67 time=0
note_on channel=0 note=33 velocity=67 time=0
note_on channel=0 note=38 velocity=80 time=0
note_on channel=0 note=42 velocity=80 time=0
note_on channel=0 note=50 velocity=0 time=600
note_on channel=0 note=57 velocity=0 time=0
note_on channel=0 note=62 velocity=0 time=0
note_on channel=0 note=54 velocity=0 time=0
note_on channel=0 note=57 velocity=48 time=0
note_on channel=0 note=57 velocity=0 time=120
note_on channel=0 note=59 velocity=48 time=0
note_on channel=0 note=59 velocity=0 time=120
note_on channel=0 note=61 velocity=49 time=0
note_on channel=0 note=61 velocity=0 time=120
note_on channel=0 note=38 velocity=0 time=0
note_on channel=0 note=42 velocity=0 time=0
note_on channel=0 note=33 velocity=0 time=0
note_on channel=0 note=30 velocity=0 time=0
note_on channel=0 note=62 velocity=50 time=0
note_on channel=0 note=62 velocity=0 time=120
note_on channel=0 note=64 velocity=51 time=0
note_on channel=0 note=64 velocity=0 time=120
note_on channel=0 note=66 velocity=51 time=0
note_on channel=0 note=66 velocity=0 time=120
note_on channel=0 note=64 velocity=51 time=0
note_on channel=0 note=64 velocity=0 time=120
note_on channel=0 note=62 velocity=48 time=0
note_on channel=0 note=62 velocity=0 time=120
note_on channel=0 note=57 velocity=47 time=0
note_on channel=0 note=57 velocity=0 time=120
note_on channel=0 note=59 velocity=48 time=0
note_on channel=0 note=59 velocity=0 time=120
note_on channel=0 note=61 velocity=48 time=0
note_on channel=0 note=61 velocity=0 time=120
note_on channel=0 note=62 velocity=49 time=0
note_on channel=0 note=50 velocity=49 time=0
note_on channel=0 note=45 velocity=41 time=0
note_on channel=0 note=42 velocity=41 time=0
note_on channel=0 note=62 velocity=0 time=120
note_on channel=0 note=64 velocity=50 time=0
note_on channel=0 note=64 velocity=0 time=120
note_on channel=0 note=66 velocity=51 time=0
note_on channel=0 note=66 velocity=0 time=120
note_on channel=0 note=64 velocity=48 time=0
note_on channel=0 note=64 velocity=0 time=120
note_on channel=0 note=42 velocity=0 time=0
note_on channel=0 note=45 velocity=0 time=0
note_on channel=0 note=50 velocity=0 time=0
note_on channel=0 note=62 velocity=48 time=0
note_on channel=0 note=62 velocity=0 time=120
note_on channel=0 note=57 velocity=48 time=0
note_on channel=0 note=57 velocity=0 time=120
note_on channel=0 note=59 velocity=48 time=0
note_on channel=0 note=59 velocity=0 time=120
note_on channel=0 note=61 velocity=50 time=0
note_on channel=0 note=61 velocity=0 time=120
note_on channel=0 note=62 velocity=50 time=0
note_on channel=0 note=50 velocity=49 time=0
note_on channel=0 note=42 velocity=41 time=0
note_on channel=0 note=45 velocity=41 time=0
note_on channel=0 note=62 velocity=0 time=120
note_on channel=0 note=64 velocity=50 time=0
note_on channel=0 note=64 velocity=0 time=120
note_on channel=0 note=66 velocity=50 time=0
note_on channel=0 note=66 velocity=0 time=120
note_on channel=0 note=64 velocity=50 time=0
note_on channel=0 note=64 velocity=0 time=120
note_on channel=0 note=45 velocity=0 time=0
note_on channel=0 note=42 velocity=0 time=0
note_on channel=0 note=50 velocity=0 time=0
note_on channel=0 note=62 velocity=49 time=0
note_on channel=0 note=62 velocity=0 time=120
note_on channel=0 note=57 velocity=51 time=0
note_on channel=0 note=57 velocity=0 time=120
note_on channel=0 note=59 velocity=51 time=0
note_on channel=0 note=50 velocity=51 time=0
note_on channel=0 note=45 velocity=43 time=0
note_on channel=0 note=42 velocity=43 time=0
note_on channel=0 note=59 velocity=0 time=120
note_on channel=0 note=61 velocity=53 time=0
note_on channel=0 note=61 velocity=0 time=120
note_on channel=0 note=42 velocity=0 time=0
note_on channel=0 note=45 velocity=0 time=0
note_on channel=0 note=50 velocity=0 time=0
note_on channel=0 note=62 velocity=56 time=0
note_on channel=0 note=62 velocity=0 time=120
note_on channel=0 note=64 velocity=56 time=0
note_on channel=0 note=64 velocity=0 time=120
note_on channel=0 note=66 velocity=57 time=0
note_on channel=0 note=50 velocity=61 time=0
note_on channel=0 note=45 velocity=51 time=0
note_on channel=0 note=42 velocity=51 time=0
note_on channel=0 note=66 velocity=0 time=120
note_on channel=0 note=67 velocity=59 time=0
note_on channel=0 note=67 velocity=0 time=120
note_on channel=0 note=42 velocity=0 time=0
note_on channel=0 note=45 velocity=0 time=0
note_on channel=0 note=50 velocity=0 time=0
note_on channel=0 note=69 velocity=61 time=0
note_on channel=0 note=69 velocity=0 time=120
note_on channel=0 note=71 velocity=62 time=0
note_on channel=0 note=71 velocity=0 time=120
note_on channel=0 note=73 velocity=63 time=0
note_on channel=0 note=45 velocity=57 time=0
note_on channel=0 note=50 velocity=68 time=0
note_on channel=0 note=42 velocity=57 time=0
note_on channel=0 note=73 velocity=0 time=120
note_on channel=0 note=74 velocity=66 time=0
note_on channel=0 note=74 velocity=0 time=120
note_on channel=0 note=42 velocity=0 time=0
note_on channel=0 note=50 velocity=0 time=0
note_on channel=0 note=45 velocity=0 time=0
note_on channel=0 note=76 velocity=68 time=0
note_on channel=0 note=76 velocity=0 time=120
note_on channel=0 note=78 velocity=68 time=0
note_on channel=0 note=78 velocity=0 time=120
note_on channel=0 note=79 velocity=70 time=0
note_on channel=0 note=42 velocity=57 time=0
note_on channel=0 note=50 velocity=68 time=0
note_on channel=0 note=45 velocity=57 time=0
note_on channel=0 note=79 velocity=0 time=120
note_on channel=0 note=80 velocity=72 time=0
note_on channel=0 note=80 velocity=0 time=120
note_on channel=0 note=45 velocity=0 time=0
note_on channel=0 note=50 velocity=0 time=0
note_on channel=0 note=42 velocity=0 time=0
note_on channel=0 note=81 velocity=79 time=0
note_on channel=0 note=69 velocity=67 time=0
note_on channel=0 note=42 velocity=66 time=0
control_change channel=0 control=64 value=127 time=69
note_on channel=0 note=42 velocity=0 time=50
note_on channel=0 note=50 velocity=56 time=1
note_on channel=0 note=50 velocity=0 time=119
note_on channel=0 note=45 velocity=62 time=1
note_on channel=0 note=45 velocity=0 time=119
note_on channel=0 note=50 velocity=56 time=1
note_on channel=0 note=50 velocity=0 time=119
note_on channel=0 note=42 velocity=66 time=1
note_on channel=0 note=42 velocity=0 time=119
note_on channel=0 note=50 velocity=56 time=1
note_on channel=0 note=50 velocity=0 time=119
note_on channel=0 note=45 velocity=61 time=1
note_on channel=0 note=45 velocity=0 time=119
note_on channel=0 note=50 velocity=54 time=1
note_on channel=0 note=50 velocity=0 time=119
note_on channel=0 note=69 velocity=0 time=1
note_on channel=0 note=81 velocity=0 time=0
note_on channel=0 note=73 velocity=77 time=0
note_on channel=0 note=61 velocity=65 time=0
note_on channel=0 note=43 velocity=66 time=0
control_change channel=0 control=64 value=0 time=9
control_change channel=0 control=64 value=127 time=71
note_on channel=0 note=43 velocity=0 time=39
note_on channel=0 note=52 velocity=56 time=1
note_on channel=0 note=52 velocity=0 time=119
note_on channel=0 note=46 velocity=62 time=1
note_on channel=0 note=46 velocity=0 time=119
note_on channel=0 note=52 velocity=56 time=1
note_on channel=0 note=52 velocity=0 time=119
note_on channel=0 note=43 velocity=66 time=1
note_on channel=0 note=43 velocity=0 time=119
note_on channel=0 note=52 velocity=54 time=1
note_on channel=0 note=52 velocity=0 time=119
note_on channel=0 note=46 velocity=60 time=1
note_on channel=0 note=46 velocity=0 time=119
note_on channel=0 note=52 velocity=54 time=1
note_on channel=0 note=52 velocity=0 time=119
note_on channel=0 note=61 velocity=0 time=1
note_on channel=0 note=73 velocity=0 time=0
note_on channel=0 note=64 velocity=65 time=0
note_on channel=0 note=76 velocity=77 time=0
note_on channel=0 note=44 velocity=66 time=0
control_change channel=0 control=64 value=0 time=17
control_change channel=0 control=64 value=127 time=92
note_on channel=0 note=44 velocity=0 time=10
note_on channel=0 note=52 velocity=58 time=1
note_on channel=0 note=52 velocity=0 time=119
note_on channel=0 note=49 velocity=62 time=1
note_on channel=0 note=49 velocity=0 time=119
note_on channel=0 note=52 velocity=56 time=1
note_on channel=0 note=52 velocity=0 time=119
note_on channel=0 note=44 velocity=66 time=1
note_on channel=0 note=44 velocity=0 time=119
note_on channel=0 note=52 velocity=56 time=1
note_on channel=0 note=52 velocity=0 time=119
note_on channel=0 note=49 velocity=62 time=1
note_on channel=0 note=49 velocity=0 time=119
note_on channel=0 note=52 velocity=57 time=1
note_on channel=0 note=52 velocity=0 time=119
note_on channel=0 note=76 velocity=0 time=0
note_on channel=0 note=64 velocity=0 time=0
note_on channel=0 note=48 velocity=65 time=0
note_on channel=0 note=54 velocity=65 time=0
note_on channel=0 note=60 velocity=77 time=0
note_on channel=0 note=32 velocity=66 time=0
control_change channel=0 control=64 value=0 time=15
control_change channel=0 control=64 value=127 time=100
note_on channel=0 note=32 velocity=0 time=4
note_on channel=0 note=44 velocity=57 time=1
note_on channel=0 note=44 velocity=0 time=119
note_on channel=0 note=43 velocity=62 time=1
note_on channel=0 note=43 velocity=0 time=119
note_on channel=0 note=44 velocity=57 time=1
note_on channel=0 note=44 velocity=0 time=119
note_on channel=0 note=43 velocity=66 time=1
note_on channel=0 note=43 velocity=0 time=119
note_on channel=0 note=44 velocity=57 time=1
note_on channel=0 note=44 velocity=0 time=119
note_on channel=0 note=43 velocity=62 time=1
note_on channel=0 note=43 velocity=0 time=119
note_on channel=0 note=44 velocity=58 time=1
note_on channel=0 note=44 velocity=0 time=119
note_on channel=0 note=60 velocity=0 time=0
note_on channel=0 note=54 velocity=0 time=0
note_on channel=0 note=48 velocity=0 time=0
note_on channel=0 note=37 velocity=59 time=0
note_on channel=0 note=49 velocity=59 time=0
note_on channel=0 note=52 velocity=59 time=0
note_on channel=0 note=61 velocity=59 time=0
control_change channel=0 control=64 value=0 time=9
note_on channel=0 note=61 velocity=0 time=231
note_on channel=0 note=37 velocity=0 time=0
note_on channel=0 note=49 velocity=0 time=0
note_on channel=0 note=52 velocity=0 time=0
note_on channel=0 note=64 velocity=48 time=0
note_on channel=0 note=56 velocity=48 time=0
note_on channel=0 note=49 velocity=40 time=0
note_on channel=0 note=49 velocity=0 time=120
note_on channel=0 note=56 velocity=0 time=0
note_on channel=0 note=64 velocity=0 time=0
note_on channel=0 note=64 velocity=48 time=0
note_on channel=0 note=56 velocity=48 time=0
note_on channel=0 note=49 velocity=40 time=0
note_on channel=0 note=49 velocity=0 time=120
note_on channel=0 note=56 velocity=0 time=0
note_on channel=0 note=64 velocity=0 time=0
note_on channel=0 note=64 velocity=48 time=120
note_on channel=0 note=56 velocity=48 time=0
note_on channel=0 note=49 velocity=40 time=0
note_on channel=0 note=49 velocity=0 time=120
note_on channel=0 note=56 velocity=0 time=0
note_on channel=0 note=64 velocity=0 time=0
note_on channel=0 note=64 velocity=48 time=0
note_on channel=0 note=56 velocity=48 time=0
note_on channel=0 note=49 velocity=40 time=0
note_on channel=0 note=49 velocity=0 time=120
note_on channel=0 note=56 velocity=0 time=0
note_on channel=0 note=64 velocity=0 time=0
note_on channel=0 note=64 velocity=48 time=120
note_on channel=0 note=56 velocity=48 time=0
note_on channel=0 note=49 velocity=40 time=0
note_on channel=0 note=49 velocity=0 time=120
note_on channel=0 note=56 velocity=0 time=0
note_on channel=0 note=64 velocity=0 time=0
note_on channel=0 note=63 velocity=46 time=120
note_on channel=0 note=56 velocity=46 time=0
note_on channel=0 note=51 velocity=39 time=0
note_on channel=0 note=51 velocity=0 time=120
note_on channel=0 note=56 velocity=0 time=0
note_on channel=0 note=63 velocity=0 time=0
note_on channel=0 note=56 velocity=45 time=120
note_on channel=0 note=61 velocity=45 time=0
note_on channel=0 note=52 velocity=39 time=0
note_on channel=0 note=52 velocity=0 time=120
note_on channel=0 note=61 velocity=0 time=0
note_on channel=0 note=56 velocity=0 time=0
note_on channel=0 note=60 velocity=53 time=120
note_on channel=0 note=56 velocity=53 time=0
note_on channel=0 note=44 velocity=45 time=0
note_on channel=0 note=54 velocity=45 time=0
note_on channel=0 note=54 velocity=0 time=240
note_on channel=0 note=60 velocity=0 time=0
note_on channel=0 note=56 velocity=0 time=0
note_on channel=0 note=44 velocity=0 time=0
note_on channel=0 note=60 velocity=48 time=0
note_on channel=0 note=68 velocity=48 time=0
note_on channel=0 note=56 velocity=39 time=0
note_on channel=0 note=54 velocity=39 time=0
note_on channel=0 note=54 velocity=0 time=120
note_on channel=0 note=60 velocity=0 time=0
note_on channel=0 note=68 velocity=0 time=0
note_on channel=0 note=56 velocity=0 time=0
note_on channel=0 note=68 velocity=48 time=0
note_on channel=0 note=60 velocity=48 time=0
note_on channel=0 note=56 velocity=39 time=0
note_on channel=0 note=54 velocity=39 time=0
note_on channel=0 note=54 velocity=0 time=120
note_on channel=0 note=68 velocity=0 time=0
note_on channel=0 note=60 velocity=0 time=0
note_on channel=0 note=56 velocity=0 time=0
note_on channel=0 note=60 velocity=48 time=120
note_on channel=0 note=68 velocity=48 time=0
note_on channel=0 note=56 velocity=39 time=0
note_on channel=0 note=54 velocity=39 time=0
note_on channel=0 note=54 velocity=0 time=120
note_on channel=0 note=60 velocity=0 time=0
note_on channel=0 note=68 velocity=0 time=0
note_on channel=0 note=56 velocity=0 time=0
note_on channel=0 note=60 velocity=48 time=120
note_on channel=0 note=68 velocity=48 time=0
note_on channel=0 note=54 velocity=39 time=0
note_on channel=0 note=56 velocity=39 time=0
note_on channel=0 note=56 velocity=0 time=120
note_on channel=0 note=60 velocity=0 time=0
note_on channel=0 note=68 velocity=0 time=0
note_on channel=0 note=54 velocity=0 time=0
note_on channel=0 note=68 velocity=48 time=120
note_on channel=0 note=60 velocity=48 time=0
note_on channel=0 note=54 velocity=39 time=0
note_on channel=0 note=56 velocity=39 time=0
note_on channel=0 note=56 velocity=0 time=120
note_on channel=0 note=68 velocity=0 time=0
note_on channel=0 note=60 velocity=0 time=0
note_on channel=0 note=54 velocity=0 time=0
note_on channel=0 note=68 velocity=48 time=120
note_on channel=0 note=61 velocity=48 time=0
note_on channel=0 note=56 velocity=39 time=0
note_on channel=0 note=52 velocity=39 time=0
note_on channel=0 note=52 velocity=0 time=120
note_on channel=0 note=68 velocity=0 time=0
note_on channel=0 note=61 velocity=0 time=0
note_on channel=0 note=56 velocity=0 time=0
note_on channel=0 note=68 velocity=51 time=120
note_on channel=0 note=63 velocity=51 time=0
note_on channel=0 note=51 velocity=42 time=0
note_on channel=0 note=56 velocity=42 time=0
note_on channel=0 note=56 velocity=0 time=120
note_on channel=0 note=68 velocity=0 time=0
note_on channel=0 note=63 velocity=0 time=0
note_on channel=0 note=51 velocity=0 time=0
note_on channel=0 note=64 velocity=59 time=120
note_on channel=0 note=68 velocity=59 time=0
note_on channel=0 note=49 velocity=45 time=0
note_on channel=0 note=37 velocity=45 time=0
note_on channel=0 note=37 velocity=0 time=240
note_on channel=0 note=64 velocity=0 time=0
note_on channel=0 note=68 velocity=0 time=0
note_on channel=0 note=49 velocity=0 time=0
note_on channel=0 note=56 velocity=48 time=0
note_on channel=0 note=64 velocity=48 time=0
note_on channel=0 note=49 velocity=39 time=0
note_on channel=0 note=49 velocity=0 time=120
note_on channel=0 note=64 velocity=0 time=0
note_on channel=0 note=56 velocity=0 time=0
note_on channel=0 note=64 velocity=48 time=0
note_on channel=0 note=56 velocity=48 time=0
note_on channel=0 note=49 velocity=39 time=0
note_on channel=0 note=49 velocity=0 time=120
note_on channel=0 note=56 velocity=0 time=0
note_on channel=0 note=64 velocity=0 time=0
note_on channel=0 note=56 velocity=49 time=120
note_on channel=0 note=64 velocity=49 time=0
note_on channel=0 note=49 velocity=39 time=0
note_on channel=0 note=49 velocity=0 time=120
note_on channel=0 note=64 velocity=0 time=0
note_on channel=0 note=56 velocity=0 time=0
note_on channel=0 note=56 velocity=49 time=120
note_on channel=0 note=64 velocity=49 time=0
note_on channel=0 note=49 velocity=39 time=0
note_on channel=0 note=49 velocity=0 time=120
note_on channel=0 note=64 velocity=0 time=0
note_on channel=0 note=56 velocity=0 time=0
note_on channel=0 note=64 velocity=49 time=120
note_on channel=0 note=56 velocity=49 time=0
note_on channel=0 note=49 velocity=40 time=0
note_on channel=0 note=49 velocity=0 time=120
note_on channel=0 note=56 velocity=0 time=0
note_on channel=0 note=64 velocity=0 time=0
note_on channel=0 note=56 velocity=47 time=120
note_on channel=0 note=63 velocity=47 time=0
note_on channel=0 note=51 velocity=39 time=0
note_on channel=0 note=51 velocity=0 time=120
note_on channel=0 note=63 velocity=0 time=0
note_on channel=0 note=56 velocity=0 time=0
note_on channel=0 note=61 velocity=48 time=120
note_on channel=0 note=56 velocity=48 time=0
note_on channel=0 note=52 velocity=39 time=0
note_on channel=0 note=52 velocity=0 time=120
note_on channel=0 note=56 velocity=0 time=0
note_on channel=0 note=61 velocity=0 time=0
note_on channel=0 note=56 velocity=59 time=120
note_on channel=0 note=60 velocity=59 time=0
note_on channel=0 note=54 velocity=47 time=0
note_on channel=0 note=44 velocity=47 time=0
note_on channel=0 note=44 velocity=0 time=240
note_on channel=0 note=56 velocity=0 time=0
note_on channel=0 note=60 velocity=0 time=0
note_on channel=0 note=54 velocity=0 time=0
note_on channel=0 note=68 velocity=47 time=0
note_on channel=0 note=60 velocity=47 time=0
note_on channel=0 note=56 velocity=39 time=0
note_on channel=0 note=54 velocity=39 time=0
note_on channel=0 note=54 velocity=0 time=120
note_on channel=0 note=68 velocity=0 time=0
note_on channel=0 note=60 velocity=0 time=0
note_on channel=0 note=56 velocity=0 time=0
note_on channel=0 note=68 velocity=47 time=0
note_on channel=0 note=60 velocity=47 time=0
note_on channel=0 note=54 velocity=39 time=0
note_on channel=0 note=56 velocity=39 time=0
note_on channel=0 note=56 velocity=0 time=120
note_on channel=0 note=68 velocity=0 time=0
note_on channel=0 note=60 velocity=0 time=0
note_on channel=0 note=54 velocity=0 time=0
note_on channel=0 note=60 velocity=47 time=120
note_on channel=0 note=68 velocity=47 time=0
note_on channel=0 note=54 velocity=39 time=0
note_on channel=0 note=56 velocity=39 time=0
note_on channel=0 note=56 velocity=0 time=120
note_on channel=0 note=60 velocity=0 time=0
note_on channel=0 note=68 velocity=0 time=0
note_on channel=0 note=54 velocity=0 time=0
note_on channel=0 note=60 velocity=47 time=120
note_on channel=0 note=68 velocity=47 time=0
note_on channel=0 note=54 velocity=39 time=0
note_on channel=0 note=56 velocity=39 time=0
note_on channel=0 note=56 velocity=0 time=120
note_on channel=0 note=60 velocity=0 time=0
note_on channel=0 note=68 velocity=0 time=0
note_on channel=0 note=54 velocity=0 time=0
note_on channel=0 note=60 velocity=47 time=120
note_on channel=0 note=68 velocity=47 time=0
note_on channel=0 note=54 velocity=39 time=0
note_on channel=0 note=56 velocity=39 time=0
note_on channel=0 note=56 velocity=0 time=120
note_on channel=0 note=60 velocity=0 time=0
note_on channel=0 note=68 velocity=0 time=0
note_on channel=0 note=54 velocity=0 time=0
note_on channel=0 note=61 velocity=47 time=120
note_on channel=0 note=68 velocity=47 time=0
note_on channel=0 note=52 velocity=41 time=0
note_on channel=0 note=56 velocity=41 time=0
note_on channel=0 note=56 velocity=0 time=120
note_on channel=0 note=61 velocity=0 time=0
note_on channel=0 note=68 velocity=0 time=0
note_on channel=0 note=52 velocity=0 time=0
note_on channel=0 note=68 velocity=51 time=120
note_on channel=0 note=63 velocity=51 time=0
note_on channel=0 note=51 velocity=43 time=0
note_on channel=0 note=56 velocity=43 time=0
note_on channel=0 note=56 velocity=0 time=120
note_on channel=0 note=68 velocity=0 time=0
note_on channel=0 note=63 velocity=0 time=0
note_on channel=0 note=51 velocity=0 time=0
note_on channel=0 note=68 velocity=61 time=0
note_on channel=0 note=64 velocity=61 time=0
note_on channel=0 note=49 velocity=47 time=0
note_on channel=0 note=37 velocity=42 time=0
note_on channel=0 note=37 velocity=0 time=120
note_on channel=0 note=68 velocity=0 time=0
note_on channel=0 note=64 velocity=0 time=0
note_on channel=0 note=49 velocity=0 time=0
note_on channel=0 note=68 velocity=47 time=0
note_on channel=0 note=64 velocity=47 time=0
note_on channel=0 note=49 velocity=40 time=0
note_on channel=0 note=52 velocity=40 time=0
note_on channel=0 note=52 velocity=0 time=120
note_on channel=0 note=68 velocity=0 time=0
note_on channel=0 note=64 velocity=0 time=0
note_on channel=0 note=49 velocity=0 time=0
note_on channel=0 note=64 velocity=48 time=120
note_on channel=0 note=68 velocity=48 time=0
note_on channel=0 note=52 velocity=40 time=0
note_on channel=0 note=49 velocity=40 time=0
control_change channel=0 control=64 value=127 time=85
note_on channel=0 note=49 velocity=0 time=155
note_on channel=0 note=64 velocity=0 time=0
note_on channel=0 note=68 velocity=0 time=0
note_on channel=0 note=52 velocity=0 time=0
note_on channel=0 note=61 velocity=45 time=0
note_on channel=0 note=64 velocity=45 time=0
note_on channel=0 note=56 velocity=39 time=0
note_on channel=0 note=52 velocity=39 time=0
control_change channel=0 control=64 value=0 time=113
note_on channel=0 note=52 velocity=0 time=0
note_on channel=0 note=61 velocity=0 time=0
note_on channel=0 note=64 velocity=0 time=0
note_on channel=0 note=56 velocity=0 time=0
note_on channel=0 note=42 velocity=48 time=0
note_on channel=0 note=42 velocity=0 time=120
note_on channel=0 note=66 velocity=48 time=0
note_on channel=0 note=69 velocity=48 time=0
note_on channel=0 note=49 velocity=40 time=0
note_on channel=0 note=54 velocity=40 time=0
note_on channel=0 note=54 velocity=0 time=120
note_on channel=0 note=66 velocity=0 time=0
note_on channel=0 note=69 velocity=0 time=0
note_on channel=0 note=49 velocity=0 time=0
note_on channel=0 note=69 velocity=48 time=120
note_on channel=0 note=66 velocity=48 time=0
note_on channel=0 note=54 velocity=40 time=0
note_on channel=0 note=49 velocity=40 time=0
control_change channel=0 control=64 value=127 time=134
note_on channel=0 note=49 velocity=0 time=106
note_on channel=0 note=69 velocity=0 time=0
note_on channel=0 note=66 velocity=0 time=0
note_on channel=0 note=54 velocity=0 time=0
note_on channel=0 note=61 velocity=46 time=0
note_on channel=0 note=66 velocity=46 time=0
note_on channel=0 note=57 velocity=39 time=0
note_on channel=0 note=54 velocity=39 time=0
control_change channel=0 control=64 value=0 time=106
note_on channel=0 note=54 velocity=0 time=0
note_on channel=0 note=61 velocity=0 time=0
note_on channel=0 note=66 velocity=0 time=0
note_on channel=0 note=57 velocity=0 time=0
note_on channel=0 note=44 velocity=48 time=0
note_on channel=0 note=44 velocity=0 time=120
note_on channel=0 note=68 velocity=47 time=0
note_on channel=0 note=64 velocity=47 time=0
note_on channel=0 note=52 velocity=39 time=0
note_on channel=0 note=49 velocity=39 time=0
note_on channel=0 note=49 velocity=0 time=120
note_on channel=0 note=68 velocity=0 time=0
note_on channel=0 note=64 velocity=0 time=0
note_on channel=0 note=52 velocity=0 time=0
note_on channel=0 note=68 velocity=47 time=120
note_on channel=0 note=64 velocity=47 time=0
note_on channel=0 note=49 velocity=39 time=0
note_on channel=0 note=52 velocity=39 time=0
control_change channel=0 control=64 value=127 time=57
note_on channel=0 note=52 velocity=0 time=183
note_on channel=0 note=68 velocity=0 time=0
note_on channel=0 note=64 velocity=0 time=0
note_on channel=0 note=49 velocity=0 time=0
note_on channel=0 note=64 velocity=46 time=0
note_on channel=0 note=61 velocity=46 time=0
note_on channel=0 note=52 velocity=39 time=0
note_on channel=0 note=56 velocity=39 time=0
control_change channel=0 control=64 value=0 time=137
note_on channel=0 note=56 velocity=0 time=0
note_on channel=0 note=64 velocity=0 time=0
note_on channel=0 note=61 velocity=0 time=0
note_on channel=0 note=52 velocity=0 time=0
note_on channel=0 note=44 velocity=48 time=0
note_on channel=0 note=44 velocity=0 time=120
note_on channel=0 note=63 velocity=47 time=0
note_on channel=0 note=68 velocity=47 time=0
note_on channel=0 note=51 velocity=39 time=0
note_on channel=0 note=48 velocity=39 time=0
note_on channel=0 note=48 velocity=0 time=120
note_on channel=0 note=63 velocity=0 time=0
note_on channel=0 note=68 velocity=0 time=0
note_on channel=0 note=51 velocity=0 time=0
note_on channel=0 note=63 velocity=47 time=120
note_on channel=0 note=68 velocity=47 time=0
note_on channel=0 note=48 velocity=39 time=0
note_on channel=0 note=51 velocity=39 time=0
control_change channel=0 control=64 value=127 time=52
note_on channel=0 note=51 velocity=0 time=188
note_on channel=0 note=63 velocity=0 time=0
note_on channel=0 note=68 velocity=0 time=0
note_on channel=0 note=48 velocity=0 time=0
note_on channel=0 note=60 velocity=45 time=0
note_on channel=0 note=63 velocity=45 time=0
note_on channel=0 note=56 velocity=38 time=0
note_on channel=0 note=51 velocity=38 time=0
control_change channel=0 control=64 value=0 time=120
note_on channel=0 note=51 velocity=0 time=0
note_on channel=0 note=60 velocity=0 time=0
note_on channel=0 note=63 velocity=0 time=0
note_on channel=0 note=56 velocity=0 time=0
note_on channel=0 note=61 velocity=59 time=0
note_on channel=0 note=64 velocity=59 time=0
note_on channel=0 note=49 velocity=49 time=0
note_on channel=0 note=37 velocity=49 time=0
note_on channel=0 note=37 velocity=0 time=0
note_on channel=0 note=61 velocity=0 time=0
note_on channel=0 note=64 velocity=0 time=0
note_on channel=0 note=49 velocity=0 time=0
note_on channel=0 note=64 velocity=39 time=0
note_on channel=0 note=76 velocity=47 time=0
note_on channel=0 note=68 velocity=47 time=0
note_on channel=0 note=49 velocity=39 time=0
note_on channel=0 note=56 velocity=39 time=0
control_change channel=0 control=64 value=127 time=113
note_on channel=0 note=56 velocity=0 time=7
note_on channel=0 note=68 velocity=0 time=0
note_on channel=0 note=64 velocity=0 time=0
note_on channel=0 note=76 velocity=0 time=0
note_on channel=0 note=49 velocity=0 time=0
note_on channel=0 note=76 velocity=47 time=120
note_on channel=0 note=64 velocity=39 time=0
note_on channel=0 note=68 velocity=47 time=0
note_on channel=0 note=56 velocity=42 time=0
note_on channel=0 note=49 velocity=42 time=0
note_on channel=0 note=49 velocity=0 time=120
note_on channel=0 note=68 velocity=0 time=0
note_on channel=0 note=76 velocity=0 time=0
note_on channel=0 note=64 velocity=0 time=0
note_on channel=0 note=56 velocity=0 time=0
note_on channel=0 note=64 velocity=39 time=120
note_on channel=0 note=68 velocity=47 time=0
note_on channel=0 note=76 velocity=47 time=0
note_on channel=0 note=56 velocity=41 time=0
note_on channel=0 note=49 velocity=41 time=0
note_on channel=0 note=49 velocity=0 time=120
note_on channel=0 note=76 velocity=0 time=0
note_on channel=0 note=64 velocity=0 time=0
note_on channel=0 note=68 velocity=0 time=0
note_on channel=0 note=56 velocity=0 time=0
note_on channel=0 note=68 velocity=47 time=120
note_on channel=0 note=64 velocity=39 time=0
note_on channel=0 note=76 velocity=47 time=0
note_on channel=0 note=49 velocity=39 time=0
note_on channel=0 note=56 velocity=39 time=0
note_on channel=0 note=56 velocity=0 time=120
note_on channel=0 note=76 velocity=0 time=0
note_on channel=0 note=68 velocity=0 time=0
note_on channel=0 note=64 velocity=0 time=0
note_on channel=0 note=49 velocity=0 time=0
note_on channel=0 note=68 velocity=47 time=120
note_on channel=0 note=64 velocity=39 time=0
note_on channel=0 note=76 velocity=47 time=0
note_on channel=0 note=49 velocity=39 time=0
note_on channel=0 note=56 velocity=39 time=0
note_on channel=0 note=56 velocity=0 time=120
note_on channel=0 note=76 velocity=0 time=0
note_on channel=0 note=68 velocity=0 time=0
note_on channel=0 note=64 velocity=0 time=0
note_on channel=0 note=49 velocity=0 time=0
note_on channel=0 note=66 velocity=50 time=120
note_on channel=0 note=63 velocity=42 time=0
note_on channel=0 note=75 velocity=50 time=0
note_on channel=0 note=56 velocity=41 time=0
note_on channel=0 note=51 velocity=41 time=0
control_change channel=0 control=64 value=0 time=17
control_change channel=0 control=64 value=127 time=96
note_on channel=0 note=51 velocity=0 time=7
note_on channel=0 note=75 velocity=0 time=0
note_on channel=0 note=66 velocity=0 time=0
note_on channel=0 note=63 velocity=0 time=0
note_on channel=0 note=56 velocity=0 time=0
note_on channel=0 note=61 velocity=44 time=120
note_on channel=0 note=73 velocity=52 time=0
note_on channel=0 note=64 velocity=52 time=0
note_on channel=0 note=56 velocity=44 time=0
note_on channel=0 note=52 velocity=44 time=0
control_change channel=0 control=64 value=0 time=10
control_change channel=0 control=64 value=127 time=103
note_on channel=0 note=52 velocity=0 time=7
note_on channel=0 note=64 velocity=0 time=0
note_on channel=0 note=61 velocity=0 time=0
note_on channel=0 note=73 velocity=0 time=0
note_on channel=0 note=56 velocity=0 time=0
note_on channel=0 note=63 velocity=58 time=0
note_on channel=0 note=72 velocity=58 time=0
note_on channel=0 note=60 velocity=49 time=0
note_on channel=0 note=44 velocity=47 time=0
note_on channel=0 note=56 velocity=47 time=0
note_on channel=0 note=54 velocity=47 time=0
control_change channel=0 control=64 value=0 time=8
control_change channel=0 control=64 value=127 time=107
note_on channel=0 note=54 velocity=0 time=120
note_on channel=0 note=72 velocity=0 time=0
note_on channel=0 note=60 velocity=0 time=0
note_on channel=0 note=63 velocity=0 time=0
note_on channel=0 note=56 velocity=0 time=0
note_on channel=0 note=44 velocity=0 time=0
note_on channel=0 note=72 velocity=68 time=0
note_on channel=0 note=75 velocity=81 time=0
note_on channel=0 note=84 velocity=81 time=0
note_on channel=0 note=66 velocity=58 time=0
note_on channel=0 note=56 velocity=58 time=0
control_change channel=0 control=64 value=0 time=10
note_on channel=0 note=56 velocity=0 time=80
note_on channel=0 note=84 velocity=0 time=0
note_on channel=0 note=72 velocity=0 time=0
note_on channel=0 note=75 velocity=0 time=0
note_on channel=0 note=66 velocity=0 time=0
control_change channel=0 control=64 value=127 time=6
note_on channel=0 note=75 velocity=86 time=40
note_on channel=0 note=72 velocity=73 time=0
note_on channel=0 note=84 velocity=86 time=0
note_on channel=0 note=66 velocity=68 time=0
note_on channel=0 note=56 velocity=68 time=0
note_on channel=0 note=56 velocity=0 time=40
note_on channel=0 note=84 velocity=0 time=0
note_on channel=0 note=75 velocity=0 time=0
note_on channel=0 note=72 velocity=0 time=0
note_on channel=0 note=66 velocity=0 time=0
note_on channel=0 note=72 velocity=68 time=0
note_on channel=0 note=84 velocity=80 time=0
note_on channel=0 note=75 velocity=80 time=0
note_on channel=0 note=56 velocity=62 time=0
note_on channel=0 note=66 velocity=62 time=0
note_on channel=0 note=66 velocity=0 time=120
note_on channel=0 note=75 velocity=0 time=0
note_on channel=0 note=72 velocity=0 time=0
note_on channel=0 note=84 velocity=0 time=0
note_on channel=0 note=56 velocity=0 time=0
note_on channel=0 note=72 velocity=73 time=80
note_on channel=0 note=75 velocity=86 time=0
note_on channel=0 note=84 velocity=86 time=0
note_on channel=0 note=56 velocity=68 time=0
note_on channel=0 note=66 velocity=68 time=0
note_on channel=0 note=66 velocity=0 time=80
note_on channel=0 note=84 velocity=0 time=0
note_on channel=0 note=72 velocity=0 time=0
note_on channel=0 note=75 velocity=0 time=0
note_on channel=0 note=56 velocity=0 time=0
note_on channel=0 note=72 velocity=68 time=40
note_on channel=0 note=84 velocity=81 time=0
note_on channel=0 note=75 velocity=81 time=0
note_on channel=0 note=66 velocity=62 time=0
note_on channel=0 note=56 velocity=62 time=0
note_on channel=0 note=56 velocity=0 time=0
note_on channel=0 note=75 velocity=0 time=0
note_on channel=0 note=72 velocity=0 time=0
note_on channel=0 note=84 velocity=0 time=0
note_on channel=0 note=66 velocity=0 time=0
note_on channel=0 note=76 velocity=89 time=0
note_on channel=0 note=73 velocity=74 time=0
note_on channel=0 note=85 velocity=89 time=0
note_on channel=0 note=56 velocity=68 time=0
note_on channel=0 note=64 velocity=68 time=0
control_change channel=0 control=64 value=0 time=16
control_change channel=0 control=64 value=127 time=87
note_on channel=0 note=64 velocity=0 time=17
note_on channel=0 note=85 velocity=0 time=0
note_on channel=0 note=76 velocity=0 time=0
note_on channel=0 note=73 velocity=0 time=0
note_on channel=0 note=56 velocity=0 time=0
note_on channel=0 note=87 velocity=84 time=80
note_on channel=0 note=75 velocity=71 time=0
note_on channel=0 note=78 velocity=84 time=0
note_on channel=0 note=63 velocity=62 time=0
note_on channel=0 note=56 velocity=62 time=0
control_change channel=0 control=64 value=0 time=9
control_change channel=0 control=64 value=127 time=35
note_on channel=0 note=56 velocity=0 time=5
note_on channel=0 note=78 velocity=0 time=0
note_on channel=0 note=87 velocity=0 time=0
note_on channel=0 note=75 velocity=0 time=0
note_on channel=0 note=63 velocity=0 time=0
note_on channel=0 note=88 velocity=96 time=40
note_on channel=0 note=80 velocity=96 time=0
note_on channel=0 note=76 velocity=81 time=0
note_on channel=0 note=37 velocity=68 time=0
note_on channel=0 note=49 velocity=68 time=0
control_change channel=0 control=64 value=0 time=0
control_change channel=0 control=64 value=127 time=141
note_on channel=0 note=49 velocity=0 time=8
note_on channel=0 note=76 velocity=0 time=0
note_on channel=0 note=88 velocity=0 time=0
note_on channel=0 note=80 velocity=0 time=0
note_on channel=0 note=37 velocity=0 time=0
note_on channel=0 note=68 velocity=47 time=0
note_on channel=0 note=64 velocity=39 time=0
note_on channel=0 note=76 velocity=47 time=0
note_on channel=0 note=56 velocity=39 time=0
note_on channel=0 note=49 velocity=39 time=0
note_on channel=0 note=49 velocity=0 time=120
note_on channel=0 note=76 velocity=0 time=0
note_on channel=0 note=68 velocity=0 time=0
note_on channel=0 note=64 velocity=0 time=0
note_on channel=0 note=56 velocity=0 time=0
note_on channel=0 note=64 velocity=39 time=120
note_on channel=0 note=68 velocity=47 time=0
note_on channel=0 note=76 velocity=47 time=0
note_on channel=0 note=56 velocity=39 time=0
note_on channel=0 note=49 velocity=39 time=0
note_on channel=0 note=49 velocity=0 time=120
note_on channel=0 note=76 velocity=0 time=0
note_on channel=0 note=64 velocity=0 time=0
note_on channel=0 note=68 velocity=0 time=0
note_on channel=0 note=56 velocity=0 time=0
note_on channel=0 note=68 velocity=47 time=120
note_on channel=0 note=64 velocity=39 time=0
note_on channel=0 note=76 velocity=47 time=0
note_on channel=0 note=56 velocity=39 time=0
note_on channel=0 note=49 velocity=39 time=0
note_on channel=0 note=49 velocity=0 time=120
note_on channel=0 note=76 velocity=0 time=0
note_on channel=0 note=68 velocity=0 time=0
note_on channel=0 note=64 velocity=0 time=0
note_on channel=0 note=56 velocity=0 time=0
note_on channel=0 note=76 velocity=48 time=120
note_on channel=0 note=64 velocity=40 time=0
note_on channel=0 note=68 velocity=48 time=0
note_on channel=0 note=49 velocity=39 time=0
note_on channel=0 note=56 velocity=39 time=0
note_on channel=0 note=56 velocity=0 time=120
note_on channel=0 note=68 velocity=0 time=0
note_on channel=0 note=76 velocity=0 time=0
note_on channel=0 note=64 velocity=0 time=0
note_on channel=0 note=49 velocity=0 time=0
note_on channel=0 note=68 velocity=48 time=120
note_on channel=0 note=64 velocity=40 time=0
note_on channel=0 note=76 velocity=48 time=0
note_on channel=0 note=49 velocity=39 time=0
note_on channel=0 note=56 velocity=39 time=0
note_on channel=0 note=56 velocity=0 time=120
note_on channel=0 note=76 velocity=0 time=0
note_on channel=0 note=68 velocity=0 time=0
note_on channel=0 note=64 velocity=0 time=0
note_on channel=0 note=49 velocity=0 time=0
control_change channel=0 control=64 value=0 time=92
note_on channel=0 note=63 velocity=40 time=28
note_on channel=0 note=66 velocity=48 time=0
note_on channel=0 note=75 velocity=48 time=0
note_on channel=0 note=51 velocity=39 time=0
note_on channel=0 note=56 velocity=39 time=0
control_change channel=0 control=64 value=127 time=85
note_on channel=0 note=56 velocity=0 time=35
note_on channel=0 note=75 velocity=0 time=0
note_on channel=0 note=63 velocity=0 time=0
note_on channel=0 note=66 velocity=0 time=0
note_on channel=0 note=51 velocity=0 time=0
note_on channel=0 note=64 velocity=50 time=120
note_on channel=0 note=73 velocity=50 time=0
note_on channel=0 note=61 velocity=42 time=0
note_on channel=0 note=56 velocity=41 time=0
note_on channel=0 note=52 velocity=41 time=0
control_change channel=0 control=64 value=0 time=13
control_change channel=0 control=64 value=127 time=86
note_on channel=0 note=52 velocity=0 time=21
note_on channel=0 note=61 velocity=0 time=0
note_on channel=0 note=64 velocity=0 time=0
note_on channel=0 note=73 velocity=0 time=0
note_on channel=0 note=56 velocity=0 time=0
note_on channel=0 note=72 velocity=56 time=0
note_on channel=0 note=63 velocity=56 time=0
note_on channel=0 note=60 velocity=47 time=0
note_on channel=0 note=44 velocity=45 time=0
note_on channel=0 note=56 velocity=45 time=0
note_on channel=0 note=54 velocity=45 time=0
control_change channel=0 control=64 value=0 time=0
control_change channel=0 control=64 value=127 time=115
note_on channel=0 note=54 velocity=0 time=0
note_on channel=0 note=63 velocity=0 time=0
note_on channel=0 note=60 velocity=0 time=0
note_on channel=0 note=72 velocity=0 time=0
note_on channel=0 note=56 velocity=0 time=0
note_on channel=0 note=44 velocity=0 time=0
note_on channel=0 note=75 velocity=78 time=0
note_on channel=0 note=84 velocity=78 time=0
note_on channel=0 note=72 velocity=66 time=0
note_on channel=0 note=66 velocity=57 time=0
note_on channel=0 note=56 velocity=57 time=0
control_change channel=0 control=64 value=0 time=15
control_change channel=0 control=64 value=127 time=100
note_on channel=0 note=56 velocity=0 time=5
note_on channel=0 note=72 velocity=0 time=0
note_on channel=0 note=75 velocity=0 time=0
note_on channel=0 note=84 velocity=0 time=0
note_on channel=0 note=66 velocity=0 time=0
note_on channel=0 note=75 velocity=86 time=120
note_on channel=0 note=72 velocity=73 time=0
note_on channel=0 note=84 velocity=86 time=0
note_on channel=0 note=56 velocity=68 time=0
note_on channel=0 note=66 velocity=68 time=0
note_on channel=0 note=66 velocity=0 time=80
note_on channel=0 note=84 velocity=0 time=0
note_on channel=0 note=75 velocity=0 time=0
note_on channel=0 note=72 velocity=0 time=0
note_on channel=0 note=56 velocity=0 time=0
note_on channel=0 note=75 velocity=80 time=120
note_on channel=0 note=72 velocity=68 time=0
note_on channel=0 note=84 velocity=80 time=0
note_on channel=0 note=66 velocity=60 time=0
note_on channel=0 note=56 velocity=60 time=0
note_on channel=0 note=56 velocity=0 time=40
note_on channel=0 note=84 velocity=0 time=0
note_on channel=0 note=75 velocity=0 time=0
note_on channel=0 note=72 velocity=0 time=0
note_on channel=0 note=66 velocity=0 time=0
note_on channel=0 note=84 velocity=86 time=120
note_on channel=0 note=72 velocity=73 time=0
note_on channel=0 note=75 velocity=86 time=0
note_on channel=0 note=56 velocity=68 time=0
note_on channel=0 note=66 velocity=68 time=0
note_on channel=0 note=66 velocity=0 time=0
note_on channel=0 note=75 velocity=0 time=0
note_on channel=0 note=84 velocity=0 time=0
note_on channel=0 note=72 velocity=0 time=0
note_on channel=0 note=56 velocity=0 time=0
note_on channel=0 note=75 velocity=86 time=120
note_on channel=0 note=84 velocity=86 time=0
note_on channel=0 note=72 velocity=73 time=0
note_on channel=0 note=66 velocity=60 time=0
note_on channel=0 note=56 velocity=60 time=0
note_on channel=0 note=56 velocity=0 time=0
note_on channel=0 note=72 velocity=0 time=0
note_on channel=0 note=75 velocity=0 time=0
note_on channel=0 note=84 velocity=0 time=0
note_on channel=0 note=66 velocity=0 time=0
note_on channel=0 note=73 velocity=73 time=120
note_on channel=0 note=85 velocity=86 time=0
note_on channel=0 note=76 velocity=86 time=0
note_on channel=0 note=64 velocity=68 time=0
note_on channel=0 note=56 velocity=68 time=0
control_change channel=0 control=64 value=0 time=15
control_change channel=0 control=64 value=127 time=60
note_on channel=0 note=56 velocity=0 time=45
note_on channel=0 note=76 velocity=0 time=0
note_on channel=0 note=73 velocity=0 time=0
note_on channel=0 note=85 velocity=0 time=0
note_on channel=0 note=64 velocity=0 time=0
note_on channel=0 note=87 velocity=80 time=80
note_on channel=0 note=75 velocity=68 time=0
note_on channel=0 note=78 velocity=80 time=0
note_on channel=0 note=56 velocity=59 time=0
note_on channel=0 note=63 velocity=59 time=0
control_change channel=0 control=64 value=0 time=19
control_change channel=0 control=64 value=127 time=84
note_on channel=0 note=63 velocity=0 time=17
note_on channel=0 note=78 velocity=0 time=0
note_on channel=0 note=87 velocity=0 time=0
note_on channel=0 note=75 velocity=0 time=0
note_on channel=0 note=56 velocity=0 time=0
note_on channel=0 note=76 velocity=82 time=40
note_on channel=0 note=80 velocity=97 time=0
note_on channel=0 note=88 velocity=97 time=0
note_on channel=0 note=61 velocity=69 time=0
note_on channel=0 note=49 velocity=69 time=0
control_change channel=0 control=64 value=0 time=8
note_on channel=0 note=49 velocity=0 time=8
note_on channel=0 note=88 velocity=0 time=0
note_on channel=0 note=76 velocity=0 time=0
note_on channel=0 note=80 velocity=0 time=0
note_on channel=0 note=61 velocity=0 time=0
note_on channel=0 note=80 velocity=50 time=0
note_on channel=0 note=85 velocity=50 time=0
note_on channel=0 note=61 velocity=42 time=0
note_on channel=0 note=64 velocity=42 time=0
note_on channel=0 note=64 velocity=0 time=120
note_on channel=0 note=80 velocity=0 time=0
note_on channel=0 note=85 velocity=0 time=0
note_on channel=0 note=61 velocity=0 time=0
note_on channel=0 note=85 velocity=50 time=120
note_on channel=0 note=80 velocity=50 time=0
note_on channel=0 note=64 velocity=43 time=0
note_on channel=0 note=61 velocity=43 time=0
control_change channel=0 control=64 value=127 time=57
note_on channel=0 note=61 velocity=0 time=183
note_on channel=0 note=85 velocity=0 time=0
note_on channel=0 note=80 velocity=0 time=0
note_on channel=0 note=64 velocity=0 time=0
note_on channel=0 note=80 velocity=48 time=0
note_on channel=0 note=76 velocity=48 time=0
note_on channel=0 note=68 velocity=39 time=0
note_on channel=0 note=64 velocity=39 time=0
control_change channel=0 control=64 value=0 time=71
note_on channel=0 note=64 velocity=0 time=0
note_on channel=0 note=80 velocity=0 time=0
note_on channel=0 note=76 velocity=0 time=0
note_on channel=0 note=68 velocity=0 time=0
note_on channel=0 note=54 velocity=48 time=0
note_on channel=0 note=54 velocity=0 time=120
note_on channel=0 note=81 velocity=49 time=0
note_on channel=0 note=85 velocity=49 time=0
note_on channel=0 note=66 velocity=40 time=0
note_on channel=0 note=61 velocity=40 time=0
note_on channel=0 note=61 velocity=0 time=120
note_on channel=0 note=81 velocity=0 time=0
note_on channel=0 note=85 velocity=0 time=0
note_on channel=0 note=66 velocity=0 time=0
note_on channel=0 note=85 velocity=49 time=120
note_on channel=0 note=81 velocity=49 time=0
note_on channel=0 note=66 velocity=42 time=0
note_on channel=0 note=61 velocity=42 time=0
control_change channel=0 control=64 value=127 time=78
note_on channel=0 note=61 velocity=0 time=162
note_on channel=0 note=85 velocity=0 time=0
note_on channel=0 note=81 velocity=0 time=0
note_on channel=0 note=66 velocity=0 time=0
note_on channel=0 note=78 velocity=48 time=0
note_on channel=0 note=81 velocity=48 time=0
note_on channel=0 note=66 velocity=39 time=0
note_on channel=0 note=69 velocity=39 time=0
control_change channel=0 control=64 value=0 time=64
note_on channel=0 note=69 velocity=0 time=0
note_on channel=0 note=78 velocity=0 time=0
note_on channel=0 note=81 velocity=0 time=0
note_on channel=0 note=66 velocity=0 time=0
note_on channel=0 note=56 velocity=47 time=0
note_on channel=0 note=56 velocity=0 time=120
note_on channel=0 note=80 velocity=49 time=0
note_on channel=0 note=76 velocity=49 time=0
note_on channel=0 note=61 velocity=42 time=0
note_on channel=0 note=64 velocity=42 time=0
note_on channel=0 note=64 velocity=0 time=120
note_on channel=0 note=80 velocity=0 time=0
note_on channel=0 note=76 velocity=0 time=0
note_on channel=0 note=61 velocity=0 time=0
note_on channel=0 note=76 velocity=49 time=120
note_on channel=0 note=80 velocity=49 time=0
note_on channel=0 note=64 velocity=42 time=0
note_on channel=0 note=61 velocity=42 time=0
control_change channel=0 control=64 value=127 time=75
note_on channel=0 note=61 velocity=0 time=165
note_on channel=0 note=76 velocity=0 time=0
note_on channel=0 note=80 velocity=0 time=0
note_on channel=0 note=64 velocity=0 time=0
note_on channel=0 note=73 velocity=47 time=0
note_on channel=0 note=76 velocity=47 time=0
note_on channel=0 note=68 velocity=39 time=0
note_on channel=0 note=64 velocity=39 time=0
control_change channel=0 control=64 value=0 time=69
note_on channel=0 note=64 velocity=0 time=0
note_on channel=0 note=73 velocity=0 time=0
note_on channel=0 note=76 velocity=0 time=0
note_on channel=0 note=68 velocity=0 time=0
note_on channel=0 note=54 velocity=47 time=0
note_on channel=0 note=54 velocity=0 time=120
note_on channel=0 note=80 velocity=51 time=0
note_on channel=0 note=75 velocity=51 time=0
note_on channel=0 note=63 velocity=42 time=0
note_on channel=0 note=60 velocity=42 time=0
note_on channel=0 note=60 velocity=0 time=120
note_on channel=0 note=80 velocity=0 time=0
note_on channel=0 note=75 velocity=0 time=0
note_on channel=0 note=63 velocity=0 time=0
note_on channel=0 note=75 velocity=51 time=120
note_on channel=0 note=80 velocity=51 time=0
note_on channel=0 note=63 velocity=42 time=0
note_on channel=0 note=60 velocity=42 time=0
control_change channel=0 control=64 value=127 time=97
note_on channel=0 note=60 velocity=0 time=143
note_on channel=0 note=75 velocity=0 time=0
note_on channel=0 note=80 velocity=0 time=0
note_on channel=0 note=63 velocity=0 time=0
note_on channel=0 note=72 velocity=49 time=0
note_on channel=0 note=75 velocity=49 time=0
note_on channel=0 note=63 velocity=40 time=0
note_on channel=0 note=68 velocity=40 time=0
control_change channel=0 control=64 value=0 time=126
note_on channel=0 note=68 velocity=0 time=114
note_on channel=0 note=72 velocity=0 time=0
note_on channel=0 note=75 velocity=0 time=0
note_on channel=0 note=63 velocity=0 time=0
note_on channel=0 note=52 velocity=47 time=0
note_on channel=0 note=52 velocity=0 time=240
note_on channel=0 note=76 velocity=56 time=0
note_on channel=0 note=80 velocity=56 time=0
note_on channel=0 note=61 velocity=42 time=0
note_on channel=0 note=56 velocity=42 time=0
note_on channel=0 note=56 velocity=0 time=120
note_on channel=0 note=76 velocity=0 time=0
note_on channel=0 note=80 velocity=0 time=0
note_on channel=0 note=61 velocity=0 time=0
note_on channel=0 note=76 velocity=56 time=8
note_on channel=0 note=80 velocity=56 time=0
note_on channel=0 note=61 velocity=42 time=0
note_on channel=0 note=56 velocity=42 time=0
control_change channel=0 control=64 value=127 time=92
note_on channel=0 note=56 velocity=0 time=0
note_on channel=0 note=76 velocity=0 time=0
note_on channel=0 note=80 velocity=0 time=0
note_on channel=0 note=61 velocity=0 time=0
note_on channel=0 note=68 velocity=54 time=0
note_on channel=0 note=76 velocity=54 time=0
note_on channel=0 note=64 velocity=39 time=0
note_on channel=0 note=61 velocity=39 time=0
control_change channel=0 control=64 value=0 time=11
note_on channel=0 note=61 velocity=0 time=77
note_on channel=0 note=68 velocity=0 time=0
note_on channel=0 note=76 velocity=0 time=0
note_on channel=0 note=64 velocity=0 time=0
note_on channel=0 note=42 velocity=47 time=0
note_on channel=0 note=42 velocity=0 time=48
note_on channel=0 note=78 velocity=65 time=0
note_on channel=0 note=69 velocity=65 time=0
note_on channel=0 note=57 velocity=43 time=0
note_on channel=0 note=54 velocity=43 time=0
note_on channel=0 note=54 velocity=0 time=120
note_on channel=0 note=78 velocity=0 time=0
note_on channel=0 note=69 velocity=0 time=0
note_on channel=0 note=57 velocity=0 time=0
note_on channel=0 note=78 velocity=63 time=56
note_on channel=0 note=69 velocity=63 time=0
note_on channel=0 note=54 velocity=43 time=0
note_on channel=0 note=57 velocity=43 time=0
control_change channel=0 control=64 value=127 time=23
note_on channel=0 note=57 velocity=0 time=80
note_on channel=0 note=78 velocity=0 time=0
note_on channel=0 note=69 velocity=0 time=0
note_on channel=0 note=54 velocity=0 time=0
note_on channel=0 note=66 velocity=62 time=0
note_on channel=0 note=74 velocity=62 time=0
note_on channel=0 note=62 velocity=41 time=0
note_on channel=0 note=57 velocity=41 time=0
control_change channel=0 control=64 value=0 time=39
note_on channel=0 note=57 velocity=0 time=104
note_on channel=0 note=66 velocity=0 time=0
note_on channel=0 note=74 velocity=0 time=0
note_on channel=0 note=62 velocity=0 time=0
note_on channel=0 note=44 velocity=45 time=0
note_on channel=0 note=44 velocity=0 time=0
note_on channel=0 note=76 velocity=57 time=0
note_on channel=0 note=68 velocity=57 time=0
note_on channel=0 note=56 velocity=39 time=0
note_on channel=0 note=52 velocity=39 time=0
note_on channel=0 note=52 velocity=0 time=0
note_on channel=0 note=76 velocity=0 time=0
note_on channel=0 note=68 velocity=0 time=0
note_on channel=0 note=56 velocity=0 time=0
note_on channel=0 note=68 velocity=57 time=40
note_on channel=0 note=76 velocity=57 time=0
note_on channel=0 note=52 velocity=40 time=0
note_on channel=0 note=56 velocity=40 time=0
control_change channel=0 control=64 value=127 time=50
note_on channel=0 note=56 velocity=0 time=190
note_on channel=0 note=68 velocity=0 time=0
note_on channel=0 note=76 velocity=0 time=0
note_on channel=0 note=52 velocity=0 time=0
note_on channel=0 note=64 velocity=57 time=0
note_on channel=0 note=73 velocity=57 time=0
note_on channel=0 note=56 velocity=42 time=0
note_on channel=0 note=61 velocity=42 time=0
control_change channel=0 control=64 value=0 time=170
note_on channel=0 note=61 velocity=0 time=70
note_on channel=0 note=64 velocity=0 time=0
note_on channel=0 note=73 velocity=0 time=0
note_on channel=0 note=56 velocity=0 time=0
note_on channel=0 note=44 velocity=48 time=0
note_on channel=0 note=44 velocity=0 time=40
note_on channel=0 note=75 velocity=49 time=0
note_on channel=0 note=66 velocity=49 time=0
note_on channel=0 note=51 velocity=39 time=0
note_on channel=0 note=54 velocity=39 time=0
note_on channel=0 note=54 velocity=0 time=24
note_on channel=0 note=75 velocity=0 time=0
note_on channel=0 note=66 velocity=0 time=0
note_on channel=0 note=51 velocity=0 time=0
note_on channel=0 note=75 velocity=49 time=40
note_on channel=0 note=66 velocity=49 time=0
note_on channel=0 note=54 velocity=39 time=0
note_on channel=0 note=51 velocity=39 time=0
control_change channel=0 control=64 value=127 time=31
note_on channel=0 note=51 velocity=0 time=32
note_on channel=0 note=75 velocity=0 time=0
note_on channel=0 note=66 velocity=0 time=0
note_on channel=0 note=54 velocity=0 time=0
note_on channel=0 note=72 velocity=47 time=0
note_on channel=0 note=63 velocity=47 time=0
note_on channel=0 note=54 velocity=39 time=0
note_on channel=0 note=60 velocity=39 time=0
note_on channel=0 note=60 velocity=0 time=0
note_on channel=0 note=72 velocity=0 time=0
note_on channel=0 note=63 velocity=0 time=0
note_on channel=0 note=54 velocity=0 time=0
note_on channel=0 note=73 velocity=50 time=0
note_on channel=0 note=64 velocity=50 time=0
note_on channel=0 note=37 velocity=49 time=0
control_change channel=0 control=64 value=0 time=11
control_change channel=0 control=64 value=127 time=81
note_on channel=0 note=37 velocity=0 time=27
note_on channel=0 note=49 velocity=31 time=1
note_on channel=0 note=49 velocity=0 time=119
note_on channel=0 note=44 velocity=36 time=1
note_on channel=0 note=44 velocity=0 time=119
note_on channel=0 note=49 velocity=32 time=1
note_on channel=0 note=49 velocity=0 time=119
note_on channel=0 note=64 velocity=0 time=1
note_on channel=0 note=73 velocity=0 time=0
note_on channel=0 note=37 velocity=41 time=0
note_on channel=0 note=37 velocity=0 time=119
note_on channel=0 note=49 velocity=32 time=1
note_on channel=0 note=49 velocity=0 time=119
note_on channel=0 note=44 velocity=36 time=1
note_on channel=0 note=44 velocity=0 time=119
note_on channel=0 note=49 velocity=32 time=1
note_on channel=0 note=49 velocity=0 time=119
note_on channel=0 note=37 velocity=41 time=1
note_on channel=0 note=37 velocity=0 time=119
note_on channel=0 note=49 velocity=32 time=1
note_on channel=0 note=49 velocity=0 time=119
note_on channel=0 note=44 velocity=37 time=1
note_on channel=0 note=44 velocity=0 time=119
note_on channel=0 note=49 velocity=37 time=1
note_on channel=0 note=49 velocity=0 time=119
note_on channel=0 note=64 velocity=50 time=0
note_on channel=0 note=37 velocity=41 time=0
note_on channel=0 note=37 velocity=0 time=119
note_on channel=0 note=49 velocity=32 time=1
note_on channel=0 note=49 velocity=0 time=119
note_on channel=0 note=44 velocity=37 time=1
note_on channel=0 note=44 velocity=0 time=119
note_on channel=0 note=64 velocity=0 time=1
note_on channel=0 note=61 velocity=50 time=0
note_on channel=0 note=49 velocity=33 time=0
note_on channel=0 note=49 velocity=0 time=119
note_on channel=0 note=61 velocity=0 time=1
note_on channel=0 note=60 velocity=57 time=0
note_on channel=0 note=37 velocity=41 time=0
control_change channel=0 control=64 value=0 time=9
control_change channel=0 control=64 value=127 time=69
note_on channel=0 note=37 velocity=0 time=41
note_on channel=0 note=51 velocity=33 time=1
note_on channel=0 note=51 velocity=0 time=119
note_on channel=0 note=44 velocity=38 time=1
note_on channel=0 note=44 velocity=0 time=119
note_on channel=0 note=51 velocity=33 time=1
note_on channel=0 note=51 velocity=0 time=119
note_on channel=0 note=60 velocity=0 time=0
note_on channel=0 note=60 velocity=47 time=0
note_on channel=0 note=54 velocity=39 time=0
note_on channel=0 note=68 velocity=47 time=0
note_on channel=0 note=37 velocity=41 time=0
note_on channel=0 note=37 velocity=0 time=119
note_on channel=0 note=51 velocity=32 time=1
note_on channel=0 note=51 velocity=0 time=119
note_on channel=0 note=44 velocity=37 time=1
note_on channel=0 note=44 velocity=0 time=119
note_on channel=0 note=60 velocity=0 time=1
note_on channel=0 note=54 velocity=0 time=0
note_on channel=0 note=68 velocity=0 time=0
note_on channel=0 note=51 velocity=32 time=0
note_on channel=0 note=51 velocity=0 time=119
note_on channel=0 note=60 velocity=47 time=1
note_on channel=0 note=68 velocity=47 time=0
note_on channel=0 note=54 velocity=39 time=0
note_on channel=0 note=37 velocity=41 time=0
note_on channel=0 note=37 velocity=0 time=119
note_on channel=0 note=51 velocity=33 time=1
note_on channel=0 note=51 velocity=0 time=119
note_on channel=0 note=44 velocity=38 time=1
note_on channel=0 note=44 velocity=0 time=119
note_on channel=0 note=60 velocity=0 time=1
note_on channel=0 note=68 velocity=0 time=0
note_on channel=0 note=54 velocity=0 time=0
note_on channel=0 note=51 velocity=33 time=0
note_on channel=0 note=51 velocity=0 time=119
note_on channel=0 note=54 velocity=42 time=1
note_on channel=0 note=60 velocity=50 time=0
note_on channel=0 note=68 velocity=50 time=0
note_on channel=0 note=37 velocity=41 time=0
note_on channel=0 note=37 velocity=0 time=119
note_on channel=0 note=51 velocity=32 time=1
note_on channel=0 note=51 velocity=0 time=119
note_on channel=0 note=44 velocity=36 time=1
note_on channel=0 note=44 velocity=0 time=119
note_on channel=0 note=54 velocity=0 time=0
note_on channel=0 note=60 velocity=0 time=0
note_on channel=0 note=68 velocity=0 time=0
note_on channel=0 note=52 velocity=50 time=0
note_on channel=0 note=51 velocity=33 time=0
note_on channel=0 note=52 velocity=0 time=60
note_on channel=0 note=61 velocity=50 time=0
note_on channel=0 note=51 velocity=0 time=59
note_on channel=0 note=61 velocity=0 time=0
note_on channel=0 note=68 velocity=57 time=0
note_on channel=0 note=37 velocity=41 time=0
control_change channel=0 control=64 value=0 time=19
control_change channel=0 control=64 value=127 time=59
note_on channel=0 note=37 velocity=0 time=41
note_on channel=0 note=49 velocity=33 time=1
note_on channel=0 note=49 velocity=0 time=119
note_on channel=0 note=44 velocity=37 time=1
note_on channel=0 note=44 velocity=0 time=119
note_on channel=0 note=49 velocity=33 time=1
note_on channel=0 note=49 velocity=0 time=119
note_on channel=0 note=37 velocity=41 time=1
note_on channel=0 note=37 velocity=0 time=119
note_on channel=0 note=49 velocity=34 time=1
note_on channel=0 note=49 velocity=0 time=119
note_on channel=0 note=44 velocity=38 time=1
note_on channel=0 note=44 velocity=0 time=119
note_on channel=0 note=49 velocity=34 time=1
note_on channel=0 note=49 velocity=0 time=119
note_on channel=0 note=37 velocity=41 time=1
note_on channel=0 note=37 velocity=0 time=119
note_on channel=0 note=49 velocity=34 time=1
note_on channel=0 note=49 velocity=0 time=119
note_on channel=0 note=44 velocity=38 time=1
note_on channel=0 note=44 velocity=0 time=119
note_on channel=0 note=49 velocity=33 time=1
note_on channel=0 note=49 velocity=0 time=39
note_on channel=0 note=68 velocity=0 time=0
note_on channel=0 note=76 velocity=58 time=0
note_on channel=0 note=37 velocity=41 time=0
note_on channel=0 note=37 velocity=0 time=119
note_on channel=0 note=49 velocity=33 time=1
note_on channel=0 note=49 velocity=0 time=119
note_on channel=0 note=44 velocity=36 time=1
note_on channel=0 note=44 velocity=0 time=119
note_on channel=0 note=76 velocity=0 time=1
note_on channel=0 note=73 velocity=58 time=0
note_on channel=0 note=49 velocity=32 time=0
note_on channel=0 note=49 velocity=0 time=119
note_on channel=0 note=73 velocity=0 time=1
note_on channel=0 note=72 velocity=67 time=0
note_on channel=0 note=37 velocity=41 time=0
control_change channel=0 control=64 value=0 time=4
control_change channel=0 control=64 value=127 time=49
note_on channel=0 note=37 velocity=0 time=66
note_on channel=0 note=51 velocity=33 time=1
note_on channel=0 note=51 velocity=0 time=119
note_on channel=0 note=44 velocity=36 time=1
note_on channel=0 note=44 velocity=0 time=119
note_on channel=0 note=51 velocity=33 time=1
note_on channel=0 note=51 velocity=0 time=119
note_on channel=0 note=72 velocity=0 time=0
note_on channel=0 note=80 velocity=57 time=0
note_on channel=0 note=66 velocity=48 time=0
note_on channel=0 note=72 velocity=57 time=0
note_on channel=0 note=37 velocity=41 time=0
note_on channel=0 note=37 velocity=0 time=119
note_on channel=0 note=51 velocity=33 time=1
note_on channel=0 note=51 velocity=0 time=119
note_on channel=0 note=44 velocity=36 time=1
note_on channel=0 note=44 velocity=0 time=119
note_on channel=0 note=80 velocity=0 time=1
note_on channel=0 note=66 velocity=0 time=0
note_on channel=0 note=72 velocity=0 time=0
note_on channel=0 note=51 velocity=33 time=0
note_on channel=0 note=51 velocity=0 time=119
note_on channel=0 note=72 velocity=57 time=1
note_on channel=0 note=66 velocity=48 time=0
note_on channel=0 note=80 velocity=57 time=0
note_on channel=0 note=37 velocity=41 time=0
note_on channel=0 note=37 velocity=0 time=119
note_on channel=0 note=51 velocity=32 time=1
note_on channel=0 note=51 velocity=0 time=119
note_on channel=0 note=44 velocity=36 time=1
note_on channel=0 note=44 velocity=0 time=119
note_on channel=0 note=72 velocity=0 time=1
note_on channel=0 note=66 velocity=0 time=0
note_on channel=0 note=80 velocity=0 time=0
note_on channel=0 note=51 velocity=33 time=0
note_on channel=0 note=51 velocity=0 time=119
note_on channel=0 note=72 velocity=57 time=1
note_on channel=0 note=80 velocity=57 time=0
note_on channel=0 note=66 velocity=48 time=0
note_on channel=0 note=37 velocity=41 time=0
note_on channel=0 note=37 velocity=0 time=119
note_on channel=0 note=51 velocity=35 time=1
note_on channel=0 note=51 velocity=0 time=119
note_on channel=0 note=44 velocity=39 time=1
note_on channel=0 note=44 velocity=0 time=39
note_on channel=0 note=72 velocity=0 time=0
note_on channel=0 note=80 velocity=0 time=0
note_on channel=0 note=66 velocity=0 time=0
note_on channel=0 note=64 velocity=47 time=0
note_on channel=0 note=51 velocity=34 time=0
note_on channel=0 note=64 velocity=0 time=60
note_on channel=0 note=73 velocity=53 time=0
note_on channel=0 note=51 velocity=0 time=59
note_on channel=0 note=73 velocity=0 time=0
note_on channel=0 note=80 velocity=73 time=0
note_on channel=0 note=37 velocity=41 time=0
control_change channel=0 control=64 value=0 time=9
control_change channel=0 control=64 value=127 time=66
note_on channel=0 note=37 velocity=0 time=44
note_on channel=0 note=49 velocity=33 time=1
note_on channel=0 note=49 velocity=0 time=119
note_on channel=0 note=44 velocity=36 time=1
note_on channel=0 note=44 velocity=0 time=119
note_on channel=0 note=49 velocity=33 time=1
note_on channel=0 note=49 velocity=0 time=119
note_on channel=0 note=37 velocity=42 time=1
note_on channel=0 note=37 velocity=0 time=119
note_on channel=0 note=49 velocity=31 time=1
note_on channel=0 note=49 velocity=0 time=119
note_on channel=0 note=44 velocity=35 time=1
note_on channel=0 note=44 velocity=0 time=119
note_on channel=0 note=80 velocity=0 time=0
note_on channel=0 note=66 velocity=45 time=0
note_on channel=0 note=49 velocity=32 time=0
note_on channel=0 note=66 velocity=0 time=60
note_on channel=0 note=72 velocity=52 time=0
note_on channel=0 note=49 velocity=0 time=59
note_on channel=0 note=72 velocity=0 time=0
note_on channel=0 note=80 velocity=72 time=0
note_on channel=0 note=37 velocity=41 time=0
control_change channel=0 control=64 value=0 time=16
control_change channel=0 control=64 value=127 time=64
note_on channel=0 note=37 velocity=0 time=39
note_on channel=0 note=51 velocity=33 time=1
note_on channel=0 note=51 velocity=0 time=119
note_on channel=0 note=44 velocity=37 time=1
note_on channel=0 note=44 velocity=0 time=119
note_on channel=0 note=51 velocity=33 time=1
note_on channel=0 note=51 velocity=0 time=119
note_on channel=0 note=37 velocity=41 time=1
note_on channel=0 note=37 velocity=0 time=119
note_on channel=0 note=51 velocity=33 time=1
note_on channel=0 note=51 velocity=0 time=119
note_on channel=0 note=44 velocity=38 time=1
note_on channel=0 note=44 velocity=0 time=119
note_on channel=0 note=80 velocity=0 time=0
note_on channel=0 note=64 velocity=43 time=0
note_on channel=0 note=51 velocity=34 time=0
note_on channel=0 note=64 velocity=0 time=60
note_on channel=0 note=73 velocity=53 time=0
note_on channel=0 note=51 velocity=0 time=59
note_on channel=0 note=73 velocity=0 time=0
note_on channel=0 note=80 velocity=72 time=0
note_on channel=0 note=37 velocity=41 time=0
control_change channel=0 control=64 value=0 time=19
control_change channel=0 control=64 value=127 time=36
note_on channel=0 note=37 velocity=0 time=64
note_on channel=0 note=49 velocity=33 time=1
note_on channel=0 note=49 velocity=0 time=119
note_on channel=0 note=44 velocity=36 time=1
note_on channel=0 note=44 velocity=0 time=119
note_on channel=0 note=49 velocity=32 time=1
note_on channel=0 note=49 velocity=0 time=119
note_on channel=0 note=37 velocity=41 time=1
note_on channel=0 note=37 velocity=0 time=119
note_on channel=0 note=49 velocity=33 time=1
note_on channel=0 note=49 velocity=0 time=119
note_on channel=0 note=44 velocity=36 time=1
note_on channel=0 note=44 velocity=0 time=119
note_on channel=0 note=80 velocity=0 time=1
note_on channel=0 note=66 velocity=45 time=0
note_on channel=0 note=49 velocity=33 time=0
note_on channel=0 note=66 velocity=0 time=60
note_on channel=0 note=72 velocity=53 time=0
note_on channel=0 note=49 velocity=0 time=59
note_on channel=0 note=72 velocity=0 time=1
note_on channel=0 note=80 velocity=71 time=0
note_on channel=0 note=37 velocity=41 time=0
control_change channel=0 control=64 value=0 time=10
control_change channel=0 control=64 value=127 time=53
note_on channel=0 note=37 velocity=0 time=56
note_on channel=0 note=51 velocity=33 time=1
note_on channel=0 note=51 velocity=0 time=119
note_on channel=0 note=44 velocity=37 time=1
note_on channel=0 note=44 velocity=0 time=119
note_on channel=0 note=51 velocity=33 time=1
note_on channel=0 note=51 velocity=0 time=119
note_on channel=0 note=37 velocity=41 time=1
note_on channel=0 note=37 velocity=0 time=119
note_on channel=0 note=51 velocity=33 time=1
note_on channel=0 note=51 velocity=0 time=119
note_on channel=0 note=44 velocity=37 time=1
note_on channel=0 note=44 velocity=0 time=119
note_on channel=0 note=51 velocity=34 time=1
note_on channel=0 note=51 velocity=0 time=119
note_on channel=0 note=80 velocity=0 time=1
note_on channel=0 note=52 velocity=51 time=0
note_on channel=0 note=37 velocity=41 time=0
control_change channel=0 control=64 value=0 time=5
control_change channel=0 control=64 value=127 time=11
note_on channel=0 note=37 velocity=0 time=20
note_on channel=0 note=52 velocity=0 time=0
note_on channel=0 note=61 velocity=48 time=1
note_on channel=0 note=49 velocity=39 time=0
note_on channel=0 note=49 velocity=0 time=23
note_on channel=0 note=61 velocity=0 time=0
note_on channel=0 note=56 velocity=51 time=1
note_on channel=0 note=44 velocity=43 time=0
note_on channel=0 note=44 velocity=0 time=119
note_on channel=0 note=56 velocity=0 time=0
note_on channel=0 note=61 velocity=49 time=1
note_on channel=0 note=49 velocity=42 time=0
note_on channel=0 note=49 velocity=0 time=119
note_on channel=0 note=61 velocity=0 time=0
note_on channel=0 note=52 velocity=53 time=1
note_on channel=0 note=37 velocity=45 time=0
note_on channel=0 note=37 velocity=0 time=119
note_on channel=0 note=52 velocity=0 time=0
note_on channel=0 note=61 velocity=51 time=1
note_on channel=0 note=49 velocity=43 time=0
note_on channel=0 note=49 velocity=0 time=119
note_on channel=0 note=61 velocity=0 time=0
note_on channel=0 note=56 velocity=56 time=1
note_on channel=0 note=44 velocity=47 time=0
note_on channel=0 note=44 velocity=0 time=119
note_on channel=0 note=56 velocity=0 time=0
note_on channel=0 note=61 velocity=52 time=1
note_on channel=0 note=49 velocity=43 time=0
note_on channel=0 note=49 velocity=0 time=7
note_on channel=0 note=61 velocity=0 time=0
note_on channel=0 note=52 velocity=57 time=1
note_on channel=0 note=37 velocity=48 time=0
note_on channel=0 note=37 velocity=0 time=111
note_on channel=0 note=52 velocity=0 time=0
note_on channel=0 note=61 velocity=53 time=1
note_on channel=0 note=49 velocity=45 time=0
note_on channel=0 note=49 velocity=0 time=119
note_on channel=0 note=61 velocity=0 time=0
note_on channel=0 note=56 velocity=59 time=1
note_on channel=0 note=44 velocity=50 time=0
note_on channel=0 note=44 velocity=0 time=119
note_on channel=0 note=56 velocity=0 time=0
note_on channel=0 note=61 velocity=56 time=1
note_on channel=0 note=49 velocity=45 time=0
note_on channel=0 note=49 velocity=0 time=119
note_on channel=0 note=61 velocity=0 time=0
note_on channel=0 note=52 velocity=61 time=1
note_on channel=0 note=37 velocity=51 time=0
note_on channel=0 note=37 velocity=0 time=119
note_on channel=0 note=52 velocity=0 time=0
note_on channel=0 note=61 velocity=57 time=1
note_on channel=0 note=49 velocity=47 time=0
note_on channel=0 note=49 velocity=0 time=39
note_on channel=0 note=61 velocity=0 time=0
note_on channel=0 note=56 velocity=62 time=1
note_on channel=0 note=44 velocity=52 time=0
note_on channel=0 note=44 velocity=0 time=119
note_on channel=0 note=56 velocity=0 time=0
note_on channel=0 note=61 velocity=57 time=1
note_on channel=0 note=49 velocity=49 time=0
note_on channel=0 note=49 velocity=0 time=119
note_on channel=0 note=61 velocity=0 time=0
note_on channel=0 note=53 velocity=65 time=1
note_on channel=0 note=49 velocity=65 time=0
note_on channel=0 note=35 velocity=55 time=0
control_change channel=0 control=64 value=0 time=6
control_change channel=0 control=64 value=127 time=69
note_on channel=0 note=35 velocity=0 time=44
note_on channel=0 note=49 velocity=0 time=0
note_on channel=0 note=53 velocity=0 time=0
note_on channel=0 note=61 velocity=58 time=1
note_on channel=0 note=47 velocity=50 time=0
note_on channel=0 note=47 velocity=0 time=119
note_on channel=0 note=61 velocity=0 time=0
note_on channel=0 note=56 velocity=67 time=0
note_on channel=0 note=37 velocity=56 time=0
note_on channel=0 note=37 velocity=0 time=7
note_on channel=0 note=56 velocity=0 time=0
note_on channel=0 note=61 velocity=60 time=0
note_on channel=0 note=47 velocity=51 time=0
note_on channel=0 note=47 velocity=0 time=119
note_on channel=0 note=61 velocity=0 time=0
note_on channel=0 note=53 velocity=68 time=1
note_on channel=0 note=49 velocity=68 time=0
note_on channel=0 note=35 velocity=57 time=0
note_on channel=0 note=35 velocity=0 time=119
note_on channel=0 note=49 velocity=0 time=0
note_on channel=0 note=53 velocity=0 time=0
note_on channel=0 note=61 velocity=61 time=1
note_on channel=0 note=47 velocity=52 time=0
note_on channel=0 note=47 velocity=0 time=119
note_on channel=0 note=61 velocity=0 time=0
note_on channel=0 note=56 velocity=69 time=1
note_on channel=0 note=37 velocity=58 time=0
note_on channel=0 note=37 velocity=0 time=119
note_on channel=0 note=56 velocity=0 time=0
note_on channel=0 note=61 velocity=65 time=1
note_on channel=0 note=47 velocity=53 time=0
note_on channel=0 note=47 velocity=0 time=119
note_on channel=0 note=61 velocity=0 time=0
note_on channel=0 note=53 velocity=72 time=0
note_on channel=0 note=49 velocity=72 time=0
note_on channel=0 note=35 velocity=61 time=0
note_on channel=0 note=35 velocity=0 time=15
note_on channel=0 note=49 velocity=0 time=0
note_on channel=0 note=53 velocity=0 time=0
note_on channel=0 note=61 velocity=67 time=1
note_on channel=0 note=47 velocity=57 time=0
note_on channel=0 note=47 velocity=0 time=111
note_on channel=0 note=61 velocity=0 time=0
note_on channel=0 note=56 velocity=73 time=1
note_on channel=0 note=37 velocity=62 time=0
note_on channel=0 note=37 velocity=0 time=119
note_on channel=0 note=56 velocity=0 time=0
note_on channel=0 note=61 velocity=68 time=1
note_on channel=0 note=47 velocity=57 time=0
note_on channel=0 note=47 velocity=0 time=95
note_on channel=0 note=61 velocity=0 time=0
note_on channel=0 note=49 velocity=74 time=1
note_on channel=0 note=53 velocity=74 time=0
note_on channel=0 note=35 velocity=62 time=0
note_on channel=0 note=35 velocity=0 time=119
note_on channel=0 note=53 velocity=0 time=0
note_on channel=0 note=49 velocity=0 time=0
note_on channel=0 note=61 velocity=70 time=1
note_on channel=0 note=47 velocity=58 time=0
note_on channel=0 note=47 velocity=0 time=119
note_on channel=0 note=61 velocity=0 time=0
note_on channel=0 note=56 velocity=76 time=1
note_on channel=0 note=37 velocity=64 time=0
note_on channel=0 note=37 velocity=0 time=119
note_on channel=0 note=56 velocity=0 time=0
note_on channel=0 note=61 velocity=71 time=1
note_on channel=0 note=47 velocity=60 time=0
note_on channel=0 note=47 velocity=0 time=102
note_on channel=0 note=61 velocity=0 time=0
note_on channel=0 note=54 velocity=67 time=0
note_on channel=0 note=61 velocity=79 time=0
note_on channel=0 note=49 velocity=67 time=0
control_change channel=0 control=91 value=127 time=0
note_on channel=0 note=57 velocity=67 time=0
note_on channel=0 note=33 velocity=56 time=0
note_on channel=0 note=45 velocity=67 time=0
control_change channel=0 control=91 value=127 time=0
control_change channel=0 control=64 value=0 time=11
note_on channel=0 note=45 velocity=0 time=109
note_on channel=0 note=61 velocity=0 time=0
note_on channel=0 note=49 velocity=0 time=0
note_on channel=0 note=54 velocity=0 time=0
note_on channel=0 note=33 velocity=0 time=0
note_on channel=0 note=57 velocity=0 time=0
note_on channel=0 note=49 velocity=53 time=0
note_on channel=0 note=54 velocity=56 time=120
note_on channel=0 note=42 velocity=39 time=0
note_on channel=0 note=49 velocity=0 time=20
note_on channel=0 note=42 velocity=0 time=100
note_on channel=0 note=57 velocity=57 time=0
note_on channel=0 note=54 velocity=0 time=20
note_on channel=0 note=61 velocity=59 time=100
note_on channel=0 note=33 velocity=39 time=0
note_on channel=0 note=57 velocity=0 time=20
note_on channel=0 note=33 velocity=0 time=100
note_on channel=0 note=54 velocity=54 time=0
note_on channel=0 note=61 velocity=0 time=20
note_on channel=0 note=57 velocity=54 time=100
note_on channel=0 note=42 velocity=36 time=0
note_on channel=0 note=54 velocity=0 time=20
note_on channel=0 note=42 velocity=0 time=100
note_on channel=0 note=61 velocity=56 time=0
note_on channel=0 note=57 velocity=0 time=20
note_on channel=0 note=66 velocity=57 time=100
note_on channel=0 note=33 velocity=39 time=0
note_on channel=0 note=61 velocity=0 time=20
note_on channel=0 note=33 velocity=0 time=100
note_on channel=0 note=57 velocity=53 time=0
note_on channel=0 note=66 velocity=0 time=20
note_on channel=0 note=61 velocity=56 time=100
note_on channel=0 note=42 velocity=35 time=0
note_on channel=0 note=57 velocity=0 time=20
note_on channel=0 note=42 velocity=0 time=100
note_on channel=0 note=66 velocity=57 time=0
note_on channel=0 note=61 velocity=0 time=20
note_on channel=0 note=69 velocity=58 time=100
note_on channel=0 note=33 velocity=39 time=0
note_on channel=0 note=66 velocity=0 time=20
note_on channel=0 note=33 velocity=0 time=100
note_on channel=0 note=61 velocity=53 time=0
note_on channel=0 note=69 velocity=0 time=20
note_on channel=0 note=66 velocity=53 time=100
note_on channel=0 note=42 velocity=35 time=0
note_on channel=0 note=61 velocity=0 time=20
note_on channel=0 note=42 velocity=0 time=100
note_on channel=0 note=69 velocity=54 time=0
note_on channel=0 note=66 velocity=0 time=20
note_on channel=0 note=73 velocity=57 time=100
note_on channel=0 note=33 velocity=39 time=0
note_on channel=0 note=69 velocity=0 time=20
note_on channel=0 note=33 velocity=0 time=100
note_on channel=0 note=66 velocity=58 time=0
note_on channel=0 note=73 velocity=0 time=20
note_on channel=0 note=69 velocity=51 time=100
note_on channel=0 note=42 velocity=40 time=0
note_on channel=0 note=66 velocity=0 time=20
note_on channel=0 note=42 velocity=0 time=100
note_on channel=0 note=73 velocity=52 time=0
note_on channel=0 note=69 velocity=0 time=20
note_on channel=0 note=78 velocity=56 time=100
note_on channel=0 note=33 velocity=40 time=0
note_on channel=0 note=73 velocity=0 time=20
note_on channel=0 note=33 velocity=0 time=100
note_on channel=0 note=69 velocity=51 time=0
note_on channel=0 note=78 velocity=0 time=20
note_on channel=0 note=73 velocity=51 time=100
note_on channel=0 note=42 velocity=40 time=0
note_on channel=0 note=69 velocity=0 time=20
note_on channel=0 note=42 velocity=0 time=100
note_on channel=0 note=78 velocity=53 time=0
note_on channel=0 note=73 velocity=0 time=20
note_on channel=0 note=81 velocity=56 time=100
note_on channel=0 note=33 velocity=40 time=0
note_on channel=0 note=78 velocity=0 time=20
note_on channel=0 note=33 velocity=0 time=100
note_on channel=0 note=73 velocity=51 time=0
note_on channel=0 note=81 velocity=0 time=20
note_on channel=0 note=78 velocity=54 time=100
note_on channel=0 note=42 velocity=36 time=0
note_on channel=0 note=73 velocity=0 time=20
note_on channel=0 note=42 velocity=0 time=100
note_on channel=0 note=81 velocity=57 time=0
note_on channel=0 note=78 velocity=0 time=20
note_on channel=0 note=81 velocity=0 time=0
note_on channel=0 note=85 velocity=98 time=0
note_on channel=0 note=73 velocity=83 time=0
note_on channel=0 note=81 velocity=98 time=0
note_on channel=0 note=78 velocity=83 time=0
note_on channel=0 note=45 velocity=81 time=0
note_on channel=0 note=33 velocity=69 time=0
control_change channel=0 control=64 value=127 time=50
note_on channel=0 note=33 velocity=0 time=70
note_on channel=0 note=73 velocity=0 time=0
note_on channel=0 note=81 velocity=0 time=0
note_on channel=0 note=85 velocity=0 time=0
note_on channel=0 note=45 velocity=0 time=0
note_on channel=0 note=78 velocity=0 time=0
note_on channel=0 note=81 velocity=81 time=120
note_on channel=0 note=78 velocity=69 time=0
note_on channel=0 note=85 velocity=81 time=0
note_on channel=0 note=73 velocity=69 time=0
note_on channel=0 note=42 velocity=69 time=0
note_on channel=0 note=42 velocity=0 time=120
note_on channel=0 note=85 velocity=0 time=0
note_on channel=0 note=81 velocity=0 time=0
note_on channel=0 note=78 velocity=0 time=0
note_on channel=0 note=73 velocity=0 time=0
note_on channel=0 note=32 velocity=52 time=120
control_change channel=0 control=64 value=0 time=7
note_on channel=0 note=32 velocity=0 time=105
note_on channel=0 note=49 velocity=58 time=0
note_on channel=0 note=52 velocity=60 time=120
note_on channel=0 note=40 velocity=47 time=0
note_on channel=0 note=49 velocity=0 time=20
note_on channel=0 note=40 velocity=0 time=100
note_on channel=0 note=56 velocity=62 time=0
note_on channel=0 note=52 velocity=0 time=20
note_on channel=0 note=61 velocity=65 time=100
note_on channel=0 note=32 velocity=52 time=0
note_on channel=0 note=56 velocity=0 time=20
note_on channel=0 note=32 velocity=0 time=100
note_on channel=0 note=52 velocity=60 time=0
note_on channel=0 note=61 velocity=0 time=20
note_on channel=0 note=56 velocity=62 time=100
note_on channel=0 note=40 velocity=48 time=0
note_on channel=0 note=52 velocity=0 time=20
note_on channel=0 note=40 velocity=0 time=100
note_on channel=0 note=61 velocity=63 time=0
note_on channel=0 note=56 velocity=0 time=20
note_on channel=0 note=64 velocity=66 time=100
note_on channel=0 note=32 velocity=52 time=0
note_on channel=0 note=61 velocity=0 time=20
note_on channel=0 note=32 velocity=0 time=100
note_on channel=0 note=56 velocity=61 time=0
note_on channel=0 note=64 velocity=0 time=20
note_on channel=0 note=61 velocity=62 time=100
note_on channel=0 note=40 velocity=48 time=0
note_on channel=0 note=56 velocity=0 time=20
note_on channel=0 note=40 velocity=0 time=100
note_on channel=0 note=64 velocity=63 time=0
note_on channel=0 note=61 velocity=0 time=20
note_on channel=0 note=68 velocity=67 time=100
note_on channel=0 note=32 velocity=52 time=0
note_on channel=0 note=64 velocity=0 time=20
note_on channel=0 note=32 velocity=0 time=100
note_on channel=0 note=61 velocity=61 time=0
note_on channel=0 note=68 velocity=0 time=20
note_on channel=0 note=64 velocity=62 time=100
note_on channel=0 note=40 velocity=52 time=0
note_on channel=0 note=61 velocity=0 time=20
note_on channel=0 note=40 velocity=0 time=100
note_on channel=0 note=68 velocity=63 time=0
note_on channel=0 note=64 velocity=0 time=20
note_on channel=0 note=73 velocity=66 time=100
note_on channel=0 note=32 velocity=52 time=0
note_on channel=0 note=68 velocity=0 time=20
note_on channel=0 note=32 velocity=0 time=100
note_on channel=0 note=64 velocity=63 time=0
note_on channel=0 note=73 velocity=0 time=20
note_on channel=0 note=68 velocity=63 time=100
note_on channel=0 note=40 velocity=52 time=0
note_on channel=0 note=64 velocity=0 time=20
note_on channel=0 note=40 velocity=0 time=100
note_on channel=0 note=73 velocity=62 time=0
note_on channel=0 note=68 velocity=0 time=20
note_on channel=0 note=76 velocity=66 time=100
note_on channel=0 note=32 velocity=52 time=0
note_on channel=0 note=73 velocity=0 time=20
note_on channel=0 note=32 velocity=0 time=100
note_on channel=0 note=68 velocity=62 time=0
note_on channel=0 note=76 velocity=0 time=20
note_on channel=0 note=73 velocity=62 time=100
note_on channel=0 note=40 velocity=48 time=0
note_on channel=0 note=68 velocity=0 time=20
note_on channel=0 note=40 velocity=0 time=100
note_on channel=0 note=76 velocity=67 time=0
note_on channel=0 note=73 velocity=0 time=20
note_on channel=0 note=80 velocity=68 time=100
note_on channel=0 note=32 velocity=52 time=0
note_on channel=0 note=76 velocity=0 time=20
note_on channel=0 note=32 velocity=0 time=100
note_on channel=0 note=73 velocity=62 time=0
note_on channel=0 note=80 velocity=0 time=20
note_on channel=0 note=76 velocity=66 time=100
note_on channel=0 note=40 velocity=48 time=0
note_on channel=0 note=73 velocity=0 time=20
note_on channel=0 note=40 velocity=0 time=100
note_on channel=0 note=80 velocity=68 time=0
note_on channel=0 note=76 velocity=0 time=20
note_on channel=0 note=80 velocity=0 time=0
note_on channel=0 note=85 velocity=109 time=0
note_on channel=0 note=76 velocity=92 time=0
note_on channel=0 note=73 velocity=92 time=0
note_on channel=0 note=80 velocity=109 time=0
note_on channel=0 note=32 velocity=72 time=0
note_on channel=0 note=44 velocity=86 time=0
control_change channel=0 control=64 value=127 time=78
note_on channel=0 note=44 velocity=0 time=42
note_on channel=0 note=76 velocity=0 time=0
note_on channel=0 note=73 velocity=0 time=0
note_on channel=0 note=85 velocity=0 time=0
note_on channel=0 note=32 velocity=0 time=0
note_on channel=0 note=80 velocity=0 time=0
note_on channel=0 note=73 velocity=81 time=0
note_on channel=0 note=76 velocity=81 time=0
note_on channel=0 note=80 velocity=96 time=0
note_on channel=0 note=85 velocity=96 time=0
note_on channel=0 note=40 velocity=77 time=0
note_on channel=0 note=40 velocity=0 time=120
note_on channel=0 note=80 velocity=0 time=0
note_on channel=0 note=73 velocity=0 time=0
note_on channel=0 note=76 velocity=0 time=0
note_on channel=0 note=85 velocity=0 time=0
note_on channel=0 note=31 velocity=39 time=0
control_change channel=0 control=64 value=0 time=0
control_change channel=0 control=64 value=127 time=75
note_on channel=0 note=49 velocity=31 time=165
note_on channel=0 note=52 velocity=33 time=60
note_on channel=0 note=55 velocity=35 time=60
note_on channel=0 note=58 velocity=39 time=60
note_on channel=0 note=61 velocity=45 time=60
note_on channel=0 note=31 velocity=0 time=240
note_on channel=0 note=31 velocity=45 time=0
note_on channel=0 note=34 velocity=47 time=60
note_on channel=0 note=37 velocity=50 time=60
note_on channel=0 note=40 velocity=51 time=60
note_on channel=0 note=43 velocity=53 time=60
note_on channel=0 note=52 velocity=0 time=240
note_on channel=0 note=58 velocity=0 time=0
note_on channel=0 note=49 velocity=0 time=0
note_on channel=0 note=55 velocity=0 time=0
note_on channel=0 note=61 velocity=0 time=0
note_on channel=0 note=61 velocity=53 time=0
note_on channel=0 note=64 velocity=56 time=60
note_on channel=0 note=67 velocity=58 time=60
note_on channel=0 note=70 velocity=61 time=60
note_on channel=0 note=73 velocity=62 time=60
note_on channel=0 note=31 velocity=0 time=240
note_on channel=0 note=37 velocity=0 time=0
note_on channel=0 note=43 velocity=0 time=0
note_on channel=0 note=40 velocity=0 time=0
note_on channel=0 note=34 velocity=0 time=0
note_on channel=0 note=43 velocity=51 time=0
note_on channel=0 note=46 velocity=56 time=60
note_on channel=0 note=49 velocity=58 time=60
note_on channel=0 note=52 velocity=61 time=60
note_on channel=0 note=73 velocity=0 time=0
note_on channel=0 note=55 velocity=63 time=0
note_on channel=0 note=55 velocity=0 time=240
note_on channel=0 note=61 velocity=0 time=0
note_on channel=0 note=67 velocity=0 time=0
note_on channel=0 note=70 velocity=0 time=0
note_on channel=0 note=64 velocity=0 time=0
note_on channel=0 note=73 velocity=66 time=0
note_on channel=0 note=76 velocity=68 time=60
note_on channel=0 note=79 velocity=73 time=60
note_on channel=0 note=82 velocity=76 time=60
note_on channel=0 note=49 velocity=0 time=60
note_on channel=0 note=46 velocity=0 time=0
note_on channel=0 note=52 velocity=0 time=0
note_on channel=0 note=43 velocity=0 time=0
note_on channel=0 note=85 velocity=79 time=0
note_on channel=0 note=64 velocity=79 time=0
note_on channel=0 note=61 velocity=79 time=0
note_on channel=0 note=55 velocity=67 time=0
note_on channel=0 note=58 velocity=67 time=0
note_on channel=0 note=58 velocity=0 time=0
note_on channel=0 note=73 velocity=0 time=0
note_on channel=0 note=82 velocity=0 time=0
note_on channel=0 note=85 velocity=0 time=0
note_on channel=0 note=76 velocity=0 time=0
note_on channel=0 note=79 velocity=0 time=0
note_on channel=0 note=61 velocity=0 time=0
note_on channel=0 note=64 velocity=0 time=0
note_on channel=0 note=55 velocity=0 time=0
note_on channel=0 note=30 velocity=47 time=0
control_change channel=0 control=64 value=0 time=0
control_change channel=0 control=64 value=127 time=60
note_on channel=0 note=45 velocity=29 time=180
note_on channel=0 note=48 velocity=32 time=60
note_on channel=0 note=51 velocity=35 time=60
note_on channel=0 note=54 velocity=38 time=60
note_on channel=0 note=57 velocity=41 time=60
note_on channel=0 note=30 velocity=0 time=240
note_on channel=0 note=30 velocity=41 time=0
note_on channel=0 note=33 velocity=43 time=60
note_on channel=0 note=36 velocity=47 time=60
note_on channel=0 note=39 velocity=49 time=60
note_on channel=0 note=42 velocity=52 time=60
note_on channel=0 note=48 velocity=0 time=240
note_on channel=0 note=54 velocity=0 time=0
note_on channel=0 note=45 velocity=0 time=0
note_on channel=0 note=51 velocity=0 time=0
note_on channel=0 note=57 velocity=0 time=0
note_on channel=0 note=57 velocity=56 time=0
note_on channel=0 note=60 velocity=57 time=60
note_on channel=0 note=63 velocity=58 time=60
note_on channel=0 note=66 velocity=59 time=60
note_on channel=0 note=69 velocity=62 time=60
note_on channel=0 note=30 velocity=0 time=240
note_on channel=0 note=36 velocity=0 time=0
note_on channel=0 note=42 velocity=0 time=0
note_on channel=0 note=39 velocity=0 time=0
note_on channel=0 note=33 velocity=0 time=0
note_on channel=0 note=42 velocity=54 time=0
note_on channel=0 note=45 velocity=56 time=60
note_on channel=0 note=48 velocity=58 time=60
note_on channel=0 note=51 velocity=61 time=60
note_on channel=0 note=69 velocity=0 time=0
note_on channel=0 note=54 velocity=62 time=0
note_on channel=0 note=69 velocity=73 time=120
note_on channel=0 note=54 velocity=0 time=120
note_on channel=0 note=57 velocity=0 time=0
note_on channel=0 note=63 velocity=0 time=0
note_on channel=0 note=66 velocity=0 time=0
note_on channel=0 note=60 velocity=0 time=0
note_on channel=0 note=72 velocity=77 time=0
note_on channel=0 note=75 velocity=79 time=120
note_on channel=0 note=42 velocity=0 time=120
note_on channel=0 note=48 velocity=0 time=0
note_on channel=0 note=51 velocity=0 time=0
note_on channel=0 note=45 velocity=0 time=0
note_on channel=0 note=81 velocity=91 time=0
note_on channel=0 note=63 velocity=79 time=0
note_on channel=0 note=57 velocity=67 time=0
note_on channel=0 note=54 velocity=67 time=0
note_on channel=0 note=60 velocity=79 time=0
note_on channel=0 note=60 velocity=0 time=0
note_on channel=0 note=72 velocity=0 time=0
note_on channel=0 note=63 velocity=0 time=0
note_on channel=0 note=75 velocity=0 time=0
note_on channel=0 note=69 velocity=0 time=0
note_on channel=0 note=81 velocity=0 time=0
note_on channel=0 note=57 velocity=0 time=0
note_on channel=0 note=54 velocity=0 time=0
note_on channel=0 note=49 velocity=41 time=0
control_change channel=0 control=64 value=0 time=0
note_on channel=0 note=68 velocity=31 time=120
note_on channel=0 note=49 velocity=0 time=120
note_on channel=0 note=64 velocity=34 time=0
note_on channel=0 note=68 velocity=0 time=20
note_on channel=0 note=68 velocity=30 time=100
note_on channel=0 note=64 velocity=0 time=20
note_on channel=0 note=61 velocity=39 time=0
note_on channel=0 note=56 velocity=56 time=0
note_on channel=0 note=68 velocity=0 time=20
control_change channel=0 control=64 value=127 time=86
note_on channel=0 note=61 velocity=0 time=13
note_on channel=0 note=68 velocity=30 time=0
note_on channel=0 note=68 velocity=0 time=119
note_on channel=0 note=64 velocity=34 time=0
note_on channel=0 note=64 velocity=0 time=39
note_on channel=0 note=68 velocity=30 time=1
note_on channel=0 note=68 velocity=0 time=39
note_on channel=0 note=61 velocity=39 time=1
note_on channel=0 note=61 velocity=0 time=79
note_on channel=0 note=68 velocity=31 time=1
note_on channel=0 note=68 velocity=0 time=79
note_on channel=0 note=64 velocity=34 time=0
note_on channel=0 note=64 velocity=0 time=119
note_on channel=0 note=68 velocity=30 time=0
note_on channel=0 note=68 velocity=0 time=39
note_on channel=0 note=56 velocity=0 time=0
note_on channel=0 note=61 velocity=39 time=0
note_on channel=0 note=52 velocity=48 time=0
note_on channel=0 note=61 velocity=0 time=119
note_on channel=0 note=68 velocity=31 time=1
note_on channel=0 note=68 velocity=0 time=119
note_on channel=0 note=64 velocity=34 time=1
note_on channel=0 note=64 velocity=0 time=119
note_on channel=0 note=52 velocity=0 time=1
note_on channel=0 note=68 velocity=31 time=0
note_on channel=0 note=49 velocity=48 time=0
note_on channel=0 note=49 velocity=0 time=115
note_on channel=0 note=68 velocity=0 time=4
note_on channel=0 note=63 velocity=39 time=1
note_on channel=0 note=49 velocity=54 time=0
control_change channel=0 control=64 value=0 time=14
note_on channel=0 note=68 velocity=31 time=106
note_on channel=0 note=63 velocity=0 time=20
note_on channel=0 note=66 velocity=34 time=100
note_on channel=0 note=68 velocity=0 time=20
note_on channel=0 note=68 velocity=30 time=100
note_on channel=0 note=66 velocity=0 time=20
note_on channel=0 note=49 velocity=0 time=0
note_on channel=0 note=63 velocity=50 time=0
note_on channel=0 note=48 velocity=47 time=0
note_on channel=0 note=68 velocity=0 time=20
control_change channel=0 control=64 value=127 time=72
note_on channel=0 note=63 velocity=0 time=27
note_on channel=0 note=68 velocity=43 time=1
note_on channel=0 note=68 velocity=0 time=119
note_on channel=0 note=66 velocity=47 time=1
note_on channel=0 note=66 velocity=0 time=119
note_on channel=0 note=68 velocity=44 time=1
note_on channel=0 note=68 velocity=0 time=119
note_on channel=0 note=63 velocity=58 time=1
note_on channel=0 note=63 velocity=0 time=119
note_on channel=0 note=68 velocity=46 time=1
note_on channel=0 note=68 velocity=0 time=119
note_on channel=0 note=48 velocity=0 time=1
note_on channel=0 note=66 velocity=54 time=0
note_on channel=0 note=48 velocity=47 time=0
note_on channel=0 note=66 velocity=0 time=119
note_on channel=0 note=68 velocity=51 time=1
note_on channel=0 note=68 velocity=0 time=119
note_on channel=0 note=48 velocity=0 time=0
note_on channel=0 note=63 velocity=66 time=0
note_on channel=0 note=56 velocity=56 time=0
note_on channel=0 note=63 velocity=0 time=119
note_on channel=0 note=68 velocity=49 time=1
note_on channel=0 note=68 velocity=0 time=119
note_on channel=0 note=66 velocity=51 time=1
note_on channel=0 note=66 velocity=0 time=119
note_on channel=0 note=56 velocity=0 time=1
note_on channel=0 note=68 velocity=43 time=0
note_on channel=0 note=48 velocity=47 time=0
note_on channel=0 note=68 velocity=0 time=119
note_on channel=0 note=48 velocity=0 time=0
note_on channel=0 note=61 velocity=39 time=0
note_on channel=0 note=51 velocity=43 time=0
control_change channel=0 control=64 value=0 time=0
note_on channel=0 note=68 velocity=30 time=120
note_on channel=0 note=61 velocity=0 time=20
note_on channel=0 note=64 velocity=34 time=100
note_on channel=0 note=68 velocity=0 time=20
note_on channel=0 note=68 velocity=31 time=100
note_on channel=0 note=64 velocity=0 time=20
note_on channel=0 note=51 velocity=0 time=0
note_on channel=0 note=61 velocity=50 time=0
note_on channel=0 note=49 velocity=47 time=0
note_on channel=0 note=68 velocity=0 time=20
control_change channel=0 control=64 value=127 time=93
note_on channel=0 note=61 velocity=0 time=6
note_on channel=0 note=68 velocity=40 time=1
note_on channel=0 note=68 velocity=0 time=119
note_on channel=0 note=64 velocity=47 time=1
note_on channel=0 note=64 velocity=0 time=119
note_on channel=0 note=68 velocity=43 time=1
note_on channel=0 note=68 velocity=0 time=119
note_on channel=0 note=61 velocity=58 time=1
note_on channel=0 note=61 velocity=0 time=119
note_on channel=0 note=68 velocity=48 time=1
note_on channel=0 note=68 velocity=0 time=119
note_on channel=0 note=49 velocity=0 time=0
note_on channel=0 note=64 velocity=54 time=0
note_on channel=0 note=49 velocity=48 time=0
note_on channel=0 note=64 velocity=0 time=119
note_on channel=0 note=68 velocity=49 time=1
note_on channel=0 note=68 velocity=0 time=119
note_on channel=0 note=49 velocity=0 time=1
note_on channel=0 note=61 velocity=66 time=0
note_on channel=0 note=56 velocity=53 time=0
note_on channel=0 note=61 velocity=0 time=119
note_on channel=0 note=68 velocity=49 time=1
note_on channel=0 note=68 velocity=0 time=119
note_on channel=0 note=64 velocity=51 time=1
note_on channel=0 note=64 velocity=0 time=119
note_on channel=0 note=56 velocity=0 time=1
note_on channel=0 note=68 velocity=42 time=0
note_on channel=0 note=49 velocity=47 time=0
note_on channel=0 note=68 velocity=0 time=119
note_on channel=0 note=49 velocity=0 time=0
note_on channel=0 note=60 velocity=39 time=0
note_on channel=0 note=52 velocity=43 time=0
control_change channel=0 control=64 value=0 time=5
note_on channel=0 note=68 velocity=29 time=115
note_on channel=0 note=60 velocity=0 time=20
note_on channel=0 note=66 velocity=34 time=100
note_on channel=0 note=68 velocity=0 time=20
note_on channel=0 note=68 velocity=30 time=100
note_on channel=0 note=66 velocity=0 time=20
note_on channel=0 note=52 velocity=0 time=0
note_on channel=0 note=60 velocity=50 time=0
note_on channel=0 note=51 velocity=47 time=0
note_on channel=0 note=68 velocity=0 time=20
control_change channel=0 control=64 value=127 time=49
note_on channel=0 note=60 velocity=0 time=50
note_on channel=0 note=68 velocity=40 time=1
note_on channel=0 note=68 velocity=0 time=119
note_on channel=0 note=66 velocity=47 time=1
note_on channel=0 note=66 velocity=0 time=119
note_on channel=0 note=68 velocity=43 time=1
note_on channel=0 note=68 velocity=0 time=119
note_on channel=0 note=60 velocity=58 time=1
note_on channel=0 note=60 velocity=0 time=119
note_on channel=0 note=68 velocity=49 time=1
note_on channel=0 note=68 velocity=0 time=119
note_on channel=0 note=51 velocity=0 time=0
note_on channel=0 note=66 velocity=54 time=0
note_on channel=0 note=51 velocity=48 time=0
note_on channel=0 note=66 velocity=0 time=119
note_on channel=0 note=68 velocity=49 time=1
note_on channel=0 note=68 velocity=0 time=119
note_on channel=0 note=51 velocity=0 time=1
note_on channel=0 note=60 velocity=66 time=0
note_on channel=0 note=56 velocity=53 time=0
note_on channel=0 note=60 velocity=0 time=119
note_on channel=0 note=68 velocity=48 time=1
note_on channel=0 note=68 velocity=0 time=119
note_on channel=0 note=66 velocity=51 time=1
note_on channel=0 note=66 velocity=0 time=119
note_on channel=0 note=56 velocity=0 time=1
note_on channel=0 note=68 velocity=43 time=0
note_on channel=0 note=51 velocity=47 time=0
note_on channel=0 note=68 velocity=0 time=102
note_on channel=0 note=51 velocity=0 time=18
note_on channel=0 note=64 velocity=41 time=0
note_on channel=0 note=68 velocity=41 time=0
note_on channel=0 note=61 velocity=41 time=0
note_on channel=0 note=52 velocity=40 time=0
control_change channel=0 control=64 value=0 time=10
note_on channel=0 note=56 velocity=35 time=110
note_on channel=0 note=52 velocity=0 time=20
note_on channel=0 note=61 velocity=0 time=100
note_on channel=0 note=64 velocity=0 time=0
note_on channel=0 note=68 velocity=0 time=0
note_on channel=0 note=52 velocity=40 time=0
note_on channel=0 note=56 velocity=0 time=20
note_on channel=0 note=56 velocity=34 time=100
note_on channel=0 note=52 velocity=0 time=20
note_on channel=0 note=80 velocity=57 time=0
note_on channel=0 note=68 velocity=57 time=0
note_on channel=0 note=52 velocity=47 time=0
note_on channel=0 note=56 velocity=0 time=20
control_change channel=0 control=64 value=127 time=44
note_on channel=0 note=52 velocity=0 time=55
note_on channel=0 note=56 velocity=34 time=1
note_on channel=0 note=56 velocity=0 time=119
note_on channel=0 note=52 velocity=40 time=1
note_on channel=0 note=52 velocity=0 time=119
note_on channel=0 note=56 velocity=34 time=1
note_on channel=0 note=56 velocity=0 time=119
note_on channel=0 note=52 velocity=47 time=1
note_on channel=0 note=52 velocity=0 time=119
note_on channel=0 note=56 velocity=34 time=1
note_on channel=0 note=56 velocity=0 time=119
note_on channel=0 note=52 velocity=39 time=1
note_on channel=0 note=52 velocity=0 time=119
note_on channel=0 note=56 velocity=34 time=1
note_on channel=0 note=56 velocity=0 time=119
note_on channel=0 note=68 velocity=0 time=0
note_on channel=0 note=80 velocity=0 time=0
note_on channel=0 note=64 velocity=47 time=0
note_on channel=0 note=76 velocity=47 time=0
note_on channel=0 note=52 velocity=47 time=0
note_on channel=0 note=52 velocity=0 time=119
note_on channel=0 note=56 velocity=35 time=1
note_on channel=0 note=56 velocity=0 time=119
note_on channel=0 note=52 velocity=40 time=1
note_on channel=0 note=52 velocity=0 time=119
note_on channel=0 note=76 velocity=0 time=1
note_on channel=0 note=64 velocity=0 time=0
note_on channel=0 note=61 velocity=47 time=0
note_on channel=0 note=73 velocity=47 time=0
note_on channel=0 note=56 velocity=34 time=0
note_on channel=0 note=73 velocity=0 time=115
note_on channel=0 note=61 velocity=0 time=0
note_on channel=0 note=56 velocity=0 time=4
note_on channel=0 note=73 velocity=54 time=1
note_on channel=0 note=61 velocity=54 time=0
note_on channel=0 note=54 velocity=47 time=0
control_change channel=0 control=64 value=0 time=9
control_change channel=0 control=64 value=127 time=83
note_on channel=0 note=54 velocity=0 time=27
note_on channel=0 note=56 velocity=33 time=1
note_on channel=0 note=56 velocity=0 time=119
note_on channel=0 note=54 velocity=39 time=1
note_on channel=0 note=54 velocity=0 time=119
note_on channel=0 note=56 velocity=34 time=1
note_on channel=0 note=56 velocity=0 time=119
note_on channel=0 note=61 velocity=0 time=0
note_on channel=0 note=73 velocity=0 time=0
note_on channel=0 note=72 velocity=46 time=0
note_on channel=0 note=60 velocity=46 time=0
note_on channel=0 note=54 velocity=55 time=0
control_change channel=0 control=64 value=0 time=17
control_change channel=0 control=64 value=127 time=61
note_on channel=0 note=54 velocity=0 time=41
note_on channel=0 note=56 velocity=45 time=1
note_on channel=0 note=56 velocity=0 time=119
note_on channel=0 note=54 velocity=57 time=1
note_on channel=0 note=54 velocity=0 time=119
note_on channel=0 note=56 velocity=53 time=1
note_on channel=0 note=56 velocity=0 time=119
note_on channel=0 note=54 velocity=67 time=0
note_on channel=0 note=54 velocity=0 time=119
note_on channel=0 note=56 velocity=52 time=1
note_on channel=0 note=56 velocity=0 time=119
note_on channel=0 note=60 velocity=0 time=0
note_on channel=0 note=72 velocity=0 time=0
note_on channel=0 note=72 velocity=47 time=0
note_on channel=0 note=60 velocity=47 time=0
note_on channel=0 note=54 velocity=62 time=0
note_on channel=0 note=54 velocity=0 time=119
note_on channel=0 note=56 velocity=56 time=1
note_on channel=0 note=56 velocity=0 time=119
note_on channel=0 note=60 velocity=0 time=0
note_on channel=0 note=72 velocity=0 time=0
note_on channel=0 note=80 velocity=56 time=0
note_on channel=0 note=68 velocity=56 time=0
note_on channel=0 note=54 velocity=71 time=0
note_on channel=0 note=54 velocity=0 time=119
note_on channel=0 note=56 velocity=56 time=1
note_on channel=0 note=56 velocity=0 time=119
note_on channel=0 note=54 velocity=58 time=1
note_on channel=0 note=54 velocity=0 time=119
note_on channel=0 note=68 velocity=0 time=1
note_on channel=0 note=80 velocity=0 time=0
note_on channel=0 note=60 velocity=47 time=0
note_on channel=0 note=72 velocity=47 time=0
note_on channel=0 note=56 velocity=49 time=0
note_on channel=0 note=56 velocity=0 time=119
note_on channel=0 note=72 velocity=0 time=0
note_on channel=0 note=60 velocity=0 time=0
note_on channel=0 note=63 velocity=46 time=0
note_on channel=0 note=75 velocity=46 time=0
note_on channel=0 note=52 velocity=47 time=0
control_change channel=0 control=64 value=0 time=10
control_change channel=0 control=64 value=127 time=75
note_on channel=0 note=52 velocity=0 time=34
note_on channel=0 note=56 velocity=34 time=1
note_on channel=0 note=56 velocity=0 time=119
note_on channel=0 note=52 velocity=40 time=1
note_on channel=0 note=52 velocity=0 time=119
note_on channel=0 note=56 velocity=34 time=1
note_on channel=0 note=56 velocity=0 time=119
note_on channel=0 note=75 velocity=0 time=0
note_on channel=0 note=63 velocity=0 time=0
note_on channel=0 note=61 velocity=47 time=0
note_on channel=0 note=73 velocity=47 time=0
note_on channel=0 note=52 velocity=56 time=0
control_change channel=0 control=64 value=0 time=13
control_change channel=0 control=64 value=127 time=65
note_on channel=0 note=52 velocity=0 time=41
note_on channel=0 note=56 velocity=47 time=1
note_on channel=0 note=56 velocity=0 time=119
note_on channel=0 note=52 velocity=57 time=1
note_on channel=0 note=52 velocity=0 time=119
note_on channel=0 note=56 velocity=50 time=1
note_on channel=0 note=56 velocity=0 time=119
note_on channel=0 note=52 velocity=68 time=1
note_on channel=0 note=52 velocity=0 time=119
note_on channel=0 note=56 velocity=52 time=1
note_on channel=0 note=56 velocity=0 time=119
note_on channel=0 note=73 velocity=0 time=0
note_on channel=0 note=61 velocity=0 time=0
note_on channel=0 note=73 velocity=46 time=0
note_on channel=0 note=61 velocity=46 time=0
note_on channel=0 note=52 velocity=64 time=0
note_on channel=0 note=52 velocity=0 time=119
note_on channel=0 note=56 velocity=57 time=1
note_on channel=0 note=56 velocity=0 time=119
note_on channel=0 note=61 velocity=0 time=0
note_on channel=0 note=73 velocity=0 time=0
note_on channel=0 note=80 velocity=56 time=0
note_on channel=0 note=68 velocity=56 time=0
note_on channel=0 note=52 velocity=75 time=0
note_on channel=0 note=52 velocity=0 time=119
note_on channel=0 note=56 velocity=56 time=1
note_on channel=0 note=56 velocity=0 time=119
note_on channel=0 note=52 velocity=61 time=1
note_on channel=0 note=52 velocity=0 time=119
note_on channel=0 note=68 velocity=0 time=1
note_on channel=0 note=80 velocity=0 time=0
note_on channel=0 note=61 velocity=46 time=0
note_on channel=0 note=73 velocity=46 time=0
note_on channel=0 note=56 velocity=49 time=0
note_on channel=0 note=56 velocity=0 time=119
note_on channel=0 note=73 velocity=0 time=0
note_on channel=0 note=61 velocity=0 time=0
note_on channel=0 note=76 velocity=49 time=0
note_on channel=0 note=64 velocity=49 time=0
note_on channel=0 note=48 velocity=47 time=0
control_change channel=0 control=64 value=0 time=12
control_change channel=0 control=64 value=127 time=74
note_on channel=0 note=48 velocity=0 time=33
note_on channel=0 note=56 velocity=37 time=1
note_on channel=0 note=56 velocity=0 time=119
note_on channel=0 note=48 velocity=41 time=1
note_on channel=0 note=48 velocity=0 time=119
note_on channel=0 note=56 velocity=35 time=1
note_on channel=0 note=56 velocity=0 time=119
note_on channel=0 note=64 velocity=0 time=0
note_on channel=0 note=76 velocity=0 time=0
note_on channel=0 note=75 velocity=48 time=0
note_on channel=0 note=63 velocity=48 time=0
note_on channel=0 note=48 velocity=59 time=0
control_change channel=0 control=64 value=0 time=17
control_change channel=0 control=64 value=127 time=69
note_on channel=0 note=48 velocity=0 time=33
note_on channel=0 note=56 velocity=47 time=1
note_on channel=0 note=56 velocity=0 time=119
note_on channel=0 note=48 velocity=56 time=1
note_on channel=0 note=48 velocity=0 time=119
note_on channel=0 note=56 velocity=49 time=1
note_on channel=0 note=56 velocity=0 time=119
note_on channel=0 note=48 velocity=69 time=1
note_on channel=0 note=48 velocity=0 time=119
note_on channel=0 note=56 velocity=52 time=1
note_on channel=0 note=56 velocity=0 time=7
note_on channel=0 note=63 velocity=0 time=1
note_on channel=0 note=75 velocity=0 time=0
note_on channel=0 note=63 velocity=47 time=0
note_on channel=0 note=75 velocity=47 time=0
note_on channel=0 note=48 velocity=62 time=0
note_on channel=0 note=48 velocity=0 time=119
note_on channel=0 note=56 velocity=56 time=1
note_on channel=0 note=56 velocity=0 time=119
note_on channel=0 note=75 velocity=0 time=1
note_on channel=0 note=63 velocity=0 time=0
note_on channel=0 note=80 velocity=54 time=0
note_on channel=0 note=68 velocity=54 time=0
note_on channel=0 note=48 velocity=77 time=0
note_on channel=0 note=48 velocity=0 time=119
note_on channel=0 note=56 velocity=54 time=1
note_on channel=0 note=56 velocity=0 time=119
note_on channel=0 note=48 velocity=58 time=1
note_on channel=0 note=48 velocity=0 time=119
note_on channel=0 note=68 velocity=0 time=1
note_on channel=0 note=80 velocity=0 time=0
note_on channel=0 note=75 velocity=47 time=0
note_on channel=0 note=63 velocity=47 time=0
note_on channel=0 note=56 velocity=47 time=0
note_on channel=0 note=56 velocity=0 time=119
note_on channel=0 note=63 velocity=0 time=1
note_on channel=0 note=75 velocity=0 time=0
note_on channel=0 note=66 velocity=50 time=0
note_on channel=0 note=78 velocity=50 time=0
note_on channel=0 note=49 velocity=47 time=0
control_change channel=0 control=64 value=0 time=2
note_on channel=0 note=56 velocity=43 time=110
note_on channel=0 note=49 velocity=0 time=20
note_on channel=0 note=66 velocity=0 time=100
note_on channel=0 note=78 velocity=0 time=0
note_on channel=0 note=64 velocity=48 time=0
note_on channel=0 note=76 velocity=48 time=0
note_on channel=0 note=49 velocity=47 time=0
note_on channel=0 note=56 velocity=0 time=20
note_on channel=0 note=56 velocity=43 time=100
note_on channel=0 note=49 velocity=0 time=20
note_on channel=0 note=64 velocity=0 time=80
note_on channel=0 note=76 velocity=0 time=0
note_on channel=0 note=85 velocity=54 time=0
note_on channel=0 note=73 velocity=54 time=0
note_on channel=0 note=49 velocity=49 time=0
note_on channel=0 note=56 velocity=0 time=20
note_on channel=0 note=85 velocity=0 time=100
note_on channel=0 note=73 velocity=0 time=0
note_on channel=0 note=56 velocity=46 time=0
note_on channel=0 note=49 velocity=0 time=20
note_on channel=0 note=64 velocity=51 time=100
note_on channel=0 note=76 velocity=51 time=0
note_on channel=0 note=49 velocity=51 time=0
note_on channel=0 note=56 velocity=0 time=20
note_on channel=0 note=64 velocity=0 time=100
note_on channel=0 note=76 velocity=0 time=0
note_on channel=0 note=56 velocity=48 time=0
note_on channel=0 note=49 velocity=0 time=20
note_on channel=0 note=66 velocity=57 time=40
note_on channel=0 note=78 velocity=57 time=0
note_on channel=0 note=47 velocity=53 time=0
note_on channel=0 note=56 velocity=0 time=20
note_on channel=0 note=49 velocity=51 time=24
note_on channel=0 note=47 velocity=0 time=20
note_on channel=0 note=66 velocity=0 time=100
note_on channel=0 note=78 velocity=0 time=0
note_on channel=0 note=77 velocity=56 time=0
note_on channel=0 note=65 velocity=56 time=0
note_on channel=0 note=47 velocity=56 time=0
note_on channel=0 note=49 velocity=0 time=20
note_on channel=0 note=49 velocity=51 time=100
note_on channel=0 note=47 velocity=0 time=20
note_on channel=0 note=77 velocity=0 time=100
note_on channel=0 note=65 velocity=0 time=0
note_on channel=0 note=73 velocity=60 time=0
note_on channel=0 note=85 velocity=60 time=0
note_on channel=0 note=47 velocity=57 time=0
note_on channel=0 note=49 velocity=0 time=20
note_on channel=0 note=73 velocity=0 time=100
note_on channel=0 note=85 velocity=0 time=0
note_on channel=0 note=49 velocity=53 time=0
note_on channel=0 note=47 velocity=0 time=20
note_on channel=0 note=65 velocity=60 time=100
note_on channel=0 note=77 velocity=60 time=0
note_on channel=0 note=47 velocity=59 time=0
note_on channel=0 note=49 velocity=0 time=20
note_on channel=0 note=65 velocity=0 time=100
note_on channel=0 note=77 velocity=0 time=0
note_on channel=0 note=49 velocity=53 time=0
note_on channel=0 note=47 velocity=0 time=20
note_on channel=0 note=80 velocity=66 time=100
note_on channel=0 note=68 velocity=66 time=0
note_on channel=0 note=45 velocity=62 time=0
note_on channel=0 note=49 velocity=0 time=4
note_on channel=0 note=49 velocity=56 time=100
note_on channel=0 note=45 velocity=0 time=20
note_on channel=0 note=80 velocity=0 time=100
note_on channel=0 note=68 velocity=0 time=0
note_on channel=0 note=66 velocity=63 time=0
note_on channel=0 note=78 velocity=63 time=0
note_on channel=0 note=45 velocity=62 time=0
note_on channel=0 note=49 velocity=0 time=20
note_on channel=0 note=49 velocity=58 time=100
note_on channel=0 note=45 velocity=0 time=20
note_on channel=0 note=66 velocity=0 time=100
note_on channel=0 note=78 velocity=0 time=0
note_on channel=0 note=73 velocity=68 time=0
note_on channel=0 note=85 velocity=68 time=0
note_on channel=0 note=45 velocity=66 time=0
note_on channel=0 note=49 velocity=0 time=20
note_on channel=0 note=73 velocity=0 time=0
note_on channel=0 note=85 velocity=0 time=0
note_on channel=0 note=49 velocity=61 time=0
note_on channel=0 note=45 velocity=0 time=20
note_on channel=0 note=66 velocity=68 time=64
note_on channel=0 note=78 velocity=68 time=0
note_on channel=0 note=45 velocity=68 time=0
note_on channel=0 note=49 velocity=0 time=20
note_on channel=0 note=66 velocity=0 time=100
note_on channel=0 note=78 velocity=0 time=0
note_on channel=0 note=49 velocity=62 time=0
note_on channel=0 note=45 velocity=0 time=20
note_on channel=0 note=81 velocity=73 time=0
note_on channel=0 note=69 velocity=73 time=0
note_on channel=0 note=41 velocity=69 time=0
note_on channel=0 note=49 velocity=0 time=20
note_on channel=0 note=49 velocity=66 time=100
note_on channel=0 note=41 velocity=0 time=20
note_on channel=0 note=81 velocity=0 time=32
note_on channel=0 note=69 velocity=0 time=0
note_on channel=0 note=80 velocity=72 time=0
note_on channel=0 note=68 velocity=72 time=0
note_on channel=0 note=41 velocity=72 time=0
note_on channel=0 note=49 velocity=0 time=20
note_on channel=0 note=49 velocity=68 time=8
note_on channel=0 note=41 velocity=0 time=20
note_on channel=0 note=80 velocity=0 time=0
note_on channel=0 note=68 velocity=0 time=0
note_on channel=0 note=73 velocity=78 time=0
note_on channel=0 note=85 velocity=78 time=0
note_on channel=0 note=41 velocity=73 time=0
note_on channel=0 note=49 velocity=0 time=20
note_on channel=0 note=73 velocity=0 time=8
note_on channel=0 note=85 velocity=0 time=0
note_on channel=0 note=49 velocity=68 time=0
note_on channel=0 note=41 velocity=0 time=4
note_on channel=0 note=68 velocity=76 time=8
note_on channel=0 note=80 velocity=76 time=0
note_on channel=0 note=41 velocity=76 time=0
note_on channel=0 note=49 velocity=0 time=20
note_on channel=0 note=68 velocity=0 time=48
note_on channel=0 note=80 velocity=0 time=0
note_on channel=0 note=49 velocity=70 time=0
note_on channel=0 note=41 velocity=0 time=4
note_on channel=0 note=81 velocity=84 time=0
note_on channel=0 note=37 velocity=67 time=0
note_on channel=0 note=42 velocity=79 time=0
note_on channel=0 note=30 velocity=67 time=0
note_on channel=0 note=49 velocity=0 time=20
control_change channel=0 control=64 value=127 time=65
note_on channel=0 note=81 velocity=0 time=75
note_on channel=0 note=78 velocity=67 time=0
note_on channel=0 note=78 velocity=0 time=160
note_on channel=0 note=73 velocity=66 time=0
note_on channel=0 note=73 velocity=0 time=160
note_on channel=0 note=69 velocity=73 time=0
note_on channel=0 note=69 velocity=0 time=160
note_on channel=0 note=66 velocity=62 time=0
note_on channel=0 note=66 velocity=0 time=160
note_on channel=0 note=61 velocity=63 time=0
note_on channel=0 note=61 velocity=0 time=160
note_on channel=0 note=69 velocity=71 time=0
note_on channel=0 note=69 velocity=0 time=160
note_on channel=0 note=66 velocity=63 time=0
note_on channel=0 note=66 velocity=0 time=160
note_on channel=0 note=61 velocity=63 time=0
note_on channel=0 note=61 velocity=0 time=160
note_on channel=0 note=57 velocity=71 time=0
note_on channel=0 note=57 velocity=0 time=160
note_on channel=0 note=54 velocity=61 time=0
note_on channel=0 note=54 velocity=0 time=160
note_on channel=0 note=49 velocity=62 time=0
note_on channel=0 note=49 velocity=0 time=160
note_on channel=0 note=57 velocity=78 time=0
note_on channel=0 note=57 velocity=0 time=120
note_on channel=0 note=54 velocity=61 time=0
note_on channel=0 note=54 velocity=0 time=120
note_on channel=0 note=49 velocity=67 time=0
note_on channel=0 note=49 velocity=0 time=120
note_on channel=0 note=45 velocity=62 time=0
note_on channel=0 note=45 velocity=0 time=120
note_on channel=0 note=49 velocity=71 time=0
note_on channel=0 note=49 velocity=0 time=120
note_on channel=0 note=52 velocity=62 time=0
note_on channel=0 note=52 velocity=0 time=120
note_on channel=0 note=56 velocity=67 time=0
note_on channel=0 note=56 velocity=0 time=120
note_on channel=0 note=61 velocity=62 time=0
note_on channel=0 note=61 velocity=0 time=120
note_on channel=0 note=66 velocity=71 time=0
note_on channel=0 note=66 velocity=0 time=120
note_on channel=0 note=69 velocity=61 time=0
note_on channel=0 note=69 velocity=0 time=120
note_on channel=0 note=73 velocity=67 time=0
note_on channel=0 note=73 velocity=0 time=120
note_on channel=0 note=78 velocity=60 time=0
note_on channel=0 note=78 velocity=0 time=0
note_on channel=0 note=81 velocity=72 time=0
note_on channel=0 note=81 velocity=0 time=0
note_on channel=0 note=78 velocity=63 time=0
note_on channel=0 note=78 velocity=0 time=0
note_on channel=0 note=73 velocity=68 time=0
note_on channel=0 note=73 velocity=0 time=0
note_on channel=0 note=69 velocity=65 time=0
note_on channel=0 note=69 velocity=0 time=0
note_on channel=0 note=30 velocity=0 time=0
note_on channel=0 note=37 velocity=0 time=0
note_on channel=0 note=42 velocity=0 time=0
note_on channel=0 note=81 velocity=84 time=0
note_on channel=0 note=38 velocity=53 time=0
note_on channel=0 note=42 velocity=63 time=0
note_on channel=0 note=30 velocity=53 time=0
control_change channel=0 control=64 value=0 time=0
control_change channel=0 control=64 value=127 time=86
note_on channel=0 note=81 velocity=0 time=74
note_on channel=0 note=78 velocity=65 time=0
note_on channel=0 note=78 velocity=0 time=160
note_on channel=0 note=74 velocity=66 time=0
note_on channel=0 note=74 velocity=0 time=160
note_on channel=0 note=69 velocity=71 time=0
note_on channel=0 note=69 velocity=0 time=160
note_on channel=0 note=66 velocity=62 time=0
note_on channel=0 note=66 velocity=0 time=160
note_on channel=0 note=62 velocity=65 time=0
note_on channel=0 note=62 velocity=0 time=160
note_on channel=0 note=69 velocity=70 time=0
note_on channel=0 note=69 velocity=0 time=160
note_on channel=0 note=66 velocity=62 time=0
note_on channel=0 note=66 velocity=0 time=160
note_on channel=0 note=62 velocity=63 time=0
note_on channel=0 note=62 velocity=0 time=160
note_on channel=0 note=57 velocity=72 time=0
note_on channel=0 note=57 velocity=0 time=160
note_on channel=0 note=54 velocity=62 time=0
note_on channel=0 note=54 velocity=0 time=160
note_on channel=0 note=50 velocity=62 time=0
note_on channel=0 note=50 velocity=0 time=160
note_on channel=0 note=57 velocity=77 time=0
note_on channel=0 note=57 velocity=0 time=120
note_on channel=0 note=54 velocity=65 time=0
note_on channel=0 note=54 velocity=0 time=120
note_on channel=0 note=50 velocity=70 time=0
note_on channel=0 note=50 velocity=0 time=120
note_on channel=0 note=45 velocity=66 time=0
note_on channel=0 note=45 velocity=0 time=120
note_on channel=0 note=50 velocity=73 time=0
note_on channel=0 note=50 velocity=0 time=120
note_on channel=0 note=54 velocity=62 time=0
note_on channel=0 note=54 velocity=0 time=120
note_on channel=0 note=57 velocity=68 time=0
note_on channel=0 note=57 velocity=0 time=120
note_on channel=0 note=62 velocity=63 time=0
note_on channel=0 note=62 velocity=0 time=120
note_on channel=0 note=66 velocity=72 time=0
note_on channel=0 note=66 velocity=0 time=120
note_on channel=0 note=69 velocity=62 time=0
note_on channel=0 note=69 velocity=0 time=120
note_on channel=0 note=74 velocity=68 time=0
note_on channel=0 note=74 velocity=0 time=120
note_on channel=0 note=78 velocity=65 time=0
note_on channel=0 note=78 velocity=0 time=120
note_on channel=0 note=81 velocity=78 time=0
note_on channel=0 note=81 velocity=0 time=0
note_on channel=0 note=78 velocity=66 time=0
note_on channel=0 note=78 velocity=0 time=0
note_on channel=0 note=74 velocity=70 time=0
note_on channel=0 note=74 velocity=0 time=40
note_on channel=0 note=69 velocity=67 time=0
note_on channel=0 note=69 velocity=0 time=0
note_on channel=0 note=30 velocity=0 time=0
note_on channel=0 note=42 velocity=0 time=0
note_on channel=0 note=38 velocity=0 time=0
note_on channel=0 note=85 velocity=85 time=0
note_on channel=0 note=37 velocity=53 time=0
note_on channel=0 note=31 velocity=53 time=0
note_on channel=0 note=43 velocity=63 time=0
control_change channel=0 control=64 value=0 time=16
control_change channel=0 control=64 value=127 time=53
note_on channel=0 note=85 velocity=0 time=91
note_on channel=0 note=82 velocity=68 time=0
note_on channel=0 note=82 velocity=0 time=160
note_on channel=0 note=79 velocity=67 time=0
note_on channel=0 note=79 velocity=0 time=160
note_on channel=0 note=76 velocity=78 time=0
note_on channel=0 note=76 velocity=0 time=160
note_on channel=0 note=73 velocity=65 time=0
note_on channel=0 note=73 velocity=0 time=160
note_on channel=0 note=70 velocity=67 time=0
note_on channel=0 note=70 velocity=0 time=160
note_on channel=0 note=76 velocity=78 time=0
note_on channel=0 note=76 velocity=0 time=160
note_on channel=0 note=73 velocity=68 time=0
note_on channel=0 note=73 velocity=0 time=160
note_on channel=0 note=70 velocity=68 time=0
note_on channel=0 note=70 velocity=0 time=160
note_on channel=0 note=67 velocity=74 time=0
note_on channel=0 note=67 velocity=0 time=120
note_on channel=0 note=64 velocity=62 time=0
note_on channel=0 note=64 velocity=0 time=120
note_on channel=0 note=61 velocity=67 time=0
note_on channel=0 note=61 velocity=0 time=120
note_on channel=0 note=58 velocity=62 time=0
note_on channel=0 note=58 velocity=0 time=120
note_on channel=0 note=64 velocity=72 time=0
note_on channel=0 note=64 velocity=0 time=120
note_on channel=0 note=61 velocity=63 time=0
note_on channel=0 note=61 velocity=0 time=120
note_on channel=0 note=58 velocity=68 time=0
note_on channel=0 note=58 velocity=0 time=120
note_on channel=0 note=55 velocity=63 time=0
note_on channel=0 note=55 velocity=0 time=120
note_on channel=0 note=52 velocity=73 time=0
note_on channel=0 note=52 velocity=0 time=120
note_on channel=0 note=49 velocity=65 time=0
note_on channel=0 note=49 velocity=0 time=120
note_on channel=0 note=52 velocity=68 time=0
note_on channel=0 note=52 velocity=0 time=120
note_on channel=0 note=55 velocity=63 time=0
note_on channel=0 note=55 velocity=0 time=0
note_on channel=0 note=58 velocity=79 time=0
note_on channel=0 note=58 velocity=0 time=80
note_on channel=0 note=61 velocity=64 time=0
note_on channel=0 note=61 velocity=0 time=40
note_on channel=0 note=64 velocity=69 time=0
note_on channel=0 note=64 velocity=0 time=0
note_on channel=0 note=67 velocity=66 time=0
note_on channel=0 note=67 velocity=0 time=0
note_on channel=0 note=70 velocity=70 time=0
note_on channel=0 note=70 velocity=0 time=80
note_on channel=0 note=73 velocity=65 time=0
note_on channel=0 note=73 velocity=0 time=40
note_on channel=0 note=76 velocity=71 time=0
note_on channel=0 note=76 velocity=0 time=40
note_on channel=0 note=79 velocity=67 time=0
note_on channel=0 note=79 velocity=0 time=0
note_on channel=0 note=82 velocity=72 time=0
note_on channel=0 note=82 velocity=0 time=0
note_on channel=0 note=85 velocity=67 time=0
note_on channel=0 note=85 velocity=0 time=80
note_on channel=0 note=82 velocity=73 time=0
note_on channel=0 note=82 velocity=0 time=40
note_on channel=0 note=76 velocity=68 time=0
note_on channel=0 note=76 velocity=0 time=0
note_on channel=0 note=37 velocity=0 time=0
note_on channel=0 note=31 velocity=0 time=0
note_on channel=0 note=43 velocity=0 time=0
note_on channel=0 note=88 velocity=87 time=0
note_on channel=0 note=37 velocity=52 time=0
note_on channel=0 note=44 velocity=62 time=0
note_on channel=0 note=32 velocity=52 time=0
control_change channel=0 control=64 value=0 time=57
control_change channel=0 control=64 value=127 time=56
note_on channel=0 note=88 velocity=0 time=47
note_on channel=0 note=85 velocity=67 time=0
note_on channel=0 note=85 velocity=0 time=160
note_on channel=0 note=80 velocity=67 time=0
note_on channel=0 note=80 velocity=0 time=160
note_on channel=0 note=76 velocity=78 time=0
note_on channel=0 note=76 velocity=0 time=160
note_on channel=0 note=73 velocity=66 time=0
note_on channel=0 note=73 velocity=0 time=160
note_on channel=0 note=68 velocity=67 time=0
note_on channel=0 note=68 velocity=0 time=160
note_on channel=0 note=76 velocity=78 time=0
note_on channel=0 note=76 velocity=0 time=160
note_on channel=0 note=73 velocity=66 time=0
note_on channel=0 note=73 velocity=0 time=160
note_on channel=0 note=68 velocity=66 time=0
note_on channel=0 note=68 velocity=0 time=160
note_on channel=0 note=64 velocity=78 time=0
note_on channel=0 note=64 velocity=0 time=120
note_on channel=0 note=73 velocity=67 time=0
note_on channel=0 note=73 velocity=0 time=120
note_on channel=0 note=68 velocity=70 time=0
note_on channel=0 note=68 velocity=0 time=120
note_on channel=0 note=64 velocity=68 time=0
note_on channel=0 note=64 velocity=0 time=120
note_on channel=0 note=61 velocity=79 time=0
note_on channel=0 note=61 velocity=0 time=120
note_on channel=0 note=68 velocity=65 time=0
note_on channel=0 note=68 velocity=0 time=120
note_on channel=0 note=64 velocity=68 time=0
note_on channel=0 note=64 velocity=0 time=120
note_on channel=0 note=61 velocity=65 time=0
note_on channel=0 note=61 velocity=0 time=120
note_on channel=0 note=56 velocity=78 time=0
note_on channel=0 note=56 velocity=0 time=120
note_on channel=0 note=64 velocity=63 time=0
note_on channel=0 note=64 velocity=0 time=120
note_on channel=0 note=61 velocity=67 time=0
note_on channel=0 note=61 velocity=0 time=120
note_on channel=0 note=56 velocity=62 time=0
note_on channel=0 note=56 velocity=0 time=120
note_on channel=0 note=52 velocity=79 time=0
note_on channel=0 note=52 velocity=0 time=120
note_on channel=0 note=61 velocity=65 time=0
note_on channel=0 note=61 velocity=0 time=120
note_on channel=0 note=56 velocity=68 time=0
note_on channel=0 note=56 velocity=0 time=120
note_on channel=0 note=52 velocity=65 time=0
note_on channel=0 note=52 velocity=0 time=120
note_on channel=0 note=49 velocity=78 time=0
note_on channel=0 note=49 velocity=0 time=120
note_on channel=0 note=56 velocity=63 time=0
note_on channel=0 note=56 velocity=0 time=120
note_on channel=0 note=52 velocity=68 time=0
note_on channel=0 note=52 velocity=0 time=120
note_on channel=0 note=49 velocity=62 time=0
note_on channel=0 note=49 velocity=0 time=120
note_on channel=0 note=37 velocity=0 time=0
note_on channel=0 note=44 velocity=0 time=0
note_on channel=0 note=32 velocity=0 time=0
note_on channel=0 note=44 velocity=47 time=0
control_change channel=0 control=64 value=0 time=0
note_on channel=0 note=44 velocity=0 time=120
note_on channel=0 note=45 velocity=47 time=0
note_on channel=0 note=45 velocity=0 time=120
note_on channel=0 note=46 velocity=48 time=0
note_on channel=0 note=46 velocity=0 time=120
note_on channel=0 note=47 velocity=49 time=0
note_on channel=0 note=47 velocity=0 time=120
note_on channel=0 note=48 velocity=51 time=0
note_on channel=0 note=48 velocity=0 time=120
note_on channel=0 note=49 velocity=51 time=0
note_on channel=0 note=49 velocity=0 time=120
note_on channel=0 note=50 velocity=51 time=0
note_on channel=0 note=50 velocity=0 time=120
note_on channel=0 note=51 velocity=52 time=0
note_on channel=0 note=51 velocity=0 time=120
note_on channel=0 note=52 velocity=54 time=0
note_on channel=0 note=52 velocity=0 time=120
note_on channel=0 note=53 velocity=56 time=0
note_on channel=0 note=53 velocity=0 time=120
note_on channel=0 note=54 velocity=56 time=0
note_on channel=0 note=54 velocity=0 time=120
note_on channel=0 note=55 velocity=57 time=0
note_on channel=0 note=55 velocity=0 time=120
note_on channel=0 note=56 velocity=58 time=0
note_on channel=0 note=56 velocity=0 time=120
note_on channel=0 note=57 velocity=59 time=0
note_on channel=0 note=57 velocity=0 time=120
note_on channel=0 note=58 velocity=60 time=0
note_on channel=0 note=58 velocity=0 time=120
note_on channel=0 note=59 velocity=61 time=0
note_on channel=0 note=59 velocity=0 time=120
note_on channel=0 note=60 velocity=62 time=0
note_on channel=0 note=60 velocity=0 time=120
note_on channel=0 note=61 velocity=62 time=0
note_on channel=0 note=61 velocity=0 time=120
note_on channel=0 note=62 velocity=63 time=0
note_on channel=0 note=62 velocity=0 time=120
note_on channel=0 note=63 velocity=65 time=0
note_on channel=0 note=63 velocity=0 time=120
note_on channel=0 note=64 velocity=67 time=0
note_on channel=0 note=64 velocity=0 time=96
note_on channel=0 note=65 velocity=68 time=0
note_on channel=0 note=65 velocity=0 time=96
note_on channel=0 note=66 velocity=68 time=0
note_on channel=0 note=66 velocity=0 time=96
note_on channel=0 note=67 velocity=68 time=0
note_on channel=0 note=67 velocity=0 time=96
note_on channel=0 note=68 velocity=69 time=0
note_on channel=0 note=68 velocity=0 time=96
note_on channel=0 note=69 velocity=70 time=0
control_change channel=0 control=64 value=127 time=57
note_on channel=0 note=69 velocity=0 time=39
note_on channel=0 note=70 velocity=71 time=0
note_on channel=0 note=70 velocity=0 time=96
note_on channel=0 note=71 velocity=72 time=0
note_on channel=0 note=71 velocity=0 time=96
note_on channel=0 note=72 velocity=73 time=0
note_on channel=0 note=72 velocity=0 time=96
note_on channel=0 note=73 velocity=73 time=0
note_on channel=0 note=73 velocity=0 time=96
note_on channel=0 note=74 velocity=74 time=0
note_on channel=0 note=74 velocity=0 time=80
note_on channel=0 note=75 velocity=74 time=0
note_on channel=0 note=75 velocity=0 time=80
note_on channel=0 note=76 velocity=75 time=0
note_on channel=0 note=76 velocity=0 time=80
note_on channel=0 note=77 velocity=76 time=0
note_on channel=0 note=77 velocity=0 time=60
note_on channel=0 note=78 velocity=77 time=0
note_on channel=0 note=78 velocity=0 time=60
note_on channel=0 note=79 velocity=77 time=0
note_on channel=0 note=79 velocity=0 time=60
note_on channel=0 note=80 velocity=77 time=0
note_on channel=0 note=80 velocity=0 time=10
note_on channel=0 note=81 velocity=81 time=0
note_on channel=0 note=60 velocity=62 time=0
note_on channel=0 note=66 velocity=62 time=0
note_on channel=0 note=56 velocity=62 time=0
control_change channel=0 control=64 value=0 time=9
control_change channel=0 control=64 value=127 time=16
note_on channel=0 note=81 velocity=0 time=44
note_on channel=0 note=83 velocity=72 time=0
note_on channel=0 note=83 velocity=0 time=10
note_on channel=0 note=81 velocity=77 time=0
note_on channel=0 note=81 velocity=0 time=10
note_on channel=0 note=83 velocity=71 time=0
note_on channel=0 note=83 velocity=0 time=10
note_on channel=0 note=81 velocity=79 time=0
note_on channel=0 note=81 velocity=0 time=10
note_on channel=0 note=83 velocity=71 time=0
note_on channel=0 note=83 velocity=0 time=10
note_on channel=0 note=81 velocity=81 time=0
note_on channel=0 note=81 velocity=0 time=10
note_on channel=0 note=83 velocity=74 time=0
note_on channel=0 note=83 velocity=0 time=10
note_on channel=0 note=81 velocity=81 time=0
note_on channel=0 note=81 velocity=0 time=10
note_on channel=0 note=83 velocity=73 time=0
note_on channel=0 note=83 velocity=0 time=10
note_on channel=0 note=81 velocity=81 time=0
note_on channel=0 note=81 velocity=0 time=10
note_on channel=0 note=83 velocity=79 time=0
note_on channel=0 note=83 velocity=0 time=50
note_on channel=0 note=81 velocity=79 time=0
note_on channel=0 note=81 velocity=0 time=15
note_on channel=0 note=83 velocity=76 time=0
note_on channel=0 note=83 velocity=0 time=10
note_on channel=0 note=81 velocity=79 time=0
note_on channel=0 note=81 velocity=0 time=65
note_on channel=0 note=83 velocity=76 time=0
note_on channel=0 note=83 velocity=0 time=0
note_on channel=0 note=81 velocity=78 time=0
note_on channel=0 note=81 velocity=0 time=70
note_on channel=0 note=83 velocity=74 time=0
note_on channel=0 note=83 velocity=0 time=5
note_on channel=0 note=81 velocity=77 time=0
note_on channel=0 note=81 velocity=0 time=0
note_on channel=0 note=83 velocity=70 time=0
note_on channel=0 note=83 velocity=0 time=0
note_on channel=0 note=81 velocity=74 time=0
note_on channel=0 note=81 velocity=0 time=20
note_on channel=0 note=83 velocity=68 time=0
note_on channel=0 note=83 velocity=0 time=0
note_on channel=0 note=81 velocity=74 time=0
note_on channel=0 note=81 velocity=0 time=10
note_on channel=0 note=83 velocity=68 time=0
note_on channel=0 note=83 velocity=0 time=20
note_on channel=0 note=56 velocity=0 time=0
note_on channel=0 note=66 velocity=0 time=0
note_on channel=0 note=60 velocity=0 time=0
note_on channel=0 note=80 velocity=75 time=0
control_change channel=0 control=64 value=0 time=10
note_on channel=0 note=80 velocity=0 time=142
note_on channel=0 note=78 velocity=62 time=0
note_on channel=0 note=78 velocity=0 time=160
note_on channel=0 note=76 velocity=62 time=0
note_on channel=0 note=76 velocity=0 time=0
note_on channel=0 note=75 velocity=62 time=0
note_on channel=0 note=75 velocity=0 time=8
note_on channel=0 note=78 velocity=65 time=0
note_on channel=0 note=78 velocity=0 time=8
note_on channel=0 note=73 velocity=62 time=0
note_on channel=0 note=73 velocity=0 time=8
note_on channel=0 note=72 velocity=62 time=0
note_on channel=0 note=72 velocity=0 time=24
note_on channel=0 note=75 velocity=65 time=0
note_on channel=0 note=75 velocity=0 time=24
note_on channel=0 note=69 velocity=62 time=0
note_on channel=0 note=69 velocity=0 time=16
note_on channel=0 note=68 velocity=62 time=0
note_on channel=0 note=68 velocity=0 time=0
note_on channel=0 note=66 velocity=62 time=0
note_on channel=0 note=66 velocity=0 time=0
note_on channel=0 note=69 velocity=65 time=0
note_on channel=0 note=69 velocity=0 time=104
note_on channel=0 note=64 velocity=62 time=0
note_on channel=0 note=64 velocity=0 time=160
note_on channel=0 note=63 velocity=62 time=0
note_on channel=0 note=63 velocity=0 time=24
note_on channel=0 note=66 velocity=66 time=0
note_on channel=0 note=66 velocity=0 time=8
note_on channel=0 note=61 velocity=62 time=0
note_on channel=0 note=61 velocity=0 time=32
note_on channel=0 note=60 velocity=62 time=0
note_on channel=0 note=60 velocity=0 time=40
note_on channel=0 note=63 velocity=62 time=0
note_on channel=0 note=63 velocity=0 time=0
note_on channel=0 note=57 velocity=62 time=0
note_on channel=0 note=57 velocity=0 time=0
note_on channel=0 note=56 velocity=62 time=0
note_on channel=0 note=56 velocity=0 time=40
note_on channel=0 note=54 velocity=62 time=0
note_on channel=0 note=54 velocity=0 time=32
note_on channel=0 note=57 velocity=63 time=0
note_on channel=0 note=57 velocity=0 time=0
note_on channel=0 note=52 velocity=62 time=0
note_on channel=0 note=52 velocity=0 time=24
note_on channel=0 note=51 velocity=62 time=0
note_on channel=0 note=51 velocity=0 time=0
note_on channel=0 note=54 velocity=65 time=0
note_on channel=0 note=54 velocity=0 time=8
note_on channel=0 note=49 velocity=62 time=0
note_on channel=0 note=49 velocity=0 time=32
note_on channel=0 note=48 velocity=62 time=0
note_on channel=0 note=48 velocity=0 time=0
note_on channel=0 note=51 velocity=61 time=0
note_on channel=0 note=51 velocity=0 time=16
note_on channel=0 note=45 velocity=58 time=8
note_on channel=0 note=45 velocity=0 time=8
note_on channel=0 note=44 velocity=52 time=8
note_on channel=0 note=44 velocity=0 time=16
note_on channel=0 note=31 velocity=33 time=0
note_on channel=0 note=43 velocity=39 time=0
control_change channel=0 control=64 value=127 time=0
note_on channel=0 note=43 velocity=0 time=1920
note_on channel=0 note=31 velocity=0 time=0
note_on channel=0 note=32 velocity=28 time=0
note_on channel=0 note=44 velocity=34 time=0
control_change channel=0 control=64 value=0 time=10
control_change channel=0 control=64 value=127 time=337
note_on channel=0 note=44 velocity=0 time=0
note_on channel=0 note=32 velocity=0 time=0
note_on channel=0 note=37 velocity=37 time=0
note_on channel=0 note=49 velocity=37 time=0
control_change channel=0 control=64 value=0 time=7
control_change channel=0 control=64 value=127 time=85
note_on channel=0 note=49 velocity=0 time=23
note_on channel=0 note=37 velocity=0 time=5
note_on channel=0 note=49 velocity=31 time=0
note_on channel=0 note=49 velocity=0 time=120
note_on channel=0 note=44 velocity=35 time=0
note_on channel=0 note=44 velocity=0 time=120
note_on channel=0 note=49 velocity=31 time=0
note_on channel=0 note=49 velocity=0 time=120
note_on channel=0 note=37 velocity=37 time=0
note_on channel=0 note=37 velocity=0 time=120
note_on channel=0 note=49 velocity=31 time=0
note_on channel=0 note=49 velocity=0 time=119
note_on channel=0 note=44 velocity=35 time=1
note_on channel=0 note=44 velocity=0 time=119
note_on channel=0 note=49 velocity=30 time=1
note_on channel=0 note=49 velocity=0 time=119
note_on channel=0 note=37 velocity=37 time=1
note_on channel=0 note=37 velocity=0 time=119
note_on channel=0 note=49 velocity=32 time=1
note_on channel=0 note=49 velocity=0 time=119
note_on channel=0 note=44 velocity=35 time=1
note_on channel=0 note=44 velocity=0 time=119
note_on channel=0 note=49 velocity=32 time=1
note_on channel=0 note=49 velocity=0 time=119
note_on channel=0 note=64 velocity=41 time=1
note_on channel=0 note=37 velocity=37 time=0
note_on channel=0 note=37 velocity=0 time=119
note_on channel=0 note=49 velocity=32 time=1
note_on channel=0 note=49 velocity=0 time=119
note_on channel=0 note=44 velocity=35 time=1
note_on channel=0 note=44 velocity=0 time=119
note_on channel=0 note=64 velocity=0 time=1
note_on channel=0 note=61 velocity=41 time=0
note_on channel=0 note=49 velocity=30 time=0
note_on channel=0 note=49 velocity=0 time=119
note_on channel=0 note=61 velocity=0 time=1
note_on channel=0 note=60 velocity=49 time=0
note_on channel=0 note=37 velocity=37 time=0
control_change channel=0 control=64 value=0 time=0
control_change channel=0 control=64 value=127 time=103
note_on channel=0 note=37 velocity=0 time=16
note_on channel=0 note=51 velocity=31 time=1
note_on channel=0 note=51 velocity=0 time=119
note_on channel=0 note=44 velocity=35 time=1
note_on channel=0 note=44 velocity=0 time=119
note_on channel=0 note=51 velocity=31 time=1
note_on channel=0 note=51 velocity=0 time=119
note_on channel=0 note=60 velocity=0 time=0
note_on channel=0 note=60 velocity=42 time=0
note_on channel=0 note=68 velocity=42 time=0
note_on channel=0 note=54 velocity=35 time=0
note_on channel=0 note=37 velocity=37 time=0
note_on channel=0 note=37 velocity=0 time=119
note_on channel=0 note=51 velocity=30 time=1
note_on channel=0 note=51 velocity=0 time=119
note_on channel=0 note=44 velocity=35 time=1
note_on channel=0 note=44 velocity=0 time=119
note_on channel=0 note=51 velocity=31 time=1
note_on channel=0 note=51 velocity=0 time=119
note_on channel=0 note=54 velocity=0 time=1
note_on channel=0 note=68 velocity=0 time=0
note_on channel=0 note=60 velocity=0 time=0
note_on channel=0 note=60 velocity=41 time=0
note_on channel=0 note=54 velocity=34 time=0
note_on channel=0 note=68 velocity=41 time=0
note_on channel=0 note=37 velocity=37 time=0
note_on channel=0 note=37 velocity=0 time=119
note_on channel=0 note=51 velocity=32 time=1
note_on channel=0 note=51 velocity=0 time=119
note_on channel=0 note=44 velocity=35 time=1
note_on channel=0 note=44 velocity=0 time=119
note_on channel=0 note=51 velocity=35 time=1
note_on channel=0 note=51 velocity=0 time=119
note_on channel=0 note=68 velocity=0 time=1
note_on channel=0 note=54 velocity=0 time=0
note_on channel=0 note=60 velocity=0 time=0
note_on channel=0 note=54 velocity=34 time=0
note_on channel=0 note=68 velocity=41 time=0
note_on channel=0 note=60 velocity=41 time=0
note_on channel=0 note=37 velocity=37 time=0
note_on channel=0 note=37 velocity=0 time=119
note_on channel=0 note=51 velocity=30 time=1
note_on channel=0 note=51 velocity=0 time=119
note_on channel=0 note=44 velocity=35 time=1
note_on channel=0 note=44 velocity=0 time=119
note_on channel=0 note=54 velocity=0 time=0
note_on channel=0 note=68 velocity=0 time=0
note_on channel=0 note=60 velocity=0 time=0
note_on channel=0 note=52 velocity=33 time=0
note_on channel=0 note=51 velocity=31 time=0
note_on channel=0 note=52 velocity=0 time=60
note_on channel=0 note=61 velocity=39 time=0
note_on channel=0 note=51 velocity=0 time=59
note_on channel=0 note=61 velocity=0 time=0
note_on channel=0 note=68 velocity=49 time=0
note_on channel=0 note=37 velocity=37 time=0
control_change channel=0 control=64 value=0 time=10
control_change channel=0 control=64 value=127 time=75
note_on channel=0 note=37 velocity=0 time=34
note_on channel=0 note=49 velocity=30 time=1
note_on channel=0 note=49 velocity=0 time=119
note_on channel=0 note=44 velocity=35 time=1
note_on channel=0 note=44 velocity=0 time=119
note_on channel=0 note=49 velocity=31 time=1
note_on channel=0 note=49 velocity=0 time=119
note_on channel=0 note=37 velocity=37 time=1
note_on channel=0 note=37 velocity=0 time=119
note_on channel=0 note=49 velocity=32 time=1
note_on channel=0 note=49 velocity=0 time=119
note_on channel=0 note=44 velocity=35 time=1
note_on channel=0 note=44 velocity=0 time=119
note_on channel=0 note=49 velocity=30 time=1
note_on channel=0 note=49 velocity=0 time=119
note_on channel=0 note=37 velocity=37 time=1
note_on channel=0 note=37 velocity=0 time=119
note_on channel=0 note=49 velocity=31 time=1
note_on channel=0 note=49 velocity=0 time=119
note_on channel=0 note=44 velocity=35 time=1
note_on channel=0 note=44 velocity=0 time=119
note_on channel=0 note=49 velocity=31 time=1
note_on channel=0 note=49 velocity=0 time=119
note_on channel=0 note=68 velocity=0 time=0
note_on channel=0 note=76 velocity=47 time=0
note_on channel=0 note=37 velocity=37 time=0
note_on channel=0 note=37 velocity=0 time=119
note_on channel=0 note=49 velocity=31 time=1
note_on channel=0 note=49 velocity=0 time=119
note_on channel=0 note=44 velocity=35 time=1
note_on channel=0 note=44 velocity=0 time=119
note_on channel=0 note=76 velocity=0 time=1
note_on channel=0 note=73 velocity=47 time=0
note_on channel=0 note=49 velocity=30 time=0
note_on channel=0 note=49 velocity=0 time=119
note_on channel=0 note=73 velocity=0 time=1
note_on channel=0 note=72 velocity=56 time=0
note_on channel=0 note=37 velocity=37 time=0
control_change channel=0 control=64 value=0 time=18
control_change channel=0 control=64 value=127 time=63
note_on channel=0 note=37 velocity=0 time=38
note_on channel=0 note=51 velocity=31 time=1
note_on channel=0 note=51 velocity=0 time=119
note_on channel=0 note=44 velocity=35 time=1
note_on channel=0 note=44 velocity=0 time=119
note_on channel=0 note=51 velocity=31 time=1
note_on channel=0 note=51 velocity=0 time=119
note_on channel=0 note=72 velocity=0 time=0
note_on channel=0 note=66 velocity=39 time=0
note_on channel=0 note=72 velocity=47 time=0
note_on channel=0 note=80 velocity=47 time=0
note_on channel=0 note=37 velocity=37 time=0
note_on channel=0 note=37 velocity=0 time=119
note_on channel=0 note=51 velocity=33 time=1
note_on channel=0 note=51 velocity=0 time=119
note_on channel=0 note=44 velocity=35 time=1
note_on channel=0 note=44 velocity=0 time=119
note_on channel=0 note=51 velocity=30 time=1
note_on channel=0 note=51 velocity=0 time=119
note_on channel=0 note=80 velocity=0 time=1
note_on channel=0 note=72 velocity=0 time=0
note_on channel=0 note=66 velocity=0 time=0
note_on channel=0 note=80 velocity=47 time=0
note_on channel=0 note=72 velocity=47 time=0
note_on channel=0 note=66 velocity=39 time=0
note_on channel=0 note=37 velocity=37 time=0
note_on channel=0 note=37 velocity=0 time=119
note_on channel=0 note=51 velocity=31 time=1
note_on channel=0 note=51 velocity=0 time=119
note_on channel=0 note=44 velocity=35 time=1
note_on channel=0 note=44 velocity=0 time=119
note_on channel=0 note=51 velocity=31 time=1
note_on channel=0 note=51 velocity=0 time=119
note_on channel=0 note=66 velocity=0 time=1
note_on channel=0 note=72 velocity=0 time=0
note_on channel=0 note=80 velocity=0 time=0
note_on channel=0 note=72 velocity=47 time=0
note_on channel=0 note=66 velocity=39 time=0
note_on channel=0 note=80 velocity=47 time=0
note_on channel=0 note=37 velocity=37 time=0
note_on channel=0 note=37 velocity=0 time=119
note_on channel=0 note=51 velocity=32 time=1
note_on channel=0 note=51 velocity=0 time=119
note_on channel=0 note=44 velocity=35 time=1
note_on channel=0 note=44 velocity=0 time=119
note_on channel=0 note=72 velocity=0 time=0
note_on channel=0 note=66 velocity=0 time=0
note_on channel=0 note=80 velocity=0 time=0
note_on channel=0 note=64 velocity=41 time=0
note_on channel=0 note=51 velocity=32 time=0
note_on channel=0 note=64 velocity=0 time=60
note_on channel=0 note=73 velocity=46 time=0
note_on channel=0 note=51 velocity=0 time=59
note_on channel=0 note=73 velocity=0 time=0
note_on channel=0 note=80 velocity=58 time=0
note_on channel=0 note=37 velocity=37 time=0
control_change channel=0 control=64 value=0 time=19
control_change channel=0 control=64 value=127 time=44
note_on channel=0 note=37 velocity=0 time=56
note_on channel=0 note=49 velocity=33 time=1
note_on channel=0 note=49 velocity=0 time=119
note_on channel=0 note=44 velocity=38 time=1
note_on channel=0 note=44 velocity=0 time=119
note_on channel=0 note=49 velocity=34 time=1
note_on channel=0 note=49 velocity=0 time=119
note_on channel=0 note=37 velocity=39 time=1
note_on channel=0 note=37 velocity=0 time=119
note_on channel=0 note=49 velocity=34 time=1
note_on channel=0 note=49 velocity=0 time=119
note_on channel=0 note=44 velocity=40 time=1
note_on channel=0 note=44 velocity=0 time=119
note_on channel=0 note=80 velocity=0 time=0
note_on channel=0 note=66 velocity=49 time=0
note_on channel=0 note=49 velocity=35 time=0
note_on channel=0 note=66 velocity=0 time=60
note_on channel=0 note=72 velocity=53 time=0
note_on channel=0 note=49 velocity=0 time=59
note_on channel=0 note=72 velocity=0 time=0
note_on channel=0 note=80 velocity=63 time=0
note_on channel=0 note=37 velocity=41 time=0
control_change channel=0 control=64 value=0 time=15
control_change channel=0 control=64 value=127 time=31
note_on channel=0 note=37 velocity=0 time=73
note_on channel=0 note=51 velocity=39 time=1
note_on channel=0 note=51 velocity=0 time=119
note_on channel=0 note=44 velocity=43 time=1
note_on channel=0 note=44 velocity=0 time=119
note_on channel=0 note=51 velocity=39 time=1
note_on channel=0 note=51 velocity=0 time=119
note_on channel=0 note=37 velocity=45 time=1
note_on channel=0 note=37 velocity=0 time=119
note_on channel=0 note=51 velocity=40 time=1
note_on channel=0 note=51 velocity=0 time=119
note_on channel=0 note=44 velocity=47 time=1
note_on channel=0 note=44 velocity=0 time=119
note_on channel=0 note=80 velocity=0 time=0
note_on channel=0 note=64 velocity=56 time=0
note_on channel=0 note=51 velocity=41 time=0
note_on channel=0 note=64 velocity=0 time=60
note_on channel=0 note=73 velocity=62 time=0
note_on channel=0 note=51 velocity=0 time=59
note_on channel=0 note=73 velocity=0 time=0
note_on channel=0 note=80 velocity=70 time=0
note_on channel=0 note=37 velocity=47 time=0
control_change channel=0 control=64 value=0 time=17
control_change channel=0 control=64 value=127 time=40
note_on channel=0 note=37 velocity=0 time=62
note_on channel=0 note=49 velocity=42 time=1
note_on channel=0 note=49 velocity=0 time=119
note_on channel=0 note=44 velocity=50 time=1
note_on channel=0 note=44 velocity=0 time=119
note_on channel=0 note=49 velocity=44 time=1
note_on channel=0 note=49 velocity=0 time=119
note_on channel=0 note=37 velocity=51 time=1
note_on channel=0 note=37 velocity=0 time=119
note_on channel=0 note=49 velocity=47 time=1
note_on channel=0 note=49 velocity=0 time=119
note_on channel=0 note=44 velocity=51 time=1
note_on channel=0 note=44 velocity=0 time=119
note_on channel=0 note=80 velocity=0 time=0
note_on channel=0 note=66 velocity=60 time=0
note_on channel=0 note=49 velocity=46 time=0
note_on channel=0 note=66 velocity=0 time=60
note_on channel=0 note=72 velocity=68 time=0
note_on channel=0 note=49 velocity=0 time=59
note_on channel=0 note=72 velocity=0 time=0
note_on channel=0 note=80 velocity=80 time=0
note_on channel=0 note=37 velocity=52 time=0
control_change channel=0 control=64 value=0 time=13
control_change channel=0 control=64 value=127 time=36
note_on channel=0 note=37 velocity=0 time=70
note_on channel=0 note=51 velocity=50 time=1
note_on channel=0 note=51 velocity=0 time=119
note_on channel=0 note=44 velocity=54 time=1
note_on channel=0 note=44 velocity=0 time=119
note_on channel=0 note=51 velocity=50 time=1
note_on channel=0 note=51 velocity=0 time=119
note_on channel=0 note=37 velocity=56 time=1
note_on channel=0 note=37 velocity=0 time=119
note_on channel=0 note=51 velocity=51 time=1
note_on channel=0 note=51 velocity=0 time=119
note_on channel=0 note=44 velocity=57 time=1
note_on channel=0 note=44 velocity=0 time=119
note_on channel=0 note=80 velocity=0 time=0
note_on channel=0 note=64 velocity=68 time=0
note_on channel=0 note=51 velocity=51 time=0
note_on channel=0 note=64 velocity=0 time=60
note_on channel=0 note=73 velocity=68 time=0
note_on channel=0 note=51 velocity=0 time=39
note_on channel=0 note=73 velocity=0 time=0
note_on channel=0 note=80 velocity=74 time=0
note_on channel=0 note=44 velocity=68 time=0
note_on channel=0 note=49 velocity=68 time=0
note_on channel=0 note=37 velocity=57 time=0
control_change channel=0 control=64 value=0 time=14
control_change channel=0 control=64 value=127 time=92
note_on channel=0 note=64 velocity=68 time=0
note_on channel=0 note=52 velocity=57 time=0
note_on channel=0 note=37 velocity=0 time=20
note_on channel=0 note=49 velocity=0 time=0
note_on channel=0 note=80 velocity=0 time=0
note_on channel=0 note=44 velocity=0 time=0
note_on channel=0 note=68 velocity=71 time=40
note_on channel=0 note=56 velocity=60 time=0
note_on channel=0 note=52 velocity=0 time=20
note_on channel=0 note=64 velocity=0 time=0
note_on channel=0 note=73 velocity=68 time=40
note_on channel=0 note=61 velocity=56 time=0
note_on channel=0 note=68 velocity=0 time=20
note_on channel=0 note=56 velocity=0 time=0
note_on channel=0 note=76 velocity=74 time=0
note_on channel=0 note=64 velocity=62 time=0
note_on channel=0 note=73 velocity=0 time=20
note_on channel=0 note=61 velocity=0 time=0
note_on channel=0 note=68 velocity=69 time=0
note_on channel=0 note=56 velocity=57 time=0
note_on channel=0 note=76 velocity=0 time=20
note_on channel=0 note=64 velocity=0 time=0
note_on channel=0 note=73 velocity=72 time=40
note_on channel=0 note=61 velocity=58 time=0
note_on channel=0 note=68 velocity=0 time=20
note_on channel=0 note=56 velocity=0 time=0
note_on channel=0 note=76 velocity=68 time=40
note_on channel=0 note=64 velocity=57 time=0
note_on channel=0 note=73 velocity=0 time=20
note_on channel=0 note=61 velocity=0 time=0
note_on channel=0 note=80 velocity=74 time=0
note_on channel=0 note=68 velocity=62 time=0
note_on channel=0 note=76 velocity=0 time=20
note_on channel=0 note=64 velocity=0 time=0
note_on channel=0 note=73 velocity=68 time=0
note_on channel=0 note=61 velocity=58 time=0
note_on channel=0 note=80 velocity=0 time=20
note_on channel=0 note=68 velocity=0 time=0
note_on channel=0 note=76 velocity=71 time=40
note_on channel=0 note=64 velocity=58 time=0
note_on channel=0 note=73 velocity=0 time=20
note_on channel=0 note=61 velocity=0 time=0
note_on channel=0 note=80 velocity=69 time=40
note_on channel=0 note=68 velocity=57 time=0
note_on channel=0 note=76 velocity=0 time=20
note_on channel=0 note=64 velocity=0 time=0
note_on channel=0 note=85 velocity=75 time=0
note_on channel=0 note=73 velocity=63 time=0
note_on channel=0 note=80 velocity=0 time=20
note_on channel=0 note=68 velocity=0 time=0
note_on channel=0 note=76 velocity=72 time=0
note_on channel=0 note=64 velocity=60 time=0
note_on channel=0 note=85 velocity=0 time=20
note_on channel=0 note=73 velocity=0 time=0
note_on channel=0 note=80 velocity=74 time=40
note_on channel=0 note=68 velocity=62 time=0
note_on channel=0 note=76 velocity=0 time=20
note_on channel=0 note=64 velocity=0 time=0
note_on channel=0 note=85 velocity=72 time=40
note_on channel=0 note=73 velocity=60 time=0
note_on channel=0 note=80 velocity=0 time=20
note_on channel=0 note=68 velocity=0 time=0
note_on channel=0 note=88 velocity=80 time=0
note_on channel=0 note=76 velocity=68 time=0
note_on channel=0 note=85 velocity=0 time=20
note_on channel=0 note=73 velocity=0 time=0
note_on channel=0 note=85 velocity=80 time=100
note_on channel=0 note=73 velocity=64 time=0
note_on channel=0 note=88 velocity=0 time=20
note_on channel=0 note=76 velocity=0 time=0
note_on channel=0 note=80 velocity=79 time=100
note_on channel=0 note=68 velocity=63 time=0
note_on channel=0 note=85 velocity=0 time=20
note_on channel=0 note=73 velocity=0 time=0
note_on channel=0 note=76 velocity=74 time=100
note_on channel=0 note=64 velocity=61 time=0
note_on channel=0 note=80 velocity=0 time=20
note_on channel=0 note=68 velocity=0 time=0
note_on channel=0 note=85 velocity=81 time=100
note_on channel=0 note=73 velocity=67 time=0
note_on channel=0 note=76 velocity=0 time=20
note_on channel=0 note=64 velocity=0 time=0
note_on channel=0 note=80 velocity=80 time=100
note_on channel=0 note=68 velocity=64 time=0
note_on channel=0 note=85 velocity=0 time=20
note_on channel=0 note=73 velocity=0 time=0
note_on channel=0 note=76 velocity=79 time=100
note_on channel=0 note=64 velocity=62 time=0
note_on channel=0 note=80 velocity=0 time=20
note_on channel=0 note=68 velocity=0 time=0
note_on channel=0 note=73 velocity=73 time=100
note_on channel=0 note=61 velocity=62 time=0
note_on channel=0 note=76 velocity=0 time=20
note_on channel=0 note=64 velocity=0 time=0
note_on channel=0 note=80 velocity=80 time=100
note_on channel=0 note=68 velocity=67 time=0
note_on channel=0 note=73 velocity=0 time=20
note_on channel=0 note=61 velocity=0 time=0
note_on channel=0 note=76 velocity=79 time=100
note_on channel=0 note=64 velocity=64 time=0
note_on channel=0 note=80 velocity=0 time=20
note_on channel=0 note=68 velocity=0 time=0
note_on channel=0 note=73 velocity=78 time=100
note_on channel=0 note=61 velocity=62 time=0
note_on channel=0 note=76 velocity=0 time=20
note_on channel=0 note=64 velocity=0 time=0
note_on channel=0 note=68 velocity=74 time=100
note_on channel=0 note=56 velocity=62 time=0
note_on channel=0 note=73 velocity=0 time=20
note_on channel=0 note=61 velocity=0 time=0
note_on channel=0 note=76 velocity=80 time=100
note_on channel=0 note=64 velocity=67 time=0
note_on channel=0 note=68 velocity=0 time=20
note_on channel=0 note=56 velocity=0 time=0
note_on channel=0 note=73 velocity=80 time=100
note_on channel=0 note=61 velocity=64 time=0
note_on channel=0 note=76 velocity=0 time=20
note_on channel=0 note=64 velocity=0 time=0
note_on channel=0 note=68 velocity=78 time=100
note_on channel=0 note=56 velocity=62 time=0
note_on channel=0 note=73 velocity=0 time=20
note_on channel=0 note=61 velocity=0 time=0
note_on channel=0 note=64 velocity=73 time=100
note_on channel=0 note=52 velocity=62 time=0
note_on channel=0 note=68 velocity=0 time=20
note_on channel=0 note=56 velocity=0 time=0
note_on channel=0 note=73 velocity=78 time=0
note_on channel=0 note=61 velocity=63 time=0
note_on channel=0 note=64 velocity=0 time=20
note_on channel=0 note=52 velocity=0 time=0
note_on channel=0 note=68 velocity=75 time=0
note_on channel=0 note=56 velocity=62 time=0
note_on channel=0 note=73 velocity=0 time=20
note_on channel=0 note=61 velocity=0 time=0
note_on channel=0 note=64 velocity=74 time=0
note_on channel=0 note=52 velocity=62 time=0
note_on channel=0 note=68 velocity=0 time=20
note_on channel=0 note=56 velocity=0 time=0
note_on channel=0 note=61 velocity=69 time=0
note_on channel=0 note=49 velocity=60 time=0
note_on channel=0 note=64 velocity=0 time=20
note_on channel=0 note=52 velocity=0 time=0
note_on channel=0 note=68 velocity=78 time=0
note_on channel=0 note=56 velocity=64 time=0
note_on channel=0 note=61 velocity=0 time=20
note_on channel=0 note=49 velocity=0 time=0
note_on channel=0 note=64 velocity=75 time=40
note_on channel=0 note=52 velocity=63 time=0
note_on channel=0 note=68 velocity=0 time=20
note_on channel=0 note=56 velocity=0 time=0
note_on channel=0 note=61 velocity=74 time=0
note_on channel=0 note=49 velocity=62 time=0
note_on channel=0 note=64 velocity=0 time=20
note_on channel=0 note=52 velocity=0 time=0
note_on channel=0 note=56 velocity=71 time=0
note_on channel=0 note=44 velocity=60 time=0
note_on channel=0 note=61 velocity=0 time=20
note_on channel=0 note=49 velocity=0 time=0
note_on channel=0 note=64 velocity=78 time=0
note_on channel=0 note=52 velocity=66 time=0
note_on channel=0 note=56 velocity=0 time=20
note_on channel=0 note=44 velocity=0 time=0
note_on channel=0 note=61 velocity=75 time=0
note_on channel=0 note=49 velocity=66 time=0
note_on channel=0 note=64 velocity=0 time=20
note_on channel=0 note=52 velocity=0 time=0
note_on channel=0 note=56 velocity=74 time=0
note_on channel=0 note=44 velocity=63 time=0
note_on channel=0 note=61 velocity=0 time=20
note_on channel=0 note=49 velocity=0 time=0
note_on channel=0 note=52 velocity=71 time=0
note_on channel=0 note=40 velocity=61 time=0
note_on channel=0 note=56 velocity=0 time=20
note_on channel=0 note=44 velocity=0 time=0
note_on channel=0 note=61 velocity=78 time=0
note_on channel=0 note=49 velocity=66 time=0
note_on channel=0 note=52 velocity=0 time=20
note_on channel=0 note=40 velocity=0 time=0
note_on channel=0 note=56 velocity=75 time=40
note_on channel=0 note=44 velocity=64 time=0
note_on channel=0 note=61 velocity=0 time=20
note_on channel=0 note=49 velocity=0 time=0
note_on channel=0 note=52 velocity=74 time=0
note_on channel=0 note=40 velocity=63 time=0
note_on channel=0 note=56 velocity=0 time=20
note_on channel=0 note=44 velocity=0 time=0
note_on channel=0 note=56 velocity=71 time=0
note_on channel=0 note=44 velocity=62 time=0
note_on channel=0 note=52 velocity=0 time=20
note_on channel=0 note=40 velocity=0 time=0
note_on channel=0 note=49 velocity=74 time=0
note_on channel=0 note=37 velocity=62 time=0
note_on channel=0 note=56 velocity=0 time=20
note_on channel=0 note=44 velocity=0 time=0
control_change channel=0 control=64 value=0 time=51
control_change channel=0 control=64 value=127 time=120
control_change channel=0 control=64 value=0 time=219
note_on channel=0 note=49 velocity=0 time=70
note_on channel=0 note=37 velocity=0 time=0
note_on channel=0 note=73 velocity=83 time=480
note_on channel=0 note=80 velocity=98 time=0
note_on channel=0 note=76 velocity=83 time=0
note_on channel=0 note=85 velocity=98 time=0
note_on channel=0 note=37 velocity=67 time=0
note_on channel=0 note=40 velocity=67 time=0
note_on channel=0 note=44 velocity=79 time=0
note_on channel=0 note=49 velocity=79 time=0
control_change channel=0 control=64 value=127 time=36
control_change channel=0 control=64 value=0 time=155
note_on channel=0 note=49 velocity=0 time=169
note_on channel=0 note=73 velocity=0 time=0
note_on channel=0 note=37 velocity=0 time=0
note_on channel=0 note=80 velocity=0 time=0
note_on channel=0 note=76 velocity=0 time=0
note_on channel=0 note=85 velocity=0 time=0
note_on channel=0 note=40 velocity=0 time=0
note_on channel=0 note=44 velocity=0 time=0
note_on channel=0 note=61 velocity=83 time=0
note_on channel=0 note=64 velocity=83 time=0
note_on channel=0 note=68 velocity=97 time=0
note_on channel=0 note=73 velocity=97 time=0
note_on channel=0 note=44 velocity=79 time=0
note_on channel=0 note=37 velocity=67 time=0
note_on channel=0 note=40 velocity=67 time=0
note_on channel=0 note=49 velocity=79 time=0
control_change channel=0 control=64 value=127 time=43
control_change channel=0 control=64 value=0 time=310
note_on channel=0 note=49 velocity=0 time=0
note_on channel=0 note=61 velocity=0 time=0
note_on channel=0 note=44 velocity=0 time=0
note_on channel=0 note=64 velocity=0 time=0
note_on channel=0 note=68 velocity=0 time=0
note_on channel=0 note=73 velocity=0 time=0
note_on channel=0 note=37 velocity=0 time=0
note_on channel=0 note=40 velocity=0 time=0
