control_change channel=0 control=7 value=100 time=0
control_change channel=0 control=10 value=64 time=0
control_change channel=0 control=91 value=127 time=0
control_change channel=0 control=7 value=100 time=0
control_change channel=0 control=10 value=64 time=0
control_change channel=0 control=64 value=0 time=0
control_change channel=0 control=91 value=127 time=959
control_change channel=0 control=91 value=127 time=0
note_on channel=0 note=68 velocity=62 time=0
note_on channel=0 note=73 velocity=62 time=0
note_on channel=0 note=65 velocity=52 time=0
note_on channel=0 note=65 velocity=0 time=0
note_on channel=0 note=73 velocity=0 time=0
note_on channel=0 note=68 velocity=0 time=0
note_on channel=0 note=72 velocity=65 time=1
note_on channel=0 note=68 velocity=65 time=0
note_on channel=0 note=63 velocity=55 time=0
note_on channel=0 note=67 velocity=58 time=0
note_on channel=0 note=70 velocity=58 time=0
note_on channel=0 note=61 velocity=49 time=0
note_on channel=0 note=63 velocity=0 time=1
note_on channel=0 note=72 velocity=0 time=0
note_on channel=0 note=68 velocity=0 time=0
note_on channel=0 note=67 velocity=0 time=479
note_on channel=0 note=70 velocity=0 time=0
note_on channel=0 note=61 velocity=0 time=0
note_on channel=0 note=68 velocity=54 time=0
note_on channel=0 note=75 velocity=54 time=0
note_on channel=0 note=60 velocity=46 time=0
note_on channel=0 note=60 velocity=0 time=90
note_on channel=0 note=75 velocity=0 time=0
note_on channel=0 note=68 velocity=0 time=0
note_on channel=0 note=65 velocity=53 time=0
note_on channel=0 note=73 velocity=53 time=0
note_on channel=0 note=49 velocity=44 time=0
note_on channel=0 note=58 velocity=44 time=0
note_on channel=0 note=58 velocity=0 time=90
note_on channel=0 note=65 velocity=0 time=0
note_on channel=0 note=73 velocity=0 time=0
note_on channel=0 note=49 velocity=0 time=0
note_on channel=0 note=68 velocity=53 time=0
note_on channel=0 note=72 velocity=53 time=0
note_on channel=0 note=63 velocity=45 time=0
note_on channel=0 note=51 velocity=45 time=0
note_on channel=0 note=51 velocity=0 time=90
note_on channel=0 note=68 velocity=0 time=0
note_on channel=0 note=72 velocity=0 time=0
note_on channel=0 note=63 velocity=0 time=0
note_on channel=0 note=67 velocity=52 time=0
note_on channel=0 note=70 velocity=52 time=0
note_on channel=0 note=51 velocity=42 time=0
note_on channel=0 note=61 velocity=42 time=0
note_on channel=0 note=61 velocity=0 time=90
note_on channel=0 note=67 velocity=0 time=0
note_on channel=0 note=70 velocity=0 time=0
note_on channel=0 note=51 velocity=0 time=0
note_on channel=0 note=68 velocity=51 time=390
note_on channel=0 note=56 velocity=41 time=0
note_on channel=0 note=60 velocity=41 time=0
note_on channel=0 note=60 velocity=0 time=90
note_on channel=0 note=56 velocity=0 time=0
note_on channel=0 note=68 velocity=0 time=0
note_on channel=0 note=73 velocity=65 time=0
note_on channel=0 note=78 velocity=65 time=0
note_on channel=0 note=70 velocity=55 time=0
note_on channel=0 note=70 velocity=0 time=480
note_on channel=0 note=78 velocity=0 time=0
note_on channel=0 note=73 velocity=0 time=0
note_on channel=0 note=73 velocity=65 time=0
note_on channel=0 note=77 velocity=65 time=0
note_on channel=0 note=68 velocity=55 time=0
note_on channel=0 note=68 velocity=0 time=0
note_on channel=0 note=77 velocity=0 time=0
note_on channel=0 note=73 velocity=0 time=0
note_on channel=0 note=72 velocity=61 time=0
note_on channel=0 note=75 velocity=61 time=0
note_on channel=0 note=66 velocity=52 time=0
note_on channel=0 note=66 velocity=0 time=480
note_on channel=0 note=75 velocity=0 time=0
note_on channel=0 note=72 velocity=0 time=0
note_on channel=0 note=73 velocity=56 time=0
note_on channel=0 note=80 velocity=56 time=0
note_on channel=0 note=65 velocity=47 time=0
note_on channel=0 note=65 velocity=0 time=90
note_on channel=0 note=80 velocity=0 time=0
note_on channel=0 note=73 velocity=0 time=0
note_on channel=0 note=70 velocity=55 time=0
note_on channel=0 note=78 velocity=55 time=0
note_on channel=0 note=54 velocity=47 time=0
note_on channel=0 note=63 velocity=47 time=0
note_on channel=0 note=63 velocity=0 time=90
note_on channel=0 note=70 velocity=0 time=0
note_on channel=0 note=78 velocity=0 time=0
note_on channel=0 note=54 velocity=0 time=0
note_on channel=0 note=73 velocity=55 time=0
note_on channel=0 note=77 velocity=55 time=0
note_on channel=0 note=56 velocity=47 time=0
note_on channel=0 note=68 velocity=47 time=0
note_on channel=0 note=68 velocity=0 time=90
note_on channel=0 note=73 velocity=0 time=0
note_on channel=0 note=77 velocity=0 time=0
note_on channel=0 note=56 velocity=0 time=0
note_on channel=0 note=72 velocity=53 time=0
note_on channel=0 note=75 velocity=53 time=0
note_on channel=0 note=56 velocity=45 time=0
note_on channel=0 note=66 velocity=45 time=0
note_on channel=0 note=66 velocity=0 time=90
note_on channel=0 note=72 velocity=0 time=0
note_on channel=0 note=75 velocity=0 time=0
note_on channel=0 note=56 velocity=0 time=0
note_on channel=0 note=73 velocity=50 time=390
note_on channel=0 note=61 velocity=44 time=0
note_on channel=0 note=65 velocity=44 time=0
note_on channel=0 note=65 velocity=0 time=90
note_on channel=0 note=61 velocity=0 time=0
note_on channel=0 note=73 velocity=0 time=0
note_on channel=0 note=61 velocity=65 time=0
note_on channel=0 note=73 velocity=65 time=0
note_on channel=0 note=53 velocity=47 time=0
note_on channel=0 note=56 velocity=47 time=0
note_on channel=0 note=56 velocity=0 time=0
note_on channel=0 note=53 velocity=0 time=0
note_on channel=0 note=51 velocity=55 time=0
note_on channel=0 note=56 velocity=55 time=0
note_on channel=0 note=73 velocity=0 time=0
note_on channel=0 note=61 velocity=0 time=0
note_on channel=0 note=60 velocity=65 time=0
note_on channel=0 note=72 velocity=65 time=0
note_on channel=0 note=72 velocity=0 time=0
note_on channel=0 note=56 velocity=0 time=0
note_on channel=0 note=51 velocity=0 time=0
note_on channel=0 note=60 velocity=0 time=0
note_on channel=0 note=58 velocity=65 time=0
note_on channel=0 note=70 velocity=65 time=0
note_on channel=0 note=55 velocity=49 time=0
note_on channel=0 note=49 velocity=49 time=0
note_on channel=0 note=49 velocity=0 time=0
note_on channel=0 note=55 velocity=0 time=0
note_on channel=0 note=58 velocity=0 time=0
note_on channel=0 note=63 velocity=65 time=0
note_on channel=0 note=48 velocity=55 time=0
note_on channel=0 note=60 velocity=55 time=0
note_on channel=0 note=60 velocity=0 time=480
note_on channel=0 note=70 velocity=0 time=0
note_on channel=0 note=63 velocity=0 time=0
note_on channel=0 note=48 velocity=0 time=0
note_on channel=0 note=75 velocity=65 time=0
note_on channel=0 note=75 velocity=0 time=120
note_on channel=0 note=73 velocity=62 time=0
note_on channel=0 note=65 velocity=62 time=0
note_on channel=0 note=49 velocity=48 time=0
note_on channel=0 note=58 velocity=48 time=0
note_on channel=0 note=58 velocity=0 time=240
note_on channel=0 note=49 velocity=0 time=0
note_on channel=0 note=65 velocity=0 time=240
note_on channel=0 note=68 velocity=62 time=0
note_on channel=0 note=51 velocity=52 time=0
note_on channel=0 note=63 velocity=52 time=0
note_on channel=0 note=63 velocity=0 time=240
note_on channel=0 note=51 velocity=0 time=0
note_on channel=0 note=68 velocity=0 time=240
note_on channel=0 note=73 velocity=0 time=0
note_on channel=0 note=72 velocity=62 time=0
note_on channel=0 note=72 velocity=0 time=0
note_on channel=0 note=67 velocity=58 time=0
note_on channel=0 note=70 velocity=58 time=0
note_on channel=0 note=51 velocity=45 time=0
note_on channel=0 note=61 velocity=45 time=0
note_on channel=0 note=61 velocity=0 time=240
note_on channel=0 note=51 velocity=0 time=0
note_on channel=0 note=67 velocity=0 time=240
note_on channel=0 note=56 velocity=48 time=0
note_on channel=0 note=60 velocity=48 time=0
note_on channel=0 note=60 velocity=0 time=240
note_on channel=0 note=56 velocity=0 time=0
note_on channel=0 note=70 velocity=0 time=240
note_on channel=0 note=68 velocity=56 time=0
note_on channel=0 note=68 velocity=0 time=240
note_on channel=0 note=66 velocity=66 time=0
note_on channel=0 note=78 velocity=66 time=0
note_on channel=0 note=58 velocity=49 time=0
note_on channel=0 note=61 velocity=49 time=0
note_on channel=0 note=61 velocity=0 time=480
note_on channel=0 note=58 velocity=0 time=0
note_on channel=0 note=56 velocity=56 time=0
note_on channel=0 note=61 velocity=56 time=0
note_on channel=0 note=78 velocity=0 time=480
note_on channel=0 note=66 velocity=0 time=0
note_on channel=0 note=65 velocity=65 time=0
note_on channel=0 note=77 velocity=65 time=0
note_on channel=0 note=77 velocity=0 time=0
note_on channel=0 note=61 velocity=0 time=0
note_on channel=0 note=56 velocity=0 time=0
note_on channel=0 note=65 velocity=0 time=0
note_on channel=0 note=63 velocity=65 time=0
note_on channel=0 note=75 velocity=65 time=0
note_on channel=0 note=54 velocity=55 time=0
note_on channel=0 note=60 velocity=55 time=0
note_on channel=0 note=60 velocity=0 time=0
note_on channel=0 note=54 velocity=0 time=0
note_on channel=0 note=63 velocity=0 time=0
note_on channel=0 note=68 velocity=73 time=0
note_on channel=0 note=53 velocity=60 time=0
note_on channel=0 note=65 velocity=60 time=0
note_on channel=0 note=65 velocity=0 time=480
note_on channel=0 note=75 velocity=0 time=0
note_on channel=0 note=68 velocity=0 time=0
note_on channel=0 note=53 velocity=0 time=0
note_on channel=0 note=80 velocity=73 time=0
note_on channel=0 note=80 velocity=0 time=120
note_on channel=0 note=70 velocity=62 time=0
note_on channel=0 note=78 velocity=62 time=0
note_on channel=0 note=54 velocity=46 time=0
note_on channel=0 note=63 velocity=46 time=0
note_on channel=0 note=63 velocity=0 time=240
note_on channel=0 note=54 velocity=0 time=0
note_on channel=0 note=70 velocity=0 time=240
note_on channel=0 note=73 velocity=62 time=0
note_on channel=0 note=56 velocity=52 time=0
note_on channel=0 note=68 velocity=52 time=0
note_on channel=0 note=68 velocity=0 time=240
note_on channel=0 note=56 velocity=0 time=0
note_on channel=0 note=73 velocity=0 time=240
note_on channel=0 note=78 velocity=0 time=0
note_on channel=0 note=77 velocity=62 time=0
note_on channel=0 note=77 velocity=0 time=0
note_on channel=0 note=75 velocity=62 time=0
note_on channel=0 note=72 velocity=62 time=0
note_on channel=0 note=56 velocity=45 time=0
note_on channel=0 note=66 velocity=45 time=0
note_on channel=0 note=66 velocity=0 time=240
note_on channel=0 note=56 velocity=0 time=0
note_on channel=0 note=72 velocity=0 time=240
note_on channel=0 note=61 velocity=47 time=0
note_on channel=0 note=65 velocity=47 time=0
note_on channel=0 note=65 velocity=0 time=240
note_on channel=0 note=61 velocity=0 time=0
note_on channel=0 note=75 velocity=0 time=240
note_on channel=0 note=73 velocity=59 time=0
note_on channel=0 note=73 velocity=0 time=240
note_on channel=0 note=73 velocity=53 time=0
note_on channel=0 note=65 velocity=53 time=0
note_on channel=0 note=61 velocity=46 time=0
control_change channel=0 control=64 value=127 time=113
note_on channel=0 note=61 velocity=0 time=367
note_on channel=0 note=65 velocity=0 time=0
note_on channel=0 note=73 velocity=0 time=0
note_on channel=0 note=73 velocity=58 time=0
note_on channel=0 note=65 velocity=58 time=0
note_on channel=0 note=58 velocity=50 time=0
note_on channel=0 note=58 velocity=0 time=960
note_on channel=0 note=65 velocity=0 time=0
note_on channel=0 note=73 velocity=0 time=0
note_on channel=0 note=65 velocity=57 time=0
note_on channel=0 note=73 velocity=57 time=0
note_on channel=0 note=56 velocity=50 time=0
note_on channel=0 note=56 velocity=0 time=480
note_on channel=0 note=73 velocity=0 time=0
note_on channel=0 note=65 velocity=0 time=0
note_on channel=0 note=63 velocity=57 time=0
note_on channel=0 note=73 velocity=57 time=0
note_on channel=0 note=55 velocity=50 time=0
control_change channel=0 control=64 value=0 time=8
note_on channel=0 note=55 velocity=0 time=472
note_on channel=0 note=73 velocity=0 time=0
note_on channel=0 note=72 velocity=58 time=0
note_on channel=0 note=56 velocity=47 time=0
note_on channel=0 note=56 velocity=0 time=240
note_on channel=0 note=72 velocity=0 time=0
note_on channel=0 note=63 velocity=0 time=0
note_on channel=0 note=63 velocity=58 time=0
note_on channel=0 note=71 velocity=58 time=0
note_on channel=0 note=56 velocity=47 time=0
control_change channel=0 control=64 value=127 time=160
note_on channel=0 note=56 velocity=0 time=320
note_on channel=0 note=71 velocity=0 time=0
note_on channel=0 note=63 velocity=0 time=0
note_on channel=0 note=63 velocity=58 time=0
note_on channel=0 note=71 velocity=58 time=0
note_on channel=0 note=56 velocity=47 time=0
note_on channel=0 note=56 velocity=0 time=960
note_on channel=0 note=71 velocity=0 time=0
note_on channel=0 note=63 velocity=0 time=0
note_on channel=0 note=63 velocity=56 time=0
note_on channel=0 note=71 velocity=56 time=0
note_on channel=0 note=54 velocity=47 time=0
note_on channel=0 note=54 velocity=0 time=480
note_on channel=0 note=71 velocity=0 time=0
note_on channel=0 note=63 velocity=0 time=0
note_on channel=0 note=63 velocity=56 time=0
note_on channel=0 note=71 velocity=56 time=0
note_on channel=0 note=53 velocity=48 time=0
control_change channel=0 control=64 value=0 time=18
note_on channel=0 note=53 velocity=0 time=462
note_on channel=0 note=71 velocity=0 time=0
note_on channel=0 note=70 velocity=56 time=0
note_on channel=0 note=54 velocity=48 time=0
note_on channel=0 note=54 velocity=0 time=240
note_on channel=0 note=70 velocity=0 time=0
note_on channel=0 note=63 velocity=0 time=240
note_on channel=0 note=61 velocity=65 time=0
note_on channel=0 note=70 velocity=65 time=0
note_on channel=0 note=54 velocity=55 time=0
control_change channel=0 control=64 value=127 time=8
note_on channel=0 note=54 velocity=0 time=160
note_on channel=0 note=70 velocity=0 time=0
note_on channel=0 note=61 velocity=0 time=0
note_on channel=0 note=66 velocity=75 time=0
note_on channel=0 note=72 velocity=75 time=0
note_on channel=0 note=51 velocity=58 time=0
note_on channel=0 note=56 velocity=58 time=0
control_change channel=0 control=64 value=0 time=0
control_change channel=0 control=64 value=127 time=35
note_on channel=0 note=56 velocity=0 time=16
note_on channel=0 note=66 velocity=0 time=0
note_on channel=0 note=72 velocity=0 time=0
note_on channel=0 note=51 velocity=0 time=0
note_on channel=0 note=65 velocity=78 time=0
note_on channel=0 note=73 velocity=78 time=0
note_on channel=0 note=49 velocity=65 time=0
note_on channel=0 note=56 velocity=65 time=0
control_change channel=0 control=64 value=0 time=4
control_change channel=0 control=64 value=127 time=14
note_on channel=0 note=56 velocity=0 time=104
note_on channel=0 note=65 velocity=0 time=0
note_on channel=0 note=73 velocity=0 time=0
note_on channel=0 note=49 velocity=0 time=0
note_on channel=0 note=66 velocity=90 time=0
note_on channel=0 note=75 velocity=90 time=0
note_on channel=0 note=48 velocity=73 time=0
note_on channel=0 note=56 velocity=73 time=0
control_change channel=0 control=64 value=0 time=7
control_change channel=0 control=64 value=127 time=233
note_on channel=0 note=75 velocity=0 time=720
note_on channel=0 note=66 velocity=0 time=0
note_on channel=0 note=63 velocity=77 time=0
note_on channel=0 note=66 velocity=77 time=0
control_change channel=0 control=64 value=0 time=17
control_change channel=0 control=64 value=127 time=277
note_on channel=0 note=48 velocity=0 time=8
note_on channel=0 note=56 velocity=0 time=0
note_on channel=0 note=49 velocity=56 time=0
note_on channel=0 note=56 velocity=56 time=0
note_on channel=0 note=63 velocity=0 time=480
note_on channel=0 note=66 velocity=0 time=0
note_on channel=0 note=61 velocity=65 time=0
note_on channel=0 note=65 velocity=65 time=0
control_change channel=0 control=64 value=0 time=18
control_change channel=0 control=64 value=127 time=123
note_on channel=0 note=65 velocity=0 time=0
note_on channel=0 note=56 velocity=0 time=0
note_on channel=0 note=49 velocity=0 time=0
note_on channel=0 note=61 velocity=0 time=0
note_on channel=0 note=70 velocity=65 time=0
note_on channel=0 note=58 velocity=65 time=0
note_on channel=0 note=54 velocity=55 time=0
note_on channel=0 note=42 velocity=55 time=0
control_change channel=0 control=64 value=0 time=19
control_change channel=0 control=64 value=127 time=122
note_on channel=0 note=54 velocity=0 time=99
note_on channel=0 note=70 velocity=0 time=0
note_on channel=0 note=66 velocity=65 time=0
note_on channel=0 note=51 velocity=55 time=0
note_on channel=0 note=51 velocity=0 time=240
note_on channel=0 note=42 velocity=0 time=0
note_on channel=0 note=58 velocity=0 time=0
note_on channel=0 note=66 velocity=0 time=0
note_on channel=0 note=61 velocity=71 time=0
note_on channel=0 note=65 velocity=71 time=0
note_on channel=0 note=42 velocity=55 time=0
note_on channel=0 note=56 velocity=55 time=0
control_change channel=0 control=64 value=0 time=0
control_change channel=0 control=64 value=127 time=294
note_on channel=0 note=65 velocity=0 time=0
note_on channel=0 note=61 velocity=0 time=0
note_on channel=0 note=60 velocity=65 time=0
note_on channel=0 note=63 velocity=65 time=0
control_change channel=0 control=64 value=0 time=15
note_on channel=0 note=63 velocity=0 time=225
note_on channel=0 note=56 velocity=0 time=0
note_on channel=0 note=42 velocity=0 time=0
note_on channel=0 note=60 velocity=0 time=0
note_on channel=0 note=61 velocity=65 time=240
note_on channel=0 note=73 velocity=65 time=0
note_on channel=0 note=53 velocity=51 time=0
note_on channel=0 note=56 velocity=51 time=0
note_on channel=0 note=56 velocity=0 time=472
note_on channel=0 note=61 velocity=0 time=0
note_on channel=0 note=73 velocity=0 time=0
note_on channel=0 note=53 velocity=0 time=0
note_on channel=0 note=60 velocity=66 time=0
note_on channel=0 note=72 velocity=66 time=0
note_on channel=0 note=51 velocity=56 time=0
note_on channel=0 note=56 velocity=56 time=0
note_on channel=0 note=56 velocity=0 time=0
note_on channel=0 note=60 velocity=0 time=0
note_on channel=0 note=72 velocity=0 time=0
note_on channel=0 note=51 velocity=0 time=0
note_on channel=0 note=70 velocity=61 time=0
note_on channel=0 note=58 velocity=61 time=0
note_on channel=0 note=49 velocity=47 time=0
note_on channel=0 note=55 velocity=47 time=0
note_on channel=0 note=55 velocity=0 time=480
note_on channel=0 note=70 velocity=0 time=0
note_on channel=0 note=58 velocity=0 time=0
note_on channel=0 note=49 velocity=0 time=0
note_on channel=0 note=63 velocity=59 time=0
note_on channel=0 note=75 velocity=59 time=0
note_on channel=0 note=48 velocity=49 time=0
note_on channel=0 note=60 velocity=49 time=0
note_on channel=0 note=60 velocity=0 time=90
note_on channel=0 note=63 velocity=0 time=0
note_on channel=0 note=75 velocity=0 time=0
note_on channel=0 note=48 velocity=0 time=0
note_on channel=0 note=65 velocity=64 time=0
note_on channel=0 note=73 velocity=64 time=0
note_on channel=0 note=49 velocity=48 time=0
note_on channel=0 note=58 velocity=48 time=0
note_on channel=0 note=58 velocity=0 time=240
note_on channel=0 note=49 velocity=0 time=0
note_on channel=0 note=65 velocity=0 time=0
note_on channel=0 note=68 velocity=64 time=0
note_on channel=0 note=51 velocity=54 time=0
note_on channel=0 note=63 velocity=54 time=0
note_on channel=0 note=63 velocity=0 time=240
note_on channel=0 note=51 velocity=0 time=0
note_on channel=0 note=68 velocity=0 time=0
note_on channel=0 note=73 velocity=0 time=0
note_on channel=0 note=72 velocity=64 time=0
note_on channel=0 note=72 velocity=0 time=0
note_on channel=0 note=67 velocity=60 time=0
note_on channel=0 note=70 velocity=60 time=0
note_on channel=0 note=51 velocity=47 time=0
note_on channel=0 note=61 velocity=47 time=0
note_on channel=0 note=61 velocity=0 time=240
note_on channel=0 note=51 velocity=0 time=0
note_on channel=0 note=67 velocity=0 time=240
note_on channel=0 note=56 velocity=51 time=0
note_on channel=0 note=60 velocity=51 time=0
note_on channel=0 note=60 velocity=0 time=240
note_on channel=0 note=56 velocity=0 time=0
note_on channel=0 note=70 velocity=0 time=240
note_on channel=0 note=68 velocity=60 time=0
note_on channel=0 note=68 velocity=0 time=240
note_on channel=0 note=66 velocity=64 time=0
note_on channel=0 note=78 velocity=64 time=0
note_on channel=0 note=58 velocity=49 time=0
note_on channel=0 note=61 velocity=49 time=0
note_on channel=0 note=61 velocity=0 time=480
note_on channel=0 note=66 velocity=0 time=0
note_on channel=0 note=78 velocity=0 time=0
note_on channel=0 note=58 velocity=0 time=0
note_on channel=0 note=65 velocity=65 time=0
note_on channel=0 note=77 velocity=65 time=0
note_on channel=0 note=56 velocity=56 time=0
note_on channel=0 note=61 velocity=56 time=0
note_on channel=0 note=61 velocity=0 time=0
note_on channel=0 note=65 velocity=0 time=0
note_on channel=0 note=77 velocity=0 time=0
note_on channel=0 note=56 velocity=0 time=0
note_on channel=0 note=63 velocity=64 time=0
note_on channel=0 note=75 velocity=64 time=0
note_on channel=0 note=54 velocity=49 time=0
note_on channel=0 note=60 velocity=49 time=0
note_on channel=0 note=60 velocity=0 time=480
note_on channel=0 note=63 velocity=0 time=0
note_on channel=0 note=75 velocity=0 time=0
note_on channel=0 note=54 velocity=0 time=0
note_on channel=0 note=68 velocity=62 time=0
note_on channel=0 note=80 velocity=62 time=0
note_on channel=0 note=53 velocity=53 time=0
note_on channel=0 note=61 velocity=53 time=0
note_on channel=0 note=61 velocity=0 time=90
note_on channel=0 note=68 velocity=0 time=0
note_on channel=0 note=80 velocity=0 time=0
note_on channel=0 note=53 velocity=0 time=0
note_on channel=0 note=66 velocity=64 time=0
note_on channel=0 note=78 velocity=64 time=0
note_on channel=0 note=58 velocity=47 time=0
note_on channel=0 note=61 velocity=47 time=0
note_on channel=0 note=61 velocity=0 time=0
note_on channel=0 note=58 velocity=0 time=0
note_on channel=0 note=56 velocity=55 time=0
note_on channel=0 note=61 velocity=55 time=0
note_on channel=0 note=78 velocity=0 time=0
note_on channel=0 note=66 velocity=0 time=0
note_on channel=0 note=65 velocity=64 time=0
note_on channel=0 note=77 velocity=64 time=0
note_on channel=0 note=77 velocity=0 time=0
note_on channel=0 note=61 velocity=0 time=0
note_on channel=0 note=56 velocity=0 time=0
note_on channel=0 note=65 velocity=0 time=0
note_on channel=0 note=63 velocity=64 time=0
note_on channel=0 note=75 velocity=64 time=0
note_on channel=0 note=54 velocity=47 time=0
note_on channel=0 note=60 velocity=47 time=0
note_on channel=0 note=75 velocity=0 time=240
note_on channel=0 note=63 velocity=0 time=0
note_on channel=0 note=54 velocity=0 time=240
note_on channel=0 note=60 velocity=0 time=0
note_on channel=0 note=68 velocity=65 time=0
note_on channel=0 note=80 velocity=65 time=0
note_on channel=0 note=53 velocity=56 time=0
note_on channel=0 note=61 velocity=56 time=0
note_on channel=0 note=61 velocity=0 time=90
note_on channel=0 note=68 velocity=0 time=0
note_on channel=0 note=80 velocity=0 time=0
note_on channel=0 note=53 velocity=0 time=0
note_on channel=0 note=66 velocity=74 time=870
note_on channel=0 note=78 velocity=74 time=0
note_on channel=0 note=58 velocity=54 time=0
note_on channel=0 note=61 velocity=54 time=0
note_on channel=0 note=61 velocity=0 time=8
note_on channel=0 note=58 velocity=0 time=0
note_on channel=0 note=56 velocity=61 time=0
note_on channel=0 note=61 velocity=61 time=0
note_on channel=0 note=78 velocity=0 time=8
note_on channel=0 note=66 velocity=0 time=0
note_on channel=0 note=65 velocity=80 time=0
note_on channel=0 note=77 velocity=80 time=0
note_on channel=0 note=77 velocity=0 time=24
note_on channel=0 note=61 velocity=0 time=0
note_on channel=0 note=56 velocity=0 time=0
note_on channel=0 note=65 velocity=0 time=0
note_on channel=0 note=70 velocity=97 time=0
note_on channel=0 note=82 velocity=97 time=0
note_on channel=0 note=55 velocity=71 time=0
note_on channel=0 note=64 velocity=71 time=0
note_on channel=0 note=61 velocity=71 time=0
note_on channel=0 note=61 velocity=0 time=56
note_on channel=0 note=55 velocity=0 time=0
note_on channel=0 note=64 velocity=0 time=0
note_on channel=0 note=56 velocity=74 time=0
note_on channel=0 note=61 velocity=74 time=0
note_on channel=0 note=65 velocity=74 time=0
note_on channel=0 note=65 velocity=0 time=440
note_on channel=0 note=56 velocity=0 time=0
note_on channel=0 note=70 velocity=0 time=0
note_on channel=0 note=82 velocity=0 time=0
note_on channel=0 note=61 velocity=0 time=0
note_on channel=0 note=68 velocity=77 time=0
note_on channel=0 note=80 velocity=77 time=0
note_on channel=0 note=80 velocity=0 time=480
note_on channel=0 note=68 velocity=0 time=0
note_on channel=0 note=54 velocity=64 time=480
note_on channel=0 note=60 velocity=64 time=0
note_on channel=0 note=32 velocity=54 time=0
note_on channel=0 note=44 velocity=54 time=0
control_change channel=0 control=64 value=127 time=156
note_on channel=0 note=60 velocity=0 time=0
note_on channel=0 note=63 velocity=61 time=0
note_on channel=0 note=63 velocity=0 time=240
note_on channel=0 note=61 velocity=61 time=0
note_on channel=0 note=61 velocity=0 time=240
note_on channel=0 note=54 velocity=0 time=0
note_on channel=0 note=32 velocity=0 time=0
note_on channel=0 note=44 velocity=0 time=0
note_on channel=0 note=53 velocity=54 time=0
note_on channel=0 note=61 velocity=58 time=0
note_on channel=0 note=37 velocity=51 time=0
note_on channel=0 note=44 velocity=51 time=0
control_change channel=0 control=64 value=0 time=0
note_on channel=0 note=44 velocity=0 time=0
note_on channel=0 note=53 velocity=0 time=0
note_on channel=0 note=61 velocity=0 time=0
note_on channel=0 note=37 velocity=0 time=0
note_on channel=0 note=73 velocity=64 time=0
note_on channel=0 note=65 velocity=64 time=0
note_on channel=0 note=61 velocity=54 time=0
control_change channel=0 control=64 value=127 time=113
note_on channel=0 note=61 velocity=0 time=367
note_on channel=0 note=65 velocity=0 time=0
note_on channel=0 note=73 velocity=0 time=0
note_on channel=0 note=73 velocity=64 time=0
note_on channel=0 note=65 velocity=64 time=0
note_on channel=0 note=58 velocity=54 time=0
note_on channel=0 note=58 velocity=0 time=0
note_on channel=0 note=65 velocity=0 time=0
note_on channel=0 note=73 velocity=0 time=0
note_on channel=0 note=65 velocity=64 time=0
note_on channel=0 note=73 velocity=64 time=0
note_on channel=0 note=56 velocity=54 time=0
note_on channel=0 note=56 velocity=0 time=480
note_on channel=0 note=73 velocity=0 time=0
note_on channel=0 note=65 velocity=0 time=0
note_on channel=0 note=63 velocity=64 time=0
note_on channel=0 note=73 velocity=64 time=0
note_on channel=0 note=55 velocity=54 time=0
control_change channel=0 control=64 value=0 time=8
note_on channel=0 note=55 velocity=0 time=472
note_on channel=0 note=73 velocity=0 time=0
note_on channel=0 note=72 velocity=64 time=0
note_on channel=0 note=56 velocity=54 time=0
note_on channel=0 note=56 velocity=0 time=240
note_on channel=0 note=72 velocity=0 time=0
note_on channel=0 note=63 velocity=0 time=0
note_on channel=0 note=63 velocity=61 time=0
note_on channel=0 note=71 velocity=61 time=0
note_on channel=0 note=56 velocity=51 time=0
control_change channel=0 control=64 value=127 time=160
note_on channel=0 note=56 velocity=0 time=320
note_on channel=0 note=71 velocity=0 time=0
note_on channel=0 note=63 velocity=0 time=0
note_on channel=0 note=63 velocity=61 time=0
note_on channel=0 note=71 velocity=61 time=0
note_on channel=0 note=56 velocity=51 time=0
note_on channel=0 note=56 velocity=0 time=960
note_on channel=0 note=71 velocity=0 time=0
note_on channel=0 note=63 velocity=0 time=0
note_on channel=0 note=63 velocity=58 time=0
note_on channel=0 note=71 velocity=58 time=0
note_on channel=0 note=54 velocity=51 time=0
note_on channel=0 note=54 velocity=0 time=480
note_on channel=0 note=71 velocity=0 time=0
note_on channel=0 note=63 velocity=0 time=0
note_on channel=0 note=63 velocity=58 time=0
note_on channel=0 note=71 velocity=58 time=0
note_on channel=0 note=53 velocity=51 time=0
control_change channel=0 control=64 value=0 time=18
note_on channel=0 note=53 velocity=0 time=462
note_on channel=0 note=71 velocity=0 time=0
note_on channel=0 note=70 velocity=58 time=0
note_on channel=0 note=54 velocity=51 time=0
note_on channel=0 note=54 velocity=0 time=240
note_on channel=0 note=70 velocity=0 time=0
note_on channel=0 note=63 velocity=0 time=240
note_on channel=0 note=61 velocity=64 time=0
note_on channel=0 note=70 velocity=64 time=0
note_on channel=0 note=54 velocity=54 time=0
control_change channel=0 control=64 value=127 time=8
note_on channel=0 note=54 velocity=0 time=160
note_on channel=0 note=70 velocity=0 time=0
note_on channel=0 note=61 velocity=0 time=0
note_on channel=0 note=66 velocity=74 time=0
note_on channel=0 note=72 velocity=74 time=0
note_on channel=0 note=51 velocity=58 time=0
note_on channel=0 note=56 velocity=58 time=0
control_change channel=0 control=64 value=0 time=0
control_change channel=0 control=64 value=127 time=35
note_on channel=0 note=56 velocity=0 time=16
note_on channel=0 note=66 velocity=0 time=0
note_on channel=0 note=72 velocity=0 time=0
note_on channel=0 note=51 velocity=0 time=0
note_on channel=0 note=65 velocity=77 time=0
note_on channel=0 note=73 velocity=77 time=0
note_on channel=0 note=49 velocity=64 time=0
note_on channel=0 note=56 velocity=64 time=0
control_change channel=0 control=64 value=0 time=4
control_change channel=0 control=64 value=127 time=14
note_on channel=0 note=56 velocity=0 time=104
note_on channel=0 note=65 velocity=0 time=0
note_on channel=0 note=73 velocity=0 time=0
note_on channel=0 note=49 velocity=0 time=0
note_on channel=0 note=66 velocity=89 time=0
note_on channel=0 note=75 velocity=89 time=0
note_on channel=0 note=48 velocity=72 time=0
note_on channel=0 note=56 velocity=72 time=0
control_change channel=0 control=64 value=0 time=7
control_change channel=0 control=64 value=127 time=233
note_on channel=0 note=75 velocity=0 time=720
note_on channel=0 note=66 velocity=0 time=0
note_on channel=0 note=63 velocity=76 time=0
note_on channel=0 note=66 velocity=76 time=0
control_change channel=0 control=64 value=0 time=17
control_change channel=0 control=64 value=127 time=277
note_on channel=0 note=48 velocity=0 time=8
note_on channel=0 note=56 velocity=0 time=0
note_on channel=0 note=49 velocity=56 time=0
note_on channel=0 note=56 velocity=56 time=0
note_on channel=0 note=63 velocity=0 time=480
note_on channel=0 note=66 velocity=0 time=0
note_on channel=0 note=61 velocity=64 time=0
note_on channel=0 note=65 velocity=64 time=0
control_change channel=0 control=64 value=0 time=18
control_change channel=0 control=64 value=127 time=123
note_on channel=0 note=65 velocity=0 time=0
note_on channel=0 note=56 velocity=0 time=0
note_on channel=0 note=49 velocity=0 time=0
note_on channel=0 note=61 velocity=0 time=0
note_on channel=0 note=70 velocity=64 time=0
note_on channel=0 note=58 velocity=64 time=0
note_on channel=0 note=54 velocity=54 time=0
note_on channel=0 note=42 velocity=54 time=0
control_change channel=0 control=64 value=0 time=19
control_change channel=0 control=64 value=127 time=122
note_on channel=0 note=54 velocity=0 time=99
note_on channel=0 note=70 velocity=0 time=0
note_on channel=0 note=66 velocity=64 time=0
note_on channel=0 note=51 velocity=54 time=0
note_on channel=0 note=51 velocity=0 time=240
note_on channel=0 note=42 velocity=0 time=0
note_on channel=0 note=58 velocity=0 time=0
note_on channel=0 note=66 velocity=0 time=0
note_on channel=0 note=61 velocity=71 time=0
note_on channel=0 note=65 velocity=71 time=0
note_on channel=0 note=42 velocity=54 time=0
note_on channel=0 note=56 velocity=54 time=0
control_change channel=0 control=64 value=0 time=0
control_change channel=0 control=64 value=127 time=294
note_on channel=0 note=65 velocity=0 time=0
note_on channel=0 note=61 velocity=0 time=0
note_on channel=0 note=60 velocity=64 time=0
note_on channel=0 note=63 velocity=64 time=0
control_change channel=0 control=64 value=0 time=15
note_on channel=0 note=63 velocity=0 time=225
note_on channel=0 note=56 velocity=0 time=0
note_on channel=0 note=42 velocity=0 time=0
note_on channel=0 note=60 velocity=0 time=0
note_on channel=0 note=61 velocity=64 time=240
note_on channel=0 note=73 velocity=64 time=0
note_on channel=0 note=53 velocity=50 time=0
note_on channel=0 note=56 velocity=50 time=0
note_on channel=0 note=56 velocity=0 time=472
note_on channel=0 note=61 velocity=0 time=0
note_on channel=0 note=73 velocity=0 time=0
note_on channel=0 note=53 velocity=0 time=0
note_on channel=0 note=60 velocity=65 time=0
note_on channel=0 note=72 velocity=65 time=0
note_on channel=0 note=51 velocity=56 time=0
note_on channel=0 note=56 velocity=56 time=0
note_on channel=0 note=56 velocity=0 time=0
note_on channel=0 note=60 velocity=0 time=0
note_on channel=0 note=72 velocity=0 time=0
note_on channel=0 note=51 velocity=0 time=0
note_on channel=0 note=70 velocity=62 time=0
note_on channel=0 note=58 velocity=62 time=0
note_on channel=0 note=49 velocity=48 time=0
note_on channel=0 note=55 velocity=48 time=0
note_on channel=0 note=55 velocity=0 time=0
note_on channel=0 note=70 velocity=0 time=0
note_on channel=0 note=58 velocity=0 time=0
note_on channel=0 note=49 velocity=0 time=0
note_on channel=0 note=63 velocity=60 time=0
note_on channel=0 note=75 velocity=60 time=0
note_on channel=0 note=48 velocity=50 time=0
note_on channel=0 note=60 velocity=50 time=0
note_on channel=0 note=60 velocity=0 time=90
note_on channel=0 note=63 velocity=0 time=0
note_on channel=0 note=75 velocity=0 time=0
note_on channel=0 note=48 velocity=0 time=0
note_on channel=0 note=65 velocity=61 time=0
note_on channel=0 note=73 velocity=61 time=0
note_on channel=0 note=49 velocity=46 time=0
note_on channel=0 note=58 velocity=46 time=0
note_on channel=0 note=58 velocity=0 time=240
note_on channel=0 note=49 velocity=0 time=0
note_on channel=0 note=65 velocity=0 time=0
note_on channel=0 note=68 velocity=61 time=0
note_on channel=0 note=51 velocity=51 time=0
note_on channel=0 note=63 velocity=51 time=0
note_on channel=0 note=63 velocity=0 time=240
note_on channel=0 note=51 velocity=0 time=0
note_on channel=0 note=68 velocity=0 time=240
note_on channel=0 note=73 velocity=0 time=0
note_on channel=0 note=72 velocity=61 time=0
note_on channel=0 note=72 velocity=0 time=0
note_on channel=0 note=67 velocity=61 time=0
note_on channel=0 note=70 velocity=61 time=0
note_on channel=0 note=51 velocity=47 time=0
note_on channel=0 note=61 velocity=47 time=0
note_on channel=0 note=61 velocity=0 time=240
note_on channel=0 note=51 velocity=0 time=0
note_on channel=0 note=67 velocity=0 time=0
note_on channel=0 note=56 velocity=51 time=0
note_on channel=0 note=60 velocity=51 time=0
note_on channel=0 note=60 velocity=0 time=240
note_on channel=0 note=56 velocity=0 time=0
note_on channel=0 note=70 velocity=0 time=240
note_on channel=0 note=68 velocity=59 time=0
note_on channel=0 note=68 velocity=0 time=240
note_on channel=0 note=66 velocity=64 time=0
note_on channel=0 note=78 velocity=64 time=0
note_on channel=0 note=58 velocity=54 time=0
note_on channel=0 note=61 velocity=54 time=0
note_on channel=0 note=61 velocity=0 time=480
note_on channel=0 note=66 velocity=0 time=0
note_on channel=0 note=78 velocity=0 time=0
note_on channel=0 note=58 velocity=0 time=0
note_on channel=0 note=65 velocity=65 time=0
note_on channel=0 note=77 velocity=65 time=0
note_on channel=0 note=56 velocity=56 time=0
note_on channel=0 note=61 velocity=56 time=0
note_on channel=0 note=61 velocity=0 time=0
note_on channel=0 note=65 velocity=0 time=0
note_on channel=0 note=77 velocity=0 time=0
note_on channel=0 note=56 velocity=0 time=0
note_on channel=0 note=63 velocity=63 time=0
note_on channel=0 note=75 velocity=63 time=0
note_on channel=0 note=54 velocity=47 time=0
note_on channel=0 note=60 velocity=47 time=0
note_on channel=0 note=60 velocity=0 time=480
note_on channel=0 note=63 velocity=0 time=0
note_on channel=0 note=75 velocity=0 time=0
note_on channel=0 note=54 velocity=0 time=0
note_on channel=0 note=68 velocity=59 time=0
note_on channel=0 note=80 velocity=59 time=0
note_on channel=0 note=53 velocity=49 time=0
note_on channel=0 note=61 velocity=49 time=0
note_on channel=0 note=61 velocity=0 time=90
note_on channel=0 note=68 velocity=0 time=0
note_on channel=0 note=80 velocity=0 time=0
note_on channel=0 note=53 velocity=0 time=0
note_on channel=0 note=66 velocity=64 time=0
note_on channel=0 note=78 velocity=64 time=0
note_on channel=0 note=58 velocity=49 time=0
note_on channel=0 note=61 velocity=49 time=0
note_on channel=0 note=61 velocity=0 time=0
note_on channel=0 note=58 velocity=0 time=0
note_on channel=0 note=56 velocity=55 time=0
note_on channel=0 note=61 velocity=55 time=0
note_on channel=0 note=78 velocity=0 time=0
note_on channel=0 note=66 velocity=0 time=0
note_on channel=0 note=65 velocity=64 time=0
note_on channel=0 note=77 velocity=64 time=0
note_on channel=0 note=77 velocity=0 time=0
note_on channel=0 note=61 velocity=0 time=0
note_on channel=0 note=56 velocity=0 time=0
note_on channel=0 note=65 velocity=0 time=0
note_on channel=0 note=63 velocity=64 time=0
note_on channel=0 note=75 velocity=64 time=0
note_on channel=0 note=54 velocity=54 time=0
note_on channel=0 note=60 velocity=54 time=0
note_on channel=0 note=75 velocity=0 time=240
note_on channel=0 note=63 velocity=0 time=0
note_on channel=0 note=54 velocity=0 time=240
note_on channel=0 note=60 velocity=0 time=0
note_on channel=0 note=68 velocity=69 time=0
note_on channel=0 note=80 velocity=69 time=0
note_on channel=0 note=53 velocity=58 time=0
note_on channel=0 note=61 velocity=58 time=0
note_on channel=0 note=61 velocity=0 time=90
note_on channel=0 note=68 velocity=0 time=0
note_on channel=0 note=80 velocity=0 time=0
note_on channel=0 note=53 velocity=0 time=0
note_on channel=0 note=66 velocity=74 time=870
note_on channel=0 note=78 velocity=74 time=0
note_on channel=0 note=58 velocity=54 time=0
note_on channel=0 note=61 velocity=54 time=0
note_on channel=0 note=61 velocity=0 time=8
note_on channel=0 note=58 velocity=0 time=0
note_on channel=0 note=56 velocity=61 time=0
note_on channel=0 note=61 velocity=61 time=0
note_on channel=0 note=78 velocity=0 time=8
note_on channel=0 note=66 velocity=0 time=0
note_on channel=0 note=65 velocity=84 time=0
note_on channel=0 note=77 velocity=84 time=0
note_on channel=0 note=77 velocity=0 time=24
note_on channel=0 note=61 velocity=0 time=0
note_on channel=0 note=56 velocity=0 time=0
note_on channel=0 note=65 velocity=0 time=0
note_on channel=0 note=70 velocity=99 time=0
note_on channel=0 note=82 velocity=99 time=0
note_on channel=0 note=55 velocity=67 time=0
note_on channel=0 note=64 velocity=67 time=0
note_on channel=0 note=61 velocity=67 time=0
note_on channel=0 note=61 velocity=0 time=56
note_on channel=0 note=55 velocity=0 time=0
note_on channel=0 note=64 velocity=0 time=0
note_on channel=0 note=56 velocity=74 time=0
note_on channel=0 note=61 velocity=74 time=0
note_on channel=0 note=65 velocity=74 time=0
note_on channel=0 note=65 velocity=0 time=440
note_on channel=0 note=56 velocity=0 time=0
note_on channel=0 note=70 velocity=0 time=0
note_on channel=0 note=82 velocity=0 time=0
note_on channel=0 note=61 velocity=0 time=0
note_on channel=0 note=68 velocity=77 time=0
note_on channel=0 note=80 velocity=77 time=0
note_on channel=0 note=80 velocity=0 time=480
note_on channel=0 note=68 velocity=0 time=0
note_on channel=0 note=54 velocity=64 time=0
note_on channel=0 note=60 velocity=64 time=0
note_on channel=0 note=32 velocity=54 time=0
note_on channel=0 note=44 velocity=54 time=0
control_change channel=0 control=64 value=127 time=141
note_on channel=0 note=60 velocity=0 time=0
note_on channel=0 note=63 velocity=61 time=0
note_on channel=0 note=63 velocity=0 time=240
note_on channel=0 note=61 velocity=61 time=0
note_on channel=0 note=61 velocity=0 time=0
note_on channel=0 note=54 velocity=0 time=0
note_on channel=0 note=32 velocity=0 time=0
note_on channel=0 note=44 velocity=0 time=0
note_on channel=0 note=53 velocity=54 time=0
note_on channel=0 note=61 velocity=58 time=0
note_on channel=0 note=37 velocity=51 time=0
note_on channel=0 note=44 velocity=51 time=0
control_change channel=0 control=64 value=0 time=0
note_on channel=0 note=44 velocity=0 time=480
note_on channel=0 note=53 velocity=0 time=0
note_on channel=0 note=61 velocity=0 time=0
note_on channel=0 note=37 velocity=0 time=0
note_on channel=0 note=53 velocity=85 time=0
note_on channel=0 note=65 velocity=100 time=0
control_change channel=0 control=64 value=127 time=107
note_on channel=0 note=37 velocity=65 time=373
note_on channel=0 note=44 velocity=77 time=0
note_on channel=0 note=65 velocity=0 time=960
note_on channel=0 note=53 velocity=0 time=0
note_on channel=0 note=54 velocity=83 time=0
note_on channel=0 note=66 velocity=98 time=0
control_change channel=0 control=64 value=0 time=17
control_change channel=0 control=64 value=127 time=250
note_on channel=0 note=37 velocity=0 time=213
note_on channel=0 note=39 velocity=62 time=0
note_on channel=0 note=66 velocity=0 time=0
note_on channel=0 note=54 velocity=0 time=0
note_on channel=0 note=63 velocity=86 time=0
note_on channel=0 note=75 velocity=102 time=0
control_change channel=0 control=64 value=0 time=19
control_change channel=0 control=64 value=127 time=221
note_on channel=0 note=39 velocity=0 time=240
note_on channel=0 note=42 velocity=73 time=0
note_on channel=0 note=75 velocity=0 time=480
note_on channel=0 note=63 velocity=0 time=0
note_on channel=0 note=60 velocity=73 time=0
note_on channel=0 note=72 velocity=87 time=0
note_on channel=0 note=72 velocity=0 time=480
note_on channel=0 note=60 velocity=0 time=0
note_on channel=0 note=56 velocity=74 time=0
note_on channel=0 note=68 velocity=88 time=0
control_change channel=0 control=64 value=0 time=85
note_on channel=0 note=68 velocity=0 time=35
note_on channel=0 note=56 velocity=0 time=0
note_on channel=0 note=42 velocity=0 time=360
note_on channel=0 note=61 velocity=75 time=0
note_on channel=0 note=73 velocity=89 time=0
note_on channel=0 note=41 velocity=73 time=0
control_change channel=0 control=64 value=127 time=267
note_on channel=0 note=73 velocity=0 time=0
note_on channel=0 note=61 velocity=0 time=0
note_on channel=0 note=65 velocity=69 time=0
note_on channel=0 note=77 velocity=82 time=0
note_on channel=0 note=77 velocity=0 time=240
note_on channel=0 note=65 velocity=0 time=0
note_on channel=0 note=53 velocity=84 time=0
note_on channel=0 note=65 velocity=99 time=0
control_change channel=0 control=64 value=0 time=20
control_change channel=0 control=64 value=127 time=194
note_on channel=0 note=44 velocity=0 time=266
note_on channel=0 note=41 velocity=0 time=0
note_on channel=0 note=37 velocity=67 time=0
note_on channel=0 note=44 velocity=79 time=0
note_on channel=0 note=53 velocity=0 time=960
note_on channel=0 note=65 velocity=0 time=0
note_on channel=0 note=54 velocity=84 time=0
note_on channel=0 note=66 velocity=99 time=0
control_change channel=0 control=64 value=0 time=18
control_change channel=0 control=64 value=127 time=222
note_on channel=0 note=37 velocity=0 time=240
note_on channel=0 note=39 velocity=74 time=0
note_on channel=0 note=66 velocity=0 time=0
note_on channel=0 note=54 velocity=0 time=0
note_on channel=0 note=66 velocity=73 time=0
note_on channel=0 note=78 velocity=87 time=0
control_change channel=0 control=64 value=0 time=20
control_change channel=0 control=64 value=127 time=247
note_on channel=0 note=39 velocity=0 time=213
note_on channel=0 note=32 velocity=73 time=0
note_on channel=0 note=78 velocity=0 time=480
note_on channel=0 note=66 velocity=0 time=0
note_on channel=0 note=70 velocity=70 time=0
note_on channel=0 note=82 velocity=83 time=0
note_on channel=0 note=82 velocity=0 time=240
note_on channel=0 note=70 velocity=0 time=0
note_on channel=0 note=44 velocity=0 time=240
note_on channel=0 note=60 velocity=67 time=0
note_on channel=0 note=72 velocity=79 time=0
note_on channel=0 note=44 velocity=72 time=0
control_change channel=0 control=64 value=0 time=21
note_on channel=0 note=72 velocity=0 time=99
note_on channel=0 note=60 velocity=0 time=0
note_on channel=0 note=32 velocity=0 time=360
note_on channel=0 note=63 velocity=71 time=0
note_on channel=0 note=75 velocity=84 time=0
note_on channel=0 note=37 velocity=73 time=0
control_change channel=0 control=64 value=127 time=0
note_on channel=0 note=75 velocity=0 time=0
note_on channel=0 note=63 velocity=0 time=0
note_on channel=0 note=61 velocity=66 time=0
note_on channel=0 note=73 velocity=78 time=0
note_on channel=0 note=73 velocity=0 time=0
note_on channel=0 note=37 velocity=0 time=0
note_on channel=0 note=44 velocity=0 time=0
note_on channel=0 note=61 velocity=0 time=0
note_on channel=0 note=53 velocity=84 time=0
note_on channel=0 note=65 velocity=99 time=0
control_change channel=0 control=64 value=0 time=15
control_change channel=0 control=64 value=127 time=225
note_on channel=0 note=37 velocity=67 time=240
note_on channel=0 note=44 velocity=79 time=0
note_on channel=0 note=65 velocity=0 time=960
note_on channel=0 note=53 velocity=0 time=0
note_on channel=0 note=54 velocity=85 time=0
note_on channel=0 note=66 velocity=100 time=0
control_change channel=0 control=64 value=0 time=15
control_change channel=0 control=64 value=127 time=225
note_on channel=0 note=37 velocity=0 time=240
note_on channel=0 note=39 velocity=73 time=0
note_on channel=0 note=66 velocity=0 time=0
note_on channel=0 note=54 velocity=0 time=0
note_on channel=0 note=63 velocity=84 time=0
note_on channel=0 note=75 velocity=99 time=0
control_change channel=0 control=64 value=0 time=17
control_change channel=0 control=64 value=127 time=250
note_on channel=0 note=39 velocity=0 time=213
note_on channel=0 note=42 velocity=73 time=0
note_on channel=0 note=75 velocity=0 time=480
note_on channel=0 note=63 velocity=0 time=0
note_on channel=0 note=60 velocity=73 time=0
note_on channel=0 note=72 velocity=87 time=0
note_on channel=0 note=72 velocity=0 time=480
note_on channel=0 note=60 velocity=0 time=0
note_on channel=0 note=56 velocity=74 time=0
note_on channel=0 note=68 velocity=88 time=0
control_change channel=0 control=64 value=0 time=28
note_on channel=0 note=68 velocity=0 time=92
note_on channel=0 note=56 velocity=0 time=0
note_on channel=0 note=42 velocity=0 time=360
note_on channel=0 note=61 velocity=75 time=0
note_on channel=0 note=73 velocity=89 time=0
note_on channel=0 note=41 velocity=73 time=0
control_change channel=0 control=64 value=127 time=27
note_on channel=0 note=73 velocity=0 time=0
note_on channel=0 note=61 velocity=0 time=0
note_on channel=0 note=65 velocity=70 time=0
note_on channel=0 note=77 velocity=83 time=0
note_on channel=0 note=77 velocity=0 time=240
note_on channel=0 note=65 velocity=0 time=0
note_on channel=0 note=53 velocity=85 time=0
note_on channel=0 note=65 velocity=100 time=0
control_change channel=0 control=64 value=0 time=18
control_change channel=0 control=64 value=127 time=169
note_on channel=0 note=44 velocity=0 time=293
note_on channel=0 note=41 velocity=0 time=0
note_on channel=0 note=37 velocity=67 time=0
note_on channel=0 note=44 velocity=79 time=0
note_on channel=0 note=53 velocity=0 time=960
note_on channel=0 note=65 velocity=0 time=0
note_on channel=0 note=54 velocity=86 time=0
note_on channel=0 note=66 velocity=102 time=0
control_change channel=0 control=64 value=0 time=16
control_change channel=0 control=64 value=127 time=278
note_on channel=0 note=37 velocity=0 time=186
note_on channel=0 note=39 velocity=74 time=0
note_on channel=0 note=66 velocity=0 time=0
note_on channel=0 note=54 velocity=0 time=0
note_on channel=0 note=66 velocity=73 time=0
note_on channel=0 note=78 velocity=87 time=0
control_change channel=0 control=64 value=0 time=15
control_change channel=0 control=64 value=127 time=305
note_on channel=0 note=39 velocity=0 time=160
note_on channel=0 note=32 velocity=73 time=0
note_on channel=0 note=78 velocity=0 time=480
note_on channel=0 note=66 velocity=0 time=0
note_on channel=0 note=70 velocity=73 time=0
note_on channel=0 note=82 velocity=87 time=0
note_on channel=0 note=82 velocity=0 time=240
note_on channel=0 note=70 velocity=0 time=0
note_on channel=0 note=44 velocity=0 time=240
note_on channel=0 note=60 velocity=72 time=0
note_on channel=0 note=72 velocity=85 time=0
note_on channel=0 note=44 velocity=72 time=0
control_change channel=0 control=64 value=0 time=14
note_on channel=0 note=72 velocity=0 time=106
note_on channel=0 note=60 velocity=0 time=0
note_on channel=0 note=32 velocity=0 time=360
note_on channel=0 note=63 velocity=67 time=0
note_on channel=0 note=75 velocity=79 time=0
note_on channel=0 note=37 velocity=66 time=0
control_change channel=0 control=64 value=127 time=0
note_on channel=0 note=75 velocity=0 time=0
note_on channel=0 note=63 velocity=0 time=0
note_on channel=0 note=61 velocity=62 time=0
note_on channel=0 note=73 velocity=74 time=0
control_change channel=0 control=64 value=0 time=320
note_on channel=0 note=73 velocity=0 time=0
note_on channel=0 note=37 velocity=0 time=0
note_on channel=0 note=44 velocity=0 time=0
note_on channel=0 note=61 velocity=0 time=0
note_on channel=0 note=65 velocity=46 time=0
note_on channel=0 note=77 velocity=55 time=0
note_on channel=0 note=50 velocity=35 time=480
note_on channel=0 note=56 velocity=42 time=0
note_on channel=0 note=77 velocity=0 time=960
note_on channel=0 note=65 velocity=0 time=0
note_on channel=0 note=58 velocity=46 time=0
note_on channel=0 note=70 velocity=55 time=0
note_on channel=0 note=50 velocity=0 time=480
note_on channel=0 note=56 velocity=0 time=0
note_on channel=0 note=49 velocity=33 time=0
note_on channel=0 note=55 velocity=39 time=0
note_on channel=0 note=58 velocity=0 time=960
note_on channel=0 note=70 velocity=0 time=0
note_on channel=0 note=63 velocity=40 time=0
note_on channel=0 note=75 velocity=48 time=0
note_on channel=0 note=49 velocity=0 time=480
note_on channel=0 note=55 velocity=0 time=0
note_on channel=0 note=48 velocity=30 time=0
note_on channel=0 note=54 velocity=36 time=0
note_on channel=0 note=63 velocity=0 time=960
note_on channel=0 note=75 velocity=0 time=0
note_on channel=0 note=56 velocity=41 time=0
note_on channel=0 note=68 velocity=49 time=0
note_on channel=0 note=48 velocity=0 time=480
note_on channel=0 note=54 velocity=0 time=0
note_on channel=0 note=47 velocity=29 time=0
note_on channel=0 note=53 velocity=35 time=0
note_on channel=0 note=56 velocity=0 time=960
note_on channel=0 note=68 velocity=0 time=0
note_on channel=0 note=61 velocity=41 time=0
note_on channel=0 note=73 velocity=49 time=0
note_on channel=0 note=47 velocity=0 time=480
note_on channel=0 note=53 velocity=0 time=0
note_on channel=0 note=46 velocity=42 time=0
note_on channel=0 note=49 velocity=50 time=0
note_on channel=0 note=61 velocity=0 time=960
note_on channel=0 note=73 velocity=0 time=0
note_on channel=0 note=54 velocity=36 time=0
note_on channel=0 note=66 velocity=43 time=0
note_on channel=0 note=46 velocity=0 time=480
note_on channel=0 note=44 velocity=37 time=0
note_on channel=0 note=66 velocity=0 time=0
note_on channel=0 note=54 velocity=0 time=0
note_on channel=0 note=53 velocity=37 time=0
note_on channel=0 note=65 velocity=44 time=0
control_change channel=0 control=64 value=127 time=107
note_on channel=0 note=44 velocity=0 time=373
note_on channel=0 note=37 velocity=36 time=0
note_on channel=0 note=37 velocity=0 time=480
note_on channel=0 note=65 velocity=0 time=0
note_on channel=0 note=53 velocity=0 time=0
note_on channel=0 note=56 velocity=37 time=0
note_on channel=0 note=68 velocity=44 time=0
note_on channel=0 note=41 velocity=36 time=0
note_on channel=0 note=41 velocity=0 time=480
note_on channel=0 note=68 velocity=0 time=0
note_on channel=0 note=56 velocity=0 time=0
note_on channel=0 note=59 velocity=37 time=0
note_on channel=0 note=71 velocity=44 time=0
note_on channel=0 note=44 velocity=41 time=0
control_change channel=0 control=64 value=0 time=21
note_on channel=0 note=44 velocity=0 time=459
note_on channel=0 note=42 velocity=36 time=0
note_on channel=0 note=71 velocity=0 time=480
note_on channel=0 note=59 velocity=0 time=0
note_on channel=0 note=58 velocity=37 time=0
note_on channel=0 note=70 velocity=44 time=0
note_on channel=0 note=70 velocity=0 time=240
note_on channel=0 note=58 velocity=0 time=0
note_on channel=0 note=61 velocity=40 time=0
note_on channel=0 note=73 velocity=48 time=0
control_change channel=0 control=64 value=127 time=160
note_on channel=0 note=49 velocity=0 time=320
note_on channel=0 note=42 velocity=0 time=0
note_on channel=0 note=46 velocity=41 time=0
note_on channel=0 note=49 velocity=49 time=0
note_on channel=0 note=61 velocity=0 time=960
note_on channel=0 note=73 velocity=0 time=0
note_on channel=0 note=54 velocity=40 time=0
note_on channel=0 note=66 velocity=48 time=0
control_change channel=0 control=64 value=0 time=19
control_change channel=0 control=64 value=127 time=301
note_on channel=0 note=46 velocity=0 time=160
note_on channel=0 note=44 velocity=37 time=0
note_on channel=0 note=66 velocity=0 time=960
note_on channel=0 note=54 velocity=0 time=0
note_on channel=0 note=53 velocity=39 time=0
note_on channel=0 note=65 velocity=47 time=0
control_change channel=0 control=64 value=0 time=18
control_change channel=0 control=64 value=127 time=329
note_on channel=0 note=44 velocity=0 time=133
note_on channel=0 note=43 velocity=37 time=0
note_on channel=0 note=65 velocity=0 time=960
note_on channel=0 note=53 velocity=0 time=0
note_on channel=0 note=52 velocity=42 time=0
note_on channel=0 note=64 velocity=50 time=0
control_change channel=0 control=64 value=0 time=12
control_change channel=0 control=64 value=127 time=285
note_on channel=0 note=43 velocity=0 time=183
note_on channel=0 note=44 velocity=37 time=0
note_on channel=0 note=64 velocity=0 time=960
note_on channel=0 note=52 velocity=0 time=0
note_on channel=0 note=53 velocity=54 time=0
note_on channel=0 note=65 velocity=64 time=0
control_change channel=0 control=64 value=0 time=19
control_change channel=0 control=64 value=127 time=256
note_on channel=0 note=49 velocity=0 time=205
note_on channel=0 note=44 velocity=0 time=0
note_on channel=0 note=46 velocity=45 time=0
note_on channel=0 note=49 velocity=38 time=0
note_on channel=0 note=53 velocity=0 time=960
note_on channel=0 note=65 velocity=0 time=0
note_on channel=0 note=54 velocity=74 time=0
note_on channel=0 note=66 velocity=85 time=0
control_change channel=0 control=64 value=0 time=14
control_change channel=0 control=64 value=127 time=306
note_on channel=0 note=46 velocity=0 time=160
note_on channel=0 note=44 velocity=54 time=0
note_on channel=0 note=66 velocity=0 time=960
note_on channel=0 note=54 velocity=0 time=0
note_on channel=0 note=53 velocity=56 time=0
note_on channel=0 note=65 velocity=66 time=0
control_change channel=0 control=64 value=0 time=15
control_change channel=0 control=64 value=127 time=332
note_on channel=0 note=49 velocity=0 time=133
note_on channel=0 note=32 velocity=54 time=0
note_on channel=0 note=65 velocity=0 time=0
note_on channel=0 note=53 velocity=0 time=0
note_on channel=0 note=54 velocity=54 time=0
note_on channel=0 note=66 velocity=64 time=0
note_on channel=0 note=66 velocity=0 time=240
note_on channel=0 note=54 velocity=0 time=0
note_on channel=0 note=44 velocity=0 time=240
note_on channel=0 note=32 velocity=0 time=0
note_on channel=0 note=48 velocity=48 time=0
note_on channel=0 note=60 velocity=57 time=0
note_on channel=0 note=44 velocity=48 time=0
control_change channel=0 control=64 value=0 time=28
note_on channel=0 note=44 velocity=0 time=92
note_on channel=0 note=60 velocity=0 time=0
note_on channel=0 note=48 velocity=0 time=0
note_on channel=0 note=49 velocity=48 time=0
note_on channel=0 note=61 velocity=57 time=0
note_on channel=0 note=37 velocity=48 time=0
note_on channel=0 note=37 velocity=0 time=120
note_on channel=0 note=61 velocity=0 time=0
note_on channel=0 note=49 velocity=0 time=0
note_on channel=0 note=65 velocity=44 time=840
note_on channel=0 note=77 velocity=52 time=0
note_on channel=0 note=50 velocity=33 time=480
note_on channel=0 note=56 velocity=39 time=0
note_on channel=0 note=77 velocity=0 time=960
note_on channel=0 note=65 velocity=0 time=0
note_on channel=0 note=58 velocity=41 time=0
note_on channel=0 note=70 velocity=49 time=0
note_on channel=0 note=50 velocity=0 time=480
note_on channel=0 note=56 velocity=0 time=0
note_on channel=0 note=49 velocity=29 time=0
note_on channel=0 note=55 velocity=35 time=0
note_on channel=0 note=58 velocity=0 time=960
note_on channel=0 note=70 velocity=0 time=0
note_on channel=0 note=63 velocity=41 time=0
note_on channel=0 note=75 velocity=49 time=0
note_on channel=0 note=49 velocity=0 time=480
note_on channel=0 note=55 velocity=0 time=0
note_on channel=0 note=48 velocity=31 time=0
note_on channel=0 note=54 velocity=37 time=0
note_on channel=0 note=63 velocity=0 time=960
note_on channel=0 note=75 velocity=0 time=0
note_on channel=0 note=56 velocity=39 time=0
note_on channel=0 note=68 velocity=47 time=0
note_on channel=0 note=48 velocity=0 time=0
note_on channel=0 note=54 velocity=0 time=0
note_on channel=0 note=47 velocity=28 time=0
note_on channel=0 note=53 velocity=34 time=0
note_on channel=0 note=56 velocity=0 time=960
note_on channel=0 note=68 velocity=0 time=0
note_on channel=0 note=61 velocity=41 time=0
note_on channel=0 note=73 velocity=49 time=0
note_on channel=0 note=47 velocity=0 time=480
note_on channel=0 note=53 velocity=0 time=0
note_on channel=0 note=46 velocity=42 time=0
note_on channel=0 note=49 velocity=50 time=0
note_on channel=0 note=61 velocity=0 time=960
note_on channel=0 note=73 velocity=0 time=0
note_on channel=0 note=54 velocity=35 time=0
note_on channel=0 note=66 velocity=42 time=0
note_on channel=0 note=46 velocity=0 time=480
note_on channel=0 note=44 velocity=36 time=0
note_on channel=0 note=66 velocity=0 time=0
note_on channel=0 note=54 velocity=0 time=0
note_on channel=0 note=53 velocity=36 time=0
note_on channel=0 note=65 velocity=43 time=0
control_change channel=0 control=64 value=127 time=187
note_on channel=0 note=44 velocity=0 time=293
note_on channel=0 note=37 velocity=35 time=0
note_on channel=0 note=37 velocity=0 time=480
note_on channel=0 note=65 velocity=0 time=0
note_on channel=0 note=53 velocity=0 time=0
note_on channel=0 note=56 velocity=36 time=0
note_on channel=0 note=68 velocity=43 time=0
note_on channel=0 note=41 velocity=35 time=0
note_on channel=0 note=41 velocity=0 time=480
note_on channel=0 note=68 velocity=0 time=0
note_on channel=0 note=56 velocity=0 time=0
note_on channel=0 note=59 velocity=42 time=0
note_on channel=0 note=71 velocity=50 time=0
note_on channel=0 note=44 velocity=39 time=0
control_change channel=0 control=64 value=0 time=13
note_on channel=0 note=44 velocity=0 time=467
note_on channel=0 note=42 velocity=41 time=0
note_on channel=0 note=71 velocity=0 time=480
note_on channel=0 note=59 velocity=0 time=0
note_on channel=0 note=58 velocity=36 time=0
note_on channel=0 note=70 velocity=43 time=0
note_on channel=0 note=70 velocity=0 time=240
note_on channel=0 note=58 velocity=0 time=0
note_on channel=0 note=61 velocity=43 time=0
note_on channel=0 note=73 velocity=51 time=0
control_change channel=0 control=64 value=127 time=69
note_on channel=0 note=49 velocity=0 time=411
note_on channel=0 note=42 velocity=0 time=0
note_on channel=0 note=46 velocity=39 time=0
note_on channel=0 note=49 velocity=47 time=0
note_on channel=0 note=61 velocity=0 time=960
note_on channel=0 note=73 velocity=0 time=0
note_on channel=0 note=54 velocity=41 time=0
note_on channel=0 note=66 velocity=49 time=0
control_change channel=0 control=64 value=0 time=17
control_change channel=0 control=64 value=127 time=250
note_on channel=0 note=46 velocity=0 time=213
note_on channel=0 note=44 velocity=39 time=0
note_on channel=0 note=66 velocity=0 time=960
note_on channel=0 note=54 velocity=0 time=0
note_on channel=0 note=53 velocity=39 time=0
note_on channel=0 note=65 velocity=46 time=0
control_change channel=0 control=64 value=0 time=17
control_change channel=0 control=64 value=127 time=277
note_on channel=0 note=44 velocity=0 time=186
note_on channel=0 note=43 velocity=39 time=0
note_on channel=0 note=65 velocity=0 time=960
note_on channel=0 note=53 velocity=0 time=0
note_on channel=0 note=52 velocity=39 time=0
note_on channel=0 note=64 velocity=47 time=0
control_change channel=0 control=64 value=0 time=16
control_change channel=0 control=64 value=127 time=281
note_on channel=0 note=43 velocity=0 time=183
note_on channel=0 note=44 velocity=39 time=0
note_on channel=0 note=64 velocity=0 time=960
note_on channel=0 note=52 velocity=0 time=0
note_on channel=0 note=53 velocity=54 time=0
note_on channel=0 note=65 velocity=64 time=0
control_change channel=0 control=64 value=0 time=18
control_change channel=0 control=64 value=127 time=211
note_on channel=0 note=49 velocity=0 time=251
note_on channel=0 note=44 velocity=0 time=0
note_on channel=0 note=46 velocity=38 time=0
note_on channel=0 note=49 velocity=45 time=0
note_on channel=0 note=53 velocity=0 time=960
note_on channel=0 note=65 velocity=0 time=0
note_on channel=0 note=54 velocity=72 time=0
note_on channel=0 note=66 velocity=85 time=0
control_change channel=0 control=64 value=0 time=19
note_on channel=0 note=46 velocity=0 time=461
note_on channel=0 note=44 velocity=54 time=0
control_change channel=0 control=64 value=127 time=0
note_on channel=0 note=66 velocity=0 time=960
note_on channel=0 note=54 velocity=0 time=0
note_on channel=0 note=53 velocity=56 time=0
note_on channel=0 note=65 velocity=66 time=0
control_change channel=0 control=64 value=0 time=14
control_change channel=0 control=64 value=127 time=280
note_on channel=0 note=49 velocity=0 time=186
note_on channel=0 note=32 velocity=54 time=0
note_on channel=0 note=65 velocity=0 time=0
note_on channel=0 note=53 velocity=0 time=0
note_on channel=0 note=54 velocity=54 time=0
note_on channel=0 note=66 velocity=64 time=0
note_on channel=0 note=66 velocity=0 time=240
note_on channel=0 note=54 velocity=0 time=0
note_on channel=0 note=44 velocity=0 time=240
note_on channel=0 note=32 velocity=0 time=0
note_on channel=0 note=48 velocity=49 time=0
note_on channel=0 note=60 velocity=58 time=0
note_on channel=0 note=44 velocity=52 time=0
control_change channel=0 control=64 value=0 time=28
note_on channel=0 note=44 velocity=0 time=92
note_on channel=0 note=60 velocity=0 time=0
note_on channel=0 note=48 velocity=0 time=0
note_on channel=0 note=49 velocity=49 time=360
note_on channel=0 note=61 velocity=58 time=0
note_on channel=0 note=37 velocity=52 time=0
control_change channel=0 control=64 value=0 time=0
note_on channel=0 note=37 velocity=0 time=120
note_on channel=0 note=61 velocity=0 time=0
note_on channel=0 note=49 velocity=0 time=0
note_on channel=0 note=68 velocity=64 time=0
note_on channel=0 note=73 velocity=64 time=0
note_on channel=0 note=65 velocity=54 time=0
note_on channel=0 note=65 velocity=0 time=480
note_on channel=0 note=73 velocity=0 time=0
note_on channel=0 note=68 velocity=0 time=0
note_on channel=0 note=72 velocity=64 time=1
note_on channel=0 note=68 velocity=64 time=0
note_on channel=0 note=63 velocity=54 time=0
note_on channel=0 note=67 velocity=59 time=0
note_on channel=0 note=70 velocity=59 time=0
note_on channel=0 note=61 velocity=50 time=0
note_on channel=0 note=63 velocity=0 time=1
note_on channel=0 note=72 velocity=0 time=0
note_on channel=0 note=68 velocity=0 time=0
note_on channel=0 note=67 velocity=0 time=479
note_on channel=0 note=70 velocity=0 time=0
note_on channel=0 note=61 velocity=0 time=0
note_on channel=0 note=68 velocity=55 time=0
note_on channel=0 note=75 velocity=55 time=0
note_on channel=0 note=60 velocity=46 time=0
note_on channel=0 note=60 velocity=0 time=90
note_on channel=0 note=75 velocity=0 time=0
note_on channel=0 note=68 velocity=0 time=0
note_on channel=0 note=65 velocity=55 time=0
note_on channel=0 note=73 velocity=55 time=0
note_on channel=0 note=49 velocity=45 time=0
note_on channel=0 note=58 velocity=45 time=0
note_on channel=0 note=58 velocity=0 time=90
note_on channel=0 note=65 velocity=0 time=0
note_on channel=0 note=73 velocity=0 time=0
note_on channel=0 note=49 velocity=0 time=0
note_on channel=0 note=68 velocity=55 time=0
note_on channel=0 note=72 velocity=55 time=0
note_on channel=0 note=63 velocity=47 time=0
note_on channel=0 note=51 velocity=47 time=0
note_on channel=0 note=51 velocity=0 time=90
note_on channel=0 note=68 velocity=0 time=0
note_on channel=0 note=72 velocity=0 time=0
note_on channel=0 note=63 velocity=0 time=0
note_on channel=0 note=67 velocity=50 time=0
note_on channel=0 note=70 velocity=50 time=0
note_on channel=0 note=51 velocity=40 time=0
note_on channel=0 note=61 velocity=40 time=0
note_on channel=0 note=61 velocity=0 time=90
note_on channel=0 note=67 velocity=0 time=0
note_on channel=0 note=70 velocity=0 time=0
note_on channel=0 note=51 velocity=0 time=0
note_on channel=0 note=68 velocity=48 time=390
note_on channel=0 note=56 velocity=42 time=0
note_on channel=0 note=60 velocity=42 time=0
note_on channel=0 note=60 velocity=0 time=90
note_on channel=0 note=56 velocity=0 time=0
note_on channel=0 note=68 velocity=0 time=0
note_on channel=0 note=73 velocity=64 time=480
note_on channel=0 note=78 velocity=64 time=0
note_on channel=0 note=70 velocity=49 time=0
note_on channel=0 note=70 velocity=0 time=480
note_on channel=0 note=78 velocity=0 time=0
note_on channel=0 note=73 velocity=0 time=0
note_on channel=0 note=73 velocity=64 time=0
note_on channel=0 note=77 velocity=64 time=0
note_on channel=0 note=68 velocity=54 time=0
note_on channel=0 note=68 velocity=0 time=0
note_on channel=0 note=77 velocity=0 time=0
note_on channel=0 note=73 velocity=0 time=0
note_on channel=0 note=72 velocity=60 time=0
note_on channel=0 note=75 velocity=60 time=0
note_on channel=0 note=66 velocity=46 time=0
note_on channel=0 note=66 velocity=0 time=480
note_on channel=0 note=75 velocity=0 time=0
note_on channel=0 note=72 velocity=0 time=0
note_on channel=0 note=73 velocity=56 time=0
note_on channel=0 note=80 velocity=56 time=0
note_on channel=0 note=65 velocity=48 time=0
note_on channel=0 note=65 velocity=0 time=90
note_on channel=0 note=80 velocity=0 time=0
note_on channel=0 note=73 velocity=0 time=0
note_on channel=0 note=70 velocity=55 time=0
note_on channel=0 note=78 velocity=55 time=0
note_on channel=0 note=54 velocity=45 time=0
note_on channel=0 note=63 velocity=45 time=0
note_on channel=0 note=63 velocity=0 time=90
note_on channel=0 note=70 velocity=0 time=0
note_on channel=0 note=78 velocity=0 time=0
note_on channel=0 note=54 velocity=0 time=0
note_on channel=0 note=73 velocity=56 time=0
note_on channel=0 note=77 velocity=56 time=0
note_on channel=0 note=56 velocity=47 time=0
note_on channel=0 note=68 velocity=47 time=0
note_on channel=0 note=68 velocity=0 time=90
note_on channel=0 note=73 velocity=0 time=0
note_on channel=0 note=77 velocity=0 time=0
note_on channel=0 note=56 velocity=0 time=0
note_on channel=0 note=72 velocity=54 time=0
note_on channel=0 note=75 velocity=54 time=0
note_on channel=0 note=56 velocity=40 time=0
note_on channel=0 note=66 velocity=40 time=0
note_on channel=0 note=66 velocity=0 time=90
note_on channel=0 note=72 velocity=0 time=0
note_on channel=0 note=75 velocity=0 time=0
note_on channel=0 note=56 velocity=0 time=0
note_on channel=0 note=73 velocity=51 time=390
note_on channel=0 note=61 velocity=42 time=0
note_on channel=0 note=65 velocity=42 time=0
note_on channel=0 note=65 velocity=0 time=90
note_on channel=0 note=61 velocity=0 time=0
note_on channel=0 note=73 velocity=0 time=0
note_on channel=0 note=61 velocity=64 time=0
note_on channel=0 note=73 velocity=64 time=0
note_on channel=0 note=53 velocity=49 time=0
note_on channel=0 note=56 velocity=49 time=0
note_on channel=0 note=56 velocity=0 time=0
note_on channel=0 note=53 velocity=0 time=0
note_on channel=0 note=51 velocity=54 time=0
note_on channel=0 note=56 velocity=54 time=0
note_on channel=0 note=73 velocity=0 time=480
note_on channel=0 note=61 velocity=0 time=0
note_on channel=0 note=60 velocity=64 time=0
note_on channel=0 note=72 velocity=64 time=0
note_on channel=0 note=72 velocity=0 time=0
note_on channel=0 note=56 velocity=0 time=0
note_on channel=0 note=51 velocity=0 time=0
note_on channel=0 note=60 velocity=0 time=0
note_on channel=0 note=58 velocity=64 time=0
note_on channel=0 note=70 velocity=64 time=0
note_on channel=0 note=55 velocity=49 time=0
note_on channel=0 note=49 velocity=49 time=0
note_on channel=0 note=49 velocity=0 time=0
note_on channel=0 note=55 velocity=0 time=0
note_on channel=0 note=58 velocity=0 time=0
note_on channel=0 note=63 velocity=64 time=0
note_on channel=0 note=48 velocity=54 time=0
note_on channel=0 note=60 velocity=54 time=0
note_on channel=0 note=60 velocity=0 time=480
note_on channel=0 note=70 velocity=0 time=0
note_on channel=0 note=63 velocity=0 time=0
note_on channel=0 note=48 velocity=0 time=0
note_on channel=0 note=75 velocity=64 time=0
note_on channel=0 note=75 velocity=0 time=120
note_on channel=0 note=73 velocity=59 time=0
note_on channel=0 note=65 velocity=59 time=0
note_on channel=0 note=49 velocity=46 time=0
note_on channel=0 note=58 velocity=46 time=0
note_on channel=0 note=58 velocity=0 time=240
note_on channel=0 note=49 velocity=0 time=0
note_on channel=0 note=65 velocity=0 time=0
note_on channel=0 note=68 velocity=59 time=0
note_on channel=0 note=51 velocity=49 time=0
note_on channel=0 note=63 velocity=49 time=0
note_on channel=0 note=63 velocity=0 time=240
note_on channel=0 note=51 velocity=0 time=0
note_on channel=0 note=68 velocity=0 time=240
note_on channel=0 note=73 velocity=0 time=0
note_on channel=0 note=72 velocity=59 time=0
note_on channel=0 note=72 velocity=0 time=0
note_on channel=0 note=67 velocity=59 time=0
note_on channel=0 note=70 velocity=59 time=0
note_on channel=0 note=51 velocity=45 time=0
note_on channel=0 note=61 velocity=45 time=0
note_on channel=0 note=61 velocity=0 time=240
note_on channel=0 note=51 velocity=0 time=0
note_on channel=0 note=67 velocity=0 time=240
note_on channel=0 note=56 velocity=46 time=0
note_on channel=0 note=60 velocity=46 time=0
note_on channel=0 note=60 velocity=0 time=240
note_on channel=0 note=56 velocity=0 time=0
note_on channel=0 note=70 velocity=0 time=240
note_on channel=0 note=68 velocity=64 time=0
note_on channel=0 note=68 velocity=0 time=240
note_on channel=0 note=66 velocity=64 time=0
note_on channel=0 note=78 velocity=64 time=0
note_on channel=0 note=58 velocity=49 time=0
note_on channel=0 note=61 velocity=49 time=0
note_on channel=0 note=61 velocity=0 time=480
note_on channel=0 note=58 velocity=0 time=0
note_on channel=0 note=56 velocity=54 time=0
note_on channel=0 note=61 velocity=54 time=0
note_on channel=0 note=78 velocity=0 time=480
note_on channel=0 note=66 velocity=0 time=0
note_on channel=0 note=65 velocity=64 time=0
note_on channel=0 note=77 velocity=64 time=0
note_on channel=0 note=77 velocity=0 time=0
note_on channel=0 note=61 velocity=0 time=0
note_on channel=0 note=56 velocity=0 time=0
note_on channel=0 note=65 velocity=0 time=0
note_on channel=0 note=63 velocity=64 time=0
note_on channel=0 note=75 velocity=64 time=0
note_on channel=0 note=54 velocity=54 time=0
note_on channel=0 note=60 velocity=54 time=0
note_on channel=0 note=60 velocity=0 time=0
note_on channel=0 note=54 velocity=0 time=0
note_on channel=0 note=63 velocity=0 time=0
note_on channel=0 note=68 velocity=69 time=0
note_on channel=0 note=53 velocity=57 time=0
note_on channel=0 note=65 velocity=57 time=0
note_on channel=0 note=65 velocity=0 time=480
note_on channel=0 note=75 velocity=0 time=0
note_on channel=0 note=68 velocity=0 time=0
note_on channel=0 note=53 velocity=0 time=0
note_on channel=0 note=80 velocity=69 time=0
note_on channel=0 note=80 velocity=0 time=120
note_on channel=0 note=70 velocity=64 time=0
note_on channel=0 note=78 velocity=64 time=0
note_on channel=0 note=54 velocity=50 time=0
note_on channel=0 note=63 velocity=50 time=0
note_on channel=0 note=63 velocity=0 time=240
note_on channel=0 note=54 velocity=0 time=0
note_on channel=0 note=70 velocity=0 time=240
note_on channel=0 note=73 velocity=64 time=0
note_on channel=0 note=56 velocity=54 time=0
note_on channel=0 note=68 velocity=54 time=0
note_on channel=0 note=68 velocity=0 time=240
note_on channel=0 note=56 velocity=0 time=0
note_on channel=0 note=73 velocity=0 time=240
note_on channel=0 note=78 velocity=0 time=0
note_on channel=0 note=77 velocity=59 time=0
note_on channel=0 note=77 velocity=0 time=240
note_on channel=0 note=75 velocity=59 time=240
note_on channel=0 note=72 velocity=59 time=0
note_on channel=0 note=56 velocity=45 time=0
note_on channel=0 note=66 velocity=45 time=0
note_on channel=0 note=66 velocity=0 time=240
note_on channel=0 note=56 velocity=0 time=0
note_on channel=0 note=72 velocity=0 time=240
note_on channel=0 note=61 velocity=48 time=0
note_on channel=0 note=65 velocity=48 time=0
note_on channel=0 note=65 velocity=0 time=240
note_on channel=0 note=61 velocity=0 time=0
note_on channel=0 note=75 velocity=0 time=0
note_on channel=0 note=73 velocity=56 time=0
note_on channel=0 note=73 velocity=0 time=240
note_on channel=0 note=73 velocity=64 time=0
note_on channel=0 note=65 velocity=64 time=0
note_on channel=0 note=61 velocity=54 time=0
control_change channel=0 control=64 value=127 time=113
note_on channel=0 note=61 velocity=0 time=367
note_on channel=0 note=65 velocity=0 time=0
note_on channel=0 note=73 velocity=0 time=0
note_on channel=0 note=73 velocity=64 time=0
note_on channel=0 note=65 velocity=64 time=0
note_on channel=0 note=58 velocity=54 time=0
note_on channel=0 note=58 velocity=0 time=960
note_on channel=0 note=65 velocity=0 time=0
note_on channel=0 note=73 velocity=0 time=0
note_on channel=0 note=65 velocity=64 time=0
note_on channel=0 note=73 velocity=64 time=0
note_on channel=0 note=56 velocity=54 time=0
note_on channel=0 note=56 velocity=0 time=480
note_on channel=0 note=73 velocity=0 time=0
note_on channel=0 note=65 velocity=0 time=0
note_on channel=0 note=63 velocity=64 time=0
note_on channel=0 note=73 velocity=64 time=0
note_on channel=0 note=55 velocity=54 time=0
control_change channel=0 control=64 value=0 time=8
note_on channel=0 note=55 velocity=0 time=472
note_on channel=0 note=73 velocity=0 time=0
note_on channel=0 note=72 velocity=64 time=0
note_on channel=0 note=56 velocity=54 time=0
note_on channel=0 note=56 velocity=0 time=240
note_on channel=0 note=72 velocity=0 time=0
note_on channel=0 note=63 velocity=0 time=0
note_on channel=0 note=63 velocity=57 time=0
note_on channel=0 note=71 velocity=57 time=0
note_on channel=0 note=56 velocity=50 time=0
control_change channel=0 control=64 value=127 time=160
note_on channel=0 note=56 velocity=0 time=320
note_on channel=0 note=71 velocity=0 time=0
note_on channel=0 note=63 velocity=0 time=0
note_on channel=0 note=63 velocity=58 time=0
note_on channel=0 note=71 velocity=58 time=0
note_on channel=0 note=56 velocity=50 time=0
note_on channel=0 note=56 velocity=0 time=960
note_on channel=0 note=71 velocity=0 time=0
note_on channel=0 note=63 velocity=0 time=0
note_on channel=0 note=63 velocity=58 time=0
note_on channel=0 note=71 velocity=58 time=0
note_on channel=0 note=54 velocity=48 time=0
note_on channel=0 note=54 velocity=0 time=480
note_on channel=0 note=71 velocity=0 time=0
note_on channel=0 note=63 velocity=0 time=0
note_on channel=0 note=63 velocity=58 time=0
note_on channel=0 note=71 velocity=58 time=0
note_on channel=0 note=53 velocity=48 time=0
control_change channel=0 control=64 value=0 time=18
note_on channel=0 note=53 velocity=0 time=462
note_on channel=0 note=71 velocity=0 time=0
note_on channel=0 note=70 velocity=58 time=0
note_on channel=0 note=54 velocity=48 time=0
note_on channel=0 note=54 velocity=0 time=240
note_on channel=0 note=70 velocity=0 time=0
note_on channel=0 note=63 velocity=0 time=240
note_on channel=0 note=61 velocity=64 time=0
note_on channel=0 note=70 velocity=64 time=0
note_on channel=0 note=54 velocity=54 time=0
control_change channel=0 control=64 value=127 time=8
note_on channel=0 note=54 velocity=0 time=160
note_on channel=0 note=70 velocity=0 time=0
note_on channel=0 note=61 velocity=0 time=0
note_on channel=0 note=66 velocity=73 time=0
note_on channel=0 note=72 velocity=73 time=0
note_on channel=0 note=51 velocity=54 time=0
note_on channel=0 note=56 velocity=54 time=0
control_change channel=0 control=64 value=0 time=0
control_change channel=0 control=64 value=127 time=35
note_on channel=0 note=56 velocity=0 time=16
note_on channel=0 note=66 velocity=0 time=0
note_on channel=0 note=72 velocity=0 time=0
note_on channel=0 note=51 velocity=0 time=0
note_on channel=0 note=65 velocity=77 time=0
note_on channel=0 note=73 velocity=77 time=0
note_on channel=0 note=49 velocity=54 time=0
note_on channel=0 note=56 velocity=54 time=0
control_change channel=0 control=64 value=0 time=4
control_change channel=0 control=64 value=127 time=14
note_on channel=0 note=56 velocity=0 time=104
note_on channel=0 note=65 velocity=0 time=0
note_on channel=0 note=73 velocity=0 time=0
note_on channel=0 note=49 velocity=0 time=0
note_on channel=0 note=66 velocity=88 time=0
note_on channel=0 note=75 velocity=88 time=0
note_on channel=0 note=48 velocity=54 time=0
note_on channel=0 note=56 velocity=54 time=0
control_change channel=0 control=64 value=0 time=7
control_change channel=0 control=64 value=127 time=233
note_on channel=0 note=75 velocity=0 time=720
note_on channel=0 note=66 velocity=0 time=0
note_on channel=0 note=63 velocity=75 time=0
note_on channel=0 note=66 velocity=75 time=0
control_change channel=0 control=64 value=0 time=17
control_change channel=0 control=64 value=127 time=277
note_on channel=0 note=48 velocity=0 time=8
note_on channel=0 note=56 velocity=0 time=0
note_on channel=0 note=49 velocity=54 time=0
note_on channel=0 note=56 velocity=54 time=0
note_on channel=0 note=63 velocity=0 time=480
note_on channel=0 note=66 velocity=0 time=0
note_on channel=0 note=61 velocity=64 time=0
note_on channel=0 note=65 velocity=64 time=0
control_change channel=0 control=64 value=0 time=18
control_change channel=0 control=64 value=127 time=123
note_on channel=0 note=65 velocity=0 time=0
note_on channel=0 note=56 velocity=0 time=0
note_on channel=0 note=49 velocity=0 time=0
note_on channel=0 note=61 velocity=0 time=0
note_on channel=0 note=70 velocity=64 time=0
note_on channel=0 note=58 velocity=64 time=0
note_on channel=0 note=54 velocity=54 time=0
note_on channel=0 note=42 velocity=54 time=0
control_change channel=0 control=64 value=0 time=19
control_change channel=0 control=64 value=127 time=122
note_on channel=0 note=54 velocity=0 time=99
note_on channel=0 note=70 velocity=0 time=0
note_on channel=0 note=66 velocity=64 time=0
note_on channel=0 note=51 velocity=54 time=0
note_on channel=0 note=51 velocity=0 time=240
note_on channel=0 note=42 velocity=0 time=0
note_on channel=0 note=58 velocity=0 time=0
note_on channel=0 note=66 velocity=0 time=0
note_on channel=0 note=61 velocity=70 time=0
note_on channel=0 note=65 velocity=70 time=0
note_on channel=0 note=42 velocity=54 time=0
note_on channel=0 note=56 velocity=54 time=0
control_change channel=0 control=64 value=0 time=0
control_change channel=0 control=64 value=127 time=294
note_on channel=0 note=65 velocity=0 time=0
note_on channel=0 note=61 velocity=0 time=0
note_on channel=0 note=60 velocity=64 time=0
note_on channel=0 note=63 velocity=64 time=0
control_change channel=0 control=64 value=0 time=15
note_on channel=0 note=63 velocity=0 time=465
note_on channel=0 note=56 velocity=0 time=0
note_on channel=0 note=42 velocity=0 time=0
note_on channel=0 note=60 velocity=0 time=0
note_on channel=0 note=61 velocity=64 time=0
note_on channel=0 note=73 velocity=64 time=0
note_on channel=0 note=53 velocity=49 time=0
note_on channel=0 note=56 velocity=49 time=0
note_on channel=0 note=56 velocity=0 time=472
note_on channel=0 note=61 velocity=0 time=0
note_on channel=0 note=73 velocity=0 time=0
note_on channel=0 note=53 velocity=0 time=0
note_on channel=0 note=60 velocity=65 time=0
note_on channel=0 note=72 velocity=65 time=0
note_on channel=0 note=51 velocity=54 time=0
note_on channel=0 note=56 velocity=54 time=0
note_on channel=0 note=56 velocity=0 time=0
note_on channel=0 note=60 velocity=0 time=0
note_on channel=0 note=72 velocity=0 time=0
note_on channel=0 note=51 velocity=0 time=0
note_on channel=0 note=70 velocity=68 time=0
note_on channel=0 note=58 velocity=68 time=0
note_on channel=0 note=49 velocity=47 time=0
note_on channel=0 note=55 velocity=47 time=0
note_on channel=0 note=55 velocity=0 time=480
note_on channel=0 note=70 velocity=0 time=0
note_on channel=0 note=58 velocity=0 time=0
note_on channel=0 note=49 velocity=0 time=0
note_on channel=0 note=63 velocity=65 time=0
note_on channel=0 note=75 velocity=65 time=0
note_on channel=0 note=48 velocity=54 time=0
note_on channel=0 note=60 velocity=54 time=0
note_on channel=0 note=60 velocity=0 time=90
note_on channel=0 note=63 velocity=0 time=0
note_on channel=0 note=75 velocity=0 time=0
note_on channel=0 note=48 velocity=0 time=0
note_on channel=0 note=65 velocity=64 time=0
note_on channel=0 note=73 velocity=64 time=0
note_on channel=0 note=49 velocity=49 time=0
note_on channel=0 note=58 velocity=49 time=0
note_on channel=0 note=58 velocity=0 time=240
note_on channel=0 note=49 velocity=0 time=0
note_on channel=0 note=65 velocity=0 time=0
note_on channel=0 note=68 velocity=64 time=0
note_on channel=0 note=51 velocity=54 time=0
note_on channel=0 note=63 velocity=54 time=0
note_on channel=0 note=63 velocity=0 time=240
note_on channel=0 note=51 velocity=0 time=0
note_on channel=0 note=68 velocity=0 time=240
note_on channel=0 note=73 velocity=0 time=0
note_on channel=0 note=72 velocity=64 time=0
note_on channel=0 note=72 velocity=0 time=0
note_on channel=0 note=67 velocity=59 time=0
note_on channel=0 note=70 velocity=59 time=0
note_on channel=0 note=51 velocity=45 time=0
note_on channel=0 note=61 velocity=45 time=0
note_on channel=0 note=61 velocity=0 time=240
note_on channel=0 note=51 velocity=0 time=0
note_on channel=0 note=67 velocity=0 time=0
note_on channel=0 note=56 velocity=51 time=0
note_on channel=0 note=60 velocity=51 time=0
note_on channel=0 note=60 velocity=0 time=240
note_on channel=0 note=56 velocity=0 time=0
note_on channel=0 note=70 velocity=0 time=240
note_on channel=0 note=68 velocity=58 time=0
note_on channel=0 note=68 velocity=0 time=240
note_on channel=0 note=66 velocity=64 time=0
note_on channel=0 note=78 velocity=64 time=0
note_on channel=0 note=58 velocity=49 time=0
note_on channel=0 note=61 velocity=49 time=0
note_on channel=0 note=61 velocity=0 time=480
note_on channel=0 note=66 velocity=0 time=0
note_on channel=0 note=78 velocity=0 time=0
note_on channel=0 note=58 velocity=0 time=0
note_on channel=0 note=65 velocity=65 time=0
note_on channel=0 note=77 velocity=65 time=0
note_on channel=0 note=56 velocity=54 time=0
note_on channel=0 note=61 velocity=54 time=0
note_on channel=0 note=61 velocity=0 time=0
note_on channel=0 note=65 velocity=0 time=0
note_on channel=0 note=77 velocity=0 time=0
note_on channel=0 note=56 velocity=0 time=0
note_on channel=0 note=63 velocity=68 time=0
note_on channel=0 note=75 velocity=68 time=0
note_on channel=0 note=54 velocity=49 time=0
note_on channel=0 note=60 velocity=49 time=0
note_on channel=0 note=60 velocity=0 time=480
note_on channel=0 note=63 velocity=0 time=0
note_on channel=0 note=75 velocity=0 time=0
note_on channel=0 note=54 velocity=0 time=0
note_on channel=0 note=68 velocity=65 time=0
note_on channel=0 note=80 velocity=65 time=0
note_on channel=0 note=53 velocity=55 time=0
note_on channel=0 note=61 velocity=55 time=0
note_on channel=0 note=61 velocity=0 time=90
note_on channel=0 note=68 velocity=0 time=0
note_on channel=0 note=80 velocity=0 time=0
note_on channel=0 note=53 velocity=0 time=0
note_on channel=0 note=66 velocity=64 time=0
note_on channel=0 note=78 velocity=64 time=0
note_on channel=0 note=58 velocity=48 time=0
note_on channel=0 note=61 velocity=48 time=0
note_on channel=0 note=61 velocity=0 time=0
note_on channel=0 note=58 velocity=0 time=0
note_on channel=0 note=56 velocity=54 time=0
note_on channel=0 note=61 velocity=54 time=0
note_on channel=0 note=78 velocity=0 time=480
note_on channel=0 note=66 velocity=0 time=0
note_on channel=0 note=65 velocity=64 time=0
note_on channel=0 note=77 velocity=64 time=0
note_on channel=0 note=77 velocity=0 time=0
note_on channel=0 note=61 velocity=0 time=0
note_on channel=0 note=56 velocity=0 time=0
note_on channel=0 note=65 velocity=0 time=0
note_on channel=0 note=63 velocity=64 time=0
note_on channel=0 note=75 velocity=64 time=0
note_on channel=0 note=54 velocity=48 time=0
note_on channel=0 note=60 velocity=48 time=0
note_on channel=0 note=75 velocity=0 time=240
note_on channel=0 note=63 velocity=0 time=0
note_on channel=0 note=54 velocity=0 time=240
note_on channel=0 note=60 velocity=0 time=0
note_on channel=0 note=68 velocity=64 time=0
note_on channel=0 note=80 velocity=64 time=0
note_on channel=0 note=53 velocity=54 time=0
note_on channel=0 note=61 velocity=54 time=0
note_on channel=0 note=61 velocity=0 time=90
note_on channel=0 note=68 velocity=0 time=0
note_on channel=0 note=80 velocity=0 time=0
note_on channel=0 note=53 velocity=0 time=0
note_on channel=0 note=66 velocity=73 time=870
note_on channel=0 note=78 velocity=73 time=0
note_on channel=0 note=58 velocity=49 time=0
note_on channel=0 note=61 velocity=49 time=0
note_on channel=0 note=61 velocity=0 time=8
note_on channel=0 note=58 velocity=0 time=0
note_on channel=0 note=56 velocity=54 time=0
note_on channel=0 note=61 velocity=54 time=0
note_on channel=0 note=78 velocity=0 time=8
note_on channel=0 note=66 velocity=0 time=0
note_on channel=0 note=65 velocity=85 time=0
note_on channel=0 note=77 velocity=85 time=0
note_on channel=0 note=77 velocity=0 time=24
note_on channel=0 note=61 velocity=0 time=0
note_on channel=0 note=56 velocity=0 time=0
note_on channel=0 note=65 velocity=0 time=0
note_on channel=0 note=70 velocity=103 time=0
note_on channel=0 note=82 velocity=103 time=0
note_on channel=0 note=55 velocity=62 time=0
note_on channel=0 note=64 velocity=62 time=0
note_on channel=0 note=61 velocity=62 time=0
note_on channel=0 note=61 velocity=0 time=56
note_on channel=0 note=55 velocity=0 time=0
note_on channel=0 note=64 velocity=0 time=0
note_on channel=0 note=56 velocity=65 time=0
note_on channel=0 note=61 velocity=65 time=0
note_on channel=0 note=65 velocity=65 time=0
note_on channel=0 note=65 velocity=0 time=440
note_on channel=0 note=56 velocity=0 time=0
note_on channel=0 note=70 velocity=0 time=0
note_on channel=0 note=82 velocity=0 time=0
note_on channel=0 note=61 velocity=0 time=0
note_on channel=0 note=68 velocity=77 time=0
note_on channel=0 note=80 velocity=77 time=0
note_on channel=0 note=80 velocity=0 time=480
note_on channel=0 note=68 velocity=0 time=0
note_on channel=0 note=54 velocity=64 time=480
note_on channel=0 note=60 velocity=64 time=0
note_on channel=0 note=32 velocity=54 time=0
note_on channel=0 note=44 velocity=54 time=0
control_change channel=0 control=64 value=127 time=156
note_on channel=0 note=60 velocity=0 time=0
note_on channel=0 note=63 velocity=60 time=0
note_on channel=0 note=63 velocity=0 time=240
note_on channel=0 note=61 velocity=60 time=0
note_on channel=0 note=61 velocity=0 time=0
note_on channel=0 note=54 velocity=0 time=0
note_on channel=0 note=32 velocity=0 time=0
note_on channel=0 note=44 velocity=0 time=0
note_on channel=0 note=53 velocity=54 time=0
note_on channel=0 note=61 velocity=57 time=0
note_on channel=0 note=37 velocity=54 time=0
note_on channel=0 note=44 velocity=54 time=0
control_change channel=0 control=64 value=0 time=0
note_on channel=0 note=44 velocity=0 time=0
note_on channel=0 note=53 velocity=0 time=0
note_on channel=0 note=61 velocity=0 time=0
note_on channel=0 note=37 velocity=0 time=0
