note_on channel=0 note=56 velocity=33 time=0
note_on channel=0 note=37 velocity=35 time=0
note_on channel=0 note=49 velocity=35 time=0
note_on channel=0 note=56 velocity=0 time=47
note_on channel=0 note=61 velocity=26 time=0
note_on channel=0 note=61 velocity=0 time=160
note_on channel=0 note=64 velocity=26 time=0
note_on channel=0 note=64 velocity=0 time=0
note_on channel=0 note=56 velocity=33 time=0
note_on channel=0 note=56 velocity=0 time=40
note_on channel=0 note=61 velocity=26 time=0
note_on channel=0 note=61 velocity=0 time=80
note_on channel=0 note=64 velocity=26 time=0
note_on channel=0 note=64 velocity=0 time=0
note_on channel=0 note=56 velocity=32 time=0
note_on channel=0 note=56 velocity=0 time=160
note_on channel=0 note=61 velocity=26 time=0
note_on channel=0 note=61 velocity=0 time=160
note_on channel=0 note=64 velocity=26 time=0
note_on channel=0 note=64 velocity=0 time=160
note_on channel=0 note=56 velocity=35 time=0
note_on channel=0 note=56 velocity=0 time=160
note_on channel=0 note=61 velocity=26 time=0
note_on channel=0 note=61 velocity=0 time=0
note_on channel=0 note=64 velocity=26 time=0
note_on channel=0 note=64 velocity=0 time=0
note_on channel=0 note=49 velocity=0 time=0
note_on channel=0 note=37 velocity=0 time=0
note_on channel=0 note=56 velocity=33 time=0
note_on channel=0 note=35 velocity=35 time=0
note_on channel=0 note=47 velocity=35 time=0
note_on channel=0 note=56 velocity=0 time=33
note_on channel=0 note=61 velocity=26 time=0
note_on channel=0 note=61 velocity=0 time=160
note_on channel=0 note=64 velocity=23 time=0
note_on channel=0 note=64 velocity=0 time=0
note_on channel=0 note=56 velocity=30 time=0
note_on channel=0 note=56 velocity=0 time=160
note_on channel=0 note=61 velocity=26 time=0
note_on channel=0 note=61 velocity=0 time=80
note_on channel=0 note=64 velocity=23 time=0
note_on channel=0 note=64 velocity=0 time=0
note_on channel=0 note=56 velocity=33 time=0
note_on channel=0 note=56 velocity=0 time=0
note_on channel=0 note=61 velocity=26 time=0
note_on channel=0 note=61 velocity=0 time=160
note_on channel=0 note=64 velocity=23 time=0
note_on channel=0 note=64 velocity=0 time=0
note_on channel=0 note=56 velocity=32 time=0
note_on channel=0 note=56 velocity=0 time=0
note_on channel=0 note=61 velocity=26 time=0
note_on channel=0 note=61 velocity=0 time=0
note_on channel=0 note=64 velocity=23 time=0
note_on channel=0 note=64 velocity=0 time=0
note_on channel=0 note=47 velocity=0 time=0
note_on channel=0 note=35 velocity=0 time=0
note_on channel=0 note=57 velocity=45 time=0
note_on channel=0 note=45 velocity=41 time=0
note_on channel=0 note=33 velocity=41 time=0
note_on channel=0 note=57 velocity=0 time=20
note_on channel=0 note=61 velocity=38 time=0
note_on channel=0 note=61 velocity=0 time=60
note_on channel=0 note=64 velocity=38 time=0
note_on channel=0 note=64 velocity=0 time=0
note_on channel=0 note=57 velocity=35 time=0
note_on channel=0 note=57 velocity=0 time=160
note_on channel=0 note=61 velocity=32 time=0
note_on channel=0 note=61 velocity=0 time=0
note_on channel=0 note=64 velocity=32 time=0
note_on channel=0 note=64 velocity=0 time=0
note_on channel=0 note=33 velocity=0 time=0
note_on channel=0 note=45 velocity=0 time=0
note_on channel=0 note=57 velocity=41 time=0
note_on channel=0 note=30 velocity=38 time=0
note_on channel=0 note=42 velocity=38 time=0
note_on channel=0 note=57 velocity=0 time=0
note_on channel=0 note=62 velocity=33 time=0
note_on channel=0 note=62 velocity=0 time=0
note_on channel=0 note=66 velocity=28 time=0
note_on channel=0 note=66 velocity=0 time=0
note_on channel=0 note=57 velocity=38 time=0
note_on channel=0 note=57 velocity=0 time=160
note_on channel=0 note=62 velocity=33 time=0
note_on channel=0 note=62 velocity=0 time=0
note_on channel=0 note=66 velocity=30 time=0
note_on channel=0 note=66 velocity=0 time=0
note_on channel=0 note=42 velocity=0 time=0
note_on channel=0 note=30 velocity=0 time=0
note_on channel=0 note=56 velocity=38 time=0
note_on channel=0 note=32 velocity=41 time=0
note_on channel=0 note=44 velocity=41 time=0
note_on channel=0 note=56 velocity=0 time=63
note_on channel=0 note=60 velocity=31 time=0
note_on channel=0 note=60 velocity=0 time=160
note_on channel=0 note=66 velocity=31 time=0
note_on channel=0 note=66 velocity=0 time=160
note_on channel=0 note=56 velocity=35 time=0
note_on channel=0 note=56 velocity=0 time=68
note_on channel=0 note=61 velocity=30 time=0
note_on channel=0 note=61 velocity=0 time=160
note_on channel=0 note=64 velocity=30 time=0
note_on channel=0 note=64 velocity=0 time=0
note_on channel=0 note=44 velocity=0 time=0
note_on channel=0 note=32 velocity=0 time=0
note_on channel=0 note=56 velocity=35 time=0
note_on channel=0 note=44 velocity=35 time=0
note_on channel=0 note=32 velocity=35 time=0
note_on channel=0 note=56 velocity=0 time=57
note_on channel=0 note=61 velocity=27 time=0
note_on channel=0 note=61 velocity=0 time=160
note_on channel=0 note=63 velocity=25 time=0
note_on channel=0 note=63 velocity=0 time=0
note_on channel=0 note=54 velocity=35 time=0
note_on channel=0 note=54 velocity=0 time=68
note_on channel=0 note=60 velocity=30 time=0
note_on channel=0 note=60 velocity=0 time=160
note_on channel=0 note=63 velocity=30 time=0
note_on channel=0 note=63 velocity=0 time=0
note_on channel=0 note=32 velocity=0 time=0
note_on channel=0 note=44 velocity=0 time=0
note_on channel=0 note=52 velocity=32 time=0
note_on channel=0 note=37 velocity=35 time=0
note_on channel=0 note=49 velocity=35 time=0
note_on channel=0 note=44 velocity=35 time=0
note_on channel=0 note=52 velocity=0 time=0
note_on channel=0 note=56 velocity=26 time=0
note_on channel=0 note=56 velocity=0 time=160
note_on channel=0 note=61 velocity=26 time=0
note_on channel=0 note=61 velocity=0 time=0
note_on channel=0 note=56 velocity=32 time=0
note_on channel=0 note=56 velocity=0 time=160
note_on channel=0 note=61 velocity=26 time=0
note_on channel=0 note=61 velocity=0 time=160
note_on channel=0 note=64 velocity=26 time=0
note_on channel=0 note=64 velocity=0 time=0
note_on channel=0 note=56 velocity=31 time=0
note_on channel=0 note=56 velocity=0 time=160
note_on channel=0 note=61 velocity=25 time=0
note_on channel=0 note=61 velocity=0 time=160
note_on channel=0 note=64 velocity=25 time=0
note_on channel=0 note=64 velocity=0 time=0
note_on channel=0 note=68 velocity=56 time=0
note_on channel=0 note=56 velocity=31 time=0
note_on channel=0 note=56 velocity=0 time=160
note_on channel=0 note=61 velocity=25 time=0
note_on channel=0 note=61 velocity=0 time=0
note_on channel=0 note=64 velocity=22 time=0
note_on channel=0 note=68 velocity=0 time=40
note_on channel=0 note=68 velocity=50 time=0
note_on channel=0 note=68 velocity=0 time=0
note_on channel=0 note=64 velocity=0 time=0
note_on channel=0 note=44 velocity=0 time=0
note_on channel=0 note=49 velocity=0 time=0
note_on channel=0 note=37 velocity=0 time=0
note_on channel=0 note=68 velocity=50 time=0
note_on channel=0 note=56 velocity=31 time=0
note_on channel=0 note=36 velocity=38 time=0
note_on channel=0 note=44 velocity=38 time=0
note_on channel=0 note=48 velocity=38 time=0
note_on channel=0 note=56 velocity=0 time=0
note_on channel=0 note=63 velocity=26 time=0
note_on channel=0 note=63 velocity=0 time=20
note_on channel=0 note=66 velocity=23 time=0
note_on channel=0 note=66 velocity=0 time=0
note_on channel=0 note=56 velocity=31 time=0
note_on channel=0 note=56 velocity=0 time=0
note_on channel=0 note=63 velocity=26 time=0
note_on channel=0 note=63 velocity=0 time=160
note_on channel=0 note=66 velocity=25 time=0
note_on channel=0 note=66 velocity=0 time=0
note_on channel=0 note=56 velocity=31 time=0
note_on channel=0 note=56 velocity=0 time=160
note_on channel=0 note=63 velocity=26 time=0
note_on channel=0 note=63 velocity=0 time=160
note_on channel=0 note=66 velocity=25 time=0
note_on channel=0 note=66 velocity=0 time=0
note_on channel=0 note=68 velocity=0 time=0
note_on channel=0 note=68 velocity=56 time=0
note_on channel=0 note=56 velocity=31 time=0
note_on channel=0 note=56 velocity=0 time=160
note_on channel=0 note=63 velocity=25 time=0
note_on channel=0 note=63 velocity=0 time=0
note_on channel=0 note=66 velocity=23 time=0
note_on channel=0 note=68 velocity=0 time=40
note_on channel=0 note=68 velocity=53 time=0
note_on channel=0 note=68 velocity=0 time=0
note_on channel=0 note=66 velocity=0 time=0
note_on channel=0 note=48 velocity=0 time=0
note_on channel=0 note=36 velocity=0 time=0
note_on channel=0 note=44 velocity=0 time=0
note_on channel=0 note=68 velocity=53 time=0
note_on channel=0 note=56 velocity=31 time=0
note_on channel=0 note=37 velocity=35 time=0
note_on channel=0 note=49 velocity=35 time=0
note_on channel=0 note=56 velocity=0 time=75
note_on channel=0 note=61 velocity=26 time=0
note_on channel=0 note=61 velocity=0 time=0
note_on channel=0 note=64 velocity=25 time=0
note_on channel=0 note=64 velocity=0 time=0
note_on channel=0 note=56 velocity=31 time=0
note_on channel=0 note=56 velocity=0 time=0
note_on channel=0 note=61 velocity=26 time=0
note_on channel=0 note=61 velocity=0 time=0
note_on channel=0 note=64 velocity=23 time=0
note_on channel=0 note=64 velocity=0 time=0
note_on channel=0 note=49 velocity=0 time=0
note_on channel=0 note=37 velocity=0 time=0
note_on channel=0 note=68 velocity=0 time=0
note_on channel=0 note=69 velocity=56 time=0
note_on channel=0 note=57 velocity=31 time=0
note_on channel=0 note=42 velocity=32 time=0
note_on channel=0 note=30 velocity=32 time=0
note_on channel=0 note=57 velocity=0 time=0
note_on channel=0 note=61 velocity=25 time=0
note_on channel=0 note=61 velocity=0 time=0
note_on channel=0 note=66 velocity=25 time=0
note_on channel=0 note=66 velocity=0 time=0
note_on channel=0 note=57 velocity=27 time=0
note_on channel=0 note=57 velocity=0 time=160
note_on channel=0 note=61 velocity=25 time=0
note_on channel=0 note=61 velocity=0 time=160
note_on channel=0 note=66 velocity=25 time=0
note_on channel=0 note=66 velocity=0 time=0
note_on channel=0 note=30 velocity=0 time=0
note_on channel=0 note=42 velocity=0 time=0
note_on channel=0 note=69 velocity=0 time=0
note_on channel=0 note=68 velocity=56 time=0
note_on channel=0 note=56 velocity=33 time=0
note_on channel=0 note=35 velocity=41 time=0
note_on channel=0 note=47 velocity=41 time=0
note_on channel=0 note=56 velocity=0 time=40
note_on channel=0 note=59 velocity=23 time=0
note_on channel=0 note=59 velocity=0 time=20
note_on channel=0 note=64 velocity=23 time=0
note_on channel=0 note=64 velocity=0 time=0
note_on channel=0 note=56 velocity=33 time=0
note_on channel=0 note=56 velocity=0 time=160
note_on channel=0 note=59 velocity=26 time=0
note_on channel=0 note=59 velocity=0 time=0
note_on channel=0 note=64 velocity=26 time=0
note_on channel=0 note=64 velocity=0 time=0
note_on channel=0 note=47 velocity=0 time=0
note_on channel=0 note=35 velocity=0 time=0
note_on channel=0 note=68 velocity=0 time=0
note_on channel=0 note=66 velocity=53 time=0
note_on channel=0 note=57 velocity=33 time=0
note_on channel=0 note=35 velocity=41 time=0
note_on channel=0 note=47 velocity=41 time=0
note_on channel=0 note=57 velocity=0 time=47
note_on channel=0 note=59 velocity=27 time=0
note_on channel=0 note=59 velocity=0 time=0
note_on channel=0 note=63 velocity=25 time=0
note_on channel=0 note=63 velocity=0 time=0
note_on channel=0 note=66 velocity=0 time=0
note_on channel=0 note=71 velocity=50 time=0
note_on channel=0 note=57 velocity=30 time=0
note_on channel=0 note=57 velocity=0 time=160
note_on channel=0 note=59 velocity=26 time=0
note_on channel=0 note=59 velocity=0 time=160
note_on channel=0 note=63 velocity=27 time=0
note_on channel=0 note=63 velocity=0 time=0
note_on channel=0 note=47 velocity=0 time=0
note_on channel=0 note=35 velocity=0 time=0
note_on channel=0 note=71 velocity=0 time=0
note_on channel=0 note=64 velocity=47 time=0
note_on channel=0 note=56 velocity=33 time=0
note_on channel=0 note=52 velocity=35 time=0
note_on channel=0 note=40 velocity=35 time=0
note_on channel=0 note=56 velocity=0 time=0
note_on channel=0 note=59 velocity=26 time=0
note_on channel=0 note=64 velocity=0 time=150
note_on channel=0 note=59 velocity=0 time=10
note_on channel=0 note=64 velocity=26 time=0
note_on channel=0 note=64 velocity=0 time=0
note_on channel=0 note=56 velocity=27 time=0
note_on channel=0 note=56 velocity=0 time=0
note_on channel=0 note=59 velocity=26 time=0
note_on channel=0 note=59 velocity=0 time=160
note_on channel=0 note=64 velocity=26 time=0
note_on channel=0 note=64 velocity=0 time=160
note_on channel=0 note=56 velocity=27 time=0
note_on channel=0 note=56 velocity=0 time=160
note_on channel=0 note=59 velocity=26 time=0
note_on channel=0 note=59 velocity=0 time=160
note_on channel=0 note=64 velocity=23 time=0
note_on channel=0 note=64 velocity=0 time=0
note_on channel=0 note=56 velocity=27 time=0
note_on channel=0 note=56 velocity=0 time=160
note_on channel=0 note=59 velocity=26 time=0
note_on channel=0 note=59 velocity=0 time=0
note_on channel=0 note=64 velocity=23 time=0
note_on channel=0 note=64 velocity=0 time=0
note_on channel=0 note=52 velocity=0 time=0
note_on channel=0 note=40 velocity=0 time=0
note_on channel=0 note=55 velocity=32 time=0
note_on channel=0 note=52 velocity=38 time=0
note_on channel=0 note=40 velocity=38 time=0
note_on channel=0 note=55 velocity=0 time=85
note_on channel=0 note=59 velocity=25 time=0
note_on channel=0 note=59 velocity=0 time=160
note_on channel=0 note=64 velocity=23 time=0
note_on channel=0 note=64 velocity=0 time=0
note_on channel=0 note=55 velocity=27 time=0
note_on channel=0 note=55 velocity=0 time=0
note_on channel=0 note=59 velocity=26 time=0
note_on channel=0 note=59 velocity=0 time=160
note_on channel=0 note=64 velocity=23 time=0
note_on channel=0 note=64 velocity=0 time=160
note_on channel=0 note=55 velocity=27 time=0
note_on channel=0 note=55 velocity=0 time=160
note_on channel=0 note=59 velocity=26 time=0
note_on channel=0 note=59 velocity=0 time=160
note_on channel=0 note=64 velocity=22 time=0
note_on channel=0 note=64 velocity=0 time=0
note_on channel=0 note=67 velocity=46 time=0
note_on channel=0 note=55 velocity=26 time=0
note_on channel=0 note=55 velocity=0 time=160
note_on channel=0 note=59 velocity=25 time=0
note_on channel=0 note=59 velocity=0 time=0
note_on channel=0 note=64 velocity=21 time=0
note_on channel=0 note=67 velocity=0 time=40
note_on channel=0 note=67 velocity=45 time=0
note_on channel=0 note=67 velocity=0 time=0
note_on channel=0 note=64 velocity=0 time=0
note_on channel=0 note=40 velocity=0 time=0
note_on channel=0 note=52 velocity=0 time=0
note_on channel=0 note=67 velocity=45 time=0
note_on channel=0 note=55 velocity=32 time=0
note_on channel=0 note=38 velocity=35 time=0
note_on channel=0 note=50 velocity=35 time=0
note_on channel=0 note=55 velocity=0 time=0
note_on channel=0 note=59 velocity=26 time=0
note_on channel=0 note=59 velocity=0 time=0
note_on channel=0 note=65 velocity=26 time=0
note_on channel=0 note=65 velocity=0 time=0
note_on channel=0 note=55 velocity=32 time=0
note_on channel=0 note=55 velocity=0 time=160
note_on channel=0 note=59 velocity=27 time=0
note_on channel=0 note=59 velocity=0 time=160
note_on channel=0 note=65 velocity=25 time=0
note_on channel=0 note=65 velocity=0 time=160
note_on channel=0 note=55 velocity=31 time=0
note_on channel=0 note=55 velocity=0 time=160
note_on channel=0 note=59 velocity=27 time=0
note_on channel=0 note=59 velocity=0 time=0
note_on channel=0 note=65 velocity=25 time=0
note_on channel=0 note=65 velocity=0 time=0
note_on channel=0 note=67 velocity=0 time=0
note_on channel=0 note=67 velocity=50 time=0
note_on channel=0 note=55 velocity=30 time=0
note_on channel=0 note=55 velocity=0 time=160
note_on channel=0 note=59 velocity=25 time=0
note_on channel=0 note=59 velocity=0 time=0
note_on channel=0 note=65 velocity=22 time=0
note_on channel=0 note=67 velocity=0 time=40
note_on channel=0 note=67 velocity=50 time=0
note_on channel=0 note=67 velocity=0 time=0
note_on channel=0 note=65 velocity=0 time=0
note_on channel=0 note=38 velocity=0 time=0
note_on channel=0 note=50 velocity=0 time=0
note_on channel=0 note=67 velocity=57 time=0
note_on channel=0 note=55 velocity=33 time=0
note_on channel=0 note=36 velocity=40 time=0
note_on channel=0 note=48 velocity=40 time=0
note_on channel=0 note=55 velocity=0 time=0
note_on channel=0 note=60 velocity=27 time=0
note_on channel=0 note=60 velocity=0 time=160
note_on channel=0 note=64 velocity=27 time=0
note_on channel=0 note=64 velocity=0 time=0
note_on channel=0 note=48 velocity=0 time=0
note_on channel=0 note=36 velocity=0 time=0
note_on channel=0 note=55 velocity=40 time=0
note_on channel=0 note=47 velocity=46 time=0
note_on channel=0 note=35 velocity=46 time=0
note_on channel=0 note=55 velocity=0 time=0
note_on channel=0 note=59 velocity=33 time=0
note_on channel=0 note=59 velocity=0 time=160
note_on channel=0 note=64 velocity=33 time=0
note_on channel=0 note=64 velocity=0 time=0
note_on channel=0 note=35 velocity=0 time=0
note_on channel=0 note=47 velocity=0 time=0
note_on channel=0 note=55 velocity=38 time=0
note_on channel=0 note=34 velocity=53 time=0
note_on channel=0 note=46 velocity=53 time=0
note_on channel=0 note=55 velocity=0 time=0
note_on channel=0 note=61 velocity=42 time=0
note_on channel=0 note=61 velocity=0 time=140
note_on channel=0 note=64 velocity=47 time=0
note_on channel=0 note=64 velocity=0 time=0
note_on channel=0 note=67 velocity=0 time=0
note_on channel=0 note=66 velocity=56 time=0
note_on channel=0 note=54 velocity=41 time=0
note_on channel=0 note=54 velocity=0 time=0
note_on channel=0 note=61 velocity=35 time=0
note_on channel=0 note=61 velocity=0 time=0
note_on channel=0 note=64 velocity=27 time=0
note_on channel=0 note=64 velocity=0 time=0
note_on channel=0 note=46 velocity=0 time=0
note_on channel=0 note=34 velocity=0 time=0
note_on channel=0 note=66 velocity=0 time=0
note_on channel=0 note=66 velocity=65 time=0
note_on channel=0 note=54 velocity=38 time=0
note_on channel=0 note=35 velocity=42 time=0
note_on channel=0 note=47 velocity=42 time=0
note_on channel=0 note=54 velocity=0 time=0
note_on channel=0 note=59 velocity=32 time=0
note_on channel=0 note=59 velocity=0 time=140
note_on channel=0 note=62 velocity=27 time=0
note_on channel=0 note=62 velocity=0 time=0
note_on channel=0 note=54 velocity=33 time=0
note_on channel=0 note=54 velocity=0 time=0
note_on channel=0 note=59 velocity=27 time=0
note_on channel=0 note=59 velocity=0 time=140
note_on channel=0 note=62 velocity=27 time=0
note_on channel=0 note=62 velocity=0 time=0
note_on channel=0 note=47 velocity=0 time=0
note_on channel=0 note=35 velocity=0 time=0
note_on channel=0 note=66 velocity=0 time=0
note_on channel=0 note=67 velocity=56 time=0
note_on channel=0 note=55 velocity=35 time=0
note_on channel=0 note=40 velocity=41 time=0
note_on channel=0 note=55 velocity=0 time=0
note_on channel=0 note=59 velocity=27 time=0
note_on channel=0 note=59 velocity=0 time=0
note_on channel=0 note=61 velocity=27 time=0
note_on channel=0 note=61 velocity=0 time=0
note_on channel=0 note=40 velocity=0 time=0
note_on channel=0 note=67 velocity=0 time=0
note_on channel=0 note=64 velocity=47 time=0
note_on channel=0 note=52 velocity=35 time=0
note_on channel=0 note=43 velocity=40 time=0
note_on channel=0 note=52 velocity=0 time=0
note_on channel=0 note=59 velocity=27 time=0
note_on channel=0 note=59 velocity=0 time=0
note_on channel=0 note=61 velocity=23 time=0
note_on channel=0 note=61 velocity=0 time=0
note_on channel=0 note=43 velocity=0 time=0
note_on channel=0 note=64 velocity=0 time=0
note_on channel=0 note=66 velocity=53 time=0
note_on channel=0 note=54 velocity=41 time=0
note_on channel=0 note=42 velocity=46 time=0
note_on channel=0 note=54 velocity=0 time=0
note_on channel=0 note=59 velocity=35 time=0
note_on channel=0 note=59 velocity=0 time=160
note_on channel=0 note=62 velocity=32 time=0
note_on channel=0 note=62 velocity=0 time=0
note_on channel=0 note=54 velocity=38 time=0
note_on channel=0 note=54 velocity=0 time=0
note_on channel=0 note=59 velocity=31 time=0
note_on channel=0 note=59 velocity=0 time=160
note_on channel=0 note=62 velocity=28 time=0
note_on channel=0 note=62 velocity=0 time=0
note_on channel=0 note=42 velocity=0 time=0
note_on channel=0 note=66 velocity=0 time=0
note_on channel=0 note=66 velocity=47 time=0
note_on channel=0 note=54 velocity=31 time=0
note_on channel=0 note=30 velocity=35 time=0
note_on channel=0 note=42 velocity=35 time=0
note_on channel=0 note=54 velocity=0 time=63
note_on channel=0 note=58 velocity=26 time=0
note_on channel=0 note=58 velocity=0 time=160
note_on channel=0 note=61 velocity=23 time=0
note_on channel=0 note=61 velocity=0 time=0
note_on channel=0 note=54 velocity=31 time=0
note_on channel=0 note=54 velocity=0 time=160
note_on channel=0 note=58 velocity=26 time=0
note_on channel=0 note=58 velocity=0 time=0
note_on channel=0 note=61 velocity=23 time=0
note_on channel=0 note=61 velocity=0 time=0
note_on channel=0 note=42 velocity=0 time=0
note_on channel=0 note=30 velocity=0 time=0
note_on channel=0 note=66 velocity=0 time=0
note_on channel=0 note=59 velocity=32 time=0
note_on channel=0 note=35 velocity=35 time=0
note_on channel=0 note=47 velocity=35 time=0
note_on channel=0 note=59 velocity=0 time=20
note_on channel=0 note=62 velocity=27 time=0
note_on channel=0 note=62 velocity=0 time=20
note_on channel=0 note=66 velocity=25 time=0
note_on channel=0 note=66 velocity=0 time=0
note_on channel=0 note=59 velocity=27 time=0
note_on channel=0 note=59 velocity=0 time=0
note_on channel=0 note=62 velocity=26 time=0
note_on channel=0 note=62 velocity=0 time=160
note_on channel=0 note=66 velocity=26 time=0
note_on channel=0 note=66 velocity=0 time=0
note_on channel=0 note=59 velocity=41 time=0
note_on channel=0 note=59 velocity=0 time=103
note_on channel=0 note=63 velocity=38 time=0
note_on channel=0 note=63 velocity=0 time=0
note_on channel=0 note=66 velocity=38 time=0
note_on channel=0 note=66 velocity=0 time=0
note_on channel=0 note=71 velocity=56 time=0
note_on channel=0 note=59 velocity=41 time=0
note_on channel=0 note=59 velocity=0 time=160
note_on channel=0 note=63 velocity=38 time=0
note_on channel=0 note=63 velocity=0 time=0
note_on channel=0 note=66 velocity=35 time=0
note_on channel=0 note=66 velocity=0 time=0
note_on channel=0 note=71 velocity=0 time=0
note_on channel=0 note=72 velocity=63 time=0
note_on channel=0 note=59 velocity=41 time=0
note_on channel=0 note=59 velocity=0 time=60
note_on channel=0 note=64 velocity=41 time=0
note_on channel=0 note=64 velocity=0 time=60
note_on channel=0 note=67 velocity=45 time=0
note_on channel=0 note=67 velocity=0 time=60
note_on channel=0 note=35 velocity=0 time=0
note_on channel=0 note=47 velocity=0 time=0
note_on channel=0 note=59 velocity=47 time=0
note_on channel=0 note=52 velocity=53 time=0
note_on channel=0 note=40 velocity=53 time=0
note_on channel=0 note=59 velocity=0 time=140
note_on channel=0 note=64 velocity=53 time=0
note_on channel=0 note=64 velocity=0 time=0
note_on channel=0 note=67 velocity=56 time=0
note_on channel=0 note=67 velocity=0 time=0
note_on channel=0 note=40 velocity=0 time=0
note_on channel=0 note=52 velocity=0 time=0
note_on channel=0 note=59 velocity=61 time=0
note_on channel=0 note=43 velocity=60 time=0
note_on channel=0 note=55 velocity=60 time=0
note_on channel=0 note=59 velocity=0 time=0
note_on channel=0 note=64 velocity=60 time=0
note_on channel=0 note=64 velocity=0 time=40
note_on channel=0 note=67 velocity=56 time=0
note_on channel=0 note=67 velocity=0 time=20
note_on channel=0 note=72 velocity=0 time=0
note_on channel=0 note=43 velocity=0 time=0
note_on channel=0 note=55 velocity=0 time=0
note_on channel=0 note=70 velocity=56 time=0
note_on channel=0 note=59 velocity=52 time=0
note_on channel=0 note=40 velocity=48 time=0
note_on channel=0 note=52 velocity=48 time=0
note_on channel=0 note=59 velocity=0 time=0
note_on channel=0 note=64 velocity=46 time=0
note_on channel=0 note=64 velocity=0 time=40
note_on channel=0 note=67 velocity=31 time=0
note_on channel=0 note=67 velocity=0 time=0
note_on channel=0 note=70 velocity=0 time=0
note_on channel=0 note=40 velocity=0 time=0
note_on channel=0 note=52 velocity=0 time=0
note_on channel=0 note=71 velocity=56 time=0
note_on channel=0 note=59 velocity=37 time=0
note_on channel=0 note=47 velocity=42 time=0
note_on channel=0 note=35 velocity=42 time=0
note_on channel=0 note=59 velocity=0 time=0
note_on channel=0 note=63 velocity=35 time=0
note_on channel=0 note=63 velocity=0 time=0
note_on channel=0 note=66 velocity=35 time=0
note_on channel=0 note=66 velocity=0 time=0
note_on channel=0 note=59 velocity=40 time=0
note_on channel=0 note=59 velocity=0 time=0
note_on channel=0 note=63 velocity=35 time=0
note_on channel=0 note=63 velocity=0 time=160
note_on channel=0 note=66 velocity=35 time=0
note_on channel=0 note=66 velocity=0 time=0
note_on channel=0 note=59 velocity=41 time=0
note_on channel=0 note=59 velocity=0 time=0
note_on channel=0 note=63 velocity=37 time=0
note_on channel=0 note=63 velocity=0 time=0
note_on channel=0 note=66 velocity=33 time=0
note_on channel=0 note=66 velocity=0 time=0
note_on channel=0 note=71 velocity=0 time=0
note_on channel=0 note=71 velocity=56 time=0
note_on channel=0 note=59 velocity=41 time=0
note_on channel=0 note=59 velocity=0 time=160
note_on channel=0 note=63 velocity=37 time=0
note_on channel=0 note=63 velocity=0 time=0
note_on channel=0 note=66 velocity=37 time=0
note_on channel=0 note=66 velocity=0 time=0
note_on channel=0 note=71 velocity=0 time=0
note_on channel=0 note=72 velocity=63 time=0
note_on channel=0 note=59 velocity=41 time=0
note_on channel=0 note=59 velocity=0 time=0
note_on channel=0 note=64 velocity=45 time=0
note_on channel=0 note=64 velocity=0 time=40
note_on channel=0 note=67 velocity=52 time=0
note_on channel=0 note=67 velocity=0 time=0
note_on channel=0 note=35 velocity=0 time=0
note_on channel=0 note=47 velocity=0 time=0
note_on channel=0 note=59 velocity=55 time=0
note_on channel=0 note=52 velocity=50 time=0
note_on channel=0 note=40 velocity=50 time=0
note_on channel=0 note=59 velocity=0 time=160
note_on channel=0 note=64 velocity=56 time=0
note_on channel=0 note=64 velocity=0 time=0
note_on channel=0 note=67 velocity=57 time=0
note_on channel=0 note=67 velocity=0 time=0
note_on channel=0 note=40 velocity=0 time=0
note_on channel=0 note=52 velocity=0 time=0
note_on channel=0 note=59 velocity=60 time=0
note_on channel=0 note=43 velocity=55 time=0
note_on channel=0 note=55 velocity=55 time=0
note_on channel=0 note=59 velocity=0 time=0
note_on channel=0 note=64 velocity=60 time=0
note_on channel=0 note=64 velocity=0 time=0
note_on channel=0 note=67 velocity=56 time=0
note_on channel=0 note=67 velocity=0 time=0
note_on channel=0 note=72 velocity=0 time=0
note_on channel=0 note=43 velocity=0 time=0
note_on channel=0 note=55 velocity=0 time=0
note_on channel=0 note=70 velocity=56 time=0
note_on channel=0 note=59 velocity=52 time=0
note_on channel=0 note=52 velocity=41 time=0
note_on channel=0 note=40 velocity=41 time=0
note_on channel=0 note=59 velocity=0 time=0
note_on channel=0 note=64 velocity=41 time=0
note_on channel=0 note=64 velocity=0 time=160
note_on channel=0 note=67 velocity=35 time=0
note_on channel=0 note=67 velocity=0 time=0
note_on channel=0 note=70 velocity=0 time=0
note_on channel=0 note=52 velocity=0 time=0
note_on channel=0 note=40 velocity=0 time=0
note_on channel=0 note=71 velocity=56 time=0
note_on channel=0 note=59 velocity=41 time=0
note_on channel=0 note=35 velocity=37 time=0
note_on channel=0 note=47 velocity=37 time=0
note_on channel=0 note=59 velocity=0 time=103
note_on channel=0 note=63 velocity=35 time=0
note_on channel=0 note=63 velocity=0 time=160
note_on channel=0 note=66 velocity=33 time=0
note_on channel=0 note=66 velocity=0 time=160
note_on channel=0 note=59 velocity=35 time=0
note_on channel=0 note=59 velocity=0 time=160
note_on channel=0 note=63 velocity=30 time=0
note_on channel=0 note=63 velocity=0 time=0
note_on channel=0 note=66 velocity=30 time=0
note_on channel=0 note=66 velocity=0 time=0
note_on channel=0 note=47 velocity=0 time=0
note_on channel=0 note=35 velocity=0 time=0
note_on channel=0 note=71 velocity=0 time=0
note_on channel=0 note=71 velocity=47 time=0
note_on channel=0 note=59 velocity=35 time=0
note_on channel=0 note=32 velocity=35 time=0
note_on channel=0 note=44 velocity=35 time=0
note_on channel=0 note=59 velocity=0 time=0
note_on channel=0 note=62 velocity=27 time=0
note_on channel=0 note=62 velocity=0 time=160
note_on channel=0 note=65 velocity=27 time=0
note_on channel=0 note=65 velocity=0 time=0
note_on channel=0 note=59 velocity=30 time=0
note_on channel=0 note=59 velocity=0 time=0
note_on channel=0 note=62 velocity=25 time=0
note_on channel=0 note=62 velocity=0 time=0
note_on channel=0 note=65 velocity=25 time=0
note_on channel=0 note=65 velocity=0 time=0
note_on channel=0 note=44 velocity=0 time=0
note_on channel=0 note=32 velocity=0 time=0
note_on channel=0 note=71 velocity=0 time=0
note_on channel=0 note=71 velocity=47 time=0
note_on channel=0 note=59 velocity=30 time=0
note_on channel=0 note=41 velocity=35 time=0
note_on channel=0 note=29 velocity=35 time=0
note_on channel=0 note=59 velocity=0 time=54
note_on channel=0 note=61 velocity=27 time=0
note_on channel=0 note=61 velocity=0 time=160
note_on channel=0 note=68 velocity=25 time=0
note_on channel=0 note=68 velocity=0 time=0
note_on channel=0 note=59 velocity=30 time=0
note_on channel=0 note=59 velocity=0 time=0
note_on channel=0 note=61 velocity=26 time=0
note_on channel=0 note=61 velocity=0 time=160
note_on channel=0 note=68 velocity=26 time=0
note_on channel=0 note=68 velocity=0 time=0
note_on channel=0 note=29 velocity=0 time=0
note_on channel=0 note=41 velocity=0 time=0
note_on channel=0 note=71 velocity=0 time=0
note_on channel=0 note=69 velocity=52 time=0
note_on channel=0 note=57 velocity=30 time=0
note_on channel=0 note=30 velocity=41 time=0
note_on channel=0 note=42 velocity=41 time=0
note_on channel=0 note=57 velocity=0 time=0
note_on channel=0 note=61 velocity=26 time=0
note_on channel=0 note=61 velocity=0 time=160
note_on channel=0 note=66 velocity=26 time=0
note_on channel=0 note=66 velocity=0 time=0
note_on channel=0 note=57 velocity=35 time=0
note_on channel=0 note=57 velocity=0 time=0
note_on channel=0 note=61 velocity=31 time=0
note_on channel=0 note=61 velocity=0 time=0
note_on channel=0 note=66 velocity=31 time=0
note_on channel=0 note=66 velocity=0 time=0
note_on channel=0 note=42 velocity=0 time=0
note_on channel=0 note=30 velocity=0 time=0
note_on channel=0 note=69 velocity=0 time=0
note_on channel=0 note=67 velocity=56 time=0
note_on channel=0 note=55 velocity=41 time=0
note_on channel=0 note=47 velocity=41 time=0
note_on channel=0 note=35 velocity=41 time=0
note_on channel=0 note=55 velocity=0 time=63
note_on channel=0 note=59 velocity=38 time=0
note_on channel=0 note=59 velocity=0 time=160
note_on channel=0 note=62 velocity=38 time=0
note_on channel=0 note=62 velocity=0 time=160
note_on channel=0 note=55 velocity=41 time=0
note_on channel=0 note=55 velocity=0 time=160
note_on channel=0 note=59 velocity=38 time=0
note_on channel=0 note=59 velocity=0 time=0
note_on channel=0 note=62 velocity=38 time=0
note_on channel=0 note=62 velocity=0 time=0
note_on channel=0 note=35 velocity=0 time=0
note_on channel=0 note=47 velocity=0 time=0
note_on channel=0 note=67 velocity=0 time=0
note_on channel=0 note=66 velocity=52 time=0
note_on channel=0 note=54 velocity=41 time=0
note_on channel=0 note=36 velocity=45 time=0
note_on channel=0 note=48 velocity=45 time=0
note_on channel=0 note=54 velocity=0 time=0
note_on channel=0 note=57 velocity=38 time=0
note_on channel=0 note=57 velocity=0 time=0
note_on channel=0 note=63 velocity=38 time=0
note_on channel=0 note=63 velocity=0 time=0
note_on channel=0 note=54 velocity=35 time=0
note_on channel=0 note=54 velocity=0 time=160
note_on channel=0 note=57 velocity=31 time=0
note_on channel=0 note=57 velocity=0 time=0
note_on channel=0 note=63 velocity=26 time=0
note_on channel=0 note=63 velocity=0 time=0
note_on channel=0 note=48 velocity=0 time=0
note_on channel=0 note=36 velocity=0 time=0
note_on channel=0 note=66 velocity=0 time=0
note_on channel=0 note=61 velocity=47 time=0
note_on channel=0 note=49 velocity=30 time=0
note_on channel=0 note=37 velocity=35 time=0
note_on channel=0 note=49 velocity=0 time=68
note_on channel=0 note=54 velocity=27 time=0
note_on channel=0 note=54 velocity=0 time=160
note_on channel=0 note=57 velocity=27 time=0
note_on channel=0 note=57 velocity=0 time=0
note_on channel=0 note=49 velocity=30 time=0
note_on channel=0 note=49 velocity=0 time=160
note_on channel=0 note=54 velocity=27 time=0
note_on channel=0 note=54 velocity=0 time=160
note_on channel=0 note=57 velocity=27 time=0
note_on channel=0 note=57 velocity=0 time=0
note_on channel=0 note=37 velocity=0 time=0
note_on channel=0 note=61 velocity=0 time=0
note_on channel=0 note=61 velocity=47 time=0
note_on channel=0 note=49 velocity=30 time=0
note_on channel=0 note=37 velocity=35 time=0
note_on channel=0 note=49 velocity=0 time=74
note_on channel=0 note=54 velocity=26 time=0
note_on channel=0 note=54 velocity=0 time=0
note_on channel=0 note=56 velocity=26 time=0
note_on channel=0 note=56 velocity=0 time=0
note_on channel=0 note=61 velocity=0 time=0
note_on channel=0 note=61 velocity=41 time=0
note_on channel=0 note=49 velocity=30 time=0
note_on channel=0 note=49 velocity=0 time=0
note_on channel=0 note=53 velocity=26 time=0
note_on channel=0 note=53 velocity=0 time=0
note_on channel=0 note=56 velocity=22 time=0
note_on channel=0 note=56 velocity=0 time=0
note_on channel=0 note=61 velocity=0 time=0
note_on channel=0 note=37 velocity=0 time=0
note_on channel=0 note=54 velocity=32 time=0
note_on channel=0 note=37 velocity=35 time=0
note_on channel=0 note=42 velocity=35 time=0
note_on channel=0 note=30 velocity=35 time=0
note_on channel=0 note=54 velocity=0 time=0
note_on channel=0 note=57 velocity=26 time=0
note_on channel=0 note=57 velocity=0 time=0
note_on channel=0 note=61 velocity=26 time=0
note_on channel=0 note=61 velocity=0 time=0
note_on channel=0 note=57 velocity=30 time=0
note_on channel=0 note=57 velocity=0 time=0
note_on channel=0 note=61 velocity=26 time=0
note_on channel=0 note=61 velocity=0 time=160
note_on channel=0 note=66 velocity=26 time=0
note_on channel=0 note=66 velocity=0 time=0
note_on channel=0 note=61 velocity=30 time=0
note_on channel=0 note=61 velocity=0 time=160
note_on channel=0 note=66 velocity=26 time=0
note_on channel=0 note=66 velocity=0 time=0
note_on channel=0 note=69 velocity=26 time=0
note_on channel=0 note=69 velocity=0 time=0
note_on channel=0 note=73 velocity=56 time=0
note_on channel=0 note=61 velocity=41 time=0
note_on channel=0 note=61 velocity=0 time=160
note_on channel=0 note=66 velocity=33 time=0
note_on channel=0 note=66 velocity=0 time=0
note_on channel=0 note=69 velocity=26 time=0
note_on channel=0 note=73 velocity=0 time=40
note_on channel=0 note=73 velocity=56 time=0
note_on channel=0 note=73 velocity=0 time=20
note_on channel=0 note=69 velocity=0 time=0
note_on channel=0 note=30 velocity=0 time=0
note_on channel=0 note=42 velocity=0 time=0
note_on channel=0 note=37 velocity=0 time=0
note_on channel=0 note=73 velocity=61 time=0
note_on channel=0 note=61 velocity=37 time=0
note_on channel=0 note=49 velocity=33 time=0
note_on channel=0 note=53 velocity=33 time=0
note_on channel=0 note=41 velocity=33 time=0
note_on channel=0 note=61 velocity=0 time=40
note_on channel=0 note=68 velocity=32 time=0
note_on channel=0 note=68 velocity=0 time=20
note_on channel=0 note=71 velocity=32 time=0
note_on channel=0 note=71 velocity=0 time=0
note_on channel=0 note=61 velocity=41 time=0
note_on channel=0 note=61 velocity=0 time=160
note_on channel=0 note=68 velocity=35 time=0
note_on channel=0 note=68 velocity=0 time=160
note_on channel=0 note=71 velocity=35 time=0
note_on channel=0 note=71 velocity=0 time=0
note_on channel=0 note=61 velocity=41 time=0
note_on channel=0 note=61 velocity=0 time=160
note_on channel=0 note=68 velocity=35 time=0
note_on channel=0 note=68 velocity=0 time=0
note_on channel=0 note=71 velocity=35 time=0
note_on channel=0 note=71 velocity=0 time=0
note_on channel=0 note=73 velocity=0 time=0
note_on channel=0 note=73 velocity=56 time=0
note_on channel=0 note=61 velocity=41 time=0
note_on channel=0 note=61 velocity=0 time=160
note_on channel=0 note=68 velocity=35 time=0
note_on channel=0 note=68 velocity=0 time=0
note_on channel=0 note=71 velocity=35 time=0
note_on channel=0 note=73 velocity=0 time=40
note_on channel=0 note=73 velocity=56 time=0
note_on channel=0 note=73 velocity=0 time=0
note_on channel=0 note=71 velocity=0 time=0
note_on channel=0 note=41 velocity=0 time=0
note_on channel=0 note=49 velocity=0 time=0
note_on channel=0 note=53 velocity=0 time=0
note_on channel=0 note=73 velocity=65 time=0
note_on channel=0 note=61 velocity=41 time=0
note_on channel=0 note=54 velocity=40 time=0
note_on channel=0 note=42 velocity=40 time=0
note_on channel=0 note=61 velocity=0 time=20
note_on channel=0 note=66 velocity=38 time=0
note_on channel=0 note=66 velocity=0 time=40
note_on channel=0 note=69 velocity=38 time=0
note_on channel=0 note=69 velocity=0 time=0
note_on channel=0 note=61 velocity=41 time=0
note_on channel=0 note=61 velocity=0 time=160
note_on channel=0 note=66 velocity=42 time=0
note_on channel=0 note=66 velocity=0 time=0
note_on channel=0 note=69 velocity=45 time=0
note_on channel=0 note=69 velocity=0 time=0
note_on channel=0 note=42 velocity=0 time=0
note_on channel=0 note=54 velocity=0 time=0
note_on channel=0 note=73 velocity=0 time=0
note_on channel=0 note=72 velocity=61 time=0
note_on channel=0 note=60 velocity=46 time=0
note_on channel=0 note=51 velocity=46 time=0
note_on channel=0 note=39 velocity=46 time=0
note_on channel=0 note=60 velocity=0 time=74
note_on channel=0 note=66 velocity=42 time=0
note_on channel=0 note=66 velocity=0 time=160
note_on channel=0 note=69 velocity=41 time=0
note_on channel=0 note=69 velocity=0 time=0
note_on channel=0 note=72 velocity=0 time=0
note_on channel=0 note=51 velocity=0 time=0
note_on channel=0 note=39 velocity=0 time=0
note_on channel=0 note=73 velocity=63 time=0
note_on channel=0 note=61 velocity=47 time=0
note_on channel=0 note=37 velocity=46 time=0
note_on channel=0 note=49 velocity=46 time=0
note_on channel=0 note=61 velocity=0 time=51
note_on channel=0 note=66 velocity=42 time=0
note_on channel=0 note=66 velocity=0 time=0
note_on channel=0 note=69 velocity=42 time=0
note_on channel=0 note=69 velocity=0 time=0
note_on channel=0 note=73 velocity=0 time=0
note_on channel=0 note=37 velocity=0 time=0
note_on channel=0 note=49 velocity=0 time=0
note_on channel=0 note=75 velocity=65 time=0
note_on channel=0 note=63 velocity=52 time=0
note_on channel=0 note=36 velocity=50 time=0
note_on channel=0 note=44 velocity=50 time=0
note_on channel=0 note=48 velocity=50 time=0
note_on channel=0 note=63 velocity=0 time=0
note_on channel=0 note=66 velocity=50 time=0
note_on channel=0 note=66 velocity=0 time=160
note_on channel=0 note=68 velocity=48 time=0
note_on channel=0 note=68 velocity=0 time=0
note_on channel=0 note=63 velocity=53 time=0
note_on channel=0 note=63 velocity=0 time=0
note_on channel=0 note=66 velocity=50 time=0
note_on channel=0 note=66 velocity=0 time=160
note_on channel=0 note=68 velocity=50 time=0
note_on channel=0 note=68 velocity=0 time=0
note_on channel=0 note=63 velocity=56 time=0
note_on channel=0 note=63 velocity=0 time=0
note_on channel=0 note=66 velocity=52 time=0
note_on channel=0 note=66 velocity=0 time=0
note_on channel=0 note=68 velocity=52 time=0
note_on channel=0 note=68 velocity=0 time=0
note_on channel=0 note=44 velocity=0 time=0
note_on channel=0 note=75 velocity=0 time=0
note_on channel=0 note=36 velocity=0 time=0
note_on channel=0 note=48 velocity=0 time=0
note_on channel=0 note=75 velocity=72 time=0
note_on channel=0 note=63 velocity=57 time=0
note_on channel=0 note=36 velocity=48 time=0
note_on channel=0 note=44 velocity=48 time=0
note_on channel=0 note=48 velocity=48 time=0
note_on channel=0 note=63 velocity=0 time=160
note_on channel=0 note=66 velocity=56 time=0
note_on channel=0 note=66 velocity=0 time=0
note_on channel=0 note=68 velocity=56 time=0
note_on channel=0 note=68 velocity=0 time=0
note_on channel=0 note=44 velocity=0 time=0
note_on channel=0 note=75 velocity=0 time=0
note_on channel=0 note=36 velocity=0 time=0
note_on channel=0 note=48 velocity=0 time=0
note_on channel=0 note=76 velocity=86 time=0
note_on channel=0 note=64 velocity=61 time=0
note_on channel=0 note=37 velocity=55 time=0
note_on channel=0 note=44 velocity=55 time=0
note_on channel=0 note=49 velocity=55 time=0
note_on channel=0 note=64 velocity=0 time=0
note_on channel=0 note=68 velocity=57 time=0
note_on channel=0 note=68 velocity=0 time=160
note_on channel=0 note=73 velocity=55 time=0
note_on channel=0 note=73 velocity=0 time=0
note_on channel=0 note=64 velocity=52 time=0
note_on channel=0 note=64 velocity=0 time=0
note_on channel=0 note=68 velocity=48 time=0
note_on channel=0 note=68 velocity=0 time=0
note_on channel=0 note=73 velocity=48 time=0
note_on channel=0 note=73 velocity=0 time=0
note_on channel=0 note=49 velocity=0 time=0
note_on channel=0 note=76 velocity=0 time=0
note_on channel=0 note=37 velocity=0 time=0
note_on channel=0 note=44 velocity=0 time=0
note_on channel=0 note=75 velocity=65 time=0
note_on channel=0 note=63 velocity=45 time=0
note_on channel=0 note=42 velocity=46 time=0
note_on channel=0 note=30 velocity=46 time=0
note_on channel=0 note=63 velocity=0 time=34
note_on channel=0 note=66 velocity=41 time=0
note_on channel=0 note=66 velocity=0 time=160
note_on channel=0 note=69 velocity=41 time=0
note_on channel=0 note=69 velocity=0 time=0
note_on channel=0 note=75 velocity=0 time=0
note_on channel=0 note=42 velocity=0 time=0
note_on channel=0 note=30 velocity=0 time=0
note_on channel=0 note=73 velocity=56 time=0
note_on channel=0 note=61 velocity=40 time=0
note_on channel=0 note=31 velocity=45 time=0
note_on channel=0 note=43 velocity=45 time=0
note_on channel=0 note=61 velocity=0 time=0
note_on channel=0 note=64 velocity=38 time=0
note_on channel=0 note=64 velocity=0 time=0
note_on channel=0 note=70 velocity=33 time=0
note_on channel=0 note=70 velocity=0 time=0
note_on channel=0 note=73 velocity=0 time=0
note_on channel=0 note=31 velocity=0 time=0
note_on channel=0 note=43 velocity=0 time=0
note_on channel=0 note=72 velocity=52 time=0
note_on channel=0 note=32 velocity=41 time=0
note_on channel=0 note=44 velocity=41 time=0
note_on channel=0 note=72 velocity=0 time=0
note_on channel=0 note=60 velocity=52 time=0
note_on channel=0 note=60 velocity=0 time=0
note_on channel=0 note=63 velocity=52 time=0
note_on channel=0 note=63 velocity=0 time=0
note_on channel=0 note=68 velocity=65 time=0
note_on channel=0 note=60 velocity=52 time=74
note_on channel=0 note=60 velocity=0 time=0
note_on channel=0 note=63 velocity=53 time=0
note_on channel=0 note=63 velocity=0 time=0
note_on channel=0 note=68 velocity=0 time=0
note_on channel=0 note=69 velocity=77 time=0
note_on channel=0 note=60 velocity=52 time=74
note_on channel=0 note=60 velocity=0 time=160
note_on channel=0 note=63 velocity=52 time=0
note_on channel=0 note=63 velocity=0 time=0
note_on channel=0 note=69 velocity=0 time=0
note_on channel=0 note=66 velocity=65 time=0
note_on channel=0 note=60 velocity=52 time=85
note_on channel=0 note=60 velocity=0 time=160
note_on channel=0 note=63 velocity=53 time=0
note_on channel=0 note=63 velocity=0 time=0
note_on channel=0 note=66 velocity=0 time=0
note_on channel=0 note=44 velocity=0 time=0
note_on channel=0 note=32 velocity=0 time=0
note_on channel=0 note=44 velocity=53 time=0
note_on channel=0 note=32 velocity=53 time=0
note_on channel=0 note=60 velocity=52 time=0
note_on channel=0 note=60 velocity=0 time=160
note_on channel=0 note=63 velocity=52 time=0
note_on channel=0 note=63 velocity=0 time=0
note_on channel=0 note=56 velocity=65 time=0
note_on channel=0 note=60 velocity=53 time=0
note_on channel=0 note=60 velocity=0 time=0
note_on channel=0 note=63 velocity=53 time=0
note_on channel=0 note=63 velocity=0 time=0
note_on channel=0 note=56 velocity=0 time=0
note_on channel=0 note=57 velocity=76 time=0
note_on channel=0 note=60 velocity=53 time=20
note_on channel=0 note=60 velocity=0 time=40
note_on channel=0 note=63 velocity=53 time=0
note_on channel=0 note=63 velocity=0 time=0
note_on channel=0 note=57 velocity=0 time=0
note_on channel=0 note=54 velocity=60 time=0
note_on channel=0 note=60 velocity=52 time=74
note_on channel=0 note=60 velocity=0 time=0
note_on channel=0 note=63 velocity=46 time=0
note_on channel=0 note=63 velocity=0 time=0
note_on channel=0 note=54 velocity=0 time=0
note_on channel=0 note=32 velocity=0 time=0
note_on channel=0 note=44 velocity=0 time=0
note_on channel=0 note=52 velocity=52 time=0
note_on channel=0 note=32 velocity=46 time=0
note_on channel=0 note=44 velocity=46 time=0
note_on channel=0 note=52 velocity=0 time=20
note_on channel=0 note=64 velocity=52 time=0
note_on channel=0 note=64 velocity=0 time=40
note_on channel=0 note=68 velocity=52 time=0
note_on channel=0 note=68 velocity=0 time=0
note_on channel=0 note=73 velocity=65 time=0
note_on channel=0 note=64 velocity=52 time=61
note_on channel=0 note=64 velocity=0 time=0
note_on channel=0 note=68 velocity=47 time=0
note_on channel=0 note=68 velocity=0 time=0
note_on channel=0 note=73 velocity=0 time=0
note_on channel=0 note=76 velocity=76 time=0
note_on channel=0 note=64 velocity=65 time=0
note_on channel=0 note=64 velocity=0 time=160
note_on channel=0 note=68 velocity=65 time=0
note_on channel=0 note=68 velocity=0 time=0
note_on channel=0 note=76 velocity=0 time=0
note_on channel=0 note=73 velocity=65 time=0
note_on channel=0 note=64 velocity=53 time=0
note_on channel=0 note=64 velocity=0 time=160
note_on channel=0 note=68 velocity=50 time=0
note_on channel=0 note=68 velocity=0 time=0
note_on channel=0 note=73 velocity=0 time=0
note_on channel=0 note=44 velocity=0 time=0
note_on channel=0 note=32 velocity=0 time=0
note_on channel=0 note=32 velocity=52 time=0
note_on channel=0 note=44 velocity=52 time=0
note_on channel=0 note=52 velocity=52 time=75
note_on channel=0 note=52 velocity=0 time=0
note_on channel=0 note=56 velocity=52 time=0
note_on channel=0 note=56 velocity=0 time=0
note_on channel=0 note=61 velocity=61 time=0
note_on channel=0 note=52 velocity=52 time=61
note_on channel=0 note=52 velocity=0 time=0
note_on channel=0 note=56 velocity=52 time=0
note_on channel=0 note=56 velocity=0 time=0
note_on channel=0 note=61 velocity=0 time=0
note_on channel=0 note=64 velocity=75 time=0
note_on channel=0 note=52 velocity=48 time=89
note_on channel=0 note=52 velocity=0 time=160
note_on channel=0 note=56 velocity=48 time=0
note_on channel=0 note=56 velocity=0 time=0
note_on channel=0 note=64 velocity=0 time=0
note_on channel=0 note=61 velocity=65 time=0
note_on channel=0 note=52 velocity=53 time=68
note_on channel=0 note=52 velocity=0 time=0
note_on channel=0 note=56 velocity=50 time=0
note_on channel=0 note=56 velocity=0 time=0
note_on channel=0 note=61 velocity=0 time=0
note_on channel=0 note=44 velocity=0 time=0
note_on channel=0 note=32 velocity=0 time=0
note_on channel=0 note=51 velocity=65 time=0
note_on channel=0 note=44 velocity=46 time=0
note_on channel=0 note=32 velocity=46 time=0
note_on channel=0 note=51 velocity=0 time=0
note_on channel=0 note=57 velocity=52 time=0
note_on channel=0 note=57 velocity=0 time=0
note_on channel=0 note=54 velocity=52 time=0
note_on channel=0 note=54 velocity=0 time=0
note_on channel=0 note=60 velocity=53 time=0
note_on channel=0 note=60 velocity=0 time=85
note_on channel=0 note=57 velocity=52 time=0
note_on channel=0 note=57 velocity=0 time=0
note_on channel=0 note=63 velocity=52 time=0
note_on channel=0 note=63 velocity=0 time=20
note_on channel=0 note=60 velocity=52 time=0
note_on channel=0 note=60 velocity=0 time=60
note_on channel=0 note=66 velocity=52 time=0
note_on channel=0 note=66 velocity=0 time=74
note_on channel=0 note=63 velocity=52 time=0
note_on channel=0 note=63 velocity=0 time=0
note_on channel=0 note=69 velocity=52 time=0
note_on channel=0 note=69 velocity=0 time=0
note_on channel=0 note=66 velocity=52 time=0
note_on channel=0 note=66 velocity=0 time=0
note_on channel=0 note=72 velocity=52 time=0
note_on channel=0 note=72 velocity=0 time=0
note_on channel=0 note=32 velocity=0 time=0
note_on channel=0 note=44 velocity=0 time=0
note_on channel=0 note=52 velocity=65 time=0
note_on channel=0 note=44 velocity=46 time=0
note_on channel=0 note=32 velocity=46 time=0
note_on channel=0 note=52 velocity=0 time=0
note_on channel=0 note=61 velocity=52 time=0
note_on channel=0 note=61 velocity=0 time=140
note_on channel=0 note=56 velocity=52 time=0
note_on channel=0 note=56 velocity=0 time=0
note_on channel=0 note=64 velocity=48 time=0
note_on channel=0 note=64 velocity=0 time=0
note_on channel=0 note=61 velocity=52 time=0
note_on channel=0 note=61 velocity=0 time=0
note_on channel=0 note=68 velocity=52 time=0
note_on channel=0 note=68 velocity=0 time=0
note_on channel=0 note=64 velocity=53 time=0
note_on channel=0 note=64 velocity=0 time=0
note_on channel=0 note=73 velocity=52 time=0
note_on channel=0 note=73 velocity=0 time=80
note_on channel=0 note=68 velocity=52 time=0
note_on channel=0 note=68 velocity=0 time=0
note_on channel=0 note=76 velocity=53 time=0
note_on channel=0 note=76 velocity=0 time=0
note_on channel=0 note=73 velocity=52 time=0
note_on channel=0 note=73 velocity=0 time=0
note_on channel=0 note=68 velocity=52 time=0
note_on channel=0 note=68 velocity=0 time=40
note_on channel=0 note=32 velocity=0 time=0
note_on channel=0 note=44 velocity=0 time=0
note_on channel=0 note=61 velocity=65 time=0
note_on channel=0 note=32 velocity=45 time=0
note_on channel=0 note=44 velocity=45 time=0
note_on channel=0 note=61 velocity=0 time=0
note_on channel=0 note=67 velocity=55 time=0
note_on channel=0 note=67 velocity=0 time=40
note_on channel=0 note=64 velocity=55 time=0
note_on channel=0 note=64 velocity=0 time=0
note_on channel=0 note=70 velocity=56 time=0
note_on channel=0 note=70 velocity=0 time=0
note_on channel=0 note=67 velocity=56 time=0
note_on channel=0 note=67 velocity=0 time=0
note_on channel=0 note=73 velocity=62 time=0
note_on channel=0 note=73 velocity=0 time=0
note_on channel=0 note=70 velocity=62 time=0
note_on channel=0 note=70 velocity=0 time=160
note_on channel=0 note=76 velocity=68 time=0
note_on channel=0 note=76 velocity=0 time=63
note_on channel=0 note=73 velocity=67 time=0
note_on channel=0 note=73 velocity=0 time=0
note_on channel=0 note=79 velocity=71 time=0
note_on channel=0 note=79 velocity=0 time=97
note_on channel=0 note=76 velocity=68 time=0
note_on channel=0 note=76 velocity=0 time=0
note_on channel=0 note=82 velocity=68 time=0
note_on channel=0 note=82 velocity=0 time=0
note_on channel=0 note=44 velocity=0 time=0
note_on channel=0 note=32 velocity=0 time=0
note_on channel=0 note=66 velocity=76 time=0
note_on channel=0 note=32 velocity=46 time=0
note_on channel=0 note=44 velocity=46 time=0
note_on channel=0 note=66 velocity=0 time=0
note_on channel=0 note=72 velocity=72 time=0
note_on channel=0 note=72 velocity=0 time=0
note_on channel=0 note=69 velocity=70 time=0
note_on channel=0 note=69 velocity=0 time=0
note_on channel=0 note=75 velocity=78 time=0
note_on channel=0 note=75 velocity=0 time=0
note_on channel=0 note=72 velocity=76 time=0
note_on channel=0 note=72 velocity=0 time=0
note_on channel=0 note=78 velocity=82 time=0
note_on channel=0 note=78 velocity=0 time=0
note_on channel=0 note=75 velocity=80 time=0
note_on channel=0 note=75 velocity=0 time=0
note_on channel=0 note=81 velocity=83 time=0
note_on channel=0 note=81 velocity=0 time=0
note_on channel=0 note=78 velocity=81 time=0
note_on channel=0 note=78 velocity=0 time=0
note_on channel=0 note=84 velocity=88 time=0
note_on channel=0 note=84 velocity=0 time=0
note_on channel=0 note=81 velocity=83 time=0
note_on channel=0 note=81 velocity=0 time=0
note_on channel=0 note=87 velocity=92 time=0
note_on channel=0 note=87 velocity=0 time=0
note_on channel=0 note=84 velocity=97 time=0
note_on channel=0 note=84 velocity=0 time=0
note_on channel=0 note=78 velocity=90 time=0
note_on channel=0 note=78 velocity=0 time=0
note_on channel=0 note=81 velocity=82 time=0
note_on channel=0 note=81 velocity=0 time=0
note_on channel=0 note=75 velocity=90 time=0
note_on channel=0 note=75 velocity=0 time=0
note_on channel=0 note=78 velocity=83 time=0
note_on channel=0 note=78 velocity=0 time=0
note_on channel=0 note=72 velocity=90 time=0
note_on channel=0 note=72 velocity=0 time=0
note_on channel=0 note=75 velocity=82 time=0
note_on channel=0 note=75 velocity=0 time=0
note_on channel=0 note=69 velocity=90 time=0
note_on channel=0 note=69 velocity=0 time=0
note_on channel=0 note=72 velocity=82 time=0
note_on channel=0 note=72 velocity=0 time=0
note_on channel=0 note=66 velocity=90 time=0
note_on channel=0 note=66 velocity=0 time=0
note_on channel=0 note=69 velocity=82 time=0
note_on channel=0 note=69 velocity=0 time=160
note_on channel=0 note=63 velocity=88 time=0
note_on channel=0 note=63 velocity=0 time=0
note_on channel=0 note=66 velocity=82 time=0
note_on channel=0 note=66 velocity=0 time=160
note_on channel=0 note=60 velocity=87 time=0
note_on channel=0 note=60 velocity=0 time=100
note_on channel=0 note=63 velocity=81 time=0
note_on channel=0 note=63 velocity=0 time=0
note_on channel=0 note=57 velocity=85 time=0
note_on channel=0 note=57 velocity=0 time=40
note_on channel=0 note=60 velocity=77 time=0
note_on channel=0 note=60 velocity=0 time=160
note_on channel=0 note=54 velocity=85 time=0
note_on channel=0 note=54 velocity=0 time=102
note_on channel=0 note=57 velocity=80 time=0
note_on channel=0 note=57 velocity=0 time=40
note_on channel=0 note=51 velocity=82 time=0
note_on channel=0 note=54 velocity=75 time=97
note_on channel=0 note=54 velocity=0 time=160
note_on channel=0 note=51 velocity=0 time=0
note_on channel=0 note=49 velocity=83 time=0
note_on channel=0 note=54 velocity=75 time=103
note_on channel=0 note=54 velocity=0 time=0
note_on channel=0 note=57 velocity=71 time=0
note_on channel=0 note=57 velocity=0 time=0
note_on channel=0 note=49 velocity=0 time=0
note_on channel=0 note=44 velocity=0 time=0
note_on channel=0 note=32 velocity=0 time=0
note_on channel=0 note=48 velocity=80 time=0
note_on channel=0 note=32 velocity=56 time=0
note_on channel=0 note=44 velocity=56 time=0
note_on channel=0 note=54 velocity=70 time=0
note_on channel=0 note=54 velocity=0 time=0
note_on channel=0 note=56 velocity=70 time=0
note_on channel=0 note=56 velocity=0 time=0
note_on channel=0 note=57 velocity=70 time=0
note_on channel=0 note=57 velocity=0 time=40
note_on channel=0 note=56 velocity=67 time=0
note_on channel=0 note=56 velocity=0 time=160
note_on channel=0 note=54 velocity=67 time=0
note_on channel=0 note=54 velocity=0 time=0
note_on channel=0 note=48 velocity=0 time=0
note_on channel=0 note=51 velocity=78 time=0
note_on channel=0 note=54 velocity=68 time=0
note_on channel=0 note=54 velocity=0 time=160
note_on channel=0 note=57 velocity=68 time=0
note_on channel=0 note=57 velocity=0 time=160
note_on channel=0 note=51 velocity=0 time=0
note_on channel=0 note=49 velocity=78 time=0
note_on channel=0 note=54 velocity=65 time=0
note_on channel=0 note=54 velocity=0 time=0
note_on channel=0 note=57 velocity=65 time=0
note_on channel=0 note=57 velocity=0 time=0
note_on channel=0 note=49 velocity=0 time=0
note_on channel=0 note=44 velocity=0 time=0
note_on channel=0 note=32 velocity=0 time=0
note_on channel=0 note=48 velocity=77 time=0
note_on channel=0 note=32 velocity=47 time=0
note_on channel=0 note=44 velocity=47 time=0
note_on channel=0 note=54 velocity=65 time=0
note_on channel=0 note=54 velocity=0 time=160
note_on channel=0 note=56 velocity=65 time=0
note_on channel=0 note=56 velocity=0 time=0
note_on channel=0 note=57 velocity=63 time=0
note_on channel=0 note=57 velocity=0 time=40
note_on channel=0 note=56 velocity=62 time=0
note_on channel=0 note=56 velocity=0 time=0
note_on channel=0 note=54 velocity=62 time=0
note_on channel=0 note=54 velocity=0 time=0
note_on channel=0 note=48 velocity=0 time=0
note_on channel=0 note=50 velocity=78 time=0
note_on channel=0 note=54 velocity=70 time=0
note_on channel=0 note=54 velocity=0 time=0
note_on channel=0 note=57 velocity=71 time=0
note_on channel=0 note=57 velocity=0 time=0
note_on channel=0 note=50 velocity=0 time=0
note_on channel=0 note=49 velocity=76 time=0
note_on channel=0 note=54 velocity=65 time=0
note_on channel=0 note=54 velocity=0 time=0
note_on channel=0 note=57 velocity=65 time=0
note_on channel=0 note=57 velocity=0 time=0
note_on channel=0 note=49 velocity=0 time=0
note_on channel=0 note=44 velocity=0 time=0
note_on channel=0 note=32 velocity=0 time=0
note_on channel=0 note=48 velocity=78 time=0
note_on channel=0 note=32 velocity=42 time=0
note_on channel=0 note=44 velocity=42 time=0
note_on channel=0 note=54 velocity=68 time=0
note_on channel=0 note=54 velocity=0 time=0
note_on channel=0 note=56 velocity=68 time=0
note_on channel=0 note=56 velocity=0 time=0
note_on channel=0 note=57 velocity=66 time=0
note_on channel=0 note=57 velocity=0 time=0
note_on channel=0 note=56 velocity=65 time=0
note_on channel=0 note=56 velocity=0 time=160
note_on channel=0 note=54 velocity=63 time=0
note_on channel=0 note=54 velocity=0 time=0
note_on channel=0 note=48 velocity=0 time=0
note_on channel=0 note=32 velocity=0 time=0
note_on channel=0 note=44 velocity=0 time=0
note_on channel=0 note=49 velocity=68 time=0
note_on channel=0 note=45 velocity=41 time=0
note_on channel=0 note=33 velocity=41 time=0
note_on channel=0 note=49 velocity=0 time=0
note_on channel=0 note=52 velocity=63 time=0
note_on channel=0 note=52 velocity=0 time=0
note_on channel=0 note=61 velocity=62 time=0
note_on channel=0 note=61 velocity=0 time=0
note_on channel=0 note=49 velocity=68 time=0
note_on channel=0 note=49 velocity=0 time=160
note_on channel=0 note=52 velocity=62 time=0
note_on channel=0 note=52 velocity=0 time=0
note_on channel=0 note=61 velocity=62 time=0
note_on channel=0 note=61 velocity=0 time=0
note_on channel=0 note=33 velocity=0 time=0
note_on channel=0 note=45 velocity=0 time=0
note_on channel=0 note=51 velocity=76 time=0
note_on channel=0 note=30 velocity=35 time=0
note_on channel=0 note=42 velocity=35 time=0
note_on channel=0 note=51 velocity=0 time=57
note_on channel=0 note=57 velocity=65 time=0
note_on channel=0 note=57 velocity=0 time=0
note_on channel=0 note=61 velocity=61 time=0
note_on channel=0 note=61 velocity=0 time=0
note_on channel=0 note=51 velocity=65 time=0
note_on channel=0 note=51 velocity=0 time=160
note_on channel=0 note=57 velocity=57 time=0
note_on channel=0 note=57 velocity=0 time=0
note_on channel=0 note=61 velocity=56 time=0
note_on channel=0 note=61 velocity=0 time=0
note_on channel=0 note=42 velocity=0 time=0
note_on channel=0 note=30 velocity=0 time=0
note_on channel=0 note=51 velocity=60 time=0
note_on channel=0 note=44 velocity=46 time=0
note_on channel=0 note=32 velocity=46 time=0
note_on channel=0 note=51 velocity=0 time=51
note_on channel=0 note=56 velocity=52 time=0
note_on channel=0 note=56 velocity=0 time=0
note_on channel=0 note=60 velocity=52 time=0
note_on channel=0 note=60 velocity=0 time=0
note_on channel=0 note=51 velocity=47 time=0
note_on channel=0 note=51 velocity=0 time=80
note_on channel=0 note=54 velocity=45 time=0
note_on channel=0 note=54 velocity=0 time=0
note_on channel=0 note=60 velocity=40 time=0
note_on channel=0 note=60 velocity=0 time=0
note_on channel=0 note=32 velocity=0 time=0
note_on channel=0 note=44 velocity=0 time=0
note_on channel=0 note=52 velocity=41 time=0
note_on channel=0 note=37 velocity=41 time=0
note_on channel=0 note=49 velocity=41 time=0
note_on channel=0 note=44 velocity=41 time=0
note_on channel=0 note=52 velocity=0 time=40
note_on channel=0 note=56 velocity=38 time=0
note_on channel=0 note=56 velocity=0 time=20
note_on channel=0 note=61 velocity=37 time=0
note_on channel=0 note=61 velocity=0 time=0
note_on channel=0 note=56 velocity=41 time=0
note_on channel=0 note=56 velocity=0 time=0
note_on channel=0 note=61 velocity=38 time=0
note_on channel=0 note=61 velocity=0 time=0
note_on channel=0 note=64 velocity=38 time=0
note_on channel=0 note=64 velocity=0 time=0
note_on channel=0 note=56 velocity=41 time=0
note_on channel=0 note=56 velocity=0 time=0
note_on channel=0 note=61 velocity=38 time=0
note_on channel=0 note=61 velocity=0 time=0
note_on channel=0 note=64 velocity=38 time=0
note_on channel=0 note=64 velocity=0 time=0
note_on channel=0 note=68 velocity=56 time=0
note_on channel=0 note=56 velocity=41 time=0
note_on channel=0 note=56 velocity=0 time=160
note_on channel=0 note=61 velocity=37 time=0
note_on channel=0 note=61 velocity=0 time=0
note_on channel=0 note=64 velocity=33 time=0
note_on channel=0 note=68 velocity=0 time=40
note_on channel=0 note=68 velocity=56 time=0
note_on channel=0 note=68 velocity=0 time=0
note_on channel=0 note=64 velocity=0 time=0
note_on channel=0 note=44 velocity=0 time=0
note_on channel=0 note=49 velocity=0 time=0
note_on channel=0 note=37 velocity=0 time=0
note_on channel=0 note=68 velocity=56 time=0
note_on channel=0 note=56 velocity=41 time=0
note_on channel=0 note=36 velocity=46 time=0
note_on channel=0 note=48 velocity=46 time=0
note_on channel=0 note=44 velocity=46 time=0
note_on channel=0 note=56 velocity=0 time=20
note_on channel=0 note=63 velocity=37 time=0
note_on channel=0 note=63 velocity=0 time=40
note_on channel=0 note=66 velocity=37 time=0
note_on channel=0 note=66 velocity=0 time=0
note_on channel=0 note=56 velocity=40 time=0
note_on channel=0 note=56 velocity=0 time=160
note_on channel=0 note=63 velocity=38 time=0
note_on channel=0 note=63 velocity=0 time=0
note_on channel=0 note=66 velocity=38 time=0
note_on channel=0 note=66 velocity=0 time=0
note_on channel=0 note=56 velocity=41 time=0
note_on channel=0 note=56 velocity=0 time=160
note_on channel=0 note=63 velocity=38 time=0
note_on channel=0 note=63 velocity=0 time=0
note_on channel=0 note=66 velocity=37 time=0
note_on channel=0 note=66 velocity=0 time=0
note_on channel=0 note=68 velocity=0 time=0
note_on channel=0 note=68 velocity=56 time=0
note_on channel=0 note=56 velocity=41 time=0
note_on channel=0 note=56 velocity=0 time=160
note_on channel=0 note=63 velocity=38 time=0
note_on channel=0 note=63 velocity=0 time=0
note_on channel=0 note=66 velocity=35 time=0
note_on channel=0 note=68 velocity=0 time=40
note_on channel=0 note=68 velocity=56 time=0
note_on channel=0 note=68 velocity=0 time=0
note_on channel=0 note=66 velocity=0 time=0
note_on channel=0 note=44 velocity=0 time=0
note_on channel=0 note=36 velocity=0 time=0
note_on channel=0 note=48 velocity=0 time=0
note_on channel=0 note=68 velocity=56 time=0
note_on channel=0 note=56 velocity=41 time=0
note_on channel=0 note=37 velocity=46 time=0
note_on channel=0 note=49 velocity=46 time=0
note_on channel=0 note=56 velocity=0 time=0
note_on channel=0 note=61 velocity=40 time=0
note_on channel=0 note=61 velocity=0 time=160
note_on channel=0 note=64 velocity=40 time=0
note_on channel=0 note=64 velocity=0 time=0
note_on channel=0 note=56 velocity=41 time=0
note_on channel=0 note=56 velocity=0 time=160
note_on channel=0 note=61 velocity=38 time=0
note_on channel=0 note=61 velocity=0 time=0
note_on channel=0 note=64 velocity=37 time=0
note_on channel=0 note=64 velocity=0 time=0
note_on channel=0 note=49 velocity=0 time=0
note_on channel=0 note=37 velocity=0 time=0
note_on channel=0 note=68 velocity=0 time=0
note_on channel=0 note=69 velocity=56 time=0
note_on channel=0 note=57 velocity=41 time=0
note_on channel=0 note=42 velocity=46 time=0
note_on channel=0 note=30 velocity=46 time=0
note_on channel=0 note=57 velocity=0 time=68
note_on channel=0 note=61 velocity=40 time=0
note_on channel=0 note=61 velocity=0 time=0
note_on channel=0 note=66 velocity=38 time=0
note_on channel=0 note=66 velocity=0 time=0
note_on channel=0 note=57 velocity=41 time=0
note_on channel=0 note=57 velocity=0 time=160
note_on channel=0 note=61 velocity=38 time=0
note_on channel=0 note=61 velocity=0 time=0
note_on channel=0 note=66 velocity=36 time=0
note_on channel=0 note=66 velocity=0 time=0
note_on channel=0 note=30 velocity=0 time=0
note_on channel=0 note=42 velocity=0 time=0
note_on channel=0 note=69 velocity=0 time=0
note_on channel=0 note=68 velocity=56 time=0
note_on channel=0 note=56 velocity=41 time=0
note_on channel=0 note=35 velocity=46 time=0
note_on channel=0 note=47 velocity=46 time=0
note_on channel=0 note=56 velocity=0 time=0
note_on channel=0 note=59 velocity=37 time=0
note_on channel=0 note=59 velocity=0 time=160
note_on channel=0 note=64 velocity=37 time=0
note_on channel=0 note=64 velocity=0 time=0
note_on channel=0 note=56 velocity=40 time=0
note_on channel=0 note=56 velocity=0 time=0
note_on channel=0 note=59 velocity=37 time=0
note_on channel=0 note=59 velocity=0 time=0
note_on channel=0 note=64 velocity=37 time=0
note_on channel=0 note=64 velocity=0 time=0
note_on channel=0 note=47 velocity=0 time=0
note_on channel=0 note=35 velocity=0 time=0
note_on channel=0 note=68 velocity=0 time=0
note_on channel=0 note=66 velocity=56 time=0
note_on channel=0 note=57 velocity=40 time=0
note_on channel=0 note=47 velocity=46 time=0
note_on channel=0 note=35 velocity=46 time=0
note_on channel=0 note=57 velocity=0 time=68
note_on channel=0 note=59 velocity=35 time=0
note_on channel=0 note=59 velocity=0 time=0
note_on channel=0 note=63 velocity=35 time=0
note_on channel=0 note=63 velocity=0 time=0
note_on channel=0 note=66 velocity=0 time=0
note_on channel=0 note=71 velocity=56 time=0
note_on channel=0 note=57 velocity=40 time=0
note_on channel=0 note=57 velocity=0 time=160
note_on channel=0 note=59 velocity=35 time=0
note_on channel=0 note=59 velocity=0 time=0
note_on channel=0 note=63 velocity=32 time=0
note_on channel=0 note=63 velocity=0 time=0
note_on channel=0 note=35 velocity=0 time=0
note_on channel=0 note=47 velocity=0 time=0
note_on channel=0 note=71 velocity=0 time=0
note_on channel=0 note=64 velocity=56 time=0
note_on channel=0 note=56 velocity=40 time=0
note_on channel=0 note=40 velocity=45 time=0
note_on channel=0 note=52 velocity=45 time=0
note_on channel=0 note=56 velocity=0 time=0
note_on channel=0 note=59 velocity=37 time=0
note_on channel=0 note=64 velocity=0 time=150
note_on channel=0 note=59 velocity=0 time=10
note_on channel=0 note=64 velocity=37 time=0
note_on channel=0 note=64 velocity=0 time=0
note_on channel=0 note=59 velocity=40 time=0
note_on channel=0 note=59 velocity=0 time=40
note_on channel=0 note=64 velocity=37 time=0
note_on channel=0 note=64 velocity=0 time=160
note_on channel=0 note=68 velocity=37 time=0
note_on channel=0 note=68 velocity=0 time=0
note_on channel=0 note=59 velocity=40 time=0
note_on channel=0 note=59 velocity=0 time=160
note_on channel=0 note=64 velocity=37 time=0
note_on channel=0 note=64 velocity=0 time=0
note_on channel=0 note=68 velocity=37 time=0
note_on channel=0 note=68 velocity=0 time=0
note_on channel=0 note=71 velocity=61 time=0
note_on channel=0 note=59 velocity=40 time=0
note_on channel=0 note=59 velocity=0 time=160
note_on channel=0 note=64 velocity=37 time=0
note_on channel=0 note=64 velocity=0 time=0
note_on channel=0 note=68 velocity=32 time=0
note_on channel=0 note=71 velocity=0 time=40
note_on channel=0 note=71 velocity=56 time=0
note_on channel=0 note=71 velocity=0 time=0
note_on channel=0 note=68 velocity=0 time=0
note_on channel=0 note=40 velocity=0 time=0
note_on channel=0 note=52 velocity=0 time=0
note_on channel=0 note=71 velocity=61 time=0
note_on channel=0 note=59 velocity=40 time=0
note_on channel=0 note=39 velocity=35 time=0
note_on channel=0 note=51 velocity=35 time=0
note_on channel=0 note=59 velocity=0 time=75
note_on channel=0 note=66 velocity=33 time=0
note_on channel=0 note=66 velocity=0 time=0
note_on channel=0 note=69 velocity=31 time=0
note_on channel=0 note=69 velocity=0 time=0
note_on channel=0 note=59 velocity=40 time=0
note_on channel=0 note=59 velocity=0 time=0
note_on channel=0 note=66 velocity=32 time=0
note_on channel=0 note=66 velocity=0 time=20
note_on channel=0 note=69 velocity=32 time=0
note_on channel=0 note=69 velocity=0 time=60
note_on channel=0 note=59 velocity=40 time=0
note_on channel=0 note=59 velocity=0 time=100
note_on channel=0 note=66 velocity=32 time=0
note_on channel=0 note=66 velocity=0 time=0
note_on channel=0 note=69 velocity=32 time=0
note_on channel=0 note=69 velocity=0 time=0
note_on channel=0 note=71 velocity=0 time=0
note_on channel=0 note=71 velocity=63 time=0
note_on channel=0 note=59 velocity=40 time=0
note_on channel=0 note=59 velocity=0 time=160
note_on channel=0 note=66 velocity=33 time=0
note_on channel=0 note=66 velocity=0 time=0
note_on channel=0 note=69 velocity=33 time=0
note_on channel=0 note=71 velocity=0 time=40
note_on channel=0 note=71 velocity=56 time=0
note_on channel=0 note=71 velocity=0 time=0
note_on channel=0 note=69 velocity=0 time=0
note_on channel=0 note=39 velocity=0 time=0
note_on channel=0 note=51 velocity=0 time=0
note_on channel=0 note=71 velocity=63 time=0
note_on channel=0 note=59 velocity=40 time=0
note_on channel=0 note=52 velocity=37 time=0
note_on channel=0 note=40 velocity=37 time=0
note_on channel=0 note=59 velocity=0 time=74
note_on channel=0 note=64 velocity=35 time=0
note_on channel=0 note=64 velocity=0 time=160
note_on channel=0 note=68 velocity=35 time=0
note_on channel=0 note=68 velocity=0 time=0
note_on channel=0 note=59 velocity=40 time=0
note_on channel=0 note=59 velocity=0 time=160
note_on channel=0 note=64 velocity=35 time=0
note_on channel=0 note=64 velocity=0 time=0
note_on channel=0 note=68 velocity=35 time=0
note_on channel=0 note=68 velocity=0 time=0
note_on channel=0 note=40 velocity=0 time=0
note_on channel=0 note=52 velocity=0 time=0
note_on channel=0 note=71 velocity=0 time=0
note_on channel=0 note=72 velocity=65 time=0
note_on channel=0 note=60 velocity=40 time=0
note_on channel=0 note=39 velocity=37 time=0
note_on channel=0 note=51 velocity=37 time=0
note_on channel=0 note=60 velocity=0 time=80
note_on channel=0 note=66 velocity=46 time=0
note_on channel=0 note=66 velocity=0 time=160
note_on channel=0 note=68 velocity=50 time=0
note_on channel=0 note=68 velocity=0 time=0
note_on channel=0 note=72 velocity=0 time=0
note_on channel=0 note=39 velocity=0 time=0
note_on channel=0 note=51 velocity=0 time=0
note_on channel=0 note=73 velocity=72 time=0
note_on channel=0 note=61 velocity=55 time=0
note_on channel=0 note=49 velocity=40 time=0
note_on channel=0 note=37 velocity=40 time=0
note_on channel=0 note=61 velocity=0 time=0
note_on channel=0 note=64 velocity=60 time=0
note_on channel=0 note=64 velocity=0 time=0
note_on channel=0 note=68 velocity=60 time=0
note_on channel=0 note=68 velocity=0 time=0
note_on channel=0 note=73 velocity=0 time=0
note_on channel=0 note=49 velocity=0 time=0
note_on channel=0 note=37 velocity=0 time=0
note_on channel=0 note=75 velocity=75 time=0
note_on channel=0 note=63 velocity=60 time=0
note_on channel=0 note=36 velocity=45 time=0
note_on channel=0 note=48 velocity=45 time=0
note_on channel=0 note=44 velocity=45 time=0
note_on channel=0 note=63 velocity=0 time=0
note_on channel=0 note=66 velocity=52 time=0
note_on channel=0 note=66 velocity=0 time=160
note_on channel=0 note=68 velocity=52 time=0
note_on channel=0 note=68 velocity=0 time=0
note_on channel=0 note=63 velocity=53 time=0
note_on channel=0 note=63 velocity=0 time=0
note_on channel=0 note=66 velocity=50 time=0
note_on channel=0 note=66 velocity=0 time=160
note_on channel=0 note=68 velocity=50 time=0
note_on channel=0 note=68 velocity=0 time=60
note_on channel=0 note=44 velocity=0 time=0
note_on channel=0 note=75 velocity=0 time=0
note_on channel=0 note=36 velocity=0 time=0
note_on channel=0 note=48 velocity=0 time=0
note_on channel=0 note=76 velocity=56 time=0
note_on channel=0 note=64 velocity=48 time=0
note_on channel=0 note=37 velocity=38 time=0
note_on channel=0 note=49 velocity=38 time=0
note_on channel=0 note=44 velocity=38 time=0
note_on channel=0 note=64 velocity=0 time=47
note_on channel=0 note=68 velocity=40 time=0
note_on channel=0 note=68 velocity=0 time=160
note_on channel=0 note=73 velocity=40 time=0
note_on channel=0 note=73 velocity=0 time=0
note_on channel=0 note=64 velocity=40 time=0
note_on channel=0 note=64 velocity=0 time=0
note_on channel=0 note=68 velocity=33 time=0
note_on channel=0 note=68 velocity=0 time=0
note_on channel=0 note=73 velocity=33 time=0
note_on channel=0 note=73 velocity=0 time=0
note_on channel=0 note=44 velocity=0 time=0
note_on channel=0 note=76 velocity=0 time=0
note_on channel=0 note=37 velocity=0 time=0
note_on channel=0 note=49 velocity=0 time=0
note_on channel=0 note=74 velocity=56 time=0
note_on channel=0 note=62 velocity=40 time=0
note_on channel=0 note=30 velocity=41 time=0
note_on channel=0 note=42 velocity=41 time=0
note_on channel=0 note=62 velocity=0 time=0
note_on channel=0 note=66 velocity=37 time=0
note_on channel=0 note=66 velocity=0 time=160
note_on channel=0 note=69 velocity=37 time=0
note_on channel=0 note=69 velocity=0 time=0
note_on channel=0 note=62 velocity=40 time=0
note_on channel=0 note=62 velocity=0 time=160
note_on channel=0 note=66 velocity=37 time=0
note_on channel=0 note=66 velocity=0 time=0
note_on channel=0 note=69 velocity=37 time=0
note_on channel=0 note=69 velocity=0 time=0
note_on channel=0 note=42 velocity=0 time=0
note_on channel=0 note=30 velocity=0 time=0
note_on channel=0 note=74 velocity=0 time=0
note_on channel=0 note=72 velocity=56 time=0
note_on channel=0 note=60 velocity=40 time=0
note_on channel=0 note=32 velocity=41 time=0
note_on channel=0 note=44 velocity=41 time=0
note_on channel=0 note=60 velocity=0 time=45
note_on channel=0 note=66 velocity=37 time=0
note_on channel=0 note=66 velocity=0 time=160
note_on channel=0 note=68 velocity=37 time=0
note_on channel=0 note=68 velocity=0 time=0
note_on channel=0 note=60 velocity=40 time=0
note_on channel=0 note=60 velocity=0 time=0
note_on channel=0 note=66 velocity=37 time=0
note_on channel=0 note=66 velocity=0 time=0
note_on channel=0 note=68 velocity=35 time=0
note_on channel=0 note=68 velocity=0 time=0
note_on channel=0 note=44 velocity=0 time=0
note_on channel=0 note=32 velocity=0 time=0
note_on channel=0 note=72 velocity=0 time=0
note_on channel=0 note=73 velocity=56 time=0
note_on channel=0 note=61 velocity=40 time=0
note_on channel=0 note=49 velocity=38 time=0
note_on channel=0 note=37 velocity=38 time=0
note_on channel=0 note=61 velocity=0 time=0
note_on channel=0 note=64 velocity=33 time=0
note_on channel=0 note=64 velocity=0 time=0
note_on channel=0 note=68 velocity=30 time=0
note_on channel=0 note=68 velocity=0 time=0
note_on channel=0 note=61 velocity=40 time=0
note_on channel=0 note=61 velocity=0 time=0
note_on channel=0 note=64 velocity=33 time=0
note_on channel=0 note=64 velocity=0 time=0
note_on channel=0 note=68 velocity=31 time=0
note_on channel=0 note=68 velocity=0 time=0
note_on channel=0 note=61 velocity=40 time=0
note_on channel=0 note=61 velocity=0 time=63
note_on channel=0 note=65 velocity=33 time=0
note_on channel=0 note=65 velocity=0 time=0
note_on channel=0 note=68 velocity=33 time=0
note_on channel=0 note=68 velocity=0 time=0
note_on channel=0 note=73 velocity=0 time=0
note_on channel=0 note=73 velocity=56 time=0
note_on channel=0 note=61 velocity=40 time=0
note_on channel=0 note=61 velocity=0 time=0
note_on channel=0 note=65 velocity=31 time=0
note_on channel=0 note=65 velocity=0 time=0
note_on channel=0 note=68 velocity=30 time=0
note_on channel=0 note=68 velocity=0 time=0
note_on channel=0 note=73 velocity=0 time=0
note_on channel=0 note=74 velocity=71 time=0
note_on channel=0 note=61 velocity=40 time=0
note_on channel=0 note=61 velocity=0 time=0
note_on channel=0 note=66 velocity=42 time=0
note_on channel=0 note=66 velocity=0 time=0
note_on channel=0 note=69 velocity=40 time=0
note_on channel=0 note=69 velocity=0 time=0
note_on channel=0 note=37 velocity=0 time=0
note_on channel=0 note=49 velocity=0 time=0
note_on channel=0 note=61 velocity=46 time=0
note_on channel=0 note=54 velocity=47 time=0
note_on channel=0 note=42 velocity=47 time=0
note_on channel=0 note=61 velocity=0 time=0
note_on channel=0 note=66 velocity=47 time=0
note_on channel=0 note=66 velocity=0 time=0
note_on channel=0 note=69 velocity=47 time=0
note_on channel=0 note=69 velocity=0 time=0
note_on channel=0 note=42 velocity=0 time=0
note_on channel=0 note=54 velocity=0 time=0
note_on channel=0 note=61 velocity=53 time=0
note_on channel=0 note=45 velocity=56 time=0
note_on channel=0 note=57 velocity=56 time=0
note_on channel=0 note=61 velocity=0 time=0
note_on channel=0 note=66 velocity=55 time=0
note_on channel=0 note=66 velocity=0 time=0
note_on channel=0 note=69 velocity=53 time=0
note_on channel=0 note=69 velocity=0 time=0
note_on channel=0 note=74 velocity=0 time=0
note_on channel=0 note=45 velocity=0 time=0
note_on channel=0 note=57 velocity=0 time=0
note_on channel=0 note=72 velocity=56 time=0
note_on channel=0 note=61 velocity=61 time=0
note_on channel=0 note=54 velocity=50 time=0
note_on channel=0 note=42 velocity=50 time=0
note_on channel=0 note=61 velocity=0 time=0
note_on channel=0 note=66 velocity=60 time=0
note_on channel=0 note=66 velocity=0 time=0
note_on channel=0 note=69 velocity=52 time=0
note_on channel=0 note=69 velocity=0 time=0
note_on channel=0 note=72 velocity=0 time=0
note_on channel=0 note=54 velocity=0 time=0
note_on channel=0 note=42 velocity=0 time=0
note_on channel=0 note=73 velocity=56 time=0
note_on channel=0 note=61 velocity=45 time=0
note_on channel=0 note=37 velocity=41 time=0
note_on channel=0 note=49 velocity=41 time=0
note_on channel=0 note=61 velocity=0 time=63
note_on channel=0 note=65 velocity=37 time=0
note_on channel=0 note=65 velocity=0 time=0
note_on channel=0 note=68 velocity=36 time=0
note_on channel=0 note=68 velocity=0 time=0
note_on channel=0 note=61 velocity=40 time=0
note_on channel=0 note=61 velocity=0 time=160
note_on channel=0 note=65 velocity=35 time=0
note_on channel=0 note=65 velocity=0 time=160
note_on channel=0 note=68 velocity=35 time=0
note_on channel=0 note=68 velocity=0 time=0
note_on channel=0 note=61 velocity=40 time=0
note_on channel=0 note=61 velocity=0 time=160
note_on channel=0 note=65 velocity=33 time=0
note_on channel=0 note=65 velocity=0 time=160
note_on channel=0 note=68 velocity=33 time=0
note_on channel=0 note=68 velocity=0 time=0
note_on channel=0 note=73 velocity=0 time=0
note_on channel=0 note=73 velocity=56 time=0
note_on channel=0 note=61 velocity=40 time=0
note_on channel=0 note=61 velocity=0 time=160
note_on channel=0 note=65 velocity=33 time=0
note_on channel=0 note=65 velocity=0 time=0
note_on channel=0 note=68 velocity=28 time=0
note_on channel=0 note=68 velocity=0 time=0
note_on channel=0 note=73 velocity=0 time=0
note_on channel=0 note=74 velocity=68 time=0
note_on channel=0 note=61 velocity=40 time=0
note_on channel=0 note=61 velocity=0 time=0
note_on channel=0 note=66 velocity=42 time=0
note_on channel=0 note=66 velocity=0 time=160
note_on channel=0 note=69 velocity=46 time=0
note_on channel=0 note=69 velocity=0 time=0
note_on channel=0 note=49 velocity=0 time=0
note_on channel=0 note=37 velocity=0 time=0
note_on channel=0 note=61 velocity=47 time=0
note_on channel=0 note=42 velocity=48 time=0
note_on channel=0 note=54 velocity=48 time=0
note_on channel=0 note=61 velocity=0 time=160
note_on channel=0 note=66 velocity=48 time=0
note_on channel=0 note=66 velocity=0 time=0
note_on channel=0 note=69 velocity=55 time=0
note_on channel=0 note=69 velocity=0 time=0
note_on channel=0 note=54 velocity=0 time=0
note_on channel=0 note=42 velocity=0 time=0
note_on channel=0 note=61 velocity=57 time=0
note_on channel=0 note=57 velocity=57 time=0
note_on channel=0 note=45 velocity=57 time=0
note_on channel=0 note=61 velocity=0 time=160
note_on channel=0 note=66 velocity=56 time=0
note_on channel=0 note=66 velocity=0 time=0
note_on channel=0 note=69 velocity=55 time=0
note_on channel=0 note=69 velocity=0 time=0
note_on channel=0 note=74 velocity=0 time=0
note_on channel=0 note=57 velocity=0 time=0
note_on channel=0 note=45 velocity=0 time=0
note_on channel=0 note=72 velocity=56 time=0
note_on channel=0 note=61 velocity=61 time=0
note_on channel=0 note=42 velocity=48 time=0
note_on channel=0 note=54 velocity=48 time=0
note_on channel=0 note=61 velocity=0 time=160
note_on channel=0 note=66 velocity=55 time=0
note_on channel=0 note=66 velocity=0 time=0
note_on channel=0 note=69 velocity=37 time=0
note_on channel=0 note=69 velocity=0 time=0
note_on channel=0 note=72 velocity=0 time=0
note_on channel=0 note=42 velocity=0 time=0
note_on channel=0 note=54 velocity=0 time=0
note_on channel=0 note=73 velocity=61 time=0
note_on channel=0 note=61 velocity=46 time=0
note_on channel=0 note=49 velocity=40 time=0
note_on channel=0 note=37 velocity=40 time=0
note_on channel=0 note=61 velocity=0 time=80
note_on channel=0 note=65 velocity=38 time=0
note_on channel=0 note=65 velocity=0 time=0
note_on channel=0 note=68 velocity=38 time=0
note_on channel=0 note=68 velocity=0 time=0
note_on channel=0 note=61 velocity=40 time=0
note_on channel=0 note=61 velocity=0 time=160
note_on channel=0 note=65 velocity=37 time=0
note_on channel=0 note=65 velocity=0 time=0
note_on channel=0 note=68 velocity=37 time=0
note_on channel=0 note=68 velocity=0 time=0
note_on channel=0 note=37 velocity=0 time=0
note_on channel=0 note=49 velocity=0 time=0
note_on channel=0 note=73 velocity=0 time=0
note_on channel=0 note=73 velocity=56 time=0
note_on channel=0 note=61 velocity=42 time=0
note_on channel=0 note=30 velocity=42 time=0
note_on channel=0 note=42 velocity=42 time=0
note_on channel=0 note=61 velocity=0 time=0
note_on channel=0 note=66 velocity=37 time=0
note_on channel=0 note=66 velocity=0 time=160
note_on channel=0 note=69 velocity=37 time=0
note_on channel=0 note=69 velocity=0 time=0
note_on channel=0 note=61 velocity=40 time=0
note_on channel=0 note=61 velocity=0 time=160
note_on channel=0 note=66 velocity=37 time=0
note_on channel=0 note=66 velocity=0 time=0
note_on channel=0 note=69 velocity=37 time=0
note_on channel=0 note=69 velocity=0 time=0
note_on channel=0 note=42 velocity=0 time=0
note_on channel=0 note=30 velocity=0 time=0
note_on channel=0 note=73 velocity=0 time=0
note_on channel=0 note=71 velocity=56 time=0
note_on channel=0 note=59 velocity=47 time=0
note_on channel=0 note=39 velocity=45 time=0
note_on channel=0 note=51 velocity=45 time=0
note_on channel=0 note=59 velocity=0 time=0
note_on channel=0 note=66 velocity=40 time=0
note_on channel=0 note=66 velocity=0 time=160
note_on channel=0 note=69 velocity=40 time=0
note_on channel=0 note=69 velocity=0 time=0
note_on channel=0 note=59 velocity=40 time=0
note_on channel=0 note=59 velocity=0 time=160
note_on channel=0 note=66 velocity=38 time=0
note_on channel=0 note=66 velocity=0 time=0
note_on channel=0 note=69 velocity=37 time=0
note_on channel=0 note=69 velocity=0 time=0
note_on channel=0 note=59 velocity=40 time=0
note_on channel=0 note=59 velocity=0 time=160
note_on channel=0 note=66 velocity=38 time=0
note_on channel=0 note=66 velocity=0 time=0
note_on channel=0 note=69 velocity=37 time=0
note_on channel=0 note=69 velocity=0 time=0
note_on channel=0 note=71 velocity=0 time=0
note_on channel=0 note=39 velocity=0 time=0
note_on channel=0 note=51 velocity=0 time=0
note_on channel=0 note=71 velocity=56 time=0
note_on channel=0 note=59 velocity=40 time=0
note_on channel=0 note=40 velocity=41 time=0
note_on channel=0 note=52 velocity=41 time=0
note_on channel=0 note=59 velocity=0 time=0
note_on channel=0 note=64 velocity=38 time=0
note_on channel=0 note=64 velocity=0 time=0
note_on channel=0 note=68 velocity=33 time=0
note_on channel=0 note=68 velocity=0 time=0
note_on channel=0 note=71 velocity=0 time=0
note_on channel=0 note=40 velocity=0 time=0
note_on channel=0 note=52 velocity=0 time=0
note_on channel=0 note=69 velocity=56 time=0
note_on channel=0 note=57 velocity=40 time=0
note_on channel=0 note=37 velocity=46 time=0
note_on channel=0 note=49 velocity=46 time=0
note_on channel=0 note=57 velocity=0 time=0
note_on channel=0 note=64 velocity=37 time=0
note_on channel=0 note=64 velocity=0 time=0
note_on channel=0 note=68 velocity=37 time=0
note_on channel=0 note=68 velocity=0 time=0
note_on channel=0 note=69 velocity=0 time=0
note_on channel=0 note=37 velocity=0 time=0
note_on channel=0 note=49 velocity=0 time=0
note_on channel=0 note=69 velocity=56 time=0
note_on channel=0 note=57 velocity=40 time=0
note_on channel=0 note=39 velocity=40 time=0
note_on channel=0 note=51 velocity=40 time=0
note_on channel=0 note=57 velocity=0 time=61
note_on channel=0 note=63 velocity=37 time=0
note_on channel=0 note=63 velocity=0 time=0
note_on channel=0 note=66 velocity=37 time=0
note_on channel=0 note=66 velocity=0 time=0
note_on channel=0 note=69 velocity=0 time=0
note_on channel=0 note=39 velocity=0 time=0
note_on channel=0 note=51 velocity=0 time=0
note_on channel=0 note=68 velocity=56 time=0
note_on channel=0 note=56 velocity=40 time=0
note_on channel=0 note=48 velocity=46 time=0
note_on channel=0 note=36 velocity=46 time=0
note_on channel=0 note=56 velocity=0 time=68
note_on channel=0 note=63 velocity=37 time=0
note_on channel=0 note=63 velocity=0 time=0
note_on channel=0 note=66 velocity=37 time=0
note_on channel=0 note=66 velocity=0 time=0
note_on channel=0 note=68 velocity=0 time=0
note_on channel=0 note=48 velocity=0 time=0
note_on channel=0 note=36 velocity=0 time=0
note_on channel=0 note=68 velocity=56 time=0
note_on channel=0 note=56 velocity=40 time=0
note_on channel=0 note=49 velocity=40 time=0
note_on channel=0 note=37 velocity=40 time=0
note_on channel=0 note=56 velocity=0 time=75
note_on channel=0 note=61 velocity=37 time=0
note_on channel=0 note=61 velocity=0 time=0
note_on channel=0 note=64 velocity=37 time=0
note_on channel=0 note=64 velocity=0 time=0
note_on channel=0 note=68 velocity=0 time=0
note_on channel=0 note=49 velocity=0 time=0
note_on channel=0 note=37 velocity=0 time=0
note_on channel=0 note=66 velocity=56 time=0
note_on channel=0 note=54 velocity=40 time=0
note_on channel=0 note=33 velocity=46 time=0
note_on channel=0 note=45 velocity=46 time=0
note_on channel=0 note=54 velocity=0 time=0
note_on channel=0 note=61 velocity=42 time=0
note_on channel=0 note=61 velocity=0 time=160
note_on channel=0 note=63 velocity=46 time=0
note_on channel=0 note=63 velocity=0 time=160
note_on channel=0 note=54 velocity=46 time=0
note_on channel=0 note=54 velocity=0 time=160
note_on channel=0 note=61 velocity=47 time=0
note_on channel=0 note=61 velocity=0 time=0
note_on channel=0 note=63 velocity=50 time=0
note_on channel=0 note=63 velocity=0 time=0
note_on channel=0 note=45 velocity=0 time=0
note_on channel=0 note=33 velocity=0 time=0
note_on channel=0 note=66 velocity=0 time=0
note_on channel=0 note=68 velocity=67 time=0
note_on channel=0 note=56 velocity=53 time=0
note_on channel=0 note=32 velocity=50 time=0
note_on channel=0 note=44 velocity=50 time=0
note_on channel=0 note=56 velocity=0 time=68
note_on channel=0 note=61 velocity=53 time=0
note_on channel=0 note=61 velocity=0 time=0
note_on channel=0 note=63 velocity=53 time=0
note_on channel=0 note=63 velocity=0 time=0
note_on channel=0 note=68 velocity=0 time=0
note_on channel=0 note=32 velocity=0 time=0
note_on channel=0 note=44 velocity=0 time=0
note_on channel=0 note=69 velocity=77 time=0
note_on channel=0 note=57 velocity=60 time=0
note_on channel=0 note=42 velocity=57 time=0
note_on channel=0 note=30 velocity=57 time=0
note_on channel=0 note=57 velocity=0 time=68
note_on channel=0 note=61 velocity=57 time=0
note_on channel=0 note=61 velocity=0 time=0
note_on channel=0 note=63 velocity=55 time=0
note_on channel=0 note=63 velocity=0 time=0
note_on channel=0 note=69 velocity=0 time=0
note_on channel=0 note=42 velocity=0 time=0
note_on channel=0 note=30 velocity=0 time=0
note_on channel=0 note=68 velocity=56 time=0
note_on channel=0 note=56 velocity=40 time=0
note_on channel=0 note=32 velocity=46 time=0
note_on channel=0 note=44 velocity=46 time=0
note_on channel=0 note=56 velocity=0 time=0
note_on channel=0 note=61 velocity=37 time=0
note_on channel=0 note=61 velocity=0 time=0
note_on channel=0 note=64 velocity=35 time=0
note_on channel=0 note=64 velocity=0 time=0
note_on channel=0 note=56 velocity=40 time=0
note_on channel=0 note=56 velocity=0 time=0
note_on channel=0 note=61 velocity=37 time=0
note_on channel=0 note=61 velocity=0 time=160
note_on channel=0 note=64 velocity=37 time=0
note_on channel=0 note=64 velocity=0 time=0
note_on channel=0 note=44 velocity=0 time=0
note_on channel=0 note=32 velocity=0 time=0
note_on channel=0 note=68 velocity=0 time=0
note_on channel=0 note=68 velocity=47 time=0
note_on channel=0 note=54 velocity=40 time=0
note_on channel=0 note=32 velocity=46 time=0
note_on channel=0 note=44 velocity=46 time=0
note_on channel=0 note=54 velocity=0 time=68
note_on channel=0 note=60 velocity=35 time=0
note_on channel=0 note=60 velocity=0 time=0
note_on channel=0 note=63 velocity=31 time=0
note_on channel=0 note=63 velocity=0 time=0
note_on channel=0 note=54 velocity=30 time=0
note_on channel=0 note=54 velocity=0 time=68
note_on channel=0 note=60 velocity=26 time=0
note_on channel=0 note=60 velocity=0 time=0
note_on channel=0 note=63 velocity=26 time=0
note_on channel=0 note=63 velocity=0 time=0
note_on channel=0 note=44 velocity=0 time=0
note_on channel=0 note=32 velocity=0 time=0
note_on channel=0 note=68 velocity=0 time=0
note_on channel=0 note=44 velocity=53 time=0
note_on channel=0 note=61 velocity=41 time=0
note_on channel=0 note=52 velocity=37 time=0
note_on channel=0 note=37 velocity=37 time=0
note_on channel=0 note=52 velocity=0 time=0
note_on channel=0 note=56 velocity=32 time=0
note_on channel=0 note=56 velocity=0 time=0
note_on channel=0 note=61 velocity=32 time=0
note_on channel=0 note=61 velocity=0 time=0
note_on channel=0 note=61 velocity=0 time=0
note_on channel=0 note=56 velocity=37 time=0
note_on channel=0 note=56 velocity=0 time=0
note_on channel=0 note=61 velocity=32 time=0
note_on channel=0 note=61 velocity=0 time=0
note_on channel=0 note=64 velocity=32 time=0
note_on channel=0 note=64 velocity=0 time=0
note_on channel=0 note=56 velocity=37 time=0
note_on channel=0 note=56 velocity=0 time=160
note_on channel=0 note=61 velocity=31 time=0
note_on channel=0 note=61 velocity=0 time=160
note_on channel=0 note=64 velocity=31 time=0
note_on channel=0 note=64 velocity=0 time=0
note_on channel=0 note=44 velocity=0 time=0
note_on channel=0 note=44 velocity=53 time=0
note_on channel=0 note=56 velocity=37 time=0
note_on channel=0 note=56 velocity=0 time=160
note_on channel=0 note=61 velocity=30 time=0
note_on channel=0 note=61 velocity=0 time=0
note_on channel=0 note=64 velocity=30 time=0
note_on channel=0 note=44 velocity=0 time=40
note_on channel=0 note=44 velocity=53 time=0
note_on channel=0 note=44 velocity=0 time=0
note_on channel=0 note=64 velocity=0 time=0
note_on channel=0 note=37 velocity=0 time=0
note_on channel=0 note=44 velocity=53 time=0
note_on channel=0 note=56 velocity=37 time=0
note_on channel=0 note=36 velocity=37 time=0
note_on channel=0 note=56 velocity=0 time=20
note_on channel=0 note=63 velocity=33 time=0
note_on channel=0 note=63 velocity=0 time=40
note_on channel=0 note=66 velocity=33 time=0
note_on channel=0 note=66 velocity=0 time=0
note_on channel=0 note=56 velocity=37 time=0
note_on channel=0 note=56 velocity=0 time=160
note_on channel=0 note=63 velocity=30 time=0
note_on channel=0 note=63 velocity=0 time=160
note_on channel=0 note=66 velocity=30 time=0
note_on channel=0 note=66 velocity=0 time=0
note_on channel=0 note=56 velocity=37 time=0
note_on channel=0 note=56 velocity=0 time=160
note_on channel=0 note=63 velocity=30 time=0
note_on channel=0 note=63 velocity=0 time=160
note_on channel=0 note=66 velocity=30 time=0
note_on channel=0 note=66 velocity=0 time=0
note_on channel=0 note=44 velocity=0 time=0
note_on channel=0 note=44 velocity=53 time=0
note_on channel=0 note=56 velocity=37 time=0
note_on channel=0 note=56 velocity=0 time=160
note_on channel=0 note=63 velocity=30 time=0
note_on channel=0 note=63 velocity=0 time=0
note_on channel=0 note=66 velocity=30 time=0
note_on channel=0 note=44 velocity=0 time=40
note_on channel=0 note=44 velocity=53 time=0
note_on channel=0 note=44 velocity=0 time=0
note_on channel=0 note=66 velocity=0 time=0
note_on channel=0 note=36 velocity=0 time=0
note_on channel=0 note=44 velocity=53 time=0
note_on channel=0 note=56 velocity=37 time=0
note_on channel=0 note=37 velocity=37 time=0
note_on channel=0 note=56 velocity=0 time=0
note_on channel=0 note=64 velocity=35 time=0
note_on channel=0 note=64 velocity=0 time=20
note_on channel=0 note=61 velocity=40 time=0
note_on channel=0 note=61 velocity=0 time=0
note_on channel=0 note=68 velocity=45 time=0
note_on channel=0 note=68 velocity=0 time=160
note_on channel=0 note=64 velocity=48 time=0
note_on channel=0 note=64 velocity=0 time=160
note_on channel=0 note=73 velocity=50 time=0
note_on channel=0 note=73 velocity=0 time=0
note_on channel=0 note=68 velocity=48 time=0
note_on channel=0 note=68 velocity=0 time=160
note_on channel=0 note=76 velocity=53 time=0
note_on channel=0 note=76 velocity=0 time=160
note_on channel=0 note=73 velocity=60 time=0
note_on channel=0 note=73 velocity=0 time=0
note_on channel=0 note=44 velocity=0 time=0
note_on channel=0 note=44 velocity=53 time=0
note_on channel=0 note=80 velocity=62 time=0
note_on channel=0 note=80 velocity=0 time=160
note_on channel=0 note=76 velocity=65 time=0
note_on channel=0 note=76 velocity=0 time=0
note_on channel=0 note=73 velocity=71 time=0
note_on channel=0 note=44 velocity=0 time=40
note_on channel=0 note=44 velocity=60 time=0
note_on channel=0 note=44 velocity=0 time=0
note_on channel=0 note=73 velocity=0 time=0
note_on channel=0 note=37 velocity=0 time=0
note_on channel=0 note=44 velocity=63 time=0
note_on channel=0 note=72 velocity=75 time=0
note_on channel=0 note=32 velocity=37 time=0
note_on channel=0 note=72 velocity=0 time=0
note_on channel=0 note=75 velocity=75 time=0
note_on channel=0 note=75 velocity=0 time=20
note_on channel=0 note=69 velocity=75 time=0
note_on channel=0 note=69 velocity=0 time=0
note_on channel=0 note=72 velocity=70 time=0
note_on channel=0 note=72 velocity=0 time=0
note_on channel=0 note=66 velocity=65 time=0
note_on channel=0 note=66 velocity=0 time=0
note_on channel=0 note=69 velocity=63 time=0
note_on channel=0 note=69 velocity=0 time=160
note_on channel=0 note=63 velocity=61 time=0
note_on channel=0 note=63 velocity=0 time=160
note_on channel=0 note=66 velocity=57 time=0
note_on channel=0 note=66 velocity=0 time=0
note_on channel=0 note=57 velocity=52 time=0
note_on channel=0 note=44 velocity=0 time=0
note_on channel=0 note=44 velocity=62 time=0
note_on channel=0 note=60 velocity=50 time=0
note_on channel=0 note=57 velocity=0 time=0
note_on channel=0 note=56 velocity=47 time=0
note_on channel=0 note=56 velocity=0 time=0
note_on channel=0 note=54 velocity=47 time=0
note_on channel=0 note=44 velocity=0 time=40
note_on channel=0 note=44 velocity=60 time=0
note_on channel=0 note=44 velocity=0 time=0
note_on channel=0 note=54 velocity=0 time=0
note_on channel=0 note=32 velocity=0 time=0
note_on channel=0 note=60 velocity=0 time=0
note_on channel=0 note=44 velocity=53 time=0
note_on channel=0 note=52 velocity=42 time=0
note_on channel=0 note=61 velocity=42 time=0
note_on channel=0 note=37 velocity=37 time=0
note_on channel=0 note=61 velocity=0 time=0
note_on channel=0 note=52 velocity=0 time=0
note_on channel=0 note=64 velocity=40 time=0
note_on channel=0 note=64 velocity=0 time=160
note_on channel=0 note=61 velocity=45 time=0
note_on channel=0 note=61 velocity=0 time=0
note_on channel=0 note=68 velocity=48 time=0
note_on channel=0 note=68 velocity=0 time=0
note_on channel=0 note=64 velocity=53 time=0
note_on channel=0 note=64 velocity=0 time=160
note_on channel=0 note=73 velocity=60 time=0
note_on channel=0 note=73 velocity=0 time=160
note_on channel=0 note=68 velocity=61 time=0
note_on channel=0 note=68 velocity=0 time=160
note_on channel=0 note=76 velocity=63 time=0
note_on channel=0 note=76 velocity=0 time=0
note_on channel=0 note=73 velocity=65 time=0
note_on channel=0 note=73 velocity=0 time=0
note_on channel=0 note=44 velocity=0 time=0
note_on channel=0 note=44 velocity=53 time=0
note_on channel=0 note=80 velocity=67 time=0
note_on channel=0 note=80 velocity=0 time=0
note_on channel=0 note=76 velocity=68 time=0
note_on channel=0 note=76 velocity=0 time=0
note_on channel=0 note=73 velocity=70 time=0
note_on channel=0 note=44 velocity=0 time=40
note_on channel=0 note=44 velocity=56 time=0
note_on channel=0 note=44 velocity=0 time=0
note_on channel=0 note=73 velocity=0 time=0
note_on channel=0 note=37 velocity=0 time=0
note_on channel=0 note=44 velocity=63 time=0
note_on channel=0 note=72 velocity=75 time=0
note_on channel=0 note=32 velocity=37 time=0
note_on channel=0 note=72 velocity=0 time=0
note_on channel=0 note=75 velocity=68 time=0
note_on channel=0 note=75 velocity=0 time=160
note_on channel=0 note=69 velocity=65 time=0
note_on channel=0 note=69 velocity=0 time=0
note_on channel=0 note=72 velocity=61 time=0
note_on channel=0 note=72 velocity=0 time=0
note_on channel=0 note=66 velocity=60 time=0
note_on channel=0 note=66 velocity=0 time=0
note_on channel=0 note=69 velocity=53 time=0
note_on channel=0 note=69 velocity=0 time=0
note_on channel=0 note=63 velocity=50 time=0
note_on channel=0 note=63 velocity=0 time=0
note_on channel=0 note=66 velocity=48 time=0
note_on channel=0 note=66 velocity=0 time=0
note_on channel=0 note=57 velocity=46 time=0
note_on channel=0 note=44 velocity=0 time=0
note_on channel=0 note=44 velocity=61 time=0
note_on channel=0 note=60 velocity=41 time=0
note_on channel=0 note=57 velocity=0 time=160
note_on channel=0 note=56 velocity=37 time=0
note_on channel=0 note=56 velocity=0 time=0
note_on channel=0 note=54 velocity=35 time=0
note_on channel=0 note=44 velocity=0 time=40
note_on channel=0 note=44 velocity=53 time=0
note_on channel=0 note=44 velocity=0 time=0
note_on channel=0 note=54 velocity=0 time=0
note_on channel=0 note=32 velocity=0 time=0
note_on channel=0 note=60 velocity=0 time=0
note_on channel=0 note=44 velocity=53 time=0
note_on channel=0 note=61 velocity=50 time=0
note_on channel=0 note=52 velocity=50 time=0
note_on channel=0 note=37 velocity=37 time=0
note_on channel=0 note=52 velocity=0 time=0
note_on channel=0 note=61 velocity=0 time=0
note_on channel=0 note=56 velocity=50 time=0
note_on channel=0 note=56 velocity=0 time=0
note_on channel=0 note=61 velocity=50 time=0
note_on channel=0 note=61 velocity=0 time=160
note_on channel=0 note=64 velocity=48 time=0
note_on channel=0 note=64 velocity=0 time=160
note_on channel=0 note=61 velocity=48 time=0
note_on channel=0 note=61 velocity=0 time=160
note_on channel=0 note=56 velocity=47 time=0
note_on channel=0 note=56 velocity=0 time=160
note_on channel=0 note=44 velocity=0 time=0
note_on channel=0 note=49 velocity=53 time=0
note_on channel=0 note=52 velocity=47 time=68
note_on channel=0 note=52 velocity=0 time=0
note_on channel=0 note=56 velocity=47 time=0
note_on channel=0 note=56 velocity=0 time=160
note_on channel=0 note=61 velocity=47 time=0
note_on channel=0 note=61 velocity=0 time=160
note_on channel=0 note=56 velocity=46 time=0
note_on channel=0 note=56 velocity=0 time=0
note_on channel=0 note=52 velocity=46 time=0
note_on channel=0 note=52 velocity=0 time=0
note_on channel=0 note=49 velocity=0 time=0
note_on channel=0 note=44 velocity=50 time=0
note_on channel=0 note=49 velocity=45 time=0
note_on channel=0 note=52 velocity=45 time=140
note_on channel=0 note=49 velocity=0 time=0
note_on channel=0 note=52 velocity=0 time=140
note_on channel=0 note=56 velocity=42 time=0
note_on channel=0 note=56 velocity=0 time=160
note_on channel=0 note=52 velocity=42 time=0
note_on channel=0 note=52 velocity=0 time=160
note_on channel=0 note=49 velocity=41 time=0
note_on channel=0 note=44 velocity=0 time=155
note_on channel=0 note=49 velocity=0 time=5
note_on channel=0 note=37 velocity=0 time=0
note_on channel=0 note=44 velocity=41 time=0
note_on channel=0 note=44 velocity=0 time=40
note_on channel=0 note=49 velocity=41 time=0
note_on channel=0 note=49 velocity=0 time=160
note_on channel=0 note=44 velocity=40 time=0
note_on channel=0 note=44 velocity=0 time=0
note_on channel=0 note=40 velocity=40 time=0
note_on channel=0 note=40 velocity=0 time=0
note_on channel=0 note=44 velocity=38 time=0
note_on channel=0 note=44 velocity=0 time=0
note_on channel=0 note=40 velocity=37 time=0
note_on channel=0 note=40 velocity=0 time=0
note_on channel=0 note=37 velocity=38 time=0
note_on channel=0 note=37 velocity=0 time=960
note_on channel=0 note=61 velocity=37 time=0
note_on channel=0 note=52 velocity=31 time=0
note_on channel=0 note=56 velocity=31 time=0
note_on channel=0 note=44 velocity=26 time=0
note_on channel=0 note=49 velocity=31 time=0
note_on channel=0 note=37 velocity=26 time=0
note_on channel=0 note=37 velocity=0 time=8
note_on channel=0 note=52 velocity=0 time=0
note_on channel=0 note=56 velocity=0 time=0
note_on channel=0 note=61 velocity=0 time=0
note_on channel=0 note=49 velocity=0 time=0
note_on channel=0 note=44 velocity=0 time=0
note_on channel=0 note=61 velocity=37 time=0
note_on channel=0 note=52 velocity=31 time=0
note_on channel=0 note=56 velocity=31 time=0
note_on channel=0 note=44 velocity=26 time=0
note_on channel=0 note=49 velocity=31 time=0
note_on channel=0 note=37 velocity=26 time=0
note_on channel=0 note=37 velocity=0 time=480
note_on channel=0 note=52 velocity=0 time=0
note_on channel=0 note=56 velocity=0 time=0
note_on channel=0 note=61 velocity=0 time=0
note_on channel=0 note=49 velocity=0 time=0
note_on channel=0 note=44 velocity=0 time=0
