note_on channel=0 note=51 velocity=79 time=0
note_on channel=0 note=55 velocity=79 time=0
note_on channel=0 note=60 velocity=93 time=0
note_on channel=0 note=36 velocity=70 time=0
note_on channel=0 note=39 velocity=70 time=0
note_on channel=0 note=43 velocity=70 time=0
note_on channel=0 note=48 velocity=81 time=0
note_on channel=0 note=48 velocity=0 time=1320
note_on channel=0 note=39 velocity=0 time=0
note_on channel=0 note=55 velocity=0 time=0
note_on channel=0 note=60 velocity=0 time=0
note_on channel=0 note=51 velocity=0 time=0
note_on channel=0 note=43 velocity=0 time=0
note_on channel=0 note=36 velocity=0 time=0
note_on channel=0 note=55 velocity=40 time=0
note_on channel=0 note=60 velocity=47 time=0
note_on channel=0 note=51 velocity=36 time=0
note_on channel=0 note=51 velocity=0 time=120
note_on channel=0 note=60 velocity=0 time=0
note_on channel=0 note=55 velocity=0 time=0
note_on channel=0 note=55 velocity=42 time=0
note_on channel=0 note=59 velocity=42 time=0
note_on channel=0 note=62 velocity=50 time=0
note_on channel=0 note=50 velocity=41 time=0
note_on channel=0 note=50 velocity=0 time=0
note_on channel=0 note=55 velocity=0 time=0
note_on channel=0 note=59 velocity=0 time=0
note_on channel=0 note=62 velocity=0 time=0
note_on channel=0 note=55 velocity=39 time=0
note_on channel=0 note=60 velocity=46 time=0
note_on channel=0 note=63 velocity=46 time=0
note_on channel=0 note=48 velocity=36 time=0
note_on channel=0 note=48 velocity=0 time=108
note_on channel=0 note=55 velocity=0 time=0
note_on channel=0 note=60 velocity=0 time=0
note_on channel=0 note=63 velocity=0 time=0
note_on channel=0 note=57 velocity=42 time=0
note_on channel=0 note=60 velocity=50 time=0
note_on channel=0 note=63 velocity=50 time=0
note_on channel=0 note=54 velocity=39 time=0
note_on channel=0 note=54 velocity=0 time=0
note_on channel=0 note=57 velocity=0 time=0
note_on channel=0 note=60 velocity=0 time=0
note_on channel=0 note=63 velocity=0 time=0
note_on channel=0 note=59 velocity=29 time=0
note_on channel=0 note=62 velocity=36 time=0
note_on channel=0 note=55 velocity=25 time=0
note_on channel=0 note=55 velocity=0 time=480
note_on channel=0 note=62 velocity=0 time=0
note_on channel=0 note=59 velocity=0 time=0
note_on channel=0 note=44 velocity=89 time=360
note_on channel=0 note=44 velocity=0 time=120
note_on channel=0 note=59 velocity=91 time=0
note_on channel=0 note=62 velocity=91 time=0
note_on channel=0 note=65 velocity=104 time=0
note_on channel=0 note=56 velocity=93 time=0
note_on channel=0 note=56 velocity=0 time=1320
note_on channel=0 note=59 velocity=0 time=0
note_on channel=0 note=62 velocity=0 time=0
note_on channel=0 note=65 velocity=0 time=0
note_on channel=0 note=62 velocity=42 time=0
note_on channel=0 note=59 velocity=42 time=0
note_on channel=0 note=65 velocity=50 time=0
note_on channel=0 note=56 velocity=38 time=0
note_on channel=0 note=56 velocity=0 time=108
note_on channel=0 note=62 velocity=0 time=0
note_on channel=0 note=59 velocity=0 time=0
note_on channel=0 note=65 velocity=0 time=0
note_on channel=0 note=59 velocity=44 time=12
note_on channel=0 note=62 velocity=44 time=0
note_on channel=0 note=67 velocity=53 time=0
note_on channel=0 note=55 velocity=43 time=0
note_on channel=0 note=55 velocity=0 time=0
note_on channel=0 note=59 velocity=0 time=0
note_on channel=0 note=62 velocity=0 time=0
note_on channel=0 note=67 velocity=0 time=0
note_on channel=0 note=62 velocity=49 time=0
note_on channel=0 note=68 velocity=49 time=0
note_on channel=0 note=59 velocity=41 time=0
note_on channel=0 note=53 velocity=38 time=0
note_on channel=0 note=53 velocity=0 time=108
note_on channel=0 note=62 velocity=0 time=0
note_on channel=0 note=68 velocity=0 time=0
note_on channel=0 note=59 velocity=0 time=0
note_on channel=0 note=68 velocity=53 time=0
note_on channel=0 note=59 velocity=44 time=0
note_on channel=0 note=62 velocity=53 time=0
note_on channel=0 note=51 velocity=37 time=0
note_on channel=0 note=62 velocity=0 time=0
note_on channel=0 note=68 velocity=0 time=0
note_on channel=0 note=59 velocity=0 time=0
note_on channel=0 note=60 velocity=31 time=0
note_on channel=0 note=67 velocity=38 time=0
note_on channel=0 note=63 velocity=31 time=0
note_on channel=0 note=63 velocity=0 time=480
note_on channel=0 note=51 velocity=0 time=0
note_on channel=0 note=60 velocity=0 time=0
note_on channel=0 note=67 velocity=0 time=0
note_on channel=0 note=51 velocity=86 time=360
note_on channel=0 note=51 velocity=0 time=120
note_on channel=0 note=66 velocity=88 time=0
note_on channel=0 note=69 velocity=88 time=0
note_on channel=0 note=72 velocity=102 time=0
note_on channel=0 note=63 velocity=91 time=0
note_on channel=0 note=63 velocity=0 time=1320
note_on channel=0 note=66 velocity=0 time=0
note_on channel=0 note=69 velocity=0 time=0
note_on channel=0 note=72 velocity=0 time=0
note_on channel=0 note=69 velocity=49 time=0
note_on channel=0 note=66 velocity=49 time=0
note_on channel=0 note=72 velocity=58 time=0
note_on channel=0 note=63 velocity=45 time=0
note_on channel=0 note=63 velocity=0 time=108
note_on channel=0 note=69 velocity=0 time=0
note_on channel=0 note=66 velocity=0 time=0
note_on channel=0 note=72 velocity=0 time=0
note_on channel=0 note=66 velocity=54 time=0
note_on channel=0 note=69 velocity=54 time=0
note_on channel=0 note=74 velocity=64 time=0
note_on channel=0 note=62 velocity=52 time=0
note_on channel=0 note=62 velocity=0 time=0
note_on channel=0 note=66 velocity=0 time=0
note_on channel=0 note=69 velocity=0 time=0
note_on channel=0 note=74 velocity=0 time=0
note_on channel=0 note=69 velocity=67 time=0
note_on channel=0 note=75 velocity=67 time=0
note_on channel=0 note=66 velocity=57 time=0
note_on channel=0 note=60 velocity=52 time=0
note_on channel=0 note=60 velocity=0 time=108
note_on channel=0 note=69 velocity=0 time=0
note_on channel=0 note=75 velocity=0 time=0
note_on channel=0 note=66 velocity=0 time=0
note_on channel=0 note=75 velocity=74 time=0
note_on channel=0 note=66 velocity=62 time=0
note_on channel=0 note=69 velocity=62 time=0
note_on channel=0 note=60 velocity=65 time=0
note_on channel=0 note=60 velocity=0 time=0
note_on channel=0 note=75 velocity=0 time=0
note_on channel=0 note=66 velocity=0 time=0
note_on channel=0 note=69 velocity=0 time=0
note_on channel=0 note=62 velocity=35 time=0
note_on channel=0 note=74 velocity=42 time=0
note_on channel=0 note=67 velocity=35 time=0
note_on channel=0 note=59 velocity=35 time=0
note_on channel=0 note=59 velocity=0 time=120
note_on channel=0 note=62 velocity=0 time=0
note_on channel=0 note=74 velocity=0 time=0
note_on channel=0 note=67 velocity=0 time=0
note_on channel=0 note=69 velocity=51 time=240
note_on channel=0 note=66 velocity=51 time=0
note_on channel=0 note=72 velocity=60 time=0
note_on channel=0 note=63 velocity=47 time=0
note_on channel=0 note=63 velocity=0 time=108
note_on channel=0 note=69 velocity=0 time=0
note_on channel=0 note=66 velocity=0 time=0
note_on channel=0 note=72 velocity=0 time=0
note_on channel=0 note=66 velocity=56 time=0
note_on channel=0 note=69 velocity=56 time=0
note_on channel=0 note=74 velocity=67 time=0
note_on channel=0 note=62 velocity=54 time=0
note_on channel=0 note=62 velocity=0 time=360
note_on channel=0 note=66 velocity=0 time=0
note_on channel=0 note=69 velocity=0 time=0
note_on channel=0 note=74 velocity=0 time=0
note_on channel=0 note=69 velocity=70 time=0
note_on channel=0 note=75 velocity=70 time=0
note_on channel=0 note=66 velocity=59 time=0
note_on channel=0 note=60 velocity=54 time=0
note_on channel=0 note=60 velocity=0 time=108
note_on channel=0 note=69 velocity=0 time=0
note_on channel=0 note=75 velocity=0 time=0
note_on channel=0 note=66 velocity=0 time=0
note_on channel=0 note=75 velocity=77 time=0
note_on channel=0 note=66 velocity=65 time=0
note_on channel=0 note=69 velocity=65 time=0
note_on channel=0 note=60 velocity=71 time=0
note_on channel=0 note=60 velocity=0 time=0
note_on channel=0 note=75 velocity=0 time=0
note_on channel=0 note=66 velocity=0 time=0
note_on channel=0 note=69 velocity=0 time=0
note_on channel=0 note=67 velocity=47 time=0
note_on channel=0 note=74 velocity=55 time=0
note_on channel=0 note=59 velocity=43 time=0
note_on channel=0 note=62 velocity=51 time=0
note_on channel=0 note=62 velocity=0 time=0
note_on channel=0 note=67 velocity=0 time=0
note_on channel=0 note=74 velocity=0 time=0
note_on channel=0 note=59 velocity=0 time=0
note_on channel=0 note=67 velocity=53 time=0
note_on channel=0 note=72 velocity=53 time=0
note_on channel=0 note=76 velocity=63 time=0
note_on channel=0 note=64 velocity=57 time=0
note_on channel=0 note=58 velocity=48 time=0
note_on channel=0 note=60 velocity=48 time=0
note_on channel=0 note=60 velocity=0 time=0
note_on channel=0 note=72 velocity=0 time=0
note_on channel=0 note=76 velocity=0 time=0
note_on channel=0 note=67 velocity=0 time=0
note_on channel=0 note=58 velocity=0 time=0
note_on channel=0 note=64 velocity=0 time=0
note_on channel=0 note=68 velocity=58 time=0
note_on channel=0 note=72 velocity=58 time=0
note_on channel=0 note=77 velocity=70 time=0
note_on channel=0 note=65 velocity=64 time=0
note_on channel=0 note=60 velocity=53 time=0
note_on channel=0 note=56 velocity=53 time=0
note_on channel=0 note=56 velocity=0 time=240
note_on channel=0 note=72 velocity=0 time=0
note_on channel=0 note=77 velocity=0 time=0
note_on channel=0 note=68 velocity=0 time=0
note_on channel=0 note=60 velocity=0 time=0
note_on channel=0 note=65 velocity=0 time=0
note_on channel=0 note=80 velocity=84 time=0
note_on channel=0 note=34 velocity=84 time=0
note_on channel=0 note=46 velocity=84 time=0
note_on channel=0 note=80 velocity=0 time=0
note_on channel=0 note=79 velocity=61 time=0
note_on channel=0 note=79 velocity=0 time=0
note_on channel=0 note=80 velocity=63 time=0
note_on channel=0 note=80 velocity=0 time=40
note_on channel=0 note=82 velocity=65 time=0
note_on channel=0 note=82 velocity=0 time=20
note_on channel=0 note=80 velocity=67 time=0
note_on channel=0 note=80 velocity=0 time=0
note_on channel=0 note=79 velocity=67 time=0
note_on channel=0 note=79 velocity=0 time=20
note_on channel=0 note=77 velocity=67 time=0
note_on channel=0 note=77 velocity=0 time=0
note_on channel=0 note=75 velocity=67 time=0
note_on channel=0 note=75 velocity=0 time=20
note_on channel=0 note=74 velocity=67 time=0
note_on channel=0 note=74 velocity=0 time=0
note_on channel=0 note=72 velocity=67 time=0
note_on channel=0 note=72 velocity=0 time=20
note_on channel=0 note=70 velocity=67 time=0
note_on channel=0 note=70 velocity=0 time=0
note_on channel=0 note=68 velocity=63 time=0
note_on channel=0 note=68 velocity=0 time=7
note_on channel=0 note=67 velocity=62 time=0
note_on channel=0 note=67 velocity=0 time=14
note_on channel=0 note=65 velocity=60 time=0
note_on channel=0 note=65 velocity=0 time=1
note_on channel=0 note=63 velocity=59 time=0
note_on channel=0 note=63 velocity=0 time=8
note_on channel=0 note=62 velocity=58 time=0
note_on channel=0 note=62 velocity=0 time=15
note_on channel=0 note=65 velocity=57 time=0
note_on channel=0 note=65 velocity=0 time=2
note_on channel=0 note=68 velocity=55 time=0
note_on channel=0 note=68 velocity=0 time=9
note_on channel=0 note=65 velocity=54 time=0
note_on channel=0 note=65 velocity=0 time=16
note_on channel=0 note=62 velocity=53 time=0
note_on channel=0 note=62 velocity=0 time=0
note_on channel=0 note=46 velocity=0 time=0
note_on channel=0 note=34 velocity=0 time=0
note_on channel=0 note=63 velocity=50 time=0
note_on channel=0 note=39 velocity=45 time=0
note_on channel=0 note=51 velocity=50 time=0
note_on channel=0 note=51 velocity=0 time=228
note_on channel=0 note=39 velocity=0 time=0
note_on channel=0 note=63 velocity=0 time=12
note_on channel=0 note=51 velocity=22 time=0
note_on channel=0 note=55 velocity=27 time=0
note_on channel=0 note=58 velocity=32 time=0
note_on channel=0 note=58 velocity=0 time=228
note_on channel=0 note=55 velocity=0 time=0
note_on channel=0 note=51 velocity=0 time=0
note_on channel=0 note=63 velocity=46 time=12
note_on channel=0 note=75 velocity=55 time=0
note_on channel=0 note=51 velocity=22 time=0
note_on channel=0 note=55 velocity=27 time=0
note_on channel=0 note=58 velocity=32 time=0
note_on channel=0 note=58 velocity=0 time=228
note_on channel=0 note=51 velocity=0 time=0
note_on channel=0 note=55 velocity=0 time=0
note_on channel=0 note=51 velocity=22 time=12
note_on channel=0 note=55 velocity=27 time=0
note_on channel=0 note=58 velocity=32 time=0
note_on channel=0 note=58 velocity=0 time=228
note_on channel=0 note=51 velocity=0 time=0
note_on channel=0 note=55 velocity=0 time=0
note_on channel=0 note=51 velocity=22 time=12
note_on channel=0 note=55 velocity=27 time=0
note_on channel=0 note=58 velocity=32 time=0
note_on channel=0 note=58 velocity=0 time=228
note_on channel=0 note=51 velocity=0 time=0
note_on channel=0 note=55 velocity=0 time=0
note_on channel=0 note=51 velocity=22 time=12
note_on channel=0 note=55 velocity=27 time=0
note_on channel=0 note=58 velocity=32 time=0
note_on channel=0 note=75 velocity=0 time=120
note_on channel=0 note=63 velocity=0 time=0
note_on channel=0 note=63 velocity=46 time=0
note_on channel=0 note=75 velocity=55 time=0
note_on channel=0 note=55 velocity=0 time=108
note_on channel=0 note=58 velocity=0 time=0
note_on channel=0 note=51 velocity=0 time=0
note_on channel=0 note=63 velocity=0 time=12
note_on channel=0 note=75 velocity=0 time=0
note_on channel=0 note=65 velocity=48 time=0
note_on channel=0 note=77 velocity=57 time=0
note_on channel=0 note=51 velocity=22 time=0
note_on channel=0 note=55 velocity=27 time=0
note_on channel=0 note=58 velocity=32 time=0
note_on channel=0 note=58 velocity=0 time=228
note_on channel=0 note=51 velocity=0 time=0
note_on channel=0 note=55 velocity=0 time=0
note_on channel=0 note=51 velocity=22 time=12
note_on channel=0 note=55 velocity=27 time=0
note_on channel=0 note=58 velocity=32 time=0
note_on channel=0 note=77 velocity=0 time=0
note_on channel=0 note=65 velocity=0 time=0
note_on channel=0 note=67 velocity=49 time=0
note_on channel=0 note=79 velocity=59 time=0
note_on channel=0 note=55 velocity=0 time=108
note_on channel=0 note=58 velocity=0 time=0
note_on channel=0 note=51 velocity=0 time=0
note_on channel=0 note=67 velocity=0 time=6
note_on channel=0 note=79 velocity=0 time=0
note_on channel=0 note=67 velocity=49 time=0
note_on channel=0 note=79 velocity=59 time=0
note_on channel=0 note=51 velocity=23 time=0
note_on channel=0 note=56 velocity=27 time=0
note_on channel=0 note=60 velocity=33 time=0
note_on channel=0 note=60 velocity=0 time=228
note_on channel=0 note=51 velocity=0 time=0
note_on channel=0 note=56 velocity=0 time=0
note_on channel=0 note=51 velocity=24 time=12
note_on channel=0 note=56 velocity=28 time=0
note_on channel=0 note=60 velocity=34 time=0
note_on channel=0 note=60 velocity=0 time=228
note_on channel=0 note=51 velocity=0 time=0
note_on channel=0 note=56 velocity=0 time=0
note_on channel=0 note=79 velocity=0 time=12
note_on channel=0 note=67 velocity=0 time=0
note_on channel=0 note=65 velocity=42 time=0
note_on channel=0 note=77 velocity=50 time=0
note_on channel=0 note=51 velocity=24 time=0
note_on channel=0 note=56 velocity=28 time=0
note_on channel=0 note=60 velocity=34 time=0
note_on channel=0 note=60 velocity=0 time=228
note_on channel=0 note=51 velocity=0 time=0
note_on channel=0 note=56 velocity=0 time=0
note_on channel=0 note=77 velocity=0 time=12
note_on channel=0 note=65 velocity=0 time=0
note_on channel=0 note=51 velocity=24 time=0
note_on channel=0 note=56 velocity=28 time=0
note_on channel=0 note=60 velocity=34 time=0
note_on channel=0 note=65 velocity=90 time=120
note_on channel=0 note=60 velocity=0 time=108
note_on channel=0 note=51 velocity=0 time=0
note_on channel=0 note=56 velocity=0 time=0
note_on channel=0 note=65 velocity=0 time=0
note_on channel=0 note=53 velocity=81 time=0
note_on channel=0 note=56 velocity=81 time=0
note_on channel=0 note=59 velocity=81 time=0
note_on channel=0 note=65 velocity=96 time=0
note_on channel=0 note=38 velocity=68 time=0
note_on channel=0 note=50 velocity=81 time=0
note_on channel=0 note=50 velocity=0 time=228
note_on channel=0 note=38 velocity=0 time=0
note_on channel=0 note=38 velocity=68 time=12
note_on channel=0 note=50 velocity=81 time=0
note_on channel=0 note=59 velocity=0 time=120
note_on channel=0 note=65 velocity=0 time=0
note_on channel=0 note=53 velocity=0 time=0
note_on channel=0 note=56 velocity=0 time=0
note_on channel=0 note=53 velocity=74 time=0
note_on channel=0 note=56 velocity=74 time=0
note_on channel=0 note=59 velocity=74 time=0
note_on channel=0 note=65 velocity=89 time=0
note_on channel=0 note=50 velocity=0 time=108
note_on channel=0 note=38 velocity=0 time=0
note_on channel=0 note=59 velocity=0 time=6
note_on channel=0 note=56 velocity=0 time=0
note_on channel=0 note=65 velocity=0 time=0
note_on channel=0 note=53 velocity=0 time=0
note_on channel=0 note=53 velocity=79 time=6
note_on channel=0 note=56 velocity=79 time=0
note_on channel=0 note=60 velocity=79 time=0
note_on channel=0 note=65 velocity=93 time=0
note_on channel=0 note=36 velocity=68 time=0
note_on channel=0 note=48 velocity=81 time=0
note_on channel=0 note=48 velocity=0 time=228
note_on channel=0 note=36 velocity=0 time=0
note_on channel=0 note=36 velocity=68 time=12
note_on channel=0 note=48 velocity=81 time=0
note_on channel=0 note=60 velocity=0 time=0
note_on channel=0 note=65 velocity=0 time=0
note_on channel=0 note=53 velocity=0 time=0
note_on channel=0 note=56 velocity=0 time=0
note_on channel=0 note=53 velocity=79 time=0
note_on channel=0 note=56 velocity=79 time=0
note_on channel=0 note=60 velocity=79 time=0
note_on channel=0 note=65 velocity=93 time=0
note_on channel=0 note=48 velocity=0 time=108
note_on channel=0 note=36 velocity=0 time=0
note_on channel=0 note=60 velocity=0 time=6
note_on channel=0 note=56 velocity=0 time=0
note_on channel=0 note=65 velocity=0 time=0
note_on channel=0 note=53 velocity=0 time=0
note_on channel=0 note=53 velocity=79 time=0
note_on channel=0 note=56 velocity=79 time=0
note_on channel=0 note=62 velocity=79 time=0
note_on channel=0 note=65 velocity=93 time=0
note_on channel=0 note=35 velocity=68 time=0
note_on channel=0 note=47 velocity=81 time=0
note_on channel=0 note=47 velocity=0 time=228
note_on channel=0 note=35 velocity=0 time=0
note_on channel=0 note=47 velocity=18 time=12
note_on channel=0 note=50 velocity=18 time=0
note_on channel=0 note=53 velocity=23 time=0
note_on channel=0 note=56 velocity=28 time=0
note_on channel=0 note=56 velocity=0 time=228
note_on channel=0 note=53 velocity=0 time=0
note_on channel=0 note=47 velocity=0 time=0
note_on channel=0 note=50 velocity=0 time=0
note_on channel=0 note=65 velocity=0 time=12
note_on channel=0 note=62 velocity=0 time=0
note_on channel=0 note=56 velocity=0 time=0
note_on channel=0 note=53 velocity=0 time=0
note_on channel=0 note=65 velocity=46 time=0
note_on channel=0 note=77 velocity=55 time=0
note_on channel=0 note=47 velocity=18 time=0
note_on channel=0 note=50 velocity=18 time=0
note_on channel=0 note=53 velocity=23 time=0
note_on channel=0 note=56 velocity=28 time=0
note_on channel=0 note=56 velocity=0 time=228
note_on channel=0 note=50 velocity=0 time=0
note_on channel=0 note=47 velocity=0 time=0
note_on channel=0 note=53 velocity=0 time=0
note_on channel=0 note=47 velocity=18 time=12
note_on channel=0 note=50 velocity=18 time=0
note_on channel=0 note=53 velocity=23 time=0
note_on channel=0 note=56 velocity=28 time=0
note_on channel=0 note=56 velocity=0 time=228
note_on channel=0 note=50 velocity=0 time=0
note_on channel=0 note=47 velocity=0 time=0
note_on channel=0 note=53 velocity=0 time=0
note_on channel=0 note=46 velocity=18 time=12
note_on channel=0 note=50 velocity=18 time=0
note_on channel=0 note=53 velocity=23 time=0
note_on channel=0 note=56 velocity=28 time=0
note_on channel=0 note=56 velocity=0 time=228
note_on channel=0 note=50 velocity=0 time=0
note_on channel=0 note=46 velocity=0 time=0
note_on channel=0 note=53 velocity=0 time=0
note_on channel=0 note=46 velocity=18 time=12
note_on channel=0 note=50 velocity=18 time=0
note_on channel=0 note=53 velocity=23 time=0
note_on channel=0 note=56 velocity=28 time=0
note_on channel=0 note=65 velocity=0 time=120
note_on channel=0 note=77 velocity=0 time=0
note_on channel=0 note=65 velocity=46 time=0
note_on channel=0 note=77 velocity=55 time=0
note_on channel=0 note=53 velocity=0 time=108
note_on channel=0 note=46 velocity=0 time=0
note_on channel=0 note=50 velocity=0 time=0
note_on channel=0 note=56 velocity=0 time=0
note_on channel=0 note=77 velocity=0 time=12
note_on channel=0 note=65 velocity=0 time=0
note_on channel=0 note=67 velocity=48 time=0
note_on channel=0 note=79 velocity=57 time=0
note_on channel=0 note=46 velocity=18 time=0
note_on channel=0 note=50 velocity=18 time=0
note_on channel=0 note=53 velocity=23 time=0
note_on channel=0 note=56 velocity=28 time=0
note_on channel=0 note=56 velocity=0 time=228
note_on channel=0 note=50 velocity=0 time=0
note_on channel=0 note=46 velocity=0 time=0
note_on channel=0 note=53 velocity=0 time=0
note_on channel=0 note=46 velocity=18 time=12
note_on channel=0 note=50 velocity=18 time=0
note_on channel=0 note=53 velocity=23 time=0
note_on channel=0 note=56 velocity=28 time=0
note_on channel=0 note=67 velocity=0 time=0
note_on channel=0 note=79 velocity=0 time=0
note_on channel=0 note=68 velocity=49 time=0
note_on channel=0 note=80 velocity=59 time=0
note_on channel=0 note=53 velocity=0 time=108
note_on channel=0 note=46 velocity=0 time=0
note_on channel=0 note=50 velocity=0 time=0
note_on channel=0 note=56 velocity=0 time=0
note_on channel=0 note=80 velocity=0 time=6
note_on channel=0 note=68 velocity=0 time=0
note_on channel=0 note=68 velocity=49 time=0
note_on channel=0 note=80 velocity=59 time=0
note_on channel=0 note=46 velocity=19 time=0
note_on channel=0 note=49 velocity=19 time=0
note_on channel=0 note=52 velocity=24 time=0
note_on channel=0 note=55 velocity=28 time=0
note_on channel=0 note=55 velocity=0 time=228
note_on channel=0 note=49 velocity=0 time=0
note_on channel=0 note=46 velocity=0 time=0
note_on channel=0 note=52 velocity=0 time=0
note_on channel=0 note=46 velocity=19 time=12
note_on channel=0 note=49 velocity=19 time=0
note_on channel=0 note=52 velocity=25 time=0
note_on channel=0 note=55 velocity=29 time=0
note_on channel=0 note=55 velocity=0 time=228
note_on channel=0 note=49 velocity=0 time=0
note_on channel=0 note=46 velocity=0 time=0
note_on channel=0 note=52 velocity=0 time=0
note_on channel=0 note=80 velocity=0 time=12
note_on channel=0 note=68 velocity=0 time=0
note_on channel=0 note=67 velocity=46 time=0
note_on channel=0 note=79 velocity=55 time=0
note_on channel=0 note=46 velocity=19 time=0
note_on channel=0 note=49 velocity=19 time=0
note_on channel=0 note=52 velocity=25 time=0
note_on channel=0 note=55 velocity=29 time=0
note_on channel=0 note=55 velocity=0 time=228
note_on channel=0 note=49 velocity=0 time=0
note_on channel=0 note=46 velocity=0 time=0
note_on channel=0 note=52 velocity=0 time=0
note_on channel=0 note=67 velocity=0 time=12
note_on channel=0 note=79 velocity=0 time=0
note_on channel=0 note=46 velocity=19 time=0
note_on channel=0 note=49 velocity=19 time=0
note_on channel=0 note=52 velocity=25 time=0
note_on channel=0 note=55 velocity=29 time=0
note_on channel=0 note=55 velocity=75 time=120
note_on channel=0 note=61 velocity=75 time=0
note_on channel=0 note=64 velocity=75 time=0
note_on channel=0 note=67 velocity=90 time=0
note_on channel=0 note=55 velocity=0 time=108
note_on channel=0 note=52 velocity=0 time=0
note_on channel=0 note=46 velocity=0 time=0
note_on channel=0 note=49 velocity=0 time=0
note_on channel=0 note=55 velocity=0 time=0
note_on channel=0 note=67 velocity=0 time=0
note_on channel=0 note=61 velocity=0 time=0
note_on channel=0 note=64 velocity=0 time=0
note_on channel=0 note=57 velocity=81 time=0
note_on channel=0 note=61 velocity=81 time=0
note_on channel=0 note=63 velocity=81 time=0
note_on channel=0 note=69 velocity=96 time=0
note_on channel=0 note=33 velocity=68 time=0
note_on channel=0 note=45 velocity=81 time=0
note_on channel=0 note=45 velocity=0 time=228
note_on channel=0 note=33 velocity=0 time=0
note_on channel=0 note=33 velocity=68 time=12
note_on channel=0 note=45 velocity=81 time=0
note_on channel=0 note=63 velocity=0 time=120
note_on channel=0 note=69 velocity=0 time=0
note_on channel=0 note=57 velocity=0 time=0
note_on channel=0 note=61 velocity=0 time=0
note_on channel=0 note=57 velocity=74 time=0
note_on channel=0 note=61 velocity=74 time=0
note_on channel=0 note=63 velocity=74 time=0
note_on channel=0 note=69 velocity=89 time=0
note_on channel=0 note=45 velocity=0 time=108
note_on channel=0 note=33 velocity=0 time=0
note_on channel=0 note=63 velocity=0 time=6
note_on channel=0 note=61 velocity=0 time=0
note_on channel=0 note=69 velocity=0 time=0
note_on channel=0 note=57 velocity=0 time=0
note_on channel=0 note=58 velocity=79 time=6
note_on channel=0 note=61 velocity=79 time=0
note_on channel=0 note=63 velocity=79 time=0
note_on channel=0 note=70 velocity=93 time=0
note_on channel=0 note=31 velocity=68 time=0
note_on channel=0 note=43 velocity=81 time=0
note_on channel=0 note=43 velocity=0 time=228
note_on channel=0 note=31 velocity=0 time=0
note_on channel=0 note=31 velocity=68 time=12
note_on channel=0 note=43 velocity=81 time=0
note_on channel=0 note=63 velocity=0 time=120
note_on channel=0 note=70 velocity=0 time=0
note_on channel=0 note=58 velocity=0 time=0
note_on channel=0 note=61 velocity=0 time=0
note_on channel=0 note=58 velocity=79 time=0
note_on channel=0 note=61 velocity=79 time=0
note_on channel=0 note=63 velocity=79 time=0
note_on channel=0 note=70 velocity=93 time=0
note_on channel=0 note=43 velocity=0 time=108
note_on channel=0 note=31 velocity=0 time=0
note_on channel=0 note=63 velocity=0 time=6
note_on channel=0 note=61 velocity=0 time=0
note_on channel=0 note=70 velocity=0 time=0
note_on channel=0 note=58 velocity=0 time=0
note_on channel=0 note=57 velocity=79 time=0
note_on channel=0 note=62 velocity=79 time=0
note_on channel=0 note=66 velocity=79 time=0
note_on channel=0 note=69 velocity=93 time=0
note_on channel=0 note=30 velocity=68 time=0
note_on channel=0 note=42 velocity=81 time=0
note_on channel=0 note=42 velocity=0 time=228
note_on channel=0 note=30 velocity=0 time=0
note_on channel=0 note=54 velocity=24 time=12
note_on channel=0 note=57 velocity=28 time=0
note_on channel=0 note=62 velocity=34 time=0
note_on channel=0 note=62 velocity=0 time=228
note_on channel=0 note=54 velocity=0 time=0
note_on channel=0 note=57 velocity=0 time=0
note_on channel=0 note=69 velocity=0 time=12
note_on channel=0 note=57 velocity=0 time=0
note_on channel=0 note=62 velocity=0 time=0
note_on channel=0 note=66 velocity=0 time=0
note_on channel=0 note=69 velocity=46 time=0
note_on channel=0 note=81 velocity=55 time=0
note_on channel=0 note=54 velocity=24 time=0
note_on channel=0 note=57 velocity=28 time=0
note_on channel=0 note=62 velocity=34 time=0
note_on channel=0 note=62 velocity=0 time=228
note_on channel=0 note=54 velocity=0 time=0
note_on channel=0 note=57 velocity=0 time=0
note_on channel=0 note=54 velocity=24 time=12
note_on channel=0 note=57 velocity=28 time=0
note_on channel=0 note=62 velocity=34 time=0
note_on channel=0 note=62 velocity=0 time=228
note_on channel=0 note=54 velocity=0 time=0
note_on channel=0 note=57 velocity=0 time=0
note_on channel=0 note=54 velocity=24 time=12
note_on channel=0 note=57 velocity=28 time=0
note_on channel=0 note=62 velocity=34 time=0
note_on channel=0 note=62 velocity=0 time=228
note_on channel=0 note=54 velocity=0 time=0
note_on channel=0 note=57 velocity=0 time=0
note_on channel=0 note=54 velocity=24 time=12
note_on channel=0 note=57 velocity=28 time=0
note_on channel=0 note=62 velocity=34 time=0
note_on channel=0 note=81 velocity=0 time=120
note_on channel=0 note=69 velocity=0 time=0
note_on channel=0 note=69 velocity=46 time=0
note_on channel=0 note=81 velocity=55 time=0
note_on channel=0 note=57 velocity=0 time=108
note_on channel=0 note=62 velocity=0 time=0
note_on channel=0 note=54 velocity=0 time=0
note_on channel=0 note=69 velocity=0 time=12
note_on channel=0 note=81 velocity=0 time=0
note_on channel=0 note=71 velocity=48 time=0
note_on channel=0 note=83 velocity=57 time=0
note_on channel=0 note=54 velocity=24 time=0
note_on channel=0 note=57 velocity=28 time=0
note_on channel=0 note=62 velocity=34 time=0
note_on channel=0 note=62 velocity=0 time=228
note_on channel=0 note=54 velocity=0 time=0
note_on channel=0 note=57 velocity=0 time=0
note_on channel=0 note=54 velocity=24 time=12
note_on channel=0 note=57 velocity=28 time=0
note_on channel=0 note=62 velocity=34 time=0
note_on channel=0 note=83 velocity=0 time=0
note_on channel=0 note=71 velocity=0 time=0
note_on channel=0 note=72 velocity=49 time=0
note_on channel=0 note=84 velocity=59 time=0
note_on channel=0 note=57 velocity=0 time=108
note_on channel=0 note=62 velocity=0 time=0
note_on channel=0 note=54 velocity=0 time=0
note_on channel=0 note=72 velocity=0 time=6
note_on channel=0 note=84 velocity=0 time=0
note_on channel=0 note=72 velocity=49 time=0
note_on channel=0 note=84 velocity=59 time=0
note_on channel=0 note=53 velocity=25 time=0
note_on channel=0 note=56 velocity=29 time=0
note_on channel=0 note=62 velocity=35 time=0
note_on channel=0 note=62 velocity=0 time=228
note_on channel=0 note=53 velocity=0 time=0
note_on channel=0 note=56 velocity=0 time=0
note_on channel=0 note=53 velocity=25 time=12
note_on channel=0 note=56 velocity=30 time=0
note_on channel=0 note=62 velocity=36 time=0
note_on channel=0 note=62 velocity=0 time=228
note_on channel=0 note=53 velocity=0 time=0
note_on channel=0 note=56 velocity=0 time=0
note_on channel=0 note=84 velocity=0 time=0
note_on channel=0 note=72 velocity=0 time=0
note_on channel=0 note=71 velocity=46 time=0
note_on channel=0 note=83 velocity=55 time=0
note_on channel=0 note=53 velocity=25 time=0
note_on channel=0 note=56 velocity=30 time=0
note_on channel=0 note=62 velocity=36 time=0
note_on channel=0 note=62 velocity=0 time=228
note_on channel=0 note=53 velocity=0 time=0
note_on channel=0 note=56 velocity=0 time=0
note_on channel=0 note=83 velocity=0 time=12
note_on channel=0 note=71 velocity=0 time=0
note_on channel=0 note=53 velocity=25 time=0
note_on channel=0 note=56 velocity=30 time=0
note_on channel=0 note=62 velocity=36 time=0
note_on channel=0 note=62 velocity=0 time=228
note_on channel=0 note=56 velocity=0 time=0
note_on channel=0 note=53 velocity=0 time=0
note_on channel=0 note=50 velocity=35 time=0
note_on channel=0 note=53 velocity=42 time=0
note_on channel=0 note=59 velocity=50 time=0
note_on channel=0 note=59 velocity=0 time=228
note_on channel=0 note=53 velocity=0 time=0
note_on channel=0 note=50 velocity=0 time=0
note_on channel=0 note=50 velocity=35 time=0
note_on channel=0 note=53 velocity=42 time=0
note_on channel=0 note=59 velocity=50 time=0
note_on channel=0 note=59 velocity=0 time=28
note_on channel=0 note=53 velocity=0 time=0
note_on channel=0 note=50 velocity=0 time=0
note_on channel=0 note=71 velocity=71 time=12
note_on channel=0 note=83 velocity=71 time=0
note_on channel=0 note=50 velocity=35 time=0
note_on channel=0 note=53 velocity=42 time=0
note_on channel=0 note=59 velocity=50 time=0
note_on channel=0 note=59 velocity=0 time=68
note_on channel=0 note=50 velocity=0 time=0
note_on channel=0 note=53 velocity=0 time=0
note_on channel=0 note=50 velocity=35 time=0
note_on channel=0 note=53 velocity=42 time=0
note_on channel=0 note=59 velocity=50 time=0
note_on channel=0 note=83 velocity=0 time=120
note_on channel=0 note=71 velocity=0 time=0
note_on channel=0 note=72 velocity=62 time=0
note_on channel=0 note=84 velocity=74 time=0
note_on channel=0 note=53 velocity=0 time=108
note_on channel=0 note=59 velocity=0 time=0
note_on channel=0 note=50 velocity=0 time=0
note_on channel=0 note=72 velocity=0 time=0
note_on channel=0 note=84 velocity=0 time=0
note_on channel=0 note=73 velocity=80 time=0
note_on channel=0 note=85 velocity=80 time=0
note_on channel=0 note=47 velocity=47 time=0
note_on channel=0 note=50 velocity=47 time=0
note_on channel=0 note=56 velocity=56 time=0
note_on channel=0 note=56 velocity=0 time=228
note_on channel=0 note=47 velocity=0 time=0
note_on channel=0 note=50 velocity=0 time=0
note_on channel=0 note=47 velocity=49 time=12
note_on channel=0 note=50 velocity=49 time=0
note_on channel=0 note=56 velocity=58 time=0
note_on channel=0 note=56 velocity=0 time=228
note_on channel=0 note=47 velocity=0 time=0
note_on channel=0 note=50 velocity=0 time=0
note_on channel=0 note=85 velocity=0 time=0
note_on channel=0 note=73 velocity=0 time=0
note_on channel=0 note=74 velocity=85 time=0
note_on channel=0 note=86 velocity=85 time=0
note_on channel=0 note=47 velocity=44 time=0
note_on channel=0 note=50 velocity=44 time=0
note_on channel=0 note=56 velocity=52 time=0
note_on channel=0 note=56 velocity=0 time=228
note_on channel=0 note=47 velocity=0 time=0
note_on channel=0 note=50 velocity=0 time=0
note_on channel=0 note=47 velocity=44 time=12
note_on channel=0 note=50 velocity=44 time=0
note_on channel=0 note=56 velocity=52 time=0
note_on channel=0 note=56 velocity=0 time=228
note_on channel=0 note=47 velocity=0 time=0
note_on channel=0 note=50 velocity=0 time=0
note_on channel=0 note=86 velocity=0 time=0
note_on channel=0 note=74 velocity=0 time=0
note_on channel=0 note=44 velocity=45 time=0
note_on channel=0 note=47 velocity=53 time=0
note_on channel=0 note=53 velocity=63 time=0
note_on channel=0 note=53 velocity=0 time=228
note_on channel=0 note=47 velocity=0 time=0
note_on channel=0 note=44 velocity=0 time=0
note_on channel=0 note=44 velocity=45 time=0
note_on channel=0 note=47 velocity=53 time=0
note_on channel=0 note=53 velocity=63 time=0
note_on channel=0 note=53 velocity=0 time=228
note_on channel=0 note=47 velocity=0 time=0
note_on channel=0 note=44 velocity=0 time=0
note_on channel=0 note=74 velocity=90 time=0
note_on channel=0 note=86 velocity=91 time=0
note_on channel=0 note=44 velocity=45 time=0
note_on channel=0 note=47 velocity=53 time=0
note_on channel=0 note=53 velocity=63 time=0
note_on channel=0 note=53 velocity=0 time=228
note_on channel=0 note=44 velocity=0 time=0
note_on channel=0 note=47 velocity=0 time=0
note_on channel=0 note=44 velocity=45 time=12
note_on channel=0 note=47 velocity=53 time=0
note_on channel=0 note=53 velocity=63 time=0
note_on channel=0 note=86 velocity=0 time=0
note_on channel=0 note=74 velocity=0 time=0
note_on channel=0 note=75 velocity=80 time=0
note_on channel=0 note=87 velocity=82 time=0
note_on channel=0 note=47 velocity=0 time=108
note_on channel=0 note=53 velocity=0 time=0
note_on channel=0 note=44 velocity=0 time=0
note_on channel=0 note=75 velocity=0 time=0
note_on channel=0 note=87 velocity=0 time=0
note_on channel=0 note=76 velocity=88 time=0
note_on channel=0 note=88 velocity=88 time=0
note_on channel=0 note=43 velocity=45 time=0
note_on channel=0 note=47 velocity=53 time=0
note_on channel=0 note=53 velocity=64 time=0
note_on channel=0 note=53 velocity=0 time=228
note_on channel=0 note=43 velocity=0 time=0
note_on channel=0 note=47 velocity=0 time=0
note_on channel=0 note=43 velocity=45 time=12
note_on channel=0 note=47 velocity=53 time=0
note_on channel=0 note=53 velocity=64 time=0
note_on channel=0 note=53 velocity=0 time=228
note_on channel=0 note=43 velocity=0 time=0
note_on channel=0 note=47 velocity=0 time=0
note_on channel=0 note=88 velocity=0 time=12
note_on channel=0 note=76 velocity=0 time=0
note_on channel=0 note=77 velocity=88 time=0
note_on channel=0 note=89 velocity=90 time=0
note_on channel=0 note=43 velocity=45 time=0
note_on channel=0 note=47 velocity=53 time=0
note_on channel=0 note=53 velocity=64 time=0
note_on channel=0 note=53 velocity=0 time=228
note_on channel=0 note=43 velocity=0 time=0
note_on channel=0 note=47 velocity=0 time=0
note_on channel=0 note=43 velocity=45 time=0
note_on channel=0 note=47 velocity=53 time=0
note_on channel=0 note=53 velocity=64 time=0
note_on channel=0 note=53 velocity=0 time=28
note_on channel=0 note=43 velocity=0 time=0
note_on channel=0 note=47 velocity=0 time=0
note_on channel=0 note=44 velocity=46 time=12
note_on channel=0 note=48 velocity=55 time=0
note_on channel=0 note=53 velocity=66 time=0
note_on channel=0 note=53 velocity=0 time=228
note_on channel=0 note=44 velocity=0 time=0
note_on channel=0 note=48 velocity=0 time=0
note_on channel=0 note=44 velocity=48 time=12
note_on channel=0 note=48 velocity=57 time=0
note_on channel=0 note=53 velocity=68 time=0
note_on channel=0 note=53 velocity=0 time=228
note_on channel=0 note=44 velocity=0 time=0
note_on channel=0 note=48 velocity=0 time=0
note_on channel=0 note=89 velocity=0 time=2
note_on channel=0 note=77 velocity=0 time=0
note_on channel=0 note=77 velocity=96 time=0
note_on channel=0 note=89 velocity=96 time=0
note_on channel=0 note=44 velocity=50 time=0
note_on channel=0 note=48 velocity=60 time=0
note_on channel=0 note=53 velocity=70 time=0
note_on channel=0 note=53 velocity=0 time=228
note_on channel=0 note=44 velocity=0 time=0
note_on channel=0 note=48 velocity=0 time=0
note_on channel=0 note=44 velocity=51 time=0
note_on channel=0 note=48 velocity=61 time=0
note_on channel=0 note=53 velocity=73 time=0
note_on channel=0 note=53 velocity=0 time=228
note_on channel=0 note=44 velocity=0 time=0
note_on channel=0 note=48 velocity=0 time=0
note_on channel=0 note=89 velocity=0 time=2
note_on channel=0 note=77 velocity=0 time=0
note_on channel=0 note=77 velocity=96 time=0
note_on channel=0 note=89 velocity=96 time=0
note_on channel=0 note=43 velocity=75 time=0
note_on channel=0 note=47 velocity=75 time=0
note_on channel=0 note=53 velocity=75 time=0
note_on channel=0 note=53 velocity=0 time=480
note_on channel=0 note=43 velocity=0 time=0
note_on channel=0 note=47 velocity=0 time=0
note_on channel=0 note=89 velocity=0 time=120
note_on channel=0 note=77 velocity=0 time=0
note_on channel=0 note=87 velocity=62 time=0
note_on channel=0 note=87 velocity=0 time=60
note_on channel=0 note=86 velocity=62 time=0
note_on channel=0 note=86 velocity=0 time=60
note_on channel=0 note=89 velocity=62 time=0
note_on channel=0 note=89 velocity=0 time=60
note_on channel=0 note=87 velocity=62 time=0
note_on channel=0 note=87 velocity=0 time=60
note_on channel=0 note=86 velocity=62 time=0
note_on channel=0 note=86 velocity=0 time=60
note_on channel=0 note=84 velocity=62 time=0
note_on channel=0 note=84 velocity=0 time=0
note_on channel=0 note=83 velocity=62 time=0
note_on channel=0 note=83 velocity=0 time=120
note_on channel=0 note=83 velocity=52 time=0
note_on channel=0 note=83 velocity=0 time=120
note_on channel=0 note=77 velocity=39 time=0
note_on channel=0 note=83 velocity=47 time=0
note_on channel=0 note=67 velocity=35 time=0
note_on channel=0 note=74 velocity=42 time=0
note_on channel=0 note=74 velocity=0 time=120
note_on channel=0 note=77 velocity=0 time=0
note_on channel=0 note=83 velocity=0 time=0
note_on channel=0 note=67 velocity=0 time=0
note_on channel=0 note=77 velocity=40 time=0
note_on channel=0 note=83 velocity=48 time=0
note_on channel=0 note=67 velocity=35 time=0
note_on channel=0 note=74 velocity=42 time=0
note_on channel=0 note=74 velocity=0 time=120
note_on channel=0 note=77 velocity=0 time=0
note_on channel=0 note=83 velocity=0 time=0
note_on channel=0 note=67 velocity=0 time=0
note_on channel=0 note=75 velocity=40 time=0
note_on channel=0 note=84 velocity=48 time=0
note_on channel=0 note=68 velocity=35 time=0
note_on channel=0 note=72 velocity=42 time=0
note_on channel=0 note=72 velocity=0 time=480
note_on channel=0 note=75 velocity=0 time=0
note_on channel=0 note=84 velocity=0 time=0
note_on channel=0 note=68 velocity=0 time=0
note_on channel=0 note=84 velocity=65 time=0
note_on channel=0 note=84 velocity=0 time=600
note_on channel=0 note=83 velocity=61 time=0
note_on channel=0 note=83 velocity=0 time=60
note_on channel=0 note=84 velocity=63 time=0
note_on channel=0 note=84 velocity=0 time=60
note_on channel=0 note=86 velocity=66 time=0
note_on channel=0 note=86 velocity=0 time=40
note_on channel=0 note=84 velocity=65 time=0
note_on channel=0 note=84 velocity=0 time=40
note_on channel=0 note=82 velocity=64 time=0
note_on channel=0 note=82 velocity=0 time=40
note_on channel=0 note=80 velocity=63 time=0
note_on channel=0 note=80 velocity=0 time=40
note_on channel=0 note=79 velocity=61 time=0
note_on channel=0 note=79 velocity=0 time=40
note_on channel=0 note=82 velocity=60 time=0
note_on channel=0 note=82 velocity=0 time=0
note_on channel=0 note=80 velocity=62 time=0
note_on channel=0 note=80 velocity=0 time=0
note_on channel=0 note=80 velocity=49 time=0
note_on channel=0 note=80 velocity=0 time=120
note_on channel=0 note=80 velocity=47 time=0
note_on channel=0 note=60 velocity=28 time=0
note_on channel=0 note=53 velocity=28 time=0
note_on channel=0 note=62 velocity=34 time=0
note_on channel=0 note=62 velocity=0 time=120
note_on channel=0 note=80 velocity=0 time=0
note_on channel=0 note=60 velocity=0 time=0
note_on channel=0 note=53 velocity=0 time=0
note_on channel=0 note=80 velocity=48 time=0
note_on channel=0 note=60 velocity=28 time=0
note_on channel=0 note=53 velocity=28 time=0
note_on channel=0 note=62 velocity=34 time=0
note_on channel=0 note=62 velocity=0 time=120
note_on channel=0 note=80 velocity=0 time=0
note_on channel=0 note=60 velocity=0 time=0
note_on channel=0 note=53 velocity=0 time=0
note_on channel=0 note=79 velocity=50 time=0
note_on channel=0 note=60 velocity=28 time=0
note_on channel=0 note=55 velocity=28 time=0
note_on channel=0 note=63 velocity=34 time=0
note_on channel=0 note=79 velocity=0 time=0
note_on channel=0 note=87 velocity=65 time=0
note_on channel=0 note=60 velocity=0 time=240
note_on channel=0 note=63 velocity=0 time=0
note_on channel=0 note=55 velocity=0 time=0
note_on channel=0 note=87 velocity=0 time=0
note_on channel=0 note=86 velocity=52 time=0
note_on channel=0 note=86 velocity=0 time=40
note_on channel=0 note=85 velocity=52 time=0
note_on channel=0 note=85 velocity=0 time=40
note_on channel=0 note=84 velocity=52 time=0
note_on channel=0 note=84 velocity=0 time=40
note_on channel=0 note=83 velocity=52 time=0
note_on channel=0 note=83 velocity=0 time=40
note_on channel=0 note=82 velocity=53 time=0
note_on channel=0 note=82 velocity=0 time=40
note_on channel=0 note=81 velocity=53 time=0
note_on channel=0 note=81 velocity=0 time=34
note_on channel=0 note=80 velocity=53 time=0
note_on channel=0 note=80 velocity=0 time=34
note_on channel=0 note=79 velocity=53 time=0
note_on channel=0 note=79 velocity=0 time=34
note_on channel=0 note=78 velocity=54 time=0
note_on channel=0 note=78 velocity=0 time=34
note_on channel=0 note=77 velocity=54 time=0
note_on channel=0 note=77 velocity=0 time=34
note_on channel=0 note=76 velocity=54 time=0
note_on channel=0 note=76 velocity=0 time=4
note_on channel=0 note=75 velocity=54 time=0
note_on channel=0 note=75 velocity=0 time=0
note_on channel=0 note=74 velocity=54 time=0
note_on channel=0 note=43 velocity=33 time=0
note_on channel=0 note=50 velocity=33 time=0
note_on channel=0 note=53 velocity=40 time=0
note_on channel=0 note=74 velocity=0 time=60
note_on channel=0 note=73 velocity=55 time=0
note_on channel=0 note=73 velocity=0 time=40
note_on channel=0 note=72 velocity=55 time=0
note_on channel=0 note=72 velocity=0 time=20
note_on channel=0 note=71 velocity=56 time=0
note_on channel=0 note=71 velocity=0 time=0
note_on channel=0 note=70 velocity=56 time=0
note_on channel=0 note=70 velocity=0 time=60
note_on channel=0 note=69 velocity=56 time=0
note_on channel=0 note=69 velocity=0 time=40
note_on channel=0 note=68 velocity=57 time=0
note_on channel=0 note=68 velocity=0 time=60
note_on channel=0 note=67 velocity=57 time=0
note_on channel=0 note=67 velocity=0 time=40
note_on channel=0 note=53 velocity=0 time=0
note_on channel=0 note=50 velocity=0 time=0
note_on channel=0 note=43 velocity=0 time=0
note_on channel=0 note=66 velocity=57 time=0
note_on channel=0 note=66 velocity=0 time=20
note_on channel=0 note=65 velocity=58 time=0
note_on channel=0 note=65 velocity=0 time=0
note_on channel=0 note=64 velocity=57 time=0
note_on channel=0 note=64 velocity=0 time=60
note_on channel=0 note=63 velocity=57 time=0
note_on channel=0 note=63 velocity=0 time=0
note_on channel=0 note=62 velocity=58 time=0
note_on channel=0 note=62 velocity=0 time=20
note_on channel=0 note=61 velocity=63 time=0
note_on channel=0 note=61 velocity=0 time=0
note_on channel=0 note=60 velocity=68 time=0
note_on channel=0 note=60 velocity=0 time=20
note_on channel=0 note=59 velocity=73 time=0
note_on channel=0 note=59 velocity=0 time=0
note_on channel=0 note=68 velocity=82 time=0
note_on channel=0 note=68 velocity=0 time=360
note_on channel=0 note=59 velocity=68 time=0
note_on channel=0 note=59 velocity=0 time=0
note_on channel=0 note=60 velocity=50 time=0
note_on channel=0 note=36 velocity=44 time=0
note_on channel=0 note=48 velocity=41 time=0
note_on channel=0 note=36 velocity=0 time=48
note_on channel=0 note=48 velocity=0 time=0
note_on channel=0 note=36 velocity=44 time=0
note_on channel=0 note=48 velocity=41 time=0
note_on channel=0 note=36 velocity=0 time=48
note_on channel=0 note=48 velocity=0 time=0
note_on channel=0 note=36 velocity=44 time=0
note_on channel=0 note=48 velocity=41 time=0
note_on channel=0 note=36 velocity=0 time=39
note_on channel=0 note=48 velocity=0 time=0
note_on channel=0 note=60 velocity=0 time=0
note_on channel=0 note=58 velocity=52 time=0
note_on channel=0 note=64 velocity=52 time=0
note_on channel=0 note=36 velocity=45 time=0
note_on channel=0 note=64 velocity=0 time=30
note_on channel=0 note=58 velocity=0 time=0
note_on channel=0 note=48 velocity=41 time=0
note_on channel=0 note=36 velocity=0 time=108
note_on channel=0 note=48 velocity=0 time=12
note_on channel=0 note=56 velocity=54 time=0
note_on channel=0 note=65 velocity=54 time=0
note_on channel=0 note=36 velocity=45 time=0
note_on channel=0 note=65 velocity=0 time=90
note_on channel=0 note=56 velocity=0 time=0
note_on channel=0 note=48 velocity=46 time=30
note_on channel=0 note=36 velocity=0 time=108
note_on channel=0 note=48 velocity=0 time=0
note_on channel=0 note=64 velocity=56 time=0
note_on channel=0 note=67 velocity=56 time=0
note_on channel=0 note=36 velocity=47 time=0
note_on channel=0 note=67 velocity=0 time=90
note_on channel=0 note=64 velocity=0 time=0
note_on channel=0 note=48 velocity=47 time=30
note_on channel=0 note=36 velocity=0 time=108
note_on channel=0 note=48 velocity=0 time=12
note_on channel=0 note=65 velocity=57 time=0
note_on channel=0 note=68 velocity=57 time=0
note_on channel=0 note=36 velocity=49 time=0
note_on channel=0 note=68 velocity=0 time=90
note_on channel=0 note=65 velocity=0 time=0
note_on channel=0 note=48 velocity=50 time=30
note_on channel=0 note=36 velocity=0 time=108
note_on channel=0 note=48 velocity=0 time=0
note_on channel=0 note=62 velocity=59 time=0
note_on channel=0 note=71 velocity=59 time=0
note_on channel=0 note=36 velocity=51 time=0
note_on channel=0 note=71 velocity=0 time=90
note_on channel=0 note=62 velocity=0 time=0
note_on channel=0 note=48 velocity=53 time=30
note_on channel=0 note=36 velocity=0 time=108
note_on channel=0 note=48 velocity=0 time=0
note_on channel=0 note=63 velocity=61 time=0
note_on channel=0 note=72 velocity=61 time=0
note_on channel=0 note=36 velocity=55 time=0
note_on channel=0 note=72 velocity=0 time=90
note_on channel=0 note=63 velocity=0 time=0
note_on channel=0 note=48 velocity=50 time=30
note_on channel=0 note=36 velocity=0 time=108
note_on channel=0 note=48 velocity=0 time=0
note_on channel=0 note=64 velocity=55 time=0
note_on channel=0 note=72 velocity=55 time=0
note_on channel=0 note=36 velocity=53 time=0
note_on channel=0 note=48 velocity=47 time=51
note_on channel=0 note=36 velocity=0 time=108
note_on channel=0 note=48 velocity=0 time=12
note_on channel=0 note=36 velocity=53 time=0
note_on channel=0 note=48 velocity=47 time=120
note_on channel=0 note=36 velocity=0 time=108
note_on channel=0 note=64 velocity=0 time=12
note_on channel=0 note=72 velocity=0 time=0
note_on channel=0 note=48 velocity=0 time=0
note_on channel=0 note=70 velocity=51 time=0
note_on channel=0 note=76 velocity=51 time=0
note_on channel=0 note=36 velocity=44 time=0
note_on channel=0 note=76 velocity=0 time=55
note_on channel=0 note=70 velocity=0 time=0
note_on channel=0 note=48 velocity=40 time=30
note_on channel=0 note=36 velocity=0 time=108
note_on channel=0 note=48 velocity=0 time=12
note_on channel=0 note=68 velocity=53 time=0
note_on channel=0 note=77 velocity=53 time=0
note_on channel=0 note=36 velocity=43 time=0
note_on channel=0 note=77 velocity=0 time=90
note_on channel=0 note=68 velocity=0 time=0
note_on channel=0 note=48 velocity=45 time=30
note_on channel=0 note=36 velocity=0 time=108
note_on channel=0 note=48 velocity=0 time=0
note_on channel=0 note=76 velocity=55 time=0
note_on channel=0 note=79 velocity=55 time=0
note_on channel=0 note=36 velocity=46 time=0
note_on channel=0 note=79 velocity=0 time=90
note_on channel=0 note=76 velocity=0 time=0
note_on channel=0 note=48 velocity=47 time=30
note_on channel=0 note=36 velocity=0 time=108
note_on channel=0 note=48 velocity=0 time=12
note_on channel=0 note=77 velocity=57 time=0
note_on channel=0 note=80 velocity=57 time=0
note_on channel=0 note=36 velocity=48 time=0
note_on channel=0 note=80 velocity=0 time=90
note_on channel=0 note=77 velocity=0 time=0
note_on channel=0 note=48 velocity=50 time=30
note_on channel=0 note=36 velocity=0 time=108
note_on channel=0 note=48 velocity=0 time=12
note_on channel=0 note=74 velocity=59 time=0
note_on channel=0 note=83 velocity=59 time=0
note_on channel=0 note=36 velocity=51 time=0
note_on channel=0 note=83 velocity=0 time=90
note_on channel=0 note=74 velocity=0 time=0
note_on channel=0 note=48 velocity=53 time=30
note_on channel=0 note=36 velocity=0 time=108
note_on channel=0 note=48 velocity=0 time=0
note_on channel=0 note=72 velocity=51 time=0
note_on channel=0 note=79 velocity=61 time=0
note_on channel=0 note=75 velocity=51 time=0
note_on channel=0 note=84 velocity=61 time=0
note_on channel=0 note=36 velocity=55 time=0
note_on channel=0 note=48 velocity=50 time=35
note_on channel=0 note=36 velocity=0 time=108
note_on channel=0 note=48 velocity=0 time=0
note_on channel=0 note=36 velocity=53 time=0
note_on channel=0 note=48 velocity=47 time=120
note_on channel=0 note=36 velocity=0 time=108
note_on channel=0 note=79 velocity=0 time=12
note_on channel=0 note=84 velocity=0 time=0
note_on channel=0 note=72 velocity=0 time=0
note_on channel=0 note=48 velocity=0 time=0
note_on channel=0 note=75 velocity=0 time=0
note_on channel=0 note=67 velocity=53 time=0
note_on channel=0 note=71 velocity=53 time=0
note_on channel=0 note=77 velocity=63 time=0
note_on channel=0 note=79 velocity=63 time=0
note_on channel=0 note=38 velocity=55 time=0
note_on channel=0 note=50 velocity=50 time=109
note_on channel=0 note=38 velocity=0 time=94
note_on channel=0 note=50 velocity=0 time=0
note_on channel=0 note=38 velocity=55 time=0
note_on channel=0 note=50 velocity=51 time=120
note_on channel=0 note=38 velocity=0 time=108
note_on channel=0 note=71 velocity=0 time=0
note_on channel=0 note=79 velocity=0 time=0
note_on channel=0 note=67 velocity=0 time=0
note_on channel=0 note=50 velocity=0 time=0
note_on channel=0 note=77 velocity=0 time=0
note_on channel=0 note=67 velocity=56 time=0
note_on channel=0 note=72 velocity=56 time=0
note_on channel=0 note=75 velocity=67 time=0
note_on channel=0 note=39 velocity=55 time=0
note_on channel=0 note=51 velocity=55 time=28
note_on channel=0 note=39 velocity=0 time=108
note_on channel=0 note=51 velocity=0 time=12
note_on channel=0 note=39 velocity=55 time=0
note_on channel=0 note=51 velocity=55 time=120
note_on channel=0 note=39 velocity=0 time=108
note_on channel=0 note=67 velocity=0 time=12
note_on channel=0 note=75 velocity=0 time=0
note_on channel=0 note=72 velocity=0 time=0
note_on channel=0 note=51 velocity=0 time=0
note_on channel=0 note=65 velocity=60 time=0
note_on channel=0 note=68 velocity=60 time=0
note_on channel=0 note=74 velocity=71 time=0
note_on channel=0 note=41 velocity=55 time=0
note_on channel=0 note=53 velocity=53 time=28
note_on channel=0 note=41 velocity=0 time=108
note_on channel=0 note=53 velocity=0 time=0
note_on channel=0 note=41 velocity=55 time=0
note_on channel=0 note=53 velocity=55 time=120
note_on channel=0 note=41 velocity=0 time=108
note_on channel=0 note=65 velocity=0 time=12
note_on channel=0 note=74 velocity=0 time=0
note_on channel=0 note=68 velocity=0 time=0
note_on channel=0 note=53 velocity=0 time=0
note_on channel=0 note=63 velocity=62 time=0
note_on channel=0 note=67 velocity=74 time=0
note_on channel=0 note=72 velocity=74 time=0
note_on channel=0 note=43 velocity=56 time=0
note_on channel=0 note=55 velocity=56 time=14
note_on channel=0 note=43 velocity=0 time=108
note_on channel=0 note=55 velocity=0 time=12
note_on channel=0 note=43 velocity=57 time=0
note_on channel=0 note=55 velocity=57 time=120
note_on channel=0 note=43 velocity=0 time=108
note_on channel=0 note=67 velocity=0 time=12
note_on channel=0 note=55 velocity=0 time=0
note_on channel=0 note=66 velocity=74 time=0
note_on channel=0 note=44 velocity=58 time=0
note_on channel=0 note=56 velocity=59 time=7
note_on channel=0 note=44 velocity=0 time=108
note_on channel=0 note=56 velocity=0 time=12
note_on channel=0 note=44 velocity=59 time=0
note_on channel=0 note=56 velocity=60 time=120
note_on channel=0 note=44 velocity=0 time=108
note_on channel=0 note=66 velocity=0 time=12
note_on channel=0 note=56 velocity=0 time=0
note_on channel=0 note=69 velocity=77 time=0
note_on channel=0 note=42 velocity=60 time=0
note_on channel=0 note=54 velocity=55 time=51
note_on channel=0 note=42 velocity=0 time=108
note_on channel=0 note=54 velocity=0 time=12
note_on channel=0 note=42 velocity=61 time=0
note_on channel=0 note=54 velocity=55 time=120
note_on channel=0 note=42 velocity=0 time=108
note_on channel=0 note=63 velocity=0 time=12
note_on channel=0 note=69 velocity=0 time=0
note_on channel=0 note=72 velocity=0 time=0
note_on channel=0 note=54 velocity=0 time=0
note_on channel=0 note=62 velocity=62 time=0
note_on channel=0 note=65 velocity=62 time=0
note_on channel=0 note=71 velocity=74 time=0
note_on channel=0 note=43 velocity=58 time=0
note_on channel=0 note=55 velocity=55 time=5
note_on channel=0 note=43 velocity=0 time=108
note_on channel=0 note=55 velocity=0 time=12
note_on channel=0 note=43 velocity=58 time=0
note_on channel=0 note=55 velocity=55 time=120
note_on channel=0 note=43 velocity=0 time=108
note_on channel=0 note=62 velocity=0 time=0
note_on channel=0 note=71 velocity=0 time=0
note_on channel=0 note=65 velocity=0 time=0
note_on channel=0 note=55 velocity=0 time=0
note_on channel=0 note=60 velocity=67 time=0
note_on channel=0 note=63 velocity=67 time=0
note_on channel=0 note=72 velocity=79 time=0
note_on channel=0 note=36 velocity=48 time=0
note_on channel=0 note=72 velocity=0 time=30
note_on channel=0 note=60 velocity=0 time=0
note_on channel=0 note=63 velocity=0 time=0
note_on channel=0 note=48 velocity=45 time=0
note_on channel=0 note=36 velocity=0 time=48
note_on channel=0 note=48 velocity=0 time=0
note_on channel=0 note=60 velocity=67 time=0
note_on channel=0 note=36 velocity=44 time=0
note_on channel=0 note=48 velocity=41 time=0
note_on channel=0 note=36 velocity=0 time=48
note_on channel=0 note=48 velocity=0 time=0
note_on channel=0 note=36 velocity=44 time=0
note_on channel=0 note=48 velocity=40 time=0
note_on channel=0 note=36 velocity=0 time=11
note_on channel=0 note=48 velocity=0 time=0
note_on channel=0 note=60 velocity=0 time=0
note_on channel=0 note=58 velocity=52 time=0
note_on channel=0 note=64 velocity=52 time=0
note_on channel=0 note=36 velocity=44 time=0
note_on channel=0 note=64 velocity=0 time=30
note_on channel=0 note=58 velocity=0 time=0
note_on channel=0 note=48 velocity=41 time=0
note_on channel=0 note=36 velocity=0 time=108
note_on channel=0 note=48 velocity=0 time=12
note_on channel=0 note=56 velocity=54 time=0
note_on channel=0 note=65 velocity=54 time=0
note_on channel=0 note=36 velocity=44 time=0
note_on channel=0 note=65 velocity=0 time=90
note_on channel=0 note=56 velocity=0 time=0
note_on channel=0 note=48 velocity=46 time=30
note_on channel=0 note=36 velocity=0 time=108
note_on channel=0 note=48 velocity=0 time=0
note_on channel=0 note=64 velocity=55 time=0
note_on channel=0 note=67 velocity=55 time=0
note_on channel=0 note=36 velocity=47 time=0
note_on channel=0 note=67 velocity=0 time=90
note_on channel=0 note=64 velocity=0 time=0
note_on channel=0 note=48 velocity=47 time=30
note_on channel=0 note=36 velocity=0 time=108
note_on channel=0 note=48 velocity=0 time=12
note_on channel=0 note=65 velocity=57 time=0
note_on channel=0 note=68 velocity=57 time=0
note_on channel=0 note=36 velocity=49 time=0
note_on channel=0 note=68 velocity=0 time=90
note_on channel=0 note=65 velocity=0 time=0
note_on channel=0 note=48 velocity=50 time=30
note_on channel=0 note=36 velocity=0 time=108
note_on channel=0 note=48 velocity=0 time=12
note_on channel=0 note=62 velocity=59 time=0
note_on channel=0 note=71 velocity=59 time=0
note_on channel=0 note=36 velocity=51 time=0
note_on channel=0 note=71 velocity=0 time=90
note_on channel=0 note=62 velocity=0 time=0
note_on channel=0 note=48 velocity=53 time=30
note_on channel=0 note=36 velocity=0 time=108
note_on channel=0 note=48 velocity=0 time=0
note_on channel=0 note=63 velocity=61 time=0
note_on channel=0 note=72 velocity=61 time=0
note_on channel=0 note=36 velocity=55 time=0
note_on channel=0 note=72 velocity=0 time=90
note_on channel=0 note=63 velocity=0 time=0
note_on channel=0 note=48 velocity=50 time=30
note_on channel=0 note=36 velocity=0 time=108
note_on channel=0 note=48 velocity=0 time=0
note_on channel=0 note=64 velocity=55 time=0
note_on channel=0 note=72 velocity=55 time=0
note_on channel=0 note=36 velocity=53 time=0
note_on channel=0 note=48 velocity=47 time=97
note_on channel=0 note=36 velocity=0 time=108
note_on channel=0 note=48 velocity=0 time=12
note_on channel=0 note=36 velocity=53 time=0
note_on channel=0 note=48 velocity=47 time=120
note_on channel=0 note=36 velocity=0 time=108
note_on channel=0 note=64 velocity=0 time=12
note_on channel=0 note=72 velocity=0 time=0
note_on channel=0 note=48 velocity=0 time=0
note_on channel=0 note=70 velocity=51 time=0
note_on channel=0 note=76 velocity=51 time=0
note_on channel=0 note=36 velocity=44 time=0
note_on channel=0 note=76 velocity=0 time=90
note_on channel=0 note=70 velocity=0 time=0
note_on channel=0 note=48 velocity=40 time=30
note_on channel=0 note=36 velocity=0 time=108
note_on channel=0 note=48 velocity=0 time=12
note_on channel=0 note=68 velocity=53 time=0
note_on channel=0 note=77 velocity=53 time=0
note_on channel=0 note=36 velocity=43 time=0
note_on channel=0 note=77 velocity=0 time=90
note_on channel=0 note=68 velocity=0 time=0
note_on channel=0 note=48 velocity=45 time=30
note_on channel=0 note=36 velocity=0 time=108
note_on channel=0 note=48 velocity=0 time=0
note_on channel=0 note=76 velocity=55 time=0
note_on channel=0 note=79 velocity=55 time=0
note_on channel=0 note=36 velocity=46 time=0
note_on channel=0 note=79 velocity=0 time=90
note_on channel=0 note=76 velocity=0 time=0
note_on channel=0 note=48 velocity=47 time=30
note_on channel=0 note=36 velocity=0 time=108
note_on channel=0 note=48 velocity=0 time=12
note_on channel=0 note=77 velocity=57 time=0
note_on channel=0 note=80 velocity=57 time=0
note_on channel=0 note=36 velocity=48 time=0
note_on channel=0 note=80 velocity=0 time=90
note_on channel=0 note=77 velocity=0 time=0
note_on channel=0 note=48 velocity=50 time=30
note_on channel=0 note=36 velocity=0 time=108
note_on channel=0 note=48 velocity=0 time=0
note_on channel=0 note=74 velocity=59 time=0
note_on channel=0 note=83 velocity=59 time=0
note_on channel=0 note=36 velocity=51 time=0
note_on channel=0 note=83 velocity=0 time=90
note_on channel=0 note=74 velocity=0 time=0
note_on channel=0 note=48 velocity=53 time=30
note_on channel=0 note=36 velocity=0 time=108
note_on channel=0 note=48 velocity=0 time=0
note_on channel=0 note=72 velocity=51 time=0
note_on channel=0 note=79 velocity=61 time=0
note_on channel=0 note=75 velocity=51 time=0
note_on channel=0 note=84 velocity=61 time=0
note_on channel=0 note=36 velocity=55 time=0
note_on channel=0 note=48 velocity=50 time=42
note_on channel=0 note=36 velocity=0 time=108
note_on channel=0 note=48 velocity=0 time=0
note_on channel=0 note=36 velocity=53 time=0
note_on channel=0 note=48 velocity=47 time=120
note_on channel=0 note=36 velocity=0 time=108
note_on channel=0 note=79 velocity=0 time=12
note_on channel=0 note=84 velocity=0 time=0
note_on channel=0 note=72 velocity=0 time=0
note_on channel=0 note=48 velocity=0 time=0
note_on channel=0 note=75 velocity=0 time=0
note_on channel=0 note=67 velocity=53 time=0
note_on channel=0 note=71 velocity=53 time=0
note_on channel=0 note=77 velocity=63 time=0
note_on channel=0 note=79 velocity=63 time=0
note_on channel=0 note=38 velocity=55 time=0
note_on channel=0 note=50 velocity=50 time=109
note_on channel=0 note=38 velocity=0 time=80
note_on channel=0 note=50 velocity=0 time=0
note_on channel=0 note=38 velocity=55 time=0
note_on channel=0 note=50 velocity=51 time=120
note_on channel=0 note=38 velocity=0 time=108
note_on channel=0 note=71 velocity=0 time=0
note_on channel=0 note=79 velocity=0 time=0
note_on channel=0 note=67 velocity=0 time=0
note_on channel=0 note=50 velocity=0 time=0
note_on channel=0 note=77 velocity=0 time=0
note_on channel=0 note=67 velocity=56 time=0
note_on channel=0 note=72 velocity=56 time=0
note_on channel=0 note=75 velocity=67 time=0
note_on channel=0 note=39 velocity=55 time=0
note_on channel=0 note=51 velocity=55 time=21
note_on channel=0 note=39 velocity=0 time=108
note_on channel=0 note=51 velocity=0 time=12
note_on channel=0 note=39 velocity=55 time=0
note_on channel=0 note=51 velocity=55 time=120
note_on channel=0 note=39 velocity=0 time=108
note_on channel=0 note=67 velocity=0 time=12
note_on channel=0 note=75 velocity=0 time=0
note_on channel=0 note=72 velocity=0 time=0
note_on channel=0 note=51 velocity=0 time=0
note_on channel=0 note=65 velocity=60 time=0
note_on channel=0 note=68 velocity=60 time=0
note_on channel=0 note=74 velocity=71 time=0
note_on channel=0 note=41 velocity=55 time=0
note_on channel=0 note=53 velocity=53 time=106
note_on channel=0 note=41 velocity=0 time=108
note_on channel=0 note=53 velocity=0 time=0
note_on channel=0 note=41 velocity=55 time=0
note_on channel=0 note=53 velocity=55 time=120
note_on channel=0 note=41 velocity=0 time=108
note_on channel=0 note=65 velocity=0 time=12
note_on channel=0 note=74 velocity=0 time=0
note_on channel=0 note=68 velocity=0 time=0
note_on channel=0 note=53 velocity=0 time=0
note_on channel=0 note=63 velocity=62 time=0
note_on channel=0 note=67 velocity=74 time=0
note_on channel=0 note=72 velocity=74 time=0
note_on channel=0 note=43 velocity=56 time=0
note_on channel=0 note=55 velocity=56 time=7
note_on channel=0 note=43 velocity=0 time=108
note_on channel=0 note=55 velocity=0 time=12
note_on channel=0 note=43 velocity=57 time=0
note_on channel=0 note=55 velocity=57 time=120
note_on channel=0 note=43 velocity=0 time=108
note_on channel=0 note=67 velocity=0 time=12
note_on channel=0 note=55 velocity=0 time=0
note_on channel=0 note=66 velocity=74 time=0
note_on channel=0 note=44 velocity=58 time=0
note_on channel=0 note=56 velocity=59 time=21
note_on channel=0 note=44 velocity=0 time=108
note_on channel=0 note=56 velocity=0 time=12
note_on channel=0 note=44 velocity=59 time=0
note_on channel=0 note=56 velocity=60 time=120
note_on channel=0 note=44 velocity=0 time=108
note_on channel=0 note=66 velocity=0 time=0
note_on channel=0 note=56 velocity=0 time=0
note_on channel=0 note=69 velocity=77 time=0
note_on channel=0 note=42 velocity=60 time=0
note_on channel=0 note=54 velocity=55 time=57
note_on channel=0 note=42 velocity=0 time=108
note_on channel=0 note=54 velocity=0 time=12
note_on channel=0 note=42 velocity=61 time=0
note_on channel=0 note=54 velocity=55 time=120
note_on channel=0 note=42 velocity=0 time=108
note_on channel=0 note=54 velocity=0 time=12
note_on channel=0 note=42 velocity=58 time=0
note_on channel=0 note=54 velocity=55 time=120
note_on channel=0 note=42 velocity=0 time=108
note_on channel=0 note=54 velocity=0 time=12
note_on channel=0 note=42 velocity=58 time=0
note_on channel=0 note=54 velocity=55 time=120
note_on channel=0 note=42 velocity=0 time=108
note_on channel=0 note=63 velocity=0 time=0
note_on channel=0 note=69 velocity=0 time=0
note_on channel=0 note=72 velocity=0 time=0
note_on channel=0 note=54 velocity=0 time=0
note_on channel=0 note=62 velocity=55 time=0
note_on channel=0 note=67 velocity=55 time=0
note_on channel=0 note=71 velocity=55 time=0
note_on channel=0 note=43 velocity=55 time=0
note_on channel=0 note=55 velocity=55 time=0
note_on channel=0 note=55 velocity=0 time=231
note_on channel=0 note=71 velocity=0 time=0
note_on channel=0 note=62 velocity=0 time=0
note_on channel=0 note=67 velocity=0 time=0
note_on channel=0 note=43 velocity=0 time=0
note_on channel=0 note=62 velocity=50 time=0
note_on channel=0 note=59 velocity=50 time=0
note_on channel=0 note=59 velocity=0 time=136
note_on channel=0 note=62 velocity=0 time=0
note_on channel=0 note=67 velocity=80 time=0
note_on channel=0 note=79 velocity=80 time=0
note_on channel=0 note=62 velocity=50 time=0
note_on channel=0 note=59 velocity=50 time=0
note_on channel=0 note=59 velocity=0 time=228
note_on channel=0 note=62 velocity=0 time=0
note_on channel=0 note=59 velocity=50 time=12
note_on channel=0 note=62 velocity=50 time=0
note_on channel=0 note=62 velocity=0 time=228
note_on channel=0 note=59 velocity=0 time=0
note_on channel=0 note=55 velocity=50 time=12
note_on channel=0 note=55 velocity=0 time=53
note_on channel=0 note=79 velocity=0 time=0
note_on channel=0 note=67 velocity=0 time=0
note_on channel=0 note=63 velocity=50 time=0
note_on channel=0 note=60 velocity=50 time=0
note_on channel=0 note=60 velocity=0 time=228
note_on channel=0 note=63 velocity=0 time=0
note_on channel=0 note=67 velocity=80 time=12
note_on channel=0 note=79 velocity=80 time=0
note_on channel=0 note=63 velocity=50 time=0
note_on channel=0 note=60 velocity=50 time=0
note_on channel=0 note=60 velocity=0 time=228
note_on channel=0 note=63 velocity=0 time=0
note_on channel=0 note=63 velocity=50 time=12
note_on channel=0 note=60 velocity=50 time=0
note_on channel=0 note=60 velocity=0 time=228
note_on channel=0 note=63 velocity=0 time=0
note_on channel=0 note=65 velocity=50 time=0
note_on channel=0 note=62 velocity=50 time=0
note_on channel=0 note=79 velocity=0 time=111
note_on channel=0 note=67 velocity=0 time=0
note_on channel=0 note=77 velocity=70 time=0
note_on channel=0 note=77 velocity=0 time=120
note_on channel=0 note=65 velocity=0 time=0
note_on channel=0 note=62 velocity=0 time=0
note_on channel=0 note=74 velocity=69 time=0
note_on channel=0 note=74 velocity=0 time=120
note_on channel=0 note=71 velocity=69 time=0
note_on channel=0 note=71 velocity=0 time=120
note_on channel=0 note=67 velocity=68 time=0
note_on channel=0 note=67 velocity=0 time=120
note_on channel=0 note=65 velocity=67 time=0
note_on channel=0 note=65 velocity=0 time=120
note_on channel=0 note=62 velocity=66 time=0
note_on channel=0 note=62 velocity=0 time=120
note_on channel=0 note=59 velocity=65 time=0
note_on channel=0 note=59 velocity=0 time=0
note_on channel=0 note=60 velocity=65 time=0
note_on channel=0 note=60 velocity=0 time=20
note_on channel=0 note=63 velocity=64 time=0
note_on channel=0 note=63 velocity=0 time=60
note_on channel=0 note=60 velocity=65 time=0
note_on channel=0 note=60 velocity=0 time=0
note_on channel=0 note=55 velocity=65 time=0
note_on channel=0 note=55 velocity=0 time=40
note_on channel=0 note=54 velocity=64 time=0
note_on channel=0 note=32 velocity=55 time=0
note_on channel=0 note=32 velocity=0 time=0
note_on channel=0 note=54 velocity=0 time=0
note_on channel=0 note=60 velocity=64 time=0
note_on channel=0 note=44 velocity=55 time=0
note_on channel=0 note=44 velocity=0 time=20
note_on channel=0 note=60 velocity=0 time=0
note_on channel=0 note=56 velocity=63 time=0
note_on channel=0 note=32 velocity=55 time=0
note_on channel=0 note=32 velocity=0 time=60
note_on channel=0 note=56 velocity=0 time=0
note_on channel=0 note=54 velocity=65 time=0
note_on channel=0 note=44 velocity=55 time=0
note_on channel=0 note=44 velocity=0 time=0
note_on channel=0 note=54 velocity=0 time=0
note_on channel=0 note=55 velocity=67 time=0
note_on channel=0 note=31 velocity=50 time=0
note_on channel=0 note=43 velocity=50 time=0
note_on channel=0 note=43 velocity=0 time=45
note_on channel=0 note=31 velocity=0 time=0
note_on channel=0 note=55 velocity=0 time=0
note_on channel=0 note=62 velocity=50 time=0
note_on channel=0 note=59 velocity=50 time=0
note_on channel=0 note=59 velocity=0 time=228
note_on channel=0 note=62 velocity=0 time=0
note_on channel=0 note=67 velocity=80 time=0
note_on channel=0 note=79 velocity=80 time=0
note_on channel=0 note=62 velocity=50 time=0
note_on channel=0 note=59 velocity=50 time=0
note_on channel=0 note=59 velocity=0 time=228
note_on channel=0 note=62 velocity=0 time=0
note_on channel=0 note=59 velocity=50 time=12
note_on channel=0 note=62 velocity=50 time=0
note_on channel=0 note=62 velocity=0 time=228
note_on channel=0 note=59 velocity=0 time=0
note_on channel=0 note=55 velocity=50 time=12
note_on channel=0 note=55 velocity=0 time=66
note_on channel=0 note=79 velocity=0 time=0
note_on channel=0 note=67 velocity=0 time=0
note_on channel=0 note=63 velocity=50 time=0
note_on channel=0 note=60 velocity=50 time=0
note_on channel=0 note=60 velocity=0 time=228
note_on channel=0 note=63 velocity=0 time=0
note_on channel=0 note=67 velocity=80 time=12
note_on channel=0 note=79 velocity=80 time=0
note_on channel=0 note=63 velocity=50 time=0
note_on channel=0 note=60 velocity=50 time=0
note_on channel=0 note=60 velocity=0 time=228
note_on channel=0 note=63 velocity=0 time=0
note_on channel=0 note=63 velocity=50 time=12
note_on channel=0 note=60 velocity=50 time=0
note_on channel=0 note=60 velocity=0 time=228
note_on channel=0 note=63 velocity=0 time=0
note_on channel=0 note=65 velocity=50 time=0
note_on channel=0 note=62 velocity=50 time=0
note_on channel=0 note=79 velocity=0 time=113
note_on channel=0 note=67 velocity=0 time=0
note_on channel=0 note=77 velocity=72 time=0
note_on channel=0 note=77 velocity=0 time=120
note_on channel=0 note=65 velocity=0 time=0
note_on channel=0 note=62 velocity=0 time=0
note_on channel=0 note=74 velocity=71 time=0
note_on channel=0 note=74 velocity=0 time=120
note_on channel=0 note=71 velocity=70 time=0
note_on channel=0 note=71 velocity=0 time=120
note_on channel=0 note=67 velocity=69 time=0
note_on channel=0 note=67 velocity=0 time=120
note_on channel=0 note=65 velocity=68 time=0
note_on channel=0 note=65 velocity=0 time=120
note_on channel=0 note=62 velocity=67 time=0
note_on channel=0 note=62 velocity=0 time=120
note_on channel=0 note=59 velocity=66 time=0
note_on channel=0 note=59 velocity=0 time=40
note_on channel=0 note=60 velocity=65 time=0
note_on channel=0 note=60 velocity=0 time=20
note_on channel=0 note=63 velocity=64 time=0
note_on channel=0 note=63 velocity=0 time=20
note_on channel=0 note=60 velocity=64 time=0
note_on channel=0 note=60 velocity=0 time=0
note_on channel=0 note=55 velocity=67 time=0
note_on channel=0 note=55 velocity=0 time=0
note_on channel=0 note=54 velocity=66 time=0
note_on channel=0 note=32 velocity=55 time=0
note_on channel=0 note=54 velocity=0 time=0
note_on channel=0 note=60 velocity=64 time=0
note_on channel=0 note=44 velocity=55 time=0
note_on channel=0 note=32 velocity=0 time=28
note_on channel=0 note=44 velocity=0 time=12
note_on channel=0 note=60 velocity=0 time=0
note_on channel=0 note=56 velocity=62 time=0
note_on channel=0 note=32 velocity=55 time=0
note_on channel=0 note=56 velocity=0 time=40
note_on channel=0 note=54 velocity=60 time=0
note_on channel=0 note=44 velocity=49 time=0
note_on channel=0 note=32 velocity=0 time=28
note_on channel=0 note=44 velocity=0 time=12
note_on channel=0 note=54 velocity=0 time=0
note_on channel=0 note=55 velocity=67 time=0
note_on channel=0 note=31 velocity=50 time=0
note_on channel=0 note=43 velocity=51 time=120
note_on channel=0 note=31 velocity=0 time=108
note_on channel=0 note=43 velocity=0 time=0
note_on channel=0 note=55 velocity=0 time=0
note_on channel=0 note=66 velocity=67 time=0
note_on channel=0 note=31 velocity=51 time=0
note_on channel=0 note=66 velocity=0 time=90
note_on channel=0 note=43 velocity=52 time=30
note_on channel=0 note=31 velocity=0 time=108
note_on channel=0 note=43 velocity=0 time=0
note_on channel=0 note=67 velocity=69 time=0
note_on channel=0 note=31 velocity=53 time=0
note_on channel=0 note=67 velocity=0 time=90
note_on channel=0 note=43 velocity=54 time=30
note_on channel=0 note=31 velocity=0 time=108
note_on channel=0 note=43 velocity=0 time=12
note_on channel=0 note=66 velocity=71 time=0
note_on channel=0 note=72 velocity=71 time=0
note_on channel=0 note=31 velocity=55 time=0
note_on channel=0 note=72 velocity=0 time=90
note_on channel=0 note=66 velocity=0 time=0
note_on channel=0 note=43 velocity=56 time=30
note_on channel=0 note=31 velocity=0 time=108
note_on channel=0 note=43 velocity=0 time=12
note_on channel=0 note=67 velocity=73 time=0
note_on channel=0 note=71 velocity=73 time=0
note_on channel=0 note=31 velocity=57 time=0
note_on channel=0 note=71 velocity=0 time=90
note_on channel=0 note=67 velocity=0 time=0
note_on channel=0 note=43 velocity=58 time=30
note_on channel=0 note=31 velocity=0 time=108
note_on channel=0 note=43 velocity=0 time=12
note_on channel=0 note=72 velocity=75 time=0
note_on channel=0 note=78 velocity=75 time=0
note_on channel=0 note=31 velocity=59 time=0
note_on channel=0 note=78 velocity=0 time=90
note_on channel=0 note=72 velocity=0 time=0
note_on channel=0 note=43 velocity=60 time=30
note_on channel=0 note=31 velocity=0 time=108
note_on channel=0 note=43 velocity=0 time=12
note_on channel=0 note=71 velocity=77 time=0
note_on channel=0 note=79 velocity=77 time=0
note_on channel=0 note=31 velocity=61 time=0
note_on channel=0 note=79 velocity=0 time=90
note_on channel=0 note=71 velocity=0 time=0
note_on channel=0 note=43 velocity=61 time=30
note_on channel=0 note=31 velocity=0 time=108
note_on channel=0 note=43 velocity=0 time=12
note_on channel=0 note=84 velocity=79 time=0
note_on channel=0 note=78 velocity=79 time=0
note_on channel=0 note=31 velocity=62 time=0
note_on channel=0 note=78 velocity=0 time=90
note_on channel=0 note=84 velocity=0 time=0
note_on channel=0 note=43 velocity=63 time=30
note_on channel=0 note=31 velocity=0 time=108
note_on channel=0 note=43 velocity=0 time=0
note_on channel=0 note=83 velocity=81 time=0
note_on channel=0 note=79 velocity=81 time=0
note_on channel=0 note=31 velocity=64 time=0
note_on channel=0 note=79 velocity=0 time=120
note_on channel=0 note=83 velocity=0 time=0
note_on channel=0 note=43 velocity=55 time=0
note_on channel=0 note=31 velocity=0 time=108
note_on channel=0 note=43 velocity=0 time=12
note_on channel=0 note=31 velocity=61 time=0
note_on channel=0 note=43 velocity=55 time=120
note_on channel=0 note=31 velocity=0 time=108
note_on channel=0 note=43 velocity=0 time=12
note_on channel=0 note=31 velocity=61 time=0
note_on channel=0 note=43 velocity=55 time=120
note_on channel=0 note=31 velocity=0 time=108
note_on channel=0 note=43 velocity=0 time=12
note_on channel=0 note=31 velocity=60 time=0
note_on channel=0 note=43 velocity=55 time=120
note_on channel=0 note=31 velocity=0 time=108
note_on channel=0 note=43 velocity=0 time=0
note_on channel=0 note=58 velocity=81 time=0
note_on channel=0 note=61 velocity=81 time=0
note_on channel=0 note=63 velocity=84 time=0
note_on channel=0 note=31 velocity=64 time=0
note_on channel=0 note=43 velocity=55 time=120
note_on channel=0 note=31 velocity=0 time=108
note_on channel=0 note=43 velocity=0 time=12
note_on channel=0 note=31 velocity=61 time=0
note_on channel=0 note=43 velocity=55 time=120
note_on channel=0 note=31 velocity=0 time=108
note_on channel=0 note=43 velocity=0 time=12
note_on channel=0 note=31 velocity=61 time=0
note_on channel=0 note=43 velocity=55 time=120
note_on channel=0 note=31 velocity=0 time=108
note_on channel=0 note=43 velocity=0 time=12
note_on channel=0 note=31 velocity=60 time=0
note_on channel=0 note=43 velocity=55 time=120
note_on channel=0 note=31 velocity=0 time=108
note_on channel=0 note=58 velocity=0 time=0
note_on channel=0 note=61 velocity=0 time=0
note_on channel=0 note=43 velocity=0 time=0
note_on channel=0 note=60 velocity=67 time=0
note_on channel=0 note=32 velocity=50 time=0
note_on channel=0 note=44 velocity=51 time=120
note_on channel=0 note=32 velocity=0 time=108
note_on channel=0 note=63 velocity=0 time=0
note_on channel=0 note=60 velocity=0 time=0
note_on channel=0 note=44 velocity=0 time=0
note_on channel=0 note=73 velocity=67 time=0
note_on channel=0 note=32 velocity=51 time=0
note_on channel=0 note=73 velocity=0 time=90
note_on channel=0 note=44 velocity=52 time=30
note_on channel=0 note=32 velocity=0 time=108
note_on channel=0 note=44 velocity=0 time=0
note_on channel=0 note=72 velocity=69 time=0
note_on channel=0 note=32 velocity=53 time=0
note_on channel=0 note=72 velocity=0 time=90
note_on channel=0 note=44 velocity=54 time=30
note_on channel=0 note=32 velocity=0 time=108
note_on channel=0 note=44 velocity=0 time=12
note_on channel=0 note=73 velocity=71 time=0
note_on channel=0 note=79 velocity=71 time=0
note_on channel=0 note=32 velocity=55 time=0
note_on channel=0 note=79 velocity=0 time=90
note_on channel=0 note=73 velocity=0 time=0
note_on channel=0 note=44 velocity=56 time=30
note_on channel=0 note=32 velocity=0 time=108
note_on channel=0 note=44 velocity=0 time=12
note_on channel=0 note=72 velocity=73 time=0
note_on channel=0 note=80 velocity=73 time=0
note_on channel=0 note=32 velocity=57 time=0
note_on channel=0 note=80 velocity=0 time=90
note_on channel=0 note=72 velocity=0 time=0
note_on channel=0 note=44 velocity=58 time=30
note_on channel=0 note=32 velocity=0 time=108
note_on channel=0 note=44 velocity=0 time=12
note_on channel=0 note=79 velocity=75 time=0
note_on channel=0 note=85 velocity=75 time=0
note_on channel=0 note=32 velocity=59 time=0
note_on channel=0 note=85 velocity=0 time=90
note_on channel=0 note=79 velocity=0 time=0
note_on channel=0 note=44 velocity=60 time=30
note_on channel=0 note=32 velocity=0 time=108
note_on channel=0 note=44 velocity=0 time=12
note_on channel=0 note=80 velocity=77 time=0
note_on channel=0 note=84 velocity=77 time=0
note_on channel=0 note=32 velocity=61 time=0
note_on channel=0 note=84 velocity=0 time=90
note_on channel=0 note=80 velocity=0 time=0
note_on channel=0 note=44 velocity=61 time=30
note_on channel=0 note=32 velocity=0 time=108
note_on channel=0 note=44 velocity=0 time=12
note_on channel=0 note=85 velocity=79 time=0
note_on channel=0 note=79 velocity=79 time=0
note_on channel=0 note=32 velocity=62 time=0
note_on channel=0 note=79 velocity=0 time=90
note_on channel=0 note=85 velocity=0 time=0
note_on channel=0 note=44 velocity=63 time=30
note_on channel=0 note=32 velocity=0 time=108
note_on channel=0 note=44 velocity=0 time=0
note_on channel=0 note=84 velocity=81 time=0
note_on channel=0 note=80 velocity=81 time=0
note_on channel=0 note=32 velocity=64 time=0
note_on channel=0 note=80 velocity=0 time=120
note_on channel=0 note=84 velocity=0 time=0
note_on channel=0 note=44 velocity=55 time=0
note_on channel=0 note=32 velocity=0 time=108
note_on channel=0 note=44 velocity=0 time=12
note_on channel=0 note=32 velocity=61 time=0
note_on channel=0 note=44 velocity=55 time=120
note_on channel=0 note=32 velocity=0 time=108
note_on channel=0 note=44 velocity=0 time=12
note_on channel=0 note=32 velocity=61 time=0
note_on channel=0 note=44 velocity=55 time=120
note_on channel=0 note=32 velocity=0 time=108
note_on channel=0 note=44 velocity=0 time=12
note_on channel=0 note=32 velocity=60 time=0
note_on channel=0 note=44 velocity=55 time=120
note_on channel=0 note=32 velocity=0 time=108
note_on channel=0 note=44 velocity=0 time=0
note_on channel=0 note=60 velocity=81 time=0
note_on channel=0 note=63 velocity=81 time=0
note_on channel=0 note=66 velocity=84 time=0
note_on channel=0 note=33 velocity=64 time=0
note_on channel=0 note=45 velocity=55 time=120
note_on channel=0 note=33 velocity=0 time=108
note_on channel=0 note=45 velocity=0 time=12
note_on channel=0 note=33 velocity=61 time=0
note_on channel=0 note=45 velocity=55 time=120
note_on channel=0 note=33 velocity=0 time=108
note_on channel=0 note=45 velocity=0 time=12
note_on channel=0 note=33 velocity=61 time=0
note_on channel=0 note=45 velocity=55 time=120
note_on channel=0 note=33 velocity=0 time=108
note_on channel=0 note=45 velocity=0 time=12
note_on channel=0 note=33 velocity=60 time=0
note_on channel=0 note=45 velocity=55 time=120
note_on channel=0 note=33 velocity=0 time=108
note_on channel=0 note=60 velocity=0 time=0
note_on channel=0 note=66 velocity=0 time=0
note_on channel=0 note=63 velocity=0 time=0
note_on channel=0 note=45 velocity=0 time=0
note_on channel=0 note=62 velocity=67 time=0
note_on channel=0 note=65 velocity=67 time=0
note_on channel=0 note=34 velocity=50 time=0
note_on channel=0 note=46 velocity=51 time=120
note_on channel=0 note=34 velocity=0 time=108
note_on channel=0 note=62 velocity=0 time=0
note_on channel=0 note=65 velocity=0 time=0
note_on channel=0 note=46 velocity=0 time=0
note_on channel=0 note=69 velocity=62 time=0
note_on channel=0 note=75 velocity=67 time=0
note_on channel=0 note=34 velocity=51 time=0
note_on channel=0 note=75 velocity=0 time=90
note_on channel=0 note=69 velocity=0 time=0
note_on channel=0 note=46 velocity=52 time=30
note_on channel=0 note=34 velocity=0 time=108
note_on channel=0 note=46 velocity=0 time=0
note_on channel=0 note=70 velocity=65 time=0
note_on channel=0 note=74 velocity=69 time=0
note_on channel=0 note=34 velocity=53 time=0
note_on channel=0 note=74 velocity=0 time=90
note_on channel=0 note=70 velocity=0 time=0
note_on channel=0 note=46 velocity=54 time=30
note_on channel=0 note=34 velocity=0 time=108
note_on channel=0 note=46 velocity=0 time=12
note_on channel=0 note=75 velocity=71 time=0
note_on channel=0 note=81 velocity=71 time=0
note_on channel=0 note=34 velocity=55 time=0
note_on channel=0 note=81 velocity=0 time=90
note_on channel=0 note=75 velocity=0 time=0
note_on channel=0 note=46 velocity=56 time=30
note_on channel=0 note=34 velocity=0 time=108
note_on channel=0 note=46 velocity=0 time=12
note_on channel=0 note=74 velocity=73 time=0
note_on channel=0 note=82 velocity=73 time=0
note_on channel=0 note=34 velocity=57 time=0
note_on channel=0 note=82 velocity=0 time=90
note_on channel=0 note=74 velocity=0 time=0
note_on channel=0 note=46 velocity=58 time=30
note_on channel=0 note=34 velocity=0 time=108
note_on channel=0 note=46 velocity=0 time=12
note_on channel=0 note=81 velocity=75 time=0
note_on channel=0 note=87 velocity=75 time=0
note_on channel=0 note=34 velocity=59 time=0
note_on channel=0 note=87 velocity=0 time=90
note_on channel=0 note=81 velocity=0 time=0
note_on channel=0 note=46 velocity=60 time=30
note_on channel=0 note=34 velocity=0 time=108
note_on channel=0 note=46 velocity=0 time=12
note_on channel=0 note=82 velocity=77 time=0
note_on channel=0 note=86 velocity=77 time=0
note_on channel=0 note=34 velocity=61 time=0
note_on channel=0 note=86 velocity=0 time=90
note_on channel=0 note=82 velocity=0 time=0
note_on channel=0 note=46 velocity=61 time=30
note_on channel=0 note=34 velocity=0 time=108
note_on channel=0 note=46 velocity=0 time=12
note_on channel=0 note=87 velocity=79 time=0
note_on channel=0 note=81 velocity=79 time=0
note_on channel=0 note=34 velocity=62 time=0
note_on channel=0 note=81 velocity=0 time=90
note_on channel=0 note=87 velocity=0 time=0
note_on channel=0 note=46 velocity=63 time=30
note_on channel=0 note=34 velocity=0 time=108
note_on channel=0 note=46 velocity=0 time=0
note_on channel=0 note=86 velocity=81 time=0
note_on channel=0 note=82 velocity=81 time=0
note_on channel=0 note=34 velocity=64 time=0
note_on channel=0 note=82 velocity=0 time=120
note_on channel=0 note=86 velocity=0 time=0
note_on channel=0 note=46 velocity=55 time=0
note_on channel=0 note=34 velocity=0 time=108
note_on channel=0 note=46 velocity=0 time=12
note_on channel=0 note=34 velocity=61 time=0
note_on channel=0 note=46 velocity=55 time=120
note_on channel=0 note=34 velocity=0 time=108
note_on channel=0 note=46 velocity=0 time=0
note_on channel=0 note=75 velocity=81 time=0
note_on channel=0 note=81 velocity=81 time=0
note_on channel=0 note=34 velocity=61 time=0
note_on channel=0 note=46 velocity=55 time=120
note_on channel=0 note=34 velocity=0 time=108
note_on channel=0 note=46 velocity=0 time=12
note_on channel=0 note=34 velocity=60 time=0
note_on channel=0 note=46 velocity=55 time=120
note_on channel=0 note=34 velocity=0 time=108
note_on channel=0 note=75 velocity=0 time=12
note_on channel=0 note=81 velocity=0 time=0
note_on channel=0 note=46 velocity=0 time=0
note_on channel=0 note=74 velocity=81 time=0
note_on channel=0 note=82 velocity=81 time=0
note_on channel=0 note=34 velocity=64 time=0
note_on channel=0 note=46 velocity=55 time=100
note_on channel=0 note=34 velocity=0 time=108
note_on channel=0 note=74 velocity=0 time=12
note_on channel=0 note=82 velocity=0 time=0
note_on channel=0 note=46 velocity=0 time=0
note_on channel=0 note=34 velocity=61 time=0
note_on channel=0 note=46 velocity=55 time=120
note_on channel=0 note=34 velocity=0 time=108
note_on channel=0 note=46 velocity=0 time=0
note_on channel=0 note=69 velocity=81 time=0
note_on channel=0 note=75 velocity=81 time=0
note_on channel=0 note=34 velocity=61 time=0
note_on channel=0 note=46 velocity=55 time=120
note_on channel=0 note=34 velocity=0 time=108
note_on channel=0 note=46 velocity=0 time=12
note_on channel=0 note=34 velocity=60 time=0
note_on channel=0 note=46 velocity=55 time=120
note_on channel=0 note=34 velocity=0 time=108
note_on channel=0 note=69 velocity=0 time=0
note_on channel=0 note=75 velocity=0 time=0
note_on channel=0 note=46 velocity=0 time=0
note_on channel=0 note=70 velocity=81 time=0
note_on channel=0 note=74 velocity=81 time=0
note_on channel=0 note=34 velocity=64 time=0
note_on channel=0 note=46 velocity=55 time=120
note_on channel=0 note=34 velocity=0 time=108
note_on channel=0 note=70 velocity=0 time=12
note_on channel=0 note=74 velocity=0 time=0
note_on channel=0 note=46 velocity=0 time=0
note_on channel=0 note=34 velocity=61 time=0
note_on channel=0 note=46 velocity=55 time=120
note_on channel=0 note=34 velocity=0 time=108
note_on channel=0 note=46 velocity=0 time=0
note_on channel=0 note=63 velocity=81 time=0
note_on channel=0 note=69 velocity=81 time=0
note_on channel=0 note=34 velocity=61 time=0
note_on channel=0 note=46 velocity=55 time=120
note_on channel=0 note=34 velocity=0 time=108
note_on channel=0 note=46 velocity=0 time=12
note_on channel=0 note=34 velocity=60 time=0
note_on channel=0 note=46 velocity=55 time=120
note_on channel=0 note=34 velocity=0 time=108
note_on channel=0 note=63 velocity=0 time=0
note_on channel=0 note=69 velocity=0 time=0
note_on channel=0 note=46 velocity=0 time=0
note_on channel=0 note=62 velocity=81 time=0
note_on channel=0 note=70 velocity=81 time=0
note_on channel=0 note=34 velocity=64 time=0
note_on channel=0 note=46 velocity=55 time=100
note_on channel=0 note=34 velocity=0 time=108
note_on channel=0 note=62 velocity=0 time=12
note_on channel=0 note=70 velocity=0 time=0
note_on channel=0 note=46 velocity=0 time=0
note_on channel=0 note=34 velocity=61 time=0
note_on channel=0 note=46 velocity=55 time=120
note_on channel=0 note=34 velocity=0 time=108
note_on channel=0 note=46 velocity=0 time=12
note_on channel=0 note=57 velocity=81 time=0
note_on channel=0 note=63 velocity=81 time=0
note_on channel=0 note=34 velocity=61 time=0
note_on channel=0 note=46 velocity=55 time=120
note_on channel=0 note=34 velocity=0 time=108
note_on channel=0 note=46 velocity=0 time=12
note_on channel=0 note=34 velocity=60 time=0
note_on channel=0 note=46 velocity=55 time=120
note_on channel=0 note=34 velocity=0 time=108
note_on channel=0 note=57 velocity=0 time=0
note_on channel=0 note=63 velocity=0 time=0
note_on channel=0 note=46 velocity=0 time=0
note_on channel=0 note=58 velocity=81 time=0
note_on channel=0 note=62 velocity=81 time=0
note_on channel=0 note=46 velocity=55 time=0
note_on channel=0 note=34 velocity=64 time=0
note_on channel=0 note=34 velocity=0 time=240
note_on channel=0 note=58 velocity=0 time=0
note_on channel=0 note=62 velocity=0 time=0
note_on channel=0 note=46 velocity=0 time=0
note_on channel=0 note=57 velocity=50 time=0
note_on channel=0 note=57 velocity=0 time=240
note_on channel=0 note=58 velocity=59 time=0
note_on channel=0 note=58 velocity=0 time=240
note_on channel=0 note=57 velocity=56 time=0
note_on channel=0 note=57 velocity=0 time=240
note_on channel=0 note=58 velocity=57 time=0
note_on channel=0 note=58 velocity=0 time=240
note_on channel=0 note=57 velocity=49 time=0
note_on channel=0 note=57 velocity=0 time=240
note_on channel=0 note=58 velocity=57 time=0
note_on channel=0 note=58 velocity=0 time=240
note_on channel=0 note=57 velocity=51 time=0
note_on channel=0 note=57 velocity=0 time=0
note_on channel=0 note=58 velocity=44 time=0
note_on channel=0 note=46 velocity=55 time=0
note_on channel=0 note=63 velocity=38 time=0
note_on channel=0 note=66 velocity=38 time=0
note_on channel=0 note=46 velocity=0 time=120
note_on channel=0 note=66 velocity=0 time=108
note_on channel=0 note=63 velocity=0 time=0
note_on channel=0 note=51 velocity=58 time=0
note_on channel=0 note=63 velocity=38 time=0
note_on channel=0 note=66 velocity=38 time=0
note_on channel=0 note=51 velocity=0 time=120
note_on channel=0 note=66 velocity=0 time=108
note_on channel=0 note=63 velocity=0 time=0
note_on channel=0 note=53 velocity=61 time=12
note_on channel=0 note=63 velocity=38 time=0
note_on channel=0 note=66 velocity=38 time=0
note_on channel=0 note=53 velocity=0 time=120
note_on channel=0 note=66 velocity=0 time=108
note_on channel=0 note=63 velocity=0 time=0
note_on channel=0 note=58 velocity=0 time=0
note_on channel=0 note=54 velocity=64 time=0
note_on channel=0 note=58 velocity=44 time=0
note_on channel=0 note=54 velocity=0 time=120
note_on channel=0 note=70 velocity=62 time=120
note_on channel=0 note=63 velocity=38 time=0
note_on channel=0 note=66 velocity=38 time=0
note_on channel=0 note=70 velocity=0 time=120
note_on channel=0 note=66 velocity=0 time=108
note_on channel=0 note=63 velocity=0 time=0
note_on channel=0 note=75 velocity=64 time=0
note_on channel=0 note=63 velocity=38 time=0
note_on channel=0 note=66 velocity=38 time=0
note_on channel=0 note=75 velocity=0 time=120
note_on channel=0 note=66 velocity=0 time=108
note_on channel=0 note=63 velocity=0 time=0
note_on channel=0 note=77 velocity=66 time=12
note_on channel=0 note=63 velocity=38 time=0
note_on channel=0 note=66 velocity=38 time=0
note_on channel=0 note=77 velocity=0 time=120
note_on channel=0 note=70 velocity=65 time=60
note_on channel=0 note=66 velocity=0 time=48
note_on channel=0 note=63 velocity=0 time=0
note_on channel=0 note=58 velocity=0 time=0
note_on channel=0 note=70 velocity=0 time=0
note_on channel=0 note=78 velocity=75 time=0
note_on channel=0 note=58 velocity=44 time=0
note_on channel=0 note=63 velocity=38 time=0
note_on channel=0 note=66 velocity=38 time=0
note_on channel=0 note=66 velocity=0 time=228
note_on channel=0 note=63 velocity=0 time=0
note_on channel=0 note=63 velocity=38 time=12
note_on channel=0 note=66 velocity=38 time=0
note_on channel=0 note=66 velocity=0 time=228
note_on channel=0 note=63 velocity=0 time=0
note_on channel=0 note=78 velocity=0 time=0
note_on channel=0 note=75 velocity=63 time=0
note_on channel=0 note=63 velocity=38 time=0
note_on channel=0 note=66 velocity=38 time=0
note_on channel=0 note=70 velocity=60 time=180
note_on channel=0 note=66 velocity=0 time=48
note_on channel=0 note=63 velocity=0 time=0
note_on channel=0 note=58 velocity=0 time=12
note_on channel=0 note=75 velocity=0 time=0
note_on channel=0 note=70 velocity=0 time=0
note_on channel=0 note=78 velocity=71 time=0
note_on channel=0 note=58 velocity=44 time=0
note_on channel=0 note=63 velocity=38 time=0
note_on channel=0 note=66 velocity=38 time=0
note_on channel=0 note=66 velocity=0 time=228
note_on channel=0 note=63 velocity=0 time=0
note_on channel=0 note=63 velocity=38 time=12
note_on channel=0 note=66 velocity=38 time=0
note_on channel=0 note=66 velocity=0 time=228
note_on channel=0 note=63 velocity=0 time=0
note_on channel=0 note=78 velocity=0 time=0
note_on channel=0 note=75 velocity=58 time=0
note_on channel=0 note=63 velocity=38 time=0
note_on channel=0 note=66 velocity=38 time=0
note_on channel=0 note=66 velocity=0 time=0
note_on channel=0 note=58 velocity=0 time=0
note_on channel=0 note=75 velocity=0 time=0
note_on channel=0 note=63 velocity=0 time=0
note_on channel=0 note=74 velocity=60 time=0
note_on channel=0 note=58 velocity=44 time=0
note_on channel=0 note=74 velocity=0 time=0
note_on channel=0 note=46 velocity=57 time=0
note_on channel=0 note=65 velocity=38 time=0
note_on channel=0 note=68 velocity=38 time=0
note_on channel=0 note=46 velocity=0 time=120
note_on channel=0 note=68 velocity=0 time=108
note_on channel=0 note=65 velocity=0 time=0
note_on channel=0 note=53 velocity=60 time=0
note_on channel=0 note=65 velocity=38 time=0
note_on channel=0 note=68 velocity=38 time=0
note_on channel=0 note=53 velocity=0 time=120
note_on channel=0 note=68 velocity=0 time=108
note_on channel=0 note=65 velocity=0 time=0
note_on channel=0 note=54 velocity=63 time=12
note_on channel=0 note=65 velocity=38 time=0
note_on channel=0 note=68 velocity=38 time=0
note_on channel=0 note=54 velocity=0 time=120
note_on channel=0 note=68 velocity=0 time=108
note_on channel=0 note=65 velocity=0 time=0
note_on channel=0 note=58 velocity=0 time=0
note_on channel=0 note=56 velocity=66 time=0
note_on channel=0 note=58 velocity=44 time=0
note_on channel=0 note=56 velocity=0 time=120
note_on channel=0 note=70 velocity=59 time=120
note_on channel=0 note=65 velocity=38 time=0
note_on channel=0 note=68 velocity=38 time=0
note_on channel=0 note=68 velocity=0 time=228
note_on channel=0 note=65 velocity=0 time=0
note_on channel=0 note=70 velocity=0 time=0
note_on channel=0 note=80 velocity=62 time=0
note_on channel=0 note=65 velocity=38 time=0
note_on channel=0 note=68 velocity=38 time=0
note_on channel=0 note=68 velocity=0 time=228
note_on channel=0 note=65 velocity=0 time=0
note_on channel=0 note=80 velocity=0 time=12
note_on channel=0 note=78 velocity=65 time=0
note_on channel=0 note=65 velocity=38 time=0
note_on channel=0 note=68 velocity=38 time=0
note_on channel=0 note=68 velocity=0 time=228
note_on channel=0 note=65 velocity=0 time=0
note_on channel=0 note=78 velocity=0 time=0
note_on channel=0 note=58 velocity=0 time=0
note_on channel=0 note=78 velocity=60 time=0
note_on channel=0 note=58 velocity=44 time=0
note_on channel=0 note=78 velocity=0 time=60
note_on channel=0 note=80 velocity=60 time=0
note_on channel=0 note=80 velocity=0 time=60
note_on channel=0 note=78 velocity=67 time=0
note_on channel=0 note=78 velocity=0 time=120
note_on channel=0 note=77 velocity=60 time=0
note_on channel=0 note=65 velocity=38 time=0
note_on channel=0 note=68 velocity=38 time=0
note_on channel=0 note=68 velocity=0 time=228
note_on channel=0 note=65 velocity=0 time=0
note_on channel=0 note=77 velocity=0 time=12
note_on channel=0 note=77 velocity=60 time=0
note_on channel=0 note=65 velocity=38 time=0
note_on channel=0 note=68 velocity=38 time=0
note_on channel=0 note=77 velocity=0 time=60
note_on channel=0 note=78 velocity=60 time=0
note_on channel=0 note=78 velocity=0 time=60
note_on channel=0 note=77 velocity=67 time=0
note_on channel=0 note=68 velocity=0 time=108
note_on channel=0 note=65 velocity=0 time=0
note_on channel=0 note=77 velocity=0 time=12
note_on channel=0 note=75 velocity=60 time=0
note_on channel=0 note=65 velocity=38 time=0
note_on channel=0 note=68 velocity=38 time=0
note_on channel=0 note=68 velocity=0 time=228
note_on channel=0 note=65 velocity=0 time=0
note_on channel=0 note=75 velocity=0 time=12
note_on channel=0 note=58 velocity=0 time=0
note_on channel=0 note=75 velocity=60 time=0
note_on channel=0 note=58 velocity=44 time=0
note_on channel=0 note=75 velocity=0 time=60
note_on channel=0 note=77 velocity=60 time=0
note_on channel=0 note=77 velocity=0 time=60
note_on channel=0 note=75 velocity=66 time=0
note_on channel=0 note=75 velocity=0 time=120
note_on channel=0 note=74 velocity=60 time=0
note_on channel=0 note=65 velocity=38 time=0
note_on channel=0 note=68 velocity=38 time=0
note_on channel=0 note=68 velocity=0 time=228
note_on channel=0 note=65 velocity=0 time=0
note_on channel=0 note=74 velocity=0 time=12
note_on channel=0 note=72 velocity=60 time=0
note_on channel=0 note=65 velocity=38 time=0
note_on channel=0 note=68 velocity=38 time=0
note_on channel=0 note=72 velocity=0 time=120
note_on channel=0 note=68 velocity=0 time=108
note_on channel=0 note=65 velocity=0 time=0
note_on channel=0 note=74 velocity=60 time=12
note_on channel=0 note=65 velocity=38 time=0
note_on channel=0 note=68 velocity=38 time=0
note_on channel=0 note=74 velocity=0 time=120
note_on channel=0 note=68 velocity=0 time=108
note_on channel=0 note=65 velocity=0 time=0
note_on channel=0 note=58 velocity=0 time=0
note_on channel=0 note=75 velocity=60 time=0
note_on channel=0 note=58 velocity=44 time=0
note_on channel=0 note=75 velocity=0 time=0
note_on channel=0 note=46 velocity=55 time=0
note_on channel=0 note=63 velocity=38 time=0
note_on channel=0 note=66 velocity=38 time=0
note_on channel=0 note=46 velocity=0 time=120
note_on channel=0 note=66 velocity=0 time=108
note_on channel=0 note=63 velocity=0 time=0
note_on channel=0 note=51 velocity=58 time=0
note_on channel=0 note=63 velocity=38 time=0
note_on channel=0 note=66 velocity=38 time=0
note_on channel=0 note=51 velocity=0 time=120
note_on channel=0 note=66 velocity=0 time=108
note_on channel=0 note=63 velocity=0 time=0
note_on channel=0 note=53 velocity=61 time=12
note_on channel=0 note=63 velocity=38 time=0
note_on channel=0 note=66 velocity=38 time=0
note_on channel=0 note=53 velocity=0 time=120
note_on channel=0 note=66 velocity=0 time=108
note_on channel=0 note=63 velocity=0 time=0
note_on channel=0 note=58 velocity=0 time=0
note_on channel=0 note=54 velocity=64 time=0
note_on channel=0 note=58 velocity=44 time=0
note_on channel=0 note=54 velocity=0 time=120
note_on channel=0 note=70 velocity=62 time=120
note_on channel=0 note=63 velocity=38 time=0
note_on channel=0 note=66 velocity=38 time=0
note_on channel=0 note=70 velocity=0 time=120
note_on channel=0 note=66 velocity=0 time=108
note_on channel=0 note=63 velocity=0 time=0
note_on channel=0 note=75 velocity=64 time=0
note_on channel=0 note=63 velocity=38 time=0
note_on channel=0 note=66 velocity=38 time=0
note_on channel=0 note=75 velocity=0 time=120
note_on channel=0 note=66 velocity=0 time=108
note_on channel=0 note=63 velocity=0 time=0
note_on channel=0 note=77 velocity=66 time=12
note_on channel=0 note=63 velocity=38 time=0
note_on channel=0 note=66 velocity=38 time=0
note_on channel=0 note=77 velocity=0 time=120
note_on channel=0 note=70 velocity=65 time=60
note_on channel=0 note=66 velocity=0 time=48
note_on channel=0 note=63 velocity=0 time=0
note_on channel=0 note=58 velocity=0 time=0
note_on channel=0 note=70 velocity=0 time=0
note_on channel=0 note=78 velocity=75 time=0
note_on channel=0 note=58 velocity=44 time=0
note_on channel=0 note=63 velocity=38 time=0
note_on channel=0 note=66 velocity=38 time=0
note_on channel=0 note=66 velocity=0 time=228
note_on channel=0 note=63 velocity=0 time=0
note_on channel=0 note=63 velocity=38 time=12
note_on channel=0 note=66 velocity=38 time=0
note_on channel=0 note=66 velocity=0 time=228
note_on channel=0 note=63 velocity=0 time=0
note_on channel=0 note=78 velocity=0 time=0
note_on channel=0 note=75 velocity=63 time=0
note_on channel=0 note=63 velocity=38 time=0
note_on channel=0 note=66 velocity=38 time=0
note_on channel=0 note=70 velocity=60 time=180
note_on channel=0 note=66 velocity=0 time=48
note_on channel=0 note=63 velocity=0 time=0
note_on channel=0 note=58 velocity=0 time=12
note_on channel=0 note=75 velocity=0 time=0
note_on channel=0 note=70 velocity=0 time=0
note_on channel=0 note=78 velocity=71 time=0
note_on channel=0 note=58 velocity=44 time=0
note_on channel=0 note=63 velocity=38 time=0
note_on channel=0 note=66 velocity=38 time=0
note_on channel=0 note=66 velocity=0 time=228
note_on channel=0 note=63 velocity=0 time=0
note_on channel=0 note=63 velocity=38 time=12
note_on channel=0 note=66 velocity=38 time=0
note_on channel=0 note=66 velocity=0 time=228
note_on channel=0 note=63 velocity=0 time=0
note_on channel=0 note=78 velocity=0 time=0
note_on channel=0 note=75 velocity=58 time=0
note_on channel=0 note=63 velocity=38 time=0
note_on channel=0 note=66 velocity=38 time=0
note_on channel=0 note=66 velocity=0 time=228
note_on channel=0 note=63 velocity=0 time=0
note_on channel=0 note=75 velocity=0 time=0
note_on channel=0 note=58 velocity=0 time=0
note_on channel=0 note=72 velocity=60 time=0
note_on channel=0 note=56 velocity=44 time=0
note_on channel=0 note=72 velocity=0 time=0
note_on channel=0 note=44 velocity=57 time=0
note_on channel=0 note=63 velocity=38 time=0
note_on channel=0 note=66 velocity=38 time=0
note_on channel=0 note=44 velocity=0 time=120
note_on channel=0 note=66 velocity=0 time=108
note_on channel=0 note=63 velocity=0 time=0
note_on channel=0 note=51 velocity=60 time=0
note_on channel=0 note=63 velocity=38 time=0
note_on channel=0 note=66 velocity=38 time=0
note_on channel=0 note=51 velocity=0 time=120
note_on channel=0 note=66 velocity=0 time=108
note_on channel=0 note=63 velocity=0 time=0
note_on channel=0 note=53 velocity=63 time=12
note_on channel=0 note=63 velocity=38 time=0
note_on channel=0 note=66 velocity=38 time=0
note_on channel=0 note=53 velocity=0 time=120
note_on channel=0 note=66 velocity=0 time=108
note_on channel=0 note=63 velocity=0 time=0
note_on channel=0 note=56 velocity=0 time=0
note_on channel=0 note=54 velocity=66 time=0
note_on channel=0 note=56 velocity=44 time=0
note_on channel=0 note=54 velocity=0 time=120
note_on channel=0 note=68 velocity=59 time=120
note_on channel=0 note=63 velocity=38 time=0
note_on channel=0 note=66 velocity=38 time=0
note_on channel=0 note=66 velocity=0 time=228
note_on channel=0 note=63 velocity=0 time=0
note_on channel=0 note=68 velocity=0 time=0
note_on channel=0 note=78 velocity=62 time=0
note_on channel=0 note=63 velocity=38 time=0
note_on channel=0 note=66 velocity=38 time=0
note_on channel=0 note=66 velocity=0 time=228
note_on channel=0 note=63 velocity=0 time=0
note_on channel=0 note=78 velocity=0 time=12
note_on channel=0 note=77 velocity=65 time=0
note_on channel=0 note=63 velocity=38 time=0
note_on channel=0 note=66 velocity=38 time=0
note_on channel=0 note=66 velocity=0 time=228
note_on channel=0 note=63 velocity=0 time=0
note_on channel=0 note=77 velocity=0 time=0
note_on channel=0 note=56 velocity=0 time=0
note_on channel=0 note=77 velocity=60 time=0
note_on channel=0 note=56 velocity=44 time=0
note_on channel=0 note=77 velocity=0 time=60
note_on channel=0 note=78 velocity=60 time=0
note_on channel=0 note=78 velocity=0 time=60
note_on channel=0 note=77 velocity=67 time=0
note_on channel=0 note=77 velocity=0 time=120
note_on channel=0 note=75 velocity=60 time=0
note_on channel=0 note=63 velocity=38 time=0
note_on channel=0 note=66 velocity=38 time=0
note_on channel=0 note=66 velocity=0 time=228
note_on channel=0 note=63 velocity=0 time=0
note_on channel=0 note=75 velocity=0 time=12
note_on channel=0 note=75 velocity=60 time=0
note_on channel=0 note=63 velocity=38 time=0
note_on channel=0 note=66 velocity=38 time=0
note_on channel=0 note=75 velocity=0 time=60
note_on channel=0 note=77 velocity=60 time=0
note_on channel=0 note=77 velocity=0 time=60
note_on channel=0 note=75 velocity=67 time=0
note_on channel=0 note=66 velocity=0 time=108
note_on channel=0 note=63 velocity=0 time=0
note_on channel=0 note=75 velocity=0 time=12
note_on channel=0 note=73 velocity=60 time=0
note_on channel=0 note=63 velocity=38 time=0
note_on channel=0 note=66 velocity=38 time=0
note_on channel=0 note=66 velocity=0 time=228
note_on channel=0 note=63 velocity=0 time=0
note_on channel=0 note=73 velocity=0 time=12
note_on channel=0 note=56 velocity=0 time=0
note_on channel=0 note=73 velocity=60 time=0
note_on channel=0 note=56 velocity=44 time=0
note_on channel=0 note=73 velocity=0 time=60
note_on channel=0 note=75 velocity=60 time=0
note_on channel=0 note=75 velocity=0 time=60
note_on channel=0 note=73 velocity=66 time=0
note_on channel=0 note=73 velocity=0 time=120
note_on channel=0 note=72 velocity=60 time=0
note_on channel=0 note=63 velocity=38 time=0
note_on channel=0 note=66 velocity=38 time=0
note_on channel=0 note=66 velocity=0 time=228
note_on channel=0 note=63 velocity=0 time=0
note_on channel=0 note=72 velocity=0 time=12
note_on channel=0 note=70 velocity=60 time=0
note_on channel=0 note=63 velocity=38 time=0
note_on channel=0 note=66 velocity=38 time=0
note_on channel=0 note=70 velocity=0 time=120
note_on channel=0 note=66 velocity=0 time=108
note_on channel=0 note=63 velocity=0 time=0
note_on channel=0 note=72 velocity=60 time=12
note_on channel=0 note=63 velocity=38 time=0
note_on channel=0 note=66 velocity=38 time=0
note_on channel=0 note=72 velocity=0 time=120
note_on channel=0 note=66 velocity=0 time=108
note_on channel=0 note=63 velocity=0 time=0
note_on channel=0 note=56 velocity=0 time=0
note_on channel=0 note=73 velocity=60 time=0
note_on channel=0 note=56 velocity=44 time=0
note_on channel=0 note=73 velocity=0 time=0
note_on channel=0 note=44 velocity=55 time=0
note_on channel=0 note=61 velocity=38 time=0
note_on channel=0 note=65 velocity=38 time=0
note_on channel=0 note=44 velocity=0 time=120
note_on channel=0 note=65 velocity=0 time=108
note_on channel=0 note=61 velocity=0 time=0
note_on channel=0 note=49 velocity=58 time=0
note_on channel=0 note=61 velocity=38 time=0
note_on channel=0 note=65 velocity=38 time=0
note_on channel=0 note=49 velocity=0 time=120
note_on channel=0 note=65 velocity=0 time=108
note_on channel=0 note=61 velocity=0 time=0
note_on channel=0 note=51 velocity=61 time=12
note_on channel=0 note=61 velocity=38 time=0
note_on channel=0 note=65 velocity=38 time=0
note_on channel=0 note=51 velocity=0 time=120
note_on channel=0 note=65 velocity=0 time=108
note_on channel=0 note=61 velocity=0 time=0
note_on channel=0 note=56 velocity=0 time=0
note_on channel=0 note=53 velocity=64 time=0
note_on channel=0 note=56 velocity=44 time=0
note_on channel=0 note=53 velocity=0 time=120
note_on channel=0 note=68 velocity=62 time=120
note_on channel=0 note=61 velocity=38 time=0
note_on channel=0 note=65 velocity=38 time=0
note_on channel=0 note=68 velocity=0 time=120
note_on channel=0 note=65 velocity=0 time=108
note_on channel=0 note=61 velocity=0 time=0
note_on channel=0 note=73 velocity=64 time=0
note_on channel=0 note=61 velocity=38 time=0
note_on channel=0 note=65 velocity=38 time=0
note_on channel=0 note=73 velocity=0 time=120
note_on channel=0 note=65 velocity=0 time=108
note_on channel=0 note=61 velocity=0 time=0
note_on channel=0 note=75 velocity=66 time=12
note_on channel=0 note=61 velocity=38 time=0
note_on channel=0 note=65 velocity=38 time=0
note_on channel=0 note=75 velocity=0 time=120
note_on channel=0 note=68 velocity=65 time=60
note_on channel=0 note=65 velocity=0 time=48
note_on channel=0 note=61 velocity=0 time=0
note_on channel=0 note=56 velocity=0 time=0
note_on channel=0 note=68 velocity=0 time=0
note_on channel=0 note=77 velocity=75 time=0
note_on channel=0 note=56 velocity=44 time=0
note_on channel=0 note=61 velocity=38 time=0
note_on channel=0 note=65 velocity=38 time=0
note_on channel=0 note=65 velocity=0 time=228
note_on channel=0 note=61 velocity=0 time=0
note_on channel=0 note=61 velocity=38 time=12
note_on channel=0 note=65 velocity=38 time=0
note_on channel=0 note=65 velocity=0 time=228
note_on channel=0 note=61 velocity=0 time=0
note_on channel=0 note=77 velocity=0 time=0
note_on channel=0 note=73 velocity=63 time=0
note_on channel=0 note=61 velocity=38 time=0
note_on channel=0 note=65 velocity=38 time=0
note_on channel=0 note=68 velocity=60 time=180
note_on channel=0 note=65 velocity=0 time=48
note_on channel=0 note=61 velocity=0 time=0
note_on channel=0 note=56 velocity=0 time=12
note_on channel=0 note=73 velocity=0 time=0
note_on channel=0 note=68 velocity=0 time=0
note_on channel=0 note=77 velocity=71 time=0
note_on channel=0 note=56 velocity=44 time=0
note_on channel=0 note=61 velocity=38 time=0
note_on channel=0 note=65 velocity=38 time=0
note_on channel=0 note=65 velocity=0 time=228
note_on channel=0 note=61 velocity=0 time=0
note_on channel=0 note=61 velocity=38 time=12
note_on channel=0 note=65 velocity=38 time=0
note_on channel=0 note=65 velocity=0 time=228
note_on channel=0 note=61 velocity=0 time=0
note_on channel=0 note=77 velocity=0 time=0
note_on channel=0 note=73 velocity=58 time=0
note_on channel=0 note=61 velocity=38 time=0
note_on channel=0 note=65 velocity=38 time=0
note_on channel=0 note=65 velocity=0 time=228
note_on channel=0 note=61 velocity=0 time=0
note_on channel=0 note=73 velocity=0 time=0
note_on channel=0 note=56 velocity=0 time=0
note_on channel=0 note=72 velocity=60 time=0
note_on channel=0 note=56 velocity=44 time=0
note_on channel=0 note=72 velocity=0 time=0
note_on channel=0 note=44 velocity=57 time=0
note_on channel=0 note=63 velocity=38 time=0
note_on channel=0 note=66 velocity=38 time=0
note_on channel=0 note=44 velocity=0 time=120
note_on channel=0 note=66 velocity=0 time=108
note_on channel=0 note=63 velocity=0 time=0
note_on channel=0 note=51 velocity=60 time=0
note_on channel=0 note=63 velocity=38 time=0
note_on channel=0 note=66 velocity=38 time=0
note_on channel=0 note=51 velocity=0 time=120
note_on channel=0 note=66 velocity=0 time=108
note_on channel=0 note=63 velocity=0 time=0
note_on channel=0 note=53 velocity=63 time=12
note_on channel=0 note=63 velocity=38 time=0
note_on channel=0 note=66 velocity=38 time=0
note_on channel=0 note=53 velocity=0 time=120
note_on channel=0 note=66 velocity=0 time=108
note_on channel=0 note=63 velocity=0 time=0
note_on channel=0 note=56 velocity=0 time=0
note_on channel=0 note=54 velocity=66 time=0
note_on channel=0 note=56 velocity=44 time=0
note_on channel=0 note=54 velocity=0 time=120
note_on channel=0 note=68 velocity=59 time=120
note_on channel=0 note=63 velocity=38 time=0
note_on channel=0 note=66 velocity=38 time=0
note_on channel=0 note=66 velocity=0 time=228
note_on channel=0 note=63 velocity=0 time=0
note_on channel=0 note=68 velocity=0 time=0
note_on channel=0 note=78 velocity=62 time=0
note_on channel=0 note=63 velocity=38 time=0
note_on channel=0 note=66 velocity=38 time=0
note_on channel=0 note=66 velocity=0 time=228
note_on channel=0 note=63 velocity=0 time=0
note_on channel=0 note=78 velocity=0 time=12
note_on channel=0 note=77 velocity=65 time=0
note_on channel=0 note=63 velocity=38 time=0
note_on channel=0 note=66 velocity=38 time=0
note_on channel=0 note=66 velocity=0 time=228
note_on channel=0 note=63 velocity=0 time=0
note_on channel=0 note=77 velocity=0 time=0
note_on channel=0 note=56 velocity=0 time=0
note_on channel=0 note=77 velocity=60 time=0
note_on channel=0 note=56 velocity=44 time=0
note_on channel=0 note=77 velocity=0 time=60
note_on channel=0 note=78 velocity=60 time=0
note_on channel=0 note=78 velocity=0 time=60
note_on channel=0 note=77 velocity=67 time=0
note_on channel=0 note=77 velocity=0 time=120
note_on channel=0 note=75 velocity=60 time=0
note_on channel=0 note=63 velocity=38 time=0
note_on channel=0 note=66 velocity=38 time=0
note_on channel=0 note=66 velocity=0 time=228
note_on channel=0 note=63 velocity=0 time=0
note_on channel=0 note=75 velocity=0 time=12
note_on channel=0 note=75 velocity=60 time=0
note_on channel=0 note=63 velocity=38 time=0
note_on channel=0 note=66 velocity=38 time=0
note_on channel=0 note=75 velocity=0 time=60
note_on channel=0 note=77 velocity=60 time=0
note_on channel=0 note=77 velocity=0 time=60
note_on channel=0 note=75 velocity=67 time=0
note_on channel=0 note=66 velocity=0 time=108
note_on channel=0 note=63 velocity=0 time=0
note_on channel=0 note=75 velocity=0 time=12
note_on channel=0 note=73 velocity=60 time=0
note_on channel=0 note=63 velocity=38 time=0
note_on channel=0 note=66 velocity=38 time=0
note_on channel=0 note=66 velocity=0 time=228
note_on channel=0 note=63 velocity=0 time=0
note_on channel=0 note=73 velocity=0 time=12
note_on channel=0 note=56 velocity=0 time=0
note_on channel=0 note=73 velocity=60 time=0
note_on channel=0 note=56 velocity=44 time=0
note_on channel=0 note=73 velocity=0 time=60
note_on channel=0 note=75 velocity=60 time=0
note_on channel=0 note=75 velocity=0 time=60
note_on channel=0 note=73 velocity=66 time=0
note_on channel=0 note=73 velocity=0 time=120
note_on channel=0 note=72 velocity=60 time=0
note_on channel=0 note=63 velocity=38 time=0
note_on channel=0 note=66 velocity=38 time=0
note_on channel=0 note=66 velocity=0 time=228
note_on channel=0 note=63 velocity=0 time=0
note_on channel=0 note=72 velocity=0 time=12
note_on channel=0 note=70 velocity=60 time=0
note_on channel=0 note=63 velocity=38 time=0
note_on channel=0 note=66 velocity=38 time=0
note_on channel=0 note=70 velocity=0 time=120
note_on channel=0 note=66 velocity=0 time=108
note_on channel=0 note=63 velocity=0 time=0
note_on channel=0 note=72 velocity=57 time=12
note_on channel=0 note=63 velocity=38 time=0
note_on channel=0 note=66 velocity=38 time=0
note_on channel=0 note=72 velocity=0 time=120
note_on channel=0 note=66 velocity=0 time=108
note_on channel=0 note=63 velocity=0 time=0
note_on channel=0 note=56 velocity=0 time=0
note_on channel=0 note=73 velocity=60 time=0
note_on channel=0 note=61 velocity=54 time=0
note_on channel=0 note=73 velocity=0 time=0
note_on channel=0 note=49 velocity=73 time=0
note_on channel=0 note=65 velocity=53 time=0
note_on channel=0 note=68 velocity=53 time=0
note_on channel=0 note=68 velocity=0 time=0
note_on channel=0 note=61 velocity=0 time=0
note_on channel=0 note=49 velocity=0 time=0
note_on channel=0 note=65 velocity=0 time=0
note_on channel=0 note=56 velocity=77 time=0
note_on channel=0 note=59 velocity=60 time=0
note_on channel=0 note=56 velocity=0 time=0
note_on channel=0 note=47 velocity=73 time=0
note_on channel=0 note=65 velocity=53 time=0
note_on channel=0 note=68 velocity=53 time=0
note_on channel=0 note=47 velocity=0 time=120
note_on channel=0 note=59 velocity=0 time=120
note_on channel=0 note=65 velocity=0 time=0
note_on channel=0 note=68 velocity=0 time=0
note_on channel=0 note=46 velocity=77 time=0
note_on channel=0 note=58 velocity=53 time=0
note_on channel=0 note=46 velocity=0 time=120
note_on channel=0 note=70 velocity=59 time=120
note_on channel=0 note=65 velocity=38 time=0
note_on channel=0 note=68 velocity=38 time=0
note_on channel=0 note=68 velocity=0 time=228
note_on channel=0 note=65 velocity=0 time=0
note_on channel=0 note=70 velocity=0 time=0
note_on channel=0 note=80 velocity=62 time=0
note_on channel=0 note=65 velocity=38 time=0
note_on channel=0 note=68 velocity=38 time=0
note_on channel=0 note=68 velocity=0 time=228
note_on channel=0 note=65 velocity=0 time=0
note_on channel=0 note=80 velocity=0 time=12
note_on channel=0 note=78 velocity=65 time=0
note_on channel=0 note=65 velocity=38 time=0
note_on channel=0 note=68 velocity=38 time=0
note_on channel=0 note=68 velocity=0 time=228
note_on channel=0 note=65 velocity=0 time=0
note_on channel=0 note=78 velocity=0 time=0
note_on channel=0 note=58 velocity=0 time=0
note_on channel=0 note=78 velocity=60 time=0
note_on channel=0 note=58 velocity=44 time=0
note_on channel=0 note=78 velocity=0 time=60
note_on channel=0 note=80 velocity=60 time=0
note_on channel=0 note=80 velocity=0 time=60
note_on channel=0 note=78 velocity=67 time=0
note_on channel=0 note=78 velocity=0 time=120
note_on channel=0 note=77 velocity=60 time=0
note_on channel=0 note=65 velocity=38 time=0
note_on channel=0 note=68 velocity=38 time=0
note_on channel=0 note=68 velocity=0 time=228
note_on channel=0 note=65 velocity=0 time=0
note_on channel=0 note=77 velocity=0 time=12
note_on channel=0 note=77 velocity=60 time=0
note_on channel=0 note=65 velocity=38 time=0
note_on channel=0 note=68 velocity=38 time=0
note_on channel=0 note=77 velocity=0 time=60
note_on channel=0 note=78 velocity=60 time=0
note_on channel=0 note=78 velocity=0 time=60
note_on channel=0 note=77 velocity=67 time=0
note_on channel=0 note=68 velocity=0 time=108
note_on channel=0 note=65 velocity=0 time=0
note_on channel=0 note=77 velocity=0 time=12
note_on channel=0 note=75 velocity=60 time=0
note_on channel=0 note=65 velocity=38 time=0
note_on channel=0 note=68 velocity=38 time=0
note_on channel=0 note=68 velocity=0 time=228
note_on channel=0 note=65 velocity=0 time=0
note_on channel=0 note=75 velocity=0 time=12
note_on channel=0 note=58 velocity=0 time=0
note_on channel=0 note=75 velocity=60 time=0
note_on channel=0 note=58 velocity=44 time=0
note_on channel=0 note=75 velocity=0 time=60
note_on channel=0 note=77 velocity=60 time=0
note_on channel=0 note=77 velocity=0 time=60
note_on channel=0 note=75 velocity=66 time=0
note_on channel=0 note=75 velocity=0 time=120
note_on channel=0 note=74 velocity=60 time=0
note_on channel=0 note=65 velocity=38 time=0
note_on channel=0 note=68 velocity=38 time=0
note_on channel=0 note=68 velocity=0 time=228
note_on channel=0 note=65 velocity=0 time=0
note_on channel=0 note=74 velocity=0 time=12
note_on channel=0 note=72 velocity=60 time=0
note_on channel=0 note=65 velocity=38 time=0
note_on channel=0 note=68 velocity=38 time=0
note_on channel=0 note=72 velocity=0 time=120
note_on channel=0 note=68 velocity=0 time=108
note_on channel=0 note=65 velocity=0 time=0
note_on channel=0 note=74 velocity=57 time=12
note_on channel=0 note=65 velocity=38 time=0
note_on channel=0 note=68 velocity=38 time=0
note_on channel=0 note=74 velocity=0 time=120
note_on channel=0 note=68 velocity=0 time=108
note_on channel=0 note=65 velocity=0 time=0
note_on channel=0 note=58 velocity=0 time=0
note_on channel=0 note=75 velocity=60 time=0
note_on channel=0 note=63 velocity=54 time=0
note_on channel=0 note=75 velocity=0 time=0
note_on channel=0 note=51 velocity=73 time=0
note_on channel=0 note=66 velocity=53 time=0
note_on channel=0 note=70 velocity=53 time=0
note_on channel=0 note=70 velocity=0 time=0
note_on channel=0 note=63 velocity=0 time=0
note_on channel=0 note=51 velocity=0 time=0
note_on channel=0 note=66 velocity=0 time=0
note_on channel=0 note=58 velocity=77 time=0
note_on channel=0 note=61 velocity=60 time=0
note_on channel=0 note=58 velocity=0 time=0
note_on channel=0 note=49 velocity=73 time=0
note_on channel=0 note=65 velocity=53 time=0
note_on channel=0 note=70 velocity=53 time=0
note_on channel=0 note=49 velocity=0 time=120
note_on channel=0 note=61 velocity=0 time=120
note_on channel=0 note=65 velocity=0 time=0
note_on channel=0 note=70 velocity=0 time=0
note_on channel=0 note=48 velocity=77 time=0
note_on channel=0 note=60 velocity=53 time=0
note_on channel=0 note=48 velocity=0 time=120
note_on channel=0 note=72 velocity=59 time=120
note_on channel=0 note=67 velocity=38 time=0
note_on channel=0 note=70 velocity=38 time=0
note_on channel=0 note=70 velocity=0 time=228
note_on channel=0 note=67 velocity=0 time=0
note_on channel=0 note=72 velocity=0 time=0
note_on channel=0 note=82 velocity=62 time=0
note_on channel=0 note=67 velocity=38 time=0
note_on channel=0 note=70 velocity=38 time=0
note_on channel=0 note=70 velocity=0 time=228
note_on channel=0 note=67 velocity=0 time=0
note_on channel=0 note=82 velocity=0 time=12
note_on channel=0 note=80 velocity=65 time=0
note_on channel=0 note=67 velocity=38 time=0
note_on channel=0 note=70 velocity=38 time=0
note_on channel=0 note=70 velocity=0 time=228
note_on channel=0 note=67 velocity=0 time=0
note_on channel=0 note=80 velocity=0 time=0
note_on channel=0 note=60 velocity=0 time=0
note_on channel=0 note=80 velocity=60 time=0
note_on channel=0 note=60 velocity=44 time=0
note_on channel=0 note=80 velocity=0 time=60
note_on channel=0 note=82 velocity=60 time=0
note_on channel=0 note=82 velocity=0 time=60
note_on channel=0 note=80 velocity=67 time=0
note_on channel=0 note=80 velocity=0 time=120
note_on channel=0 note=79 velocity=60 time=0
note_on channel=0 note=67 velocity=38 time=0
note_on channel=0 note=70 velocity=38 time=0
note_on channel=0 note=70 velocity=0 time=228
note_on channel=0 note=67 velocity=0 time=0
note_on channel=0 note=79 velocity=0 time=12
note_on channel=0 note=79 velocity=60 time=0
note_on channel=0 note=67 velocity=38 time=0
note_on channel=0 note=70 velocity=38 time=0
note_on channel=0 note=79 velocity=0 time=60
note_on channel=0 note=80 velocity=60 time=0
note_on channel=0 note=80 velocity=0 time=60
note_on channel=0 note=79 velocity=67 time=0
note_on channel=0 note=70 velocity=0 time=108
note_on channel=0 note=67 velocity=0 time=0
note_on channel=0 note=79 velocity=0 time=12
note_on channel=0 note=77 velocity=60 time=0
note_on channel=0 note=67 velocity=38 time=0
note_on channel=0 note=70 velocity=38 time=0
note_on channel=0 note=70 velocity=0 time=228
note_on channel=0 note=67 velocity=0 time=0
note_on channel=0 note=77 velocity=0 time=12
note_on channel=0 note=60 velocity=0 time=0
note_on channel=0 note=77 velocity=60 time=0
note_on channel=0 note=60 velocity=44 time=0
note_on channel=0 note=77 velocity=0 time=60
note_on channel=0 note=79 velocity=60 time=0
note_on channel=0 note=79 velocity=0 time=60
note_on channel=0 note=77 velocity=66 time=0
note_on channel=0 note=77 velocity=0 time=120
note_on channel=0 note=76 velocity=60 time=0
note_on channel=0 note=67 velocity=38 time=0
note_on channel=0 note=70 velocity=38 time=0
note_on channel=0 note=70 velocity=0 time=228
note_on channel=0 note=67 velocity=0 time=0
note_on channel=0 note=76 velocity=0 time=12
note_on channel=0 note=74 velocity=60 time=0
note_on channel=0 note=67 velocity=38 time=0
note_on channel=0 note=70 velocity=38 time=0
note_on channel=0 note=70 velocity=0 time=228
note_on channel=0 note=67 velocity=0 time=0
note_on channel=0 note=74 velocity=0 time=12
note_on channel=0 note=76 velocity=57 time=0
note_on channel=0 note=67 velocity=38 time=0
note_on channel=0 note=70 velocity=38 time=0
note_on channel=0 note=70 velocity=0 time=228
note_on channel=0 note=67 velocity=0 time=0
note_on channel=0 note=76 velocity=0 time=0
note_on channel=0 note=60 velocity=0 time=0
note_on channel=0 note=79 velocity=60 time=0
note_on channel=0 note=65 velocity=44 time=0
note_on channel=0 note=79 velocity=0 time=60
note_on channel=0 note=80 velocity=60 time=0
note_on channel=0 note=80 velocity=0 time=60
note_on channel=0 note=79 velocity=67 time=0
note_on channel=0 note=79 velocity=0 time=120
note_on channel=0 note=77 velocity=60 time=0
note_on channel=0 note=68 velocity=38 time=0
note_on channel=0 note=72 velocity=38 time=0
note_on channel=0 note=72 velocity=0 time=228
note_on channel=0 note=68 velocity=0 time=0
note_on channel=0 note=77 velocity=0 time=12
note_on channel=0 note=77 velocity=60 time=0
note_on channel=0 note=68 velocity=38 time=0
note_on channel=0 note=72 velocity=38 time=0
note_on channel=0 note=77 velocity=0 time=60
note_on channel=0 note=79 velocity=60 time=0
note_on channel=0 note=79 velocity=0 time=60
note_on channel=0 note=77 velocity=67 time=0
note_on channel=0 note=72 velocity=0 time=108
note_on channel=0 note=68 velocity=0 time=0
note_on channel=0 note=77 velocity=0 time=12
note_on channel=0 note=75 velocity=60 time=0
note_on channel=0 note=68 velocity=38 time=0
note_on channel=0 note=72 velocity=38 time=0
note_on channel=0 note=72 velocity=0 time=228
note_on channel=0 note=68 velocity=0 time=0
note_on channel=0 note=75 velocity=0 time=12
note_on channel=0 note=65 velocity=0 time=0
note_on channel=0 note=75 velocity=60 time=0
note_on channel=0 note=58 velocity=44 time=0
note_on channel=0 note=75 velocity=0 time=60
note_on channel=0 note=77 velocity=60 time=0
note_on channel=0 note=77 velocity=0 time=60
note_on channel=0 note=75 velocity=66 time=0
note_on channel=0 note=75 velocity=0 time=120
note_on channel=0 note=74 velocity=60 time=0
note_on channel=0 note=65 velocity=38 time=0
note_on channel=0 note=68 velocity=38 time=0
note_on channel=0 note=68 velocity=0 time=228
note_on channel=0 note=65 velocity=0 time=0
note_on channel=0 note=74 velocity=0 time=12
note_on channel=0 note=58 velocity=0 time=0
note_on channel=0 note=72 velocity=60 time=0
note_on channel=0 note=59 velocity=44 time=0
note_on channel=0 note=65 velocity=38 time=0
note_on channel=0 note=68 velocity=38 time=0
note_on channel=0 note=68 velocity=0 time=228
note_on channel=0 note=65 velocity=0 time=0
note_on channel=0 note=72 velocity=0 time=12
note_on channel=0 note=74 velocity=57 time=0
note_on channel=0 note=65 velocity=38 time=0
note_on channel=0 note=68 velocity=38 time=0
note_on channel=0 note=68 velocity=0 time=228
note_on channel=0 note=65 velocity=0 time=0
note_on channel=0 note=74 velocity=0 time=0
note_on channel=0 note=59 velocity=0 time=0
note_on channel=0 note=77 velocity=60 time=0
note_on channel=0 note=60 velocity=44 time=0
note_on channel=0 note=77 velocity=0 time=60
note_on channel=0 note=79 velocity=60 time=0
note_on channel=0 note=79 velocity=0 time=60
note_on channel=0 note=77 velocity=67 time=0
note_on channel=0 note=77 velocity=0 time=120
note_on channel=0 note=75 velocity=59 time=0
note_on channel=0 note=63 velocity=37 time=0
note_on channel=0 note=67 velocity=37 time=0
note_on channel=0 note=67 velocity=0 time=228
note_on channel=0 note=63 velocity=0 time=0
note_on channel=0 note=75 velocity=0 time=12
note_on channel=0 note=75 velocity=58 time=0
note_on channel=0 note=63 velocity=36 time=0
note_on channel=0 note=67 velocity=36 time=0
note_on channel=0 note=75 velocity=0 time=60
note_on channel=0 note=77 velocity=58 time=0
note_on channel=0 note=77 velocity=0 time=60
note_on channel=0 note=75 velocity=64 time=0
note_on channel=0 note=67 velocity=0 time=108
note_on channel=0 note=63 velocity=0 time=0
note_on channel=0 note=75 velocity=0 time=12
note_on channel=0 note=74 velocity=57 time=0
note_on channel=0 note=63 velocity=36 time=0
note_on channel=0 note=67 velocity=36 time=0
note_on channel=0 note=67 velocity=0 time=228
note_on channel=0 note=63 velocity=0 time=0
note_on channel=0 note=74 velocity=0 time=12
note_on channel=0 note=60 velocity=0 time=0
note_on channel=0 note=74 velocity=56 time=0
note_on channel=0 note=56 velocity=41 time=0
note_on channel=0 note=74 velocity=0 time=60
note_on channel=0 note=75 velocity=55 time=0
note_on channel=0 note=75 velocity=0 time=60
note_on channel=0 note=74 velocity=61 time=0
note_on channel=0 note=74 velocity=0 time=20
note_on channel=0 note=72 velocity=55 time=0
note_on channel=0 note=63 velocity=34 time=0
note_on channel=0 note=65 velocity=34 time=0
note_on channel=0 note=65 velocity=0 time=28
note_on channel=0 note=63 velocity=0 time=0
note_on channel=0 note=72 velocity=0 time=12
note_on channel=0 note=72 velocity=54 time=0
note_on channel=0 note=63 velocity=34 time=0
note_on channel=0 note=65 velocity=34 time=0
note_on channel=0 note=72 velocity=0 time=20
note_on channel=0 note=74 velocity=54 time=0
note_on channel=0 note=74 velocity=0 time=20
note_on channel=0 note=72 velocity=59 time=0
note_on channel=0 note=65 velocity=0 time=48
note_on channel=0 note=63 velocity=0 time=0
note_on channel=0 note=72 velocity=0 time=12
note_on channel=0 note=71 velocity=53 time=0
note_on channel=0 note=63 velocity=33 time=0
note_on channel=0 note=65 velocity=33 time=0
note_on channel=0 note=65 velocity=0 time=8
note_on channel=0 note=63 velocity=0 time=0
note_on channel=0 note=71 velocity=0 time=0
note_on channel=0 note=56 velocity=0 time=0
note_on channel=0 note=72 velocity=52 time=0
note_on channel=0 note=58 velocity=38 time=0
note_on channel=0 note=72 velocity=0 time=60
note_on channel=0 note=74 velocity=52 time=0
note_on channel=0 note=74 velocity=0 time=60
note_on channel=0 note=72 velocity=56 time=0
note_on channel=0 note=72 velocity=0 time=120
note_on channel=0 note=70 velocity=51 time=0
note_on channel=0 note=63 velocity=32 time=0
note_on channel=0 note=67 velocity=32 time=0
note_on channel=0 note=67 velocity=0 time=228
note_on channel=0 note=63 velocity=0 time=0
note_on channel=0 note=70 velocity=0 time=12
note_on channel=0 note=70 velocity=50 time=0
note_on channel=0 note=63 velocity=31 time=0
note_on channel=0 note=67 velocity=31 time=0
note_on channel=0 note=70 velocity=0 time=90
note_on channel=0 note=67 velocity=0 time=138
note_on channel=0 note=63 velocity=0 time=0
note_on channel=0 note=70 velocity=46 time=12
note_on channel=0 note=63 velocity=31 time=0
note_on channel=0 note=67 velocity=31 time=0
note_on channel=0 note=70 velocity=0 time=90
note_on channel=0 note=67 velocity=0 time=138
note_on channel=0 note=63 velocity=0 time=0
note_on channel=0 note=58 velocity=0 time=0
note_on channel=0 note=72 velocity=37 time=0
note_on channel=0 note=58 velocity=27 time=0
note_on channel=0 note=72 velocity=0 time=60
note_on channel=0 note=74 velocity=37 time=0
note_on channel=0 note=74 velocity=0 time=60
note_on channel=0 note=72 velocity=41 time=0
note_on channel=0 note=72 velocity=0 time=120
note_on channel=0 note=70 velocity=37 time=0
note_on channel=0 note=62 velocity=23 time=0
note_on channel=0 note=65 velocity=23 time=0
note_on channel=0 note=65 velocity=0 time=228
note_on channel=0 note=62 velocity=0 time=0
note_on channel=0 note=70 velocity=0 time=12
note_on channel=0 note=70 velocity=37 time=0
note_on channel=0 note=62 velocity=23 time=0
note_on channel=0 note=65 velocity=23 time=0
note_on channel=0 note=70 velocity=0 time=90
note_on channel=0 note=65 velocity=0 time=138
note_on channel=0 note=62 velocity=0 time=0
note_on channel=0 note=70 velocity=35 time=12
note_on channel=0 note=62 velocity=23 time=0
note_on channel=0 note=65 velocity=23 time=0
note_on channel=0 note=70 velocity=0 time=90
note_on channel=0 note=65 velocity=0 time=138
note_on channel=0 note=62 velocity=0 time=0
note_on channel=0 note=58 velocity=0 time=12
note_on channel=0 note=51 velocity=36 time=0
note_on channel=0 note=63 velocity=25 time=14
note_on channel=0 note=58 velocity=24 time=0
note_on channel=0 note=58 velocity=0 time=0
note_on channel=0 note=63 velocity=0 time=0
note_on channel=0 note=67 velocity=29 time=0
note_on channel=0 note=55 velocity=26 time=0
note_on channel=0 note=55 velocity=0 time=120
note_on channel=0 note=67 velocity=0 time=0
note_on channel=0 note=63 velocity=29 time=0
note_on channel=0 note=58 velocity=24 time=0
note_on channel=0 note=58 velocity=0 time=80
note_on channel=0 note=63 velocity=0 time=0
note_on channel=0 note=75 velocity=45 time=0
note_on channel=0 note=55 velocity=32 time=0
note_on channel=0 note=55 velocity=0 time=60
note_on channel=0 note=63 velocity=28 time=0
note_on channel=0 note=58 velocity=25 time=0
note_on channel=0 note=58 velocity=0 time=40
note_on channel=0 note=63 velocity=0 time=0
note_on channel=0 note=67 velocity=30 time=0
note_on channel=0 note=55 velocity=28 time=0
note_on channel=0 note=55 velocity=0 time=20
note_on channel=0 note=67 velocity=0 time=0
note_on channel=0 note=63 velocity=28 time=0
note_on channel=0 note=58 velocity=26 time=0
note_on channel=0 note=58 velocity=0 time=0
note_on channel=0 note=63 velocity=0 time=0
note_on channel=0 note=67 velocity=31 time=0
note_on channel=0 note=55 velocity=34 time=0
note_on channel=0 note=55 velocity=0 time=56
note_on channel=0 note=67 velocity=0 time=0
note_on channel=0 note=63 velocity=30 time=0
note_on channel=0 note=58 velocity=26 time=0
note_on channel=0 note=58 velocity=0 time=120
note_on channel=0 note=63 velocity=0 time=0
note_on channel=0 note=67 velocity=32 time=0
note_on channel=0 note=55 velocity=29 time=0
note_on channel=0 note=55 velocity=0 time=120
note_on channel=0 note=67 velocity=0 time=0
note_on channel=0 note=63 velocity=29 time=0
note_on channel=0 note=58 velocity=26 time=0
note_on channel=0 note=58 velocity=0 time=120
note_on channel=0 note=51 velocity=0 time=0
note_on channel=0 note=75 velocity=0 time=0
note_on channel=0 note=63 velocity=0 time=0
note_on channel=0 note=75 velocity=50 time=0
note_on channel=0 note=51 velocity=36 time=0
note_on channel=0 note=63 velocity=30 time=120
note_on channel=0 note=58 velocity=28 time=0
note_on channel=0 note=58 velocity=0 time=120
note_on channel=0 note=63 velocity=0 time=0
note_on channel=0 note=67 velocity=33 time=0
note_on channel=0 note=55 velocity=32 time=0
note_on channel=0 note=55 velocity=0 time=120
note_on channel=0 note=67 velocity=0 time=0
note_on channel=0 note=63 velocity=32 time=0
note_on channel=0 note=58 velocity=28 time=0
note_on channel=0 note=58 velocity=0 time=0
note_on channel=0 note=75 velocity=0 time=0
note_on channel=0 note=51 velocity=0 time=0
note_on channel=0 note=63 velocity=0 time=0
note_on channel=0 note=49 velocity=45 time=0
note_on channel=0 note=63 velocity=32 time=106
note_on channel=0 note=58 velocity=30 time=0
note_on channel=0 note=58 velocity=0 time=20
note_on channel=0 note=63 velocity=0 time=0
note_on channel=0 note=67 velocity=36 time=0
note_on channel=0 note=55 velocity=32 time=0
note_on channel=0 note=55 velocity=0 time=120
note_on channel=0 note=67 velocity=0 time=0
note_on channel=0 note=63 velocity=35 time=0
note_on channel=0 note=58 velocity=29 time=0
note_on channel=0 note=58 velocity=0 time=0
note_on channel=0 note=63 velocity=0 time=0
note_on channel=0 note=75 velocity=54 time=0
note_on channel=0 note=55 velocity=38 time=0
note_on channel=0 note=55 velocity=0 time=120
note_on channel=0 note=63 velocity=33 time=0
note_on channel=0 note=58 velocity=30 time=0
note_on channel=0 note=58 velocity=0 time=0
note_on channel=0 note=63 velocity=0 time=0
note_on channel=0 note=67 velocity=35 time=0
note_on channel=0 note=55 velocity=33 time=0
note_on channel=0 note=55 velocity=0 time=120
note_on channel=0 note=67 velocity=0 time=0
note_on channel=0 note=63 velocity=32 time=0
note_on channel=0 note=58 velocity=30 time=0
note_on channel=0 note=58 velocity=0 time=0
note_on channel=0 note=63 velocity=0 time=0
note_on channel=0 note=67 velocity=35 time=0
note_on channel=0 note=55 velocity=38 time=0
note_on channel=0 note=55 velocity=0 time=21
note_on channel=0 note=67 velocity=0 time=0
note_on channel=0 note=63 velocity=33 time=0
note_on channel=0 note=58 velocity=29 time=0
note_on channel=0 note=58 velocity=0 time=120
note_on channel=0 note=63 velocity=0 time=0
note_on channel=0 note=67 velocity=35 time=0
note_on channel=0 note=55 velocity=32 time=0
note_on channel=0 note=55 velocity=0 time=120
note_on channel=0 note=67 velocity=0 time=0
note_on channel=0 note=63 velocity=32 time=0
note_on channel=0 note=58 velocity=29 time=0
note_on channel=0 note=58 velocity=0 time=120
note_on channel=0 note=49 velocity=0 time=0
note_on channel=0 note=75 velocity=0 time=0
note_on channel=0 note=63 velocity=0 time=0
note_on channel=0 note=75 velocity=53 time=0
note_on channel=0 note=49 velocity=38 time=0
note_on channel=0 note=63 velocity=32 time=120
note_on channel=0 note=58 velocity=30 time=0
note_on channel=0 note=58 velocity=0 time=120
note_on channel=0 note=63 velocity=0 time=0
note_on channel=0 note=67 velocity=35 time=0
note_on channel=0 note=55 velocity=33 time=0
note_on channel=0 note=55 velocity=0 time=0
note_on channel=0 note=67 velocity=0 time=0
note_on channel=0 note=63 velocity=33 time=0
note_on channel=0 note=58 velocity=29 time=0
note_on channel=0 note=58 velocity=0 time=0
note_on channel=0 note=75 velocity=0 time=0
note_on channel=0 note=49 velocity=0 time=0
note_on channel=0 note=63 velocity=0 time=0
note_on channel=0 note=75 velocity=66 time=0
note_on channel=0 note=48 velocity=55 time=0
note_on channel=0 note=48 velocity=0 time=73
note_on channel=0 note=75 velocity=0 time=0
note_on channel=0 note=63 velocity=41 time=30
note_on channel=0 note=56 velocity=36 time=0
note_on channel=0 note=56 velocity=0 time=40
note_on channel=0 note=63 velocity=0 time=0
note_on channel=0 note=68 velocity=45 time=0
note_on channel=0 note=51 velocity=39 time=0
note_on channel=0 note=51 velocity=0 time=120
note_on channel=0 note=68 velocity=0 time=0
note_on channel=0 note=63 velocity=42 time=0
note_on channel=0 note=56 velocity=35 time=0
note_on channel=0 note=56 velocity=0 time=80
note_on channel=0 note=63 velocity=0 time=0
note_on channel=0 note=76 velocity=67 time=0
note_on channel=0 note=46 velocity=56 time=0
note_on channel=0 note=46 velocity=0 time=90
note_on channel=0 note=76 velocity=0 time=0
note_on channel=0 note=64 velocity=43 time=20
note_on channel=0 note=55 velocity=36 time=0
note_on channel=0 note=55 velocity=0 time=120
note_on channel=0 note=64 velocity=0 time=0
note_on channel=0 note=72 velocity=47 time=0
note_on channel=0 note=48 velocity=43 time=0
note_on channel=0 note=48 velocity=0 time=60
note_on channel=0 note=72 velocity=0 time=0
note_on channel=0 note=64 velocity=43 time=0
note_on channel=0 note=55 velocity=41 time=0
note_on channel=0 note=55 velocity=0 time=0
note_on channel=0 note=64 velocity=0 time=0
note_on channel=0 note=77 velocity=71 time=0
note_on channel=0 note=44 velocity=58 time=0
note_on channel=0 note=44 velocity=0 time=90
note_on channel=0 note=77 velocity=0 time=0
note_on channel=0 note=65 velocity=45 time=30
note_on channel=0 note=56 velocity=38 time=0
note_on channel=0 note=56 velocity=0 time=120
note_on channel=0 note=65 velocity=0 time=0
note_on channel=0 note=72 velocity=50 time=0
note_on channel=0 note=48 velocity=43 time=0
note_on channel=0 note=48 velocity=0 time=120
note_on channel=0 note=72 velocity=0 time=0
note_on channel=0 note=65 velocity=45 time=0
note_on channel=0 note=56 velocity=38 time=0
note_on channel=0 note=56 velocity=0 time=120
note_on channel=0 note=65 velocity=0 time=0
note_on channel=0 note=79 velocity=72 time=0
note_on channel=0 note=43 velocity=60 time=0
note_on channel=0 note=43 velocity=0 time=90
note_on channel=0 note=79 velocity=0 time=0
note_on channel=0 note=67 velocity=47 time=30
note_on channel=0 note=55 velocity=40 time=0
note_on channel=0 note=55 velocity=0 time=120
note_on channel=0 note=67 velocity=0 time=0
note_on channel=0 note=72 velocity=50 time=0
note_on channel=0 note=48 velocity=43 time=0
note_on channel=0 note=48 velocity=0 time=120
note_on channel=0 note=72 velocity=0 time=0
note_on channel=0 note=67 velocity=47 time=0
note_on channel=0 note=55 velocity=38 time=0
note_on channel=0 note=55 velocity=0 time=0
note_on channel=0 note=67 velocity=0 time=0
note_on channel=0 note=80 velocity=74 time=0
note_on channel=0 note=41 velocity=63 time=0
note_on channel=0 note=41 velocity=0 time=50
note_on channel=0 note=80 velocity=0 time=0
note_on channel=0 note=68 velocity=49 time=20
note_on channel=0 note=53 velocity=42 time=0
note_on channel=0 note=53 velocity=0 time=0
note_on channel=0 note=68 velocity=0 time=0
note_on channel=0 note=72 velocity=54 time=0
note_on channel=0 note=48 velocity=45 time=0
note_on channel=0 note=48 velocity=0 time=0
note_on channel=0 note=72 velocity=0 time=0
note_on channel=0 note=68 velocity=49 time=0
note_on channel=0 note=53 velocity=42 time=0
note_on channel=0 note=53 velocity=0 time=40
note_on channel=0 note=68 velocity=0 time=0
note_on channel=0 note=81 velocity=80 time=0
note_on channel=0 note=39 velocity=66 time=0
note_on channel=0 note=39 velocity=0 time=90
note_on channel=0 note=81 velocity=0 time=0
note_on channel=0 note=69 velocity=50 time=30
note_on channel=0 note=51 velocity=41 time=0
note_on channel=0 note=51 velocity=0 time=120
note_on channel=0 note=69 velocity=0 time=0
note_on channel=0 note=72 velocity=55 time=0
note_on channel=0 note=41 velocity=47 time=0
note_on channel=0 note=41 velocity=0 time=0
note_on channel=0 note=72 velocity=0 time=0
note_on channel=0 note=69 velocity=51 time=0
note_on channel=0 note=51 velocity=41 time=0
note_on channel=0 note=51 velocity=0 time=40
note_on channel=0 note=69 velocity=0 time=0
note_on channel=0 note=82 velocity=84 time=0
note_on channel=0 note=38 velocity=68 time=0
note_on channel=0 note=38 velocity=0 time=10
note_on channel=0 note=82 velocity=0 time=0
note_on channel=0 note=70 velocity=51 time=30
note_on channel=0 note=50 velocity=45 time=0
note_on channel=0 note=50 velocity=0 time=0
note_on channel=0 note=70 velocity=0 time=0
note_on channel=0 note=77 velocity=58 time=0
note_on channel=0 note=41 velocity=49 time=0
note_on channel=0 note=41 velocity=0 time=0
note_on channel=0 note=77 velocity=0 time=0
note_on channel=0 note=70 velocity=53 time=0
note_on channel=0 note=50 velocity=43 time=0
note_on channel=0 note=50 velocity=0 time=0
note_on channel=0 note=70 velocity=0 time=0
note_on channel=0 note=84 velocity=85 time=0
note_on channel=0 note=36 velocity=70 time=0
note_on channel=0 note=36 velocity=0 time=10
note_on channel=0 note=84 velocity=0 time=0
note_on channel=0 note=72 velocity=53 time=20
note_on channel=0 note=48 velocity=45 time=0
note_on channel=0 note=48 velocity=0 time=0
note_on channel=0 note=72 velocity=0 time=0
note_on channel=0 note=77 velocity=58 time=0
note_on channel=0 note=41 velocity=51 time=0
note_on channel=0 note=41 velocity=0 time=0
note_on channel=0 note=77 velocity=0 time=0
note_on channel=0 note=72 velocity=54 time=0
note_on channel=0 note=48 velocity=43 time=0
note_on channel=0 note=48 velocity=0 time=20
note_on channel=0 note=72 velocity=0 time=0
note_on channel=0 note=85 velocity=85 time=0
note_on channel=0 note=34 velocity=70 time=0
note_on channel=0 note=34 velocity=0 time=30
note_on channel=0 note=85 velocity=0 time=0
note_on channel=0 note=73 velocity=55 time=0
note_on channel=0 note=46 velocity=47 time=0
note_on channel=0 note=46 velocity=0 time=0
note_on channel=0 note=73 velocity=0 time=0
note_on channel=0 note=77 velocity=63 time=0
note_on channel=0 note=41 velocity=53 time=0
note_on channel=0 note=41 velocity=0 time=60
note_on channel=0 note=77 velocity=0 time=0
note_on channel=0 note=73 velocity=55 time=0
note_on channel=0 note=46 velocity=48 time=0
note_on channel=0 note=46 velocity=0 time=40
note_on channel=0 note=73 velocity=0 time=0
note_on channel=0 note=86 velocity=90 time=0
note_on channel=0 note=32 velocity=72 time=0
note_on channel=0 note=32 velocity=0 time=10
note_on channel=0 note=86 velocity=0 time=0
note_on channel=0 note=74 velocity=57 time=0
note_on channel=0 note=44 velocity=47 time=0
note_on channel=0 note=44 velocity=0 time=40
note_on channel=0 note=74 velocity=0 time=0
note_on channel=0 note=77 velocity=62 time=0
note_on channel=0 note=41 velocity=53 time=0
note_on channel=0 note=41 velocity=0 time=20
note_on channel=0 note=77 velocity=0 time=0
note_on channel=0 note=74 velocity=57 time=0
note_on channel=0 note=44 velocity=50 time=0
note_on channel=0 note=44 velocity=0 time=0
note_on channel=0 note=74 velocity=0 time=0
note_on channel=0 note=87 velocity=89 time=0
note_on channel=0 note=31 velocity=75 time=0
note_on channel=0 note=31 velocity=0 time=30
note_on channel=0 note=87 velocity=0 time=0
note_on channel=0 note=75 velocity=59 time=30
note_on channel=0 note=43 velocity=50 time=0
note_on channel=0 note=43 velocity=0 time=80
note_on channel=0 note=75 velocity=0 time=0
note_on channel=0 note=82 velocity=64 time=0
note_on channel=0 note=39 velocity=55 time=0
note_on channel=0 note=39 velocity=0 time=20
note_on channel=0 note=82 velocity=0 time=0
note_on channel=0 note=75 velocity=59 time=0
note_on channel=0 note=43 velocity=50 time=0
note_on channel=0 note=43 velocity=0 time=0
note_on channel=0 note=75 velocity=0 time=0
note_on channel=0 note=83 velocity=91 time=0
note_on channel=0 note=31 velocity=76 time=0
note_on channel=0 note=31 velocity=0 time=90
note_on channel=0 note=83 velocity=0 time=0
note_on channel=0 note=71 velocity=61 time=30
note_on channel=0 note=43 velocity=56 time=0
note_on channel=0 note=43 velocity=0 time=120
note_on channel=0 note=71 velocity=0 time=0
note_on channel=0 note=75 velocity=67 time=0
note_on channel=0 note=39 velocity=58 time=0
note_on channel=0 note=39 velocity=0 time=120
note_on channel=0 note=75 velocity=0 time=0
note_on channel=0 note=71 velocity=61 time=0
note_on channel=0 note=43 velocity=55 time=0
note_on channel=0 note=43 velocity=0 time=0
note_on channel=0 note=71 velocity=0 time=0
note_on channel=0 note=32 velocity=71 time=0
note_on channel=0 note=44 velocity=84 time=0
note_on channel=0 note=72 velocity=78 time=0
note_on channel=0 note=72 velocity=0 time=120
note_on channel=0 note=44 velocity=0 time=0
note_on channel=0 note=32 velocity=0 time=0
note_on channel=0 note=75 velocity=84 time=0
note_on channel=0 note=75 velocity=0 time=120
note_on channel=0 note=72 velocity=78 time=0
note_on channel=0 note=72 velocity=0 time=120
note_on channel=0 note=84 velocity=88 time=0
note_on channel=0 note=84 velocity=0 time=90
note_on channel=0 note=72 velocity=78 time=30
note_on channel=0 note=72 velocity=0 time=0
note_on channel=0 note=75 velocity=84 time=0
note_on channel=0 note=75 velocity=0 time=120
note_on channel=0 note=72 velocity=76 time=0
note_on channel=0 note=72 velocity=0 time=0
note_on channel=0 note=46 velocity=84 time=0
note_on channel=0 note=34 velocity=71 time=0
note_on channel=0 note=65 velocity=78 time=0
note_on channel=0 note=65 velocity=0 time=120
note_on channel=0 note=34 velocity=0 time=0
note_on channel=0 note=46 velocity=0 time=0
note_on channel=0 note=68 velocity=84 time=0
note_on channel=0 note=68 velocity=0 time=120
note_on channel=0 note=65 velocity=78 time=0
note_on channel=0 note=65 velocity=0 time=120
note_on channel=0 note=74 velocity=88 time=0
note_on channel=0 note=74 velocity=0 time=90
note_on channel=0 note=65 velocity=78 time=30
note_on channel=0 note=65 velocity=0 time=0
note_on channel=0 note=68 velocity=84 time=0
note_on channel=0 note=68 velocity=0 time=0
note_on channel=0 note=65 velocity=76 time=0
note_on channel=0 note=65 velocity=0 time=0
note_on channel=0 note=51 velocity=45 time=0
note_on channel=0 note=63 velocity=32 time=12
note_on channel=0 note=58 velocity=30 time=0
note_on channel=0 note=58 velocity=0 time=0
note_on channel=0 note=63 velocity=0 time=0
note_on channel=0 note=67 velocity=36 time=0
note_on channel=0 note=55 velocity=32 time=0
note_on channel=0 note=55 velocity=0 time=120
note_on channel=0 note=67 velocity=0 time=0
note_on channel=0 note=63 velocity=35 time=0
note_on channel=0 note=58 velocity=29 time=0
note_on channel=0 note=58 velocity=0 time=80
note_on channel=0 note=63 velocity=0 time=0
note_on channel=0 note=75 velocity=54 time=0
note_on channel=0 note=55 velocity=38 time=0
note_on channel=0 note=55 velocity=0 time=60
note_on channel=0 note=63 velocity=33 time=0
note_on channel=0 note=58 velocity=30 time=0
note_on channel=0 note=58 velocity=0 time=40
note_on channel=0 note=63 velocity=0 time=0
note_on channel=0 note=67 velocity=35 time=0
note_on channel=0 note=55 velocity=33 time=0
note_on channel=0 note=55 velocity=0 time=20
note_on channel=0 note=67 velocity=0 time=0
note_on channel=0 note=63 velocity=32 time=0
note_on channel=0 note=58 velocity=30 time=0
note_on channel=0 note=58 velocity=0 time=0
note_on channel=0 note=63 velocity=0 time=0
note_on channel=0 note=67 velocity=35 time=0
note_on channel=0 note=55 velocity=38 time=0
note_on channel=0 note=55 velocity=0 time=21
note_on channel=0 note=67 velocity=0 time=0
note_on channel=0 note=63 velocity=33 time=0
note_on channel=0 note=58 velocity=29 time=0
note_on channel=0 note=58 velocity=0 time=120
note_on channel=0 note=63 velocity=0 time=0
note_on channel=0 note=67 velocity=35 time=0
note_on channel=0 note=55 velocity=32 time=0
note_on channel=0 note=55 velocity=0 time=120
note_on channel=0 note=67 velocity=0 time=0
note_on channel=0 note=63 velocity=32 time=0
note_on channel=0 note=58 velocity=29 time=0
note_on channel=0 note=58 velocity=0 time=120
note_on channel=0 note=51 velocity=0 time=0
note_on channel=0 note=75 velocity=0 time=0
note_on channel=0 note=63 velocity=0 time=0
note_on channel=0 note=75 velocity=53 time=0
note_on channel=0 note=51 velocity=38 time=0
note_on channel=0 note=63 velocity=32 time=120
note_on channel=0 note=58 velocity=30 time=0
note_on channel=0 note=58 velocity=0 time=120
note_on channel=0 note=63 velocity=0 time=0
note_on channel=0 note=67 velocity=35 time=0
note_on channel=0 note=55 velocity=33 time=0
note_on channel=0 note=55 velocity=0 time=120
note_on channel=0 note=67 velocity=0 time=0
note_on channel=0 note=63 velocity=33 time=0
note_on channel=0 note=58 velocity=29 time=0
note_on channel=0 note=58 velocity=0 time=0
note_on channel=0 note=75 velocity=0 time=0
note_on channel=0 note=51 velocity=0 time=0
note_on channel=0 note=63 velocity=0 time=0
note_on channel=0 note=49 velocity=45 time=0
note_on channel=0 note=63 velocity=32 time=10
note_on channel=0 note=58 velocity=30 time=0
note_on channel=0 note=58 velocity=0 time=20
note_on channel=0 note=63 velocity=0 time=0
note_on channel=0 note=67 velocity=36 time=0
note_on channel=0 note=55 velocity=32 time=0
note_on channel=0 note=55 velocity=0 time=120
note_on channel=0 note=67 velocity=0 time=0
note_on channel=0 note=63 velocity=35 time=0
note_on channel=0 note=58 velocity=29 time=0
note_on channel=0 note=58 velocity=0 time=0
note_on channel=0 note=63 velocity=0 time=0
note_on channel=0 note=75 velocity=54 time=0
note_on channel=0 note=55 velocity=38 time=0
note_on channel=0 note=55 velocity=0 time=120
note_on channel=0 note=63 velocity=33 time=0
note_on channel=0 note=58 velocity=30 time=0
note_on channel=0 note=58 velocity=0 time=0
note_on channel=0 note=63 velocity=0 time=0
note_on channel=0 note=67 velocity=35 time=0
note_on channel=0 note=55 velocity=33 time=0
note_on channel=0 note=55 velocity=0 time=120
note_on channel=0 note=67 velocity=0 time=0
note_on channel=0 note=63 velocity=32 time=0
note_on channel=0 note=58 velocity=30 time=0
note_on channel=0 note=58 velocity=0 time=0
note_on channel=0 note=63 velocity=0 time=0
note_on channel=0 note=67 velocity=35 time=0
note_on channel=0 note=55 velocity=38 time=0
note_on channel=0 note=55 velocity=0 time=28
note_on channel=0 note=67 velocity=0 time=0
note_on channel=0 note=63 velocity=33 time=0
note_on channel=0 note=58 velocity=29 time=0
note_on channel=0 note=58 velocity=0 time=120
note_on channel=0 note=63 velocity=0 time=0
note_on channel=0 note=67 velocity=35 time=0
note_on channel=0 note=55 velocity=32 time=0
note_on channel=0 note=55 velocity=0 time=120
note_on channel=0 note=67 velocity=0 time=0
note_on channel=0 note=63 velocity=32 time=0
note_on channel=0 note=58 velocity=29 time=0
note_on channel=0 note=58 velocity=0 time=120
note_on channel=0 note=49 velocity=0 time=0
note_on channel=0 note=75 velocity=0 time=0
note_on channel=0 note=63 velocity=0 time=0
note_on channel=0 note=75 velocity=53 time=0
note_on channel=0 note=49 velocity=38 time=0
note_on channel=0 note=63 velocity=32 time=120
note_on channel=0 note=58 velocity=30 time=0
note_on channel=0 note=58 velocity=0 time=120
note_on channel=0 note=63 velocity=0 time=0
note_on channel=0 note=67 velocity=35 time=0
note_on channel=0 note=55 velocity=33 time=0
note_on channel=0 note=55 velocity=0 time=0
note_on channel=0 note=67 velocity=0 time=0
note_on channel=0 note=63 velocity=33 time=0
note_on channel=0 note=58 velocity=29 time=0
note_on channel=0 note=58 velocity=0 time=0
note_on channel=0 note=75 velocity=0 time=0
note_on channel=0 note=49 velocity=0 time=0
note_on channel=0 note=63 velocity=0 time=0
note_on channel=0 note=75 velocity=66 time=0
note_on channel=0 note=48 velocity=55 time=0
note_on channel=0 note=48 velocity=0 time=74
note_on channel=0 note=75 velocity=0 time=0
note_on channel=0 note=63 velocity=41 time=30
note_on channel=0 note=56 velocity=36 time=0
note_on channel=0 note=56 velocity=0 time=40
note_on channel=0 note=63 velocity=0 time=0
note_on channel=0 note=68 velocity=45 time=0
note_on channel=0 note=51 velocity=39 time=0
note_on channel=0 note=51 velocity=0 time=120
note_on channel=0 note=68 velocity=0 time=0
note_on channel=0 note=63 velocity=42 time=0
note_on channel=0 note=56 velocity=35 time=0
note_on channel=0 note=56 velocity=0 time=80
note_on channel=0 note=63 velocity=0 time=0
note_on channel=0 note=76 velocity=67 time=0
note_on channel=0 note=46 velocity=56 time=0
note_on channel=0 note=46 velocity=0 time=90
note_on channel=0 note=76 velocity=0 time=0
note_on channel=0 note=64 velocity=43 time=20
note_on channel=0 note=55 velocity=36 time=0
note_on channel=0 note=55 velocity=0 time=120
note_on channel=0 note=64 velocity=0 time=0
note_on channel=0 note=72 velocity=47 time=0
note_on channel=0 note=48 velocity=43 time=0
note_on channel=0 note=48 velocity=0 time=60
note_on channel=0 note=72 velocity=0 time=0
note_on channel=0 note=64 velocity=43 time=0
note_on channel=0 note=55 velocity=41 time=0
note_on channel=0 note=55 velocity=0 time=0
note_on channel=0 note=64 velocity=0 time=0
note_on channel=0 note=77 velocity=71 time=0
note_on channel=0 note=44 velocity=58 time=0
note_on channel=0 note=44 velocity=0 time=90
note_on channel=0 note=77 velocity=0 time=0
note_on channel=0 note=65 velocity=45 time=30
note_on channel=0 note=56 velocity=38 time=0
note_on channel=0 note=56 velocity=0 time=120
note_on channel=0 note=65 velocity=0 time=0
note_on channel=0 note=72 velocity=50 time=0
note_on channel=0 note=48 velocity=43 time=0
note_on channel=0 note=48 velocity=0 time=120
note_on channel=0 note=72 velocity=0 time=0
note_on channel=0 note=65 velocity=45 time=0
note_on channel=0 note=56 velocity=38 time=0
note_on channel=0 note=56 velocity=0 time=120
note_on channel=0 note=65 velocity=0 time=0
note_on channel=0 note=79 velocity=72 time=0
note_on channel=0 note=43 velocity=60 time=0
note_on channel=0 note=43 velocity=0 time=90
note_on channel=0 note=79 velocity=0 time=0
note_on channel=0 note=67 velocity=47 time=30
note_on channel=0 note=55 velocity=40 time=0
note_on channel=0 note=55 velocity=0 time=120
note_on channel=0 note=67 velocity=0 time=0
note_on channel=0 note=72 velocity=50 time=0
note_on channel=0 note=48 velocity=43 time=0
note_on channel=0 note=48 velocity=0 time=120
note_on channel=0 note=72 velocity=0 time=0
note_on channel=0 note=67 velocity=47 time=0
note_on channel=0 note=55 velocity=38 time=0
note_on channel=0 note=55 velocity=0 time=0
note_on channel=0 note=67 velocity=0 time=0
note_on channel=0 note=80 velocity=74 time=0
note_on channel=0 note=41 velocity=63 time=0
note_on channel=0 note=41 velocity=0 time=30
note_on channel=0 note=80 velocity=0 time=0
note_on channel=0 note=68 velocity=49 time=20
note_on channel=0 note=53 velocity=42 time=0
note_on channel=0 note=53 velocity=0 time=0
note_on channel=0 note=68 velocity=0 time=0
note_on channel=0 note=72 velocity=54 time=0
note_on channel=0 note=48 velocity=45 time=0
note_on channel=0 note=48 velocity=0 time=20
note_on channel=0 note=72 velocity=0 time=0
note_on channel=0 note=68 velocity=49 time=0
note_on channel=0 note=53 velocity=42 time=0
note_on channel=0 note=53 velocity=0 time=0
note_on channel=0 note=68 velocity=0 time=0
note_on channel=0 note=81 velocity=80 time=0
note_on channel=0 note=39 velocity=66 time=0
note_on channel=0 note=39 velocity=0 time=10
note_on channel=0 note=81 velocity=0 time=0
note_on channel=0 note=69 velocity=50 time=0
note_on channel=0 note=51 velocity=41 time=0
note_on channel=0 note=51 velocity=0 time=40
note_on channel=0 note=69 velocity=0 time=0
note_on channel=0 note=72 velocity=55 time=0
note_on channel=0 note=41 velocity=47 time=0
note_on channel=0 note=41 velocity=0 time=40
note_on channel=0 note=72 velocity=0 time=0
note_on channel=0 note=69 velocity=51 time=0
note_on channel=0 note=51 velocity=41 time=0
note_on channel=0 note=51 velocity=0 time=0
note_on channel=0 note=69 velocity=0 time=0
note_on channel=0 note=82 velocity=84 time=0
note_on channel=0 note=38 velocity=68 time=0
note_on channel=0 note=38 velocity=0 time=30
note_on channel=0 note=82 velocity=0 time=0
note_on channel=0 note=70 velocity=51 time=0
note_on channel=0 note=50 velocity=45 time=0
note_on channel=0 note=50 velocity=0 time=0
note_on channel=0 note=70 velocity=0 time=0
note_on channel=0 note=77 velocity=58 time=0
note_on channel=0 note=41 velocity=49 time=0
note_on channel=0 note=41 velocity=0 time=0
note_on channel=0 note=77 velocity=0 time=0
note_on channel=0 note=70 velocity=53 time=0
note_on channel=0 note=50 velocity=43 time=0
note_on channel=0 note=50 velocity=0 time=20
note_on channel=0 note=70 velocity=0 time=0
note_on channel=0 note=84 velocity=85 time=0
note_on channel=0 note=36 velocity=70 time=0
note_on channel=0 note=36 velocity=0 time=10
note_on channel=0 note=84 velocity=0 time=0
note_on channel=0 note=72 velocity=53 time=30
note_on channel=0 note=48 velocity=45 time=0
note_on channel=0 note=48 velocity=0 time=0
note_on channel=0 note=72 velocity=0 time=0
note_on channel=0 note=77 velocity=58 time=0
note_on channel=0 note=41 velocity=51 time=0
note_on channel=0 note=41 velocity=0 time=0
note_on channel=0 note=77 velocity=0 time=0
note_on channel=0 note=72 velocity=54 time=0
note_on channel=0 note=48 velocity=43 time=0
note_on channel=0 note=48 velocity=0 time=40
note_on channel=0 note=72 velocity=0 time=0
note_on channel=0 note=85 velocity=85 time=0
note_on channel=0 note=34 velocity=70 time=0
note_on channel=0 note=34 velocity=0 time=10
note_on channel=0 note=85 velocity=0 time=0
note_on channel=0 note=73 velocity=55 time=20
note_on channel=0 note=46 velocity=47 time=0
note_on channel=0 note=46 velocity=0 time=0
note_on channel=0 note=73 velocity=0 time=0
note_on channel=0 note=77 velocity=63 time=0
note_on channel=0 note=41 velocity=53 time=0
note_on channel=0 note=41 velocity=0 time=20
note_on channel=0 note=77 velocity=0 time=0
note_on channel=0 note=73 velocity=55 time=0
note_on channel=0 note=46 velocity=48 time=0
note_on channel=0 note=46 velocity=0 time=0
note_on channel=0 note=73 velocity=0 time=0
note_on channel=0 note=86 velocity=90 time=0
note_on channel=0 note=32 velocity=72 time=0
note_on channel=0 note=32 velocity=0 time=10
note_on channel=0 note=86 velocity=0 time=0
note_on channel=0 note=74 velocity=57 time=0
note_on channel=0 note=44 velocity=47 time=0
note_on channel=0 note=44 velocity=0 time=20
note_on channel=0 note=74 velocity=0 time=0
note_on channel=0 note=77 velocity=62 time=0
note_on channel=0 note=41 velocity=53 time=0
note_on channel=0 note=41 velocity=0 time=0
note_on channel=0 note=77 velocity=0 time=0
note_on channel=0 note=74 velocity=57 time=0
note_on channel=0 note=44 velocity=50 time=0
note_on channel=0 note=44 velocity=0 time=40
note_on channel=0 note=74 velocity=0 time=0
note_on channel=0 note=87 velocity=89 time=0
note_on channel=0 note=31 velocity=75 time=0
note_on channel=0 note=31 velocity=0 time=10
note_on channel=0 note=87 velocity=0 time=0
note_on channel=0 note=75 velocity=59 time=0
note_on channel=0 note=43 velocity=50 time=0
note_on channel=0 note=43 velocity=0 time=20
note_on channel=0 note=75 velocity=0 time=0
note_on channel=0 note=82 velocity=64 time=0
note_on channel=0 note=39 velocity=55 time=0
note_on channel=0 note=39 velocity=0 time=0
note_on channel=0 note=82 velocity=0 time=0
note_on channel=0 note=75 velocity=59 time=0
note_on channel=0 note=43 velocity=50 time=0
note_on channel=0 note=43 velocity=0 time=0
note_on channel=0 note=75 velocity=0 time=0
note_on channel=0 note=88 velocity=91 time=0
note_on channel=0 note=31 velocity=76 time=0
note_on channel=0 note=31 velocity=0 time=90
note_on channel=0 note=88 velocity=0 time=0
note_on channel=0 note=76 velocity=61 time=30
note_on channel=0 note=43 velocity=56 time=0
note_on channel=0 note=43 velocity=0 time=120
note_on channel=0 note=76 velocity=0 time=0
note_on channel=0 note=82 velocity=67 time=0
note_on channel=0 note=31 velocity=58 time=0
note_on channel=0 note=31 velocity=0 time=120
note_on channel=0 note=82 velocity=0 time=0
note_on channel=0 note=76 velocity=61 time=0
note_on channel=0 note=43 velocity=55 time=0
note_on channel=0 note=43 velocity=0 time=0
note_on channel=0 note=76 velocity=0 time=0
note_on channel=0 note=32 velocity=71 time=0
note_on channel=0 note=44 velocity=84 time=0
note_on channel=0 note=80 velocity=78 time=0
note_on channel=0 note=80 velocity=0 time=120
note_on channel=0 note=44 velocity=0 time=0
note_on channel=0 note=32 velocity=0 time=0
note_on channel=0 note=84 velocity=84 time=0
note_on channel=0 note=84 velocity=0 time=120
note_on channel=0 note=80 velocity=78 time=0
note_on channel=0 note=80 velocity=0 time=120
note_on channel=0 note=89 velocity=88 time=0
note_on channel=0 note=89 velocity=0 time=90
note_on channel=0 note=80 velocity=78 time=30
note_on channel=0 note=80 velocity=0 time=0
note_on channel=0 note=84 velocity=84 time=0
note_on channel=0 note=84 velocity=0 time=120
note_on channel=0 note=80 velocity=76 time=0
note_on channel=0 note=80 velocity=0 time=0
note_on channel=0 note=46 velocity=84 time=0
note_on channel=0 note=34 velocity=71 time=0
note_on channel=0 note=77 velocity=78 time=0
note_on channel=0 note=77 velocity=0 time=120
note_on channel=0 note=34 velocity=0 time=0
note_on channel=0 note=46 velocity=0 time=0
note_on channel=0 note=80 velocity=84 time=0
note_on channel=0 note=80 velocity=0 time=120
note_on channel=0 note=77 velocity=78 time=0
note_on channel=0 note=77 velocity=0 time=120
note_on channel=0 note=86 velocity=88 time=0
note_on channel=0 note=86 velocity=0 time=90
note_on channel=0 note=77 velocity=78 time=30
note_on channel=0 note=77 velocity=0 time=0
note_on channel=0 note=80 velocity=84 time=0
note_on channel=0 note=80 velocity=0 time=120
note_on channel=0 note=77 velocity=76 time=0
note_on channel=0 note=77 velocity=0 time=0
note_on channel=0 note=79 velocity=81 time=0
note_on channel=0 note=39 velocity=84 time=0
note_on channel=0 note=51 velocity=84 time=0
note_on channel=0 note=79 velocity=0 time=74
note_on channel=0 note=51 velocity=0 time=0
note_on channel=0 note=39 velocity=0 time=0
note_on channel=0 note=87 velocity=62 time=0
note_on channel=0 note=63 velocity=34 time=0
note_on channel=0 note=67 velocity=34 time=0
note_on channel=0 note=67 velocity=0 time=136
note_on channel=0 note=63 velocity=0 time=0
note_on channel=0 note=63 velocity=34 time=12
note_on channel=0 note=67 velocity=34 time=0
note_on channel=0 note=67 velocity=0 time=8
note_on channel=0 note=63 velocity=0 time=0
note_on channel=0 note=87 velocity=0 time=12
note_on channel=0 note=86 velocity=46 time=0
note_on channel=0 note=63 velocity=34 time=0
note_on channel=0 note=67 velocity=34 time=0
note_on channel=0 note=86 velocity=0 time=0
note_on channel=0 note=87 velocity=48 time=0
note_on channel=0 note=67 velocity=0 time=8
note_on channel=0 note=63 velocity=0 time=0
note_on channel=0 note=87 velocity=0 time=12
note_on channel=0 note=89 velocity=49 time=0
note_on channel=0 note=60 velocity=34 time=0
note_on channel=0 note=89 velocity=0 time=0
note_on channel=0 note=87 velocity=49 time=0
note_on channel=0 note=87 velocity=0 time=0
note_on channel=0 note=86 velocity=48 time=0
note_on channel=0 note=63 velocity=34 time=0
note_on channel=0 note=67 velocity=34 time=0
note_on channel=0 note=86 velocity=0 time=100
note_on channel=0 note=84 velocity=47 time=0
note_on channel=0 note=67 velocity=0 time=108
note_on channel=0 note=63 velocity=0 time=0
note_on channel=0 note=84 velocity=0 time=12
note_on channel=0 note=83 velocity=45 time=0
note_on channel=0 note=63 velocity=34 time=0
note_on channel=0 note=67 velocity=34 time=0
note_on channel=0 note=83 velocity=0 time=120
note_on channel=0 note=84 velocity=46 time=0
note_on channel=0 note=67 velocity=0 time=108
note_on channel=0 note=63 velocity=0 time=0
note_on channel=0 note=84 velocity=0 time=0
note_on channel=0 note=86 velocity=49 time=0
note_on channel=0 note=63 velocity=34 time=0
note_on channel=0 note=67 velocity=34 time=0
note_on channel=0 note=86 velocity=0 time=0
note_on channel=0 note=84 velocity=47 time=0
note_on channel=0 note=67 velocity=0 time=8
note_on channel=0 note=63 velocity=0 time=0
note_on channel=0 note=60 velocity=0 time=12
note_on channel=0 note=84 velocity=0 time=0
note_on channel=0 note=82 velocity=49 time=0
note_on channel=0 note=56 velocity=34 time=0
note_on channel=0 note=82 velocity=0 time=20
note_on channel=0 note=80 velocity=47 time=0
note_on channel=0 note=80 velocity=0 time=0
note_on channel=0 note=79 velocity=46 time=0
note_on channel=0 note=65 velocity=34 time=0
note_on channel=0 note=63 velocity=34 time=0
note_on channel=0 note=79 velocity=0 time=120
note_on channel=0 note=77 velocity=45 time=0
note_on channel=0 note=63 velocity=0 time=108
note_on channel=0 note=65 velocity=0 time=0
note_on channel=0 note=77 velocity=0 time=12
note_on channel=0 note=76 velocity=45 time=0
note_on channel=0 note=63 velocity=34 time=0
note_on channel=0 note=65 velocity=34 time=0
note_on channel=0 note=76 velocity=0 time=120
note_on channel=0 note=77 velocity=45 time=0
note_on channel=0 note=65 velocity=0 time=8
note_on channel=0 note=63 velocity=0 time=0
note_on channel=0 note=77 velocity=0 time=12
note_on channel=0 note=79 velocity=47 time=0
note_on channel=0 note=63 velocity=34 time=0
note_on channel=0 note=65 velocity=34 time=0
note_on channel=0 note=79 velocity=0 time=20
note_on channel=0 note=77 velocity=45 time=0
note_on channel=0 note=65 velocity=0 time=8
note_on channel=0 note=63 velocity=0 time=0
note_on channel=0 note=56 velocity=0 time=0
note_on channel=0 note=77 velocity=0 time=0
note_on channel=0 note=75 velocity=46 time=0
note_on channel=0 note=58 velocity=34 time=0
note_on channel=0 note=75 velocity=0 time=20
note_on channel=0 note=74 velocity=46 time=0
note_on channel=0 note=74 velocity=0 time=20
note_on channel=0 note=72 velocity=45 time=0
note_on channel=0 note=62 velocity=34 time=0
note_on channel=0 note=65 velocity=34 time=0
note_on channel=0 note=72 velocity=0 time=120
note_on channel=0 note=70 velocity=45 time=0
note_on channel=0 note=65 velocity=0 time=108
note_on channel=0 note=62 velocity=0 time=0
note_on channel=0 note=70 velocity=0 time=12
note_on channel=0 note=69 velocity=45 time=0
note_on channel=0 note=62 velocity=34 time=0
note_on channel=0 note=65 velocity=34 time=0
note_on channel=0 note=69 velocity=0 time=120
note_on channel=0 note=70 velocity=42 time=0
note_on channel=0 note=65 velocity=0 time=108
note_on channel=0 note=62 velocity=0 time=0
note_on channel=0 note=70 velocity=0 time=12
note_on channel=0 note=72 velocity=46 time=0
note_on channel=0 note=62 velocity=34 time=0
note_on channel=0 note=65 velocity=34 time=0
note_on channel=0 note=72 velocity=0 time=120
note_on channel=0 note=68 velocity=42 time=0
note_on channel=0 note=65 velocity=0 time=108
note_on channel=0 note=62 velocity=0 time=0
note_on channel=0 note=58 velocity=0 time=0
note_on channel=0 note=68 velocity=0 time=0
note_on channel=0 note=67 velocity=66 time=0
note_on channel=0 note=51 velocity=59 time=0
note_on channel=0 note=67 velocity=0 time=77
note_on channel=0 note=75 velocity=68 time=0
note_on channel=0 note=87 velocity=68 time=0
note_on channel=0 note=55 velocity=44 time=0
note_on channel=0 note=63 velocity=44 time=0
note_on channel=0 note=63 velocity=0 time=122
note_on channel=0 note=55 velocity=0 time=0
note_on channel=0 note=55 velocity=44 time=12
note_on channel=0 note=63 velocity=44 time=0
note_on channel=0 note=63 velocity=0 time=8
note_on channel=0 note=55 velocity=0 time=0
note_on channel=0 note=87 velocity=0 time=12
note_on channel=0 note=75 velocity=0 time=0
note_on channel=0 note=86 velocity=61 time=0
note_on channel=0 note=55 velocity=44 time=0
note_on channel=0 note=63 velocity=44 time=0
note_on channel=0 note=86 velocity=0 time=0
note_on channel=0 note=87 velocity=64 time=0
note_on channel=0 note=63 velocity=0 time=8
note_on channel=0 note=55 velocity=0 time=0
note_on channel=0 note=51 velocity=0 time=12
note_on channel=0 note=87 velocity=0 time=0
note_on channel=0 note=89 velocity=66 time=0
note_on channel=0 note=48 velocity=45 time=0
note_on channel=0 note=89 velocity=0 time=0
note_on channel=0 note=87 velocity=66 time=0
note_on channel=0 note=87 velocity=0 time=0
note_on channel=0 note=86 velocity=65 time=0
note_on channel=0 note=55 velocity=46 time=0
note_on channel=0 note=51 velocity=46 time=0
note_on channel=0 note=60 velocity=46 time=0
note_on channel=0 note=86 velocity=0 time=100
note_on channel=0 note=84 velocity=64 time=0
note_on channel=0 note=51 velocity=0 time=108
note_on channel=0 note=60 velocity=0 time=0
note_on channel=0 note=55 velocity=0 time=0
note_on channel=0 note=84 velocity=0 time=12
note_on channel=0 note=83 velocity=62 time=0
note_on channel=0 note=55 velocity=46 time=0
note_on channel=0 note=51 velocity=46 time=0
note_on channel=0 note=60 velocity=46 time=0
note_on channel=0 note=83 velocity=0 time=120
note_on channel=0 note=84 velocity=64 time=0
note_on channel=0 note=51 velocity=0 time=108
note_on channel=0 note=60 velocity=0 time=0
note_on channel=0 note=55 velocity=0 time=0
note_on channel=0 note=84 velocity=0 time=0
note_on channel=0 note=86 velocity=68 time=0
note_on channel=0 note=55 velocity=47 time=0
note_on channel=0 note=51 velocity=47 time=0
note_on channel=0 note=60 velocity=47 time=0
note_on channel=0 note=86 velocity=0 time=0
note_on channel=0 note=84 velocity=66 time=0
note_on channel=0 note=51 velocity=0 time=8
note_on channel=0 note=60 velocity=0 time=0
note_on channel=0 note=55 velocity=0 time=0
note_on channel=0 note=48 velocity=0 time=12
note_on channel=0 note=84 velocity=0 time=0
note_on channel=0 note=82 velocity=69 time=0
note_on channel=0 note=44 velocity=47 time=0
note_on channel=0 note=82 velocity=0 time=20
note_on channel=0 note=80 velocity=67 time=0
note_on channel=0 note=80 velocity=0 time=0
note_on channel=0 note=79 velocity=66 time=0
note_on channel=0 note=53 velocity=48 time=0
note_on channel=0 note=56 velocity=48 time=0
note_on channel=0 note=51 velocity=48 time=0
note_on channel=0 note=79 velocity=0 time=120
note_on channel=0 note=77 velocity=65 time=0
note_on channel=0 note=56 velocity=0 time=108
note_on channel=0 note=51 velocity=0 time=0
note_on channel=0 note=53 velocity=0 time=0
note_on channel=0 note=77 velocity=0 time=12
note_on channel=0 note=76 velocity=65 time=0
note_on channel=0 note=53 velocity=48 time=0
note_on channel=0 note=51 velocity=48 time=0
note_on channel=0 note=56 velocity=48 time=0
note_on channel=0 note=76 velocity=0 time=120
note_on channel=0 note=77 velocity=64 time=0
note_on channel=0 note=51 velocity=0 time=8
note_on channel=0 note=56 velocity=0 time=0
note_on channel=0 note=53 velocity=0 time=0
note_on channel=0 note=77 velocity=0 time=12
note_on channel=0 note=79 velocity=68 time=0
note_on channel=0 note=53 velocity=49 time=0
note_on channel=0 note=51 velocity=49 time=0
note_on channel=0 note=56 velocity=49 time=0
note_on channel=0 note=79 velocity=0 time=20
note_on channel=0 note=77 velocity=66 time=0
note_on channel=0 note=51 velocity=0 time=8
note_on channel=0 note=56 velocity=0 time=0
note_on channel=0 note=53 velocity=0 time=0
note_on channel=0 note=44 velocity=0 time=0
note_on channel=0 note=77 velocity=0 time=0
note_on channel=0 note=75 velocity=68 time=0
note_on channel=0 note=46 velocity=49 time=0
note_on channel=0 note=75 velocity=0 time=20
note_on channel=0 note=74 velocity=68 time=0
note_on channel=0 note=74 velocity=0 time=20
note_on channel=0 note=72 velocity=68 time=0
note_on channel=0 note=53 velocity=50 time=0
note_on channel=0 note=50 velocity=50 time=0
note_on channel=0 note=58 velocity=50 time=0
note_on channel=0 note=72 velocity=0 time=120
note_on channel=0 note=70 velocity=68 time=0
note_on channel=0 note=50 velocity=0 time=108
note_on channel=0 note=58 velocity=0 time=0
note_on channel=0 note=53 velocity=0 time=0
note_on channel=0 note=70 velocity=0 time=12
note_on channel=0 note=69 velocity=67 time=0
note_on channel=0 note=53 velocity=50 time=0
note_on channel=0 note=50 velocity=50 time=0
note_on channel=0 note=58 velocity=50 time=0
note_on channel=0 note=69 velocity=0 time=120
note_on channel=0 note=70 velocity=64 time=0
note_on channel=0 note=50 velocity=0 time=8
note_on channel=0 note=58 velocity=0 time=0
note_on channel=0 note=53 velocity=0 time=0
note_on channel=0 note=70 velocity=0 time=0
note_on channel=0 note=72 velocity=70 time=0
note_on channel=0 note=53 velocity=51 time=0
note_on channel=0 note=50 velocity=51 time=0
note_on channel=0 note=58 velocity=51 time=0
note_on channel=0 note=72 velocity=0 time=0
note_on channel=0 note=70 velocity=64 time=0
note_on channel=0 note=50 velocity=0 time=8
note_on channel=0 note=58 velocity=0 time=0
note_on channel=0 note=53 velocity=0 time=0
note_on channel=0 note=46 velocity=0 time=0
note_on channel=0 note=70 velocity=0 time=0
note_on channel=0 note=75 velocity=83 time=0
note_on channel=0 note=39 velocity=67 time=0
note_on channel=0 note=75 velocity=0 time=107
note_on channel=0 note=51 velocity=60 time=0
note_on channel=0 note=39 velocity=0 time=108
note_on channel=0 note=51 velocity=0 time=0
note_on channel=0 note=63 velocity=82 time=0
note_on channel=0 note=39 velocity=67 time=0
note_on channel=0 note=51 velocity=59 time=120
note_on channel=0 note=39 velocity=0 time=108
note_on channel=0 note=51 velocity=0 time=0
note_on channel=0 note=39 velocity=67 time=0
note_on channel=0 note=51 velocity=60 time=120
note_on channel=0 note=39 velocity=0 time=108
note_on channel=0 note=51 velocity=0 time=0
note_on channel=0 note=63 velocity=0 time=0
note_on channel=0 note=61 velocity=80 time=0
note_on channel=0 note=67 velocity=80 time=0
note_on channel=0 note=39 velocity=66 time=0
note_on channel=0 note=67 velocity=0 time=120
note_on channel=0 note=61 velocity=0 time=0
note_on channel=0 note=51 velocity=60 time=0
note_on channel=0 note=39 velocity=0 time=108
note_on channel=0 note=51 velocity=0 time=12
note_on channel=0 note=60 velocity=81 time=0
note_on channel=0 note=68 velocity=81 time=0
note_on channel=0 note=39 velocity=66 time=0
note_on channel=0 note=68 velocity=0 time=120
note_on channel=0 note=60 velocity=0 time=0
note_on channel=0 note=51 velocity=59 time=0
note_on channel=0 note=39 velocity=0 time=108
note_on channel=0 note=51 velocity=0 time=12
note_on channel=0 note=67 velocity=82 time=0
note_on channel=0 note=70 velocity=82 time=0
note_on channel=0 note=39 velocity=66 time=0
note_on channel=0 note=70 velocity=0 time=120
note_on channel=0 note=67 velocity=0 time=0
note_on channel=0 note=51 velocity=60 time=0
note_on channel=0 note=39 velocity=0 time=108
note_on channel=0 note=51 velocity=0 time=12
note_on channel=0 note=68 velocity=83 time=0
note_on channel=0 note=72 velocity=83 time=0
note_on channel=0 note=39 velocity=66 time=0
note_on channel=0 note=72 velocity=0 time=120
note_on channel=0 note=68 velocity=0 time=0
note_on channel=0 note=51 velocity=60 time=0
note_on channel=0 note=39 velocity=0 time=108
note_on channel=0 note=51 velocity=0 time=12
note_on channel=0 note=68 velocity=85 time=0
note_on channel=0 note=74 velocity=85 time=0
note_on channel=0 note=39 velocity=66 time=0
note_on channel=0 note=74 velocity=0 time=120
note_on channel=0 note=68 velocity=0 time=0
note_on channel=0 note=51 velocity=61 time=0
note_on channel=0 note=39 velocity=0 time=108
note_on channel=0 note=51 velocity=0 time=0
note_on channel=0 note=67 velocity=83 time=0
note_on channel=0 note=75 velocity=83 time=0
note_on channel=0 note=39 velocity=67 time=0
note_on channel=0 note=75 velocity=0 time=120
note_on channel=0 note=67 velocity=0 time=0
note_on channel=0 note=51 velocity=60 time=0
note_on channel=0 note=39 velocity=0 time=108
note_on channel=0 note=51 velocity=0 time=0
note_on channel=0 note=75 velocity=82 time=0
note_on channel=0 note=39 velocity=67 time=0
note_on channel=0 note=51 velocity=59 time=120
note_on channel=0 note=39 velocity=0 time=108
note_on channel=0 note=51 velocity=0 time=0
note_on channel=0 note=39 velocity=67 time=0
note_on channel=0 note=51 velocity=60 time=120
note_on channel=0 note=39 velocity=0 time=108
note_on channel=0 note=51 velocity=0 time=0
note_on channel=0 note=75 velocity=0 time=0
note_on channel=0 note=73 velocity=80 time=0
note_on channel=0 note=79 velocity=80 time=0
note_on channel=0 note=39 velocity=66 time=0
note_on channel=0 note=79 velocity=0 time=120
note_on channel=0 note=73 velocity=0 time=0
note_on channel=0 note=51 velocity=60 time=0
note_on channel=0 note=39 velocity=0 time=108
note_on channel=0 note=51 velocity=0 time=12
note_on channel=0 note=72 velocity=81 time=0
note_on channel=0 note=80 velocity=81 time=0
note_on channel=0 note=39 velocity=66 time=0
note_on channel=0 note=80 velocity=0 time=120
note_on channel=0 note=72 velocity=0 time=0
note_on channel=0 note=51 velocity=59 time=0
note_on channel=0 note=39 velocity=0 time=108
note_on channel=0 note=51 velocity=0 time=12
note_on channel=0 note=79 velocity=82 time=0
note_on channel=0 note=82 velocity=82 time=0
note_on channel=0 note=39 velocity=66 time=0
note_on channel=0 note=82 velocity=0 time=120
note_on channel=0 note=79 velocity=0 time=0
note_on channel=0 note=51 velocity=60 time=0
note_on channel=0 note=39 velocity=0 time=108
note_on channel=0 note=51 velocity=0 time=12
note_on channel=0 note=80 velocity=83 time=0
note_on channel=0 note=84 velocity=83 time=0
note_on channel=0 note=39 velocity=66 time=0
note_on channel=0 note=84 velocity=0 time=120
note_on channel=0 note=80 velocity=0 time=0
note_on channel=0 note=51 velocity=60 time=0
note_on channel=0 note=39 velocity=0 time=108
note_on channel=0 note=51 velocity=0 time=0
note_on channel=0 note=80 velocity=85 time=0
note_on channel=0 note=86 velocity=85 time=0
note_on channel=0 note=39 velocity=66 time=0
note_on channel=0 note=86 velocity=0 time=120
note_on channel=0 note=80 velocity=0 time=0
note_on channel=0 note=51 velocity=61 time=0
note_on channel=0 note=39 velocity=0 time=108
note_on channel=0 note=51 velocity=0 time=0
note_on channel=0 note=87 velocity=94 time=0
note_on channel=0 note=79 velocity=94 time=0
note_on channel=0 note=39 velocity=66 time=0
note_on channel=0 note=51 velocity=59 time=120
note_on channel=0 note=39 velocity=0 time=108
note_on channel=0 note=51 velocity=0 time=12
note_on channel=0 note=39 velocity=66 time=0
note_on channel=0 note=51 velocity=60 time=120
note_on channel=0 note=39 velocity=0 time=108
note_on channel=0 note=51 velocity=0 time=12
note_on channel=0 note=39 velocity=66 time=0
note_on channel=0 note=51 velocity=60 time=120
note_on channel=0 note=39 velocity=0 time=108
note_on channel=0 note=51 velocity=0 time=12
note_on channel=0 note=39 velocity=66 time=0
note_on channel=0 note=51 velocity=61 time=120
note_on channel=0 note=39 velocity=0 time=108
note_on channel=0 note=87 velocity=0 time=0
note_on channel=0 note=79 velocity=0 time=0
note_on channel=0 note=51 velocity=0 time=0
note_on channel=0 note=67 velocity=88 time=0
note_on channel=0 note=75 velocity=88 time=0
note_on channel=0 note=38 velocity=66 time=0
note_on channel=0 note=50 velocity=59 time=120
note_on channel=0 note=38 velocity=0 time=108
note_on channel=0 note=50 velocity=0 time=12
note_on channel=0 note=38 velocity=66 time=0
note_on channel=0 note=50 velocity=60 time=120
note_on channel=0 note=38 velocity=0 time=108
note_on channel=0 note=50 velocity=0 time=12
note_on channel=0 note=38 velocity=66 time=0
note_on channel=0 note=50 velocity=60 time=120
note_on channel=0 note=38 velocity=0 time=108
note_on channel=0 note=50 velocity=0 time=0
note_on channel=0 note=38 velocity=66 time=0
note_on channel=0 note=50 velocity=61 time=120
note_on channel=0 note=38 velocity=0 time=108
note_on channel=0 note=67 velocity=0 time=0
note_on channel=0 note=75 velocity=0 time=0
note_on channel=0 note=50 velocity=0 time=0
note_on channel=0 note=87 velocity=99 time=0
note_on channel=0 note=79 velocity=99 time=0
note_on channel=0 note=36 velocity=66 time=0
note_on channel=0 note=48 velocity=59 time=120
note_on channel=0 note=36 velocity=0 time=108
note_on channel=0 note=48 velocity=0 time=12
note_on channel=0 note=36 velocity=66 time=0
note_on channel=0 note=48 velocity=60 time=120
note_on channel=0 note=36 velocity=0 time=108
note_on channel=0 note=48 velocity=0 time=12
note_on channel=0 note=36 velocity=66 time=0
note_on channel=0 note=48 velocity=60 time=120
note_on channel=0 note=36 velocity=0 time=108
note_on channel=0 note=48 velocity=0 time=12
note_on channel=0 note=36 velocity=66 time=0
note_on channel=0 note=48 velocity=61 time=120
note_on channel=0 note=36 velocity=0 time=108
note_on channel=0 note=87 velocity=0 time=0
note_on channel=0 note=79 velocity=0 time=0
note_on channel=0 note=48 velocity=0 time=0
note_on channel=0 note=67 velocity=92 time=0
note_on channel=0 note=75 velocity=92 time=0
note_on channel=0 note=34 velocity=66 time=0
note_on channel=0 note=46 velocity=59 time=120
note_on channel=0 note=34 velocity=0 time=108
note_on channel=0 note=46 velocity=0 time=12
note_on channel=0 note=34 velocity=66 time=0
note_on channel=0 note=46 velocity=60 time=120
note_on channel=0 note=34 velocity=0 time=108
note_on channel=0 note=46 velocity=0 time=12
note_on channel=0 note=34 velocity=66 time=0
note_on channel=0 note=46 velocity=60 time=120
note_on channel=0 note=34 velocity=0 time=108
note_on channel=0 note=46 velocity=0 time=0
note_on channel=0 note=34 velocity=66 time=0
note_on channel=0 note=46 velocity=61 time=120
note_on channel=0 note=34 velocity=0 time=108
note_on channel=0 note=67 velocity=0 time=0
note_on channel=0 note=75 velocity=0 time=0
note_on channel=0 note=46 velocity=0 time=0
note_on channel=0 note=87 velocity=102 time=0
note_on channel=0 note=84 velocity=102 time=0
note_on channel=0 note=32 velocity=66 time=0
note_on channel=0 note=44 velocity=59 time=120
note_on channel=0 note=32 velocity=0 time=108
note_on channel=0 note=44 velocity=0 time=12
note_on channel=0 note=32 velocity=66 time=0
note_on channel=0 note=44 velocity=60 time=120
note_on channel=0 note=32 velocity=0 time=108
note_on channel=0 note=44 velocity=0 time=12
note_on channel=0 note=32 velocity=66 time=0
note_on channel=0 note=44 velocity=60 time=120
note_on channel=0 note=32 velocity=0 time=108
note_on channel=0 note=44 velocity=0 time=12
note_on channel=0 note=32 velocity=66 time=0
note_on channel=0 note=44 velocity=61 time=120
note_on channel=0 note=32 velocity=0 time=108
note_on channel=0 note=87 velocity=0 time=0
note_on channel=0 note=84 velocity=0 time=0
note_on channel=0 note=44 velocity=0 time=0
note_on channel=0 note=72 velocity=96 time=0
note_on channel=0 note=75 velocity=96 time=0
note_on channel=0 note=31 velocity=66 time=0
note_on channel=0 note=43 velocity=59 time=120
note_on channel=0 note=31 velocity=0 time=108
note_on channel=0 note=43 velocity=0 time=12
note_on channel=0 note=31 velocity=66 time=0
note_on channel=0 note=43 velocity=60 time=120
note_on channel=0 note=31 velocity=0 time=108
note_on channel=0 note=43 velocity=0 time=12
note_on channel=0 note=31 velocity=66 time=0
note_on channel=0 note=43 velocity=60 time=120
note_on channel=0 note=31 velocity=0 time=108
note_on channel=0 note=43 velocity=0 time=0
note_on channel=0 note=31 velocity=66 time=0
note_on channel=0 note=43 velocity=61 time=120
note_on channel=0 note=31 velocity=0 time=108
note_on channel=0 note=72 velocity=0 time=0
note_on channel=0 note=75 velocity=0 time=0
note_on channel=0 note=43 velocity=0 time=0
note_on channel=0 note=84 velocity=93 time=0
note_on channel=0 note=81 velocity=93 time=0
note_on channel=0 note=86 velocity=93 time=0
note_on channel=0 note=30 velocity=62 time=0
note_on channel=0 note=42 velocity=74 time=0
note_on channel=0 note=42 velocity=0 time=0
note_on channel=0 note=86 velocity=0 time=0
note_on channel=0 note=84 velocity=0 time=0
note_on channel=0 note=81 velocity=0 time=0
note_on channel=0 note=30 velocity=0 time=0
note_on channel=0 note=53 velocity=86 time=0
note_on channel=0 note=59 velocity=102 time=0
note_on channel=0 note=62 velocity=102 time=0
note_on channel=0 note=31 velocity=71 time=0
note_on channel=0 note=43 velocity=84 time=0
note_on channel=0 note=43 velocity=0 time=0
note_on channel=0 note=62 velocity=0 time=0
note_on channel=0 note=53 velocity=0 time=0
note_on channel=0 note=59 velocity=0 time=0
note_on channel=0 note=31 velocity=0 time=0
note_on channel=0 note=60 velocity=50 time=0
note_on channel=0 note=36 velocity=44 time=0
note_on channel=0 note=48 velocity=41 time=0
note_on channel=0 note=36 velocity=0 time=48
note_on channel=0 note=48 velocity=0 time=0
note_on channel=0 note=36 velocity=44 time=0
note_on channel=0 note=48 velocity=41 time=0
note_on channel=0 note=36 velocity=0 time=48
note_on channel=0 note=48 velocity=0 time=0
note_on channel=0 note=36 velocity=44 time=0
note_on channel=0 note=48 velocity=41 time=0
note_on channel=0 note=36 velocity=0 time=39
note_on channel=0 note=48 velocity=0 time=0
note_on channel=0 note=60 velocity=0 time=0
note_on channel=0 note=58 velocity=52 time=0
note_on channel=0 note=64 velocity=52 time=0
note_on channel=0 note=36 velocity=45 time=0
note_on channel=0 note=64 velocity=0 time=30
note_on channel=0 note=58 velocity=0 time=0
note_on channel=0 note=48 velocity=41 time=0
note_on channel=0 note=36 velocity=0 time=108
note_on channel=0 note=48 velocity=0 time=12
note_on channel=0 note=56 velocity=54 time=0
note_on channel=0 note=65 velocity=54 time=0
note_on channel=0 note=36 velocity=45 time=0
note_on channel=0 note=65 velocity=0 time=90
note_on channel=0 note=56 velocity=0 time=0
note_on channel=0 note=48 velocity=46 time=30
note_on channel=0 note=36 velocity=0 time=108
note_on channel=0 note=48 velocity=0 time=0
note_on channel=0 note=64 velocity=56 time=0
note_on channel=0 note=67 velocity=56 time=0
note_on channel=0 note=36 velocity=47 time=0
note_on channel=0 note=67 velocity=0 time=90
note_on channel=0 note=64 velocity=0 time=0
note_on channel=0 note=48 velocity=47 time=30
note_on channel=0 note=36 velocity=0 time=108
note_on channel=0 note=48 velocity=0 time=12
note_on channel=0 note=65 velocity=57 time=0
note_on channel=0 note=68 velocity=57 time=0
note_on channel=0 note=36 velocity=49 time=0
note_on channel=0 note=68 velocity=0 time=90
note_on channel=0 note=65 velocity=0 time=0
note_on channel=0 note=48 velocity=50 time=30
note_on channel=0 note=36 velocity=0 time=108
note_on channel=0 note=48 velocity=0 time=0
note_on channel=0 note=62 velocity=59 time=0
note_on channel=0 note=71 velocity=59 time=0
note_on channel=0 note=36 velocity=51 time=0
note_on channel=0 note=71 velocity=0 time=90
note_on channel=0 note=62 velocity=0 time=0
note_on channel=0 note=48 velocity=53 time=30
note_on channel=0 note=36 velocity=0 time=108
note_on channel=0 note=48 velocity=0 time=0
note_on channel=0 note=63 velocity=61 time=0
note_on channel=0 note=72 velocity=61 time=0
note_on channel=0 note=36 velocity=55 time=0
note_on channel=0 note=72 velocity=0 time=90
note_on channel=0 note=63 velocity=0 time=0
note_on channel=0 note=48 velocity=50 time=30
note_on channel=0 note=36 velocity=0 time=108
note_on channel=0 note=48 velocity=0 time=0
note_on channel=0 note=64 velocity=55 time=0
note_on channel=0 note=72 velocity=55 time=0
note_on channel=0 note=36 velocity=53 time=0
note_on channel=0 note=48 velocity=47 time=51
note_on channel=0 note=36 velocity=0 time=108
note_on channel=0 note=48 velocity=0 time=12
note_on channel=0 note=36 velocity=53 time=0
note_on channel=0 note=48 velocity=47 time=120
note_on channel=0 note=36 velocity=0 time=108
note_on channel=0 note=64 velocity=0 time=12
note_on channel=0 note=72 velocity=0 time=0
note_on channel=0 note=48 velocity=0 time=0
note_on channel=0 note=70 velocity=51 time=0
note_on channel=0 note=76 velocity=51 time=0
note_on channel=0 note=36 velocity=44 time=0
note_on channel=0 note=76 velocity=0 time=55
note_on channel=0 note=70 velocity=0 time=0
note_on channel=0 note=48 velocity=40 time=30
note_on channel=0 note=36 velocity=0 time=108
note_on channel=0 note=48 velocity=0 time=12
note_on channel=0 note=68 velocity=53 time=0
note_on channel=0 note=77 velocity=53 time=0
note_on channel=0 note=36 velocity=43 time=0
note_on channel=0 note=77 velocity=0 time=90
note_on channel=0 note=68 velocity=0 time=0
note_on channel=0 note=48 velocity=45 time=30
note_on channel=0 note=36 velocity=0 time=108
note_on channel=0 note=48 velocity=0 time=0
note_on channel=0 note=76 velocity=55 time=0
note_on channel=0 note=79 velocity=55 time=0
note_on channel=0 note=36 velocity=46 time=0
note_on channel=0 note=79 velocity=0 time=90
note_on channel=0 note=76 velocity=0 time=0
note_on channel=0 note=48 velocity=47 time=30
note_on channel=0 note=36 velocity=0 time=108
note_on channel=0 note=48 velocity=0 time=12
note_on channel=0 note=77 velocity=57 time=0
note_on channel=0 note=80 velocity=57 time=0
note_on channel=0 note=36 velocity=48 time=0
note_on channel=0 note=80 velocity=0 time=90
note_on channel=0 note=77 velocity=0 time=0
note_on channel=0 note=48 velocity=50 time=30
note_on channel=0 note=36 velocity=0 time=108
note_on channel=0 note=48 velocity=0 time=12
note_on channel=0 note=74 velocity=59 time=0
note_on channel=0 note=83 velocity=59 time=0
note_on channel=0 note=36 velocity=51 time=0
note_on channel=0 note=83 velocity=0 time=90
note_on channel=0 note=74 velocity=0 time=0
note_on channel=0 note=48 velocity=53 time=30
note_on channel=0 note=36 velocity=0 time=108
note_on channel=0 note=48 velocity=0 time=0
note_on channel=0 note=72 velocity=51 time=0
note_on channel=0 note=79 velocity=61 time=0
note_on channel=0 note=75 velocity=51 time=0
note_on channel=0 note=84 velocity=61 time=0
note_on channel=0 note=36 velocity=55 time=0
note_on channel=0 note=48 velocity=50 time=35
note_on channel=0 note=36 velocity=0 time=108
note_on channel=0 note=48 velocity=0 time=0
note_on channel=0 note=36 velocity=53 time=0
note_on channel=0 note=48 velocity=47 time=120
note_on channel=0 note=36 velocity=0 time=108
note_on channel=0 note=79 velocity=0 time=12
note_on channel=0 note=84 velocity=0 time=0
note_on channel=0 note=72 velocity=0 time=0
note_on channel=0 note=48 velocity=0 time=0
note_on channel=0 note=75 velocity=0 time=0
note_on channel=0 note=67 velocity=53 time=0
note_on channel=0 note=71 velocity=53 time=0
note_on channel=0 note=77 velocity=63 time=0
note_on channel=0 note=79 velocity=63 time=0
note_on channel=0 note=38 velocity=55 time=0
note_on channel=0 note=50 velocity=50 time=109
note_on channel=0 note=38 velocity=0 time=94
note_on channel=0 note=50 velocity=0 time=0
note_on channel=0 note=38 velocity=55 time=0
note_on channel=0 note=50 velocity=51 time=120
note_on channel=0 note=38 velocity=0 time=108
note_on channel=0 note=71 velocity=0 time=0
note_on channel=0 note=79 velocity=0 time=0
note_on channel=0 note=67 velocity=0 time=0
note_on channel=0 note=50 velocity=0 time=0
note_on channel=0 note=77 velocity=0 time=0
note_on channel=0 note=67 velocity=56 time=0
note_on channel=0 note=72 velocity=56 time=0
note_on channel=0 note=75 velocity=67 time=0
note_on channel=0 note=39 velocity=55 time=0
note_on channel=0 note=51 velocity=55 time=28
note_on channel=0 note=39 velocity=0 time=108
note_on channel=0 note=51 velocity=0 time=12
note_on channel=0 note=39 velocity=55 time=0
note_on channel=0 note=51 velocity=55 time=120
note_on channel=0 note=39 velocity=0 time=108
note_on channel=0 note=67 velocity=0 time=12
note_on channel=0 note=75 velocity=0 time=0
note_on channel=0 note=72 velocity=0 time=0
note_on channel=0 note=51 velocity=0 time=0
note_on channel=0 note=65 velocity=60 time=0
note_on channel=0 note=68 velocity=60 time=0
note_on channel=0 note=74 velocity=71 time=0
note_on channel=0 note=41 velocity=55 time=0
note_on channel=0 note=53 velocity=53 time=28
note_on channel=0 note=41 velocity=0 time=108
note_on channel=0 note=53 velocity=0 time=0
note_on channel=0 note=41 velocity=55 time=0
note_on channel=0 note=53 velocity=55 time=120
note_on channel=0 note=41 velocity=0 time=108
note_on channel=0 note=65 velocity=0 time=12
note_on channel=0 note=74 velocity=0 time=0
note_on channel=0 note=68 velocity=0 time=0
note_on channel=0 note=53 velocity=0 time=0
note_on channel=0 note=63 velocity=62 time=0
note_on channel=0 note=67 velocity=74 time=0
note_on channel=0 note=72 velocity=74 time=0
note_on channel=0 note=43 velocity=56 time=0
note_on channel=0 note=55 velocity=56 time=14
note_on channel=0 note=43 velocity=0 time=108
note_on channel=0 note=55 velocity=0 time=12
note_on channel=0 note=43 velocity=57 time=0
note_on channel=0 note=55 velocity=57 time=120
note_on channel=0 note=43 velocity=0 time=108
note_on channel=0 note=67 velocity=0 time=12
note_on channel=0 note=55 velocity=0 time=0
note_on channel=0 note=66 velocity=74 time=0
note_on channel=0 note=44 velocity=58 time=0
note_on channel=0 note=56 velocity=59 time=7
note_on channel=0 note=44 velocity=0 time=108
note_on channel=0 note=56 velocity=0 time=12
note_on channel=0 note=44 velocity=59 time=0
note_on channel=0 note=56 velocity=60 time=120
note_on channel=0 note=44 velocity=0 time=108
note_on channel=0 note=66 velocity=0 time=12
note_on channel=0 note=56 velocity=0 time=0
note_on channel=0 note=69 velocity=77 time=0
note_on channel=0 note=42 velocity=60 time=0
note_on channel=0 note=54 velocity=55 time=51
note_on channel=0 note=42 velocity=0 time=108
note_on channel=0 note=54 velocity=0 time=12
note_on channel=0 note=42 velocity=61 time=0
note_on channel=0 note=54 velocity=55 time=120
note_on channel=0 note=42 velocity=0 time=108
note_on channel=0 note=63 velocity=0 time=12
note_on channel=0 note=69 velocity=0 time=0
note_on channel=0 note=72 velocity=0 time=0
note_on channel=0 note=54 velocity=0 time=0
note_on channel=0 note=62 velocity=62 time=0
note_on channel=0 note=65 velocity=62 time=0
note_on channel=0 note=71 velocity=74 time=0
note_on channel=0 note=43 velocity=58 time=0
note_on channel=0 note=55 velocity=55 time=5
note_on channel=0 note=43 velocity=0 time=108
note_on channel=0 note=55 velocity=0 time=12
note_on channel=0 note=43 velocity=58 time=0
note_on channel=0 note=55 velocity=55 time=120
note_on channel=0 note=43 velocity=0 time=108
note_on channel=0 note=62 velocity=0 time=0
note_on channel=0 note=71 velocity=0 time=0
note_on channel=0 note=65 velocity=0 time=0
note_on channel=0 note=55 velocity=0 time=0
note_on channel=0 note=60 velocity=67 time=0
note_on channel=0 note=63 velocity=67 time=0
note_on channel=0 note=72 velocity=79 time=0
note_on channel=0 note=36 velocity=48 time=0
note_on channel=0 note=72 velocity=0 time=30
note_on channel=0 note=60 velocity=0 time=0
note_on channel=0 note=63 velocity=0 time=0
note_on channel=0 note=48 velocity=45 time=0
note_on channel=0 note=36 velocity=0 time=48
note_on channel=0 note=48 velocity=0 time=0
note_on channel=0 note=60 velocity=67 time=0
note_on channel=0 note=36 velocity=44 time=0
note_on channel=0 note=48 velocity=41 time=0
note_on channel=0 note=36 velocity=0 time=48
note_on channel=0 note=48 velocity=0 time=0
note_on channel=0 note=36 velocity=44 time=0
note_on channel=0 note=48 velocity=40 time=0
note_on channel=0 note=36 velocity=0 time=11
note_on channel=0 note=48 velocity=0 time=0
note_on channel=0 note=60 velocity=0 time=0
note_on channel=0 note=58 velocity=52 time=0
note_on channel=0 note=64 velocity=52 time=0
note_on channel=0 note=36 velocity=44 time=0
note_on channel=0 note=64 velocity=0 time=30
note_on channel=0 note=58 velocity=0 time=0
note_on channel=0 note=48 velocity=41 time=0
note_on channel=0 note=36 velocity=0 time=108
note_on channel=0 note=48 velocity=0 time=12
note_on channel=0 note=56 velocity=54 time=0
note_on channel=0 note=65 velocity=54 time=0
note_on channel=0 note=36 velocity=44 time=0
note_on channel=0 note=65 velocity=0 time=90
note_on channel=0 note=56 velocity=0 time=0
note_on channel=0 note=48 velocity=46 time=30
note_on channel=0 note=36 velocity=0 time=108
note_on channel=0 note=48 velocity=0 time=0
note_on channel=0 note=64 velocity=55 time=0
note_on channel=0 note=67 velocity=55 time=0
note_on channel=0 note=36 velocity=47 time=0
note_on channel=0 note=67 velocity=0 time=90
note_on channel=0 note=64 velocity=0 time=0
note_on channel=0 note=48 velocity=47 time=30
note_on channel=0 note=36 velocity=0 time=108
note_on channel=0 note=48 velocity=0 time=12
note_on channel=0 note=65 velocity=57 time=0
note_on channel=0 note=68 velocity=57 time=0
note_on channel=0 note=36 velocity=49 time=0
note_on channel=0 note=68 velocity=0 time=90
note_on channel=0 note=65 velocity=0 time=0
note_on channel=0 note=48 velocity=50 time=30
note_on channel=0 note=36 velocity=0 time=108
note_on channel=0 note=48 velocity=0 time=12
note_on channel=0 note=62 velocity=59 time=0
note_on channel=0 note=71 velocity=59 time=0
note_on channel=0 note=36 velocity=51 time=0
note_on channel=0 note=71 velocity=0 time=90
note_on channel=0 note=62 velocity=0 time=0
note_on channel=0 note=48 velocity=53 time=30
note_on channel=0 note=36 velocity=0 time=108
note_on channel=0 note=48 velocity=0 time=0
note_on channel=0 note=63 velocity=61 time=0
note_on channel=0 note=72 velocity=61 time=0
note_on channel=0 note=36 velocity=55 time=0
note_on channel=0 note=72 velocity=0 time=90
note_on channel=0 note=63 velocity=0 time=0
note_on channel=0 note=48 velocity=50 time=30
note_on channel=0 note=36 velocity=0 time=108
note_on channel=0 note=48 velocity=0 time=0
note_on channel=0 note=64 velocity=55 time=0
note_on channel=0 note=72 velocity=55 time=0
note_on channel=0 note=36 velocity=53 time=0
note_on channel=0 note=48 velocity=47 time=97
note_on channel=0 note=36 velocity=0 time=108
note_on channel=0 note=48 velocity=0 time=12
note_on channel=0 note=36 velocity=53 time=0
note_on channel=0 note=48 velocity=47 time=120
note_on channel=0 note=36 velocity=0 time=108
note_on channel=0 note=64 velocity=0 time=12
note_on channel=0 note=72 velocity=0 time=0
note_on channel=0 note=48 velocity=0 time=0
note_on channel=0 note=70 velocity=51 time=0
note_on channel=0 note=76 velocity=51 time=0
note_on channel=0 note=36 velocity=44 time=0
note_on channel=0 note=76 velocity=0 time=90
note_on channel=0 note=70 velocity=0 time=0
note_on channel=0 note=48 velocity=40 time=30
note_on channel=0 note=36 velocity=0 time=108
note_on channel=0 note=48 velocity=0 time=12
note_on channel=0 note=68 velocity=53 time=0
note_on channel=0 note=77 velocity=53 time=0
note_on channel=0 note=36 velocity=43 time=0
note_on channel=0 note=77 velocity=0 time=90
note_on channel=0 note=68 velocity=0 time=0
note_on channel=0 note=48 velocity=45 time=30
note_on channel=0 note=36 velocity=0 time=108
note_on channel=0 note=48 velocity=0 time=0
note_on channel=0 note=76 velocity=55 time=0
note_on channel=0 note=79 velocity=55 time=0
note_on channel=0 note=36 velocity=46 time=0
note_on channel=0 note=79 velocity=0 time=90
note_on channel=0 note=76 velocity=0 time=0
note_on channel=0 note=48 velocity=47 time=30
note_on channel=0 note=36 velocity=0 time=108
note_on channel=0 note=48 velocity=0 time=12
note_on channel=0 note=77 velocity=57 time=0
note_on channel=0 note=80 velocity=57 time=0
note_on channel=0 note=36 velocity=48 time=0
note_on channel=0 note=80 velocity=0 time=90
note_on channel=0 note=77 velocity=0 time=0
note_on channel=0 note=48 velocity=50 time=30
note_on channel=0 note=36 velocity=0 time=108
note_on channel=0 note=48 velocity=0 time=0
note_on channel=0 note=74 velocity=59 time=0
note_on channel=0 note=83 velocity=59 time=0
note_on channel=0 note=36 velocity=51 time=0
note_on channel=0 note=83 velocity=0 time=90
note_on channel=0 note=74 velocity=0 time=0
note_on channel=0 note=48 velocity=53 time=30
note_on channel=0 note=36 velocity=0 time=108
note_on channel=0 note=48 velocity=0 time=0
note_on channel=0 note=72 velocity=51 time=0
note_on channel=0 note=79 velocity=61 time=0
note_on channel=0 note=75 velocity=51 time=0
note_on channel=0 note=84 velocity=61 time=0
note_on channel=0 note=36 velocity=55 time=0
note_on channel=0 note=48 velocity=50 time=42
note_on channel=0 note=36 velocity=0 time=108
note_on channel=0 note=48 velocity=0 time=0
note_on channel=0 note=36 velocity=53 time=0
note_on channel=0 note=48 velocity=47 time=120
note_on channel=0 note=36 velocity=0 time=108
note_on channel=0 note=79 velocity=0 time=12
note_on channel=0 note=84 velocity=0 time=0
note_on channel=0 note=72 velocity=0 time=0
note_on channel=0 note=48 velocity=0 time=0
note_on channel=0 note=75 velocity=0 time=0
note_on channel=0 note=67 velocity=53 time=0
note_on channel=0 note=71 velocity=53 time=0
note_on channel=0 note=77 velocity=63 time=0
note_on channel=0 note=79 velocity=63 time=0
note_on channel=0 note=38 velocity=55 time=0
note_on channel=0 note=50 velocity=50 time=109
note_on channel=0 note=38 velocity=0 time=80
note_on channel=0 note=50 velocity=0 time=0
note_on channel=0 note=38 velocity=55 time=0
note_on channel=0 note=50 velocity=51 time=120
note_on channel=0 note=38 velocity=0 time=108
note_on channel=0 note=71 velocity=0 time=0
note_on channel=0 note=79 velocity=0 time=0
note_on channel=0 note=67 velocity=0 time=0
note_on channel=0 note=50 velocity=0 time=0
note_on channel=0 note=77 velocity=0 time=0
note_on channel=0 note=67 velocity=56 time=0
note_on channel=0 note=72 velocity=56 time=0
note_on channel=0 note=75 velocity=67 time=0
note_on channel=0 note=39 velocity=55 time=0
note_on channel=0 note=51 velocity=55 time=21
note_on channel=0 note=39 velocity=0 time=108
note_on channel=0 note=51 velocity=0 time=12
note_on channel=0 note=39 velocity=55 time=0
note_on channel=0 note=51 velocity=55 time=120
note_on channel=0 note=39 velocity=0 time=108
note_on channel=0 note=67 velocity=0 time=12
note_on channel=0 note=75 velocity=0 time=0
note_on channel=0 note=72 velocity=0 time=0
note_on channel=0 note=51 velocity=0 time=0
note_on channel=0 note=65 velocity=60 time=0
note_on channel=0 note=68 velocity=60 time=0
note_on channel=0 note=74 velocity=71 time=0
note_on channel=0 note=41 velocity=55 time=0
note_on channel=0 note=53 velocity=53 time=106
note_on channel=0 note=41 velocity=0 time=108
note_on channel=0 note=53 velocity=0 time=0
note_on channel=0 note=41 velocity=55 time=0
note_on channel=0 note=53 velocity=55 time=120
note_on channel=0 note=41 velocity=0 time=108
note_on channel=0 note=65 velocity=0 time=12
note_on channel=0 note=74 velocity=0 time=0
note_on channel=0 note=68 velocity=0 time=0
note_on channel=0 note=53 velocity=0 time=0
note_on channel=0 note=63 velocity=62 time=0
note_on channel=0 note=67 velocity=74 time=0
note_on channel=0 note=72 velocity=74 time=0
note_on channel=0 note=43 velocity=56 time=0
note_on channel=0 note=55 velocity=56 time=7
note_on channel=0 note=43 velocity=0 time=108
note_on channel=0 note=55 velocity=0 time=12
note_on channel=0 note=43 velocity=57 time=0
note_on channel=0 note=55 velocity=57 time=120
note_on channel=0 note=43 velocity=0 time=108
note_on channel=0 note=67 velocity=0 time=12
note_on channel=0 note=55 velocity=0 time=0
note_on channel=0 note=66 velocity=74 time=0
note_on channel=0 note=44 velocity=58 time=0
note_on channel=0 note=56 velocity=59 time=21
note_on channel=0 note=44 velocity=0 time=108
note_on channel=0 note=56 velocity=0 time=12
note_on channel=0 note=44 velocity=59 time=0
note_on channel=0 note=56 velocity=60 time=120
note_on channel=0 note=44 velocity=0 time=108
note_on channel=0 note=66 velocity=0 time=0
note_on channel=0 note=56 velocity=0 time=0
note_on channel=0 note=69 velocity=77 time=0
note_on channel=0 note=42 velocity=60 time=0
note_on channel=0 note=54 velocity=55 time=57
note_on channel=0 note=42 velocity=0 time=108
note_on channel=0 note=54 velocity=0 time=12
note_on channel=0 note=42 velocity=61 time=0
note_on channel=0 note=54 velocity=55 time=120
note_on channel=0 note=42 velocity=0 time=108
note_on channel=0 note=54 velocity=0 time=12
note_on channel=0 note=42 velocity=58 time=0
note_on channel=0 note=54 velocity=55 time=120
note_on channel=0 note=42 velocity=0 time=108
note_on channel=0 note=54 velocity=0 time=12
note_on channel=0 note=42 velocity=58 time=0
note_on channel=0 note=54 velocity=55 time=120
note_on channel=0 note=42 velocity=0 time=108
note_on channel=0 note=63 velocity=0 time=0
note_on channel=0 note=69 velocity=0 time=0
note_on channel=0 note=72 velocity=0 time=0
note_on channel=0 note=54 velocity=0 time=0
note_on channel=0 note=62 velocity=55 time=0
note_on channel=0 note=67 velocity=55 time=0
note_on channel=0 note=71 velocity=55 time=0
note_on channel=0 note=43 velocity=55 time=0
note_on channel=0 note=55 velocity=55 time=0
note_on channel=0 note=55 velocity=0 time=231
note_on channel=0 note=71 velocity=0 time=0
note_on channel=0 note=62 velocity=0 time=0
note_on channel=0 note=67 velocity=0 time=0
note_on channel=0 note=43 velocity=0 time=0
note_on channel=0 note=62 velocity=50 time=0
note_on channel=0 note=59 velocity=50 time=0
note_on channel=0 note=59 velocity=0 time=136
note_on channel=0 note=62 velocity=0 time=0
note_on channel=0 note=67 velocity=80 time=0
note_on channel=0 note=79 velocity=80 time=0
note_on channel=0 note=62 velocity=50 time=0
note_on channel=0 note=59 velocity=50 time=0
note_on channel=0 note=59 velocity=0 time=228
note_on channel=0 note=62 velocity=0 time=0
note_on channel=0 note=59 velocity=50 time=12
note_on channel=0 note=62 velocity=50 time=0
note_on channel=0 note=62 velocity=0 time=228
note_on channel=0 note=59 velocity=0 time=0
note_on channel=0 note=55 velocity=50 time=12
note_on channel=0 note=55 velocity=0 time=53
note_on channel=0 note=79 velocity=0 time=0
note_on channel=0 note=67 velocity=0 time=0
note_on channel=0 note=63 velocity=50 time=0
note_on channel=0 note=60 velocity=50 time=0
note_on channel=0 note=60 velocity=0 time=228
note_on channel=0 note=63 velocity=0 time=0
note_on channel=0 note=67 velocity=80 time=12
note_on channel=0 note=79 velocity=80 time=0
note_on channel=0 note=63 velocity=50 time=0
note_on channel=0 note=60 velocity=50 time=0
note_on channel=0 note=60 velocity=0 time=228
note_on channel=0 note=63 velocity=0 time=0
note_on channel=0 note=63 velocity=50 time=12
note_on channel=0 note=60 velocity=50 time=0
note_on channel=0 note=60 velocity=0 time=228
note_on channel=0 note=63 velocity=0 time=0
note_on channel=0 note=65 velocity=50 time=0
note_on channel=0 note=62 velocity=50 time=0
note_on channel=0 note=79 velocity=0 time=111
note_on channel=0 note=67 velocity=0 time=0
note_on channel=0 note=77 velocity=70 time=0
note_on channel=0 note=77 velocity=0 time=120
note_on channel=0 note=65 velocity=0 time=0
note_on channel=0 note=62 velocity=0 time=0
note_on channel=0 note=74 velocity=69 time=0
note_on channel=0 note=74 velocity=0 time=120
note_on channel=0 note=71 velocity=69 time=0
note_on channel=0 note=71 velocity=0 time=120
note_on channel=0 note=67 velocity=68 time=0
note_on channel=0 note=67 velocity=0 time=120
note_on channel=0 note=65 velocity=67 time=0
note_on channel=0 note=65 velocity=0 time=120
note_on channel=0 note=62 velocity=66 time=0
note_on channel=0 note=62 velocity=0 time=120
note_on channel=0 note=59 velocity=65 time=0
note_on channel=0 note=59 velocity=0 time=0
note_on channel=0 note=60 velocity=65 time=0
note_on channel=0 note=60 velocity=0 time=20
note_on channel=0 note=63 velocity=64 time=0
note_on channel=0 note=63 velocity=0 time=60
note_on channel=0 note=60 velocity=65 time=0
note_on channel=0 note=60 velocity=0 time=0
note_on channel=0 note=55 velocity=65 time=0
note_on channel=0 note=55 velocity=0 time=40
note_on channel=0 note=54 velocity=64 time=0
note_on channel=0 note=32 velocity=55 time=0
note_on channel=0 note=32 velocity=0 time=0
note_on channel=0 note=54 velocity=0 time=0
note_on channel=0 note=60 velocity=64 time=0
note_on channel=0 note=44 velocity=55 time=0
note_on channel=0 note=44 velocity=0 time=20
note_on channel=0 note=60 velocity=0 time=0
note_on channel=0 note=56 velocity=63 time=0
note_on channel=0 note=32 velocity=55 time=0
note_on channel=0 note=32 velocity=0 time=60
note_on channel=0 note=56 velocity=0 time=0
note_on channel=0 note=54 velocity=65 time=0
note_on channel=0 note=44 velocity=55 time=0
note_on channel=0 note=44 velocity=0 time=0
note_on channel=0 note=54 velocity=0 time=0
note_on channel=0 note=55 velocity=67 time=0
note_on channel=0 note=31 velocity=50 time=0
note_on channel=0 note=43 velocity=50 time=0
note_on channel=0 note=43 velocity=0 time=45
note_on channel=0 note=31 velocity=0 time=0
note_on channel=0 note=55 velocity=0 time=0
note_on channel=0 note=62 velocity=50 time=0
note_on channel=0 note=59 velocity=50 time=0
note_on channel=0 note=59 velocity=0 time=228
note_on channel=0 note=62 velocity=0 time=0
note_on channel=0 note=67 velocity=80 time=0
note_on channel=0 note=79 velocity=80 time=0
note_on channel=0 note=62 velocity=50 time=0
note_on channel=0 note=59 velocity=50 time=0
note_on channel=0 note=59 velocity=0 time=228
note_on channel=0 note=62 velocity=0 time=0
note_on channel=0 note=59 velocity=50 time=12
note_on channel=0 note=62 velocity=50 time=0
note_on channel=0 note=62 velocity=0 time=240
note_on channel=0 note=59 velocity=0 time=0
note_on channel=0 note=55 velocity=50 time=0
note_on channel=0 note=55 velocity=0 time=66
note_on channel=0 note=79 velocity=0 time=0
note_on channel=0 note=67 velocity=0 time=0
note_on channel=0 note=63 velocity=50 time=0
note_on channel=0 note=60 velocity=50 time=0
note_on channel=0 note=60 velocity=0 time=228
note_on channel=0 note=63 velocity=0 time=0
note_on channel=0 note=67 velocity=80 time=12
note_on channel=0 note=79 velocity=80 time=0
note_on channel=0 note=63 velocity=50 time=0
note_on channel=0 note=60 velocity=50 time=0
note_on channel=0 note=60 velocity=0 time=228
note_on channel=0 note=63 velocity=0 time=0
note_on channel=0 note=63 velocity=50 time=12
note_on channel=0 note=60 velocity=50 time=0
note_on channel=0 note=60 velocity=0 time=228
note_on channel=0 note=63 velocity=0 time=0
note_on channel=0 note=65 velocity=50 time=0
note_on channel=0 note=62 velocity=50 time=0
note_on channel=0 note=79 velocity=0 time=113
note_on channel=0 note=67 velocity=0 time=0
note_on channel=0 note=77 velocity=72 time=0
note_on channel=0 note=77 velocity=0 time=120
note_on channel=0 note=65 velocity=0 time=0
note_on channel=0 note=62 velocity=0 time=0
note_on channel=0 note=74 velocity=71 time=0
note_on channel=0 note=74 velocity=0 time=120
note_on channel=0 note=71 velocity=70 time=0
note_on channel=0 note=71 velocity=0 time=120
note_on channel=0 note=67 velocity=69 time=0
note_on channel=0 note=67 velocity=0 time=120
note_on channel=0 note=65 velocity=68 time=0
note_on channel=0 note=65 velocity=0 time=120
note_on channel=0 note=62 velocity=67 time=0
note_on channel=0 note=62 velocity=0 time=120
note_on channel=0 note=59 velocity=66 time=0
note_on channel=0 note=59 velocity=0 time=40
note_on channel=0 note=60 velocity=65 time=0
note_on channel=0 note=60 velocity=0 time=20
note_on channel=0 note=63 velocity=64 time=0
note_on channel=0 note=63 velocity=0 time=20
note_on channel=0 note=60 velocity=64 time=0
note_on channel=0 note=60 velocity=0 time=0
note_on channel=0 note=55 velocity=67 time=0
note_on channel=0 note=55 velocity=0 time=0
note_on channel=0 note=54 velocity=66 time=0
note_on channel=0 note=32 velocity=55 time=0
note_on channel=0 note=54 velocity=0 time=0
note_on channel=0 note=60 velocity=64 time=0
note_on channel=0 note=44 velocity=55 time=0
note_on channel=0 note=32 velocity=0 time=28
note_on channel=0 note=44 velocity=0 time=12
note_on channel=0 note=60 velocity=0 time=0
note_on channel=0 note=56 velocity=62 time=0
note_on channel=0 note=32 velocity=55 time=0
note_on channel=0 note=56 velocity=0 time=40
note_on channel=0 note=54 velocity=60 time=0
note_on channel=0 note=44 velocity=49 time=0
note_on channel=0 note=32 velocity=0 time=28
note_on channel=0 note=44 velocity=0 time=12
note_on channel=0 note=54 velocity=0 time=0
note_on channel=0 note=55 velocity=67 time=0
note_on channel=0 note=31 velocity=50 time=0
note_on channel=0 note=43 velocity=51 time=120
note_on channel=0 note=31 velocity=0 time=108
note_on channel=0 note=43 velocity=0 time=0
note_on channel=0 note=55 velocity=0 time=0
note_on channel=0 note=66 velocity=67 time=0
note_on channel=0 note=31 velocity=51 time=0
note_on channel=0 note=66 velocity=0 time=90
note_on channel=0 note=43 velocity=52 time=30
note_on channel=0 note=31 velocity=0 time=108
note_on channel=0 note=43 velocity=0 time=0
note_on channel=0 note=67 velocity=69 time=0
note_on channel=0 note=31 velocity=53 time=0
note_on channel=0 note=67 velocity=0 time=90
note_on channel=0 note=43 velocity=54 time=30
note_on channel=0 note=31 velocity=0 time=108
note_on channel=0 note=43 velocity=0 time=12
note_on channel=0 note=66 velocity=71 time=0
note_on channel=0 note=72 velocity=71 time=0
note_on channel=0 note=31 velocity=55 time=0
note_on channel=0 note=72 velocity=0 time=90
note_on channel=0 note=66 velocity=0 time=0
note_on channel=0 note=43 velocity=56 time=30
note_on channel=0 note=31 velocity=0 time=108
note_on channel=0 note=43 velocity=0 time=12
note_on channel=0 note=67 velocity=73 time=0
note_on channel=0 note=71 velocity=73 time=0
note_on channel=0 note=31 velocity=57 time=0
note_on channel=0 note=71 velocity=0 time=90
note_on channel=0 note=67 velocity=0 time=0
note_on channel=0 note=43 velocity=58 time=30
note_on channel=0 note=31 velocity=0 time=108
note_on channel=0 note=43 velocity=0 time=12
note_on channel=0 note=72 velocity=75 time=0
note_on channel=0 note=78 velocity=75 time=0
note_on channel=0 note=31 velocity=59 time=0
note_on channel=0 note=78 velocity=0 time=90
note_on channel=0 note=72 velocity=0 time=0
note_on channel=0 note=43 velocity=60 time=30
note_on channel=0 note=31 velocity=0 time=108
note_on channel=0 note=43 velocity=0 time=12
note_on channel=0 note=71 velocity=77 time=0
note_on channel=0 note=79 velocity=77 time=0
note_on channel=0 note=31 velocity=61 time=0
note_on channel=0 note=79 velocity=0 time=90
note_on channel=0 note=71 velocity=0 time=0
note_on channel=0 note=43 velocity=61 time=30
note_on channel=0 note=31 velocity=0 time=108
note_on channel=0 note=43 velocity=0 time=12
note_on channel=0 note=84 velocity=79 time=0
note_on channel=0 note=78 velocity=79 time=0
note_on channel=0 note=31 velocity=62 time=0
note_on channel=0 note=78 velocity=0 time=90
note_on channel=0 note=84 velocity=0 time=0
note_on channel=0 note=43 velocity=63 time=30
note_on channel=0 note=31 velocity=0 time=108
note_on channel=0 note=43 velocity=0 time=0
note_on channel=0 note=83 velocity=81 time=0
note_on channel=0 note=79 velocity=81 time=0
note_on channel=0 note=31 velocity=64 time=0
note_on channel=0 note=79 velocity=0 time=120
note_on channel=0 note=83 velocity=0 time=0
note_on channel=0 note=43 velocity=55 time=0
note_on channel=0 note=31 velocity=0 time=108
note_on channel=0 note=43 velocity=0 time=12
note_on channel=0 note=31 velocity=61 time=0
note_on channel=0 note=43 velocity=55 time=120
note_on channel=0 note=31 velocity=0 time=108
note_on channel=0 note=43 velocity=0 time=12
note_on channel=0 note=31 velocity=61 time=0
note_on channel=0 note=43 velocity=55 time=120
note_on channel=0 note=31 velocity=0 time=108
note_on channel=0 note=43 velocity=0 time=12
note_on channel=0 note=31 velocity=60 time=0
note_on channel=0 note=43 velocity=55 time=120
note_on channel=0 note=31 velocity=0 time=108
note_on channel=0 note=43 velocity=0 time=0
note_on channel=0 note=58 velocity=81 time=0
note_on channel=0 note=61 velocity=81 time=0
note_on channel=0 note=63 velocity=84 time=0
note_on channel=0 note=31 velocity=64 time=0
note_on channel=0 note=43 velocity=55 time=120
note_on channel=0 note=31 velocity=0 time=108
note_on channel=0 note=43 velocity=0 time=12
note_on channel=0 note=31 velocity=61 time=0
note_on channel=0 note=43 velocity=55 time=120
note_on channel=0 note=31 velocity=0 time=108
note_on channel=0 note=43 velocity=0 time=12
note_on channel=0 note=31 velocity=61 time=0
note_on channel=0 note=43 velocity=55 time=120
note_on channel=0 note=31 velocity=0 time=108
note_on channel=0 note=43 velocity=0 time=12
note_on channel=0 note=31 velocity=60 time=0
note_on channel=0 note=43 velocity=55 time=120
note_on channel=0 note=31 velocity=0 time=108
note_on channel=0 note=58 velocity=0 time=0
note_on channel=0 note=61 velocity=0 time=0
note_on channel=0 note=43 velocity=0 time=0
note_on channel=0 note=60 velocity=67 time=0
note_on channel=0 note=32 velocity=50 time=0
note_on channel=0 note=44 velocity=51 time=120
note_on channel=0 note=32 velocity=0 time=108
note_on channel=0 note=63 velocity=0 time=0
note_on channel=0 note=60 velocity=0 time=0
note_on channel=0 note=44 velocity=0 time=0
note_on channel=0 note=73 velocity=67 time=0
note_on channel=0 note=32 velocity=51 time=0
note_on channel=0 note=73 velocity=0 time=90
note_on channel=0 note=44 velocity=52 time=30
note_on channel=0 note=32 velocity=0 time=108
note_on channel=0 note=44 velocity=0 time=0
note_on channel=0 note=72 velocity=69 time=0
note_on channel=0 note=32 velocity=53 time=0
note_on channel=0 note=72 velocity=0 time=90
note_on channel=0 note=44 velocity=54 time=30
note_on channel=0 note=32 velocity=0 time=108
note_on channel=0 note=44 velocity=0 time=12
note_on channel=0 note=73 velocity=71 time=0
note_on channel=0 note=79 velocity=71 time=0
note_on channel=0 note=32 velocity=55 time=0
note_on channel=0 note=79 velocity=0 time=90
note_on channel=0 note=73 velocity=0 time=0
note_on channel=0 note=44 velocity=56 time=30
note_on channel=0 note=32 velocity=0 time=108
note_on channel=0 note=44 velocity=0 time=12
note_on channel=0 note=72 velocity=73 time=0
note_on channel=0 note=80 velocity=73 time=0
note_on channel=0 note=32 velocity=57 time=0
note_on channel=0 note=80 velocity=0 time=90
note_on channel=0 note=72 velocity=0 time=0
note_on channel=0 note=44 velocity=58 time=30
note_on channel=0 note=32 velocity=0 time=108
note_on channel=0 note=44 velocity=0 time=12
note_on channel=0 note=79 velocity=75 time=0
note_on channel=0 note=85 velocity=75 time=0
note_on channel=0 note=32 velocity=59 time=0
note_on channel=0 note=85 velocity=0 time=90
note_on channel=0 note=79 velocity=0 time=0
note_on channel=0 note=44 velocity=60 time=30
note_on channel=0 note=32 velocity=0 time=108
note_on channel=0 note=44 velocity=0 time=12
note_on channel=0 note=80 velocity=77 time=0
note_on channel=0 note=84 velocity=77 time=0
note_on channel=0 note=32 velocity=61 time=0
note_on channel=0 note=84 velocity=0 time=90
note_on channel=0 note=80 velocity=0 time=0
note_on channel=0 note=44 velocity=61 time=30
note_on channel=0 note=32 velocity=0 time=108
note_on channel=0 note=44 velocity=0 time=12
note_on channel=0 note=85 velocity=79 time=0
note_on channel=0 note=79 velocity=79 time=0
note_on channel=0 note=32 velocity=62 time=0
note_on channel=0 note=79 velocity=0 time=90
note_on channel=0 note=85 velocity=0 time=0
note_on channel=0 note=44 velocity=63 time=30
note_on channel=0 note=32 velocity=0 time=108
note_on channel=0 note=44 velocity=0 time=0
note_on channel=0 note=84 velocity=81 time=0
note_on channel=0 note=80 velocity=81 time=0
note_on channel=0 note=32 velocity=64 time=0
note_on channel=0 note=80 velocity=0 time=120
note_on channel=0 note=84 velocity=0 time=0
note_on channel=0 note=44 velocity=55 time=0
note_on channel=0 note=32 velocity=0 time=108
note_on channel=0 note=44 velocity=0 time=12
note_on channel=0 note=32 velocity=61 time=0
note_on channel=0 note=44 velocity=55 time=120
note_on channel=0 note=32 velocity=0 time=108
note_on channel=0 note=44 velocity=0 time=12
note_on channel=0 note=32 velocity=61 time=0
note_on channel=0 note=44 velocity=55 time=120
note_on channel=0 note=32 velocity=0 time=108
note_on channel=0 note=44 velocity=0 time=12
note_on channel=0 note=32 velocity=60 time=0
note_on channel=0 note=44 velocity=55 time=120
note_on channel=0 note=32 velocity=0 time=108
note_on channel=0 note=44 velocity=0 time=0
note_on channel=0 note=60 velocity=81 time=0
note_on channel=0 note=63 velocity=81 time=0
note_on channel=0 note=66 velocity=84 time=0
note_on channel=0 note=33 velocity=64 time=0
note_on channel=0 note=45 velocity=55 time=120
note_on channel=0 note=33 velocity=0 time=108
note_on channel=0 note=45 velocity=0 time=12
note_on channel=0 note=33 velocity=61 time=0
note_on channel=0 note=45 velocity=55 time=120
note_on channel=0 note=33 velocity=0 time=108
note_on channel=0 note=45 velocity=0 time=12
note_on channel=0 note=33 velocity=61 time=0
note_on channel=0 note=45 velocity=55 time=120
note_on channel=0 note=33 velocity=0 time=108
note_on channel=0 note=45 velocity=0 time=12
note_on channel=0 note=33 velocity=60 time=0
note_on channel=0 note=45 velocity=55 time=120
note_on channel=0 note=33 velocity=0 time=108
note_on channel=0 note=60 velocity=0 time=0
note_on channel=0 note=66 velocity=0 time=0
note_on channel=0 note=63 velocity=0 time=0
note_on channel=0 note=45 velocity=0 time=0
note_on channel=0 note=62 velocity=67 time=0
note_on channel=0 note=65 velocity=67 time=0
note_on channel=0 note=34 velocity=50 time=0
note_on channel=0 note=46 velocity=51 time=120
note_on channel=0 note=34 velocity=0 time=108
note_on channel=0 note=62 velocity=0 time=0
note_on channel=0 note=65 velocity=0 time=0
note_on channel=0 note=46 velocity=0 time=0
note_on channel=0 note=69 velocity=62 time=0
note_on channel=0 note=75 velocity=67 time=0
note_on channel=0 note=34 velocity=51 time=0
note_on channel=0 note=75 velocity=0 time=90
note_on channel=0 note=69 velocity=0 time=0
note_on channel=0 note=46 velocity=52 time=30
note_on channel=0 note=34 velocity=0 time=108
note_on channel=0 note=46 velocity=0 time=0
note_on channel=0 note=70 velocity=65 time=0
note_on channel=0 note=74 velocity=69 time=0
note_on channel=0 note=34 velocity=53 time=0
note_on channel=0 note=74 velocity=0 time=90
note_on channel=0 note=70 velocity=0 time=0
note_on channel=0 note=46 velocity=54 time=30
note_on channel=0 note=34 velocity=0 time=108
note_on channel=0 note=46 velocity=0 time=12
note_on channel=0 note=75 velocity=71 time=0
note_on channel=0 note=81 velocity=71 time=0
note_on channel=0 note=34 velocity=55 time=0
note_on channel=0 note=81 velocity=0 time=90
note_on channel=0 note=75 velocity=0 time=0
note_on channel=0 note=46 velocity=56 time=30
note_on channel=0 note=34 velocity=0 time=108
note_on channel=0 note=46 velocity=0 time=12
note_on channel=0 note=74 velocity=73 time=0
note_on channel=0 note=82 velocity=73 time=0
note_on channel=0 note=34 velocity=57 time=0
note_on channel=0 note=82 velocity=0 time=90
note_on channel=0 note=74 velocity=0 time=0
note_on channel=0 note=46 velocity=58 time=30
note_on channel=0 note=34 velocity=0 time=108
note_on channel=0 note=46 velocity=0 time=12
note_on channel=0 note=81 velocity=75 time=0
note_on channel=0 note=87 velocity=75 time=0
note_on channel=0 note=34 velocity=59 time=0
note_on channel=0 note=87 velocity=0 time=90
note_on channel=0 note=81 velocity=0 time=0
note_on channel=0 note=46 velocity=60 time=30
note_on channel=0 note=34 velocity=0 time=108
note_on channel=0 note=46 velocity=0 time=12
note_on channel=0 note=82 velocity=77 time=0
note_on channel=0 note=86 velocity=77 time=0
note_on channel=0 note=34 velocity=61 time=0
note_on channel=0 note=86 velocity=0 time=90
note_on channel=0 note=82 velocity=0 time=0
note_on channel=0 note=46 velocity=61 time=30
note_on channel=0 note=34 velocity=0 time=108
note_on channel=0 note=46 velocity=0 time=12
note_on channel=0 note=87 velocity=79 time=0
note_on channel=0 note=81 velocity=79 time=0
note_on channel=0 note=34 velocity=62 time=0
note_on channel=0 note=81 velocity=0 time=90
note_on channel=0 note=87 velocity=0 time=0
note_on channel=0 note=46 velocity=63 time=30
note_on channel=0 note=34 velocity=0 time=108
note_on channel=0 note=46 velocity=0 time=0
note_on channel=0 note=86 velocity=81 time=0
note_on channel=0 note=82 velocity=81 time=0
note_on channel=0 note=34 velocity=64 time=0
note_on channel=0 note=82 velocity=0 time=120
note_on channel=0 note=86 velocity=0 time=0
note_on channel=0 note=46 velocity=55 time=0
note_on channel=0 note=34 velocity=0 time=108
note_on channel=0 note=46 velocity=0 time=12
note_on channel=0 note=34 velocity=61 time=0
note_on channel=0 note=46 velocity=55 time=120
note_on channel=0 note=34 velocity=0 time=108
note_on channel=0 note=46 velocity=0 time=0
note_on channel=0 note=75 velocity=81 time=0
note_on channel=0 note=81 velocity=81 time=0
note_on channel=0 note=34 velocity=61 time=0
note_on channel=0 note=46 velocity=55 time=120
note_on channel=0 note=34 velocity=0 time=108
note_on channel=0 note=46 velocity=0 time=12
note_on channel=0 note=34 velocity=60 time=0
note_on channel=0 note=46 velocity=55 time=120
note_on channel=0 note=34 velocity=0 time=108
note_on channel=0 note=75 velocity=0 time=12
note_on channel=0 note=81 velocity=0 time=0
note_on channel=0 note=46 velocity=0 time=0
note_on channel=0 note=74 velocity=81 time=0
note_on channel=0 note=82 velocity=81 time=0
note_on channel=0 note=34 velocity=64 time=0
note_on channel=0 note=46 velocity=55 time=100
note_on channel=0 note=34 velocity=0 time=108
note_on channel=0 note=74 velocity=0 time=12
note_on channel=0 note=82 velocity=0 time=0
note_on channel=0 note=46 velocity=0 time=0
note_on channel=0 note=34 velocity=61 time=0
note_on channel=0 note=46 velocity=55 time=120
note_on channel=0 note=34 velocity=0 time=108
note_on channel=0 note=46 velocity=0 time=0
note_on channel=0 note=69 velocity=81 time=0
note_on channel=0 note=75 velocity=81 time=0
note_on channel=0 note=34 velocity=61 time=0
note_on channel=0 note=46 velocity=55 time=120
note_on channel=0 note=34 velocity=0 time=108
note_on channel=0 note=46 velocity=0 time=12
note_on channel=0 note=34 velocity=60 time=0
note_on channel=0 note=46 velocity=55 time=120
note_on channel=0 note=34 velocity=0 time=108
note_on channel=0 note=69 velocity=0 time=0
note_on channel=0 note=75 velocity=0 time=0
note_on channel=0 note=46 velocity=0 time=0
note_on channel=0 note=70 velocity=81 time=0
note_on channel=0 note=74 velocity=81 time=0
note_on channel=0 note=34 velocity=64 time=0
note_on channel=0 note=46 velocity=55 time=120
note_on channel=0 note=34 velocity=0 time=108
note_on channel=0 note=70 velocity=0 time=12
note_on channel=0 note=74 velocity=0 time=0
note_on channel=0 note=46 velocity=0 time=0
note_on channel=0 note=34 velocity=61 time=0
note_on channel=0 note=46 velocity=55 time=120
note_on channel=0 note=34 velocity=0 time=108
note_on channel=0 note=46 velocity=0 time=0
note_on channel=0 note=63 velocity=81 time=0
note_on channel=0 note=69 velocity=81 time=0
note_on channel=0 note=34 velocity=61 time=0
note_on channel=0 note=46 velocity=55 time=120
note_on channel=0 note=34 velocity=0 time=108
note_on channel=0 note=46 velocity=0 time=12
note_on channel=0 note=34 velocity=60 time=0
note_on channel=0 note=46 velocity=55 time=120
note_on channel=0 note=34 velocity=0 time=108
note_on channel=0 note=63 velocity=0 time=0
note_on channel=0 note=69 velocity=0 time=0
note_on channel=0 note=46 velocity=0 time=0
note_on channel=0 note=62 velocity=81 time=0
note_on channel=0 note=70 velocity=81 time=0
note_on channel=0 note=34 velocity=64 time=0
note_on channel=0 note=46 velocity=55 time=100
note_on channel=0 note=34 velocity=0 time=108
note_on channel=0 note=62 velocity=0 time=12
note_on channel=0 note=70 velocity=0 time=0
note_on channel=0 note=46 velocity=0 time=0
note_on channel=0 note=34 velocity=61 time=0
note_on channel=0 note=46 velocity=55 time=120
note_on channel=0 note=34 velocity=0 time=108
note_on channel=0 note=46 velocity=0 time=12
note_on channel=0 note=57 velocity=81 time=0
note_on channel=0 note=63 velocity=81 time=0
note_on channel=0 note=34 velocity=61 time=0
note_on channel=0 note=46 velocity=55 time=120
note_on channel=0 note=34 velocity=0 time=108
note_on channel=0 note=46 velocity=0 time=12
note_on channel=0 note=34 velocity=60 time=0
note_on channel=0 note=46 velocity=55 time=120
note_on channel=0 note=34 velocity=0 time=108
note_on channel=0 note=57 velocity=0 time=0
note_on channel=0 note=63 velocity=0 time=0
note_on channel=0 note=46 velocity=0 time=0
note_on channel=0 note=58 velocity=81 time=0
note_on channel=0 note=62 velocity=81 time=0
note_on channel=0 note=46 velocity=55 time=0
note_on channel=0 note=34 velocity=64 time=0
note_on channel=0 note=34 velocity=0 time=240
note_on channel=0 note=58 velocity=0 time=0
note_on channel=0 note=62 velocity=0 time=0
note_on channel=0 note=46 velocity=0 time=0
note_on channel=0 note=57 velocity=50 time=0
note_on channel=0 note=57 velocity=0 time=240
note_on channel=0 note=58 velocity=59 time=0
note_on channel=0 note=58 velocity=0 time=240
note_on channel=0 note=57 velocity=56 time=0
note_on channel=0 note=57 velocity=0 time=240
note_on channel=0 note=58 velocity=57 time=0
note_on channel=0 note=58 velocity=0 time=240
note_on channel=0 note=57 velocity=49 time=0
note_on channel=0 note=57 velocity=0 time=240
note_on channel=0 note=58 velocity=57 time=0
note_on channel=0 note=58 velocity=0 time=240
note_on channel=0 note=57 velocity=51 time=0
note_on channel=0 note=57 velocity=0 time=0
note_on channel=0 note=58 velocity=44 time=0
note_on channel=0 note=46 velocity=55 time=0
note_on channel=0 note=63 velocity=38 time=0
note_on channel=0 note=66 velocity=38 time=0
note_on channel=0 note=46 velocity=0 time=120
note_on channel=0 note=66 velocity=0 time=108
note_on channel=0 note=63 velocity=0 time=0
note_on channel=0 note=51 velocity=58 time=0
note_on channel=0 note=63 velocity=38 time=0
note_on channel=0 note=66 velocity=38 time=0
note_on channel=0 note=51 velocity=0 time=120
note_on channel=0 note=66 velocity=0 time=108
note_on channel=0 note=63 velocity=0 time=0
note_on channel=0 note=53 velocity=61 time=12
note_on channel=0 note=63 velocity=38 time=0
note_on channel=0 note=66 velocity=38 time=0
note_on channel=0 note=53 velocity=0 time=120
note_on channel=0 note=66 velocity=0 time=108
note_on channel=0 note=63 velocity=0 time=0
note_on channel=0 note=58 velocity=0 time=0
note_on channel=0 note=54 velocity=64 time=0
note_on channel=0 note=58 velocity=44 time=0
note_on channel=0 note=54 velocity=0 time=120
note_on channel=0 note=70 velocity=62 time=120
note_on channel=0 note=63 velocity=38 time=0
note_on channel=0 note=66 velocity=38 time=0
note_on channel=0 note=70 velocity=0 time=120
note_on channel=0 note=66 velocity=0 time=108
note_on channel=0 note=63 velocity=0 time=0
note_on channel=0 note=75 velocity=64 time=0
note_on channel=0 note=63 velocity=38 time=0
note_on channel=0 note=66 velocity=38 time=0
note_on channel=0 note=75 velocity=0 time=120
note_on channel=0 note=66 velocity=0 time=108
note_on channel=0 note=63 velocity=0 time=0
note_on channel=0 note=77 velocity=66 time=12
note_on channel=0 note=63 velocity=38 time=0
note_on channel=0 note=66 velocity=38 time=0
note_on channel=0 note=77 velocity=0 time=120
note_on channel=0 note=70 velocity=65 time=60
note_on channel=0 note=70 velocity=0 time=0
note_on channel=0 note=66 velocity=0 time=0
note_on channel=0 note=63 velocity=0 time=0
note_on channel=0 note=58 velocity=0 time=0
note_on channel=0 note=78 velocity=75 time=0
note_on channel=0 note=58 velocity=44 time=0
note_on channel=0 note=63 velocity=38 time=0
note_on channel=0 note=66 velocity=38 time=0
note_on channel=0 note=66 velocity=0 time=228
note_on channel=0 note=63 velocity=0 time=0
note_on channel=0 note=63 velocity=38 time=12
note_on channel=0 note=66 velocity=38 time=0
note_on channel=0 note=66 velocity=0 time=228
note_on channel=0 note=63 velocity=0 time=0
note_on channel=0 note=78 velocity=0 time=0
note_on channel=0 note=75 velocity=63 time=0
note_on channel=0 note=63 velocity=38 time=0
note_on channel=0 note=66 velocity=38 time=0
note_on channel=0 note=70 velocity=60 time=180
note_on channel=0 note=66 velocity=0 time=48
note_on channel=0 note=63 velocity=0 time=0
note_on channel=0 note=58 velocity=0 time=12
note_on channel=0 note=75 velocity=0 time=0
note_on channel=0 note=70 velocity=0 time=0
note_on channel=0 note=78 velocity=71 time=0
note_on channel=0 note=58 velocity=44 time=0
note_on channel=0 note=63 velocity=38 time=0
note_on channel=0 note=66 velocity=38 time=0
note_on channel=0 note=66 velocity=0 time=228
note_on channel=0 note=63 velocity=0 time=0
note_on channel=0 note=63 velocity=38 time=12
note_on channel=0 note=66 velocity=38 time=0
note_on channel=0 note=66 velocity=0 time=228
note_on channel=0 note=63 velocity=0 time=0
note_on channel=0 note=78 velocity=0 time=0
note_on channel=0 note=75 velocity=58 time=0
note_on channel=0 note=63 velocity=38 time=0
note_on channel=0 note=66 velocity=38 time=0
note_on channel=0 note=66 velocity=0 time=228
note_on channel=0 note=63 velocity=0 time=0
note_on channel=0 note=75 velocity=0 time=0
note_on channel=0 note=58 velocity=0 time=0
note_on channel=0 note=74 velocity=60 time=0
note_on channel=0 note=58 velocity=44 time=0
note_on channel=0 note=74 velocity=0 time=0
note_on channel=0 note=46 velocity=57 time=0
note_on channel=0 note=65 velocity=38 time=0
note_on channel=0 note=68 velocity=38 time=0
note_on channel=0 note=46 velocity=0 time=120
note_on channel=0 note=68 velocity=0 time=108
note_on channel=0 note=65 velocity=0 time=0
note_on channel=0 note=53 velocity=60 time=0
note_on channel=0 note=65 velocity=38 time=0
note_on channel=0 note=68 velocity=38 time=0
note_on channel=0 note=53 velocity=0 time=120
note_on channel=0 note=68 velocity=0 time=108
note_on channel=0 note=65 velocity=0 time=0
note_on channel=0 note=54 velocity=63 time=12
note_on channel=0 note=65 velocity=38 time=0
note_on channel=0 note=68 velocity=38 time=0
note_on channel=0 note=54 velocity=0 time=120
note_on channel=0 note=68 velocity=0 time=108
note_on channel=0 note=65 velocity=0 time=0
note_on channel=0 note=58 velocity=0 time=0
note_on channel=0 note=56 velocity=66 time=0
note_on channel=0 note=58 velocity=44 time=0
note_on channel=0 note=56 velocity=0 time=120
note_on channel=0 note=70 velocity=59 time=120
note_on channel=0 note=65 velocity=38 time=0
note_on channel=0 note=68 velocity=38 time=0
note_on channel=0 note=68 velocity=0 time=228
note_on channel=0 note=65 velocity=0 time=0
note_on channel=0 note=70 velocity=0 time=0
note_on channel=0 note=80 velocity=62 time=0
note_on channel=0 note=65 velocity=38 time=0
note_on channel=0 note=68 velocity=38 time=0
note_on channel=0 note=68 velocity=0 time=228
note_on channel=0 note=65 velocity=0 time=0
note_on channel=0 note=80 velocity=0 time=12
note_on channel=0 note=78 velocity=65 time=0
note_on channel=0 note=65 velocity=38 time=0
note_on channel=0 note=68 velocity=38 time=0
note_on channel=0 note=68 velocity=0 time=228
note_on channel=0 note=65 velocity=0 time=0
note_on channel=0 note=78 velocity=0 time=0
note_on channel=0 note=58 velocity=0 time=0
note_on channel=0 note=78 velocity=60 time=0
note_on channel=0 note=58 velocity=44 time=0
note_on channel=0 note=78 velocity=0 time=60
note_on channel=0 note=80 velocity=60 time=0
note_on channel=0 note=80 velocity=0 time=60
note_on channel=0 note=78 velocity=67 time=0
note_on channel=0 note=78 velocity=0 time=120
note_on channel=0 note=77 velocity=60 time=0
note_on channel=0 note=65 velocity=38 time=0
note_on channel=0 note=68 velocity=38 time=0
note_on channel=0 note=68 velocity=0 time=228
note_on channel=0 note=65 velocity=0 time=0
note_on channel=0 note=77 velocity=0 time=12
note_on channel=0 note=77 velocity=60 time=0
note_on channel=0 note=65 velocity=38 time=0
note_on channel=0 note=68 velocity=38 time=0
note_on channel=0 note=77 velocity=0 time=60
note_on channel=0 note=78 velocity=60 time=0
note_on channel=0 note=78 velocity=0 time=60
note_on channel=0 note=77 velocity=67 time=0
note_on channel=0 note=68 velocity=0 time=108
note_on channel=0 note=65 velocity=0 time=0
note_on channel=0 note=77 velocity=0 time=12
note_on channel=0 note=75 velocity=60 time=0
note_on channel=0 note=65 velocity=38 time=0
note_on channel=0 note=68 velocity=38 time=0
note_on channel=0 note=68 velocity=0 time=228
note_on channel=0 note=65 velocity=0 time=0
note_on channel=0 note=75 velocity=0 time=12
note_on channel=0 note=58 velocity=0 time=0
note_on channel=0 note=75 velocity=60 time=0
note_on channel=0 note=58 velocity=44 time=0
note_on channel=0 note=75 velocity=0 time=60
note_on channel=0 note=77 velocity=60 time=0
note_on channel=0 note=77 velocity=0 time=60
note_on channel=0 note=75 velocity=66 time=0
note_on channel=0 note=75 velocity=0 time=120
note_on channel=0 note=74 velocity=60 time=0
note_on channel=0 note=65 velocity=38 time=0
note_on channel=0 note=68 velocity=38 time=0
note_on channel=0 note=68 velocity=0 time=228
note_on channel=0 note=65 velocity=0 time=0
note_on channel=0 note=74 velocity=0 time=12
note_on channel=0 note=72 velocity=60 time=0
note_on channel=0 note=65 velocity=38 time=0
note_on channel=0 note=68 velocity=38 time=0
note_on channel=0 note=72 velocity=0 time=120
note_on channel=0 note=68 velocity=0 time=108
note_on channel=0 note=65 velocity=0 time=0
note_on channel=0 note=74 velocity=60 time=12
note_on channel=0 note=65 velocity=38 time=0
note_on channel=0 note=68 velocity=38 time=0
note_on channel=0 note=74 velocity=0 time=120
note_on channel=0 note=68 velocity=0 time=108
note_on channel=0 note=65 velocity=0 time=0
note_on channel=0 note=58 velocity=0 time=0
note_on channel=0 note=75 velocity=60 time=0
note_on channel=0 note=58 velocity=44 time=0
note_on channel=0 note=75 velocity=0 time=0
note_on channel=0 note=46 velocity=55 time=0
note_on channel=0 note=63 velocity=38 time=0
note_on channel=0 note=66 velocity=38 time=0
note_on channel=0 note=46 velocity=0 time=120
note_on channel=0 note=66 velocity=0 time=108
note_on channel=0 note=63 velocity=0 time=0
note_on channel=0 note=51 velocity=58 time=0
note_on channel=0 note=63 velocity=38 time=0
note_on channel=0 note=66 velocity=38 time=0
note_on channel=0 note=51 velocity=0 time=120
note_on channel=0 note=66 velocity=0 time=108
note_on channel=0 note=63 velocity=0 time=0
note_on channel=0 note=53 velocity=61 time=12
note_on channel=0 note=63 velocity=38 time=0
note_on channel=0 note=66 velocity=38 time=0
note_on channel=0 note=53 velocity=0 time=120
note_on channel=0 note=66 velocity=0 time=108
note_on channel=0 note=63 velocity=0 time=0
note_on channel=0 note=58 velocity=0 time=0
note_on channel=0 note=54 velocity=64 time=0
note_on channel=0 note=58 velocity=44 time=0
note_on channel=0 note=54 velocity=0 time=120
note_on channel=0 note=70 velocity=62 time=120
note_on channel=0 note=63 velocity=38 time=0
note_on channel=0 note=66 velocity=38 time=0
note_on channel=0 note=70 velocity=0 time=120
note_on channel=0 note=66 velocity=0 time=108
note_on channel=0 note=63 velocity=0 time=0
note_on channel=0 note=75 velocity=64 time=0
note_on channel=0 note=63 velocity=38 time=0
note_on channel=0 note=66 velocity=38 time=0
note_on channel=0 note=75 velocity=0 time=120
note_on channel=0 note=66 velocity=0 time=108
note_on channel=0 note=63 velocity=0 time=0
note_on channel=0 note=77 velocity=66 time=12
note_on channel=0 note=63 velocity=38 time=0
note_on channel=0 note=66 velocity=38 time=0
note_on channel=0 note=77 velocity=0 time=120
note_on channel=0 note=70 velocity=65 time=60
note_on channel=0 note=66 velocity=0 time=48
note_on channel=0 note=63 velocity=0 time=0
note_on channel=0 note=58 velocity=0 time=0
note_on channel=0 note=70 velocity=0 time=0
note_on channel=0 note=78 velocity=75 time=0
note_on channel=0 note=58 velocity=44 time=0
note_on channel=0 note=63 velocity=38 time=0
note_on channel=0 note=66 velocity=38 time=0
note_on channel=0 note=66 velocity=0 time=228
note_on channel=0 note=63 velocity=0 time=0
note_on channel=0 note=63 velocity=38 time=12
note_on channel=0 note=66 velocity=38 time=0
note_on channel=0 note=66 velocity=0 time=228
note_on channel=0 note=63 velocity=0 time=0
note_on channel=0 note=78 velocity=0 time=0
note_on channel=0 note=75 velocity=63 time=0
note_on channel=0 note=63 velocity=38 time=0
note_on channel=0 note=66 velocity=38 time=0
note_on channel=0 note=70 velocity=60 time=180
note_on channel=0 note=66 velocity=0 time=48
note_on channel=0 note=63 velocity=0 time=0
note_on channel=0 note=58 velocity=0 time=12
note_on channel=0 note=75 velocity=0 time=0
note_on channel=0 note=70 velocity=0 time=0
note_on channel=0 note=78 velocity=71 time=0
note_on channel=0 note=58 velocity=44 time=0
note_on channel=0 note=63 velocity=38 time=0
note_on channel=0 note=66 velocity=38 time=0
note_on channel=0 note=66 velocity=0 time=228
note_on channel=0 note=63 velocity=0 time=0
note_on channel=0 note=63 velocity=38 time=12
note_on channel=0 note=66 velocity=38 time=0
note_on channel=0 note=66 velocity=0 time=228
note_on channel=0 note=63 velocity=0 time=0
note_on channel=0 note=78 velocity=0 time=0
note_on channel=0 note=75 velocity=58 time=0
note_on channel=0 note=63 velocity=38 time=0
note_on channel=0 note=66 velocity=38 time=0
note_on channel=0 note=66 velocity=0 time=228
note_on channel=0 note=63 velocity=0 time=0
note_on channel=0 note=75 velocity=0 time=0
note_on channel=0 note=58 velocity=0 time=0
note_on channel=0 note=72 velocity=60 time=0
note_on channel=0 note=56 velocity=44 time=0
note_on channel=0 note=72 velocity=0 time=0
note_on channel=0 note=44 velocity=57 time=0
note_on channel=0 note=63 velocity=38 time=0
note_on channel=0 note=66 velocity=38 time=0
note_on channel=0 note=44 velocity=0 time=120
note_on channel=0 note=66 velocity=0 time=108
note_on channel=0 note=63 velocity=0 time=0
note_on channel=0 note=51 velocity=60 time=0
note_on channel=0 note=63 velocity=38 time=0
note_on channel=0 note=66 velocity=38 time=0
note_on channel=0 note=51 velocity=0 time=120
note_on channel=0 note=66 velocity=0 time=108
note_on channel=0 note=63 velocity=0 time=0
note_on channel=0 note=53 velocity=63 time=12
note_on channel=0 note=63 velocity=38 time=0
note_on channel=0 note=66 velocity=38 time=0
note_on channel=0 note=53 velocity=0 time=120
note_on channel=0 note=66 velocity=0 time=108
note_on channel=0 note=63 velocity=0 time=0
note_on channel=0 note=56 velocity=0 time=0
note_on channel=0 note=54 velocity=66 time=0
note_on channel=0 note=56 velocity=44 time=0
note_on channel=0 note=54 velocity=0 time=120
note_on channel=0 note=68 velocity=59 time=120
note_on channel=0 note=63 velocity=38 time=0
note_on channel=0 note=66 velocity=38 time=0
note_on channel=0 note=66 velocity=0 time=228
note_on channel=0 note=63 velocity=0 time=0
note_on channel=0 note=68 velocity=0 time=0
note_on channel=0 note=78 velocity=62 time=0
note_on channel=0 note=63 velocity=38 time=0
note_on channel=0 note=66 velocity=38 time=0
note_on channel=0 note=66 velocity=0 time=228
note_on channel=0 note=63 velocity=0 time=0
note_on channel=0 note=78 velocity=0 time=12
note_on channel=0 note=77 velocity=65 time=0
note_on channel=0 note=63 velocity=38 time=0
note_on channel=0 note=66 velocity=38 time=0
note_on channel=0 note=66 velocity=0 time=228
note_on channel=0 note=63 velocity=0 time=0
note_on channel=0 note=77 velocity=0 time=0
note_on channel=0 note=56 velocity=0 time=0
note_on channel=0 note=77 velocity=60 time=0
note_on channel=0 note=56 velocity=44 time=0
note_on channel=0 note=77 velocity=0 time=60
note_on channel=0 note=78 velocity=60 time=0
note_on channel=0 note=78 velocity=0 time=60
note_on channel=0 note=77 velocity=67 time=0
note_on channel=0 note=77 velocity=0 time=120
note_on channel=0 note=75 velocity=60 time=0
note_on channel=0 note=63 velocity=38 time=0
note_on channel=0 note=66 velocity=38 time=0
note_on channel=0 note=66 velocity=0 time=228
note_on channel=0 note=63 velocity=0 time=0
note_on channel=0 note=75 velocity=0 time=12
note_on channel=0 note=75 velocity=60 time=0
note_on channel=0 note=63 velocity=38 time=0
note_on channel=0 note=66 velocity=38 time=0
note_on channel=0 note=75 velocity=0 time=60
note_on channel=0 note=77 velocity=60 time=0
note_on channel=0 note=77 velocity=0 time=60
note_on channel=0 note=75 velocity=67 time=0
note_on channel=0 note=66 velocity=0 time=108
note_on channel=0 note=63 velocity=0 time=0
note_on channel=0 note=75 velocity=0 time=12
note_on channel=0 note=73 velocity=60 time=0
note_on channel=0 note=63 velocity=38 time=0
note_on channel=0 note=66 velocity=38 time=0
note_on channel=0 note=66 velocity=0 time=228
note_on channel=0 note=63 velocity=0 time=0
note_on channel=0 note=73 velocity=0 time=12
note_on channel=0 note=56 velocity=0 time=0
note_on channel=0 note=73 velocity=60 time=0
note_on channel=0 note=56 velocity=44 time=0
note_on channel=0 note=73 velocity=0 time=60
note_on channel=0 note=75 velocity=60 time=0
note_on channel=0 note=75 velocity=0 time=60
note_on channel=0 note=73 velocity=66 time=0
note_on channel=0 note=73 velocity=0 time=120
note_on channel=0 note=72 velocity=60 time=0
note_on channel=0 note=63 velocity=38 time=0
note_on channel=0 note=66 velocity=38 time=0
note_on channel=0 note=66 velocity=0 time=228
note_on channel=0 note=63 velocity=0 time=0
note_on channel=0 note=72 velocity=0 time=12
note_on channel=0 note=70 velocity=60 time=0
note_on channel=0 note=63 velocity=38 time=0
note_on channel=0 note=66 velocity=38 time=0
note_on channel=0 note=70 velocity=0 time=120
note_on channel=0 note=66 velocity=0 time=108
note_on channel=0 note=63 velocity=0 time=0
note_on channel=0 note=72 velocity=60 time=12
note_on channel=0 note=63 velocity=38 time=0
note_on channel=0 note=66 velocity=38 time=0
note_on channel=0 note=72 velocity=0 time=120
note_on channel=0 note=66 velocity=0 time=108
note_on channel=0 note=63 velocity=0 time=0
note_on channel=0 note=56 velocity=0 time=0
note_on channel=0 note=73 velocity=60 time=0
note_on channel=0 note=56 velocity=44 time=0
note_on channel=0 note=73 velocity=0 time=0
note_on channel=0 note=44 velocity=55 time=0
note_on channel=0 note=61 velocity=38 time=0
note_on channel=0 note=65 velocity=38 time=0
note_on channel=0 note=44 velocity=0 time=120
note_on channel=0 note=65 velocity=0 time=108
note_on channel=0 note=61 velocity=0 time=0
note_on channel=0 note=49 velocity=58 time=0
note_on channel=0 note=61 velocity=38 time=0
note_on channel=0 note=65 velocity=38 time=0
note_on channel=0 note=49 velocity=0 time=120
note_on channel=0 note=65 velocity=0 time=108
note_on channel=0 note=61 velocity=0 time=0
note_on channel=0 note=51 velocity=61 time=12
note_on channel=0 note=61 velocity=38 time=0
note_on channel=0 note=65 velocity=38 time=0
note_on channel=0 note=51 velocity=0 time=120
note_on channel=0 note=65 velocity=0 time=108
note_on channel=0 note=61 velocity=0 time=0
note_on channel=0 note=56 velocity=0 time=0
note_on channel=0 note=53 velocity=64 time=0
note_on channel=0 note=56 velocity=44 time=0
note_on channel=0 note=53 velocity=0 time=120
note_on channel=0 note=68 velocity=62 time=120
note_on channel=0 note=61 velocity=38 time=0
note_on channel=0 note=65 velocity=38 time=0
note_on channel=0 note=68 velocity=0 time=120
note_on channel=0 note=65 velocity=0 time=108
note_on channel=0 note=61 velocity=0 time=0
note_on channel=0 note=73 velocity=64 time=0
note_on channel=0 note=61 velocity=38 time=0
note_on channel=0 note=65 velocity=38 time=0
note_on channel=0 note=73 velocity=0 time=120
note_on channel=0 note=65 velocity=0 time=108
note_on channel=0 note=61 velocity=0 time=0
note_on channel=0 note=75 velocity=66 time=12
note_on channel=0 note=61 velocity=38 time=0
note_on channel=0 note=65 velocity=38 time=0
note_on channel=0 note=75 velocity=0 time=120
note_on channel=0 note=68 velocity=65 time=60
note_on channel=0 note=65 velocity=0 time=48
note_on channel=0 note=61 velocity=0 time=0
note_on channel=0 note=56 velocity=0 time=0
note_on channel=0 note=68 velocity=0 time=0
note_on channel=0 note=77 velocity=75 time=0
note_on channel=0 note=56 velocity=44 time=0
note_on channel=0 note=61 velocity=38 time=0
note_on channel=0 note=65 velocity=38 time=0
note_on channel=0 note=65 velocity=0 time=228
note_on channel=0 note=61 velocity=0 time=0
note_on channel=0 note=61 velocity=38 time=12
note_on channel=0 note=65 velocity=38 time=0
note_on channel=0 note=65 velocity=0 time=228
note_on channel=0 note=61 velocity=0 time=0
note_on channel=0 note=77 velocity=0 time=0
note_on channel=0 note=73 velocity=63 time=0
note_on channel=0 note=61 velocity=38 time=0
note_on channel=0 note=65 velocity=38 time=0
note_on channel=0 note=68 velocity=60 time=180
note_on channel=0 note=65 velocity=0 time=48
note_on channel=0 note=61 velocity=0 time=0
note_on channel=0 note=56 velocity=0 time=12
note_on channel=0 note=73 velocity=0 time=0
note_on channel=0 note=68 velocity=0 time=0
note_on channel=0 note=77 velocity=71 time=0
note_on channel=0 note=56 velocity=44 time=0
note_on channel=0 note=61 velocity=38 time=0
note_on channel=0 note=65 velocity=38 time=0
note_on channel=0 note=65 velocity=0 time=228
note_on channel=0 note=61 velocity=0 time=0
note_on channel=0 note=61 velocity=38 time=12
note_on channel=0 note=65 velocity=38 time=0
note_on channel=0 note=65 velocity=0 time=228
note_on channel=0 note=61 velocity=0 time=0
note_on channel=0 note=77 velocity=0 time=0
note_on channel=0 note=73 velocity=58 time=0
note_on channel=0 note=61 velocity=38 time=0
note_on channel=0 note=65 velocity=38 time=0
note_on channel=0 note=65 velocity=0 time=228
note_on channel=0 note=61 velocity=0 time=0
note_on channel=0 note=73 velocity=0 time=0
note_on channel=0 note=56 velocity=0 time=0
note_on channel=0 note=72 velocity=60 time=0
note_on channel=0 note=56 velocity=44 time=0
note_on channel=0 note=72 velocity=0 time=0
note_on channel=0 note=44 velocity=57 time=0
note_on channel=0 note=63 velocity=38 time=0
note_on channel=0 note=66 velocity=38 time=0
note_on channel=0 note=44 velocity=0 time=120
note_on channel=0 note=66 velocity=0 time=108
note_on channel=0 note=63 velocity=0 time=0
note_on channel=0 note=51 velocity=60 time=0
note_on channel=0 note=63 velocity=38 time=0
note_on channel=0 note=66 velocity=38 time=0
note_on channel=0 note=51 velocity=0 time=120
note_on channel=0 note=66 velocity=0 time=108
note_on channel=0 note=63 velocity=0 time=0
note_on channel=0 note=53 velocity=63 time=12
note_on channel=0 note=63 velocity=38 time=0
note_on channel=0 note=66 velocity=38 time=0
note_on channel=0 note=53 velocity=0 time=120
note_on channel=0 note=66 velocity=0 time=108
note_on channel=0 note=63 velocity=0 time=0
note_on channel=0 note=56 velocity=0 time=0
note_on channel=0 note=54 velocity=66 time=0
note_on channel=0 note=56 velocity=44 time=0
note_on channel=0 note=54 velocity=0 time=120
note_on channel=0 note=68 velocity=59 time=120
note_on channel=0 note=63 velocity=38 time=0
note_on channel=0 note=66 velocity=38 time=0
note_on channel=0 note=66 velocity=0 time=228
note_on channel=0 note=63 velocity=0 time=0
note_on channel=0 note=68 velocity=0 time=0
note_on channel=0 note=78 velocity=62 time=0
note_on channel=0 note=63 velocity=38 time=0
note_on channel=0 note=66 velocity=38 time=0
note_on channel=0 note=66 velocity=0 time=228
note_on channel=0 note=63 velocity=0 time=0
note_on channel=0 note=78 velocity=0 time=12
note_on channel=0 note=77 velocity=65 time=0
note_on channel=0 note=63 velocity=38 time=0
note_on channel=0 note=66 velocity=38 time=0
note_on channel=0 note=66 velocity=0 time=228
note_on channel=0 note=63 velocity=0 time=0
note_on channel=0 note=77 velocity=0 time=0
note_on channel=0 note=56 velocity=0 time=0
note_on channel=0 note=77 velocity=60 time=0
note_on channel=0 note=56 velocity=44 time=0
note_on channel=0 note=77 velocity=0 time=60
note_on channel=0 note=78 velocity=60 time=0
note_on channel=0 note=78 velocity=0 time=60
note_on channel=0 note=77 velocity=67 time=0
note_on channel=0 note=77 velocity=0 time=120
note_on channel=0 note=75 velocity=60 time=0
note_on channel=0 note=63 velocity=38 time=0
note_on channel=0 note=66 velocity=38 time=0
note_on channel=0 note=66 velocity=0 time=228
note_on channel=0 note=63 velocity=0 time=0
note_on channel=0 note=75 velocity=0 time=12
note_on channel=0 note=75 velocity=60 time=0
note_on channel=0 note=63 velocity=38 time=0
note_on channel=0 note=66 velocity=38 time=0
note_on channel=0 note=75 velocity=0 time=60
note_on channel=0 note=77 velocity=60 time=0
note_on channel=0 note=77 velocity=0 time=60
note_on channel=0 note=75 velocity=67 time=0
note_on channel=0 note=66 velocity=0 time=108
note_on channel=0 note=63 velocity=0 time=0
note_on channel=0 note=75 velocity=0 time=12
note_on channel=0 note=73 velocity=60 time=0
note_on channel=0 note=63 velocity=38 time=0
note_on channel=0 note=66 velocity=38 time=0
note_on channel=0 note=66 velocity=0 time=228
note_on channel=0 note=63 velocity=0 time=0
note_on channel=0 note=73 velocity=0 time=12
note_on channel=0 note=56 velocity=0 time=0
note_on channel=0 note=73 velocity=60 time=0
note_on channel=0 note=56 velocity=44 time=0
note_on channel=0 note=73 velocity=0 time=60
note_on channel=0 note=75 velocity=60 time=0
note_on channel=0 note=75 velocity=0 time=60
note_on channel=0 note=73 velocity=66 time=0
note_on channel=0 note=73 velocity=0 time=120
note_on channel=0 note=72 velocity=60 time=0
note_on channel=0 note=63 velocity=38 time=0
note_on channel=0 note=66 velocity=38 time=0
note_on channel=0 note=66 velocity=0 time=228
note_on channel=0 note=63 velocity=0 time=0
note_on channel=0 note=72 velocity=0 time=12
note_on channel=0 note=70 velocity=60 time=0
note_on channel=0 note=63 velocity=38 time=0
note_on channel=0 note=66 velocity=38 time=0
note_on channel=0 note=70 velocity=0 time=120
note_on channel=0 note=66 velocity=0 time=108
note_on channel=0 note=63 velocity=0 time=0
note_on channel=0 note=72 velocity=57 time=12
note_on channel=0 note=63 velocity=38 time=0
note_on channel=0 note=66 velocity=38 time=0
note_on channel=0 note=72 velocity=0 time=120
note_on channel=0 note=66 velocity=0 time=108
note_on channel=0 note=63 velocity=0 time=0
note_on channel=0 note=56 velocity=0 time=0
note_on channel=0 note=73 velocity=60 time=0
note_on channel=0 note=61 velocity=54 time=0
note_on channel=0 note=73 velocity=0 time=0
note_on channel=0 note=49 velocity=73 time=0
note_on channel=0 note=65 velocity=53 time=0
note_on channel=0 note=68 velocity=53 time=0
note_on channel=0 note=68 velocity=0 time=0
note_on channel=0 note=61 velocity=0 time=0
note_on channel=0 note=49 velocity=0 time=0
note_on channel=0 note=65 velocity=0 time=0
note_on channel=0 note=56 velocity=77 time=0
note_on channel=0 note=59 velocity=60 time=0
note_on channel=0 note=56 velocity=0 time=0
note_on channel=0 note=47 velocity=73 time=0
note_on channel=0 note=65 velocity=53 time=0
note_on channel=0 note=68 velocity=53 time=0
note_on channel=0 note=47 velocity=0 time=120
note_on channel=0 note=59 velocity=0 time=120
note_on channel=0 note=65 velocity=0 time=0
note_on channel=0 note=68 velocity=0 time=0
note_on channel=0 note=46 velocity=77 time=0
note_on channel=0 note=58 velocity=53 time=0
note_on channel=0 note=46 velocity=0 time=120
note_on channel=0 note=70 velocity=59 time=120
note_on channel=0 note=65 velocity=38 time=0
note_on channel=0 note=68 velocity=38 time=0
note_on channel=0 note=68 velocity=0 time=228
note_on channel=0 note=65 velocity=0 time=0
note_on channel=0 note=70 velocity=0 time=0
note_on channel=0 note=80 velocity=62 time=0
note_on channel=0 note=65 velocity=38 time=0
note_on channel=0 note=68 velocity=38 time=0
note_on channel=0 note=68 velocity=0 time=228
note_on channel=0 note=65 velocity=0 time=0
note_on channel=0 note=80 velocity=0 time=12
note_on channel=0 note=78 velocity=65 time=0
note_on channel=0 note=65 velocity=38 time=0
note_on channel=0 note=68 velocity=38 time=0
note_on channel=0 note=68 velocity=0 time=228
note_on channel=0 note=65 velocity=0 time=0
note_on channel=0 note=78 velocity=0 time=0
note_on channel=0 note=58 velocity=0 time=0
note_on channel=0 note=78 velocity=60 time=0
note_on channel=0 note=58 velocity=44 time=0
note_on channel=0 note=78 velocity=0 time=60
note_on channel=0 note=80 velocity=60 time=0
note_on channel=0 note=80 velocity=0 time=60
note_on channel=0 note=78 velocity=67 time=0
note_on channel=0 note=78 velocity=0 time=120
note_on channel=0 note=77 velocity=60 time=0
note_on channel=0 note=65 velocity=38 time=0
note_on channel=0 note=68 velocity=38 time=0
note_on channel=0 note=68 velocity=0 time=228
note_on channel=0 note=65 velocity=0 time=0
note_on channel=0 note=77 velocity=0 time=12
note_on channel=0 note=77 velocity=60 time=0
note_on channel=0 note=65 velocity=38 time=0
note_on channel=0 note=68 velocity=38 time=0
note_on channel=0 note=77 velocity=0 time=60
note_on channel=0 note=78 velocity=60 time=0
note_on channel=0 note=78 velocity=0 time=60
note_on channel=0 note=77 velocity=67 time=0
note_on channel=0 note=68 velocity=0 time=108
note_on channel=0 note=65 velocity=0 time=0
note_on channel=0 note=77 velocity=0 time=12
note_on channel=0 note=75 velocity=60 time=0
note_on channel=0 note=65 velocity=38 time=0
note_on channel=0 note=68 velocity=38 time=0
note_on channel=0 note=68 velocity=0 time=228
note_on channel=0 note=65 velocity=0 time=0
note_on channel=0 note=75 velocity=0 time=12
note_on channel=0 note=58 velocity=0 time=0
note_on channel=0 note=75 velocity=60 time=0
note_on channel=0 note=58 velocity=44 time=0
note_on channel=0 note=75 velocity=0 time=60
note_on channel=0 note=77 velocity=60 time=0
note_on channel=0 note=77 velocity=0 time=60
note_on channel=0 note=75 velocity=66 time=0
note_on channel=0 note=75 velocity=0 time=120
note_on channel=0 note=74 velocity=60 time=0
note_on channel=0 note=65 velocity=38 time=0
note_on channel=0 note=68 velocity=38 time=0
note_on channel=0 note=68 velocity=0 time=228
note_on channel=0 note=65 velocity=0 time=0
note_on channel=0 note=74 velocity=0 time=12
note_on channel=0 note=72 velocity=60 time=0
note_on channel=0 note=65 velocity=38 time=0
note_on channel=0 note=68 velocity=38 time=0
note_on channel=0 note=72 velocity=0 time=120
note_on channel=0 note=68 velocity=0 time=108
note_on channel=0 note=65 velocity=0 time=0
note_on channel=0 note=74 velocity=57 time=12
note_on channel=0 note=65 velocity=38 time=0
note_on channel=0 note=68 velocity=38 time=0
note_on channel=0 note=74 velocity=0 time=120
note_on channel=0 note=68 velocity=0 time=108
note_on channel=0 note=65 velocity=0 time=0
note_on channel=0 note=58 velocity=0 time=0
note_on channel=0 note=75 velocity=60 time=0
note_on channel=0 note=63 velocity=54 time=0
note_on channel=0 note=75 velocity=0 time=0
note_on channel=0 note=51 velocity=73 time=0
note_on channel=0 note=66 velocity=53 time=0
note_on channel=0 note=70 velocity=53 time=0
note_on channel=0 note=70 velocity=0 time=0
note_on channel=0 note=63 velocity=0 time=0
note_on channel=0 note=51 velocity=0 time=0
note_on channel=0 note=66 velocity=0 time=0
note_on channel=0 note=58 velocity=77 time=0
note_on channel=0 note=61 velocity=60 time=0
note_on channel=0 note=58 velocity=0 time=0
note_on channel=0 note=49 velocity=73 time=0
note_on channel=0 note=65 velocity=53 time=0
note_on channel=0 note=70 velocity=53 time=0
note_on channel=0 note=49 velocity=0 time=120
note_on channel=0 note=61 velocity=0 time=120
note_on channel=0 note=65 velocity=0 time=0
note_on channel=0 note=70 velocity=0 time=0
note_on channel=0 note=48 velocity=77 time=0
note_on channel=0 note=60 velocity=53 time=0
note_on channel=0 note=48 velocity=0 time=120
note_on channel=0 note=72 velocity=59 time=120
note_on channel=0 note=67 velocity=38 time=0
note_on channel=0 note=70 velocity=38 time=0
note_on channel=0 note=70 velocity=0 time=228
note_on channel=0 note=67 velocity=0 time=0
note_on channel=0 note=72 velocity=0 time=0
note_on channel=0 note=82 velocity=62 time=0
note_on channel=0 note=67 velocity=38 time=0
note_on channel=0 note=70 velocity=38 time=0
note_on channel=0 note=70 velocity=0 time=228
note_on channel=0 note=67 velocity=0 time=0
note_on channel=0 note=82 velocity=0 time=12
note_on channel=0 note=80 velocity=65 time=0
note_on channel=0 note=67 velocity=38 time=0
note_on channel=0 note=70 velocity=38 time=0
note_on channel=0 note=70 velocity=0 time=228
note_on channel=0 note=67 velocity=0 time=0
note_on channel=0 note=80 velocity=0 time=0
note_on channel=0 note=60 velocity=0 time=0
note_on channel=0 note=80 velocity=60 time=0
note_on channel=0 note=60 velocity=44 time=0
note_on channel=0 note=80 velocity=0 time=60
note_on channel=0 note=82 velocity=60 time=0
note_on channel=0 note=82 velocity=0 time=60
note_on channel=0 note=80 velocity=67 time=0
note_on channel=0 note=80 velocity=0 time=120
note_on channel=0 note=79 velocity=60 time=0
note_on channel=0 note=67 velocity=38 time=0
note_on channel=0 note=70 velocity=38 time=0
note_on channel=0 note=70 velocity=0 time=228
note_on channel=0 note=67 velocity=0 time=0
note_on channel=0 note=79 velocity=0 time=12
note_on channel=0 note=79 velocity=60 time=0
note_on channel=0 note=67 velocity=38 time=0
note_on channel=0 note=70 velocity=38 time=0
note_on channel=0 note=79 velocity=0 time=60
note_on channel=0 note=80 velocity=60 time=0
note_on channel=0 note=80 velocity=0 time=60
note_on channel=0 note=79 velocity=67 time=0
note_on channel=0 note=70 velocity=0 time=108
note_on channel=0 note=67 velocity=0 time=0
note_on channel=0 note=79 velocity=0 time=12
note_on channel=0 note=77 velocity=60 time=0
note_on channel=0 note=67 velocity=38 time=0
note_on channel=0 note=70 velocity=38 time=0
note_on channel=0 note=70 velocity=0 time=228
note_on channel=0 note=67 velocity=0 time=0
note_on channel=0 note=77 velocity=0 time=12
note_on channel=0 note=60 velocity=0 time=0
note_on channel=0 note=77 velocity=60 time=0
note_on channel=0 note=60 velocity=44 time=0
note_on channel=0 note=77 velocity=0 time=60
note_on channel=0 note=79 velocity=60 time=0
note_on channel=0 note=79 velocity=0 time=60
note_on channel=0 note=77 velocity=66 time=0
note_on channel=0 note=77 velocity=0 time=120
note_on channel=0 note=76 velocity=60 time=0
note_on channel=0 note=67 velocity=38 time=0
note_on channel=0 note=70 velocity=38 time=0
note_on channel=0 note=70 velocity=0 time=228
note_on channel=0 note=67 velocity=0 time=0
note_on channel=0 note=76 velocity=0 time=12
note_on channel=0 note=74 velocity=60 time=0
note_on channel=0 note=67 velocity=38 time=0
note_on channel=0 note=70 velocity=38 time=0
note_on channel=0 note=70 velocity=0 time=228
note_on channel=0 note=67 velocity=0 time=0
note_on channel=0 note=74 velocity=0 time=12
note_on channel=0 note=76 velocity=57 time=0
note_on channel=0 note=67 velocity=38 time=0
note_on channel=0 note=70 velocity=38 time=0
note_on channel=0 note=70 velocity=0 time=228
note_on channel=0 note=67 velocity=0 time=0
note_on channel=0 note=76 velocity=0 time=0
note_on channel=0 note=60 velocity=0 time=0
note_on channel=0 note=79 velocity=60 time=0
note_on channel=0 note=65 velocity=44 time=0
note_on channel=0 note=79 velocity=0 time=60
note_on channel=0 note=80 velocity=60 time=0
note_on channel=0 note=80 velocity=0 time=60
note_on channel=0 note=79 velocity=67 time=0
note_on channel=0 note=79 velocity=0 time=120
note_on channel=0 note=77 velocity=60 time=0
note_on channel=0 note=68 velocity=38 time=0
note_on channel=0 note=72 velocity=38 time=0
note_on channel=0 note=72 velocity=0 time=228
note_on channel=0 note=68 velocity=0 time=0
note_on channel=0 note=77 velocity=0 time=12
note_on channel=0 note=77 velocity=60 time=0
note_on channel=0 note=68 velocity=38 time=0
note_on channel=0 note=72 velocity=38 time=0
note_on channel=0 note=77 velocity=0 time=60
note_on channel=0 note=79 velocity=60 time=0
note_on channel=0 note=79 velocity=0 time=60
note_on channel=0 note=77 velocity=67 time=0
note_on channel=0 note=72 velocity=0 time=108
note_on channel=0 note=68 velocity=0 time=0
note_on channel=0 note=77 velocity=0 time=12
note_on channel=0 note=75 velocity=60 time=0
note_on channel=0 note=68 velocity=38 time=0
note_on channel=0 note=72 velocity=38 time=0
note_on channel=0 note=72 velocity=0 time=228
note_on channel=0 note=68 velocity=0 time=0
note_on channel=0 note=75 velocity=0 time=12
note_on channel=0 note=65 velocity=0 time=0
note_on channel=0 note=75 velocity=60 time=0
note_on channel=0 note=58 velocity=44 time=0
note_on channel=0 note=75 velocity=0 time=60
note_on channel=0 note=77 velocity=60 time=0
note_on channel=0 note=77 velocity=0 time=60
note_on channel=0 note=75 velocity=66 time=0
note_on channel=0 note=75 velocity=0 time=120
note_on channel=0 note=74 velocity=60 time=0
note_on channel=0 note=65 velocity=38 time=0
note_on channel=0 note=68 velocity=38 time=0
note_on channel=0 note=68 velocity=0 time=228
note_on channel=0 note=65 velocity=0 time=0
note_on channel=0 note=74 velocity=0 time=12
note_on channel=0 note=58 velocity=0 time=0
note_on channel=0 note=72 velocity=60 time=0
note_on channel=0 note=59 velocity=44 time=0
note_on channel=0 note=65 velocity=38 time=0
note_on channel=0 note=68 velocity=38 time=0
note_on channel=0 note=68 velocity=0 time=228
note_on channel=0 note=65 velocity=0 time=0
note_on channel=0 note=72 velocity=0 time=12
note_on channel=0 note=74 velocity=57 time=0
note_on channel=0 note=65 velocity=38 time=0
note_on channel=0 note=68 velocity=38 time=0
note_on channel=0 note=68 velocity=0 time=228
note_on channel=0 note=65 velocity=0 time=0
note_on channel=0 note=74 velocity=0 time=0
note_on channel=0 note=59 velocity=0 time=0
note_on channel=0 note=77 velocity=60 time=0
note_on channel=0 note=60 velocity=44 time=0
note_on channel=0 note=77 velocity=0 time=60
note_on channel=0 note=79 velocity=60 time=0
note_on channel=0 note=79 velocity=0 time=60
note_on channel=0 note=77 velocity=67 time=0
note_on channel=0 note=77 velocity=0 time=120
note_on channel=0 note=75 velocity=59 time=0
note_on channel=0 note=63 velocity=37 time=0
note_on channel=0 note=67 velocity=37 time=0
note_on channel=0 note=67 velocity=0 time=228
note_on channel=0 note=63 velocity=0 time=0
note_on channel=0 note=75 velocity=0 time=12
note_on channel=0 note=75 velocity=58 time=0
note_on channel=0 note=63 velocity=36 time=0
note_on channel=0 note=67 velocity=36 time=0
note_on channel=0 note=75 velocity=0 time=60
note_on channel=0 note=77 velocity=58 time=0
note_on channel=0 note=77 velocity=0 time=60
note_on channel=0 note=75 velocity=64 time=0
note_on channel=0 note=67 velocity=0 time=108
note_on channel=0 note=63 velocity=0 time=0
note_on channel=0 note=75 velocity=0 time=12
note_on channel=0 note=74 velocity=57 time=0
note_on channel=0 note=63 velocity=36 time=0
note_on channel=0 note=67 velocity=36 time=0
note_on channel=0 note=67 velocity=0 time=228
note_on channel=0 note=63 velocity=0 time=0
note_on channel=0 note=74 velocity=0 time=12
note_on channel=0 note=60 velocity=0 time=0
note_on channel=0 note=74 velocity=56 time=0
note_on channel=0 note=56 velocity=41 time=0
note_on channel=0 note=74 velocity=0 time=60
note_on channel=0 note=75 velocity=55 time=0
note_on channel=0 note=75 velocity=0 time=60
note_on channel=0 note=74 velocity=61 time=0
note_on channel=0 note=74 velocity=0 time=20
note_on channel=0 note=72 velocity=55 time=0
note_on channel=0 note=63 velocity=34 time=0
note_on channel=0 note=65 velocity=34 time=0
note_on channel=0 note=65 velocity=0 time=28
note_on channel=0 note=63 velocity=0 time=0
note_on channel=0 note=72 velocity=0 time=12
note_on channel=0 note=72 velocity=54 time=0
note_on channel=0 note=63 velocity=34 time=0
note_on channel=0 note=65 velocity=34 time=0
note_on channel=0 note=72 velocity=0 time=20
note_on channel=0 note=74 velocity=54 time=0
note_on channel=0 note=74 velocity=0 time=20
note_on channel=0 note=72 velocity=59 time=0
note_on channel=0 note=65 velocity=0 time=48
note_on channel=0 note=63 velocity=0 time=0
note_on channel=0 note=72 velocity=0 time=12
note_on channel=0 note=71 velocity=53 time=0
note_on channel=0 note=63 velocity=33 time=0
note_on channel=0 note=65 velocity=33 time=0
note_on channel=0 note=65 velocity=0 time=8
note_on channel=0 note=63 velocity=0 time=0
note_on channel=0 note=71 velocity=0 time=0
note_on channel=0 note=56 velocity=0 time=0
note_on channel=0 note=72 velocity=52 time=0
note_on channel=0 note=58 velocity=38 time=0
note_on channel=0 note=72 velocity=0 time=60
note_on channel=0 note=74 velocity=52 time=0
note_on channel=0 note=74 velocity=0 time=60
note_on channel=0 note=72 velocity=56 time=0
note_on channel=0 note=72 velocity=0 time=120
note_on channel=0 note=70 velocity=51 time=0
note_on channel=0 note=63 velocity=32 time=0
note_on channel=0 note=67 velocity=32 time=0
note_on channel=0 note=67 velocity=0 time=228
note_on channel=0 note=63 velocity=0 time=0
note_on channel=0 note=70 velocity=0 time=12
note_on channel=0 note=70 velocity=50 time=0
note_on channel=0 note=63 velocity=31 time=0
note_on channel=0 note=67 velocity=31 time=0
note_on channel=0 note=70 velocity=0 time=90
note_on channel=0 note=67 velocity=0 time=138
note_on channel=0 note=63 velocity=0 time=0
note_on channel=0 note=70 velocity=46 time=12
note_on channel=0 note=63 velocity=31 time=0
note_on channel=0 note=67 velocity=31 time=0
note_on channel=0 note=70 velocity=0 time=90
note_on channel=0 note=67 velocity=0 time=138
note_on channel=0 note=63 velocity=0 time=0
note_on channel=0 note=58 velocity=0 time=0
note_on channel=0 note=72 velocity=37 time=0
note_on channel=0 note=58 velocity=27 time=0
note_on channel=0 note=72 velocity=0 time=60
note_on channel=0 note=74 velocity=37 time=0
note_on channel=0 note=74 velocity=0 time=60
note_on channel=0 note=72 velocity=41 time=0
note_on channel=0 note=72 velocity=0 time=120
note_on channel=0 note=70 velocity=37 time=0
note_on channel=0 note=62 velocity=23 time=0
note_on channel=0 note=65 velocity=23 time=0
note_on channel=0 note=65 velocity=0 time=228
note_on channel=0 note=62 velocity=0 time=0
note_on channel=0 note=70 velocity=0 time=12
note_on channel=0 note=70 velocity=37 time=0
note_on channel=0 note=62 velocity=23 time=0
note_on channel=0 note=65 velocity=23 time=0
note_on channel=0 note=70 velocity=0 time=90
note_on channel=0 note=65 velocity=0 time=138
note_on channel=0 note=62 velocity=0 time=0
note_on channel=0 note=70 velocity=35 time=12
note_on channel=0 note=62 velocity=23 time=0
note_on channel=0 note=65 velocity=23 time=0
note_on channel=0 note=70 velocity=0 time=90
note_on channel=0 note=65 velocity=0 time=138
note_on channel=0 note=62 velocity=0 time=0
note_on channel=0 note=58 velocity=0 time=12
note_on channel=0 note=51 velocity=36 time=0
note_on channel=0 note=63 velocity=25 time=14
note_on channel=0 note=58 velocity=24 time=0
note_on channel=0 note=58 velocity=0 time=0
note_on channel=0 note=63 velocity=0 time=0
note_on channel=0 note=67 velocity=29 time=0
note_on channel=0 note=55 velocity=26 time=0
note_on channel=0 note=55 velocity=0 time=120
note_on channel=0 note=67 velocity=0 time=0
note_on channel=0 note=63 velocity=29 time=0
note_on channel=0 note=58 velocity=24 time=0
note_on channel=0 note=58 velocity=0 time=80
note_on channel=0 note=63 velocity=0 time=0
note_on channel=0 note=75 velocity=45 time=0
note_on channel=0 note=55 velocity=32 time=0
note_on channel=0 note=55 velocity=0 time=60
note_on channel=0 note=63 velocity=28 time=0
note_on channel=0 note=58 velocity=25 time=0
note_on channel=0 note=58 velocity=0 time=40
note_on channel=0 note=63 velocity=0 time=0
note_on channel=0 note=67 velocity=30 time=0
note_on channel=0 note=55 velocity=28 time=0
note_on channel=0 note=55 velocity=0 time=20
note_on channel=0 note=67 velocity=0 time=0
note_on channel=0 note=63 velocity=28 time=0
note_on channel=0 note=58 velocity=26 time=0
note_on channel=0 note=58 velocity=0 time=0
note_on channel=0 note=63 velocity=0 time=0
note_on channel=0 note=67 velocity=31 time=0
note_on channel=0 note=55 velocity=34 time=0
note_on channel=0 note=55 velocity=0 time=56
note_on channel=0 note=67 velocity=0 time=0
note_on channel=0 note=63 velocity=30 time=0
note_on channel=0 note=58 velocity=26 time=0
note_on channel=0 note=58 velocity=0 time=120
note_on channel=0 note=63 velocity=0 time=0
note_on channel=0 note=67 velocity=32 time=0
note_on channel=0 note=55 velocity=29 time=0
note_on channel=0 note=55 velocity=0 time=120
note_on channel=0 note=67 velocity=0 time=0
note_on channel=0 note=63 velocity=29 time=0
note_on channel=0 note=58 velocity=26 time=0
note_on channel=0 note=58 velocity=0 time=120
note_on channel=0 note=51 velocity=0 time=0
note_on channel=0 note=75 velocity=0 time=0
note_on channel=0 note=63 velocity=0 time=0
note_on channel=0 note=75 velocity=50 time=0
note_on channel=0 note=51 velocity=36 time=0
note_on channel=0 note=63 velocity=30 time=120
note_on channel=0 note=58 velocity=28 time=0
note_on channel=0 note=58 velocity=0 time=120
note_on channel=0 note=63 velocity=0 time=0
note_on channel=0 note=67 velocity=33 time=0
note_on channel=0 note=55 velocity=32 time=0
note_on channel=0 note=55 velocity=0 time=120
note_on channel=0 note=67 velocity=0 time=0
note_on channel=0 note=63 velocity=32 time=0
note_on channel=0 note=58 velocity=28 time=0
note_on channel=0 note=58 velocity=0 time=0
note_on channel=0 note=75 velocity=0 time=0
note_on channel=0 note=51 velocity=0 time=0
note_on channel=0 note=63 velocity=0 time=0
note_on channel=0 note=49 velocity=45 time=0
note_on channel=0 note=63 velocity=32 time=106
note_on channel=0 note=58 velocity=30 time=0
note_on channel=0 note=58 velocity=0 time=20
note_on channel=0 note=63 velocity=0 time=0
note_on channel=0 note=67 velocity=36 time=0
note_on channel=0 note=55 velocity=32 time=0
note_on channel=0 note=55 velocity=0 time=120
note_on channel=0 note=67 velocity=0 time=0
note_on channel=0 note=63 velocity=35 time=0
note_on channel=0 note=58 velocity=29 time=0
note_on channel=0 note=58 velocity=0 time=0
note_on channel=0 note=63 velocity=0 time=0
note_on channel=0 note=75 velocity=54 time=0
note_on channel=0 note=55 velocity=38 time=0
note_on channel=0 note=55 velocity=0 time=120
note_on channel=0 note=63 velocity=33 time=0
note_on channel=0 note=58 velocity=30 time=0
note_on channel=0 note=58 velocity=0 time=0
note_on channel=0 note=63 velocity=0 time=0
note_on channel=0 note=67 velocity=35 time=0
note_on channel=0 note=55 velocity=33 time=0
note_on channel=0 note=55 velocity=0 time=120
note_on channel=0 note=67 velocity=0 time=0
note_on channel=0 note=63 velocity=32 time=0
note_on channel=0 note=58 velocity=30 time=0
note_on channel=0 note=58 velocity=0 time=0
note_on channel=0 note=63 velocity=0 time=0
note_on channel=0 note=67 velocity=35 time=0
note_on channel=0 note=55 velocity=38 time=0
note_on channel=0 note=55 velocity=0 time=21
note_on channel=0 note=67 velocity=0 time=0
note_on channel=0 note=63 velocity=33 time=0
note_on channel=0 note=58 velocity=29 time=0
note_on channel=0 note=58 velocity=0 time=120
note_on channel=0 note=63 velocity=0 time=0
note_on channel=0 note=67 velocity=35 time=0
note_on channel=0 note=55 velocity=32 time=0
note_on channel=0 note=55 velocity=0 time=120
note_on channel=0 note=67 velocity=0 time=0
note_on channel=0 note=63 velocity=32 time=0
note_on channel=0 note=58 velocity=29 time=0
note_on channel=0 note=58 velocity=0 time=120
note_on channel=0 note=49 velocity=0 time=0
note_on channel=0 note=75 velocity=0 time=0
note_on channel=0 note=63 velocity=0 time=0
note_on channel=0 note=75 velocity=53 time=0
note_on channel=0 note=49 velocity=38 time=0
note_on channel=0 note=63 velocity=32 time=120
note_on channel=0 note=58 velocity=30 time=0
note_on channel=0 note=58 velocity=0 time=120
note_on channel=0 note=63 velocity=0 time=0
note_on channel=0 note=67 velocity=35 time=0
note_on channel=0 note=55 velocity=33 time=0
note_on channel=0 note=55 velocity=0 time=0
note_on channel=0 note=67 velocity=0 time=0
note_on channel=0 note=63 velocity=33 time=0
note_on channel=0 note=58 velocity=29 time=0
note_on channel=0 note=58 velocity=0 time=0
note_on channel=0 note=75 velocity=0 time=0
note_on channel=0 note=49 velocity=0 time=0
note_on channel=0 note=63 velocity=0 time=0
note_on channel=0 note=75 velocity=66 time=0
note_on channel=0 note=48 velocity=55 time=0
note_on channel=0 note=48 velocity=0 time=73
note_on channel=0 note=75 velocity=0 time=0
note_on channel=0 note=63 velocity=41 time=30
note_on channel=0 note=56 velocity=36 time=0
note_on channel=0 note=56 velocity=0 time=40
note_on channel=0 note=63 velocity=0 time=0
note_on channel=0 note=68 velocity=45 time=0
note_on channel=0 note=51 velocity=39 time=0
note_on channel=0 note=51 velocity=0 time=120
note_on channel=0 note=68 velocity=0 time=0
note_on channel=0 note=63 velocity=42 time=0
note_on channel=0 note=56 velocity=35 time=0
note_on channel=0 note=56 velocity=0 time=80
note_on channel=0 note=63 velocity=0 time=0
note_on channel=0 note=76 velocity=67 time=0
note_on channel=0 note=46 velocity=56 time=0
note_on channel=0 note=46 velocity=0 time=90
note_on channel=0 note=76 velocity=0 time=0
note_on channel=0 note=64 velocity=43 time=20
note_on channel=0 note=55 velocity=36 time=0
note_on channel=0 note=55 velocity=0 time=120
note_on channel=0 note=64 velocity=0 time=0
note_on channel=0 note=72 velocity=47 time=0
note_on channel=0 note=48 velocity=43 time=0
note_on channel=0 note=48 velocity=0 time=60
note_on channel=0 note=72 velocity=0 time=0
note_on channel=0 note=64 velocity=43 time=0
note_on channel=0 note=55 velocity=41 time=0
note_on channel=0 note=55 velocity=0 time=0
note_on channel=0 note=64 velocity=0 time=0
note_on channel=0 note=77 velocity=71 time=0
note_on channel=0 note=44 velocity=58 time=0
note_on channel=0 note=44 velocity=0 time=90
note_on channel=0 note=77 velocity=0 time=0
note_on channel=0 note=65 velocity=45 time=30
note_on channel=0 note=56 velocity=38 time=0
note_on channel=0 note=56 velocity=0 time=120
note_on channel=0 note=65 velocity=0 time=0
note_on channel=0 note=72 velocity=50 time=0
note_on channel=0 note=48 velocity=43 time=0
note_on channel=0 note=48 velocity=0 time=120
note_on channel=0 note=72 velocity=0 time=0
note_on channel=0 note=65 velocity=45 time=0
note_on channel=0 note=56 velocity=38 time=0
note_on channel=0 note=56 velocity=0 time=120
note_on channel=0 note=65 velocity=0 time=0
note_on channel=0 note=79 velocity=72 time=0
note_on channel=0 note=43 velocity=60 time=0
note_on channel=0 note=43 velocity=0 time=90
note_on channel=0 note=79 velocity=0 time=0
note_on channel=0 note=67 velocity=47 time=30
note_on channel=0 note=55 velocity=40 time=0
note_on channel=0 note=55 velocity=0 time=120
note_on channel=0 note=67 velocity=0 time=0
note_on channel=0 note=72 velocity=50 time=0
note_on channel=0 note=48 velocity=43 time=0
note_on channel=0 note=48 velocity=0 time=120
note_on channel=0 note=72 velocity=0 time=0
note_on channel=0 note=67 velocity=47 time=0
note_on channel=0 note=55 velocity=38 time=0
note_on channel=0 note=55 velocity=0 time=0
note_on channel=0 note=67 velocity=0 time=0
note_on channel=0 note=80 velocity=74 time=0
note_on channel=0 note=41 velocity=63 time=0
note_on channel=0 note=41 velocity=0 time=50
note_on channel=0 note=80 velocity=0 time=0
note_on channel=0 note=68 velocity=49 time=20
note_on channel=0 note=53 velocity=42 time=0
note_on channel=0 note=53 velocity=0 time=0
note_on channel=0 note=68 velocity=0 time=0
note_on channel=0 note=72 velocity=54 time=0
note_on channel=0 note=48 velocity=45 time=0
note_on channel=0 note=48 velocity=0 time=0
note_on channel=0 note=72 velocity=0 time=0
note_on channel=0 note=68 velocity=49 time=0
note_on channel=0 note=53 velocity=42 time=0
note_on channel=0 note=53 velocity=0 time=40
note_on channel=0 note=68 velocity=0 time=0
note_on channel=0 note=81 velocity=80 time=0
note_on channel=0 note=39 velocity=66 time=0
note_on channel=0 note=39 velocity=0 time=90
note_on channel=0 note=81 velocity=0 time=0
note_on channel=0 note=69 velocity=50 time=30
note_on channel=0 note=51 velocity=41 time=0
note_on channel=0 note=51 velocity=0 time=120
note_on channel=0 note=69 velocity=0 time=0
note_on channel=0 note=72 velocity=55 time=0
note_on channel=0 note=41 velocity=47 time=0
note_on channel=0 note=41 velocity=0 time=0
note_on channel=0 note=72 velocity=0 time=0
note_on channel=0 note=69 velocity=51 time=0
note_on channel=0 note=51 velocity=41 time=0
note_on channel=0 note=51 velocity=0 time=40
note_on channel=0 note=69 velocity=0 time=0
note_on channel=0 note=82 velocity=84 time=0
note_on channel=0 note=38 velocity=68 time=0
note_on channel=0 note=38 velocity=0 time=10
note_on channel=0 note=82 velocity=0 time=0
note_on channel=0 note=70 velocity=51 time=30
note_on channel=0 note=50 velocity=45 time=0
note_on channel=0 note=50 velocity=0 time=0
note_on channel=0 note=70 velocity=0 time=0
note_on channel=0 note=77 velocity=58 time=0
note_on channel=0 note=41 velocity=49 time=0
note_on channel=0 note=41 velocity=0 time=0
note_on channel=0 note=77 velocity=0 time=0
note_on channel=0 note=70 velocity=53 time=0
note_on channel=0 note=50 velocity=43 time=0
note_on channel=0 note=50 velocity=0 time=0
note_on channel=0 note=70 velocity=0 time=0
note_on channel=0 note=84 velocity=85 time=0
note_on channel=0 note=36 velocity=70 time=0
note_on channel=0 note=36 velocity=0 time=10
note_on channel=0 note=84 velocity=0 time=0
note_on channel=0 note=72 velocity=53 time=20
note_on channel=0 note=48 velocity=45 time=0
note_on channel=0 note=48 velocity=0 time=0
note_on channel=0 note=72 velocity=0 time=0
note_on channel=0 note=77 velocity=58 time=0
note_on channel=0 note=41 velocity=51 time=0
note_on channel=0 note=41 velocity=0 time=0
note_on channel=0 note=77 velocity=0 time=0
note_on channel=0 note=72 velocity=54 time=0
note_on channel=0 note=48 velocity=43 time=0
note_on channel=0 note=48 velocity=0 time=20
note_on channel=0 note=72 velocity=0 time=0
note_on channel=0 note=85 velocity=85 time=0
note_on channel=0 note=34 velocity=70 time=0
note_on channel=0 note=34 velocity=0 time=30
note_on channel=0 note=85 velocity=0 time=0
note_on channel=0 note=73 velocity=55 time=0
note_on channel=0 note=46 velocity=47 time=0
note_on channel=0 note=46 velocity=0 time=0
note_on channel=0 note=73 velocity=0 time=0
note_on channel=0 note=77 velocity=63 time=0
note_on channel=0 note=41 velocity=53 time=0
note_on channel=0 note=41 velocity=0 time=60
note_on channel=0 note=77 velocity=0 time=0
note_on channel=0 note=73 velocity=55 time=0
note_on channel=0 note=46 velocity=48 time=0
note_on channel=0 note=46 velocity=0 time=40
note_on channel=0 note=73 velocity=0 time=0
note_on channel=0 note=86 velocity=90 time=0
note_on channel=0 note=32 velocity=72 time=0
note_on channel=0 note=32 velocity=0 time=10
note_on channel=0 note=86 velocity=0 time=0
note_on channel=0 note=74 velocity=57 time=0
note_on channel=0 note=44 velocity=47 time=0
note_on channel=0 note=44 velocity=0 time=40
note_on channel=0 note=74 velocity=0 time=0
note_on channel=0 note=77 velocity=62 time=0
note_on channel=0 note=41 velocity=53 time=0
note_on channel=0 note=41 velocity=0 time=20
note_on channel=0 note=77 velocity=0 time=0
note_on channel=0 note=74 velocity=57 time=0
note_on channel=0 note=44 velocity=50 time=0
note_on channel=0 note=44 velocity=0 time=0
note_on channel=0 note=74 velocity=0 time=0
note_on channel=0 note=87 velocity=89 time=0
note_on channel=0 note=31 velocity=75 time=0
note_on channel=0 note=31 velocity=0 time=30
note_on channel=0 note=87 velocity=0 time=0
note_on channel=0 note=75 velocity=59 time=30
note_on channel=0 note=43 velocity=50 time=0
note_on channel=0 note=43 velocity=0 time=80
note_on channel=0 note=75 velocity=0 time=0
note_on channel=0 note=82 velocity=64 time=0
note_on channel=0 note=39 velocity=55 time=0
note_on channel=0 note=39 velocity=0 time=20
note_on channel=0 note=82 velocity=0 time=0
note_on channel=0 note=75 velocity=59 time=0
note_on channel=0 note=43 velocity=50 time=0
note_on channel=0 note=43 velocity=0 time=0
note_on channel=0 note=75 velocity=0 time=0
note_on channel=0 note=83 velocity=91 time=0
note_on channel=0 note=31 velocity=76 time=0
note_on channel=0 note=31 velocity=0 time=90
note_on channel=0 note=83 velocity=0 time=0
note_on channel=0 note=71 velocity=61 time=30
note_on channel=0 note=43 velocity=56 time=0
note_on channel=0 note=43 velocity=0 time=120
note_on channel=0 note=71 velocity=0 time=0
note_on channel=0 note=75 velocity=67 time=0
note_on channel=0 note=39 velocity=58 time=0
note_on channel=0 note=39 velocity=0 time=120
note_on channel=0 note=75 velocity=0 time=0
note_on channel=0 note=71 velocity=61 time=0
note_on channel=0 note=43 velocity=55 time=0
note_on channel=0 note=43 velocity=0 time=0
note_on channel=0 note=71 velocity=0 time=0
note_on channel=0 note=32 velocity=71 time=0
note_on channel=0 note=44 velocity=84 time=0
note_on channel=0 note=72 velocity=78 time=0
note_on channel=0 note=72 velocity=0 time=120
note_on channel=0 note=44 velocity=0 time=0
note_on channel=0 note=32 velocity=0 time=0
note_on channel=0 note=75 velocity=84 time=0
note_on channel=0 note=75 velocity=0 time=120
note_on channel=0 note=72 velocity=78 time=0
note_on channel=0 note=72 velocity=0 time=120
note_on channel=0 note=84 velocity=88 time=0
note_on channel=0 note=84 velocity=0 time=90
note_on channel=0 note=72 velocity=78 time=30
note_on channel=0 note=72 velocity=0 time=0
note_on channel=0 note=75 velocity=84 time=0
note_on channel=0 note=75 velocity=0 time=120
note_on channel=0 note=72 velocity=76 time=0
note_on channel=0 note=72 velocity=0 time=0
note_on channel=0 note=46 velocity=84 time=0
note_on channel=0 note=34 velocity=71 time=0
note_on channel=0 note=65 velocity=78 time=0
note_on channel=0 note=65 velocity=0 time=120
note_on channel=0 note=34 velocity=0 time=0
note_on channel=0 note=46 velocity=0 time=0
note_on channel=0 note=68 velocity=84 time=0
note_on channel=0 note=68 velocity=0 time=120
note_on channel=0 note=65 velocity=78 time=0
note_on channel=0 note=65 velocity=0 time=120
note_on channel=0 note=74 velocity=88 time=0
note_on channel=0 note=74 velocity=0 time=90
note_on channel=0 note=65 velocity=78 time=30
note_on channel=0 note=65 velocity=0 time=0
note_on channel=0 note=68 velocity=84 time=0
note_on channel=0 note=68 velocity=0 time=0
note_on channel=0 note=65 velocity=76 time=0
note_on channel=0 note=65 velocity=0 time=0
note_on channel=0 note=51 velocity=45 time=0
note_on channel=0 note=63 velocity=32 time=12
note_on channel=0 note=58 velocity=30 time=0
note_on channel=0 note=58 velocity=0 time=0
note_on channel=0 note=63 velocity=0 time=0
note_on channel=0 note=67 velocity=36 time=0
note_on channel=0 note=55 velocity=32 time=0
note_on channel=0 note=55 velocity=0 time=120
note_on channel=0 note=67 velocity=0 time=0
note_on channel=0 note=63 velocity=35 time=0
note_on channel=0 note=58 velocity=29 time=0
note_on channel=0 note=58 velocity=0 time=80
note_on channel=0 note=63 velocity=0 time=0
note_on channel=0 note=75 velocity=54 time=0
note_on channel=0 note=55 velocity=38 time=0
note_on channel=0 note=55 velocity=0 time=60
note_on channel=0 note=63 velocity=33 time=0
note_on channel=0 note=58 velocity=30 time=0
note_on channel=0 note=58 velocity=0 time=40
note_on channel=0 note=63 velocity=0 time=0
note_on channel=0 note=67 velocity=35 time=0
note_on channel=0 note=55 velocity=33 time=0
note_on channel=0 note=55 velocity=0 time=20
note_on channel=0 note=67 velocity=0 time=0
note_on channel=0 note=63 velocity=32 time=0
note_on channel=0 note=58 velocity=30 time=0
note_on channel=0 note=58 velocity=0 time=0
note_on channel=0 note=63 velocity=0 time=0
note_on channel=0 note=67 velocity=35 time=0
note_on channel=0 note=55 velocity=38 time=0
note_on channel=0 note=55 velocity=0 time=21
note_on channel=0 note=67 velocity=0 time=0
note_on channel=0 note=63 velocity=33 time=0
note_on channel=0 note=58 velocity=29 time=0
note_on channel=0 note=58 velocity=0 time=120
note_on channel=0 note=63 velocity=0 time=0
note_on channel=0 note=67 velocity=35 time=0
note_on channel=0 note=55 velocity=32 time=0
note_on channel=0 note=55 velocity=0 time=120
note_on channel=0 note=67 velocity=0 time=0
note_on channel=0 note=63 velocity=32 time=0
note_on channel=0 note=58 velocity=29 time=0
note_on channel=0 note=58 velocity=0 time=120
note_on channel=0 note=51 velocity=0 time=0
note_on channel=0 note=75 velocity=0 time=0
note_on channel=0 note=63 velocity=0 time=0
note_on channel=0 note=75 velocity=53 time=0
note_on channel=0 note=51 velocity=38 time=0
note_on channel=0 note=63 velocity=32 time=120
note_on channel=0 note=58 velocity=30 time=0
note_on channel=0 note=58 velocity=0 time=120
note_on channel=0 note=63 velocity=0 time=0
note_on channel=0 note=67 velocity=35 time=0
note_on channel=0 note=55 velocity=33 time=0
note_on channel=0 note=55 velocity=0 time=120
note_on channel=0 note=67 velocity=0 time=0
note_on channel=0 note=63 velocity=33 time=0
note_on channel=0 note=58 velocity=29 time=0
note_on channel=0 note=58 velocity=0 time=0
note_on channel=0 note=75 velocity=0 time=0
note_on channel=0 note=51 velocity=0 time=0
note_on channel=0 note=63 velocity=0 time=0
note_on channel=0 note=49 velocity=45 time=0
note_on channel=0 note=63 velocity=32 time=19
note_on channel=0 note=58 velocity=30 time=0
note_on channel=0 note=58 velocity=0 time=20
note_on channel=0 note=63 velocity=0 time=0
note_on channel=0 note=67 velocity=36 time=0
note_on channel=0 note=55 velocity=32 time=0
note_on channel=0 note=55 velocity=0 time=120
note_on channel=0 note=67 velocity=0 time=0
note_on channel=0 note=63 velocity=35 time=0
note_on channel=0 note=58 velocity=29 time=0
note_on channel=0 note=58 velocity=0 time=0
note_on channel=0 note=63 velocity=0 time=0
note_on channel=0 note=75 velocity=54 time=0
note_on channel=0 note=55 velocity=38 time=0
note_on channel=0 note=55 velocity=0 time=120
note_on channel=0 note=63 velocity=33 time=0
note_on channel=0 note=58 velocity=30 time=0
note_on channel=0 note=58 velocity=0 time=0
note_on channel=0 note=63 velocity=0 time=0
note_on channel=0 note=67 velocity=35 time=0
note_on channel=0 note=55 velocity=33 time=0
note_on channel=0 note=55 velocity=0 time=120
note_on channel=0 note=67 velocity=0 time=0
note_on channel=0 note=63 velocity=32 time=0
note_on channel=0 note=58 velocity=30 time=0
note_on channel=0 note=58 velocity=0 time=0
note_on channel=0 note=63 velocity=0 time=0
note_on channel=0 note=67 velocity=35 time=0
note_on channel=0 note=55 velocity=38 time=0
note_on channel=0 note=55 velocity=0 time=28
note_on channel=0 note=67 velocity=0 time=0
note_on channel=0 note=63 velocity=33 time=0
note_on channel=0 note=58 velocity=29 time=0
note_on channel=0 note=58 velocity=0 time=120
note_on channel=0 note=63 velocity=0 time=0
note_on channel=0 note=67 velocity=35 time=0
note_on channel=0 note=55 velocity=32 time=0
note_on channel=0 note=55 velocity=0 time=120
note_on channel=0 note=67 velocity=0 time=0
note_on channel=0 note=63 velocity=32 time=0
note_on channel=0 note=58 velocity=29 time=0
note_on channel=0 note=58 velocity=0 time=120
note_on channel=0 note=49 velocity=0 time=0
note_on channel=0 note=75 velocity=0 time=0
note_on channel=0 note=63 velocity=0 time=0
note_on channel=0 note=75 velocity=53 time=0
note_on channel=0 note=49 velocity=38 time=0
note_on channel=0 note=63 velocity=32 time=120
note_on channel=0 note=58 velocity=30 time=0
note_on channel=0 note=58 velocity=0 time=120
note_on channel=0 note=63 velocity=0 time=0
note_on channel=0 note=67 velocity=35 time=0
note_on channel=0 note=55 velocity=33 time=0
note_on channel=0 note=55 velocity=0 time=0
note_on channel=0 note=67 velocity=0 time=0
note_on channel=0 note=63 velocity=33 time=0
note_on channel=0 note=58 velocity=29 time=0
note_on channel=0 note=58 velocity=0 time=0
note_on channel=0 note=75 velocity=0 time=0
note_on channel=0 note=49 velocity=0 time=0
note_on channel=0 note=63 velocity=0 time=0
note_on channel=0 note=75 velocity=66 time=0
note_on channel=0 note=48 velocity=55 time=0
note_on channel=0 note=48 velocity=0 time=74
note_on channel=0 note=75 velocity=0 time=0
note_on channel=0 note=63 velocity=41 time=30
note_on channel=0 note=56 velocity=36 time=0
note_on channel=0 note=56 velocity=0 time=40
note_on channel=0 note=63 velocity=0 time=0
note_on channel=0 note=68 velocity=45 time=0
note_on channel=0 note=51 velocity=39 time=0
note_on channel=0 note=51 velocity=0 time=120
note_on channel=0 note=68 velocity=0 time=0
note_on channel=0 note=63 velocity=42 time=0
note_on channel=0 note=56 velocity=35 time=0
note_on channel=0 note=56 velocity=0 time=80
note_on channel=0 note=63 velocity=0 time=0
note_on channel=0 note=76 velocity=67 time=0
note_on channel=0 note=46 velocity=56 time=0
note_on channel=0 note=46 velocity=0 time=90
note_on channel=0 note=76 velocity=0 time=0
note_on channel=0 note=64 velocity=43 time=20
note_on channel=0 note=55 velocity=36 time=0
note_on channel=0 note=55 velocity=0 time=120
note_on channel=0 note=64 velocity=0 time=0
note_on channel=0 note=72 velocity=47 time=0
note_on channel=0 note=48 velocity=43 time=0
note_on channel=0 note=48 velocity=0 time=60
note_on channel=0 note=72 velocity=0 time=0
note_on channel=0 note=64 velocity=43 time=0
note_on channel=0 note=55 velocity=41 time=0
note_on channel=0 note=55 velocity=0 time=0
note_on channel=0 note=64 velocity=0 time=0
note_on channel=0 note=77 velocity=71 time=0
note_on channel=0 note=44 velocity=58 time=0
note_on channel=0 note=44 velocity=0 time=90
note_on channel=0 note=77 velocity=0 time=0
note_on channel=0 note=65 velocity=45 time=30
note_on channel=0 note=56 velocity=38 time=0
note_on channel=0 note=56 velocity=0 time=120
note_on channel=0 note=65 velocity=0 time=0
note_on channel=0 note=72 velocity=50 time=0
note_on channel=0 note=48 velocity=43 time=0
note_on channel=0 note=48 velocity=0 time=120
note_on channel=0 note=72 velocity=0 time=0
note_on channel=0 note=65 velocity=45 time=0
note_on channel=0 note=56 velocity=38 time=0
note_on channel=0 note=56 velocity=0 time=120
note_on channel=0 note=65 velocity=0 time=0
note_on channel=0 note=79 velocity=72 time=0
note_on channel=0 note=43 velocity=60 time=0
note_on channel=0 note=43 velocity=0 time=90
note_on channel=0 note=79 velocity=0 time=0
note_on channel=0 note=67 velocity=47 time=30
note_on channel=0 note=55 velocity=40 time=0
note_on channel=0 note=55 velocity=0 time=120
note_on channel=0 note=67 velocity=0 time=0
note_on channel=0 note=72 velocity=50 time=0
note_on channel=0 note=48 velocity=43 time=0
note_on channel=0 note=48 velocity=0 time=120
note_on channel=0 note=72 velocity=0 time=0
note_on channel=0 note=67 velocity=47 time=0
note_on channel=0 note=55 velocity=38 time=0
note_on channel=0 note=55 velocity=0 time=0
note_on channel=0 note=67 velocity=0 time=0
note_on channel=0 note=80 velocity=74 time=0
note_on channel=0 note=41 velocity=63 time=0
note_on channel=0 note=41 velocity=0 time=30
note_on channel=0 note=80 velocity=0 time=0
note_on channel=0 note=68 velocity=49 time=20
note_on channel=0 note=53 velocity=42 time=0
note_on channel=0 note=53 velocity=0 time=0
note_on channel=0 note=68 velocity=0 time=0
note_on channel=0 note=72 velocity=54 time=0
note_on channel=0 note=48 velocity=45 time=0
note_on channel=0 note=48 velocity=0 time=20
note_on channel=0 note=72 velocity=0 time=0
note_on channel=0 note=68 velocity=49 time=0
note_on channel=0 note=53 velocity=42 time=0
note_on channel=0 note=53 velocity=0 time=0
note_on channel=0 note=68 velocity=0 time=0
note_on channel=0 note=81 velocity=80 time=0
note_on channel=0 note=39 velocity=66 time=0
note_on channel=0 note=39 velocity=0 time=10
note_on channel=0 note=81 velocity=0 time=0
note_on channel=0 note=69 velocity=50 time=0
note_on channel=0 note=51 velocity=41 time=0
note_on channel=0 note=51 velocity=0 time=40
note_on channel=0 note=69 velocity=0 time=0
note_on channel=0 note=72 velocity=55 time=0
note_on channel=0 note=41 velocity=47 time=0
note_on channel=0 note=41 velocity=0 time=40
note_on channel=0 note=72 velocity=0 time=0
note_on channel=0 note=69 velocity=51 time=0
note_on channel=0 note=51 velocity=41 time=0
note_on channel=0 note=51 velocity=0 time=0
note_on channel=0 note=69 velocity=0 time=0
note_on channel=0 note=82 velocity=84 time=0
note_on channel=0 note=38 velocity=68 time=0
note_on channel=0 note=38 velocity=0 time=30
note_on channel=0 note=82 velocity=0 time=0
note_on channel=0 note=70 velocity=51 time=0
note_on channel=0 note=50 velocity=45 time=0
note_on channel=0 note=50 velocity=0 time=0
note_on channel=0 note=70 velocity=0 time=0
note_on channel=0 note=77 velocity=58 time=0
note_on channel=0 note=41 velocity=49 time=0
note_on channel=0 note=41 velocity=0 time=0
note_on channel=0 note=77 velocity=0 time=0
note_on channel=0 note=70 velocity=53 time=0
note_on channel=0 note=50 velocity=43 time=0
note_on channel=0 note=50 velocity=0 time=20
note_on channel=0 note=70 velocity=0 time=0
note_on channel=0 note=84 velocity=85 time=0
note_on channel=0 note=36 velocity=70 time=0
note_on channel=0 note=36 velocity=0 time=10
note_on channel=0 note=84 velocity=0 time=0
note_on channel=0 note=72 velocity=53 time=30
note_on channel=0 note=48 velocity=45 time=0
note_on channel=0 note=48 velocity=0 time=0
note_on channel=0 note=72 velocity=0 time=0
note_on channel=0 note=77 velocity=58 time=0
note_on channel=0 note=41 velocity=51 time=0
note_on channel=0 note=41 velocity=0 time=0
note_on channel=0 note=77 velocity=0 time=0
note_on channel=0 note=72 velocity=54 time=0
note_on channel=0 note=48 velocity=43 time=0
note_on channel=0 note=48 velocity=0 time=40
note_on channel=0 note=72 velocity=0 time=0
note_on channel=0 note=85 velocity=85 time=0
note_on channel=0 note=34 velocity=70 time=0
note_on channel=0 note=34 velocity=0 time=10
note_on channel=0 note=85 velocity=0 time=0
note_on channel=0 note=73 velocity=55 time=20
note_on channel=0 note=46 velocity=47 time=0
note_on channel=0 note=46 velocity=0 time=0
note_on channel=0 note=73 velocity=0 time=0
note_on channel=0 note=77 velocity=63 time=0
note_on channel=0 note=41 velocity=53 time=0
note_on channel=0 note=41 velocity=0 time=20
note_on channel=0 note=77 velocity=0 time=0
note_on channel=0 note=73 velocity=55 time=0
note_on channel=0 note=46 velocity=48 time=0
note_on channel=0 note=46 velocity=0 time=0
note_on channel=0 note=73 velocity=0 time=0
note_on channel=0 note=86 velocity=90 time=0
note_on channel=0 note=32 velocity=72 time=0
note_on channel=0 note=32 velocity=0 time=10
note_on channel=0 note=86 velocity=0 time=0
note_on channel=0 note=74 velocity=57 time=0
note_on channel=0 note=44 velocity=47 time=0
note_on channel=0 note=44 velocity=0 time=20
note_on channel=0 note=74 velocity=0 time=0
note_on channel=0 note=77 velocity=62 time=0
note_on channel=0 note=41 velocity=53 time=0
note_on channel=0 note=41 velocity=0 time=0
note_on channel=0 note=77 velocity=0 time=0
note_on channel=0 note=74 velocity=57 time=0
note_on channel=0 note=44 velocity=50 time=0
note_on channel=0 note=44 velocity=0 time=40
note_on channel=0 note=74 velocity=0 time=0
note_on channel=0 note=87 velocity=89 time=0
note_on channel=0 note=31 velocity=75 time=0
note_on channel=0 note=31 velocity=0 time=10
note_on channel=0 note=87 velocity=0 time=0
note_on channel=0 note=75 velocity=59 time=0
note_on channel=0 note=43 velocity=50 time=0
note_on channel=0 note=43 velocity=0 time=20
note_on channel=0 note=75 velocity=0 time=0
note_on channel=0 note=82 velocity=64 time=0
note_on channel=0 note=39 velocity=55 time=0
note_on channel=0 note=39 velocity=0 time=0
note_on channel=0 note=82 velocity=0 time=0
note_on channel=0 note=75 velocity=59 time=0
note_on channel=0 note=43 velocity=50 time=0
note_on channel=0 note=43 velocity=0 time=0
note_on channel=0 note=75 velocity=0 time=0
note_on channel=0 note=88 velocity=91 time=0
note_on channel=0 note=31 velocity=76 time=0
note_on channel=0 note=31 velocity=0 time=90
note_on channel=0 note=88 velocity=0 time=0
note_on channel=0 note=76 velocity=61 time=30
note_on channel=0 note=43 velocity=56 time=0
note_on channel=0 note=43 velocity=0 time=120
note_on channel=0 note=76 velocity=0 time=0
note_on channel=0 note=82 velocity=67 time=0
note_on channel=0 note=31 velocity=58 time=0
note_on channel=0 note=31 velocity=0 time=120
note_on channel=0 note=82 velocity=0 time=0
note_on channel=0 note=76 velocity=61 time=0
note_on channel=0 note=43 velocity=55 time=0
note_on channel=0 note=43 velocity=0 time=0
note_on channel=0 note=76 velocity=0 time=0
note_on channel=0 note=32 velocity=71 time=0
note_on channel=0 note=44 velocity=84 time=0
note_on channel=0 note=80 velocity=78 time=0
note_on channel=0 note=80 velocity=0 time=120
note_on channel=0 note=44 velocity=0 time=0
note_on channel=0 note=32 velocity=0 time=0
note_on channel=0 note=84 velocity=84 time=0
note_on channel=0 note=84 velocity=0 time=120
note_on channel=0 note=80 velocity=78 time=0
note_on channel=0 note=80 velocity=0 time=120
note_on channel=0 note=89 velocity=88 time=0
note_on channel=0 note=89 velocity=0 time=90
note_on channel=0 note=80 velocity=78 time=30
note_on channel=0 note=80 velocity=0 time=0
note_on channel=0 note=84 velocity=84 time=0
note_on channel=0 note=84 velocity=0 time=120
note_on channel=0 note=80 velocity=76 time=0
note_on channel=0 note=80 velocity=0 time=0
note_on channel=0 note=46 velocity=84 time=0
note_on channel=0 note=34 velocity=71 time=0
note_on channel=0 note=77 velocity=78 time=0
note_on channel=0 note=77 velocity=0 time=120
note_on channel=0 note=34 velocity=0 time=0
note_on channel=0 note=46 velocity=0 time=0
note_on channel=0 note=80 velocity=84 time=0
note_on channel=0 note=80 velocity=0 time=120
note_on channel=0 note=77 velocity=78 time=0
note_on channel=0 note=77 velocity=0 time=120
note_on channel=0 note=86 velocity=88 time=0
note_on channel=0 note=86 velocity=0 time=90
note_on channel=0 note=77 velocity=78 time=30
note_on channel=0 note=77 velocity=0 time=0
note_on channel=0 note=80 velocity=84 time=0
note_on channel=0 note=80 velocity=0 time=120
note_on channel=0 note=77 velocity=76 time=0
note_on channel=0 note=77 velocity=0 time=0
note_on channel=0 note=79 velocity=81 time=0
note_on channel=0 note=39 velocity=84 time=0
note_on channel=0 note=51 velocity=84 time=0
note_on channel=0 note=79 velocity=0 time=74
note_on channel=0 note=51 velocity=0 time=0
note_on channel=0 note=39 velocity=0 time=0
note_on channel=0 note=87 velocity=64 time=0
note_on channel=0 note=63 velocity=34 time=0
note_on channel=0 note=67 velocity=34 time=0
note_on channel=0 note=67 velocity=0 time=136
note_on channel=0 note=63 velocity=0 time=0
note_on channel=0 note=63 velocity=34 time=12
note_on channel=0 note=67 velocity=34 time=0
note_on channel=0 note=67 velocity=0 time=8
note_on channel=0 note=63 velocity=0 time=0
note_on channel=0 note=87 velocity=0 time=12
note_on channel=0 note=86 velocity=46 time=0
note_on channel=0 note=63 velocity=34 time=0
note_on channel=0 note=67 velocity=34 time=0
note_on channel=0 note=86 velocity=0 time=0
note_on channel=0 note=87 velocity=48 time=0
note_on channel=0 note=67 velocity=0 time=8
note_on channel=0 note=63 velocity=0 time=0
note_on channel=0 note=87 velocity=0 time=12
note_on channel=0 note=89 velocity=49 time=0
note_on channel=0 note=60 velocity=34 time=0
note_on channel=0 note=89 velocity=0 time=0
note_on channel=0 note=87 velocity=49 time=0
note_on channel=0 note=87 velocity=0 time=0
note_on channel=0 note=86 velocity=48 time=0
note_on channel=0 note=63 velocity=34 time=0
note_on channel=0 note=67 velocity=34 time=0
note_on channel=0 note=86 velocity=0 time=100
note_on channel=0 note=84 velocity=47 time=0
note_on channel=0 note=67 velocity=0 time=108
note_on channel=0 note=63 velocity=0 time=0
note_on channel=0 note=84 velocity=0 time=12
note_on channel=0 note=83 velocity=45 time=0
note_on channel=0 note=63 velocity=34 time=0
note_on channel=0 note=67 velocity=34 time=0
note_on channel=0 note=83 velocity=0 time=120
note_on channel=0 note=84 velocity=46 time=0
note_on channel=0 note=67 velocity=0 time=108
note_on channel=0 note=63 velocity=0 time=0
note_on channel=0 note=84 velocity=0 time=0
note_on channel=0 note=86 velocity=49 time=0
note_on channel=0 note=63 velocity=34 time=0
note_on channel=0 note=67 velocity=34 time=0
note_on channel=0 note=86 velocity=0 time=0
note_on channel=0 note=84 velocity=47 time=0
note_on channel=0 note=67 velocity=0 time=8
note_on channel=0 note=63 velocity=0 time=0
note_on channel=0 note=60 velocity=0 time=12
note_on channel=0 note=84 velocity=0 time=0
note_on channel=0 note=82 velocity=49 time=0
note_on channel=0 note=56 velocity=34 time=0
note_on channel=0 note=82 velocity=0 time=20
note_on channel=0 note=80 velocity=47 time=0
note_on channel=0 note=80 velocity=0 time=0
note_on channel=0 note=79 velocity=46 time=0
note_on channel=0 note=65 velocity=34 time=0
note_on channel=0 note=63 velocity=34 time=0
note_on channel=0 note=79 velocity=0 time=120
note_on channel=0 note=77 velocity=45 time=0
note_on channel=0 note=63 velocity=0 time=108
note_on channel=0 note=65 velocity=0 time=0
note_on channel=0 note=77 velocity=0 time=12
note_on channel=0 note=76 velocity=45 time=0
note_on channel=0 note=63 velocity=34 time=0
note_on channel=0 note=65 velocity=34 time=0
note_on channel=0 note=76 velocity=0 time=120
note_on channel=0 note=77 velocity=45 time=0
note_on channel=0 note=65 velocity=0 time=8
note_on channel=0 note=63 velocity=0 time=0
note_on channel=0 note=77 velocity=0 time=12
note_on channel=0 note=79 velocity=47 time=0
note_on channel=0 note=63 velocity=34 time=0
note_on channel=0 note=65 velocity=34 time=0
note_on channel=0 note=79 velocity=0 time=20
note_on channel=0 note=77 velocity=45 time=0
note_on channel=0 note=65 velocity=0 time=8
note_on channel=0 note=63 velocity=0 time=0
note_on channel=0 note=56 velocity=0 time=0
note_on channel=0 note=77 velocity=0 time=0
note_on channel=0 note=75 velocity=46 time=0
note_on channel=0 note=58 velocity=34 time=0
note_on channel=0 note=75 velocity=0 time=20
note_on channel=0 note=74 velocity=46 time=0
note_on channel=0 note=74 velocity=0 time=20
note_on channel=0 note=72 velocity=45 time=0
note_on channel=0 note=62 velocity=34 time=0
note_on channel=0 note=65 velocity=34 time=0
note_on channel=0 note=72 velocity=0 time=120
note_on channel=0 note=70 velocity=45 time=0
note_on channel=0 note=65 velocity=0 time=108
note_on channel=0 note=62 velocity=0 time=0
note_on channel=0 note=70 velocity=0 time=12
note_on channel=0 note=69 velocity=45 time=0
note_on channel=0 note=62 velocity=34 time=0
note_on channel=0 note=65 velocity=34 time=0
note_on channel=0 note=69 velocity=0 time=120
note_on channel=0 note=70 velocity=42 time=0
note_on channel=0 note=65 velocity=0 time=108
note_on channel=0 note=62 velocity=0 time=0
note_on channel=0 note=70 velocity=0 time=12
note_on channel=0 note=72 velocity=46 time=0
note_on channel=0 note=62 velocity=34 time=0
note_on channel=0 note=65 velocity=34 time=0
note_on channel=0 note=72 velocity=0 time=120
note_on channel=0 note=68 velocity=42 time=0
note_on channel=0 note=65 velocity=0 time=108
note_on channel=0 note=62 velocity=0 time=0
note_on channel=0 note=58 velocity=0 time=0
note_on channel=0 note=68 velocity=0 time=0
note_on channel=0 note=67 velocity=66 time=0
note_on channel=0 note=51 velocity=59 time=0
note_on channel=0 note=67 velocity=0 time=77
note_on channel=0 note=75 velocity=68 time=0
note_on channel=0 note=87 velocity=68 time=0
note_on channel=0 note=55 velocity=44 time=0
note_on channel=0 note=63 velocity=44 time=0
note_on channel=0 note=63 velocity=0 time=122
note_on channel=0 note=55 velocity=0 time=0
note_on channel=0 note=55 velocity=44 time=12
note_on channel=0 note=63 velocity=44 time=0
note_on channel=0 note=63 velocity=0 time=8
note_on channel=0 note=55 velocity=0 time=0
note_on channel=0 note=87 velocity=0 time=12
note_on channel=0 note=75 velocity=0 time=0
note_on channel=0 note=86 velocity=61 time=0
note_on channel=0 note=55 velocity=44 time=0
note_on channel=0 note=63 velocity=44 time=0
note_on channel=0 note=86 velocity=0 time=0
note_on channel=0 note=87 velocity=64 time=0
note_on channel=0 note=63 velocity=0 time=8
note_on channel=0 note=55 velocity=0 time=0
note_on channel=0 note=51 velocity=0 time=12
note_on channel=0 note=87 velocity=0 time=0
note_on channel=0 note=89 velocity=66 time=0
note_on channel=0 note=48 velocity=45 time=0
note_on channel=0 note=89 velocity=0 time=0
note_on channel=0 note=87 velocity=66 time=0
note_on channel=0 note=87 velocity=0 time=0
note_on channel=0 note=86 velocity=65 time=0
note_on channel=0 note=55 velocity=46 time=0
note_on channel=0 note=51 velocity=46 time=0
note_on channel=0 note=60 velocity=46 time=0
note_on channel=0 note=86 velocity=0 time=100
note_on channel=0 note=84 velocity=64 time=0
note_on channel=0 note=51 velocity=0 time=108
note_on channel=0 note=60 velocity=0 time=0
note_on channel=0 note=55 velocity=0 time=0
note_on channel=0 note=84 velocity=0 time=12
note_on channel=0 note=83 velocity=62 time=0
note_on channel=0 note=55 velocity=46 time=0
note_on channel=0 note=51 velocity=46 time=0
note_on channel=0 note=60 velocity=46 time=0
note_on channel=0 note=83 velocity=0 time=120
note_on channel=0 note=84 velocity=64 time=0
note_on channel=0 note=51 velocity=0 time=108
note_on channel=0 note=60 velocity=0 time=0
note_on channel=0 note=55 velocity=0 time=0
note_on channel=0 note=84 velocity=0 time=0
note_on channel=0 note=86 velocity=68 time=0
note_on channel=0 note=55 velocity=47 time=0
note_on channel=0 note=51 velocity=47 time=0
note_on channel=0 note=60 velocity=47 time=0
note_on channel=0 note=86 velocity=0 time=0
note_on channel=0 note=84 velocity=66 time=0
note_on channel=0 note=51 velocity=0 time=8
note_on channel=0 note=60 velocity=0 time=0
note_on channel=0 note=55 velocity=0 time=0
note_on channel=0 note=48 velocity=0 time=12
note_on channel=0 note=84 velocity=0 time=0
note_on channel=0 note=82 velocity=69 time=0
note_on channel=0 note=44 velocity=47 time=0
note_on channel=0 note=82 velocity=0 time=20
note_on channel=0 note=80 velocity=67 time=0
note_on channel=0 note=80 velocity=0 time=0
note_on channel=0 note=79 velocity=66 time=0
note_on channel=0 note=53 velocity=48 time=0
note_on channel=0 note=56 velocity=48 time=0
note_on channel=0 note=51 velocity=48 time=0
note_on channel=0 note=79 velocity=0 time=120
note_on channel=0 note=77 velocity=65 time=0
note_on channel=0 note=56 velocity=0 time=108
note_on channel=0 note=51 velocity=0 time=0
note_on channel=0 note=53 velocity=0 time=0
note_on channel=0 note=77 velocity=0 time=12
note_on channel=0 note=76 velocity=65 time=0
note_on channel=0 note=53 velocity=48 time=0
note_on channel=0 note=51 velocity=48 time=0
note_on channel=0 note=56 velocity=48 time=0
note_on channel=0 note=76 velocity=0 time=120
note_on channel=0 note=77 velocity=64 time=0
note_on channel=0 note=51 velocity=0 time=8
note_on channel=0 note=56 velocity=0 time=0
note_on channel=0 note=53 velocity=0 time=0
note_on channel=0 note=77 velocity=0 time=12
note_on channel=0 note=79 velocity=68 time=0
note_on channel=0 note=53 velocity=49 time=0
note_on channel=0 note=51 velocity=49 time=0
note_on channel=0 note=56 velocity=49 time=0
note_on channel=0 note=79 velocity=0 time=20
note_on channel=0 note=77 velocity=66 time=0
note_on channel=0 note=51 velocity=0 time=8
note_on channel=0 note=56 velocity=0 time=0
note_on channel=0 note=53 velocity=0 time=0
note_on channel=0 note=44 velocity=0 time=0
note_on channel=0 note=77 velocity=0 time=0
note_on channel=0 note=75 velocity=68 time=0
note_on channel=0 note=46 velocity=49 time=0
note_on channel=0 note=75 velocity=0 time=20
note_on channel=0 note=74 velocity=68 time=0
note_on channel=0 note=74 velocity=0 time=20
note_on channel=0 note=72 velocity=68 time=0
note_on channel=0 note=53 velocity=50 time=0
note_on channel=0 note=50 velocity=50 time=0
note_on channel=0 note=58 velocity=50 time=0
note_on channel=0 note=72 velocity=0 time=120
note_on channel=0 note=70 velocity=68 time=0
note_on channel=0 note=50 velocity=0 time=108
note_on channel=0 note=58 velocity=0 time=0
note_on channel=0 note=53 velocity=0 time=0
note_on channel=0 note=70 velocity=0 time=12
note_on channel=0 note=69 velocity=67 time=0
note_on channel=0 note=53 velocity=50 time=0
note_on channel=0 note=50 velocity=50 time=0
note_on channel=0 note=58 velocity=50 time=0
note_on channel=0 note=69 velocity=0 time=120
note_on channel=0 note=70 velocity=64 time=0
note_on channel=0 note=50 velocity=0 time=8
note_on channel=0 note=58 velocity=0 time=0
note_on channel=0 note=53 velocity=0 time=0
note_on channel=0 note=70 velocity=0 time=0
note_on channel=0 note=72 velocity=70 time=0
note_on channel=0 note=53 velocity=51 time=0
note_on channel=0 note=50 velocity=51 time=0
note_on channel=0 note=58 velocity=51 time=0
note_on channel=0 note=72 velocity=0 time=0
note_on channel=0 note=70 velocity=64 time=0
note_on channel=0 note=50 velocity=0 time=8
note_on channel=0 note=58 velocity=0 time=0
note_on channel=0 note=53 velocity=0 time=0
note_on channel=0 note=46 velocity=0 time=0
note_on channel=0 note=70 velocity=0 time=0
note_on channel=0 note=75 velocity=83 time=0
note_on channel=0 note=39 velocity=67 time=0
note_on channel=0 note=75 velocity=0 time=107
note_on channel=0 note=51 velocity=60 time=0
note_on channel=0 note=39 velocity=0 time=108
note_on channel=0 note=51 velocity=0 time=0
note_on channel=0 note=63 velocity=82 time=0
note_on channel=0 note=39 velocity=67 time=0
note_on channel=0 note=51 velocity=59 time=120
note_on channel=0 note=39 velocity=0 time=108
note_on channel=0 note=51 velocity=0 time=0
note_on channel=0 note=39 velocity=67 time=0
note_on channel=0 note=51 velocity=60 time=120
note_on channel=0 note=39 velocity=0 time=108
note_on channel=0 note=51 velocity=0 time=0
note_on channel=0 note=63 velocity=0 time=0
note_on channel=0 note=61 velocity=80 time=0
note_on channel=0 note=67 velocity=80 time=0
note_on channel=0 note=39 velocity=66 time=0
note_on channel=0 note=67 velocity=0 time=120
note_on channel=0 note=61 velocity=0 time=0
note_on channel=0 note=51 velocity=60 time=0
note_on channel=0 note=39 velocity=0 time=108
note_on channel=0 note=51 velocity=0 time=12
note_on channel=0 note=60 velocity=81 time=0
note_on channel=0 note=68 velocity=81 time=0
note_on channel=0 note=39 velocity=66 time=0
note_on channel=0 note=68 velocity=0 time=120
note_on channel=0 note=60 velocity=0 time=0
note_on channel=0 note=51 velocity=59 time=0
note_on channel=0 note=39 velocity=0 time=108
note_on channel=0 note=51 velocity=0 time=12
note_on channel=0 note=67 velocity=82 time=0
note_on channel=0 note=70 velocity=82 time=0
note_on channel=0 note=39 velocity=66 time=0
note_on channel=0 note=70 velocity=0 time=120
note_on channel=0 note=67 velocity=0 time=0
note_on channel=0 note=51 velocity=60 time=0
note_on channel=0 note=39 velocity=0 time=108
note_on channel=0 note=51 velocity=0 time=12
note_on channel=0 note=68 velocity=83 time=0
note_on channel=0 note=72 velocity=83 time=0
note_on channel=0 note=39 velocity=66 time=0
note_on channel=0 note=72 velocity=0 time=120
note_on channel=0 note=68 velocity=0 time=0
note_on channel=0 note=51 velocity=60 time=0
note_on channel=0 note=39 velocity=0 time=108
note_on channel=0 note=51 velocity=0 time=12
note_on channel=0 note=68 velocity=85 time=0
note_on channel=0 note=74 velocity=85 time=0
note_on channel=0 note=39 velocity=66 time=0
note_on channel=0 note=74 velocity=0 time=120
note_on channel=0 note=68 velocity=0 time=0
note_on channel=0 note=51 velocity=61 time=0
note_on channel=0 note=39 velocity=0 time=108
note_on channel=0 note=51 velocity=0 time=0
note_on channel=0 note=67 velocity=83 time=0
note_on channel=0 note=75 velocity=83 time=0
note_on channel=0 note=39 velocity=67 time=0
note_on channel=0 note=75 velocity=0 time=120
note_on channel=0 note=67 velocity=0 time=0
note_on channel=0 note=51 velocity=60 time=0
note_on channel=0 note=39 velocity=0 time=108
note_on channel=0 note=51 velocity=0 time=0
note_on channel=0 note=75 velocity=82 time=0
note_on channel=0 note=39 velocity=67 time=0
note_on channel=0 note=51 velocity=59 time=120
note_on channel=0 note=39 velocity=0 time=108
note_on channel=0 note=51 velocity=0 time=0
note_on channel=0 note=39 velocity=67 time=0
note_on channel=0 note=51 velocity=60 time=120
note_on channel=0 note=39 velocity=0 time=108
note_on channel=0 note=51 velocity=0 time=0
note_on channel=0 note=75 velocity=0 time=0
note_on channel=0 note=73 velocity=80 time=0
note_on channel=0 note=79 velocity=80 time=0
note_on channel=0 note=39 velocity=66 time=0
note_on channel=0 note=79 velocity=0 time=120
note_on channel=0 note=73 velocity=0 time=0
note_on channel=0 note=51 velocity=60 time=0
note_on channel=0 note=39 velocity=0 time=108
note_on channel=0 note=51 velocity=0 time=12
note_on channel=0 note=72 velocity=81 time=0
note_on channel=0 note=80 velocity=81 time=0
note_on channel=0 note=39 velocity=66 time=0
note_on channel=0 note=80 velocity=0 time=120
note_on channel=0 note=72 velocity=0 time=0
note_on channel=0 note=51 velocity=59 time=0
note_on channel=0 note=39 velocity=0 time=108
note_on channel=0 note=51 velocity=0 time=12
note_on channel=0 note=79 velocity=82 time=0
note_on channel=0 note=82 velocity=82 time=0
note_on channel=0 note=39 velocity=66 time=0
note_on channel=0 note=82 velocity=0 time=120
note_on channel=0 note=79 velocity=0 time=0
note_on channel=0 note=51 velocity=60 time=0
note_on channel=0 note=39 velocity=0 time=108
note_on channel=0 note=51 velocity=0 time=12
note_on channel=0 note=80 velocity=83 time=0
note_on channel=0 note=84 velocity=83 time=0
note_on channel=0 note=39 velocity=66 time=0
note_on channel=0 note=84 velocity=0 time=120
note_on channel=0 note=80 velocity=0 time=0
note_on channel=0 note=51 velocity=60 time=0
note_on channel=0 note=39 velocity=0 time=108
note_on channel=0 note=51 velocity=0 time=0
note_on channel=0 note=80 velocity=85 time=0
note_on channel=0 note=86 velocity=85 time=0
note_on channel=0 note=39 velocity=66 time=0
note_on channel=0 note=86 velocity=0 time=120
note_on channel=0 note=80 velocity=0 time=0
note_on channel=0 note=51 velocity=61 time=0
note_on channel=0 note=39 velocity=0 time=108
note_on channel=0 note=51 velocity=0 time=0
note_on channel=0 note=87 velocity=94 time=0
note_on channel=0 note=79 velocity=94 time=0
note_on channel=0 note=39 velocity=66 time=0
note_on channel=0 note=51 velocity=59 time=120
note_on channel=0 note=39 velocity=0 time=108
note_on channel=0 note=51 velocity=0 time=12
note_on channel=0 note=39 velocity=66 time=0
note_on channel=0 note=51 velocity=60 time=120
note_on channel=0 note=39 velocity=0 time=108
note_on channel=0 note=51 velocity=0 time=12
note_on channel=0 note=39 velocity=66 time=0
note_on channel=0 note=51 velocity=60 time=120
note_on channel=0 note=39 velocity=0 time=108
note_on channel=0 note=51 velocity=0 time=12
note_on channel=0 note=39 velocity=66 time=0
note_on channel=0 note=51 velocity=61 time=120
note_on channel=0 note=39 velocity=0 time=108
note_on channel=0 note=87 velocity=0 time=0
note_on channel=0 note=79 velocity=0 time=0
note_on channel=0 note=51 velocity=0 time=0
note_on channel=0 note=67 velocity=88 time=0
note_on channel=0 note=75 velocity=88 time=0
note_on channel=0 note=38 velocity=66 time=0
note_on channel=0 note=50 velocity=59 time=120
note_on channel=0 note=38 velocity=0 time=108
note_on channel=0 note=50 velocity=0 time=12
note_on channel=0 note=38 velocity=66 time=0
note_on channel=0 note=50 velocity=60 time=120
note_on channel=0 note=38 velocity=0 time=108
note_on channel=0 note=50 velocity=0 time=12
note_on channel=0 note=38 velocity=66 time=0
note_on channel=0 note=50 velocity=60 time=120
note_on channel=0 note=38 velocity=0 time=108
note_on channel=0 note=50 velocity=0 time=0
note_on channel=0 note=38 velocity=66 time=0
note_on channel=0 note=50 velocity=61 time=120
note_on channel=0 note=38 velocity=0 time=108
note_on channel=0 note=67 velocity=0 time=0
note_on channel=0 note=75 velocity=0 time=0
note_on channel=0 note=50 velocity=0 time=0
note_on channel=0 note=87 velocity=99 time=0
note_on channel=0 note=79 velocity=99 time=0
note_on channel=0 note=36 velocity=66 time=0
note_on channel=0 note=48 velocity=59 time=120
note_on channel=0 note=36 velocity=0 time=108
note_on channel=0 note=48 velocity=0 time=12
note_on channel=0 note=36 velocity=66 time=0
note_on channel=0 note=48 velocity=60 time=120
note_on channel=0 note=36 velocity=0 time=108
note_on channel=0 note=48 velocity=0 time=12
note_on channel=0 note=36 velocity=66 time=0
note_on channel=0 note=48 velocity=60 time=120
note_on channel=0 note=36 velocity=0 time=108
note_on channel=0 note=48 velocity=0 time=12
note_on channel=0 note=36 velocity=66 time=0
note_on channel=0 note=48 velocity=61 time=120
note_on channel=0 note=36 velocity=0 time=108
note_on channel=0 note=87 velocity=0 time=0
note_on channel=0 note=79 velocity=0 time=0
note_on channel=0 note=48 velocity=0 time=0
note_on channel=0 note=67 velocity=92 time=0
note_on channel=0 note=75 velocity=92 time=0
note_on channel=0 note=34 velocity=66 time=0
note_on channel=0 note=46 velocity=59 time=120
note_on channel=0 note=34 velocity=0 time=108
note_on channel=0 note=46 velocity=0 time=12
note_on channel=0 note=34 velocity=66 time=0
note_on channel=0 note=46 velocity=60 time=120
note_on channel=0 note=34 velocity=0 time=108
note_on channel=0 note=46 velocity=0 time=12
note_on channel=0 note=34 velocity=66 time=0
note_on channel=0 note=46 velocity=60 time=120
note_on channel=0 note=34 velocity=0 time=108
note_on channel=0 note=46 velocity=0 time=0
note_on channel=0 note=34 velocity=66 time=0
note_on channel=0 note=46 velocity=61 time=120
note_on channel=0 note=34 velocity=0 time=108
note_on channel=0 note=67 velocity=0 time=0
note_on channel=0 note=75 velocity=0 time=0
note_on channel=0 note=46 velocity=0 time=0
note_on channel=0 note=87 velocity=102 time=0
note_on channel=0 note=84 velocity=102 time=0
note_on channel=0 note=32 velocity=66 time=0
note_on channel=0 note=44 velocity=59 time=120
note_on channel=0 note=32 velocity=0 time=108
note_on channel=0 note=44 velocity=0 time=12
note_on channel=0 note=32 velocity=66 time=0
note_on channel=0 note=44 velocity=60 time=120
note_on channel=0 note=32 velocity=0 time=108
note_on channel=0 note=44 velocity=0 time=12
note_on channel=0 note=32 velocity=66 time=0
note_on channel=0 note=44 velocity=60 time=120
note_on channel=0 note=32 velocity=0 time=108
note_on channel=0 note=44 velocity=0 time=12
note_on channel=0 note=32 velocity=66 time=0
note_on channel=0 note=44 velocity=61 time=120
note_on channel=0 note=32 velocity=0 time=108
note_on channel=0 note=87 velocity=0 time=0
note_on channel=0 note=84 velocity=0 time=0
note_on channel=0 note=44 velocity=0 time=0
note_on channel=0 note=72 velocity=96 time=0
note_on channel=0 note=75 velocity=96 time=0
note_on channel=0 note=31 velocity=66 time=0
note_on channel=0 note=43 velocity=59 time=120
note_on channel=0 note=31 velocity=0 time=108
note_on channel=0 note=43 velocity=0 time=12
note_on channel=0 note=31 velocity=66 time=0
note_on channel=0 note=43 velocity=60 time=120
note_on channel=0 note=31 velocity=0 time=108
note_on channel=0 note=43 velocity=0 time=12
note_on channel=0 note=31 velocity=66 time=0
note_on channel=0 note=43 velocity=60 time=120
note_on channel=0 note=31 velocity=0 time=108
note_on channel=0 note=43 velocity=0 time=0
note_on channel=0 note=31 velocity=66 time=0
note_on channel=0 note=43 velocity=61 time=120
note_on channel=0 note=31 velocity=0 time=108
note_on channel=0 note=72 velocity=0 time=0
note_on channel=0 note=75 velocity=0 time=0
note_on channel=0 note=43 velocity=0 time=0
note_on channel=0 note=84 velocity=93 time=0
note_on channel=0 note=81 velocity=93 time=0
note_on channel=0 note=86 velocity=93 time=0
note_on channel=0 note=30 velocity=62 time=0
note_on channel=0 note=42 velocity=74 time=0
note_on channel=0 note=42 velocity=0 time=0
note_on channel=0 note=86 velocity=0 time=0
note_on channel=0 note=84 velocity=0 time=0
note_on channel=0 note=81 velocity=0 time=0
note_on channel=0 note=30 velocity=0 time=0
note_on channel=0 note=57 velocity=86 time=0
note_on channel=0 note=60 velocity=102 time=0
note_on channel=0 note=62 velocity=102 time=0
note_on channel=0 note=42 velocity=71 time=0
note_on channel=0 note=54 velocity=84 time=0
note_on channel=0 note=54 velocity=0 time=0
note_on channel=0 note=62 velocity=0 time=0
note_on channel=0 note=57 velocity=0 time=0
note_on channel=0 note=60 velocity=0 time=0
note_on channel=0 note=42 velocity=0 time=0
note_on channel=0 note=55 velocity=87 time=0
note_on channel=0 note=58 velocity=87 time=0
note_on channel=0 note=62 velocity=87 time=0
note_on channel=0 note=67 velocity=102 time=0
note_on channel=0 note=31 velocity=76 time=0
note_on channel=0 note=34 velocity=76 time=0
note_on channel=0 note=38 velocity=76 time=0
note_on channel=0 note=43 velocity=89 time=0
note_on channel=0 note=43 velocity=0 time=1320
note_on channel=0 note=55 velocity=0 time=0
note_on channel=0 note=31 velocity=0 time=0
note_on channel=0 note=58 velocity=0 time=0
note_on channel=0 note=62 velocity=0 time=0
note_on channel=0 note=67 velocity=0 time=0
note_on channel=0 note=34 velocity=0 time=0
note_on channel=0 note=38 velocity=0 time=0
note_on channel=0 note=62 velocity=44 time=0
note_on channel=0 note=67 velocity=51 time=0
note_on channel=0 note=58 velocity=39 time=0
note_on channel=0 note=58 velocity=0 time=114
note_on channel=0 note=67 velocity=0 time=0
note_on channel=0 note=62 velocity=0 time=0
note_on channel=0 note=62 velocity=46 time=6
note_on channel=0 note=66 velocity=46 time=0
note_on channel=0 note=69 velocity=55 time=0
note_on channel=0 note=57 velocity=45 time=0
note_on channel=0 note=57 velocity=0 time=0
note_on channel=0 note=62 velocity=0 time=0
note_on channel=0 note=66 velocity=0 time=0
note_on channel=0 note=69 velocity=0 time=0
note_on channel=0 note=62 velocity=42 time=0
note_on channel=0 note=67 velocity=50 time=0
note_on channel=0 note=70 velocity=50 time=0
note_on channel=0 note=55 velocity=39 time=0
note_on channel=0 note=55 velocity=0 time=114
note_on channel=0 note=62 velocity=0 time=0
note_on channel=0 note=67 velocity=0 time=0
note_on channel=0 note=70 velocity=0 time=0
note_on channel=0 note=64 velocity=46 time=0
note_on channel=0 note=67 velocity=55 time=0
note_on channel=0 note=70 velocity=55 time=0
note_on channel=0 note=61 velocity=42 time=0
note_on channel=0 note=61 velocity=0 time=0
note_on channel=0 note=64 velocity=0 time=0
note_on channel=0 note=67 velocity=0 time=0
note_on channel=0 note=70 velocity=0 time=0
note_on channel=0 note=66 velocity=31 time=0
note_on channel=0 note=69 velocity=39 time=0
note_on channel=0 note=62 velocity=27 time=0
note_on channel=0 note=62 velocity=0 time=480
note_on channel=0 note=69 velocity=0 time=0
note_on channel=0 note=66 velocity=0 time=0
note_on channel=0 note=51 velocity=86 time=360
note_on channel=0 note=51 velocity=0 time=120
note_on channel=0 note=66 velocity=87 time=0
note_on channel=0 note=69 velocity=87 time=0
note_on channel=0 note=72 velocity=100 time=0
note_on channel=0 note=63 velocity=90 time=0
note_on channel=0 note=63 velocity=0 time=1320
note_on channel=0 note=66 velocity=0 time=0
note_on channel=0 note=69 velocity=0 time=0
note_on channel=0 note=72 velocity=0 time=0
note_on channel=0 note=69 velocity=44 time=0
note_on channel=0 note=66 velocity=44 time=0
note_on channel=0 note=72 velocity=52 time=0
note_on channel=0 note=63 velocity=39 time=0
note_on channel=0 note=63 velocity=0 time=114
note_on channel=0 note=69 velocity=0 time=0
note_on channel=0 note=66 velocity=0 time=0
note_on channel=0 note=72 velocity=0 time=0
note_on channel=0 note=66 velocity=46 time=6
note_on channel=0 note=69 velocity=46 time=0
note_on channel=0 note=74 velocity=55 time=0
note_on channel=0 note=62 velocity=45 time=0
note_on channel=0 note=62 velocity=0 time=0
note_on channel=0 note=66 velocity=0 time=0
note_on channel=0 note=69 velocity=0 time=0
note_on channel=0 note=74 velocity=0 time=0
note_on channel=0 note=69 velocity=51 time=0
note_on channel=0 note=75 velocity=51 time=0
note_on channel=0 note=66 velocity=43 time=0
note_on channel=0 note=60 velocity=39 time=0
note_on channel=0 note=60 velocity=0 time=114
note_on channel=0 note=69 velocity=0 time=0
note_on channel=0 note=75 velocity=0 time=0
note_on channel=0 note=66 velocity=0 time=0
note_on channel=0 note=75 velocity=55 time=0
note_on channel=0 note=66 velocity=46 time=0
note_on channel=0 note=69 velocity=55 time=0
note_on channel=0 note=58 velocity=38 time=0
note_on channel=0 note=69 velocity=0 time=0
note_on channel=0 note=75 velocity=0 time=0
note_on channel=0 note=66 velocity=0 time=0
note_on channel=0 note=67 velocity=32 time=0
note_on channel=0 note=74 velocity=39 time=0
note_on channel=0 note=70 velocity=32 time=0
note_on channel=0 note=70 velocity=0 time=480
note_on channel=0 note=58 velocity=0 time=0
note_on channel=0 note=67 velocity=0 time=0
note_on channel=0 note=74 velocity=0 time=0
note_on channel=0 note=51 velocity=81 time=360
note_on channel=0 note=51 velocity=0 time=120
note_on channel=0 note=66 velocity=84 time=0
note_on channel=0 note=69 velocity=84 time=0
note_on channel=0 note=72 velocity=96 time=0
note_on channel=0 note=63 velocity=86 time=0
note_on channel=0 note=63 velocity=0 time=1320
note_on channel=0 note=66 velocity=0 time=0
note_on channel=0 note=69 velocity=0 time=0
note_on channel=0 note=72 velocity=0 time=0
note_on channel=0 note=69 velocity=46 time=0
note_on channel=0 note=66 velocity=46 time=0
note_on channel=0 note=72 velocity=55 time=0
note_on channel=0 note=63 velocity=42 time=0
note_on channel=0 note=63 velocity=0 time=114
note_on channel=0 note=69 velocity=0 time=0
note_on channel=0 note=66 velocity=0 time=0
note_on channel=0 note=72 velocity=0 time=0
note_on channel=0 note=66 velocity=51 time=0
note_on channel=0 note=69 velocity=51 time=0
note_on channel=0 note=74 velocity=60 time=0
note_on channel=0 note=62 velocity=49 time=0
note_on channel=0 note=62 velocity=0 time=0
note_on channel=0 note=66 velocity=0 time=0
note_on channel=0 note=69 velocity=0 time=0
note_on channel=0 note=74 velocity=0 time=0
note_on channel=0 note=69 velocity=63 time=0
note_on channel=0 note=75 velocity=63 time=0
note_on channel=0 note=66 velocity=54 time=0
note_on channel=0 note=60 velocity=49 time=0
note_on channel=0 note=60 velocity=0 time=114
note_on channel=0 note=69 velocity=0 time=0
note_on channel=0 note=75 velocity=0 time=0
note_on channel=0 note=66 velocity=0 time=0
note_on channel=0 note=75 velocity=59 time=0
note_on channel=0 note=66 velocity=50 time=0
note_on channel=0 note=69 velocity=50 time=0
note_on channel=0 note=60 velocity=50 time=0
note_on channel=0 note=60 velocity=0 time=480
note_on channel=0 note=59 velocity=43 time=0
note_on channel=0 note=75 velocity=0 time=400
note_on channel=0 note=69 velocity=0 time=0
note_on channel=0 note=66 velocity=0 time=0
note_on channel=0 note=64 velocity=44 time=0
note_on channel=0 note=67 velocity=44 time=0
note_on channel=0 note=76 velocity=52 time=0
note_on channel=0 note=59 velocity=0 time=480
note_on channel=0 note=59 velocity=33 time=0
note_on channel=0 note=64 velocity=0 time=377
note_on channel=0 note=76 velocity=0 time=0
note_on channel=0 note=67 velocity=0 time=0
note_on channel=0 note=63 velocity=39 time=0
note_on channel=0 note=66 velocity=39 time=0
note_on channel=0 note=69 velocity=47 time=0
note_on channel=0 note=59 velocity=0 time=480
note_on channel=0 note=47 velocity=31 time=0
note_on channel=0 note=63 velocity=0 time=205
note_on channel=0 note=69 velocity=0 time=0
note_on channel=0 note=66 velocity=0 time=0
note_on channel=0 note=59 velocity=35 time=0
note_on channel=0 note=64 velocity=35 time=0
note_on channel=0 note=67 velocity=43 time=0
note_on channel=0 note=47 velocity=0 time=480
note_on channel=0 note=47 velocity=28 time=0
note_on channel=0 note=59 velocity=0 time=40
note_on channel=0 note=67 velocity=0 time=0
note_on channel=0 note=64 velocity=0 time=0
note_on channel=0 note=57 velocity=33 time=0
note_on channel=0 note=60 velocity=33 time=0
note_on channel=0 note=63 velocity=39 time=0
note_on channel=0 note=66 velocity=39 time=0
note_on channel=0 note=47 velocity=0 time=80
note_on channel=0 note=35 velocity=25 time=0
note_on channel=0 note=63 velocity=0 time=0
note_on channel=0 note=66 velocity=0 time=0
note_on channel=0 note=57 velocity=0 time=0
note_on channel=0 note=60 velocity=0 time=0
note_on channel=0 note=54 velocity=28 time=0
note_on channel=0 note=57 velocity=28 time=0
note_on channel=0 note=63 velocity=34 time=0
note_on channel=0 note=35 velocity=0 time=0
note_on channel=0 note=35 velocity=22 time=0
note_on channel=0 note=35 velocity=0 time=0
note_on channel=0 note=63 velocity=0 time=0
note_on channel=0 note=57 velocity=0 time=0
note_on channel=0 note=54 velocity=0 time=0
note_on channel=0 note=64 velocity=61 time=0
note_on channel=0 note=40 velocity=55 time=0
note_on channel=0 note=64 velocity=0 time=90
note_on channel=0 note=52 velocity=50 time=30
note_on channel=0 note=40 velocity=0 time=108
note_on channel=0 note=52 velocity=0 time=0
note_on channel=0 note=69 velocity=55 time=0
note_on channel=0 note=40 velocity=53 time=0
note_on channel=0 note=69 velocity=0 time=90
note_on channel=0 note=52 velocity=47 time=30
note_on channel=0 note=40 velocity=0 time=108
note_on channel=0 note=52 velocity=0 time=12
note_on channel=0 note=67 velocity=58 time=0
note_on channel=0 note=40 velocity=53 time=0
note_on channel=0 note=67 velocity=0 time=90
note_on channel=0 note=52 velocity=47 time=30
note_on channel=0 note=40 velocity=0 time=108
note_on channel=0 note=52 velocity=0 time=12
note_on channel=0 note=69 velocity=47 time=0
note_on channel=0 note=75 velocity=56 time=0
note_on channel=0 note=40 velocity=52 time=0
note_on channel=0 note=75 velocity=0 time=90
note_on channel=0 note=69 velocity=0 time=0
note_on channel=0 note=52 velocity=48 time=30
note_on channel=0 note=40 velocity=0 time=108
note_on channel=0 note=52 velocity=0 time=12
note_on channel=0 note=67 velocity=51 time=0
note_on channel=0 note=76 velocity=61 time=0
note_on channel=0 note=40 velocity=50 time=0
note_on channel=0 note=76 velocity=0 time=90
note_on channel=0 note=67 velocity=0 time=0
note_on channel=0 note=52 velocity=53 time=30
note_on channel=0 note=40 velocity=0 time=108
note_on channel=0 note=52 velocity=0 time=0
note_on channel=0 note=75 velocity=56 time=0
note_on channel=0 note=81 velocity=66 time=0
note_on channel=0 note=40 velocity=54 time=0
note_on channel=0 note=81 velocity=0 time=90
note_on channel=0 note=75 velocity=0 time=0
note_on channel=0 note=52 velocity=54 time=30
note_on channel=0 note=40 velocity=0 time=108
note_on channel=0 note=52 velocity=0 time=12
note_on channel=0 note=76 velocity=60 time=0
note_on channel=0 note=79 velocity=71 time=0
note_on channel=0 note=40 velocity=56 time=0
note_on channel=0 note=79 velocity=0 time=90
note_on channel=0 note=76 velocity=0 time=0
note_on channel=0 note=52 velocity=58 time=30
note_on channel=0 note=40 velocity=0 time=108
note_on channel=0 note=52 velocity=0 time=12
note_on channel=0 note=81 velocity=62 time=0
note_on channel=0 note=87 velocity=73 time=0
note_on channel=0 note=40 velocity=62 time=0
note_on channel=0 note=87 velocity=0 time=90
note_on channel=0 note=81 velocity=0 time=0
note_on channel=0 note=52 velocity=57 time=30
note_on channel=0 note=40 velocity=0 time=108
note_on channel=0 note=52 velocity=0 time=0
note_on channel=0 note=79 velocity=68 time=0
note_on channel=0 note=88 velocity=80 time=0
note_on channel=0 note=52 velocity=63 time=0
note_on channel=0 note=40 velocity=53 time=0
note_on channel=0 note=40 velocity=0 time=228
note_on channel=0 note=52 velocity=0 time=0
note_on channel=0 note=88 velocity=0 time=12
note_on channel=0 note=79 velocity=0 time=0
note_on channel=0 note=55 velocity=46 time=0
note_on channel=0 note=59 velocity=55 time=0
note_on channel=0 note=59 velocity=0 time=228
note_on channel=0 note=55 velocity=0 time=0
note_on channel=0 note=64 velocity=68 time=12
note_on channel=0 note=76 velocity=80 time=0
note_on channel=0 note=55 velocity=46 time=0
note_on channel=0 note=59 velocity=55 time=0
note_on channel=0 note=59 velocity=0 time=228
note_on channel=0 note=55 velocity=0 time=0
note_on channel=0 note=76 velocity=0 time=12
note_on channel=0 note=64 velocity=0 time=0
note_on channel=0 note=55 velocity=46 time=0
note_on channel=0 note=59 velocity=55 time=0
note_on channel=0 note=59 velocity=0 time=228
note_on channel=0 note=55 velocity=0 time=0
note_on channel=0 note=52 velocity=63 time=12
note_on channel=0 note=52 velocity=0 time=228
note_on channel=0 note=64 velocity=52 time=12
note_on channel=0 note=76 velocity=62 time=0
note_on channel=0 note=55 velocity=46 time=0
note_on channel=0 note=59 velocity=55 time=0
note_on channel=0 note=76 velocity=0 time=90
note_on channel=0 note=64 velocity=0 time=0
note_on channel=0 note=55 velocity=0 time=138
note_on channel=0 note=59 velocity=0 time=0
note_on channel=0 note=66 velocity=56 time=0
note_on channel=0 note=78 velocity=67 time=0
note_on channel=0 note=55 velocity=46 time=0
note_on channel=0 note=59 velocity=55 time=0
note_on channel=0 note=78 velocity=0 time=90
note_on channel=0 note=66 velocity=0 time=0
note_on channel=0 note=55 velocity=0 time=138
note_on channel=0 note=59 velocity=0 time=0
note_on channel=0 note=67 velocity=52 time=0
note_on channel=0 note=79 velocity=62 time=0
note_on channel=0 note=55 velocity=43 time=0
note_on channel=0 note=59 velocity=51 time=0
note_on channel=0 note=79 velocity=0 time=90
note_on channel=0 note=67 velocity=0 time=0
note_on channel=0 note=55 velocity=0 time=138
note_on channel=0 note=59 velocity=0 time=0
note_on channel=0 note=67 velocity=56 time=0
note_on channel=0 note=79 velocity=66 time=0
note_on channel=0 note=52 velocity=55 time=0
note_on channel=0 note=52 velocity=0 time=228
note_on channel=0 note=57 velocity=40 time=12
note_on channel=0 note=60 velocity=48 time=0
note_on channel=0 note=60 velocity=0 time=228
note_on channel=0 note=57 velocity=0 time=0
note_on channel=0 note=79 velocity=0 time=12
note_on channel=0 note=67 velocity=0 time=0
note_on channel=0 note=66 velocity=52 time=0
note_on channel=0 note=78 velocity=62 time=0
note_on channel=0 note=57 velocity=40 time=0
note_on channel=0 note=60 velocity=48 time=0
note_on channel=0 note=60 velocity=0 time=228
note_on channel=0 note=57 velocity=0 time=0
note_on channel=0 note=78 velocity=0 time=12
note_on channel=0 note=66 velocity=0 time=0
note_on channel=0 note=57 velocity=40 time=0
note_on channel=0 note=60 velocity=48 time=0
note_on channel=0 note=60 velocity=0 time=228
note_on channel=0 note=57 velocity=0 time=0
note_on channel=0 note=51 velocity=63 time=0
note_on channel=0 note=51 velocity=0 time=228
note_on channel=0 note=66 velocity=52 time=12
note_on channel=0 note=78 velocity=62 time=0
note_on channel=0 note=57 velocity=46 time=0
note_on channel=0 note=60 velocity=55 time=0
note_on channel=0 note=78 velocity=0 time=90
note_on channel=0 note=66 velocity=0 time=0
note_on channel=0 note=57 velocity=0 time=138
note_on channel=0 note=60 velocity=0 time=0
note_on channel=0 note=67 velocity=56 time=0
note_on channel=0 note=79 velocity=67 time=0
note_on channel=0 note=57 velocity=46 time=0
note_on channel=0 note=60 velocity=55 time=0
note_on channel=0 note=79 velocity=0 time=90
note_on channel=0 note=67 velocity=0 time=0
note_on channel=0 note=57 velocity=0 time=138
note_on channel=0 note=60 velocity=0 time=0
note_on channel=0 note=69 velocity=52 time=0
note_on channel=0 note=81 velocity=62 time=0
note_on channel=0 note=57 velocity=43 time=0
note_on channel=0 note=60 velocity=51 time=0
note_on channel=0 note=81 velocity=0 time=90
note_on channel=0 note=69 velocity=0 time=0
note_on channel=0 note=57 velocity=0 time=138
note_on channel=0 note=60 velocity=0 time=0
note_on channel=0 note=69 velocity=52 time=0
note_on channel=0 note=81 velocity=62 time=0
note_on channel=0 note=38 velocity=55 time=0
note_on channel=0 note=81 velocity=0 time=90
note_on channel=0 note=69 velocity=0 time=0
note_on channel=0 note=50 velocity=50 time=30
note_on channel=0 note=38 velocity=0 time=108
note_on channel=0 note=50 velocity=0 time=0
note_on channel=0 note=67 velocity=55 time=0
note_on channel=0 note=38 velocity=53 time=0
note_on channel=0 note=67 velocity=0 time=90
note_on channel=0 note=50 velocity=47 time=30
note_on channel=0 note=38 velocity=0 time=108
note_on channel=0 note=50 velocity=0 time=12
note_on channel=0 note=66 velocity=58 time=0
note_on channel=0 note=38 velocity=53 time=0
note_on channel=0 note=66 velocity=0 time=90
note_on channel=0 note=50 velocity=47 time=30
note_on channel=0 note=38 velocity=0 time=108
note_on channel=0 note=50 velocity=0 time=12
note_on channel=0 note=67 velocity=47 time=0
note_on channel=0 note=73 velocity=56 time=0
note_on channel=0 note=38 velocity=52 time=0
note_on channel=0 note=73 velocity=0 time=90
note_on channel=0 note=67 velocity=0 time=0
note_on channel=0 note=50 velocity=48 time=30
note_on channel=0 note=38 velocity=0 time=108
note_on channel=0 note=50 velocity=0 time=12
note_on channel=0 note=66 velocity=51 time=0
note_on channel=0 note=74 velocity=61 time=0
note_on channel=0 note=38 velocity=50 time=0
note_on channel=0 note=74 velocity=0 time=90
note_on channel=0 note=66 velocity=0 time=0
note_on channel=0 note=50 velocity=53 time=30
note_on channel=0 note=38 velocity=0 time=108
note_on channel=0 note=50 velocity=0 time=0
note_on channel=0 note=73 velocity=56 time=0
note_on channel=0 note=79 velocity=66 time=0
note_on channel=0 note=38 velocity=54 time=0
note_on channel=0 note=79 velocity=0 time=90
note_on channel=0 note=73 velocity=0 time=0
note_on channel=0 note=50 velocity=54 time=30
note_on channel=0 note=38 velocity=0 time=108
note_on channel=0 note=50 velocity=0 time=12
note_on channel=0 note=74 velocity=60 time=0
note_on channel=0 note=78 velocity=71 time=0
note_on channel=0 note=38 velocity=56 time=0
note_on channel=0 note=78 velocity=0 time=90
note_on channel=0 note=74 velocity=0 time=0
note_on channel=0 note=50 velocity=58 time=30
note_on channel=0 note=38 velocity=0 time=108
note_on channel=0 note=50 velocity=0 time=12
note_on channel=0 note=79 velocity=62 time=0
note_on channel=0 note=85 velocity=73 time=0
note_on channel=0 note=38 velocity=62 time=0
note_on channel=0 note=85 velocity=0 time=90
note_on channel=0 note=79 velocity=0 time=0
note_on channel=0 note=50 velocity=57 time=30
note_on channel=0 note=38 velocity=0 time=108
note_on channel=0 note=50 velocity=0 time=0
note_on channel=0 note=78 velocity=68 time=0
note_on channel=0 note=86 velocity=80 time=0
note_on channel=0 note=50 velocity=63 time=0
note_on channel=0 note=38 velocity=53 time=0
note_on channel=0 note=38 velocity=0 time=228
note_on channel=0 note=50 velocity=0 time=0
note_on channel=0 note=86 velocity=0 time=12
note_on channel=0 note=78 velocity=0 time=0
note_on channel=0 note=57 velocity=46 time=0
note_on channel=0 note=60 velocity=55 time=0
note_on channel=0 note=60 velocity=0 time=228
note_on channel=0 note=57 velocity=0 time=0
note_on channel=0 note=66 velocity=68 time=12
note_on channel=0 note=78 velocity=80 time=0
note_on channel=0 note=57 velocity=46 time=0
note_on channel=0 note=60 velocity=55 time=0
note_on channel=0 note=60 velocity=0 time=228
note_on channel=0 note=57 velocity=0 time=0
note_on channel=0 note=78 velocity=0 time=12
note_on channel=0 note=66 velocity=0 time=0
note_on channel=0 note=57 velocity=46 time=0
note_on channel=0 note=60 velocity=55 time=0
note_on channel=0 note=60 velocity=0 time=228
note_on channel=0 note=57 velocity=0 time=0
note_on channel=0 note=50 velocity=63 time=12
note_on channel=0 note=50 velocity=0 time=228
note_on channel=0 note=66 velocity=52 time=12
note_on channel=0 note=78 velocity=62 time=0
note_on channel=0 note=57 velocity=46 time=0
note_on channel=0 note=60 velocity=55 time=0
note_on channel=0 note=78 velocity=0 time=90
note_on channel=0 note=66 velocity=0 time=0
note_on channel=0 note=57 velocity=0 time=138
note_on channel=0 note=60 velocity=0 time=0
note_on channel=0 note=67 velocity=56 time=0
note_on channel=0 note=79 velocity=67 time=0
note_on channel=0 note=57 velocity=46 time=0
note_on channel=0 note=60 velocity=55 time=0
note_on channel=0 note=79 velocity=0 time=90
note_on channel=0 note=67 velocity=0 time=0
note_on channel=0 note=57 velocity=0 time=138
note_on channel=0 note=60 velocity=0 time=0
note_on channel=0 note=69 velocity=52 time=0
note_on channel=0 note=81 velocity=62 time=0
note_on channel=0 note=57 velocity=43 time=0
note_on channel=0 note=60 velocity=51 time=0
note_on channel=0 note=81 velocity=0 time=90
note_on channel=0 note=69 velocity=0 time=0
note_on channel=0 note=57 velocity=0 time=138
note_on channel=0 note=60 velocity=0 time=0
note_on channel=0 note=69 velocity=56 time=0
note_on channel=0 note=81 velocity=66 time=0
note_on channel=0 note=50 velocity=55 time=0
note_on channel=0 note=50 velocity=0 time=228
note_on channel=0 note=55 velocity=40 time=12
note_on channel=0 note=58 velocity=48 time=0
note_on channel=0 note=58 velocity=0 time=228
note_on channel=0 note=55 velocity=0 time=0
note_on channel=0 note=81 velocity=0 time=12
note_on channel=0 note=69 velocity=0 time=0
note_on channel=0 note=67 velocity=52 time=0
note_on channel=0 note=79 velocity=62 time=0
note_on channel=0 note=55 velocity=40 time=0
note_on channel=0 note=58 velocity=48 time=0
note_on channel=0 note=58 velocity=0 time=228
note_on channel=0 note=55 velocity=0 time=0
note_on channel=0 note=79 velocity=0 time=12
note_on channel=0 note=67 velocity=0 time=0
note_on channel=0 note=55 velocity=40 time=0
note_on channel=0 note=58 velocity=48 time=0
note_on channel=0 note=58 velocity=0 time=228
note_on channel=0 note=55 velocity=0 time=0
note_on channel=0 note=49 velocity=63 time=0
note_on channel=0 note=49 velocity=0 time=228
note_on channel=0 note=67 velocity=52 time=12
note_on channel=0 note=79 velocity=62 time=0
note_on channel=0 note=55 velocity=46 time=0
note_on channel=0 note=58 velocity=55 time=0
note_on channel=0 note=79 velocity=0 time=90
note_on channel=0 note=67 velocity=0 time=0
note_on channel=0 note=55 velocity=0 time=138
note_on channel=0 note=58 velocity=0 time=0
note_on channel=0 note=69 velocity=56 time=0
note_on channel=0 note=81 velocity=67 time=0
note_on channel=0 note=55 velocity=46 time=0
note_on channel=0 note=58 velocity=55 time=0
note_on channel=0 note=81 velocity=0 time=90
note_on channel=0 note=69 velocity=0 time=0
note_on channel=0 note=55 velocity=0 time=138
note_on channel=0 note=58 velocity=0 time=0
note_on channel=0 note=70 velocity=52 time=0
note_on channel=0 note=82 velocity=62 time=0
note_on channel=0 note=55 velocity=43 time=0
note_on channel=0 note=58 velocity=51 time=0
note_on channel=0 note=82 velocity=0 time=90
note_on channel=0 note=70 velocity=0 time=0
note_on channel=0 note=55 velocity=0 time=138
note_on channel=0 note=58 velocity=0 time=0
note_on channel=0 note=70 velocity=58 time=0
note_on channel=0 note=36 velocity=53 time=0
note_on channel=0 note=48 velocity=53 time=0
note_on channel=0 note=82 velocity=52 time=120
note_on channel=0 note=70 velocity=0 time=108
note_on channel=0 note=36 velocity=0 time=0
note_on channel=0 note=48 velocity=0 time=0
note_on channel=0 note=82 velocity=0 time=0
note_on channel=0 note=70 velocity=58 time=0
note_on channel=0 note=49 velocity=55 time=0
note_on channel=0 note=82 velocity=53 time=120
note_on channel=0 note=70 velocity=0 time=108
note_on channel=0 note=82 velocity=0 time=0
note_on channel=0 note=49 velocity=0 time=0
note_on channel=0 note=70 velocity=58 time=0
note_on channel=0 note=48 velocity=51 time=0
note_on channel=0 note=82 velocity=52 time=120
note_on channel=0 note=70 velocity=0 time=108
note_on channel=0 note=82 velocity=0 time=0
note_on channel=0 note=48 velocity=0 time=0
note_on channel=0 note=70 velocity=58 time=0
note_on channel=0 note=53 velocity=55 time=0
note_on channel=0 note=82 velocity=52 time=120
note_on channel=0 note=70 velocity=0 time=108
note_on channel=0 note=82 velocity=0 time=0
note_on channel=0 note=53 velocity=0 time=0
note_on channel=0 note=70 velocity=58 time=0
note_on channel=0 note=52 velocity=52 time=0
note_on channel=0 note=82 velocity=52 time=120
note_on channel=0 note=70 velocity=0 time=108
note_on channel=0 note=82 velocity=0 time=0
note_on channel=0 note=52 velocity=0 time=0
note_on channel=0 note=70 velocity=58 time=0
note_on channel=0 note=61 velocity=55 time=0
note_on channel=0 note=82 velocity=53 time=120
note_on channel=0 note=70 velocity=0 time=108
note_on channel=0 note=82 velocity=0 time=0
note_on channel=0 note=61 velocity=0 time=0
note_on channel=0 note=70 velocity=58 time=0
note_on channel=0 note=60 velocity=51 time=0
note_on channel=0 note=82 velocity=52 time=120
note_on channel=0 note=70 velocity=0 time=108
note_on channel=0 note=82 velocity=0 time=0
note_on channel=0 note=60 velocity=0 time=0
note_on channel=0 note=70 velocity=58 time=0
note_on channel=0 note=65 velocity=55 time=0
note_on channel=0 note=82 velocity=52 time=120
note_on channel=0 note=70 velocity=0 time=108
note_on channel=0 note=82 velocity=0 time=0
note_on channel=0 note=65 velocity=0 time=0
note_on channel=0 note=70 velocity=58 time=0
note_on channel=0 note=64 velocity=51 time=0
note_on channel=0 note=82 velocity=52 time=120
note_on channel=0 note=70 velocity=0 time=108
note_on channel=0 note=82 velocity=0 time=0
note_on channel=0 note=64 velocity=0 time=0
note_on channel=0 note=70 velocity=58 time=0
note_on channel=0 note=66 velocity=55 time=0
note_on channel=0 note=82 velocity=53 time=120
note_on channel=0 note=70 velocity=0 time=108
note_on channel=0 note=82 velocity=0 time=12
note_on channel=0 note=66 velocity=0 time=0
note_on channel=0 note=70 velocity=58 time=0
note_on channel=0 note=67 velocity=57 time=0
note_on channel=0 note=82 velocity=52 time=120
note_on channel=0 note=70 velocity=0 time=108
note_on channel=0 note=82 velocity=0 time=12
note_on channel=0 note=67 velocity=0 time=0
note_on channel=0 note=70 velocity=58 time=0
note_on channel=0 note=82 velocity=52 time=120
note_on channel=0 note=70 velocity=0 time=108
note_on channel=0 note=82 velocity=0 time=0
note_on channel=0 note=70 velocity=58 time=0
note_on channel=0 note=82 velocity=52 time=120
note_on channel=0 note=70 velocity=0 time=108
note_on channel=0 note=82 velocity=0 time=12
note_on channel=0 note=70 velocity=58 time=0
note_on channel=0 note=82 velocity=53 time=120
note_on channel=0 note=70 velocity=0 time=108
note_on channel=0 note=82 velocity=0 time=12
note_on channel=0 note=70 velocity=58 time=0
note_on channel=0 note=82 velocity=52 time=120
note_on channel=0 note=70 velocity=0 time=108
note_on channel=0 note=82 velocity=0 time=12
note_on channel=0 note=70 velocity=58 time=0
note_on channel=0 note=82 velocity=52 time=120
note_on channel=0 note=70 velocity=0 time=108
note_on channel=0 note=82 velocity=0 time=0
note_on channel=0 note=69 velocity=58 time=0
note_on channel=0 note=81 velocity=52 time=120
note_on channel=0 note=69 velocity=0 time=108
note_on channel=0 note=81 velocity=0 time=0
note_on channel=0 note=69 velocity=58 time=0
note_on channel=0 note=42 velocity=55 time=0
note_on channel=0 note=81 velocity=53 time=120
note_on channel=0 note=69 velocity=0 time=108
note_on channel=0 note=81 velocity=0 time=0
note_on channel=0 note=42 velocity=0 time=0
note_on channel=0 note=69 velocity=58 time=0
note_on channel=0 note=41 velocity=51 time=0
note_on channel=0 note=81 velocity=52 time=120
note_on channel=0 note=69 velocity=0 time=108
note_on channel=0 note=81 velocity=0 time=0
note_on channel=0 note=41 velocity=0 time=0
note_on channel=0 note=69 velocity=58 time=0
note_on channel=0 note=49 velocity=55 time=0
note_on channel=0 note=81 velocity=52 time=120
note_on channel=0 note=69 velocity=0 time=108
note_on channel=0 note=81 velocity=0 time=0
note_on channel=0 note=49 velocity=0 time=0
note_on channel=0 note=69 velocity=58 time=0
note_on channel=0 note=48 velocity=52 time=0
note_on channel=0 note=81 velocity=52 time=120
note_on channel=0 note=69 velocity=0 time=108
note_on channel=0 note=81 velocity=0 time=0
note_on channel=0 note=48 velocity=0 time=0
note_on channel=0 note=69 velocity=58 time=0
note_on channel=0 note=54 velocity=55 time=0
note_on channel=0 note=81 velocity=53 time=120
note_on channel=0 note=69 velocity=0 time=108
note_on channel=0 note=81 velocity=0 time=0
note_on channel=0 note=54 velocity=0 time=0
note_on channel=0 note=69 velocity=58 time=0
note_on channel=0 note=53 velocity=51 time=0
note_on channel=0 note=81 velocity=52 time=120
note_on channel=0 note=69 velocity=0 time=108
note_on channel=0 note=81 velocity=0 time=0
note_on channel=0 note=53 velocity=0 time=0
note_on channel=0 note=69 velocity=58 time=0
note_on channel=0 note=61 velocity=55 time=0
note_on channel=0 note=81 velocity=52 time=120
note_on channel=0 note=69 velocity=0 time=108
note_on channel=0 note=81 velocity=0 time=0
note_on channel=0 note=61 velocity=0 time=0
note_on channel=0 note=69 velocity=58 time=0
note_on channel=0 note=60 velocity=51 time=0
note_on channel=0 note=81 velocity=52 time=120
note_on channel=0 note=69 velocity=0 time=108
note_on channel=0 note=81 velocity=0 time=0
note_on channel=0 note=60 velocity=0 time=0
note_on channel=0 note=69 velocity=58 time=0
note_on channel=0 note=64 velocity=55 time=0
note_on channel=0 note=81 velocity=53 time=120
note_on channel=0 note=69 velocity=0 time=108
note_on channel=0 note=81 velocity=0 time=12
note_on channel=0 note=64 velocity=0 time=0
note_on channel=0 note=69 velocity=58 time=0
note_on channel=0 note=65 velocity=57 time=0
note_on channel=0 note=81 velocity=52 time=120
note_on channel=0 note=69 velocity=0 time=108
note_on channel=0 note=81 velocity=0 time=12
note_on channel=0 note=65 velocity=0 time=0
note_on channel=0 note=69 velocity=58 time=0
note_on channel=0 note=81 velocity=52 time=120
note_on channel=0 note=69 velocity=0 time=108
note_on channel=0 note=81 velocity=0 time=0
note_on channel=0 note=69 velocity=58 time=0
note_on channel=0 note=81 velocity=52 time=120
note_on channel=0 note=69 velocity=0 time=108
note_on channel=0 note=81 velocity=0 time=12
note_on channel=0 note=69 velocity=58 time=0
note_on channel=0 note=81 velocity=53 time=120
note_on channel=0 note=69 velocity=0 time=108
note_on channel=0 note=81 velocity=0 time=12
note_on channel=0 note=69 velocity=58 time=0
note_on channel=0 note=81 velocity=52 time=120
note_on channel=0 note=69 velocity=0 time=108
note_on channel=0 note=81 velocity=0 time=12
note_on channel=0 note=69 velocity=58 time=0
note_on channel=0 note=81 velocity=52 time=120
note_on channel=0 note=69 velocity=0 time=108
note_on channel=0 note=81 velocity=0 time=0
note_on channel=0 note=68 velocity=58 time=0
note_on channel=0 note=80 velocity=52 time=120
note_on channel=0 note=68 velocity=0 time=108
note_on channel=0 note=80 velocity=0 time=0
note_on channel=0 note=68 velocity=58 time=0
note_on channel=0 note=48 velocity=55 time=0
note_on channel=0 note=80 velocity=53 time=120
note_on channel=0 note=68 velocity=0 time=108
note_on channel=0 note=80 velocity=0 time=0
note_on channel=0 note=48 velocity=0 time=0
note_on channel=0 note=68 velocity=58 time=0
note_on channel=0 note=47 velocity=51 time=0
note_on channel=0 note=80 velocity=52 time=120
note_on channel=0 note=68 velocity=0 time=108
note_on channel=0 note=80 velocity=0 time=0
note_on channel=0 note=47 velocity=0 time=0
note_on channel=0 note=68 velocity=58 time=0
note_on channel=0 note=50 velocity=55 time=0
note_on channel=0 note=80 velocity=52 time=120
note_on channel=0 note=68 velocity=0 time=108
note_on channel=0 note=80 velocity=0 time=0
note_on channel=0 note=50 velocity=0 time=0
note_on channel=0 note=68 velocity=58 time=0
note_on channel=0 note=53 velocity=52 time=0
note_on channel=0 note=80 velocity=52 time=120
note_on channel=0 note=68 velocity=0 time=108
note_on channel=0 note=80 velocity=0 time=0
note_on channel=0 note=53 velocity=0 time=0
note_on channel=0 note=68 velocity=58 time=0
note_on channel=0 note=60 velocity=55 time=0
note_on channel=0 note=80 velocity=53 time=120
note_on channel=0 note=68 velocity=0 time=108
note_on channel=0 note=80 velocity=0 time=0
note_on channel=0 note=60 velocity=0 time=0
note_on channel=0 note=68 velocity=58 time=0
note_on channel=0 note=59 velocity=51 time=0
note_on channel=0 note=80 velocity=52 time=120
note_on channel=0 note=68 velocity=0 time=108
note_on channel=0 note=80 velocity=0 time=0
note_on channel=0 note=59 velocity=0 time=0
note_on channel=0 note=68 velocity=58 time=0
note_on channel=0 note=62 velocity=55 time=0
note_on channel=0 note=80 velocity=52 time=120
note_on channel=0 note=68 velocity=0 time=108
note_on channel=0 note=80 velocity=0 time=0
note_on channel=0 note=62 velocity=0 time=0
note_on channel=0 note=68 velocity=58 time=0
note_on channel=0 note=65 velocity=54 time=0
note_on channel=0 note=65 velocity=0 time=114
note_on channel=0 note=80 velocity=52 time=6
note_on channel=0 note=68 velocity=0 time=8
note_on channel=0 note=80 velocity=0 time=12
note_on channel=0 note=68 velocity=58 time=0
note_on channel=0 note=80 velocity=53 time=120
note_on channel=0 note=68 velocity=0 time=68
note_on channel=0 note=80 velocity=0 time=12
note_on channel=0 note=68 velocity=58 time=0
note_on channel=0 note=62 velocity=54 time=0
note_on channel=0 note=62 velocity=0 time=20
note_on channel=0 note=80 velocity=52 time=0
note_on channel=0 note=68 velocity=0 time=108
note_on channel=0 note=80 velocity=0 time=12
note_on channel=0 note=68 velocity=58 time=0
note_on channel=0 note=80 velocity=52 time=80
note_on channel=0 note=68 velocity=0 time=8
note_on channel=0 note=80 velocity=0 time=12
note_on channel=0 note=68 velocity=58 time=0
note_on channel=0 note=59 velocity=53 time=0
note_on channel=0 note=59 velocity=0 time=120
note_on channel=0 note=80 velocity=54 time=0
note_on channel=0 note=68 velocity=0 time=108
note_on channel=0 note=80 velocity=0 time=12
note_on channel=0 note=67 velocity=58 time=0
note_on channel=0 note=79 velocity=54 time=120
note_on channel=0 note=67 velocity=0 time=108
note_on channel=0 note=79 velocity=0 time=12
note_on channel=0 note=67 velocity=58 time=0
note_on channel=0 note=55 velocity=52 time=0
note_on channel=0 note=55 velocity=0 time=120
note_on channel=0 note=79 velocity=54 time=0
note_on channel=0 note=67 velocity=0 time=108
note_on channel=0 note=79 velocity=0 time=12
note_on channel=0 note=65 velocity=58 time=0
note_on channel=0 note=77 velocity=54 time=0
note_on channel=0 note=65 velocity=0 time=108
note_on channel=0 note=77 velocity=0 time=0
note_on channel=0 note=65 velocity=56 time=0
note_on channel=0 note=49 velocity=43 time=0
note_on channel=0 note=61 velocity=51 time=0
note_on channel=0 note=77 velocity=56 time=120
note_on channel=0 note=65 velocity=0 time=108
note_on channel=0 note=49 velocity=0 time=12
note_on channel=0 note=61 velocity=0 time=0
note_on channel=0 note=77 velocity=0 time=0
note_on channel=0 note=64 velocity=56 time=0
note_on channel=0 note=76 velocity=56 time=120
note_on channel=0 note=64 velocity=0 time=108
note_on channel=0 note=76 velocity=0 time=12
note_on channel=0 note=64 velocity=55 time=0
note_on channel=0 note=46 velocity=42 time=0
note_on channel=0 note=58 velocity=50 time=0
note_on channel=0 note=76 velocity=55 time=120
note_on channel=0 note=64 velocity=0 time=108
note_on channel=0 note=46 velocity=0 time=12
note_on channel=0 note=58 velocity=0 time=0
note_on channel=0 note=76 velocity=0 time=0
note_on channel=0 note=61 velocity=55 time=0
note_on channel=0 note=73 velocity=55 time=0
note_on channel=0 note=61 velocity=0 time=108
note_on channel=0 note=73 velocity=0 time=0
note_on channel=0 note=61 velocity=54 time=0
note_on channel=0 note=43 velocity=41 time=0
note_on channel=0 note=55 velocity=49 time=0
note_on channel=0 note=73 velocity=51 time=120
note_on channel=0 note=61 velocity=0 time=108
note_on channel=0 note=43 velocity=0 time=12
note_on channel=0 note=55 velocity=0 time=0
note_on channel=0 note=73 velocity=0 time=0
note_on channel=0 note=60 velocity=54 time=0
note_on channel=0 note=72 velocity=51 time=120
note_on channel=0 note=60 velocity=0 time=108
note_on channel=0 note=72 velocity=0 time=12
note_on channel=0 note=60 velocity=53 time=0
note_on channel=0 note=40 velocity=40 time=0
note_on channel=0 note=52 velocity=48 time=0
note_on channel=0 note=72 velocity=50 time=120
note_on channel=0 note=60 velocity=0 time=108
note_on channel=0 note=40 velocity=0 time=12
note_on channel=0 note=52 velocity=0 time=0
note_on channel=0 note=72 velocity=0 time=0
note_on channel=0 note=58 velocity=53 time=0
note_on channel=0 note=70 velocity=49 time=0
note_on channel=0 note=58 velocity=0 time=108
note_on channel=0 note=70 velocity=0 time=0
note_on channel=0 note=58 velocity=53 time=0
note_on channel=0 note=41 velocity=40 time=0
note_on channel=0 note=53 velocity=48 time=0
note_on channel=0 note=70 velocity=51 time=120
note_on channel=0 note=58 velocity=0 time=108
note_on channel=0 note=41 velocity=0 time=12
note_on channel=0 note=53 velocity=0 time=0
note_on channel=0 note=70 velocity=0 time=0
note_on channel=0 note=56 velocity=53 time=0
note_on channel=0 note=68 velocity=50 time=120
note_on channel=0 note=56 velocity=0 time=108
note_on channel=0 note=68 velocity=0 time=12
note_on channel=0 note=56 velocity=53 time=0
note_on channel=0 note=68 velocity=50 time=120
note_on channel=0 note=56 velocity=0 time=108
note_on channel=0 note=68 velocity=0 time=12
note_on channel=0 note=55 velocity=53 time=0
note_on channel=0 note=67 velocity=49 time=0
note_on channel=0 note=55 velocity=0 time=108
note_on channel=0 note=67 velocity=0 time=0
note_on channel=0 note=55 velocity=53 time=0
note_on channel=0 note=29 velocity=40 time=0
note_on channel=0 note=41 velocity=48 time=0
note_on channel=0 note=67 velocity=53 time=120
note_on channel=0 note=55 velocity=0 time=108
note_on channel=0 note=29 velocity=0 time=12
note_on channel=0 note=41 velocity=0 time=0
note_on channel=0 note=67 velocity=0 time=0
note_on channel=0 note=53 velocity=53 time=0
note_on channel=0 note=65 velocity=48 time=120
note_on channel=0 note=53 velocity=0 time=108
note_on channel=0 note=65 velocity=0 time=12
note_on channel=0 note=53 velocity=53 time=0
note_on channel=0 note=65 velocity=49 time=120
note_on channel=0 note=53 velocity=0 time=108
note_on channel=0 note=65 velocity=0 time=12
note_on channel=0 note=51 velocity=53 time=0
note_on channel=0 note=63 velocity=49 time=0
note_on channel=0 note=51 velocity=0 time=108
note_on channel=0 note=63 velocity=0 time=0
note_on channel=0 note=51 velocity=53 time=0
note_on channel=0 note=30 velocity=40 time=0
note_on channel=0 note=42 velocity=48 time=0
note_on channel=0 note=63 velocity=49 time=120
note_on channel=0 note=51 velocity=0 time=108
note_on channel=0 note=30 velocity=0 time=12
note_on channel=0 note=42 velocity=0 time=0
note_on channel=0 note=63 velocity=0 time=0
note_on channel=0 note=50 velocity=53 time=0
note_on channel=0 note=62 velocity=49 time=120
note_on channel=0 note=50 velocity=0 time=108
note_on channel=0 note=62 velocity=0 time=12
note_on channel=0 note=50 velocity=53 time=0
note_on channel=0 note=62 velocity=49 time=120
note_on channel=0 note=50 velocity=0 time=108
note_on channel=0 note=62 velocity=0 time=12
note_on channel=0 note=51 velocity=53 time=0
note_on channel=0 note=63 velocity=48 time=0
note_on channel=0 note=51 velocity=0 time=108
note_on channel=0 note=63 velocity=0 time=0
note_on channel=0 note=51 velocity=53 time=0
note_on channel=0 note=30 velocity=40 time=0
note_on channel=0 note=42 velocity=48 time=0
note_on channel=0 note=63 velocity=49 time=120
note_on channel=0 note=51 velocity=0 time=108
note_on channel=0 note=30 velocity=0 time=12
note_on channel=0 note=42 velocity=0 time=0
note_on channel=0 note=63 velocity=0 time=0
note_on channel=0 note=50 velocity=53 time=0
note_on channel=0 note=62 velocity=49 time=120
note_on channel=0 note=50 velocity=0 time=108
note_on channel=0 note=62 velocity=0 time=12
note_on channel=0 note=50 velocity=53 time=0
note_on channel=0 note=62 velocity=49 time=120
note_on channel=0 note=50 velocity=0 time=108
note_on channel=0 note=62 velocity=0 time=12
note_on channel=0 note=48 velocity=53 time=0
note_on channel=0 note=60 velocity=49 time=120
note_on channel=0 note=48 velocity=0 time=108
note_on channel=0 note=60 velocity=0 time=0
note_on channel=0 note=47 velocity=53 time=0
note_on channel=0 note=59 velocity=53 time=0
note_on channel=0 note=31 velocity=33 time=0
note_on channel=0 note=31 velocity=0 time=120
note_on channel=0 note=43 velocity=33 time=0
note_on channel=0 note=43 velocity=0 time=120
note_on channel=0 note=59 velocity=0 time=0
note_on channel=0 note=47 velocity=0 time=0
note_on channel=0 note=31 velocity=34 time=0
note_on channel=0 note=31 velocity=0 time=120
note_on channel=0 note=43 velocity=34 time=0
note_on channel=0 note=43 velocity=0 time=0
note_on channel=0 note=49 velocity=40 time=0
note_on channel=0 note=31 velocity=34 time=0
note_on channel=0 note=31 velocity=0 time=120
note_on channel=0 note=49 velocity=0 time=0
note_on channel=0 note=56 velocity=34 time=0
note_on channel=0 note=43 velocity=34 time=0
note_on channel=0 note=43 velocity=0 time=120
note_on channel=0 note=56 velocity=0 time=0
note_on channel=0 note=52 velocity=34 time=0
note_on channel=0 note=31 velocity=34 time=0
note_on channel=0 note=31 velocity=0 time=120
note_on channel=0 note=52 velocity=0 time=0
note_on channel=0 note=49 velocity=34 time=0
note_on channel=0 note=43 velocity=34 time=0
note_on channel=0 note=43 velocity=0 time=120
note_on channel=0 note=49 velocity=0 time=0
note_on channel=0 note=50 velocity=41 time=0
note_on channel=0 note=31 velocity=34 time=0
note_on channel=0 note=31 velocity=0 time=120
note_on channel=0 note=50 velocity=0 time=0
note_on channel=0 note=56 velocity=34 time=0
note_on channel=0 note=43 velocity=34 time=0
note_on channel=0 note=43 velocity=0 time=120
note_on channel=0 note=56 velocity=0 time=0
note_on channel=0 note=53 velocity=34 time=0
note_on channel=0 note=31 velocity=34 time=0
note_on channel=0 note=31 velocity=0 time=120
note_on channel=0 note=53 velocity=0 time=0
note_on channel=0 note=50 velocity=34 time=0
note_on channel=0 note=43 velocity=34 time=0
note_on channel=0 note=43 velocity=0 time=120
note_on channel=0 note=50 velocity=0 time=0
note_on channel=0 note=48 velocity=41 time=0
note_on channel=0 note=31 velocity=34 time=0
note_on channel=0 note=31 velocity=0 time=120
note_on channel=0 note=48 velocity=0 time=0
note_on channel=0 note=56 velocity=34 time=0
note_on channel=0 note=43 velocity=34 time=0
note_on channel=0 note=43 velocity=0 time=120
note_on channel=0 note=56 velocity=0 time=0
note_on channel=0 note=51 velocity=34 time=0
note_on channel=0 note=31 velocity=34 time=0
note_on channel=0 note=31 velocity=0 time=120
note_on channel=0 note=51 velocity=0 time=0
note_on channel=0 note=48 velocity=34 time=0
note_on channel=0 note=43 velocity=34 time=0
note_on channel=0 note=43 velocity=0 time=120
note_on channel=0 note=48 velocity=0 time=0
note_on channel=0 note=47 velocity=40 time=0
note_on channel=0 note=31 velocity=33 time=0
note_on channel=0 note=31 velocity=0 time=120
note_on channel=0 note=47 velocity=0 time=0
note_on channel=0 note=55 velocity=34 time=0
note_on channel=0 note=43 velocity=33 time=0
note_on channel=0 note=43 velocity=0 time=120
note_on channel=0 note=55 velocity=0 time=0
note_on channel=0 note=50 velocity=34 time=0
note_on channel=0 note=31 velocity=33 time=0
note_on channel=0 note=31 velocity=0 time=0
note_on channel=0 note=50 velocity=0 time=0
note_on channel=0 note=47 velocity=34 time=0
note_on channel=0 note=43 velocity=33 time=0
note_on channel=0 note=43 velocity=0 time=0
note_on channel=0 note=47 velocity=0 time=0
note_on channel=0 note=49 velocity=40 time=0
note_on channel=0 note=31 velocity=33 time=0
note_on channel=0 note=31 velocity=0 time=120
note_on channel=0 note=49 velocity=0 time=0
note_on channel=0 note=56 velocity=34 time=0
note_on channel=0 note=43 velocity=33 time=0
note_on channel=0 note=43 velocity=0 time=120
note_on channel=0 note=56 velocity=0 time=0
note_on channel=0 note=52 velocity=34 time=0
note_on channel=0 note=31 velocity=33 time=0
note_on channel=0 note=31 velocity=0 time=120
note_on channel=0 note=52 velocity=0 time=0
note_on channel=0 note=49 velocity=34 time=0
note_on channel=0 note=43 velocity=33 time=0
note_on channel=0 note=43 velocity=0 time=120
note_on channel=0 note=49 velocity=0 time=0
note_on channel=0 note=50 velocity=40 time=0
note_on channel=0 note=31 velocity=33 time=0
note_on channel=0 note=31 velocity=0 time=120
note_on channel=0 note=50 velocity=0 time=0
note_on channel=0 note=56 velocity=34 time=0
note_on channel=0 note=43 velocity=33 time=0
note_on channel=0 note=43 velocity=0 time=120
note_on channel=0 note=56 velocity=0 time=0
note_on channel=0 note=53 velocity=34 time=0
note_on channel=0 note=31 velocity=33 time=0
note_on channel=0 note=31 velocity=0 time=120
note_on channel=0 note=53 velocity=0 time=0
note_on channel=0 note=50 velocity=34 time=0
note_on channel=0 note=43 velocity=33 time=0
note_on channel=0 note=43 velocity=0 time=120
note_on channel=0 note=50 velocity=0 time=0
note_on channel=0 note=48 velocity=39 time=0
note_on channel=0 note=31 velocity=33 time=0
note_on channel=0 note=31 velocity=0 time=120
note_on channel=0 note=48 velocity=0 time=0
note_on channel=0 note=56 velocity=34 time=0
note_on channel=0 note=43 velocity=33 time=0
note_on channel=0 note=43 velocity=0 time=0
note_on channel=0 note=56 velocity=0 time=0
note_on channel=0 note=51 velocity=34 time=0
note_on channel=0 note=31 velocity=33 time=0
note_on channel=0 note=31 velocity=0 time=0
note_on channel=0 note=51 velocity=0 time=0
note_on channel=0 note=48 velocity=34 time=0
note_on channel=0 note=43 velocity=33 time=0
note_on channel=0 note=43 velocity=0 time=0
note_on channel=0 note=48 velocity=0 time=0
note_on channel=0 note=47 velocity=34 time=0
note_on channel=0 note=50 velocity=34 time=0
note_on channel=0 note=55 velocity=34 time=0
note_on channel=0 note=31 velocity=55 time=0
note_on channel=0 note=43 velocity=50 time=120
note_on channel=0 note=31 velocity=0 time=108
note_on channel=0 note=55 velocity=0 time=0
note_on channel=0 note=47 velocity=0 time=0
note_on channel=0 note=50 velocity=0 time=0
note_on channel=0 note=43 velocity=0 time=0
note_on channel=0 note=64 velocity=55 time=0
note_on channel=0 note=31 velocity=53 time=0
note_on channel=0 note=64 velocity=0 time=90
note_on channel=0 note=43 velocity=47 time=30
note_on channel=0 note=31 velocity=0 time=108
note_on channel=0 note=43 velocity=0 time=12
note_on channel=0 note=65 velocity=58 time=0
note_on channel=0 note=31 velocity=53 time=0
note_on channel=0 note=65 velocity=0 time=90
note_on channel=0 note=43 velocity=47 time=30
note_on channel=0 note=31 velocity=0 time=108
note_on channel=0 note=43 velocity=0 time=12
note_on channel=0 note=64 velocity=47 time=0
note_on channel=0 note=73 velocity=56 time=0
note_on channel=0 note=31 velocity=52 time=0
note_on channel=0 note=73 velocity=0 time=90
note_on channel=0 note=64 velocity=0 time=0
note_on channel=0 note=43 velocity=48 time=30
note_on channel=0 note=31 velocity=0 time=108
note_on channel=0 note=43 velocity=0 time=12
note_on channel=0 note=65 velocity=51 time=0
note_on channel=0 note=74 velocity=61 time=0
note_on channel=0 note=31 velocity=50 time=0
note_on channel=0 note=74 velocity=0 time=90
note_on channel=0 note=65 velocity=0 time=0
note_on channel=0 note=43 velocity=53 time=30
note_on channel=0 note=31 velocity=0 time=108
note_on channel=0 note=43 velocity=0 time=0
note_on channel=0 note=73 velocity=56 time=0
note_on channel=0 note=76 velocity=66 time=0
note_on channel=0 note=31 velocity=54 time=0
note_on channel=0 note=76 velocity=0 time=90
note_on channel=0 note=73 velocity=0 time=0
note_on channel=0 note=43 velocity=54 time=30
note_on channel=0 note=31 velocity=0 time=108
note_on channel=0 note=43 velocity=0 time=12
note_on channel=0 note=74 velocity=60 time=0
note_on channel=0 note=77 velocity=71 time=0
note_on channel=0 note=31 velocity=56 time=0
note_on channel=0 note=77 velocity=0 time=90
note_on channel=0 note=74 velocity=0 time=0
note_on channel=0 note=43 velocity=58 time=30
note_on channel=0 note=31 velocity=0 time=108
note_on channel=0 note=43 velocity=0 time=12
note_on channel=0 note=76 velocity=62 time=0
note_on channel=0 note=85 velocity=73 time=0
note_on channel=0 note=31 velocity=62 time=0
note_on channel=0 note=85 velocity=0 time=90
note_on channel=0 note=76 velocity=0 time=0
note_on channel=0 note=43 velocity=57 time=30
note_on channel=0 note=31 velocity=0 time=108
note_on channel=0 note=43 velocity=0 time=0
note_on channel=0 note=77 velocity=62 time=0
note_on channel=0 note=86 velocity=73 time=0
note_on channel=0 note=31 velocity=69 time=0
note_on channel=0 note=86 velocity=0 time=90
note_on channel=0 note=77 velocity=0 time=0
note_on channel=0 note=85 velocity=77 time=0
note_on channel=0 note=88 velocity=77 time=0
note_on channel=0 note=43 velocity=62 time=0
note_on channel=0 note=88 velocity=0 time=90
note_on channel=0 note=85 velocity=0 time=0
note_on channel=0 note=31 velocity=0 time=0
note_on channel=0 note=86 velocity=82 time=0
note_on channel=0 note=89 velocity=82 time=0
note_on channel=0 note=35 velocity=67 time=0
note_on channel=0 note=43 velocity=0 time=240
note_on channel=0 note=43 velocity=62 time=0
note_on channel=0 note=35 velocity=0 time=240
note_on channel=0 note=36 velocity=67 time=0
note_on channel=0 note=43 velocity=0 time=240
note_on channel=0 note=43 velocity=62 time=0
note_on channel=0 note=86 velocity=0 time=0
note_on channel=0 note=36 velocity=0 time=0
note_on channel=0 note=89 velocity=0 time=0
note_on channel=0 note=84 velocity=58 time=0
note_on channel=0 note=87 velocity=58 time=0
note_on channel=0 note=30 velocity=64 time=0
note_on channel=0 note=87 velocity=0 time=40
note_on channel=0 note=89 velocity=54 time=0
note_on channel=0 note=89 velocity=0 time=60
note_on channel=0 note=87 velocity=54 time=0
note_on channel=0 note=87 velocity=0 time=60
note_on channel=0 note=89 velocity=54 time=0
note_on channel=0 note=89 velocity=0 time=60
note_on channel=0 note=43 velocity=0 time=0
note_on channel=0 note=87 velocity=59 time=0
note_on channel=0 note=43 velocity=62 time=0
note_on channel=0 note=87 velocity=0 time=60
note_on channel=0 note=89 velocity=54 time=0
note_on channel=0 note=89 velocity=0 time=60
note_on channel=0 note=87 velocity=54 time=0
note_on channel=0 note=87 velocity=0 time=60
note_on channel=0 note=89 velocity=54 time=0
note_on channel=0 note=89 velocity=0 time=0
note_on channel=0 note=43 velocity=0 time=0
note_on channel=0 note=84 velocity=0 time=0
note_on channel=0 note=30 velocity=0 time=0
note_on channel=0 note=83 velocity=59 time=0
note_on channel=0 note=86 velocity=59 time=0
note_on channel=0 note=31 velocity=33 time=0
note_on channel=0 note=31 velocity=0 time=120
note_on channel=0 note=43 velocity=33 time=0
note_on channel=0 note=43 velocity=0 time=120
note_on channel=0 note=86 velocity=0 time=0
note_on channel=0 note=83 velocity=0 time=0
note_on channel=0 note=31 velocity=34 time=0
note_on channel=0 note=31 velocity=0 time=120
note_on channel=0 note=43 velocity=34 time=0
note_on channel=0 note=43 velocity=0 time=0
note_on channel=0 note=49 velocity=40 time=0
note_on channel=0 note=31 velocity=34 time=0
note_on channel=0 note=31 velocity=0 time=120
note_on channel=0 note=49 velocity=0 time=0
note_on channel=0 note=56 velocity=34 time=0
note_on channel=0 note=43 velocity=34 time=0
note_on channel=0 note=43 velocity=0 time=120
note_on channel=0 note=56 velocity=0 time=0
note_on channel=0 note=52 velocity=34 time=0
note_on channel=0 note=31 velocity=34 time=0
note_on channel=0 note=31 velocity=0 time=120
note_on channel=0 note=52 velocity=0 time=0
note_on channel=0 note=49 velocity=34 time=0
note_on channel=0 note=43 velocity=34 time=0
note_on channel=0 note=43 velocity=0 time=120
note_on channel=0 note=49 velocity=0 time=0
note_on channel=0 note=50 velocity=41 time=0
note_on channel=0 note=31 velocity=34 time=0
note_on channel=0 note=31 velocity=0 time=120
note_on channel=0 note=50 velocity=0 time=0
note_on channel=0 note=56 velocity=34 time=0
note_on channel=0 note=43 velocity=34 time=0
note_on channel=0 note=43 velocity=0 time=120
note_on channel=0 note=56 velocity=0 time=0
note_on channel=0 note=53 velocity=34 time=0
note_on channel=0 note=31 velocity=34 time=0
note_on channel=0 note=31 velocity=0 time=120
note_on channel=0 note=53 velocity=0 time=0
note_on channel=0 note=50 velocity=34 time=0
note_on channel=0 note=43 velocity=34 time=0
note_on channel=0 note=43 velocity=0 time=120
note_on channel=0 note=50 velocity=0 time=0
note_on channel=0 note=48 velocity=41 time=0
note_on channel=0 note=31 velocity=34 time=0
note_on channel=0 note=31 velocity=0 time=120
note_on channel=0 note=48 velocity=0 time=0
note_on channel=0 note=56 velocity=34 time=0
note_on channel=0 note=43 velocity=34 time=0
note_on channel=0 note=43 velocity=0 time=120
note_on channel=0 note=56 velocity=0 time=0
note_on channel=0 note=51 velocity=34 time=0
note_on channel=0 note=31 velocity=34 time=0
note_on channel=0 note=31 velocity=0 time=120
note_on channel=0 note=51 velocity=0 time=0
note_on channel=0 note=48 velocity=34 time=0
note_on channel=0 note=43 velocity=34 time=0
note_on channel=0 note=43 velocity=0 time=120
note_on channel=0 note=48 velocity=0 time=0
note_on channel=0 note=47 velocity=40 time=0
note_on channel=0 note=31 velocity=33 time=0
note_on channel=0 note=31 velocity=0 time=120
note_on channel=0 note=47 velocity=0 time=0
note_on channel=0 note=55 velocity=34 time=0
note_on channel=0 note=43 velocity=33 time=0
note_on channel=0 note=43 velocity=0 time=120
note_on channel=0 note=55 velocity=0 time=0
note_on channel=0 note=50 velocity=34 time=0
note_on channel=0 note=31 velocity=33 time=0
note_on channel=0 note=31 velocity=0 time=0
note_on channel=0 note=50 velocity=0 time=0
note_on channel=0 note=47 velocity=34 time=0
note_on channel=0 note=43 velocity=33 time=0
note_on channel=0 note=43 velocity=0 time=0
note_on channel=0 note=47 velocity=0 time=0
note_on channel=0 note=49 velocity=40 time=0
note_on channel=0 note=31 velocity=33 time=0
note_on channel=0 note=31 velocity=0 time=120
note_on channel=0 note=49 velocity=0 time=0
note_on channel=0 note=56 velocity=34 time=0
note_on channel=0 note=43 velocity=33 time=0
note_on channel=0 note=43 velocity=0 time=120
note_on channel=0 note=56 velocity=0 time=0
note_on channel=0 note=52 velocity=34 time=0
note_on channel=0 note=31 velocity=33 time=0
note_on channel=0 note=31 velocity=0 time=120
note_on channel=0 note=52 velocity=0 time=0
note_on channel=0 note=49 velocity=34 time=0
note_on channel=0 note=43 velocity=33 time=0
note_on channel=0 note=43 velocity=0 time=120
note_on channel=0 note=49 velocity=0 time=0
note_on channel=0 note=50 velocity=40 time=0
note_on channel=0 note=31 velocity=33 time=0
note_on channel=0 note=31 velocity=0 time=120
note_on channel=0 note=50 velocity=0 time=0
note_on channel=0 note=56 velocity=34 time=0
note_on channel=0 note=43 velocity=33 time=0
note_on channel=0 note=43 velocity=0 time=120
note_on channel=0 note=56 velocity=0 time=0
note_on channel=0 note=53 velocity=34 time=0
note_on channel=0 note=31 velocity=33 time=0
note_on channel=0 note=31 velocity=0 time=120
note_on channel=0 note=53 velocity=0 time=0
note_on channel=0 note=50 velocity=34 time=0
note_on channel=0 note=43 velocity=33 time=0
note_on channel=0 note=43 velocity=0 time=120
note_on channel=0 note=50 velocity=0 time=0
note_on channel=0 note=48 velocity=39 time=0
note_on channel=0 note=31 velocity=33 time=0
note_on channel=0 note=31 velocity=0 time=120
note_on channel=0 note=48 velocity=0 time=0
note_on channel=0 note=56 velocity=34 time=0
note_on channel=0 note=43 velocity=33 time=0
note_on channel=0 note=43 velocity=0 time=0
note_on channel=0 note=56 velocity=0 time=0
note_on channel=0 note=51 velocity=34 time=0
note_on channel=0 note=31 velocity=33 time=0
note_on channel=0 note=31 velocity=0 time=0
note_on channel=0 note=51 velocity=0 time=0
note_on channel=0 note=48 velocity=34 time=0
note_on channel=0 note=43 velocity=33 time=0
note_on channel=0 note=43 velocity=0 time=0
note_on channel=0 note=48 velocity=0 time=0
note_on channel=0 note=47 velocity=34 time=0
note_on channel=0 note=50 velocity=34 time=0
note_on channel=0 note=55 velocity=34 time=0
note_on channel=0 note=31 velocity=55 time=0
note_on channel=0 note=43 velocity=50 time=120
note_on channel=0 note=31 velocity=0 time=108
note_on channel=0 note=55 velocity=0 time=0
note_on channel=0 note=47 velocity=0 time=0
note_on channel=0 note=50 velocity=0 time=0
note_on channel=0 note=43 velocity=0 time=0
note_on channel=0 note=64 velocity=55 time=0
note_on channel=0 note=31 velocity=53 time=0
note_on channel=0 note=64 velocity=0 time=90
note_on channel=0 note=43 velocity=47 time=30
note_on channel=0 note=31 velocity=0 time=108
note_on channel=0 note=43 velocity=0 time=12
note_on channel=0 note=65 velocity=58 time=0
note_on channel=0 note=31 velocity=53 time=0
note_on channel=0 note=65 velocity=0 time=90
note_on channel=0 note=43 velocity=47 time=30
note_on channel=0 note=31 velocity=0 time=108
note_on channel=0 note=43 velocity=0 time=12
note_on channel=0 note=64 velocity=47 time=0
note_on channel=0 note=73 velocity=56 time=0
note_on channel=0 note=31 velocity=52 time=0
note_on channel=0 note=73 velocity=0 time=90
note_on channel=0 note=64 velocity=0 time=0
note_on channel=0 note=43 velocity=48 time=30
note_on channel=0 note=31 velocity=0 time=108
note_on channel=0 note=43 velocity=0 time=12
note_on channel=0 note=65 velocity=51 time=0
note_on channel=0 note=74 velocity=61 time=0
note_on channel=0 note=31 velocity=50 time=0
note_on channel=0 note=74 velocity=0 time=90
note_on channel=0 note=65 velocity=0 time=0
note_on channel=0 note=43 velocity=53 time=30
note_on channel=0 note=31 velocity=0 time=108
note_on channel=0 note=43 velocity=0 time=0
note_on channel=0 note=73 velocity=56 time=0
note_on channel=0 note=76 velocity=66 time=0
note_on channel=0 note=31 velocity=54 time=0
note_on channel=0 note=76 velocity=0 time=90
note_on channel=0 note=73 velocity=0 time=0
note_on channel=0 note=43 velocity=54 time=30
note_on channel=0 note=31 velocity=0 time=108
note_on channel=0 note=43 velocity=0 time=12
note_on channel=0 note=74 velocity=60 time=0
note_on channel=0 note=77 velocity=71 time=0
note_on channel=0 note=31 velocity=56 time=0
note_on channel=0 note=77 velocity=0 time=90
note_on channel=0 note=74 velocity=0 time=0
note_on channel=0 note=43 velocity=58 time=30
note_on channel=0 note=31 velocity=0 time=108
note_on channel=0 note=43 velocity=0 time=12
note_on channel=0 note=76 velocity=62 time=0
note_on channel=0 note=85 velocity=73 time=0
note_on channel=0 note=31 velocity=62 time=0
note_on channel=0 note=85 velocity=0 time=90
note_on channel=0 note=76 velocity=0 time=0
note_on channel=0 note=43 velocity=57 time=30
note_on channel=0 note=31 velocity=0 time=108
note_on channel=0 note=43 velocity=0 time=0
note_on channel=0 note=77 velocity=62 time=0
note_on channel=0 note=86 velocity=73 time=0
note_on channel=0 note=31 velocity=69 time=0
note_on channel=0 note=86 velocity=0 time=90
note_on channel=0 note=77 velocity=0 time=0
note_on channel=0 note=85 velocity=77 time=0
note_on channel=0 note=88 velocity=77 time=0
note_on channel=0 note=43 velocity=62 time=0
note_on channel=0 note=88 velocity=0 time=90
note_on channel=0 note=85 velocity=0 time=0
note_on channel=0 note=31 velocity=0 time=0
note_on channel=0 note=86 velocity=82 time=0
note_on channel=0 note=89 velocity=82 time=0
note_on channel=0 note=35 velocity=67 time=0
note_on channel=0 note=43 velocity=0 time=240
note_on channel=0 note=43 velocity=62 time=0
note_on channel=0 note=35 velocity=0 time=240
note_on channel=0 note=36 velocity=67 time=0
note_on channel=0 note=43 velocity=0 time=240
note_on channel=0 note=43 velocity=62 time=0
note_on channel=0 note=86 velocity=0 time=0
note_on channel=0 note=36 velocity=0 time=0
note_on channel=0 note=89 velocity=0 time=0
note_on channel=0 note=84 velocity=58 time=0
note_on channel=0 note=87 velocity=58 time=0
note_on channel=0 note=30 velocity=64 time=0
note_on channel=0 note=87 velocity=0 time=31
note_on channel=0 note=89 velocity=54 time=0
note_on channel=0 note=89 velocity=0 time=60
note_on channel=0 note=87 velocity=54 time=0
note_on channel=0 note=87 velocity=0 time=60
note_on channel=0 note=89 velocity=54 time=0
note_on channel=0 note=89 velocity=0 time=60
note_on channel=0 note=43 velocity=0 time=0
note_on channel=0 note=87 velocity=59 time=0
note_on channel=0 note=43 velocity=62 time=0
note_on channel=0 note=87 velocity=0 time=40
note_on channel=0 note=89 velocity=54 time=0
note_on channel=0 note=89 velocity=0 time=40
note_on channel=0 note=87 velocity=54 time=0
note_on channel=0 note=87 velocity=0 time=40
note_on channel=0 note=86 velocity=54 time=0
note_on channel=0 note=86 velocity=0 time=60
note_on channel=0 note=87 velocity=54 time=0
note_on channel=0 note=87 velocity=0 time=0
note_on channel=0 note=30 velocity=0 time=0
note_on channel=0 note=84 velocity=0 time=0
note_on channel=0 note=43 velocity=0 time=0
note_on channel=0 note=83 velocity=62 time=0
note_on channel=0 note=86 velocity=73 time=0
note_on channel=0 note=31 velocity=69 time=0
note_on channel=0 note=86 velocity=0 time=84
note_on channel=0 note=83 velocity=0 time=0
note_on channel=0 note=85 velocity=77 time=0
note_on channel=0 note=88 velocity=77 time=0
note_on channel=0 note=43 velocity=62 time=0
note_on channel=0 note=88 velocity=0 time=90
note_on channel=0 note=85 velocity=0 time=0
note_on channel=0 note=31 velocity=0 time=0
note_on channel=0 note=86 velocity=82 time=0
note_on channel=0 note=89 velocity=82 time=0
note_on channel=0 note=35 velocity=67 time=0
note_on channel=0 note=43 velocity=0 time=240
note_on channel=0 note=43 velocity=62 time=0
note_on channel=0 note=35 velocity=0 time=240
note_on channel=0 note=36 velocity=67 time=0
note_on channel=0 note=43 velocity=0 time=240
note_on channel=0 note=43 velocity=62 time=0
note_on channel=0 note=86 velocity=0 time=0
note_on channel=0 note=36 velocity=0 time=0
note_on channel=0 note=89 velocity=0 time=0
note_on channel=0 note=84 velocity=58 time=0
note_on channel=0 note=87 velocity=58 time=0
note_on channel=0 note=30 velocity=64 time=0
note_on channel=0 note=87 velocity=0 time=23
note_on channel=0 note=89 velocity=54 time=0
note_on channel=0 note=89 velocity=0 time=60
note_on channel=0 note=87 velocity=54 time=0
note_on channel=0 note=87 velocity=0 time=60
note_on channel=0 note=89 velocity=54 time=0
note_on channel=0 note=89 velocity=0 time=60
note_on channel=0 note=43 velocity=0 time=0
note_on channel=0 note=87 velocity=59 time=0
note_on channel=0 note=43 velocity=62 time=0
note_on channel=0 note=87 velocity=0 time=40
note_on channel=0 note=89 velocity=54 time=0
note_on channel=0 note=89 velocity=0 time=40
note_on channel=0 note=87 velocity=54 time=0
note_on channel=0 note=87 velocity=0 time=40
note_on channel=0 note=86 velocity=54 time=0
note_on channel=0 note=86 velocity=0 time=60
note_on channel=0 note=87 velocity=54 time=0
note_on channel=0 note=87 velocity=0 time=0
note_on channel=0 note=30 velocity=0 time=0
note_on channel=0 note=84 velocity=0 time=0
note_on channel=0 note=43 velocity=0 time=0
note_on channel=0 note=83 velocity=62 time=0
note_on channel=0 note=86 velocity=73 time=0
note_on channel=0 note=31 velocity=69 time=0
note_on channel=0 note=86 velocity=0 time=83
note_on channel=0 note=83 velocity=0 time=0
note_on channel=0 note=85 velocity=77 time=0
note_on channel=0 note=88 velocity=77 time=0
note_on channel=0 note=43 velocity=62 time=0
note_on channel=0 note=88 velocity=0 time=90
note_on channel=0 note=85 velocity=0 time=0
note_on channel=0 note=31 velocity=0 time=0
note_on channel=0 note=86 velocity=82 time=0
note_on channel=0 note=89 velocity=82 time=0
note_on channel=0 note=35 velocity=67 time=0
note_on channel=0 note=43 velocity=0 time=240
note_on channel=0 note=43 velocity=62 time=0
note_on channel=0 note=35 velocity=0 time=240
note_on channel=0 note=36 velocity=67 time=0
note_on channel=0 note=43 velocity=0 time=240
note_on channel=0 note=43 velocity=62 time=0
note_on channel=0 note=86 velocity=0 time=0
note_on channel=0 note=36 velocity=0 time=0
note_on channel=0 note=89 velocity=0 time=0
note_on channel=0 note=84 velocity=58 time=0
note_on channel=0 note=87 velocity=58 time=0
note_on channel=0 note=30 velocity=64 time=0
note_on channel=0 note=87 velocity=0 time=23
note_on channel=0 note=89 velocity=54 time=0
note_on channel=0 note=89 velocity=0 time=60
note_on channel=0 note=87 velocity=54 time=0
note_on channel=0 note=87 velocity=0 time=60
note_on channel=0 note=89 velocity=54 time=0
note_on channel=0 note=89 velocity=0 time=60
note_on channel=0 note=43 velocity=0 time=0
note_on channel=0 note=87 velocity=59 time=0
note_on channel=0 note=43 velocity=62 time=0
note_on channel=0 note=87 velocity=0 time=40
note_on channel=0 note=89 velocity=54 time=0
note_on channel=0 note=89 velocity=0 time=40
note_on channel=0 note=87 velocity=54 time=0
note_on channel=0 note=87 velocity=0 time=40
note_on channel=0 note=86 velocity=54 time=0
note_on channel=0 note=86 velocity=0 time=60
note_on channel=0 note=87 velocity=54 time=0
note_on channel=0 note=87 velocity=0 time=0
note_on channel=0 note=30 velocity=0 time=0
note_on channel=0 note=84 velocity=0 time=0
note_on channel=0 note=43 velocity=0 time=0
note_on channel=0 note=83 velocity=58 time=0
note_on channel=0 note=86 velocity=58 time=0
note_on channel=0 note=86 velocity=0 time=106
note_on channel=0 note=83 velocity=0 time=0
note_on channel=0 note=89 velocity=53 time=0
note_on channel=0 note=89 velocity=0 time=120
note_on channel=0 note=86 velocity=54 time=0
note_on channel=0 note=86 velocity=0 time=120
note_on channel=0 note=84 velocity=54 time=0
note_on channel=0 note=84 velocity=0 time=120
note_on channel=0 note=83 velocity=58 time=0
note_on channel=0 note=83 velocity=0 time=120
note_on channel=0 note=89 velocity=53 time=0
note_on channel=0 note=89 velocity=0 time=120
note_on channel=0 note=86 velocity=53 time=0
note_on channel=0 note=86 velocity=0 time=120
note_on channel=0 note=84 velocity=53 time=0
note_on channel=0 note=84 velocity=0 time=120
note_on channel=0 note=83 velocity=58 time=0
note_on channel=0 note=83 velocity=0 time=120
note_on channel=0 note=89 velocity=55 time=0
note_on channel=0 note=89 velocity=0 time=120
note_on channel=0 note=86 velocity=55 time=0
note_on channel=0 note=86 velocity=0 time=120
note_on channel=0 note=84 velocity=55 time=0
note_on channel=0 note=84 velocity=0 time=120
note_on channel=0 note=83 velocity=58 time=0
note_on channel=0 note=83 velocity=0 time=120
note_on channel=0 note=86 velocity=55 time=0
note_on channel=0 note=86 velocity=0 time=120
note_on channel=0 note=83 velocity=55 time=0
note_on channel=0 note=83 velocity=0 time=120
note_on channel=0 note=79 velocity=55 time=0
note_on channel=0 note=79 velocity=0 time=120
note_on channel=0 note=80 velocity=58 time=0
note_on channel=0 note=80 velocity=0 time=120
note_on channel=0 note=82 velocity=55 time=0
note_on channel=0 note=82 velocity=0 time=120
note_on channel=0 note=80 velocity=55 time=0
note_on channel=0 note=80 velocity=0 time=120
note_on channel=0 note=79 velocity=55 time=0
note_on channel=0 note=79 velocity=0 time=120
note_on channel=0 note=77 velocity=58 time=0
note_on channel=0 note=77 velocity=0 time=120
note_on channel=0 note=80 velocity=55 time=0
note_on channel=0 note=80 velocity=0 time=120
note_on channel=0 note=77 velocity=55 time=0
note_on channel=0 note=77 velocity=0 time=120
note_on channel=0 note=75 velocity=55 time=0
note_on channel=0 note=75 velocity=0 time=120
note_on channel=0 note=74 velocity=58 time=0
note_on channel=0 note=74 velocity=0 time=120
note_on channel=0 note=77 velocity=54 time=0
note_on channel=0 note=77 velocity=0 time=120
note_on channel=0 note=74 velocity=54 time=0
note_on channel=0 note=74 velocity=0 time=120
note_on channel=0 note=72 velocity=54 time=0
note_on channel=0 note=72 velocity=0 time=120
note_on channel=0 note=71 velocity=58 time=0
note_on channel=0 note=71 velocity=0 time=120
note_on channel=0 note=74 velocity=54 time=0
note_on channel=0 note=74 velocity=0 time=120
note_on channel=0 note=71 velocity=54 time=0
note_on channel=0 note=71 velocity=0 time=120
note_on channel=0 note=67 velocity=54 time=0
note_on channel=0 note=67 velocity=0 time=120
note_on channel=0 note=68 velocity=58 time=0
note_on channel=0 note=68 velocity=0 time=120
note_on channel=0 note=70 velocity=55 time=0
note_on channel=0 note=70 velocity=0 time=120
note_on channel=0 note=68 velocity=55 time=0
note_on channel=0 note=68 velocity=0 time=120
note_on channel=0 note=67 velocity=55 time=0
note_on channel=0 note=67 velocity=0 time=120
note_on channel=0 note=65 velocity=58 time=0
note_on channel=0 note=65 velocity=0 time=120
note_on channel=0 note=68 velocity=58 time=0
note_on channel=0 note=68 velocity=0 time=120
note_on channel=0 note=65 velocity=55 time=0
note_on channel=0 note=65 velocity=0 time=120
note_on channel=0 note=63 velocity=55 time=0
note_on channel=0 note=63 velocity=0 time=120
note_on channel=0 note=62 velocity=58 time=0
note_on channel=0 note=62 velocity=0 time=120
note_on channel=0 note=65 velocity=55 time=0
note_on channel=0 note=65 velocity=0 time=120
note_on channel=0 note=62 velocity=55 time=0
note_on channel=0 note=62 velocity=0 time=120
note_on channel=0 note=60 velocity=55 time=0
note_on channel=0 note=60 velocity=0 time=120
note_on channel=0 note=59 velocity=58 time=0
note_on channel=0 note=59 velocity=0 time=120
note_on channel=0 note=62 velocity=55 time=0
note_on channel=0 note=62 velocity=0 time=120
note_on channel=0 note=59 velocity=55 time=0
note_on channel=0 note=59 velocity=0 time=120
note_on channel=0 note=55 velocity=55 time=0
note_on channel=0 note=55 velocity=0 time=120
note_on channel=0 note=56 velocity=58 time=0
note_on channel=0 note=56 velocity=0 time=120
note_on channel=0 note=58 velocity=54 time=0
note_on channel=0 note=58 velocity=0 time=120
note_on channel=0 note=56 velocity=54 time=0
note_on channel=0 note=56 velocity=0 time=120
note_on channel=0 note=55 velocity=54 time=0
note_on channel=0 note=55 velocity=0 time=120
note_on channel=0 note=53 velocity=58 time=0
note_on channel=0 note=53 velocity=0 time=120
note_on channel=0 note=51 velocity=53 time=0
note_on channel=0 note=51 velocity=0 time=120
note_on channel=0 note=50 velocity=53 time=0
note_on channel=0 note=50 velocity=0 time=120
note_on channel=0 note=48 velocity=53 time=0
note_on channel=0 note=48 velocity=0 time=120
note_on channel=0 note=47 velocity=58 time=0
note_on channel=0 note=47 velocity=0 time=120
note_on channel=0 note=48 velocity=55 time=0
note_on channel=0 note=48 velocity=0 time=120
note_on channel=0 note=47 velocity=55 time=0
note_on channel=0 note=47 velocity=0 time=120
note_on channel=0 note=44 velocity=56 time=0
note_on channel=0 note=44 velocity=0 time=120
note_on channel=0 note=43 velocity=58 time=0
note_on channel=0 note=43 velocity=0 time=120
note_on channel=0 note=41 velocity=55 time=0
note_on channel=0 note=41 velocity=0 time=120
note_on channel=0 note=39 velocity=55 time=0
note_on channel=0 note=39 velocity=0 time=120
note_on channel=0 note=38 velocity=55 time=0
note_on channel=0 note=38 velocity=0 time=0
note_on channel=0 note=60 velocity=50 time=0
note_on channel=0 note=36 velocity=44 time=0
note_on channel=0 note=48 velocity=41 time=0
note_on channel=0 note=36 velocity=0 time=48
note_on channel=0 note=48 velocity=0 time=0
note_on channel=0 note=36 velocity=44 time=0
note_on channel=0 note=48 velocity=41 time=0
note_on channel=0 note=36 velocity=0 time=48
note_on channel=0 note=48 velocity=0 time=0
note_on channel=0 note=36 velocity=44 time=0
note_on channel=0 note=48 velocity=41 time=0
note_on channel=0 note=36 velocity=0 time=28
note_on channel=0 note=48 velocity=0 time=0
note_on channel=0 note=60 velocity=0 time=0
note_on channel=0 note=58 velocity=52 time=0
note_on channel=0 note=64 velocity=52 time=0
note_on channel=0 note=36 velocity=45 time=0
note_on channel=0 note=64 velocity=0 time=30
note_on channel=0 note=58 velocity=0 time=0
note_on channel=0 note=48 velocity=41 time=0
note_on channel=0 note=36 velocity=0 time=108
note_on channel=0 note=48 velocity=0 time=12
note_on channel=0 note=56 velocity=54 time=0
note_on channel=0 note=65 velocity=54 time=0
note_on channel=0 note=36 velocity=45 time=0
note_on channel=0 note=65 velocity=0 time=90
note_on channel=0 note=56 velocity=0 time=0
note_on channel=0 note=48 velocity=46 time=30
note_on channel=0 note=36 velocity=0 time=108
note_on channel=0 note=48 velocity=0 time=0
note_on channel=0 note=64 velocity=56 time=0
note_on channel=0 note=67 velocity=56 time=0
note_on channel=0 note=36 velocity=47 time=0
note_on channel=0 note=67 velocity=0 time=90
note_on channel=0 note=64 velocity=0 time=0
note_on channel=0 note=48 velocity=47 time=30
note_on channel=0 note=36 velocity=0 time=108
note_on channel=0 note=48 velocity=0 time=12
note_on channel=0 note=65 velocity=57 time=0
note_on channel=0 note=68 velocity=57 time=0
note_on channel=0 note=36 velocity=49 time=0
note_on channel=0 note=68 velocity=0 time=90
note_on channel=0 note=65 velocity=0 time=0
note_on channel=0 note=48 velocity=50 time=30
note_on channel=0 note=36 velocity=0 time=108
note_on channel=0 note=48 velocity=0 time=0
note_on channel=0 note=62 velocity=59 time=0
note_on channel=0 note=71 velocity=59 time=0
note_on channel=0 note=36 velocity=51 time=0
note_on channel=0 note=71 velocity=0 time=90
note_on channel=0 note=62 velocity=0 time=0
note_on channel=0 note=48 velocity=53 time=30
note_on channel=0 note=36 velocity=0 time=108
note_on channel=0 note=48 velocity=0 time=0
note_on channel=0 note=63 velocity=61 time=0
note_on channel=0 note=72 velocity=61 time=0
note_on channel=0 note=36 velocity=55 time=0
note_on channel=0 note=72 velocity=0 time=90
note_on channel=0 note=63 velocity=0 time=0
note_on channel=0 note=48 velocity=50 time=30
note_on channel=0 note=36 velocity=0 time=108
note_on channel=0 note=48 velocity=0 time=0
note_on channel=0 note=64 velocity=55 time=0
note_on channel=0 note=72 velocity=55 time=0
note_on channel=0 note=36 velocity=53 time=0
note_on channel=0 note=48 velocity=47 time=85
note_on channel=0 note=36 velocity=0 time=108
note_on channel=0 note=48 velocity=0 time=12
note_on channel=0 note=36 velocity=53 time=0
note_on channel=0 note=48 velocity=47 time=120
note_on channel=0 note=36 velocity=0 time=108
note_on channel=0 note=64 velocity=0 time=12
note_on channel=0 note=72 velocity=0 time=0
note_on channel=0 note=48 velocity=0 time=0
note_on channel=0 note=70 velocity=51 time=0
note_on channel=0 note=76 velocity=51 time=0
note_on channel=0 note=36 velocity=44 time=0
note_on channel=0 note=76 velocity=0 time=67
note_on channel=0 note=70 velocity=0 time=0
note_on channel=0 note=48 velocity=40 time=30
note_on channel=0 note=36 velocity=0 time=108
note_on channel=0 note=48 velocity=0 time=12
note_on channel=0 note=68 velocity=53 time=0
note_on channel=0 note=77 velocity=53 time=0
note_on channel=0 note=36 velocity=43 time=0
note_on channel=0 note=77 velocity=0 time=90
note_on channel=0 note=68 velocity=0 time=0
note_on channel=0 note=48 velocity=45 time=30
note_on channel=0 note=36 velocity=0 time=108
note_on channel=0 note=48 velocity=0 time=0
note_on channel=0 note=76 velocity=55 time=0
note_on channel=0 note=79 velocity=55 time=0
note_on channel=0 note=36 velocity=46 time=0
note_on channel=0 note=79 velocity=0 time=90
note_on channel=0 note=76 velocity=0 time=0
note_on channel=0 note=48 velocity=47 time=30
note_on channel=0 note=36 velocity=0 time=108
note_on channel=0 note=48 velocity=0 time=12
note_on channel=0 note=77 velocity=57 time=0
note_on channel=0 note=80 velocity=57 time=0
note_on channel=0 note=36 velocity=48 time=0
note_on channel=0 note=80 velocity=0 time=90
note_on channel=0 note=77 velocity=0 time=0
note_on channel=0 note=48 velocity=50 time=30
note_on channel=0 note=36 velocity=0 time=108
note_on channel=0 note=48 velocity=0 time=12
note_on channel=0 note=74 velocity=59 time=0
note_on channel=0 note=83 velocity=59 time=0
note_on channel=0 note=36 velocity=51 time=0
note_on channel=0 note=83 velocity=0 time=90
note_on channel=0 note=74 velocity=0 time=0
note_on channel=0 note=48 velocity=53 time=30
note_on channel=0 note=36 velocity=0 time=108
note_on channel=0 note=48 velocity=0 time=0
note_on channel=0 note=72 velocity=51 time=0
note_on channel=0 note=79 velocity=61 time=0
note_on channel=0 note=75 velocity=51 time=0
note_on channel=0 note=84 velocity=61 time=0
note_on channel=0 note=36 velocity=55 time=0
note_on channel=0 note=48 velocity=50 time=56
note_on channel=0 note=36 velocity=0 time=108
note_on channel=0 note=48 velocity=0 time=0
note_on channel=0 note=36 velocity=53 time=0
note_on channel=0 note=48 velocity=47 time=120
note_on channel=0 note=36 velocity=0 time=108
note_on channel=0 note=79 velocity=0 time=12
note_on channel=0 note=84 velocity=0 time=0
note_on channel=0 note=72 velocity=0 time=0
note_on channel=0 note=48 velocity=0 time=0
note_on channel=0 note=75 velocity=0 time=0
note_on channel=0 note=67 velocity=53 time=0
note_on channel=0 note=71 velocity=53 time=0
note_on channel=0 note=77 velocity=63 time=0
note_on channel=0 note=79 velocity=63 time=0
note_on channel=0 note=38 velocity=55 time=0
note_on channel=0 note=50 velocity=50 time=108
note_on channel=0 note=38 velocity=0 time=108
note_on channel=0 note=50 velocity=0 time=0
note_on channel=0 note=38 velocity=55 time=0
note_on channel=0 note=50 velocity=51 time=120
note_on channel=0 note=38 velocity=0 time=108
note_on channel=0 note=71 velocity=0 time=0
note_on channel=0 note=79 velocity=0 time=0
note_on channel=0 note=67 velocity=0 time=0
note_on channel=0 note=50 velocity=0 time=0
note_on channel=0 note=77 velocity=0 time=0
note_on channel=0 note=67 velocity=56 time=0
note_on channel=0 note=72 velocity=56 time=0
note_on channel=0 note=75 velocity=67 time=0
note_on channel=0 note=39 velocity=55 time=0
note_on channel=0 note=51 velocity=55 time=35
note_on channel=0 note=39 velocity=0 time=108
note_on channel=0 note=51 velocity=0 time=12
note_on channel=0 note=39 velocity=55 time=0
note_on channel=0 note=51 velocity=55 time=120
note_on channel=0 note=39 velocity=0 time=108
note_on channel=0 note=67 velocity=0 time=12
note_on channel=0 note=75 velocity=0 time=0
note_on channel=0 note=72 velocity=0 time=0
note_on channel=0 note=51 velocity=0 time=0
note_on channel=0 note=65 velocity=60 time=0
note_on channel=0 note=68 velocity=60 time=0
note_on channel=0 note=74 velocity=71 time=0
note_on channel=0 note=41 velocity=55 time=0
note_on channel=0 note=53 velocity=53 time=35
note_on channel=0 note=41 velocity=0 time=108
note_on channel=0 note=53 velocity=0 time=0
note_on channel=0 note=41 velocity=55 time=0
note_on channel=0 note=53 velocity=55 time=120
note_on channel=0 note=41 velocity=0 time=108
note_on channel=0 note=65 velocity=0 time=12
note_on channel=0 note=74 velocity=0 time=0
note_on channel=0 note=68 velocity=0 time=0
note_on channel=0 note=53 velocity=0 time=0
note_on channel=0 note=63 velocity=62 time=0
note_on channel=0 note=67 velocity=74 time=0
note_on channel=0 note=72 velocity=74 time=0
note_on channel=0 note=43 velocity=56 time=0
note_on channel=0 note=55 velocity=56 time=49
note_on channel=0 note=43 velocity=0 time=108
note_on channel=0 note=55 velocity=0 time=12
note_on channel=0 note=43 velocity=57 time=0
note_on channel=0 note=55 velocity=57 time=120
note_on channel=0 note=43 velocity=0 time=108
note_on channel=0 note=67 velocity=0 time=12
note_on channel=0 note=55 velocity=0 time=0
note_on channel=0 note=66 velocity=74 time=0
note_on channel=0 note=44 velocity=58 time=0
note_on channel=0 note=56 velocity=59 time=35
note_on channel=0 note=44 velocity=0 time=108
note_on channel=0 note=56 velocity=0 time=12
note_on channel=0 note=44 velocity=59 time=0
note_on channel=0 note=56 velocity=60 time=120
note_on channel=0 note=44 velocity=0 time=108
note_on channel=0 note=66 velocity=0 time=12
note_on channel=0 note=56 velocity=0 time=0
note_on channel=0 note=69 velocity=77 time=0
note_on channel=0 note=42 velocity=60 time=0
note_on channel=0 note=54 velocity=55 time=51
note_on channel=0 note=42 velocity=0 time=108
note_on channel=0 note=54 velocity=0 time=12
note_on channel=0 note=42 velocity=61 time=0
note_on channel=0 note=54 velocity=55 time=120
note_on channel=0 note=42 velocity=0 time=108
note_on channel=0 note=63 velocity=0 time=12
note_on channel=0 note=69 velocity=0 time=0
note_on channel=0 note=72 velocity=0 time=0
note_on channel=0 note=54 velocity=0 time=0
note_on channel=0 note=62 velocity=62 time=0
note_on channel=0 note=65 velocity=62 time=0
note_on channel=0 note=71 velocity=74 time=0
note_on channel=0 note=43 velocity=58 time=0
note_on channel=0 note=55 velocity=55 time=28
note_on channel=0 note=43 velocity=0 time=108
note_on channel=0 note=55 velocity=0 time=12
note_on channel=0 note=43 velocity=58 time=0
note_on channel=0 note=55 velocity=55 time=120
note_on channel=0 note=43 velocity=0 time=108
note_on channel=0 note=62 velocity=0 time=0
note_on channel=0 note=71 velocity=0 time=0
note_on channel=0 note=65 velocity=0 time=0
note_on channel=0 note=55 velocity=0 time=0
note_on channel=0 note=60 velocity=67 time=0
note_on channel=0 note=63 velocity=67 time=0
note_on channel=0 note=72 velocity=79 time=0
note_on channel=0 note=36 velocity=48 time=0
note_on channel=0 note=72 velocity=0 time=30
note_on channel=0 note=60 velocity=0 time=0
note_on channel=0 note=63 velocity=0 time=0
note_on channel=0 note=48 velocity=45 time=0
note_on channel=0 note=36 velocity=0 time=48
note_on channel=0 note=48 velocity=0 time=0
note_on channel=0 note=60 velocity=67 time=0
note_on channel=0 note=36 velocity=44 time=0
note_on channel=0 note=48 velocity=41 time=0
note_on channel=0 note=36 velocity=0 time=48
note_on channel=0 note=48 velocity=0 time=0
note_on channel=0 note=36 velocity=44 time=0
note_on channel=0 note=48 velocity=40 time=0
note_on channel=0 note=36 velocity=0 time=22
note_on channel=0 note=48 velocity=0 time=0
note_on channel=0 note=60 velocity=0 time=0
note_on channel=0 note=58 velocity=52 time=0
note_on channel=0 note=64 velocity=52 time=0
note_on channel=0 note=36 velocity=44 time=0
note_on channel=0 note=64 velocity=0 time=30
note_on channel=0 note=58 velocity=0 time=0
note_on channel=0 note=48 velocity=41 time=0
note_on channel=0 note=36 velocity=0 time=108
note_on channel=0 note=48 velocity=0 time=12
note_on channel=0 note=56 velocity=54 time=0
note_on channel=0 note=65 velocity=54 time=0
note_on channel=0 note=36 velocity=44 time=0
note_on channel=0 note=65 velocity=0 time=90
note_on channel=0 note=56 velocity=0 time=0
note_on channel=0 note=48 velocity=46 time=30
note_on channel=0 note=36 velocity=0 time=108
note_on channel=0 note=48 velocity=0 time=0
note_on channel=0 note=64 velocity=55 time=0
note_on channel=0 note=67 velocity=55 time=0
note_on channel=0 note=36 velocity=47 time=0
note_on channel=0 note=67 velocity=0 time=90
note_on channel=0 note=64 velocity=0 time=0
note_on channel=0 note=48 velocity=47 time=30
note_on channel=0 note=36 velocity=0 time=108
note_on channel=0 note=48 velocity=0 time=12
note_on channel=0 note=65 velocity=57 time=0
note_on channel=0 note=68 velocity=57 time=0
note_on channel=0 note=36 velocity=49 time=0
note_on channel=0 note=68 velocity=0 time=90
note_on channel=0 note=65 velocity=0 time=0
note_on channel=0 note=48 velocity=50 time=30
note_on channel=0 note=36 velocity=0 time=108
note_on channel=0 note=48 velocity=0 time=12
note_on channel=0 note=62 velocity=59 time=0
note_on channel=0 note=71 velocity=59 time=0
note_on channel=0 note=36 velocity=51 time=0
note_on channel=0 note=71 velocity=0 time=90
note_on channel=0 note=62 velocity=0 time=0
note_on channel=0 note=48 velocity=53 time=30
note_on channel=0 note=36 velocity=0 time=108
note_on channel=0 note=48 velocity=0 time=0
note_on channel=0 note=63 velocity=61 time=0
note_on channel=0 note=72 velocity=61 time=0
note_on channel=0 note=36 velocity=55 time=0
note_on channel=0 note=72 velocity=0 time=90
note_on channel=0 note=63 velocity=0 time=0
note_on channel=0 note=48 velocity=50 time=30
note_on channel=0 note=36 velocity=0 time=108
note_on channel=0 note=48 velocity=0 time=0
note_on channel=0 note=64 velocity=55 time=0
note_on channel=0 note=72 velocity=55 time=0
note_on channel=0 note=36 velocity=53 time=0
note_on channel=0 note=48 velocity=47 time=114
note_on channel=0 note=36 velocity=0 time=108
note_on channel=0 note=48 velocity=0 time=12
note_on channel=0 note=36 velocity=53 time=0
note_on channel=0 note=48 velocity=47 time=120
note_on channel=0 note=36 velocity=0 time=108
note_on channel=0 note=64 velocity=0 time=12
note_on channel=0 note=72 velocity=0 time=0
note_on channel=0 note=48 velocity=0 time=0
note_on channel=0 note=70 velocity=51 time=0
note_on channel=0 note=76 velocity=51 time=0
note_on channel=0 note=36 velocity=44 time=0
note_on channel=0 note=76 velocity=0 time=84
note_on channel=0 note=70 velocity=0 time=0
note_on channel=0 note=48 velocity=40 time=30
note_on channel=0 note=36 velocity=0 time=108
note_on channel=0 note=48 velocity=0 time=12
note_on channel=0 note=68 velocity=53 time=0
note_on channel=0 note=77 velocity=53 time=0
note_on channel=0 note=36 velocity=43 time=0
note_on channel=0 note=77 velocity=0 time=90
note_on channel=0 note=68 velocity=0 time=0
note_on channel=0 note=48 velocity=45 time=30
note_on channel=0 note=36 velocity=0 time=108
note_on channel=0 note=48 velocity=0 time=0
note_on channel=0 note=76 velocity=55 time=0
note_on channel=0 note=79 velocity=55 time=0
note_on channel=0 note=36 velocity=46 time=0
note_on channel=0 note=79 velocity=0 time=90
note_on channel=0 note=76 velocity=0 time=0
note_on channel=0 note=48 velocity=47 time=30
note_on channel=0 note=36 velocity=0 time=108
note_on channel=0 note=48 velocity=0 time=12
note_on channel=0 note=77 velocity=57 time=0
note_on channel=0 note=80 velocity=57 time=0
note_on channel=0 note=36 velocity=48 time=0
note_on channel=0 note=80 velocity=0 time=90
note_on channel=0 note=77 velocity=0 time=0
note_on channel=0 note=48 velocity=50 time=30
note_on channel=0 note=36 velocity=0 time=108
note_on channel=0 note=48 velocity=0 time=0
note_on channel=0 note=74 velocity=59 time=0
note_on channel=0 note=83 velocity=59 time=0
note_on channel=0 note=36 velocity=51 time=0
note_on channel=0 note=83 velocity=0 time=90
note_on channel=0 note=74 velocity=0 time=0
note_on channel=0 note=48 velocity=53 time=30
note_on channel=0 note=36 velocity=0 time=108
note_on channel=0 note=48 velocity=0 time=0
note_on channel=0 note=72 velocity=51 time=0
note_on channel=0 note=79 velocity=61 time=0
note_on channel=0 note=75 velocity=51 time=0
note_on channel=0 note=84 velocity=61 time=0
note_on channel=0 note=36 velocity=55 time=0
note_on channel=0 note=48 velocity=50 time=67
note_on channel=0 note=36 velocity=0 time=108
note_on channel=0 note=48 velocity=0 time=0
note_on channel=0 note=36 velocity=53 time=0
note_on channel=0 note=48 velocity=47 time=120
note_on channel=0 note=36 velocity=0 time=108
note_on channel=0 note=79 velocity=0 time=12
note_on channel=0 note=84 velocity=0 time=0
note_on channel=0 note=72 velocity=0 time=0
note_on channel=0 note=48 velocity=0 time=0
note_on channel=0 note=75 velocity=0 time=0
note_on channel=0 note=68 velocity=53 time=0
note_on channel=0 note=75 velocity=63 time=0
note_on channel=0 note=80 velocity=63 time=0
note_on channel=0 note=36 velocity=55 time=0
note_on channel=0 note=48 velocity=50 time=106
note_on channel=0 note=36 velocity=0 time=108
note_on channel=0 note=48 velocity=0 time=0
note_on channel=0 note=36 velocity=55 time=0
note_on channel=0 note=48 velocity=51 time=120
note_on channel=0 note=36 velocity=0 time=108
note_on channel=0 note=68 velocity=0 time=0
note_on channel=0 note=80 velocity=0 time=0
note_on channel=0 note=75 velocity=0 time=0
note_on channel=0 note=48 velocity=0 time=0
note_on channel=0 note=68 velocity=56 time=0
note_on channel=0 note=73 velocity=56 time=0
note_on channel=0 note=77 velocity=67 time=0
note_on channel=0 note=37 velocity=55 time=0
note_on channel=0 note=49 velocity=55 time=56
note_on channel=0 note=37 velocity=0 time=108
note_on channel=0 note=49 velocity=0 time=12
note_on channel=0 note=37 velocity=55 time=0
note_on channel=0 note=49 velocity=55 time=120
note_on channel=0 note=37 velocity=0 time=108
note_on channel=0 note=68 velocity=0 time=12
note_on channel=0 note=77 velocity=0 time=0
note_on channel=0 note=73 velocity=0 time=0
note_on channel=0 note=49 velocity=0 time=0
note_on channel=0 note=66 velocity=60 time=0
note_on channel=0 note=72 velocity=60 time=0
note_on channel=0 note=75 velocity=71 time=0
note_on channel=0 note=39 velocity=55 time=0
note_on channel=0 note=51 velocity=53 time=42
note_on channel=0 note=39 velocity=0 time=108
note_on channel=0 note=51 velocity=0 time=0
note_on channel=0 note=39 velocity=55 time=0
note_on channel=0 note=51 velocity=55 time=120
note_on channel=0 note=39 velocity=0 time=108
note_on channel=0 note=66 velocity=0 time=12
note_on channel=0 note=75 velocity=0 time=0
note_on channel=0 note=72 velocity=0 time=0
note_on channel=0 note=51 velocity=0 time=0
note_on channel=0 note=65 velocity=62 time=0
note_on channel=0 note=68 velocity=74 time=0
note_on channel=0 note=73 velocity=74 time=0
note_on channel=0 note=41 velocity=56 time=0
note_on channel=0 note=53 velocity=56 time=28
note_on channel=0 note=41 velocity=0 time=108
note_on channel=0 note=53 velocity=0 time=12
note_on channel=0 note=41 velocity=57 time=0
note_on channel=0 note=53 velocity=57 time=120
note_on channel=0 note=41 velocity=0 time=108
note_on channel=0 note=65 velocity=0 time=12
note_on channel=0 note=73 velocity=0 time=0
note_on channel=0 note=68 velocity=0 time=0
note_on channel=0 note=53 velocity=0 time=0
note_on channel=0 note=70 velocity=74 time=0
note_on channel=0 note=66 velocity=74 time=0
note_on channel=0 note=61 velocity=74 time=0
note_on channel=0 note=42 velocity=58 time=0
note_on channel=0 note=54 velocity=59 time=51
note_on channel=0 note=42 velocity=0 time=108
note_on channel=0 note=54 velocity=0 time=12
note_on channel=0 note=42 velocity=59 time=0
note_on channel=0 note=54 velocity=60 time=120
note_on channel=0 note=42 velocity=0 time=108
note_on channel=0 note=70 velocity=0 time=0
note_on channel=0 note=61 velocity=0 time=0
note_on channel=0 note=66 velocity=0 time=0
note_on channel=0 note=54 velocity=0 time=0
note_on channel=0 note=61 velocity=74 time=0
note_on channel=0 note=65 velocity=74 time=0
note_on channel=0 note=68 velocity=77 time=0
note_on channel=0 note=44 velocity=60 time=0
note_on channel=0 note=56 velocity=55 time=35
note_on channel=0 note=44 velocity=0 time=108
note_on channel=0 note=56 velocity=0 time=12
note_on channel=0 note=44 velocity=61 time=0
note_on channel=0 note=56 velocity=55 time=120
note_on channel=0 note=44 velocity=0 time=108
note_on channel=0 note=61 velocity=0 time=12
note_on channel=0 note=65 velocity=0 time=0
note_on channel=0 note=56 velocity=0 time=0
note_on channel=0 note=60 velocity=74 time=0
note_on channel=0 note=63 velocity=74 time=0
note_on channel=0 note=44 velocity=58 time=0
note_on channel=0 note=56 velocity=55 time=14
note_on channel=0 note=44 velocity=0 time=108
note_on channel=0 note=56 velocity=0 time=0
note_on channel=0 note=44 velocity=58 time=0
note_on channel=0 note=56 velocity=55 time=120
note_on channel=0 note=44 velocity=0 time=108
note_on channel=0 note=68 velocity=0 time=12
note_on channel=0 note=63 velocity=0 time=0
note_on channel=0 note=60 velocity=0 time=0
note_on channel=0 note=56 velocity=0 time=0
note_on channel=0 note=62 velocity=51 time=0
note_on channel=0 note=65 velocity=51 time=0
note_on channel=0 note=70 velocity=61 time=0
note_on channel=0 note=44 velocity=52 time=0
note_on channel=0 note=56 velocity=45 time=21
note_on channel=0 note=44 velocity=0 time=108
note_on channel=0 note=56 velocity=0 time=0
note_on channel=0 note=44 velocity=53 time=0
note_on channel=0 note=56 velocity=47 time=120
note_on channel=0 note=44 velocity=0 time=108
note_on channel=0 note=62 velocity=0 time=12
note_on channel=0 note=70 velocity=0 time=0
note_on channel=0 note=65 velocity=0 time=0
note_on channel=0 note=56 velocity=0 time=0
note_on channel=0 note=70 velocity=53 time=0
note_on channel=0 note=77 velocity=63 time=0
note_on channel=0 note=82 velocity=63 time=0
note_on channel=0 note=38 velocity=55 time=0
note_on channel=0 note=50 velocity=50 time=28
note_on channel=0 note=38 velocity=0 time=108
note_on channel=0 note=50 velocity=0 time=0
note_on channel=0 note=38 velocity=55 time=0
note_on channel=0 note=50 velocity=51 time=120
note_on channel=0 note=38 velocity=0 time=108
note_on channel=0 note=70 velocity=0 time=0
note_on channel=0 note=82 velocity=0 time=0
note_on channel=0 note=77 velocity=0 time=0
note_on channel=0 note=50 velocity=0 time=0
note_on channel=0 note=70 velocity=56 time=0
note_on channel=0 note=75 velocity=56 time=0
note_on channel=0 note=78 velocity=67 time=0
note_on channel=0 note=39 velocity=55 time=0
note_on channel=0 note=51 velocity=55 time=21
note_on channel=0 note=39 velocity=0 time=108
note_on channel=0 note=51 velocity=0 time=12
note_on channel=0 note=39 velocity=55 time=0
note_on channel=0 note=51 velocity=55 time=120
note_on channel=0 note=39 velocity=0 time=108
note_on channel=0 note=70 velocity=0 time=12
note_on channel=0 note=78 velocity=0 time=0
note_on channel=0 note=75 velocity=0 time=0
note_on channel=0 note=51 velocity=0 time=0
note_on channel=0 note=68 velocity=60 time=0
note_on channel=0 note=74 velocity=60 time=0
note_on channel=0 note=77 velocity=71 time=0
note_on channel=0 note=41 velocity=55 time=0
note_on channel=0 note=53 velocity=53 time=42
note_on channel=0 note=41 velocity=0 time=108
note_on channel=0 note=53 velocity=0 time=0
note_on channel=0 note=41 velocity=55 time=0
note_on channel=0 note=53 velocity=55 time=120
note_on channel=0 note=41 velocity=0 time=108
note_on channel=0 note=68 velocity=0 time=12
note_on channel=0 note=77 velocity=0 time=0
note_on channel=0 note=74 velocity=0 time=0
note_on channel=0 note=53 velocity=0 time=0
note_on channel=0 note=66 velocity=62 time=0
note_on channel=0 note=70 velocity=74 time=0
note_on channel=0 note=75 velocity=74 time=0
note_on channel=0 note=42 velocity=56 time=0
note_on channel=0 note=54 velocity=56 time=49
note_on channel=0 note=42 velocity=0 time=108
note_on channel=0 note=54 velocity=0 time=12
note_on channel=0 note=42 velocity=57 time=0
note_on channel=0 note=54 velocity=57 time=120
note_on channel=0 note=42 velocity=0 time=108
note_on channel=0 note=66 velocity=0 time=12
note_on channel=0 note=75 velocity=0 time=0
note_on channel=0 note=70 velocity=0 time=0
note_on channel=0 note=54 velocity=0 time=0
note_on channel=0 note=63 velocity=74 time=0
note_on channel=0 note=71 velocity=74 time=0
note_on channel=0 note=68 velocity=74 time=0
note_on channel=0 note=44 velocity=58 time=0
note_on channel=0 note=56 velocity=59 time=46
note_on channel=0 note=44 velocity=0 time=108
note_on channel=0 note=56 velocity=0 time=12
note_on channel=0 note=44 velocity=59 time=0
note_on channel=0 note=56 velocity=60 time=120
note_on channel=0 note=44 velocity=0 time=108
note_on channel=0 note=63 velocity=0 time=0
note_on channel=0 note=68 velocity=0 time=0
note_on channel=0 note=71 velocity=0 time=0
note_on channel=0 note=56 velocity=0 time=0
note_on channel=0 note=63 velocity=74 time=0
note_on channel=0 note=66 velocity=74 time=0
note_on channel=0 note=70 velocity=77 time=0
note_on channel=0 note=46 velocity=60 time=0
note_on channel=0 note=58 velocity=55 time=35
note_on channel=0 note=46 velocity=0 time=108
note_on channel=0 note=58 velocity=0 time=12
note_on channel=0 note=46 velocity=61 time=0
note_on channel=0 note=58 velocity=55 time=120
note_on channel=0 note=46 velocity=0 time=108
note_on channel=0 note=63 velocity=0 time=12
note_on channel=0 note=66 velocity=0 time=0
note_on channel=0 note=58 velocity=0 time=0
note_on channel=0 note=62 velocity=74 time=0
note_on channel=0 note=65 velocity=74 time=0
note_on channel=0 note=46 velocity=58 time=0
note_on channel=0 note=58 velocity=55 time=28
note_on channel=0 note=46 velocity=0 time=108
note_on channel=0 note=58 velocity=0 time=0
note_on channel=0 note=46 velocity=58 time=0
note_on channel=0 note=58 velocity=55 time=120
note_on channel=0 note=46 velocity=0 time=108
note_on channel=0 note=70 velocity=0 time=12
note_on channel=0 note=65 velocity=0 time=0
note_on channel=0 note=62 velocity=0 time=0
note_on channel=0 note=58 velocity=0 time=0
note_on channel=0 note=64 velocity=51 time=0
note_on channel=0 note=67 velocity=51 time=0
note_on channel=0 note=72 velocity=61 time=0
note_on channel=0 note=46 velocity=53 time=0
note_on channel=0 note=58 velocity=46 time=64
note_on channel=0 note=46 velocity=0 time=108
note_on channel=0 note=58 velocity=0 time=0
note_on channel=0 note=46 velocity=50 time=0
note_on channel=0 note=58 velocity=47 time=120
note_on channel=0 note=46 velocity=0 time=108
note_on channel=0 note=64 velocity=0 time=12
note_on channel=0 note=72 velocity=0 time=0
note_on channel=0 note=67 velocity=0 time=0
note_on channel=0 note=58 velocity=0 time=0
note_on channel=0 note=72 velocity=53 time=0
note_on channel=0 note=79 velocity=63 time=0
note_on channel=0 note=84 velocity=63 time=0
note_on channel=0 note=40 velocity=55 time=0
note_on channel=0 note=52 velocity=50 time=34
note_on channel=0 note=40 velocity=0 time=108
note_on channel=0 note=52 velocity=0 time=0
note_on channel=0 note=40 velocity=55 time=0
note_on channel=0 note=52 velocity=51 time=120
note_on channel=0 note=40 velocity=0 time=108
note_on channel=0 note=72 velocity=0 time=0
note_on channel=0 note=84 velocity=0 time=0
note_on channel=0 note=79 velocity=0 time=0
note_on channel=0 note=52 velocity=0 time=0
note_on channel=0 note=72 velocity=56 time=0
note_on channel=0 note=77 velocity=56 time=0
note_on channel=0 note=80 velocity=67 time=0
note_on channel=0 note=41 velocity=55 time=0
note_on channel=0 note=53 velocity=55 time=35
note_on channel=0 note=41 velocity=0 time=108
note_on channel=0 note=53 velocity=0 time=12
note_on channel=0 note=41 velocity=55 time=0
note_on channel=0 note=53 velocity=55 time=120
note_on channel=0 note=41 velocity=0 time=108
note_on channel=0 note=72 velocity=0 time=12
note_on channel=0 note=80 velocity=0 time=0
note_on channel=0 note=77 velocity=0 time=0
note_on channel=0 note=53 velocity=0 time=0
note_on channel=0 note=70 velocity=60 time=0
note_on channel=0 note=76 velocity=60 time=0
note_on channel=0 note=79 velocity=71 time=0
note_on channel=0 note=43 velocity=55 time=0
note_on channel=0 note=55 velocity=53 time=42
note_on channel=0 note=43 velocity=0 time=108
note_on channel=0 note=55 velocity=0 time=0
note_on channel=0 note=43 velocity=55 time=0
note_on channel=0 note=55 velocity=55 time=120
note_on channel=0 note=43 velocity=0 time=108
note_on channel=0 note=70 velocity=0 time=12
note_on channel=0 note=79 velocity=0 time=0
note_on channel=0 note=76 velocity=0 time=0
note_on channel=0 note=55 velocity=0 time=0
note_on channel=0 note=68 velocity=62 time=0
note_on channel=0 note=72 velocity=74 time=0
note_on channel=0 note=77 velocity=74 time=0
note_on channel=0 note=44 velocity=56 time=0
note_on channel=0 note=56 velocity=56 time=49
note_on channel=0 note=44 velocity=0 time=108
note_on channel=0 note=56 velocity=0 time=12
note_on channel=0 note=44 velocity=57 time=0
note_on channel=0 note=56 velocity=57 time=120
note_on channel=0 note=44 velocity=0 time=108
note_on channel=0 note=68 velocity=0 time=12
note_on channel=0 note=77 velocity=0 time=0
note_on channel=0 note=72 velocity=0 time=0
note_on channel=0 note=56 velocity=0 time=0
note_on channel=0 note=73 velocity=74 time=0
note_on channel=0 note=65 velocity=74 time=0
note_on channel=0 note=46 velocity=58 time=0
note_on channel=0 note=58 velocity=59 time=35
note_on channel=0 note=46 velocity=0 time=108
note_on channel=0 note=58 velocity=0 time=12
note_on channel=0 note=46 velocity=59 time=0
note_on channel=0 note=58 velocity=60 time=120
note_on channel=0 note=46 velocity=0 time=108
note_on channel=0 note=73 velocity=0 time=0
note_on channel=0 note=65 velocity=0 time=0
note_on channel=0 note=58 velocity=0 time=0
note_on channel=0 note=65 velocity=74 time=0
note_on channel=0 note=72 velocity=77 time=0
note_on channel=0 note=48 velocity=60 time=0
note_on channel=0 note=60 velocity=55 time=51
note_on channel=0 note=48 velocity=0 time=108
note_on channel=0 note=60 velocity=0 time=12
note_on channel=0 note=48 velocity=61 time=0
note_on channel=0 note=60 velocity=55 time=120
note_on channel=0 note=48 velocity=0 time=108
note_on channel=0 note=65 velocity=0 time=12
note_on channel=0 note=72 velocity=0 time=0
note_on channel=0 note=60 velocity=0 time=0
note_on channel=0 note=65 velocity=74 time=0
note_on channel=0 note=71 velocity=74 time=0
note_on channel=0 note=49 velocity=58 time=0
note_on channel=0 note=61 velocity=55 time=23
note_on channel=0 note=49 velocity=0 time=108
note_on channel=0 note=61 velocity=0 time=12
note_on channel=0 note=49 velocity=58 time=0
note_on channel=0 note=61 velocity=55 time=120
note_on channel=0 note=49 velocity=0 time=108
note_on channel=0 note=65 velocity=0 time=12
note_on channel=0 note=71 velocity=0 time=0
note_on channel=0 note=61 velocity=0 time=0
note_on channel=0 note=64 velocity=65 time=0
note_on channel=0 note=72 velocity=73 time=0
note_on channel=0 note=48 velocity=58 time=0
note_on channel=0 note=60 velocity=58 time=0
note_on channel=0 note=60 velocity=0 time=0
note_on channel=0 note=64 velocity=0 time=0
note_on channel=0 note=72 velocity=0 time=0
note_on channel=0 note=48 velocity=0 time=0
note_on channel=0 note=59 velocity=50 time=0
note_on channel=0 note=59 velocity=0 time=240
note_on channel=0 note=60 velocity=59 time=0
note_on channel=0 note=60 velocity=0 time=240
note_on channel=0 note=59 velocity=56 time=0
note_on channel=0 note=59 velocity=0 time=240
note_on channel=0 note=60 velocity=57 time=0
note_on channel=0 note=60 velocity=0 time=240
note_on channel=0 note=59 velocity=49 time=0
note_on channel=0 note=59 velocity=0 time=240
note_on channel=0 note=60 velocity=57 time=0
note_on channel=0 note=60 velocity=0 time=240
note_on channel=0 note=59 velocity=51 time=0
note_on channel=0 note=59 velocity=0 time=0
note_on channel=0 note=60 velocity=44 time=0
note_on channel=0 note=48 velocity=55 time=0
note_on channel=0 note=65 velocity=38 time=0
note_on channel=0 note=68 velocity=38 time=0
note_on channel=0 note=48 velocity=0 time=120
note_on channel=0 note=68 velocity=0 time=108
note_on channel=0 note=65 velocity=0 time=0
note_on channel=0 note=53 velocity=58 time=0
note_on channel=0 note=65 velocity=38 time=0
note_on channel=0 note=68 velocity=38 time=0
note_on channel=0 note=53 velocity=0 time=120
note_on channel=0 note=68 velocity=0 time=108
note_on channel=0 note=65 velocity=0 time=0
note_on channel=0 note=55 velocity=61 time=12
note_on channel=0 note=65 velocity=38 time=0
note_on channel=0 note=68 velocity=38 time=0
note_on channel=0 note=55 velocity=0 time=120
note_on channel=0 note=68 velocity=0 time=108
note_on channel=0 note=65 velocity=0 time=0
note_on channel=0 note=60 velocity=0 time=0
note_on channel=0 note=56 velocity=64 time=0
note_on channel=0 note=60 velocity=44 time=0
note_on channel=0 note=56 velocity=0 time=120
note_on channel=0 note=72 velocity=62 time=120
note_on channel=0 note=65 velocity=38 time=0
note_on channel=0 note=68 velocity=38 time=0
note_on channel=0 note=72 velocity=0 time=120
note_on channel=0 note=68 velocity=0 time=108
note_on channel=0 note=65 velocity=0 time=0
note_on channel=0 note=77 velocity=64 time=0
note_on channel=0 note=65 velocity=38 time=0
note_on channel=0 note=68 velocity=38 time=0
note_on channel=0 note=77 velocity=0 time=120
note_on channel=0 note=68 velocity=0 time=108
note_on channel=0 note=65 velocity=0 time=0
note_on channel=0 note=79 velocity=66 time=12
note_on channel=0 note=65 velocity=38 time=0
note_on channel=0 note=68 velocity=38 time=0
note_on channel=0 note=79 velocity=0 time=120
note_on channel=0 note=72 velocity=65 time=60
note_on channel=0 note=68 velocity=0 time=48
note_on channel=0 note=65 velocity=0 time=0
note_on channel=0 note=60 velocity=0 time=0
note_on channel=0 note=72 velocity=0 time=0
note_on channel=0 note=80 velocity=75 time=0
note_on channel=0 note=60 velocity=44 time=0
note_on channel=0 note=65 velocity=38 time=0
note_on channel=0 note=68 velocity=38 time=0
note_on channel=0 note=68 velocity=0 time=228
note_on channel=0 note=65 velocity=0 time=0
note_on channel=0 note=65 velocity=38 time=12
note_on channel=0 note=68 velocity=38 time=0
note_on channel=0 note=68 velocity=0 time=228
note_on channel=0 note=65 velocity=0 time=0
note_on channel=0 note=80 velocity=0 time=0
note_on channel=0 note=77 velocity=63 time=0
note_on channel=0 note=65 velocity=38 time=0
note_on channel=0 note=68 velocity=38 time=0
note_on channel=0 note=72 velocity=60 time=180
note_on channel=0 note=68 velocity=0 time=48
note_on channel=0 note=65 velocity=0 time=0
note_on channel=0 note=60 velocity=0 time=12
note_on channel=0 note=77 velocity=0 time=0
note_on channel=0 note=72 velocity=0 time=0
note_on channel=0 note=80 velocity=71 time=0
note_on channel=0 note=60 velocity=44 time=0
note_on channel=0 note=65 velocity=38 time=0
note_on channel=0 note=68 velocity=38 time=0
note_on channel=0 note=68 velocity=0 time=228
note_on channel=0 note=65 velocity=0 time=0
note_on channel=0 note=65 velocity=38 time=12
note_on channel=0 note=68 velocity=38 time=0
note_on channel=0 note=68 velocity=0 time=228
note_on channel=0 note=65 velocity=0 time=0
note_on channel=0 note=80 velocity=0 time=0
note_on channel=0 note=77 velocity=58 time=0
note_on channel=0 note=65 velocity=38 time=0
note_on channel=0 note=68 velocity=38 time=0
note_on channel=0 note=68 velocity=0 time=228
note_on channel=0 note=65 velocity=0 time=0
note_on channel=0 note=77 velocity=0 time=0
note_on channel=0 note=60 velocity=0 time=0
note_on channel=0 note=76 velocity=60 time=0
note_on channel=0 note=60 velocity=44 time=0
note_on channel=0 note=76 velocity=0 time=0
note_on channel=0 note=48 velocity=57 time=0
note_on channel=0 note=67 velocity=38 time=0
note_on channel=0 note=70 velocity=38 time=0
note_on channel=0 note=48 velocity=0 time=120
note_on channel=0 note=70 velocity=0 time=108
note_on channel=0 note=67 velocity=0 time=0
note_on channel=0 note=55 velocity=60 time=0
note_on channel=0 note=67 velocity=38 time=0
note_on channel=0 note=70 velocity=38 time=0
note_on channel=0 note=55 velocity=0 time=120
note_on channel=0 note=70 velocity=0 time=108
note_on channel=0 note=67 velocity=0 time=0
note_on channel=0 note=56 velocity=63 time=12
note_on channel=0 note=67 velocity=38 time=0
note_on channel=0 note=70 velocity=38 time=0
note_on channel=0 note=56 velocity=0 time=120
note_on channel=0 note=70 velocity=0 time=108
note_on channel=0 note=67 velocity=0 time=0
note_on channel=0 note=60 velocity=0 time=0
note_on channel=0 note=58 velocity=66 time=0
note_on channel=0 note=60 velocity=44 time=0
note_on channel=0 note=58 velocity=0 time=120
note_on channel=0 note=72 velocity=59 time=120
note_on channel=0 note=67 velocity=38 time=0
note_on channel=0 note=70 velocity=38 time=0
note_on channel=0 note=70 velocity=0 time=228
note_on channel=0 note=67 velocity=0 time=0
note_on channel=0 note=72 velocity=0 time=0
note_on channel=0 note=82 velocity=62 time=0
note_on channel=0 note=67 velocity=38 time=0
note_on channel=0 note=70 velocity=38 time=0
note_on channel=0 note=70 velocity=0 time=228
note_on channel=0 note=67 velocity=0 time=0
note_on channel=0 note=82 velocity=0 time=12
note_on channel=0 note=80 velocity=65 time=0
note_on channel=0 note=67 velocity=38 time=0
note_on channel=0 note=70 velocity=38 time=0
note_on channel=0 note=70 velocity=0 time=228
note_on channel=0 note=67 velocity=0 time=0
note_on channel=0 note=80 velocity=0 time=0
note_on channel=0 note=60 velocity=0 time=0
note_on channel=0 note=80 velocity=60 time=0
note_on channel=0 note=60 velocity=44 time=0
note_on channel=0 note=80 velocity=0 time=60
note_on channel=0 note=82 velocity=60 time=0
note_on channel=0 note=82 velocity=0 time=60
note_on channel=0 note=80 velocity=67 time=0
note_on channel=0 note=80 velocity=0 time=120
note_on channel=0 note=79 velocity=60 time=0
note_on channel=0 note=67 velocity=38 time=0
note_on channel=0 note=70 velocity=38 time=0
note_on channel=0 note=70 velocity=0 time=228
note_on channel=0 note=67 velocity=0 time=0
note_on channel=0 note=79 velocity=0 time=12
note_on channel=0 note=79 velocity=60 time=0
note_on channel=0 note=67 velocity=38 time=0
note_on channel=0 note=70 velocity=38 time=0
note_on channel=0 note=79 velocity=0 time=60
note_on channel=0 note=80 velocity=60 time=0
note_on channel=0 note=80 velocity=0 time=60
note_on channel=0 note=79 velocity=67 time=0
note_on channel=0 note=70 velocity=0 time=108
note_on channel=0 note=67 velocity=0 time=0
note_on channel=0 note=79 velocity=0 time=12
note_on channel=0 note=77 velocity=60 time=0
note_on channel=0 note=67 velocity=38 time=0
note_on channel=0 note=70 velocity=38 time=0
note_on channel=0 note=70 velocity=0 time=228
note_on channel=0 note=67 velocity=0 time=0
note_on channel=0 note=77 velocity=0 time=12
note_on channel=0 note=60 velocity=0 time=0
note_on channel=0 note=77 velocity=60 time=0
note_on channel=0 note=60 velocity=44 time=0
note_on channel=0 note=77 velocity=0 time=60
note_on channel=0 note=79 velocity=60 time=0
note_on channel=0 note=79 velocity=0 time=60
note_on channel=0 note=77 velocity=66 time=0
note_on channel=0 note=77 velocity=0 time=120
note_on channel=0 note=76 velocity=60 time=0
note_on channel=0 note=67 velocity=38 time=0
note_on channel=0 note=70 velocity=38 time=0
note_on channel=0 note=70 velocity=0 time=228
note_on channel=0 note=67 velocity=0 time=0
note_on channel=0 note=76 velocity=0 time=12
note_on channel=0 note=74 velocity=60 time=0
note_on channel=0 note=67 velocity=38 time=0
note_on channel=0 note=70 velocity=38 time=0
note_on channel=0 note=74 velocity=0 time=120
note_on channel=0 note=70 velocity=0 time=108
note_on channel=0 note=67 velocity=0 time=0
note_on channel=0 note=76 velocity=60 time=12
note_on channel=0 note=67 velocity=38 time=0
note_on channel=0 note=70 velocity=38 time=0
note_on channel=0 note=76 velocity=0 time=120
note_on channel=0 note=70 velocity=0 time=108
note_on channel=0 note=67 velocity=0 time=0
note_on channel=0 note=60 velocity=0 time=0
note_on channel=0 note=77 velocity=60 time=0
note_on channel=0 note=60 velocity=44 time=0
note_on channel=0 note=77 velocity=0 time=0
note_on channel=0 note=48 velocity=55 time=0
note_on channel=0 note=65 velocity=38 time=0
note_on channel=0 note=68 velocity=38 time=0
note_on channel=0 note=48 velocity=0 time=120
note_on channel=0 note=68 velocity=0 time=108
note_on channel=0 note=65 velocity=0 time=0
note_on channel=0 note=53 velocity=58 time=0
note_on channel=0 note=65 velocity=38 time=0
note_on channel=0 note=68 velocity=38 time=0
note_on channel=0 note=53 velocity=0 time=120
note_on channel=0 note=68 velocity=0 time=108
note_on channel=0 note=65 velocity=0 time=0
note_on channel=0 note=55 velocity=61 time=12
note_on channel=0 note=65 velocity=38 time=0
note_on channel=0 note=68 velocity=38 time=0
note_on channel=0 note=55 velocity=0 time=120
note_on channel=0 note=68 velocity=0 time=108
note_on channel=0 note=65 velocity=0 time=0
note_on channel=0 note=60 velocity=0 time=0
note_on channel=0 note=56 velocity=64 time=0
note_on channel=0 note=60 velocity=44 time=0
note_on channel=0 note=56 velocity=0 time=120
note_on channel=0 note=72 velocity=62 time=120
note_on channel=0 note=65 velocity=38 time=0
note_on channel=0 note=68 velocity=38 time=0
note_on channel=0 note=72 velocity=0 time=120
note_on channel=0 note=68 velocity=0 time=108
note_on channel=0 note=65 velocity=0 time=0
note_on channel=0 note=77 velocity=64 time=0
note_on channel=0 note=65 velocity=38 time=0
note_on channel=0 note=68 velocity=38 time=0
note_on channel=0 note=77 velocity=0 time=120
note_on channel=0 note=68 velocity=0 time=108
note_on channel=0 note=65 velocity=0 time=0
note_on channel=0 note=80 velocity=66 time=12
note_on channel=0 note=65 velocity=38 time=0
note_on channel=0 note=68 velocity=38 time=0
note_on channel=0 note=80 velocity=0 time=120
note_on channel=0 note=72 velocity=65 time=60
note_on channel=0 note=68 velocity=0 time=48
note_on channel=0 note=65 velocity=0 time=0
note_on channel=0 note=60 velocity=0 time=0
note_on channel=0 note=72 velocity=0 time=0
note_on channel=0 note=84 velocity=75 time=0
note_on channel=0 note=56 velocity=44 time=0
note_on channel=0 note=60 velocity=38 time=0
note_on channel=0 note=65 velocity=38 time=0
note_on channel=0 note=65 velocity=0 time=228
note_on channel=0 note=60 velocity=0 time=0
note_on channel=0 note=60 velocity=38 time=12
note_on channel=0 note=65 velocity=38 time=0
note_on channel=0 note=65 velocity=0 time=228
note_on channel=0 note=60 velocity=0 time=0
note_on channel=0 note=84 velocity=0 time=0
note_on channel=0 note=77 velocity=63 time=0
note_on channel=0 note=60 velocity=38 time=0
note_on channel=0 note=65 velocity=38 time=0
note_on channel=0 note=77 velocity=0 time=160
note_on channel=0 note=77 velocity=60 time=20
note_on channel=0 note=65 velocity=0 time=48
note_on channel=0 note=60 velocity=0 time=0
note_on channel=0 note=56 velocity=0 time=12
note_on channel=0 note=77 velocity=0 time=0
note_on channel=0 note=89 velocity=71 time=0
note_on channel=0 note=56 velocity=44 time=0
note_on channel=0 note=60 velocity=38 time=0
note_on channel=0 note=65 velocity=38 time=0
note_on channel=0 note=65 velocity=0 time=228
note_on channel=0 note=60 velocity=0 time=0
note_on channel=0 note=60 velocity=38 time=12
note_on channel=0 note=65 velocity=38 time=0
note_on channel=0 note=65 velocity=0 time=228
note_on channel=0 note=60 velocity=0 time=0
note_on channel=0 note=89 velocity=0 time=0
note_on channel=0 note=84 velocity=58 time=0
note_on channel=0 note=60 velocity=38 time=0
note_on channel=0 note=65 velocity=38 time=0
note_on channel=0 note=65 velocity=0 time=228
note_on channel=0 note=60 velocity=0 time=0
note_on channel=0 note=84 velocity=0 time=0
note_on channel=0 note=56 velocity=0 time=0
note_on channel=0 note=83 velocity=60 time=0
note_on channel=0 note=55 velocity=44 time=0
note_on channel=0 note=83 velocity=0 time=0
note_on channel=0 note=43 velocity=57 time=0
note_on channel=0 note=62 velocity=38 time=0
note_on channel=0 note=65 velocity=38 time=0
note_on channel=0 note=43 velocity=0 time=120
note_on channel=0 note=65 velocity=0 time=108
note_on channel=0 note=62 velocity=0 time=0
note_on channel=0 note=50 velocity=60 time=0
note_on channel=0 note=62 velocity=38 time=0
note_on channel=0 note=65 velocity=38 time=0
note_on channel=0 note=50 velocity=0 time=120
note_on channel=0 note=65 velocity=0 time=108
note_on channel=0 note=62 velocity=0 time=0
note_on channel=0 note=51 velocity=63 time=12
note_on channel=0 note=62 velocity=38 time=0
note_on channel=0 note=65 velocity=38 time=0
note_on channel=0 note=51 velocity=0 time=120
note_on channel=0 note=65 velocity=0 time=108
note_on channel=0 note=62 velocity=0 time=0
note_on channel=0 note=55 velocity=0 time=0
note_on channel=0 note=53 velocity=66 time=0
note_on channel=0 note=55 velocity=44 time=0
note_on channel=0 note=53 velocity=0 time=120
note_on channel=0 note=67 velocity=59 time=120
note_on channel=0 note=62 velocity=38 time=0
note_on channel=0 note=65 velocity=38 time=0
note_on channel=0 note=65 velocity=0 time=228
note_on channel=0 note=62 velocity=0 time=0
note_on channel=0 note=67 velocity=0 time=0
note_on channel=0 note=77 velocity=62 time=0
note_on channel=0 note=62 velocity=38 time=0
note_on channel=0 note=65 velocity=38 time=0
note_on channel=0 note=65 velocity=0 time=228
note_on channel=0 note=62 velocity=0 time=0
note_on channel=0 note=77 velocity=0 time=12
note_on channel=0 note=75 velocity=65 time=0
note_on channel=0 note=62 velocity=38 time=0
note_on channel=0 note=65 velocity=38 time=0
note_on channel=0 note=65 velocity=0 time=228
note_on channel=0 note=62 velocity=0 time=0
note_on channel=0 note=75 velocity=0 time=0
note_on channel=0 note=55 velocity=0 time=0
note_on channel=0 note=75 velocity=60 time=0
note_on channel=0 note=55 velocity=44 time=0
note_on channel=0 note=75 velocity=0 time=60
note_on channel=0 note=77 velocity=60 time=0
note_on channel=0 note=77 velocity=0 time=60
note_on channel=0 note=75 velocity=67 time=0
note_on channel=0 note=75 velocity=0 time=120
note_on channel=0 note=74 velocity=60 time=0
note_on channel=0 note=62 velocity=38 time=0
note_on channel=0 note=65 velocity=38 time=0
note_on channel=0 note=65 velocity=0 time=228
note_on channel=0 note=62 velocity=0 time=0
note_on channel=0 note=74 velocity=0 time=12
note_on channel=0 note=74 velocity=60 time=0
note_on channel=0 note=62 velocity=38 time=0
note_on channel=0 note=65 velocity=38 time=0
note_on channel=0 note=74 velocity=0 time=60
note_on channel=0 note=75 velocity=60 time=0
note_on channel=0 note=75 velocity=0 time=60
note_on channel=0 note=74 velocity=67 time=0
note_on channel=0 note=65 velocity=0 time=108
note_on channel=0 note=62 velocity=0 time=0
note_on channel=0 note=74 velocity=0 time=12
note_on channel=0 note=72 velocity=60 time=0
note_on channel=0 note=62 velocity=38 time=0
note_on channel=0 note=65 velocity=38 time=0
note_on channel=0 note=65 velocity=0 time=228
note_on channel=0 note=62 velocity=0 time=0
note_on channel=0 note=72 velocity=0 time=12
note_on channel=0 note=55 velocity=0 time=0
note_on channel=0 note=72 velocity=60 time=0
note_on channel=0 note=55 velocity=44 time=0
note_on channel=0 note=72 velocity=0 time=60
note_on channel=0 note=74 velocity=60 time=0
note_on channel=0 note=74 velocity=0 time=60
note_on channel=0 note=72 velocity=66 time=0
note_on channel=0 note=72 velocity=0 time=120
note_on channel=0 note=71 velocity=60 time=0
note_on channel=0 note=62 velocity=38 time=0
note_on channel=0 note=65 velocity=38 time=0
note_on channel=0 note=65 velocity=0 time=228
note_on channel=0 note=62 velocity=0 time=0
note_on channel=0 note=71 velocity=0 time=12
note_on channel=0 note=69 velocity=60 time=0
note_on channel=0 note=62 velocity=38 time=0
note_on channel=0 note=65 velocity=38 time=0
note_on channel=0 note=69 velocity=0 time=120
note_on channel=0 note=65 velocity=0 time=108
note_on channel=0 note=62 velocity=0 time=0
note_on channel=0 note=71 velocity=60 time=12
note_on channel=0 note=62 velocity=38 time=0
note_on channel=0 note=65 velocity=38 time=0
note_on channel=0 note=71 velocity=0 time=120
note_on channel=0 note=65 velocity=0 time=108
note_on channel=0 note=62 velocity=0 time=0
note_on channel=0 note=55 velocity=0 time=0
note_on channel=0 note=72 velocity=60 time=0
note_on channel=0 note=55 velocity=44 time=0
note_on channel=0 note=72 velocity=0 time=0
note_on channel=0 note=43 velocity=55 time=0
note_on channel=0 note=60 velocity=38 time=0
note_on channel=0 note=63 velocity=38 time=0
note_on channel=0 note=43 velocity=0 time=120
note_on channel=0 note=63 velocity=0 time=108
note_on channel=0 note=60 velocity=0 time=0
note_on channel=0 note=48 velocity=58 time=0
note_on channel=0 note=60 velocity=38 time=0
note_on channel=0 note=63 velocity=38 time=0
note_on channel=0 note=48 velocity=0 time=120
note_on channel=0 note=63 velocity=0 time=108
note_on channel=0 note=60 velocity=0 time=0
note_on channel=0 note=50 velocity=61 time=12
note_on channel=0 note=60 velocity=38 time=0
note_on channel=0 note=63 velocity=38 time=0
note_on channel=0 note=50 velocity=0 time=120
note_on channel=0 note=63 velocity=0 time=108
note_on channel=0 note=60 velocity=0 time=0
note_on channel=0 note=55 velocity=0 time=0
note_on channel=0 note=51 velocity=64 time=0
note_on channel=0 note=55 velocity=44 time=0
note_on channel=0 note=51 velocity=0 time=120
note_on channel=0 note=79 velocity=62 time=120
note_on channel=0 note=60 velocity=38 time=0
note_on channel=0 note=63 velocity=38 time=0
note_on channel=0 note=79 velocity=0 time=120
note_on channel=0 note=63 velocity=0 time=108
note_on channel=0 note=60 velocity=0 time=0
note_on channel=0 note=84 velocity=64 time=0
note_on channel=0 note=60 velocity=38 time=0
note_on channel=0 note=63 velocity=38 time=0
note_on channel=0 note=84 velocity=0 time=120
note_on channel=0 note=63 velocity=0 time=108
note_on channel=0 note=60 velocity=0 time=0
note_on channel=0 note=86 velocity=66 time=12
note_on channel=0 note=60 velocity=38 time=0
note_on channel=0 note=63 velocity=38 time=0
note_on channel=0 note=86 velocity=0 time=120
note_on channel=0 note=79 velocity=65 time=60
note_on channel=0 note=63 velocity=0 time=48
note_on channel=0 note=60 velocity=0 time=0
note_on channel=0 note=55 velocity=0 time=0
note_on channel=0 note=79 velocity=0 time=0
note_on channel=0 note=87 velocity=75 time=0
note_on channel=0 note=55 velocity=44 time=0
note_on channel=0 note=60 velocity=38 time=0
note_on channel=0 note=63 velocity=38 time=0
note_on channel=0 note=63 velocity=0 time=228
note_on channel=0 note=60 velocity=0 time=0
note_on channel=0 note=60 velocity=38 time=12
note_on channel=0 note=63 velocity=38 time=0
note_on channel=0 note=63 velocity=0 time=228
note_on channel=0 note=60 velocity=0 time=0
note_on channel=0 note=87 velocity=0 time=0
note_on channel=0 note=84 velocity=63 time=0
note_on channel=0 note=60 velocity=38 time=0
note_on channel=0 note=63 velocity=38 time=0
note_on channel=0 note=79 velocity=60 time=180
note_on channel=0 note=63 velocity=0 time=48
note_on channel=0 note=60 velocity=0 time=0
note_on channel=0 note=55 velocity=0 time=12
note_on channel=0 note=84 velocity=0 time=0
note_on channel=0 note=79 velocity=0 time=0
note_on channel=0 note=87 velocity=71 time=0
note_on channel=0 note=55 velocity=44 time=0
note_on channel=0 note=60 velocity=38 time=0
note_on channel=0 note=63 velocity=38 time=0
note_on channel=0 note=63 velocity=0 time=228
note_on channel=0 note=60 velocity=0 time=0
note_on channel=0 note=60 velocity=38 time=12
note_on channel=0 note=63 velocity=38 time=0
note_on channel=0 note=63 velocity=0 time=228
note_on channel=0 note=60 velocity=0 time=0
note_on channel=0 note=87 velocity=0 time=0
note_on channel=0 note=84 velocity=58 time=0
note_on channel=0 note=60 velocity=38 time=0
note_on channel=0 note=63 velocity=38 time=0
note_on channel=0 note=63 velocity=0 time=228
note_on channel=0 note=60 velocity=0 time=0
note_on channel=0 note=84 velocity=0 time=0
note_on channel=0 note=55 velocity=0 time=0
note_on channel=0 note=83 velocity=60 time=0
note_on channel=0 note=55 velocity=44 time=0
note_on channel=0 note=83 velocity=0 time=0
note_on channel=0 note=43 velocity=57 time=0
note_on channel=0 note=62 velocity=38 time=0
note_on channel=0 note=65 velocity=38 time=0
note_on channel=0 note=43 velocity=0 time=120
note_on channel=0 note=65 velocity=0 time=108
note_on channel=0 note=62 velocity=0 time=0
note_on channel=0 note=50 velocity=60 time=0
note_on channel=0 note=62 velocity=38 time=0
note_on channel=0 note=65 velocity=38 time=0
note_on channel=0 note=50 velocity=0 time=120
note_on channel=0 note=65 velocity=0 time=108
note_on channel=0 note=62 velocity=0 time=0
note_on channel=0 note=51 velocity=63 time=12
note_on channel=0 note=62 velocity=38 time=0
note_on channel=0 note=65 velocity=38 time=0
note_on channel=0 note=51 velocity=0 time=120
note_on channel=0 note=65 velocity=0 time=108
note_on channel=0 note=62 velocity=0 time=0
note_on channel=0 note=55 velocity=0 time=0
note_on channel=0 note=53 velocity=66 time=0
note_on channel=0 note=55 velocity=44 time=0
note_on channel=0 note=53 velocity=0 time=120
note_on channel=0 note=79 velocity=59 time=120
note_on channel=0 note=62 velocity=38 time=0
note_on channel=0 note=65 velocity=38 time=0
note_on channel=0 note=65 velocity=0 time=228
note_on channel=0 note=62 velocity=0 time=0
note_on channel=0 note=79 velocity=0 time=0
note_on channel=0 note=89 velocity=62 time=0
note_on channel=0 note=62 velocity=38 time=0
note_on channel=0 note=65 velocity=38 time=0
note_on channel=0 note=65 velocity=0 time=228
note_on channel=0 note=62 velocity=0 time=0
note_on channel=0 note=89 velocity=0 time=12
note_on channel=0 note=87 velocity=65 time=0
note_on channel=0 note=62 velocity=38 time=0
note_on channel=0 note=65 velocity=38 time=0
note_on channel=0 note=65 velocity=0 time=228
note_on channel=0 note=62 velocity=0 time=0
note_on channel=0 note=87 velocity=0 time=0
note_on channel=0 note=55 velocity=0 time=0
note_on channel=0 note=87 velocity=60 time=0
note_on channel=0 note=55 velocity=44 time=0
note_on channel=0 note=87 velocity=0 time=60
note_on channel=0 note=89 velocity=60 time=0
note_on channel=0 note=89 velocity=0 time=60
note_on channel=0 note=87 velocity=67 time=0
note_on channel=0 note=87 velocity=0 time=120
note_on channel=0 note=86 velocity=60 time=0
note_on channel=0 note=62 velocity=38 time=0
note_on channel=0 note=65 velocity=38 time=0
note_on channel=0 note=65 velocity=0 time=228
note_on channel=0 note=62 velocity=0 time=0
note_on channel=0 note=86 velocity=0 time=12
note_on channel=0 note=86 velocity=60 time=0
note_on channel=0 note=62 velocity=38 time=0
note_on channel=0 note=65 velocity=38 time=0
note_on channel=0 note=86 velocity=0 time=60
note_on channel=0 note=87 velocity=60 time=0
note_on channel=0 note=87 velocity=0 time=60
note_on channel=0 note=86 velocity=67 time=0
note_on channel=0 note=65 velocity=0 time=108
note_on channel=0 note=62 velocity=0 time=0
note_on channel=0 note=86 velocity=0 time=12
note_on channel=0 note=84 velocity=60 time=0
note_on channel=0 note=62 velocity=38 time=0
note_on channel=0 note=65 velocity=38 time=0
note_on channel=0 note=65 velocity=0 time=228
note_on channel=0 note=62 velocity=0 time=0
note_on channel=0 note=84 velocity=0 time=12
note_on channel=0 note=55 velocity=0 time=0
note_on channel=0 note=84 velocity=60 time=0
note_on channel=0 note=55 velocity=44 time=0
note_on channel=0 note=84 velocity=0 time=60
note_on channel=0 note=86 velocity=60 time=0
note_on channel=0 note=86 velocity=0 time=60
note_on channel=0 note=84 velocity=66 time=0
note_on channel=0 note=84 velocity=0 time=120
note_on channel=0 note=83 velocity=60 time=0
note_on channel=0 note=62 velocity=38 time=0
note_on channel=0 note=65 velocity=38 time=0
note_on channel=0 note=65 velocity=0 time=228
note_on channel=0 note=62 velocity=0 time=0
note_on channel=0 note=83 velocity=0 time=12
note_on channel=0 note=81 velocity=60 time=0
note_on channel=0 note=62 velocity=38 time=0
note_on channel=0 note=65 velocity=38 time=0
note_on channel=0 note=81 velocity=0 time=120
note_on channel=0 note=65 velocity=0 time=108
note_on channel=0 note=62 velocity=0 time=0
note_on channel=0 note=83 velocity=60 time=12
note_on channel=0 note=62 velocity=38 time=0
note_on channel=0 note=65 velocity=38 time=0
note_on channel=0 note=83 velocity=0 time=0
note_on channel=0 note=65 velocity=0 time=108
note_on channel=0 note=62 velocity=0 time=0
note_on channel=0 note=55 velocity=0 time=0
note_on channel=0 note=86 velocity=60 time=0
note_on channel=0 note=60 velocity=44 time=0
note_on channel=0 note=86 velocity=0 time=60
note_on channel=0 note=87 velocity=60 time=0
note_on channel=0 note=87 velocity=0 time=60
note_on channel=0 note=86 velocity=67 time=0
note_on channel=0 note=86 velocity=0 time=120
note_on channel=0 note=84 velocity=59 time=0
note_on channel=0 note=63 velocity=37 time=0
note_on channel=0 note=67 velocity=37 time=0
note_on channel=0 note=67 velocity=0 time=228
note_on channel=0 note=63 velocity=0 time=0
note_on channel=0 note=84 velocity=0 time=12
note_on channel=0 note=84 velocity=58 time=0
note_on channel=0 note=63 velocity=37 time=0
note_on channel=0 note=67 velocity=37 time=0
note_on channel=0 note=84 velocity=0 time=60
note_on channel=0 note=86 velocity=58 time=0
note_on channel=0 note=86 velocity=0 time=60
note_on channel=0 note=84 velocity=65 time=0
note_on channel=0 note=67 velocity=0 time=108
note_on channel=0 note=63 velocity=0 time=0
note_on channel=0 note=84 velocity=0 time=12
note_on channel=0 note=82 velocity=58 time=0
note_on channel=0 note=63 velocity=36 time=0
note_on channel=0 note=67 velocity=36 time=0
note_on channel=0 note=67 velocity=0 time=228
note_on channel=0 note=63 velocity=0 time=0
note_on channel=0 note=82 velocity=0 time=12
note_on channel=0 note=60 velocity=0 time=0
note_on channel=0 note=82 velocity=57 time=0
note_on channel=0 note=53 velocity=42 time=0
note_on channel=0 note=82 velocity=0 time=60
note_on channel=0 note=84 velocity=57 time=0
note_on channel=0 note=84 velocity=0 time=60
note_on channel=0 note=82 velocity=63 time=0
note_on channel=0 note=82 velocity=0 time=120
note_on channel=0 note=81 velocity=57 time=0
note_on channel=0 note=63 velocity=36 time=0
note_on channel=0 note=65 velocity=36 time=0
note_on channel=0 note=65 velocity=0 time=228
note_on channel=0 note=63 velocity=0 time=0
note_on channel=0 note=81 velocity=0 time=12
note_on channel=0 note=79 velocity=56 time=0
note_on channel=0 note=63 velocity=35 time=0
note_on channel=0 note=65 velocity=35 time=0
note_on channel=0 note=79 velocity=0 time=120
note_on channel=0 note=65 velocity=0 time=108
note_on channel=0 note=63 velocity=0 time=0
note_on channel=0 note=81 velocity=55 time=12
note_on channel=0 note=63 velocity=35 time=0
note_on channel=0 note=65 velocity=35 time=0
note_on channel=0 note=81 velocity=0 time=0
note_on channel=0 note=65 velocity=0 time=108
note_on channel=0 note=63 velocity=0 time=0
note_on channel=0 note=53 velocity=0 time=0
note_on channel=0 note=84 velocity=55 time=0
note_on channel=0 note=58 velocity=40 time=0
note_on channel=0 note=84 velocity=0 time=60
note_on channel=0 note=85 velocity=55 time=0
note_on channel=0 note=85 velocity=0 time=60
note_on channel=0 note=84 velocity=61 time=0
note_on channel=0 note=84 velocity=0 time=120
note_on channel=0 note=82 velocity=54 time=0
note_on channel=0 note=61 velocity=34 time=0
note_on channel=0 note=65 velocity=34 time=0
note_on channel=0 note=65 velocity=0 time=228
note_on channel=0 note=61 velocity=0 time=0
note_on channel=0 note=82 velocity=0 time=12
note_on channel=0 note=82 velocity=54 time=0
note_on channel=0 note=61 velocity=34 time=0
note_on channel=0 note=65 velocity=34 time=0
note_on channel=0 note=82 velocity=0 time=60
note_on channel=0 note=84 velocity=54 time=0
note_on channel=0 note=84 velocity=0 time=60
note_on channel=0 note=82 velocity=60 time=0
note_on channel=0 note=65 velocity=0 time=108
note_on channel=0 note=61 velocity=0 time=0
note_on channel=0 note=82 velocity=0 time=12
note_on channel=0 note=80 velocity=53 time=0
note_on channel=0 note=61 velocity=33 time=0
note_on channel=0 note=65 velocity=33 time=0
note_on channel=0 note=65 velocity=0 time=228
note_on channel=0 note=61 velocity=0 time=0
note_on channel=0 note=80 velocity=0 time=12
note_on channel=0 note=58 velocity=0 time=0
note_on channel=0 note=80 velocity=52 time=0
note_on channel=0 note=51 velocity=38 time=0
note_on channel=0 note=80 velocity=0 time=60
note_on channel=0 note=82 velocity=52 time=0
note_on channel=0 note=82 velocity=0 time=60
note_on channel=0 note=80 velocity=57 time=0
note_on channel=0 note=80 velocity=0 time=120
note_on channel=0 note=79 velocity=52 time=0
note_on channel=0 note=61 velocity=33 time=0
note_on channel=0 note=63 velocity=33 time=0
note_on channel=0 note=63 velocity=0 time=228
note_on channel=0 note=61 velocity=0 time=0
note_on channel=0 note=79 velocity=0 time=12
note_on channel=0 note=77 velocity=51 time=0
note_on channel=0 note=61 velocity=32 time=0
note_on channel=0 note=63 velocity=32 time=0
note_on channel=0 note=77 velocity=0 time=120
note_on channel=0 note=63 velocity=0 time=108
note_on channel=0 note=61 velocity=0 time=0
note_on channel=0 note=79 velocity=51 time=12
note_on channel=0 note=61 velocity=32 time=0
note_on channel=0 note=63 velocity=32 time=0
note_on channel=0 note=79 velocity=0 time=0
note_on channel=0 note=63 velocity=0 time=108
note_on channel=0 note=61 velocity=0 time=0
note_on channel=0 note=51 velocity=0 time=0
note_on channel=0 note=82 velocity=50 time=0
note_on channel=0 note=56 velocity=36 time=0
note_on channel=0 note=82 velocity=0 time=60
note_on channel=0 note=84 velocity=50 time=0
note_on channel=0 note=84 velocity=0 time=60
note_on channel=0 note=82 velocity=55 time=0
note_on channel=0 note=82 velocity=0 time=120
note_on channel=0 note=80 velocity=49 time=0
note_on channel=0 note=60 velocity=31 time=0
note_on channel=0 note=63 velocity=31 time=0
note_on channel=0 note=63 velocity=0 time=228
note_on channel=0 note=60 velocity=0 time=0
note_on channel=0 note=80 velocity=0 time=12
note_on channel=0 note=80 velocity=49 time=0
note_on channel=0 note=60 velocity=31 time=0
note_on channel=0 note=63 velocity=31 time=0
note_on channel=0 note=80 velocity=0 time=60
note_on channel=0 note=82 velocity=48 time=0
note_on channel=0 note=82 velocity=0 time=60
note_on channel=0 note=80 velocity=54 time=0
note_on channel=0 note=63 velocity=0 time=108
note_on channel=0 note=60 velocity=0 time=0
note_on channel=0 note=80 velocity=0 time=12
note_on channel=0 note=79 velocity=48 time=0
note_on channel=0 note=60 velocity=30 time=0
note_on channel=0 note=63 velocity=30 time=0
note_on channel=0 note=63 velocity=0 time=108
note_on channel=0 note=60 velocity=0 time=0
note_on channel=0 note=79 velocity=0 time=0
note_on channel=0 note=56 velocity=0 time=0
note_on channel=0 note=79 velocity=48 time=0
note_on channel=0 note=56 velocity=35 time=0
note_on channel=0 note=79 velocity=0 time=60
note_on channel=0 note=80 velocity=47 time=0
note_on channel=0 note=80 velocity=0 time=60
note_on channel=0 note=79 velocity=52 time=0
note_on channel=0 note=79 velocity=0 time=120
note_on channel=0 note=78 velocity=47 time=0
note_on channel=0 note=60 velocity=30 time=0
note_on channel=0 note=63 velocity=30 time=0
note_on channel=0 note=63 velocity=0 time=228
note_on channel=0 note=60 velocity=0 time=0
note_on channel=0 note=78 velocity=0 time=12
note_on channel=0 note=78 velocity=46 time=0
note_on channel=0 note=60 velocity=29 time=0
note_on channel=0 note=63 velocity=29 time=0
note_on channel=0 note=78 velocity=0 time=120
note_on channel=0 note=63 velocity=0 time=108
note_on channel=0 note=60 velocity=0 time=0
note_on channel=0 note=78 velocity=46 time=12
note_on channel=0 note=60 velocity=29 time=0
note_on channel=0 note=63 velocity=29 time=0
note_on channel=0 note=78 velocity=0 time=0
note_on channel=0 note=63 velocity=0 time=108
note_on channel=0 note=60 velocity=0 time=0
note_on channel=0 note=56 velocity=0 time=0
note_on channel=0 note=80 velocity=42 time=0
note_on channel=0 note=55 velocity=30 time=0
note_on channel=0 note=80 velocity=0 time=60
note_on channel=0 note=82 velocity=42 time=0
note_on channel=0 note=82 velocity=0 time=60
note_on channel=0 note=80 velocity=46 time=0
note_on channel=0 note=80 velocity=0 time=120
note_on channel=0 note=79 velocity=42 time=0
note_on channel=0 note=60 velocity=26 time=0
note_on channel=0 note=63 velocity=26 time=0
note_on channel=0 note=63 velocity=0 time=228
note_on channel=0 note=60 velocity=0 time=0
note_on channel=0 note=79 velocity=0 time=12
note_on channel=0 note=79 velocity=42 time=0
note_on channel=0 note=60 velocity=26 time=0
note_on channel=0 note=63 velocity=26 time=0
note_on channel=0 note=79 velocity=0 time=120
note_on channel=0 note=63 velocity=0 time=108
note_on channel=0 note=60 velocity=0 time=0
note_on channel=0 note=79 velocity=42 time=12
note_on channel=0 note=60 velocity=26 time=0
note_on channel=0 note=63 velocity=26 time=0
note_on channel=0 note=79 velocity=0 time=0
note_on channel=0 note=63 velocity=0 time=108
note_on channel=0 note=60 velocity=0 time=0
note_on channel=0 note=55 velocity=0 time=0
note_on channel=0 note=80 velocity=42 time=0
note_on channel=0 note=55 velocity=30 time=0
note_on channel=0 note=80 velocity=0 time=60
note_on channel=0 note=82 velocity=42 time=0
note_on channel=0 note=82 velocity=0 time=60
note_on channel=0 note=80 velocity=46 time=0
note_on channel=0 note=80 velocity=0 time=120
note_on channel=0 note=79 velocity=42 time=0
note_on channel=0 note=59 velocity=26 time=0
note_on channel=0 note=62 velocity=26 time=0
note_on channel=0 note=62 velocity=0 time=228
note_on channel=0 note=59 velocity=0 time=0
note_on channel=0 note=79 velocity=0 time=12
note_on channel=0 note=79 velocity=42 time=0
note_on channel=0 note=59 velocity=26 time=0
note_on channel=0 note=62 velocity=26 time=0
note_on channel=0 note=79 velocity=0 time=120
note_on channel=0 note=62 velocity=0 time=108
note_on channel=0 note=59 velocity=0 time=0
note_on channel=0 note=79 velocity=42 time=12
note_on channel=0 note=59 velocity=26 time=0
note_on channel=0 note=62 velocity=26 time=0
note_on channel=0 note=79 velocity=0 time=120
note_on channel=0 note=62 velocity=0 time=108
note_on channel=0 note=59 velocity=0 time=0
note_on channel=0 note=55 velocity=0 time=0
note_on channel=0 note=48 velocity=36 time=0
note_on channel=0 note=60 velocity=25 time=35
note_on channel=0 note=55 velocity=24 time=0
note_on channel=0 note=55 velocity=0 time=0
note_on channel=0 note=60 velocity=0 time=0
note_on channel=0 note=63 velocity=29 time=0
note_on channel=0 note=51 velocity=26 time=0
note_on channel=0 note=51 velocity=0 time=120
note_on channel=0 note=63 velocity=0 time=0
note_on channel=0 note=60 velocity=29 time=0
note_on channel=0 note=55 velocity=24 time=0
note_on channel=0 note=55 velocity=0 time=80
note_on channel=0 note=60 velocity=0 time=0
note_on channel=0 note=72 velocity=45 time=0
note_on channel=0 note=51 velocity=32 time=0
note_on channel=0 note=51 velocity=0 time=60
note_on channel=0 note=60 velocity=28 time=0
note_on channel=0 note=55 velocity=25 time=0
note_on channel=0 note=55 velocity=0 time=40
note_on channel=0 note=60 velocity=0 time=0
note_on channel=0 note=63 velocity=30 time=0
note_on channel=0 note=51 velocity=28 time=0
note_on channel=0 note=51 velocity=0 time=20
note_on channel=0 note=63 velocity=0 time=0
note_on channel=0 note=60 velocity=28 time=0
note_on channel=0 note=55 velocity=26 time=0
note_on channel=0 note=55 velocity=0 time=0
note_on channel=0 note=60 velocity=0 time=0
note_on channel=0 note=63 velocity=31 time=0
note_on channel=0 note=51 velocity=34 time=0
note_on channel=0 note=51 velocity=0 time=35
note_on channel=0 note=63 velocity=0 time=0
note_on channel=0 note=60 velocity=30 time=0
note_on channel=0 note=55 velocity=26 time=0
note_on channel=0 note=55 velocity=0 time=120
note_on channel=0 note=60 velocity=0 time=0
note_on channel=0 note=63 velocity=32 time=0
note_on channel=0 note=51 velocity=29 time=0
note_on channel=0 note=51 velocity=0 time=120
note_on channel=0 note=63 velocity=0 time=0
note_on channel=0 note=60 velocity=29 time=0
note_on channel=0 note=55 velocity=26 time=0
note_on channel=0 note=55 velocity=0 time=120
note_on channel=0 note=48 velocity=0 time=0
note_on channel=0 note=72 velocity=0 time=0
note_on channel=0 note=60 velocity=0 time=0
note_on channel=0 note=72 velocity=50 time=0
note_on channel=0 note=48 velocity=36 time=0
note_on channel=0 note=60 velocity=30 time=120
note_on channel=0 note=55 velocity=28 time=0
note_on channel=0 note=55 velocity=0 time=120
note_on channel=0 note=60 velocity=0 time=0
note_on channel=0 note=63 velocity=33 time=0
note_on channel=0 note=51 velocity=32 time=0
note_on channel=0 note=51 velocity=0 time=120
note_on channel=0 note=63 velocity=0 time=0
note_on channel=0 note=60 velocity=32 time=0
note_on channel=0 note=55 velocity=28 time=0
note_on channel=0 note=55 velocity=0 time=0
note_on channel=0 note=72 velocity=0 time=0
note_on channel=0 note=48 velocity=0 time=0
note_on channel=0 note=60 velocity=0 time=0
note_on channel=0 note=46 velocity=45 time=0
note_on channel=0 note=61 velocity=32 time=111
note_on channel=0 note=55 velocity=30 time=0
note_on channel=0 note=55 velocity=0 time=20
note_on channel=0 note=61 velocity=0 time=0
note_on channel=0 note=64 velocity=36 time=0
note_on channel=0 note=52 velocity=32 time=0
note_on channel=0 note=52 velocity=0 time=120
note_on channel=0 note=64 velocity=0 time=0
note_on channel=0 note=61 velocity=35 time=0
note_on channel=0 note=55 velocity=29 time=0
note_on channel=0 note=55 velocity=0 time=0
note_on channel=0 note=61 velocity=0 time=0
note_on channel=0 note=73 velocity=54 time=0
note_on channel=0 note=52 velocity=38 time=0
note_on channel=0 note=52 velocity=0 time=120
note_on channel=0 note=61 velocity=33 time=0
note_on channel=0 note=55 velocity=30 time=0
note_on channel=0 note=55 velocity=0 time=0
note_on channel=0 note=61 velocity=0 time=0
note_on channel=0 note=64 velocity=35 time=0
note_on channel=0 note=52 velocity=33 time=0
note_on channel=0 note=52 velocity=0 time=120
note_on channel=0 note=64 velocity=0 time=0
note_on channel=0 note=61 velocity=32 time=0
note_on channel=0 note=55 velocity=30 time=0
note_on channel=0 note=55 velocity=0 time=0
note_on channel=0 note=61 velocity=0 time=0
note_on channel=0 note=64 velocity=35 time=0
note_on channel=0 note=52 velocity=38 time=0
note_on channel=0 note=52 velocity=0 time=34
note_on channel=0 note=64 velocity=0 time=0
note_on channel=0 note=61 velocity=33 time=0
note_on channel=0 note=55 velocity=29 time=0
note_on channel=0 note=55 velocity=0 time=120
note_on channel=0 note=61 velocity=0 time=0
note_on channel=0 note=64 velocity=35 time=0
note_on channel=0 note=52 velocity=32 time=0
note_on channel=0 note=52 velocity=0 time=120
note_on channel=0 note=64 velocity=0 time=0
note_on channel=0 note=61 velocity=32 time=0
note_on channel=0 note=55 velocity=29 time=0
note_on channel=0 note=55 velocity=0 time=120
note_on channel=0 note=46 velocity=0 time=0
note_on channel=0 note=73 velocity=0 time=0
note_on channel=0 note=61 velocity=0 time=0
note_on channel=0 note=73 velocity=53 time=0
note_on channel=0 note=46 velocity=38 time=0
note_on channel=0 note=61 velocity=32 time=120
note_on channel=0 note=55 velocity=30 time=0
note_on channel=0 note=55 velocity=0 time=120
note_on channel=0 note=61 velocity=0 time=0
note_on channel=0 note=64 velocity=35 time=0
note_on channel=0 note=52 velocity=33 time=0
note_on channel=0 note=52 velocity=0 time=0
note_on channel=0 note=64 velocity=0 time=0
note_on channel=0 note=61 velocity=33 time=0
note_on channel=0 note=55 velocity=29 time=0
note_on channel=0 note=55 velocity=0 time=0
note_on channel=0 note=73 velocity=0 time=0
note_on channel=0 note=46 velocity=0 time=0
note_on channel=0 note=61 velocity=0 time=0
note_on channel=0 note=72 velocity=66 time=0
note_on channel=0 note=44 velocity=55 time=0
note_on channel=0 note=44 velocity=0 time=79
note_on channel=0 note=72 velocity=0 time=0
note_on channel=0 note=60 velocity=41 time=30
note_on channel=0 note=56 velocity=36 time=0
note_on channel=0 note=56 velocity=0 time=40
note_on channel=0 note=60 velocity=0 time=0
note_on channel=0 note=65 velocity=45 time=0
note_on channel=0 note=48 velocity=39 time=0
note_on channel=0 note=48 velocity=0 time=120
note_on channel=0 note=65 velocity=0 time=0
note_on channel=0 note=60 velocity=42 time=0
note_on channel=0 note=56 velocity=35 time=0
note_on channel=0 note=56 velocity=0 time=80
note_on channel=0 note=60 velocity=0 time=0
note_on channel=0 note=76 velocity=67 time=0
note_on channel=0 note=46 velocity=56 time=0
note_on channel=0 note=46 velocity=0 time=90
note_on channel=0 note=76 velocity=0 time=0
note_on channel=0 note=64 velocity=43 time=20
note_on channel=0 note=58 velocity=36 time=0
note_on channel=0 note=58 velocity=0 time=120
note_on channel=0 note=64 velocity=0 time=0
note_on channel=0 note=72 velocity=47 time=0
note_on channel=0 note=48 velocity=43 time=0
note_on channel=0 note=48 velocity=0 time=60
note_on channel=0 note=72 velocity=0 time=0
note_on channel=0 note=64 velocity=43 time=0
note_on channel=0 note=58 velocity=41 time=0
note_on channel=0 note=58 velocity=0 time=0
note_on channel=0 note=64 velocity=0 time=0
note_on channel=0 note=77 velocity=71 time=0
note_on channel=0 note=44 velocity=58 time=0
note_on channel=0 note=44 velocity=0 time=90
note_on channel=0 note=77 velocity=0 time=0
note_on channel=0 note=65 velocity=45 time=30
note_on channel=0 note=56 velocity=38 time=0
note_on channel=0 note=56 velocity=0 time=120
note_on channel=0 note=65 velocity=0 time=0
note_on channel=0 note=72 velocity=50 time=0
note_on channel=0 note=48 velocity=43 time=0
note_on channel=0 note=48 velocity=0 time=120
note_on channel=0 note=72 velocity=0 time=0
note_on channel=0 note=65 velocity=45 time=0
note_on channel=0 note=56 velocity=38 time=0
note_on channel=0 note=56 velocity=0 time=120
note_on channel=0 note=65 velocity=0 time=0
note_on channel=0 note=79 velocity=72 time=0
note_on channel=0 note=43 velocity=60 time=0
note_on channel=0 note=43 velocity=0 time=90
note_on channel=0 note=79 velocity=0 time=0
note_on channel=0 note=67 velocity=47 time=30
note_on channel=0 note=55 velocity=40 time=0
note_on channel=0 note=55 velocity=0 time=120
note_on channel=0 note=67 velocity=0 time=0
note_on channel=0 note=72 velocity=50 time=0
note_on channel=0 note=48 velocity=43 time=0
note_on channel=0 note=48 velocity=0 time=120
note_on channel=0 note=72 velocity=0 time=0
note_on channel=0 note=67 velocity=47 time=0
note_on channel=0 note=55 velocity=38 time=0
note_on channel=0 note=55 velocity=0 time=0
note_on channel=0 note=67 velocity=0 time=0
note_on channel=0 note=80 velocity=74 time=0
note_on channel=0 note=41 velocity=63 time=0
note_on channel=0 note=41 velocity=0 time=50
note_on channel=0 note=80 velocity=0 time=0
note_on channel=0 note=68 velocity=49 time=20
note_on channel=0 note=53 velocity=42 time=0
note_on channel=0 note=53 velocity=0 time=0
note_on channel=0 note=68 velocity=0 time=0
note_on channel=0 note=72 velocity=54 time=0
note_on channel=0 note=48 velocity=45 time=0
note_on channel=0 note=48 velocity=0 time=0
note_on channel=0 note=72 velocity=0 time=0
note_on channel=0 note=68 velocity=49 time=0
note_on channel=0 note=53 velocity=42 time=0
note_on channel=0 note=53 velocity=0 time=40
note_on channel=0 note=68 velocity=0 time=0
note_on channel=0 note=81 velocity=80 time=0
note_on channel=0 note=39 velocity=66 time=0
note_on channel=0 note=39 velocity=0 time=90
note_on channel=0 note=81 velocity=0 time=0
note_on channel=0 note=69 velocity=50 time=30
note_on channel=0 note=51 velocity=41 time=0
note_on channel=0 note=51 velocity=0 time=120
note_on channel=0 note=69 velocity=0 time=0
note_on channel=0 note=72 velocity=55 time=0
note_on channel=0 note=48 velocity=47 time=0
note_on channel=0 note=48 velocity=0 time=0
note_on channel=0 note=72 velocity=0 time=0
note_on channel=0 note=69 velocity=51 time=0
note_on channel=0 note=51 velocity=41 time=0
note_on channel=0 note=51 velocity=0 time=40
note_on channel=0 note=69 velocity=0 time=0
note_on channel=0 note=83 velocity=84 time=0
note_on channel=0 note=38 velocity=68 time=0
note_on channel=0 note=38 velocity=0 time=10
note_on channel=0 note=83 velocity=0 time=0
note_on channel=0 note=71 velocity=51 time=30
note_on channel=0 note=50 velocity=45 time=0
note_on channel=0 note=50 velocity=0 time=0
note_on channel=0 note=71 velocity=0 time=0
note_on channel=0 note=77 velocity=58 time=0
note_on channel=0 note=43 velocity=49 time=0
note_on channel=0 note=43 velocity=0 time=0
note_on channel=0 note=77 velocity=0 time=0
note_on channel=0 note=71 velocity=53 time=0
note_on channel=0 note=50 velocity=43 time=0
note_on channel=0 note=50 velocity=0 time=0
note_on channel=0 note=71 velocity=0 time=0
note_on channel=0 note=84 velocity=85 time=0
note_on channel=0 note=36 velocity=70 time=0
note_on channel=0 note=36 velocity=0 time=10
note_on channel=0 note=84 velocity=0 time=0
note_on channel=0 note=72 velocity=53 time=20
note_on channel=0 note=48 velocity=45 time=0
note_on channel=0 note=48 velocity=0 time=0
note_on channel=0 note=72 velocity=0 time=0
note_on channel=0 note=77 velocity=58 time=0
note_on channel=0 note=43 velocity=51 time=0
note_on channel=0 note=43 velocity=0 time=0
note_on channel=0 note=77 velocity=0 time=0
note_on channel=0 note=72 velocity=54 time=0
note_on channel=0 note=48 velocity=43 time=0
note_on channel=0 note=48 velocity=0 time=20
note_on channel=0 note=72 velocity=0 time=0
note_on channel=0 note=86 velocity=85 time=0
note_on channel=0 note=35 velocity=70 time=0
note_on channel=0 note=35 velocity=0 time=30
note_on channel=0 note=86 velocity=0 time=0
note_on channel=0 note=74 velocity=55 time=0
note_on channel=0 note=47 velocity=47 time=0
note_on channel=0 note=47 velocity=0 time=0
note_on channel=0 note=74 velocity=0 time=0
note_on channel=0 note=77 velocity=63 time=0
note_on channel=0 note=43 velocity=53 time=0
note_on channel=0 note=43 velocity=0 time=60
note_on channel=0 note=77 velocity=0 time=0
note_on channel=0 note=74 velocity=55 time=0
note_on channel=0 note=47 velocity=48 time=0
note_on channel=0 note=47 velocity=0 time=40
note_on channel=0 note=74 velocity=0 time=0
note_on channel=0 note=88 velocity=90 time=0
note_on channel=0 note=34 velocity=72 time=0
note_on channel=0 note=34 velocity=0 time=10
note_on channel=0 note=88 velocity=0 time=0
note_on channel=0 note=76 velocity=57 time=0
note_on channel=0 note=46 velocity=47 time=0
note_on channel=0 note=46 velocity=0 time=40
note_on channel=0 note=76 velocity=0 time=0
note_on channel=0 note=79 velocity=62 time=0
note_on channel=0 note=36 velocity=53 time=0
note_on channel=0 note=36 velocity=0 time=20
note_on channel=0 note=79 velocity=0 time=0
note_on channel=0 note=76 velocity=57 time=0
note_on channel=0 note=46 velocity=50 time=0
note_on channel=0 note=46 velocity=0 time=0
note_on channel=0 note=76 velocity=0 time=0
note_on channel=0 note=89 velocity=89 time=0
note_on channel=0 note=32 velocity=75 time=0
note_on channel=0 note=32 velocity=0 time=30
note_on channel=0 note=89 velocity=0 time=0
note_on channel=0 note=77 velocity=59 time=30
note_on channel=0 note=44 velocity=50 time=0
note_on channel=0 note=44 velocity=0 time=80
note_on channel=0 note=77 velocity=0 time=0
note_on channel=0 note=80 velocity=64 time=0
note_on channel=0 note=36 velocity=55 time=0
note_on channel=0 note=36 velocity=0 time=20
note_on channel=0 note=80 velocity=0 time=0
note_on channel=0 note=77 velocity=59 time=0
note_on channel=0 note=44 velocity=50 time=0
note_on channel=0 note=44 velocity=0 time=0
note_on channel=0 note=77 velocity=0 time=0
note_on channel=0 note=86 velocity=91 time=0
note_on channel=0 note=29 velocity=76 time=0
note_on channel=0 note=29 velocity=0 time=90
note_on channel=0 note=86 velocity=0 time=0
note_on channel=0 note=77 velocity=61 time=30
note_on channel=0 note=41 velocity=56 time=0
note_on channel=0 note=41 velocity=0 time=120
note_on channel=0 note=77 velocity=0 time=0
note_on channel=0 note=80 velocity=67 time=0
note_on channel=0 note=36 velocity=58 time=0
note_on channel=0 note=36 velocity=0 time=120
note_on channel=0 note=80 velocity=0 time=0
note_on channel=0 note=77 velocity=61 time=0
note_on channel=0 note=41 velocity=55 time=0
note_on channel=0 note=41 velocity=0 time=0
note_on channel=0 note=77 velocity=0 time=0
note_on channel=0 note=31 velocity=71 time=0
note_on channel=0 note=43 velocity=84 time=0
note_on channel=0 note=75 velocity=78 time=0
note_on channel=0 note=75 velocity=0 time=120
note_on channel=0 note=43 velocity=0 time=0
note_on channel=0 note=31 velocity=0 time=0
note_on channel=0 note=79 velocity=84 time=0
note_on channel=0 note=79 velocity=0 time=120
note_on channel=0 note=75 velocity=78 time=0
note_on channel=0 note=75 velocity=0 time=120
note_on channel=0 note=84 velocity=88 time=0
note_on channel=0 note=84 velocity=0 time=90
note_on channel=0 note=75 velocity=78 time=30
note_on channel=0 note=75 velocity=0 time=0
note_on channel=0 note=79 velocity=84 time=0
note_on channel=0 note=79 velocity=0 time=120
note_on channel=0 note=75 velocity=76 time=0
note_on channel=0 note=75 velocity=0 time=0
note_on channel=0 note=55 velocity=84 time=0
note_on channel=0 note=43 velocity=71 time=0
note_on channel=0 note=74 velocity=78 time=0
note_on channel=0 note=74 velocity=0 time=120
note_on channel=0 note=43 velocity=0 time=0
note_on channel=0 note=55 velocity=0 time=0
note_on channel=0 note=77 velocity=84 time=0
note_on channel=0 note=77 velocity=0 time=120
note_on channel=0 note=74 velocity=78 time=0
note_on channel=0 note=74 velocity=0 time=120
note_on channel=0 note=83 velocity=88 time=0
note_on channel=0 note=83 velocity=0 time=90
note_on channel=0 note=74 velocity=78 time=30
note_on channel=0 note=74 velocity=0 time=0
note_on channel=0 note=77 velocity=84 time=0
note_on channel=0 note=77 velocity=0 time=0
note_on channel=0 note=74 velocity=76 time=0
note_on channel=0 note=74 velocity=0 time=0
note_on channel=0 note=48 velocity=45 time=0
note_on channel=0 note=60 velocity=32 time=7
note_on channel=0 note=55 velocity=30 time=0
note_on channel=0 note=55 velocity=0 time=0
note_on channel=0 note=60 velocity=0 time=0
note_on channel=0 note=63 velocity=36 time=0
note_on channel=0 note=51 velocity=32 time=0
note_on channel=0 note=51 velocity=0 time=120
note_on channel=0 note=63 velocity=0 time=0
note_on channel=0 note=60 velocity=35 time=0
note_on channel=0 note=55 velocity=29 time=0
note_on channel=0 note=55 velocity=0 time=80
note_on channel=0 note=60 velocity=0 time=0
note_on channel=0 note=72 velocity=54 time=0
note_on channel=0 note=51 velocity=38 time=0
note_on channel=0 note=51 velocity=0 time=60
note_on channel=0 note=60 velocity=33 time=0
note_on channel=0 note=55 velocity=30 time=0
note_on channel=0 note=55 velocity=0 time=40
note_on channel=0 note=60 velocity=0 time=0
note_on channel=0 note=63 velocity=35 time=0
note_on channel=0 note=51 velocity=33 time=0
note_on channel=0 note=51 velocity=0 time=20
note_on channel=0 note=63 velocity=0 time=0
note_on channel=0 note=60 velocity=32 time=0
note_on channel=0 note=55 velocity=30 time=0
note_on channel=0 note=55 velocity=0 time=0
note_on channel=0 note=60 velocity=0 time=0
note_on channel=0 note=63 velocity=35 time=0
note_on channel=0 note=51 velocity=38 time=0
note_on channel=0 note=51 velocity=0 time=21
note_on channel=0 note=63 velocity=0 time=0
note_on channel=0 note=60 velocity=33 time=0
note_on channel=0 note=55 velocity=29 time=0
note_on channel=0 note=55 velocity=0 time=120
note_on channel=0 note=60 velocity=0 time=0
note_on channel=0 note=63 velocity=35 time=0
note_on channel=0 note=51 velocity=32 time=0
note_on channel=0 note=51 velocity=0 time=120
note_on channel=0 note=63 velocity=0 time=0
note_on channel=0 note=60 velocity=32 time=0
note_on channel=0 note=55 velocity=29 time=0
note_on channel=0 note=55 velocity=0 time=120
note_on channel=0 note=48 velocity=0 time=0
note_on channel=0 note=72 velocity=0 time=0
note_on channel=0 note=60 velocity=0 time=0
note_on channel=0 note=72 velocity=53 time=0
note_on channel=0 note=48 velocity=38 time=0
note_on channel=0 note=60 velocity=32 time=120
note_on channel=0 note=55 velocity=30 time=0
note_on channel=0 note=55 velocity=0 time=120
note_on channel=0 note=60 velocity=0 time=0
note_on channel=0 note=63 velocity=35 time=0
note_on channel=0 note=51 velocity=33 time=0
note_on channel=0 note=51 velocity=0 time=120
note_on channel=0 note=63 velocity=0 time=0
note_on channel=0 note=60 velocity=33 time=0
note_on channel=0 note=55 velocity=29 time=0
note_on channel=0 note=55 velocity=0 time=0
note_on channel=0 note=72 velocity=0 time=0
note_on channel=0 note=48 velocity=0 time=0
note_on channel=0 note=60 velocity=0 time=0
note_on channel=0 note=46 velocity=45 time=0
note_on channel=0 note=61 velocity=32 time=103
note_on channel=0 note=55 velocity=30 time=0
note_on channel=0 note=55 velocity=0 time=20
note_on channel=0 note=61 velocity=0 time=0
note_on channel=0 note=64 velocity=36 time=0
note_on channel=0 note=52 velocity=32 time=0
note_on channel=0 note=52 velocity=0 time=120
note_on channel=0 note=64 velocity=0 time=0
note_on channel=0 note=61 velocity=35 time=0
note_on channel=0 note=55 velocity=29 time=0
note_on channel=0 note=55 velocity=0 time=0
note_on channel=0 note=61 velocity=0 time=0
note_on channel=0 note=73 velocity=54 time=0
note_on channel=0 note=52 velocity=38 time=0
note_on channel=0 note=52 velocity=0 time=120
note_on channel=0 note=61 velocity=33 time=0
note_on channel=0 note=55 velocity=30 time=0
note_on channel=0 note=55 velocity=0 time=0
note_on channel=0 note=61 velocity=0 time=0
note_on channel=0 note=64 velocity=35 time=0
note_on channel=0 note=52 velocity=33 time=0
note_on channel=0 note=52 velocity=0 time=120
note_on channel=0 note=64 velocity=0 time=0
note_on channel=0 note=61 velocity=32 time=0
note_on channel=0 note=55 velocity=30 time=0
note_on channel=0 note=55 velocity=0 time=0
note_on channel=0 note=61 velocity=0 time=0
note_on channel=0 note=64 velocity=35 time=0
note_on channel=0 note=52 velocity=38 time=0
note_on channel=0 note=52 velocity=0 time=28
note_on channel=0 note=64 velocity=0 time=0
note_on channel=0 note=61 velocity=33 time=0
note_on channel=0 note=55 velocity=29 time=0
note_on channel=0 note=55 velocity=0 time=120
note_on channel=0 note=61 velocity=0 time=0
note_on channel=0 note=64 velocity=35 time=0
note_on channel=0 note=52 velocity=32 time=0
note_on channel=0 note=52 velocity=0 time=120
note_on channel=0 note=64 velocity=0 time=0
note_on channel=0 note=61 velocity=32 time=0
note_on channel=0 note=55 velocity=29 time=0
note_on channel=0 note=55 velocity=0 time=120
note_on channel=0 note=46 velocity=0 time=0
note_on channel=0 note=73 velocity=0 time=0
note_on channel=0 note=61 velocity=0 time=0
note_on channel=0 note=73 velocity=53 time=0
note_on channel=0 note=46 velocity=38 time=0
note_on channel=0 note=61 velocity=32 time=120
note_on channel=0 note=55 velocity=30 time=0
note_on channel=0 note=55 velocity=0 time=120
note_on channel=0 note=61 velocity=0 time=0
note_on channel=0 note=64 velocity=35 time=0
note_on channel=0 note=52 velocity=33 time=0
note_on channel=0 note=52 velocity=0 time=0
note_on channel=0 note=64 velocity=0 time=0
note_on channel=0 note=61 velocity=33 time=0
note_on channel=0 note=55 velocity=29 time=0
note_on channel=0 note=55 velocity=0 time=0
note_on channel=0 note=73 velocity=0 time=0
note_on channel=0 note=46 velocity=0 time=0
note_on channel=0 note=61 velocity=0 time=0
note_on channel=0 note=72 velocity=66 time=0
note_on channel=0 note=44 velocity=55 time=0
note_on channel=0 note=44 velocity=0 time=87
note_on channel=0 note=72 velocity=0 time=0
note_on channel=0 note=60 velocity=41 time=30
note_on channel=0 note=56 velocity=36 time=0
note_on channel=0 note=56 velocity=0 time=40
note_on channel=0 note=60 velocity=0 time=0
note_on channel=0 note=65 velocity=45 time=0
note_on channel=0 note=48 velocity=39 time=0
note_on channel=0 note=48 velocity=0 time=120
note_on channel=0 note=65 velocity=0 time=0
note_on channel=0 note=60 velocity=42 time=0
note_on channel=0 note=56 velocity=35 time=0
note_on channel=0 note=56 velocity=0 time=80
note_on channel=0 note=60 velocity=0 time=0
note_on channel=0 note=76 velocity=67 time=0
note_on channel=0 note=46 velocity=56 time=0
note_on channel=0 note=46 velocity=0 time=90
note_on channel=0 note=76 velocity=0 time=0
note_on channel=0 note=64 velocity=43 time=20
note_on channel=0 note=58 velocity=36 time=0
note_on channel=0 note=58 velocity=0 time=120
note_on channel=0 note=64 velocity=0 time=0
note_on channel=0 note=72 velocity=47 time=0
note_on channel=0 note=48 velocity=43 time=0
note_on channel=0 note=48 velocity=0 time=60
note_on channel=0 note=72 velocity=0 time=0
note_on channel=0 note=64 velocity=43 time=0
note_on channel=0 note=58 velocity=41 time=0
note_on channel=0 note=58 velocity=0 time=0
note_on channel=0 note=64 velocity=0 time=0
note_on channel=0 note=77 velocity=71 time=0
note_on channel=0 note=44 velocity=58 time=0
note_on channel=0 note=44 velocity=0 time=90
note_on channel=0 note=77 velocity=0 time=0
note_on channel=0 note=65 velocity=45 time=30
note_on channel=0 note=56 velocity=38 time=0
note_on channel=0 note=56 velocity=0 time=120
note_on channel=0 note=65 velocity=0 time=0
note_on channel=0 note=72 velocity=50 time=0
note_on channel=0 note=48 velocity=43 time=0
note_on channel=0 note=48 velocity=0 time=120
note_on channel=0 note=72 velocity=0 time=0
note_on channel=0 note=65 velocity=45 time=0
note_on channel=0 note=56 velocity=38 time=0
note_on channel=0 note=56 velocity=0 time=120
note_on channel=0 note=65 velocity=0 time=0
note_on channel=0 note=79 velocity=72 time=0
note_on channel=0 note=43 velocity=60 time=0
note_on channel=0 note=43 velocity=0 time=90
note_on channel=0 note=79 velocity=0 time=0
note_on channel=0 note=67 velocity=47 time=30
note_on channel=0 note=55 velocity=40 time=0
note_on channel=0 note=55 velocity=0 time=120
note_on channel=0 note=67 velocity=0 time=0
note_on channel=0 note=72 velocity=50 time=0
note_on channel=0 note=48 velocity=43 time=0
note_on channel=0 note=48 velocity=0 time=120
note_on channel=0 note=72 velocity=0 time=0
note_on channel=0 note=67 velocity=47 time=0
note_on channel=0 note=55 velocity=38 time=0
note_on channel=0 note=55 velocity=0 time=0
note_on channel=0 note=67 velocity=0 time=0
note_on channel=0 note=80 velocity=74 time=0
note_on channel=0 note=41 velocity=63 time=0
note_on channel=0 note=41 velocity=0 time=30
note_on channel=0 note=80 velocity=0 time=0
note_on channel=0 note=68 velocity=49 time=20
note_on channel=0 note=53 velocity=42 time=0
note_on channel=0 note=53 velocity=0 time=0
note_on channel=0 note=68 velocity=0 time=0
note_on channel=0 note=72 velocity=54 time=0
note_on channel=0 note=48 velocity=45 time=0
note_on channel=0 note=48 velocity=0 time=20
note_on channel=0 note=72 velocity=0 time=0
note_on channel=0 note=68 velocity=49 time=0
note_on channel=0 note=53 velocity=42 time=0
note_on channel=0 note=53 velocity=0 time=0
note_on channel=0 note=68 velocity=0 time=0
note_on channel=0 note=81 velocity=80 time=0
note_on channel=0 note=39 velocity=66 time=0
note_on channel=0 note=39 velocity=0 time=10
note_on channel=0 note=81 velocity=0 time=0
note_on channel=0 note=69 velocity=50 time=0
note_on channel=0 note=51 velocity=41 time=0
note_on channel=0 note=51 velocity=0 time=40
note_on channel=0 note=69 velocity=0 time=0
note_on channel=0 note=72 velocity=55 time=0
note_on channel=0 note=48 velocity=47 time=0
note_on channel=0 note=48 velocity=0 time=40
note_on channel=0 note=72 velocity=0 time=0
note_on channel=0 note=69 velocity=51 time=0
note_on channel=0 note=51 velocity=41 time=0
note_on channel=0 note=51 velocity=0 time=0
note_on channel=0 note=69 velocity=0 time=0
note_on channel=0 note=83 velocity=84 time=0
note_on channel=0 note=38 velocity=68 time=0
note_on channel=0 note=38 velocity=0 time=30
note_on channel=0 note=83 velocity=0 time=0
note_on channel=0 note=71 velocity=51 time=0
note_on channel=0 note=50 velocity=45 time=0
note_on channel=0 note=50 velocity=0 time=0
note_on channel=0 note=71 velocity=0 time=0
note_on channel=0 note=77 velocity=58 time=0
note_on channel=0 note=43 velocity=49 time=0
note_on channel=0 note=43 velocity=0 time=0
note_on channel=0 note=77 velocity=0 time=0
note_on channel=0 note=71 velocity=53 time=0
note_on channel=0 note=50 velocity=43 time=0
note_on channel=0 note=50 velocity=0 time=20
note_on channel=0 note=71 velocity=0 time=0
note_on channel=0 note=84 velocity=85 time=0
note_on channel=0 note=36 velocity=70 time=0
note_on channel=0 note=36 velocity=0 time=10
note_on channel=0 note=84 velocity=0 time=0
note_on channel=0 note=72 velocity=53 time=30
note_on channel=0 note=48 velocity=45 time=0
note_on channel=0 note=48 velocity=0 time=0
note_on channel=0 note=72 velocity=0 time=0
note_on channel=0 note=77 velocity=58 time=0
note_on channel=0 note=43 velocity=51 time=0
note_on channel=0 note=43 velocity=0 time=0
note_on channel=0 note=77 velocity=0 time=0
note_on channel=0 note=72 velocity=54 time=0
note_on channel=0 note=48 velocity=43 time=0
note_on channel=0 note=48 velocity=0 time=40
note_on channel=0 note=72 velocity=0 time=0
note_on channel=0 note=86 velocity=85 time=0
note_on channel=0 note=35 velocity=70 time=0
note_on channel=0 note=35 velocity=0 time=10
note_on channel=0 note=86 velocity=0 time=0
note_on channel=0 note=74 velocity=55 time=20
note_on channel=0 note=47 velocity=47 time=0
note_on channel=0 note=47 velocity=0 time=0
note_on channel=0 note=74 velocity=0 time=0
note_on channel=0 note=77 velocity=63 time=0
note_on channel=0 note=43 velocity=53 time=0
note_on channel=0 note=43 velocity=0 time=20
note_on channel=0 note=77 velocity=0 time=0
note_on channel=0 note=74 velocity=55 time=0
note_on channel=0 note=47 velocity=48 time=0
note_on channel=0 note=47 velocity=0 time=0
note_on channel=0 note=74 velocity=0 time=0
note_on channel=0 note=88 velocity=90 time=0
note_on channel=0 note=34 velocity=72 time=0
note_on channel=0 note=34 velocity=0 time=10
note_on channel=0 note=88 velocity=0 time=0
note_on channel=0 note=76 velocity=57 time=0
note_on channel=0 note=46 velocity=47 time=0
note_on channel=0 note=46 velocity=0 time=20
note_on channel=0 note=76 velocity=0 time=0
note_on channel=0 note=79 velocity=62 time=0
note_on channel=0 note=36 velocity=53 time=0
note_on channel=0 note=36 velocity=0 time=0
note_on channel=0 note=79 velocity=0 time=0
note_on channel=0 note=76 velocity=57 time=0
note_on channel=0 note=46 velocity=50 time=0
note_on channel=0 note=46 velocity=0 time=40
note_on channel=0 note=76 velocity=0 time=0
note_on channel=0 note=89 velocity=89 time=0
note_on channel=0 note=32 velocity=75 time=0
note_on channel=0 note=32 velocity=0 time=10
note_on channel=0 note=89 velocity=0 time=0
note_on channel=0 note=77 velocity=59 time=0
note_on channel=0 note=44 velocity=50 time=0
note_on channel=0 note=44 velocity=0 time=20
note_on channel=0 note=77 velocity=0 time=0
note_on channel=0 note=80 velocity=64 time=0
note_on channel=0 note=36 velocity=55 time=0
note_on channel=0 note=36 velocity=0 time=0
note_on channel=0 note=80 velocity=0 time=0
note_on channel=0 note=77 velocity=59 time=0
note_on channel=0 note=44 velocity=50 time=0
note_on channel=0 note=44 velocity=0 time=0
note_on channel=0 note=77 velocity=0 time=0
note_on channel=0 note=86 velocity=91 time=0
note_on channel=0 note=29 velocity=76 time=0
note_on channel=0 note=29 velocity=0 time=90
note_on channel=0 note=86 velocity=0 time=0
note_on channel=0 note=77 velocity=61 time=30
note_on channel=0 note=41 velocity=56 time=0
note_on channel=0 note=41 velocity=0 time=120
note_on channel=0 note=77 velocity=0 time=0
note_on channel=0 note=80 velocity=67 time=0
note_on channel=0 note=36 velocity=58 time=0
note_on channel=0 note=36 velocity=0 time=120
note_on channel=0 note=80 velocity=0 time=0
note_on channel=0 note=77 velocity=61 time=0
note_on channel=0 note=41 velocity=55 time=0
note_on channel=0 note=41 velocity=0 time=0
note_on channel=0 note=77 velocity=0 time=0
note_on channel=0 note=31 velocity=71 time=0
note_on channel=0 note=43 velocity=84 time=0
note_on channel=0 note=75 velocity=78 time=0
note_on channel=0 note=75 velocity=0 time=120
note_on channel=0 note=43 velocity=0 time=0
note_on channel=0 note=31 velocity=0 time=0
note_on channel=0 note=79 velocity=84 time=0
note_on channel=0 note=79 velocity=0 time=120
note_on channel=0 note=75 velocity=78 time=0
note_on channel=0 note=75 velocity=0 time=120
note_on channel=0 note=84 velocity=88 time=0
note_on channel=0 note=84 velocity=0 time=90
note_on channel=0 note=75 velocity=78 time=30
note_on channel=0 note=75 velocity=0 time=0
note_on channel=0 note=79 velocity=84 time=0
note_on channel=0 note=79 velocity=0 time=120
note_on channel=0 note=75 velocity=76 time=0
note_on channel=0 note=75 velocity=0 time=0
note_on channel=0 note=55 velocity=84 time=0
note_on channel=0 note=43 velocity=71 time=0
note_on channel=0 note=74 velocity=78 time=0
note_on channel=0 note=74 velocity=0 time=120
note_on channel=0 note=43 velocity=0 time=0
note_on channel=0 note=55 velocity=0 time=0
note_on channel=0 note=77 velocity=84 time=0
note_on channel=0 note=77 velocity=0 time=120
note_on channel=0 note=74 velocity=78 time=0
note_on channel=0 note=74 velocity=0 time=120
note_on channel=0 note=83 velocity=88 time=0
note_on channel=0 note=83 velocity=0 time=90
note_on channel=0 note=74 velocity=78 time=30
note_on channel=0 note=74 velocity=0 time=0
note_on channel=0 note=77 velocity=84 time=0
note_on channel=0 note=77 velocity=0 time=120
note_on channel=0 note=74 velocity=76 time=0
note_on channel=0 note=74 velocity=0 time=0
note_on channel=0 note=72 velocity=81 time=0
note_on channel=0 note=48 velocity=84 time=0
note_on channel=0 note=72 velocity=0 time=90
note_on channel=0 note=48 velocity=0 time=0
note_on channel=0 note=84 velocity=58 time=0
note_on channel=0 note=60 velocity=34 time=0
note_on channel=0 note=63 velocity=34 time=0
note_on channel=0 note=63 velocity=0 time=200
note_on channel=0 note=60 velocity=0 time=0
note_on channel=0 note=60 velocity=34 time=12
note_on channel=0 note=63 velocity=34 time=0
note_on channel=0 note=63 velocity=0 time=8
note_on channel=0 note=60 velocity=0 time=0
note_on channel=0 note=84 velocity=0 time=12
note_on channel=0 note=83 velocity=46 time=0
note_on channel=0 note=60 velocity=34 time=0
note_on channel=0 note=63 velocity=34 time=0
note_on channel=0 note=83 velocity=0 time=0
note_on channel=0 note=84 velocity=48 time=0
note_on channel=0 note=63 velocity=0 time=8
note_on channel=0 note=60 velocity=0 time=0
note_on channel=0 note=84 velocity=0 time=12
note_on channel=0 note=86 velocity=49 time=0
note_on channel=0 note=56 velocity=34 time=0
note_on channel=0 note=86 velocity=0 time=0
note_on channel=0 note=84 velocity=49 time=0
note_on channel=0 note=84 velocity=0 time=0
note_on channel=0 note=82 velocity=48 time=0
note_on channel=0 note=60 velocity=34 time=0
note_on channel=0 note=63 velocity=34 time=0
note_on channel=0 note=82 velocity=0 time=100
note_on channel=0 note=80 velocity=47 time=0
note_on channel=0 note=63 velocity=0 time=108
note_on channel=0 note=60 velocity=0 time=0
note_on channel=0 note=80 velocity=0 time=12
note_on channel=0 note=79 velocity=45 time=0
note_on channel=0 note=60 velocity=34 time=0
note_on channel=0 note=63 velocity=34 time=0
note_on channel=0 note=79 velocity=0 time=120
note_on channel=0 note=80 velocity=46 time=0
note_on channel=0 note=63 velocity=0 time=108
note_on channel=0 note=60 velocity=0 time=0
note_on channel=0 note=80 velocity=0 time=0
note_on channel=0 note=82 velocity=49 time=0
note_on channel=0 note=60 velocity=34 time=0
note_on channel=0 note=63 velocity=34 time=0
note_on channel=0 note=82 velocity=0 time=0
note_on channel=0 note=80 velocity=47 time=0
note_on channel=0 note=63 velocity=0 time=8
note_on channel=0 note=60 velocity=0 time=0
note_on channel=0 note=56 velocity=0 time=12
note_on channel=0 note=80 velocity=0 time=0
note_on channel=0 note=79 velocity=49 time=0
note_on channel=0 note=53 velocity=34 time=0
note_on channel=0 note=79 velocity=0 time=20
note_on channel=0 note=77 velocity=47 time=0
note_on channel=0 note=77 velocity=0 time=0
note_on channel=0 note=75 velocity=46 time=0
note_on channel=0 note=62 velocity=34 time=0
note_on channel=0 note=60 velocity=34 time=0
note_on channel=0 note=75 velocity=0 time=120
note_on channel=0 note=74 velocity=45 time=0
note_on channel=0 note=60 velocity=0 time=108
note_on channel=0 note=62 velocity=0 time=0
note_on channel=0 note=74 velocity=0 time=12
note_on channel=0 note=73 velocity=45 time=0
note_on channel=0 note=60 velocity=34 time=0
note_on channel=0 note=62 velocity=34 time=0
note_on channel=0 note=73 velocity=0 time=120
note_on channel=0 note=74 velocity=45 time=0
note_on channel=0 note=62 velocity=0 time=8
note_on channel=0 note=60 velocity=0 time=0
note_on channel=0 note=74 velocity=0 time=12
note_on channel=0 note=75 velocity=47 time=0
note_on channel=0 note=60 velocity=34 time=0
note_on channel=0 note=62 velocity=34 time=0
note_on channel=0 note=75 velocity=0 time=20
note_on channel=0 note=74 velocity=45 time=0
note_on channel=0 note=62 velocity=0 time=8
note_on channel=0 note=60 velocity=0 time=0
note_on channel=0 note=53 velocity=0 time=0
note_on channel=0 note=74 velocity=0 time=0
note_on channel=0 note=72 velocity=46 time=0
note_on channel=0 note=55 velocity=34 time=0
note_on channel=0 note=72 velocity=0 time=20
note_on channel=0 note=71 velocity=46 time=0
note_on channel=0 note=71 velocity=0 time=20
note_on channel=0 note=68 velocity=45 time=0
note_on channel=0 note=59 velocity=34 time=0
note_on channel=0 note=62 velocity=34 time=0
note_on channel=0 note=68 velocity=0 time=120
note_on channel=0 note=67 velocity=45 time=0
note_on channel=0 note=62 velocity=0 time=108
note_on channel=0 note=59 velocity=0 time=0
note_on channel=0 note=67 velocity=0 time=12
note_on channel=0 note=66 velocity=45 time=0
note_on channel=0 note=59 velocity=34 time=0
note_on channel=0 note=62 velocity=34 time=0
note_on channel=0 note=66 velocity=0 time=120
note_on channel=0 note=67 velocity=42 time=0
note_on channel=0 note=62 velocity=0 time=108
note_on channel=0 note=59 velocity=0 time=0
note_on channel=0 note=67 velocity=0 time=12
note_on channel=0 note=68 velocity=46 time=0
note_on channel=0 note=59 velocity=34 time=0
note_on channel=0 note=62 velocity=34 time=0
note_on channel=0 note=68 velocity=0 time=120
note_on channel=0 note=65 velocity=42 time=0
note_on channel=0 note=62 velocity=0 time=108
note_on channel=0 note=59 velocity=0 time=0
note_on channel=0 note=55 velocity=0 time=0
note_on channel=0 note=65 velocity=0 time=0
note_on channel=0 note=63 velocity=66 time=0
note_on channel=0 note=48 velocity=59 time=0
note_on channel=0 note=63 velocity=0 time=84
note_on channel=0 note=72 velocity=68 time=0
note_on channel=0 note=84 velocity=68 time=0
note_on channel=0 note=51 velocity=44 time=0
note_on channel=0 note=60 velocity=44 time=0
note_on channel=0 note=60 velocity=0 time=200
note_on channel=0 note=51 velocity=0 time=0
note_on channel=0 note=51 velocity=44 time=12
note_on channel=0 note=60 velocity=44 time=0
note_on channel=0 note=60 velocity=0 time=8
note_on channel=0 note=51 velocity=0 time=0
note_on channel=0 note=84 velocity=0 time=12
note_on channel=0 note=72 velocity=0 time=0
note_on channel=0 note=83 velocity=61 time=0
note_on channel=0 note=51 velocity=44 time=0
note_on channel=0 note=60 velocity=44 time=0
note_on channel=0 note=83 velocity=0 time=0
note_on channel=0 note=84 velocity=64 time=0
note_on channel=0 note=60 velocity=0 time=8
note_on channel=0 note=51 velocity=0 time=0
note_on channel=0 note=48 velocity=0 time=12
note_on channel=0 note=84 velocity=0 time=0
note_on channel=0 note=86 velocity=66 time=0
note_on channel=0 note=44 velocity=45 time=0
note_on channel=0 note=86 velocity=0 time=0
note_on channel=0 note=84 velocity=66 time=0
note_on channel=0 note=84 velocity=0 time=0
note_on channel=0 note=82 velocity=65 time=0
note_on channel=0 note=51 velocity=46 time=0
note_on channel=0 note=48 velocity=46 time=0
note_on channel=0 note=56 velocity=46 time=0
note_on channel=0 note=82 velocity=0 time=100
note_on channel=0 note=80 velocity=64 time=0
note_on channel=0 note=48 velocity=0 time=108
note_on channel=0 note=56 velocity=0 time=0
note_on channel=0 note=51 velocity=0 time=0
note_on channel=0 note=80 velocity=0 time=12
note_on channel=0 note=79 velocity=62 time=0
note_on channel=0 note=51 velocity=46 time=0
note_on channel=0 note=48 velocity=46 time=0
note_on channel=0 note=56 velocity=46 time=0
note_on channel=0 note=79 velocity=0 time=120
note_on channel=0 note=80 velocity=64 time=0
note_on channel=0 note=48 velocity=0 time=108
note_on channel=0 note=56 velocity=0 time=0
note_on channel=0 note=51 velocity=0 time=0
note_on channel=0 note=80 velocity=0 time=0
note_on channel=0 note=82 velocity=68 time=0
note_on channel=0 note=51 velocity=47 time=0
note_on channel=0 note=48 velocity=47 time=0
note_on channel=0 note=56 velocity=47 time=0
note_on channel=0 note=82 velocity=0 time=0
note_on channel=0 note=80 velocity=66 time=0
note_on channel=0 note=48 velocity=0 time=8
note_on channel=0 note=56 velocity=0 time=0
note_on channel=0 note=51 velocity=0 time=0
note_on channel=0 note=44 velocity=0 time=12
note_on channel=0 note=80 velocity=0 time=0
note_on channel=0 note=79 velocity=69 time=0
note_on channel=0 note=41 velocity=47 time=0
note_on channel=0 note=79 velocity=0 time=20
note_on channel=0 note=77 velocity=67 time=0
note_on channel=0 note=77 velocity=0 time=0
note_on channel=0 note=75 velocity=66 time=0
note_on channel=0 note=50 velocity=48 time=0
note_on channel=0 note=53 velocity=48 time=0
note_on channel=0 note=48 velocity=48 time=0
note_on channel=0 note=75 velocity=0 time=120
note_on channel=0 note=74 velocity=65 time=0
note_on channel=0 note=53 velocity=0 time=108
note_on channel=0 note=48 velocity=0 time=0
note_on channel=0 note=50 velocity=0 time=0
note_on channel=0 note=74 velocity=0 time=12
note_on channel=0 note=73 velocity=65 time=0
note_on channel=0 note=50 velocity=48 time=0
note_on channel=0 note=48 velocity=48 time=0
note_on channel=0 note=53 velocity=48 time=0
note_on channel=0 note=73 velocity=0 time=120
note_on channel=0 note=74 velocity=64 time=0
note_on channel=0 note=48 velocity=0 time=8
note_on channel=0 note=53 velocity=0 time=0
note_on channel=0 note=50 velocity=0 time=0
note_on channel=0 note=74 velocity=0 time=12
note_on channel=0 note=75 velocity=68 time=0
note_on channel=0 note=50 velocity=49 time=0
note_on channel=0 note=48 velocity=49 time=0
note_on channel=0 note=53 velocity=49 time=0
note_on channel=0 note=75 velocity=0 time=20
note_on channel=0 note=74 velocity=66 time=0
note_on channel=0 note=48 velocity=0 time=8
note_on channel=0 note=53 velocity=0 time=0
note_on channel=0 note=50 velocity=0 time=0
note_on channel=0 note=41 velocity=0 time=0
note_on channel=0 note=74 velocity=0 time=0
note_on channel=0 note=72 velocity=68 time=0
note_on channel=0 note=43 velocity=49 time=0
note_on channel=0 note=72 velocity=0 time=20
note_on channel=0 note=71 velocity=68 time=0
note_on channel=0 note=71 velocity=0 time=20
note_on channel=0 note=68 velocity=68 time=0
note_on channel=0 note=50 velocity=50 time=0
note_on channel=0 note=47 velocity=50 time=0
note_on channel=0 note=55 velocity=50 time=0
note_on channel=0 note=68 velocity=0 time=120
note_on channel=0 note=67 velocity=68 time=0
note_on channel=0 note=47 velocity=0 time=108
note_on channel=0 note=55 velocity=0 time=0
note_on channel=0 note=50 velocity=0 time=0
note_on channel=0 note=67 velocity=0 time=12
note_on channel=0 note=66 velocity=67 time=0
note_on channel=0 note=50 velocity=50 time=0
note_on channel=0 note=47 velocity=50 time=0
note_on channel=0 note=55 velocity=50 time=0
note_on channel=0 note=66 velocity=0 time=120
note_on channel=0 note=67 velocity=64 time=0
note_on channel=0 note=47 velocity=0 time=8
note_on channel=0 note=55 velocity=0 time=0
note_on channel=0 note=50 velocity=0 time=0
note_on channel=0 note=67 velocity=0 time=0
note_on channel=0 note=68 velocity=70 time=0
note_on channel=0 note=50 velocity=51 time=0
note_on channel=0 note=47 velocity=51 time=0
note_on channel=0 note=55 velocity=51 time=0
note_on channel=0 note=68 velocity=0 time=0
note_on channel=0 note=67 velocity=64 time=0
note_on channel=0 note=47 velocity=0 time=8
note_on channel=0 note=55 velocity=0 time=0
note_on channel=0 note=50 velocity=0 time=0
note_on channel=0 note=43 velocity=0 time=0
note_on channel=0 note=67 velocity=0 time=0
note_on channel=0 note=72 velocity=83 time=0
note_on channel=0 note=36 velocity=67 time=0
note_on channel=0 note=72 velocity=0 time=114
note_on channel=0 note=48 velocity=60 time=0
note_on channel=0 note=36 velocity=0 time=108
note_on channel=0 note=48 velocity=0 time=0
note_on channel=0 note=60 velocity=82 time=0
note_on channel=0 note=36 velocity=67 time=0
note_on channel=0 note=48 velocity=59 time=120
note_on channel=0 note=36 velocity=0 time=108
note_on channel=0 note=48 velocity=0 time=0
note_on channel=0 note=36 velocity=67 time=0
note_on channel=0 note=48 velocity=60 time=120
note_on channel=0 note=36 velocity=0 time=108
note_on channel=0 note=48 velocity=0 time=0
note_on channel=0 note=60 velocity=0 time=0
note_on channel=0 note=58 velocity=80 time=0
note_on channel=0 note=64 velocity=80 time=0
note_on channel=0 note=36 velocity=66 time=0
note_on channel=0 note=64 velocity=0 time=120
note_on channel=0 note=58 velocity=0 time=0
note_on channel=0 note=48 velocity=60 time=0
note_on channel=0 note=36 velocity=0 time=108
note_on channel=0 note=48 velocity=0 time=12
note_on channel=0 note=56 velocity=81 time=0
note_on channel=0 note=65 velocity=81 time=0
note_on channel=0 note=36 velocity=66 time=0
note_on channel=0 note=65 velocity=0 time=120
note_on channel=0 note=56 velocity=0 time=0
note_on channel=0 note=48 velocity=59 time=0
note_on channel=0 note=36 velocity=0 time=108
note_on channel=0 note=48 velocity=0 time=12
note_on channel=0 note=64 velocity=82 time=0
note_on channel=0 note=67 velocity=82 time=0
note_on channel=0 note=36 velocity=66 time=0
note_on channel=0 note=67 velocity=0 time=120
note_on channel=0 note=64 velocity=0 time=0
note_on channel=0 note=48 velocity=60 time=0
note_on channel=0 note=36 velocity=0 time=108
note_on channel=0 note=48 velocity=0 time=12
note_on channel=0 note=65 velocity=83 time=0
note_on channel=0 note=68 velocity=83 time=0
note_on channel=0 note=36 velocity=66 time=0
note_on channel=0 note=68 velocity=0 time=120
note_on channel=0 note=65 velocity=0 time=0
note_on channel=0 note=48 velocity=60 time=0
note_on channel=0 note=36 velocity=0 time=108
note_on channel=0 note=48 velocity=0 time=12
note_on channel=0 note=62 velocity=85 time=0
note_on channel=0 note=71 velocity=85 time=0
note_on channel=0 note=36 velocity=66 time=0
note_on channel=0 note=71 velocity=0 time=120
note_on channel=0 note=62 velocity=0 time=0
note_on channel=0 note=48 velocity=61 time=0
note_on channel=0 note=36 velocity=0 time=108
note_on channel=0 note=48 velocity=0 time=0
note_on channel=0 note=63 velocity=83 time=0
note_on channel=0 note=72 velocity=83 time=0
note_on channel=0 note=36 velocity=67 time=0
note_on channel=0 note=72 velocity=0 time=120
note_on channel=0 note=63 velocity=0 time=0
note_on channel=0 note=48 velocity=60 time=0
note_on channel=0 note=36 velocity=0 time=108
note_on channel=0 note=48 velocity=0 time=0
note_on channel=0 note=64 velocity=83 time=0
note_on channel=0 note=72 velocity=82 time=0
note_on channel=0 note=36 velocity=67 time=0
note_on channel=0 note=48 velocity=59 time=120
note_on channel=0 note=36 velocity=0 time=108
note_on channel=0 note=48 velocity=0 time=0
note_on channel=0 note=36 velocity=67 time=0
note_on channel=0 note=48 velocity=60 time=120
note_on channel=0 note=36 velocity=0 time=108
note_on channel=0 note=64 velocity=0 time=0
note_on channel=0 note=72 velocity=0 time=0
note_on channel=0 note=48 velocity=0 time=0
note_on channel=0 note=70 velocity=80 time=0
note_on channel=0 note=76 velocity=80 time=0
note_on channel=0 note=36 velocity=66 time=0
note_on channel=0 note=76 velocity=0 time=120
note_on channel=0 note=70 velocity=0 time=0
note_on channel=0 note=48 velocity=60 time=0
note_on channel=0 note=36 velocity=0 time=108
note_on channel=0 note=48 velocity=0 time=12
note_on channel=0 note=68 velocity=81 time=0
note_on channel=0 note=77 velocity=81 time=0
note_on channel=0 note=36 velocity=66 time=0
note_on channel=0 note=77 velocity=0 time=120
note_on channel=0 note=68 velocity=0 time=0
note_on channel=0 note=48 velocity=59 time=0
note_on channel=0 note=36 velocity=0 time=108
note_on channel=0 note=48 velocity=0 time=12
note_on channel=0 note=76 velocity=82 time=0
note_on channel=0 note=79 velocity=82 time=0
note_on channel=0 note=36 velocity=66 time=0
note_on channel=0 note=79 velocity=0 time=120
note_on channel=0 note=76 velocity=0 time=0
note_on channel=0 note=48 velocity=60 time=0
note_on channel=0 note=36 velocity=0 time=108
note_on channel=0 note=48 velocity=0 time=12
note_on channel=0 note=77 velocity=83 time=0
note_on channel=0 note=80 velocity=83 time=0
note_on channel=0 note=36 velocity=66 time=0
note_on channel=0 note=80 velocity=0 time=120
note_on channel=0 note=77 velocity=0 time=0
note_on channel=0 note=48 velocity=60 time=0
note_on channel=0 note=36 velocity=0 time=108
note_on channel=0 note=48 velocity=0 time=0
note_on channel=0 note=74 velocity=85 time=0
note_on channel=0 note=83 velocity=85 time=0
note_on channel=0 note=36 velocity=66 time=0
note_on channel=0 note=83 velocity=0 time=120
note_on channel=0 note=74 velocity=0 time=0
note_on channel=0 note=48 velocity=61 time=0
note_on channel=0 note=36 velocity=0 time=108
note_on channel=0 note=48 velocity=0 time=0
note_on channel=0 note=72 velocity=94 time=0
note_on channel=0 note=84 velocity=94 time=0
note_on channel=0 note=75 velocity=94 time=0
note_on channel=0 note=36 velocity=66 time=0
note_on channel=0 note=48 velocity=59 time=120
note_on channel=0 note=36 velocity=0 time=108
note_on channel=0 note=48 velocity=0 time=12
note_on channel=0 note=36 velocity=66 time=0
note_on channel=0 note=48 velocity=60 time=120
note_on channel=0 note=36 velocity=0 time=108
note_on channel=0 note=48 velocity=0 time=12
note_on channel=0 note=36 velocity=66 time=0
note_on channel=0 note=48 velocity=60 time=120
note_on channel=0 note=36 velocity=0 time=108
note_on channel=0 note=48 velocity=0 time=12
note_on channel=0 note=36 velocity=66 time=0
note_on channel=0 note=48 velocity=61 time=120
note_on channel=0 note=36 velocity=0 time=108
note_on channel=0 note=72 velocity=0 time=0
note_on channel=0 note=75 velocity=0 time=0
note_on channel=0 note=84 velocity=0 time=0
note_on channel=0 note=48 velocity=0 time=0
note_on channel=0 note=60 velocity=88 time=0
note_on channel=0 note=63 velocity=88 time=0
note_on channel=0 note=72 velocity=88 time=0
note_on channel=0 note=34 velocity=66 time=0
note_on channel=0 note=46 velocity=59 time=120
note_on channel=0 note=34 velocity=0 time=108
note_on channel=0 note=46 velocity=0 time=12
note_on channel=0 note=34 velocity=66 time=0
note_on channel=0 note=46 velocity=60 time=120
note_on channel=0 note=34 velocity=0 time=108
note_on channel=0 note=46 velocity=0 time=12
note_on channel=0 note=34 velocity=66 time=0
note_on channel=0 note=46 velocity=60 time=120
note_on channel=0 note=34 velocity=0 time=108
note_on channel=0 note=46 velocity=0 time=0
note_on channel=0 note=34 velocity=66 time=0
note_on channel=0 note=46 velocity=61 time=120
note_on channel=0 note=34 velocity=0 time=108
note_on channel=0 note=60 velocity=0 time=0
note_on channel=0 note=72 velocity=0 time=0
note_on channel=0 note=63 velocity=0 time=0
note_on channel=0 note=46 velocity=0 time=0
note_on channel=0 note=72 velocity=99 time=0
note_on channel=0 note=84 velocity=99 time=0
note_on channel=0 note=75 velocity=99 time=0
note_on channel=0 note=32 velocity=66 time=0
note_on channel=0 note=44 velocity=59 time=120
note_on channel=0 note=32 velocity=0 time=108
note_on channel=0 note=44 velocity=0 time=12
note_on channel=0 note=32 velocity=66 time=0
note_on channel=0 note=44 velocity=60 time=120
note_on channel=0 note=32 velocity=0 time=108
note_on channel=0 note=44 velocity=0 time=12
note_on channel=0 note=32 velocity=66 time=0
note_on channel=0 note=44 velocity=60 time=120
note_on channel=0 note=32 velocity=0 time=108
note_on channel=0 note=44 velocity=0 time=12
note_on channel=0 note=32 velocity=66 time=0
note_on channel=0 note=44 velocity=61 time=120
note_on channel=0 note=32 velocity=0 time=108
note_on channel=0 note=72 velocity=0 time=0
note_on channel=0 note=75 velocity=0 time=0
note_on channel=0 note=84 velocity=0 time=0
note_on channel=0 note=44 velocity=0 time=0
note_on channel=0 note=60 velocity=92 time=0
note_on channel=0 note=63 velocity=92 time=0
note_on channel=0 note=72 velocity=92 time=0
note_on channel=0 note=31 velocity=66 time=0
note_on channel=0 note=43 velocity=59 time=120
note_on channel=0 note=31 velocity=0 time=108
note_on channel=0 note=43 velocity=0 time=12
note_on channel=0 note=31 velocity=66 time=0
note_on channel=0 note=43 velocity=60 time=120
note_on channel=0 note=31 velocity=0 time=108
note_on channel=0 note=43 velocity=0 time=12
note_on channel=0 note=31 velocity=66 time=0
note_on channel=0 note=43 velocity=60 time=120
note_on channel=0 note=31 velocity=0 time=108
note_on channel=0 note=43 velocity=0 time=0
note_on channel=0 note=31 velocity=66 time=0
note_on channel=0 note=43 velocity=61 time=120
note_on channel=0 note=31 velocity=0 time=108
note_on channel=0 note=60 velocity=0 time=12
note_on channel=0 note=72 velocity=0 time=0
note_on channel=0 note=63 velocity=0 time=0
note_on channel=0 note=43 velocity=0 time=0
note_on channel=0 note=81 velocity=102 time=0
note_on channel=0 note=84 velocity=102 time=0
note_on channel=0 note=75 velocity=102 time=0
note_on channel=0 note=87 velocity=102 time=0
note_on channel=0 note=30 velocity=68 time=0
note_on channel=0 note=42 velocity=81 time=0
note_on channel=0 note=42 velocity=0 time=959
note_on channel=0 note=84 velocity=0 time=0
note_on channel=0 note=75 velocity=0 time=0
note_on channel=0 note=81 velocity=0 time=0
note_on channel=0 note=30 velocity=0 time=0
note_on channel=0 note=87 velocity=0 time=0
note_on channel=0 note=60 velocity=102 time=0
note_on channel=0 note=54 velocity=86 time=0
note_on channel=0 note=57 velocity=102 time=0
note_on channel=0 note=63 velocity=102 time=0
note_on channel=0 note=45 velocity=84 time=0
note_on channel=0 note=48 velocity=84 time=0
note_on channel=0 note=42 velocity=71 time=0
note_on channel=0 note=51 velocity=84 time=0
note_on channel=0 note=51 velocity=0 time=0
note_on channel=0 note=60 velocity=0 time=0
note_on channel=0 note=45 velocity=0 time=0
note_on channel=0 note=54 velocity=0 time=0
note_on channel=0 note=57 velocity=0 time=0
note_on channel=0 note=63 velocity=0 time=0
note_on channel=0 note=48 velocity=0 time=0
note_on channel=0 note=42 velocity=0 time=0
note_on channel=0 note=66 velocity=44 time=1320
note_on channel=0 note=69 velocity=44 time=0
note_on channel=0 note=72 velocity=51 time=0
note_on channel=0 note=63 velocity=39 time=0
note_on channel=0 note=63 velocity=0 time=114
note_on channel=0 note=66 velocity=0 time=0
note_on channel=0 note=69 velocity=0 time=0
note_on channel=0 note=72 velocity=0 time=0
note_on channel=0 note=66 velocity=46 time=6
note_on channel=0 note=69 velocity=46 time=0
note_on channel=0 note=74 velocity=55 time=0
note_on channel=0 note=62 velocity=45 time=0
note_on channel=0 note=62 velocity=0 time=0
note_on channel=0 note=66 velocity=0 time=0
note_on channel=0 note=69 velocity=0 time=0
note_on channel=0 note=74 velocity=0 time=0
note_on channel=0 note=66 velocity=42 time=0
note_on channel=0 note=69 velocity=50 time=0
note_on channel=0 note=75 velocity=50 time=0
note_on channel=0 note=60 velocity=39 time=0
note_on channel=0 note=60 velocity=0 time=114
note_on channel=0 note=66 velocity=0 time=0
note_on channel=0 note=69 velocity=0 time=0
note_on channel=0 note=75 velocity=0 time=0
note_on channel=0 note=66 velocity=46 time=0
note_on channel=0 note=69 velocity=55 time=0
note_on channel=0 note=75 velocity=55 time=0
note_on channel=0 note=60 velocity=42 time=0
note_on channel=0 note=60 velocity=0 time=0
note_on channel=0 note=66 velocity=0 time=0
note_on channel=0 note=69 velocity=0 time=0
note_on channel=0 note=75 velocity=0 time=0
note_on channel=0 note=67 velocity=31 time=0
note_on channel=0 note=71 velocity=31 time=0
note_on channel=0 note=74 velocity=39 time=0
note_on channel=0 note=59 velocity=27 time=0
note_on channel=0 note=59 velocity=0 time=480
note_on channel=0 note=67 velocity=0 time=0
note_on channel=0 note=71 velocity=0 time=0
note_on channel=0 note=74 velocity=0 time=0
note_on channel=0 note=74 velocity=44 time=1320
note_on channel=0 note=71 velocity=44 time=0
note_on channel=0 note=77 velocity=52 time=0
note_on channel=0 note=68 velocity=39 time=0
note_on channel=0 note=68 velocity=0 time=120
note_on channel=0 note=74 velocity=0 time=0
note_on channel=0 note=71 velocity=0 time=0
note_on channel=0 note=77 velocity=0 time=0
note_on channel=0 note=71 velocity=46 time=0
note_on channel=0 note=74 velocity=46 time=0
note_on channel=0 note=79 velocity=55 time=0
note_on channel=0 note=67 velocity=45 time=0
note_on channel=0 note=67 velocity=0 time=0
note_on channel=0 note=71 velocity=0 time=0
note_on channel=0 note=74 velocity=0 time=0
note_on channel=0 note=79 velocity=0 time=0
note_on channel=0 note=74 velocity=51 time=0
note_on channel=0 note=80 velocity=51 time=0
note_on channel=0 note=71 velocity=43 time=0
note_on channel=0 note=65 velocity=39 time=0
note_on channel=0 note=65 velocity=0 time=114
note_on channel=0 note=74 velocity=0 time=0
note_on channel=0 note=80 velocity=0 time=0
note_on channel=0 note=71 velocity=0 time=0
note_on channel=0 note=80 velocity=55 time=0
note_on channel=0 note=71 velocity=46 time=0
note_on channel=0 note=74 velocity=55 time=0
note_on channel=0 note=65 velocity=38 time=0
note_on channel=0 note=65 velocity=0 time=0
note_on channel=0 note=80 velocity=0 time=0
note_on channel=0 note=71 velocity=0 time=0
note_on channel=0 note=74 velocity=0 time=0
note_on channel=0 note=72 velocity=32 time=0
note_on channel=0 note=79 velocity=39 time=0
note_on channel=0 note=75 velocity=32 time=0
note_on channel=0 note=63 velocity=27 time=0
note_on channel=0 note=63 velocity=0 time=480
note_on channel=0 note=72 velocity=0 time=0
note_on channel=0 note=79 velocity=0 time=0
note_on channel=0 note=75 velocity=0 time=0
note_on channel=0 note=70 velocity=55 time=1320
note_on channel=0 note=79 velocity=55 time=0
note_on channel=0 note=76 velocity=55 time=0
note_on channel=0 note=82 velocity=66 time=0
note_on channel=0 note=61 velocity=42 time=0
note_on channel=0 note=64 velocity=42 time=0
note_on channel=0 note=67 velocity=50 time=0
note_on channel=0 note=67 velocity=0 time=0
note_on channel=0 note=61 velocity=0 time=0
note_on channel=0 note=79 velocity=0 time=0
note_on channel=0 note=76 velocity=0 time=0
note_on channel=0 note=70 velocity=0 time=0
note_on channel=0 note=64 velocity=0 time=0
note_on channel=0 note=82 velocity=0 time=0
note_on channel=0 note=72 velocity=61 time=0
note_on channel=0 note=76 velocity=61 time=0
note_on channel=0 note=79 velocity=61 time=0
note_on channel=0 note=84 velocity=72 time=0
note_on channel=0 note=60 velocity=49 time=0
note_on channel=0 note=64 velocity=49 time=0
note_on channel=0 note=67 velocity=58 time=0
note_on channel=0 note=67 velocity=0 time=0
note_on channel=0 note=60 velocity=0 time=0
note_on channel=0 note=76 velocity=0 time=0
note_on channel=0 note=79 velocity=0 time=0
note_on channel=0 note=72 velocity=0 time=0
note_on channel=0 note=64 velocity=0 time=0
note_on channel=0 note=84 velocity=0 time=0
note_on channel=0 note=73 velocity=64 time=0
note_on channel=0 note=79 velocity=75 time=0
note_on channel=0 note=85 velocity=75 time=0
note_on channel=0 note=76 velocity=64 time=0
note_on channel=0 note=58 velocity=49 time=0
note_on channel=0 note=64 velocity=49 time=0
note_on channel=0 note=67 velocity=58 time=0
note_on channel=0 note=67 velocity=0 time=114
note_on channel=0 note=58 velocity=0 time=0
note_on channel=0 note=79 velocity=0 time=0
note_on channel=0 note=85 velocity=0 time=0
note_on channel=0 note=73 velocity=0 time=0
note_on channel=0 note=64 velocity=0 time=0
note_on channel=0 note=76 velocity=0 time=0
note_on channel=0 note=73 velocity=72 time=0
note_on channel=0 note=85 velocity=84 time=0
note_on channel=0 note=76 velocity=72 time=0
note_on channel=0 note=79 velocity=72 time=0
note_on channel=0 note=56 velocity=60 time=0
note_on channel=0 note=58 velocity=60 time=0
note_on channel=0 note=64 velocity=60 time=0
note_on channel=0 note=67 velocity=72 time=0
note_on channel=0 note=67 velocity=0 time=778
note_on channel=0 note=73 velocity=0 time=0
note_on channel=0 note=79 velocity=0 time=0
note_on channel=0 note=85 velocity=0 time=0
note_on channel=0 note=64 velocity=0 time=0
note_on channel=0 note=76 velocity=0 time=0
note_on channel=0 note=58 velocity=0 time=0
note_on channel=0 note=72 velocity=52 time=0
note_on channel=0 note=84 velocity=62 time=0
note_on channel=0 note=60 velocity=46 time=0
note_on channel=0 note=65 velocity=46 time=0
note_on channel=0 note=68 velocity=55 time=0
note_on channel=0 note=68 velocity=0 time=418
note_on channel=0 note=72 velocity=0 time=0
note_on channel=0 note=84 velocity=0 time=0
note_on channel=0 note=60 velocity=0 time=0
note_on channel=0 note=65 velocity=0 time=0
note_on channel=0 note=70 velocity=60 time=0
note_on channel=0 note=82 velocity=60 time=0
note_on channel=0 note=55 velocity=44 time=0
note_on channel=0 note=60 velocity=44 time=0
note_on channel=0 note=64 velocity=52 time=0
note_on channel=0 note=64 velocity=0 time=425
note_on channel=0 note=70 velocity=0 time=0
note_on channel=0 note=82 velocity=0 time=0
note_on channel=0 note=56 velocity=0 time=0
note_on channel=0 note=60 velocity=0 time=0
note_on channel=0 note=55 velocity=0 time=0
note_on channel=0 note=68 velocity=41 time=0
note_on channel=0 note=80 velocity=49 time=0
note_on channel=0 note=53 velocity=35 time=0
note_on channel=0 note=60 velocity=35 time=0
note_on channel=0 note=65 velocity=42 time=0
note_on channel=0 note=65 velocity=0 time=274
note_on channel=0 note=53 velocity=0 time=0
note_on channel=0 note=68 velocity=0 time=0
note_on channel=0 note=80 velocity=0 time=0
note_on channel=0 note=60 velocity=0 time=0
note_on channel=0 note=67 velocity=40 time=0
note_on channel=0 note=79 velocity=48 time=0
note_on channel=0 note=51 velocity=34 time=0
note_on channel=0 note=55 velocity=34 time=0
note_on channel=0 note=60 velocity=40 time=0
note_on channel=0 note=60 velocity=0 time=205
note_on channel=0 note=51 velocity=0 time=0
note_on channel=0 note=67 velocity=0 time=0
note_on channel=0 note=79 velocity=0 time=0
note_on channel=0 note=55 velocity=0 time=0
note_on channel=0 note=65 velocity=39 time=0
note_on channel=0 note=77 velocity=46 time=0
note_on channel=0 note=50 velocity=32 time=0
note_on channel=0 note=55 velocity=32 time=0
note_on channel=0 note=59 velocity=38 time=0
note_on channel=0 note=59 velocity=0 time=297
note_on channel=0 note=50 velocity=0 time=0
note_on channel=0 note=65 velocity=0 time=0
note_on channel=0 note=77 velocity=0 time=0
note_on channel=0 note=55 velocity=0 time=0
note_on channel=0 note=63 velocity=37 time=0
note_on channel=0 note=75 velocity=44 time=0
note_on channel=0 note=48 velocity=30 time=0
note_on channel=0 note=55 velocity=30 time=0
note_on channel=0 note=60 velocity=36 time=0
note_on channel=0 note=60 velocity=0 time=40
note_on channel=0 note=48 velocity=0 time=0
note_on channel=0 note=63 velocity=0 time=0
note_on channel=0 note=75 velocity=0 time=0
note_on channel=0 note=55 velocity=0 time=0
note_on channel=0 note=53 velocity=34 time=0
note_on channel=0 note=53 velocity=0 time=80
note_on channel=0 note=65 velocity=32 time=0
note_on channel=0 note=68 velocity=32 time=0
note_on channel=0 note=74 velocity=38 time=0
note_on channel=0 note=74 velocity=0 time=0
note_on channel=0 note=68 velocity=0 time=0
note_on channel=0 note=65 velocity=0 time=0
note_on channel=0 note=31 velocity=30 time=0
note_on channel=0 note=43 velocity=36 time=0
note_on channel=0 note=43 velocity=0 time=0
note_on channel=0 note=31 velocity=0 time=0
note_on channel=0 note=50 velocity=29 time=0
note_on channel=0 note=53 velocity=29 time=0
note_on channel=0 note=59 velocity=35 time=0
note_on channel=0 note=59 velocity=0 time=0
note_on channel=0 note=53 velocity=0 time=0
note_on channel=0 note=50 velocity=0 time=0
note_on channel=0 note=60 velocity=50 time=0
note_on channel=0 note=36 velocity=44 time=0
note_on channel=0 note=48 velocity=41 time=0
note_on channel=0 note=36 velocity=0 time=48
note_on channel=0 note=48 velocity=0 time=0
note_on channel=0 note=36 velocity=44 time=0
note_on channel=0 note=48 velocity=41 time=0
note_on channel=0 note=36 velocity=0 time=48
note_on channel=0 note=48 velocity=0 time=0
note_on channel=0 note=36 velocity=44 time=0
note_on channel=0 note=48 velocity=41 time=0
note_on channel=0 note=36 velocity=0 time=16
note_on channel=0 note=48 velocity=0 time=0
note_on channel=0 note=60 velocity=0 time=0
note_on channel=0 note=58 velocity=52 time=0
note_on channel=0 note=64 velocity=52 time=0
note_on channel=0 note=36 velocity=45 time=0
note_on channel=0 note=64 velocity=0 time=30
note_on channel=0 note=58 velocity=0 time=0
note_on channel=0 note=48 velocity=41 time=0
note_on channel=0 note=36 velocity=0 time=108
note_on channel=0 note=48 velocity=0 time=12
note_on channel=0 note=56 velocity=54 time=0
note_on channel=0 note=65 velocity=54 time=0
note_on channel=0 note=36 velocity=45 time=0
note_on channel=0 note=65 velocity=0 time=90
note_on channel=0 note=56 velocity=0 time=0
note_on channel=0 note=48 velocity=46 time=30
note_on channel=0 note=36 velocity=0 time=108
note_on channel=0 note=48 velocity=0 time=0
note_on channel=0 note=64 velocity=56 time=0
note_on channel=0 note=67 velocity=56 time=0
note_on channel=0 note=36 velocity=47 time=0
note_on channel=0 note=67 velocity=0 time=90
note_on channel=0 note=64 velocity=0 time=0
note_on channel=0 note=48 velocity=47 time=30
note_on channel=0 note=36 velocity=0 time=108
note_on channel=0 note=48 velocity=0 time=12
note_on channel=0 note=65 velocity=57 time=0
note_on channel=0 note=68 velocity=57 time=0
note_on channel=0 note=36 velocity=49 time=0
note_on channel=0 note=68 velocity=0 time=90
note_on channel=0 note=65 velocity=0 time=0
note_on channel=0 note=48 velocity=50 time=30
note_on channel=0 note=36 velocity=0 time=108
note_on channel=0 note=48 velocity=0 time=0
note_on channel=0 note=62 velocity=59 time=0
note_on channel=0 note=71 velocity=59 time=0
note_on channel=0 note=36 velocity=51 time=0
note_on channel=0 note=71 velocity=0 time=90
note_on channel=0 note=62 velocity=0 time=0
note_on channel=0 note=48 velocity=53 time=30
note_on channel=0 note=36 velocity=0 time=108
note_on channel=0 note=48 velocity=0 time=0
note_on channel=0 note=63 velocity=61 time=0
note_on channel=0 note=72 velocity=61 time=0
note_on channel=0 note=36 velocity=55 time=0
note_on channel=0 note=72 velocity=0 time=90
note_on channel=0 note=63 velocity=0 time=0
note_on channel=0 note=48 velocity=50 time=30
note_on channel=0 note=36 velocity=0 time=108
note_on channel=0 note=48 velocity=0 time=0
note_on channel=0 note=64 velocity=55 time=0
note_on channel=0 note=72 velocity=55 time=0
note_on channel=0 note=36 velocity=53 time=0
note_on channel=0 note=48 velocity=47 time=80
note_on channel=0 note=36 velocity=0 time=108
note_on channel=0 note=48 velocity=0 time=12
note_on channel=0 note=36 velocity=53 time=0
note_on channel=0 note=48 velocity=47 time=120
note_on channel=0 note=36 velocity=0 time=108
note_on channel=0 note=64 velocity=0 time=12
note_on channel=0 note=72 velocity=0 time=0
note_on channel=0 note=48 velocity=0 time=0
note_on channel=0 note=70 velocity=51 time=0
note_on channel=0 note=76 velocity=51 time=0
note_on channel=0 note=36 velocity=44 time=0
note_on channel=0 note=76 velocity=0 time=78
note_on channel=0 note=70 velocity=0 time=0
note_on channel=0 note=48 velocity=40 time=30
note_on channel=0 note=36 velocity=0 time=108
note_on channel=0 note=48 velocity=0 time=12
note_on channel=0 note=68 velocity=50 time=0
note_on channel=0 note=77 velocity=50 time=0
note_on channel=0 note=36 velocity=40 time=0
note_on channel=0 note=77 velocity=0 time=90
note_on channel=0 note=68 velocity=0 time=0
note_on channel=0 note=48 velocity=43 time=30
note_on channel=0 note=36 velocity=0 time=108
note_on channel=0 note=48 velocity=0 time=0
note_on channel=0 note=76 velocity=53 time=0
note_on channel=0 note=79 velocity=53 time=0
note_on channel=0 note=36 velocity=44 time=0
note_on channel=0 note=79 velocity=0 time=90
note_on channel=0 note=76 velocity=0 time=0
note_on channel=0 note=48 velocity=46 time=30
note_on channel=0 note=36 velocity=0 time=108
note_on channel=0 note=48 velocity=0 time=12
note_on channel=0 note=77 velocity=57 time=0
note_on channel=0 note=80 velocity=57 time=0
note_on channel=0 note=36 velocity=48 time=0
note_on channel=0 note=80 velocity=0 time=90
note_on channel=0 note=77 velocity=0 time=0
note_on channel=0 note=48 velocity=50 time=30
note_on channel=0 note=36 velocity=0 time=108
note_on channel=0 note=48 velocity=0 time=12
note_on channel=0 note=74 velocity=60 time=0
note_on channel=0 note=83 velocity=60 time=0
note_on channel=0 note=36 velocity=52 time=0
note_on channel=0 note=83 velocity=0 time=90
note_on channel=0 note=74 velocity=0 time=0
note_on channel=0 note=48 velocity=54 time=30
note_on channel=0 note=36 velocity=0 time=108
note_on channel=0 note=48 velocity=0 time=0
note_on channel=0 note=75 velocity=58 time=0
note_on channel=0 note=84 velocity=70 time=0
note_on channel=0 note=36 velocity=63 time=0
note_on channel=0 note=48 velocity=57 time=42
note_on channel=0 note=36 velocity=0 time=108
note_on channel=0 note=48 velocity=0 time=0
note_on channel=0 note=36 velocity=62 time=0
note_on channel=0 note=48 velocity=56 time=120
note_on channel=0 note=36 velocity=0 time=108
note_on channel=0 note=75 velocity=0 time=12
note_on channel=0 note=84 velocity=0 time=0
note_on channel=0 note=48 velocity=0 time=0
note_on channel=0 note=72 velocity=64 time=0
note_on channel=0 note=75 velocity=75 time=0
note_on channel=0 note=84 velocity=75 time=0
note_on channel=0 note=34 velocity=66 time=0
note_on channel=0 note=46 velocity=61 time=21
note_on channel=0 note=34 velocity=0 time=108
note_on channel=0 note=46 velocity=0 time=0
note_on channel=0 note=34 velocity=68 time=0
note_on channel=0 note=46 velocity=64 time=120
note_on channel=0 note=34 velocity=0 time=108
note_on channel=0 note=72 velocity=0 time=0
note_on channel=0 note=84 velocity=0 time=0
note_on channel=0 note=75 velocity=0 time=0
note_on channel=0 note=46 velocity=0 time=0
note_on channel=0 note=72 velocity=72 time=0
note_on channel=0 note=75 velocity=72 time=0
note_on channel=0 note=84 velocity=86 time=0
note_on channel=0 note=32 velocity=70 time=0
note_on channel=0 note=44 velocity=72 time=42
note_on channel=0 note=32 velocity=0 time=108
note_on channel=0 note=44 velocity=0 time=12
note_on channel=0 note=32 velocity=73 time=0
note_on channel=0 note=44 velocity=74 time=120
note_on channel=0 note=32 velocity=0 time=108
note_on channel=0 note=72 velocity=0 time=12
note_on channel=0 note=84 velocity=0 time=0
note_on channel=0 note=75 velocity=0 time=0
note_on channel=0 note=44 velocity=0 time=0
note_on channel=0 note=72 velocity=81 time=0
note_on channel=0 note=75 velocity=81 time=0
note_on channel=0 note=84 velocity=97 time=0
note_on channel=0 note=31 velocity=75 time=0
note_on channel=0 note=43 velocity=73 time=35
note_on channel=0 note=31 velocity=0 time=108
note_on channel=0 note=43 velocity=0 time=0
note_on channel=0 note=31 velocity=76 time=0
note_on channel=0 note=43 velocity=78 time=120
note_on channel=0 note=31 velocity=0 time=108
note_on channel=0 note=72 velocity=0 time=0
note_on channel=0 note=84 velocity=0 time=0
note_on channel=0 note=75 velocity=0 time=0
note_on channel=0 note=43 velocity=0 time=0
note_on channel=0 note=75 velocity=99 time=0
note_on channel=0 note=81 velocity=99 time=0
note_on channel=0 note=84 velocity=99 time=0
note_on channel=0 note=87 velocity=103 time=0
note_on channel=0 note=30 velocity=93 time=0
note_on channel=0 note=42 velocity=93 time=0
note_on channel=0 note=42 velocity=0 time=220
note_on channel=0 note=81 velocity=0 time=0
note_on channel=0 note=84 velocity=0 time=0
note_on channel=0 note=75 velocity=0 time=0
note_on channel=0 note=30 velocity=0 time=0
note_on channel=0 note=87 velocity=0 time=0
note_on channel=0 note=66 velocity=79 time=0
note_on channel=0 note=69 velocity=79 time=0
note_on channel=0 note=72 velocity=94 time=0
note_on channel=0 note=75 velocity=94 time=0
note_on channel=0 note=57 velocity=79 time=0
note_on channel=0 note=63 velocity=93 time=0
note_on channel=0 note=60 velocity=93 time=0
note_on channel=0 note=54 velocity=79 time=0
note_on channel=0 note=54 velocity=0 time=228
note_on channel=0 note=66 velocity=0 time=0
note_on channel=0 note=57 velocity=0 time=0
note_on channel=0 note=69 velocity=0 time=0
note_on channel=0 note=72 velocity=0 time=0
note_on channel=0 note=75 velocity=0 time=0
note_on channel=0 note=63 velocity=0 time=0
note_on channel=0 note=60 velocity=0 time=0
note_on channel=0 note=75 velocity=94 time=0
note_on channel=0 note=67 velocity=79 time=0
note_on channel=0 note=72 velocity=79 time=0
note_on channel=0 note=79 velocity=94 time=0
note_on channel=0 note=60 velocity=93 time=0
note_on channel=0 note=55 velocity=79 time=0
note_on channel=0 note=63 velocity=93 time=0
note_on channel=0 note=63 velocity=0 time=133
note_on channel=0 note=60 velocity=0 time=0
note_on channel=0 note=67 velocity=0 time=0
note_on channel=0 note=72 velocity=0 time=0
note_on channel=0 note=75 velocity=0 time=0
note_on channel=0 note=55 velocity=0 time=0
note_on channel=0 note=79 velocity=0 time=0
note_on channel=0 note=50 velocity=86 time=0
note_on channel=0 note=55 velocity=103 time=0
note_on channel=0 note=59 velocity=103 time=0
note_on channel=0 note=53 velocity=86 time=0
note_on channel=0 note=43 velocity=89 time=0
note_on channel=0 note=38 velocity=74 time=0
note_on channel=0 note=31 velocity=74 time=0
note_on channel=0 note=35 velocity=74 time=0
note_on channel=0 note=35 velocity=0 time=190
note_on channel=0 note=50 velocity=0 time=0
note_on channel=0 note=43 velocity=0 time=0
note_on channel=0 note=55 velocity=0 time=0
note_on channel=0 note=59 velocity=0 time=0
note_on channel=0 note=53 velocity=0 time=0
note_on channel=0 note=38 velocity=0 time=0
note_on channel=0 note=31 velocity=0 time=0
note_on channel=0 note=55 velocity=103 time=654
note_on channel=0 note=60 velocity=103 time=0
note_on channel=0 note=51 velocity=86 time=0
note_on channel=0 note=48 velocity=89 time=0
note_on channel=0 note=36 velocity=74 time=0
note_on channel=0 note=39 velocity=74 time=0
note_on channel=0 note=43 velocity=74 time=0
note_on channel=0 note=43 velocity=0 time=120
note_on channel=0 note=36 velocity=0 time=0
note_on channel=0 note=60 velocity=0 time=0
note_on channel=0 note=51 velocity=0 time=0
note_on channel=0 note=55 velocity=0 time=0
note_on channel=0 note=39 velocity=0 time=0
note_on channel=0 note=48 velocity=0 time=0
