note_on channel=0 note=60 velocity=50 time=0
note_on channel=0 note=44 velocity=40 time=0
note_on channel=0 note=56 velocity=28 time=0
note_on channel=0 note=56 velocity=0 time=56
note_on channel=0 note=51 velocity=24 time=0
note_on channel=0 note=51 velocity=0 time=120
note_on channel=0 note=56 velocity=26 time=0
note_on channel=0 note=56 velocity=0 time=0
note_on channel=0 note=51 velocity=23 time=0
note_on channel=0 note=51 velocity=0 time=0
note_on channel=0 note=44 velocity=0 time=0
note_on channel=0 note=60 velocity=0 time=0
note_on channel=0 note=58 velocity=46 time=0
note_on channel=0 note=49 velocity=35 time=0
note_on channel=0 note=55 velocity=28 time=0
note_on channel=0 note=55 velocity=0 time=0
note_on channel=0 note=51 velocity=24 time=0
note_on channel=0 note=51 velocity=0 time=0
note_on channel=0 note=55 velocity=26 time=0
note_on channel=0 note=55 velocity=0 time=0
note_on channel=0 note=51 velocity=24 time=0
note_on channel=0 note=51 velocity=0 time=0
note_on channel=0 note=49 velocity=0 time=0
note_on channel=0 note=58 velocity=0 time=0
note_on channel=0 note=63 velocity=50 time=0
note_on channel=0 note=48 velocity=40 time=0
note_on channel=0 note=56 velocity=28 time=0
note_on channel=0 note=56 velocity=0 time=0
note_on channel=0 note=51 velocity=25 time=0
note_on channel=0 note=51 velocity=0 time=0
note_on channel=0 note=56 velocity=25 time=0
note_on channel=0 note=56 velocity=0 time=120
note_on channel=0 note=51 velocity=25 time=0
note_on channel=0 note=51 velocity=0 time=0
note_on channel=0 note=48 velocity=0 time=0
note_on channel=0 note=43 velocity=37 time=0
note_on channel=0 note=58 velocity=28 time=0
note_on channel=0 note=58 velocity=0 time=28
note_on channel=0 note=51 velocity=25 time=0
note_on channel=0 note=51 velocity=0 time=120
note_on channel=0 note=63 velocity=0 time=0
note_on channel=0 note=61 velocity=48 time=0
note_on channel=0 note=58 velocity=25 time=0
note_on channel=0 note=58 velocity=0 time=0
note_on channel=0 note=51 velocity=25 time=0
note_on channel=0 note=51 velocity=0 time=0
note_on channel=0 note=61 velocity=0 time=0
note_on channel=0 note=43 velocity=0 time=0
note_on channel=0 note=60 velocity=47 time=0
note_on channel=0 note=44 velocity=33 time=0
note_on channel=0 note=56 velocity=29 time=0
note_on channel=0 note=56 velocity=0 time=0
note_on channel=0 note=51 velocity=25 time=0
note_on channel=0 note=51 velocity=0 time=0
note_on channel=0 note=44 velocity=0 time=0
note_on channel=0 note=60 velocity=0 time=0
note_on channel=0 note=63 velocity=49 time=0
note_on channel=0 note=43 velocity=35 time=0
note_on channel=0 note=58 velocity=26 time=0
note_on channel=0 note=58 velocity=0 time=57
note_on channel=0 note=51 velocity=23 time=0
note_on channel=0 note=51 velocity=0 time=0
note_on channel=0 note=43 velocity=0 time=0
note_on channel=0 note=63 velocity=0 time=0
note_on channel=0 note=68 velocity=51 time=0
note_on channel=0 note=41 velocity=38 time=0
note_on channel=0 note=60 velocity=30 time=0
note_on channel=0 note=60 velocity=0 time=0
note_on channel=0 note=56 velocity=25 time=0
note_on channel=0 note=56 velocity=0 time=0
note_on channel=0 note=41 velocity=0 time=0
note_on channel=0 note=68 velocity=0 time=0
note_on channel=0 note=70 velocity=56 time=0
note_on channel=0 note=53 velocity=40 time=0
note_on channel=0 note=62 velocity=27 time=0
note_on channel=0 note=62 velocity=0 time=0
note_on channel=0 note=56 velocity=22 time=0
note_on channel=0 note=56 velocity=0 time=0
note_on channel=0 note=53 velocity=0 time=0
note_on channel=0 note=70 velocity=0 time=0
note_on channel=0 note=63 velocity=50 time=0
note_on channel=0 note=51 velocity=36 time=0
note_on channel=0 note=55 velocity=28 time=0
note_on channel=0 note=55 velocity=0 time=0
note_on channel=0 note=58 velocity=23 time=0
note_on channel=0 note=58 velocity=0 time=0
note_on channel=0 note=55 velocity=23 time=0
note_on channel=0 note=55 velocity=0 time=120
note_on channel=0 note=58 velocity=23 time=0
note_on channel=0 note=58 velocity=0 time=0
note_on channel=0 note=51 velocity=0 time=0
note_on channel=0 note=39 velocity=35 time=0
note_on channel=0 note=55 velocity=28 time=0
note_on channel=0 note=55 velocity=0 time=0
note_on channel=0 note=58 velocity=23 time=0
note_on channel=0 note=58 velocity=0 time=0
note_on channel=0 note=63 velocity=0 time=0
note_on channel=0 note=64 velocity=46 time=0
note_on channel=0 note=55 velocity=25 time=0
note_on channel=0 note=55 velocity=0 time=0
note_on channel=0 note=58 velocity=24 time=0
note_on channel=0 note=58 velocity=0 time=0
note_on channel=0 note=64 velocity=0 time=0
note_on channel=0 note=39 velocity=0 time=0
note_on channel=0 note=65 velocity=50 time=0
note_on channel=0 note=37 velocity=40 time=0
note_on channel=0 note=55 velocity=28 time=0
note_on channel=0 note=55 velocity=0 time=0
note_on channel=0 note=58 velocity=24 time=0
note_on channel=0 note=58 velocity=0 time=0
note_on channel=0 note=55 velocity=26 time=0
note_on channel=0 note=55 velocity=0 time=0
note_on channel=0 note=58 velocity=23 time=0
note_on channel=0 note=58 velocity=0 time=118
note_on channel=0 note=37 velocity=0 time=0
note_on channel=0 note=65 velocity=0 time=0
note_on channel=0 note=58 velocity=50 time=0
note_on channel=0 note=49 velocity=36 time=0
note_on channel=0 note=55 velocity=28 time=0
note_on channel=0 note=55 velocity=0 time=0
note_on channel=0 note=51 velocity=24 time=0
note_on channel=0 note=51 velocity=0 time=0
note_on channel=0 note=55 velocity=24 time=0
note_on channel=0 note=55 velocity=0 time=0
note_on channel=0 note=58 velocity=0 time=0
note_on channel=0 note=60 velocity=46 time=0
note_on channel=0 note=51 velocity=24 time=0
note_on channel=0 note=60 velocity=0 time=60
note_on channel=0 note=61 velocity=46 time=0
note_on channel=0 note=61 velocity=0 time=0
note_on channel=0 note=51 velocity=0 time=0
note_on channel=0 note=49 velocity=0 time=0
note_on channel=0 note=63 velocity=50 time=0
note_on channel=0 note=48 velocity=40 time=0
note_on channel=0 note=56 velocity=28 time=0
note_on channel=0 note=56 velocity=0 time=0
note_on channel=0 note=51 velocity=27 time=0
note_on channel=0 note=51 velocity=0 time=0
note_on channel=0 note=56 velocity=27 time=0
note_on channel=0 note=56 velocity=0 time=0
note_on channel=0 note=51 velocity=25 time=0
note_on channel=0 note=51 velocity=0 time=0
note_on channel=0 note=48 velocity=0 time=0
note_on channel=0 note=63 velocity=0 time=0
note_on channel=0 note=57 velocity=48 time=0
note_on channel=0 note=41 velocity=36 time=0
note_on channel=0 note=51 velocity=28 time=0
note_on channel=0 note=51 velocity=0 time=0
note_on channel=0 note=48 velocity=24 time=0
note_on channel=0 note=48 velocity=0 time=0
note_on channel=0 note=51 velocity=26 time=0
note_on channel=0 note=51 velocity=0 time=0
note_on channel=0 note=48 velocity=24 time=0
note_on channel=0 note=48 velocity=0 time=0
note_on channel=0 note=41 velocity=0 time=0
note_on channel=0 note=57 velocity=0 time=0
note_on channel=0 note=61 velocity=50 time=0
note_on channel=0 note=34 velocity=40 time=0
note_on channel=0 note=53 velocity=29 time=0
note_on channel=0 note=53 velocity=0 time=0
note_on channel=0 note=49 velocity=25 time=0
note_on channel=0 note=49 velocity=0 time=0
note_on channel=0 note=53 velocity=27 time=0
note_on channel=0 note=53 velocity=0 time=0
note_on channel=0 note=49 velocity=24 time=0
note_on channel=0 note=49 velocity=0 time=108
note_on channel=0 note=34 velocity=0 time=0
note_on channel=0 note=61 velocity=0 time=0
note_on channel=0 note=60 velocity=48 time=0
note_on channel=0 note=39 velocity=34 time=0
note_on channel=0 note=49 velocity=30 time=0
note_on channel=0 note=49 velocity=0 time=30
note_on channel=0 note=60 velocity=0 time=0
note_on channel=0 note=58 velocity=48 time=0
note_on channel=0 note=49 velocity=26 time=0
note_on channel=0 note=49 velocity=0 time=108
note_on channel=0 note=58 velocity=0 time=0
note_on channel=0 note=56 velocity=48 time=0
note_on channel=0 note=49 velocity=28 time=0
note_on channel=0 note=49 velocity=0 time=108
note_on channel=0 note=56 velocity=0 time=0
note_on channel=0 note=55 velocity=48 time=0
note_on channel=0 note=49 velocity=26 time=0
note_on channel=0 note=49 velocity=0 time=108
note_on channel=0 note=55 velocity=0 time=0
note_on channel=0 note=39 velocity=0 time=0
note_on channel=0 note=55 velocity=40 time=0
note_on channel=0 note=58 velocity=50 time=0
note_on channel=0 note=32 velocity=37 time=0
note_on channel=0 note=49 velocity=31 time=0
note_on channel=0 note=49 velocity=0 time=0
note_on channel=0 note=51 velocity=26 time=0
note_on channel=0 note=51 velocity=0 time=0
note_on channel=0 note=32 velocity=0 time=0
note_on channel=0 note=44 velocity=29 time=0
note_on channel=0 note=49 velocity=28 time=0
note_on channel=0 note=49 velocity=0 time=0
note_on channel=0 note=51 velocity=24 time=0
note_on channel=0 note=51 velocity=0 time=120
note_on channel=0 note=44 velocity=0 time=0
note_on channel=0 note=58 velocity=0 time=0
note_on channel=0 note=55 velocity=0 time=0
note_on channel=0 note=56 velocity=50 time=0
note_on channel=0 note=48 velocity=36 time=0
note_on channel=0 note=32 velocity=36 time=0
note_on channel=0 note=48 velocity=0 time=18
note_on channel=0 note=51 velocity=34 time=20
note_on channel=0 note=51 velocity=0 time=60
note_on channel=0 note=56 velocity=34 time=20
note_on channel=0 note=56 velocity=0 time=60
note_on channel=0 note=32 velocity=0 time=20
note_on channel=0 note=56 velocity=0 time=0
note_on channel=0 note=60 velocity=36 time=0
note_on channel=0 note=60 velocity=0 time=60
note_on channel=0 note=63 velocity=35 time=20
note_on channel=0 note=63 velocity=0 time=60
note_on channel=0 note=68 velocity=35 time=0
note_on channel=0 note=68 velocity=0 time=60
note_on channel=0 note=72 velocity=50 time=0
note_on channel=0 note=60 velocity=28 time=0
note_on channel=0 note=44 velocity=40 time=0
note_on channel=0 note=56 velocity=25 time=0
note_on channel=0 note=56 velocity=0 time=56
note_on channel=0 note=60 velocity=0 time=0
note_on channel=0 note=63 velocity=24 time=0
note_on channel=0 note=51 velocity=21 time=0
note_on channel=0 note=51 velocity=0 time=120
note_on channel=0 note=63 velocity=0 time=0
note_on channel=0 note=60 velocity=26 time=0
note_on channel=0 note=56 velocity=23 time=0
note_on channel=0 note=56 velocity=0 time=0
note_on channel=0 note=60 velocity=0 time=0
note_on channel=0 note=63 velocity=23 time=0
note_on channel=0 note=51 velocity=20 time=0
note_on channel=0 note=51 velocity=0 time=0
note_on channel=0 note=72 velocity=0 time=0
note_on channel=0 note=44 velocity=0 time=0
note_on channel=0 note=63 velocity=0 time=0
note_on channel=0 note=70 velocity=46 time=0
note_on channel=0 note=58 velocity=28 time=0
note_on channel=0 note=49 velocity=35 time=0
note_on channel=0 note=55 velocity=25 time=0
note_on channel=0 note=55 velocity=0 time=0
note_on channel=0 note=58 velocity=0 time=0
note_on channel=0 note=63 velocity=24 time=0
note_on channel=0 note=51 velocity=21 time=0
note_on channel=0 note=51 velocity=0 time=0
note_on channel=0 note=63 velocity=0 time=0
note_on channel=0 note=58 velocity=26 time=0
note_on channel=0 note=55 velocity=23 time=0
note_on channel=0 note=55 velocity=0 time=0
note_on channel=0 note=58 velocity=0 time=0
note_on channel=0 note=63 velocity=24 time=0
note_on channel=0 note=51 velocity=21 time=0
note_on channel=0 note=51 velocity=0 time=0
note_on channel=0 note=70 velocity=0 time=0
note_on channel=0 note=49 velocity=0 time=0
note_on channel=0 note=63 velocity=0 time=0
note_on channel=0 note=75 velocity=50 time=0
note_on channel=0 note=63 velocity=28 time=0
note_on channel=0 note=48 velocity=40 time=0
note_on channel=0 note=56 velocity=25 time=0
note_on channel=0 note=56 velocity=0 time=0
note_on channel=0 note=63 velocity=0 time=0
note_on channel=0 note=68 velocity=25 time=0
note_on channel=0 note=51 velocity=22 time=0
note_on channel=0 note=51 velocity=0 time=0
note_on channel=0 note=68 velocity=0 time=0
note_on channel=0 note=63 velocity=25 time=0
note_on channel=0 note=56 velocity=22 time=0
note_on channel=0 note=56 velocity=0 time=120
note_on channel=0 note=63 velocity=0 time=0
note_on channel=0 note=68 velocity=25 time=0
note_on channel=0 note=51 velocity=22 time=0
note_on channel=0 note=51 velocity=0 time=0
note_on channel=0 note=68 velocity=0 time=0
note_on channel=0 note=48 velocity=0 time=0
note_on channel=0 note=63 velocity=28 time=0
note_on channel=0 note=43 velocity=37 time=0
note_on channel=0 note=55 velocity=25 time=0
note_on channel=0 note=55 velocity=0 time=28
note_on channel=0 note=63 velocity=0 time=0
note_on channel=0 note=70 velocity=25 time=0
note_on channel=0 note=51 velocity=22 time=0
note_on channel=0 note=51 velocity=0 time=120
note_on channel=0 note=70 velocity=0 time=0
note_on channel=0 note=75 velocity=0 time=0
note_on channel=0 note=73 velocity=48 time=0
note_on channel=0 note=63 velocity=25 time=0
note_on channel=0 note=55 velocity=22 time=0
note_on channel=0 note=55 velocity=0 time=0
note_on channel=0 note=63 velocity=0 time=0
note_on channel=0 note=70 velocity=25 time=0
note_on channel=0 note=51 velocity=22 time=0
note_on channel=0 note=51 velocity=0 time=0
note_on channel=0 note=43 velocity=0 time=0
note_on channel=0 note=73 velocity=0 time=0
note_on channel=0 note=70 velocity=0 time=0
note_on channel=0 note=72 velocity=47 time=0
note_on channel=0 note=63 velocity=31 time=0
note_on channel=0 note=44 velocity=41 time=0
note_on channel=0 note=56 velocity=30 time=0
note_on channel=0 note=56 velocity=0 time=0
note_on channel=0 note=63 velocity=0 time=0
note_on channel=0 note=68 velocity=31 time=0
note_on channel=0 note=51 velocity=30 time=0
note_on channel=0 note=51 velocity=0 time=0
note_on channel=0 note=72 velocity=0 time=0
note_on channel=0 note=44 velocity=0 time=0
note_on channel=0 note=68 velocity=0 time=0
note_on channel=0 note=75 velocity=49 time=0
note_on channel=0 note=63 velocity=32 time=0
note_on channel=0 note=43 velocity=44 time=0
note_on channel=0 note=55 velocity=30 time=0
note_on channel=0 note=55 velocity=0 time=57
note_on channel=0 note=63 velocity=0 time=0
note_on channel=0 note=70 velocity=33 time=0
note_on channel=0 note=51 velocity=31 time=0
note_on channel=0 note=51 velocity=0 time=0
note_on channel=0 note=75 velocity=0 time=0
note_on channel=0 note=43 velocity=0 time=0
note_on channel=0 note=70 velocity=0 time=0
note_on channel=0 note=80 velocity=51 time=0
note_on channel=0 note=68 velocity=33 time=0
note_on channel=0 note=41 velocity=46 time=0
note_on channel=0 note=53 velocity=31 time=0
note_on channel=0 note=53 velocity=0 time=0
note_on channel=0 note=68 velocity=0 time=0
note_on channel=0 note=72 velocity=34 time=0
note_on channel=0 note=44 velocity=32 time=0
note_on channel=0 note=44 velocity=0 time=0
note_on channel=0 note=80 velocity=0 time=0
note_on channel=0 note=41 velocity=0 time=0
note_on channel=0 note=72 velocity=0 time=0
note_on channel=0 note=82 velocity=56 time=0
note_on channel=0 note=68 velocity=35 time=0
note_on channel=0 note=41 velocity=49 time=0
note_on channel=0 note=53 velocity=32 time=0
note_on channel=0 note=53 velocity=0 time=0
note_on channel=0 note=68 velocity=0 time=0
note_on channel=0 note=74 velocity=35 time=0
note_on channel=0 note=44 velocity=32 time=0
note_on channel=0 note=44 velocity=0 time=0
note_on channel=0 note=82 velocity=0 time=0
note_on channel=0 note=41 velocity=0 time=0
note_on channel=0 note=74 velocity=0 time=0
note_on channel=0 note=75 velocity=50 time=0
note_on channel=0 note=67 velocity=33 time=0
note_on channel=0 note=39 velocity=46 time=0
note_on channel=0 note=39 velocity=0 time=0
note_on channel=0 note=67 velocity=0 time=0
note_on channel=0 note=70 velocity=25 time=0
note_on channel=0 note=43 velocity=25 time=0
note_on channel=0 note=43 velocity=0 time=0
note_on channel=0 note=70 velocity=0 time=0
note_on channel=0 note=67 velocity=25 time=0
note_on channel=0 note=46 velocity=25 time=0
note_on channel=0 note=46 velocity=0 time=120
note_on channel=0 note=67 velocity=0 time=0
note_on channel=0 note=70 velocity=25 time=0
note_on channel=0 note=51 velocity=25 time=0
note_on channel=0 note=51 velocity=0 time=0
note_on channel=0 note=70 velocity=0 time=0
note_on channel=0 note=67 velocity=29 time=0
note_on channel=0 note=55 velocity=28 time=0
note_on channel=0 note=55 velocity=0 time=0
note_on channel=0 note=67 velocity=0 time=0
note_on channel=0 note=70 velocity=30 time=0
note_on channel=0 note=58 velocity=30 time=0
note_on channel=0 note=58 velocity=0 time=0
note_on channel=0 note=70 velocity=0 time=0
note_on channel=0 note=75 velocity=0 time=0
note_on channel=0 note=76 velocity=46 time=0
note_on channel=0 note=67 velocity=33 time=0
note_on channel=0 note=55 velocity=33 time=0
note_on channel=0 note=55 velocity=0 time=0
note_on channel=0 note=67 velocity=0 time=0
note_on channel=0 note=70 velocity=34 time=0
note_on channel=0 note=58 velocity=35 time=0
note_on channel=0 note=58 velocity=0 time=0
note_on channel=0 note=70 velocity=0 time=0
note_on channel=0 note=76 velocity=0 time=0
note_on channel=0 note=77 velocity=50 time=0
note_on channel=0 note=67 velocity=30 time=0
note_on channel=0 note=37 velocity=40 time=0
note_on channel=0 note=37 velocity=0 time=0
note_on channel=0 note=67 velocity=0 time=0
note_on channel=0 note=70 velocity=24 time=0
note_on channel=0 note=43 velocity=24 time=0
note_on channel=0 note=43 velocity=0 time=0
note_on channel=0 note=70 velocity=0 time=0
note_on channel=0 note=67 velocity=26 time=0
note_on channel=0 note=46 velocity=26 time=0
note_on channel=0 note=46 velocity=0 time=0
note_on channel=0 note=67 velocity=0 time=0
note_on channel=0 note=70 velocity=23 time=0
note_on channel=0 note=49 velocity=23 time=0
note_on channel=0 note=70 velocity=0 time=118
note_on channel=0 note=49 velocity=0 time=0
note_on channel=0 note=77 velocity=0 time=0
note_on channel=0 note=70 velocity=50 time=0
note_on channel=0 note=67 velocity=28 time=0
note_on channel=0 note=55 velocity=25 time=0
note_on channel=0 note=55 velocity=0 time=0
note_on channel=0 note=67 velocity=0 time=0
note_on channel=0 note=63 velocity=24 time=0
note_on channel=0 note=58 velocity=21 time=0
note_on channel=0 note=58 velocity=0 time=0
note_on channel=0 note=63 velocity=0 time=0
note_on channel=0 note=67 velocity=24 time=0
note_on channel=0 note=55 velocity=21 time=0
note_on channel=0 note=55 velocity=0 time=0
note_on channel=0 note=67 velocity=0 time=0
note_on channel=0 note=70 velocity=0 time=0
note_on channel=0 note=72 velocity=46 time=0
note_on channel=0 note=63 velocity=24 time=0
note_on channel=0 note=49 velocity=21 time=0
note_on channel=0 note=72 velocity=0 time=60
note_on channel=0 note=73 velocity=46 time=0
note_on channel=0 note=73 velocity=0 time=0
note_on channel=0 note=49 velocity=0 time=0
note_on channel=0 note=63 velocity=0 time=0
note_on channel=0 note=75 velocity=50 time=0
note_on channel=0 note=68 velocity=30 time=0
note_on channel=0 note=48 velocity=40 time=0
note_on channel=0 note=68 velocity=0 time=0
note_on channel=0 note=63 velocity=27 time=0
note_on channel=0 note=51 velocity=27 time=0
note_on channel=0 note=51 velocity=0 time=0
note_on channel=0 note=63 velocity=0 time=0
note_on channel=0 note=48 velocity=0 time=0
note_on channel=0 note=68 velocity=27 time=0
note_on channel=0 note=48 velocity=27 time=0
note_on channel=0 note=68 velocity=0 time=0
note_on channel=0 note=63 velocity=25 time=0
note_on channel=0 note=51 velocity=25 time=0
note_on channel=0 note=63 velocity=0 time=90
note_on channel=0 note=75 velocity=0 time=0
note_on channel=0 note=48 velocity=0 time=0
note_on channel=0 note=51 velocity=0 time=0
note_on channel=0 note=69 velocity=48 time=0
note_on channel=0 note=63 velocity=28 time=0
note_on channel=0 note=41 velocity=36 time=0
note_on channel=0 note=48 velocity=25 time=0
note_on channel=0 note=48 velocity=0 time=0
note_on channel=0 note=63 velocity=0 time=0
note_on channel=0 note=60 velocity=24 time=0
note_on channel=0 note=53 velocity=21 time=0
note_on channel=0 note=53 velocity=0 time=0
note_on channel=0 note=60 velocity=0 time=0
note_on channel=0 note=63 velocity=26 time=0
note_on channel=0 note=48 velocity=23 time=0
note_on channel=0 note=48 velocity=0 time=0
note_on channel=0 note=63 velocity=0 time=0
note_on channel=0 note=60 velocity=24 time=0
note_on channel=0 note=53 velocity=21 time=0
note_on channel=0 note=53 velocity=0 time=0
note_on channel=0 note=69 velocity=0 time=0
note_on channel=0 note=41 velocity=0 time=0
note_on channel=0 note=60 velocity=0 time=0
note_on channel=0 note=73 velocity=50 time=0
note_on channel=0 note=65 velocity=29 time=0
note_on channel=0 note=46 velocity=40 time=0
note_on channel=0 note=49 velocity=26 time=0
note_on channel=0 note=49 velocity=0 time=0
note_on channel=0 note=65 velocity=0 time=0
note_on channel=0 note=61 velocity=25 time=0
note_on channel=0 note=53 velocity=22 time=0
note_on channel=0 note=53 velocity=0 time=0
note_on channel=0 note=61 velocity=0 time=0
note_on channel=0 note=65 velocity=27 time=0
note_on channel=0 note=49 velocity=24 time=0
note_on channel=0 note=49 velocity=0 time=0
note_on channel=0 note=65 velocity=0 time=0
note_on channel=0 note=61 velocity=24 time=0
note_on channel=0 note=53 velocity=21 time=0
note_on channel=0 note=61 velocity=0 time=90
note_on channel=0 note=73 velocity=0 time=0
note_on channel=0 note=46 velocity=0 time=0
note_on channel=0 note=53 velocity=0 time=0
note_on channel=0 note=72 velocity=48 time=0
note_on channel=0 note=61 velocity=30 time=0
note_on channel=0 note=39 velocity=34 time=0
note_on channel=0 note=46 velocity=27 time=0
note_on channel=0 note=61 velocity=0 time=12
note_on channel=0 note=72 velocity=0 time=0
note_on channel=0 note=46 velocity=0 time=0
note_on channel=0 note=70 velocity=48 time=0
note_on channel=0 note=61 velocity=26 time=0
note_on channel=0 note=51 velocity=23 time=0
note_on channel=0 note=61 velocity=0 time=90
note_on channel=0 note=51 velocity=0 time=0
note_on channel=0 note=70 velocity=0 time=0
note_on channel=0 note=68 velocity=48 time=0
note_on channel=0 note=61 velocity=28 time=0
note_on channel=0 note=46 velocity=25 time=0
note_on channel=0 note=61 velocity=0 time=90
note_on channel=0 note=46 velocity=0 time=0
note_on channel=0 note=68 velocity=0 time=0
note_on channel=0 note=67 velocity=48 time=0
note_on channel=0 note=61 velocity=26 time=0
note_on channel=0 note=51 velocity=23 time=0
note_on channel=0 note=61 velocity=0 time=90
note_on channel=0 note=39 velocity=0 time=0
note_on channel=0 note=67 velocity=0 time=0
note_on channel=0 note=51 velocity=0 time=0
note_on channel=0 note=70 velocity=50 time=0
note_on channel=0 note=61 velocity=30 time=0
note_on channel=0 note=44 velocity=37 time=0
note_on channel=0 note=61 velocity=0 time=0
note_on channel=0 note=63 velocity=26 time=0
note_on channel=0 note=51 velocity=23 time=0
note_on channel=0 note=51 velocity=0 time=0
note_on channel=0 note=63 velocity=0 time=0
note_on channel=0 note=61 velocity=28 time=0
note_on channel=0 note=55 velocity=25 time=0
note_on channel=0 note=55 velocity=0 time=0
note_on channel=0 note=61 velocity=0 time=0
note_on channel=0 note=63 velocity=24 time=0
note_on channel=0 note=51 velocity=21 time=0
note_on channel=0 note=51 velocity=0 time=120
note_on channel=0 note=63 velocity=0 time=0
note_on channel=0 note=70 velocity=0 time=0
note_on channel=0 note=68 velocity=50 time=0
note_on channel=0 note=60 velocity=36 time=0
note_on channel=0 note=56 velocity=36 time=0
note_on channel=0 note=56 velocity=0 time=0
note_on channel=0 note=44 velocity=0 time=0
note_on channel=0 note=68 velocity=0 time=0
note_on channel=0 note=60 velocity=0 time=0
note_on channel=0 note=60 velocity=45 time=180
note_on channel=0 note=60 velocity=0 time=0
note_on channel=0 note=72 velocity=50 time=0
note_on channel=0 note=60 velocity=25 time=0
note_on channel=0 note=60 velocity=0 time=108
note_on channel=0 note=60 velocity=25 time=12
note_on channel=0 note=60 velocity=0 time=108
note_on channel=0 note=60 velocity=25 time=12
note_on channel=0 note=60 velocity=0 time=108
note_on channel=0 note=60 velocity=29 time=0
note_on channel=0 note=60 velocity=0 time=108
note_on channel=0 note=72 velocity=0 time=0
note_on channel=0 note=80 velocity=50 time=0
note_on channel=0 note=60 velocity=25 time=0
note_on channel=0 note=60 velocity=0 time=108
note_on channel=0 note=80 velocity=0 time=12
note_on channel=0 note=79 velocity=51 time=0
note_on channel=0 note=60 velocity=25 time=0
note_on channel=0 note=60 velocity=0 time=108
note_on channel=0 note=79 velocity=0 time=0
note_on channel=0 note=77 velocity=48 time=0
note_on channel=0 note=60 velocity=25 time=0
note_on channel=0 note=60 velocity=0 time=108
note_on channel=0 note=77 velocity=0 time=0
note_on channel=0 note=84 velocity=54 time=0
note_on channel=0 note=52 velocity=24 time=0
note_on channel=0 note=55 velocity=24 time=0
note_on channel=0 note=60 velocity=29 time=0
note_on channel=0 note=60 velocity=0 time=108
note_on channel=0 note=55 velocity=0 time=0
note_on channel=0 note=52 velocity=0 time=0
note_on channel=0 note=52 velocity=21 time=0
note_on channel=0 note=55 velocity=21 time=0
note_on channel=0 note=60 velocity=25 time=0
note_on channel=0 note=60 velocity=0 time=108
note_on channel=0 note=55 velocity=0 time=0
note_on channel=0 note=52 velocity=0 time=0
note_on channel=0 note=52 velocity=21 time=12
note_on channel=0 note=55 velocity=21 time=0
note_on channel=0 note=60 velocity=25 time=0
note_on channel=0 note=60 velocity=0 time=108
note_on channel=0 note=55 velocity=0 time=0
note_on channel=0 note=52 velocity=0 time=0
note_on channel=0 note=52 velocity=21 time=12
note_on channel=0 note=55 velocity=21 time=0
note_on channel=0 note=60 velocity=25 time=0
note_on channel=0 note=60 velocity=0 time=108
note_on channel=0 note=55 velocity=0 time=0
note_on channel=0 note=52 velocity=0 time=0
note_on channel=0 note=53 velocity=24 time=0
note_on channel=0 note=56 velocity=24 time=0
note_on channel=0 note=60 velocity=29 time=0
note_on channel=0 note=60 velocity=0 time=108
note_on channel=0 note=56 velocity=0 time=0
note_on channel=0 note=53 velocity=0 time=0
note_on channel=0 note=84 velocity=0 time=0
note_on channel=0 note=80 velocity=50 time=0
note_on channel=0 note=53 velocity=21 time=0
note_on channel=0 note=56 velocity=21 time=0
note_on channel=0 note=60 velocity=25 time=0
note_on channel=0 note=60 velocity=0 time=108
note_on channel=0 note=56 velocity=0 time=0
note_on channel=0 note=53 velocity=0 time=0
note_on channel=0 note=80 velocity=0 time=12
note_on channel=0 note=79 velocity=50 time=0
note_on channel=0 note=53 velocity=21 time=0
note_on channel=0 note=56 velocity=21 time=0
note_on channel=0 note=60 velocity=25 time=0
note_on channel=0 note=60 velocity=0 time=108
note_on channel=0 note=56 velocity=0 time=0
note_on channel=0 note=53 velocity=0 time=0
note_on channel=0 note=79 velocity=0 time=0
note_on channel=0 note=77 velocity=48 time=0
note_on channel=0 note=53 velocity=21 time=0
note_on channel=0 note=56 velocity=21 time=0
note_on channel=0 note=60 velocity=25 time=0
note_on channel=0 note=60 velocity=0 time=108
note_on channel=0 note=56 velocity=0 time=0
note_on channel=0 note=53 velocity=0 time=0
note_on channel=0 note=77 velocity=0 time=0
note_on channel=0 note=72 velocity=52 time=0
note_on channel=0 note=55 velocity=24 time=0
note_on channel=0 note=58 velocity=24 time=0
note_on channel=0 note=64 velocity=29 time=0
note_on channel=0 note=64 velocity=0 time=108
note_on channel=0 note=58 velocity=0 time=0
note_on channel=0 note=55 velocity=0 time=0
note_on channel=0 note=55 velocity=21 time=0
note_on channel=0 note=58 velocity=21 time=0
note_on channel=0 note=64 velocity=25 time=0
note_on channel=0 note=64 velocity=0 time=108
note_on channel=0 note=58 velocity=0 time=0
note_on channel=0 note=55 velocity=0 time=0
note_on channel=0 note=55 velocity=21 time=12
note_on channel=0 note=58 velocity=21 time=0
note_on channel=0 note=64 velocity=25 time=0
note_on channel=0 note=64 velocity=0 time=108
note_on channel=0 note=58 velocity=0 time=0
note_on channel=0 note=55 velocity=0 time=0
note_on channel=0 note=55 velocity=21 time=12
note_on channel=0 note=58 velocity=21 time=0
note_on channel=0 note=64 velocity=25 time=0
note_on channel=0 note=64 velocity=0 time=108
note_on channel=0 note=58 velocity=0 time=0
note_on channel=0 note=55 velocity=0 time=0
note_on channel=0 note=56 velocity=26 time=0
note_on channel=0 note=60 velocity=26 time=0
note_on channel=0 note=65 velocity=31 time=0
note_on channel=0 note=65 velocity=0 time=108
note_on channel=0 note=60 velocity=0 time=0
note_on channel=0 note=56 velocity=0 time=0
note_on channel=0 note=72 velocity=0 time=0
note_on channel=0 note=80 velocity=46 time=0
note_on channel=0 note=56 velocity=23 time=0
note_on channel=0 note=60 velocity=23 time=0
note_on channel=0 note=65 velocity=28 time=0
note_on channel=0 note=65 velocity=0 time=108
note_on channel=0 note=60 velocity=0 time=0
note_on channel=0 note=56 velocity=0 time=0
note_on channel=0 note=80 velocity=0 time=12
note_on channel=0 note=79 velocity=49 time=0
note_on channel=0 note=56 velocity=24 time=0
note_on channel=0 note=60 velocity=24 time=0
note_on channel=0 note=65 velocity=29 time=0
note_on channel=0 note=65 velocity=0 time=108
note_on channel=0 note=60 velocity=0 time=0
note_on channel=0 note=56 velocity=0 time=0
note_on channel=0 note=79 velocity=0 time=0
note_on channel=0 note=77 velocity=51 time=0
note_on channel=0 note=56 velocity=24 time=0
note_on channel=0 note=60 velocity=24 time=0
note_on channel=0 note=65 velocity=29 time=0
note_on channel=0 note=65 velocity=0 time=108
note_on channel=0 note=60 velocity=0 time=0
note_on channel=0 note=56 velocity=0 time=0
note_on channel=0 note=77 velocity=0 time=0
note_on channel=0 note=75 velocity=57 time=0
note_on channel=0 note=58 velocity=25 time=0
note_on channel=0 note=65 velocity=25 time=0
note_on channel=0 note=68 velocity=30 time=0
note_on channel=0 note=68 velocity=0 time=108
note_on channel=0 note=65 velocity=0 time=0
note_on channel=0 note=58 velocity=0 time=0
note_on channel=0 note=58 velocity=26 time=0
note_on channel=0 note=65 velocity=26 time=0
note_on channel=0 note=68 velocity=31 time=0
note_on channel=0 note=68 velocity=0 time=108
note_on channel=0 note=65 velocity=0 time=0
note_on channel=0 note=58 velocity=0 time=0
note_on channel=0 note=75 velocity=0 time=0
note_on channel=0 note=74 velocity=53 time=0
note_on channel=0 note=58 velocity=28 time=0
note_on channel=0 note=65 velocity=28 time=0
note_on channel=0 note=68 velocity=33 time=0
note_on channel=0 note=68 velocity=0 time=108
note_on channel=0 note=65 velocity=0 time=0
note_on channel=0 note=58 velocity=0 time=0
note_on channel=0 note=58 velocity=30 time=0
note_on channel=0 note=65 velocity=30 time=0
note_on channel=0 note=68 velocity=35 time=0
note_on channel=0 note=68 velocity=0 time=108
note_on channel=0 note=65 velocity=0 time=0
note_on channel=0 note=58 velocity=0 time=0
note_on channel=0 note=59 velocity=32 time=0
note_on channel=0 note=65 velocity=32 time=0
note_on channel=0 note=68 velocity=38 time=0
note_on channel=0 note=68 velocity=0 time=108
note_on channel=0 note=65 velocity=0 time=0
note_on channel=0 note=59 velocity=0 time=0
note_on channel=0 note=74 velocity=0 time=0
note_on channel=0 note=75 velocity=55 time=0
note_on channel=0 note=59 velocity=27 time=0
note_on channel=0 note=65 velocity=27 time=0
note_on channel=0 note=68 velocity=33 time=0
note_on channel=0 note=75 velocity=0 time=30
note_on channel=0 note=74 velocity=55 time=0
note_on channel=0 note=74 velocity=0 time=30
note_on channel=0 note=72 velocity=54 time=0
note_on channel=0 note=72 velocity=0 time=30
note_on channel=0 note=74 velocity=54 time=0
note_on channel=0 note=59 velocity=0 time=18
note_on channel=0 note=68 velocity=0 time=0
note_on channel=0 note=65 velocity=0 time=0
note_on channel=0 note=74 velocity=0 time=0
note_on channel=0 note=77 velocity=63 time=0
note_on channel=0 note=59 velocity=27 time=0
note_on channel=0 note=62 velocity=27 time=0
note_on channel=0 note=68 velocity=33 time=0
note_on channel=0 note=68 velocity=0 time=108
note_on channel=0 note=62 velocity=0 time=0
note_on channel=0 note=59 velocity=0 time=0
note_on channel=0 note=59 velocity=25 time=12
note_on channel=0 note=62 velocity=25 time=0
note_on channel=0 note=68 velocity=30 time=0
note_on channel=0 note=77 velocity=0 time=0
note_on channel=0 note=75 velocity=55 time=0
note_on channel=0 note=59 velocity=0 time=48
note_on channel=0 note=68 velocity=0 time=0
note_on channel=0 note=62 velocity=0 time=0
note_on channel=0 note=75 velocity=0 time=0
note_on channel=0 note=75 velocity=62 time=0
note_on channel=0 note=60 velocity=27 time=0
note_on channel=0 note=63 velocity=27 time=0
note_on channel=0 note=67 velocity=32 time=0
note_on channel=0 note=67 velocity=0 time=108
note_on channel=0 note=63 velocity=0 time=0
note_on channel=0 note=60 velocity=0 time=0
note_on channel=0 note=60 velocity=22 time=12
note_on channel=0 note=63 velocity=22 time=0
note_on channel=0 note=67 velocity=27 time=0
note_on channel=0 note=67 velocity=0 time=108
note_on channel=0 note=63 velocity=0 time=0
note_on channel=0 note=60 velocity=0 time=0
note_on channel=0 note=60 velocity=22 time=12
note_on channel=0 note=63 velocity=22 time=0
note_on channel=0 note=67 velocity=27 time=0
note_on channel=0 note=67 velocity=0 time=108
note_on channel=0 note=63 velocity=0 time=0
note_on channel=0 note=60 velocity=0 time=0
note_on channel=0 note=60 velocity=22 time=12
note_on channel=0 note=63 velocity=22 time=0
note_on channel=0 note=67 velocity=27 time=0
note_on channel=0 note=67 velocity=0 time=108
note_on channel=0 note=63 velocity=0 time=0
note_on channel=0 note=60 velocity=0 time=0
note_on channel=0 note=75 velocity=0 time=0
note_on channel=0 note=65 velocity=55 time=0
note_on channel=0 note=56 velocity=28 time=0
note_on channel=0 note=63 velocity=33 time=0
note_on channel=0 note=63 velocity=0 time=108
note_on channel=0 note=56 velocity=0 time=0
note_on channel=0 note=56 velocity=25 time=0
note_on channel=0 note=63 velocity=30 time=0
note_on channel=0 note=63 velocity=0 time=108
note_on channel=0 note=56 velocity=0 time=0
note_on channel=0 note=67 velocity=54 time=0
note_on channel=0 note=56 velocity=25 time=0
note_on channel=0 note=63 velocity=30 time=0
note_on channel=0 note=67 velocity=0 time=30
note_on channel=0 note=65 velocity=54 time=0
note_on channel=0 note=65 velocity=0 time=30
note_on channel=0 note=64 velocity=53 time=0
note_on channel=0 note=64 velocity=0 time=30
note_on channel=0 note=65 velocity=53 time=0
note_on channel=0 note=63 velocity=0 time=18
note_on channel=0 note=56 velocity=0 time=0
note_on channel=0 note=65 velocity=0 time=0
note_on channel=0 note=65 velocity=0 time=0
note_on channel=0 note=68 velocity=58 time=0
note_on channel=0 note=56 velocity=25 time=0
note_on channel=0 note=63 velocity=30 time=0
note_on channel=0 note=68 velocity=0 time=0
note_on channel=0 note=72 velocity=51 time=0
note_on channel=0 note=63 velocity=0 time=48
note_on channel=0 note=56 velocity=0 time=0
note_on channel=0 note=72 velocity=0 time=0
note_on channel=0 note=71 velocity=45 time=0
note_on channel=0 note=71 velocity=0 time=0
note_on channel=0 note=72 velocity=45 time=0
note_on channel=0 note=72 velocity=0 time=0
note_on channel=0 note=74 velocity=45 time=0
note_on channel=0 note=74 velocity=0 time=0
note_on channel=0 note=72 velocity=49 time=0
note_on channel=0 note=72 velocity=0 time=10
note_on channel=0 note=70 velocity=45 time=0
note_on channel=0 note=70 velocity=0 time=0
note_on channel=0 note=79 velocity=52 time=0
note_on channel=0 note=58 velocity=25 time=0
note_on channel=0 note=63 velocity=25 time=0
note_on channel=0 note=67 velocity=30 time=0
note_on channel=0 note=67 velocity=0 time=108
note_on channel=0 note=63 velocity=0 time=0
note_on channel=0 note=58 velocity=0 time=0
note_on channel=0 note=58 velocity=25 time=0
note_on channel=0 note=63 velocity=25 time=0
note_on channel=0 note=67 velocity=30 time=0
note_on channel=0 note=67 velocity=0 time=108
note_on channel=0 note=63 velocity=0 time=0
note_on channel=0 note=58 velocity=0 time=0
note_on channel=0 note=79 velocity=0 time=12
note_on channel=0 note=77 velocity=50 time=0
note_on channel=0 note=58 velocity=25 time=0
note_on channel=0 note=63 velocity=25 time=0
note_on channel=0 note=67 velocity=30 time=0
note_on channel=0 note=77 velocity=0 time=60
note_on channel=0 note=75 velocity=49 time=0
note_on channel=0 note=58 velocity=0 time=48
note_on channel=0 note=67 velocity=0 time=0
note_on channel=0 note=63 velocity=0 time=0
note_on channel=0 note=75 velocity=0 time=12
note_on channel=0 note=74 velocity=47 time=0
note_on channel=0 note=74 velocity=0 time=60
note_on channel=0 note=72 velocity=46 time=0
note_on channel=0 note=72 velocity=0 time=60
note_on channel=0 note=70 velocity=44 time=0
note_on channel=0 note=46 velocity=25 time=0
note_on channel=0 note=50 velocity=25 time=0
note_on channel=0 note=56 velocity=30 time=0
note_on channel=0 note=70 velocity=0 time=60
note_on channel=0 note=69 velocity=43 time=0
note_on channel=0 note=46 velocity=0 time=48
note_on channel=0 note=56 velocity=0 time=0
note_on channel=0 note=50 velocity=0 time=0
note_on channel=0 note=69 velocity=0 time=12
note_on channel=0 note=72 velocity=47 time=0
note_on channel=0 note=46 velocity=25 time=0
note_on channel=0 note=50 velocity=25 time=0
note_on channel=0 note=56 velocity=30 time=0
note_on channel=0 note=72 velocity=0 time=60
note_on channel=0 note=70 velocity=46 time=0
note_on channel=0 note=46 velocity=0 time=48
note_on channel=0 note=56 velocity=0 time=0
note_on channel=0 note=50 velocity=0 time=0
note_on channel=0 note=70 velocity=0 time=0
note_on channel=0 note=68 velocity=45 time=0
note_on channel=0 note=46 velocity=25 time=0
note_on channel=0 note=50 velocity=25 time=0
note_on channel=0 note=56 velocity=30 time=0
note_on channel=0 note=68 velocity=0 time=60
note_on channel=0 note=65 velocity=43 time=0
note_on channel=0 note=46 velocity=0 time=48
note_on channel=0 note=56 velocity=0 time=0
note_on channel=0 note=50 velocity=0 time=0
note_on channel=0 note=65 velocity=0 time=0
note_on channel=0 note=63 velocity=49 time=0
note_on channel=0 note=51 velocity=25 time=0
note_on channel=0 note=55 velocity=33 time=0
note_on channel=0 note=55 velocity=0 time=240
note_on channel=0 note=51 velocity=0 time=0
note_on channel=0 note=63 velocity=0 time=0
note_on channel=0 note=58 velocity=44 time=120
note_on channel=0 note=58 velocity=0 time=0
note_on channel=0 note=55 velocity=49 time=0
note_on channel=0 note=55 velocity=0 time=120
note_on channel=0 note=58 velocity=45 time=0
note_on channel=0 note=58 velocity=0 time=120
note_on channel=0 note=55 velocity=49 time=0
note_on channel=0 note=55 velocity=0 time=0
note_on channel=0 note=51 velocity=45 time=0
note_on channel=0 note=51 velocity=0 time=0
note_on channel=0 note=53 velocity=38 time=0
note_on channel=0 note=56 velocity=45 time=0
note_on channel=0 note=51 velocity=49 time=0
note_on channel=0 note=34 velocity=33 time=0
note_on channel=0 note=51 velocity=0 time=120
note_on channel=0 note=50 velocity=44 time=0
note_on channel=0 note=50 velocity=0 time=90
note_on channel=0 note=53 velocity=0 time=25
note_on channel=0 note=56 velocity=0 time=0
note_on channel=0 note=53 velocity=39 time=5
note_on channel=0 note=56 velocity=47 time=0
note_on channel=0 note=50 velocity=49 time=0
note_on channel=0 note=50 velocity=0 time=0
note_on channel=0 note=48 velocity=45 time=0
note_on channel=0 note=48 velocity=0 time=90
note_on channel=0 note=56 velocity=0 time=25
note_on channel=0 note=53 velocity=0 time=0
note_on channel=0 note=53 velocity=42 time=0
note_on channel=0 note=56 velocity=50 time=0
note_on channel=0 note=48 velocity=53 time=0
note_on channel=0 note=48 velocity=0 time=120
note_on channel=0 note=47 velocity=47 time=0
note_on channel=0 note=47 velocity=0 time=90
note_on channel=0 note=56 velocity=0 time=25
note_on channel=0 note=53 velocity=0 time=0
note_on channel=0 note=50 velocity=36 time=5
note_on channel=0 note=53 velocity=41 time=0
note_on channel=0 note=56 velocity=49 time=0
note_on channel=0 note=47 velocity=53 time=0
note_on channel=0 note=47 velocity=0 time=0
note_on channel=0 note=46 velocity=49 time=0
note_on channel=0 note=53 velocity=0 time=115
note_on channel=0 note=56 velocity=0 time=0
note_on channel=0 note=50 velocity=0 time=0
note_on channel=0 note=34 velocity=0 time=0
note_on channel=0 note=46 velocity=0 time=0
note_on channel=0 note=46 velocity=36 time=0
note_on channel=0 note=51 velocity=41 time=0
note_on channel=0 note=55 velocity=49 time=0
note_on channel=0 note=39 velocity=36 time=0
note_on channel=0 note=39 velocity=0 time=240
note_on channel=0 note=46 velocity=0 time=0
note_on channel=0 note=51 velocity=0 time=0
note_on channel=0 note=55 velocity=0 time=0
note_on channel=0 note=46 velocity=44 time=120
note_on channel=0 note=46 velocity=0 time=0
note_on channel=0 note=43 velocity=49 time=0
note_on channel=0 note=43 velocity=0 time=120
note_on channel=0 note=46 velocity=45 time=0
note_on channel=0 note=46 velocity=0 time=120
note_on channel=0 note=58 velocity=49 time=0
note_on channel=0 note=43 velocity=41 time=0
note_on channel=0 note=43 velocity=0 time=0
note_on channel=0 note=39 velocity=38 time=0
note_on channel=0 note=58 velocity=0 time=60
note_on channel=0 note=63 velocity=49 time=0
note_on channel=0 note=63 velocity=0 time=0
note_on channel=0 note=39 velocity=0 time=0
note_on channel=0 note=63 velocity=49 time=0
note_on channel=0 note=53 velocity=38 time=0
note_on channel=0 note=34 velocity=33 time=0
note_on channel=0 note=56 velocity=45 time=0
note_on channel=0 note=63 velocity=0 time=120
note_on channel=0 note=62 velocity=44 time=0
note_on channel=0 note=62 velocity=0 time=115
note_on channel=0 note=62 velocity=49 time=5
note_on channel=0 note=62 velocity=0 time=0
note_on channel=0 note=60 velocity=45 time=0
note_on channel=0 note=60 velocity=0 time=115
note_on channel=0 note=56 velocity=0 time=0
note_on channel=0 note=34 velocity=0 time=0
note_on channel=0 note=53 velocity=0 time=0
note_on channel=0 note=60 velocity=53 time=0
note_on channel=0 note=46 velocity=33 time=0
note_on channel=0 note=53 velocity=42 time=0
note_on channel=0 note=56 velocity=50 time=0
note_on channel=0 note=60 velocity=0 time=120
note_on channel=0 note=59 velocity=47 time=0
note_on channel=0 note=59 velocity=0 time=115
note_on channel=0 note=59 velocity=53 time=5
note_on channel=0 note=59 velocity=0 time=0
note_on channel=0 note=58 velocity=49 time=0
note_on channel=0 note=58 velocity=0 time=115
note_on channel=0 note=56 velocity=0 time=0
note_on channel=0 note=53 velocity=0 time=0
note_on channel=0 note=46 velocity=0 time=0
note_on channel=0 note=55 velocity=50 time=0
note_on channel=0 note=58 velocity=50 time=0
note_on channel=0 note=39 velocity=51 time=0
note_on channel=0 note=53 velocity=51 time=0
note_on channel=0 note=53 velocity=0 time=120
note_on channel=0 note=52 velocity=48 time=0
note_on channel=0 note=52 velocity=0 time=90
note_on channel=0 note=52 velocity=53 time=30
note_on channel=0 note=52 velocity=0 time=120
note_on channel=0 note=51 velocity=48 time=0
note_on channel=0 note=51 velocity=0 time=90
note_on channel=0 note=51 velocity=53 time=30
note_on channel=0 note=51 velocity=0 time=120
note_on channel=0 note=50 velocity=49 time=0
note_on channel=0 note=50 velocity=0 time=90
note_on channel=0 note=50 velocity=55 time=30
note_on channel=0 note=50 velocity=0 time=0
note_on channel=0 note=51 velocity=50 time=0
note_on channel=0 note=51 velocity=0 time=90
note_on channel=0 note=51 velocity=55 time=0
note_on channel=0 note=51 velocity=0 time=120
note_on channel=0 note=52 velocity=40 time=0
note_on channel=0 note=52 velocity=0 time=90
note_on channel=0 note=52 velocity=44 time=30
note_on channel=0 note=52 velocity=0 time=0
note_on channel=0 note=51 velocity=37 time=0
note_on channel=0 note=51 velocity=0 time=90
note_on channel=0 note=51 velocity=44 time=0
note_on channel=0 note=51 velocity=0 time=0
note_on channel=0 note=50 velocity=31 time=0
note_on channel=0 note=50 velocity=0 time=10
note_on channel=0 note=50 velocity=37 time=0
note_on channel=0 note=50 velocity=0 time=0
note_on channel=0 note=49 velocity=29 time=0
note_on channel=0 note=49 velocity=0 time=0
note_on channel=0 note=39 velocity=0 time=0
note_on channel=0 note=58 velocity=0 time=0
note_on channel=0 note=55 velocity=0 time=0
note_on channel=0 note=60 velocity=47 time=0
note_on channel=0 note=32 velocity=33 time=0
note_on channel=0 note=44 velocity=37 time=0
note_on channel=0 note=56 velocity=28 time=0
note_on channel=0 note=56 velocity=0 time=56
note_on channel=0 note=51 velocity=24 time=0
note_on channel=0 note=51 velocity=0 time=120
note_on channel=0 note=56 velocity=26 time=0
note_on channel=0 note=56 velocity=0 time=0
note_on channel=0 note=51 velocity=23 time=0
note_on channel=0 note=51 velocity=0 time=0
note_on channel=0 note=44 velocity=0 time=0
note_on channel=0 note=32 velocity=0 time=0
note_on channel=0 note=60 velocity=0 time=0
note_on channel=0 note=58 velocity=46 time=0
note_on channel=0 note=49 velocity=35 time=0
note_on channel=0 note=55 velocity=28 time=0
note_on channel=0 note=55 velocity=0 time=0
note_on channel=0 note=51 velocity=24 time=0
note_on channel=0 note=51 velocity=0 time=0
note_on channel=0 note=55 velocity=26 time=0
note_on channel=0 note=55 velocity=0 time=0
note_on channel=0 note=51 velocity=24 time=0
note_on channel=0 note=51 velocity=0 time=0
note_on channel=0 note=49 velocity=0 time=0
note_on channel=0 note=58 velocity=0 time=0
note_on channel=0 note=63 velocity=50 time=0
note_on channel=0 note=48 velocity=40 time=0
note_on channel=0 note=56 velocity=28 time=0
note_on channel=0 note=56 velocity=0 time=0
note_on channel=0 note=51 velocity=25 time=0
note_on channel=0 note=51 velocity=0 time=0
note_on channel=0 note=56 velocity=25 time=0
note_on channel=0 note=56 velocity=0 time=120
note_on channel=0 note=51 velocity=25 time=0
note_on channel=0 note=51 velocity=0 time=0
note_on channel=0 note=48 velocity=0 time=0
note_on channel=0 note=43 velocity=37 time=0
note_on channel=0 note=58 velocity=28 time=0
note_on channel=0 note=58 velocity=0 time=28
note_on channel=0 note=51 velocity=25 time=0
note_on channel=0 note=51 velocity=0 time=120
note_on channel=0 note=63 velocity=0 time=0
note_on channel=0 note=61 velocity=48 time=0
note_on channel=0 note=58 velocity=25 time=0
note_on channel=0 note=58 velocity=0 time=0
note_on channel=0 note=51 velocity=25 time=0
note_on channel=0 note=51 velocity=0 time=0
note_on channel=0 note=61 velocity=0 time=0
note_on channel=0 note=43 velocity=0 time=0
note_on channel=0 note=60 velocity=47 time=0
note_on channel=0 note=44 velocity=33 time=0
note_on channel=0 note=56 velocity=29 time=0
note_on channel=0 note=56 velocity=0 time=0
note_on channel=0 note=51 velocity=25 time=0
note_on channel=0 note=51 velocity=0 time=0
note_on channel=0 note=44 velocity=0 time=0
note_on channel=0 note=60 velocity=0 time=0
note_on channel=0 note=63 velocity=49 time=0
note_on channel=0 note=43 velocity=36 time=0
note_on channel=0 note=58 velocity=27 time=0
note_on channel=0 note=58 velocity=0 time=57
note_on channel=0 note=51 velocity=24 time=0
note_on channel=0 note=51 velocity=0 time=0
note_on channel=0 note=43 velocity=0 time=0
note_on channel=0 note=63 velocity=0 time=0
note_on channel=0 note=68 velocity=51 time=0
note_on channel=0 note=41 velocity=40 time=0
note_on channel=0 note=60 velocity=33 time=0
note_on channel=0 note=60 velocity=0 time=0
note_on channel=0 note=56 velocity=28 time=0
note_on channel=0 note=56 velocity=0 time=0
note_on channel=0 note=41 velocity=0 time=0
note_on channel=0 note=68 velocity=0 time=0
note_on channel=0 note=70 velocity=56 time=0
note_on channel=0 note=53 velocity=44 time=0
note_on channel=0 note=62 velocity=31 time=0
note_on channel=0 note=62 velocity=0 time=0
note_on channel=0 note=56 velocity=26 time=0
note_on channel=0 note=56 velocity=0 time=0
note_on channel=0 note=53 velocity=0 time=0
note_on channel=0 note=70 velocity=0 time=0
note_on channel=0 note=63 velocity=50 time=0
note_on channel=0 note=51 velocity=36 time=0
note_on channel=0 note=55 velocity=28 time=0
note_on channel=0 note=55 velocity=0 time=0
note_on channel=0 note=58 velocity=23 time=0
note_on channel=0 note=58 velocity=0 time=0
note_on channel=0 note=55 velocity=23 time=0
note_on channel=0 note=55 velocity=0 time=120
note_on channel=0 note=58 velocity=23 time=0
note_on channel=0 note=58 velocity=0 time=0
note_on channel=0 note=51 velocity=0 time=0
note_on channel=0 note=39 velocity=35 time=0
note_on channel=0 note=55 velocity=28 time=0
note_on channel=0 note=55 velocity=0 time=0
note_on channel=0 note=58 velocity=23 time=0
note_on channel=0 note=58 velocity=0 time=0
note_on channel=0 note=63 velocity=0 time=0
note_on channel=0 note=64 velocity=46 time=0
note_on channel=0 note=55 velocity=25 time=0
note_on channel=0 note=55 velocity=0 time=0
note_on channel=0 note=58 velocity=24 time=0
note_on channel=0 note=58 velocity=0 time=0
note_on channel=0 note=64 velocity=0 time=0
note_on channel=0 note=39 velocity=0 time=0
note_on channel=0 note=65 velocity=50 time=0
note_on channel=0 note=37 velocity=40 time=0
note_on channel=0 note=55 velocity=28 time=0
note_on channel=0 note=55 velocity=0 time=0
note_on channel=0 note=58 velocity=24 time=0
note_on channel=0 note=58 velocity=0 time=0
note_on channel=0 note=55 velocity=26 time=0
note_on channel=0 note=55 velocity=0 time=0
note_on channel=0 note=58 velocity=23 time=0
note_on channel=0 note=58 velocity=0 time=118
note_on channel=0 note=37 velocity=0 time=0
note_on channel=0 note=65 velocity=0 time=0
note_on channel=0 note=58 velocity=50 time=0
note_on channel=0 note=49 velocity=36 time=0
note_on channel=0 note=55 velocity=28 time=0
note_on channel=0 note=55 velocity=0 time=0
note_on channel=0 note=51 velocity=24 time=0
note_on channel=0 note=51 velocity=0 time=0
note_on channel=0 note=55 velocity=24 time=0
note_on channel=0 note=55 velocity=0 time=0
note_on channel=0 note=58 velocity=0 time=0
note_on channel=0 note=60 velocity=46 time=0
note_on channel=0 note=51 velocity=24 time=0
note_on channel=0 note=60 velocity=0 time=60
note_on channel=0 note=61 velocity=46 time=0
note_on channel=0 note=61 velocity=0 time=0
note_on channel=0 note=51 velocity=0 time=0
note_on channel=0 note=49 velocity=0 time=0
note_on channel=0 note=63 velocity=50 time=0
note_on channel=0 note=48 velocity=40 time=0
note_on channel=0 note=56 velocity=28 time=0
note_on channel=0 note=56 velocity=0 time=0
note_on channel=0 note=51 velocity=27 time=0
note_on channel=0 note=51 velocity=0 time=0
note_on channel=0 note=56 velocity=27 time=0
note_on channel=0 note=56 velocity=0 time=0
note_on channel=0 note=51 velocity=25 time=0
note_on channel=0 note=51 velocity=0 time=0
note_on channel=0 note=48 velocity=0 time=0
note_on channel=0 note=63 velocity=0 time=0
note_on channel=0 note=57 velocity=48 time=0
note_on channel=0 note=41 velocity=36 time=0
note_on channel=0 note=51 velocity=28 time=0
note_on channel=0 note=51 velocity=0 time=0
note_on channel=0 note=48 velocity=24 time=0
note_on channel=0 note=48 velocity=0 time=0
note_on channel=0 note=51 velocity=26 time=0
note_on channel=0 note=51 velocity=0 time=0
note_on channel=0 note=48 velocity=24 time=0
note_on channel=0 note=48 velocity=0 time=0
note_on channel=0 note=41 velocity=0 time=0
note_on channel=0 note=57 velocity=0 time=0
note_on channel=0 note=61 velocity=50 time=0
note_on channel=0 note=34 velocity=40 time=0
note_on channel=0 note=53 velocity=29 time=0
note_on channel=0 note=53 velocity=0 time=0
note_on channel=0 note=49 velocity=25 time=0
note_on channel=0 note=49 velocity=0 time=0
note_on channel=0 note=53 velocity=27 time=0
note_on channel=0 note=53 velocity=0 time=0
note_on channel=0 note=49 velocity=24 time=0
note_on channel=0 note=49 velocity=0 time=90
note_on channel=0 note=34 velocity=0 time=0
note_on channel=0 note=61 velocity=0 time=0
note_on channel=0 note=60 velocity=48 time=0
note_on channel=0 note=39 velocity=34 time=0
note_on channel=0 note=49 velocity=30 time=0
note_on channel=0 note=49 velocity=0 time=12
note_on channel=0 note=60 velocity=0 time=0
note_on channel=0 note=58 velocity=48 time=0
note_on channel=0 note=49 velocity=26 time=0
note_on channel=0 note=49 velocity=0 time=90
note_on channel=0 note=58 velocity=0 time=0
note_on channel=0 note=56 velocity=48 time=0
note_on channel=0 note=49 velocity=28 time=0
note_on channel=0 note=49 velocity=0 time=90
note_on channel=0 note=56 velocity=0 time=0
note_on channel=0 note=55 velocity=48 time=0
note_on channel=0 note=49 velocity=26 time=0
note_on channel=0 note=49 velocity=0 time=90
note_on channel=0 note=55 velocity=0 time=0
note_on channel=0 note=39 velocity=0 time=0
note_on channel=0 note=55 velocity=40 time=0
note_on channel=0 note=58 velocity=50 time=0
note_on channel=0 note=32 velocity=37 time=0
note_on channel=0 note=49 velocity=31 time=0
note_on channel=0 note=49 velocity=0 time=0
note_on channel=0 note=51 velocity=26 time=0
note_on channel=0 note=51 velocity=0 time=0
note_on channel=0 note=32 velocity=0 time=0
note_on channel=0 note=44 velocity=29 time=0
note_on channel=0 note=49 velocity=28 time=0
note_on channel=0 note=49 velocity=0 time=0
note_on channel=0 note=51 velocity=24 time=0
note_on channel=0 note=51 velocity=0 time=120
note_on channel=0 note=44 velocity=0 time=0
note_on channel=0 note=58 velocity=0 time=0
note_on channel=0 note=55 velocity=0 time=0
note_on channel=0 note=56 velocity=50 time=0
note_on channel=0 note=32 velocity=36 time=0
note_on channel=0 note=32 velocity=0 time=0
note_on channel=0 note=56 velocity=0 time=0
note_on channel=0 note=63 velocity=47 time=0
note_on channel=0 note=63 velocity=0 time=0
note_on channel=0 note=68 velocity=50 time=0
note_on channel=0 note=59 velocity=24 time=0
note_on channel=0 note=63 velocity=29 time=0
note_on channel=0 note=44 velocity=33 time=0
note_on channel=0 note=56 velocity=33 time=0
note_on channel=0 note=63 velocity=0 time=60
note_on channel=0 note=59 velocity=0 time=0
note_on channel=0 note=59 velocity=24 time=20
note_on channel=0 note=63 velocity=29 time=0
note_on channel=0 note=63 velocity=0 time=60
note_on channel=0 note=59 velocity=0 time=0
note_on channel=0 note=59 velocity=24 time=20
note_on channel=0 note=63 velocity=29 time=0
note_on channel=0 note=63 velocity=0 time=60
note_on channel=0 note=59 velocity=0 time=0
note_on channel=0 note=68 velocity=0 time=20
note_on channel=0 note=71 velocity=47 time=0
note_on channel=0 note=59 velocity=24 time=0
note_on channel=0 note=63 velocity=29 time=0
note_on channel=0 note=63 velocity=0 time=60
note_on channel=0 note=59 velocity=0 time=0
note_on channel=0 note=59 velocity=25 time=20
note_on channel=0 note=63 velocity=30 time=0
note_on channel=0 note=63 velocity=0 time=60
note_on channel=0 note=59 velocity=0 time=0
note_on channel=0 note=59 velocity=25 time=20
note_on channel=0 note=63 velocity=30 time=0
note_on channel=0 note=63 velocity=0 time=60
note_on channel=0 note=59 velocity=0 time=0
note_on channel=0 note=44 velocity=0 time=0
note_on channel=0 note=56 velocity=0 time=0
note_on channel=0 note=71 velocity=0 time=0
note_on channel=0 note=70 velocity=47 time=0
note_on channel=0 note=59 velocity=25 time=0
note_on channel=0 note=63 velocity=30 time=0
note_on channel=0 note=63 velocity=0 time=60
note_on channel=0 note=59 velocity=0 time=0
note_on channel=0 note=59 velocity=25 time=20
note_on channel=0 note=63 velocity=30 time=0
note_on channel=0 note=63 velocity=0 time=60
note_on channel=0 note=59 velocity=0 time=0
note_on channel=0 note=59 velocity=25 time=20
note_on channel=0 note=63 velocity=30 time=0
note_on channel=0 note=63 velocity=0 time=60
note_on channel=0 note=59 velocity=0 time=0
note_on channel=0 note=70 velocity=0 time=0
note_on channel=0 note=68 velocity=46 time=0
note_on channel=0 note=59 velocity=25 time=0
note_on channel=0 note=63 velocity=30 time=0
note_on channel=0 note=63 velocity=0 time=60
note_on channel=0 note=59 velocity=0 time=0
note_on channel=0 note=59 velocity=25 time=20
note_on channel=0 note=63 velocity=30 time=0
note_on channel=0 note=63 velocity=0 time=60
note_on channel=0 note=59 velocity=0 time=0
note_on channel=0 note=59 velocity=25 time=20
note_on channel=0 note=63 velocity=30 time=0
note_on channel=0 note=63 velocity=0 time=60
note_on channel=0 note=59 velocity=0 time=0
note_on channel=0 note=68 velocity=0 time=20
note_on channel=0 note=67 velocity=51 time=0
note_on channel=0 note=61 velocity=25 time=0
note_on channel=0 note=63 velocity=30 time=0
note_on channel=0 note=58 velocity=36 time=0
note_on channel=0 note=63 velocity=0 time=60
note_on channel=0 note=61 velocity=0 time=0
note_on channel=0 note=61 velocity=25 time=20
note_on channel=0 note=63 velocity=30 time=0
note_on channel=0 note=63 velocity=0 time=60
note_on channel=0 note=61 velocity=0 time=0
note_on channel=0 note=61 velocity=25 time=20
note_on channel=0 note=63 velocity=30 time=0
note_on channel=0 note=63 velocity=0 time=60
note_on channel=0 note=61 velocity=0 time=0
note_on channel=0 note=67 velocity=0 time=0
note_on channel=0 note=73 velocity=47 time=0
note_on channel=0 note=61 velocity=25 time=0
note_on channel=0 note=63 velocity=30 time=0
note_on channel=0 note=63 velocity=0 time=60
note_on channel=0 note=61 velocity=0 time=0
note_on channel=0 note=58 velocity=0 time=20
note_on channel=0 note=61 velocity=25 time=0
note_on channel=0 note=63 velocity=30 time=0
note_on channel=0 note=58 velocity=36 time=0
note_on channel=0 note=63 velocity=0 time=60
note_on channel=0 note=61 velocity=0 time=0
note_on channel=0 note=58 velocity=0 time=20
note_on channel=0 note=61 velocity=25 time=0
note_on channel=0 note=63 velocity=30 time=0
note_on channel=0 note=57 velocity=36 time=0
note_on channel=0 note=63 velocity=0 time=60
note_on channel=0 note=61 velocity=0 time=0
note_on channel=0 note=73 velocity=0 time=0
note_on channel=0 note=57 velocity=0 time=0
note_on channel=0 note=61 velocity=25 time=0
note_on channel=0 note=63 velocity=30 time=0
note_on channel=0 note=58 velocity=36 time=0
note_on channel=0 note=58 velocity=0 time=0
note_on channel=0 note=63 velocity=0 time=0
note_on channel=0 note=61 velocity=0 time=0
note_on channel=0 note=61 velocity=25 time=20
note_on channel=0 note=63 velocity=30 time=0
note_on channel=0 note=58 velocity=36 time=0
note_on channel=0 note=58 velocity=0 time=60
note_on channel=0 note=63 velocity=0 time=0
note_on channel=0 note=61 velocity=0 time=0
note_on channel=0 note=61 velocity=25 time=20
note_on channel=0 note=63 velocity=30 time=0
note_on channel=0 note=56 velocity=33 time=0
note_on channel=0 note=56 velocity=0 time=60
note_on channel=0 note=63 velocity=0 time=0
note_on channel=0 note=61 velocity=0 time=0
note_on channel=0 note=61 velocity=25 time=20
note_on channel=0 note=63 velocity=30 time=0
note_on channel=0 note=55 velocity=36 time=0
note_on channel=0 note=55 velocity=0 time=60
note_on channel=0 note=63 velocity=0 time=0
note_on channel=0 note=61 velocity=0 time=0
note_on channel=0 note=61 velocity=25 time=20
note_on channel=0 note=63 velocity=30 time=0
note_on channel=0 note=53 velocity=32 time=0
note_on channel=0 note=53 velocity=0 time=60
note_on channel=0 note=63 velocity=0 time=0
note_on channel=0 note=61 velocity=0 time=0
note_on channel=0 note=61 velocity=25 time=20
note_on channel=0 note=63 velocity=30 time=0
note_on channel=0 note=51 velocity=32 time=0
note_on channel=0 note=51 velocity=0 time=60
note_on channel=0 note=63 velocity=0 time=0
note_on channel=0 note=61 velocity=0 time=0
note_on channel=0 note=68 velocity=50 time=0
note_on channel=0 note=59 velocity=24 time=0
note_on channel=0 note=63 velocity=29 time=0
note_on channel=0 note=44 velocity=33 time=0
note_on channel=0 note=56 velocity=33 time=0
note_on channel=0 note=63 velocity=0 time=60
note_on channel=0 note=59 velocity=0 time=0
note_on channel=0 note=59 velocity=24 time=20
note_on channel=0 note=63 velocity=29 time=0
note_on channel=0 note=63 velocity=0 time=60
note_on channel=0 note=59 velocity=0 time=0
note_on channel=0 note=59 velocity=24 time=20
note_on channel=0 note=63 velocity=29 time=0
note_on channel=0 note=63 velocity=0 time=60
note_on channel=0 note=59 velocity=0 time=0
note_on channel=0 note=68 velocity=0 time=20
note_on channel=0 note=71 velocity=47 time=0
note_on channel=0 note=59 velocity=24 time=0
note_on channel=0 note=63 velocity=29 time=0
note_on channel=0 note=63 velocity=0 time=60
note_on channel=0 note=59 velocity=0 time=0
note_on channel=0 note=59 velocity=25 time=20
note_on channel=0 note=63 velocity=30 time=0
note_on channel=0 note=63 velocity=0 time=60
note_on channel=0 note=59 velocity=0 time=0
note_on channel=0 note=59 velocity=25 time=20
note_on channel=0 note=63 velocity=30 time=0
note_on channel=0 note=63 velocity=0 time=60
note_on channel=0 note=59 velocity=0 time=0
note_on channel=0 note=44 velocity=0 time=20
note_on channel=0 note=56 velocity=0 time=0
note_on channel=0 note=71 velocity=0 time=0
note_on channel=0 note=70 velocity=47 time=0
note_on channel=0 note=59 velocity=25 time=0
note_on channel=0 note=63 velocity=30 time=0
note_on channel=0 note=63 velocity=0 time=60
note_on channel=0 note=59 velocity=0 time=0
note_on channel=0 note=59 velocity=25 time=20
note_on channel=0 note=63 velocity=30 time=0
note_on channel=0 note=63 velocity=0 time=60
note_on channel=0 note=59 velocity=0 time=0
note_on channel=0 note=59 velocity=25 time=20
note_on channel=0 note=63 velocity=30 time=0
note_on channel=0 note=63 velocity=0 time=60
note_on channel=0 note=59 velocity=0 time=0
note_on channel=0 note=70 velocity=0 time=20
note_on channel=0 note=68 velocity=46 time=0
note_on channel=0 note=59 velocity=25 time=0
note_on channel=0 note=63 velocity=30 time=0
note_on channel=0 note=63 velocity=0 time=60
note_on channel=0 note=59 velocity=0 time=0
note_on channel=0 note=59 velocity=25 time=20
note_on channel=0 note=63 velocity=30 time=0
note_on channel=0 note=63 velocity=0 time=60
note_on channel=0 note=59 velocity=0 time=0
note_on channel=0 note=59 velocity=25 time=20
note_on channel=0 note=63 velocity=30 time=0
note_on channel=0 note=63 velocity=0 time=60
note_on channel=0 note=59 velocity=0 time=0
note_on channel=0 note=68 velocity=0 time=20
note_on channel=0 note=68 velocity=51 time=0
note_on channel=0 note=58 velocity=25 time=0
note_on channel=0 note=63 velocity=30 time=0
note_on channel=0 note=51 velocity=36 time=0
note_on channel=0 note=63 velocity=0 time=60
note_on channel=0 note=58 velocity=0 time=0
note_on channel=0 note=58 velocity=25 time=20
note_on channel=0 note=63 velocity=30 time=0
note_on channel=0 note=63 velocity=0 time=60
note_on channel=0 note=58 velocity=0 time=0
note_on channel=0 note=58 velocity=25 time=20
note_on channel=0 note=63 velocity=30 time=0
note_on channel=0 note=63 velocity=0 time=60
note_on channel=0 note=58 velocity=0 time=0
note_on channel=0 note=68 velocity=0 time=0
note_on channel=0 note=67 velocity=47 time=0
note_on channel=0 note=58 velocity=25 time=0
note_on channel=0 note=63 velocity=30 time=0
note_on channel=0 note=63 velocity=0 time=60
note_on channel=0 note=58 velocity=0 time=0
note_on channel=0 note=51 velocity=0 time=20
note_on channel=0 note=58 velocity=25 time=0
note_on channel=0 note=63 velocity=30 time=0
note_on channel=0 note=51 velocity=36 time=0
note_on channel=0 note=63 velocity=0 time=60
note_on channel=0 note=58 velocity=0 time=0
note_on channel=0 note=51 velocity=0 time=20
note_on channel=0 note=58 velocity=25 time=0
note_on channel=0 note=63 velocity=30 time=0
note_on channel=0 note=50 velocity=36 time=0
note_on channel=0 note=63 velocity=0 time=60
note_on channel=0 note=58 velocity=0 time=0
note_on channel=0 note=67 velocity=0 time=0
note_on channel=0 note=50 velocity=0 time=0
note_on channel=0 note=55 velocity=25 time=0
note_on channel=0 note=58 velocity=25 time=0
note_on channel=0 note=63 velocity=30 time=0
note_on channel=0 note=51 velocity=36 time=0
note_on channel=0 note=51 velocity=0 time=0
note_on channel=0 note=55 velocity=0 time=0
note_on channel=0 note=58 velocity=0 time=0
note_on channel=0 note=63 velocity=0 time=0
note_on channel=0 note=55 velocity=25 time=20
note_on channel=0 note=58 velocity=25 time=0
note_on channel=0 note=63 velocity=30 time=0
note_on channel=0 note=52 velocity=36 time=0
note_on channel=0 note=52 velocity=0 time=60
note_on channel=0 note=55 velocity=0 time=0
note_on channel=0 note=58 velocity=0 time=0
note_on channel=0 note=63 velocity=0 time=0
note_on channel=0 note=55 velocity=25 time=20
note_on channel=0 note=58 velocity=25 time=0
note_on channel=0 note=63 velocity=30 time=0
note_on channel=0 note=51 velocity=33 time=0
note_on channel=0 note=51 velocity=0 time=60
note_on channel=0 note=55 velocity=0 time=0
note_on channel=0 note=58 velocity=0 time=0
note_on channel=0 note=63 velocity=0 time=0
note_on channel=0 note=55 velocity=25 time=20
note_on channel=0 note=58 velocity=25 time=0
note_on channel=0 note=63 velocity=30 time=0
note_on channel=0 note=49 velocity=36 time=0
note_on channel=0 note=49 velocity=0 time=60
note_on channel=0 note=55 velocity=0 time=0
note_on channel=0 note=58 velocity=0 time=0
note_on channel=0 note=63 velocity=0 time=0
note_on channel=0 note=55 velocity=25 time=20
note_on channel=0 note=58 velocity=25 time=0
note_on channel=0 note=63 velocity=30 time=0
note_on channel=0 note=47 velocity=32 time=0
note_on channel=0 note=47 velocity=0 time=60
note_on channel=0 note=55 velocity=0 time=0
note_on channel=0 note=58 velocity=0 time=0
note_on channel=0 note=63 velocity=0 time=0
note_on channel=0 note=55 velocity=25 time=20
note_on channel=0 note=58 velocity=25 time=0
note_on channel=0 note=63 velocity=30 time=0
note_on channel=0 note=46 velocity=32 time=0
note_on channel=0 note=46 velocity=0 time=60
note_on channel=0 note=55 velocity=0 time=0
note_on channel=0 note=58 velocity=0 time=0
note_on channel=0 note=63 velocity=0 time=0
note_on channel=0 note=68 velocity=55 time=0
note_on channel=0 note=59 velocity=26 time=0
note_on channel=0 note=63 velocity=31 time=0
note_on channel=0 note=44 velocity=36 time=0
note_on channel=0 note=56 velocity=36 time=0
note_on channel=0 note=63 velocity=0 time=60
note_on channel=0 note=59 velocity=0 time=0
note_on channel=0 note=59 velocity=26 time=20
note_on channel=0 note=63 velocity=32 time=0
note_on channel=0 note=63 velocity=0 time=60
note_on channel=0 note=59 velocity=0 time=0
note_on channel=0 note=59 velocity=27 time=20
note_on channel=0 note=63 velocity=32 time=0
note_on channel=0 note=63 velocity=0 time=60
note_on channel=0 note=59 velocity=0 time=0
note_on channel=0 note=68 velocity=0 time=20
note_on channel=0 note=71 velocity=56 time=0
note_on channel=0 note=59 velocity=28 time=0
note_on channel=0 note=63 velocity=34 time=0
note_on channel=0 note=63 velocity=0 time=60
note_on channel=0 note=59 velocity=0 time=0
note_on channel=0 note=59 velocity=30 time=20
note_on channel=0 note=63 velocity=36 time=0
note_on channel=0 note=63 velocity=0 time=60
note_on channel=0 note=59 velocity=0 time=0
note_on channel=0 note=59 velocity=31 time=20
note_on channel=0 note=63 velocity=37 time=0
note_on channel=0 note=63 velocity=0 time=60
note_on channel=0 note=59 velocity=0 time=0
note_on channel=0 note=44 velocity=0 time=20
note_on channel=0 note=56 velocity=0 time=0
note_on channel=0 note=71 velocity=0 time=0
note_on channel=0 note=70 velocity=61 time=0
note_on channel=0 note=59 velocity=33 time=0
note_on channel=0 note=63 velocity=39 time=0
note_on channel=0 note=63 velocity=0 time=60
note_on channel=0 note=59 velocity=0 time=0
note_on channel=0 note=59 velocity=33 time=20
note_on channel=0 note=63 velocity=39 time=0
note_on channel=0 note=63 velocity=0 time=60
note_on channel=0 note=59 velocity=0 time=0
note_on channel=0 note=59 velocity=33 time=20
note_on channel=0 note=63 velocity=40 time=0
note_on channel=0 note=63 velocity=0 time=60
note_on channel=0 note=59 velocity=0 time=0
note_on channel=0 note=70 velocity=0 time=20
note_on channel=0 note=68 velocity=65 time=0
note_on channel=0 note=59 velocity=35 time=0
note_on channel=0 note=63 velocity=42 time=0
note_on channel=0 note=63 velocity=0 time=60
note_on channel=0 note=59 velocity=0 time=0
note_on channel=0 note=59 velocity=35 time=20
note_on channel=0 note=63 velocity=42 time=0
note_on channel=0 note=63 velocity=0 time=60
note_on channel=0 note=59 velocity=0 time=0
note_on channel=0 note=59 velocity=37 time=20
note_on channel=0 note=63 velocity=44 time=0
note_on channel=0 note=63 velocity=0 time=60
note_on channel=0 note=59 velocity=0 time=0
note_on channel=0 note=68 velocity=0 time=0
note_on channel=0 note=66 velocity=73 time=0
note_on channel=0 note=78 velocity=86 time=0
note_on channel=0 note=45 velocity=45 time=0
note_on channel=0 note=47 velocity=50 time=0
note_on channel=0 note=51 velocity=54 time=0
note_on channel=0 note=54 velocity=64 time=0
note_on channel=0 note=54 velocity=0 time=60
note_on channel=0 note=47 velocity=0 time=0
note_on channel=0 note=45 velocity=0 time=0
note_on channel=0 note=51 velocity=0 time=0
note_on channel=0 note=45 velocity=42 time=20
note_on channel=0 note=47 velocity=50 time=0
note_on channel=0 note=51 velocity=50 time=0
note_on channel=0 note=54 velocity=60 time=0
note_on channel=0 note=54 velocity=0 time=60
note_on channel=0 note=47 velocity=0 time=0
note_on channel=0 note=45 velocity=0 time=0
note_on channel=0 note=51 velocity=0 time=0
note_on channel=0 note=45 velocity=42 time=20
note_on channel=0 note=47 velocity=50 time=0
note_on channel=0 note=51 velocity=50 time=0
note_on channel=0 note=54 velocity=60 time=0
note_on channel=0 note=54 velocity=0 time=60
note_on channel=0 note=47 velocity=0 time=0
note_on channel=0 note=45 velocity=0 time=0
note_on channel=0 note=51 velocity=0 time=0
note_on channel=0 note=66 velocity=0 time=0
note_on channel=0 note=45 velocity=42 time=0
note_on channel=0 note=47 velocity=50 time=0
note_on channel=0 note=51 velocity=50 time=0
note_on channel=0 note=54 velocity=60 time=0
note_on channel=0 note=54 velocity=0 time=60
note_on channel=0 note=47 velocity=0 time=0
note_on channel=0 note=51 velocity=0 time=0
note_on channel=0 note=45 velocity=0 time=0
note_on channel=0 note=78 velocity=0 time=20
note_on channel=0 note=75 velocity=85 time=0
note_on channel=0 note=45 velocity=42 time=0
note_on channel=0 note=47 velocity=50 time=0
note_on channel=0 note=51 velocity=50 time=0
note_on channel=0 note=54 velocity=60 time=0
note_on channel=0 note=54 velocity=0 time=60
note_on channel=0 note=47 velocity=0 time=0
note_on channel=0 note=51 velocity=0 time=0
note_on channel=0 note=45 velocity=0 time=0
note_on channel=0 note=75 velocity=0 time=20
note_on channel=0 note=71 velocity=85 time=0
note_on channel=0 note=45 velocity=42 time=0
note_on channel=0 note=47 velocity=50 time=0
note_on channel=0 note=51 velocity=50 time=0
note_on channel=0 note=54 velocity=60 time=0
note_on channel=0 note=54 velocity=0 time=60
note_on channel=0 note=47 velocity=0 time=0
note_on channel=0 note=51 velocity=0 time=0
note_on channel=0 note=45 velocity=0 time=0
note_on channel=0 note=71 velocity=0 time=0
note_on channel=0 note=71 velocity=81 time=0
note_on channel=0 note=83 velocity=96 time=0
note_on channel=0 note=44 velocity=46 time=0
note_on channel=0 note=47 velocity=55 time=0
note_on channel=0 note=52 velocity=55 time=0
note_on channel=0 note=56 velocity=66 time=0
note_on channel=0 note=56 velocity=0 time=60
note_on channel=0 note=47 velocity=0 time=0
note_on channel=0 note=44 velocity=0 time=0
note_on channel=0 note=52 velocity=0 time=0
note_on channel=0 note=44 velocity=42 time=20
note_on channel=0 note=47 velocity=50 time=0
note_on channel=0 note=52 velocity=50 time=0
note_on channel=0 note=56 velocity=60 time=0
note_on channel=0 note=56 velocity=0 time=60
note_on channel=0 note=47 velocity=0 time=0
note_on channel=0 note=44 velocity=0 time=0
note_on channel=0 note=52 velocity=0 time=0
note_on channel=0 note=44 velocity=42 time=20
note_on channel=0 note=47 velocity=50 time=0
note_on channel=0 note=52 velocity=50 time=0
note_on channel=0 note=56 velocity=60 time=0
note_on channel=0 note=56 velocity=0 time=60
note_on channel=0 note=47 velocity=0 time=0
note_on channel=0 note=44 velocity=0 time=0
note_on channel=0 note=52 velocity=0 time=0
note_on channel=0 note=71 velocity=0 time=0
note_on channel=0 note=44 velocity=42 time=0
note_on channel=0 note=47 velocity=50 time=0
note_on channel=0 note=52 velocity=50 time=0
note_on channel=0 note=56 velocity=60 time=0
note_on channel=0 note=56 velocity=0 time=60
note_on channel=0 note=47 velocity=0 time=0
note_on channel=0 note=52 velocity=0 time=0
note_on channel=0 note=44 velocity=0 time=0
note_on channel=0 note=83 velocity=0 time=20
note_on channel=0 note=80 velocity=93 time=0
note_on channel=0 note=44 velocity=42 time=0
note_on channel=0 note=47 velocity=49 time=0
note_on channel=0 note=52 velocity=49 time=0
note_on channel=0 note=56 velocity=58 time=0
note_on channel=0 note=56 velocity=0 time=60
note_on channel=0 note=47 velocity=0 time=0
note_on channel=0 note=52 velocity=0 time=0
note_on channel=0 note=44 velocity=0 time=0
note_on channel=0 note=80 velocity=0 time=20
note_on channel=0 note=76 velocity=93 time=0
note_on channel=0 note=44 velocity=42 time=0
note_on channel=0 note=47 velocity=49 time=0
note_on channel=0 note=52 velocity=49 time=0
note_on channel=0 note=56 velocity=58 time=0
note_on channel=0 note=56 velocity=0 time=60
note_on channel=0 note=47 velocity=0 time=0
note_on channel=0 note=52 velocity=0 time=0
note_on channel=0 note=44 velocity=0 time=0
note_on channel=0 note=76 velocity=0 time=0
note_on channel=0 note=76 velocity=88 time=0
note_on channel=0 note=88 velocity=104 time=0
note_on channel=0 note=49 velocity=46 time=0
note_on channel=0 note=52 velocity=55 time=0
note_on channel=0 note=54 velocity=55 time=0
note_on channel=0 note=58 velocity=66 time=0
note_on channel=0 note=58 velocity=0 time=60
note_on channel=0 note=52 velocity=0 time=0
note_on channel=0 note=49 velocity=0 time=0
note_on channel=0 note=54 velocity=0 time=0
note_on channel=0 note=49 velocity=40 time=20
note_on channel=0 note=52 velocity=48 time=0
note_on channel=0 note=54 velocity=48 time=0
note_on channel=0 note=58 velocity=57 time=0
note_on channel=0 note=58 velocity=0 time=60
note_on channel=0 note=52 velocity=0 time=0
note_on channel=0 note=49 velocity=0 time=0
note_on channel=0 note=54 velocity=0 time=0
note_on channel=0 note=49 velocity=40 time=20
note_on channel=0 note=52 velocity=48 time=0
note_on channel=0 note=54 velocity=48 time=0
note_on channel=0 note=58 velocity=57 time=0
note_on channel=0 note=58 velocity=0 time=60
note_on channel=0 note=52 velocity=0 time=0
note_on channel=0 note=49 velocity=0 time=0
note_on channel=0 note=54 velocity=0 time=0
note_on channel=0 note=76 velocity=0 time=0
note_on channel=0 note=49 velocity=40 time=0
note_on channel=0 note=52 velocity=48 time=0
note_on channel=0 note=54 velocity=48 time=0
note_on channel=0 note=58 velocity=57 time=0
note_on channel=0 note=58 velocity=0 time=60
note_on channel=0 note=52 velocity=0 time=0
note_on channel=0 note=54 velocity=0 time=0
note_on channel=0 note=49 velocity=0 time=0
note_on channel=0 note=88 velocity=0 time=20
note_on channel=0 note=85 velocity=92 time=0
note_on channel=0 note=49 velocity=40 time=0
note_on channel=0 note=52 velocity=48 time=0
note_on channel=0 note=54 velocity=48 time=0
note_on channel=0 note=58 velocity=57 time=0
note_on channel=0 note=58 velocity=0 time=60
note_on channel=0 note=52 velocity=0 time=0
note_on channel=0 note=54 velocity=0 time=0
note_on channel=0 note=49 velocity=0 time=0
note_on channel=0 note=85 velocity=0 time=20
note_on channel=0 note=82 velocity=92 time=0
note_on channel=0 note=49 velocity=40 time=0
note_on channel=0 note=52 velocity=48 time=0
note_on channel=0 note=54 velocity=48 time=0
note_on channel=0 note=58 velocity=57 time=0
note_on channel=0 note=58 velocity=0 time=60
note_on channel=0 note=52 velocity=0 time=0
note_on channel=0 note=54 velocity=0 time=0
note_on channel=0 note=49 velocity=0 time=0
note_on channel=0 note=82 velocity=0 time=20
note_on channel=0 note=71 velocity=81 time=0
note_on channel=0 note=83 velocity=96 time=0
note_on channel=0 note=47 velocity=51 time=0
note_on channel=0 note=52 velocity=61 time=0
note_on channel=0 note=56 velocity=61 time=0
note_on channel=0 note=59 velocity=73 time=0
note_on channel=0 note=59 velocity=0 time=60
note_on channel=0 note=52 velocity=0 time=0
note_on channel=0 note=47 velocity=0 time=0
note_on channel=0 note=56 velocity=0 time=0
note_on channel=0 note=47 velocity=46 time=20
note_on channel=0 note=52 velocity=55 time=0
note_on channel=0 note=56 velocity=55 time=0
note_on channel=0 note=59 velocity=66 time=0
note_on channel=0 note=71 velocity=0 time=40
note_on channel=0 note=83 velocity=0 time=0
note_on channel=0 note=56 velocity=0 time=20
note_on channel=0 note=52 velocity=0 time=0
note_on channel=0 note=59 velocity=0 time=0
note_on channel=0 note=47 velocity=0 time=0
note_on channel=0 note=47 velocity=46 time=20
note_on channel=0 note=52 velocity=55 time=0
note_on channel=0 note=56 velocity=55 time=0
note_on channel=0 note=59 velocity=66 time=0
note_on channel=0 note=59 velocity=0 time=60
note_on channel=0 note=47 velocity=0 time=0
note_on channel=0 note=52 velocity=0 time=0
note_on channel=0 note=56 velocity=0 time=0
note_on channel=0 note=54 velocity=73 time=20
note_on channel=0 note=57 velocity=73 time=0
note_on channel=0 note=59 velocity=86 time=0
note_on channel=0 note=63 velocity=86 time=0
note_on channel=0 note=35 velocity=55 time=0
note_on channel=0 note=47 velocity=66 time=0
note_on channel=0 note=47 velocity=0 time=60
note_on channel=0 note=35 velocity=0 time=0
note_on channel=0 note=35 velocity=55 time=20
note_on channel=0 note=47 velocity=66 time=0
note_on channel=0 note=59 velocity=0 time=40
note_on channel=0 note=63 velocity=0 time=0
note_on channel=0 note=54 velocity=0 time=0
note_on channel=0 note=57 velocity=0 time=0
note_on channel=0 note=47 velocity=0 time=20
note_on channel=0 note=35 velocity=0 time=0
note_on channel=0 note=35 velocity=55 time=20
note_on channel=0 note=47 velocity=66 time=0
note_on channel=0 note=47 velocity=0 time=60
note_on channel=0 note=35 velocity=0 time=0
note_on channel=0 note=64 velocity=86 time=0
note_on channel=0 note=56 velocity=58 time=0
note_on channel=0 note=59 velocity=58 time=0
note_on channel=0 note=40 velocity=55 time=0
note_on channel=0 note=52 velocity=55 time=0
note_on channel=0 note=59 velocity=0 time=60
note_on channel=0 note=56 velocity=0 time=0
note_on channel=0 note=56 velocity=35 time=0
note_on channel=0 note=59 velocity=35 time=0
note_on channel=0 note=64 velocity=0 time=0
note_on channel=0 note=56 velocity=0 time=20
note_on channel=0 note=59 velocity=0 time=0
note_on channel=0 note=56 velocity=35 time=20
note_on channel=0 note=59 velocity=35 time=0
note_on channel=0 note=59 velocity=0 time=20
note_on channel=0 note=56 velocity=0 time=0
note_on channel=0 note=52 velocity=0 time=0
note_on channel=0 note=40 velocity=0 time=0
note_on channel=0 note=56 velocity=35 time=0
note_on channel=0 note=59 velocity=35 time=0
note_on channel=0 note=59 velocity=0 time=20
note_on channel=0 note=56 velocity=0 time=0
note_on channel=0 note=56 velocity=35 time=0
note_on channel=0 note=59 velocity=35 time=0
note_on channel=0 note=59 velocity=0 time=20
note_on channel=0 note=56 velocity=0 time=0
note_on channel=0 note=56 velocity=35 time=0
note_on channel=0 note=59 velocity=35 time=0
note_on channel=0 note=59 velocity=0 time=60
note_on channel=0 note=56 velocity=0 time=0
note_on channel=0 note=56 velocity=33 time=0
note_on channel=0 note=59 velocity=33 time=0
note_on channel=0 note=59 velocity=0 time=60
note_on channel=0 note=56 velocity=0 time=0
note_on channel=0 note=56 velocity=33 time=20
note_on channel=0 note=59 velocity=33 time=0
note_on channel=0 note=59 velocity=0 time=60
note_on channel=0 note=56 velocity=0 time=0
note_on channel=0 note=56 velocity=32 time=0
note_on channel=0 note=59 velocity=32 time=0
note_on channel=0 note=59 velocity=0 time=20
note_on channel=0 note=56 velocity=0 time=0
note_on channel=0 note=56 velocity=31 time=0
note_on channel=0 note=59 velocity=31 time=0
note_on channel=0 note=59 velocity=0 time=60
note_on channel=0 note=56 velocity=0 time=0
note_on channel=0 note=56 velocity=30 time=0
note_on channel=0 note=59 velocity=30 time=0
note_on channel=0 note=59 velocity=0 time=20
note_on channel=0 note=56 velocity=0 time=0
note_on channel=0 note=56 velocity=29 time=20
note_on channel=0 note=59 velocity=29 time=0
note_on channel=0 note=59 velocity=0 time=60
note_on channel=0 note=56 velocity=0 time=0
note_on channel=0 note=64 velocity=50 time=0
note_on channel=0 note=56 velocity=24 time=0
note_on channel=0 note=59 velocity=29 time=0
note_on channel=0 note=40 velocity=33 time=0
note_on channel=0 note=52 velocity=33 time=0
note_on channel=0 note=59 velocity=0 time=60
note_on channel=0 note=56 velocity=0 time=0
note_on channel=0 note=56 velocity=24 time=20
note_on channel=0 note=59 velocity=29 time=0
note_on channel=0 note=59 velocity=0 time=60
note_on channel=0 note=56 velocity=0 time=0
note_on channel=0 note=56 velocity=24 time=20
note_on channel=0 note=59 velocity=29 time=0
note_on channel=0 note=59 velocity=0 time=60
note_on channel=0 note=56 velocity=0 time=0
note_on channel=0 note=64 velocity=0 time=20
note_on channel=0 note=68 velocity=47 time=0
note_on channel=0 note=56 velocity=24 time=0
note_on channel=0 note=59 velocity=29 time=0
note_on channel=0 note=59 velocity=0 time=60
note_on channel=0 note=56 velocity=0 time=0
note_on channel=0 note=56 velocity=25 time=20
note_on channel=0 note=59 velocity=30 time=0
note_on channel=0 note=59 velocity=0 time=60
note_on channel=0 note=56 velocity=0 time=0
note_on channel=0 note=56 velocity=25 time=20
note_on channel=0 note=59 velocity=30 time=0
note_on channel=0 note=59 velocity=0 time=60
note_on channel=0 note=56 velocity=0 time=0
note_on channel=0 note=40 velocity=0 time=0
note_on channel=0 note=52 velocity=0 time=0
note_on channel=0 note=68 velocity=0 time=0
note_on channel=0 note=66 velocity=47 time=0
note_on channel=0 note=56 velocity=25 time=0
note_on channel=0 note=59 velocity=30 time=0
note_on channel=0 note=59 velocity=0 time=60
note_on channel=0 note=56 velocity=0 time=0
note_on channel=0 note=56 velocity=25 time=20
note_on channel=0 note=59 velocity=30 time=0
note_on channel=0 note=59 velocity=0 time=60
note_on channel=0 note=56 velocity=0 time=0
note_on channel=0 note=56 velocity=25 time=20
note_on channel=0 note=59 velocity=30 time=0
note_on channel=0 note=59 velocity=0 time=60
note_on channel=0 note=56 velocity=0 time=0
note_on channel=0 note=66 velocity=0 time=20
note_on channel=0 note=64 velocity=46 time=0
note_on channel=0 note=56 velocity=25 time=0
note_on channel=0 note=59 velocity=30 time=0
note_on channel=0 note=59 velocity=0 time=60
note_on channel=0 note=56 velocity=0 time=0
note_on channel=0 note=56 velocity=25 time=20
note_on channel=0 note=59 velocity=30 time=0
note_on channel=0 note=59 velocity=0 time=60
note_on channel=0 note=56 velocity=0 time=0
note_on channel=0 note=56 velocity=25 time=20
note_on channel=0 note=59 velocity=30 time=0
note_on channel=0 note=59 velocity=0 time=60
note_on channel=0 note=56 velocity=0 time=0
note_on channel=0 note=64 velocity=0 time=20
note_on channel=0 note=63 velocity=51 time=0
note_on channel=0 note=57 velocity=25 time=0
note_on channel=0 note=59 velocity=30 time=0
note_on channel=0 note=54 velocity=36 time=0
note_on channel=0 note=59 velocity=0 time=60
note_on channel=0 note=57 velocity=0 time=0
note_on channel=0 note=57 velocity=25 time=20
note_on channel=0 note=59 velocity=30 time=0
note_on channel=0 note=59 velocity=0 time=60
note_on channel=0 note=57 velocity=0 time=0
note_on channel=0 note=57 velocity=25 time=20
note_on channel=0 note=59 velocity=30 time=0
note_on channel=0 note=59 velocity=0 time=60
note_on channel=0 note=57 velocity=0 time=0
note_on channel=0 note=63 velocity=0 time=0
note_on channel=0 note=69 velocity=47 time=0
note_on channel=0 note=57 velocity=25 time=0
note_on channel=0 note=59 velocity=30 time=0
note_on channel=0 note=59 velocity=0 time=60
note_on channel=0 note=57 velocity=0 time=0
note_on channel=0 note=54 velocity=0 time=20
note_on channel=0 note=57 velocity=25 time=0
note_on channel=0 note=59 velocity=30 time=0
note_on channel=0 note=54 velocity=36 time=0
note_on channel=0 note=59 velocity=0 time=60
note_on channel=0 note=57 velocity=0 time=0
note_on channel=0 note=54 velocity=0 time=20
note_on channel=0 note=57 velocity=25 time=0
note_on channel=0 note=59 velocity=30 time=0
note_on channel=0 note=53 velocity=36 time=0
note_on channel=0 note=59 velocity=0 time=60
note_on channel=0 note=57 velocity=0 time=0
note_on channel=0 note=69 velocity=0 time=0
note_on channel=0 note=53 velocity=0 time=0
note_on channel=0 note=57 velocity=25 time=0
note_on channel=0 note=59 velocity=30 time=0
note_on channel=0 note=54 velocity=36 time=0
note_on channel=0 note=54 velocity=0 time=0
note_on channel=0 note=59 velocity=0 time=0
note_on channel=0 note=57 velocity=0 time=0
note_on channel=0 note=57 velocity=25 time=20
note_on channel=0 note=59 velocity=30 time=0
note_on channel=0 note=54 velocity=36 time=0
note_on channel=0 note=54 velocity=0 time=60
note_on channel=0 note=59 velocity=0 time=0
note_on channel=0 note=57 velocity=0 time=0
note_on channel=0 note=57 velocity=25 time=20
note_on channel=0 note=59 velocity=30 time=0
note_on channel=0 note=52 velocity=33 time=0
note_on channel=0 note=52 velocity=0 time=60
note_on channel=0 note=59 velocity=0 time=0
note_on channel=0 note=57 velocity=0 time=0
note_on channel=0 note=57 velocity=25 time=20
note_on channel=0 note=59 velocity=30 time=0
note_on channel=0 note=51 velocity=36 time=0
note_on channel=0 note=51 velocity=0 time=60
note_on channel=0 note=59 velocity=0 time=0
note_on channel=0 note=57 velocity=0 time=0
note_on channel=0 note=57 velocity=25 time=20
note_on channel=0 note=59 velocity=30 time=0
note_on channel=0 note=49 velocity=32 time=0
note_on channel=0 note=49 velocity=0 time=60
note_on channel=0 note=59 velocity=0 time=0
note_on channel=0 note=57 velocity=0 time=0
note_on channel=0 note=57 velocity=25 time=20
note_on channel=0 note=59 velocity=30 time=0
note_on channel=0 note=47 velocity=32 time=0
note_on channel=0 note=47 velocity=0 time=60
note_on channel=0 note=59 velocity=0 time=0
note_on channel=0 note=57 velocity=0 time=0
note_on channel=0 note=64 velocity=50 time=0
note_on channel=0 note=56 velocity=24 time=0
note_on channel=0 note=59 velocity=29 time=0
note_on channel=0 note=52 velocity=33 time=0
note_on channel=0 note=59 velocity=0 time=60
note_on channel=0 note=56 velocity=0 time=0
note_on channel=0 note=56 velocity=24 time=20
note_on channel=0 note=59 velocity=29 time=0
note_on channel=0 note=59 velocity=0 time=60
note_on channel=0 note=56 velocity=0 time=0
note_on channel=0 note=56 velocity=24 time=20
note_on channel=0 note=59 velocity=29 time=0
note_on channel=0 note=59 velocity=0 time=60
note_on channel=0 note=56 velocity=0 time=0
note_on channel=0 note=64 velocity=0 time=20
note_on channel=0 note=68 velocity=47 time=0
note_on channel=0 note=56 velocity=24 time=0
note_on channel=0 note=59 velocity=29 time=0
note_on channel=0 note=59 velocity=0 time=60
note_on channel=0 note=56 velocity=0 time=0
note_on channel=0 note=56 velocity=25 time=20
note_on channel=0 note=59 velocity=30 time=0
note_on channel=0 note=59 velocity=0 time=60
note_on channel=0 note=56 velocity=0 time=0
note_on channel=0 note=56 velocity=25 time=20
note_on channel=0 note=59 velocity=30 time=0
note_on channel=0 note=59 velocity=0 time=60
note_on channel=0 note=56 velocity=0 time=0
note_on channel=0 note=68 velocity=0 time=0
note_on channel=0 note=52 velocity=0 time=0
note_on channel=0 note=64 velocity=47 time=0
note_on channel=0 note=56 velocity=25 time=0
note_on channel=0 note=59 velocity=30 time=0
note_on channel=0 note=59 velocity=0 time=60
note_on channel=0 note=56 velocity=0 time=0
note_on channel=0 note=56 velocity=25 time=20
note_on channel=0 note=59 velocity=30 time=0
note_on channel=0 note=59 velocity=0 time=60
note_on channel=0 note=56 velocity=0 time=0
note_on channel=0 note=56 velocity=25 time=20
note_on channel=0 note=59 velocity=30 time=0
note_on channel=0 note=59 velocity=0 time=60
note_on channel=0 note=56 velocity=0 time=0
note_on channel=0 note=64 velocity=0 time=20
note_on channel=0 note=63 velocity=46 time=0
note_on channel=0 note=56 velocity=25 time=0
note_on channel=0 note=59 velocity=30 time=0
note_on channel=0 note=59 velocity=0 time=60
note_on channel=0 note=56 velocity=0 time=0
note_on channel=0 note=56 velocity=25 time=20
note_on channel=0 note=59 velocity=30 time=0
note_on channel=0 note=59 velocity=0 time=60
note_on channel=0 note=56 velocity=0 time=0
note_on channel=0 note=56 velocity=25 time=20
note_on channel=0 note=59 velocity=30 time=0
note_on channel=0 note=59 velocity=0 time=60
note_on channel=0 note=56 velocity=0 time=0
note_on channel=0 note=63 velocity=0 time=0
note_on channel=0 note=62 velocity=54 time=0
note_on channel=0 note=50 velocity=24 time=0
note_on channel=0 note=56 velocity=24 time=0
note_on channel=0 note=59 velocity=29 time=0
note_on channel=0 note=59 velocity=0 time=60
note_on channel=0 note=56 velocity=0 time=0
note_on channel=0 note=50 velocity=0 time=0
note_on channel=0 note=50 velocity=24 time=20
note_on channel=0 note=56 velocity=24 time=0
note_on channel=0 note=59 velocity=29 time=0
note_on channel=0 note=29 velocity=41 time=0
note_on channel=0 note=29 velocity=0 time=40
note_on channel=0 note=56 velocity=0 time=20
note_on channel=0 note=59 velocity=0 time=0
note_on channel=0 note=50 velocity=0 time=0
note_on channel=0 note=50 velocity=24 time=20
note_on channel=0 note=56 velocity=24 time=0
note_on channel=0 note=59 velocity=29 time=0
note_on channel=0 note=32 velocity=44 time=0
note_on channel=0 note=32 velocity=0 time=40
note_on channel=0 note=56 velocity=0 time=20
note_on channel=0 note=59 velocity=0 time=0
note_on channel=0 note=50 velocity=0 time=0
note_on channel=0 note=50 velocity=24 time=20
note_on channel=0 note=56 velocity=24 time=0
note_on channel=0 note=59 velocity=29 time=0
note_on channel=0 note=35 velocity=46 time=0
note_on channel=0 note=35 velocity=0 time=40
note_on channel=0 note=56 velocity=0 time=20
note_on channel=0 note=59 velocity=0 time=0
note_on channel=0 note=50 velocity=0 time=0
note_on channel=0 note=50 velocity=24 time=20
note_on channel=0 note=56 velocity=25 time=0
note_on channel=0 note=59 velocity=30 time=0
note_on channel=0 note=38 velocity=47 time=0
note_on channel=0 note=38 velocity=0 time=40
note_on channel=0 note=56 velocity=0 time=20
note_on channel=0 note=59 velocity=0 time=0
note_on channel=0 note=50 velocity=0 time=0
note_on channel=0 note=50 velocity=24 time=20
note_on channel=0 note=56 velocity=25 time=0
note_on channel=0 note=59 velocity=30 time=0
note_on channel=0 note=41 velocity=49 time=0
note_on channel=0 note=41 velocity=0 time=40
note_on channel=0 note=56 velocity=0 time=20
note_on channel=0 note=59 velocity=0 time=0
note_on channel=0 note=50 velocity=0 time=0
note_on channel=0 note=50 velocity=24 time=0
note_on channel=0 note=56 velocity=25 time=0
note_on channel=0 note=59 velocity=30 time=0
note_on channel=0 note=44 velocity=51 time=0
note_on channel=0 note=59 velocity=0 time=60
note_on channel=0 note=56 velocity=0 time=0
note_on channel=0 note=50 velocity=0 time=0
note_on channel=0 note=50 velocity=24 time=20
note_on channel=0 note=56 velocity=25 time=0
note_on channel=0 note=59 velocity=30 time=0
note_on channel=0 note=59 velocity=0 time=60
note_on channel=0 note=50 velocity=0 time=0
note_on channel=0 note=56 velocity=0 time=0
note_on channel=0 note=50 velocity=24 time=20
note_on channel=0 note=56 velocity=25 time=0
note_on channel=0 note=59 velocity=30 time=0
note_on channel=0 note=59 velocity=0 time=60
note_on channel=0 note=50 velocity=0 time=0
note_on channel=0 note=56 velocity=0 time=0
note_on channel=0 note=62 velocity=0 time=0
note_on channel=0 note=44 velocity=0 time=0
note_on channel=0 note=62 velocity=51 time=0
note_on channel=0 note=50 velocity=24 time=0
note_on channel=0 note=56 velocity=25 time=0
note_on channel=0 note=59 velocity=30 time=0
note_on channel=0 note=59 velocity=0 time=60
note_on channel=0 note=56 velocity=0 time=0
note_on channel=0 note=50 velocity=0 time=0
note_on channel=0 note=50 velocity=24 time=20
note_on channel=0 note=56 velocity=25 time=0
note_on channel=0 note=59 velocity=30 time=0
note_on channel=0 note=59 velocity=0 time=60
note_on channel=0 note=56 velocity=0 time=0
note_on channel=0 note=50 velocity=0 time=0
note_on channel=0 note=50 velocity=24 time=20
note_on channel=0 note=56 velocity=25 time=0
note_on channel=0 note=59 velocity=30 time=0
note_on channel=0 note=59 velocity=0 time=60
note_on channel=0 note=56 velocity=0 time=0
note_on channel=0 note=50 velocity=0 time=0
note_on channel=0 note=62 velocity=0 time=0
note_on channel=0 note=62 velocity=56 time=0
note_on channel=0 note=50 velocity=25 time=0
note_on channel=0 note=56 velocity=25 time=0
note_on channel=0 note=59 velocity=30 time=0
note_on channel=0 note=59 velocity=0 time=60
note_on channel=0 note=56 velocity=0 time=0
note_on channel=0 note=50 velocity=0 time=0
note_on channel=0 note=50 velocity=25 time=20
note_on channel=0 note=56 velocity=25 time=0
note_on channel=0 note=59 velocity=30 time=0
note_on channel=0 note=29 velocity=42 time=0
note_on channel=0 note=29 velocity=0 time=40
note_on channel=0 note=56 velocity=0 time=20
note_on channel=0 note=59 velocity=0 time=0
note_on channel=0 note=50 velocity=0 time=0
note_on channel=0 note=50 velocity=25 time=20
note_on channel=0 note=56 velocity=25 time=0
note_on channel=0 note=59 velocity=30 time=0
note_on channel=0 note=32 velocity=46 time=0
note_on channel=0 note=32 velocity=0 time=40
note_on channel=0 note=56 velocity=0 time=20
note_on channel=0 note=59 velocity=0 time=0
note_on channel=0 note=50 velocity=0 time=0
note_on channel=0 note=50 velocity=25 time=20
note_on channel=0 note=56 velocity=25 time=0
note_on channel=0 note=59 velocity=30 time=0
note_on channel=0 note=35 velocity=48 time=0
note_on channel=0 note=35 velocity=0 time=40
note_on channel=0 note=56 velocity=0 time=20
note_on channel=0 note=59 velocity=0 time=0
note_on channel=0 note=50 velocity=0 time=0
note_on channel=0 note=50 velocity=25 time=20
note_on channel=0 note=56 velocity=26 time=0
note_on channel=0 note=59 velocity=31 time=0
note_on channel=0 note=38 velocity=49 time=0
note_on channel=0 note=38 velocity=0 time=40
note_on channel=0 note=56 velocity=0 time=20
note_on channel=0 note=59 velocity=0 time=0
note_on channel=0 note=50 velocity=0 time=0
note_on channel=0 note=50 velocity=25 time=20
note_on channel=0 note=56 velocity=26 time=0
note_on channel=0 note=59 velocity=31 time=0
note_on channel=0 note=41 velocity=51 time=0
note_on channel=0 note=41 velocity=0 time=40
note_on channel=0 note=56 velocity=0 time=20
note_on channel=0 note=59 velocity=0 time=0
note_on channel=0 note=50 velocity=0 time=0
note_on channel=0 note=50 velocity=25 time=0
note_on channel=0 note=56 velocity=26 time=0
note_on channel=0 note=59 velocity=31 time=0
note_on channel=0 note=44 velocity=53 time=0
note_on channel=0 note=59 velocity=0 time=60
note_on channel=0 note=56 velocity=0 time=0
note_on channel=0 note=50 velocity=0 time=0
note_on channel=0 note=50 velocity=25 time=20
note_on channel=0 note=56 velocity=26 time=0
note_on channel=0 note=59 velocity=31 time=0
note_on channel=0 note=59 velocity=0 time=60
note_on channel=0 note=50 velocity=0 time=0
note_on channel=0 note=56 velocity=0 time=0
note_on channel=0 note=50 velocity=25 time=20
note_on channel=0 note=56 velocity=26 time=0
note_on channel=0 note=59 velocity=31 time=0
note_on channel=0 note=59 velocity=0 time=60
note_on channel=0 note=50 velocity=0 time=0
note_on channel=0 note=56 velocity=0 time=0
note_on channel=0 note=62 velocity=0 time=0
note_on channel=0 note=44 velocity=0 time=0
note_on channel=0 note=62 velocity=53 time=0
note_on channel=0 note=50 velocity=25 time=0
note_on channel=0 note=56 velocity=26 time=0
note_on channel=0 note=59 velocity=31 time=0
note_on channel=0 note=59 velocity=0 time=60
note_on channel=0 note=56 velocity=0 time=0
note_on channel=0 note=50 velocity=0 time=0
note_on channel=0 note=50 velocity=25 time=20
note_on channel=0 note=56 velocity=26 time=0
note_on channel=0 note=59 velocity=31 time=0
note_on channel=0 note=59 velocity=0 time=60
note_on channel=0 note=56 velocity=0 time=0
note_on channel=0 note=50 velocity=0 time=0
note_on channel=0 note=50 velocity=25 time=20
note_on channel=0 note=56 velocity=26 time=0
note_on channel=0 note=59 velocity=31 time=0
note_on channel=0 note=59 velocity=0 time=60
note_on channel=0 note=56 velocity=0 time=0
note_on channel=0 note=50 velocity=0 time=0
note_on channel=0 note=62 velocity=0 time=0
note_on channel=0 note=61 velocity=59 time=0
note_on channel=0 note=49 velocity=26 time=0
note_on channel=0 note=56 velocity=26 time=0
note_on channel=0 note=58 velocity=31 time=0
note_on channel=0 note=58 velocity=0 time=60
note_on channel=0 note=56 velocity=0 time=0
note_on channel=0 note=49 velocity=0 time=0
note_on channel=0 note=49 velocity=26 time=20
note_on channel=0 note=56 velocity=26 time=0
note_on channel=0 note=58 velocity=31 time=0
note_on channel=0 note=40 velocity=45 time=0
note_on channel=0 note=40 velocity=0 time=40
note_on channel=0 note=56 velocity=0 time=20
note_on channel=0 note=58 velocity=0 time=0
note_on channel=0 note=49 velocity=0 time=0
note_on channel=0 note=49 velocity=26 time=20
note_on channel=0 note=56 velocity=26 time=0
note_on channel=0 note=58 velocity=32 time=0
note_on channel=0 note=44 velocity=48 time=0
note_on channel=0 note=44 velocity=0 time=40
note_on channel=0 note=56 velocity=0 time=20
note_on channel=0 note=58 velocity=0 time=0
note_on channel=0 note=49 velocity=0 time=0
note_on channel=0 note=49 velocity=26 time=20
note_on channel=0 note=56 velocity=26 time=0
note_on channel=0 note=58 velocity=32 time=0
note_on channel=0 note=46 velocity=51 time=0
note_on channel=0 note=58 velocity=0 time=60
note_on channel=0 note=56 velocity=0 time=0
note_on channel=0 note=49 velocity=0 time=0
note_on channel=0 note=49 velocity=27 time=20
note_on channel=0 note=56 velocity=28 time=0
note_on channel=0 note=58 velocity=33 time=0
note_on channel=0 note=46 velocity=0 time=40
note_on channel=0 note=56 velocity=0 time=20
note_on channel=0 note=58 velocity=0 time=0
note_on channel=0 note=49 velocity=0 time=0
note_on channel=0 note=49 velocity=27 time=20
note_on channel=0 note=56 velocity=28 time=0
note_on channel=0 note=58 velocity=34 time=0
note_on channel=0 note=58 velocity=0 time=60
note_on channel=0 note=56 velocity=0 time=0
note_on channel=0 note=49 velocity=0 time=0
note_on channel=0 note=49 velocity=27 time=0
note_on channel=0 note=55 velocity=28 time=0
note_on channel=0 note=58 velocity=34 time=0
note_on channel=0 note=58 velocity=0 time=60
note_on channel=0 note=55 velocity=0 time=0
note_on channel=0 note=49 velocity=0 time=0
note_on channel=0 note=49 velocity=27 time=20
note_on channel=0 note=55 velocity=28 time=0
note_on channel=0 note=58 velocity=34 time=0
note_on channel=0 note=39 velocity=57 time=0
note_on channel=0 note=39 velocity=0 time=40
note_on channel=0 note=55 velocity=0 time=20
note_on channel=0 note=58 velocity=0 time=0
note_on channel=0 note=49 velocity=0 time=0
note_on channel=0 note=49 velocity=27 time=20
note_on channel=0 note=55 velocity=29 time=0
note_on channel=0 note=58 velocity=34 time=0
note_on channel=0 note=43 velocity=60 time=0
note_on channel=0 note=43 velocity=0 time=40
note_on channel=0 note=55 velocity=0 time=20
note_on channel=0 note=58 velocity=0 time=0
note_on channel=0 note=49 velocity=0 time=0
note_on channel=0 note=61 velocity=0 time=0
note_on channel=0 note=61 velocity=72 time=0
note_on channel=0 note=51 velocity=28 time=0
note_on channel=0 note=49 velocity=23 time=0
note_on channel=0 note=55 velocity=29 time=0
note_on channel=0 note=58 velocity=35 time=0
note_on channel=0 note=46 velocity=64 time=0
note_on channel=0 note=58 velocity=0 time=0
note_on channel=0 note=55 velocity=0 time=0
note_on channel=0 note=49 velocity=0 time=0
note_on channel=0 note=51 velocity=0 time=0
note_on channel=0 note=51 velocity=28 time=0
note_on channel=0 note=49 velocity=23 time=0
note_on channel=0 note=55 velocity=29 time=0
note_on channel=0 note=58 velocity=35 time=0
note_on channel=0 note=46 velocity=0 time=0
note_on channel=0 note=51 velocity=0 time=0
note_on channel=0 note=49 velocity=0 time=0
note_on channel=0 note=55 velocity=0 time=0
note_on channel=0 note=58 velocity=0 time=0
note_on channel=0 note=51 velocity=28 time=0
note_on channel=0 note=49 velocity=23 time=0
note_on channel=0 note=55 velocity=29 time=0
note_on channel=0 note=58 velocity=35 time=0
note_on channel=0 note=58 velocity=0 time=60
note_on channel=0 note=49 velocity=0 time=0
note_on channel=0 note=55 velocity=0 time=0
note_on channel=0 note=51 velocity=0 time=0
note_on channel=0 note=61 velocity=0 time=0
note_on channel=0 note=60 velocity=50 time=0
note_on channel=0 note=32 velocity=34 time=0
note_on channel=0 note=44 velocity=40 time=0
note_on channel=0 note=48 velocity=28 time=0
note_on channel=0 note=48 velocity=0 time=41
note_on channel=0 note=51 velocity=26 time=0
note_on channel=0 note=51 velocity=0 time=60
note_on channel=0 note=51 velocity=26 time=20
note_on channel=0 note=51 velocity=0 time=60
note_on channel=0 note=56 velocity=28 time=20
note_on channel=0 note=56 velocity=0 time=80
note_on channel=0 note=51 velocity=26 time=0
note_on channel=0 note=51 velocity=0 time=20
note_on channel=0 note=51 velocity=26 time=20
note_on channel=0 note=51 velocity=0 time=60
note_on channel=0 note=44 velocity=0 time=0
note_on channel=0 note=32 velocity=0 time=0
note_on channel=0 note=60 velocity=0 time=0
note_on channel=0 note=58 velocity=46 time=0
note_on channel=0 note=49 velocity=35 time=0
note_on channel=0 note=55 velocity=28 time=0
note_on channel=0 note=55 velocity=0 time=34
note_on channel=0 note=51 velocity=26 time=0
note_on channel=0 note=51 velocity=0 time=20
note_on channel=0 note=51 velocity=26 time=20
note_on channel=0 note=51 velocity=0 time=60
note_on channel=0 note=55 velocity=28 time=0
note_on channel=0 note=55 velocity=0 time=80
note_on channel=0 note=51 velocity=27 time=0
note_on channel=0 note=51 velocity=0 time=20
note_on channel=0 note=51 velocity=27 time=20
note_on channel=0 note=51 velocity=0 time=60
note_on channel=0 note=49 velocity=0 time=0
note_on channel=0 note=58 velocity=0 time=0
note_on channel=0 note=63 velocity=50 time=0
note_on channel=0 note=48 velocity=40 time=0
note_on channel=0 note=56 velocity=28 time=0
note_on channel=0 note=56 velocity=0 time=48
note_on channel=0 note=51 velocity=26 time=0
note_on channel=0 note=51 velocity=0 time=20
note_on channel=0 note=51 velocity=26 time=20
note_on channel=0 note=51 velocity=0 time=60
note_on channel=0 note=56 velocity=28 time=0
note_on channel=0 note=56 velocity=0 time=80
note_on channel=0 note=51 velocity=26 time=0
note_on channel=0 note=51 velocity=0 time=60
note_on channel=0 note=51 velocity=26 time=20
note_on channel=0 note=51 velocity=0 time=60
note_on channel=0 note=48 velocity=0 time=0
note_on channel=0 note=43 velocity=37 time=0
note_on channel=0 note=58 velocity=28 time=0
note_on channel=0 note=58 velocity=0 time=31
note_on channel=0 note=51 velocity=25 time=0
note_on channel=0 note=51 velocity=0 time=60
note_on channel=0 note=51 velocity=25 time=20
note_on channel=0 note=51 velocity=0 time=60
note_on channel=0 note=63 velocity=0 time=20
note_on channel=0 note=61 velocity=48 time=0
note_on channel=0 note=58 velocity=25 time=0
note_on channel=0 note=58 velocity=0 time=80
note_on channel=0 note=51 velocity=25 time=0
note_on channel=0 note=51 velocity=0 time=20
note_on channel=0 note=51 velocity=25 time=20
note_on channel=0 note=51 velocity=0 time=60
note_on channel=0 note=61 velocity=0 time=0
note_on channel=0 note=43 velocity=0 time=0
note_on channel=0 note=60 velocity=47 time=0
note_on channel=0 note=44 velocity=33 time=0
note_on channel=0 note=56 velocity=29 time=0
note_on channel=0 note=56 velocity=0 time=46
note_on channel=0 note=51 velocity=27 time=0
note_on channel=0 note=51 velocity=0 time=20
note_on channel=0 note=51 velocity=27 time=20
note_on channel=0 note=51 velocity=0 time=60
note_on channel=0 note=44 velocity=0 time=0
note_on channel=0 note=60 velocity=0 time=0
note_on channel=0 note=63 velocity=49 time=0
note_on channel=0 note=43 velocity=35 time=0
note_on channel=0 note=58 velocity=26 time=0
note_on channel=0 note=58 velocity=0 time=46
note_on channel=0 note=51 velocity=26 time=0
note_on channel=0 note=51 velocity=0 time=60
note_on channel=0 note=51 velocity=26 time=20
note_on channel=0 note=51 velocity=0 time=60
note_on channel=0 note=43 velocity=0 time=0
note_on channel=0 note=63 velocity=0 time=0
note_on channel=0 note=68 velocity=51 time=0
note_on channel=0 note=41 velocity=38 time=0
note_on channel=0 note=60 velocity=30 time=0
note_on channel=0 note=60 velocity=0 time=46
note_on channel=0 note=56 velocity=27 time=0
note_on channel=0 note=56 velocity=0 time=20
note_on channel=0 note=56 velocity=27 time=20
note_on channel=0 note=56 velocity=0 time=60
note_on channel=0 note=41 velocity=0 time=0
note_on channel=0 note=68 velocity=0 time=0
note_on channel=0 note=70 velocity=56 time=0
note_on channel=0 note=53 velocity=40 time=0
note_on channel=0 note=62 velocity=27 time=0
note_on channel=0 note=62 velocity=0 time=49
note_on channel=0 note=56 velocity=27 time=0
note_on channel=0 note=56 velocity=0 time=20
note_on channel=0 note=56 velocity=25 time=20
note_on channel=0 note=56 velocity=0 time=60
note_on channel=0 note=53 velocity=0 time=0
note_on channel=0 note=70 velocity=0 time=0
note_on channel=0 note=63 velocity=50 time=0
note_on channel=0 note=51 velocity=36 time=0
note_on channel=0 note=55 velocity=28 time=0
note_on channel=0 note=55 velocity=0 time=38
note_on channel=0 note=58 velocity=27 time=0
note_on channel=0 note=58 velocity=0 time=20
note_on channel=0 note=58 velocity=27 time=20
note_on channel=0 note=58 velocity=0 time=60
note_on channel=0 note=55 velocity=23 time=0
note_on channel=0 note=55 velocity=0 time=80
note_on channel=0 note=58 velocity=23 time=0
note_on channel=0 note=58 velocity=0 time=60
note_on channel=0 note=58 velocity=23 time=20
note_on channel=0 note=58 velocity=0 time=60
note_on channel=0 note=51 velocity=0 time=0
note_on channel=0 note=39 velocity=35 time=0
note_on channel=0 note=55 velocity=28 time=0
note_on channel=0 note=55 velocity=0 time=34
note_on channel=0 note=58 velocity=26 time=0
note_on channel=0 note=58 velocity=0 time=20
note_on channel=0 note=58 velocity=26 time=20
note_on channel=0 note=58 velocity=0 time=60
note_on channel=0 note=63 velocity=0 time=0
note_on channel=0 note=64 velocity=46 time=0
note_on channel=0 note=55 velocity=25 time=0
note_on channel=0 note=55 velocity=0 time=80
note_on channel=0 note=58 velocity=25 time=0
note_on channel=0 note=58 velocity=0 time=20
note_on channel=0 note=58 velocity=25 time=20
note_on channel=0 note=58 velocity=0 time=60
note_on channel=0 note=64 velocity=0 time=0
note_on channel=0 note=39 velocity=0 time=0
note_on channel=0 note=65 velocity=50 time=0
note_on channel=0 note=37 velocity=40 time=0
note_on channel=0 note=55 velocity=28 time=0
note_on channel=0 note=55 velocity=0 time=45
note_on channel=0 note=58 velocity=25 time=0
note_on channel=0 note=58 velocity=0 time=20
note_on channel=0 note=58 velocity=25 time=20
note_on channel=0 note=58 velocity=0 time=60
note_on channel=0 note=55 velocity=26 time=0
note_on channel=0 note=55 velocity=0 time=80
note_on channel=0 note=58 velocity=26 time=0
note_on channel=0 note=58 velocity=0 time=20
note_on channel=0 note=58 velocity=26 time=20
note_on channel=0 note=58 velocity=0 time=59
note_on channel=0 note=37 velocity=0 time=0
note_on channel=0 note=65 velocity=0 time=0
note_on channel=0 note=58 velocity=50 time=0
note_on channel=0 note=49 velocity=36 time=0
note_on channel=0 note=55 velocity=28 time=0
note_on channel=0 note=55 velocity=0 time=38
note_on channel=0 note=51 velocity=26 time=0
note_on channel=0 note=51 velocity=0 time=20
note_on channel=0 note=51 velocity=26 time=20
note_on channel=0 note=51 velocity=0 time=60
note_on channel=0 note=55 velocity=24 time=0
note_on channel=0 note=55 velocity=0 time=80
note_on channel=0 note=51 velocity=24 time=0
note_on channel=0 note=58 velocity=0 time=0
note_on channel=0 note=60 velocity=46 time=0
note_on channel=0 note=51 velocity=0 time=20
note_on channel=0 note=51 velocity=24 time=20
note_on channel=0 note=60 velocity=0 time=20
note_on channel=0 note=61 velocity=46 time=0
note_on channel=0 note=51 velocity=0 time=40
note_on channel=0 note=61 velocity=0 time=0
note_on channel=0 note=49 velocity=0 time=0
note_on channel=0 note=63 velocity=50 time=0
note_on channel=0 note=48 velocity=40 time=0
note_on channel=0 note=56 velocity=28 time=0
note_on channel=0 note=56 velocity=0 time=16
note_on channel=0 note=51 velocity=26 time=0
note_on channel=0 note=51 velocity=0 time=20
note_on channel=0 note=51 velocity=26 time=20
note_on channel=0 note=51 velocity=0 time=60
note_on channel=0 note=56 velocity=27 time=0
note_on channel=0 note=56 velocity=0 time=80
note_on channel=0 note=51 velocity=25 time=0
note_on channel=0 note=51 velocity=0 time=20
note_on channel=0 note=51 velocity=25 time=20
note_on channel=0 note=51 velocity=0 time=60
note_on channel=0 note=48 velocity=0 time=0
note_on channel=0 note=63 velocity=0 time=0
note_on channel=0 note=57 velocity=48 time=0
note_on channel=0 note=41 velocity=36 time=0
note_on channel=0 note=51 velocity=28 time=0
note_on channel=0 note=51 velocity=0 time=16
note_on channel=0 note=48 velocity=25 time=0
note_on channel=0 note=48 velocity=0 time=20
note_on channel=0 note=48 velocity=25 time=20
note_on channel=0 note=48 velocity=0 time=60
note_on channel=0 note=51 velocity=26 time=0
note_on channel=0 note=51 velocity=0 time=80
note_on channel=0 note=48 velocity=26 time=0
note_on channel=0 note=48 velocity=0 time=20
note_on channel=0 note=48 velocity=26 time=20
note_on channel=0 note=48 velocity=0 time=60
note_on channel=0 note=41 velocity=0 time=0
note_on channel=0 note=57 velocity=0 time=0
note_on channel=0 note=61 velocity=50 time=0
note_on channel=0 note=34 velocity=40 time=0
note_on channel=0 note=53 velocity=29 time=0
note_on channel=0 note=53 velocity=0 time=16
note_on channel=0 note=49 velocity=26 time=0
note_on channel=0 note=49 velocity=0 time=20
note_on channel=0 note=49 velocity=26 time=20
note_on channel=0 note=49 velocity=0 time=60
note_on channel=0 note=53 velocity=27 time=0
note_on channel=0 note=53 velocity=0 time=80
note_on channel=0 note=49 velocity=25 time=0
note_on channel=0 note=49 velocity=0 time=20
note_on channel=0 note=49 velocity=25 time=20
note_on channel=0 note=49 velocity=0 time=60
note_on channel=0 note=34 velocity=0 time=0
note_on channel=0 note=61 velocity=0 time=0
note_on channel=0 note=61 velocity=52 time=0
note_on channel=0 note=39 velocity=34 time=0
note_on channel=0 note=55 velocity=30 time=0
note_on channel=0 note=55 velocity=0 time=45
note_on channel=0 note=61 velocity=0 time=0
note_on channel=0 note=60 velocity=46 time=0
note_on channel=0 note=49 velocity=28 time=0
note_on channel=0 note=49 velocity=0 time=20
note_on channel=0 note=60 velocity=0 time=20
note_on channel=0 note=58 velocity=46 time=0
note_on channel=0 note=49 velocity=28 time=0
note_on channel=0 note=49 velocity=0 time=60
note_on channel=0 note=58 velocity=0 time=0
note_on channel=0 note=58 velocity=51 time=0
note_on channel=0 note=49 velocity=28 time=0
note_on channel=0 note=49 velocity=0 time=60
note_on channel=0 note=58 velocity=0 time=20
note_on channel=0 note=56 velocity=47 time=0
note_on channel=0 note=49 velocity=25 time=0
note_on channel=0 note=49 velocity=0 time=20
note_on channel=0 note=56 velocity=0 time=20
note_on channel=0 note=55 velocity=47 time=0
note_on channel=0 note=49 velocity=25 time=0
note_on channel=0 note=49 velocity=0 time=60
note_on channel=0 note=55 velocity=0 time=0
note_on channel=0 note=39 velocity=0 time=0
note_on channel=0 note=55 velocity=40 time=0
note_on channel=0 note=58 velocity=50 time=0
note_on channel=0 note=32 velocity=37 time=0
note_on channel=0 note=49 velocity=31 time=0
note_on channel=0 note=49 velocity=0 time=75
note_on channel=0 note=51 velocity=28 time=0
note_on channel=0 note=51 velocity=0 time=20
note_on channel=0 note=51 velocity=28 time=20
note_on channel=0 note=51 velocity=0 time=60
note_on channel=0 note=32 velocity=0 time=0
note_on channel=0 note=44 velocity=29 time=0
note_on channel=0 note=49 velocity=28 time=0
note_on channel=0 note=49 velocity=0 time=80
note_on channel=0 note=51 velocity=25 time=0
note_on channel=0 note=51 velocity=0 time=20
note_on channel=0 note=51 velocity=25 time=20
note_on channel=0 note=51 velocity=0 time=60
note_on channel=0 note=55 velocity=0 time=20
note_on channel=0 note=58 velocity=0 time=0
note_on channel=0 note=44 velocity=0 time=0
note_on channel=0 note=56 velocity=50 time=0
note_on channel=0 note=48 velocity=36 time=0
note_on channel=0 note=32 velocity=36 time=0
note_on channel=0 note=48 velocity=0 time=18
note_on channel=0 note=51 velocity=34 time=20
note_on channel=0 note=51 velocity=0 time=60
note_on channel=0 note=56 velocity=34 time=20
note_on channel=0 note=56 velocity=0 time=60
note_on channel=0 note=32 velocity=0 time=20
note_on channel=0 note=56 velocity=0 time=0
note_on channel=0 note=60 velocity=36 time=0
note_on channel=0 note=60 velocity=0 time=60
note_on channel=0 note=63 velocity=35 time=20
note_on channel=0 note=63 velocity=0 time=60
note_on channel=0 note=68 velocity=35 time=0
note_on channel=0 note=68 velocity=0 time=60
note_on channel=0 note=72 velocity=50 time=0
note_on channel=0 note=60 velocity=28 time=0
note_on channel=0 note=44 velocity=40 time=0
note_on channel=0 note=56 velocity=28 time=0
note_on channel=0 note=56 velocity=0 time=0
note_on channel=0 note=60 velocity=0 time=0
note_on channel=0 note=63 velocity=26 time=0
note_on channel=0 note=51 velocity=26 time=0
note_on channel=0 note=51 velocity=0 time=60
note_on channel=0 note=63 velocity=0 time=0
note_on channel=0 note=63 velocity=26 time=20
note_on channel=0 note=51 velocity=26 time=0
note_on channel=0 note=51 velocity=0 time=60
note_on channel=0 note=63 velocity=0 time=0
note_on channel=0 note=60 velocity=26 time=20
note_on channel=0 note=56 velocity=28 time=0
note_on channel=0 note=56 velocity=0 time=80
note_on channel=0 note=60 velocity=0 time=0
note_on channel=0 note=63 velocity=26 time=0
note_on channel=0 note=51 velocity=26 time=0
note_on channel=0 note=51 velocity=0 time=20
note_on channel=0 note=63 velocity=0 time=0
note_on channel=0 note=63 velocity=26 time=20
note_on channel=0 note=51 velocity=26 time=0
note_on channel=0 note=51 velocity=0 time=60
note_on channel=0 note=63 velocity=0 time=0
note_on channel=0 note=44 velocity=0 time=0
note_on channel=0 note=72 velocity=0 time=0
note_on channel=0 note=70 velocity=46 time=0
note_on channel=0 note=58 velocity=28 time=0
note_on channel=0 note=49 velocity=35 time=0
note_on channel=0 note=55 velocity=28 time=0
note_on channel=0 note=55 velocity=0 time=34
note_on channel=0 note=58 velocity=0 time=0
note_on channel=0 note=63 velocity=26 time=0
note_on channel=0 note=51 velocity=26 time=0
note_on channel=0 note=51 velocity=0 time=20
note_on channel=0 note=63 velocity=0 time=0
note_on channel=0 note=63 velocity=26 time=20
note_on channel=0 note=51 velocity=26 time=0
note_on channel=0 note=51 velocity=0 time=60
note_on channel=0 note=63 velocity=0 time=0
note_on channel=0 note=58 velocity=26 time=0
note_on channel=0 note=55 velocity=28 time=0
note_on channel=0 note=55 velocity=0 time=80
note_on channel=0 note=58 velocity=0 time=0
note_on channel=0 note=63 velocity=26 time=0
note_on channel=0 note=51 velocity=27 time=0
note_on channel=0 note=51 velocity=0 time=20
note_on channel=0 note=63 velocity=0 time=0
note_on channel=0 note=63 velocity=26 time=20
note_on channel=0 note=51 velocity=27 time=0
note_on channel=0 note=51 velocity=0 time=60
note_on channel=0 note=63 velocity=0 time=0
note_on channel=0 note=49 velocity=0 time=0
note_on channel=0 note=70 velocity=0 time=0
note_on channel=0 note=75 velocity=50 time=0
note_on channel=0 note=63 velocity=28 time=0
note_on channel=0 note=48 velocity=40 time=0
note_on channel=0 note=56 velocity=28 time=0
note_on channel=0 note=56 velocity=0 time=41
note_on channel=0 note=63 velocity=0 time=0
note_on channel=0 note=68 velocity=26 time=0
note_on channel=0 note=51 velocity=26 time=0
note_on channel=0 note=51 velocity=0 time=20
note_on channel=0 note=68 velocity=0 time=0
note_on channel=0 note=68 velocity=26 time=20
note_on channel=0 note=51 velocity=26 time=0
note_on channel=0 note=51 velocity=0 time=60
note_on channel=0 note=68 velocity=0 time=0
note_on channel=0 note=63 velocity=25 time=0
note_on channel=0 note=56 velocity=28 time=0
note_on channel=0 note=56 velocity=0 time=80
note_on channel=0 note=63 velocity=0 time=0
note_on channel=0 note=68 velocity=25 time=0
note_on channel=0 note=51 velocity=26 time=0
note_on channel=0 note=51 velocity=0 time=60
note_on channel=0 note=68 velocity=0 time=0
note_on channel=0 note=68 velocity=25 time=20
note_on channel=0 note=51 velocity=26 time=0
note_on channel=0 note=51 velocity=0 time=60
note_on channel=0 note=68 velocity=0 time=0
note_on channel=0 note=48 velocity=0 time=0
note_on channel=0 note=63 velocity=28 time=0
note_on channel=0 note=43 velocity=37 time=0
note_on channel=0 note=55 velocity=28 time=0
note_on channel=0 note=55 velocity=0 time=27
note_on channel=0 note=63 velocity=0 time=0
note_on channel=0 note=70 velocity=26 time=0
note_on channel=0 note=51 velocity=25 time=0
note_on channel=0 note=51 velocity=0 time=60
note_on channel=0 note=70 velocity=0 time=0
note_on channel=0 note=70 velocity=26 time=20
note_on channel=0 note=51 velocity=25 time=0
note_on channel=0 note=51 velocity=0 time=60
note_on channel=0 note=70 velocity=0 time=0
note_on channel=0 note=75 velocity=0 time=20
note_on channel=0 note=73 velocity=48 time=0
note_on channel=0 note=63 velocity=25 time=0
note_on channel=0 note=55 velocity=25 time=0
note_on channel=0 note=55 velocity=0 time=80
note_on channel=0 note=63 velocity=0 time=0
note_on channel=0 note=70 velocity=25 time=0
note_on channel=0 note=51 velocity=25 time=0
note_on channel=0 note=51 velocity=0 time=20
note_on channel=0 note=70 velocity=0 time=0
note_on channel=0 note=70 velocity=25 time=20
note_on channel=0 note=51 velocity=25 time=0
note_on channel=0 note=51 velocity=0 time=60
note_on channel=0 note=70 velocity=0 time=0
note_on channel=0 note=73 velocity=0 time=0
note_on channel=0 note=43 velocity=0 time=0
note_on channel=0 note=72 velocity=47 time=0
note_on channel=0 note=63 velocity=29 time=0
note_on channel=0 note=44 velocity=33 time=0
note_on channel=0 note=56 velocity=29 time=0
note_on channel=0 note=56 velocity=0 time=48
note_on channel=0 note=63 velocity=0 time=0
note_on channel=0 note=68 velocity=27 time=0
note_on channel=0 note=51 velocity=27 time=0
note_on channel=0 note=51 velocity=0 time=20
note_on channel=0 note=68 velocity=0 time=0
note_on channel=0 note=68 velocity=26 time=20
note_on channel=0 note=51 velocity=27 time=0
note_on channel=0 note=51 velocity=0 time=60
note_on channel=0 note=68 velocity=0 time=0
note_on channel=0 note=44 velocity=0 time=0
note_on channel=0 note=72 velocity=0 time=0
note_on channel=0 note=75 velocity=49 time=0
note_on channel=0 note=63 velocity=26 time=0
note_on channel=0 note=43 velocity=35 time=0
note_on channel=0 note=55 velocity=26 time=0
note_on channel=0 note=55 velocity=0 time=46
note_on channel=0 note=63 velocity=0 time=0
note_on channel=0 note=70 velocity=26 time=0
note_on channel=0 note=51 velocity=26 time=0
note_on channel=0 note=51 velocity=0 time=60
note_on channel=0 note=70 velocity=0 time=0
note_on channel=0 note=70 velocity=26 time=20
note_on channel=0 note=51 velocity=26 time=0
note_on channel=0 note=51 velocity=0 time=60
note_on channel=0 note=70 velocity=0 time=0
note_on channel=0 note=43 velocity=0 time=0
note_on channel=0 note=75 velocity=0 time=0
note_on channel=0 note=80 velocity=51 time=0
note_on channel=0 note=68 velocity=30 time=0
note_on channel=0 note=41 velocity=38 time=0
note_on channel=0 note=53 velocity=30 time=0
note_on channel=0 note=53 velocity=0 time=26
note_on channel=0 note=68 velocity=0 time=0
note_on channel=0 note=72 velocity=28 time=0
note_on channel=0 note=44 velocity=27 time=0
note_on channel=0 note=44 velocity=0 time=20
note_on channel=0 note=72 velocity=0 time=0
note_on channel=0 note=72 velocity=28 time=20
note_on channel=0 note=44 velocity=27 time=0
note_on channel=0 note=44 velocity=0 time=60
note_on channel=0 note=72 velocity=0 time=0
note_on channel=0 note=41 velocity=0 time=0
note_on channel=0 note=80 velocity=0 time=0
note_on channel=0 note=82 velocity=56 time=0
note_on channel=0 note=68 velocity=27 time=0
note_on channel=0 note=41 velocity=40 time=0
note_on channel=0 note=53 velocity=27 time=0
note_on channel=0 note=53 velocity=0 time=17
note_on channel=0 note=68 velocity=0 time=0
note_on channel=0 note=74 velocity=27 time=0
note_on channel=0 note=44 velocity=27 time=0
note_on channel=0 note=44 velocity=0 time=20
note_on channel=0 note=74 velocity=0 time=0
note_on channel=0 note=74 velocity=27 time=20
note_on channel=0 note=44 velocity=25 time=0
note_on channel=0 note=44 velocity=0 time=60
note_on channel=0 note=74 velocity=0 time=0
note_on channel=0 note=41 velocity=0 time=0
note_on channel=0 note=82 velocity=0 time=0
note_on channel=0 note=75 velocity=50 time=0
note_on channel=0 note=67 velocity=30 time=0
note_on channel=0 note=39 velocity=50 time=0
note_on channel=0 note=39 velocity=0 time=37
note_on channel=0 note=67 velocity=0 time=38
note_on channel=0 note=70 velocity=28 time=0
note_on channel=0 note=43 velocity=44 time=0
note_on channel=0 note=43 velocity=0 time=0
note_on channel=0 note=70 velocity=0 time=20
note_on channel=0 note=70 velocity=28 time=20
note_on channel=0 note=46 velocity=45 time=0
note_on channel=0 note=46 velocity=0 time=40
note_on channel=0 note=70 velocity=0 time=20
note_on channel=0 note=67 velocity=27 time=0
note_on channel=0 note=51 velocity=47 time=0
note_on channel=0 note=51 velocity=0 time=40
note_on channel=0 note=67 velocity=0 time=40
note_on channel=0 note=70 velocity=23 time=0
note_on channel=0 note=55 velocity=49 time=0
note_on channel=0 note=55 velocity=0 time=40
note_on channel=0 note=70 velocity=0 time=20
note_on channel=0 note=70 velocity=23 time=20
note_on channel=0 note=58 velocity=50 time=0
note_on channel=0 note=58 velocity=0 time=40
note_on channel=0 note=70 velocity=0 time=20
note_on channel=0 note=67 velocity=32 time=0
note_on channel=0 note=63 velocity=52 time=0
note_on channel=0 note=67 velocity=0 time=27
note_on channel=0 note=70 velocity=28 time=0
note_on channel=0 note=70 velocity=0 time=20
note_on channel=0 note=70 velocity=28 time=20
note_on channel=0 note=70 velocity=0 time=60
note_on channel=0 note=75 velocity=0 time=0
note_on channel=0 note=76 velocity=55 time=0
note_on channel=0 note=67 velocity=33 time=0
note_on channel=0 note=67 velocity=0 time=80
note_on channel=0 note=70 velocity=29 time=0
note_on channel=0 note=70 velocity=0 time=20
note_on channel=0 note=70 velocity=28 time=20
note_on channel=0 note=70 velocity=0 time=60
note_on channel=0 note=76 velocity=0 time=0
note_on channel=0 note=63 velocity=0 time=0
note_on channel=0 note=77 velocity=59 time=0
note_on channel=0 note=67 velocity=35 time=0
note_on channel=0 note=37 velocity=50 time=0
note_on channel=0 note=37 velocity=0 time=5
note_on channel=0 note=67 velocity=0 time=40
note_on channel=0 note=70 velocity=28 time=0
note_on channel=0 note=43 velocity=43 time=0
note_on channel=0 note=43 velocity=0 time=0
note_on channel=0 note=70 velocity=0 time=20
note_on channel=0 note=70 velocity=28 time=20
note_on channel=0 note=46 velocity=44 time=0
note_on channel=0 note=46 velocity=0 time=40
note_on channel=0 note=70 velocity=0 time=20
note_on channel=0 note=67 velocity=32 time=0
note_on channel=0 note=49 velocity=46 time=0
note_on channel=0 note=49 velocity=0 time=40
note_on channel=0 note=67 velocity=0 time=40
note_on channel=0 note=70 velocity=26 time=0
note_on channel=0 note=55 velocity=47 time=0
note_on channel=0 note=55 velocity=0 time=0
note_on channel=0 note=70 velocity=0 time=20
note_on channel=0 note=70 velocity=26 time=20
note_on channel=0 note=58 velocity=49 time=0
note_on channel=0 note=58 velocity=0 time=40
note_on channel=0 note=70 velocity=0 time=19
note_on channel=0 note=77 velocity=0 time=0
note_on channel=0 note=70 velocity=57 time=0
note_on channel=0 note=67 velocity=34 time=0
note_on channel=0 note=61 velocity=50 time=0
note_on channel=0 note=67 velocity=0 time=38
note_on channel=0 note=63 velocity=27 time=0
note_on channel=0 note=63 velocity=0 time=20
note_on channel=0 note=63 velocity=27 time=20
note_on channel=0 note=63 velocity=0 time=60
note_on channel=0 note=67 velocity=33 time=0
note_on channel=0 note=67 velocity=0 time=80
note_on channel=0 note=63 velocity=27 time=0
note_on channel=0 note=70 velocity=0 time=0
note_on channel=0 note=72 velocity=56 time=0
note_on channel=0 note=63 velocity=0 time=20
note_on channel=0 note=63 velocity=25 time=20
note_on channel=0 note=72 velocity=0 time=20
note_on channel=0 note=73 velocity=58 time=0
note_on channel=0 note=63 velocity=0 time=40
note_on channel=0 note=73 velocity=0 time=0
note_on channel=0 note=61 velocity=0 time=0
note_on channel=0 note=75 velocity=60 time=0
note_on channel=0 note=68 velocity=30 time=0
note_on channel=0 note=60 velocity=40 time=0
note_on channel=0 note=68 velocity=0 time=20
note_on channel=0 note=63 velocity=28 time=0
note_on channel=0 note=63 velocity=0 time=20
note_on channel=0 note=63 velocity=28 time=20
note_on channel=0 note=63 velocity=0 time=60
note_on channel=0 note=68 velocity=27 time=0
note_on channel=0 note=68 velocity=0 time=80
note_on channel=0 note=63 velocity=23 time=0
note_on channel=0 note=63 velocity=0 time=20
note_on channel=0 note=63 velocity=23 time=20
note_on channel=0 note=63 velocity=0 time=60
note_on channel=0 note=60 velocity=0 time=0
note_on channel=0 note=75 velocity=0 time=0
note_on channel=0 note=69 velocity=48 time=0
note_on channel=0 note=63 velocity=28 time=0
note_on channel=0 note=53 velocity=36 time=0
note_on channel=0 note=63 velocity=0 time=20
note_on channel=0 note=60 velocity=26 time=0
note_on channel=0 note=60 velocity=0 time=20
note_on channel=0 note=60 velocity=26 time=20
note_on channel=0 note=60 velocity=0 time=60
note_on channel=0 note=63 velocity=28 time=0
note_on channel=0 note=63 velocity=0 time=80
note_on channel=0 note=60 velocity=25 time=0
note_on channel=0 note=60 velocity=0 time=20
note_on channel=0 note=60 velocity=25 time=20
note_on channel=0 note=60 velocity=0 time=60
note_on channel=0 note=53 velocity=0 time=0
note_on channel=0 note=69 velocity=0 time=0
note_on channel=0 note=73 velocity=50 time=0
note_on channel=0 note=65 velocity=29 time=0
note_on channel=0 note=46 velocity=40 time=0
note_on channel=0 note=65 velocity=0 time=22
note_on channel=0 note=61 velocity=28 time=0
note_on channel=0 note=61 velocity=0 time=20
note_on channel=0 note=61 velocity=27 time=20
note_on channel=0 note=61 velocity=0 time=60
note_on channel=0 note=65 velocity=27 time=0
note_on channel=0 note=65 velocity=0 time=80
note_on channel=0 note=61 velocity=27 time=0
note_on channel=0 note=61 velocity=0 time=20
note_on channel=0 note=61 velocity=27 time=20
note_on channel=0 note=61 velocity=0 time=60
note_on channel=0 note=46 velocity=0 time=0
note_on channel=0 note=73 velocity=0 time=0
note_on channel=0 note=73 velocity=48 time=0
note_on channel=0 note=67 velocity=30 time=0
note_on channel=0 note=39 velocity=34 time=0
note_on channel=0 note=46 velocity=27 time=0
note_on channel=0 note=46 velocity=0 time=41
note_on channel=0 note=73 velocity=0 time=0
note_on channel=0 note=67 velocity=0 time=0
note_on channel=0 note=72 velocity=47 time=0
note_on channel=0 note=61 velocity=28 time=0
note_on channel=0 note=51 velocity=25 time=0
note_on channel=0 note=51 velocity=0 time=20
note_on channel=0 note=61 velocity=0 time=0
note_on channel=0 note=72 velocity=0 time=20
note_on channel=0 note=70 velocity=47 time=0
note_on channel=0 note=61 velocity=28 time=0
note_on channel=0 note=51 velocity=25 time=0
note_on channel=0 note=51 velocity=0 time=60
note_on channel=0 note=61 velocity=0 time=0
note_on channel=0 note=70 velocity=0 time=0
note_on channel=0 note=39 velocity=0 time=0
note_on channel=0 note=70 velocity=48 time=0
note_on channel=0 note=61 velocity=28 time=0
note_on channel=0 note=39 velocity=30 time=0
note_on channel=0 note=61 velocity=0 time=60
note_on channel=0 note=70 velocity=0 time=20
note_on channel=0 note=68 velocity=46 time=0
note_on channel=0 note=61 velocity=28 time=0
note_on channel=0 note=51 velocity=25 time=0
note_on channel=0 note=51 velocity=0 time=20
note_on channel=0 note=61 velocity=0 time=0
note_on channel=0 note=68 velocity=0 time=20
note_on channel=0 note=67 velocity=46 time=0
note_on channel=0 note=61 velocity=28 time=0
note_on channel=0 note=51 velocity=25 time=0
note_on channel=0 note=51 velocity=0 time=60
note_on channel=0 note=61 velocity=0 time=0
note_on channel=0 note=67 velocity=0 time=0
note_on channel=0 note=39 velocity=0 time=0
note_on channel=0 note=60 velocity=52 time=0
note_on channel=0 note=68 velocity=52 time=0
note_on channel=0 note=44 velocity=29 time=0
note_on channel=0 note=44 velocity=0 time=43
note_on channel=0 note=51 velocity=25 time=0
note_on channel=0 note=51 velocity=0 time=20
note_on channel=0 note=51 velocity=25 time=20
note_on channel=0 note=51 velocity=0 time=60
note_on channel=0 note=68 velocity=0 time=0
note_on channel=0 note=60 velocity=0 time=0
note_on channel=0 note=51 velocity=25 time=0
note_on channel=0 note=51 velocity=0 time=60
note_on channel=0 note=51 velocity=25 time=20
note_on channel=0 note=51 velocity=0 time=20
note_on channel=0 note=51 velocity=25 time=20
note_on channel=0 note=51 velocity=0 time=60
note_on channel=0 note=51 velocity=25 time=0
note_on channel=0 note=51 velocity=0 time=23
note_on channel=0 note=51 velocity=25 time=8
note_on channel=0 note=51 velocity=0 time=72
note_on channel=0 note=51 velocity=25 time=8
note_on channel=0 note=51 velocity=0 time=72
note_on channel=0 note=75 velocity=50 time=0
note_on channel=0 note=51 velocity=26 time=0
note_on channel=0 note=51 velocity=0 time=72
note_on channel=0 note=51 velocity=27 time=8
note_on channel=0 note=51 velocity=0 time=32
note_on channel=0 note=51 velocity=28 time=8
note_on channel=0 note=75 velocity=0 time=20
note_on channel=0 note=76 velocity=50 time=0
note_on channel=0 note=51 velocity=0 time=52
note_on channel=0 note=76 velocity=0 time=0
note_on channel=0 note=77 velocity=55 time=0
note_on channel=0 note=39 velocity=24 time=0
note_on channel=0 note=49 velocity=24 time=0
note_on channel=0 note=51 velocity=30 time=0
note_on channel=0 note=51 velocity=0 time=72
note_on channel=0 note=49 velocity=0 time=0
note_on channel=0 note=39 velocity=0 time=0
note_on channel=0 note=39 velocity=20 time=8
note_on channel=0 note=49 velocity=20 time=0
note_on channel=0 note=51 velocity=25 time=0
note_on channel=0 note=51 velocity=0 time=72
note_on channel=0 note=49 velocity=0 time=0
note_on channel=0 note=39 velocity=0 time=0
note_on channel=0 note=39 velocity=20 time=8
note_on channel=0 note=49 velocity=20 time=0
note_on channel=0 note=51 velocity=25 time=0
note_on channel=0 note=51 velocity=0 time=52
note_on channel=0 note=49 velocity=0 time=0
note_on channel=0 note=39 velocity=0 time=0
note_on channel=0 note=39 velocity=20 time=0
note_on channel=0 note=49 velocity=20 time=0
note_on channel=0 note=51 velocity=25 time=0
note_on channel=0 note=51 velocity=0 time=72
note_on channel=0 note=49 velocity=0 time=0
note_on channel=0 note=39 velocity=0 time=0
note_on channel=0 note=77 velocity=0 time=8
note_on channel=0 note=75 velocity=51 time=0
note_on channel=0 note=39 velocity=20 time=0
note_on channel=0 note=49 velocity=20 time=0
note_on channel=0 note=51 velocity=25 time=0
note_on channel=0 note=51 velocity=0 time=72
note_on channel=0 note=49 velocity=0 time=0
note_on channel=0 note=39 velocity=0 time=0
note_on channel=0 note=75 velocity=0 time=8
note_on channel=0 note=73 velocity=51 time=0
note_on channel=0 note=39 velocity=20 time=0
note_on channel=0 note=49 velocity=20 time=0
note_on channel=0 note=51 velocity=26 time=0
note_on channel=0 note=51 velocity=0 time=72
note_on channel=0 note=49 velocity=0 time=0
note_on channel=0 note=39 velocity=0 time=0
note_on channel=0 note=73 velocity=0 time=0
note_on channel=0 note=72 velocity=52 time=0
note_on channel=0 note=39 velocity=21 time=0
note_on channel=0 note=49 velocity=21 time=0
note_on channel=0 note=51 velocity=26 time=0
note_on channel=0 note=51 velocity=0 time=32
note_on channel=0 note=49 velocity=0 time=0
note_on channel=0 note=39 velocity=0 time=0
note_on channel=0 note=72 velocity=0 time=0
note_on channel=0 note=70 velocity=53 time=0
note_on channel=0 note=39 velocity=21 time=0
note_on channel=0 note=49 velocity=21 time=0
note_on channel=0 note=51 velocity=27 time=0
note_on channel=0 note=51 velocity=0 time=32
note_on channel=0 note=49 velocity=0 time=0
note_on channel=0 note=39 velocity=0 time=0
note_on channel=0 note=70 velocity=0 time=0
note_on channel=0 note=68 velocity=54 time=0
note_on channel=0 note=39 velocity=22 time=0
note_on channel=0 note=49 velocity=22 time=0
note_on channel=0 note=51 velocity=27 time=0
note_on channel=0 note=51 velocity=0 time=2
note_on channel=0 note=49 velocity=0 time=0
note_on channel=0 note=39 velocity=0 time=0
note_on channel=0 note=68 velocity=0 time=0
note_on channel=0 note=67 velocity=58 time=0
note_on channel=0 note=39 velocity=20 time=0
note_on channel=0 note=49 velocity=20 time=0
note_on channel=0 note=51 velocity=25 time=0
note_on channel=0 note=67 velocity=0 time=60
note_on channel=0 note=73 velocity=53 time=0
note_on channel=0 note=39 velocity=0 time=12
note_on channel=0 note=51 velocity=0 time=0
note_on channel=0 note=49 velocity=0 time=0
note_on channel=0 note=39 velocity=20 time=8
note_on channel=0 note=49 velocity=20 time=0
note_on channel=0 note=51 velocity=25 time=0
note_on channel=0 note=73 velocity=0 time=40
note_on channel=0 note=70 velocity=51 time=0
note_on channel=0 note=39 velocity=0 time=32
note_on channel=0 note=51 velocity=0 time=0
note_on channel=0 note=49 velocity=0 time=0
note_on channel=0 note=39 velocity=20 time=8
note_on channel=0 note=49 velocity=20 time=0
note_on channel=0 note=51 velocity=25 time=0
note_on channel=0 note=70 velocity=0 time=20
note_on channel=0 note=67 velocity=50 time=0
note_on channel=0 note=39 velocity=0 time=52
note_on channel=0 note=51 velocity=0 time=0
note_on channel=0 note=49 velocity=0 time=0
note_on channel=0 note=67 velocity=0 time=0
note_on channel=0 note=68 velocity=52 time=0
note_on channel=0 note=44 velocity=20 time=0
note_on channel=0 note=48 velocity=20 time=0
note_on channel=0 note=51 velocity=25 time=0
note_on channel=0 note=51 velocity=0 time=72
note_on channel=0 note=48 velocity=0 time=0
note_on channel=0 note=44 velocity=0 time=0
note_on channel=0 note=68 velocity=0 time=8
note_on channel=0 note=70 velocity=45 time=0
note_on channel=0 note=51 velocity=25 time=0
note_on channel=0 note=70 velocity=0 time=26
note_on channel=0 note=68 velocity=39 time=0
note_on channel=0 note=68 velocity=0 time=26
note_on channel=0 note=67 velocity=39 time=0
note_on channel=0 note=51 velocity=0 time=20
note_on channel=0 note=67 velocity=0 time=6
note_on channel=0 note=68 velocity=44 time=0
note_on channel=0 note=51 velocity=25 time=0
note_on channel=0 note=68 velocity=0 time=0
note_on channel=0 note=72 velocity=46 time=0
note_on channel=0 note=51 velocity=0 time=12
note_on channel=0 note=72 velocity=0 time=0
note_on channel=0 note=63 velocity=46 time=0
note_on channel=0 note=51 velocity=25 time=0
note_on channel=0 note=51 velocity=0 time=72
note_on channel=0 note=51 velocity=25 time=8
note_on channel=0 note=51 velocity=0 time=72
note_on channel=0 note=51 velocity=25 time=8
note_on channel=0 note=51 velocity=0 time=72
note_on channel=0 note=63 velocity=0 time=0
note_on channel=0 note=51 velocity=25 time=0
note_on channel=0 note=51 velocity=0 time=23
note_on channel=0 note=51 velocity=25 time=8
note_on channel=0 note=51 velocity=0 time=72
note_on channel=0 note=51 velocity=25 time=8
note_on channel=0 note=51 velocity=0 time=72
note_on channel=0 note=87 velocity=50 time=0
note_on channel=0 note=75 velocity=42 time=0
note_on channel=0 note=51 velocity=26 time=0
note_on channel=0 note=51 velocity=0 time=72
note_on channel=0 note=51 velocity=27 time=8
note_on channel=0 note=51 velocity=0 time=32
note_on channel=0 note=51 velocity=28 time=8
note_on channel=0 note=75 velocity=0 time=20
note_on channel=0 note=87 velocity=0 time=0
note_on channel=0 note=88 velocity=50 time=0
note_on channel=0 note=76 velocity=42 time=0
note_on channel=0 note=51 velocity=0 time=52
note_on channel=0 note=76 velocity=0 time=0
note_on channel=0 note=88 velocity=0 time=0
note_on channel=0 note=89 velocity=55 time=0
note_on channel=0 note=77 velocity=46 time=0
note_on channel=0 note=39 velocity=24 time=0
note_on channel=0 note=49 velocity=24 time=0
note_on channel=0 note=51 velocity=30 time=0
note_on channel=0 note=51 velocity=0 time=72
note_on channel=0 note=39 velocity=0 time=0
note_on channel=0 note=49 velocity=0 time=0
note_on channel=0 note=39 velocity=20 time=8
note_on channel=0 note=49 velocity=20 time=0
note_on channel=0 note=51 velocity=25 time=0
note_on channel=0 note=51 velocity=0 time=72
note_on channel=0 note=39 velocity=0 time=0
note_on channel=0 note=49 velocity=0 time=0
note_on channel=0 note=39 velocity=20 time=8
note_on channel=0 note=49 velocity=20 time=0
note_on channel=0 note=51 velocity=25 time=0
note_on channel=0 note=51 velocity=0 time=52
note_on channel=0 note=39 velocity=0 time=0
note_on channel=0 note=49 velocity=0 time=0
note_on channel=0 note=39 velocity=20 time=0
note_on channel=0 note=49 velocity=20 time=0
note_on channel=0 note=51 velocity=25 time=0
note_on channel=0 note=51 velocity=0 time=72
note_on channel=0 note=39 velocity=0 time=0
note_on channel=0 note=49 velocity=0 time=0
note_on channel=0 note=77 velocity=0 time=8
note_on channel=0 note=89 velocity=0 time=0
note_on channel=0 note=87 velocity=51 time=0
note_on channel=0 note=75 velocity=43 time=0
note_on channel=0 note=39 velocity=20 time=0
note_on channel=0 note=49 velocity=20 time=0
note_on channel=0 note=51 velocity=25 time=0
note_on channel=0 note=51 velocity=0 time=72
note_on channel=0 note=39 velocity=0 time=0
note_on channel=0 note=49 velocity=0 time=0
note_on channel=0 note=75 velocity=0 time=8
note_on channel=0 note=87 velocity=0 time=0
note_on channel=0 note=85 velocity=53 time=0
note_on channel=0 note=73 velocity=45 time=0
note_on channel=0 note=39 velocity=20 time=0
note_on channel=0 note=49 velocity=20 time=0
note_on channel=0 note=51 velocity=26 time=0
note_on channel=0 note=51 velocity=0 time=72
note_on channel=0 note=39 velocity=0 time=0
note_on channel=0 note=49 velocity=0 time=0
note_on channel=0 note=73 velocity=0 time=0
note_on channel=0 note=85 velocity=0 time=0
note_on channel=0 note=84 velocity=53 time=0
note_on channel=0 note=72 velocity=45 time=0
note_on channel=0 note=39 velocity=21 time=0
note_on channel=0 note=49 velocity=21 time=0
note_on channel=0 note=51 velocity=26 time=0
note_on channel=0 note=51 velocity=0 time=32
note_on channel=0 note=39 velocity=0 time=0
note_on channel=0 note=49 velocity=0 time=0
note_on channel=0 note=72 velocity=0 time=0
note_on channel=0 note=84 velocity=0 time=0
note_on channel=0 note=82 velocity=52 time=0
note_on channel=0 note=70 velocity=44 time=0
note_on channel=0 note=39 velocity=21 time=0
note_on channel=0 note=49 velocity=21 time=0
note_on channel=0 note=51 velocity=27 time=0
note_on channel=0 note=51 velocity=0 time=32
note_on channel=0 note=39 velocity=0 time=0
note_on channel=0 note=49 velocity=0 time=0
note_on channel=0 note=70 velocity=0 time=0
note_on channel=0 note=82 velocity=0 time=0
note_on channel=0 note=80 velocity=50 time=0
note_on channel=0 note=68 velocity=42 time=0
note_on channel=0 note=39 velocity=22 time=0
note_on channel=0 note=49 velocity=22 time=0
note_on channel=0 note=51 velocity=27 time=0
note_on channel=0 note=51 velocity=0 time=2
note_on channel=0 note=39 velocity=0 time=0
note_on channel=0 note=49 velocity=0 time=0
note_on channel=0 note=68 velocity=0 time=0
note_on channel=0 note=80 velocity=0 time=0
note_on channel=0 note=67 velocity=43 time=0
note_on channel=0 note=79 velocity=51 time=0
note_on channel=0 note=39 velocity=20 time=0
note_on channel=0 note=49 velocity=20 time=0
note_on channel=0 note=51 velocity=25 time=0
note_on channel=0 note=51 velocity=0 time=72
note_on channel=0 note=39 velocity=0 time=0
note_on channel=0 note=49 velocity=0 time=0
note_on channel=0 note=79 velocity=0 time=8
note_on channel=0 note=67 velocity=0 time=0
note_on channel=0 note=73 velocity=42 time=0
note_on channel=0 note=85 velocity=50 time=0
note_on channel=0 note=39 velocity=20 time=0
note_on channel=0 note=49 velocity=20 time=0
note_on channel=0 note=51 velocity=25 time=0
note_on channel=0 note=51 velocity=0 time=72
note_on channel=0 note=39 velocity=0 time=0
note_on channel=0 note=49 velocity=0 time=0
note_on channel=0 note=85 velocity=0 time=8
note_on channel=0 note=73 velocity=0 time=0
note_on channel=0 note=67 velocity=44 time=0
note_on channel=0 note=79 velocity=52 time=0
note_on channel=0 note=39 velocity=20 time=0
note_on channel=0 note=49 velocity=20 time=0
note_on channel=0 note=51 velocity=25 time=0
note_on channel=0 note=51 velocity=0 time=72
note_on channel=0 note=39 velocity=0 time=0
note_on channel=0 note=49 velocity=0 time=0
note_on channel=0 note=79 velocity=0 time=0
note_on channel=0 note=67 velocity=0 time=0
note_on channel=0 note=80 velocity=52 time=0
note_on channel=0 note=68 velocity=44 time=0
note_on channel=0 note=44 velocity=20 time=0
note_on channel=0 note=48 velocity=20 time=0
note_on channel=0 note=51 velocity=25 time=0
note_on channel=0 note=51 velocity=0 time=240
note_on channel=0 note=44 velocity=0 time=0
note_on channel=0 note=80 velocity=0 time=0
note_on channel=0 note=68 velocity=0 time=0
note_on channel=0 note=48 velocity=0 time=0
note_on channel=0 note=75 velocity=52 time=210
note_on channel=0 note=75 velocity=0 time=30
note_on channel=0 note=73 velocity=63 time=0
note_on channel=0 note=63 velocity=44 time=0
note_on channel=0 note=67 velocity=47 time=0
note_on channel=0 note=73 velocity=0 time=80
note_on channel=0 note=72 velocity=55 time=0
note_on channel=0 note=72 velocity=0 time=80
note_on channel=0 note=73 velocity=55 time=0
note_on channel=0 note=73 velocity=0 time=0
note_on channel=0 note=77 velocity=58 time=0
note_on channel=0 note=77 velocity=0 time=0
note_on channel=0 note=75 velocity=55 time=0
note_on channel=0 note=75 velocity=0 time=0
note_on channel=0 note=73 velocity=54 time=0
note_on channel=0 note=73 velocity=0 time=0
note_on channel=0 note=67 velocity=0 time=0
note_on channel=0 note=63 velocity=0 time=0
note_on channel=0 note=72 velocity=52 time=0
note_on channel=0 note=56 velocity=44 time=0
note_on channel=0 note=68 velocity=44 time=0
note_on channel=0 note=68 velocity=0 time=240
note_on channel=0 note=56 velocity=0 time=0
note_on channel=0 note=72 velocity=0 time=0
note_on channel=0 note=72 velocity=54 time=210
note_on channel=0 note=72 velocity=0 time=30
note_on channel=0 note=67 velocity=47 time=0
note_on channel=0 note=70 velocity=64 time=0
note_on channel=0 note=51 velocity=43 time=0
note_on channel=0 note=61 velocity=45 time=0
note_on channel=0 note=70 velocity=0 time=80
note_on channel=0 note=69 velocity=52 time=0
note_on channel=0 note=69 velocity=0 time=80
note_on channel=0 note=70 velocity=52 time=0
note_on channel=0 note=70 velocity=0 time=0
note_on channel=0 note=73 velocity=54 time=0
note_on channel=0 note=73 velocity=0 time=0
note_on channel=0 note=72 velocity=52 time=0
note_on channel=0 note=72 velocity=0 time=20
note_on channel=0 note=70 velocity=52 time=0
note_on channel=0 note=70 velocity=0 time=0
note_on channel=0 note=61 velocity=0 time=0
note_on channel=0 note=51 velocity=0 time=0
note_on channel=0 note=67 velocity=0 time=0
note_on channel=0 note=68 velocity=46 time=0
note_on channel=0 note=56 velocity=33 time=0
note_on channel=0 note=60 velocity=39 time=0
note_on channel=0 note=60 velocity=0 time=240
note_on channel=0 note=56 velocity=0 time=0
note_on channel=0 note=68 velocity=0 time=0
note_on channel=0 note=60 velocity=54 time=210
note_on channel=0 note=60 velocity=0 time=30
note_on channel=0 note=58 velocity=64 time=0
note_on channel=0 note=55 velocity=44 time=0
note_on channel=0 note=39 velocity=37 time=0
note_on channel=0 note=49 velocity=37 time=0
note_on channel=0 note=58 velocity=0 time=80
note_on channel=0 note=57 velocity=48 time=0
note_on channel=0 note=57 velocity=0 time=80
note_on channel=0 note=58 velocity=48 time=0
note_on channel=0 note=58 velocity=0 time=0
note_on channel=0 note=61 velocity=50 time=0
note_on channel=0 note=61 velocity=0 time=0
note_on channel=0 note=60 velocity=47 time=0
note_on channel=0 note=60 velocity=0 time=0
note_on channel=0 note=58 velocity=44 time=0
note_on channel=0 note=58 velocity=0 time=0
note_on channel=0 note=49 velocity=0 time=0
note_on channel=0 note=39 velocity=0 time=0
note_on channel=0 note=55 velocity=0 time=0
note_on channel=0 note=56 velocity=35 time=0
note_on channel=0 note=44 velocity=25 time=0
note_on channel=0 note=48 velocity=30 time=0
note_on channel=0 note=48 velocity=0 time=120
note_on channel=0 note=44 velocity=0 time=0
note_on channel=0 note=56 velocity=0 time=0
note_on channel=0 note=48 velocity=28 time=120
note_on channel=0 note=51 velocity=28 time=0
note_on channel=0 note=56 velocity=35 time=0
note_on channel=0 note=32 velocity=30 time=0
note_on channel=0 note=32 velocity=0 time=120
note_on channel=0 note=48 velocity=0 time=0
note_on channel=0 note=51 velocity=0 time=0
note_on channel=0 note=56 velocity=0 time=0
note_on channel=0 note=44 velocity=28 time=0
note_on channel=0 note=48 velocity=28 time=0
note_on channel=0 note=56 velocity=35 time=0
note_on channel=0 note=32 velocity=30 time=0
note_on channel=0 note=32 velocity=0 time=381
note_on channel=0 note=44 velocity=0 time=0
note_on channel=0 note=48 velocity=0 time=0
note_on channel=0 note=56 velocity=0 time=0
