control_change channel=0 control=7 value=100 time=0
control_change channel=0 control=10 value=64 time=0
control_change channel=0 control=91 value=127 time=0
control_change channel=0 control=7 value=100 time=0
control_change channel=0 control=10 value=64 time=0
control_change channel=0 control=64 value=0 time=0
note_on channel=0 note=67 velocity=48 time=0
note_on channel=0 note=67 velocity=0 time=120
note_on channel=0 note=72 velocity=49 time=120
note_on channel=0 note=72 velocity=0 time=120
note_on channel=0 note=74 velocity=51 time=0
note_on channel=0 note=74 velocity=0 time=120
note_on channel=0 note=75 velocity=52 time=0
note_on channel=0 note=48 velocity=40 time=0
note_on channel=0 note=48 velocity=0 time=0
note_on channel=0 note=51 velocity=36 time=0
note_on channel=0 note=51 velocity=0 time=240
note_on channel=0 note=55 velocity=36 time=0
note_on channel=0 note=55 velocity=0 time=0
note_on channel=0 note=75 velocity=0 time=0
note_on channel=0 note=77 velocity=50 time=0
note_on channel=0 note=60 velocity=36 time=0
note_on channel=0 note=60 velocity=0 time=0
note_on channel=0 note=77 velocity=0 time=0
note_on channel=0 note=74 velocity=53 time=0
note_on channel=0 note=48 velocity=40 time=0
note_on channel=0 note=48 velocity=0 time=0
note_on channel=0 note=53 velocity=40 time=0
note_on channel=0 note=53 velocity=0 time=240
note_on channel=0 note=55 velocity=36 time=0
note_on channel=0 note=55 velocity=0 time=0
note_on channel=0 note=74 velocity=0 time=0
note_on channel=0 note=75 velocity=50 time=0
note_on channel=0 note=59 velocity=36 time=0
note_on channel=0 note=59 velocity=0 time=0
note_on channel=0 note=75 velocity=0 time=0
note_on channel=0 note=72 velocity=52 time=0
note_on channel=0 note=48 velocity=40 time=0
note_on channel=0 note=48 velocity=0 time=240
note_on channel=0 note=51 velocity=40 time=0
note_on channel=0 note=51 velocity=0 time=240
note_on channel=0 note=55 velocity=36 time=0
note_on channel=0 note=55 velocity=0 time=0
note_on channel=0 note=60 velocity=36 time=0
note_on channel=0 note=72 velocity=0 time=180
note_on channel=0 note=74 velocity=48 time=0
note_on channel=0 note=74 velocity=0 time=40
note_on channel=0 note=60 velocity=0 time=0
note_on channel=0 note=72 velocity=52 time=0
note_on channel=0 note=63 velocity=40 time=0
note_on channel=0 note=63 velocity=0 time=240
note_on channel=0 note=72 velocity=0 time=0
note_on channel=0 note=71 velocity=51 time=0
note_on channel=0 note=67 velocity=36 time=0
note_on channel=0 note=67 velocity=0 time=240
note_on channel=0 note=71 velocity=0 time=0
note_on channel=0 note=72 velocity=51 time=0
note_on channel=0 note=63 velocity=36 time=0
note_on channel=0 note=63 velocity=0 time=240
note_on channel=0 note=72 velocity=0 time=0
note_on channel=0 note=74 velocity=50 time=0
note_on channel=0 note=62 velocity=36 time=0
note_on channel=0 note=74 velocity=0 time=180
note_on channel=0 note=77 velocity=49 time=0
note_on channel=0 note=77 velocity=0 time=60
note_on channel=0 note=62 velocity=0 time=0
note_on channel=0 note=75 velocity=56 time=0
note_on channel=0 note=60 velocity=40 time=0
note_on channel=0 note=60 velocity=0 time=240
note_on channel=0 note=75 velocity=0 time=0
note_on channel=0 note=74 velocity=52 time=0
note_on channel=0 note=67 velocity=36 time=0
note_on channel=0 note=67 velocity=0 time=240
note_on channel=0 note=74 velocity=0 time=0
note_on channel=0 note=75 velocity=52 time=0
note_on channel=0 note=60 velocity=36 time=0
note_on channel=0 note=63 velocity=36 time=0
note_on channel=0 note=63 velocity=0 time=0
note_on channel=0 note=60 velocity=0 time=0
note_on channel=0 note=75 velocity=0 time=0
note_on channel=0 note=77 velocity=52 time=0
note_on channel=0 note=67 velocity=36 time=0
note_on channel=0 note=67 velocity=0 time=0
note_on channel=0 note=77 velocity=0 time=0
note_on channel=0 note=79 velocity=56 time=0
note_on channel=0 note=59 velocity=41 time=0
note_on channel=0 note=62 velocity=41 time=0
note_on channel=0 note=62 velocity=0 time=240
note_on channel=0 note=59 velocity=0 time=0
note_on channel=0 note=79 velocity=0 time=0
note_on channel=0 note=67 velocity=36 time=0
note_on channel=0 note=67 velocity=0 time=240
note_on channel=0 note=79 velocity=55 time=0
note_on channel=0 note=60 velocity=36 time=0
note_on channel=0 note=56 velocity=36 time=0
note_on channel=0 note=56 velocity=0 time=240
note_on channel=0 note=60 velocity=0 time=0
note_on channel=0 note=79 velocity=0 time=0
note_on channel=0 note=67 velocity=36 time=0
note_on channel=0 note=67 velocity=0 time=240
note_on channel=0 note=79 velocity=57 time=0
note_on channel=0 note=55 velocity=40 time=0
note_on channel=0 note=55 velocity=0 time=240
note_on channel=0 note=59 velocity=29 time=0
note_on channel=0 note=59 velocity=0 time=240
note_on channel=0 note=62 velocity=28 time=0
note_on channel=0 note=62 velocity=0 time=240
note_on channel=0 note=67 velocity=28 time=0
note_on channel=0 note=67 velocity=0 time=0
note_on channel=0 note=55 velocity=40 time=0
note_on channel=0 note=55 velocity=0 time=240
note_on channel=0 note=59 velocity=31 time=0
note_on channel=0 note=59 velocity=0 time=240
note_on channel=0 note=79 velocity=0 time=0
note_on channel=0 note=77 velocity=51 time=0
note_on channel=0 note=62 velocity=31 time=0
note_on channel=0 note=62 velocity=0 time=0
note_on channel=0 note=77 velocity=0 time=0
note_on channel=0 note=79 velocity=53 time=0
note_on channel=0 note=67 velocity=31 time=0
note_on channel=0 note=79 velocity=0 time=0
note_on channel=0 note=77 velocity=48 time=0
note_on channel=0 note=77 velocity=0 time=60
note_on channel=0 note=79 velocity=48 time=0
note_on channel=0 note=79 velocity=0 time=0
note_on channel=0 note=67 velocity=0 time=0
note_on channel=0 note=80 velocity=56 time=0
note_on channel=0 note=53 velocity=40 time=0
note_on channel=0 note=53 velocity=0 time=0
note_on channel=0 note=56 velocity=36 time=0
note_on channel=0 note=56 velocity=0 time=240
note_on channel=0 note=59 velocity=37 time=0
note_on channel=0 note=59 velocity=0 time=240
note_on channel=0 note=62 velocity=37 time=0
note_on channel=0 note=62 velocity=0 time=0
note_on channel=0 note=80 velocity=0 time=0
note_on channel=0 note=74 velocity=52 time=0
note_on channel=0 note=53 velocity=40 time=0
note_on channel=0 note=53 velocity=0 time=240
note_on channel=0 note=56 velocity=36 time=0
note_on channel=0 note=56 velocity=0 time=240
note_on channel=0 note=74 velocity=0 time=0
note_on channel=0 note=75 velocity=51 time=0
note_on channel=0 note=59 velocity=36 time=0
note_on channel=0 note=59 velocity=0 time=0
note_on channel=0 note=75 velocity=0 time=0
note_on channel=0 note=77 velocity=53 time=0
note_on channel=0 note=62 velocity=36 time=0
note_on channel=0 note=77 velocity=0 time=0
note_on channel=0 note=75 velocity=50 time=0
note_on channel=0 note=75 velocity=0 time=60
note_on channel=0 note=77 velocity=50 time=0
note_on channel=0 note=77 velocity=0 time=0
note_on channel=0 note=62 velocity=0 time=0
note_on channel=0 note=79 velocity=56 time=0
note_on channel=0 note=51 velocity=40 time=0
note_on channel=0 note=51 velocity=0 time=0
note_on channel=0 note=55 velocity=34 time=0
note_on channel=0 note=55 velocity=0 time=240
note_on channel=0 note=60 velocity=34 time=0
note_on channel=0 note=60 velocity=0 time=240
note_on channel=0 note=63 velocity=33 time=0
note_on channel=0 note=63 velocity=0 time=0
note_on channel=0 note=79 velocity=0 time=0
note_on channel=0 note=72 velocity=52 time=0
note_on channel=0 note=56 velocity=41 time=0
note_on channel=0 note=56 velocity=0 time=240
note_on channel=0 note=60 velocity=35 time=0
note_on channel=0 note=72 velocity=0 time=234
note_on channel=0 note=60 velocity=0 time=6
note_on channel=0 note=72 velocity=53 time=0
note_on channel=0 note=63 velocity=35 time=0
note_on channel=0 note=63 velocity=0 time=0
note_on channel=0 note=72 velocity=0 time=0
note_on channel=0 note=74 velocity=54 time=0
note_on channel=0 note=66 velocity=35 time=0
note_on channel=0 note=66 velocity=0 time=0
note_on channel=0 note=74 velocity=0 time=0
note_on channel=0 note=75 velocity=57 time=0
note_on channel=0 note=55 velocity=40 time=0
note_on channel=0 note=55 velocity=0 time=0
note_on channel=0 note=75 velocity=0 time=0
note_on channel=0 note=60 velocity=40 time=0
note_on channel=0 note=60 velocity=0 time=240
note_on channel=0 note=75 velocity=53 time=0
note_on channel=0 note=63 velocity=35 time=0
note_on channel=0 note=63 velocity=0 time=240
note_on channel=0 note=75 velocity=0 time=0
note_on channel=0 note=77 velocity=46 time=0
note_on channel=0 note=67 velocity=35 time=0
note_on channel=0 note=67 velocity=0 time=0
note_on channel=0 note=77 velocity=0 time=0
note_on channel=0 note=74 velocity=57 time=0
note_on channel=0 note=55 velocity=40 time=0
note_on channel=0 note=55 velocity=0 time=0
note_on channel=0 note=74 velocity=0 time=0
note_on channel=0 note=59 velocity=36 time=0
note_on channel=0 note=59 velocity=0 time=240
note_on channel=0 note=74 velocity=51 time=0
note_on channel=0 note=62 velocity=36 time=0
note_on channel=0 note=62 velocity=0 time=0
note_on channel=0 note=74 velocity=0 time=0
note_on channel=0 note=75 velocity=54 time=0
note_on channel=0 note=67 velocity=36 time=0
note_on channel=0 note=67 velocity=0 time=0
note_on channel=0 note=75 velocity=0 time=0
note_on channel=0 note=72 velocity=57 time=0
note_on channel=0 note=48 velocity=38 time=0
note_on channel=0 note=48 velocity=0 time=0
note_on channel=0 note=72 velocity=0 time=0
note_on channel=0 note=51 velocity=42 time=0
note_on channel=0 note=51 velocity=0 time=240
note_on channel=0 note=55 velocity=45 time=0
note_on channel=0 note=55 velocity=0 time=0
note_on channel=0 note=60 velocity=49 time=0
note_on channel=0 note=60 velocity=0 time=480
note_on channel=0 note=77 velocity=56 time=0
note_on channel=0 note=77 velocity=0 time=0
note_on channel=0 note=79 velocity=58 time=0
note_on channel=0 note=79 velocity=0 time=0
note_on channel=0 note=68 velocity=51 time=0
note_on channel=0 note=80 velocity=61 time=0
note_on channel=0 note=41 velocity=43 time=0
note_on channel=0 note=41 velocity=0 time=240
note_on channel=0 note=47 velocity=45 time=0
note_on channel=0 note=47 velocity=0 time=240
note_on channel=0 note=50 velocity=47 time=0
note_on channel=0 note=50 velocity=0 time=0
note_on channel=0 note=80 velocity=0 time=0
note_on channel=0 note=68 velocity=0 time=0
note_on channel=0 note=74 velocity=57 time=0
note_on channel=0 note=53 velocity=49 time=0
note_on channel=0 note=53 velocity=0 time=240
note_on channel=0 note=56 velocity=43 time=0
note_on channel=0 note=56 velocity=0 time=240
note_on channel=0 note=74 velocity=0 time=0
note_on channel=0 note=75 velocity=56 time=0
note_on channel=0 note=55 velocity=43 time=0
note_on channel=0 note=55 velocity=0 time=0
note_on channel=0 note=75 velocity=0 time=0
note_on channel=0 note=77 velocity=58 time=0
note_on channel=0 note=53 velocity=43 time=0
note_on channel=0 note=53 velocity=0 time=0
note_on channel=0 note=77 velocity=0 time=0
note_on channel=0 note=67 velocity=51 time=0
note_on channel=0 note=79 velocity=61 time=0
note_on channel=0 note=39 velocity=40 time=0
note_on channel=0 note=39 velocity=0 time=240
note_on channel=0 note=43 velocity=42 time=0
note_on channel=0 note=43 velocity=0 time=240
note_on channel=0 note=48 velocity=45 time=0
note_on channel=0 note=48 velocity=0 time=0
note_on channel=0 note=79 velocity=0 time=0
note_on channel=0 note=67 velocity=0 time=0
note_on channel=0 note=72 velocity=57 time=0
note_on channel=0 note=51 velocity=48 time=0
note_on channel=0 note=51 velocity=0 time=240
note_on channel=0 note=55 velocity=40 time=0
note_on channel=0 note=55 velocity=0 time=240
note_on channel=0 note=72 velocity=0 time=0
note_on channel=0 note=72 velocity=58 time=0
note_on channel=0 note=56 velocity=39 time=0
note_on channel=0 note=56 velocity=0 time=0
note_on channel=0 note=72 velocity=0 time=0
note_on channel=0 note=74 velocity=59 time=0
note_on channel=0 note=54 velocity=39 time=0
note_on channel=0 note=54 velocity=0 time=0
note_on channel=0 note=74 velocity=0 time=0
note_on channel=0 note=75 velocity=62 time=0
note_on channel=0 note=43 velocity=48 time=0
note_on channel=0 note=43 velocity=0 time=0
note_on channel=0 note=75 velocity=0 time=0
note_on channel=0 note=55 velocity=44 time=0
note_on channel=0 note=55 velocity=0 time=240
note_on channel=0 note=75 velocity=58 time=0
note_on channel=0 note=60 velocity=38 time=0
note_on channel=0 note=60 velocity=0 time=240
note_on channel=0 note=75 velocity=0 time=0
note_on channel=0 note=77 velocity=60 time=0
note_on channel=0 note=55 velocity=38 time=0
note_on channel=0 note=55 velocity=0 time=0
note_on channel=0 note=77 velocity=0 time=0
note_on channel=0 note=74 velocity=62 time=0
note_on channel=0 note=43 velocity=48 time=0
note_on channel=0 note=43 velocity=0 time=0
note_on channel=0 note=74 velocity=0 time=0
note_on channel=0 note=55 velocity=39 time=0
note_on channel=0 note=55 velocity=0 time=240
note_on channel=0 note=74 velocity=56 time=0
note_on channel=0 note=59 velocity=39 time=0
note_on channel=0 note=59 velocity=0 time=0
note_on channel=0 note=74 velocity=0 time=0
note_on channel=0 note=75 velocity=59 time=0
note_on channel=0 note=55 velocity=39 time=0
note_on channel=0 note=55 velocity=0 time=0
note_on channel=0 note=75 velocity=0 time=0
note_on channel=0 note=72 velocity=62 time=0
note_on channel=0 note=48 velocity=52 time=0
note_on channel=0 note=48 velocity=0 time=0
note_on channel=0 note=72 velocity=0 time=0
note_on channel=0 note=60 velocity=45 time=0
note_on channel=0 note=60 velocity=0 time=0
note_on channel=0 note=82 velocity=74 time=0
note_on channel=0 note=59 velocity=45 time=0
note_on channel=0 note=59 velocity=0 time=240
note_on channel=0 note=60 velocity=45 time=0
note_on channel=0 note=60 velocity=0 time=240
note_on channel=0 note=52 velocity=52 time=0
note_on channel=0 note=52 velocity=0 time=240
note_on channel=0 note=60 velocity=48 time=0
note_on channel=0 note=60 velocity=0 time=240
note_on channel=0 note=82 velocity=0 time=0
note_on channel=0 note=82 velocity=73 time=0
note_on channel=0 note=55 velocity=48 time=0
note_on channel=0 note=55 velocity=0 time=240
note_on channel=0 note=60 velocity=48 time=0
note_on channel=0 note=60 velocity=0 time=240
note_on channel=0 note=53 velocity=53 time=0
note_on channel=0 note=53 velocity=0 time=240
note_on channel=0 note=82 velocity=0 time=0
note_on channel=0 note=80 velocity=71 time=0
note_on channel=0 note=60 velocity=49 time=0
note_on channel=0 note=60 velocity=0 time=0
note_on channel=0 note=80 velocity=0 time=0
note_on channel=0 note=79 velocity=72 time=0
note_on channel=0 note=56 velocity=50 time=0
note_on channel=0 note=56 velocity=0 time=240
note_on channel=0 note=79 velocity=0 time=0
note_on channel=0 note=77 velocity=72 time=0
note_on channel=0 note=60 velocity=49 time=0
note_on channel=0 note=60 velocity=0 time=240
note_on channel=0 note=77 velocity=0 time=0
note_on channel=0 note=75 velocity=71 time=0
note_on channel=0 note=55 velocity=54 time=0
note_on channel=0 note=55 velocity=0 time=240
note_on channel=0 note=75 velocity=0 time=0
note_on channel=0 note=74 velocity=71 time=0
note_on channel=0 note=65 velocity=52 time=0
note_on channel=0 note=65 velocity=0 time=240
note_on channel=0 note=74 velocity=0 time=0
note_on channel=0 note=72 velocity=71 time=0
note_on channel=0 note=59 velocity=46 time=0
note_on channel=0 note=59 velocity=0 time=240
note_on channel=0 note=72 velocity=0 time=0
note_on channel=0 note=71 velocity=71 time=0
note_on channel=0 note=65 velocity=50 time=0
note_on channel=0 note=65 velocity=0 time=0
note_on channel=0 note=71 velocity=0 time=0
note_on channel=0 note=72 velocity=73 time=0
note_on channel=0 note=56 velocity=54 time=0
note_on channel=0 note=56 velocity=0 time=0
note_on channel=0 note=72 velocity=0 time=0
note_on channel=0 note=63 velocity=47 time=0
note_on channel=0 note=63 velocity=0 time=0
note_on channel=0 note=72 velocity=67 time=0
note_on channel=0 note=84 velocity=79 time=0
note_on channel=0 note=60 velocity=47 time=0
note_on channel=0 note=60 velocity=0 time=240
note_on channel=0 note=63 velocity=47 time=0
note_on channel=0 note=63 velocity=0 time=240
note_on channel=0 note=55 velocity=62 time=0
note_on channel=0 note=55 velocity=0 time=240
note_on channel=0 note=64 velocity=54 time=0
note_on channel=0 note=64 velocity=0 time=240
note_on channel=0 note=84 velocity=0 time=0
note_on channel=0 note=72 velocity=0 time=0
note_on channel=0 note=82 velocity=80 time=0
note_on channel=0 note=60 velocity=55 time=0
note_on channel=0 note=60 velocity=0 time=240
note_on channel=0 note=64 velocity=55 time=0
note_on channel=0 note=64 velocity=0 time=240
note_on channel=0 note=53 velocity=64 time=0
note_on channel=0 note=53 velocity=0 time=240
note_on channel=0 note=82 velocity=0 time=0
note_on channel=0 note=80 velocity=81 time=0
note_on channel=0 note=65 velocity=57 time=0
note_on channel=0 note=65 velocity=0 time=0
note_on channel=0 note=80 velocity=0 time=0
note_on channel=0 note=79 velocity=82 time=0
note_on channel=0 note=60 velocity=58 time=0
note_on channel=0 note=60 velocity=0 time=240
note_on channel=0 note=79 velocity=0 time=0
note_on channel=0 note=77 velocity=81 time=0
note_on channel=0 note=65 velocity=57 time=0
note_on channel=0 note=65 velocity=0 time=240
note_on channel=0 note=77 velocity=0 time=0
note_on channel=0 note=75 velocity=79 time=0
note_on channel=0 note=55 velocity=63 time=0
note_on channel=0 note=55 velocity=0 time=240
note_on channel=0 note=75 velocity=0 time=0
note_on channel=0 note=74 velocity=79 time=0
note_on channel=0 note=67 velocity=57 time=0
note_on channel=0 note=67 velocity=0 time=240
note_on channel=0 note=74 velocity=0 time=0
note_on channel=0 note=72 velocity=79 time=0
note_on channel=0 note=55 velocity=57 time=0
note_on channel=0 note=55 velocity=0 time=240
note_on channel=0 note=72 velocity=0 time=0
note_on channel=0 note=71 velocity=78 time=0
note_on channel=0 note=67 velocity=56 time=0
note_on channel=0 note=67 velocity=0 time=0
note_on channel=0 note=71 velocity=0 time=0
note_on channel=0 note=72 velocity=89 time=0
note_on channel=0 note=60 velocity=68 time=0
note_on channel=0 note=60 velocity=0 time=240
note_on channel=0 note=72 velocity=0 time=0
note_on channel=0 note=74 velocity=81 time=0
note_on channel=0 note=55 velocity=62 time=0
note_on channel=0 note=59 velocity=62 time=0
note_on channel=0 note=74 velocity=0 time=80
note_on channel=0 note=75 velocity=81 time=0
note_on channel=0 note=75 velocity=0 time=80
note_on channel=0 note=74 velocity=81 time=0
note_on channel=0 note=74 velocity=0 time=80
note_on channel=0 note=59 velocity=0 time=0
note_on channel=0 note=55 velocity=0 time=0
note_on channel=0 note=75 velocity=81 time=0
note_on channel=0 note=75 velocity=0 time=60
note_on channel=0 note=74 velocity=81 time=0
note_on channel=0 note=74 velocity=0 time=60
note_on channel=0 note=72 velocity=80 time=0
note_on channel=0 note=72 velocity=0 time=60
note_on channel=0 note=74 velocity=80 time=0
note_on channel=0 note=74 velocity=0 time=0
note_on channel=0 note=75 velocity=92 time=0
note_on channel=0 note=48 velocity=62 time=0
note_on channel=0 note=60 velocity=62 time=0
note_on channel=0 note=60 velocity=0 time=240
note_on channel=0 note=48 velocity=0 time=0
note_on channel=0 note=75 velocity=0 time=0
note_on channel=0 note=71 velocity=92 time=0
note_on channel=0 note=74 velocity=92 time=0
note_on channel=0 note=83 velocity=92 time=0
note_on channel=0 note=43 velocity=62 time=0
note_on channel=0 note=55 velocity=62 time=0
note_on channel=0 note=55 velocity=0 time=240
note_on channel=0 note=83 velocity=0 time=0
note_on channel=0 note=71 velocity=0 time=0
note_on channel=0 note=74 velocity=0 time=0
note_on channel=0 note=43 velocity=0 time=0
note_on channel=0 note=72 velocity=92 time=240
note_on channel=0 note=75 velocity=92 time=0
note_on channel=0 note=84 velocity=92 time=0
note_on channel=0 note=36 velocity=69 time=0
note_on channel=0 note=48 velocity=69 time=0
note_on channel=0 note=48 velocity=0 time=240
note_on channel=0 note=84 velocity=0 time=0
note_on channel=0 note=72 velocity=0 time=0
note_on channel=0 note=75 velocity=0 time=0
note_on channel=0 note=36 velocity=0 time=0
note_on channel=0 note=55 velocity=73 time=0
note_on channel=0 note=60 velocity=73 time=0
note_on channel=0 note=64 velocity=86 time=0
note_on channel=0 note=34 velocity=58 time=0
note_on channel=0 note=46 velocity=69 time=0
note_on channel=0 note=46 velocity=0 time=0
note_on channel=0 note=64 velocity=0 time=0
note_on channel=0 note=55 velocity=0 time=0
note_on channel=0 note=60 velocity=0 time=0
note_on channel=0 note=34 velocity=0 time=0
note_on channel=0 note=65 velocity=50 time=0
note_on channel=0 note=32 velocity=57 time=0
note_on channel=0 note=44 velocity=68 time=0
note_on channel=0 note=65 velocity=0 time=0
note_on channel=0 note=72 velocity=51 time=0
note_on channel=0 note=72 velocity=0 time=0
note_on channel=0 note=44 velocity=0 time=0
note_on channel=0 note=32 velocity=0 time=0
note_on channel=0 note=68 velocity=53 time=0
note_on channel=0 note=68 velocity=0 time=0
note_on channel=0 note=77 velocity=54 time=0
note_on channel=0 note=77 velocity=0 time=0
note_on channel=0 note=72 velocity=55 time=0
note_on channel=0 note=72 velocity=0 time=0
note_on channel=0 note=80 velocity=56 time=0
note_on channel=0 note=80 velocity=0 time=0
note_on channel=0 note=77 velocity=57 time=0
note_on channel=0 note=77 velocity=0 time=0
note_on channel=0 note=84 velocity=59 time=0
note_on channel=0 note=84 velocity=0 time=40
note_on channel=0 note=82 velocity=59 time=0
note_on channel=0 note=82 velocity=0 time=240
note_on channel=0 note=79 velocity=59 time=0
note_on channel=0 note=79 velocity=0 time=240
note_on channel=0 note=76 velocity=58 time=0
note_on channel=0 note=52 velocity=46 time=0
note_on channel=0 note=60 velocity=55 time=0
note_on channel=0 note=76 velocity=0 time=240
note_on channel=0 note=72 velocity=57 time=0
note_on channel=0 note=72 velocity=0 time=0
note_on channel=0 note=60 velocity=0 time=0
note_on channel=0 note=52 velocity=0 time=0
note_on channel=0 note=70 velocity=56 time=0
note_on channel=0 note=52 velocity=46 time=0
note_on channel=0 note=60 velocity=55 time=0
note_on channel=0 note=70 velocity=0 time=240
note_on channel=0 note=71 velocity=55 time=0
note_on channel=0 note=71 velocity=0 time=0
note_on channel=0 note=60 velocity=0 time=0
note_on channel=0 note=52 velocity=0 time=0
note_on channel=0 note=72 velocity=55 time=0
note_on channel=0 note=52 velocity=46 time=0
note_on channel=0 note=60 velocity=55 time=0
note_on channel=0 note=72 velocity=0 time=0
note_on channel=0 note=67 velocity=54 time=0
note_on channel=0 note=67 velocity=0 time=0
note_on channel=0 note=60 velocity=0 time=0
note_on channel=0 note=52 velocity=0 time=0
note_on channel=0 note=70 velocity=60 time=0
note_on channel=0 note=53 velocity=46 time=0
note_on channel=0 note=60 velocity=55 time=0
note_on channel=0 note=70 velocity=0 time=960
note_on channel=0 note=68 velocity=56 time=0
note_on channel=0 note=68 velocity=0 time=480
note_on channel=0 note=60 velocity=0 time=0
note_on channel=0 note=53 velocity=0 time=0
note_on channel=0 note=53 velocity=73 time=0
note_on channel=0 note=58 velocity=73 time=0
note_on channel=0 note=62 velocity=86 time=0
note_on channel=0 note=32 velocity=58 time=0
note_on channel=0 note=44 velocity=69 time=0
note_on channel=0 note=44 velocity=0 time=0
note_on channel=0 note=62 velocity=0 time=0
note_on channel=0 note=53 velocity=0 time=0
note_on channel=0 note=58 velocity=0 time=0
note_on channel=0 note=32 velocity=0 time=0
note_on channel=0 note=63 velocity=50 time=0
note_on channel=0 note=31 velocity=57 time=0
note_on channel=0 note=43 velocity=68 time=0
note_on channel=0 note=63 velocity=0 time=0
note_on channel=0 note=70 velocity=51 time=0
note_on channel=0 note=70 velocity=0 time=0
note_on channel=0 note=43 velocity=0 time=0
note_on channel=0 note=31 velocity=0 time=0
note_on channel=0 note=67 velocity=53 time=0
note_on channel=0 note=67 velocity=0 time=0
note_on channel=0 note=75 velocity=54 time=0
note_on channel=0 note=75 velocity=0 time=0
note_on channel=0 note=70 velocity=55 time=0
note_on channel=0 note=70 velocity=0 time=0
note_on channel=0 note=79 velocity=56 time=0
note_on channel=0 note=79 velocity=0 time=0
note_on channel=0 note=75 velocity=57 time=0
note_on channel=0 note=75 velocity=0 time=0
note_on channel=0 note=82 velocity=59 time=0
note_on channel=0 note=82 velocity=0 time=40
note_on channel=0 note=80 velocity=59 time=0
note_on channel=0 note=80 velocity=0 time=240
note_on channel=0 note=79 velocity=59 time=0
note_on channel=0 note=79 velocity=0 time=240
note_on channel=0 note=77 velocity=58 time=0
note_on channel=0 note=50 velocity=46 time=0
note_on channel=0 note=58 velocity=55 time=0
note_on channel=0 note=77 velocity=0 time=240
note_on channel=0 note=75 velocity=57 time=0
note_on channel=0 note=75 velocity=0 time=0
note_on channel=0 note=58 velocity=0 time=0
note_on channel=0 note=50 velocity=0 time=0
note_on channel=0 note=74 velocity=56 time=0
note_on channel=0 note=50 velocity=46 time=0
note_on channel=0 note=58 velocity=55 time=0
note_on channel=0 note=74 velocity=0 time=240
note_on channel=0 note=72 velocity=55 time=0
note_on channel=0 note=72 velocity=0 time=0
note_on channel=0 note=58 velocity=0 time=0
note_on channel=0 note=50 velocity=0 time=0
note_on channel=0 note=70 velocity=55 time=0
note_on channel=0 note=50 velocity=46 time=0
note_on channel=0 note=58 velocity=55 time=0
note_on channel=0 note=70 velocity=0 time=0
note_on channel=0 note=68 velocity=54 time=0
note_on channel=0 note=68 velocity=0 time=0
note_on channel=0 note=58 velocity=0 time=0
note_on channel=0 note=50 velocity=0 time=0
note_on channel=0 note=67 velocity=60 time=0
note_on channel=0 note=51 velocity=46 time=0
note_on channel=0 note=51 velocity=0 time=240
note_on channel=0 note=67 velocity=0 time=0
note_on channel=0 note=58 velocity=31 time=0
note_on channel=0 note=58 velocity=0 time=0
note_on channel=0 note=70 velocity=60 time=0
note_on channel=0 note=63 velocity=31 time=0
note_on channel=0 note=63 velocity=0 time=240
note_on channel=0 note=58 velocity=31 time=0
note_on channel=0 note=58 velocity=0 time=240
note_on channel=0 note=56 velocity=42 time=0
note_on channel=0 note=56 velocity=0 time=240
note_on channel=0 note=58 velocity=30 time=0
note_on channel=0 note=58 velocity=0 time=240
note_on channel=0 note=70 velocity=0 time=0
note_on channel=0 note=70 velocity=56 time=0
note_on channel=0 note=62 velocity=30 time=0
note_on channel=0 note=62 velocity=0 time=240
note_on channel=0 note=58 velocity=30 time=0
note_on channel=0 note=58 velocity=0 time=0
note_on channel=0 note=55 velocity=42 time=0
note_on channel=0 note=55 velocity=0 time=240
note_on channel=0 note=70 velocity=0 time=0
note_on channel=0 note=72 velocity=54 time=0
note_on channel=0 note=58 velocity=33 time=0
note_on channel=0 note=58 velocity=0 time=40
note_on channel=0 note=72 velocity=0 time=0
note_on channel=0 note=74 velocity=55 time=0
note_on channel=0 note=63 velocity=33 time=0
note_on channel=0 note=63 velocity=0 time=80
note_on channel=0 note=74 velocity=0 time=0
note_on channel=0 note=75 velocity=57 time=0
note_on channel=0 note=58 velocity=34 time=0
note_on channel=0 note=58 velocity=0 time=120
note_on channel=0 note=75 velocity=0 time=0
note_on channel=0 note=77 velocity=58 time=0
note_on channel=0 note=50 velocity=41 time=0
note_on channel=0 note=50 velocity=0 time=160
note_on channel=0 note=77 velocity=0 time=0
note_on channel=0 note=79 velocity=60 time=0
note_on channel=0 note=58 velocity=33 time=0
note_on channel=0 note=58 velocity=0 time=240
note_on channel=0 note=79 velocity=0 time=0
note_on channel=0 note=80 velocity=61 time=0
note_on channel=0 note=62 velocity=33 time=0
note_on channel=0 note=62 velocity=0 time=0
note_on channel=0 note=80 velocity=0 time=0
note_on channel=0 note=77 velocity=58 time=0
note_on channel=0 note=58 velocity=33 time=0
note_on channel=0 note=58 velocity=0 time=0
note_on channel=0 note=77 velocity=0 time=0
note_on channel=0 note=80 velocity=61 time=0
note_on channel=0 note=51 velocity=40 time=0
note_on channel=0 note=51 velocity=0 time=240
note_on channel=0 note=80 velocity=0 time=0
note_on channel=0 note=79 velocity=60 time=0
note_on channel=0 note=58 velocity=35 time=0
note_on channel=0 note=58 velocity=0 time=240
note_on channel=0 note=79 velocity=0 time=0
note_on channel=0 note=77 velocity=59 time=0
note_on channel=0 note=63 velocity=35 time=0
note_on channel=0 note=63 velocity=0 time=0
note_on channel=0 note=77 velocity=0 time=0
note_on channel=0 note=75 velocity=58 time=0
note_on channel=0 note=58 velocity=35 time=0
note_on channel=0 note=75 velocity=0 time=220
note_on channel=0 note=58 velocity=0 time=0
note_on channel=0 note=75 velocity=60 time=0
note_on channel=0 note=56 velocity=40 time=0
note_on channel=0 note=56 velocity=0 time=240
note_on channel=0 note=75 velocity=0 time=0
note_on channel=0 note=74 velocity=58 time=0
note_on channel=0 note=58 velocity=35 time=0
note_on channel=0 note=58 velocity=0 time=240
note_on channel=0 note=74 velocity=0 time=0
note_on channel=0 note=72 velocity=58 time=0
note_on channel=0 note=65 velocity=36 time=0
note_on channel=0 note=65 velocity=0 time=240
note_on channel=0 note=72 velocity=0 time=0
note_on channel=0 note=74 velocity=58 time=0
note_on channel=0 note=58 velocity=36 time=0
note_on channel=0 note=58 velocity=0 time=0
note_on channel=0 note=74 velocity=0 time=0
note_on channel=0 note=77 velocity=63 time=0
note_on channel=0 note=55 velocity=40 time=0
note_on channel=0 note=55 velocity=0 time=240
note_on channel=0 note=77 velocity=0 time=0
note_on channel=0 note=75 velocity=57 time=0
note_on channel=0 note=58 velocity=35 time=0
note_on channel=0 note=58 velocity=0 time=240
note_on channel=0 note=75 velocity=0 time=0
note_on channel=0 note=74 velocity=57 time=0
note_on channel=0 note=63 velocity=36 time=0
note_on channel=0 note=63 velocity=0 time=240
note_on channel=0 note=74 velocity=0 time=0
note_on channel=0 note=72 velocity=57 time=0
note_on channel=0 note=58 velocity=36 time=0
note_on channel=0 note=58 velocity=0 time=240
note_on channel=0 note=72 velocity=0 time=0
note_on channel=0 note=68 velocity=60 time=0
note_on channel=0 note=70 velocity=60 time=0
note_on channel=0 note=50 velocity=40 time=0
note_on channel=0 note=50 velocity=0 time=240
note_on channel=0 note=58 velocity=34 time=0
note_on channel=0 note=70 velocity=0 time=192
note_on channel=0 note=68 velocity=0 time=0
note_on channel=0 note=58 velocity=0 time=48
note_on channel=0 note=68 velocity=60 time=0
note_on channel=0 note=70 velocity=60 time=0
note_on channel=0 note=50 velocity=34 time=0
note_on channel=0 note=50 velocity=0 time=240
note_on channel=0 note=58 velocity=34 time=0
note_on channel=0 note=70 velocity=0 time=192
note_on channel=0 note=68 velocity=0 time=0
note_on channel=0 note=58 velocity=0 time=0
note_on channel=0 note=68 velocity=60 time=0
note_on channel=0 note=70 velocity=60 time=0
note_on channel=0 note=51 velocity=41 time=0
note_on channel=0 note=51 velocity=0 time=200
note_on channel=0 note=68 velocity=0 time=0
note_on channel=0 note=67 velocity=53 time=0
note_on channel=0 note=58 velocity=34 time=0
note_on channel=0 note=58 velocity=0 time=160
note_on channel=0 note=67 velocity=0 time=0
note_on channel=0 note=65 velocity=53 time=0
note_on channel=0 note=51 velocity=34 time=0
note_on channel=0 note=51 velocity=0 time=120
note_on channel=0 note=65 velocity=0 time=0
note_on channel=0 note=63 velocity=53 time=0
note_on channel=0 note=58 velocity=34 time=0
note_on channel=0 note=63 velocity=0 time=100
note_on channel=0 note=58 velocity=0 time=20
note_on channel=0 note=63 velocity=57 time=0
note_on channel=0 note=56 velocity=40 time=0
note_on channel=0 note=56 velocity=0 time=80
note_on channel=0 note=63 velocity=0 time=0
note_on channel=0 note=62 velocity=52 time=0
note_on channel=0 note=58 velocity=34 time=0
note_on channel=0 note=58 velocity=0 time=80
note_on channel=0 note=62 velocity=0 time=0
note_on channel=0 note=60 velocity=52 time=0
note_on channel=0 note=56 velocity=34 time=0
note_on channel=0 note=56 velocity=0 time=40
note_on channel=0 note=60 velocity=0 time=0
note_on channel=0 note=62 velocity=52 time=0
note_on channel=0 note=58 velocity=34 time=0
note_on channel=0 note=58 velocity=0 time=40
note_on channel=0 note=62 velocity=0 time=0
note_on channel=0 note=63 velocity=55 time=0
note_on channel=0 note=54 velocity=40 time=0
note_on channel=0 note=54 velocity=0 time=240
note_on channel=0 note=63 velocity=0 time=0
note_on channel=0 note=70 velocity=0 time=0
note_on channel=0 note=72 velocity=56 time=0
note_on channel=0 note=58 velocity=36 time=0
note_on channel=0 note=58 velocity=0 time=240
note_on channel=0 note=72 velocity=0 time=0
note_on channel=0 note=74 velocity=58 time=0
note_on channel=0 note=54 velocity=37 time=0
note_on channel=0 note=54 velocity=0 time=240
note_on channel=0 note=74 velocity=0 time=0
note_on channel=0 note=75 velocity=59 time=0
note_on channel=0 note=58 velocity=37 time=0
note_on channel=0 note=58 velocity=0 time=240
note_on channel=0 note=75 velocity=0 time=0
note_on channel=0 note=77 velocity=61 time=0
note_on channel=0 note=50 velocity=41 time=0
note_on channel=0 note=50 velocity=0 time=240
note_on channel=0 note=77 velocity=0 time=0
note_on channel=0 note=78 velocity=63 time=0
note_on channel=0 note=58 velocity=36 time=0
note_on channel=0 note=58 velocity=0 time=240
note_on channel=0 note=78 velocity=0 time=0
note_on channel=0 note=80 velocity=64 time=0
note_on channel=0 note=50 velocity=36 time=0
note_on channel=0 note=50 velocity=0 time=240
note_on channel=0 note=80 velocity=0 time=0
note_on channel=0 note=77 velocity=62 time=0
note_on channel=0 note=58 velocity=36 time=0
note_on channel=0 note=58 velocity=0 time=40
note_on channel=0 note=77 velocity=0 time=0
note_on channel=0 note=78 velocity=65 time=0
note_on channel=0 note=51 velocity=39 time=0
control_change channel=0 control=64 value=127 time=80
note_on channel=0 note=51 velocity=0 time=80
note_on channel=0 note=58 velocity=39 time=0
note_on channel=0 note=58 velocity=0 time=120
note_on channel=0 note=78 velocity=0 time=0
note_on channel=0 note=82 velocity=72 time=0
note_on channel=0 note=54 velocity=41 time=0
note_on channel=0 note=54 velocity=0 time=160
note_on channel=0 note=58 velocity=41 time=0
note_on channel=0 note=58 velocity=0 time=40
note_on channel=0 note=46 velocity=42 time=0
control_change channel=0 control=64 value=0 time=11
control_change channel=0 control=64 value=127 time=161
note_on channel=0 note=46 velocity=0 time=68
note_on channel=0 note=58 velocity=43 time=0
note_on channel=0 note=82 velocity=0 time=230
note_on channel=0 note=58 velocity=0 time=10
note_on channel=0 note=82 velocity=74 time=0
note_on channel=0 note=50 velocity=44 time=0
note_on channel=0 note=50 velocity=0 time=240
note_on channel=0 note=58 velocity=45 time=0
note_on channel=0 note=58 velocity=0 time=0
note_on channel=0 note=47 velocity=45 time=0
control_change channel=0 control=64 value=0 time=14
control_change channel=0 control=64 value=127 time=123
note_on channel=0 note=47 velocity=0 time=103
note_on channel=0 note=58 velocity=47 time=0
note_on channel=0 note=58 velocity=0 time=0
note_on channel=0 note=82 velocity=0 time=0
note_on channel=0 note=87 velocity=91 time=0
note_on channel=0 note=51 velocity=51 time=0
note_on channel=0 note=51 velocity=0 time=240
note_on channel=0 note=58 velocity=54 time=0
note_on channel=0 note=58 velocity=0 time=40
note_on channel=0 note=47 velocity=58 time=0
control_change channel=0 control=64 value=0 time=8
control_change channel=0 control=64 value=127 time=0
note_on channel=0 note=47 velocity=0 time=0
note_on channel=0 note=57 velocity=49 time=0
note_on channel=0 note=57 velocity=0 time=0
note_on channel=0 note=87 velocity=0 time=0
note_on channel=0 note=81 velocity=78 time=0
note_on channel=0 note=51 velocity=49 time=0
note_on channel=0 note=51 velocity=0 time=0
note_on channel=0 note=57 velocity=49 time=0
note_on channel=0 note=57 velocity=0 time=0
note_on channel=0 note=81 velocity=0 time=0
note_on channel=0 note=82 velocity=60 time=0
note_on channel=0 note=46 velocity=60 time=0
control_change channel=0 control=64 value=0 time=8
note_on channel=0 note=46 velocity=0 time=0
note_on channel=0 note=58 velocity=46 time=0
note_on channel=0 note=62 velocity=46 time=0
note_on channel=0 note=65 velocity=55 time=0
note_on channel=0 note=65 velocity=0 time=240
note_on channel=0 note=62 velocity=0 time=0
note_on channel=0 note=58 velocity=0 time=0
note_on channel=0 note=58 velocity=59 time=0
note_on channel=0 note=66 velocity=70 time=0
note_on channel=0 note=63 velocity=59 time=0
note_on channel=0 note=82 velocity=0 time=0
note_on channel=0 note=81 velocity=49 time=0
note_on channel=0 note=81 velocity=0 time=160
note_on channel=0 note=82 velocity=51 time=0
note_on channel=0 note=82 velocity=0 time=160
note_on channel=0 note=84 velocity=53 time=0
note_on channel=0 note=84 velocity=0 time=160
note_on channel=0 note=82 velocity=50 time=0
note_on channel=0 note=82 velocity=0 time=160
note_on channel=0 note=81 velocity=50 time=0
note_on channel=0 note=81 velocity=0 time=0
note_on channel=0 note=63 velocity=0 time=0
note_on channel=0 note=66 velocity=0 time=0
note_on channel=0 note=58 velocity=0 time=0
note_on channel=0 note=82 velocity=50 time=0
note_on channel=0 note=58 velocity=46 time=0
note_on channel=0 note=62 velocity=46 time=0
note_on channel=0 note=65 velocity=55 time=0
note_on channel=0 note=65 velocity=0 time=240
note_on channel=0 note=62 velocity=0 time=0
note_on channel=0 note=58 velocity=0 time=0
note_on channel=0 note=58 velocity=59 time=0
note_on channel=0 note=66 velocity=70 time=0
note_on channel=0 note=63 velocity=59 time=0
note_on channel=0 note=82 velocity=0 time=0
note_on channel=0 note=81 velocity=49 time=0
note_on channel=0 note=81 velocity=0 time=160
note_on channel=0 note=82 velocity=51 time=0
note_on channel=0 note=82 velocity=0 time=160
note_on channel=0 note=84 velocity=53 time=0
note_on channel=0 note=84 velocity=0 time=160
note_on channel=0 note=82 velocity=50 time=0
note_on channel=0 note=82 velocity=0 time=160
note_on channel=0 note=81 velocity=50 time=0
note_on channel=0 note=81 velocity=0 time=0
note_on channel=0 note=63 velocity=0 time=0
note_on channel=0 note=66 velocity=0 time=0
note_on channel=0 note=58 velocity=0 time=0
note_on channel=0 note=58 velocity=46 time=0
note_on channel=0 note=62 velocity=46 time=0
note_on channel=0 note=65 velocity=55 time=0
note_on channel=0 note=82 velocity=54 time=0
note_on channel=0 note=82 velocity=0 time=160
note_on channel=0 note=84 velocity=56 time=0
note_on channel=0 note=84 velocity=0 time=160
note_on channel=0 note=65 velocity=0 time=0
note_on channel=0 note=62 velocity=0 time=0
note_on channel=0 note=58 velocity=0 time=0
note_on channel=0 note=86 velocity=58 time=0
note_on channel=0 note=86 velocity=0 time=160
note_on channel=0 note=84 velocity=55 time=0
note_on channel=0 note=84 velocity=0 time=160
note_on channel=0 note=82 velocity=52 time=0
note_on channel=0 note=82 velocity=0 time=0
note_on channel=0 note=58 velocity=46 time=0
note_on channel=0 note=65 velocity=46 time=0
note_on channel=0 note=68 velocity=55 time=0
note_on channel=0 note=86 velocity=54 time=0
note_on channel=0 note=86 velocity=0 time=160
note_on channel=0 note=87 velocity=57 time=0
note_on channel=0 note=87 velocity=0 time=160
note_on channel=0 note=68 velocity=0 time=0
note_on channel=0 note=65 velocity=0 time=0
note_on channel=0 note=58 velocity=0 time=0
note_on channel=0 note=89 velocity=59 time=0
note_on channel=0 note=89 velocity=0 time=160
note_on channel=0 note=87 velocity=57 time=0
note_on channel=0 note=87 velocity=0 time=160
note_on channel=0 note=86 velocity=55 time=0
note_on channel=0 note=86 velocity=0 time=160
note_on channel=0 note=89 velocity=63 time=0
note_on channel=0 note=58 velocity=46 time=0
note_on channel=0 note=62 velocity=46 time=0
note_on channel=0 note=65 velocity=46 time=0
note_on channel=0 note=68 velocity=55 time=0
note_on channel=0 note=89 velocity=0 time=160
note_on channel=0 note=87 velocity=63 time=0
note_on channel=0 note=87 velocity=0 time=160
note_on channel=0 note=86 velocity=62 time=0
note_on channel=0 note=86 velocity=0 time=160
note_on channel=0 note=65 velocity=0 time=0
note_on channel=0 note=58 velocity=0 time=0
note_on channel=0 note=62 velocity=0 time=0
note_on channel=0 note=68 velocity=0 time=0
note_on channel=0 note=84 velocity=61 time=0
note_on channel=0 note=84 velocity=0 time=160
note_on channel=0 note=82 velocity=60 time=0
note_on channel=0 note=82 velocity=0 time=160
note_on channel=0 note=80 velocity=59 time=0
note_on channel=0 note=80 velocity=0 time=40
note_on channel=0 note=79 velocity=59 time=0
note_on channel=0 note=79 velocity=0 time=40
note_on channel=0 note=77 velocity=58 time=0
note_on channel=0 note=77 velocity=0 time=40
note_on channel=0 note=75 velocity=57 time=0
note_on channel=0 note=75 velocity=0 time=40
note_on channel=0 note=74 velocity=56 time=0
note_on channel=0 note=74 velocity=0 time=0
note_on channel=0 note=72 velocity=56 time=0
note_on channel=0 note=72 velocity=0 time=0
note_on channel=0 note=70 velocity=55 time=0
note_on channel=0 note=70 velocity=0 time=0
note_on channel=0 note=68 velocity=54 time=0
note_on channel=0 note=68 velocity=0 time=40
note_on channel=0 note=67 velocity=59 time=0
note_on channel=0 note=51 velocity=55 time=0
note_on channel=0 note=63 velocity=55 time=40
note_on channel=0 note=67 velocity=0 time=10
note_on channel=0 note=65 velocity=55 time=40
note_on channel=0 note=63 velocity=0 time=10
note_on channel=0 note=51 velocity=0 time=80
note_on channel=0 note=67 velocity=59 time=0
note_on channel=0 note=65 velocity=0 time=10
note_on channel=0 note=65 velocity=55 time=80
note_on channel=0 note=67 velocity=0 time=10
note_on channel=0 note=63 velocity=55 time=120
note_on channel=0 note=65 velocity=0 time=10
note_on channel=0 note=68 velocity=59 time=0
note_on channel=0 note=63 velocity=0 time=10
note_on channel=0 note=58 velocity=45 time=80
note_on channel=0 note=60 velocity=48 time=80
note_on channel=0 note=58 velocity=0 time=10
note_on channel=0 note=62 velocity=50 time=80
note_on channel=0 note=60 velocity=0 time=10
note_on channel=0 note=60 velocity=48 time=80
note_on channel=0 note=62 velocity=0 time=10
note_on channel=0 note=58 velocity=45 time=80
note_on channel=0 note=60 velocity=0 time=10
note_on channel=0 note=68 velocity=0 time=0
note_on channel=0 note=67 velocity=59 time=0
note_on channel=0 note=63 velocity=55 time=0
note_on channel=0 note=58 velocity=0 time=10
note_on channel=0 note=75 velocity=55 time=150
note_on channel=0 note=67 velocity=0 time=10
note_on channel=0 note=77 velocity=55 time=120
note_on channel=0 note=75 velocity=0 time=10
note_on channel=0 note=63 velocity=0 time=80
note_on channel=0 note=79 velocity=59 time=0
note_on channel=0 note=77 velocity=0 time=10
note_on channel=0 note=77 velocity=55 time=40
note_on channel=0 note=79 velocity=0 time=10
note_on channel=0 note=75 velocity=55 time=0
note_on channel=0 note=77 velocity=0 time=10
note_on channel=0 note=80 velocity=59 time=0
note_on channel=0 note=75 velocity=0 time=10
note_on channel=0 note=58 velocity=43 time=0
note_on channel=0 note=60 velocity=47 time=0
note_on channel=0 note=58 velocity=0 time=10
note_on channel=0 note=62 velocity=50 time=0
note_on channel=0 note=60 velocity=0 time=10
note_on channel=0 note=60 velocity=48 time=0
note_on channel=0 note=62 velocity=0 time=10
note_on channel=0 note=58 velocity=45 time=0
note_on channel=0 note=60 velocity=0 time=10
note_on channel=0 note=80 velocity=0 time=40
note_on channel=0 note=79 velocity=59 time=0
note_on channel=0 note=63 velocity=55 time=0
note_on channel=0 note=58 velocity=0 time=10
note_on channel=0 note=79 velocity=0 time=150
note_on channel=0 note=75 velocity=59 time=0
note_on channel=0 note=75 velocity=0 time=120
note_on channel=0 note=77 velocity=59 time=0
note_on channel=0 note=77 velocity=0 time=40
note_on channel=0 note=63 velocity=0 time=0
note_on channel=0 note=79 velocity=64 time=0
note_on channel=0 note=79 velocity=0 time=160
note_on channel=0 note=77 velocity=57 time=0
note_on channel=0 note=77 velocity=0 time=120
note_on channel=0 note=75 velocity=58 time=0
note_on channel=0 note=75 velocity=0 time=40
note_on channel=0 note=82 velocity=67 time=0
note_on channel=0 note=63 velocity=55 time=0
note_on channel=0 note=82 velocity=0 time=160
note_on channel=0 note=79 velocity=59 time=0
note_on channel=0 note=79 velocity=0 time=160
note_on channel=0 note=80 velocity=59 time=0
note_on channel=0 note=80 velocity=0 time=160
note_on channel=0 note=63 velocity=0 time=0
note_on channel=0 note=82 velocity=62 time=0
note_on channel=0 note=82 velocity=0 time=160
note_on channel=0 note=80 velocity=65 time=0
note_on channel=0 note=80 velocity=0 time=0
note_on channel=0 note=79 velocity=67 time=0
note_on channel=0 note=79 velocity=0 time=0
note_on channel=0 note=85 velocity=69 time=0
note_on channel=0 note=61 velocity=55 time=0
note_on channel=0 note=55 velocity=55 time=0
note_on channel=0 note=58 velocity=55 time=0
note_on channel=0 note=63 velocity=55 time=0
note_on channel=0 note=84 velocity=68 time=160
note_on channel=0 note=85 velocity=0 time=10
note_on channel=0 note=82 velocity=67 time=150
note_on channel=0 note=84 velocity=0 time=10
note_on channel=0 note=63 velocity=0 time=150
note_on channel=0 note=58 velocity=0 time=0
note_on channel=0 note=61 velocity=0 time=0
note_on channel=0 note=55 velocity=0 time=0
note_on channel=0 note=80 velocity=66 time=0
note_on channel=0 note=82 velocity=0 time=10
note_on channel=0 note=79 velocity=65 time=150
note_on channel=0 note=80 velocity=0 time=10
note_on channel=0 note=77 velocity=63 time=150
note_on channel=0 note=79 velocity=0 time=10
note_on channel=0 note=75 velocity=59 time=0
note_on channel=0 note=77 velocity=0 time=10
note_on channel=0 note=74 velocity=55 time=150
note_on channel=0 note=75 velocity=0 time=10
note_on channel=0 note=75 velocity=55 time=80
note_on channel=0 note=74 velocity=0 time=10
note_on channel=0 note=76 velocity=59 time=40
note_on channel=0 note=75 velocity=0 time=10
note_on channel=0 note=77 velocity=56 time=150
note_on channel=0 note=76 velocity=0 time=10
note_on channel=0 note=73 velocity=56 time=120
note_on channel=0 note=77 velocity=0 time=10
note_on channel=0 note=44 velocity=52 time=40
note_on channel=0 note=73 velocity=0 time=10
control_change channel=0 control=64 value=127 time=117
note_on channel=0 note=44 velocity=0 time=33
note_on channel=0 note=48 velocity=54 time=0
note_on channel=0 note=48 velocity=0 time=120
note_on channel=0 note=51 velocity=56 time=0
note_on channel=0 note=51 velocity=0 time=40
note_on channel=0 note=60 velocity=57 time=0
note_on channel=0 note=56 velocity=59 time=0
note_on channel=0 note=60 velocity=0 time=160
note_on channel=0 note=63 velocity=59 time=0
note_on channel=0 note=63 velocity=0 time=120
note_on channel=0 note=68 velocity=62 time=0
note_on channel=0 note=68 velocity=0 time=160
note_on channel=0 note=56 velocity=0 time=0
note_on channel=0 note=72 velocity=64 time=0
note_on channel=0 note=72 velocity=0 time=160
note_on channel=0 note=75 velocity=66 time=0
note_on channel=0 note=75 velocity=0 time=160
note_on channel=0 note=80 velocity=68 time=0
control_change channel=0 control=64 value=0 time=146
note_on channel=0 note=80 velocity=0 time=0
note_on channel=0 note=84 velocity=70 time=0
note_on channel=0 note=84 velocity=0 time=120
note_on channel=0 note=84 velocity=70 time=120
note_on channel=0 note=84 velocity=0 time=120
note_on channel=0 note=84 velocity=70 time=0
note_on channel=0 note=58 velocity=48 time=0
note_on channel=0 note=63 velocity=48 time=0
note_on channel=0 note=67 velocity=57 time=0
control_change channel=0 control=64 value=127 time=57
note_on channel=0 note=84 velocity=0 time=183
note_on channel=0 note=82 velocity=68 time=0
note_on channel=0 note=82 velocity=0 time=240
note_on channel=0 note=67 velocity=0 time=0
note_on channel=0 note=63 velocity=0 time=0
note_on channel=0 note=58 velocity=0 time=0
note_on channel=0 note=80 velocity=66 time=0
control_change channel=0 control=64 value=0 time=35
note_on channel=0 note=80 velocity=0 time=85
note_on channel=0 note=79 velocity=64 time=0
note_on channel=0 note=79 velocity=0 time=120
note_on channel=0 note=79 velocity=65 time=0
note_on channel=0 note=58 velocity=49 time=0
note_on channel=0 note=65 velocity=49 time=0
note_on channel=0 note=68 velocity=58 time=0
control_change channel=0 control=64 value=127 time=85
note_on channel=0 note=79 velocity=0 time=155
note_on channel=0 note=77 velocity=63 time=0
note_on channel=0 note=77 velocity=0 time=240
note_on channel=0 note=68 velocity=0 time=0
note_on channel=0 note=65 velocity=0 time=0
note_on channel=0 note=58 velocity=0 time=0
note_on channel=0 note=75 velocity=61 time=0
control_change channel=0 control=64 value=0 time=35
note_on channel=0 note=75 velocity=0 time=85
note_on channel=0 note=74 velocity=59 time=0
note_on channel=0 note=74 velocity=0 time=120
note_on channel=0 note=75 velocity=63 time=0
note_on channel=0 note=63 velocity=49 time=0
note_on channel=0 note=67 velocity=58 time=0
note_on channel=0 note=67 velocity=0 time=480
note_on channel=0 note=63 velocity=0 time=0
note_on channel=0 note=75 velocity=0 time=0
note_on channel=0 note=58 velocity=45 time=960
note_on channel=0 note=58 velocity=0 time=10
note_on channel=0 note=62 velocity=37 time=10
note_on channel=0 note=65 velocity=45 time=0
note_on channel=0 note=58 velocity=39 time=0
note_on channel=0 note=56 velocity=33 time=0
control_change channel=0 control=64 value=127 time=127
note_on channel=0 note=56 velocity=0 time=20
note_on channel=0 note=62 velocity=0 time=0
note_on channel=0 note=65 velocity=0 time=0
note_on channel=0 note=58 velocity=0 time=0
note_on channel=0 note=62 velocity=38 time=20
note_on channel=0 note=65 velocity=45 time=0
note_on channel=0 note=56 velocity=34 time=0
note_on channel=0 note=58 velocity=40 time=0
note_on channel=0 note=58 velocity=0 time=20
note_on channel=0 note=62 velocity=0 time=0
note_on channel=0 note=65 velocity=0 time=0
note_on channel=0 note=56 velocity=0 time=0
note_on channel=0 note=62 velocity=38 time=20
note_on channel=0 note=65 velocity=45 time=0
note_on channel=0 note=58 velocity=42 time=0
note_on channel=0 note=56 velocity=35 time=0
note_on channel=0 note=56 velocity=0 time=20
note_on channel=0 note=62 velocity=0 time=0
note_on channel=0 note=65 velocity=0 time=0
note_on channel=0 note=58 velocity=0 time=0
note_on channel=0 note=62 velocity=39 time=0
note_on channel=0 note=65 velocity=46 time=0
note_on channel=0 note=56 velocity=36 time=0
note_on channel=0 note=58 velocity=43 time=0
note_on channel=0 note=58 velocity=0 time=240
note_on channel=0 note=62 velocity=0 time=0
note_on channel=0 note=65 velocity=0 time=0
note_on channel=0 note=56 velocity=0 time=0
note_on channel=0 note=63 velocity=40 time=0
note_on channel=0 note=70 velocity=47 time=0
note_on channel=0 note=55 velocity=37 time=0
note_on channel=0 note=58 velocity=45 time=0
control_change channel=0 control=64 value=0 time=9
control_change channel=0 control=64 value=127 time=471
note_on channel=0 note=58 velocity=0 time=960
note_on channel=0 note=63 velocity=0 time=0
note_on channel=0 note=70 velocity=0 time=0
note_on channel=0 note=55 velocity=0 time=0
note_on channel=0 note=63 velocity=46 time=0
note_on channel=0 note=70 velocity=46 time=0
note_on channel=0 note=55 velocity=42 time=0
note_on channel=0 note=55 velocity=0 time=480
note_on channel=0 note=70 velocity=0 time=0
note_on channel=0 note=63 velocity=0 time=0
note_on channel=0 note=63 velocity=40 time=0
note_on channel=0 note=68 velocity=48 time=0
note_on channel=0 note=60 velocity=45 time=0
control_change channel=0 control=64 value=0 time=4
control_change channel=0 control=64 value=127 time=236
note_on channel=0 note=60 velocity=0 time=480
note_on channel=0 note=68 velocity=0 time=0
note_on channel=0 note=63 velocity=0 time=0
note_on channel=0 note=65 velocity=37 time=0
note_on channel=0 note=63 velocity=37 time=0
note_on channel=0 note=69 velocity=45 time=0
note_on channel=0 note=59 velocity=43 time=0
control_change channel=0 control=64 value=0 time=11
control_change channel=0 control=64 value=127 time=363
note_on channel=0 note=59 velocity=0 time=0
note_on channel=0 note=65 velocity=0 time=0
note_on channel=0 note=63 velocity=0 time=0
note_on channel=0 note=69 velocity=0 time=0
note_on channel=0 note=62 velocity=39 time=0
note_on channel=0 note=65 velocity=39 time=0
note_on channel=0 note=70 velocity=46 time=0
note_on channel=0 note=58 velocity=43 time=0
control_change channel=0 control=64 value=0 time=3
control_change channel=0 control=64 value=127 time=317
control_change channel=0 control=64 value=0 time=933
note_on channel=0 note=58 velocity=0 time=187
note_on channel=0 note=62 velocity=0 time=0
note_on channel=0 note=65 velocity=0 time=0
note_on channel=0 note=70 velocity=0 time=0
note_on channel=0 note=70 velocity=50 time=0
note_on channel=0 note=70 velocity=0 time=470
note_on channel=0 note=70 velocity=42 time=10
note_on channel=0 note=77 velocity=50 time=0
note_on channel=0 note=62 velocity=44 time=0
note_on channel=0 note=56 velocity=37 time=0
control_change channel=0 control=64 value=127 time=99
note_on channel=0 note=56 velocity=0 time=141
note_on channel=0 note=70 velocity=0 time=0
note_on channel=0 note=77 velocity=0 time=0
note_on channel=0 note=62 velocity=0 time=0
note_on channel=0 note=70 velocity=45 time=40
note_on channel=0 note=77 velocity=53 time=0
note_on channel=0 note=56 velocity=39 time=0
note_on channel=0 note=62 velocity=47 time=0
note_on channel=0 note=62 velocity=0 time=120
note_on channel=0 note=70 velocity=0 time=0
note_on channel=0 note=77 velocity=0 time=0
note_on channel=0 note=56 velocity=0 time=0
note_on channel=0 note=70 velocity=47 time=40
note_on channel=0 note=77 velocity=56 time=0
note_on channel=0 note=62 velocity=51 time=0
note_on channel=0 note=56 velocity=42 time=0
note_on channel=0 note=56 velocity=0 time=120
note_on channel=0 note=70 velocity=0 time=0
note_on channel=0 note=77 velocity=0 time=0
note_on channel=0 note=62 velocity=0 time=0
note_on channel=0 note=70 velocity=50 time=40
note_on channel=0 note=77 velocity=59 time=0
note_on channel=0 note=56 velocity=46 time=0
note_on channel=0 note=62 velocity=55 time=0
note_on channel=0 note=62 velocity=0 time=240
note_on channel=0 note=70 velocity=0 time=0
note_on channel=0 note=77 velocity=0 time=0
note_on channel=0 note=56 velocity=0 time=0
note_on channel=0 note=70 velocity=73 time=240
note_on channel=0 note=82 velocity=73 time=0
note_on channel=0 note=55 velocity=50 time=0
note_on channel=0 note=63 velocity=60 time=0
control_change channel=0 control=64 value=0 time=10
control_change channel=0 control=64 value=127 time=0
note_on channel=0 note=70 velocity=0 time=0
note_on channel=0 note=73 velocity=80 time=0
note_on channel=0 note=82 velocity=0 time=480
note_on channel=0 note=83 velocity=72 time=0
note_on channel=0 note=83 velocity=0 time=0
note_on channel=0 note=73 velocity=0 time=0
note_on channel=0 note=55 velocity=0 time=0
note_on channel=0 note=63 velocity=0 time=0
note_on channel=0 note=72 velocity=74 time=0
note_on channel=0 note=84 velocity=87 time=0
note_on channel=0 note=56 velocity=61 time=0
note_on channel=0 note=63 velocity=72 time=0
control_change channel=0 control=64 value=0 time=0
note_on channel=0 note=63 velocity=0 time=480
note_on channel=0 note=72 velocity=0 time=0
note_on channel=0 note=84 velocity=0 time=0
note_on channel=0 note=56 velocity=0 time=0
note_on channel=0 note=65 velocity=74 time=480
note_on channel=0 note=68 velocity=74 time=0
note_on channel=0 note=74 velocity=87 time=0
note_on channel=0 note=46 velocity=61 time=0
note_on channel=0 note=58 velocity=72 time=0
note_on channel=0 note=58 velocity=0 time=480
note_on channel=0 note=74 velocity=0 time=0
note_on channel=0 note=65 velocity=0 time=0
note_on channel=0 note=68 velocity=0 time=0
note_on channel=0 note=46 velocity=0 time=0
note_on channel=0 note=67 velocity=49 time=0
note_on channel=0 note=75 velocity=55 time=0
note_on channel=0 note=63 velocity=55 time=40
note_on channel=0 note=65 velocity=55 time=40
note_on channel=0 note=63 velocity=0 time=10
note_on channel=0 note=67 velocity=0 time=80
note_on channel=0 note=75 velocity=0 time=0
note_on channel=0 note=67 velocity=59 time=0
note_on channel=0 note=65 velocity=0 time=10
note_on channel=0 note=65 velocity=55 time=80
note_on channel=0 note=67 velocity=0 time=10
note_on channel=0 note=63 velocity=55 time=120
note_on channel=0 note=65 velocity=0 time=10
note_on channel=0 note=68 velocity=59 time=0
note_on channel=0 note=63 velocity=0 time=10
note_on channel=0 note=70 velocity=54 time=80
note_on channel=0 note=72 velocity=56 time=80
note_on channel=0 note=70 velocity=0 time=10
note_on channel=0 note=74 velocity=57 time=80
note_on channel=0 note=72 velocity=0 time=10
note_on channel=0 note=72 velocity=54 time=80
note_on channel=0 note=74 velocity=0 time=10
note_on channel=0 note=70 velocity=51 time=0
note_on channel=0 note=72 velocity=0 time=10
note_on channel=0 note=68 velocity=0 time=0
note_on channel=0 note=75 velocity=55 time=0
note_on channel=0 note=67 velocity=59 time=0
note_on channel=0 note=70 velocity=0 time=10
note_on channel=0 note=63 velocity=55 time=20
note_on channel=0 note=67 velocity=0 time=10
note_on channel=0 note=65 velocity=55 time=40
note_on channel=0 note=63 velocity=0 time=10
note_on channel=0 note=75 velocity=0 time=80
note_on channel=0 note=67 velocity=59 time=0
note_on channel=0 note=65 velocity=0 time=10
note_on channel=0 note=65 velocity=55 time=80
note_on channel=0 note=67 velocity=0 time=10
note_on channel=0 note=63 velocity=55 time=120
note_on channel=0 note=65 velocity=0 time=10
note_on channel=0 note=68 velocity=59 time=0
note_on channel=0 note=63 velocity=0 time=10
note_on channel=0 note=70 velocity=54 time=80
note_on channel=0 note=72 velocity=56 time=80
note_on channel=0 note=70 velocity=0 time=10
note_on channel=0 note=74 velocity=57 time=20
note_on channel=0 note=72 velocity=0 time=10
note_on channel=0 note=72 velocity=54 time=0
note_on channel=0 note=74 velocity=0 time=10
note_on channel=0 note=70 velocity=51 time=0
note_on channel=0 note=72 velocity=0 time=10
note_on channel=0 note=68 velocity=0 time=0
note_on channel=0 note=75 velocity=56 time=0
note_on channel=0 note=67 velocity=55 time=0
note_on channel=0 note=63 velocity=55 time=0
note_on channel=0 note=70 velocity=0 time=10
note_on channel=0 note=75 velocity=0 time=0
note_on channel=0 note=79 velocity=59 time=0
note_on channel=0 note=67 velocity=0 time=20
note_on channel=0 note=63 velocity=0 time=0
note_on channel=0 note=79 velocity=0 time=80
note_on channel=0 note=77 velocity=52 time=0
note_on channel=0 note=77 velocity=0 time=40
note_on channel=0 note=75 velocity=59 time=0
note_on channel=0 note=60 velocity=52 time=6
note_on channel=0 note=75 velocity=0 time=154
note_on channel=0 note=74 velocity=57 time=0
note_on channel=0 note=60 velocity=0 time=46
note_on channel=0 note=74 velocity=0 time=74
note_on channel=0 note=72 velocity=58 time=0
note_on channel=0 note=72 velocity=0 time=40
note_on channel=0 note=71 velocity=54 time=0
note_on channel=0 note=56 velocity=52 time=0
note_on channel=0 note=71 velocity=0 time=160
note_on channel=0 note=72 velocity=54 time=0
note_on channel=0 note=56 velocity=0 time=80
note_on channel=0 note=72 velocity=0 time=80
note_on channel=0 note=70 velocity=53 time=0
note_on channel=0 note=70 velocity=0 time=160
note_on channel=0 note=68 velocity=53 time=0
note_on channel=0 note=58 velocity=52 time=0
note_on channel=0 note=68 velocity=0 time=160
note_on channel=0 note=67 velocity=52 time=0
note_on channel=0 note=58 velocity=0 time=80
note_on channel=0 note=67 velocity=0 time=0
note_on channel=0 note=65 velocity=52 time=0
note_on channel=0 note=65 velocity=0 time=0
note_on channel=0 note=63 velocity=55 time=0
note_on channel=0 note=39 velocity=49 time=40
note_on channel=0 note=41 velocity=49 time=40
note_on channel=0 note=39 velocity=0 time=10
note_on channel=0 note=63 velocity=0 time=80
note_on channel=0 note=43 velocity=53 time=0
note_on channel=0 note=41 velocity=0 time=10
note_on channel=0 note=41 velocity=49 time=80
note_on channel=0 note=43 velocity=0 time=10
note_on channel=0 note=39 velocity=49 time=120
note_on channel=0 note=41 velocity=0 time=10
note_on channel=0 note=44 velocity=70 time=0
note_on channel=0 note=39 velocity=0 time=10
note_on channel=0 note=58 velocity=54 time=80
note_on channel=0 note=60 velocity=56 time=80
note_on channel=0 note=58 velocity=0 time=10
note_on channel=0 note=62 velocity=57 time=80
note_on channel=0 note=60 velocity=0 time=10
note_on channel=0 note=60 velocity=54 time=80
note_on channel=0 note=62 velocity=0 time=10
note_on channel=0 note=58 velocity=51 time=0
note_on channel=0 note=60 velocity=0 time=10
note_on channel=0 note=44 velocity=0 time=0
note_on channel=0 note=63 velocity=55 time=0
note_on channel=0 note=43 velocity=53 time=0
note_on channel=0 note=58 velocity=0 time=10
note_on channel=0 note=39 velocity=49 time=20
note_on channel=0 note=43 velocity=0 time=10
note_on channel=0 note=41 velocity=49 time=40
note_on channel=0 note=39 velocity=0 time=10
note_on channel=0 note=63 velocity=0 time=80
note_on channel=0 note=43 velocity=53 time=0
note_on channel=0 note=41 velocity=0 time=10
note_on channel=0 note=41 velocity=49 time=80
note_on channel=0 note=43 velocity=0 time=10
note_on channel=0 note=39 velocity=49 time=120
note_on channel=0 note=41 velocity=0 time=10
note_on channel=0 note=44 velocity=70 time=0
note_on channel=0 note=39 velocity=0 time=10
note_on channel=0 note=58 velocity=54 time=80
note_on channel=0 note=60 velocity=56 time=80
note_on channel=0 note=58 velocity=0 time=10
note_on channel=0 note=62 velocity=57 time=20
note_on channel=0 note=60 velocity=0 time=10
note_on channel=0 note=60 velocity=54 time=0
note_on channel=0 note=62 velocity=0 time=10
note_on channel=0 note=58 velocity=51 time=0
note_on channel=0 note=60 velocity=0 time=10
note_on channel=0 note=44 velocity=0 time=0
note_on channel=0 note=63 velocity=55 time=0
note_on channel=0 note=43 velocity=53 time=0
note_on channel=0 note=58 velocity=0 time=10
note_on channel=0 note=39 velocity=49 time=20
note_on channel=0 note=43 velocity=0 time=10
note_on channel=0 note=41 velocity=49 time=40
note_on channel=0 note=39 velocity=0 time=10
note_on channel=0 note=63 velocity=0 time=80
note_on channel=0 note=43 velocity=53 time=0
note_on channel=0 note=41 velocity=0 time=10
note_on channel=0 note=41 velocity=49 time=80
note_on channel=0 note=43 velocity=0 time=10
note_on channel=0 note=39 velocity=49 time=120
note_on channel=0 note=41 velocity=0 time=10
note_on channel=0 note=44 velocity=70 time=0
note_on channel=0 note=39 velocity=0 time=10
note_on channel=0 note=59 velocity=54 time=80
note_on channel=0 note=60 velocity=56 time=80
note_on channel=0 note=59 velocity=0 time=10
note_on channel=0 note=62 velocity=57 time=20
note_on channel=0 note=60 velocity=0 time=10
note_on channel=0 note=60 velocity=54 time=0
note_on channel=0 note=62 velocity=0 time=10
note_on channel=0 note=59 velocity=51 time=0
note_on channel=0 note=60 velocity=0 time=10
note_on channel=0 note=65 velocity=64 time=0
note_on channel=0 note=59 velocity=0 time=10
note_on channel=0 note=63 velocity=54 time=152
note_on channel=0 note=65 velocity=0 time=8
note_on channel=0 note=62 velocity=58 time=151
note_on channel=0 note=63 velocity=0 time=11
note_on channel=0 note=68 velocity=66 time=141
note_on channel=0 note=62 velocity=0 time=8
note_on channel=0 note=67 velocity=58 time=161
note_on channel=0 note=68 velocity=0 time=1
note_on channel=0 note=65 velocity=61 time=158
note_on channel=0 note=67 velocity=0 time=11
note_on channel=0 note=74 velocity=70 time=20
note_on channel=0 note=65 velocity=0 time=1
note_on channel=0 note=72 velocity=60 time=19
note_on channel=0 note=74 velocity=0 time=11
note_on channel=0 note=71 velocity=64 time=21
note_on channel=0 note=72 velocity=0 time=8
note_on channel=0 note=71 velocity=0 time=1
note_on channel=0 note=77 velocity=74 time=5
note_on channel=0 note=75 velocity=64 time=19
note_on channel=0 note=77 velocity=0 time=16
note_on channel=0 note=74 velocity=68 time=1
note_on channel=0 note=75 velocity=0 time=8
note_on channel=0 note=44 velocity=0 time=40
note_on channel=0 note=89 velocity=100 time=0
note_on channel=0 note=31 velocity=75 time=0
note_on channel=0 note=43 velocity=80 time=0
note_on channel=0 note=74 velocity=0 time=1
control_change channel=0 control=64 value=127 time=1390
note_on channel=0 note=89 velocity=0 time=0
note_on channel=0 note=87 velocity=86 time=0
note_on channel=0 note=87 velocity=0 time=0
note_on channel=0 note=86 velocity=85 time=0
note_on channel=0 note=86 velocity=0 time=0
note_on channel=0 note=84 velocity=83 time=0
note_on channel=0 note=84 velocity=0 time=0
note_on channel=0 note=83 velocity=82 time=0
control_change channel=0 control=64 value=0 time=11
control_change channel=0 control=64 value=127 time=12
note_on channel=0 note=83 velocity=0 time=0
note_on channel=0 note=80 velocity=81 time=0
note_on channel=0 note=80 velocity=0 time=0
note_on channel=0 note=79 velocity=79 time=0
note_on channel=0 note=79 velocity=0 time=0
note_on channel=0 note=77 velocity=78 time=0
note_on channel=0 note=77 velocity=0 time=0
note_on channel=0 note=75 velocity=77 time=0
note_on channel=0 note=75 velocity=0 time=20
note_on channel=0 note=74 velocity=75 time=0
note_on channel=0 note=74 velocity=0 time=40
note_on channel=0 note=72 velocity=74 time=0
control_change channel=0 control=64 value=0 time=12
control_change channel=0 control=64 value=127 time=48
note_on channel=0 note=72 velocity=0 time=100
note_on channel=0 note=71 velocity=72 time=0
note_on channel=0 note=71 velocity=0 time=160
note_on channel=0 note=68 velocity=71 time=0
note_on channel=0 note=68 velocity=0 time=160
note_on channel=0 note=67 velocity=70 time=0
note_on channel=0 note=67 velocity=0 time=16
note_on channel=0 note=65 velocity=68 time=0
note_on channel=0 note=65 velocity=0 time=0
note_on channel=0 note=63 velocity=69 time=0
note_on channel=0 note=63 velocity=0 time=4
note_on channel=0 note=62 velocity=70 time=0
note_on channel=0 note=62 velocity=0 time=0
note_on channel=0 note=60 velocity=71 time=0
note_on channel=0 note=60 velocity=0 time=0
note_on channel=0 note=31 velocity=0 time=0
note_on channel=0 note=43 velocity=0 time=0
note_on channel=0 note=59 velocity=93 time=0
note_on channel=0 note=43 velocity=69 time=0
note_on channel=0 note=50 velocity=69 time=0
note_on channel=0 note=53 velocity=82 time=0
control_change channel=0 control=64 value=0 time=12
note_on channel=0 note=53 velocity=0 time=2868
note_on channel=0 note=59 velocity=0 time=0
note_on channel=0 note=43 velocity=0 time=0
note_on channel=0 note=50 velocity=0 time=0
note_on channel=0 note=67 velocity=48 time=0
note_on channel=0 note=67 velocity=0 time=120
note_on channel=0 note=72 velocity=49 time=120
note_on channel=0 note=72 velocity=0 time=120
note_on channel=0 note=74 velocity=51 time=0
note_on channel=0 note=74 velocity=0 time=120
note_on channel=0 note=75 velocity=52 time=0
note_on channel=0 note=48 velocity=40 time=0
note_on channel=0 note=48 velocity=0 time=0
note_on channel=0 note=51 velocity=36 time=0
note_on channel=0 note=51 velocity=0 time=0
note_on channel=0 note=55 velocity=36 time=0
note_on channel=0 note=55 velocity=0 time=0
note_on channel=0 note=75 velocity=0 time=0
note_on channel=0 note=77 velocity=50 time=0
note_on channel=0 note=60 velocity=36 time=0
note_on channel=0 note=60 velocity=0 time=0
note_on channel=0 note=77 velocity=0 time=0
note_on channel=0 note=74 velocity=53 time=0
note_on channel=0 note=48 velocity=40 time=0
note_on channel=0 note=48 velocity=0 time=0
note_on channel=0 note=53 velocity=40 time=0
note_on channel=0 note=53 velocity=0 time=240
note_on channel=0 note=55 velocity=36 time=0
note_on channel=0 note=55 velocity=0 time=0
note_on channel=0 note=74 velocity=0 time=0
note_on channel=0 note=75 velocity=50 time=0
note_on channel=0 note=59 velocity=36 time=0
note_on channel=0 note=59 velocity=0 time=0
note_on channel=0 note=75 velocity=0 time=0
note_on channel=0 note=72 velocity=52 time=0
note_on channel=0 note=48 velocity=40 time=0
note_on channel=0 note=48 velocity=0 time=240
note_on channel=0 note=51 velocity=40 time=0
note_on channel=0 note=51 velocity=0 time=240
note_on channel=0 note=55 velocity=36 time=0
note_on channel=0 note=55 velocity=0 time=0
note_on channel=0 note=60 velocity=36 time=0
note_on channel=0 note=72 velocity=0 time=180
note_on channel=0 note=74 velocity=48 time=0
note_on channel=0 note=74 velocity=0 time=40
note_on channel=0 note=60 velocity=0 time=0
note_on channel=0 note=72 velocity=52 time=0
note_on channel=0 note=63 velocity=40 time=0
note_on channel=0 note=63 velocity=0 time=240
note_on channel=0 note=72 velocity=0 time=0
note_on channel=0 note=71 velocity=51 time=0
note_on channel=0 note=67 velocity=36 time=0
note_on channel=0 note=67 velocity=0 time=240
note_on channel=0 note=71 velocity=0 time=0
note_on channel=0 note=72 velocity=51 time=0
note_on channel=0 note=63 velocity=36 time=0
note_on channel=0 note=63 velocity=0 time=240
note_on channel=0 note=72 velocity=0 time=0
note_on channel=0 note=74 velocity=50 time=0
note_on channel=0 note=62 velocity=36 time=0
note_on channel=0 note=74 velocity=0 time=180
note_on channel=0 note=77 velocity=49 time=0
note_on channel=0 note=77 velocity=0 time=60
note_on channel=0 note=62 velocity=0 time=0
note_on channel=0 note=75 velocity=56 time=0
note_on channel=0 note=60 velocity=40 time=0
note_on channel=0 note=60 velocity=0 time=240
note_on channel=0 note=75 velocity=0 time=0
note_on channel=0 note=74 velocity=52 time=0
note_on channel=0 note=67 velocity=36 time=0
note_on channel=0 note=67 velocity=0 time=240
note_on channel=0 note=74 velocity=0 time=0
note_on channel=0 note=75 velocity=52 time=0
note_on channel=0 note=60 velocity=36 time=0
note_on channel=0 note=63 velocity=36 time=0
note_on channel=0 note=63 velocity=0 time=0
note_on channel=0 note=60 velocity=0 time=0
note_on channel=0 note=75 velocity=0 time=0
note_on channel=0 note=77 velocity=52 time=0
note_on channel=0 note=67 velocity=36 time=0
note_on channel=0 note=67 velocity=0 time=0
note_on channel=0 note=77 velocity=0 time=0
note_on channel=0 note=79 velocity=56 time=0
note_on channel=0 note=59 velocity=41 time=0
note_on channel=0 note=62 velocity=41 time=0
note_on channel=0 note=62 velocity=0 time=240
note_on channel=0 note=59 velocity=0 time=0
note_on channel=0 note=79 velocity=0 time=0
note_on channel=0 note=67 velocity=36 time=0
note_on channel=0 note=67 velocity=0 time=240
note_on channel=0 note=79 velocity=55 time=0
note_on channel=0 note=60 velocity=36 time=0
note_on channel=0 note=56 velocity=36 time=0
note_on channel=0 note=56 velocity=0 time=240
note_on channel=0 note=60 velocity=0 time=0
note_on channel=0 note=79 velocity=0 time=0
note_on channel=0 note=67 velocity=36 time=0
note_on channel=0 note=67 velocity=0 time=240
note_on channel=0 note=79 velocity=57 time=0
note_on channel=0 note=55 velocity=40 time=0
note_on channel=0 note=55 velocity=0 time=240
note_on channel=0 note=59 velocity=29 time=0
note_on channel=0 note=59 velocity=0 time=240
note_on channel=0 note=62 velocity=28 time=0
note_on channel=0 note=62 velocity=0 time=240
note_on channel=0 note=67 velocity=28 time=0
note_on channel=0 note=67 velocity=0 time=0
note_on channel=0 note=55 velocity=40 time=0
note_on channel=0 note=55 velocity=0 time=240
note_on channel=0 note=59 velocity=31 time=0
note_on channel=0 note=59 velocity=0 time=240
note_on channel=0 note=79 velocity=0 time=0
note_on channel=0 note=77 velocity=51 time=0
note_on channel=0 note=62 velocity=31 time=0
note_on channel=0 note=62 velocity=0 time=0
note_on channel=0 note=77 velocity=0 time=0
note_on channel=0 note=79 velocity=53 time=0
note_on channel=0 note=67 velocity=31 time=0
note_on channel=0 note=79 velocity=0 time=0
note_on channel=0 note=77 velocity=48 time=0
note_on channel=0 note=77 velocity=0 time=60
note_on channel=0 note=79 velocity=48 time=0
note_on channel=0 note=79 velocity=0 time=0
note_on channel=0 note=67 velocity=0 time=0
note_on channel=0 note=80 velocity=56 time=0
note_on channel=0 note=53 velocity=40 time=0
note_on channel=0 note=53 velocity=0 time=0
note_on channel=0 note=56 velocity=36 time=0
note_on channel=0 note=56 velocity=0 time=240
note_on channel=0 note=59 velocity=37 time=0
note_on channel=0 note=59 velocity=0 time=240
note_on channel=0 note=62 velocity=37 time=0
note_on channel=0 note=62 velocity=0 time=0
note_on channel=0 note=80 velocity=0 time=0
note_on channel=0 note=74 velocity=52 time=0
note_on channel=0 note=53 velocity=40 time=0
note_on channel=0 note=53 velocity=0 time=240
note_on channel=0 note=56 velocity=36 time=0
note_on channel=0 note=56 velocity=0 time=240
note_on channel=0 note=74 velocity=0 time=0
note_on channel=0 note=75 velocity=51 time=0
note_on channel=0 note=59 velocity=36 time=0
note_on channel=0 note=59 velocity=0 time=0
note_on channel=0 note=75 velocity=0 time=0
note_on channel=0 note=77 velocity=53 time=0
note_on channel=0 note=62 velocity=36 time=0
note_on channel=0 note=77 velocity=0 time=0
note_on channel=0 note=75 velocity=50 time=0
note_on channel=0 note=75 velocity=0 time=60
note_on channel=0 note=77 velocity=50 time=0
note_on channel=0 note=77 velocity=0 time=0
note_on channel=0 note=62 velocity=0 time=0
note_on channel=0 note=79 velocity=56 time=0
note_on channel=0 note=51 velocity=40 time=0
note_on channel=0 note=51 velocity=0 time=0
note_on channel=0 note=55 velocity=34 time=0
note_on channel=0 note=55 velocity=0 time=240
note_on channel=0 note=60 velocity=34 time=0
note_on channel=0 note=60 velocity=0 time=240
note_on channel=0 note=63 velocity=33 time=0
note_on channel=0 note=63 velocity=0 time=0
note_on channel=0 note=79 velocity=0 time=0
note_on channel=0 note=72 velocity=52 time=0
note_on channel=0 note=56 velocity=41 time=0
note_on channel=0 note=56 velocity=0 time=240
note_on channel=0 note=60 velocity=35 time=0
note_on channel=0 note=72 velocity=0 time=230
note_on channel=0 note=60 velocity=0 time=10
note_on channel=0 note=72 velocity=53 time=0
note_on channel=0 note=63 velocity=35 time=0
note_on channel=0 note=63 velocity=0 time=0
note_on channel=0 note=72 velocity=0 time=0
note_on channel=0 note=74 velocity=54 time=0
note_on channel=0 note=66 velocity=35 time=0
note_on channel=0 note=66 velocity=0 time=0
note_on channel=0 note=74 velocity=0 time=0
note_on channel=0 note=75 velocity=57 time=0
note_on channel=0 note=55 velocity=40 time=0
note_on channel=0 note=55 velocity=0 time=0
note_on channel=0 note=75 velocity=0 time=0
note_on channel=0 note=60 velocity=40 time=0
note_on channel=0 note=60 velocity=0 time=240
note_on channel=0 note=75 velocity=53 time=0
note_on channel=0 note=63 velocity=35 time=0
note_on channel=0 note=63 velocity=0 time=240
note_on channel=0 note=75 velocity=0 time=0
note_on channel=0 note=77 velocity=55 time=0
note_on channel=0 note=67 velocity=35 time=0
note_on channel=0 note=67 velocity=0 time=0
note_on channel=0 note=77 velocity=0 time=0
note_on channel=0 note=74 velocity=57 time=0
note_on channel=0 note=55 velocity=40 time=0
note_on channel=0 note=55 velocity=0 time=0
note_on channel=0 note=74 velocity=0 time=0
note_on channel=0 note=59 velocity=36 time=0
note_on channel=0 note=59 velocity=0 time=240
note_on channel=0 note=74 velocity=51 time=0
note_on channel=0 note=62 velocity=36 time=0
note_on channel=0 note=62 velocity=0 time=0
note_on channel=0 note=74 velocity=0 time=0
note_on channel=0 note=75 velocity=54 time=0
note_on channel=0 note=67 velocity=36 time=0
note_on channel=0 note=67 velocity=0 time=0
note_on channel=0 note=75 velocity=0 time=0
note_on channel=0 note=72 velocity=57 time=0
note_on channel=0 note=48 velocity=38 time=0
note_on channel=0 note=48 velocity=0 time=0
note_on channel=0 note=72 velocity=0 time=0
note_on channel=0 note=51 velocity=42 time=0
note_on channel=0 note=51 velocity=0 time=240
note_on channel=0 note=55 velocity=45 time=0
note_on channel=0 note=55 velocity=0 time=0
note_on channel=0 note=60 velocity=49 time=0
note_on channel=0 note=60 velocity=0 time=480
note_on channel=0 note=77 velocity=56 time=0
note_on channel=0 note=77 velocity=0 time=0
note_on channel=0 note=79 velocity=58 time=0
note_on channel=0 note=79 velocity=0 time=0
note_on channel=0 note=68 velocity=51 time=0
note_on channel=0 note=80 velocity=61 time=0
note_on channel=0 note=41 velocity=43 time=0
note_on channel=0 note=41 velocity=0 time=240
note_on channel=0 note=47 velocity=45 time=0
note_on channel=0 note=47 velocity=0 time=240
note_on channel=0 note=50 velocity=47 time=0
note_on channel=0 note=50 velocity=0 time=0
note_on channel=0 note=80 velocity=0 time=0
note_on channel=0 note=68 velocity=0 time=0
note_on channel=0 note=74 velocity=57 time=0
note_on channel=0 note=53 velocity=49 time=0
note_on channel=0 note=53 velocity=0 time=240
note_on channel=0 note=56 velocity=43 time=0
note_on channel=0 note=56 velocity=0 time=240
note_on channel=0 note=74 velocity=0 time=0
note_on channel=0 note=75 velocity=56 time=0
note_on channel=0 note=55 velocity=43 time=0
note_on channel=0 note=55 velocity=0 time=0
note_on channel=0 note=75 velocity=0 time=0
note_on channel=0 note=77 velocity=58 time=0
note_on channel=0 note=53 velocity=43 time=0
note_on channel=0 note=53 velocity=0 time=0
note_on channel=0 note=77 velocity=0 time=0
note_on channel=0 note=67 velocity=51 time=0
note_on channel=0 note=79 velocity=61 time=0
note_on channel=0 note=39 velocity=40 time=0
note_on channel=0 note=39 velocity=0 time=240
note_on channel=0 note=43 velocity=42 time=0
note_on channel=0 note=43 velocity=0 time=240
note_on channel=0 note=48 velocity=45 time=0
note_on channel=0 note=48 velocity=0 time=0
note_on channel=0 note=79 velocity=0 time=0
note_on channel=0 note=67 velocity=0 time=0
note_on channel=0 note=72 velocity=57 time=0
note_on channel=0 note=51 velocity=48 time=0
note_on channel=0 note=51 velocity=0 time=240
note_on channel=0 note=55 velocity=40 time=0
note_on channel=0 note=72 velocity=0 time=230
note_on channel=0 note=55 velocity=0 time=10
note_on channel=0 note=72 velocity=58 time=0
note_on channel=0 note=56 velocity=39 time=0
note_on channel=0 note=56 velocity=0 time=0
note_on channel=0 note=72 velocity=0 time=0
note_on channel=0 note=74 velocity=59 time=0
note_on channel=0 note=54 velocity=39 time=0
note_on channel=0 note=54 velocity=0 time=0
note_on channel=0 note=74 velocity=0 time=0
note_on channel=0 note=75 velocity=62 time=0
note_on channel=0 note=43 velocity=48 time=0
note_on channel=0 note=43 velocity=0 time=0
note_on channel=0 note=75 velocity=0 time=0
note_on channel=0 note=55 velocity=44 time=0
note_on channel=0 note=55 velocity=0 time=240
note_on channel=0 note=75 velocity=58 time=0
note_on channel=0 note=60 velocity=38 time=0
note_on channel=0 note=60 velocity=0 time=240
note_on channel=0 note=75 velocity=0 time=0
note_on channel=0 note=77 velocity=60 time=0
note_on channel=0 note=55 velocity=38 time=0
note_on channel=0 note=55 velocity=0 time=0
note_on channel=0 note=77 velocity=0 time=0
note_on channel=0 note=74 velocity=62 time=0
note_on channel=0 note=43 velocity=48 time=0
note_on channel=0 note=43 velocity=0 time=0
note_on channel=0 note=74 velocity=0 time=0
note_on channel=0 note=55 velocity=39 time=0
note_on channel=0 note=55 velocity=0 time=240
note_on channel=0 note=74 velocity=56 time=0
note_on channel=0 note=59 velocity=39 time=0
note_on channel=0 note=59 velocity=0 time=0
note_on channel=0 note=74 velocity=0 time=0
note_on channel=0 note=75 velocity=59 time=0
note_on channel=0 note=55 velocity=39 time=0
note_on channel=0 note=55 velocity=0 time=0
note_on channel=0 note=75 velocity=0 time=0
note_on channel=0 note=72 velocity=62 time=0
note_on channel=0 note=48 velocity=52 time=0
note_on channel=0 note=48 velocity=0 time=0
note_on channel=0 note=72 velocity=0 time=0
note_on channel=0 note=60 velocity=45 time=0
note_on channel=0 note=60 velocity=0 time=0
note_on channel=0 note=82 velocity=74 time=0
note_on channel=0 note=59 velocity=45 time=0
note_on channel=0 note=59 velocity=0 time=240
note_on channel=0 note=60 velocity=45 time=0
note_on channel=0 note=60 velocity=0 time=240
note_on channel=0 note=52 velocity=52 time=0
note_on channel=0 note=52 velocity=0 time=240
note_on channel=0 note=60 velocity=48 time=0
note_on channel=0 note=60 velocity=0 time=240
note_on channel=0 note=82 velocity=0 time=0
note_on channel=0 note=82 velocity=73 time=0
note_on channel=0 note=55 velocity=48 time=0
note_on channel=0 note=55 velocity=0 time=240
note_on channel=0 note=60 velocity=48 time=0
note_on channel=0 note=60 velocity=0 time=240
note_on channel=0 note=53 velocity=53 time=0
note_on channel=0 note=53 velocity=0 time=240
note_on channel=0 note=82 velocity=0 time=0
note_on channel=0 note=80 velocity=71 time=0
note_on channel=0 note=60 velocity=49 time=0
note_on channel=0 note=60 velocity=0 time=0
note_on channel=0 note=80 velocity=0 time=0
note_on channel=0 note=79 velocity=72 time=0
note_on channel=0 note=56 velocity=50 time=0
note_on channel=0 note=56 velocity=0 time=240
note_on channel=0 note=79 velocity=0 time=0
note_on channel=0 note=77 velocity=72 time=0
note_on channel=0 note=60 velocity=49 time=0
note_on channel=0 note=60 velocity=0 time=240
note_on channel=0 note=77 velocity=0 time=0
note_on channel=0 note=75 velocity=71 time=0
note_on channel=0 note=55 velocity=54 time=0
note_on channel=0 note=55 velocity=0 time=240
note_on channel=0 note=75 velocity=0 time=0
note_on channel=0 note=74 velocity=71 time=0
note_on channel=0 note=65 velocity=52 time=0
note_on channel=0 note=65 velocity=0 time=240
note_on channel=0 note=74 velocity=0 time=0
note_on channel=0 note=72 velocity=71 time=0
note_on channel=0 note=59 velocity=43 time=0
note_on channel=0 note=59 velocity=0 time=240
note_on channel=0 note=72 velocity=0 time=0
note_on channel=0 note=71 velocity=71 time=0
note_on channel=0 note=65 velocity=50 time=0
note_on channel=0 note=65 velocity=0 time=0
note_on channel=0 note=71 velocity=0 time=0
note_on channel=0 note=72 velocity=73 time=0
note_on channel=0 note=56 velocity=54 time=0
note_on channel=0 note=56 velocity=0 time=0
note_on channel=0 note=72 velocity=0 time=0
note_on channel=0 note=63 velocity=47 time=0
note_on channel=0 note=63 velocity=0 time=0
note_on channel=0 note=72 velocity=67 time=0
note_on channel=0 note=84 velocity=79 time=0
note_on channel=0 note=60 velocity=47 time=0
note_on channel=0 note=60 velocity=0 time=240
note_on channel=0 note=63 velocity=47 time=0
note_on channel=0 note=63 velocity=0 time=240
note_on channel=0 note=55 velocity=62 time=0
note_on channel=0 note=55 velocity=0 time=240
note_on channel=0 note=64 velocity=54 time=0
note_on channel=0 note=64 velocity=0 time=240
note_on channel=0 note=84 velocity=0 time=0
note_on channel=0 note=72 velocity=0 time=0
note_on channel=0 note=82 velocity=80 time=0
note_on channel=0 note=60 velocity=55 time=0
note_on channel=0 note=60 velocity=0 time=240
note_on channel=0 note=64 velocity=55 time=0
note_on channel=0 note=64 velocity=0 time=240
note_on channel=0 note=53 velocity=64 time=0
note_on channel=0 note=53 velocity=0 time=240
note_on channel=0 note=82 velocity=0 time=0
note_on channel=0 note=80 velocity=81 time=0
note_on channel=0 note=65 velocity=57 time=0
note_on channel=0 note=65 velocity=0 time=0
note_on channel=0 note=80 velocity=0 time=0
note_on channel=0 note=79 velocity=82 time=0
note_on channel=0 note=60 velocity=58 time=0
note_on channel=0 note=60 velocity=0 time=240
note_on channel=0 note=79 velocity=0 time=0
note_on channel=0 note=77 velocity=81 time=0
note_on channel=0 note=65 velocity=57 time=0
note_on channel=0 note=65 velocity=0 time=240
note_on channel=0 note=77 velocity=0 time=0
note_on channel=0 note=75 velocity=79 time=0
note_on channel=0 note=55 velocity=63 time=0
note_on channel=0 note=55 velocity=0 time=240
note_on channel=0 note=75 velocity=0 time=0
note_on channel=0 note=74 velocity=79 time=0
note_on channel=0 note=67 velocity=57 time=0
note_on channel=0 note=67 velocity=0 time=240
note_on channel=0 note=74 velocity=0 time=0
note_on channel=0 note=72 velocity=79 time=0
note_on channel=0 note=55 velocity=57 time=0
note_on channel=0 note=55 velocity=0 time=240
note_on channel=0 note=72 velocity=0 time=0
note_on channel=0 note=71 velocity=78 time=0
note_on channel=0 note=67 velocity=56 time=0
note_on channel=0 note=67 velocity=0 time=0
note_on channel=0 note=71 velocity=0 time=0
note_on channel=0 note=72 velocity=89 time=0
note_on channel=0 note=60 velocity=68 time=0
note_on channel=0 note=60 velocity=0 time=240
note_on channel=0 note=72 velocity=0 time=0
note_on channel=0 note=74 velocity=81 time=0
note_on channel=0 note=55 velocity=62 time=0
note_on channel=0 note=59 velocity=62 time=0
note_on channel=0 note=74 velocity=0 time=80
note_on channel=0 note=75 velocity=81 time=0
note_on channel=0 note=75 velocity=0 time=80
note_on channel=0 note=74 velocity=81 time=0
note_on channel=0 note=74 velocity=0 time=80
note_on channel=0 note=59 velocity=0 time=0
note_on channel=0 note=55 velocity=0 time=0
note_on channel=0 note=75 velocity=81 time=0
note_on channel=0 note=75 velocity=0 time=60
note_on channel=0 note=74 velocity=81 time=0
note_on channel=0 note=74 velocity=0 time=60
note_on channel=0 note=72 velocity=80 time=0
note_on channel=0 note=72 velocity=0 time=60
note_on channel=0 note=74 velocity=80 time=0
note_on channel=0 note=74 velocity=0 time=0
note_on channel=0 note=75 velocity=92 time=0
note_on channel=0 note=48 velocity=62 time=0
note_on channel=0 note=60 velocity=62 time=0
note_on channel=0 note=60 velocity=0 time=240
note_on channel=0 note=48 velocity=0 time=0
note_on channel=0 note=75 velocity=0 time=0
note_on channel=0 note=71 velocity=92 time=0
note_on channel=0 note=74 velocity=92 time=0
note_on channel=0 note=83 velocity=92 time=0
note_on channel=0 note=43 velocity=62 time=0
note_on channel=0 note=55 velocity=62 time=0
note_on channel=0 note=55 velocity=0 time=240
note_on channel=0 note=83 velocity=0 time=0
note_on channel=0 note=71 velocity=0 time=0
note_on channel=0 note=74 velocity=0 time=0
note_on channel=0 note=43 velocity=0 time=0
note_on channel=0 note=72 velocity=92 time=240
note_on channel=0 note=75 velocity=92 time=0
note_on channel=0 note=84 velocity=92 time=0
note_on channel=0 note=36 velocity=69 time=0
note_on channel=0 note=48 velocity=69 time=0
note_on channel=0 note=48 velocity=0 time=240
note_on channel=0 note=84 velocity=0 time=0
note_on channel=0 note=72 velocity=0 time=0
note_on channel=0 note=75 velocity=0 time=0
note_on channel=0 note=36 velocity=0 time=0
note_on channel=0 note=44 velocity=46 time=960
note_on channel=0 note=44 velocity=0 time=240
note_on channel=0 note=48 velocity=48 time=0
note_on channel=0 note=48 velocity=0 time=240
note_on channel=0 note=51 velocity=50 time=0
note_on channel=0 note=51 velocity=0 time=240
note_on channel=0 note=60 velocity=53 time=0
note_on channel=0 note=56 velocity=51 time=0
note_on channel=0 note=56 velocity=0 time=960
note_on channel=0 note=60 velocity=0 time=0
note_on channel=0 note=65 velocity=48 time=0
note_on channel=0 note=49 velocity=48 time=0
note_on channel=0 note=49 velocity=0 time=960
note_on channel=0 note=65 velocity=0 time=0
note_on channel=0 note=58 velocity=51 time=0
note_on channel=0 note=55 velocity=48 time=0
note_on channel=0 note=55 velocity=0 time=960
note_on channel=0 note=58 velocity=0 time=0
note_on channel=0 note=63 velocity=48 time=0
note_on channel=0 note=48 velocity=45 time=0
note_on channel=0 note=48 velocity=0 time=960
note_on channel=0 note=63 velocity=0 time=0
note_on channel=0 note=56 velocity=52 time=0
note_on channel=0 note=53 velocity=48 time=0
note_on channel=0 note=53 velocity=0 time=480
note_on channel=0 note=46 velocity=48 time=0
note_on channel=0 note=56 velocity=0 time=480
note_on channel=0 note=61 velocity=48 time=0
note_on channel=0 note=61 velocity=0 time=480
note_on channel=0 note=46 velocity=0 time=0
note_on channel=0 note=60 velocity=48 time=0
note_on channel=0 note=48 velocity=48 time=0
note_on channel=0 note=48 velocity=0 time=480
note_on channel=0 note=60 velocity=0 time=0
note_on channel=0 note=58 velocity=53 time=0
note_on channel=0 note=49 velocity=51 time=0
note_on channel=0 note=49 velocity=0 time=480
note_on channel=0 note=58 velocity=0 time=0
note_on channel=0 note=56 velocity=48 time=0
note_on channel=0 note=50 velocity=46 time=0
note_on channel=0 note=50 velocity=0 time=480
note_on channel=0 note=56 velocity=0 time=0
note_on channel=0 note=55 velocity=48 time=0
note_on channel=0 note=51 velocity=46 time=0
note_on channel=0 note=51 velocity=0 time=480
note_on channel=0 note=55 velocity=0 time=0
note_on channel=0 note=39 velocity=42 time=0
note_on channel=0 note=39 velocity=0 time=480
note_on channel=0 note=44 velocity=51 time=0
note_on channel=0 note=72 velocity=55 time=480
note_on channel=0 note=44 velocity=0 time=480
note_on channel=0 note=49 velocity=49 time=0
note_on channel=0 note=72 velocity=0 time=480
note_on channel=0 note=65 velocity=53 time=0
note_on channel=0 note=49 velocity=0 time=480
note_on channel=0 note=43 velocity=51 time=0
note_on channel=0 note=65 velocity=0 time=480
note_on channel=0 note=70 velocity=56 time=0
note_on channel=0 note=43 velocity=0 time=480
note_on channel=0 note=48 velocity=49 time=0
note_on channel=0 note=70 velocity=0 time=480
note_on channel=0 note=63 velocity=53 time=0
note_on channel=0 note=48 velocity=0 time=480
note_on channel=0 note=41 velocity=52 time=0
note_on channel=0 note=63 velocity=0 time=480
note_on channel=0 note=68 velocity=53 time=0
note_on channel=0 note=68 velocity=0 time=480
note_on channel=0 note=41 velocity=0 time=0
note_on channel=0 note=67 velocity=51 time=0
note_on channel=0 note=43 velocity=51 time=0
note_on channel=0 note=43 velocity=0 time=480
note_on channel=0 note=67 velocity=0 time=0
note_on channel=0 note=65 velocity=51 time=0
note_on channel=0 note=44 velocity=49 time=0
note_on channel=0 note=44 velocity=0 time=480
note_on channel=0 note=65 velocity=0 time=0
note_on channel=0 note=63 velocity=53 time=0
note_on channel=0 note=45 velocity=53 time=0
note_on channel=0 note=45 velocity=0 time=480
note_on channel=0 note=63 velocity=0 time=0
note_on channel=0 note=62 velocity=49 time=0
note_on channel=0 note=46 velocity=50 time=0
note_on channel=0 note=46 velocity=0 time=480
note_on channel=0 note=62 velocity=0 time=0
note_on channel=0 note=65 velocity=53 time=0
note_on channel=0 note=39 velocity=49 time=0
note_on channel=0 note=39 velocity=0 time=480
note_on channel=0 note=65 velocity=0 time=0
note_on channel=0 note=63 velocity=49 time=0
note_on channel=0 note=63 velocity=0 time=480
note_on channel=0 note=72 velocity=57 time=0
note_on channel=0 note=56 velocity=43 time=480
note_on channel=0 note=60 velocity=51 time=0
note_on channel=0 note=72 velocity=0 time=480
note_on channel=0 note=65 velocity=40 time=0
note_on channel=0 note=77 velocity=48 time=0
note_on channel=0 note=60 velocity=0 time=480
note_on channel=0 note=56 velocity=0 time=0
note_on channel=0 note=49 velocity=40 time=0
note_on channel=0 note=53 velocity=48 time=0
note_on channel=0 note=65 velocity=0 time=480
note_on channel=0 note=77 velocity=0 time=0
note_on channel=0 note=70 velocity=57 time=0
note_on channel=0 note=49 velocity=0 time=480
note_on channel=0 note=53 velocity=0 time=0
note_on channel=0 note=55 velocity=43 time=0
note_on channel=0 note=58 velocity=51 time=0
note_on channel=0 note=70 velocity=0 time=480
note_on channel=0 note=63 velocity=40 time=0
note_on channel=0 note=75 velocity=48 time=0
note_on channel=0 note=58 velocity=0 time=480
note_on channel=0 note=55 velocity=0 time=0
note_on channel=0 note=48 velocity=40 time=0
note_on channel=0 note=51 velocity=48 time=0
note_on channel=0 note=75 velocity=0 time=480
note_on channel=0 note=68 velocity=52 time=0
note_on channel=0 note=63 velocity=0 time=480
note_on channel=0 note=51 velocity=0 time=0
note_on channel=0 note=48 velocity=0 time=0
note_on channel=0 note=60 velocity=48 time=0
note_on channel=0 note=53 velocity=43 time=0
note_on channel=0 note=56 velocity=51 time=0
note_on channel=0 note=56 velocity=0 time=480
note_on channel=0 note=68 velocity=0 time=0
note_on channel=0 note=60 velocity=0 time=0
note_on channel=0 note=53 velocity=0 time=0
note_on channel=0 note=65 velocity=45 time=0
note_on channel=0 note=73 velocity=53 time=0
note_on channel=0 note=46 velocity=51 time=0
note_on channel=0 note=46 velocity=0 time=480
note_on channel=0 note=73 velocity=0 time=0
note_on channel=0 note=65 velocity=0 time=0
note_on channel=0 note=63 velocity=40 time=0
note_on channel=0 note=72 velocity=48 time=0
note_on channel=0 note=48 velocity=51 time=0
note_on channel=0 note=48 velocity=0 time=480
note_on channel=0 note=72 velocity=0 time=0
note_on channel=0 note=63 velocity=0 time=0
note_on channel=0 note=61 velocity=40 time=0
note_on channel=0 note=70 velocity=53 time=0
note_on channel=0 note=49 velocity=49 time=0
note_on channel=0 note=49 velocity=0 time=480
note_on channel=0 note=70 velocity=0 time=0
note_on channel=0 note=61 velocity=0 time=0
note_on channel=0 note=60 velocity=40 time=0
note_on channel=0 note=68 velocity=48 time=0
note_on channel=0 note=50 velocity=49 time=0
note_on channel=0 note=50 velocity=0 time=480
note_on channel=0 note=68 velocity=0 time=0
note_on channel=0 note=60 velocity=0 time=0
note_on channel=0 note=58 velocity=40 time=0
note_on channel=0 note=67 velocity=48 time=0
note_on channel=0 note=51 velocity=49 time=0
note_on channel=0 note=51 velocity=0 time=480
note_on channel=0 note=67 velocity=0 time=0
note_on channel=0 note=58 velocity=0 time=0
note_on channel=0 note=63 velocity=48 time=0
note_on channel=0 note=63 velocity=0 time=480
note_on channel=0 note=60 velocity=51 time=0
note_on channel=0 note=56 velocity=43 time=0
note_on channel=0 note=72 velocity=46 time=480
note_on channel=0 note=84 velocity=55 time=0
note_on channel=0 note=56 velocity=0 time=480
note_on channel=0 note=60 velocity=0 time=0
note_on channel=0 note=65 velocity=50 time=0
note_on channel=0 note=61 velocity=42 time=0
note_on channel=0 note=72 velocity=0 time=480
note_on channel=0 note=84 velocity=0 time=0
note_on channel=0 note=77 velocity=55 time=0
note_on channel=0 note=65 velocity=0 time=480
note_on channel=0 note=61 velocity=0 time=0
note_on channel=0 note=58 velocity=54 time=0
note_on channel=0 note=55 velocity=46 time=0
note_on channel=0 note=77 velocity=0 time=480
note_on channel=0 note=70 velocity=51 time=0
note_on channel=0 note=82 velocity=61 time=0
note_on channel=0 note=55 velocity=0 time=480
note_on channel=0 note=58 velocity=0 time=0
note_on channel=0 note=63 velocity=54 time=0
note_on channel=0 note=60 velocity=45 time=0
note_on channel=0 note=70 velocity=0 time=480
note_on channel=0 note=82 velocity=0 time=0
note_on channel=0 note=75 velocity=59 time=0
note_on channel=0 note=63 velocity=0 time=480
note_on channel=0 note=60 velocity=0 time=0
note_on channel=0 note=72 velocity=51 time=0
note_on channel=0 note=53 velocity=59 time=0
note_on channel=0 note=75 velocity=0 time=480
note_on channel=0 note=80 velocity=61 time=0
note_on channel=0 note=80 velocity=0 time=480
note_on channel=0 note=53 velocity=0 time=0
note_on channel=0 note=72 velocity=0 time=0
note_on channel=0 note=70 velocity=50 time=0
note_on channel=0 note=79 velocity=60 time=0
note_on channel=0 note=55 velocity=60 time=0
note_on channel=0 note=55 velocity=0 time=480
note_on channel=0 note=79 velocity=0 time=0
note_on channel=0 note=70 velocity=0 time=0
note_on channel=0 note=68 velocity=51 time=0
note_on channel=0 note=77 velocity=61 time=0
note_on channel=0 note=56 velocity=58 time=0
note_on channel=0 note=56 velocity=0 time=480
note_on channel=0 note=77 velocity=0 time=0
note_on channel=0 note=68 velocity=0 time=0
note_on channel=0 note=67 velocity=54 time=0
note_on channel=0 note=75 velocity=64 time=0
note_on channel=0 note=57 velocity=64 time=0
note_on channel=0 note=57 velocity=0 time=480
note_on channel=0 note=75 velocity=0 time=0
note_on channel=0 note=67 velocity=0 time=0
note_on channel=0 note=65 velocity=50 time=0
note_on channel=0 note=74 velocity=60 time=0
note_on channel=0 note=58 velocity=62 time=0
note_on channel=0 note=58 velocity=0 time=480
note_on channel=0 note=74 velocity=0 time=0
note_on channel=0 note=65 velocity=0 time=0
note_on channel=0 note=68 velocity=56 time=0
note_on channel=0 note=77 velocity=66 time=0
note_on channel=0 note=51 velocity=61 time=0
note_on channel=0 note=51 velocity=0 time=480
note_on channel=0 note=77 velocity=0 time=0
note_on channel=0 note=68 velocity=0 time=0
note_on channel=0 note=67 velocity=52 time=0
note_on channel=0 note=75 velocity=62 time=0
note_on channel=0 note=63 velocity=64 time=0
note_on channel=0 note=63 velocity=0 time=480
note_on channel=0 note=75 velocity=0 time=0
note_on channel=0 note=67 velocity=0 time=0
note_on channel=0 note=62 velocity=65 time=0
note_on channel=0 note=62 velocity=0 time=480
note_on channel=0 note=63 velocity=65 time=0
note_on channel=0 note=63 velocity=0 time=480
note_on channel=0 note=66 velocity=65 time=0
note_on channel=0 note=66 velocity=0 time=480
note_on channel=0 note=75 velocity=65 time=0
note_on channel=0 note=57 velocity=61 time=0
note_on channel=0 note=57 velocity=0 time=480
note_on channel=0 note=75 velocity=0 time=0
note_on channel=0 note=72 velocity=68 time=0
note_on channel=0 note=58 velocity=62 time=0
note_on channel=0 note=58 velocity=0 time=240
note_on channel=0 note=72 velocity=0 time=240
note_on channel=0 note=73 velocity=65 time=0
note_on channel=0 note=73 velocity=0 time=480
note_on channel=0 note=77 velocity=67 time=0
note_on channel=0 note=77 velocity=0 time=480
note_on channel=0 note=67 velocity=63 time=0
note_on channel=0 note=61 velocity=65 time=0
note_on channel=0 note=51 velocity=54 time=0
note_on channel=0 note=51 velocity=0 time=480
note_on channel=0 note=61 velocity=0 time=0
note_on channel=0 note=67 velocity=0 time=0
note_on channel=0 note=70 velocity=68 time=0
note_on channel=0 note=60 velocity=62 time=0
note_on channel=0 note=56 velocity=62 time=0
note_on channel=0 note=56 velocity=0 time=480
note_on channel=0 note=60 velocity=0 time=0
note_on channel=0 note=70 velocity=0 time=0
note_on channel=0 note=68 velocity=65 time=0
note_on channel=0 note=68 velocity=0 time=480
note_on channel=0 note=72 velocity=67 time=0
note_on channel=0 note=72 velocity=0 time=480
note_on channel=0 note=62 velocity=65 time=0
note_on channel=0 note=46 velocity=53 time=0
note_on channel=0 note=56 velocity=63 time=0
note_on channel=0 note=56 velocity=0 time=480
note_on channel=0 note=46 velocity=0 time=0
note_on channel=0 note=62 velocity=0 time=0
note_on channel=0 note=63 velocity=65 time=0
note_on channel=0 note=51 velocity=63 time=0
note_on channel=0 note=55 velocity=63 time=0
note_on channel=0 note=63 velocity=0 time=240
note_on channel=0 note=55 velocity=0 time=240
note_on channel=0 note=51 velocity=0 time=0
note_on channel=0 note=82 velocity=61 time=0
note_on channel=0 note=82 velocity=0 time=0
note_on channel=0 note=87 velocity=66 time=0
note_on channel=0 note=75 velocity=49 time=240
note_on channel=0 note=75 velocity=0 time=120
note_on channel=0 note=87 velocity=0 time=120
note_on channel=0 note=85 velocity=62 time=0
note_on channel=0 note=77 velocity=49 time=0
note_on channel=0 note=77 velocity=0 time=120
note_on channel=0 note=79 velocity=49 time=120
note_on channel=0 note=79 velocity=0 time=120
note_on channel=0 note=85 velocity=0 time=0
note_on channel=0 note=84 velocity=69 time=0
note_on channel=0 note=80 velocity=49 time=0
note_on channel=0 note=80 velocity=0 time=240
note_on channel=0 note=79 velocity=49 time=0
note_on channel=0 note=79 velocity=0 time=160
note_on channel=0 note=77 velocity=49 time=0
note_on channel=0 note=77 velocity=0 time=80
note_on channel=0 note=75 velocity=49 time=0
note_on channel=0 note=75 velocity=0 time=0
note_on channel=0 note=84 velocity=0 time=0
note_on channel=0 note=89 velocity=70 time=0
note_on channel=0 note=73 velocity=49 time=0
note_on channel=0 note=73 velocity=0 time=240
note_on channel=0 note=72 velocity=49 time=0
note_on channel=0 note=72 velocity=0 time=160
note_on channel=0 note=70 velocity=49 time=0
note_on channel=0 note=70 velocity=0 time=80
note_on channel=0 note=68 velocity=49 time=0
note_on channel=0 note=68 velocity=0 time=40
note_on channel=0 note=89 velocity=0 time=0
note_on channel=0 note=82 velocity=70 time=0
note_on channel=0 note=67 velocity=49 time=0
note_on channel=0 note=67 velocity=0 time=240
note_on channel=0 note=65 velocity=49 time=0
note_on channel=0 note=65 velocity=0 time=240
note_on channel=0 note=63 velocity=49 time=0
note_on channel=0 note=63 velocity=0 time=240
note_on channel=0 note=61 velocity=49 time=0
note_on channel=0 note=61 velocity=0 time=240
note_on channel=0 note=82 velocity=0 time=0
note_on channel=0 note=87 velocity=67 time=0
note_on channel=0 note=60 velocity=49 time=0
note_on channel=0 note=60 velocity=0 time=240
note_on channel=0 note=58 velocity=49 time=0
note_on channel=0 note=58 velocity=0 time=240
note_on channel=0 note=56 velocity=49 time=0
note_on channel=0 note=56 velocity=0 time=240
note_on channel=0 note=55 velocity=49 time=0
note_on channel=0 note=55 velocity=0 time=240
note_on channel=0 note=87 velocity=0 time=0
note_on channel=0 note=80 velocity=70 time=0
note_on channel=0 note=53 velocity=51 time=0
note_on channel=0 note=53 velocity=0 time=240
note_on channel=0 note=51 velocity=51 time=0
note_on channel=0 note=51 velocity=0 time=40
note_on channel=0 note=49 velocity=52 time=0
note_on channel=0 note=49 velocity=0 time=240
note_on channel=0 note=48 velocity=53 time=0
note_on channel=0 note=48 velocity=0 time=240
note_on channel=0 note=80 velocity=0 time=0
note_on channel=0 note=73 velocity=72 time=0
note_on channel=0 note=85 velocity=72 time=0
note_on channel=0 note=46 velocity=53 time=0
note_on channel=0 note=46 velocity=0 time=240
note_on channel=0 note=85 velocity=0 time=0
note_on channel=0 note=73 velocity=0 time=0
note_on channel=0 note=45 velocity=54 time=0
note_on channel=0 note=45 velocity=0 time=240
note_on channel=0 note=84 velocity=73 time=0
note_on channel=0 note=72 velocity=73 time=0
note_on channel=0 note=46 velocity=55 time=0
note_on channel=0 note=46 velocity=0 time=240
note_on channel=0 note=72 velocity=0 time=0
note_on channel=0 note=84 velocity=0 time=0
note_on channel=0 note=48 velocity=55 time=0
note_on channel=0 note=48 velocity=0 time=240
note_on channel=0 note=70 velocity=75 time=0
note_on channel=0 note=82 velocity=75 time=0
note_on channel=0 note=49 velocity=55 time=0
note_on channel=0 note=49 velocity=0 time=240
note_on channel=0 note=82 velocity=0 time=0
note_on channel=0 note=70 velocity=0 time=0
note_on channel=0 note=48 velocity=56 time=0
note_on channel=0 note=48 velocity=0 time=240
note_on channel=0 note=80 velocity=77 time=0
note_on channel=0 note=68 velocity=77 time=0
note_on channel=0 note=49 velocity=57 time=0
note_on channel=0 note=49 velocity=0 time=240
note_on channel=0 note=68 velocity=0 time=0
note_on channel=0 note=80 velocity=0 time=0
note_on channel=0 note=50 velocity=58 time=0
note_on channel=0 note=50 velocity=0 time=240
note_on channel=0 note=67 velocity=79 time=0
note_on channel=0 note=79 velocity=79 time=0
note_on channel=0 note=51 velocity=59 time=0
note_on channel=0 note=51 velocity=0 time=240
note_on channel=0 note=79 velocity=0 time=0
note_on channel=0 note=67 velocity=0 time=0
note_on channel=0 note=53 velocity=60 time=0
note_on channel=0 note=53 velocity=0 time=240
note_on channel=0 note=73 velocity=80 time=0
note_on channel=0 note=54 velocity=61 time=0
note_on channel=0 note=54 velocity=0 time=240
note_on channel=0 note=73 velocity=0 time=0
note_on channel=0 note=55 velocity=62 time=0
note_on channel=0 note=55 velocity=0 time=20
note_on channel=0 note=84 velocity=80 time=0
note_on channel=0 note=44 velocity=76 time=0
note_on channel=0 note=84 velocity=0 time=240
note_on channel=0 note=82 velocity=79 time=0
note_on channel=0 note=82 velocity=0 time=240
note_on channel=0 note=80 velocity=79 time=0
note_on channel=0 note=80 velocity=0 time=240
note_on channel=0 note=79 velocity=78 time=0
note_on channel=0 note=79 velocity=0 time=240
note_on channel=0 note=44 velocity=0 time=0
note_on channel=0 note=77 velocity=77 time=0
note_on channel=0 note=49 velocity=72 time=0
note_on channel=0 note=77 velocity=0 time=240
note_on channel=0 note=75 velocity=76 time=0
note_on channel=0 note=75 velocity=0 time=180
note_on channel=0 note=73 velocity=76 time=0
note_on channel=0 note=73 velocity=0 time=240
note_on channel=0 note=72 velocity=76 time=0
note_on channel=0 note=72 velocity=0 time=240
note_on channel=0 note=49 velocity=0 time=0
note_on channel=0 note=70 velocity=77 time=0
note_on channel=0 note=43 velocity=77 time=0
note_on channel=0 note=70 velocity=0 time=240
note_on channel=0 note=68 velocity=77 time=0
note_on channel=0 note=68 velocity=0 time=240
note_on channel=0 note=67 velocity=77 time=0
note_on channel=0 note=67 velocity=0 time=140
note_on channel=0 note=65 velocity=77 time=0
note_on channel=0 note=65 velocity=0 time=240
note_on channel=0 note=43 velocity=0 time=0
note_on channel=0 note=64 velocity=77 time=0
note_on channel=0 note=48 velocity=71 time=0
note_on channel=0 note=64 velocity=0 time=240
note_on channel=0 note=61 velocity=76 time=0
note_on channel=0 note=61 velocity=0 time=240
note_on channel=0 note=60 velocity=76 time=0
note_on channel=0 note=60 velocity=0 time=240
note_on channel=0 note=58 velocity=75 time=0
note_on channel=0 note=58 velocity=0 time=60
note_on channel=0 note=48 velocity=0 time=0
note_on channel=0 note=56 velocity=75 time=0
note_on channel=0 note=41 velocity=76 time=0
note_on channel=0 note=56 velocity=0 time=240
note_on channel=0 note=55 velocity=74 time=0
note_on channel=0 note=55 velocity=0 time=240
note_on channel=0 note=53 velocity=73 time=0
note_on channel=0 note=53 velocity=0 time=240
note_on channel=0 note=52 velocity=71 time=0
note_on channel=0 note=52 velocity=0 time=240
note_on channel=0 note=41 velocity=0 time=0
note_on channel=0 note=53 velocity=70 time=0
note_on channel=0 note=29 velocity=76 time=0
note_on channel=0 note=41 velocity=76 time=0
note_on channel=0 note=53 velocity=0 time=20
note_on channel=0 note=55 velocity=72 time=0
note_on channel=0 note=55 velocity=0 time=240
note_on channel=0 note=56 velocity=74 time=0
note_on channel=0 note=56 velocity=0 time=240
note_on channel=0 note=55 velocity=71 time=0
note_on channel=0 note=55 velocity=0 time=240
note_on channel=0 note=53 velocity=73 time=0
note_on channel=0 note=53 velocity=0 time=240
note_on channel=0 note=51 velocity=72 time=0
note_on channel=0 note=51 velocity=0 time=240
note_on channel=0 note=50 velocity=71 time=0
note_on channel=0 note=50 velocity=0 time=180
note_on channel=0 note=48 velocity=70 time=0
note_on channel=0 note=48 velocity=0 time=240
note_on channel=0 note=41 velocity=0 time=0
note_on channel=0 note=29 velocity=0 time=0
note_on channel=0 note=47 velocity=67 time=0
note_on channel=0 note=30 velocity=75 time=0
note_on channel=0 note=42 velocity=75 time=0
note_on channel=0 note=47 velocity=0 time=240
note_on channel=0 note=48 velocity=69 time=0
note_on channel=0 note=48 velocity=0 time=240
note_on channel=0 note=50 velocity=71 time=0
note_on channel=0 note=50 velocity=0 time=240
note_on channel=0 note=48 velocity=70 time=0
note_on channel=0 note=48 velocity=0 time=20
note_on channel=0 note=42 velocity=0 time=0
note_on channel=0 note=30 velocity=0 time=0
note_on channel=0 note=31 velocity=75 time=0
note_on channel=0 note=43 velocity=56 time=60
note_on channel=0 note=43 velocity=0 time=20
note_on channel=0 note=47 velocity=56 time=0
note_on channel=0 note=47 velocity=0 time=20
note_on channel=0 note=50 velocity=56 time=0
note_on channel=0 note=50 velocity=0 time=20
note_on channel=0 note=31 velocity=0 time=0
note_on channel=0 note=55 velocity=69 time=0
note_on channel=0 note=55 velocity=0 time=60
note_on channel=0 note=38 velocity=54 time=20
note_on channel=0 note=38 velocity=0 time=60
note_on channel=0 note=35 velocity=55 time=0
note_on channel=0 note=35 velocity=0 time=60
note_on channel=0 note=31 velocity=67 time=0
note_on channel=0 note=31 velocity=0 time=20
note_on channel=0 note=43 velocity=58 time=0
note_on channel=0 note=43 velocity=0 time=60
note_on channel=0 note=48 velocity=58 time=0
note_on channel=0 note=48 velocity=0 time=20
note_on channel=0 note=51 velocity=58 time=0
note_on channel=0 note=51 velocity=0 time=20
note_on channel=0 note=55 velocity=70 time=0
note_on channel=0 note=55 velocity=0 time=20
note_on channel=0 note=39 velocity=55 time=20
note_on channel=0 note=39 velocity=0 time=20
note_on channel=0 note=36 velocity=55 time=0
note_on channel=0 note=36 velocity=0 time=20
note_on channel=0 note=31 velocity=69 time=0
note_on channel=0 note=31 velocity=0 time=60
note_on channel=0 note=43 velocity=60 time=0
note_on channel=0 note=43 velocity=0 time=20
note_on channel=0 note=50 velocity=60 time=0
note_on channel=0 note=50 velocity=0 time=60
note_on channel=0 note=53 velocity=60 time=0
note_on channel=0 note=53 velocity=0 time=20
note_on channel=0 note=55 velocity=71 time=0
note_on channel=0 note=55 velocity=0 time=20
note_on channel=0 note=41 velocity=57 time=20
note_on channel=0 note=41 velocity=0 time=20
note_on channel=0 note=38 velocity=57 time=0
note_on channel=0 note=38 velocity=0 time=20
note_on channel=0 note=31 velocity=70 time=0
note_on channel=0 note=31 velocity=0 time=60
note_on channel=0 note=43 velocity=61 time=0
note_on channel=0 note=43 velocity=0 time=20
note_on channel=0 note=48 velocity=61 time=0
note_on channel=0 note=48 velocity=0 time=20
note_on channel=0 note=51 velocity=61 time=0
note_on channel=0 note=51 velocity=0 time=20
note_on channel=0 note=55 velocity=71 time=0
note_on channel=0 note=55 velocity=0 time=60
note_on channel=0 note=39 velocity=59 time=60
note_on channel=0 note=39 velocity=0 time=60
note_on channel=0 note=36 velocity=59 time=0
note_on channel=0 note=36 velocity=0 time=20
note_on channel=0 note=31 velocity=81 time=0
note_on channel=0 note=31 velocity=0 time=60
note_on channel=0 note=55 velocity=60 time=0
note_on channel=0 note=55 velocity=0 time=20
note_on channel=0 note=59 velocity=60 time=0
note_on channel=0 note=59 velocity=0 time=60
note_on channel=0 note=62 velocity=60 time=0
note_on channel=0 note=62 velocity=0 time=20
note_on channel=0 note=67 velocity=76 time=0
note_on channel=0 note=67 velocity=0 time=20
note_on channel=0 note=50 velocity=59 time=20
note_on channel=0 note=50 velocity=0 time=20
note_on channel=0 note=47 velocity=59 time=0
note_on channel=0 note=47 velocity=0 time=60
note_on channel=0 note=43 velocity=74 time=0
note_on channel=0 note=43 velocity=0 time=100
note_on channel=0 note=55 velocity=64 time=0
note_on channel=0 note=55 velocity=0 time=20
note_on channel=0 note=60 velocity=64 time=0
note_on channel=0 note=60 velocity=0 time=60
note_on channel=0 note=63 velocity=64 time=0
note_on channel=0 note=63 velocity=0 time=20
note_on channel=0 note=67 velocity=76 time=0
note_on channel=0 note=67 velocity=0 time=20
note_on channel=0 note=51 velocity=59 time=20
note_on channel=0 note=51 velocity=0 time=20
note_on channel=0 note=48 velocity=59 time=0
note_on channel=0 note=48 velocity=0 time=60
note_on channel=0 note=43 velocity=76 time=0
note_on channel=0 note=43 velocity=0 time=20
note_on channel=0 note=55 velocity=66 time=0
note_on channel=0 note=55 velocity=0 time=20
note_on channel=0 note=62 velocity=66 time=0
note_on channel=0 note=62 velocity=0 time=20
note_on channel=0 note=65 velocity=66 time=0
note_on channel=0 note=65 velocity=0 time=20
note_on channel=0 note=67 velocity=77 time=0
note_on channel=0 note=67 velocity=0 time=20
note_on channel=0 note=53 velocity=62 time=60
note_on channel=0 note=53 velocity=0 time=20
note_on channel=0 note=50 velocity=62 time=0
note_on channel=0 note=50 velocity=0 time=20
note_on channel=0 note=43 velocity=76 time=0
note_on channel=0 note=43 velocity=0 time=20
note_on channel=0 note=55 velocity=67 time=0
note_on channel=0 note=55 velocity=0 time=60
note_on channel=0 note=60 velocity=67 time=0
note_on channel=0 note=60 velocity=0 time=20
note_on channel=0 note=63 velocity=67 time=0
note_on channel=0 note=63 velocity=0 time=60
note_on channel=0 note=67 velocity=77 time=0
note_on channel=0 note=67 velocity=0 time=20
note_on channel=0 note=51 velocity=65 time=20
note_on channel=0 note=51 velocity=0 time=20
note_on channel=0 note=48 velocity=65 time=0
note_on channel=0 note=48 velocity=0 time=20
note_on channel=0 note=43 velocity=88 time=0
note_on channel=0 note=43 velocity=0 time=20
note_on channel=0 note=67 velocity=72 time=0
note_on channel=0 note=67 velocity=0 time=20
note_on channel=0 note=71 velocity=72 time=0
note_on channel=0 note=71 velocity=0 time=20
note_on channel=0 note=74 velocity=72 time=0
note_on channel=0 note=74 velocity=0 time=20
note_on channel=0 note=79 velocity=89 time=0
note_on channel=0 note=79 velocity=0 time=20
note_on channel=0 note=62 velocity=70 time=60
note_on channel=0 note=62 velocity=0 time=20
note_on channel=0 note=59 velocity=70 time=0
note_on channel=0 note=59 velocity=0 time=20
note_on channel=0 note=55 velocity=86 time=0
note_on channel=0 note=55 velocity=0 time=60
note_on channel=0 note=67 velocity=75 time=0
note_on channel=0 note=67 velocity=0 time=60
note_on channel=0 note=72 velocity=75 time=0
note_on channel=0 note=72 velocity=0 time=20
note_on channel=0 note=75 velocity=75 time=0
note_on channel=0 note=75 velocity=0 time=20
note_on channel=0 note=79 velocity=88 time=0
note_on channel=0 note=79 velocity=0 time=20
note_on channel=0 note=63 velocity=68 time=20
note_on channel=0 note=63 velocity=0 time=20
note_on channel=0 note=60 velocity=68 time=0
note_on channel=0 note=60 velocity=0 time=60
note_on channel=0 note=55 velocity=86 time=0
note_on channel=0 note=55 velocity=0 time=60
note_on channel=0 note=67 velocity=75 time=0
note_on channel=0 note=67 velocity=0 time=20
note_on channel=0 note=74 velocity=75 time=0
note_on channel=0 note=74 velocity=0 time=20
note_on channel=0 note=77 velocity=75 time=0
note_on channel=0 note=77 velocity=0 time=20
note_on channel=0 note=79 velocity=87 time=0
note_on channel=0 note=79 velocity=0 time=20
note_on channel=0 note=65 velocity=70 time=20
note_on channel=0 note=65 velocity=0 time=20
note_on channel=0 note=62 velocity=70 time=0
note_on channel=0 note=62 velocity=0 time=20
note_on channel=0 note=55 velocity=86 time=0
note_on channel=0 note=55 velocity=0 time=60
note_on channel=0 note=67 velocity=75 time=0
note_on channel=0 note=67 velocity=0 time=60
note_on channel=0 note=72 velocity=75 time=0
note_on channel=0 note=72 velocity=0 time=60
note_on channel=0 note=75 velocity=75 time=0
note_on channel=0 note=75 velocity=0 time=60
note_on channel=0 note=79 velocity=86 time=0
note_on channel=0 note=79 velocity=0 time=60
note_on channel=0 note=63 velocity=71 time=60
note_on channel=0 note=63 velocity=0 time=60
note_on channel=0 note=60 velocity=71 time=0
note_on channel=0 note=60 velocity=0 time=20
note_on channel=0 note=55 velocity=80 time=0
note_on channel=0 note=55 velocity=0 time=60
note_on channel=0 note=67 velocity=66 time=20
note_on channel=0 note=67 velocity=0 time=20
note_on channel=0 note=66 velocity=68 time=0
note_on channel=0 note=66 velocity=0 time=20
note_on channel=0 note=67 velocity=70 time=0
control_change channel=0 control=64 value=127 time=9
note_on channel=0 note=67 velocity=0 time=20
note_on channel=0 note=71 velocity=72 time=0
note_on channel=0 note=71 velocity=0 time=20
note_on channel=0 note=74 velocity=75 time=0
note_on channel=0 note=74 velocity=0 time=60
note_on channel=0 note=79 velocity=84 time=0
note_on channel=0 note=79 velocity=0 time=60
note_on channel=0 note=74 velocity=72 time=0
note_on channel=0 note=74 velocity=0 time=20
note_on channel=0 note=71 velocity=64 time=0
note_on channel=0 note=71 velocity=0 time=20
note_on channel=0 note=67 velocity=70 time=0
note_on channel=0 note=55 velocity=67 time=0
note_on channel=0 note=67 velocity=0 time=60
note_on channel=0 note=55 velocity=0 time=20
note_on channel=0 note=50 velocity=67 time=0
note_on channel=0 note=50 velocity=0 time=60
note_on channel=0 note=47 velocity=66 time=0
note_on channel=0 note=47 velocity=0 time=20
note_on channel=0 note=43 velocity=80 time=0
control_change channel=0 control=64 value=0 time=15
note_on channel=0 note=71 velocity=66 time=60
note_on channel=0 note=71 velocity=0 time=60
note_on channel=0 note=70 velocity=68 time=0
note_on channel=0 note=70 velocity=0 time=60
note_on channel=0 note=43 velocity=0 time=0
note_on channel=0 note=71 velocity=70 time=0
control_change channel=0 control=64 value=127 time=26
note_on channel=0 note=71 velocity=0 time=34
note_on channel=0 note=74 velocity=72 time=0
note_on channel=0 note=74 velocity=0 time=60
note_on channel=0 note=79 velocity=75 time=0
note_on channel=0 note=79 velocity=0 time=60
note_on channel=0 note=83 velocity=84 time=0
note_on channel=0 note=83 velocity=0 time=60
note_on channel=0 note=79 velocity=72 time=0
note_on channel=0 note=79 velocity=0 time=60
note_on channel=0 note=74 velocity=64 time=0
note_on channel=0 note=74 velocity=0 time=60
note_on channel=0 note=71 velocity=70 time=0
note_on channel=0 note=55 velocity=67 time=0
note_on channel=0 note=71 velocity=0 time=60
note_on channel=0 note=55 velocity=0 time=20
note_on channel=0 note=50 velocity=67 time=0
note_on channel=0 note=50 velocity=0 time=20
note_on channel=0 note=47 velocity=66 time=0
note_on channel=0 note=47 velocity=0 time=20
note_on channel=0 note=43 velocity=80 time=0
control_change channel=0 control=64 value=0 time=9
note_on channel=0 note=74 velocity=66 time=60
note_on channel=0 note=74 velocity=0 time=60
note_on channel=0 note=73 velocity=68 time=0
note_on channel=0 note=73 velocity=0 time=60
note_on channel=0 note=43 velocity=0 time=0
note_on channel=0 note=74 velocity=70 time=0
control_change channel=0 control=64 value=127 time=14
note_on channel=0 note=74 velocity=0 time=60
note_on channel=0 note=77 velocity=72 time=0
note_on channel=0 note=77 velocity=0 time=60
note_on channel=0 note=83 velocity=75 time=0
note_on channel=0 note=83 velocity=0 time=60
note_on channel=0 note=86 velocity=84 time=0
note_on channel=0 note=86 velocity=0 time=20
note_on channel=0 note=83 velocity=72 time=0
note_on channel=0 note=83 velocity=0 time=20
note_on channel=0 note=77 velocity=64 time=0
note_on channel=0 note=77 velocity=0 time=20
note_on channel=0 note=74 velocity=70 time=0
note_on channel=0 note=43 velocity=67 time=0
control_change channel=0 control=64 value=0 time=6
control_change channel=0 control=64 value=127 time=20
note_on channel=0 note=74 velocity=0 time=40
note_on channel=0 note=43 velocity=0 time=20
note_on channel=0 note=38 velocity=67 time=0
note_on channel=0 note=38 velocity=0 time=20
note_on channel=0 note=35 velocity=66 time=0
note_on channel=0 note=35 velocity=0 time=60
note_on channel=0 note=31 velocity=80 time=0
control_change channel=0 control=64 value=0 time=11
note_on channel=0 note=77 velocity=66 time=100
note_on channel=0 note=77 velocity=0 time=20
note_on channel=0 note=76 velocity=68 time=0
note_on channel=0 note=76 velocity=0 time=60
note_on channel=0 note=31 velocity=0 time=0
note_on channel=0 note=77 velocity=70 time=0
control_change channel=0 control=64 value=127 time=77
note_on channel=0 note=77 velocity=0 time=23
note_on channel=0 note=83 velocity=72 time=0
note_on channel=0 note=83 velocity=0 time=20
note_on channel=0 note=86 velocity=75 time=0
note_on channel=0 note=86 velocity=0 time=20
note_on channel=0 note=89 velocity=84 time=0
note_on channel=0 note=89 velocity=0 time=20
note_on channel=0 note=86 velocity=72 time=0
note_on channel=0 note=86 velocity=0 time=20
note_on channel=0 note=83 velocity=64 time=0
note_on channel=0 note=83 velocity=0 time=20
note_on channel=0 note=89 velocity=84 time=0
note_on channel=0 note=89 velocity=0 time=20
note_on channel=0 note=86 velocity=72 time=0
note_on channel=0 note=86 velocity=0 time=20
note_on channel=0 note=83 velocity=64 time=0
note_on channel=0 note=83 velocity=0 time=0
note_on channel=0 note=89 velocity=100 time=0
note_on channel=0 note=31 velocity=75 time=0
note_on channel=0 note=43 velocity=80 time=0
control_change channel=0 control=64 value=0 time=11
note_on channel=0 note=89 velocity=0 time=0
note_on channel=0 note=87 velocity=86 time=0
control_change channel=0 control=64 value=127 time=8
note_on channel=0 note=87 velocity=0 time=0
note_on channel=0 note=86 velocity=85 time=0
note_on channel=0 note=86 velocity=0 time=0
note_on channel=0 note=84 velocity=83 time=0
note_on channel=0 note=84 velocity=0 time=0
note_on channel=0 note=83 velocity=82 time=0
control_change channel=0 control=64 value=0 time=7
control_change channel=0 control=64 value=127 time=6
note_on channel=0 note=83 velocity=0 time=0
note_on channel=0 note=80 velocity=81 time=0
note_on channel=0 note=80 velocity=0 time=0
note_on channel=0 note=79 velocity=79 time=0
note_on channel=0 note=79 velocity=0 time=0
note_on channel=0 note=77 velocity=78 time=0
note_on channel=0 note=77 velocity=0 time=0
note_on channel=0 note=75 velocity=77 time=0
note_on channel=0 note=75 velocity=0 time=20
note_on channel=0 note=74 velocity=75 time=0
note_on channel=0 note=74 velocity=0 time=40
note_on channel=0 note=72 velocity=74 time=0
control_change channel=0 control=64 value=0 time=13
control_change channel=0 control=64 value=127 time=47
note_on channel=0 note=72 velocity=0 time=100
note_on channel=0 note=71 velocity=72 time=0
note_on channel=0 note=71 velocity=0 time=160
note_on channel=0 note=68 velocity=71 time=0
note_on channel=0 note=68 velocity=0 time=160
note_on channel=0 note=67 velocity=70 time=0
note_on channel=0 note=67 velocity=0 time=16
note_on channel=0 note=65 velocity=68 time=0
note_on channel=0 note=65 velocity=0 time=0
note_on channel=0 note=63 velocity=69 time=0
note_on channel=0 note=63 velocity=0 time=4
note_on channel=0 note=62 velocity=70 time=0
note_on channel=0 note=62 velocity=0 time=0
note_on channel=0 note=60 velocity=71 time=0
note_on channel=0 note=60 velocity=0 time=0
note_on channel=0 note=43 velocity=0 time=0
note_on channel=0 note=31 velocity=0 time=0
note_on channel=0 note=59 velocity=93 time=0
note_on channel=0 note=43 velocity=69 time=0
note_on channel=0 note=53 velocity=82 time=0
note_on channel=0 note=50 velocity=69 time=0
control_change channel=0 control=64 value=0 time=10
note_on channel=0 note=50 velocity=0 time=0
note_on channel=0 note=59 velocity=0 time=0
note_on channel=0 note=43 velocity=0 time=0
note_on channel=0 note=53 velocity=0 time=0
note_on channel=0 note=67 velocity=48 time=0
note_on channel=0 note=67 velocity=0 time=120
note_on channel=0 note=72 velocity=49 time=120
note_on channel=0 note=72 velocity=0 time=120
note_on channel=0 note=74 velocity=51 time=0
note_on channel=0 note=74 velocity=0 time=120
note_on channel=0 note=75 velocity=52 time=0
note_on channel=0 note=48 velocity=40 time=0
note_on channel=0 note=48 velocity=0 time=0
note_on channel=0 note=51 velocity=36 time=0
note_on channel=0 note=51 velocity=0 time=0
note_on channel=0 note=55 velocity=36 time=0
note_on channel=0 note=55 velocity=0 time=0
note_on channel=0 note=75 velocity=0 time=0
note_on channel=0 note=77 velocity=50 time=0
note_on channel=0 note=60 velocity=36 time=0
note_on channel=0 note=60 velocity=0 time=0
note_on channel=0 note=77 velocity=0 time=0
note_on channel=0 note=74 velocity=53 time=0
note_on channel=0 note=48 velocity=40 time=0
note_on channel=0 note=48 velocity=0 time=0
note_on channel=0 note=53 velocity=40 time=0
note_on channel=0 note=53 velocity=0 time=240
note_on channel=0 note=55 velocity=36 time=0
note_on channel=0 note=55 velocity=0 time=0
note_on channel=0 note=74 velocity=0 time=0
note_on channel=0 note=75 velocity=50 time=0
note_on channel=0 note=59 velocity=36 time=0
note_on channel=0 note=59 velocity=0 time=0
note_on channel=0 note=75 velocity=0 time=0
note_on channel=0 note=72 velocity=52 time=0
note_on channel=0 note=48 velocity=40 time=0
note_on channel=0 note=48 velocity=0 time=240
note_on channel=0 note=51 velocity=40 time=0
note_on channel=0 note=51 velocity=0 time=240
note_on channel=0 note=55 velocity=36 time=0
note_on channel=0 note=55 velocity=0 time=0
note_on channel=0 note=60 velocity=36 time=0
note_on channel=0 note=72 velocity=0 time=180
note_on channel=0 note=74 velocity=48 time=0
note_on channel=0 note=74 velocity=0 time=40
note_on channel=0 note=60 velocity=0 time=0
note_on channel=0 note=72 velocity=52 time=0
note_on channel=0 note=63 velocity=40 time=0
note_on channel=0 note=63 velocity=0 time=240
note_on channel=0 note=72 velocity=0 time=0
note_on channel=0 note=71 velocity=51 time=0
note_on channel=0 note=67 velocity=36 time=0
note_on channel=0 note=67 velocity=0 time=240
note_on channel=0 note=71 velocity=0 time=0
note_on channel=0 note=72 velocity=51 time=0
note_on channel=0 note=63 velocity=36 time=0
note_on channel=0 note=63 velocity=0 time=240
note_on channel=0 note=72 velocity=0 time=0
note_on channel=0 note=74 velocity=50 time=0
note_on channel=0 note=62 velocity=36 time=0
note_on channel=0 note=74 velocity=0 time=180
note_on channel=0 note=77 velocity=49 time=0
note_on channel=0 note=77 velocity=0 time=60
note_on channel=0 note=62 velocity=0 time=0
note_on channel=0 note=75 velocity=56 time=0
note_on channel=0 note=60 velocity=40 time=0
note_on channel=0 note=60 velocity=0 time=240
note_on channel=0 note=75 velocity=0 time=0
note_on channel=0 note=74 velocity=52 time=0
note_on channel=0 note=67 velocity=36 time=0
note_on channel=0 note=67 velocity=0 time=240
note_on channel=0 note=74 velocity=0 time=0
note_on channel=0 note=75 velocity=52 time=0
note_on channel=0 note=60 velocity=36 time=0
note_on channel=0 note=63 velocity=36 time=0
note_on channel=0 note=63 velocity=0 time=0
note_on channel=0 note=60 velocity=0 time=0
note_on channel=0 note=75 velocity=0 time=0
note_on channel=0 note=77 velocity=52 time=0
note_on channel=0 note=67 velocity=36 time=0
note_on channel=0 note=67 velocity=0 time=0
note_on channel=0 note=77 velocity=0 time=0
note_on channel=0 note=79 velocity=56 time=0
note_on channel=0 note=59 velocity=41 time=0
note_on channel=0 note=62 velocity=41 time=0
note_on channel=0 note=62 velocity=0 time=240
note_on channel=0 note=59 velocity=0 time=0
note_on channel=0 note=79 velocity=0 time=0
note_on channel=0 note=67 velocity=36 time=0
note_on channel=0 note=67 velocity=0 time=240
note_on channel=0 note=79 velocity=55 time=0
note_on channel=0 note=60 velocity=36 time=0
note_on channel=0 note=56 velocity=36 time=0
note_on channel=0 note=56 velocity=0 time=240
note_on channel=0 note=60 velocity=0 time=0
note_on channel=0 note=79 velocity=0 time=0
note_on channel=0 note=67 velocity=36 time=0
note_on channel=0 note=67 velocity=0 time=240
note_on channel=0 note=79 velocity=57 time=0
note_on channel=0 note=55 velocity=40 time=0
note_on channel=0 note=55 velocity=0 time=240
note_on channel=0 note=59 velocity=29 time=0
note_on channel=0 note=59 velocity=0 time=240
note_on channel=0 note=62 velocity=28 time=0
note_on channel=0 note=62 velocity=0 time=240
note_on channel=0 note=67 velocity=28 time=0
note_on channel=0 note=67 velocity=0 time=0
note_on channel=0 note=55 velocity=40 time=0
note_on channel=0 note=55 velocity=0 time=240
note_on channel=0 note=59 velocity=31 time=0
note_on channel=0 note=59 velocity=0 time=240
note_on channel=0 note=79 velocity=0 time=0
note_on channel=0 note=77 velocity=51 time=0
note_on channel=0 note=62 velocity=31 time=0
note_on channel=0 note=62 velocity=0 time=0
note_on channel=0 note=77 velocity=0 time=0
note_on channel=0 note=79 velocity=53 time=0
note_on channel=0 note=67 velocity=31 time=0
note_on channel=0 note=79 velocity=0 time=0
note_on channel=0 note=77 velocity=48 time=0
note_on channel=0 note=77 velocity=0 time=60
note_on channel=0 note=79 velocity=48 time=0
note_on channel=0 note=79 velocity=0 time=0
note_on channel=0 note=67 velocity=0 time=0
note_on channel=0 note=80 velocity=56 time=0
note_on channel=0 note=53 velocity=40 time=0
note_on channel=0 note=53 velocity=0 time=0
note_on channel=0 note=56 velocity=36 time=0
note_on channel=0 note=56 velocity=0 time=240
note_on channel=0 note=59 velocity=37 time=0
note_on channel=0 note=59 velocity=0 time=240
note_on channel=0 note=62 velocity=37 time=0
note_on channel=0 note=62 velocity=0 time=0
note_on channel=0 note=80 velocity=0 time=0
note_on channel=0 note=74 velocity=52 time=0
note_on channel=0 note=53 velocity=40 time=0
note_on channel=0 note=53 velocity=0 time=240
note_on channel=0 note=56 velocity=36 time=0
note_on channel=0 note=56 velocity=0 time=240
note_on channel=0 note=74 velocity=0 time=0
note_on channel=0 note=75 velocity=51 time=0
note_on channel=0 note=59 velocity=36 time=0
note_on channel=0 note=59 velocity=0 time=0
note_on channel=0 note=75 velocity=0 time=0
note_on channel=0 note=77 velocity=53 time=0
note_on channel=0 note=62 velocity=36 time=0
note_on channel=0 note=77 velocity=0 time=0
note_on channel=0 note=75 velocity=50 time=0
note_on channel=0 note=75 velocity=0 time=60
note_on channel=0 note=77 velocity=50 time=0
note_on channel=0 note=77 velocity=0 time=0
note_on channel=0 note=62 velocity=0 time=0
note_on channel=0 note=79 velocity=56 time=0
note_on channel=0 note=51 velocity=40 time=0
note_on channel=0 note=51 velocity=0 time=0
note_on channel=0 note=55 velocity=34 time=0
note_on channel=0 note=55 velocity=0 time=240
note_on channel=0 note=60 velocity=34 time=0
note_on channel=0 note=60 velocity=0 time=240
note_on channel=0 note=63 velocity=33 time=0
note_on channel=0 note=63 velocity=0 time=0
note_on channel=0 note=79 velocity=0 time=0
note_on channel=0 note=72 velocity=52 time=0
note_on channel=0 note=56 velocity=41 time=0
note_on channel=0 note=56 velocity=0 time=240
note_on channel=0 note=60 velocity=35 time=0
note_on channel=0 note=72 velocity=0 time=230
note_on channel=0 note=60 velocity=0 time=10
note_on channel=0 note=72 velocity=53 time=0
note_on channel=0 note=63 velocity=35 time=0
note_on channel=0 note=63 velocity=0 time=0
note_on channel=0 note=72 velocity=0 time=0
note_on channel=0 note=74 velocity=54 time=0
note_on channel=0 note=66 velocity=35 time=0
note_on channel=0 note=66 velocity=0 time=0
note_on channel=0 note=74 velocity=0 time=0
note_on channel=0 note=75 velocity=57 time=0
note_on channel=0 note=55 velocity=40 time=0
note_on channel=0 note=55 velocity=0 time=0
note_on channel=0 note=75 velocity=0 time=0
note_on channel=0 note=60 velocity=40 time=0
note_on channel=0 note=60 velocity=0 time=240
note_on channel=0 note=75 velocity=53 time=0
note_on channel=0 note=63 velocity=35 time=0
note_on channel=0 note=63 velocity=0 time=240
note_on channel=0 note=75 velocity=0 time=0
note_on channel=0 note=77 velocity=55 time=0
note_on channel=0 note=67 velocity=35 time=0
note_on channel=0 note=67 velocity=0 time=0
note_on channel=0 note=77 velocity=0 time=0
note_on channel=0 note=74 velocity=57 time=0
note_on channel=0 note=55 velocity=40 time=0
note_on channel=0 note=55 velocity=0 time=0
note_on channel=0 note=74 velocity=0 time=0
note_on channel=0 note=59 velocity=36 time=0
note_on channel=0 note=59 velocity=0 time=240
note_on channel=0 note=74 velocity=51 time=0
note_on channel=0 note=62 velocity=36 time=0
note_on channel=0 note=62 velocity=0 time=0
note_on channel=0 note=74 velocity=0 time=0
note_on channel=0 note=75 velocity=54 time=0
note_on channel=0 note=67 velocity=36 time=0
note_on channel=0 note=67 velocity=0 time=0
note_on channel=0 note=75 velocity=0 time=0
note_on channel=0 note=72 velocity=57 time=0
note_on channel=0 note=36 velocity=38 time=0
note_on channel=0 note=36 velocity=0 time=0
note_on channel=0 note=72 velocity=0 time=0
note_on channel=0 note=39 velocity=42 time=0
note_on channel=0 note=39 velocity=0 time=240
note_on channel=0 note=43 velocity=45 time=0
note_on channel=0 note=43 velocity=0 time=240
note_on channel=0 note=48 velocity=45 time=0
note_on channel=0 note=48 velocity=0 time=240
note_on channel=0 note=51 velocity=45 time=0
note_on channel=0 note=51 velocity=0 time=240
note_on channel=0 note=53 velocity=50 time=0
note_on channel=0 note=53 velocity=0 time=0
note_on channel=0 note=55 velocity=52 time=0
note_on channel=0 note=55 velocity=0 time=0
note_on channel=0 note=56 velocity=54 time=0
note_on channel=0 note=59 velocity=47 time=0
note_on channel=0 note=59 velocity=0 time=240
note_on channel=0 note=62 velocity=49 time=0
note_on channel=0 note=62 velocity=0 time=240
note_on channel=0 note=65 velocity=51 time=0
note_on channel=0 note=65 velocity=0 time=0
note_on channel=0 note=56 velocity=0 time=0
note_on channel=0 note=50 velocity=51 time=0
note_on channel=0 note=77 velocity=51 time=240
note_on channel=0 note=77 velocity=0 time=0
note_on channel=0 note=50 velocity=0 time=0
note_on channel=0 note=74 velocity=50 time=0
note_on channel=0 note=51 velocity=50 time=0
note_on channel=0 note=51 velocity=0 time=0
note_on channel=0 note=74 velocity=0 time=0
note_on channel=0 note=71 velocity=48 time=0
note_on channel=0 note=53 velocity=52 time=0
note_on channel=0 note=53 velocity=0 time=0
note_on channel=0 note=71 velocity=0 time=0
note_on channel=0 note=55 velocity=54 time=0
note_on channel=0 note=60 velocity=44 time=0
note_on channel=0 note=60 velocity=0 time=240
note_on channel=0 note=63 velocity=46 time=0
note_on channel=0 note=63 velocity=0 time=240
note_on channel=0 note=67 velocity=49 time=0
note_on channel=0 note=67 velocity=0 time=0
note_on channel=0 note=55 velocity=0 time=0
note_on channel=0 note=48 velocity=51 time=0
note_on channel=0 note=79 velocity=48 time=240
note_on channel=0 note=79 velocity=0 time=240
note_on channel=0 note=48 velocity=0 time=0
note_on channel=0 note=75 velocity=47 time=0
note_on channel=0 note=58 velocity=50 time=0
note_on channel=0 note=58 velocity=0 time=240
note_on channel=0 note=75 velocity=0 time=0
note_on channel=0 note=72 velocity=45 time=0
note_on channel=0 note=60 velocity=52 time=0
note_on channel=0 note=60 velocity=0 time=0
note_on channel=0 note=72 velocity=0 time=0
note_on channel=0 note=61 velocity=54 time=0
note_on channel=0 note=64 velocity=47 time=0
note_on channel=0 note=64 velocity=0 time=240
note_on channel=0 note=67 velocity=49 time=0
note_on channel=0 note=67 velocity=0 time=240
note_on channel=0 note=70 velocity=51 time=0
note_on channel=0 note=70 velocity=0 time=0
note_on channel=0 note=61 velocity=0 time=0
note_on channel=0 note=55 velocity=51 time=0
note_on channel=0 note=82 velocity=51 time=240
note_on channel=0 note=82 velocity=0 time=0
note_on channel=0 note=55 velocity=0 time=0
note_on channel=0 note=79 velocity=50 time=0
note_on channel=0 note=56 velocity=50 time=0
note_on channel=0 note=56 velocity=0 time=0
note_on channel=0 note=79 velocity=0 time=0
note_on channel=0 note=76 velocity=48 time=0
note_on channel=0 note=58 velocity=52 time=0
note_on channel=0 note=58 velocity=0 time=0
note_on channel=0 note=76 velocity=0 time=0
note_on channel=0 note=60 velocity=54 time=0
note_on channel=0 note=65 velocity=48 time=0
note_on channel=0 note=65 velocity=0 time=240
note_on channel=0 note=68 velocity=50 time=0
note_on channel=0 note=68 velocity=0 time=240
note_on channel=0 note=72 velocity=53 time=0
note_on channel=0 note=72 velocity=0 time=0
note_on channel=0 note=60 velocity=0 time=0
note_on channel=0 note=77 velocity=55 time=0
note_on channel=0 note=53 velocity=51 time=0
note_on channel=0 note=77 velocity=0 time=240
note_on channel=0 note=80 velocity=58 time=0
note_on channel=0 note=80 velocity=0 time=0
note_on channel=0 note=53 velocity=0 time=0
note_on channel=0 note=84 velocity=60 time=0
note_on channel=0 note=84 velocity=0 time=0
note_on channel=0 note=89 velocity=69 time=0
note_on channel=0 note=60 velocity=54 time=0
note_on channel=0 note=56 velocity=54 time=0
note_on channel=0 note=60 velocity=0 time=480
note_on channel=0 note=89 velocity=0 time=0
note_on channel=0 note=87 velocity=63 time=0
note_on channel=0 note=65 velocity=54 time=0
note_on channel=0 note=65 velocity=0 time=480
note_on channel=0 note=87 velocity=0 time=0
note_on channel=0 note=56 velocity=0 time=0
note_on channel=0 note=86 velocity=61 time=0
note_on channel=0 note=60 velocity=54 time=0
note_on channel=0 note=56 velocity=54 time=0
note_on channel=0 note=60 velocity=0 time=480
note_on channel=0 note=86 velocity=0 time=0
note_on channel=0 note=84 velocity=60 time=0
note_on channel=0 note=66 velocity=54 time=0
note_on channel=0 note=66 velocity=0 time=0
note_on channel=0 note=84 velocity=0 time=0
note_on channel=0 note=56 velocity=0 time=0
note_on channel=0 note=83 velocity=60 time=0
note_on channel=0 note=55 velocity=46 time=0
note_on channel=0 note=83 velocity=0 time=240
note_on channel=0 note=55 velocity=0 time=0
note_on channel=0 note=79 velocity=60 time=0
note_on channel=0 note=67 velocity=31 time=0
note_on channel=0 note=67 velocity=0 time=480
note_on channel=0 note=65 velocity=42 time=0
note_on channel=0 note=65 velocity=0 time=480
note_on channel=0 note=79 velocity=0 time=0
note_on channel=0 note=79 velocity=56 time=0
note_on channel=0 note=67 velocity=30 time=0
note_on channel=0 note=67 velocity=0 time=0
note_on channel=0 note=64 velocity=42 time=0
note_on channel=0 note=79 velocity=0 time=240
note_on channel=0 note=81 velocity=54 time=0
note_on channel=0 note=81 velocity=0 time=40
note_on channel=0 note=64 velocity=0 time=0
note_on channel=0 note=83 velocity=55 time=0
note_on channel=0 note=67 velocity=33 time=0
note_on channel=0 note=83 velocity=0 time=80
note_on channel=0 note=84 velocity=57 time=0
note_on channel=0 note=84 velocity=0 time=120
note_on channel=0 note=67 velocity=0 time=0
note_on channel=0 note=86 velocity=58 time=0
note_on channel=0 note=59 velocity=41 time=0
note_on channel=0 note=86 velocity=0 time=160
note_on channel=0 note=88 velocity=60 time=0
note_on channel=0 note=88 velocity=0 time=240
note_on channel=0 note=59 velocity=0 time=0
note_on channel=0 note=89 velocity=61 time=0
note_on channel=0 note=67 velocity=33 time=0
note_on channel=0 note=89 velocity=0 time=0
note_on channel=0 note=86 velocity=58 time=0
note_on channel=0 note=86 velocity=0 time=0
note_on channel=0 note=67 velocity=0 time=0
note_on channel=0 note=89 velocity=61 time=0
note_on channel=0 note=60 velocity=40 time=0
note_on channel=0 note=89 velocity=0 time=240
note_on channel=0 note=88 velocity=60 time=0
note_on channel=0 note=88 velocity=0 time=240
note_on channel=0 note=60 velocity=0 time=0
note_on channel=0 note=86 velocity=59 time=0
note_on channel=0 note=67 velocity=35 time=0
note_on channel=0 note=86 velocity=0 time=0
note_on channel=0 note=84 velocity=58 time=0
note_on channel=0 note=84 velocity=0 time=220
note_on channel=0 note=67 velocity=0 time=0
note_on channel=0 note=84 velocity=60 time=0
note_on channel=0 note=74 velocity=40 time=0
note_on channel=0 note=65 velocity=40 time=0
note_on channel=0 note=84 velocity=0 time=240
note_on channel=0 note=83 velocity=58 time=0
note_on channel=0 note=83 velocity=0 time=240
note_on channel=0 note=65 velocity=0 time=0
note_on channel=0 note=81 velocity=58 time=0
note_on channel=0 note=67 velocity=36 time=0
note_on channel=0 note=81 velocity=0 time=240
note_on channel=0 note=83 velocity=58 time=0
note_on channel=0 note=83 velocity=0 time=0
note_on channel=0 note=67 velocity=0 time=0
note_on channel=0 note=74 velocity=0 time=0
note_on channel=0 note=86 velocity=63 time=0
note_on channel=0 note=72 velocity=40 time=0
note_on channel=0 note=64 velocity=40 time=0
note_on channel=0 note=86 velocity=0 time=240
note_on channel=0 note=84 velocity=57 time=0
note_on channel=0 note=84 velocity=0 time=240
note_on channel=0 note=64 velocity=0 time=0
note_on channel=0 note=83 velocity=57 time=0
note_on channel=0 note=67 velocity=36 time=0
note_on channel=0 note=83 velocity=0 time=240
note_on channel=0 note=81 velocity=57 time=0
note_on channel=0 note=81 velocity=0 time=240
note_on channel=0 note=67 velocity=0 time=0
note_on channel=0 note=72 velocity=0 time=0
note_on channel=0 note=77 velocity=48 time=0
note_on channel=0 note=79 velocity=60 time=0
note_on channel=0 note=59 velocity=40 time=0
note_on channel=0 note=79 velocity=0 time=432
note_on channel=0 note=77 velocity=0 time=0
note_on channel=0 note=59 velocity=0 time=48
note_on channel=0 note=77 velocity=48 time=0
note_on channel=0 note=79 velocity=60 time=0
note_on channel=0 note=67 velocity=34 time=0
note_on channel=0 note=79 velocity=0 time=432
note_on channel=0 note=77 velocity=0 time=0
note_on channel=0 note=67 velocity=0 time=0
note_on channel=0 note=77 velocity=60 time=0
note_on channel=0 note=79 velocity=60 time=0
note_on channel=0 note=60 velocity=41 time=0
note_on channel=0 note=77 velocity=0 time=200
note_on channel=0 note=76 velocity=53 time=0
note_on channel=0 note=76 velocity=0 time=240
note_on channel=0 note=60 velocity=0 time=0
note_on channel=0 note=74 velocity=53 time=0
note_on channel=0 note=67 velocity=34 time=0
note_on channel=0 note=74 velocity=0 time=240
note_on channel=0 note=72 velocity=53 time=0
note_on channel=0 note=72 velocity=0 time=220
note_on channel=0 note=67 velocity=0 time=20
note_on channel=0 note=72 velocity=57 time=0
note_on channel=0 note=65 velocity=40 time=0
note_on channel=0 note=72 velocity=0 time=240
note_on channel=0 note=71 velocity=52 time=0
note_on channel=0 note=71 velocity=0 time=240
note_on channel=0 note=65 velocity=0 time=0
note_on channel=0 note=69 velocity=52 time=0
note_on channel=0 note=67 velocity=34 time=0
note_on channel=0 note=69 velocity=0 time=0
note_on channel=0 note=71 velocity=52 time=0
note_on channel=0 note=71 velocity=0 time=0
note_on channel=0 note=67 velocity=0 time=0
note_on channel=0 note=72 velocity=52 time=0
note_on channel=0 note=64 velocity=42 time=0
note_on channel=0 note=79 velocity=0 time=240
note_on channel=0 note=81 velocity=54 time=0
note_on channel=0 note=81 velocity=0 time=40
note_on channel=0 note=64 velocity=0 time=0
note_on channel=0 note=72 velocity=0 time=0
note_on channel=0 note=83 velocity=55 time=0
note_on channel=0 note=67 velocity=33 time=0
note_on channel=0 note=83 velocity=0 time=80
note_on channel=0 note=84 velocity=57 time=0
note_on channel=0 note=84 velocity=0 time=120
note_on channel=0 note=67 velocity=0 time=0
note_on channel=0 note=86 velocity=58 time=0
note_on channel=0 note=59 velocity=41 time=0
note_on channel=0 note=86 velocity=0 time=160
note_on channel=0 note=88 velocity=60 time=0
note_on channel=0 note=88 velocity=0 time=240
note_on channel=0 note=59 velocity=0 time=0
note_on channel=0 note=89 velocity=61 time=0
note_on channel=0 note=67 velocity=33 time=0
note_on channel=0 note=89 velocity=0 time=0
note_on channel=0 note=86 velocity=58 time=0
note_on channel=0 note=86 velocity=0 time=0
note_on channel=0 note=67 velocity=0 time=0
note_on channel=0 note=89 velocity=61 time=0
note_on channel=0 note=60 velocity=40 time=0
note_on channel=0 note=89 velocity=0 time=240
note_on channel=0 note=88 velocity=60 time=0
note_on channel=0 note=88 velocity=0 time=240
note_on channel=0 note=60 velocity=0 time=0
note_on channel=0 note=86 velocity=59 time=0
note_on channel=0 note=67 velocity=35 time=0
note_on channel=0 note=86 velocity=0 time=0
note_on channel=0 note=84 velocity=58 time=0
note_on channel=0 note=84 velocity=0 time=0
note_on channel=0 note=67 velocity=0 time=0
note_on channel=0 note=83 velocity=60 time=0
note_on channel=0 note=64 velocity=40 time=0
note_on channel=0 note=72 velocity=40 time=0
note_on channel=0 note=83 velocity=0 time=240
note_on channel=0 note=84 velocity=58 time=0
note_on channel=0 note=84 velocity=0 time=240
note_on channel=0 note=72 velocity=0 time=0
note_on channel=0 note=88 velocity=59 time=0
note_on channel=0 note=67 velocity=36 time=0
note_on channel=0 note=88 velocity=0 time=240
note_on channel=0 note=84 velocity=59 time=0
note_on channel=0 note=84 velocity=0 time=0
note_on channel=0 note=67 velocity=0 time=0
note_on channel=0 note=64 velocity=0 time=0
note_on channel=0 note=83 velocity=66 time=0
note_on channel=0 note=65 velocity=38 time=0
note_on channel=0 note=72 velocity=42 time=0
note_on channel=0 note=83 velocity=0 time=240
note_on channel=0 note=81 velocity=57 time=0
note_on channel=0 note=81 velocity=0 time=240
note_on channel=0 note=72 velocity=0 time=0
note_on channel=0 note=84 velocity=58 time=0
note_on channel=0 note=69 velocity=38 time=0
note_on channel=0 note=84 velocity=0 time=0
note_on channel=0 note=81 velocity=59 time=0
note_on channel=0 note=65 velocity=0 time=230
note_on channel=0 note=81 velocity=0 time=0
note_on channel=0 note=69 velocity=0 time=0
note_on channel=0 note=79 velocity=69 time=0
note_on channel=0 note=65 velocity=37 time=0
note_on channel=0 note=73 velocity=44 time=0
note_on channel=0 note=79 velocity=0 time=240
note_on channel=0 note=77 velocity=63 time=0
note_on channel=0 note=77 velocity=0 time=240
note_on channel=0 note=73 velocity=0 time=0
note_on channel=0 note=81 velocity=63 time=0
note_on channel=0 note=69 velocity=38 time=0
note_on channel=0 note=81 velocity=0 time=0
note_on channel=0 note=77 velocity=64 time=0
note_on channel=0 note=77 velocity=0 time=0
note_on channel=0 note=69 velocity=0 time=0
note_on channel=0 note=65 velocity=0 time=0
note_on channel=0 note=76 velocity=72 time=0
note_on channel=0 note=65 velocity=46 time=0
note_on channel=0 note=74 velocity=46 time=0
note_on channel=0 note=76 velocity=0 time=240
note_on channel=0 note=74 velocity=62 time=0
note_on channel=0 note=74 velocity=0 time=240
note_on channel=0 note=74 velocity=0 time=0
note_on channel=0 note=65 velocity=0 time=0
note_on channel=0 note=77 velocity=64 time=0
note_on channel=0 note=69 velocity=42 time=0
note_on channel=0 note=77 velocity=0 time=0
note_on channel=0 note=74 velocity=64 time=0
note_on channel=0 note=74 velocity=0 time=0
note_on channel=0 note=69 velocity=0 time=0
note_on channel=0 note=81 velocity=75 time=0
note_on channel=0 note=65 velocity=48 time=0
note_on channel=0 note=81 velocity=0 time=240
note_on channel=0 note=77 velocity=67 time=0
note_on channel=0 note=77 velocity=0 time=240
note_on channel=0 note=65 velocity=0 time=0
note_on channel=0 note=74 velocity=67 time=0
note_on channel=0 note=66 velocity=41 time=0
note_on channel=0 note=74 velocity=0 time=0
note_on channel=0 note=72 velocity=67 time=0
note_on channel=0 note=72 velocity=0 time=0
note_on channel=0 note=66 velocity=0 time=0
note_on channel=0 note=71 velocity=59 time=0
note_on channel=0 note=67 velocity=55 time=0
control_change channel=0 control=64 value=127 time=32
note_on channel=0 note=67 velocity=0 time=30
note_on channel=0 note=67 velocity=55 time=10
note_on channel=0 note=71 velocity=0 time=10
note_on channel=0 note=69 velocity=55 time=40
note_on channel=0 note=67 velocity=0 time=10
control_change channel=0 control=64 value=0 time=6
note_on channel=0 note=71 velocity=59 time=80
note_on channel=0 note=69 velocity=0 time=10
note_on channel=0 note=69 velocity=55 time=80
note_on channel=0 note=71 velocity=0 time=10
note_on channel=0 note=67 velocity=55 time=120
note_on channel=0 note=69 velocity=0 time=10
note_on channel=0 note=72 velocity=59 time=0
note_on channel=0 note=67 velocity=0 time=10
note_on channel=0 note=62 velocity=45 time=80
note_on channel=0 note=64 velocity=48 time=80
note_on channel=0 note=62 velocity=0 time=10
note_on channel=0 note=66 velocity=50 time=80
note_on channel=0 note=64 velocity=0 time=10
note_on channel=0 note=64 velocity=48 time=80
note_on channel=0 note=66 velocity=0 time=10
note_on channel=0 note=62 velocity=45 time=80
note_on channel=0 note=64 velocity=0 time=10
note_on channel=0 note=72 velocity=0 time=0
note_on channel=0 note=71 velocity=59 time=0
note_on channel=0 note=67 velocity=55 time=0
note_on channel=0 note=62 velocity=0 time=10
control_change channel=0 control=64 value=127 time=43
note_on channel=0 note=67 velocity=0 time=97
note_on channel=0 note=67 velocity=55 time=10
note_on channel=0 note=71 velocity=0 time=10
note_on channel=0 note=69 velocity=55 time=120
control_change channel=0 control=64 value=0 time=8
note_on channel=0 note=67 velocity=0 time=2
note_on channel=0 note=71 velocity=59 time=80
note_on channel=0 note=69 velocity=0 time=10
note_on channel=0 note=69 velocity=55 time=40
note_on channel=0 note=71 velocity=0 time=10
note_on channel=0 note=67 velocity=55 time=0
note_on channel=0 note=69 velocity=0 time=10
note_on channel=0 note=72 velocity=59 time=0
note_on channel=0 note=67 velocity=0 time=10
note_on channel=0 note=62 velocity=43 time=0
note_on channel=0 note=64 velocity=47 time=0
note_on channel=0 note=62 velocity=0 time=10
note_on channel=0 note=66 velocity=50 time=0
note_on channel=0 note=64 velocity=0 time=10
note_on channel=0 note=64 velocity=48 time=0
note_on channel=0 note=66 velocity=0 time=10
note_on channel=0 note=62 velocity=45 time=0
note_on channel=0 note=64 velocity=0 time=10
note_on channel=0 note=72 velocity=0 time=40
note_on channel=0 note=71 velocity=59 time=0
note_on channel=0 note=67 velocity=55 time=0
note_on channel=0 note=62 velocity=0 time=10
control_change channel=0 control=64 value=127 time=8
note_on channel=0 note=67 velocity=0 time=132
note_on channel=0 note=71 velocity=0 time=10
note_on channel=0 note=67 velocity=59 time=0
note_on channel=0 note=67 velocity=0 time=120
note_on channel=0 note=69 velocity=59 time=0
control_change channel=0 control=64 value=0 time=3
note_on channel=0 note=69 velocity=0 time=40
note_on channel=0 note=71 velocity=64 time=0
note_on channel=0 note=71 velocity=0 time=160
note_on channel=0 note=69 velocity=57 time=0
note_on channel=0 note=69 velocity=0 time=120
note_on channel=0 note=67 velocity=58 time=0
note_on channel=0 note=67 velocity=0 time=40
note_on channel=0 note=74 velocity=67 time=0
note_on channel=0 note=67 velocity=55 time=0
note_on channel=0 note=74 velocity=0 time=160
note_on channel=0 note=71 velocity=59 time=0
note_on channel=0 note=71 velocity=0 time=160
note_on channel=0 note=72 velocity=59 time=0
note_on channel=0 note=72 velocity=0 time=160
note_on channel=0 note=67 velocity=0 time=0
note_on channel=0 note=74 velocity=62 time=0
note_on channel=0 note=74 velocity=0 time=160
note_on channel=0 note=72 velocity=65 time=0
note_on channel=0 note=72 velocity=0 time=0
note_on channel=0 note=71 velocity=67 time=0
note_on channel=0 note=71 velocity=0 time=0
note_on channel=0 note=77 velocity=69 time=0
note_on channel=0 note=62 velocity=46 time=0
note_on channel=0 note=55 velocity=46 time=0
note_on channel=0 note=59 velocity=46 time=0
note_on channel=0 note=65 velocity=55 time=0
note_on channel=0 note=76 velocity=68 time=160
note_on channel=0 note=77 velocity=0 time=10
note_on channel=0 note=74 velocity=67 time=150
note_on channel=0 note=76 velocity=0 time=10
note_on channel=0 note=65 velocity=0 time=150
note_on channel=0 note=59 velocity=0 time=0
note_on channel=0 note=62 velocity=0 time=0
note_on channel=0 note=55 velocity=0 time=0
note_on channel=0 note=72 velocity=66 time=0
note_on channel=0 note=74 velocity=0 time=10
note_on channel=0 note=71 velocity=65 time=150
note_on channel=0 note=72 velocity=0 time=10
note_on channel=0 note=69 velocity=63 time=150
note_on channel=0 note=71 velocity=0 time=10
note_on channel=0 note=67 velocity=59 time=0
note_on channel=0 note=69 velocity=0 time=10
note_on channel=0 note=69 velocity=55 time=150
note_on channel=0 note=67 velocity=0 time=10
note_on channel=0 note=67 velocity=55 time=80
note_on channel=0 note=69 velocity=0 time=10
note_on channel=0 note=65 velocity=59 time=40
note_on channel=0 note=67 velocity=0 time=10
note_on channel=0 note=64 velocity=56 time=150
note_on channel=0 note=65 velocity=0 time=10
note_on channel=0 note=62 velocity=56 time=120
note_on channel=0 note=64 velocity=0 time=10
note_on channel=0 note=64 velocity=59 time=0
note_on channel=0 note=48 velocity=55 time=0
note_on channel=0 note=62 velocity=0 time=10
note_on channel=0 note=60 velocity=55 time=40
note_on channel=0 note=64 velocity=0 time=10
note_on channel=0 note=62 velocity=55 time=40
note_on channel=0 note=60 velocity=0 time=10
note_on channel=0 note=48 velocity=0 time=80
note_on channel=0 note=64 velocity=59 time=0
note_on channel=0 note=62 velocity=0 time=10
note_on channel=0 note=62 velocity=55 time=80
note_on channel=0 note=64 velocity=0 time=10
note_on channel=0 note=60 velocity=55 time=120
note_on channel=0 note=62 velocity=0 time=10
note_on channel=0 note=65 velocity=59 time=0
note_on channel=0 note=60 velocity=0 time=10
note_on channel=0 note=55 velocity=45 time=80
note_on channel=0 note=57 velocity=48 time=80
note_on channel=0 note=55 velocity=0 time=10
note_on channel=0 note=59 velocity=50 time=80
note_on channel=0 note=57 velocity=0 time=10
note_on channel=0 note=57 velocity=48 time=80
note_on channel=0 note=59 velocity=0 time=10
note_on channel=0 note=55 velocity=45 time=80
note_on channel=0 note=57 velocity=0 time=10
note_on channel=0 note=65 velocity=0 time=0
note_on channel=0 note=64 velocity=59 time=0
note_on channel=0 note=60 velocity=55 time=0
note_on channel=0 note=55 velocity=0 time=10
note_on channel=0 note=72 velocity=55 time=150
note_on channel=0 note=64 velocity=0 time=10
note_on channel=0 note=74 velocity=55 time=120
note_on channel=0 note=72 velocity=0 time=10
note_on channel=0 note=60 velocity=0 time=80
note_on channel=0 note=76 velocity=59 time=0
note_on channel=0 note=74 velocity=0 time=10
note_on channel=0 note=74 velocity=55 time=40
note_on channel=0 note=76 velocity=0 time=10
note_on channel=0 note=72 velocity=55 time=0
note_on channel=0 note=74 velocity=0 time=10
note_on channel=0 note=77 velocity=59 time=0
note_on channel=0 note=72 velocity=0 time=10
note_on channel=0 note=55 velocity=43 time=0
note_on channel=0 note=57 velocity=47 time=0
note_on channel=0 note=55 velocity=0 time=10
note_on channel=0 note=59 velocity=50 time=0
note_on channel=0 note=57 velocity=0 time=10
note_on channel=0 note=57 velocity=48 time=0
note_on channel=0 note=59 velocity=0 time=10
note_on channel=0 note=55 velocity=45 time=0
note_on channel=0 note=57 velocity=0 time=10
note_on channel=0 note=77 velocity=0 time=40
note_on channel=0 note=76 velocity=59 time=0
note_on channel=0 note=60 velocity=55 time=0
note_on channel=0 note=55 velocity=0 time=10
note_on channel=0 note=76 velocity=0 time=150
note_on channel=0 note=72 velocity=59 time=0
note_on channel=0 note=72 velocity=0 time=120
note_on channel=0 note=74 velocity=59 time=0
note_on channel=0 note=74 velocity=0 time=40
note_on channel=0 note=60 velocity=0 time=0
note_on channel=0 note=76 velocity=64 time=0
note_on channel=0 note=76 velocity=0 time=160
note_on channel=0 note=74 velocity=57 time=0
note_on channel=0 note=74 velocity=0 time=120
note_on channel=0 note=72 velocity=58 time=0
note_on channel=0 note=72 velocity=0 time=40
note_on channel=0 note=79 velocity=67 time=0
note_on channel=0 note=60 velocity=55 time=0
note_on channel=0 note=79 velocity=0 time=160
note_on channel=0 note=76 velocity=59 time=0
note_on channel=0 note=76 velocity=0 time=160
note_on channel=0 note=77 velocity=59 time=0
note_on channel=0 note=77 velocity=0 time=160
note_on channel=0 note=60 velocity=0 time=0
note_on channel=0 note=79 velocity=62 time=0
note_on channel=0 note=79 velocity=0 time=160
note_on channel=0 note=77 velocity=65 time=0
note_on channel=0 note=77 velocity=0 time=0
note_on channel=0 note=76 velocity=67 time=0
note_on channel=0 note=76 velocity=0 time=0
note_on channel=0 note=82 velocity=69 time=0
note_on channel=0 note=58 velocity=46 time=0
note_on channel=0 note=52 velocity=46 time=0
note_on channel=0 note=55 velocity=46 time=0
note_on channel=0 note=60 velocity=55 time=0
note_on channel=0 note=81 velocity=68 time=160
note_on channel=0 note=82 velocity=0 time=10
note_on channel=0 note=79 velocity=67 time=150
note_on channel=0 note=81 velocity=0 time=10
note_on channel=0 note=60 velocity=0 time=150
note_on channel=0 note=55 velocity=0 time=0
note_on channel=0 note=58 velocity=0 time=0
note_on channel=0 note=52 velocity=0 time=0
note_on channel=0 note=77 velocity=66 time=0
note_on channel=0 note=79 velocity=0 time=10
note_on channel=0 note=76 velocity=65 time=150
note_on channel=0 note=77 velocity=0 time=10
note_on channel=0 note=74 velocity=63 time=150
note_on channel=0 note=76 velocity=0 time=10
note_on channel=0 note=72 velocity=59 time=0
note_on channel=0 note=74 velocity=0 time=10
note_on channel=0 note=71 velocity=55 time=150
note_on channel=0 note=72 velocity=0 time=10
note_on channel=0 note=72 velocity=55 time=80
note_on channel=0 note=71 velocity=0 time=10
note_on channel=0 note=73 velocity=59 time=40
note_on channel=0 note=72 velocity=0 time=10
note_on channel=0 note=74 velocity=56 time=150
note_on channel=0 note=73 velocity=0 time=10
note_on channel=0 note=70 velocity=56 time=120
note_on channel=0 note=74 velocity=0 time=10
note_on channel=0 note=41 velocity=52 time=0
note_on channel=0 note=70 velocity=0 time=10
control_change channel=0 control=64 value=127 time=65
note_on channel=0 note=41 velocity=0 time=85
note_on channel=0 note=45 velocity=54 time=0
note_on channel=0 note=45 velocity=0 time=120
note_on channel=0 note=48 velocity=56 time=0
note_on channel=0 note=48 velocity=0 time=40
note_on channel=0 note=57 velocity=57 time=0
note_on channel=0 note=53 velocity=59 time=0
note_on channel=0 note=57 velocity=0 time=160
note_on channel=0 note=60 velocity=59 time=0
note_on channel=0 note=60 velocity=0 time=120
note_on channel=0 note=65 velocity=62 time=0
note_on channel=0 note=65 velocity=0 time=160
note_on channel=0 note=53 velocity=0 time=0
note_on channel=0 note=69 velocity=64 time=0
note_on channel=0 note=69 velocity=0 time=160
note_on channel=0 note=72 velocity=66 time=0
note_on channel=0 note=72 velocity=0 time=160
note_on channel=0 note=77 velocity=68 time=0
note_on channel=0 note=77 velocity=0 time=0
note_on channel=0 note=81 velocity=70 time=0
control_change channel=0 control=64 value=0 time=11
note_on channel=0 note=81 velocity=0 time=109
note_on channel=0 note=81 velocity=70 time=120
note_on channel=0 note=81 velocity=0 time=120
note_on channel=0 note=81 velocity=70 time=0
note_on channel=0 note=55 velocity=48 time=0
note_on channel=0 note=60 velocity=48 time=0
note_on channel=0 note=64 velocity=57 time=0
control_change channel=0 control=64 value=127 time=14
note_on channel=0 note=81 velocity=0 time=226
note_on channel=0 note=79 velocity=68 time=0
note_on channel=0 note=79 velocity=0 time=240
note_on channel=0 note=64 velocity=0 time=0
note_on channel=0 note=60 velocity=0 time=0
note_on channel=0 note=55 velocity=0 time=0
note_on channel=0 note=77 velocity=66 time=0
control_change channel=0 control=64 value=0 time=12
note_on channel=0 note=77 velocity=0 time=108
note_on channel=0 note=76 velocity=64 time=0
note_on channel=0 note=76 velocity=0 time=120
note_on channel=0 note=76 velocity=65 time=0
note_on channel=0 note=55 velocity=49 time=0
note_on channel=0 note=62 velocity=49 time=0
note_on channel=0 note=65 velocity=58 time=0
control_change channel=0 control=64 value=127 time=85
note_on channel=0 note=76 velocity=0 time=155
note_on channel=0 note=74 velocity=63 time=0
note_on channel=0 note=74 velocity=0 time=240
note_on channel=0 note=65 velocity=0 time=0
note_on channel=0 note=62 velocity=0 time=0
note_on channel=0 note=55 velocity=0 time=0
note_on channel=0 note=72 velocity=61 time=0
control_change channel=0 control=64 value=0 time=10
note_on channel=0 note=72 velocity=0 time=110
note_on channel=0 note=71 velocity=59 time=0
note_on channel=0 note=71 velocity=0 time=120
note_on channel=0 note=72 velocity=63 time=0
note_on channel=0 note=60 velocity=49 time=0
note_on channel=0 note=64 velocity=58 time=0
note_on channel=0 note=64 velocity=0 time=480
note_on channel=0 note=60 velocity=0 time=0
note_on channel=0 note=72 velocity=0 time=0
note_on channel=0 note=67 velocity=45 time=960
note_on channel=0 note=67 velocity=0 time=10
note_on channel=0 note=71 velocity=37 time=10
note_on channel=0 note=74 velocity=45 time=0
note_on channel=0 note=67 velocity=39 time=0
note_on channel=0 note=65 velocity=33 time=0
control_change channel=0 control=64 value=127 time=0
note_on channel=0 note=65 velocity=0 time=20
note_on channel=0 note=71 velocity=0 time=0
note_on channel=0 note=74 velocity=0 time=0
note_on channel=0 note=67 velocity=0 time=0
note_on channel=0 note=71 velocity=38 time=20
note_on channel=0 note=74 velocity=45 time=0
note_on channel=0 note=65 velocity=34 time=0
note_on channel=0 note=67 velocity=40 time=0
note_on channel=0 note=67 velocity=0 time=20
note_on channel=0 note=71 velocity=0 time=0
note_on channel=0 note=74 velocity=0 time=0
note_on channel=0 note=65 velocity=0 time=0
note_on channel=0 note=71 velocity=38 time=20
note_on channel=0 note=74 velocity=45 time=0
note_on channel=0 note=67 velocity=42 time=0
note_on channel=0 note=65 velocity=35 time=0
note_on channel=0 note=65 velocity=0 time=20
note_on channel=0 note=71 velocity=0 time=0
note_on channel=0 note=74 velocity=0 time=0
note_on channel=0 note=67 velocity=0 time=0
note_on channel=0 note=71 velocity=39 time=0
note_on channel=0 note=74 velocity=46 time=0
note_on channel=0 note=65 velocity=36 time=0
note_on channel=0 note=67 velocity=43 time=0
note_on channel=0 note=67 velocity=0 time=240
note_on channel=0 note=71 velocity=0 time=0
note_on channel=0 note=74 velocity=0 time=0
note_on channel=0 note=65 velocity=0 time=0
note_on channel=0 note=72 velocity=40 time=0
note_on channel=0 note=79 velocity=47 time=0
note_on channel=0 note=64 velocity=37 time=0
note_on channel=0 note=67 velocity=45 time=0
control_change channel=0 control=64 value=0 time=7
control_change channel=0 control=64 value=127 time=473
note_on channel=0 note=67 velocity=0 time=950
note_on channel=0 note=64 velocity=0 time=0
note_on channel=0 note=79 velocity=0 time=10
note_on channel=0 note=72 velocity=0 time=0
note_on channel=0 note=72 velocity=46 time=0
note_on channel=0 note=79 velocity=46 time=0
note_on channel=0 note=64 velocity=42 time=0
note_on channel=0 note=64 velocity=0 time=480
note_on channel=0 note=79 velocity=0 time=0
note_on channel=0 note=72 velocity=0 time=0
note_on channel=0 note=75 velocity=40 time=0
note_on channel=0 note=72 velocity=40 time=0
note_on channel=0 note=78 velocity=48 time=0
note_on channel=0 note=69 velocity=45 time=0
control_change channel=0 control=64 value=0 time=10
control_change channel=0 control=64 value=127 time=230
note_on channel=0 note=69 velocity=0 time=461
note_on channel=0 note=75 velocity=0 time=0
note_on channel=0 note=72 velocity=0 time=0
note_on channel=0 note=78 velocity=0 time=0
note_on channel=0 note=74 velocity=37 time=19
note_on channel=0 note=72 velocity=37 time=0
note_on channel=0 note=78 velocity=45 time=0
note_on channel=0 note=69 velocity=43 time=0
control_change channel=0 control=64 value=0 time=11
control_change channel=0 control=64 value=127 time=389
note_on channel=0 note=69 velocity=0 time=421
note_on channel=0 note=74 velocity=0 time=0
note_on channel=0 note=72 velocity=0 time=0
note_on channel=0 note=78 velocity=0 time=0
note_on channel=0 note=71 velocity=39 time=0
note_on channel=0 note=74 velocity=39 time=0
note_on channel=0 note=79 velocity=46 time=0
note_on channel=0 note=67 velocity=43 time=0
control_change channel=0 control=64 value=0 time=9
note_on channel=0 note=67 velocity=0 time=471
note_on channel=0 note=71 velocity=0 time=0
note_on channel=0 note=74 velocity=0 time=0
note_on channel=0 note=79 velocity=0 time=0
note_on channel=0 note=55 velocity=45 time=0
note_on channel=0 note=55 velocity=0 time=14
note_on channel=0 note=59 velocity=37 time=6
note_on channel=0 note=62 velocity=45 time=0
note_on channel=0 note=55 velocity=39 time=0
note_on channel=0 note=53 velocity=33 time=0
control_change channel=0 control=64 value=127 time=80
note_on channel=0 note=53 velocity=0 time=20
note_on channel=0 note=59 velocity=0 time=0
note_on channel=0 note=62 velocity=0 time=0
note_on channel=0 note=55 velocity=0 time=0
note_on channel=0 note=59 velocity=38 time=20
note_on channel=0 note=62 velocity=45 time=0
note_on channel=0 note=53 velocity=34 time=0
note_on channel=0 note=55 velocity=40 time=0
note_on channel=0 note=55 velocity=0 time=20
note_on channel=0 note=59 velocity=0 time=0
note_on channel=0 note=62 velocity=0 time=0
note_on channel=0 note=53 velocity=0 time=0
note_on channel=0 note=59 velocity=38 time=20
note_on channel=0 note=62 velocity=45 time=0
note_on channel=0 note=55 velocity=42 time=0
note_on channel=0 note=53 velocity=35 time=0
note_on channel=0 note=53 velocity=0 time=20
note_on channel=0 note=59 velocity=0 time=0
note_on channel=0 note=62 velocity=0 time=0
note_on channel=0 note=55 velocity=0 time=0
note_on channel=0 note=59 velocity=39 time=0
note_on channel=0 note=62 velocity=46 time=0
note_on channel=0 note=53 velocity=36 time=0
note_on channel=0 note=55 velocity=43 time=0
note_on channel=0 note=55 velocity=0 time=240
note_on channel=0 note=59 velocity=0 time=0
note_on channel=0 note=62 velocity=0 time=0
note_on channel=0 note=53 velocity=0 time=0
note_on channel=0 note=67 velocity=47 time=0
note_on channel=0 note=51 velocity=37 time=0
note_on channel=0 note=55 velocity=45 time=0
control_change channel=0 control=64 value=0 time=9
note_on channel=0 note=59 velocity=40 time=471
note_on channel=0 note=59 velocity=0 time=480
note_on channel=0 note=60 velocity=40 time=0
note_on channel=0 note=67 velocity=0 time=0
note_on channel=0 note=55 velocity=0 time=0
note_on channel=0 note=51 velocity=0 time=0
note_on channel=0 note=67 velocity=45 time=0
note_on channel=0 note=51 velocity=41 time=0
note_on channel=0 note=51 velocity=0 time=20
note_on channel=0 note=67 velocity=0 time=0
note_on channel=0 note=65 velocity=50 time=0
note_on channel=0 note=56 velocity=39 time=0
control_change channel=0 control=64 value=127 time=101
note_on channel=0 note=56 velocity=0 time=20
note_on channel=0 note=65 velocity=0 time=0
note_on channel=0 note=60 velocity=0 time=0
note_on channel=0 note=60 velocity=49 time=20
note_on channel=0 note=65 velocity=49 time=0
note_on channel=0 note=56 velocity=44 time=0
note_on channel=0 note=56 velocity=0 time=20
note_on channel=0 note=65 velocity=0 time=0
note_on channel=0 note=60 velocity=0 time=0
note_on channel=0 note=62 velocity=49 time=20
note_on channel=0 note=65 velocity=49 time=0
note_on channel=0 note=58 velocity=44 time=0
note_on channel=0 note=56 velocity=44 time=0
note_on channel=0 note=56 velocity=0 time=20
note_on channel=0 note=62 velocity=0 time=0
note_on channel=0 note=65 velocity=0 time=0
note_on channel=0 note=58 velocity=0 time=0
note_on channel=0 note=62 velocity=49 time=0
note_on channel=0 note=65 velocity=49 time=0
note_on channel=0 note=56 velocity=46 time=0
note_on channel=0 note=58 velocity=46 time=0
note_on channel=0 note=58 velocity=0 time=240
note_on channel=0 note=56 velocity=0 time=0
note_on channel=0 note=65 velocity=0 time=0
note_on channel=0 note=70 velocity=54 time=0
note_on channel=0 note=55 velocity=50 time=0
note_on channel=0 note=58 velocity=50 time=0
control_change channel=0 control=64 value=0 time=10
note_on channel=0 note=62 velocity=0 time=470
note_on channel=0 note=62 velocity=51 time=0
note_on channel=0 note=62 velocity=0 time=480
note_on channel=0 note=63 velocity=51 time=0
note_on channel=0 note=58 velocity=0 time=0
note_on channel=0 note=70 velocity=0 time=0
note_on channel=0 note=55 velocity=0 time=0
note_on channel=0 note=70 velocity=53 time=0
note_on channel=0 note=55 velocity=51 time=0
note_on channel=0 note=55 velocity=0 time=20
note_on channel=0 note=70 velocity=0 time=0
note_on channel=0 note=69 velocity=59 time=0
note_on channel=0 note=60 velocity=47 time=0
control_change channel=0 control=64 value=127 time=80
note_on channel=0 note=60 velocity=0 time=20
note_on channel=0 note=69 velocity=0 time=0
note_on channel=0 note=63 velocity=0 time=20
note_on channel=0 note=66 velocity=56 time=0
note_on channel=0 note=69 velocity=56 time=0
note_on channel=0 note=60 velocity=48 time=0
note_on channel=0 note=63 velocity=48 time=0
note_on channel=0 note=63 velocity=0 time=20
note_on channel=0 note=66 velocity=0 time=0
note_on channel=0 note=69 velocity=0 time=0
note_on channel=0 note=60 velocity=0 time=0
note_on channel=0 note=66 velocity=56 time=20
note_on channel=0 note=69 velocity=56 time=0
note_on channel=0 note=63 velocity=50 time=0
note_on channel=0 note=60 velocity=50 time=0
note_on channel=0 note=60 velocity=0 time=20
note_on channel=0 note=66 velocity=0 time=0
note_on channel=0 note=69 velocity=0 time=0
note_on channel=0 note=63 velocity=0 time=0
note_on channel=0 note=66 velocity=55 time=0
note_on channel=0 note=69 velocity=55 time=0
note_on channel=0 note=60 velocity=51 time=0
note_on channel=0 note=63 velocity=51 time=0
note_on channel=0 note=63 velocity=0 time=240
note_on channel=0 note=60 velocity=0 time=0
note_on channel=0 note=69 velocity=0 time=0
note_on channel=0 note=74 velocity=61 time=0
note_on channel=0 note=59 velocity=54 time=0
note_on channel=0 note=62 velocity=54 time=0
control_change channel=0 control=64 value=0 time=12
note_on channel=0 note=66 velocity=0 time=468
note_on channel=0 note=66 velocity=54 time=0
note_on channel=0 note=66 velocity=0 time=480
note_on channel=0 note=67 velocity=54 time=0
note_on channel=0 note=67 velocity=0 time=0
note_on channel=0 note=74 velocity=0 time=0
note_on channel=0 note=59 velocity=0 time=0
note_on channel=0 note=62 velocity=0 time=0
note_on channel=0 note=66 velocity=62 time=0
note_on channel=0 note=69 velocity=62 time=0
note_on channel=0 note=60 velocity=53 time=0
note_on channel=0 note=63 velocity=53 time=0
note_on channel=0 note=63 velocity=0 time=0
note_on channel=0 note=60 velocity=0 time=0
note_on channel=0 note=69 velocity=0 time=0
note_on channel=0 note=74 velocity=63 time=0
note_on channel=0 note=59 velocity=55 time=0
note_on channel=0 note=62 velocity=55 time=0
note_on channel=0 note=66 velocity=0 time=480
note_on channel=0 note=66 velocity=55 time=0
note_on channel=0 note=66 velocity=0 time=480
note_on channel=0 note=67 velocity=50 time=0
note_on channel=0 note=67 velocity=0 time=0
note_on channel=0 note=74 velocity=0 time=0
note_on channel=0 note=59 velocity=0 time=0
note_on channel=0 note=62 velocity=0 time=0
note_on channel=0 note=71 velocity=54 time=0
note_on channel=0 note=74 velocity=54 time=0
note_on channel=0 note=65 velocity=54 time=0
note_on channel=0 note=68 velocity=54 time=0
note_on channel=0 note=68 velocity=0 time=0
note_on channel=0 note=65 velocity=0 time=0
note_on channel=0 note=74 velocity=0 time=0
note_on channel=0 note=79 velocity=58 time=0
note_on channel=0 note=63 velocity=56 time=0
note_on channel=0 note=67 velocity=56 time=0
note_on channel=0 note=71 velocity=0 time=480
note_on channel=0 note=71 velocity=52 time=0
note_on channel=0 note=71 velocity=0 time=480
note_on channel=0 note=72 velocity=55 time=0
note_on channel=0 note=72 velocity=0 time=0
note_on channel=0 note=79 velocity=0 time=0
note_on channel=0 note=63 velocity=0 time=0
note_on channel=0 note=67 velocity=0 time=0
note_on channel=0 note=71 velocity=57 time=0
note_on channel=0 note=74 velocity=57 time=0
note_on channel=0 note=65 velocity=49 time=0
note_on channel=0 note=68 velocity=49 time=0
note_on channel=0 note=68 velocity=0 time=0
note_on channel=0 note=65 velocity=0 time=0
note_on channel=0 note=74 velocity=0 time=0
note_on channel=0 note=79 velocity=63 time=0
note_on channel=0 note=63 velocity=52 time=0
note_on channel=0 note=67 velocity=52 time=0
note_on channel=0 note=71 velocity=0 time=480
note_on channel=0 note=71 velocity=55 time=0
note_on channel=0 note=71 velocity=0 time=480
note_on channel=0 note=72 velocity=55 time=0
note_on channel=0 note=72 velocity=0 time=0
note_on channel=0 note=79 velocity=0 time=0
note_on channel=0 note=63 velocity=0 time=0
note_on channel=0 note=67 velocity=0 time=0
note_on channel=0 note=71 velocity=60 time=0
note_on channel=0 note=74 velocity=60 time=0
note_on channel=0 note=65 velocity=36 time=0
note_on channel=0 note=68 velocity=43 time=0
note_on channel=0 note=68 velocity=0 time=0
note_on channel=0 note=65 velocity=0 time=0
note_on channel=0 note=74 velocity=0 time=0
note_on channel=0 note=80 velocity=69 time=0
note_on channel=0 note=71 velocity=0 time=480
note_on channel=0 note=70 velocity=49 time=0
note_on channel=0 note=70 velocity=0 time=480
note_on channel=0 note=71 velocity=49 time=0
note_on channel=0 note=71 velocity=0 time=0
note_on channel=0 note=80 velocity=0 time=0
note_on channel=0 note=74 velocity=56 time=0
note_on channel=0 note=74 velocity=0 time=0
note_on channel=0 note=79 velocity=65 time=0
note_on channel=0 note=70 velocity=47 time=480
note_on channel=0 note=70 velocity=0 time=480
note_on channel=0 note=71 velocity=48 time=0
note_on channel=0 note=71 velocity=0 time=0
note_on channel=0 note=79 velocity=0 time=0
note_on channel=0 note=74 velocity=54 time=0
note_on channel=0 note=74 velocity=0 time=0
note_on channel=0 note=78 velocity=60 time=0
note_on channel=0 note=70 velocity=38 time=480
note_on channel=0 note=70 velocity=0 time=0
note_on channel=0 note=71 velocity=38 time=0
note_on channel=0 note=71 velocity=0 time=480
note_on channel=0 note=78 velocity=0 time=0
note_on channel=0 note=74 velocity=40 time=0
note_on channel=0 note=77 velocity=47 time=0
note_on channel=0 note=74 velocity=0 time=0
note_on channel=0 note=70 velocity=37 time=0
note_on channel=0 note=70 velocity=0 time=0
note_on channel=0 note=71 velocity=37 time=0
note_on channel=0 note=77 velocity=0 time=0
note_on channel=0 note=43 velocity=42 time=0
note_on channel=0 note=43 velocity=0 time=0
note_on channel=0 note=71 velocity=0 time=0
note_on channel=0 note=67 velocity=44 time=0
note_on channel=0 note=72 velocity=44 time=0
note_on channel=0 note=75 velocity=52 time=0
note_on channel=0 note=48 velocity=40 time=0
note_on channel=0 note=48 velocity=0 time=0
note_on channel=0 note=51 velocity=36 time=0
note_on channel=0 note=51 velocity=0 time=240
note_on channel=0 note=55 velocity=36 time=0
note_on channel=0 note=55 velocity=0 time=0
note_on channel=0 note=67 velocity=0 time=0
note_on channel=0 note=72 velocity=0 time=0
note_on channel=0 note=75 velocity=0 time=0
note_on channel=0 note=77 velocity=50 time=0
note_on channel=0 note=60 velocity=36 time=0
note_on channel=0 note=60 velocity=0 time=0
note_on channel=0 note=77 velocity=0 time=0
note_on channel=0 note=74 velocity=53 time=0
note_on channel=0 note=48 velocity=40 time=0
note_on channel=0 note=48 velocity=0 time=0
note_on channel=0 note=53 velocity=40 time=0
note_on channel=0 note=53 velocity=0 time=240
note_on channel=0 note=55 velocity=36 time=0
note_on channel=0 note=55 velocity=0 time=0
note_on channel=0 note=74 velocity=0 time=0
note_on channel=0 note=75 velocity=50 time=0
note_on channel=0 note=59 velocity=36 time=0
note_on channel=0 note=59 velocity=0 time=0
note_on channel=0 note=75 velocity=0 time=0
note_on channel=0 note=72 velocity=52 time=0
note_on channel=0 note=48 velocity=40 time=0
note_on channel=0 note=48 velocity=0 time=240
note_on channel=0 note=51 velocity=40 time=0
note_on channel=0 note=51 velocity=0 time=240
note_on channel=0 note=55 velocity=36 time=0
note_on channel=0 note=55 velocity=0 time=0
note_on channel=0 note=60 velocity=36 time=0
note_on channel=0 note=72 velocity=0 time=180
note_on channel=0 note=74 velocity=48 time=0
note_on channel=0 note=74 velocity=0 time=40
note_on channel=0 note=60 velocity=0 time=0
note_on channel=0 note=72 velocity=52 time=0
note_on channel=0 note=63 velocity=40 time=0
note_on channel=0 note=63 velocity=0 time=240
note_on channel=0 note=72 velocity=0 time=0
note_on channel=0 note=71 velocity=51 time=0
note_on channel=0 note=67 velocity=36 time=0
note_on channel=0 note=67 velocity=0 time=240
note_on channel=0 note=71 velocity=0 time=0
note_on channel=0 note=72 velocity=51 time=0
note_on channel=0 note=63 velocity=36 time=0
note_on channel=0 note=63 velocity=0 time=240
note_on channel=0 note=72 velocity=0 time=0
note_on channel=0 note=74 velocity=50 time=0
note_on channel=0 note=62 velocity=36 time=0
note_on channel=0 note=74 velocity=0 time=180
note_on channel=0 note=77 velocity=49 time=0
note_on channel=0 note=77 velocity=0 time=60
note_on channel=0 note=62 velocity=0 time=0
note_on channel=0 note=75 velocity=56 time=0
note_on channel=0 note=60 velocity=40 time=0
note_on channel=0 note=60 velocity=0 time=240
note_on channel=0 note=75 velocity=0 time=0
note_on channel=0 note=74 velocity=52 time=0
note_on channel=0 note=67 velocity=36 time=0
note_on channel=0 note=67 velocity=0 time=240
note_on channel=0 note=74 velocity=0 time=0
note_on channel=0 note=75 velocity=52 time=0
note_on channel=0 note=60 velocity=36 time=0
note_on channel=0 note=63 velocity=36 time=0
note_on channel=0 note=63 velocity=0 time=0
note_on channel=0 note=60 velocity=0 time=0
note_on channel=0 note=75 velocity=0 time=0
note_on channel=0 note=77 velocity=52 time=0
note_on channel=0 note=67 velocity=36 time=0
note_on channel=0 note=67 velocity=0 time=0
note_on channel=0 note=77 velocity=0 time=0
note_on channel=0 note=79 velocity=56 time=0
note_on channel=0 note=59 velocity=41 time=0
note_on channel=0 note=62 velocity=41 time=0
note_on channel=0 note=62 velocity=0 time=240
note_on channel=0 note=59 velocity=0 time=0
note_on channel=0 note=79 velocity=0 time=0
note_on channel=0 note=67 velocity=36 time=0
note_on channel=0 note=67 velocity=0 time=240
note_on channel=0 note=79 velocity=55 time=0
note_on channel=0 note=60 velocity=36 time=0
note_on channel=0 note=56 velocity=36 time=0
note_on channel=0 note=56 velocity=0 time=240
note_on channel=0 note=60 velocity=0 time=0
note_on channel=0 note=79 velocity=0 time=0
note_on channel=0 note=67 velocity=36 time=0
note_on channel=0 note=67 velocity=0 time=240
note_on channel=0 note=79 velocity=57 time=0
note_on channel=0 note=55 velocity=40 time=0
note_on channel=0 note=55 velocity=0 time=240
note_on channel=0 note=59 velocity=29 time=0
note_on channel=0 note=59 velocity=0 time=240
note_on channel=0 note=62 velocity=28 time=0
note_on channel=0 note=62 velocity=0 time=240
note_on channel=0 note=67 velocity=28 time=0
note_on channel=0 note=67 velocity=0 time=0
note_on channel=0 note=55 velocity=40 time=0
note_on channel=0 note=55 velocity=0 time=240
note_on channel=0 note=59 velocity=31 time=0
note_on channel=0 note=59 velocity=0 time=240
note_on channel=0 note=79 velocity=0 time=0
note_on channel=0 note=77 velocity=51 time=0
note_on channel=0 note=62 velocity=31 time=0
note_on channel=0 note=62 velocity=0 time=0
note_on channel=0 note=77 velocity=0 time=0
note_on channel=0 note=79 velocity=53 time=0
note_on channel=0 note=67 velocity=31 time=0
note_on channel=0 note=79 velocity=0 time=0
note_on channel=0 note=77 velocity=48 time=0
note_on channel=0 note=77 velocity=0 time=60
note_on channel=0 note=79 velocity=48 time=0
note_on channel=0 note=79 velocity=0 time=0
note_on channel=0 note=67 velocity=0 time=0
note_on channel=0 note=80 velocity=56 time=0
note_on channel=0 note=53 velocity=40 time=0
note_on channel=0 note=53 velocity=0 time=0
note_on channel=0 note=56 velocity=36 time=0
note_on channel=0 note=56 velocity=0 time=240
note_on channel=0 note=59 velocity=37 time=0
note_on channel=0 note=59 velocity=0 time=240
note_on channel=0 note=62 velocity=37 time=0
note_on channel=0 note=62 velocity=0 time=0
note_on channel=0 note=80 velocity=0 time=0
note_on channel=0 note=74 velocity=52 time=0
note_on channel=0 note=53 velocity=40 time=0
note_on channel=0 note=53 velocity=0 time=240
note_on channel=0 note=56 velocity=36 time=0
note_on channel=0 note=56 velocity=0 time=240
note_on channel=0 note=74 velocity=0 time=0
note_on channel=0 note=75 velocity=51 time=0
note_on channel=0 note=59 velocity=36 time=0
note_on channel=0 note=59 velocity=0 time=0
note_on channel=0 note=75 velocity=0 time=0
note_on channel=0 note=77 velocity=53 time=0
note_on channel=0 note=62 velocity=36 time=0
note_on channel=0 note=77 velocity=0 time=0
note_on channel=0 note=75 velocity=50 time=0
note_on channel=0 note=75 velocity=0 time=60
note_on channel=0 note=77 velocity=50 time=0
note_on channel=0 note=77 velocity=0 time=0
note_on channel=0 note=62 velocity=0 time=0
note_on channel=0 note=79 velocity=56 time=0
note_on channel=0 note=51 velocity=40 time=0
note_on channel=0 note=51 velocity=0 time=0
note_on channel=0 note=55 velocity=34 time=0
note_on channel=0 note=55 velocity=0 time=240
note_on channel=0 note=60 velocity=34 time=0
note_on channel=0 note=60 velocity=0 time=240
note_on channel=0 note=63 velocity=33 time=0
note_on channel=0 note=63 velocity=0 time=0
note_on channel=0 note=79 velocity=0 time=0
note_on channel=0 note=72 velocity=52 time=0
note_on channel=0 note=56 velocity=41 time=0
note_on channel=0 note=56 velocity=0 time=240
note_on channel=0 note=60 velocity=35 time=0
note_on channel=0 note=72 velocity=0 time=230
note_on channel=0 note=60 velocity=0 time=10
note_on channel=0 note=72 velocity=53 time=0
note_on channel=0 note=63 velocity=35 time=0
note_on channel=0 note=63 velocity=0 time=0
note_on channel=0 note=72 velocity=0 time=0
note_on channel=0 note=74 velocity=54 time=0
note_on channel=0 note=66 velocity=35 time=0
note_on channel=0 note=66 velocity=0 time=0
note_on channel=0 note=74 velocity=0 time=0
note_on channel=0 note=75 velocity=57 time=0
note_on channel=0 note=55 velocity=40 time=0
note_on channel=0 note=55 velocity=0 time=0
note_on channel=0 note=75 velocity=0 time=0
note_on channel=0 note=60 velocity=40 time=0
note_on channel=0 note=60 velocity=0 time=240
note_on channel=0 note=75 velocity=53 time=0
note_on channel=0 note=63 velocity=35 time=0
note_on channel=0 note=63 velocity=0 time=240
note_on channel=0 note=75 velocity=0 time=0
note_on channel=0 note=77 velocity=55 time=0
note_on channel=0 note=67 velocity=35 time=0
note_on channel=0 note=67 velocity=0 time=0
note_on channel=0 note=77 velocity=0 time=0
note_on channel=0 note=74 velocity=57 time=0
note_on channel=0 note=55 velocity=40 time=0
note_on channel=0 note=55 velocity=0 time=0
note_on channel=0 note=74 velocity=0 time=0
note_on channel=0 note=59 velocity=36 time=0
note_on channel=0 note=59 velocity=0 time=240
note_on channel=0 note=74 velocity=51 time=0
note_on channel=0 note=62 velocity=36 time=0
note_on channel=0 note=62 velocity=0 time=0
note_on channel=0 note=74 velocity=0 time=0
note_on channel=0 note=75 velocity=54 time=0
note_on channel=0 note=67 velocity=36 time=0
note_on channel=0 note=67 velocity=0 time=0
note_on channel=0 note=75 velocity=0 time=0
note_on channel=0 note=72 velocity=57 time=0
note_on channel=0 note=60 velocity=57 time=0
note_on channel=0 note=72 velocity=0 time=40
note_on channel=0 note=71 velocity=52 time=0
note_on channel=0 note=71 velocity=0 time=80
note_on channel=0 note=60 velocity=0 time=0
note_on channel=0 note=72 velocity=53 time=0
note_on channel=0 note=72 velocity=0 time=120
note_on channel=0 note=74 velocity=54 time=0
note_on channel=0 note=74 velocity=0 time=160
note_on channel=0 note=75 velocity=55 time=0
note_on channel=0 note=75 velocity=0 time=240
note_on channel=0 note=76 velocity=56 time=0
note_on channel=0 note=76 velocity=0 time=40
note_on channel=0 note=77 velocity=58 time=0
note_on channel=0 note=77 velocity=0 time=0
note_on channel=0 note=79 velocity=59 time=0
note_on channel=0 note=79 velocity=0 time=0
note_on channel=0 note=80 velocity=60 time=0
note_on channel=0 note=41 velocity=58 time=0
note_on channel=0 note=41 velocity=0 time=240
note_on channel=0 note=80 velocity=0 time=0
note_on channel=0 note=79 velocity=57 time=0
note_on channel=0 note=44 velocity=48 time=0
note_on channel=0 note=44 velocity=0 time=240
note_on channel=0 note=79 velocity=0 time=0
note_on channel=0 note=82 velocity=63 time=0
note_on channel=0 note=47 velocity=49 time=0
note_on channel=0 note=47 velocity=0 time=240
note_on channel=0 note=82 velocity=0 time=0
note_on channel=0 note=80 velocity=62 time=0
note_on channel=0 note=50 velocity=51 time=0
note_on channel=0 note=50 velocity=0 time=240
note_on channel=0 note=80 velocity=0 time=0
note_on channel=0 note=79 velocity=62 time=0
note_on channel=0 note=41 velocity=53 time=0
note_on channel=0 note=41 velocity=0 time=240
note_on channel=0 note=79 velocity=0 time=0
note_on channel=0 note=77 velocity=61 time=0
note_on channel=0 note=44 velocity=54 time=0
note_on channel=0 note=44 velocity=0 time=240
note_on channel=0 note=77 velocity=0 time=0
note_on channel=0 note=75 velocity=60 time=0
note_on channel=0 note=47 velocity=56 time=0
note_on channel=0 note=47 velocity=0 time=0
note_on channel=0 note=75 velocity=0 time=0
note_on channel=0 note=74 velocity=58 time=0
note_on channel=0 note=50 velocity=57 time=0
note_on channel=0 note=50 velocity=0 time=0
note_on channel=0 note=74 velocity=0 time=0
note_on channel=0 note=79 velocity=66 time=0
note_on channel=0 note=39 velocity=58 time=0
note_on channel=0 note=39 velocity=0 time=240
note_on channel=0 note=79 velocity=0 time=0
note_on channel=0 note=78 velocity=60 time=0
note_on channel=0 note=43 velocity=57 time=0
note_on channel=0 note=43 velocity=0 time=240
note_on channel=0 note=78 velocity=0 time=0
note_on channel=0 note=80 velocity=67 time=0
note_on channel=0 note=48 velocity=55 time=0
note_on channel=0 note=48 velocity=0 time=240
note_on channel=0 note=80 velocity=0 time=0
note_on channel=0 note=79 velocity=66 time=0
note_on channel=0 note=51 velocity=56 time=0
note_on channel=0 note=51 velocity=0 time=240
note_on channel=0 note=79 velocity=0 time=0
note_on channel=0 note=77 velocity=66 time=0
note_on channel=0 note=44 velocity=57 time=0
note_on channel=0 note=44 velocity=0 time=240
note_on channel=0 note=77 velocity=0 time=0
note_on channel=0 note=75 velocity=65 time=0
note_on channel=0 note=48 velocity=57 time=0
note_on channel=0 note=48 velocity=0 time=240
note_on channel=0 note=75 velocity=0 time=0
note_on channel=0 note=74 velocity=65 time=0
note_on channel=0 note=51 velocity=58 time=0
note_on channel=0 note=51 velocity=0 time=0
note_on channel=0 note=74 velocity=0 time=0
note_on channel=0 note=72 velocity=64 time=0
note_on channel=0 note=54 velocity=60 time=0
note_on channel=0 note=54 velocity=0 time=0
note_on channel=0 note=72 velocity=0 time=0
note_on channel=0 note=75 velocity=71 time=0
note_on channel=0 note=43 velocity=64 time=0
note_on channel=0 note=43 velocity=0 time=240
note_on channel=0 note=75 velocity=0 time=0
note_on channel=0 note=74 velocity=64 time=0
note_on channel=0 note=48 velocity=58 time=0
note_on channel=0 note=48 velocity=0 time=240
note_on channel=0 note=74 velocity=0 time=0
note_on channel=0 note=77 velocity=70 time=0
note_on channel=0 note=51 velocity=63 time=0
note_on channel=0 note=51 velocity=0 time=240
note_on channel=0 note=77 velocity=0 time=0
note_on channel=0 note=75 velocity=62 time=0
note_on channel=0 note=55 velocity=63 time=0
note_on channel=0 note=55 velocity=0 time=240
note_on channel=0 note=75 velocity=0 time=0
note_on channel=0 note=74 velocity=69 time=0
note_on channel=0 note=43 velocity=62 time=0
note_on channel=0 note=43 velocity=0 time=240
note_on channel=0 note=74 velocity=0 time=0
note_on channel=0 note=73 velocity=66 time=0
note_on channel=0 note=55 velocity=61 time=0
note_on channel=0 note=55 velocity=0 time=240
note_on channel=0 note=73 velocity=0 time=0
note_on channel=0 note=75 velocity=64 time=0
note_on channel=0 note=43 velocity=58 time=0
note_on channel=0 note=43 velocity=0 time=240
note_on channel=0 note=75 velocity=0 time=0
note_on channel=0 note=74 velocity=60 time=0
note_on channel=0 note=55 velocity=57 time=0
note_on channel=0 note=55 velocity=0 time=0
note_on channel=0 note=74 velocity=0 time=0
note_on channel=0 note=72 velocity=66 time=0
note_on channel=0 note=48 velocity=67 time=0
note_on channel=0 note=48 velocity=0 time=0
note_on channel=0 note=60 velocity=52 time=0
note_on channel=0 note=60 velocity=0 time=0
note_on channel=0 note=72 velocity=0 time=0
note_on channel=0 note=59 velocity=60 time=0
note_on channel=0 note=59 velocity=0 time=240
note_on channel=0 note=60 velocity=52 time=0
note_on channel=0 note=60 velocity=0 time=0
note_on channel=0 note=58 velocity=64 time=0
note_on channel=0 note=84 velocity=68 time=0
note_on channel=0 note=58 velocity=0 time=80
note_on channel=0 note=60 velocity=51 time=0
note_on channel=0 note=84 velocity=0 time=80
note_on channel=0 note=86 velocity=70 time=0
note_on channel=0 note=86 velocity=0 time=160
note_on channel=0 note=60 velocity=0 time=0
note_on channel=0 note=88 velocity=73 time=0
note_on channel=0 note=55 velocity=57 time=0
note_on channel=0 note=88 velocity=0 time=160
note_on channel=0 note=86 velocity=70 time=0
note_on channel=0 note=55 velocity=0 time=80
note_on channel=0 note=60 velocity=50 time=0
note_on channel=0 note=86 velocity=0 time=80
note_on channel=0 note=84 velocity=66 time=0
note_on channel=0 note=84 velocity=0 time=0
note_on channel=0 note=60 velocity=0 time=0
note_on channel=0 note=89 velocity=77 time=0
note_on channel=0 note=56 velocity=63 time=0
note_on channel=0 note=56 velocity=0 time=0
note_on channel=0 note=89 velocity=0 time=0
note_on channel=0 note=60 velocity=50 time=0
note_on channel=0 note=60 velocity=0 time=0
note_on channel=0 note=53 velocity=57 time=0
note_on channel=0 note=53 velocity=0 time=240
note_on channel=0 note=60 velocity=50 time=0
note_on channel=0 note=60 velocity=0 time=0
note_on channel=0 note=58 velocity=59 time=0
note_on channel=0 note=84 velocity=66 time=0
note_on channel=0 note=58 velocity=0 time=80
note_on channel=0 note=60 velocity=50 time=0
note_on channel=0 note=84 velocity=0 time=80
note_on channel=0 note=86 velocity=69 time=0
note_on channel=0 note=86 velocity=0 time=160
note_on channel=0 note=60 velocity=0 time=0
note_on channel=0 note=88 velocity=72 time=0
note_on channel=0 note=55 velocity=55 time=0
note_on channel=0 note=88 velocity=0 time=160
note_on channel=0 note=86 velocity=70 time=0
note_on channel=0 note=55 velocity=0 time=80
note_on channel=0 note=60 velocity=50 time=0
note_on channel=0 note=86 velocity=0 time=80
note_on channel=0 note=84 velocity=67 time=0
note_on channel=0 note=84 velocity=0 time=0
note_on channel=0 note=60 velocity=0 time=0
note_on channel=0 note=89 velocity=77 time=0
note_on channel=0 note=56 velocity=63 time=0
note_on channel=0 note=56 velocity=0 time=0
note_on channel=0 note=89 velocity=0 time=0
note_on channel=0 note=60 velocity=50 time=0
note_on channel=0 note=60 velocity=0 time=0
note_on channel=0 note=53 velocity=57 time=0
note_on channel=0 note=53 velocity=0 time=240
note_on channel=0 note=60 velocity=50 time=0
note_on channel=0 note=60 velocity=0 time=0
note_on channel=0 note=58 velocity=59 time=0
note_on channel=0 note=84 velocity=66 time=0
note_on channel=0 note=58 velocity=0 time=80
note_on channel=0 note=60 velocity=50 time=0
note_on channel=0 note=84 velocity=0 time=80
note_on channel=0 note=86 velocity=69 time=0
note_on channel=0 note=86 velocity=0 time=160
note_on channel=0 note=60 velocity=0 time=0
note_on channel=0 note=88 velocity=72 time=0
note_on channel=0 note=55 velocity=55 time=0
note_on channel=0 note=88 velocity=0 time=160
note_on channel=0 note=86 velocity=70 time=0
note_on channel=0 note=55 velocity=0 time=80
note_on channel=0 note=60 velocity=50 time=0
note_on channel=0 note=86 velocity=0 time=80
note_on channel=0 note=84 velocity=67 time=0
note_on channel=0 note=84 velocity=0 time=0
note_on channel=0 note=60 velocity=0 time=0
note_on channel=0 note=89 velocity=86 time=0
note_on channel=0 note=56 velocity=77 time=0
note_on channel=0 note=56 velocity=0 time=240
note_on channel=0 note=89 velocity=0 time=0
note_on channel=0 note=72 velocity=76 time=20
note_on channel=0 note=75 velocity=76 time=0
note_on channel=0 note=78 velocity=76 time=0
note_on channel=0 note=84 velocity=90 time=0
note_on channel=0 note=44 velocity=62 time=0
note_on channel=0 note=48 velocity=62 time=0
note_on channel=0 note=51 velocity=62 time=0
note_on channel=0 note=56 velocity=73 time=0
note_on channel=0 note=56 velocity=0 time=240
note_on channel=0 note=72 velocity=0 time=0
note_on channel=0 note=44 velocity=0 time=0
note_on channel=0 note=75 velocity=0 time=0
note_on channel=0 note=78 velocity=0 time=0
note_on channel=0 note=84 velocity=0 time=0
note_on channel=0 note=48 velocity=0 time=0
note_on channel=0 note=51 velocity=0 time=0
note_on channel=0 note=72 velocity=76 time=240
note_on channel=0 note=75 velocity=76 time=0
note_on channel=0 note=79 velocity=76 time=0
note_on channel=0 note=84 velocity=90 time=0
note_on channel=0 note=43 velocity=62 time=0
note_on channel=0 note=48 velocity=62 time=0
note_on channel=0 note=51 velocity=62 time=0
note_on channel=0 note=55 velocity=73 time=0
note_on channel=0 note=55 velocity=0 time=240
note_on channel=0 note=72 velocity=0 time=0
note_on channel=0 note=43 velocity=0 time=0
note_on channel=0 note=75 velocity=0 time=0
note_on channel=0 note=79 velocity=0 time=0
note_on channel=0 note=84 velocity=0 time=0
note_on channel=0 note=48 velocity=0 time=0
note_on channel=0 note=51 velocity=0 time=0
note_on channel=0 note=71 velocity=76 time=240
note_on channel=0 note=74 velocity=76 time=0
note_on channel=0 note=79 velocity=76 time=0
note_on channel=0 note=83 velocity=90 time=0
note_on channel=0 note=43 velocity=62 time=0
note_on channel=0 note=47 velocity=62 time=0
note_on channel=0 note=50 velocity=62 time=0
note_on channel=0 note=55 velocity=73 time=0
note_on channel=0 note=55 velocity=0 time=240
note_on channel=0 note=71 velocity=0 time=0
note_on channel=0 note=43 velocity=0 time=0
note_on channel=0 note=74 velocity=0 time=0
note_on channel=0 note=79 velocity=0 time=0
note_on channel=0 note=83 velocity=0 time=0
note_on channel=0 note=47 velocity=0 time=0
note_on channel=0 note=50 velocity=0 time=0
note_on channel=0 note=72 velocity=76 time=0
note_on channel=0 note=75 velocity=76 time=0
note_on channel=0 note=79 velocity=76 time=0
note_on channel=0 note=84 velocity=90 time=0
note_on channel=0 note=36 velocity=76 time=0
note_on channel=0 note=36 velocity=0 time=0
note_on channel=0 note=79 velocity=0 time=0
note_on channel=0 note=72 velocity=0 time=0
note_on channel=0 note=75 velocity=0 time=0
note_on channel=0 note=84 velocity=0 time=0
note_on channel=0 note=48 velocity=52 time=0
note_on channel=0 note=48 velocity=0 time=0
note_on channel=0 note=47 velocity=60 time=0
note_on channel=0 note=47 velocity=0 time=240
note_on channel=0 note=48 velocity=52 time=0
note_on channel=0 note=48 velocity=0 time=0
note_on channel=0 note=46 velocity=64 time=0
note_on channel=0 note=72 velocity=68 time=0
note_on channel=0 note=46 velocity=0 time=80
note_on channel=0 note=48 velocity=51 time=0
note_on channel=0 note=72 velocity=0 time=80
note_on channel=0 note=74 velocity=70 time=0
note_on channel=0 note=74 velocity=0 time=160
note_on channel=0 note=48 velocity=0 time=0
note_on channel=0 note=76 velocity=73 time=0
note_on channel=0 note=43 velocity=57 time=0
note_on channel=0 note=76 velocity=0 time=160
note_on channel=0 note=74 velocity=70 time=0
note_on channel=0 note=43 velocity=0 time=80
note_on channel=0 note=48 velocity=50 time=0
note_on channel=0 note=74 velocity=0 time=80
note_on channel=0 note=72 velocity=66 time=0
note_on channel=0 note=72 velocity=0 time=0
note_on channel=0 note=48 velocity=0 time=0
note_on channel=0 note=77 velocity=77 time=0
note_on channel=0 note=44 velocity=63 time=0
note_on channel=0 note=44 velocity=0 time=0
note_on channel=0 note=77 velocity=0 time=0
note_on channel=0 note=48 velocity=50 time=0
note_on channel=0 note=48 velocity=0 time=0
note_on channel=0 note=41 velocity=57 time=0
note_on channel=0 note=41 velocity=0 time=240
note_on channel=0 note=48 velocity=50 time=0
note_on channel=0 note=48 velocity=0 time=0
note_on channel=0 note=46 velocity=59 time=0
note_on channel=0 note=72 velocity=66 time=0
note_on channel=0 note=46 velocity=0 time=80
note_on channel=0 note=48 velocity=50 time=0
note_on channel=0 note=72 velocity=0 time=80
note_on channel=0 note=74 velocity=69 time=0
note_on channel=0 note=74 velocity=0 time=160
note_on channel=0 note=48 velocity=0 time=0
note_on channel=0 note=76 velocity=72 time=0
note_on channel=0 note=43 velocity=55 time=0
note_on channel=0 note=76 velocity=0 time=160
note_on channel=0 note=74 velocity=70 time=0
note_on channel=0 note=43 velocity=0 time=80
note_on channel=0 note=48 velocity=50 time=0
note_on channel=0 note=74 velocity=0 time=80
note_on channel=0 note=72 velocity=67 time=0
note_on channel=0 note=72 velocity=0 time=0
note_on channel=0 note=48 velocity=0 time=0
note_on channel=0 note=77 velocity=77 time=0
note_on channel=0 note=44 velocity=63 time=0
note_on channel=0 note=44 velocity=0 time=0
note_on channel=0 note=77 velocity=0 time=0
note_on channel=0 note=48 velocity=50 time=0
note_on channel=0 note=48 velocity=0 time=0
note_on channel=0 note=41 velocity=57 time=0
note_on channel=0 note=41 velocity=0 time=240
note_on channel=0 note=48 velocity=50 time=0
note_on channel=0 note=48 velocity=0 time=0
note_on channel=0 note=46 velocity=59 time=0
note_on channel=0 note=60 velocity=66 time=0
note_on channel=0 note=46 velocity=0 time=80
note_on channel=0 note=48 velocity=50 time=0
note_on channel=0 note=60 velocity=0 time=80
note_on channel=0 note=62 velocity=69 time=0
note_on channel=0 note=62 velocity=0 time=160
note_on channel=0 note=48 velocity=0 time=0
note_on channel=0 note=64 velocity=72 time=0
note_on channel=0 note=43 velocity=55 time=0
note_on channel=0 note=64 velocity=0 time=160
note_on channel=0 note=62 velocity=70 time=0
note_on channel=0 note=43 velocity=0 time=80
note_on channel=0 note=48 velocity=50 time=0
note_on channel=0 note=62 velocity=0 time=0
note_on channel=0 note=60 velocity=67 time=0
note_on channel=0 note=60 velocity=0 time=0
note_on channel=0 note=48 velocity=0 time=0
note_on channel=0 note=65 velocity=63 time=0
note_on channel=0 note=44 velocity=45 time=0
note_on channel=0 note=65 velocity=0 time=160
note_on channel=0 note=60 velocity=50 time=0
note_on channel=0 note=60 velocity=0 time=160
note_on channel=0 note=62 velocity=50 time=0
note_on channel=0 note=62 velocity=0 time=160
note_on channel=0 note=44 velocity=0 time=0
note_on channel=0 note=63 velocity=63 time=0
note_on channel=0 note=44 velocity=45 time=0
note_on channel=0 note=56 velocity=45 time=0
note_on channel=0 note=63 velocity=0 time=160
note_on channel=0 note=62 velocity=50 time=0
note_on channel=0 note=62 velocity=0 time=0
note_on channel=0 note=60 velocity=50 time=0
note_on channel=0 note=60 velocity=0 time=0
note_on channel=0 note=56 velocity=0 time=0
note_on channel=0 note=44 velocity=0 time=0
note_on channel=0 note=66 velocity=68 time=0
note_on channel=0 note=66 velocity=0 time=160
note_on channel=0 note=60 velocity=52 time=0
note_on channel=0 note=60 velocity=0 time=160
note_on channel=0 note=62 velocity=53 time=0
note_on channel=0 note=62 velocity=0 time=160
note_on channel=0 note=63 velocity=60 time=0
note_on channel=0 note=44 velocity=41 time=0
note_on channel=0 note=48 velocity=41 time=0
note_on channel=0 note=51 velocity=41 time=0
note_on channel=0 note=56 velocity=49 time=0
note_on channel=0 note=63 velocity=0 time=160
note_on channel=0 note=62 velocity=50 time=0
note_on channel=0 note=51 velocity=0 time=80
note_on channel=0 note=56 velocity=0 time=0
note_on channel=0 note=44 velocity=0 time=0
note_on channel=0 note=48 velocity=0 time=0
note_on channel=0 note=62 velocity=0 time=0
note_on channel=0 note=60 velocity=50 time=0
note_on channel=0 note=60 velocity=0 time=0
note_on channel=0 note=67 velocity=69 time=0
note_on channel=0 note=67 velocity=0 time=160
note_on channel=0 note=60 velocity=51 time=0
note_on channel=0 note=60 velocity=0 time=160
note_on channel=0 note=62 velocity=52 time=0
note_on channel=0 note=62 velocity=0 time=160
note_on channel=0 note=63 velocity=58 time=0
note_on channel=0 note=43 velocity=44 time=0
note_on channel=0 note=48 velocity=44 time=0
note_on channel=0 note=51 velocity=44 time=0
note_on channel=0 note=55 velocity=52 time=0
note_on channel=0 note=63 velocity=0 time=160
note_on channel=0 note=62 velocity=51 time=0
note_on channel=0 note=51 velocity=0 time=80
note_on channel=0 note=55 velocity=0 time=0
note_on channel=0 note=43 velocity=0 time=0
note_on channel=0 note=48 velocity=0 time=0
note_on channel=0 note=62 velocity=0 time=0
note_on channel=0 note=60 velocity=52 time=0
note_on channel=0 note=60 velocity=0 time=0
note_on channel=0 note=69 velocity=69 time=0
note_on channel=0 note=69 velocity=0 time=160
note_on channel=0 note=60 velocity=54 time=0
note_on channel=0 note=60 velocity=0 time=160
note_on channel=0 note=62 velocity=55 time=0
note_on channel=0 note=62 velocity=0 time=160
note_on channel=0 note=63 velocity=62 time=0
note_on channel=0 note=42 velocity=46 time=0
note_on channel=0 note=48 velocity=46 time=0
note_on channel=0 note=51 velocity=46 time=0
note_on channel=0 note=54 velocity=55 time=0
note_on channel=0 note=63 velocity=0 time=160
note_on channel=0 note=62 velocity=55 time=0
note_on channel=0 note=51 velocity=0 time=80
note_on channel=0 note=54 velocity=0 time=0
note_on channel=0 note=42 velocity=0 time=0
note_on channel=0 note=48 velocity=0 time=0
note_on channel=0 note=62 velocity=0 time=0
note_on channel=0 note=60 velocity=55 time=0
note_on channel=0 note=60 velocity=0 time=0
note_on channel=0 note=71 velocity=70 time=0
note_on channel=0 note=71 velocity=0 time=160
note_on channel=0 note=59 velocity=55 time=0
note_on channel=0 note=59 velocity=0 time=160
note_on channel=0 note=60 velocity=55 time=0
note_on channel=0 note=60 velocity=0 time=160
note_on channel=0 note=62 velocity=61 time=0
note_on channel=0 note=41 velocity=48 time=0
note_on channel=0 note=47 velocity=48 time=0
note_on channel=0 note=50 velocity=48 time=0
note_on channel=0 note=53 velocity=57 time=0
note_on channel=0 note=62 velocity=0 time=160
note_on channel=0 note=60 velocity=55 time=0
note_on channel=0 note=50 velocity=0 time=80
note_on channel=0 note=53 velocity=0 time=0
note_on channel=0 note=41 velocity=0 time=0
note_on channel=0 note=47 velocity=0 time=0
note_on channel=0 note=60 velocity=0 time=0
note_on channel=0 note=59 velocity=54 time=0
note_on channel=0 note=59 velocity=0 time=0
note_on channel=0 note=72 velocity=72 time=0
note_on channel=0 note=72 velocity=0 time=160
note_on channel=0 note=60 velocity=55 time=0
note_on channel=0 note=60 velocity=0 time=160
note_on channel=0 note=62 velocity=55 time=0
note_on channel=0 note=62 velocity=0 time=160
note_on channel=0 note=63 velocity=63 time=0
note_on channel=0 note=39 velocity=51 time=0
note_on channel=0 note=43 velocity=51 time=0
note_on channel=0 note=48 velocity=51 time=0
note_on channel=0 note=51 velocity=60 time=0
note_on channel=0 note=63 velocity=0 time=160
note_on channel=0 note=62 velocity=56 time=0
note_on channel=0 note=48 velocity=0 time=80
note_on channel=0 note=51 velocity=0 time=0
note_on channel=0 note=39 velocity=0 time=0
note_on channel=0 note=43 velocity=0 time=0
note_on channel=0 note=62 velocity=0 time=0
note_on channel=0 note=60 velocity=58 time=0
note_on channel=0 note=60 velocity=0 time=40
note_on channel=0 note=74 velocity=74 time=0
note_on channel=0 note=74 velocity=0 time=160
note_on channel=0 note=62 velocity=56 time=0
note_on channel=0 note=62 velocity=0 time=160
note_on channel=0 note=63 velocity=56 time=0
note_on channel=0 note=63 velocity=0 time=160
note_on channel=0 note=65 velocity=62 time=0
note_on channel=0 note=41 velocity=53 time=0
note_on channel=0 note=44 velocity=53 time=0
note_on channel=0 note=50 velocity=53 time=0
note_on channel=0 note=53 velocity=63 time=0
note_on channel=0 note=65 velocity=0 time=160
note_on channel=0 note=63 velocity=54 time=0
note_on channel=0 note=50 velocity=0 time=80
note_on channel=0 note=53 velocity=0 time=0
note_on channel=0 note=41 velocity=0 time=0
note_on channel=0 note=44 velocity=0 time=0
note_on channel=0 note=63 velocity=0 time=0
note_on channel=0 note=62 velocity=54 time=0
note_on channel=0 note=62 velocity=0 time=0
note_on channel=0 note=71 velocity=75 time=0
note_on channel=0 note=71 velocity=0 time=160
note_on channel=0 note=59 velocity=53 time=0
note_on channel=0 note=59 velocity=0 time=160
note_on channel=0 note=60 velocity=53 time=0
note_on channel=0 note=60 velocity=0 time=160
note_on channel=0 note=62 velocity=65 time=0
note_on channel=0 note=43 velocity=56 time=0
note_on channel=0 note=47 velocity=56 time=0
note_on channel=0 note=50 velocity=56 time=0
note_on channel=0 note=55 velocity=66 time=0
note_on channel=0 note=62 velocity=0 time=160
note_on channel=0 note=60 velocity=55 time=0
note_on channel=0 note=50 velocity=0 time=80
note_on channel=0 note=55 velocity=0 time=0
note_on channel=0 note=43 velocity=0 time=0
note_on channel=0 note=47 velocity=0 time=0
note_on channel=0 note=60 velocity=0 time=0
note_on channel=0 note=59 velocity=55 time=0
note_on channel=0 note=59 velocity=0 time=0
note_on channel=0 note=60 velocity=67 time=0
note_on channel=0 note=72 velocity=79 time=0
note_on channel=0 note=36 velocity=65 time=0
note_on channel=0 note=48 velocity=77 time=0
note_on channel=0 note=48 velocity=0 time=240
note_on channel=0 note=36 velocity=0 time=0
note_on channel=0 note=72 velocity=0 time=0
note_on channel=0 note=60 velocity=0 time=0
note_on channel=0 note=51 velocity=70 time=0
note_on channel=0 note=55 velocity=70 time=0
note_on channel=0 note=60 velocity=83 time=0
note_on channel=0 note=79 velocity=84 time=0
note_on channel=0 note=79 velocity=0 time=480
note_on channel=0 note=77 velocity=80 time=0
note_on channel=0 note=77 velocity=0 time=120
note_on channel=0 note=75 velocity=79 time=0
note_on channel=0 note=75 velocity=0 time=120
note_on channel=0 note=74 velocity=78 time=0
note_on channel=0 note=74 velocity=0 time=120
note_on channel=0 note=72 velocity=77 time=0
note_on channel=0 note=72 velocity=0 time=0
note_on channel=0 note=51 velocity=0 time=0
note_on channel=0 note=55 velocity=0 time=0
note_on channel=0 note=60 velocity=0 time=0
note_on channel=0 note=74 velocity=79 time=0
note_on channel=0 note=53 velocity=65 time=0
note_on channel=0 note=56 velocity=65 time=0
note_on channel=0 note=60 velocity=65 time=0
note_on channel=0 note=62 velocity=77 time=0
note_on channel=0 note=62 velocity=0 time=240
note_on channel=0 note=56 velocity=0 time=0
note_on channel=0 note=74 velocity=0 time=0
note_on channel=0 note=53 velocity=0 time=0
note_on channel=0 note=60 velocity=0 time=0
note_on channel=0 note=55 velocity=70 time=0
note_on channel=0 note=59 velocity=70 time=0
note_on channel=0 note=62 velocity=83 time=0
note_on channel=0 note=77 velocity=84 time=0
note_on channel=0 note=77 velocity=0 time=480
note_on channel=0 note=75 velocity=80 time=0
note_on channel=0 note=75 velocity=0 time=120
note_on channel=0 note=74 velocity=79 time=0
note_on channel=0 note=74 velocity=0 time=120
note_on channel=0 note=72 velocity=78 time=0
note_on channel=0 note=72 velocity=0 time=120
note_on channel=0 note=71 velocity=77 time=0
note_on channel=0 note=71 velocity=0 time=0
note_on channel=0 note=55 velocity=0 time=0
note_on channel=0 note=59 velocity=0 time=0
note_on channel=0 note=62 velocity=0 time=0
note_on channel=0 note=72 velocity=79 time=0
note_on channel=0 note=51 velocity=65 time=0
note_on channel=0 note=55 velocity=65 time=0
note_on channel=0 note=60 velocity=77 time=0
note_on channel=0 note=60 velocity=0 time=240
note_on channel=0 note=72 velocity=0 time=0
note_on channel=0 note=51 velocity=0 time=0
note_on channel=0 note=55 velocity=0 time=0
note_on channel=0 note=51 velocity=70 time=0
note_on channel=0 note=55 velocity=70 time=0
note_on channel=0 note=60 velocity=83 time=0
note_on channel=0 note=79 velocity=84 time=0
note_on channel=0 note=79 velocity=0 time=480
note_on channel=0 note=77 velocity=80 time=0
note_on channel=0 note=77 velocity=0 time=120
note_on channel=0 note=75 velocity=79 time=0
note_on channel=0 note=75 velocity=0 time=120
note_on channel=0 note=74 velocity=78 time=0
note_on channel=0 note=74 velocity=0 time=120
note_on channel=0 note=72 velocity=77 time=0
note_on channel=0 note=72 velocity=0 time=0
note_on channel=0 note=51 velocity=0 time=0
note_on channel=0 note=55 velocity=0 time=0
note_on channel=0 note=60 velocity=0 time=0
note_on channel=0 note=74 velocity=79 time=0
note_on channel=0 note=53 velocity=65 time=0
note_on channel=0 note=56 velocity=65 time=0
note_on channel=0 note=60 velocity=65 time=0
note_on channel=0 note=62 velocity=77 time=0
note_on channel=0 note=62 velocity=0 time=240
note_on channel=0 note=56 velocity=0 time=0
note_on channel=0 note=74 velocity=0 time=0
note_on channel=0 note=53 velocity=0 time=0
note_on channel=0 note=60 velocity=0 time=0
note_on channel=0 note=55 velocity=70 time=0
note_on channel=0 note=59 velocity=70 time=0
note_on channel=0 note=62 velocity=83 time=0
note_on channel=0 note=77 velocity=84 time=0
note_on channel=0 note=77 velocity=0 time=480
note_on channel=0 note=75 velocity=80 time=0
note_on channel=0 note=75 velocity=0 time=120
note_on channel=0 note=74 velocity=79 time=0
note_on channel=0 note=74 velocity=0 time=120
note_on channel=0 note=72 velocity=78 time=0
note_on channel=0 note=72 velocity=0 time=120
note_on channel=0 note=71 velocity=77 time=0
note_on channel=0 note=71 velocity=0 time=0
note_on channel=0 note=55 velocity=0 time=0
note_on channel=0 note=59 velocity=0 time=0
note_on channel=0 note=62 velocity=0 time=0
note_on channel=0 note=72 velocity=79 time=0
note_on channel=0 note=51 velocity=65 time=0
note_on channel=0 note=55 velocity=65 time=0
note_on channel=0 note=60 velocity=77 time=0
note_on channel=0 note=60 velocity=0 time=240
note_on channel=0 note=72 velocity=0 time=0
note_on channel=0 note=51 velocity=0 time=0
note_on channel=0 note=55 velocity=0 time=0
note_on channel=0 note=51 velocity=70 time=0
note_on channel=0 note=55 velocity=70 time=0
note_on channel=0 note=60 velocity=83 time=0
note_on channel=0 note=79 velocity=84 time=0
note_on channel=0 note=79 velocity=0 time=480
note_on channel=0 note=77 velocity=80 time=0
note_on channel=0 note=77 velocity=0 time=120
note_on channel=0 note=75 velocity=79 time=0
note_on channel=0 note=75 velocity=0 time=120
note_on channel=0 note=74 velocity=78 time=0
note_on channel=0 note=74 velocity=0 time=120
note_on channel=0 note=72 velocity=77 time=0
note_on channel=0 note=72 velocity=0 time=0
note_on channel=0 note=51 velocity=0 time=0
note_on channel=0 note=55 velocity=0 time=0
note_on channel=0 note=60 velocity=0 time=0
note_on channel=0 note=73 velocity=79 time=0
note_on channel=0 note=53 velocity=65 time=0
note_on channel=0 note=56 velocity=65 time=0
note_on channel=0 note=61 velocity=77 time=0
note_on channel=0 note=61 velocity=0 time=240
note_on channel=0 note=73 velocity=0 time=0
note_on channel=0 note=53 velocity=0 time=0
note_on channel=0 note=56 velocity=0 time=0
note_on channel=0 note=53 velocity=70 time=0
note_on channel=0 note=56 velocity=70 time=0
note_on channel=0 note=61 velocity=83 time=0
note_on channel=0 note=89 velocity=100 time=480
note_on channel=0 note=61 velocity=0 time=0
note_on channel=0 note=53 velocity=0 time=0
note_on channel=0 note=56 velocity=0 time=0
note_on channel=0 note=53 velocity=71 time=0
note_on channel=0 note=56 velocity=71 time=0
note_on channel=0 note=61 velocity=84 time=0
note_on channel=0 note=61 velocity=0 time=240
note_on channel=0 note=56 velocity=0 time=0
note_on channel=0 note=53 velocity=0 time=0
note_on channel=0 note=55 velocity=77 time=240
note_on channel=0 note=58 velocity=77 time=0
note_on channel=0 note=61 velocity=77 time=0
note_on channel=0 note=63 velocity=91 time=0
note_on channel=0 note=89 velocity=0 time=0
note_on channel=0 note=87 velocity=86 time=0
note_on channel=0 note=87 velocity=0 time=0
note_on channel=0 note=85 velocity=85 time=0
note_on channel=0 note=85 velocity=0 time=0
note_on channel=0 note=84 velocity=83 time=0
note_on channel=0 note=84 velocity=0 time=0
note_on channel=0 note=82 velocity=82 time=0
control_change channel=0 control=64 value=0 time=4
control_change channel=0 control=64 value=127 time=0
note_on channel=0 note=82 velocity=0 time=0
note_on channel=0 note=80 velocity=81 time=0
note_on channel=0 note=80 velocity=0 time=0
note_on channel=0 note=79 velocity=79 time=0
note_on channel=0 note=79 velocity=0 time=0
note_on channel=0 note=77 velocity=78 time=0
note_on channel=0 note=77 velocity=0 time=0
note_on channel=0 note=75 velocity=77 time=0
note_on channel=0 note=75 velocity=0 time=20
note_on channel=0 note=73 velocity=75 time=0
note_on channel=0 note=73 velocity=0 time=40
note_on channel=0 note=63 velocity=0 time=0
note_on channel=0 note=55 velocity=0 time=0
note_on channel=0 note=58 velocity=0 time=0
note_on channel=0 note=61 velocity=0 time=0
note_on channel=0 note=72 velocity=74 time=0
control_change channel=0 control=64 value=0 time=12
control_change channel=0 control=64 value=127 time=37
note_on channel=0 note=72 velocity=0 time=31
note_on channel=0 note=70 velocity=72 time=0
note_on channel=0 note=70 velocity=0 time=80
note_on channel=0 note=68 velocity=71 time=0
note_on channel=0 note=68 velocity=0 time=80
note_on channel=0 note=67 velocity=70 time=0
note_on channel=0 note=67 velocity=0 time=80
note_on channel=0 note=65 velocity=68 time=0
note_on channel=0 note=65 velocity=0 time=80
note_on channel=0 note=63 velocity=69 time=0
note_on channel=0 note=63 velocity=0 time=80
note_on channel=0 note=61 velocity=70 time=0
note_on channel=0 note=61 velocity=0 time=8
note_on channel=0 note=60 velocity=71 time=0
note_on channel=0 note=60 velocity=0 time=12
note_on channel=0 note=58 velocity=71 time=0
note_on channel=0 note=58 velocity=0 time=0
note_on channel=0 note=56 velocity=71 time=0
note_on channel=0 note=56 velocity=0 time=0
note_on channel=0 note=55 velocity=71 time=0
note_on channel=0 note=55 velocity=0 time=0
note_on channel=0 note=53 velocity=71 time=0
note_on channel=0 note=53 velocity=0 time=4
note_on channel=0 note=51 velocity=71 time=0
note_on channel=0 note=51 velocity=0 time=0
note_on channel=0 note=49 velocity=93 time=0
note_on channel=0 note=31 velocity=69 time=0
note_on channel=0 note=39 velocity=69 time=0
note_on channel=0 note=43 velocity=82 time=0
control_change channel=0 control=64 value=0 time=15
note_on channel=0 note=43 velocity=0 time=0
note_on channel=0 note=49 velocity=0 time=0
note_on channel=0 note=31 velocity=0 time=0
note_on channel=0 note=39 velocity=0 time=0
note_on channel=0 note=56 velocity=49 time=480
note_on channel=0 note=56 velocity=0 time=0
note_on channel=0 note=58 velocity=51 time=0
note_on channel=0 note=58 velocity=0 time=0
note_on channel=0 note=60 velocity=52 time=0
note_on channel=0 note=44 velocity=40 time=0
note_on channel=0 note=51 velocity=40 time=0
note_on channel=0 note=60 velocity=0 time=0
note_on channel=0 note=61 velocity=50 time=0
note_on channel=0 note=61 velocity=0 time=0
note_on channel=0 note=51 velocity=0 time=0
note_on channel=0 note=58 velocity=53 time=0
note_on channel=0 note=49 velocity=40 time=0
note_on channel=0 note=58 velocity=0 time=0
note_on channel=0 note=60 velocity=50 time=0
note_on channel=0 note=60 velocity=0 time=0
note_on channel=0 note=49 velocity=0 time=0
note_on channel=0 note=44 velocity=0 time=0
note_on channel=0 note=56 velocity=52 time=0
note_on channel=0 note=44 velocity=40 time=0
note_on channel=0 note=48 velocity=40 time=0
note_on channel=0 note=48 velocity=0 time=480
note_on channel=0 note=44 velocity=0 time=0
note_on channel=0 note=56 velocity=0 time=0
note_on channel=0 note=68 velocity=46 time=0
note_on channel=0 note=68 velocity=0 time=0
note_on channel=0 note=70 velocity=48 time=0
note_on channel=0 note=70 velocity=0 time=0
note_on channel=0 note=72 velocity=49 time=0
note_on channel=0 note=56 velocity=38 time=0
note_on channel=0 note=63 velocity=38 time=0
note_on channel=0 note=72 velocity=0 time=0
note_on channel=0 note=73 velocity=47 time=0
note_on channel=0 note=73 velocity=0 time=0
note_on channel=0 note=63 velocity=0 time=0
note_on channel=0 note=70 velocity=49 time=0
note_on channel=0 note=61 velocity=37 time=0
note_on channel=0 note=70 velocity=0 time=0
note_on channel=0 note=72 velocity=46 time=0
note_on channel=0 note=72 velocity=0 time=0
note_on channel=0 note=61 velocity=0 time=0
note_on channel=0 note=56 velocity=0 time=0
note_on channel=0 note=68 velocity=47 time=0
note_on channel=0 note=56 velocity=36 time=0
note_on channel=0 note=60 velocity=36 time=0
note_on channel=0 note=60 velocity=0 time=480
note_on channel=0 note=56 velocity=0 time=0
note_on channel=0 note=68 velocity=0 time=0
note_on channel=0 note=72 velocity=40 time=0
note_on channel=0 note=72 velocity=0 time=480
note_on channel=0 note=78 velocity=40 time=0
note_on channel=0 note=75 velocity=40 time=0
note_on channel=0 note=68 velocity=35 time=0
note_on channel=0 note=68 velocity=0 time=480
note_on channel=0 note=75 velocity=0 time=0
note_on channel=0 note=78 velocity=0 time=0
note_on channel=0 note=72 velocity=40 time=960
note_on channel=0 note=72 velocity=0 time=480
note_on channel=0 note=79 velocity=40 time=0
note_on channel=0 note=75 velocity=40 time=0
note_on channel=0 note=67 velocity=34 time=0
note_on channel=0 note=67 velocity=0 time=480
note_on channel=0 note=75 velocity=0 time=0
note_on channel=0 note=79 velocity=0 time=0
note_on channel=0 note=87 velocity=97 time=0
note_on channel=0 note=87 velocity=0 time=160
note_on channel=0 note=86 velocity=90 time=0
note_on channel=0 note=86 velocity=0 time=160
note_on channel=0 note=84 velocity=90 time=0
note_on channel=0 note=84 velocity=0 time=160
note_on channel=0 note=89 velocity=96 time=0
note_on channel=0 note=43 velocity=67 time=0
note_on channel=0 note=47 velocity=67 time=0
note_on channel=0 note=50 velocity=67 time=0
note_on channel=0 note=55 velocity=79 time=0
note_on channel=0 note=89 velocity=0 time=120
note_on channel=0 note=87 velocity=89 time=0
note_on channel=0 note=87 velocity=0 time=0
note_on channel=0 note=86 velocity=90 time=0
note_on channel=0 note=86 velocity=0 time=160
note_on channel=0 note=50 velocity=0 time=0
note_on channel=0 note=43 velocity=0 time=0
note_on channel=0 note=47 velocity=0 time=0
note_on channel=0 note=55 velocity=0 time=0
note_on channel=0 note=84 velocity=97 time=0
note_on channel=0 note=84 velocity=0 time=80
note_on channel=0 note=83 velocity=92 time=0
note_on channel=0 note=83 velocity=0 time=160
note_on channel=0 note=80 velocity=92 time=0
note_on channel=0 note=80 velocity=0 time=120
note_on channel=0 note=79 velocity=90 time=0
note_on channel=0 note=79 velocity=0 time=40
note_on channel=0 note=77 velocity=92 time=0
note_on channel=0 note=77 velocity=0 time=160
note_on channel=0 note=75 velocity=93 time=0
note_on channel=0 note=75 velocity=0 time=80
note_on channel=0 note=74 velocity=95 time=0
note_on channel=0 note=74 velocity=0 time=0
note_on channel=0 note=72 velocity=97 time=0
note_on channel=0 note=72 velocity=0 time=160
note_on channel=0 note=71 velocity=99 time=0
note_on channel=0 note=71 velocity=0 time=80
note_on channel=0 note=72 velocity=101 time=0
note_on channel=0 note=36 velocity=69 time=0
note_on channel=0 note=39 velocity=69 time=0
note_on channel=0 note=43 velocity=69 time=0
note_on channel=0 note=48 velocity=82 time=0
note_on channel=0 note=48 velocity=0 time=480
note_on channel=0 note=39 velocity=0 time=0
note_on channel=0 note=72 velocity=0 time=0
note_on channel=0 note=36 velocity=0 time=0
note_on channel=0 note=43 velocity=0 time=0
